<?xml version="1.0" encoding="UTF-8" standalone="no"?>
<!-- Created with Inkscape (http://www.inkscape.org/) -->

<svg
   width="8.9755802mm"
   height="5.389535mm"
   viewBox="0 0 8.9755802 5.389535"
   version="1.1"
   id="svg1"
   xml:space="preserve"
   sodipodi:docname="inkporter-svg-vi83c219.svg"
   xmlns:inkscape="http://www.inkscape.org/namespaces/inkscape"
   xmlns:sodipodi="http://sodipodi.sourceforge.net/DTD/sodipodi-0.dtd"
   xmlns="http://www.w3.org/2000/svg"
   xmlns:svg="http://www.w3.org/2000/svg"><sodipodi:namedview
     id="namedview1"
     pagecolor="#ffffff"
     bordercolor="#000000"
     borderopacity="0.25"
     inkscape:showpageshadow="2"
     inkscape:pageopacity="0.0"
     inkscape:pagecheckerboard="0"
     inkscape:deskcolor="#d1d1d1"
     inkscape:document-units="mm"
     inkscape:zoom="0.77205625"
     inkscape:cx="463.69679"
     inkscape:cy="568.61142"
     inkscape:window-width="2560"
     inkscape:window-height="1368"
     inkscape:window-x="0"
     inkscape:window-y="0"
     inkscape:window-maximized="1"
     inkscape:current-layer="layer1" /><defs
     id="defs1" /><g
     inkscape:label="Layer 1"
     inkscape:groupmode="layer"
     id="layer1"
     transform="translate(-116.11494,-189.81479)"><g
       id="TCA-Infantry-mortar3b"
       transform="translate(-397.75504,-368.52028)"><path
         d="m 514.13606,561.00412 -0.26608,0.15572 0.66603,1.18115 -0.0325,0.11931 -0.14285,0.005 -0.011,0.28718 -0.24905,-0.005 v 0.14286 l 2.02725,0.0171 0.009,-0.16218 -0.20701,-0.0301 -0.81366,-0.0259 0.0845,-0.60682 h -0.12653 l -0.0601,0.1964 -0.19064,-0.005 -0.0998,-0.21417 v -0.35451 l -0.19631,-0.005 z"
         id="path363"
         style="stroke-width:1.56982" /><path
         id="path3-3-3"
         style="fill:#000000;stroke-width:0.0720623"
         d="m 515.54132,561.04354 -0.10129,0.0548 c -0.0556,0.0301 -0.12979,0.0929 -0.16536,0.14004 l -0.0651,0.0858 0.007,0.14211 c 0.004,0.078 -0.007,0.15706 -0.0253,0.17621 l -0.0326,0.0351 0.0971,0.0884 0.0971,0.0884 -0.0269,0.0486 c 0,0.0303 0.0123,0.059 0.0284,0.0651 0.0158,0.007 0.0284,0.0273 0.0284,0.0476 0,0.0201 0.0137,0.0419 0.03,0.0481 0.0516,0.0198 0.009,0.0496 -0.0698,0.0496 h -0.076 l -0.0889,0.047 c -0.0499,0.0266 -0.14388,0.0723 -0.14004,0.12402 l 0.0243,0.32557 0.0538,0.048 0.0119,0.11421 c 0.007,0.0629 0.0331,0.16268 0.0589,0.22169 l 0.047,0.10749 0.0434,0.0196 c 0.066,0.03 0.24853,0.0478 0.34313,0.0336 l 0.0842,-0.0124 0.078,-0.0734 c 0.0429,-0.0403 0.0871,-0.0992 0.0982,-0.13074 l 0.0196,-0.0574 0.0517,-0.0145 c 0.0755,-0.0211 0.12123,-0.01 0.1757,0.0413 l 0.0491,0.046 h 0.0656 c 0.0361,1.5e-4 0.10266,0.022 0.14831,0.0481 0.0456,0.0261 0.10406,0.047 0.12971,0.047 0.0257,0 0.0698,0.0118 0.0982,0.0263 0.0283,0.0145 0.0902,0.0323 0.13746,0.0393 0.0473,0.007 0.10309,0.0207 0.12402,0.03 0.0678,0.0298 0.26618,0.0842 0.29559,0.0811 0.16638,-0.0174 0.31346,-0.0194 0.3483,-0.007 0.0235,0.009 0.11956,0.0399 0.21394,0.0687 0.23119,0.0706 0.43277,0.14056 0.45682,0.15813 0.02,0.0145 0.11583,0.0373 0.32504,0.078 0.0629,0.0122 0.14553,0.0306 0.18345,0.0403 0.0379,0.01 0.12697,0.0176 0.19793,0.0176 H 519.03 l 0.061,0.0646 c 0.0335,0.0356 0.0776,0.0692 0.0977,0.0739 0.0735,0.0172 0.30556,-0.0116 0.37413,-0.0455 l 0.0703,-0.0357 0.0548,0.0114 0.0548,0.0114 0.0532,-0.0698 0.0532,-0.0698 0.002,-0.092 0.002,-0.092 -0.0367,-0.0403 -0.0367,-0.0403 h -0.0827 c -0.0456,0 -0.0827,-0.009 -0.0827,-0.0191 0,-0.0101 0.0133,-0.0191 0.0295,-0.0191 0.0162,0 0.0696,-0.0212 0.11885,-0.0475 l 0.0894,-0.047 h 0.11472 0.11473 l 0.0672,0.0563 c 0.0367,0.0314 0.0763,0.0578 0.0879,0.0579 0.0263,6e-5 0.12196,0.11347 0.12196,0.14469 v 0.0227 l 0.0971,0.007 c 0.13951,0.009 0.1695,-0.03 0.1695,-0.22117 v -0.10077 l -0.0408,-0.093 c -0.0227,-0.0512 -0.0573,-0.11446 -0.077,-0.14107 -0.0197,-0.0266 -0.0387,-0.0798 -0.0424,-0.11783 -0.003,-0.038 -0.022,-0.1084 -0.0403,-0.15658 l -0.0336,-0.0873 -0.0687,5.2e-4 c -0.0379,2.4e-4 -0.14086,0.0259 -0.22841,0.0563 l -0.15917,0.0553 -0.0501,-0.0202 c -0.0278,-0.0112 -0.0916,-0.0377 -0.1416,-0.0594 l -0.091,-0.0393 -0.36173,0.0217 c -0.19893,0.0121 -0.37305,0.0179 -0.38706,0.0124 -0.0277,-0.0112 -0.38811,-0.0983 -0.47955,-0.11679 -0.0311,-0.007 -0.0829,-0.0271 -0.11473,-0.0465 -0.0318,-0.0194 -0.0721,-0.0356 -0.0899,-0.0357 -0.0179,-3e-5 -0.0611,-0.029 -0.0956,-0.0646 l -0.0625,-0.0641 -0.14315,-0.0253 c -0.0786,-0.0137 -0.1797,-0.023 -0.22427,-0.0207 l -0.0806,0.004 v -0.0367 c 0,-0.0201 -0.0133,-0.0469 -0.0289,-0.0599 -0.0157,-0.0131 -0.0284,-0.0444 -0.0284,-0.0693 0,-0.062 -0.12008,-0.19005 -0.24391,-0.25993 l -0.10232,-0.0574 0.0114,-0.0429 0.0114,-0.0429 -0.0393,-0.0491 c -0.0213,-0.0272 -0.0733,-0.0591 -0.11524,-0.0703 -0.042,-0.0113 -0.0928,-0.0374 -0.11317,-0.0579 -0.0348,-0.0347 -0.10369,-0.0478 -0.20412,-0.0393 -0.0235,0.002 -0.0845,0.0245 -0.13539,0.0501 l -0.0925,0.0465 -0.0506,0.077 c -0.0599,0.0905 -0.0551,0.089 -0.13435,0.0284 -0.0344,-0.0263 -0.0752,-0.0481 -0.0909,-0.0481 h -0.0284 l -0.0537,-0.13643 -0.13591,0.0827 c -0.0203,-0.0523 -0.0495,-0.11735 -0.0796,-0.17518 l -0.0909,-0.17208 -0.16382,-0.0388 z"
         inkscape:transform-center-x="2.9981936"
         inkscape:transform-center-y="-0.77481407" /><path
         style="fill:#000000;fill-opacity:1;stroke-width:0.00988633"
         d="m 520.62519,563.1412 c 0.0148,-0.005 0.0388,-0.0181 0.0532,-0.0294 l 0.0263,-0.0207 h 0.0534 c 0.0609,0 0.10808,-0.017 0.13675,-0.0491 l 0.0198,-0.0222 -10e-4,-0.0558 c -8.1e-4,-0.0307 -0.0112,-0.10246 -0.0231,-0.15957 l -0.0218,-0.10381 -0.007,-0.23233 c -0.008,-0.29003 -0.008,-0.47266 0.002,-0.54622 l 0.008,-0.0568 h 0.0173 c 0.009,0 0.0503,0.0113 0.0908,0.0251 l 0.0734,0.025 0.12774,0.009 0.12773,0.009 0.0269,0.0257 0.0268,0.0257 0.0315,0.0797 0.0315,0.0797 -0.0101,0.12778 -0.0101,0.12777 -0.0248,0.0425 c -0.0137,0.0234 -0.0409,0.0617 -0.0606,0.0851 -0.0197,0.0235 -0.043,0.0564 -0.0521,0.0731 l -0.0164,0.0304 v 0.0791 0.0791 l 0.0176,0.0354 0.0176,0.0354 0.0381,0.0215 0.038,0.0215 h 0.046 c 0.0517,0 0.10852,-0.0206 0.14089,-0.051 l 0.0217,-0.0204 0.008,0.0366 0.008,0.0366 0.0537,0.0631 c 0.0294,0.0348 0.0724,0.0742 0.0952,0.0874 0.0448,0.0262 0.15544,0.0552 0.21006,0.0552 0.0738,0 0.18159,-0.0606 0.27478,-0.15449 0.0209,-0.0211 0.0436,-0.0494 0.0504,-0.063 0.008,-0.0136 0.0209,-0.0581 0.031,-0.0989 l 0.0184,-0.0741 v -0.084 -0.084 l -0.0333,-0.0692 -0.0333,-0.0692 0.006,-0.053 0.006,-0.053 0.0497,-0.0861 c 0.0274,-0.0474 0.0536,-0.0967 0.0585,-0.10977 l 0.009,-0.0236 0.008,0.0392 c 0.009,0.0466 0.0312,0.11654 0.048,0.14786 0.007,0.0124 0.0402,0.0527 0.0745,0.0897 l 0.0624,0.0671 0.006,0.028 0.006,0.028 h 0.0298 0.0298 l -0.006,-0.0489 c -0.008,-0.0664 -0.0294,-0.10673 -0.0834,-0.15493 l -0.0454,-0.0407 -0.007,-0.0483 c -0.005,-0.0265 -0.0145,-0.0655 -0.0238,-0.0866 l -0.0169,-0.0383 0.0179,0.007 c 0.0101,0.004 0.0562,0.031 0.10314,0.0607 l 0.0853,0.0538 h 0.0257 0.0257 l 0.0101,-0.0191 c 0.0146,-0.0272 0.0367,-0.14112 0.0444,-0.22804 l 0.007,-0.0742 -0.0129,-0.0175 c -0.0117,-0.0158 -0.16525,-0.0853 -0.27239,-0.1232 l -0.042,-0.0149 v -0.0374 -0.0373 l 0.0555,-0.0777 c 0.0306,-0.0427 0.0941,-0.11992 0.14137,-0.17157 0.0472,-0.0517 0.0964,-0.10954 0.1092,-0.12852 0.0129,-0.0191 0.0366,-0.0472 0.0528,-0.0625 l 0.0294,-0.0279 -0.007,-0.071 c -0.003,-0.039 -0.0101,-0.101 -0.0153,-0.1378 -0.008,-0.0612 -0.0161,-0.0819 -0.0643,-0.17044 -0.009,-0.0163 -0.047,-0.10001 -0.0847,-0.18596 -0.0378,-0.086 -0.0903,-0.19273 -0.11693,-0.23726 -0.0265,-0.0445 -0.0585,-0.0995 -0.0711,-0.12217 l -0.0227,-0.0412 -0.0818,-0.0643 c -0.0449,-0.0354 -0.10234,-0.0757 -0.12749,-0.0898 -0.0836,-0.0466 -0.0953,-0.0576 -0.16038,-0.15108 l -0.0647,-0.0928 0.0122,-0.0294 0.0121,-0.0294 -0.007,-0.0474 -0.007,-0.0474 0.0199,-0.0776 0.0199,-0.0776 v -0.0658 -0.0658 l -0.0164,-0.0486 c -0.009,-0.0267 -0.0273,-0.0659 -0.0404,-0.0871 -0.0367,-0.0586 -0.10572,-0.12064 -0.16832,-0.1514 l -0.0565,-0.0277 h -0.0941 -0.0942 l -0.0661,0.0325 -0.0659,0.0325 -0.041,0.0465 c -0.0225,0.0256 -0.0583,0.0823 -0.0795,0.12623 l -0.0387,0.0798 -0.0297,0.0219 c -0.038,0.0281 -0.0692,0.0893 -0.07,0.13723 l -8.1e-4,0.0374 -0.0131,-0.0297 c -0.008,-0.0163 -0.0182,-0.0425 -0.0244,-0.0582 l -0.0113,-0.0285 -0.0444,0.006 c -0.0244,0.003 -0.0681,0.0173 -0.097,0.031 -0.0289,0.0137 -0.0566,0.0247 -0.0614,0.0244 -0.005,-2.7e-4 -0.0229,-0.0125 -0.0401,-0.0272 l -0.0311,-0.0269 -0.0858,-0.17301 c -0.0472,-0.0952 -0.10381,-0.21527 -0.12578,-0.26692 -0.0356,-0.0837 -0.1028,-0.23088 -0.20107,-0.44062 -0.018,-0.0384 -0.0418,-0.0955 -0.0528,-0.12675 -0.025,-0.0712 -0.0538,-0.12126 -0.0661,-0.11478 -0.004,0.002 -0.009,0.0214 -0.008,0.0416 l 10e-4,0.0367 0.0249,0.0425 c 0.0137,0.0234 0.0469,0.096 0.0738,0.16135 0.0457,0.11133 0.16626,0.37657 0.21051,0.4634 0.0112,0.0213 0.03,0.0658 0.0425,0.0989 0.0125,0.033 0.0461,0.10987 0.0745,0.17056 l 0.0519,0.11043 -0.0345,0.0345 -0.0345,0.0345 -0.028,0.0712 -0.028,0.0712 -0.0153,0.004 c -0.0397,0.0122 -0.0608,0.0283 -0.0663,0.05 l -0.006,0.0237 0.0337,0.0363 c 0.0185,0.02 0.0419,0.0462 0.0519,0.0582 l 0.0182,0.0219 -0.0162,0.0403 -0.0162,0.0403 0.007,0.0269 c 0.003,0.0147 0.0121,0.0363 0.0194,0.048 0.008,0.0117 0.0161,0.0431 0.0197,0.07 l 0.007,0.0489 -0.043,0.0536 c -0.0237,0.0294 -0.0558,0.0736 -0.0714,0.0981 -0.0156,0.0245 -0.069,0.0845 -0.11862,0.13346 -0.0496,0.049 -0.10303,0.10785 -0.11863,0.13086 l -0.0284,0.0419 -8.1e-4,0.0725 -8.2e-4,0.0725 0.0281,0.037 0.0281,0.037 0.0535,0.0262 0.0535,0.0262 0.042,-0.0126 c 0.0231,-0.008 0.0599,-0.0165 0.0816,-0.0212 0.0218,-0.004 0.0596,-0.0131 0.084,-0.0188 0.0244,-0.006 0.0479,-0.0101 0.0519,-0.0101 0.005,-2.7e-4 0.008,0.0326 0.008,0.0729 v 0.0733 l 0.0184,0.043 c 0.0101,0.0236 0.0257,0.049 0.0346,0.0564 0.009,0.008 0.0162,0.0173 0.0162,0.022 0,0.0166 -0.047,0.009 -0.0738,-0.0126 l -0.0271,-0.0212 -0.0283,0.0167 -0.0283,0.0167 -0.11646,-0.0354 c -0.0641,-0.0195 -0.17312,-0.0531 -0.24237,-0.0749 l -0.12591,-0.0394 -0.0116,-0.0218 c -0.0129,-0.0245 -0.0275,-0.0363 -0.0452,-0.0365 -0.0191,-2.7e-4 -0.0622,0.052 -0.0622,0.0756 v 0.0215 l 0.042,0.0154 c 0.0479,0.0175 0.17291,0.0566 0.25706,0.0804 l 0.0568,0.0161 v 0.0185 0.0185 l -0.0686,0.0361 c -0.0378,0.0199 -0.0834,0.0504 -0.10134,0.068 l -0.0327,0.0319 -0.0324,0.0883 -0.0324,0.0883 -10e-4,0.0494 c -10e-4,0.0673 0.019,0.27769 0.0326,0.32583 0.006,0.0215 0.0372,0.0893 0.0693,0.15068 0.0321,0.0614 0.0583,0.12207 0.0583,0.13488 0,0.0128 0.0133,0.0429 0.0294,0.0667 l 0.0295,0.0435 v 0.0277 c 0,0.0153 0.0112,0.0509 0.0244,0.0791 0.0133,0.0282 0.029,0.0825 0.0348,0.1205 0.0115,0.0749 0.0215,0.10089 0.0586,0.15134 l 0.024,0.0327 -0.0175,0.0555 -0.0175,0.0555 -0.0534,0.0534 c -0.0587,0.0587 -0.0731,0.0804 -0.0731,0.10988 v 0.0197 l -0.0324,0.02 c -0.0177,0.0112 -0.0427,0.031 -0.0554,0.0445 l -0.023,0.0246 -0.004,0.0497 -0.005,0.0496 0.0227,0.0144 c 0.0321,0.0203 0.11688,0.0363 0.22038,0.0414 l 0.089,0.004 z m 0.83221,-1.14497 c 0.003,-0.003 0.0158,0.003 0.0273,0.0144 l 0.0209,0.0209 -0.007,0.0179 -0.007,0.0179 -0.0204,-0.0324 c -0.0112,-0.0178 -0.0176,-0.0352 -0.014,-0.0388 z m 0.90713,-0.76385 v -0.0346 l 0.008,0.0279 c 0.004,0.0153 0.0135,0.034 0.0198,0.0416 l 0.0115,0.0138 -0.0128,0.0374 -0.0129,0.0374 -0.008,-0.0445 c -0.005,-0.0245 -0.008,-0.0601 -0.008,-0.0791 z m -0.0244,-0.12605 -0.007,-0.0321 h 0.0146 0.0146 l -8.1e-4,0.0568 -8.2e-4,0.0568 -0.008,-0.0247 c -0.004,-0.0136 -0.0101,-0.0392 -0.0137,-0.0568 z m -1.56923,-1.08743 -0.0101,-0.0419 0.0124,-0.0199 0.0124,-0.0199 h 0.022 0.022 l 0.0101,-0.02 0.0112,-0.0199 -0.009,-0.0165 -0.009,-0.0165 0.0256,-0.0401 c 0.014,-0.022 0.0327,-0.0614 0.0412,-0.0875 l 0.0157,-0.0474 0.0218,0.0603 0.0217,0.0603 -0.0381,0.0373 -0.0381,0.0373 -0.008,0.0677 c -0.004,0.0373 -0.0101,0.0758 -0.0139,0.0856 -0.003,0.0101 -0.0221,0.0286 -0.041,0.0417 l -0.0344,0.0237 -0.002,-0.0212 c -10e-4,-0.0117 -0.008,-0.0401 -0.0125,-0.0631 z m 0.0521,-0.27935 c 0.0101,-0.0546 0.0224,-0.0791 0.0384,-0.0791 0.0158,0 0.009,0.0351 -0.0172,0.0875 -0.0143,0.0285 -0.0272,0.0505 -0.0288,0.0489 -10e-4,-10e-4 0.001,-0.0274 0.008,-0.0573 z m -0.0827,-0.0362 0.0101,-0.0182 v 0.0292 0.0292 l -0.0112,-0.0112 -0.0112,-0.0112 0.0101,-0.0182 z m 0.0145,-0.0397 c 0.003,-0.003 0.007,-6.8e-4 0.007,0.007 0,0.008 -0.003,0.0101 -0.007,0.007 -0.003,-0.003 -0.003,-0.009 0,-0.0131 z m 0.0313,-0.0765 c 0.0233,-0.0492 0.0579,-0.0846 0.0704,-0.072 0.002,0.002 0.008,0.0197 0.0101,0.038 l 0.006,0.0336 -0.0341,0.0122 c -0.0188,0.007 -0.0421,0.0211 -0.0519,0.032 -0.0101,0.0112 -0.0197,0.0179 -0.0219,0.0156 -0.002,-0.002 0.008,-0.029 0.022,-0.0594 z"
         id="path108633-1-4-6-9-7-5" /></g></g></svg>
