<?xml version="1.0" encoding="UTF-8" standalone="no"?>
<!-- Created with Inkscape (http://www.inkscape.org/) -->

<svg
   width="13.872484mm"
   height="7.8739924mm"
   viewBox="0 0 13.872484 7.8739924"
   version="1.1"
   id="svg1"
   sodipodi:docname="inkporter-svg-2n_xaiyf.svg"
   xmlns:inkscape="http://www.inkscape.org/namespaces/inkscape"
   xmlns:sodipodi="http://sodipodi.sourceforge.net/DTD/sodipodi-0.dtd"
   xmlns="http://www.w3.org/2000/svg"
   xmlns:svg="http://www.w3.org/2000/svg">
  <sodipodi:namedview
     id="namedview1"
     pagecolor="#ffffff"
     bordercolor="#000000"
     borderopacity="0.25"
     inkscape:showpageshadow="2"
     inkscape:pageopacity="0.0"
     inkscape:pagecheckerboard="0"
     inkscape:deskcolor="#d1d1d1"
     inkscape:document-units="mm"
     inkscape:zoom="0.89405683"
     inkscape:cx="383.64451"
     inkscape:cy="560.36706"
     inkscape:window-width="2560"
     inkscape:window-height="1368"
     inkscape:window-x="0"
     inkscape:window-y="0"
     inkscape:window-maximized="1"
     inkscape:current-layer="layer1" />
  <defs
     id="defs1" />
  <g
     inkscape:label="Layer 1"
     inkscape:groupmode="layer"
     id="layer1"
     transform="translate(-85.196619,-115.49705)">
    <path
       id="TG-M113 Pzm"
       d="m 88.089733,117.48449 c 0.0326,-0.004 0.0478,-0.0243 0.0584,-0.0493 0.003,-0.008 0.008,-0.0167 0.0106,-0.025 0.0121,-0.0379 0.041,-0.0607 0.0736,-0.0804 0.0326,-0.0197 0.0607,-0.005 0.063,0.0326 0.003,0.0364 0.002,0.0728 0.002,0.1085 -7.6e-4,0.10091 -0.002,0.20105 -0.003,0.30196 0,0.0137 0.002,0.0281 0.003,0.0417 7.6e-4,0.0197 -0.005,0.0288 -0.0243,0.0311 -0.0281,0.003 -0.0539,-7.5e-4 -0.0728,-0.0258 -0.0265,-0.0334 -0.063,-0.0448 -0.10394,-0.044 -0.0341,7.6e-4 -0.0683,0.002 -0.10243,0.002 -0.005,0 -0.01,-0.002 -0.0152,-0.002 -0.019,7.6e-4 -0.0258,0.0114 -0.0167,0.0281 0.006,0.0114 0.0144,0.022 0.0205,0.0334 0.0334,0.0577 0.0668,0.11456 0.0986,0.17298 0.019,0.0334 0.0357,0.0668 0.0531,0.10091 0.0137,0.0273 0.019,0.0319 0.0493,0.0296 0.0478,-0.003 0.0956,-0.007 0.14415,-0.003 0.0448,0.004 0.0607,-0.0167 0.0531,-0.0615 -0.008,-0.0455 -0.003,-0.0895 0.006,-0.13429 0.003,-0.0152 0.0106,-0.0258 0.0235,-0.0334 0.0121,-0.007 0.025,-0.0121 0.0372,-0.0197 0.0197,-0.0114 0.041,-0.022 0.0577,-0.0364 0.0205,-0.0182 0.0417,-0.0266 0.066,-0.0152 0.0455,0.0205 0.0926,0.0387 0.12974,0.0743 0.0182,0.0174 0.025,0.0364 0.0152,0.0592 -0.0129,0.0288 -0.0167,0.0577 -0.005,0.088 0.002,0.008 -0.002,0.019 -0.005,0.0281 -0.0121,0.0425 0.0106,0.0706 0.0546,0.0652 0.0144,-0.002 0.0288,-0.009 0.044,-0.01 0.0197,-7.5e-4 0.0402,0 0.0592,0.005 0.0486,0.0106 0.0903,-0.044 0.0713,-0.0872 -0.0152,-0.0357 0.008,-0.0592 0.019,-0.0865 7.6e-4,-0.004 0.007,-0.007 0.0114,-0.009 0.0501,-0.0212 0.11228,0.003 0.13504,0.0531 0.005,0.0114 0.006,0.0228 -0.002,0.0334 -0.003,0.004 -0.006,0.008 -0.009,0.0121 -0.022,0.0326 -0.008,0.0713 0.0296,0.0804 0.0159,0.005 0.0334,0.002 0.0508,0.002 0.0258,-7.6e-4 0.0523,-0.002 0.0781,-0.004 0.0212,-0.002 0.044,-0.002 0.0645,-0.009 0.0743,-0.025 0.14719,-0.0546 0.22154,-0.0774 0.0379,-0.0121 0.0789,-0.0144 0.11836,-0.0197 0.0167,-0.002 0.0319,0.004 0.044,0.0167 0.0129,0.0144 0.0303,0.0175 0.0486,0.0182 0.0455,0 0.088,-0.0129 0.12973,-0.0266 0.0266,-0.009 0.0486,-0.0106 0.0691,0.0106 0.007,0.007 0.0159,0.0121 0.025,0.0167 0.0175,0.008 0.0258,0.005 0.0402,-0.008 0.0311,-0.0273 0.0622,-0.0539 0.0948,-0.0789 0.009,-0.007 0.022,-0.01 0.0334,-0.0121 0.019,-0.004 0.0379,-0.007 0.0569,-0.008 0.0265,-0.002 0.0546,0.002 0.0721,0.0235 0.0288,0.0349 0.0668,0.0569 0.10243,0.0835 0.0273,0.0205 0.0546,0.041 0.0812,0.0615 0.0129,0.009 0.025,0.0213 0.0432,0.0129 0.008,-0.0129 0.002,-0.0228 -0.005,-0.0334 -0.0182,-0.0311 -0.0182,-0.0334 0.005,-0.0569 0.0129,-0.0137 0.0182,-0.0281 0.0121,-0.047 -0.002,-0.006 -0.003,-0.0137 -0.003,-0.0205 -7.6e-4,-0.0281 0,-0.0561 -7.6e-4,-0.0842 -7.6e-4,-0.085 -0.003,-0.16995 -0.004,-0.25569 0,-0.025 -0.008,-0.0448 -0.025,-0.0622 -0.0721,-0.0683 -0.12595,-0.15098 -0.18209,-0.23216 -0.008,-0.0114 -0.0114,-0.0266 -0.0159,-0.041 -0.005,-0.0129 -0.007,-0.0273 -0.0114,-0.0402 -0.0152,-0.0387 -0.0311,-0.0766 -0.0455,-0.11456 -0.005,-0.0137 -0.008,-0.0273 -0.0114,-0.041 -0.008,-0.0395 -0.0167,-0.0781 -0.0243,-0.11836 -0.003,-0.0182 -0.006,-0.0372 -0.006,-0.0561 -7.6e-4,-0.0486 0,-0.0971 0,-0.14491 0,-0.0205 0,-0.041 -0.0273,-0.0463 -0.006,-7.6e-4 -0.0114,-0.0106 -0.0137,-0.0182 -0.0106,-0.0379 -0.0212,-0.0766 -0.0303,-0.11608 -0.003,-0.0114 -0.002,-0.025 0.01,-0.0326 0.0137,-0.008 0.0167,-0.0197 0.0114,-0.0334 -0.005,-0.0121 -7.6e-4,-0.0228 7.6e-4,-0.0349 0.006,-0.0357 0.0114,-0.0713 0.0137,-0.10774 0.002,-0.0387 -7.6e-4,-0.0781 -7.6e-4,-0.11684 0,-0.0706 7.6e-4,-0.14111 7.6e-4,-0.21167 0,-0.005 0,-0.0114 0,-0.0174 0.003,-0.041 0.008,-0.044 0.0486,-0.0357 0.009,0.002 0.0182,0.002 0.0273,0.002 0.0645,0 0.12822,0 0.19271,0 0.0425,0 0.0842,-7.6e-4 0.1267,0 0.0258,7.5e-4 0.0425,-0.01 0.0546,-0.0334 0.0349,-0.0652 0.0577,-0.13429 0.0683,-0.20712 0.003,-0.0228 0.008,-0.0266 0.0311,-0.0266 0.11305,7.6e-4 0.22534,0.002 0.33762,0.002 0.0341,0 0.069,-7.6e-4 0.10243,-7.6e-4 0.0372,0 0.0455,-0.007 0.0546,-0.0417 0.0159,-0.0645 0.0319,-0.12822 0.0478,-0.19271 0.008,-0.0311 0.0152,-0.0357 0.047,-0.0273 0.008,0.002 0.0152,0.003 0.0235,0.003 0.17905,0 0.35811,0 0.53716,0 0.0144,0 0.0296,-0.002 0.0448,-0.004 0.0152,-7.6e-4 0.0266,0.004 0.0349,0.0182 0.01,0.0174 0.022,0.0341 0.0326,0.0508 0.009,0.0137 0.0205,0.0197 0.0379,0.019 0.0478,-0.002 0.0964,0 0.14491,-7.6e-4 0.019,-7.6e-4 0.0387,-7.6e-4 0.0561,-0.006 0.0417,-0.0144 0.0835,-0.005 0.12595,-0.008 0.0235,0.0197 0.0501,0.0121 0.0766,0.009 0.0144,-0.002 0.0243,0.008 0.0281,0.0228 0.006,0.025 0.0228,0.0319 0.047,0.0319 0.0979,-0.002 0.19498,-0.002 0.29285,-0.002 0.0364,-7.6e-4 0.0417,0.009 0.0372,0.0463 -0.003,0.0273 -0.002,0.0554 7.6e-4,0.0835 0.002,0.022 0.0152,0.0372 0.0357,0.0448 0.0167,0.006 0.0341,0.01 0.0516,0.0137 0.006,0.002 0.0121,7.5e-4 0.0182,0.002 0.0539,0.005 0.0675,0.0159 0.0812,0.0683 0.003,0.0106 0.005,0.0212 0.008,0.0319 0.008,0.0235 0.0243,0.0394 0.0493,0.0432 0.0197,0.003 0.0334,0.008 0.0364,0.0319 0.003,0.0213 0.0159,0.0281 0.0402,0.0273 0.0516,-7.6e-4 0.10242,-0.002 0.15401,-0.002 0.01,0 0.0197,-7.6e-4 0.0296,0 0.0341,7.6e-4 0.041,0.0106 0.0395,0.0448 -0.002,0.0486 -0.004,0.0964 -0.005,0.14491 0,0.008 0.003,0.0159 0.005,0.0281 0.008,-0.006 0.0137,-0.009 0.0174,-0.0129 0.0235,-0.0288 0.0478,-0.0569 0.0797,-0.0766 0.01,-0.006 0.0159,-0.0152 0.0235,-0.0235 0.0212,-0.022 0.0372,-0.022 0.0592,-7.6e-4 0.0212,0.0197 0.0425,0.0402 0.063,0.0599 0.0197,0.019 0.025,0.019 0.0448,0 0.0152,-0.0137 0.0319,-0.0281 0.0493,-0.0394 0.0205,-0.0137 0.0311,-0.0114 0.0478,0.005 0.0235,0.022 0.0455,0.0463 0.0675,0.069 0.0144,0.0137 0.0296,0.0273 0.0432,0.0417 0.0744,0.0759 0.15402,0.14718 0.2223,0.22912 0.0212,0.025 0.0334,0.0524 0.0326,0.085 0,0.0121 -0.004,0.022 -0.0152,0.0273 -0.0379,0.0152 -0.063,0.0463 -0.088,0.0766 -0.0303,0.0364 -0.0637,0.069 -0.1009,0.0986 -0.005,0.004 -0.009,0.008 -0.0137,0.0121 -0.0106,0.0129 -0.0121,0.0228 0,0.0341 0.0159,0.0144 0.019,0.0319 0.0167,0.0516 -7.6e-4,0.0114 -7.6e-4,0.0228 7.6e-4,0.0334 0.003,0.0266 -0.005,0.0493 -0.0235,0.0683 -0.0144,0.0144 -0.0281,0.0296 -0.0417,0.044 -0.009,0.0106 -0.0205,0.0197 -0.0281,0.0311 -0.0311,0.0455 -0.0728,0.0804 -0.11305,0.11684 -0.0228,0.0212 -0.0432,0.0448 -0.063,0.0683 -0.0516,0.0599 -0.10773,0.11456 -0.16464,0.16843 -0.0387,0.0379 -0.0744,0.0789 -0.11228,0.11836 -0.0159,0.0167 -0.0319,0.0334 -0.0493,0.0485 -0.0152,0.0129 -0.0349,0.0137 -0.0539,0.0129 -0.10166,-0.002 -0.20333,-0.005 -0.30499,-0.002 -0.0349,7.5e-4 -0.0698,0.002 -0.1047,-0.004 -0.0288,-0.005 -0.041,0.009 -0.0402,0.0364 0,0.0212 -7.6e-4,0.0425 0.002,0.0637 0.003,0.0273 0.0144,0.0349 0.041,0.0281 0.0342,-0.008 0.0683,-0.006 0.10167,-0.006 0.20637,0 0.41273,0 0.6191,0 0.35051,0 0.70179,0 1.05307,0 0.0174,0 0.0357,-0.002 0.0539,-0.003 0.0266,-7.6e-4 0.0319,0.004 0.0319,0.0303 7.6e-4,0.0819 7.6e-4,0.16311 7.6e-4,0.2443 0,0.10014 -7.6e-4,0.19953 0,0.29892 0,0.0319 0.003,0.0637 0.008,0.0956 0.002,0.0129 0.009,0.0258 0.0159,0.0387 0.005,0.009 0.0144,0.0175 0.0243,0.0121 0.008,-0.004 0.0121,-0.0144 0.0159,-0.0235 0.002,-0.006 0,-0.0137 0,-0.0205 -0.005,-0.0531 -0.004,-0.10622 0.004,-0.15933 0.002,-0.0129 0.002,-0.0265 0.002,-0.0394 -0.002,-0.13429 -0.004,-0.26934 -0.005,-0.40439 -7.6e-4,-0.0205 7.6e-4,-0.0417 0.002,-0.063 0.002,-0.0205 0.006,-0.025 0.0258,-0.0243 0.0326,7.6e-4 0.0645,0.002 0.0964,0.002 0.0197,0 0.0402,-0.004 0.0599,-0.004 0.17906,7.6e-4 0.35811,0.003 0.53716,0.003 0.15857,0 0.31714,-0.002 0.47646,-0.002 0.2481,-7.6e-4 0.49619,-7.6e-4 0.74504,-7.6e-4 0.11153,0 0.22306,-7.6e-4 0.33459,-7.6e-4 0.0402,0 0.0478,0.007 0.0478,0.047 0,0.0425 -0.002,0.0842 -0.002,0.12671 0,0.0721 0.002,0.14415 0.002,0.21698 0,0.0296 -0.005,0.0599 -0.006,0.0903 -7.6e-4,0.01 0,0.0197 0,0.0281 0.0106,0.008 0.0182,0.004 0.0243,-0.004 0.006,-0.007 0.0106,-0.0152 0.0159,-0.022 0.0144,-0.0205 0.0326,-0.0357 0.0554,-0.0448 0.0182,-0.007 0.0349,-0.0167 0.0531,-0.022 0.0144,-0.005 0.0326,-0.008 0.0463,-0.004 0.0706,0.022 0.1305,0.0584 0.16464,0.1267 0.0137,0.0266 0.0197,0.0554 0.0197,0.0842 0,0.0311 0.004,0.0372 0.0334,0.0433 0.0425,0.009 0.0622,0.002 0.0827,-0.0364 0.01,-0.019 0.022,-0.0288 0.044,-0.0288 0.12064,7.6e-4 0.24203,0 0.3619,0.002 0.0341,0 0.0683,0.005 0.10243,0.002 0.0296,-0.003 0.0394,0.008 0.0432,0.0379 0.002,0.0114 0.003,0.0235 0.003,0.0357 0,0.0182 -0.01,0.0364 -0.0319,0.0357 -0.005,0 -0.0114,7.6e-4 -0.0144,0.003 -0.007,0.005 -0.0159,0.0129 -0.0159,0.019 7.6e-4,0.008 0.008,0.0182 0.0152,0.0235 0.007,0.005 0.0174,0.005 0.0258,0.005 0.0744,0 0.14871,-0.002 0.22306,-7.6e-4 0.0463,0 0.0926,0.004 0.13808,0.005 0.0463,0 0.0926,-0.002 0.13884,-0.004 0.0296,-0.002 0.041,0.005 0.0433,0.0349 7.6e-4,0.0144 0,0.0288 -0.003,0.0425 -0.007,0.0326 -0.0152,0.066 -0.0167,0.10015 0,0.0159 -0.009,0.0334 -0.0197,0.0463 -0.0569,0.0683 -0.11532,0.13656 -0.1745,0.20333 -0.0303,0.0341 -0.0645,0.066 -0.0964,0.0994 -0.0273,0.0296 -0.0273,0.0349 -0.008,0.0683 0.007,0.0129 0.0121,0.0273 0.0182,0.041 0.005,0.0129 0.009,0.0266 0.0152,0.0394 0.0357,0.0819 0.0743,0.16236 0.10622,0.24582 0.0288,0.0766 0.0607,0.15098 0.0964,0.22382 0.0273,0.0561 0.0463,0.11532 0.0736,0.17146 0.0228,0.0486 0.0341,0.10015 0.0554,0.14946 0.0106,0.0235 0.0212,0.047 0.0334,0.0698 0.0137,0.025 0.0212,0.0501 0.0174,0.0781 -0.009,0.0721 -0.0174,0.14339 -0.0258,0.21547 -0.003,0.0235 0.003,0.0326 0.025,0.041 0.002,7.6e-4 0.004,0.002 0.006,0.002 0.0562,0.0129 0.11305,0.0266 0.16995,0.0402 0.008,0.002 0.0174,0.003 0.0266,0.003 0.0243,-7.6e-4 0.0448,0.005 0.066,0.0167 0.0121,0.008 0.0281,0.008 0.044,0.0121 0.006,0.0228 0.009,0.37404 0.003,0.51743 -0.0197,0.009 -0.025,0.0281 -0.0288,0.0486 -0.006,0.0288 -0.008,0.0584 -0.0243,0.0857 -0.008,0.0137 -0.008,0.0326 -0.01,0.0501 -0.005,0.0303 -0.009,0.0615 -0.0137,0.0918 -0.008,0.0478 -0.0152,0.0956 -0.0235,0.14263 -0.003,0.0167 -0.005,0.0341 -0.01,0.0501 -0.0137,0.0417 -0.0182,0.0842 -0.0197,0.12746 -7.6e-4,0.0121 -0.003,0.0243 -0.004,0.0364 -0.002,0.0539 -0.0394,0.0827 -0.0804,0.10697 -0.0106,0.007 -0.0273,0.005 -0.041,0.005 -0.0804,-0.004 -0.15857,-0.0228 -0.23672,-0.0394 -0.005,-0.002 -0.01,-0.002 -0.0152,-0.003 -0.0296,-0.003 -0.0394,0.003 -0.0425,0.0319 -0.002,0.0296 -0.0182,0.0493 -0.0379,0.069 -0.0296,0.0288 -0.0668,0.044 -0.10167,0.063 -0.0448,0.025 -0.088,0.0523 -0.12973,0.0819 -0.0372,0.0273 -0.0774,0.0508 -0.11608,0.0759 -0.0167,0.0106 -0.0334,0.022 -0.0493,0.0341 -0.0281,0.0212 -0.0584,0.0212 -0.0842,-0.005 -0.0144,-0.0136 -0.0288,-0.0197 -0.0486,-0.019 -0.0303,7.6e-4 -0.0607,-7.6e-4 -0.0903,7.6e-4 -0.047,7.5e-4 -0.0926,-0.002 -0.13808,-0.0144 -0.0288,-0.007 -0.0584,-0.01 -0.0895,-0.005 -0.0159,0.003 -0.0334,-7.6e-4 -0.0508,-0.002 -0.025,-0.002 -0.0326,0.007 -0.0258,0.0303 0.005,0.0182 0.01,0.0364 0.007,0.0554 -7.5e-4,0.008 0.002,0.0159 0.006,0.0235 0.0182,0.0395 0.0129,0.0797 0.002,0.11988 -0.009,0.0341 -0.0167,0.0683 -0.022,0.10318 -0.005,0.0319 -0.0106,0.0622 -0.0182,0.0941 -0.01,0.0387 -0.009,0.0789 -0.0129,0.11912 -7.6e-4,0.01 0.002,0.0205 7.6e-4,0.0303 -0.002,0.0197 -0.009,0.0258 -0.0296,0.0243 -0.003,0 -0.006,-0.002 -0.009,-0.002 -0.009,7.6e-4 -0.0228,0 -0.0258,0.005 -0.005,0.007 7.6e-4,0.019 0.003,0.0281 0.003,0.0121 0.0175,0.0197 0.0121,0.0357 -0.006,0.0174 -0.0205,0.025 -0.0349,0.0349 -0.0334,0.022 -0.0675,0.0448 -0.0971,0.0713 -0.0372,0.0334 -0.0781,0.0592 -0.11911,0.0873 -0.0197,0.0129 -0.0395,0.0273 -0.0569,0.0432 -0.0205,0.0182 -0.041,0.0288 -0.0683,0.0197 -0.019,-0.006 -0.0349,-0.002 -0.0478,0.0144 -0.0174,0.0243 -0.0448,0.0326 -0.0705,0.0425 -0.0554,0.0212 -0.11077,0.0425 -0.16616,0.063 -0.0364,0.0129 -0.0736,0.0197 -0.11229,0.0159 -0.0174,-0.002 -0.0334,-7.6e-4 -0.0478,0.0121 -0.008,0.006 -0.0182,0.007 -0.0281,0.01 -0.0296,0.01 -0.0592,0.019 -0.0888,0.0281 -0.0121,0.004 -0.0258,0.005 -0.0372,0.0106 -0.0561,0.0228 -0.1176,0.0281 -0.17071,0.0577 -0.0121,0.007 -0.0273,0.008 -0.041,0.008 -0.022,7.6e-4 -0.0425,0.005 -0.0622,0.0167 -0.0159,0.01 -0.0364,0.0121 -0.0539,0.019 -0.0379,0.0129 -0.0743,0.0281 -0.11456,0.0341 -0.0372,0.005 -0.0721,0.0235 -0.10849,0.0364 -0.0402,0.0144 -0.0804,0.0303 -0.1214,0.0433 -0.11228,0.0341 -0.22533,0.0675 -0.33837,0.1009 -0.0167,0.005 -0.0349,0.008 -0.0531,0.008 -2.58792,0 -5.17659,0 -7.76451,0 -0.0174,0 -0.0364,-0.004 -0.0523,-0.0106 -0.12973,-0.0516 -0.25947,-0.1047 -0.38845,-0.15781 -0.0212,-0.009 -0.041,-0.0205 -0.0607,-0.0326 -0.0379,-0.025 -0.0789,-0.0425 -0.12139,-0.0584 -0.0303,-0.0114 -0.0577,-0.0296 -0.0857,-0.044 -0.0372,-0.0174 -0.0744,-0.0357 -0.11153,-0.0523 -0.0296,-0.0136 -0.0599,-0.0235 -0.0888,-0.0372 -0.0797,-0.0372 -0.15856,-0.0774 -0.23974,-0.11229 -0.0895,-0.0379 -0.17223,-0.091 -0.26631,-0.11912 -0.019,-0.005 -0.0349,-0.0197 -0.0531,-0.0281 -0.025,-0.0129 -0.0508,-0.0228 -0.0759,-0.0357 -0.0205,-0.01 -0.0394,-0.025 -0.0607,-0.0334 -0.0607,-0.0235 -0.11381,-0.0614 -0.16995,-0.0941 -0.0751,-0.044 -0.14719,-0.0941 -0.22002,-0.14187 -0.002,-0.002 -0.005,-0.005 -0.008,-0.005 -0.0592,-0.019 -0.0819,-0.0728 -0.11532,-0.11759 -0.0372,-0.0486 -0.0759,-0.0964 -0.11229,-0.14567 -0.0235,-0.0326 -0.0448,-0.0668 -0.0675,-0.0994 -0.008,-0.0121 -0.004,-0.022 0.004,-0.0326 0.0121,-0.0197 0.006,-0.0334 -0.0152,-0.0326 -0.0577,0.002 -0.0903,-0.0334 -0.11912,-0.0744 -0.0106,-0.0137 -0.0182,-0.0296 -0.0387,-0.0303 v -0.21319 c 0.002,-0.002 0.002,-0.003 0.004,-0.004 0.0326,-0.0296 0.063,-0.0614 0.0873,-0.0979 0.009,-0.0137 0.009,-0.0349 0.009,-0.0524 0,-0.0486 -0.002,-0.0963 -0.003,-0.14491 0,-0.0114 0.002,-0.0235 0.003,-0.0357 0.004,-0.0303 -0.0106,-0.0546 -0.044,-0.0463 -0.008,0.002 -0.019,-0.002 -0.0281,-0.005 -0.009,-0.003 -0.0182,-0.008 -0.0273,-0.0129 -0.003,-0.0129 -0.004,-0.0243 0.0121,-0.0319 0.008,-0.003 0.0121,-0.0129 0.0159,-0.0213 0.0235,-0.0531 0.047,-0.10622 0.069,-0.16008 0.0144,-0.0349 0.019,-0.0713 0.009,-0.10926 -0.005,-0.022 -0.005,-0.0455 -0.007,-0.0683 -7.6e-4,-0.0152 0,-0.0303 -0.002,-0.0455 -0.003,-0.0235 0.002,-0.0433 0.0174,-0.0615 0.0159,-0.019 0.0167,-0.0334 0.002,-0.0546 -0.0106,-0.0144 -0.0106,-0.0288 -0.008,-0.0455 0.002,-0.0175 7.6e-4,-0.0357 0.002,-0.0531 0,-0.008 0,-0.0144 7.6e-4,-0.0212 0.005,-0.0326 0.005,-0.0357 0.0379,-0.0303 0.0478,0.008 0.0736,-0.025 0.1047,-0.0486 0.007,-0.005 0.008,-0.0182 0.0106,-0.0273 0.0569,-0.19802 0.11305,-0.3968 0.16995,-0.59482 0.008,-0.0266 0.0167,-0.0539 0.0228,-0.0812 0.005,-0.019 0.0137,-0.0349 0.0303,-0.047 0.0258,-0.0197 0.0319,-0.0448 0.0281,-0.0766 -0.008,-0.0599 -0.006,-0.12063 0.005,-0.18057 0.003,-0.019 0.0144,-0.0372 0.022,-0.0554 0.0303,-0.0691 0.0675,-0.13353 0.12594,-0.18209 0.002,-0.002 0.005,-0.004 0.007,-0.006 0.0303,-0.0205 0.0387,-0.0486 0.0387,-0.0857 -0.002,-0.0842 0.002,-0.16843 0.005,-0.25265 0.002,-0.0463 0.007,-0.0926 0.0114,-0.13808 0.003,-0.0349 0.0311,-0.0675 0.0637,-0.0759 0.0683,-0.0182 0.13581,-0.0357 0.20409,-0.0531 0.0577,-0.0152 0.11608,-0.0303 0.1745,-0.0455 0.0121,-0.003 0.0235,-0.003 0.0334,0.006 0.0152,0.0144 0.0311,0.0288 0.047,0.0425 0.0235,0.0197 0.047,0.041 0.0728,0.0584 0.0212,0.0137 0.0296,0.0303 0.0281,0.0546 -7.6e-4,0.0197 -0.005,0.044 0.005,0.0584 0.009,0.0152 0.0334,0.0212 0.0508,0.0303 0.0531,0.0266 0.10621,0.0531 0.15932,0.0797 0.0144,0.007 0.025,0.0144 0.0273,0.0319 0.003,0.0273 0.0167,0.0501 0.0357,0.0683 0.0197,0.019 0.0212,0.0394 0.0136,0.0652 -0.0182,0.0622 -0.0334,0.12594 -0.0493,0.18967 -0.002,0.009 -0.002,0.0197 -0.003,0.0372 0.0114,-0.008 0.0174,-0.0114 0.022,-0.0159 0.0303,-0.0319 0.0607,-0.0637 0.0918,-0.0956 0.0106,-0.01 0.0144,-0.0205 0.0136,-0.0349 0,-0.0341 7.6e-4,-0.0683 0.002,-0.10243 7.6e-4,-0.0174 0.005,-0.0356 0.008,-0.0531 7.5e-4,-0.0114 0.002,-0.0243 -0.002,-0.0349 -0.007,-0.0213 -0.01,-0.0432 -0.01,-0.0652 7.6e-4,-0.0159 0.004,-0.0288 0.0129,-0.0425 0.007,-0.01 0.009,-0.0235 0.01,-0.0364 0.004,-0.0956 0.007,-0.19119 0.01,-0.28603 7.6e-4,-0.0121 0.002,-0.0243 0.002,-0.0387 h 0.21698 c 0,0.0121 -7.5e-4,0.025 0,0.0372 7.6e-4,0.0114 0.002,0.025 0.0159,0.0266 0.008,0 0.0167,-0.008 0.025,-0.0129 0.002,-7.6e-4 0.002,-0.003 0.004,-0.005 0.0174,-0.0266 0.0364,-0.0524 0.0523,-0.0797 0.0357,-0.0599 0.0683,-0.12063 0.1047,-0.17981 0.0296,-0.0486 0.0645,-0.0948 0.0948,-0.14264 0.0205,-0.0311 0.0387,-0.0637 0.0562,-0.0964 0.0152,-0.0273 0.0273,-0.0562 0.0432,-0.0827 0.0228,-0.0364 0.0486,-0.0713 0.0721,-0.10774 0.0265,-0.0394 0.0546,-0.0774 0.0759,-0.11911 0.0114,-0.0205 0.0129,-0.0463 0.0137,-0.0698 0.002,-0.0842 0.003,-0.16919 0.004,-0.25341 0,-0.0296 -0.002,-0.0599 -0.002,-0.0895 -7.5e-4,-0.0736 -0.002,-0.14719 -0.002,-0.22002 0,-0.022 0.008,-0.044 0.008,-0.066 -7.5e-4,-0.0433 -0.003,-0.0857 -0.007,-0.12898 -7.6e-4,-0.0152 0.004,-0.0235 0.0167,-0.0311 0.0303,-0.0174 0.0592,-0.01 0.0865,0.002 0.007,0.003 0.0121,0.0137 0.0129,0.022 0.003,0.0243 0.0129,0.0455 0.0273,0.066 0.0212,0.0296 0.0273,0.0637 0.0258,0.0994 -0.002,0.0425 -0.002,0.0842 -0.003,0.12594 -7.6e-4,0.0372 -7.6e-4,0.0743 -7.6e-4,0.11153 0,0.009 -7.6e-4,0.0182 -7.6e-4,0.0273 0.002,0.0516 0.003,0.10395 0.003,0.1563 7.6e-4,0.0167 -0.002,0.0334 -0.005,0.0508 -0.004,0.025 0,0.0341 0.025,0.0394 0.022,0.005 0.0319,0.0144 0.0334,0.0379 7.6e-4,0.019 0.009,0.0266 0.0258,0.0258 0.0296,0 0.0584,-7.6e-4 0.0873,-0.002 0.025,-7.5e-4 0.0319,-0.008 0.0326,-0.0334 7.6e-4,-0.0455 0.007,-0.0903 -0.004,-0.1358 -7.6e-4,-0.005 0,-0.009 7.6e-4,-0.0175 m 0.67752,4.85338 c -7.6e-4,0.0167 -0.003,0.0326 -0.002,0.0478 0.005,0.0721 -0.003,0.14187 -0.0311,0.2094 -0.008,0.0182 -0.0114,0.0387 -0.0197,0.0569 -0.0197,0.0417 -0.0372,0.085 -0.0622,0.12367 -0.0288,0.0432 -0.0645,0.0819 -0.0979,0.12215 -0.008,0.01 -0.0129,0.019 -0.01,0.0326 0.006,0.0243 0.0121,0.0486 0.0152,0.0736 0.004,0.0296 0.0167,0.0577 0.0106,0.0888 -0.006,0.0288 0,0.0379 0.0288,0.041 0.0615,0.005 0.12367,0.009 0.18589,0.0106 0.0372,7.6e-4 0.0569,-0.0197 0.0554,-0.0577 -0.002,-0.047 -0.002,-0.0933 0.007,-0.1396 0.005,-0.0303 0.0136,-0.0554 0.0326,-0.0781 0.0296,-0.0349 0.069,-0.0288 0.0835,0.0137 0.0235,0.0675 0.0288,0.13885 0.0281,0.21016 0,0.005 -0.002,0.01 -0.002,0.0152 0,0.0235 0.007,0.0326 0.0296,0.0379 0.008,0.002 0.0159,0.002 0.0243,0.003 0.0486,0.003 0.0971,0.006 0.14567,0.009 0.022,0.002 0.0334,-0.003 0.041,-0.0182 0.0114,-0.0228 0.008,-0.0493 -0.01,-0.0668 -0.008,-0.008 -0.0174,-0.0144 -0.0258,-0.0213 -0.0622,-0.047 -0.11987,-0.0979 -0.16843,-0.15932 -0.0478,-0.0599 -0.0865,-0.12519 -0.11456,-0.19651 -0.0349,-0.088 -0.0562,-0.17829 -0.0645,-0.27161 -0.003,-0.0319 -0.005,-0.0637 -0.007,-0.0964 -0.0174,0.002 -0.0326,0.003 -0.047,0.005 -0.008,7.6e-4 -0.0159,0.003 -0.0265,0.005 m 7.84037,0.39452 c 0,-0.002 -7.6e-4,-0.005 -7.6e-4,-0.006 -0.0288,-0.008 -0.0584,-0.0144 -0.0873,-0.0228 -0.0152,-0.004 -0.0319,-0.007 -0.0455,-0.0144 -0.0812,-0.0417 -0.15326,-0.0956 -0.20637,-0.17147 -0.0266,-0.0379 -0.0501,-0.0774 -0.0751,-0.11608 -0.0114,-0.0174 -0.0182,-0.0379 -0.0432,-0.0432 -0.007,-7.5e-4 -0.0121,-0.01 -0.0174,-0.0159 -0.007,-0.007 -0.0129,-0.0144 -0.0213,-0.0235 -0.066,0.0334 -0.13732,0.0144 -0.20484,0.022 -0.002,0.004 -0.003,0.005 -0.003,0.008 7.6e-4,0.007 7.6e-4,0.0137 0.002,0.0212 0.007,0.0562 0.003,0.11229 -0.0114,0.16692 -0.0106,0.0387 -0.0235,0.0766 -0.0379,0.1138 -0.007,0.019 -0.007,0.0341 0.005,0.0508 0.0281,0.0372 0.044,0.0804 0.0577,0.12518 0.009,0.0273 0.0182,0.0554 0.0288,0.0819 0.0121,0.0319 0.0243,0.0372 0.0561,0.0258 0.0577,-0.0197 0.11532,-0.0395 0.17298,-0.0599 0.0326,-0.0114 0.0387,-0.0243 0.0303,-0.0569 -0.0152,-0.0569 -0.0303,-0.11457 -0.0432,-0.17223 -0.008,-0.0387 0.008,-0.063 0.0501,-0.0751 0.0258,-0.008 0.0584,0.0121 0.069,0.0417 0.022,0.0584 0.0425,0.11684 0.0637,0.17526 0.005,0.0144 0.0106,0.0281 0.0288,0.0349 0.0728,-0.041 0.16009,-0.0463 0.23368,-0.0895 m -2.48853,-0.38693 c 0.008,0.0531 7.6e-4,0.10166 -0.008,0.15022 -0.008,0.0486 -0.0243,0.0948 -0.0394,0.14187 -0.0303,0.0918 -0.0766,0.17375 -0.13429,0.25037 -0.01,0.0129 -0.0152,0.0258 -0.0121,0.0417 0.004,0.0228 0.006,0.0463 0.0129,0.0683 0.0114,0.0364 0.0205,0.0721 0.008,0.11152 -0.007,0.019 0.004,0.0319 0.025,0.0372 0.006,0.002 0.0121,0.002 0.0182,0.002 0.0357,-7.6e-4 0.0713,-0.002 0.10773,-0.002 0.01,-7.6e-4 0.0197,0 0.0296,0.002 0.0394,0.008 0.0493,7.6e-4 0.0546,-0.0387 7.6e-4,-0.007 0.002,-0.0136 7.6e-4,-0.0205 -0.008,-0.0554 7.6e-4,-0.11077 0.008,-0.1654 0.002,-0.0144 0.006,-0.0303 0.0137,-0.0417 0.0159,-0.0243 0.0387,-0.0402 0.0706,-0.0372 0.0311,0.003 0.0364,0.0266 0.0448,0.0493 0.0266,0.066 0.0303,0.13429 0.0235,0.20409 0,0.005 -7.6e-4,0.01 -7.6e-4,0.0152 0.002,0.022 0.0114,0.0326 0.0334,0.0334 0.0205,0.002 0.0402,0.002 0.0607,0.002 0.0516,7.5e-4 0.10394,0 0.15705,0 0.006,-0.0144 0.0121,-0.0288 0.019,-0.0463 -0.019,-0.0144 -0.0357,-0.0288 -0.0531,-0.0417 -0.0736,-0.0524 -0.14415,-0.1085 -0.1965,-0.18513 -0.0288,-0.0432 -0.0622,-0.085 -0.085,-0.13125 -0.0554,-0.11684 -0.0933,-0.23975 -0.10242,-0.36949 -7.6e-4,-0.01 -0.002,-0.0197 -0.003,-0.0303 z m -1.57277,0.79587 c 7.5e-4,-0.0114 0.002,-0.0197 0.003,-0.0273 0.003,-0.0637 0.004,-0.12671 0.0174,-0.18892 0.006,-0.0265 0,-0.0463 -0.0182,-0.0652 -0.0121,-0.0129 -0.022,-0.0281 -0.0334,-0.0425 -0.0349,-0.0478 -0.0599,-0.10091 -0.0797,-0.15478 -0.0205,-0.0577 -0.0326,-0.11835 -0.0379,-0.17981 -0.005,-0.0516 -0.008,-0.10394 -0.0114,-0.15629 h -0.047 c 0.003,0.0303 0.006,0.0584 0.008,0.0857 0.005,0.0592 -7.6e-4,0.11608 -0.0228,0.17147 -0.0395,0.0994 -0.0797,0.19726 -0.14871,0.28072 -0.0766,0.0933 -0.16236,0.17525 -0.26933,0.23292 -0.0174,0.009 -0.0349,0.019 -0.0516,0.0288 0.004,0.0182 0.0159,0.0212 0.0296,0.022 0.044,0.002 0.0888,0.005 0.13278,0.004 0.0357,0 0.0721,-0.005 0.10849,-0.008 0.008,-0.0372 0.0159,-0.0713 0.0144,-0.10621 -0.002,-0.0357 0.005,-0.0698 0.0144,-0.10394 0.0114,-0.0387 0.0372,-0.0607 0.0743,-0.0713 0.0182,-0.005 0.0334,0.005 0.0372,0.0235 0.003,0.0152 0.005,0.0311 0.006,0.047 0.005,0.0592 0.008,0.11835 0.0114,0.17753 0.002,0.0273 0.007,0.0319 0.0334,0.0326 0.0592,0.003 0.11836,0.005 0.17754,0.006 0.0174,7.5e-4 0.0349,-0.005 0.0523,-0.008 m -1.88537,-0.0857 h -0.002 c 0,0.0144 0,0.0281 0,0.0425 7.6e-4,0.0205 0.01,0.0326 0.0296,0.0349 0.0258,0.004 0.0524,0.007 0.0781,0.009 0.025,0.002 0.0501,0.002 0.0751,0.004 0.0319,0.003 0.0402,-0.004 0.0417,-0.0349 7.6e-4,-0.0326 0.002,-0.0645 -7.6e-4,-0.0971 -7.6e-4,-0.0114 -0.006,-0.0258 -0.0136,-0.0349 -0.0463,-0.0554 -0.0956,-0.1085 -0.13278,-0.17071 -0.0341,-0.0584 -0.0736,-0.11304 -0.0834,-0.18209 -0.002,-0.0174 -0.0114,-0.0341 -0.0167,-0.0508 -0.005,-0.0144 -0.0114,-0.0288 -0.0129,-0.0432 -0.004,-0.0493 -0.006,-0.0979 -0.009,-0.14719 -7.6e-4,-0.008 -7.6e-4,-0.0167 -0.004,-0.0235 -0.003,-0.006 -0.0114,-0.0144 -0.0167,-0.0144 -0.007,0.002 -0.0144,0.008 -0.0197,0.0152 -0.003,0.004 -0.002,0.0114 -0.002,0.0175 -0.002,0.0341 -7.6e-4,0.0683 -0.005,0.10242 -0.003,0.0273 -0.008,0.0554 -0.0167,0.0819 -0.0175,0.0501 -0.0372,0.0994 -0.0561,0.14946 -0.0205,0.0524 -0.0455,0.10243 -0.0835,0.14567 -0.025,0.0281 -0.0486,0.0592 -0.0728,0.088 -0.0114,0.0121 -0.0243,0.0228 -0.0379,0.0334 -0.0379,0.0288 -0.0698,0.0607 -0.0645,0.11456 0.002,0.0197 0.008,0.0281 0.0266,0.0296 0.0235,0.002 0.0478,0.002 0.0721,0.004 0.0342,0.002 0.0675,0.002 0.10167,0.005 0.0364,0.004 0.0599,-0.0121 0.0592,-0.0493 0,-0.047 0.002,-0.0941 0.004,-0.14112 0.003,-0.0493 0.0303,-0.0766 0.0668,-0.10015 0.0182,-0.0114 0.0319,-0.008 0.044,0.0114 0.0212,0.0341 0.0394,0.0706 0.044,0.11077 0.004,0.0303 0.005,0.0607 0.007,0.0903 m -3.61974,-0.71849 h -0.61379 c -0.002,0.009 -0.007,0.0167 -0.005,0.0243 0.006,0.0341 -0.0159,0.0569 -0.0326,0.0812 -0.0152,0.022 -0.0349,0.0243 -0.0577,0.0106 -0.008,-0.005 -0.0152,-0.01 -0.0235,-0.0129 -0.0152,-0.006 -0.0288,-0.002 -0.0341,0.009 -0.006,0.0106 -7.6e-4,0.0243 0.0121,0.0334 0.003,0.002 0.005,0.003 0.008,0.005 0.0402,0.0175 0.0804,0.0357 0.12139,0.0531 0.0273,0.0114 0.0546,0.0228 0.0819,0.0349 0.0106,0.005 0.019,0.002 0.0235,-0.007 0.0121,-0.0182 0.0273,-0.0372 0.0311,-0.0577 0.007,-0.0341 0.0228,-0.0637 0.0372,-0.0948 0.0114,-0.0243 0.0296,-0.0395 0.0523,-0.0516 0.0273,-0.0144 0.0516,-0.0106 0.0766,0.0106 0.0228,0.0197 0.0303,0.0448 0.022,0.0705 -0.0205,0.0599 -0.041,0.11912 -0.0607,0.17906 -0.008,0.0212 -0.005,0.0273 0.0159,0.0379 0.0228,0.0114 0.0448,0.0235 0.066,0.0357 0.019,0.0106 0.0364,0.025 0.0599,0.0258 0.008,0 0.0144,0.008 0.0205,0.0114 0.009,0.005 0.0167,0.0121 0.0258,0.0167 0.0159,0.007 0.0334,0.002 0.0402,-0.0144 0.0137,-0.0319 0.025,-0.0637 0.0379,-0.0948 0.0182,-0.0463 0.041,-0.0895 0.0911,-0.11002 0.022,-0.009 0.0258,-0.0167 0.0228,-0.0394 -0.006,-0.0508 -0.0121,-0.10166 -0.019,-0.15629 m 0.45522,-3.93233 c 0.0137,0.005 0.025,0.01 0.0364,0.0137 0.0357,0.0129 0.0668,0.0311 0.0903,0.0622 0.0144,0.0182 0.0334,0.0341 0.0486,0.0501 0.022,-0.007 0.0182,-0.0213 0.0174,-0.0334 -0.003,-0.10926 -0.007,-0.21775 -0.0106,-0.32624 -7.6e-4,-0.01 0,-0.0205 0,-0.0334 0.0121,0.005 0.0197,0.008 0.0265,0.0106 0.0706,0.0326 0.14188,0.063 0.21016,0.0979 0.0387,0.0205 0.0774,0.0159 0.11532,0.0159 0.009,-0.0167 0,-0.0265 -0.007,-0.0379 -0.0258,-0.0432 -0.0524,-0.0857 -0.0759,-0.12973 -0.0372,-0.0683 -0.0713,-0.13733 -0.10697,-0.20561 -0.004,-0.007 -0.008,-0.0129 -0.0152,-0.0228 -0.11077,0.18133 -0.21926,0.35962 -0.32927,0.53867 m 2.74648,-0.0865 h -0.004 c 0,0.0182 7.6e-4,0.0364 0,0.0539 -0.002,0.0258 0.006,0.047 0.0228,0.0668 0.019,0.022 0.0288,0.0228 0.041,-0.003 0.0121,-0.0243 0.0273,-0.0334 0.0531,-0.0235 0.002,7.6e-4 0.006,7.6e-4 0.009,7.6e-4 0.022,0 0.0303,-0.007 0.0326,-0.0296 0.002,-0.0137 0.002,-0.0281 0.002,-0.0417 -0.002,-0.0212 0.004,-0.0394 0.0167,-0.0561 0.0129,-0.0167 0.0243,-0.0341 0.0364,-0.0516 0.01,-0.0152 0.008,-0.0258 -0.007,-0.0364 -0.0144,-0.0106 -0.0303,-0.019 -0.0455,-0.0281 -0.008,-0.005 -0.0174,-0.007 -0.0235,-0.0129 -0.0341,-0.0311 -0.0797,-0.0478 -0.10925,-0.085 -0.008,-0.0114 -0.0235,-0.007 -0.0281,0.007 -0.002,0.008 -0.002,0.0182 -7.6e-4,0.0266 7.6e-4,0.0114 0.004,0.022 0.005,0.0326 0,0.0607 0,0.12064 0,0.18057 m -2.77835,0.20333 c -0.0159,-0.002 -0.0288,0.005 -0.0379,0.0174 -0.005,0.007 -0.01,0.0129 -0.0159,0.019 -0.0303,0.0311 -0.0296,0.0675 -0.0121,0.10318 0.0159,0.0357 0.0455,0.0607 0.0819,0.0759 0.0137,0.006 0.0288,0.004 0.0395,-0.008 0.0243,-0.0273 0.0493,-0.0554 0.0721,-0.0842 0.006,-0.008 0.008,-0.022 0.005,-0.0311 -0.0121,-0.0349 -0.0797,-0.0979 -0.13202,-0.0926 m 2.61903,-0.20712 c 0.007,0 0.0106,7.6e-4 0.0152,7.6e-4 0.0379,0 0.0448,-0.0114 0.0433,-0.0493 -0.003,-0.0508 -7.6e-4,-0.10242 0,-0.15325 7.5e-4,-0.0129 0.007,-0.0281 -0.007,-0.0357 -0.0152,-0.008 -0.025,0.006 -0.0357,0.0152 -7.6e-4,0 -0.002,7.6e-4 -0.002,0.002 -0.0258,0.0258 -0.0493,0.0523 -0.0834,0.0683 -0.0205,0.0106 -0.0212,0.0213 -0.008,0.0425 0.0273,0.0432 0.0273,0.0888 0.009,0.13505 -0.002,0.007 -0.006,0.0129 -0.008,0.0197 -0.003,0.0106 -7.6e-4,0.0205 0.0121,0.0228 0.0114,0.002 0.0197,-0.004 0.022,-0.0144 0.002,-0.009 7.6e-4,-0.0182 7.6e-4,-0.0273 0.002,-0.019 0.008,-0.0243 0.0265,-0.0258 0.006,-7.6e-4 0.0121,0 0.0152,0 m 5.67657,4.52639 c -0.005,0.006 -0.0106,0.0121 -0.0159,0.019 -0.0228,0.0288 -0.0432,0.0607 -0.0698,0.0865 -0.0364,0.0364 -0.0759,0.0721 -0.12215,0.0979 -0.003,0.002 -0.007,0.004 -0.01,0.007 -0.0114,0.01 -0.009,0.0213 0.005,0.0273 0.0137,0.005 0.0258,0.002 0.0379,-0.002 0.0599,-0.0212 0.11987,-0.0425 0.17905,-0.063 0.004,-0.002 0.008,-0.002 0.0114,-0.005 0.0212,-0.009 0.0258,-0.0205 0.0197,-0.0425 -0.0114,-0.041 -0.0228,-0.0812 -0.0349,-0.12518 m -8.49969,0.0842 c -0.008,-0.0144 -0.0121,-0.0243 -0.019,-0.0326 -0.01,-0.0121 -0.022,-0.0228 -0.0319,-0.0357 -0.0364,-0.0433 -0.069,-0.0888 -0.0827,-0.14415 -0.002,-0.004 -0.002,-0.008 -0.005,-0.0114 -0.004,-0.005 -0.009,-0.0129 -0.0137,-0.0129 -0.005,0 -0.0121,0.007 -0.0152,0.0121 -0.005,0.008 -0.006,0.019 -0.009,0.0281 -0.008,0.0243 -0.0152,0.0501 -0.0258,0.0728 -0.0129,0.0273 -0.0114,0.0326 0.0182,0.0425 0.0379,0.0121 0.0759,0.0235 0.1047,0.0546 0.0182,0.019 0.0433,0.0281 0.0789,0.0265 m 10.08916,-4.59846 c 0.005,-0.0334 -0.0152,-0.0554 -0.0326,-0.0782 -0.0341,-0.0455 -0.11001,-0.0387 -0.13505,0.0129 -0.009,0.019 -0.006,0.0296 0.0137,0.0387 0.0144,0.007 0.0303,0.0121 0.0455,0.0159 0.0273,0.006 0.0516,0.0167 0.0683,0.0394 0.005,0.006 0.01,0.0106 0.0159,0.0144 0.0106,0.008 0.0197,0.005 0.0228,-0.008 0.002,-0.0114 0.002,-0.0235 0.002,-0.0349 m -3.55905,4.70316 c -0.0637,0.0524 -0.13201,0.085 -0.20409,0.11836 0.008,0.003 0.01,0.005 0.0121,0.005 0.0417,0.003 0.0842,0.006 0.12594,0.01 0.0303,0.002 0.0653,-0.0243 0.0675,-0.0554 0.002,-0.0235 -7.6e-4,-0.047 -0.002,-0.0782 m -1.09252,-0.0152 c 0,0.0273 0,0.047 7.5e-4,0.0675 0,0.0205 7.6e-4,0.041 0.002,0.0622 0.0554,0.003 0.10698,0.005 0.16009,0.008 0.002,-0.0106 0.005,-0.019 0.008,-0.0296 -0.0637,-0.022 -0.11532,-0.0615 -0.16994,-0.10773 m -6.14242,-3.90046 c 0.022,0.0129 0.0342,0.0129 0.0486,-0.003 0.022,-0.0243 0.004,-0.0455 -0.01,-0.069 0.0349,-0.0144 0.0364,-0.0417 0.0303,-0.0751 -0.0213,-0.008 -0.044,-0.0174 -0.0691,-0.0273 z m -0.70862,0.44004 c 0.0106,-0.005 0.0159,-0.005 0.019,-0.008 0.0296,-0.0349 0.0599,-0.0698 0.0888,-0.10545 0.0129,-0.0159 0.007,-0.0334 -0.01,-0.0432 -0.0159,-0.01 -0.025,-0.008 -0.0364,0.0121 -0.019,0.0349 -0.0372,0.0713 -0.0546,0.10698 -0.005,0.01 -0.004,0.022 -0.007,0.0379 m 2.45287,3.57422 c 0.005,0.004 0.007,0.008 0.01,0.009 0.0296,0.01 0.0592,0.004 0.0888,-7.6e-4 0.007,-0.002 0.0152,-0.0114 0.0174,-0.019 0.005,-0.019 0.008,-0.0387 7.6e-4,-0.0599 -0.006,7.6e-4 -0.0137,0 -0.0174,0.003 -0.0319,0.0235 -0.0698,0.0379 -0.0994,0.0675 m -2.3034,-0.81408 c -0.002,0.002 -0.004,0.005 -0.005,0.008 0.005,0.006 0.01,0.0144 0.0167,0.0182 0.0326,0.0167 0.0652,0.0334 0.0986,0.0493 0.0129,0.006 0.0243,-7.6e-4 0.0303,-0.0121 0.005,-0.009 0.0106,-0.0205 0.009,-0.0296 -0.003,-0.0121 -0.0167,-0.0114 -0.0281,-0.0114 -0.0341,0 -0.0675,-0.006 -0.0994,-0.0182 -0.007,-0.003 -0.0144,-0.003 -0.022,-0.004 m 1.33834,-3.43007 c 0.0258,-0.005 0.0258,-0.005 0.0425,-0.0228 0.0341,-0.0341 0.0326,-0.0432 -0.004,-0.0766 -0.0174,-0.0159 -0.0357,-0.01 -0.0379,0.0137 -0.003,0.0273 -7.6e-4,0.0554 -7.6e-4,0.0857 m 9.3001,3.67741 c 0.0182,-7.6e-4 0.0341,-0.0114 0.0395,-0.0273 0.004,-0.0114 0.002,-0.0212 -0.008,-0.0296 -0.0129,-0.0114 -0.0303,-0.0129 -0.047,-0.002 -0.0137,0.008 -0.0281,0.0175 -0.0258,0.0372 0.002,0.0129 0.0205,0.022 0.0417,0.022 m 0.21016,-0.002 c 0.008,0 0.019,-0.005 0.0235,-0.0175 0.005,-0.0114 0.002,-0.0228 -0.008,-0.0303 -0.0106,-0.008 -0.022,-0.0167 -0.0341,-0.022 -0.0167,-0.008 -0.0296,0.002 -0.0319,0.0205 -0.002,0.022 0.0228,0.0493 0.0508,0.0493 m -0.35734,-0.1434 c -7.6e-4,-0.0159 -0.009,-0.0243 -0.0243,-0.0235 -0.0258,7.6e-4 -0.0433,0.0144 -0.0425,0.0319 7.6e-4,0.0167 0.0235,0.0432 0.0372,0.0425 0.0129,-7.6e-4 0.0303,-0.0303 0.0296,-0.0508 m -3.1357,-6.1591 c -0.01,0.0205 -0.003,0.0326 0.006,0.0432 0.0167,0.0197 0.0341,0.0394 0.0516,0.0584 0.0114,0.0121 0.0258,0.0159 0.0311,0.008 0.009,-0.0129 7.6e-4,-0.0228 -0.008,-0.0311 -0.019,-0.0197 -0.0372,-0.0395 -0.0561,-0.0584 -0.007,-0.007 -0.0152,-0.0121 -0.025,-0.0205 m -2.30492,6.83738 c -0.0137,0.0243 -0.003,0.0394 0.006,0.0554 0.0303,0.008 0.0592,0.005 0.091,-0.009 -0.0349,-0.0167 -0.0652,-0.0311 -0.0971,-0.0463 m 5.97702,-0.698 c -0.0205,0 -0.0364,0.0136 -0.0357,0.0311 7.6e-4,0.0152 0.0144,0.0273 0.0303,0.0273 0.0182,7.6e-4 0.0349,-0.0152 0.0349,-0.0334 7.6e-4,-0.0152 -0.0114,-0.0258 -0.0296,-0.025 m -10.41084,-2.90505 c -0.002,-0.0106 -0.009,-0.0182 -0.0167,-0.0121 -0.0152,0.0129 -0.0296,0.0288 -0.0425,0.0448 -0.002,0.003 0.002,0.0152 0.007,0.0197 0.002,0.002 0.0144,7.6e-4 0.0182,-0.003 0.0106,-0.0114 0.0205,-0.0235 0.0303,-0.0364 0.002,-0.004 0.003,-0.009 0.004,-0.0129 m 0.66386,-0.5273 c 0,-0.01 -0.0114,-0.019 -0.0235,-0.0182 -0.0137,7.6e-4 -0.025,0.0121 -0.025,0.025 0,0.0121 0.008,0.0228 0.019,0.0228 0.0114,0 0.0296,-0.0182 0.0296,-0.0296 m 9.85168,3.30792 c 0.008,-0.0121 0.0114,-0.0152 0.0121,-0.019 0,-0.002 -0.006,-0.006 -0.008,-0.005 -0.003,7.6e-4 -0.007,0.005 -0.008,0.008 -7.6e-4,0.003 0.002,0.008 0.005,0.0159"
       style="stroke-width:0.758697" />
  </g>
</svg>
