<?xml version="1.0" encoding="UTF-8" standalone="no"?>
<!-- Created with Inkscape (http://www.inkscape.org/) -->

<svg
   width="14.565812mm"
   height="8.2497044mm"
   viewBox="0 0 14.565812 8.2497044"
   version="1.1"
   id="svg1"
   sodipodi:docname="inkporter-svg-76b543x1.svg"
   xmlns:inkscape="http://www.inkscape.org/namespaces/inkscape"
   xmlns:sodipodi="http://sodipodi.sourceforge.net/DTD/sodipodi-0.dtd"
   xmlns="http://www.w3.org/2000/svg"
   xmlns:svg="http://www.w3.org/2000/svg">
  <sodipodi:namedview
     id="namedview1"
     pagecolor="#ffffff"
     bordercolor="#000000"
     borderopacity="0.25"
     inkscape:showpageshadow="2"
     inkscape:pageopacity="0.0"
     inkscape:pagecheckerboard="0"
     inkscape:deskcolor="#d1d1d1"
     inkscape:document-units="mm"
     inkscape:zoom="1.7297285"
     inkscape:cx="408.15655"
     inkscape:cy="599.51606"
     inkscape:window-width="2560"
     inkscape:window-height="1368"
     inkscape:window-x="0"
     inkscape:window-y="0"
     inkscape:window-maximized="1"
     inkscape:current-layer="layer1" />
  <defs
     id="defs1" />
  <g
     inkscape:label="Layer 1"
     inkscape:groupmode="layer"
     id="layer1"
     transform="translate(-152.29275,-111.39048)">
    <path
       id="TNO-NM142"
       d="m 155.3302,113.47086 c 0.0339,-0.004 0.0501,-0.0251 0.061,-0.0519 0.004,-0.009 0.008,-0.0169 0.0113,-0.0261 0.013,-0.0399 0.0434,-0.0639 0.0773,-0.084 0.0342,-0.0208 0.0639,-0.006 0.0667,0.0342 0.003,0.0378 0.002,0.0755 0.002,0.1136 -7.1e-4,0.10513 -0.002,0.21061 -0.003,0.31573 0,0.0148 0.002,0.0293 0.003,0.0441 0.001,0.0205 -0.005,0.0307 -0.0254,0.0325 -0.0293,0.003 -0.0561,-0.001 -0.0762,-0.0272 -0.0275,-0.0353 -0.066,-0.0466 -0.10936,-0.0455 -0.036,7e-4 -0.0716,10e-4 -0.1076,0.002 -0.005,0 -0.0106,-0.002 -0.0155,-0.001 -0.0201,0.001 -0.0272,0.012 -0.018,0.0296 0.006,0.012 0.0152,0.0229 0.0219,0.0349 0.0349,0.06 0.0699,0.12029 0.10371,0.18097 0.0194,0.0346 0.0374,0.0706 0.0554,0.10619 0.0141,0.0279 0.0201,0.0328 0.0515,0.0307 0.0505,-0.004 0.10055,-0.007 0.1517,-0.003 0.0469,0.004 0.0639,-0.0176 0.0561,-0.0642 -0.008,-0.0476 -0.003,-0.0942 0.006,-0.14076 0.003,-0.0159 0.0109,-0.0275 0.0243,-0.0349 0.0127,-0.007 0.0265,-0.0131 0.0392,-0.0205 0.0208,-0.0123 0.043,-0.0233 0.0607,-0.0388 0.0212,-0.0187 0.0434,-0.0272 0.0691,-0.0159 0.048,0.0215 0.097,0.0409 0.13618,0.078 0.019,0.018 0.0268,0.0381 0.0159,0.0624 -0.0134,0.03 -0.0169,0.0596 -0.006,0.0917 0.003,0.008 -0.002,0.0201 -0.005,0.03 -0.013,0.0441 0.0113,0.0737 0.0572,0.0677 0.0155,-0.002 0.0307,-0.01 0.0459,-0.0102 0.0212,-7.1e-4 0.0427,3.5e-4 0.0632,0.005 0.0501,0.0113 0.0942,-0.0455 0.0744,-0.091 -0.0162,-0.0374 0.008,-0.0617 0.0194,-0.0907 0.002,-0.004 0.008,-0.007 0.0123,-0.009 0.0529,-0.0229 0.11783,0.002 0.14217,0.055 0.006,0.0123 0.006,0.024 -0.002,0.0353 -0.004,0.004 -0.007,0.008 -0.01,0.0127 -0.0229,0.0339 -0.009,0.0744 0.031,0.0843 0.0169,0.004 0.0356,0.002 0.0533,0.002 0.0275,-7.1e-4 0.055,-10e-4 0.0822,-0.004 0.0226,-0.002 0.0466,-0.002 0.0677,-0.01 0.078,-0.0258 0.15452,-0.0568 0.23283,-0.0808 0.0399,-0.0123 0.0825,-0.0152 0.12453,-0.0208 0.0173,-0.002 0.0332,0.004 0.0455,0.0176 0.0138,0.0152 0.0318,0.0187 0.0519,0.0187 0.0473,0 0.0917,-0.0127 0.13547,-0.0275 0.0279,-0.009 0.0508,-0.0106 0.0727,0.0116 0.007,0.007 0.0173,0.0123 0.0265,0.0169 0.0176,0.008 0.0272,0.005 0.0423,-0.008 0.0325,-0.0282 0.0653,-0.0564 0.0991,-0.0829 0.01,-0.007 0.0233,-0.0102 0.0353,-0.0127 0.0198,-0.004 0.0395,-0.007 0.0596,-0.009 0.0286,-0.002 0.0572,0.002 0.0755,0.0247 0.0303,0.0367 0.0709,0.0596 0.1076,0.0871 l 0.0861,0.0646 c 0.013,0.0102 0.0258,0.0226 0.0452,0.0138 0.007,-0.0134 0.001,-0.024 -0.005,-0.0353 -0.019,-0.0321 -0.019,-0.0346 0.006,-0.0596 0.0141,-0.0141 0.019,-0.0293 0.0127,-0.0487 -0.002,-0.007 -0.003,-0.0145 -0.003,-0.0215 -3.5e-4,-0.0293 0,-0.0586 -3.5e-4,-0.0878 -0.001,-0.0896 -0.003,-0.17886 -0.004,-0.26847 0,-0.0258 -0.008,-0.0469 -0.0268,-0.0649 -0.0751,-0.072 -0.13194,-0.15839 -0.19085,-0.24306 -0.008,-0.0123 -0.012,-0.0286 -0.0169,-0.043 -0.005,-0.0141 -0.007,-0.0289 -0.012,-0.0423 -0.0155,-0.0402 -0.0325,-0.0801 -0.048,-0.1203 -0.005,-0.0134 -0.008,-0.0282 -0.0113,-0.0427 -0.009,-0.0409 -0.018,-0.0822 -0.0258,-0.12347 -0.004,-0.0194 -0.006,-0.0395 -0.006,-0.0593 -7.1e-4,-0.0508 0,-0.10125 0,-0.15205 0,-0.0215 0,-0.0423 -0.0293,-0.048 -0.006,-10e-4 -0.0116,-0.0116 -0.0138,-0.0191 -0.0116,-0.0402 -0.0222,-0.0808 -0.0321,-0.12136 -0.003,-0.0127 -0.002,-0.0261 0.0106,-0.0342 0.0138,-0.009 0.0173,-0.0212 0.0116,-0.0356 -0.005,-0.0127 -7e-4,-0.024 0.001,-0.0363 0.006,-0.0374 0.0116,-0.0748 0.0138,-0.11254 0.002,-0.0409 -3.5e-4,-0.0818 -3.5e-4,-0.12276 -3.5e-4,-0.0737 0,-0.14747 3.5e-4,-0.2212 0,-0.006 -3.5e-4,-0.0127 3.5e-4,-0.0191 0.003,-0.0423 0.008,-0.0455 0.0512,-0.0374 0.009,0.002 0.0187,0.003 0.0282,0.003 0.0674,0 0.13476,-3.5e-4 0.20249,-3.5e-4 0.0441,0 0.0885,0 0.133,3.5e-4 0.0268,7.1e-4 0.0448,-0.0102 0.0579,-0.0349 0.036,-0.0688 0.06,-0.14076 0.0709,-0.21731 0.004,-0.0233 0.009,-0.0279 0.0332,-0.0275 0.11818,10e-4 0.23636,0.002 0.35454,0.002 0.036,3.5e-4 0.0716,-7.1e-4 0.10759,-7.1e-4 0.0385,0 0.0476,-0.007 0.0568,-0.0437 0.0169,-0.0674 0.0335,-0.13476 0.0504,-0.20214 0.008,-0.0328 0.0162,-0.037 0.049,-0.0286 0.008,0.002 0.0166,0.003 0.025,0.003 0.18768,3.5e-4 0.37571,3.5e-4 0.56374,0 0.0159,0 0.0314,-0.002 0.0473,-0.004 0.0162,-0.001 0.0282,0.004 0.0367,0.0187 0.0106,0.0183 0.0226,0.0356 0.0342,0.0533 0.01,0.0141 0.0215,0.0205 0.0399,0.0198 0.0504,-0.002 0.10124,0 0.15169,-7e-4 0.0201,-3.6e-4 0.0409,-3.6e-4 0.0593,-0.007 0.0437,-0.0145 0.0882,-0.006 0.13194,-0.008 0.0247,0.0208 0.0529,0.0127 0.0804,0.01 0.0155,-0.001 0.0261,0.008 0.0296,0.0236 0.007,0.0261 0.0247,0.0335 0.0497,0.0332 0.10266,-10e-4 0.20497,-10e-4 0.30763,-10e-4 0.0381,-3.6e-4 0.0441,0.01 0.0392,0.0483 -0.004,0.0289 -0.002,0.0586 3.6e-4,0.0875 0.002,0.0229 0.0159,0.0391 0.0374,0.0469 0.0176,0.006 0.0363,0.0102 0.0547,0.0145 0.006,0.001 0.0127,7e-4 0.019,0.001 0.0561,0.005 0.0709,0.0169 0.085,0.0716 0.003,0.0109 0.005,0.0226 0.009,0.0335 0.008,0.0247 0.025,0.0416 0.0519,0.0451 0.0205,0.003 0.0346,0.009 0.0377,0.0335 0.003,0.0219 0.0169,0.0289 0.042,0.0289 0.054,-7e-4 0.10795,-0.002 0.16157,-0.003 0.0106,-3.5e-4 0.0212,-7e-4 0.0318,-3.5e-4 0.0356,10e-4 0.043,0.0116 0.0413,0.0476 -0.003,0.0501 -0.004,0.10055 -0.005,0.15099 -3.5e-4,0.009 0.003,0.0173 0.006,0.03 0.009,-0.007 0.0148,-0.009 0.0183,-0.0138 0.0247,-0.03 0.0497,-0.0596 0.084,-0.0804 0.01,-0.006 0.0166,-0.0159 0.0247,-0.0243 0.0219,-0.0229 0.0385,-0.0233 0.0617,-0.001 0.0222,0.0212 0.0444,0.0423 0.0663,0.0635 0.0208,0.0198 0.0261,0.0191 0.0469,0 0.0162,-0.0152 0.0332,-0.0296 0.0515,-0.0416 0.0219,-0.0141 0.0325,-0.0123 0.0508,0.005 0.024,0.0236 0.0469,0.0483 0.0709,0.072 0.0148,0.0152 0.0307,0.0289 0.0455,0.0441 0.0776,0.0797 0.16122,0.15416 0.23319,0.24024 0.0219,0.0265 0.0349,0.0547 0.0339,0.0892 -3.6e-4,0.0127 -0.004,0.0229 -0.0159,0.0282 -0.0399,0.0162 -0.0663,0.0483 -0.0921,0.0801 -0.0318,0.0385 -0.0674,0.0727 -0.10619,0.10372 -0.005,0.004 -0.01,0.008 -0.0141,0.0127 -0.0116,0.013 -0.0134,0.024 -3.5e-4,0.0356 0.0169,0.0155 0.0197,0.0335 0.018,0.0543 -10e-4,0.0116 -10e-4,0.0233 0,0.0346 0.004,0.0282 -0.004,0.0519 -0.0243,0.072 -0.0148,0.0148 -0.0293,0.0303 -0.0437,0.0459 -0.01,0.0106 -0.0215,0.0205 -0.0296,0.0325 -0.0328,0.0476 -0.0762,0.0843 -0.11818,0.12277 -0.0243,0.0219 -0.0459,0.0466 -0.067,0.0713 -0.0533,0.0628 -0.11289,0.11959 -0.17216,0.17674 -0.0409,0.0392 -0.0783,0.0825 -0.11782,0.12347 -0.0166,0.0176 -0.0335,0.0353 -0.0519,0.0508 -0.0162,0.0134 -0.0367,0.0141 -0.0572,0.0138 -0.10654,-0.001 -0.21343,-0.005 -0.31962,-0.002 -0.0374,10e-4 -0.0741,10e-4 -0.11007,-0.004 -0.0307,-0.005 -0.043,0.01 -0.0427,0.0384 7e-4,0.0222 -7.1e-4,0.0444 0.002,0.0663 0.004,0.0289 0.0148,0.037 0.043,0.03 0.0356,-0.009 0.0713,-0.007 0.10725,-0.007 0.2166,0 0.43285,0 0.64946,0 0.36865,0 0.73695,0 1.1056,0 0.019,0 0.0381,-0.002 0.0568,-0.003 0.0279,-0.001 0.0339,0.004 0.0339,0.0317 3.5e-4,0.0854 0,0.17074 0,0.25576 0,0.10442 -3.5e-4,0.20884 3.5e-4,0.31327 3.5e-4,0.0332 0.004,0.0667 0.008,0.0998 0.002,0.0138 0.0102,0.0272 0.0169,0.0402 0.005,0.01 0.0152,0.0187 0.0258,0.0131 0.008,-0.004 0.0127,-0.0152 0.0162,-0.0243 0.002,-0.006 7e-4,-0.0145 0,-0.0219 -0.005,-0.0557 -0.003,-0.11148 0.005,-0.16687 0.002,-0.0134 0.002,-0.0275 0.001,-0.0409 -0.002,-0.14111 -0.004,-0.28257 -0.006,-0.42368 -3.6e-4,-0.0219 0.001,-0.0441 0.002,-0.0663 0.001,-0.0212 0.006,-0.0261 0.0268,-0.0254 0.0339,7.1e-4 0.0674,0.003 0.10089,0.003 0.0212,0 0.042,-0.004 0.0628,-0.004 0.18803,7.1e-4 0.37606,0.003 0.56409,0.003 0.16651,0 0.33337,-0.002 0.50024,-0.002 0.2607,-3.5e-4 0.52175,0 0.78246,0 0.11712,-3.5e-4 0.23424,-7e-4 0.35136,-10e-4 0.042,0 0.0501,0.007 0.0501,0.0497 -3.5e-4,0.0441 -0.002,0.0882 -0.002,0.13229 0,0.0759 0.002,0.1517 0.001,0.22719 -3.5e-4,0.0318 -0.005,0.0632 -0.006,0.0945 -7e-4,0.0102 -3.5e-4,0.0208 -3.5e-4,0.03 0.012,0.008 0.0198,0.004 0.0261,-0.004 0.006,-0.007 0.0109,-0.0155 0.0162,-0.0233 0.0152,-0.0208 0.0342,-0.0367 0.0589,-0.0462 0.0187,-0.007 0.036,-0.018 0.055,-0.0236 0.0159,-0.004 0.0346,-0.009 0.049,-0.004 0.0737,0.0233 0.13652,0.0617 0.17286,0.13335 0.0145,0.0279 0.0201,0.0575 0.0205,0.0885 0,0.0321 0.004,0.0381 0.0353,0.0448 0.0441,0.01 0.0653,10e-4 0.0864,-0.0381 0.0106,-0.0201 0.0233,-0.0303 0.0466,-0.0303 0.127,7.1e-4 0.25365,0 0.3803,10e-4 0.0356,3.5e-4 0.0713,0.005 0.10724,0.002 0.0307,-0.003 0.0413,0.008 0.0455,0.0395 0.002,0.0123 0.003,0.0251 0.003,0.0378 -3.6e-4,0.0194 -0.0102,0.0384 -0.0339,0.0374 -0.005,0 -0.0116,3.5e-4 -0.0152,0.003 -0.007,0.006 -0.0166,0.0138 -0.0162,0.0201 3.6e-4,0.008 0.008,0.0187 0.0155,0.024 0.007,0.005 0.0183,0.005 0.0275,0.005 0.078,0 0.15593,-0.002 0.23425,-0.001 0.0483,3.5e-4 0.0967,0.005 0.14499,0.005 0.0487,3.6e-4 0.097,-0.001 0.14534,-0.004 0.0314,-0.002 0.0434,0.006 0.0455,0.037 7.1e-4,0.0145 3.5e-4,0.0296 -0.003,0.0437 -0.008,0.0349 -0.0166,0.0691 -0.0176,0.10548 -3.5e-4,0.0166 -0.0102,0.0349 -0.0212,0.048 -0.06,0.072 -0.121,0.14323 -0.18309,0.21343 -0.0321,0.036 -0.0674,0.0691 -0.10089,0.10442 -0.0289,0.0303 -0.0286,0.0363 -0.008,0.0713 0.008,0.0134 0.0134,0.0286 0.0194,0.043 0.006,0.0134 0.01,0.0275 0.0159,0.0413 0.0374,0.0857 0.0783,0.17039 0.11183,0.25752 0.0303,0.0797 0.0635,0.15769 0.10089,0.23425 0.0289,0.0586 0.049,0.121 0.0773,0.17956 0.024,0.0508 0.036,0.10513 0.0582,0.15628 0.0109,0.025 0.0226,0.0497 0.0356,0.0737 0.0138,0.0258 0.0215,0.0522 0.018,0.0815 -0.009,0.0751 -0.0183,0.15029 -0.0275,0.22543 -0.003,0.0247 0.003,0.0342 0.0268,0.043 0.002,7e-4 0.004,0.002 0.006,0.002 0.0593,0.0141 0.11889,0.0282 0.17816,0.042 0.009,0.002 0.019,0.004 0.0282,0.004 0.025,-10e-4 0.0473,0.005 0.0691,0.018 0.013,0.008 0.03,0.008 0.0459,0.0123 0.007,0.0236 0.0102,0.39229 0.004,0.54222 -0.0208,0.009 -0.0261,0.0293 -0.0303,0.0504 -0.006,0.0307 -0.009,0.0617 -0.0257,0.09 -0.009,0.0145 -0.008,0.0346 -0.0106,0.0522 -0.005,0.0321 -0.009,0.0646 -0.0141,0.0967 -0.008,0.0497 -0.0159,0.0995 -0.0243,0.14958 -0.003,0.0173 -0.005,0.0356 -0.0106,0.0522 -0.0145,0.0437 -0.0187,0.0885 -0.0212,0.1337 -3.6e-4,0.0127 -0.002,0.025 -0.003,0.0378 -0.002,0.0568 -0.0416,0.0868 -0.0847,0.11218 -0.0113,0.007 -0.0286,0.006 -0.0427,0.005 -0.0847,-0.004 -0.16687,-0.0236 -0.24942,-0.0413 -0.005,-10e-4 -0.0102,-0.002 -0.0155,-0.002 -0.031,-0.004 -0.0416,0.002 -0.0444,0.0332 -0.002,0.0307 -0.019,0.0519 -0.0402,0.0723 -0.031,0.0296 -0.0702,0.0455 -0.10654,0.0656 -0.0473,0.0261 -0.0924,0.055 -0.13618,0.0864 -0.0392,0.0282 -0.0815,0.0522 -0.12206,0.0787 -0.0176,0.0116 -0.0349,0.0233 -0.0519,0.036 -0.0293,0.0222 -0.0614,0.0222 -0.0885,-0.004 -0.0145,-0.0148 -0.0303,-0.0208 -0.0508,-0.0201 -0.0314,7e-4 -0.0632,-7.1e-4 -0.0949,0 -0.0487,0.001 -0.0967,-0.002 -0.14429,-0.0141 -0.0303,-0.008 -0.0621,-0.0109 -0.0942,-0.006 -0.0173,0.003 -0.0356,-0.001 -0.0536,-0.002 -0.0257,-0.001 -0.0339,0.007 -0.0272,0.0318 0.005,0.0194 0.0102,0.0381 0.007,0.0586 -0.001,0.007 0.003,0.0166 0.006,0.024 0.019,0.042 0.0138,0.0836 0.002,0.12594 -0.01,0.0353 -0.0176,0.0716 -0.0229,0.10759 -0.005,0.0335 -0.0113,0.066 -0.0194,0.0988 -0.01,0.0402 -0.01,0.0833 -0.013,0.12489 -0.001,0.0106 0.001,0.0212 0,0.0318 -0.001,0.0212 -0.01,0.0275 -0.0307,0.0254 -0.003,-3.6e-4 -0.006,-0.002 -0.009,-0.002 -0.01,0.001 -0.0243,7.1e-4 -0.0279,0.006 -0.004,0.006 0.001,0.0191 0.004,0.0289 0.004,0.0123 0.0187,0.0208 0.0127,0.037 -0.006,0.0183 -0.0215,0.0268 -0.0367,0.0367 -0.0349,0.0236 -0.0706,0.0469 -0.1016,0.0748 -0.0388,0.0349 -0.0825,0.0621 -0.12524,0.091 -0.0208,0.0145 -0.0413,0.0293 -0.06,0.0462 -0.0212,0.0191 -0.043,0.03 -0.0716,0.0201 -0.0201,-0.007 -0.0367,-0.003 -0.0497,0.0152 -0.0183,0.025 -0.0469,0.0342 -0.0748,0.0445 -0.0582,0.0219 -0.11606,0.0444 -0.17427,0.0656 -0.0381,0.0138 -0.0769,0.0215 -0.11783,0.0173 -0.018,-0.002 -0.0349,-0.001 -0.0504,0.012 -0.007,0.006 -0.0191,0.008 -0.0289,0.0109 -0.031,0.01 -0.0621,0.0201 -0.0931,0.0296 -0.013,0.004 -0.0272,0.005 -0.0395,0.0106 -0.0582,0.0243 -0.12312,0.03 -0.17921,0.061 -0.012,0.006 -0.0282,0.008 -0.0427,0.008 -0.0236,7.1e-4 -0.0448,0.005 -0.066,0.0176 -0.0166,0.0102 -0.0374,0.0131 -0.0561,0.0198 -0.0395,0.0138 -0.0776,0.0296 -0.12065,0.0356 -0.0388,0.006 -0.0755,0.0247 -0.11325,0.0381 -0.0427,0.0152 -0.0847,0.0321 -0.12805,0.0455 -0.11783,0.036 -0.23637,0.0709 -0.3549,0.10584 -0.0176,0.005 -0.037,0.008 -0.0557,0.008 -2.7178,3.5e-4 -5.4356,3.5e-4 -8.15304,0 -0.0183,0 -0.0381,-0.004 -0.055,-0.0106 -0.13617,-0.0543 -0.27199,-0.10972 -0.40746,-0.16581 -0.0222,-0.009 -0.0437,-0.0212 -0.0639,-0.0342 -0.0402,-0.0261 -0.0832,-0.0444 -0.12806,-0.0614 -0.0314,-0.0116 -0.06,-0.0303 -0.09,-0.0452 -0.0388,-0.019 -0.0776,-0.0378 -0.11712,-0.0557 -0.0303,-0.0138 -0.0621,-0.0247 -0.0928,-0.0384 -0.0843,-0.0388 -0.16686,-0.0808 -0.25223,-0.11747 -0.0938,-0.0402 -0.18063,-0.0956 -0.27976,-0.12524 -0.0194,-0.006 -0.0363,-0.0205 -0.055,-0.0293 -0.0265,-0.013 -0.054,-0.0236 -0.0801,-0.037 -0.0215,-0.0106 -0.0413,-0.0265 -0.0635,-0.0349 -0.0642,-0.0247 -0.11959,-0.0649 -0.17851,-0.0988 -0.079,-0.0459 -0.15416,-0.0988 -0.23107,-0.14852 -0.003,-0.002 -0.005,-0.005 -0.008,-0.006 -0.0621,-0.0201 -0.0864,-0.0765 -0.12171,-0.12312 -0.0388,-0.0511 -0.079,-0.10125 -0.11712,-0.15275 -0.0251,-0.0339 -0.0476,-0.0695 -0.0716,-0.10407 -0.009,-0.0131 -0.003,-0.0229 0.004,-0.0342 0.0127,-0.0205 0.007,-0.0349 -0.0159,-0.0342 -0.0603,0.002 -0.0945,-0.0349 -0.12524,-0.0776 -0.0109,-0.0145 -0.019,-0.0311 -0.0406,-0.0321 0,-0.0755 0,-0.14923 0,-0.22296 0.001,-0.001 0.002,-0.003 0.004,-0.005 0.0346,-0.0303 0.0663,-0.0642 0.0917,-0.10195 0.01,-0.0141 0.01,-0.0363 0.01,-0.055 3.5e-4,-0.0504 -0.002,-0.1009 -0.003,-0.15134 0,-0.0127 0.001,-0.0254 0.003,-0.0378 0.004,-0.0321 -0.0106,-0.0571 -0.0455,-0.0487 -0.009,0.002 -0.0205,-0.002 -0.0303,-0.005 -0.01,-0.003 -0.0183,-0.009 -0.0282,-0.0138 -0.004,-0.0134 -0.004,-0.025 0.0127,-0.0328 0.007,-0.004 0.0131,-0.0138 0.0169,-0.0222 0.0243,-0.0561 0.049,-0.11183 0.072,-0.16827 0.0152,-0.0367 0.0201,-0.0741 0.0102,-0.11395 -0.006,-0.0233 -0.005,-0.048 -0.007,-0.0723 -0.001,-0.0155 -7e-4,-0.0314 -0.002,-0.0473 -0.003,-0.0243 0.002,-0.0452 0.0183,-0.0642 0.0169,-0.0197 0.018,-0.0353 0.002,-0.0571 -0.0113,-0.0152 -0.0109,-0.0303 -0.009,-0.0476 0.002,-0.0187 0.001,-0.0374 0.001,-0.0561 3.6e-4,-0.007 3.6e-4,-0.0148 10e-4,-0.0219 0.005,-0.0342 0.006,-0.0377 0.0395,-0.0321 0.0501,0.008 0.0773,-0.0265 0.11006,-0.0508 0.007,-0.005 0.008,-0.0187 0.0113,-0.0289 0.0596,-0.20743 0.11889,-0.41486 0.17851,-0.6223 0.008,-0.0282 0.0173,-0.0564 0.024,-0.085 0.005,-0.0205 0.0145,-0.037 0.0314,-0.0494 0.0275,-0.0208 0.0339,-0.0469 0.0296,-0.0808 -0.008,-0.0628 -0.006,-0.1263 0.005,-0.18874 0.004,-0.0205 0.0152,-0.0392 0.0236,-0.0586 0.0314,-0.072 0.0702,-0.13899 0.13229,-0.19015 0.002,-0.002 0.005,-0.004 0.007,-0.006 0.0314,-0.0222 0.0406,-0.0515 0.0402,-0.09 -0.001,-0.0885 0.002,-0.1771 0.006,-0.26529 0.002,-0.0483 0.007,-0.0967 0.012,-0.14464 0.003,-0.036 0.0328,-0.0705 0.067,-0.0794 0.0713,-0.0187 0.14288,-0.037 0.21414,-0.0557 0.061,-0.0159 0.12206,-0.0314 0.18309,-0.0473 0.013,-0.004 0.0247,-0.004 0.0353,0.006 0.0162,0.0152 0.0325,0.0303 0.0494,0.0444 0.025,0.0208 0.0494,0.0427 0.0766,0.061 0.0222,0.0145 0.031,0.0318 0.0296,0.0575 -0.001,0.0208 -0.005,0.0462 0.005,0.0614 0.01,0.0155 0.0349,0.0219 0.0536,0.0314 0.0554,0.0279 0.11112,0.0557 0.16686,0.0833 0.0152,0.007 0.0268,0.0155 0.0286,0.0339 0.003,0.0282 0.0176,0.0519 0.0377,0.0713 0.0208,0.0201 0.0222,0.0413 0.0145,0.0681 -0.019,0.0656 -0.0353,0.13229 -0.0519,0.19861 -0.002,0.0102 -0.002,0.0212 -0.003,0.0392 0.012,-0.009 0.018,-0.012 0.0226,-0.0166 0.0325,-0.0332 0.0642,-0.067 0.097,-0.0998 0.0106,-0.0106 0.0145,-0.0219 0.0145,-0.0367 0,-0.0356 0,-0.0716 0.002,-0.10725 0.001,-0.0187 0.006,-0.0374 0.008,-0.0561 0.001,-0.012 0.002,-0.0254 -0.002,-0.0367 -0.007,-0.0222 -0.0109,-0.0445 -0.0102,-0.0681 3.5e-4,-0.0162 0.004,-0.03 0.013,-0.0441 0.007,-0.0102 0.01,-0.025 0.0106,-0.0385 0.004,-0.0998 0.007,-0.20002 0.0106,-0.29986 3.5e-4,-0.0123 0.001,-0.025 0.002,-0.0406 h 0.22789 c 0,0.0127 -7e-4,0.0265 0,0.0395 0.001,0.0116 0.003,0.0261 0.0166,0.0272 0.008,7e-4 0.0176,-0.008 0.0261,-0.0131 0.002,-7.1e-4 0.003,-0.003 0.004,-0.005 0.0187,-0.0279 0.0385,-0.0554 0.0557,-0.084 0.037,-0.0624 0.0713,-0.1263 0.10936,-0.18803 0.0318,-0.0508 0.0677,-0.0991 0.10019,-0.14923 0.0212,-0.0328 0.0399,-0.067 0.0589,-0.10089 0.0159,-0.0286 0.0282,-0.0589 0.0455,-0.0868 0.0236,-0.0385 0.0508,-0.0748 0.0759,-0.11254 0.0272,-0.0413 0.0564,-0.0819 0.0794,-0.12524 0.0113,-0.0212 0.0134,-0.0487 0.0141,-0.0734 0.003,-0.0882 0.004,-0.17675 0.004,-0.26494 3.6e-4,-0.0314 -0.002,-0.0628 -0.002,-0.0942 -7e-4,-0.0769 -0.002,-0.15381 -0.001,-0.23072 3.6e-4,-0.0229 0.008,-0.0459 0.008,-0.0684 -7e-4,-0.0451 -0.003,-0.0903 -0.007,-0.13511 -0.001,-0.0166 0.004,-0.0247 0.0173,-0.0328 0.0314,-0.018 0.0617,-0.0102 0.091,0.002 0.007,0.003 0.012,0.0145 0.0131,0.0226 0.003,0.0261 0.0138,0.0483 0.0289,0.0691 0.0222,0.0314 0.0286,0.067 0.0268,0.10478 -0.002,0.0441 -0.002,0.0878 -0.003,0.13194 -3.5e-4,0.0388 0,0.0776 -3.5e-4,0.11641 0,0.01 -7.1e-4,0.019 -7.1e-4,0.0286 0.001,0.0547 0.003,0.10901 0.003,0.16369 3.5e-4,0.0176 -0.003,0.0356 -0.005,0.0533 -0.004,0.0261 0,0.036 0.0258,0.0413 0.0236,0.005 0.0342,0.0155 0.0353,0.0399 7.1e-4,0.0201 0.01,0.0279 0.0275,0.0275 0.0303,-3.5e-4 0.061,-0.001 0.0914,-0.003 0.0261,-0.001 0.0332,-0.008 0.0339,-0.0349 0.001,-0.0473 0.007,-0.0949 -0.004,-0.14181 -0.001,-0.005 3.6e-4,-0.0102 7.1e-4,-0.0187 m 0.7112,5.08423 c -7.1e-4,0.0166 -0.003,0.0335 -0.002,0.0497 0.005,0.0755 -0.002,0.14888 -0.0321,0.21943 -0.008,0.0191 -0.0123,0.0402 -0.0212,0.0593 -0.0205,0.0437 -0.0388,0.0893 -0.0653,0.12912 -0.0303,0.0455 -0.0677,0.0864 -0.10266,0.12841 -0.009,0.0106 -0.0134,0.0198 -0.01,0.0342 0.006,0.0254 0.012,0.0511 0.0159,0.0769 0.004,0.0311 0.0173,0.0607 0.0109,0.0931 -0.006,0.03 0,0.0402 0.03,0.0427 0.0649,0.006 0.13018,0.0102 0.19544,0.0113 0.0392,7.1e-4 0.0593,-0.0208 0.0579,-0.06 -0.002,-0.0494 -10e-4,-0.0977 0.007,-0.14676 0.005,-0.0318 0.0148,-0.0579 0.0349,-0.0818 0.0307,-0.036 0.0723,-0.0303 0.0878,0.0141 0.0243,0.0713 0.03,0.1457 0.0286,0.22049 0,0.005 -0.001,0.0106 -0.001,0.0159 3.6e-4,0.0251 0.007,0.0342 0.0317,0.0395 0.008,0.002 0.0166,0.003 0.025,0.004 0.0512,0.003 0.10231,0.006 0.15346,0.01 0.0222,0.001 0.0346,-0.003 0.0427,-0.0194 0.0116,-0.0233 0.008,-0.0515 -0.0109,-0.0699 -0.008,-0.008 -0.0176,-0.0148 -0.0272,-0.0219 -0.0646,-0.049 -0.12524,-0.10301 -0.17604,-0.16686 -0.0501,-0.0628 -0.091,-0.13124 -0.12065,-0.20638 -0.0363,-0.0917 -0.0589,-0.18662 -0.0677,-0.28469 -0.003,-0.0332 -0.005,-0.0663 -0.007,-0.1009 -0.0183,0.002 -0.0342,0.004 -0.0497,0.005 -0.008,10e-4 -0.0166,0.004 -0.0279,0.006 m 8.23277,0.41275 -0.001,-0.007 c -0.0303,-0.008 -0.0607,-0.0152 -0.091,-0.0229 -0.0162,-0.005 -0.0335,-0.008 -0.048,-0.0152 -0.0854,-0.0441 -0.16122,-0.10054 -0.21696,-0.17992 -0.0275,-0.0395 -0.0529,-0.0811 -0.079,-0.1217 -0.0116,-0.0183 -0.0191,-0.0399 -0.0452,-0.0452 -0.007,-10e-4 -0.0123,-0.0106 -0.018,-0.0166 -0.007,-0.007 -0.0138,-0.0152 -0.0222,-0.025 -0.0699,0.0346 -0.14429,0.0155 -0.2152,0.0233 -0.001,0.004 -0.003,0.006 -0.003,0.008 3.5e-4,0.007 7.1e-4,0.0145 0.001,0.0219 0.007,0.0593 0.004,0.11783 -0.012,0.17498 -0.0109,0.0406 -0.0247,0.0804 -0.0395,0.11959 -0.008,0.0198 -0.008,0.036 0.005,0.0529 0.0293,0.0395 0.0459,0.0847 0.0607,0.13124 0.009,0.0289 0.0191,0.0579 0.03,0.0864 0.0127,0.0328 0.0254,0.0381 0.0586,0.0268 0.0607,-0.0208 0.12135,-0.0416 0.18203,-0.0631 0.0339,-0.0116 0.0406,-0.025 0.0317,-0.0593 -0.0155,-0.06 -0.0314,-0.11995 -0.0452,-0.18027 -0.009,-0.0413 0.009,-0.0663 0.0522,-0.0787 0.0272,-0.008 0.0617,0.012 0.073,0.043 0.0226,0.0614 0.0444,0.12276 0.0667,0.18415 0.005,0.0148 0.0113,0.0296 0.03,0.0363 0.0765,-0.0427 0.16863,-0.0487 0.24553,-0.0938 m -2.61337,-0.40534 c 0.009,0.0554 0.001,0.10654 -0.008,0.15699 -0.009,0.0512 -0.0254,0.0995 -0.0413,0.14887 -0.0314,0.0963 -0.0801,0.18239 -0.14111,0.26247 -0.0106,0.0134 -0.0159,0.0272 -0.0127,0.0437 0.004,0.024 0.006,0.0483 0.0134,0.0713 0.012,0.0384 0.0219,0.0759 0.008,0.11712 -0.007,0.0201 0.004,0.0328 0.0265,0.0385 0.006,0.002 0.0123,0.003 0.0187,0.003 0.0377,-7.1e-4 0.0755,-0.002 0.11325,-0.003 0.0106,-3.6e-4 0.0212,3.5e-4 0.0314,0.002 0.0413,0.008 0.0515,10e-4 0.0568,-0.0399 10e-4,-0.007 0.002,-0.0148 10e-4,-0.0219 -0.009,-0.0582 0.001,-0.11571 0.008,-0.17321 0.002,-0.0152 0.006,-0.0318 0.0145,-0.0441 0.0169,-0.0254 0.0406,-0.0416 0.0741,-0.0384 0.0325,0.003 0.0381,0.0279 0.0473,0.0511 0.0272,0.0695 0.0314,0.14111 0.0247,0.21414 -7.1e-4,0.005 -0.001,0.0106 -0.001,0.0159 0.001,0.0229 0.012,0.0339 0.0349,0.0353 0.0212,0.001 0.0423,0.002 0.0635,0.002 0.0547,3.5e-4 0.10936,0 0.16546,0 0.006,-0.0155 0.0123,-0.031 0.0194,-0.0487 -0.0194,-0.0152 -0.0367,-0.0303 -0.0554,-0.0437 -0.0776,-0.055 -0.15169,-0.11395 -0.20602,-0.19368 -0.031,-0.0455 -0.0656,-0.0889 -0.0892,-0.13793 -0.0586,-0.12206 -0.0981,-0.25083 -0.1076,-0.387 -7e-4,-0.0102 -0.002,-0.0205 -0.004,-0.0318 z m -1.65136,0.83397 c 0.001,-0.0123 0.003,-0.0208 0.003,-0.0289 0.003,-0.0663 0.004,-0.133 0.0187,-0.19791 0.006,-0.0275 -3.6e-4,-0.0483 -0.019,-0.0684 -0.0127,-0.0138 -0.0236,-0.0296 -0.0349,-0.0448 -0.0367,-0.0494 -0.0632,-0.10477 -0.084,-0.16192 -0.0219,-0.0603 -0.0339,-0.12383 -0.0395,-0.18804 -0.005,-0.0543 -0.008,-0.10865 -0.012,-0.16368 h -0.0494 c 0.003,0.0314 0.006,0.0607 0.008,0.09 0.005,0.0614 -0.001,0.12101 -0.0243,0.17957 -0.0413,0.10371 -0.0833,0.20637 -0.15593,0.29421 -0.0808,0.0974 -0.17039,0.18345 -0.28293,0.24377 -0.0183,0.01 -0.0363,0.0201 -0.054,0.03 0.004,0.0194 0.0162,0.0226 0.031,0.0229 0.0462,10e-4 0.0928,0.005 0.139,0.004 0.0377,-3.5e-4 0.0755,-0.005 0.11394,-0.008 0.009,-0.0388 0.0166,-0.0748 0.0152,-0.11183 -0.002,-0.0374 0.005,-0.073 0.0155,-0.10865 0.0116,-0.0402 0.0388,-0.0635 0.0776,-0.0748 0.019,-0.005 0.0353,0.005 0.0388,0.0243 0.003,0.0166 0.006,0.0332 0.007,0.0501 0.004,0.0617 0.007,0.12383 0.012,0.18592 0.002,0.0282 0.007,0.0328 0.0346,0.0342 0.0621,0.002 0.12453,0.006 0.18662,0.006 0.0183,3.5e-4 0.0367,-0.006 0.0547,-0.009 m -1.97978,-0.09 c -3.6e-4,0 -7.1e-4,0 -0.001,0 0,0.0148 0,0.0296 3.5e-4,0.0444 3.5e-4,0.0215 0.01,0.0339 0.031,0.0367 0.0272,0.004 0.0543,0.007 0.0815,0.009 0.0264,0.002 0.0529,0.002 0.079,0.004 0.0332,0.003 0.0423,-0.004 0.0437,-0.037 0.001,-0.0335 0.001,-0.0674 -7e-4,-0.10089 -7.1e-4,-0.0127 -0.006,-0.0272 -0.0145,-0.037 -0.0483,-0.0582 -0.10019,-0.11325 -0.13934,-0.17921 -0.0363,-0.0603 -0.0769,-0.11783 -0.0875,-0.1898 -0.003,-0.0187 -0.012,-0.036 -0.0176,-0.054 -0.005,-0.0148 -0.012,-0.0296 -0.0134,-0.0452 -0.005,-0.0512 -0.007,-0.10266 -0.01,-0.15416 -7e-4,-0.008 -3.5e-4,-0.0176 -0.004,-0.0247 -0.004,-0.006 -0.012,-0.0152 -0.0173,-0.0145 -0.007,0.001 -0.0155,0.009 -0.0205,0.0155 -0.004,0.004 -0.003,0.012 -0.003,0.0183 -0.002,0.0356 -0.001,0.0716 -0.005,0.1069 -0.003,0.0293 -0.009,0.0586 -0.018,0.0861 -0.018,0.0529 -0.0392,0.10443 -0.0589,0.15628 -0.0212,0.0554 -0.0473,0.1076 -0.0875,0.15276 -0.0264,0.0296 -0.0504,0.0617 -0.0769,0.0921 -0.0116,0.0131 -0.0254,0.0243 -0.0395,0.0353 -0.0395,0.0303 -0.073,0.0639 -0.0677,0.11959 0.002,0.0212 0.008,0.0296 0.0279,0.0318 0.025,0.002 0.0504,0.002 0.0755,0.004 0.036,0.002 0.0716,0.002 0.10724,0.006 0.0385,0.004 0.0624,-0.0131 0.0624,-0.0519 -3.5e-4,-0.0494 0.001,-0.0984 0.004,-0.14782 0.002,-0.0512 0.0317,-0.0804 0.0699,-0.10442 0.0194,-0.012 0.0335,-0.008 0.0462,0.0116 0.0226,0.0356 0.0413,0.0737 0.0462,0.11642 0.004,0.031 0.005,0.0628 0.007,0.0942 m -3.80048,-0.75248 h -0.64452 c -0.002,0.009 -0.007,0.0176 -0.006,0.0251 0.006,0.0356 -0.0169,0.0596 -0.0342,0.085 -0.0159,0.0233 -0.0363,0.0258 -0.0607,0.0116 -0.008,-0.005 -0.0159,-0.0106 -0.0243,-0.0141 -0.0159,-0.006 -0.0303,-0.002 -0.0363,0.01 -0.006,0.0109 0,0.0258 0.0134,0.0349 0.002,0.002 0.005,0.003 0.008,0.005 0.0423,0.0183 0.0847,0.037 0.127,0.0554 0.0289,0.0127 0.0582,0.0247 0.0868,0.0374 0.0109,0.005 0.0198,0.001 0.0251,-0.007 0.012,-0.0194 0.0279,-0.0388 0.0321,-0.0603 0.007,-0.036 0.0236,-0.067 0.0388,-0.0995 0.012,-0.0254 0.0314,-0.0416 0.055,-0.0543 0.0289,-0.0152 0.0543,-0.0109 0.0808,0.0116 0.0236,0.0201 0.0317,0.0466 0.0226,0.0734 -0.0212,0.0628 -0.0427,0.12523 -0.0639,0.18803 -0.007,0.0222 -0.004,0.0282 0.0173,0.0392 0.0236,0.012 0.0466,0.0247 0.0695,0.0377 0.0201,0.0113 0.0381,0.0258 0.0631,0.0268 0.007,3.6e-4 0.0141,0.008 0.0212,0.0123 0.009,0.006 0.0173,0.0127 0.0268,0.0169 0.0169,0.008 0.0349,0.002 0.0423,-0.0152 0.0141,-0.0328 0.0265,-0.066 0.0395,-0.0991 0.0198,-0.0487 0.0434,-0.0935 0.096,-0.11535 0.0233,-0.01 0.0268,-0.0176 0.024,-0.0416 -0.006,-0.0529 -0.013,-0.10619 -0.0201,-0.16299 m 0.47837,-4.11903 c 0.0141,0.006 0.0258,0.0106 0.0377,0.0145 0.0377,0.0127 0.0699,0.0324 0.0952,0.0645 0.0152,0.0194 0.0346,0.036 0.0508,0.0522 0.0229,-0.006 0.0187,-0.0219 0.0183,-0.0349 -0.004,-0.11359 -0.007,-0.22719 -0.0113,-0.34078 -3.5e-4,-0.0109 0,-0.0219 0,-0.0356 0.0127,0.005 0.0205,0.008 0.0282,0.0113 0.0737,0.0339 0.14852,0.0656 0.22049,0.10302 0.0406,0.0208 0.0811,0.0162 0.12135,0.0166 0.009,-0.0176 -7e-4,-0.0282 -0.008,-0.0399 -0.0268,-0.0451 -0.0547,-0.09 -0.0797,-0.13617 -0.0385,-0.0713 -0.0748,-0.14358 -0.11254,-0.21555 -0.004,-0.007 -0.008,-0.0134 -0.0152,-0.0236 -0.11606,0.18979 -0.23036,0.37641 -0.34572,0.56444 m 2.88325,-0.0907 h -0.004 c 0,0.0187 7e-4,0.0377 -3.5e-4,0.0564 -10e-4,0.0268 0.007,0.049 0.0243,0.0695 0.0198,0.0236 0.0303,0.0243 0.0434,-0.002 0.0123,-0.0254 0.0286,-0.0349 0.0554,-0.025 0.003,0.001 0.006,7.1e-4 0.01,7.1e-4 0.0236,3.5e-4 0.0325,-0.007 0.0346,-0.0311 0.002,-0.0145 0.002,-0.0293 0.001,-0.0441 -0.001,-0.0219 0.004,-0.0409 0.0176,-0.0586 0.0138,-0.0169 0.0258,-0.0356 0.0377,-0.054 0.0106,-0.0159 0.009,-0.0268 -0.006,-0.0381 -0.0152,-0.0109 -0.0321,-0.0198 -0.0487,-0.0293 -0.008,-0.005 -0.018,-0.007 -0.0247,-0.0134 -0.0353,-0.0328 -0.0829,-0.0501 -0.11394,-0.0889 -0.009,-0.0116 -0.0247,-0.007 -0.0296,0.007 -0.002,0.008 -0.002,0.0183 -10e-4,0.0279 7.1e-4,0.0113 0.004,0.0226 0.005,0.0339 3.5e-4,0.0632 0,0.12594 0,0.18909 m -2.91747,0.21308 c -0.0166,-0.002 -0.0296,0.004 -0.0395,0.0183 -0.005,0.007 -0.0106,0.0134 -0.0166,0.0194 -0.0314,0.0328 -0.0307,0.0709 -0.0131,0.10866 0.0173,0.0374 0.048,0.0632 0.0864,0.079 0.0148,0.006 0.03,0.004 0.0409,-0.008 0.0261,-0.0289 0.0526,-0.0579 0.0765,-0.0885 0.006,-0.008 0.007,-0.0229 0.004,-0.0321 -0.013,-0.037 -0.0836,-0.10231 -0.13899,-0.097 m 2.75061,-0.21732 c 0.007,3.6e-4 0.0113,7.1e-4 0.0155,7.1e-4 0.0402,0 0.0476,-0.0116 0.0455,-0.0515 -0.002,-0.0533 -7.1e-4,-0.10689 3.5e-4,-0.16016 3.5e-4,-0.0138 0.007,-0.0293 -0.007,-0.0374 -0.0166,-0.009 -0.0268,0.006 -0.0381,0.0152 -7e-4,7e-4 -0.001,10e-4 -0.002,0.002 -0.0265,0.0268 -0.0519,0.0543 -0.0871,0.0713 -0.0219,0.0109 -0.0226,0.0222 -0.009,0.0441 0.0282,0.0459 0.0282,0.0931 0.01,0.14181 -0.002,0.007 -0.006,0.0134 -0.008,0.0205 -0.003,0.0116 -7.1e-4,0.0215 0.0127,0.0243 0.0127,0.002 0.0208,-0.004 0.0233,-0.0159 0.002,-0.009 7.1e-4,-0.0187 0.001,-0.0282 0.001,-0.0198 0.007,-0.0254 0.0272,-0.0272 0.006,-3.5e-4 0.0127,0 0.0162,0 m 5.96053,4.74098 c -0.006,0.007 -0.0113,0.0134 -0.0166,0.0201 -0.0243,0.0307 -0.0459,0.0635 -0.0734,0.0907 -0.0388,0.0388 -0.0797,0.0755 -0.12806,0.10266 -0.004,0.002 -0.007,0.004 -0.0106,0.007 -0.012,0.0102 -0.01,0.0226 0.005,0.0286 0.0138,0.006 0.0265,0.002 0.0399,-0.002 0.0624,-0.0222 0.12524,-0.0441 0.18803,-0.066 0.004,-10e-4 0.008,-0.002 0.012,-0.004 0.0219,-0.0102 0.0268,-0.0215 0.0201,-0.0451 -0.012,-0.0423 -0.0236,-0.085 -0.0363,-0.13124 m -8.92528,0.0885 c -0.008,-0.0152 -0.0127,-0.0254 -0.0194,-0.0339 -0.0106,-0.0131 -0.0233,-0.0243 -0.0339,-0.037 -0.0381,-0.0455 -0.072,-0.0931 -0.0871,-0.15169 -0.001,-0.004 -0.002,-0.008 -0.004,-0.0116 -0.004,-0.005 -0.01,-0.0134 -0.0148,-0.0134 -0.005,0 -0.0127,0.007 -0.0159,0.0123 -0.005,0.009 -0.006,0.0198 -0.01,0.0296 -0.009,0.0254 -0.0159,0.0522 -0.0272,0.0766 -0.0134,0.0282 -0.012,0.0339 0.0194,0.0441 0.0395,0.0131 0.0794,0.0251 0.11006,0.0575 0.0187,0.0197 0.0448,0.0296 0.0822,0.0275 m 10.59427,-4.81683 c 0.005,-0.0346 -0.0159,-0.0575 -0.0346,-0.0822 -0.0356,-0.0473 -0.11501,-0.0395 -0.14147,0.0145 -0.01,0.0198 -0.006,0.0307 0.0145,0.0406 0.0152,0.007 0.0314,0.0123 0.0476,0.0159 0.0289,0.006 0.0536,0.018 0.072,0.042 0.005,0.006 0.0102,0.0109 0.0162,0.0152 0.0113,0.008 0.0208,0.005 0.0236,-0.009 0.003,-0.012 0.002,-0.0247 0.002,-0.037 m -3.73697,4.9269 c -0.0674,0.0543 -0.13865,0.0889 -0.21449,0.12382 0.007,0.003 0.0102,0.005 0.0127,0.005 0.0441,0.004 0.0882,0.007 0.13264,0.0106 0.0317,0.002 0.0681,-0.0258 0.0706,-0.0575 0.002,-0.0247 -7.1e-4,-0.0497 -0.001,-0.0818 m -1.14688,-0.0166 c 0,0.0289 -3.6e-4,0.0497 0,0.0709 3.5e-4,0.0212 0.001,0.0427 0.002,0.0653 0.0582,0.003 0.11254,0.006 0.16792,0.008 0.003,-0.0113 0.005,-0.0198 0.008,-0.031 -0.067,-0.0236 -0.12101,-0.0646 -0.1778,-0.11359 m -6.45019,-4.08552 c 0.0229,0.0138 0.036,0.0138 0.0508,-0.002 0.0233,-0.0258 0.004,-0.0483 -0.01,-0.073 0.036,-0.0145 0.0377,-0.0434 0.0317,-0.0783 -0.0226,-0.009 -0.0466,-0.0184 -0.0727,-0.0286 z m -0.74401,0.46143 c 0.0109,-0.005 0.0166,-0.006 0.0197,-0.009 0.0314,-0.0367 0.0635,-0.073 0.0935,-0.11077 0.013,-0.0166 0.007,-0.0346 -0.0109,-0.0455 -0.0166,-0.01 -0.0264,-0.008 -0.0377,0.0131 -0.0201,0.037 -0.0395,0.0744 -0.0575,0.11254 -0.005,0.01 -0.004,0.0229 -0.007,0.0395 m 2.57563,3.74333 c 0.005,0.004 0.007,0.008 0.0102,0.01 0.031,0.0109 0.0624,0.005 0.0931,-7e-4 0.007,-10e-4 0.0155,-0.0117 0.018,-0.0194 0.006,-0.0198 0.009,-0.0406 0.001,-0.0628 -0.007,7e-4 -0.0141,-3.5e-4 -0.0183,0.003 -0.0335,0.0243 -0.0734,0.0395 -0.10442,0.0706 m -2.419,-0.85267 c -0.002,0.002 -0.004,0.005 -0.005,0.008 0.006,0.006 0.0102,0.0152 0.0176,0.0187 0.0339,0.0183 0.0684,0.036 0.10336,0.0522 0.0134,0.006 0.0254,-10e-4 0.0321,-0.0127 0.005,-0.009 0.0109,-0.0215 0.009,-0.0307 -0.003,-0.0134 -0.0176,-0.0127 -0.0289,-0.0123 -0.0363,3.5e-4 -0.0709,-0.006 -0.10442,-0.0191 -0.007,-0.003 -0.0155,-0.003 -0.0236,-0.004 m 1.40547,-3.59269 c 0.0272,-0.006 0.0272,-0.006 0.0448,-0.0233 0.0356,-0.036 0.0342,-0.0455 -0.004,-0.0811 -0.018,-0.0166 -0.037,-0.0102 -0.0399,0.0152 -0.003,0.0282 -7e-4,0.0575 -7e-4,0.0892 m 9.76559,3.85198 c 0.019,-3.5e-4 0.0356,-0.012 0.0413,-0.0286 0.004,-0.0123 10e-4,-0.0226 -0.008,-0.031 -0.0138,-0.012 -0.0325,-0.0138 -0.0497,-0.002 -0.0141,0.009 -0.0296,0.0183 -0.0272,0.0388 0.002,0.0138 0.0212,0.0236 0.0441,0.0233 m 0.22084,-0.001 c 0.008,-3.5e-4 0.0198,-0.006 0.0247,-0.0187 0.005,-0.0116 0.001,-0.0233 -0.009,-0.031 -0.0113,-0.009 -0.0233,-0.018 -0.0363,-0.0236 -0.0169,-0.007 -0.031,0.003 -0.0332,0.0212 -0.002,0.024 0.024,0.0522 0.0536,0.0522 m -0.37535,-0.15028 c -7.1e-4,-0.0169 -0.01,-0.0257 -0.0254,-0.025 -0.0272,0.001 -0.0462,0.0152 -0.0448,0.0339 0.001,0.0176 0.0247,0.0448 0.0388,0.0445 0.0138,-7.1e-4 0.0321,-0.0318 0.0314,-0.0533 m -3.29248,-6.4516 c -0.0106,0.0215 -0.003,0.0346 0.006,0.0459 0.0176,0.0205 0.0356,0.0406 0.054,0.0607 0.0123,0.013 0.0268,0.0169 0.0328,0.009 0.01,-0.0134 3.6e-4,-0.0236 -0.008,-0.0328 -0.0194,-0.0205 -0.0388,-0.0409 -0.0589,-0.0607 -0.007,-0.007 -0.0152,-0.0131 -0.0257,-0.0219 m -2.42041,7.16245 c -0.0141,0.0247 -0.003,0.0413 0.006,0.0575 0.0325,0.008 0.0621,0.006 0.0963,-0.009 -0.0367,-0.0173 -0.0688,-0.0325 -0.10231,-0.0483 m 6.27592,-0.73202 c -0.0219,3.6e-4 -0.0385,0.0152 -0.0374,0.0335 7.1e-4,0.0152 0.0148,0.0279 0.0318,0.0282 0.019,7.1e-4 0.0367,-0.0162 0.037,-0.0346 3.5e-4,-0.0166 -0.0123,-0.0272 -0.0314,-0.0272 m -10.93153,-3.042 c -0.002,-0.0116 -0.01,-0.0194 -0.0173,-0.013 -0.0166,0.0138 -0.0314,0.0296 -0.0448,0.0466 -0.003,0.003 0.002,0.0159 0.007,0.0205 0.003,0.003 0.0152,0.001 0.0191,-0.003 0.0116,-0.0116 0.0219,-0.025 0.0317,-0.0381 0.003,-0.004 0.004,-0.01 0.005,-0.0131 m 0.69709,-0.5528 c 0,-0.0102 -0.0123,-0.0198 -0.025,-0.0191 -0.0141,3.5e-4 -0.0261,0.0123 -0.0265,0.0261 0,0.0127 0.009,0.024 0.0197,0.0243 0.012,0 0.0314,-0.0194 0.0318,-0.0314 m 10.34451,3.46498 c 0.008,-0.0127 0.0116,-0.0162 0.0127,-0.0201 0,-0.001 -0.007,-0.006 -0.008,-0.006 -0.004,10e-4 -0.008,0.005 -0.009,0.009 -0.001,0.004 0.002,0.008 0.005,0.0169"
       style="stroke-width:0.352778" />
  </g>
</svg>
