<?xml version="1.0" encoding="UTF-8" standalone="no"?>
<!-- Created with Inkscape (http://www.inkscape.org/) -->

<svg
   width="25.6187mm"
   height="9.1874704mm"
   viewBox="0 0 25.6187 9.1874704"
   version="1.1"
   id="svg1"
   sodipodi:docname="inkporter-svg-x11xc6q6.svg"
   xmlns:inkscape="http://www.inkscape.org/namespaces/inkscape"
   xmlns:sodipodi="http://sodipodi.sourceforge.net/DTD/sodipodi-0.dtd"
   xmlns="http://www.w3.org/2000/svg"
   xmlns:svg="http://www.w3.org/2000/svg">
  <sodipodi:namedview
     id="namedview1"
     pagecolor="#ffffff"
     bordercolor="#666666"
     borderopacity="1.0"
     inkscape:showpageshadow="2"
     inkscape:pageopacity="0.0"
     inkscape:pagecheckerboard="0"
     inkscape:deskcolor="#d1d1d1"
     inkscape:document-units="mm"
     inkscape:zoom="0.72782688"
     inkscape:cx="396.38547"
     inkscape:cy="562.6338"
     inkscape:window-width="1920"
     inkscape:window-height="1017"
     inkscape:window-x="-8"
     inkscape:window-y="-8"
     inkscape:window-maximized="1"
     inkscape:current-layer="layer1" />
  <defs
     id="defs1" />
  <g
     inkscape:label="Layer 1"
     inkscape:groupmode="layer"
     id="layer1"
     transform="translate(-45.0372,-204.41288)">
    <path
       id="TU-M1A1-Abrams"
       d="m 70.554,209.61064 c 0,0 0.1019,-0.0653 0.1019,-0.17427 0,-0.10901 -0.073,-0.1457 -0.073,-0.1457 v -0.0868 h -0.4438 l 0.015,-0.0766 h -0.2215 l -0.04,-0.0402 h -0.5235 l -0.1087,0.0219 h -3.0311 l -0.5302,0.0949 h -0.7415 l -0.7705,0.0868 -1.1119,0.26176 -0.065,0.0508 h -1.4613 l 1.8391,-0.30515 2.0422,-0.19967 0.1746,-0.18345 0.5821,-0.043 v -0.0818 h 1.239 v -1.13453 l -0.8545,-0.0148 v -0.0508 h -0.029 v -0.51576 h 0.029 v -0.13088 h -0.029 v -1.12677 h -0.225 v 1.12677 h -0.065 v 0.13088 h 0.051 v 0.51576 h -0.029 v -0.0628 l -0.065,-0.0787 h -0.2255 v -0.0508 h 0.051 v -0.0582 h -0.1524 v -0.20356 h -0.029 v -0.40498 h -0.021 v -2.31811 h -0.055 v 2.31811 h -0.021 v 0.40498 h -0.046 v 0.20003 h -0.1051 v 0.0797 H 62.858 l -0.1126,0.018 -0.08,-0.0797 -0.327,0.0797 v -0.13441 c 0,-0.0871 -0.1125,-0.0723 -0.1125,-0.0723 v -0.37465 l -0.084,0.0512 c 0,0 -0.048,-0.0727 -0.1055,-0.0727 h -0.7197 c -0.065,0 -0.087,0.0653 -0.087,0.0653 h -0.5485 l -0.011,-0.0691 0.051,-0.0145 v -0.0797 h 0.1273 l 0.094,-0.31644 -0.025,-0.018 -0.084,-0.004 -0.033,-0.0183 -0.058,0.0183 h -0.2688 v -0.15628 h -0.127 l -0.102,-0.0875 h -1.4389 v 0.0314 h -0.1891 v 0.005 l -0.032,0.019 h -0.026 l -0.042,-0.0212 -0.043,0.0212 h -0.036 l -0.043,-0.0212 -0.043,0.0212 h -0.031 l -0.042,-0.0212 -0.043,0.0212 h -0.05 v -0.0187 h -0.1376 v 0.0265 h -0.095 v 0.0187 h -0.188 v 0.0212 h -1.5015 v 0.10019 h 1.5015 v 0.0215 h 0.188 v 0.0236 h 0.095 v 0.024 h 0.1086 v 0.0208 h 0.1549 v 0.0776 h 0.054 v 0.0981 h 0.4142 l 0.014,0.13441 h 0.418 l 0.01,-0.13053 0.2946,-0.007 0.014,0.0363 0.2071,-0.004 c 0,0 0,0.27975 0.036,0.34149 0.037,0.0621 0.2691,0.16369 0.2691,0.16369 l 0.014,0.15628 c 0,0 -0.01,0.0148 -0.04,0.0148 -0.033,0 -0.047,0.0653 -0.047,0.0653 l -0.4325,0.0145 -0.4251,0.0473 -0.01,-0.15981 -0.236,-0.27269 -0.9017,0.018 0.026,0.48965 -2.213,0.22296 -0.654,0.0183 -0.094,0.16052 h -0.062 l -0.1549,0.20496 h -1.0202 l -0.091,0.12312 h -0.9977 l -0.086,0.0593 h -1.0932 l -0.2688,-0.26882 h -1.1617 l -0.2004,0.27764 H 49.711 l -0.077,0.0868 h -3.9088 l -0.068,0.0547 h -0.087 v -0.20955 h -0.3189 v 0.20955 h -0.2141 v 0.39159 h 0.5969 l 0.078,0.0275 h 3.8858 l 0.1136,0.0956 h 2.8748 l 0.059,0.0409 h 1.0252 l 0.1047,0.1277 h 0.9113 l 0.055,0.27764 0.6321,0.13935 h -0.5238 v 0.22895 l -0.2075,0.0981 -0.033,-0.17427 -0.4141,0.0653 0.055,0.17463 h -2.3114 c -0.5158,0 -0.8259,0.14852 -0.9973,0.27657 -0.043,-0.0741 -0.1224,-0.12417 -0.2142,-0.12417 -0.034,0 -0.066,0.007 -0.095,0.019 l 10e-4,-0.003 -0.2289,0.0776 7e-4,0.008 c -0.051,0.0208 -0.088,0.0709 -0.088,0.12911 0,0.0501 0.026,0.0935 0.066,0.11818 l 0.181,0.26177 -0.1962,0.27269 0.098,0.0871 0.1965,-0.22895 0.5066,0.59019 0.1097,0.37183 0.1069,-0.0127 -0.055,0.10936 0.3256,0.27058 0.1006,-0.0854 0.01,0.006 -0.039,0.12876 0.3669,0.21096 0.094,-0.11324 0.01,0.005 -0.036,0.16087 0.3824,0.18274 0.084,-0.11924 0.024,0.0127 -0.033,0.14711 0.382,0.18274 0.078,-0.11042 0.018,0.009 -0.032,0.14217 0.3821,0.18238 0.077,-0.10865 0.019,0.01 -0.031,0.1397 0.382,0.18274 0.082,-0.11607 0.016,0.007 -0.033,0.14958 0.3821,0.18238 0.09,-0.12629 0.019,0.009 0.023,0.127 0.423,0.019 0.027,-0.12206 0.026,0.11606 h 0.4236 l 0.021,-0.11853 0.041,3.5e-4 0.027,0.11818 h 0.4237 l 0.02,-0.11676 0.042,3.5e-4 0.027,0.11641 h 0.423 l 0.02,-0.115 h 0.025 l 0.027,0.115 h 0.423 l 0.02,-0.11288 h 0.012 l 0.026,0.11288 h 0.4233 l 0.019,-0.11112 h 0.011 l 0.026,0.11112 h 0.4234 l 0.019,-0.10971 0.045,3.5e-4 0.025,0.10936 h 0.4233 l 0.018,-0.0991 0.023,0.0991 h 0.4233 l 0.019,-0.10618 h 0.046 l 0.024,0.10618 h 0.4237 l 0.018,-0.10442 h 0.031 l 0.024,0.10442 h 0.4237 l 0.018,-0.10265 0.048,3.5e-4 0.023,0.1023 h 0.4237 l 0.017,-0.0991 0.023,0.0991 h 0.4237 l 0.017,-0.0991 h 0.049 l 0.023,0.0991 h 0.4233 l 0.017,-0.097 h 0.055 l 0.022,0.097 h 0.4233 l 0.017,-0.0953 0.05,3.6e-4 0.022,0.0949 h 0.4237 l 0.016,-0.0935 v 0 l 0.021,0.0935 h 0.4237 l 0.016,-0.0917 h 0.052 l 0.021,0.0917 h 0.4233 l 0.016,-0.0899 h 0.031 l 0.021,0.0899 h 0.4237 l 0.015,-0.0882 h 0.053 l 0.02,0.0882 h 0.4237 l 0.015,-0.0864 v 0 l 0.02,0.0864 h 0.4237 l 0.015,-0.085 0.054,3.5e-4 0.019,0.0847 h 0.4237 l 0.014,-0.0829 0.034,3.5e-4 0.019,0.0826 h 0.4237 l 0.014,-0.0811 h 0.056 l 0.019,0.0811 h 0.4237 l 0.014,-0.0797 0.034,-3.6e-4 0.029,0.085 0.4212,-0.0427 0.01,-0.0854 0.028,-0.005 0.059,0.0967 0.4043,-0.12488 -0.015,-0.1404 0.01,-0.001 0.082,0.0953 0.3753,-0.19579 -0.042,-0.13088 0.025,-0.0134 0.098,0.11218 0.3733,-0.19967 -0.047,-0.14147 0.012,-0.007 0.1019,0.11465 0.3715,-0.20355 -0.048,-0.1397 0.013,-0.007 0.094,0.10513 0.3715,-0.2032 -0.04,-0.11571 0.1037,0.0755 0.3199,-0.27728 -0.067,-0.11148 0.1292,0.037 0.1605,-0.28892 h 0.3238 v -0.0169 c 0.045,0.0603 0.1164,0.0991 0.1979,0.0991 0.1362,0 0.247,-0.11042 0.247,-0.24695 0,-0.13617 -0.1108,-0.24694 -0.247,-0.24694 -0.082,0 -0.1527,0.0395 -0.1979,0.0998 v -0.10407 l -0.1933,-0.1598 v -0.0148 l 0.079,-0.0593 0.051,-0.18168 h 0.3489 v 0.10196 h 0.3196 v -1.22873 l -0.065,-0.0797 z m -19.7909,0.8068 -0.1453,0.008 -0.019,-0.0667 c 0,-0.072 0.059,-0.13017 0.1305,-0.13017 0.056,0 0.1037,0.0356 0.1221,0.0857 -0.062,0.0596 -0.088,0.10301 -0.088,0.10301 m 1.428,1.66688 c -0.046,-0.0243 -0.089,-0.0469 -0.1277,-0.0677 0.048,0.009 0.098,0.0145 0.1496,0.0145 l 0.011,-3.5e-4 -0.033,0.0536 m 0.1143,10e-4 0.038,-0.066 c 0.037,-0.006 0.073,-0.0141 0.1086,-0.0251 l -0.076,0.13194 z m 1.6587,0.90134 c -0.041,-0.0183 -0.109,-0.0512 -0.1961,-0.0942 0.011,-0.0257 0.025,-0.0575 0.041,-0.0914 0.061,-0.12806 -0.023,-0.17991 -0.023,-0.17991 l -0.08,0.16721 -0.074,-0.0356 0.08,-0.16686 c 0,0 -0.093,-0.0328 -0.1542,0.0953 l -0.043,0.0854 c -0.062,-0.031 -0.1266,-0.0639 -0.194,-0.0981 0.011,-0.0261 0.025,-0.0575 0.041,-0.0907 0.061,-0.12805 -0.023,-0.18027 -0.023,-0.18027 l -0.08,0.16722 -0.074,-0.0353 0.08,-0.16721 c 0,0 -0.093,-0.0325 -0.1545,0.0953 l -0.041,0.0829 c -0.067,-0.0346 -0.1351,-0.0695 -0.2029,-0.10407 l 0.038,-0.0822 c 0.061,-0.12806 -0.023,-0.17991 -0.023,-0.17991 l -0.08,0.16721 -0.074,-0.0356 0.08,-0.16686 c 0,0 -0.093,-0.0325 -0.1545,0.0952 l -0.036,0.0727 c -0.061,-0.0314 -0.1199,-0.0624 -0.1771,-0.0917 l 0.038,-0.0688 c 0.049,-0.0847 0.026,-0.13865 0.01,-0.1644 l 0.048,-0.0187 0.4213,0.0677 0.076,0.0871 0.8237,0.1524 c -0.018,0.0663 -0.028,0.13547 -0.028,0.20744 0,0.17709 0.059,0.34008 0.1566,0.47237 l -0.019,0.0363 m 0.8541,0.26988 -0.027,-0.001 0.028,-0.007 -7e-4,0.008 m 0.6406,-3.5172 -0.072,-0.17003 0.1218,0.0268 0.4706,0.0155 -0.048,0.0642 z m 0.8478,3.4089 c 0,0.0434 0,0.0836 0,0.11359 -0.079,-3.5e-4 -0.1556,-3.5e-4 -0.2293,-7.1e-4 -0.001,-0.03 0,-0.0698 0,-0.11288 0,-0.14147 -0.098,-0.1524 -0.098,-0.1524 v 0.1852 h -0.082 v -0.1852 c 0,0 -0.098,0.0109 -0.098,0.1524 0,0.0427 -0.001,0.0822 0,0.11183 -0.081,-3.6e-4 -0.1577,-3.6e-4 -0.2293,-7.1e-4 v -0.0833 c 0.2469,-0.13511 0.4138,-0.39722 0.4138,-0.69814 l -0.001,-0.0251 c 0.061,0.004 0.1174,0.007 0.1668,0.0109 v 0.0451 c 0,0.2025 0.077,0.387 0.2011,0.5274 -0.018,0.0226 -0.032,0.0575 -0.032,0.11184 m 0.1799,0.0328 h -0.082 v -0.0787 l 0.082,0.0646 z m 0.1009,0.0818 -10e-4,-0.0392 c 0.031,0.0152 0.063,0.0286 0.096,0.0395 l -0.094,-3.5e-4 m 0.593,0.002 0.031,-0.0113 0.031,0.0113 z m 0.579,0.002 h -0.028 l 0.029,-0.0106 -4e-4,0.0106 m 0.1827,-0.0861 h -0.028 l 0.028,-0.018 z m 0.3324,-0.0328 c 0,0.0469 -10e-4,0.0903 0,0.12065 -0.077,0 -0.1532,-3.6e-4 -0.2286,-7.1e-4 -10e-4,-0.0303 0,-0.0734 0,-0.11994 l -0.01,-0.0593 c 0.051,-0.0476 0.095,-0.1016 0.1322,-0.16157 0.034,0.0547 0.074,0.10512 0.1196,0.14993 l -0.011,0.0709 m 0.098,0.0328 v -0.0303 l 0.044,0.0303 z m 0.1828,0.0889 -10e-4,-0.0194 0.055,0.0198 -0.054,-3.6e-4 m 0.5108,0.002 0.053,-0.018 0.054,0.0183 c -0.036,0 -0.071,0 -0.1072,-3.5e-4 m 0.6766,0.002 c -0.043,-3.6e-4 -0.085,-3.6e-4 -0.1281,-3.6e-4 0.045,-0.013 0.089,-0.03 0.1299,-0.0501 v 0.0504 m 0.183,-0.0931 h -0.082 v -0.0141 l 0.082,-0.0646 z m 0.3292,0.0949 c -0.076,-3.5e-4 -0.1517,-3.5e-4 -0.2276,-7e-4 0,-0.0307 0,-0.0766 0,-0.127 0,-0.0543 -0.014,-0.0893 -0.032,-0.11184 l 0.049,-0.0603 c 0.059,0.0811 0.1327,0.15064 0.2177,0.20461 -3e-4,0.0378 0,0.0716 0,0.0953 m 0.7482,0.003 -3e-4,-0.01 0.039,0.01 z m 0.7486,-0.13052 c 0,0.0536 0,0.10301 0,0.13335 -0.077,-3.6e-4 -0.1548,-7.1e-4 -0.2324,-7.1e-4 v -0.0261 c 0.089,-0.0324 0.1693,-0.0797 0.2395,-0.13934 v 0.0328 m 0.1799,0.0328 h -0.082 v -0.16192 l 0.044,-0.0575 0.038,0.0508 z m 0.3288,0.10231 c -0.075,-3.5e-4 -0.151,-3.5e-4 -0.2268,-7.1e-4 0,-0.03 0,-0.0804 0,-0.1344 v -0.0388 c 0.069,0.06 0.1485,0.10795 0.2349,0.14146 l -10e-4,0.0325 m 0.4632,0.002 v 0 -7e-4 z m 1.0068,-0.13687 c 0,0.0586 0,0.11112 0,0.1404 -0.067,-3.5e-4 -0.1358,-7e-4 -0.2046,-7e-4 0,-0.0229 0,-0.0589 0,-0.1009 0.103,-0.0632 0.1909,-0.14887 0.2558,-0.25082 l 0.044,0.0617 c -0.025,0.008 -0.088,0.0378 -0.088,0.15029 m 0.1799,0.0328 h -0.082 v -0.16862 l 0.082,0.085 z m 0.3284,0.10936 c -0.074,-3.5e-4 -0.1492,-7e-4 -0.2261,-0.001 -0.001,-0.0243 0,-0.0663 0,-0.11501 0.07,0.0459 0.1478,0.0804 0.2307,0.10231 l -7e-4,0.0138 m 0.4632,0.001 c -0.039,0 -0.078,-3.6e-4 -0.1175,-3.6e-4 0.041,-0.007 0.081,-0.0176 0.1189,-0.031 v 0.0314 m 0.5123,0.002 -0.086,-3.5e-4 0.087,-0.0187 -0.001,0.019 m 0.4949,-0.14534 c 0,0.0631 0,0.12029 0,0.1471 -0.064,-3.5e-4 -0.1316,-3.5e-4 -0.2039,-7e-4 -10e-4,-0.0268 0,-0.0836 0,-0.1464 l -7e-4,-0.0173 c 0.051,-0.0409 0.097,-0.0882 0.1372,-0.14041 0.025,0.0339 0.054,0.0653 0.084,0.0946 l -0.01,0.0632 m 0.098,0.0328 v -0.0219 l 0.033,0.0219 z m 0.1842,0.11536 v -0.0416 c 0.054,0.0198 0.1111,0.0342 0.1707,0.0423 -0.048,-3.6e-4 -0.104,-3.6e-4 -0.169,-7.1e-4 m 0.5123,-0.004 -0.001,-0.024 0.081,-0.0307 c 0.033,0.01 0.067,0.0176 0.1016,0.0233 l 7e-4,0.0134 c -0.058,0.008 -0.1182,0.0141 -0.1824,0.018 m 0.9504,-0.33373 0.041,-0.0596 0.014,0.0296 -0.055,0.03 m 0.1153,-0.13158 -0.018,-0.0339 c 0.015,-0.0342 0.027,-0.0702 0.036,-0.10654 l 0.054,0.10301 z m 0.4505,-0.22966 -0.087,-0.16334 c 0,0 -0.081,0.0557 -0.014,0.18063 l 0.038,0.0734 c -0.067,0.0367 -0.134,0.0723 -0.1982,0.10689 l -0.044,-0.0797 c -0.035,-0.0677 -0.078,-0.0889 -0.1104,-0.0935 0.01,-0.0466 0.014,-0.0945 0.014,-0.14393 v -0.0762 h 0.3947 l 0.084,0.15734 z m 0.1831,-0.042 -0.04,-0.0716 c -0.025,-0.0462 -0.053,-0.0706 -0.079,-0.0822 h 0.063 l 0.086,-0.0512 c 0.04,0.0141 0.08,0.0261 0.1224,0.0353 l 0.036,0.0681 c -0.061,0.0328 -0.1241,0.0667 -0.188,0.1016 m 1.4365,-0.91017 v -0.002 -3.5e-4 z m 0.5701,-0.0981 c 0.049,0 0.089,0.0402 0.089,0.0892 0,0.0494 -0.04,0.0893 -0.089,0.0893 -0.049,0 -0.089,-0.0399 -0.089,-0.0893 0,-0.049 0.04,-0.0892 0.089,-0.0892" />
  </g>
</svg>
