<?xml version="1.0" encoding="UTF-8" standalone="no"?>
<!-- Created with Inkscape (http://www.inkscape.org/) -->

<svg
   width="15.4441mm"
   height="10.34479mm"
   viewBox="0 0 15.4441 10.34479"
   version="1.1"
   id="svg1"
   xml:space="preserve"
   sodipodi:docname="inkporter-svg-1c0we4bz.svg"
   xmlns:inkscape="http://www.inkscape.org/namespaces/inkscape"
   xmlns:sodipodi="http://sodipodi.sourceforge.net/DTD/sodipodi-0.dtd"
   xmlns:xlink="http://www.w3.org/1999/xlink"
   xmlns="http://www.w3.org/2000/svg"
   xmlns:svg="http://www.w3.org/2000/svg"><sodipodi:namedview
     id="namedview1"
     pagecolor="#ffffff"
     bordercolor="#666666"
     borderopacity="1.0"
     inkscape:showpageshadow="2"
     inkscape:pageopacity="0.0"
     inkscape:pagecheckerboard="0"
     inkscape:deskcolor="#d1d1d1"
     inkscape:document-units="mm"
     inkscape:zoom="0.72782688"
     inkscape:cx="941.84485"
     inkscape:cy="805.82349"
     inkscape:window-width="2560"
     inkscape:window-height="1377"
     inkscape:window-x="1912"
     inkscape:window-y="-8"
     inkscape:window-maximized="1"
     inkscape:current-layer="layer1"><inkscape:page
       x="-109.4356"
       y="-123.82353"
       width="210"
       height="297"
       id="page1"
       margin="0"
       bleed="0" /></sodipodi:namedview><defs
     id="defs1"></defs><g
     inkscape:label="Layer 1"
     inkscape:groupmode="layer"
     id="layer1"
     transform="translate(-109.4356,-123.82353)"><path
       d="m 112.4236,134.1414 -0.01,-0.0156 h -0.034 -0.034 l -0.013,-0.0156 -0.013,-0.0156 h -0.018 -0.018 l -0.013,-0.0156 -0.013,-0.0156 h -0.018 -0.018 l -0.013,-0.0156 -0.013,-0.0156 h -0.013 -0.013 l -0.01,-0.0156 -0.01,-0.0156 h -0.022 -0.022 l -0.01,-0.0156 -0.01,-0.0156 h -0.018 -0.018 l -0.02,-0.0154 -0.02,-0.0154 -0.024,-4.7e-4 -0.024,-4.7e-4 -0.01,-0.0156 -0.01,-0.0156 h -0.024 -0.024 l -0.013,-0.0156 -0.013,-0.0156 h -0.018 -0.019 l -0.01,-0.0156 -0.01,-0.0156 h -0.022 -0.022 l -0.01,-0.0156 -0.01,-0.0156 h -0.029 -0.03 l -0.016,-0.0156 -0.016,-0.0156 h -0.012 -0.012 l -0.028,-0.0148 -0.028,-0.0148 -0.016,-0.006 -0.016,-0.006 -0.031,-0.0206 -0.031,-0.0206 -0.024,-0.0103 -0.024,-0.0103 v -0.0108 -0.0107 h -0.014 -0.014 l -0.013,-0.0156 -0.013,-0.0156 h -0.03 -0.03 l -0.01,-0.0156 -0.01,-0.0157 h -0.029 -0.029 l -0.01,-0.0156 -0.01,-0.0156 h -0.025 -0.025 l -0.01,-0.0156 -0.01,-0.0156 h -0.02 -0.02 l -0.013,-0.0156 -0.013,-0.0156 h -0.013 -0.013 l -0.013,-0.0156 -0.013,-0.0156 h -0.029 -0.029 l -0.016,-0.0156 -0.016,-0.0156 h -0.015 -0.015 l -0.013,-0.0156 -0.013,-0.0156 h -0.018 -0.018 l -0.013,-0.0156 -0.013,-0.0156 h -0.02 -0.02 v -0.0157 -0.0156 h -0.011 -0.011 l -0.016,-0.0156 -0.016,-0.0156 h -0.025 -0.025 l -0.016,-0.0156 -0.016,-0.0156 h -0.022 -0.022 l -0.01,-0.0156 -0.01,-0.0156 h -0.025 -0.025 l -0.01,-0.0156 -0.01,-0.0156 h -0.018 -0.019 l -0.012,-0.0146 -0.012,-0.0146 -0.026,-0.007 -0.026,-0.007 v -0.0103 -0.0103 h -0.019 -0.019 l -0.02,-0.0154 -0.02,-0.0154 -0.024,-4.7e-4 -0.024,-4.7e-4 -0.01,-0.0156 -0.01,-0.0156 h -0.024 -0.024 l -0.013,-0.0156 -0.013,-0.0156 h -0.025 -0.025 v -0.011 -0.011 l -0.031,-0.011 -0.031,-0.0109 v -0.008 -0.008 l -0.024,-0.006 -0.024,-0.006 -0.012,-0.0264 -0.012,-0.0264 h -0.015 -0.015 l -0.017,-0.0254 -0.017,-0.0254 -0.058,-0.059 -0.058,-0.0591 v -0.003 -0.003 l -0.03,-0.0326 -0.03,-0.0327 -0.01,-0.083 -0.01,-0.083 -0.011,-0.0201 -0.011,-0.0201 v -0.0596 -0.0596 l -0.026,-0.0242 -0.026,-0.0242 v -0.0354 -0.0355 l -0.018,-0.0162 -0.018,-0.0162 -0.08,-0.004 -0.079,-0.004 -0.017,-0.0142 -0.017,-0.0142 v -0.10716 -0.10715 l 0.016,-0.013 0.016,-0.013 v -0.0346 -0.0346 l 0.016,-0.0156 0.016,-0.0156 v -0.0203 -0.0203 l 0.016,-0.013 0.016,-0.013 v -0.0199 -0.0199 l 0.016,-0.006 0.016,-0.006 v -0.0336 -0.0336 l -0.027,-0.025 -0.027,-0.025 v -0.0259 -0.0258 l 0.037,-0.009 0.037,-0.009 0.01,-0.0148 0.01,-0.0148 h 0.013 0.013 l 0.027,-0.0287 0.026,-0.0287 0.01,-0.0183 0.01,-0.0183 h 0.011 0.011 v -0.0358 -0.0358 l 0.016,-0.0162 0.016,-0.0162 0.014,-0.008 0.014,-0.008 0.01,-0.0235 0.01,-0.0235 h -0.027 -0.027 v 0.0103 0.0103 l -0.029,0.007 -0.029,0.007 -0.011,0.0148 -0.011,0.0148 -0.031,-0.003 -0.031,-0.003 v -0.0156 -0.0156 l 0.052,-0.0731 0.052,-0.0731 0.013,-0.0196 0.013,-0.0196 0.01,-0.0122 0.01,-0.0122 0.018,-0.0343 0.018,-0.0344 v -0.0116 -0.0116 l 0.028,-0.0293 0.028,-0.0293 h 0.05 0.05 l 0.01,-0.0111 0.01,-0.0111 0.023,-0.01 0.022,-0.01 0.021,-0.0131 0.021,-0.0131 0.014,-0.0131 0.014,-0.0131 h 0.02 0.02 l 0.043,-0.0314 0.043,-0.0314 h 0.013 0.013 l 0.013,-0.0157 0.013,-0.0156 h 0.03 0.03 l 0.01,-0.0156 0.01,-0.0156 h 0.013 0.013 l 0.01,-0.0631 0.01,-0.0631 v -0.16589 -0.16589 l 0.016,-0.0163 0.016,-0.0163 0.061,-0.004 0.061,-0.004 0.065,-10e-4 0.065,-0.001 v -0.0151 -0.0151 l 0.023,-0.0163 0.023,-0.0163 h 0.051 0.051 l 0.042,0.0422 0.042,0.0422 v 0.0596 l 0.01,0.0597 0.011,0.0231 0.011,0.0231 0.022,-0.0152 0.022,-0.0152 h 0.022 0.022 l 0.026,-0.0309 0.026,-0.0309 0.012,-4.8e-4 0.012,-4.7e-4 0.01,-0.0156 0.01,-0.0156 h 0.033 0.033 l 0.029,-0.0314 0.029,-0.0314 h 0.042 0.042 l 0.013,-0.0156 0.013,-0.0156 h 0.015 0.015 l 0.01,-0.0156 0.01,-0.0156 h 0.015 0.015 l 0.016,-0.0156 0.016,-0.0156 h 0.02 0.02 v -0.009 -0.009 l 0.029,-0.007 0.029,-0.007 0.016,-0.0133 0.016,-0.0133 0.075,-0.0356 0.075,-0.0356 v -0.0175 l 0.01,-0.0175 0.042,-0.0203 0.042,-0.0203 0.051,0.0245 0.051,0.0246 10e-4,8e-5 0.001,8e-5 0.011,-0.0287 0.011,-0.0287 -7e-4,-0.0452 -7e-4,-0.0452 0.014,-0.0138 0.014,-0.0138 0.049,-0.005 0.048,-0.005 0.023,0.006 0.023,0.006 0.01,0.0288 v 0.0288 l 0.085,0.007 0.085,0.007 0.063,-0.002 0.063,-0.002 0.06,0.008 0.06,0.008 0.001,-0.0195 0.001,-0.0195 v -0.0357 -0.0357 l -0.015,-0.0147 -0.015,-0.0147 v -0.0241 -0.0241 l -0.016,-0.013 -0.016,-0.013 v -0.0103 -0.0103 l 0.024,-0.0248 0.024,-0.0248 0.034,-2.4e-4 0.034,-2.3e-4 v 0.0156 0.0156 h 0.016 0.016 v 0.0157 0.0156 h 0.011 0.011 l 0.01,0.0183 0.01,0.0183 0.018,0.0193 0.018,0.0192 0.022,-0.0218 0.022,-0.0218 h 0.025 0.025 l 0.017,-0.0607 0.017,-0.0607 2e-4,-0.0307 1e-4,-0.0307 0.01,-0.0113 0.01,-0.0113 0.052,-0.0248 0.052,-0.0248 0.016,-0.0123 0.016,-0.0123 0.037,-0.005 0.037,-0.005 0.023,-0.007 0.023,-0.007 0.019,0.0192 0.019,0.0192 0.044,-0.0106 0.044,-0.0106 0.061,0.005 0.061,0.005 v 0.0263 l 0.01,0.0263 0.017,0.0241 0.017,0.0242 0.03,-0.003 0.03,-0.003 v -0.0241 -0.0241 l -0.012,-0.0144 -0.012,-0.0144 0.022,-0.0216 0.022,-0.0216 h 0.035 0.034 l 0.013,0.0126 0.013,0.0125 v 0.0165 0.0165 l 0.042,-0.004 0.042,-0.004 0.01,0.0167 0.01,0.0167 h 0.034 0.034 l 0.01,-0.0156 0.01,-0.0156 h 0.016 0.016 v -0.0104 -0.0104 h 0.029 0.029 l 0.011,0.0107 0.011,0.0108 0.1401,-0.003 0.1401,-0.003 v -0.0209 -0.0209 l 0.019,-0.0423 0.019,-0.0422 0.025,-0.0134 0.025,-0.0134 0.035,0.003 0.035,0.003 0.023,0.0418 0.023,0.0418 0.3424,0.002 0.3424,0.002 0.01,0.008 0.01,0.008 0.089,-0.001 0.089,-0.001 0.034,-0.008 0.034,-0.008 0.029,0.0188 0.029,0.0188 0.1126,0.005 0.1127,0.005 0.022,-0.0197 0.022,-0.0197 0.095,0.002 0.095,0.002 0.01,0.0156 0.01,0.0156 0.015,0.0154 0.015,0.0154 v 0.0112 0.0111 h 0.024 0.024 l 0.013,0.0125 0.013,0.0125 -5e-4,-0.0152 -5e-4,-0.0152 -0.015,-0.0203 -0.015,-0.0203 v -0.027 -0.027 l -0.021,-0.018 -0.021,-0.018 h -0.019 -0.019 l -0.02,-0.0153 -0.02,-0.0154 -0.095,-4.7e-4 -0.096,-4.7e-4 -0.01,-0.0156 -0.01,-0.0156 h -0.019 -0.019 l -0.02,-0.0154 -0.02,-0.0154 -0.032,-4.7e-4 -0.032,-4.7e-4 -0.02,-0.0154 -0.02,-0.0154 -0.055,-4.7e-4 -0.055,-4.7e-4 -0.01,-0.0156 -0.01,-0.0156 h -0.012 -0.012 l -0.017,-0.0468 -0.017,-0.0469 0.014,-0.0137 0.014,-0.0137 0.01,-0.0226 0.01,-0.0227 -0.022,-0.0184 -0.022,-0.0184 v -0.009 -0.009 l -0.014,-0.0137 -0.014,-0.0137 -0.033,-0.007 -0.033,-0.007 v -0.01 -0.01 h -0.041 -0.04 l -0.013,-0.0156 -0.013,-0.0156 h -0.03 -0.03 l -0.03,-0.0296 -0.03,-0.0296 -0.7093,-0.007 -0.7093,-0.007 -0.036,-0.0105 -0.036,-0.0105 h -0.6513 -0.6512 l -0.016,0.0159 -0.016,0.0159 -0.1684,-0.003 -0.1684,-0.003 -0.015,-0.0269 -0.015,-0.0269 0.015,-0.0305 0.015,-0.0305 -0.011,-0.0297 -0.011,-0.0297 0.02,-0.0146 0.02,-0.0147 h 0.1527 0.1527 l 0.02,0.0154 0.02,0.0154 0.4337,-2.4e-4 0.4336,-2.4e-4 0.052,-0.01 0.052,-0.01 0.9143,-0.007 0.9143,-0.007 0.012,-0.0146 0.012,-0.0146 0.051,-0.0277 0.051,-0.0277 0.037,-0.008 0.037,-0.008 -0.043,-0.001 -0.043,-0.001 -0.023,-0.0242 -0.023,-0.0242 v -0.0207 -0.0208 l 0.013,-0.0125 0.013,-0.0125 h 0.1744 0.1744 l 0.01,-0.0156 0.01,-0.0156 h 0.012 0.012 l 0.013,-0.0131 0.013,-0.0131 0.01,-0.0167 0.01,-0.0167 0.036,-0.0173 0.036,-0.0173 h 0.032 0.032 l 0.019,-0.0191 0.019,-0.0191 0.01,-0.0149 0.01,-0.0149 0.014,-0.0232 0.014,-0.0232 0.027,-0.0212 0.027,-0.0212 h 0.077 0.077 l 0.026,-0.0314 0.026,-0.0314 h 0.013 0.013 v -0.01 -0.01 l 0.023,-0.007 0.023,-0.007 0.026,-0.0299 0.026,-0.0299 h 0.01 0.01 l 0.028,-0.0256 0.028,-0.0257 0.042,-0.035 0.042,-0.035 0.043,-0.0334 0.043,-0.0335 h 0.01 v 0 l 0.033,-0.0288 0.033,-0.0287 0.038,-0.034 0.039,-0.0339 0.01,-2.4e-4 0.01,-2.3e-4 0.018,-0.0397 0.018,-0.0397 5e-4,-0.0358 4e-4,-0.0358 0.015,-0.0418 0.015,-0.0418 7e-4,-0.047 7e-4,-0.047 0.015,-0.0418 0.015,-0.0418 1e-4,-0.0235 2e-4,-0.0235 0.021,-0.0209 0.021,-0.0209 h 0.052 0.052 l 0.029,0.0114 0.029,0.0114 0.089,0.0152 0.089,0.0152 0.096,0.0127 0.096,0.0127 0.01,0.008 0.01,0.008 0.058,-1.3e-4 0.058,-1.2e-4 0.042,-0.015 0.042,-0.015 0.044,-4.6e-4 0.044,-4.8e-4 v -0.0198 -0.0198 l -0.016,-0.006 -0.016,-0.006 v -0.0989 -0.0989 l 0.01,-0.0259 0.01,-0.0259 0.02,-0.006 0.02,-0.006 0.012,-0.0254 0.012,-0.0254 0.04,-0.007 0.04,-0.007 0.01,-0.008 0.01,-0.008 0.1442,-0.005 0.1442,-0.005 0.013,0.0119 0.012,0.0119 0.029,0.0184 0.029,0.0184 v 0.0137 0.0137 l 0.024,0.0112 0.024,0.0112 0.01,0.11842 0.01,0.1184 -0.016,0.0117 -0.016,0.0117 v 0.0171 0.0171 h 0.084 0.084 v -0.0201 -0.0201 l 0.016,-0.0156 0.016,-0.0156 v -0.0778 -0.0778 l 0.016,-0.013 0.016,-0.013 v -1.35708 -1.35706 h -0.011 -0.01 v -0.0317 -0.0317 l 0.023,-0.008 0.023,-0.008 0.024,0.005 0.024,0.005 0.01,0.0203 0.01,0.0203 -0.016,0.0252 -0.017,0.0252 v 1.34716 1.34715 l 0.014,0.005 0.014,0.005 0.01,0.0609 0.01,0.0609 0.001,0.0444 0.001,0.0444 0.018,0.005 0.018,0.005 0.3692,0.005 0.3692,0.005 0.021,0.006 0.021,0.006 0.026,0.0325 0.026,0.0325 v 0.1624 l 0.01,0.16241 0.01,0.0131 0.01,0.0131 h 0.1137 0.1137 l 0.01,0.0105 0.01,0.0104 h 0.066 0.066 l 0.038,-0.0333 0.038,-0.0333 v -0.0497 -0.0497 l -0.01,-0.006 -0.01,-0.006 -0.011,-0.0414 -0.011,-0.0414 h -0.01 -0.01 v -0.0674 -0.0674 l 0.014,-0.008 0.014,-0.008 0.012,-0.12261 0.012,-0.12262 -0.013,-0.021 -0.013,-0.021 0.019,-0.0346 0.019,-0.0346 -7e-4,-0.28157 -7e-4,-0.28158 v -0.0403 l 0.01,-0.0403 0.011,-0.0114 0.011,-0.0114 v -0.59758 -0.59744 l 0.016,-0.0137 0.017,-0.0137 0.01,0.015 0.01,0.015 1e-4,0.59215 2e-4,0.59214 0.071,0.007 0.071,0.006 0.084,0.0111 0.084,0.0111 0.037,-0.003 0.037,-0.003 v -1.13314 -1.13313 l -0.011,-0.0105 -0.011,-0.0105 v -0.0182 -0.0182 l 0.022,-0.0155 0.022,-0.0155 0.025,0.0114 0.025,0.0114 v 0.0186 0.0186 l -0.01,0.007 -0.011,0.007 v 1.14915 1.14914 l 0.047,0.0457 0.047,0.0457 v 0.006 0.006 l 0.034,0.0348 0.034,0.0348 0.042,0.0507 0.042,0.0507 v 0.0141 0.0142 h 0.016 0.016 l -0.01,0.17017 -0.01,0.17016 -0.01,0.0545 -0.01,0.0545 -7e-4,0.28674 -7e-4,0.28675 0.023,0.0227 0.023,0.0226 0.016,-0.0163 0.016,-0.0163 0.014,-0.0395 0.014,-0.0395 -0.01,-0.0211 -0.01,-0.0211 v -0.10449 l -0.01,-0.10449 -0.015,-0.0888 -0.015,-0.0888 0.01,-0.19852 0.01,-0.19853 -7e-4,-0.0627 -7e-4,-0.0627 -0.01,-0.0882 -0.01,-0.0882 v -0.95174 -0.95173 l 0.02,-0.0244 0.02,-0.0243 0.1256,-0.005 0.1257,-0.005 0.018,0.0274 0.018,0.0274 -3e-4,1.35597 -2e-4,1.35597 -0.027,0.0554 -0.027,0.0554 0.011,0.0139 0.012,0.0139 -0.001,0.11317 -0.001,0.11318 0.016,0.0522 0.016,0.0522 1e-4,0.0218 1e-4,0.0218 0.039,0.0278 0.039,0.0278 0.02,-0.0199 0.02,-0.0199 v -0.0686 -0.0686 l 0.011,-0.0138 0.011,-0.0138 1e-4,-0.40647 2e-4,-0.40647 -0.01,-0.011 -0.01,-0.011 -0.01,-0.0229 v -0.0229 l 0.017,-0.0242 0.017,-0.0242 v -1.07617 -1.07617 l 0.015,-0.0169 0.015,-0.0169 0.1154,-0.007 0.1155,-0.007 0.015,0.0123 0.015,0.0123 v 1.38875 1.38875 l -0.016,0.006 -0.016,0.006 v 0.17001 0.17001 l 0.016,0.013 0.016,0.013 v 0.0562 0.0562 h 0.015 0.015 l 0.016,0.0164 0.016,0.0164 v 0.0245 0.0245 l -0.042,0.007 -0.042,0.007 -0.01,0.007 v 0.007 l -0.01,0.11706 -0.01,0.11707 0.02,6.8e-4 0.02,6.8e-4 0.1253,-0.001 0.1254,-10e-4 0.046,0.0238 0.046,0.0238 0.022,0.0386 0.022,0.0385 -0.015,0.0346 -0.015,0.0346 -0.01,0.10751 -0.01,0.10751 -0.016,0.01 -0.016,0.01 -0.111,1.3e-4 -0.1111,1.3e-4 -0.013,0.0154 -0.013,0.0154 0.01,0.097 0.01,0.097 0.01,0.0924 0.01,0.0924 -0.012,0.0116 -0.012,0.0116 v 0.15402 0.15403 l -0.013,0.008 -0.013,0.008 -0.5829,-0.002 -0.5829,-0.002 v 0.0156 0.0156 h -0.016 -0.016 v 0.0156 0.0156 h -0.016 -0.016 v 0.0156 0.0157 h -0.014 -0.014 l -0.01,0.0209 v 0.0209 h 0.03 0.03 l 0.01,0.0141 0.01,0.0142 0.063,0.008 0.063,0.008 0.073,0.003 0.073,0.003 0.072,0.006 0.072,0.006 0.014,-0.0114 0.014,-0.0114 0.021,0.0112 0.021,0.0112 h 0.056 0.056 l 0.012,-0.0122 0.012,-0.0122 0.027,0.0122 0.027,0.0122 0.138,-1.2e-4 0.1379,-1.3e-4 0.044,-0.0152 0.044,-0.0152 0.076,0.005 0.076,0.005 0.014,0.0116 0.014,0.0116 v 0.0457 0.0457 h 0.01 0.01 l 0.02,-0.0154 0.02,-0.0154 0.043,-4.7e-4 0.043,-4.7e-4 0.013,-0.0156 0.013,-0.0156 h 0.01 0.01 l 0.021,-0.0209 0.021,-0.0209 v -0.005 -0.005 l 0.021,-0.0209 0.021,-0.0209 h 0.01 0.01 l 0.01,-0.0219 0.01,-0.0219 0.02,-0.0196 0.02,-0.0196 0.025,-0.006 0.025,-0.006 0.039,-0.0463 0.039,-0.0463 h 0.013 0.013 l 0.023,-0.0314 0.023,-0.0314 h 0.015 0.015 v -0.0156 -0.0156 h 0.011 0.011 l 0.041,-0.0261 0.041,-0.0261 0.092,-8e-5 0.092,-8e-5 0.03,-0.0156 0.03,-0.0156 h 0.045 0.045 l 0.013,0.0156 0.013,0.0156 h 0.1176 0.1177 l 0.037,0.0155 0.037,0.0155 0.01,0.0106 0.01,0.0106 h 0.019 0.019 l 0.013,0.0156 0.013,0.0156 h 0.018 0.018 l 0.013,0.0152 0.013,0.0152 0.07,0.003 0.07,0.003 v 0.0758 0.0757 l 0.075,4.7e-4 0.075,4.8e-4 0.068,0.006 0.068,0.006 0.017,-1.2e-4 0.017,-1.2e-4 0.047,-0.0216 0.047,-0.0216 h 0.029 0.028 l 0.019,0.0176 0.019,0.0175 0.012,-0.0118 0.012,-0.0118 0.03,0.0212 0.03,0.0212 v 0.0254 0.0254 h 0.01 0.01 l 0.017,0.0448 0.017,0.0448 v 0.0275 0.0276 l 0.01,0.0165 0.01,0.0165 0.033,-4.6e-4 0.033,-4.7e-4 0.019,-0.0146 0.019,-0.0147 v -0.047 -0.047 l 0.023,-0.032 0.023,-0.032 h 0.021 0.021 l 0.025,0.0235 0.025,0.0235 4e-4,0.0522 5e-4,0.0523 0.015,0.0203 0.015,0.0203 v 0.0826 0.0826 l -0.019,0.005 -0.019,0.005 -0.013,0.0202 -0.013,0.0202 h 0.025 0.025 l 0.013,0.0156 0.013,0.0156 h 0.036 0.036 l 0.01,0.0156 0.01,0.0156 h 0.034 0.034 l 0.013,-0.0156 0.013,-0.0156 h 0.019 0.019 l 0.014,0.0139 0.014,0.0139 0.052,0.007 0.052,0.007 0.01,0.0103 0.01,0.0103 h 0.055 0.055 l 0.039,0.0148 0.039,0.0148 0.067,0.006 0.067,0.006 0.037,0.0117 0.037,0.0117 0.016,0.008 0.016,0.008 v 0.0225 0.0225 l -0.016,0.0329 -0.016,0.0329 -1e-4,0.0585 -10e-5,0.0585 -0.016,0.0299 -0.016,0.0299 v 0.0589 l -10e-5,0.0589 -0.016,0.0299 -0.016,0.0299 v 0.025 0.0249 h 0.024 0.024 l 0.023,0.0162 0.023,0.0163 v 0.009 0.009 l 0.031,0.0343 0.031,0.0344 v 0.0193 0.0193 l 0.013,0.0129 0.013,0.0129 0.018,0.007 0.018,0.007 v 0.0252 0.0252 l -0.016,0.013 -0.016,0.013 -5e-4,0.0745 -5e-4,0.0745 -0.015,0.0418 -0.015,0.0418 -2e-4,0.0575 -2e-4,0.0575 -0.016,0.0299 -0.016,0.0299 v 0.0514 0.0514 l -0.016,0.0375 -0.016,0.0376 -1e-4,0.0484 -1e-4,0.0484 -0.016,0.0299 -0.016,0.0299 -4e-4,0.0589 -5e-4,0.0589 -0.015,0.0418 -0.015,0.0418 -1e-4,0.0496 -2e-4,0.0496 -0.018,0.0428 -0.018,0.0428 -0.078,-0.004 -0.078,-0.004 v -0.0128 -0.0128 h -0.05 -0.05 l -0.013,-0.0156 -0.013,-0.0156 -0.059,-8e-5 -0.059,-8e-5 -0.03,-0.0156 -0.03,-0.0156 h -0.029 -0.029 v 0.0126 0.0125 l -0.031,6.8e-4 -0.031,6.8e-4 v 0.0259 0.0259 l 0.01,0.003 0.01,0.003 v 0.02 0.02 h -0.01 -0.011 v 0.0156 0.0156 h -0.016 -0.016 v 0.0366 0.0366 h 0.016 0.016 v 0.0101 0.0101 l 0.029,0.0298 0.029,0.0298 0.05,0.055 0.05,0.055 v 0.01 0.01 l 0.047,0.045 0.047,0.045 v 0.0122 0.0123 h 0.01 0.011 v 0.014 0.014 l -0.024,0.011 -0.024,0.011 -0.019,-0.0106 -0.019,-0.0105 -0.087,-0.0876 -0.087,-0.0876 h -0.01 -0.01 l 5e-4,0.0183 5e-4,0.0183 0.015,0.0203 0.015,0.0203 v 0.0751 0.0751 l -0.016,0.013 -0.016,0.013 v 0.0175 0.0176 l -0.012,0.0116 -0.012,0.0116 -0.014,0.0244 -0.014,0.0244 -0.011,0.0235 -0.011,0.0235 h -0.011 -0.011 v 0.0196 0.0196 l -0.016,0.013 -0.016,0.013 v 0.0196 0.0196 h 0.026 0.027 l 0.01,0.0157 0.01,0.0156 h 0.01 0.01 l 0.036,0.0392 0.036,0.0392 v 0.009 l 1e-4,0.009 0.016,0.0157 0.016,0.0156 v 0.0205 0.0205 l -0.016,0.006 -0.016,0.006 v 0.0295 0.0294 l -0.016,0.0156 -0.016,0.0156 v 0.0112 0.0112 l -0.021,0.0209 -0.021,0.0209 h -0.01 -0.01 l -0.012,0.0171 -0.013,0.017 h -0.085 -0.085 l -0.041,-0.0407 -0.041,-0.0407 -0.01,-0.0208 v -0.0207 l -0.001,0.0275 -10e-4,0.0275 -0.016,0.013 -0.016,0.013 v 0.0148 0.0147 l -0.016,0.006 -0.016,0.006 v 0.1274 0.12741 l -0.012,0.0125 -0.013,0.0125 h -0.025 -0.025 l -0.02,-0.0235 -0.02,-0.0235 -5e-4,-0.11755 -5e-4,-0.11756 h -0.015 -0.015 l -0.01,0.0131 -0.01,0.0131 -0.021,0.0131 -0.021,0.0131 -0.024,0.0101 -0.024,0.0101 v 0.0107 0.0107 h -0.014 -0.014 l -0.013,0.0156 -0.013,0.0156 h -0.062 -0.062 l -0.028,0.0176 -0.028,0.0176 -0.028,0.0294 -0.028,0.0294 h -0.01 -0.01 l -0.01,0.0156 -0.01,0.0156 h -0.022 -0.022 l -0.01,0.0157 -0.01,0.0156 h -0.014 -0.014 l -0.01,0.0156 -0.01,0.0156 h -0.014 -0.014 l -0.05,0.047 -0.05,0.047 v 0 0 l -0.034,0.0314 -0.034,0.0314 h -0.014 -0.014 l -0.01,0.0156 -0.01,0.0157 h -0.014 -0.013 l -0.01,0.0156 -0.01,0.0156 h -0.022 -0.022 l -0.01,0.0156 -0.01,0.0156 h -0.01 -0.01 l -0.026,0.0279 -0.026,0.0279 -0.023,0.0137 -0.023,0.0137 -0.018,0.007 -0.018,0.007 v 0.0144 0.0145 h -0.015 -0.014 l -0.01,0.0156 -0.01,0.0156 h -0.015 -0.015 l -0.01,0.0156 -0.01,0.0156 h -0.019 -0.019 l -0.046,0.047 -0.046,0.047 h -0.014 -0.014 l -0.01,0.0156 -0.01,0.0156 h -0.015 -0.015 v 0.0108 0.0107 l -0.024,0.0101 -0.024,0.0101 -0.021,0.0131 -0.021,0.0131 -0.01,0.0131 -0.01,0.0131 h -0.011 -0.011 l -0.016,0.0156 -0.016,0.0156 h -0.026 -0.026 l -0.01,0.0156 -0.01,0.0156 h -0.034 -0.034 l -0.013,0.0156 -0.013,0.0156 h -0.045 -0.045 v 0.0107 0.0107 l -0.042,0.007 -0.042,0.007 -0.01,0.0141 -0.01,0.0141 h -4.6228 -4.6234 z m 0.587,-0.15042 0.042,-0.008 0.013,-0.008 0.013,-0.008 -7e-4,-0.0438 -7e-4,-0.0438 v 0.0131 l -0.01,0.0131 h -0.016 -0.016 l -0.016,0.0156 -0.016,0.0156 h -0.026 -0.026 l -0.016,0.0156 -0.016,0.0156 -0.023,2.4e-4 -0.023,2.3e-4 0.026,0.0208 0.026,0.0208 0.021,-0.006 0.021,-0.006 z m 1.0541,0.0135 0.016,-0.006 v -0.0146 -0.0146 h -0.03 -0.03 l -0.012,-0.0145 -0.012,-0.0145 -0.026,-0.005 -0.026,-0.005 v 0.0224 0.0224 l 0.044,0.0167 0.044,0.0167 0.01,0.001 0.01,0.001 z m 1.1437,-0.0146 h 0.031 l 0.016,-0.0232 0.016,-0.0232 v -0.0688 -0.0688 l 0.021,-0.0229 0.021,-0.0229 h 0.02 0.02 l 0.016,0.0165 0.016,0.0164 v 0.0564 0.0564 l 0.016,0.0346 0.016,0.0346 0.041,0.0128 0.041,0.0128 0.058,-0.007 0.058,-0.007 0.015,-0.0293 0.015,-0.0293 v -0.023 -0.023 l -0.078,-0.0769 -0.078,-0.0768 v -0.0208 -0.0208 h -0.011 -0.011 l -0.011,-0.0314 -0.011,-0.0314 h -0.01 -0.01 v -0.0144 -0.0144 l -0.016,-0.013 -0.016,-0.013 -5e-4,-0.0379 -4e-4,-0.0379 -0.015,-0.0203 -0.015,-0.0203 -2e-4,-0.11556 -1e-4,-0.11555 -0.03,-0.0339 -0.03,-0.0339 h -0.01 -0.01 l -0.026,-0.0309 -0.026,-0.0309 -0.128,-4.7e-4 -0.128,-4.7e-4 v 0.0196 0.0196 l 0.016,0.013 0.016,0.013 -1e-4,0.13716 v 0.13717 l -0.016,0.0299 -0.016,0.0299 v 0.0341 0.0341 l -0.016,0.013 -0.016,0.013 v 0.0183 0.0183 l -0.016,0.013 -0.016,0.013 v 0.0148 0.0147 l -0.016,0.006 -0.016,0.006 v 0.0186 0.0186 l -0.06,0.0614 -0.06,0.0614 -0.038,0.0297 -0.038,0.0297 -0.01,0.018 v 0.018 l 0.012,0.0148 0.012,0.0148 0.024,0.0135 0.024,0.0135 0.061,-0.007 0.061,-0.007 0.01,-0.007 0.01,-0.007 0.013,-0.0575 0.013,-0.0575 0.01,-0.047 0.01,-0.047 0.032,-0.003 0.032,-0.003 0.018,0.0268 0.018,0.0268 0.01,0.0821 0.01,0.0821 0.048,0.0154 0.048,0.0154 0.018,-0.009 0.018,-0.009 z m 0.6831,0.0101 -0.023,-0.009 v -0.0108 -0.0108 l -0.039,6.8e-4 -0.039,6.8e-4 0.015,0.006 0.015,0.006 0.014,0.014 0.014,0.014 0.033,-6.8e-4 0.033,-6.8e-4 z m 0.3965,6.8e-4 0.024,-0.01 0.029,-0.006 0.029,-0.006 v -0.0213 -0.0213 l -0.023,0.0163 -0.023,0.0163 h -0.034 -0.034 v 0.015 0.015 l -0.029,0.004 -0.029,0.004 0.034,10e-4 0.034,0.001 z m 0.3855,-0.0112 h 0.039 l 0.01,-0.0366 0.01,-0.0366 h 0.01 0.01 v -0.062 -0.062 l 0.016,-0.0164 0.016,-0.0165 h 0.025 0.025 l 0.016,0.0165 0.016,0.0164 v 0.0564 0.0564 l 0.017,0.0365 0.017,0.0365 0.045,0.01 0.045,0.01 0.029,-0.005 0.029,-0.005 0.024,-0.005 0.024,-0.005 10e-5,-0.0233 1e-4,-0.0233 0.016,-0.0299 0.016,-0.0299 v -0.0403 -0.0403 l 0.025,-0.0161 0.025,-0.0161 0.016,0.006 0.016,0.006 0.016,0.0348 0.016,0.0347 v 0.0525 0.0524 l 0.01,0.0165 0.01,0.0165 h 0.019 0.019 l 0.01,0.0114 0.01,0.0114 0.048,-0.007 0.048,-0.007 0.033,-0.005 0.033,-0.005 0.01,-0.0835 0.01,-0.0835 0.017,-0.0253 0.017,-0.0252 h 0.023 0.023 l 0.013,0.0125 0.013,0.0126 v 0.0332 0.0332 l 0.016,0.0375 0.016,0.0375 v 0.0252 0.0252 l 0.024,0.006 0.024,0.006 0.07,1.3e-4 0.07,1.2e-4 0.021,-0.0229 0.021,-0.0229 v -0.0137 -0.0137 l -0.021,-0.0209 -0.021,-0.0209 v 0 0 l -0.039,-0.0339 -0.039,-0.034 -0.012,-0.0138 -0.012,-0.0138 -0.018,-0.0201 -0.018,-0.0201 v -0.009 -0.009 l -0.016,-0.013 -0.016,-0.013 v -0.0185 -0.0185 l -0.016,-0.006 -0.016,-0.006 v -0.016 -0.016 h -0.01 -0.01 l -0.01,-0.0287 -0.01,-0.0287 -0.014,-0.0322 -0.014,-0.0322 v -0.0984 l -0.01,-0.0984 -0.011,-0.0492 -0.011,-0.0493 -0.021,-0.0213 -0.021,-0.0213 h -0.01 -0.01 v -0.0156 -0.0156 h -0.02 -0.02 l -0.014,-0.0131 -0.014,-0.0131 -0.3161,-0.003 -0.3161,-0.003 5e-4,0.009 5e-4,0.009 0.015,0.0203 0.015,0.0203 -5e-4,0.1469 -5e-4,0.1469 -0.015,0.0261 -0.015,0.0261 -4e-4,0.0332 -5e-4,0.0332 -0.016,0.0156 -0.016,0.0156 v 0.0204 0.0203 l -0.015,0.0122 -0.015,0.0122 -0.01,0.0257 -0.01,0.0257 h -0.01 -0.01 v 0.0116 0.0116 l -0.074,0.0737 -0.074,0.0736 0.01,0.0167 0.01,0.0167 v 0.0325 l 0.01,0.0324 0.049,0.0156 0.049,0.0156 0.01,-0.009 0.01,-0.009 z m 1.8459,0.004 0.044,-0.007 v -0.025 -0.025 l -0.018,4.7e-4 -0.018,4.6e-4 -0.02,0.0154 -0.02,0.0154 h -0.024 -0.024 l -0.022,0.0221 -0.022,0.0221 0.04,-0.006 0.04,-0.006 z m 1.092,4.7e-4 0.039,-0.007 v -0.009 l 0.01,-0.009 h -0.031 -0.031 l -0.013,-0.0156 -0.013,-0.0156 h -0.019 -0.019 l -0.016,-0.0157 -0.016,-0.0156 h -0.011 -0.011 l -0.01,-0.0147 -0.01,-0.0147 -0.021,-0.003 -0.021,-0.003 v 0.047 0.047 l 0.01,0.008 v 0.008 l 0.023,4.7e-4 0.023,4.7e-4 0.021,0.0159 0.021,0.0159 0.021,-0.005 0.021,-0.005 z m 0.3079,0.01 -0.01,-0.006 -0.014,0.005 -0.014,0.005 0.02,6.8e-4 0.02,6.8e-4 z m -6.521,-0.0146 h 0.025 v -0.029 -0.029 l 0.015,-0.0214 0.015,-0.0214 v -0.0454 -0.0454 l 0.027,-0.009 0.027,-0.009 0.028,0.0105 0.028,0.0105 v 0.0569 0.0569 l 0.018,0.0316 0.018,0.0316 0.021,0.009 0.021,0.009 0.042,-0.004 0.042,-0.004 0.034,-0.005 0.034,-0.005 1e-4,-0.0335 v -0.0335 l 0.016,-0.0303 0.016,-0.0303 -0.01,-0.0167 v -0.0167 l -0.036,-0.0261 -0.036,-0.0261 -0.01,-0.0227 -0.01,-0.0227 -0.015,-0.005 -0.015,-0.005 v -0.0253 -0.0253 l -0.016,-0.006 -0.016,-0.006 v -0.0199 -0.0199 l -0.016,-0.013 -0.016,-0.013 v -0.0332 -0.0332 l -0.013,-0.013 -0.013,-0.013 -0.01,-0.1014 -0.01,-0.10139 -0.013,-0.0497 -0.013,-0.0497 h -0.015 -0.015 v -0.0156 -0.0156 h -0.016 -0.016 v -0.0135 -0.0135 l -0.056,-0.0192 -0.057,-0.0192 -0.028,0.007 -0.029,0.007 0.01,0.0856 0.01,0.0856 -6e-4,0.0156 -7e-4,0.0156 -0.01,0.10894 -0.01,0.10894 -0.013,0.004 -0.013,0.004 v 0.0292 0.0292 l -0.016,0.013 -0.016,0.013 v 0.0147 0.0148 l -0.016,0.006 -0.016,0.006 v 0.0253 0.0253 l -0.016,0.006 -0.016,0.006 v 0.0133 0.0133 l -0.016,0.013 -0.016,0.013 v 0.0661 0.0661 l 0.01,0.006 0.01,0.006 0.01,0.0294 0.01,0.0294 0.028,0.0118 0.028,0.0118 0.046,-0.005 0.046,-0.005 z m 5.5077,-0.0132 0.013,-0.0103 v -0.0242 -0.0242 l 0.01,-0.007 0.011,-0.007 v -0.0563 -0.0563 l 0.023,-0.0163 0.023,-0.0163 h 0.013 0.013 l 0.021,0.0209 0.021,0.0209 v 0.0559 0.0559 l 0.016,0.0313 0.016,0.0313 0.039,0.0117 0.039,0.0117 0.057,-0.006 0.058,-0.006 0.018,-0.0589 0.018,-0.0589 -3e-4,-0.0632 -2e-4,-0.0632 -0.012,-0.0116 -0.012,-0.0116 -0.014,-0.0244 -0.014,-0.0244 -0.011,-0.0235 -0.011,-0.0235 h -0.011 -0.011 l -5e-4,-0.0183 -4e-4,-0.0183 -0.015,-0.0203 -0.015,-0.0203 v -0.0386 -0.0386 l -0.016,-0.0299 -0.016,-0.0299 -1e-4,-0.10135 -1e-4,-0.10136 -0.049,-0.0397 -0.049,-0.0397 -0.019,-0.0183 -0.019,-0.0183 h -0.063 -0.063 v 0.0292 0.0292 l 0.013,0.0131 0.013,0.0131 -5e-4,0.11954 -4e-4,0.11952 -0.013,0.0127 -0.013,0.0127 v 0.0557 0.0557 l -0.016,0.006 -0.016,0.006 v 0.029 0.029 l -0.016,0.013 -0.016,0.013 v 0.0185 0.0185 l -0.016,0.006 -0.016,0.006 v 0.0176 0.0176 l -0.06,0.0588 -0.06,0.0588 0.013,0.0259 0.013,0.0258 1e-4,0.0377 10e-5,0.0377 0.044,0.0104 0.044,0.0104 0.047,-0.005 0.047,-0.005 z m 1.4524,0.0133 0.024,-8e-5 v -0.0346 -0.0345 l 0.015,-0.0203 0.015,-0.0203 4e-4,-0.0437 5e-4,-0.0437 0.016,-0.0164 0.016,-0.0165 0.012,1.3e-4 0.012,1.2e-4 0.01,0.008 0.01,0.008 0.014,0.0248 0.014,0.0248 0.01,0.0771 0.01,0.0771 h 0.023 0.023 l 0.012,0.0118 0.012,0.0118 0.066,-0.007 0.066,-0.007 0.012,-0.007 0.012,-0.007 0.01,-0.0522 v -0.0522 l 0.014,-0.0522 0.014,-0.0522 h 0.037 0.037 l 0.01,0.0418 0.01,0.0418 0.013,0.0653 0.013,0.0653 h 0.027 0.027 l 0.01,0.0101 0.01,0.0101 0.076,-0.006 0.076,-0.006 v -0.0369 -0.0369 l -0.017,-0.0191 -0.017,-0.0191 h -0.014 -0.014 v -0.0156 -0.0156 h -0.01 -0.01 l -0.053,-0.0486 -0.053,-0.0486 v -0.0128 -0.0129 l -0.016,-0.013 -0.016,-0.013 v -0.0185 -0.0185 l -0.016,-0.006 -0.016,-0.006 v -0.016 -0.016 h -0.01 -0.01 l -0.01,-0.0287 -0.01,-0.0287 -0.014,-0.0314 -0.014,-0.0314 -0.01,-0.127 v -0.12701 l -0.014,-0.0236 -0.014,-0.0236 -0.018,-0.0192 -0.018,-0.0192 h -0.01 -0.01 v -0.0146 -0.0146 l -0.026,-0.007 -0.026,-0.007 v -0.0103 -0.0103 l -0.06,-2e-5 h -0.06 v 0.18267 0.18267 l -0.016,0.0331 -0.016,0.0331 v 0.0301 0.0301 l -0.016,0.006 -0.016,0.006 v 0.0253 0.0253 l -0.016,0.006 -0.016,0.006 v 0.0187 0.0187 l -0.087,0.0899 -0.087,0.0899 h -0.012 -0.012 v 0.01 0.01 l -0.022,0.007 -0.022,0.007 -0.02,0.0169 -0.02,0.0169 v 0.0161 0.0161 l 0.024,0.0122 0.024,0.0122 0.052,-0.005 0.052,-0.005 z m 1.6535,-0.14415 v -0.008 l 0.051,-0.0384 0.051,-0.0384 -0.01,-0.0214 v -0.0214 h -0.014 -0.014 l -0.012,0.0216 -0.012,0.0217 -0.041,0.0398 -0.041,0.0398 v 0.006 0.007 h 0.021 0.021 z m -9.9369,-0.11791 v -0.0321 l -0.016,-0.0156 -0.016,-0.0156 v -0.019 -0.019 l -0.016,-0.006 -0.016,-0.006 v -0.0252 -0.0252 l -0.016,-0.013 -0.016,-0.013 v -0.0393 -0.0393 l -0.016,-0.0299 -0.016,-0.0299 v -0.0905 l -1e-4,-0.0905 -0.033,-0.0296 -0.033,-0.0296 -0.02,-0.0183 -0.019,-0.0183 h -0.01 -0.01 v -0.0131 -0.0131 l -0.1663,-0.002 -0.1663,-0.002 -0.094,0.0105 -0.094,0.0105 -0.021,0.004 -0.021,0.004 v 0.0552 0.0552 l -0.015,0.0231 -0.015,0.0231 v 0.0246 0.0246 l 0.029,0.0281 0.029,0.0281 h 0.017 0.017 l 0.014,0.0143 0.014,0.0143 0.039,0.005 0.039,0.005 v -0.0139 -0.0139 l 0.015,-0.005 0.015,-0.005 0.01,-0.0175 0.01,-0.0176 0.013,-0.0209 0.013,-0.0209 0.021,-0.0235 0.02,-0.0235 h 0.018 0.018 l 0.016,0.0164 0.016,0.0164 v 0.0335 0.0335 l -0.014,0.0206 -0.014,0.0206 -0.01,0.0477 -0.01,0.0477 0.01,0.0202 v 0.0202 l 0.039,0.0183 0.039,0.0183 h 0.016 0.016 l 0.013,0.0156 0.013,0.0156 h 0.014 0.014 v -0.0156 -0.0156 h 0.01 0.01 l 0.028,-0.047 0.028,-0.047 h 0.01 0.01 l 0.01,-0.0235 0.01,-0.0235 0.021,-0.003 0.021,-0.003 0.026,0.0215 0.026,0.0215 -0.012,0.02 -0.013,0.02 v 0.024 0.0239 l -0.016,0.0233 -0.016,0.0233 v 0.039 0.0391 l 0.029,0.0137 0.029,0.0137 v 0.01 0.01 h 0.025 0.025 l 0.013,0.0157 0.013,0.0156 h 0.03 0.03 z m 10.2611,-0.1321 0.052,-0.0388 v -0.008 -0.008 l 0.018,-4.8e-4 0.018,-4.7e-4 -0.018,-0.0106 -0.018,-0.0106 v -0.0191 -0.0191 l -0.016,-0.013 -0.016,-0.013 v -0.0191 -0.0191 l -0.013,-0.008 -0.013,-0.008 -0.016,-0.0305 -0.016,-0.0305 0.013,-0.004 0.013,-0.004 v -0.0146 -0.0146 l 0.027,-0.007 0.027,-0.007 0.063,0.0641 0.063,0.0641 h 0.046 0.046 l 0.01,-0.0156 0.01,-0.0157 h 0.01 0.01 l 0.035,-0.0348 0.035,-0.0348 -0.014,-0.0127 -0.013,-0.0127 v -0.0194 -0.0194 l -0.016,-0.006 -0.016,-0.006 v -0.0252 -0.0252 l -0.016,-0.013 -0.016,-0.013 v -0.0196 -0.0196 h -0.025 -0.025 l -0.013,-0.0156 -0.013,-0.0156 h -0.1711 -0.1712 l 2e-4,0.0287 1e-4,0.0287 0.015,0.0418 0.015,0.0418 5e-4,0.0679 4e-4,0.0679 -0.016,0.0299 -0.016,0.0299 v 0.0498 0.0498 l -0.016,0.013 -0.016,0.013 v 0.0196 0.0197 l 0.018,0.02 0.018,0.02 0.045,6.8e-4 0.045,6.8e-4 z m -11.2642,-0.33503 v -0.008 l 0.03,-0.0327 0.03,-0.0326 0.01,-0.014 0.01,-0.0141 0.013,-0.0178 0.013,-0.0178 -0.01,-0.008 -0.01,-0.008 -0.1009,-10e-4 -0.1009,-0.001 -0.024,0.009 -0.024,0.009 v 0.0316 0.0316 l 0.021,0.0209 0.021,0.0209 h 0.02 0.02 l 0.01,0.0147 0.01,0.0147 0.026,0.005 0.026,0.005 0.01,0.001 0.01,0.001 z m 11.8177,-0.0714 v -0.004 l -0.055,6.8e-4 -0.055,6.8e-4 0.019,0.008 0.019,0.008 0.036,-0.004 0.036,-0.004 z m 1.0219,-0.31964 0.012,-0.0125 v -0.024 -0.024 h -0.041 -0.041 v 0.0183 0.0183 l 0.011,0.0183 0.011,0.0183 h 0.022 0.022 z m -9.5795,-3.50666 v -0.008 l -0.013,-0.0125 -0.013,-0.0125 h -0.01 -0.01 v 0.0209 0.0209 h 0.021 0.021 z m 1.729,-1.27745 2e-4,-0.0412 v -1e-5 0 l -0.021,0.0209 -0.021,0.0209 v 0.0119 0.0119 l 0.018,0.0133 0.018,0.0134 0.01,-0.005 0.01,-0.005 z m 4.7932,-0.25032 0.01,-0.0573 v -0.0183 l -0.01,-0.0183 -0.018,4.7e-4 -0.018,4.7e-4 -0.016,0.0127 -0.016,0.0127 v 0.0442 0.0441 l 0.019,0.0204 0.018,0.0204 0.016,-0.002 0.016,-0.002 z m -4.4548,4e-5 0.025,-0.0312 0.054,-0.001 0.054,-0.001 -0.016,-0.004 -0.016,-0.004 -0.014,-0.031 -0.014,-0.031 h -0.02 -0.02 l -0.01,0.0156 -0.01,0.0156 h -0.01 -0.01 l -0.026,0.0276 -0.025,0.0276 -0.034,0.0247 -0.034,0.0247 0.047,-9e-5 0.046,-7e-5 z m 1.4983,-0.6965 0.01,-0.005 v -0.015 -0.015 h -0.162 -0.162 v 0.0274 0.0274 l 0.1542,-0.008 0.1541,-0.008 z"
       id="TU-M3Bradley" /></g></svg>
