<?xml version="1.0" encoding="UTF-8" standalone="no"?>
<!-- Created with Inkscape (http://www.inkscape.org/) -->

<svg
   width="19.39871mm"
   height="8.00173mm"
   viewBox="0 0 19.39871 8.00173"
   version="1.1"
   id="svg1"
   sodipodi:docname="inkporter-svg-ts2h4i3x.svg"
   xmlns:inkscape="http://www.inkscape.org/namespaces/inkscape"
   xmlns:sodipodi="http://sodipodi.sourceforge.net/DTD/sodipodi-0.dtd"
   xmlns="http://www.w3.org/2000/svg"
   xmlns:svg="http://www.w3.org/2000/svg">
  <sodipodi:namedview
     id="namedview1"
     pagecolor="#ffffff"
     bordercolor="#666666"
     borderopacity="1.0"
     inkscape:showpageshadow="2"
     inkscape:pageopacity="0.0"
     inkscape:pagecheckerboard="0"
     inkscape:deskcolor="#d1d1d1"
     inkscape:document-units="mm"
     inkscape:zoom="1.6641134"
     inkscape:cx="396.6076"
     inkscape:cy="561.25984"
     inkscape:window-width="3840"
     inkscape:window-height="2081"
     inkscape:window-x="2391"
     inkscape:window-y="-9"
     inkscape:window-maximized="1"
     inkscape:current-layer="layer1" />
  <defs
     id="defs1" />
  <g
     inkscape:label="Layer 1"
     inkscape:groupmode="layer"
     id="layer1"
     transform="translate(7.8586,-190.40268)">
    <path
       style="fill:#000000;fill-opacity:1;fill-rule:nonzero;stroke:none;stroke-width:0.352778"
       d="m -5.93097,193.63246 -0.30041,-0.0344 v 0.36105 h -0.16813 l -0.008,0.16812 0.10611,0.18465 -0.1323,0.0179 -0.1502,-0.1502 v -0.15021 h -0.22049 c -0.0262,0 0,0.16812 0,0.16812 l -0.0882,0.0965 h -0.26596 v 0.20395 h 0.31006 v 0.14056 c 0,0 -0.0896,-0.008 -0.31833,0.0882 -0.22876,0.0978 -0.69178,0.82545 -0.69178,0.82545 0,0 0.091,0.0896 0.19431,0.19292 l -0.0179,0.19568 0.051,0.005 -0.008,0.10336 -0.0207,0.005 0.0138,0.0524 -0.001,0.0276 h 0.01 l 0.004,0.0207 -0.0496,0.0138 0.0758,0.28938 0.0496,-0.0124 0.0262,0.0951 -0.004,0.004 0.006,0.005 0.0207,0.0786 0.0482,-0.0124 h 10e-4 l -0.0358,0.0386 0.21498,0.20395 -0.006,0.008 0.0937,0.0482 -0.0248,0.0469 0.26596,0.13918 0.0234,-0.0469 0.0165,0.01 0.0772,0.04 0.0152,0.008 -0.0234,0.0455 0.26458,0.13918 0.0248,-0.0455 0.0413,0.0221 0.0482,0.0248 -0.0248,0.0455 0.26596,0.13918 0.0248,-0.0455 0.0152,0.008 0.0744,0.0386 0.0179,0.01 -0.0234,0.0455 0.26596,0.13918 0.0234,-0.0455 0.0565,0.0289 0.0538,0.0289 -0.0248,0.0455 0.26596,0.13918 0.0234,-0.0455 0.10886,0.0565 -0.0234,0.0455 0.26458,0.13918 0.0248,-0.0455 0.0413,0.0221 0.0482,0.0248 -0.0248,0.0455 0.26596,0.13919 0.0234,-0.0455 0.16812,0.0882 0.0179,-0.0331 0.0923,0.0152 -0.01,0.051 0.29628,0.051 0.008,-0.0524 0.0978,0.0165 v 0.004 h 0.0193 l 0.0703,0.011 10e-4,-0.011 h 0.0138 v 0.0524 h 0.30041 v -0.0524 h 0.12264 v 0.0524 h 0.30042 v -0.0524 h 0.10059 v 0.0524 h 0.2989 v -0.0524 h 0.12402 v 0.0524 h 0.29904 v -0.0524 h 0.12402 v 0.0524 h 0.29904 v -0.0524 h 0.12264 v 0.0524 h 0.30042 v -0.0524 h 0.10059 v 0.0524 h 0.30041 v -0.0524 h 0.12265 v 0.0524 h 0.30041 v -0.0524 h 0.19982 v 0.0524 h 0.30041 v -0.0524 h 0.12264 v 0.0524 H 0.1941 v -0.0524 h 0.10059 v 0.0524 h 0.29904 v -0.0524 h 0.12402 v 0.0524 h 0.29903 v -0.0524 h 0.20533 v 0.0524 h 0.29904 v -0.0524 h 0.12402 v 0.0524 h 0.29904 v -0.0524 h 0.10197 v 0.0524 h 0.29904 v -0.0524 h 0.12264 v 0.0524 h 0.30041 v -0.0524 h 0.14745 v 0.0524 h 0.30042 v -0.0524 h 0.12264 v 0.0524 h 0.29903 v -0.0524 h 0.10198 v 0.0524 h 0.29903 v -0.0524 h 0.12265 v 0.0524 h 0.30041 v -0.0524 h 0.18053 v 0.0524 h 0.30041 v -0.0524 h 0.12264 v 0.0524 H 5.3645 v -0.0524 h 0.10059 v 0.0524 h 0.30042 v -0.0524 h 0.12264 v 0.0524 h 0.30041 v -0.0524 h 0.15159 v 0.0524 h 0.29903 v -0.0524 H 6.7632 v 0.0524 h 0.29904 v -0.0524 h 0.10197 v 0.0524 h 0.29904 v -0.0524 h 0.15572 l 0.005,0.0165 0.28663,-0.0882 -0.0152,-0.0496 0.1006,-0.0303 0.011,0.0372 0.28663,-0.0882 -0.0152,-0.0482 0.0951,-0.0289 0.0138,0.0427 0.28663,-0.0868 -0.0152,-0.0496 0.12816,-0.04 0.0124,0.0372 0.28664,-0.0868 -0.0152,-0.0496 0.11162,-0.0344 0.0124,0.0413 0.28663,-0.0882 -0.0152,-0.0496 0.006,-10e-4 0.004,0.0124 0.0992,-0.0303 0.0152,0.051 0.28663,-0.0882 -0.01,-0.0344 0.0675,-0.0317 0.0221,0.0455 0.2701,-0.12953 -0.0221,-0.0468 0.0689,-0.0331 0.0165,0.0165 0.0538,-0.051 0.0275,-0.0138 0.0303,0.0303 0.21635,-0.20809 -0.0372,-0.0372 0.0854,-0.0827 0.0427,0.0234 0.051,-0.0909 0.0455,0.0262 0.14607,-0.26182 -0.0455,-0.0262 0.0937,-0.16537 -0.0303,-0.0166 0.0386,0.005 0.0386,-0.29766 -0.0524,-0.007 0.0234,-0.18741 -0.0289,-0.004 0.0648,-0.051 0.24667,-0.16812 0.12402,0.34451 0.11576,-0.01 -0.12403,-0.39687 -0.42443,-0.57327 0.16812,-0.0882 v -0.76511 c 0,0 -0.0441,-0.17638 -0.22049,-0.20395 -0.17639,-0.0262 -0.6711,0.47681 -0.6711,0.47681 h -0.20257 l 0.34451,-0.39688 -1.14791,-0.96187 -0.0882,0.10611 -0.13229,-0.12403 -0.21083,0.29215 -0.18604,-0.16812 -0.0882,-0.23013 -0.36104,0.1061 -0.0538,-0.1502 H 7.52445 l -0.0441,0.14194 H 6.36827 c 0,0 -0.0262,-0.0537 0.0524,-0.0537 0.0799,0 0.24805,-0.21084 0.20395,-0.2825 -0.0441,-0.0703 -0.1502,-0.0703 -0.1502,-0.0703 l -0.46854,-0.39687 -0.22875,0.26458 0.30041,0.32659 H 5.84741 v 0.10611 H 3.04177 l -0.1943,-0.52916 H 2.6449 L 2.565,192.3706 2.5209,191.03941 H 2.4327 l -0.0345,1.33119 -0.0717,0.25631 H 2.08809 l -0.0524,-1.57923 H 1.92958 l -0.0262,1.34083 -0.22049,-0.22875 H 1.0297 v -0.18603 l -0.18604,-0.20258 v -0.41479 l 0.10611,0.0978 0.0358,-0.54708 -0.15847,0.0606 v -0.44097 H 0.94147 V 190.4206 H 0.39439 v 0.11438 H 0.12981 v 0.15158 h -3.46852 l -0.0965,-0.28388 h -0.36242 v 1.39458 h 0.0882 v 0.23013 h -0.22876 v -0.14194 h -0.18603 v 0.50299 h 0.1502 l 0.12402,0.2384 h -0.45888 v 0.2825 l -0.18604,0.008 c 0,0 -1.14652,0.96187 -1.17271,0.9536 -0.0275,-0.008 -0.15985,-0.10611 -0.15985,-0.10611 m 15.58561,3.67247 -0.0592,-0.19293 c 0.051,0.008 0.10059,0.0138 0.15296,0.0152 l 0.062,0.12678 -0.0234,0.011 z m -10.22642,-5.96415 0.3955,-0.0648 0.26871,-0.18052 h 0.25356 l -0.004,0.43684 c -0.008,-0.0124 -0.91364,0 -0.91364,0 z M -1.189,191.32019 h 0.30041 v 0.20533 l -0.10335,0.0661 v 0.073 H -1.2772 l -0.14193,-0.11438 z m -1.23473,1.16169 c 0,0 0.11438,-0.0827 0.11025,-0.10336 -0.004,-0.0207 -0.008,-0.23564 -0.008,-0.23564 h 0.0978 v -0.14745 l 0.0661,-0.13918 c 0,0 0.0524,0.0827 0.15021,0.0744 0.0978,-0.008 0.14331,-0.0331 0.14331,-0.0331 0,0 -0.0372,0.23702 0,0.23702 h 0.19982 v 0.0854 h -0.11024 l -0.46165,0.4079 c 0,0 -0.1819,-0.006 -0.18741,0 -0.008,0.008 0,-0.14607 0,-0.14607 m -2.56866,5.37573 -0.0413,-0.022 0.0579,-0.11163 c 0.0482,0.0606 0.10198,0.11714 0.16261,0.16537 l -0.0248,0.0482 z m -2.39641,-1.50896 0.0234,-0.005 c 0.0248,0.062 0.0551,0.12264 0.091,0.17776 l -0.007,0.007 -0.0799,-0.0758 z m -0.0427,-0.37069 c 0,0.004 -0.001,0.008 -0.001,0.0124 0,0.062 0.007,0.12126 0.0179,0.17914 l -0.0193,0.005 -0.0207,-0.0827 0.011,-0.12678 c 0.004,0.004 0.008,0.008 0.0124,0.0124 m 0.62425,0.9288 -0.0772,-0.0413 c 0.0717,0.0358 0.14883,0.0634 0.22876,0.0799 l -0.0165,0.0317 z m 1.61369,0.84474 -0.001,-0.001 -0.2136,-0.11024 0.1006,-0.19155 -0.15985,-0.0841 -0.1006,0.19155 -0.0689,-0.0372 -0.14608,-0.0758 0.1006,-0.19155 -0.15985,-0.0827 -0.1006,0.19017 h -10e-4 l -0.21222,-0.11162 0.0992,-0.19155 -0.15985,-0.0841 -0.0992,0.19155 -0.19568,-0.10198 0.0496,-0.0965 c 0.003,0 0.004,0.001 0.006,0.001 0.28112,0 0.5333,-0.11988 0.71107,-0.31005 l 0.3073,0.28525 h 0.25632 c -0.007,0.0496 -0.011,0.0992 -0.011,0.14883 0,0.17363 0.0427,0.33624 0.11851,0.47955 l -0.0179,-0.01 z m 0.67661,0.32797 -0.003,0.0248 -0.15847,-0.0827 0.0152,-0.0303 c 0.0978,0.0537 0.20394,0.0923 0.31832,0.113 l -0.001,0.004 z m 0.50023,0.0841 -0.15158,-0.0248 0.003,-0.0179 c 0.001,0 0.001,0 0.003,0 0.0992,0 0.19431,-0.0138 0.28526,-0.04 v 0.0827 z m 2.22967,0 h -0.24116 v -0.21497 h -0.18052 v 0.21497 h -0.24254 v -0.21497 H -2.6313 v 0.21497 h -0.24253 v -0.21497 h -0.17915 v 0.21497 h -0.22048 v -0.21497 h -0.18053 v 0.21497 h -0.24253 v -0.15434 c 0.33486,-0.17087 0.56499,-0.51676 0.56499,-0.91915 0,-0.0372 -0.003,-0.0744 -0.006,-0.11162 l 0.76757,0.1254 c 0.006,0.40377 0.24253,0.74966 0.58429,0.91502 v 0.14469 z m 0.22875,0 h -0.0469 v -0.0785 c 0.0703,0.0193 0.14469,0.0303 0.22048,0.0344 v 0.0441 z m 0.59394,0 h -0.23978 v -0.0524 c 0.0841,-0.011 0.16536,-0.0317 0.24253,-0.062 v 0.11437 z m 1.74873,0 H 0.54232 v -0.21497 H 0.36318 v 0.21497 H 0.14269 v -0.21497 h -0.18052 v 0.21497 h -0.24184 v -0.21497 h -0.18052 v 0.21497 h -0.32108 v -0.2067 c 0.28525,-0.18328 0.47404,-0.50298 0.47404,-0.86679 0,-0.0469 -0.004,-0.0937 -0.01,-0.13918 h 0.0951 l 0.13229,0.14056 0.45889,0.0262 c 0,0 0.0482,0.0221 0.10749,0.0482 0.0234,0.32659 0.19706,0.61047 0.45475,0.78272 H 0.78522 Z m 0.4203,0 H 0.96538 v -0.1943 c 0.0992,0.0606 0.20808,0.10473 0.32522,0.12954 v 0.0648 z m 0.50574,0 H 1.46974 v -0.0441 c 0.011,0 0.0221,0.001 0.0331,0.001 0.0716,0 0.14193,-0.007 0.20946,-0.0207 v 0.0634 z m 1.92374,0 h -0.0482 v -0.21497 H 3.40592 v 0.21497 H 3.16476 v -0.21497 H 2.98424 v 0.21497 H 2.71689 v -0.21497 H 2.53637 v 0.21497 H 2.29384 v -0.21497 H 2.11332 v 0.21497 H 1.89283 v -0.11988 c 0.3762,-0.15297 0.64079,-0.52228 0.64079,-0.95361 0,-0.0469 -0.004,-0.0923 -0.011,-0.1378 l 0.24529,0.12127 0.3266,0.0358 c 0,0 0.13366,0.0648 0.22737,0.10886 0.04,0.31833 0.22462,0.59118 0.48507,0.75103 v 0.1943 z m 0.59393,0 H 3.98742 v -0.10748 c 0.0772,0.0289 0.15847,0.0496 0.24253,0.0593 v 0.0482 z m 0.42168,0 H 4.41048 v -0.0455 c 0.10473,-0.007 0.20532,-0.0289 0.30041,-0.0648 v 0.11024 z m 2.17868,0 H 6.58915 v -0.21497 H 6.40933 v 0.21497 H 6.13786 v -0.21497 H 5.95733 v 0.21497 H 5.7148 v -0.21497 H 5.53428 v 0.21497 H 5.31379 v -0.21497 H 5.13327 v 0.21497 H 4.89073 v -0.19981 c 0.29077,-0.18328 0.48507,-0.50574 0.48507,-0.87368 0,-0.0496 -0.006,-0.0992 -0.0124,-0.14883 h 0.23014 c -0.0275,0 0.12264,0.11576 0.12264,0.11576 l 0.64079,0.15434 c 0.0372,0.31557 0.21773,0.58842 0.47405,0.75103 v 0.20119 z m 0.23014,0 h -0.0482 v -0.11162 c 0.0703,0.0276 0.1447,0.0469 0.22049,0.0579 v 0.0537 z m 0.35277,-0.0441 c 0.0689,-0.001 0.13505,-0.01 0.19982,-0.0248 l 0.007,0.0234 -0.14746,0.0455 H 7.412 Z m 0.37207,-0.0799 c 0.0703,-0.0303 0.13781,-0.0703 0.19982,-0.11438 l 0.0193,0.0634 -0.16536,0.0496 0.003,0.0138 -0.0482,0.0152 z m 1.51584,-0.7028 -0.17225,0.0537 0.0634,0.20532 -0.16674,0.051 0.004,0.01 -0.062,0.0179 -0.062,-0.2067 -0.17225,0.0524 0.062,0.20671 -0.16537,0.051 0.004,0.0124 -0.0786,0.0234 -0.062,-0.2067 -0.17225,0.0524 0.062,0.20671 -0.16537,0.0496 0.003,0.007 -0.0441,0.0138 -0.0427,-0.14331 c 0.17225,-0.18328 0.27836,-0.42995 0.27836,-0.7028 0,-0.0372 -0.003,-0.0758 -0.007,-0.113 H 9.1687 c 0.1378,0.12953 0.30868,0.22324 0.5016,0.26182 l -0.14745,0.0441 0.0593,0.19431 -0.21911,0.0661 z m 0.74552,-0.091 c 0.0813,-0.0138 0.15986,-0.0358 0.23427,-0.0675 l 0.004,0.005 -0.0482,0.0469 -0.15985,0.0772 z m 0,0"
       id="WG-jaguar" />
  </g>
</svg>
