<?xml version="1.0" encoding="UTF-8" standalone="no"?>
<!-- Created with Inkscape (http://www.inkscape.org/) -->

<svg
   width="7.9961739mm"
   height="8mm"
   viewBox="0 0 7.996174 7.9999999"
   version="1.1"
   id="svg47190"
   inkscape:version="1.1.1 (3bf5ae0d25, 2021-09-20)"
   sodipodi:docname="2ndAm.svg"
   xmlns:inkscape="http://www.inkscape.org/namespaces/inkscape"
   xmlns:sodipodi="http://sodipodi.sourceforge.net/DTD/sodipodi-0.dtd"
   xmlns="http://www.w3.org/2000/svg"
   xmlns:svg="http://www.w3.org/2000/svg">
  <sodipodi:namedview
     id="namedview47192"
     pagecolor="#ffffff"
     bordercolor="#666666"
     borderopacity="1.0"
     inkscape:pageshadow="2"
     inkscape:pageopacity="0.0"
     inkscape:pagecheckerboard="0"
     inkscape:document-units="mm"
     showgrid="false"
     inkscape:zoom="11.313709"
     inkscape:cx="11.181126"
     inkscape:cy="12.59534"
     inkscape:window-width="1920"
     inkscape:window-height="1017"
     inkscape:window-x="-8"
     inkscape:window-y="-8"
     inkscape:window-maximized="1"
     inkscape:current-layer="g31631"
     inkscape:snap-bbox="true"
     inkscape:snap-bbox-midpoints="true"
     inkscape:snap-page="true"
     inkscape:snap-bbox-edge-midpoints="false"
     inkscape:snap-nodes="false"
     inkscape:bbox-nodes="true" />
  <defs
     id="defs47187">
    <clipPath
       clipPathUnits="userSpaceOnUse"
       id="clipPath63680-8">
      <path
         d="M 0,0 H 595.276 V 841.89 H 0 Z"
         id="path63678-4" />
    </clipPath>
  </defs>
  <g
     inkscape:label="Layer 1"
     inkscape:groupmode="layer"
     id="layer1"
     transform="translate(-95.587164,-80.934645)">
    <g
       inkscape:label="Capa 1"
       id="layer1-5"
       transform="matrix(0.01238547,0,0,0.01238547,86.37603,76.630162)">
      <g
         id="g4299"
         transform="translate(1.9492421e-6)">
        <g
           id="g31631"
           transform="matrix(5.4254363,0,0,5.4254363,1570.8141,1953.9589)">
          <g
             id="g3035"
             transform="matrix(0.58673918,0,0,0.58673918,-145.42679,-321.5857)">
            <path
               style="fill:#ffffff;stroke-width:5.69476;paint-order:markers stroke fill;stop-color:#000000"
               d="m 365.38392,918.9287 c 57.23813,-30.96651 103.03324,-65.56228 147.66031,-111.5495 85.99848,-88.61955 134.77176,-190.54015 150.94613,-315.4293 3.82773,-29.5555 3.88286,-111.2588 0.0952,-141.10872 -8.29808,-65.39622 -23.9772,-123.20005 -46.42328,-171.14774 -3.98032,-8.50246 -7.53184,-15.45902 -7.89226,-15.45902 -0.36043,0 -11.76169,5.6421 -25.33613,12.538 -60.01706,30.48903 -113.86594,38.21814 -167.8209,24.08788 -25.1574,-6.58846 -44.32408,-14.97234 -65.21826,-28.52773 -6.86534,-4.45398 -12.92062,-8.09815 -13.45618,-8.09815 -0.53557,0 -5.76697,3.30526 -11.62537,7.34502 -21.84699,15.06497 -49.74003,26.57007 -79.2082,32.67116 -19.78408,4.09609 -60.7055,3.8008 -81.02247,-0.58466 -30.64929,-6.61572 -58.1805,-17.23317 -82.011848,-31.62799 -7.105519,-4.29194 -13.570901,-7.80353 -14.367498,-7.80353 -2.0953,0 -16.899406,32.06012 -25.742827,55.7493 -13.683259,36.6538 -23.826437,77.49152 -30.687684,123.55251 -3.170147,21.28187 -3.4785004,28.50243 -3.4747034,81.36384 0.00301,48.25243 0.4621014,61.05054 2.7267434,76.09026 15.34947,101.93743 47.950048,179.29638 108.897157,258.40554 14.74498,19.13896 66.25248,71.74142 86.50795,88.34698 24.97489,20.47458 52.8251,40.25237 77.99802,55.39017 14.40884,8.66481 52.0447,27.96374 54.59491,27.99522 1.24306,0.0154 12.43059,-5.47446 24.86117,-12.19954 z"
               id="path2713"
               transform="scale(0.26458333)"
               sodipodi:nodetypes="ssssssssssssssssscsssssss" />
            <path
               style="fill:#000000;stroke-width:0.264583"
               d="M 84.62134,243.59388 C 74.16408,238.30056 64.373608,231.78868 54.472661,223.54124 49.59217,219.47582 39.530941,209.51044 35.663029,204.91081 15.765143,181.24869 4.7645232,154.08112 2.6206832,123.3081 2.2072784,117.37402 2.4418617,101.92081 3.0266657,96.563933 4.6715798,81.496322 7.8846767,68.078666 12.879023,55.421224 c 1.657241,-4.200039 5.262658,-11.906251 5.570439,-11.906251 0.0819,0 1.231334,0.699742 2.554304,1.554981 8.001645,5.172694 18.511218,8.844933 28.179647,9.846486 3.76455,0.389971 11.711199,0.175364 14.971588,-0.404322 9.187929,-1.63358 16.801172,-4.763182 23.381846,-9.611652 l 1.950596,-1.437148 0.827529,0.62114 c 7.746381,5.814401 18.025398,9.785876 28.059728,10.841361 4.02808,0.423702 11.34272,0.155531 15.49801,-0.568192 8.22591,-1.432699 17.93093,-5.113796 24.69932,-9.368412 1.28811,-0.809709 2.46573,-1.395739 2.61694,-1.302289 0.44278,0.273658 3.30625,6.487457 5.10261,11.072839 5.35507,13.669272 8.78825,29.572064 9.91027,45.905205 0.34177,4.97516 0.34081,16.83552 -0.002,21.56355 -1.32277,18.25843 -5.18806,34.12886 -12.08242,49.60937 -12.13342,27.24423 -33.71901,51.08694 -61.175,67.5718 -3.630457,2.17977 -12.413312,6.77612 -12.948016,6.77612 -0.138991,0 -2.556936,-1.16637 -5.373214,-2.59193 z m 10.347772,-3.74058 c 25.323978,-12.69518 47.673858,-33.68912 61.001698,-57.30081 9.57883,-16.9699 14.96372,-34.77755 16.84136,-55.69377 0.49714,-5.538 0.41697,-20.5427 -0.14279,-26.72291 -1.68131,-18.56318 -5.84766,-36.069853 -11.46849,-48.189741 l -1.1822,-2.549114 -3.61413,1.586191 c -6.86135,3.011343 -16.39478,5.794842 -23.85477,6.964933 -3.66543,0.57492 -13.16998,0.807481 -16.5774,0.405622 -6.38676,-0.753231 -12.09204,-2.439295 -17.950722,-5.304915 -2.037292,-0.996488 -4.656667,-2.477485 -5.820833,-3.291104 -1.164167,-0.813619 -2.249083,-1.545482 -2.410923,-1.626361 -0.161843,-0.08088 -1.173875,0.518326 -2.248959,1.331571 -2.614342,1.977608 -9.042598,5.167916 -13.018519,6.461019 -6.634861,2.15788 -11.44456,2.798737 -19.466721,2.593797 C 49.252699,58.36946 46.702277,58.070547 41.080032,56.879734 35.075773,55.60801 26.507525,52.678094 21.627219,50.227836 l -1.781947,-0.894663 -0.893136,1.787254 C 15.793638,57.440914 12.01991,68.934696 9.8004209,78.994136 5.9794142,96.312192 4.873178,115.73821 6.7583134,132.41497 c 2.9569778,26.15877 12.9357596,49.29269 30.2438226,70.11459 3.287572,3.955 12.751427,13.42585 16.966406,16.97894 8.437748,7.11275 17.775109,13.5051 26.855209,18.38504 5.379302,2.89102 8.631669,4.33535 9.382861,4.1668 0.358386,-0.0804 2.501511,-1.07358 4.7625,-2.20704 z m -9.861823,-1.8811 C 71.378557,231.05569 58.986773,222.18895 47.807346,211.28283 19.237722,183.41165 5.6575396,147.80545 7.9387411,106.75039 8.8305113,90.701091 11.931817,74.843337 16.833919,61.267108 c 1.270381,-3.518284 3.435549,-8.758502 3.750868,-9.077993 0.102812,-0.10417 1.673323,0.447106 3.490029,1.225057 8.183486,3.50434 17.267765,5.886472 25.891554,6.789435 4.397058,0.460398 13.688235,0.18693 17.363631,-0.511065 7.629851,-1.448987 14.51592,-4.146334 20.145653,-7.891266 l 2.153989,-1.432845 2.268006,1.47836 c 6.339327,4.132183 15.297691,7.312236 23.447291,8.323351 5.18579,0.643398 14.55103,0.225283 20.64444,-0.921679 6.82267,-1.284232 15.52339,-3.97537 21.44587,-6.633224 1.35315,-0.607254 1.6563,-0.664193 1.85769,-0.34891 0.13236,0.207223 0.94572,2.162707 1.80747,4.34552 9.17585,23.242453 12.51623,53.690801 8.7361,79.631551 -3.23308,22.18668 -12.32752,43.57094 -25.99642,61.12678 -5.28411,6.78672 -14.63941,16.48551 -21.07988,21.85385 -6.59255,5.4951 -15.04544,11.43795 -21.6966,15.2539 -3.853686,2.21097 -10.726484,5.62461 -11.299,5.61209 -0.260806,-0.006 -2.356599,-0.95872 -4.657321,-2.11782 z M 66.101871,183.21498 c 12.539756,-9.09506 22.887078,-16.56219 22.994052,-16.59364 0.106971,-0.0315 10.835685,7.62329 23.841587,17.01054 13.0059,9.38726 23.68479,17.03004 23.73086,16.98396 0.0461,-0.0461 -3.95396,-12.52032 -8.88897,-27.72054 -4.93501,-15.20022 -8.88687,-27.71268 -8.78191,-27.80547 0.10497,-0.0928 10.54928,-7.70149 23.2096,-16.90823 12.66031,-9.20674 23.25356,-16.96172 23.54056,-17.23329 0.50952,-0.48212 -0.17137,-0.49375 -28.89422,-0.49375 H 107.4374 l -0.68951,-2.18281 C 105.05201,102.90305 89.608466,55.78316 89.446996,55.484896 89.300755,55.21476 80.992169,80.199075 72.68489,105.88934 l -1.561031,4.8275 -29.262079,0.0673 -29.262075,0.0673 23.131814,16.85151 c 12.722498,9.26833 23.342286,17.00739 23.599524,17.19792 0.435859,0.32282 -0.136368,2.20227 -8.402812,27.59849 -4.878787,14.98865 -8.943708,27.48143 -9.033155,27.76175 -0.16056,0.50316 -0.152625,0.50316 0.622302,0 0.431716,-0.28032 11.044735,-7.95107 23.584493,-17.04612 z"
               id="path854"
               sodipodi:nodetypes="csssssssssscssssssscsssccssssscssssssssssscssssssssssssssssscsssssssssscsscssssssscssscccsssssss" />
            <g
               id="g1425">
              <path
                 style="fill:#de1d25;stroke-width:0.264583"
                 d="m 75.244202,169.2582 c 0.09179,-0.5457 0.237752,-2.78543 0.324361,-4.97719 0.146298,-3.70219 0.118001,-4.06237 -0.398743,-5.07527 -0.305917,-0.59966 -0.663364,-1.1565 -0.794322,-1.23744 -0.130958,-0.0809 -1.163735,0.0896 -2.295062,0.37893 -1.131327,0.28934 -2.807674,0.52608 -3.72522,0.52608 -1.501039,0 -1.765347,-0.0852 -2.636824,-0.85041 l -0.968563,-0.85041 0.168871,-2.0249 c 0.140263,-1.68188 0.09643,-2.08502 -0.258707,-2.37976 -0.309169,-0.25659 -0.390226,-0.63333 -0.292701,-1.36043 0.109411,-0.81572 0.02922,-1.07957 -0.424762,-1.39755 -0.509209,-0.35667 -0.533069,-0.49152 -0.264814,-1.49654 0.383093,-1.43526 0.235406,-1.7487 -0.977923,-2.07542 -0.552159,-0.14868 -1.068131,-0.43765 -1.146607,-0.64215 -0.193336,-0.50383 0.246616,-3.48811 0.706303,-4.79101 0.205028,-0.58111 0.739711,-1.63516 1.18818,-2.34232 l 0.815398,-1.28575 -0.649345,-1.28142 c -0.35714,-0.70478 -0.649346,-1.50564 -0.649346,-1.77969 0,-0.55272 0.973963,-1.96971 2.541603,-3.69768 l 1.030272,-1.13564 2.077262,1.26794 2.077265,1.26793 2.213885,4.49792 c 1.418889,2.88272 2.642802,4.98644 3.40831,5.85834 1.02443,1.16681 1.138584,1.40677 0.802079,1.68604 -0.215789,0.17909 -0.392342,0.65241 -0.392342,1.05181 0,0.55411 0.250793,0.89216 1.058333,1.42657 1.173485,0.77657 1.210196,0.86671 0.653044,1.60333 -0.60316,0.79745 -0.46642,1.44574 0.511123,2.42328 0.758563,0.75856 1.087675,0.89959 2.099442,0.89959 0.659924,0 1.495031,-0.11223 1.855798,-0.24939 0.625816,-0.23794 0.671502,-0.1863 0.994854,1.12448 0.448107,1.81648 0.388165,4.07518 -0.165393,6.23232 -0.353478,1.37745 -0.401606,2.15048 -0.223197,3.58493 l 0.227454,1.82881 1.058333,0.30117 1.058334,0.30118 -1.195732,0.30585 c -0.821497,0.21013 -1.856597,0.85933 -3.307292,2.07428 -2.916941,2.44293 -4.288877,3.28178 -5.367308,3.28178 -0.896964,0 -0.902039,-0.007 -0.736301,-0.99219 z m 2.31757,-12.14569 c 0.521126,-0.47161 0.650444,-1.14962 0.219271,-1.14962 -0.422407,0 -1.357889,1.05228 -1.184661,1.33257 0.220265,0.35639 0.408926,0.32064 0.96539,-0.18295 z M 65.82848,155.63879 c 0.255749,-0.25575 0.434314,-0.25528 0.846667,0.002 0.660061,0.41222 0.723635,-0.0757 0.0997,-0.76519 -0.354637,-0.39187 -0.372893,-0.6187 -0.113139,-1.40576 0.170352,-0.51617 0.598768,-1.16585 0.952035,-1.44373 0.467868,-0.3679 0.642305,-0.76423 0.642305,-1.45922 0,-0.52476 -0.10998,-0.95411 -0.244399,-0.95411 -0.779626,0 -2.930339,0.66479 -2.928929,0.90534 7.94e-4,0.15691 0.387874,0.519 0.859896,0.80466 l 0.858223,0.51937 -0.79375,0.0873 c -1.436237,0.15799 -1.537679,0.28359 -0.7655,0.94779 l 0.723466,0.6223 -0.442005,1.10467 c -0.243102,0.60757 -0.442002,1.1618 -0.442002,1.23162 0,0.23881 0.423055,0.12721 0.747437,-0.19717 z m 14.06923,-2.32173 c 0,-0.29398 -0.17639,-0.52917 -0.396875,-0.52917 -0.220486,0 -0.396875,0.23519 -0.396875,0.52917 0,0.29398 0.176389,0.52917 0.396875,0.52917 0.220485,0 0.396875,-0.23519 0.396875,-0.52917 z m -13.111833,-8.33047 c -0.749477,-0.98261 -1.926571,-1.33236 -1.571458,-0.46693 0.360109,0.87762 0.266473,1.25609 -0.331814,1.34119 -0.805614,0.11459 -0.745,0.3432 0.264552,0.99777 l 0.852926,0.55302 0.747552,-0.74755 0.747548,-0.74755 z m 0.595228,-6.2532 c 0.639244,-0.39507 0.857652,-0.68822 0.73923,-0.99219 -0.335769,-0.86185 -0.240054,-0.96195 0.995604,-1.04124 1.983742,-0.12729 1.463275,-0.58124 -0.661459,-0.57692 -3.021608,0.006 -4.058954,0.90533 -2.836833,2.459 0.672909,0.85547 0.630116,0.8518 1.763458,0.15135 z m 19.924938,25.82846 c 0.181158,-0.21828 0.44844,-0.39687 0.59396,-0.39687 0.147593,0 0.118941,0.17548 -0.06479,0.39687 -0.181158,0.21828 -0.44844,0.39688 -0.593961,0.39688 -0.147592,0 -0.118941,-0.17549 0.06479,-0.39688 z"
                 id="path1431" />
              <path
                 d="m 107.92736,174.2261 c -0.85931,-0.56396 -3.62686,-2.73685 -6.15013,-4.82865 -6.810703,-5.64609 -6.316693,-5.39076 -10.429963,-5.39076 -3.27356,0 -3.4389,0.0264 -3.92395,0.62536 -0.47439,0.58585 -0.54595,0.59943 -1.13275,0.21494 -0.3445,-0.22573 -1.02885,-0.51448 -1.52076,-0.64168 -0.87598,-0.22651 -0.89907,-0.26907 -1.12185,-2.06703 -0.1785,-1.44064 -0.13046,-2.21373 0.2232,-3.59188 0.55356,-2.15714 0.6135,-4.41584 0.16539,-6.23232 -0.32335,-1.31078 -0.36904,-1.36242 -0.99485,-1.12448 -0.36077,0.13716 -1.19587,0.24939 -1.8558,0.24939 -1.01177,0 -1.34088,-0.14103 -2.09944,-0.89959 -0.97754,-0.97754 -1.11428,-1.62583 -0.51112,-2.42328 0.55715,-0.73662 0.52044,-0.82676 -0.65305,-1.60333 -1.92589,-1.2745 -1.22953,-3.00776 1.21146,-3.01536 2.12447,-0.007 2.23498,-0.2498 0.91063,-2.00389 -2.19943,-2.91313 -5.79468,-6.89916 -7.19476,-7.9768 -1.32653,-1.02102 -4.97283,-3.35613 -6.80287,-4.3566 -0.76085,-0.41594 -0.82445,-0.5578 -0.82445,-1.83887 0,-1.38585 0.003,-1.39123 1.9883,-3.25345 1.09357,-1.02591 1.9872,-1.98436 1.98585,-2.12988 -0.006,-0.62248 0.57405,-2.26144 0.92376,-2.61115 0.20903,-0.20903 1.18681,-0.69374 2.17284,-1.07713 1.44663,-0.56248 1.96242,-0.9277 2.67136,-1.89148 1.13492,-1.54292 1.73619,-1.76216 3.52617,-1.28572 2.08072,0.55381 3.18365,0.47294 5.45952,-0.40035 4.34669,-1.66789 8.7199,-2.29796 14.08053,-2.02865 4.638193,0.23302 7.560763,0.75923 13.462733,2.42398 2.82062,0.7956 5.26839,1.44654 5.43955,1.44654 0.17113,0 0.52408,0.1557 0.78433,0.346 0.44601,0.32613 0.43174,0.39523 -0.24847,1.20363 -0.39693,0.4717 -1.30146,1.15145 -2.01012,1.51055 -0.70866,0.3591 -1.28844,0.76796 -1.28844,0.90857 0,0.14062 0.59531,0.55734 1.32291,0.92605 1.40536,0.71215 3.70417,2.73989 3.70417,3.26739 0,0.17346 -0.55303,0.69989 -1.22896,1.16983 -2.63763,1.83383 -2.60361,1.54729 -0.42469,3.5758 1.05503,0.98221 1.91823,1.92839 1.91823,2.10262 0,0.39378 -0.6459,0.74227 -1.85208,0.99926 -2.39395,0.51006 -2.39056,0.49725 -0.61441,2.3241 3.02402,3.11033 3.10829,3.5596 0.87899,4.68495 -0.87312,0.44076 -1.5875,0.93806 -1.5875,1.10513 0,0.16707 0.37759,0.89219 0.8391,1.61139 0.57785,0.9005 0.84559,1.64912 0.8599,2.40441 0.0204,1.0807 0.006,1.09799 -0.97139,1.1789 -0.55364,0.0458 -0.99219,0.22339 -0.99219,0.40173 0,0.17578 0.46715,0.88491 1.03809,1.57585 1.22143,1.47809 1.95416,3.24285 1.98353,4.77723 l 0.0212,1.10057 -1.51559,-0.068 -1.51558,-0.068 0.94848,1.81574 c 0.98763,1.89076 1.44494,4.06407 0.923,4.38664 -0.16209,0.10017 -1.15809,0.24466 -2.21332,0.32108 -2.83851,0.20558 -2.84094,0.20834 -1.44841,1.62589 1.31911,1.3428 2.0433,2.75495 2.0433,3.98438 0,1.23907 -0.44805,1.40892 -3.17373,1.20316 l -2.43055,-0.18348 0.22247,1.56113 c 0.25008,1.75517 0.24656,4.47372 -0.007,5.48441 -0.17042,0.67905 -0.82939,1.50068 -1.20357,1.50068 -0.11255,0 -0.90773,-0.46143 -1.76704,-1.02539 z m -1.92526,-3.93555 c -1.38445,-2.57213 -7.908263,-8.04858 -10.984143,-9.22069 -0.27452,-0.10461 -0.45311,-0.0819 -0.39687,0.0504 0.24797,0.58349 8.243833,8.103 9.387683,8.82841 1.45588,0.92329 2.39277,1.08398 1.99333,0.34188 z m 1.55352,-2.32825 c 0,-1.40216 -3.05568,-4.40706 -7.51463,-7.38975 -3.095393,-2.07058 -5.066423,-2.80919 -4.877413,-1.82773 0.0569,0.29541 1.32366,1.26401 3.138786,2.39999 1.831077,1.14596 4.201177,2.96075 5.949887,4.55585 1.59857,1.45815 2.9958,2.65579 3.10494,2.66142 0.10914,0.006 0.19843,-0.17427 0.19843,-0.39978 z m 2.38125,-3.41136 c 0,-0.67354 -2.93351,-3.5771 -5.40627,-5.35109 -2.24272,-1.60895 -7.788753,-4.58586 -8.543533,-4.58586 -0.53347,0 -0.39411,0.72022 0.25762,1.33145 0.32742,0.30707 1.5394,1.0904 2.693296,1.74074 2.601457,1.46619 4.948077,3.12979 6.801157,4.82158 2.31173,2.11052 4.19773,3.0285 4.19773,2.04318 z m -16.820513,-2.33018 c 0.21429,-0.32743 0.465,-1.1311 0.55715,-1.78594 0.0921,-0.65485 0.39583,-1.74848 0.67483,-2.4303 0.61286,-1.49766 0.63575,-2.15476 0.10338,-2.96725 -0.46735,-0.71328 -0.23987,-1.59169 0.61054,-2.35756 0.51812,-0.46661 0.61001,-0.44012 3.536096,1.01962 3.312417,1.65247 6.915557,4.2154 9.864717,7.01681 1.05777,1.00478 2.0007,1.74941 2.09539,1.65472 0.0947,-0.0947 0.17216,-0.5973 0.17216,-1.11693 0,-0.82254 -0.2363,-1.1719 -1.82626,-2.70004 -3.34679,-3.2167 -8.974767,-6.5099 -11.585753,-6.77938 -1.05914,-0.10931 -1.49969,-0.28331 -1.7094,-0.67515 -0.6319,-1.18072 -0.70266,-2.03527 -0.31078,-3.75326 0.37988,-1.66541 0.3731,-1.78796 -0.15506,-2.80126 -0.30378,-0.58281 -0.55233,-1.45609 -0.55233,-1.94062 0,-0.51054 -0.28686,-1.30369 -0.68222,-1.88628 -0.37522,-0.55293 -0.78837,-1.65755 -0.91812,-2.45474 -0.23071,-1.41754 -0.72108,-2.2424 -1.61868,-2.72277 -0.81938,-0.43852 -1.27889,-0.005 -1.27889,1.20525 0,0.88693 0.19547,1.37099 0.92347,2.2868 1.05548,1.32778 1.10112,1.58178 0.47469,2.64224 -0.42884,0.72597 -0.42884,0.81089 0,1.53686 0.50401,0.85322 0.55744,1.30436 0.21794,1.84019 -0.18969,0.29937 -0.38749,0.30195 -1.17993,0.0154 -0.52362,-0.18934 -1.03315,-0.26315 -1.13229,-0.16401 -0.0991,0.0991 0.61224,0.90643 1.58085,1.79398 1.86516,1.70908 2.0855,2.24959 1.23193,3.02205 -0.29104,0.26339 -0.52917,0.70331 -0.52917,0.97759 0,0.47221 0.70018,1.95025 1.37104,2.89419 0.24877,0.35003 0.14764,0.67304 -0.53193,1.69901 -0.93186,1.40684 -1.03474,2.10196 -0.43734,2.95486 0.36536,0.52162 0.35346,0.65284 -0.1313,1.44794 -1.16124,1.90464 -0.0312,4.35618 1.16527,2.52798 z m -2.47921,-0.22504 c -0.60622,-0.50455 -0.62383,-0.59076 -0.28191,-1.38026 0.20057,-0.46316 0.40621,-1.85413 0.45696,-3.09106 0.087,-2.12158 0.13755,-2.2882 0.89168,-2.94175 l 0.79941,-0.6928 -0.80821,-0.8082 c -0.72389,-0.72389 -0.80821,-0.97595 -0.80821,-2.41606 0,-1.41583 -0.0614,-1.60785 -0.51416,-1.60785 -0.54408,0 -1.33792,0.9204 -1.33792,1.55124 0,0.20634 0.25469,0.88514 0.56598,1.50843 0.54236,1.08597 0.54788,1.17848 0.13229,2.21715 -0.55236,1.38049 -0.54977,2.41552 0.008,3.3882 0.42107,0.73368 0.41476,0.827 -0.13229,1.95706 -0.9467,1.95564 -0.66672,2.8796 0.86753,2.86286 l 0.80698,-0.009 -0.6466,-0.53816 z m 20.093473,-4.83267 c 0,-0.60597 -2.66197,-3.16553 -4.7625,-4.57927 -2.28439,-1.53748 -4.70112,-2.79831 -7.080177,-3.69379 -2.037136,-0.76677 -2.709406,-0.79884 -2.709406,-0.12923 0,0.69004 0.37425,0.94217 2.765046,1.86278 2.076157,0.79946 5.929427,3.05294 7.950587,4.64967 2.59193,2.04766 3.83645,2.66072 3.83645,1.88984 z m 0.79375,-2.52429 c 0,-0.88104 -3.42445,-3.74814 -6.3499,-5.31644 -3.37914,-1.81151 -6.147257,-2.85873 -5.717217,-2.1629 0.0742,0.1201 1.552177,1.02074 3.284337,2.00143 1.73217,0.9807 4.32762,2.71739 5.76765,3.85931 1.44004,1.14192 2.70756,2.08675 2.8167,2.09961 0.10914,0.0129 0.19843,-0.20359 0.19843,-0.48101 z m 0.26459,-3.57739 c 0,-0.69642 -1.95628,-2.02886 -5.68854,-3.87451 -3.79816,-1.87824 -6.968897,-2.89163 -9.047473,-2.89163 -1.07562,0 -1.13755,0.0375 -0.87441,0.52917 0.20045,0.37454 0.55399,0.52917 1.20991,0.52917 1.327266,0 5.030093,1.50069 9.764503,3.95737 2.2556,1.17043 4.22143,2.12805 4.36854,2.12805 0.14711,0 0.26747,-0.16993 0.26747,-0.37762 z m -28.724523,-0.93875 c 0.87674,-0.33334 0.90009,-1.06488 0.034,-1.06488 -0.53395,0 -0.65893,-0.14771 -0.7276,-0.8599 -0.0717,-0.74343 -0.19243,-0.87061 -0.89154,-0.93898 -0.44475,-0.0435 -1.12936,0.0428 -1.52136,0.19189 -0.56871,0.21622 -0.71272,0.44183 -0.71272,1.11658 0,1.22546 0.65103,1.81332 2.00816,1.81332 0.62282,0 1.4378,-0.11611 1.81108,-0.25803 z m 2.96148,-0.72815 1.0245,-0.45701 -0.85524,-0.0886 c -0.85313,-0.0883 -0.85414,-0.0902 -0.41158,-0.76569 0.41972,-0.64057 0.41674,-0.69681 -0.0552,-1.04192 -0.57306,-0.41903 -2.51442,-0.49641 -2.51442,-0.10021 0,0.14552 0.26789,0.2664 0.59532,0.26863 1.14636,0.008 1.36407,0.40261 0.5503,0.99797 -0.63703,0.46605 -0.68215,0.5736 -0.30243,0.72082 0.24685,0.0957 0.38201,0.34062 0.30243,0.54802 -0.19435,0.50646 0.41426,0.4765 1.66634,-0.082 z m 26.292203,-0.83511 c 0,-1.08798 -6.67531,-4.73752 -10.88825,-5.95285 -2.583247,-0.74521 -5.515913,-1.15846 -5.515913,-0.77727 0,0.77442 0.8182,1.15154 3.571876,1.64629 1.600717,0.2876 3.439097,0.71147 4.085287,0.94193 1.50124,0.53543 5.31869,2.46379 7.01287,3.5425 1.35988,0.86586 1.73413,0.99522 1.73413,0.5994 z m -22.800913,-1.71605 c 0.10398,-0.52437 -0.46857,-0.56105 -1.13629,-0.0728 -0.31767,0.23228 -0.42754,0.52251 -0.31191,0.82386 0.16118,0.42002 0.23609,0.42709 0.7706,0.0728 0.32563,-0.21585 0.63056,-0.58658 0.6776,-0.82386 z m -7.93471,-0.66322 c 0.45286,-0.28708 -0.1833,-0.56194 -1.3006,-0.56194 -0.89221,0 -1.05731,-0.65121 -0.30909,-1.21919 0.40876,-0.31029 0.33347,-0.35247 -0.64255,-0.35989 -0.67559,-0.005 -1.27218,0.15817 -1.53391,0.4199 -0.3947,0.39471 -0.391,0.46984 0.0472,0.95727 0.26156,0.29093 0.71369,0.62641 1.00474,0.74554 0.70274,0.28762 2.29251,0.29827 2.73416,0.0183 z m 6.12007,-0.27996 c 0.45493,-0.85005 0.31356,-1.55215 -0.49468,-2.45673 -0.73407,-0.82156 -0.80915,-0.8455 -1.67243,-0.53334 -0.49712,0.17976 -1.09058,0.32684 -1.31878,0.32684 -0.22822,0 -0.6858,0.21933 -1.01685,0.48741 l -0.60192,0.4874 0.87169,0.17434 c 0.47943,0.0959 1.33318,0.0361 1.89723,-0.13292 0.56405,-0.169 1.09308,-0.23972 1.17564,-0.15717 0.0825,0.0826 -0.0421,0.52185 -0.2771,0.97621 -0.23496,0.45436 -0.35578,0.94167 -0.26848,1.08292 0.27813,0.45003 1.4197,0.27939 1.70568,-0.25496 z m 23.786113,-0.90042 c 0.22376,-0.26962 0.15275,-0.48295 -0.29834,-0.89616 -1.66936,-1.52918 -8.86203,-4.62045 -11.817787,-5.07905 -2.219446,-0.34436 -5.046096,-0.37423 -5.046096,-0.0533 0,0.56476 0.97659,0.91518 3.44533,1.23623 1.458006,0.18961 3.273563,0.54895 4.034563,0.79855 1.49976,0.49188 6.44949,2.92537 7.73365,3.80217 0.92178,0.62938 1.53527,0.6897 1.94868,0.19159 z m -21.399603,-3.38077 c 0.007,-0.76024 -1.04236,-1.82164 -1.8011,-1.82141 -0.9206,2.7e-4 -3.1144,0.83719 -3.68176,1.40456 -0.68689,0.68688 -0.081,1.12741 0.89244,0.64884 0.4169,-0.20497 0.98374,-0.32209 1.25963,-0.26026 0.37263,0.0835 0.45982,0.003 0.33904,-0.31131 -0.30677,-0.79944 0.92098,-0.45979 1.76853,0.48925 0.81309,0.91046 1.21363,0.86145 1.22322,-0.14967 z m 22.229043,0.61553 c 0,-0.82786 -4.98358,-3.45142 -9.30311,-4.89754 -3.368927,-1.12788 -9.217723,-1.58501 -9.217723,-0.72045 0,0.35708 0.71107,0.51408 3.58586,0.79176 1.447516,0.13982 3.286693,0.44741 4.087053,0.68354 1.74763,0.51561 6.05875,2.36627 8.55203,3.67118 2.06076,1.07854 2.29589,1.12683 2.29589,0.47151 z m -28.508853,-1.77569 c -0.0976,-0.39058 -0.92908,-0.3216 -1.06575,0.0884 -0.0807,0.242 0.0788,0.32519 0.50711,0.26458 0.34363,-0.0486 0.59502,-0.20747 0.55864,-0.35299 z m 2.3151,-2.08736 c 0,-0.20216 -0.2288,-0.64864 -0.50844,-0.99219 l -0.50844,-0.62462 -0.81448,0.7771 c -0.44796,0.42741 -0.81447,0.8739 -0.81447,0.99219 0,0.1183 0.59531,0.21508 1.32292,0.21508 0.95265,0 1.32291,-0.10287 1.32291,-0.36756 z m -3.53929,-0.49233 c 1.38612,-1.58171 1.3927,-1.62204 0.23201,-1.42152 -0.58209,0.10057 -1.39668,0.25016 -1.8102,0.33244 l -0.75186,0.14959 0.73521,0.7674 c 0.88383,0.92251 0.9326,0.92778 1.59484,0.17209 z m 28.611483,0.26458 c -0.20289,-0.62514 -3.51346,-2.05151 -6.94824,-2.99367 -4.968567,-1.36288 -11.245523,-1.69803 -11.453193,-0.61153 -0.10766,0.56325 0.92572,0.76336 2.98654,0.57834 0.9584,-0.0861 2.486166,0.0266 3.855256,0.28427 2.138757,0.40253 3.346977,0.77313 7.786407,2.38832 2.01015,0.73135 3.95486,0.91394 3.77323,0.35427 z m -22.207673,-2.67572 c 0.0577,-0.50279 -0.0962,-0.92302 -0.46302,-1.26481 -0.30218,-0.28152 -0.54941,-0.62628 -0.54941,-0.76613 0,-0.13985 -0.23812,-0.25428 -0.52917,-0.25428 -0.69522,0 -0.69027,0.76363 0.0139,2.14393 0.63866,1.25188 1.39228,1.32158 1.52769,0.14129 z m 21.842253,-0.39336 c -1.22399,-1.08443 -3.6817,-2.08706 -7.64115,-3.11725 -2.04008,-0.53079 -3.493877,-0.71486 -6.349993,-0.80395 -3.76176,-0.11736 -4.57799,0.036 -4.28304,0.80459 0.13381,0.3487 0.49388,0.39068 2.22137,0.25897 4.011686,-0.30588 9.609483,0.87687 14.539843,3.07208 1.27987,0.56985 2.38914,0.97202 2.46505,0.89373 0.0759,-0.0783 -0.35254,-0.57698 -0.95208,-1.10817 z m -27.551043,0.18669 c 1.18944,-0.29593 1.30052,-0.9029 0.33178,-1.81298 -0.36323,-0.34124 -0.69692,-0.57035 -0.74154,-0.50914 -0.0446,0.0612 -0.28321,0.43871 -0.53021,0.83889 -0.247,0.40018 -0.63539,1.01613 -0.8631,1.36877 -0.46219,0.71578 -0.58297,0.70811 1.80307,0.11446 z m -2.32524,-1.35094 0.46788,-0.72761 h -1.75702 -1.75702 l 0.40216,0.77769 c 0.22119,0.42773 0.66213,0.95978 0.97988,1.18234 0.63399,0.44407 0.54249,0.51184 1.66412,-1.23242 z m 10.20315,-0.34795 c 0.14192,-0.37328 0.25803,-1.15013 0.25803,-1.72634 0,-0.89928 -0.10298,-1.08682 -0.72712,-1.32411 -1.18597,-0.45091 -1.60003,-1.00106 -1.78933,-2.37746 -0.0985,-0.71596 -0.27634,-1.30175 -0.39527,-1.30175 -0.35341,0 -1.5862,1.59325 -1.5862,2.04999 0,0.64433 0.80246,1.3896 1.49622,1.3896 0.67649,0 0.85754,0.71541 0.31767,1.25528 -0.62308,0.62308 0.78163,2.71347 1.82341,2.71347 0.18951,0 0.46067,-0.30541 0.60259,-0.67868 z m 19.715623,-1.15606 c -0.2976,-0.48154 -4.52959,-1.92815 -7.14652,-2.44287 -2.26718,-0.44594 -3.15487,-0.4911 -6.093363,-0.31 -1.89177,0.11659 -2.96333,0.24236 -2.38125,0.2795 5.736363,0.36593 7.682883,0.67017 10.664083,1.66677 2.90992,0.97276 5.30011,1.36169 4.95705,0.8066 z m -23.688453,-0.55112 c 0.21222,-0.39655 0.19761,-0.65899 -0.0568,-1.02084 -0.66054,-0.93933 -2.01295,-1.88497 -2.69581,-1.88497 -0.78202,0 -0.88416,0.30274 -0.27319,0.8098 0.22892,0.18999 0.64245,0.78889 0.91897,1.33091 0.70051,1.37311 1.60557,1.70178 2.10686,0.7651 z m -9.51439,-0.81478 c 0.30415,-0.59619 0.5108,-1.12617 0.45923,-1.17775 -0.0516,-0.0516 -0.68496,0.057 -1.40752,0.24137 -1.50142,0.38301 -1.78252,1.1061 -0.65229,1.67791 0.94479,0.47798 0.98884,0.45757 1.60058,-0.74153 z m 4.74942,0.39719 c 0,-0.52213 -1.00278,-1.69614 -1.75524,-2.05496 -0.8726,-0.41612 -0.88767,-0.41249 -1.25028,0.30038 -0.9535,1.87455 -0.93114,1.91219 1.13561,1.91219 1.02845,0 1.86991,-0.0709 1.86991,-0.15761 z m 27.913543,-1.60073 c -2.79911,-2.21425 -10.412957,-3.61068 -16.677433,-3.05875 -3.06999,0.27047 -3.54916,0.45118 -3.55914,1.34221 -0.003,0.26475 0.19078,0.31037 0.72355,0.17036 1.38404,-0.36373 6.20768,-0.44793 9.564513,-0.16695 2.50418,0.20961 4.11335,0.51396 6.26244,1.18447 1.59078,0.49632 3.18998,0.91248 3.55378,0.92482 0.64928,0.022 0.65172,0.0147 0.13229,-0.39616 z m -36.380203,-1.68124 c 0,-0.87312 -0.0332,-1.5875 -0.0738,-1.5875 -0.16484,0 -3.64252,1.51144 -3.76923,1.63815 -0.11871,0.11871 3.10665,1.46062 3.64457,1.51631 0.10914,0.0113 0.19844,-0.69383 0.19844,-1.56696 z m 3.37857,0.4811 c 0.91232,-0.32042 1.61856,-0.70858 1.56941,-0.86257 -0.0886,-0.27758 -2.77507,-1.99978 -3.11949,-1.99978 -0.0986,0 -0.25107,0.26789 -0.33882,0.59531 -0.22683,0.84641 -0.20461,2.84376 0.0317,2.84695 0.10914,0.002 0.94488,-0.25948 1.85721,-0.57991 z m 6.05047,-0.61268 c 0.0872,-0.22724 -0.2023,-0.81952 -0.67896,-1.38906 -0.45705,-0.5461 -0.95061,-1.14173 -1.0968,-1.32363 -0.1462,-0.1819 -0.74729,-0.33073 -1.33577,-0.33073 -1.39062,0 -1.27599,0.29955 0.78473,2.05052 1.73708,1.47598 2.08453,1.62425 2.3268,0.9929 z m -14.28787,-1.36055 c -0.0925,-0.67516 -0.16826,-1.63469 -0.16826,-2.13229 0,-1.0509 -0.18548,-0.9867 -1.33214,0.46107 l -0.84163,1.06264 0.97344,0.91806 c 1.31934,1.2443 1.57368,1.18679 1.36859,-0.30948 z m 17.24395,0.41168 c 0.87586,-0.30532 1.24542,-0.98213 0.98475,-1.80345 -0.0877,-0.27645 -0.81014,-0.8107 -1.60533,-1.1872 -1.35248,-0.64036 -1.4458,-0.74536 -1.4458,-1.62665 0,-1.04174 -1.01131,-2.23975 -1.89072,-2.23975 -0.51833,0 -1.39936,0.74432 -1.60505,1.35599 -0.1023,0.30422 -0.19247,0.30592 -0.55058,0.0104 -0.39262,-0.32406 -0.3852,-0.43376 0.0893,-1.319 0.34326,-0.64044 0.51751,-1.48257 0.51751,-2.50112 v -1.53557 l -2.31511,0.0764 -2.3151,0.0764 -0.0878,0.92498 c -0.11365,1.19778 -0.46005,1.58856 -1.40815,1.58856 -0.86119,0 -1.25848,0.61536 -0.83461,1.29274 0.42099,0.67278 1.43846,0.64006 2.81236,-0.0905 0.69627,-0.37022 1.36397,-0.67312 1.48377,-0.67312 0.1198,0 0.27122,0.64388 0.33648,1.43084 0.0653,0.78696 0.3297,1.75293 0.58764,2.1466 0.44096,0.67298 0.5643,0.70888 2.0632,0.60046 1.54634,-0.11185 1.60909,-0.0909 2.08996,0.69767 0.27267,0.44713 0.4962,1.01358 0.49675,1.25877 0.004,1.63313 0.84771,2.1261 2.59653,1.51646 z m 22.645363,-0.58073 c 0.35049,-0.56601 0.0164,-0.84001 -1.5607,-1.28014 -2.54804,-0.71107 -5.35345,-1.05115 -9.927513,-1.20345 -5.3601,-0.17847 -8.14414,0.007 -8.89854,0.5914 -0.46867,0.36333 -0.46176,0.40134 0.16984,0.93504 0.54653,0.46181 0.86113,0.52597 1.85208,0.37774 3.59315,-0.53749 4.79083,-0.59454 8.123116,-0.38689 2.503447,0.15601 4.362037,0.4307 5.902887,0.87243 2.59872,0.745 3.91796,0.77355 4.33883,0.0939 z m -36.570443,-0.38934 c 0.98891,-0.40018 1.79948,-0.79798 1.80128,-0.88399 0.005,-0.23238 -2.39863,-1.46984 -3.23789,-1.66708 l -0.7276,-0.17099 v 1.72483 c 0,0.94866 0.0824,1.72483 0.18309,1.72483 0.10071,0 0.99221,-0.32742 1.98112,-0.7276 z m 6.83162,-1.53723 c 0,-0.0815 -0.41672,-0.69392 -0.92604,-1.36096 -0.50932,-0.66704 -0.92604,-1.4338 -0.92604,-1.70392 0,-0.80497 -0.70184,-0.55776 -1.16048,0.40876 -0.60723,1.27965 -0.53965,1.62762 0.43287,2.22885 0.78412,0.48475 2.57969,0.78215 2.57969,0.42727 z m 29.897913,-0.92367 c 0,-0.4173 -1.57617,-0.99541 -4.44329,-1.62973 -2.23921,-0.4954 -3.4324,-0.57059 -9.315043,-0.58695 -5.93691,-0.0165 -6.89774,0.0394 -8.00364,0.46613 -1.32574,0.51151 -1.62786,1.07613 -0.70495,1.31748 0.3035,0.0794 1.76202,-0.0968 3.24115,-0.39152 3.74914,-0.74699 11.267733,-0.54336 14.863053,0.40254 2.60454,0.68523 4.36272,0.85532 4.36272,0.42205 z m -34.395833,-1.29866 0.66146,-0.20108 -0.791,-0.31926 c -0.43676,-0.17629 -1.18601,-0.24516 -1.67306,-0.15379 -0.73076,0.13709 -0.8278,0.23087 -0.56567,0.54672 0.33688,0.40592 1.28443,0.4569 2.36827,0.12741 z m -2.79312,-1.39254 c 0.58846,-0.84015 0.5098,-1.26405 -0.23458,-1.26405 -0.64254,0 -1.47021,0.85237 -1.47021,1.51409 0,0.5672 1.26202,0.3821 1.70479,-0.25004 z m 15.15443,-0.19931 c 3.61993,-1.13488 9.41518,-1.2127 17.273733,-0.23195 2.10483,0.26268 2.64574,0.25269 3.28966,-0.0608 1.59197,-0.775 1.02748,-1.23961 -2.41127,-1.98465 -3.23001,-0.69981 -12.085153,-0.66048 -15.437403,0.0686 -3.92755,0.85416 -6.23034,2.04203 -4.95572,2.55635 0.49954,0.20156 0.47973,0.20464 2.241,-0.34754 z m -1.52665,-2.38096 c 3.07705,-1.55328 4.93087,-1.91086 10.59659,-2.04393 4.273383,-0.10037 5.727313,-0.0314 8.466663,0.40144 1.81902,0.28744 3.35813,0.47419 3.42028,0.41501 0.15472,-0.14737 -0.70769,-0.80167 -1.88161,-1.42755 -1.75557,-0.93598 -7.140217,-1.40981 -12.507673,-1.10066 -4.23911,0.24417 -4.81948,0.34079 -7.46325,1.24253 -3.641,1.24186 -4.34749,1.60278 -4.14914,2.11967 0.14493,0.37766 1.29691,1.1465 1.75301,1.16995 0.11329,0.006 0.9076,-0.34358 1.76513,-0.77646 z"
                 style="fill:#2a3790;stroke-width:0.0700042"
                 id="path1593" />
              <path
                 d="m 76.596382,157.29547 c -0.173228,-0.2803 0.762254,-1.33258 1.184661,-1.33258 0.431173,0 0.301855,0.67801 -0.219271,1.14962 -0.556464,0.50359 -0.745125,0.53934 -0.96539,0.18296 z m -11.51534,-1.4595 c 0,-0.0698 0.1989,-0.62406 0.442003,-1.23163 l 0.442004,-1.10467 -0.723466,-0.6223 c -0.772179,-0.6642 -0.670737,-0.7898 0.7655,-0.94778 l 0.79375,-0.0873 -0.858223,-0.51937 c -0.472022,-0.28566 -0.858975,-0.64775 -0.859896,-0.80466 -0.0013,-0.24055 2.149303,-0.90534 2.92893,-0.90534 0.134419,0 0.244398,0.42935 0.244398,0.95411 0,0.69499 -0.174436,1.09132 -0.642304,1.45935 -0.353268,0.27788 -0.781684,0.92755 -0.952036,1.44373 -0.259753,0.78706 -0.241497,1.01389 0.113139,1.40576 0.62394,0.68944 0.560366,1.17741 -0.0997,0.76519 -0.412352,-0.25752 -0.590918,-0.25799 -0.846667,-0.002 -0.324382,0.32438 -0.747437,0.43598 -0.747437,0.19717 z m 14.022918,-2.51891 c 0,-0.29398 0.176389,-0.52917 0.396875,-0.52917 0.220485,0 0.396875,0.23519 0.396875,0.52917 0,0.29398 -0.17639,0.52918 -0.396875,0.52918 -0.220486,0 -0.396875,-0.2352 -0.396875,-0.52918 z m -13.956804,-6.45844 c -1.009552,-0.65456 -1.070166,-0.88318 -0.264552,-0.99777 0.598287,-0.0851 0.691923,-0.46356 0.331814,-1.34119 -0.355113,-0.86543 0.821981,-0.51568 1.571458,0.46693 l 0.709307,0.92995 -0.747549,0.74755 -0.747552,0.74756 z m 11.0626,-4.58792 c -0.974336,-1.13035 -5.405232,-9.57272 -5.15759,-9.82695 0.05546,-0.0569 0.767957,0.41117 1.583329,1.04022 1.463244,1.12889 5.033137,5.076 7.267633,8.03556 1.345978,1.78273 1.22704,1.99759 -1.10931,2.00389 -1.463781,0.004 -1.527469,-0.0269 -2.584062,-1.25272 z m -10.592109,-3.68866 c -1.222121,-1.55367 -0.184776,-2.45284 2.836833,-2.459 2.124733,-0.004 2.645201,0.44963 0.661459,0.57693 -1.235658,0.0793 -1.331373,0.17939 -0.995605,1.04123 0.118422,0.30397 -0.09999,0.59712 -0.73923,0.99219 -1.133342,0.70045 -1.090548,0.70412 -1.763457,-0.15135 z"
                 style="fill:#221e1f;stroke-width:0.0700042"
                 id="path1865" />
            </g>
          </g>
        </g>
      </g>
    </g>
  </g>
</svg>
