<?xml version="1.0" encoding="UTF-8" standalone="no"?>
<!-- Created with Inkscape (http://www.inkscape.org/) -->

<svg
   width="6.7783017mm"
   height="8mm"
   viewBox="0 0 6.7783018 7.9999999"
   version="1.1"
   id="svg47190"
   inkscape:version="1.1.1 (3bf5ae0d25, 2021-09-20)"
   sodipodi:docname="43rd.svg"
   xmlns:inkscape="http://www.inkscape.org/namespaces/inkscape"
   xmlns:sodipodi="http://sodipodi.sourceforge.net/DTD/sodipodi-0.dtd"
   xmlns="http://www.w3.org/2000/svg"
   xmlns:svg="http://www.w3.org/2000/svg">
  <sodipodi:namedview
     id="namedview47192"
     pagecolor="#ffffff"
     bordercolor="#666666"
     borderopacity="1.0"
     inkscape:pageshadow="2"
     inkscape:pageopacity="0.0"
     inkscape:pagecheckerboard="0"
     inkscape:document-units="mm"
     showgrid="false"
     inkscape:zoom="16"
     inkscape:cx="10.03125"
     inkscape:cy="18.90625"
     inkscape:window-width="1920"
     inkscape:window-height="1017"
     inkscape:window-x="-8"
     inkscape:window-y="-8"
     inkscape:window-maximized="1"
     inkscape:current-layer="g4299"
     inkscape:snap-bbox="true"
     inkscape:snap-bbox-midpoints="true"
     inkscape:snap-page="true" />
  <defs
     id="defs47187">
    <clipPath
       clipPathUnits="userSpaceOnUse"
       id="clipPath63680-8">
      <path
         d="M 0,0 H 595.276 V 841.89 H 0 Z"
         id="path63678-4" />
    </clipPath>
  </defs>
  <g
     inkscape:label="Layer 1"
     inkscape:groupmode="layer"
     id="layer1"
     transform="translate(-95.702099,-80.916057)">
    <g
       inkscape:label="Capa 1"
       id="layer1-5"
       transform="matrix(0.01238547,0,0,0.01238547,86.37603,76.630162)">
      <g
         id="g4299"
         transform="translate(1.9492421e-6)">
        <path
           d="m 843.63198,970.63294 -4.00102,-21.32748 H 828.07998 816.5284 l -3.82736,6.193 -3.82738,6.1929 -5.6725,-3.50587 -5.6725,-3.50577 v -5.29872 -5.29852 l 10.31885,-10.31917 10.31884,-10.31869 -10.38648,-7.5949 -10.38649,-7.59481 9.17265,-7.61292 9.17326,-7.61279 15.26864,3.7639 15.26926,3.76372 14.74826,3.66448 14.7483,3.66435 19.03936,-26.28303 19.03869,-26.2827 -4.06988,-55.44921 -4.07046,-55.44904 10.18296,-19.69127 10.18228,-19.69136 14.94265,-5.68082 14.94207,-5.68101 14.92681,5.67528 14.9268,5.67527 6.8205,25.32794 6.81993,25.32803 -4.06919,24.08822 -4.07,24.08784 -20.72419,20.72429 -20.7242,20.72429 v 4.94112 4.94073 l 10.05248,14.35211 10.05258,14.35191 -14.22483,10.73005 -14.22484,10.72989 10.26531,15.66757 10.26638,15.66767 v 3.47116 3.47096 l -29.95414,-3.97343 -29.95415,-3.97352 -21.84113,21.84122 -21.84122,21.84132 v 6.29657 6.29664 h -5.41597 -5.41473 z m 298.02672,-45.39907 9.297,-17.97805 v -24.28027 -24.28023 l -5.8986,-15.51425 -5.8986,-15.51425 -9.0428,3.47 -9.0434,3.47028 -4.1931,27.96179 -4.1929,27.96189 13.7587,11.14097 13.7586,11.14112 -7.5573,9.10589 -7.5571,9.10598 h -14.4882 -14.4874 l -12.916,-12.91549 -12.9153,-12.91569 3.6922,-26.93823 3.692,-26.93839 6.5482,-12.23424 6.5475,-12.23442 12.579,3.99268 12.579,3.99239 -4.1693,-6.74641 -4.1698,-6.74651 h -10.6089 -10.6083 l -7.3123,-7.31227 -7.3122,-7.31226 v -10.62876 -10.62845 l 13.7105,-15.29549 13.7105,-15.29519 22.5772,-3.95214 22.5773,-3.95204 3.7098,14.77951 3.7091,14.77941 12.9666,-0.44237 12.9664,-0.44238 3.8664,18.28071 3.8676,18.28063 7.1514,13.30975 7.152,13.30994 v 28.12435 28.12426 l -9.4322,18.24001 -9.4322,18.23968 -15.3388,5.83191 -15.3387,5.8318 h -8.9003 -8.9002 l 9.2969,-17.97805 z m 71.3277,-97.7999 -5.8388,-15.23395 8.4651,-9.61992 8.4658,-9.62023 v -9.33904 -9.33904 l -16.1778,3.09266 -16.1772,3.09257 3.9066,-14.6013 3.9072,-14.60129 0.091,-32.30138 0.091,-32.30127 20.1393,15.36111 20.1397,15.36131 30.1321,13.35836 30.1328,13.35816 -6.0936,1.5246 -6.0936,1.5246 -16.7573,3.69595 -16.7573,3.69575 v 12.2669 12.26671 l -8.4901,19.60843 -8.4903,19.60854 -9.3706,12.18718 -9.3707,12.18688 -5.8389,-15.23385 z m -216.22118,-3.88223 -3.88225,-3.88243 12.66183,-17.78223 12.6625,-17.78236 19.1491,1.86081 19.149,1.861 2.0566,14.54483 2.0566,14.54471 -8.1502,5.166 -8.1502,5.1661 -21.835,0.0924 -21.8357,0.0924 -3.88228,-3.88252 z m -134.36383,-26.63818 -16.1242,-19.16304 v -5.14189 -5.14208 l -19.8041,-4.23439 -19.80408,-4.23467 -7.61696,-6.13613 -7.61696,-6.13593 v -5.34752 -5.34752 h 12.18713 12.18714 v -23.15533 -23.15572 l -7.31229,-7.31227 -7.31227,-7.31226 h -24.10007 -24.10005 l 11.02936,-12.18718 11.02875,-12.18698 h 17.3362 17.3368 v -5.73399 -5.734 l -7.08499,-4.37876 -7.08499,-4.37896 -18.81328,-3.9044 -18.81206,-3.9044 16.75731,-11.05799 16.75731,-11.0578 14.41251,9.44356 14.41249,9.44355 6.71512,-6.71481 6.71513,-6.71491 2.59464,8.6359 2.59463,8.6358 6.38362,33.51466 6.38419,33.51465 3.89264,19.80405 3.89253,19.80415 h 5.60916 5.60975 v -14.128 -14.12781 l 9.27681,-31.23918 9.27681,-31.23908 15.9189,-12.52173 15.91939,-12.52192 h 8.97035 8.97036 l -4.55008,10.66374 -4.55066,10.66374 -8.96423,27.42092 -8.96423,27.42112 -5.77609,19.70264 -5.77493,19.70264 -2.90356,35.13629 -2.90355,35.13621 -8.03505,8.03504 -8.03553,8.03524 z m 155.01201,-43.74107 -6.7701,-19.41933 4.6501,-4.31829 4.6506,-4.31829 13.7105,5.2607 13.7105,5.26051 v 18.47711 18.47691 h -11.5912 -11.5912 z m 89.3639,-33.78456 -16.7572,-17.53888 v -9.67845 -9.67826 l 8.1373,-3.1228 8.1373,-3.1227 19.4696,12.32698 19.4689,12.32699 -8.8119,6.90129 -8.8118,6.9009 -2.0384,11.11186 -2.0383,11.11195 z m -99.31,-14.29357 -4.4684,-7.22992 9.6645,-5.40848 9.6644,-5.40858 12.9891,-18.24183 12.9896,-18.24153 5.6359,-39.79866 5.636,-39.79875 11.7088,-22.58228 11.7088,-22.58189 41.5964,-40.45105 41.5972,-40.45114 44.8078,-34.19514 44.8085,-34.19504 13.0804,0.27427 13.0811,0.27418 -27.2541,22.57683 -27.2535,22.57713 -42.0669,36.56142 -42.0664,36.56143 -17.7468,24.71687 -17.7464,24.71688 -11.4668,55.96811 -11.4669,55.96811 -14.2742,25.95252 -14.2754,25.95252 -22.2068,1.85624 -22.2074,1.85623 -4.4685,-7.23001 z m 135.6143,-12.26554 -23.1081,-12.19534 -6.6377,-14.56785 -6.6371,-14.56795 3.6562,-9.52892 3.6567,-9.52882 h 24.0671 24.0673 l 9.4096,3.61078 9.4097,3.61068 -9.5437,14.56571 -9.5438,14.56561 6.4092,18.38494 6.4087,18.38513 -4.2528,-0.26931 -4.2533,-0.26932 z m -158.38777,-9.31298 -3.76586,-3.76624 3.43743,-19.08477 3.43674,-19.08468 24.16896,-51.79537 24.1696,-51.79536 11.9501,-24.76199 11.9501,-24.76247 -3.7067,-9.6594 -3.7067,-9.6593 6.5091,-4.02282 6.5091,-4.02282 v -6.21809 -6.21808 l -18.3172,4.02301 -18.3173,4.02331 6.1302,-16.12298 6.1301,-16.12268 v -29.57283 -29.57263 l 3.6987,-9.63888 3.6983,-9.63859 h 7.8832 7.8833 l 5.38,22.85091 5.38,22.85073 13.5155,1.9484 13.5149,1.94841 -3.5519,14.1524 -3.552,14.1527 9.9271,19.19667 9.927,19.19688 -30.7042,40.87184 -30.7049,40.87184 -3.3107,21.32748 -3.31,21.32738 -9.3505,36.56143 -9.3512,36.56142 -12.8295,13.71041 -12.8294,13.71081 h -7.06253 -7.06241 z m -59.20029,-11.40976 v -10.40337 l 9.37559,-19.75777 9.37559,-19.75767 20.69066,-20.05401 20.69016,-20.05412 10.37189,3.97995 10.37117,3.98004 -9.53396,10.53647 -9.53458,10.53667 -13.00552,30.34304 -13.00553,30.34315 -1.15407,1.15154 -1.15358,1.15378 -16.74445,4.20269 -16.74512,4.20269 z m 199.56456,-52.34139 -10.6638,-6.21118 v -10.93986 -10.93986 l 12.4151,-11.23582 12.4155,-11.23601 36.333,-2.62802 36.3335,-2.62802 v 4.32578 4.32568 l -13.7106,11.24359 -13.7105,11.2437 7.2581,11.92719 7.2586,11.9269 -3.7036,3.70392 -3.7043,3.70353 -27.9287,-0.18405 -27.9286,-0.18405 -10.6637,-6.21108 z m -191.94759,-21.88915 -7.61697,-3.01264 v -8.6327 -8.6323 h 6.09363 6.09354 v -6.62925 -6.62925 l -25.89768,4.28999 -25.89769,4.29019 -9.99162,5.24019 -9.99093,5.24038 -3.02791,-10.51809 -3.02791,-10.5182 -4.50924,-10.97321 -4.50865,-10.97331 17.52817,4.29457 17.52809,4.29457 4.13395,6.33232 4.13385,6.33204 15.95663,-7.27066 15.9572,-7.27026 h 11.90017 11.90074 v -6.75429 -6.75399 l -15.14128,3.80007 -15.14139,3.80037 -11.51806,-11.51845 -11.51807,-11.51816 -7.72907,-2.57649 -7.72907,-2.5762 7.18188,-13.41932 7.1813,-13.41912 h 12.54361 12.54302 l 3.18697,-12.18727 3.18687,-12.18717 h 26.71059 26.71049 v -18.94127 -18.94117 l 15.23397,3.82331 15.23396,3.82351 v -15.70947 -15.70977 l 6.7828,4.19209 6.7827,4.19209 -2.9408,31.20554 -2.9401,31.20554 -4.4946,10.66384 -4.4941,10.66364 h 9.0491 9.0489 l 9.5638,-13.71051 9.5645,-13.7107 0.323,12.35469 0.3169,12.35489 -8.2757,12.01956 -8.2757,12.01955 -4.1845,22.83575 -4.1844,22.83575 -19.5312,9.89031 -19.53049,9.89031 -9.14099,7.68473 -9.13973,7.68494 -12.18775,3.22547 -12.18718,3.22537 -7.61629,-3.01235 z m 215.81359,-48.71457 -4.062,-4.0621 v -14.07802 -14.07793 l 13.7105,-8.82996 13.7106,-8.83006 22.8046,-4.1672 22.8052,-4.16721 9.6418,3.70003 9.6412,3.69984 -12.5082,15.90159 -12.5083,15.9017 6.174,11.53585 6.1734,11.53586 h -35.7601 -35.7601 z m 72.1076,-69.06036 -36.5614,-3.04677 36.5614,-28.94057 36.5614,-28.94066 h 7.9765 7.9765 l -4.7719,7.61707 -4.7718,7.61697 -3.2047,24.37416 -3.2046,24.37415 z"
           style="fill:#f7d314;stroke-width:1.61226"
           id="path30789" />
      </g>
    </g>
  </g>
</svg>
