<?xml version="1.0" encoding="UTF-8" standalone="no"?>
<!-- Created with Inkscape (http://www.inkscape.org/) -->

<svg
   width="8.3085728mm"
   height="8.090642mm"
   viewBox="0 0 8.3085729 8.0906419"
   version="1.1"
   id="svg47190"
   inkscape:version="1.1.1 (3bf5ae0d25, 2021-09-20)"
   sodipodi:docname="49th.svg"
   xmlns:inkscape="http://www.inkscape.org/namespaces/inkscape"
   xmlns:sodipodi="http://sodipodi.sourceforge.net/DTD/sodipodi-0.dtd"
   xmlns="http://www.w3.org/2000/svg"
   xmlns:svg="http://www.w3.org/2000/svg">
  <sodipodi:namedview
     id="namedview47192"
     pagecolor="#ffffff"
     bordercolor="#666666"
     borderopacity="1.0"
     inkscape:pageshadow="2"
     inkscape:pageopacity="0.0"
     inkscape:pagecheckerboard="0"
     inkscape:document-units="mm"
     showgrid="false"
     inkscape:zoom="11.313709"
     inkscape:cx="14.628271"
     inkscape:cy="14.009552"
     inkscape:window-width="1920"
     inkscape:window-height="1017"
     inkscape:window-x="-8"
     inkscape:window-y="-8"
     inkscape:window-maximized="1"
     inkscape:current-layer="g4299"
     inkscape:snap-bbox="true"
     inkscape:snap-bbox-midpoints="true"
     inkscape:snap-page="true" />
  <defs
     id="defs47187">
    <clipPath
       clipPathUnits="userSpaceOnUse"
       id="clipPath63680-8">
      <path
         d="M 0,0 H 595.276 V 841.89 H 0 Z"
         id="path63678-4" />
    </clipPath>
  </defs>
  <g
     inkscape:label="Layer 1"
     inkscape:groupmode="layer"
     id="layer1"
     transform="translate(-86.473426,-76.723219)">
    <g
       inkscape:label="Capa 1"
       id="layer1-5"
       transform="matrix(0.01238547,0,0,0.01238547,86.37603,76.630162)">
      <g
         id="g4299"
         transform="translate(1.9492421e-6)">
        <rect
           style="fill:#ffffff;stroke-width:13.9599;stroke-linejoin:round;paint-order:markers fill stroke;stop-color:#000000"
           id="rect25409"
           width="583.97565"
           height="439.22968"
           x="51.292011"
           y="114.51685" />
        <path
           d="M 51.292011,334.13172 V 114.51685 H 343.27974 635.26766 v 219.61487 219.6148 H 343.27974 51.292011 Z m 436.652039,188.48925 39.84806,-5.89751 -12.39615,-3.45155 -12.39631,-3.45171 35.82955,-0.49794 35.83021,-0.49811 7.84311,-7.84326 7.84391,-7.84326 v -9.38843 -9.38827 l -25.14704,-25.14672 -25.14623,-25.14655 -11.81787,-2.96593 -11.81737,-2.96608 -13.10435,8.58612 -13.10417,8.58611 -3.17117,-3.1718 -3.17213,-3.17181 h 6.05043 6.04977 l 12.25101,-12.25117 12.25166,-12.25118 v -32.12498 -32.12498 l 17.59162,-24.25338 17.59114,-24.25354 11.28121,-23.95111 11.2817,-23.95111 3.57029,3.57029 3.57012,3.57013 v -7.6936 -7.69391 l -32.35726,-32.67719 -32.35712,-32.67735 -26.28983,-9.61828 -26.29001,-9.61829 -89.84246,1.29409 -89.84238,1.2941 -15.84604,4.981 -15.84584,4.98117 -1.76572,-1.76562 -1.76572,-1.76579 -20.6763,-4.64555 -20.67573,-4.6457 2.21111,5.76323 2.21168,5.76307 -6.87499,9.40236 -6.87538,9.40252 -8.20854,-3.1501 -8.20872,-3.14978 0.39427,-6.39577 0.39427,-6.39578 2.51748,6.23913 2.5171,6.23915 h 6.53712 6.53695 l 2.69329,-7.0178 2.69274,-7.01812 -9.64602,-8.72932 -9.64563,-8.72939 v 5.94052 5.94044 l -8.73466,-4.57524 -8.73466,-4.57507 -38.68215,2.56031 -38.682125,2.56016 v 4.61557 4.61557 l 22.253945,9.84393 22.25356,9.84377 2.99719,4.84915 2.99664,4.84915 h -17.46932 -17.46932 l -3.10661,5.02653 -3.10643,5.02668 6.55542,2.08765 6.55543,2.08781 23.80481,3.1885 23.80535,3.18849 -2.62048,4.23928 -2.61991,4.23944 31.04162,20.72861 31.04105,20.7286 3.08699,-8.79945 3.08662,-8.79946 2.86647,10.96308 2.86704,10.96291 h 5.30207 5.30169 l -2.95325,-8.73466 -2.95287,-8.73466 8.3838,11.23034 8.38434,11.23019 h 4.55145 4.55163 l -2.82062,-7.35051 -2.82063,-7.35067 21.35656,19.52215 21.35711,19.52198 1.12433,6.54561 1.12433,6.54594 10.70317,23.7658 10.70374,23.76597 -2.71517,4.393 -2.71536,4.39301 -31.23459,14.89848 -31.23478,14.89815 -24.49997,3.53627 -24.50051,3.53626 -11.68603,4.44323 -11.68658,4.44322 v 24.30618 24.30618 l 9.98255,9.03401 9.98256,9.03417 v 6.17127 6.1711 l 19.4218,7.77118 19.42199,7.77118 29.24212,0.0162 29.24327,0.0162 47.41674,15.01267 47.41708,15.01252 24.95606,-2.42053 24.95623,-2.42069 39.84821,-5.89735 z m -8.65286,-17.10129 6.23913,-2.51772 6.23914,2.51772 6.23881,2.51755 h -12.47795 -12.47811 z m -196.38706,-21.0874 0.47917,-6.92368 11.48398,-4.23944 11.48285,-4.23944 -3.04324,4.92414 -3.04322,4.92399 h -6.82595 -6.82652 l -2.09434,6.23881 -2.09433,6.23914 0.47916,-6.92352 z m 131.50081,-0.90354 -18.71709,-9.88102 v -2.47787 -2.47787 l 21.21294,10.69742 21.21261,10.69758 2.07939,1.88274 2.07972,1.88258 -4.57476,-0.22062 -4.57556,-0.22079 -18.71725,-9.88118 z M 247.947,464.50647 l -19.46575,-14.3709 -19.94814,-21.81567 -19.94794,-21.81552 24.93912,23.23661 24.93931,23.23659 19.41351,12.94998 19.41388,12.94997 h -4.9393 -4.93836 z m 72.87224,-5.14817 12.47794,-10.20645 4.99138,-0.0373 4.99118,-0.0373 -7.48677,5.08192 -7.48696,5.08193 -9.98256,5.15902 -9.98236,5.1592 12.47815,-10.20646 z m 57.10529,1.77518 -9.68858,-7.76227 11.23035,5.44233 11.23019,5.44202 v 2.31993 2.3201 h -1.54113 -1.54127 z m 59.99433,-37.37392 -9.22839,-10.19721 8.45475,3.24438 8.45508,3.24453 0.39427,-9.26872 0.39427,-9.26872 2.42377,5.95874 2.42425,5.95875 8.41231,-3.04401 8.41215,-3.04384 -12.47811,10.6451 -12.47811,10.6451 6.41424,0.16976 6.41473,0.16976 13.55028,-8.3992 13.55077,-8.39919 -11.02187,10.89488 -11.02156,10.89473 h -6.92173 -6.92239 l -9.22839,-10.19722 z m -128.06294,-11.46117 -6.68429,-6.6846 -7.39809,-2.90388 -7.39755,-2.90357 7.09363,-0.39427 7.094,-0.39426 9.98559,-8.73483 9.98594,-8.73466 -3.38505,5.81264 -3.38449,5.81296 6.27001,2.52791 6.27039,2.52777 -8.73467,0.39427 -8.73465,0.39427 v 5.57338 5.57354 l 9.98896,-2.61231 9.98954,-2.61232 -2.5871,4.18615 -2.58688,4.18599 13.81034,2.08732 13.81076,2.08765 -18.36088,0.74708 -18.36068,0.74691 z m 61.97073,-13.6073 15.30068,-15.30101 -3.27888,-42.6601 -3.27921,-42.6601 7.99553,3.06814 7.9957,3.06814 19.95642,3.19108 19.95594,3.19109 1.46952,5.53272 1.46968,5.53289 8.94961,28.20028 8.94946,28.20027 -14.07252,16.7208 -14.07268,16.72096 3.36603,-10.61141 3.36618,-10.61174 -11.37014,-3.04594 -11.36998,-3.04627 -11.55286,-0.0762 -11.55269,-0.0761 -12.59945,14.9738 -12.59943,14.97364 h -4.16347 -4.1638 l 15.30117,-15.30085 z m 88.74745,0.32639 7.48673,-4.83846 h 4.99138 4.99121 l -7.4869,4.83846 -7.4869,4.83831 h -4.99121 -4.99137 z m 20.75306,-14.97379 v -12.47811 l 2.51707,6.23897 2.51755,6.23914 -2.51755,6.23913 -2.51707,6.23898 z m -148.02998,-5.96425 9.98256,-5.6607 3.66708,-5.41787 3.66657,-5.41772 0.0762,6.06354 0.0761,6.06339 -9.65443,5.1668 -9.65451,5.16681 -4.07134,-0.15065 -4.07155,-0.15064 9.98255,-5.6607 z M 327.6282,328.789 312.10702,299.19243 h 3.3162 3.31601 l 13.75545,28.04655 13.75547,28.04624 -1.55067,1.55067 -1.55065,1.55066 z m 141.04915,17.62743 -3.11219,-8.11038 0.15064,-3.33524 0.15064,-3.3351 5.29736,9.10901 5.29656,9.10901 -2.33646,2.33662 -2.3363,2.33629 -3.11204,-8.11021 z m -17.27526,-39.95075 -5.80179,-12.73406 0.19989,-3.50857 0.20005,-3.50857 7.6774,14.16712 7.67755,14.16728 -2.07534,2.07534 -2.07517,2.07533 -5.80244,-12.73387 z m -69.26047,-34.72484 0.0762,-24.95638 2.08586,13.79456 2.08588,13.79455 -2.15374,11.16167 -2.15439,11.16167 0.0762,-24.95607 z m 59.62533,-2.49584 v -17.46933 l 2.28251,8.73466 2.28253,8.73467 -2.28253,8.73482 -2.28251,8.73466 z m -184.28769,-47.41676 0.0565,-29.94744 2.01945,16.31097 2.02002,16.31082 -2.07038,13.63662 -2.07095,13.63646 0.0566,-29.94743 z m 192.93359,18.28977 5.9785,-11.65782 3.04206,3.0419 3.04173,3.04189 -9.02056,8.61593 -9.02024,8.61576 z m -213.18658,-13.2984 0.0943,-19.96517 2.17075,11.2885 2.17055,11.28866 -2.27149,8.67635 -2.2709,8.67651 0.0943,-19.96485 z m 138.89036,9.56661 0.39427,-9.56661 2.62154,6.55079 2.6214,6.55112 -3.01534,3.0155 -3.01565,3.01549 0.39426,-9.56629 z M 222.15219,224.32376 v -17.46932 l 2.2826,8.73466 2.28242,8.73466 -2.28242,8.73482 -2.2826,8.73467 z m 144.08925,-11.45712 -6.60781,-11.00341 8.99513,8.61592 8.99513,8.61577 -2.38715,2.38748 -2.38733,2.38749 z m -163.73479,-10.4031 11.00086,-16.86885 1.61668,1.43178 1.6167,1.43193 -7.98291,15.4374 -7.9831,15.43756 h -4.63334 -4.6333 z m -26.43358,8.31803 7.48695,-2.77187 7.48679,-5.56883 7.48695,-5.5687 -6.85066,8.73467 -6.8499,8.73466 -8.12384,-0.39427 -8.12308,-0.39427 7.48679,-2.77186 z M 146.1256,164.42889 v -4.99121 h 5.28566 5.28584 l -3.08455,4.99121 -3.0851,4.99138 h -2.20075 -2.2011 z"
           style="fill:#000000;stroke-width:1.32059"
           id="path25114" />
      </g>
    </g>
  </g>
</svg>
