<?xml version="1.0" encoding="UTF-8" standalone="no"?>
<!-- Created with Inkscape (http://www.inkscape.org/) -->

<svg
   width="7.4019561mm"
   height="7.9999995mm"
   viewBox="0 0 7.4019562 7.9999994"
   version="1.1"
   id="svg47190"
   inkscape:version="1.1.1 (3bf5ae0d25, 2021-09-20)"
   sodipodi:docname="761stAm.svg"
   xmlns:inkscape="http://www.inkscape.org/namespaces/inkscape"
   xmlns:sodipodi="http://sodipodi.sourceforge.net/DTD/sodipodi-0.dtd"
   xmlns="http://www.w3.org/2000/svg"
   xmlns:svg="http://www.w3.org/2000/svg">
  <sodipodi:namedview
     id="namedview47192"
     pagecolor="#ffffff"
     bordercolor="#666666"
     borderopacity="1.0"
     inkscape:pageshadow="2"
     inkscape:pageopacity="0.0"
     inkscape:pagecheckerboard="0"
     inkscape:document-units="mm"
     showgrid="false"
     inkscape:zoom="16.000001"
     inkscape:cx="18.718749"
     inkscape:cy="20.343749"
     inkscape:window-width="1920"
     inkscape:window-height="1017"
     inkscape:window-x="-8"
     inkscape:window-y="-8"
     inkscape:window-maximized="1"
     inkscape:current-layer="layer1-5"
     inkscape:snap-bbox="true"
     inkscape:snap-bbox-midpoints="true"
     inkscape:snap-page="true"
     inkscape:snap-bbox-edge-midpoints="false"
     inkscape:snap-nodes="false"
     inkscape:bbox-nodes="true" />
  <defs
     id="defs47187">
    <clipPath
       clipPathUnits="userSpaceOnUse"
       id="clipPath63680-8">
      <path
         d="M 0,0 H 595.276 V 841.89 H 0 Z"
         id="path63678-4" />
    </clipPath>
  </defs>
  <g
     inkscape:label="Layer 1"
     inkscape:groupmode="layer"
     id="layer1"
     transform="translate(-95.587164,-80.934645)">
    <g
       inkscape:label="Capa 1"
       id="layer1-5"
       transform="matrix(0.01238547,0,0,0.01238547,86.37603,76.630162)">
      <g
         id="g939"
         transform="matrix(0.06582569,0,0,0.06582569,934.90061,623.76086)">
        <path
           id="path30583"
           style="fill:#f6e5c9;stroke-width:486.614;stroke-linejoin:round;paint-order:stroke fill markers;stop-color:#000000"
           d="m -1836.8362,-4078.1452 c -45.6529,-2e-4 -83.2441,35.8823 -85.3661,81.4859 l -16.6894,358.446 -47.7733,5748.3206 c -11.1441,-7.5758 -18.9596,-11.427 -28.2468,-16.3974 -22.237,-11.9012 -46.9299,-17.7923 -70.2622,-18.5669 -81.9665,-2.7209 -145.1672,41.9947 -203.7773,99.3018 -58.6101,57.3072 -112.0874,134.0111 -154.1263,223.8461 -23.5132,50.2465 -40.8525,93.6064 -50.4019,153.9178 -9.5495,60.3116 -13.5233,136.203 -20.4028,275.2912 -3.9429,79.7162 -9.4885,159.226 -15.1039,222.1773 -5.6154,62.9516 -15.2652,120.3109 -13.5184,114.072 -11.6188,41.4984 -85.4289,179.6191 -145.7817,255.9313 -40.0614,50.6552 -68.1139,89.0001 -83.2799,137.0616 -15.166,48.0616 -3.3223,108.3234 21.112,145.6149 12.0609,18.4071 25.6914,37.8898 53.5729,54.0317 10.3333,5.9825 24.1293,8.0703 37.5094,10.2223 -4.4547,6.366 -7.983,10.5637 -12.5588,17.2318 -47.5416,69.2808 -99.8771,152.0887 -134.5163,217.2955 -40.2217,75.7156 -66.4285,143.8307 -57.9121,217.7129 8.5163,73.8823 50.7626,133.7432 107.2709,193.6803 131.9391,139.9446 344.3888,232.617 674.3758,315.2622 385.4348,96.5317 746.596,155.6009 1584.15536,259.8535 855.21323,106.4499 1020.92113,144.0539 1529.41414,348.808 336.6173,135.545 493.6134,194.9194 588.5923,214.1244 99.54,20.1279 200.8762,21.3533 335.7486,-4.0887 134.8723,-25.442 306.3079,-75.9312 565.4359,-160.1763 477.4447,-155.222 981.2185,-287.483 1392.9785,-365.9979 146.2463,-27.8867 334.3281,-64.2885 418.9866,-81.0686 79.0272,-15.664 301.8313,-51.9792 486.6621,-79.0242 435.3612,-63.7035 697.7865,-110.4002 884.1196,-178.7016 186.3331,-68.3014 295.7391,-166.932 390.2809,-302.9955 43.3121,-62.3344 73.3446,-143.3942 53.1973,-229.4789 -20.1471,-86.0847 -70.6091,-176.8821 -159.5085,-333.3703 -9.6372,-16.9643 -11.7617,-23.6945 -20.7367,-39.7622 0.7391,-0.1923 1.474,0.2563 2.2114,0.043 36.5073,-10.5827 53.8023,-33.1948 65.7979,-50.8192 11.9956,-17.6242 20.0798,-34.9873 28.4554,-55.0332 28.3383,-67.8228 36.042,-144.1457 20.9868,-224.4303 -15.0551,-80.2846 -49.6823,-165.9508 -103.3489,-272.7461 -47.6841,-94.8899 -99.9619,-230.8686 -108.3975,-268.2816 -14.0347,-62.2451 -35.7886,-140.3851 -53.1556,-187.7138 -7.2154,-19.6632 -27.9711,-117.4551 -34.5887,-185.085 -18.9594,-193.7581 -93.0833,-345.5306 -234.5275,-480.4455 -32.3722,-30.8778 -59.0399,-54.4074 -84.9906,-72.6821 -25.9506,-18.2747 -50.2823,-38.2722 -100.0529,-34.7556 C 5157.997,2140.978 5190.5691,164.1528 5207.0805,-987.39704 V -3992.6956 c 0,-47.1906 -38.259,-85.4449 -85.4496,-85.4496 H 1642.3973 Z"
           sodipodi:nodetypes="ccccssssssscsssscsssssssssssssssssccssssssssscccccc" />
        <path
           style="fill:#2b304e;fill-opacity:1;stroke-width:21.3624"
           d="m 1592.2079,5596.2934 c -58.7467,-15.238 -150.0709,-46.8154 -202.9428,-70.1718 -52.872,-23.3572 -177.842,-73.3617 -277.7112,-111.1221 -99.8692,-37.7604 -198.2727,-77.7161 -218.67467,-88.7912 -20.40197,-11.0758 -47.78834,-20.1373 -60.85873,-20.1373 -13.07032,0 -54.05649,-13.3059 -91.08004,-29.5693 -37.02362,-16.2626 -124.9942,-45.5598 -195.49012,-65.1045 -70.49591,-19.5447 -161.8201,-44.9462 -202.94272,-56.4484 -153.22608,-42.8567 -450.33625,-82.1673 -1292.42509,-170.998 -117.49313,-12.3943 -271.30243,-32.4896 -341.79833,-44.6555 -70.4959,-12.1659 -185.9083,-30.0941 -256.4709,-39.8402 -70.5633,-9.747 -155.3036,-27.9893 -188.3117,-40.5395 -33.008,-12.5494 -84.0186,-22.817 -113.357,-22.817 -99.3123,0 -558.4019,-154.0346 -712.9233,-239.2013 -245.6532,-135.3949 -341.7981,-251.3865 -341.7981,-412.3525 0,-86.3779 58.6962,-214.9019 125.9016,-275.6812 52.8078,-47.7583 57.938,-103.5519 12.9539,-140.8852 -58.8989,-48.8823 -40.5007,-196.0321 37.3841,-299.0036 38.1859,-50.4842 97.4553,-128.6564 131.7108,-173.7156 61.4316,-80.8068 62.4958,-86.9657 77.8678,-450.8162 16.412,-388.4717 30.1491,-448.4169 141.2236,-616.2617 57.5569,-86.9742 174.9041,-169.1953 241.4781,-169.1953 21.8668,0 54.9628,-5.8351 73.5475,-12.9668 30.5979,-11.7414 33.7912,-305.2307 33.7912,-3105.6132 0,-2576.9188 4.8282,-3096.6557 28.9654,-3116.6865 21.2685,-17.6508 996.3548,-22.604 3668.992,-18.6375 l 3640.0264,5.4023 5.4095,3057.445 5.4096,3057.445 87.6891,14.0221 c 170.553,27.2723 355.5044,291.2306 375.6789,536.1565 5.8052,70.4959 27.6065,176.2398 48.4455,234.9864 20.8389,58.7466 44.8025,154.234 53.2527,212.1938 8.4502,57.9599 37.1047,134.8645 63.6778,170.8987 175.8416,238.4552 221.4813,513.9853 105.8038,638.7387 -28.1031,30.3081 -51.0969,70.3575 -51.0969,88.9995 0,18.6412 38.4523,93.0703 85.4501,165.3978 69.8746,107.5341 85.4493,150.3924 85.4493,235.1296 0,180.455 -96.526,314.8641 -309.7549,431.3248 -70.4955,38.5031 -185.8524,86.1017 -256.348,105.7755 -70.4955,19.6731 -157.696,45.069 -193.7786,56.4347 -36.0818,11.3665 -82.772,20.6662 -103.7555,20.6662 -20.9826,0 -102.0115,13.9251 -180.0634,30.9443 -78.0519,17.0199 -257.2692,46.1872 -398.261,64.8163 -777.3441,102.7114 -1098.3768,158.2661 -1292.4252,223.6564 -29.3733,9.8987 -111.0844,33.7169 -181.5804,52.9297 -70.4959,19.2129 -157.0136,43.2733 -192.2615,53.4675 -35.248,10.1942 -121.7657,34.9313 -192.2616,54.9709 -70.4959,20.0396 -157.0137,48.7709 -192.2616,63.8474 -77.1838,33.0121 -301.6464,109.4565 -448.6103,152.7806 -281.6477,83.0272 -485.7362,103.0208 -640.872,62.7817 z M 2030.137,5458.934 c 52.872,-10.937 192.2616,-53.595 309.7548,-94.7965 312.227,-109.488 685.5539,-221.466 939.9455,-281.9336 82.2452,-19.5487 183.1825,-43.7787 224.3052,-53.8438 212.3864,-51.9843 372.9116,-85.3363 566.1035,-117.6184 117.4933,-19.6335 228.0436,-40.5007 245.6677,-46.3721 39.2119,-13.0629 383.7545,-68.0418 587.4658,-93.7437 264.7336,-33.4005 660.1679,-110.5578 769.0463,-150.0573 159.8486,-57.9906 343.6559,-218.4722 397.9211,-347.4241 33.0759,-78.5993 8.5019,-148.2075 -147.8402,-418.7632 -223.0129,-385.9321 -251.7789,-455.3885 -265.8147,-641.8263 -5.1835,-68.8145 -11.5821,-75.243 -80.3966,-80.7285 -41.1224,-3.278 -151.1755,7.2908 -244.5616,23.4808 -263.0921,45.6187 -356.2666,11.3156 -453.3917,-166.9214 -34.1756,-62.7155 -35.2502,-63.0522 -55.6112,-17.4213 -29.2035,65.4477 -2.1396,183.9761 56.4476,247.1897 75.9003,81.8984 275.0586,132.5811 408.6894,104.0065 266.1821,-56.9191 306.6198,-51.0404 277.6116,40.357 -21.8595,68.8726 -114.4373,104.4942 -480.5195,184.89 -76.3709,16.7713 -167.6949,35.0104 -202.9426,40.5306 -208.4855,32.6528 -487.2146,77.0185 -598.1473,95.2075 -70.4959,11.5587 -189.7319,26.1064 -264.9688,32.3274 -75.2369,6.2251 -147.335,18.0769 -160.218,26.3454 -12.8831,8.2678 -85.9087,21.2749 -162.2793,28.904 -76.3705,7.63 -210.9536,28.5407 -299.0736,46.4706 -88.1198,17.9291 -217.8964,43.4445 -288.3923,56.7003 -70.4959,13.2567 -152.2071,32.3282 -181.5804,42.3828 -29.3733,10.0545 -130.3106,34.4799 -224.3052,54.2797 -93.9945,19.799 -194.9318,44.0347 -224.3051,53.8567 -29.3733,9.8228 -111.0845,34.6244 -181.5804,55.1162 -70.4959,20.4925 -137.7875,43.6382 -149.5368,51.4368 -11.7494,7.7995 -67.1207,31.0857 -123.0472,51.7494 -186.3553,68.8541 -667.3412,38.5209 -832.6302,-52.5091 -20.4019,-11.2366 -51.3183,-20.4296 -68.703,-20.4296 -17.3849,0 -67.9839,-15.7515 -112.4425,-35.0047 -194.63279,-84.2843 -532.64742,-199.9811 -584.2566,-199.9811 -23.04386,0 -58.59043,-9.0033 -78.99241,-20.0074 -20.40197,-11.004 -113.9989,-35.3745 -207.99348,-54.157 -93.994574,-18.7833 -214.158041,-44.4496 -267.03,-57.0378 -110.75074,-26.368 -386.88003,-52.9766 -843.81465,-81.3122 -488.70426,-30.3065 -951.68786,-100.1989 -1079.24536,-162.924 -141.4835,-69.5742 -231.3429,-244.0714 -125.6868,-244.0714 24.6216,0 70.284,17.5366 101.4713,38.9698 130.3059,89.5558 241.8076,131.9288 347.1576,131.9288 134.1749,0 176.9306,-22.5539 243.9172,-128.6677 91.9829,-145.7111 57.8735,-210.5007 -57.779,-109.7512 -142.0139,123.7127 -283.1616,165.3228 -337.7368,99.5634 -14.6268,-17.6238 -36.5259,-32.0431 -48.6651,-32.0431 -12.1384,0 -53.7783,-24.1856 -92.5318,-53.7445 -75.8154,-57.8274 -176.4148,-85.8482 -211.7764,-58.9885 -43.6616,33.1647 -95.637,133.8278 -95.637,185.2235 0,28.9477 -14.4194,67.0512 -32.044,84.6751 -17.6239,17.6238 -32.0432,47.7915 -32.0432,67.039 0,19.2468 -24.033,66.5029 -53.4062,105.0134 -29.3731,38.5104 -53.4061,80.3272 -53.4061,92.9258 0,12.5978 -8.5673,26.1104 -19.0392,30.0271 -38.5387,14.4137 -258.1081,366.9147 -270.8481,434.8257 -21.4323,114.2427 39.2614,210.1406 195.4113,308.7586 74.8845,47.2933 142.1464,85.9886 149.4711,85.9886 7.3231,0 43.6083,13.5433 80.6324,30.0958 37.0232,16.5524 91.3481,35.2235 120.7213,41.4913 29.3739,6.2654 111.085,27.2432 181.5805,46.6127 70.4963,19.3687 157.0138,39.615 192.2616,44.9914 35.2477,5.3773 126.5725,23.128 202.9426,39.4479 147.2717,31.4699 369.5176,67.8052 598.1474,97.792 436.66915,57.2736 692.02668,89.0067 843.81462,104.8608 152.526071,15.9307 262.687899,33.9228 640.87194,104.6678 58.74658,10.9895 130.84469,29.2908 160.21798,40.671 29.37329,11.3795 91.85836,32.6391 138.85561,47.2433 46.99725,14.6042 114.28884,38.4991 149.53676,53.0993 346.49709,143.5287 638.27069,255.7109 726.32159,279.2595 110.1218,29.4514 270.0031,26.4124 437.9291,-8.3235 z m 64.4083,-354.9611 c -11.926,-31.3674 -21.6835,-68.2186 -21.6835,-81.8911 0,-13.6725 -22.5061,-87.5485 -50.0137,-164.1682 -27.5074,-76.6196 -65.5197,-185.0256 -84.4718,-240.9016 l -34.4582,-101.5932 79.1312,-34.5018 c 88.2627,-38.4822 219.7993,-73.0848 308.626,-81.1886 32.2276,-2.939 76.2433,-21.3162 97.813,-40.8366 21.5695,-19.5205 62.493,-35.4553 90.9411,-35.4109 40.7377,0.064 59.6646,19.3945 89.1081,91.0148 20.5614,50.0134 37.3843,112.4632 37.3843,138.7755 0,26.3123 9.613,47.8407 21.3623,47.8407 11.7692,0 21.3625,-55.2591 21.3625,-123.0522 0,-102.8924 9.0924,-132.8581 55.4984,-182.9047 69.2169,-74.6471 134.1522,-99.9284 256.667,-99.9284 167.1685,0 256.3971,158.0909 114.6252,203.088 -23.7752,7.5492 -72.2445,7.3473 -107.7097,-0.4037 -122.2431,-26.8492 -164.2275,80.6203 -91.267,233.6197 38.1071,79.9122 73.4882,103.7966 124.6656,84.1583 41.2117,-15.8145 41.7976,-71.8132 0.7509,-71.8132 -41.0568,0 -81.1741,-76.706 -65.6682,-125.5608 18.7254,-58.9982 105.649,-95.7097 193.0394,-81.5286 95.9445,15.5698 105.3136,-4.9978 67.9055,-149.0674 -36.6043,-140.9733 -17.4112,-177.9037 92.4573,-177.9037 79.7881,0 83.9998,3.488 96.7336,80.1092 20.7256,124.7075 23.8584,129.0222 85.1696,117.3012 55.6627,-10.6399 56.8143,-13.9373 43.1279,-123.481 -16.0547,-128.4973 -6.4851,-140.1739 116.2714,-141.8678 46.6335,-0.6459 95.8176,-14.4605 109.2982,-30.7029 13.4805,-16.2433 59.6902,-29.533 102.6884,-29.533 42.998,0 130.0592,-13.4577 193.469,-29.906 63.41,-16.4484 128.7046,-24.7589 145.0994,-18.4677 16.3948,6.2897 68.357,-1.2837 115.4713,-16.8318 63.8742,-21.0803 95.3265,-22.2365 123.6568,-4.5456 28.7786,17.9726 45.1818,16.7341 67.6266,-5.1109 16.2973,-15.8597 64.3407,-35.1629 106.7614,-42.8946 74.8216,-13.6369 79.8137,-10.3266 166.7963,110.5941 l 89.6655,124.6526 -6.5803,-138.8555 -6.5803,-138.8554 h 85.4494 c 68.1249,0 89.7253,9.7452 106.5369,48.0651 25.521,58.1698 53.6814,62.7082 53.6814,8.6513 0,-21.6778 16.823,-54.3661 37.3842,-72.6408 50.116,-44.5433 191.241,-101.569 251.3582,-101.569 47.1343,0 181.562,105.5826 180.9039,142.0859 -1.0173,56.4992 -47.1181,82.2189 -147.363,82.2189 -58.588,0 -117.6176,11.0953 -131.1771,24.6547 -33.1469,33.1461 -7.9125,174.1613 43.2628,241.7534 34.3709,45.3984 48.2138,49.8819 98.9361,32.0432 63.0634,-22.1776 65.5543,-67.0027 3.1327,-56.4282 -48.6037,8.2339 -88.7629,-89.7729 -59.3251,-144.7793 11.4254,-21.3476 47.4758,-43.8522 80.1124,-50.0102 32.6366,-6.1605 80.2408,-17.8314 105.786,-25.9417 37.4762,-11.8986 53.0186,-2.0427 80.4669,51.0404 18.7106,36.1828 40.0187,109.555 47.3507,163.0484 11.4367,83.4397 6.0716,105.153 -37.7419,152.8064 -158.5026,172.3835 -388.8596,160.3105 -503.7677,-26.4027 -21.6269,-35.1412 -25.6357,-23.2595 -26.703,79.1484 l -1.2596,120.4969 -80.1092,10.0391 c -86.7637,10.8741 -154.6586,-12.8222 -155.2464,-54.182 -0.323,-25.7285 -90.4261,-122.0818 -114.1079,-122.0818 -6.7822,0 -10.2305,50.468 -7.6703,112.1524 l 4.6506,112.1524 h -85.4501 c -77.3374,0 -86.0912,-5.5791 -92.2089,-58.7462 -8.8563,-76.9717 -46.6466,-76.107 -46.6466,1.0657 0,75.2592 -35.0878,111.0842 -108.7989,111.0842 -61.9255,0 -83.4626,-32.4227 -83.4626,-125.6488 0,-31.9375 -9.0853,-67.2006 -20.1894,-78.362 -11.1042,-11.1623 -23.1206,-77.9728 -26.703,-148.4692 l -6.5133,-128.1743 -64.0872,6.7902 c -99.8651,10.5817 -106.3007,29.0687 -77.4283,222.4219 39.553,264.8789 40.2436,256.4013 -23.8588,292.8819 -75.964,43.2313 -128.2519,12.8909 -148.6539,-86.2583 -76.2084,-370.3574 -68.0738,-349.8447 -141.6088,-357.0919 -88.5118,-8.7231 -100.2985,25.1892 -59.0021,169.7603 18.0135,63.0609 35.4323,167.5285 38.7089,232.1494 l 5.957,117.4933 -88.0128,6.435 c -95.058,6.9517 -113.9702,-17.6941 -114.6384,-149.3686 -0.3552,-69.9271 -28.0058,-89.7689 -99.9386,-71.7155 -46.815,11.7501 -52.4496,21.8167 -39.9865,71.4394 42.7421,170.1784 40.4025,193.9006 -20.6333,209.2193 -31.8473,7.9933 -88.5829,5.1189 -126.0792,-6.3865 -61.0123,-18.7251 -76.5359,-13.6959 -147.7549,47.8682 -129.4102,111.8666 -282.6931,116.5721 -392.7988,12.0585 -25.9446,-24.6264 -51.8538,-44.7759 -57.5761,-44.7759 -5.7221,0 -13.3338,45.6124 -16.915,101.3616 -6.0208,93.7324 -11.3343,102.2746 -70.5982,113.5023 -84.6219,16.0325 -117.4932,3.0116 -117.4932,-46.54 0,-22.4013 -8.3245,-57.4213 -18.499,-77.8235 -34.395,-68.9695 -72.2527,-186.2602 -82.6477,-256.0589 -11.9633,-80.3304 -62.832,-90.7442 -187.9319,-38.4741 -107.9226,45.0924 -96.0307,83.8886 21.648,70.6247 107.4267,-12.1085 146.874,15.3373 135.5553,94.3129 -5.9658,41.6254 -55.339,82.0526 -133.7211,109.4912 -11.6237,4.0693 -8.0769,49.307 8.511,108.553 32.3299,115.4708 15.2701,148.6202 -89.7325,174.36 -49.8459,12.2192 -61.6096,5.9505 -80.109,-42.7097 z m 591.2676,-390.3017 c -5.416,-20.7848 -10.204,-8.9516 -10.6393,26.2962 -0.436,35.2477 3.9958,52.2539 9.8478,37.791 5.8512,-14.4629 6.2073,-43.3023 0.7913,-64.0872 z m 583.3432,-145.8636 c 0,-18.3175 -9.7699,-27.2659 -21.7108,-19.8862 -11.9409,7.3796 -16.1803,22.3665 -9.4204,33.3043 18.3124,29.6307 31.1312,24.1057 31.1312,-13.4181 z m 1246.5796,-486.0761 c -21.4953,-164.6695 -56.8464,-86.3616 -38.1317,84.4684 14.0818,128.5345 18.231,138.6528 33.8025,82.432 9.763,-35.2477 11.7113,-110.3535 4.3276,-166.9004 z m -3215.0855,995.4552 c -33.826,-5.0947 -61.0021,-25.4629 -67.5912,-50.661 -11.2407,-42.9842 58.192,-270.0624 93.8251,-306.8523 10.8109,-11.1623 19.3432,-49.6146 18.9604,-85.4501 -0.5571,-52.4704 -14.3822,-71.5459 -70.9992,-97.9834 l -70.3036,-32.8288 -39.117,136.5883 c -66.4727,232.1075 -172.57542,308.7546 -358.21319,258.7678 -130.93545,-35.2575 -186.99275,-109.5017 -186.99275,-247.6588 0,-63.065 8.65498,-131.3555 19.23343,-151.7577 10.5782,-20.4021 36.62687,-94.7731 57.88565,-165.2686 21.25902,-70.4963 47.42694,-140.1909 58.1508,-154.8775 27.6998,-37.9348 87.13703,-33.0565 142.39347,11.6871 46.88421,37.9647 47.0058,39.5641 10.95994,144.1964 -96.71058,280.7289 -102.99408,373.0121 -25.36763,372.572 38.08745,-0.2422 55.63132,-26.3017 96.98146,-144.1963 27.76512,-79.163 55.24702,-170.059 61.07032,-201.9916 14.6598,-80.3869 55.792,-108.6797 133.26,-91.6654 45.5566,10.006 69.014,30.3355 78.4688,68.0071 9.3142,37.1104 18.6493,45.3798 30.1758,26.7297 16.6956,-27.0139 140.0541,4.3841 400.5452,101.9388 86.7583,32.4929 91.0087,37.98 77.8582,100.521 -18.8339,89.5719 -41.7784,108.8768 -129.402,108.8768 -74.4019,0 -74.882,0.6459 -153.5606,201.1873 -43.4088,110.6531 -88.5384,202.8644 -100.2877,204.9135 -11.7494,2.0508 -46.8196,-0.081 -77.9337,-4.7959 z M 145.70136,4728.2399 c -62.422179,-32.9628 -84.497644,-61.137 -103.657999,-132.2921 -30.890713,-114.7199 -8.982057,-318.545 43.519464,-404.8769 124.433795,-204.6155 396.037945,-191.3928 495.569165,24.1267 52.89545,114.5358 45.16309,230.2949 -25.0743,375.3858 -83.49945,172.4868 -243.04625,226.0076 -410.35633,137.6565 z M 346.1661,4544.3946 c 21.48655,-19.4445 39.06626,-53.7226 39.06626,-76.1723 0,-22.4505 9.15597,-57.9267 20.34642,-78.8359 25.6197,-47.8714 -26.96684,-130.0726 -83.21081,-130.0726 -41.31099,0 -108.03474,114.5027 -108.03474,185.3955 0,40.6961 55.6381,135.0405 79.63816,135.0405 7.22056,0 30.70824,-15.9098 52.19471,-35.3552 z m -796.36478,121.1452 c -65.88503,-8.4817 -131.34133,-22.5587 -145.45843,-31.2834 -14.11719,-8.7256 -75.33069,-15.4794 -136.03021,-15.0087 -123.12387,0.9527 -141.89546,-15.2485 -144.75995,-124.948 l -1.95229,-74.7683 -26.93519,74.7683 c -49.39845,137.1227 -189.05025,140.6963 -195.39505,4.9977 -7.2351,-154.745 -13.6635,-164.5444 -38.3103,-58.4063 -23.9306,103.0546 -27.4284,106.8123 -99.4206,106.8123 -70.4489,0 -75.2142,-4.5861 -85.2987,-82.0833 l -10.6812,-82.0825 -50.7481,54.2717 c -27.9115,29.8495 -78.5894,60.3869 -112.6172,67.8601 -153.3433,33.6806 -338.6507,-60.6856 -338.6507,-172.4545 0,-68.1637 -46.8735,-67.8133 -115.5516,0.8639 -101.8459,101.8452 -353.1638,49.4346 -415.134,-86.574 -57.3777,-125.9298 5.2804,-364.645 127.9701,-487.5705 77.7185,-77.8654 88.8243,-82.2157 186.0293,-72.8757 120.7189,11.5999 205.9308,66.6329 236.9922,153.0592 21.3024,59.2727 23.8061,60.2165 70.3187,26.4875 85.086,-61.6998 153.0204,-80.9861 238.028,-67.5736 96.6241,15.2445 189.1598,80.6615 207.75,146.8665 12.617,44.9317 13.7427,44.6152 36.0037,-10.1248 27.6207,-67.9183 55.5257,-79.9235 153.915,-66.2155 92.6574,12.9095 128.0787,55.2236 128.50145,153.5081 0.48444,113.1156 33.92564,152.5497 53.55849,63.1619 8.6926,-39.577 30.60465,-94.5462 48.69342,-122.1536 29.40172,-44.8727 44.39283,-48.9541 141.39456,-38.4967 59.6784,6.4349 122.92566,12.6874 140.54961,13.8969 17.62396,1.2111 121.95363,12.9733 231.84353,26.1419 210.43546,25.2167 231.73372,38.8908 207.98242,133.5234 -12.39557,49.3886 -22.80438,53.3585 -139.89877,53.3585 -161.72935,0 -184.57919,34.0238 -38.46871,57.2809 110.72257,17.6246 112.38347,18.9908 112.38347,92.4567 0,74.3565 -0.30681,74.5866 -106.81194,81.1895 -58.74666,3.6413 -113.62153,13.3358 -121.94426,21.5413 -33.68657,33.2107 28.84372,77.0444 125.79676,88.1824 98.71519,11.3407 103.24485,14.8182 109.88473,84.3569 7.07926,74.1353 -21.04862,110.6062 -81.69363,105.9241 -17.62404,-1.3645 -85.94951,-9.4134 -151.83437,-17.8935 z M -1550.0437,4310.523 c 42.9447,-16.4798 83.3283,-164.8771 66.1509,-243.0864 -17.1693,-78.1699 -85.5801,-97.5595 -128.419,-36.3983 -18.1729,25.9457 -31.8833,92.4696 -31.8833,154.6998 0,135.2948 14.9893,155.1616 94.1514,124.7849 z m -513.6744,-147.3404 c 6.766,-17.6239 31.1373,-32.0432 54.1659,-32.0432 23.0278,0 56.2885,14.4193 73.9124,32.0432 49.9852,49.9844 71.185,38.483 84.9052,-46.0612 14.8359,-91.4241 4.9735,-114.1564 -49.5194,-114.1564 -21.9531,0 -57.4342,-22.1404 -78.8488,-49.2012 -72.2734,-91.3312 -111.546,-88.3196 -157.1059,12.0464 -41.4655,91.3482 -54.0722,188.9069 -27.8051,215.1747 25.8262,25.8255 87.7738,14.8303 100.2957,-17.8023 z m 4000.5614,-513.953 c 144.9335,-117.3601 221.7631,-168.1463 296.2365,-195.819 183.7877,-68.2897 729.3084,-193.7286 1135.3292,-261.0616 60.4637,-10.027 131.1568,-24.9671 157.0958,-33.1993 25.9391,-8.2331 96.6322,-22.5838 157.0959,-31.8906 200.1807,-30.8144 532.6928,-94.166 761.4874,-145.0829 250.5121,-55.75 460.2619,-204.1259 550.0897,-389.1302 26.8016,-55.1979 65.1449,-197.7781 83.3017,-309.7548 5.7163,-35.248 21.7529,-87.1682 35.6393,-115.3784 19.0651,-38.7313 25.2473,-799.8537 25.2473,-3108.22909 V -3997.2543 l -3471.3899,-11.5409 c -1909.26424,-6.3478 -3486.9014,-4.3075 -3505.8607,4.5335 -31.5434,14.7088 -33.7944,281.5281 -26.506,3141.13263 8.2395,3232.99337 10.3298,3308.74057 97.4424,3530.94367 89.7301,228.8807 280.5795,395.2039 453.48,395.2039 30.1272,0 138.8956,13.4754 241.7074,29.9439 167.81108,26.8815 333.07611,43.7004 1201.64429,122.2917 135.1172,12.2256 288.92646,31.8171 341.79842,43.5357 52.87187,11.7186 144.19614,29.0833 202.94272,38.5872 110.76964,17.921 246.47704,53.7194 320.43597,84.528 23.4987,9.7889 85.9837,35.2462 138.8556,56.5728 199.8025,80.5904 320.0536,178.1176 547.8233,444.2996 32.7984,38.3288 36.7578,36.0067 93.1913,-54.6616 32.4156,-52.0804 105.7262,-132.5787 162.9124,-178.8862 z M 2653.919,2268.3375 c -14.0992,-14.0992 -25.6349,-39.8527 -25.6349,-57.2299 0,-36.6536 -8.229,-64.9855 -131.0495,-451.1952 -83.5943,-262.8622 -143.824,-393.8346 -258.4698,-562.0546 -22.5047,-33.0211 -69.6616,-102.6285 -104.7929,-154.6836 -136.0861,-201.64142 -454.5305,-459.97752 -656.7882,-532.81561 -54.2299,-19.52974 -117.826,-43.52552 -141.3246,-53.32418 -63.7339,-26.57639 -278.2812,-67.30589 -458.22854,-86.98984 -87.53548,-9.57525 -178.85967,-26.63056 -202.94281,-37.90054 -73.06134,-34.1899 -287.13969,-71.55231 -314.18978,-54.83425 -13.95845,8.62672 -59.76559,22.95133 -101.79379,31.83254 -142.945,30.20596 -231.6483,74.1292 -346.381452,171.51784 -164.564608,139.68674 -297.441688,210.76972 -421.451918,225.45685 -136.39507,16.154 -204.86925,-24.01007 -239.8211,-140.66863 -14.57361,-48.64305 -41.29904,-88.02702 -63.71054,-93.88776 -86.02984,-22.49741 -143.53658,-319.51569 -73.16945,-377.915413 17.62396,-14.626575 32.0436,-54.255996 32.0436,-88.0652101 0,-77.3696929 11.05505,-76.9992589 78.04645,2.6159686 29.65935,35.2479155 68.83453,64.0871935 87.05605,64.0871935 18.22167,0 44.35923,15.356785 58.0837,34.126041 37.20134,50.87582 228.43308,43.58179 339.39512,-12.945416 48.93444,-24.928646 114.34011,-75.477879 145.34572,-112.331628 l 56.373635,-67.006824 285.424695,-3.071341 c 156.98347,-1.689884 307.02251,-10.00059 333.42006,-18.469301 26.39746,-8.46872 72.97308,-58.01855 103.5012,-110.11096 58.82417,-100.37577 92.87705,-112.25687 179.62039,-62.66981 69.08983,39.49539 128.17439,40.21083 128.17439,1.55343 0,-55.38094 -139.217,-297.99798 -264.43874,-460.8438 -150.41133,-195.60396 -377.78518,-384.40765 -584.716612,-485.52845 -150.205364,-73.4008 -180.563033,-100.4964 -131.076658,-116.9918 13.0905,-4.3632 20.300239,-25.0143 16.021838,-45.8905 -7.302105,-35.6308 -10.491083,-35.4204 -52.030485,3.4322 -36.933033,34.5443 -190.610293,79.0001 -425.721193,123.1532 -23.49866,4.4124 -71.24469,32.8105 -106.10255,63.1058 -36.71512,31.9098 -86.14345,53.6572 -117.49317,51.6945 -106.47298,-6.6659 -128.21475,1.7173 -141.474,54.5454 -7.37235,29.3733 -21.97486,53.406 -32.45052,53.406 -27.94226,0 -23.24062,-115.4354 5.88835,-144.5641 33.3238,-33.3238 -17.80175,-53.048 -113.69109,-43.8621 l -71.4615,6.8451 -6.4479,136.9103 c -4.0822,86.67944 2.5667,142.48208 18.1237,152.09666 13.5144,8.35252 21.1837,32.77849 17.0429,54.27997 -6.3203,32.81733 -14.0934,29.07504 -48.417,-23.30941 -27.2902,-41.65026 -42.3051,-106.16462 -45.1489,-193.99172 -4.5376,-140.1401 -17.7529,-179.3918 -60.3972,-179.3918 -49.6287,0 -159.4201,-138.4273 -184.2389,-232.2919 -17.1252,-64.7672 -53.043,-119.2249 -117.0591,-177.485 -88.7249,-80.7474 -128.876,-177.4342 -102.5096,-246.8537 8.8813,-23.3841 172.0346,-108.7577 358.1529,-187.4116 35.248,-14.896 100.4624,-42.5681 144.921,-61.4935 44.4586,-18.9254 95.0576,-34.4099 112.44255,-34.4099 17.38472,0 48.30103,-8.4394 68.703,-18.7545 93.18403,-47.1126 201.96965,-88.1168 235.42127,-88.7368 20.16266,-0.3714 55.31966,-14.7934 78.12655,-32.0436 22.80696,-17.2503 62.17269,-31.3643 87.47928,-31.3643 50.73566,0 116.53954,-60.9975 117.04287,-108.4941 1.19011,-112.2848 159.46985,-339.1462 284.24953,-407.4116 153.137835,-83.7801 457.60646,-104.9847 875.38746,-60.9664 288.37659,30.3842 645.48219,25.9107 816.07099,-10.223 82.2409,-17.4199 196.4035,-31.8396 253.6946,-32.0436 190.4681,-0.6782 508.488,65.495 669.8478,139.3811 183.0142,83.8017 395.6715,270.9478 385.8572,339.5688 -7.2496,50.691 -16.134,51.0914 -315.0056,14.1902 -111.041,-13.7102 -316.0539,-25.7327 -455.5848,-26.7169 -207.8095,-1.4654 -267.8856,5.4209 -332.1676,38.0789 -77.9415,39.5971 -109.5645,67.8978 -110.1917,98.6149 -0.5329,25.9897 52.3315,18.4485 125.0816,-17.8441 114.8363,-57.2877 347.6275,-78.7732 543.8189,-50.1916 96.0229,13.9888 403.2952,29.7782 682.8272,35.0874 472.2804,8.97 510.0525,12.5552 533.8579,50.6739 30.3645,48.6213 74.5778,51.4095 131.5763,8.298 53.5733,-40.5208 139.6264,-40.0094 198.4317,1.1788 l 46.4626,32.5437 -44.0843,74.7174 c -24.2466,41.0946 -82.8513,110.5642 -130.2329,154.3773 -47.3814,43.813 -101.3209,96.4828 -119.8656,117.0441 -18.5445,20.5613 -44.9019,37.3842 -58.5715,37.3842 -13.6698,0 -52.3889,14.6856 -86.0426,32.6345 -39.0915,20.8492 -107.4683,30.9994 -189.3407,28.1065 -109.4966,-3.869 -129.2536,1.1918 -135.7194,34.7658 -13.0643,67.8384 -155.5114,202.7149 -236.3597,223.798 -42.5001,11.0831 -116.5018,12.3795 -166.3591,2.9147 -81.2311,-15.4211 -99.3892,-10.2352 -190.1796,54.3146 -119.6503,85.0682 -193.3713,100.886 -349.5157,74.9932 -129.1519,-21.4163 -171.589,-13.5168 -171.589,31.9413 0,50.3707 107.966,75.8526 289.6668,68.3665 150.1499,-6.1863 180.9184,-14.4544 240.5368,-64.6374 63.5,-53.4505 81.1991,-57.267 248.7974,-53.6485 178.7563,3.8593 181.1382,3.2134 256.139,-69.4803 41.6375,-40.3571 75.7047,-91.194 75.7047,-112.9713 0,-21.7772 14.9315,-68.469 33.1809,-103.7597 31.5814,-61.0715 37.8629,-63.4626 130.3059,-49.5998 146.0312,21.8986 312.1361,-41.3632 414.8332,-157.9914 80.0706,-90.9321 82.7928,-92.0771 184.0649,-77.4141 56.5358,8.1856 113.0628,23.0117 125.616,32.9467 41.7987,33.0816 450.8491,83.3818 557.5919,68.5659 145.8056,-20.2377 219.2917,-16.4971 248.4347,12.6458 35.2058,35.206 22.5942,501.0686 -19.0183,702.5293 -50.1297,242.6931 -142.9134,394.43573 -352.2111,576.02101 -98.1832,85.18264 -186.4274,154.87745 -196.0988,154.87745 -27.1854,0 -144.029,91.13389 -144.029,112.33736 0,10.36933 37.8321,63.83658 84.0712,118.81641 140.5803,167.15474 206.9119,346.812114 235.0619,636.66248 10.4114,107.19545 28.2096,212.93936 39.552,234.9864 101.8588,197.9916 114.4001,348.9422 49.688,598.03629 -76.9926,296.3643 -233.4019,563.8695 -461.1839,788.759 -165.6552,163.5518 -320.0438,268.8428 -422.4006,288.0719 l -80.0072,15.0304 -76.1796,-162.6717 c -199.2631,-425.499 -332.7546,-643.886 -472.769,-773.4324 -105.0236,-97.1714 -198.939,-158.7682 -198.939,-130.4788 0,12.1214 7.8123,25.2433 17.3616,29.1599 27.233,11.1695 183.4276,230.6934 257.3948,361.7564 134.1358,237.6755 60.0434,415.2137 -269.4652,645.6864 -120.275,84.1255 -153.0407,93.0839 -193.2804,52.8442 z M 1866.8802,248.09877 c 5.5904,-9.04503 17.1218,-87.05644 25.6259,-173.359023 l 15.4617,-156.913466 -53.1161,34.802959 c -29.2138,19.141785 -64.2109,59.153348 -77.7709,88.914835 -26.8673,58.966835 -33.2023,185.969695 -10.4133,208.758655 19.4896,19.48977 87.733,17.9889 100.2127,-2.2042 z M 2356.0873,13.327059 c 171.1675,-111.558223 318.1651,-302.319169 377.4829,-489.864099 58.6896,-185.55808 90.2807,-393.12525 70.5237,-463.3695 -15.5764,-55.3803 -20.2114,-46.79927 -46.1556,85.44965 -67.2607,342.85796 -129.1752,478.12913 -290.2524,634.14469 -116.3302,112.67469 -184.9896,148.256789 -335.6991,173.972406 -66.9843,11.429765 -82.7037,24.560554 -98.3276,82.135439 -10.7096,39.465762 -10.5468,78.908675 0.3876,93.000345 29.4814,38.00736 156.3625,-7.48619 322.0441,-115.468931 z M 1015.8403,-1285.3523 c 183.2529,-86.6927 339.2593,-319.5428 325.8091,-486.2924 -5.5242,-68.4828 -11.0081,-79.3842 -23.4654,-46.6448 -51.2554,134.7053 -154.9384,316.404 -201.4089,352.9577 -63.8653,50.2367 -112.0332,54.6234 -112.0332,10.2031 0,-17.624 -7.77926,-32.0436 -17.2879,-32.0436 -27.15294,0 -217.28235,228.2818 -202.46789,243.0962 27.72386,27.7239 119.79941,11.2609 230.85419,-41.2762 z m -350.01043,-210.2776 c 46.03402,-92.5749 77.03172,-325.3609 52.00844,-390.5705 -13.49226,-35.1603 -18.48916,-33.8476 -55.74516,14.6444 -30.14581,39.2371 -41.04939,88.5433 -41.39931,187.2059 -0.37141,105.5301 -11.80295,151.884 -53.88105,218.5402 -29.37329,46.5303 -53.40604,94.6262 -53.40604,106.8799 0,46.4861 110.70084,-52.7955 152.42312,-136.6999 z M 96.864778,-1636.8215 c 7.612142,-34.6581 6.895172,-84.8602 -1.593803,-111.5602 -14.903916,-46.8781 -16.00771,-47.078 -32.134187,-5.8206 -9.184956,23.4987 -17.375683,73.4 -18.201328,110.8918 -0.826775,37.492 -11.114718,74.1083 -22.863969,81.3698 -11.749332,7.2618 -20.9794222,43.878 -20.5111315,81.3699 l 0.8501898,68.167 40.3064237,-80.7015 c 22.168558,-44.3857 46.534529,-109.058 54.146836,-143.7161 z m -379.615148,49.4309 c 4.6603,-13.9973 -20.50145,-40.4332 -55.91544,-58.7466 -71.53625,-36.9928 -290.94625,-46.7106 -269.45332,-11.9343 7.26173,11.7493 36.43575,21.3624 64.83169,21.3624 28.39577,0 83.10375,19.3272 121.57302,42.9493 74.39855,45.6848 125.10071,48.0086 138.96405,6.3695 z m 75.70411,-166.8117 c 1.98701,-11.7494 -24.95747,-35.7015 -59.875,-53.2272 -78.15069,-39.2248 -480.27471,-57.2557 -537.29936,-24.0921 -29.44523,17.1243 8.51789,22.7717 156.38454,23.2637 148.52525,0.4925 217.56131,10.8315 288.39237,43.1844 96.52876,44.0906 146.18226,47.6327 152.39745,10.8712 z m -938.44864,-56.8285 c 71.467,-1.4331 99.342,-11.1785 104.8445,-36.6499 12.7762,-59.1406 -8.7073,-109.4644 -46.7309,-109.4644 -48.6932,0 -215.0157,129.494 -215.0157,167.4052 0,23.3044 6.7135,24.5163 29.7765,5.3756 16.3771,-13.5918 73.5836,-25.5918 127.1256,-26.6665 z m 1406.49637,-326.96 c 2.16867,-23.9026 5.07207,-62.9268 6.4511,-86.72 4.60379,-79.4231 26.09074,-92.4555 118.28401,-71.741 128.60998,28.8967 255.84463,-10.8264 255.84463,-79.8757 0,-35.2956 -67.26567,-39.0669 -100.68733,-5.6454 -22.61982,22.6198 -100.29245,18.44 -251.97656,-13.5596 l -64.27176,-13.5589 -1.77951,131.0443 c -2.14687,157.9913 -44.36158,220.6519 -117.76937,174.8078 -24.452926,-15.2709 -48.556493,-23.6687 -53.56365,-18.6617 -18.334307,18.3344 17.913652,77.1071 52.46729,85.071 53.29156,12.2827 152.50919,-51.6461 157.00211,-101.161 z m 2102.21123,59.5214 c 107.0748,-54.2168 117.7852,-55.6706 202.9821,-27.5533 131.8784,43.524 413.8759,39.3103 537.4027,-8.0303 97.6708,-37.4312 134.5419,-78.0787 70.8245,-78.0787 -16.8561,0 -96.1639,13.3139 -176.2398,29.5863 -152.657,31.0218 -302.8675,27.6497 -370.0542,-8.3075 -57.9188,-30.9972 -225.5357,-26.1745 -253.3074,7.2884 -13.0396,15.7119 -75.0979,40.8951 -137.9069,55.9629 -96.928,23.2525 -136.4356,22.3233 -261.2391,-6.1443 -80.8722,-18.4471 -150.9554,-29.6252 -155.7402,-24.8405 -27.2328,27.2328 27.7111,74.3641 107.4836,92.2002 177.4376,39.6729 313.9263,29.6247 435.7947,-32.0832 z M 43.434023,-2256.2187 c 0,-90.5518 -35.0351664,-118.6705 -46.5796618,-37.3842 -5.0397765,35.4874 -23.5968442,50.0444 -70.9134982,55.6281 l -64.087193,7.5629 74.768338,27.2725 c 108.198236,39.4667 106.812015,40.1556 106.812015,-53.0793 z M -557.46777,29.430041 c -84.01449,-44.394198 -189.5069,-156.935181 -189.5069,-202.168351 0,-15.4653 14.41956,-33.65217 32.0436,-40.41534 19.63349,-7.53383 32.0436,-39.93123 32.0436,-83.65214 0,-96.77727 43.29129,-153.0885 103.09919,-134.10609 31.48472,9.99292 46.43756,32.0662 46.43756,68.55146 0,38.36479 39.86099,91.94725 138.85562,186.65355 76.37053,73.06223 138.85553,142.073256 138.85553,153.357446 0,16.4569454 -186.76288,97.280121 -216.49102,93.688008 -4.29778,-0.516734 -42.69955,-19.378029 -85.33718,-41.908543 z m 152.29144,-62.316005 c 0,-22.594783 -28.83928,-69.920646 -64.08719,-105.168556 -35.248,-35.248 -64.0872,-79.24641 -64.0872,-97.77425 0,-18.5276 -9.61312,-33.68681 -21.36237,-33.68681 -11.74933,0 -21.36245,-24.83378 -21.36245,-55.18612 0,-89.60201 -52.64015,-47.85002 -59.77472,47.41088 -8.75009,116.8273 24.59874,192.244461 107.3076,242.671938 87.96711,53.633492 123.36633,54.130849 123.36633,1.732676 z m -500.9294,-85.334026 c -8.52854,-13.79972 -8.10062,-75.11576 0.95031,-136.25837 l 16.45735,-111.16801 16.26107,105.50225 c 16.55157,107.38624 -3.29984,191.063405 -33.6693,141.92413 z m 108.56157,-140.92562 c -7.43452,-19.37464 -13.5177,-53.66659 -13.5177,-76.20437 0,-23.14148 -14.72233,-40.97754 -33.82375,-40.97754 -18.60325,0 -29.81849,-12.01642 -24.92291,-26.70306 4.89525,-14.68665 32.13273,-26.70299 60.52673,-26.70299 44.55899,0 52.55642,11.35113 58.42386,82.92419 7.31018,89.1732 -23.7362,147.47014 -46.68623,87.66377 z M 258.6085,-624.8761 c -56.36815,-71.66034 -59.07002,-201.41343 -5.20933,-250.15684 48.71248,-44.08432 129.12155,-45.91445 145.46998,-3.31114 6.76276,17.62396 24.01176,32.0436 38.33056,32.0436 41.76458,0 118.93154,94.65656 118.93154,145.88699 0,30.10367 -24.96151,62.22187 -69.42781,89.33355 -97.08844,59.19606 -174.35584,54.52236 -228.09526,-13.79632 z m -962.85842,-82.56861 c 0,-17.62404 7.21006,-32.03762 16.02183,-32.03035 8.81194,0.007 13.13507,-50.46147 9.60666,-112.15263 -4.7047,-82.2576 -0.51673,-103.62175 15.69477,-80.12228 12.16029,17.62404 22.25704,53.67306 22.43693,80.10904 0.16956,26.43597 8.3971,48.06535 18.26035,48.06535 15.52892,0 67.51629,91.24353 67.51629,118.49837 0,5.32156 -33.64579,9.6761 -74.76842,9.6761 -52.21909,0 -74.76841,-9.66399 -74.76841,-32.0436 z m -306.19428,-24.92291 c -25.8257,-25.82567 -14.8302,-87.77342 17.80191,-100.29559 17.62403,-6.76277 32.34935,-34.22729 32.72294,-61.03216 0.64591,-46.26414 43.93906,-123.50413 69.22571,-123.50413 6.48421,0 18.0145,36.04899 25.62309,80.109 15.61426,90.41886 47.26862,140.30691 102.07404,160.87141 49.21703,18.46737 48.03654,58.09316 -1.73025,58.09316 -21.51319,0 -51.97687,-24.03268 -67.69699,-53.40597 -15.72019,-29.37337 -41.37727,-53.40605 -57.01584,-53.40605 -16.0878,0 -28.4338,23.18911 -28.4338,53.40605 0,37.54609 -11.63048,53.40597 -39.16428,53.40597 -21.54056,0 -45.57323,-6.40832 -53.40603,-14.24169 z M -2535.2577,3602.4199 c 40.6363,-55.8098 80.5548,-123.1007 88.7088,-149.5373 8.1531,-26.4359 23.7891,-48.0652 34.7471,-48.0652 10.9572,0 19.9226,-46.7694 19.9226,-103.9315 0,-131.1513 59.5641,-216.5053 151.0875,-216.5053 47.9352,0 62.5362,-9.8059 62.5362,-42 0,-37.5214 23.4258,-101.6869 91.6445,-251.0294 11.8994,-26.0493 22.5829,-107.7605 23.7423,-181.5804 1.9377,-123.6725 -1.6713,-134.7545 -45.9587,-141.0444 -43.2499,-6.1426 -48.0652,2.0944 -48.0652,82.2211 0,98.3723 -54.7133,234.3601 -94.2927,234.3601 -75.499,0 -96.3791,-106.9125 -51.6678,-264.5516 34.5299,-121.7424 111.2876,-219.125 214.029,-271.5396 78.3902,-39.9919 83.7069,-47.6099 53.9761,-77.3409 -77.427,-77.4271 -246.3055,46.6746 -340.5708,250.2713 -48.7055,105.1953 -55.3932,151.033 -63.8894,437.929 -8.3154,280.7871 -15.1863,329.6872 -55.5328,395.2051 -25.324,41.1223 -55.0944,93.994 -66.1566,117.4925 -11.0629,23.4993 -44.553,70.3364 -74.4243,104.084 -69.659,78.6995 -85.0472,129.1578 -55.9631,183.5022 35.9913,67.2497 75.704,52.5123 156.1273,-57.9397 z m 8540.3265,10.681 c 32.8821,-121.6748 0.022,-259.9594 -98.2643,-413.6169 -50.0377,-78.2223 -87.0222,-172.7242 -108.7888,-277.9741 -18.1374,-87.7036 -46.5457,-185.4706 -63.1304,-217.2597 -16.584,-31.7891 -30.212,-111.2679 -30.2847,-176.6196 -0.1615,-147.1896 -54.92,-266.7965 -186.5799,-407.5529 -98.3822,-105.1784 -176.7119,-134.9836 -176.7119,-67.2409 0,20.1165 37.4939,75.3918 83.3194,122.8338 45.8254,47.4421 108.7952,135.7269 139.9325,196.1889 47.0535,91.3659 55.5296,132.8531 50.1959,245.6675 -5.9263,125.2913 -10.4049,136.3 -58.2392,143.0557 -72.2677,10.2061 -128.6847,-69.3445 -129.2837,-182.2977 -0.2423,-49.2412 9.1381,-95.4708 20.8873,-102.7323 37.3914,-23.1087 22.9713,-74.7684 -20.8704,-74.7684 -73.6234,0 -113.5556,91.3718 -103.1006,235.9119 8.2992,114.7387 17.9339,137.166 88.276,205.4893 43.4283,42.1817 84.5281,98.8763 91.3328,125.988 8.6811,34.5881 38.8294,57.6813 101.0579,77.41 96.3678,30.5519 82.6719,3.5041 198.0935,391.2771 84.7921,284.8749 156.0199,346.9711 202.1586,176.2403 z"
           id="path12728"
           sodipodi:nodetypes="sssssssssssssssssssssssssscccsssssssssssssscssssssssssssssssssssssssssscscsssssssssssscssssssssssssssssssssssssscsssssssscsscssscssssssssssccsssssssssscsssccccsscccsssssssssssscsssssscscsscssssssscsssssssccsssscssssssssssssssccsssssssssssssscsscscsssssssscssssscsscsccssssssssssssscscscssssscscssssssssssscssssssssssssscccssssscssssssscsssssssssscsssssssssssssssssssssssssssssssssssssccsssssssssssssssscssssssssssssscsssssssssssscssssscccsssssssssssssssssssscccsssssscssscsssssssssscssssccssssssccsssssssssssscsssssscsccssssssssssssscsscssssccsssssccssscsssssssssssssssscscsssssssscsssssssssssscsssssssssssssssssssssccsssssssssssssssssssssssscsssssssssssssscsscsssssscsssssss" />
        <path
           d="m 111.29556,-172.4952 c -128.282014,-31.04517 -164.809171,-57.60629 -146.136968,-106.26557 8.976889,-23.3933 41.224354,-33.47955 107.039701,-33.47955 114.348917,0 231.684227,-46.03556 272.307397,-106.83769 36.06201,-53.97503 186.38065,-93.87791 226.91694,-60.23575 37.37388,31.0178 34.70107,59.7639 -16.27245,174.99796 -70.18337,158.66092 -188.1621,193.69956 -443.85462,131.8206 z"
           style="fill:#d55960;fill-opacity:1;stroke-width:5.65212"
           id="path18787" />
      </g>
    </g>
  </g>
</svg>
