<?xml version="1.0" encoding="UTF-8" standalone="no"?>
<!-- Created with Inkscape (http://www.inkscape.org/) -->

<svg
   width="10.176107mm"
   height="8mm"
   viewBox="0 0 10.176107 7.9999999"
   version="1.1"
   id="svg47190"
   inkscape:version="1.3.2 (091e20e, 2023-11-25, custom)"
   sodipodi:docname="79thBr.svg"
   xml:space="preserve"
   xmlns:inkscape="http://www.inkscape.org/namespaces/inkscape"
   xmlns:sodipodi="http://sodipodi.sourceforge.net/DTD/sodipodi-0.dtd"
   xmlns="http://www.w3.org/2000/svg"
   xmlns:svg="http://www.w3.org/2000/svg"><sodipodi:namedview
     id="namedview47192"
     pagecolor="#ffffff"
     bordercolor="#666666"
     borderopacity="1.0"
     inkscape:pageshadow="2"
     inkscape:pageopacity="0.0"
     inkscape:pagecheckerboard="0"
     inkscape:document-units="mm"
     showgrid="false"
     inkscape:zoom="10.248373"
     inkscape:cx="20.344693"
     inkscape:cy="11.367658"
     inkscape:window-width="1920"
     inkscape:window-height="1017"
     inkscape:window-x="-8"
     inkscape:window-y="-8"
     inkscape:window-maximized="1"
     inkscape:current-layer="layer1"
     inkscape:snap-bbox="true"
     inkscape:snap-bbox-midpoints="true"
     inkscape:snap-page="true"
     inkscape:showpageshadow="2"
     inkscape:deskcolor="#d1d1d1" /><defs
     id="defs47187"><clipPath
       clipPathUnits="userSpaceOnUse"
       id="clipPath63680-8"><path
         d="M 0,0 H 595.276 V 841.89 H 0 Z"
         id="path63678-4" /></clipPath></defs><g
     inkscape:label="Layer 1"
     inkscape:groupmode="layer"
     id="layer1"
     transform="translate(-87.211376,-76.723206)"><g
       id="g6"
       transform="matrix(0.13127454,0,0,0.13127454,76.608365,64.999714)"><g
         id="g3"><path
           id="path2-2"
           style="fill:#000000;fill-opacity:1;stroke:none;stroke-width:0.264583px;stroke-linecap:butt;stroke-linejoin:miter;stroke-opacity:1"
           inkscape:transform-center-x="-13.210185"
           inkscape:transform-center-y="-30.470689"
           d="M 80.769747,89.305143 119.52862,150.24613 158.2875,89.305143 h -26.4201 -24.67704 z" /><path
           id="path3-1"
           style="fill:#f6bf0f;fill-opacity:1;stroke:none;stroke-width:0.264583px"
           inkscape:transform-center-x="-13.210185"
           inkscape:transform-center-y="-30.470689"
           d="M 84.412109,91.304687 119.5293,146.51953 154.64453,91.304687 h -22.77734 -24.67774 z" /></g><path
         style="fill:#f9f9f9;fill-opacity:1;stroke:none;stroke-width:0.264583px;stroke-linecap:butt;stroke-linejoin:miter;stroke-opacity:1"
         d="m 110.59622,100.31417 -7.32596,5.46234 -0.44984,7.39022 4.69118,4.43413 3.96304,10.04683 0.11729,0.68959 1.10889,4.04401 13.18993,1.25313 0.93181,-2.69904 2.31346,-7.80792 5.45914,-11.88878 1.54499,-11.360161 z"
         id="path6-1" /><rect
         style="fill:#c50208;fill-opacity:1;stroke:none;stroke-width:0.141359;stroke-linecap:round"
         id="rect3-3"
         width="1.7725222"
         height="3.2496235"
         x="79.723228"
         y="149.42941"
         ry="0.88626111"
         transform="rotate(-14.932599)" /><rect
         style="fill:#c50208;fill-opacity:1;stroke:none;stroke-width:0.122218;stroke-linecap:round"
         id="rect4"
         width="1.5324998"
         height="2.8095825"
         x="-166.46747"
         y="57.896889"
         ry="0.7662499"
         transform="matrix(-0.90005614,-0.43577396,-0.43577396,0.90005614,0,0)"
         inkscape:transform-center-x="-0.64542749"
         inkscape:transform-center-y="-1.0021216" /><path
         style="fill:#c50208;fill-opacity:1;stroke:none;stroke-width:0.264583px;stroke-linecap:butt;stroke-linejoin:miter;stroke-opacity:1"
         d="m 97.42235,96.249555 c -0.08033,-0.08033 -1.196893,-1.196896 -1.196893,-1.196896 l -3.735274,-0.811315 -1.156729,-0.192789 -0.93181,-0.05623 -1.759193,0.104426 -0.0723,0.546234 1.863622,1.654765 3.590682,2.666905 2.964119,-0.321312 c 0.01606,-0.08033 0.722955,-1.429848 0.722955,-1.429848 z"
         id="path5-8" /><path
         style="fill:#c50208;fill-opacity:1;stroke:none;stroke-width:0.264583px;stroke-linecap:butt;stroke-linejoin:miter;stroke-opacity:1"
         d="m 141.30631,96.102921 c 0.0803,-0.08033 0.67433,-0.606168 0.67433,-0.606168 l 2.66741,-0.765873 2.67899,-0.510875 1.0227,-0.237992 1.73647,-0.03189 0.59895,0.623623 -2.39028,1.577375 -3.59067,2.666905 -2.96412,-0.321312 c -0.0161,-0.08033 -0.72296,-1.429848 -0.72296,-1.429848 z"
         id="path5-4"
         sodipodi:nodetypes="cccccccccccc" /><path
         style="fill:#000000"
         d="m 111.59193,128.33728 2.1431,-0.0805 2.25153,-0.0845 -0.17331,1.26445 c -0.21478,1.56696 -0.35596,1.70923 -1.86502,1.87932 -0.70774,0.0798 -1.21363,0.27206 -1.21363,0.4613 0,0.39869 3.20742,0.68746 9.0403,0.8139 3.32657,0.0721 4.20667,0.0162 4.45512,-0.2832 0.34243,-0.41261 -0.1017,-0.58518 -1.85376,-0.72031 -0.88176,-0.068 -0.92984,-0.12346 -1.00562,-1.15963 -0.063,-0.86143 0.066,-1.26118 0.61883,-1.91823 0.62435,-0.742 0.85025,-0.83002 2.13011,-0.83002 1.10665,0 1.43168,-0.0916 1.43168,-0.40349 0,-0.23791 -0.33034,-0.46956 -0.80495,-0.56448 -0.60535,-0.12107 -0.90372,-0.39738 -1.20325,-1.11426 -0.21907,-0.52429 -0.61559,-1.19301 -0.88116,-1.48604 -0.77449,-0.85455 -0.77158,-1.23457 0.0223,-2.91403 0.41273,-0.87312 0.8168,-2.00421 0.89794,-2.51354 0.28857,-1.81149 0.38937,-2.08528 1.06197,-2.88462 0.37428,-0.44481 1.38853,-1.18611 2.25389,-1.64734 1.95987,-1.0446 3.41575,-2.59542 3.41575,-3.63849 0,-1.47671 -1.17068,-1.76318 -3.80799,-0.93185 -1.69246,0.5335 -2.36217,0.25377 -2.22465,-0.92922 0.0622,-0.53548 0.40417,-0.8465 1.57388,-1.4316 1.3299,-0.66523 1.60652,-0.71635 2.51354,-0.46449 1.13617,0.31548 3.00356,0.38284 3.00356,0.10834 0,-0.0977 -0.19941,-0.39794 -0.44312,-0.66724 -0.47601,-0.52598 -0.36418,-0.88403 0.91077,-2.91611 0.61323,-0.97741 0.17727,-1.38868 -1.31837,-1.24372 -0.62351,0.0604 -3.12795,0.0744 -5.56543,0.031 -3.88749,-0.0692 -4.43177,-0.0277 -4.43177,0.33728 0,0.52374 0.75956,0.81045 2.77813,1.04866 0.87312,0.10303 1.85853,0.25174 2.18979,0.33045 1.5703,0.37313 1.12562,2.40561 -0.66384,3.03409 -0.62676,0.22014 -2.05327,0.33421 -3.8428,0.30731 -4.18297,-0.0629 -6.40353,-0.95126 -6.27455,-2.51025 0.0904,-1.09251 0.005,-1.28656 -0.68501,-1.54873 -0.47788,-0.18169 -1.19884,-0.13924 -2.44739,0.1441 -1.33829,0.3037 -2.09259,0.33861 -3.09287,0.14316 -1.23482,-0.24128 -1.35843,-0.21569 -1.85616,0.38427 -0.29328,0.35351 -1.28435,1.0066 -2.20238,1.45129 -2.45501,1.18923 -2.10301,1.44753 2.0386,1.49599 3.58867,0.042 4.2689,0.22382 4.2689,1.14116 0,0.53809 -0.68879,1.19667 -1.51466,1.44822 -0.33776,0.10288 -1.44966,-0.0623 -2.60899,-0.38763 -2.30787,-0.64758 -4.3072,-0.73985 -4.64045,-0.21414 -0.123,0.19403 -0.22546,0.78301 -0.22768,1.30884 -0.004,0.91028 0.0688,0.98842 1.5173,1.63206 0.83674,0.3718 2.38429,0.93536 3.439,1.25235 1.15647,0.34757 2.23739,0.87503 2.72317,1.32882 0.74813,0.69886 0.79335,0.84427 0.63462,2.04086 -0.13551,1.02151 -0.0585,1.49813 0.3718,2.30097 0.34397,0.64177 0.48986,1.27682 0.3984,1.73414 -0.11857,0.59286 0.0546,0.91849 0.97099,1.82576 0.97302,0.96334 1.09426,1.20943 0.95037,1.92888 -0.0907,0.45357 -0.31305,1.00462 -0.49409,1.22457 -0.46594,0.56608 -2.52194,2.39653 -2.77973,2.39653 m -0.29722,0.12049 c -0.12489,-0.21689 -2.67617,-3.31991 -2.67617,-3.80529 0,-0.24342 -0.7186,-1.32239 -1.5969,-2.39772 -0.8783,-1.07533 -1.66405,-2.21877 -1.7461,-2.54098 -0.082,-0.3222 -0.38864,-0.66183 -0.6813,-0.75471 -0.82592,-0.26214 -2.57553,-1.95892 -3.11962,-3.02542 -0.27006,-0.52936 -0.89808,-1.4497 -1.395597,-2.04519 -0.75144,-0.89942 -0.93187,-1.36664 -1.06577,-2.75974 -0.20551,-2.1382 -0.87462,-4.13557 -1.67456,-4.99879 -0.34452,-0.37177 -0.62639,-0.87778 -0.62639,-1.12448 0,-0.74416 1.65697,-0.69382 3.20801,0.0975 0.552327,0.28178 1.128037,0.51233 1.279357,0.51233 1.24407,0 -1.954957,-3.09232 -4.534657,-4.3834 -3.84042,-1.922027 -8.74053,-5.730826 -8.29671,-6.448936 0.25998,-0.420651 4.10825,-0.149848 4.72735,0.117088 l 2.91232,0.528831 c 2.64973,0.50703 5.990937,0.507011 7.937687,-5e-5 2.06474,-0.537799 3.59661,-0.498849 4.97472,0.12648 1.57587,0.71507 1.96529,0.67648 4.07896,-0.40421 2.07259,-1.059679 2.83456,-1.07462 5.89538,-0.115519 2.15212,0.674349 3.12465,0.66187 5.21276,-0.0669 1.63057,-0.569081 1.73162,-0.574631 2.56313,-0.14078 1.47206,0.76804 3.30247,1.07997 5.40449,0.92099 1.38621,-0.104841 2.30789,-0.0357 3.0593,0.22939 1.43153,0.50507 5.47063,0.14791 11.13733,-0.984831 3.79755,-0.759109 4.22163,-0.798009 4.59788,-0.421759 0.37625,0.37625 0.24958,0.53251 -1.37337,1.694139 -6.97064,4.989237 -10.97978,8.226047 -10.97978,8.864617 0,0.10808 0.75981,-0.0895 1.68846,-0.43901 1.40469,-0.52872 1.76585,-0.57895 2.1489,-0.29885 0.41997,0.30708 0.33147,0.48122 -1.00677,1.98101 -1.51569,1.69866 -3.09517,4.88566 -3.09517,6.24527 0,1.17992 -0.96371,2.65654 -2.87733,4.40871 -1.29376,1.1846 -2.03369,2.11646 -2.49308,3.13977 -0.3593,0.80037 -1.08134,1.89927 -1.60452,2.44201 -0.96802,1.0042 -3.14371,4.99292 -3.04009,5.57344 0.0313,0.17541 -0.20282,1.13514 -0.52028,2.13274 -0.31746,0.99759 -0.5772,2.22389 -0.5772,2.72511 0,1.06888 -0.59372,2.33916 -1.20248,2.57277 -0.78781,0.30231 -2.62151,0.17144 -3.87063,-0.27625 -1.12092,-0.40173 -1.40567,-0.40692 -3.04271,-0.0554 -0.99333,0.21329 -1.98465,0.36018 -2.20293,0.32643 l 1e-5,-1e-5 c -0.21828,-0.0338 -0.98178,-0.13867 -1.69666,-0.23314 -1.51567,-0.2003 -2.94617,-1.36974 -2.68439,-2.19451 0.0846,-0.26642 -0.0126,-0.83283 -0.21595,-1.25869 -0.20333,-0.42586 -0.38432,-1.25718 -0.49627,-1.83262 l -0.227,-1.16678 M 92.195592,94.328124 c -1.30396,-0.30253 -3.53808,-0.31964 -3.53808,-0.0271 0,0.24555 3.67053,3.38661 4.82748,4.13112 0.52288,0.33649 0.98624,0.41873 1.65364,0.29353 1.03406,-0.19399 1.05251,-0.2211 0.62087,-0.91226 -0.40938,-0.65552 -0.10749,-1.35438 0.58505,-1.35438 0.52808,0 0.51732,-0.0451 -0.18928,-0.79375 -0.41204,-0.43656 -0.98768,-0.79557 -1.27919,-0.7978 -0.29152,-0.002 -0.70862,-0.11947 -0.9269,-0.26053 z m 54.108618,3.04613 c 1.10926,-0.8063 2.42439,-1.72904 2.92249,-2.05052 1.1263,-0.72692 1.33712,-1.24624 0.50547,-1.24516 -0.61881,8e-4 -5.7542,0.94236 -6.6512,1.21947 -0.26267,0.0811 -0.42784,0.28627 -0.36703,0.45582 0.0608,0.16956 -0.0485,0.6236 -0.24291,1.00899 -0.33063,0.65546 -0.31113,0.71133 0.30197,0.86521 0.36048,0.0905 0.80263,0.40023 0.98257,0.68835 0.17993,0.28812 0.37319,0.52386 0.42947,0.52386 0.0563,0 1.0099,-0.65971 2.11917,-1.46602 z m -28.36923,33.790486 c -0.57499,-0.63535 -0.55636,-1.69246 0.0429,-2.43249 0.40161,-0.49597 0.73444,-0.59143 2.02168,-0.57986 1.73763,0.0156 1.98533,0.22648 1.99142,1.69527 0.005,1.24897 -0.72887,1.80094 -2.39506,1.80094 -0.84884,0 -1.35701,-0.14804 -1.66092,-0.48386 z m 4.24758,-3.91471 c -0.28307,-0.28307 -0.22487,-1.15768 0.077,-1.15768 0.14552,0 0.26458,0.17859 0.26458,0.39687 0,0.84011 1.02689,0.19354 1.68084,-1.05833 0.22805,-0.43656 0.41745,-0.67469 0.42088,-0.52917 0.003,0.14552 -0.26291,0.74083 -0.59187,1.32292 -0.55954,0.99009 -1.41371,1.46315 -1.85147,1.02539 z m -6.13388,-1.14454 c -0.46342,-0.89617 -0.52356,-1.7599 -0.13908,-1.99752 0.15072,-0.0931 0.26458,0.13534 0.26458,0.53095 0,1.05097 0.46589,1.71801 1.19994,1.71801 0.35868,0 0.65214,0.11906 0.65214,0.26458 0,0.14552 -0.35413,0.26459 -0.78695,0.26459 -0.60385,0 -0.88088,-0.18163 -1.19063,-0.78061 z m 6.74008,-1.33606 c 0.15577,-0.29104 0.34274,-0.52917 0.4155,-0.52917 0.0728,0 0.005,0.23813 -0.15091,0.52917 -0.15576,0.29104 -0.34273,0.52917 -0.4155,0.52917 -0.0728,0 -0.005,-0.23813 0.15091,-0.52917 z m -4.65867,-2.31916 c -0.16118,-0.10691 -0.49562,-1.11213 -0.74319,-2.23383 -0.59463,-2.69412 -1.76863,-4.98227 -3.20501,-6.24662 -0.6407,-0.56397 -1.28119,-1.33121 -1.42329,-1.70496 -0.32544,-0.85599 0.0523,-2.32431 0.76364,-2.96803 0.69977,-0.63328 2.3734,-0.90783 3.90709,-0.64092 0.69211,0.12045 2.71938,0.32993 4.50503,0.4655 3.29004,0.2498 4.0294,0.50208 4.0294,1.3749 0,0.58877 -1.26119,1.52109 -2.35305,1.73946 -1.31436,0.26287 -1.51915,0.7482 -0.71764,1.70073 0.99627,1.18401 0.96135,2.83192 -0.0853,4.02398 -0.4261,0.48531 -1.01505,1.51484 -1.30877,2.28785 -0.29373,0.77302 -0.73745,1.63024 -0.98606,1.90496 -0.4536,0.50122 -1.81849,0.67133 -2.38285,0.29698 z m -11.16005,-10.67639 c -0.74761,-0.27656 -0.79435,-1.42611 -0.0737,-1.81181 0.69065,-0.36962 0.72751,-0.35772 0.89679,0.28964 0.0936,0.35796 0.28847,0.50939 0.53416,0.41511 0.53785,-0.2064 0.73077,0.0628 0.4376,0.6106 -0.30933,0.57797 -1.03324,0.77821 -1.79488,0.49646 z m 21.91468,-0.0886 c -0.47278,-0.56967 -0.11126,-1.4447 0.52783,-1.27758 0.28764,0.0752 0.51996,0.004 0.51996,-0.15947 0,-0.45817 0.71692,-0.34813 0.90374,0.13872 0.22224,0.57914 -0.52669,1.68251 -1.14202,1.68251 -0.26987,0 -0.63415,-0.17288 -0.80951,-0.38418 z"
         id="path1-6"
         sodipodi:nodetypes="cccssssssssssssssssssscssssssssssssscssssssscscsssssssssccsscssssssssssccsssssssssssscssssssssssssssssssccsssssscccssscssssssssscssscssscsccscssssscscscsssssssssssssscssssccssssss" /></g></g></svg>
