<?xml version="1.0" encoding="UTF-8" standalone="no"?>
<!-- Created with Inkscape (http://www.inkscape.org/) -->

<svg
   width="18.832359mm"
   height="9.7178202mm"
   viewBox="0 0 18.832359 9.7178202"
   version="1.1"
   id="svg71253"
   sodipodi:docname="inkporter-svg-ggcrfhff.svg"
   xmlns:inkscape="http://www.inkscape.org/namespaces/inkscape"
   xmlns:sodipodi="http://sodipodi.sourceforge.net/DTD/sodipodi-0.dtd"
   xmlns="http://www.w3.org/2000/svg"
   xmlns:svg="http://www.w3.org/2000/svg">
  <sodipodi:namedview
     id="namedview71255"
     pagecolor="#ffffff"
     bordercolor="#666666"
     borderopacity="1.0"
     inkscape:pageshadow="2"
     inkscape:pageopacity="0.0"
     inkscape:pagecheckerboard="0"
     inkscape:document-units="mm"
     showgrid="false"
     inkscape:zoom="0.64052329"
     inkscape:cx="397.33138"
     inkscape:cy="561.25984"
     inkscape:window-width="2400"
     inkscape:window-height="1271"
     inkscape:window-x="-9"
     inkscape:window-y="-9"
     inkscape:window-maximized="1"
     inkscape:current-layer="layer1" />
  <defs
     id="defs71250" />
  <g
     inkscape:label="Layer 1"
     inkscape:groupmode="layer"
     id="layer1"
     transform="translate(-12.77428,-2.39133)">
    <g
       id="B-Bofors"
       transform="translate(-574.99142,-675.99841)">
      <path
         style="fill:#000000;fill-opacity:1;fill-rule:nonzero;stroke:none;stroke-width:0.352778"
         d="m 590.74502,685.03637 -0.0482,-0.0896 -0.0537,-0.0124 -0.003,-0.17639 0.0978,-0.01 0.12264,-0.1254 0.0179,-0.10335 0.11025,-0.13229 0.1819,-0.0675 0.22186,0.0262 0.10611,0.11299 0.0537,0.13781 -0.003,0.0951 -0.007,0.0648 0.0262,0.0785 0.21497,0.16399 0.0978,-0.0207 0.0565,-0.0923 0.15296,-0.0358 0.19982,0.0909 0.20808,0.2136 0.17501,0.34038 0.0565,0.16812 -0.051,0.0703 -0.0772,0.0648 -0.0441,0.0207 0.0152,0.0841 0.15158,0.0579 0.17363,0.29077 0.0331,0.32108 -0.0496,0.0648 -0.0138,0.17225 -0.0455,0.0923 -0.18603,0.0193 -0.0427,-10e-4 -0.0345,0.4079 0.0537,0.0675 0.20671,-10e-4 0.0592,0.051 0.14745,-0.0358 0.12678,-0.0923 0.14607,0.008 0.0634,0.15572 -0.0234,0.0386 0.0152,0.0951 0.0896,0.15572 0.0248,0.15572 -0.0193,0.13229 -0.15709,-0.003 -0.10198,-0.11852 0.003,-0.15434 -0.01,-0.04 -0.2012,0.0138 -0.0923,-0.0179 -0.0606,0.0813 -0.12678,0.0524 -0.32935,0.15985 -0.16812,0.0152 -0.091,-0.12953 -0.11162,-0.50437 -0.12403,-0.34037 -0.35277,-0.0386 -0.30179,-0.11576 0.0345,0.16536 -0.0345,0.11025 0.0744,0.38309 0.0152,0.37621 0.006,0.0441 -0.21773,-0.008 -0.004,-0.04 -0.0827,0.004 -0.0717,0.0538 -0.33073,-0.0165 -0.0372,-0.0896 0.0386,-0.0427 0.19568,-0.0193 0.15572,-0.1626 0.0331,-0.0276 -0.0289,-0.22186 -0.0675,-0.1502 -0.12954,-0.0524 -0.10748,-0.1447 -0.0331,-0.24942 -0.0221,-0.3266 0.1447,-0.14745 0.6904,-0.0152 0.0138,-0.16536 -0.22737,-0.40239 -0.1571,-0.0303 -0.14883,0.11438 -0.19568,0.0675 -0.19154,-0.003 -0.11714,-0.0854 0.003,-0.17639 0.13643,-0.34037 z m 0,0"
         id="path33770-2" />
      <path
         style="fill:#000000;fill-opacity:1;fill-rule:nonzero;stroke:none;stroke-width:0.352778"
         d="m 597.18184,683.41442 0.0427,0.004 z m -1.21267,0.55811 0.0138,-0.0345 0.0165,-0.0482 0.0593,-0.0179 0.15159,0.0165 0.0524,0.0248 0.091,0.0289 0.0937,0.0289 0.0579,0.0386 0.0524,0.0427 0.0469,0.0152 0.13229,0.0427 0.0951,0.0289 -0.0179,-0.0717 -0.0289,-0.0758 -0.0248,-0.1254 0.0179,-0.0868 0.0276,-0.10473 0.0551,-0.113 0.0152,-0.0262 -0.0717,-0.0193 -0.0386,0.0165 -0.0455,-10e-4 -0.0248,-0.004 -0.0276,-0.0248 -0.0234,-0.10474 -0.0152,-0.0413 -0.0427,-0.0248 0.0427,-0.15434 -0.17363,-0.0358 0.0358,-0.0179 0.0331,-0.0221 0.0193,-0.0303 0.004,-0.0276 0.0152,-0.0634 0.0207,-0.0593 0.0331,-0.062 c 0,0 0.006,-0.0221 0.0441,-0.0524 l 0.0469,-0.0345 c 0.0179,-0.0138 0.0744,-0.0317 0.0744,-0.0317 l 0.0579,-0.011 0.062,-0.008 0.0606,0.005 0.0455,0.005 0.0551,0.0138 0.0468,0.0193 c 0.008,0.003 0.0427,0.0303 0.0427,0.0303 l 0.0276,0.0276 0.0372,0.0469 c 0.0138,0.0179 0.0303,0.0551 0.0303,0.0551 l 0.011,0.04 c 0.004,0.0124 0.004,0.01 0.006,0.0303 l 0.003,0.0455 v 0.04 l -0.008,0.0496 -0.0124,0.0469 c -0.003,0.005 -0.007,0.008 -0.004,0.0276 0.003,0.0193 0.0165,0.0331 0.0165,0.0331 l -0.0441,0.011 -0.0165,0.0427 0.0785,0.0744 0.19155,0.0813 0.15572,0.20119 0.10059,0.01 0.0813,-0.073 0.15709,0.011 0.16537,0.14883 0.13918,0.26872 0.0675,0.37896 0.008,0.17777 -0.0703,0.0537 -0.0923,0.04 -0.0482,0.007 -0.01,0.0841 0.12816,0.1006 0.0841,0.33211 -0.062,0.3197 -0.0661,0.0482 -0.0634,0.15986 -0.0703,0.0758 -0.18466,-0.0372 -0.0413,-0.0138 -0.20671,0.39274 -0.30041,-0.0772 -0.20395,-0.0179 -0.022,-0.3638 -0.32797,-0.14332 -0.25769,-0.20257 -0.0138,0.17087 -0.062,0.38448 -0.31557,-0.14056 -0.0221,-0.16537 -0.11024,-0.0882 -0.0606,-0.17226 0.04,-0.2508 0.0744,-0.31971 0.18052,-0.0978 0.66973,0.19154 -0.0717,-0.28663 0.0854,-0.0537 -0.17087,-0.0551 -0.1571,-0.0841 -0.12265,-0.0648 -0.073,-0.0386 -0.0193,-0.0992 -0.073,-0.0372 -0.0606,-0.001 -0.0482,0.003 -0.091,0.004 -0.0468,-0.0303 -0.0579,-0.0455 -0.0565,-0.0524 z m 0,0"
         id="path33772-4" />
      <path
         style="fill:#000000;fill-opacity:1;fill-rule:nonzero;stroke:none;stroke-width:0.352778"
         d="m 594.97009,684.75801 -0.8723,1.59852 0.63803,0.56913 0.83234,-0.17225 z m 3.75929,0.14469 -0.0785,-0.0524 -0.50712,0.66145 -0.20808,-0.0276 -0.339,0.19844 -0.46854,-0.0124 -0.45475,0.0386 0.27285,0.27836 0.58567,-0.04 0.45613,0.14607 0.12954,-0.0661 0.0262,-0.29076 h 0.27285 l -0.0124,0.35691 0.66283,-0.6091 -0.10335,-0.34312 z m 0.57188,0.96463 -0.0524,-0.18466 -0.16949,0.2384 -0.24667,0.18466 -0.32522,0.27836 v 0.0785 l 0.81993,-0.0386 z m -2.80293,2.13044 h 0.45889 v -0.401 l -8.01054,-0.003 v 0.3197 h 0.38723 v 0.10887 h -1.44281 v -0.10887 h 0.43133 v -1.35874 l 0.62425,-0.007 v 0.39136 h 5.37297 l -0.6904,-0.63528 1.35324,-3.06613 -0.15572,-0.0538 -0.0717,-0.13229 -0.44235,-0.28387 -0.16261,0.21911 -0.29903,-0.19982 0.11713,-0.22462 -0.30592,-0.20395 h -0.12403 l -0.66972,-0.48231 0.0717,-0.1323 -3.68626,-2.21996 -1.48828,-0.78135 0.2012,-0.35278 1.43729,0.93707 3.74413,2.13182 0.10473,-0.0992 1.7818,1.03215 c 0.10336,-0.0524 0.20809,0 0.20809,0 l 0.10335,-0.0799 0.15572,0.13229 0.20946,-0.0524 0.20808,0.0262 0.14332,0.0923 -0.0923,0.15848 1.3491,0.79099 0.15986,-0.51401 0.0648,-0.2632 v -0.17226 h 0.3266 l 0.44097,0.21222 0.20946,-0.0138 -0.0923,0.76619 v 0.30455 l -0.10335,0.1819 0.14331,0.12127 0.26046,0.0138 0.3638,0.60909 -0.10473,0.0648 0.29903,0.48921 0.22186,-0.36932 0.15572,-0.39687 0.18328,-0.25081 -0.04,0.54157 -0.24667,0.47543 0.0648,1.32153 0.36518,0.21222 0.20808,0.14607 h 5.33852 v -0.35829 l 0.65733,0.007 v 1.35324 h 0.40238 v 0.11024 h -1.4428 v -0.11024 h 0.38998 v -0.34176 l -7.92234,-0.003 v 0.40101 h 0.31833 v 0.11024 h -1.44281 z m 0,0"
         id="path33774-1" />
      <path
         style="fill:#000000;fill-opacity:1;fill-rule:nonzero;stroke:none;stroke-width:0.352778"
         d="m 601.85752,685.15488 0.0248,-0.0978 0.0289,-0.0345 0.0331,-0.0331 h 0.0978 l 0.0661,-0.0661 0.0537,-0.011 -0.0331,-0.0221 -0.01,-0.011 -0.011,-0.011 0.0207,-0.0551 0.0331,0.0331 v 0.0221 h 0.23978 l 0.2067,0.14469 0.0978,-0.0207 0.0565,-0.0923 0.15296,-0.0358 0.19844,0.0923 0.20809,0.2136 0.17501,0.34037 0.0565,0.16675 -0.051,0.0703 -0.0758,0.0648 -0.0441,0.0221 0.0152,0.0827 0.1502,0.0579 0.17501,0.29077 0.0331,0.32108 -0.051,0.0661 -0.0138,0.17088 -0.0455,0.0923 -0.18465,0.0193 -0.0427,-10e-4 -0.0345,0.40928 0.0524,0.0675 0.20671,-0.003 0.0593,0.051 0.14746,-0.0358 0.12677,-0.0923 0.14745,0.008 0.062,0.1571 -0.022,0.0372 0.0152,0.0951 0.0896,0.15572 0.0234,0.15572 -0.0179,0.13229 -0.15847,-0.003 -0.10198,-0.11852 0.004,-0.15434 -0.011,-0.0386 -0.20119,0.0124 -0.0923,-0.0179 -0.0606,0.0813 -0.12678,0.0537 -0.32797,0.15985 -0.1695,0.0138 -0.091,-0.12954 -0.11025,-0.50436 -0.1254,-0.339 -0.35278,-0.04 -0.30316,-0.11576 0.0372,0.16675 -0.0358,0.10886 0.0744,0.3831 0.0165,0.3762 0.004,0.0441 -0.21773,-0.01 -0.004,-0.0386 -0.0827,0.004 -0.0717,0.0537 -0.33073,-0.0166 -0.0372,-0.0896 0.0386,-0.0427 0.19706,-0.0193 0.15434,-0.1626 0.0331,-0.0276 -0.0289,-0.22048 -0.0675,-0.15021 -0.12953,-0.0524 -0.10611,-0.14608 -0.0345,-0.24942 -0.0207,-0.3266 0.14469,-0.14607 0.6904,-0.0152 -0.1502,-0.2508 0.0758,-0.0882 -0.18328,-0.27009 -0.0234,-0.0482 -0.0303,-0.0496 -0.0496,-0.0634 -0.0593,-0.11024 -0.008,-0.0882 -0.003,-0.10749 z m 0,0"
         id="path33776-9" />
      <path
         style="fill:#000000;fill-opacity:1;fill-rule:nonzero;stroke:none;stroke-width:0.352778"
         d="m 601.44549,684.63261 c 0.004,0 0.0289,-10e-4 0.0289,-10e-4 l 0.0262,-0.0124 0.0317,-0.0207 0.0193,-0.0303 0.005,-0.0276 0.0138,-0.0634 0.0207,-0.0593 0.0331,-0.062 c 0,0 0.005,-0.0221 0.0455,-0.0524 0.04,-0.0303 0.0276,-0.0207 0.0455,-0.0345 0.0193,-0.0152 0.0758,-0.0317 0.0758,-0.0317 l 0.0565,-0.0124 0.0634,-0.007 0.0593,0.004 0.0469,0.007 0.0537,0.0138 c 0,0 0.04,0.0166 0.0482,0.0193 0.008,0.003 0.0413,0.0303 0.0413,0.0303 l 0.0276,0.0276 c 0,0 0.0248,0.0289 0.0386,0.0468 0.0124,0.0179 0.0303,0.0551 0.0303,0.0551 0,0 0.007,0.0262 0.01,0.04 0.004,0.011 0.004,0.01 0.005,0.0289 10e-4,0.0193 0.003,0.0469 0.003,0.0469 v 0.0386 l -0.008,0.051 c 0,0 -0.008,0.0413 -0.011,0.0455 -0.004,0.007 -0.008,0.01 -0.004,0.0289 0.003,0.0193 0.0152,0.0317 0.0152,0.0317 l -0.0427,0.0124 -0.0166,0.0427 0.0772,0.0744 -0.36242,0.23013 -0.0496,-0.0799 h -0.0593 l -0.0386,0.0165 -0.0468,-0.003 -0.0248,-0.003 -0.0262,-0.0248 -0.0248,-0.10473 -0.0124,-0.0413 -0.0441,-0.0248 -0.0193,-0.003 0.0634,-0.15297 -0.17501,-0.0344 c -0.0124,0 -0.022,-0.005 -0.0193,-0.005"
         id="path33778-5" />
      <path
         style="fill:#000000;fill-opacity:1;fill-rule:nonzero;stroke:none;stroke-width:0.352778"
         d="m 600.85431,685.65787 0.11576,-0.0289 0.0854,-0.0152 0.0813,-0.007 0.0593,-0.0207 0.15159,0.011 0.0524,0.0221 0.091,0.0262 0.0937,0.0262 0.53054,0.0289 0.0524,0.0772 -0.46991,-0.0303 0.0207,0.0248 0.15159,0.0606 0.12678,0.0152 0.17776,0.0234 -0.0179,0.0992 0.14883,0.27009 -0.24943,-0.0661 -0.15296,-0.0441 -0.15709,-0.0772 -0.1254,-0.0606 -0.073,-0.0345 -0.0234,-0.0992 -0.073,-0.0345 h -0.0593 l -0.0634,0.004 -0.0758,0.01 -0.0469,-0.0289 -0.0606,-0.0427 -0.0565,-0.0496 -0.0606,-0.011 -0.0689,-0.0138 -0.0386,-0.011 z m 0,0"
         id="path33780-2" />
      <path
         style="fill:#000000;fill-opacity:1;fill-rule:nonzero;stroke:none;stroke-width:0.352778"
         d="m 602.14829,685.94725 -1.39871,-0.27974 0.45613,-0.6463 0.8282,0.22187 z m 0,0"
         id="path33782-8" />
    </g>
  </g>
</svg>
