<?xml version="1.0" encoding="UTF-8" standalone="no"?>
<!-- Created with Inkscape (http://www.inkscape.org/) -->

<svg
   width="20.539076mm"
   height="7.4971552mm"
   viewBox="0 0 20.539076 7.4971552"
   version="1.1"
   id="svg5"
   sodipodi:docname="inkporter-svg-f1xnggzd.svg"
   xmlns:inkscape="http://www.inkscape.org/namespaces/inkscape"
   xmlns:sodipodi="http://sodipodi.sourceforge.net/DTD/sodipodi-0.dtd"
   xmlns="http://www.w3.org/2000/svg"
   xmlns:svg="http://www.w3.org/2000/svg">
  <sodipodi:namedview
     id="namedview7"
     pagecolor="#ffffff"
     bordercolor="#666666"
     borderopacity="1.0"
     inkscape:pageshadow="2"
     inkscape:pageopacity="0.0"
     inkscape:pagecheckerboard="0"
     inkscape:document-units="mm"
     showgrid="false"
     inkscape:zoom="0.93859299"
     inkscape:cx="357.98265"
     inkscape:cy="645.11456"
     inkscape:window-width="3840"
     inkscape:window-height="2081"
     inkscape:window-x="2391"
     inkscape:window-y="-9"
     inkscape:window-maximized="1"
     inkscape:current-layer="layer1" />
  <defs
     id="defs2" />
  <g
     inkscape:label="Layer 1"
     inkscape:groupmode="layer"
     id="layer1"
     transform="translate(-128.1402,-236.84759)">
    <path
       id="B-Buffalo"
       d="m 134.46743,244.32401 c -0.4403,-0.0516 -1.33953,-0.31566 -1.33953,-0.3933 0,-0.0173 -0.015,-0.0222 -0.0333,-0.0109 -0.0183,0.0113 -0.0813,-0.009 -0.13993,-0.0453 -0.0586,-0.0362 -0.23114,-0.12727 -0.38328,-0.20224 -0.15214,-0.075 -0.28561,-0.15052 -0.2966,-0.16786 -0.011,-0.0174 -0.0302,-0.029 -0.0427,-0.0259 -0.0124,0.003 -0.17993,-0.0964 -0.37206,-0.22101 -0.19212,-0.12468 -0.51838,-0.3329 -0.72502,-0.46271 -0.20664,-0.12982 -0.55213,-0.35217 -0.76776,-0.49415 -0.21561,-0.14196 -0.42762,-0.27377 -0.47112,-0.2929 -0.20121,-0.0885 -0.68607,-0.51742 -0.68792,-0.60856 -3e-4,-0.0205 -0.0201,-0.0448 -0.0438,-0.0539 -0.033,-0.0127 -0.11062,-0.25125 -0.13517,-0.41518 -10e-4,-0.009 -0.14924,-0.15894 -0.32865,-0.33324 -0.24748,-0.24043 -0.35706,-0.37528 -0.45405,-0.55878 -0.15518,-0.29359 -0.14536,-0.34945 0.0615,-0.34945 0.14939,0 0.1779,-0.0224 0.11212,-0.0882 -0.0448,-0.0448 -0.007,-0.17317 0.0505,-0.17317 0.0723,0 0.1327,0.0945 0.0886,0.13859 -0.0208,0.0208 -0.0377,0.0496 -0.0377,0.064 0,0.0347 0.27749,0.0327 0.62074,-0.004 0.15273,-0.0165 0.45779,-0.0401 0.67791,-0.0523 l 0.40021,-0.0223 v -0.0925 c 0,-0.0509 0.0164,-0.10257 0.0363,-0.11492 0.0483,-0.0298 0.099,0.0518 0.0803,0.12932 -0.0139,0.0574 6.2e-4,0.0602 0.20376,0.0411 0.12027,-0.0114 0.25175,-0.0208 0.29217,-0.0208 0.071,-2.2e-4 0.0735,-0.0107 0.0735,-0.30603 v -0.3058 l 0.18243,-0.0188 c 0.27212,-0.028 0.27495,-0.025 0.27495,0.29088 v 0.27421 l 0.10619,-0.001 c 0.0905,-0.001 0.12509,-0.0279 0.23452,-0.18062 0.19627,-0.2738 0.34766,-0.44098 0.38079,-0.42052 0.0165,0.0101 0.03,0.004 0.03,-0.0125 0,-0.0171 0.0404,-0.0412 0.0899,-0.0535 0.0494,-0.0124 0.11614,-0.0507 0.14829,-0.0852 0.0321,-0.0344 0.0946,-0.0628 0.13884,-0.0628 0.0465,0 0.0804,-0.0189 0.0804,-0.0449 0,-0.0524 0.15453,-0.0905 0.25801,-0.0634 0.0473,0.0123 0.0861,-0.001 0.11423,-0.0394 0.0348,-0.0477 0.0892,-0.0578 0.30071,-0.056 0.28623,0.003 0.73655,-0.0902 0.81363,-0.1673 0.0271,-0.0271 0.0786,-0.0586 0.11446,-0.0701 0.0358,-0.0114 0.0652,-0.0491 0.0652,-0.0838 0,-0.0554 0.0241,-0.0632 0.19602,-0.0632 0.1089,0 0.19601,-0.0145 0.19601,-0.0327 0,-0.0179 0.0221,-0.0326 0.049,-0.0326 0.0398,0 0.049,-0.0526 0.049,-0.27769 0,-0.19879 -0.0115,-0.27855 -0.0408,-0.28069 -0.0225,-0.002 -0.12822,-0.009 -0.235,-0.0161 -0.10678,-0.007 -0.20896,-0.0279 -0.22706,-0.0461 -0.0208,-0.0208 -0.46625,-0.0329 -1.21883,-0.0329 h -1.18594 v -0.0754 -0.0754 l 1.1836,-0.008 c 1.06068,-0.007 1.18996,-0.0138 1.2449,-0.0635 0.0337,-0.0306 0.0671,-0.0518 0.0742,-0.0473 0.007,0.004 0.10846,0.008 0.22526,0.008 0.17349,0 0.21234,-0.0101 0.21234,-0.0526 0,-0.0415 0.0225,-0.0486 0.10618,-0.0336 0.0584,0.0105 0.34268,0.0281 0.63172,0.0394 0.45515,0.0176 0.5325,0.0134 0.57757,-0.0317 0.0285,-0.0285 0.0825,-0.052 0.1197,-0.052 0.0372,0 0.0677,-0.0147 0.0677,-0.0326 0,-0.0179 0.0147,-0.0326 0.0327,-0.0326 0.0179,0 0.0326,0.0221 0.0326,0.049 0,0.027 0.0285,0.049 0.0634,0.049 0.0349,0 0.0719,0.0138 0.0823,0.0306 0.0103,0.0168 0.0685,0.0225 0.1292,0.0127 0.10182,-0.0166 0.112,-0.0102 0.13207,0.0811 0.012,0.0545 0.0119,0.15168 -2.2e-4,0.21607 -0.0193,0.10289 -0.0336,0.11709 -0.11827,0.11709 -0.053,0 -0.0885,0.0128 -0.0788,0.0282 0.009,0.0155 -0.0851,0.021 -0.21043,0.0119 -0.25249,-0.0181 -0.24044,-0.03 -0.22879,0.22601 0.006,0.13398 -0.0337,0.17637 -0.12029,0.1281 -0.13155,-0.0734 -0.56385,-0.17732 -0.79047,-0.19012 l -0.24191,-0.0138 0.0208,0.27001 c 0.0124,0.16037 0.0376,0.28126 0.0622,0.29772 0.0228,0.0153 0.0634,0.0409 0.0902,0.057 0.0738,0.0443 0.0159,0.0775 -0.0622,0.0356 -0.0453,-0.0242 -0.0681,-0.0251 -0.0681,-0.003 0,0.0186 -0.0588,0.0338 -0.13069,0.0338 h -0.13066 v 0.44105 0.44104 h 0.19602 c 0.15246,0 0.19602,-0.0109 0.19602,-0.049 0,-0.0422 0.11051,-0.049 0.79849,-0.049 0.49709,0 0.80612,-0.0123 0.81869,-0.0326 0.011,-0.018 0.15077,-0.0327 0.31037,-0.0327 0.1596,0 0.29926,0.0147 0.31037,0.0327 0.0317,0.0512 3.25717,0.0199 3.52839,-0.0343 0.0179,-0.004 0.29729,0.005 0.62072,0.0188 0.5595,0.0241 0.58573,0.0226 0.54026,-0.0322 -0.029,-0.0348 -0.0526,-0.0432 -0.0599,-0.0213 -0.007,0.0198 -0.0486,0.0362 -0.0932,0.0362 -0.0646,0 -0.0771,-0.0125 -0.0616,-0.0614 0.0123,-0.0389 0.001,-0.0685 -0.0305,-0.0807 -0.06,-0.0231 -0.0667,-0.1405 -0.009,-0.16106 0.0559,-0.0199 0.0144,-0.0585 -0.0698,-0.0649 -0.0526,-0.004 -0.0648,-0.0211 -0.0511,-0.0718 0.0164,-0.0607 0.0147,-0.0614 -0.0186,-0.008 -0.0201,0.0321 -0.0302,0.0762 -0.0223,0.098 0.0365,0.10169 -0.11122,0.21152 -0.14969,0.11127 -0.0293,-0.0762 0.062,-0.36498 0.11881,-0.3762 0.0293,-0.006 0.0651,-0.0561 0.0795,-0.11174 0.0195,-0.0755 0.0467,-0.10294 0.10652,-0.10793 0.0441,-0.004 0.0949,0.005 0.11294,0.019 0.0179,0.0142 0.0694,0.0268 0.11435,0.028 0.045,0.001 0.11108,0.004 0.14701,0.006 0.1197,0.006 0.5217,-0.0286 0.59624,-0.0522 0.0593,-0.0188 0.0735,-0.0107 0.0735,0.0413 0,0.0487 0.0181,0.0617 0.0735,0.0528 0.11009,-0.0176 1.2349,-0.10989 1.33899,-0.10989 0.074,0 0.0903,0.0145 0.0903,0.0797 0,0.0691 -0.0184,0.0821 -0.13886,0.0979 -0.16825,0.0222 -1.20362,0.11643 -1.27818,0.11643 -0.0834,0 -0.0621,0.0963 0.029,0.13084 0.11197,0.0425 0.16021,0.15585 0.11595,0.27227 -0.019,0.05 -0.0493,0.0818 -0.0673,0.0707 -0.018,-0.0111 -0.0327,0.0101 -0.0327,0.0471 0,0.0691 0.0783,0.0928 0.11435,0.0346 0.0261,-0.0424 0.16984,-0.0424 0.19601,0 0.0275,0.0445 1.83473,0.0445 1.86221,0 0.0263,-0.0426 1.85595,-0.0439 2.00405,-0.001 0.093,0.0266 0.10308,0.0244 0.0696,-0.0159 -0.0573,-0.069 -0.0131,-0.15247 0.0743,-0.14008 0.0524,0.007 0.0729,0.0316 0.071,0.084 l -0.003,0.0735 h 0.66417 0.66417 v 0.16335 0.16336 h -0.14252 -0.14252 l -0.0206,0.17456 c -0.0113,0.096 -0.0304,0.4121 -0.0423,0.7024 l -0.0218,0.52786 h -0.36617 -0.36616 l -0.0534,0.13994 c -0.0389,0.10166 -0.0534,0.24809 -0.0534,0.53519 v 0.39525 l -0.49823,0.25398 c -1.6501,0.84121 -1.77965,0.91206 -2.04816,1.11996 -0.15377,0.11907 -0.28695,0.22587 -0.29593,0.23734 -0.0371,0.0474 -1.22079,0.54916 -1.25118,0.53037 -0.0188,-0.0115 -0.023,-0.004 -0.0101,0.0173 0.0138,0.0224 0.003,0.0378 -0.0276,0.0378 -0.071,0 -0.0629,-0.002 -0.25421,0.0707 -0.15224,0.058 -0.23176,0.0827 -0.41669,0.12949 -0.0265,0.007 -0.0692,0.0319 -0.0949,0.0559 -0.0257,0.024 -0.0812,0.0371 -0.1233,0.029 -0.0421,-0.008 -0.0765,-0.005 -0.0765,0.006 0,0.0116 -0.0257,0.026 -0.0572,0.032 -0.13618,0.0259 -7.6278,0.0253 -7.849,-6.2e-4 z m 1.52903,-6.79166 0.007,-0.098 -0.31905,0.003 -0.31906,0.003 0.2777,0.0921 c 0.15273,0.0506 0.29295,0.0932 0.31159,0.0945 0.0186,0.001 0.0372,-0.0416 0.0413,-0.0955 z" />
  </g>
</svg>
