<?xml version="1.0" encoding="UTF-8" standalone="no"?>
<!-- Created with Inkscape (http://www.inkscape.org/) -->

<svg
   width="26.768063mm"
   height="9.7469339mm"
   viewBox="0 0 26.768063 9.7469339"
   version="1.1"
   id="svg5570"
   sodipodi:docname="inkporter-svg-o_ueb23s.svg"
   xmlns:inkscape="http://www.inkscape.org/namespaces/inkscape"
   xmlns:sodipodi="http://sodipodi.sourceforge.net/DTD/sodipodi-0.dtd"
   xmlns="http://www.w3.org/2000/svg"
   xmlns:svg="http://www.w3.org/2000/svg">
  <sodipodi:namedview
     id="namedview5572"
     pagecolor="#ffffff"
     bordercolor="#666666"
     borderopacity="1.0"
     inkscape:pageshadow="2"
     inkscape:pageopacity="0.0"
     inkscape:pagecheckerboard="0"
     inkscape:document-units="mm"
     showgrid="false"
     inkscape:zoom="1.2810466"
     inkscape:cx="1051.484"
     inkscape:cy="1475.7465"
     inkscape:window-width="2400"
     inkscape:window-height="1271"
     inkscape:window-x="-9"
     inkscape:window-y="-9"
     inkscape:window-maximized="1"
     inkscape:current-layer="layer1"
     inkscape:snap-bbox="true"
     inkscape:snap-nodes="false"
     inkscape:snap-others="false"
     inkscape:bbox-paths="true"
     inkscape:bbox-nodes="true" />
  <defs
     id="defs5567" />
  <g
     inkscape:label="Layer 1"
     inkscape:groupmode="layer"
     id="layer1"
     transform="translate(-241.54599,-379.14215)">
    <path
       d="m 246.69842,388.80443 c -0.0382,-0.0576 -0.11098,-0.0887 -0.24151,-0.10344 -0.16017,-0.0181 -0.18349,-0.0316 -0.16353,-0.0944 0.0133,-0.042 0.004,-0.0734 -0.021,-0.0734 -0.0244,0 -0.0345,0.0159 -0.0225,0.0352 0.012,0.0193 -0.009,0.0706 -0.0468,0.11374 -0.0628,0.072 -0.0793,0.0739 -0.19623,0.0236 -0.0702,-0.0302 -0.12769,-0.0795 -0.12769,-0.10954 0,-0.067 -0.0534,-0.0887 -0.29946,-0.12164 -0.27175,-0.0363 -0.40774,-0.0959 -0.40774,-0.17863 0,-0.0737 -0.32114,-0.22534 -0.42673,-0.20153 -0.0705,0.0159 -0.24118,-0.14644 -0.24118,-0.2294 0,-0.0923 -0.2873,-0.31572 -0.35341,-0.27487 -0.077,0.0476 -0.28156,-0.11442 -0.254,-0.20125 0.0153,-0.0482 -0.0221,-0.0981 -0.12674,-0.16923 -0.0816,-0.0555 -0.16777,-0.10087 -0.1914,-0.10087 -0.0729,0 -0.23411,-0.19908 -0.22188,-0.27411 0.0141,-0.0867 -0.16614,-0.23664 -0.28451,-0.23664 -0.0959,0 -0.27602,-0.21323 -0.23551,-0.27877 0.0141,-0.0228 -0.0156,-0.0852 -0.066,-0.13873 -0.0672,-0.0715 -0.11649,-0.0911 -0.18588,-0.0737 -0.0716,0.018 -0.0892,0.0101 -0.0728,-0.0326 0.0279,-0.0727 -0.1536,-0.10386 -0.60776,-0.10444 l -0.34074,-4.4e-4 -0.0135,-0.54022 c -0.0116,-0.46374 -7.5e-4,-0.58975 0.0764,-0.89012 0.14524,-0.56513 0.39769,-0.94682 0.79475,-1.20162 0.10838,-0.0696 0.19705,-0.13846 0.19705,-0.15316 0,-0.0147 0.053,-0.0581 0.11787,-0.0963 0.0648,-0.0383 0.11787,-0.0952 0.11787,-0.12634 0,-0.0626 0.1813,-0.0807 0.20299,-0.0202 0.007,0.02 0.12801,0.0392 0.26847,0.0424 0.35591,0.008 0.35359,0.009 0.35359,-0.0789 0,-0.0705 0.0262,-0.0785 0.25306,-0.0785 0.13919,0 0.26399,-0.0176 0.27735,-0.0393 0.0318,-0.0515 0.5304,-0.0515 0.5304,0 0,0.0216 0.0442,0.0393 0.0982,0.0393 0.054,0 0.0982,-0.0176 0.0982,-0.0393 0,-0.0222 0.11132,-0.0393 0.25537,-0.0393 0.14407,0 0.25539,0.0171 0.25539,0.0393 0,0.0216 0.0442,0.0393 0.0982,0.0393 0.054,0 0.0982,-0.0176 0.0982,-0.0393 0,-0.05 0.49958,-0.0523 0.51729,-0.003 0.017,0.0478 3.52495,0.10203 4.08931,0.0632 0.38359,-0.0264 0.42236,-0.0362 0.42236,-0.10616 0,-0.0424 -0.0521,-0.14237 -0.11581,-0.22213 -0.0636,-0.0798 -0.14767,-0.25994 -0.18662,-0.40041 l -0.0708,-0.25537 h -1.051 c -0.82577,0 -1.05099,0.0107 -1.05097,0.0501 2e-5,0.039 -0.1377,0.0477 -0.61877,0.0393 l -0.6188,-0.0108 -0.0113,-0.34378 -0.0113,-0.34378 h 0.63015 c 0.39391,0 0.63015,0.0147 0.63015,0.0393 0,0.0506 1.00835,0.0531 1.0396,0.003 0.0128,-0.0206 0.15157,-0.0276 0.31662,-0.0159 0.18412,0.0131 0.29391,0.006 0.29391,-0.0184 0,-0.0243 0.0902,-0.0312 0.23573,-0.018 0.23272,0.0211 0.23574,0.02 0.23574,-0.0799 0,-0.0558 0.0163,-0.11145 0.0362,-0.12378 0.0199,-0.0123 0.0477,-0.0743 0.0616,-0.13778 0.0139,-0.0635 0.0904,-0.18503 0.17,-0.27016 0.13064,-0.13978 0.17797,-0.1614 0.48843,-0.22314 l 0.34378,-0.0683 v -0.46645 c 0,-0.28478 0.0153,-0.46646 0.0393,-0.46646 0.0239,0 0.0393,0.1768 0.0393,0.45183 0,0.25942 0.0159,0.45181 0.0373,0.45181 0.11746,0 0.45967,-0.0933 0.49304,-0.1345 0.038,-0.0469 0.17332,-0.0775 0.81524,-0.18414 0.29048,-0.0483 0.35233,-0.0793 0.26521,-0.13317 -0.0216,-0.0134 -0.0393,-0.0497 -0.0393,-0.0809 0,-0.0426 0.055,-0.0566 0.22338,-0.0566 0.17701,0 0.24274,0.0182 0.31667,0.0877 0.0818,0.0768 0.12761,0.0861 0.37263,0.0747 0.15363,-0.007 0.31399,-0.0333 0.35636,-0.0582 0.0594,-0.0349 0.0811,-0.034 0.0949,0.004 0.0304,0.0841 0.0897,0.011 0.0897,-0.11061 0,-0.10832 0.01,-0.11555 0.15483,-0.11555 0.0852,0 0.16576,0.0176 0.17911,0.0393 0.0134,0.0216 0.0784,0.0393 0.14442,0.0393 0.10079,0 0.11682,0.0127 0.0996,0.0786 -0.0113,0.0432 -0.004,0.0785 0.0151,0.0785 0.0196,0 0.0356,-0.0176 0.0356,-0.0393 0,-0.0582 0.109,-0.0477 0.14538,0.0139 0.037,0.0628 0.75825,0.12185 0.75825,0.0621 0,-0.0202 0.0249,-0.0367 0.0552,-0.0367 0.0359,0 0.048,-0.0275 0.0347,-0.0785 -0.0173,-0.066 -8.9e-4,-0.0786 0.0996,-0.0786 0.066,0 0.13106,-0.0176 0.14441,-0.0393 0.0134,-0.0216 0.0933,-0.0393 0.17761,-0.0393 0.14473,0 0.15561,0.009 0.1942,0.15182 0.0385,0.14289 0.0517,0.15331 0.22402,0.17693 0.10073,0.0138 0.19165,0.0166 0.20205,0.006 0.0386,-0.0386 0.0563,-0.42275 0.0207,-0.44716 -0.0657,-0.0449 -0.20936,-0.3071 -0.18288,-0.33358 0.044,-0.044 0.60191,-0.0294 0.60191,0.0157 0,0.0228 -0.0442,0.10643 -0.0982,0.18592 -0.10832,0.15941 -0.12784,0.36761 -0.0512,0.54682 0.10161,0.23777 0.23057,0.30726 1.12013,0.60353 0.47095,0.15685 0.87838,0.30217 0.90539,0.32294 0.0363,0.0279 0.0491,0.23752 0.0491,0.80501 v 0.76726 l -0.86435,-0.0219 c -0.59022,-0.015 -0.86434,-0.009 -0.86434,0.0192 0,0.0745 -0.22387,0.25691 -0.3489,0.28437 -0.0675,0.0148 -0.12257,0.0509 -0.12257,0.0802 0,0.0407 0.0976,0.0562 0.41262,0.0656 0.22693,0.007 0.41257,-8.8e-4 0.41252,-0.0171 -4e-5,-0.0162 0.0707,-0.0294 0.15707,-0.0294 0.0864,0 0.15716,-0.0176 0.15716,-0.0393 0,-0.0216 0.0622,-0.0393 0.13826,-0.0393 0.12747,0 0.13635,-0.008 0.11386,-0.0972 l -0.0244,-0.0972 1.33984,-0.0108 c 1.19382,-0.01 1.33984,-0.004 1.33982,0.0506 -2e-5,0.0546 0.13422,0.0606 1.19829,0.0538 1.14921,-0.007 1.19831,-0.004 1.19831,0.0662 0,0.0406 0.0265,0.0738 0.0589,0.0738 0.0324,0 0.0589,-0.0343 0.0589,-0.0762 0,-0.0419 0.0133,-0.0833 0.0294,-0.092 0.0162,-0.009 0.27838,-0.003 0.5826,0.0126 0.76862,0.0394 1.12868,0.15271 1.51165,0.47565 0.21228,0.17898 0.39077,0.20699 0.39077,0.0613 0,-0.0527 0.062,-0.15078 0.14898,-0.23573 0.12641,-0.12343 0.17555,-0.14557 0.32414,-0.14606 0.0963,-2.9e-4 0.2547,-0.0284 0.35195,-0.0626 0.3357,-0.11767 0.70571,0.006 0.92194,0.30932 0.14847,0.20795 0.1854,0.5697 0.0795,0.77899 -0.15162,0.29968 -0.40733,0.46643 -0.72624,0.47362 -0.10815,0.003 -0.1967,0.0153 -0.19678,0.0287 -8e-5,0.0134 -0.12384,0.0763 -0.27502,0.13988 -0.19157,0.0806 -0.27487,0.13639 -0.27487,0.18431 0,0.0378 -0.0176,0.0797 -0.0393,0.093 -0.0226,0.0139 -0.0393,0.21984 -0.0393,0.48383 v 0.45956 l -0.18662,0.0834 c -0.10264,0.0458 -0.234,0.0944 -0.29191,0.10787 -0.0579,0.0135 -0.1339,0.0531 -0.16885,0.088 -0.0349,0.0349 -0.0746,0.0525 -0.0882,0.0389 -0.0387,-0.0387 -0.20853,0.13939 -0.26777,0.28077 -0.05,0.11933 -0.18686,0.21076 -0.33243,0.2221 -0.10209,0.008 -0.3138,0.15802 -0.31406,0.22263 -4.4e-4,0.10428 -0.16785,0.23294 -0.26878,0.20655 -0.10256,-0.0268 -0.3208,0.15223 -0.3208,0.26319 0,0.0953 -0.13883,0.2063 -0.22413,0.17922 -0.11491,-0.0364 -0.3652,0.19091 -0.3652,0.33176 0,0.13556 -0.10921,0.20849 -0.25675,0.17146 -0.11672,-0.0293 -0.29329,0.10664 -0.29329,0.22579 0,0.0925 -0.20809,0.19904 -0.32938,0.1686 -0.0967,-0.0243 -0.33853,0.0736 -0.33853,0.13699 0,0.0189 -0.0588,0.0691 -0.13068,0.11151 -0.1079,0.0636 -0.14245,0.0685 -0.19819,0.0277 -0.0936,-0.0684 -0.3351,0.009 -0.38742,0.12328 -0.0217,0.0476 -0.0771,0.0948 -0.12322,0.10485 -0.0461,0.01 -0.11472,0.0313 -0.15254,0.0472 -0.0489,0.0206 -0.0688,0.0107 -0.0688,-0.0342 0,-0.11698 -0.33551,-0.0642 -0.37459,0.0589 -0.0199,0.0626 -0.0629,0.0744 -0.27212,0.0744 -0.17475,0 -0.25469,-0.016 -0.26928,-0.0541 -0.0226,-0.0589 -0.22339,-0.0415 -0.22339,0.0194 0,0.0627 -0.47794,0.0408 -0.52606,-0.024 -0.0387,-0.0522 -0.0563,-0.0522 -0.15616,0 -0.12653,0.0661 -0.51808,0.0798 -0.55537,0.0195 -0.0317,-0.0511 -0.25538,-0.0511 -0.25538,0 0,0.0608 -0.42906,0.048 -0.49169,-0.0146 -0.0566,-0.0565 -0.25479,-0.0416 -0.25479,0.0192 0,0.0191 -0.10608,0.0347 -0.23574,0.0347 -0.13096,0 -0.23573,-0.0175 -0.23573,-0.0393 0,-0.0216 -0.053,-0.0393 -0.11787,-0.0393 -0.0648,0 -0.11786,0.0176 -0.11786,0.0393 0,0.0222 -0.11131,0.0393 -0.25538,0.0393 -0.14405,0 -0.25537,-0.0171 -0.25537,-0.0393 0,-0.0216 -0.053,-0.0393 -0.11787,-0.0393 -0.0648,0 -0.11786,0.0176 -0.11786,0.0393 0,0.0218 -0.10478,0.0393 -0.23574,0.0393 -0.13096,0 -0.23573,-0.0175 -0.23573,-0.0393 0,-0.0216 -0.0619,-0.0393 -0.13751,-0.0393 -0.0756,0 -0.13751,0.0176 -0.13751,0.0393 0,0.0216 -0.0972,0.0393 -0.21609,0.0393 -0.11885,0 -0.21608,-0.0176 -0.21608,-0.0393 0,-0.0216 -0.0707,-0.0393 -0.15716,-0.0393 -0.0864,0 -0.15716,0.0176 -0.15716,0.0393 0,0.0216 -0.0884,0.0393 -0.19644,0.0393 -0.10805,0 -0.19644,-0.0176 -0.19644,-0.0393 0,-0.0216 -0.0796,-0.0393 -0.1768,-0.0393 -0.0972,0 -0.1768,0.0176 -0.1768,0.0393 0,0.0624 -0.33763,0.0469 -0.39151,-0.018 -0.0493,-0.0594 -0.25888,-0.0448 -0.33337,0.0231 -0.058,0.0529 -0.37477,0.0402 -0.43239,-0.0175 -0.0563,-0.0563 -0.3357,-0.0426 -0.3357,0.0166 0,0.0192 -0.0884,0.035 -0.19645,0.035 -0.10804,0 -0.19644,-0.0176 -0.19644,-0.0393 0,-0.0216 -0.0697,-0.0393 -0.15483,-0.0393 -0.0852,0 -0.16577,0.0176 -0.17912,0.0393 -0.0134,0.0216 -0.1028,0.0393 -0.19877,0.0393 -0.096,0 -0.17448,-0.0176 -0.17448,-0.0393 0,-0.0216 -0.0795,-0.0393 -0.17679,-0.0393 -0.0972,0 -0.1768,0.0176 -0.1768,0.0393 0,0.0216 -0.0884,0.0393 -0.19645,0.0393 -0.10804,0 -0.19645,-0.0176 -0.19645,-0.0393 0,-0.0216 -0.0795,-0.0393 -0.1768,-0.0393 -0.0972,0 -0.1768,0.0176 -0.1768,0.0393 0,0.0216 -0.0795,0.0393 -0.1768,0.0393 -0.0972,0 -0.17679,-0.0176 -0.17679,-0.0393 0,-0.0216 -0.0972,-0.0393 -0.21609,-0.0393 -0.11884,0 -0.21609,0.0176 -0.21609,0.0393 0,0.0216 -0.0697,0.0393 -0.15483,0.0393 -0.0852,0 -0.16576,-0.0176 -0.17912,-0.0393 -0.0134,-0.0216 -0.11059,-0.0393 -0.21609,-0.0393 -0.10549,0 -0.20273,0.0176 -0.21608,0.0393 -0.0134,0.0216 -0.094,0.0393 -0.17912,0.0393 -0.0852,0 -0.15484,-0.0176 -0.15484,-0.0393 0,-0.0216 -0.0884,-0.0393 -0.19644,-0.0393 -0.10805,0 -0.19645,0.0176 -0.19645,0.0393 0,0.0216 -0.0697,0.0393 -0.15483,0.0393 -0.0852,0 -0.16577,-0.0176 -0.17913,-0.0393 -0.0134,-0.0216 -0.11059,-0.0393 -0.21608,-0.0393 -0.1055,0 -0.20273,0.0176 -0.21609,0.0393 -0.0134,0.0216 -0.094,0.0393 -0.17912,0.0393 -0.0852,0 -0.15483,-0.0176 -0.15483,-0.0393 0,-0.0216 -0.0962,-0.0393 -0.21378,-0.0393 -0.11756,0 -0.22469,0.0176 -0.23805,0.0393 -0.0445,0.072 -0.243,0.0435 -0.30049,-0.0431 z m 2.23147,-0.47748 c -0.0112,-0.027 -0.0408,-0.11144 -0.0658,-0.18762 -0.0362,-0.11029 -0.0814,-0.1534 -0.22206,-0.21157 -0.22525,-0.0932 -0.31525,-0.19112 -0.34672,-0.37737 -0.0186,-0.11017 -0.004,-0.19008 0.0562,-0.30823 0.0448,-0.0878 0.0814,-0.17006 0.0814,-0.18296 0,-0.0129 -0.0752,-0.018 -0.16698,-0.0114 l -0.16698,0.0121 -7.4e-4,0.19079 c -5.9e-4,0.13878 0.0255,0.22949 0.0957,0.3328 0.12479,0.18365 0.15531,0.49474 0.0656,0.66829 l -0.0643,0.1243 h 0.37752 c 0.28669,0 0.37263,-0.0118 0.35716,-0.0491 z m 1.62766,-0.14643 c -0.0537,-0.16954 -0.0828,-0.20392 -0.21909,-0.25852 -0.0864,-0.0347 -0.19252,-0.0959 -0.23574,-0.13609 -0.078,-0.0726 -0.0785,-0.0713 -0.0785,0.17013 0,0.13377 -0.0144,0.283 -0.0321,0.33162 -0.0316,0.0872 -0.0276,0.0884 0.29768,0.0884 h 0.32979 z m 1.7257,0.18039 c 0,-0.008 -0.0264,-0.0658 -0.0587,-0.12769 -0.0323,-0.0619 -0.0588,-0.14247 -0.0589,-0.17906 -1.5e-4,-0.0419 -0.0839,-0.10732 -0.22635,-0.1768 l -0.22609,-0.11027 0.0134,0.16008 c 0.007,0.088 -0.0137,0.22506 -0.0469,0.30449 l -0.0604,0.1444 h 0.33195 c 0.18257,0 0.33195,-0.007 0.33195,-0.0152 z m 1.59342,-0.0722 c -0.0336,-0.048 -0.0612,-0.12709 -0.0612,-0.17571 0,-0.0684 -0.051,-0.1136 -0.22591,-0.20019 l -0.22591,-0.1118 -0.004,0.1871 c -0.002,0.10292 -0.0335,0.23229 -0.0697,0.28752 l -0.0658,0.1004 h 0.35672 0.35674 z m 1.63126,-0.10873 c -0.0517,-0.16357 -0.0832,-0.20317 -0.19062,-0.2391 -0.0708,-0.0237 -0.17686,-0.0836 -0.23574,-0.13314 l -0.10705,-0.0901 -5.9e-4,0.26044 c -2.9e-4,0.14323 -0.0155,0.29136 -0.0337,0.32917 -0.0301,0.0627 -0.004,0.0688 0.29829,0.0688 h 0.33134 l -0.062,-0.19604 z m 1.66778,0.0801 c -0.033,-0.0637 -0.0599,-0.14328 -0.0599,-0.17671 0,-0.0463 -0.34445,-0.25742 -0.41988,-0.25742 -0.007,0 -0.0123,0.0716 -0.0123,0.1591 0,0.0875 -0.0269,0.21127 -0.0599,0.27503 l -0.0599,0.11591 h 0.33598 0.33597 z m 1.65012,0 c -0.033,-0.0637 -0.0599,-0.14799 -0.0599,-0.18717 0,-0.0492 -0.072,-0.10304 -0.2325,-0.17401 l -0.23249,-0.10276 0.0203,0.12482 c 0.0115,0.071 -0.007,0.18962 -0.0426,0.27508 -0.0346,0.0826 -0.0628,0.15693 -0.0628,0.1651 0,0.008 0.15073,0.0149 0.33496,0.0149 h 0.33496 z m 1.67194,-0.074 c -0.056,-0.17221 -0.0822,-0.19948 -0.28067,-0.29275 -0.31955,-0.15012 -0.3951,-0.37878 -0.23126,-0.69993 l 0.0806,-0.15795 -0.16787,0.0121 -0.16785,0.0121 0.0119,0.18951 c 0.007,0.11888 0.0465,0.24062 0.10489,0.32663 0.1277,0.18818 0.15956,0.43281 0.0809,0.6211 -0.0343,0.0821 -0.0624,0.15593 -0.0624,0.16409 0,0.008 0.15605,0.0148 0.34679,0.0148 h 0.34678 z m -13.37722,-0.0152 c -0.038,-0.14276 -0.0667,-0.17193 -0.24768,-0.25196 -0.29799,-0.13179 -0.40781,-0.39639 -0.26685,-0.64298 0.0762,-0.13326 0.0727,-0.15716 -0.023,-0.15716 -0.0451,0 -0.16107,-0.0568 -0.25772,-0.12621 -0.10248,-0.0736 -0.18706,-0.11024 -0.20287,-0.0879 -0.16646,0.23497 -0.24321,0.39032 -0.24321,0.49226 0,0.15515 -0.10323,0.37507 -0.21597,0.46011 -0.0862,0.065 -0.0847,0.0666 0.17259,0.18924 0.14271,0.0681 0.3756,0.14496 0.51755,0.17091 0.14195,0.026 0.27788,0.059 0.30207,0.0736 0.0242,0.0145 0.14842,0.0298 0.27609,0.034 l 0.23211,0.008 z m 14.68627,-0.0291 c 0.0553,-0.021 0.10873,-0.0227 0.12046,-0.004 0.0297,0.048 0.17815,0.003 0.17815,-0.0541 0,-0.0456 0.38701,-0.22852 0.45662,-0.21576 0.0974,0.0179 0.172,-0.009 0.172,-0.0631 0,-0.0331 0.0248,-0.0697 0.055,-0.0813 0.10384,-0.0399 -0.25434,-0.3215 -0.47004,-0.36963 -0.23177,-0.0517 -0.35583,-0.12623 -0.39014,-0.23434 -0.0216,-0.0681 -0.0588,-0.0796 -0.25692,-0.0796 h -0.23165 l 0.004,0.18657 c 0.003,0.12761 0.0394,0.24967 0.11643,0.38624 0.0794,0.14079 0.11269,0.25376 0.11269,0.38312 0,0.10089 0.008,0.18344 0.0171,0.18344 0.009,0 0.0618,-0.017 0.11647,-0.0378 z m -11.83435,-0.62462 c -0.01,-0.10096 0.0137,-0.20688 0.0698,-0.31681 l 0.0843,-0.16514 -0.14941,0.0123 -0.1494,0.0123 0.005,0.20088 c 0.004,0.11587 0.0341,0.24475 0.0733,0.30449 0.0373,0.057 0.0707,0.1036 0.0742,0.1036 0.004,0 -1.4e-4,-0.0683 -0.008,-0.15165 z m 4.95467,5.9e-4 c -0.0159,-0.11854 0.003,-0.18668 0.0843,-0.31666 l 0.10456,-0.16563 -0.16896,0.0121 -0.16896,0.0121 0.0119,0.2114 c 0.007,0.11942 0.0409,0.25137 0.0785,0.30326 0.0367,0.0505 0.0695,0.0924 0.0728,0.0931 0.004,7.5e-4 -0.003,-0.0668 -0.0142,-0.14981 z m -7.62365,0.004 c 0.0616,-0.069 0.0826,-0.15812 0.072,-0.30448 -0.005,-0.0717 -0.009,-0.0727 -0.0452,-0.0108 -0.0698,0.11974 -0.15211,0.38408 -0.11963,0.38408 0.0173,0 0.059,-0.0309 0.0928,-0.0688 z m 1.80608,-0.14256 c 0.009,-0.0488 0.005,-0.12213 -0.009,-0.16292 -0.0202,-0.0576 -0.0406,-0.0314 -0.0914,0.11774 -0.036,0.10556 -0.0654,0.20919 -0.0654,0.2303 0,0.0707 0.14868,-0.0952 0.16586,-0.18512 z m 1.67362,-0.12627 -0.0126,-0.15352 -0.0891,0.25514 -0.0891,0.25515 0.10162,-0.10163 c 0.0812,-0.0812 0.0991,-0.13245 0.0891,-0.25514 z m 3.28626,0.0461 c 0.01,-0.19423 -0.0381,-0.17595 -0.11274,0.0432 -0.0834,0.24484 -0.079,0.2822 0.0215,0.18166 0.0503,-0.0503 0.087,-0.14078 0.0912,-0.22482 z m 1.68373,0.007 c 0.009,-0.081 0.003,-0.14734 -0.0132,-0.14734 -0.034,0 -0.10342,0.16531 -0.14028,0.33396 l -0.0258,0.11786 0.0816,-0.0785 c 0.0449,-0.0433 0.0888,-0.14488 0.0976,-0.22591 z m 1.62984,-0.0153 c -0.003,-0.0726 -0.0118,-0.13198 -0.0202,-0.13198 -0.0177,0 -0.10633,0.21034 -0.14896,0.3536 l -0.0292,0.0982 0.1017,-0.0939 c 0.0737,-0.0681 0.10032,-0.13024 0.0967,-0.22591 z m 1.64754,0.003 c -0.0109,-0.15022 -0.0854,-0.11734 -0.11968,0.0529 -0.0119,0.0589 -0.0346,0.14252 -0.0503,0.18574 -0.0256,0.0702 -0.0176,0.0685 0.0753,-0.0162 0.0777,-0.0707 0.10164,-0.12709 0.0947,-0.22246 z m 1.69853,0.005 c 0.002,-0.19544 -0.0594,-0.14607 -0.13668,0.1107 l -0.055,0.18307 0.0953,-0.0693 c 0.0725,-0.0527 0.0956,-0.10632 0.0965,-0.22448 z m -9.02248,-0.15403 0.0677,-0.10331 h -0.13842 c -0.1349,0 -0.13841,0.004 -0.13841,0.15459 0,0.085 0.0207,0.20437 0.0458,0.26521 l 0.0458,0.1106 0.0249,-0.16188 c 0.0136,-0.089 0.0553,-0.20838 0.0926,-0.26521 z m 0.72597,0.10581 c -0.006,-0.16955 -0.0579,-0.12035 -0.13205,0.12618 l -0.0571,0.18963 0.0971,-0.0912 c 0.0694,-0.0652 0.0956,-0.12925 0.0921,-0.22461 z m 0.81556,0.23036 c -0.0124,-0.0392 0.0185,-0.15256 0.0689,-0.25191 l 0.0914,-0.18064 -0.1304,-0.0152 -0.13041,-0.0152 v 0.21998 c 0,0.12099 0.0212,0.2412 0.0472,0.26713 0.0655,0.0655 0.0798,0.059 0.0534,-0.0241 z m 5.05842,-0.31431 0.0711,-0.13019 -0.14853,0.0123 -0.14853,0.0123 0.0122,0.19645 c 0.0159,0.25513 0.0948,0.36645 0.12309,0.17346 0.0108,-0.0738 0.0516,-0.19277 0.0907,-0.26438 z m -1.74084,0.25031 c 0,-0.0528 0.0379,-0.16017 0.0841,-0.23863 l 0.0842,-0.14267 -0.13329,0.0127 c -0.14279,0.0137 -0.1396,0.004 -0.11862,0.37616 0.007,0.11996 0.0836,0.11299 0.0836,-0.008 z m -11.81871,-0.36428 c 0.0274,-0.0331 0.0157,-0.0811 -0.0384,-0.15715 -0.10306,-0.14498 -0.15809,-0.36107 -0.12293,-0.48267 0.0486,-0.16801 0.039,-0.2315 -0.0415,-0.27455 -0.0615,-0.033 -0.0733,-0.0302 -0.0566,0.0132 0.0115,0.0301 -0.005,0.0648 -0.037,0.077 -0.0318,0.0122 -0.0676,-0.003 -0.0793,-0.0336 -0.0321,-0.0838 -0.15254,-0.0222 -0.12944,0.0661 0.0137,0.0525 -0.002,0.0731 -0.0558,0.0731 -0.0412,0 -0.0749,-0.0176 -0.0749,-0.0393 0,-0.0216 -0.0265,-0.0393 -0.0589,-0.0393 -0.0324,0 -0.0589,0.0265 -0.0589,0.0589 0,0.0707 -0.0837,0.0774 -0.14908,0.012 -0.0363,-0.0363 -0.0646,-0.0279 -0.12559,0.0375 l -0.0787,0.0844 0.34365,0.3336 c 0.189,0.18347 0.41436,0.38481 0.5008,0.44741 l 0.15715,0.11383 0.033,-0.1215 c 0.0182,-0.0668 0.0507,-0.14298 0.0724,-0.16923 z m 19.50948,-0.3508 c 0.15666,-0.12098 0.28484,-0.22787 0.28484,-0.23752 0,-0.01 -0.1547,0.0629 -0.34378,0.16129 -0.18907,0.0984 -0.39171,0.19613 -0.45031,0.21722 -0.099,0.0356 -0.10357,0.0469 -0.0644,0.1594 l 0.0422,0.12105 0.12328,-0.10074 c 0.0678,-0.0554 0.25146,-0.19972 0.40812,-0.3207 z m -18.90376,0.0345 c 0.0592,-0.0395 0.14383,-0.20566 0.10478,-0.20566 -0.0383,0 -0.32481,0.19185 -0.32481,0.2175 0,0.0292 0.17255,0.0199 0.22003,-0.0118 z m -1.73265,-0.4021 c -0.0134,-0.0216 -0.0419,-0.0393 -0.0636,-0.0393 -0.0216,0 -0.0284,0.0176 -0.015,0.0393 0.0134,0.0216 0.0419,0.0393 0.0636,0.0393 0.0216,0 0.0284,-0.0177 0.015,-0.0393 z m 23.47502,-2.17599 c 0,-0.008 -0.0442,-0.0441 -0.0982,-0.0795 -0.0936,-0.0613 -0.0982,-0.0606 -0.0982,0.0152 0,0.0586 0.0258,0.0795 0.0982,0.0795 0.0541,0 0.0982,-0.007 0.0982,-0.0152 z m -9.86147,-4.83704 c 0,-0.0324 -0.0171,-0.0589 -0.038,-0.0589 -0.0209,0 -0.0278,0.0265 -0.0154,0.0589 0.0124,0.0324 0.0296,0.0589 0.038,0.0589 0.009,0 0.0154,-0.0265 0.0154,-0.0589 z"
       id="B-Churchill-CS"
       style="stroke-width:0.886433" />
  </g>
</svg>
