<?xml version="1.0" encoding="UTF-8" standalone="no"?>
<!-- Created with Inkscape (http://www.inkscape.org/) -->

<svg
   width="42.105877mm"
   height="9.7469368mm"
   viewBox="0 0 42.105877 9.7469368"
   version="1.1"
   id="svg5570"
   sodipodi:docname="inkporter-svg-o_ueb23s.svg"
   xmlns:inkscape="http://www.inkscape.org/namespaces/inkscape"
   xmlns:sodipodi="http://sodipodi.sourceforge.net/DTD/sodipodi-0.dtd"
   xmlns="http://www.w3.org/2000/svg"
   xmlns:svg="http://www.w3.org/2000/svg">
  <sodipodi:namedview
     id="namedview5572"
     pagecolor="#ffffff"
     bordercolor="#666666"
     borderopacity="1.0"
     inkscape:pageshadow="2"
     inkscape:pageopacity="0.0"
     inkscape:pagecheckerboard="0"
     inkscape:document-units="mm"
     showgrid="false"
     inkscape:zoom="1.2810466"
     inkscape:cx="1051.484"
     inkscape:cy="1475.7465"
     inkscape:window-width="2400"
     inkscape:window-height="1271"
     inkscape:window-x="-9"
     inkscape:window-y="-9"
     inkscape:window-maximized="1"
     inkscape:current-layer="layer1"
     inkscape:snap-bbox="true"
     inkscape:snap-nodes="false"
     inkscape:snap-others="false"
     inkscape:bbox-paths="true"
     inkscape:bbox-nodes="true" />
  <defs
     id="defs5567" />
  <g
     inkscape:label="Layer 1"
     inkscape:groupmode="layer"
     id="layer1"
     transform="translate(-259.5663,-365.25227)">
    <path
       d="m 264.24455,374.9291 c 0,-0.0342 -0.103,-0.10543 -0.22903,-0.15807 -0.28067,-0.11727 -0.27682,-0.11727 -0.27682,-8.7e-4 0,0.12654 -0.10072,0.11998 -0.23986,-0.0158 -0.25935,-0.2531 -0.32586,-0.28701 -0.41607,-0.21215 -0.0989,0.082 -0.29256,0.0295 -0.29256,-0.0792 0,-0.0398 -0.0996,-0.15174 -0.22132,-0.24887 -0.17409,-0.13895 -0.2213,-0.15465 -0.2213,-0.0737 0,0.13282 -0.13967,0.0866 -0.22132,-0.0732 -0.0348,-0.0682 -0.12897,-0.20707 -0.20931,-0.30873 -0.11856,-0.15008 -0.15677,-0.16756 -0.20287,-0.093 -0.0698,0.11299 -0.15057,0.0432 -0.30268,-0.26149 -0.0651,-0.13039 -0.15401,-0.21467 -0.22651,-0.21467 -0.10843,0 -0.15625,-0.0568 -0.29294,-0.34777 -0.0245,-0.0522 -0.0873,-0.0953 -0.13952,-0.0957 -0.13211,-10e-4 -0.30848,-0.15844 -0.26205,-0.23356 0.0211,-0.0341 0.001,-0.13111 -0.0437,-0.21535 -0.0565,-0.10543 -0.0967,-0.1294 -0.12911,-0.077 -0.0802,0.12968 -0.22625,-0.0488 -0.27151,-0.33171 -0.034,-0.21226 -0.0608,-0.24925 -0.15847,-0.21824 -0.0777,0.0247 -0.13211,-4.2e-4 -0.16034,-0.074 -0.0235,-0.0612 -0.0128,-0.12141 0.0241,-0.13353 0.0368,-0.0128 0.0669,-0.12113 0.0669,-0.24206 0,-0.14517 -0.0238,-0.20503 -0.0703,-0.17634 -0.0742,0.0458 -0.18003,-0.0765 -0.18166,-0.20987 -4.8e-4,-0.0435 0.0496,-0.079 0.11171,-0.079 0.067,0 0.14152,-0.0768 0.18419,-0.1897 0.0585,-0.15506 0.0554,-0.1897 -0.0177,-0.1897 -0.0491,0 -0.0893,-0.0569 -0.0893,-0.12641 0,-0.0783 0.0422,-0.12654 0.11071,-0.12654 0.13582,-10e-5 0.491,-0.29469 0.39424,-0.32695 -0.0382,-0.0128 -0.0506,-0.0725 -0.0275,-0.13267 0.0321,-0.0836 0.1167,-0.10943 0.35914,-0.10943 0.27362,0 0.30642,-0.0128 0.23905,-0.0942 -0.0636,-0.0766 -0.0576,-0.102 0.0322,-0.13639 0.0606,-0.0233 0.16349,-0.009 0.22843,0.0314 0.12369,0.0773 0.14518,0.0444 0.12284,-0.18802 -0.0148,-0.15386 0.33754,-0.16617 3.80034,-0.13282 2.71618,0.0261 3.08732,0.0184 3.08732,-0.0652 0,-0.0522 -0.0438,-0.13125 -0.0973,-0.17566 -0.0535,-0.0444 -0.14296,-0.24497 -0.19877,-0.44569 l -0.10144,-0.36493 -0.48099,-0.0205 c -1.00531,-0.0428 -4.98417,-0.0128 -5.28027,0.0392 -0.26701,0.0474 -0.32157,0.0388 -0.3952,-0.0619 -0.1177,-0.16103 -0.107,-0.37005 0.0253,-0.48782 0.0974,-0.0869 0.16331,-0.0886 0.55166,-0.0148 0.24255,0.0461 0.46062,0.0716 0.48459,0.0568 0.024,-0.0148 0.83566,-0.0397 1.80376,-0.0552 0.96809,-0.0156 2.12569,-0.0629 2.57244,-0.10514 l 0.81229,-0.0768 0.0977,-0.20479 c 0.10743,-0.22515 0.22961,-0.30356 0.63316,-0.40613 l 0.26874,-0.0683 v -0.4402 c 0,-0.2513 0.0271,-0.44017 0.0632,-0.44017 0.0361,0 0.0632,0.18916 0.0632,0.44105 v 0.44103 l 0.20551,-0.0402 c 0.11299,-0.0221 0.26241,-0.0752 0.33197,-0.11799 0.0696,-0.0428 0.26874,-0.0971 0.44262,-0.12083 0.509,-0.0692 0.61131,-0.10486 0.57485,-0.19982 -0.0184,-0.0478 10e-4,-0.0895 0.0437,-0.0923 0.0424,-0.003 0.14095,-0.0128 0.21911,-0.021 0.0782,-0.009 0.18492,0.0317 0.2373,0.0895 0.0783,0.0866 0.15795,0.0967 0.44824,0.0573 0.21432,-0.0291 0.3837,-0.0899 0.43122,-0.15494 0.0624,-0.0852 0.13211,-0.0979 0.3424,-0.0623 0.16427,0.0277 0.26413,0.0783 0.26413,0.13396 0,0.10372 0.16295,0.12055 0.22322,0.023 0.0255,-0.0412 0.0688,-0.0442 0.11441,-0.009 0.0999,0.0793 0.73293,0.13268 0.7746,0.0652 0.0184,-0.0298 0.11414,-0.0541 0.21266,-0.0541 0.10101,0 0.19508,-0.0414 0.2156,-0.0949 0.0468,-0.12197 0.23006,-0.12383 0.23006,-0.003 0,0.13354 0.2309,0.24677 0.29492,0.14466 0.10143,-0.16182 0.0857,-0.37378 -0.0395,-0.53299 -0.20923,-0.266 -0.16997,-0.33662 0.18717,-0.33662 0.34006,0 0.39132,0.0662 0.22333,0.28827 -0.0511,0.0675 -0.0937,0.2534 -0.0949,0.41308 l -0.001,0.29034 0.36359,0.10772 c 0.19997,0.0592 0.70503,0.19933 1.12237,0.31132 l 0.7588,0.20363 0.018,0.75163 0.0178,0.75161 -0.9822,-0.0358 -0.98219,-0.0358 v 0.18187 c 0,0.10571 -0.0579,0.23588 -0.13839,0.31078 l -0.13838,0.12897 h 0.58102 c 0.4743,0 0.581,-0.0174 0.581,-0.0949 0,-0.0813 0.1897,-0.0949 1.32789,-0.0949 0.73033,0 1.32788,0.0234 1.32788,0.0521 0,0.0287 0.50507,0.0464 1.12238,0.0392 1.01687,-0.0114 1.13277,-0.001 1.23302,0.10329 0.0609,0.0639 0.11071,0.14583 0.11071,0.18207 0,0.083 1.13202,0.0879 1.26252,0.006 0.0591,-0.0374 0.12283,-0.0337 0.17526,0.01 0.0454,0.0377 0.35224,0.0826 0.68187,0.0999 l 0.59934,0.0314 v -0.19458 c 0,-0.24908 0.0398,-0.26956 0.43352,-0.22294 0.2612,0.031 0.32527,0.0618 0.32527,0.15617 0,0.14527 0.077,0.14734 0.45398,0.0128 0.26162,-0.0937 0.35679,-0.0967 0.82201,-0.0257 0.71161,0.10872 1.02593,0.0788 1.05141,-0.0999 0.0235,-0.16494 0.22299,-0.18808 2.1463,-0.24895 l 1.28046,-0.0405 v 0.16542 c 0,0.15582 0.018,0.16541 0.30879,0.16541 0.26053,0 0.3142,-0.0207 0.34352,-0.13282 0.0372,-0.14238 0.1697,-0.10971 0.1697,0.0417 0,0.10287 0.26067,0.11642 0.9643,0.0499 l 0.42682,-0.0404 v -0.30701 c 0,-0.16886 -0.0284,-0.30702 -0.0632,-0.30702 -0.0348,0 -0.0632,-0.0408 -0.0632,-0.0906 0,-0.11556 0.1968,-0.17883 0.39874,-0.12811 0.0872,0.0218 0.17531,0.009 0.1988,-0.0291 0.0532,-0.086 0.45653,-0.09 0.50903,-0.006 0.0215,0.0348 0.15121,0.0632 0.28827,0.0632 0.1371,0 0.24921,0.0277 0.24921,0.0615 0,0.0553 1.19096,0.0201 1.25785,-0.0372 0.0143,-0.0114 -0.0114,-0.0643 -0.0545,-0.11699 -0.0649,-0.0782 -0.0608,-0.10271 0.0227,-0.13467 0.15667,-0.0601 0.33061,0.024 0.239,0.11556 -0.12854,0.12854 -0.0812,0.17498 0.17913,0.17498 0.1391,0 0.25294,0.0284 0.25294,0.0632 0,0.0348 0.0996,0.0632 0.2213,0.0632 0.23059,0 0.27262,-0.0499 0.14751,-0.17498 -0.0926,-0.0926 0.083,-0.17542 0.24246,-0.11428 0.0803,0.0308 0.0879,0.0581 0.0317,0.11428 -0.13154,0.13154 -0.0793,0.17498 0.21074,0.17498 0.22921,0 0.28436,0.0215 0.28358,0.11071 -10e-4,0.13995 -0.0604,0.22736 -0.22035,0.32564 -0.10472,0.0643 -0.0505,0.0716 0.31616,0.0425 0.24344,-0.0194 0.6456,-0.0355 0.89368,-0.0357 0.39768,-4e-4 0.45498,-0.0154 0.48414,-0.12697 0.0412,-0.15775 0.17311,-0.16511 0.21318,-0.0114 0.0248,0.095 0.0859,0.11156 0.35767,0.0973 0.18022,-0.01 0.71589,-0.0301 1.19035,-0.0458 l 0.86267,-0.0284 0.0384,0.19203 c 0.0211,0.10557 0.0384,0.33339 0.0384,0.5062 0,0.26099 0.0214,0.31977 0.1264,0.34725 0.0696,0.0183 0.12641,0.0582 0.12641,0.0889 0,0.0307 -0.0569,0.0559 -0.12641,0.0559 -0.11085,0 -0.1264,0.0422 -0.1264,0.34012 0,0.31828 0.0128,0.34515 0.18969,0.41868 0.25373,0.10514 0.2415,0.2731 -0.0317,0.43424 -0.12169,0.0718 -0.22132,0.17484 -0.22132,0.22892 0,0.0541 -0.0782,0.13025 -0.17388,0.16934 -0.0956,0.0391 -0.44844,0.35857 -0.78399,0.71002 l -0.6101,0.639 -0.78102,0.0317 -0.78101,0.0317 -0.0549,0.25293 c -0.0302,0.1391 -0.0698,0.29562 -0.0879,0.34778 -0.0181,0.0522 -0.0388,0.15031 -0.0461,0.21811 -0.007,0.0678 -0.0459,0.13424 -0.086,0.14754 -0.0401,0.0128 -0.0729,0.0745 -0.0729,0.13567 0,0.0612 -0.0711,0.19404 -0.158,0.29509 -0.0869,0.10101 -0.15805,0.20507 -0.15809,0.23115 -4e-5,0.0261 -0.036,0.0474 -0.0798,0.0474 -0.0438,0 -0.11256,0.0528 -0.15296,0.11742 -0.0936,0.14985 -0.58012,0.40554 -0.69085,0.36305 -0.0464,-0.0178 -0.101,-0.006 -0.12155,0.0281 -0.0934,0.15129 -1.54749,0.0271 -1.54749,-0.13225 0,-0.0331 -0.0554,-0.0602 -0.12283,-0.0602 -0.0676,0 -0.1605,-0.0498 -0.20648,-0.11071 -0.0459,-0.0609 -0.1381,-0.14095 -0.20485,-0.17811 -0.0668,-0.0371 -0.15164,-0.12198 -0.18875,-0.18874 -0.0371,-0.0668 -0.11727,-0.1589 -0.17812,-0.20486 -0.0609,-0.0459 -0.11071,-0.12569 -0.11071,-0.17708 0,-0.0514 -0.0458,-0.16341 -0.10186,-0.24885 -0.0559,-0.0855 -0.0857,-0.19736 -0.0659,-0.24868 0.0197,-0.0514 0.009,-0.11014 -0.0247,-0.13068 -0.0332,-0.0205 -0.0605,-0.11099 -0.0605,-0.201 v -0.16363 l -0.71377,0.0427 -0.71375,0.0427 -1.09791,-1.10443 -1.09791,-1.10441 -0.6702,-0.28903 c -0.51504,-0.22212 -0.74707,-0.2889 -1.00218,-0.28847 -0.30408,5e-4 -0.33197,0.0128 -0.33197,0.14599 0,0.18315 -0.11142,0.29719 -0.29042,0.29719 -0.14024,0 -0.21544,-0.10843 -0.21544,-0.31064 0,-0.21103 -0.26497,-0.28045 -0.89029,-0.23326 -0.49676,0.0375 -0.59636,0.0284 -0.6982,-0.0638 -0.0699,-0.0634 -0.11884,-0.0775 -0.11884,-0.0345 0,0.0492 -0.16697,0.073 -0.51177,0.073 -0.45861,0 -0.51522,0.0128 -0.54486,0.12654 -0.0181,0.0695 -0.0586,0.1264 -0.09,0.1264 -0.0718,0 -0.34105,0.59971 -0.31853,0.70918 0.006,0.0248 -0.0235,0.1244 -0.0638,0.22131 -0.0401,0.0969 -0.0753,0.20454 -0.0783,0.23931 -0.003,0.0348 -0.0338,0.0646 -0.0685,0.0662 -0.0348,10e-4 -0.16282,0.0656 -0.28455,0.14209 -0.12169,0.0765 -0.25527,0.1391 -0.29677,0.13924 -0.0415,1.3e-4 -0.11613,0.0583 -0.16589,0.1294 -0.0498,0.0711 -0.11542,0.12098 -0.14586,0.11114 -0.10443,-0.034 -0.3435,0.18277 -0.30689,0.27819 0.0197,0.0515 -0.009,0.13011 -0.0618,0.1747 -0.0796,0.0661 -0.11627,0.0658 -0.19739,-0.001 -0.0662,-0.0549 -0.11399,-0.0608 -0.14224,-0.0173 -0.0234,0.0361 -0.10557,0.0987 -0.18253,0.13924 -0.0769,0.0405 -0.1254,0.11128 -0.10785,0.15742 0.0367,0.0954 -0.12983,0.25865 -0.21192,0.2079 -0.0795,-0.0491 -0.36239,0.16501 -0.36239,0.27413 0,0.0514 -0.15562,0.16789 -0.34581,0.25886 -0.21852,0.10457 -0.31162,0.17799 -0.25293,0.19963 0.14328,0.0528 -0.10672,0.2188 -0.40021,0.26574 -0.20504,0.0328 -0.23572,0.0576 -0.20205,0.16377 0.0291,0.0919 0.009,0.12754 -0.0752,0.1341 -0.0632,0.004 -0.17182,0.0143 -0.24139,0.0208 -0.0696,0.007 -0.1924,0.0167 -0.273,0.0227 -0.11599,0.009 -0.1381,0.0371 -0.10643,0.13725 0.0431,0.13596 0.0465,0.13482 -0.45951,0.1391 -0.2136,0.001 -0.26629,0.0237 -0.25293,0.10543 0.0144,0.088 -0.0412,0.10029 -0.37832,0.0827 -0.32625,-0.017 -0.39521,-0.003 -0.39521,0.079 0,0.0641 -0.0564,0.0996 -0.15808,0.0996 -0.0869,0 -0.15808,-0.0254 -0.15808,-0.0564 0,-0.031 -0.0963,-0.0676 -0.21413,-0.0813 -0.15566,-0.0181 -0.20562,-0.003 -0.18294,0.0564 0.0358,0.0932 -0.26899,0.11698 -0.32559,0.0254 -0.0603,-0.0976 -0.41553,-0.12155 -0.41553,-0.028 0,0.0932 -0.28842,0.1167 -0.34326,0.028 -0.019,-0.0308 -0.11727,-0.0681 -0.2185,-0.0829 -0.1331,-0.0196 -0.17513,-0.004 -0.15209,0.0559 0.0364,0.0946 -0.26756,0.11984 -0.32498,0.027 -0.0603,-0.0976 -0.41551,-0.12155 -0.41551,-0.028 0,0.0474 -0.0689,0.0839 -0.15809,0.0839 -0.0869,0 -0.15807,-0.0254 -0.15807,-0.0564 0,-0.031 -0.0963,-0.0675 -0.21414,-0.0813 -0.15566,-0.0181 -0.20561,-0.003 -0.18293,0.0564 0.0375,0.0977 -0.27042,0.1147 -0.33011,0.0181 -0.0215,-0.0348 -0.0943,-0.0632 -0.16181,-0.0632 -0.0675,0 -0.12269,0.0284 -0.12269,0.0632 0,0.078 -0.29563,0.0843 -0.34327,0.007 -0.0603,-0.0976 -0.41551,-0.12155 -0.41551,-0.028 0,0.0934 -0.22578,0.1157 -0.28024,0.0277 -0.0191,-0.031 -0.13139,-0.0675 -0.24948,-0.0813 -0.15616,-0.0183 -0.20621,-0.003 -0.18352,0.0562 0.0375,0.0977 -0.27041,0.1147 -0.3301,0.0181 -0.0215,-0.0348 -0.10857,-0.0632 -0.19343,-0.0632 -0.0849,0 -0.15435,0.0284 -0.15435,0.0632 0,0.0776 -0.26815,0.084 -0.35094,0.009 -0.0331,-0.0303 -0.15128,-0.0719 -0.26277,-0.0927 -0.16153,-0.0301 -0.19547,-0.019 -0.16712,0.0549 0.0255,0.0665 -0.01,0.0927 -0.12555,0.0927 -0.0886,0 -0.17667,-0.0251 -0.19568,-0.0559 -0.0604,-0.0976 -0.41552,-0.12155 -0.41552,-0.028 0,0.0474 -0.0689,0.0839 -0.15808,0.0839 -0.087,0 -0.15808,-0.0284 -0.15808,-0.0632 0,-0.0348 -0.0853,-0.0632 -0.18971,-0.0632 -0.10429,0 -0.18968,0.0284 -0.18968,0.0632 0,0.0348 -0.0712,0.0632 -0.15809,0.0632 -0.0869,0 -0.15808,-0.0284 -0.15808,-0.0632 0,-0.0348 -0.0853,-0.0632 -0.1897,-0.0632 -0.10429,0 -0.1897,0.0284 -0.1897,0.0632 0,0.0348 -0.0712,0.0632 -0.15807,0.0632 -0.0869,0 -0.15809,-0.0254 -0.15809,-0.0563 0,-0.031 -0.0996,-0.0679 -0.22132,-0.0822 -0.15262,-0.0178 -0.2213,-3.1e-4 -0.2213,0.0564 0,0.0917 -0.28915,0.1137 -0.34328,0.0263 -0.019,-0.0308 -0.11727,-0.0681 -0.21849,-0.0829 -0.13311,-0.0195 -0.17512,-0.004 -0.15208,0.0559 0.0364,0.0947 -0.23457,0.1177 -0.33266,0.0281 -0.0331,-0.0302 -0.15128,-0.0719 -0.26276,-0.0927 -0.16154,-0.0301 -0.19548,-0.019 -0.16713,0.0549 0.0255,0.0665 -0.01,0.0927 -0.12554,0.0927 -0.0886,0 -0.17871,-0.0284 -0.20021,-0.0632 -0.0215,-0.0348 -0.11013,-0.0632 -0.19716,-0.0632 -0.0893,0 -0.1411,0.0275 -0.11898,0.0632 0.0221,0.0357 -0.0297,0.0632 -0.11898,0.0632 -0.087,0 -0.17373,-0.0253 -0.19285,-0.0562 -0.0191,-0.031 -0.13139,-0.0675 -0.24949,-0.0813 -0.15616,-0.0183 -0.20621,-0.003 -0.18351,0.0562 0.0204,0.0531 -0.0242,0.0813 -0.1284,0.0813 -0.0877,0 -0.16907,-0.0261 -0.18065,-0.0579 -0.0114,-0.0318 -0.1324,-0.0786 -0.26842,-0.10386 -0.21369,-0.0397 -0.2419,-0.0318 -0.20747,0.0579 0.0302,0.079 0.003,0.10386 -0.11628,0.10386 -0.0859,0 -0.15609,-0.0281 -0.15609,-0.0623 z m 1.45436,-0.38024 c 0,-0.0933 0.55233,-0.0786 0.59062,0.0158 0.0244,0.0602 0.0471,0.0575 0.0953,-0.0114 0.0765,-0.10985 -0.13724,-0.57306 -0.26433,-0.57306 -0.0449,0 -0.1466,-0.0605 -0.22601,-0.13453 -0.14543,-0.13553 -0.15991,-0.36475 -0.0404,-0.64011 0.0388,-0.0893 0.0163,-0.11071 -0.11685,-0.11071 -0.1477,0 -0.16485,0.0241 -0.16485,0.23215 0,0.13111 0.0475,0.28461 0.10929,0.35282 0.0636,0.0702 0.10928,0.2222 0.10928,0.36351 0,0.14138 -0.0457,0.29329 -0.10928,0.36353 -0.12341,0.13639 -0.13896,0.20556 -0.0459,0.20556 0.0348,0 0.0632,-0.0284 0.0632,-0.0632 z m 2.21314,0 c 0,-0.0348 0.0384,-0.0632 0.0855,-0.0632 0.0686,0 0.0719,-0.0434 0.0161,-0.22132 -0.0381,-0.12169 -0.0867,-0.2213 -0.10814,-0.2213 -0.0214,0 -0.13539,-0.0655 -0.25328,-0.14552 l -0.21432,-0.1455 0.0223,0.27347 c 0.0128,0.15555 -0.0114,0.31375 -0.0552,0.36684 -0.0659,0.0793 -0.0432,0.0933 0.1516,0.0933 0.12597,0 0.22905,0.0284 0.22905,0.0632 0,0.0348 0.0284,0.0632 0.0632,0.0632 0.0348,0 0.0632,-0.0284 0.0632,-0.0632 z m 1.3911,0 c 0,-0.0348 0.0966,-0.0632 0.2145,-0.0632 h 0.21449 l -0.11984,-0.23497 c -0.10257,-0.20117 -0.31075,-0.38734 -0.44184,-0.39511 -0.0208,-10e-4 -0.0402,0.0822 -0.0431,0.1854 -0.003,0.10315 -0.0324,0.23602 -0.0655,0.29512 -0.0398,0.0712 -0.036,0.13511 0.0114,0.18933 0.0856,0.0977 0.22973,0.11257 0.22973,0.0234 z m 1.45436,0 c 0,-0.0348 0.12797,-0.0632 0.28454,-0.0632 0.15649,0 0.28455,0.0284 0.28455,0.0632 0,0.0348 0.0275,0.0632 0.0613,0.0632 0.0338,0 -0.009,-0.10358 -0.0949,-0.23015 -0.0859,-0.12654 -0.15617,-0.25389 -0.15617,-0.28292 0,-0.0291 -0.0853,-0.0969 -0.18971,-0.15088 -0.18923,-0.0979 -0.18968,-0.0977 -0.18968,0.0812 0,0.0986 -0.0395,0.23327 -0.0879,0.29932 -0.0484,0.0661 -0.0738,0.15685 -0.0565,0.20179 0.0369,0.0962 0.14429,0.10985 0.14429,0.0184 z m 1.45434,0 c 0,-0.0933 0.55233,-0.0786 0.59062,0.0158 0.0254,0.0625 0.0442,0.0619 0.0897,-0.003 0.087,-0.1234 -0.0568,-0.51339 -0.20607,-0.55865 -0.0696,-0.0211 -0.17636,-0.082 -0.23722,-0.13553 -0.10315,-0.0906 -0.11071,-0.0799 -0.11071,0.15703 0,0.16143 -0.0478,0.31501 -0.13111,0.42081 -0.0721,0.0916 -0.10058,0.1666 -0.0632,0.1666 0.0374,0 0.0678,-0.0284 0.0678,-0.0632 z m 2.08667,0 c 0,-0.0348 0.0569,-0.0632 0.12654,-0.0632 0.13339,0 0.17016,-0.092 0.0632,-0.15808 -0.0348,-0.0215 -0.0632,-0.089 -0.0632,-0.15011 0,-0.0639 -0.0909,-0.15435 -0.21425,-0.21318 -0.20453,-0.0976 -0.21283,-0.0967 -0.18326,0.0163 0.017,0.0652 -0.0128,0.20545 -0.0655,0.31178 -0.0943,0.18893 -0.093,0.1933 0.0568,0.1933 0.0843,0 0.15324,0.0284 0.15324,0.0632 0,0.0348 0.0284,0.0632 0.0632,0.0632 0.0348,0 0.0632,-0.0284 0.0632,-0.0632 z m 1.45434,0 c 0,-0.0348 0.10015,-0.0632 0.2226,-0.0632 h 0.2226 l -0.12269,-0.24046 c -0.0675,-0.13226 -0.19609,-0.27394 -0.28583,-0.31482 -0.15389,-0.0701 -0.16315,-0.0645 -0.16315,0.1 0,0.0959 -0.0444,0.23753 -0.0984,0.31481 -0.089,0.12726 -0.089,0.14052 0,0.14052 0.0542,0 0.0984,0.0284 0.0984,0.0632 0,0.0348 0.0284,0.0632 0.0632,0.0632 0.0348,0 0.0632,-0.0284 0.0632,-0.0632 z m 1.45436,0 c 0,-0.0936 0.55301,-0.0788 0.58678,0.0158 0.0156,0.0435 0.0502,0.0586 0.077,0.0337 0.0268,-0.025 0.003,-0.11641 -0.0546,-0.20328 -0.0569,-0.0867 -0.10343,-0.19806 -0.10343,-0.24724 0,-0.0492 -0.0876,-0.12569 -0.1946,-0.17 -0.34205,-0.14167 -0.43675,-0.40203 -0.28101,-0.77257 0.0358,-0.085 0.0157,-0.11071 -0.0867,-0.11071 -0.11042,0 -0.13325,0.0384 -0.13325,0.22354 0,0.12298 0.0457,0.29329 0.10158,0.37855 0.10058,0.15361 0.098,0.44992 -0.007,0.77321 -0.0293,0.0902 -0.0203,0.14224 0.0244,0.14224 0.0388,0 0.0706,-0.0284 0.0706,-0.0632 z m -12.89942,-0.0632 c 0,-0.0348 0.0885,-0.0632 0.19645,-0.0632 0.15318,0 0.18802,-0.022 0.15808,-0.10001 -0.0211,-0.0551 -0.0384,-0.1381 -0.0384,-0.1848 0,-0.0466 -0.0999,-0.11769 -0.2218,-0.15797 -0.27271,-0.09 -0.37203,-0.26193 -0.32443,-0.56154 0.0374,-0.23496 0.0161,-0.25867 -0.38218,-0.42841 -0.0849,-0.0361 -0.27301,0.28941 -0.27301,0.47229 0,0.0665 -0.0703,0.22433 -0.15616,0.35087 l -0.15614,0.23011 0.22394,0.0936 c 0.13667,0.0571 0.20675,0.12141 0.17984,0.1649 -0.03,0.0485 -10e-4,0.0579 0.0876,0.0295 0.19153,-0.0608 0.57978,0.0264 0.57978,0.13011 0,0.0484 0.0284,0.0879 0.0632,0.0879 0.0348,0 0.0632,-0.0284 0.0632,-0.0632 z m 15.02236,-0.23822 c -0.0267,-0.0839 0.0233,-0.13711 0.1999,-0.21363 0.21687,-0.0939 0.24154,-0.0937 0.31375,10e-4 0.0682,0.0896 0.0786,0.0795 0.0803,-0.0769 0.003,-0.25235 -0.22153,-0.54724 -0.41632,-0.54724 -0.0862,0 -0.22272,-0.0712 -0.30329,-0.15808 -0.0979,-0.10557 -0.21414,-0.15808 -0.35039,-0.15808 -0.20149,0 -0.20345,0.003 -0.1686,0.25215 0.0194,0.13867 0.0822,0.32369 0.13938,0.41113 0.0599,0.0915 0.0909,0.22835 0.0729,0.32228 -0.0257,0.13468 -0.0114,0.15798 0.0852,0.13283 0.0641,-0.0167 0.14938,0.01 0.18968,0.0579 0.10315,0.12426 0.19966,0.10985 0.15734,-0.0234 z m -14.4552,-0.89191 c -0.003,-0.18348 -0.0695,-0.10614 -0.15763,0.18115 -0.0434,0.14109 -0.0375,0.14854 0.0556,0.0713 0.0572,-0.0475 0.10315,-0.16106 0.10201,-0.25245 z m 1.7092,0.0348 c 0,-0.16039 -0.0927,-0.0756 -0.1601,0.14636 -0.0428,0.14109 -0.0369,0.14852 0.0561,0.0713 0.0572,-0.0475 0.104,-0.14541 0.104,-0.21767 z m 0.91581,-0.18511 c 0.0355,-0.085 0.0153,-0.11071 -0.087,-0.11071 -0.11228,0 -0.13325,0.0381 -0.13325,0.24239 0,0.30195 0.0806,0.39681 0.1341,0.15771 0.022,-0.0983 0.0608,-0.22857 0.0862,-0.28944 z m 1.52317,0.28454 c 0.003,-0.0956 0.0268,-0.22368 0.0542,-0.28454 0.0359,-0.08 0.0215,-0.11071 -0.0519,-0.11071 -0.0756,0 -0.10158,0.0619 -0.10158,0.24239 0,0.19271 0.0368,0.3267 0.0896,0.3267 0.003,0 0.007,-0.0782 0.01,-0.17388 z m 2.42992,-0.0994 c 0,-0.16039 -0.0927,-0.0756 -0.1601,0.14636 -0.0428,0.14109 -0.0369,0.14852 0.0561,0.0713 0.0572,-0.0475 0.104,-0.14541 0.104,-0.21767 z m 0.89011,-0.13454 c 0.0944,-0.0971 0.0675,-0.16124 -0.068,-0.16124 -0.10443,0 -0.1264,0.0422 -0.1264,0.24239 0,0.29255 0.0865,0.4115 0.11556,0.15889 0.0114,-0.099 0.0469,-0.207 0.079,-0.24004 z m 0.75201,0.0997 c -0.003,-0.18348 -0.0695,-0.10614 -0.15763,0.18115 -0.0434,0.14109 -0.0375,0.14854 0.0556,0.0713 0.0572,-0.0475 0.10314,-0.16106 0.102,-0.25245 z m 2.49116,-0.18409 c 0.0317,-0.0512 0.003,-0.0769 -0.0879,-0.0769 -0.13967,0 -0.13939,-0.003 -0.0569,0.53748 0.006,0.0348 0.0294,-0.0374 0.0535,-0.16023 0.0241,-0.12297 0.0652,-0.25806 0.0913,-0.30035 z m -7.38243,0.3378 c 0.0193,-0.0501 0.0244,-0.14266 0.0114,-0.20549 -0.0173,-0.084 -0.0431,-0.0598 -0.0969,0.0912 -0.0715,0.20026 0.01,0.30984 0.0854,0.11442 z m 1.60066,-0.1497 c -0.004,-0.15192 -0.01,-0.1566 -0.0588,-0.0436 -0.0755,0.17568 -0.0755,0.29958 0,0.25293 0.0348,-0.0215 0.0612,-0.1157 0.0588,-0.20925 z m 0.91496,-0.19147 c 0.0282,-0.0457 10e-4,-0.0735 -0.0706,-0.0735 -0.0989,0 -0.11185,0.0399 -0.0879,0.26874 0.0274,0.26176 0.0292,0.26367 0.0706,0.0735 0.0234,-0.10728 0.0629,-0.22829 0.0879,-0.26872 z m 3.26618,0.0173 c 0.0615,-0.074 0.0506,-0.0907 -0.0588,-0.0907 -0.11656,0 -0.13353,0.0352 -0.12883,0.26874 0.006,0.24765 0.01,0.25478 0.0588,0.0907 0.0294,-0.0979 0.0873,-0.21879 0.12883,-0.26873 z m 0.68776,0.1742 c -0.004,-0.15193 -0.01,-0.15661 -0.0588,-0.0436 -0.0755,0.17568 -0.0755,0.29958 0,0.25293 0.0348,-0.0215 0.0612,-0.1157 0.0588,-0.20923 z m 1.63002,0.0317 c 0.0304,-0.227 -0.0165,-0.21566 -0.10015,0.0241 -0.0502,0.14419 -0.0491,0.18817 0.004,0.17022 0.0399,-0.0128 0.0829,-0.10086 0.0954,-0.19441 z m 1.65807,-0.0317 c -0.004,-0.15193 -0.01,-0.15661 -0.0588,-0.0436 -0.0755,0.17568 -0.0755,0.29958 0,0.25293 0.0348,-0.0215 0.0612,-0.1157 0.0588,-0.20923 z m -15.77385,-0.49904 c -0.0582,-0.12269 -0.0876,-0.28492 -0.0668,-0.36816 0.0205,-0.0819 0.009,-0.16649 -0.0261,-0.18808 -0.0349,-0.0215 -0.0635,-0.007 -0.0635,0.032 0,0.0425 -0.0511,0.0549 -0.1264,0.0311 -0.0924,-0.0294 -0.1264,-0.0114 -0.1264,0.0668 0,0.0849 -0.0184,0.0916 -0.0892,0.0328 -0.0652,-0.0541 -0.10101,-0.0551 -0.13283,-0.003 -0.024,0.0388 -0.0807,0.0564 -0.12611,0.0389 -0.0454,-0.0174 -0.13496,0.0275 -0.19912,0.0997 -0.0869,0.0979 -0.0924,0.12298 -0.0217,0.0983 0.1311,-0.0457 0.50667,0.31831 0.45834,0.44424 -0.0261,0.0679 -0.01,0.0873 0.0541,0.0629 0.0505,-0.0194 0.17634,0.0322 0.27972,0.11484 l 0.18795,0.14997 0.0512,-0.19633 c 0.0362,-0.13925 0.0208,-0.26011 -0.0529,-0.41565 z m 18.96203,0.3118 c -0.0349,-0.13354 0.31935,-0.42202 0.45443,-0.37018 0.10401,0.0399 0.18647,-0.0605 0.0957,-0.1167 -0.0879,-0.0543 -0.82514,0.34104 -0.82514,0.44246 0,0.0716 0.0793,0.11656 0.26281,0.14899 0.0228,0.004 0.0284,-0.0431 0.0128,-0.10457 z m -18.23179,-0.42707 c 0.12141,-0.14622 0.0494,-0.16113 -0.11898,-0.0247 -0.10172,0.0825 -0.11927,0.12098 -0.0552,0.12098 0.0518,0 0.13011,-0.0434 0.17409,-0.0963 z m 21.29894,-2.42239 c -0.0298,-0.0114 -0.0541,-0.0631 -0.0541,-0.11441 0,-0.0514 -0.0284,-0.0758 -0.0632,-0.0542 -0.0348,0.0215 -0.0611,0.18678 -0.0585,0.36732 l 0.004,0.32823 0.1127,-0.25293 c 0.0619,-0.1391 0.0883,-0.2624 0.0585,-0.274 z m 17.23997,0.36886 c 0.0215,-0.0348 -0.007,-0.0632 -0.0632,-0.0632 -0.0564,0 -0.0847,0.0284 -0.0632,0.0632 0.0215,0.0348 0.0499,0.0632 0.0632,0.0632 0.0128,0 0.0417,-0.0284 0.0632,-0.0632 z m -40.24745,-0.44263 c 0,-0.0348 -0.0268,-0.0632 -0.0595,-0.0632 -0.0327,0 -0.077,0.0284 -0.0986,0.0632 -0.0215,0.0348 0.006,0.0632 0.0595,0.0632 0.0542,0 0.0986,-0.0284 0.0986,-0.0632 z m 24.67046,-1.08327 c -0.29977,-0.0713 -0.62301,-0.0569 -0.84039,0.0375 l -0.21275,0.0923 0.31616,0.009 c 0.17389,0.004 0.38729,0.0293 0.47424,0.0544 0.10486,0.0302 0.20393,0.0128 0.29435,-0.0538 l 0.13625,-0.0993 z m 1.06514,0.1664 c 0,-0.0672 -0.0682,-0.0949 -0.23396,-0.0949 -0.2542,0 -0.22477,0.0959 0.0442,0.14412 0.0869,0.0156 0.1652,0.0322 0.17389,0.037 0.009,0.004 0.0158,-0.0341 0.0158,-0.0863 z m 6.15579,-0.7746 c -0.13154,-0.16519 -0.24726,-0.31221 -0.25716,-0.3267 -0.01,-0.0144 -0.018,0.12069 -0.018,0.30035 v 0.32671 h 0.25715 0.25717 z m -30.97453,-0.83783 c 0.0216,-0.0348 0.001,-0.0636 -0.0436,-0.0641 -0.0455,-4.8e-4 -0.14679,-0.018 -0.22504,-0.0389 -0.10458,-0.0281 -0.14224,-0.0114 -0.14224,0.0641 0,0.11528 0.3437,0.14792 0.41102,0.0389 z"
       id="B-Crocodile"
       style="stroke-width:0.238989" />
  </g>
</svg>
