<?xml version="1.0" encoding="UTF-8" standalone="no"?>
<!-- Created with Inkscape (http://www.inkscape.org/) -->

<svg
   width="24.890251mm"
   height="8.7436895mm"
   viewBox="0 0 24.890251 8.7436895"
   version="1.1"
   id="svg71253"
   sodipodi:docname="inkporter-svg-5ynal6n6.svg"
   xmlns:inkscape="http://www.inkscape.org/namespaces/inkscape"
   xmlns:sodipodi="http://sodipodi.sourceforge.net/DTD/sodipodi-0.dtd"
   xmlns="http://www.w3.org/2000/svg"
   xmlns:svg="http://www.w3.org/2000/svg">
  <sodipodi:namedview
     id="namedview71255"
     pagecolor="#ffffff"
     bordercolor="#666666"
     borderopacity="1.0"
     inkscape:pageshadow="2"
     inkscape:pageopacity="0.0"
     inkscape:pagecheckerboard="0"
     inkscape:document-units="mm"
     showgrid="false"
     inkscape:zoom="0.32026164"
     inkscape:cx="95.234632"
     inkscape:cy="282.58145"
     inkscape:window-width="2400"
     inkscape:window-height="1271"
     inkscape:window-x="-9"
     inkscape:window-y="-9"
     inkscape:window-maximized="1"
     inkscape:current-layer="layer1" />
  <defs
     id="defs71250" />
  <g
     inkscape:label="Layer 1"
     inkscape:groupmode="layer"
     id="layer1"
     transform="translate(-104.86781,-155.90076)">
    <path
       d="m 122.20036,156.62013 0.30178,0.062 v 0.32383 h 1.74736 v 1.37391 h -1.68672 l -0.15159,0.15158 h -0.23288 v 0.22187 l 1.20302,0.13091 0.11163,-0.34313 0.7276,0.16261 v 0.26183 l 2.91042,0.39411 0.22186,-0.17225 0.25218,0.1819 h 0.27423 v -0.13092 h 0.52503 l 0.17088,0.34314 h 0.68764 c 0.65733,0 0.67662,1.14239 -0.04,1.14239 -0.0717,0 0.48507,1.06109 0.48507,1.06109 l -0.11162,0.39412 -0.43684,-0.0551 c 0.0455,0.37344 -0.008,0.91226 -0.51401,1.20165 -0.38034,0.21635 -2.68718,1.31878 -3.01101,1.31878 h -12.43956 c -0.44097,0 -0.73035,-0.04 -1.01148,-0.20808 -0.25769,-0.15434 -1.4676,-1.00873 -1.78869,-1.30914 -0.25493,-0.2384 -0.3197,-0.59118 -0.33348,-0.86679 h -0.50437 c 0,0 0.49472,-0.85025 0.84888,-1.20302 0.35415,-0.35416 0.75792,-0.29353 0.75792,-0.29353 h 0.2632 v -0.42305 c 0,0 0.38448,-0.0717 0.50436,0.16123 0.0496,0.0923 0.0593,0.18465 0.0537,0.26182 h 0.0689 l 0.0703,-0.0496 v -0.43547 l 0.13229,-0.13091 v -0.57602 l 0.37345,0.13091 h 0.56499 l 0.33349,-0.33348 v -0.1819 h 0.27148 l 0.001,-0.12127 c 0,-0.29352 0.35415,-0.2632 0.47542,-0.2632 h 0.57878 l 0.36104,-0.25218 h 1.03491 l 0.005,-0.0593 -0.12127,-0.011 c -0.1502,-0.0345 -0.27698,-0.13642 -0.36655,-0.26182 h -0.84612 v -0.062 l -9.26593,-0.0703 v 0.0303 h -0.17225 v 0.10197 h -0.50574 v -0.10197 h -0.11025 v -0.49472 h 0.11025 v -0.10059 h 0.50574 v 0.10059 h 0.17225 v 0.0496 l 9.26593,-0.0799 v -0.051 h 0.75516 c 0.13643,-0.31144 0.45476,-0.71245 0.76068,-0.72761 0.41479,-0.0193 0.48507,0.22187 0.48507,0.22187 h 0.17226 v -0.58567 h 0.23288 v -0.4644 h 0.36381 v 0.55673 c 0.073,-0.0234 0.15847,-0.0413 0.25493,-0.0524 l 0.18879,-0.26183 h 0.4961 v -0.18191 h 0.30179 v 0.18191 h 0.49609 v -0.19155 h 0.16123 v 0.19155 h 0.35278 v -0.11163 h 0.80891 v 0.11163 h 0.4327 l -0.04,-0.0413 0.28388,-0.28526 0.28663,0.28526 -0.22462,0.226 v 0.0675 h 0.0207 l 0.49885,0.10197 m -10.75559,6.91362 0.1695,-0.1254 0.0978,0.0717 -0.0675,0.19843 0.20258,0.14608 0.16812,-0.12403 0.0978,0.0703 -0.0648,0.19431 c 0.20395,0.14193 0.37069,0.25493 0.44786,0.30041 0.22463,0.13504 0.46027,0.17501 0.88746,0.17501 h 0.15847 l 0.0593,-0.19155 h 0.12127 l 0.0592,0.19155 h 0.25494 l 0.0592,-0.19155 h 0.12265 l 0.0593,0.19155 h 0.25356 l 0.0593,-0.19155 h 0.12265 l 0.0593,0.19155 h 0.24943 l 0.0413,-0.13367 c -0.19155,-0.15158 -0.31557,-0.38585 -0.31557,-0.64906 0,-0.0248 10e-4,-0.051 0.004,-0.0758 h -0.96325 c -0.003,0.452 -0.37207,0.81855 -0.82407,0.81855 -0.45475,0 -0.82407,-0.36931 -0.82407,-0.82406 0,-0.14469 0.0386,-0.2825 0.10473,-0.40239 l -0.15158,-0.0345 c -0.1695,0.1378 -0.38447,0.22048 -0.62012,0.22048 -0.12127,0 -0.2384,-0.0221 -0.34589,-0.0634 0.0978,0.0758 0.20671,0.15572 0.31695,0.23703 m 16.52268,-0.21636 0.12816,0.15021 c 0.11989,-0.0579 0.23013,-0.113 0.32521,-0.16123 -0.0785,0.0221 -0.1626,0.0331 -0.24804,0.0331 -0.0703,0 -0.13918,-0.007 -0.20533,-0.022 m -2.80982,1.1231 0.0496,-0.16123 c -0.17363,-0.15021 -0.28388,-0.37345 -0.28388,-0.6215 0,-0.0221 10e-4,-0.0441 0.003,-0.0661 h -1.03391 c 0.001,0.022 0.003,0.0441 0.003,0.0661 0,0.31557 -0.17776,0.58842 -0.43821,0.7276 l 0.0179,0.0551 h 0.26872 l 0.0606,-0.19155 h 0.12127 l 0.0592,0.19155 h 0.19844 l 0.0606,-0.19155 h 0.12127 l 0.0593,0.19155 h 0.2949 l 0.0592,-0.19155 h 0.12265 l 0.0593,0.19155 z m 0.22738,-0.0441 0.0138,0.0441 h 0.0937 c -0.0372,-0.0124 -0.073,-0.0262 -0.10748,-0.0441 m -2.63205,0.0441 0.005,-0.0193 c -0.30041,-0.12402 -0.51125,-0.41892 -0.51125,-0.76343 0,-0.17364 0.0537,-0.33624 0.14745,-0.46991 h -1.06247 c 0.0923,0.13367 0.14607,0.29627 0.14607,0.46991 0,0.29628 -0.15572,0.55535 -0.38998,0.70142 l 0.0262,0.0813 h 0.2384 l 0.0593,-0.19155 h 0.12265 l 0.0593,0.19155 h 0.26872 l 0.0606,-0.19155 h 0.1199 l 0.0606,0.19155 h 0.19844 l 0.0606,-0.19155 h 0.12127 l 0.0593,0.19155 z m -2.46118,0 0.0124,-0.0372 c -0.27975,-0.13229 -0.47267,-0.41617 -0.47267,-0.74552 0,-0.0289 0.001,-0.0579 0.004,-0.0854 h -1.0101 c 0.004,0.0276 0.005,0.0565 0.005,0.0854 0,0.25356 -0.11438,0.48094 -0.29628,0.63252 l 0.0482,0.15021 h 0.27837 l 0.0606,-0.19155 h 0.12127 l 0.0592,0.19155 h 0.2384 l 0.0606,-0.19155 h 0.12127 l 0.0593,0.19155 h 0.27009 l 0.0593,-0.19155 h 0.12127 l 0.0606,0.19155 z m -1.9513,0 0.0124,-0.0345 c -0.0289,0.0124 -0.0592,0.0248 -0.0896,0.0345 z m -0.92329,0 0.0496,-0.16123 c -0.17363,-0.15021 -0.2825,-0.37345 -0.2825,-0.6215 0,-0.17363 0.0538,-0.33624 0.14607,-0.46991 h -1.08175 c 0.0923,0.13367 0.14744,0.29628 0.14744,0.46991 0,0.26183 -0.12264,0.49334 -0.31143,0.64492 l 0.0427,0.13781 h 0.30455 l 0.0592,-0.19155 h 0.12127 l 0.0606,0.19155 h 0.2632 l 0.0606,-0.19155 h 0.12127 l 0.0606,0.19155 z m 0.22738,-0.0441 0.0138,0.0441 h 0.0937 c -0.0372,-0.0124 -0.073,-0.0262 -0.10749,-0.0441 m -1.75975,0.0441 0.01,-0.0248 c -0.0234,0.01 -0.0441,0.0179 -0.0675,0.0248 z m -0.62839,-0.0221 0.007,0.0221 h 0.0537 c -0.0207,-0.006 -0.0413,-0.0138 -0.0606,-0.0221 m 13.61364,-1.3808 c 0.0923,-0.0896 0.15434,-0.1943 0.19292,-0.3073 -0.0441,0.11576 -0.11024,0.21911 -0.19292,0.3073 m -0.92742,0.27286 c -0.14745,-0.0358 -0.2825,-0.10611 -0.39412,-0.20396 l 1.55443,-0.94257 0.005,0.022 -0.004,-0.0234 -1.55168,0.94396 -1.15479,0.0455 c 0.10886,0.13918 0.17363,0.31557 0.17363,0.50573 0,0.25494 -0.11575,0.48232 -0.29766,0.6339 0.10474,-0.0427 0.22325,-0.0923 0.35003,-0.14745 l -0.022,-0.22048 0.11162,-0.0469 0.14194,0.16674 0.17225,-0.0772 -0.0207,-0.21497 0.11162,-0.0469 0.13505,0.15985 0.21084,-0.0992 -0.0234,-0.24115 0.11162,-0.0469 0.15021,0.17777 0.16536,-0.0786 -0.0234,-0.22324 z m 0,0"
       id="B-Firefly" />
  </g>
</svg>
