<?xml version="1.0" encoding="UTF-8" standalone="no"?>
<!-- Created with Inkscape (http://www.inkscape.org/) -->

<svg
   width="15.088675mm"
   height="5.776711mm"
   viewBox="0 0 15.088675 5.776711"
   version="1.1"
   id="svg1"
   sodipodi:docname="inkporter-svg-lrf5cxk3.svg"
   xmlns:inkscape="http://www.inkscape.org/namespaces/inkscape"
   xmlns:sodipodi="http://sodipodi.sourceforge.net/DTD/sodipodi-0.dtd"
   xmlns="http://www.w3.org/2000/svg"
   xmlns:svg="http://www.w3.org/2000/svg">
  <sodipodi:namedview
     id="namedview1"
     pagecolor="#ffffff"
     bordercolor="#666666"
     borderopacity="1.0"
     inkscape:showpageshadow="2"
     inkscape:pageopacity="0.0"
     inkscape:pagecheckerboard="0"
     inkscape:deskcolor="#d1d1d1"
     inkscape:document-units="mm"
     inkscape:zoom="2.3143561"
     inkscape:cx="440.0792"
     inkscape:cy="589.58083"
     inkscape:window-width="3840"
     inkscape:window-height="2066"
     inkscape:window-x="2869"
     inkscape:window-y="-11"
     inkscape:window-maximized="1"
     inkscape:current-layer="layer1" />
  <defs
     id="defs1" />
  <g
     inkscape:label="Layer 1"
     inkscape:groupmode="layer"
     id="layer1"
     transform="translate(-56.805835,-179.55488)">
    <g
       id="B-Infantry5"
       transform="translate(-477.344,-378.12144)">
      <path
         d="m 547.10185,557.85061 c -0.003,4e-5 -0.006,0 -0.01,0 -0.0358,0.008 -0.0944,0.0574 -0.15151,0.13456 -0.0543,0.0733 -0.11745,0.13371 -0.1405,0.13407 -0.0231,0 -0.0419,0.0385 -0.0419,0.0846 0,0.0461 -0.0161,0.0838 -0.0359,0.0838 -0.0197,0 -0.031,0.0336 -0.0252,0.0748 0.007,0.0486 0.0459,0.0862 0.1113,0.10756 0.0553,0.0181 0.10508,0.0354 0.11059,0.0386 0.0321,0.0184 -0.0424,0.18002 -0.0887,0.19229 -0.0305,0.008 -0.014,0.0164 0.0368,0.0187 0.10449,0.004 0.11642,0.055 0.039,0.16543 -0.0292,0.0418 -0.091,0.19163 -0.13716,0.33299 -0.0462,0.1414 -0.10523,0.2874 -0.13121,0.32448 -0.0294,0.0421 -0.0472,0.15382 -0.0472,0.297 0,0.20089 0.0125,0.24702 0.0998,0.36964 0.13976,0.19634 0.21355,0.27813 0.26719,0.29601 0.0293,0.01 10e-4,0.042 -0.0765,0.0879 -0.0687,0.0405 -0.12273,0.0988 -0.12263,0.13225 3.3e-4,0.11201 0.0709,0.31485 0.11543,0.33195 0.0245,0.009 0.0535,0.062 0.0644,0.11683 0.011,0.0549 0.067,0.14282 0.1246,0.19542 0.11243,0.10266 0.12127,0.15651 0.14234,0.86665 0.007,0.22773 0.0146,0.2511 0.11536,0.34529 0.0851,0.0795 0.1081,0.12811 0.1081,0.22842 0,0.15477 -0.12222,0.35077 -0.22824,0.36606 -0.0889,0.0128 -0.18962,0.15172 -0.16205,0.22359 0.0269,0.07 0.43158,0.0717 0.48934,0.003 0.0221,-0.0266 0.1032,-0.0531 0.18012,-0.0587 l 0.13985,-0.0102 -0.007,-0.1341 c -0.0133,-0.2556 -0.0389,-0.49326 -0.0586,-0.54464 -0.0109,-0.0282 0.005,-0.0792 0.0355,-0.11276 0.0335,-0.037 0.0477,-0.0901 0.036,-0.13466 -0.0106,-0.0405 -0.004,-0.10106 0.0135,-0.13468 0.0241,-0.045 0.0136,-0.0988 -0.0397,-0.20318 -0.0685,-0.13426 -0.0703,-0.15905 -0.0338,-0.45647 0.034,-0.27638 0.0876,-0.47018 0.12074,-0.43615 0.0219,0.0224 0.15802,0.41685 0.18901,0.5476 0.0553,0.23344 0.13445,0.41169 0.21724,0.48947 0.0441,0.0414 0.0802,0.0924 0.0802,0.1132 0,0.0207 0.0504,0.0929 0.1119,0.16007 0.0803,0.0877 0.13113,0.11709 0.18011,0.10431 0.0879,-0.023 0.14378,0.12493 0.14378,0.38046 0,0.23299 0.0419,0.31127 0.16636,0.31127 0.10421,0 0.2359,-0.13025 0.2359,-0.23329 0,-0.0312 -0.0528,-0.20632 -0.11733,-0.38924 -0.0645,-0.18292 -0.1177,-0.37793 -0.11811,-0.43329 -3.2e-4,-0.0554 -0.0302,-0.13841 -0.0663,-0.1845 -0.0361,-0.0461 -0.0659,-0.10313 -0.0663,-0.12676 -3.3e-4,-0.0237 -0.0238,-0.0518 -0.052,-0.0627 -0.033,-0.0128 -0.0439,-0.0429 -0.0308,-0.0844 0.0118,-0.0374 -0.005,-0.10293 -0.0399,-0.15524 -0.0332,-0.0498 -0.0561,-0.11075 -0.0509,-0.13544 0.005,-0.0246 -0.0151,-0.16047 -0.0453,-0.3017 -0.033,-0.15487 -0.0505,-0.36324 -0.0441,-0.52499 l 0.0107,-0.26815 0.0699,0.10881 c 0.0762,0.11855 0.11445,0.11181 0.11445,-0.0204 0,-0.0823 0.002,-0.0828 0.053,-0.0197 0.0396,0.0486 0.0487,0.0514 0.0362,0.0108 -0.0103,-0.0334 0.0187,-0.0806 0.0756,-0.12268 0.0848,-0.0627 0.0917,-0.0846 0.0838,-0.26412 -0.0107,-0.24279 -0.0178,-0.27958 -0.0539,-0.27958 -0.0526,0 0.0755,-0.16036 0.14201,-0.17776 0.0823,-0.0214 0.0884,-0.13093 0.007,-0.12084 -0.0323,0.004 -0.0872,-0.005 -0.12217,-0.02 -0.0448,-0.0194 -0.0762,-0.0102 -0.10659,0.0316 -0.0398,0.0545 -0.0508,0.0505 -0.14502,-0.0531 -0.0561,-0.0617 -0.12562,-0.18203 -0.15458,-0.26744 -0.029,-0.0854 -0.0822,-0.182 -0.11831,-0.21471 -0.0361,-0.0325 -0.0657,-0.0738 -0.0657,-0.0913 0,-0.0337 -0.13135,-0.14794 -0.24866,-0.21632 -0.0384,-0.0224 -0.13469,-0.0412 -0.21396,-0.0419 -0.14352,0 -0.3419,-0.0777 -0.3419,-0.13194 0,-0.0158 0.0453,-0.0376 0.10056,-0.0486 0.1043,-0.0211 0.14154,-0.12661 0.062,-0.17579 -0.027,-0.0168 -0.0211,-0.0366 0.0195,-0.0663 0.0521,-0.0381 0.0431,-0.0498 -0.0871,-0.11391 -0.0798,-0.0393 -0.19789,-0.10158 -0.26242,-0.13841 -0.0775,-0.0442 -0.15428,-0.0615 -0.22627,-0.0507 -0.0599,0.009 -0.10894,0.003 -0.10894,-0.0151 0,-0.0233 -0.009,-0.034 -0.0253,-0.0338 z m 0.0756,2.9661 c 10e-4,7e-5 0.002,0 0.003,0 0.0113,0.005 0.0139,0.041 0.0136,0.12082 -6.3e-4,0.21267 -0.0544,0.28118 -0.0745,0.095 -0.0104,-0.0961 -2e-4,-0.16342 0.0296,-0.19561 0.0127,-0.0138 0.022,-0.0214 0.0287,-0.021 z"
         style="fill:#000000;stroke-width:0.0335218"
         id="path6312-4-9" />
      <path
         d="m 542.41207,557.67666 c -0.093,-0.006 -0.31625,0.0688 -0.38539,0.12935 -0.0367,0.0322 -0.0637,0.0347 -0.0914,0.008 -0.0522,-0.0494 -0.14014,0.0377 -0.17975,0.17796 -0.0266,0.0939 -0.0192,0.11163 0.0694,0.16508 0.1042,0.0629 0.1209,0.12097 0.0521,0.18122 -0.0313,0.0273 -0.0308,0.0506 0.002,0.0956 0,0 0.0369,0.0703 0.036,0.1829 -0.0328,0.0459 0.0734,0.1148 0.16037,0.10401 0.0731,-0.009 0.0841,0.002 0.0791,0.0772 -0.004,0.0533 0.0211,0.10701 0.0626,0.13695 0.063,0.0453 0.0651,0.0654 0.0274,0.25345 -0.0226,0.1123 -0.0472,0.28313 -0.0548,0.37965 -0.0115,0.14397 -0.0243,0.17476 -0.0723,0.17158 -0.0322,-0.002 -0.0578,-0.0157 -0.0568,-0.0305 0.004,-0.0629 -0.29158,-0.30148 -0.39212,-0.3164 -0.11715,-0.0178 -0.55366,-0.32556 -0.57955,-0.40914 -0.009,-0.029 -0.0326,-0.0535 -0.0527,-0.0548 -0.0201,-10e-4 -0.0281,0.0133 -0.018,0.0324 0.0102,0.0191 0.01,0.0342 -10e-4,0.0335 -0.0107,-7.1e-4 -0.0312,-0.0391 -0.0454,-0.0855 -0.0222,-0.0722 -0.0438,-0.0838 -0.15205,-0.0813 -0.16344,0.004 -0.17838,0.0503 -0.0597,0.18577 0.0529,0.0604 0.0955,0.12205 0.0945,0.13688 -9.8e-4,0.0148 0.024,0.0377 0.0555,0.0509 0.0725,0.0302 0.40152,0.24565 0.44112,0.2888 0.0186,0.0204 0.0147,0.0313 -0.01,0.0297 -0.0818,-0.005 -0.0693,0.34857 0.0224,0.63054 0.0477,0.14683 0.0848,0.30058 0.0824,0.34168 -0.002,0.041 0.005,0.0695 0.0175,0.0633 0.0119,-0.006 0.0595,0.0915 0.10555,0.21754 0.0569,0.15545 0.12812,0.27245 0.22178,0.36414 0.16604,0.16257 0.28385,0.1809 0.43762,0.0679 0.0597,-0.0439 0.10806,-0.0714 0.10738,-0.0611 -6.7e-4,0.0102 -0.0453,0.10052 -0.0993,0.20047 -0.054,0.0999 -0.0966,0.21468 -0.0948,0.25507 10e-4,0.0404 -0.0109,0.11894 -0.0276,0.17467 -0.017,0.0557 -0.0183,0.14097 -0.004,0.18947 0.0148,0.0485 0.0169,0.097 0.005,0.10785 -0.0123,0.0107 -0.029,0.0528 -0.0369,0.0934 -0.008,0.0406 -0.0242,0.11279 -0.0361,0.16047 -0.0156,0.0625 -2.4e-4,0.10969 0.0554,0.16905 0.0883,0.0947 0.0911,0.15291 0.0143,0.30608 -0.0814,0.16271 -0.23587,0.27677 -0.38342,0.28322 -0.13044,0.005 -0.26516,0.0845 -0.27002,0.15801 -0.002,0.0226 0.0521,0.0685 0.11925,0.1017 0.14929,0.0738 0.30404,0.0888 0.4861,0.0473 0.1081,-0.0248 0.14034,-0.0227 0.14882,0.01 0.0126,0.048 0.26526,0.0721 0.33846,0.0324 0.0376,-0.0206 0.0458,-0.068 0.0357,-0.20709 -0.0276,-0.37753 -0.0121,-0.60522 0.0443,-0.65498 0.0297,-0.026 0.0521,-0.0796 0.0497,-0.11902 -0.002,-0.0394 0.009,-0.0896 0.0244,-0.11179 0.0159,-0.022 0.028,-0.13656 0.027,-0.25444 -0.002,-0.20067 0.003,-0.21628 0.0805,-0.24545 0.0453,-0.017 0.0947,-0.0694 0.10978,-0.11621 l 0.0274,-0.0851 0.0672,0.11542 c 0.037,0.0635 0.088,0.19598 0.1134,0.29443 0.0254,0.0984 0.0807,0.21004 0.12302,0.24809 0.0454,0.0408 0.0745,0.10404 0.0712,0.15429 -0.005,0.0737 0.0105,0.0876 0.11572,0.10356 0.14184,0.0216 0.19252,0.0942 0.1525,0.21834 -0.0291,0.0904 -0.0414,0.0977 -0.20468,0.12231 -0.17666,0.0266 -0.16972,0.27775 0.008,0.29297 0.0352,0.002 0.12044,-0.002 0.1893,-0.01 0.0943,-0.0116 0.13782,-10e-4 0.17594,0.0423 0.0298,0.034 0.10565,0.0615 0.18416,0.0667 l 0.13341,0.009 -0.0133,-0.15989 c -0.007,-0.088 -0.0279,-0.20644 -0.0457,-0.26336 -0.0179,-0.057 -0.0268,-0.14095 -0.0198,-0.18668 0.007,-0.0457 -0.007,-0.10828 -0.0304,-0.13903 -0.0237,-0.0305 -0.0454,-0.10052 -0.0482,-0.15501 -0.002,-0.0546 -0.0399,-0.16348 -0.0825,-0.24211 -0.0427,-0.0787 -0.11483,-0.24188 -0.16039,-0.36272 -0.0455,-0.12083 -0.10501,-0.24053 -0.13208,-0.26595 -0.0377,-0.0355 -0.0412,-0.0749 -0.0149,-0.16895 0.0189,-0.0675 0.0636,-0.26922 0.0993,-0.44826 0.0563,-0.28174 0.0774,-0.33464 0.15656,-0.39282 0.0503,-0.037 0.094,-0.0746 0.0969,-0.0837 0.004,-0.009 0.0262,-0.0553 0.0518,-0.10267 0.0376,-0.0699 0.0384,-0.10556 0.003,-0.18796 -0.0376,-0.0896 -0.0363,-0.10497 0.009,-0.12977 0.0446,-0.0241 0.0461,-0.0389 0.0109,-0.10506 -0.023,-0.0429 -0.075,-0.0792 -0.11767,-0.0821 -0.0507,-0.003 -0.0852,-0.0339 -0.10265,-0.0908 -0.0144,-0.0472 -0.0412,-0.0867 -0.0594,-0.0879 -0.0183,-10e-4 -0.0232,-0.024 -0.0108,-0.0508 0.0129,-0.0278 -1.1e-4,-0.0589 -0.0296,-0.0726 -0.0286,-0.0131 -0.0427,-0.0373 -0.0312,-0.0534 0.0115,-0.0161 -0.0343,-0.12512 -0.10176,-0.24223 -0.0674,-0.11707 -0.1217,-0.22745 -0.12052,-0.24523 10e-4,-0.0178 -0.0489,-0.10365 -0.11113,-0.19083 -0.11396,-0.15949 -0.366,-0.33809 -0.48857,-0.3462 -0.10832,-0.007 -0.10638,-0.0646 0.002,-0.0789 0.0974,-0.013 0.141,-0.0876 0.0776,-0.13279 -0.0165,-0.0116 -0.018,-0.0733 -0.003,-0.13659 0.023,-0.0997 0.0177,-0.11579 -0.0409,-0.11966 -0.0422,-0.003 -0.0645,-0.025 -0.0592,-0.059 0.009,-0.0631 -0.23633,-0.22928 -0.3504,-0.23683 z m -0.85524,2.12123 c 0.003,2.3e-4 0.005,3.3e-4 0.008,5.3e-4 0.0272,0.006 0.0606,0.0311 0.0987,0.079 0.0309,0.039 0.0971,0.0737 0.14733,0.077 0.0615,0.004 0.0953,0.0271 0.10368,0.0704 l 0.0302,0.15484 c 0.0109,0.004 0.0208,0.009 0.0313,0.0192 0.0272,0.0258 0.048,0.0682 0.0463,0.0945 -0.002,0.0262 0.0159,0.0446 0.0393,0.0412 0.0465,-0.007 0.23362,0.15627 0.24743,0.19562 l 0.0344,0.0981 c 0.006,0.0178 0.0209,0.0267 0.004,0.0591 -0.0159,0.0312 -0.0627,0.13779 -0.10405,0.23667 -0.0413,0.0989 -0.11038,0.20362 -0.15338,0.2327 -0.043,0.0291 -0.0879,0.0526 -0.0995,0.0522 -0.0434,-0.003 -0.20436,-0.27399 -0.20408,-0.27252 l 10e-4,6e-5 c 7e-5,4e-5 -0.0522,-0.11076 -0.0795,-0.19108 -0.14203,-0.36232 -0.1199,-0.36869 -0.1199,-0.36869 l -0.0589,-0.19727 c -0.0695,-0.23265 -0.0477,-0.3883 0.0283,-0.38217 z"
         style="fill:#000000;stroke-width:0.0335218"
         id="path6329-37-4" />
      <path
         d="m 538.24991,558.16481 c 0.0307,-0.003 0.0672,-0.003 0.11194,-0.004 0.13987,-0.003 0.21692,0.01 0.22713,0.0367 0.009,0.0223 0.0857,0.0956 0.17143,0.1629 0.10999,0.0862 0.13691,0.12 0.0911,0.11445 -0.0628,-0.008 -0.063,-0.005 -0.008,0.0916 0.0314,0.0548 0.0833,0.10601 0.11523,0.11388 0.12179,0.03 0.30712,0.20282 0.53716,0.50103 0.13117,0.17002 0.25156,0.32218 0.2676,0.33807 0.016,0.0159 0.0829,0.0984 0.14844,0.18337 0.071,0.0921 0.14176,0.15259 0.17509,0.14976 0.0694,-0.006 0.14555,0.10246 0.11048,0.15727 -0.0139,0.0217 -0.0221,0.11667 -0.0184,0.21119 0.006,0.15809 -0.0279,0.27729 -0.0694,0.24224 -0.0423,-0.0357 -0.16067,0.36869 -0.14555,0.4971 0.006,0.0427 0.0143,0.13362 0.0191,0.20218 0.0359,0.45857 0.0606,0.59432 0.12472,0.67923 0.0367,0.0486 0.12328,0.16122 0.19231,0.25021 0.069,0.089 0.12297,0.17421 0.11985,0.18933 -0.003,0.015 0.0196,0.0428 0.0501,0.0615 0.0371,0.0226 0.045,0.0421 0.0235,0.058 -0.023,0.017 -0.0161,0.0649 0.0241,0.16613 0.0309,0.0782 0.0513,0.17292 0.0451,0.21045 -0.006,0.0375 0.0161,0.11903 0.0478,0.18125 0.0324,0.0622 0.0634,0.16603 0.0688,0.23079 0.009,0.11063 0.002,0.12124 -0.11845,0.17472 -0.0707,0.0313 -0.22235,0.0666 -0.33713,0.0786 -0.18185,0.0194 -0.21384,0.0141 -0.24891,-0.0402 -0.0321,-0.0493 -0.0303,-0.0748 0.008,-0.12531 0.0265,-0.0349 0.0706,-0.0726 0.0979,-0.0839 0.071,-0.0294 0.14093,-0.216 0.12176,-0.32485 -0.036,-0.20485 -0.0719,-0.25374 -0.17585,-0.24029 -0.0742,0.0103 -0.10132,-0.002 -0.1149,-0.0487 -0.01,-0.0337 -0.0763,-0.11494 -0.14777,-0.18061 -0.0767,-0.0705 -0.1486,-0.17356 -0.17546,-0.25163 -0.025,-0.0728 -0.0781,-0.19295 -0.11789,-0.26719 -0.0399,-0.0742 -0.0876,-0.18097 -0.10612,-0.23724 -0.0336,-0.10185 -0.0341,-0.1012 -0.11991,0.16696 -0.0565,0.17645 -0.0793,0.30514 -0.0665,0.37361 0.0109,0.0574 0.008,0.1141 -0.007,0.12598 -0.0144,0.012 -0.0573,0.097 -0.0955,0.18927 -0.0719,0.1743 -0.0694,0.24865 0.0158,0.4658 0.0696,0.17751 0.0289,0.29352 -0.10757,0.30508 -0.0569,0.005 -0.11928,-0.005 -0.13856,-0.0208 -0.0243,-0.0204 -0.0766,-0.0148 -0.17001,0.0194 -0.13465,0.0485 -0.37397,0.0523 -0.46211,0.007 -0.0338,-0.0174 -0.0395,-0.0456 -0.0229,-0.11473 0.0184,-0.0764 0.0435,-0.0965 0.15006,-0.1203 0.0744,-0.0168 0.15909,-0.0632 0.2024,-0.1112 0.1321,-0.14661 0.18582,-0.42599 0.0874,-0.45449 -0.0467,-0.0135 -0.0735,-0.24173 -0.0345,-0.28858 0.0108,-0.0128 0.005,-0.097 -0.0129,-0.18716 -0.0187,-0.0915 -0.0222,-0.20312 -0.008,-0.25303 0.014,-0.0491 0.0273,-0.14948 0.0294,-0.22293 0.004,-0.1321 0.003,-0.13351 -0.0944,-0.12577 -0.054,0.005 -0.11318,-10e-4 -0.13147,-0.0122 -0.0898,-0.0547 -0.33215,-0.37804 -0.35864,-0.47862 -0.007,-0.0252 -0.0757,-0.17467 -0.1533,-0.33191 -0.0967,-0.19577 -0.14799,-0.34299 -0.16293,-0.46702 -0.0223,-0.18055 -0.0224,-0.18147 -0.18722,-0.27324 -0.0909,-0.0507 -0.20627,-0.12409 -0.25633,-0.16318 -0.084,-0.0656 -0.0867,-0.073 -0.0343,-0.0969 0.0311,-0.0144 0.0662,-0.032 0.0778,-0.0397 0.0117,-0.008 0.0485,0.009 0.082,0.0371 0.0963,0.0806 0.45145,0.22156 0.53954,0.2141 0.0441,-0.004 0.12954,0.0292 0.18989,0.0729 0.10791,0.0785 0.31512,0.14988 0.34209,0.11793 0.007,-0.009 0.0108,-0.10458 0.007,-0.21246 -0.003,-0.10788 -0.002,-0.24237 0.003,-0.29895 0.007,-0.071 -0.0166,-0.14888 -0.0744,-0.25122 -0.0708,-0.12533 -0.0942,-0.14469 -0.15068,-0.12532 -0.0866,0.0298 -0.17671,-0.0808 -0.19841,-0.24351 -0.0109,-0.0809 -0.0396,-0.1347 -0.0907,-0.16935 -0.0926,-0.0629 -0.10205,-0.14199 -0.0259,-0.22283 0.0317,-0.0339 0.0559,-0.0795 0.054,-0.10133 -0.002,-0.022 0.0357,-0.0728 0.0833,-0.11317 0.055,-0.0466 0.0945,-0.065 0.18633,-0.0725 z m -0.39587,1.9401 c -0.0292,-5.4e-4 0.0287,0.20277 0.11678,0.39266 l 0.19284,0.38586 c 7.6e-4,0.009 0.0446,0.0819 0.0971,0.16171 0.0526,0.0798 0.1061,0.13648 0.11401,0.14282 l 0.0985,0.0786 c 0.0267,0.0214 0.0834,0.0322 0.12278,0.0288 0.0717,-0.006 0.12893,-0.12191 0.16072,-0.32537 0.007,-0.0447 0.0237,-0.0899 0.0371,-0.1006 0.0134,-0.0112 -10e-4,-0.0489 -0.0316,-0.0864 l -0.11257,-0.14117 c -0.0128,-0.0161 -0.0532,-0.0423 -0.09,-0.0577 -0.064,-5.9e-4 -0.11818,-0.0389 -0.11818,-0.0389 l -0.0984,-0.0881 c -0.0541,-0.0484 -0.11893,-0.12519 -0.14404,-0.17044 -0.0251,-0.0453 -0.0704,-0.0802 -0.10072,-0.0777 -0.0609,0.005 -0.18675,-0.0452 -0.22642,-0.0906 -0.008,-0.009 -0.0139,-0.0133 -0.018,-0.0132 z"
         style="fill:#000000;stroke-width:0.031242"
         id="path6346-66-4" />
      <path
         d="m 535.60833,559.99849 c 0.002,-1.8e-4 0.004,-4.9e-4 0.006,-6.3e-4 0.0178,6.3e-4 0.0362,0.0112 0.0625,0.0294 0.0733,0.0512 0.27703,0.12421 0.3281,0.11751 0.0468,-0.006 0.11762,0.13708 0.0939,0.18973 -0.008,0.0177 0.002,0.0392 0.0222,0.0483 0.0672,0.0303 0.0504,0.11202 -0.0255,0.1239 -0.0543,0.007 -0.0344,0.0221 0.0723,0.05 0.27643,0.0722 0.4735,0.27332 0.6585,0.67203 0.0467,0.10079 0.0943,0.18205 0.10565,0.18056 0.0113,-0.001 0.067,0.067 0.12366,0.15228 0.0567,0.0852 0.12182,0.15281 0.1447,0.15004 0.0229,-0.003 0.0444,0.006 0.0477,0.0196 0.0277,0.11255 0.0443,0.16406 0.0704,0.21898 0.022,0.0463 0.003,0.10119 -0.0693,0.20119 -0.0548,0.0757 -0.12687,0.15034 -0.16014,0.16591 -0.0741,0.0346 -0.079,0.29605 -0.006,0.31361 0.0247,0.006 0.0488,0.0406 0.0536,0.0769 0.005,0.0364 0.0778,0.12659 0.16234,0.20047 0.22592,0.19758 0.27486,0.39212 0.1236,0.49115 -0.10581,0.0692 -0.16731,0.0709 -0.27411,0.008 -0.0676,-0.0402 -0.10071,-0.0886 -0.11026,-0.16132 -0.0106,-0.0808 -0.0213,-0.0939 -0.0483,-0.0588 -0.109,0.14193 -0.56813,-0.0292 -0.54004,-0.2013 0.006,-0.0332 -0.0268,-0.0999 -0.0716,-0.14797 -0.0448,-0.0481 -0.0855,-0.11885 -0.0906,-0.15715 -0.006,-0.041 -0.0305,-0.0669 -0.0611,-0.0628 -0.0296,0.004 -0.0527,-0.0187 -0.0536,-0.0521 -0.004,-0.13212 -0.0188,-0.14121 -0.19525,-0.11804 -0.11291,0.0148 -0.22329,0.005 -0.31113,-0.0285 l -0.13611,-0.0514 0.038,0.10661 c 0.0209,0.0586 0.0654,0.1463 0.0988,0.1948 0.0334,0.0485 0.0537,0.0972 0.0451,0.10837 -0.009,0.011 0.0308,0.08 0.0876,0.153 0.12139,0.15621 0.13992,0.30952 0.041,0.34173 -0.0357,0.0116 -0.0731,0.0391 -0.0831,0.061 -0.0113,0.0247 -0.11097,0.0485 -0.26226,0.0626 -0.29196,0.0274 -0.34978,0.0207 -0.38586,-0.0459 -0.0368,-0.0679 0.0439,-0.22984 0.10699,-0.21468 0.0554,0.0132 0.16737,-0.12403 0.15817,-0.19411 -0.007,-0.0519 -0.27592,-0.45078 -0.38787,-0.57486 -0.0557,-0.0618 -0.10265,-0.0795 -0.18254,-0.069 -0.1372,0.018 -0.31914,-0.12097 -0.40595,-0.31015 -0.0342,-0.0745 -0.0789,-0.13331 -0.0994,-0.13063 -0.0408,0.006 -0.16548,-0.37357 -0.14753,-0.44874 0.008,-0.0325 0.0441,-0.0448 0.11719,-0.0399 0.0583,0.004 0.16557,0.009 0.2385,0.011 0.12755,0.004 0.13127,6.3e-4 0.099,-0.0731 -0.0874,-0.19974 -0.0963,-0.27373 -0.0434,-0.3596 0.0495,-0.0807 0.098,-0.10371 0.44773,-0.21219 0.10202,-0.0317 0.35529,-0.17904 0.35207,-0.20491 -10e-4,-0.0114 -0.0336,-0.0251 -0.0714,-0.0297 -0.0378,-0.004 -0.0708,-0.0245 -0.0734,-0.0439 -0.003,-0.0192 0.0232,-0.0551 0.0572,-0.0795 0.034,-0.0243 0.0579,-0.0737 0.0532,-0.1096 -0.005,-0.0367 0.0139,-0.0683 0.0428,-0.0721 0.0282,-0.004 0.0867,-0.0494 0.12996,-0.10158 0.0528,-0.0636 0.0799,-0.0919 0.10738,-0.0945 z m -0.3247,1.15787 c -0.006,6.3e-4 -0.0146,0.002 -0.0241,0.003 -0.0366,0.005 -0.0996,0.0256 -0.14058,0.0433 l -0.0745,0.032 0.10191,0.0711 c 0.056,0.0391 0.0871,0.0519 0.069,0.0284 -0.0218,-0.0283 -0.009,-0.0666 0.0387,-0.11424 0.0557,-0.0557 0.0646,-0.0678 0.0294,-0.0639 z m -0.57838,0.44984 c -0.007,0.001 -0.0114,0.009 -0.009,0.0238 0.003,0.0212 -0.0285,0.0434 -0.0696,0.0491 -0.10991,0.0144 -0.15489,0.0627 -0.11027,0.11631 0.0206,0.0248 0.0422,0.0792 0.048,0.12119 0.006,0.042 0.0391,0.1175 0.0742,0.16778 0.0584,0.084 0.15776,0.10954 0.202,0.0519 0.0101,-0.0129 -6.3e-4,-0.0506 -0.0246,-0.0834 -0.0236,-0.0328 -0.0497,-0.14129 -0.0581,-0.24101 -0.009,-0.0996 -0.0268,-0.19015 -0.041,-0.20097 -0.004,-0.003 -0.007,-0.004 -0.009,-0.004 -6.3e-4,-5e-5 -0.001,1.7e-4 -0.002,2.5e-4 z"
         style="fill:#000000;stroke-width:0.0335218"
         id="path6473-7-3" />
      <path
         d="m 544.99276,557.87559 c -0.2563,-0.006 -0.34486,0.30059 -0.41235,0.39431 -0.0675,0.095 -0.0469,0.095 -0.0249,0.11575 0.022,0.0193 0.1478,0.077 0.1478,0.077 0,0 0.033,0.073 0.0496,0.0951 0.018,0.022 0.0455,0.11732 0.0455,0.11732 0,0 -0.0471,0.0425 -0.12557,0.0935 -0.0772,0.0482 -0.12261,0.16798 -0.15711,0.20929 -0.0344,0.04 -0.14449,0.18917 -0.2217,0.24288 -0.079,0.051 -0.0734,0.10853 -0.0734,0.10853 0,0 -0.0214,0.0281 -0.0315,0.0331 -0.0108,0.006 -0.0264,0.18756 -0.0264,0.18756 l -0.0164,0.0439 c 0,0 -0.038,0.0307 -0.0299,0.13126 0.007,0.10059 0.0747,0.24505 0.0827,0.26715 0.007,0.022 0.0894,0.036 0.11009,0.047 0.0196,0.0124 0.0164,0.0246 0.0164,0.0728 0,0.0483 0.0651,0.0718 0.0651,0.0718 0,0 0.0606,0.32489 0.11988,0.5302 0.0606,0.20535 0.26046,0.36693 0.26046,0.36693 l -0.0124,0.0754 c 0,0 -0.007,0.1574 -0.018,0.19741 -0.01,0.0413 0.0233,0.35933 0.0233,0.44751 0,0.0868 0.0225,0.13251 0.0444,0.2 0.0236,0.0675 0.0354,0.20926 0.0274,0.27956 -0.007,0.0702 0.19275,0.1478 0.19275,0.1478 0,0 0.0772,0.16928 0.0853,0.19687 0.007,0.0276 0.0416,0.16264 0.0346,0.19844 -0.008,0.0345 -0.008,0.0894 -0.018,0.13901 -0.01,0.051 -0.0344,0.0636 -0.062,0.10078 -0.0276,0.0372 -0.0455,0.13385 -0.0455,0.13385 0,0 0.0829,0.10094 0.19999,0.0909 0.11714,-0.01 0.19857,-0.091 0.23305,-0.15295 0.0344,-0.062 0.0177,-0.21498 0.0177,-0.21498 l 0.0164,-0.0388 c 0,0 0.018,-0.17481 0.018,-0.18862 0,-0.0124 -0.0543,-0.14018 -0.0739,-0.17828 0.004,0.003 0.0375,0.0254 0.11526,0.0915 0.0827,0.0703 0.062,0.0825 0.062,0.13486 0,0.0524 0.0185,0.26461 0.0156,0.27699 -0.003,0.0124 -0.0581,0.15571 -0.0651,0.1819 -0.007,0.0276 -0.0948,0.19037 -0.0879,0.20825 0.008,0.018 0.0605,0.0349 0.11007,0.0429 0.0496,0.007 0.19569,-0.008 0.23979,-0.0249 0.0455,-0.018 0.14314,-0.0262 0.16793,-0.0362 0.0251,-0.01 -0.005,-0.0577 -0.008,-0.10181 -0.003,-0.0455 -1.3e-4,-0.21095 0.0109,-0.24545 0.009,-0.0344 0.0151,-0.1764 0.0151,-0.19431 0,-0.018 0.005,-0.0577 0.0103,-0.0853 0.005,-0.0275 -0.008,-0.14158 -0.008,-0.14158 0,0 0.003,-0.0156 0.0331,-0.0403 0.0303,-0.0249 0.055,-0.0482 0.062,-0.0703 0.008,-0.0233 -0.0243,-0.0994 -0.0274,-0.16277 -0.003,-0.062 -0.003,-0.16918 -0.0249,-0.19947 -0.0217,-0.0303 -0.007,-0.12031 0.003,-0.1478 0.01,-0.0276 0.0981,-0.30422 0.0951,-0.46405 -0.003,-0.16121 0.0373,-0.19606 0.0594,-0.25117 0.0236,-0.0551 0.0481,-0.39688 0.0481,-0.39688 l 0.0175,0.0842 c 0,0 0.044,0.0565 0.047,0.008 0.003,-0.0482 -0.01,-0.20259 -0.01,-0.20259 0,0 0.19701,-0.0803 0.24392,-0.0982 0.0483,-0.0164 0.0302,-0.14431 0.0151,-0.19119 -0.0151,-0.0469 -0.0768,-0.35274 -0.0868,-0.39275 -0.01,-0.0396 -0.0696,-0.0486 -0.0796,-0.0496 -0.01,-0.003 -0.10118,-0.0303 -0.0982,-0.0455 0.003,-0.0138 0.0333,-0.1175 -0.007,-0.17259 -0.04,-0.0551 -0.11316,-0.31678 -0.11316,-0.31678 l 0.0455,-0.0884 -0.0703,-0.46405 c 0,0 0.0103,-0.20553 0.0103,-0.29094 0,-0.0843 -0.0951,-0.0925 -0.0951,-0.0925 l -0.0372,-0.0589 h -0.15452 c -0.051,0 -0.29072,-0.01 -0.30591,-0.0124 -0.0138,-0.003 -0.0376,-0.0127 -0.0346,-0.0403 0.003,-0.0275 -0.0427,-0.0851 -0.0579,-0.10438 -0.0151,-0.0206 -0.10181,-0.25524 -0.12663,-0.28834 -0.0249,-0.0331 -0.11282,-0.19291 -0.37052,-0.1969 z m -0.48937,2.38384 c 0,0 0.0494,-0.003 0.0646,0.0124 0.0148,0.0151 0.013,0.0524 0.018,0.0703 0.004,0.0164 0.1075,0.11316 0.1075,0.11316 0,0 0.0198,0.0773 0.0249,0.10491 0.004,0.0276 0.0453,0.11819 0.077,0.14161 0.0336,0.022 0.0279,0.10231 0.0279,0.10231 0,0 0.01,0.0606 -0.018,0.0827 -0.0262,0.0233 -0.007,0.0977 -0.007,0.0977 l -0.0754,-0.0579 c -0.0413,-0.0441 -0.12951,-0.20659 -0.1447,-0.27959 -0.0151,-0.0716 -0.0594,-0.3297 -0.0594,-0.3297 z m 0.91779,1.13171 c 0.0278,0.0758 0.0372,0.0975 0.0249,0.22841 -0.0124,0.12954 -0.0305,0.2744 -0.0305,0.2744 0,0 -0.0429,-0.12277 -0.0553,-0.17518 -0.0124,-0.0524 0.007,-0.21463 0.0156,-0.24495 0.007,-0.0303 0.0455,-0.0827 0.0455,-0.0827 z"
         style="fill:#000000;fill-opacity:1;fill-rule:nonzero;stroke:none;stroke-width:0.352777"
         id="path8610-7" />
    </g>
  </g>
</svg>
