<?xml version="1.0" encoding="UTF-8" standalone="no"?>
<!-- Created with Inkscape (http://www.inkscape.org/) -->

<svg
   width="12.83533mm"
   height="6.621017mm"
   viewBox="0 0 12.83533 6.621017"
   version="1.1"
   id="svg4342"
   sodipodi:docname="inkporter-svg-jck2_8kd.svg"
   xmlns:inkscape="http://www.inkscape.org/namespaces/inkscape"
   xmlns:sodipodi="http://sodipodi.sourceforge.net/DTD/sodipodi-0.dtd"
   xmlns="http://www.w3.org/2000/svg"
   xmlns:svg="http://www.w3.org/2000/svg">
  <sodipodi:namedview
     id="namedview4344"
     pagecolor="#ffffff"
     bordercolor="#666666"
     borderopacity="1.0"
     inkscape:pageshadow="2"
     inkscape:pageopacity="0.0"
     inkscape:pagecheckerboard="0"
     inkscape:document-units="mm"
     showgrid="false"
     inkscape:zoom="0.66368547"
     inkscape:cx="397.02542"
     inkscape:cy="561.25984"
     inkscape:window-width="1920"
     inkscape:window-height="1017"
     inkscape:window-x="-8"
     inkscape:window-y="-8"
     inkscape:window-maximized="1"
     inkscape:current-layer="layer1" />
  <defs
     id="defs4339" />
  <g
     inkscape:label="Layer 1"
     inkscape:groupmode="layer"
     id="layer1"
     transform="translate(-133.51122,-90.374059)">
    <path
       id="B-Jalopie"
       style="stroke-width:1"
       d="m 139.30501,90.374059 v 0.268711 h -0.99062 v -0.10078 h -0.36227 v 0.212407 h -1.24746 v 0.09766 h -1.74046 v -0.05786 h -0.2522 v 0.197405 h 0.2522 v -0.04548 h 1.74046 v 0.124011 h 0.0429 l -0.0455,0.06202 h -0.20566 v 0.191214 h 0.70847 v -0.186055 h -0.17105 l -0.0424,-0.06718 h 0.96015 v 0.03154 h 0.032 v 0.314193 h -0.61754 V 91.6696 h 0.1819 v 0.41185 l 1.43917,-0.0026 h -1.20044 v -0.410819 h 1.20044 v 0.410819 h 0.2372 v -0.410819 h 1.12139 v 0.409284 h 0.2372 v -0.409284 l 0.13176,0.0026 v -0.253735 h -2.38382 v -0.228944 h 1.6619 v -0.114195 l 0.13645,-0.0061 v -0.384493 l -0.0579,0.0053 h -0.0786 v -0.04548 h -0.20516 l -0.2563,-0.214974 v -0.05374 z m -1.75699,1.707382 -0.22429,0.258393 -0.0496,0.333295 h -0.31263 v 0.184997 h 0.28525 l -0.0687,0.443389 h -1.21545 v 0.278553 l -0.27283,0.01508 v -0.140573 c 0,-0.02196 -0.0169,-0.04133 -0.0403,-0.04133 h -0.37205 c -0.0236,0 -0.0414,0.01932 -0.0414,0.04133 v 0.166926 c -0.14195,0.0079 -0.28662,0.01826 -0.41754,0.02646 v -0.326602 h -0.0496 c -0.0386,-0.12954 -0.15539,-0.222197 -0.29456,-0.222197 h -0.018 v 0.578776 c -0.0414,0.005 -0.073,0.009 -0.0909,0.01244 -0.1819,0.0372 -0.4904,0.203914 -0.6351,0.388593 -0.14613,0.184653 -0.14611,0.184679 -0.2191,0.425821 h 0.24235 c -0.17639,0.329353 -0.13215,0.817509 0.076,1.098629 0.17362,0.237014 1.2759,1.115907 1.43298,1.195811 0.15158,0.0772 0.47696,0.195844 0.70022,0.195844 h 8.20621 c 1.44973,0 1.89066,-2.133017 1.1865,-2.42517 -0.70422,-0.293503 -0.61495,-0.551392 -0.61495,-0.551392 l 0.0878,-0.255799 h 0.40773 l 0.45736,0.446484 0.0718,-0.0744 -0.48781,-0.476991 H 144.9854 V 93.3643 l 0.97978,0.326575 v -0.147267 h 0.27803 c 0.0579,0 0.10334,-0.04699 0.10334,-0.104907 v -0.326602 c 0,-0.05919 -0.0455,-0.105939 -0.10334,-0.105939 h -0.27803 v -0.257863 c -0.018,-0.12954 -0.018,-0.129328 -0.25373,-0.296095 -0.23567,-0.166767 -0.47287,-0.241538 -0.70848,-0.259424 -0.0909,-0.0069 -0.7026,-0.0077 -1.41644,-0.0077 v -0.398409 h -0.59791 v 0.0925 h -0.091 v -0.111628 h -0.14624 v 0.352425 h -0.2532 V 92.00839 h -0.10904 v -0.07443 h -0.091 v -0.07287 h -0.10904 v 0.07287 h -0.10903 v 0.186028 h -0.0729 v -0.13073 h -0.25321 v 0.13073 h -0.0915 v 0.0703 h -0.10853 v -0.108532 h -0.0553 z m 1.82367,-1.601443 h 0.13901 l 0.19584,0.162772 h -0.33485 z m 0.62269,0.330729 h 0.0786 v 0.144674 h -0.0786 z m -3.16674,0.258895 h 0.0884 l 0.0853,0.13126 h 0.14211 v 0.0589 h -0.58033 v -0.06458 h 0.17261 z m 7.67551,3.63646 c 0.0868,0.03162 0.16936,0.07453 0.24236,0.128164 l -0.39532,0.403595 v -0.06771 l 0.12661,-0.388593 z m 0.44908,0.337449 c 0.0827,0.117105 0.14038,0.254767 0.1638,0.403596 h -0.27543 v -0.02895 c 0,-0.0345 -0.0275,-0.06305 -0.062,-0.06305 h -0.13229 z m -10.8226,0.577242 c 0.0151,0.0079 0.0301,0.01826 0.0331,0.02646 0.004,0.0079 -0.014,-0.0077 -0.014,-0.0077 z m 0.54414,0.04855 -0.21188,0.244951 c -0.0482,-0.0413 -0.0954,-0.08128 -0.13951,-0.119883 l 0.0661,-0.09096 c 0.022,0.0026 0.0443,0.0032 0.0677,0.0032 0.0758,0 0.14867,-0.01376 0.21757,-0.03723 z m 0.14211,0 h 0.38034 c -0.0427,0.073 -0.0744,0.152849 -0.0909,0.238231 l -0.077,-0.06459 -0.27287,0.314192 -0.13229,-0.109034 0.24495,-0.336418 z m 3.67522,0 h 0.42738 c -0.0675,0.114379 -0.10647,0.246697 -0.10647,0.38862 0,0.139197 0.0374,0.268737 0.10078,0.380338 h -0.0455 l -0.014,0.347266 h -0.17777 l -0.0135,-0.347266 h -0.16536 c 0.0634,-0.111601 0.10025,-0.241141 0.10025,-0.380338 0,-0.141923 -0.0385,-0.274241 -0.10594,-0.38862 z m 6.3495,0.07443 h 0.27543 c -0.0233,0.148828 -0.0811,0.286464 -0.1638,0.403595 l -0.32401,-0.329194 h 0.15036 c 0.0344,0 0.062,-0.02749 0.062,-0.0744 z m -2.56006,0.0744 v 0 h 0.78238 c 0.0468,0.25355 0.17396,0.477996 0.35448,0.647515 l -0.014,0.319881 h -0.17674 l -0.0151,-0.347266 h -0.17209 l -0.014,0.347266 h -0.17777 l -0.014,-0.347266 h -0.17364 l -0.0135,0.347266 h -0.16536 l -0.014,-0.347266 h -0.17209 l -0.014,0.347266 h -0.17777 l -0.007,-0.189151 c 0.13645,-0.136419 0.2217,-0.327607 0.2217,-0.538453 0,-0.08411 -0.0138,-0.163989 -0.0388,-0.239792 z m 1.02786,0 h 0.4723 l -0.32348,0.329194 c -0.0689,-0.09641 -0.12131,-0.209311 -0.14882,-0.329194 z m 0.75086,0.134884 v 0.570521 c -0.0303,-0.004 -0.0589,-0.01111 -0.0879,-0.01799 l -0.003,-0.06718 h -0.17208 c -0.0469,-0.02328 -0.091,-0.04985 -0.13229,-0.08165 z m 0.29093,0 0.39532,0.403596 c -0.11438,0.08549 -0.24924,0.143536 -0.39532,0.166925 z m -7.77938,0.02064 v 0 h 0.0439 c 0.0524,0.06752 0.13377,0.110093 0.22479,0.110093 0.091,0 0.17211,-0.04262 0.22582,-0.110093 h 0.0496 c -0.003,0.0276 -0.004,0.05665 -0.004,0.08424 0,0.219102 0.0909,0.414761 0.23563,0.553958 l -0.008,0.173646 h -0.17671 l -0.0135,-0.347265 h -0.17364 l -0.014,0.347265 h -0.17621 l -0.0156,-0.347265 h -0.17208 l -0.014,0.347265 h -0.18862 l -0.0103,-0.220662 c 0.11854,-0.133694 0.19122,-0.311256 0.19122,-0.506942 0,-0.0276 0,-0.05665 -0.005,-0.08424 z m 3.72329,0 h 0.0439 c 0.0537,0.06752 0.13378,0.110093 0.22479,0.110093 0.0909,0 0.17212,-0.04262 0.22583,-0.110093 h 0.0496 c -0.005,0.0276 -0.006,0.05665 -0.006,0.08424 0,0.139198 0.0369,0.268738 0.10025,0.380339 h -0.15142 l -0.014,0.347265 h -0.17622 l -0.014,-0.347265 h -0.17312 l -0.0135,0.347265 h -0.17674 l -0.0146,-0.347265 c 0.0647,-0.111601 0.0992,-0.241141 0.0992,-0.380339 0,-0.0276 0,-0.05665 -0.004,-0.08424 z m -5.20279,0.08424 c 0,0.08681 0.014,0.169281 0.0403,0.246486 l -0.0775,0.0894 -0.13488,-0.105939 z m 3.39722,0.39378 -0.014,0.333824 h -0.17621 l -0.006,-0.117316 c 0.0786,-0.05789 0.14488,-0.132397 0.19587,-0.216508 z m 2.46756,0.02487 c 0.0524,0.0799 0.11848,0.147823 0.19428,0.201534 l -0.004,0.1075 h -0.17674 z m -5.72267,0.02646 c 0.0151,0.02196 0.0317,0.04273 0.0496,0.06202 l -0.062,-0.04548 z m 8.36435,0.102341 c 0.0593,0.0372 0.12147,0.06887 0.18759,0.09506 l -0.004,0.08528 h -0.17622 z m -4.55062,0.0042 c 0.0537,0.05228 0.1175,0.09819 0.185,0.13126 v 0.04546 h -0.17622 z m 0.96893,0.04289 v 0 l -0.004,0.133826 h -0.17775 l -0.003,-0.02646 c 0.0675,-0.02619 0.12976,-0.06339 0.18344,-0.107474 z m -3.83749,0.07803 c 0.0161,-0.0029 0.0156,0.02275 0.0156,0.02275 0,0.0331 -0.0775,0.03307 -0.0775,0.03307 h -0.077 c 0.0551,-0.01508 0.10597,-0.03889 0.13076,-0.05271 0.003,-0.0026 0.006,-0.0032 0.008,-0.0032 z m 5.71283,0.01402 v 0 c 0.013,-0.0029 0.013,0.01641 0.013,0.01641 0,0.02487 -0.063,0.02487 -0.063,0.02487 h -0.061 c 0.0441,-0.01244 0.0856,-0.02884 0.10491,-0.03874 z m -4.35115,0 c 0.0344,0.01641 0.0718,0.03035 0.10903,0.04133 h -0.10747 z m 6.4425,0.01349 c 0.0579,0.01244 0.11718,0.01799 0.17777,0.02789 h -0.17674 z m -2.63499,0.02064 0.0233,0.0066 h -0.0233 z" />
  </g>
</svg>
