<?xml version="1.0" encoding="UTF-8" standalone="no"?>
<!-- Created with Inkscape (http://www.inkscape.org/) -->

<svg
   width="24.363146mm"
   height="7.0338602mm"
   viewBox="0 0 24.363146 7.0338602"
   version="1.1"
   id="svg71253"
   sodipodi:docname="inkporter-svg-ggcrfhff.svg"
   xmlns:inkscape="http://www.inkscape.org/namespaces/inkscape"
   xmlns:sodipodi="http://sodipodi.sourceforge.net/DTD/sodipodi-0.dtd"
   xmlns="http://www.w3.org/2000/svg"
   xmlns:svg="http://www.w3.org/2000/svg">
  <sodipodi:namedview
     id="namedview71255"
     pagecolor="#ffffff"
     bordercolor="#666666"
     borderopacity="1.0"
     inkscape:pageshadow="2"
     inkscape:pageopacity="0.0"
     inkscape:pagecheckerboard="0"
     inkscape:document-units="mm"
     showgrid="false"
     inkscape:zoom="0.64052329"
     inkscape:cx="397.33138"
     inkscape:cy="561.25984"
     inkscape:window-width="2400"
     inkscape:window-height="1271"
     inkscape:window-x="-9"
     inkscape:window-y="-9"
     inkscape:window-maximized="1"
     inkscape:current-layer="layer1" />
  <defs
     id="defs71250" />
  <g
     inkscape:label="Layer 1"
     inkscape:groupmode="layer"
     id="layer1"
     transform="translate(-8.63717,-103.08113)">
    <path
       d="m 14.14247,110.04152 c 0,0 -0.0496,0.0648 -0.40239,0.0537 -1.87137,-0.0648 -1.87137,-0.0648 -2.29443,-0.24254 -0.42305,-0.17638 -0.63941,-0.45337 -0.63941,-0.65456 0,-0.19982 0,-0.19982 -0.0152,-0.48369 0,0 -0.0152,-0.28526 -0.35691,-0.37346 -1.79696,-0.46577 -1.79696,-0.46577 -1.79696,-0.966 0,-0.50023 0,-0.50023 1.28433,-0.86541 0,0 0.33899,-0.0965 0.37758,-0.0496 0.0386,0.0455 0.0386,0.0455 0.1695,-0.0386 0.13091,-0.0854 1.99264,-0.36932 3.46301,-0.32384 1.46899,0.0469 1.46899,0.0469 2.70233,0.0772 0,0 0.35278,0.008 0.65733,-0.1695 l 1.09554,-0.63803 v -0.21635 h 0.073 c 0,0 0.073,0 0.073,0.0703 0,0 0,-0.0703 0,0 0,0 0,0.0689 0.35278,0.0772 3.34863,0.0758 3.34863,0.0758 3.64904,0.091 0.30041,0.0166 0.30041,0.0166 0.41066,0.0124 0,0 0.11162,-0.004 0.14469,-0.35553 l 0.10611,-1.11759 h 0.0841 v 1.48415 c 3.70141,0.37758 3.70141,0.37758 4.27192,0.43959 0.56913,0.0606 0.90675,0.26183 1.12999,-0.13091 0.22324,-0.39274 1.37804,-2.64032 2.33991,-2.64032 0.96187,0 1.9389,2.1084 1.9389,2.51629 0,0.4079 0.39274,2.13183 -1.30087,2.38539 -1.69223,0.25494 -5.43223,0.78548 -5.96277,0.85438 -0.53192,0.0703 -0.53192,0.0703 -1.20027,0.17777 -0.66284,0.37621 -0.66284,0.37621 -1.41663,0.46164 -0.75379,0.0841 -0.75379,0.0841 -6.10195,0.51539 l -0.20808,-0.2384 -0.15021,0.17225 c 0,0 -0.15021,0.17364 -0.85576,0.17915 l -1.4869,0.01 -0.0841,-0.13781 z m 0,0"
       id="B-kittyhawk" />
  </g>
</svg>
