<?xml version="1.0" encoding="UTF-8" standalone="no"?>
<!-- Created with Inkscape (http://www.inkscape.org/) -->

<svg
   width="12.72837mm"
   height="7.0623798mm"
   viewBox="0 0 12.72837 7.0623798"
   version="1.1"
   id="svg26913"
   sodipodi:docname="inkporter-svg-zot27x9c.svg"
   xmlns:inkscape="http://www.inkscape.org/namespaces/inkscape"
   xmlns:sodipodi="http://sodipodi.sourceforge.net/DTD/sodipodi-0.dtd"
   xmlns="http://www.w3.org/2000/svg"
   xmlns:svg="http://www.w3.org/2000/svg">
  <sodipodi:namedview
     id="namedview26915"
     pagecolor="#ffffff"
     bordercolor="#666666"
     borderopacity="1.0"
     inkscape:pageshadow="2"
     inkscape:pageopacity="0.0"
     inkscape:pagecheckerboard="0"
     inkscape:document-units="mm"
     showgrid="false"
     inkscape:zoom="0.45291836"
     inkscape:cx="114.81098"
     inkscape:cy="1266.2326"
     inkscape:window-width="1920"
     inkscape:window-height="1017"
     inkscape:window-x="-8"
     inkscape:window-y="-8"
     inkscape:window-maximized="1"
     inkscape:current-layer="layer1" />
  <defs
     id="defs26910" />
  <g
     inkscape:label="Layer 1"
     inkscape:groupmode="layer"
     id="layer1"
     transform="translate(-124.99326,-368.23515)">
    <path
       d="m 126.95639,375.23373 c -0.42468,-0.13352 -0.77926,-0.47726 -0.9379,-0.90927 l -0.0892,-0.24266 h -0.0595 c -0.0327,0 -0.0666,-0.0397 -0.0753,-0.0883 -0.009,-0.0485 -0.0674,-0.14285 -0.1302,-0.20958 l -0.11428,-0.12134 h -0.1205 c -0.0663,0 -0.1519,-0.012 -0.19028,-0.0267 l -0.0698,-0.0267 v -0.10091 c 0,-0.0556 0.0299,-0.11233 0.0663,-0.12627 0.0364,-0.014 0.0662,-0.0645 0.0662,-0.11243 0,-0.0478 0.0212,-0.10011 0.0471,-0.11616 l 0.0471,-0.0291 -0.0296,-0.2769 -0.0296,-0.27688 0.0482,-0.0298 0.0482,-0.0297 -0.0263,0.0685 c -0.0314,0.0816 -3.3e-4,0.0865 0.11024,0.0174 0.045,-0.0281 0.11645,-0.0378 0.1588,-0.0215 l 0.077,0.0295 -0.0476,0.0572 -0.0475,0.0572 0.0316,0.10771 0.0316,0.10771 0.17393,-0.19048 0.17393,-0.19049 -0.11835,0.0297 -0.11838,0.0297 -0.0271,-0.0709 -0.0272,-0.0709 h -0.39237 -0.39237 v -0.0663 c 0,-0.0364 0.0148,-0.0667 0.033,-0.0672 0.29662,-0.0103 0.74417,-0.0607 0.76109,-0.0856 0.0121,-0.0179 0.0691,-0.0572 0.12667,-0.0876 l 0.1046,-0.0552 -0.03,0.0485 c -0.0371,0.0599 0.0301,0.0643 0.0887,0.006 0.0236,-0.0236 0.18141,-0.0625 0.35076,-0.0866 0.16936,-0.0241 0.37187,-0.0662 0.45004,-0.0934 l 0.14212,-0.0496 0.0272,-0.16158 c 0.0449,-0.26728 0.0628,-0.3055 0.1533,-0.32918 l 0.0867,-0.0227 v -0.11439 c 0,-0.0629 0.0148,-0.11543 0.033,-0.11665 0.0182,-9.8e-4 0.12244,-0.0122 0.23164,-0.0246 0.10921,-0.0123 0.39709,-0.0285 0.63976,-0.0358 0.24267,-0.007 0.48589,-0.0162 0.54049,-0.0196 l 0.0993,-0.006 v -0.0676 c 0,-0.0373 -0.0298,-0.079 -0.0663,-0.093 -0.0364,-0.0141 -0.0663,-0.0543 -0.0663,-0.0895 0,-0.0353 -0.018,-0.053 -0.04,-0.0394 l -0.04,0.0248 0.0214,-0.0821 0.0214,-0.0822 -0.22981,-0.0306 c -0.12639,-0.0167 -0.63924,-0.027 -1.13966,-0.0229 l -0.90986,0.008 -0.0141,-0.0935 -0.014,-0.0936 h 0.35009 c 0.19256,0 0.76399,-0.0219 1.26986,-0.0485 l 0.91975,-0.0485 0.25222,-0.19816 c 0.13873,-0.10897 0.26344,-0.22738 0.27715,-0.26312 0.0137,-0.0357 0.0457,-0.0521 0.0712,-0.0364 l 0.0462,0.0286 -0.028,0.0883 -0.028,0.0883 0.11255,-0.0737 c 0.0618,-0.0405 0.13147,-0.0619 0.15461,-0.0477 0.0716,0.0442 0.1824,-0.0235 0.1824,-0.11141 0,-0.0973 0.0165,-0.1016 0.12712,-0.0324 0.10368,0.0648 0.22738,0.0188 0.25725,-0.0954 0.0214,-0.0818 0.14512,-0.12865 0.14506,-0.055 -1e-5,0.0182 0.0993,0.0263 0.22061,0.0177 l 0.22063,-0.0153 v -0.0619 -0.0618 h -0.13236 -0.13236 v -0.24268 -0.24266 h 0.14847 0.14847 l 0.12728,0.0964 c 0.0701,0.0531 0.13578,0.10287 0.14614,0.11071 0.0104,0.008 -0.0246,0.0548 -0.0776,0.10413 l -0.0964,0.0898 0.0285,0.11931 c 0.0419,0.17541 0.0574,0.19019 0.14844,0.14148 l 0.0827,-0.0442 h 0.52353 0.52354 l 0.053,0.053 0.053,0.053 0.053,-0.053 c 0.0292,-0.0292 0.0963,-0.053 0.14927,-0.053 h 0.0963 l 0.0266,-0.0993 c 0.0147,-0.0546 0.0268,-0.14163 0.0272,-0.1934 l 7.3e-4,-0.0941 -0.0919,-0.0241 -0.0919,-0.024 0.0142,-0.16863 0.0142,-0.16865 -0.2422,-0.004 c -0.27637,-0.004 -0.45376,-0.0504 -0.4167,-0.11048 0.014,-0.0224 0.004,-0.0409 -0.0226,-0.0409 -0.0263,0 -0.0598,0.0596 -0.0743,0.13237 l -0.0265,0.13236 h -0.0621 c -0.0837,0 -0.1273,-0.12613 -0.0652,-0.18828 0.0275,-0.0274 0.05,-0.0857 0.05,-0.1294 v -0.0793 h 0.0913 c 0.11705,0 0.21746,-0.10045 0.21746,-0.21745 0,-0.0502 0.021,-0.0913 0.0468,-0.0913 0.0257,0 0.0348,0.0193 0.0202,0.0428 l -0.0263,0.0428 0.16468,0.0688 c 0.0906,0.0378 0.24027,0.0643 0.33269,0.0589 l 0.16801,-0.0103 v -0.12373 c 0,-0.0681 0.0198,-0.12374 0.0441,-0.12374 0.0243,0 0.0441,0.0596 0.0441,0.13237 v 0.13236 h 0.11036 c 0.0607,0 0.11036,0.0198 0.11036,0.0441 v 0.0442 h 0.74746 0.74746 l 0.0296,0.048 c 0.0639,0.10345 -0.0765,0.12692 -0.78405,0.13077 l -0.73491,0.004 -0.0535,0.0644 -0.0535,0.0644 0.0947,0.10079 0.0947,0.10081 v 0.33542 0.33542 l 0.0494,0.0165 0.0494,0.0165 0.0103,0.21884 c 0.006,0.12035 0.026,0.33329 0.045,0.47318 l 0.0347,0.25436 -0.0834,0.0929 c -0.046,0.051 -0.12317,0.10909 -0.17171,0.1289 l -0.0883,0.0362 0.27865,0.004 c 0.15327,9.8e-4 0.31707,0.0234 0.364,0.0485 l 0.0853,0.0456 v 0.1046 0.10461 l 0.0883,-0.023 c 0.0485,-0.0127 0.0883,-0.0407 0.0883,-0.0621 0,-0.0214 0.0785,-0.0389 0.1743,-0.0389 h 0.17429 l 0.0379,0.0677 0.038,0.0677 0.63506,0.0602 0.63506,0.0602 0.10103,-0.0383 c 0.10875,-0.0414 0.1948,-0.0206 0.36343,0.0874 0.059,0.0377 0.12847,0.0698 0.15441,0.0711 0.026,9.9e-4 0.1266,0.0256 0.22367,0.0539 0.0971,0.0283 0.22941,0.0623 0.29409,0.0756 l 0.1176,0.024 0.0555,0.12556 0.0555,0.12555 0.0916,-0.0115 c 0.0503,-0.006 0.12295,-0.0236 0.1613,-0.039 l 0.0697,-0.028 0.195,0.37576 0.19498,0.37576 -0.13742,0.12553 -0.13739,0.12554 0.0853,0.16647 c 0.0902,0.17576 0.0793,0.30491 -0.0222,0.26592 -0.0333,-0.0128 -0.0933,-0.0918 -0.13331,-0.17575 -0.04,-0.0839 -0.0952,-0.15249 -0.12263,-0.15249 h -0.0498 l 0.0748,0.11417 c 0.0411,0.0628 0.0671,0.12179 0.0577,0.13115 -0.009,0.009 -0.22843,-0.019 -0.48683,-0.063 l -0.4698,-0.0801 -0.0241,0.0628 c -0.0133,0.0346 -0.0241,0.13068 -0.0241,0.21362 v 0.15081 h 0.15442 0.15442 v 0.1765 0.17648 l -0.0551,0.008 c -0.0304,0.005 -0.10448,0.009 -0.16467,0.0115 l -0.10956,0.004 -0.014,0.0716 -0.014,0.0716 0.0965,0.0253 0.0965,0.0253 -0.0277,0.16798 c -0.0153,0.0924 -0.028,0.22257 -0.0282,0.2893 l -3.7e-4,0.12135 h -0.0662 -0.0663 v -0.17787 -0.17788 l -0.0592,-0.0227 c -0.0326,-0.0125 -0.13996,-0.0271 -0.2387,-0.0327 l -0.17952,-0.0103 -0.0951,0.22926 -0.0951,0.22925 -0.21861,0.20448 c -0.12023,0.11244 -0.30262,0.24262 -0.40532,0.28923 l -0.18671,0.0847 -0.39947,9.9e-4 -0.39945,9.8e-4 -0.22561,-0.11243 c -0.26906,-0.13409 -0.56087,-0.43745 -0.68015,-0.70711 l -0.0864,-0.19526 h -2.13239 -2.13238 l -0.0928,0.21572 -0.0928,0.21575 -0.22361,0.20104 -0.22362,0.20104 -0.24218,0.0906 -0.24218,0.0906 -0.25206,-0.004 c -0.13861,-0.002 -0.33146,-0.0279 -0.42852,-0.0584 z m 5.96204,-4.25381 c -0.0697,-0.009 -0.14413,0.002 -0.16541,0.0229 l -0.0387,0.0387 0.16542,-0.0229 0.16541,-0.0229 z m 0.0574,-1.63037 -0.004,-0.29782 -0.0378,0.0883 c -0.0696,0.16186 -0.0496,0.5074 0.0294,0.5074 0.008,0 0.0133,-0.13402 0.0116,-0.29783 z"
       id="B-Staghound" />
  </g>
</svg>
