<?xml version="1.0" encoding="UTF-8" standalone="no"?>
<!-- Created with Inkscape (http://www.inkscape.org/) -->

<svg
   width="14.1966mm"
   height="6.3719201mm"
   viewBox="0 0 14.1966 6.3719201"
   version="1.1"
   id="svg4342"
   sodipodi:docname="inkporter-svg-jh4md8gk.svg"
   xmlns:inkscape="http://www.inkscape.org/namespaces/inkscape"
   xmlns:sodipodi="http://sodipodi.sourceforge.net/DTD/sodipodi-0.dtd"
   xmlns="http://www.w3.org/2000/svg"
   xmlns:svg="http://www.w3.org/2000/svg">
  <sodipodi:namedview
     id="namedview4344"
     pagecolor="#ffffff"
     bordercolor="#666666"
     borderopacity="1.0"
     inkscape:pageshadow="2"
     inkscape:pageopacity="0.0"
     inkscape:pagecheckerboard="0"
     inkscape:document-units="mm"
     showgrid="false"
     inkscape:zoom="0.66368547"
     inkscape:cx="397.02542"
     inkscape:cy="561.25984"
     inkscape:window-width="1920"
     inkscape:window-height="1017"
     inkscape:window-x="-8"
     inkscape:window-y="-8"
     inkscape:window-maximized="1"
     inkscape:current-layer="layer1" />
  <defs
     id="defs4339" />
  <g
     inkscape:label="Layer 1"
     inkscape:groupmode="layer"
     id="layer1"
     transform="translate(-132.03325,-149.1012)">
    <path
       id="B-Universal-Piat"
       style="stroke-width:1"
       d="m 135.72386,149.1012 -0.11989,0.0124 -0.0801,0.0403 -0.1142,0.11163 -0.0413,0.0703 c -0.003,0.003 0.005,-0.005 -0.0362,0.0935 l -0.0465,0.0992 -0.11316,0.0331 0.23307,0.047 -0.0372,0.1473 0.0672,0.0785 0.0909,0.15452 0.0775,0.0553 -0.0413,0.0672 -0.062,0.13126 -0.0331,0.11834 -0.0206,0.10076 0.0284,0.1416 0.0238,0.061 h -0.15608 l -0.0796,0.0249 -0.11163,-0.0651 -0.0692,-0.0439 -0.10853,-0.0331 -0.1669,-0.0605 -0.17365,-0.0196 -0.0703,0.0196 -0.0305,0.0853 -1.05264,-0.38759 -0.28266,0.73589 h 0.36793 v 0.23564 l -0.0191,0.0212 h -1.2733 v 0.004 c -0.051,-0.007 -0.23977,-0.0217 -0.23977,-0.0217 0,0.003 0.01,0.0935 0.01,0.0935 l 0.23048,-0.0124 h 0.58703 c 0.008,0.0151 0.0233,0.0358 0.0249,0.0579 0.003,0.0386 0.007,0.0413 0.019,0.0661 0.008,0.0164 0.0538,0.008 0.0868,0.005 v 0.0124 h 0.40925 v 0.0439 h 0.16537 v 0.003 h -0.34055 v 0.8196 l -0.67799,0.0858 -0.19688,0.1416 -0.14211,0.25371 0.14211,0.22585 0.14057,0.11316 -0.0853,0.14211 -0.0279,0.39534 0.1974,0.36793 0.38706,0.19275 -0.03,0.0827 3.04374,1.13842 5.89423,0.0853 2.11355,-0.8568 -0.0315,-0.0801 0.10182,-0.0249 0.25476,-0.1695 0.1695,-0.3116 0.0842,-0.36795 v -0.4227 l 0.14158,-0.1416 h 1.52548 v -2.6293 h -0.99116 l 0.2522,-0.89503 -0.4501,-0.12661 -0.28784,1.02164 h -0.44133 l 0.21085,-0.74724 -0.45011,-0.12713 -0.24855,0.88109 -1.12604,0.0206 -0.40257,-0.048 -0.0455,-0.005 -3.31298,-0.39843 -0.79222,0.0568 -0.0108,0.11007 h -0.51107 0.003 l -0.093,-0.003 -0.52347,-0.004 v 0.0941 l -0.1669,-0.14624 -0.18294,-0.0124 -0.0941,0.0827 -0.11678,-0.0109 -0.20569,-0.23563 -0.13073,-0.19175 -0.014,-0.17102 0.19015,-0.0553 -0.16227,-0.0429 v -0.0672 l -0.0196,-0.0693 -0.0341,-0.0951 -0.061,-0.0796 -0.0837,-0.061 -0.11316,-0.0356 z m -2.42052,2.13784 h 0.24286 c 0.006,0.003 0.0122,0.006 0.019,0.008 v 0.0372 h -0.2894 c 0.007,-0.0124 0.0177,-0.0317 0.0274,-0.0455 z m 0.23461,2.99466 1.696,0.12816 c 0.007,0.22463 0.0913,0.42992 0.22636,0.59116 z m 1.92339,0.1447 0.37208,0.0274 -0.30438,0.23564 c -0.0386,-0.0813 -0.0622,-0.16931 -0.0677,-0.26302 z m 0.84905,0.0631 0.0274,0.003 0.42066,0.39119 c -0.11025,0.11851 -0.25908,0.20294 -0.42582,0.23048 z m 0.38859,0.0289 0.14626,0.0109 0.0951,0.005 c -0.0124,0.0551 -0.0303,0.10869 -0.0538,0.15967 z m 0.4713,0.0222 0.34986,0.0109 0.23048,0.007 0.37309,0.007 -0.3111,0.16949 c -0.0276,-0.0551 -0.0484,-0.11419 -0.0925,-0.17621 l -0.19997,-0.007 c 0.0455,0.29213 0.22222,0.54158 0.46612,0.68625 l -1.29294,-0.0164 c 0.24667,-0.1433 0.426,-0.38978 0.47696,-0.68056 z m -1.08468,0.006 0.019,0.5705 c -0.17778,-0.0233 -0.33489,-0.1106 -0.45064,-0.23874 z m 2.67787,0.0315 0.44492,0.008 c -0.0138,0.0524 -0.0319,0.10075 -0.11729,0.16277 z m 4.44262,0.009 0.18346,0.0734 -1.14414,0.46303 c 0.12814,-0.13502 0.2181,-0.30592 0.25117,-0.4961 z m -3.76772,0.003 0.26043,0.005 -0.278,0.0703 z m 1.13429,0.0175 c 0.0441,0.28387 0.2122,0.52676 0.44649,0.67284 l -2.06449,-0.029 c 0.14057,-0.0772 0.25939,-0.18878 0.34623,-0.32244 z m 0.23151,0.008 0.22995,0.004 -0.14573,0.21497 c -0.0386,-0.0675 -0.0676,-0.14054 -0.0842,-0.2191 z m 0.54724,0.0119 0.0589,0.56587 c -0.14054,-0.0249 -0.27114,-0.0852 -0.37311,-0.17622 z m 0.66146,0.0124 h 0.25323 c -0.0111,0.0469 -0.0246,0.0916 -0.0439,0.13435 z m -0.31832,0.0615 0.4036,0.26148 c -0.11298,0.12129 -0.26734,0.20432 -0.43823,0.23048 z m -3.36672,0.0108 0.0331,0.42477 c -0.16121,-0.0262 -0.30716,-0.10507 -0.41601,-0.21807 z m 0.22842,0.0114 0.43304,0.22582 c -0.10885,0.10057 -0.24802,0.16815 -0.401,0.19019 z" />
  </g>
</svg>
