<?xml version="1.0" encoding="UTF-8" standalone="no"?>
<!-- Created with Inkscape (http://www.inkscape.org/) -->

<svg
   width="17.63175mm"
   height="6.5364799mm"
   viewBox="0 0 17.63175 6.5364799"
   version="1.1"
   id="svg1"
   xml:space="preserve"
   sodipodi:docname="inkporter-svg-fua_ntp3.svg"
   xmlns:inkscape="http://www.inkscape.org/namespaces/inkscape"
   xmlns:sodipodi="http://sodipodi.sourceforge.net/DTD/sodipodi-0.dtd"
   xmlns="http://www.w3.org/2000/svg"
   xmlns:svg="http://www.w3.org/2000/svg"><sodipodi:namedview
     id="namedview1"
     pagecolor="#ffffff"
     bordercolor="#666666"
     borderopacity="1.0"
     inkscape:showpageshadow="2"
     inkscape:pageopacity="0.0"
     inkscape:pagecheckerboard="0"
     inkscape:deskcolor="#d1d1d1"
     inkscape:document-units="mm"
     inkscape:zoom="1.0293026"
     inkscape:cx="365.78163"
     inkscape:cy="281.25839"
     inkscape:window-width="1920"
     inkscape:window-height="1017"
     inkscape:window-x="-8"
     inkscape:window-y="-8"
     inkscape:window-maximized="1"
     inkscape:current-layer="layer1" /><defs
     id="defs1"><clipPath
       clipPathUnits="userSpaceOnUse"
       id="clipPath1544"><path
         d="M 0,0 H 595.276 V 841.89 H 0 Z"
         transform="translate(-172.36663,-750.91612)"
         id="path1544" /></clipPath></defs><g
     inkscape:label="Layer 1"
     inkscape:groupmode="layer"
     id="layer1"
     transform="translate(-106.40475,-46.6155)"><path
       id="B-ValentineVIII"
       d="m 123.5711,49.77799 -0.40499,-0.24553 h -0.58385 c 0,0 0.0462,-0.0864 0.0529,-0.13265 0.007,-0.0466 -0.0995,-0.0797 -0.0995,-0.0797 h -0.96238 l -0.10654,-0.0667 0.13088,-0.2607 -0.0723,-0.0575 -0.0526,0.0625 c 0,0 -0.091,0.11288 -0.14005,0.1725 l -0.21767,-0.13582 0.0681,-0.11324 c 0.0176,-0.03 0.0205,-0.10759 -0.0289,-0.14076 -0.0166,-0.0109 -0.0639,-0.0462 -0.10936,-0.0804 -0.0487,-0.036 -0.0946,-0.0702 -0.11218,-0.0822 -0.0501,-0.0332 -0.11148,-0.024 -0.14323,0.0212 -0.0145,0.0208 -0.0589,0.0889 -0.09,0.13688 l -0.39405,-0.24553 -0.13265,0.14605 -0.30515,-0.19262 h -0.5909 v 0.0399 h -0.0663 v 0.14605 h -0.1725 v -0.0466 c 0,-0.0462 -0.0268,-0.0928 -0.0797,-0.0928 h -0.0332 v -0.0663 h -0.21908 v 0.0663 h -0.0265 c 0,0 -0.073,0.0134 -0.073,0.073 v 0.0663 h -0.15275 v -0.0466 c 0,-0.0462 -0.0265,-0.0928 -0.0797,-0.0928 h -0.0399 v -0.0663 h -0.21872 v 0.0663 h -0.0201 c 0,0 -0.073,0.0134 -0.073,0.073 v 0.0663 h -0.14605 v -0.0466 c 0,-0.0462 -0.0265,-0.0928 -0.0797,-0.0928 h -0.0462 v -0.0663 h -0.21908 v 0.0663 h -0.0134 c 0,0 -0.073,0.0134 -0.073,0.073 v 0.0663 h -0.17251 v -0.0466 c 0,-0.0462 -0.0265,-0.0928 -0.0797,-0.0928 h -0.0265 v -0.0663 h -0.21908 v 0.0663 h -0.0332 c 0,0 -0.073,0.0134 -0.073,0.073 v 0.0663 h -0.17251 v -0.0466 c 0,-0.0529 -0.0332,-0.0794 -0.0864,-0.0794 h -0.0332 v -0.0797 h -0.21908 v 0.0797 h -0.0197 c -0.0864,0 -0.0596,0.11924 -0.0596,0.11924 l -0.0141,0.01 0.007,-0.0847 c 0,0 -0.007,-0.14252 0.0321,-0.14499 0.13688,-0.008 0.44274,0 0.44274,0 v -0.0159 -0.46708 h 1.16769 c 0.0642,0 0,-0.83714 0,-0.83714 h -0.76482 v 0.32174 l -0.24165,-0.1771 v -0.32985 h -0.13688 v -0.14499 h -0.10477 v 0.16898 h -0.1771 l -0.0321,-0.0564 c 0,0 -0.008,-0.20109 -0.008,-0.22543 0,-0.024 -0.0483,-0.0642 -0.0483,-0.0642 l -0.0885,0.31397 h -0.0967 l -0.27376,-0.16898 h -2.29447 v 0.11254 h -0.20919 l -0.16934,0.024 -0.0483,-0.22542 -0.48295,0.121 0.0243,0.22543 -0.78105,0.13687 -0.80504,0.008 -0.0162,0.16087 c 0,0 -0.47484,0.0967 -0.51541,0.10477 -0.0402,0.008 -0.0561,0.25753 -0.0561,0.25753 l -0.0646,0.0646 h -0.94192 l -0.0243,0.0723 h -3.12385 v 0.19332 l 3.14819,0.0642 0.0321,0.0325 h 0.92604 c 0,0 0.0483,0.0963 0.10443,0.0963 h 0.3302 l 0.0243,0.0564 -0.0162,0.23354 c 0,0 0.1771,0.0243 0.2092,0.0402 0.0325,0.0162 0.16122,0.0967 0.18521,0.14499 0.0127,0.025 0.0272,0.0674 0.0374,0.11148 h -1.11548 l -0.0533,-0.18592 -0.40464,0.10619 0.0332,0.1591 -0.2988,0.0864 v 0.31856 h -0.14605 v 0.38488 h 0.13935 v 0.0596 h -1.16805 v -0.23213 h -0.25894 v 0.0995 c 0,0 -0.0265,-0.0198 -0.0529,-0.0462 -0.0268,-0.0268 -0.19931,-0.0268 -0.19931,-0.0268 v 0.19932 h -0.40464 c -0.23248,0 -0.65052,0.43145 -0.65052,0.43145 l 0.42756,0.27446 c -0.20461,0.2794 -0.22013,0.55986 -0.19544,0.74965 0.0381,0.28928 0.20003,0.5715 0.42263,0.73625 0.31962,0.23636 1.72226,0.78105 2.32093,1.01353 0.0963,0.0374 0.1658,0.0642 0.20002,0.0783 0.25506,0.10301 0.55281,0.14993 0.72108,0.14993 h 9.55146 c 0.20955,0 0.33902,-0.01 0.46602,-0.0653 0.0272,-0.0116 0.16686,-0.0688 0.36054,-0.14781 0.65087,-0.26564 1.86231,-0.76024 2.02282,-0.8502 0.34502,-0.19367 0.55316,-0.47836 0.61772,-0.84596 0.0519,-0.29492 -0.0363,-0.54927 -0.11889,-0.71014 0.19156,-10e-4 0.42228,-0.002 0.43392,0.002 0.0198,0.007 -0.46461,-0.75671 -0.46461,-0.75671 m -15.76211,2.19392 c -0.012,-0.006 -0.024,-0.012 -0.0356,-0.018 0.0127,0.004 0.0254,0.008 0.0381,0.012 z m 0.34325,0.15981 c -0.0547,-0.0243 -0.10759,-0.048 -0.15804,-0.0716 l 0.024,-0.0589 c 0.0187,0.001 0.0374,0.002 0.0564,0.002 0.0455,0 0.09,-0.004 0.1337,-0.01 z m 1.40335,0.57609 c -0.0522,-0.0205 -0.10724,-0.042 -0.16474,-0.0649 l 0.0921,-0.22754 -0.18979,-0.0769 -0.0928,0.22931 c -0.0526,-0.0208 -0.10654,-0.0427 -0.16087,-0.0646 l 0.0928,-0.22966 -0.1898,-0.0769 -0.0928,0.23002 c -0.0526,-0.0215 -0.10512,-0.043 -0.15769,-0.0649 l 0.0924,-0.22895 -0.18979,-0.0765 -0.0917,0.22683 c -0.055,-0.0229 -0.10936,-0.0462 -0.16298,-0.0691 l 0.0907,-0.22401 -0.0734,-0.0296 c 0.14358,-0.0452 0.27234,-0.12312 0.37782,-0.22542 l 0.22719,0.10724 0.75883,0.0176 c -0.0166,0.0698 -0.0254,0.14288 -0.0254,0.21802 0,0.17251 0.0459,0.33443 0.12558,0.47413 l -0.17427,-0.0702 z m 0.32491,0.12629 c -0.0176,-0.007 -0.036,-0.0141 -0.0561,-0.0219 -0.0243,-0.009 -0.0504,-0.0194 -0.0783,-0.0303 l 0.0857,-0.21166 c 0.0293,0.0487 0.0628,0.0945 0.0998,0.13723 z m 0.1905,0.0744 0.0219,-0.0536 c 0.0815,0.0589 0.17251,0.10548 0.27094,0.13688 -0.0956,-0.0201 -0.1965,-0.0473 -0.29281,-0.0833 m 0.83714,0.12382 h -0.16228 c 0.0557,-0.005 0.11007,-0.0152 0.16228,-0.0293 z m 1.1296,0 h -0.1771 v -0.21554 h -0.20461 v 0.21554 h -0.17357 v -0.21554 h -0.20461 v 0.21554 h -0.16474 v -0.11218 c 0.2413,-0.13158 0.4198,-0.36336 0.47907,-0.63994 l 0.17427,0.0289 c 0.018,0.21202 0.11959,0.4004 0.27129,0.53234 z m 0.20461,0 v -0.0614 c 0.073,0.0317 0.15205,0.0529 0.2346,0.0614 z m 0.52211,0 h -0.12206 c 0.0416,-0.004 0.0826,-0.0116 0.12206,-0.0222 z m 0.75988,-0.21554 v 0.21554 h -0.17709 v -0.21554 h -0.20461 v 0.21554 h -0.17357 v -0.10865 c 0.15346,-0.0921 0.2734,-0.2346 0.3369,-0.40464 h 0.14041 c 0.0423,0.11395 0.11042,0.21555 0.19685,0.29775 z m 0.20461,0.21554 v -0.14428 c 0.10972,0.0787 0.23989,0.12982 0.381,0.14428 z m 0.54893,0 h -0.002 c 7.1e-4,0 10e-4,0 0.002,0 z m 0.37817,0 h -0.17356 v -0.0501 c 0.0621,-0.0243 0.12029,-0.0561 0.17356,-0.0942 z m 1.51659,-0.21554 v 0.21554 h -0.17709 v -0.21554 h -0.20461 v 0.21554 h -0.17357 v -0.21554 h -0.20461 v 0.21554 h -0.17039 v -0.21554 h -0.20461 v 0.21554 h -0.1771 v -0.21554 h -0.11888 c 0.15205,-0.14499 0.2473,-0.34961 0.2473,-0.57644 0,-0.12877 -0.031,-0.25047 -0.0854,-0.35842 h 1.24566 c -0.0543,0.10795 -0.085,0.22965 -0.085,0.35842 0,0.22683 0.0949,0.43145 0.24695,0.57644 z m 0.34855,0.21554 h -0.14393 v -0.1591 c 0.0444,0.0342 0.0928,0.0635 0.14393,0.0878 z m 0.20461,0 v -0.007 c 0.0169,0.003 0.0342,0.005 0.0512,0.007 z m 0.55527,0 h -0.17709 v -0.0335 c 0.0628,-0.0201 0.12206,-0.0476 0.17709,-0.0818 z m 0.76659,0 h -0.17357 v -0.21554 h -0.20461 v 0.21554 h -0.1838 v -0.21554 h -0.0758 c 0.0825,-0.0787 0.14816,-0.17463 0.1912,-0.28258 l 0.12982,-0.006 c 0.0621,0.1598 0.17392,0.29456 0.3168,0.38523 z m 0.20461,0 v -0.0268 c 0.0448,0.0131 0.091,0.0222 0.13864,0.0268 z m 0.53234,0 h -0.15063 v -0.0116 c 0.0522,-0.0109 0.10265,-0.0265 0.15063,-0.0469 z m 1.12183,0 h -0.15733 v -0.21554 h -0.20462 v 0.21554 h -0.17709 v -0.21554 h -0.20461 v 0.21554 h -0.17357 v -0.1852 c 0.14006,-0.11889 0.23813,-0.2854 0.26952,-0.47449 l 0.19721,-0.0557 c 0.0649,0.25224 0.23001,0.46461 0.45049,0.59196 z m 0.34714,0 h -0.14252 v -0.0353 c 0.0586,0.0173 0.11923,0.0293 0.18168,0.0353 -0.0127,0 -0.0258,0 -0.0392,0 m 0.5849,-4.35927 c 0.0145,-0.0208 0.0416,-0.0183 0.061,-0.006 0.0166,0.0113 0.0639,0.0466 0.10937,0.0804 0.0487,0.0363 0.0945,0.0702 0.11218,0.0822 0.0173,0.0116 0.0152,0.0512 0.0109,0.06 l -0.0677,0.11289 -0.31397,-0.19579 c 0.0307,-0.0473 0.0741,-0.1143 0.0882,-0.13406 m 0.1965,4.15537 c -0.0434,0.0176 -0.0836,0.0339 -0.1203,0.049 0.0762,-0.0505 0.14464,-0.11184 0.2032,-0.18133 l 0.036,0.0836 c -0.0416,0.0169 -0.0815,0.0332 -0.11889,0.0487 m 1.35784,-0.55915 -0.0956,-0.2212 -0.18768,0.0811 0.0945,0.21908 c -0.0529,0.0219 -0.10619,0.0441 -0.16052,0.0663 l -0.0935,-0.2166 -0.18768,0.0811 0.0921,0.21343 c -0.0529,0.0219 -0.10548,0.0434 -0.15769,0.0649 l -0.091,-0.21061 -0.18804,0.0811 0.0896,0.20708 c -0.0561,0.0229 -0.11077,0.0455 -0.16369,0.067 l -0.0882,-0.2039 -0.0106,0.005 c 0.0635,-0.12806 0.0991,-0.27235 0.0991,-0.4251 0,-0.0804 -0.01,-0.15875 -0.0286,-0.23354 l 0.60395,-0.0141 c 0.15946,0.14111 0.36266,0.23354 0.58667,0.2547 l 0.0501,0.11607 c -0.0522,0.0219 -0.10654,0.0448 -0.16334,0.0684 m 0.35172,-0.14852 -0.0169,-0.0392 c 0.0783,-0.009 0.15416,-0.0272 0.22613,-0.0533 -0.0533,0.0247 -0.12488,0.0561 -0.2092,0.0924"
       style="stroke-width:0.352778" /></g></svg>
