<?xml version="1.0" encoding="UTF-8" standalone="no"?>
<!-- Created with Inkscape (http://www.inkscape.org/) -->

<svg
   width="8.3085728mm"
   height="8.090642mm"
   viewBox="0 0 8.3085729 8.0906419"
   version="1.1"
   id="svg47190"
   inkscape:version="1.1.1 (3bf5ae0d25, 2021-09-20)"
   sodipodi:docname="B3rd.svg"
   xmlns:inkscape="http://www.inkscape.org/namespaces/inkscape"
   xmlns:sodipodi="http://sodipodi.sourceforge.net/DTD/sodipodi-0.dtd"
   xmlns="http://www.w3.org/2000/svg"
   xmlns:svg="http://www.w3.org/2000/svg">
  <sodipodi:namedview
     id="namedview47192"
     pagecolor="#ffffff"
     bordercolor="#666666"
     borderopacity="1.0"
     inkscape:pageshadow="2"
     inkscape:pageopacity="0.0"
     inkscape:pagecheckerboard="true"
     inkscape:document-units="mm"
     showgrid="false"
     inkscape:zoom="22.627417"
     inkscape:cx="12.396466"
     inkscape:cy="15.534252"
     inkscape:window-width="1920"
     inkscape:window-height="1017"
     inkscape:window-x="-8"
     inkscape:window-y="-8"
     inkscape:window-maximized="1"
     inkscape:current-layer="g4299"
     inkscape:snap-bbox="true"
     inkscape:snap-bbox-midpoints="true"
     inkscape:snap-page="true" />
  <defs
     id="defs47187">
    <clipPath
       clipPathUnits="userSpaceOnUse"
       id="clipPath63680-8">
      <path
         d="M 0,0 H 595.276 V 841.89 H 0 Z"
         id="path63678-4" />
    </clipPath>
  </defs>
  <g
     inkscape:label="Layer 1"
     inkscape:groupmode="layer"
     id="layer1"
     transform="translate(-86.473426,-76.723219)">
    <g
       inkscape:label="Capa 1"
       id="layer1-5"
       transform="matrix(0.01238547,0,0,0.01238547,86.37603,76.630162)">
      <g
         id="g4299"
         transform="translate(1.9492421e-6)">
        <path
           id="path1225"
           style="fill:#ffffff;stroke:#ffffff;stroke-width:0.0472441;stroke-linejoin:round;paint-order:stroke fill markers;stop-color:#000000"
           transform="matrix(21.362397,0,0,21.362397,7.8637287,7.5134008)"
           d="m 15.5,1.0898438 c -6.12e-4,5.61e-5 -0.692851,0.1911593 -0.693359,0.1914062 -5.09e-4,2.469e-4 -0.591391,0.4390169 -0.591797,0.4394531 -5.96e-4,6.408e-4 -0.162213,0.1975965 -0.183594,0.2285157 -0.02138,0.030919 -0.0318,0.046261 -0.04102,0.060547 -0.01842,0.028573 -0.02763,0.045825 -0.03906,0.064453 -0.02287,0.037255 -0.04644,0.074452 -0.07422,0.1210937 -0.05556,0.093283 -0.129519,0.219859 -0.222656,0.3789063 C 13.468022,2.8923133 13.206761,3.3427119 12.886719,3.8945312 12.246635,4.99817 11.374936,6.506827 10.423828,8.1582031 8.5235898,11.457521 5.4383197,16.807913 3.5703125,20.046875 c -0.9347946,1.620852 -1.7836096,3.098411 -2.4003906,4.173828 -0.30839055,0.537709 -0.55995196,0.974882 -0.73437502,1.28125 -0.0872115,0.153184 -0.15402955,0.273932 -0.203125,0.361328 -0.0245477,0.0437 -0.0440127,0.07756 -0.0625,0.111328 -0.009244,0.01688 -0.0180928,0.03155 -0.0332031,0.06055 -0.007555,0.0145 -0.0149242,0.0297 -0.0351563,0.07227 -0.010116,0.02128 -0.02269745,0.0467 -0.04882813,0.111328 -0.01306533,0.03232 -0.05659405,0.154147 -0.05664062,0.154297 -4.657e-5,1.49e-4 -0.08984375,0.595634 -0.08984375,0.595703 0,6.9e-5 1.31817,1.880791 1.3183594,1.880859 1.894e-4,6.9e-5 0.2681095,0.07735 0.3261718,0.08789 0.1161247,0.02108 0.1482662,0.02059 0.1796876,0.02344 0.062843,0.0057 0.082418,0.0069 0.1035156,0.0078 0.042195,0.0019 0.068338,0.0012 0.099609,0.002 0.062543,0.0014 0.1362024,0.0028 0.2324218,0.0039 0.1924388,0.0021 0.4676296,0.004 0.8203125,0.0059 0.7053659,0.0038 1.7197448,0.007 2.9726563,0.0098 C 8.4648073,28.995847 11.919119,29 15.71875,29 c 3.799568,0 7.254092,-0.0025 9.759766,-0.0078 1.252836,-0.0026 2.26756,-0.0062 2.972656,-0.0098 0.352548,-0.0018 0.626449,-0.0039 0.818359,-0.0059 0.09596,-9.98e-4 0.170929,-0.0026 0.232422,-0.0039 0.03075,-6.46e-4 0.05559,-2.61e-4 0.0957,-0.002 0.02006,-8.46e-4 0.03887,-8.94e-4 0.09766,-0.0059 0.02939,-0.0025 0.05916,-0.0031 0.167969,-0.02148 0.05441,-0.0092 0.308405,-0.07806 0.308594,-0.07813 1.89e-4,-6.4e-5 1.359375,-1.894467 1.359375,-1.894531 0,-6.4e-5 -0.09566,-0.611184 -0.0957,-0.611328 -4.6e-5,-1.44e-4 -0.04377,-0.121143 -0.05664,-0.152344 -0.02574,-0.0624 -0.03712,-0.08518 -0.04687,-0.105469 -0.01952,-0.04057 -0.02791,-0.05454 -0.03516,-0.06836 -0.0145,-0.02763 -0.02223,-0.04218 -0.03125,-0.05859 -0.01805,-0.03283 -0.03623,-0.06814 -0.06055,-0.111328 -0.04864,-0.08638 -0.116421,-0.205387 -0.203125,-0.357422 -0.173407,-0.304069 -0.421751,-0.737327 -0.728515,-1.271484 -0.613529,-1.068314 -1.458574,-2.535904 -2.388672,-4.146484 -0.928723,-1.608198 -1.777477,-3.082172 -2.396485,-4.160157 -0.309504,-0.538992 -0.561589,-0.980564 -0.736328,-1.287109 -0.08737,-0.153272 -0.156617,-0.272396 -0.201172,-0.351563 -0.02228,-0.03958 -0.03959,-0.07075 -0.04687,-0.08398 -7.24e-4,-2.09e-4 -0.01209,-0.02436 -0.01367,-0.02734 -0.01217,-0.0229 -0.02177,-0.03945 -0.03125,-0.05664 -0.01895,-0.03439 -0.0382,-0.0706 -0.06445,-0.117188 -0.0525,-0.09316 -0.125233,-0.22037 -0.216797,-0.380859 C 23.994606,13.302069 23.734848,12.847921 23.416016,12.292969 22.77835,11.183064 21.905631,9.6687542 20.951172,8.015625 19.650581,5.7629963 18.778055,4.2638339 18.212891,3.3164062 17.930308,2.8426924 17.727093,2.5111114 17.566406,2.2636719 17.486063,2.1399521 17.424547,2.0447452 17.318359,1.9082031 c -0.05309,-0.068271 -0.094,-0.1376532 -0.285156,-0.3085937 -0.09558,-0.08547 -0.20402,-0.2154554 -0.601562,-0.375 C 16.332255,1.1847232 16.05931,1.1153704 16.058594,1.1152344 16.057878,1.1150983 15.500612,1.0897876 15.5,1.0898438 Z" />
        <path
           sodipodi:type="star"
           style="fill:#000000;stroke-width:0.854173;stroke-linejoin:round;paint-order:markers fill stroke;stop-color:#000000"
           id="path27281"
           inkscape:flatsided="true"
           sodipodi:sides="3"
           sodipodi:cx="9.0156116"
           sodipodi:cy="5.9662137"
           sodipodi:r1="4.1610637"
           sodipodi:r2="3.3974338"
           sodipodi:arg1="0.52359878"
           sodipodi:arg2="1.5707963"
           inkscape:rounded="0"
           inkscape:randomized="0"
           d="M 12.619198,8.0467456 5.4120248,8.0467455 9.0156117,1.80515 Z"
           transform="matrix(41.011435,0,0,41.011435,-25.941932,-1.4503312)"
           inkscape:transform-center-y="-0.19394144" />
        <path
           sodipodi:type="star"
           style="fill:#ff0000;stroke-width:0.854173;stroke-linejoin:round;paint-order:markers fill stroke;stop-color:#000000"
           id="path27281-4"
           inkscape:flatsided="true"
           sodipodi:sides="3"
           sodipodi:cx="9.0156116"
           sodipodi:cy="5.9662137"
           sodipodi:r1="4.1610637"
           sodipodi:r2="3.3974338"
           sodipodi:arg1="0.52359878"
           sodipodi:arg2="1.5707963"
           inkscape:rounded="0"
           inkscape:randomized="0"
           transform="matrix(41.011435,0,0,-41.011435,-25.451461,658.32534)"
           inkscape:transform-center-y="0.1939415"
           d="M 12.619198,8.0467456 5.4120248,8.0467455 9.0156117,1.80515 Z" />
        <path
           sodipodi:type="star"
           style="fill:#000000;stroke-width:0.854173;stroke-linejoin:round;paint-order:markers fill stroke;stop-color:#000000"
           id="path27281-7"
           inkscape:flatsided="true"
           sodipodi:sides="3"
           sodipodi:cx="9.0156116"
           sodipodi:cy="5.9662137"
           sodipodi:r1="4.1610637"
           sodipodi:r2="3.3974338"
           sodipodi:arg1="0.52359878"
           sodipodi:arg2="1.5707963"
           inkscape:rounded="0"
           inkscape:randomized="0"
           transform="matrix(41.011435,0,0,41.011435,120.97987,254.28497)"
           inkscape:transform-center-y="-0.19394144"
           d="M 12.619198,8.0467456 5.4120248,8.0467455 9.0156117,1.80515 Z" />
        <path
           sodipodi:type="star"
           style="fill:#000000;stroke-width:0.854173;stroke-linejoin:round;paint-order:markers fill stroke;stop-color:#000000"
           id="path27281-0"
           inkscape:flatsided="true"
           sodipodi:sides="3"
           sodipodi:cx="9.0156116"
           sodipodi:cy="5.9662137"
           sodipodi:r1="4.1610637"
           sodipodi:r2="3.3974338"
           sodipodi:arg1="0.52359878"
           sodipodi:arg2="1.5707963"
           inkscape:rounded="0"
           inkscape:randomized="0"
           transform="matrix(41.011435,0,0,41.011435,-173.23973,254.28497)"
           inkscape:transform-center-y="-0.19394144"
           d="M 12.619198,8.0467456 5.4120248,8.0467455 9.0156117,1.80515 Z" />
      </g>
    </g>
  </g>
</svg>
