<?xml version="1.0" encoding="UTF-8" standalone="no"?>
<!-- Created with Inkscape (http://www.inkscape.org/) -->

<svg
   id="svg1461"
   width="9.6693621mm"
   height="8.7014141mm"
   viewBox="0 0 9.6693621 8.7014133"
   version="1.1"
   sodipodi:docname="Card.svg"
   inkscape:version="1.1.1 (3bf5ae0d25, 2021-09-20)"
   xmlns:inkscape="http://www.inkscape.org/namespaces/inkscape"
   xmlns:sodipodi="http://sodipodi.sourceforge.net/DTD/sodipodi-0.dtd"
   xmlns="http://www.w3.org/2000/svg"
   xmlns:svg="http://www.w3.org/2000/svg">
  <sodipodi:namedview
     id="namedview5"
     inkscape:document-units="mm"
     inkscape:zoom="4.7255359"
     inkscape:cx="33.964402"
     inkscape:cy="17.035105"
     inkscape:window-width="1920"
     inkscape:window-height="1017"
     inkscape:window-x="-8"
     inkscape:window-y="-8"
     inkscape:window-maximized="1"
     inkscape:current-layer="svg1461"
     pagecolor="#ffffff"
     bordercolor="#666666"
     borderopacity="1.0"
     inkscape:pageshadow="2"
     inkscape:pageopacity="0.0"
     inkscape:pagecheckerboard="0"
     showgrid="false" />
  <defs
     id="defs1458" />
  <path
     id="path866-8"
     d="M 2.5483527,0 2.4321853,0.0570166 c -0.063976,0.03142 -0.1481406,0.09432 -0.186905,0.139645 -0.117561,0.1374099 -0.1338515,0.2170081 -0.1338515,0.6604169 v 0.3924083 l 0.172879,-0.085678 0.1725746,-0.085677 v -0.260386 c 0,-0.2822286 0.021601,-0.3712983 0.1039716,-0.4289965 0.043036,-0.030191 0.2458262,-0.033234 2.2398068,-0.033234 h 2.1925469 l 0.06891,0.069213 0.06921,0.069213 v 2.0852219 2.0852217 l 0.172879,0.3454536 h -9.44e-4 c 0.09507,0.189894 0.177001,0.3451485 0.181721,0.3451485 0.0053,0 0.0078,-1.104157 0.0055,-2.4538474 l -0.0037,-2.4541532 -0.04665,-0.1015322 C 7.3810207,0.2168951 7.2912867,0.1228602 7.1618187,0.0539676 L 7.0599817,2e-7 H 4.8043195 Z M 4.2125058,0.6098032 2.2446708,1.5851834 C 0.11773496,2.6395237 0.12683546,2.6342741 0.03931766,2.8377189 0.00202836,2.924934 -0.00482174,2.9701095 0.00273056,3.0974956 l 0.00854,0.1542798 1.30314964,2.611482 c 1.1975176,2.3998582 1.3109715,2.6184532 1.3976691,2.6977692 0.052134,0.0477 0.1364582,0.0997 0.1887341,0.116473 0.058902,0.01887 0.1443225,0.02746 0.2265419,0.02256 0.1276687,-0.0076 0.1986741,-0.04083 2.1160169,-0.994894 2.1373495,-1.0635015 2.0634505,-1.021194 2.1596175,-1.231193 0.03074,-0.067226 0.04145,-0.1313669 0.04086,-0.2347739 L 7.4426177,6.0968116 6.1422131,3.4841101 C 5.2250939,1.6414096 4.8199875,0.8472161 4.7671216,0.7887804 4.6643165,0.6749961 4.5144996,0.6115341 4.3457478,0.610413 Z M 4.356724,0.9653184 c 0.049278,0 0.089019,0.016927 0.1304984,0.055797 0.040646,0.03805 0.4663623,0.8761272 1.3336391,2.6255075 1.1235882,2.2663683 1.2724512,2.5775121 1.2625982,2.6386182 -0.0061,0.038104 -0.02254,0.083086 -0.03659,0.1000079 -0.01404,0.016916 -0.8903457,0.4628157 -1.9471022,0.9909306 -1.0567446,0.528112 -1.9447073,0.966032 -1.9733233,0.972941 -0.03156,0.0077 -0.079361,-0.0013 -0.1219602,-0.02256 C 2.9389652,8.2938526 2.8511182,8.1249896 1.6370033,5.7013551 0.48794986,3.4075815 0.34065186,3.1032471 0.35062316,3.0416991 0.35693646,3.0034717 0.37843086,2.9539088 0.39849156,2.9316296 0.41852276,2.9093504 1.3014934,2.4578239 2.3605332,1.9281983 3.7963424,1.2101592 4.3039761,0.965319 4.356724,0.9653184 Z m 3.4859407,0.1219607 v 0.198186 0.1984909 l 0.691821,0.3454535 c 0.380605,0.189887 0.71013,0.3642812 0.732374,0.3878349 0.103625,0.1097378 0.12328,0.061862 -0.68054,1.670251 l -0.743655,1.4882243 0.0012,0.3911891 9.44e-4,0.3908838 0.907387,-1.812335 C 9.6250077,2.6018605 9.6597257,2.5282269 9.6678097,2.4014048 9.6783657,2.235627 9.6351627,2.098826 9.5360917,1.98308 9.4729497,1.9093228 9.3521567,1.8422599 8.6527877,1.4924933 Z M 4.1207305,1.5912814 A 0.47075887,0.47075887 0 0 0 3.8819922,1.639456 L 1.2330073,2.9554115 A 0.47075887,0.47075887 0 0 0 1.0207958,3.5862527 l 1.5982944,3.2179311 a 0.43513713,0.43513713 0 0 0 0.3518559,0.2399578 l 1.7495256,0.152146 A 0.46479202,0.46479202 0 0 0 5.1540418,6.9810266 L 6.0711859,5.5245118 a 0.49731877,0.49731877 0 0 0 0.024698,-0.486013 L 4.5131384,1.8516674 A 0.47075887,0.47075887 0 0 0 4.1207305,1.5912814 Z m -0.014025,0.2774605 a 0.11076679,0.11076679 0 0 1 0.1152528,0.060371 L 5.829095,5.1647282 A 0.19731377,0.19731377 0 0 1 5.819335,5.3577311 L 4.9058508,6.8081475 A 0.18158935,0.18158935 0 0 1 4.7363255,6.8923004 L 3.0285728,6.7438135 A 0.19731377,0.19731377 0 0 1 2.8691091,6.6349635 L 1.2619732,3.3993478 a 0.11076679,0.11076679 0 0 1 0.050004,-0.148487 L 4.0734704,1.8791085 a 0.11076679,0.11076679 0 0 1 0.033235,-0.010367 z M 2.8499016,2.8611965 a 0.03044672,0.03044672 0 0 0 -0.00915,0.00271 0.03044672,0.03044672 0 0 0 -0.016768,0.031407 l 0.064639,0.4570477 a 0.01445571,0.01445571 0 0 1 -0.00793,0.014939 l -0.416186,0.2064223 a 0.03044672,0.03044672 0 0 0 0.00823,0.057321 l 0.4521688,0.079275 a 0.01772846,0.01772846 0 0 1 0.014633,0.014638 l 0.067383,0.4573527 a 0.03044672,0.03044672 0 0 0 0.057014,0.00976 L 3.2764517,3.7914265 a 0.02522288,0.02522288 0 0 1 0.026527,-0.01311 l 0.4503397,0.07653 a 0.03044672,0.03044672 0 0 0 0.026828,-0.051226 l -0.32349,-0.3344762 a 0.00909899,0.00909899 0 0 1 -0.00183,-0.010674 l 0.2170898,-0.414971 a 0.03044672,0.03044672 0 0 0 -0.040245,-0.041467 l -0.4174107,0.203979 a 0.01017527,0.01017527 0 0 1 -0.011588,-0.00183 L 2.8755138,2.8697051 a 0.03044672,0.03044672 0 0 0 -0.016161,-0.00854 0.03044672,0.03044672 0 0 0 -3.121e-4,0 0.03044672,0.03044672 0 0 0 -0.00915,0 z m 1.7040952,0.439973 a 0.01600103,0.01600103 0 0 0 -0.014332,0.00702 L 3.7042349,4.5640744 a 0.04804281,0.04804281 0 0 1 -0.042989,0.021341 l -1.5052989,-0.0933 a 0.01600103,0.01600103 0 0 0 -0.015246,0.02317 l 0.1622079,0.3262448 a 0.04792438,0.04792438 0 0 0 0.039944,0.026527 l 1.505299,0.0933 a 0.0480417,0.0480417 0 0 0 0.042989,-0.021341 l 0.8351259,-1.255584 a 0.04792438,0.04792438 0 0 0 0.00307,-0.047868 L 4.5671052,3.3100157 a 0.01600103,0.01600103 0 0 0 -0.01311,-0.00884 z m 0.3280738,0.6610267 a 0.01600103,0.01600103 0 0 0 -0.014332,0.00702 L 4.0326138,5.2251011 a 0.04804282,0.04804282 0 0 1 -0.042989,0.021341 l -1.5052989,-0.0933 a 0.01600103,0.01600103 0 0 0 -0.015246,0.022869 l 0.1619028,0.3265501 a 0.04792438,0.04792438 0 0 0 0.039944,0.026527 l 1.505604,0.0933 a 0.0480417,0.0480417 0 0 0 0.042688,-0.021341 L 5.0546493,4.3451578 a 0.04792438,0.04792438 0 0 0 0.00307,-0.047868 L 4.8954853,3.9710411 a 0.01600103,0.01600103 0 0 0 -0.013417,-0.00884 z m 0.3326478,0.6692592 a 0.01600103,0.01600103 0 0 0 -0.014332,0.00732 L 4.3649565,5.8943562 a 0.04804282,0.04804282 0 0 1 -0.042688,0.021347 l -1.505604,-0.0933 a 0.01600103,0.01600103 0 0 0 -0.015246,0.02317 L 2.9636257,6.172123 a 0.04792438,0.04792438 0 0 0 0.039944,0.026527 l 1.5052995,0.0933 A 0.0480417,0.0480417 0 0 0 4.5518582,6.270609 L 5.3869837,5.0147192 a 0.04792438,0.04792438 0 0 0 0.00307,-0.047868 L 5.2281319,4.6402975 a 0.01600103,0.01600103 0 0 0 -0.013417,-0.00884 z m 2.1962063,2.3943922 -0.261301,0.129583 -0.261301,0.129583 -0.06952,0.137511 c -0.112723,0.223634 -0.1934212,0.263519 -0.368321,0.181416 l -0.1015325,-0.04787 -0.1881239,0.093 c -0.1033834,0.05111 -0.1881246,0.09839 -0.1881246,0.104886 0,0.0065 0.1067424,0.06382 0.2372137,0.127449 0.2031087,0.09906 0.2538516,0.115557 0.3521609,0.115557 0.2120944,0 0.3922674,-0.09632 0.5006494,-0.268008 0.02776,-0.04397 0.117205,-0.220141 0.1991,-0.391494 z"
     style="stroke-width:0.590021" />
</svg>
