<?xml version="1.0" encoding="UTF-8" standalone="no"?>
<!-- Created with Inkscape (http://www.inkscape.org/) -->

<svg
   width="9.6481552mm"
   height="5.2916665mm"
   viewBox="0 0 9.6481553 5.2916664"
   version="1.1"
   id="svg1"
   inkscape:version="1.3.2 (091e20e, 2023-11-25, custom)"
   sodipodi:docname="edit.svg"
   xmlns:inkscape="http://www.inkscape.org/namespaces/inkscape"
   xmlns:sodipodi="http://sodipodi.sourceforge.net/DTD/sodipodi-0.dtd"
   xmlns="http://www.w3.org/2000/svg"
   xmlns:svg="http://www.w3.org/2000/svg">
  <sodipodi:namedview
     id="namedview1"
     pagecolor="#ffffff"
     bordercolor="#666666"
     borderopacity="1.0"
     inkscape:showpageshadow="2"
     inkscape:pageopacity="0.0"
     inkscape:pagecheckerboard="0"
     inkscape:deskcolor="#d1d1d1"
     inkscape:document-units="mm"
     inkscape:zoom="13.312907"
     inkscape:cx="26.327834"
     inkscape:cy="13.558271"
     inkscape:window-width="3840"
     inkscape:window-height="2066"
     inkscape:window-x="2869"
     inkscape:window-y="-11"
     inkscape:window-maximized="1"
     inkscape:current-layer="layer1"
     showgrid="false" />
  <defs
     id="defs1" />
  <g
     inkscape:label="Layer 1"
     inkscape:groupmode="layer"
     id="layer1"
     transform="translate(-120.83512,-87.951666)">
    <path
       d="m 130.11647,88.12319 c -0.2287,-0.228698 -0.59838,-0.228698 -0.82707,0 l -0.31433,0.313286 1.02235,1.022358 0.31433,-0.314331 c 0.2287,-0.228699 0.2287,-0.598376 0,-0.827075 z m -3.12451,2.297433 c -0.0637,0.0637 -0.11278,0.142024 -0.14098,0.2287 l -0.30911,0.927328 c -0.0303,0.08981 -0.006,0.189016 0.0606,0.256894 0.0668,0.06788 0.16604,0.09085 0.2569,0.06057 l 0.92733,-0.30911 c 0.0856,-0.02819 0.16395,-0.07728 0.2287,-0.140978 l 1.74709,-1.748138 -1.0234,-1.023403 z m -5.15432,-1.855699 c -0.55348,0 -1.00252,0.449043 -1.00252,1.002516 v 2.673379 c 0,0.553471 0.44904,1.002514 1.00252,1.002514 h 7.02986 c 0.55348,0 1.00252,-0.449043 1.00252,-1.002514 v -1.002518 c 0,-0.184839 -0.14933,-0.334172 -0.33417,-0.334172 -0.18484,0 -0.33417,0.149333 -0.33417,0.334172 v 1.002518 c 0,0.184838 -0.14934,0.334171 -0.33418,0.334171 h -7.02986 c -0.18484,0 -0.33418,-0.149333 -0.33418,-0.334171 V 89.56744 c 0,-0.184839 0.14934,-0.334172 0.33418,-0.334172 h 5.359 c 0.18484,0 0.33418,-0.149333 0.33418,-0.334172 0,-0.184839 -0.14934,-0.334172 -0.33418,-0.334172 z"
       style="stroke-width:0.0104429"
       id="path1"
       sodipodi:nodetypes="cccccccccccccccccsssssssssssssssssss" />
    <path
       id="path2"
       style="color:#000000;fill:#000000;stroke-linecap:round;-inkscape-stroke:none"
       d="M 123.38949 89.342796 A 0.3023755 0.3023755 0 0 0 123.17555 89.43168 L 121.94513 90.660028 A 0.3023755 0.3023755 0 0 0 121.94513 91.087909 L 123.17555 92.316258 A 0.3023755 0.3023755 0 0 0 123.60343 92.316258 A 0.3023755 0.3023755 0 0 0 123.60343 91.888894 L 122.58747 90.873969 L 123.60343 89.85956 A 0.3023755 0.3023755 0 0 0 123.60343 89.43168 A 0.3023755 0.3023755 0 0 0 123.38949 89.342796 z M 125.65033 89.342796 A 0.3023755 0.3023755 0 0 0 125.41624 89.486457 L 123.8985 91.943154 A 0.3023755 0.3023755 0 0 0 123.99617 92.359149 A 0.3023755 0.3023755 0 0 0 124.41216 92.261481 L 125.9299 89.804783 A 0.3023755 0.3023755 0 0 0 125.83223 89.386721 A 0.3023755 0.3023755 0 0 0 125.65033 89.342796 z " />
  </g>
</svg>
