<?xml version="1.0" encoding="UTF-8" standalone="no"?>
<!-- Created with Inkscape (http://www.inkscape.org/) -->

<svg
   width="20.752447mm"
   height="8.7146215mm"
   viewBox="0 0 20.752447 8.7146215"
   version="1.1"
   id="svg1"
   xml:space="preserve"
   sodipodi:docname="inkporter-svg-zm3pj5uy.svg"
   xmlns:inkscape="http://www.inkscape.org/namespaces/inkscape"
   xmlns:sodipodi="http://sodipodi.sourceforge.net/DTD/sodipodi-0.dtd"
   xmlns="http://www.w3.org/2000/svg"
   xmlns:svg="http://www.w3.org/2000/svg"><sodipodi:namedview
     id="namedview1"
     pagecolor="#ffffff"
     bordercolor="#666666"
     borderopacity="1.0"
     inkscape:showpageshadow="2"
     inkscape:pageopacity="0.0"
     inkscape:pagecheckerboard="0"
     inkscape:deskcolor="#d1d1d1"
     inkscape:document-units="mm"
     inkscape:zoom="0.36391344"
     inkscape:cx="660.87144"
     inkscape:cy="1029.0909"
     inkscape:window-width="1920"
     inkscape:window-height="1017"
     inkscape:window-x="-8"
     inkscape:window-y="-8"
     inkscape:window-maximized="1"
     inkscape:current-layer="layer1" /><defs
     id="defs1" /><g
     inkscape:label="Layer 1"
     inkscape:groupmode="layer"
     id="layer1"
     transform="translate(-118.26874,-258.7625)"><path
       id="F-Fokker"
       d="m 137.77781,258.7625 c -0.23447,-3.1e-4 -0.52159,0.049 -0.52159,0.10673 0,0.008 -0.006,0.0142 -0.0142,0.0129 -0.0283,-0.004 -0.0986,0.0257 -0.0986,0.0419 0,0.009 -0.0124,0.0166 -0.0276,0.0166 -0.22858,0 -1.78773,2.55478 -1.96087,2.55478 -0.0118,0 -0.0216,0.007 -0.0216,0.0167 0,0.009 -0.0232,0.0226 -0.0515,0.0297 -0.0283,0.007 -0.0565,0.0211 -0.0627,0.0311 -0.0469,0.0759 -4.09749,-0.1276 -4.27509,-0.13176 -0.24289,-0.005 -0.26612,4.7e-4 -0.37941,0.10332 -0.13381,0.12127 -0.17331,0.12834 -0.73534,0.13154 l -0.51659,0.003 c -0.22919,-0.23991 -0.45493,-0.48305 -0.68184,-0.7251 -0.0949,-0.1006 -0.11771,-0.13651 -0.1155,-0.18173 0.001,-0.0309 0.002,-0.0757 9.4e-4,-0.0994 l -0.002,-0.043 -0.82563,0.005 c -0.62946,0.004 -0.83122,0.011 -0.84911,0.029 -0.0129,0.013 -0.0357,0.0235 -0.0507,0.0235 -0.015,0 -0.0634,0.0296 -0.10743,0.0658 -0.0442,0.0362 -0.0894,0.0658 -0.10049,0.0658 -0.0111,0 -0.0183,0.006 -0.0156,0.015 0.002,0.008 -0.0292,0.0441 -0.0704,0.0795 -0.0413,0.0354 -0.0943,0.0841 -0.11766,0.10824 -0.22469,0.19108 -0.35905,-0.40335 -0.40311,-0.57853 l 0.41067,-1.4e-4 c 0.46553,-1.4e-4 1.30808,-0.02 1.32072,-0.0312 0.0448,-0.0393 -0.0159,-0.10196 -0.15866,-0.16353 -1.26862,-0.55193 -3.01647,-0.74585 -4.29845,-0.27481 -0.0122,2e-5 -0.0462,0.0208 -0.0756,0.0461 -0.0294,0.0253 -0.0601,0.0485 -0.0682,0.0516 -0.18555,0.0714 0.0932,0.2855 0.4034,0.30977 0.17085,0.0133 0.21096,0.0335 0.20109,0.10069 -0.004,0.0305 -0.0138,0.0555 -0.0208,0.0555 -0.10813,0.14612 -0.14847,0.41872 -0.24783,0.58234 l -0.69887,-2e-4 c -0.69423,-1.9e-4 -0.97124,0.0222 -0.97124,0.0788 0,0.008 -0.015,0.0154 -0.0333,0.0154 -0.0182,0 -0.0643,0.0211 -0.10238,0.047 -0.0912,0.0619 -0.0899,0.0627 -0.0899,-0.056 0,-0.13418 0.0722,-0.12528 -0.94865,-0.11675 -1.03902,0.008 -1.07521,0.0139 -1.2407,0.18195 -0.0254,0.0257 -0.046,0.058 -0.046,0.0715 0,0.0136 -0.007,0.0204 -0.0156,0.0151 -0.008,-0.005 -0.0164,4.6e-4 -0.0172,0.0129 -9.2e-4,0.0125 -0.0118,0.0988 -0.0242,0.19175 -0.014,0.10509 -0.0191,0.29124 -0.0132,0.49197 0.0105,0.34403 0.0105,0.34397 -0.0815,0.34397 -0.0247,0 -0.0361,-0.0132 -0.0363,-0.0423 -4.6e-4,-0.0876 -0.017,-0.0929 -0.28955,-0.0945 l -0.25713,-10e-4 -0.0486,0.0525 c -0.0638,0.0687 -0.073,0.14914 -0.0227,0.1961 0.0377,0.0351 0.0378,0.0365 0.003,0.0614 -0.025,0.0178 -0.0346,0.0453 -0.0321,0.0913 0.005,0.0933 0.005,0.0937 0.0415,0.0961 0.0297,0.002 0.0299,0.003 10e-4,0.0105 -0.034,0.009 -0.0573,0.0856 -0.0447,0.14698 0.004,0.0207 0.008,0.0444 0.009,0.0528 0.002,0.0239 0.0636,0.0327 0.0636,0.0327 0.0787,0.0919 0.57651,0.0433 0.57651,-0.0562 0,-0.0509 0.003,-0.0526 0.0475,-0.0322 0.0621,0.0284 0.0616,0.0249 0.0745,0.5383 0.0118,0.46434 0.0216,0.58234 0.0491,0.58234 0.009,0 0.0167,0.0114 0.0167,0.0254 0,0.0384 0.12181,0.21965 0.50202,0.24282 0.14968,0.009 0.17911,0.0167 0.21603,0.0549 0.1159,0.12014 0.32088,0.11607 0.43129,-0.008 0.0335,-0.0376 0.29711,-0.0674 0.29711,-0.0335 0,0.0439 -0.0269,0.0757 -0.064,0.0757 -0.0651,0 -0.0862,0.0371 -0.0862,0.15183 0,0.11833 0.0144,0.13116 0.13461,0.11956 0.22426,-0.0207 0.41777,-0.0712 0.55047,-0.26195 0.0648,-0.0899 0.0828,-0.10332 0.13754,-0.10332 0.0784,0 0.11664,-0.0365 0.11664,-0.11139 0,-0.0673 0.0153,-0.0717 0.0708,-0.0201 0.10609,0.19867 0.15142,0.22457 0.30889,0.38293 0.0743,0.116 0.70494,-0.002 0.77257,-0.14448 0.0404,-0.0852 0.43855,-0.13843 0.48519,-0.0649 0.0298,0.047 0.0186,0.7037 -0.0126,0.73485 -0.0155,0.0155 -0.0282,0.0447 -0.0282,0.0648 0,0.0201 0.0127,0.0472 0.0282,0.06 0.0217,0.0181 0.0282,0.068 0.0282,0.21798 v 0.19457 l -0.0505,0.0127 c -0.0277,0.007 -0.0721,0.0239 -0.0986,0.0379 -0.0265,0.0138 -0.0559,0.0252 -0.0652,0.0252 -0.009,6e-5 -0.0447,0.0213 -0.0786,0.0471 -0.0339,0.0258 -0.083,0.0458 -0.0754,0.047 l 0.0118,10e-4 c -0.23686,0.17775 -0.37664,0.4563 -0.37757,0.75244 -1e-5,0.52161 0.42282,0.94445 0.94442,0.94446 0.52162,0 0.94448,-0.42284 0.94448,-0.94446 -4e-5,-0.20432 -0.0663,-0.40312 -0.18896,-0.56656 l 0.002,1.9e-4 c 9.2e-4,1.4e-4 -0.0121,-0.0127 -0.0131,-0.0145 -0.0375,-0.048 -0.0795,-0.0924 -0.12556,-0.13231 -0.051,-0.0525 -0.0389,-0.06 0.0208,-0.12236 0.28512,-0.30116 0.54555,-0.62634 0.82937,-0.92851 0.0235,-0.0421 0.11513,-0.12275 0.14666,-0.12915 0.23014,-0.0466 0.46532,-0.068 0.66573,-0.19464 0.0815,-0.0551 0.0897,-0.0565 0.32221,-0.0586 0.13121,-10e-4 0.35906,-0.007 0.50631,-0.0142 0.31342,0.0189 0.61046,-0.0209 0.93453,-0.0263 3.19025,-0.053 6.40256,-0.49321 9.55694,-0.86845 l 0.0893,-0.0137 v 0.16071 c 0,0.17611 0.007,0.18889 0.11026,0.19342 0.0448,0.002 0.0763,0.0186 0.10742,0.0565 0.0623,0.0752 0.12585,0.14856 0.17637,0.23258 0.28355,0.27965 -0.28134,0.24717 -0.28134,0.17105 0,-0.1215 -0.10479,-0.12405 -0.12416,-0.003 -0.007,0.0458 -0.0223,0.0758 -0.038,0.0758 -0.0335,0 -0.0333,0.0455 3e-4,0.0735 0.0678,0.0562 0.82713,0.0172 0.96138,-0.0494 0.0199,-0.009 0.0701,-0.0341 0.11136,-0.0539 0.0918,-0.0438 0.11542,-0.12496 0.0432,-0.14834 -0.0612,-0.0198 -0.11673,-0.0228 -0.1283,-0.006 -0.14225,0.12709 -0.38651,-0.29544 -0.46443,-0.36943 -0.0888,-0.10101 -0.0252,-0.2776 -0.0423,-0.40003 l 0.0798,-0.0105 c 0.57039,-0.0772 1.28217,-0.19927 1.60144,-0.73471 -0.0157,-1.61927 -0.26835,-2.32274 -0.0923,-2.35912 0.0842,-0.0174 0.10175,-0.0328 0.10175,-0.0904 0,-0.0612 -0.0305,-0.0964 -0.0836,-0.0968 -0.0318,-2e-4 -0.0336,-0.004 -0.0105,-0.0185 0.0211,-0.0136 0.0109,-0.0183 -0.0403,-0.0185 l -0.0684,-2e-4 -0.0134,-0.18786 c -0.0364,-0.50897 -0.34394,-0.89519 -0.56374,-1.00482 -0.0412,-0.0206 -0.0801,-0.0446 -0.0864,-0.0533 -0.006,-0.008 -0.0171,-0.0143 -0.0239,-0.0122 -0.007,0.002 -0.0743,-0.0109 -0.14969,-0.0286 -0.0539,-0.0127 -0.12618,-0.0184 -0.20433,-0.0185 z m -13.08121,1.68094 h 0.70264 l -0.0217,0.0468 c -0.0841,0.16408 -0.18547,0.35189 -0.25529,0.51674 -0.009,0 -0.0229,0.0169 -0.0295,0.0376 -0.0111,0.0351 -0.0284,0.0376 -0.26174,0.0376 -0.25493,-9.3e-4 -0.31504,-0.0331 -0.48879,-0.19725 -0.16016,-0.1333 -0.29108,-0.27131 -0.3032,-0.3196 -0.006,-0.0259 -0.0193,-0.0517 -0.0285,-0.0574 -0.0928,-0.0574 -0.0174,-0.0645 0.68598,-0.0645 z m -1.22868,3.9073 h 0.20665 c 0.11364,0 0.20663,0.007 0.20663,0.0172 0.10028,0.18053 0.32301,0.24923 0.51142,0.27782 l 0.07,0.009 c -0.25927,0.26051 -0.46892,0.55502 -0.7295,0.80677 -0.0932,0.1145 -0.15501,0.17435 -0.19608,0.1852 -0.0142,-0.005 -0.0284,-0.0105 -0.0429,-0.0147 -0.0185,-0.0276 -0.0261,-0.0856 -0.0261,-0.17783 v -0.16459 h 0.0729 c 0.0537,0 0.0752,-0.008 0.0815,-0.0328 0.0154,-0.0593 -0.005,-0.0798 -0.0809,-0.0798 h -0.0735 v -0.41327 z"
       style="fill:#000000" /></g></svg>
