<?xml version="1.0" encoding="UTF-8" standalone="no"?>
<!-- Created with Inkscape (http://www.inkscape.org/) -->

<svg
   width="12.447797mm"
   height="4.4162169mm"
   viewBox="0 0 12.447797 4.4162169"
   version="1.1"
   id="svg1371"
   sodipodi:docname="inkporter-svg-ypflr25w.svg"
   xmlns:inkscape="http://www.inkscape.org/namespaces/inkscape"
   xmlns:sodipodi="http://sodipodi.sourceforge.net/DTD/sodipodi-0.dtd"
   xmlns="http://www.w3.org/2000/svg"
   xmlns:svg="http://www.w3.org/2000/svg">
  <sodipodi:namedview
     id="namedview1373"
     pagecolor="#ffffff"
     bordercolor="#666666"
     borderopacity="1.0"
     inkscape:pageshadow="2"
     inkscape:pageopacity="0.0"
     inkscape:pagecheckerboard="0"
     inkscape:document-units="mm"
     showgrid="false"
     inkscape:zoom="0.45291836"
     inkscape:cx="426.12536"
     inkscape:cy="-367.61592"
     inkscape:window-width="1920"
     inkscape:window-height="1017"
     inkscape:window-x="-8"
     inkscape:window-y="-8"
     inkscape:window-maximized="1"
     inkscape:current-layer="layer1" />
  <defs
     id="defs1368" />
  <g
     inkscape:label="Layer 1"
     inkscape:groupmode="layer"
     id="layer1"
     transform="translate(-187.13784,128.38888)">
    <g
       id="F-Maxim"
       transform="matrix(0.35277777,0,0,-0.35277777,0.81195919,139.5342)">
      <path
         style="fill:#000000;stroke-width:0.0581125"
         d="m 537.85987,747.08283 c 0.20027,0.35394 0.25291,0.77983 0.25364,2.05211 1.7e-4,0.30932 0.0333,0.65454 0.0735,0.76716 0.0634,0.17736 0.0614,0.21878 -0.0155,0.30968 -0.1126,0.13353 -0.13504,0.38756 -0.0313,0.35388 0.0414,-0.0135 0.28604,-0.0593 0.54362,-0.10177 0.2576,-0.0425 0.53533,-0.10611 0.6172,-0.1413 0.12548,-0.054 0.45454,-0.12268 0.67663,-0.1413 0.0322,-0.003 0.15579,-0.0198 0.27477,-0.0379 0.19849,-0.0302 0.21257,-0.0447 0.17083,-0.17458 -0.025,-0.0778 -0.0282,-0.1867 -0.007,-0.24188 0.0502,-0.13107 0.39564,-0.79317 0.51736,-0.99183 0.0522,-0.0854 0.0814,-0.18019 0.0645,-0.21081 -0.0167,-0.0306 -2.1e-4,-0.0722 0.0368,-0.0925 0.0489,-0.0268 0.0488,-0.0497 -6e-4,-0.084 -0.22311,-0.15461 0.34958,-0.40656 1.17749,-0.51803 0.16988,-0.0229 0.45558,-0.076 0.63487,-0.11806 0.36439,-0.0855 0.55154,-0.0497 0.42993,0.082 -0.0794,0.0861 -0.49203,0.20673 -0.84428,0.24691 -0.23316,0.0265 -0.29189,0.1009 -0.12239,0.15487 0.12552,0.04 0.22279,0.62277 0.1924,1.15277 l -0.0207,0.35634 0.15858,-0.0301 c 0.0872,-0.0165 0.26475,-0.0572 0.39451,-0.0903 0.20327,-0.0518 0.21436,-0.0621 0.0801,-0.0741 -0.0857,-0.007 -0.16896,-0.0379 -0.18497,-0.0671 -0.0542,-0.0988 0.11905,-0.15932 0.49178,-0.17179 0.41297,-0.0139 0.5745,-0.0912 0.3407,-0.16307 -0.0811,-0.025 -0.14612,-0.0691 -0.14459,-0.0981 0.005,-0.0878 0.1856,-0.22366 0.33743,-0.25339 0.16342,-0.0321 0.19802,-0.12887 0.0488,-0.1367 -0.0896,-0.005 -0.0901,-0.0138 -0.005,-0.0899 0.10048,-0.0904 1.15717,-0.179 1.31214,-0.10999 0.0693,0.0308 0.0745,0.11124 0.0279,0.4289 -0.0548,0.37343 -0.15009,0.53484 -0.34815,0.58949 -0.0323,0.009 -0.0746,0.0808 -0.0939,0.1597 -0.0926,0.37838 -0.12356,0.4343 -0.27527,0.49584 -0.13494,0.0548 -0.17104,0.0511 -0.21874,-0.0218 -0.0383,-0.0586 -0.0856,-0.0715 -0.14363,-0.0388 -0.0476,0.0267 -0.16011,0.0451 -0.25011,0.0408 -0.22123,-0.0109 -1.2709,0.20099 -1.48645,0.29939 -0.0953,0.0436 -0.25182,0.077 -0.34771,0.0745 -0.0959,-0.003 -0.22773,0.015 -0.29301,0.0391 -0.10141,0.0374 -0.0929,0.0457 0.0586,0.0572 0.22871,0.017 0.39717,0.15281 0.34254,0.27553 -0.0228,0.0515 -0.0182,0.0948 0.0104,0.0963 0.092,0.005 0.24385,-0.16655 0.24992,-0.282 0.008,-0.15465 0.17343,-0.13223 0.22518,0.0306 0.0233,0.0733 0.0367,0.30963 0.0299,0.52531 -0.0107,0.3569 -0.0226,0.39161 -0.12924,0.38601 -0.0642,-0.003 -0.11539,-0.0322 -0.11371,-0.0641 0.004,-0.0753 -0.19967,-0.30146 -0.27493,-0.30542 -0.032,-0.002 -0.0606,0.0296 -0.0637,0.0694 -0.003,0.0399 -0.0614,0.13263 -0.12954,0.20617 -0.0915,0.0988 -0.1399,0.11587 -0.18545,0.0653 -0.0839,-0.0932 -0.34234,0.0443 -0.4782,0.25462 -0.0762,0.11798 -0.19266,0.18221 -0.44758,0.24685 -0.18952,0.048 -0.3826,0.12024 -0.42906,0.16044 -0.0537,0.0464 -0.10361,0.0518 -0.13706,0.0146 -0.0334,-0.0371 -0.16832,-0.0245 -0.37074,0.035 -0.17498,0.0514 -0.42481,0.0878 -0.55516,0.0809 -0.13035,-0.007 -0.22434,0.0106 -0.20886,0.0389 0.0155,0.0283 10e-4,0.13202 -0.0335,0.2305 -0.0447,0.12987 -0.0404,0.22806 0.0157,0.35711 0.0991,0.22777 0.15164,0.26183 0.24612,0.15943 0.17832,-0.19327 0.48087,-0.025 0.46594,0.25913 -0.004,0.0803 0.0185,0.16411 0.0506,0.1863 0.032,0.0221 0.48296,0.0575 1.00212,0.0784 0.55685,0.0222 0.9569,0.0618 0.97558,0.0958 0.0175,0.0319 0.0319,0.32818 0.0322,0.65866 2.7e-4,0.33047 0.009,0.63429 0.0204,0.67515 0.0109,0.0409 -0.009,0.14145 -0.0461,0.2235 -0.0611,0.13846 -0.0844,0.1457 -0.32159,0.1004 -0.19311,-0.0369 -0.2686,-0.0284 -0.30835,0.0346 -0.0298,0.0473 -0.15252,0.0844 -0.28302,0.0856 -0.12671,10e-4 -0.26659,0.033 -0.31086,0.0706 -0.0443,0.0377 -0.24203,0.0634 -0.43945,0.0571 -0.19742,-0.006 -0.42477,-0.005 -0.5052,0.003 -0.0804,0.008 -0.4581,0.005 -0.83926,-0.008 -0.53004,-0.0174 -0.71105,-0.0424 -0.76976,-0.10802 -0.0632,-0.0702 -0.25858,-0.0871 -1.10481,-0.095 -0.56541,-0.005 -1.0672,-0.0116 -1.1151,-0.0137 -0.0478,-0.002 -0.24447,0.0386 -0.43685,0.0908 -0.23346,0.0634 -0.59308,0.0934 -1.08131,0.0902 -0.43188,-0.003 -0.74985,0.0206 -0.77628,0.0571 -0.0555,0.0766 -0.98522,0.0717 -1.12976,-0.006 -0.0595,-0.032 -0.61405,-0.0641 -1.26863,-0.0736 -1.36016,-0.0197 -1.29482,-0.0233 -1.33796,0.0736 -0.10673,0.23978 -0.48551,-0.25629 -0.46685,-0.61147 0.0127,-0.24096 -0.0529,-0.29982 -0.23504,-0.21103 -0.0746,0.0363 -0.16128,0.0563 -0.19265,0.0443 -0.0314,-0.012 -0.12197,-0.0322 -0.20131,-0.045 -0.0793,-0.0132 -0.18263,-0.0404 -0.22955,-0.0615 -0.0469,-0.021 -0.17627,-0.0506 -0.2875,-0.0657 -0.17274,-0.0235 -0.20113,-0.0485 -0.19462,-0.17251 0.007,-0.13694 0.0265,-0.14463 0.34474,-0.1372 0.18538,0.005 0.37554,-0.0207 0.42253,-0.0558 0.047,-0.035 0.18403,-0.0515 0.30453,-0.0367 0.12053,0.0143 0.35624,0.0137 0.52392,-0.004 0.29901,-0.0299 0.30673,-0.0355 0.40493,-0.29442 0.13906,-0.36662 0.28445,-0.87799 0.50743,-1.78467 0.20664,-0.84023 0.4099,-1.52294 0.57762,-1.94018 0.16955,-0.42178 0.16059,-0.47792 -0.10477,-0.65671 -0.13153,-0.0886 -0.29694,-0.21697 -0.36761,-0.28524 -0.0707,-0.0682 -0.3238,-0.24573 -0.56254,-0.39437 -0.23873,-0.14863 -0.45761,-0.32039 -0.48639,-0.38169 -0.0337,-0.0717 -0.12957,-0.12194 -0.26882,-0.14088 -0.22994,-0.0312 -0.242,-0.0645 -0.15043,-0.41431 0.0273,-0.10436 0.0137,-0.16537 -0.0434,-0.19068 l 1.10474,0.0956 c 0.0662,0.16097 0.0718,0.2423 0.0218,0.32483 -0.0809,0.13397 -0.0178,0.20582 0.52654,0.59724 0.69442,0.49946 0.66752,0.48829 0.94788,0.39361 0.13553,-0.0457 0.3012,-0.12881 0.36814,-0.18458 0.1617,-0.13468 0.81378,-0.41342 1.15373,-0.4932 0.52752,-0.12377 1.22224,-0.14819 2.19784,-0.0773 l 0.9809,0.0713 0.0213,-0.72629 c 0.012,-0.39945 0.0437,-0.75538 0.0707,-0.79093 0.0271,-0.0355 0.28921,-0.0708 0.58236,-0.0783 0.51851,-0.0132 0.53521,-0.01 0.61348,0.12855 z m 3.96723,1.01144 c -0.11811,0.0555 -0.2505,0.0851 -0.2942,0.0656 -0.0437,-0.0194 -0.081,-0.005 -0.083,0.0314 -0.002,0.0367 -0.0472,0.0568 -0.10077,0.0446 -0.0719,-0.0164 -0.10217,0.023 -0.11609,0.15139 -0.0335,0.30871 -0.0985,0.48303 -0.31395,0.84208 -0.11629,0.1938 -0.22519,0.36473 -0.24199,0.37985 -0.0168,0.0151 -0.0404,0.11208 -0.0526,0.21546 -0.018,0.15224 -9.2e-4,0.18908 0.0916,0.19394 0.0877,0.005 0.11583,-0.034 0.12287,-0.16811 0.008,-0.14644 0.0319,-0.17292 0.15241,-0.16659 0.0989,0.005 0.13229,0.0321 0.10785,0.0871 -0.0458,0.10285 0.0677,0.18185 0.16243,0.113 0.0401,-0.0292 0.1778,-0.0487 0.30589,-0.0433 0.34715,0.0142 0.57554,-0.0736 0.54713,-0.21142 -0.0128,-0.062 0.0134,-0.16027 0.0591,-0.21823 0.0913,-0.11677 0.0921,-0.22746 0.005,-0.73265 -0.0326,-0.18898 -0.093,-0.35862 -0.13422,-0.37698 -0.10942,-0.0487 -0.0812,-0.24102 0.0391,-0.26578 0.0566,-0.0117 0.0704,-0.026 0.0305,-0.0318 -0.0397,-0.006 -0.16904,0.0349 -0.28716,0.0904 z m 2.41748,1.17858 c -0.002,0.0319 0.0377,0.0602 0.0874,0.0628 0.0497,0.003 0.0758,-0.0222 0.0577,-0.0551 -0.018,-0.033 -0.0574,-0.0612 -0.0874,-0.0628 -0.0301,-0.002 -0.056,0.0232 -0.0577,0.0552 z m -10.30362,-0.48664 c -0.80977,0.10743 -0.82961,0.11196 -1.16699,0.2664 -0.34515,0.158 -0.42917,0.22402 -0.48959,0.38463 -0.0517,0.13718 0.078,0.46548 0.20638,0.52262 0.0497,0.0221 0.29545,0.19211 0.54611,0.37771 0.25064,0.18561 0.54442,0.39354 0.65285,0.46208 0.10841,0.0686 0.32697,0.21572 0.48567,0.32706 0.26977,0.18924 0.29964,0.19769 0.45874,0.12966 0.23912,-0.10226 0.84575,-0.22289 1.80197,-0.35833 l 0.33907,-0.048 -0.10798,-0.19714 c -0.0594,-0.10842 -0.10507,-0.25935 -0.1015,-0.33541 0.004,-0.076 -0.005,-0.19123 -0.0187,-0.25598 -0.0243,-0.11427 -0.0711,-0.1199 -1.6039,-0.19334 -1.81176,-0.0872 -1.95548,-0.10572 -1.94728,-0.26165 0.005,-0.10439 0.0739,-0.10593 1.4711,-0.033 0.80594,0.0421 1.60447,0.0671 1.77451,0.0557 l 0.30916,-0.0207 0.002,-0.3552 0.002,-0.35522 -0.28835,-0.0496 c -0.64215,-0.11053 -1.73856,-0.13988 -2.32445,-0.0621 z m -2.40317,1.52137 c -0.20441,0.40484 -0.48034,1.32249 -0.71916,2.39175 -0.0177,0.0791 -0.10342,0.41322 -0.19061,0.74251 -0.11856,0.44789 -0.14118,0.60551 -0.0897,0.6257 0.0378,0.0148 0.0668,0.064 0.0645,0.10922 -0.003,0.0659 0.12155,0.0888 0.63086,0.11555 0.72386,0.038 2.93135,0.0498 3.12982,0.0167 0.16154,-0.027 0.15357,-0.11144 -0.03,-0.31767 -0.0773,-0.0869 -0.15546,-0.20378 -0.17365,-0.25983 -0.0423,-0.13032 0.0204,-0.27367 0.11827,-0.26853 0.0415,0.002 0.0688,-0.0421 0.0606,-0.0987 -0.0525,-0.36497 -0.0741,-0.42578 -0.1526,-0.4299 -0.048,-0.003 -0.11066,-0.077 -0.1391,-0.16561 -0.0415,-0.12926 -0.0323,-0.17367 0.0464,-0.22514 0.0885,-0.0578 0.0865,-0.0685 -0.0198,-0.10849 -0.16437,-0.0618 -0.19542,-0.28725 -0.0642,-0.46625 0.1014,-0.13831 0.10219,-0.15341 0.0145,-0.26127 -0.0513,-0.063 -0.16795,-0.15014 -0.25936,-0.19377 -0.0914,-0.0437 -0.165,-0.10229 -0.16353,-0.13029 10e-4,-0.0281 -0.0221,-0.0523 -0.0524,-0.0539 -0.054,-0.003 -0.5665,-0.3672 -0.61988,-0.44074 -0.0149,-0.0206 -0.16986,-0.12842 -0.3443,-0.2397 -0.17445,-0.11127 -0.34749,-0.24301 -0.38455,-0.29277 -0.037,-0.0497 -0.10046,-0.0922 -0.1409,-0.0943 -0.0404,-0.002 -0.13247,-0.0584 -0.20452,-0.12519 -0.072,-0.0667 -0.13893,-0.12261 -0.1486,-0.12419 -0.01,-0.001 -0.0852,0.13107 -0.16787,0.29477 z m 7.09035,0.77944 c -0.51251,0.0966 -0.79895,0.17787 -0.82273,0.23353 -0.0201,0.0469 -0.0656,0.10548 -0.10126,0.13004 -0.045,0.0311 -0.0431,0.0548 0.006,0.0779 0.11018,0.0516 0.0787,0.13873 -0.0681,0.189 -0.10215,0.035 -0.10963,0.0477 -0.0319,0.0546 0.0557,0.005 0.1,0.0351 0.0983,0.067 -0.002,0.032 -0.0488,0.0577 -0.10485,0.0573 -0.0614,-2.2e-4 -0.0735,0.0125 -0.0303,0.0324 0.0392,0.0183 0.0553,0.0563 0.0357,0.0846 -0.0196,0.0282 -0.008,0.0529 0.0258,0.0546 0.0338,0.002 0.0594,0.0424 0.0568,0.0903 -0.003,0.0478 -0.0502,0.0851 -0.10618,0.0826 -0.0834,-0.004 -0.0872,0.006 -0.021,0.0527 0.0667,0.0474 0.0667,0.0721 4.2e-4,0.14461 -0.0474,0.0513 -0.0557,0.0888 -0.0202,0.0907 0.0735,0.004 0.14008,0.32634 0.1119,0.54235 l -0.0205,0.15712 0.48062,-0.0101 c 0.52393,-0.0109 0.7388,-0.0687 0.64458,-0.17337 -0.0399,-0.0444 -0.0303,-0.12649 0.0313,-0.26938 0.0488,-0.11308 0.11103,-0.25679 0.13816,-0.31939 0.0272,-0.0626 0.0472,-0.16767 0.0444,-0.23354 -0.003,-0.0659 0.0499,-0.16448 0.11704,-0.21911 0.17908,-0.14573 0.29203,-0.46473 0.20563,-0.58072 -0.0569,-0.0763 -0.047,-0.096 0.0592,-0.11782 0.0934,-0.0193 0.12967,-0.0708 0.13612,-0.19358 0.005,-0.0921 -0.0108,-0.1685 -0.0347,-0.16994 -0.024,-10e-4 -0.39732,0.064 -0.82975,0.14554 z m 0.8933,0.57099 c -0.15425,0.22547 -0.16381,0.32656 -0.0313,0.33111 0.16169,0.005 0.31222,-0.12765 0.3204,-0.28355 0.0147,-0.27968 -0.11564,-0.30112 -0.2891,-0.0476 z m -3.22416,-0.093 c -0.79765,0.19864 -0.88066,0.23975 -0.83573,0.41394 0.0671,0.26009 0.0477,0.36108 -0.0955,0.49997 -0.14387,0.13941 -0.14701,0.15603 -0.099,0.52474 l 0.0497,0.38077 0.22986,-0.0457 c 0.17737,-0.0353 0.2223,-0.0675 0.19683,-0.14133 -0.0672,-0.19475 -0.0698,-0.51954 -0.005,-0.55529 0.0364,-0.0199 0.30878,-0.0381 0.60523,-0.0402 0.29647,-0.002 0.56275,-0.0238 0.59173,-0.0482 0.029,-0.0243 0.0698,-0.2273 0.0908,-0.45098 0.0208,-0.22369 0.0594,-0.43741 0.0854,-0.47497 0.0301,-0.0436 0.0223,-0.0545 -0.0218,-0.0304 -0.0855,0.0468 -0.0855,-10e-4 -5.2e-4,-0.14248 0.0491,-0.0813 0.0468,-0.10271 -0.01,-0.087 -0.0414,0.0115 -0.39359,0.10009 -0.78275,0.197 z m 4.96996,2.32052 c -0.008,0.14342 0.0976,0.41522 0.16192,0.4186 0.0268,10e-4 0.0549,-0.11496 0.0625,-0.25859 0.0117,-0.22246 -0.003,-0.26205 -0.10234,-0.26724 -0.0764,-0.004 -0.11809,0.0325 -0.12201,0.10723 z m -6.03202,0.0351 c -0.012,-6.2e-4 -0.0239,0.0388 -0.0264,0.0877 -0.003,0.0488 -0.043,0.10129 -0.0897,0.11649 -0.19217,0.0624 -0.021,0.16776 0.33023,0.20333 l 0.37017,0.0375 0.0379,-0.34363 0.0379,-0.34366 -0.31914,0.1217 c -0.17554,0.067 -0.32896,0.12119 -0.34094,0.12056 z m 5.97146,0.53984 c 0.0186,0.13417 0.14062,0.36313 0.19503,0.36599 0.0217,10e-4 0.003,-0.10456 -0.0395,-0.23485 -0.0811,-0.24304 -0.18287,-0.32896 -0.15544,-0.13114 z"
         id="path50400-5"
         sodipodi:nodetypes="csssssssssssssssssssscssssssssssssssssssssssssssssssssssssssssssssssssssssssssssscssssssssssssssssssssssssssccsssssscsssccssssssssssssssssssssssssssssssssssscscssscscccsscssssssssssssssscsssssssssccsssssssssssscsssscssssssssscsssssssssscssssssssssssssssssssscccssssss" />
      <path
         style="fill:#000000;stroke-width:0.0250505"
         d="m 554.29435,747.80419 c 0.248,0.11749 0.47064,0.23708 0.49475,0.26577 0.0385,0.0458 0.0438,0.11204 0.0438,0.54155 v 0.48938 l 0.0845,0.12785 c 0.13387,0.20281 0.19243,0.33391 0.23031,0.51557 0.0621,0.29744 -0.007,0.42539 -0.38611,0.72082 -0.0582,0.0454 -0.0585,0.0472 -0.0196,0.17823 0.0431,0.14552 0.0521,0.10165 -0.10657,0.5239 -0.0664,0.17674 -0.0724,0.20961 -0.0397,0.22213 0.021,0.008 0.0803,-0.0143 0.13153,-0.0498 0.0512,-0.0354 0.13706,-0.0826 0.19057,-0.10487 0.13799,-0.0573 0.42065,-0.0769 0.54072,-0.0372 0.0882,0.0291 0.10637,0.027 0.18841,-0.0213 0.11827,-0.0697 0.17756,-0.0676 0.27993,0.0107 0.1803,0.13753 0.21646,0.3142 0.14581,0.71249 -0.0557,0.31464 -0.0784,0.39645 -0.28773,1.04429 -0.0754,0.23328 -0.0681,0.27683 0.075,0.446 0.0688,0.0814 0.14359,0.19644 0.16623,0.25571 0.0386,0.1008 0.0384,0.11543 -0.004,0.22673 -0.0694,0.18795 -0.10198,0.22401 -0.24367,0.27068 -0.11076,0.0365 -0.18358,0.0933 -0.44422,0.34678 -0.17145,0.16672 -0.34252,0.33444 -0.38015,0.3727 -0.0744,0.0754 -0.10572,0.18727 -0.19838,0.70608 -0.0491,0.27479 -0.1276,0.53564 -0.19703,0.65484 -0.0152,0.0261 -0.0836,0.17562 -0.15183,0.33222 -0.0683,0.15656 -0.14236,0.3125 -0.16464,0.34652 -0.0594,0.0906 -0.18539,0.13283 -0.39664,0.13283 h -0.18627 l -0.0884,0.17396 -0.0884,0.17399 0.0852,0.0282 c 0.10705,0.0353 0.21204,0.15772 0.21204,0.24722 0,0.0456 -0.0298,0.0969 -0.0898,0.15463 -0.15681,0.15073 -0.16976,0.19605 -0.17159,0.59988 -8.8e-4,0.35193 -0.005,0.36791 -0.0768,0.51353 -0.19211,0.38419 -0.77242,0.5911 -1.34112,0.47813 -0.23156,-0.046 -0.51638,-0.16796 -0.64377,-0.27568 -0.0853,-0.0721 -0.21431,-0.31714 -0.24509,-0.46548 -0.0262,-0.12618 -0.0958,-0.25179 -0.18736,-0.33818 -0.0854,-0.0805 -0.15036,-0.18743 -0.15036,-0.24735 0,-0.0736 0.12593,-0.18519 0.2696,-0.23891 0.19376,-0.0725 0.29162,-0.19102 0.29002,-0.35137 -8.9e-4,-0.11673 -0.053,-0.22532 -0.26548,-0.55502 -0.0497,-0.077 -0.22079,-0.39135 -0.38034,-0.69836 -0.15953,-0.30704 -0.30968,-0.58313 -0.33365,-0.61353 -0.20401,-0.25875 -0.36932,-0.49004 -0.39693,-0.55536 -0.0182,-0.043 -0.0562,-0.21789 -0.0842,-0.38829 -0.11069,-0.67091 -0.21368,-1.06817 -0.30096,-1.16108 -0.0298,-0.0318 -0.1385,-0.0885 -0.24152,-0.12602 -0.24491,-0.0893 -0.42438,-0.24943 -0.52496,-0.46835 -0.0648,-0.14097 -0.0723,-0.18402 -0.0717,-0.4081 5.1e-4,-0.17154 0.015,-0.29393 0.0457,-0.38828 0.0377,-0.11535 0.0472,-0.25807 0.0582,-0.87677 0.0123,-0.69511 0.0167,-0.74928 0.0729,-0.91244 0.073,-0.21183 0.0762,-0.33747 0.0108,-0.42067 -0.0269,-0.0342 -0.13685,-0.10475 -0.24424,-0.1566 -0.10739,-0.0519 -0.23191,-0.12176 -0.27669,-0.15531 -0.10778,-0.0808 -0.21309,-0.12304 -0.42773,-0.17186 -0.14524,-0.033 -0.19156,-0.0563 -0.25384,-0.12718 -0.0689,-0.0784 -0.0762,-0.10326 -0.0762,-0.25569 0,-0.20527 0.0328,-0.25981 0.19409,-0.322 0.3095,-0.11943 1.12793,0.022 1.48671,0.25663 0.063,0.0412 0.0703,0.04 0.23203,-0.0397 0.1528,-0.0752 0.18071,-0.0809 0.32846,-0.0671 0.19873,0.0185 0.34873,0.0918 0.40729,0.19903 0.0681,0.12464 0.0598,0.6048 -0.0138,0.80504 l -0.0544,0.1477 0.0535,0.37642 c 0.0479,0.33677 0.0512,0.42507 0.0312,0.83809 -0.0124,0.25393 -0.0167,0.47011 -0.01,0.48041 0.0409,0.061 0.12923,0.0762 0.29487,0.0506 0.13189,-0.0204 0.26526,-0.0176 0.57747,0.0121 0.22329,0.0213 0.45816,0.0388 0.52193,0.0388 h 0.11596 l -0.0162,-0.17334 c -0.008,-0.0953 -0.008,-0.19183 -2.7e-4,-0.21443 0.008,-0.0226 0.0599,-0.0588 0.11399,-0.0803 0.0917,-0.0367 0.0972,-0.0445 0.0817,-0.11749 -0.008,-0.043 -0.0481,-0.15146 -0.0866,-0.24101 -0.1008,-0.23401 -0.14381,-0.39517 -0.18977,-0.71092 -0.0264,-0.18081 -0.0715,-0.3577 -0.12881,-0.50403 -0.0839,-0.21436 -0.0884,-0.24152 -0.0914,-0.55113 -0.002,-0.27249 0.007,-0.35451 0.0525,-0.50251 0.0984,-0.313 0.28499,-0.50054 0.62073,-0.62412 0.0964,-0.0355 0.22303,-0.0967 0.28129,-0.13616 0.0583,-0.0393 0.19918,-0.0961 0.31314,-0.1261 0.11397,-0.0299 0.34248,-0.0989 0.50784,-0.1532 0.16535,-0.0543 0.34009,-0.0987 0.38828,-0.0987 0.0581,2e-5 0.24015,0.0722 0.53855,0.21364 z m -3.10621,6.07356 c -0.0251,0.18216 0.006,0.31349 0.10358,0.44168 0.0495,0.065 0.0952,0.16088 0.10731,0.22537 0.0424,0.22699 0.0725,0.1872 0.11896,-0.15779 0.0201,-0.14896 0.0527,-0.32818 0.0726,-0.39827 0.0504,-0.17875 0.0483,-0.18563 -0.0581,-0.18606 -0.0517,-2e-4 -0.13899,-0.016 -0.19407,-0.0352 -0.0551,-0.0191 -0.10756,-0.0303 -0.11663,-0.0247 -0.008,0.006 -0.0241,0.0663 -0.0336,0.13494 z"
         id="path42018" />
      <path
         style="fill:#000000;stroke-width:0.0273298"
         d="m 561.50074,747.61135 c 0.20801,0.0322 0.28244,0.0823 0.30562,0.20581 0.0102,0.0541 0.0604,0.15329 0.11161,0.22042 0.0513,0.0671 0.11608,0.17975 0.14409,0.25027 0.028,0.0706 0.0828,0.1836 0.12164,0.25125 0.0816,0.14199 0.0888,0.22127 0.0283,0.31358 -0.0237,0.0362 -0.0594,0.1439 -0.0794,0.2395 -0.0445,0.21289 -0.0824,0.71477 -0.0569,0.75587 0.013,0.0209 0.045,0.0166 0.1058,-0.0142 0.12936,-0.0654 0.1778,-0.11605 0.1976,-0.20617 0.0209,-0.095 0.11394,-0.14686 0.21723,-0.12094 0.10926,0.0275 0.30512,0.22351 0.38372,0.38414 0.0928,0.18979 0.11533,0.46215 0.0564,0.68318 -0.0239,0.0896 -0.0434,0.22099 -0.0434,0.29201 0,0.071 -0.0122,0.16136 -0.0272,0.20074 -0.0149,0.0393 -0.0451,0.22158 -0.067,0.4049 -0.0218,0.1833 -0.0477,0.37185 -0.0576,0.41898 -0.0174,0.0836 -0.0142,0.0869 0.12737,0.13393 0.30843,0.10245 0.51048,0.42177 0.48161,0.76116 -0.027,0.31733 -0.18529,0.56246 -0.43658,0.67605 -0.13133,0.0594 -0.17598,0.0645 -0.51932,0.0596 -0.36684,-0.006 -0.37595,-0.005 -0.38769,0.0547 -0.0574,0.28606 -0.0981,0.60256 -0.11148,0.86619 -0.0249,0.49186 -0.0646,0.86447 -0.12411,1.16346 l -0.0547,0.27525 0.0684,0.14951 c 0.0514,0.11241 0.0862,0.2815 0.13984,0.6813 0.0392,0.29248 0.0777,0.5708 0.0853,0.61852 0.0106,0.0656 -2e-5,0.0987 -0.0434,0.13587 -0.0316,0.0271 -0.0574,0.0682 -0.0574,0.0913 0,0.0232 0.043,0.21296 0.0956,0.42167 l 0.0956,0.37948 -0.0556,0.18677 c -0.0314,0.10551 -0.0764,0.19784 -0.10328,0.21227 -0.0486,0.026 -0.33614,-0.0532 -0.40804,-0.11255 -0.0619,-0.051 -0.0414,-0.20175 0.0341,-0.25126 0.0376,-0.0246 0.0682,-0.0661 0.068,-0.092 -3.3e-4,-0.0493 -0.12977,-0.59425 -0.2027,-0.85342 -0.0233,-0.0827 -0.0424,-0.20107 -0.0426,-0.26312 -4.9e-4,-0.16947 -0.081,-0.49243 -0.13486,-0.5412 -0.0385,-0.0349 -0.0871,-0.0396 -0.25652,-0.0254 -0.18044,0.0152 -0.21148,0.0254 -0.22693,0.0752 -0.01,0.0317 -0.0523,0.10131 -0.0944,0.15482 -0.14221,0.18081 -0.13373,0.2975 0.0217,0.29857 0.0337,1.8e-4 0.08,0.0296 0.10371,0.0658 0.0379,0.0579 0.0385,0.0843 0.005,0.23028 -0.0222,0.0961 -0.069,0.20164 -0.11224,0.25303 -0.0647,0.0769 -0.0716,0.10242 -0.0543,0.20015 0.0109,0.0616 0.0161,0.14276 0.0114,0.18035 -0.005,0.0375 -0.007,0.10214 -0.005,0.14348 0.0174,0.39295 0.0182,0.38627 -0.0639,0.53621 -0.15522,0.28328 -0.56862,0.56248 -0.99738,0.67359 -0.219,0.0568 -0.62713,0.0459 -0.75156,-0.0198 -0.2711,-0.14343 -0.5945,-0.49266 -0.67169,-0.72534 -0.0249,-0.075 -0.0462,-0.0915 -0.13769,-0.10613 -0.0755,-0.0121 -0.13061,-0.044 -0.18235,-0.10542 -0.0731,-0.0869 -0.0764,-0.0878 -0.23811,-0.067 -0.43992,0.0567 -0.669,0.007 -0.86468,-0.18909 -0.16699,-0.16698 -0.21484,-0.32641 -0.21484,-0.71565 0,-0.24168 -0.009,-0.30322 -0.0503,-0.35717 -0.0702,-0.0909 -0.1137,-0.23072 -0.1137,-0.3651 0,-0.0847 -0.0167,-0.12983 -0.0647,-0.17486 -0.0355,-0.0334 -0.11092,-0.15938 -0.16752,-0.27998 -0.13848,-0.29511 -0.15678,-0.55988 -0.0687,-0.99433 0.0685,-0.33763 0.12404,-0.46694 0.24431,-0.56814 0.16665,-0.14024 0.34688,-0.15454 0.96322,-0.0765 0.3465,0.0439 0.7965,0.0433 0.81763,-8.2e-4 0.14174,-0.2973 0.1815,-0.474 0.13591,-0.60408 -0.0412,-0.11769 -0.15543,-0.70006 -0.17919,-0.91387 -0.0144,-0.12909 -0.009,-0.19037 0.0258,-0.26229 0.0344,-0.0726 0.0424,-0.1563 0.0351,-0.3689 -0.0103,-0.29981 -0.003,-0.28185 -0.23201,-0.53482 -0.27167,-0.29944 -0.31742,-0.47845 -0.162,-0.63387 0.11433,-0.11432 0.26966,-0.1498 0.37961,-0.0867 l 0.0765,0.0439 -0.0166,-0.11496 c -0.009,-0.0632 -0.053,-0.16725 -0.0975,-0.23116 -0.11694,-0.16803 -0.23994,-0.45282 -0.25996,-0.60199 -0.0119,-0.0888 -0.0571,-0.18863 -0.14488,-0.32034 -0.0933,-0.13999 -0.18503,-0.34892 -0.34188,-0.7789 -0.19566,-0.53644 -0.21537,-0.60918 -0.22649,-0.83581 -0.01,-0.19426 -0.003,-0.26704 0.0325,-0.33465 0.0542,-0.10481 0.23607,-0.20114 0.47152,-0.24972 0.22341,-0.0461 0.83297,-0.0246 1.09859,0.0389 0.18361,0.0438 0.21626,0.0627 0.37341,0.21593 0.0947,0.0924 0.21325,0.20022 0.26341,0.2397 0.10874,0.0855 0.48534,0.2811 0.50451,0.26193 0.007,-0.007 0.0163,-0.0943 0.0198,-0.19307 0.005,-0.14502 0.0186,-0.19265 0.07,-0.2473 0.035,-0.0372 0.0745,-0.12628 0.0879,-0.19787 0.0298,-0.1597 0.12403,-0.26431 0.2943,-0.32682 0.14781,-0.0543 0.84404,-0.0773 1.10699,-0.0367 z m -3.99559,8.69485 c -0.0483,0.0483 -0.0401,0.16393 0.0213,0.29902 0.0297,0.0655 0.0544,0.17056 0.0547,0.23343 4.9e-4,0.0947 0.0143,0.12401 0.08,0.17081 0.11258,0.0801 0.13926,0.071 0.13926,-0.0479 0,-0.1344 0.0739,-0.35671 0.14443,-0.43458 0.0535,-0.0591 0.0536,-0.0612 0.003,-0.076 -0.0286,-0.008 -0.11956,-0.0509 -0.20223,-0.0944 -0.17217,-0.0906 -0.19539,-0.0954 -0.24051,-0.0503 z"
         id="path42440" />
      <path
         id="path46620-3"
         style="fill:#000000;stroke-width:0.0312768"
         d="m 544.17759,759.37129 c -0.0875,-9e-5 -0.13445,-0.008 -0.17285,-0.0234 -0.11641,-0.0482 -0.3794,-0.3222 -0.3794,-0.3955 0,-0.0698 -0.19622,-0.42312 -0.34863,-0.62843 -0.0664,-0.0896 -0.12012,-0.17732 -0.12012,-0.19482 0,-0.0175 0.0376,-0.0528 0.085,-0.0776 0.0473,-0.0247 0.12782,-0.0886 0.17871,-0.14208 0.0575,-0.0605 0.13682,-0.10433 0.20801,-0.11573 l 0.11426,-0.0176 0.0161,-0.1919 c 0.009,-0.10567 0.0518,-0.30476 0.0952,-0.44238 0.0435,-0.13761 0.0865,-0.28925 0.0967,-0.33545 0.0132,-0.0598 0.0509,-0.0948 0.1289,-0.12305 0.0602,-0.0218 0.1084,-0.0524 0.1084,-0.0674 0,-0.015 -0.11589,-0.14615 -0.25781,-0.2915 -0.27753,-0.28425 -0.41387,-0.51594 -0.44678,-0.76026 -0.032,-0.23716 -0.0744,-0.33494 -0.24756,-0.57275 -0.0912,-0.12532 -0.20445,-0.3053 -0.25195,-0.39991 l -0.43799,-0.21679 c -0.0764,-0.003 -0.14939,-0.009 -0.22119,-0.0176 h -0.18604 l -0.35302,0.12744 -0.34864,0.022 -0.22705,0.10694 -0.1875,-0.96387 0.88917,-0.10694 0.12304,-0.14794 0.0513,-0.0161 0.11719,-0.40577 c 0.0418,-0.18867 0.0835,-0.28838 0.16552,-0.40283 0.0955,-0.13336 0.39648,-0.74138 0.42628,-0.85986 0.014,-0.0557 -4e-5,-0.0942 -0.0542,-0.14502 l -0.33985,-0.45704 c 0.0275,-0.0331 -0.0166,-0.10698 -0.20654,-0.33984 h -10e-4 c -0.13353,-0.16369 -0.27787,-0.34407 -0.32227,-0.40137 l -0.1875,-0.27831 -0.16553,-0.12452 -0.41748,-0.42041 -0.0791,-0.14209 c -0.0431,-0.0783 -0.1026,-0.25193 -0.1333,-0.38525 0,0 5.4e-4,-0.18341 10e-4,-0.4336 0.0118,-0.037 0.11745,-0.16284 0.23437,-0.27978 0.2909,-0.29086 0.39925,-0.32428 1.10889,-0.3252 0.51454,-7.5e-4 0.57423,0.008 0.73536,0.10547 0.12569,0.0764 0.2604,0.11574 0.3501,0.10254 l 0.0981,-0.0146 -0.10693,-0.0879 c -0.0588,-0.0488 -0.11824,-0.089 -0.13184,-0.0894 -0.0137,-4.7e-4 -0.0207,-0.0953 -0.0146,-0.21094 0.0127,-0.2882 0.0353,-0.29942 0.5874,-0.27832 0.53506,0.0205 0.85074,0.0815 1.14111,0.22119 0.1264,0.0608 0.24966,0.11093 0.27246,0.11133 0.0229,3e-4 0.0746,0.027 0.11572,0.0586 0.0673,0.0518 0.0725,0.0732 0.0557,0.22559 -0.0103,0.0928 -0.0313,0.23737 -0.0469,0.32227 -0.0232,0.12666 -0.022,0.14517 0.0102,0.10107 0.0215,-0.0296 0.0532,-0.0514 0.0688,-0.0454 0.0509,0.016 0.21476,-0.14509 0.27686,-0.27247 0.0923,-0.18915 0.2298,-0.24429 0.54492,-0.21679 0.23264,0.0203 0.2532,0.0286 0.271,0.0996 0.029,0.1153 -0.009,0.36048 -0.0937,0.6123 -0.0417,0.12372 -0.0847,0.3252 -0.0952,0.44825 l -0.019,0.22412 0.0967,0.0337 0.0981,0.0337 -0.0117,0.27832 c -0.01,0.24401 -0.0208,0.29211 -0.0967,0.39844 l -0.0864,0.12158 0.10547,0.0176 c 0.059,0.01 0.17247,0.0762 0.25927,0.14941 0.0853,0.0718 0.18632,0.13038 0.22412,0.13038 0.11468,0 0.34179,0.1247 0.45411,0.24902 0,0 0.0977,0.22804 0.11425,0.2666 0,0.0619 0.0149,0.0791 0.0747,0.0791 0.14479,0 0.17578,0.0288 0.17578,0.17432 0,0.0803 0.0133,0.13769 0.0337,0.13769 -0.066,-0.26056 0.1118,-0.29581 0.14063,-0.37207 0.10105,-0.11989 0.17158,-0.1205 0.42481,-0.006 0.33597,0.15245 0.43359,0.3049 0.43359,0.68262 0,0.1721 0.009,0.20053 0.0762,0.24463 0.102,0.0668 0.13377,0.2177 0.063,0.2959 -0.0407,0.0449 -0.0473,0.0884 -0.0308,0.17871 0.0119,0.0653 0.0243,0.18783 0.0293,0.27393 0.005,0.086 0.0185,0.22302 0.0308,0.30322 0.0278,0.18422 -0.0504,0.44024 -0.16113,0.52734 -0.0959,0.0756 -0.13182,0.0765 -0.27393,0.009 -0.10152,-0.049 -0.11446,-0.0494 -0.15966,-0.004 -0.0422,0.0422 -0.045,0.0663 -0.0117,0.1582 0.0498,0.1376 0.0194,0.30821 -0.0762,0.42188 -0.0854,0.1014 -0.2871,0.16501 -0.52735,0.16552 -0.25158,7.3e-4 -0.25107,-7.5e-4 -0.20947,0.38525 0.0266,0.24558 0.0279,0.41685 0.003,0.64746 -0.0188,0.17238 -0.0352,0.37767 -0.0352,0.45558 0,0.28816 -0.21498,0.663 -0.45996,0.80127 -0.0912,0.0515 -0.19335,0.12868 -0.22705,0.17138 -0.075,0.0954 -0.29112,0.15236 -0.90966,0.24316 -0.095,0.014 -0.12371,0.0377 -0.18311,0.15674 -0.0385,0.0772 -0.0897,0.14062 -0.11426,0.14062 -0.029,0 -0.0439,0.0342 -0.0439,0.0967 0,0.0813 0.0109,0.0939 0.0703,0.0879 0.13467,-0.0147 0.45852,0.041 0.49512,0.085 0.0287,0.0345 0.0231,0.0844 -0.0264,0.22412 -0.0348,0.0987 -0.0728,0.27802 -0.0835,0.39844 -0.0376,0.42453 -0.0476,0.47501 -0.11865,0.59912 -0.21518,0.37584 -0.3857,0.4466 -1.21875,0.51269 -0.19694,0.0158 -0.32414,0.0237 -0.41162,0.0234 z m 1.64062,-9.06738 c 0.0361,0.008 0.0571,3.2e-4 0.0571,-0.022 0,-0.0139 -0.0692,-0.0486 -0.15527,-0.0762 -0.086,-0.0275 -0.15674,-0.0456 -0.15674,-0.0396 0,0.005 0.0501,0.0386 0.11133,0.0747 0.0572,0.0338 0.10748,0.0558 0.14355,0.063 z m -0.35449,-0.19043 c 0.003,-0.004 -0.01,-0.0137 -0.0366,-0.0322 -0.0322,-0.0221 -0.11235,-0.0831 -0.17724,-0.13623 -0.0828,-0.0677 -0.1551,-0.0971 -0.24171,-0.10108 -0.11436,-0.005 -0.12537,0.002 -0.15527,0.0996 l -0.0322,0.10546 0.25489,0.022 c 0.13968,0.0119 0.28815,0.0287 0.33105,0.0366 0.036,0.007 0.0545,0.009 0.0571,0.006 z" />
    </g>
  </g>
</svg>
