<?xml version="1.0" encoding="UTF-8" standalone="no"?>
<!-- Created with Inkscape (http://www.inkscape.org/) -->

<svg
   width="17.680229mm"
   height="8.2641563mm"
   viewBox="0 0 17.680229 8.2641563"
   version="1.1"
   id="svg22169"
   sodipodi:docname="inkporter-svg-3jcnxmfz.svg"
   xmlns:inkscape="http://www.inkscape.org/namespaces/inkscape"
   xmlns:sodipodi="http://sodipodi.sourceforge.net/DTD/sodipodi-0.dtd"
   xmlns="http://www.w3.org/2000/svg"
   xmlns:svg="http://www.w3.org/2000/svg">
  <sodipodi:namedview
     id="namedview22171"
     pagecolor="#ffffff"
     bordercolor="#666666"
     borderopacity="1.0"
     inkscape:pageshadow="2"
     inkscape:pageopacity="0.0"
     inkscape:pagecheckerboard="0"
     inkscape:document-units="mm"
     showgrid="false"
     inkscape:zoom="0.66368547"
     inkscape:cx="397.02542"
     inkscape:cy="561.25984"
     inkscape:window-width="3840"
     inkscape:window-height="2081"
     inkscape:window-x="2391"
     inkscape:window-y="-9"
     inkscape:window-maximized="1"
     inkscape:current-layer="layer1" />
  <defs
     id="defs22166" />
  <g
     inkscape:label="Layer 1"
     inkscape:groupmode="layer"
     id="layer1"
     transform="translate(-72.087398,-52.875977)">
    <path
       d="m 89.767627,52.972437 -0.03306,-0.09646 -0.212217,0.07304 -0.01238,-0.03447 -0.115757,0.03996 -0.01792,-0.05236 -0.24667,0.08544 -0.0303,-0.08957 -0.04823,0.01655 0.04134,0.124023 -1.20716,0.416168 -0.02067,-0.06201 -0.263204,0.08957 -0.529167,0.270093 -0.611851,0.223242 -0.02893,0.07166 -0.124022,0.04272 -0.312815,0.06891 -0.140561,-0.0041 -0.06201,0.03996 -1.048685,-0.817178 -4.050055,-0.449241 -0.552594,0.920531 -5.649955,0.05788 v -0.05788 h -0.416221 l -0.224621,-0.106109 v -0.01655 H 73.72451 v 0.06891 h -0.47129 v 0.525032 h 0.47129 v 0.09784 h 0.125402 v -0.08268 l 0.214976,-0.07579 h 0.425813 v -0.05099 l 5.40053,0.05512 -0.366557,0.613226 -1.215429,0.08682 -0.474045,0.0441 -0.05237,0.165365 -0.928797,0.824064 -0.122647,-0.148826 -2.909037,0.158474 -0.840606,0.209462 -0.693152,2.261359 h -0.14883 v 0.288011 l 0.07717,0.03583 c -0.0813,0.111622 -0.129533,0.249425 -0.129533,0.398254 0,0.374827 0.304546,0.679373 0.679373,0.679373 0.323839,0 0.593933,-0.226 0.661458,-0.529167 l 0.02618,0.01242 0.232887,0.03583 c -0.02618,0.107488 -0.03996,0.220486 -0.03996,0.33624 0,0.777215 0.629765,1.4056 1.405601,1.4056 0.777211,0 1.406976,-0.628385 1.406976,-1.4056 l -0.0014,-0.03996 0.194303,0.192927 h 2.189702 l 0.192927,-0.192927 h 0.06339 c -0.0014,1.016991 0.719335,1.402842 1.295354,1.402842 h 5.414313 c 0.908128,0 1.276064,-0.660079 1.327051,-1.157552 h 0.653228 V 59.57193 l 0.237021,-0.235645 h 0.288012 v -0.122647 h -0.507119 v -0.421679 c 0,-0.235645 0.201193,-0.07855 0.350023,0.0096 0.148826,0.08682 0.403765,-0.140561 0.281118,-0.299032 -0.124022,-0.157099 -0.228752,-0.305925 -0.228752,-0.305925 l 0.709687,-3.039953 -1.90996,-0.210842 -0.267339,-0.01101 -0.02755,-0.02205 0.807533,-0.472666 h 0.17501 v -0.689017 l 0.166744,-0.06615 1.456584,-0.500228 -0.01792,-0.05237 0.08819,-0.0303 0.01242,0.03447 0.165365,-0.0565 -0.01242,-0.03583 z m -16.043119,1.236102 h -0.363802 v -0.301791 h 0.363802 z m 0.305925,-0.05926 -0.180523,0.06477 v -0.344512 l 0.180523,0.08544 z m 5.221387,5.545225 c -0.0041,0.03859 -0.0055,0.07579 -0.0055,0.114378 0,0.02205 0,0.04272 0.0014,0.06477 -0.0055,-0.0565 -0.0083,-0.115753 -0.0083,-0.179144 z m 0.722093,1.18098 c -0.263207,-0.09784 -0.509876,-0.290766 -0.638034,-0.622875 0.118513,0.285256 0.350023,0.508498 0.638034,0.622875 m 5.975174,0.04547 c 0.547081,0 0.993563,-0.436837 1.007343,-0.981163 h 0.03859 c -0.04961,0.435462 -0.376205,1.016995 -1.18649,1.016995 h -5.414313 c 0.505742,0 0.93569,-0.327974 1.088651,-0.784105 l 0.345888,0.0069 c -0.133671,0.06339 -0.226,0.198438 -0.226,0.356913 0,0.21773 0.177768,0.394119 0.39412,0.394119 0.217731,0 0.395495,-0.176389 0.395495,-0.394119 0,-0.01517 -0.0014,-0.02893 -0.0028,-0.0441 h 0.0303 c -0.0014,0.01517 -0.0014,0.02893 -0.0014,0.0441 0,0.21773 0.176389,0.394119 0.39412,0.394119 0.217731,0 0.39412,-0.176389 0.39412,-0.394119 0,-0.01517 -0.0014,-0.02893 -0.0028,-0.0441 h 0.0303 c -0.0014,0.01517 -0.0014,0.02893 -0.0014,0.0441 0,0.21773 0.176389,0.394119 0.394117,0.394119 0.217731,0 0.394119,-0.176389 0.394119,-0.394119 0,-0.01517 -0.0014,-0.02893 -0.0028,-0.0441 h 0.03996 c -0.0014,0.01517 -0.0014,0.02893 -0.0014,0.0441 0,0.21773 0.176389,0.394119 0.39412,0.394119 0.21773,0 0.394119,-0.176389 0.394119,-0.394119 0,-0.121268 -0.05512,-0.230132 -0.141936,-0.303167 l 0.292142,0.0055 c 0.135047,0.396875 0.511253,0.682128 0.953604,0.682128 m -0.0565,-6.657301 0.0041,0.01242 -0.04134,-0.03172 z m 1.372525,-0.340374 0.256317,-0.101978 v 0.445107 l -0.926041,0.553974 -0.498853,-0.388609 0.0041,-0.0096 0.08268,-0.02893 0.05099,0.03583 -0.0041,-0.121267 0.465776,-0.159851 0.03306,0.04961 0.150205,-0.05237 -0.0441,0.186038 0.05237,0.104729 0.137806,-0.04685 -0.01379,-0.126781 0.01792,-0.129533 0.05788,-0.01242 0.151585,-0.0441 -0.04272,-0.122647 z m 0,0"
       id="G-21st-Pak" />
  </g>
</svg>
