<?xml version="1.0" encoding="UTF-8" standalone="no"?>
<!-- Created with Inkscape (http://www.inkscape.org/) -->

<svg
   width="16.528135mm"
   height="8.6293564mm"
   viewBox="0 0 16.528135 8.6293564"
   version="1.1"
   id="svg22169"
   sodipodi:docname="inkporter-svg-owllxbij.svg"
   xmlns:inkscape="http://www.inkscape.org/namespaces/inkscape"
   xmlns:sodipodi="http://sodipodi.sourceforge.net/DTD/sodipodi-0.dtd"
   xmlns="http://www.w3.org/2000/svg"
   xmlns:svg="http://www.w3.org/2000/svg">
  <sodipodi:namedview
     id="namedview22171"
     pagecolor="#ffffff"
     bordercolor="#666666"
     borderopacity="1.0"
     inkscape:pageshadow="2"
     inkscape:pageopacity="0.0"
     inkscape:pagecheckerboard="0"
     inkscape:document-units="mm"
     showgrid="false"
     inkscape:zoom="0.66368547"
     inkscape:cx="397.02542"
     inkscape:cy="561.25984"
     inkscape:window-width="3840"
     inkscape:window-height="2081"
     inkscape:window-x="2391"
     inkscape:window-y="-9"
     inkscape:window-maximized="1"
     inkscape:current-layer="layer1" />
  <defs
     id="defs22166" />
  <g
     inkscape:label="Layer 1"
     inkscape:groupmode="layer"
     id="layer1"
     transform="translate(-248.07267,-4.057134)">
    <path
       d="m 263.95911,10.207332 c 0.0372,-0.02205 0.1447,0.04548 0.21635,0.08957 0.0193,0.01238 0.04,0.0248 0.0579,0.03443 0.1006,0.05926 0.22738,0.0055 0.3018,-0.07855 0.0772,-0.08819 0.0868,-0.192927 0.0262,-0.272852 -0.10749,-0.136427 -0.19844,-0.263204 -0.21911,-0.293522 l 0.0124,-0.05237 0.01,-0.04272 h -0.0661 V 9.468671 h 0.11438 V 7.54357 h 0.0786 V 7.383716 h 0.0344 V 7.062635 h -0.14745 V 4.514641 h 0.15847 V 4.386484 h -0.0455 V 4.261082 h -0.113 V 4.057134 h -0.1378 v 0.203948 h -0.1254 v 0.128157 h 0.0455 v 0.125402 h 0.0799 v 2.547994 h -0.15986 v 0.103353 l -1.61643,0.256314 -0.0207,-0.03583 0.29214,-0.574643 c 0.0469,-0.09095 0.0262,-0.192923 -0.0469,-0.234265 -0.0951,-0.0565 -0.1888,0.06339 -0.21911,0.103353 -0.0331,0.0441 -0.10749,0.17363 -0.21911,0.385851 l -0.37207,-0.618741 0.0234,-0.01379 0.0303,-0.01792 -0.0193,-0.0303 -0.0786,-0.132292 0.10887,-0.06477 -0.0179,-0.0303 -0.0482,-0.07993 -0.0179,-0.0303 -0.0303,0.01792 -0.13229,0.07855 -0.01,-0.01792 0.0923,-0.05512 -0.0179,-0.0303 -0.0455,-0.07579 -0.0179,-0.0303 -0.0937,0.05512 -0.55397,-0.920531 -0.0179,-0.0303 -0.0289,0.01792 -0.29077,0.175013 -0.0303,0.01792 0.0179,0.0303 0.55397,0.920528 -0.0262,0.01517 -0.0303,0.0193 0.0179,0.0303 0.0455,0.07579 0.003,0.0028 H 260.018 l -0.13091,-0.217731 0.0937,-0.05512 -0.0179,-0.0303 -0.0455,-0.07579 -0.0179,-0.0303 -0.0937,0.05512 -0.55398,-0.920531 -0.0179,-0.0303 -0.0303,0.01792 -0.29076,0.175013 -0.0303,0.01792 0.0193,0.0303 0.55259,0.920528 -0.0248,0.01517 -0.0303,0.0193 0.0179,0.0303 0.0455,0.07579 0.0179,0.0303 0.0303,-0.01792 0.0262,-0.01654 0.72898,1.215429 h -0.0344 v 0.342999 h 0.24116 l 0.56637,0.943955 h -0.2949 l -0.90124,-1.615059 -0.01,-0.01654 -0.0193,-0.0014 -2.19935,-0.09784 V 6.264769 h -0.0345 l -0.4203,-0.0096 -0.26458,-0.0069 -0.20395,-0.0041 c -0.004,0 -2.33578,0.16674 -2.33578,0.16674 -10e-4,0.0014 -0.4768,0.0441 -0.4768,0.0441 l -0.022,0.0028 -0.008,0.02205 -0.0496,0.158475 -0.89848,0.796509 -0.0992,-0.121267 -0.011,-0.01379 h -0.0179 l -2.92282,0.158475 h -0.003 l -0.004,0.0014 -0.84474,0.210838 -0.0193,0.0055 -0.006,0.0193 -0.68764,2.246199 h -0.15847 v 0.347268 l 0.0193,0.0096 0.0441,0.02067 c -0.073,0.114378 -0.11713,0.24529 -0.11713,0.383092 0,0.395499 0.32246,0.71658 0.71796,0.71658 0.32246,0 0.59531,-0.212217 0.68351,-0.519518 h 0.001 l 0.20119,0.03168 c -0.0221,0.101974 -0.0372,0.205328 -0.0372,0.308681 0,0.797885 0.65044,1.446939 1.44832,1.446939 0.7841,0 1.42076,-0.627006 1.44281,-1.405597 l 0.14883,0.147451 h 2.22966 l 0.01,-0.01101 0.18328,-0.181903 h 0.0179 c 0.006,0.421682 0.1378,0.777215 0.38723,1.02664 0.24116,0.242535 0.58567,0.381716 0.94534,0.381716 h 5.43911 c 0.84474,0 1.28847,-0.578774 1.3615,-1.163063 h 0.66284 v -0.389985 l 0.21773,-0.217731 h 0.31144 v -0.192927 h -0.51126 v -0.387226 c 0,-0.04685 0.008,-0.07717 0.0248,-0.08544 m -2.61965,-3.862641 h -0.0165 l 0.0124,-0.0069 z m 2.7864,1.03904 v 0.159752 h 0.0689 v 0.03168 l -1.02113,0.70969 -0.42857,-0.7152 -0.0152,-0.02343 1.35048,-0.213596 V 7.3837 Z m -1.41387,0.165365 -0.0152,0.0097 -0.0496,0.02893 v -0.02893 z m 0.87919,1.49655 0.0303,-0.01792 -0.0193,-0.02893 -0.19017,-0.31695 0.78272,-0.54846 v 0.943959 h -0.65732 z m -2.63205,2.998611 c 0,-0.100595 -0.0427,-0.190168 -0.10611,-0.267339 l 0.19844,0.0041 c 0.12126,0.327974 0.39549,0.566374 0.72484,0.650434 H 260.711 c 0.14607,-0.0689 0.24805,-0.214976 0.24805,-0.38723 m -0.21498,-4.491027 -0.61185,-1.016991 h 1.32154 l 0.57464,0.956359 -0.0303,0.06063 z m 1.63298,1.287089 h -0.67386 l 0.47944,-0.944051 h 0.0882 l 0.43133,0.716579 z m -0.5526,-0.943956 -0.39687,0.79375 -0.4768,-0.79375 z m -1.47863,4.535124 h -0.46302 c 0.11989,-0.0565 0.20257,-0.16812 0.23151,-0.300412 0.0276,0.132292 0.11162,0.243911 0.23151,0.300412 m -1.87276,-0.278363 c 0.0331,0.122643 0.113,0.224617 0.226,0.278363 h -0.45337 c 0.113,-0.05375 0.1943,-0.15572 0.22737,-0.278363 m 0.81856,0 c 0.0331,0.124023 0.113,0.224617 0.226,0.278363 h -0.45338 c 0.113,-0.05375 0.19431,-0.15434 0.22738,-0.278363 m -1.72255,-0.438217 0.21222,0.0041 c -0.0923,0.0813 -0.14883,0.199813 -0.14883,0.325215 0,0.172254 0.10198,0.318329 0.24805,0.38723 h -1.0294 c 0.32798,-0.117133 0.59532,-0.374827 0.71796,-0.71658"
       id="G-21st-MMS" />
  </g>
</svg>
