<?xml version="1.0" encoding="UTF-8" standalone="no"?>
<!-- Created with Inkscape (http://www.inkscape.org/) -->

<svg
   width="12.999793mm"
   height="6.79317mm"
   viewBox="0 0 12.999793 6.79317"
   version="1.1"
   id="svg4364"
   sodipodi:docname="inkporter-svg-cttyb8wf.svg"
   xmlns:inkscape="http://www.inkscape.org/namespaces/inkscape"
   xmlns:sodipodi="http://sodipodi.sourceforge.net/DTD/sodipodi-0.dtd"
   xmlns="http://www.w3.org/2000/svg"
   xmlns:svg="http://www.w3.org/2000/svg">
  <sodipodi:namedview
     id="namedview4366"
     pagecolor="#ffffff"
     bordercolor="#666666"
     borderopacity="1.0"
     inkscape:pageshadow="2"
     inkscape:pageopacity="0.0"
     inkscape:pagecheckerboard="0"
     inkscape:document-units="mm"
     showgrid="false"
     inkscape:zoom="0.64052329"
     inkscape:cx="587.02003"
     inkscape:cy="217.79068"
     inkscape:window-width="1920"
     inkscape:window-height="1017"
     inkscape:window-x="-8"
     inkscape:window-y="-8"
     inkscape:window-maximized="1"
     inkscape:current-layer="layer1" />
  <defs
     id="defs4361">
    <clipPath
       clipPathUnits="userSpaceOnUse"
       id="clipPath75985-4-7-9">
      <path
         d="M 0,0 H 595.276 V 841.89 H 0 Z"
         id="path75983-4-1-6" />
    </clipPath>
  </defs>
  <g
     inkscape:label="Layer 1"
     inkscape:groupmode="layer"
     id="layer1"
     transform="translate(0.71687035,-219.04281)">
    <path
       d="m 2.1239105,225.74815 -0.093698,-0.0737 -0.08569,0.0215 -0.085725,0.0215 v 0.0341 0.0341 h -0.072778 -0.072743 l -0.017992,-0.069 -0.017992,-0.069 -0.1241072,-0.0343 -0.1241778,-0.0343 -0.045297,0.0376 -0.045297,0.0376 -0.052564,-0.0202 -0.052564,-0.0202 v -0.0631 -0.0631 l -0.1059039,-0.0625 -0.1059039,-0.0625 -0.0505178,0.0419 -0.0505178,0.0419 -0.0521406,-0.0433 -0.0521406,-0.0433 v -0.0644 -0.0645 l -0.0866069,-0.0567 -0.0865717,-0.0568 -0.0568325,0.0218 -0.0568325,0.0218 -0.0476956,-0.0396 -0.0477308,-0.0396 v -0.0867 -0.0867 l -0.0728486,0.0191 -0.0728839,0.0191 -0.0487892,-0.0187 -0.0487892,-0.0187 v -0.0604 -0.0604 l -0.0715433,-0.0648 -0.07154333,-0.0648 -0.09838972,0.007 -0.098425,0.007 -0.0211667,-0.0555 -0.0211667,-0.0555 0.0194028,-0.0316 0.0194028,-0.0315 -0.0975783,-0.0858 -0.0975783,-0.0859 -0.0744714,-0.001 -0.0745067,-0.001 -0.0211667,-0.0553 c -0.0116417,-0.0304 -0.0130528,-0.0685 -0.003528,-0.0846 l 0.0179917,-0.0293 -0.056515,-0.14131 -0.0565503,-0.14131 h -0.0483658 -0.0483658 v -0.0468 c 0,-0.0257 0.0246944,-0.0961 0.0546806,-0.15641 l 0.0546806,-0.1096 -0.0563739,-0.11296 -0.0563739,-0.11295 0.0651581,-0.0528 c 0.0358422,-0.029 0.0930628,-0.0954 0.12717638,-0.14746 l 0.0620183,-0.0947 -0.0215194,-0.0857 -0.0215194,-0.0857 0.0611364,-0.0314 0.0611364,-0.0314 0.0434622,0.0156 0.0434622,0.0156 v -0.031 c 0,-0.017 -0.0229306,-0.0614 -0.0510469,-0.0985 -0.0282222,-0.0371 -0.0515408,-0.0919 -0.0521405,-0.12174 l -0.003528,-0.0543 0.10519833,-0.0778 0.10526889,-0.0778 0.17398999,-0.0206 0.17399,-0.0206 0.0706614,-0.0993 0.0706967,-0.0993 -0.022225,-0.0695 -0.022225,-0.0695 H 0.13875939 c -0.06240639,0 -0.12378972,-0.0103 -0.13634861,-0.0229 l -0.02293056,-0.0229 0.03711223,-0.0447 0.0371475,-0.0447 0.18432638,-0.0413 0.18436166,-0.0413 0.11373556,0.0567 c 0.0625122,0.0312 0.14259277,0.0567 0.17787055,0.0567 h 0.0642055 v 0.0695 0.0695 h 0.0271639 c 0.0148167,0 0.0588433,-0.0223 0.0976842,-0.0495 l 0.0707319,-0.0495 0.0499886,0.0316 0.050024,0.0316 0.3561998,7e-4 0.3562702,7.1e-4 v -0.0661 -0.0661 l 0.1011767,-0.0353 0.1011767,-0.0353 0.01905,-0.2201 c 0.010583,-0.12106 0.026105,-0.31656 0.034219,-0.43445 l 0.015169,-0.21434 -0.08636,-0.0217 -0.08636,-0.0217 -0.99596215,0.005 -0.9959622,0.005 -0.034925,-0.0552 -0.034925,-0.0552 0.0345722,-0.0532 0.0345722,-0.0532 1.06588276,-0.008 1.06584749,-0.008 0.026458,-0.0265 0.026811,-0.0265 0.029633,-0.59907 c 0.1087967,-1.48712 0.1038225,-0.79709 0.044556,0.27851 l -0.020108,0.35625 h 0.037148 c 0.020461,0 0.042968,-0.0196 0.050094,-0.0434 0.00741,-0.0239 0.024695,-0.0747 0.038735,-0.11296 l 0.025753,-0.0695 0.036407,0.0956 0.036371,0.0956 h 0.1089025 0.108973 l -0.015169,-0.10458 -0.015169,-0.10458 0.042968,-0.0518 0.043039,-0.0518 H 2.8462933 3.063675 l 0.047696,-0.0579 c 0.026458,-0.0318 0.1086556,-0.10223 0.1832328,-0.1564 l 0.1355372,-0.0985 h 0.2380897 0.2380897 v -0.0349 -0.0348 h 0.065052 0.065087 l 0.022225,-0.13815 0.022225,-0.13814 -0.022931,-0.2963 -0.022931,-0.2963 H 4.231333 4.4276185 v 0.17001 0.17001 l 0.590797,-0.005 0.5907969,-0.005 3.53e-5,-0.0261 3.53e-5,-0.0261 h 0.2606675 0.2607027 v 0.0348 0.0348 h 0.045297 0.045297 l 0.1110897,0.11461 0.1110897,0.11461 v 0.17522 0.17522 l 0.2867378,0.0436 c 0.1576916,0.024 0.4587522,0.0781 0.669043,0.12038 l 0.3823053,0.0768 0.1117953,0.55426 0.1118305,0.55425 -0.015169,0.0435 -0.015169,0.0434 H 7.5219042 7.0689728 v 0.0695 0.0695 h 0.047872 c 0.026458,0 0.067345,-0.0235 0.091158,-0.0521 l 0.04325,-0.0521 h 0.053869 c 0.029281,0 0.078528,0.0214 0.1086555,0.0475 l 0.054892,0.0475 0.8558036,0.0221 0.8558035,0.0222 0.043427,-0.0523 c 0.05521,-0.0666 0.1187803,-0.0666 0.1739194,-1.4e-4 l 0.043286,0.0521 0.1434041,9e-5 0.1434747,9e-5 0.2015773,0.12156 0.2016121,0.12155 h 0.132997 0.133068 l 0.117158,0.0471 c 0.06452,0.0259 0.254105,0.0764 0.421322,0.1121 l 0.30413,0.065 v 0.25283 0.25284 h 0.04378 0.04378 l 0.04269,-0.0684 0.04272,-0.0684 -0.03563,-0.0937 -0.03567,-0.0937 0.02858,-0.0285 c 0.01552,-0.0157 0.07775,-0.0383 0.138007,-0.0504 l 0.109537,-0.0219 0.02364,0.12424 0.02328,0.12423 0.116029,0.0685 0.115993,0.0684 0.02364,0.12458 0.02328,0.12459 -0.04223,0.102 -0.04226,0.10198 -0.08213,0.0538 -0.08216,0.0538 -0.114194,0.003 -0.114159,0.003 0.104281,0.028 c 0.05733,0.0154 0.147285,0.0378 0.19992,0.0497 l 0.09567,0.0217 0.107491,0.19047 0.107492,0.19047 0.100929,0.0719 0.100965,0.0719 v 0.11848 0.11848 l -0.08865,0.0581 -0.08869,0.0581 0.03655,0.0365 c 0.02011,0.0201 0.03655,0.0662 0.03655,0.10235 v 0.0658 l -0.06805,0.0178 -0.06805,0.0178 -0.03976,0.12057 -0.03983,0.12059 0.01623,0.0841 0.01623,0.0841 -0.04685,0.0389 -0.04685,0.0389 -0.05486,-0.0211 -0.05489,-0.0211 -0.136701,0.10988 -0.136702,0.10987 v 0.0426 0.0426 l -0.05214,0.02 -0.05214,0.02 -0.05278,-0.0203 -0.05274,-0.0203 -0.10167,0.0421 -0.101671,0.0421 -0.01058,0.0748 -0.01058,0.0748 -0.121673,0.002 -0.121602,0.002 -0.07825,0.0427 -0.07818,0.0427 v 0.0646 0.0646 l -0.05352,0.0205 -0.05348,0.0205 -0.05944,-0.0369 -0.05948,-0.0368 -0.09895,0.0378 -0.09892,0.0378 -0.01799,0.0691 -0.01799,0.0691 h -0.05853 c -0.0321,0 -0.07436,-0.0158 -0.0937,-0.0352 l -0.03528,-0.0352 -0.1194507,0.0398 -0.1194505,0.0399 -0.058526,0.0731 -0.058491,0.0731 -0.082726,-0.0778 -0.082797,-0.0778 h -0.09211 -0.092075 l -0.037253,0.0695 -0.037183,0.0695 h -0.045544 c -0.025047,0 -0.073836,-0.0313 -0.1084086,-0.0695 l -0.0629,-0.0695 H 8.96981 8.8992545 l -0.080469,0.0756 -0.080433,0.0756 -0.080433,-0.0756 -0.080433,-0.0756 h -0.074612 -0.074613 l -0.065617,0.0704 -0.065617,0.0704 -0.054716,-0.021 c -0.029986,-0.0115 -0.063182,-0.0432 -0.073625,-0.0704 l -0.01905,-0.0495 h -0.097578 -0.097649 l -0.059514,0.0695 c -0.032808,0.0382 -0.072884,0.0695 -0.089218,0.0695 -0.016581,0 -0.058032,-0.0313 -0.092604,-0.0695 l -0.062971,-0.0695 h -0.080116 -0.080151 l -0.065617,0.0704 -0.065617,0.0704 -0.054681,-0.021 c -0.029986,-0.0116 -0.063253,-0.0432 -0.07366,-0.0704 l -0.018697,-0.0495 H 7.1081312 7.0047673 l -0.0508,0.0725 -0.050765,0.0725 -0.072813,-0.039 c -0.040076,-0.0215 -0.072849,-0.0541 -0.072849,-0.0725 v -0.0335 H 6.6546354 6.5517301 l -0.070626,0.0758 -0.070626,0.0758 -0.080645,-0.0758 -0.080716,-0.0758 H 6.1634981 6.077879 l -0.058914,0.0688 -0.058879,0.0688 -0.050377,-0.0194 c -0.027517,-0.0107 -0.058949,-0.0416 -0.069427,-0.0688 l -0.018697,-0.0495 H 5.727146 5.632707 l -0.080433,0.0756 -0.080433,0.0756 -0.080433,-0.0756 -0.080469,-0.0756 H 5.236362 5.16175 l -0.065617,0.0704 -0.065617,0.0704 -0.054716,-0.021 c -0.029986,-0.0116 -0.063218,-0.0432 -0.07366,-0.0704 l -0.018697,-0.0495 H 4.785759 4.688145 l -0.06036,0.0705 -0.060325,0.0705 -0.069003,-0.0369 c -0.037959,-0.0203 -0.069039,-0.052 -0.069039,-0.0705 v -0.0336 H 4.3265137 4.2235732 l -0.070626,0.0758 -0.070591,0.0758 -0.08068,-0.0758 -0.08068,-0.0758 h -0.09211 -0.092145 l -0.037218,0.0695 c -0.020461,0.0382 -0.052388,0.0695 -0.071049,0.0695 -0.018697,0 -0.060678,-0.0313 -0.09338,-0.0695 l -0.059549,-0.0695 h -0.085584 -0.085619 l -0.080433,0.0756 -0.080433,0.0756 -0.080469,-0.0756 -0.080398,-0.0756 h -0.074613 -0.074612 l -0.065652,0.0704 -0.065617,0.0704 -0.05468,-0.021 c -0.029986,-0.0116 -0.063218,-0.0432 -0.07366,-0.0704 l -0.01905,-0.0495 h -0.094403 -0.094439 l -0.074789,0.0703 -0.074824,0.0703 z m 0.4184297,-0.26375 -0.023283,-0.0232 v 0.0463 0.0463 l 0.023283,-0.0232 0.023283,-0.0232 z m 0.3457575,-0.0811 0.022225,-0.13903 h 0.082444 0.082479 v 0.084 c 0,0.0462 0.00953,0.10878 0.021167,0.13902 l 0.021167,0.055 h 0.1158875 0.1157817 l 0.010583,-0.13005 0.010583,-0.13004 0.065299,-0.0124 0.06537,-0.0124 0.029633,0.0469 c 0.016581,0.0258 0.029986,0.0899 0.029986,0.14244 v 0.0956 h 0.1216025 0.121673 v -0.0538 -0.0538 l -0.1655233,-0.16552 -0.1655586,-0.16553 -0.067204,-0.15431 c -0.036971,-0.0849 -0.069815,-0.15871 -0.073025,-0.16409 -0.014111,-0.024 -0.14605,-0.0339 -0.1755775,-0.0132 -0.017992,0.0126 -0.063606,0.0929 -0.1013178,0.17843 l -0.068545,0.15547 -0.185173,0.18232 -0.1852084,0.18231 0.022225,0.0358 0.022225,0.0359 h 0.101847 0.1017764 z m 0.1069622,0.009 -0.015875,-0.0615 -0.00353,0.10427 -0.00353,0.10426 0.017286,-0.0428 c 0.00953,-0.0235 0.00988,-0.0704 0.00353,-0.10427 z m 0.9375069,0.0717 -0.023283,-0.0232 v 0.0463 0.0463 l 0.023283,-0.0232 0.023283,-0.0232 z m 1.290955,-0.0898 0.010583,-0.13033 h 0.082691 0.082726 l 0.010583,0.13033 0.010583,0.13034 0.1281289,0.0106 0.1281288,0.0106 0.010583,-0.13201 0.010936,-0.13201 0.06537,-0.0124 0.065334,-0.0124 0.029633,0.0469 c 0.01658,0.0258 0.029633,0.0899 0.029986,0.14244 v 0.0956 H 6.0073561 6.12596 l 0.023283,-0.13903 0.023636,-0.13901 H 6.20216 6.23144 l -0.1181805,-0.17559 -0.1181806,-0.17558 -0.035666,-0.12853 c -0.019756,-0.0707 -0.035772,-0.16372 -0.035877,-0.20673 v -0.0782 H 5.7368134 5.5501587 l -0.022225,0.16509 -0.022225,0.16509 -0.1022703,0.17835 -0.1022702,0.17834 -0.146932,0.12577 c -0.080821,0.0692 -0.159773,0.12576 -0.1754364,0.12576 -0.015522,0 -0.028575,0.0244 -0.028575,0.0542 v 0.0542 l 0.1303514,-0.0108 0.1303514,-0.0108 z m 0.1001889,0.018 -0.015875,-0.0615 -0.00353,0.10427 -0.00353,0.10427 0.017286,-0.0428 c 0.00953,-0.0235 0.00988,-0.0704 0.00353,-0.10426 z m 0.9382477,-0.0354 -0.015875,-0.0608 v 0.12164 0.12165 l 0.015875,-0.0608 c 0.00847,-0.0334 0.00847,-0.0882 0,-0.12164 z m 0.3236031,0.13591 c 0,-0.0247 -0.048789,-0.0556 -0.2172053,-0.13769 l -0.026106,-0.0127 v 0.0666 c 0,0.0904 0.028928,0.11296 0.1448153,0.11296 h 0.098496 z m 0.9268177,0.006 -0.023283,-0.0232 -0.023283,0.0232 -0.023283,0.0232 h 0.04632 0.046355 z m 0.1395589,-0.0529 -0.018344,-0.0456 -0.00353,0.0666 -0.00353,0.0666 0.021167,-0.021 0.021167,-0.021 -0.018344,-0.0456 z m 0.3651956,-0.0543 0.010583,-0.13034 h 0.086854 0.086889 l 0.010583,0.13034 0.010583,0.13033 h 0.1164872 0.1164872 l 0.023283,-0.137 0.023283,-0.13699 0.04826,-0.0107 0.048225,-0.0107 -0.10414,-0.15449 c -0.057256,-0.085 -0.11303,-0.18997 -0.1239308,-0.23335 l -0.020108,-0.0789 -0.065758,-0.0209 -0.065722,-0.0209 -0.036195,0.0224 c -0.020108,0.0123 -0.069744,0.0938 -0.1107722,0.18108 l -0.074612,0.15873 -0.1346553,0.14157 -0.1347258,0.14157 0.020108,0.0793 0.020108,0.0793 h 0.1188862 0.1188861 z m 0.1324327,0.0588 v -0.0716 l -0.034925,0.0215 c -0.01905,0.0118 -0.034925,0.044 -0.034925,0.0716 v 0.0501 h 0.034925 0.034925 z m 0.4410428,-0.0935 -0.015875,-0.0608 v 0.12164 0.12164 l 0.015875,-0.0608 c 0.00847,-0.0335 0.00847,-0.0882 0,-0.12165 z m 0.3349625,0.1421 0.023283,-0.023 -0.1196622,-0.0813 c -0.065758,-0.0447 -0.1282347,-0.0813 -0.1387828,-0.0813 -0.027164,0 -0.023989,0.15749 0.00423,0.18537 0.029633,0.03 0.2016125,0.0301 0.2314927,1.3e-4 z m -5.4448427,-0.0349 -0.023283,-0.0232 -0.023283,0.0232 -0.023283,0.0232 H 3.4572 3.503555 Z m 2.3402219,-0.01 c 0,-0.018 -0.015522,-0.0424 -0.034925,-0.0542 l -0.034925,-0.0215 v 0.0542 0.0542 h 0.034925 c 0.01905,0 0.034925,-0.0147 0.034925,-0.0327 z m 4.3595221,-0.0707 0.08915,-0.0339 v -0.053 c 0,-0.0692 -0.03457,-0.0654 -0.130281,0.0145 -0.122661,0.10231 -0.107527,0.12886 0.04113,0.0723 z m 0.187043,-0.15741 c -0.02187,-0.0479 -0.04431,-0.0824 -0.04999,-0.0767 -0.02117,0.0212 0.03069,0.16372 0.05973,0.16372 h 0.02963 z m -9.1905669,-0.0105 0.017286,-0.0281 -0.080257,-0.10062 -0.080257,-0.10062 -0.026458,0.0826 -0.0261056,0.0826 0.0630061,0.0461 c 0.072461,0.053 0.1079148,0.0578 0.1325034,0.018 z m 9.4550439,-0.0179 0.06287,-0.046 -0.05867,-0.11348 -0.05867,-0.11349 0.06329,-0.0478 0.06325,-0.0478 0.09098,0.10907 0.09098,0.10906 0.108903,-0.0451 c 0.05987,-0.0248 0.108832,-0.057 0.108832,-0.0715 0,-0.0145 -0.06745,-0.0434 -0.14986,-0.0641 l -0.149825,-0.0377 -0.122237,-0.0829 -0.122238,-0.0829 -0.0877,0.19848 -0.08774,0.19849 0.04812,0.0918 0.04812,0.0918 h 0.04438 c 0.02469,0 0.07267,-0.0207 0.107209,-0.046 z m 0.109396,-0.18946 -0.06279,-0.06 0.04163,0.0812 0.04159,0.0812 0.02117,-0.0212 0.02117,-0.0212 z m -9.78175102,-0.0165 0.041663,-0.0782 -0.0578202,0.0477 c -0.03175,0.0263 -0.0578203,0.0614 -0.0578203,0.0782 0,0.0531 0.0306917,0.0332 0.0739775,-0.0477 z m -0.0777169,-0.0904 0.0705555,-0.0991 -0.0208139,-0.12686 -0.0208139,-0.12684 h -0.0649464 -0.0649817 v -0.0348 -0.0348 H 0.6940316 0.60714243 v 0.0324 c 0,0.0178 0.0310445,0.0423 0.0695325,0.0545 0.0885825,0.0281 0.0874889,0.0654 -0.005644,0.1912 l -0.0750358,0.1015 0.0837142,0.0697 c 0.0460375,0.0383 0.0944033,0.0702 0.10742083,0.0709 0.0130528,7e-4 0.0554214,-0.0434 0.0942622,-0.0979 z m -0.28239861,-0.17899 c 0.0239889,-0.0382 0.0378883,-0.0695 0.0310445,-0.0695 -0.006703,0 -0.0406047,0.0313 -0.075177,0.0695 l -0.0629356,0.0695 h 0.03175 c 0.0176389,0 0.0513292,-0.0313 0.0751769,-0.0695 z m -0.16894527,-0.0908 c -0.0505178,-0.0609 -0.0827264,-0.0371 -0.0534106,0.0394 l 0.0215194,0.0558 0.0367242,-0.0227 0.0366889,-0.0227 z m -0.13578416,-0.083 c 0,-0.0191 -0.007056,-0.0348 -0.0151695,-0.0348 -0.008467,0 -0.0250472,0.0157 -0.03683,0.0348 l -0.0215194,0.0347 h 0.0367947 c 0.0201083,0 0.0367947,-0.0157 0.0367947,-0.0347 z M 12.146468,223.83848 c 0,-0.0191 -0.01658,-0.0348 -0.03687,-0.0348 h -0.03679 l 0.02152,0.0348 c 0.01164,0.0191 0.02822,0.0348 0.03679,0.0348 0.0085,0 0.01517,-0.0157 0.01517,-0.0348 z m -9.0364378,-2.50244 v -0.13903 h 0.052105 c 0.067486,0 0.065934,-0.0314 -0.00529,-0.11022 l -0.057538,-0.0635 H 2.9548785 2.8104866 l -0.067416,-0.051 -0.067486,-0.051 -0.264795,-0.001 -0.2648302,-0.001 -0.021519,0.13034 c -0.011994,0.0717 -0.021872,0.1968 -0.022225,0.27804 v 0.14771 h 0.5039431 0.503943 z"
       id="G-38t"
       style="stroke-width:0.13136" />
  </g>
</svg>
