<?xml version="1.0" encoding="UTF-8" standalone="no"?>
<!-- Created with Inkscape (http://www.inkscape.org/) -->

<svg
   width="54.032307mm"
   height="19.47753mm"
   viewBox="0 0 54.032307 19.47753"
   version="1.1"
   id="svg1"
   sodipodi:docname="inkporter-svg-y1xb6wpp.svg"
   xmlns:inkscape="http://www.inkscape.org/namespaces/inkscape"
   xmlns:sodipodi="http://sodipodi.sourceforge.net/DTD/sodipodi-0.dtd"
   xmlns="http://www.w3.org/2000/svg"
   xmlns:svg="http://www.w3.org/2000/svg">
  <sodipodi:namedview
     id="namedview1"
     pagecolor="#ffffff"
     bordercolor="#666666"
     borderopacity="1.0"
     inkscape:showpageshadow="2"
     inkscape:pageopacity="0.0"
     inkscape:pagecheckerboard="0"
     inkscape:deskcolor="#d1d1d1"
     inkscape:document-units="mm"
     inkscape:zoom="0.72782688"
     inkscape:cx="396.38547"
     inkscape:cy="561.25984"
     inkscape:window-width="1920"
     inkscape:window-height="1017"
     inkscape:window-x="-8"
     inkscape:window-y="770"
     inkscape:window-maximized="1"
     inkscape:current-layer="layer1" />
  <defs
     id="defs1" />
  <g
     inkscape:label="Layer 1"
     inkscape:groupmode="layer"
     id="layer1"
     transform="translate(-165.26728,-115.09377)">
    <g
       id="G-88onTrain-single"
       transform="matrix(0.26458333,0,0,0.26458333,-362.77985,-6.8744923)">
      <path
         id="path1752-4-8"
         d="m 2121.6218,515.17469 78.3635,-1e-5 v 8.45277 l -9.4141,3e-5 v 5.1866 l -2.0812,-3e-5 c -0.8371,3.39135 -3.8763,5.77677 -7.3694,5.78421 -3.4927,-0.008 -6.5312,-2.3933 -7.3682,-5.78422 l -6.318,6e-5 c -0.8371,3.39129 -3.8762,5.77667 -7.3693,5.78415 -3.4927,-0.008 -6.5312,-2.39328 -7.3682,-5.78419 l -2.2775,6e-5 v 2.3059 l -102.3957,1e-5 v -1.72889 l -3.9754,-4e-5 c -1.032,3.10406 -3.9329,5.20083 -7.204,5.20717 -3.2707,-0.007 -6.1708,-2.10359 -7.2027,-5.20721 l -6.65,8e-5 c -1.0319,3.10366 -3.9322,5.20033 -7.2029,5.20713 -4.2012,1.3e-4 -7.6071,-3.4054 -7.6075,-7.60661 7e-4,-1.09527 0.238,-2.17747 0.6955,-3.1726 h -13.108 l 10e-5,-8.26005 75.726,-6e-5 z"
         sodipodi:nodetypes="cccccccccccccccccccccccccc" />
      <path
         style="fill:#000000;stroke-width:0.100227"
         d="m 2078.4046,516.08036 c 0.1792,-0.0778 0.3257,-0.20981 0.3258,-0.29319 -10e-5,-0.0835 0.088,-0.20106 0.2,-0.25915 0.16,-0.0856 0.2005,-0.0762 0.2005,0.0464 4e-4,0.18257 0.01,0.18385 0.3579,0.0507 0.2659,-0.10107 0.2696,-0.11412 0.1998,-0.72664 -0.098,-0.85747 -0.1018,-0.67299 0.062,-2.67839 0.072,-0.87929 0.1444,-1.27668 0.2424,-1.33297 0.1602,-0.092 0.1895,-0.62886 0.039,-0.72162 -0.1768,-0.10932 -0.1079,-0.2283 0.193,-0.3332 0.37,-0.1291 0.5378,-0.39086 0.8142,-1.27048 0.121,-0.38601 0.309,-0.91198 0.4171,-1.16912 l 0.1967,-0.46752 0.3463,0.20438 c 0.2396,0.14136 0.4484,0.18783 0.6773,0.15068 l 0.331,-0.0539 0.4974,1.04877 0.4975,1.04882 0.1414,0.24168 c 0.049,0.0297 0.1877,0.32516 0.3081,0.65524 0.2008,0.55092 0.7345,1.19733 0.9884,1.19732 0.087,9e-5 0.2916,0.39585 0.8565,1.6537 0.3713,0.82708 0.4512,1.10884 0.5108,1.80087 0.028,0.32895 0.099,0.656 0.158,0.72661 0.1288,0.15537 0.3828,0.17017 0.3828,0.0226 -2e-4,-0.0585 0.049,-0.0764 0.1,-0.0445 0.055,0.0336 0.1003,0.14446 0.1002,0.24529 0,0.20826 0.5148,0.34927 0.9462,0.25926 0.1412,-0.0295 0.3694,-0.0769 0.5071,-0.10562 0.1394,-0.0288 0.2506,-0.12211 0.2506,-0.20997 0,-0.24185 -0.3223,-0.73362 -0.5224,-0.79713 -0.2158,-0.0685 -0.6803,-0.83202 -0.6803,-1.11811 -2e-4,-0.11299 -0.068,-0.33441 -0.1497,-0.49228 -0.082,-0.15796 -0.15,-0.37822 -0.1503,-0.48956 -7e-4,-0.29342 -0.396,-1.67453 -0.5225,-1.82705 -0.066,-0.0794 -0.084,-0.35406 -0.047,-0.71209 0.064,-0.61171 -0.022,-0.81644 -0.344,-0.81643 -0.1401,1e-5 -0.1617,-0.0685 -0.1196,-0.38237 0.044,-0.3268 0.015,-0.40617 -0.1985,-0.54608 -0.2892,-0.18953 -0.6232,-0.84925 -0.7223,-1.42688 -0.038,-0.22057 -0.1922,-0.71995 -0.3432,-1.10976 -0.2313,-0.59743 -0.2545,-0.73913 -0.1475,-0.90208 0.07,-0.10615 0.1449,-0.32834 0.1662,-0.49395 l 0.04,-0.30056 -0.067,-0.45022 c -0.073,-0.17586 -0.094,-0.41418 -0.051,-0.57633 0.097,-0.36888 0.1055,-0.84269 0.019,-1.02913 l -0.1155,-0.30385 -0.1816,-0.35374 c -0.1,-0.19459 -0.2448,-0.37813 -0.3223,-0.40781 -0.1336,-0.0516 -1.2985,-1.83365 -1.2332,-1.88688 l -0.1183,-0.0824 -0.5066,-0.24271 c -0.6176,-0.29515 -1.3617,-0.52779 -1.6993,-0.53027 -0.1646,-1e-5 -0.2883,-0.0833 -0.3605,-0.23909 0,0 -0.2233,-0.0755 -0.3914,-0.86372 -0.1726,-0.81804 -0.6203,-1.20836 -1.3746,-1.19825 -0.4664,0.0106 -1.1072,0.253 -1.2645,0.48696 l -0.2984,0.68306 c -0.024,0.21833 -0.1439,0.48928 -0.2845,0.6391 -0.2614,0.27915 -0.2106,0.39818 0.226,0.53167 0.1606,0.0486 0.1998,0.12421 0.1635,0.31347 -0.026,0.13688 0,0.30903 0.063,0.38241 0.083,0.0997 0.061,0.23786 -0.088,0.54587 -0.1112,0.22599 -0.1995,0.61132 -0.1992,0.85505 l 0.1003,0.639 -7e-4,0.24068 c -5e-4,0.13234 -0.028,0.47101 -0.062,0.75241 l -0.062,0.51168 0.024,0.2295 1e-4,0.35739 c 10e-5,0.19669 0.044,0.4392 0.097,0.53929 l 0.2768,0.38587 0.1101,0.31559 c 0.061,0.17358 0.2012,0.43153 0.3126,0.57325 0.1115,0.1417 0.1808,0.29302 0.1541,0.33613 l 0.3322,0.51502 c 0.1835,0.28993 0.1886,0.3496 0.06,0.71421 -0.077,0.21856 -0.1401,0.48827 -0.1403,0.59858 0,0.17426 -0.3706,1.42886 -0.6009,2.03417 l 0.03,0.31222 -0.082,0.29218 c -0.094,0.33331 -0.092,0.38563 0.048,1.54525 0.1847,1.52898 0.255,2.35109 0.2211,2.58959 -0.031,0.21884 -0.7173,0.97941 -1.1905,1.3192 -0.1154,0.0826 -0.2359,0.26857 -0.2681,0.41315 -0.054,0.2402 -0.027,0.26787 0.3157,0.32467 0.5721,0.0945 0.9439,0.0701 1.3016,-0.0853 z"
         id="path3390-8-4-90-9"
         sodipodi:nodetypes="cssssssssssscssccccsssssssssssssscsssssssssccsccssccscccsccsssssccccccsccssccssccsssssscc" />
      <path
         style="fill:#000000;stroke-width:0.100227"
         d="m 2143.7802,516.15148 c 0.1654,-0.0859 0.4022,-0.25149 0.5262,-0.36758 0.124,-0.11623 0.2256,-0.15831 0.2255,-0.0937 -4e-4,0.17812 0.1766,0.14149 0.4009,-0.0827 0.2976,-0.29754 0.2598,-0.94091 -0.1086,-1.85419 -0.043,-0.11066 -0.176,-0.56118 -0.2918,-1.00227 -0.1158,-0.44113 -0.2938,-0.98222 -0.3952,-1.20272 -0.2252,-0.48927 -0.407,-1.03507 -0.4071,-1.21894 l -0.1417,-1.18549 c 0.032,-0.12637 -0.013,-0.36759 -0.1003,-0.5358 -0.1052,-0.21364 -0.1311,-0.37718 -0.071,-0.53702 0.048,-0.12689 0.1201,-0.47919 0.1601,-0.78239 0.04,-0.30315 0.1382,-0.83942 0.2183,-1.19167 0.095,-0.41985 0.1218,-0.83197 0.076,-1.19614 -0.066,-0.52809 -0.055,-0.5669 0.2161,-0.78323 l 0.2853,-0.22753 -0.2275,-0.40559 c -0.1263,-0.22489 -0.1785,-0.40553 -0.1172,-0.4055 0.1576,-1e-5 0.8719,-0.74933 0.831,-0.87185 l -0.3028,-0.57652 c -0.1791,-0.16466 -0.3257,-0.35158 -0.3257,-0.41538 -2e-4,-0.0637 -0.07,-0.17437 -0.1566,-0.24558 l -0.2621,-0.18437 -0.4673,-0.43506 c -0.2571,-0.23924 -0.5672,-0.50414 -0.6891,-0.58859 -0.183,-0.12681 -1.033,-1.75971 -1.0301,-1.97928 l -0.1162,-0.14318 -0.6518,-0.43707 c -0.3585,-0.24036 -0.7329,-0.43703 -0.8321,-0.43702 -0.1919,2e-5 -0.4409,-0.23171 -0.3485,-0.3241 0.031,-0.0304 -0.015,-0.22335 -0.1009,-0.42913 -0.086,-0.20571 -0.1563,-0.55076 -0.1563,-0.76701 0,-0.49265 -0.3054,-0.82417 -0.9155,-0.99172 -0.361,-0.0993 -0.5515,-0.0924 -1.089,0.0395 0,0 -0.5789,0.0853 -0.7443,0.51448 -0.03,0.11243 -0.055,0.32485 -0.056,0.47245 -8e-4,0.14778 -0.069,0.33616 -0.1517,0.41884 -0.1887,0.18877 -0.1904,0.26491 -0.01,0.26491 0.2102,-5e-5 0.2639,0.1385 0.192,0.49646 -0.3238,0.58474 -0.048,0.27249 0.3296,0.90504 0.1777,0.32692 0.2228,0.35067 0.6164,0.32558 0.376,-0.0239 0.4358,0 0.5231,0.23199 0.055,0.14241 0.099,0.38867 0.099,0.54731 1e-4,0.15856 0.045,0.31606 0.1,0.35035 0.1817,0.11229 0.1113,0.33461 -0.09,0.28231 -0.1574,-0.0413 -0.2025,0.0225 -0.2613,0.37122 l -0.071,0.42102 -0.08,0.54489 c -0.029,0.62743 -0.01,0.71869 0.2094,0.92185 0.1354,0.12557 0.1695,0.21752 0.099,0.26138 -0.06,0.0372 -0.4129,-0.20737 -0.7843,-0.54326 -0.7679,-0.69461 -2.5797,-1.69775 -2.7532,-1.52425 -0.07,0.0703 0.011,0.30772 0.2537,0.75161 l 0.6255,1.03358 c 0.1254,0.15747 0.2563,0.44375 0.2891,0.63704 0.065,0.37564 0.6311,0.90205 0.9697,0.90206 l 0.4408,0.3192 0.4328,0.49033 0.4328,0.49029 0.1241,0.10041 0.3321,0.32182 c 0.1829,0.17685 0.332,0.37736 0.332,0.44522 -10e-5,0.0678 0.155,0.25149 0.345,0.40777 l 0.345,0.28435 -0.1029,0.75025 c -0.057,0.41263 -0.1939,1.14273 -0.3049,1.62231 l -0.2019,0.8721 -0.078,0.21029 c 0.1071,1.3e-4 0.212,2.9965 0.1364,3.90304 -0.058,0.70028 -0.1022,0.84463 -0.2939,0.97023 l -0.5855,0.32021 c -0.077,0.0767 -0.2904,0.17016 -0.475,0.20797 -0.2434,0.0495 -0.3621,0.14351 -0.4316,0.34092 -0.1281,0.36424 -0.021,0.45053 0.656,0.53008 0.4042,0.0476 0.6544,0.0231 0.9007,-0.0872 0.4922,-0.2207 0.8923,-0.29595 0.8924,-0.16793 -3e-4,0.0651 0.1695,0.0958 0.4259,0.0772 0.4197,-0.0301 0.4264,-0.0369 0.4557,-0.43423 0.016,-0.22186 -0.035,-0.55781 -0.1145,-0.74651 -0.1205,-0.2878 -0.1229,-0.37633 -0.011,-0.54877 0.1185,-0.18257 0.3769,-1.95763 0.3909,-2.68625 0,-0.15132 0.039,-0.27562 0.081,-0.27562 0.041,8e-5 0.075,-0.12986 0.075,-0.28839 0,-0.15859 0.062,-0.33963 0.1372,-0.40226 0.1118,-0.0929 0.1471,-0.0263 0.1907,0.36251 0.042,0.37367 0.1204,0.53199 0.3623,0.73601 0.1705,0.14261 0.3103,0.31436 0.3103,0.38189 -2e-4,0.0676 0.1087,0.22087 0.236,0.34354 0.3204,0.29942 1.2248,2.03813 1.2943,2.48879 0.05,0.32296 0.015,0.40221 -0.3112,0.70876 -0.2022,0.1898 -0.4909,0.42138 -0.6416,0.51462 -0.322,0.19917 -0.4745,0.64538 -0.2657,0.77755 0.2282,0.14449 1.2182,0.10177 1.542,-0.0667 z"
         id="path1670-0-1-5"
         sodipodi:nodetypes="cssssssccsssssscssccsccssccssssssccsssccssssssccssssccscccccssscssccsccssssssscscssssssssssscc" />
      <path
         id="path54409-0-2-0-5"
         style="fill:#000000;stroke-width:0.0453681"
         d="m 2130.8713,516.34204 c -0.075,-0.0184 -0.1981,-0.0655 -0.2738,-0.10493 -0.129,-0.0674 -0.1385,-0.0889 -0.1451,-0.35371 -0.01,-0.20395 0.017,-0.33078 0.083,-0.45946 0.05,-0.0978 0.1109,-0.29421 0.1358,-0.43663 0.025,-0.14236 0.069,-0.30549 0.097,-0.3624 0.039,-0.0784 0.038,-0.21736 -0.01,-0.57284 -0.031,-0.25826 -0.043,-0.56377 -0.026,-0.67915 0.029,-0.19668 0.025,-0.20979 -0.071,-0.2097 -0.2212,10e-6 -0.2828,-0.26992 -0.1503,-0.65872 0.071,-0.20942 0.071,-0.22367 -0.01,-0.26894 -0.3769,-0.22266 -0.3654,-0.20347 -0.3597,-0.59471 0,-0.24045 0.038,-0.45018 0.1021,-0.63084 0.1411,-0.3953 0.1258,-0.53806 -0.1096,-1.02164 -0.235,-0.47746 -0.4355,-1.13352 -0.5477,-1.77005 -0.1287,-0.73069 -0.1419,-0.79601 -0.1477,-0.73051 -0.028,0.30851 -0.26,1.45353 -0.3627,1.78697 -0.071,0.22991 -0.1643,0.54044 -0.2078,0.69018 -0.084,0.29063 -0.4183,1.14935 -0.4761,1.22492 -0.095,0.12406 -0.086,0.27671 0.028,0.47126 0.1177,0.20057 0.1174,0.20237 0.035,0.35592 -0.045,0.0847 -0.1901,0.26569 -0.3209,0.40179 -0.2116,0.22019 -0.2351,0.26393 -0.2134,0.39732 0.021,0.12655 0,0.16801 -0.1147,0.26688 -0.076,0.0644 -0.1603,0.12414 -0.1861,0.1327 -0.026,0.008 -0.067,0.1586 -0.093,0.33324 -0.025,0.17478 -0.059,0.38595 -0.074,0.46952 -0.021,0.11007 2e-4,0.20888 0.075,0.35891 0.086,0.17423 0.1042,0.28404 0.1078,0.68588 v 0.47883 l -0.1941,0.072 c -0.1068,0.0396 -0.1836,0.0826 -0.1709,0.0954 0.017,0.0116 -0.123,0.005 -0.3016,-0.0155 -0.3471,-0.0415 -0.4932,-0.0203 -0.413,0.06 0,0 -0.031,0.10186 -0.031,0.14672 0,0.10876 -0.7432,0.22757 -1.2566,0.20075 -0.3911,-0.0204 -0.4438,-0.0337 -0.5184,-0.1308 -0.1086,-0.14118 -0.1063,-0.29956 0.01,-0.48499 0.093,-0.15309 0.3927,-0.32341 0.5716,-0.32531 0.1109,-10e-4 0.3369,-0.23485 0.7039,-0.72687 0.2325,-0.31186 0.2992,-0.47054 0.3336,-0.79394 0.01,-0.05 0.025,-0.19581 0.044,-0.3242 0.032,-0.21334 0.026,-0.23607 -0.061,-0.26404 -0.1501,-0.0476 -0.1693,-0.23526 -0.057,-0.55652 l 0.099,-0.28435 -0.093,-0.18815 c -0.1038,-0.21073 -0.093,-0.3412 0.058,-0.55335 0.094,-0.13224 0.094,-0.13488 0.012,-0.47909 -0.1464,-0.61018 -0.082,-1.23069 0.231,-2.2289 0.1356,-0.43248 0.1703,-0.62654 0.2021,-1.1342 0.021,-0.33686 0.07,-0.76561 0.1072,-0.95275 0.093,-0.46291 0.38,-1.5844 0.4404,-1.72362 0.027,-0.0624 0.069,-0.30545 0.093,-0.54053 0.024,-0.23511 0.066,-0.46933 0.093,-0.5204 0.08,-0.15008 0.221,-0.8013 0.2316,-1.07172 0.01,-0.16706 0.047,-0.31711 0.1228,-0.45371 0.1441,-0.26012 0.127,-0.36345 -0.089,-0.53702 l -0.1738,-0.14022 -0.095,0.22044 c -0.1414,0.32877 -0.3172,0.45659 -0.6276,0.45657 -0.4048,3e-5 -0.5831,-0.0757 -0.7928,-0.3368 -0.2801,-0.34948 -0.3255,-0.48686 -0.2931,-0.90561 0.026,-0.3432 0.022,-0.36595 -0.1078,-0.55803 -0.074,-0.11013 -0.1352,-0.22705 -0.1383,-0.25827 -4e-4,-0.0325 -0.057,-0.13868 -0.136,-0.23088 -0.1457,-0.18275 -0.1691,-0.28927 -0.082,-0.37575 0.041,-0.0412 -0.1448,-0.24886 -0.8054,-0.90164 -0.4723,-0.46644 -1.0098,-0.98895 -1.1942,-1.16117 -0.2096,-0.19568 -0.4521,-0.49051 -0.6465,-0.78599 -0.3107,-0.47254 -0.3694,-0.63486 -0.2457,-0.68234 0.089,-0.0339 1.1082,0.50757 1.2499,0.66461 0.1257,0.13981 0.5305,0.50325 0.907,0.81529 0.1356,0.11226 0.5086,0.44913 0.829,0.74858 0.3205,0.29942 0.6479,0.56664 0.7276,0.59383 0.083,0.0281 0.1518,0.0865 0.1607,0.13618 0.017,0.0958 0.1811,0.2909 0.2435,0.29097 0.055,1.6e-4 0.2589,-0.23757 0.2606,-0.3036 9e-4,-0.0299 0.04,-0.12148 0.089,-0.20416 0.048,-0.0824 0.1275,-0.27458 0.1768,-0.42675 0.1192,-0.368 0.2152,-0.54871 0.4075,-0.76675 0.2093,-0.23739 0.3338,-0.29039 0.6879,-0.29284 0.2823,-10e-4 0.3005,-0.009 0.4877,-0.19295 0.107,-0.10507 0.1946,-0.21967 0.1946,-0.25479 -4e-4,-0.0349 0.083,-0.13934 0.1836,-0.23164 0.1686,-0.15415 0.1796,-0.17805 0.1352,-0.2947 -0.035,-0.094 -0.071,-0.12109 -0.1359,-0.10396 -0.1154,0.0303 -0.5081,-0.0524 -0.5818,-0.12254 -0.048,-0.0448 -0.038,-0.0781 0.026,-0.16576 0.1933,-0.2523 0.2443,-0.48474 0.2106,-0.96011 -0.029,-0.40699 -0.022,-0.47206 0.076,-0.72239 0.082,-0.20962 0.1512,-0.30474 0.2896,-0.39959 0.2616,-0.17942 0.6052,-0.2789 0.9846,-0.28508 0.3681,-0.005 0.6652,0.0967 0.8353,0.28863 0.09,0.10217 0.3366,0.68373 0.3348,0.7979 -3e-4,0.0289 0.066,0.10349 0.1452,0.1659 0.141,0.10983 0.1449,0.12452 0.1471,0.46851 v 0.35479 l -0.2154,0.1069 c -0.1186,0.0588 -0.2156,0.13534 -0.2155,0.17018 3e-4,0.0346 -0.03,0.0631 -0.067,0.0631 -0.037,-5e-5 -0.079,0.0562 -0.094,0.12482 -0.014,0.0683 -0.045,0.17165 -0.069,0.22896 -0.023,0.0573 -0.042,0.17266 -0.042,0.25633 1e-4,0.23058 0.3869,0.56853 0.7764,0.67844 0.6939,0.19576 0.7295,0.21456 0.9082,0.4809 0.092,0.13724 0.1926,0.34146 0.2241,0.45363 0.031,0.11244 0.1435,0.37761 0.2491,0.58984 0.2524,0.51263 0.3956,0.88057 0.5422,1.4291 0.067,0.2494 0.1649,0.56597 0.218,0.70321 0.1404,0.36219 0.1569,0.84182 0.038,1.07556 -0.1641,0.32168 -0.3068,0.44411 -0.865,0.74215 -0.6128,0.32724 -0.6122,0.32649 -0.6654,0.86622 -0.025,0.25373 -0.056,0.3514 -0.1361,0.43172 -0.099,0.0985 -0.1013,0.11932 -0.056,0.40927 0.045,0.28555 0.032,0.94904 -0.035,1.78738 -0.019,0.23937 0,0.53698 0.066,0.97539 0.1508,1.02277 0.1669,1.71042 0.055,2.35162 l -0.095,0.5411 0.1185,0.17041 c 0.2321,0.33571 0.2254,0.75084 -0.02,1.18508 -0.065,0.11525 -0.063,0.13883 0.03,0.33013 0.1215,0.24684 0.1208,0.27019 0.028,0.70267 -0.04,0.18717 -0.081,0.3811 -0.09,0.43101 -0.01,0.0497 -0.078,0.13149 -0.1535,0.1812 -0.1036,0.0686 -0.1357,0.12345 -0.1331,0.22686 0,0.075 -0.01,0.37112 -0.017,0.65807 -0.016,0.41056 -0.01,0.55072 0.049,0.6578 0.076,0.15462 0.1147,0.48485 0.1043,0.95106 -0.01,0.40649 -0.083,0.49273 -0.5071,0.58915 -0.3332,0.0759 -0.4,0.0788 -0.6091,0.0279 z m 1.4291,-15.20443 c 0,-0.0182 -0.071,-0.14448 -0.1529,-0.28558 l -0.153,-0.2543 -0.03,0.18548 c -0.017,0.10214 -0.06,0.24459 -0.098,0.31683 -0.067,0.12964 -0.066,0.13139 0.055,0.13364 0.069,5.2e-4 0.1566,0.0203 0.194,0.0445 0.049,0.0311 0.084,0.0221 0.1247,-0.0321 0.031,-0.0416 0.057,-0.0901 0.057,-0.10698 z" />
      <path
         id="path42018-2-3-9-9-6-5"
         style="fill:#000000;stroke-width:0.0250505"
         sodipodi:type="inkscape:offset"
         inkscape:radius="-0.1"
         inkscape:original="M 450.57031 883.45312 C 450.52212 883.45312 450.34699 883.49843 450.18164 883.55273 C 450.01628 883.60703 449.7878 883.67518 449.67383 883.70508 C 449.55987 883.73508 449.41963 883.79273 449.36133 883.83203 C 449.30307 883.87149 449.17648 883.93325 449.08008 883.96875 C 448.74434 884.09233 448.55738 884.2788 448.45898 884.5918 C 448.41348 884.7398 448.40425 884.82321 448.40625 885.0957 C 448.40925 885.40531 448.41415 885.43212 448.49805 885.64648 C 448.55536 885.79281 448.60055 885.96958 448.62695 886.15039 C 448.67291 886.46614 448.71561 886.62732 448.81641 886.86133 C 448.85491 886.95088 448.8963 887.05856 448.9043 887.10156 C 448.9198 887.17455 448.91397 887.18205 448.82227 887.21875 C 448.76818 887.24025 448.71503 887.27623 448.70703 887.29883 C 448.6993 887.32143 448.70098 887.41837 448.70898 887.51367 L 448.72461 887.6875 L 448.60938 887.6875 C 448.54561 887.6875 448.30923 887.66974 448.08594 887.64844 C 447.77373 887.61874 447.64166 887.61632 447.50977 887.63672 C 447.34413 887.66232 447.25574 887.64694 447.21484 887.58594 C 447.20814 887.57564 447.21221 887.3594 447.22461 887.10547 C 447.24461 886.69245 447.24126 886.60435 447.19336 886.26758 L 447.13867 885.89062 L 447.19336 885.74414 C 447.26696 885.5439 447.27513 885.06214 447.20703 884.9375 C 447.14847 884.83027 446.99951 884.75873 446.80078 884.74023 C 446.65303 884.72643 446.62546 884.73144 446.47266 884.80664 C 446.31093 884.88634 446.30323 884.8869 446.24023 884.8457 C 445.88145 884.61107 445.06341 884.47041 444.75391 884.58984 C 444.59262 884.65203 444.55859 884.70684 444.55859 884.91211 C 444.55859 885.06454 444.56587 885.08957 444.63477 885.16797 C 444.69705 885.23885 444.74343 885.26192 444.88867 885.29492 C 445.10331 885.34374 445.20863 885.386 445.31641 885.4668 C 445.36119 885.50035 445.48636 885.56919 445.59375 885.62109 C 445.70114 885.67294 445.81099 885.74314 445.83789 885.77734 C 445.90329 885.86054 445.89917 885.98739 445.82617 886.19922 C 445.76997 886.36238 445.76621 886.41622 445.75391 887.11133 C 445.74291 887.73003 445.73301 887.87293 445.69531 887.98828 C 445.66461 888.08263 445.6509 888.20541 445.65039 888.37695 C 445.64979 888.60103 445.65786 888.64419 445.72266 888.78516 C 445.82324 889.00408 446.00118 889.16265 446.24609 889.25195 C 446.34911 889.28947 446.45848 889.34711 446.48828 889.37891 C 446.57556 889.47182 446.67837 889.86815 446.78906 890.53906 C 446.81706 890.70946 446.85485 890.88473 446.87305 890.92773 C 446.90066 890.99305 447.06552 891.22563 447.26953 891.48438 C 447.29349 891.51477 447.44398 891.79062 447.60352 892.09766 C 447.76306 892.40467 447.93468 892.71792 447.98438 892.79492 C 448.19687 893.12462 448.2491 893.23288 448.25 893.34961 C 448.2516 893.50996 448.15274 893.62867 447.95898 893.70117 C 447.81531 893.75489 447.68945 893.86781 447.68945 893.94141 C 447.68945 894.00133 447.75444 894.107 447.83984 894.1875 C 447.9314 894.27389 448.00114 894.39921 448.02734 894.52539 C 448.05812 894.67373 448.18814 894.92009 448.27344 894.99219 C 448.40083 895.09991 448.68446 895.22158 448.91602 895.26758 C 449.48472 895.38055 450.0657 895.17325 450.25781 894.78906 C 450.32961 894.64344 450.3331 894.62732 450.33398 894.27539 C 450.33581 893.87156 450.34905 893.82651 450.50586 893.67578 C 450.56586 893.61805 450.5957 893.56708 450.5957 893.52148 C 450.5957 893.43198 450.49182 893.30874 450.38477 893.27344 L 450.29883 893.24609 L 450.38672 893.07227 L 450.47656 892.89844 L 450.66211 892.89844 C 450.87336 892.89844 450.99919 892.85622 451.05859 892.76562 C 451.08087 892.73161 451.15436 892.57453 451.22266 892.41797 C 451.29089 892.26137 451.3598 892.11204 451.375 892.08594 C 451.44443 891.96674 451.52317 891.70643 451.57227 891.43164 C 451.66493 890.91283 451.69708 890.80001 451.77148 890.72461 C 451.80911 890.68635 451.97894 890.52024 452.15039 890.35352 C 452.41103 890.10004 452.48494 890.04236 452.5957 890.00586 C 452.73739 889.95919 452.76849 889.92233 452.83789 889.73438 C 452.88029 889.62308 452.8804 889.60861 452.8418 889.50781 C 452.81916 889.44854 452.74458 889.33335 452.67578 889.25195 C 452.53268 889.08278 452.52616 889.03992 452.60156 888.80664 C 452.81089 888.1588 452.83297 888.07636 452.88867 887.76172 C 452.95932 887.36343 452.92444 887.18831 452.74414 887.05078 C 452.64178 886.97248 452.58115 886.96936 452.46289 887.03906 C 452.38085 887.08736 452.36359 887.08965 452.27539 887.06055 C 452.15532 887.02085 451.87237 887.04036 451.73438 887.09766 C 451.68087 887.11993 451.59417 887.16773 451.54297 887.20312 C 451.49174 887.23862 451.43311 887.25995 451.41211 887.25195 C 451.37941 887.23943 451.38477 887.20604 451.45117 887.0293 C 451.60983 886.60705 451.60169 886.65138 451.55859 886.50586 C 451.51969 886.37483 451.51993 886.37352 451.57812 886.32812 C 451.95722 886.03269 452.02694 885.90486 451.96484 885.60742 C 451.92697 885.42576 451.86825 885.29461 451.73438 885.0918 L 451.64844 884.96484 L 451.64844 884.47461 C 451.64844 884.0451 451.64397 883.97939 451.60547 883.93359 C 451.58136 883.9049 451.35933 883.78546 451.11133 883.66797 L 451.10938 883.66797 C 450.81098 883.52653 450.62841 883.45314 450.57031 883.45312 z M 448.03906 889.60547 C 448.04813 889.59987 448.0992 889.61176 448.1543 889.63086 C 448.20938 889.65006 448.29791 889.66582 448.34961 889.66602 C 448.45601 889.66645 448.45665 889.67281 448.40625 889.85156 C 448.38635 889.92165 448.35408 890.10104 448.33398 890.25 C 448.28752 890.59499 448.25724 890.63519 448.21484 890.4082 C 448.20273 890.34371 448.15692 890.24664 448.10742 890.18164 C 448.00984 890.05345 447.97881 889.92239 448.00391 889.74023 C 448.01341 889.67159 448.03106 889.61147 448.03906 889.60547 z "
         transform="matrix(1.3333333,0,0,-1.3333333,1551.8773,1695.0355)"
         d="m 450.57031,883.55273 c 0.007,0 -0.0571,0.01 -0.125,0.0273 -0.0679,0.0175 -0.15185,0.0419 -0.23242,0.0684 -0.16774,0.0551 -0.39536,0.12325 -0.51367,0.15429 -0.10299,0.0271 -0.247,0.0882 -0.28125,0.11133 -0.0738,0.05 -0.19768,0.10975 -0.30274,0.14844 -0.31643,0.11647 -0.4696,0.26933 -0.56054,0.55859 -0.0435,0.14155 -0.0508,0.20453 -0.0488,0.47461 0.003,0.30861 0.003,0.30072 0.0859,0.51367 0.0608,0.15518 0.10735,0.33962 0.13476,0.52735 0.0454,0.31181 0.0834,0.45743 0.18164,0.68555 0.0397,0.0924 0.0799,0.18725 0.0937,0.26171 0.004,0.0185 0.009,0.0372 0.01,0.0606 4.3e-4,0.0248 -0.008,0.0588 -0.0274,0.0859 -0.0383,0.0544 -0.0776,0.0631 -0.125,0.082 -0.0197,0.008 -0.0409,0.0178 -0.0547,0.0273 -0.007,0.005 -0.001,-0.005 -0.002,-0.004 -5.4e-4,0.0102 -1.9e-4,0.0239 0,0.041 4.2e-4,0.0358 0.002,0.0835 0.006,0.12891 l 0.0156,0.17187 a 0.10001,0.10001 0 0 1 -0.0996,0.10938 h -0.11524 c -0.0823,0 -0.3085,-0.0176 -0.5332,-0.0391 -0.31007,-0.0295 -0.43004,-0.0304 -0.55078,-0.0117 -0.0885,0.0137 -0.16065,0.0172 -0.22656,0.006 -0.0659,-0.0114 -0.13113,-0.0447 -0.16797,-0.0996 a 0.10001,0.10001 0 0 1 0,-0.002 c -1.1e-4,-1.6e-4 -0.01,-0.0193 -0.01,-0.0195 -10e-5,-2.6e-4 -0.003,-0.009 -0.004,-0.0117 -0.002,-0.006 -0.001,-0.0103 -0.002,-0.0137 -0.001,-0.007 -0.002,-0.0103 -0.002,-0.0156 -7.3e-4,-0.0106 -0.002,-0.0232 -0.002,-0.0371 -4e-4,-0.0277 0.001,-0.0632 0.002,-0.10742 0.002,-0.0885 0.005,-0.20617 0.0117,-0.33399 0.0199,-0.41179 0.0164,-0.4853 -0.0312,-0.82031 l -0.0547,-0.37695 a 0.10001,0.10001 0 0 1 0.006,-0.0488 l 0.0547,-0.14649 c 0.0283,-0.0769 0.0521,-0.24465 0.0547,-0.39843 0.001,-0.0769 -0.003,-0.15111 -0.01,-0.21094 -0.007,-0.0598 -0.0218,-0.10665 -0.0254,-0.11328 -0.0333,-0.061 -0.14849,-0.12976 -0.32812,-0.14649 -0.14438,-0.0135 -0.12334,-0.0172 -0.27344,0.0566 -0.0813,0.0401 -0.12373,0.0647 -0.18164,0.0742 -0.029,0.005 -0.0636,0.002 -0.0899,-0.008 -0.0263,-0.01 -0.0439,-0.0223 -0.0605,-0.0332 -0.15792,-0.10327 -0.44614,-0.19818 -0.72461,-0.2461 -0.27848,-0.0479 -0.55704,-0.0443 -0.67188,0 -0.0736,0.0284 -0.0954,0.0466 -0.10742,0.0664 -0.012,0.0198 -0.0234,0.065 -0.0234,0.16211 0,0.0746 0.003,0.11084 0.008,0.12695 0.005,0.0161 0.0109,0.026 0.043,0.0625 0.0531,0.0605 0.0613,0.0639 0.20118,0.0957 0.21991,0.05 0.34739,0.0999 0.46679,0.18945 0.0257,0.0193 0.15616,0.0945 0.25977,0.14453 0.0576,0.0278 0.116,0.0591 0.16406,0.0898 0.0481,0.0308 0.0815,0.0508 0.11524,0.0937 0.0486,0.0618 0.0708,0.14359 0.0684,0.22852 -0.002,0.0849 -0.0261,0.17788 -0.0645,0.28906 -0.0272,0.079 -0.0378,0.11559 -0.0469,0.23047 -0.009,0.11488 -0.0134,0.30297 -0.0195,0.65039 -0.011,0.61949 -0.0188,0.77263 -0.0625,0.90625 -0.0255,0.0784 -0.0405,0.19107 -0.041,0.35742 -5.9e-4,0.22165 0.002,0.2304 0.0645,0.36719 0.0895,0.19491 0.24304,0.33247 0.4668,0.41406 0.0563,0.0205 0.1119,0.045 0.16016,0.0703 0.0482,0.0253 0.0831,0.0436 0.11914,0.082 0.0788,0.0839 0.11429,0.20677 0.16601,0.40625 0.0517,0.19947 0.10647,0.4694 0.16211,0.80664 0.0137,0.0835 0.0282,0.16779 0.043,0.23633 0.0148,0.0685 0.0334,0.12944 0.0332,0.1289 0.003,0.006 0.0522,0.0906 0.1211,0.1875 0.0689,0.0969 0.16062,0.21749 0.26172,0.3457 0.02,0.0254 0.0283,0.0422 0.0488,0.0781 0.0205,0.0359 0.0457,0.0827 0.0762,0.13867 0.061,0.11191 0.13869,0.25805 0.21875,0.41211 0.15884,0.30567 0.33738,0.62815 0.37695,0.68945 0.10692,0.16591 0.17515,0.2782 0.21875,0.36914 0.0436,0.091 0.0619,0.1672 0.0625,0.24024 5.6e-4,0.10025 -0.033,0.1978 -0.0957,0.27344 -0.0631,0.0761 -0.15134,0.1313 -0.25977,0.17187 -0.0593,0.0222 -0.11719,0.0589 -0.15625,0.0937 -0.0391,0.0349 -0.0488,0.0729 -0.0488,0.0527 0,-0.006 0.008,0.0271 0.0293,0.0625 0.0217,0.0354 0.0538,0.0774 0.0898,0.11132 0.10824,0.10213 0.1861,0.24277 0.2168,0.39063 0.0119,0.0575 0.05,0.15136 0.0937,0.23437 0.0438,0.083 0.10025,0.15981 0.11914,0.17579 0.0999,0.0844 0.38384,0.21143 0.59766,0.2539 0.533,0.10588 1.06994,-0.10085 1.23242,-0.42578 0.0355,-0.0721 0.0466,-0.0966 0.0547,-0.15039 0.008,-0.0538 0.0113,-0.14272 0.0117,-0.31836 9.2e-4,-0.20299 0.002,-0.32039 0.0312,-0.42187 0.0292,-0.10149 0.0909,-0.17216 0.17188,-0.25 0.0507,-0.0488 0.0586,-0.0801 0.0586,-0.082 0,-0.006 -0.012,-0.0458 -0.041,-0.0801 -0.029,-0.0342 -0.0718,-0.0625 -0.10156,-0.0723 l -0.0859,-0.0273 a 0.10001,0.10001 0 0 1 -0.0586,-0.14063 l 0.0879,-0.17383 a 0.10001,0.10001 0 0 1 0.002,-0.002 l 0.0898,-0.17383 a 0.10001,0.10001 0 0 1 0.0879,-0.0527 h 0.18555 c 0.19793,0 0.28079,-0.0395 0.3125,-0.0879 9e-5,-1.3e-4 0.0294,-0.0533 0.0586,-0.11524 0.0292,-0.0619 0.0639,-0.13933 0.0977,-0.21679 0.0344,-0.0789 0.0697,-0.15591 0.0977,-0.2168 0.028,-0.0609 0.0443,-0.099 0.0605,-0.12695 0.0541,-0.0929 0.13778,-0.35377 0.18555,-0.6211 0.0465,-0.26014 0.0763,-0.41907 0.10742,-0.52929 0.0311,-0.11023 0.0695,-0.18015 0.11914,-0.23047 0.0422,-0.0429 0.20777,-0.20663 0.37891,-0.37305 0.13099,-0.12739 0.21592,-0.20614 0.28711,-0.26172 0.0712,-0.0556 0.13329,-0.0883 0.19726,-0.10937 0.0655,-0.0216 0.0872,-0.0321 0.10547,-0.0527 0.0183,-0.0206 0.0405,-0.0668 0.0742,-0.1582 0.0207,-0.0543 0.0253,-0.0762 0.0254,-0.084 1.3e-4,-0.008 -0.003,-0.0234 -0.0215,-0.0723 -0.0119,-0.0312 -0.0867,-0.15348 -0.14844,-0.22656 -0.0738,-0.0872 -0.12556,-0.15503 -0.14063,-0.2461 -0.0151,-0.0911 0.008,-0.17577 0.0469,-0.29492 0.2092,-0.64743 0.22972,-0.71812 0.28516,-1.03125 0.0344,-0.19388 0.0396,-0.32677 0.0215,-0.41602 -0.0181,-0.0892 -0.0526,-0.13902 -0.12891,-0.19726 -0.0441,-0.0337 -0.0643,-0.0404 -0.0781,-0.041 -0.0138,-6e-4 -0.0397,0.004 -0.0918,0.0352 -0.0431,0.0254 -0.0803,0.0469 -0.13086,0.0527 -0.0505,0.006 -0.092,-0.006 -0.13867,-0.0215 -0.0332,-0.011 -0.13126,-0.0202 -0.22656,-0.0137 -0.0953,0.007 -0.19379,0.026 -0.24414,0.0469 -0.042,0.0175 -0.13142,0.0664 -0.17383,0.0957 -0.0326,0.0226 -0.0666,0.0405 -0.0996,0.0527 -0.0331,0.0122 -0.056,0.0334 -0.12305,0.008 -0.0229,-0.009 -0.0599,-0.0365 -0.0742,-0.0723 -0.0143,-0.0357 -0.0102,-0.0631 -0.006,-0.0879 0.009,-0.0496 0.0269,-0.10193 0.0605,-0.19141 0.0795,-0.21168 0.1165,-0.31054 0.125,-0.35156 0.004,-0.0205 0.004,-0.0231 0.002,-0.0352 -0.002,-0.012 -0.0101,-0.0337 -0.0215,-0.0723 -0.0195,-0.0657 -0.038,-0.10078 -0.0312,-0.16211 0.003,-0.0307 0.0219,-0.0628 0.0391,-0.082 0.0171,-0.0193 0.0322,-0.0295 0.0469,-0.041 0.18638,-0.14524 0.28774,-0.24579 0.33203,-0.32813 0.0443,-0.0823 0.0465,-0.15633 0.0176,-0.29492 -0.0355,-0.17006 -0.0858,-0.28271 -0.21485,-0.47851 l -0.002,-0.002 -0.084,-0.125 a 0.10001,0.10001 0 0 1 -0.0176,-0.0566 v -0.49023 c 0,-0.21441 -0.002,-0.33787 -0.008,-0.40625 -0.005,-0.0665 -0.007,-0.0627 -0.0117,-0.0684 -0.006,-0.004 -0.0145,-0.01 -0.0273,-0.0176 -0.0256,-0.0156 -0.0637,-0.037 -0.10742,-0.0606 -0.0871,-0.0468 -0.20228,-0.10625 -0.32422,-0.16406 a 0.10001,0.10001 0 0 1 -0.004,0 c -0.14812,-0.0702 -0.26668,-0.12351 -0.35352,-0.1582 -0.0868,-0.0347 -0.1556,-0.0469 -0.14258,-0.0469 z m -2.5332,5.95118 c 0.0106,-7.8e-4 0.0184,-6.4e-4 0.0254,0 0.014,0.001 0.026,0.005 0.0391,0.008 0.0261,0.006 0.0554,0.0148 0.0859,0.0254 0.0397,0.0138 0.13029,0.0292 0.16211,0.0293 0.0276,1.1e-4 0.051,-0.002 0.084,0.006 0.033,0.008 0.0865,0.0477 0.0996,0.0918 0.0132,0.0441 0.005,0.0721 -0.002,0.10352 -0.007,0.0314 -0.0166,0.0664 -0.0293,0.11133 -0.0154,0.0543 -0.0487,0.23931 -0.0684,0.38476 -0.0118,0.0874 -0.0223,0.1561 -0.0332,0.20899 -0.0109,0.0529 -0.01,0.0819 -0.0469,0.13086 -0.005,0.006 -0.0114,0.0126 -0.0195,0.0195 -0.004,0.003 -0.008,0.008 -0.0137,0.0117 -0.005,0.003 -0.019,0.008 -0.0195,0.008 -0.001,4.4e-4 -0.0477,0.008 -0.0488,0.008 -5.8e-4,-6e-5 -0.0229,-0.006 -0.0234,-0.006 -5.9e-4,-1.9e-4 -0.0138,-0.007 -0.0195,-0.01 -0.0457,-0.0261 -0.0485,-0.049 -0.0566,-0.0684 -0.0162,-0.0387 -0.0241,-0.0813 -0.0351,-0.14063 -0.007,-0.0374 -0.0514,-0.13311 -0.0899,-0.18359 -0.11128,-0.1462 -0.15055,-0.316 -0.12304,-0.51563 0.005,-0.0387 0.0136,-0.0744 0.0215,-0.10351 0.004,-0.0146 0.007,-0.0264 0.0117,-0.0391 0.002,-0.006 0.005,-0.0135 0.01,-0.0215 0.002,-0.004 0.006,-0.008 0.01,-0.0137 0.002,-0.003 0.008,-0.009 0.008,-0.01 2.7e-4,-2.9e-4 0.0134,-0.0135 0.0137,-0.0137 a 0.10001,0.10001 0 0 1 0.008,-0.006 c 2.8e-4,-1.7e-4 0.0172,-0.008 0.0176,-0.008 3.6e-4,-1.4e-4 0.01,-0.003 0.0137,-0.004 0.008,-0.002 0.0142,-0.004 0.0195,-0.004 z" />
      <path
         id="path42440-0-3-5-3-5-3"
         style="fill:#000000;stroke-width:0.0273298"
         sodipodi:type="inkscape:offset"
         inkscape:radius="-0.1"
         inkscape:original="M 443.38867 884.37109 C 443.12572 884.33049 442.43101 884.3539 442.2832 884.4082 C 442.11293 884.47071 442.01808 884.57467 441.98828 884.73438 C 441.97488 884.80597 441.93539 884.89444 441.90039 884.93164 C 441.84899 884.98629 441.83508 885.03467 441.83008 885.17969 C 441.82658 885.27846 441.81755 885.36605 441.81055 885.37305 C 441.79138 885.39222 441.41538 885.19683 441.30664 885.11133 C 441.25648 885.07185 441.13767 884.96349 441.04297 884.87109 C 440.88582 884.71786 440.85353 884.6981 440.66992 884.6543 C 440.4043 884.5908 439.79372 884.56913 439.57031 884.61523 C 439.33486 884.66381 439.15381 884.76042 439.09961 884.86523 C 439.06411 884.93284 439.05641 885.00691 439.06641 885.20117 C 439.07753 885.4278 439.09731 885.49872 439.29297 886.03516 C 439.44982 886.46514 439.54147 886.67446 439.63477 886.81445 C 439.72255 886.94616 439.7674 887.04597 439.7793 887.13477 C 439.79932 887.28394 439.92212 887.57025 440.03906 887.73828 C 440.08356 887.80219 440.12772 887.90555 440.13672 887.96875 L 440.1543 888.08398 L 440.07812 888.03906 C 439.96817 887.97596 439.8116 888.01263 439.69727 888.12695 C 439.54185 888.28237 439.58771 888.46033 439.85938 888.75977 C 440.08838 889.01274 440.0815 888.99511 440.0918 889.29492 C 440.0991 889.50752 440.09104 889.59146 440.05664 889.66406 C 440.02184 889.73598 440.01685 889.79669 440.03125 889.92578 C 440.05501 890.13959 440.16974 890.72215 440.21094 890.83984 C 440.25653 890.96992 440.21596 891.14606 440.07422 891.44336 C 440.05309 891.48748 439.60236 891.48921 439.25586 891.44531 C 438.63952 891.36727 438.45962 891.38124 438.29297 891.52148 C 438.1727 891.62268 438.11733 891.75221 438.04883 892.08984 C 437.96075 892.52429 437.97871 892.78887 438.11719 893.08398 C 438.17379 893.20458 438.24966 893.32988 438.28516 893.36328 C 438.33316 893.40831 438.34961 893.45436 438.34961 893.53906 C 438.34961 893.67344 438.39269 893.8134 438.46289 893.9043 C 438.50419 893.95825 438.51367 894.02004 438.51367 894.26172 C 438.51367 894.65096 438.56153 894.80958 438.72852 894.97656 C 438.9242 895.17265 439.15383 895.22272 439.59375 895.16602 C 439.75546 895.14522 439.75893 895.14552 439.83203 895.23242 C 439.88377 895.29384 439.93817 895.32579 440.01367 895.33789 C 440.10516 895.35252 440.12744 895.36836 440.15234 895.44336 C 440.22953 895.67604 440.55117 896.02649 440.82227 896.16992 C 440.9467 896.23562 441.35522 896.24625 441.57422 896.18945 C 442.00298 896.07834 442.41705 895.7989 442.57227 895.51562 C 442.65437 895.36568 442.65412 895.37342 442.63672 894.98047 C 442.63472 894.93913 442.63563 894.87344 442.64062 894.83594 C 442.64533 894.79835 442.63981 894.71785 442.62891 894.65625 C 442.61161 894.55852 442.61889 894.53198 442.68359 894.45508 C 442.72683 894.40369 442.77468 894.29922 442.79688 894.20312 C 442.83038 894.05714 442.82892 894.03056 442.79102 893.97266 C 442.76731 893.93646 442.7212 893.90643 442.6875 893.90625 C 442.53207 893.90518 442.52381 893.78823 442.66602 893.60742 C 442.70812 893.55391 442.74977 893.48483 442.75977 893.45312 C 442.77522 893.40332 442.80589 893.39215 442.98633 893.37695 C 443.15575 893.36275 443.20564 893.36744 443.24414 893.40234 C 443.298 893.45111 443.37842 893.77584 443.37891 893.94531 C 443.37911 894.00736 443.39857 894.12433 443.42188 894.20703 C 443.4948 894.4662 443.62272 895.01125 443.62305 895.06055 C 443.62325 895.08645 443.59424 895.12774 443.55664 895.15234 C 443.48114 895.20185 443.45958 895.3533 443.52148 895.4043 C 443.59338 895.46365 443.88109 895.54358 443.92969 895.51758 C 443.95657 895.50315 444.0018 895.4102 444.0332 895.30469 L 444.08789 895.11719 L 443.99219 894.73828 C 443.93959 894.52957 443.89648 894.33961 443.89648 894.31641 C 443.89648 894.29331 443.92348 894.25171 443.95508 894.22461 C 443.99846 894.18744 444.00865 894.15544 443.99805 894.08984 C 443.99045 894.04212 443.95131 893.76318 443.91211 893.4707 C 443.85847 893.0709 443.82484 892.90147 443.77344 892.78906 L 443.70508 892.64062 L 443.75977 892.36523 C 443.81928 892.06624 443.85791 891.69303 443.88281 891.20117 C 443.89619 890.93754 443.93674 890.622 443.99414 890.33594 C 444.00588 890.27624 444.01597 890.27525 444.38281 890.28125 C 444.72615 890.28615 444.77101 890.2801 444.90234 890.2207 C 445.15363 890.10711 445.31089 889.86225 445.33789 889.54492 C 445.36676 889.20553 445.16585 888.88565 444.85742 888.7832 C 444.71585 888.73617 444.71307 888.73399 444.73047 888.65039 C 444.74037 888.60326 444.76531 888.41377 444.78711 888.23047 C 444.80901 888.04715 444.83862 887.86547 444.85352 887.82617 C 444.86852 887.78679 444.88086 887.696 444.88086 887.625 C 444.88086 887.55398 444.89993 887.42358 444.92383 887.33398 C 444.98276 887.11295 444.96194 886.84018 444.86914 886.65039 C 444.79054 886.48976 444.59364 886.29313 444.48438 886.26562 C 444.3811 886.2397 444.28848 886.29172 444.26758 886.38672 C 444.24777 886.47684 444.19968 886.52835 444.07031 886.59375 C 444.00952 886.62455 443.97784 886.62832 443.96484 886.60742 C 443.93934 886.56632 443.97698 886.06445 444.02148 885.85156 C 444.04148 885.75596 444.07591 885.64753 444.09961 885.61133 C 444.16011 885.51902 444.15387 885.44082 444.07227 885.29883 C 444.03343 885.23118 443.97917 885.11748 443.95117 885.04688 C 443.92316 884.97635 443.85794 884.86397 443.80664 884.79688 C 443.75544 884.72975 443.70551 884.63027 443.69531 884.57617 C 443.67213 884.45266 443.59668 884.40329 443.38867 884.37109 z M 439.39258 893.06445 C 439.4377 893.01935 439.4626 893.02463 439.63477 893.11523 C 439.71744 893.15873 439.80734 893.20294 439.83594 893.21094 C 439.88654 893.22574 439.88748 893.22606 439.83398 893.28516 C 439.76345 893.36303 439.68945 893.5863 439.68945 893.7207 C 439.68945 893.8396 439.66141 893.84963 439.54883 893.76953 C 439.48313 893.72273 439.46924 893.69236 439.46875 893.59766 C 439.46845 893.53479 439.44376 893.43073 439.41406 893.36523 C 439.35266 893.23014 439.34428 893.11275 439.39258 893.06445 z "
         transform="matrix(1.3333333,0,0,-1.3333333,1481.0929,1695.9577)"
         d="m 442.79687,884.45312 c -0.11068,0.004 -0.21785,0.0107 -0.30468,0.0195 -0.0868,0.009 -0.15849,0.0237 -0.17383,0.0293 -0.14788,0.0543 -0.20821,0.12021 -0.23242,0.25 -0.0172,0.0919 -0.0498,0.18056 -0.11328,0.24805 -0.0187,0.0199 -0.0229,0.0262 -0.0293,0.0488 -0.006,0.0226 -0.0113,0.0651 -0.0137,0.13476 -0.002,0.0514 -0.004,0.0986 -0.008,0.13672 -0.002,0.0191 -0.005,0.036 -0.008,0.0508 -0.001,0.007 -0.001,0.0147 -0.004,0.0234 -0.001,0.004 -0.003,0.009 -0.006,0.0156 -0.002,0.004 -0.008,0.0133 -0.008,0.0137 -2.2e-4,3.7e-4 -0.0154,0.0193 -0.0156,0.0195 -3e-4,3e-4 -0.0327,0.0232 -0.0332,0.0234 -4.8e-4,1.9e-4 -0.0185,0.005 -0.0254,0.006 -0.0138,0.002 -0.022,0.003 -0.0293,0.002 -0.0146,-0.002 -0.0237,-0.005 -0.0332,-0.008 -0.0191,-0.006 -0.0388,-0.0141 -0.0605,-0.0234 -0.0435,-0.0186 -0.0958,-0.0429 -0.15235,-0.0723 -0.11306,-0.0587 -0.23343,-0.12715 -0.30273,-0.18164 -0.0597,-0.047 -0.17483,-0.15179 -0.27148,-0.24609 -0.15533,-0.15145 -0.14659,-0.14857 -0.32618,-0.19141 -0.23691,-0.0566 -0.87462,-0.0766 -1.05664,-0.0391 -0.21969,0.0453 -0.37836,0.15285 -0.40234,0.19922 -0.0243,0.0463 -0.0313,0.0929 -0.0215,0.2832 0.005,0.11093 0.012,0.17477 0.041,0.28125 0.029,0.10648 0.082,0.25553 0.17969,0.52344 0.15613,0.42801 0.24748,0.63291 0.33203,0.75977 0.092,0.13803 0.14517,0.24952 0.16016,0.36132 0.0151,0.11246 0.13692,0.40929 0.24218,0.56055 0.0557,0.0799 0.10195,0.1801 0.11524,0.27344 l 0.0176,0.11328 a 0.10001,0.10001 0 0 1 -0.15039,0.10156 l -0.0742,-0.0449 h -0.002 c -0.0602,-0.0333 -0.17088,-0.0166 -0.25976,0.0723 -0.0607,0.0607 -0.0713,0.0958 -0.0527,0.16796 0.0185,0.0722 0.0877,0.18364 0.21875,0.32813 0.11406,0.126 0.17631,0.18892 0.21485,0.27734 0.0385,0.0884 0.0378,0.17111 0.043,0.32032 0.007,0.21602 -3.4e-4,0.32192 -0.0449,0.41601 -0.0268,0.0554 -0.0294,0.0839 -0.0156,0.20703 0.011,0.0993 0.0455,0.30078 0.082,0.48633 0.0365,0.18555 0.0786,0.36865 0.0918,0.40625 0.061,0.17415 0.005,0.37523 -0.14063,0.67969 -3.3e-4,6.9e-4 -0.009,0.0156 -0.0137,0.0215 -0.005,0.006 -0.009,0.0117 -0.0137,0.0156 -0.009,0.008 -0.0162,0.0117 -0.0234,0.0156 -0.0145,0.008 -0.0271,0.0123 -0.0391,0.0156 -0.0239,0.007 -0.0478,0.0105 -0.0762,0.0137 -0.0568,0.006 -0.12929,0.01 -0.21094,0.01 -0.16331,4.8e-4 -0.36419,-0.0105 -0.54297,-0.0332 -0.30623,-0.0388 -0.50268,-0.0531 -0.63086,-0.043 -0.12818,0.0101 -0.18485,0.036 -0.25586,0.0957 -0.0498,0.0419 -0.0807,0.0823 -0.11328,0.1582 -0.0326,0.0759 -0.064,0.1874 -0.0977,0.35351 -0.086,0.42411 -0.0696,0.65433 0.0605,0.93165 0.0267,0.0568 0.0594,0.11674 0.0879,0.16406 0.0285,0.0473 0.0604,0.0876 0.0586,0.0859 0.0645,0.0605 0.0957,0.15039 0.0957,0.24804 0,0.11301 0.0418,0.23743 0.0937,0.30469 0.0296,0.0387 0.0515,0.0914 0.0605,0.1543 0.009,0.0629 0.01,0.14152 0.01,0.26367 0,0.19052 0.0129,0.3186 0.041,0.41211 0.0281,0.0935 0.0688,0.15675 0.14453,0.23242 0.087,0.0872 0.17349,0.13597 0.29297,0.16211 0.11947,0.0261 0.27421,0.0256 0.48828,-0.002 0.081,-0.0104 0.13049,-0.0213 0.19336,-0.004 0.0629,0.0173 0.0978,0.0615 0.13476,0.10547 0.0405,0.0481 0.0653,0.0614 0.1211,0.0703 0.05,0.008 0.0952,0.018 0.13867,0.0508 0.0434,0.0327 0.0655,0.0791 0.0801,0.12305 0.0303,0.0912 0.12255,0.23155 0.24023,0.35937 0.11768,0.12783 0.26062,0.24694 0.38086,0.31055 0.0242,0.0128 0.15899,0.0394 0.29688,0.043 0.13788,0.004 0.2894,-0.009 0.38281,-0.0332 0.40448,-0.10482 0.80302,-0.38314 0.93554,-0.625 0.0414,-0.0756 0.0525,-0.0907 0.0586,-0.14063 0.006,-0.05 0.003,-0.14527 -0.006,-0.3418 -0.002,-0.0473 -0.003,-0.10941 0.004,-0.16015 0.001,-0.0105 -4.7e-4,-0.0978 -0.01,-0.15039 -0.009,-0.0528 -0.016,-0.10082 -0.002,-0.15235 0.014,-0.0515 0.0433,-0.0895 0.0781,-0.13086 0.0235,-0.0279 0.0728,-0.12842 0.0918,-0.20898 v -0.002 c 0.0158,-0.0693 0.0218,-0.10831 0.0215,-0.1211 -3.7e-4,-0.013 0.002,-0.008 -0.0137,-0.0312 -0.005,-0.008 -0.0447,-0.0216 -0.0195,-0.0215 -0.0514,-3.5e-4 -0.10068,-0.009 -0.14453,-0.0391 -0.0439,-0.03 -0.0745,-0.0841 -0.0781,-0.13477 -0.007,-0.10138 0.0449,-0.18773 0.12305,-0.28711 0.0361,-0.0458 0.0776,-0.12561 0.0762,-0.12109 0.0127,-0.0408 0.0631,-0.0995 0.11524,-0.11719 0.0521,-0.0177 0.10743,-0.0216 0.19922,-0.0293 0.0864,-0.007 0.14362,-0.0109 0.19531,-0.006 0.0517,0.005 0.10319,0.0263 0.13672,0.0566 0.0452,0.0409 0.0531,0.0757 0.0703,0.1211 0.0172,0.0454 0.0327,0.0971 0.0469,0.1543 0.0283,0.11431 0.0505,0.24142 0.0508,0.34179 1.3e-4,0.0416 0.0185,0.16139 0.0391,0.23438 0.0373,0.1325 0.0875,0.33392 0.1289,0.50976 0.0207,0.0879 0.0393,0.1692 0.0527,0.23242 0.007,0.0316 0.0117,0.0584 0.0156,0.0801 0.004,0.0217 0.008,0.0314 0.008,0.0586 3.9e-4,0.0507 -0.0177,0.0784 -0.0371,0.10547 -0.0194,0.027 -0.0438,0.0504 -0.0742,0.0703 -0.002,0.002 -0.0214,0.0263 -0.0254,0.0547 -0.004,0.0283 0.0109,0.0442 0,0.0352 a 0.10001,0.10001 0 0 1 0,0.002 c 0.002,0.002 0.0956,0.0461 0.17578,0.0684 0.0401,0.0111 0.0791,0.0196 0.10742,0.0234 0.005,7.2e-4 0.007,-3.9e-4 0.0117,0 0.003,-0.006 0.006,-0.009 0.01,-0.0176 0.0153,-0.0315 0.0327,-0.0778 0.0469,-0.125 v -0.002 l 0.0469,-0.16016 -0.0898,-0.35156 c -0.0265,-0.10505 -0.0508,-0.20566 -0.0684,-0.2832 -0.009,-0.0388 -0.0144,-0.0719 -0.0195,-0.0977 -0.005,-0.0257 -0.01,-0.0296 -0.01,-0.0664 0,-0.0505 0.017,-0.0723 0.0332,-0.0977 0.0163,-0.0253 0.0362,-0.0495 0.0605,-0.0703 0.0139,-0.0119 0.012,-0.0127 0.0117,-0.0117 -3e-4,9.5e-4 1.8e-4,-0.006 -0.004,-0.0312 -0.009,-0.0548 -0.0467,-0.32823 -0.0859,-0.6211 -0.0534,-0.39803 -0.0884,-0.56144 -0.13086,-0.65429 l -0.0684,-0.14844 a 0.10001,0.10001 0 0 1 -0.006,-0.0606 l 0.0547,-0.27539 c 0.058,-0.29149 0.0963,-0.66119 0.12109,-1.15039 0.0137,-0.26981 0.0549,-0.58784 0.11328,-0.8789 0.003,-0.0175 0.009,-0.0539 0.041,-0.0859 0.0318,-0.0321 0.0692,-0.0401 0.10352,-0.0449 0.0686,-0.01 0.16022,-0.007 0.34375,-0.004 0.17102,0.002 0.26595,0.001 0.32617,-0.006 0.0602,-0.007 0.0875,-0.0184 0.15039,-0.0469 0.21641,-0.0978 0.35236,-0.30282 0.37695,-0.5918 0.0251,-0.29506 -0.15045,-0.57129 -0.41211,-0.6582 -0.071,-0.0236 -0.11331,-0.0273 -0.16406,-0.0801 -0.0254,-0.0264 -0.039,-0.0705 -0.0391,-0.0996 -6e-5,-0.0291 0.005,-0.0469 0.01,-0.0684 a 0.10001,0.10001 0 0 1 0,-0.002 c 0.006,-0.0274 0.033,-0.22772 0.0547,-0.41016 0.0111,-0.0931 0.0248,-0.1847 0.0371,-0.25977 0.0123,-0.0751 0.0174,-0.12108 0.0352,-0.16796 0.003,-0.009 0.0215,-0.10661 0.0215,-0.16602 0,-0.0889 0.0202,-0.21626 0.0469,-0.31641 0.052,-0.19496 0.0294,-0.45206 -0.0488,-0.61328 v -0.002 c -0.0321,-0.065 -0.0964,-0.14919 -0.16211,-0.21484 -0.0661,-0.066 -0.14253,-0.11178 -0.15625,-0.11524 -0.0589,-0.0148 -0.0865,0.003 -0.0957,0.0449 -0.0127,0.0577 -0.0389,0.11475 -0.082,0.16016 -0.0431,0.0454 -0.0983,0.08 -0.16797,0.11523 -0.0352,0.0178 -0.0647,0.0302 -0.10351,0.0352 -0.0388,0.005 -0.10369,-0.0149 -0.13086,-0.0586 a 0.10001,0.10001 0 0 1 -0.002,0 c -0.0301,-0.0486 -0.0198,-0.0573 -0.0215,-0.0801 -0.002,-0.0228 -3.4e-4,-0.0503 0,-0.0801 6.8e-4,-0.0596 0.004,-0.13278 0.01,-0.21289 0.012,-0.16022 0.0323,-0.33876 0.0566,-0.45508 0.0108,-0.0516 0.0257,-0.10694 0.041,-0.1543 0.0153,-0.0474 0.026,-0.0833 0.0508,-0.12109 0.0223,-0.034 0.0256,-0.0486 0.0234,-0.0742 -0.002,-0.0256 -0.0153,-0.0677 -0.0527,-0.13281 a 0.10001,0.10001 0 0 1 0,-0.002 c -0.0429,-0.0747 -0.0982,-0.18612 -0.12891,-0.26368 -0.0218,-0.0549 -0.0874,-0.16978 -0.13086,-0.22656 -0.0611,-0.0801 -0.11183,-0.17312 -0.1289,-0.26367 -0.008,-0.0448 -0.0148,-0.0529 -0.041,-0.0703 -0.0262,-0.0174 -0.0854,-0.0375 -0.18359,-0.0527 -0.11549,-0.0178 -0.3548,-0.025 -0.57618,-0.0176 z m -3.31054,8.48829 c 0.0589,0.0124 0.10818,0.0401 0.19531,0.0859 0.0405,0.0213 0.0824,0.0419 0.11719,0.0586 0.0348,0.0167 0.07,0.0308 0.0644,0.0293 0.0127,0.004 0.025,0.006 0.0449,0.0156 0.01,0.005 0.0238,0.0102 0.0391,0.0273 0.0153,0.0171 0.0277,0.0488 0.0273,0.0742 -7e-4,0.0509 -0.0205,0.0663 -0.0312,0.0801 -0.0107,0.0138 -0.0216,0.0241 -0.0352,0.0391 -0.015,0.0166 -0.0534,0.0875 -0.0781,0.16211 -0.0248,0.0746 -0.041,0.15819 -0.041,0.20703 0,0.0337 -0.001,0.0633 -0.01,0.0957 -0.009,0.0324 -0.0358,0.0801 -0.0859,0.0976 -0.0502,0.0175 -0.0881,0.002 -0.11719,-0.0117 -0.0291,-0.0133 -0.0554,-0.029 -0.0859,-0.0508 -0.0385,-0.0274 -0.074,-0.0606 -0.0957,-0.10742 -0.0217,-0.0468 -0.0251,-0.0943 -0.0254,-0.14648 -1.8e-4,-0.0372 -0.025,-0.14321 -0.0469,-0.19141 -0.0345,-0.0759 -0.0557,-0.14815 -0.0605,-0.2168 -0.005,-0.0686 0.006,-0.14047 0.0605,-0.19531 0.0152,-0.0152 0.035,-0.0346 0.0664,-0.0469 0.0314,-0.0122 0.0682,-0.012 0.0977,-0.006 z" />
      <g
         id="g11340-5-3-7"
         transform="matrix(1.3333333,0,0,-1.3333333,1401.7593,1501.4808)">
        <path
           id="rect8429-0-7-3"
           style="stroke-width:0.999998"
           inkscape:transform-center-x="17.801006"
           inkscape:transform-center-y="-7.9685823"
           d="m 527.40747,763.12263 -0.97664,-1.32036 -6.7462,4.99349 -0.95878,-1.43398 0.7492,-1.0652 -3.45968,1.89594 -8.01143,5.92885 -0.61886,-0.0923 -11.27398,8.34474 -0.56148,-0.76004 11.30496,-8.36688 0.0852,-0.56335 9.03648,-6.68887 -0.66903,-0.90283 -2.37996,1.76137 -0.86976,-1.17347 -0.66114,0.49076 -1.01103,-1.366 6.73788,-4.98752 a 5.4461994,5.6984911 53.495117 0 1 2.36887,-4.66537 5.4461994,5.6984911 53.495117 0 1 4.24358,-1.09687 l 0.21424,-0.15874 0.34849,0.48733 a 8.4375002,8.4375002 0 0 1 1.71149,-1.65608 8.4375002,8.4375002 0 0 1 5.58146,-1.52773 l 3.3146,-2.50173 0.0941,-0.42747 0.73844,0.16886 0.28708,1.21738 0.53677,0.72548 2.60977,-1.93106 0.63543,0.85842 -5.98466,4.42909 -0.58655,-0.79252 -0.42837,0.11364 0.0437,0.88716 0.8017,0.94481 7.19137,-5.22718 0.77144,1.0637 -7.75315,5.56224 -1.41565,1.12039 0.19367,0.2631 -1.71918,1.27262 0.22984,0.24083 -0.62828,0.46366 0.53677,0.72548 -4.10155,3.03566 0.9778,1.31952 z m -2.21012,-9.48213 4.55166,-3.25489 a 7.3125,7.3125 0 0 0 -3.08472,1.25683 7.3125,7.3125 0 0 0 -1.6757,1.70613 z" />
        <path
           id="path10041-9-7-5"
           style="stroke-width:1.33333"
           d="m 693.91992,113.24805 -5.98437,21.9414 6.91211,-1.25781 1.85546,-20.68359 z m 2.8711,3.47265 -1.07422,18.42774 h -0.64258 a 2.1846881,1.2181291 0 0 1 -2.1836,1.21875 v 0.41992 h -7.92968 v 0.85742 h -14.15235 v -2.21289 h -2.14648 v 2.21289 h -6.41797 v 2.03125 h 6.41797 v 0.61328 h -2.31445 v 0.78906 h 6.55078 v -0.78906 h -2.08985 v -0.61328 h 14.15235 v 0.78516 h 12.61718 v 0.39258 h 6.04297 v -0.39258 h 4.18164 v -0.84375 l 24.2793,-0.84375 v 1.36718 h -2.55469 v 0.79883 h 6.82813 v -0.79883 h -2.67578 v -1.42382 l 0.39843,-0.0137 5.3125,-1.99804 h -5.3125 -0.39843 v -3.51367 h -1.59766 v 3.51562 h -24.50781 v -0.33984 a 2.1846881,1.2181291 0 0 1 -2.18555,-1.21875 h -0.71679 l -0.008,-0.69336 c 0.78932,-0.59 1.5918,-1.23633 1.5918,-1.23633 v -1.64063 h 0.6582 v -1.3125 h -1.53711 v -1.5332 l -1.08789,-0.27148 -0.73242,-11.74024 z"
           transform="matrix(0.75000002,0,0,-0.75000002,0,841.89002)" />
      </g>
      <rect
         style="fill:#000000;stroke-width:2.86453;stroke-linejoin:round;paint-order:stroke fill markers"
         id="rect10"
         width="40.895123"
         height="24.75"
         x="2003.8865"
         y="492.7323" />
      <rect
         style="fill:#000000;stroke-width:2.54951;stroke-linejoin:round;paint-order:stroke fill markers"
         id="rect10-7"
         width="32.395123"
         height="24.75"
         x="2158.6365"
         y="492.98233" />
    </g>
  </g>
</svg>
