<?xml version="1.0" encoding="UTF-8" standalone="no"?>
<!-- Created with Inkscape (http://www.inkscape.org/) -->

<svg
   width="24.848074mm"
   height="7.4701285mm"
   viewBox="0 0 24.848074 7.4701285"
   version="1.1"
   id="svg2397"
   sodipodi:docname="inkporter-svg-3y3wmfxr.svg"
   xmlns:inkscape="http://www.inkscape.org/namespaces/inkscape"
   xmlns:sodipodi="http://sodipodi.sourceforge.net/DTD/sodipodi-0.dtd"
   xmlns="http://www.w3.org/2000/svg"
   xmlns:svg="http://www.w3.org/2000/svg">
  <sodipodi:namedview
     id="namedview2399"
     pagecolor="#ffffff"
     bordercolor="#666666"
     borderopacity="1.0"
     inkscape:pageshadow="2"
     inkscape:pageopacity="0.0"
     inkscape:pagecheckerboard="0"
     inkscape:document-units="mm"
     showgrid="false"
     inkscape:zoom="0.66368547"
     inkscape:cx="501.7437"
     inkscape:cy="779.73683"
     inkscape:window-width="1920"
     inkscape:window-height="1017"
     inkscape:window-x="-8"
     inkscape:window-y="-8"
     inkscape:window-maximized="1"
     inkscape:current-layer="layer1" />
  <defs
     id="defs2394" />
  <g
     inkscape:label="Layer 1"
     inkscape:groupmode="layer"
     id="layer1"
     transform="translate(3.2549133,-86.760242)">
    <path
       d="M 8.7101,94.16074 C 8.16104,94.05872 7.83669,93.95058 7.78391,93.85196 c -0.0229,-0.0427 -0.0416,-0.14125 -0.0416,-0.21881 0,-0.10226 -0.0325,-0.16693 -0.11829,-0.23538 l -0.11829,-0.0944 0.11758,-0.0536 c 0.11773,-0.0537 0.19904,-0.26906 0.14991,-0.3971 -0.0157,-0.0408 -0.28491,-0.0761 -0.98046,-0.12863 -0.5274,-0.0398 -0.96646,-0.0649 -0.97568,-0.0557 -0.009,0.009 -0.0387,0.1444 -0.0654,0.30037 -0.0267,0.15598 -0.0664,0.28359 -0.0882,0.28359 -0.0218,0 -0.0271,-0.0629 -0.0116,-0.1398 0.0915,-0.45629 0.0917,-0.45461 -0.066,-0.47921 -0.0796,-0.0124 -0.25128,-0.0326 -0.38141,-0.0447 -0.55356,-0.0519 -3.73649,-0.3932 -5.87151,-0.6297 -1.17881,-0.13058 -1.90878,-0.27077 -2.21002,-0.42446 -0.22293,-0.11373 -0.40601,-0.33417 -0.37426,-0.45064 0.0283,-0.10379 0.32641,-2.32293 0.43958,-3.2721 0.0747,-0.62651 0.0809,-0.64902 0.22285,-0.80612 0.17477,-0.19345 0.37428,-0.25635 0.77324,-0.24379 0.31281,0.01 0.47365,0.0405 0.49182,0.0938 0.0214,0.0628 3.5847,3.6008 3.62649,3.60074 0.22558,-3.2e-4 2.7435,-0.27106 2.85304,-0.30679 0.14266,-0.0465 0.14449,-0.0503 0.12447,-0.25861 -0.027,-0.28079 0.0371,-0.31162 0.075,-0.0361 0.0196,0.14201 0.0561,0.22998 0.10705,0.25722 0.052,0.0278 0.40738,0.008 1.08199,-0.0611 0.93114,-0.095 1.04237,-0.11563 1.5208,-0.28179 0.54063,-0.18775 1.433,-0.45263 1.68281,-0.4995 0.1726,-0.0324 0.23665,-0.10342 0.0941,-0.10437 -0.0546,-3.3e-4 -0.12449,-0.0166 -0.15525,-0.0361 -0.034,-0.0215 0.0167,-0.034 0.12905,-0.0316 0.10172,0.003 0.19679,0.02 0.21122,0.0397 0.0145,0.0197 0.23459,0.003 0.48919,-0.0367 0.54241,-0.0851 1.32305,-0.0709 1.59536,0.0289 0.0963,0.0353 0.39908,0.20313 0.67279,0.37297 0.48075,0.29829 0.50692,0.30877 0.77118,0.30901 0.64524,4.8e-4 2.78895,0.22324 4.18788,0.43499 2.57308,0.38948 3.84982,0.81148 3.84982,1.27248 0,0.2298 -0.1777,0.38051 -0.68824,0.58375 -0.65919,0.2624 -1.18491,0.3636 -2.83304,0.54529 -1.13631,0.12528 -1.1653,0.13362 -1.16667,0.33558 -4.7e-4,0.062 -0.0278,0.098 -0.0759,0.10007 -0.0414,0.002 -0.0102,0.0268 0.0694,0.0556 0.0795,0.0288 0.22141,0.11678 0.31521,0.19554 l 0.17056,0.14319 -0.14053,0.14499 c -0.0773,0.0797 -0.18042,0.15715 -0.22918,0.17202 -0.0488,0.0148 -0.22415,0.0923 -0.38976,0.17209 -0.16561,0.0798 -0.39789,0.16531 -0.51618,0.19005 -0.13417,0.0281 -1.48514,0.0522 -3.59173,0.0643 -3.15607,0.018 -3.40476,0.0141 -3.8068,-0.0606 z m 3.75679,-4.2505 c -0.0274,-0.033 -0.0754,-0.0501 -0.1068,-0.0382 -0.0462,0.0177 -0.047,0.006 -0.003,-0.063 0.0291,-0.0466 0.0596,-0.0651 0.0676,-0.0412 0.008,0.024 0.0332,0.0321 0.056,0.0181 0.025,-0.0154 0.0193,-0.0526 -0.0144,-0.0937 -0.049,-0.0599 -0.0428,-0.0644 0.0517,-0.037 0.0591,0.0172 0.13657,0.0368 0.17206,0.0436 0.0355,0.007 0.0707,0.0543 0.0782,0.10538 0.0141,0.0957 0.0592,0.10899 0.19188,0.0566 0.0611,-0.0241 0.014,-0.0717 -0.23284,-0.23516 -0.17017,-0.11269 -0.32307,-0.18966 -0.33977,-0.17104 -0.0313,0.0348 -0.2137,0.5637 -0.2137,0.61945 0,0.0172 0.0774,8.6e-4 0.17194,-0.0364 0.13926,-0.0547 0.16248,-0.0789 0.12215,-0.12755 z m -0.0572,-0.35669 c -0.0151,-0.0244 0.003,-0.0316 0.0405,-0.0169 0.0745,0.0286 0.0881,0.0595 0.0263,0.0595 -0.0222,0 -0.0523,-0.0191 -0.0668,-0.0426 z m -2.28279,-0.0563 c -0.009,-0.0899 -0.0261,-0.17924 -0.0381,-0.19866 -0.0189,-0.0305 -0.31958,0.0388 -1.09271,0.2516 -0.10293,0.0284 -0.17676,0.0619 -0.16405,0.0746 0.0167,0.0167 0.41323,0.17385 0.57301,0.22708 l 0.39399,0.13243 c -0.0311,4.6e-4 0.0209,0.0361 0.11546,0.0788 0.21014,0.0949 0.30665,0.0755 0.34286,-0.0687 z m 1.96061,0.10774 c 0.0424,-0.12045 0.0911,-0.24163 0.10822,-0.26931 0.0403,-0.0652 -0.0564,-0.12525 -0.2032,-0.12609 -0.0637,-3.3e-4 -0.12595,-0.0171 -0.13841,-0.0373 -0.0737,-0.11922 -1.61698,-0.0448 -1.61698,0.0779 0,0.0185 0.0487,0.13783 0.10821,0.26507 l 0.15139,0.38472 c 0.0408,0.0761 0.0953,0.0832 0.64164,0.0832 0.43935,0 0.60188,-0.0142 0.6152,-0.0538 v 0 c 0.0141,-0.0416 0.0347,-0.0401 0.0914,0.007 z"
       id="G-Aircraft-ME262" />
  </g>
</svg>
