<?xml version="1.0" encoding="UTF-8" standalone="no"?>
<!-- Created with Inkscape (http://www.inkscape.org/) -->

<svg
   width="17.3253mm"
   height="10.429mm"
   viewBox="0 0 17.3253 10.429"
   version="1.1"
   id="svg19336"
   sodipodi:docname="inkporter-svg-02apifmp.svg"
   xmlns:inkscape="http://www.inkscape.org/namespaces/inkscape"
   xmlns:sodipodi="http://sodipodi.sourceforge.net/DTD/sodipodi-0.dtd"
   xmlns="http://www.w3.org/2000/svg"
   xmlns:svg="http://www.w3.org/2000/svg">
  <sodipodi:namedview
     id="namedview19338"
     pagecolor="#ffffff"
     bordercolor="#666666"
     borderopacity="1.0"
     inkscape:pageshadow="2"
     inkscape:pageopacity="0.0"
     inkscape:pagecheckerboard="0"
     inkscape:document-units="mm"
     showgrid="false"
     inkscape:zoom="0.45291836"
     inkscape:cx="569.63908"
     inkscape:cy="577.36675"
     inkscape:window-width="1920"
     inkscape:window-height="1017"
     inkscape:window-x="-8"
     inkscape:window-y="-8"
     inkscape:window-maximized="1"
     inkscape:current-layer="layer1" />
  <defs
     id="defs19333" />
  <g
     inkscape:label="Layer 1"
     inkscape:groupmode="layer"
     id="layer1"
     transform="translate(-142.0542,-260.00072)">
    <path
       d="m 145.75182,270.39801 c -0.0793,-0.0133 -0.1747,-0.048 -0.21206,-0.0774 -0.0406,-0.0319 -0.091,-0.0478 -0.1253,-0.0393 -0.0321,0.008 -0.10492,-0.0114 -0.16514,-0.044 -0.0593,-0.0319 -0.15476,-0.0615 -0.21213,-0.0656 -0.0574,-0.004 -0.13871,-0.033 -0.18076,-0.0641 -0.042,-0.0311 -0.11634,-0.0566 -0.1651,-0.0567 -0.0488,-1.2e-4 -0.12506,-0.0199 -0.16951,-0.0441 -0.0445,-0.0241 -0.13868,-0.0537 -0.20934,-0.0657 -0.0707,-0.0119 -0.16111,-0.0474 -0.20094,-0.0787 -0.0452,-0.0356 -0.0943,-0.0515 -0.13084,-0.0423 -0.0342,0.008 -0.10725,-0.0112 -0.17629,-0.048 -0.0648,-0.0344 -0.17078,-0.0697 -0.23541,-0.0783 -0.074,-0.01 -0.14439,-0.0414 -0.19011,-0.0852 -0.0399,-0.0382 -0.0865,-0.0695 -0.10347,-0.0695 -0.0697,0 -0.17462,-0.069 -0.21057,-0.13847 -0.0212,-0.0407 -0.0717,-0.09 -0.11247,-0.10942 -0.0596,-0.0284 -0.0795,-0.0626 -0.10114,-0.17397 -0.0148,-0.0762 -0.0456,-0.161 -0.0685,-0.18844 -0.0822,-0.0985 -0.11035,-0.18318 -0.0842,-0.25267 0.0176,-0.0468 0.0141,-0.0886 -0.0123,-0.14032 -0.0251,-0.0485 -0.0293,-0.09 -0.0134,-0.12126 0.0748,-0.14639 0.0898,-0.19799 0.0748,-0.2575 -0.012,-0.048 0.006,-0.0962 0.0639,-0.17698 0.0444,-0.0612 0.0805,-0.14542 0.0805,-0.18757 0,-0.0598 0.0265,-0.0955 0.12129,-0.16358 0.0667,-0.0479 0.12121,-0.10814 0.12121,-0.13391 0,-0.0739 0.0562,-0.11149 0.16687,-0.11149 0.0794,0 0.11811,-0.0178 0.17374,-0.0803 0.0543,-0.0609 0.0869,-0.0765 0.13494,-0.0644 l 0.0634,0.0158 v -0.29643 c 0,-0.23865 -0.008,-0.29947 -0.0404,-0.31195 -0.031,-0.0119 -0.0404,-0.0629 -0.0404,-0.21844 0,-0.19917 -0.004,-0.20293 -0.0682,-0.20293 -0.0794,0 -0.11416,-0.0638 -0.0662,-0.1216 0.0268,-0.0321 0.11176,-0.0401 0.42996,-0.0401 0.3501,0 0.40196,0.006 0.44129,0.0493 0.0247,0.0271 0.045,0.0665 0.0454,0.0876 0.004,0.10277 0.19621,0.16911 0.24973,0.0854 0.0145,-0.022 0.0912,-0.0337 0.22232,-0.0337 h 0.20073 v -0.86702 -0.86704 l 0.26945,-0.50366 c 0.1482,-0.277 0.26945,-0.51075 0.26945,-0.51947 0,-0.009 -0.7573,-0.0194 -1.68289,-0.0237 -1.64666,-0.008 -1.68381,-0.009 -1.7236,-0.0618 -0.0558,-0.0739 -0.0567,-0.41966 -0.004,-0.52677 0.0396,-0.0765 0.0482,-0.0795 0.22906,-0.0795 0.10732,0 0.18793,-0.0116 0.18793,-0.0269 0,-0.0149 0.0229,-0.0269 0.051,-0.0269 0.0282,0 0.058,-0.0183 0.0665,-0.0404 0.0116,-0.03 0.0593,-0.0404 0.18633,-0.0404 0.10848,0 0.18994,-0.0144 0.22317,-0.0396 0.0465,-0.0352 -0.01,-0.0397 -0.5068,-0.0404 h -0.55912 v -0.29538 -0.29537 l 0.58607,-0.0151 c 0.3223,-0.008 0.92552,-0.0188 1.34049,-0.0234 0.77562,-0.008 2.35782,-0.0884 2.38813,-0.12066 0.0528,-0.0562 0.38019,-0.70025 0.37835,-0.74444 -0.004,-0.10313 0.19382,-0.37052 0.31013,-0.41867 0.0369,-0.0153 0.1204,-0.14002 0.22437,-0.33528 0.091,-0.17101 0.17554,-0.31707 0.18771,-0.3246 0.012,-0.008 1.18434,-0.0142 2.6048,-0.0146 h 2.58272 l 0.0741,0.0821 0.0741,0.0821 v 1.37062 1.3706 l 0.0606,0.0169 c 0.0498,0.014 0.43751,0.10698 0.68513,0.16434 0.0321,0.008 0.0626,0.0334 0.0674,0.0576 0.007,0.0339 0.17469,0.0834 0.73621,0.21675 l 0.7275,0.17279 0.80624,0.37709 c 0.4434,0.20739 0.82536,0.37279 0.84875,0.36753 0.0233,-0.005 -0.0212,-0.0328 -0.0989,-0.0613 -0.15075,-0.0551 -0.20116,-0.13869 -0.0674,-0.11171 0.0407,0.008 0.0944,0.0229 0.11927,0.0324 0.0349,0.0135 0.0472,-2e-5 0.0539,-0.0587 0.008,-0.0743 0.0134,-0.0764 0.19061,-0.0842 l 0.18185,-0.008 v 0.1629 c 0,0.16901 0.006,0.17627 0.13476,0.16581 0.0222,-0.002 0.24592,0.0817 0.49717,0.18552 0.25122,0.10384 0.46726,0.18878 0.48006,0.18878 0.0127,0 0.0173,-0.0213 0.01,-0.0471 -0.007,-0.026 -0.0208,-0.0972 -0.0307,-0.1583 -0.0162,-0.10412 -0.0123,-0.11229 0.0551,-0.1293 0.0398,-0.01 0.0788,-0.0116 0.0867,-0.004 0.008,0.008 0.0399,0.16913 0.071,0.35833 0.0514,0.31178 0.0622,0.34478 0.11529,0.35236 0.0941,0.0135 0.12376,0.0752 0.13727,0.28567 0.0113,0.17535 0.006,0.20428 -0.0446,0.25499 -0.0314,0.0315 -0.0572,0.068 -0.0572,0.0811 0,0.0443 -0.12044,0.10286 -0.25175,0.12243 -0.17811,0.0266 -0.13585,0.0522 0.11667,0.0708 0.17459,0.0128 0.22803,0.0283 0.30794,0.0892 0.11846,0.0904 0.17741,0.19897 0.17741,0.32691 0,0.16533 -0.11698,0.32791 -0.28053,0.38988 l -0.0784,0.0297 0.08,0.0866 c 0.044,0.0476 0.11324,0.13872 0.15381,0.20243 0.0406,0.0637 0.0914,0.1226 0.11292,0.13086 0.0215,0.008 0.0392,0.0323 0.0392,0.0534 0,0.0211 0.0183,0.0454 0.0404,0.0539 0.0222,0.008 0.0404,0.0331 0.0404,0.0547 0,0.0517 0.17114,0.27538 0.27115,0.35446 0.0553,0.0437 0.0791,0.0864 0.0791,0.14146 0,0.0947 -0.0166,0.0965 -0.11875,0.0128 -0.0702,-0.0574 -0.0827,-0.0598 -0.11941,-0.023 -0.0289,0.029 -0.0752,0.0372 -0.15738,0.0279 -0.14083,-0.0158 -0.1597,0.0373 -0.036,0.10128 0.08,0.0414 0.16214,0.16302 0.16214,0.2402 0,0.0222 0.0303,0.0851 0.0671,0.1395 0.0534,0.0787 0.0639,0.11959 0.051,0.19988 -0.01,0.0617 -0.005,0.10815 0.0138,0.11943 0.0379,0.0234 0.0392,0.19494 0.004,0.21815 -0.0173,0.0105 -0.0215,0.0625 -0.0113,0.13178 0.0155,0.10348 0.009,0.12178 -0.0661,0.19288 -0.0458,0.0432 -0.0833,0.0968 -0.0833,0.11904 -2.2e-4,0.0658 -0.1034,0.21565 -0.14859,0.21565 -0.0229,0 -0.0662,0.0414 -0.0961,0.0921 -0.0606,0.10278 -0.15903,0.17737 -0.23389,0.17737 -0.0272,0 -0.061,0.0112 -0.0751,0.025 -0.0141,0.0137 -0.21304,0.0688 -0.4422,0.12247 -0.22913,0.0536 -0.42214,0.10304 -0.42888,0.10977 0,0 -0.31676,0.0634 -0.80525,0.17393 -0.19618,0.0445 -0.5171,0.11721 -0.71324,0.16167 l -0.35659,0.0808 -4.94478,-0.003 c -2.74295,-0.002 -5.00895,-0.0137 -5.08893,-0.0271 z m 0.68308,-0.0775 c 0.009,-0.0149 0.004,-0.0269 -0.012,-0.0269 -0.0159,0 -0.0286,0.0121 -0.0286,0.0269 0,0.0148 0.005,0.0269 0.012,0.0269 0.007,0 0.0194,-0.0121 0.0286,-0.0269 z m 0.42041,-0.0943 c 0.0466,-0.10526 0.0644,-0.12126 0.13536,-0.12126 0.0704,0 0.0877,0.0151 0.12439,0.10856 0.0498,0.12686 0.0855,0.1262 0.12855,-0.002 0.0254,-0.0767 0.046,-0.0941 0.11783,-0.10122 0.0793,-0.008 0.0905,0 0.12982,0.10103 0.0236,0.0603 0.0519,0.10959 0.0626,0.10959 0.0106,0 0.0346,-0.0365 0.0532,-0.0811 0.0321,-0.0777 0.0282,-0.0868 -0.0929,-0.21636 -0.13402,-0.14332 -0.25752,-0.3843 -0.25752,-0.50261 0,-0.0948 -0.0254,-0.064 -0.0835,0.10023 -0.0585,0.16623 -0.19889,0.36158 -0.34297,0.47737 -0.10251,0.0824 -0.1065,0.0911 -0.0774,0.16816 0.0169,0.0447 0.0349,0.0813 0.0398,0.0813 0.005,0 0.0332,-0.0546 0.0627,-0.12126 z m 7.95129,-0.11616 c 0.0574,-0.007 0.081,0.008 0.11433,0.0728 0.0229,0.0446 0.042,0.0999 0.042,0.12289 0,0.0627 0.0413,0.0502 0.0745,-0.0224 0.0268,-0.0591 0.0183,-0.0711 -0.1063,-0.15195 -0.13398,-0.0868 -0.37239,-0.37363 -0.37239,-0.44802 0,-0.0311 -0.0475,-0.037 -0.24804,-0.0307 -0.23121,0.007 -0.24909,0.0119 -0.26274,0.0678 -0.008,0.033 -0.0768,0.13055 -0.15276,0.21673 l -0.13815,0.15666 0.0506,0.0625 c 0.0279,0.0344 0.0505,0.0793 0.0505,0.0999 0,0.0709 0.0568,0.0373 0.0961,-0.0569 0.0325,-0.078 0.0533,-0.0943 0.12008,-0.0943 0.069,0 0.0869,0.0156 0.12379,0.10778 0.0236,0.0593 0.0521,0.10778 0.0631,0.10778 0.0109,0 0.039,-0.0485 0.0623,-0.10778 0.0363,-0.0924 0.0539,-0.10778 0.12323,-0.10778 0.0698,0 0.0854,0.014 0.11349,0.10102 0.0506,0.15689 0.0577,0.15879 0.11779,0.0317 0.0433,-0.0917 0.073,-0.12116 0.12866,-0.12761 z m 0.97811,0.21046 c 0.009,-0.0149 -0.004,-0.0269 -0.0254,-0.0269 -0.0229,0 -0.042,0.0121 -0.042,0.0269 0,0.0148 0.0117,0.0269 0.0254,0.0269 0.0141,0 0.0328,-0.0121 0.042,-0.0269 z m -6.6585,-0.10778 c 0.037,-0.0924 0.0548,-0.10778 0.12442,-0.10778 0.0696,0 0.0874,0.0153 0.12439,0.10778 0.0236,0.0593 0.0526,0.10778 0.0642,0.10778 0.0116,0 0.0405,-0.0485 0.0642,-0.10778 0.037,-0.0924 0.0547,-0.10778 0.12439,-0.10778 0.0697,0 0.0875,0.0153 0.12439,0.10778 0.0236,0.0593 0.0526,0.10778 0.0642,0.10778 0.012,0 0.0405,-0.0485 0.0642,-0.10778 0.0371,-0.0928 0.0546,-0.10778 0.12548,-0.10778 0.0702,0 0.0896,0.016 0.13113,0.1089 l 0.0488,0.10888 0.0443,-0.0675 c 0.0569,-0.0869 0.0562,-0.0926 -0.019,-0.15173 -0.0346,-0.0274 -0.10951,-0.11699 -0.16616,-0.19923 -0.0567,-0.0823 -0.11921,-0.14956 -0.13896,-0.14956 -0.0198,0 -0.0359,-0.0106 -0.0359,-0.0234 0,-0.0281 -0.47636,-0.0929 -0.51365,-0.0698 -0.0145,0.009 -0.0512,0.0655 -0.082,0.12588 -0.0307,0.0604 -0.11098,0.16854 -0.17815,0.24035 -0.11681,0.12487 -0.12069,0.13416 -0.0885,0.21173 0.0183,0.0446 0.0429,0.0811 0.0544,0.0811 0.0116,0 0.0402,-0.0485 0.0639,-0.10779 z m 2.61849,-0.0135 c 0.0342,-0.082 0.0516,-0.0943 0.13268,-0.0943 0.0766,0 0.10082,0.0146 0.1355,0.0817 0.046,0.089 0.0835,0.0838 0.12182,-0.0169 0.0183,-0.0486 0.0449,-0.0647 0.10576,-0.0647 0.0672,0 0.0878,0.016 0.12054,0.0943 0.0461,0.11044 0.0764,0.11843 0.11635,0.0307 0.0261,-0.0572 0.0169,-0.0738 -0.0931,-0.16558 -0.14397,-0.12037 -0.2582,-0.29156 -0.32135,-0.48156 -0.0433,-0.13034 -0.0468,-0.13377 -0.0721,-0.0702 -0.0971,0.24407 -0.18778,0.41158 -0.27502,0.50812 -0.0945,0.10465 -0.0985,0.11613 -0.0671,0.19204 0.0183,0.0444 0.0386,0.0807 0.045,0.0807 0.007,0 0.0293,-0.0425 0.051,-0.0943 z m 1.844,0.009 c 0,-0.0135 -0.0247,-0.0114 -0.0546,0.005 -0.0303,0.016 -0.0471,0.0414 -0.038,0.0562 0.0183,0.0298 0.0926,-0.019 0.0926,-0.0608 z m 2.56742,-0.0222 c 0.0152,-0.0589 -1.8e-4,-0.0668 -0.0587,-0.0297 -0.0215,0.0135 -0.0303,0.0431 -0.0201,0.0686 0.0208,0.0543 0.0598,0.0351 0.0792,-0.039 z m 0.36766,-0.16787 c 0.004,-0.0738 0.0657,-0.12892 0.14919,-0.12892 0.0236,0 0.0682,0.0424 0.0988,0.0943 0.0307,0.0519 0.0655,0.0943 0.0776,0.0943 0.012,0 0.03,-0.0478 0.0399,-0.10623 0.01,-0.0584 0.0349,-0.12041 0.0559,-0.13773 0.0467,-0.0388 0.17339,-0.011 0.17339,0.0382 0,0.0456 0.0929,0.13082 0.11673,0.107 0.01,-0.01 0.018,-0.056 0.018,-0.10245 0,-0.0962 0.0412,-0.14908 0.11614,-0.14908 0.0342,0 0,-0.039 -0.10644,-0.11678 -0.0868,-0.0642 -0.21494,-0.19494 -0.28472,-0.29048 -0.12414,-0.17011 -0.12905,-0.1735 -0.23576,-0.16331 l -0.10898,0.0103 v 0.12657 c 0,0.0929 -0.0293,0.18709 -0.10989,0.35418 -0.0605,0.1252 -0.12802,0.24773 -0.15017,0.27233 -0.0361,0.0401 -0.0325,0.0565 0.0346,0.15772 0.0642,0.0969 0.0776,0.10588 0.0944,0.063 0.0106,-0.0275 0.0205,-0.0828 0.0215,-0.12307 z m -11.13518,0.0441 c 0.009,-0.0233 -0.004,-0.0623 -0.0279,-0.0866 -0.0408,-0.0408 -0.0441,-0.0377 -0.0441,0.0425 0,0.0905 0.0438,0.11734 0.0719,0.0441 z m -0.21047,-0.22693 c 0.0536,0 0.0563,-0.006 0.0268,-0.0606 -0.018,-0.0333 -0.0534,-0.1273 -0.0787,-0.20881 l -0.0459,-0.14821 -0.17829,-0.008 c -0.1626,-0.007 -0.1783,-0.003 -0.1783,0.0456 0,0.0772 -0.0465,0.0947 -0.12146,0.0456 -0.0879,-0.0576 -0.16704,-0.0539 -0.20091,0.009 -0.0431,0.0805 -0.0342,0.11516 0.0251,0.0964 0.0954,-0.0303 0.1627,0.0306 0.1627,0.14723 0,0.0579 0.0102,0.1116 0.0226,0.11935 0.0123,0.008 0.06,-0.0279 0.10544,-0.0792 0.0919,-0.10375 0.10908,-0.10927 0.17985,-0.0575 0.045,0.0328 0.0533,0.0604 0.0667,0.22013 0.004,0.0471 0.0141,0.043 0.0795,-0.0337 0.0427,-0.0498 0.10068,-0.0876 0.13462,-0.0876 z m 3.3051,0.0202 c 0.0201,-0.0454 0.0456,-0.0587 0.1015,-0.0528 0.041,0.004 0.0917,-0.009 0.11257,-0.0301 0.0325,-0.0326 0.0289,-0.0427 -0.0254,-0.0717 -0.0354,-0.019 -0.0786,-0.0242 -0.0985,-0.0119 -0.0194,0.0121 -0.0782,0.0287 -0.13053,0.0372 -0.0839,0.0135 -0.0962,0.0258 -0.10364,0.10261 -0.007,0.0758 -2.5e-4,0.0872 0.0542,0.0872 0.0391,0 0.0727,-0.0229 0.0895,-0.0606 z m 2.59962,0.01 c 0,-0.0609 0.0617,-0.0895 0.14669,-0.0682 0.0907,0.0229 0.1174,-0.0663 0.0378,-0.12638 -0.0654,-0.0493 -0.25841,-0.12055 -0.27682,-0.10213 -0.006,0.006 -0.0198,0.087 -0.0303,0.1795 l -0.019,0.16826 h 0.0708 c 0.0515,0 0.0708,-0.014 0.0708,-0.051 z m 6.52883,-0.004 c 0.0106,-0.0413 -0.004,-0.0619 -0.0525,-0.0808 -0.0963,-0.0366 -0.0985,-0.034 -0.0457,0.0554 0.0562,0.0951 0.0785,0.10091 0.0982,0.0255 z m -11.29806,-0.0158 c 0,-0.0652 0.0853,-0.12041 0.12939,-0.0838 0.0261,0.0217 0.0492,0.0153 0.0902,-0.0258 l 0.055,-0.055 -0.15169,-0.0868 c -0.0834,-0.0477 -0.16768,-0.0807 -0.18719,-0.0732 -0.0507,0.0194 -0.0829,0.31711 -0.0375,0.34595 0.056,0.0356 0.10182,0.0259 0.10182,-0.0215 z m 1.81042,-0.0501 c 0.0102,-0.0875 0.006,-0.0943 -0.0628,-0.0943 -0.0879,0 -0.12104,-0.0413 -0.0763,-0.0951 0.0279,-0.0335 0.0198,-0.0347 -0.0583,-0.009 -0.0498,0.0167 -0.1027,0.0415 -0.11751,0.0553 -0.0384,0.0357 0.0568,0.10002 0.12248,0.0828 0.0321,-0.008 0.0526,-2.2e-4 0.0526,0.0208 0,0.0383 0.0777,0.13325 0.10901,0.13325 0.0109,0 0.025,-0.0424 0.0307,-0.0943 z m 2.63546,2.2e-4 c 0,-0.19167 -0.13589,-0.27324 -0.22599,-0.13572 -0.0369,0.0563 -0.0374,0.0642 -0.004,0.0511 0.0243,-0.009 0.0476,0.004 0.0588,0.0345 0.0247,0.0658 0.11734,0.147 0.14704,0.12863 0.0127,-0.008 0.0233,-0.0433 0.0233,-0.0785 z m 2.27146,0.007 c -0.0499,-0.21956 -0.0673,-0.26272 -0.10576,-0.26272 -0.0357,0 -0.27958,0.15595 -0.27958,0.17876 0,0.004 0.025,0.0213 0.0556,0.0377 0.0392,0.0211 0.0658,0.0213 0.0899,0.002 0.0254,-0.0211 0.0508,-0.0108 0.0973,0.0386 0.0816,0.0869 0.16164,0.0905 0.14248,0.006 z m 2.3713,-0.0539 c -0.0109,-0.056 -0.0303,-0.0741 -0.0788,-0.0741 -0.0821,0 -0.0848,0.0701 -0.006,0.13889 0.0707,0.0614 0.104,0.0358 0.0843,-0.0648 z m 0.35624,0.0606 c 0,-0.0222 0.0106,-0.0564 0.0229,-0.076 0.0173,-0.0273 0.004,-0.0336 -0.0681,-0.0269 -0.0766,0.007 -0.0916,0.0202 -0.0991,0.0847 -0.008,0.0692 -0.004,0.0753 0.0674,0.0674 0.0454,-0.005 0.0764,-0.025 0.0768,-0.0491 z m -9.76821,-0.13473 c 0,-0.15412 -0.004,-0.16165 -0.0668,-0.16165 -0.0788,0 -0.28346,0.0775 -0.28346,0.10739 0,0.0394 0.0742,0.0821 0.11522,0.0663 0.0272,-0.0103 0.0579,0.0124 0.09,0.0669 0.0268,0.0455 0.0705,0.0827 0.0969,0.0827 0.0408,0 0.0481,-0.0244 0.0481,-0.16166 z m 7.36537,0.14125 c 0.007,-0.0112 0.0212,-0.0658 0.0314,-0.12123 0.0176,-0.0934 0.0141,-0.10083 -0.0447,-0.10044 -0.10975,0 -0.14002,0.0373 -0.11984,0.14483 0.0134,0.0711 0.0321,0.0972 0.0693,0.0972 0.0282,0 0.0568,-0.009 0.0637,-0.0203 z m -9.06551,-0.0707 c 0.0236,-0.0287 0.0215,-0.0409 -0.0102,-0.053 -0.0282,-0.0108 -0.0411,0 -0.0411,0.0372 0,0.0628 0.01,0.0658 0.0513,0.0158 z m 6.18642,-0.0975 c 0.009,-0.0149 0.005,-0.0269 -0.0102,-0.0269 -0.0148,0 -0.0346,0.0121 -0.0436,0.0269 -0.009,0.0148 -0.005,0.0269 0.0102,0.0269 0.0148,0 0.0346,-0.0121 0.0436,-0.0269 z m 3.07171,0 c 0.01,-0.0154 -0.0138,-0.0269 -0.0539,-0.0269 -0.0402,0 -0.0634,0.0116 -0.0539,0.0269 0.009,0.0148 0.0335,0.0269 0.0539,0.0269 0.0205,0 0.0447,-0.0121 0.0539,-0.0269 z m 4.64209,-0.0941 c 0.0486,-0.005 0.10555,-0.0226 0.12654,-0.0401 0.0212,-0.0174 0.0903,-0.058 0.1541,-0.0902 0.0637,-0.0322 0.11871,-0.0767 0.12213,-0.0989 0.004,-0.0222 -0.0451,-0.076 -0.10781,-0.11945 -0.0626,-0.0435 -0.16563,-0.11563 -0.22881,-0.16036 -0.0998,-0.0707 -0.1197,-0.0762 -0.15194,-0.0422 -0.0286,0.0302 -0.15085,0.50155 -0.15085,0.58169 0,0.009 0.0335,0.007 0.0741,-0.003 0.0407,-0.0103 0.11387,-0.0226 0.16252,-0.0273 z m -6.65032,-0.0996 c 0,-0.0215 -0.23795,-0.0615 -0.25647,-0.043 -0.007,0.007 0.0321,0.0441 0.0867,0.0828 0.0918,0.0653 0.10164,0.0671 0.13399,0.0246 0.0194,-0.0252 0.0353,-0.0543 0.0357,-0.0645 z m 1.05869,0.0388 0.071,-0.0741 -0.11984,-0.008 c -0.12982,-0.008 -0.14718,0.0155 -0.0734,0.1018 0.0254,0.0298 0.0475,0.0542 0.0489,0.0542 0.004,0 0.0346,-0.0333 0.0734,-0.0741 z m 5.19014,-0.19062 c 0.0257,-0.21345 0.0233,-0.35526 -0.007,-0.35499 -0.0483,0 -0.45568,0.0844 -0.50902,0.1049 -0.17148,0.0659 -0.03,0.27861 0.28963,0.43542 0.0889,0.0436 0.16891,0.0794 0.17773,0.0794 0.009,2e-5 0.0307,-0.1191 0.0481,-0.26469 z m -11.01803,0.12325 c 0,-0.0112 -0.0507,-0.0197 -0.11366,-0.0192 h -0.11452 l 0.0791,0.0647 c 0.0731,0.0598 0.0818,0.0612 0.11366,0.0192 0.019,-0.025 0.0349,-0.0545 0.0354,-0.0656 z m 1.00969,0.0194 c 0.0495,-0.0374 0.0477,-0.0396 -0.0339,-0.0396 -0.0818,0 -0.10732,0.0236 -0.068,0.0629 0.0254,0.0255 0.0423,0.0215 0.10171,-0.0233 z m 8.36365,-0.0427 c 0.0504,-0.0808 0.008,-0.10936 -0.14693,-0.0995 l -0.13173,0.008 0.10728,0.0741 c 0.12877,0.0889 0.12665,0.0887 0.17138,0.0169 z m 2.65931,-0.38081 c 0.0505,-0.10844 0.0659,-0.18665 0.0661,-0.33521 1.1e-4,-0.10657 -0.012,-0.20142 -0.0275,-0.2108 -0.0148,-0.009 -0.0819,0.004 -0.1482,0.029 l -0.12061,0.0461 v 0.17231 c 0,0.13197 -0.01,0.17616 -0.0424,0.18863 -0.0335,0.0128 -0.0187,0.0407 0.073,0.13387 0.0635,0.0647 0.11948,0.11759 0.12449,0.11759 0.005,0 0.0388,-0.0637 0.075,-0.14146 z m -0.10964,-0.73324 0.0817,-0.0348 -0.0746,-0.0298 c -0.0499,-0.0199 -0.0798,-0.0556 -0.0902,-0.10737 -0.012,-0.059 -0.0375,-0.0843 -0.10717,-0.10569 l -0.0917,-0.0282 v 0.18909 0.18908 l 0.10019,-0.0188 c 0.0551,-0.0103 0.13698,-0.0344 0.18186,-0.0536 z m -1.5754,-2.60385 c 0.0667,-0.0151 0.15698,-0.0262 0.20066,-0.025 0.0437,0.002 0.0736,-0.004 0.0665,-0.0105 -0.007,-0.007 -0.41264,-0.1287 -0.9012,-0.27023 -0.4886,-0.14156 -1.11873,-0.32547 -1.40032,-0.40869 -0.95945,-0.28359 -0.88343,-0.26941 -1.49543,-0.27952 -0.30381,-0.005 -0.60388,-0.0112 -0.66689,-0.0135 l -0.11451,-0.004 v 0.23386 0.23385 l 0.53217,-0.003 c 0.51512,-0.003 0.53216,0 0.53216,0.0512 0,0.0348 -0.0169,0.0526 -0.0471,0.0502 -0.0646,-0.005 -0.0597,0.0366 0.006,0.0576 0.0296,0.009 0.0539,0.0295 0.0539,0.0448 0,0.0151 -0.0243,0.034 -0.0539,0.0417 -0.0339,0.009 -0.0539,0.0367 -0.0539,0.0748 0,0.0598 0.006,0.0609 0.42432,0.0752 0.23344,0.008 0.7033,0.0343 1.04415,0.0585 1.94131,0.13787 1.72188,0.12698 1.87265,0.0931 z m 1.16755,-0.75854 c -0.009,-0.0482 -0.018,-0.0893 -0.0194,-0.0913 -0.0106,-0.014 -0.66859,-0.27499 -0.87069,-0.34535 -0.18697,-0.0651 -0.25136,-0.0779 -0.26134,-0.0519 -0.0176,0.0464 0.0912,0.10984 0.52292,0.30467 0.20003,0.0903 0.41226,0.18753 0.47152,0.21613 0.15565,0.0751 0.17675,0.0707 0.15713,-0.0322 z m -10.28947,-0.69195 c 0.008,-0.0138 0.005,-0.0315 -0.007,-0.0392 -0.0123,-0.008 -0.0229,0.004 -0.0229,0.0251 0,0.0455 0.008,0.0494 0.0303,0.0142 z m -2.0332,-1.50451 c 0,-0.0128 -0.36678,-0.0378 -0.81506,-0.0556 -1.03145,-0.0409 -1.01716,-0.041 -1.01716,0.008 0,0.0341 0.10174,0.041 0.69381,0.0471 0.38163,0.004 0.79385,0.0108 0.91613,0.0151 0.12227,0.004 0.22228,-0.002 0.22228,-0.0153 z"
       id="G-Bison"
       style="stroke-width:0.352778" />
  </g>
</svg>
