<?xml version="1.0" encoding="UTF-8" standalone="no"?>
<!-- Created with Inkscape (http://www.inkscape.org/) -->

<svg
   width="11.428589mm"
   height="3.723382mm"
   viewBox="0 0 11.428589 3.7233822"
   version="1.1"
   id="svg33402"
   sodipodi:docname="inkporter-svg-e7qp_36f.svg"
   inkscape:version="1.1.1 (3bf5ae0d25, 2021-09-20)"
   xmlns:inkscape="http://www.inkscape.org/namespaces/inkscape"
   xmlns:sodipodi="http://sodipodi.sourceforge.net/DTD/sodipodi-0.dtd"
   xmlns="http://www.w3.org/2000/svg"
   xmlns:svg="http://www.w3.org/2000/svg">
  <sodipodi:namedview
     id="namedview555"
     pagecolor="#ffffff"
     bordercolor="#666666"
     borderopacity="1.0"
     inkscape:pageshadow="2"
     inkscape:pageopacity="0.0"
     inkscape:pagecheckerboard="0"
     inkscape:document-units="mm"
     showgrid="false"
     inkscape:zoom="0.32"
     inkscape:cx="889.0625"
     inkscape:cy="4120.3125"
     inkscape:window-width="1920"
     inkscape:window-height="1017"
     inkscape:window-x="-8"
     inkscape:window-y="-8"
     inkscape:window-maximized="1"
     inkscape:current-layer="svg33402" />
  <defs
     id="defs13927" />
  <g
     id="G-Bogward"
     transform="matrix(0.35277777,0,0,-0.35277777,11.428589,0.09560278)">
    <path
       d="m 0,0 h -2.473 v 0.271 h -4.783 v -0.304 h -6.095 l -0.119,-0.206 h -0.477 c -0.044,0 0,-0.813 0,-0.813 h -8.699 c -0.032,0 -1.616,-0.174 -1.616,-0.174 l -0.032,-0.162 -5.152,-0.868 c 0,0 -0.159,0.803 -1.095,0.803 -0.662,0 -1.041,-0.564 -1.041,-0.564 h 0.748 l 0.228,-0.152 v -0.239 l -0.857,-0.119 v -2.202 l -0.748,-0.499 -0.185,-0.444 v -0.38 h 0.195 v 0.25 c 0,0 0.504,0.008 0.654,0.003 l -0.005,-0.059 c -0.074,0.005 -0.139,-0.05 -0.146,-0.124 l -0.023,-0.25 c -0.007,-0.075 0.049,-0.143 0.125,-0.15 l 0.055,-0.005 c 0.002,0 0.004,0 0.006,0 l 0.036,-0.222 c -0.073,-0.013 -0.122,-0.083 -0.111,-0.156 l 0.04,-0.248 c 0.012,-0.075 0.083,-0.126 0.157,-0.114 l 0.055,0.009 c 0.004,0 0.008,0.002 0.011,0.002 0.002,10e-4 0.004,0 0.006,0 l 0.044,0.007 0.115,-0.169 c -0.06,-0.044 -0.076,-0.127 -0.034,-0.189 l 0.14,-0.208 c 0.043,-0.062 0.129,-0.079 0.192,-0.036 l 0.046,0.031 c 0.003,0.002 0.006,0.005 0.008,0.007 0.002,0.001 0.004,0.001 0.006,0.002 l 0.022,0.015 0.189,-0.135 c -0.041,-0.061 -0.026,-0.145 0.035,-0.188 l 0.204,-0.146 c 0.061,-0.044 0.148,-0.029 0.192,0.032 l 0.032,0.046 c 10e-4,0.001 10e-4,0.002 0.002,0.002 l 0.208,-0.12 c -0.035,-0.065 -0.012,-0.147 0.052,-0.184 l 0.217,-0.126 c 0.066,-0.037 0.15,-0.015 0.188,0.051 l 0.01,0.017 0.251,-0.111 c -0.028,-0.068 0.003,-0.148 0.071,-0.178 l 0.229,-0.102 c 0.052,-0.023 0.111,-0.011 0.15,0.025 l 0.302,-0.134 c -0.028,-0.068 0.004,-0.148 0.072,-0.178 l 0.229,-0.102 c 0.067,-0.03 0.147,0 0.179,0.066 l 0.206,-0.091 c -0.027,-0.069 0.004,-0.148 0.072,-0.178 l 0.229,-0.102 c 0.054,-0.024 0.116,-0.01 0.155,0.031 l 0.283,-0.126 c -0.028,-0.068 0.003,-0.147 0.071,-0.178 l 0.229,-0.101 c 0.068,-0.031 0.148,-0.001 0.18,0.066 l 0.206,-0.092 c -0.028,-0.068 0.003,-0.148 0.071,-0.178 l 0.229,-0.102 c 0.069,-0.03 0.151,0.001 0.182,0.07 l 0.017,0.038 0.169,-0.026 c -0.009,-0.073 0.042,-0.142 0.116,-0.153 l 0.247,-0.039 c 0.075,-0.011 0.146,0.041 0.158,0.115 l 0.004,0.031 h 0.296 c 0.002,-0.074 0.063,-0.134 0.138,-0.134 h 0.25 c 0.075,0 0.135,0.06 0.138,0.134 h 0.225 c 0.002,-0.074 0.063,-0.134 0.137,-0.134 h 0.251 c 0.074,0 0.135,0.06 0.137,0.134 h 0.226 c 0.002,-0.074 0.063,-0.134 0.137,-0.134 h 0.251 c 0.074,0 0.135,0.06 0.137,0.134 h 0.226 c 0.002,-0.074 0.063,-0.134 0.137,-0.134 h 0.251 c 0.074,0 0.135,0.06 0.137,0.134 h 0.226 c 0.002,-0.074 0.063,-0.134 0.137,-0.134 h 0.251 c 0.074,0 0.135,0.06 0.137,0.134 h 0.292 c 0.002,-0.074 0.063,-0.134 0.137,-0.134 h 0.251 c 0.074,0 0.135,0.06 0.137,0.134 h 0.226 c 0.002,-0.074 0.063,-0.134 0.137,-0.134 h 0.251 c 0.074,0 0.135,0.06 0.137,0.134 h 0.226 c 0.002,-0.074 0.063,-0.134 0.137,-0.134 h 0.251 c 0.074,0 0.135,0.06 0.137,0.134 h 0.226 c 0.002,-0.074 0.063,-0.134 0.137,-0.134 h 0.251 c 0.074,0 0.135,0.06 0.137,0.134 h 0.226 c 0.002,-0.074 0.063,-0.134 0.137,-0.134 h 0.251 c 0.074,0 0.135,0.06 0.137,0.134 h 0.226 c 0.002,-0.074 0.063,-0.134 0.137,-0.134 h 0.251 c 0.074,0 0.135,0.06 0.137,0.134 h 0.225 c 0.003,-0.074 0.064,-0.134 0.138,-0.134 h 0.25 c 0.075,0 0.136,0.06 0.138,0.134 h 0.225 c 0.003,-0.074 0.063,-0.134 0.138,-0.134 h 0.25 c 0.075,0 0.136,0.06 0.138,0.134 h 0.197 c 0.003,-0.074 0.064,-0.134 0.138,-0.134 h 0.25 c 0.075,0 0.136,0.06 0.138,0.134 h 0.225 c 0.003,-0.074 0.063,-0.134 0.138,-0.134 h 0.25 c 0.075,0 0.135,0.06 0.138,0.134 h 0.225 c 0.003,-0.074 0.063,-0.134 0.138,-0.134 h 0.25 c 0.075,0 0.135,0.06 0.138,0.134 h 0.225 c 0.003,-0.074 0.063,-0.134 0.138,-0.134 h 0.25 c 0.075,0 0.135,0.06 0.138,0.134 h 0.225 c 0.002,-0.074 0.063,-0.134 0.138,-0.134 h 0.25 c 0.075,0 0.135,0.06 0.138,0.134 h 0.225 c 0.002,-0.074 0.063,-0.134 0.138,-0.134 h 0.25 c 0.074,0 0.135,0.06 0.138,0.134 h 0.225 c 0.002,-0.074 0.063,-0.134 0.137,-0.134 h 0.251 c 0.074,0 0.135,0.06 0.137,0.134 h 0.226 c 0.002,-0.074 0.063,-0.134 0.137,-0.134 h 0.251 c 0.076,0 0.138,0.062 0.138,0.138 v 0.008 l 0.244,0.01 c 0.006,-0.074 0.069,-0.131 0.143,-0.128 l 0.25,0.011 c 0.076,0.003 0.136,0.067 0.132,0.143 l -0.002,0.052 0.262,0.075 c 0.022,-0.07 0.097,-0.111 0.169,-0.091 l 0.241,0.069 c 0.071,0.02 0.113,0.095 0.095,0.166 l 0.217,0.062 c 0.023,-0.07 0.097,-0.111 0.169,-0.091 l 0.241,0.069 c 0.071,0.021 0.113,0.095 0.095,0.166 l 0.217,0.062 c 0.023,-0.07 0.097,-0.111 0.169,-0.09 l 0.241,0.068 c 0.071,0.021 0.113,0.095 0.095,0.167 l 0.217,0.062 c 0.023,-0.071 0.097,-0.112 0.169,-0.091 l 0.241,0.068 c 0.061,0.018 0.101,0.075 0.099,0.137 l 0.333,0.127 c 0.029,-0.068 0.107,-0.102 0.176,-0.075 l 0.234,0.09 c 0.071,0.027 0.106,0.107 0.079,0.178 l -0.011,0.029 c 0.008,0.003 0.015,0.007 0.021,0.012 l 0.292,0.266 c 0.051,-0.053 0.136,-0.056 0.191,-0.006 l 0.185,0.169 c 0.056,0.051 0.06,0.139 0.009,0.195 l -0.021,0.023 0.094,0.234 c 0.069,-0.025 0.147,0.009 0.175,0.078 l 0.093,0.233 c 0.028,0.07 -0.006,0.151 -0.077,0.179 l -0.047,0.019 -0.004,0.182 c 0.074,0.003 0.132,0.065 0.131,0.14 l -0.005,0.25 c -0.002,0.076 -0.065,0.137 -0.141,0.135 l -0.056,-0.001 c -0.004,0 -0.007,-0.001 -0.011,-0.001 -0.002,0 -0.003,0.001 -0.005,0.001 l -0.091,-0.002 -0.114,0.218 c 0.064,0.036 0.09,0.118 0.055,0.184 l -0.068,0.131 c 0.057,0.072 0.1,0.123 0.11,0.123 0.032,0 1.084,0.022 1.106,0 0.022,-0.022 0,0.748 0,0.748 l 0.304,0.207 0.932,1.735 h 0.402 v -0.152 h 0.499 v 0.618 H -1.301 V -3.08 h -0.207 l 0.499,0.998 0.478,-0.152 v -0.13 h 0.26 c 0,0 0.022,0.629 0.022,0.661 0,0.033 -0.304,0.564 -0.304,0.564 z m -4.927,-8.669 -0.009,0.024 c 0.045,0.027 0.09,0.056 0.132,0.088 z m 0.591,0.61 0.017,-0.007 -0.003,-0.009 z m 0.032,1.203 c 0,0.002 -10e-4,0.003 -0.002,0.005 l 0.007,0.004 0.003,-0.006 c -0.003,-0.001 -0.005,-0.002 -0.008,-0.003 m -0.209,-0.413 c 0.004,-0.035 0.005,-0.07 0.005,-0.106 0,-0.057 -0.005,-0.112 -0.013,-0.167 l -0.82,0.196 c -0.002,0.018 -0.006,0.034 -0.01,0.05 0.386,0.012 0.695,0.022 0.838,0.027 m -0.878,-0.286 0.82,-0.197 C -4.68,-8.072 -4.923,-8.331 -5.233,-8.46 l -0.25,0.806 c 0.037,0.026 0.068,0.06 0.092,0.099 m -0.298,-0.164 0.25,-0.805 c -0.079,-0.017 -0.16,-0.026 -0.244,-0.026 -0.279,0 -0.535,0.098 -0.737,0.261 l 0.587,0.605 c 0.044,-0.021 0.092,-0.034 0.144,-0.035 m -1.168,0.374 c 0.17,0.006 0.344,0.011 0.517,0.017 l 0.315,-0.076 c 0.004,-0.046 0.017,-0.09 0.038,-0.129 l -0.587,-0.606 c -0.177,0.206 -0.284,0.473 -0.284,0.764 0,0.01 10e-4,0.02 10e-4,0.03 M -7.841,-8.16 c 0,-0.066 -0.006,-0.131 -0.015,-0.194 l -0.864,0.207 c 0.192,0.097 0.505,0.256 0.81,0.411 0.044,-0.134 0.069,-0.276 0.069,-0.424 m -0.84,-1.257 -0.289,0.933 c 0.043,0.031 0.079,0.069 0.107,0.114 l 0.949,-0.227 c -0.126,-0.371 -0.407,-0.671 -0.767,-0.82 m -0.676,-0.445 v 0.002 c 0.006,-0.001 0.012,-0.001 0.017,-0.001 z m 0.722,2.465 -0.394,-0.405 c -0.05,0.024 -0.106,0.039 -0.166,0.04 l -0.113,0.365 z m -0.574,-1.161 0.29,-0.933 c -0.091,-0.02 -0.186,-0.03 -0.283,-0.03 -0.323,0 -0.619,0.113 -0.853,0.302 l 0.68,0.701 c 0.051,-0.025 0.107,-0.039 0.166,-0.04 m -1.115,1.161 h 0.755 l 0.136,-0.439 c -0.043,-0.031 -0.079,-0.07 -0.107,-0.115 l -0.95,0.228 c 0.04,0.117 0.097,0.226 0.166,0.326 m -0.223,-0.569 0.95,-0.228 c 0.004,-0.054 0.019,-0.104 0.043,-0.15 l -0.68,-0.701 c -0.204,0.238 -0.329,0.547 -0.329,0.885 0,0.066 0.007,0.13 0.016,0.194 m -1.246,-0.194 c 0,-0.066 -0.006,-0.131 -0.015,-0.194 l -0.894,0.214 c 0.201,0.101 0.525,0.266 0.834,0.423 0.048,-0.139 0.075,-0.288 0.075,-0.443 m -0.84,-1.257 -0.289,0.933 c 0.042,0.031 0.079,0.069 0.107,0.114 l 0.949,-0.227 c -0.126,-0.371 -0.407,-0.671 -0.767,-0.82 m 0.046,2.02 -0.394,-0.405 c -0.05,0.024 -0.106,0.039 -0.166,0.04 l -0.113,0.365 z m -0.74,-1.121 c 0.051,-0.025 0.106,-0.039 0.166,-0.04 l 0.29,-0.933 c -0.092,-0.02 -0.186,-0.03 -0.283,-0.03 -0.323,0 -0.619,0.113 -0.853,0.302 z m -0.95,1.121 h 0.756 l 0.136,-0.439 c -0.043,-0.031 -0.079,-0.07 -0.107,-0.115 l -0.95,0.228 c 0.04,0.117 0.097,0.226 0.165,0.326 m -0.222,-0.569 0.95,-0.228 c 0.004,-0.054 0.019,-0.104 0.043,-0.15 l -0.68,-0.701 c -0.204,0.238 -0.329,0.547 -0.329,0.885 0,0.066 0.006,0.13 0.016,0.194 m -1.349,-0.194 c 0,-0.066 -0.006,-0.131 -0.015,-0.194 l -0.898,0.215 c 0.203,0.102 0.527,0.267 0.837,0.424 0.048,-0.139 0.076,-0.289 0.076,-0.445 m -0.84,-1.257 -0.29,0.933 c 0.043,0.031 0.079,0.069 0.107,0.114 l 0.95,-0.227 c -0.126,-0.371 -0.408,-0.671 -0.767,-0.82 m 0.045,2.02 -0.393,-0.405 c -0.05,0.024 -0.106,0.039 -0.166,0.04 l -0.113,0.365 z m -0.573,-1.161 0.289,-0.933 c -0.091,-0.02 -0.185,-0.03 -0.282,-0.03 -0.323,0 -0.619,0.113 -0.853,0.302 l 0.68,0.701 c 0.05,-0.025 0.106,-0.039 0.166,-0.04 m -1.116,1.161 h 0.755 l 0.137,-0.439 c -0.043,-0.031 -0.079,-0.07 -0.107,-0.115 l -0.95,0.228 c 0.04,0.117 0.097,0.226 0.165,0.326 m -0.223,-0.569 0.95,-0.228 c 0.005,-0.054 0.02,-0.104 0.044,-0.15 l -0.68,-0.701 c -0.205,0.238 -0.329,0.547 -0.329,0.885 0,0.066 0.006,0.13 0.015,0.194 M -19.86,-8.16 c 0,-0.066 -0.006,-0.131 -0.015,-0.194 l -0.879,0.211 c 0.196,0.098 0.515,0.26 0.822,0.417 0.046,-0.137 0.072,-0.282 0.072,-0.434 m -0.84,-1.257 -0.29,0.933 c 0.043,0.031 0.079,0.069 0.107,0.114 l 0.95,-0.227 c -0.126,-0.371 -0.407,-0.671 -0.767,-0.82 m 0.045,2.02 -0.393,-0.405 c -0.05,0.024 -0.106,0.039 -0.166,0.04 l -0.113,0.365 z m -0.573,-1.161 0.29,-0.933 c -0.092,-0.02 -0.186,-0.03 -0.283,-0.03 -0.323,0 -0.619,0.113 -0.853,0.302 l 0.68,0.701 c 0.05,-0.025 0.106,-0.039 0.166,-0.04 m -1.116,1.161 h 0.755 l 0.137,-0.439 c -0.043,-0.031 -0.079,-0.07 -0.107,-0.115 l -0.95,0.228 c 0.04,0.117 0.097,0.226 0.165,0.326 m -0.223,-0.569 0.95,-0.228 c 0.005,-0.054 0.02,-0.104 0.044,-0.15 l -0.68,-0.701 c -0.204,0.238 -0.329,0.547 -0.329,0.885 0,0.066 0.006,0.13 0.015,0.194 m -1.445,0.232 c 0.044,-0.134 0.07,-0.277 0.07,-0.426 0,-0.066 -0.006,-0.131 -0.016,-0.194 l -0.868,0.208 c 0.194,0.097 0.509,0.257 0.814,0.412 m -0.77,-1.683 -0.29,0.933 c 0.043,0.031 0.079,0.069 0.107,0.114 l 0.95,-0.227 c -0.127,-0.371 -0.408,-0.671 -0.767,-0.82 m 0.045,2.02 -0.393,-0.405 c -0.051,0.024 -0.107,0.039 -0.166,0.04 l -0.113,0.365 z m -0.573,-1.161 0.289,-0.933 c -0.091,-0.02 -0.185,-0.03 -0.282,-0.03 -0.323,0 -0.62,0.113 -0.853,0.302 l 0.68,0.701 c 0.05,-0.025 0.106,-0.039 0.166,-0.04 m -1.116,1.161 h 0.755 l 0.136,-0.439 c -0.043,-0.031 -0.079,-0.07 -0.107,-0.115 l -0.949,0.228 c 0.04,0.117 0.097,0.226 0.165,0.326 m -0.223,-0.569 0.95,-0.228 c 0.005,-0.054 0.02,-0.104 0.044,-0.15 l -0.68,-0.701 c -0.205,0.238 -0.329,0.547 -0.329,0.885 0,0.066 0.006,0.13 0.015,0.194 m -4.623,1.624 c 0.002,-0.011 0.004,-0.023 0.006,-0.035 h -0.002 l -0.006,0.035 z m 4.21,-2.809 -0.052,-0.116 -0.107,0.048 c -0.002,0.025 -0.016,0.049 -0.039,0.062 l 0.052,0.117 c 0.031,0.069 0,0.151 -0.07,0.182 l -0.341,0.151 c -0.069,0.031 -0.151,0 -0.181,-0.07 l -0.052,-0.115 -0.093,0.041 0.051,0.116 c 0.031,0.069 -0.001,0.151 -0.07,0.182 l -0.341,0.152 c -0.069,0.03 -0.151,-10e-4 -0.182,-0.07 l -0.051,-0.116 -0.121,0.054 c 10e-4,0.028 -0.014,0.055 -0.04,0.07 l 0.052,0.117 c 0.031,0.069 0,0.151 -0.069,0.182 l -0.341,0.151 c -0.07,0.031 -0.151,0 -0.182,-0.069 l -0.052,-0.116 -0.098,0.043 c 0.114,0.057 0.157,0.08 0.251,0.223 0.094,0.145 0.086,0.21 0.209,0.109 0.123,-0.101 0.195,-0.109 0.289,-0.087 0.094,0.022 0.065,0.166 0.094,0.26 0.014,0.045 0.017,0.104 0.023,0.151 0.027,0.02 0.055,0.039 0.081,0.061 0.061,-0.039 0.113,-0.117 0.222,-0.053 0.041,0.025 0.079,0.059 0.113,0.094 h 1.277 c -0.115,-0.23 -0.181,-0.488 -0.181,-0.763 0,-0.379 0.124,-0.728 0.333,-1.011 l -0.202,0.09 c -0.07,0.031 -0.151,-0.001 -0.182,-0.07 m 0.541,-0.379 0.052,0.115 c 0.001,0.003 0.001,0.005 0.002,0.007 0.026,-0.025 0.052,-0.05 0.08,-0.072 l -0.041,-0.092 z m 1.326,-0.342 0.001,0.009 c 0.045,0.003 0.088,0.007 0.132,0.014 v -0.023 z m 3.136,0 h -0.102 v 0.127 c 0,0.076 -0.062,0.138 -0.138,0.138 h -0.373 c -0.076,0 -0.138,-0.062 -0.138,-0.138 v -0.127 h -0.102 v 0.127 c 0,0.076 -0.062,0.138 -0.138,0.138 h -0.373 c -0.075,0 -0.137,-0.062 -0.137,-0.138 v -0.127 h -0.103 v 0.127 c 0,0.076 -0.062,0.138 -0.138,0.138 h -0.373 c -0.075,0 -0.137,-0.062 -0.137,-0.138 v -0.127 h -0.103 v 0.127 c 0,0.04 -0.017,0.076 -0.045,0.101 0.516,0.294 0.864,0.848 0.864,1.484 0,0.206 -0.038,0.403 -0.105,0.586 0.133,0.068 0.253,0.129 0.347,0.177 h 0.606 c -0.116,-0.23 -0.182,-0.488 -0.182,-0.763 0,-0.65 0.363,-1.215 0.898,-1.504 -0.017,-0.023 -0.028,-0.051 -0.028,-0.081 z m 0.649,0 v 0.015 c 0.055,-0.006 0.112,-0.01 0.168,-0.01 v -0.005 z m 0.919,0 h -0.102 v 0.124 c 0.038,0.015 0.075,0.032 0.111,0.05 -0.005,-0.015 -0.009,-0.031 -0.009,-0.047 z m 2.253,0.127 v -0.127 h -0.102 v 0.127 c 0,0.076 -0.062,0.138 -0.138,0.138 h -0.373 c -0.076,0 -0.138,-0.062 -0.138,-0.138 v -0.127 h -0.102 v 0.127 c 0,0.076 -0.062,0.138 -0.138,0.138 h -0.373 c -0.076,0 -0.138,-0.062 -0.138,-0.138 v -0.127 h -0.102 v 0.127 c 0,0.076 -0.062,0.138 -0.138,0.138 h -0.336 c 0.482,0.302 0.803,0.836 0.803,1.447 0,0.209 -0.039,0.408 -0.108,0.593 0.128,0.065 0.243,0.124 0.334,0.17 h 0.551 c -0.115,-0.23 -0.181,-0.488 -0.181,-0.763 0,-0.612 0.322,-1.147 0.805,-1.448 -0.07,-0.006 -0.126,-0.065 -0.126,-0.137 m 0.649,-0.127 v 0.048 c 0.034,-0.008 0.068,-0.014 0.102,-0.02 v -0.028 z m 0.751,0 v 0.045 c 0.034,0.008 0.068,0.017 0.102,0.027 v -0.072 z m 2.465,0.265 c -0.076,0 -0.138,-0.062 -0.138,-0.138 v -0.127 h -0.102 v 0.127 c 0,0.076 -0.062,0.138 -0.138,0.138 h -0.373 c -0.076,0 -0.138,-0.062 -0.138,-0.138 v -0.127 h -0.074 v 0.127 c 0,0.076 -0.062,0.138 -0.138,0.138 h -0.373 c -0.076,0 -0.138,-0.062 -0.138,-0.138 v -0.127 h -0.102 v 0.127 c 0,0.076 -0.062,0.138 -0.138,0.138 h -0.079 c 0.482,0.302 0.803,0.836 0.803,1.447 0,0.213 -0.041,0.416 -0.112,0.604 0.119,0.061 0.226,0.116 0.311,0.159 h 0.622 c -0.116,-0.23 -0.182,-0.488 -0.182,-0.763 0,-0.611 0.322,-1.145 0.804,-1.447 z m 0.511,-0.265 v 0.127 c 0,0.012 -0.002,0.023 -0.005,0.034 0.035,-0.016 0.07,-0.031 0.107,-0.044 v -0.117 z m 0.75,0 v 0.006 c 0.035,10e-4 0.069,0.002 0.103,0.005 v -0.011 z m 3.106,0 h -0.102 v 0.127 c 0,0.076 -0.062,0.138 -0.138,0.138 h -0.373 c -0.075,0 -0.137,-0.062 -0.137,-0.138 v -0.127 h -0.103 v 0.127 c 0,0.076 -0.062,0.138 -0.138,0.138 h -0.373 c -0.075,0 -0.137,-0.062 -0.137,-0.138 v -0.127 h -0.103 v 0.127 c 0,0.076 -0.062,0.138 -0.137,0.138 h -0.374 c -0.075,0 -0.137,-0.062 -0.137,-0.138 v -0.127 h -0.103 v 0.127 c 0,0.023 -0.006,0.045 -0.017,0.065 0.553,0.282 0.932,0.856 0.932,1.52 0,0.212 -0.04,0.415 -0.111,0.602 0.121,0.062 0.229,0.117 0.316,0.161 h 0.513 c -0.115,-0.23 -0.182,-0.488 -0.182,-0.763 0,-0.66 0.375,-1.232 0.924,-1.516 -0.012,-0.021 -0.02,-0.044 -0.02,-0.069 z m 1.406,0.089 -0.001,0.025 c 0.026,0.01 0.051,0.019 0.076,0.03 l 0.009,-0.032 z m 2.31,0.934 c -0.073,-0.021 -0.115,-0.097 -0.094,-0.17 l 0.034,-0.122 -0.098,-0.028 -0.035,0.122 c -0.02,0.073 -0.097,0.115 -0.17,0.094 l -0.359,-0.102 c -0.073,-0.021 -0.115,-0.097 -0.094,-0.17 l 0.034,-0.122 -0.098,-0.028 -0.035,0.122 c -0.02,0.072 -0.097,0.115 -0.17,0.094 l -0.359,-0.102 c -0.073,-0.021 -0.115,-0.098 -0.094,-0.171 l 0.034,-0.121 -0.098,-0.028 -0.035,0.121 c -0.011,0.04 -0.039,0.07 -0.073,0.086 0.313,0.31 0.507,0.739 0.507,1.214 0,0.205 -0.039,0.401 -0.105,0.583 0.178,0.091 0.333,0.171 0.434,0.222 0.002,0 0.005,0 0.007,0 0,-0.006 -0.001,-0.013 -0.001,-0.02 0,-0.673 0.452,-1.24 1.069,-1.417 z m 0.623,-0.129 c -0.017,0.012 -0.037,0.018 -0.058,0.014 l -0.034,0.118 c 0.025,-10e-4 0.05,-0.004 0.076,-0.004 0.043,0 0.085,0.003 0.128,0.007 l 0.03,-0.08 z"
       id="path19777-8-9" />
  </g>
</svg>
