<?xml version="1.0" encoding="UTF-8" standalone="no"?>
<!-- Created with Inkscape (http://www.inkscape.org/) -->

<svg
   width="26.183886mm"
   height="10.959226mm"
   viewBox="0 0 26.183886 10.959226"
   version="1.1"
   id="svg19336"
   sodipodi:docname="inkporter-svg-02apifmp.svg"
   xmlns:inkscape="http://www.inkscape.org/namespaces/inkscape"
   xmlns:sodipodi="http://sodipodi.sourceforge.net/DTD/sodipodi-0.dtd"
   xmlns="http://www.w3.org/2000/svg"
   xmlns:svg="http://www.w3.org/2000/svg">
  <sodipodi:namedview
     id="namedview19338"
     pagecolor="#ffffff"
     bordercolor="#666666"
     borderopacity="1.0"
     inkscape:pageshadow="2"
     inkscape:pageopacity="0.0"
     inkscape:pagecheckerboard="0"
     inkscape:document-units="mm"
     showgrid="false"
     inkscape:zoom="0.45291836"
     inkscape:cx="569.63908"
     inkscape:cy="577.36675"
     inkscape:window-width="1920"
     inkscape:window-height="1017"
     inkscape:window-x="-8"
     inkscape:window-y="-8"
     inkscape:window-maximized="1"
     inkscape:current-layer="layer1" />
  <defs
     id="defs19333" />
  <g
     inkscape:label="Layer 1"
     inkscape:groupmode="layer"
     id="layer1"
     transform="translate(-237.77614,-156.24713)">
    <path
       d="m 239.47014,167.09705 c -0.26173,-0.12956 -0.60858,-0.4842 -0.78504,-0.80267 -0.12968,-0.23405 -0.13674,-0.27594 -0.13674,-0.81089 0,-0.49648 0.0127,-0.58805 0.10672,-0.76388 0.0587,-0.10988 0.0851,-0.19979 0.0587,-0.19979 -0.0265,0 -0.0479,0.0187 -0.0479,0.0416 0,0.0229 -0.0555,0.078 -0.12329,0.1224 -0.0679,0.0444 -0.10891,0.0574 -0.0913,0.0289 0.0176,-0.0285 0.0113,-0.0519 -0.0141,-0.0519 -0.0254,0 -0.0847,-0.0126 -0.13204,-0.0279 -0.0721,-0.0234 -0.0746,-0.0195 -0.0155,0.024 0.0536,0.0395 0.01,0.0468 -0.1831,0.0305 -0.13948,-0.0118 -0.27654,-0.0443 -0.30451,-0.0723 -0.076,-0.076 0.0265,-0.2105 0.1616,-0.21177 0.0899,-7.1e-4 0.11395,-0.0286 0.12341,-0.14208 0.006,-0.0776 0.16044,-0.95828 0.34215,-1.95714 0.18183,-0.99887 0.33052,-1.82914 0.33052,-1.84506 0,-0.0159 0.0296,-0.029 0.0655,-0.029 0.0359,0 0.076,-0.0275 0.0889,-0.0611 0.0495,-0.12901 0.39423,-0.18087 1.37707,-0.20716 1.01018,-0.027 1.78432,0.0157 1.50054,0.0827 -0.0995,0.0235 -0.0442,0.0336 0.18803,0.0342 0.35641,0.001 0.92054,-0.063 0.72863,-0.0826 -0.0898,-0.009 -0.0732,-0.0206 0.0705,-0.0486 0.29623,-0.0576 1.43376,-0.0589 1.43376,-0.001 0,0.0269 0.0328,0.049 0.0733,0.049 0.0403,0 0.0602,-0.0212 0.0442,-0.047 -0.0159,-0.0259 -0.009,-0.047 0.0152,-0.047 0.0243,0 0.053,-0.18769 0.064,-0.41711 0.0141,-0.28813 0.045,-0.45529 0.10083,-0.54059 0.1276,-0.1947 0.17279,-0.14709 0.17279,0.18208 0,0.17236 -0.0205,0.30554 -0.047,0.30554 -0.0258,0 -0.047,0.11282 -0.047,0.2507 0,0.22293 0.0106,0.2499 0.0955,0.24365 0.0525,-0.004 0.13184,-0.0472 0.17629,-0.0964 0.0793,-0.0876 0.0788,-0.0876 -0.0251,-0.001 -0.0582,0.0484 -0.1058,0.0721 -0.1058,0.0527 0,-0.0694 0.19643,-0.30953 0.29704,-0.36314 0.096,-0.0511 0.0982,-0.0489 0.0342,0.0354 -0.0375,0.0495 0.0155,0.0133 0.11751,-0.0805 0.18217,-0.1671 0.19593,-0.17118 0.70291,-0.20892 0.67165,-0.05 1.09657,-0.0526 1.25748,-0.008 l 0.12925,0.0362 v -0.37357 -0.37356 l 0.25644,0.0265 c 0.18976,0.0196 0.30137,0.005 0.42929,-0.0555 0.18013,-0.0855 0.49696,-0.0728 0.52825,0.0212 0.009,0.0265 0.12841,0.0481 0.26571,0.0481 h 0.2497 l 0.48285,0.50534 c 0.40245,0.4212 0.99102,1.16142 1.49154,1.87582 0.0972,0.13875 0.10386,0.19923 0.10386,0.94152 v 0.79324 l 0.17628,-0.009 c 0.0969,-0.005 0.66809,-0.0108 1.26923,-0.0131 1.01169,-0.004 1.0929,-0.0104 1.0929,-0.0873 0,-0.0961 -1.85914,-1.3601 -1.9649,-1.33596 -0.0434,0.01 -0.0558,-0.0134 -0.0378,-0.0705 0.0856,-0.27119 0.45138,-1.52013 0.45138,-1.54105 0,-0.0137 -0.22737,-0.0252 -0.50532,-0.0254 -0.27792,-1.7e-4 -0.61638,-0.0138 -0.75213,-0.0301 l -0.24676,-0.0296 v -0.22849 -0.2285 h -0.18807 c -0.1675,0 -0.18803,-0.0124 -0.18803,-0.11359 0,-0.0625 -0.0265,-0.12318 -0.0588,-0.13488 -0.047,-0.017 -0.047,-0.0412 0,-0.12081 0.0321,-0.0547 0.0588,-0.14211 0.0588,-0.19417 0,-0.0886 0.0303,-0.0947 0.47011,-0.0947 0.38651,0 0.47008,-0.0125 0.47008,-0.0705 0,-0.0607 -0.17537,-0.0719 -1.25751,-0.0801 -0.69159,-0.005 -1.80961,-0.002 -2.48455,0.007 -0.8836,0.0117 -1.23638,0.001 -1.26022,-0.0374 -0.0233,-0.0381 -0.42387,-0.0536 -1.38596,-0.0536 -0.74408,0 -1.86397,-0.014 -2.48864,-0.031 l -1.1358,-0.031 v -0.2453 -0.2453 l 0.85788,-0.0289 c 0.47181,-0.0159 1.5934,-0.0424 2.49241,-0.0589 0.89899,-0.0165 1.64592,-0.0484 1.65982,-0.0709 0.0141,-0.0225 0.36961,-0.0409 0.79044,-0.0409 0.42086,0 1.49846,-0.014 2.39462,-0.0311 l 1.62944,-0.0311 v -0.1099 c 0,-0.103 0.018,-0.10991 0.28208,-0.10991 h 0.28201 v -0.25854 c 0,-0.25593 0,-0.25854 0.14104,-0.25854 0.11907,0 0.14105,-0.0183 0.14105,-0.11752 0,-0.11594 0.006,-0.11761 0.4113,-0.12359 0.2262,-0.004 0.5098,-0.001 0.63013,0.004 0.21082,0.01 0.22098,0.004 0.27855,-0.15519 l 0.0597,-0.16526 0.19152,0.0969 c 0.10538,0.0533 0.20842,0.12585 0.22913,0.16127 0.03,0.0516 0.22684,0.0629 0.98718,0.0569 0.52225,-0.004 0.88082,-0.0161 0.79678,-0.0265 -0.13903,-0.0173 -0.15275,-0.0335 -0.15275,-0.18051 0,-0.11226 0.0215,-0.16154 0.0705,-0.16154 0.0438,0 0.0705,0.0444 0.0705,0.11752 0,0.11329 0.0109,0.11751 0.30554,0.11751 0.16806,0 0.30554,0.0205 0.30554,0.0455 0,0.0258 0.22877,0.0512 0.52885,0.0588 l 0.52885,0.0133 0.0152,0.13111 c 0.0116,0.10209 0.0454,0.13717 0.15201,0.1585 0.0753,0.0151 0.12548,0.046 0.11144,0.0687 -0.0141,0.0227 0.0921,0.0413 0.23583,0.0413 0.14369,0 0.2613,-0.0212 0.2613,-0.047 0,-0.0258 0.0635,-0.047 0.14101,-0.047 0.13515,0 0.141,0.009 0.141,0.20501 0,0.19334 0.007,0.20374 0.11755,0.18256 0.0646,-0.0123 0.11751,-0.0494 0.11751,-0.0823 0,-0.0729 0.28018,-0.13132 0.43882,-0.0915 0.1077,0.027 0.11666,0.053 0.13455,0.38942 0.0106,0.19825 0.004,0.36751 -0.0187,0.37613 -0.0548,0.0227 -0.0463,0.24287 0.01,0.24287 0.0258,0 0.047,0.10576 0.047,0.23504 0,0.2419 0.039,0.28743 0.14104,0.16453 0.0848,-0.1022 0.93091,-0.1022 0.97014,0 0.0215,0.0567 0.12732,0.0705 0.53915,0.0705 0.46175,0 0.51202,0.008 0.51202,0.0846 0,0.0465 0.0226,0.10744 0.0508,0.13535 0.0363,0.0363 -0.0152,0.11762 -0.18086,0.28599 -0.2479,0.25187 -0.41134,0.33465 -0.49513,0.25084 -0.0682,-0.0682 -0.5413,-0.0662 -0.74016,0.003 -0.11966,0.0417 -0.16154,0.0417 -0.17544,0 -0.0106,-0.0319 -0.11546,-0.0548 -0.25058,-0.0548 -0.21787,0 -0.23396,0.008 -0.25915,0.13423 -0.0873,0.4366 -0.8679,0.80504 -1.67244,0.78944 l -0.36192,-0.007 0.12689,0.13236 c 0.10333,0.1078 0.1269,0.17605 0.1269,0.36792 0,0.21199 -0.0173,0.25168 -0.17561,0.39648 -0.18557,0.17006 -0.41526,0.21281 -0.60315,0.11226 -0.076,-0.0407 -0.0909,-0.033 -0.0909,0.047 0,0.0803 0.0303,0.0957 0.18803,0.0957 0.1475,0 0.18817,0.0177 0.1887,0.0823 0,0.0452 0.0131,0.12986 0.0286,0.18803 0.0226,0.0853 0.009,0.10577 -0.0711,0.10577 -0.066,0 -0.0995,0.0297 -0.0995,0.0883 0,0.0485 -0.0317,0.11459 -0.0705,0.14678 -0.0388,0.0322 -0.0705,0.0854 -0.0705,0.11825 0,0.0328 -0.0317,0.0719 -0.0705,0.0868 -0.10054,0.0386 -0.0872,0.0944 0.0353,0.14813 0.10358,0.0454 0.17893,0.25794 0.0915,0.25794 -0.0243,0 -0.0102,0.0701 0.0317,0.15566 0.0607,0.12393 0.0987,0.15139 0.18637,0.13472 0.0767,-0.0146 0.0919,-0.0321 0.0503,-0.0579 -0.0883,-0.0546 0.25242,-0.10823 0.45075,-0.071 0.0904,0.017 0.16453,0.0515 0.16453,0.0766 0,0.0287 0.38778,0.0411 1.0395,0.0331 l 1.03949,-0.0127 0.1306,-0.32905 c 0.0852,-0.21468 0.12249,-0.3798 0.10718,-0.47503 -0.0198,-0.1212 -0.006,-0.15058 0.0803,-0.17312 0.0576,-0.0151 0.09,-0.0494 0.0728,-0.0773 -0.0169,-0.0276 -0.0102,-0.0502 0.0152,-0.0502 0.0453,0 0.12979,-0.20944 0.17124,-0.42449 0.0116,-0.0601 0.0405,-0.12133 0.0643,-0.13616 0.024,-0.0148 0.0797,-0.13801 0.12407,-0.27375 0.0443,-0.13573 0.0991,-0.24679 0.12174,-0.24679 0.0226,0 0.17353,0.0522 0.33542,0.11591 0.16186,0.0637 0.83372,0.31643 1.49296,0.56152 0.65931,0.24508 1.26746,0.47256 1.35149,0.5055 0.11021,0.0432 0.15275,0.0898 0.15275,0.16711 0,0.059 -0.0286,0.10721 -0.0635,0.10721 -0.0389,0 -0.14979,0.24121 -0.28639,0.62285 -0.12255,0.34257 -0.2747,0.71276 -0.33806,0.82264 -0.0633,0.10988 -0.0984,0.20296 -0.0779,0.20684 0.0205,0.004 -0.0579,0.0198 -0.17431,0.0352 -0.20415,0.0272 -0.21096,0.0334 -0.19671,0.17631 0.0166,0.16797 -0.0563,0.24004 -0.1579,0.15573 -0.0434,-0.0361 -0.0684,-0.0387 -0.0684,-0.007 0,0.0273 0.0476,0.0641 0.10573,0.0818 0.16909,0.0515 0.2703,0.1666 0.2703,0.30727 0,0.0919 0.0296,0.13998 0.0999,0.16227 0.0549,0.0174 0.1131,0.0136 0.12922,-0.009 0.0162,-0.0222 0.0929,-0.0465 0.17046,-0.054 0.25548,-0.0249 0.44655,-0.10707 0.44655,-0.19203 0,-0.11865 0.0948,-0.19379 0.24447,-0.19379 0.1657,0 0.18528,0.15983 0.0258,0.21104 -0.0896,0.0288 -0.0932,0.0373 -0.0233,0.0559 0.10058,0.0268 0.10905,0.19577 0.0116,0.23312 -0.0931,0.0357 -0.0901,0.14044 0.005,0.17694 0.0553,0.0212 0.0671,0.0623 0.0443,0.15327 -0.0169,0.0684 -0.006,0.1852 0.025,0.25962 0.0639,0.1542 0.031,0.21943 -0.069,0.13651 -0.0549,-0.0455 -0.074,-0.0362 -0.10111,0.0491 -0.0321,0.10145 -0.036,0.10207 -0.098,0.017 -0.0596,-0.0816 -0.0645,-0.082 -0.0645,-0.005 0,0.0541 -0.0289,0.077 -0.0823,0.066 -0.0872,-0.018 -0.092,-0.0567 -0.0392,-0.31895 0.0183,-0.0905 0.0159,-0.14102 -0.005,-0.11229 -0.0208,0.0288 -0.14139,0.0675 -0.26758,0.0861 -0.22793,0.0336 -0.22937,0.033 -0.2063,-0.0875 0.0201,-0.10565 0.007,-0.12133 -0.1009,-0.12133 -0.0682,0 -0.16573,0.0291 -0.21674,0.0647 -0.051,0.0356 -0.20204,0.0796 -0.33564,0.0979 -0.20969,0.0287 -0.25632,0.0199 -0.34078,-0.0647 l -0.0979,-0.0979 v 0.0983 c 0,0.11569 -0.15325,0.32429 -0.29778,0.40532 -0.0776,0.0436 -0.0835,0.0575 -0.0247,0.0588 0.15166,0.004 0.18165,0.27329 0.0442,0.39769 -0.0699,0.0633 -0.11094,0.0704 -0.1833,0.0316 -0.0722,-0.0386 -0.0993,-0.0341 -0.11998,0.0198 -0.0148,0.0383 -0.009,0.0696 0.0134,0.0696 0.0219,0 0.05,0.0521 0.0622,0.11576 0.0265,0.13845 -0.15377,0.3348 -0.26733,0.29123 -0.0437,-0.0168 -0.0729,-0.003 -0.0729,0.0357 0,0.035 -0.0565,0.10064 -0.12552,0.14587 -0.0968,0.0634 -0.14446,0.0704 -0.20846,0.0305 -0.0691,-0.0432 -0.0854,-0.0344 -0.0977,0.0524 -0.0212,0.15008 -0.29835,0.17726 -0.34393,0.0337 -0.0441,-0.13909 -0.18446,-0.10027 -0.20256,0.056 -0.0113,0.098 -0.0473,0.13294 -0.16256,0.15826 -0.0956,0.021 -0.15434,0.0135 -0.16595,-0.0212 -0.025,-0.0752 -0.14834,-0.19307 -0.20189,-0.19307 -0.0247,0 -0.0702,0.0582 -0.10143,0.12927 -0.0689,0.15671 -0.12156,0.19812 -0.2534,0.19906 -0.0685,3.5e-4 -0.1101,-0.0368 -0.13021,-0.1168 -0.0451,-0.17997 -0.21988,-0.1437 -0.28303,0.0588 -0.0447,0.14308 -0.32805,0.15135 -0.40273,0.0117 -0.0645,-0.12045 -0.21336,-0.12045 -0.31648,0 -0.0509,0.0595 -0.13867,0.094 -0.239,0.094 -0.11893,0 -0.16461,-0.0235 -0.18303,-0.094 -0.0318,-0.12105 -0.12707,-0.11972 -0.24175,0.004 -0.11624,0.1248 -0.41021,0.1137 -0.39998,-0.0151 0.009,-0.1148 -0.15505,-0.10595 -0.21802,0.0117 -0.0353,0.0656 -0.0985,0.094 -0.20937,0.094 -0.23407,0 -0.3229,-0.0427 -0.25619,-0.12302 0.0905,-0.10904 -0.0811,-0.0798 -0.18479,0.0315 -0.0696,0.0747 -0.13903,0.0939 -0.30779,0.0852 -0.18652,-0.01 -0.21393,-0.0236 -0.19082,-0.0965 0.036,-0.1136 -0.0543,-0.10846 -0.1547,0.009 -0.0541,0.0632 -0.13867,0.094 -0.25809,0.094 -0.1482,0 -0.17759,-0.0161 -0.17759,-0.0972 0,-0.0792 -0.0198,-0.0911 -0.10572,-0.0643 -0.0582,0.0181 -0.1227,0.0618 -0.14337,0.0972 -0.0215,0.0367 -0.11494,0.0644 -0.21781,0.0644 -0.14072,0 -0.18563,-0.0206 -0.20482,-0.094 -0.0314,-0.12033 -0.10022,-0.11925 -0.21445,0.004 -0.11628,0.1248 -0.41025,0.11369 -0.40002,-0.0151 0.009,-0.11331 -0.13102,-0.10461 -0.23297,0.0145 -0.10816,0.12631 -0.4354,0.11516 -0.42514,-0.0145 0.009,-0.11078 -0.10618,-0.1042 -0.20545,0.0117 -0.0541,0.0632 -0.13868,0.094 -0.2581,0.094 -0.14622,0 -0.17755,-0.0166 -0.17755,-0.094 0,-0.12184 -0.11292,-0.12027 -0.22793,0.003 -0.118,0.12671 -0.45752,0.1154 -0.44718,-0.0149 0.009,-0.11078 -0.10619,-0.1042 -0.20546,0.0117 -0.10001,0.11681 -0.43568,0.13491 -0.43568,0.0235 0,-0.043 -0.0438,-0.0705 -0.1125,-0.0705 -0.0618,0 -0.12463,0.0317 -0.13952,0.0705 -0.0169,0.0447 -0.0894,0.0705 -0.19749,0.0705 -0.13088,0 -0.1761,-0.0218 -0.19498,-0.094 -0.0138,-0.0517 -0.0491,-0.094 -0.0792,-0.094 -0.03,0 -0.0908,0.0423 -0.13504,0.094 -0.12506,0.14601 -0.52878,0.11787 -0.47096,-0.0328 0.0219,-0.0575 0.005,-0.065 -0.0852,-0.037 -0.0621,0.0193 -0.12979,0.064 -0.15046,0.0994 -0.0518,0.0886 -0.35744,0.0838 -0.39197,-0.006 -0.0148,-0.0388 -0.0649,-0.0705 -0.11102,-0.0705 -0.0462,0 -0.0962,0.0317 -0.11102,0.0705 -0.018,0.0465 -0.0915,0.0705 -0.21657,0.0705 -0.16143,0 -0.18952,-0.0147 -0.18952,-0.0991 0,-0.0846 -0.0191,-0.0944 -0.12925,-0.0668 -0.0711,0.0178 -0.14619,0.0624 -0.16687,0.0991 -0.0226,0.0401 -0.11183,0.0668 -0.22331,0.0668 -0.15434,0 -0.18566,-0.0159 -0.18566,-0.094 0,-0.0705 -0.0314,-0.094 -0.12538,-0.094 -0.0689,0 -0.11141,0.0139 -0.0944,0.0309 0.0632,0.0632 -0.0792,0.1571 -0.23806,0.1571 -0.14986,0 -0.16227,-0.0103 -0.14174,-0.11751 0.0198,-0.10321 0.006,-0.11753 -0.11205,-0.11753 -0.074,0 -0.13454,0.0227 -0.13454,0.0504 0,0.0734 -0.12305,0.18467 -0.20433,0.18467 -0.1415,0 -0.21873,-0.0599 -0.21873,-0.16956 0,-0.14783 -0.16421,-0.15231 -0.28134,-0.008 -0.0724,0.0895 -0.10452,0.0979 -0.21907,0.0576 -0.0985,-0.0346 -0.1342,-0.078 -0.1342,-0.16294 0,-0.13979 -0.13144,-0.18031 -0.2383,-0.0735 -0.15896,0.15896 -0.41857,0.0518 -0.36555,-0.15095 0.0208,-0.0802 0,-0.1129 -0.0991,-0.15033 -0.16175,-0.0615 -0.21664,-0.0605 -0.202,0.004 0.006,0.0283 -0.0335,0.0691 -0.089,0.0906 -0.0774,0.03 -0.12559,0.0127 -0.20754,-0.0746 -0.0897,-0.0955 -0.0986,-0.13176 -0.0554,-0.22659 0.0436,-0.0956 0.0349,-0.1286 -0.0576,-0.21544 -0.0668,-0.0627 -0.11606,-0.0818 -0.12693,-0.0491 -0.0127,0.0384 -0.0536,0.0398 -0.14481,0.005 -0.17032,-0.0648 -0.22592,-0.27365 -0.10026,-0.37684 0.0498,-0.0409 0.0842,-0.10606 0.0765,-0.14484 -0.0113,-0.0565 -0.0794,-0.0674 -0.34199,-0.0549 -0.18327,0.009 -0.32794,0.037 -0.32794,0.064 0,0.0301 -0.13776,0.0435 -0.36435,0.0356 -0.20034,-0.007 -0.5364,-0.009 -0.74676,-0.005 l -0.38248,0.008 -0.03,0.20011 c -0.0714,0.47614 -0.44608,1.00363 -0.8964,1.2619 -0.22906,0.1314 -0.25531,0.13539 -0.89408,0.13578 -0.58142,3.4e-4 -0.68217,-0.0115 -0.86449,-0.10175 z m 13.67109,-0.38766 c 0.0455,-0.0549 0.038,-0.0623 -0.042,-0.0413 -0.11754,0.0308 -0.17554,0.10814 -0.081,0.10814 0.0371,0 0.0925,-0.03 0.12298,-0.0668 z m -5.15726,-0.0447 c 0.0756,-0.0574 0.0732,-0.0721 -0.0356,-0.21946 -0.0641,-0.0868 -0.1506,-0.27946 -0.1923,-0.42803 -0.0727,-0.25911 -0.0799,-0.26749 -0.17607,-0.20561 -0.0595,0.0383 -0.19141,0.0588 -0.32455,0.0504 -0.25693,-0.0162 -0.33916,0.0605 -0.25739,0.23999 0.0873,0.19174 -0.1555,0.34751 -0.2897,0.18581 -0.0872,-0.10501 -0.28547,0.01 -0.28596,0.16567 0,0.14924 0.16362,0.20079 0.33553,0.10546 0.1452,-0.0805 0.22821,-0.0803 0.22821,7e-4 0,0.11142 0.23519,0.13734 0.40693,0.0449 0.14199,-0.0765 0.16051,-0.0772 0.21505,-0.008 0.10604,0.13391 0.25414,0.16094 0.37574,0.0686 z m 2.0108,-0.0295 c 0.0646,-0.0506 0.10266,-0.0924 0.0845,-0.093 -0.0668,-0.002 -0.27252,0.10927 -0.27252,0.14753 0,0.0625 0.0611,0.0447 0.18803,-0.0546 z m 1.85533,0.0494 c 0.0488,-0.0789 -0.13148,-0.13254 -0.24504,-0.0729 -0.058,0.0305 -0.0915,0.0694 -0.0744,0.0865 0.0473,0.0473 0.28814,0.037 0.31944,-0.0136 z m 1.83476,-0.0494 c -0.14782,-0.0979 -0.33218,-0.1282 -0.28152,-0.0462 0.0162,0.0263 0.0528,0.0334 0.0813,0.0158 0.0335,-0.0206 0.0411,-0.004 0.0215,0.0462 -0.0247,0.0643 0,0.0782 0.14481,0.0779 l 0.17477,-3.4e-4 z m 1.37975,0.0424 c 0.0814,-0.0284 0.14806,-0.0707 0.14806,-0.094 0,-0.0573 -0.007,-0.0558 -0.24169,0.0506 -0.21858,0.0992 -0.15328,0.1295 0.0936,0.0434 z m 0.47709,0.0331 c 0,-0.0102 -0.0317,-0.0306 -0.0705,-0.0455 -0.0388,-0.0149 -0.0705,-0.007 -0.0705,0.0185 0,0.025 0.0317,0.0455 0.0705,0.0455 0.0388,0 0.0705,-0.008 0.0705,-0.0185 z m 1.47969,-0.0245 c 0.09,-0.0352 0.0896,-0.0382 -0.0138,-0.0933 -0.12496,-0.0669 -0.29097,-0.0275 -0.29097,0.0689 0,0.0727 0.15003,0.0848 0.30448,0.0244 z m -0.18697,-0.0511 c 0.0159,-0.0259 0.0383,-0.047 0.0498,-0.047 0.0113,0 0.0208,0.0212 0.0208,0.047 0,0.0259 -0.0222,0.047 -0.0498,0.047 -0.0272,0 -0.0367,-0.0212 -0.0208,-0.047 z m 2.23287,-0.11403 c 0.13339,-0.11295 0.18063,-0.12168 0.25517,-0.0471 0.0577,0.0577 0.10417,0.0644 0.20359,0.0295 l 0.12883,-0.0452 -0.141,-0.0556 c -0.0776,-0.0306 -0.23079,-0.10022 -0.34051,-0.15481 l -0.19953,-0.0992 -0.16023,0.18446 c -0.11356,0.13071 -0.14086,0.18892 -0.0938,0.19977 0.0367,0.008 0.0526,0.0379 0.0356,0.0656 -0.0415,0.0673 0.21682,0.003 0.31203,-0.0774 z m -0.0627,-0.15235 c -0.0571,-0.0571 -0.0325,-0.10717 0.0392,-0.0797 0.0388,0.0149 0.0705,0.046 0.0705,0.069 0,0.0493 -0.0648,0.0556 -0.10971,0.0106 z m -12.91149,0.12536 c 0,-0.0259 -0.0688,-0.0455 -0.15279,-0.0437 -0.12803,0.003 -0.13752,0.01 -0.0588,0.0437 0.1299,0.0558 0.21157,0.0558 0.21157,0 z m 2.86748,-0.094 c 0,-0.0259 -0.0212,-0.047 -0.047,-0.047 -0.0257,0 -0.047,0.0212 -0.047,0.047 0,0.0259 0.0212,0.047 0.047,0.047 0.0258,0 0.047,-0.0212 0.047,-0.047 z m 0.56409,0 c 0,-0.0259 -0.0212,-0.047 -0.047,-0.047 -0.0258,0 -0.047,0.0212 -0.047,0.047 0,0.0259 0.0212,0.047 0.047,0.047 0.0258,0 0.047,-0.0212 0.047,-0.047 z m 6.29906,0 c 0,-0.0259 -0.0222,-0.047 -0.0498,-0.047 -0.0272,0 -0.0367,0.0212 -0.0208,0.047 0.0159,0.0259 0.0384,0.047 0.0498,0.047 0.0113,0 0.0208,-0.0212 0.0208,-0.047 z m 0.56409,0 c 0,-0.0259 -0.0222,-0.047 -0.0498,-0.047 -0.0272,0 -0.0367,0.0212 -0.0208,0.047 0.0159,0.0259 0.0384,0.047 0.0498,0.047 0.0113,0 0.0208,-0.0212 0.0208,-0.047 z m -5.64095,-0.32905 c 0,-0.12927 -0.0169,-0.23504 -0.0375,-0.23504 -0.0205,0 -0.11772,0.0822 -0.21583,0.18268 l -0.1784,0.18267 0.1336,0.0487 c 0.2666,0.0971 0.2981,0.0782 0.2981,-0.17897 z m 0.53753,0.18919 c 0.16464,-0.0626 0.1513,-0.15458 -0.044,-0.30352 l -0.1645,-0.1255 v 0.23744 c 0,0.25041 0.0155,0.26486 0.20846,0.19158 z m 2.88487,-0.20461 c 0.008,-0.1208 0,-0.21962 -0.0176,-0.21962 -0.0176,0 -0.11483,0.0747 -0.2159,0.16604 l -0.18379,0.16604 0.15458,0.067 c 0.085,0.0369 0.17572,0.061 0.20158,0.0536 0.0257,-0.007 0.0535,-0.11231 0.0613,-0.23309 z m 0.65726,0.14523 c 0.0484,-0.0401 0.0296,-0.0834 -0.0912,-0.20775 -0.0837,-0.0864 -0.16926,-0.1571 -0.19008,-0.1571 -0.0208,0 -0.0378,0.10806 -0.0378,0.24014 0,0.23837 0,0.2399 0.12901,0.20775 0.071,-0.0178 0.15649,-0.0552 0.19004,-0.083 z m 2.77432,-0.14523 c 0.008,-0.1208 -0.004,-0.21962 -0.0261,-0.21962 -0.0544,0 -0.36368,0.32187 -0.33588,0.34966 0.0423,0.0423 0.254,0.11402 0.3006,0.10185 0.0258,-0.007 0.0535,-0.11111 0.0613,-0.23189 z m 0.56624,0.19885 c 0.0814,-0.0284 0.14806,-0.0644 0.14806,-0.08 0,-0.0432 -0.29517,-0.33844 -0.33828,-0.33844 -0.0208,0 -0.0379,0.10577 -0.0379,0.23504 0,0.25448 0.007,0.26037 0.22804,0.18343 z m -17.98087,-0.19518 c -0.0412,-0.22046 -0.0816,-0.24472 -0.2776,-0.16656 l -0.17371,0.0693 0.13533,0.0948 c 0.12978,0.0909 0.23766,0.1436 0.31044,0.15152 0.019,0.002 0.0212,-0.065 0.006,-0.14906 z m -0.20415,-0.13075 c 0,-0.025 0.0317,-0.0455 0.0705,-0.0455 0.0388,0 0.0705,0.008 0.0705,0.0185 0,0.0102 -0.0317,0.0307 -0.0705,0.0455 -0.0388,0.0149 -0.0705,0.007 -0.0705,-0.0185 z m 0.80906,0.0931 c 0.0762,-0.0794 0.0728,-0.0863 -0.0674,-0.13521 -0.17092,-0.0596 -0.22267,-0.0138 -0.22387,0.19804 0,0.12081 0.007,0.12668 0.10509,0.0759 0.0582,-0.0303 0.14192,-0.0927 0.1862,-0.13872 z m -0.19798,-0.005 c 0,-0.0216 0.0201,-0.0392 0.0442,-0.0392 0.0243,0 0.0551,0.0176 0.0684,0.0392 0.0134,0.0215 -0.007,0.0392 -0.0442,0.0392 -0.0375,0 -0.0685,-0.0176 -0.0685,-0.0392 z m 8.71576,-0.0216 c 0.0342,-0.0887 -0.0478,-0.20558 -0.14404,-0.20558 -0.08,0 -0.13053,0.1145 -0.0933,0.21154 0.0364,0.0942 0.20049,0.0901 0.23735,-0.006 z m 3.41179,0.007 c 0.0838,-0.10092 0.0219,-0.2217 -0.1046,-0.20368 -0.12044,0.0172 -0.17096,0.17169 -0.0758,0.23199 0.0881,0.0558 0.11394,0.0518 0.18041,-0.0283 z m 3.4556,-0.0711 c 0,-0.0862 -0.0282,-0.12154 -0.10601,-0.13258 -0.0636,-0.009 -0.1173,0.0145 -0.13427,0.0588 -0.0468,0.12196 0.0191,0.22278 0.13427,0.20638 0.0777,-0.011 0.10601,-0.0464 0.10601,-0.13257 z m 3.59607,-0.16453 c 0,-0.25166 -0.0655,-0.27194 -0.25156,-0.0778 -0.10108,0.10547 -0.11533,0.14416 -0.0676,0.18297 0.0526,0.0427 0.16418,0.0824 0.28388,0.1009 0.0194,0.003 0.0353,-0.0897 0.0353,-0.20608 z m 0.55002,0.14011 0.17099,-0.0714 -0.13423,-0.14012 c -0.19216,-0.20049 -0.25771,-0.18232 -0.25771,0.0714 0,0.11634 0.0113,0.21153 0.0251,0.21153 0.0141,0 0.10192,-0.0321 0.19593,-0.0714 z m -1.66459,-0.11661 c 0.0159,-0.0611 0,-0.094 -0.0415,-0.094 -0.0364,0 -0.0661,-0.0317 -0.0661,-0.0705 0,-0.05 -0.0507,-0.0705 -0.17378,-0.0705 h -0.17374 l 0.15945,0.16453 c 0.18129,0.18707 0.26025,0.2059 0.29566,0.0705 z m -9.85131,-0.0527 c 0.0787,-0.0787 0.0183,-0.1823 -0.10672,-0.1823 -0.12802,0 -0.1742,0.0553 -0.13391,0.16029 0.0332,0.0866 0.16404,0.0986 0.24063,0.022 z m -9.08297,-0.0883 c 0.0159,-0.0259 -0.0159,-0.047 -0.0705,-0.047 -0.0548,0 -0.0865,0.0212 -0.0705,0.047 0.0159,0.0259 0.0477,0.047 0.0705,0.047 0.0226,0 0.0545,-0.0212 0.0705,-0.047 z m 1.33974,0 c 0,-0.0259 -0.0212,-0.047 -0.047,-0.047 -0.0258,0 -0.047,-0.04 -0.047,-0.089 0,-0.0893 -0.10732,-0.16409 -0.15995,-0.11147 -0.0496,0.0496 -0.0307,0.10058 0.0748,0.19863 0.11198,0.10431 0.17918,0.12263 0.17918,0.0488 z m 9.2008,0.0186 c -0.0155,-0.0156 -0.0562,-0.0173 -0.0901,-0.004 -0.0375,0.015 -0.0265,0.0261 0.0286,0.0284 0.0495,0.002 0.0773,-0.009 0.0617,-0.0247 z m -7.78549,-0.52088 c -0.0187,-0.0694 -0.0596,-0.13129 -0.0911,-0.1375 -0.0314,-0.006 -0.0356,-3.5e-4 -0.009,0.0126 0.0265,0.0131 0.0482,0.0631 0.0482,0.11101 0,0.0631 -0.0422,0.0924 -0.15278,0.10608 -0.13533,0.0168 -0.13043,0.0198 0.0429,0.0265 0.19054,0.007 0.1948,0.004 0.16196,-0.11868 z m 20.11338,-0.69752 c -0.0488,-0.0588 -0.069,-0.0614 -0.099,-0.0129 -0.0243,0.039 -0.009,0.0716 0.0429,0.0903 0.10926,0.0398 0.12986,0.0114 0.0561,-0.0774 z m -24.20888,-0.50702 c 0,-0.0209 -0.0205,-0.0249 -0.0463,-0.009 -0.0258,0.016 -0.0467,0.0648 -0.0463,0.10854 0,0.0685 0.007,0.0697 0.0463,0.009 0.025,-0.0388 0.0459,-0.0876 0.0463,-0.10854 z m 18.40431,-0.0325 c -0.0159,-0.0259 -0.0689,-0.047 -0.11751,-0.047 -0.0487,0 -0.10157,0.0212 -0.11755,0.047 -0.0169,0.0275 0.0317,0.047 0.11755,0.047 0.0857,0 0.13451,-0.0195 0.11751,-0.047 z m 1.49775,-0.0705 c -0.0148,-0.0388 -0.0353,-0.0705 -0.0455,-0.0705 -0.0102,0 -0.0187,0.0317 -0.0187,0.0705 0,0.0388 0.0205,0.0705 0.0455,0.0705 0.025,0 0.0335,-0.0317 0.0187,-0.0705 z m 0.45311,-0.0251 c 0,-0.0777 -0.0155,-0.0868 -0.0823,-0.0486 -0.21834,0.12498 -0.22712,0.1428 -0.0705,0.14354 0.12256,3.5e-4 0.15279,-0.0182 0.15279,-0.095 z m 3.38455,0.0487 c 0,-0.0259 -0.0222,-0.047 -0.0498,-0.047 -0.0272,0 -0.0367,0.0212 -0.0208,0.047 0.0159,0.0259 0.0383,0.047 0.0498,0.047 0.0113,0 0.0208,-0.0212 0.0208,-0.047 z M 238.46952,163.705 c 0.009,-0.0464 -0.0152,-0.0784 -0.0588,-0.0784 -0.0436,0 -0.0739,0.0402 -0.0739,0.0979 0,0.11456 0.10986,0.0984 0.13272,-0.0196 z m 15.82709,-0.0304 c -0.0155,-0.0253 -0.005,-0.09 0.024,-0.14376 0.0774,-0.14473 0.33609,-0.11156 0.38033,0.0488 0.03,0.10827 0.0328,0.10549 0.0371,-0.0353 l 0.005,-0.15278 h -0.28201 -0.28209 v 0.16453 c 0,0.11768 0.0208,0.16453 0.0733,0.16453 0.0403,0 0.0605,-0.0207 0.0448,-0.046 z m -1.34662,-0.19767 c -0.0451,-0.0313 -0.0325,-0.0356 0.0415,-0.0148 0.0622,0.0175 0.1058,0.009 0.1058,-0.0204 0,-0.0276 -0.0552,-0.0502 -0.12256,-0.0502 -0.0925,0 -0.11557,0.0183 -0.0941,0.0744 0.0159,0.0409 0.0293,0.10964 0.03,0.15278 0,0.0677 0.008,0.0664 0.0525,-0.009 0.0386,-0.0665 0.0353,-0.0987 -0.0134,-0.13235 z m 3.8609,-0.0149 c 0,-0.0937 -0.0233,-0.11751 -0.11649,-0.11751 -0.1072,0 -0.11225,0.009 -0.0629,0.11751 0.0296,0.0647 0.0818,0.11752 0.11645,0.11752 0.036,0 0.063,-0.0506 0.063,-0.11752 z m -18.26542,-0.15277 c 0.0169,-0.12281 0.0944,-0.58042 0.17149,-1.01691 0.12661,-0.71708 0.14065,-0.89453 0.0647,-0.81862 -0.0375,0.0376 -0.38886,1.9826 -0.36544,2.02357 0.0508,0.089 0.10054,0.0167 0.12926,-0.18804 z m 14.73983,0.12927 c 0,-0.0258 -0.0212,-0.047 -0.047,-0.047 -0.0258,0 -0.047,0.0212 -0.047,0.047 0,0.0259 0.0212,0.047 0.047,0.047 0.0257,0 0.047,-0.0212 0.047,-0.047 z m 0.61962,-1.57966 0.11141,-0.66301 -0.12753,-0.004 c -0.0701,-0.002 -0.16651,-0.0245 -0.21421,-0.05 -0.0735,-0.0393 -0.0942,-0.0223 -0.13631,0.11235 -0.0272,0.0873 -0.0317,0.14778 -0.0102,0.1344 0.0215,-0.0134 0.0394,0.007 0.0394,0.045 0,0.0382 -0.0258,0.078 -0.0575,0.0885 -0.0317,0.0105 -0.0812,0.1375 -0.11021,0.28212 l -0.0527,0.26294 0.20613,0.17231 c 0.16439,0.13738 0.19991,0.19296 0.17547,0.27415 -0.0208,0.0688 -0.0152,0.0866 0.0169,0.0548 0.0265,-0.0259 0.098,-0.34536 0.15928,-0.71001 z m -1.25225,-0.0893 c -0.12817,-0.11623 -0.26392,-0.21133 -0.30163,-0.21133 -0.0843,0 -0.0834,7e-4 0.23156,0.23144 0.33546,0.24552 0.35641,0.23952 0.0701,-0.0201 z m 0.68428,-0.14315 0.0723,-0.35488 -0.16771,0.0141 c -0.16764,0.014 -0.16774,0.0143 -0.18214,0.26601 -0.0106,0.1868 0.006,0.27491 0.066,0.34081 0.0442,0.0489 0.0937,0.0889 0.10986,0.0889 0.0162,0 0.0619,-0.15969 0.10167,-0.35488 z m -0.38072,-0.0977 v -0.21751 l -0.23855,0.0229 c -0.13116,0.0126 -0.2721,0.0565 -0.31323,0.0976 -0.0682,0.0682 -0.0668,0.0726 0.0159,0.051 0.0544,-0.0143 0.17515,0.0335 0.30148,0.11905 0.11592,0.0785 0.21604,0.14317 0.2225,0.14364 0.006,3.5e-4 0.0116,-0.097 0.0116,-0.21666 z m -10.96744,-0.0998 c -0.0116,-0.0452 -0.0215,-0.008 -0.0215,0.0823 0,0.0905 0.01,0.12751 0.0215,0.0823 0.0116,-0.0452 0.0116,-0.11929 0,-0.16454 z m 0.32989,-0.0705 c -0.0113,-0.0582 -0.0205,-0.0105 -0.0205,0.10577 0,0.11635 0.009,0.16394 0.0205,0.10577 0.0113,-0.0582 0.0113,-0.15337 0,-0.21154 z m -3.41779,-0.1265 c 0,-0.0502 -0.0212,-0.10431 -0.047,-0.12029 -0.0268,-0.0165 -0.047,0.023 -0.047,0.0912 0,0.0662 0.0212,0.1203 0.047,0.1203 0.0258,0 0.047,-0.0411 0.047,-0.0913 z m 2.92626,0.0601 c -0.0321,-0.013 -0.0852,-0.013 -0.11755,0 -0.0321,0.013 -0.006,0.0237 0.0588,0.0237 0.0647,0 0.0911,-0.0107 0.0588,-0.0237 z m 0.77463,0.003 c -0.0155,-0.0156 -0.0562,-0.0173 -0.0901,-0.004 -0.0375,0.015 -0.0265,0.0261 0.0286,0.0284 0.0495,0.002 0.0773,-0.009 0.0617,-0.0247 z m -3.60652,-0.61796 c 0.0201,-0.084 0.0205,-0.15278 0,-0.15278 -0.0197,0 -0.0484,0.0687 -0.0637,0.15278 -0.0155,0.084 -0.0398,0.20565 -0.0545,0.27029 l -0.0265,0.11753 0.0536,-0.11753 c 0.0296,-0.0646 0.0702,-0.18627 0.0904,-0.27029 z m 2.83189,0.28617 c -0.0321,-0.013 -0.0852,-0.013 -0.11755,0 -0.0321,0.013 -0.006,0.0237 0.0588,0.0237 0.0647,0 0.0911,-0.0107 0.0588,-0.0237 z m 0.16252,-0.21511 c -0.0113,-0.0585 -0.0208,-0.0217 -0.0215,0.0817 0,0.10342 0.009,0.15126 0.0205,0.10632 0.0116,-0.045 0.012,-0.12956 0,-0.18803 z m 0.32904,0 c -0.0113,-0.0585 -0.0208,-0.0217 -0.0212,0.0817 0,0.10342 0.009,0.15126 0.0205,0.10632 0.0116,-0.045 0.012,-0.12956 0,-0.18803 z m 0.28307,0.21784 c -0.0155,-0.0156 -0.0562,-0.0173 -0.0901,-0.004 -0.0375,0.015 -0.0265,0.0261 0.0286,0.0284 0.0495,0.002 0.0773,-0.009 0.0617,-0.0247 z m -2.86597,-0.47396 c -0.0449,-0.0118 -0.12954,-0.0122 -0.18799,-7.1e-4 -0.0585,0.0113 -0.0215,0.0208 0.0817,0.0214 0.1034,3.5e-4 0.15127,-0.009 0.10629,-0.0205 z m 1.22255,-0.0483 c -0.0707,-0.0108 -0.19759,-0.0109 -0.28208,-3.5e-4 -0.0845,0.0104 -0.0265,0.0192 0.12845,0.0195 0.15512,3.4e-4 0.22426,-0.008 0.15363,-0.019 z m 0.86879,-0.0466 c -0.0582,-0.0112 -0.15339,-0.0112 -0.21156,0 -0.0581,0.0112 -0.0106,0.0204 0.10576,0.0204 0.11638,0 0.16397,-0.009 0.1058,-0.0204 z m 1.36387,-0.0469 c -0.0578,-0.0111 -0.16358,-0.0114 -0.23505,-7.1e-4 -0.0714,0.0108 -0.0243,0.0199 0.10513,0.0203 0.12929,3.4e-4 0.18774,-0.009 0.12992,-0.0197 z m 0.91599,-0.0463 c -0.0453,-0.0118 -0.11927,-0.0118 -0.1645,0 -0.0453,0.0118 -0.008,0.0215 0.0822,0.0215 0.0905,0 0.12753,-0.01 0.0823,-0.0215 z m 0.40048,0.001 c -0.0317,-0.0129 -0.0953,-0.0137 -0.14105,-0.002 -0.0457,0.0119 -0.0198,0.0225 0.0579,0.0234 0.0776,7e-4 0.11497,-0.009 0.0831,-0.0217 z m -0.35444,-0.13859 c -0.0155,-0.0156 -0.0562,-0.0173 -0.0901,-0.004 -0.0375,0.015 -0.0265,0.0261 0.0286,0.0284 0.0495,0.002 0.0773,-0.009 0.0617,-0.0247 z m 12.39513,-0.0118 c 0.0138,-0.0221 -0.0296,-0.0298 -0.0962,-0.0171 -0.0738,0.0141 -0.13723,-0.002 -0.16242,-0.042 -0.0328,-0.0519 -0.0414,-0.0484 -0.042,0.0171 0,0.0599 0.0367,0.0823 0.13751,0.0823 0.0761,0 0.14944,-0.0181 0.16313,-0.0402 z m 1.08557,-0.2419 c 0.0904,-0.0344 0.1198,-0.0748 0.10883,-0.15 -0.0212,-0.14401 -0.22077,-0.18483 -0.82624,-0.16881 -0.43597,0.0115 -0.50603,0.0244 -0.51961,0.0955 -0.0106,0.0545 0.0289,0.0993 0.11695,0.13318 0.33154,0.12756 0.9011,0.17342 1.12007,0.0902 z m 0.49339,-1.31615 c 0,-0.0259 -0.0222,-0.047 -0.0498,-0.047 -0.0272,0 -0.0367,0.0212 -0.0208,0.047 0.0159,0.0259 0.0383,0.047 0.0497,0.047 0.0113,0 0.0208,-0.0212 0.0208,-0.047 z m -0.31207,-1.29272 c -0.0279,-0.0732 -0.20503,-0.10026 -0.20503,-0.0314 0,0.0629 0.0563,0.10185 0.14735,0.10185 0.056,0 0.0756,-0.0239 0.0577,-0.0705 z"
       id="G-Bunkerflak"
       style="stroke-width:0.352778" />
  </g>
</svg>
