<?xml version="1.0" encoding="UTF-8" standalone="no"?>
<!-- Created with Inkscape (http://www.inkscape.org/) -->

<svg
   width="22.807432mm"
   height="6.6725149mm"
   viewBox="0 0 22.807432 6.6725149"
   version="1.1"
   id="svg7426"
   sodipodi:docname="inkporter-svg-58n8kf48.svg"
   xmlns:inkscape="http://www.inkscape.org/namespaces/inkscape"
   xmlns:sodipodi="http://sodipodi.sourceforge.net/DTD/sodipodi-0.dtd"
   xmlns="http://www.w3.org/2000/svg"
   xmlns:svg="http://www.w3.org/2000/svg">
  <sodipodi:namedview
     id="namedview7428"
     pagecolor="#ffffff"
     bordercolor="#666666"
     borderopacity="1.0"
     inkscape:pageshadow="2"
     inkscape:pageopacity="0.0"
     inkscape:pagecheckerboard="0"
     inkscape:document-units="mm"
     showgrid="false"
     inkscape:zoom="0.64052329"
     inkscape:cx="984.35141"
     inkscape:cy="289.60696"
     inkscape:window-width="1920"
     inkscape:window-height="1017"
     inkscape:window-x="-8"
     inkscape:window-y="-8"
     inkscape:window-maximized="1"
     inkscape:current-layer="layer1" />
  <defs
     id="defs7423">
    <clipPath
       clipPathUnits="userSpaceOnUse"
       id="clipPath180456-5-6">
      <path
         d="M 0,0 H 595.276 V 841.89 H 0 Z"
         id="path180454-2-9" />
    </clipPath>
  </defs>
  <g
     inkscape:label="Layer 1"
     inkscape:groupmode="layer"
     id="layer1"
     transform="translate(-129.9065,-76.886188)">
    <g
       id="G-FK40"
       transform="matrix(0.35277777,0,0,-0.35277777,63.523416,225.5233)">
      <g
         id="g169306-6-4-5"
         transform="translate(219.8409,414.4324)"
         style="fill:#000000">
        <path
           id="path169308-3-6-2"
           style="fill:#000000;fill-opacity:1;fill-rule:nonzero;stroke:none;stroke-width:0.999998"
           d="m -8.730311,0.88054693 -19.587668,4.90576637 -1.152511,0.6227336 -1.836575,0.4921088 -0.361311,-1.3484286 1.818182,-0.4871803 1.309666,-0.1097974 13.169566,-3.5651674 -0.13459,-0.50230003 -0.181112,0.0485286 -0.875846,0.23468223 -0.15241,-0.56880186 0.464225,-1.04643138 0.314112,-0.084166 0.06483,0.2419528 3.547227,-0.95047666 c 0.06537,0.03418 0.129597,0.069599 0.196772,0.1004438 0.103123,0.047358 0.208119,0.09017 0.315213,0.1293673 0.107094,0.039198 0.216268,0.074306 0.326894,0.10500686 0.110626,0.030704 0.223037,0.057752 0.336768,0.079613 0.11373,0.021859 0.229488,0.038707 0.345884,0.05139 0.116403,0.01268 0.233546,0.02076 0.352182,0.023922 l 0.155029,0.2390157 -3.602408,0.96526245 0.133074,0.49664068 3.919532,-1.06084963 -0.450198,-0.401052 z m -22.180501,5.58079937 0.553237,-0.1482392 c 0.08017,-0.021481 0.127616,-0.1010244 0.107169,-0.1773345 l -0.14369,-0.5362591 c -0.02019,-0.075342 -0.100962,-0.1200496 -0.1811,-0.098577 l -0.553236,0.1482393 c -0.07728,0.020706 -0.123492,0.099438 -0.103303,0.1747821 l 0.14369,0.5362591 c 0.02045,0.076308 0.09996,0.1218333 0.177233,0.1011293 z m 1.150988,-0.396364 0.289693,-0.2262422 c 0.06815,-0.058636 0.125042,-0.099302 0.104336,-0.1765755 l -0.03602,-0.1344185 c -0.02045,-0.076308 -0.08875,-0.07825 -0.178646,-0.1007505 l -0.363623,-0.04967 c -0.08017,0.021483 -0.127477,0.1015459 -0.107548,0.1759196 l 0.110326,0.4117445 c 0.02071,0.077274 0.101268,0.1214846 0.181479,0.099992 z"
           inkscape:transform-center-x="13.978783"
           inkscape:transform-center-y="-3.8339009" />
        <path
           id="path6711"
           style="fill:#000000;fill-opacity:1;fill-rule:nonzero;stroke:none;stroke-width:1.33333"
           d="m -301.39844,-80.511719 -1.53711,2.328125 -0.11718,0.361328 c -0.1517,0.04501 -0.29978,0.09584 -0.44532,0.152344 -0.14553,0.0565 -0.2888,0.118144 -0.42773,0.185547 -0.13893,0.0674 -0.27437,0.141034 -0.40625,0.21875 -0.13188,0.07772 -0.26037,0.160607 -0.38477,0.248047 -0.1244,0.08744 -0.24485,0.178815 -0.36132,0.27539 -0.0759,0.06291 -0.1464,0.13069 -0.21876,0.197266 h 0.20118 c -1.25303,1.014924 -2.04896,2.539715 -2.05274,4.244141 7e-5,0.01267 -1.2e-4,0.02634 0,0.03906 0.0156,3.044444 2.56466,5.50586 5.70703,5.50586 2.828,0 5.1762,-1.990803 5.63086,-4.605469 l 2.54297,-0.09375 0.54102,0.09375 c 0,0 -9.8e-4,-0.475745 -0.0703,-1.205078 l 4.12891,0.708984 v 0.425781 h 0.57031 v -0.328125 l 18.08985,3.095704 c 0,0 0.36807,1.194781 1.30273,1.550781 0.936,0.358666 0.98786,-0.09502 0.61719,-0.429688 -0.36933,-0.333333 -1.32858,-1.430838 -0.39258,-2.076172 0.93333,-0.642666 1.59961,-0.787109 1.59961,-0.787109 l 1.08008,0.238281 v 0.335938 h 1.20508 v -0.503907 h -0.83789 l -0.36719,-0.357421 h 0.5918 v -0.47461 h -1.37891 l -1.34961,0.654297 -0.084,-0.287109 c -0.968,0.268 -0.96749,0.598307 -1.91016,-0.06836 -0.34933,-0.248 -1.19189,-0.986442 -1.58789,-1.037109 -0.504,-0.06667 -1.63657,0.544922 -2.25391,0.544922 -0.46933,0 -1.8766,-1.476115 -1.94726,-1.550781 l -0.4375,0.382812 c 0,0 0.38799,0.422417 0.86132,0.84375 0.34267,0.306667 1.02611,0.896484 1.52344,0.896485 0.576,0 1.91978,-0.584115 2.17578,-0.550782 0.49467,0.064 1.34888,1.319922 2.43555,1.419922 l -0.0352,0.01367 -23.74414,-3.802734 c -0.12666,-0.798667 -0.32524,-1.708698 -0.64257,-2.582032 0.12,0.112 0.28289,0.181641 0.46289,0.181641 0.32533,0 0.59563,-0.224771 0.65429,-0.523437 h 4.6875 v -1.669922 h -3.83984 v -0.667969 h 1.37891 v -0.621094 l 2.68164,-0.333984 -0.0234,-1.742188 -2.7832,0.38086 v -0.1875 h 0.22265 v -0.478516 h -0.71289 v 0.214844 h -0.76367 v -0.357422 l -0.49219,-0.02539 h -0.93555 v -0.666015 h -0.39257 v 0.666015 h -1.0586 l -5.26953,-0.857422 z m 12.74414,-0.607422 c 0.20934,0 0.38282,0.208844 0.38282,0.464844 0,0.257333 -0.17348,0.464844 -0.38282,0.464844 -0.21066,0 -0.3789,-0.207511 -0.3789,-0.464844 0,-0.256 0.16824,-0.464844 0.3789,-0.464844 z m -1.61132,0.285157 c 0.21733,0 0.39257,0.219567 0.39257,0.490234 0,0.270667 -0.17524,0.490234 -0.39257,0.490234 -0.21734,0 -0.39258,-0.219567 -0.39258,-0.490234 0,-0.270667 0.17524,-0.490234 0.39258,-0.490234 z m -4.89258,1.957031 h 1.44726 l -0.79101,0.767578 c -0.19734,-0.28 -0.41359,-0.538245 -0.65625,-0.767578 z"
           transform="matrix(0.75000002,0,0,-0.75000002,216.20325,-60.490409)" />
        <rect
           style="fill:#000000;stroke-width:0.998975;stroke-linejoin:round;paint-order:markers fill stroke;stop-color:#000000"
           id="rect6831"
           width="6.7955956"
           height="1.3524708"
           x="-15.026225"
           y="3.1759861"
           transform="matrix(0.96513441,-0.26175479,-0.31362596,-0.94954661,0,0)"
           inkscape:transform-center-x="-2.344906"
           inkscape:transform-center-y="1.5933162" />
      </g>
      <path
         id="path54405-7"
         style="fill:#000000;stroke-width:0.0344954"
         d="m 231.58001,403.29204 c -0.14393,0.0276 -0.32636,0.19325 -0.33365,0.30277 -0.002,0.0329 -0.006,0.0753 -0.008,0.0944 -0.003,0.019 -0.0561,0.0848 -0.11916,0.14638 l -0.11453,0.11186 0.007,0.44006 c 0.005,0.36328 -0.003,0.46243 -0.0553,0.56834 -0.0552,0.11376 -0.0569,0.14415 -0.0159,0.26842 0.0405,0.12227 0.039,0.15529 -0.0106,0.25918 -0.0313,0.0654 -0.0808,0.27068 -0.11038,0.45599 -0.0295,0.18531 -0.0706,0.42538 -0.0914,0.53348 -0.0208,0.1081 -0.0408,0.26333 -0.044,0.34496 -0.004,0.0815 -0.033,0.20963 -0.0656,0.28445 -0.0421,0.0966 -0.0507,0.16169 -0.0292,0.22422 0.0523,0.15273 0.008,0.32717 -0.11765,0.46891 -0.1159,0.13029 -0.18582,0.30197 -0.18619,0.45724 0,0.0435 -0.0616,0.17363 -0.13667,0.28914 -0.15502,0.23859 -0.17944,0.34178 -0.25671,1.0848 -0.0703,0.67691 -0.11909,0.81004 -0.12205,0.33345 -9.2e-4,-0.22383 -0.0274,-0.46056 -0.0714,-0.64935 -0.0656,-0.28182 -0.0663,-0.30804 -0.0136,-0.51014 0.0308,-0.11716 0.0579,-0.31685 0.0606,-0.44371 0.004,-0.21769 -0.002,-0.23739 -0.11009,-0.34963 -0.11299,-0.11682 -0.11407,-0.12084 -0.0604,-0.22467 0.076,-0.14697 0.0683,-0.34528 -0.0193,-0.48861 -0.0658,-0.10795 -0.0764,-0.19373 -0.0996,-0.81064 -0.0188,-0.49582 -0.0417,-0.73269 -0.0818,-0.84198 -0.0521,-0.14165 -0.0519,-0.15654 0.003,-0.21731 0.0795,-0.0877 0.0771,-0.28963 -0.003,-0.34889 -0.051,-0.0373 -0.0558,-0.0596 -0.0249,-0.11731 0.0209,-0.0391 0.0399,-0.22815 0.0424,-0.41996 0.003,-0.19182 0.0362,-0.36842 0.0362,-0.36842 l 0.006,-0.11531 c 0,0 -0.0226,-0.042 -0.0794,-0.0545 -0.0567,-0.0125 -0.11193,-0.0371 -0.12276,-0.0546 -0.0108,-0.0175 -0.0382,-0.0316 -0.0607,-0.031 l -0.0774,-0.0126 c 0,0 -0.0963,-0.0477 -0.16392,-0.0502 -0.0794,-0.004 -0.0932,0.007 -0.0765,0.0591 0,0 -0.11883,0.0321 -0.14016,-0.0488 -0.012,-0.0474 -0.0338,-0.0862 -0.0485,-0.0862 -0.0149,0 -0.0247,-0.0272 -0.0222,-0.0603 0.003,-0.0421 -0.0213,-0.0611 -0.0814,-0.0628 -0.14623,-0.004 -0.34494,-0.051 -0.34494,-0.0809 0,-0.0544 -0.19078,-0.063 -0.53185,-0.0243 -0.4967,0.1309 -0.13428,0.61601 -0.11891,0.62749 0.0639,0.0582 0.22961,0.181 0.36837,0.27296 0.22315,0.1479 0.26334,0.19156 0.34784,0.37795 0.11903,0.26248 0.15503,0.53003 0.092,0.68328 -0.03,0.0731 -0.0479,0.28149 -0.0515,0.5953 -0.005,0.54712 -0.0674,1.00263 -0.15218,1.12356 -0.0652,0.0931 -0.0729,0.23386 -0.0223,0.41526 0.0295,0.10682 0.0225,0.14603 -0.05,0.27596 -0.0534,0.0957 -0.0852,0.2086 -0.0861,0.30668 -0.005,0.56323 -0.0171,2.11836 -0.0163,2.26808 6.2e-4,0.14503 -0.0105,0.1811 -0.0555,0.1811 -0.0312,0 -0.0923,0.0381 -0.13588,0.0845 l -0.0794,0.0845 -0.0623,-0.0759 c -0.0554,-0.0674 -0.0681,-0.0702 -0.1139,-0.0242 -0.0283,0.0284 -0.0822,0.16817 -0.1199,0.31047 -0.0376,0.14229 -0.093,0.34873 -0.12314,0.45873 -0.0301,0.11002 -0.0548,0.27814 -0.0548,0.37358 v 0.17353 l -0.10125,-0.0223 c -0.13708,-0.0301 -0.20623,0.0795 -0.24496,0.38773 -0.0163,0.1297 -0.0472,0.28167 -0.0686,0.33774 -0.0329,0.086 -0.0867,0.94615 -0.0765,1.22301 0.0211,0.57411 0.0458,0.81189 0.1054,1.01762 0.0384,0.13281 0.10855,0.40445 0.15578,0.60367 0.0472,0.19921 0.10522,0.40877 0.12882,0.46568 0.10601,0.25547 0.17766,0.46258 0.22075,0.63817 0.0939,0.38207 0.30126,0.88129 0.37092,0.89249 0.0243,0.003 0.0908,0.0124 0.14772,0.0189 0.0569,0.006 0.12989,0.0227 0.16219,0.0363 0.0324,0.0135 0.074,0.015 0.0925,0.004 0.0186,-0.0113 0.0428,-0.006 0.0541,0.012 0.0112,0.018 0.1071,0.0581 0.21325,0.0891 0.18832,0.0548 0.19247,0.0586 0.17199,0.16105 -0.014,0.0694 -9.2e-4,0.13903 0.0384,0.20557 0.0518,0.0875 0.0532,0.1106 0.0115,0.17731 -0.0264,0.0421 -0.0592,0.12672 -0.0731,0.1879 0,0 -0.0143,-0.0472 -0.0417,0.3803 -0.002,0.0234 -0.0311,0.0517 -0.0659,0.0627 -0.0702,0.0223 -0.0854,0.1356 -0.0234,0.17395 0.0257,0.0159 0.0304,0.009 0.0132,-0.0185 l 0.0505,0.14466 c 0,0.0693 -0.0283,0.14674 -0.0703,0.19169 -0.0576,0.0618 -0.0634,0.0884 -0.0315,0.14803 0.0371,0.0694 0.0328,0.0716 -0.0936,0.0515 -0.1863,-0.03 -0.33682,0.0181 -0.35055,0.11191 -0.009,0.0604 0.0193,0.0897 0.13799,0.14355 0.082,0.0372 0.19225,0.0679 0.24503,0.0685 0.0602,3.1e-4 0.10354,0.0232 0.11626,0.0611 0.0112,0.0333 0.0507,0.1259 0.0877,0.20599 0.0371,0.0801 0.0646,0.18097 0.061,0.22422 -0.0135,0.16634 0.004,0.23209 0.0904,0.33467 0.0642,0.0763 0.11922,0.10614 0.19585,0.10614 0.13155,0 0.64376,-0.18389 0.85272,-0.30615 0.22333,-0.13066 0.53233,-0.45659 0.6384,-0.67339 0.0895,-0.18298 0.0903,-0.19075 0.0377,-0.35406 -0.0296,-0.0919 -0.0625,-0.22517 -0.0732,-0.29631 -0.0106,-0.0712 -0.0337,-0.12937 -0.0516,-0.12937 -0.0357,0 -0.23974,-0.33989 -0.24026,-0.40008 0,-0.0208 0.0616,-0.0658 0.13745,-0.10003 0.10781,-0.0486 0.14529,-0.0892 0.17229,-0.18632 0.019,-0.0684 0.0346,-0.14546 0.0347,-0.17141 0,-0.0259 0.043,-0.0958 0.0954,-0.15524 0.078,-0.0886 0.12602,-0.11026 0.26633,-0.12039 0.0942,-0.006 0.20872,-0.0267 0.25459,-0.0441 0.0612,-0.0232 0.099,-0.0178 0.14171,0.0209 0.0743,0.0671 0.1883,0.0675 0.25486,9.3e-4 0.0285,-0.0284 0.063,-0.0518 0.0768,-0.0518 0.0139,0 0.0863,-0.0626 0.16131,-0.13896 0.075,-0.0764 0.18283,-0.16307 0.23977,-0.19252 0.14792,-0.0765 0.98203,-0.92182 1.16141,-1.17703 0.0888,-0.12646 0.21112,-0.25014 0.29691,-0.30042 0.23932,-0.14027 0.27003,-0.21465 0.22856,-0.55368 -0.0462,-0.37726 -0.0875,-0.46556 -0.37039,-0.78924 -0.13045,-0.14932 -0.27165,-0.32007 -0.3138,-0.37945 -0.14866,-0.2095 -0.5007,-0.50465 -0.6019,-0.50465 -0.0587,0 -0.19426,-0.0693 -0.3544,-0.18112 -0.31226,-0.21796 -0.3207,-0.25852 -0.14344,-0.68949 0.11138,-0.2708 0.29671,-0.82469 0.29671,-0.88674 0,-0.0159 -0.0788,-0.0889 -0.17489,-0.16205 l -0.1749,-0.13308 0.0264,-0.3277 c 0.0595,-0.738 0.0125,-0.90491 -0.11303,-0.40198 -0.0419,0.16783 -0.085,0.31402 -0.0958,0.32483 -0.0471,0.0471 0.0124,-1.15758 0.0864,-1.7502 0.0306,-0.24436 0.0556,-0.31884 0.15266,-0.45398 0.1573,-0.21895 0.25869,-0.42403 0.25869,-0.52328 0,-0.0452 -0.0288,-0.16612 -0.0641,-0.2687 -0.0586,-0.17076 -0.0601,-0.20835 -0.0165,-0.44522 0.0261,-0.14229 0.0452,-0.32081 0.0427,-0.3967 -0.003,-0.0759 -0.003,-0.19768 -9.1e-4,-0.27062 0.002,-0.073 -0.0141,-0.16557 -0.0356,-0.20582 -0.0215,-0.0402 -0.0362,-0.1513 -0.0325,-0.2468 0.003,-0.0955 -0.0115,-0.37375 -0.0339,-0.61834 -0.0325,-0.35526 -0.0317,-0.49239 0.004,-0.68169 0.0364,-0.19299 0.0365,-0.25234 3.1e-4,-0.31968 -0.037,-0.0692 -0.0357,-0.0951 0.009,-0.15841 0.0385,-0.0551 0.0478,-0.12541 0.0342,-0.258 -0.0375,-0.49345 0.38791,-0.67013 0.4153,-1.08184 0.003,-0.0693 0.0215,-0.13718 0.0405,-0.15111 0.0213,-0.0157 0.018,-0.0255 -0.008,-0.0258 -0.0238,-3e-4 -0.0431,-0.0395 -0.0431,-0.0873 0,-0.1881 -0.34411,-0.27238 -0.77417,-0.1896 z m 0.43214,11.96998 c 0.15692,0.16713 0.24056,0.38012 0.16097,0.40993 -0.0189,0.007 -0.0655,0.0439 -0.10354,0.0818 -0.0652,0.0653 -0.0753,0.066 -0.1845,0.014 -0.0765,-0.0366 -0.12278,-0.0874 -0.13711,-0.15093 -0.0589,-0.26079 -0.0885,-0.35344 -0.11913,-0.37238 -0.0184,-0.0115 -0.0335,-0.0509 -0.0335,-0.0876 0,-0.0543 0.0243,-0.0668 0.12759,-0.0668 0.1085,0 0.15179,0.0258 0.28926,0.17219 z m 1.03196,5.46577 c 0,0.008 -0.0156,0.0248 -0.0345,0.0366 -0.019,0.0118 -0.0346,0.004 -0.0346,-0.0152 0,-0.0201 0.0155,-0.0366 0.0346,-0.0366 0.0189,0 0.0345,0.006 0.0345,0.0152 z" />
      <path
         id="path54409-4-1"
         style="fill:#000000;stroke-width:0.0340261"
         d="m 222.23074,404.23452 c -0.0562,0.0137 -0.14853,0.0491 -0.20532,0.0787 -0.0969,0.0505 -0.10358,0.0668 -0.10908,0.26518 -0.004,0.15308 0.0129,0.2481 0.0621,0.3446 0.0374,0.0733 0.0832,0.22065 0.10187,0.32748 0.0186,0.10682 0.0514,0.22912 0.0729,0.27178 0.0295,0.0587 0.0286,0.16303 -0.004,0.42964 -0.0236,0.19363 -0.0324,0.42285 -0.0195,0.50938 0.0221,0.14751 0.0188,0.15732 -0.0531,0.15732 -0.16588,0 -0.21206,0.20245 -0.11272,0.49403 0.0535,0.15707 0.0533,0.16778 -0.004,0.20171 -0.28263,0.16702 -0.27395,0.15263 -0.26946,0.44617 0.003,0.18034 0.0282,0.33766 0.0766,0.47315 0.10578,0.29645 0.0943,0.40353 -0.0822,0.76623 -0.17468,0.35889 -0.32668,0.85013 -0.41078,1.32754 -0.0965,0.54802 -0.10643,0.59699 -0.11082,0.54787 -0.0207,-0.23139 -0.19499,-1.09016 -0.27199,-1.34023 -0.0531,-0.17242 -0.12322,-0.40534 -0.15586,-0.51763 -0.0634,-0.21797 -0.31373,-0.86203 -0.35714,-0.91871 -0.0713,-0.093 -0.0645,-0.20752 0.0211,-0.35344 0.0882,-0.15046 0.0883,-0.15167 0.0262,-0.26693 -0.0343,-0.0637 -0.14258,-0.19927 -0.24064,-0.30134 -0.15867,-0.16513 -0.1763,-0.19794 -0.16006,-0.29798 0.0154,-0.0951 0.002,-0.12593 -0.0861,-0.20018 -0.0574,-0.0483 -0.12013,-0.0931 -0.13948,-0.0995 -0.0193,-0.006 -0.0506,-0.11894 -0.0695,-0.24994 -0.0189,-0.131 -0.0439,-0.28945 -0.0555,-0.35212 -0.0153,-0.0825 0,-0.15677 0.0564,-0.26921 0.0651,-0.13029 0.0781,-0.21304 0.0809,-0.51439 l 0.003,-0.35912 -0.14565,-0.054 c -0.0801,-0.0297 -0.13777,-0.0618 -0.12814,-0.0715 0.01,-0.01 -0.0922,-0.004 -0.22623,0.0116 -0.2603,0.0311 -0.3699,0.0152 -0.30973,-0.045 0,0 -0.0233,-0.0763 -0.0239,-0.1102 0,-0.0816 -0.55743,-0.17069 -0.94238,-0.15055 -0.29337,0.0153 -0.33288,0.0253 -0.38886,0.0981 -0.0814,0.10588 -0.0798,0.22461 0.005,0.36374 0.07,0.11481 0.29448,0.24256 0.42866,0.24396 0.0829,6.9e-4 0.25268,0.17616 0.52788,0.54516 0.17445,0.2339 0.22446,0.35292 0.25023,0.59545 0.004,0.0374 0.0189,0.14686 0.0332,0.24316 0.0237,0.15999 0.0198,0.17707 -0.0459,0.19791 -0.11257,0.0357 -0.12705,0.17641 -0.043,0.41737 l 0.0744,0.21326 -0.0715,0.14011 c -0.0801,0.15692 -0.0697,0.25604 0.0435,0.41499 0.0707,0.0992 0.0707,0.10115 0.009,0.35934 -0.10979,0.45763 -0.0616,0.92301 0.17324,1.67167 0.10173,0.32436 0.12767,0.46988 0.1516,0.85065 0.0159,0.25264 0.0521,0.57419 0.0804,0.71455 0.07,0.34718 0.28498,1.1883 0.33034,1.29273 0.0202,0.0467 0.0516,0.22907 0.0696,0.4054 0.018,0.17633 0.0496,0.35197 0.0701,0.3903 0.0602,0.11256 0.16575,0.60098 0.17365,0.80378 0.005,0.1252 0.0354,0.23784 0.0921,0.34027 0.1081,0.19509 0.0953,0.2726 -0.0667,0.40276 l -0.13067,0.10501 -0.0711,-0.16533 c -0.10608,-0.24658 -0.23784,-0.34244 -0.4707,-0.34244 -0.30356,0 -0.4373,0.0568 -0.59455,0.25262 -0.2104,0.26197 -0.24384,0.36528 -0.21983,0.67921 0.0197,0.25738 0.0164,0.27444 -0.0809,0.41852 -0.0557,0.0826 -0.10136,0.1703 -0.10136,0.19486 0,0.0245 -0.046,0.10245 -0.10209,0.1731 -0.10901,0.13719 -0.12655,0.21711 -0.0618,0.28182 0.031,0.031 -0.10825,0.18682 -0.60396,0.67626 -0.35432,0.34981 -0.75739,0.7417 -0.89573,0.87086 -0.15717,0.14676 -0.33907,0.3679 -0.48487,0.5895 -0.23314,0.35433 -0.27695,0.47619 -0.18399,0.51187 0.0669,0.0257 0.83112,-0.38066 0.9374,-0.49845 0.0945,-0.10474 0.3979,-0.37743 0.68031,-0.61146 0.10162,-0.0842 0.3814,-0.33686 0.62174,-0.56143 0.24034,-0.22458 0.48591,-0.42499 0.54571,-0.44536 0.0621,-0.0211 0.11384,-0.0649 0.12064,-0.10207 0.0131,-0.0717 0.13586,-0.21816 0.18281,-0.21816 0.0412,0 0.1942,0.17816 0.19551,0.22773 4.2e-4,0.0223 0.0305,0.0912 0.0664,0.15312 0.0359,0.0619 0.0956,0.20591 0.13258,0.32005 0.0894,0.276 0.16147,0.41154 0.30566,0.57507 0.15697,0.17805 0.25032,0.21778 0.51593,0.21964 0.21172,0.001 0.2253,0.007 0.36579,0.14473 0.0802,0.0788 0.14589,0.16473 0.14589,0.19107 0,0.0263 0.062,0.10451 0.13767,0.17373 0.12653,0.11566 0.13474,0.13354 0.10147,0.22104 -0.0268,0.0703 -0.0533,0.0907 -0.10166,0.0781 -0.0866,-0.0227 -0.38107,0.0393 -0.4364,0.0919 -0.0355,0.0337 -0.0317,0.0571 0.0196,0.12417 0.14501,0.18923 0.18326,0.36357 0.15799,0.7201 -0.0216,0.30525 -0.0165,0.35403 0.0573,0.5418 0.0618,0.15722 0.11345,0.22856 0.21716,0.29968 0.19622,0.13456 0.45397,0.20919 0.73846,0.2138 0.2761,0.004 0.49894,-0.0725 0.62644,-0.21647 0.0679,-0.0766 0.25134,-0.51335 0.25134,-0.59833 0,-0.0216 0.0489,-0.0777 0.10878,-0.12449 0.10548,-0.0825 0.10885,-0.0933 0.11059,-0.35123 l 10e-4,-0.26609 -0.16162,-0.0802 c -0.0889,-0.0441 -0.16163,-0.10151 -0.16163,-0.1276 0,-0.0261 -0.0227,-0.0474 -0.0504,-0.0474 -0.0277,0 -0.0594,-0.0421 -0.0704,-0.0936 -0.011,-0.0514 -0.0342,-0.12874 -0.0516,-0.17173 -0.0174,-0.043 -0.0317,-0.12949 -0.0317,-0.19223 0,-0.17295 0.29006,-0.42644 0.58223,-0.50885 0.52049,-0.1468 0.54713,-0.16091 0.68115,-0.36068 0.0691,-0.1029 0.14467,-0.25599 0.16808,-0.34021 0.0234,-0.0842 0.10753,-0.28327 0.18692,-0.44234 0.19137,-0.38345 0.29649,-0.66054 0.40664,-1.07182 0.0501,-0.18714 0.12368,-0.42448 0.1635,-0.52741 0.10509,-0.27174 0.11769,-0.63137 0.0282,-0.80667 -0.12308,-0.24127 -0.23009,-0.33308 -0.64875,-0.55663 -0.45962,-0.24542 -0.45917,-0.24484 -0.49906,-0.64966 -0.0188,-0.19028 -0.0419,-0.26356 -0.1021,-0.3238 -0.0739,-0.0739 -0.076,-0.0895 -0.0422,-0.30693 0.0333,-0.21428 0.0236,-0.71179 -0.0263,-1.34053 -0.0143,-0.17954 6.9e-4,-0.40276 0.0493,-0.73156 0.11313,-0.76707 0.12516,-1.28282 0.0411,-1.7637 l -0.0709,-0.40583 0.0886,-0.12792 c 0.17439,-0.25164 0.16908,-0.56312 -0.0151,-0.8888 -0.0489,-0.0864 -0.0473,-0.10415 0.0225,-0.2476 0.0902,-0.18559 0.0908,-0.20253 0.0211,-0.52701 -0.0301,-0.14036 -0.0605,-0.28582 -0.0674,-0.32325 -0.007,-0.0374 -0.0587,-0.0986 -0.11506,-0.13592 -0.0777,-0.0515 -0.10179,-0.0926 -0.0998,-0.17014 0.001,-0.0562 -0.004,-0.27834 -0.013,-0.49355 -0.0123,-0.30794 -0.005,-0.41305 0.0365,-0.49338 0.0588,-0.11512 0.0861,-0.36362 0.0783,-0.7133 -0.007,-0.30486 -0.0625,-0.36954 -0.38032,-0.44184 -0.24999,-0.0569 -0.30002,-0.0591 -0.45685,-0.0209 z m 1.07182,11.40333 c 0,0.0129 -0.0516,0.10922 -0.11483,0.2141 l -0.11483,0.1907 -0.0223,-0.13911 c -0.0122,-0.0765 -0.0452,-0.18344 -0.0732,-0.23762 -0.0503,-0.0972 -0.0497,-0.0985 0.0435,-0.099 0.0519,-4.2e-4 0.11742,-0.0153 0.14549,-0.0334 0.0364,-0.0234 0.0632,-0.0166 0.0936,0.0241 0.0234,0.0313 0.0425,0.0674 0.0425,0.0803 z" />
      <path
         style="fill:#000000;stroke-width:0.0250505"
         d="m 251.01136,402.6325 c 0.248,0.11749 0.47064,0.23708 0.49475,0.26577 0.0385,0.0458 0.0438,0.11204 0.0438,0.54155 v 0.48938 l 0.0845,0.12785 c 0.13387,0.20281 0.19243,0.33391 0.23031,0.51557 0.0621,0.29744 -0.007,0.42539 -0.38611,0.72082 -0.0582,0.0454 -0.0585,0.0472 -0.0196,0.17823 0.0431,0.14552 0.0521,0.10165 -0.10657,0.5239 -0.0664,0.17674 -0.0724,0.20961 -0.0397,0.22213 0.021,0.008 0.0803,-0.0143 0.13153,-0.0498 0.0512,-0.0354 0.13706,-0.0826 0.19057,-0.10487 0.13799,-0.0573 0.42065,-0.0769 0.54072,-0.0372 0.0882,0.0291 0.10637,0.027 0.18841,-0.0213 0.11827,-0.0697 0.17756,-0.0676 0.27993,0.0107 0.1803,0.13753 0.21646,0.3142 0.14581,0.71249 -0.0557,0.31464 -0.0784,0.39645 -0.28773,1.04429 -0.0754,0.23328 -0.0681,0.27683 0.075,0.446 0.0688,0.0814 0.14359,0.19644 0.16623,0.25571 0.0386,0.1008 0.0384,0.11543 -0.004,0.22673 -0.0694,0.18795 -0.10198,0.22401 -0.24367,0.27068 -0.11076,0.0365 -0.18358,0.0933 -0.44422,0.34678 -0.17145,0.16672 -0.34252,0.33444 -0.38015,0.3727 -0.0744,0.0754 -0.10572,0.18727 -0.19838,0.70608 -0.0491,0.27479 -0.1276,0.53564 -0.19703,0.65484 -0.0152,0.0261 -0.0836,0.17562 -0.15183,0.33222 -0.0683,0.15656 -0.14236,0.3125 -0.16464,0.34652 -0.0594,0.0906 -0.18539,0.13283 -0.39664,0.13283 h -0.18627 l -0.0884,0.17396 -0.0884,0.17399 0.0852,0.0282 c 0.10705,0.0353 0.21204,0.15772 0.21204,0.24722 0,0.0456 -0.0298,0.0969 -0.0898,0.15463 -0.15681,0.15073 -0.16976,0.19605 -0.17159,0.59988 -8.8e-4,0.35193 -0.005,0.36791 -0.0768,0.51353 -0.19211,0.38419 -0.77242,0.5911 -1.34112,0.47813 -0.23156,-0.046 -0.51638,-0.16796 -0.64377,-0.27568 -0.0853,-0.0721 -0.21431,-0.31714 -0.24509,-0.46548 -0.0262,-0.12618 -0.0958,-0.25179 -0.18736,-0.33818 -0.0854,-0.0805 -0.15036,-0.18743 -0.15036,-0.24735 0,-0.0736 0.12593,-0.18519 0.2696,-0.23891 0.19376,-0.0725 0.29162,-0.19102 0.29002,-0.35137 -8.9e-4,-0.11673 -0.053,-0.22532 -0.26548,-0.55502 -0.0497,-0.077 -0.22079,-0.39135 -0.38034,-0.69836 -0.15953,-0.30704 -0.30968,-0.58313 -0.33365,-0.61353 -0.20401,-0.25875 -0.36932,-0.49004 -0.39693,-0.55536 -0.0182,-0.043 -0.0562,-0.21789 -0.0842,-0.38829 -0.11069,-0.67091 -0.21368,-1.06817 -0.30096,-1.16108 -0.0298,-0.0318 -0.1385,-0.0885 -0.24152,-0.12602 -0.24491,-0.0893 -0.42438,-0.24943 -0.52496,-0.46835 -0.0648,-0.14097 -0.0723,-0.18402 -0.0717,-0.4081 5.1e-4,-0.17154 0.015,-0.29393 0.0457,-0.38828 0.0377,-0.11535 0.0472,-0.25807 0.0582,-0.87677 0.0123,-0.69511 0.0167,-0.74928 0.0729,-0.91244 0.073,-0.21183 0.0762,-0.33747 0.0108,-0.42067 -0.0269,-0.0342 -0.13685,-0.10475 -0.24424,-0.1566 -0.10739,-0.0519 -0.23191,-0.12176 -0.27669,-0.15531 -0.10778,-0.0808 -0.21309,-0.12304 -0.42773,-0.17186 -0.14524,-0.033 -0.19156,-0.0563 -0.25384,-0.12718 -0.0689,-0.0784 -0.0762,-0.10326 -0.0762,-0.25569 0,-0.20527 0.0328,-0.25981 0.19409,-0.322 0.3095,-0.11943 1.12793,0.022 1.48671,0.25663 0.063,0.0412 0.0703,0.04 0.23203,-0.0397 0.1528,-0.0752 0.18071,-0.0809 0.32846,-0.0671 0.19873,0.0185 0.34873,0.0918 0.40729,0.19903 0.0681,0.12464 0.0598,0.6048 -0.0138,0.80504 l -0.0544,0.1477 0.0535,0.37642 c 0.0479,0.33677 0.0512,0.42507 0.0312,0.83809 -0.0124,0.25393 -0.0167,0.47011 -0.01,0.48041 0.0409,0.061 0.12923,0.0762 0.29487,0.0506 0.13189,-0.0204 0.26526,-0.0176 0.57747,0.0121 0.22329,0.0213 0.45816,0.0388 0.52193,0.0388 h 0.11596 l -0.0162,-0.17334 c -0.008,-0.0953 -0.008,-0.19183 -2.7e-4,-0.21443 0.008,-0.0226 0.0599,-0.0588 0.11399,-0.0803 0.0917,-0.0367 0.0972,-0.0445 0.0817,-0.11749 -0.008,-0.043 -0.0481,-0.15146 -0.0866,-0.24101 -0.1008,-0.23401 -0.14381,-0.39517 -0.18977,-0.71092 -0.0264,-0.18081 -0.0715,-0.3577 -0.12881,-0.50403 -0.0839,-0.21436 -0.0884,-0.24152 -0.0914,-0.55113 -0.002,-0.27249 0.007,-0.35451 0.0525,-0.50251 0.0984,-0.313 0.28499,-0.50054 0.62073,-0.62412 0.0964,-0.0355 0.22303,-0.0967 0.28129,-0.13616 0.0583,-0.0393 0.19918,-0.0961 0.31314,-0.1261 0.11397,-0.0299 0.34248,-0.0989 0.50784,-0.1532 0.16535,-0.0543 0.34009,-0.0987 0.38828,-0.0987 0.0581,2e-5 0.24015,0.0722 0.53855,0.21364 z m -3.10621,6.07356 c -0.0251,0.18216 0.006,0.31349 0.10358,0.44168 0.0495,0.065 0.0952,0.16088 0.10731,0.22537 0.0424,0.22699 0.0725,0.1872 0.11896,-0.15779 0.0201,-0.14896 0.0527,-0.32818 0.0726,-0.39827 0.0504,-0.17875 0.0483,-0.18563 -0.0581,-0.18606 -0.0517,-2e-4 -0.13899,-0.016 -0.19407,-0.0352 -0.0551,-0.0191 -0.10756,-0.0303 -0.11663,-0.0247 -0.008,0.006 -0.0241,0.0663 -0.0336,0.13494 z"
         id="path42018-2-3-1" />
      <path
         style="fill:#000000;stroke-width:0.0273298"
         d="m 240.66678,402.92836 c 0.20801,0.0322 0.28244,0.0823 0.30562,0.20581 0.0102,0.0541 0.0604,0.15329 0.11161,0.22042 0.0513,0.0671 0.11608,0.17975 0.14409,0.25027 0.028,0.0706 0.0828,0.1836 0.12164,0.25125 0.0816,0.14199 0.0888,0.22127 0.0283,0.31358 -0.0237,0.0362 -0.0594,0.1439 -0.0794,0.2395 -0.0445,0.21289 -0.0824,0.71477 -0.0569,0.75587 0.013,0.0209 0.045,0.0166 0.1058,-0.0142 0.12936,-0.0654 0.1778,-0.11605 0.1976,-0.20617 0.0209,-0.095 0.11394,-0.14686 0.21723,-0.12094 0.10926,0.0275 0.30512,0.22351 0.38372,0.38414 0.0928,0.18979 0.11533,0.46215 0.0564,0.68318 -0.0239,0.0896 -0.0434,0.22099 -0.0434,0.29201 0,0.071 -0.0122,0.16136 -0.0272,0.20074 -0.0149,0.0393 -0.0451,0.22158 -0.067,0.4049 -0.0218,0.1833 -0.0477,0.37185 -0.0576,0.41898 -0.0174,0.0836 -0.0142,0.0869 0.12737,0.13393 0.30843,0.10245 0.51048,0.42177 0.48161,0.76116 -0.027,0.31733 -0.18529,0.56246 -0.43658,0.67605 -0.13133,0.0594 -0.17598,0.0645 -0.51932,0.0596 -0.36684,-0.006 -0.37595,-0.005 -0.38769,0.0547 -0.0574,0.28606 -0.0981,0.60256 -0.11148,0.86619 -0.0249,0.49186 -0.0646,0.86447 -0.12411,1.16346 l -0.0547,0.27525 0.0684,0.14951 c 0.0514,0.11241 0.0862,0.2815 0.13984,0.6813 0.0392,0.29248 0.0777,0.5708 0.0853,0.61852 0.0106,0.0656 -2e-5,0.0987 -0.0434,0.13587 -0.0316,0.0271 -0.0574,0.0682 -0.0574,0.0913 0,0.0232 0.043,0.21296 0.0956,0.42167 l 0.0956,0.37948 -0.0556,0.18677 c -0.0314,0.10551 -0.0764,0.19784 -0.10328,0.21227 -0.0486,0.026 -0.33614,-0.0532 -0.40804,-0.11255 -0.0619,-0.051 -0.0414,-0.20175 0.0341,-0.25126 0.0376,-0.0246 0.0682,-0.0661 0.068,-0.092 -3.3e-4,-0.0493 -0.12977,-0.59425 -0.2027,-0.85342 -0.0233,-0.0827 -0.0424,-0.20107 -0.0426,-0.26312 -4.9e-4,-0.16947 -0.081,-0.49243 -0.13486,-0.5412 -0.0385,-0.0349 -0.0871,-0.0396 -0.25652,-0.0254 -0.18044,0.0152 -0.21148,0.0254 -0.22693,0.0752 -0.01,0.0317 -0.0523,0.10131 -0.0944,0.15482 -0.14221,0.18081 -0.13373,0.2975 0.0217,0.29857 0.0337,1.8e-4 0.08,0.0296 0.10371,0.0658 0.0379,0.0579 0.0385,0.0843 0.005,0.23028 -0.0222,0.0961 -0.069,0.20164 -0.11224,0.25303 -0.0647,0.0769 -0.0716,0.10242 -0.0543,0.20015 0.0109,0.0616 0.0161,0.14276 0.0114,0.18035 -0.005,0.0375 -0.007,0.10214 -0.005,0.14348 0.0174,0.39295 0.0182,0.38627 -0.0639,0.53621 -0.15522,0.28328 -0.56862,0.56248 -0.99738,0.67359 -0.219,0.0568 -0.62713,0.0459 -0.75156,-0.0198 -0.2711,-0.14343 -0.5945,-0.49266 -0.67169,-0.72534 -0.0249,-0.075 -0.0462,-0.0915 -0.13769,-0.10613 -0.0755,-0.0121 -0.13061,-0.044 -0.18235,-0.10542 -0.0731,-0.0869 -0.0764,-0.0878 -0.23811,-0.067 -0.43992,0.0567 -0.669,0.007 -0.86468,-0.18909 -0.16699,-0.16698 -0.21484,-0.32641 -0.21484,-0.71565 0,-0.24168 -0.009,-0.30322 -0.0503,-0.35717 -0.0702,-0.0909 -0.1137,-0.23072 -0.1137,-0.3651 0,-0.0847 -0.0167,-0.12983 -0.0647,-0.17486 -0.0355,-0.0334 -0.11092,-0.15938 -0.16752,-0.27998 -0.13848,-0.29511 -0.15678,-0.55988 -0.0687,-0.99433 0.0685,-0.33763 0.12404,-0.46694 0.24431,-0.56814 0.16665,-0.14024 0.34688,-0.15454 0.96322,-0.0765 0.3465,0.0439 0.7965,0.0433 0.81763,-8.2e-4 0.14174,-0.2973 0.1815,-0.474 0.13591,-0.60408 -0.0412,-0.11769 -0.15543,-0.70006 -0.17919,-0.91387 -0.0144,-0.12909 -0.009,-0.19037 0.0258,-0.26229 0.0344,-0.0726 0.0424,-0.1563 0.0351,-0.3689 -0.0103,-0.29981 -0.003,-0.28185 -0.23201,-0.53482 -0.27167,-0.29944 -0.31742,-0.47845 -0.162,-0.63387 0.11433,-0.11432 0.26966,-0.1498 0.37961,-0.0867 l 0.0765,0.0439 -0.0166,-0.11496 c -0.009,-0.0632 -0.053,-0.16725 -0.0975,-0.23116 -0.11694,-0.16803 -0.23994,-0.45282 -0.25996,-0.60199 -0.0119,-0.0888 -0.0571,-0.18863 -0.14488,-0.32034 -0.0933,-0.13999 -0.18503,-0.34892 -0.34188,-0.7789 -0.19566,-0.53644 -0.21537,-0.60918 -0.22649,-0.83581 -0.01,-0.19426 -0.003,-0.26704 0.0325,-0.33465 0.0542,-0.10481 0.23607,-0.20114 0.47152,-0.24972 0.22341,-0.0461 0.83297,-0.0246 1.09859,0.0389 0.18361,0.0438 0.21626,0.0627 0.37341,0.21593 0.0947,0.0924 0.21325,0.20022 0.26341,0.2397 0.10874,0.0855 0.48534,0.2811 0.50451,0.26193 0.007,-0.007 0.0163,-0.0943 0.0198,-0.19307 0.005,-0.14502 0.0186,-0.19265 0.07,-0.2473 0.035,-0.0372 0.0745,-0.12628 0.0879,-0.19787 0.0298,-0.1597 0.12403,-0.26431 0.2943,-0.32682 0.14781,-0.0543 0.84404,-0.0773 1.10699,-0.0367 z m -3.99559,8.69485 c -0.0483,0.0483 -0.0401,0.16393 0.0213,0.29902 0.0297,0.0655 0.0544,0.17056 0.0547,0.23343 4.9e-4,0.0947 0.0143,0.12401 0.08,0.17081 0.11258,0.0801 0.13926,0.071 0.13926,-0.0479 0,-0.1344 0.0739,-0.35671 0.14443,-0.43458 0.0535,-0.0591 0.0536,-0.0612 0.003,-0.076 -0.0286,-0.008 -0.11956,-0.0509 -0.20223,-0.0944 -0.17217,-0.0906 -0.19539,-0.0954 -0.24051,-0.0503 z"
         id="path42440-0-3-0" />
      <path
         style="fill:#000000;stroke-width:0.0453355"
         d="m 201.17058,404.03323 c 0.58088,-0.0634 1.27417,0.002 1.51959,0.14322 0.11555,0.0666 0.19936,0.44881 0.15491,0.70666 -0.017,0.0993 -0.0283,0.30381 -0.025,0.45453 0.003,0.15069 -0.01,0.29793 -0.0293,0.32715 -0.0568,0.0853 -0.0309,0.11929 0.1248,0.16412 0.36979,0.10635 0.67848,0.37962 0.89956,0.79627 0.0854,0.16083 0.10604,0.17204 0.32988,0.1788 0.22679,0.007 0.24166,0.002 0.29438,-0.10983 0.21424,-0.45192 0.25059,-0.48288 0.39572,-0.33717 l 0.0849,0.0852 0.14001,-0.22922 c 0.11801,-0.19319 0.15923,-0.22827 0.26232,-0.22325 0.0822,0.004 0.13998,0.0439 0.17614,0.12163 0.0296,0.0636 0.0875,0.14857 0.12866,0.18878 0.0539,0.0526 0.0669,0.0995 0.0463,0.16761 -0.0235,0.0773 -0.0599,0.0955 -0.20114,0.0996 -0.12151,0.004 -0.18419,0.0268 -0.21209,0.0784 -0.0683,0.12635 -0.17886,0.53222 -0.16453,0.60392 0.0217,0.10888 -0.268,1.18023 -0.39168,1.44821 -0.0618,0.13387 -0.16543,0.28586 -0.23031,0.33773 -0.10855,0.0869 -0.13082,0.0899 -0.27938,0.038 l -0.16143,-0.0564 -0.0457,0.13623 c -0.0251,0.0749 -0.14733,0.22643 -0.27154,0.33669 -0.12421,0.11025 -0.23535,0.23355 -0.24701,0.27394 -0.0116,0.0405 -0.0521,0.18902 -0.0899,0.33029 -0.19047,0.71224 -0.78753,1.74743 -1.28906,2.23497 -0.43342,0.42133 -0.62114,0.52458 -1.16735,0.64203 -0.36252,0.078 -0.48633,0.122 -0.55991,0.19933 -0.0519,0.0545 -0.15007,0.11026 -0.21798,0.12384 -0.14704,0.0294 -0.14469,0.0665 0.0164,0.26202 0.16048,0.19476 0.18177,0.32556 0.0782,0.48082 -0.13314,0.19965 -0.69978,0.61815 -1.11374,0.82259 -0.20744,0.10239 -0.47969,0.24986 -0.60503,0.32762 -0.29428,0.18257 -0.40917,0.20255 -0.58729,0.10222 -0.20483,-0.11541 -0.24006,-0.35634 -0.11479,-0.78522 0.11307,-0.38722 0.0919,-0.44184 -0.26519,-0.68367 -0.39046,-0.26445 -0.32528,-0.44101 0.14222,-0.38517 0.26872,0.0321 0.30171,0.0147 0.20194,-0.10657 -0.10502,-0.12766 -0.10438,-0.32036 0.002,-0.39431 0.0502,-0.0351 0.0867,-0.0867 0.0811,-0.11456 -0.006,-0.0279 0.0156,-0.0825 0.047,-0.1213 0.0315,-0.0388 0.0382,-0.0831 0.0151,-0.0982 -0.0406,-0.0265 -1.05966,-0.14125 -1.74011,-0.19578 -0.1809,-0.0145 -0.43693,-0.0464 -0.56897,-0.071 -0.14165,-0.0263 -0.44419,-0.0227 -0.73794,0.009 -0.78746,0.0844 -1.28008,-0.009 -1.36056,-0.25725 -0.0583,-0.18012 0.05,-0.21239 0.54835,-0.16338 0.0964,0.009 0.10318,-0.004 0.074,-0.15034 -0.027,-0.13503 -0.0163,-0.1651 0.0665,-0.18776 0.11763,-0.0317 0.0848,-0.0287 0.82449,-0.0899 0.53664,-0.0444 0.59231,-0.056 0.61538,-0.12777 0.0911,-0.28152 0.20397,-0.32992 0.78041,-0.33462 0.19898,-0.002 0.37677,-0.006 0.39511,-0.01 0.0536,-0.0107 0.016,-0.12082 -0.0831,-0.24393 -0.0506,-0.0627 -0.10078,-0.15771 -0.11152,-0.21106 -0.0243,-0.12009 0.23982,-0.45355 0.46518,-0.58724 0.13949,-0.0828 0.15595,-0.11116 0.12349,-0.21326 -0.0802,-0.25246 -0.0152,-0.40768 0.29801,-0.71087 0.27188,-0.26323 0.65544,-0.70751 0.98668,-1.14292 0.12161,-0.15982 0.12322,-0.17031 0.0317,-0.20494 -0.053,-0.0202 -0.26812,-0.10745 -0.478,-0.19416 -1.01088,-0.41763 -1.06084,-0.45304 -1.17226,-0.8308 -0.19448,-0.65948 0.0923,-1.15538 0.78737,-1.36153 0.30889,-0.0915 1.15996,-0.12559 1.65394,-0.066 0.40508,0.0488 0.77425,0.16797 0.84837,0.2738 0.0578,0.0824 0.15832,0.1 0.4574,0.0797 0.0628,-0.004 0.19742,0.0199 0.29932,0.0538 0.23777,0.0789 0.37525,0.003 0.40277,-0.22214 0.0174,-0.14248 -7.5e-4,-0.18364 -0.17131,-0.3888 -0.15418,-0.18544 -0.23065,-0.23785 -0.39864,-0.27325 -0.21117,-0.0445 -0.2831,-0.10196 -0.3734,-0.29828 -0.11121,-0.24198 0.10311,-0.38604 0.66599,-0.44758 z m -1.27801,4.6828 c 0.0982,0.24597 0.12933,0.28939 0.1708,0.23827 0.0539,-0.0664 0.17009,-0.43945 0.14194,-0.45547 -0.0526,-0.0299 -0.41045,-0.11618 -0.42067,-0.10133 -0.006,0.01 0.0418,0.15311 0.10785,0.31855 z m -1.5367,1.86685 c -0.3071,0.26396 -0.24903,0.44151 0.14619,0.44707 0.35693,0.005 0.35714,0.005 0.3373,-0.25996 -0.01,-0.13153 -0.0239,-0.33142 -0.0312,-0.44424 l -0.0133,-0.20512 -0.12691,0.15157 c -0.0698,0.0834 -0.21021,0.22317 -0.31202,0.31067 z"
         id="path46169-0-3-9" />
    </g>
  </g>
</svg>
