<?xml version="1.0" encoding="UTF-8" standalone="no"?>
<!-- Created with Inkscape (http://www.inkscape.org/) -->

<svg
   width="14.872503mm"
   height="6.0334754mm"
   viewBox="0 0 14.872503 6.0334754"
   version="1.1"
   id="svg1"
   sodipodi:docname="inkporter-svg-rrlp2a18.svg"
   xmlns:inkscape="http://www.inkscape.org/namespaces/inkscape"
   xmlns:sodipodi="http://sodipodi.sourceforge.net/DTD/sodipodi-0.dtd"
   xmlns="http://www.w3.org/2000/svg"
   xmlns:svg="http://www.w3.org/2000/svg">
  <sodipodi:namedview
     id="namedview1"
     pagecolor="#ffffff"
     bordercolor="#666666"
     borderopacity="1.0"
     inkscape:showpageshadow="2"
     inkscape:pageopacity="0.0"
     inkscape:pagecheckerboard="0"
     inkscape:deskcolor="#d1d1d1"
     inkscape:document-units="mm"
     inkscape:zoom="2.3143561"
     inkscape:cx="440.0792"
     inkscape:cy="589.58083"
     inkscape:window-width="3840"
     inkscape:window-height="2066"
     inkscape:window-x="2869"
     inkscape:window-y="-11"
     inkscape:window-maximized="1"
     inkscape:current-layer="layer1" />
  <defs
     id="defs1" />
  <g
     inkscape:label="Layer 1"
     inkscape:groupmode="layer"
     id="layer1"
     transform="translate(-75.271098,-175.11818)">
    <g
       id="G-Infantry-MGs5"
       transform="translate(108.0605,138.76855)">
      <g
         id="g4552-3-9-0"
         transform="matrix(0.11531985,0,0,0.11531985,-73.756113,43.644038)">
        <path
           style="fill:#000000;stroke-width:0.264583"
           d="m 448.5629,-12.917757 c -0.35707,-0.357071 -0.15956,-1.250937 0.45423,-2.055657 0.54912,-0.719936 0.66621,-1.287351 0.906,-4.390599 0.15146,-1.960097 0.25464,-4.561528 0.22928,-5.78096 -0.0385,-1.853322 0.0297,-2.265466 0.416,-2.511611 0.34054,-0.217003 0.58924,-0.215069 0.94539,0.0074 0.39205,0.24484 0.54207,0.20769 0.79466,-0.196779 0.17126,-0.274227 0.31138,-0.774054 0.31138,-1.110726 0,-0.336672 0.10461,-0.725241 0.23246,-0.863486 0.12785,-0.138245 0.36373,-1.084792 0.52416,-2.103438 0.16044,-1.018645 0.41191,-2.430912 0.55882,-3.138371 0.22014,-1.060101 0.19004,-1.416746 -0.17115,-2.028195 -0.40368,-0.683384 -0.40481,-0.810961 -0.0143,-1.617255 0.30728,-0.634479 0.34583,-0.969463 0.14006,-1.21739 -0.17916,-0.215877 -0.22029,-0.9626 -0.11151,-2.024357 0.16688,-1.628828 0.1491,-1.697442 -0.55923,-2.158246 -1.44686,-0.941253 -3.5031,-2.906528 -3.50638,-3.351251 -0.006,-0.768504 1.54358,-2.265472 2.85327,-2.75702 0.68444,-0.256882 1.79339,-0.800392 2.46433,-1.207799 0.67093,-0.40741 1.29601,-0.740744 1.38906,-0.740744 0.093,0 0.40564,-0.236472 0.69467,-0.525494 0.45437,-0.454372 0.74543,-0.502505 2.15057,-0.35564 1.50472,0.157275 1.66132,0.122713 2.11445,-0.466693 0.52516,-0.683085 0.67125,-2.219979 0.23657,-2.488631 -0.14553,-0.08994 -0.26459,-0.550938 -0.26459,-1.024447 0,-1.487912 2.28127,-3.041068 4.828,-3.287052 l 1.25612,-0.121326 -0.062,1.29037 c -0.0525,1.09415 0.007,1.278653 0.39454,1.213314 0.25107,-0.04238 0.70365,0.05522 1.00573,0.21689 0.69437,0.371612 0.30236,0.939244 -0.81868,1.185466 -0.66225,0.145455 -0.76297,0.284451 -0.73131,1.009195 0.0202,0.462278 -0.0427,1.048866 -0.13973,1.303527 -0.0971,0.254662 -0.23658,0.652919 -0.31008,0.885015 -0.0735,0.232097 -0.37115,0.484109 -0.66145,0.560026 -0.77845,0.203568 -0.6421,0.831855 0.29197,1.34539 2.00514,1.102389 2.29646,1.675037 2.76425,5.433713 0.0875,0.703357 0.32896,1.760123 0.53651,2.348368 0.5085,1.441241 0.46183,3.486621 -0.11783,5.1644 l -0.47791,1.383268 2.40477,2.473217 c 2.6716,2.747634 6.57905,6.193785 7.49724,6.612141 0.32785,0.149373 0.59608,0.479457 0.59608,0.733518 0,0.697486 -1.04124,0.356354 -1.95311,-0.639879 -0.41937,-0.458166 -0.66679,-0.654437 -0.54983,-0.436155 0.20569,0.383884 -0.86626,-0.384712 -1.23081,-0.882494 -0.089,-0.121571 -0.26762,-0.214085 -0.39687,-0.205589 -0.12925,0.0085 -0.81792,-0.48735 -1.53037,-1.101881 -0.71245,-0.61453 -1.44073,-1.203664 -1.6184,-1.309188 -0.35697,-0.212016 -3.30394,0.330004 -3.30394,0.607674 0,0.09585 0.22081,0.458229 0.49069,0.805275 0.60742,0.7811 1.04927,2.194737 1.05748,3.383275 0.003,0.495109 0.13277,0.978405 0.28743,1.073989 0.27504,0.169987 0.56538,3.510412 0.64036,7.367521 0.0422,2.173801 0.30529,2.531549 2.47259,3.362891 1.29318,0.496046 1.73575,1.345557 0.98643,1.89347 -0.6975,0.510027 -1.50541,0.434903 -3.34002,-0.310568 -0.89532,-0.363802 -2.00129,-0.661458 -2.45772,-0.661458 -0.45642,0 -1.04183,-0.155007 -1.30092,-0.344456 -0.42551,-0.31114 -0.44068,-0.498978 -0.15679,-1.941944 0.25879,-1.315418 0.24232,-1.967042 -0.0933,-3.69044 -0.22417,-1.151123 -0.48439,-2.598343 -0.57827,-3.216045 -0.0939,-0.617702 -0.27938,-1.190276 -0.41224,-1.272387 -0.13286,-0.08211 -0.24156,-0.380391 -0.24156,-0.662844 0,-0.368692 -0.18297,-0.513551 -0.64864,-0.513551 -0.51383,0 -0.90854,-0.398674 -1.89915,-1.918229 -1.15081,-1.76529 -1.26353,-1.865493 -1.41381,-1.256771 -0.25394,1.028591 -0.91945,0.826415 -1.01396,-0.308031 -0.14905,-1.789202 -0.69129,-1.394357 -2.33164,1.697842 -0.85599,1.613614 -1.73494,3.018139 -1.95322,3.121163 -0.21828,0.103026 -0.83232,0.373168 -1.36453,0.600318 -0.73409,0.313314 -1.01235,0.616498 -1.15283,1.256099 -0.10185,0.463703 -0.58746,2.048473 -1.07913,3.521707 -0.49168,1.473235 -0.89564,3.009768 -0.89769,3.414517 -0.002,0.404752 -0.1778,0.802703 -0.39054,0.884341 -0.21274,0.08163 -0.46495,0.40532 -0.56046,0.719299 -0.30941,1.017113 -0.93766,1.496912 -1.96006,1.496912 -0.53528,0 -1.05261,-0.07937 -1.14962,-0.17639 z"
           id="path3698-2-7-33-1" />
        <path
           style="fill:#000000;stroke-width:0.0572711"
           d="m 456.75448,-41.962302 c 0.7723,0.214114 1.78995,0.455046 2.24589,0.962427 1.15429,-0.99237 2.05531,1.03219 2.98536,1.530822 0.92731,0.456659 1.60409,1.118576 1.83453,2.015268 0.66021,0.384758 1.33079,0.945354 0.1775,1.17102 -1.11173,-0.01399 -1.92627,1.30398 -0.63099,1.748774 0.77825,-0.414818 2.02331,-1.09145 2.55341,-0.0086 0.76978,1.123848 1.82494,-1.267013 2.16674,-0.06925 -0.30164,0.210152 -0.75311,-0.511312 -0.87576,0.371691 -0.83547,0.966895 0.0293,2.500412 1.20212,2.678488 1.02931,0.666468 2.41521,0.98872 3.03157,-0.391343 0.46647,-0.412603 1.00551,0.959318 1.61394,1.042321 1.57747,1.078685 3.05086,2.30647 4.57845,3.460891 0.59341,0.584681 2.01155,1.370674 1.94581,1.867548 -0.79152,0.819436 -2.18669,0.660214 -3.24773,0.957295 -0.97279,0.314625 -2.16686,0.53631 -2.90393,-0.06459 0.4303,0.409312 -0.66641,1.348044 0.38169,0.974585 1.15936,0.05898 2.31612,-0.202592 3.46484,-0.418091 0.45729,-0.13448 2.1242,-0.380844 0.83088,0.02987 -0.94075,0.0928 -0.19263,1.003783 0.12703,0.653491 -0.54418,0.528013 -0.96435,1.636051 -1.73414,1.111141 -0.43614,0.453171 0.62894,0.784037 -0.22182,1.200863 -0.69504,0.948465 -2.13543,2.299103 -1.95666,3.29591 1.25921,1.253989 0.67525,-1.280322 1.56872,-1.72805 1.28171,-1.557809 2.59122,-3.092575 3.94133,-4.587301 0.49279,-0.109965 0.88401,-0.391093 0.7087,-0.919332 1.06679,0.316839 1.63949,1.559286 2.71316,1.637133 0.73644,1.175279 1.56852,-0.571791 0.29921,-0.760201 0.003,-0.836415 -1.21987,-1.136886 -1.58995,-1.859093 -0.53663,-0.342451 1.13813,-0.927576 0.043,-1.090194 -0.70226,1.40721 -1.97007,-0.502115 -2.67994,-0.967068 -1.59036,-1.202266 -3.18057,-2.437312 -4.54822,-3.894377 0.47346,-1.071585 -1.71124,-1.437152 -1.29335,-2.38406 -0.18437,-0.781012 -0.78549,1.11275 -1.27297,0.08572 -0.52538,-1.129068 -1.6923,-1.709005 -2.62141,-2.504092 -1.03466,-0.847633 -2.15007,-1.524036 -3.2883,-2.215061 -0.48199,-0.533227 -1.83328,-0.715371 -1.69119,-1.568012 -0.31897,-0.71571 -0.76144,0.60158 -1.19167,-0.346095 -0.89162,-0.844387 -2.08996,-1.34751 -2.74417,-2.434192 -0.68964,-0.752989 -1.18705,-2.530849 -2.27818,-2.433411 0.26199,1.213121 -0.44027,2.348716 -1.49867,2.991592 -0.3343,0.218972 -0.82573,0.690376 -0.1449,0.85553 z"
           id="path2495-0-8-8-0"
           sodipodi:nodetypes="ssssssssssscssscsssssssssssssssssscsssssss" />
      </g>
      <path
         style="fill:#000000;stroke-width:0.0394053"
         d="m -31.5018,42.208735 c -0.01281,-0.03601 -0.04284,-0.112528 -0.06665,-0.170046 l -0.04338,-0.104573 0.04726,-0.0936 c 0.06485,-0.128577 0.05924,-0.374774 -0.01083,-0.47489 l -0.05799,-0.08286 0.0018,-0.168357 0.0018,-0.168355 0.06566,-0.112244 0.06566,-0.112244 -0.01272,-0.199995 -0.01271,-0.200013 -0.05194,-0.177728 -0.07866,-0.177737 -0.03269,0.041 c -0.01911,0.0193 -0.05376,0.174112 -0.07696,0.343858 -0.05822,0.424735 -0.08961,0.543358 -0.167038,0.630777 l -0.06668,0.07528 0.0082,0.192238 c 0.0045,0.105745 0.011,0.246986 0.01502,0.313878 l 0.0073,0.121629 -0.04739,0.01556 c -0.02603,0.0081 -0.0474,0.06851 -0.0474,0.133239 v 0.117688 l -0.09288,0.06406 c -0.05112,0.03516 -0.13631,0.06406 -0.189382,0.06406 h -0.09648 l -0.02247,-0.0577 c -0.01229,-0.03173 0.01647,-0.141827 0.06405,-0.244641 0.08842,-0.191219 0.103902,-0.308589 0.06112,-0.465426 l -0.0242,-0.08872 -0.08306,-0.02142 -0.08315,-0.02142 0.02993,-0.239599 c 0.01638,-0.131784 0.04312,-0.276632 0.05922,-0.321911 0.0162,-0.04526 0.02457,-0.202667 0.01864,-0.349779 -0.0054,-0.147112 0.0091,-0.341554 0.03293,-0.432081 0.02401,-0.09054 0.08638,-0.365315 0.09281,-0.619163 0.006,-0.253848 0.02308,-0.497527 0.03706,-0.541504 l 0.02539,-0.07992 -0.110931,-0.0478 c -0.06099,-0.02622 -0.186273,-0.100359 -0.278383,-0.164616 l -0.167478,-0.116828 v -0.123958 -0.123949 l 0.20143,-0.194448 c 0.110794,-0.106957 0.283675,-0.27706 0.384209,-0.378009 l 0.182773,-0.183543 0.144703,-0.02458 0.144685,-0.02448 0.02625,0.04257 0.02625,0.04257 0.05559,-0.04615 0.05559,-0.04615 v -0.134331 -0.134331 l -0.0591,-0.02264 c -0.03251,-0.01248 -0.0591,-0.04693 -0.0591,-0.07654 0,-0.09834 0.186375,-0.390143 0.281067,-0.440081 l 0.09328,-0.04915 0.118223,0.0239 c 0.06502,0.01316 0.157802,0.06028 0.20619,0.104665 l 0.08797,0.08079 -0.0026,0.293984 -0.0026,0.293974 -0.07712,0.02022 -0.0772,0.02013 0.01192,0.08196 0.01192,0.08196 0.08115,0.02138 c 0.09145,0.024 0.260146,0.150964 0.310714,0.23379 0.03122,0.05109 0.07532,0.356752 0.125788,0.871173 l 0.02128,0.216731 -0.116378,0.172048 -0.116361,0.172048 0.05927,0.123494 c 0.0326,0.06793 0.113487,0.181124 0.179744,0.251555 l 0.120504,0.128071 h 0.07532 0.07532 l -0.02393,0.06231 c -0.01312,0.03435 -0.02393,0.09057 -0.02393,0.12509 v 0.0628 l -0.09121,-0.08573 c -0.05018,-0.04712 -0.105912,-0.08573 -0.123883,-0.08573 -0.01802,0 -0.08812,-0.06405 -0.155846,-0.142459 l -0.123155,-0.142478 -0.05439,0.101598 -0.05439,0.101578 0.08466,0.203755 c 0.04658,0.112067 0.08467,0.236867 0.08467,0.277313 v 0.07354 h -0.07883 -0.07883 v -0.08863 c 0,-0.04877 -0.01578,-0.112647 -0.0344,-0.141965 l -0.0338,-0.05331 -0.02942,0.270036 c -0.01622,0.148525 -0.02835,0.46921 -0.02681,0.714348 l 0.0027,0.445712 -0.09906,0.10631 -0.09907,0.106308 -0.02941,0.177157 -0.02941,0.177157 0.06837,0.173757 c 0.03761,0.09556 0.06837,0.200961 0.06837,0.234207 v 0.06045 h -0.187748 -0.18774 l -0.02327,-0.06551 z"
         id="path101573-4-2-0-9"
         sodipodi:nodetypes="ccccscccccccccccscssccsccscccscccccccccccscccssccccccccccscccccccccccccscccssccccsccscccccscccsccccccccccsccccc" />
      <path
         style="fill:#000000;stroke-width:0.0391139"
         d="m -23.256443,42.333798 -0.08311,-0.03352 -0.03066,-0.188861 c -0.03533,-0.218086 -0.03619,-0.559742 -0.0017,-0.668752 l 0.02384,-0.07491 -0.07893,-0.100327 c -0.09603,-0.122071 -0.100183,-0.234279 -0.01362,-0.366445 l 0.06531,-0.09971 0.0178,-0.30707 c 0.0098,-0.168893 0.0068,-0.351712 -0.0068,-0.406265 -0.02222,-0.08846 -0.164102,-0.209049 -0.201728,-0.171438 -0.0077,0.0077 -0.03406,0.145861 -0.0579,0.306302 l -0.04333,0.291714 -0.09881,0.206801 -0.09879,0.206792 0.05117,0.06176 0.05126,0.06176 -0.08674,0.07021 -0.08675,0.07021 v 0.313784 0.313775 l -0.07271,0.02305 c -0.04002,0.01268 -0.101715,0.01191 -0.137195,-0.0019 l -0.06445,-0.02478 -0.104032,0.06809 -0.104014,0.06809 -0.148655,0.0038 -0.148665,0.0038 -0.05015,-0.051 -0.05015,-0.051 0.09777,-0.07597 c 0.307334,-0.238602 0.393085,-0.323303 0.414771,-0.409732 l 0.0241,-0.09607 -0.06011,-0.09182 c -0.03304,-0.05052 -0.07238,-0.156868 -0.08727,-0.236411 l -0.02716,-0.144613 0.06199,-0.04697 0.06199,-0.04697 0.02256,-0.371583 c 0.01243,-0.204372 0.04163,-0.508532 0.06505,-0.675927 l 0.04249,-0.304343 -0.06318,-0.06982 c -0.03474,-0.03842 -0.07331,-0.121457 -0.08576,-0.184586 l -0.02256,-0.114772 0.09925,-0.185787 0.09925,-0.185797 h -0.110859 -0.110861 l -0.152062,-0.114858 c -0.245781,-0.185701 -0.28895,-0.232801 -0.28895,-0.315312 0,-0.07751 0.216867,-0.41261 0.370077,-0.571879 0.04385,-0.04552 0.137222,-0.154746 0.207484,-0.242597 l 0.127762,-0.159711 0.234917,-0.0266 c 0.129208,-0.0146 0.244369,-0.04188 0.255914,-0.06051 0.0115,-0.01873 -0.01524,-0.034 -0.05952,-0.034 h -0.08055 v -0.05638 c 0,-0.03102 0.01558,-0.06598 0.03465,-0.0777 0.01899,-0.01172 0.04657,-0.101182 0.06122,-0.198705 l 0.02657,-0.177321 0.07884,-0.07343 c 0.04333,-0.04039 0.134615,-0.08198 0.202826,-0.09245 l 0.124023,-0.01903 0.125726,0.05158 0.125735,0.05159 0.02316,0.110138 c 0.01269,0.0606 0.043,0.188275 0.06718,0.283771 l 0.04402,0.173628 -0.047,0.01565 c -0.08353,0.02785 -0.167125,0.133885 -0.155034,0.196659 0.0068,0.03361 0.09069,0.10729 0.187116,0.163697 l 0.175324,0.102536 0.0465,0.154256 c 0.02563,0.08481 0.04785,0.304737 0.04956,0.488667 l 0.0026,0.334434 0.04214,0.04216 0.04214,0.04216 -0.04794,0.160038 -0.04793,0.160018 0.05474,0.06598 c 0.03005,0.03631 0.112622,0.09019 0.183404,0.119767 l 0.128697,0.05378 -0.02222,0.03592 c -0.01226,0.01979 0.01788,0.05657 0.06692,0.08173 0.04896,0.02516 0.146443,0.100039 0.216517,0.166376 l 0.12743,0.120621 0.10725,0.0019 0.107266,0.0019 0.01201,0.102555 0.012,0.102575 -0.06199,0.02372 -0.06207,0.02382 -0.412242,-0.278652 -0.412242,-0.278642 -0.05467,0.05465 -0.05467,0.05465 -0.03951,0.2736 c -0.02172,0.150481 -0.03993,0.364533 -0.04027,0.475685 0,0.111151 -0.01566,0.207954 -0.03388,0.215128 l -0.03313,0.01306 0.03772,0.330918 0.03772,0.330929 -0.04377,0.0146 c -0.0241,0.0077 -0.04377,0.05897 -0.04377,0.11337 v 0.09878 l -0.08353,0.08673 -0.08344,0.08673 -0.01848,0.133904 c -0.03533,0.255467 -0.02359,0.384569 0.04956,0.546882 l 0.07357,0.16315 -0.07408,0.05417 c -0.08318,0.0608 -0.157086,0.06493 -0.27915,0.01566 z"
         id="path11-2-30-0" />
      <path
         style="fill:#000000;stroke-width:0.0385012"
         d="m -26.712447,42.376141 c -0.179986,-0.0276 -0.183841,-0.16084 -0.0067,-0.23649 0.05674,-0.0242 0.148832,-0.10412 0.204727,-0.17752 l 0.101614,-0.13343 0.02648,-0.17645 0.02648,-0.17647 -0.07996,-0.0559 -0.07996,-0.056 v -0.0923 c 0,-0.0507 0.01919,-0.13432 0.04258,-0.18574 l 0.04258,-0.0935 -0.0409,-0.16821 c -0.02247,-0.0925 -0.08498,-0.29608 -0.138843,-0.45237 l -0.09796,-0.28419 v -0.18495 c 0,-0.20085 -0.05323,-0.38247 -0.112065,-0.38247 -0.02028,0 -0.05891,0.0607 -0.08568,0.13474 -0.02682,0.0741 -0.0678,0.13476 -0.09119,0.13476 -0.02338,0 -0.100508,-0.0598 -0.17143,-0.13306 l -0.128953,-0.13305 0.157433,-0.20853 0.15745,-0.20854 -0.190037,-0.21322 c -0.104522,-0.11727 -0.190043,-0.24243 -0.190043,-0.27813 0,-0.0358 0.02405,-0.15419 0.05347,-0.26335 0.02942,-0.10913 0.07459,-0.30071 0.10034,-0.4257 l 0.04686,-0.22728 0.115652,-0.10565 c 0.06361,-0.0581 0.165747,-0.11565 0.226939,-0.12789 l 0.11126,-0.0223 v -0.0779 -0.078 h -0.09268 -0.09266 l -0.0025,-0.28646 -0.0025,-0.28647 0.09952,-0.0783 c 0.05473,-0.0431 0.15848,-0.0894 0.230542,-0.10287 l 0.131024,-0.0246 0.09547,0.0626 c 0.05247,0.0344 0.105964,0.1044 0.118795,0.15553 0.01282,0.0512 0.04777,0.10235 0.07761,0.11381 0.07871,0.0301 0.06654,0.16373 -0.02624,0.28924 l -0.08046,0.10889 0.05121,0.0821 c 0.02816,0.0451 0.07745,0.0822 0.109376,0.0823 0.03193,6e-5 0.115583,0.0352 0.18581,0.078 l 0.127688,0.0779 0.343957,-0.35325 0.343948,-0.35324 v -0.0648 c 0,-0.0938 0.0388,-0.11873 0.118317,-0.0762 l 0.06973,0.0373 -0.01524,0.079 c -0.0084,0.0435 -0.154641,0.23631 -0.325023,0.42849 l -0.309795,0.34944 -0.0058,0.0815 c -0.0076,0.10658 -0.0058,0.11857 0.05557,0.38949 0.029,0.12705 0.07409,0.27082 0.100205,0.31948 l 0.04753,0.0885 -0.03888,0.20029 -0.03888,0.20027 0.0076,0.79847 0.0076,0.79848 -0.04534,0.0173 c -0.07811,0.0299 -0.117647,-0.0662 -0.125408,-0.3053 -0.0042,-0.12705 -0.02138,-0.33496 -0.03846,-0.46201 l -0.03101,-0.23101 -0.005,0.15233 c -0.0025,0.0838 -0.03293,0.31974 -0.06705,0.52436 l -0.06194,0.37204 0.06328,0.2784 c 0.03478,0.15312 0.07208,0.38494 0.0828,0.51516 0.01073,0.13023 0.03738,0.29274 0.05918,0.36116 0.02179,0.0683 0.02749,0.14407 0.01249,0.16816 l -0.02707,0.0439 -0.167281,-0.023 c -0.092,-0.0127 -0.194074,-0.0127 -0.226838,-8e-5 l -0.05959,0.0229 0.02422,0.12925 0.02422,0.12925 -0.109969,0.0432 c -0.06051,0.0238 -0.161942,0.0661 -0.225464,0.0939 -0.149546,0.0654 -0.246809,0.0827 -0.365764,0.0644 z"
         id="path4-5-1-5" />
      <path
         style="fill:#000000;stroke-width:0.0385012"
         d="m -29.378187,42.30405 c -0.01325,-0.0213 0.0033,-0.0665 0.03747,-0.10027 0.07895,-0.079 0.215195,-0.34573 0.236484,-0.46308 l 0.0165,-0.0909 -0.04885,3e-4 c -0.0269,1.1e-4 -0.07837,0.0521 -0.114463,0.11551 -0.03612,0.0634 -0.110355,0.13566 -0.165059,0.16059 l -0.09946,0.0453 -0.06319,-0.0632 -0.06319,-0.0632 0.04602,-0.088 c 0.0253,-0.0484 0.09708,-0.15735 0.159561,-0.24205 0.06244,-0.0847 0.114144,-0.17582 0.11484,-0.20249 0,-0.0267 -0.08541,-0.10181 -0.191344,-0.167 l -0.192617,-0.11852 -0.01601,-0.0832 c -0.03713,-0.19319 -0.113666,-0.66521 -0.116499,-0.71852 -0.0017,-0.0318 0.02808,-0.15304 0.06605,-0.26951 l 0.06915,-0.21175 0.01307,-0.36576 c 0.0076,-0.20118 0.02548,-0.40267 0.04057,-0.44779 l 0.0275,-0.0821 -0.10013,-0.0929 -0.100114,-0.0928 -0.02439,-0.31629 -0.02439,-0.31628 0.05733,-0.0671 c 0.03151,-0.0369 0.09698,-0.16733 0.145489,-0.28982 0.04852,-0.12248 0.118469,-0.2439 0.155455,-0.26981 l 0.06722,-0.0471 -0.01208,-0.16916 c -0.0067,-0.093 -0.02741,-0.17952 -0.04618,-0.1922 -0.01877,-0.0127 -0.04526,-0.0532 -0.05884,-0.0901 l -0.02472,-0.067 0.09577,-0.10626 c 0.05271,-0.0585 0.123405,-0.13862 0.157164,-0.17815 l 0.06135,-0.0718 0.173298,0.0195 0.173281,0.0195 0.08862,0.0908 0.08861,0.0909 0.01491,0.33645 0.01492,0.33647 0.156913,0.13429 0.156897,0.13431 0.06102,0.15256 c 0.03361,0.0839 0.06421,0.25758 0.06806,0.3859 l 0.0067,0.23332 h 0.103767 0.103769 l 0.0637,0.0704 c 0.03503,0.0387 0.0637,0.11686 0.0637,0.17364 v 0.10322 l -0.07199,0.0616 -0.07199,0.0616 0.02757,0.12086 c 0.01518,0.0665 0.03847,0.15552 0.0518,0.19787 l 0.02431,0.077 -0.110305,0.12544 -0.11029,0.12545 -0.02791,0.50218 -0.02791,0.50217 -0.06295,-0.012 -0.06295,-0.012 -0.01928,-0.36537 -0.01928,-0.36536 -0.03093,0.24148 c -0.01702,0.13282 -0.05825,0.31474 -0.09168,0.40426 l -0.06084,0.16278 -0.005,0.36538 -0.005,0.36538 -0.06269,0.0121 -0.06269,0.0121 -0.0033,0.14232 c -0.0017,0.0783 -0.01149,0.25048 -0.02162,0.38267 l -0.01843,0.24034 -0.118462,0.11579 -0.118467,0.1158 h -0.169644 c -0.09332,0 -0.180457,-0.0174 -0.19364,-0.0388 z"
         id="path18-0-5-5" />
    </g>
  </g>
</svg>
