<?xml version="1.0" encoding="UTF-8" standalone="no"?>
<!-- Created with Inkscape (http://www.inkscape.org/) -->

<svg
   width="34.983074mm"
   height="5.7184095mm"
   viewBox="0 0 34.983074 5.7184099"
   version="1.1"
   id="svg33402"
   sodipodi:docname="inkporter-svg-v1ct8ylu.svg"
   inkscape:version="1.1.1 (3bf5ae0d25, 2021-09-20)"
   xmlns:inkscape="http://www.inkscape.org/namespaces/inkscape"
   xmlns:sodipodi="http://sodipodi.sourceforge.net/DTD/sodipodi-0.dtd"
   xmlns="http://www.w3.org/2000/svg"
   xmlns:svg="http://www.w3.org/2000/svg">
  <sodipodi:namedview
     id="namedview555"
     pagecolor="#ffffff"
     bordercolor="#666666"
     borderopacity="1.0"
     inkscape:pageshadow="2"
     inkscape:pageopacity="0.0"
     inkscape:pagecheckerboard="0"
     inkscape:document-units="mm"
     showgrid="false"
     inkscape:zoom="0.45254834"
     inkscape:cx="-40.879611"
     inkscape:cy="98.332037"
     inkscape:window-width="3072"
     inkscape:window-height="1665"
     inkscape:window-x="1912"
     inkscape:window-y="-8"
     inkscape:window-maximized="1"
     inkscape:current-layer="svg33402" />
  <defs
     id="defs13927" />
  <g
     id="G-Infantry4"
     transform="matrix(0.35277777,0,0,-0.35277777,-23.403265,78.316038)">
    <path
       d="m 156.4632,212.66032 c -0.023,0.004 -0.043,0.025 -0.043,0.051 0,0.028 0.023,0.052 0.055,0.052 -0.002,0.019 -0.004,0.041 -0.004,0.062 -0.029,0.002 -0.051,0.023 -0.051,0.052 0,0.027 0.023,0.051 0.053,0.051 h 0.01 c 10e-4,0.015 0.005,0.034 0.009,0.059 -0.019,0.01 -0.031,0.028 -0.031,0.049 0,0.027 0.02,0.048 0.045,0.054 0.002,0.015 0.004,0.033 0.008,0.05 -0.012,0.012 -0.016,0.028 -0.016,0.043 0,0.025 0.01,0.046 0.025,0.058 0.001,0.02 0.005,0.043 0.005,0.064 -0.016,0.011 -0.03,0.033 -0.03,0.054 0,0.028 0.016,0.051 0.04,0.061 v 0.014 c -0.002,0 -0.004,0.002 -0.006,0.002 -0.034,0.014 -0.061,0.055 -0.057,0.1 0.004,0.044 0.057,0.044 0.057,0.044 0,0 -0.012,0.027 -0.034,0.062 -0.023,0.036 0.018,0.101 0.018,0.101 0,0 -0.037,0.027 -0.045,0.089 -0.01,0.064 0.027,0.068 0.027,0.068 0,0 -0.074,0.036 -0.064,0.085 0.009,0.05 0.064,0.063 0.064,0.063 l -0.118,0.065 c 0,0 -0.008,-0.037 -0.021,-0.057 -0.014,-0.017 -0.164,-0.317 -0.14,-0.394 0.021,-0.078 -0.041,-0.171 -0.073,-0.234 -0.032,-0.065 -0.094,-0.468 -0.12,-0.549 -0.028,-0.081 -0.136,-0.112 -0.136,-0.112 0,0 0.057,-0.204 0.085,-0.289 0.027,-0.085 -0.031,-0.103 -0.031,-0.103 0,0 0,-0.101 0.003,-0.118 0.006,-0.017 0.024,-0.126 0.01,-0.184 -0.013,-0.058 -0.04,-0.102 -0.057,-0.201 -0.018,-0.099 -0.118,-0.006 -0.126,0.027 -0.01,0.031 -0.037,0.192 -0.014,0.279 0.022,0.085 -0.055,0.102 -0.055,0.102 0,0 -0.17,-0.179 -0.183,-0.207 -0.01,-0.017 0.031,-0.141 0.055,-0.22 0.707,-0.181 1.819,-0.457 2.197,-0.553 0.132,0.328 0.289,0.645 0.32,0.719 0.058,0.145 -0.144,0.184 -0.144,0.184 l -0.503,0.308 c 0,0 0.034,0.147 0.068,0.184 0.031,0.034 0.34,0.364 0.34,0.364 0,0 -0.278,0.121 -0.374,0.296 -0.092,0.177 0.041,0.374 0.041,0.374 0,0 0.037,0.059 0.006,0.122 -0.033,0.062 -0.307,0.205 -0.418,0.262 -0.114,0.052 -0.159,0.178 -0.387,0.313 -0.231,0.136 -0.199,0.077 -0.199,0.077 0,0 0.004,-0.024 0.004,-0.055 0,-0.031 -0.036,-0.075 -0.036,-0.075 0,0 0.068,-0.018 0.087,-0.065 0.018,-0.045 -0.019,-0.089 -0.019,-0.089 0,0 0.05,-0.05 0.06,-0.081 0.008,-0.031 -0.019,-0.086 -0.019,-0.086 0,0 0.031,-0.036 0.036,-0.081 0.004,-0.045 -0.046,-0.085 -0.046,-0.085 0,0 0.037,-0.031 0.037,-0.086 0,-0.053 -0.041,-0.067 -0.041,-0.067 0,0 0.067,-0.027 0.081,-0.067 0.014,-0.041 -0.071,-0.086 -0.071,-0.086 0,0 0.04,-0.01 0.04,-0.058 0,-0.037 -0.036,-0.074 -0.071,-0.086 v -0.012 c 0.033,-0.002 0.058,-0.03 0.058,-0.065 0,-0.033 -0.029,-0.061 -0.064,-0.061 h -0.004 c -0.002,-0.018 -0.002,-0.034 -0.004,-0.051 0.023,-0.002 0.045,-0.029 0.045,-0.064 0,-0.033 -0.022,-0.062 -0.051,-0.062 -0.002,0 -0.006,0.002 -0.01,0.002 l -0.004,-0.037 c 0.022,-0.006 0.037,-0.025 0.037,-0.05 0,-0.029 -0.023,-0.053 -0.051,-0.055 -0.004,-0.025 -0.008,-0.049 -0.01,-0.065 0.01,-0.01 0.016,-0.024 0.016,-0.039 0,-0.022 -0.01,-0.037 -0.028,-0.046 0.002,-0.025 0.004,-0.053 0.006,-0.078 0.014,-0.01 0.022,-0.026 0.022,-0.042 0,-0.02 -0.01,-0.037 -0.026,-0.047 l -0.002,-0.002 c -0.006,-0.014 -0.019,-0.033 -0.035,-0.053 0.02,-0.016 0.062,-0.061 0.055,-0.087 -0.01,-0.031 -0.086,-0.031 -0.086,-0.031 0,0 0.017,-0.054 0,-0.085 -0.02,-0.031 -0.091,-0.013 -0.091,-0.013 0,0 0.033,-0.081 0.006,-0.109 -0.029,-0.027 -0.105,-0.01 -0.122,0.01 -0.018,0.018 -0.077,0.089 -0.081,0.112 -0.004,0.024 -0.086,0.099 -0.055,0.116 0.033,0.02 0.146,-0.053 0.146,-0.053 0,0 -0.034,0.053 -0.041,0.077 -0.01,0.023 -0.035,0.049 0.007,0.045 0.045,-0.004 0.075,-0.022 0.105,-0.031 0.031,-0.01 0.023,0.031 0.008,0.063 -0.012,0.031 0,0.049 0.027,0.043 0.021,-0.002 0.075,-0.029 0.101,-0.041 0.009,0.012 0.017,0.023 0.023,0.035 m 1.046,-1.825 c 0,0 -0.126,-0.03 -0.16,-0.053 -0.038,-0.022 -0.466,0.005 -0.514,0.015 -0.049,0.008 -0.315,0.089 -0.319,0.116 -0.004,0.027 -0.01,0.036 -0.041,0.062 -0.032,0.029 0.023,0.149 0.023,0.149 l -1.66,0.422 -0.027,-0.048 -0.177,0.058 c 0,0 0.033,-0.099 0.004,-0.16 -0.024,-0.065 -0.116,-0.088 -0.116,-0.088 0,0 -0.14,-0.889 -0.187,-1.178 -0.051,-0.288 -0.038,-0.594 0.035,-0.679 0.073,-0.085 -0.028,-0.13 -0.028,-0.13 l -0.13,0.031 c 0,0 -0.041,0.02 -0.077,0 -0.035,-0.017 -0.095,0.058 -0.08,0.134 0.014,0.077 0.221,1.4 0.221,1.4 l -0.437,-0.963 -0.293,-0.232 -0.058,0.26 c 0,0 -0.059,0.077 0.014,0.077 0.071,0 0.175,0.058 0.175,0.058 l 0.573,1.326 c 0,0 -0.02,0.055 0.02,0.154 0.041,0.098 0.14,0.085 0.14,0.085 l 0.006,0.041 -0.159,0.048 c 0,0 -0.086,0.04 -0.122,0.085 -0.035,0.047 -0.107,0.041 -0.107,0.041 l -0.06,-0.031 c 0,0 -0.435,0.089 -0.486,0.112 -0.049,0.024 -0.075,0.101 -0.075,0.101 0,0 -0.212,0.035 -0.279,0.043 -0.068,0.01 -0.079,0.091 -0.075,0.122 0.003,0.03 0.034,0.193 0.092,0.166 0.06,-0.026 0.347,-0.108 0.347,-0.108 l 0.091,0.033 0.432,-0.075 0.701,-0.071 0.109,0.266 0.098,-0.049 c 0,0 -0.037,-0.118 -0.051,-0.166 -0.013,-0.051 0.024,-0.161 0.092,-0.194 0.011,-0.006 0.124,-0.034 0.296,-0.081 -0.025,0.13 -0.069,0.35 -0.071,0.405 -0.004,0.075 0.108,0.414 0.108,0.414 l -0.051,0.014 -0.017,0.302 c 0,0 0.023,0.124 -0.006,0.263 -0.026,0.139 0.02,0.2 0.041,0.275 0.023,0.077 -0.012,0.36 -0.012,0.36 0,0 -0.023,0.171 0.004,0.211 0.028,0.041 0.018,0.105 -0.004,0.177 -0.023,0.071 0.103,0.229 0.103,0.229 0,0 -0.027,0.084 -0.04,0.189 -0.014,0.102 0.04,0.13 0.102,0.175 0.064,0.044 0.126,0.374 0.132,0.392 0.004,0.018 -0.01,0.09 0.038,0.152 0.051,0.064 0.037,0.312 0.01,0.415 -0.027,0.102 0.051,0.201 0.051,0.201 0,0 -0.073,0.047 -0.15,0.033 -0.075,-0.014 -0.317,-0.051 -0.378,-0.061 -0.057,-0.008 -0.332,-0.021 -0.417,0.024 -0.086,0.045 -0.079,0.157 -0.069,0.197 0.01,0.041 -0.01,0.078 -0.04,0.126 -0.031,0.051 0.027,0.068 0.027,0.068 l -0.004,0.064 c 0,0 -0.072,0.066 -0.081,0.112 -0.01,0.045 -0.004,0.093 -0.089,0.13 -0.087,0.037 -0.031,0.082 -0.004,0.132 0.025,0.049 -0.02,0.116 -0.027,0.174 -0.01,0.058 -0.01,0.113 -0.01,0.113 l -0.024,0.057 -0.085,0.099 c 0,0 -0.04,0.014 -0.197,0.051 -0.159,0.035 -0.081,0.112 -0.004,0.135 0.075,0.022 0.089,0.066 0.184,0.647 0.096,0.581 0.637,0.756 1.507,0.671 0.867,-0.086 0.741,-1.008 0.745,-1.075 0.006,-0.069 0.214,-0.369 0.214,-0.369 l 0.011,0.072 0.391,-0.068 c 0,0 0.034,-0.041 0.204,-0.072 0.17,-0.032 -0.027,-0.059 -0.027,-0.059 0,0 0.418,-0.008 0.494,-0.026 0.077,-0.019 0.145,-0.037 0.325,-0.063 0.18,-0.028 0.347,-0.103 0.388,-0.132 0.038,-0.025 0.398,-0.229 0.484,-0.27 0.085,-0.039 0.197,-0.079 0.373,-0.238 0.175,-0.157 0.398,-0.228 0.398,-0.228 0,0 0.259,0.193 0.304,0.193 0.046,0 0.747,-0.343 0.747,-0.343 0,0 0.203,-0.183 0.315,-0.282 0.114,-0.099 0.053,-0.163 0.122,-0.238 0.067,-0.078 0.39,-0.37 0.376,-0.401 -0.013,-0.032 -0.327,-0.562 -0.327,-0.562 0,0 0.481,-0.653 0.531,-0.714 0.048,-0.065 0.207,-0.38 0.207,-0.38 0,0 0.028,-0.022 -0.064,-0.109 -0.089,-0.085 -0.467,-0.236 -0.467,-0.236 0,0 -0.046,-0.097 -0.053,-0.177 -0.01,-0.081 -0.095,-0.39 -0.195,-0.472 -0.098,-0.081 -0.183,-0.306 -0.22,-0.477 -0.034,-0.17 -0.117,-0.173 -0.176,-0.292 -0.059,-0.116 -0.256,-0.401 -0.386,-0.503 -0.049,-0.039 -0.094,-0.097 -0.135,-0.165 l 0.118,-0.219 0.133,-0.035 c 0,0 0.122,0.039 0.19,0.027 0.068,-0.014 0.43,-0.067 0.517,-0.081 0.085,-0.014 0.069,-0.055 0.069,-0.055 0,0 0.187,-0.026 0.251,-0.026 0.062,0 0.058,-0.072 0.058,-0.072 l 0.248,-0.037 c 0,0 -0.054,0.074 0.022,0.046 0.075,-0.027 0.333,-0.112 0.421,-0.139 0.091,-0.026 0.123,-0.109 0.173,-0.116 0.048,-0.01 0.008,-0.109 0.008,-0.109 0,0 0.114,0.018 0.213,-0.023 0.099,-0.04 0.056,-0.18 0.056,-0.18 l -0.025,-0.104 c 0,0 0.912,-0.295 1.253,-0.345 0.343,-0.051 0.542,-0.058 1.071,0.067 0.531,0.126 0.356,-0.203 0.234,-0.342 -0.12,-0.14 -0.157,-0.432 -0.224,-0.664 0,0 -0.014,-0.15 -0.099,-0.407 -0.085,-0.256 -0.188,-0.175 -0.364,0.108 -0.177,0.283 -0.333,0.248 -0.378,0.262 -0.045,0.013 -0.149,0.031 -0.122,0.098 0.027,0.068 -0.035,0.246 -0.134,0.283 -0.069,0.025 -0.259,0.087 -0.368,0.123 l -0.128,-0.46 -0.166,0.023 c 0,0 -0.017,-0.046 -0.031,-0.166 -0.014,-0.122 -0.045,-0.604 -0.077,-0.785 -0.031,-0.178 -0.301,-0.484 -0.301,-0.484 l -0.104,0.041 0.033,0.035 c 0,0 -0.163,0.067 -0.213,0.148 -0.039,0.065 -0.016,0.204 0.021,0.382 -0.04,-0.015 -0.085,-0.03 -0.132,-0.048 -0.19,-0.068 -0.227,0.018 -0.131,0.06 0.095,0.039 0.156,0.079 0.156,0.079 0,0 -0.075,-0.019 -0.193,-0.036 -0.116,-0.018 -0.192,0.017 -0.103,0.05 0.091,0.031 0.18,0.082 0.18,0.082 0,0 -0.166,-0.01 -0.252,-0.01 -0.085,0 -0.022,0.071 0.027,0.085 0.049,0.013 0.225,0.062 0.225,0.062 0,0 -0.225,-0.004 -0.292,0.009 -0.068,0.014 -0.099,0.055 -0.027,0.068 0.071,0.014 0.265,0.058 0.265,0.058 0,0 -0.135,0.023 -0.265,0.037 -0.132,0.014 -0.065,0.075 -0.004,0.081 0.057,0.004 0.218,0.045 0.218,0.045 0,0 -0.201,0.051 -0.251,0.067 -0.048,0.018 -0.103,0.077 -0.066,0.081 0.035,0.005 0.229,0.017 0.229,0.017 0,0 -0.109,0.025 -0.202,0.077 -0.095,0.057 -0.074,0.051 -0.033,0.057 0.041,0.002 0.18,0.011 0.18,0.011 0,0 -0.026,0.019 -0.108,0.054 -0.037,0.016 -0.078,0.054 -0.111,0.089 -0.04,0.006 -0.087,0.008 -0.132,0.006 -0.015,-0.002 -0.032,-0.002 -0.051,-0.002 0.009,-0.063 0.025,-0.128 0.025,-0.128 0,0 0.009,-0.087 -0.01,-0.189 -0.017,-0.105 -0.151,-0.118 -0.206,-0.099 -0.053,0.018 -0.296,0.103 -0.288,0.081 0.008,-0.023 -0.008,-0.067 -0.054,-0.067 -0.044,0 -0.202,0.061 -0.266,0.089 -0.038,0.017 -0.126,0.181 -0.186,0.307 -0.09,-0.023 -0.181,-0.042 -0.232,-0.042 -0.116,0 -0.54,-0.021 -0.639,0.013 -0.099,0.037 -0.081,-0.071 -0.117,-0.129 -0.036,-0.061 -0.04,-0.112 -0.023,-0.128 0.02,-0.012 0.105,-0.094 0.109,-0.157 0.004,-0.063 -0.023,-0.116 0.004,-0.116 0.027,0 0.023,-0.095 0.023,-0.148 0,-0.055 0.072,-0.096 0.108,-0.164 0.035,-0.066 0.018,-0.196 0.018,-0.232 0,-0.035 0.054,-0.086 0.068,-0.113 0.014,-0.027 0.067,-0.19 0.095,-0.247 0.025,-0.059 0.013,-0.161 0.013,-0.185 0,-0.023 0.099,-0.071 0.12,-0.153 0.024,-0.081 0.037,-0.248 0.078,-0.286 0.041,-0.043 0.035,-0.069 0.035,-0.069 0,0 0.041,-0.244 0.085,-0.305 0.047,-0.065 0.015,-0.223 0.015,-0.223 l 0.004,-0.242 c 0,0 -0.004,-0.079 -0.126,-0.103 -0.122,-0.021 -0.635,-0.054 -0.635,-0.054 l -0.004,0.07 c -0.032,-0.01 -0.089,-0.025 -0.184,-0.051 -0.343,-0.094 -0.874,-0.203 -1.23,-0.149 0,0 -0.034,-0.014 -0.276,0.041 -0.244,0.054 -0.262,0.184 -0.262,0.184 l 0.048,0.078 c 0,0 0.006,0.04 0.041,0.133 0.037,0.093 0.182,0.126 0.339,0.159 0.157,0.031 0.48,0.139 0.521,0.161 0.04,0.021 0.248,0.203 0.278,0.248 0.032,0.044 0.167,0.166 0.167,0.166 0,0 0,0.078 0.031,0.139 0.032,0.063 -0.035,0.086 -0.072,0.134 -0.034,0.051 -0.016,0.118 -0.026,0.159 -0.008,0.04 -0.09,0.13 -0.09,0.13 0,0 -0.077,0.071 -0.122,0.203 -0.044,0.13 -0.129,0.229 -0.17,0.283 -0.041,0.052 0.004,0.085 0.004,0.085 0,0 -0.238,0.116 -0.256,0.252 -0.019,0.136 -0.149,0.132 -0.23,0.162 -0.081,0.031 -0.13,0.12 -0.14,0.206 -0.008,0.087 -0.12,0.19 -0.143,0.221 -0.023,0.031 -0.099,0.199 -0.085,0.323 0.013,0.128 -0.109,0.177 -0.163,0.221 -0.054,0.047 -0.068,0.316 -0.079,0.438 -0.016,0.122 -0.087,0.306 -0.172,0.579 -0.018,0.056 -0.01,0.145 0.014,0.252 z m 3.652,-2.014 c 0,0 0.076,0 0.144,0.004 0.056,0.006 0.06,0.118 0.039,0.281 -0.109,0.012 -0.193,0.022 -0.209,0.022 -0.01,0 -0.039,-0.008 -0.08,-0.018 z m -1.299,-2.769 v -0.004 c 0.082,0.023 0,0.004 0,0.004"
       style="fill:#000000;fill-opacity:1;fill-rule:nonzero;stroke:none"
       id="path48404-3-2-1-4" />
    <path
       d="m 131.0168,208.69172 c -0.177,0.12 -0.087,0.48 -0.079,0.616 0.008,0.136 -0.216,0.105 -0.336,0.095 -0.12,-0.008 -0.304,-0.047 -0.432,0.049 -0.127,0.094 -0.726,0.079 -0.726,0.079 0,0 -0.008,-0.136 -0.063,-0.169 -0.057,-0.03 -0.097,-0.062 -0.057,-0.166 0.041,-0.105 -0.031,-0.264 -0.063,-0.335 -0.032,-0.072 -0.049,-0.098 -0.024,-0.169 0.024,-0.071 -0.161,-0.207 -0.311,-0.248 -0.154,-0.039 -0.065,-0.599 -0.024,-0.798 0.038,-0.2 -0.177,-0.488 -0.177,-0.488 0,0 0.057,-0.175 0.081,-0.23 0.024,-0.057 0.014,-0.528 0.055,-0.688 0.041,-0.159 -0.041,-0.167 -0.041,-0.167 0,0 -0.038,-0.183 -0.11,-0.209 -0.073,-0.023 -0.608,0.026 -0.608,0.026 l -0.007,0.142 c 0,0 -0.4,-0.087 -0.744,-0.168 -0.343,-0.08 -1.069,0.018 -1.262,0.05 -0.192,0.031 -0.248,0.078 -0.248,0.078 l 0.056,0.056 c 0,0 -0.103,0.24 -0.023,0.312 0.08,0.072 0.798,0.121 0.967,0.128 0.167,0.007 0.23,0.113 0.31,0.151 0.082,0.041 0.568,0.529 0.568,0.529 0,0 -0.057,0.095 -0.088,0.143 -0.03,0.048 -0.015,0.12 0.023,0.192 0.041,0.071 -0.007,0.327 -0.023,0.368 -0.015,0.039 -0.015,0.174 0.008,0.319 0.023,0.144 0,0.494 0,0.494 0,0 -0.079,0.144 -0.168,0.24 -0.087,0.097 -0.072,0.304 -0.008,0.408 0.063,0.104 -0.031,0.408 -0.031,0.518 0,0.112 0.159,0.56 0.169,0.632 0.006,0.071 0.006,0.383 0.126,0.744 0.12,0.358 0.63,0.366 0.886,0.421 0.256,0.057 0.065,0.16 -0.087,0.327 -0.153,0.169 -0.424,0.593 -0.472,0.689 -0.049,0.095 0.025,0.278 -0.185,0.398 -0.207,0.12 -0.191,0.264 -0.158,0.343 0.032,0.082 0.23,0.305 0.15,0.488 -0.079,0.185 -0.183,0.32 -0.183,0.32 0,0 -0.392,0.207 -0.494,0.32 -0.075,0.079 -0.28,0.161 -0.449,0.224 -0.217,-0.085 -0.698,-0.263 -1.053,-0.303 -0.471,-0.057 -0.743,0.158 -0.815,0.254 -0.072,0.096 -0.08,0.272 -0.08,0.366 0,0.061 0.043,0.144 0.093,0.193 l -0.842,0.112 c 0,0 -0.113,-0.047 -0.217,-0.031 -0.104,0.016 -0.263,0.057 -0.263,0.057 0,0 -0.297,0.03 -0.344,0.038 -0.048,0.007 -0.064,0.064 -0.064,0.064 0,0 -0.423,0.008 -0.526,0.032 -0.106,0.024 -0.114,0.088 -0.114,0.088 0,0 -0.39,0.038 -0.446,0.046 -0.055,0.01 -0.048,0.194 0.024,0.194 0.071,0 0.096,0.008 0.096,0.008 0,0 0.007,0.151 0.064,0.151 0.055,0 0.216,-0.015 0.311,-0.015 0.095,0 0.017,-0.193 0.017,-0.193 l 0.893,-0.073 c 0,0 0.08,0.018 0.128,0.033 0.049,0.017 0.32,-0.041 0.32,-0.041 l 0.143,-0.015 0.672,-0.024 c 0,0 0.223,0.032 0.279,0.032 0.056,0 0.143,-0.073 0.143,-0.073 h 2.012 l 0.105,-0.087 0.432,-0.015 c 0,0 0.144,0.047 0.199,0.039 0.057,-0.008 0.177,-0.031 0.177,-0.031 l 0.422,-0.032 c 0,0 0.112,0.047 0.169,0.047 0.055,0 0.143,-0.087 0.143,-0.087 l 0.312,-0.025 c 0,0 0.168,0.057 0.303,0.049 0.134,-0.008 0.193,-0.279 0.193,-0.279 0,0 0.046,-0.026 0.118,-0.034 0.071,-0.007 0.288,-0.15 0.288,-0.15 0,0 -0.03,0.231 -0.063,0.353 -0.034,0.118 0.007,0.181 0.007,0.181 l -0.118,0.209 c 0,0 -0.122,0.031 -0.177,0.055 -0.055,0.025 -0.047,0.096 -0.047,0.096 0,0 0.255,0.487 0.368,0.696 0.11,0.207 0.294,0.653 1.219,0.55 0.929,-0.105 0.921,-0.974 0.959,-1.174 0.041,-0.2 0.041,-0.353 0.074,-0.304 0.03,0.049 0.158,0.089 0.263,0.073 0.103,-0.016 0.614,-0.495 0.75,-0.585 0.135,-0.086 0.056,-0.199 0.081,-0.23 0.023,-0.033 0.343,-0.352 0.415,-0.526 0.071,-0.177 0.015,-0.984 -0.008,-1.199 -0.026,-0.215 -0.258,-0.553 -0.274,-0.655 -0.015,-0.105 0.105,-0.393 0.105,-0.393 0,0 0.407,-0.015 0.624,-0.088 0.215,-0.071 0.064,-0.549 0.064,-0.549 0,0 -0.064,-0.335 -0.08,-0.479 -0.017,-0.145 0.08,-0.122 0.039,-0.752 -0.039,-0.63 -0.527,-0.72 -0.527,-0.72 0,0 0,-0.182 0.016,-0.335 0.017,-0.152 -0.024,-0.709 -0.024,-0.709 l -0.224,-0.033 -0.2,-0.729 0.992,0.248 c 0,0 0.414,0.051 0.583,0.105 0.166,0.057 0.272,-0.054 0.272,-0.054 0,0 0.183,-0.01 0.24,-0.066 0.056,-0.056 0.095,-0.606 0.095,-0.606 0,0 -0.113,-0.04 -0.039,-0.192 0.071,-0.153 -0.026,-0.751 -0.12,-0.927 -0.097,-0.177 -0.225,-0.177 -0.696,-0.2 -0.472,-0.023 -0.224,0.568 -0.214,0.599 0.007,0.032 0.143,0.209 0.094,0.319 -0.049,0.113 -0.11,0.051 -0.184,0.026 -0.072,-0.026 -0.192,-0.152 -0.294,-0.295 -0.105,-0.146 -0.201,-0.115 -0.201,-0.115 0,0 -0.607,-0.374 -0.935,-0.511 -0.327,-0.133 -0.902,-0.215 -1.158,0 -0.255,0.218 -0.478,2.055 -0.496,2.431 0,0 -0.015,0.006 -0.191,0.126 m -5.958,6.175 c -0.032,-0.207 0.136,-0.207 0.487,-0.264 0.314,-0.05 0.832,0.13 1.024,0.219 l -0.01,0.003 c -0.158,0.075 -0.327,0.226 -0.327,0.226 0,0 -0.926,0.105 -0.991,0.135 -0.032,0.017 -0.129,0.037 -0.214,0.054 0.037,-0.082 0.053,-0.228 0.031,-0.373 m 4.178,-1.023 c 0.056,0.064 0.105,0.304 0.105,0.304 0,0 -0.049,0.177 -0.138,0.161 -0.087,-0.018 -0.447,-0.025 -0.494,0.095 -0.048,0.12 -0.073,0.256 -0.073,0.256 l -0.566,0.086 c 0,0 0.176,-0.175 0.176,-0.248 0,-0.071 0,-0.112 0.072,-0.189 0.072,-0.082 0.215,-0.138 0.254,-0.24 0.04,-0.105 0.12,-0.384 0.12,-0.384 l 0.343,-0.191 c 0.081,0.15 0.144,0.286 0.201,0.35"
       style="fill:#000000;fill-opacity:1;fill-rule:nonzero;stroke:none"
       id="path48408-4-3-5-8" />
    <path
       d="m 151.0942,208.62972 c -0.142,0.097 -0.283,0.315 -0.358,0.433 -0.075,0.121 -0.406,0.197 -0.471,0.563 -0.067,0.368 -0.187,0.388 -0.264,0.501 -0.073,0.112 -0.462,0.769 -0.522,0.889 -0.06,0.12 -0.614,1.026 -0.614,1.026 0,0 -0.037,-0.024 -0.165,-0.203 -0.126,-0.178 -0.178,-0.515 -0.27,-0.778 -0.088,-0.261 -0.073,-0.314 -0.028,-0.35 0.044,-0.039 0.172,-0.165 0.188,-0.293 0.013,-0.126 0.058,-0.327 0.157,-0.388 0.096,-0.061 0.148,-0.248 0.254,-0.337 0.104,-0.091 0.051,-0.315 0.051,-0.405 0,-0.089 0.202,-0.329 0.262,-0.358 0.06,-0.031 0.165,-0.24 0.225,-0.277 0.06,-0.037 0.3,-0.381 0.3,-0.381 0,0 0.239,-0.256 0.327,-0.351 0.091,-0.099 0.128,-0.055 0.128,-0.055 0,0 0.083,-0.065 0.269,-0.274 0.188,-0.212 -0.075,-0.598 -0.075,-0.598 l -0.074,0.051 c 0,0 -0.084,-0.336 -0.141,-0.449 -0.061,-0.112 -0.144,-0.358 -0.374,-0.606 -0.232,-0.246 -0.569,-0.126 -0.569,-0.126 l -0.047,0.082 c 0,0 -0.103,0.015 -0.134,0.18 -0.028,0.163 0.157,0.387 0.232,0.531 0.077,0.14 -0.02,0.807 -0.015,0.88 0.008,0.077 -0.306,0.278 -0.335,0.339 -0.03,0.059 -0.227,0.283 -0.227,0.283 0,0 -0.282,0.097 -0.433,0.335 -0.149,0.24 -0.508,0.248 -0.636,0.272 -0.126,0.021 -0.305,0.185 -0.35,0.305 -0.044,0.12 -0.368,0.494 -0.569,0.74 -0.202,0.248 -0.209,0.839 -0.239,1.085 -0.031,0.248 -0.039,1.474 -0.039,1.474 l -0.126,0.044 0.09,0.622 -0.568,0.988 c 0,0 -0.099,-0.097 -0.158,-0.084 -0.061,0.016 -0.061,0.03 -0.096,0.03 -0.038,0 -0.083,-0.05 -0.127,-0.043 -0.047,0.008 -0.098,0.058 -0.136,0.058 -0.037,0 -0.096,-0.037 -0.135,-0.021 -0.035,0.016 -0.134,0.045 -0.134,0.045 0,0 -0.126,0 -0.181,0.044 -0.051,0.047 -0.065,0.135 -0.065,0.135 l -0.368,-0.171 -0.111,-0.197 -0.412,0.076 -0.283,-0.164 -0.091,0.224 0.141,0.061 c 0,0 -0.141,0.305 -0.006,0.342 0.134,0.039 0.283,-0.199 0.283,-0.199 0,0 0.652,0.259 0.63,0.304 -0.023,0.047 0.037,0.091 0.089,0.187 0.053,0.098 0.104,0.181 0.104,0.181 0,0 -0.043,0.128 -0.043,0.201 0,0.076 0.232,0.173 0.297,0.262 0.069,0.088 0.008,0.195 0.032,0.248 0.021,0.051 0.088,0.059 0.127,0.096 0.037,0.037 0.044,0.209 0.097,0.262 0.053,0.052 0.142,0.118 0.134,0.157 -0.008,0.038 -0.074,0.083 -0.059,0.156 0.014,0.077 0.111,0.345 0.134,0.487 0.022,0.143 0.037,0.368 0.016,0.486 -0.024,0.12 0.118,0.313 0.157,0.421 0.036,0.104 0.134,0.717 0.164,0.813 0.029,0.097 0.35,0.486 0.35,0.486 0,0 -0.059,0 -0.12,0.023 -0.059,0.023 -0.118,0.165 -0.164,0.277 -0.045,0.11 -0.102,0.301 -0.133,0.358 -0.032,0.061 -0.128,0.293 -0.128,0.293 0,0 -0.111,0.06 -0.134,0.149 -0.024,0.091 -0.06,0.047 -0.112,0.068 -0.052,0.023 -0.18,0.067 -0.18,0.067 0,0 0.015,0.508 0.329,1.026 0.313,0.514 0.687,0.447 1.317,0.462 0.627,0.016 0.867,-1.009 0.867,-1.009 0,0 0.111,-0.075 0.149,-0.172 0.038,-0.098 0.016,-0.246 0.016,-0.246 h 0.11 c 0.055,0 0.329,-0.047 0.434,-0.173 0.105,-0.128 0.314,-0.149 0.496,-0.232 0.179,-0.083 0.074,-0.29 0.11,-0.306 0.039,-0.015 0.157,-0.039 0.285,-0.06 0.128,-0.022 0.418,-0.27 0.57,-0.397 0.149,-0.128 0.149,-0.254 0.178,-0.314 0.031,-0.06 0.42,-0.502 0.479,-0.599 0.059,-0.096 0.396,-0.553 0.441,-0.689 0.045,-0.134 0.128,-0.291 0.225,-0.411 0.096,-0.118 0.068,-0.267 -0.068,-0.635 -0.134,-0.368 -0.134,-0.374 -0.254,-0.523 -0.12,-0.151 -0.494,-0.62 -0.494,-0.62 0,0 0.225,0.082 0.428,0.118 0.202,0.037 0.314,-0.441 0.328,-0.567 0.015,-0.128 0.24,-0.457 0.337,-0.847 0.097,-0.388 -0.225,-0.516 -0.225,-0.516 0,0 0.044,-0.165 0.044,-0.291 0,-0.128 -0.118,-0.231 -0.118,-0.231 0,0 0.022,-0.135 -0.016,-0.211 -0.036,-0.074 -0.171,-0.044 -0.171,-0.044 0,0 0.051,-0.479 0.126,-0.607 0.075,-0.128 0.307,-0.734 0.336,-0.993 0.032,-0.261 0.128,-0.509 0.324,-0.63 0.194,-0.118 0.178,-0.246 0.207,-0.418 0.031,-0.172 0.054,-0.381 0.143,-0.455 0.09,-0.076 0.12,-0.18 0.112,-0.376 -0.007,-0.194 0.045,-0.277 0.15,-0.343 0.104,-0.067 0.135,-0.388 0.151,-0.488 0.014,-0.097 0.089,-0.432 0.238,-0.56 0.15,-0.126 0.113,-0.358 0.113,-0.358 0,0 0.171,-0.307 0.224,-0.368 0.053,-0.06 0.053,-0.217 0.053,-0.276 0,-0.059 0.065,-0.239 0.065,-0.239 l -0.222,-0.233 c 0,0 -0.264,-0.209 -0.449,-0.247 -0.187,-0.035 -0.569,0.075 -0.569,0.075 l 0.03,0.083 c 0,0 -0.03,0.031 0,0.187 0.029,0.158 0.12,0.262 0.165,0.358 0.044,0.099 0.007,0.473 0.007,0.473 l -0.068,0.044 c 0,0 -0.143,0.248 -0.261,0.389 -0.12,0.142 -0.434,0.471 -0.622,0.764 0,0 -0.127,0.096 -0.269,0.193 m -4.42,5.394 -0.217,0.089 0.165,-0.313 z"
       style="fill:#000000;fill-opacity:1;fill-rule:evenodd;stroke:none"
       id="path48412-0-5-5-2" />
    <path
       d="m 139.5351,208.05832 c -0.016,0.178 -0.24,0.703 -0.264,0.773 -0.023,0.07 -0.015,0.123 -0.015,0.162 0,0.039 -0.395,0.433 -0.447,0.533 -0.054,0.101 -0.062,0.525 -0.085,0.704 -0.024,0.177 -0.156,0.315 -0.225,0.392 -0.07,0.078 -0.171,0.574 -0.171,0.649 0,0.077 -0.331,1.499 -0.378,1.53 -0.046,0.032 -0.139,0.047 -0.248,0.055 -0.108,0.008 -0.116,0.046 -0.116,0.046 v 0.147 l -0.16,0.047 c 0,0 -0.094,0.292 0.085,0.548 0.177,0.254 0.285,1.258 0.285,1.258 0,0 -0.541,0.264 -0.913,0.417 -0.37,0.156 -1.057,0.295 -1.134,0.31 -0.078,0.015 -0.433,0.393 -0.494,0.626 -0.063,0.232 -0.349,1.104 -0.357,1.297 -0.008,0.195 0.279,0.835 0.38,1.112 0.101,0.28 0.069,0.264 0.069,0.264 l -0.626,0.354 h -0.092 l -0.085,0.054 -0.124,0.101 -0.132,0.054 -0.008,0.085 -0.825,0.409 0.039,0.085 0.509,-0.256 0.023,0.055 -0.501,0.256 -0.131,0.03 -0.14,0.116 -0.171,0.086 0.101,0.137 0.086,-0.046 0.069,0.124 0.323,-0.177 -0.044,-0.139 0.802,-0.395 0.124,-0.047 0.015,-0.053 0.162,-0.069 h 0.055 l 0.091,-0.045 0.023,-0.063 1.269,-0.563 0.688,-0.341 0.168,0.154 c 0.085,0.078 0.116,0.086 0.171,0.233 0.053,0.145 0.356,0.269 0.392,0.308 0.039,0.039 0.024,0.14 -0.046,0.317 -0.068,0.177 -0.114,0.471 -0.114,0.471 0,0 -0.179,0.055 -0.224,0.108 -0.047,0.055 -0.047,0.117 -0.218,0.278 -0.168,0.163 0.094,0.38 0.179,0.496 0.084,0.114 0.147,0.431 0.24,0.587 0.092,0.153 0.431,0.291 1.081,0.23 0.648,-0.062 0.757,-0.339 0.787,-0.51 0.032,-0.17 0.171,-0.933 0.272,-1.111 0.099,-0.179 0.016,-0.155 -0.077,-0.155 -0.094,0 -0.272,0.031 -0.272,0.031 0,0 -0.023,-0.015 -0.077,-0.101 -0.054,-0.085 -0.023,-0.147 0.015,-0.17 0.039,-0.024 0.132,0.023 0.318,0.077 0.186,0.055 0.362,-0.132 0.447,-0.184 0.085,-0.054 0.241,-0.031 0.302,-0.039 0.063,-0.008 0.362,-0.279 0.378,-0.372 0.016,-0.092 0.14,-0.146 0.185,-0.209 0.045,-0.059 0.139,-0.09 0.24,-0.175 0.1,-0.086 0.077,-0.327 0.177,-0.372 0.101,-0.047 0.518,-0.75 0.658,-0.825 0.139,-0.079 0.139,-0.241 0.185,-0.419 0.047,-0.178 0.254,-0.339 0.325,-0.487 0.068,-0.147 0.037,-0.415 -0.046,-0.625 -0.087,-0.209 -0.472,-0.365 -0.604,-0.393 -0.13,-0.031 -0.447,-0.179 -0.447,-0.179 l 0.177,-0.162 -0.092,-0.194 c 0,0 0.294,0.078 0.393,0.086 0.101,0.007 0.139,-0.163 0.178,-0.301 0.039,-0.139 0.077,-0.679 0.163,-1.106 0.083,-0.424 -0.311,-0.664 -0.311,-0.664 0,0 -0.008,-0.085 0,-0.114 0.008,-0.031 -0.085,-0.187 -0.144,-0.248 -0.063,-0.063 -0.181,0.016 -0.181,0.016 0,0 0.031,-0.101 -0.045,-0.171 -0.077,-0.07 -0.348,-0.101 -0.348,-0.101 0,0 -0.023,-0.093 -0.023,-0.124 0,-0.029 -0.184,-0.308 -0.2,-0.362 -0.016,-0.054 0.092,-0.302 -0.025,-0.587 -0.115,-0.286 -0.308,-0.51 -0.339,-0.548 -0.03,-0.039 -0.093,-0.302 -0.093,-0.302 0,0 0.148,-0.248 0.085,-0.363 -0.059,-0.116 -0.044,-0.278 -0.044,-0.278 0,0 0.339,-0.301 0.515,-0.618 0.178,-0.316 0.356,-0.254 0.517,-0.331 0.165,-0.078 0.087,-0.218 0.087,-0.218 0,0 0.185,-0.092 0.332,-0.177 0.146,-0.085 0.178,-0.308 0.178,-0.308 0,0 0.062,-0.109 0.116,-0.21 0.053,-0.1 -0.217,-0.463 -0.217,-0.463 h -0.139 c 0,0 -0.016,-0.193 -0.008,-0.263 0.008,-0.07 -0.178,-0.532 -0.318,-0.695 -0.137,-0.163 -0.393,-0.17 -0.693,-0.163 -0.302,0.008 -0.118,0.002 -0.287,-0.308 -0.155,-0.286 -0.447,-0.532 -1.003,-0.532 -0.558,0 -0.123,0.501 0.129,0.863 0.256,0.364 0.055,0.496 0.039,0.781 0,0 -0.09,0.4 -0.106,0.579 m -2.311,7.832 c -0.015,0.109 0.031,0.241 0.108,0.248 0.078,0.008 0.14,-0.023 0.155,0.032 0.014,0.053 -0.092,0.378 -0.092,0.378 0,0 -0.419,-0.471 -0.504,-0.534 -0.083,-0.061 -0.439,-0.238 -0.51,-0.238 -0.067,0 -0.369,0.069 -0.431,0.215 -0.062,0.147 -0.07,0.218 -0.132,0.356 -0.062,0.14 -0.085,0.223 -0.046,0.309 0.038,0.085 0.03,0.178 0.023,0.225 -0.008,0.045 0,0.216 0.046,0.269 0.047,0.054 -0.015,0.069 -0.023,0.162 -0.008,0.093 -0.101,0.147 0.031,0.295 0.132,0.146 0.225,0.37 0.225,0.37 l -0.093,0.108 c 0,0 -0.085,0.054 -0.14,0.101 -0.054,0.046 -0.131,0.124 -0.139,0.209 -0.008,0.083 -0.008,0.277 -0.008,0.277 l -0.14,0.062 c 0,0 -0.16,-0.432 -0.191,-0.517 -0.031,-0.086 -0.163,-0.232 -0.171,-0.403 -0.007,-0.169 -0.1,-0.486 0.086,-1.018 0.186,-0.534 0.178,-0.758 0.308,-0.867 0.131,-0.106 0.364,-0.206 0.55,-0.245 0.184,-0.04 0.747,-0.148 0.949,-0.28 0.201,-0.132 0.24,-0.116 0.24,-0.116 -0.054,0.179 -0.086,0.496 -0.101,0.602 m 3.315,-7.938 c -0.008,-0.109 0.061,-0.566 0.069,-0.605 0.008,-0.039 0.185,0.209 0.217,0.287 0.031,0.075 0.083,0.194 0.098,0.261 0.016,0.072 0,0.194 0.016,0.24 0.016,0.047 -0.447,0.442 -0.447,0.442 0.023,-0.163 0.053,-0.519 0.047,-0.625"
       style="fill:#000000;fill-opacity:1;fill-rule:evenodd;stroke:none"
       id="path48416-9-9-8-9" />
    <path
       d="m 107.6851,212.72472 c -0.024,0.004 -0.043,0.025 -0.043,0.051 0,0.028 0.023,0.052 0.054,0.052 -0.002,0.019 -0.003,0.041 -0.004,0.062 -0.028,0.002 -0.05,0.022 -0.05,0.052 0,0.027 0.023,0.051 0.052,0.051 h 0.01 c 0.002,0.015 0.005,0.034 0.009,0.059 -0.018,0.01 -0.031,0.027 -0.031,0.049 0,0.027 0.021,0.048 0.046,0.054 0.001,0.015 0.004,0.033 0.007,0.05 -0.011,0.012 -0.016,0.028 -0.016,0.043 0,0.025 0.01,0.046 0.025,0.058 0.002,0.02 0.005,0.043 0.006,0.064 -0.017,0.011 -0.031,0.033 -0.031,0.054 0,0.027 0.017,0.051 0.04,0.061 v 0.014 c -0.001,0 -0.003,0.002 -0.005,0.002 -0.035,0.014 -0.062,0.055 -0.057,0.1 0.004,0.044 0.057,0.044 0.057,0.044 0,0 -0.012,0.027 -0.035,0.062 -0.022,0.036 0.019,0.101 0.019,0.101 0,0 -0.037,0.027 -0.046,0.089 -0.01,0.064 0.027,0.068 0.027,0.068 0,0 -0.073,0.036 -0.063,0.085 0.009,0.05 0.063,0.063 0.063,0.063 l -0.117,0.065 c 0,0 -0.009,-0.037 -0.022,-0.057 -0.014,-0.017 -0.163,-0.317 -0.14,-0.394 0.022,-0.078 -0.041,-0.171 -0.072,-0.235 -0.032,-0.064 -0.095,-0.467 -0.12,-0.548 -0.029,-0.081 -0.136,-0.113 -0.136,-0.113 0,0 0.057,-0.203 0.085,-0.288 0.027,-0.085 -0.031,-0.103 -0.031,-0.103 0,0 0,-0.101 0.003,-0.118 0.005,-0.017 0.023,-0.126 0.009,-0.184 -0.012,-0.058 -0.039,-0.102 -0.057,-0.201 -0.018,-0.099 -0.117,-0.006 -0.125,0.026 -0.01,0.032 -0.037,0.193 -0.015,0.28 0.023,0.085 -0.054,0.102 -0.054,0.102 0,0 -0.17,-0.179 -0.184,-0.207 -0.009,-0.017 0.031,-0.141 0.056,-0.22 0.707,-0.181 1.818,-0.457 2.196,-0.553 0.133,0.328 0.29,0.645 0.321,0.719 0.058,0.145 -0.145,0.184 -0.145,0.184 l -0.503,0.308 c 0,0 0.035,0.147 0.068,0.184 0.031,0.034 0.34,0.364 0.34,0.364 0,0 -0.278,0.12 -0.373,0.296 -0.093,0.177 0.041,0.374 0.041,0.374 0,0 0.037,0.059 0.005,0.122 -0.032,0.062 -0.306,0.205 -0.418,0.262 -0.114,0.052 -0.158,0.178 -0.387,0.313 -0.23,0.136 -0.199,0.078 -0.199,0.078 0,0 0.004,-0.025 0.004,-0.056 0,-0.031 -0.035,-0.075 -0.035,-0.075 0,0 0.068,-0.018 0.086,-0.065 0.018,-0.044 -0.018,-0.089 -0.018,-0.089 0,0 0.05,-0.05 0.059,-0.081 0.008,-0.031 -0.019,-0.086 -0.019,-0.086 0,0 0.032,-0.036 0.037,-0.081 0.004,-0.045 -0.046,-0.085 -0.046,-0.085 0,0 0.036,-0.031 0.036,-0.086 0,-0.053 -0.04,-0.067 -0.04,-0.067 0,0 0.067,-0.027 0.08,-0.067 0.015,-0.041 -0.071,-0.086 -0.071,-0.086 0,0 0.041,-0.01 0.041,-0.058 0,-0.037 -0.037,-0.074 -0.072,-0.086 v -0.012 c 0.033,-0.002 0.058,-0.03 0.058,-0.065 0,-0.033 -0.028,-0.061 -0.063,-0.061 h -0.005 c -0.001,-0.018 -0.002,-0.034 -0.004,-0.051 0.024,-0.002 0.045,-0.029 0.045,-0.064 0,-0.033 -0.022,-0.062 -0.05,-0.062 -0.003,0 -0.007,0.002 -0.01,0.002 l -0.004,-0.037 c 0.021,-0.006 0.037,-0.025 0.037,-0.05 0,-0.029 -0.023,-0.053 -0.051,-0.055 -0.004,-0.024 -0.008,-0.05 -0.011,-0.065 0.011,-0.01 0.016,-0.024 0.016,-0.039 0,-0.022 -0.01,-0.037 -0.027,-0.046 10e-4,-0.025 0.003,-0.053 0.005,-0.078 0.014,-0.01 0.022,-0.026 0.022,-0.042 0,-0.02 -0.01,-0.037 -0.026,-0.047 l -10e-4,-0.002 c -0.006,-0.014 -0.02,-0.033 -0.036,-0.053 0.02,-0.016 0.062,-0.061 0.056,-0.087 -0.01,-0.031 -0.087,-0.031 -0.087,-0.031 0,0 0.017,-0.054 0,-0.085 -0.019,-0.031 -0.09,-0.013 -0.09,-0.013 0,0 0.032,-0.082 0.005,-0.109 -0.028,-0.027 -0.104,-0.01 -0.121,0.01 -0.019,0.017 -0.077,0.089 -0.081,0.112 -0.005,0.024 -0.086,0.099 -0.055,0.116 0.032,0.02 0.145,-0.053 0.145,-0.053 0,0 -0.033,0.053 -0.04,0.077 -0.01,0.023 -0.036,0.049 0.007,0.045 0.045,-0.004 0.074,-0.022 0.104,-0.032 0.032,-0.009 0.023,0.032 0.009,0.064 -0.013,0.031 0,0.049 0.027,0.043 0.021,-0.002 0.074,-0.029 0.1,-0.041 0.009,0.012 0.018,0.023 0.024,0.035 m 1.046,-1.825 c 0,0 -0.126,-0.03 -0.161,-0.053 -0.037,-0.022 -0.465,0.005 -0.514,0.015 -0.049,0.008 -0.314,0.089 -0.318,0.116 -0.005,0.027 -0.01,0.036 -0.041,0.062 -0.032,0.029 0.022,0.149 0.022,0.149 l -1.66,0.422 -0.027,-0.048 -0.176,0.058 c 0,0 0.033,-0.099 0.004,-0.16 -0.025,-0.065 -0.116,-0.088 -0.116,-0.088 0,0 -0.14,-0.889 -0.188,-1.178 -0.05,-0.288 -0.038,-0.594 0.036,-0.679 0.072,-0.085 -0.028,-0.13 -0.028,-0.13 l -0.13,0.031 c 0,0 -0.041,0.02 -0.077,0 -0.036,-0.017 -0.095,0.058 -0.081,0.134 0.014,0.077 0.221,1.4 0.221,1.4 l -0.437,-0.963 -0.292,-0.232 -0.059,0.26 c 0,0 -0.058,0.077 0.015,0.077 0.071,0 0.174,0.058 0.174,0.058 l 0.573,1.326 c 0,0 -0.019,0.055 0.021,0.154 0.041,0.098 0.14,0.084 0.14,0.084 l 0.005,0.041 -0.159,0.049 c 0,0 -0.085,0.04 -0.121,0.085 -0.036,0.047 -0.108,0.041 -0.108,0.041 l -0.059,-0.031 c 0,0 -0.435,0.089 -0.486,0.112 -0.049,0.024 -0.075,0.101 -0.075,0.101 0,0 -0.213,0.035 -0.279,0.043 -0.068,0.01 -0.08,0.091 -0.076,0.122 0.004,0.03 0.035,0.193 0.093,0.166 0.059,-0.027 0.347,-0.109 0.347,-0.109 l 0.09,0.034 0.432,-0.076 0.701,-0.07 0.109,0.266 0.098,-0.049 c 0,0 -0.037,-0.118 -0.05,-0.166 -0.013,-0.051 0.024,-0.161 0.091,-0.194 0.012,-0.006 0.124,-0.035 0.297,-0.081 -0.026,0.129 -0.069,0.35 -0.072,0.405 -0.004,0.075 0.108,0.414 0.108,0.414 l -0.05,0.013 -0.018,0.303 c 0,0 0.023,0.124 -0.005,0.263 -0.026,0.139 0.019,0.2 0.041,0.275 0.023,0.077 -0.013,0.36 -0.013,0.36 0,0 -0.023,0.171 0.004,0.211 0.028,0.041 0.018,0.105 -0.004,0.177 -0.023,0.071 0.103,0.228 0.103,0.228 0,0 -0.026,0.085 -0.039,0.19 -0.015,0.102 0.039,0.13 0.102,0.175 0.063,0.044 0.126,0.374 0.131,0.392 0.004,0.018 -0.009,0.09 0.039,0.152 0.051,0.064 0.037,0.312 0.01,0.414 -0.027,0.103 0.05,0.202 0.05,0.202 0,0 -0.072,0.046 -0.149,0.033 -0.076,-0.014 -0.318,-0.051 -0.378,-0.061 -0.058,-0.008 -0.332,-0.021 -0.417,0.024 -0.086,0.045 -0.079,0.157 -0.069,0.197 0.009,0.041 -0.01,0.078 -0.04,0.126 -0.032,0.051 0.027,0.068 0.027,0.068 l -0.004,0.064 c 0,0 -0.073,0.066 -0.081,0.112 -0.01,0.045 -0.005,0.093 -0.09,0.13 -0.086,0.037 -0.031,0.082 -0.004,0.132 0.026,0.048 -0.02,0.116 -0.027,0.174 -0.01,0.058 -0.01,0.113 -0.01,0.113 l -0.023,0.057 -0.086,0.099 c 0,0 -0.04,0.014 -0.197,0.051 -0.158,0.035 -0.08,0.112 -0.004,0.135 0.076,0.022 0.089,0.066 0.184,0.647 0.096,0.581 0.638,0.755 1.507,0.671 0.868,-0.086 0.741,-1.008 0.746,-1.075 0.005,-0.069 0.213,-0.369 0.213,-0.369 l 0.012,0.072 0.391,-0.068 c 0,0 0.033,-0.041 0.203,-0.072 0.171,-0.032 -0.027,-0.059 -0.027,-0.059 0,0 0.418,-0.008 0.495,-0.026 0.077,-0.019 0.144,-0.037 0.325,-0.063 0.179,-0.028 0.346,-0.103 0.387,-0.132 0.039,-0.026 0.399,-0.229 0.485,-0.27 0.085,-0.039 0.197,-0.079 0.372,-0.238 0.176,-0.157 0.398,-0.228 0.398,-0.228 0,0 0.259,0.193 0.305,0.193 0.045,0 0.747,-0.343 0.747,-0.343 0,0 0.203,-0.183 0.315,-0.282 0.113,-0.099 0.053,-0.163 0.122,-0.238 0.066,-0.078 0.39,-0.37 0.376,-0.401 -0.013,-0.032 -0.328,-0.562 -0.328,-0.562 0,0 0.482,-0.653 0.531,-0.714 0.049,-0.065 0.207,-0.38 0.207,-0.38 0,0 0.028,-0.022 -0.064,-0.109 -0.089,-0.085 -0.467,-0.236 -0.467,-0.236 0,0 -0.045,-0.097 -0.053,-0.177 -0.009,-0.081 -0.095,-0.39 -0.195,-0.472 -0.098,-0.081 -0.183,-0.306 -0.219,-0.477 -0.035,-0.17 -0.118,-0.174 -0.176,-0.292 -0.059,-0.116 -0.256,-0.401 -0.387,-0.503 -0.048,-0.04 -0.094,-0.097 -0.135,-0.165 l 0.118,-0.219 0.134,-0.035 c 0,0 0.121,0.039 0.189,0.027 0.068,-0.014 0.431,-0.067 0.517,-0.081 0.085,-0.014 0.069,-0.055 0.069,-0.055 0,0 0.187,-0.026 0.251,-0.026 0.063,0 0.058,-0.072 0.058,-0.072 l 0.248,-0.037 c 0,0 -0.054,0.074 0.023,0.046 0.075,-0.027 0.333,-0.112 0.421,-0.139 0.09,-0.028 0.123,-0.109 0.172,-0.116 0.049,-0.01 0.009,-0.109 0.009,-0.109 0,0 0.113,0.018 0.212,-0.023 0.099,-0.04 0.057,-0.18 0.057,-0.18 l -0.026,-0.104 c 0,0 0.913,-0.295 1.254,-0.345 0.343,-0.051 0.541,-0.059 1.071,0.067 0.531,0.126 0.355,-0.203 0.234,-0.342 -0.121,-0.14 -0.157,-0.432 -0.225,-0.664 0,0 -0.013,-0.15 -0.098,-0.407 -0.086,-0.256 -0.189,-0.175 -0.365,0.108 -0.176,0.283 -0.332,0.248 -0.378,0.262 -0.045,0.013 -0.148,0.031 -0.121,0.098 0.027,0.068 -0.036,0.246 -0.135,0.283 -0.068,0.025 -0.258,0.087 -0.368,0.122 l -0.128,-0.459 -0.166,0.023 c 0,0 -0.017,-0.046 -0.031,-0.166 -0.013,-0.122 -0.045,-0.604 -0.076,-0.785 -0.031,-0.178 -0.302,-0.484 -0.302,-0.484 l -0.103,0.041 0.032,0.035 c 0,0 -0.162,0.067 -0.212,0.148 -0.039,0.065 -0.016,0.204 0.02,0.382 -0.04,-0.016 -0.085,-0.03 -0.132,-0.048 -0.19,-0.068 -0.226,0.018 -0.13,0.06 0.094,0.039 0.156,0.079 0.156,0.079 0,0 -0.076,-0.019 -0.193,-0.036 -0.116,-0.018 -0.192,0.017 -0.104,0.05 0.091,0.031 0.18,0.082 0.18,0.082 0,0 -0.165,-0.01 -0.252,-0.01 -0.085,0 -0.021,0.071 0.027,0.085 0.05,0.013 0.225,0.062 0.225,0.062 0,0 -0.225,-0.004 -0.291,0.009 -0.068,0.014 -0.1,0.055 -0.028,0.068 0.071,0.014 0.266,0.058 0.266,0.058 0,0 -0.135,0.023 -0.266,0.037 -0.131,0.014 -0.064,0.075 -0.004,0.081 0.058,0.004 0.219,0.045 0.219,0.045 0,0 -0.201,0.051 -0.251,0.067 -0.049,0.018 -0.103,0.077 -0.067,0.08 0.036,0.006 0.23,0.018 0.23,0.018 0,0 -0.109,0.024 -0.203,0.077 -0.095,0.057 -0.073,0.051 -0.032,0.057 0.041,0.002 0.179,0.011 0.179,0.011 0,0 -0.025,0.019 -0.107,0.054 -0.037,0.016 -0.078,0.054 -0.111,0.089 -0.041,0.006 -0.087,0.008 -0.132,0.006 -0.015,-0.002 -0.032,-0.002 -0.052,-0.002 0.01,-0.063 0.025,-0.128 0.025,-0.128 0,0 0.009,-0.087 -0.009,-0.189 -0.017,-0.105 -0.152,-0.118 -0.207,-0.099 -0.053,0.018 -0.295,0.103 -0.288,0.081 0.009,-0.023 -0.007,-0.067 -0.054,-0.067 -0.044,0 -0.201,0.061 -0.265,0.089 -0.039,0.017 -0.126,0.181 -0.187,0.307 -0.09,-0.023 -0.181,-0.042 -0.231,-0.042 -0.117,0 -0.54,-0.021 -0.639,0.013 -0.099,0.037 -0.081,-0.071 -0.118,-0.129 -0.035,-0.061 -0.039,-0.112 -0.022,-0.128 0.018,-0.012 0.105,-0.094 0.109,-0.157 0.004,-0.062 -0.023,-0.116 0.004,-0.116 0.027,0 0.022,-0.095 0.022,-0.148 0,-0.055 0.073,-0.096 0.108,-0.164 0.036,-0.066 0.018,-0.196 0.018,-0.232 0,-0.035 0.055,-0.086 0.068,-0.113 0.014,-0.027 0.067,-0.19 0.095,-0.247 0.026,-0.059 0.013,-0.162 0.013,-0.185 0,-0.023 0.099,-0.071 0.121,-0.153 0.023,-0.081 0.037,-0.248 0.077,-0.286 0.041,-0.043 0.036,-0.069 0.036,-0.069 0,0 0.041,-0.244 0.085,-0.305 0.046,-0.065 0.014,-0.223 0.014,-0.223 l 0.004,-0.242 c 0,0 -0.004,-0.079 -0.126,-0.103 -0.121,-0.021 -0.634,-0.054 -0.634,-0.054 l -0.004,0.07 c -0.032,-0.01 -0.089,-0.025 -0.185,-0.051 -0.342,-0.094 -0.873,-0.203 -1.229,-0.149 0,0 -0.035,-0.014 -0.277,0.041 -0.243,0.054 -0.261,0.183 -0.261,0.183 l 0.048,0.079 c 0,0 0.005,0.04 0.041,0.133 0.037,0.093 0.182,0.126 0.338,0.159 0.158,0.031 0.481,0.139 0.522,0.161 0.039,0.021 0.247,0.203 0.278,0.248 0.032,0.044 0.166,0.166 0.166,0.166 0,0 0,0.078 0.032,0.139 0.032,0.063 -0.036,0.086 -0.072,0.134 -0.035,0.051 -0.017,0.118 -0.027,0.159 -0.008,0.04 -0.09,0.13 -0.09,0.13 0,0 -0.077,0.071 -0.121,0.203 -0.045,0.13 -0.13,0.229 -0.171,0.283 -0.041,0.052 0.005,0.085 0.005,0.085 0,0 -0.239,0.116 -0.257,0.252 -0.018,0.136 -0.148,0.132 -0.229,0.162 -0.081,0.031 -0.131,0.12 -0.14,0.206 -0.009,0.087 -0.121,0.19 -0.144,0.221 -0.023,0.031 -0.099,0.199 -0.085,0.323 0.013,0.128 -0.108,0.177 -0.163,0.221 -0.053,0.047 -0.067,0.316 -0.079,0.438 -0.015,0.122 -0.087,0.306 -0.171,0.579 -0.019,0.056 -0.01,0.145 0.014,0.252 z m 3.652,-2.014 c 0,0 0.076,0 0.144,0.004 0.056,0.006 0.06,0.118 0.038,0.281 -0.109,0.012 -0.193,0.022 -0.208,0.022 -0.011,0 -0.04,-0.008 -0.081,-0.018 z m -1.299,-2.769 v -0.004 c 0.081,0.023 0,0.004 0,0.004"
       style="fill:#000000;fill-opacity:1;fill-rule:nonzero;stroke:none"
       id="path48424-4-7-1-9" />
    <path
       d="m 103.3078,208.69413 c -0.143,0.097 -0.284,0.315 -0.359,0.433 -0.074,0.121 -0.405,0.197 -0.471,0.563 -0.067,0.368 -0.186,0.388 -0.263,0.501 -0.074,0.112 -0.463,0.769 -0.522,0.889 -0.06,0.12 -0.614,1.026 -0.614,1.026 0,0 -0.037,-0.024 -0.165,-0.203 -0.127,-0.178 -0.179,-0.515 -0.27,-0.778 -0.088,-0.261 -0.074,-0.314 -0.028,-0.35 0.044,-0.039 0.171,-0.165 0.187,-0.293 0.014,-0.126 0.059,-0.327 0.157,-0.388 0.097,-0.061 0.149,-0.248 0.254,-0.337 0.105,-0.091 0.051,-0.315 0.051,-0.405 0,-0.089 0.203,-0.329 0.263,-0.358 0.06,-0.031 0.165,-0.24 0.224,-0.277 0.061,-0.037 0.3,-0.381 0.3,-0.381 0,0 0.24,-0.256 0.328,-0.351 0.09,-0.098 0.128,-0.055 0.128,-0.055 0,0 0.082,-0.065 0.269,-0.274 0.187,-0.212 -0.075,-0.598 -0.075,-0.598 l -0.074,0.051 c 0,0 -0.084,-0.336 -0.142,-0.449 -0.061,-0.112 -0.143,-0.358 -0.374,-0.606 -0.232,-0.246 -0.568,-0.126 -0.568,-0.126 l -0.047,0.082 c 0,0 -0.104,0.015 -0.134,0.18 -0.029,0.163 0.157,0.387 0.232,0.531 0.076,0.14 -0.021,0.807 -0.014,0.88 0.007,0.077 -0.308,0.278 -0.337,0.339 -0.03,0.059 -0.226,0.283 -0.226,0.283 0,0 -0.283,0.097 -0.433,0.335 -0.149,0.24 -0.508,0.248 -0.636,0.272 -0.127,0.021 -0.305,0.185 -0.351,0.305 -0.044,0.12 -0.367,0.494 -0.568,0.74 -0.202,0.248 -0.209,0.839 -0.239,1.085 -0.031,0.248 -0.039,1.474 -0.039,1.474 l -0.126,0.044 0.089,0.622 -0.568,0.988 c 0,0 -0.098,-0.097 -0.157,-0.084 -0.061,0.016 -0.061,0.03 -0.096,0.03 -0.038,0 -0.084,-0.05 -0.128,-0.043 -0.046,0.008 -0.098,0.058 -0.135,0.058 -0.037,0 -0.097,-0.037 -0.135,-0.021 -0.036,0.016 -0.134,0.045 -0.134,0.045 0,0 -0.127,0 -0.181,0.044 -0.051,0.047 -0.066,0.135 -0.066,0.135 l -0.367,-0.171 -0.112,-0.197 -0.411,0.077 -0.284,-0.165 -0.091,0.224 0.142,0.061 c 0,0 -0.142,0.305 -0.006,0.342 0.134,0.039 0.283,-0.199 0.283,-0.199 0,0 0.652,0.259 0.629,0.304 -0.022,0.047 0.037,0.091 0.09,0.187 0.053,0.098 0.104,0.181 0.104,0.181 0,0 -0.044,0.128 -0.044,0.201 0,0.076 0.232,0.173 0.298,0.262 0.068,0.089 0.008,0.195 0.032,0.248 0.021,0.051 0.088,0.059 0.126,0.096 0.037,0.037 0.044,0.209 0.097,0.262 0.053,0.052 0.143,0.118 0.135,0.157 -0.008,0.038 -0.075,0.083 -0.06,0.156 0.015,0.077 0.112,0.345 0.134,0.487 0.023,0.143 0.037,0.368 0.016,0.486 -0.024,0.12 0.119,0.313 0.157,0.421 0.037,0.104 0.134,0.717 0.164,0.813 0.03,0.097 0.351,0.486 0.351,0.486 0,0 -0.059,0 -0.12,0.023 -0.059,0.023 -0.119,0.165 -0.164,0.277 -0.045,0.11 -0.103,0.301 -0.134,0.358 -0.031,0.061 -0.127,0.293 -0.127,0.293 0,0 -0.112,0.06 -0.135,0.149 -0.023,0.091 -0.06,0.047 -0.112,0.068 -0.052,0.023 -0.179,0.067 -0.179,0.067 0,0 0.014,0.508 0.329,1.026 0.313,0.514 0.687,0.447 1.316,0.462 0.627,0.016 0.867,-1.009 0.867,-1.009 0,0 0.112,-0.075 0.149,-0.172 0.039,-0.098 0.016,-0.246 0.016,-0.246 h 0.111 c 0.054,0 0.329,-0.047 0.434,-0.173 0.105,-0.128 0.314,-0.149 0.495,-0.232 0.18,-0.083 0.075,-0.29 0.111,-0.306 0.038,-0.015 0.157,-0.039 0.285,-0.06 0.127,-0.022 0.418,-0.27 0.569,-0.397 0.15,-0.128 0.15,-0.254 0.179,-0.314 0.03,-0.06 0.419,-0.502 0.479,-0.599 0.059,-0.096 0.396,-0.553 0.441,-0.689 0.045,-0.134 0.127,-0.291 0.224,-0.411 0.097,-0.118 0.068,-0.267 -0.067,-0.635 -0.135,-0.368 -0.135,-0.374 -0.254,-0.523 -0.12,-0.151 -0.494,-0.62 -0.494,-0.62 0,0 0.225,0.082 0.427,0.118 0.202,0.037 0.314,-0.441 0.329,-0.567 0.015,-0.128 0.24,-0.457 0.337,-0.847 0.097,-0.388 -0.225,-0.516 -0.225,-0.516 0,0 0.044,-0.165 0.044,-0.291 0,-0.128 -0.119,-0.231 -0.119,-0.231 0,0 0.022,-0.135 -0.015,-0.211 -0.037,-0.074 -0.172,-0.044 -0.172,-0.044 0,0 0.052,-0.479 0.127,-0.607 0.075,-0.128 0.306,-0.734 0.336,-0.993 0.031,-0.261 0.128,-0.509 0.323,-0.629 0.194,-0.119 0.179,-0.247 0.208,-0.419 0.03,-0.172 0.053,-0.381 0.143,-0.455 0.09,-0.076 0.119,-0.18 0.111,-0.376 -0.007,-0.194 0.046,-0.277 0.151,-0.343 0.104,-0.067 0.135,-0.388 0.15,-0.488 0.015,-0.097 0.089,-0.432 0.239,-0.56 0.15,-0.126 0.113,-0.358 0.113,-0.358 0,0 0.17,-0.307 0.223,-0.368 0.053,-0.06 0.053,-0.217 0.053,-0.276 0,-0.059 0.066,-0.239 0.066,-0.239 l -0.223,-0.233 c 0,0 -0.263,-0.209 -0.448,-0.247 -0.188,-0.035 -0.57,0.075 -0.57,0.075 l 0.03,0.083 c 0,0 -0.03,0.031 0,0.187 0.03,0.158 0.12,0.262 0.165,0.358 0.044,0.099 0.007,0.473 0.007,0.473 l -0.067,0.044 c 0,0 -0.143,0.248 -0.262,0.389 -0.119,0.142 -0.434,0.471 -0.621,0.764 0,0 -0.127,0.096 -0.269,0.193 m -4.421,5.394 -0.216,0.089 0.165,-0.313 z"
       style="fill:#000000;fill-opacity:1;fill-rule:evenodd;stroke:none"
       id="path48428-7-7-5-6" />
    <path
       d="m 92.7394,208.12282 c -0.016,0.178 -0.24,0.703 -0.263,0.772 -0.024,0.071 -0.015,0.124 -0.015,0.163 0,0.039 -0.395,0.432 -0.448,0.533 -0.054,0.101 -0.062,0.525 -0.085,0.703 -0.024,0.178 -0.155,0.316 -0.225,0.393 -0.069,0.078 -0.17,0.574 -0.17,0.649 0,0.077 -0.332,1.499 -0.379,1.53 -0.046,0.031 -0.138,0.047 -0.247,0.055 -0.108,0.008 -0.116,0.046 -0.116,0.046 v 0.147 l -0.161,0.047 c 0,0 -0.093,0.292 0.085,0.548 0.178,0.254 0.285,1.258 0.285,1.258 0,0 -0.541,0.264 -0.912,0.417 -0.37,0.155 -1.057,0.294 -1.134,0.31 -0.078,0.015 -0.434,0.393 -0.494,0.626 -0.063,0.232 -0.349,1.104 -0.357,1.297 -0.008,0.195 0.28,0.835 0.379,1.112 0.101,0.279 0.069,0.264 0.069,0.264 l -0.626,0.354 h -0.092 l -0.084,0.054 -0.124,0.101 -0.132,0.054 -0.008,0.085 -0.826,0.409 0.039,0.085 0.509,-0.256 0.023,0.055 -0.501,0.256 -0.131,0.03 -0.14,0.116 -0.17,0.086 0.101,0.137 0.085,-0.046 0.069,0.124 0.324,-0.177 -0.045,-0.139 0.803,-0.395 0.124,-0.047 0.014,-0.053 0.162,-0.069 h 0.055 l 0.092,-0.046 0.023,-0.062 1.268,-0.563 0.688,-0.341 0.169,0.154 c 0.085,0.078 0.116,0.086 0.171,0.233 0.053,0.145 0.355,0.269 0.392,0.308 0.039,0.039 0.024,0.14 -0.045,0.317 -0.07,0.177 -0.116,0.471 -0.116,0.471 0,0 -0.178,0.055 -0.224,0.108 -0.047,0.055 -0.047,0.117 -0.217,0.278 -0.169,0.163 0.094,0.379 0.179,0.496 0.084,0.114 0.146,0.431 0.239,0.587 0.093,0.153 0.432,0.291 1.082,0.23 0.647,-0.063 0.756,-0.339 0.787,-0.51 0.031,-0.17 0.17,-0.933 0.271,-1.111 0.1,-0.179 0.016,-0.155 -0.077,-0.155 -0.093,0 -0.272,0.031 -0.272,0.031 0,0 -0.022,-0.015 -0.076,-0.101 -0.054,-0.085 -0.023,-0.147 0.014,-0.17 0.04,-0.024 0.133,0.023 0.318,0.077 0.186,0.055 0.362,-0.132 0.447,-0.184 0.085,-0.054 0.241,-0.031 0.302,-0.039 0.063,-0.008 0.362,-0.279 0.378,-0.372 0.016,-0.093 0.14,-0.147 0.186,-0.209 0.045,-0.059 0.139,-0.09 0.24,-0.176 0.1,-0.085 0.077,-0.326 0.177,-0.371 0.1,-0.047 0.518,-0.75 0.657,-0.825 0.139,-0.079 0.139,-0.241 0.185,-0.419 0.047,-0.178 0.255,-0.339 0.325,-0.487 0.068,-0.147 0.037,-0.415 -0.046,-0.625 -0.086,-0.209 -0.471,-0.365 -0.603,-0.393 -0.131,-0.031 -0.448,-0.179 -0.448,-0.179 l 0.178,-0.162 -0.092,-0.194 c 0,0 0.293,0.078 0.393,0.085 0.101,0.008 0.138,-0.162 0.177,-0.3 0.039,-0.139 0.077,-0.679 0.163,-1.106 0.084,-0.424 -0.311,-0.664 -0.311,-0.664 0,0 -0.006,-0.085 0,-0.114 0.009,-0.032 -0.084,-0.187 -0.144,-0.248 -0.063,-0.063 -0.18,0.015 -0.18,0.015 0,0 0.032,-0.1 -0.046,-0.171 -0.077,-0.069 -0.347,-0.1 -0.347,-0.1 0,0 -0.023,-0.093 -0.023,-0.124 0,-0.029 -0.185,-0.308 -0.201,-0.362 -0.015,-0.054 0.092,-0.302 -0.024,-0.587 -0.115,-0.286 -0.309,-0.51 -0.34,-0.548 -0.029,-0.039 -0.092,-0.302 -0.092,-0.302 0,0 0.148,-0.248 0.085,-0.363 -0.06,-0.116 -0.045,-0.278 -0.045,-0.278 0,0 0.339,-0.301 0.516,-0.618 0.179,-0.316 0.356,-0.254 0.517,-0.331 0.164,-0.078 0.086,-0.218 0.086,-0.218 0,0 0.186,-0.093 0.332,-0.177 0.147,-0.085 0.178,-0.308 0.178,-0.308 0,0 0.062,-0.109 0.116,-0.21 0.054,-0.1 -0.217,-0.463 -0.217,-0.463 h -0.139 c 0,0 -0.016,-0.193 -0.007,-0.263 0.007,-0.07 -0.178,-0.532 -0.317,-0.695 -0.139,-0.163 -0.394,-0.17 -0.695,-0.163 -0.302,0.008 -0.118,0.002 -0.287,-0.308 -0.154,-0.286 -0.447,-0.532 -1.002,-0.532 -0.558,0 -0.123,0.501 0.129,0.863 0.255,0.364 0.055,0.496 0.039,0.781 0,0 -0.091,0.4 -0.107,0.579 m -2.311,7.832 c -0.015,0.109 0.031,0.241 0.109,0.248 0.077,0.008 0.139,-0.023 0.155,0.032 0.014,0.053 -0.093,0.377 -0.093,0.377 0,0 -0.418,-0.47 -0.503,-0.533 -0.084,-0.061 -0.439,-0.238 -0.509,-0.238 -0.069,0 -0.371,0.069 -0.433,0.215 -0.062,0.147 -0.07,0.217 -0.131,0.356 -0.061,0.14 -0.085,0.223 -0.046,0.309 0.038,0.085 0.03,0.178 0.023,0.224 -0.008,0.046 0,0.217 0.046,0.27 0.046,0.054 -0.015,0.069 -0.023,0.162 -0.008,0.093 -0.101,0.147 0.03,0.295 0.132,0.146 0.225,0.37 0.225,0.37 l -0.093,0.108 c 0,0 -0.085,0.054 -0.139,0.101 -0.054,0.046 -0.131,0.124 -0.139,0.209 -0.008,0.083 -0.008,0.277 -0.008,0.277 l -0.14,0.062 c 0,0 -0.161,-0.432 -0.192,-0.517 -0.031,-0.086 -0.163,-0.232 -0.17,-0.403 -0.007,-0.169 -0.1,-0.486 0.085,-1.019 0.186,-0.533 0.178,-0.757 0.309,-0.866 0.131,-0.106 0.363,-0.207 0.549,-0.246 0.185,-0.039 0.748,-0.147 0.95,-0.279 0.2,-0.132 0.241,-0.116 0.241,-0.116 -0.056,0.179 -0.087,0.496 -0.103,0.602 m 3.315,-7.939 c -0.007,-0.108 0.061,-0.565 0.07,-0.604 0.007,-0.039 0.185,0.209 0.216,0.287 0.031,0.075 0.084,0.193 0.099,0.261 0.016,0.072 0,0.194 0.016,0.24 0.016,0.047 -0.448,0.442 -0.448,0.442 0.024,-0.163 0.055,-0.519 0.047,-0.626"
       style="fill:#000000;fill-opacity:1;fill-rule:evenodd;stroke:none"
       id="path48432-4-4-9-5" />
    <path
       d="m 87.2659,207.29382 c -0.073,-0.236 -0.193,-0.471 -0.268,-0.544 -0.073,-0.076 -0.373,-0.38 -0.383,-0.444 -0.009,-0.065 -0.023,-0.16 0.088,-0.254 0.11,-0.093 0.222,-0.116 0.356,-0.148 0.134,-0.032 0.668,0.055 0.77,0.156 0.101,0.102 0.244,0.37 0.282,0.434 0.037,0.066 0.033,-0.007 0.033,-0.007 l 0.224,0.147 c 0,0 0.042,0.227 0.014,0.266 -0.027,0.043 0.012,0.144 -0.014,0.223 -0.021,0.078 -0.133,0.181 -0.137,0.244 -0.004,0.067 0.009,0.12 -0.01,0.175 -0.018,0.056 -0.087,0.093 -0.11,0.112 -0.024,0.018 -0.028,0.188 -0.065,0.248 -0.036,0.062 -0.009,0.046 0.061,0.089 0.069,0.041 0.197,0.203 0.197,0.203 0,0 -0.16,0.008 -0.211,-0.006 -0.053,-0.012 -0.112,-0.049 -0.112,-0.049 l -0.068,0.033 c 0,0 -0.033,0.13 -0.116,0.187 -0.084,0.061 -0.124,0.236 -0.124,0.236 l 0.077,0.083 -0.137,0.154 -0.053,-0.026 -0.067,0.107 -0.08,-0.004 c 0,0 0.014,0.555 -0.027,0.684 -0.043,0.128 -0.23,0.308 -0.244,0.327 -0.016,0.018 -0.02,0.203 -0.075,0.231 -0.055,0.027 -0.142,0.083 -0.142,0.083 0,0 -0.066,0.24 -0.037,0.467 0.027,0.224 -0.153,1.116 -0.179,1.226 -0.03,0.112 0.026,0.323 0.049,0.474 0.024,0.154 0.004,0.888 0.004,0.888 l 0.246,0.162 c 0,0 -0.49,1.301 -0.559,1.515 -0.071,0.211 -0.124,0.487 -0.124,0.487 0,0 0.281,0.555 0.286,0.679 0.004,0.126 -0.009,0.282 0.078,0.389 0.087,0.105 0.258,0.696 0.156,1.052 -0.1,0.355 -0.346,1.052 -0.475,1.174 -0.128,0.118 -0.216,0.174 -0.276,0.394 -0.06,0.222 -0.106,0.402 -0.323,0.494 -0.218,0.093 -0.378,0.084 -0.421,0.14 -0.041,0.055 -0.116,0.097 -0.179,0.097 -0.065,0 -0.199,-0.042 -0.244,0 -0.047,0.041 -0.075,0.087 -0.057,0.17 0.02,0.083 0.033,0.124 0.033,0.124 l 0.465,-0.009 c 0,0 -0.161,0.36 -0.188,0.449 -0.027,0.087 0.194,1.042 -0.467,1.262 -0.66,0.224 -1.292,0.167 -1.491,-0.23 -0.197,-0.397 -0.193,-0.802 -0.434,-0.835 -0.24,-0.032 0.194,-0.133 0.194,-0.133 0,0 0,-0.084 0.043,-0.093 0.04,-0.008 0.087,-0.041 0.036,-0.153 -0.05,-0.11 -0.18,-0.281 -0.073,-0.314 0.106,-0.03 0.124,-0.044 0.124,-0.044 l 0.019,-0.07 c 0,0 -0.016,-0.042 0.004,-0.06 0.02,-0.018 0.079,-0.051 0.079,-0.051 l 0.018,-0.089 c 0,0 -0.061,-0.031 -0.051,-0.054 0.01,-0.023 0.068,-0.074 0.041,-0.116 -0.027,-0.04 -0.067,-0.161 -0.024,-0.204 0.047,-0.041 0.25,-0.1 0.25,-0.1 0,0 -0.22,-0.14 -0.327,-0.24 -0.106,-0.103 -0.19,-0.244 -0.281,-0.331 -0.093,-0.09 -0.199,-0.2 -0.153,-0.283 0.047,-0.083 0.06,-0.107 -0.005,-0.142 -0.064,-0.038 -0.299,-0.306 -0.328,-0.366 -0.027,-0.06 -0.225,-0.211 -0.331,-0.261 -0.107,-0.053 -0.209,-0.072 -0.209,-0.072 l -0.395,0.019 c 0,0 -0.06,0.078 -0.121,0.093 -0.059,0.014 -0.305,0.018 -0.305,0.018 l -0.069,-0.111 -0.596,-0.009 c 0,0 -0.101,0.056 -0.144,0.043 -0.04,-0.016 -0.164,-0.016 -0.164,-0.016 l -0.43,-0.021 -0.184,0.009 c 0,0 -0.075,0.035 -0.218,0.032 -0.143,-0.004 -0.31,0 -0.35,-0.028 -0.043,-0.029 -0.149,-0.033 -0.149,-0.033 l -0.912,0.023 0.004,0.053 c 0,0 -0.293,0.011 -0.338,0.114 -0.046,0.101 -0.046,0.157 -0.046,0.157 h -0.153 l -0.024,-0.26 h -0.128 v -0.211 l 0.384,-0.036 0.258,-0.232 0.037,0.128 c 0,0 0.063,0.024 0.147,0.02 0.083,-0.006 0.786,-0.079 0.786,-0.079 l 0.045,0.079 c 0,0 0.032,-0.036 0.116,-0.056 0.083,-0.017 0.411,-0.037 0.508,-0.05 0.097,-0.014 0.114,-0.066 0.114,-0.113 v -0.183 c 0,0 -0.179,-0.065 -0.179,-0.12 0,-0.055 0.055,-0.124 0.045,-0.156 -0.006,-0.033 -0.012,-0.116 -0.006,-0.143 0.003,-0.029 0.04,-0.073 0.036,-0.116 -0.006,-0.043 0.004,-0.097 0.031,-0.134 0.029,-0.036 0.023,-0.069 0.023,-0.12 0,-0.05 -0.027,-0.056 0.033,-0.093 0.06,-0.037 0.064,-0.063 0.064,-0.063 v -0.809 l 0.407,-0.014 -0.006,0.795 c 0,0 0.103,-0.015 0.209,0 0.105,0.014 0.211,0.04 0.211,0.04 0,0 0.079,-0.27 0.233,-0.27 0.151,0 0.498,0.258 0.498,0.258 0,0 0.005,0.092 0.216,0.036 0.213,-0.054 0.337,-0.13 0.434,-0.134 0.097,-0.006 0.527,0.179 0.618,0.045 0.093,-0.134 0.246,-0.077 0.246,-0.077 0,0 -0.25,-0.725 -0.254,-0.835 -0.006,-0.112 0.051,-0.334 0.051,-0.334 0,0 -0.323,-0.558 -0.37,-0.747 -0.047,-0.19 -0.041,-0.19 -0.083,-0.254 -0.041,-0.064 -0.078,-0.193 -0.144,-0.295 -0.064,-0.102 -0.064,-0.156 -0.064,-0.156 l 0.111,-0.076 c 0,0 -0.582,-1.3 -0.637,-1.456 -0.055,-0.159 -0.438,-0.596 -0.392,-1.021 0.047,-0.424 0.051,-0.827 0.061,-0.883 0.009,-0.054 0.057,-0.145 0.026,-0.218 -0.032,-0.067 -0.11,-0.206 0.006,-0.287 0.114,-0.084 0.141,-0.073 0.141,-0.146 0,-0.071 0.039,-0.142 0.093,-0.187 0.055,-0.047 0.111,-0.467 0.111,-0.467 l 0.089,-0.421 c 0,0 -0.039,-0.067 -0.07,-0.12 -0.032,-0.051 -0.019,-0.101 -0.019,-0.101 0,0 -0.037,-0.096 -0.111,-0.143 -0.073,-0.046 -0.244,-0.272 -0.244,-0.272 0,0 -0.199,-0.171 -0.286,-0.195 -0.087,-0.023 -0.431,-0.171 -0.431,-0.171 0,0 -0.354,-0.069 -0.382,-0.183 -0.028,-0.116 -0.004,-0.223 -0.004,-0.223 l -0.033,-0.083 c 0,0 0.366,-0.109 0.527,-0.124 0.16,-0.014 1.01,0.263 1.134,0.29 0.126,0.029 0.171,0.043 0.237,0.033 0.064,-0.009 0.083,-0.106 0.083,-0.106 0,0 0.458,0.029 0.568,0.055 0.11,0.028 0.114,0.115 0.114,0.115 l -0.014,0.171 -0.037,0.043 c 0,0 0.158,0.252 0.13,0.419 -0.027,0.167 -0.1,0.351 -0.1,0.351 0,0 0.007,0.264 -0.014,0.333 -0.025,0.068 0.008,0.141 0.008,0.198 0,0.056 -0.065,0.213 -0.074,0.263 -0.009,0.05 0.037,0.297 0.037,0.297 0,0 0.244,0.34 0.216,0.435 -0.026,0.099 0.098,0.366 0.065,0.433 -0.031,0.063 -0.078,0.234 -0.097,0.313 -0.017,0.077 -0.013,0.134 0.028,0.224 0.042,0.093 0.042,0.213 0.024,0.33 -0.02,0.114 -0.006,0.137 0.215,0.228 0.222,0.094 0.75,0.63 0.836,0.781 0.088,0.153 0.371,0.656 0.532,0.302 0.163,-0.357 0.65,-1.584 0.73,-1.714 0.077,-0.13 0.561,-1.047 0.608,-1.135 0.046,-0.087 0.366,-0.286 0.406,-0.351 0.041,-0.063 0.199,-0.5 0.337,-0.526 0.138,-0.027 0.351,0 0.415,-0.084 0.066,-0.083 0.357,-0.377 0.374,-0.41 0.02,-0.033 0.069,-0.13 0.06,-0.189 -0.008,-0.061 0.08,-0.083 0.116,-0.092 0.037,-0.01 0.037,-0.217 0.037,-0.217"
       style="fill:#000000;fill-opacity:1;fill-rule:evenodd;stroke:none"
       id="path48436-1-5-7-9" />
    <path
       d="m 75.3293,208.64725 c -0.177,0.12 -0.087,0.48 -0.079,0.616 0.008,0.136 -0.216,0.105 -0.336,0.095 -0.12,-0.008 -0.304,-0.047 -0.432,0.049 -0.127,0.094 -0.726,0.079 -0.726,0.079 0,0 -0.008,-0.136 -0.063,-0.169 -0.057,-0.03 -0.097,-0.062 -0.057,-0.166 0.041,-0.105 -0.031,-0.264 -0.063,-0.335 -0.032,-0.072 -0.049,-0.098 -0.024,-0.169 0.024,-0.071 -0.161,-0.207 -0.311,-0.248 -0.154,-0.039 -0.065,-0.599 -0.024,-0.798 0.038,-0.2 -0.177,-0.488 -0.177,-0.488 0,0 0.057,-0.175 0.081,-0.23 0.024,-0.057 0.014,-0.528 0.055,-0.688 0.041,-0.159 -0.041,-0.167 -0.041,-0.167 0,0 -0.038,-0.183 -0.11,-0.209 -0.073,-0.023 -0.608,0.026 -0.608,0.026 l -0.007,0.142 c 0,0 -0.4,-0.087 -0.744,-0.168 -0.343,-0.08 -1.069,0.018 -1.262,0.05 -0.192,0.031 -0.248,0.078 -0.248,0.078 l 0.056,0.056 c 0,0 -0.103,0.24 -0.023,0.312 0.08,0.072 0.798,0.121 0.967,0.128 0.167,0.007 0.23,0.113 0.31,0.151 0.082,0.041 0.568,0.529 0.568,0.529 0,0 -0.057,0.095 -0.088,0.143 -0.03,0.048 -0.015,0.12 0.023,0.192 0.041,0.071 -0.007,0.327 -0.023,0.368 -0.015,0.039 -0.015,0.174 0.008,0.319 0.023,0.144 0,0.494 0,0.494 0,0 -0.079,0.144 -0.168,0.24 -0.087,0.097 -0.072,0.304 -0.008,0.408 0.063,0.104 -0.031,0.408 -0.031,0.518 0,0.112 0.159,0.56 0.169,0.632 0.006,0.071 0.006,0.383 0.126,0.744 0.12,0.358 0.63,0.366 0.886,0.421 0.256,0.057 0.065,0.16 -0.087,0.327 -0.153,0.169 -0.424,0.593 -0.472,0.689 -0.049,0.095 0.025,0.278 -0.185,0.398 -0.207,0.12 -0.191,0.264 -0.158,0.343 0.032,0.082 0.23,0.305 0.15,0.488 -0.079,0.185 -0.183,0.32 -0.183,0.32 0,0 -0.392,0.207 -0.494,0.32 -0.075,0.079 -0.28,0.161 -0.449,0.224 -0.217,-0.085 -0.698,-0.263 -1.053,-0.303 -0.471,-0.057 -0.743,0.158 -0.815,0.254 -0.072,0.096 -0.08,0.272 -0.08,0.366 0,0.061 0.043,0.144 0.093,0.193 l -0.842,0.112 c 0,0 -0.113,-0.047 -0.217,-0.031 -0.104,0.016 -0.263,0.057 -0.263,0.057 0,0 -0.297,0.03 -0.344,0.038 -0.048,0.007 -0.064,0.064 -0.064,0.064 0,0 -0.423,0.008 -0.526,0.032 -0.106,0.024 -0.114,0.088 -0.114,0.088 0,0 -0.39,0.038 -0.446,0.046 -0.055,0.01 -0.048,0.194 0.024,0.194 0.071,0 0.096,0.008 0.096,0.008 0,0 0.007,0.151 0.064,0.151 0.055,0 0.216,-0.015 0.311,-0.015 0.095,0 0.017,-0.193 0.017,-0.193 l 0.893,-0.073 c 0,0 0.08,0.018 0.128,0.033 0.049,0.017 0.32,-0.041 0.32,-0.041 l 0.143,-0.015 0.672,-0.024 c 0,0 0.223,0.032 0.279,0.032 0.056,0 0.143,-0.073 0.143,-0.073 h 2.012 l 0.105,-0.087 0.432,-0.015 c 0,0 0.144,0.047 0.199,0.039 0.057,-0.008 0.177,-0.031 0.177,-0.031 l 0.422,-0.032 c 0,0 0.112,0.047 0.169,0.047 0.055,0 0.143,-0.087 0.143,-0.087 l 0.312,-0.025 c 0,0 0.168,0.057 0.303,0.049 0.134,-0.008 0.193,-0.279 0.193,-0.279 0,0 0.046,-0.026 0.118,-0.034 0.071,-0.007 0.288,-0.15 0.288,-0.15 0,0 -0.03,0.231 -0.063,0.353 -0.034,0.118 0.007,0.181 0.007,0.181 l -0.118,0.209 c 0,0 -0.122,0.031 -0.177,0.055 -0.055,0.025 -0.047,0.096 -0.047,0.096 0,0 0.255,0.487 0.368,0.696 0.11,0.207 0.294,0.653 1.219,0.55 0.929,-0.105 0.921,-0.974 0.959,-1.174 0.041,-0.2 0.041,-0.353 0.074,-0.304 0.03,0.049 0.158,0.089 0.263,0.073 0.103,-0.016 0.614,-0.495 0.75,-0.585 0.135,-0.086 0.056,-0.199 0.081,-0.23 0.023,-0.033 0.343,-0.352 0.415,-0.526 0.071,-0.177 0.015,-0.984 -0.008,-1.199 -0.026,-0.215 -0.258,-0.553 -0.274,-0.655 -0.015,-0.105 0.105,-0.393 0.105,-0.393 0,0 0.407,-0.015 0.624,-0.088 0.215,-0.071 0.064,-0.549 0.064,-0.549 0,0 -0.064,-0.335 -0.08,-0.479 -0.017,-0.145 0.08,-0.122 0.039,-0.752 -0.039,-0.63 -0.527,-0.72 -0.527,-0.72 0,0 0,-0.182 0.016,-0.335 0.017,-0.152 -0.024,-0.709 -0.024,-0.709 l -0.224,-0.033 -0.2,-0.729 0.992,0.248 c 0,0 0.414,0.051 0.583,0.105 0.166,0.057 0.272,-0.054 0.272,-0.054 0,0 0.183,-0.01 0.24,-0.066 0.056,-0.056 0.095,-0.606 0.095,-0.606 0,0 -0.113,-0.04 -0.039,-0.192 0.071,-0.153 -0.026,-0.751 -0.12,-0.927 -0.097,-0.177 -0.225,-0.177 -0.696,-0.2 -0.472,-0.023 -0.224,0.568 -0.214,0.599 0.007,0.032 0.143,0.209 0.094,0.319 -0.049,0.113 -0.11,0.051 -0.184,0.026 -0.072,-0.026 -0.192,-0.152 -0.294,-0.295 -0.105,-0.146 -0.201,-0.115 -0.201,-0.115 0,0 -0.607,-0.374 -0.935,-0.511 -0.327,-0.133 -0.902,-0.215 -1.158,0 -0.255,0.218 -0.478,2.055 -0.496,2.431 0,0 -0.015,0.006 -0.191,0.126 m -5.958,6.175 c -0.032,-0.207 0.136,-0.207 0.487,-0.264 0.314,-0.05 0.832,0.13 1.024,0.219 l -0.01,0.003 c -0.158,0.075 -0.327,0.226 -0.327,0.226 0,0 -0.926,0.105 -0.991,0.135 -0.032,0.017 -0.129,0.037 -0.214,0.054 0.037,-0.082 0.053,-0.228 0.031,-0.373 m 4.178,-1.023 c 0.056,0.064 0.105,0.304 0.105,0.304 0,0 -0.049,0.177 -0.138,0.161 -0.087,-0.018 -0.447,-0.025 -0.494,0.095 -0.048,0.12 -0.073,0.256 -0.073,0.256 l -0.566,0.086 c 0,0 0.176,-0.175 0.176,-0.248 0,-0.071 0,-0.112 0.072,-0.189 0.072,-0.082 0.215,-0.138 0.254,-0.24 0.04,-0.105 0.12,-0.384 0.12,-0.384 l 0.343,-0.191 c 0.081,0.15 0.144,0.286 0.201,0.35"
       style="fill:#000000;fill-opacity:1;fill-rule:nonzero;stroke:none"
       id="path48408-4-3-5-8-0" />
  </g>
</svg>
