<?xml version="1.0" encoding="UTF-8" standalone="no"?>
<!-- Created with Inkscape (http://www.inkscape.org/) -->

<svg
   width="51.480865mm"
   height="6.1086211mm"
   viewBox="0 0 51.480865 6.1086211"
   version="1.1"
   id="svg1"
   sodipodi:docname="inkporter-svg-xxwfd0el.svg"
   xmlns:inkscape="http://www.inkscape.org/namespaces/inkscape"
   xmlns:sodipodi="http://sodipodi.sourceforge.net/DTD/sodipodi-0.dtd"
   xmlns="http://www.w3.org/2000/svg"
   xmlns:svg="http://www.w3.org/2000/svg">
  <sodipodi:namedview
     id="namedview1"
     pagecolor="#ffffff"
     bordercolor="#666666"
     borderopacity="1.0"
     inkscape:showpageshadow="2"
     inkscape:pageopacity="0.0"
     inkscape:pagecheckerboard="0"
     inkscape:deskcolor="#d1d1d1"
     inkscape:document-units="mm"
     inkscape:zoom="1.6641134"
     inkscape:cx="396.90806"
     inkscape:cy="561.25984"
     inkscape:window-width="3840"
     inkscape:window-height="2081"
     inkscape:window-x="2391"
     inkscape:window-y="-9"
     inkscape:window-maximized="1"
     inkscape:current-layer="layer1" />
  <defs
     id="defs1" />
  <g
     inkscape:label="Layer 1"
     inkscape:groupmode="layer"
     id="layer1"
     transform="translate(-137.58333,-76.729167)">
    <g
       id="G-Infantry-MG5-4-Pfx3"
       transform="translate(70.133552,65.76042)">
      <g
         id="g26002-7-1"
         transform="translate(122.19098,-25.305739)">
        <g
           id="g4552-3-9"
           transform="matrix(0.11531985,0,0,0.11531985,-73.756113,43.644038)">
          <path
             style="fill:#000000;stroke-width:0.264583"
             d="m 448.5629,-12.917757 c -0.35707,-0.357071 -0.15956,-1.250937 0.45423,-2.055657 0.54912,-0.719936 0.66621,-1.287351 0.906,-4.390599 0.15146,-1.960097 0.25464,-4.561528 0.22928,-5.78096 -0.0385,-1.853322 0.0297,-2.265466 0.416,-2.511611 0.34054,-0.217003 0.58924,-0.215069 0.94539,0.0074 0.39205,0.24484 0.54207,0.20769 0.79466,-0.196779 0.17126,-0.274227 0.31138,-0.774054 0.31138,-1.110726 0,-0.336672 0.10461,-0.725241 0.23246,-0.863486 0.12785,-0.138245 0.36373,-1.084792 0.52416,-2.103438 0.16044,-1.018645 0.41191,-2.430912 0.55882,-3.138371 0.22014,-1.060101 0.19004,-1.416746 -0.17115,-2.028195 -0.40368,-0.683384 -0.40481,-0.810961 -0.0143,-1.617255 0.30728,-0.634479 0.34583,-0.969463 0.14006,-1.21739 -0.17916,-0.215877 -0.22029,-0.9626 -0.11151,-2.024357 0.16688,-1.628828 0.1491,-1.697442 -0.55923,-2.158246 -1.44686,-0.941253 -3.5031,-2.906528 -3.50638,-3.351251 -0.006,-0.768504 1.54358,-2.265472 2.85327,-2.75702 0.68444,-0.256882 1.79339,-0.800392 2.46433,-1.207799 0.67093,-0.40741 1.29601,-0.740744 1.38906,-0.740744 0.093,0 0.40564,-0.236472 0.69467,-0.525494 0.45437,-0.454372 0.74543,-0.502505 2.15057,-0.35564 1.50472,0.157275 1.66132,0.122713 2.11445,-0.466693 0.52516,-0.683085 0.67125,-2.219979 0.23657,-2.488631 -0.14553,-0.08994 -0.26459,-0.550938 -0.26459,-1.024447 0,-1.487912 2.28127,-3.041068 4.828,-3.287052 l 1.25612,-0.121326 -0.062,1.29037 c -0.0525,1.09415 0.007,1.278653 0.39454,1.213314 0.25107,-0.04238 0.70365,0.05522 1.00573,0.21689 0.69437,0.371612 0.30236,0.939244 -0.81868,1.185466 -0.66225,0.145455 -0.76297,0.284451 -0.73131,1.009195 0.0202,0.462278 -0.0427,1.048866 -0.13973,1.303527 -0.0971,0.254662 -0.23658,0.652919 -0.31008,0.885015 -0.0735,0.232097 -0.37115,0.484109 -0.66145,0.560026 -0.77845,0.203568 -0.6421,0.831855 0.29197,1.34539 2.00514,1.102389 2.29646,1.675037 2.76425,5.433713 0.0875,0.703357 0.32896,1.760123 0.53651,2.348368 0.5085,1.441241 0.46183,3.486621 -0.11783,5.1644 l -0.47791,1.383268 2.40477,2.473217 c 2.6716,2.747634 6.57905,6.193785 7.49724,6.612141 0.32785,0.149373 0.59608,0.479457 0.59608,0.733518 0,0.697486 -1.04124,0.356354 -1.95311,-0.639879 -0.41937,-0.458166 -0.66679,-0.654437 -0.54983,-0.436155 0.20569,0.383884 -0.86626,-0.384712 -1.23081,-0.882494 -0.089,-0.121571 -0.26762,-0.214085 -0.39687,-0.205589 -0.12925,0.0085 -0.81792,-0.48735 -1.53037,-1.101881 -0.71245,-0.61453 -1.44073,-1.203664 -1.6184,-1.309188 -0.35697,-0.212016 -3.30394,0.330004 -3.30394,0.607674 0,0.09585 0.22081,0.458229 0.49069,0.805275 0.60742,0.7811 1.04927,2.194737 1.05748,3.383275 0.003,0.495109 0.13277,0.978405 0.28743,1.073989 0.27504,0.169987 0.56538,3.510412 0.64036,7.367521 0.0422,2.173801 0.30529,2.531549 2.47259,3.362891 1.29318,0.496046 1.73575,1.345557 0.98643,1.89347 -0.6975,0.510027 -1.50541,0.434903 -3.34002,-0.310568 -0.89532,-0.363802 -2.00129,-0.661458 -2.45772,-0.661458 -0.45642,0 -1.04183,-0.155007 -1.30092,-0.344456 -0.42551,-0.31114 -0.44068,-0.498978 -0.15679,-1.941944 0.25879,-1.315418 0.24232,-1.967042 -0.0933,-3.69044 -0.22417,-1.151123 -0.48439,-2.598343 -0.57827,-3.216045 -0.0939,-0.617702 -0.27938,-1.190276 -0.41224,-1.272387 -0.13286,-0.08211 -0.24156,-0.380391 -0.24156,-0.662844 0,-0.368692 -0.18297,-0.513551 -0.64864,-0.513551 -0.51383,0 -0.90854,-0.398674 -1.89915,-1.918229 -1.15081,-1.76529 -1.26353,-1.865493 -1.41381,-1.256771 -0.25394,1.028591 -0.91945,0.826415 -1.01396,-0.308031 -0.14905,-1.789202 -0.69129,-1.394357 -2.33164,1.697842 -0.85599,1.613614 -1.73494,3.018139 -1.95322,3.121163 -0.21828,0.103026 -0.83232,0.373168 -1.36453,0.600318 -0.73409,0.313314 -1.01235,0.616498 -1.15283,1.256099 -0.10185,0.463703 -0.58746,2.048473 -1.07913,3.521707 -0.49168,1.473235 -0.89564,3.009768 -0.89769,3.414517 -0.002,0.404752 -0.1778,0.802703 -0.39054,0.884341 -0.21274,0.08163 -0.46495,0.40532 -0.56046,0.719299 -0.30941,1.017113 -0.93766,1.496912 -1.96006,1.496912 -0.53528,0 -1.05261,-0.07937 -1.14962,-0.17639 z"
             id="path3698-2-7-33" />
          <path
             style="fill:#000000;stroke-width:0.0572711"
             d="m 456.75448,-41.962302 c 0.7723,0.214114 1.78995,0.455046 2.24589,0.962427 1.15429,-0.99237 2.05531,1.03219 2.98536,1.530822 0.92731,0.456659 1.60409,1.118576 1.83453,2.015268 0.66021,0.384758 1.33079,0.945354 0.1775,1.17102 -1.11173,-0.01399 -1.92627,1.30398 -0.63099,1.748774 0.77825,-0.414818 2.02331,-1.09145 2.55341,-0.0086 0.76978,1.123848 1.82494,-1.267013 2.16674,-0.06925 -0.30164,0.210152 -0.75311,-0.511312 -0.87576,0.371691 -0.83547,0.966895 0.0293,2.500412 1.20212,2.678488 1.02931,0.666468 2.41521,0.98872 3.03157,-0.391343 0.46647,-0.412603 1.00551,0.959318 1.61394,1.042321 1.57747,1.078685 3.05086,2.30647 4.57845,3.460891 0.59341,0.584681 2.01155,1.370674 1.94581,1.867548 -0.79152,0.819436 -2.18669,0.660214 -3.24773,0.957295 -0.97279,0.314625 -2.16686,0.53631 -2.90393,-0.06459 0.4303,0.409312 -0.66641,1.348044 0.38169,0.974585 1.15936,0.05898 2.31612,-0.202592 3.46484,-0.418091 0.45729,-0.13448 2.1242,-0.380844 0.83088,0.02987 -0.94075,0.0928 -0.19263,1.003783 0.12703,0.653491 -0.54418,0.528013 -0.96435,1.636051 -1.73414,1.111141 -0.43614,0.453171 0.62894,0.784037 -0.22182,1.200863 -0.69504,0.948465 -2.13543,2.299103 -1.95666,3.29591 1.25921,1.253989 0.67525,-1.280322 1.56872,-1.72805 1.28171,-1.557809 2.59122,-3.092575 3.94133,-4.587301 0.49279,-0.109965 0.88401,-0.391093 0.7087,-0.919332 1.06679,0.316839 1.63949,1.559286 2.71316,1.637133 0.73644,1.175279 1.56852,-0.571791 0.29921,-0.760201 0.003,-0.836415 -1.21987,-1.136886 -1.58995,-1.859093 -0.53663,-0.342451 1.13813,-0.927576 0.043,-1.090194 -0.70226,1.40721 -1.97007,-0.502115 -2.67994,-0.967068 -1.59036,-1.202266 -3.18057,-2.437312 -4.54822,-3.894377 0.47346,-1.071585 -1.71124,-1.437152 -1.29335,-2.38406 -0.18437,-0.781012 -0.78549,1.11275 -1.27297,0.08572 -0.52538,-1.129068 -1.6923,-1.709005 -2.62141,-2.504092 -1.03466,-0.847633 -2.15007,-1.524036 -3.2883,-2.215061 -0.48199,-0.533227 -1.83328,-0.715371 -1.69119,-1.568012 -0.31897,-0.71571 -0.76144,0.60158 -1.19167,-0.346095 -0.89162,-0.844387 -2.08996,-1.34751 -2.74417,-2.434192 -0.68964,-0.752989 -1.18705,-2.530849 -2.27818,-2.433411 0.26199,1.213121 -0.44027,2.348716 -1.49867,2.991592 -0.3343,0.218972 -0.82573,0.690376 -0.1449,0.85553 z"
             id="path2495-0-8-8"
             sodipodi:nodetypes="ssssssssssscssscsssssssssssssssssscsssssss" />
        </g>
        <path
           style="fill:#000000;stroke-width:0.0394053"
           d="m -31.5018,42.208735 c -0.01281,-0.03601 -0.04284,-0.112528 -0.06665,-0.170046 l -0.04338,-0.104573 0.04726,-0.0936 c 0.06485,-0.128577 0.05924,-0.374774 -0.01083,-0.47489 l -0.05799,-0.08286 0.0018,-0.168357 0.0018,-0.168355 0.06566,-0.112244 0.06566,-0.112244 -0.01272,-0.199995 -0.01271,-0.200013 -0.05194,-0.177728 -0.07866,-0.177737 -0.03269,0.041 c -0.01911,0.0193 -0.05376,0.174112 -0.07696,0.343858 -0.05822,0.424735 -0.08961,0.543358 -0.167038,0.630777 l -0.06668,0.07528 0.0082,0.192238 c 0.0045,0.105745 0.011,0.246986 0.01502,0.313878 l 0.0073,0.121629 -0.04739,0.01556 c -0.02603,0.0081 -0.0474,0.06851 -0.0474,0.133239 v 0.117688 l -0.09288,0.06406 c -0.05112,0.03516 -0.13631,0.06406 -0.189382,0.06406 h -0.09648 l -0.02247,-0.0577 c -0.01229,-0.03173 0.01647,-0.141827 0.06405,-0.244641 0.08842,-0.191219 0.103902,-0.308589 0.06112,-0.465426 l -0.0242,-0.08872 -0.08306,-0.02142 -0.08315,-0.02142 0.02993,-0.239599 c 0.01638,-0.131784 0.04312,-0.276632 0.05922,-0.321911 0.0162,-0.04526 0.02457,-0.202667 0.01864,-0.349779 -0.0054,-0.147112 0.0091,-0.341554 0.03293,-0.432081 0.02401,-0.09054 0.08638,-0.365315 0.09281,-0.619163 0.006,-0.253848 0.02308,-0.497527 0.03706,-0.541504 l 0.02539,-0.07992 -0.110931,-0.0478 c -0.06099,-0.02622 -0.186273,-0.100359 -0.278383,-0.164616 l -0.167478,-0.116828 v -0.123958 -0.123949 l 0.20143,-0.194448 c 0.110794,-0.106957 0.283675,-0.27706 0.384209,-0.378009 l 0.182773,-0.183543 0.144703,-0.02458 0.144685,-0.02448 0.02625,0.04257 0.02625,0.04257 0.05559,-0.04615 0.05559,-0.04615 v -0.134331 -0.134331 l -0.0591,-0.02264 c -0.03251,-0.01248 -0.0591,-0.04693 -0.0591,-0.07654 0,-0.09834 0.186375,-0.390143 0.281067,-0.440081 l 0.09328,-0.04915 0.118223,0.0239 c 0.06502,0.01316 0.157802,0.06028 0.20619,0.104665 l 0.08797,0.08079 -0.0026,0.293984 -0.0026,0.293974 -0.07712,0.02022 -0.0772,0.02013 0.01192,0.08196 0.01192,0.08196 0.08115,0.02138 c 0.09145,0.024 0.260146,0.150964 0.310714,0.23379 0.03122,0.05109 0.07532,0.356752 0.125788,0.871173 l 0.02128,0.216731 -0.116378,0.172048 -0.116361,0.172048 0.05927,0.123494 c 0.0326,0.06793 0.113487,0.181124 0.179744,0.251555 l 0.120504,0.128071 h 0.07532 0.07532 l -0.02393,0.06231 c -0.01312,0.03435 -0.02393,0.09057 -0.02393,0.12509 v 0.0628 l -0.09121,-0.08573 c -0.05018,-0.04712 -0.105912,-0.08573 -0.123883,-0.08573 -0.01802,0 -0.08812,-0.06405 -0.155846,-0.142459 l -0.123155,-0.142478 -0.05439,0.101598 -0.05439,0.101578 0.08466,0.203755 c 0.04658,0.112067 0.08467,0.236867 0.08467,0.277313 v 0.07354 h -0.07883 -0.07883 v -0.08863 c 0,-0.04877 -0.01578,-0.112647 -0.0344,-0.141965 l -0.0338,-0.05331 -0.02942,0.270036 c -0.01622,0.148525 -0.02835,0.46921 -0.02681,0.714348 l 0.0027,0.445712 -0.09906,0.10631 -0.09907,0.106308 -0.02941,0.177157 -0.02941,0.177157 0.06837,0.173757 c 0.03761,0.09556 0.06837,0.200961 0.06837,0.234207 v 0.06045 h -0.187748 -0.18774 l -0.02327,-0.06551 z"
           id="path101573-4-2-0"
           sodipodi:nodetypes="ccccscccccccccccscssccsccscccscccccccccccscccssccccccccccscccccccccccccscccssccccsccscccccscccsccccccccccsccccc" />
        <path
           style="fill:#000000;stroke-width:0.0391139"
           d="m -23.256443,42.333798 -0.08311,-0.03352 -0.03066,-0.188861 c -0.03533,-0.218086 -0.03619,-0.559742 -0.0017,-0.668752 l 0.02384,-0.07491 -0.07893,-0.100327 c -0.09603,-0.122071 -0.100183,-0.234279 -0.01362,-0.366445 l 0.06531,-0.09971 0.0178,-0.30707 c 0.0098,-0.168893 0.0068,-0.351712 -0.0068,-0.406265 -0.02222,-0.08846 -0.164102,-0.209049 -0.201728,-0.171438 -0.0077,0.0077 -0.03406,0.145861 -0.0579,0.306302 l -0.04333,0.291714 -0.09881,0.206801 -0.09879,0.206792 0.05117,0.06176 0.05126,0.06176 -0.08674,0.07021 -0.08675,0.07021 v 0.313784 0.313775 l -0.07271,0.02305 c -0.04002,0.01268 -0.101715,0.01191 -0.137195,-0.0019 l -0.06445,-0.02478 -0.104032,0.06809 -0.104014,0.06809 -0.148655,0.0038 -0.148665,0.0038 -0.05015,-0.051 -0.05015,-0.051 0.09777,-0.07597 c 0.307334,-0.238602 0.393085,-0.323303 0.414771,-0.409732 l 0.0241,-0.09607 -0.06011,-0.09182 c -0.03304,-0.05052 -0.07238,-0.156868 -0.08727,-0.236411 l -0.02716,-0.144613 0.06199,-0.04697 0.06199,-0.04697 0.02256,-0.371583 c 0.01243,-0.204372 0.04163,-0.508532 0.06505,-0.675927 l 0.04249,-0.304343 -0.06318,-0.06982 c -0.03474,-0.03842 -0.07331,-0.121457 -0.08576,-0.184586 l -0.02256,-0.114772 0.09925,-0.185787 0.09925,-0.185797 h -0.110859 -0.110861 l -0.152062,-0.114858 c -0.245781,-0.185701 -0.28895,-0.232801 -0.28895,-0.315312 0,-0.07751 0.216867,-0.41261 0.370077,-0.571879 0.04385,-0.04552 0.137222,-0.154746 0.207484,-0.242597 l 0.127762,-0.159711 0.234917,-0.0266 c 0.129208,-0.0146 0.244369,-0.04188 0.255914,-0.06051 0.0115,-0.01873 -0.01524,-0.034 -0.05952,-0.034 h -0.08055 v -0.05638 c 0,-0.03102 0.01558,-0.06598 0.03465,-0.0777 0.01899,-0.01172 0.04657,-0.101182 0.06122,-0.198705 l 0.02657,-0.177321 0.07884,-0.07343 c 0.04333,-0.04039 0.134615,-0.08198 0.202826,-0.09245 l 0.124023,-0.01903 0.125726,0.05158 0.125735,0.05159 0.02316,0.110138 c 0.01269,0.0606 0.043,0.188275 0.06718,0.283771 l 0.04402,0.173628 -0.047,0.01565 c -0.08353,0.02785 -0.167125,0.133885 -0.155034,0.196659 0.0068,0.03361 0.09069,0.10729 0.187116,0.163697 l 0.175324,0.102536 0.0465,0.154256 c 0.02563,0.08481 0.04785,0.304737 0.04956,0.488667 l 0.0026,0.334434 0.04214,0.04216 0.04214,0.04216 -0.04794,0.160038 -0.04793,0.160018 0.05474,0.06598 c 0.03005,0.03631 0.112622,0.09019 0.183404,0.119767 l 0.128697,0.05378 -0.02222,0.03592 c -0.01226,0.01979 0.01788,0.05657 0.06692,0.08173 0.04896,0.02516 0.146443,0.100039 0.216517,0.166376 l 0.12743,0.120621 0.10725,0.0019 0.107266,0.0019 0.01201,0.102555 0.012,0.102575 -0.06199,0.02372 -0.06207,0.02382 -0.412242,-0.278652 -0.412242,-0.278642 -0.05467,0.05465 -0.05467,0.05465 -0.03951,0.2736 c -0.02172,0.150481 -0.03993,0.364533 -0.04027,0.475685 0,0.111151 -0.01566,0.207954 -0.03388,0.215128 l -0.03313,0.01306 0.03772,0.330918 0.03772,0.330929 -0.04377,0.0146 c -0.0241,0.0077 -0.04377,0.05897 -0.04377,0.11337 v 0.09878 l -0.08353,0.08673 -0.08344,0.08673 -0.01848,0.133904 c -0.03533,0.255467 -0.02359,0.384569 0.04956,0.546882 l 0.07357,0.16315 -0.07408,0.05417 c -0.08318,0.0608 -0.157086,0.06493 -0.27915,0.01566 z"
           id="path11-2-30" />
        <path
           style="fill:#000000;stroke-width:0.0385012"
           d="m -26.712447,42.376141 c -0.179986,-0.0276 -0.183841,-0.16084 -0.0067,-0.23649 0.05674,-0.0242 0.148832,-0.10412 0.204727,-0.17752 l 0.101614,-0.13343 0.02648,-0.17645 0.02648,-0.17647 -0.07996,-0.0559 -0.07996,-0.056 v -0.0923 c 0,-0.0507 0.01919,-0.13432 0.04258,-0.18574 l 0.04258,-0.0935 -0.0409,-0.16821 c -0.02247,-0.0925 -0.08498,-0.29608 -0.138843,-0.45237 l -0.09796,-0.28419 v -0.18495 c 0,-0.20085 -0.05323,-0.38247 -0.112065,-0.38247 -0.02028,0 -0.05891,0.0607 -0.08568,0.13474 -0.02682,0.0741 -0.0678,0.13476 -0.09119,0.13476 -0.02338,0 -0.100508,-0.0598 -0.17143,-0.13306 l -0.128953,-0.13305 0.157433,-0.20853 0.15745,-0.20854 -0.190037,-0.21322 c -0.104522,-0.11727 -0.190043,-0.24243 -0.190043,-0.27813 0,-0.0358 0.02405,-0.15419 0.05347,-0.26335 0.02942,-0.10913 0.07459,-0.30071 0.10034,-0.4257 l 0.04686,-0.22728 0.115652,-0.10565 c 0.06361,-0.0581 0.165747,-0.11565 0.226939,-0.12789 l 0.11126,-0.0223 v -0.0779 -0.078 h -0.09268 -0.09266 l -0.0025,-0.28646 -0.0025,-0.28647 0.09952,-0.0783 c 0.05473,-0.0431 0.15848,-0.0894 0.230542,-0.10287 l 0.131024,-0.0246 0.09547,0.0626 c 0.05247,0.0344 0.105964,0.1044 0.118795,0.15553 0.01282,0.0512 0.04777,0.10235 0.07761,0.11381 0.07871,0.0301 0.06654,0.16373 -0.02624,0.28924 l -0.08046,0.10889 0.05121,0.0821 c 0.02816,0.0451 0.07745,0.0822 0.109376,0.0823 0.03193,6e-5 0.115583,0.0352 0.18581,0.078 l 0.127688,0.0779 0.343957,-0.35325 0.343948,-0.35324 v -0.0648 c 0,-0.0938 0.0388,-0.11873 0.118317,-0.0762 l 0.06973,0.0373 -0.01524,0.079 c -0.0084,0.0435 -0.154641,0.23631 -0.325023,0.42849 l -0.309795,0.34944 -0.0058,0.0815 c -0.0076,0.10658 -0.0058,0.11857 0.05557,0.38949 0.029,0.12705 0.07409,0.27082 0.100205,0.31948 l 0.04753,0.0885 -0.03888,0.20029 -0.03888,0.20027 0.0076,0.79847 0.0076,0.79848 -0.04534,0.0173 c -0.07811,0.0299 -0.117647,-0.0662 -0.125408,-0.3053 -0.0042,-0.12705 -0.02138,-0.33496 -0.03846,-0.46201 l -0.03101,-0.23101 -0.005,0.15233 c -0.0025,0.0838 -0.03293,0.31974 -0.06705,0.52436 l -0.06194,0.37204 0.06328,0.2784 c 0.03478,0.15312 0.07208,0.38494 0.0828,0.51516 0.01073,0.13023 0.03738,0.29274 0.05918,0.36116 0.02179,0.0683 0.02749,0.14407 0.01249,0.16816 l -0.02707,0.0439 -0.167281,-0.023 c -0.092,-0.0127 -0.194074,-0.0127 -0.226838,-8e-5 l -0.05959,0.0229 0.02422,0.12925 0.02422,0.12925 -0.109969,0.0432 c -0.06051,0.0238 -0.161942,0.0661 -0.225464,0.0939 -0.149546,0.0654 -0.246809,0.0827 -0.365764,0.0644 z"
           id="path4-5-1" />
        <path
           style="fill:#000000;stroke-width:0.0385012"
           d="m -29.378187,42.30405 c -0.01325,-0.0213 0.0033,-0.0665 0.03747,-0.10027 0.07895,-0.079 0.215195,-0.34573 0.236484,-0.46308 l 0.0165,-0.0909 -0.04885,3e-4 c -0.0269,1.1e-4 -0.07837,0.0521 -0.114463,0.11551 -0.03612,0.0634 -0.110355,0.13566 -0.165059,0.16059 l -0.09946,0.0453 -0.06319,-0.0632 -0.06319,-0.0632 0.04602,-0.088 c 0.0253,-0.0484 0.09708,-0.15735 0.159561,-0.24205 0.06244,-0.0847 0.114144,-0.17582 0.11484,-0.20249 0,-0.0267 -0.08541,-0.10181 -0.191344,-0.167 l -0.192617,-0.11852 -0.01601,-0.0832 c -0.03713,-0.19319 -0.113666,-0.66521 -0.116499,-0.71852 -0.0017,-0.0318 0.02808,-0.15304 0.06605,-0.26951 l 0.06915,-0.21175 0.01307,-0.36576 c 0.0076,-0.20118 0.02548,-0.40267 0.04057,-0.44779 l 0.0275,-0.0821 -0.10013,-0.0929 -0.100114,-0.0928 -0.02439,-0.31629 -0.02439,-0.31628 0.05733,-0.0671 c 0.03151,-0.0369 0.09698,-0.16733 0.145489,-0.28982 0.04852,-0.12248 0.118469,-0.2439 0.155455,-0.26981 l 0.06722,-0.0471 -0.01208,-0.16916 c -0.0067,-0.093 -0.02741,-0.17952 -0.04618,-0.1922 -0.01877,-0.0127 -0.04526,-0.0532 -0.05884,-0.0901 l -0.02472,-0.067 0.09577,-0.10626 c 0.05271,-0.0585 0.123405,-0.13862 0.157164,-0.17815 l 0.06135,-0.0718 0.173298,0.0195 0.173281,0.0195 0.08862,0.0908 0.08861,0.0909 0.01491,0.33645 0.01492,0.33647 0.156913,0.13429 0.156897,0.13431 0.06102,0.15256 c 0.03361,0.0839 0.06421,0.25758 0.06806,0.3859 l 0.0067,0.23332 h 0.103767 0.103769 l 0.0637,0.0704 c 0.03503,0.0387 0.0637,0.11686 0.0637,0.17364 v 0.10322 l -0.07199,0.0616 -0.07199,0.0616 0.02757,0.12086 c 0.01518,0.0665 0.03847,0.15552 0.0518,0.19787 l 0.02431,0.077 -0.110305,0.12544 -0.11029,0.12545 -0.02791,0.50218 -0.02791,0.50217 -0.06295,-0.012 -0.06295,-0.012 -0.01928,-0.36537 -0.01928,-0.36536 -0.03093,0.24148 c -0.01702,0.13282 -0.05825,0.31474 -0.09168,0.40426 l -0.06084,0.16278 -0.005,0.36538 -0.005,0.36538 -0.06269,0.0121 -0.06269,0.0121 -0.0033,0.14232 c -0.0017,0.0783 -0.01149,0.25048 -0.02162,0.38267 l -0.01843,0.24034 -0.118462,0.11579 -0.118467,0.1158 h -0.169644 c -0.09332,0 -0.180457,-0.0174 -0.19364,-0.0388 z"
           id="path18-0-5" />
        <path
           d="m -26.127826,39.670487 -0.61207,-1.3141 -0.0173,0.01 0.0194,0.041 h 0.006 l 0.009,0.021 -0.0572,0.026 -0.01,-0.02 0.0261,-0.012 -0.019,-0.041 h -0.005 l -0.0197,-0.042 h -0.007 l -0.0138,-0.028 h 0.008 l -0.16263,-0.3482 h -0.0106 l -0.0127,-0.028 h 0.0102 l -0.024,-0.051 0.048,-0.022 -0.20355,-0.4364 c -0.0155,-0.01 -0.0423,-0.025 -0.0801,-0.068 -0.036,-0.041 -0.11148,-0.1252 -0.17039,-0.1908 -0.0473,-0.052 -0.0833,-0.093 -0.0833,-0.093 l -0.01,-0.02 0.003,-0.01 -0.0198,-0.043 0.004,-0.061 0.0145,-0.1994 c 0,0 0.005,-0.049 0.0607,-0.075 h 0.002 c 0.0557,-0.027 0.0967,0 0.0967,0 l 0.16193,0.1168 0.0494,0.036 0.0205,0.043 0.009,0.01 0.009,0.02 c 0,0 0.008,0.054 0.0173,0.1228 0.0123,0.088 0.0286,0.2 0.037,0.2536 0.009,0.056 0.005,0.088 7e-4,0.1044 l 1.04775,2.2486 z"
           id="path172-0" />
      </g>
      <g
         id="g26010-3-3"
         transform="translate(120.96998,-25.310253)">
        <path
           id="path3682-9-3-2"
           style="fill:#000000;stroke-width:0.0305117"
           d="m -12.407571,42.283773 c -0.170515,-0.07368 -0.15725,-0.224369 0.02324,-0.264011 0.05443,-0.01196 0.133496,-0.04327 0.175696,-0.06959 0.168514,-0.105091 0.167855,-0.102393 0.174057,-0.713149 0.0032,-0.313872 0.01965,-0.596556 0.03657,-0.628185 0.01693,-0.03163 0.02356,-0.0851 0.01474,-0.118829 -0.02101,-0.08034 0.04611,-0.236308 0.23244,-0.540151 0.09113,-0.148597 0.163301,-0.308694 0.180382,-0.400124 0.01566,-0.08383 0.02548,-0.155406 0.02182,-0.159065 -0.0037,-0.0037 -0.114565,0.06249 -0.246458,0.146989 -0.179696,0.11513 -0.258102,0.14905 -0.3128,0.135321 -0.06681,-0.01677 -0.07002,-0.01277 -0.03791,0.04725 0.0277,0.05175 0.02581,0.07484 -0.0089,0.109604 -0.03838,0.03838 -0.05116,0.03301 -0.09947,-0.0417 -0.03049,-0.04716 -0.102987,-0.127318 -0.161108,-0.178138 -0.06203,-0.05423 -0.107456,-0.12355 -0.109987,-0.167815 -0.0032,-0.05608 -0.01909,-0.07283 -0.06198,-0.06535 -0.06698,0.01169 -0.352776,0.249923 -0.353963,0.295051 -6.92e-4,0.02695 -0.202835,0.137302 -0.251489,0.137302 -0.01028,0 -0.01587,-0.03664 -0.01243,-0.08141 0.0048,-0.06211 0.02363,-0.08269 0.07952,-0.08681 0.04989,-0.0037 0.168382,-0.106676 0.371427,-0.322868 0.249017,-0.265139 0.335366,-0.385369 0.523843,-0.729378 0.189326,-0.345562 0.223575,-0.429646 0.21263,-0.522029 -0.01052,-0.08879 -0.03268,-0.119484 -0.114395,-0.158449 -0.05574,-0.02658 -0.11031,-0.07657 -0.121266,-0.11109 -0.01105,-0.03482 -0.04617,-0.06276 -0.07889,-0.06276 -0.05074,0 -0.05982,-0.02448 -0.06506,-0.175442 -0.01077,-0.310337 -0.0025,-0.354276 0.08014,-0.425359 0.191094,-0.164374 0.481475,-0.09848 0.557549,0.126515 0.02244,0.06638 0.07108,0.152918 0.108083,0.192305 0.05024,0.05348 0.05763,0.07758 0.02918,0.09516 -0.0259,0.01601 0.0162,0.06188 0.131533,0.143323 0.09329,0.06588 0.213773,0.153417 0.267731,0.194528 0.05396,0.04111 0.08836,0.0634 0.07644,0.04953 -0.03766,-0.04384 0.06204,-0.192585 0.142649,-0.212816 0.141407,-0.03549 0.248114,0.01485 0.233882,0.110327 -0.0018,0.01198 0.01699,0.01402 0.04173,0.0045 0.02927,-0.01123 0.05552,0.01046 0.07516,0.06212 0.0166,0.04366 0.04572,0.07938 0.06471,0.07938 0.02099,0 0.02584,0.02094 0.01238,0.0534 -0.01218,0.02937 -0.02281,0.07056 -0.02361,0.09154 -8.07e-4,0.02098 -0.01895,0.03814 -0.04033,0.03814 -0.02138,0 -0.04758,0.01407 -0.05821,0.03127 -0.01063,0.0172 -0.008,0.02815 0.0058,0.02433 0.01383,-0.0038 0.07726,0.0034 0.14095,0.01614 0.08307,0.01655 0.123818,0.04417 0.144176,0.09771 0.01586,0.04172 0.05305,0.07464 0.08432,0.07464 0.03077,0 0.07998,0.01757 0.109346,0.03905 0.08192,0.0599 0.01716,0.196301 -0.120522,0.253828 -0.104355,0.0436 -0.10748,0.04909 -0.06432,0.112943 0.03167,0.04685 0.07021,0.06433 0.127646,0.05788 0.127572,-0.01432 0.210194,0.06109 0.268062,0.24467 0.06699,0.212517 0.06605,0.275041 -0.0055,0.363356 -0.04519,0.05581 -0.08607,0.07086 -0.185411,0.06825 -0.122831,-0.0032 -0.126713,-4.62e-4 -0.107388,0.07672 0.01102,0.04403 0.08122,0.243644 0.15599,0.443583 0.09089,0.243055 0.125797,0.373667 0.105337,0.394126 -0.02046,0.02046 -0.03742,0.01122 -0.05119,-0.0279 -0.01132,-0.03217 -0.09927,-0.230127 -0.195435,-0.439894 -0.09616,-0.209768 -0.184106,-0.420693 -0.195429,-0.468723 l -0.02059,-0.08733 -0.104835,0.117838 c -0.05766,0.06481 -0.168164,0.248275 -0.245566,0.407699 -0.0774,0.159423 -0.159771,0.311268 -0.183044,0.337432 -0.03664,0.04119 -0.0306,0.06159 0.04496,0.152115 0.048,0.0575 0.08115,0.120517 0.07366,0.140038 -0.0075,0.01952 0.01977,0.102103 0.06057,0.183515 0.04081,0.08141 0.09154,0.20294 0.112754,0.270066 0.02121,0.06713 0.07114,0.200582 0.110956,0.296569 0.08034,0.193687 0.09353,0.344792 0.03215,0.368346 -0.02213,0.0085 -0.114284,-0.01063 -0.204782,-0.0425 -0.0905,-0.03187 -0.196644,-0.05794 -0.235879,-0.05794 -0.07792,0 -0.251659,-0.07977 -0.250911,-0.115204 0.0015,-0.07254 0.06604,-0.109986 0.178064,-0.103376 0.0669,0.0039 0.130426,-0.007 0.141168,-0.02443 0.01074,-0.01738 0.0067,-0.0316 -0.0091,-0.0316 -0.01574,0 -0.04618,-0.04462 -0.06766,-0.09916 -0.09793,-0.248711 -0.187642,-0.415197 -0.233132,-0.432653 -0.1015,-0.03895 -0.175059,0.09916 -0.217715,0.408779 -0.07622,0.553259 -0.0843,0.643792 -0.06077,0.680824 0.02103,0.03309 0.03605,0.324576 0.01694,0.328698 -0.03244,0.007 -0.526738,0.06462 -0.648375,0.07559 -0.08391,0.0076 -0.180495,0.0017 -0.214641,-0.01307 z m 0.469165,-3.128786 c 0.0393,-0.03455 0.08441,-0.08687 0.100258,-0.116264 0.0256,-0.0475 0.01519,-0.05221 -0.0937,-0.0424 -0.134329,0.0121 -0.219544,0.06456 -0.197631,0.12166 0.0077,0.02014 -0.03085,0.05497 -0.08572,0.07741 l -0.09977,0.04079 0.07628,0.02189 c 0.08757,0.02513 0.197328,-0.01255 0.30029,-0.103083 z m -0.103755,-0.522927 c 0.03569,-0.03489 0.08759,-0.07615 0.115345,-0.09168 0.0394,-0.02205 0.04665,-0.05663 0.03309,-0.157764 -0.0096,-0.07124 -0.02586,-0.129511 -0.03624,-0.129494 -0.02905,4.8e-5 -0.304331,0.475793 -0.307263,0.531025 -0.0014,0.02698 0.06458,-0.02448 0.195071,-0.152083 z" />
        <path
           id="path3245-2-34-0"
           style="fill:#000000;stroke-width:0.0305117"
           d="m -9.3825717,42.261987 c 0.01604,-0.02098 0.026885,-0.209768 0.024098,-0.419536 -0.00279,-0.209768 0.00517,-0.395126 0.017682,-0.411908 0.012511,-0.01678 0.054017,-0.186258 0.092235,-0.376614 0.066262,-0.330034 0.074434,-0.349464 0.1760346,-0.418503 0.099764,-0.06779 0.1144838,-0.100695 0.2312071,-0.516832 0.098759,-0.352095 0.132469,-0.436621 0.1622504,-0.406839 0.020677,0.02068 0.037593,0.08123 0.037593,0.134556 0,0.05333 0.022094,0.149841 0.049099,0.214472 0.027004,0.06463 0.051969,0.186447 0.055476,0.270704 0.00351,0.08426 0.017254,0.177341 0.030547,0.206854 0.020781,0.04614 0.016066,0.233979 -0.020837,0.830198 l -0.0075,0.121065 0.2135816,0.03987 c 0.4245025,0.07923 0.4831905,0.08082 0.5430755,0.01464 0.0505,-0.0558 0.05092,-0.06443 0.0054,-0.109944 -0.02717,-0.02717 -0.07656,-0.04939 -0.109753,-0.04939 -0.08238,0 -0.229104,-0.07912 -0.250597,-0.135124 -0.0097,-0.02522 0.016,-0.193919 0.05705,-0.374897 0.04105,-0.180978 0.07477,-0.351398 0.07492,-0.378711 1.15e-4,-0.02731 0.01999,-0.06602 0.04408,-0.08602 0.02409,-0.02 0.05322,-0.07924 0.06474,-0.131649 0.01668,-0.07597 0.0078,-0.105925 -0.04381,-0.147713 -0.03561,-0.02883 -0.06474,-0.07162 -0.06474,-0.09509 0,-0.02347 -0.01907,-0.06875 -0.04237,-0.100623 -0.02331,-0.03187 -0.03549,-0.0759 -0.02707,-0.09783 0.02143,-0.05584 -0.04739,-0.504687 -0.100429,-0.655021 -0.03274,-0.0928 -0.03529,-0.135357 -0.0099,-0.165896 0.01875,-0.02259 0.02441,-0.06528 0.01258,-0.09486 -0.07443,-0.186086 -0.117228,-0.427445 -0.121074,-0.682811 -0.0033,-0.221659 -0.017383,-0.313184 -0.057441,-0.374318 -0.040482,-0.06179 -0.04375,-0.08378 -0.013818,-0.09302 0.29675,-0.09161 0.537841,-0.184084 0.580787,-0.222766 0.02937,-0.02645 0.0534,-0.08573 0.0534,-0.131721 0,-0.06663 -0.02946,-0.10215 -0.144931,-0.174774 -0.07971,-0.05013 -0.236176,-0.120856 -0.3477,-0.157166 -0.2263933,-0.07371 -0.2451489,-0.101985 -0.2214784,-0.333876 0.00916,-0.08971 1.153e-4,-0.158395 -0.024764,-0.188364 -0.078236,-0.0942 -0.1924561,-0.151158 -0.3030998,-0.151158 -0.1199983,0 -0.151175,0.02821 -0.2954725,0.267329 -0.062978,0.104365 -0.082374,0.116465 -0.1678146,0.104691 -0.053132,-0.0073 -0.1172007,-0.03089 -0.1423727,-0.05237 -0.025172,-0.02148 -0.2105314,-0.0686 -0.4119087,-0.104704 -0.4540278,-0.0814 -0.9490738,-0.208274 -1.0602568,-0.27173 -0.07672,-0.04379 -0.0882,-0.04356 -0.134437,0.0027 -0.04706,0.04707 -0.04503,0.05194 0.02947,0.07064 0.04401,0.01105 0.07705,0.0339 0.07341,0.0508 -0.0036,0.01689 0.06204,0.05062 0.145948,0.07496 0.08391,0.02434 0.195825,0.06407 0.248705,0.08828 0.05288,0.02422 0.11729,0.04403 0.143131,0.04403 0.08467,0 0.08049,0.05019 -0.01152,0.138342 -0.07278,0.06973 -0.09045,0.112268 -0.09045,0.21776 0,0.121181 0.01905,0.152351 0.251722,0.411861 0.138446,0.154417 0.3104757,0.34015 0.3822877,0.41274 0.1088885,0.11007 0.1253515,0.141723 0.099162,0.190658 -0.049558,0.0926 -0.037451,0.123713 0.048141,0.123713 0.060925,0 0.075085,0.01162 0.060497,0.04964 -0.010471,0.0273 -0.0055,0.06596 0.011059,0.08591 0.038761,0.04671 -0.086816,0.44418 -0.1403328,0.44418 -0.056248,0 -0.1328115,0.124313 -0.1328115,0.215642 0,0.103812 0.087384,0.18101 0.2048934,0.18101 0.080273,0 0.096458,0.01384 0.1159402,0.09916 0.0507,0.222044 0.026484,0.422508 -0.1393513,1.153544 -0.017346,0.07647 -0.023149,0.160891 -0.012895,0.187612 0.010252,0.02672 0.00369,0.05782 -0.014575,0.06911 -0.022622,0.01398 -0.032149,0.25587 -0.029865,0.758251 0.00384,0.844489 0.011117,0.875024 0.2084499,0.875024 0.064684,0 0.1307312,-0.01716 0.146771,-0.03814 z m -0.21028,-3.550151 c 0.00899,-0.05347 0.095849,-0.145511 0.1171788,-0.124182 0.00513,0.0051 -0.00722,0.05317 -0.027451,0.106753 -0.038817,0.102839 -0.1063099,0.115948 -0.089728,0.01743 z m -0.3710462,-1.057117 c -0.4738051,-0.521712 -0.4862701,-0.541017 -0.4054141,-0.627885 0.02611,-0.02805 0.09623,-0.103879 0.155831,-0.168509 0.06989,-0.07579 0.125181,-0.111053 0.155736,-0.09933 0.02606,0.01 0.1480186,0.04742 0.2710245,0.08316 0.3222994,0.09365 0.330404,0.118092 0.1853651,0.559073 -0.075631,0.229949 -0.1085448,0.376936 -0.095787,0.427767 0.01069,0.04259 0.00648,0.07744 -0.00935,0.07744 -0.015836,0 -0.1316653,-0.113275 -0.2573985,-0.251722 z" />
        <path
           style="fill:#000000;stroke-width:0.0385012"
           d="m -6.8412138,42.00827 -0.02766,-0.0447 0.0874,-0.0708 c 0.04802,-0.0389 0.107129,-0.0719 0.131251,-0.0735 0.02413,-0.002 0.08932,-0.0579 0.144894,-0.12513 l 0.101035,-0.12234 -0.0585,-0.18288 -0.0585,-0.18289 h -0.05297 c -0.02916,0 -0.07325,-0.0446 -0.09812,-0.0991 l -0.04517,-0.0991 0.03955,-0.0645 0.03955,-0.0645 -0.03872,-0.30148 -0.03873,-0.30149 0.04132,-0.48778 0.04132,-0.4878 -0.03964,-0.0485 -0.03964,-0.0483 0.01945,-0.17223 0.01945,-0.17222 -0.05388,-0.0447 -0.05388,-0.0447 0.01064,-0.13886 0.01064,-0.13886 -0.125081,-0.0121 -0.125072,-0.0121 -0.03763,-0.0704 c -0.0207,-0.0387 -0.04183,-0.12548 -0.04694,-0.19298 -0.005,-0.0675 -0.02288,-0.13109 -0.03948,-0.14133 -0.0165,-0.0102 -0.03009,-0.0522 -0.03009,-0.0933 0,-0.041 -0.0092,-0.0748 -0.02045,-0.0748 -0.01123,0 -0.08188,0.0256 -0.156845,0.057 l -0.136362,0.057 0.02472,0.0778 0.02464,0.0778 h -0.0559 c -0.03076,0 -0.0843,0.0433 -0.118971,0.0962 -0.03469,0.0529 -0.08787,0.0963 -0.118192,0.0963 h -0.05514 l -0.02313,-0.14439 c -0.01266,-0.0794 -0.04007,-0.17541 -0.06076,-0.21334 -0.04777,-0.0873 -0.01425,-0.14281 0.08651,-0.14281 0.09717,0 0.305638,-0.0967 0.4026,-0.18673 0.0399,-0.037 0.104103,-0.0794 0.142614,-0.0942 l 0.07006,-0.0268 -0.02447,-0.0771 c -0.03797,-0.11952 0.01349,-0.22626 0.140612,-0.29202 l 0.115978,-0.0601 0.201845,0.01 0.201861,0.01 0.0891,-0.0891 0.0891,-0.0892 -0.08501,-0.0641 -0.08501,-0.0641 0.02615,-0.1041 c 0.01442,-0.0573 0.04157,-0.11364 0.06034,-0.12528 0.01886,-0.0116 0.03428,-0.0549 0.03428,-0.0959 0,-0.0411 0.03461,-0.10938 0.07702,-0.15173 l 0.07702,-0.077 h 0.13771 0.137721 l 0.112544,0.11255 0.112541,0.11255 0.0042,0.10883 0.0042,0.10884 0.01819,-0.0702 0.01819,-0.0703 0.05699,0.0218 c 0.03135,0.012 0.136143,-0.0141 0.232913,-0.0583 l 0.175947,-0.0802 0.03051,0.0493 0.03051,0.0493 -0.122424,0.0905 -0.122425,0.0905 0.01148,0.072 0.01149,0.072 -0.06923,0.0224 c -0.03814,0.0123 -0.117983,0.0614 -0.177539,0.10929 l -0.108286,0.0868 0.02296,0.0599 c 0.01266,0.0328 0.08055,0.0807 0.150888,0.10617 0.07032,0.0254 0.157038,0.0785 0.192659,0.1178 0.06186,0.0683 0.267654,0.6151 0.33182,0.88163 l 0.03042,0.12641 -0.05263,0.22011 c -0.02892,0.12107 -0.05263,0.32407 -0.05271,0.45112 -1.17e-4,0.18969 0.05506,0.69413 0.127704,1.16775 0.0076,0.0493 0.05473,0.14464 0.104773,0.21177 l 0.091,0.12203 0.02934,0.25025 c 0.01617,0.13765 0.03704,0.40012 0.04643,0.58328 l 0.0171,0.33299 -0.07216,0.0653 -0.07216,0.0653 -0.127664,0.006 -0.127661,0.006 -0.01266,-0.0895 c -0.0067,-0.0491 0.01383,-0.1558 0.04635,-0.23689 l 0.059,-0.14741 -0.0222,-0.13679 c -0.01223,-0.0752 -0.05037,-0.16129 -0.08483,-0.19129 -0.239166,-0.20821 -0.403329,-0.41503 -0.62735,-0.79039 l -0.256717,-0.43016 -0.04048,0.12567 -0.04048,0.12566 0.0025,0.38502 0.0025,0.38501 0.043,0.0904 0.04299,0.0905 -0.0663,0.0485 -0.06638,0.0485 0.04467,0.2075 c 0.02456,0.11413 0.04627,0.2768 0.04819,0.36151 l 0.0033,0.154 -0.1211,0.0117 -0.1211,0.0117 -0.06771,0.0748 -0.06772,0.0749 h -0.203521 -0.203504 l -0.02765,-0.0447 z m 0.135316,-4.26741 0.0017,-0.0578 -0.03729,0.0578 c -0.02054,0.0318 -0.03638,0.0924 -0.0352,0.13476 l 0.0017,0.077 0.03311,-0.077 c 0.01819,-0.0423 0.03403,-0.10299 0.0352,-0.13476 z"
           id="path13-1-5" />
        <path
           style="fill:#000000;stroke-width:0.0385012"
           d="m -4.1786248,42.05648 c -0.03478,-0.0563 0.0181,-0.15259 0.09769,-0.17787 0.04039,-0.0129 0.118953,-0.0829 0.174554,-0.15585 l 0.101094,-0.13253 -0.02522,-0.15763 -0.02524,-0.15762 -0.100089,-0.13122 -0.100071,-0.13121 0.02497,-0.22092 0.02498,-0.22092 -0.05892,-0.084 c -0.03244,-0.0462 -0.0694,-0.1606 -0.08222,-0.25412 l -0.02331,-0.17006 0.04107,-0.0768 0.04107,-0.0767 -0.15196,-0.0855 c -0.08356,-0.0469 -0.168025,-0.0755 -0.187654,-0.0634 -0.01962,0.0122 -0.115008,0.0314 -0.211919,0.0428 l -0.176233,0.0207 v -0.05 c 0.0017,-0.0916 0.05608,-0.13715 0.165362,-0.1369 0.05951,1.7e-4 0.165513,-0.0306 0.235562,-0.0682 l 0.127362,-0.0685 v -0.4462 -0.44637 l 0.08331,-0.47714 c 0.04584,-0.26242 0.108311,-0.52545 0.138853,-0.58452 l 0.05557,-0.10738 0.128718,-0.0465 0.128727,-0.0465 -0.04391,-0.1277 c -0.02413,-0.0703 -0.07124,-0.15874 -0.104698,-0.1967 l -0.06084,-0.069 0.04744,-0.18291 c 0.02606,-0.1006 0.07878,-0.21755 0.117069,-0.25988 l 0.06964,-0.077 h 0.149772 0.149798 l 0.0945,0.0945 0.09451,0.0945 v 0.13903 c 0,0.0765 0.01852,0.17367 0.04115,0.21597 l 0.04115,0.0769 -0.04183,0.0504 -0.04183,0.0504 0.02398,0.0624 0.02389,0.0624 0.09188,-0.0231 0.09189,-0.0231 0.02431,0.0633 c 0.0134,0.0348 0.07175,0.0878 0.1297,0.11778 l 0.105409,0.0545 0.04794,0.12695 c 0.02641,0.0699 0.07904,0.20491 0.116927,0.30019 l 0.06889,0.17327 0.04861,0.42352 c 0.02674,0.23292 0.04777,0.58838 0.04685,0.78988 l -0.0017,0.36635 0.144216,-0.0137 0.144241,-0.0138 0.02682,0.20566 c 0.01475,0.11311 0.03596,0.24295 0.04719,0.28852 l 0.02027,0.0829 -0.118728,0.0231 c -0.06529,0.0127 -0.170717,0.033 -0.234238,0.0454 l -0.115511,0.0223 v 0.0983 c 0,0.0541 0.03302,0.15231 0.07342,0.21832 l 0.07342,0.12006 -0.01307,0.30801 -0.01307,0.30801 0.05011,0.17326 0.05012,0.17325 -0.03218,0.0867 -0.03219,0.0866 h -0.135256 -0.135256 l -0.02456,-0.0977 c -0.01349,-0.0537 -0.014,-0.1502 -0.0017,-0.21441 0.01282,-0.0641 0.0058,-0.19605 -0.01617,-0.29301 l -0.03948,-0.17626 -0.150602,-0.13871 -0.150627,-0.13873 -0.09917,-0.32267 c -0.05456,-0.17746 -0.135306,-0.3734 -0.179458,-0.4354 l -0.08029,-0.11274 -0.092,0.1986 c -0.05063,0.10923 -0.09201,0.23239 -0.09201,0.27369 0,0.0413 0.02808,0.12947 0.06253,0.19593 l 0.06253,0.12083 -0.005,0.15639 c -0.0025,0.0861 -0.01877,0.29174 -0.0357,0.45717 l -0.03068,0.3008 0.03092,0.0191 c 0.05213,0.0322 0.03437,0.23333 -0.02498,0.28255 l -0.0559,0.0464 -0.07652,-0.0243 -0.07652,-0.0243 -0.04216,0.0789 -0.04216,0.0789 h -0.188879 c -0.103885,0 -0.198635,-0.0158 -0.210536,-0.0351 z m 0.190371,-1.9056 v -0.28504 l -0.02832,0.0444 c -0.03729,0.0586 -0.0378,0.52571 0,0.52571 0.01592,0 0.02891,-0.12828 0.02891,-0.28507 z m -0.0321,-0.39511 c -0.01408,-0.0141 -0.02564,-0.003 -0.02564,0.0256 0,0.0283 0.01148,0.0398 0.02564,0.0256 0.01407,-0.014 0.01407,-0.0372 0,-0.0514 z"
           id="path12-2-0" />
      </g>
      <g
         id="g26010-3-5-0-7-9"
         transform="translate(80.655916,-25.304766)">
        <path
           style="fill:#000000;stroke-width:0.0305117"
           d="m -6.7789981,42.214561 c 0.093286,-0.04486 0.2150612,-0.09816 0.2706131,-0.11843 0.094622,-0.03453 0.099739,-0.04361 0.080975,-0.143623 -0.011013,-0.05872 -0.045883,-0.165703 -0.077483,-0.237743 -0.031601,-0.07204 -0.078793,-0.285804 -0.104873,-0.475029 -0.04633,-0.33615 -0.045953,-0.347356 0.016457,-0.488188 0.1147698,-0.258985 0.2486596,-0.508666 0.3177246,-0.5925 l 0.067733,-0.08222 0.1178096,0.140218 c 0.064795,0.07712 0.1966088,0.258285 0.2929205,0.402592 0.1682147,0.252044 0.3026558,0.369165 0.4237554,0.369165 0.060425,0 0.1036887,0.09328 0.056725,0.122302 -0.022138,0.01368 -0.017899,0.03291 0.012886,0.05846 0.025231,0.02094 0.057306,0.03101 0.071276,0.02237 0.013971,-0.0086 0.057473,0.0554 0.096671,0.142304 0.039198,0.0869 0.1176158,0.235316 0.1742609,0.329809 0.056646,0.09449 0.1029922,0.209383 0.1029922,0.255311 0,0.09952 0.1916258,0.306089 0.3119621,0.336291 0.099823,0.02505 0.2067374,-0.0305 0.2067374,-0.107418 0,-0.03239 -0.041191,-0.105802 -0.091535,-0.163142 -0.051572,-0.05874 -0.091535,-0.138934 -0.091535,-0.183692 0,-0.134923 -0.2199888,-0.822484 -0.2950862,-0.92227 -0.03908,-0.05193 -0.071054,-0.123237 -0.071054,-0.158462 0,-0.03911 -0.036378,-0.08551 -0.093441,-0.119166 -0.2382254,-0.140529 -0.434938,-0.970995 -0.3220111,-1.359449 0.041819,-0.143849 0.043981,-0.194545 0.01321,-0.309595 -0.029869,-0.111679 -0.028965,-0.152214 0.00481,-0.215319 0.022883,-0.04276 0.05781,-0.07774 0.077616,-0.07774 0.019806,0 0.1033,0.07621 0.1855427,0.169366 0.2333889,0.264348 0.5059347,0.544295 0.5627309,0.578014 0.028414,0.01687 0.089891,0.05764 0.1366183,0.09061 0.046726,0.03297 0.133711,0.06043 0.1932979,0.06102 0.1000331,10e-4 0.110142,0.0097 0.1318245,0.113769 0.021987,0.105513 -0.032634,0.315026 -0.093917,0.360239 -0.011371,0.0084 -0.036059,0.06692 -0.054859,0.130066 -0.030922,0.103865 -0.028126,0.118048 0.02932,0.148793 0.051819,0.02773 0.071203,0.02345 0.1053792,-0.02327 0.023034,-0.03149 0.048925,-0.09159 0.057533,-0.133538 0.040154,-0.195683 0.083962,-0.338659 0.1083926,-0.353758 0.044512,-0.02751 0.1173979,-0.227536 0.1173979,-0.322184 0,-0.09517 -0.080636,-0.153854 -0.1212058,-0.08821 -0.033904,0.05486 -0.5930842,-0.403255 -0.6652248,-0.544989 -0.030697,-0.06031 -0.1136143,-0.197846 -0.1842604,-0.305638 -0.070646,-0.107791 -0.1432918,-0.251959 -0.1614328,-0.320373 -0.045622,-0.172037 -0.067952,-0.209354 -0.1308027,-0.218578 -0.075638,-0.01111 -0.1711231,-0.10326 -0.1711231,-0.165161 0,-0.05737 0.091926,-0.152559 0.1473326,-0.152559 0.019655,0 0.035738,-0.02801 0.035738,-0.06224 0,-0.03423 0.02746,-0.116066 0.061024,-0.181855 0.033563,-0.06579 0.061023,-0.170181 0.061023,-0.231981 0,-0.09372 -0.024598,-0.136963 -0.1481998,-0.260565 -0.1815804,-0.181581 -0.2847801,-0.194809 -0.4421167,-0.05666 -0.057339,0.05034 -0.127937,0.09154 -0.1568846,0.09154 -0.032157,0 -0.046361,0.01634 -0.036511,0.04201 0.018515,0.04825 -0.026059,0.270326 -0.078336,0.390284 -0.033704,0.07734 -0.039658,0.07925 -0.1191542,0.03814 -0.148404,-0.07674 -0.2574331,-0.0557 -0.3682001,0.07105 -0.2357103,0.269733 -0.4869496,0.495911 -0.5508587,0.495911 -0.08579,0 -0.3709875,-0.27436 -0.3722779,-0.358131 -6.919e-4,-0.04481 -0.025547,-0.05108 -0.112438,-0.02836 -0.063376,0.01657 -0.063134,0.01827 0.016126,0.112463 0.04426,0.0526 0.080472,0.108313 0.080472,0.123806 0,0.01549 0.017737,0.02817 0.039415,0.02817 0.021678,0 0.098609,0.06031 0.1709571,0.134031 0.1190619,0.121316 0.1294477,0.14375 0.1094685,0.236467 -0.01214,0.05634 -0.042197,0.141795 -0.066792,0.189904 -0.024595,0.04811 -0.037733,0.11419 -0.029193,0.146844 0.00855,0.03265 -0.00444,0.107173 -0.028856,0.165594 -0.04997,0.119597 -0.031605,0.176821 0.049907,0.155505 0.09532,-0.02493 0.091215,0.0879 -0.00811,0.222963 -0.079457,0.108044 -0.087585,0.135863 -0.058408,0.199899 0.028523,0.0626 0.017348,0.112021 -0.070535,0.311902 -0.1663281,0.378299 -0.2389946,0.68314 -0.242272,1.016351 -0.00199,0.20305 0.00961,0.307821 0.037886,0.341921 0.022422,0.02704 0.030622,0.06558 0.018223,0.08564 -0.012662,0.02049 -5.766e-4,0.05254 0.02758,0.07313 0.050141,0.03666 0.2032927,0.351762 0.2032927,0.41826 0,0.0194 0.029082,0.09534 0.064629,0.168768 l 0.064628,0.133505 -0.066303,0.07058 c -0.036466,0.03882 -0.12047,0.095 -0.1866751,0.124856 -0.088201,0.03977 -0.120372,0.07256 -0.120372,0.122662 0,0.131796 0.2073012,0.140446 0.45947,0.01918 z"
           id="path3688-1-2-52-8-9-5" />
        <path
           id="path3682-9-3-7-8-9-6"
           style="fill:#000000;stroke-width:0.0305117"
           d="m -12.407571,42.283773 c -0.170515,-0.07368 -0.15725,-0.224369 0.02324,-0.264011 0.05443,-0.01196 0.133496,-0.04327 0.175696,-0.06959 0.168514,-0.105091 0.167855,-0.102393 0.174057,-0.713149 0.0032,-0.313872 0.01965,-0.596556 0.03657,-0.628185 0.01693,-0.03163 0.02356,-0.0851 0.01474,-0.118829 -0.02101,-0.08034 0.04611,-0.236308 0.23244,-0.540151 0.09113,-0.148597 0.163301,-0.308694 0.180382,-0.400124 0.01566,-0.08383 0.02548,-0.155406 0.02182,-0.159065 -0.0037,-0.0037 -0.114565,0.06249 -0.246458,0.146989 -0.179696,0.11513 -0.258102,0.14905 -0.3128,0.135321 -0.06681,-0.01677 -0.07002,-0.01277 -0.03791,0.04725 0.0277,0.05175 0.02581,0.07484 -0.0089,0.109604 -0.03838,0.03838 -0.05116,0.03301 -0.09947,-0.0417 -0.03049,-0.04716 -0.102987,-0.127318 -0.161108,-0.178138 -0.06203,-0.05423 -0.107456,-0.12355 -0.109987,-0.167815 -0.0032,-0.05608 -0.01909,-0.07283 -0.06198,-0.06535 -0.06698,0.01169 -0.352776,0.249923 -0.353963,0.295051 -6.92e-4,0.02695 -0.202835,0.137302 -0.251489,0.137302 -0.01028,0 -0.01587,-0.03664 -0.01243,-0.08141 0.0048,-0.06211 0.02363,-0.08269 0.07952,-0.08681 0.04989,-0.0037 0.168382,-0.106676 0.371427,-0.322868 0.249017,-0.265139 0.335366,-0.385369 0.523843,-0.729378 0.189326,-0.345562 0.223575,-0.429646 0.21263,-0.522029 -0.01052,-0.08879 -0.03268,-0.119484 -0.114395,-0.158449 -0.05574,-0.02658 -0.11031,-0.07657 -0.121266,-0.11109 -0.01105,-0.03482 -0.04617,-0.06276 -0.07889,-0.06276 -0.05074,0 -0.05982,-0.02448 -0.06506,-0.175442 -0.01077,-0.310337 -0.0025,-0.354276 0.08014,-0.425359 0.191094,-0.164374 0.481475,-0.09848 0.557549,0.126515 0.02244,0.06638 0.07108,0.152918 0.108083,0.192305 0.05024,0.05348 0.05763,0.07758 0.02918,0.09516 -0.0259,0.01601 0.0162,0.06188 0.131533,0.143323 0.09329,0.06588 0.213773,0.153417 0.267731,0.194528 0.05396,0.04111 0.08836,0.0634 0.07644,0.04953 -0.03766,-0.04384 0.06204,-0.192585 0.142649,-0.212816 0.141407,-0.03549 0.248114,0.01485 0.233882,0.110327 -0.0018,0.01198 0.01699,0.01402 0.04173,0.0045 0.02927,-0.01123 0.05552,0.01046 0.07516,0.06212 0.0166,0.04366 0.04572,0.07938 0.06471,0.07938 0.02099,0 0.02584,0.02094 0.01238,0.0534 -0.01218,0.02937 -0.02281,0.07056 -0.02361,0.09154 -8.07e-4,0.02098 -0.01895,0.03814 -0.04033,0.03814 -0.02138,0 -0.04758,0.01407 -0.05821,0.03127 -0.01063,0.0172 -0.008,0.02815 0.0058,0.02433 0.01383,-0.0038 0.07726,0.0034 0.14095,0.01614 0.08307,0.01655 0.123818,0.04417 0.144176,0.09771 0.01586,0.04172 0.05305,0.07464 0.08432,0.07464 0.03077,0 0.07998,0.01757 0.109346,0.03905 0.08192,0.0599 0.01716,0.196301 -0.120522,0.253828 -0.104355,0.0436 -0.10748,0.04909 -0.06432,0.112943 0.03167,0.04685 0.07021,0.06433 0.127646,0.05788 0.127572,-0.01432 0.210194,0.06109 0.268062,0.24467 0.06699,0.212517 0.06605,0.275041 -0.0055,0.363356 -0.04519,0.05581 -0.08607,0.07086 -0.185411,0.06825 -0.122831,-0.0032 -0.126713,-4.62e-4 -0.107388,0.07672 0.01102,0.04403 0.08122,0.243644 0.15599,0.443583 0.09089,0.243055 0.125797,0.373667 0.105337,0.394126 -0.02046,0.02046 -0.03742,0.01122 -0.05119,-0.0279 -0.01132,-0.03217 -0.09927,-0.230127 -0.195435,-0.439894 -0.09616,-0.209768 -0.184106,-0.420693 -0.195429,-0.468723 l -0.02059,-0.08733 -0.104835,0.117838 c -0.05766,0.06481 -0.168164,0.248275 -0.245566,0.407699 -0.0774,0.159423 -0.159771,0.311268 -0.183044,0.337432 -0.03664,0.04119 -0.0306,0.06159 0.04496,0.152115 0.048,0.0575 0.08115,0.120517 0.07366,0.140038 -0.0075,0.01952 0.01977,0.102103 0.06057,0.183515 0.04081,0.08141 0.09154,0.20294 0.112754,0.270066 0.02121,0.06713 0.07114,0.200582 0.110956,0.296569 0.08034,0.193687 0.09353,0.344792 0.03215,0.368346 -0.02213,0.0085 -0.114284,-0.01063 -0.204782,-0.0425 -0.0905,-0.03187 -0.196644,-0.05794 -0.235879,-0.05794 -0.07792,0 -0.251659,-0.07977 -0.250911,-0.115204 0.0015,-0.07254 0.06604,-0.109986 0.178064,-0.103376 0.0669,0.0039 0.130426,-0.007 0.141168,-0.02443 0.01074,-0.01738 0.0067,-0.0316 -0.0091,-0.0316 -0.01574,0 -0.04618,-0.04462 -0.06766,-0.09916 -0.09793,-0.248711 -0.187642,-0.415197 -0.233132,-0.432653 -0.1015,-0.03895 -0.175059,0.09916 -0.217715,0.408779 -0.07622,0.553259 -0.0843,0.643792 -0.06077,0.680824 0.02103,0.03309 0.03605,0.324576 0.01694,0.328698 -0.03244,0.007 -0.526738,0.06462 -0.648375,0.07559 -0.08391,0.0076 -0.180495,0.0017 -0.214641,-0.01307 z m 0.469165,-3.128786 c 0.0393,-0.03455 0.08441,-0.08687 0.100258,-0.116264 0.0256,-0.0475 0.01519,-0.05221 -0.0937,-0.0424 -0.134329,0.0121 -0.219544,0.06456 -0.197631,0.12166 0.0077,0.02014 -0.03085,0.05497 -0.08572,0.07741 l -0.09977,0.04079 0.07628,0.02189 c 0.08757,0.02513 0.197328,-0.01255 0.30029,-0.103083 z m -0.103755,-0.522927 c 0.03569,-0.03489 0.08759,-0.07615 0.115345,-0.09168 0.0394,-0.02205 0.04665,-0.05663 0.03309,-0.157764 -0.0096,-0.07124 -0.02586,-0.129511 -0.03624,-0.129494 -0.02905,4.8e-5 -0.304331,0.475793 -0.307263,0.531025 -0.0014,0.02698 0.06458,-0.02448 0.195071,-0.152083 z" />
        <path
           id="path3245-2-34-1-1-9-2"
           style="fill:#000000;stroke-width:0.0305117"
           d="m -9.3825717,42.261987 c 0.01604,-0.02098 0.026885,-0.209768 0.024098,-0.419536 -0.00279,-0.209768 0.00517,-0.395126 0.017682,-0.411908 0.012511,-0.01678 0.054017,-0.186258 0.092235,-0.376614 0.066262,-0.330034 0.074434,-0.349464 0.1760346,-0.418503 0.099764,-0.06779 0.1144838,-0.100695 0.2312071,-0.516832 0.098759,-0.352095 0.132469,-0.436621 0.1622504,-0.406839 0.020677,0.02068 0.037593,0.08123 0.037593,0.134556 0,0.05333 0.022094,0.149841 0.049099,0.214472 0.027004,0.06463 0.051969,0.186447 0.055476,0.270704 0.00351,0.08426 0.017254,0.177341 0.030547,0.206854 0.020781,0.04614 0.016066,0.233979 -0.020837,0.830198 l -0.0075,0.121065 0.2135816,0.03987 c 0.4245025,0.07923 0.4831905,0.08082 0.5430755,0.01464 0.0505,-0.0558 0.05092,-0.06443 0.0054,-0.109944 -0.02717,-0.02717 -0.07656,-0.04939 -0.109753,-0.04939 -0.08238,0 -0.229104,-0.07912 -0.250597,-0.135124 -0.0097,-0.02522 0.016,-0.193919 0.05705,-0.374897 0.04105,-0.180978 0.07477,-0.351398 0.07492,-0.378711 1.15e-4,-0.02731 0.01999,-0.06602 0.04408,-0.08602 0.02409,-0.02 0.05322,-0.07924 0.06474,-0.131649 0.01668,-0.07597 0.0078,-0.105925 -0.04381,-0.147713 -0.03561,-0.02883 -0.06474,-0.07162 -0.06474,-0.09509 0,-0.02347 -0.01907,-0.06875 -0.04237,-0.100623 -0.02331,-0.03187 -0.03549,-0.0759 -0.02707,-0.09783 0.02143,-0.05584 -0.04739,-0.504687 -0.100429,-0.655021 -0.03274,-0.0928 -0.03529,-0.135357 -0.0099,-0.165896 0.01875,-0.02259 0.02441,-0.06528 0.01258,-0.09486 -0.07443,-0.186086 -0.117228,-0.427445 -0.121074,-0.682811 -0.0033,-0.221659 -0.017383,-0.313184 -0.057441,-0.374318 -0.040482,-0.06179 -0.04375,-0.08378 -0.013818,-0.09302 0.29675,-0.09161 0.537841,-0.184084 0.580787,-0.222766 0.02937,-0.02645 0.0534,-0.08573 0.0534,-0.131721 0,-0.06663 -0.02946,-0.10215 -0.144931,-0.174774 -0.07971,-0.05013 -0.236176,-0.120856 -0.3477,-0.157166 -0.2263933,-0.07371 -0.2451489,-0.101985 -0.2214784,-0.333876 0.00916,-0.08971 1.153e-4,-0.158395 -0.024764,-0.188364 -0.078236,-0.0942 -0.1924561,-0.151158 -0.3030998,-0.151158 -0.1199983,0 -0.151175,0.02821 -0.2954725,0.267329 -0.062978,0.104365 -0.082374,0.116465 -0.1678146,0.104691 -0.053132,-0.0073 -0.1172007,-0.03089 -0.1423727,-0.05237 -0.025172,-0.02148 -0.2105314,-0.0686 -0.4119087,-0.104704 -0.4540278,-0.0814 -0.9490738,-0.208274 -1.0602568,-0.27173 -0.07672,-0.04379 -0.0882,-0.04356 -0.134437,0.0027 -0.04706,0.04707 -0.04503,0.05194 0.02947,0.07064 0.04401,0.01105 0.07705,0.0339 0.07341,0.0508 -0.0036,0.01689 0.06204,0.05062 0.145948,0.07496 0.08391,0.02434 0.195825,0.06407 0.248705,0.08828 0.05288,0.02422 0.11729,0.04403 0.143131,0.04403 0.08467,0 0.08049,0.05019 -0.01152,0.138342 -0.07278,0.06973 -0.09045,0.112268 -0.09045,0.21776 0,0.121181 0.01905,0.152351 0.251722,0.411861 0.138446,0.154417 0.3104757,0.34015 0.3822877,0.41274 0.1088885,0.11007 0.1253515,0.141723 0.099162,0.190658 -0.049558,0.0926 -0.037451,0.123713 0.048141,0.123713 0.060925,0 0.075085,0.01162 0.060497,0.04964 -0.010471,0.0273 -0.0055,0.06596 0.011059,0.08591 0.038761,0.04671 -0.086816,0.44418 -0.1403328,0.44418 -0.056248,0 -0.1328115,0.124313 -0.1328115,0.215642 0,0.103812 0.087384,0.18101 0.2048934,0.18101 0.080273,0 0.096458,0.01384 0.1159402,0.09916 0.0507,0.222044 0.026484,0.422508 -0.1393513,1.153544 -0.017346,0.07647 -0.023149,0.160891 -0.012895,0.187612 0.010252,0.02672 0.00369,0.05782 -0.014575,0.06911 -0.022622,0.01398 -0.032149,0.25587 -0.029865,0.758251 0.00384,0.844489 0.011117,0.875024 0.2084499,0.875024 0.064684,0 0.1307312,-0.01716 0.146771,-0.03814 z m -0.21028,-3.550151 c 0.00899,-0.05347 0.095849,-0.145511 0.1171788,-0.124182 0.00513,0.0051 -0.00722,0.05317 -0.027451,0.106753 -0.038817,0.102839 -0.1063099,0.115948 -0.089728,0.01743 z m -0.3710462,-1.057117 c -0.4738051,-0.521712 -0.4862701,-0.541017 -0.4054141,-0.627885 0.02611,-0.02805 0.09623,-0.103879 0.155831,-0.168509 0.06989,-0.07579 0.125181,-0.111053 0.155736,-0.09933 0.02606,0.01 0.1480186,0.04742 0.2710245,0.08316 0.3222994,0.09365 0.330404,0.118092 0.1853651,0.559073 -0.075631,0.229949 -0.1085448,0.376936 -0.095787,0.427767 0.01069,0.04259 0.00648,0.07744 -0.00935,0.07744 -0.015836,0 -0.1316653,-0.113275 -0.2573985,-0.251722 z" />
        <g
           id="g4460-9-7-1-64-0-4"
           transform="matrix(-0.11531985,0,0,0.11531985,55.50101,44.032423)">
          <path
             id="path3676-6-4-5-5-8-0-4"
             style="fill:#000000;stroke-width:0.264583"
             d="m 498.1026,-15.155734 c -1.85621,-0.120952 -2.55061,-0.275339 -2.97657,-0.661784 -0.30556,-0.277214 -0.55556,-0.645715 -0.55556,-0.818888 0,-0.566026 0.90351,-1.118198 2.07106,-1.265703 2.02153,-0.255397 2.07025,-0.378349 2.28852,-5.775365 0.13561,-3.35317 0.28868,-4.807188 0.5152,-4.894111 0.18822,-0.07223 0.27634,-0.436558 0.21185,-0.875933 -0.0607,-0.413745 0.0201,-0.832921 0.17961,-0.931505 0.16755,-0.103553 0.29001,-0.996918 0.29001,-2.115685 0,-1.065049 0.16503,-2.337943 0.36673,-2.828658 0.20171,-0.490712 0.44663,-1.267052 0.54428,-1.725197 l 0.17755,-0.832988 -1.40417,-0.187936 c -2.08632,-0.279231 -3.40446,-1.758789 -5.76507,-6.47101 -1.80723,-3.607578 -2.17005,-4.836814 -1.77037,-5.99808 0.16172,-0.469865 -0.0254,-0.722568 -1.11469,-1.505119 -0.71997,-0.517247 -1.52729,-1.124088 -1.79404,-1.348535 -0.26676,-0.224448 -0.72313,-0.59777 -1.01418,-0.829606 -0.29104,-0.231836 -0.35057,-0.34433 -0.13229,-0.249986 0.21828,0.09434 0.17098,-0.01208 -0.10512,-0.236487 -0.2761,-0.224412 -0.5905,-0.353326 -0.69867,-0.286476 -0.10816,0.06685 -0.39102,-0.17509 -0.62857,-0.537642 -0.40977,-0.625383 -0.40527,-0.659187 0.0877,-0.659187 0.28581,0 0.59829,0.127239 0.6944,0.282752 0.27923,0.451798 8.3183,5.557488 9.51374,6.042266 0.14554,0.05902 0.63304,0.386442 1.08334,0.727604 0.99859,0.756565 1.27371,0.767785 2.22455,0.09072 0.73005,-0.519839 1.72529,-2.736677 1.4376,-3.202164 -0.0768,-0.124343 -0.0119,-0.464924 0.14434,-0.756847 0.15623,-0.291922 0.35121,-1.038524 0.43327,-1.659114 0.0821,-0.62059 0.31694,-1.47406 0.52193,-1.8966 0.46982,-0.96841 0.47231,-0.951537 -0.14084,-0.951537 -0.28245,0 -0.58834,-0.121005 -0.67974,-0.268899 -0.0914,-0.147895 -0.27702,-0.200399 -0.41249,-0.116677 -0.13546,0.08372 -0.2463,-0.08491 -0.2463,-0.374729 0,-0.296059 -0.23383,-0.601168 -0.53366,-0.69633 -0.72496,-0.230092 -1.42547,-1.931892 -1.08645,-2.639341 0.14082,-0.293828 0.32626,-0.858359 0.4121,-1.254514 0.0859,-0.396154 0.40227,-0.949638 0.70316,-1.229963 1.52645,-1.422101 4.4488,-0.43292 4.88272,1.652742 0.0946,0.454668 0.34794,1.104179 0.563,1.443357 0.21505,0.339178 0.33221,0.769904 0.26035,0.957169 -0.13234,0.344865 2.05222,3.908142 2.49557,4.070588 0.13239,0.04851 0.24071,0.325039 0.24071,0.614516 0,0.519794 0.009,0.519521 0.69714,-0.02205 0.44346,-0.348825 1.08532,-0.548371 1.76389,-0.548371 0.58671,0 0.98711,0.07963 0.88978,0.176966 -0.0973,0.09733 -5.3e-4,0.372038 0.21534,0.610459 0.21674,0.239499 0.44038,1.125641 0.49974,1.980145 0.0941,1.354131 0.0311,1.617427 -0.50608,2.115229 -0.59592,0.552283 -0.59896,0.57766 -0.10587,0.885596 0.27919,0.174362 0.67166,0.317021 0.87215,0.317021 0.36771,0 1.23016,1.894892 1.23016,2.702809 0,0.496525 -1.32352,1.530525 -1.95907,1.530525 -0.24579,0 -0.42218,0.221091 -0.42218,0.529166 0,0.428374 0.17639,0.529167 0.92604,0.529167 2.03486,0 2.63165,1.918867 1.05833,3.402859 -0.50932,0.480407 -0.92604,1.027809 -0.92604,1.216449 0,0.477377 -0.77567,1.069234 -1.40131,1.069234 -0.39825,0 -0.59485,0.285631 -0.82911,1.204513 -0.32823,1.287515 -0.25029,3.395348 0.14086,3.809341 0.13061,0.138245 0.23748,0.511313 0.23748,0.829038 0,0.341172 0.20197,0.630499 0.49331,0.706686 0.57051,0.149191 0.94246,1.639922 0.67503,2.705431 -0.12258,0.488407 -0.0742,0.665538 0.16679,0.611155 0.49666,-0.112064 1.27139,3.824706 1.45586,7.397899 0.1612,3.122665 0.1653,3.110629 -1.01676,2.988416 -0.26111,-0.027 -1.06465,-0.487191 -1.78566,-1.022657 -1.03565,-0.769142 -1.31098,-1.131555 -1.3112,-1.725946 -2.1e-4,-0.536895 0.15555,-0.793129 0.54384,-0.894668 0.29927,-0.07826 0.4887,-0.286742 0.42096,-0.46329 -0.0678,-0.176546 -0.38897,-1.321758 -0.71383,-2.544914 -0.75617,-2.847173 -0.89477,-3.097495 -1.77098,-3.198524 -0.58054,-0.06694 -0.91221,-0.413962 -1.65375,-1.730306 -0.51016,-0.905619 -1.0073,-1.649759 -1.10474,-1.653646 -0.0974,-0.0039 -0.38091,0.618009 -0.62992,1.381993 -0.249,0.763984 -0.61071,1.686719 -0.80379,2.050521 -0.19307,0.363802 -0.68352,2.268802 -1.08987,4.233333 -0.6916,3.343537 -0.77728,4.611603 -0.54526,8.069792 l 0.071,1.058333 -1.32292,0.02545 c -0.7276,0.014 -2.41236,-0.04553 -3.74391,-0.132292 z m 3.58994,-24.27858 c 0.21185,-0.76726 0.1884,-1.029716 -0.11228,-1.25677 -0.32638,-0.246468 -0.30639,-0.449837 0.14155,-1.44036 0.28687,-0.634357 0.51904,-1.348733 0.51593,-1.587501 -0.008,-0.630052 -1.90241,-1.894348 -2.57476,-1.718524 -0.38156,0.09978 -0.63983,-0.02556 -0.84583,-0.410462 -0.1631,-0.304755 -0.43351,-0.554101 -0.60091,-0.554101 -0.42211,0 -1.5291,-1.077212 -1.5291,-1.48796 0,-0.428202 -3.34658,-2.834084 -3.66686,-2.636138 -0.13129,0.08114 -0.30078,0.472241 -0.37665,0.869111 -0.10324,0.540062 0.36094,1.731467 1.84518,4.736077 2.02452,4.098309 3.16321,5.797016 4.15438,6.197574 0.30662,0.123913 1.05791,0.232842 1.66953,0.242065 1.06018,0.01598 1.12453,-0.02846 1.37982,-0.953011 z" />
          <path
             style="fill:#000000;stroke-width:0.0572711"
             d="m 506.11198,-39.780852 c -0.44269,-0.668067 -0.98684,-1.561129 -1.61045,-1.837594 0.58626,-1.404802 -1.61778,-1.634771 -2.37985,-2.36476 -0.72131,-0.740378 -1.56023,-1.178978 -2.48421,-1.120492 -0.57025,-0.508656 -1.31091,-0.972741 -1.16844,0.193758 0.35748,1.052779 -0.64356,2.235334 -1.46751,1.141388 0.1535,-0.868435 0.41143,-2.261807 -0.78229,-2.430635 -1.30695,-0.384027 0.63978,-2.127539 -0.60496,-2.081729 -0.10644,0.351887 0.71935,0.557821 -0.0823,0.947814 -0.66074,1.09376 -2.38663,0.746267 -2.91906,-0.313829 -0.95239,-0.772414 -1.68787,-1.990454 -0.56643,-3.003792 0.24792,-0.571283 -1.22348,-0.659106 -1.49077,-1.21195 -1.51406,-1.16602 -3.13767,-2.18691 -4.7083,-3.282048 -0.73967,-0.383245 -1.92609,-1.488378 -2.3782,-1.272038 -0.53413,1.006323 0.0492,2.283651 0.0952,3.38453 0.002,1.022404 0.16088,2.226447 0.96045,2.741265 -0.52242,-0.282442 -1.0755,1.051014 -1.04487,-0.06121 -0.41501,-1.08414 -0.52441,-2.265052 -0.67513,-3.424051 -0.0137,-0.476458 -0.2955,-2.137746 -0.28564,-0.780815 0.20301,0.923261 -0.89483,0.493928 -0.66071,0.08153 -0.3336,0.68091 -1.25712,1.423474 -0.51968,1.992934 -0.29588,0.555018 -0.94023,-0.355305 -1.07319,0.582702 -0.68669,0.954528 -1.52504,2.742297 -2.52822,2.880909 -1.58222,-0.809122 1.00837,-1.038447 1.15749,-2.026639 1.08447,-1.701018 2.13842,-3.421345 3.14173,-5.167875 -0.048,-0.502621 0.0982,-0.96165 0.65476,-0.958492 -0.63154,-0.916287 -1.99025,-1.076207 -2.39667,-2.073027 -1.34553,-0.336398 0.0581,-1.668481 0.63022,-0.51986 0.79449,-0.261501 1.45869,0.807967 2.25999,0.936282 0.49176,0.40424 0.52965,-1.369383 1.02331,-0.378435 -1.12066,1.10342 1.08736,1.717831 1.74924,2.248884 1.63556,1.140019 3.30224,2.26974 5.11113,3.119101 0.87236,-0.78195 1.89633,1.182245 2.66734,0.491726 0.79972,-0.06648 -0.8149,1.091399 0.31259,1.236973 1.23625,0.150021 2.14896,1.080063 3.19263,1.717381 1.12631,0.721408 2.1148,1.572608 3.12426,2.440982 0.65625,0.29323 1.24779,1.521738 2.01455,1.122655 0.7793,0.08173 -0.33629,0.910274 0.69802,1.025975 1.07894,0.586402 1.92834,1.570107 3.16417,1.85575 0.9295,0.422637 2.77401,0.34521 3.01916,1.412894 -1.23463,0.126451 -2.09702,1.14578 -2.38064,2.351211 -0.10472,0.385663 -0.40082,0.998897 -0.76864,0.402639 z"
             id="path2495-6-2-4-8-6-2"
             sodipodi:nodetypes="ssssssssssscssscsssssssssssssssssscsssssss" />
        </g>
        <path
           d="m -9.1345145,39.33906 0.61207,-1.3141 0.0173,0.01 -0.0194,0.041 h -0.006 l -0.009,0.021 0.0572,0.026 0.01,-0.02 -0.0261,-0.012 0.019,-0.041 h 0.005 l 0.0197,-0.042 h 0.007 l 0.0138,-0.028 h -0.008 l 0.16263,-0.3482 h 0.0106 l 0.0127,-0.028 h -0.0102 l 0.024,-0.051 -0.048,-0.022 0.20355,-0.4364 c 0.0155,-0.01 0.0423,-0.025 0.0801,-0.068 0.036,-0.041 0.11148,-0.1252 0.17039,-0.1908 0.0473,-0.052 0.0833,-0.093 0.0833,-0.093 l 0.01,-0.02 -0.003,-0.01 0.0198,-0.043 -0.004,-0.061 -0.0145,-0.1994 c 0,0 -0.005,-0.049 -0.0607,-0.075 h -0.002 c -0.0557,-0.027 -0.0967,0 -0.0967,0 l -0.16193,0.1168 -0.0494,0.036 -0.0205,0.043 -0.009,0.01 -0.009,0.02 c 0,0 -0.008,0.054 -0.0173,0.1228 -0.0123,0.088 -0.0286,0.2 -0.037,0.2536 -0.009,0.056 -0.005,0.088 -7e-4,0.1044 l -1.04775,2.2486 z"
           id="path172-0-5" />
      </g>
    </g>
  </g>
</svg>
