<?xml version="1.0" encoding="UTF-8" standalone="no"?>
<!-- Created with Inkscape (http://www.inkscape.org/) -->

<svg
   width="11.050638mm"
   height="5.6600623mm"
   viewBox="0 0 11.050638 5.6600623"
   version="1.1"
   id="svg15601"
   inkscape:version="1.1.1 (3bf5ae0d25, 2021-09-20)"
   sodipodi:docname="inkporter-svg-fswrd51t.svg"
   xmlns:inkscape="http://www.inkscape.org/namespaces/inkscape"
   xmlns:sodipodi="http://sodipodi.sourceforge.net/DTD/sodipodi-0.dtd"
   xmlns="http://www.w3.org/2000/svg"
   xmlns:svg="http://www.w3.org/2000/svg">
  <sodipodi:namedview
     id="namedview15603"
     pagecolor="#ffffff"
     bordercolor="#666666"
     borderopacity="1.0"
     inkscape:pageshadow="2"
     inkscape:pageopacity="0.0"
     inkscape:pagecheckerboard="0"
     inkscape:document-units="mm"
     showgrid="false"
     inkscape:zoom="1.2810466"
     inkscape:cx="358.6911"
     inkscape:cy="503.49457"
     inkscape:window-width="1889"
     inkscape:window-height="1656"
     inkscape:window-x="3581"
     inkscape:window-y="141"
     inkscape:window-maximized="0"
     inkscape:current-layer="G-Infantry-MG5-4-Pfx3"
     inkscape:snap-nodes="true"
     inkscape:snap-bbox="true"
     inkscape:snap-others="true"
     inkscape:bbox-paths="true"
     inkscape:snap-global="true" />
  <defs
     id="defs15598">
    <clipPath
       clipPathUnits="userSpaceOnUse"
       id="clipPath48514-9-5-6-7-4">
      <path
         d="M 309.111,103.342 H 547.1 V 372.047 H 309.111 Z"
         id="path48512-3-2-8-8-0" />
    </clipPath>
    <clipPath
       clipPathUnits="userSpaceOnUse"
       id="clipPath48514-9-5-6-7-4-5">
      <path
         d="M 309.111,103.342 H 547.1 V 372.047 H 309.111 Z"
         id="path48512-3-2-8-8-0-2" />
    </clipPath>
    <clipPath
       clipPathUnits="userSpaceOnUse"
       id="clipPath48514-9-5-6-7-4-1">
      <path
         d="M 309.111,103.342 H 547.1 V 372.047 H 309.111 Z"
         id="path48512-3-2-8-8-0-4" />
    </clipPath>
  </defs>
  <g
     inkscape:label="Layer 1"
     inkscape:groupmode="layer"
     id="layer1"
     transform="translate(-20.704862,-20.921709)">
    <g
       id="G-Infantry3"
       transform="matrix(0.35277777,0,0,-0.35277777,-37.73694,197.49098)">
      <path
         d="m 172.87064,492.47792 c 0.056,0.064 0.104,0.303 0.104,0.303 0,0 -0.048,0.176 -0.136,0.161 -0.088,-0.018 -0.447,-0.024 -0.495,0.096 -0.048,0.119 -0.072,0.255 -0.072,0.255 l -0.567,0.088 c 0,0 0.176,-0.177 0.176,-0.248 0,-0.072 0,-0.113 0.072,-0.191 0.072,-0.081 0.215,-0.137 0.255,-0.24 0.039,-0.105 0.12,-0.384 0.12,-0.384 l 0.342,-0.191 c 0.081,0.15 0.146,0.287 0.201,0.351 m -4.178,1.023 c -0.032,-0.208 0.137,-0.208 0.487,-0.264 0.315,-0.05 0.832,0.129 1.025,0.219 l -0.01,0.003 c -0.16,0.074 -0.328,0.225 -0.328,0.225 0,0 -0.926,0.104 -0.99,0.136 -0.033,0.017 -0.13,0.037 -0.215,0.054 0.037,-0.083 0.054,-0.229 0.031,-0.373 m 5.959,-6.176 c -0.176,0.121 -0.087,0.48 -0.081,0.616 0.009,0.136 -0.215,0.105 -0.335,0.096 -0.12,-0.008 -0.303,-0.048 -0.431,0.048 -0.127,0.095 -0.726,0.08 -0.726,0.08 0,0 -0.009,-0.136 -0.065,-0.169 -0.055,-0.031 -0.096,-0.063 -0.055,-0.167 0.04,-0.104 -0.032,-0.263 -0.065,-0.334 -0.031,-0.073 -0.047,-0.097 -0.023,-0.17 0.023,-0.072 -0.16,-0.206 -0.312,-0.247 -0.152,-0.04 -0.064,-0.599 -0.023,-0.798 0.04,-0.199 -0.176,-0.488 -0.176,-0.488 0,0 0.056,-0.175 0.079,-0.231 0.025,-0.055 0.017,-0.527 0.056,-0.687 0.041,-0.159 -0.039,-0.167 -0.039,-0.167 0,0 -0.04,-0.184 -0.112,-0.209 -0.072,-0.023 -0.607,0.025 -0.607,0.025 l -0.009,0.143 c 0,0 -0.399,-0.087 -0.743,-0.168 -0.343,-0.08 -1.07,0.017 -1.261,0.05 -0.192,0.031 -0.248,0.078 -0.248,0.078 l 0.056,0.056 c 0,0 -0.104,0.24 -0.023,0.311 0.079,0.072 0.798,0.121 0.966,0.128 0.167,0.009 0.232,0.112 0.311,0.152 0.08,0.041 0.567,0.528 0.567,0.528 0,0 -0.056,0.096 -0.088,0.143 -0.031,0.05 -0.015,0.121 0.025,0.193 0.039,0.072 -0.008,0.326 -0.025,0.367 -0.015,0.04 -0.015,0.175 0.008,0.319 0.024,0.144 0,0.495 0,0.495 0,0 -0.079,0.144 -0.167,0.24 -0.088,0.096 -0.072,0.304 -0.008,0.407 0.064,0.104 -0.032,0.408 -0.032,0.519 0,0.112 0.16,0.56 0.168,0.632 0.007,0.071 0.007,0.383 0.127,0.742 0.12,0.36 0.632,0.367 0.886,0.424 0.256,0.055 0.064,0.158 -0.087,0.327 -0.152,0.168 -0.423,0.592 -0.471,0.687 -0.049,0.095 0.024,0.278 -0.185,0.399 -0.207,0.12 -0.191,0.264 -0.159,0.343 0.033,0.081 0.231,0.304 0.152,0.487 -0.08,0.184 -0.184,0.32 -0.184,0.32 0,0 -0.391,0.208 -0.495,0.319 -0.075,0.081 -0.28,0.161 -0.448,0.226 -0.217,-0.085 -0.699,-0.263 -1.054,-0.305 -0.471,-0.056 -0.743,0.159 -0.814,0.256 -0.072,0.096 -0.08,0.272 -0.08,0.366 0,0.06 0.043,0.143 0.092,0.193 l -0.842,0.112 c 0,0 -0.113,-0.048 -0.216,-0.032 -0.104,0.016 -0.264,0.056 -0.264,0.056 0,0 -0.296,0.032 -0.344,0.04 -0.048,0.008 -0.063,0.064 -0.063,0.064 0,0 -0.424,0.007 -0.527,0.032 -0.105,0.023 -0.113,0.088 -0.113,0.088 0,0 -0.391,0.038 -0.446,0.046 -0.056,0.01 -0.048,0.193 0.023,0.193 0.072,0 0.097,0.008 0.097,0.008 0,0 0.007,0.151 0.063,0.151 0.056,0 0.216,-0.016 0.312,-0.016 0.095,0 0.016,-0.191 0.016,-0.191 l 0.894,-0.073 c 0,0 0.08,0.016 0.128,0.032 0.048,0.017 0.32,-0.04 0.32,-0.04 l 0.143,-0.015 0.671,-0.024 c 0,0 0.224,0.031 0.28,0.031 0.055,0 0.143,-0.071 0.143,-0.071 h 2.012 l 0.105,-0.088 0.431,-0.016 c 0,0 0.144,0.048 0.2,0.04 0.056,-0.008 0.176,-0.032 0.176,-0.032 l 0.423,-0.032 c 0,0 0.111,0.048 0.168,0.048 0.056,0 0.144,-0.088 0.144,-0.088 l 0.311,-0.024 c 0,0 0.168,0.056 0.304,0.048 0.134,-0.007 0.191,-0.279 0.191,-0.279 0,0 0.048,-0.025 0.12,-0.032 0.071,-0.008 0.288,-0.152 0.288,-0.152 0,0 -0.032,0.231 -0.065,0.352 -0.032,0.119 0.009,0.183 0.009,0.183 l -0.119,0.208 c 0,0 -0.121,0.032 -0.176,0.055 -0.057,0.025 -0.049,0.096 -0.049,0.096 0,0 0.256,0.487 0.368,0.696 0.112,0.208 0.295,0.653 1.221,0.55 0.927,-0.104 0.919,-0.974 0.959,-1.174 0.04,-0.199 0.04,-0.352 0.073,-0.303 0.031,0.047 0.159,0.088 0.263,0.073 0.103,-0.017 0.614,-0.496 0.75,-0.584 0.136,-0.088 0.057,-0.201 0.081,-0.232 0.023,-0.032 0.343,-0.351 0.414,-0.527 0.072,-0.175 0.016,-0.983 -0.007,-1.198 -0.025,-0.215 -0.257,-0.552 -0.272,-0.655 -0.016,-0.104 0.103,-0.392 0.103,-0.392 0,0 0.408,-0.016 0.625,-0.087 0.215,-0.072 0.063,-0.552 0.063,-0.552 0,0 -0.063,-0.335 -0.08,-0.478 -0.016,-0.144 0.08,-0.121 0.04,-0.751 -0.04,-0.632 -0.528,-0.72 -0.528,-0.72 0,0 0,-0.183 0.017,-0.335 0.016,-0.151 -0.024,-0.71 -0.024,-0.71 l -0.224,-0.033 -0.2,-0.727 0.991,0.248 c 0,0 0.414,0.049 0.583,0.104 0.167,0.056 0.271,-0.055 0.271,-0.055 0,0 0.184,-0.009 0.24,-0.065 0.056,-0.056 0.095,-0.606 0.095,-0.606 0,0 -0.111,-0.04 -0.039,-0.193 0.072,-0.152 -0.024,-0.751 -0.12,-0.926 -0.096,-0.176 -0.223,-0.176 -0.694,-0.2 -0.473,-0.023 -0.225,0.568 -0.216,0.599 0.008,0.033 0.144,0.208 0.096,0.319 -0.049,0.113 -0.111,0.05 -0.184,0.025 -0.072,-0.025 -0.192,-0.152 -0.295,-0.295 -0.105,-0.144 -0.201,-0.113 -0.201,-0.113 0,0 -0.607,-0.375 -0.934,-0.511 -0.328,-0.135 -0.903,-0.216 -1.159,0 -0.255,0.216 -0.478,2.053 -0.494,2.429 0,0 -0.017,0.007 -0.192,0.126"
         id="path180002-2-7" />
      <path
         d="m 190.30745,492.65702 -0.216,0.09 0.165,-0.315 z m 4.421,-5.393 c -0.143,0.097 -0.284,0.315 -0.36,0.434 -0.074,0.12 -0.403,0.196 -0.47,0.561 -0.068,0.368 -0.187,0.389 -0.263,0.501 -0.074,0.113 -0.463,0.77 -0.523,0.89 -0.06,0.12 -0.613,1.026 -0.613,1.026 0,0 -0.037,-0.024 -0.165,-0.203 -0.127,-0.179 -0.179,-0.516 -0.269,-0.778 -0.089,-0.262 -0.075,-0.315 -0.029,-0.352 0.044,-0.038 0.171,-0.164 0.187,-0.292 0.014,-0.126 0.059,-0.328 0.156,-0.388 0.098,-0.061 0.15,-0.248 0.254,-0.337 0.106,-0.09 0.052,-0.314 0.052,-0.403 0,-0.09 0.203,-0.33 0.263,-0.36 0.06,-0.03 0.164,-0.239 0.224,-0.276 0.061,-0.038 0.3,-0.382 0.3,-0.382 0,0 0.239,-0.255 0.328,-0.351 0.09,-0.098 0.128,-0.053 0.128,-0.053 0,0 0.082,-0.067 0.269,-0.276 0.187,-0.21 -0.075,-0.599 -0.075,-0.599 l -0.074,0.053 c 0,0 -0.083,-0.337 -0.142,-0.45 -0.06,-0.112 -0.143,-0.358 -0.374,-0.605 -0.233,-0.247 -0.569,-0.127 -0.569,-0.127 l -0.046,0.082 c 0,0 -0.104,0.015 -0.134,0.18 -0.03,0.163 0.157,0.388 0.233,0.53 0.074,0.142 -0.023,0.808 -0.016,0.883 0.008,0.074 -0.307,0.277 -0.336,0.338 -0.031,0.059 -0.225,0.283 -0.225,0.283 0,0 -0.284,0.097 -0.434,0.335 -0.149,0.241 -0.508,0.248 -0.636,0.271 -0.126,0.022 -0.306,0.187 -0.351,0.306 -0.045,0.121 -0.367,0.493 -0.569,0.74 -0.201,0.248 -0.209,0.838 -0.238,1.085 -0.031,0.248 -0.039,1.473 -0.039,1.473 l -0.125,0.045 0.088,0.622 -0.568,0.987 c 0,0 -0.098,-0.097 -0.158,-0.082 -0.06,0.015 -0.06,0.029 -0.096,0.029 -0.037,0 -0.083,-0.052 -0.127,-0.044 -0.046,0.008 -0.097,0.059 -0.135,0.059 -0.037,0 -0.098,-0.038 -0.136,-0.022 -0.035,0.016 -0.133,0.045 -0.133,0.045 0,0 -0.127,0 -0.18,0.045 -0.053,0.046 -0.067,0.135 -0.067,0.135 l -0.367,-0.173 -0.112,-0.194 -0.411,0.075 -0.284,-0.165 -0.091,0.225 0.142,0.059 c 0,0 -0.142,0.306 -0.006,0.344 0.134,0.038 0.283,-0.2 0.283,-0.2 0,0 0.651,0.26 0.629,0.305 -0.022,0.046 0.037,0.09 0.09,0.187 0.052,0.097 0.105,0.18 0.105,0.18 0,0 -0.046,0.127 -0.046,0.201 0,0.076 0.232,0.172 0.299,0.262 0.067,0.09 0.008,0.195 0.031,0.247 0.022,0.054 0.089,0.06 0.127,0.097 0.037,0.038 0.045,0.21 0.097,0.262 0.052,0.053 0.142,0.119 0.135,0.158 -0.008,0.037 -0.075,0.082 -0.059,0.157 0.014,0.074 0.111,0.344 0.133,0.485 0.022,0.143 0.037,0.368 0.016,0.487 -0.024,0.119 0.119,0.314 0.157,0.419 0.037,0.106 0.133,0.719 0.164,0.815 0.03,0.096 0.352,0.486 0.352,0.486 0,0 -0.06,0 -0.12,0.023 -0.06,0.022 -0.12,0.163 -0.165,0.277 -0.045,0.11 -0.104,0.299 -0.135,0.358 -0.03,0.06 -0.126,0.293 -0.126,0.293 0,0 -0.112,0.059 -0.135,0.149 -0.022,0.09 -0.06,0.045 -0.112,0.068 -0.053,0.022 -0.18,0.066 -0.18,0.066 0,0 0.015,0.509 0.33,1.025 0.313,0.516 0.687,0.448 1.316,0.464 0.627,0.015 0.867,-1.01 0.867,-1.01 0,0 0.112,-0.075 0.15,-0.172 0.037,-0.097 0.015,-0.247 0.015,-0.247 h 0.111 c 0.054,0 0.33,-0.045 0.434,-0.172 0.105,-0.128 0.314,-0.149 0.495,-0.231 0.179,-0.084 0.075,-0.292 0.111,-0.307 0.038,-0.015 0.157,-0.038 0.285,-0.06 0.127,-0.022 0.419,-0.27 0.569,-0.398 0.15,-0.126 0.15,-0.253 0.179,-0.313 0.03,-0.059 0.419,-0.501 0.478,-0.598 0.06,-0.098 0.397,-0.554 0.442,-0.689 0.044,-0.134 0.127,-0.292 0.223,-0.411 0.098,-0.119 0.068,-0.268 -0.066,-0.635 -0.135,-0.368 -0.135,-0.374 -0.254,-0.524 -0.12,-0.15 -0.494,-0.62 -0.494,-0.62 0,0 0.225,0.082 0.427,0.119 0.201,0.037 0.314,-0.441 0.328,-0.568 0.015,-0.128 0.241,-0.457 0.337,-0.847 0.097,-0.388 -0.224,-0.516 -0.224,-0.516 0,0 0.044,-0.164 0.044,-0.291 0,-0.127 -0.119,-0.231 -0.119,-0.231 0,0 0.021,-0.134 -0.014,-0.211 -0.038,-0.072 -0.174,-0.043 -0.174,-0.043 0,0 0.054,-0.479 0.127,-0.608 0.076,-0.126 0.307,-0.733 0.337,-0.993 0.03,-0.262 0.128,-0.509 0.323,-0.629 0.193,-0.119 0.179,-0.246 0.208,-0.419 0.03,-0.171 0.053,-0.381 0.143,-0.455 0.089,-0.075 0.119,-0.18 0.112,-0.375 -0.008,-0.194 0.045,-0.277 0.15,-0.344 0.104,-0.067 0.134,-0.389 0.15,-0.487 0.014,-0.096 0.089,-0.433 0.239,-0.559 0.149,-0.127 0.112,-0.36 0.112,-0.36 0,0 0.172,-0.308 0.224,-0.367 0.052,-0.06 0.052,-0.217 0.052,-0.277 0,-0.059 0.067,-0.239 0.067,-0.239 l -0.224,-0.231 c 0,0 -0.262,-0.211 -0.448,-0.248 -0.187,-0.036 -0.568,0.075 -0.568,0.075 l 0.029,0.083 c 0,0 -0.029,0.031 0,0.187 0.03,0.157 0.12,0.262 0.164,0.358 0.045,0.098 0.008,0.472 0.008,0.472 l -0.067,0.044 c 0,0 -0.143,0.248 -0.262,0.39 -0.119,0.142 -0.434,0.471 -0.621,0.762 0,0 -0.128,0.097 -0.269,0.195"
         id="path180006-4-9" />
      <path
         d="m 184.17175,486.58522 c -0.007,-0.108 0.062,-0.565 0.071,-0.604 0.007,-0.038 0.185,0.209 0.216,0.286 0.031,0.077 0.084,0.194 0.099,0.263 0.016,0.071 0,0.192 0.016,0.239 0.015,0.046 -0.448,0.442 -0.448,0.442 0.024,-0.163 0.055,-0.519 0.046,-0.626 m -3.314,7.94 c -0.015,0.107 0.031,0.24 0.109,0.247 0.077,0.009 0.139,-0.022 0.155,0.031 0.014,0.055 -0.093,0.378 -0.093,0.378 0,0 -0.418,-0.471 -0.503,-0.533 -0.084,-0.062 -0.44,-0.238 -0.509,-0.238 -0.069,0 -0.371,0.068 -0.433,0.216 -0.062,0.146 -0.07,0.216 -0.131,0.355 -0.062,0.139 -0.085,0.223 -0.046,0.309 0.038,0.084 0.031,0.177 0.023,0.224 -0.008,0.046 0,0.217 0.046,0.27 0.046,0.054 -0.015,0.069 -0.023,0.162 -0.008,0.093 -0.101,0.147 0.03,0.294 0.132,0.147 0.225,0.371 0.225,0.371 l -0.093,0.107 c 0,0 -0.085,0.056 -0.139,0.102 -0.054,0.046 -0.131,0.124 -0.139,0.208 -0.008,0.084 -0.008,0.278 -0.008,0.278 l -0.139,0.061 c 0,0 -0.162,-0.432 -0.193,-0.516 -0.031,-0.086 -0.163,-0.232 -0.17,-0.403 -0.007,-0.169 -0.1,-0.486 0.085,-1.02 0.186,-0.532 0.178,-0.756 0.309,-0.864 0.131,-0.108 0.363,-0.209 0.549,-0.247 0.185,-0.039 0.748,-0.148 0.95,-0.279 0.2,-0.131 0.24,-0.115 0.24,-0.115 -0.055,0.177 -0.086,0.494 -0.102,0.602 m 2.311,-7.833 c -0.016,0.178 -0.24,0.703 -0.263,0.772 -0.024,0.07 -0.015,0.124 -0.015,0.163 0,0.039 -0.395,0.432 -0.449,0.533 -0.054,0.1 -0.062,0.524 -0.085,0.703 -0.023,0.178 -0.154,0.316 -0.224,0.393 -0.069,0.077 -0.17,0.573 -0.17,0.65 0,0.077 -0.332,1.498 -0.378,1.529 -0.047,0.031 -0.139,0.046 -0.248,0.054 -0.108,0.008 -0.116,0.046 -0.116,0.046 v 0.148 l -0.161,0.046 c 0,0 -0.093,0.294 0.085,0.548 0.177,0.254 0.285,1.259 0.285,1.259 0,0 -0.541,0.264 -0.912,0.418 -0.37,0.154 -1.057,0.293 -1.135,0.308 -0.077,0.016 -0.433,0.395 -0.494,0.627 -0.062,0.231 -0.348,1.104 -0.356,1.297 -0.008,0.193 0.279,0.834 0.379,1.112 0.1,0.278 0.069,0.263 0.069,0.263 l -0.625,0.354 h -0.093 l -0.084,0.055 -0.124,0.1 -0.132,0.055 -0.008,0.085 -0.826,0.409 0.039,0.085 0.509,-0.255 0.023,0.054 -0.501,0.255 -0.132,0.031 -0.139,0.117 -0.17,0.084 0.101,0.139 0.084,-0.047 0.07,0.124 0.324,-0.177 -0.045,-0.139 0.803,-0.395 0.124,-0.046 0.014,-0.054 0.163,-0.069 h 0.054 l 0.092,-0.047 0.023,-0.062 1.268,-0.563 0.688,-0.34 0.169,0.154 c 0.085,0.077 0.116,0.085 0.17,0.232 0.054,0.146 0.356,0.27 0.394,0.308 0.038,0.04 0.023,0.14 -0.047,0.318 -0.069,0.177 -0.115,0.471 -0.115,0.471 0,0 -0.178,0.054 -0.225,0.109 -0.046,0.053 -0.046,0.115 -0.216,0.277 -0.169,0.162 0.093,0.379 0.178,0.495 0.085,0.115 0.147,0.432 0.24,0.587 0.093,0.154 0.432,0.293 1.081,0.231 0.648,-0.062 0.757,-0.34 0.788,-0.51 0.031,-0.17 0.17,-0.934 0.271,-1.111 0.1,-0.179 0.015,-0.155 -0.078,-0.155 -0.092,0 -0.271,0.031 -0.271,0.031 0,0 -0.022,-0.015 -0.076,-0.101 -0.055,-0.085 -0.024,-0.147 0.014,-0.17 0.04,-0.023 0.133,0.023 0.318,0.077 0.186,0.054 0.362,-0.131 0.447,-0.185 0.085,-0.054 0.24,-0.031 0.302,-0.038 0.062,-0.008 0.363,-0.279 0.378,-0.372 0.016,-0.092 0.139,-0.146 0.185,-0.208 0.046,-0.062 0.139,-0.092 0.24,-0.178 0.101,-0.085 0.078,-0.324 0.178,-0.371 0.1,-0.046 0.517,-0.749 0.656,-0.826 0.139,-0.077 0.139,-0.24 0.186,-0.417 0.046,-0.178 0.255,-0.34 0.325,-0.487 0.068,-0.147 0.037,-0.416 -0.046,-0.626 -0.086,-0.208 -0.472,-0.363 -0.604,-0.393 -0.13,-0.031 -0.448,-0.178 -0.448,-0.178 l 0.179,-0.163 -0.093,-0.192 c 0,0 0.294,0.077 0.393,0.084 0.101,0.008 0.139,-0.162 0.178,-0.3 0.038,-0.14 0.077,-0.68 0.162,-1.105 0.085,-0.426 -0.31,-0.666 -0.31,-0.666 0,0 -0.006,-0.084 0,-0.114 0.009,-0.031 -0.084,-0.186 -0.145,-0.248 -0.062,-0.062 -0.179,0.016 -0.179,0.016 0,0 0.031,-0.101 -0.046,-0.171 -0.077,-0.069 -0.347,-0.1 -0.347,-0.1 0,0 -0.023,-0.093 -0.023,-0.123 0,-0.03 -0.185,-0.309 -0.201,-0.364 -0.015,-0.053 0.092,-0.301 -0.024,-0.586 -0.115,-0.287 -0.309,-0.51 -0.34,-0.549 -0.03,-0.038 -0.092,-0.302 -0.092,-0.302 0,0 0.147,-0.247 0.085,-0.362 -0.061,-0.116 -0.045,-0.278 -0.045,-0.278 0,0 0.339,-0.301 0.516,-0.619 0.178,-0.315 0.356,-0.253 0.517,-0.331 0.164,-0.077 0.086,-0.217 0.086,-0.217 0,0 0.185,-0.093 0.331,-0.178 0.148,-0.085 0.179,-0.308 0.179,-0.308 0,0 0.062,-0.108 0.116,-0.209 0.053,-0.101 -0.217,-0.463 -0.217,-0.463 h -0.14 c 0,0 -0.015,-0.194 -0.006,-0.263 0.006,-0.07 -0.179,-0.533 -0.318,-0.696 -0.139,-0.162 -0.393,-0.169 -0.694,-0.162 -0.302,0.007 -0.118,0.002 -0.287,-0.308 -0.154,-0.287 -0.447,-0.533 -1.003,-0.533 -0.557,0 -0.123,0.502 0.131,0.864 0.254,0.364 0.054,0.496 0.038,0.78 0,0 -0.092,0.402 -0.107,0.58"
         id="path180010-8-1" />
    </g>
  </g>
</svg>
