<?xml version="1.0" encoding="UTF-8" standalone="no"?>
<!-- Created with Inkscape (http://www.inkscape.org/) -->

<svg
   width="10.597146mm"
   height="6.0150752mm"
   viewBox="0 0 10.597146 6.0150752"
   version="1.1"
   id="svg1"
   sodipodi:docname="inkporter-svg-enz6kram.svg"
   xmlns:inkscape="http://www.inkscape.org/namespaces/inkscape"
   xmlns:sodipodi="http://sodipodi.sourceforge.net/DTD/sodipodi-0.dtd"
   xmlns="http://www.w3.org/2000/svg"
   xmlns:svg="http://www.w3.org/2000/svg">
  <sodipodi:namedview
     id="namedview1"
     pagecolor="#ffffff"
     bordercolor="#666666"
     borderopacity="1.0"
     inkscape:showpageshadow="2"
     inkscape:pageopacity="0.0"
     inkscape:pagecheckerboard="0"
     inkscape:deskcolor="#d1d1d1"
     inkscape:document-units="mm"
     inkscape:zoom="1.4556538"
     inkscape:cx="363.4106"
     inkscape:cy="674.95446"
     inkscape:window-width="1920"
     inkscape:window-height="1017"
     inkscape:window-x="-8"
     inkscape:window-y="-8"
     inkscape:window-maximized="1"
     inkscape:current-layer="layer1" />
  <defs
     id="defs1" />
  <g
     inkscape:label="Layer 1"
     inkscape:groupmode="layer"
     id="layer1"
     transform="translate(-110.53389,-237.95451)">
    <g
       id="G-InfantryStG4-Pf"
       transform="translate(123.74003,201.66943)">
      <path
         id="path3682-9-3-3-3-3-1"
         style="fill:#000000;stroke-width:0.0305117"
         d="m -12.407571,42.283773 c -0.170515,-0.07368 -0.15725,-0.224369 0.02324,-0.264011 0.05443,-0.01196 0.133496,-0.04327 0.175696,-0.06959 0.168514,-0.105091 0.167855,-0.102393 0.174057,-0.713149 0.0032,-0.313872 0.01965,-0.596556 0.03657,-0.628185 0.01693,-0.03163 0.02356,-0.0851 0.01474,-0.118829 -0.02101,-0.08034 0.04611,-0.236308 0.23244,-0.540151 0.09113,-0.148597 0.163301,-0.308694 0.180382,-0.400124 0.01566,-0.08383 0.02548,-0.155406 0.02182,-0.159065 -0.0037,-0.0037 -0.114565,0.06249 -0.246458,0.146989 -0.179696,0.11513 -0.258102,0.14905 -0.3128,0.135321 -0.06681,-0.01677 -0.07002,-0.01277 -0.03791,0.04725 0.0277,0.05175 0.02581,0.07484 -0.0089,0.109604 -0.03838,0.03838 -0.05116,0.03301 -0.09947,-0.0417 -0.03049,-0.04716 -0.102987,-0.127318 -0.161108,-0.178138 -0.06203,-0.05423 -0.107456,-0.12355 -0.109987,-0.167815 -0.0032,-0.05608 -0.01909,-0.07283 -0.06198,-0.06535 -0.06698,0.01169 -0.352776,0.249923 -0.353963,0.295051 -6.92e-4,0.02695 -0.202835,0.137302 -0.251489,0.137302 -0.01028,0 -0.01587,-0.03664 -0.01243,-0.08141 0.0048,-0.06211 0.02363,-0.08269 0.07952,-0.08681 0.04989,-0.0037 0.168382,-0.106676 0.371427,-0.322868 0.249017,-0.265139 0.335366,-0.385369 0.523843,-0.729378 0.189326,-0.345562 0.223575,-0.429646 0.21263,-0.522029 -0.01052,-0.08879 -0.03268,-0.119484 -0.114395,-0.158449 -0.05574,-0.02658 -0.11031,-0.07657 -0.121266,-0.11109 -0.01105,-0.03482 -0.04617,-0.06276 -0.07889,-0.06276 -0.05074,0 -0.05982,-0.02448 -0.06506,-0.175442 -0.01077,-0.310337 -0.0025,-0.354276 0.08014,-0.425359 0.191094,-0.164374 0.481475,-0.09848 0.557549,0.126515 0.02244,0.06638 0.07108,0.152918 0.108083,0.192305 0.05024,0.05348 0.05763,0.07758 0.02918,0.09516 -0.0259,0.01601 0.0162,0.06188 0.131533,0.143323 0.09329,0.06588 0.213773,0.153417 0.267731,0.194528 0.05396,0.04111 0.08836,0.0634 0.07644,0.04953 -0.03766,-0.04384 0.06204,-0.192585 0.142649,-0.212816 0.141407,-0.03549 0.248114,0.01485 0.233882,0.110327 -0.0018,0.01198 0.01699,0.01402 0.04173,0.0045 0.02927,-0.01123 0.05552,0.01046 0.07516,0.06212 0.0166,0.04366 0.04572,0.07938 0.06471,0.07938 0.02099,0 0.02584,0.02094 0.01238,0.0534 -0.01218,0.02937 -0.02281,0.07056 -0.02361,0.09154 -8.07e-4,0.02098 -0.01895,0.03814 -0.04033,0.03814 -0.02138,0 -0.04758,0.01407 -0.05821,0.03127 -0.01063,0.0172 -0.008,0.02815 0.0058,0.02433 0.01383,-0.0038 0.07726,0.0034 0.14095,0.01614 0.08307,0.01655 0.123818,0.04417 0.144176,0.09771 0.01586,0.04172 0.05305,0.07464 0.08432,0.07464 0.03077,0 0.07998,0.01757 0.109346,0.03905 0.08192,0.0599 0.01716,0.196301 -0.120522,0.253828 -0.104355,0.0436 -0.10748,0.04909 -0.06432,0.112943 0.03167,0.04685 0.07021,0.06433 0.127646,0.05788 0.127572,-0.01432 0.210194,0.06109 0.268062,0.24467 0.06699,0.212517 0.06605,0.275041 -0.0055,0.363356 -0.04519,0.05581 -0.08607,0.07086 -0.185411,0.06825 -0.122831,-0.0032 -0.126713,-4.62e-4 -0.107388,0.07672 0.01102,0.04403 0.08122,0.243644 0.15599,0.443583 0.09089,0.243055 0.125797,0.373667 0.105337,0.394126 -0.02046,0.02046 -0.03742,0.01122 -0.05119,-0.0279 -0.01132,-0.03217 -0.09927,-0.230127 -0.195435,-0.439894 -0.09616,-0.209768 -0.184106,-0.420693 -0.195429,-0.468723 l -0.02059,-0.08733 -0.104835,0.117838 c -0.05766,0.06481 -0.168164,0.248275 -0.245566,0.407699 -0.0774,0.159423 -0.159771,0.311268 -0.183044,0.337432 -0.03664,0.04119 -0.0306,0.06159 0.04496,0.152115 0.048,0.0575 0.08115,0.120517 0.07366,0.140038 -0.0075,0.01952 0.01977,0.102103 0.06057,0.183515 0.04081,0.08141 0.09154,0.20294 0.112754,0.270066 0.02121,0.06713 0.07114,0.200582 0.110956,0.296569 0.08034,0.193687 0.09353,0.344792 0.03215,0.368346 -0.02213,0.0085 -0.114284,-0.01063 -0.204782,-0.0425 -0.0905,-0.03187 -0.196644,-0.05794 -0.235879,-0.05794 -0.07792,0 -0.251659,-0.07977 -0.250911,-0.115204 0.0015,-0.07254 0.06604,-0.109986 0.178064,-0.103376 0.0669,0.0039 0.130426,-0.007 0.141168,-0.02443 0.01074,-0.01738 0.0067,-0.0316 -0.0091,-0.0316 -0.01574,0 -0.04618,-0.04462 -0.06766,-0.09916 -0.09793,-0.248711 -0.187642,-0.415197 -0.233132,-0.432653 -0.1015,-0.03895 -0.175059,0.09916 -0.217715,0.408779 -0.07622,0.553259 -0.0843,0.643792 -0.06077,0.680824 0.02103,0.03309 0.03605,0.324576 0.01694,0.328698 -0.03244,0.007 -0.526738,0.06462 -0.648375,0.07559 -0.08391,0.0076 -0.180495,0.0017 -0.214641,-0.01307 z m 0.469165,-3.128786 c 0.0393,-0.03455 0.08441,-0.08687 0.100258,-0.116264 0.0256,-0.0475 0.01519,-0.05221 -0.0937,-0.0424 -0.134329,0.0121 -0.219544,0.06456 -0.197631,0.12166 0.0077,0.02014 -0.03085,0.05497 -0.08572,0.07741 l -0.09977,0.04079 0.07628,0.02189 c 0.08757,0.02513 0.197328,-0.01255 0.30029,-0.103083 z m -0.103755,-0.522927 c 0.03569,-0.03489 0.08759,-0.07615 0.115345,-0.09168 0.0394,-0.02205 0.04665,-0.05663 0.03309,-0.157764 -0.0096,-0.07124 -0.02586,-0.129511 -0.03624,-0.129494 -0.02905,4.8e-5 -0.304331,0.475793 -0.307263,0.531025 -0.0014,0.02698 0.06458,-0.02448 0.195071,-0.152083 z" />
      <path
         id="path3245-2-34-5-8-4-2"
         style="fill:#000000;stroke-width:0.0305117"
         d="m -9.5973604,37.876117 c -0.025701,0.101834 -0.03278,0.13959 -0.00507,0.226407 0.018528,0.05804 0.017207,0.09017 0.00262,0.128188 -0.010471,0.0273 -0.0055,0.06596 0.011059,0.08591 0.038761,0.04671 -0.086816,0.44418 -0.1403328,0.44418 -0.056248,0 -0.1328115,0.124313 -0.1328115,0.215642 0,0.103812 0.087384,0.18101 0.2048934,0.18101 0.080273,0 0.096458,0.01384 0.1159402,0.09916 0.0507,0.222044 0.026484,0.422508 -0.1393513,1.153544 -0.017346,0.07647 -0.023149,0.160891 -0.012895,0.187612 0.010252,0.02672 0.00369,0.05782 -0.014575,0.06911 -0.022622,0.01398 -0.032149,0.25587 -0.029865,0.758251 0.00384,0.844489 0.011117,0.875024 0.2084499,0.875024 0.064684,0 0.1307312,-0.01716 0.146771,-0.03814 l -4.83e-5,-2.8e-5 c 0.01604,-0.02098 0.026885,-0.209768 0.024098,-0.419536 -0.00279,-0.209768 0.00517,-0.395126 0.017682,-0.411908 0.012511,-0.01678 0.054017,-0.186258 0.092235,-0.376614 0.066262,-0.330034 0.074434,-0.349464 0.1760346,-0.418503 0.099764,-0.06779 0.1144838,-0.100695 0.2312071,-0.516832 0.098759,-0.352095 0.132469,-0.436621 0.1622504,-0.406839 0.020677,0.02068 0.037593,0.08123 0.037593,0.134556 0,0.05333 0.022094,0.149841 0.049099,0.214472 0.027004,0.06463 0.051969,0.186447 0.055476,0.270704 0.00351,0.08426 0.017254,0.177341 0.030547,0.206854 0.020781,0.04614 0.016066,0.233979 -0.020837,0.830198 l -0.0075,0.121065 0.2135816,0.03987 c 0.4245025,0.07923 0.4831905,0.08082 0.5430755,0.01464 0.0505,-0.0558 0.05092,-0.06443 0.0054,-0.109944 -0.02717,-0.02717 -0.07656,-0.04939 -0.109753,-0.04939 -0.08238,0 -0.229104,-0.07912 -0.250597,-0.135124 -0.0097,-0.02522 0.016,-0.193919 0.05705,-0.374897 0.04105,-0.180978 0.07477,-0.351398 0.07492,-0.378711 1.15e-4,-0.02731 0.01999,-0.06602 0.04408,-0.08602 0.02409,-0.02 0.05322,-0.07924 0.06474,-0.131649 0.01668,-0.07597 0.0078,-0.105925 -0.04381,-0.147713 -0.03561,-0.02883 -0.06474,-0.07162 -0.06474,-0.09509 0,-0.02347 -0.01907,-0.06875 -0.04237,-0.100623 -0.02331,-0.03187 -0.03549,-0.0759 -0.02707,-0.09783 0.02143,-0.05584 -0.04739,-0.504687 -0.100429,-0.655021 -0.03274,-0.0928 -0.03529,-0.135357 -0.0099,-0.165896 0.01875,-0.02259 0.02441,-0.06528 0.01258,-0.09486 -0.07443,-0.186086 -0.117228,-0.427445 -0.121074,-0.682811 -0.0033,-0.221659 -0.017383,-0.313184 -0.057441,-0.374318 -0.040482,-0.06179 -0.04375,-0.08378 -0.013818,-0.09302 0.29675,-0.09161 0.537841,-0.184084 0.580787,-0.222766 0.02937,-0.02645 0.0534,-0.08573 0.0534,-0.131721 0,-0.06663 -0.02946,-0.10215 -0.144931,-0.174774 -0.07971,-0.05013 -0.236176,-0.120856 -0.3477,-0.157166 -0.2263933,-0.07371 -0.2451489,-0.101985 -0.2214784,-0.333876 0.00916,-0.08971 1.153e-4,-0.158395 -0.024764,-0.188364 -0.078236,-0.0942 -0.1924561,-0.151158 -0.3030998,-0.151158 -0.1199983,0 -0.151175,0.02821 -0.2954725,0.267329 -0.062978,0.104365 -0.082374,0.116465 -0.1678146,0.104691 -0.053132,-0.0073 -0.1459694,-0.02891 -0.1540657,0.0032 l -0.1615219,0.635397 z m 0.00451,0.835719 c 0.00899,-0.05347 0.095849,-0.145511 0.1171788,-0.124182 0.00513,0.0051 -0.00722,0.05317 -0.027451,0.106753 -0.038817,0.102839 -0.1063099,0.115948 -0.089728,0.01743 z"
         sodipodi:nodetypes="cssssssssssssccssssssssssscsssssscssssssssscssssssssssscccsssss" />
      <path
         style="fill:#000000;stroke-width:0.0385012"
         d="m -4.7293902,42.12646 c -0.05264,-0.0633 -0.01651,-0.11751 0.127838,-0.19172 0.114446,-0.0588 0.251848,-0.21713 0.299368,-0.34492 0.03144,-0.0846 -0.03805,-0.28699 -0.107749,-0.31374 l -0.0533,-0.0205 1.51e-4,-0.41579 c 6.6e-5,-0.22868 -0.0025,-0.4591 -0.0058,-0.51203 -0.0033,-0.0529 0.01518,-0.30835 0.04157,-0.56757 l 0.04794,-0.4713 -0.04677,-0.0564 c -0.02573,-0.031 -0.03545,-0.0748 -0.02154,-0.0973 l 0.02524,-0.0408 -0.08387,-0.13572 -0.08387,-0.13572 0.01752,-0.0919 0.0176,-0.0919 -0.08079,-0.0222 c -0.09563,-0.0263 -0.29253,-0.29888 -0.29253,-0.40491 0,-0.0408 0.01877,-0.0858 0.04166,-0.1 0.02296,-0.0141 0.07418,-0.1016 0.113925,-0.19429 0.03973,-0.0927 0.140586,-0.26104 0.224122,-0.37412 l 0.151893,-0.20562 0.176944,-0.0676 0.176952,-0.0675 v -0.0717 -0.0717 l -0.10588,-0.0519 -0.10588,-0.0519 0.01241,-0.0754 c 0.0067,-0.0414 0.02573,-0.16046 0.04199,-0.2645 l 0.02967,-0.18913 0.08736,-0.0708 0.08737,-0.0708 h 0.13301 c 0.07316,0 0.1664171,0.0178 0.2072341,0.0398 l 0.07418,0.0398 0.02431,0.15206 c 0.0134,0.0836 0.04811,0.17184 0.07728,0.19601 0.02908,0.0242 0.05297,0.0831 0.05297,0.13078 v 0.0868 l -0.08205,0.0545 -0.08214,0.0545 0.06386,0.12345 0.06378,0.12344 h 0.07467 c 0.04107,0 0.131592,0.05 0.201148,0.1112 l 0.126464,0.1112 0.06722,0.30269 c 0.03696,0.16647 0.07693,0.38873 0.08883,0.49391 0.0119,0.10518 0.03662,0.20936 0.05506,0.23153 l 0.03344,0.0403 0.01249,1.02629 0.01249,1.02629 0.0913,0.0972 0.09131,0.0972 -0.02456,0.12729 c -0.03026,0.15681 -0.02934,0.13149 -0.02036,0.55322 l 0.0076,0.34893 -0.04509,0.0842 -0.04509,0.0842 h -0.171978 -0.171907 v -0.059 c 0,-0.0324 0.02699,-0.1234 0.05993,-0.20212 l 0.05993,-0.14314 -0.02573,-0.18783 -0.02573,-0.18783 -0.135708,-0.11916 -0.135716,-0.11916 -0.170785,-0.36679 c -0.09392,-0.20205 -0.192575,-0.45143 -0.219201,-0.5545 l -0.04844,-0.1874 -0.04216,0.1104 c -0.0414,0.10832 -0.09194,0.63539 -0.101035,1.05367 -0.0025,0.11646 -0.01684,0.23054 -0.03185,0.25349 -0.0212,0.0325 -0.01307,0.36915 0.01307,0.54706 0.0025,0.015 0.0017,0.0575 0,0.0947 l -0.0042,0.0673 h -0.1576 -0.157551 l -0.09789,0.077 -0.0979,0.077 h -0.144044 -0.144107 z m 0.430936,-3.53831 c -0.0087,-0.0145 -0.05925,0.0139 -0.112401,0.0632 l -0.09661,0.0896 0.04694,0.10306 0.04694,0.10307 0.06546,-0.16624 c 0.03603,-0.0914 0.05833,-0.17811 0.0497,-0.19261 z"
         id="path19-7-2-3" />
      <path
         style="fill:#000000;stroke-width:0.0385012"
         d="m -6.7500364,42.189216 c 0.04232,-0.0424 0.08566,-0.077 0.09625,-0.077 h 0.06353 0.04425 l -0.02481,-0.37852 -0.02481,-0.37852 0.09821,-0.0923 0.09822,-0.0923 -0.01785,-0.0682 c -0.0097,-0.0375 -0.005,-0.076 0.01048,-0.0857 0.01559,-0.01 0.04953,-0.11227 0.07543,-0.22807 0.0259,-0.11579 0.07216,-0.23132 0.102778,-0.25673 l 0.05566,-0.0462 0.05808,0.0482 c 0.03193,0.0265 0.06897,0.11643 0.08231,0.19981 0.0134,0.0833 0.04953,0.17686 0.08038,0.20775 0.0704,0.0704 0.150601,0.36966 0.184915,0.69 l 0.02624,0.24545 0.115509,0.0253 0.115502,0.0254 0.0559,-0.0559 0.0559,-0.0559 -0.07997,-0.23742 -0.07997,-0.23743 0.02515,-0.10532 c 0.01383,-0.0579 0.0378,-0.12266 0.05314,-0.14383 0.01542,-0.0212 0.03747,-0.0905 0.04894,-0.154 l 0.02087,-0.11549 -0.05683,-0.13477 -0.05683,-0.13476 -0.03285,-0.40426 c -0.0181,-0.22235 -0.02346,-0.48438 -0.0119,-0.58229 l 0.02095,-0.17803 0.0652,0.0171 0.06521,0.0171 0.0528,-0.15987 0.0528,-0.15988 -0.04618,-0.12192 -0.04627,-0.12191 0.120271,-0.29173 0.120255,-0.29175 -0.106308,-0.22802 -0.106308,-0.22802 -0.186725,-0.18735 c -0.102702,-0.10304 -0.186724,-0.20149 -0.186724,-0.21876 0,-0.0173 -0.05054,-0.0674 -0.112225,-0.11133 l -0.112224,-0.0799 -0.185795,-0.0254 c -0.183045,-0.025 -0.282782,-0.0828 -0.282782,-0.16371 0,-0.0227 0.01551,-0.0412 0.03437,-0.0412 0.01895,0 0.04534,-0.0287 0.05883,-0.0637 l 0.02447,-0.0638 -0.07301,-0.0806 c -0.04014,-0.0443 -0.08441,-0.12872 -0.09833,-0.1875 -0.014,-0.0588 -0.05951,-0.14107 -0.101303,-0.18287 l -0.07602,-0.076 h -0.132609 -0.132616 l -0.09494,0.0866 -0.09495,0.0867 -0.02515,0.28009 -0.02515,0.28009 0.127544,0.0534 c 0.07015,0.0293 0.13995,0.0659 0.155078,0.0811 0.0383,0.0385 -0.03864,0.17158 -0.09917,0.17158 -0.05909,0 -0.193169,0.14199 -0.236291,0.25026 -0.02749,0.0691 -0.09727,0.78446 -0.105134,1.07804 -0.0017,0.0636 0.0067,0.35504 0.01852,0.64781 l 0.02162,0.5323 -0.168319,0.0721 -0.16832,0.0721 0.03529,0.10782 c 0.01945,0.0593 0.05473,0.18357 0.07845,0.27615 l 0.04317,0.16833 0.141635,-0.0202 c 0.07786,-0.0111 0.169107,-0.0313 0.202691,-0.0449 l 0.06111,-0.0248 -0.03839,0.1874 -0.03839,0.1874 0.06395,0.12822 c 0.0352,0.0705 0.06394,0.15918 0.06394,0.19703 0,0.0378 0.01542,0.0784 0.03428,0.09 0.04174,0.0258 0.08709,0.25923 0.08821,0.45424 l 0.0017,0.14358 -0.119398,0.10047 c -0.06571,0.0553 -0.119399,0.13172 -0.119399,0.16992 0,0.13373 0.263648,0.16058 0.385008,0.0392 z m 0.280788,-1.62623 0.01677,-0.087 0.0017,0.15401 c 0,0.0847 -0.0076,0.12388 -0.01676,0.087 -0.0097,-0.0368 -0.01006,-0.10611 -0.0017,-0.15401 z m 0.02992,-0.35164 0.04719,-0.0435 -0.02489,0.0706 c -0.01367,0.0388 -0.02749,0.10809 -0.03068,0.154 l -0.0058,0.0834 -0.01651,-0.11056 -0.01651,-0.11057 z m 0.240541,0.0841 0.02021,-0.0505 0.0033,0.0738 c 0.0017,0.0405 -0.0076,0.0633 -0.02021,0.0505 -0.01282,-0.0128 -0.01408,-0.046 -0.0033,-0.0738 z m -0.191862,-0.21096 c 0.01408,-0.0141 0.02564,-0.003 0.02564,0.0256 0,0.0283 -0.01148,0.0398 -0.02564,0.0256 -0.01408,-0.0141 -0.01408,-0.0372 0,-0.0514 z"
         id="path16-5-9-7-6" />
      <path
         d="m -7.7778201,37.365546 c 0.035475,-0.06151 0.057565,-0.10715 0.0036,-0.127478 -0.053792,-0.01924 -0.3043286,-0.09329 -0.3171906,-0.09564 -0.012823,-0.0023 -0.1786927,-0.0061 -0.2761421,-0.06755 -0.097019,-0.06209 -0.087294,-0.07835 -0.1431647,-0.0921 -0.055563,-0.01371 -0.8059422,-0.153129 -0.8059422,-0.153129 l 0.0084,-0.04482 -0.097145,-0.01971 0.0092,-0.03475 -0.1536402,-0.02245 c 0,0 -0.00952,-0.01212 -0.023572,-0.01088 -0.013781,0.0024 -0.020424,0.01075 -0.020424,0.01075 l -0.00794,0.02423 -0.035684,0.03974 -0.085945,-0.01232 -0.00643,0.01162 -0.7204941,-0.136841 -0.03046,0.01377 -0.125292,-0.01 c 0,0 -0.02237,-0.01759 -0.0283,0.0016 -0.0055,0.02029 0.01442,0.01915 0.01442,0.01915 l 0.01517,-0.0022 0.106011,0.01372 0.02038,0.02239 -0.0077,0.0303 -0.308831,-0.05868 -0.0014,-0.15152 -0.06077,-0.02401 -0.03642,0.134904 -0.01346,0.01148 -0.03203,-0.0059 c 0,0 -0.011,0.0077 -0.01858,0.02476 -0.0071,0.01728 0.01024,0.0389 0.01024,0.0389 l 0.131568,0.02282 0.0084,-0.003 0.456868,0.09526 0.07674,0.02693 c 0,0 0.4002875,0.07821 0.4106355,0.08086 0.01143,0.0021 0.065335,0.03553 0.083521,0.03842 0.018482,0.0029 0.1700214,0.01333 0.1742667,0.04899 0.00275,0.03588 -0.025441,0.108875 -0.025441,0.108875 l 0.017337,0.0091 c 0,0 -0.062373,0.20606 -0.1212397,0.30559 -0.058554,0.100283 -0.1720899,0.27072 -0.1720899,0.27072 l 0.14135,0.124955 c 0,0 0.1490203,-0.19389 0.2070794,-0.325494 0.059073,-0.131493 0.1231904,-0.336982 0.1231904,-0.336982 0,0 0.04327,0.0062 0.054865,0.02541 0.011376,0.01768 0.037041,0.02287 0.037041,0.02287 0,0 0.080325,0.01467 0.091855,0.05795 0.010438,0.04315 0.040109,0.08045 0.1037115,0.08918 0.063903,0.0097 0.091048,0.01092 0.1068158,0.0011 0.015083,-0.0099 0.040353,-0.014 0.049782,-0.0061 0.0081,0.008 0.042345,0.04667 0.066092,0.112376 0.023784,0.0654 0.034555,0.105766 0.034555,0.105766 0,0 0.00595,0.02599 0.05324,0.01545 0.047105,-0.01067 0.1400946,-0.02158 0.1057893,-0.102798 -0.033012,-0.08 -0.1223488,-0.253789 -0.1223488,-0.253789 0,0 -0.00421,-0.07161 0.087813,-0.04779 0.092018,0.02382 0.2163721,0.04155 0.2163721,0.04155 0,0 0.1615218,0.0812 0.2771945,0.180329 0.1164451,0.09856 0.3480183,0.247448 0.3557766,0.250866 0.00846,0.005 0.1060495,0.04011 0.1131941,-0.05502 0.00733,-0.0947 0.0036,-0.09726 0.012899,-0.157987 0.00929,-0.06073 0.012828,-0.07339 0.012828,-0.07339"
         id="path51534-5-2-9-7-2-5-8" />
      <path
         d="m -6.5716164,39.354066 0.61207,-1.3141 0.0173,0.01 -0.0194,0.041 h -0.006 l -0.009,0.021 0.0572,0.026 0.01,-0.02 -0.0261,-0.012 0.019,-0.041 h 0.005 l 0.0197,-0.042 h 0.007 l 0.0138,-0.028 h -0.008 l 0.16263,-0.3482 h 0.0106 l 0.0127,-0.028 h -0.0102 l 0.024,-0.051 -0.048,-0.022 0.20355,-0.4364 c 0.0155,-0.01 0.0423,-0.025 0.0801,-0.068 0.036,-0.041 0.11148,-0.1252 0.17039,-0.1908 0.0473,-0.052 0.0833,-0.093 0.0833,-0.093 l 0.01,-0.02 -0.003,-0.01 0.0198,-0.043 -0.004,-0.061 -0.0145,-0.1994 c 0,0 -0.005,-0.049 -0.0607,-0.075 h -0.002 c -0.0557,-0.027 -0.0967,0 -0.0967,0 l -0.16193,0.1168 -0.0494,0.036 -0.0205,0.043 -0.009,0.01 -0.009,0.02 c 0,0 -0.008,0.054 -0.0173,0.1228 -0.0123,0.088 -0.0286,0.2 -0.037,0.2536 -0.009,0.056 -0.005,0.088 -7e-4,0.1044 l -1.04775,2.2486 z"
         id="path51538-6-9-8-1-2-7-3-2-7-7" />
    </g>
  </g>
</svg>
