<?xml version="1.0" encoding="UTF-8" standalone="no"?>
<!-- Created with Inkscape (http://www.inkscape.org/) -->

<svg
   width="15.440344mm"
   height="5.701303mm"
   viewBox="0 0 15.440344 5.701303"
   version="1.1"
   id="svg15601"
   inkscape:version="1.1.1 (3bf5ae0d25, 2021-09-20)"
   sodipodi:docname="inkporter-svg-fswrd51t.svg"
   xmlns:inkscape="http://www.inkscape.org/namespaces/inkscape"
   xmlns:sodipodi="http://sodipodi.sourceforge.net/DTD/sodipodi-0.dtd"
   xmlns="http://www.w3.org/2000/svg"
   xmlns:svg="http://www.w3.org/2000/svg">
  <sodipodi:namedview
     id="namedview15603"
     pagecolor="#ffffff"
     bordercolor="#666666"
     borderopacity="1.0"
     inkscape:pageshadow="2"
     inkscape:pageopacity="0.0"
     inkscape:pagecheckerboard="0"
     inkscape:document-units="mm"
     showgrid="false"
     inkscape:zoom="1.2810466"
     inkscape:cx="358.6911"
     inkscape:cy="503.49457"
     inkscape:window-width="1889"
     inkscape:window-height="1656"
     inkscape:window-x="3581"
     inkscape:window-y="141"
     inkscape:window-maximized="0"
     inkscape:current-layer="G-Infantry-MG5-4-Pfx3"
     inkscape:snap-nodes="true"
     inkscape:snap-bbox="true"
     inkscape:snap-others="true"
     inkscape:bbox-paths="true"
     inkscape:snap-global="true" />
  <defs
     id="defs15598">
    <clipPath
       clipPathUnits="userSpaceOnUse"
       id="clipPath48514-9-5-6-7-4">
      <path
         d="M 309.111,103.342 H 547.1 V 372.047 H 309.111 Z"
         id="path48512-3-2-8-8-0" />
    </clipPath>
    <clipPath
       clipPathUnits="userSpaceOnUse"
       id="clipPath48514-9-5-6-7-4-5">
      <path
         d="M 309.111,103.342 H 547.1 V 372.047 H 309.111 Z"
         id="path48512-3-2-8-8-0-2" />
    </clipPath>
    <clipPath
       clipPathUnits="userSpaceOnUse"
       id="clipPath48514-9-5-6-7-4-1">
      <path
         d="M 309.111,103.342 H 547.1 V 372.047 H 309.111 Z"
         id="path48512-3-2-8-8-0-4" />
    </clipPath>
  </defs>
  <g
     inkscape:label="Layer 1"
     inkscape:groupmode="layer"
     id="layer1"
     transform="translate(-152.44203,-134.83335)">
    <g
       id="G-SdKfz251-Infantry-MGs5-4-Pf"
       transform="translate(45.159466,14.931708)">
      <g
         id="g2828">
        <g
           id="G-Infantry4-SdKfz250-1-2"
           transform="translate(89.121837,-897.32313)">
          <path
             d="m 31.597349,1022.8433 v 0 c 0.02858,-0.01 0,0 0,0 m 0.461434,-0.9835 c 0,0 0.02681,0 0.05115,0 0.01976,0 0.02117,-0.042 0.01341,-0.1 -0.03881,0 -0.06879,-0.01 -0.07408,-0.01 -0.0039,0 -0.01411,0 -0.02858,0.01 z m -1.297164,-0.7158 c 0,0 -0.0448,0.011 -0.0575,0.019 -0.0127,0.01 -0.164747,0 -0.182033,-0.01 -0.01729,0 -0.111831,-0.032 -0.113242,-0.041 -0.0018,-0.01 -0.0035,-0.013 -0.01446,-0.022 -0.01129,-0.01 0.0078,-0.053 0.0078,-0.053 l -0.589492,-0.15 -0.0095,0.017 -0.06209,-0.021 c 0,0 0.01129,0.035 0.0014,0.058 -0.0095,0.022 -0.04127,0.03 -0.04127,0.03 0,0 -0.04974,0.3161 -0.06738,0.4188 -0.01729,0.1019 -0.01305,0.2106 0.01305,0.2409 0.02575,0.03 -0.0099,0.046 -0.0099,0.046 l -0.04621,-0.011 c 0,0 -0.01446,-0.01 -0.02716,0 -0.01305,0.01 -0.03387,-0.021 -0.02858,-0.048 0.0046,-0.027 0.07832,-0.4971 0.07832,-0.4971 l -0.155575,0.3419 -0.103364,0.082 -0.02117,-0.092 c 0,0 -0.02011,-0.027 0.0053,-0.027 0.0254,0 0.06209,-0.02 0.06209,-0.02 l 0.2032,-0.4713 c 0,0 -0.0067,-0.019 0.0078,-0.054 0.01446,-0.035 0.04939,-0.03 0.04939,-0.03 l 0.0018,-0.014 -0.05645,-0.017 c 0,0 -0.02999,-0.014 -0.04269,-0.03 -0.01305,-0.016 -0.03845,-0.014 -0.03845,-0.014 l -0.02081,0.011 c 0,0 -0.15487,-0.032 -0.172861,-0.04 -0.01693,-0.01 -0.02681,-0.035 -0.02681,-0.035 0,0 -0.07514,-0.013 -0.09878,-0.015 -0.02434,0 -0.02858,-0.032 -0.02716,-0.043 0.0018,-0.011 0.0127,-0.069 0.03316,-0.06 0.02117,0.01 0.123119,0.038 0.123119,0.038 l 0.0321,-0.011 0.153458,0.027 0.248709,0.025 0.0388,-0.095 0.03492,0.018 c 0,0 -0.01305,0.042 -0.01764,0.059 -0.0046,0.018 0.0085,0.057 0.0321,0.069 0.0046,0 0.0441,0.012 0.105481,0.029 -0.0092,-0.046 -0.0247,-0.1246 -0.02575,-0.1436 -0.0014,-0.027 0.03881,-0.1475 0.03881,-0.1475 h -0.01764 l -0.0067,-0.1072 c 0,0 0.0085,-0.045 -0.0018,-0.094 -0.0095,-0.05 0.0067,-0.07 0.01446,-0.098 0.0085,-0.027 -0.0042,-0.1277 -0.0042,-0.1277 0,0 -0.0085,-0.061 0.0011,-0.075 0.0099,-0.014 0.0064,-0.037 -0.0011,-0.062 -0.0085,-0.025 0.03634,-0.082 0.03634,-0.082 0,0 -0.0095,-0.03 -0.01411,-0.067 -0.0053,-0.036 0.01411,-0.046 0.03634,-0.062 0.02258,-0.016 0.0448,-0.1326 0.04657,-0.1393 0.0014,-0.01 -0.0032,-0.032 0.01411,-0.054 0.01799,-0.022 0.01305,-0.1104 0.0035,-0.1468 -0.0099,-0.037 0.01729,-0.072 0.01729,-0.072 0,0 -0.0254,-0.016 -0.05256,-0.011 -0.02716,0 -0.113241,0.017 -0.134055,0.021 -0.02117,0 -0.118181,0.01 -0.14852,-0.01 -0.03034,-0.016 -0.02752,-0.056 -0.02399,-0.071 0.0028,-0.014 -0.0035,-0.027 -0.01446,-0.045 -0.01164,-0.018 0.0095,-0.024 0.0095,-0.024 l -0.0014,-0.023 c 0,0 -0.02575,-0.024 -0.02893,-0.04 -0.0035,-0.016 -0.0018,-0.033 -0.0321,-0.046 -0.03034,-0.013 -0.01094,-0.029 -0.0011,-0.046 0.0092,-0.018 -0.0071,-0.042 -0.0099,-0.062 -0.0032,-0.021 -0.0032,-0.04 -0.0032,-0.04 l -0.0081,-0.021 -0.03069,-0.035 c 0,0 -0.01446,0 -0.0702,-0.018 -0.05574,-0.012 -0.02822,-0.04 -0.0011,-0.048 0.02681,-0.01 0.0314,-0.024 0.06526,-0.23 0.03351,-0.2064 0.226483,-0.2681 0.535164,-0.2374 0.308328,0.03 0.263172,0.3577 0.264936,0.3817 0.0018,0.024 0.0755,0.1305 0.0755,0.1305 l 0.0046,-0.025 0.138641,0.024 c 0,0 0.01164,0.014 0.07197,0.025 0.06103,0.012 -0.0095,0.021 -0.0095,0.021 0,0 0.148519,0 0.175683,0.01 0.02752,0.01 0.05115,0.013 0.115711,0.023 0.0635,0.01 0.122767,0.036 0.137231,0.046 0.01411,0.01 0.141817,0.081 0.172156,0.096 0.03034,0.014 0.0702,0.029 0.132291,0.085 0.06244,0.056 0.141111,0.081 0.141111,0.081 0,0 0.09208,-0.069 0.108303,-0.069 0.01623,0 0.265642,0.1213 0.265642,0.1213 0,0 0.07161,0.066 0.111478,0.1009 0.04022,0.035 0.01905,0.058 0.04304,0.084 0.02399,0.028 0.138995,0.1313 0.134409,0.1422 -0.0049,0.012 -0.11677,0.2 -0.11677,0.2 0,0 0.171098,0.2314 0.188384,0.2537 0.01764,0.023 0.07373,0.1344 0.07373,0.1344 0,0 0.0095,0.01 -0.02258,0.039 -0.03175,0.03 -0.165805,0.084 -0.165805,0.084 0,0 -0.01623,0.034 -0.0194,0.062 -0.0032,0.029 -0.03351,0.139 -0.06879,0.1679 -0.03493,0.029 -0.06526,0.1087 -0.07796,0.169 -0.0127,0.061 -0.04163,0.062 -0.0628,0.1044 -0.02046,0.041 -0.09066,0.1418 -0.136878,0.1789 -0.01729,0.013 -0.03387,0.034 -0.04833,0.058 l 0.04198,0.078 0.04763,0.012 c 0,0 0.04304,-0.014 0.06738,-0.01 0.02399,0 0.152753,0.024 0.183444,0.029 0.03034,0 0.02399,0.019 0.02399,0.019 0,0 0.06703,0.01 0.08961,0.01 0.02223,0 0.02046,0.025 0.02046,0.025 l 0.08819,0.013 c 0,0 -0.0194,-0.026 0.0078,-0.016 0.02681,0.01 0.118534,0.04 0.149931,0.049 0.0321,0.01 0.04339,0.038 0.06103,0.041 0.01764,0 0.0032,0.038 0.0032,0.038 0,0 0.04022,-0.01 0.07514,0.01 0.03528,0.015 0.02046,0.064 0.02046,0.064 l -0.0095,0.037 c 0,0 0.324556,0.1051 0.445559,0.1228 0.121708,0.018 0.192263,0.021 0.380294,-0.024 0.188383,-0.045 0.126294,0.072 0.08326,0.1213 -0.04304,0.05 -0.05574,0.1535 -0.08008,0.2364 0,0 -0.0046,0.053 -0.03493,0.1439 -0.03034,0.091 -0.06703,0.062 -0.129469,-0.038 -0.06244,-0.1002 -0.117828,-0.088 -0.134056,-0.092 -0.01588,-0.01 -0.05256,-0.011 -0.04304,-0.035 0.0095,-0.024 -0.0127,-0.088 -0.04798,-0.1006 -0.02434,-0.01 -0.09172,-0.031 -0.130527,-0.043 l -0.04551,0.163 -0.05891,-0.01 c 0,0 -0.0063,0.016 -0.01129,0.059 -0.0042,0.043 -0.01588,0.2142 -0.02716,0.278 -0.01094,0.063 -0.106892,0.1725 -0.106892,0.1725 l -0.03669,-0.014 0.01129,-0.013 c 0,0 -0.0575,-0.024 -0.07514,-0.053 -0.01376,-0.023 -0.006,-0.072 0.0071,-0.1359 -0.01446,0.01 -0.03034,0.012 -0.04692,0.017 -0.06738,0.024 -0.08008,-0.01 -0.04621,-0.021 0.03316,-0.014 0.05574,-0.028 0.05574,-0.028 0,0 -0.02716,0.01 -0.06879,0.013 -0.04127,0.01 -0.06844,-0.01 -0.03704,-0.018 0.03246,-0.011 0.06421,-0.029 0.06421,-0.029 0,0 -0.05891,0 -0.08961,0 -0.03034,0 -0.0078,-0.026 0.0099,-0.03 0.01729,-0.01 0.07973,-0.022 0.07973,-0.022 0,0 -0.07973,0 -0.103717,0 -0.02399,-0.01 -0.03528,-0.02 -0.0099,-0.024 0.0254,0 0.09454,-0.021 0.09454,-0.021 0,0 -0.04798,-0.01 -0.09454,-0.013 -0.04657,0 -0.02222,-0.027 -0.0014,-0.029 0.02117,0 0.07796,-0.016 0.07796,-0.016 0,0 -0.07126,-0.018 -0.08925,-0.024 -0.01764,-0.01 -0.03634,-0.027 -0.02364,-0.029 0.0127,0 0.08149,-0.01 0.08149,-0.01 0,0 -0.03845,-0.01 -0.07197,-0.028 -0.03387,-0.02 -0.02575,-0.018 -0.01129,-0.02 0.01446,-10e-4 0.0635,0 0.0635,0 0,0 -0.0092,-0.01 -0.0381,-0.019 -0.01305,-0.01 -0.02752,-0.019 -0.03916,-0.031 -0.01482,0 -0.03104,0 -0.04727,0 -0.0049,3e-4 -0.01129,3e-4 -0.01834,3e-4 0.0035,0.023 0.0092,0.046 0.0092,0.046 0,0 0.0032,0.031 -0.0035,0.067 -0.006,0.037 -0.05398,0.042 -0.07303,0.035 -0.0194,-0.01 -0.105481,-0.037 -0.102659,-0.029 0.0032,0.01 -0.0028,0.024 -0.0194,0.024 -0.01552,0 -0.07126,-0.022 -0.09384,-0.031 -0.01411,-0.01 -0.0448,-0.065 -0.06632,-0.1093 -0.03245,0.01 -0.06456,0.015 -0.0822,0.015 -0.04163,0 -0.191911,0.01 -0.226836,0 -0.03528,-0.013 -0.02893,0.026 -0.04163,0.046 -0.0127,0.021 -0.01411,0.04 -0.0081,0.045 0.0067,0 0.03704,0.033 0.03881,0.056 0.0011,0.022 -0.0085,0.042 0.0011,0.042 0.0099,0 0.0081,0.033 0.0081,0.052 0,0.019 0.02575,0.034 0.03845,0.058 0.0127,0.024 0.0064,0.069 0.0064,0.082 0,0.013 0.0194,0.03 0.02399,0.04 0.0046,0.01 0.02399,0.067 0.03351,0.088 0.0095,0.02 0.0049,0.057 0.0049,0.065 0,0.01 0.03493,0.026 0.04304,0.054 0.0078,0.029 0.01305,0.088 0.02716,0.1023 0.01446,0.015 0.0127,0.024 0.0127,0.024 0,0 0.01446,0.086 0.03034,0.1087 0.01623,0.023 0.0049,0.079 0.0049,0.079 l 0.0014,0.086 c 0,0 -0.0014,0.029 -0.04445,0.037 -0.04304,0.01 -0.225425,0.019 -0.225425,0.019 l -0.0014,-0.024 c -0.01164,0 -0.03175,0.01 -0.06562,0.018 -0.121356,0.034 -0.310092,0.072 -0.436387,0.053 0,0 -0.0127,0 -0.09878,-0.014 -0.08643,-0.019 -0.09243,-0.066 -0.09243,-0.066 l 0.01693,-0.027 c 0,0 0.0018,-0.014 0.01446,-0.048 0.01305,-0.033 0.06456,-0.045 0.120297,-0.056 0.05574,-0.011 0.170745,-0.049 0.185209,-0.058 0.01411,-0.01 0.08784,-0.072 0.09878,-0.087 0.01129,-0.016 0.05927,-0.059 0.05927,-0.059 0,0 0,-0.028 0.01129,-0.05 0.01094,-0.022 -0.0127,-0.03 -0.0254,-0.048 -0.0127,-0.017 -0.0067,-0.042 -0.01023,-0.056 -0.0025,-0.014 -0.0314,-0.046 -0.0314,-0.046 0,0 -0.02752,-0.025 -0.04304,-0.072 -0.01623,-0.046 -0.04657,-0.082 -0.06103,-0.1009 -0.01446,-0.018 0.0018,-0.03 0.0018,-0.03 0,0 -0.08502,-0.041 -0.09102,-0.09 -0.0067,-0.048 -0.05256,-0.046 -0.08149,-0.058 -0.02893,-0.011 -0.04657,-0.043 -0.04974,-0.073 -0.0028,-0.031 -0.04304,-0.067 -0.05115,-0.079 -0.0078,-0.011 -0.03493,-0.071 -0.03034,-0.1146 0.0049,-0.045 -0.0381,-0.063 -0.05786,-0.079 -0.0187,-0.016 -0.02364,-0.1115 -0.02787,-0.1549 -0.0053,-0.043 -0.03104,-0.1086 -0.06103,-0.206 -0.0067,-0.02 -0.0035,-0.052 0.0056,-0.09 z m -0.371475,-0.6477 c -0.0085,0 -0.01517,-0.01 -0.01517,-0.018 0,-0.011 0.0085,-0.019 0.01905,-0.019 -7.05e-4,-0.01 -0.0011,-0.015 -0.0014,-0.022 -0.0099,-3e-4 -0.01764,-0.01 -0.01764,-0.019 0,-0.01 0.0085,-0.018 0.01835,-0.018 h 0.0035 c 0.0011,-0.01 0.0021,-0.012 0.0032,-0.021 -0.0063,0 -0.01094,-0.01 -0.01094,-0.018 0,-0.01 0.0074,-0.017 0.01623,-0.019 3.53e-4,-0.01 0.0014,-0.012 0.0025,-0.018 -0.0039,0 -0.0056,-0.01 -0.0056,-0.016 0,-0.01 0.0035,-0.017 0.0092,-0.02 0.0011,-0.01 0.0018,-0.015 0.0021,-0.023 -0.0063,0 -0.01129,-0.012 -0.01129,-0.019 0,-0.01 0.006,-0.018 0.01446,-0.021 v -0.01 c -3.53e-4,0 -0.0011,-3e-4 -0.0018,-3e-4 -0.0127,-0.01 -0.02222,-0.02 -0.02046,-0.036 0.0014,-0.016 0.02046,-0.016 0.02046,-0.016 0,0 -0.0046,-0.01 -0.0127,-0.022 -0.0078,-0.013 0.0067,-0.035 0.0067,-0.035 0,0 -0.01305,-0.01 -0.01623,-0.032 -0.0035,-0.022 0.0095,-0.024 0.0095,-0.024 0,0 -0.02575,-0.013 -0.02223,-0.03 0.0032,-0.018 0.02223,-0.023 0.02223,-0.023 l -0.04163,-0.023 c 0,0 -0.0028,0.013 -0.0078,0.02 -0.0049,0.01 -0.0575,0.1129 -0.04974,0.14 0.0081,0.028 -0.01411,0.061 -0.02575,0.083 -0.01094,0.023 -0.03316,0.1661 -0.04233,0.1951 -0.01023,0.029 -0.04833,0.04 -0.04833,0.04 0,0 0.02081,0.072 0.03034,0.1027 0.0095,0.03 -0.01094,0.036 -0.01094,0.036 0,0 0,0.035 0.0014,0.042 0.0014,0.01 0.0078,0.045 0.0028,0.065 -0.0042,0.021 -0.01411,0.037 -0.02046,0.072 -0.0063,0.035 -0.04163,0 -0.04445,-0.01 -0.0035,-0.011 -0.01305,-0.068 -0.0053,-0.099 0.0081,-0.03 -0.0187,-0.036 -0.0187,-0.036 0,0 -0.06103,0.063 -0.06562,0.073 -0.0032,0.01 0.01094,0.051 0.02011,0.079 0.251177,0.064 0.645583,0.1623 0.779639,0.1958 0.04727,-0.1161 0.103011,-0.2286 0.113947,-0.2551 0.02046,-0.051 -0.05115,-0.065 -0.05115,-0.065 l -0.178858,-0.109 c 0,0 0.0127,-0.053 0.02399,-0.066 0.01094,-0.012 0.121002,-0.1291 0.121002,-0.1291 0,0 -0.09913,-0.043 -0.132291,-0.1058 -0.03351,-0.062 0.01446,-0.1327 0.01446,-0.1327 0,0 0.0127,-0.02 0.0018,-0.043 -0.01164,-0.022 -0.109008,-0.073 -0.148872,-0.093 -0.04022,-0.019 -0.05574,-0.063 -0.13723,-0.1115 -0.08185,-0.048 -0.0702,-0.028 -0.0702,-0.028 0,0 0.0011,0.01 0.0011,0.02 0,0.011 -0.0127,0.027 -0.0127,0.027 0,0 0.02434,0.01 0.03069,0.023 0.0063,0.016 -0.0064,0.032 -0.0064,0.032 0,0 0.01764,0.018 0.02081,0.029 0.0028,0.011 -0.0067,0.03 -0.0067,0.03 0,0 0.01129,0.013 0.01305,0.029 0.0018,0.016 -0.01623,0.031 -0.01623,0.031 0,0 0.0127,0.011 0.0127,0.03 0,0.02 -0.01411,0.024 -0.01411,0.024 0,0 0.02399,0.01 0.02858,0.024 0.0053,0.014 -0.0254,0.03 -0.0254,0.03 0,0 0.01446,0 0.01446,0.021 0,0.013 -0.01305,0.026 -0.02575,0.03 v 0 c 0.01199,7e-4 0.02081,0.011 0.02081,0.023 0,0.012 -0.0099,0.022 -0.02258,0.022 h -0.0014 c -3.53e-4,0.01 -7.06e-4,0.012 -0.0014,0.018 0.0085,0 0.01587,0.011 0.01587,0.023 0,0.012 -0.0078,0.022 -0.01764,0.022 -0.0011,0 -0.0025,-3e-4 -0.0035,-3e-4 l -0.0014,0.013 c 0.0074,0 0.01305,0.01 0.01305,0.018 0,0.01 -0.0081,0.019 -0.01835,0.019 -0.0014,0.01 -0.0028,0.018 -0.0039,0.024 0.0039,0 0.0064,0.01 0.0064,0.013 0,0.01 -0.0042,0.013 -0.01023,0.017 3.53e-4,0.01 0.0011,0.019 0.0018,0.028 0.0049,0 0.0085,0.01 0.0085,0.015 0,0.01 -0.0042,0.013 -0.0099,0.016 l -3.53e-4,7e-4 c -0.0018,0 -0.0071,0.012 -0.0127,0.018 0.0071,0.01 0.02223,0.022 0.01976,0.031 -0.0035,0.011 -0.03069,0.011 -0.03069,0.011 0,0 0.0063,0.019 0,0.031 -0.0064,0.011 -0.0321,0 -0.0321,0 0,0 0.01164,0.029 0.0018,0.039 -0.0099,0.01 -0.03669,0 -0.04304,0 -0.0063,-0.01 -0.02752,-0.032 -0.02858,-0.039 -0.0018,-0.01 -0.03034,-0.036 -0.0194,-0.042 0.01129,-0.01 0.05115,0.019 0.05115,0.019 0,0 -0.01129,-0.019 -0.01411,-0.028 -0.0035,-0.01 -0.0127,-0.017 0.0028,-0.016 0.01587,0 0.02575,0.01 0.03669,0.011 0.01164,0 0.0085,-0.011 0.0032,-0.022 -0.0046,-0.011 0,-0.017 0.0095,-0.015 0.0074,10e-4 0.02646,0.01 0.03563,0.014 0.0035,0 0.0064,-0.01 0.0085,-0.012"
             id="path171058-7-4-9-7"
             style="stroke-width:0.352778" />
          <path
             d="m 20.720928,1020.0758 c 0.02011,-0.023 0.03704,-0.1076 0.03704,-0.1076 0,0 -0.01693,-0.062 -0.04833,-0.057 -0.0314,0.01 -0.159102,0.01 -0.175683,-0.034 -0.01729,-0.042 -0.02575,-0.091 -0.02575,-0.091 l -0.201436,-0.031 c 0,0 0.06279,0.063 0.06279,0.088 0,0.025 0,0.04 0.0254,0.068 0.0254,0.029 0.0762,0.049 0.09031,0.085 0.01411,0.037 0.04269,0.1362 0.04269,0.1362 l 0.121708,0.068 c 0.02858,-0.053 0.05151,-0.1019 0.07126,-0.1245 m -1.483783,-0.363 c -0.01129,0.073 0.04868,0.073 0.173214,0.093 0.11183,0.018 0.295275,-0.046 0.363714,-0.078 l -0.0035,-7e-4 c -0.05644,-0.027 -0.116417,-0.08 -0.116417,-0.08 0,0 -0.328789,-0.037 -0.351719,-0.048 -0.01164,-0.01 -0.04621,-0.013 -0.0762,-0.019 0.01305,0.03 0.01905,0.082 0.01094,0.133 m 2.116314,2.1929 c -0.0628,-0.043 -0.03105,-0.1704 -0.02858,-0.2188 0.0032,-0.048 -0.07655,-0.037 -0.118886,-0.034 -0.04269,0 -0.10795,0.017 -0.153106,-0.017 -0.04551,-0.034 -0.25788,-0.028 -0.25788,-0.028 0,0 -0.0032,0.048 -0.02328,0.06 -0.0194,0.011 -0.03387,0.022 -0.0194,0.059 0.01411,0.037 -0.01129,0.093 -0.02328,0.1189 -0.01094,0.026 -0.01658,0.034 -0.0081,0.06 0.0081,0.026 -0.0568,0.073 -0.110772,0.088 -0.05398,0.014 -0.02258,0.2127 -0.0081,0.2833 0.01411,0.071 -0.06279,0.1735 -0.06279,0.1735 0,0 0.02011,0.062 0.02822,0.082 0.0092,0.019 0.006,0.187 0.02011,0.2438 0.01446,0.057 -0.01411,0.06 -0.01411,0.06 0,0 -0.01411,0.065 -0.03951,0.074 -0.02575,0.01 -0.2159,-0.01 -0.2159,-0.01 l -0.0028,-0.051 c 0,0 -0.141817,0.031 -0.263878,0.059 -0.122061,0.029 -0.379942,-0.01 -0.448028,-0.018 -0.06809,-0.011 -0.08819,-0.028 -0.08819,-0.028 l 0.02011,-0.02 c 0,0 -0.03704,-0.085 -0.0085,-0.1104 0.02822,-0.025 0.28328,-0.043 0.343252,-0.046 0.05927,0 0.0822,-0.04 0.11042,-0.054 0.02858,-0.014 0.201436,-0.1873 0.201436,-0.1873 0,0 -0.01976,-0.034 -0.03104,-0.051 -0.01129,-0.018 -0.0056,-0.043 0.0085,-0.068 0.01411,-0.026 -0.0028,-0.116 -0.0085,-0.1305 -0.0056,-0.014 -0.0056,-0.062 0.0025,-0.1136 0.0088,-0.051 0,-0.1757 0,-0.1757 0,0 -0.02822,-0.051 -0.05927,-0.085 -0.03104,-0.034 -0.0254,-0.1079 -0.0028,-0.1446 0.02258,-0.037 -0.01129,-0.1447 -0.01129,-0.1842 0,-0.04 0.0568,-0.199 0.05962,-0.2244 0.0025,-0.025 0.0025,-0.1361 0.04515,-0.2638 0.04269,-0.1277 0.224367,-0.1302 0.314678,-0.1503 0.09102,-0.019 0.02258,-0.057 -0.03104,-0.1161 -0.05398,-0.06 -0.150283,-0.2102 -0.167216,-0.2441 -0.01729,-0.034 0.0085,-0.099 -0.06562,-0.1418 -0.07338,-0.042 -0.06809,-0.093 -0.05644,-0.1217 0.01164,-0.029 0.0822,-0.108 0.05398,-0.1732 -0.02822,-0.065 -0.06562,-0.1133 -0.06562,-0.1133 0,0 -0.138994,-0.074 -0.175683,-0.1136 -0.02646,-0.029 -0.09948,-0.057 -0.159103,-0.08 -0.07726,0.03 -0.248003,0.094 -0.374297,0.1083 -0.167217,0.02 -0.263878,-0.056 -0.289278,-0.091 -0.0254,-0.034 -0.02822,-0.097 -0.02822,-0.1298 0,-0.022 0.01517,-0.051 0.03281,-0.068 l -0.299156,-0.04 c 0,0 -0.03986,0.017 -0.07691,0.011 -0.03669,-0.01 -0.09349,-0.02 -0.09349,-0.02 0,0 -0.105128,-0.011 -0.122061,-0.014 -0.01729,0 -0.02258,-0.023 -0.02258,-0.023 0,0 -0.150283,0 -0.187325,-0.011 -0.03704,-0.01 -0.03986,-0.031 -0.03986,-0.031 0,0 -0.138642,-0.014 -0.158397,-0.017 -0.02011,0 -0.01729,-0.068 0.0081,-0.068 0.0254,0 0.03457,0 0.03457,0 0,0 0.0025,-0.054 0.02222,-0.054 0.02011,0 0.07691,0.01 0.110772,0.01 0.03387,0 0.006,0.068 0.006,0.068 l 0.317148,0.026 c 0,0 0.02822,-0.01 0.04551,-0.011 0.01729,-0.01 0.113594,0.014 0.113594,0.014 l 0.0508,0.01 0.238478,0.01 c 0,0 0.07937,-0.011 0.09913,-0.011 0.01975,0 0.05115,0.025 0.05115,0.025 h 0.714728 l 0.03704,0.031 0.153105,0.01 c 0,0 0.05115,-0.017 0.07091,-0.014 0.01975,0 0.06244,0.012 0.06244,0.012 l 0.150284,0.011 c 0,0 0.03951,-0.017 0.05997,-0.017 0.0194,0 0.0508,0.031 0.0508,0.031 l 0.110419,0.01 c 0,0 0.05997,-0.02 0.10795,-0.017 0.04798,0 0.06809,0.1 0.06809,0.1 0,0 0.01693,0.01 0.04233,0.011 0.0254,0 0.102305,0.054 0.102305,0.054 0,0 -0.01129,-0.082 -0.02293,-0.1249 -0.01129,-0.042 0.0032,-0.065 0.0032,-0.065 l -0.04233,-0.074 c 0,0 -0.04304,-0.012 -0.06244,-0.019 -0.02011,-0.01 -0.01729,-0.034 -0.01729,-0.034 0,0 0.09066,-0.1729 0.130528,-0.2466 0.03951,-0.074 0.105127,-0.2325 0.433916,-0.1955 0.329142,0.037 0.32632,0.3458 0.340431,0.4167 0.01411,0.071 0.01411,0.1249 0.02575,0.1079 0.01094,-0.017 0.0568,-0.031 0.09349,-0.026 0.03634,0.01 0.218016,0.176 0.266347,0.2074 0.04833,0.031 0.02011,0.071 0.02893,0.082 0.0081,0.011 0.121708,0.1249 0.147108,0.1874 0.0254,0.062 0.0053,0.3489 -0.0028,0.4254 -0.0085,0.077 -0.09102,0.1958 -0.09666,0.2329 -0.0056,0.037 0.03669,0.1389 0.03669,0.1389 0,0 0.144991,0.01 0.221897,0.031 0.07655,0.025 0.02222,0.1958 0.02222,0.1958 0,0 -0.02222,0.1189 -0.02787,0.1697 -0.006,0.051 0.02787,0.043 0.01411,0.267 -0.01411,0.2244 -0.187677,0.2554 -0.187677,0.2554 0,0 0,0.065 0.006,0.1193 0.0056,0.054 -0.0085,0.2519 -0.0085,0.2519 l -0.07973,0.012 -0.07091,0.2582 0.352072,-0.088 c 0,0 0.147109,-0.018 0.207081,-0.037 0.05927,-0.02 0.09631,0.019 0.09631,0.019 0,0 0.06526,0 0.08502,0.023 0.02011,0.02 0.03387,0.2155 0.03387,0.2155 0,0 -0.03951,0.014 -0.01376,0.068 0.0254,0.054 -0.0088,0.2667 -0.04269,0.3291 -0.03422,0.062 -0.07938,0.062 -0.246592,0.071 -0.167922,0.01 -0.07973,-0.2018 -0.07655,-0.2127 0.0025,-0.012 0.05115,-0.074 0.03387,-0.1136 -0.01729,-0.04 -0.03951,-0.017 -0.06526,-0.01 -0.0254,0.01 -0.06809,0.054 -0.105128,0.1045 -0.03704,0.052 -0.07091,0.04 -0.07091,0.04 0,0 -0.2159,0.1333 -0.331964,0.1816 -0.116416,0.048 -0.320675,0.077 -0.411339,0 -0.09066,-0.077 -0.170039,-0.7295 -0.175683,-0.8628 0,0 -0.006,0 -0.06809,-0.045"
             id="path171062-1-1-4-1"
             style="stroke-width:0.352778" />
          <path
             d="m 26.913519,1020.0122 -0.07655,-0.032 0.05821,0.1118 z m 1.569861,1.9152 c -0.05045,-0.034 -0.100542,-0.1118 -0.127353,-0.1541 -0.02646,-0.042 -0.143581,-0.069 -0.167217,-0.1994 -0.02399,-0.1305 -0.06632,-0.1379 -0.09313,-0.1778 -0.02646,-0.04 -0.164747,-0.2734 -0.185914,-0.3161 -0.02117,-0.043 -0.218016,-0.364 -0.218016,-0.364 0,0 -0.01305,0.01 -0.05821,0.072 -0.04515,0.064 -0.06385,0.1834 -0.09596,0.2766 -0.0314,0.093 -0.02646,0.1118 -0.01023,0.1249 0.01587,0.013 0.06103,0.058 0.06632,0.1037 0.0053,0.045 0.02117,0.1164 0.05574,0.1376 0.03493,0.022 0.05327,0.088 0.09031,0.1199 0.0374,0.032 0.01835,0.1118 0.01835,0.1432 0,0.032 0.07197,0.1171 0.09349,0.1277 0.02117,0.011 0.05821,0.085 0.07937,0.098 0.02152,0.013 0.106539,0.1358 0.106539,0.1358 0,0 0.08502,0.09 0.116416,0.1246 0.0321,0.034 0.04551,0.019 0.04551,0.019 0,0 0.02928,0.024 0.0956,0.098 0.06632,0.075 -0.02681,0.2127 -0.02681,0.2127 l -0.02611,-0.019 c 0,0 -0.02963,0.1195 -0.05045,0.1594 -0.02152,0.04 -0.0508,0.1274 -0.132998,0.2152 -0.08255,0.087 -0.201788,0.045 -0.201788,0.045 l -0.01658,-0.029 c 0,0 -0.03669,-0.01 -0.04727,-0.064 -0.01058,-0.058 0.05574,-0.1379 0.08255,-0.1884 0.02646,-0.05 -0.0081,-0.2868 -0.0056,-0.3132 0.0028,-0.027 -0.109008,-0.099 -0.119239,-0.12 -0.01094,-0.021 -0.08008,-0.1009 -0.08008,-0.1009 0,0 -0.100895,-0.034 -0.154164,-0.1189 -0.05292,-0.085 -0.180269,-0.088 -0.225778,-0.096 -0.0448,-0.01 -0.108655,-0.067 -0.12453,-0.1087 -0.01588,-0.043 -0.130528,-0.1756 -0.202142,-0.2631 -0.07126,-0.088 -0.07408,-0.2978 -0.08431,-0.3853 -0.01129,-0.088 -0.01376,-0.5231 -0.01376,-0.5231 l -0.0448,-0.016 0.0314,-0.2208 -0.201789,-0.3503 c 0,0 -0.03457,0.034 -0.05609,0.029 -0.02117,-0.01 -0.02117,-0.01 -0.03387,-0.01 -0.01341,0 -0.02963,0.018 -0.04551,0.015 -0.01623,0 -0.03422,-0.021 -0.04763,-0.021 -0.01305,0 -0.03492,0.013 -0.04833,0.01 -0.0127,-0.01 -0.04727,-0.016 -0.04727,-0.016 0,0 -0.04516,0 -0.06421,-0.016 -0.01834,-0.016 -0.02364,-0.048 -0.02364,-0.048 l -0.130528,0.061 -0.03951,0.069 -0.14605,-0.027 -0.100894,0.059 -0.0321,-0.08 0.05045,-0.021 c 0,0 -0.05045,-0.1086 -0.0025,-0.1221 0.04798,-0.013 0.100894,0.071 0.100894,0.071 0,0 0.23107,-0.093 0.223309,-0.1086 -0.0081,-0.016 0.01305,-0.032 0.03175,-0.066 0.0187,-0.035 0.03739,-0.064 0.03739,-0.064 0,0 -0.01623,-0.046 -0.01623,-0.072 0,-0.027 0.08255,-0.061 0.106186,-0.093 0.02364,-0.032 0.0028,-0.069 0.01094,-0.088 0.0078,-0.019 0.03175,-0.021 0.04516,-0.034 0.01305,-0.013 0.01588,-0.074 0.03422,-0.093 0.0187,-0.019 0.0508,-0.042 0.04798,-0.056 -0.0028,-0.013 -0.02646,-0.029 -0.02117,-0.056 0.0053,-0.027 0.03986,-0.1225 0.04763,-0.1725 0.0078,-0.051 0.01305,-0.1306 0.0056,-0.1729 -0.0085,-0.042 0.04198,-0.1115 0.05539,-0.1489 0.01376,-0.037 0.04763,-0.2554 0.05856,-0.2893 0.01058,-0.034 0.124884,-0.1725 0.124884,-0.1725 0,0 -0.02117,0 -0.04269,-0.01 -0.02117,-0.01 -0.04233,-0.058 -0.05856,-0.098 -0.01552,-0.039 -0.03669,-0.1061 -0.04763,-0.127 -0.01058,-0.021 -0.04516,-0.104 -0.04516,-0.104 0,0 -0.03951,-0.021 -0.04763,-0.053 -0.0081,-0.032 -0.02152,-0.016 -0.03986,-0.024 -0.0187,-0.01 -0.06385,-0.024 -0.06385,-0.024 0,0 0.0053,-0.1806 0.117122,-0.364 0.111478,-0.1831 0.244123,-0.1591 0.467431,-0.1648 0.222603,-0.01 0.307975,0.3588 0.307975,0.3588 0,0 0.03951,0.026 0.05292,0.061 0.01341,0.035 0.0056,0.087 0.0056,0.087 h 0.03951 c 0.01905,0 0.11677,0.016 0.154164,0.061 0.03704,0.045 0.111478,0.053 0.175683,0.082 0.0635,0.03 0.02646,0.1034 0.03951,0.109 0.01341,0 0.05574,0.013 0.101247,0.021 0.0448,0.01 0.148519,0.096 0.201789,0.1411 0.05327,0.045 0.05327,0.09 0.0635,0.1115 0.01094,0.021 0.148872,0.1778 0.170038,0.212 0.02117,0.035 0.141112,0.1968 0.156634,0.2448 0.01587,0.048 0.04515,0.1037 0.07973,0.1461 0.03457,0.042 0.02399,0.095 -0.02399,0.2254 -0.04763,0.1309 -0.04763,0.133 -0.08996,0.1862 -0.04269,0.053 -0.17533,0.2202 -0.17533,0.2202 0,0 0.07973,-0.029 0.151694,-0.042 0.07126,-0.013 0.111478,0.1567 0.116417,0.2018 0.0053,0.046 0.08537,0.1623 0.119592,0.3006 0.03457,0.1379 -0.07973,0.1834 -0.07973,0.1834 0,0 0.01588,0.058 0.01588,0.1034 0,0.045 -0.04233,0.082 -0.04233,0.082 0,0 0.0078,0.048 -0.0049,0.075 -0.01341,0.026 -0.06174,0.015 -0.06174,0.015 0,0 0.01905,0.1697 0.04516,0.2156 0.02681,0.045 0.109008,0.2603 0.119592,0.3527 0.01058,0.093 0.04551,0.181 0.114652,0.2233 0.06879,0.042 0.0635,0.087 0.07373,0.1489 0.01058,0.061 0.01905,0.1351 0.05115,0.1616 0.0314,0.026 0.04198,0.064 0.03951,0.133 -0.0028,0.069 0.01588,0.098 0.05327,0.1221 0.03704,0.024 0.04763,0.1382 0.05327,0.1732 0.0049,0.034 0.03175,0.1538 0.08502,0.1986 0.05292,0.045 0.03986,0.1277 0.03986,0.1277 0,0 0.06068,0.1093 0.07937,0.1302 0.0187,0.022 0.0187,0.077 0.0187,0.098 0,0.021 0.02364,0.085 0.02364,0.085 l -0.07937,0.082 c 0,0 -0.09349,0.075 -0.159455,0.088 -0.06632,0.013 -0.201789,-0.027 -0.201789,-0.027 l 0.01023,-0.029 c 0,0 -0.01023,-0.011 0,-0.066 0.01094,-0.056 0.04269,-0.093 0.05856,-0.1274 0.01588,-0.035 0.0028,-0.1679 0.0028,-0.1679 l -0.02364,-0.015 c 0,0 -0.05115,-0.088 -0.09349,-0.1387 -0.04233,-0.05 -0.153811,-0.1668 -0.220486,-0.2705 0,0 -0.04516,-0.034 -0.0956,-0.069"
             id="path171066-7-9-7-9"
             style="stroke-width:0.352778" />
          <path
             d="m 24.734446,1022.1685 c -0.0025,0.038 0.02187,0.2008 0.02505,0.2145 0.0025,0.013 0.06562,-0.074 0.07691,-0.1016 0.01094,-0.027 0.02963,-0.069 0.03528,-0.093 0.0056,-0.025 0,-0.068 0.0056,-0.085 0.0053,-0.017 -0.159456,-0.157 -0.159456,-0.157 0.0088,0.058 0.01976,0.1845 0.01658,0.2222 m -1.176867,-2.8197 c -0.0056,-0.038 0.01094,-0.085 0.03845,-0.088 0.02752,0 0.04974,0.01 0.05503,-0.011 0.0053,-0.019 -0.03281,-0.1344 -0.03281,-0.1344 0,0 -0.14852,0.1676 -0.178506,0.1894 -0.02999,0.022 -0.15628,0.085 -0.180975,0.085 -0.02434,0 -0.131939,-0.024 -0.153811,-0.076 -0.02187,-0.052 -0.02469,-0.077 -0.04657,-0.1263 -0.02187,-0.05 -0.02999,-0.079 -0.01623,-0.1097 0.01376,-0.03 0.01094,-0.063 0.0081,-0.079 -0.0028,-0.017 0,-0.077 0.01658,-0.096 0.01623,-0.019 -0.0056,-0.025 -0.0085,-0.058 -0.0025,-0.033 -0.03563,-0.052 0.01094,-0.1045 0.04657,-0.052 0.07973,-0.1315 0.07973,-0.1315 l -0.03316,-0.038 c 0,0 -0.03034,-0.02 -0.04904,-0.036 -0.0194,-0.016 -0.04692,-0.044 -0.04974,-0.074 -0.0025,-0.03 -0.0025,-0.099 -0.0025,-0.099 l -0.04974,-0.021 c 0,0 -0.0575,0.1531 -0.06844,0.1831 -0.01094,0.031 -0.05786,0.082 -0.05997,0.1432 -0.0028,0.06 -0.03598,0.1725 0.02963,0.362 0.06632,0.1894 0.0635,0.2688 0.109714,0.3072 0.04692,0.038 0.129116,0.074 0.195086,0.088 0.06562,0.013 0.265994,0.052 0.337608,0.099 0.07091,0.047 0.08502,0.041 0.08502,0.041 -0.0194,-0.063 -0.03034,-0.1757 -0.03598,-0.2138 m 0.820561,2.782 c -0.0056,-0.063 -0.08537,-0.2498 -0.09313,-0.2745 -0.0085,-0.025 -0.0056,-0.044 -0.0056,-0.058 0,-0.014 -0.140052,-0.1535 -0.159102,-0.1891 -0.0194,-0.036 -0.02222,-0.1866 -0.03034,-0.2498 -0.0081,-0.063 -0.05468,-0.1125 -0.07973,-0.1397 -0.02434,-0.028 -0.06033,-0.2035 -0.06033,-0.2307 0,-0.028 -0.117828,-0.532 -0.134408,-0.5429 -0.01658,-0.011 -0.04904,-0.017 -0.08784,-0.019 -0.03845,0 -0.04092,-0.017 -0.04092,-0.017 v -0.052 l -0.0575,-0.017 c 0,0 -0.03316,-0.1041 0.03034,-0.1944 0.06279,-0.09 0.100894,-0.4473 0.100894,-0.4473 0,0 -0.191911,-0.093 -0.323497,-0.1482 -0.131586,-0.055 -0.375708,-0.104 -0.403225,-0.1097 -0.02752,-0.01 -0.153811,-0.14 -0.17533,-0.2226 -0.02187,-0.082 -0.123825,-0.3919 -0.126648,-0.4604 -0.0028,-0.069 0.09913,-0.2963 0.134409,-0.3951 0.03598,-0.099 0.02505,-0.093 0.02505,-0.093 l -0.22225,-0.1259 h -0.03316 l -0.02999,-0.02 -0.04375,-0.035 -0.04692,-0.02 -0.0028,-0.03 -0.293159,-0.1454 0.01376,-0.03 0.180622,0.091 0.0085,-0.019 -0.178152,-0.09 -0.04692,-0.011 -0.04939,-0.042 -0.06032,-0.03 0.03598,-0.049 0.02999,0.016 0.02469,-0.044 0.115006,0.063 -0.01623,0.049 0.285397,0.1404 0.04375,0.017 0.0053,0.019 0.05786,0.025 h 0.01905 l 0.03281,0.016 0.0081,0.022 0.450497,0.2 0.244123,0.1207 0.05997,-0.055 c 0.03034,-0.028 0.04128,-0.03 0.06068,-0.082 0.01905,-0.052 0.126294,-0.096 0.1397,-0.1094 0.01376,-0.014 0.0081,-0.049 -0.01658,-0.1125 -0.02434,-0.063 -0.04092,-0.1676 -0.04092,-0.1676 0,0 -0.06315,-0.019 -0.07973,-0.039 -0.01658,-0.019 -0.01658,-0.041 -0.07691,-0.098 -0.05997,-0.058 0.03316,-0.1344 0.0635,-0.1757 0.02999,-0.041 0.05186,-0.1534 0.08502,-0.2085 0.03281,-0.055 0.153458,-0.1044 0.383822,-0.082 0.230364,0.022 0.268817,0.1207 0.279753,0.1814 0.01094,0.06 0.06068,0.3312 0.09631,0.3944 0.03528,0.063 0.0056,0.055 -0.02752,0.055 -0.03281,0 -0.09631,-0.011 -0.09631,-0.011 0,0 -0.0078,0.01 -0.02716,0.036 -0.0194,0.03 -0.0081,0.052 0.0053,0.06 0.01411,0.01 0.04692,-0.01 0.112536,-0.027 0.06632,-0.019 0.128764,0.046 0.159103,0.066 0.03034,0.019 0.08537,0.011 0.107244,0.014 0.02187,0 0.128764,0.099 0.134056,0.132 0.0056,0.033 0.04974,0.052 0.06562,0.074 0.01658,0.021 0.04974,0.032 0.08537,0.063 0.03598,0.03 0.02752,0.1153 0.0635,0.1315 0.03528,0.017 0.183444,0.2664 0.232833,0.2936 0.04939,0.028 0.04939,0.085 0.06597,0.1481 0.01658,0.063 0.09031,0.1207 0.115358,0.1732 0.02434,0.052 0.01305,0.1478 -0.01623,0.2219 -0.03069,0.074 -0.167569,0.1291 -0.214489,0.1397 -0.04621,0.011 -0.159103,0.063 -0.159103,0.063 l 0.0635,0.058 -0.03281,0.068 c 0,0 0.10407,-0.027 0.139347,-0.03 0.03598,0 0.04939,0.057 0.06315,0.1066 0.01376,0.049 0.02752,0.2413 0.05785,0.3923 0.02963,0.151 -0.110067,0.2363 -0.110067,0.2363 0,0 -0.0025,0.03 0,0.041 0.0028,0.011 -0.02999,0.066 -0.05186,0.088 -0.02187,0.022 -0.0635,-0.01 -0.0635,-0.01 0,0 0.01094,0.036 -0.01623,0.06 -0.02752,0.025 -0.123472,0.036 -0.123472,0.036 0,0 -0.0081,0.032 -0.0081,0.044 0,0.011 -0.06562,0.1097 -0.07126,0.1288 -0.0056,0.019 0.03281,0.1069 -0.0085,0.2085 -0.04092,0.1019 -0.109713,0.1809 -0.121002,0.1947 -0.01058,0.014 -0.03246,0.1072 -0.03246,0.1072 0,0 0.05221,0.088 0.03034,0.1288 -0.02187,0.041 -0.01623,0.098 -0.01623,0.098 0,0 0.120297,0.1073 0.183092,0.2198 0.0635,0.1122 0.126647,0.09 0.183797,0.1178 0.05821,0.027 0.03069,0.077 0.03069,0.077 0,0 0.06562,0.033 0.117475,0.063 0.05221,0.03 0.0635,0.1093 0.0635,0.1093 0,0 0.02187,0.039 0.04127,0.075 0.0187,0.036 -0.07726,0.1644 -0.07726,0.1644 h -0.04939 c 0,0 -0.0056,0.069 -0.0025,0.093 0.0025,0.025 -0.06315,0.1891 -0.112889,0.2469 -0.04904,0.058 -0.1397,0.06 -0.246591,0.058 -0.107245,0 -0.04198,-7e-4 -0.1016,0.1093 -0.05468,0.102 -0.159103,0.1891 -0.356306,0.1891 -0.197908,0 -0.04374,-0.1781 0.04621,-0.3066 0.09066,-0.1294 0.0194,-0.1763 0.01376,-0.2772 0,0 -0.03245,-0.1429 -0.0381,-0.2057"
             id="path171070-1-6-9-3"
             style="stroke-width:0.352778" />
        </g>
      </g>
    </g>
  </g>
</svg>
