<?xml version="1.0" encoding="UTF-8" standalone="no"?>
<!-- Created with Inkscape (http://www.inkscape.org/) -->

<svg
   width="7.7211747mm"
   height="5.8853011mm"
   viewBox="0 0 7.7211747 5.8853011"
   version="1.1"
   id="svg7426"
   sodipodi:docname="inkporter-svg-9t_7r2wj.svg"
   xmlns:inkscape="http://www.inkscape.org/namespaces/inkscape"
   xmlns:sodipodi="http://sodipodi.sourceforge.net/DTD/sodipodi-0.dtd"
   xmlns="http://www.w3.org/2000/svg"
   xmlns:svg="http://www.w3.org/2000/svg">
  <sodipodi:namedview
     id="namedview7428"
     pagecolor="#ffffff"
     bordercolor="#666666"
     borderopacity="1.0"
     inkscape:pageshadow="2"
     inkscape:pageopacity="0.0"
     inkscape:pagecheckerboard="0"
     inkscape:document-units="mm"
     showgrid="false"
     inkscape:zoom="1.2810466"
     inkscape:cx="389.13495"
     inkscape:cy="570.23688"
     inkscape:window-width="1920"
     inkscape:window-height="1017"
     inkscape:window-x="-8"
     inkscape:window-y="-8"
     inkscape:window-maximized="1"
     inkscape:current-layer="layer1" />
  <defs
     id="defs7423" />
  <g
     inkscape:label="Layer 1"
     inkscape:groupmode="layer"
     id="layer1"
     transform="translate(-41.204175,-130.57076)">
    <g
       id="G-Infantry-MGs3-Pf"
       transform="translate(37.947716,-917.30934)">
      <path
         style="fill:#000000;stroke-width:0.0305117"
         d="m 5.0195287,1053.718 c -0.1719108,-0.1968 -0.2113998,-0.3102 -0.2244402,-0.6444 -0.00699,-0.1792 -0.029744,-0.4395 -0.05056,-0.5784 -0.035043,-0.2339 -0.044967,-0.2568 -0.1339683,-0.3093 -0.077508,-0.046 -0.1139648,-0.1061 -0.1882504,-0.3119 -0.050669,-0.1403 -0.1084664,-0.3343 -0.1284375,-0.431 -0.035777,-0.1733 -0.092837,-0.2132 -0.092837,-0.065 0,0.042 -0.020948,0.1165 -0.046551,0.166 -0.041726,0.081 -0.041726,0.099 0,0.1801 0.058827,0.1137 0.059847,0.2151 0.00217,0.2151 -0.026529,0 -0.050672,0.04 -0.06001,0.099 -0.032402,0.2056 -0.061009,0.5924 -0.053597,0.7246 0.00423,0.076 0.010621,0.1991 0.014193,0.2746 l 0.00649,0.1373 -0.2135816,0.02 c -0.1174706,0.011 -0.2827666,0.03 -0.3673249,0.041 -0.1206326,0.017 -0.1622435,0.011 -0.1932172,-0.026 -0.070911,-0.085 -0.027991,-0.1484 0.1281918,-0.188 0.2430412,-0.062 0.2362373,-0.036 0.199576,-0.7627 -0.022562,-0.4474 -0.046643,-0.6752 -0.079816,-0.755 -0.037083,-0.089 -0.043345,-0.1777 -0.028544,-0.4031 0.011105,-0.169 0.0071,-0.296 -0.00965,-0.3063 -0.015738,-0.01 -0.020496,-0.058 -0.010575,-0.1079 0.011359,-0.057 -0.0061,-0.1552 -0.04718,-0.2658 -0.03587,-0.097 -0.08475,-0.2699 -0.1086197,-0.385 l -0.043403,-0.2095 0.1166196,-0.2482 c 0.06414,-0.1366 0.1413187,-0.3101 0.1715082,-0.3856 0.066519,-0.1664 0.1573678,-0.2746 0.2305498,-0.2746 0.072901,0 0.2096988,-0.064 0.2096988,-0.098 0,-0.015 0.012292,-0.02 0.027315,-0.011 0.015023,0.01 0.035188,0 0.04481,-0.029 0.00962,-0.025 0.00339,-0.045 -0.013859,-0.045 -0.017245,0 -0.024218,-0.012 -0.015496,-0.026 0.00872,-0.014 -0.026217,-0.057 -0.077643,-0.095 -0.081738,-0.06 -0.090743,-0.081 -0.071581,-0.165 0.012055,-0.053 0.027242,-0.1482 0.033749,-0.212 0.024236,-0.2378 0.1324333,-0.3569 0.3242956,-0.3569 0.1223935,0 0.1963505,0.062 0.2948544,0.2479 0.060018,0.1131 0.068831,0.1614 0.051089,0.2797 -0.011793,0.079 -0.04122,0.1627 -0.065393,0.1869 -0.096164,0.096 -0.014473,0.1495 0.2218616,0.1447 0.1382327,0 0.1467537,0 0.3293177,0.2109 0.2452565,0.2798 0.4422655,0.5904 0.4422655,0.6973 0,0.093 -0.1190263,0.425 -0.206539,0.5763 l -0.076128,0.1316 0.065054,0.046 c 0.035784,0.025 0.065054,0.079 0.065054,0.1191 0,0.076 -0.3190323,0.5943 -0.3657104,0.5943 -0.014429,0 -0.018207,0.1061 -0.0084,0.2359 0.014667,0.1939 0.033252,0.2572 0.1044382,0.3555 0.093533,0.1291 0.1084964,0.2287 0.048745,0.3243 -0.03005,0.048 -0.030086,0.073 -2.307e-4,0.121 0.028632,0.046 0.030521,0.1282 0.00786,0.3432 -0.016394,0.1556 -0.030044,0.3917 -0.030335,0.5246 -4.613e-4,0.2136 0.010275,0.2608 0.092775,0.4069 0.055732,0.099 0.08952,0.1981 0.083908,0.2466 -0.00825,0.071 -0.024593,0.082 -0.1330226,0.09 -0.089109,0.01 -0.1370092,-0.01 -0.1715591,-0.046 z"
         id="path3674-4-3" />
      <path
         id="path3682-3-4-3-0"
         style="fill:#000000;stroke-width:0.0305117"
         d="m 10.17888,1053.7533 c 0.17051,-0.074 0.15725,-0.2243 -0.0232,-0.264 -0.0544,-0.012 -0.1335,-0.043 -0.1756997,-0.07 -0.16851,-0.1051 -0.16786,-0.1024 -0.17406,-0.7131 -0.003,-0.3139 -0.0196,-0.5966 -0.0366,-0.6282 -0.0169,-0.032 -0.0236,-0.085 -0.0147,-0.1188 0.021,-0.08 -0.0461,-0.2363 -0.23244,-0.5402 -0.0911,-0.1486 -0.1633,-0.3087 -0.18039,-0.4001 -0.0157,-0.084 -0.0255,-0.1554 -0.0218,-0.1591 0.004,0 0.11457,0.062 0.24646,0.147 0.1797,0.1152 0.2581,0.1491 0.3128,0.1353 0.0668,-0.017 0.07,-0.013 0.0379,0.047 -0.0277,0.052 -0.0258,0.075 0.009,0.1096 0.0384,0.038 0.0512,0.033 0.0995,-0.042 0.0305,-0.047 0.10298,-0.1273 0.16111,-0.1781 0.062,-0.054 0.10745,-0.1236 0.10998,-0.1679 0.003,-0.056 0.0191,-0.073 0.062,-0.065 0.067,0.012 0.35278,0.2499 0.35396,0.295 7e-4,0.027 0.20284,0.1373 0.25149,0.1373 0.0103,0 0.0159,-0.037 0.0124,-0.081 -0.005,-0.062 -0.0236,-0.083 -0.0795,-0.087 -0.0499,0 -0.16839,-0.1067 -0.37143,-0.3228 -0.24902,-0.2652 -0.33537,-0.3854 -0.52384,-0.7294 -0.1893273,-0.3456 -0.2235773,-0.4297 -0.2126273,-0.5221 0.0105,-0.089 0.0327,-0.1194 0.11439,-0.1584 0.0557,-0.027 0.1103073,-0.077 0.1212673,-0.1111 0.011,-0.035 0.0462,-0.063 0.0789,-0.063 0.0507,0 0.0598,-0.024 0.0651,-0.1754 0.0108,-0.3103 0.003,-0.3543 -0.0801,-0.4254 -0.1910873,-0.1643 -0.4814773,-0.098 -0.5575473,0.1266 -0.0224,0.066 -0.0711,0.1529 -0.10808,0.1923 -0.0502,0.053 -0.0576,0.078 -0.0292,0.095 0.0259,0.016 -0.0162,0.062 -0.13154,0.1433 -0.0933,0.066 -0.21377,0.1535 -0.26773,0.1946 -0.054,0.041 -0.0884,0.063 -0.0764,0.05 0.0377,-0.044 -0.062,-0.1926 -0.14265,-0.2128 -0.1414,-0.035 -0.24811,0.015 -0.23388,0.1103 0.002,0.012 -0.017,0.014 -0.0417,0 -0.0293,-0.011 -0.0555,0.01 -0.0752,0.062 -0.0166,0.044 -0.0457,0.079 -0.0647,0.079 -0.021,0 -0.0258,0.021 -0.0124,0.053 0.0122,0.029 0.0228,0.071 0.0236,0.091 8.1e-4,0.021 0.019,0.038 0.0403,0.038 0.0214,0 0.0476,0.014 0.0582,0.031 0.0106,0.017 0.008,0.028 -0.006,0.024 -0.0138,0 -0.0773,0 -0.14096,0.016 -0.0831,0.017 -0.12381,0.044 -0.14417,0.098 -0.0159,0.042 -0.053,0.075 -0.0843,0.075 -0.0308,0 -0.08,0.017 -0.10935,0.039 -0.0819,0.06 -0.0172,0.1963 0.12052,0.2539 0.10436,0.044 0.10748,0.049 0.0643,0.1129 -0.0317,0.047 -0.0702,0.064 -0.12765,0.058 -0.12757,-0.014 -0.21019,0.061 -0.26806,0.2446 -0.067,0.2126 -0.066,0.2751 0.005,0.3634 0.0452,0.056 0.0861,0.071 0.18542,0.068 0.12283,0 0.12671,-5e-4 0.10738,0.077 -0.011,0.044 -0.0812,0.2436 -0.15599,0.4436 -0.0909,0.243 -0.12579,0.3736 -0.10533,0.3941 0.0205,0.02 0.0374,0.011 0.0512,-0.028 0.0113,-0.032 0.0993,-0.2301 0.19543,-0.4399 0.0962,-0.2098 0.18411,-0.4207 0.19543,-0.4687 l 0.0206,-0.087 0.10484,0.1179 c 0.0577,0.065 0.16816,0.2483 0.24556,0.4077 0.0774,0.1594 0.15977,0.3112 0.18304,0.3374 0.0366,0.041 0.0306,0.062 -0.045,0.1521 -0.048,0.057 -0.0811,0.1205 -0.0737,0.1401 0.007,0.019 -0.0198,0.1021 -0.0606,0.1835 -0.0408,0.081 -0.0915,0.2029 -0.11275,0.27 -0.0212,0.067 -0.0711,0.2006 -0.11096,0.2966 -0.0803,0.1937 -0.0935,0.3448 -0.0322,0.3684 0.0221,0.01 0.11428,-0.011 0.20478,-0.042 0.0905,-0.032 0.19664,-0.058 0.23588,-0.058 0.0779,0 0.25166,-0.08 0.25091,-0.1152 -0.002,-0.072 -0.066,-0.11 -0.17806,-0.1034 -0.0669,0 -0.13043,-0.01 -0.14117,-0.024 -0.0107,-0.017 -0.007,-0.032 0.009,-0.032 0.0157,0 0.0462,-0.045 0.0677,-0.099 0.0979,-0.2488 0.187641,-0.4152 0.23313,-0.4327 0.101501,-0.039 0.175061,0.099 0.21772,0.4088 0.0762,0.5532 0.0843,0.6438 0.0608,0.6808 -0.021,0.033 -0.0361,0.3246 -0.0169,0.3287 0.0324,0.01 0.52674,0.065 0.648381,0.076 0.083899,0.01 0.1804873,0 0.2146373,-0.013 z m -0.4691697,-3.1287 c -0.0393,-0.035 -0.0844,-0.087 -0.10026,-0.1163 -0.0256,-0.048 -0.0152,-0.052 0.0937,-0.042 0.13433,0.012 0.21954,0.065 0.19763,0.1217 -0.008,0.02 0.0308,0.055 0.0857,0.077 l 0.0998,0.041 -0.0763,0.022 c -0.0876,0.025 -0.1973273,-0.013 -0.3002873,-0.103 z m 0.10376,-0.523 c -0.0357,-0.035 -0.0876,-0.076 -0.11535,-0.092 -0.0394,-0.022 -0.0466,-0.057 -0.0331,-0.1577 0.01,-0.071 0.0259,-0.1295 0.0362,-0.1295 0.029,0 0.3043297,0.4758 0.3072597,0.531 10e-4,0.027 -0.0646,-0.024 -0.1950697,-0.1521 z" />
      <path
         style="fill:#000000;stroke-width:0.0305117"
         d="m 5.8752011,1053.7226 c 0.0272,-0.027 0.0495,-0.075 0.0495,-0.1065 0,-0.031 0.0123,-0.065 0.0273,-0.074 0.015,-0.01 0.0344,-0.068 0.043,-0.1315 0.0321,-0.2338 0.11197,-0.6099 0.17879,-0.8418 0.0561,-0.1948 0.0844,-0.2471 0.15283,-0.2824 0.0779,-0.04 0.13017,-0.1259 0.36651,-0.6003 0.0315,-0.063 0.0716,-0.1524 0.0893,-0.1984 l 0.032,-0.083 0.0468,0.091 c 0.0257,0.05 0.0984,0.1464 0.16151,0.2136 0.0837,0.089 0.13419,0.186 0.18662,0.3585 0.0509,0.1673 0.0863,0.2365 0.12101,0.2365 0.0699,0 0.13488,0.3697 0.12676,0.7216 l -0.006,0.2792 0.15999,0.03 c 0.088,0.017 0.202,0.048 0.25333,0.069 0.062,0.025 0.13365,0.03 0.2135802,0.014 0.0793,-0.016 0.10057,-0.029 0.0624,-0.038 -0.0452,-0.01 -0.0488,-0.019 -0.0163,-0.039 0.0316,-0.02 0.0236,-0.033 -0.0337,-0.056 -0.1314002,-0.053 -0.2485902,-0.1694 -0.2502902,-0.2488 -0.003,-0.1377 0.0666,-0.7341 0.10025,-0.8589 0.0397,-0.1475 0.0218,-0.2081 -0.0616,-0.2081 -0.0341,0 -0.062,-0.018 -0.062,-0.041 0,-0.023 -0.0275,-0.066 -0.061,-0.096 -0.0421,-0.038 -0.061,-0.094 -0.061,-0.1804 0,-0.069 -0.043,-0.2418 -0.0957,-0.3843 -0.0538,-0.1458 -0.0998,-0.3354 -0.10521,-0.4336 -0.005,-0.096 -0.0255,-0.2044 -0.0451,-0.2409 -0.0286,-0.054 -0.0267,-0.071 0.01,-0.092 0.0363,-0.02 0.0401,-0.054 0.019,-0.1667 -0.0145,-0.078 -0.0182,-0.1545 -0.008,-0.1706 0.0101,-0.016 0.0702,-0.021 0.1358,-0.01 0.0978,0.017 0.13519,0.01 0.22086,-0.059 0.0567,-0.043 0.1277,-0.1242 0.15769,-0.1799 0.0733,-0.1362 0.0482,-0.1789 -0.34295,-0.5832 -0.28121,-0.2907 -0.32596,-0.3252 -0.43594,-0.3357 -0.14405,-0.014 -0.19984,-0.053 -0.21908,-0.1537 -0.016,-0.084 -0.002,-0.1088 0.0836,-0.1578 0.0352,-0.02 0.0566,-0.059 0.0506,-0.092 -0.006,-0.031 -0.0166,-0.1117 -0.0242,-0.1788 -0.008,-0.067 -0.0203,-0.1526 -0.0281,-0.1899 -0.0185,-0.088 -0.21673,-0.222 -0.32809,-0.222 -0.10918,0 -0.26518,0.149 -0.26518,0.2533 0,0.041 -0.0206,0.092 -0.0458,0.1128 -0.0569,0.047 -0.06,0.2021 -0.005,0.235 0.0226,0.013 0.0492,0.076 0.0591,0.1388 0.0207,0.132 0.003,0.1467 -0.24366,0.2046 -0.0873,0.021 -0.17125,0.053 -0.18662,0.073 -0.0314,0.04 -0.16751,0.4508 -0.21894,0.6609 -0.0507,0.2074 -0.095,0.3051 -0.13797,0.3051 -0.0213,0 -0.0467,-0.021 -0.0564,-0.046 -0.0255,-0.066 -0.0805,-0.056 -0.0805,0.015 0,0.034 -0.0149,0.061 -0.0331,0.061 -0.0182,0 -0.0273,0.017 -0.0203,0.038 0.007,0.022 0.0508,0.034 0.10414,0.029 0.11364,-0.012 0.16311,0.044 0.16861,0.1905 0.005,0.121 0.0582,0.1697 0.18697,0.1697 0.0561,0 0.0785,0.02 0.0898,0.079 0.01,0.052 -2.3e-4,0.085 -0.0293,0.096 -0.11136,0.043 -0.115,0.3383 -0.004,0.3672 0.0676,0.018 0.0685,0.069 0.007,0.3738 -0.0254,0.1258 -0.0538,0.2751 -0.0632,0.3318 -0.009,0.057 -0.0429,0.1287 -0.0744,0.1601 -0.0358,0.036 -0.0572,0.1005 -0.0572,0.1726 0,0.078 -0.02,0.1323 -0.061,0.1675 -0.0676,0.058 -0.0671,0.053 -0.0771,0.7104 -0.006,0.4034 -0.0151,0.4752 -0.0736,0.5897 -0.0976,0.1914 -0.0776,0.2609 0.0783,0.2722 0.0853,0.01 0.1419,-0.01 0.17544,-0.04 z"
         id="path3680-9-8-5-2-8" />
      <path
         d="m 6.4768313,1051.0187 0.61207,-1.3141 0.0173,0.01 -0.0194,0.041 h -0.006 l -0.009,0.021 0.0572,0.026 0.01,-0.02 -0.0261,-0.012 0.019,-0.041 h 0.005 l 0.0197,-0.042 h 0.007 l 0.0138,-0.028 h -0.008 l 0.16263,-0.3482 h 0.0106 l 0.0127,-0.028 h -0.0102 l 0.024,-0.051 -0.048,-0.022 0.20355,-0.4364 c 0.0155,-0.01 0.0423,-0.025 0.0801,-0.068 0.036,-0.041 0.11148,-0.1252 0.17039,-0.1908 0.0473,-0.052 0.0833,-0.093 0.0833,-0.093 l 0.01,-0.02 -0.003,-0.01 0.0198,-0.043 -0.004,-0.061 -0.0145,-0.1994 c 0,0 -0.005,-0.049 -0.0607,-0.075 h -0.002 c -0.0557,-0.027 -0.0967,0 -0.0967,0 l -0.16193,0.1168 -0.0494,0.036 -0.0205,0.043 -0.009,0.01 -0.009,0.02 c 0,0 -0.008,0.054 -0.0173,0.1228 -0.0123,0.088 -0.0286,0.2 -0.037,0.2536 -0.009,0.056 -0.005,0.088 -7e-4,0.1044 l -1.04775,2.2486 z"
         id="path51538-6-9-8-1-2-7-2" />
    </g>
  </g>
</svg>
