<?xml version="1.0" encoding="UTF-8" standalone="no"?>
<!-- Created with Inkscape (http://www.inkscape.org/) -->

<svg
   width="34.823162mm"
   height="5.8985062mm"
   viewBox="0 0 34.823162 5.8985062"
   version="1.1"
   id="svg7270"
   sodipodi:docname="inkporter-svg-spd2ftq_.svg"
   xmlns:inkscape="http://www.inkscape.org/namespaces/inkscape"
   xmlns:sodipodi="http://sodipodi.sourceforge.net/DTD/sodipodi-0.dtd"
   xmlns="http://www.w3.org/2000/svg"
   xmlns:svg="http://www.w3.org/2000/svg">
  <sodipodi:namedview
     id="namedview7272"
     pagecolor="#ffffff"
     bordercolor="#666666"
     borderopacity="1.0"
     inkscape:pageshadow="2"
     inkscape:pageopacity="0.0"
     inkscape:pagecheckerboard="0"
     inkscape:document-units="mm"
     showgrid="false"
     inkscape:zoom="0.64052329"
     inkscape:cx="397.33138"
     inkscape:cy="561.25984"
     inkscape:window-width="1920"
     inkscape:window-height="1017"
     inkscape:window-x="-8"
     inkscape:window-y="-8"
     inkscape:window-maximized="1"
     inkscape:current-layer="layer1" />
  <defs
     id="defs7267" />
  <g
     inkscape:label="Layer 1"
     inkscape:groupmode="layer"
     id="layer1"
     transform="translate(-66.02931,-146.9965)">
    <g
       id="G-Infantry-5-4-Pf"
       transform="translate(-19.215819,131.3855)">
      <path
         id="path3666"
         style="fill:#000000;stroke-width:0.0303152"
         d="m 21.544922,332.4707 c -0.450662,0.0114 -0.811448,0.1648 -0.96875,0.47852 -0.262677,0.52914 -0.257016,1.06943 -0.578125,1.11328 -0.320126,0.0416 0.257812,0.17773 0.257812,0.17773 0,0 -8.83e-4,0.11367 0.05664,0.125 0.05329,0 0.11686,0.0539 0.04883,0.20508 -0.06652,0.1474 -0.240144,0.37338 -0.09766,0.41797 0.141354,0.0416 0.166016,0.0566 0.166016,0.0566 l 0.02539,0.0957 c 0,0 -0.02255,0.0554 0.0039,0.0781 0.02646,0.0378 0.105469,0.0684 0.105469,0.0684 l 0.02344,0.11719 c 0,0 -0.08159,0.0421 -0.06836,0.0723 0.01134,0.0378 0.09059,0.0976 0.05469,0.1543 -0.0378,0.0529 -0.08958,0.21479 -0.03516,0.27148 0.06274,0.0529 0.332032,0.13282 0.332032,0.13282 l 0.396484,-0.0918 c -0.414992,0.63722 -0.577267,1.6081 -1.373047,2.17773 0,0.32512 -0.06914,0.5488 -0.208984,0.67579 -0.195024,0.1764 -0.381685,0.54514 -0.882813,1.75781 -0.109228,0.26438 -0.32126,0.59592 -0.470703,0.73633 -0.150047,0.14048 -0.271484,0.37232 -0.271484,0.51367 0,0.17922 -0.36736,0.59699 -1.214844,1.38281 -0.668183,0.61963 -1.286559,1.26629 -1.375,1.4375 -0.102425,0.19778 -0.222361,0.28782 -0.330078,0.24609 -0.109606,-0.0421 -0.20862,0.0371 -0.279297,0.22266 -0.05972,0.15783 -0.163571,0.32047 -0.230469,0.36133 -0.0669,0.0413 -0.121093,0.14949 -0.121093,0.24023 0,0.34723 0.43321,0.13656 1.273437,-0.61914 1.269695,-1.14192 1.625805,-1.3915 1.882813,-1.32422 0.303118,0.0793 0.962513,-0.21134 1.300781,-0.57226 0.151937,-0.16211 0.453733,-0.3287 0.669922,-0.36914 0.216189,-0.0406 0.620642,-0.24696 0.898437,-0.45899 l 0.503906,-0.38476 v 0.55078 c 0,0.46556 -0.181173,1.4738 -0.476562,2.70898 h 0.0098 c -0.202472,0.45769 -0.414661,0.93946 -0.451172,1.04297 -0.07332,0.21165 -0.582826,0.7944 -0.521485,1.36133 0.06274,0.56541 0.06685,1.10291 0.08008,1.17773 0.01134,0.0718 0.07938,0.19275 0.03516,0.29102 -0.04271,0.0907 -0.14759,0.27624 0.0059,0.38281 0.151937,0.11339 0.1875,0.099 0.1875,0.19727 0,0.0945 0.05124,0.18757 0.123047,0.24804 0.07332,0.0643 0.150391,0.62305 0.150391,0.62305 l 0.117187,0.5625 c 0,0 -0.05255,0.0902 -0.09375,0.1582 -0.04271,0.068 -0.02539,0.13672 -0.02539,0.13672 0,0 -0.04979,0.12716 -0.148438,0.19141 -0.09713,0.0605 -0.326172,0.36328 -0.326172,0.36328 0,0 -0.264941,0.22575 -0.380859,0.25977 -0.116032,0.0378 -0.574219,0.22851 -0.574219,0.22851 0,0 -0.472462,0.0891 -0.509766,0.24024 -0.0378,0.15496 -0.0039,0.29882 -0.0039,0.29882 l -0.04297,0.10938 c 0,0 0.486495,0.14529 0.701172,0.16797 0.213166,0 1.346365,-0.35157 1.511719,-0.38672 0.167811,-0.0378 0.228343,-0.0582 0.316406,-0.0469 0.08542,0 0.111328,0.14063 0.111328,0.14063 0,0 0.611129,-0.0383 0.757813,-0.0723 0.146646,-0.0378 0.150391,-0.15429 0.150391,-0.15429 l -0.01953,-0.22657 -0.05078,-0.0566 c 0,0 0.212821,-0.33638 0.175781,-0.55859 -0.03779,-0.22299 -0.132812,-0.46875 -0.132812,-0.46875 0,0 0.0089,-0.35078 -0.01758,-0.44336 -0.03402,-0.0907 0.01172,-0.19003 0.01172,-0.26562 0,-0.0756 -0.08556,-0.28354 -0.09766,-0.35157 -0.01134,-0.068 0.04883,-0.39453 0.04883,-0.39453 0,0 0.324527,-0.45347 0.28711,-0.58008 -0.03402,-0.13228 0.131733,-0.48893 0.08789,-0.57812 -0.0412,-0.0832 -0.103583,-0.31404 -0.128906,-0.41797 -0.02268,-0.10205 -0.01958,-0.17593 0.03711,-0.29687 0.05594,-0.12473 0.05695,-0.28495 0.03125,-0.44141 -0.02646,-0.15118 -0.0077,-0.18179 0.28711,-0.30274 0.117507,-0.0495 0.298563,-0.1928 0.482422,-0.35937 0.0167,0.005 0.03471,0.009 0.05273,0.01 0.324283,0.0249 0.530591,0.70232 0.576172,0.8711 0.102803,0.17386 0.749835,1.39613 0.8125,1.51367 0.06123,0.11717 0.487686,0.3822 0.541015,0.46875 0.0548,0.0831 0.265307,0.6664 0.449219,0.70117 0.184063,0.0378 0.467393,-7e-5 0.552735,0.11328 0.08806,0.10961 0.475369,0.50303 0.498046,0.54688 0.02646,0.0453 0.09179,0.17258 0.08008,0.25195 -0.01134,0.0831 0.10825,0.10988 0.15625,0.125 0.04951,0 0.04883,0.29102 0.04883,0.29102 l 0.0078,0.0625 c -0.09751,0.3137 -0.259595,0.62747 -0.359375,0.72461 -0.09751,0.10204 -0.496424,0.50832 -0.509765,0.59375 -0.01134,0.0869 -0.03021,0.21134 0.117187,0.33984 0.146646,0.12473 0.295913,0.15374 0.47461,0.19531 0.178771,0.0416 0.891356,-0.071 1.027343,-0.20703 0.134551,-0.13606 0.324355,-0.49271 0.375,-0.57812 0.04951,-0.0869 0.04492,0 0.04492,0 l 0.300781,-0.19727 c 0,0 0.05462,-0.30255 0.01758,-0.35547 -0.0378,-0.0567 0.01644,-0.19296 -0.01758,-0.29883 -0.02646,-0.10582 -0.180255,-0.24106 -0.185546,-0.32421 -0.0038,-0.0907 0.01278,-0.15879 -0.01367,-0.23438 -0.02268,-0.0756 -0.117824,-0.12381 -0.148438,-0.14648 -0.03024,-0.0378 -0.03794,-0.25084 -0.08594,-0.33399 -0.048,-0.0831 -0.01132,-0.0605 0.08203,-0.11719 0.09184,-0.0529 0.261719,-0.27148 0.261719,-0.27148 h -0.28125 c -0.07068,0 -0.148438,0.0645 -0.148438,0.0645 l -0.0918,-0.0449 c 0,0 -0.04356,-0.17441 -0.154297,-0.25 -0.111874,-0.0794 -0.164062,-0.31445 -0.164062,-0.31445 l 0.101562,-0.10938 -0.18164,-0.20312 -0.07031,0.0371 -0.08984,-0.14453 h -0.107421 c 0,0 0.01763,-0.73819 -0.03906,-0.91016 -0.05745,-0.17008 -0.307274,-0.41218 -0.326172,-0.4375 -0.02268,-0.0378 -0.02471,-0.2708 -0.09766,-0.30859 -0.07332,-0.0378 -0.189453,-0.11133 -0.189453,-0.11133 0,0 -0.08776,-0.32145 -0.04883,-0.62305 0.03779,-0.29858 -0.203132,-1.48618 -0.238281,-1.63281 -0.01167,-0.0387 -0.03351,-0.35745 -0.03906,-0.53516 h 0.0293 c -0.01056,-0.0393 -0.01816,-0.0702 -0.0293,-0.11133 -0.377575,-1.39587 -0.411287,-1.72008 -0.193359,-1.85546 0.08126,-0.0504 0.201877,-0.37029 0.269531,-0.71094 0.150803,-0.76037 0.01888,-1.30075 -0.4375,-1.79297 -0.247937,-0.26763 -0.324219,-0.46049 -0.324219,-0.82813 0,-0.46084 0.02265,-0.49033 0.578125,-0.77148 0.748082,-0.37908 0.866322,-0.67367 0.619141,-1.5332 -0.10167,-0.35335 -0.306127,-0.77013 -0.455078,-0.92774 -0.148914,-0.15753 -0.813747,-0.54431 -1.476563,-0.85937 -0.371527,-0.16388 -0.697471,-0.28528 -0.984375,-0.36914 l 0.08203,-0.0195 c -0.0548,-0.0718 -0.154375,-0.12891 -0.238281,-0.12891 -0.08655,0 -0.266077,0.0567 -0.326172,0 -0.06274,-0.0529 -0.100361,-0.11696 -0.07617,-0.22656 0.02646,-0.10961 0.04297,-0.16602 0.04297,-0.16602 h 0.621094 c 0,0 -0.214473,-0.48093 -0.25,-0.59961 -0.03779,-0.11716 0.25815,-1.38835 -0.623047,-1.68164 -0.356798,-0.12103 -0.707118,-0.18105 -1.015625,-0.17383 z"
         transform="matrix(0.26458333,0,0,0.26458333,109.32362,-72.178253)" />
      <path
         d="m 108.33632,18.6644 c 0.0201,-0.023 0.037,-0.1076 0.037,-0.1076 0,0 -0.0169,-0.062 -0.0483,-0.057 -0.0314,0.01 -0.15911,0.01 -0.17569,-0.034 -0.0173,-0.042 -0.0258,-0.091 -0.0258,-0.091 l -0.20143,-0.031 c 0,0 0.0628,0.063 0.0628,0.088 0,0.025 0,0.04 0.0254,0.068 0.0254,0.029 0.0762,0.049 0.0903,0.085 0.0141,0.037 0.0427,0.1362 0.0427,0.1362 l 0.12171,0.068 c 0.0286,-0.053 0.0515,-0.1019 0.0713,-0.1245 m -1.48379,-0.363 c -0.0113,0.073 0.0487,0.073 0.17322,0.093 0.11183,0.018 0.29527,-0.046 0.36371,-0.078 l -0.004,-7e-4 c -0.0564,-0.027 -0.11642,-0.08 -0.11642,-0.08 0,0 -0.32879,-0.037 -0.35171,-0.048 -0.0116,-0.01 -0.0462,-0.013 -0.0762,-0.019 0.0131,0.03 0.0191,0.082 0.0109,0.133 m 2.11631,2.1929 c -0.0628,-0.043 -0.031,-0.1704 -0.0286,-0.2188 0.003,-0.048 -0.0765,-0.037 -0.11889,-0.034 -0.0427,0 -0.10795,0.017 -0.1531,-0.017 -0.0455,-0.034 -0.25788,-0.028 -0.25788,-0.028 0,0 -0.003,0.048 -0.0233,0.06 -0.0194,0.011 -0.0339,0.022 -0.0194,0.059 0.0141,0.037 -0.0113,0.093 -0.0233,0.1189 -0.0109,0.026 -0.0166,0.034 -0.008,0.06 0.008,0.026 -0.0568,0.073 -0.11077,0.088 -0.054,0.014 -0.0226,0.2127 -0.008,0.2833 0.0141,0.071 -0.0628,0.1735 -0.0628,0.1735 0,0 0.0201,0.062 0.0282,0.082 0.009,0.019 0.006,0.187 0.0201,0.2438 0.0145,0.057 -0.0141,0.06 -0.0141,0.06 0,0 -0.0141,0.065 -0.0395,0.074 -0.0258,0.01 -0.2159,-0.01 -0.2159,-0.01 l -0.003,-0.051 c 0,0 -0.14182,0.031 -0.26388,0.059 -0.12206,0.029 -0.37994,-0.01 -0.44803,-0.018 -0.0681,-0.011 -0.0882,-0.028 -0.0882,-0.028 l 0.0201,-0.02 c 0,0 -0.037,-0.085 -0.008,-0.1104 0.0282,-0.025 0.28328,-0.043 0.34325,-0.046 0.0593,0 0.0822,-0.04 0.11042,-0.054 0.0286,-0.014 0.20144,-0.1873 0.20144,-0.1873 0,0 -0.0198,-0.034 -0.031,-0.051 -0.0113,-0.018 -0.006,-0.043 0.008,-0.068 0.0141,-0.026 -0.003,-0.116 -0.008,-0.1305 -0.006,-0.014 -0.006,-0.062 0.002,-0.1136 0.009,-0.051 0,-0.1757 0,-0.1757 0,0 -0.0282,-0.051 -0.0593,-0.085 -0.031,-0.034 -0.0254,-0.1079 -0.003,-0.1446 0.0226,-0.037 -0.0113,-0.1447 -0.0113,-0.1842 0,-0.04 0.0568,-0.199 0.0596,-0.2244 0.002,-0.025 0.002,-0.1361 0.0452,-0.2638 0.0427,-0.1277 0.22436,-0.1302 0.31468,-0.1503 0.091,-0.019 0.0226,-0.057 -0.0311,-0.1161 -0.054,-0.06 -0.15028,-0.2102 -0.16721,-0.2441 -0.0173,-0.034 0.008,-0.099 -0.0656,-0.1418 -0.0734,-0.042 -0.0681,-0.093 -0.0564,-0.1217 0.0116,-0.029 0.0822,-0.108 0.054,-0.1732 -0.0282,-0.065 -0.0656,-0.1133 -0.0656,-0.1133 0,0 -0.13899,-0.074 -0.17568,-0.1136 -0.0265,-0.029 -0.0995,-0.057 -0.15911,-0.08 -0.0773,0.03 -0.248,0.094 -0.37429,0.1083 -0.16722,0.02 -0.26388,-0.056 -0.28928,-0.091 -0.0254,-0.034 -0.0282,-0.097 -0.0282,-0.1298 0,-0.022 0.0152,-0.051 0.0328,-0.068 l -0.29916,-0.04 c 0,0 -0.0399,0.017 -0.0769,0.011 -0.0367,-0.01 -0.0935,-0.02 -0.0935,-0.02 0,0 -0.10513,-0.011 -0.12206,-0.014 -0.0173,0 -0.0226,-0.023 -0.0226,-0.023 0,0 -0.15028,0 -0.18732,-0.011 -0.037,-0.01 -0.0399,-0.031 -0.0399,-0.031 0,0 -0.13865,-0.014 -0.1584,-0.017 -0.0201,0 -0.0173,-0.068 0.008,-0.068 0.0254,0 0.0346,0 0.0346,0 0,0 0.002,-0.054 0.0222,-0.054 0.0201,0 0.0769,0.01 0.11077,0.01 0.0339,0 0.006,0.068 0.006,0.068 l 0.31715,0.026 c 0,0 0.0282,-0.01 0.0455,-0.011 0.0173,-0.01 0.11359,0.014 0.11359,0.014 l 0.0508,0.01 0.23848,0.01 c 0,0 0.0794,-0.011 0.0991,-0.011 0.0198,0 0.0511,0.025 0.0511,0.025 h 0.71473 l 0.037,0.031 0.1531,0.01 c 0,0 0.0512,-0.017 0.0709,-0.014 0.0198,0 0.0624,0.012 0.0624,0.012 l 0.15029,0.011 c 0,0 0.0395,-0.017 0.06,-0.017 0.0194,0 0.0508,0.031 0.0508,0.031 l 0.11042,0.01 c 0,0 0.06,-0.02 0.10795,-0.017 0.048,0 0.0681,0.1 0.0681,0.1 0,0 0.0169,0.01 0.0423,0.011 0.0254,0 0.1023,0.054 0.1023,0.054 0,0 -0.0113,-0.082 -0.0229,-0.1249 -0.0113,-0.042 0.003,-0.065 0.003,-0.065 l -0.0423,-0.074 c 0,0 -0.043,-0.012 -0.0624,-0.019 -0.0201,-0.01 -0.0173,-0.034 -0.0173,-0.034 0,0 0.0907,-0.1729 0.13053,-0.2466 0.0395,-0.074 0.10513,-0.2325 0.43392,-0.1955 0.32914,0.037 0.32632,0.3458 0.34043,0.4167 0.0141,0.071 0.0141,0.1249 0.0258,0.1079 0.0109,-0.017 0.0568,-0.031 0.0935,-0.026 0.0363,0.01 0.21801,0.176 0.26634,0.2074 0.0483,0.031 0.0201,0.071 0.0289,0.082 0.008,0.011 0.12171,0.1249 0.14711,0.1874 0.0254,0.062 0.005,0.3489 -0.003,0.4254 -0.009,0.077 -0.091,0.1958 -0.0967,0.2329 -0.006,0.037 0.0367,0.1389 0.0367,0.1389 0,0 0.14499,0.01 0.2219,0.031 0.0765,0.025 0.0222,0.1958 0.0222,0.1958 0,0 -0.0222,0.1189 -0.0279,0.1697 -0.006,0.051 0.0279,0.043 0.0141,0.267 -0.0141,0.2244 -0.18768,0.2554 -0.18768,0.2554 0,0 0,0.065 0.006,0.1193 0.006,0.054 -0.008,0.2519 -0.008,0.2519 l -0.0797,0.012 -0.0709,0.2582 0.35207,-0.088 c 0,0 0.14711,-0.018 0.20708,-0.037 0.0593,-0.02 0.0963,0.019 0.0963,0.019 0,0 0.0653,0 0.085,0.023 0.0201,0.02 0.0339,0.2155 0.0339,0.2155 0,0 -0.0395,0.014 -0.0138,0.068 0.0254,0.054 -0.009,0.2667 -0.0427,0.3291 -0.0342,0.062 -0.0794,0.062 -0.24659,0.071 -0.16792,0.01 -0.0797,-0.2018 -0.0765,-0.2127 0.002,-0.012 0.0511,-0.074 0.0339,-0.1136 -0.0173,-0.04 -0.0395,-0.017 -0.0653,-0.01 -0.0254,0.01 -0.0681,0.054 -0.10513,0.1045 -0.037,0.052 -0.0709,0.04 -0.0709,0.04 0,0 -0.2159,0.1333 -0.33196,0.1816 -0.11642,0.048 -0.32067,0.077 -0.41134,0 -0.0907,-0.077 -0.17004,-0.7295 -0.17568,-0.8628 0,0 -0.006,0 -0.0681,-0.045"
         id="path171062-1-1-2-6-9-3"
         style="stroke-width:0.352778" />
      <path
         d="m 117.6955,18.490154 -0.0765,-0.032 0.0582,0.1118 z m 1.56986,1.9152 c -0.0504,-0.034 -0.10054,-0.1118 -0.12735,-0.1541 -0.0265,-0.042 -0.14359,-0.069 -0.16722,-0.1994 -0.024,-0.1305 -0.0663,-0.1379 -0.0931,-0.1778 -0.0265,-0.04 -0.16475,-0.2734 -0.18592,-0.3161 -0.0212,-0.043 -0.21801,-0.364 -0.21801,-0.364 0,0 -0.0131,0.01 -0.0582,0.072 -0.0452,0.064 -0.0639,0.1834 -0.096,0.2766 -0.0314,0.093 -0.0265,0.1118 -0.0102,0.1249 0.0159,0.013 0.061,0.058 0.0663,0.1037 0.005,0.045 0.0212,0.1164 0.0557,0.1376 0.0349,0.022 0.0533,0.088 0.0903,0.1199 0.0374,0.032 0.0183,0.1118 0.0183,0.1432 0,0.032 0.072,0.1171 0.0935,0.1277 0.0212,0.011 0.0582,0.085 0.0794,0.098 0.0215,0.013 0.10654,0.1358 0.10654,0.1358 0,0 0.085,0.09 0.11641,0.1246 0.0321,0.034 0.0455,0.019 0.0455,0.019 0,0 0.0293,0.024 0.0956,0.098 0.0663,0.075 -0.0268,0.2127 -0.0268,0.2127 l -0.0261,-0.019 c 0,0 -0.0296,0.1195 -0.0504,0.1594 -0.0215,0.04 -0.0508,0.1274 -0.13299,0.2152 -0.0825,0.087 -0.20179,0.045 -0.20179,0.045 l -0.0166,-0.029 c 0,0 -0.0367,-0.01 -0.0473,-0.064 -0.0106,-0.058 0.0557,-0.1379 0.0826,-0.1884 0.0265,-0.05 -0.008,-0.2868 -0.006,-0.3132 0.003,-0.027 -0.10901,-0.099 -0.11924,-0.12 -0.0109,-0.021 -0.0801,-0.1009 -0.0801,-0.1009 0,0 -0.1009,-0.034 -0.15416,-0.1189 -0.0529,-0.085 -0.18027,-0.088 -0.22578,-0.096 -0.0448,-0.01 -0.10866,-0.067 -0.12453,-0.1087 -0.0159,-0.043 -0.13053,-0.1756 -0.20214,-0.2631 -0.0713,-0.088 -0.0741,-0.2978 -0.0843,-0.3853 -0.0113,-0.088 -0.0138,-0.5231 -0.0138,-0.5231 l -0.0448,-0.016 0.0314,-0.2208 -0.20179,-0.3503 c 0,0 -0.0346,0.034 -0.0561,0.029 -0.0212,-0.01 -0.0212,-0.01 -0.0339,-0.01 -0.0134,0 -0.0296,0.018 -0.0455,0.015 -0.0162,0 -0.0342,-0.021 -0.0476,-0.021 -0.013,0 -0.0349,0.013 -0.0483,0.01 -0.0127,-0.01 -0.0473,-0.016 -0.0473,-0.016 0,0 -0.0452,0 -0.0642,-0.016 -0.0183,-0.016 -0.0236,-0.048 -0.0236,-0.048 l -0.13053,0.061 -0.0395,0.069 -0.14605,-0.027 -0.1009,0.059 -0.0321,-0.08 0.0504,-0.021 c 0,0 -0.0504,-0.1086 -0.002,-0.1221 0.048,-0.013 0.1009,0.071 0.1009,0.071 0,0 0.23107,-0.093 0.22331,-0.1086 -0.008,-0.016 0.0131,-0.032 0.0318,-0.066 0.0187,-0.035 0.0374,-0.064 0.0374,-0.064 0,0 -0.0162,-0.046 -0.0162,-0.072 0,-0.027 0.0825,-0.061 0.10618,-0.093 0.0236,-0.032 0.003,-0.069 0.0109,-0.088 0.008,-0.019 0.0318,-0.021 0.0452,-0.034 0.013,-0.013 0.0159,-0.074 0.0342,-0.093 0.0187,-0.019 0.0508,-0.042 0.048,-0.056 -0.003,-0.013 -0.0265,-0.029 -0.0212,-0.056 0.005,-0.027 0.0399,-0.1225 0.0476,-0.1725 0.008,-0.051 0.013,-0.1306 0.006,-0.1729 -0.008,-0.042 0.042,-0.1115 0.0554,-0.1489 0.0138,-0.037 0.0476,-0.2554 0.0586,-0.2893 0.0106,-0.034 0.12489,-0.1725 0.12489,-0.1725 0,0 -0.0212,0 -0.0427,-0.01 -0.0212,-0.01 -0.0423,-0.058 -0.0586,-0.098 -0.0155,-0.039 -0.0367,-0.1061 -0.0476,-0.127 -0.0106,-0.021 -0.0452,-0.104 -0.0452,-0.104 0,0 -0.0395,-0.021 -0.0476,-0.053 -0.008,-0.032 -0.0215,-0.016 -0.0399,-0.024 -0.0187,-0.01 -0.0639,-0.024 -0.0639,-0.024 0,0 0.005,-0.1806 0.11712,-0.364 0.11148,-0.1831 0.24412,-0.1591 0.46743,-0.1648 0.2226,-0.01 0.30797,0.3588 0.30797,0.3588 0,0 0.0395,0.026 0.0529,0.061 0.0134,0.035 0.006,0.087 0.006,0.087 h 0.0395 c 0.0191,0 0.11678,0.016 0.15417,0.061 0.037,0.045 0.11148,0.053 0.17568,0.082 0.0635,0.03 0.0265,0.1034 0.0395,0.109 0.0134,0 0.0557,0.013 0.10125,0.021 0.0448,0.01 0.14852,0.096 0.20179,0.1411 0.0533,0.045 0.0533,0.09 0.0635,0.1115 0.0109,0.021 0.14887,0.1778 0.17004,0.212 0.0212,0.035 0.14111,0.1968 0.15663,0.2448 0.0159,0.048 0.0451,0.1037 0.0797,0.1461 0.0346,0.042 0.024,0.095 -0.024,0.2254 -0.0476,0.1309 -0.0476,0.133 -0.09,0.1862 -0.0427,0.053 -0.17533,0.2202 -0.17533,0.2202 0,0 0.0797,-0.029 0.15169,-0.042 0.0713,-0.013 0.11148,0.1567 0.11642,0.2018 0.005,0.046 0.0854,0.1623 0.11959,0.3006 0.0346,0.1379 -0.0797,0.1834 -0.0797,0.1834 0,0 0.0159,0.058 0.0159,0.1034 0,0.045 -0.0423,0.082 -0.0423,0.082 0,0 0.008,0.048 -0.005,0.075 -0.0134,0.026 -0.0617,0.015 -0.0617,0.015 0,0 0.019,0.1697 0.0452,0.2156 0.0268,0.045 0.10901,0.2603 0.1196,0.3527 0.0106,0.093 0.0455,0.181 0.11465,0.2233 0.0688,0.042 0.0635,0.087 0.0737,0.1489 0.0106,0.061 0.019,0.1351 0.0511,0.1616 0.0314,0.026 0.042,0.064 0.0395,0.133 -0.003,0.069 0.0159,0.098 0.0533,0.1221 0.037,0.024 0.0476,0.1382 0.0533,0.1732 0.005,0.034 0.0318,0.1538 0.085,0.1986 0.0529,0.045 0.0399,0.1277 0.0399,0.1277 0,0 0.0607,0.1093 0.0794,0.1302 0.0187,0.022 0.0187,0.077 0.0187,0.098 0,0.021 0.0236,0.085 0.0236,0.085 l -0.0794,0.082 c 0,0 -0.0935,0.075 -0.15946,0.088 -0.0663,0.013 -0.20179,-0.027 -0.20179,-0.027 l 0.0102,-0.029 c 0,0 -0.0102,-0.011 0,-0.066 0.0109,-0.056 0.0427,-0.093 0.0586,-0.1274 0.0159,-0.035 0.003,-0.1679 0.003,-0.1679 l -0.0236,-0.015 c 0,0 -0.0511,-0.088 -0.0935,-0.1387 -0.0423,-0.05 -0.15381,-0.1668 -0.22048,-0.2705 0,0 -0.0452,-0.034 -0.0956,-0.069"
         id="path171066-7-9-8-3-6-0"
         style="stroke-width:0.352778" />
      <path
         d="m 112.34983,20.7571 c -0.002,0.038 0.0219,0.2008 0.0251,0.2145 0.002,0.013 0.0656,-0.074 0.0769,-0.1016 0.0109,-0.027 0.0296,-0.069 0.0353,-0.093 0.006,-0.025 0,-0.068 0.006,-0.085 0.005,-0.017 -0.15945,-0.157 -0.15945,-0.157 0.009,0.058 0.0198,0.1845 0.0166,0.2222 m -1.17687,-2.8197 c -0.006,-0.038 0.0109,-0.085 0.0385,-0.088 0.0275,0 0.0497,0.01 0.055,-0.011 0.005,-0.019 -0.0328,-0.1344 -0.0328,-0.1344 0,0 -0.14852,0.1676 -0.1785,0.1894 -0.03,0.022 -0.15628,0.085 -0.18098,0.085 -0.0243,0 -0.13194,-0.024 -0.15381,-0.076 -0.0219,-0.052 -0.0247,-0.077 -0.0466,-0.1263 -0.0219,-0.05 -0.03,-0.079 -0.0162,-0.1097 0.0138,-0.03 0.0109,-0.063 0.008,-0.079 -0.003,-0.017 0,-0.077 0.0166,-0.096 0.0162,-0.019 -0.006,-0.025 -0.009,-0.058 -0.002,-0.033 -0.0356,-0.052 0.0109,-0.1045 0.0466,-0.052 0.0797,-0.1315 0.0797,-0.1315 l -0.0332,-0.038 c 0,0 -0.0303,-0.02 -0.049,-0.036 -0.0194,-0.016 -0.0469,-0.044 -0.0497,-0.074 -0.002,-0.03 -0.002,-0.099 -0.002,-0.099 l -0.0497,-0.021 c 0,0 -0.0575,0.1531 -0.0684,0.1831 -0.0109,0.031 -0.0579,0.082 -0.06,0.1432 -0.003,0.06 -0.036,0.1725 0.0296,0.362 0.0663,0.1894 0.0635,0.2688 0.10971,0.3072 0.0469,0.038 0.12912,0.074 0.19509,0.088 0.0656,0.013 0.26599,0.052 0.33761,0.099 0.0709,0.047 0.085,0.041 0.085,0.041 -0.0194,-0.063 -0.0303,-0.1757 -0.036,-0.2138 m 0.82056,2.782 c -0.006,-0.063 -0.0854,-0.2498 -0.0931,-0.2745 -0.008,-0.025 -0.006,-0.044 -0.006,-0.058 0,-0.014 -0.14005,-0.1535 -0.1591,-0.1891 -0.0194,-0.036 -0.0222,-0.1866 -0.0303,-0.2498 -0.008,-0.063 -0.0547,-0.1125 -0.0797,-0.1397 -0.0243,-0.028 -0.0603,-0.2035 -0.0603,-0.2307 0,-0.028 -0.11783,-0.532 -0.13441,-0.5429 -0.0166,-0.011 -0.049,-0.017 -0.0878,-0.019 -0.0384,0 -0.0409,-0.017 -0.0409,-0.017 v -0.052 l -0.0575,-0.017 c 0,0 -0.0332,-0.1041 0.0303,-0.1944 0.0628,-0.09 0.10089,-0.4473 0.10089,-0.4473 0,0 -0.19191,-0.093 -0.32349,-0.1482 -0.13159,-0.055 -0.37571,-0.104 -0.40323,-0.1097 -0.0275,-0.01 -0.15381,-0.14 -0.17533,-0.2226 -0.0219,-0.082 -0.12382,-0.3919 -0.12665,-0.4604 -0.003,-0.069 0.0991,-0.2963 0.13441,-0.3951 0.036,-0.099 0.0251,-0.093 0.0251,-0.093 l -0.22225,-0.1259 h -0.0332 l -0.03,-0.02 -0.0438,-0.035 -0.0469,-0.02 -0.003,-0.03 -0.29316,-0.1454 0.0138,-0.03 0.18063,0.091 0.009,-0.019 -0.17816,-0.09 -0.0469,-0.011 -0.0494,-0.042 -0.0603,-0.03 0.036,-0.049 0.03,0.016 0.0247,-0.044 0.11501,0.063 -0.0162,0.049 0.2854,0.1404 0.0438,0.017 0.005,0.019 0.0579,0.025 h 0.0191 l 0.0328,0.016 0.008,0.022 0.45049,0.2 0.24413,0.1207 0.06,-0.055 c 0.0303,-0.028 0.0413,-0.03 0.0607,-0.082 0.0191,-0.052 0.12629,-0.096 0.1397,-0.1094 0.0138,-0.014 0.008,-0.049 -0.0166,-0.1125 -0.0243,-0.063 -0.0409,-0.1676 -0.0409,-0.1676 0,0 -0.0631,-0.019 -0.0797,-0.039 -0.0166,-0.019 -0.0166,-0.041 -0.0769,-0.098 -0.06,-0.058 0.0332,-0.1344 0.0635,-0.1757 0.03,-0.041 0.0519,-0.1534 0.085,-0.2085 0.0328,-0.055 0.15345,-0.1044 0.38382,-0.082 0.23036,0.022 0.26881,0.1207 0.27975,0.1814 0.0109,0.06 0.0607,0.3312 0.0963,0.3944 0.0353,0.063 0.006,0.055 -0.0275,0.055 -0.0328,0 -0.0963,-0.011 -0.0963,-0.011 0,0 -0.008,0.01 -0.0272,0.036 -0.0194,0.03 -0.008,0.052 0.005,0.06 0.0141,0.01 0.0469,-0.01 0.11254,-0.027 0.0663,-0.019 0.12876,0.046 0.1591,0.066 0.0303,0.019 0.0854,0.011 0.10724,0.014 0.0219,0 0.12877,0.099 0.13406,0.132 0.006,0.033 0.0497,0.052 0.0656,0.074 0.0166,0.021 0.0497,0.032 0.0854,0.063 0.036,0.03 0.0275,0.1153 0.0635,0.1315 0.0353,0.017 0.18344,0.2664 0.23283,0.2936 0.0494,0.028 0.0494,0.085 0.066,0.1481 0.0166,0.063 0.0903,0.1207 0.11536,0.1732 0.0243,0.052 0.013,0.1478 -0.0162,0.2219 -0.0307,0.074 -0.16757,0.1291 -0.21449,0.1397 -0.0462,0.011 -0.1591,0.063 -0.1591,0.063 l 0.0635,0.058 -0.0328,0.068 c 0,0 0.10407,-0.027 0.13935,-0.03 0.036,0 0.0494,0.057 0.0631,0.1066 0.0138,0.049 0.0275,0.2413 0.0579,0.3923 0.0296,0.151 -0.11007,0.2363 -0.11007,0.2363 0,0 -0.002,0.03 0,0.041 0.003,0.011 -0.03,0.066 -0.0519,0.088 -0.0219,0.022 -0.0635,-0.01 -0.0635,-0.01 0,0 0.0109,0.036 -0.0162,0.06 -0.0275,0.025 -0.12347,0.036 -0.12347,0.036 0,0 -0.008,0.032 -0.008,0.044 0,0.011 -0.0656,0.1097 -0.0713,0.1288 -0.006,0.019 0.0328,0.1069 -0.008,0.2085 -0.0409,0.1019 -0.10972,0.1809 -0.12101,0.1947 -0.0106,0.014 -0.0324,0.1072 -0.0324,0.1072 0,0 0.0522,0.088 0.0303,0.1288 -0.0219,0.041 -0.0162,0.098 -0.0162,0.098 0,0 0.1203,0.1073 0.1831,0.2198 0.0635,0.1122 0.12664,0.09 0.18379,0.1178 0.0582,0.027 0.0307,0.077 0.0307,0.077 0,0 0.0656,0.033 0.11748,0.063 0.0522,0.03 0.0635,0.1093 0.0635,0.1093 0,0 0.0219,0.039 0.0413,0.075 0.0187,0.036 -0.0773,0.1644 -0.0773,0.1644 h -0.0494 c 0,0 -0.006,0.069 -0.002,0.093 0.002,0.025 -0.0632,0.1891 -0.11289,0.2469 -0.049,0.058 -0.1397,0.06 -0.24659,0.058 -0.10725,0 -0.042,-7e-4 -0.1016,0.1093 -0.0547,0.102 -0.1591,0.1891 -0.35631,0.1891 -0.19791,0 -0.0437,-0.1781 0.0462,-0.3066 0.0907,-0.1294 0.0194,-0.1763 0.0138,-0.2772 0,0 -0.0325,-0.1429 -0.0381,-0.2057"
         id="path171070-1-6-0-8-7-4"
         style="stroke-width:0.352778" />
      <path
         d="m 92.542892,21.0166 c -0.02575,0.083 -0.06809,0.1662 -0.09454,0.1919 -0.02575,0.027 -0.131586,0.1341 -0.135114,0.1567 -0.0032,0.023 -0.0081,0.056 0.03105,0.09 0.0388,0.033 0.07832,0.041 0.125589,0.052 0.04727,0.011 0.235656,-0.019 0.271639,-0.055 0.03563,-0.036 0.08608,-0.1305 0.09948,-0.1531 0.01305,-0.023 0.01164,0 0.01164,0 l 0.07902,-0.052 c 0,0 0.01482,-0.08 0.0049,-0.094 -0.0095,-0.015 0.0042,-0.051 -0.0049,-0.079 -0.0074,-0.028 -0.04692,-0.064 -0.04833,-0.086 -0.0014,-0.024 0.0032,-0.042 -0.0035,-0.062 -0.0063,-0.02 -0.03069,-0.033 -0.03881,-0.039 -0.0085,-0.01 -0.0099,-0.066 -0.02293,-0.088 -0.0127,-0.022 -0.0032,-0.016 0.02152,-0.031 0.02434,-0.014 0.0695,-0.072 0.0695,-0.072 h -0.07444 c -0.0187,0 -0.03951,0.017 -0.03951,0.017 l -0.02399,-0.012 c 0,0 -0.01164,-0.046 -0.04092,-0.066 -0.02963,-0.021 -0.04374,-0.083 -0.04374,-0.083 l 0.02716,-0.029 -0.04833,-0.054 -0.0187,0.01 -0.02364,-0.038 h -0.02822 c 0,0 0.0049,-0.1958 -0.0095,-0.2413 -0.01517,-0.045 -0.08114,-0.1087 -0.08608,-0.1154 -0.0056,-0.01 -0.0071,-0.072 -0.02646,-0.082 -0.0194,-0.01 -0.05009,-0.029 -0.05009,-0.029 0,0 -0.02328,-0.085 -0.01305,-0.1648 0.0095,-0.079 -0.05398,-0.3937 -0.06315,-0.4325 -0.01058,-0.039 0.0092,-0.1139 0.01729,-0.1672 0.0085,-0.054 0.0014,-0.3133 0.0014,-0.3133 l 0.08678,-0.057 c 0,0 -0.172861,-0.459 -0.197203,-0.5345 -0.02505,-0.074 -0.04374,-0.1718 -0.04374,-0.1718 0,0 0.09913,-0.1958 0.100895,-0.2395 0.0014,-0.044 -0.0032,-0.1 0.02752,-0.1373 0.03069,-0.037 0.09102,-0.2455 0.05503,-0.3711 -0.03528,-0.1252 -0.122061,-0.3711 -0.16757,-0.4141 -0.04516,-0.042 -0.0762,-0.061 -0.09737,-0.139 -0.02117,-0.078 -0.03739,-0.1419 -0.113947,-0.1743 -0.07691,-0.033 -0.13335,-0.03 -0.148519,-0.049 -0.01446,-0.019 -0.04092,-0.034 -0.06315,-0.034 -0.02293,0 -0.0702,0.015 -0.08608,0 -0.01658,-0.014 -0.02646,-0.031 -0.02011,-0.06 0.0071,-0.029 0.01164,-0.044 0.01164,-0.044 h 0.164041 c 0,0 -0.0568,-0.127 -0.06632,-0.1584 -0.0095,-0.031 0.06844,-0.3676 -0.164747,-0.4452 -0.232833,-0.079 -0.455789,-0.059 -0.525992,0.081 -0.0695,0.14 -0.06809,0.2829 -0.153105,0.2945 -0.08467,0.011 0.06844,0.047 0.06844,0.047 0,0 0,0.03 0.01517,0.033 0.01411,0 0.03069,0.014 0.0127,0.054 -0.01764,0.039 -0.0635,0.099 -0.02575,0.1108 0.0374,0.011 0.04374,0.015 0.04374,0.015 l 0.0067,0.025 c 0,0 -0.0056,0.015 0.0014,0.021 0.0071,0.01 0.02787,0.018 0.02787,0.018 l 0.0064,0.031 c 0,0 -0.02152,0.011 -0.01799,0.019 0.0035,0.01 0.02399,0.026 0.01446,0.041 -0.0095,0.014 -0.02364,0.057 -0.0085,0.072 0.01658,0.014 0.08819,0.035 0.08819,0.035 0,0 -0.07761,0.049 -0.115359,0.085 -0.0374,0.036 -0.06703,0.086 -0.09913,0.1167 -0.03281,0.032 -0.0702,0.071 -0.05398,0.1 0.01658,0.029 0.02117,0.038 -0.0018,0.05 -0.02258,0.013 -0.10548,0.1079 -0.115711,0.1291 -0.0095,0.021 -0.07937,0.074 -0.116769,0.092 -0.03775,0.019 -0.07373,0.025 -0.07373,0.025 l -0.139347,-0.01 c 0,0 -0.02117,-0.028 -0.04269,-0.033 -0.02081,0 -0.107597,-0.01 -0.107597,-0.01 l -0.02434,0.039 H 90.09531 c 0,0 -0.03563,-0.02 -0.0508,-0.015 -0.01411,0.01 -0.05786,0.01 -0.05786,0.01 l -0.151694,0.01 h -0.06491 c 0,0 -0.02646,-0.012 -0.07691,-0.011 -0.05045,0 -0.109361,0 -0.123473,0.01 -0.01517,0.01 -0.05256,0.012 -0.05256,0.012 l -0.321733,-0.01 0.0014,-0.019 c 0,0 -0.103364,0 -0.119239,-0.04 -0.01623,-0.036 -0.01623,-0.055 -0.01623,-0.055 h -0.05397 l -0.0085,0.092 h -0.04516 v 0.074 l 0.135467,0.013 0.09102,0.082 0.01305,-0.045 c 0,0 0.02223,-0.01 0.05186,-0.01 0.02928,0 0.277283,0.028 0.277283,0.028 l 0.01587,-0.028 c 0,0 0.01129,0.013 0.04092,0.02 0.02928,0.01 0.144992,0.013 0.179211,0.018 0.03422,0 0.04022,0.023 0.04022,0.04 v 0.065 c 0,0 -0.06315,0.023 -0.06315,0.042 0,0.019 0.0194,0.044 0.01587,0.055 -0.0021,0.012 -0.0042,0.041 -0.0021,0.05 0.0011,0.01 0.01411,0.026 0.0127,0.041 -0.0021,0.015 0.0014,0.034 0.01094,0.047 0.01023,0.013 0.0081,0.024 0.0081,0.042 0,0.018 -0.0095,0.02 0.01164,0.033 0.02117,0.013 0.02258,0.022 0.02258,0.022 v 0.2854 h 0.143581 l -0.0021,-0.2805 c 0,0 0.03634,0.01 0.07373,0 0.03704,0 0.07444,-0.014 0.07444,-0.014 0,0 0.02787,0.095 0.0822,0.095 0.05327,0 0.175683,-0.091 0.175683,-0.091 0,0 0.0018,-0.032 0.0762,-0.013 0.07514,0.019 0.118886,0.046 0.153106,0.047 0.03422,0 0.185914,-0.063 0.218017,-0.016 0.03281,0.047 0.08678,0.027 0.08678,0.027 0,0 -0.08819,0.2558 -0.08961,0.2946 -0.0021,0.04 0.01799,0.1178 0.01799,0.1178 0,0 -0.113948,0.1969 -0.130528,0.2635 -0.01658,0.067 -0.01446,0.067 -0.02928,0.09 -0.01446,0.023 -0.02752,0.068 -0.0508,0.1041 -0.02258,0.036 -0.02258,0.055 -0.02258,0.055 l 0.03916,0.027 c 0,0 -0.205317,0.4587 -0.22472,0.5137 -0.0194,0.056 -0.154516,0.2102 -0.138289,0.3602 0.01658,0.1496 0.01799,0.2917 0.02152,0.3115 0.0032,0.019 0.02011,0.051 0.0092,0.077 -0.01129,0.024 -0.03881,0.073 0.0021,0.1012 0.04022,0.03 0.04974,0.026 0.04974,0.052 0,0.025 0.01376,0.05 0.03281,0.066 0.0194,0.017 0.03916,0.1648 0.03916,0.1648 l 0.0314,0.1485 c 0,0 -0.01376,0.024 -0.02469,0.042 -0.01129,0.018 -0.0067,0.036 -0.0067,0.036 0,0 -0.01305,0.034 -0.03916,0.051 -0.02575,0.016 -0.08608,0.096 -0.08608,0.096 0,0 -0.0702,0.06 -0.100894,0.069 -0.03069,0.01 -0.152047,0.06 -0.152047,0.06 0,0 -0.124884,0.024 -0.134761,0.064 -0.0099,0.041 -0.0014,0.079 -0.0014,0.079 l -0.01164,0.029 c 0,0 0.129116,0.038 0.185914,0.044 0.05644,0 0.356305,-0.093 0.40005,-0.1023 0.04445,-0.01 0.06033,-0.015 0.08361,-0.012 0.02258,0 0.02928,0.037 0.02928,0.037 0,0 0.161572,-0.01 0.200377,-0.019 0.03881,-0.01 0.04022,-0.041 0.04022,-0.041 l -0.0049,-0.06 -0.01305,-0.015 c 0,0 0.05574,-0.089 0.04586,-0.1478 -0.0095,-0.059 -0.03528,-0.1238 -0.03528,-0.1238 0,0 0.0025,-0.093 -0.0049,-0.1175 -0.0088,-0.024 0.0028,-0.05 0.0028,-0.07 0,-0.02 -0.02293,-0.075 -0.02611,-0.093 -0.0032,-0.018 0.01305,-0.1047 0.01305,-0.1047 0,0 0.08608,-0.12 0.0762,-0.1535 -0.0092,-0.035 0.03457,-0.1291 0.02293,-0.1527 -0.01094,-0.022 -0.02752,-0.083 -0.03422,-0.1105 -0.006,-0.027 -0.0046,-0.047 0.0099,-0.079 0.01482,-0.033 0.01482,-0.075 0.0085,-0.1164 -0.0071,-0.04 -0.0021,-0.048 0.07585,-0.08 0.07832,-0.033 0.264584,-0.2223 0.294923,-0.2755 0.03104,-0.054 0.13088,-0.2315 0.187677,-0.1066 0.0575,0.126 0.229306,0.5588 0.257528,0.6047 0.02716,0.046 0.197908,0.3693 0.214489,0.4004 0.01623,0.031 0.129117,0.1009 0.143228,0.1238 0.01446,0.022 0.0702,0.1764 0.118886,0.1856 0.04868,0.01 0.123825,0 0.146403,0.03 0.02328,0.029 0.125941,0.133 0.131939,0.1446 0.0071,0.012 0.02434,0.046 0.02117,0.067 -0.0028,0.022 0.02822,0.029 0.04092,0.033 0.01305,0 0.01305,0.077 0.01305,0.077"
         id="path48436-1-5-6-8-7-1-3-2"
         sodipodi:nodetypes="ccccsccccccccccccscccccccccccsccccccccccccsccscccccccccccccccccccccccccccccccccccccccccccccccccccsccccscsccccssccccccscccccccccccccccccscccccccccccccccccccccccsccccccccccccccccccc" />
      <path
         d="m 87.80544,18.6644 c 0.02011,-0.023 0.03704,-0.1076 0.03704,-0.1076 0,0 -0.01693,-0.062 -0.04833,-0.057 -0.0314,0.01 -0.159103,0.01 -0.175683,-0.034 -0.01729,-0.042 -0.02575,-0.091 -0.02575,-0.091 l -0.201436,-0.031 c 0,0 0.06279,0.063 0.06279,0.088 0,0.025 0,0.04 0.0254,0.068 0.0254,0.029 0.0762,0.049 0.09031,0.085 0.01411,0.037 0.04269,0.1362 0.04269,0.1362 l 0.121709,0.068 c 0.02858,-0.053 0.05151,-0.1019 0.07126,-0.1245 m -1.483784,-0.363 c -0.01129,0.073 0.04868,0.073 0.173214,0.093 0.111831,0.018 0.295275,-0.046 0.363714,-0.078 l -0.0035,-7e-4 c -0.05644,-0.027 -0.116416,-0.08 -0.116416,-0.08 0,0 -0.328789,-0.037 -0.35172,-0.048 -0.01164,-0.01 -0.04621,-0.013 -0.0762,-0.019 0.01305,0.03 0.01905,0.082 0.01094,0.133 m 2.116314,2.1928 c -0.06279,-0.043 -0.03105,-0.1703 -0.02858,-0.2187 0.0032,-0.048 -0.07655,-0.037 -0.118886,-0.034 -0.04269,0 -0.10795,0.017 -0.153106,-0.017 -0.04551,-0.034 -0.25788,-0.028 -0.25788,-0.028 0,0 -0.0032,0.048 -0.02328,0.06 -0.0194,0.011 -0.03387,0.022 -0.0194,0.059 0.01411,0.037 -0.01129,0.093 -0.02328,0.1189 -0.01094,0.026 -0.01658,0.034 -0.0081,0.06 0.0081,0.026 -0.0568,0.073 -0.110772,0.088 -0.05397,0.014 -0.02258,0.2127 -0.0081,0.2833 0.01411,0.071 -0.06279,0.1735 -0.06279,0.1735 0,0 0.02011,0.062 0.02822,0.082 0.0092,0.019 0.006,0.187 0.02011,0.2438 0.01446,0.056 -0.01411,0.06 -0.01411,0.06 0,0 -0.01411,0.065 -0.03953,0.074 -0.02575,0.01 -0.2159,-0.01 -0.2159,-0.01 l -0.0028,-0.051 c 0,0 -0.141816,0.031 -0.263877,0.059 -0.122044,0.029 -0.379924,-0.01 -0.44801,-0.018 -0.06809,-0.011 -0.08819,-0.028 -0.08819,-0.028 l 0.02011,-0.02 c 0,0 -0.03704,-0.085 -0.0085,-0.1104 0.02822,-0.025 0.283282,-0.043 0.343254,-0.046 0.05927,0 0.0822,-0.04 0.11042,-0.054 0.02858,-0.014 0.201436,-0.1873 0.201436,-0.1873 0,0 -0.01976,-0.034 -0.03105,-0.051 -0.01129,-0.018 -0.0056,-0.043 0.0085,-0.068 0.01411,-0.026 -0.0028,-0.116 -0.0085,-0.1305 -0.0056,-0.014 -0.0056,-0.062 0.0025,-0.1136 0.0088,-0.051 0,-0.1757 0,-0.1757 0,0 -0.02822,-0.051 -0.05927,-0.085 -0.03105,-0.034 -0.0254,-0.108 -0.0028,-0.1446 0.02258,-0.037 -0.01129,-0.1447 -0.01129,-0.1842 0,-0.04 0.0568,-0.199 0.05962,-0.2244 0.0025,-0.025 0.0025,-0.1361 0.04516,-0.2638 0.04269,-0.1277 0.224366,-0.1302 0.314677,-0.1503 0.09102,-0.019 0.02258,-0.057 -0.03104,-0.1161 -0.05398,-0.06 -0.150283,-0.2102 -0.167217,-0.2441 -0.01729,-0.034 0.0085,-0.099 -0.06562,-0.1418 -0.07338,-0.042 -0.06809,-0.093 -0.05645,-0.1217 0.01164,-0.029 0.0822,-0.108 0.05398,-0.1732 -0.02822,-0.065 -0.06562,-0.1133 -0.06562,-0.1133 0,0 -0.138994,-0.074 -0.175683,-0.1136 -0.02646,-0.029 -0.09948,-0.057 -0.159103,-0.08 -0.07726,0.03 -0.248002,0.094 -0.374297,0.1083 -0.167217,0.02 -0.263878,-0.056 -0.289278,-0.091 -0.0254,-0.034 -0.02822,-0.097 -0.02822,-0.1298 0,-0.022 0.01517,-0.051 0.03281,-0.068 l -0.29927,-0.04 c 0,0 -0.03986,0.017 -0.0769,0.011 -0.03669,-0.01 -0.09349,-0.02 -0.09349,-0.02 0,0 -0.105128,-0.011 -0.122061,-0.014 -0.01729,0 -0.02258,-0.023 -0.02258,-0.023 0,0 -0.150284,0 -0.187325,-0.011 -0.03704,-0.01 -0.03986,-0.031 -0.03986,-0.031 0,0 -0.138642,-0.014 -0.158397,-0.017 -0.02011,0 -0.01729,-0.068 0.0081,-0.068 0.0254,0 0.03457,0 0.03457,0 0,0 0.0025,-0.054 0.02222,-0.054 0.02011,0 0.07691,0.01 0.110772,0.01 0.03387,0 0.006,0.068 0.006,0.068 l 0.317147,0.026 c 0,0 0.02822,-0.01 0.04551,-0.011 0.01729,-0.01 0.113594,0.014 0.113594,0.014 l 0.0508,0.01 0.238478,0.01 c 0,0 0.07937,-0.011 0.09913,-0.011 0.01976,0 0.05115,0.025 0.05115,0.025 h 0.714729 l 0.03704,0.031 0.153105,0.01 c 0,0 0.05115,-0.017 0.07091,-0.014 0.01976,0 0.06244,0.012 0.06244,0.012 l 0.150283,0.011 c 0,0 0.03951,-0.017 0.05997,-0.017 0.0194,0 0.0508,0.031 0.0508,0.031 l 0.110419,0.01 c 0,0 0.05997,-0.02 0.10795,-0.017 0.04798,0 0.06809,0.1 0.06809,0.1 0,0 0.01693,0.01 0.04233,0.011 0.0254,0 0.102305,0.054 0.102305,0.054 0,0 -0.01129,-0.082 -0.02293,-0.1249 -0.01129,-0.042 0.0032,-0.065 0.0032,-0.065 l -0.04233,-0.074 c 0,0 -0.04304,-0.012 -0.06244,-0.019 -0.02011,-0.01 -0.01729,-0.034 -0.01729,-0.034 0,0 0.09066,-0.1729 0.130528,-0.2466 0.03951,-0.074 0.105128,-0.2325 0.433917,-0.1955 0.329141,0.037 0.326318,0.3458 0.340429,0.4167 0.01411,0.071 0.01411,0.1248 0.02575,0.1079 0.01094,-0.017 0.0568,-0.031 0.09349,-0.026 0.03634,0.01 0.218017,0.176 0.266348,0.2074 0.04833,0.031 0.02011,0.071 0.02893,0.082 0.0081,0.011 0.121708,0.1249 0.147108,0.1874 0.0254,0.062 0.0053,0.3489 -0.0028,0.4254 -0.0085,0.077 -0.09102,0.1958 -0.09666,0.2328 -0.0056,0.037 0.03669,0.139 0.03669,0.139 0,0 0.144992,0.01 0.221897,0.031 0.07655,0.025 0.02222,0.1958 0.02222,0.1958 0,0 -0.02222,0.1189 -0.02787,0.1697 -0.006,0.051 0.02787,0.043 0.01411,0.267 -0.01411,0.2244 -0.187678,0.2554 -0.187678,0.2554 0,0 0,0.065 0.006,0.1193 0.0056,0.054 -0.0085,0.2519 -0.0085,0.2519 l -0.07973,0.012 -0.07091,0.2582 0.352073,-0.088 c 0,0 0.147108,-0.018 0.20708,-0.037 0.05927,-0.02 0.09631,0.019 0.09631,0.019 0,0 0.06526,0 0.08502,0.023 0.02011,0.02 0.03387,0.2155 0.03387,0.2155 0,0 -0.03951,0.014 -0.01376,0.068 0.0254,0.054 -0.0088,0.2667 -0.04269,0.3291 -0.03422,0.062 -0.07937,0.062 -0.246591,0.071 -0.167923,0.01 -0.07973,-0.2018 -0.07655,-0.2127 0.0025,-0.012 0.05115,-0.074 0.03387,-0.1136 -0.01729,-0.04 -0.03951,-0.017 -0.06526,-0.01 -0.0254,0.01 -0.06809,0.054 -0.105128,0.1044 -0.03704,0.052 -0.07091,0.04 -0.07091,0.04 0,0 -0.2159,0.1333 -0.331964,0.1816 -0.116417,0.048 -0.320675,0.077 -0.411339,0 -0.09066,-0.077 -0.170038,-0.7295 -0.175682,-0.8628 0,0 -0.006,0 -0.06809,-0.045"
         id="path171062-1-1-6-4-92-5-9-4" />
      <path
         d="m 100.23261,18.6008 -0.0765,-0.032 0.0582,0.1118 z m 1.56987,1.9152 c -0.0504,-0.034 -0.10054,-0.1118 -0.12735,-0.1541 -0.0265,-0.042 -0.14358,-0.069 -0.16722,-0.1994 -0.024,-0.1305 -0.0663,-0.1379 -0.0931,-0.1778 -0.0265,-0.04 -0.16475,-0.2734 -0.18591,-0.3161 -0.0212,-0.043 -0.21802,-0.364 -0.21802,-0.364 0,0 -0.0131,0.01 -0.0582,0.072 -0.0452,0.064 -0.0639,0.1834 -0.096,0.2766 -0.0314,0.093 -0.0265,0.1118 -0.0102,0.1249 0.0159,0.013 0.061,0.058 0.0663,0.1037 0.005,0.045 0.0212,0.1164 0.0557,0.1376 0.0349,0.022 0.0533,0.088 0.0903,0.1199 0.0374,0.032 0.0183,0.1118 0.0183,0.1432 0,0.032 0.072,0.1171 0.0935,0.1277 0.0212,0.011 0.0582,0.085 0.0794,0.098 0.0215,0.013 0.10654,0.1358 0.10654,0.1358 0,0 0.085,0.09 0.11641,0.1246 0.0321,0.034 0.0455,0.019 0.0455,0.019 0,0 0.0293,0.024 0.0956,0.098 0.0663,0.075 -0.0268,0.2127 -0.0268,0.2127 l -0.0261,-0.019 c 0,0 -0.0296,0.1196 -0.0505,0.1595 -0.0215,0.04 -0.0508,0.1274 -0.13299,0.2152 -0.0825,0.087 -0.20179,0.045 -0.20179,0.045 l -0.0166,-0.029 c 0,0 -0.0367,-0.01 -0.0473,-0.064 -0.0106,-0.058 0.0557,-0.1379 0.0825,-0.1884 0.0265,-0.05 -0.008,-0.2868 -0.006,-0.3132 0.003,-0.027 -0.10901,-0.099 -0.11924,-0.12 -0.0109,-0.021 -0.0801,-0.1009 -0.0801,-0.1009 0,0 -0.1009,-0.034 -0.15417,-0.1189 -0.0529,-0.085 -0.18027,-0.088 -0.22578,-0.096 -0.0448,-0.01 -0.10865,-0.067 -0.12453,-0.1087 -0.0159,-0.043 -0.13053,-0.1756 -0.20214,-0.2631 -0.0713,-0.088 -0.0741,-0.2978 -0.0843,-0.3853 -0.0113,-0.088 -0.0138,-0.5231 -0.0138,-0.5231 l -0.0448,-0.016 0.0314,-0.2208 -0.201789,-0.3503 c 0,0 -0.03457,0.034 -0.05609,0.029 -0.02117,-0.01 -0.02117,-0.01 -0.03387,-0.01 -0.01341,0 -0.02963,0.018 -0.04551,0.015 -0.01623,0 -0.03422,-0.021 -0.04762,-0.021 -0.01305,0 -0.03493,0.013 -0.04833,0.01 -0.0127,-0.01 -0.04727,-0.016 -0.04727,-0.016 0,0 -0.04515,0 -0.06421,-0.016 -0.01834,-0.016 -0.02364,-0.048 -0.02364,-0.048 l -0.130528,0.061 -0.03951,0.069 -0.14605,-0.027 -0.100894,0.059 -0.0321,-0.08 0.05045,-0.021 c 0,0 -0.05045,-0.1086 -0.0025,-0.1221 0.04798,-0.013 0.100894,0.071 0.100894,0.071 0,0 0.23107,-0.093 0.223308,-0.1086 -0.0081,-0.016 0.01305,-0.032 0.03175,-0.066 0.0187,-0.035 0.03739,-0.064 0.03739,-0.064 0,0 -0.01623,-0.046 -0.01623,-0.072 0,-0.027 0.08255,-0.061 0.106187,-0.093 0.02364,-0.032 0.0028,-0.069 0.01094,-0.088 0.0078,-0.019 0.03175,-0.021 0.04516,-0.034 0.01305,-0.013 0.01587,-0.074 0.03422,-0.093 0.0187,-0.019 0.0508,-0.042 0.04798,-0.056 -0.0028,-0.013 -0.02646,-0.029 -0.02117,-0.056 0.0053,-0.027 0.03986,-0.1225 0.04762,-0.1726 0.0078,-0.051 0.01305,-0.1305 0.0056,-0.1728 -0.0085,-0.042 0.04198,-0.1115 0.05539,-0.1489 0.01376,-0.037 0.04762,-0.2554 0.05856,-0.2893 0.01058,-0.034 0.124882,-0.1725 0.124882,-0.1725 0,0 -0.0212,0 -0.0427,-0.01 -0.0212,-0.01 -0.0423,-0.058 -0.05856,-0.098 -0.01552,-0.039 -0.03669,-0.1061 -0.04763,-0.127 -0.01058,-0.021 -0.04516,-0.104 -0.04516,-0.104 0,0 -0.03951,-0.021 -0.04762,-0.053 -0.0081,-0.032 -0.02152,-0.016 -0.03986,-0.024 -0.0187,-0.01 -0.06385,-0.024 -0.06385,-0.024 0,0 0.0053,-0.1806 0.117122,-0.364 0.111478,-0.1831 0.244118,-0.1591 0.467428,-0.1648 0.22261,-0.01 0.30798,0.3588 0.30798,0.3588 0,0 0.0395,0.026 0.0529,0.061 0.0134,0.035 0.006,0.087 0.006,0.087 h 0.0395 c 0.0191,0 0.11677,0.016 0.15417,0.061 0.037,0.045 0.11147,0.053 0.17568,0.082 0.0635,0.03 0.0265,0.1034 0.0395,0.109 0.0134,0 0.0557,0.013 0.10125,0.021 0.0448,0.01 0.14852,0.096 0.20179,0.1411 0.0533,0.045 0.0533,0.09 0.0635,0.1115 0.0109,0.021 0.14887,0.1778 0.17004,0.212 0.0212,0.035 0.14111,0.1968 0.15663,0.2448 0.0159,0.048 0.0451,0.1037 0.0797,0.146 0.0346,0.042 0.024,0.095 -0.024,0.2255 -0.0476,0.1309 -0.0476,0.133 -0.09,0.1862 -0.0427,0.053 -0.17533,0.2202 -0.17533,0.2202 0,0 0.0797,-0.029 0.1517,-0.042 0.0713,-0.013 0.11147,0.1567 0.11641,0.2018 0.005,0.046 0.0854,0.1623 0.1196,0.3006 0.0346,0.1379 -0.0797,0.1834 -0.0797,0.1834 0,0 0.0159,0.058 0.0159,0.1034 0,0.045 -0.0423,0.082 -0.0423,0.082 0,0 0.008,0.048 -0.005,0.075 -0.0134,0.026 -0.0617,0.015 -0.0617,0.015 0,0 0.019,0.1697 0.0452,0.2156 0.0268,0.045 0.109,0.2603 0.11959,0.3527 0.0106,0.093 0.0455,0.181 0.11465,0.2233 0.0688,0.042 0.0635,0.087 0.0737,0.1489 0.0106,0.061 0.019,0.1351 0.0511,0.1616 0.0314,0.026 0.042,0.064 0.0395,0.133 -0.003,0.069 0.0159,0.098 0.0533,0.122 0.037,0.024 0.0476,0.1383 0.0533,0.1733 0.005,0.034 0.0318,0.1538 0.085,0.1986 0.0529,0.045 0.0399,0.1277 0.0399,0.1277 0,0 0.0607,0.1093 0.0794,0.1302 0.0187,0.022 0.0187,0.077 0.0187,0.098 0,0.021 0.0236,0.085 0.0236,0.085 l -0.0794,0.082 c 0,0 -0.0935,0.075 -0.15945,0.088 -0.0663,0.013 -0.20179,-0.027 -0.20179,-0.027 l 0.0102,-0.029 c 0,0 -0.0102,-0.011 0,-0.066 0.0109,-0.056 0.0427,-0.093 0.0586,-0.1274 0.0159,-0.035 0.003,-0.1679 0.003,-0.1679 l -0.0236,-0.015 c 0,0 -0.0511,-0.088 -0.0935,-0.1387 -0.0423,-0.05 -0.15381,-0.1668 -0.22049,-0.2705 0,0 -0.0452,-0.034 -0.0956,-0.069"
         id="path171066-7-9-4-7-2-0-4-84" />
      <path
         d="m 94.878539,20.7571 c -0.0025,0.038 0.02187,0.2008 0.02505,0.2145 0.0025,0.013 0.06562,-0.074 0.07691,-0.1016 0.01094,-0.027 0.02963,-0.069 0.03528,-0.093 0.0056,-0.025 0,-0.068 0.0056,-0.085 0.0053,-0.017 -0.159456,-0.157 -0.159456,-0.157 0.0088,0.058 0.01976,0.1845 0.01658,0.2222 m -1.176866,-2.8197 c -0.0056,-0.038 0.01094,-0.085 0.03845,-0.088 0.02752,0 0.04974,0.01 0.05503,-0.011 0.0053,-0.019 -0.03281,-0.1344 -0.03281,-0.1344 0,0 -0.14852,0.1676 -0.178506,0.1894 -0.02999,0.022 -0.156281,0.085 -0.180975,0.085 -0.02434,0 -0.131939,-0.024 -0.153811,-0.076 -0.02187,-0.052 -0.02469,-0.077 -0.04657,-0.1263 -0.02187,-0.05 -0.02999,-0.079 -0.01623,-0.1098 0.01376,-0.03 0.01094,-0.063 0.0081,-0.079 -0.0028,-0.017 0,-0.077 0.01658,-0.096 0.01623,-0.019 -0.0056,-0.025 -0.0085,-0.058 -0.0025,-0.033 -0.03563,-0.052 0.01094,-0.1045 0.04657,-0.052 0.07973,-0.1315 0.07973,-0.1315 l -0.03316,-0.038 c 0,0 -0.03034,-0.02 -0.04904,-0.036 -0.0194,-0.016 -0.04692,-0.044 -0.04974,-0.074 -0.0025,-0.03 -0.0025,-0.099 -0.0025,-0.099 l -0.04974,-0.021 c 0,0 -0.0575,0.1531 -0.06844,0.1831 -0.01094,0.031 -0.05786,0.082 -0.05997,0.1432 -0.0028,0.06 -0.03598,0.1725 0.02963,0.362 0.06632,0.1894 0.0635,0.2688 0.109714,0.3072 0.04692,0.038 0.129117,0.074 0.195086,0.088 0.06562,0.013 0.265994,0.052 0.337608,0.099 0.07091,0.047 0.08502,0.041 0.08502,0.041 -0.0194,-0.063 -0.03034,-0.1757 -0.03598,-0.2138 m 0.820561,2.782 c -0.0056,-0.063 -0.08537,-0.2498 -0.09313,-0.2745 -0.0085,-0.025 -0.0056,-0.044 -0.0056,-0.058 0,-0.014 -0.140052,-0.1535 -0.159102,-0.1891 -0.0194,-0.036 -0.02223,-0.1866 -0.03034,-0.2498 -0.0081,-0.063 -0.05468,-0.1125 -0.07973,-0.1397 -0.02434,-0.028 -0.06033,-0.2035 -0.06033,-0.2307 0,-0.028 -0.117828,-0.532 -0.134409,-0.5429 -0.01658,-0.011 -0.04904,-0.017 -0.08784,-0.019 -0.03845,0 -0.04092,-0.017 -0.04092,-0.017 v -0.052 l -0.0575,-0.017 c 0,0 -0.03316,-0.1041 0.03034,-0.1944 0.06279,-0.09 0.100895,-0.4473 0.100895,-0.4473 0,0 -0.191911,-0.093 -0.323497,-0.1482 -0.131586,-0.055 -0.375709,-0.104 -0.403225,-0.1097 -0.02752,-0.01 -0.153811,-0.14 -0.175331,-0.2226 -0.02187,-0.082 -0.123825,-0.3919 -0.126647,-0.4604 -0.0028,-0.069 0.09913,-0.2963 0.134408,-0.3951 0.03598,-0.099 0.02505,-0.093 0.02505,-0.093 l -0.22225,-0.1259 h -0.03316 l -0.02999,-0.02 -0.04374,-0.035 -0.04692,-0.02 -0.0028,-0.03 -0.293158,-0.1454 0.01376,-0.03 0.180622,0.091 0.0085,-0.019 -0.178153,-0.09 -0.04692,-0.011 -0.04939,-0.042 -0.06033,-0.03 0.03598,-0.049 0.02999,0.016 0.02469,-0.044 0.115006,0.063 -0.01623,0.049 0.285397,0.1404 0.04374,0.017 0.0053,0.019 0.05786,0.025 h 0.01905 l 0.03281,0.016 0.0081,0.022 0.450497,0.2 0.244123,0.1207 0.05997,-0.055 c 0.03034,-0.028 0.04127,-0.03 0.06068,-0.082 0.01905,-0.052 0.126294,-0.096 0.1397,-0.1094 0.01376,-0.014 0.0081,-0.049 -0.01658,-0.1125 -0.02434,-0.063 -0.04092,-0.1676 -0.04092,-0.1676 0,0 -0.06315,-0.019 -0.07973,-0.039 -0.01658,-0.019 -0.01658,-0.041 -0.07691,-0.098 -0.05997,-0.058 0.03316,-0.1344 0.0635,-0.1757 0.02999,-0.041 0.05186,-0.1534 0.08502,-0.2085 0.03281,-0.055 0.153458,-0.1044 0.383822,-0.082 0.230364,0.022 0.268816,0.1207 0.279753,0.1814 0.01094,0.06 0.06068,0.3312 0.09631,0.3944 0.03528,0.063 0.0056,0.055 -0.02752,0.055 -0.03281,0 -0.09631,-0.011 -0.09631,-0.011 0,0 -0.0078,0.01 -0.02716,0.036 -0.0194,0.03 -0.0081,0.052 0.0053,0.06 0.01411,0.01 0.04692,-0.01 0.112536,-0.027 0.06632,-0.019 0.128764,0.046 0.159102,0.066 0.03034,0.019 0.08537,0.011 0.107245,0.014 0.02187,0 0.128764,0.099 0.134055,0.132 0.0056,0.033 0.04974,0.052 0.06562,0.074 0.01658,0.021 0.04974,0.032 0.08537,0.063 0.03598,0.03 0.02752,0.1153 0.0635,0.1315 0.03528,0.017 0.183445,0.2664 0.232834,0.2936 0.04939,0.028 0.04939,0.085 0.06597,0.1481 0.01658,0.063 0.09031,0.1207 0.115358,0.1732 0.02434,0.052 0.01305,0.1478 -0.01623,0.2219 -0.03069,0.074 -0.167569,0.1291 -0.214489,0.1397 -0.04621,0.011 -0.159103,0.063 -0.159103,0.063 l 0.0635,0.058 -0.03281,0.068 c 0,0 0.10407,-0.027 0.139348,-0.03 0.03598,0 0.04939,0.057 0.06315,0.1066 0.01376,0.049 0.02752,0.2413 0.05786,0.3923 0.02963,0.151 -0.110067,0.2363 -0.110067,0.2363 0,0 -0.0025,0.03 0,0.041 0.0028,0.011 -0.02999,0.066 -0.05186,0.088 -0.02187,0.022 -0.0635,-0.01 -0.0635,-0.01 0,0 0.01094,0.036 -0.01623,0.06 -0.02752,0.025 -0.123472,0.036 -0.123472,0.036 0,0 -0.0081,0.032 -0.0081,0.044 0,0.011 -0.06562,0.1097 -0.07126,0.1288 -0.0056,0.019 0.03281,0.1069 -0.0085,0.2085 -0.04092,0.1019 -0.109714,0.1809 -0.121003,0.1947 -0.01058,0.014 -0.03246,0.1072 -0.03246,0.1072 0,0 0.05221,0.088 0.03034,0.1288 -0.02187,0.041 -0.01623,0.098 -0.01623,0.098 0,0 0.120297,0.1073 0.183092,0.2198 0.0635,0.1122 0.126647,0.09 0.183797,0.1178 0.05821,0.027 0.03069,0.077 0.03069,0.077 0,0 0.06562,0.033 0.117475,0.063 0.05221,0.03 0.0635,0.1093 0.0635,0.1093 0,0 0.02187,0.039 0.04128,0.075 0.0187,0.036 -0.07726,0.1644 -0.07726,0.1644 h -0.04939 c 0,0 -0.0056,0.069 -0.0025,0.093 0.0025,0.025 -0.06315,0.189 -0.112889,0.2469 -0.04904,0.058 -0.1397,0.06 -0.246592,0.058 -0.107244,0 -0.04198,-7e-4 -0.1016,0.1093 -0.05468,0.102 -0.159102,0.1891 -0.356305,0.1891 -0.197909,0 -0.04374,-0.1781 0.04621,-0.3066 0.09066,-0.1294 0.0194,-0.1763 0.01376,-0.2772 0,0 -0.03246,-0.1429 -0.0381,-0.2057"
         id="path171070-1-6-3-4-5-4-2-0" />
      <path
         id="path18601-0-7-4-3"
         d="m 96.284833,15.674709 0.05141,0.02185 c 0.01091,-6.54e-4 0.01568,-1.16e-4 0.0093,0.0026 -8.73e-4,2.66e-4 -8.73e-4,4.18e-4 -9.77e-4,6.54e-4 l 0.02929,0.01239 c 0.0031,-3.06e-4 0.0062,-7.87e-4 0.0073,-0.0018 0.0062,-0.003 0.0073,-0.0018 0.0042,0.003 -4.26e-4,9.82e-4 -8.72e-4,0.0021 -4.26e-4,0.0031 l 0.02846,0.01211 c 9.77e-4,-3.13e-4 0.0031,-6.55e-4 0.0042,-0.0012 0.0083,-0.0052 0.0404,0.01731 0.03583,0.02497 -8.82e-4,10e-4 4.37e-4,0.0038 0.0031,0.0073 l 0.01859,0.01545 0.0083,0.0132 c 0.01787,0.01623 0.01974,0.01735 0.0042,-0.0011 l -0.0188,-0.02268 0.02057,0.01812 c 0.01091,0.01 0.0189,0.02076 0.01693,0.024 -0.0031,0.0032 4.15e-4,0.01476 0.0062,0.02558 0.0073,0.0146 0.01091,0.01721 0.01568,0.01007 0.0042,-0.0062 0.0062,-0.0036 9.76e-4,0.0074 -0.0031,0.0099 -9.76e-4,0.017 0.0031,0.017 0.0042,0 0.0062,0.0043 0.0042,0.0099 l 9.76e-4,0.0031 9.87e-4,0.0077 c 0.0062,1.09e-4 0.0083,0.01917 0.0093,0.05393 l 0.0093,0.04729 c 0.0031,0.0018 0.0062,0.0081 0.0062,0.01627 8.3e-5,0.0032 2.07e-4,0.0085 3.11e-4,0.01307 l 0.0083,0.04205 c 0.0031,5.24e-4 0.0042,0.0057 0.0042,0.01335 -1.14e-4,0.0036 4.36e-4,0.0065 9.76e-4,0.009 l 9.87e-4,0.003 c 9.76e-4,0.0021 0.0042,0.0031 0.0073,0.0026 0.0062,-0.0011 0.0083,0.0012 0.0062,0.0053 -0.0073,0.01076 0.03209,0.08394 0.04331,0.08173 0.0062,-0.0011 0.0083,0.0057 0.0073,0.01962 -8.83e-4,0.0063 -4.47e-4,0.01089 3.22e-4,0.01384 l 8.72e-4,0.0018 c 8.62e-4,0.0015 0.0031,0.0022 0.0042,9.62e-4 0.0042,-0.0028 0.0062,0.003 0.0042,0.01537 l 0.0042,0.0079 -0.0031,0.0095 c 4.36e-4,-9.61e-4 8.72e-4,-0.0014 9.76e-4,-0.0027 l 0.0073,-0.01513 4.36e-4,0.01513 c 2.91e-4,0.0083 -0.0073,0.02657 -0.01506,0.04055 -0.0083,0.01398 -0.01361,0.02731 -0.01091,0.02961 0.0031,0.0024 0.0042,6.11e-4 0.0042,-0.0038 0,-0.0044 0.0083,-0.01018 0.01922,-0.01281 0.01091,-0.0027 0.01714,-0.008 0.01475,-0.01211 -0.0031,-0.0036 3.53e-4,-0.0046 0.0062,-0.003 l 0.02192,-0.02842 0.580126,-0.100167 0.136022,0.04245 c 0.0031,4.81e-4 0.0042,0.0011 0.0073,0.0021 l 0.02046,0.0063 c 0.0031,-0.0018 0.0083,-0.0018 0.01361,1.35e-4 0.0042,0.0019 0.0042,0.0032 2.91e-4,0.0042 l 0.01412,0.0045 c 0.0042,-0.0018 0.0083,-0.0031 0.01091,-0.0031 0.0042,0 0.0031,0.0026 -0.0031,0.0057 l 0.02815,0.0088 c -0.0062,-0.0046 -9.87e-4,-0.0053 0.01226,-0.0053 0.01485,0 0.01724,0.0019 0.0093,0.0073 -0.0073,0.0049 -9.87e-4,0.0059 0.0162,0.0028 0.01454,-0.0025 0.02244,-0.0018 0.01745,0.0014 -0.0062,0.0034 0.02898,0.01647 0.08133,0.03118 0.04965,0.01394 0.09036,0.02854 0.09036,0.03243 0,5.23e-4 1.87e-4,8.3e-4 2.91e-4,0.0012 l 0.0062,0.0018 c 4.36e-4,-2.12e-4 8.83e-4,-3.2e-4 9.87e-4,-6.57e-4 0.0042,-0.0026 0.0083,-0.0011 0.0083,0.0031 0,1.64e-4 1.25e-4,2.58e-4 1.56e-4,4.15e-4 l 0.01091,0.0032 c 1.87e-4,-6.6e-5 3.53e-4,-6e-5 4.36e-4,-1.34e-4 0.0042,-0.0015 0.01091,9.61e-4 0.01755,0.0057 l 0.04103,0.01281 c 8.72e-4,-5.7e-4 9.76e-4,-0.0011 0.0031,-0.0018 0.0073,-0.0028 0.0093,-0.0012 0.0073,0.0042 -1.25e-4,1.74e-4 -9.3e-5,2.76e-4 -2.08e-4,4.37e-4 l 0.107147,0.03343 0.10023,0.05008 0.305498,0.478973 c 9.76e-4,0.0019 0.0042,0.0046 0.0062,0.0077 l 0.01371,0.02148 c -8.73e-4,-0.0084 -8.73e-4,-0.019 -1.15e-4,-0.02978 9.77e-4,-0.02738 0.0073,-0.04146 0.01859,-0.05104 0.0188,-0.01544 0.03698,-0.0173 0.03718,-0.0038 8.3e-5,0.0066 9.76e-4,0.007 0.0062,9.18e-4 0.0031,-0.0048 0.01662,-0.0077 0.03012,-0.0065 0.01361,10e-4 0.02451,0.0015 0.02451,9.63e-4 -6.3e-5,-5.69e-4 -0.0073,-0.02297 -0.01537,-0.0498 -0.0083,-0.02683 -0.01361,-0.05745 -0.01091,-0.06804 0.0031,-0.01063 0.0062,-0.03629 0.0083,-0.05707 0.0073,-0.05384 0.03241,-0.240047 0.04248,-0.301387 0.0093,-0.05829 0.02597,-0.08151 0.05349,-0.07546 0.01361,0.003 0.01485,0.0021 0.0073,-0.0036 -0.0083,-0.0054 -0.0031,-0.0071 0.01911,-0.006 0.02316,0.0011 0.03594,0.0077 0.05609,0.02804 0.01444,0.01458 0.01932,0.01773 0.01091,0.007 -0.0083,-0.01076 0.01506,0.0113 0.05183,0.04882 0.03687,0.03758 0.06429,0.0632 0.06118,0.05697 -0.0042,-0.0077 -4.37e-4,-0.0068 0.01091,0.0028 0.0093,0.0078 0.01537,0.01678 0.01454,0.02004 -8.62e-4,0.0032 9.87e-4,0.0054 0.0042,0.0048 0.0083,-0.0014 0.02005,0.01985 0.02462,0.04251 0.0062,0.0291 -0.0042,0.06127 -0.03095,0.102795 -0.02919,0.04428 -0.03261,0.05329 -0.01433,0.03818 0.0214,-0.01778 0.03376,-0.01394 0.05463,0.01687 0.03739,0.05564 0.110689,0.153876 0.116536,0.156423 0.0031,0.0014 0.0062,0.0056 0.0062,0.0095 0,0.0038 0.0062,0.01281 0.01091,0.02016 0.03407,0.04114 0.09441,0.128089 0.09462,0.136191 8.3e-5,0.0052 0.0042,0.0095 0.0093,0.0095 0.0062,0 0.0073,0.0022 0.0042,0.0048 -0.0031,0.0027 0.0031,0.01538 0.01226,0.02827 0.02316,0.03221 0.100645,0.186771 0.12362,0.246671 0.0348,0.08983 0.0564,0.16395 0.06689,0.226836 0.0031,0.01456 0.0083,0.04495 0.01226,0.06754 0.0042,0.0226 0.0073,0.0764 0.0073,0.11954 0,0.05075 0.0031,0.07677 0.0083,0.07373 0.01226,-0.0079 0.01703,0.01668 0.0083,0.04442 -0.0083,0.02503 -0.02534,0.03915 -0.03791,0.03139 -0.0031,-0.0021 -0.03074,0.04305 -0.06097,0.100157 -0.104426,0.197092 -0.116412,0.217393 -0.150667,0.254099 -0.03552,0.03812 -0.154706,0.125722 -0.170982,0.125722 -0.0062,0 -0.01091,0.0053 -0.01371,0.01172 -0.0031,0.0063 -0.01558,0.01637 -0.02919,0.02211 -0.02212,0.0095 -0.02628,0.009 -0.03978,-0.0031 -0.0083,-0.0075 -0.02742,-0.01755 -0.04248,-0.02235 -0.04466,-0.01428 -0.103449,-0.05339 -0.210015,-0.139602 -0.05526,-0.04478 -0.101787,-0.0802 -0.103345,-0.07871 -0.0031,0.0026 -0.03479,0.197518 -0.04477,0.271909 -0.0031,0.01946 -0.01091,0.04328 -0.01859,0.05294 -0.01091,0.01369 -0.01402,0.03307 -0.01527,0.08809 -9.76e-4,0.07802 -0.0042,0.09202 -0.02036,0.09202 -0.0083,0 -0.01091,0.01376 -0.01091,0.0586 -8.83e-4,0.118491 -0.01091,0.195625 -0.02752,0.201776 -0.02192,0.0084 -0.0402,-0.003 -0.0402,-0.02497 0,-0.02405 -0.01226,-0.03881 -0.0323,-0.03881 -0.0083,0 -0.02576,-0.0088 -0.04009,-0.0198 -0.02368,-0.01806 -0.02607,-0.02323 -0.02607,-0.05898 0,-0.03765 0.0093,-0.05733 0.02628,-0.05733 0.0062,0 0.0073,0.01185 0.0062,0.03024 -9.77e-4,0.01877 2.9e-4,0.03023 0.0062,0.03023 0.0042,0 0.0083,-0.0026 0.0073,-0.0057 -4.26e-4,-0.0031 -4.26e-4,-0.01757 1.35e-4,-0.03214 8.62e-4,-0.01763 0.0031,-0.02309 0.0073,-0.01637 0.0042,0.0056 0.0083,0.009 0.0093,0.0078 0.0062,-0.0045 0.03687,0.02138 0.03178,0.02636 -0.0031,0.0027 -9.87e-4,0.005 0.0031,0.005 0.0062,0 0.0093,-0.03378 0.01361,-0.08507 0.0031,-0.04678 0.0083,-0.109587 0.01091,-0.139574 0.0062,-0.05344 0.0042,-0.05487 -0.01683,-0.07373 -0.01433,-0.01253 -0.02036,-0.02352 -0.01724,-0.03152 0.0031,-0.0068 8.62e-4,-0.01693 -0.0042,-0.0226 -0.0042,-0.0057 -0.0073,-0.02141 -0.0062,-0.03495 0.0031,-0.01362 2.29e-4,-0.03206 -0.0042,-0.04113 -0.0073,-0.01534 -0.0042,-0.09553 0.01413,-0.501463 l 0.0042,-0.09451 -0.02316,-0.01266 c -0.01433,-0.0079 -0.02472,-0.02084 -0.02773,-0.03403 -0.0031,-0.01172 -0.01091,-0.03492 -0.01807,-0.05156 -0.01226,-0.02801 -0.01361,-0.03781 -0.0042,-0.132325 0.01226,-0.13118 0.01091,-0.136096 -0.03168,-0.136096 -0.05816,0 -0.08195,-0.01524 -0.10023,-0.06383 -0.0083,-0.02343 -0.01589,-0.04452 -0.01589,-0.04684 0,-0.02274 -0.141235,-0.268399 -0.192887,-0.335531 -0.01921,-0.02484 -0.04155,-0.0605 -0.04985,-0.07924 -0.01662,-0.03753 -0.01901,-0.03862 -0.05432,-0.02394 -0.02077,0.0087 -0.03095,0.0083 -0.06969,-0.0021 -0.03988,-0.01076 -0.05307,-0.01102 -0.109598,-0.0021 -0.03542,0.0056 -0.08693,0.009 -0.114646,0.0078 l -0.05038,-0.0025 0.01226,0.02647 c 0.0073,0.01456 0.01631,0.04687 0.02243,0.07183 0.0062,0.02496 0.01558,0.06268 0.02181,0.08384 0.0062,0.02116 0.01091,0.04389 0.01091,0.05053 0,0.0066 0.0083,0.0132 0.01703,0.01464 0.0093,0.0015 0.0161,0.0071 0.01485,0.01281 -9.76e-4,0.0063 0.0031,0.0085 0.0093,0.0057 0.0073,-0.0025 0.01091,-7.43e-4 0.0093,0.0038 -8.73e-4,0.0045 0.0042,0.0092 0.01226,0.01048 0.02451,0.0042 0.06575,0.07184 0.06834,0.112255 9.76e-4,0.02238 0.02046,0.06011 0.03853,0.07648 0.0042,0.0042 0.01579,0.01809 0.02472,0.03096 0.01226,0.01829 0.01444,0.02539 0.0073,0.03258 -0.0073,0.0073 -0.0073,0.0081 0.0042,0.0044 0.0093,-0.0036 0.01568,0.0018 0.0243,0.02222 0.0073,0.01493 0.01537,0.02714 0.02046,0.02714 0.0062,0 0.0042,-0.0065 -0.0062,-0.01702 -0.01381,-0.01668 -0.01381,-0.01675 2.07e-4,-0.0042 0.0214,0.01936 0.02067,0.04183 -9.86e-4,0.03942 -0.0093,-0.001 -0.01579,9.81e-4 -0.01361,0.0046 0.0031,0.0036 0.0093,0.0046 0.01517,0.0024 0.0073,-0.0025 0.0109,1.19e-4 0.0109,0.006 1.77e-4,0.0066 0.0042,0.005 0.01226,-0.0049 0.0073,-0.0087 0.01091,-0.01039 0.0083,-0.0038 -0.0042,0.0144 0.01537,0.05481 0.0243,0.04928 0.0042,-0.0024 0.0093,-1.74e-4 0.01226,0.0046 0.0042,0.0059 0.0031,0.0068 -0.0042,0.0028 -0.0073,-0.0042 -0.0083,-0.0026 -0.0062,0.0045 0.0031,0.0057 0.0083,0.0096 0.01226,0.0084 0.0062,-0.0011 0.0073,0.0012 0.0042,0.0053 -0.0073,0.01157 0.0042,0.0459 0.01506,0.0459 0.01091,0 0.0215,0.04846 0.01994,0.09168 -8.83e-4,0.0289 -0.03189,0.103429 -0.04653,0.112501 -0.0062,0.0038 -0.0042,0.01552 0.0083,0.04055 0.0093,0.01937 0.01942,0.03709 0.02327,0.03936 0.0042,0.0024 0.0073,0.01048 0.0073,0.01818 0,0.0078 0.0031,0.01517 0.0062,0.01658 0.0073,0.0031 0.08268,0.182486 0.117356,0.279783 0.01942,0.05453 0.02389,0.07532 0.01755,0.0818 -0.0073,0.0065 -0.0062,0.0081 0.0031,0.0062 0.0073,-0.0017 0.01413,0.0095 0.02077,0.03158 0.0093,0.03056 0.0093,0.03499 -0.0031,0.04347 -0.01703,0.01253 -0.03874,0.01198 -0.078,-0.0019 -0.01766,-0.0062 -0.04539,-0.0113 -0.06159,-0.0113 -0.02648,0 -0.02898,0.0017 -0.02565,0.017 0.01579,0.06955 0.0188,0.09136 0.0189,0.139056 1.45e-4,0.04351 0.0073,0.07138 0.03158,0.143664 l 0.03126,0.08968 -8.72e-4,0.173908 c -8.73e-4,0.150311 -0.0031,0.180483 -0.01589,0.222318 -0.0162,0.05235 -0.01631,0.05175 0.02108,0.112257 0.01651,0.02669 0.02399,0.03214 0.04362,0.03214 0.01361,8e-6 0.03594,0.0052 0.05079,0.0113 0.03407,0.01422 0.03781,0.01418 0.0323,-3.86e-4 -0.0031,-0.007 -9.76e-4,-0.0099 0.0031,-0.007 0.0042,0.0026 0.0073,0.0087 0.0062,0.01363 -8.73e-4,0.0049 0.01662,0.02759 0.03916,0.05046 0.02254,0.02287 0.03376,0.03114 0.02472,0.01837 -0.0093,-0.01281 -0.01745,-0.02797 -0.0187,-0.03377 -9.76e-4,-0.0059 -0.0093,-0.01691 -0.01745,-0.0247 -0.01091,-0.01063 -0.0093,-0.01008 0.0093,0.0022 0.01361,0.009 0.02275,0.01953 0.02036,0.02339 -0.0031,0.0039 9.77e-4,0.0092 0.0083,0.01185 0.01226,0.0048 0.05629,0.08781 0.05629,0.106388 0,0.005 -0.0083,0.01499 -0.01942,0.02199 -0.02399,0.01568 -0.02171,0.02797 0.02067,0.112053 0.0242,0.04823 0.04497,0.07443 0.104031,0.132323 0.05806,0.05679 0.07873,0.08302 0.09742,0.122959 0.0402,0.08605 0.05037,0.130486 0.05037,0.217636 1.1e-5,0.07057 -0.0031,0.0831 -0.0188,0.112761 -0.02358,0.04182 -0.04581,0.05839 -0.09639,0.07142 -0.06273,0.0162 -0.09161,0.0049 -0.152068,-0.06004 -0.02753,-0.02954 -0.06336,-0.07627 -0.07946,-0.103854 -0.0161,-0.02757 -0.03324,-0.05343 -0.03802,-0.05743 -0.0093,-0.0081 -0.0093,0.01102 0.0042,0.241309 0.0042,0.07694 0.0073,0.168804 0.0073,0.204154 -8.83e-4,0.03535 0.0031,0.07386 0.0073,0.08556 0.01091,0.02757 0.01091,0.06578 -0.0031,0.123231 -0.0093,0.04158 -0.0083,0.04878 0.0042,0.07183 0.02036,0.03859 0.02493,0.07743 0.01226,0.102421 -0.0093,0.0196 -0.0093,0.02978 4.36e-4,0.03519 l -0.01807,0.02305 0.02192,0.08792 c -0.0031,0.0096 0.0031,0.02303 0.0093,0.04398 0.01454,0.04182 0.01766,0.07154 0.01091,0.107015 -0.0042,0.01852 -9.87e-4,0.03296 0.0042,0.04146 0.0062,0.0073 0.01361,0.03061 0.0187,0.0521 0.0062,0.02542 0.01226,0.04466 0.01714,0.05247 v 0.005 c -0.0093,0.01936 -0.02171,0.0321 -0.03313,0.0404 -0.0031,-6.11e-4 -0.0042,-0.0011 -0.0073,-0.0011 -0.0031,1.16e-4 -0.0062,7.88e-4 -0.0073,0.0021 -9.77e-4,0.0019 8.72e-4,0.0031 0.0062,0.0035 -0.01537,0.0092 -0.02784,0.01088 -0.02784,0.01088 l -0.0914,0.168429 c -9.77e-4,0.0011 -0.0042,0.0012 -0.0062,0.003 -9.76e-4,0.0019 -0.0042,0.0031 -0.0062,0.0038 l -8.73e-4,8.5e-5 c -0.0031,4.8e-4 -0.0062,3.94e-4 -0.0083,-6.56e-4 -0.0042,-0.0015 -0.0073,-1.43e-4 -0.0083,0.0026 l -0.02566,0.0031 c -1.86e-4,1e-6 -4.36e-4,-1.14e-4 -8.72e-4,-1.14e-4 -4.05e-4,1.6e-5 -4.26e-4,2.56e-4 -8.72e-4,3.08e-4 l -0.148589,0.01812 c -0.06554,-6.99e-4 -0.143625,0.0017 -0.142462,0.0071 8.63e-4,0.0042 0,0.0046 -9.86e-4,0.001 -9.77e-4,-0.0035 -0.0073,-0.0019 -0.01091,0.0038 -0.0062,0.0073 -0.0062,0.0054 -0.0031,-0.0062 0.0042,-0.01428 8.83e-4,-0.01729 -0.02181,-0.02155 -0.0031,-4.8e-4 -0.0073,-1.42e-4 -0.0093,-4.37e-4 l -0.01226,-0.01693 -0.02067,-0.135757 0.106192,-0.144608 0.0083,-0.04153 c 8.72e-4,-0.0025 9.87e-4,-0.003 0.0031,-0.0059 0.0073,-0.02211 0.01475,-0.04413 0.01631,-0.04889 4.46e-4,-0.0011 -1.46e-4,-0.0018 -9.77e-4,-0.0019 -8.93e-4,-5.6e-5 -0.0042,0.0019 -0.0062,0.0022 l 0.01859,-0.09 -0.0093,-0.115089 -0.0073,-5.67e-4 c -9.76e-4,-0.0028 -0.0031,-0.0053 -0.0062,-0.0092 -0.0093,-0.01366 -0.01444,-0.04011 -0.01766,-0.09809 -0.0042,-0.06294 -0.0083,-0.08918 -0.02493,-0.126634 -0.0109,-0.02598 -0.02721,-0.08553 -0.03552,-0.132326 -0.0083,-0.0468 -0.02493,-0.112297 -0.03687,-0.145568 -0.01226,-0.03327 -0.02576,-0.08601 -0.03054,-0.117198 -0.0062,-0.03119 -0.01683,-0.09413 -0.02659,-0.139883 -0.0093,-0.04575 -0.02015,-0.104564 -0.02295,-0.130704 -0.0042,-0.03925 -0.0073,-0.04688 -0.01755,-0.04388 -0.132605,0.03882 -0.154281,0.03523 -0.261968,-0.04353 -0.06201,-0.04542 -0.08694,-0.06858 -0.09836,-0.0915 -0.01226,-0.02484 -0.02586,-0.03642 -0.07167,-0.06092 -0.05287,-0.02829 -0.05692,-0.0322 -0.0619,-0.06049 -0.0062,-0.03251 -0.04508,-0.124087 -0.119133,-0.277552 -0.02545,-0.05284 -0.05785,-0.131099 -0.07187,-0.173907 -0.01402,-0.0428 -0.0348,-0.09825 -0.04601,-0.123204 -0.01091,-0.02496 -0.03012,-0.08328 -0.04165,-0.129628 -0.01226,-0.04634 -0.02887,-0.110024 -0.03833,-0.141479 -0.01579,-0.0525 -0.01901,-0.05759 -0.0404,-0.06211 -0.01226,-0.0027 -0.0296,-0.01048 -0.03729,-0.01731 -0.02077,-0.0184 -0.05349,-0.08707 -0.07676,-0.161785 -0.02098,-0.06743 -0.02399,-0.07048 -0.06138,-0.06546 -0.0031,3.57e-4 -0.0083,-0.0039 -0.01091,-0.0095 -0.0062,-0.0081 -0.0073,-0.0081 -0.0073,-2.06e-4 -8.4e-5,0.0054 -0.0042,0.0078 -0.0083,0.0052 -0.0042,-0.0026 -0.0062,-0.0087 -0.0031,-0.01369 0.0042,-0.006 9.77e-4,-0.0057 -0.0073,6.56e-4 -0.0093,0.008 -0.01371,0.0066 -0.02347,-0.0081 -0.0073,-0.0099 -0.01226,-0.03108 -0.01381,-0.0474 -0.0031,-0.03372 -0.0093,-0.04074 -0.03874,-0.0409 -0.01361,-7.4e-5 -0.02108,-0.0044 -0.02181,-0.01144 -9.87e-4,-0.02115 -0.0031,-0.0252 -0.0083,-0.03034 -0.0031,-0.0028 -0.0042,0.0063 -9.76e-4,0.02017 0.0042,0.0297 -0.0031,0.02692 -0.0083,-0.0031 -0.0031,-0.0113 -8.72e-4,-0.02225 0.0031,-0.02439 0.0042,-0.0022 0.0073,-0.01666 0.0062,-0.03227 -1.35e-4,-0.02269 -9.76e-4,-0.02534 -0.0073,-0.0132 -0.0073,0.01503 -0.0073,0.01503 -0.0042,6e-5 9.76e-4,-0.01008 0.0093,-0.01649 0.02451,-0.01933 0.01226,-0.0024 0.02181,-0.0083 0.02067,-0.01335 -8.72e-4,-0.0049 9.87e-4,-0.009 0.0062,-0.009 0.0042,0 0.0073,-0.0026 0.0062,-0.0057 -0.0031,-0.01062 0.0093,-0.0397 0.01755,-0.0397 0.0042,0 0.0062,-0.0031 0.0031,-0.007 -0.0073,-0.01144 0.0093,-0.04752 0.01963,-0.04152 0.0062,0.0031 0.0073,0.0021 0.0042,-0.0026 -0.0042,-0.0074 0.01485,-0.0208 0.02649,-0.01849 0.0062,10e-4 -0.0042,-0.03783 -0.01226,-0.05159 -0.0031,-0.0045 -0.01226,-0.006 -0.01994,-0.0034 -0.02254,0.0073 -0.03459,-0.0075 -0.07987,-0.0982 -0.02295,-0.04596 -0.04477,-0.08471 -0.0485,-0.08611 -0.01091,-0.0039 -0.08309,-0.152501 -0.07842,-0.160057 0.0031,-0.0036 0.0243,-0.01901 0.04923,-0.0341 0.02493,-0.0151 0.04529,-0.02841 0.04529,-0.02961 0,-0.0085 -0.05723,-0.109709 -0.06959,-0.122997 -0.0093,-0.0099 -0.02669,-0.01755 -0.0429,-0.0189 -0.02254,-0.0019 -0.0296,-0.0068 -0.04009,-0.02742 -0.02721,-0.05445 -0.06336,-0.06143 -0.08828,-0.01706 -0.03937,0.06987 -0.120763,0.241494 -0.116682,0.245623 0.0031,0.0025 -0.0062,0.0045 -0.01901,0.0045 -0.01361,0 -0.02576,0.0035 -0.02846,0.0079 4.47e-4,0.0046 -7.2e-5,0.01563 0.0042,0.01335 0.01091,-0.0042 0.02493,-0.0085 0.03209,-0.01008 0.01963,-0.0042 0.02919,-0.0113 0.02451,-0.01869 -0.0031,-0.0035 -8.3e-5,-0.009 0.0062,-0.01198 0.0062,-0.0031 0.0073,-0.0022 0.0042,0.0021 -0.0062,0.0092 0.06346,0.03145 0.105786,0.03382 0.02773,0.0017 0.03074,0.0034 0.0243,0.01525 -0.0093,0.01658 -0.03095,0.02897 -0.05162,0.02897 -0.0083,0 -0.02098,0.0085 -0.02784,0.01896 -0.01672,0.02553 -0.0042,0.05747 0.03137,0.07626 0.01516,0.0081 0.02233,0.01593 0.01724,0.01898 -0.0093,0.0057 0.0042,0.01063 0.05037,0.01887 0.01662,0.003 0.0456,0.01226 0.06429,0.02087 0.0187,0.0085 0.03739,0.01711 0.04165,0.019 0.0042,0.0019 0.0031,-0.003 -0.0042,-0.01102 -0.01091,-0.01365 -0.0093,-0.01375 0.0031,-0.0021 0.01922,0.01749 0.0093,0.04323 -0.02243,0.05636 -0.03282,0.01372 -0.05297,0.01348 -0.09649,-0.0014 -0.03344,-0.01144 -0.03833,-0.01116 -0.08756,0.0038 -0.02877,0.0087 -0.06232,0.01585 -0.07489,0.01585 -0.03604,0 -0.0457,0.0068 -0.06221,0.04429 -0.01859,0.04191 -0.08247,0.10967 -0.12389,0.131072 -0.03988,0.02064 -0.106202,0.02588 -0.140426,0.01116 -0.03988,-0.01728 -0.0887,-0.0717 -0.104571,-0.116667 -0.0083,-0.0216 -0.02015,-0.04628 -0.02784,-0.05481 -0.0083,-0.0085 -0.01485,-0.02136 -0.01579,-0.02848 -8.73e-4,-0.0071 -0.0073,-0.03337 -0.01444,-0.05832 -0.01381,-0.04974 -0.01361,-0.06586 0.0109,-0.200373 0.01932,-0.108743 0.04892,-0.200366 0.09743,-0.302449 0.03511,-0.07371 0.04508,-0.107002 0.08278,-0.275986 0.0073,-0.0291 0.01963,-0.06994 0.02919,-0.09074 0.0093,-0.02079 0.01963,-0.04716 0.02244,-0.0586 0.0031,-0.01143 0.0083,-0.02079 0.01226,-0.02079 0.0042,0 0.0062,-0.0032 0.0031,-0.0074 -0.0073,-0.01018 0.01091,-0.03942 0.01932,-0.03383 0.0042,0.0025 0.0073,0.0018 0.0062,-0.0018 -8.83e-4,-0.0034 0.0093,-0.01775 0.02275,-0.03182 0.01361,-0.01408 0.02254,-0.02745 0.02046,-0.02967 -0.0062,-0.0059 0.02711,-0.03922 0.03874,-0.03922 0.0062,0 0.0083,-0.0048 0.0062,-0.01048 -0.0031,-0.0061 0.0062,-0.01735 0.01901,-0.02688 0.01226,-0.009 0.02223,-0.02047 0.02119,-0.02544 -8.73e-4,-0.0049 0.0042,-0.0081 0.01091,-0.007 0.0073,0.0011 0.01516,-0.0019 0.01828,-0.0068 0.0042,-0.0061 0.0031,-0.007 -0.0062,-0.0026 -0.0093,0.0054 -0.0093,0.0045 -2.29e-4,-0.0063 0.01226,-0.0144 0.01973,-0.01732 0.01226,-0.0043 -0.0031,0.0052 -9.76e-4,0.0071 0.0062,0.0048 0.0062,-0.0021 0.0093,-0.0075 0.0083,-0.01211 -8.83e-4,-0.0048 0.0042,-0.0063 0.01091,-0.0034 0.0093,0.0034 0.01091,0.0021 0.0073,-0.0052 -0.0042,-0.0065 -0.0031,-0.0081 0.0031,-0.0048 0.01091,0.0068 0.09202,-0.04482 0.09202,-0.0587 0,-0.0059 -0.0083,-0.01613 -0.0189,-0.02295 -0.01547,-0.01018 -0.0189,-0.01848 -0.0189,-0.04624 0,-0.01862 -0.0031,-0.03385 -0.0073,-0.03385 -0.0083,0 -0.03209,-0.06071 -0.02701,-0.06909 0.0031,-0.0035 -0.0062,-0.0065 -0.01755,-0.0065 -0.04123,0 -0.04892,-0.02259 -0.02545,-0.07655 0.0083,-0.0182 0.01683,-0.04415 0.01942,-0.05768 0.0042,-0.02232 0.0042,-0.02457 -0.01361,-0.02457 -0.0591,0 -0.149461,-0.05311 -0.149399,-0.08785 0,-0.01048 0.0042,-0.0078 0.01506,0.01039 0.0083,0.01348 0.01714,0.02457 0.01973,0.02457 0.0031,0 8.72e-4,-0.0045 -0.0042,-0.01008 -0.01091,-0.01388 -0.0073,-0.03404 0.02524,-0.09772 0.02576,-0.05197 0.02721,-0.05961 0.0295,-0.141421 9.86e-4,-0.05763 0.0062,-0.08746 0.01091,-0.08944 9.86e-4,-3.67e-4 0.0031,-9.17e-4 0.0031,-0.0017 l 0.0031,-0.0063 c -1.76e-4,-7.86e-4 -3.53e-4,-0.0017 -8.93e-4,-0.0024 -0.0031,-0.0042 9.77e-4,-0.01398 0.0083,-0.02203 8.62e-4,-10e-4 9.77e-4,-0.0018 0.0031,-0.0027 l 0.0042,-0.01253 c -8.73e-4,-8.28e-4 3.63e-4,-0.0035 0.0031,-0.0072 l 0.0073,-0.017 c -0.0042,0.0011 -0.0031,-0.0021 0.0031,-0.01172 0.0042,-0.0085 0.01226,-0.01816 0.01787,-0.02126 0.0062,-0.0035 0.0062,-1.19e-4 -9.76e-4,0.009 -0.0031,0.0035 -0.0031,0.0045 -9.87e-4,0.0039 l 0.03023,-0.02692 c 0.01226,-0.01226 0.01091,-0.01546 -0.0062,-0.0032 -0.01091,0.0085 -0.01226,0.0084 -0.0042,-8.74e-4 0.0062,-0.006 0.01548,-0.01089 0.02275,-0.01102 9.86e-4,-7e-6 0.0031,-3.17e-4 0.0042,-5.67e-4 l 0.0073,-0.0065 c 1.87e-4,-9.61e-4 3.94e-4,-0.0019 1.56e-4,-0.003 -9.77e-4,-0.0054 9.86e-4,-0.0081 0.0062,-0.0054 9.87e-4,7.44e-4 0.0062,1.01e-4 0.0093,-10e-4 l 0.09047,-0.04896 0.133559,-0.0459 0.07271,-0.0043 c 0.0031,-1.6e-4 0.0042,-4.16e-4 0.0073,-3.69e-4 z m 0.139771,0.06012 0.02077,0.01743 c 8.72e-4,-5.67e-4 9.86e-4,-0.0015 9.86e-4,-0.0028 0,-0.0019 -0.0073,-0.0071 -0.01475,-0.0113 -0.0031,-0.0017 -0.0062,-0.0026 -0.0083,-0.0032 z m -0.661671,0.407525 -0.02223,0.02457 c -0.02067,0.0229 -0.02701,0.02805 -0.02701,0.02221 0,-0.0012 0.0109,-0.01239 0.02451,-0.02458 z m 1.886528,0.103065 c 0.0042,0 0.0073,5.25e-4 0.0093,0.0017 0.0062,0.0021 8.72e-4,0.0038 -0.0093,0.0038 -0.01091,0 -0.01475,-0.0018 -0.0093,-0.0038 0.0031,-0.001 0.0062,-0.0017 0.0093,-0.0017 z m 1.067616,0.429366 -0.03563,0.05713 c -0.02742,0.04382 -0.03479,0.06194 -0.03137,0.07783 0.0031,0.01144 0.0083,0.03688 0.01226,0.05668 0.01091,0.05118 9.76e-4,0.07085 -0.03635,0.07731 -0.01683,0.0028 -0.03365,0.0031 -0.0376,7.44e-4 -0.0042,-0.0025 -0.0083,0.0145 -0.01091,0.03909 -0.0031,0.03924 -9.76e-4,0.04537 0.01662,0.06276 0.05079,0.04918 0.0592,0.123393 0.01787,0.156393 -0.01226,0.0097 -0.027,0.01517 -0.03459,0.01281 -0.0093,-0.0031 -0.01361,1.61e-4 -0.01371,0.01334 -2.08e-4,0.0097 -0.0042,0.02942 -0.0093,0.04399 l -0.0093,0.02646 0.05889,0.05547 c 0.0403,0.03789 0.05899,0.06096 0.05899,0.07279 0,0.03393 -0.02451,0.126769 -0.03074,0.116627 -0.0042,-0.0061 -0.0062,-3.82e-4 -0.0062,0.01534 4.36e-4,0.01829 -0.0042,0.02911 -0.01745,0.03924 -0.0093,0.0077 -0.02036,0.01405 -0.02275,0.01415 -0.0031,9.2e-5 -0.01226,-0.01533 -0.02223,-0.03429 -0.0189,-0.03691 -0.03448,-0.05341 -0.02295,-0.0246 0.01683,0.04226 0.03365,0.06816 0.04871,0.07423 0.0093,0.0035 0.01226,0.0068 0.0073,0.0071 -0.0062,2.62e-4 -0.0073,0.0066 -0.0062,0.01425 0.0031,0.0099 -0.0083,0.02393 -0.03936,0.04916 -0.02368,0.01946 -0.04736,0.03539 -0.05266,0.03539 -0.0073,0 -0.01226,0.01865 -0.01828,0.05104 -0.03074,0.186333 -0.03054,0.183359 -0.01381,0.183359 0.0042,0 0.0042,-0.0034 0.0031,-0.0077 -0.0042,-0.007 0.03718,0.01824 0.0887,0.05393 0.0109,0.0078 0.02275,0.01419 0.02545,0.01419 0.0031,0 0.01579,0.0095 0.02898,0.02079 0.01361,0.01144 0.03355,0.0276 0.04539,0.03592 0.01226,0.0083 0.02534,0.01888 0.03012,0.02351 0.02358,0.02224 0.09441,0.07715 0.118998,0.09217 0.03074,0.01884 0.04778,0.01608 0.06938,-0.0113 0.02046,-0.02584 0.03687,-0.02274 0.03386,0.0063 -9.76e-4,0.01415 9.87e-4,0.02515 0.0073,0.02708 0.0062,0.0018 0.0093,-3.72e-4 0.0093,-0.0048 0,-0.0045 0.0083,-0.0074 0.01693,-0.0062 0.0093,9.81e-4 0.01683,-0.0017 0.01714,-0.0057 2.08e-4,-0.0042 0.0083,-0.02118 0.01724,-0.03781 0.0093,-0.01664 0.04923,-0.09806 0.0887,-0.180955 0.03947,-0.08288 0.07665,-0.158138 0.08268,-0.167218 0.0073,-0.01039 0.0083,-0.01915 0.0042,-0.02368 -0.0083,-0.0084 0.0062,-0.05515 0.01963,-0.06691 0.02358,-0.01919 0.01548,-0.182798 -0.01506,-0.307366 -0.0093,-0.04025 -0.03157,-0.102317 -0.0483,-0.137935 -0.05411,-0.115305 -0.165986,-0.293703 -0.287435,-0.45806 -0.03531,-0.04783 -0.07354,-0.10156 -0.08486,-0.119405 z m -2.963378,0.16468 c -0.0073,5.68e-4 -0.01579,0.0042 -0.0215,0.01039 -0.0073,0.0081 -0.0093,0.01461 -0.0062,0.01461 0.0042,0 0.0093,-0.005 0.01226,-0.01116 0.0031,-0.0063 0.0093,-0.0092 0.01589,-0.0068 0.0073,0.0025 0.01226,0.0027 0.01226,6.98e-4 0,-0.0059 -0.0062,-0.0083 -0.01361,-0.0078 z m 0.02358,0.01253 c -8.62e-4,1.52e-4 -9.76e-4,5.23e-4 -0.0031,0.0011 -0.0042,0.0026 -0.0083,0.0061 -0.0083,0.0081 0,0.0018 0.0042,0.0032 0.0083,0.0032 0.0042,0 0.0083,-0.0035 0.0083,-0.0081 0,-0.0032 -9.87e-4,-0.005 -0.0042,-0.0045 z m 0.0042,0.02009 c -3.95e-4,3.91e-4 9.87e-4,0.0034 0.0073,0.0095 0.0093,0.01266 0.0161,0.01661 0.0161,0.01039 0,-0.0017 -0.0062,-0.0075 -0.01361,-0.0132 -0.0062,-0.0048 -0.0093,-0.007 -0.0093,-0.0065 z m 1.734678,0.168902 c -0.0031,8.74e-4 -0.0073,0.0054 -0.01091,0.01198 -0.0093,0.01851 -0.0073,0.02062 0.0073,0.0043 0.0062,-0.0063 0.0083,-0.01348 0.0062,-0.01577 -4.47e-4,-5.67e-4 -9.87e-4,-7e-4 -0.0031,-3.99e-4 z m 0.04726,0.06838 c -0.0031,5.4e-5 -0.0031,0.003 -3.32e-4,0.0081 0.0062,0.01307 0.01091,0.01549 0.01091,0.0046 0,-0.0039 -0.0042,-0.0092 -0.0073,-0.01172 -8.72e-4,-6.56e-4 -9.76e-4,-9.6e-4 -0.0031,-9.6e-4 z m 0.06731,0.14833 c -0.0031,0 -0.0073,0.0068 -0.01226,0.01513 -0.0042,0.0083 -0.0073,0.01512 -0.0042,0.01512 0.0031,0 0.0073,-0.0068 0.01226,-0.01512 0.0042,-0.0083 0.0073,-0.01513 0.0042,-0.01513 z m 0.120223,0.116436 c 0.0031,5.7e-4 0.0062,0.0043 0.0073,0.01 0.0042,0.01076 0.0031,0.01172 -0.0042,0.0043 -0.0062,-0.0052 -0.0073,-0.01116 -0.0062,-0.01362 4.46e-4,-5.67e-4 9.86e-4,-7.43e-4 0.0031,-5.67e-4 z m 0.03511,0.06677 c 9.76e-4,-9.82e-4 0.0042,0.0011 0.0073,0.0059 0.0042,0.0062 0.0073,0.01475 0.0073,0.01889 0,0.0042 -0.0042,0.0025 -0.0073,-0.0038 -0.0042,-0.0062 -0.0073,-0.01475 -0.0073,-0.01889 0,-0.001 2.08e-4,-0.0018 4.46e-4,-0.0021 z m 0.544335,0.149482 c -0.01361,0 -0.01475,0.0099 -0.02316,0.147739 -0.0042,0.07469 -0.0093,0.152057 -0.01226,0.171915 -0.0042,0.04012 -0.0073,0.08915 -0.01527,0.215304 -0.0042,0.05625 -0.0031,0.08507 0.0031,0.08507 0.0093,0 0.01381,-0.03753 0.02472,-0.185251 0.0042,-0.05822 0.0093,-0.117769 0.01091,-0.132324 9.87e-4,-0.01456 0.0062,-0.06219 0.0083,-0.105858 0.0031,-0.04365 0.0073,-0.105761 0.0083,-0.137993 0.0031,-0.03569 8.72e-4,-0.0586 -0.0042,-0.0586 z m 0.940351,0.0018 c -3.95e-4,3.05e-4 -8.63e-4,0.0017 -9.77e-4,0.0039 -9.87e-4,0.0095 -9.87e-4,0.02467 0,0.03403 9.77e-4,0.0095 0.0031,0.0018 0.0031,-0.01702 0,-0.01404 -8.72e-4,-0.02183 -0.0031,-0.02092 z m -3.300192,0.07479 c 0.0062,0 0.0093,4.8e-4 0.01361,0.0013 0.0073,0.0019 9.77e-4,0.0034 -0.01361,0.0034 -0.01454,0 -0.02056,-0.0017 -0.01361,-0.0034 0.0042,-9.61e-4 0.0083,-0.0013 0.01361,-0.0013 z m 2.488664,0.0395 c -4.46e-4,1.04e-4 -8.83e-4,6.11e-4 -8.83e-4,0.0017 1.56e-4,0.0039 0.0062,0.01371 0.01091,0.02178 0.0062,0.008 0.01091,0.01143 0.01091,0.0077 -1.35e-4,-0.0039 -0.0062,-0.01371 -0.01091,-0.02178 -0.0042,-0.006 -0.0083,-0.0096 -0.0093,-0.0091 z m 0.01226,0.06829 c -8.72e-4,-7.88e-4 -9.76e-4,2.62e-4 -0.0031,0.0032 -0.0031,0.0054 -9.86e-4,0.01198 4.26e-4,0.0145 0.0031,0.0025 0.0042,-0.0019 0.0042,-0.01 -1.77e-4,-0.0044 -8.73e-4,-0.0071 -9.77e-4,-0.0079 z m -0.0093,0.03088 c -4.36e-4,1.69e-4 -8.72e-4,8.73e-4 -9.86e-4,0.0022 -0.0031,0.0052 -0.0031,0.0137 0,0.0189 0.0031,0.0052 0.0042,9.61e-4 0.0042,-0.0095 0,-0.0078 -8.72e-4,-0.01211 -0.0031,-0.01157 z m -2.415159,0.06553 c 0.0042,-5.3e-5 0.0083,4.01e-4 0.01226,0.0014 0.0073,0.0019 0.0031,0.0036 -0.0093,0.0038 -0.01226,1.54e-4 -0.01859,-0.0014 -0.01361,-0.0035 0.0031,-0.001 0.0073,-0.0017 0.01091,-0.0017 z m 0.03687,0.0073 c 0.0073,-2.29e-4 0.01651,0.0028 0.02254,0.007 0.01371,0.009 9.77e-4,0.009 -0.0189,0 -0.0093,-0.0043 -0.01091,-0.0066 -0.0042,-0.007 z m 0.244601,0.183345 c 0.0062,0 0.0093,0.0045 0.0093,0.01008 0,0.0056 -8.62e-4,0.01007 -9.87e-4,0.01007 -8.83e-4,0 -0.0062,-0.0045 -0.0093,-0.01007 -0.0073,-0.0075 -0.0062,-0.01008 9.87e-4,-0.01008 z m -0.0042,0.02365 c 0.0073,10e-4 0.01361,0.0083 0.01433,0.01889 8.62e-4,0.01 -0.0042,0.01407 -0.01361,0.01335 -0.01475,-10e-4 -0.02108,-0.01307 -0.0073,-0.01307 0.0042,0 0.0083,-0.0035 0.0083,-0.0081 0,-0.0044 -0.0042,-0.0056 -0.0083,-0.0026 -0.0062,0.0032 -0.0073,0.0021 -0.0042,-0.003 0.0031,-0.0046 0.0073,-0.0063 0.01091,-0.0056 z m 0.01558,0.102546 c -4.36e-4,-5.4e-5 -0.0031,0.0031 -0.0073,0.0096 -0.0062,0.0074 -0.0073,0.01932 -0.0062,0.02646 0.0031,0.01172 0.0042,0.01172 0.0042,3.85e-4 4.36e-4,-0.007 0.0031,-0.01884 0.0062,-0.02646 0.0031,-0.0065 0.0031,-0.0099 0.0031,-0.01 z m 1.624291,0.0027 c -8.83e-4,-7.87e-4 -9.87e-4,2.62e-4 -0.0031,0.0032 -0.0031,0.0054 -9.76e-4,0.01198 4.36e-4,0.0145 0.0031,0.0026 0.0042,-0.0019 0.0042,-0.01 -1.77e-4,-0.0044 -8.62e-4,-0.0071 -9.87e-4,-0.0079 z m 0.341611,0.03575 c -0.0073,9.19e-4 -0.01444,0.0096 -0.01444,0.01855 0,0.006 0.0042,0.01088 0.0083,0.01088 0.0093,0 0.0188,-0.02132 0.01226,-0.02754 -9.76e-4,-0.0017 -0.0042,-0.0022 -0.0062,-0.0019 z m -2.042897,0.04742 c 8.73e-4,7.86e-4 9.87e-4,0.0034 9.87e-4,0.0079 3.22e-4,0.008 -9.87e-4,0.01239 -0.0042,0.01 -0.0031,-0.0025 -0.0031,-0.009 -4.57e-4,-0.0145 9.87e-4,-0.003 0.0031,-0.0042 0.0031,-0.0032 z m 2.055693,0.0048 c -0.0073,0 -0.0093,0.0074 -0.0093,0.0189 9.86e-4,0.02457 0.0162,0.02457 0.01828,0 8.72e-4,-0.01185 -0.0031,-0.0189 -0.0093,-0.0189 z m 8.83e-4,0.107245 c -9.86e-4,-1.04e-4 -0.0031,0.01088 -0.0062,0.03643 -0.0031,0.03119 -0.0093,0.111154 -0.01454,0.17769 -0.0042,0.06653 -0.0109,0.132039 -0.01226,0.145553 -0.0031,0.0144 -8.72e-4,0.02457 0.0042,0.02457 0.0042,0 0.0093,-0.03714 0.01226,-0.08886 0.0031,-0.04886 0.0083,-0.126266 0.01226,-0.172018 0.0062,-0.06941 0.0073,-0.123149 0.0062,-0.123367 z m -1.875051,0.04684 c -8.62e-4,-7.87e-4 -9.76e-4,2.62e-4 -0.0031,0.0032 -0.0031,0.0054 -9.76e-4,0.01198 4.47e-4,0.0145 0.0031,0.0026 0.0042,-0.0019 0.0042,-0.01 -1.76e-4,-0.0044 -8.72e-4,-0.0071 -9.76e-4,-0.0079 z m 1.903697,0.05627 c -4.46e-4,4.38e-4 -8.93e-4,0.0017 -9.86e-4,0.0034 -9.77e-4,0.0074 -9.77e-4,0.01756 2.9e-4,0.02267 0.0031,0.0052 0.0042,-9.17e-4 0.0042,-0.01335 -1.14e-4,-0.0095 -9.87e-4,-0.01404 -0.0031,-0.01266 z m -0.05629,0.296246 c -0.0042,0 -0.0083,0.0034 -0.0083,0.0077 0,0.0042 9.77e-4,0.0077 0.0042,0.0077 9.76e-4,0 0.0062,-0.0034 0.0083,-0.0077 0.0031,-0.0042 8.73e-4,-0.0077 -0.0042,-0.0077 z m -0.340075,0.356324 c 0.0031,-1.08e-4 0.0062,3.7e-4 0.0083,0.0015 0.0062,0.0025 0.0042,0.0043 -0.0042,0.0046 -0.0083,3.27e-4 -0.01226,-0.0015 -0.0093,-0.0039 9.76e-4,-0.0012 0.0042,-0.0019 0.0073,-0.0021 z m -0.03022,0 c 0.0031,-1.08e-4 0.0062,3.7e-4 0.0083,0.0015 0.0062,0.0025 0.0042,0.0043 -0.0042,0.0046 -0.0083,3.27e-4 -0.01226,-0.0015 -0.0093,-0.0039 9.87e-4,-0.0012 0.0042,-0.0019 0.0073,-0.0021 z m 0.06658,0.0025 c 9.87e-4,1.77e-4 0.0031,5.69e-4 0.0042,0.0011 0.0073,0.0025 0.01226,0.0059 0.01226,0.0075 0,0.0061 -0.01444,0.0027 -0.0188,-0.0045 -0.0031,-0.0032 -8.83e-4,-0.0048 0.0031,-0.0043 z m -0.357918,2.291013 c 0.0042,-2.01e-4 0.0093,0.0021 0.01433,0.0061 l -0.02337,0.0028 v -1.43e-4 c 0,-0.0056 0.0042,-0.0085 0.0093,-0.0088 z" />
      <path
         d="m 111.7544,18.804655 0.61207,-1.3141 0.0173,0.01 -0.0194,0.041 h -0.006 l -0.009,0.021 0.0572,0.026 0.01,-0.02 -0.0261,-0.012 0.019,-0.041 h 0.005 l 0.0197,-0.042 h 0.007 l 0.0138,-0.028 h -0.008 l 0.16263,-0.3482 h 0.0106 l 0.0127,-0.028 h -0.0102 l 0.024,-0.051 -0.048,-0.022 0.20355,-0.4364 c 0.0155,-0.01 0.0423,-0.025 0.0801,-0.068 0.036,-0.041 0.11148,-0.1252 0.17039,-0.1908 0.0473,-0.052 0.0833,-0.093 0.0833,-0.093 l 0.01,-0.02 -0.003,-0.01 0.0198,-0.043 -0.004,-0.061 -0.0145,-0.1994 c 0,0 -0.005,-0.049 -0.0607,-0.075 h -0.002 c -0.0557,-0.027 -0.0967,0 -0.0967,0 l -0.16193,0.1168 -0.0494,0.036 -0.0205,0.043 -0.009,0.01 -0.009,0.02 c 0,0 -0.008,0.054 -0.0173,0.1228 -0.0123,0.088 -0.0286,0.2 -0.037,0.2536 -0.009,0.056 -0.005,0.088 -7e-4,0.1044 l -1.04775,2.2486 z"
         id="path51538-6-9-8-1-2-7-3-3" />
      <path
         d="m 100.56765,18.6279 0.61207,-1.3141 0.0173,0.01 -0.0194,0.041 h -0.006 l -0.009,0.021 0.0572,0.026 0.01,-0.02 -0.0261,-0.012 0.019,-0.041 h 0.005 l 0.0197,-0.042 h 0.007 l 0.0138,-0.028 h -0.008 l 0.16263,-0.3482 h 0.0106 l 0.0127,-0.028 h -0.0102 l 0.024,-0.051 -0.048,-0.022 0.20355,-0.4364 c 0.0155,-0.01 0.0423,-0.025 0.0801,-0.068 0.036,-0.041 0.11148,-0.1252 0.17039,-0.1908 0.0473,-0.052 0.0833,-0.093 0.0833,-0.093 l 0.01,-0.02 -0.003,-0.01 0.0198,-0.043 -0.004,-0.061 -0.0145,-0.1994 c 0,0 -0.005,-0.049 -0.0607,-0.075 h -0.002 c -0.0557,-0.027 -0.0967,0 -0.0967,0 l -0.16193,0.1168 -0.0494,0.036 -0.0205,0.043 -0.009,0.01 -0.009,0.02 c 0,0 -0.008,0.054 -0.0173,0.1228 -0.0123,0.088 -0.0286,0.2 -0.037,0.2536 -0.009,0.056 -0.005,0.088 -7e-4,0.1044 l -1.04775,2.2486 z"
         id="path51538-6-9-8-1-2-7-6-9" />
    </g>
  </g>
</svg>
