<?xml version="1.0" encoding="UTF-8" standalone="no"?>
<!-- Created with Inkscape (http://www.inkscape.org/) -->

<svg
   width="33.232208mm"
   height="13.951046mm"
   viewBox="0 0 33.232208 13.951046"
   version="1.1"
   id="svg15601"
   inkscape:version="1.1.1 (3bf5ae0d25, 2021-09-20)"
   sodipodi:docname="inkporter-svg-fswrd51t.svg"
   xmlns:inkscape="http://www.inkscape.org/namespaces/inkscape"
   xmlns:sodipodi="http://sodipodi.sourceforge.net/DTD/sodipodi-0.dtd"
   xmlns="http://www.w3.org/2000/svg"
   xmlns:svg="http://www.w3.org/2000/svg">
  <sodipodi:namedview
     id="namedview15603"
     pagecolor="#ffffff"
     bordercolor="#666666"
     borderopacity="1.0"
     inkscape:pageshadow="2"
     inkscape:pageopacity="0.0"
     inkscape:pagecheckerboard="0"
     inkscape:document-units="mm"
     showgrid="false"
     inkscape:zoom="1.2810466"
     inkscape:cx="358.6911"
     inkscape:cy="503.49457"
     inkscape:window-width="1889"
     inkscape:window-height="1656"
     inkscape:window-x="3581"
     inkscape:window-y="141"
     inkscape:window-maximized="0"
     inkscape:current-layer="G-Infantry-MG5-4-Pfx3"
     inkscape:snap-nodes="true"
     inkscape:snap-bbox="true"
     inkscape:snap-others="true"
     inkscape:bbox-paths="true"
     inkscape:snap-global="true" />
  <defs
     id="defs15598">
    <clipPath
       clipPathUnits="userSpaceOnUse"
       id="clipPath48514-9-5-6-7-4">
      <path
         d="M 309.111,103.342 H 547.1 V 372.047 H 309.111 Z"
         id="path48512-3-2-8-8-0" />
    </clipPath>
    <clipPath
       clipPathUnits="userSpaceOnUse"
       id="clipPath48514-9-5-6-7-4-5">
      <path
         d="M 309.111,103.342 H 547.1 V 372.047 H 309.111 Z"
         id="path48512-3-2-8-8-0-2" />
    </clipPath>
    <clipPath
       clipPathUnits="userSpaceOnUse"
       id="clipPath48514-9-5-6-7-4-1">
      <path
         d="M 309.111,103.342 H 547.1 V 372.047 H 309.111 Z"
         id="path48512-3-2-8-8-0-4" />
    </clipPath>
  </defs>
  <g
     inkscape:label="Layer 1"
     inkscape:groupmode="layer"
     id="layer1"
     transform="translate(-21.574301,-200.02807)">
    <g
       id="G-InfantryStG5-4x3">
      <path
         d="m 47.24902,205.19032 c -0.0258,0.0825 -0.0681,0.16545 -0.0942,0.1912 -0.0261,0.0258 -0.13123,0.133 -0.13441,0.15558 -0.003,0.0226 -0.008,0.0564 0.0307,0.0889 0.0388,0.0324 0.0776,0.0402 0.12489,0.0522 0.0473,0.0113 0.23494,-0.0198 0.27093,-0.0554 0.0356,-0.0356 0.0854,-0.12982 0.0991,-0.1524 0.0131,-0.0229 0.0109,0.003 0.0109,0.003 l 0.079,-0.0515 c 0,0 0.0148,-0.0794 0.005,-0.0942 -0.01,-0.0141 0.003,-0.0497 -0.005,-0.0773 -0.007,-0.0275 -0.0462,-0.0635 -0.0483,-0.0857 -10e-4,-0.0229 0.004,-0.0423 -0.004,-0.0617 -0.006,-0.0198 -0.0307,-0.0328 -0.0381,-0.0388 -0.008,-0.007 -0.0106,-0.0667 -0.0233,-0.0871 -0.0131,-0.0215 -0.003,-0.0169 0.0212,-0.0314 0.0243,-0.0145 0.0695,-0.0709 0.0695,-0.0709 0,0 -0.0565,-0.004 -0.0744,0.001 -0.0176,0.005 -0.0388,0.0176 -0.0388,0.0176 l -0.0247,-0.0113 c 0,0 -0.0109,-0.0455 -0.0402,-0.0663 -0.0293,-0.0212 -0.0438,-0.0829 -0.0438,-0.0829 l 0.0272,-0.0293 -0.048,-0.0529 -0.018,0.007 -0.0243,-0.037 -0.0275,0.002 c 0,0 0.005,-0.19438 -0.01,-0.23954 -0.0152,-0.0455 -0.0811,-0.1083 -0.0861,-0.11535 -0.005,-0.006 -0.007,-0.0709 -0.0258,-0.0808 -0.0201,-0.01 -0.0508,-0.0289 -0.0508,-0.0289 0,0 -0.0222,-0.0847 -0.0127,-0.16405 0.01,-0.0794 -0.0533,-0.39193 -0.0631,-0.43074 -0.009,-0.0392 0.01,-0.11359 0.018,-0.16686 0.008,-0.0533 10e-4,-0.31115 10e-4,-0.31115 l 0.0857,-0.0572 c 0,0 -0.17109,-0.45614 -0.19544,-0.53093 -0.025,-0.0744 -0.0437,-0.1718 -0.0437,-0.1718 0,0 0.0988,-0.19438 0.10019,-0.23813 0.001,-0.0437 -0.004,-0.0988 0.0279,-0.13582 0.0303,-0.0374 0.0903,-0.24518 0.0547,-0.36971 -0.0353,-0.12488 -0.12171,-0.36936 -0.16651,-0.41169 -0.0455,-0.042 -0.0762,-0.0617 -0.0977,-0.139 -0.0208,-0.078 -0.0367,-0.14111 -0.11324,-0.17356 -0.0766,-0.0321 -0.133,-0.0293 -0.14746,-0.0483 -0.0141,-0.0198 -0.0402,-0.0346 -0.0628,-0.0346 -0.0233,0 -0.0702,0.0148 -0.0868,0 -0.0152,-0.0141 -0.0251,-0.0307 -0.0187,-0.0596 0.006,-0.0289 0.0113,-0.0437 0.0113,-0.0437 l 0.16404,0.003 c 0,0 -0.0571,-0.12595 -0.067,-0.15699 -0.01,-0.0307 0.0684,-0.36654 -0.16369,-0.44415 -0.23177,-0.0773 -0.45331,-0.0582 -0.52316,0.0811 -0.0702,0.139 -0.0681,0.28187 -0.15276,0.29351 -0.0836,0.0109 0.0684,0.0469 0.0684,0.0469 0,0 0,0.0286 0.0141,0.0321 0.0152,0.004 0.0307,0.0145 0.0138,0.0536 -0.0183,0.0392 -0.0632,0.0988 -0.0265,0.11042 0.0377,0.0113 0.0434,0.0162 0.0434,0.0162 l 0.007,0.024 c 0,0 -0.005,0.0141 10e-4,0.0212 0.007,0.006 0.0279,0.018 0.0279,0.018 l 0.006,0.0303 c 0,0 -0.0208,0.0116 -0.0176,0.0198 0.004,0.008 0.0247,0.0257 0.0148,0.0402 -0.01,0.0145 -0.0243,0.0568 -0.008,0.0716 0.0155,0.0145 0.0871,0.0356 0.0871,0.0356 0,0 -0.078,0.0487 -0.11465,0.084 -0.0378,0.036 -0.067,0.0861 -0.0988,0.11677 -0.0328,0.031 -0.0702,0.0695 -0.0543,0.0988 0.0166,0.0293 0.0215,0.0374 -10e-4,0.0505 -0.0233,0.0123 -0.10583,0.10689 -0.11535,0.12771 -0.01,0.0215 -0.079,0.0744 -0.11677,0.0924 -0.0367,0.0176 -0.073,0.0243 -0.073,0.0243 l -0.13899,-0.007 c 0,0 -0.0215,-0.0275 -0.0423,-0.0321 -0.0208,-0.005 -0.10654,-0.007 -0.10654,-0.007 l -0.0247,0.0388 -0.20884,0.003 c 0,0 -0.0353,-0.019 -0.0497,-0.0141 -0.0148,0.005 -0.0586,0.005 -0.0586,0.005 l -0.15028,0.008 -0.0653,-0.003 c 0,0 0.0293,0.15557 0.0293,0.17215 v 0.0642 c 0,0 -0.0632,0.0229 -0.0632,0.0423 0,0.0194 0.0194,0.0437 0.0159,0.055 -0.004,0.0116 -0.005,0.0402 -0.004,0.0501 0.002,0.0102 0.0152,0.0265 0.0131,0.0406 -10e-4,0.0145 0.002,0.0342 0.0123,0.0473 0.009,0.0127 0.007,0.0243 0.007,0.0416 0,0.0183 -0.0102,0.0198 0.0109,0.0328 0.0212,0.0127 0.0229,0.0226 0.0229,0.0226 l 0.14111,0.01 c 0,0 0.036,0.005 0.073,0 0.0374,-0.005 0.0744,-0.0148 0.0744,-0.0148 0,0 0.0279,0.0956 0.0808,0.0956 0.0533,0 0.17568,-0.0907 0.17568,-0.0907 0,0 0.001,-0.0325 0.0759,-0.0134 0.0744,0.0198 0.11783,0.0459 0.15169,0.0473 0.0346,0.001 0.18521,-0.0624 0.21732,-0.0162 0.0328,0.0469 0.0861,0.0279 0.0861,0.0279 0,0 -0.0871,0.25436 -0.0885,0.29316 -0.002,0.0392 0.0173,0.11677 0.0173,0.11677 0,0 -0.11324,0.19579 -0.12947,0.26212 -0.0166,0.0667 -0.0145,0.0667 -0.0296,0.0889 -0.0141,0.0233 -0.0272,0.0684 -0.0501,0.10371 -0.0229,0.036 -0.0229,0.0554 -0.0229,0.0554 l 0.0392,0.0258 c 0,0 -0.2039,0.4572 -0.22331,0.51188 -0.0197,0.0557 -0.15381,0.20955 -0.13793,0.35878 0.0159,0.14887 0.018,0.28998 0.0215,0.30868 0.003,0.0201 0.0212,0.0522 0.009,0.0762 -0.0106,0.0247 -0.0388,0.073 0.002,0.10195 0.0402,0.0296 0.0501,0.0251 0.0501,0.0508 0,0.0258 0.013,0.0501 0.0328,0.066 0.0191,0.0166 0.0388,0.16404 0.0388,0.16404 l 0.0307,0.14746 c 0,0 -0.0134,0.024 -0.0247,0.0423 -0.0116,0.0173 -0.006,0.0356 -0.006,0.0356 0,0 -0.0137,0.0335 -0.0388,0.0497 -0.0268,0.0166 -0.0871,0.0956 -0.0871,0.0956 0,0 -0.0688,0.06 -0.0995,0.0681 -0.0307,0.008 -0.15064,0.06 -0.15064,0.06 0,0 -0.12488,0.0243 -0.1344,0.0649 -0.0102,0.0406 -0.001,0.0776 -0.001,0.0776 l -0.0116,0.0296 c 0,0 0.12771,0.0385 0.18415,0.0437 0.0568,0.005 0.35525,-0.0931 0.39935,-0.10265 0.043,-0.009 0.0596,-0.0141 0.0818,-0.0109 0.0236,0.003 0.0293,0.0374 0.0293,0.0374 0,0 0.16052,-0.01 0.19932,-0.0194 0.0392,-0.0102 0.0413,-0.0409 0.0413,-0.0409 l -0.006,-0.06 -0.013,-0.0148 c 0,0 0.0554,-0.0885 0.0459,-0.14711 -0.01,-0.0582 -0.0363,-0.12277 -0.0363,-0.12277 0,0 0.004,-0.0928 -0.004,-0.11677 -0.008,-0.0247 0.003,-0.0505 0.003,-0.0695 0,-0.0201 -0.0222,-0.0744 -0.0258,-0.0928 -0.004,-0.018 0.0127,-0.10336 0.0127,-0.10336 0,0 0.0861,-0.1203 0.0765,-0.15417 -0.01,-0.0342 0.0339,-0.1277 0.0226,-0.15098 -0.0116,-0.0222 -0.0272,-0.0825 -0.0339,-0.10972 -0.007,-0.0279 -0.005,-0.0473 0.009,-0.0797 0.0145,-0.0325 0.0145,-0.0748 0.008,-0.115 -0.006,-0.0406 -10e-4,-0.0483 0.0762,-0.0804 0.078,-0.0328 0.26212,-0.22049 0.29281,-0.27411 0.0314,-0.0536 0.12982,-0.23037 0.18627,-0.10513 0.0568,0.12418 0.22895,0.55562 0.25611,0.60078 0.0282,0.0452 0.19791,0.36759 0.21449,0.39864 0.0155,0.0307 0.12735,0.10019 0.14252,0.12312 0.0141,0.0226 0.0695,0.17498 0.11783,0.1845 0.0487,0.01 0.12312,0 0.1464,0.0293 0.0226,0.0293 0.12418,0.133 0.13088,0.14429 0.006,0.0109 0.0236,0.0455 0.0212,0.0663 -0.003,0.0212 0.0275,0.0289 0.0402,0.0321 0.013,0.004 0.013,0.0765 0.013,0.0765"
         id="path51514-8-5-0-0" />
      <path
         d="m 46.35427,201.60443 c 0.0243,-0.0667 0.0388,-0.11571 -0.0183,-0.12629 -0.0568,-0.0102 -0.31609,-0.0406 -0.32915,-0.0402 -0.0127,0 -0.17674,0.0247 -0.28328,-0.019 -0.10689,-0.0445 -0.0995,-0.0628 -0.15698,-0.0663 -0.0565,-0.004 -0.82056,-0.0134 -0.82056,-0.0134 l 7e-4,-0.0462 -0.0988,-0.002 0.003,-0.036 -0.15487,0.004 c 0,0 -0.0116,-0.0102 -0.0254,-0.006 -0.0131,0.003 -0.0183,0.0134 -0.0183,0.0134 l -0.004,0.0258 -0.0289,0.0452 -0.0857,0.001 -0.005,0.013 -0.73307,-0.0116 -0.0282,0.019 -0.12453,0.0109 c 0,0 -0.0261,-0.0134 -0.0282,0.007 -10e-4,0.0205 0.018,0.0166 0.018,0.0166 l 0.0152,-0.005 0.10619,-0.004 0.024,0.019 -0.003,0.0303 -0.31398,-0.005 -0.0268,-0.14887 -0.0639,-0.0138 -0.013,0.13934 -0.0116,0.0141 -0.0325,-3.6e-4 c 0,0 -0.009,0.009 -0.0138,0.0272 -0.005,0.0191 0.0155,0.0363 0.0155,0.0363 l 0.13371,3.6e-4 0.01,-0.005 0.46531,0.0166 0.0797,0.0134 c 0,0 0.40816,0.009 0.4198,0.009 0.0109,3.5e-4 0.0699,0.0243 0.0878,0.024 0.018,-7e-4 0.16969,-0.0159 0.17957,0.0187 0.0102,0.0349 -0.005,0.11113 -0.005,0.11113 l 0.0183,0.006 c 0,0 -0.0265,0.21378 -0.0667,0.32244 -0.0413,0.1083 -0.12383,0.29633 -0.12383,0.29633 l 0.16051,0.0984 c 0,0 0.11325,-0.21554 0.14888,-0.35595 0.0353,-0.1397 0.0635,-0.35313 0.0635,-0.35313 0,0 0.0437,-7.1e-4 0.0582,0.0152 0.0141,0.0166 0.0406,0.0166 0.0406,0.0166 0,0 0.0819,7e-4 0.10055,0.0416 0.0176,0.0413 0.0522,0.0727 0.11677,0.0709 0.0645,-0.002 0.0921,-0.005 0.10583,-0.018 0.0127,-0.0116 0.0367,-0.0208 0.0473,-0.0145 0.0106,0.006 0.0501,0.0388 0.0843,0.0995 0.0346,0.061 0.0533,0.0981 0.0533,0.0981 0,0 0.009,0.0251 0.0543,0.006 0.0444,-0.019 0.13406,-0.0455 0.0868,-0.11924 -0.0466,-0.0737 -0.16405,-0.22931 -0.16405,-0.22931 0,0 -0.0159,-0.0695 0.078,-0.0621 0.0952,0.008 0.22119,0.005 0.22119,0.005 0,0 0.17286,0.0519 0.30374,0.12947 0.13159,0.0773 0.38523,0.18451 0.3937,0.18733 0.008,0.002 0.11113,0.0205 0.10195,-0.0741 -0.01,-0.0945 -0.013,-0.0967 -0.0145,-0.15805 -7.1e-4,-0.0614 0,-0.0744 0,-0.0744"
         id="path51518-7-9-3-66" />
      <path
         d="m 49.72792,204.89959 c -0.006,-0.0624 -0.0847,-0.24659 -0.0928,-0.27093 -0.007,-0.0247 -0.005,-0.0434 -0.005,-0.0575 0,-0.0134 -0.13829,-0.15135 -0.15699,-0.18698 -0.0194,-0.0349 -0.0222,-0.18415 -0.0293,-0.24624 -0.009,-0.0624 -0.055,-0.11112 -0.0794,-0.13864 -0.024,-0.0272 -0.0596,-0.20038 -0.0596,-0.22789 0,-0.0272 -0.11642,-0.52564 -0.133,-0.53693 -0.0159,-0.0109 -0.049,-0.0162 -0.0868,-0.0183 -0.0381,-0.003 -0.0406,-0.0166 -0.0406,-0.0166 v -0.0519 l -0.0568,-0.0162 c 0,0 -0.0328,-0.10266 0.03,-0.19191 0.0624,-0.09 0.0998,-0.44238 0.0998,-0.44238 0,0 -0.18979,-0.0924 -0.31961,-0.14641 -0.13018,-0.0543 -0.37219,-0.10336 -0.39864,-0.1083 -0.0272,-0.006 -0.15205,-0.13829 -0.17392,-0.21978 -0.0212,-0.0811 -0.12136,-0.38806 -0.12418,-0.45544 -0.003,-0.0677 0.0974,-0.29315 0.133,-0.39052 0.0346,-0.0981 0.024,-0.0924 0.024,-0.0924 l 0.28433,-0.0325 0.24201,0.11924 0.0593,-0.054 c 0.03,-0.0272 0.0409,-0.03 0.06,-0.0811 0.019,-0.0519 0.12418,-0.0952 0.13864,-0.10866 0.0127,-0.0134 0.007,-0.049 -0.0173,-0.11147 -0.0236,-0.0621 -0.0402,-0.1651 -0.0402,-0.1651 0,0 -0.0621,-0.0191 -0.0787,-0.0381 -0.0159,-0.019 -0.0159,-0.0409 -0.0762,-0.0974 -0.0593,-0.0571 0.0325,-0.13335 0.0628,-0.17428 0.03,-0.0402 0.0512,-0.15169 0.084,-0.20531 0.0318,-0.0547 0.15135,-0.10302 0.37959,-0.0815 0.2279,0.0212 0.26529,0.11923 0.27658,0.17885 0.0106,0.0596 0.0596,0.32774 0.0952,0.39088 0.0349,0.0617 0.005,0.0536 -0.0272,0.0536 -0.0328,0 -0.0952,-0.0106 -0.0952,-0.0106 0,0 -0.008,0.005 -0.0272,0.0353 -0.0187,0.0296 -0.008,0.0515 0.006,0.0593 0.0138,0.009 0.0459,-0.008 0.11112,-0.0265 0.0649,-0.0194 0.127,0.0455 0.15699,0.0646 0.03,0.019 0.084,0.0113 0.10583,0.0141 0.0219,0.002 0.12665,0.0974 0.133,0.12982 0.006,0.0321 0.0487,0.0515 0.0649,0.0734 0.0162,0.0212 0.0483,0.0321 0.084,0.0617 0.0353,0.0303 0.0272,0.11395 0.0628,0.13053 0.0349,0.0162 0.18169,0.26282 0.23072,0.29034 0.0483,0.0272 0.0483,0.084 0.0646,0.14605 0.0166,0.0624 0.0896,0.11924 0.11395,0.1711 0.0243,0.0512 0.0134,0.1464 -0.0159,0.21978 -0.03,0.073 -0.16616,0.127 -0.21166,0.13793 -0.0466,0.0106 -0.1577,0.0624 -0.1577,0.0624 l 0.0628,0.0568 -0.0328,0.0681 c 0,0 0.10301,-0.0272 0.13758,-0.03 0.0356,-0.002 0.0494,0.0568 0.0632,0.10619 0.0134,0.0483 0.0272,0.23812 0.0572,0.38735 0.0293,0.14887 -0.1083,0.23318 -0.1083,0.23318 0,0 -0.003,0.0296 0,0.0409 0.002,0.0106 -0.03,0.0649 -0.0522,0.0864 -0.0215,0.0219 -0.0628,-0.006 -0.0628,-0.006 0,0 0.0113,0.036 -0.0155,0.06 -0.0275,0.024 -0.12206,0.0353 -0.12206,0.0353 0,0 -0.008,0.0325 -0.008,0.0437 0,0.0106 -0.0646,0.10831 -0.0702,0.12736 -0.005,0.0187 0.0321,0.10512 -0.008,0.20602 -0.0409,0.0998 -0.10866,0.17886 -0.11889,0.19191 -0.0113,0.0141 -0.0328,0.10619 -0.0328,0.10619 0,0 0.0515,0.0868 0.0293,0.127 -0.0215,0.0413 -0.0155,0.0981 -0.0155,0.0981 0,0 0.11889,0.10548 0.18168,0.21695 0.0621,0.11113 0.12488,0.0893 0.18062,0.11677 0.0579,0.0268 0.03,0.0759 0.03,0.0759 0,0 0.0656,0.0325 0.11677,0.0621 0.0522,0.0296 0.0628,0.10866 0.0628,0.10866 0,0 0.0215,0.0378 0.0402,0.0734 0.0194,0.0349 -0.0759,0.16263 -0.0759,0.16263 h -0.048 c 0,0 -0.006,0.0677 -0.004,0.0917 0.004,0.0247 -0.0624,0.18697 -0.11113,0.24448 -0.0487,0.0568 -0.13794,0.0593 -0.24412,0.0568 -0.10548,-0.003 -0.0416,0 -0.10019,0.1083 -0.0536,0.10019 -0.15769,0.18697 -0.35242,0.18697 -0.19544,0 -0.043,-0.17604 0.0459,-0.30374 0.0896,-0.127 0.0194,-0.17321 0.0138,-0.2734 0,0 -0.0325,-0.14111 -0.0374,-0.20356 m -0.81139,-2.74955 c -0.005,-0.0381 0.0109,-0.084 0.0381,-0.0868 0.0272,-0.002 0.0494,0.008 0.0536,-0.0106 0.006,-0.019 -0.0318,-0.13264 -0.0318,-0.13264 0,0 -0.14675,0.16475 -0.17603,0.18697 -0.03,0.0215 -0.15522,0.0836 -0.17957,0.0836 -0.0236,0 -0.12982,-0.024 -0.15169,-0.0758 -0.0208,-0.0515 -0.0243,-0.0762 -0.0462,-0.12453 -0.0212,-0.0487 -0.0293,-0.0787 -0.0155,-0.10865 0.0127,-0.03 0.0106,-0.0624 0.008,-0.0783 -0.002,-0.0166 0,-0.0758 0.0159,-0.0952 0.0173,-0.019 -0.006,-0.0243 -0.008,-0.0568 -0.003,-0.0325 -0.0349,-0.0515 0.0109,-0.10266 0.0466,-0.0519 0.079,-0.13088 0.079,-0.13088 l -0.0324,-0.0378 c 0,0 -0.03,-0.0187 -0.0494,-0.0353 -0.0183,-0.0159 -0.0459,-0.0434 -0.0487,-0.073 -0.002,-0.03 -0.002,-0.0977 -0.002,-0.0977 l -0.049,-0.0219 c 0,0 -0.0568,0.15204 -0.0674,0.18168 -0.0113,0.0303 -0.0572,0.0815 -0.0596,0.14111 -0.004,0.06 -0.0356,0.17074 0.03,0.35807 0.0649,0.18732 0.0621,0.26564 0.10759,0.30409 0.0466,0.0374 0.12771,0.073 0.19262,0.0864 0.0656,0.0134 0.26353,0.0512 0.33373,0.0977 0.0702,0.0455 0.084,0.0406 0.084,0.0406 -0.0183,-0.0624 -0.0293,-0.17392 -0.0353,-0.21167 m 1.16346,2.7873 c -0.002,0.0381 0.0219,0.19862 0.024,0.21167 0.004,0.0138 0.0656,-0.0734 0.0765,-0.0998 0.0106,-0.0272 0.03,-0.0684 0.0353,-0.0928 0.005,-0.024 0,-0.0677 0.005,-0.084 0.006,-0.0162 -0.15699,-0.15452 -0.15699,-0.15452 0.008,0.0564 0.019,0.18168 0.0162,0.21943"
         id="path51522-6-5-1-7" />
      <path
         d="m 49.92311,202.21869 c 0.0564,-0.0423 0.0952,-0.0755 0.0533,-0.11536 -0.0416,-0.0395 -0.24306,-0.20602 -0.254,-0.21308 -0.0106,-0.007 -0.16157,-0.0755 -0.22719,-0.17039 -0.0656,-0.0953 -0.0497,-0.10654 -0.0949,-0.14146 -0.0466,-0.0342 -0.68086,-0.4572 -0.68086,-0.4572 l 0.0243,-0.0384 -0.0811,-0.0561 0.0215,-0.0289 -0.13229,-0.0815 c 0,0 -0.004,-0.0145 -0.0169,-0.0183 -0.013,-0.004 -0.0233,0.001 -0.0233,0.001 l -0.0169,0.019 -0.0494,0.0229 -0.0727,-0.0459 -0.0106,0.008 -0.60854,-0.40923 -0.0335,10e-4 -0.11112,-0.0596 c 0,0 -0.0145,-0.025 -0.0268,-0.009 -0.012,0.0162 0.005,0.0233 0.005,0.0233 l 0.0159,0.004 0.0921,0.0543 0.01,0.0286 -0.019,0.025 -0.26035,-0.17533 0.0579,-0.14005 -0.0459,-0.0459 -0.0864,0.11007 -0.0173,0.005 -0.0272,-0.0183 c 0,0 -0.0123,0.003 -0.0268,0.0162 -0.0141,0.0127 -0.006,0.0385 -0.006,0.0385 l 0.11254,0.0734 0.01,3.5e-4 0.38136,0.26811 0.06,0.0543 c 0,0 0.33796,0.23001 0.34678,0.23601 0.009,0.007 0.0452,0.0589 0.0607,0.0684 0.0159,0.009 0.15099,0.079 0.14111,0.11324 -0.0106,0.0349 -0.066,0.0903 -0.066,0.0903 l 0.013,0.0155 c 0,0 -0.13829,0.16475 -0.23213,0.23319 -0.0931,0.0688 -0.26493,0.18133 -0.26493,0.18133 l 0.0808,0.17004 c 0,0 0.21308,-0.11924 0.31892,-0.21732 0.10583,-0.0977 0.24553,-0.2614 0.24553,-0.2614 0,0 0.0363,0.0226 0.0402,0.0448 0.004,0.0212 0.0254,0.036 0.0254,0.036 0,0 0.0681,0.0448 0.0614,0.0889 -0.007,0.0441 0.005,0.0896 0.06,0.12312 0.0543,0.0339 0.0801,0.0462 0.0981,0.043 0.0173,-0.004 0.0427,0.003 0.0473,0.0134 0.006,0.0109 0.0212,0.0596 0.0173,0.12946 -0.004,0.0695 -0.01,0.11078 -0.01,0.11078 0,0 -0.006,0.0261 0.043,0.0353 0.0476,0.008 0.13687,0.0346 0.13758,-0.0529 7e-4,-0.0871 -0.013,-0.28117 -0.013,-0.28117 0,0 0.025,-0.0677 0.0998,-0.01 0.0751,0.0582 0.18239,0.12383 0.18239,0.12383 0,0 0.11642,0.13793 0.18485,0.27446 0.0677,0.13652 0.2219,0.36406 0.22755,0.37112 0.006,0.007 0.0822,0.0783 0.12523,-0.006 0.0444,-0.0847 0.043,-0.0878 0.0751,-0.14005 0.0321,-0.0522 0.0402,-0.0631 0.0402,-0.0631"
         id="path51526-9-3-6-3" />
      <path
         d="m 42.52952,204.64361 c -0.0614,-0.0416 -0.0307,-0.16757 -0.0279,-0.21554 0.003,-0.048 -0.0765,-0.037 -0.11818,-0.0342 -0.0423,0.004 -0.10654,0.0169 -0.15169,-0.0166 -0.0448,-0.0332 -0.25436,-0.0279 -0.25436,-0.0279 0,0 -0.004,0.048 -0.0226,0.0586 -0.0198,0.0113 -0.0342,0.0229 -0.0198,0.0589 0.0138,0.037 -0.0113,0.0928 -0.0226,0.11818 -0.0116,0.025 -0.0162,0.0335 -0.008,0.0586 0.008,0.025 -0.0561,0.073 -0.10936,0.0868 -0.054,0.0141 -0.0226,0.21096 -0.009,0.28046 0.0145,0.0702 -0.0614,0.17109 -0.0614,0.17109 0,0 0.019,0.0617 0.0279,0.0811 0.008,0.0201 0.006,0.18521 0.0198,0.2413 0.0138,0.0557 -0.0141,0.0593 -0.0141,0.0593 0,0 -0.0145,0.0639 -0.0388,0.0723 -0.0254,0.009 -0.21378,-0.008 -0.21378,-0.008 l -0.003,-0.0501 c 0,0 -0.1397,0.0307 -0.26071,0.0586 -0.12065,0.0279 -0.37535,-0.006 -0.44273,-0.0162 -0.0677,-0.0116 -0.0868,-0.0282 -0.0868,-0.0282 l 0.0191,-0.0198 c 0,0 -0.036,-0.084 -0.008,-0.10901 0.0279,-0.025 0.28046,-0.0423 0.33937,-0.0452 0.0586,-0.003 0.0808,-0.0395 0.10901,-0.0529 0.0286,-0.0145 0.19897,-0.1852 0.19897,-0.1852 0,0 -0.0187,-0.0342 -0.0303,-0.0505 -0.012,-0.0173 -0.006,-0.0423 0.008,-0.0677 0.0145,-0.0254 -0.003,-0.11466 -0.008,-0.12912 -0.006,-0.0134 -0.006,-0.0614 0.002,-0.11183 0.009,-0.0505 0,-0.17392 0,-0.17392 0,0 -0.0279,-0.0508 -0.0586,-0.084 -0.031,-0.0335 -0.0254,-0.10654 -0.002,-0.14323 0.0215,-0.0363 -0.012,-0.14287 -0.012,-0.18168 0,-0.0395 0.0565,-0.19685 0.0586,-0.2219 0.004,-0.0251 0.004,-0.13441 0.0452,-0.2607 0.0423,-0.12629 0.2219,-0.12876 0.3115,-0.14887 0.09,-0.0194 0.0222,-0.0557 -0.0307,-0.11465 -0.0533,-0.0593 -0.14887,-0.20779 -0.16545,-0.2413 -0.0166,-0.0335 0.008,-0.0977 -0.0646,-0.14041 -0.0723,-0.042 -0.067,-0.0924 -0.0561,-0.1203 0.0109,-0.0282 0.0811,-0.10654 0.0533,-0.1718 -0.0279,-0.0639 -0.0642,-0.11113 -0.0642,-0.11113 0,0 -0.13793,-0.0737 -0.17427,-0.11253 -0.0258,-0.0279 -0.0787,-0.19227 -0.13829,-0.21484 -0.0765,0.0296 0.8315,0.0497 0.90735,-0.0233 0.0346,-0.0328 0.0864,-0.009 0.0864,-0.009 0,0 0.0162,0.009 0.0423,0.0116 0.0243,0.003 0.10089,0.0529 0.10089,0.0529 0,0 -0.0113,-0.0808 -0.0226,-0.12312 -0.0117,-0.0416 0.002,-0.0646 0.002,-0.0646 l -0.0416,-0.073 c 0,0 -0.0423,-0.0106 -0.0614,-0.0194 -0.0198,-0.008 -0.0169,-0.0335 -0.0169,-0.0335 0,0 0.09,-0.17145 0.12912,-0.24377 0.0388,-0.073 0.10371,-0.23001 0.42827,-0.19368 0.32561,0.036 0.32279,0.34149 0.33655,0.4124 0.0145,0.0702 0.0145,0.12312 0.025,0.10619 0.0117,-0.0173 0.0564,-0.031 0.0931,-0.0254 0.0363,0.006 0.21554,0.17427 0.26352,0.20496 0.0476,0.0307 0.0194,0.0702 0.0279,0.0811 0.008,0.0116 0.121,0.12347 0.14605,0.18521 0.025,0.0617 0.005,0.34431 -0.004,0.42016 -0.008,0.0759 -0.0896,0.19367 -0.0945,0.23001 -0.006,0.037 0.036,0.13793 0.036,0.13793 0,0 0.14253,0.005 0.21908,0.0303 0.0759,0.0257 0.0226,0.19333 0.0226,0.19333 0,0 -0.0226,0.11818 -0.0286,0.16827 -0.006,0.0508 0.0286,0.043 0.0145,0.26388 -0.0145,0.22119 -0.1852,0.25259 -0.1852,0.25259 0,0 0,0.0642 0.005,0.11747 0.006,0.0529 -0.008,0.24977 -0.008,0.24977 l -0.0787,0.0106 -0.0702,0.25576 0.34784,-0.0868 c 0,0 0.14535,-0.0173 0.20426,-0.037 0.0593,-0.019 0.0952,0.0198 0.0952,0.0198 0,0 0.0642,0.003 0.084,0.0226 0.0198,0.0198 0.0342,0.21308 0.0342,0.21308 0,0 -0.0395,0.0145 -0.0145,0.0674 0.0254,0.0533 -0.008,0.26353 -0.0423,0.32491 -0.0335,0.0614 -0.0783,0.0614 -0.24342,0.0705 -0.16581,0.008 -0.0787,-0.19932 -0.0759,-0.21061 0.003,-0.0113 0.0505,-0.073 0.0335,-0.11183 -0.0162,-0.0395 -0.0392,-0.0169 -0.0642,-0.009 -0.0257,0.009 -0.0674,0.0533 -0.10372,0.10372 -0.036,0.0504 -0.0702,0.0399 -0.0702,0.0399 0,0 -0.21308,0.13158 -0.32879,0.1785 -0.1143,0.0483 -0.31573,0.0765 -0.40605,0 -0.0896,-0.0748 -0.16827,-0.72001 -0.17392,-0.8516 0,0 -0.005,-0.003 -0.0667,-0.0452 m -0.62512,-1.80869 c 0.0194,-0.0222 0.036,-0.10619 0.036,-0.10619 0,0 -0.0166,-0.0617 -0.0476,-0.0564 -0.0307,0.006 -0.15699,0.008 -0.17322,-0.0332 -0.0173,-0.0423 -0.0254,-0.09 -0.0254,-0.09 l -0.19932,-0.031 c 0,0 0.0614,0.0624 0.0614,0.0868 0,0.0258 0,0.0395 0.0254,0.0674 0.0258,0.0286 0.0758,0.048 0.09,0.0843 0.0138,0.0367 0.0416,0.13476 0.0416,0.13476 l 0.12101,0.0674 c 0.0279,-0.0536 0.0501,-0.10125 0.0702,-0.12382"
         id="path51530-5-4-0-7" />
      <path
         d="m 43.07344,202.58311 c 0.0279,-0.0653 0.0444,-0.11324 -0.0116,-0.127 -0.0557,-0.0127 -0.31327,-0.0564 -0.32632,-0.0572 -0.013,-7.1e-4 -0.17815,0.0152 -0.28222,-0.0342 -0.10372,-0.0501 -0.096,-0.0674 -0.15311,-0.0744 -0.0568,-0.007 -0.81844,-0.0561 -0.81844,-0.0561 l 0.003,-0.0455 -0.0988,-0.008 0.005,-0.0356 -0.15522,-0.004 c 0,0 -0.0109,-0.0109 -0.0247,-0.008 -0.0134,0.004 -0.019,0.0131 -0.019,0.0131 l -0.005,0.025 -0.0307,0.0437 -0.0868,-0.002 -0.005,0.0123 -0.73166,-0.0501 -0.0286,0.0173 -0.12559,0.005 c 0,0 -0.0243,-0.0148 -0.0279,0.005 -0.003,0.0208 0.0166,0.0173 0.0166,0.0173 l 0.0148,-0.004 0.10689,0.001 0.0229,0.0198 -0.004,0.031 -0.31362,-0.0215 -0.0194,-0.15028 -0.0632,-0.0166 -0.0201,0.13828 -0.012,0.013 -0.0325,-0.002 c 0,0 -0.01,0.009 -0.0155,0.0268 -0.005,0.018 0.0148,0.0374 0.0148,0.0374 l 0.13335,0.007 0.008,-0.004 0.46496,0.0402 0.0794,0.0176 c 0,0 0.40675,0.03 0.41734,0.0314 0.0116,7.1e-4 0.0691,0.0275 0.0875,0.0282 0.0187,7.1e-4 0.1704,-0.007 0.17886,0.0279 0.007,0.0353 -0.0123,0.11113 -0.0123,0.11113 l 0.0183,0.007 c 0,0 -0.0374,0.21202 -0.084,0.31785 -0.0462,0.10654 -0.13864,0.28928 -0.13864,0.28928 l 0.15522,0.10724 c 0,0 0.12488,-0.21025 0.16686,-0.34783 0.043,-0.13759 0.0822,-0.34925 0.0822,-0.34925 0,0 0.0437,10e-4 0.0575,0.0187 0.0134,0.0162 0.0395,0.0183 0.0395,0.0183 0,0 0.0815,0.005 0.0981,0.0466 0.0155,0.0416 0.0494,0.0751 0.11359,0.0762 0.0646,0.002 0.0917,0 0.10619,-0.0116 0.0138,-0.0116 0.0384,-0.0187 0.0487,-0.012 0.009,0.007 0.0476,0.0413 0.079,0.10371 0.0314,0.0621 0.0469,0.1009 0.0469,0.1009 0,0 0.009,0.0251 0.0547,0.009 0.0455,-0.0162 0.13653,-0.0381 0.0928,-0.11466 -0.0423,-0.0755 -0.15169,-0.23742 -0.15169,-0.23742 0,0 -0.0127,-0.0706 0.0815,-0.0579 0.0942,0.0127 0.21978,0.0155 0.21978,0.0155 0,0 0.17004,0.0614 0.29669,0.14605 0.12735,0.084 0.375,0.20426 0.38311,0.20673 0.009,0.004 0.11007,0.0272 0.10584,-0.0681 -0.004,-0.0949 -0.008,-0.097 -0.006,-0.1584 0.002,-0.0614 0.004,-0.0744 0.004,-0.0744"
         id="path51534-5-2-9-7" />
      <path
         d="m 24.27298,204.62385 c -0.0614,-0.0416 -0.0307,-0.16757 -0.0279,-0.21554 0.003,-0.048 -0.0765,-0.037 -0.11818,-0.0342 -0.0423,0.004 -0.10654,0.0169 -0.15169,-0.0166 -0.0448,-0.0332 -0.25436,-0.0279 -0.25436,-0.0279 0,0 -0.004,0.048 -0.0226,0.0586 -0.0198,0.0113 -0.0342,0.0229 -0.0198,0.0589 0.0138,0.037 -0.0113,0.0928 -0.0226,0.11818 -0.0116,0.025 -0.0162,0.0335 -0.008,0.0586 0.008,0.025 -0.0561,0.073 -0.10936,0.0868 -0.054,0.0141 -0.0226,0.21096 -0.009,0.28046 0.0145,0.0702 -0.0614,0.17109 -0.0614,0.17109 0,0 0.019,0.0617 0.0279,0.0811 0.008,0.0201 0.006,0.18521 0.0198,0.2413 0.0138,0.0557 -0.0141,0.0593 -0.0141,0.0593 0,0 -0.0145,0.0639 -0.0388,0.0723 -0.0254,0.009 -0.21378,-0.008 -0.21378,-0.008 l -0.003,-0.0501 c 0,0 -0.1397,0.0307 -0.26071,0.0586 -0.12065,0.0279 -0.37535,-0.006 -0.44273,-0.0162 -0.0677,-0.0116 -0.0868,-0.0282 -0.0868,-0.0282 l 0.0191,-0.0198 c 0,0 -0.036,-0.084 -0.008,-0.109 0.0279,-0.0251 0.28046,-0.0423 0.33937,-0.0452 0.0586,-0.003 0.0808,-0.0395 0.10901,-0.0529 0.0286,-0.0145 0.19897,-0.1852 0.19897,-0.1852 0,0 -0.0187,-0.0342 -0.0303,-0.0505 -0.012,-0.0173 -0.006,-0.0423 0.008,-0.0677 0.0145,-0.0254 -0.003,-0.11466 -0.008,-0.12912 -0.006,-0.0134 -0.006,-0.0614 0.002,-0.11183 0.009,-0.0504 0,-0.17392 0,-0.17392 0,0 -0.0279,-0.0508 -0.0586,-0.084 -0.031,-0.0335 -0.0254,-0.10654 -0.002,-0.14323 0.0215,-0.0363 -0.012,-0.14287 -0.012,-0.18168 0,-0.0395 0.0565,-0.19685 0.0586,-0.2219 0.004,-0.025 0.004,-0.13441 0.0452,-0.2607 0.0423,-0.12629 0.2219,-0.12876 0.3115,-0.14887 0.09,-0.0194 0.0222,-0.0557 -0.0307,-0.11465 -0.0533,-0.0593 -0.14887,-0.20779 -0.16545,-0.2413 -0.0166,-0.0335 0.008,-0.0977 -0.0646,-0.14041 -0.0723,-0.042 -0.067,-0.0924 -0.0561,-0.1203 0.0109,-0.0282 0.0811,-0.10654 0.0533,-0.1718 -0.0279,-0.0639 -0.0642,-0.11112 -0.0642,-0.11112 0,0 -0.13793,-0.0737 -0.17427,-0.11254 -0.0258,-0.0279 -0.0787,-0.19226 -0.13829,-0.21484 -0.0765,0.0296 0.8315,0.0497 0.90735,-0.0233 0.0346,-0.0328 0.0864,-0.009 0.0864,-0.009 0,0 0.0162,0.009 0.0423,0.0116 0.0243,0.003 0.10089,0.0529 0.10089,0.0529 0,0 -0.0113,-0.0808 -0.0226,-0.12312 -0.0117,-0.0416 0.002,-0.0646 0.002,-0.0646 l -0.0416,-0.073 c 0,0 -0.0423,-0.0106 -0.0614,-0.0194 -0.0198,-0.009 -0.0169,-0.0335 -0.0169,-0.0335 0,0 0.09,-0.17145 0.12912,-0.24377 0.0388,-0.073 0.10371,-0.23001 0.42827,-0.19368 0.32561,0.036 0.32279,0.34149 0.33655,0.4124 0.0145,0.0702 0.0145,0.12312 0.025,0.10619 0.0117,-0.0173 0.0564,-0.031 0.0931,-0.0254 0.0363,0.006 0.21554,0.17427 0.26352,0.20496 0.0476,0.0307 0.0194,0.0702 0.0279,0.0811 0.008,0.0116 0.121,0.12347 0.14605,0.18521 0.025,0.0617 0.005,0.34431 -0.004,0.42016 -0.008,0.0759 -0.0896,0.19367 -0.0945,0.23001 -0.006,0.037 0.036,0.13793 0.036,0.13793 0,0 0.14253,0.005 0.21908,0.0303 0.0759,0.0258 0.0226,0.19333 0.0226,0.19333 0,0 -0.0226,0.11818 -0.0286,0.16827 -0.006,0.0508 0.0286,0.043 0.0145,0.26388 -0.0145,0.22119 -0.1852,0.25259 -0.1852,0.25259 0,0 0,0.0642 0.005,0.11747 0.006,0.0529 -0.008,0.24977 -0.008,0.24977 l -0.0787,0.0106 -0.0702,0.25576 0.34784,-0.0868 c 0,0 0.14535,-0.0173 0.20426,-0.037 0.0593,-0.019 0.0952,0.0197 0.0952,0.0197 0,0 0.0642,0.003 0.084,0.0226 0.0198,0.0198 0.0342,0.21308 0.0342,0.21308 0,0 -0.0395,0.0145 -0.0145,0.0674 0.0254,0.0533 -0.008,0.26353 -0.0423,0.32491 -0.0335,0.0614 -0.0783,0.0614 -0.24342,0.0705 -0.16581,0.008 -0.0787,-0.19932 -0.0759,-0.21061 0.003,-0.0113 0.0505,-0.073 0.0335,-0.11183 -0.0162,-0.0395 -0.0392,-0.0169 -0.0642,-0.009 -0.0257,0.009 -0.0674,0.0533 -0.10372,0.10372 -0.036,0.0504 -0.0702,0.0399 -0.0702,0.0399 0,0 -0.21308,0.13159 -0.32879,0.1785 -0.1143,0.0483 -0.31573,0.0765 -0.40605,0 -0.0896,-0.0748 -0.16827,-0.72002 -0.17392,-0.8516 0,0 -0.005,-0.003 -0.0667,-0.0452 m -0.62512,-1.80869 c 0.0194,-0.0222 0.036,-0.10619 0.036,-0.10619 0,0 -0.0166,-0.0617 -0.0476,-0.0564 -0.0307,0.006 -0.15699,0.008 -0.17322,-0.0332 -0.0173,-0.0423 -0.0254,-0.09 -0.0254,-0.09 l -0.19932,-0.031 c 0,0 0.0614,0.0624 0.0614,0.0868 0,0.0258 0,0.0395 0.0254,0.0674 0.0258,0.0286 0.0758,0.048 0.09,0.0843 0.0138,0.0367 0.0416,0.13476 0.0416,0.13476 l 0.12101,0.0674 c 0.0279,-0.0536 0.0501,-0.10125 0.0702,-0.12382"
         id="path51530-5-4-0-97-8" />
      <path
         d="m 24.8169,202.56335 c 0.0279,-0.0653 0.0444,-0.11324 -0.0116,-0.127 -0.0557,-0.0127 -0.31327,-0.0564 -0.32632,-0.0572 -0.013,-7.1e-4 -0.17815,0.0152 -0.28222,-0.0342 -0.10372,-0.0501 -0.096,-0.0674 -0.15311,-0.0744 -0.0568,-0.007 -0.81844,-0.0561 -0.81844,-0.0561 l 0.003,-0.0455 -0.0988,-0.008 0.005,-0.0356 -0.15522,-0.004 c 0,0 -0.0109,-0.0109 -0.0247,-0.008 -0.0134,0.004 -0.019,0.013 -0.019,0.013 l -0.005,0.0251 -0.0307,0.0437 -0.0868,-0.002 -0.005,0.0123 -0.73166,-0.0501 -0.0286,0.0173 -0.12559,0.005 c 0,0 -0.0243,-0.0148 -0.0279,0.005 -0.003,0.0208 0.0166,0.0173 0.0166,0.0173 l 0.0148,-0.004 0.10689,10e-4 0.0229,0.0198 -0.004,0.031 -0.31362,-0.0215 -0.0194,-0.15028 -0.0632,-0.0166 -0.0201,0.13828 -0.012,0.0131 -0.0325,-0.002 c 0,0 -0.01,0.009 -0.0155,0.0268 -0.005,0.018 0.0148,0.0374 0.0148,0.0374 l 0.13335,0.007 0.008,-0.004 0.46496,0.0402 0.0794,0.0176 c 0,0 0.40675,0.03 0.41734,0.0314 0.0116,7.1e-4 0.0691,0.0275 0.0875,0.0282 0.0187,7.1e-4 0.1704,-0.007 0.17886,0.0279 0.007,0.0353 -0.0123,0.11113 -0.0123,0.11113 l 0.0183,0.007 c 0,0 -0.0374,0.21202 -0.084,0.31785 -0.0462,0.10654 -0.13864,0.28928 -0.13864,0.28928 l 0.15522,0.10724 c 0,0 0.12488,-0.21025 0.16686,-0.34784 0.043,-0.13758 0.0822,-0.34924 0.0822,-0.34924 0,0 0.0437,0.001 0.0575,0.0187 0.0134,0.0162 0.0395,0.0183 0.0395,0.0183 0,0 0.0815,0.005 0.0981,0.0466 0.0155,0.0416 0.0494,0.0751 0.11359,0.0762 0.0646,0.002 0.0917,0 0.10619,-0.0116 0.0138,-0.0116 0.0384,-0.0187 0.0487,-0.012 0.009,0.007 0.0476,0.0413 0.079,0.10371 0.0314,0.0621 0.0469,0.1009 0.0469,0.1009 0,0 0.009,0.025 0.0547,0.009 0.0455,-0.0162 0.13653,-0.0381 0.0928,-0.11466 -0.0423,-0.0755 -0.15169,-0.23742 -0.15169,-0.23742 0,0 -0.0127,-0.0706 0.0815,-0.0579 0.0942,0.0127 0.21978,0.0155 0.21978,0.0155 0,0 0.17004,0.0614 0.29669,0.14605 0.12735,0.084 0.375,0.20426 0.38311,0.20673 0.009,0.004 0.11007,0.0272 0.10584,-0.0681 -0.004,-0.0949 -0.008,-0.097 -0.006,-0.1584 0.002,-0.0614 0.004,-0.0744 0.004,-0.0744"
         id="path51534-5-2-9-3-8" />
      <path
         d="m 51.82868,202.71417 c 0,0 0.005,0.0314 0.0229,0.048 0.0194,0.0155 0.0639,0.0155 0.0639,0.0155 0,0 0.0349,0.0102 0.0469,0.0159 0.0138,0.005 0.0346,-0.008 0.048,-0.008 0.0138,0 0.031,0.018 0.0476,0.0208 0.0155,0.002 0.0314,-0.0152 0.0452,-0.0152 0.012,0 0.012,0.005 0.0335,0.0102 0.0208,0.005 0.0557,-0.0296 0.0557,-0.0296 l 0.18415,-0.0314 0.0766,0.0314 -0.084,0.51082 -0.008,0.0564 0.0441,0.0159 c 0,0 0.003,0.4318 0.0138,0.51929 0.0106,0.0864 0.0134,0.29492 0.0843,0.38206 0.0709,0.0868 0.18486,0.21837 0.20038,0.2607 0.0159,0.0423 0.079,0.10054 0.12347,0.10795 0.0452,0.008 0.17145,0.0109 0.22401,0.0956 0.0533,0.0836 0.15311,0.11818 0.15311,0.11818 0,0 0.0688,0.079 0.0797,0.0995 0.01,0.0219 0.12065,0.0928 0.11783,0.11959 -0.002,0.0258 0.0325,0.2607 0.006,0.31044 -0.0268,0.0505 -0.0921,0.12983 -0.0818,0.18698 0.0106,0.0582 0.0469,0.0635 0.0469,0.0635 l 0.0166,0.0289 c 0,0 0.11888,0.0423 0.20037,-0.0445 0.0811,-0.0875 0.11042,-0.17392 0.13194,-0.21379 0.0205,-0.0395 0.0497,-0.15839 0.0497,-0.15839 l 0.0261,0.0183 c 0,0 0.0924,-0.13653 0.0265,-0.21097 -0.0656,-0.0737 -0.0949,-0.0966 -0.0949,-0.0966 0,0 -0.013,0.0155 -0.0448,-0.0194 -0.0314,-0.0332 -0.11536,-0.12313 -0.11536,-0.12313 0,0 -0.085,-0.1217 -0.10583,-0.13476 -0.0215,-0.0127 -0.0582,-0.0864 -0.0794,-0.0974 -0.0208,-0.0106 -0.0921,-0.0952 -0.0921,-0.12664 0,-0.031 0.0183,-0.11042 -0.0183,-0.14253 -0.037,-0.0314 -0.0554,-0.0967 -0.0896,-0.11888 -0.0349,-0.0208 -0.0504,-0.0917 -0.055,-0.13617 -0.006,-0.0452 -0.0508,-0.0896 -0.0663,-0.10301 -0.0159,-0.0131 -0.0212,-0.0314 0.0102,-0.12383 0.0321,-0.0924 0.0505,-0.21131 0.0949,-0.27411 0.0452,-0.0632 0.0579,-0.0716 0.0579,-0.0716 0,0 0.19544,0.31926 0.21626,0.3616 0.0215,0.0423 0.15839,0.2734 0.1845,0.31326 0.0268,0.0395 0.0691,0.0469 0.0928,0.1771 0.0233,0.12876 0.13935,0.15522 0.16581,0.19755 0.0268,0.0416 0.0765,0.11889 0.12629,0.15276 0.0501,0.0342 0.0949,0.0684 0.0949,0.0684 0.0663,0.10301 0.17674,0.21907 0.21943,0.26881 0.0413,0.0501 0.0917,0.13723 0.0917,0.13723 l 0.024,0.0159 c 0,0 0.013,0.13159 -0.003,0.16616 -0.0155,0.0335 -0.0476,0.0705 -0.0579,0.12665 -0.0106,0.0543 0,0.0653 0,0.0653 l -0.0106,0.0293 c 0,0 0.13476,0.0392 0.20037,0.0268 0.0653,-0.0138 0.1584,-0.0875 0.1584,-0.0875 l 0.078,-0.0818 c 0,0 -0.0229,-0.0635 -0.0229,-0.084 0,-0.0212 0,-0.0765 -0.0183,-0.0977 -0.0183,-0.0208 -0.079,-0.12947 -0.079,-0.12947 0,0 0.0127,-0.0818 -0.0395,-0.12629 -0.0529,-0.0452 -0.0794,-0.16334 -0.0843,-0.19721 -0.005,-0.0349 -0.0162,-0.14816 -0.0529,-0.17215 -0.037,-0.0229 -0.0554,-0.0526 -0.0526,-0.12065 0.002,-0.0691 -0.008,-0.10584 -0.0399,-0.13229 -0.0314,-0.0257 -0.0395,-0.0995 -0.0505,-0.16052 -0.0102,-0.0607 -0.005,-0.10583 -0.073,-0.14746 -0.0692,-0.0423 -0.10302,-0.12947 -0.11395,-0.2219 -0.0102,-0.0914 -0.0921,-0.30515 -0.11854,-0.34995 -0.0265,-0.0452 -0.0445,-0.21378 -0.0445,-0.21378 0,0 0.0476,0.0102 0.0607,-0.0155 0.0131,-0.0265 0.005,-0.0744 0.005,-0.0744 0,0 0.0416,-0.036 0.0416,-0.0811 0,-0.0445 -0.0159,-0.1023 -0.0159,-0.1023 0,0 0.11359,-0.0452 0.0794,-0.18239 -0.0342,-0.13723 -0.11324,-0.25294 -0.11888,-0.29809 -0.005,-0.0444 -0.0441,-0.21308 -0.11501,-0.20038 -0.072,0.0134 -0.15099,0.042 -0.15099,0.042 0,0 0.13159,-0.1651 0.17392,-0.21837 0.0427,-0.0529 0.0427,-0.055 0.0892,-0.1845 0.048,-0.12983 0.0582,-0.18204 0.0243,-0.22366 -0.0342,-0.0427 -0.0635,-0.0977 -0.0794,-0.14464 -0.0159,-0.048 -0.13441,-0.20885 -0.15557,-0.24342 -0.0205,-0.0339 -0.1577,-0.18944 -0.16863,-0.21061 -0.0102,-0.0212 -0.0102,-0.0656 -0.0628,-0.11077 -0.0533,-0.0452 -0.15557,-0.13229 -0.20073,-0.1397 -0.0448,-0.008 -0.0868,-0.0159 -0.10019,-0.0212 -0.013,-0.005 0.024,-0.0783 -0.0388,-0.10795 -0.0646,-0.0293 -0.13794,-0.037 -0.17498,-0.0818 -0.0367,-0.0444 -0.1337,-0.0607 -0.1524,-0.0607 h -0.0392 c 0,0 0.007,-0.0526 -0.005,-0.0864 -0.0138,-0.0342 -0.0529,-0.061 -0.0529,-0.061 0,0 -0.0847,-0.36125 -0.30585,-0.3556 -0.2219,0.006 -0.35349,-0.0187 -0.46391,0.16334 -0.11042,0.18203 -0.11606,0.36089 -0.11606,0.36089 0,0 0.0452,0.0155 0.0635,0.0236 0.0183,0.008 0.0317,-0.008 0.0395,0.024 0.008,0.0317 0.0473,0.0526 0.0473,0.0526 0,0 0.0339,0.0822 0.0452,0.10301 0.0109,0.0208 0.031,0.0875 0.0469,0.12629 0.0162,0.0399 0.037,0.0892 0.0579,0.0977 0.0212,0.008 0.0427,0.008 0.0427,0.008 0,0 -0.1136,0.13723 -0.12383,0.1711 -0.0109,0.0335 -0.0452,0.25012 -0.0579,0.28716 -0.0138,0.0374 -0.0639,0.10548 -0.0554,0.14817 0.007,0.0413 0.002,0.1203 -0.006,0.1711 -0.008,0.0497 -0.042,0.14463 -0.0469,0.17109 -0.005,0.0261 0.0176,0.0416 0.0205,0.0554 0.003,0.0134 -0.0286,0.037 -0.0473,0.055 -0.0183,0.0187 -0.0208,0.0794 -0.0339,0.0924 -0.0134,0.0127 -0.0378,0.0155 -0.0448,0.0342 -0.008,0.0183 0.0127,0.0557 -0.0113,0.0875 -0.0233,0.0314 -0.10478,0.0653 -0.10478,0.0917 0,0.0261 0.0155,0.0713 0.0155,0.0713 0,0 -0.0183,0.0293 -0.037,0.0632 -0.0183,0.0342 -0.0395,0.0501 -0.0314,0.0667 z"
         id="path51542-7-0-9-62" />
      <path
         d="m 54.09492,202.2207 c 0.006,-0.0709 0.007,-0.12171 -0.0512,-0.11677 -0.0575,0.006 -0.31574,0.0448 -0.32809,0.0487 -0.012,0.004 -0.16368,0.0702 -0.27798,0.0564 -0.11501,-0.0141 -0.11254,-0.0342 -0.16899,-0.0222 -0.0554,0.0116 -0.79445,0.20426 -0.79445,0.20426 l -0.0116,-0.0441 -0.096,0.0236 -0.007,-0.0353 -0.14852,0.0444 c 0,0 -0.0141,-0.007 -0.0258,10e-4 -0.0116,0.007 -0.0141,0.018 -0.0141,0.018 l 0.003,0.0258 -0.0159,0.0511 -0.0822,0.024 -10e-4,0.0141 -0.71014,0.18309 -0.0222,0.0254 -0.11712,0.0441 c 0,0 -0.0289,-0.007 -0.0254,0.0141 0.004,0.0198 0.0215,0.0109 0.0215,0.0109 l 0.0134,-0.008 0.10195,-0.0321 0.0279,0.0116 0.005,0.0303 -0.30444,0.078 -0.0646,-0.13617 -0.066,0.004 0.0247,0.13723 -0.007,0.0169 -0.0318,0.008 c 0,0 -0.006,0.0109 -0.006,0.03 0,0.019 0.0243,0.0307 0.0243,0.0307 l 0.12912,-0.0346 0.008,-0.008 0.45297,-0.10795 0.0808,-0.008 c 0,0 0.39581,-0.0995 0.40675,-0.10231 0.0109,-0.003 0.0737,0.005 0.0917,-3.5e-4 0.0166,-0.005 0.15875,-0.0603 0.1778,-0.0293 0.0191,0.0307 0.024,0.10901 0.024,0.10901 l 0.0194,7.1e-4 c 0,0 0.031,0.21272 0.0208,0.32808 -0.0106,0.11571 -0.0402,0.31856 -0.0402,0.31856 l 0.18027,0.0522 c 0,0 0.0526,-0.23813 0.0497,-0.38241 -0.003,-0.14394 -0.0328,-0.35772 -0.0328,-0.35772 0,0 0.042,-0.0124 0.06,0 0.0187,0.012 0.0437,0.005 0.0437,0.005 0,0 0.0794,-0.0212 0.10795,0.0134 0.0279,0.0353 0.0699,0.0557 0.13123,0.037 0.0621,-0.0187 0.0878,-0.0293 0.0974,-0.0448 0.01,-0.0152 0.03,-0.03 0.0423,-0.0268 0.0116,0.003 0.0582,0.0243 0.10725,0.0734 0.0497,0.0494 0.0773,0.0808 0.0773,0.0808 0,0 0.0159,0.0212 0.0543,-0.008 0.0378,-0.03 0.11677,-0.0794 0.0519,-0.13829 -0.0642,-0.0586 -0.21837,-0.17745 -0.21837,-0.17745 0,0 -0.0346,-0.0628 0.0586,-0.0804 0.0938,-0.0173 0.21449,-0.054 0.21449,-0.054 0,0 0.18027,0.004 0.32703,0.0437 0.14746,0.0402 0.4198,0.0762 0.42898,0.0762 0.009,0 0.11288,-0.009 0.0787,-0.0981 -0.0342,-0.0889 -0.0381,-0.0896 -0.0557,-0.14851 -0.0166,-0.0589 -0.0198,-0.072 -0.0198,-0.072"
         id="path51546-5-3-5-5" />
      <path
         d="m 28.97354,205.19031 c -0.0257,0.0825 -0.0681,0.16546 -0.0942,0.19121 -0.0261,0.0258 -0.13123,0.133 -0.13441,0.15557 -0.003,0.0226 -0.008,0.0564 0.0307,0.0889 0.0388,0.0325 0.0776,0.0402 0.12489,0.0522 0.0473,0.0113 0.23494,-0.0198 0.27093,-0.0554 0.0356,-0.0356 0.0854,-0.12982 0.0991,-0.1524 0.013,-0.0229 0.0109,0.003 0.0109,0.003 l 0.079,-0.0515 c 0,0 0.0148,-0.0794 0.005,-0.0942 -0.01,-0.0141 0.003,-0.0497 -0.005,-0.0773 -0.007,-0.0275 -0.0462,-0.0635 -0.0483,-0.0857 -10e-4,-0.0229 0.004,-0.0423 -0.004,-0.0617 -0.006,-0.0198 -0.0307,-0.0328 -0.0381,-0.0388 -0.008,-0.007 -0.0106,-0.0667 -0.0233,-0.0871 -0.0131,-0.0215 -0.003,-0.0169 0.0212,-0.0314 0.0243,-0.0145 0.0695,-0.0709 0.0695,-0.0709 0,0 -0.0565,-0.004 -0.0744,0.001 -0.0176,0.005 -0.0388,0.0176 -0.0388,0.0176 l -0.0247,-0.0113 c 0,0 -0.0109,-0.0455 -0.0402,-0.0663 -0.0293,-0.0212 -0.0437,-0.0829 -0.0437,-0.0829 l 0.0272,-0.0293 -0.048,-0.0529 -0.018,0.007 -0.0243,-0.037 -0.0275,0.002 c 0,0 0.005,-0.19438 -0.01,-0.23953 -0.0152,-0.0455 -0.0811,-0.1083 -0.0861,-0.11536 -0.005,-0.006 -0.007,-0.0709 -0.0258,-0.0808 -0.0201,-0.01 -0.0508,-0.0289 -0.0508,-0.0289 0,0 -0.0222,-0.0847 -0.0127,-0.16404 0.01,-0.0794 -0.0533,-0.39194 -0.0631,-0.43074 -0.009,-0.0392 0.01,-0.1136 0.018,-0.16687 0.008,-0.0533 10e-4,-0.31115 10e-4,-0.31115 l 0.0857,-0.0572 c 0,0 -0.17109,-0.45614 -0.19544,-0.53093 -0.025,-0.0744 -0.0437,-0.1718 -0.0437,-0.1718 0,0 0.0988,-0.19438 0.10019,-0.23812 0.001,-0.0438 -0.004,-0.0988 0.0279,-0.13583 0.0303,-0.0374 0.0903,-0.24517 0.0547,-0.36971 -0.0353,-0.12488 -0.12171,-0.36935 -0.16651,-0.41169 -0.0455,-0.042 -0.0762,-0.0617 -0.0977,-0.13899 -0.0208,-0.078 -0.0367,-0.14111 -0.11324,-0.17357 -0.0766,-0.0321 -0.133,-0.0293 -0.14746,-0.0483 -0.0141,-0.0198 -0.0402,-0.0346 -0.0628,-0.0346 -0.0233,0 -0.0702,0.0148 -0.0868,0 -0.0152,-0.0141 -0.025,-0.0307 -0.0187,-0.0596 0.006,-0.0289 0.0113,-0.0437 0.0113,-0.0437 l 0.16404,0.003 c 0,0 -0.0572,-0.12594 -0.067,-0.15699 -0.01,-0.0307 0.0684,-0.36653 -0.16369,-0.44414 -0.23177,-0.0773 -0.45331,-0.0582 -0.52316,0.0811 -0.0702,0.13899 -0.0681,0.28187 -0.15276,0.29351 -0.0836,0.0109 0.0684,0.0469 0.0684,0.0469 0,0 0,0.0286 0.0141,0.0321 0.0152,0.004 0.0307,0.0145 0.0138,0.0536 -0.0183,0.0392 -0.0632,0.0988 -0.0265,0.11042 0.0378,0.0113 0.0434,0.0162 0.0434,0.0162 l 0.007,0.024 c 0,0 -0.005,0.0141 10e-4,0.0212 0.007,0.006 0.0279,0.018 0.0279,0.018 l 0.006,0.0303 c 0,0 -0.0208,0.0116 -0.0176,0.0198 0.004,0.008 0.0247,0.0258 0.0148,0.0402 -0.01,0.0145 -0.0243,0.0568 -0.008,0.0716 0.0155,0.0145 0.0871,0.0356 0.0871,0.0356 0,0 -0.078,0.0487 -0.11465,0.084 -0.0377,0.036 -0.067,0.0861 -0.0988,0.11677 -0.0328,0.031 -0.0702,0.0695 -0.0543,0.0988 0.0166,0.0293 0.0215,0.0374 -0.001,0.0505 -0.0233,0.0123 -0.10583,0.10689 -0.11535,0.1277 -0.01,0.0215 -0.079,0.0744 -0.11677,0.0924 -0.0367,0.0176 -0.073,0.0243 -0.073,0.0243 l -0.13899,-0.007 c 0,0 -0.0215,-0.0275 -0.0423,-0.0321 -0.0208,-0.005 -0.10654,-0.007 -0.10654,-0.007 l -0.0247,0.0388 -0.20884,0.003 c 0,0 -0.0353,-0.0191 -0.0497,-0.0141 -0.0148,0.005 -0.0586,0.005 -0.0586,0.005 l -0.15028,0.008 -0.0653,-0.003 c 0,0 0.0293,0.15558 0.0293,0.17216 v 0.0642 c 0,0 -0.0628,0.0229 -0.0628,0.0423 0,0.0194 0.019,0.0437 0.0155,0.055 -0.004,0.0116 -0.005,0.0402 -0.004,0.0501 0.002,0.0102 0.0152,0.0265 0.013,0.0406 -0.001,0.0145 0.002,0.0342 0.0123,0.0473 0.009,0.0127 0.007,0.0243 0.007,0.0416 0,0.0183 -0.0102,0.0198 0.0109,0.0328 0.0212,0.0127 0.0229,0.0226 0.0229,0.0226 l 0.14111,0.01 c 0,0 0.036,0.005 0.073,0 0.0374,-0.005 0.0744,-0.0148 0.0744,-0.0148 0,0 0.0279,0.0956 0.0808,0.0956 0.0533,0 0.17568,-0.0907 0.17568,-0.0907 0,0 0.001,-0.0325 0.0759,-0.0134 0.0744,0.0198 0.11783,0.0459 0.15169,0.0473 0.0346,0.001 0.18521,-0.0624 0.21732,-0.0162 0.0328,0.0469 0.0861,0.0279 0.0861,0.0279 0,0 -0.0871,0.25435 -0.0885,0.29316 -0.002,0.0392 0.0173,0.11677 0.0173,0.11677 0,0 -0.11324,0.19579 -0.12947,0.26211 -0.0166,0.0667 -0.0145,0.0667 -0.0293,0.0889 -0.0145,0.0233 -0.0275,0.0684 -0.0505,0.10372 -0.0229,0.036 -0.0229,0.0554 -0.0229,0.0554 l 0.0392,0.0257 c 0,0 -0.2039,0.4572 -0.22331,0.51188 -0.0198,0.0557 -0.15381,0.20955 -0.13793,0.35877 0.0159,0.14887 0.018,0.28998 0.0215,0.30868 0.003,0.0201 0.0212,0.0522 0.009,0.0762 -0.0106,0.0247 -0.0388,0.073 0.002,0.10195 0.0402,0.0296 0.0501,0.025 0.0501,0.0508 0,0.0258 0.0131,0.0501 0.0328,0.066 0.019,0.0166 0.0388,0.16405 0.0388,0.16405 l 0.0307,0.14746 c 0,0 -0.0134,0.024 -0.0247,0.0423 -0.0116,0.0173 -0.006,0.0356 -0.006,0.0356 0,0 -0.0138,0.0335 -0.0388,0.0497 -0.0268,0.0166 -0.0871,0.0956 -0.0871,0.0956 0,0 -0.0688,0.06 -0.0995,0.0681 -0.0307,0.008 -0.15064,0.06 -0.15064,0.06 0,0 -0.12488,0.0243 -0.1344,0.0649 -0.0102,0.0406 -0.001,0.0776 -0.001,0.0776 l -0.0116,0.0296 c 0,0 0.12771,0.0385 0.18415,0.0437 0.0568,0.005 0.35525,-0.0931 0.39935,-0.10266 0.043,-0.009 0.0596,-0.0141 0.0818,-0.0109 0.0236,0.003 0.0293,0.0374 0.0293,0.0374 0,0 0.16052,-0.01 0.19932,-0.0194 0.0392,-0.0102 0.0413,-0.0409 0.0413,-0.0409 l -0.006,-0.06 -0.013,-0.0148 c 0,0 0.0554,-0.0885 0.0459,-0.14711 -0.01,-0.0582 -0.0363,-0.12277 -0.0363,-0.12277 0,0 0.004,-0.0928 -0.004,-0.11676 -0.008,-0.0247 0.003,-0.0505 0.003,-0.0695 0,-0.0201 -0.0222,-0.0744 -0.0257,-0.0928 -0.004,-0.018 0.013,-0.10337 0.013,-0.10337 0,0 0.0857,-0.1203 0.0762,-0.15416 -0.01,-0.0342 0.0339,-0.12771 0.0226,-0.15099 -0.0116,-0.0222 -0.0272,-0.0825 -0.0339,-0.10971 -0.007,-0.0279 -0.005,-0.0473 0.009,-0.0797 0.0145,-0.0325 0.0145,-0.0748 0.008,-0.11501 -0.006,-0.0406 -0.001,-0.0483 0.0762,-0.0804 0.078,-0.0328 0.26212,-0.22049 0.29281,-0.27411 0.0314,-0.0536 0.12982,-0.23036 0.18627,-0.10513 0.0568,0.12418 0.22895,0.55563 0.25611,0.60078 0.0282,0.0452 0.19791,0.3676 0.21449,0.39864 0.0155,0.0307 0.12735,0.10019 0.14252,0.12312 0.0141,0.0226 0.0695,0.17498 0.11783,0.18451 0.0487,0.01 0.12312,0 0.1464,0.0293 0.0226,0.0293 0.12418,0.13299 0.13088,0.14428 0.006,0.0109 0.0236,0.0455 0.0212,0.0663 -0.003,0.0212 0.0275,0.0289 0.0402,0.0321 0.013,0.004 0.013,0.0766 0.013,0.0766"
         id="path51550-7-8-8-2" />
      <path
         d="m 28.07876,201.60443 c 0.0243,-0.0667 0.0388,-0.11571 -0.0187,-0.12629 -0.0564,-0.0102 -0.31573,-0.0406 -0.32879,-0.0402 -0.0127,0 -0.17674,0.0247 -0.28328,-0.019 -0.10689,-0.0445 -0.0995,-0.0628 -0.15698,-0.0663 -0.0565,-0.004 -0.82056,-0.0134 -0.82056,-0.0134 l 7e-4,-0.0462 -0.0988,-0.002 0.003,-0.036 -0.15487,0.004 c 0,0 -0.0116,-0.0102 -0.0254,-0.006 -0.0131,0.003 -0.0183,0.0134 -0.0183,0.0134 l -0.004,0.0258 -0.0289,0.0452 -0.0857,0.001 -0.005,0.013 -0.73307,-0.0116 -0.0282,0.019 -0.12453,0.0109 c 0,0 -0.0261,-0.0134 -0.0279,0.007 -10e-4,0.0205 0.0176,0.0166 0.0176,0.0166 l 0.0152,-0.005 0.10619,-0.004 0.024,0.019 -0.003,0.0303 -0.31398,-0.005 -0.0268,-0.14887 -0.0639,-0.0138 -0.013,0.13934 -0.0116,0.0141 -0.0325,-3.6e-4 c 0,0 -0.009,0.009 -0.0138,0.0272 -0.005,0.0191 0.0155,0.0363 0.0155,0.0363 l 0.13371,3.6e-4 0.01,-0.005 0.46531,0.0166 0.0797,0.0134 c 0,0 0.40816,0.009 0.4198,0.009 0.0109,3.5e-4 0.0699,0.0243 0.0878,0.024 0.018,-7e-4 0.16969,-0.0159 0.17957,0.0187 0.0102,0.0349 -0.005,0.11113 -0.005,0.11113 l 0.0183,0.006 c 0,0 -0.0265,0.21378 -0.0667,0.32244 -0.0413,0.1083 -0.12383,0.29633 -0.12383,0.29633 l 0.16051,0.0984 c 0,0 0.11325,-0.21554 0.14888,-0.35595 0.0353,-0.1397 0.0635,-0.35313 0.0635,-0.35313 0,0 0.0437,-7.1e-4 0.0582,0.0152 0.0141,0.0166 0.0406,0.0166 0.0406,0.0166 0,0 0.0819,7e-4 0.10055,0.0416 0.0176,0.0413 0.0522,0.0727 0.11677,0.0709 0.0645,-0.002 0.0921,-0.005 0.10583,-0.018 0.0127,-0.0116 0.0367,-0.0208 0.0473,-0.0145 0.0106,0.006 0.0501,0.0388 0.0843,0.0995 0.0346,0.061 0.0533,0.0981 0.0533,0.0981 0,0 0.009,0.0251 0.0543,0.006 0.0444,-0.019 0.13406,-0.0455 0.0868,-0.11924 -0.0466,-0.0737 -0.16405,-0.22931 -0.16405,-0.22931 0,0 -0.0159,-0.0695 0.078,-0.0621 0.0952,0.008 0.22119,0.005 0.22119,0.005 0,0 0.17286,0.0519 0.30374,0.12947 0.13159,0.0773 0.38523,0.18451 0.3937,0.18733 0.008,0.002 0.11113,0.0205 0.10195,-0.0741 -0.01,-0.0945 -0.013,-0.0967 -0.0145,-0.15805 -7.1e-4,-0.0614 0,-0.0744 0,-0.0744"
         id="path51554-3-0-1-0" />
      <path
         d="m 31.45237,204.89959 c -0.006,-0.0624 -0.0847,-0.24659 -0.0928,-0.27093 -0.007,-0.0247 -0.005,-0.0434 -0.005,-0.0575 0,-0.0134 -0.13829,-0.15135 -0.15699,-0.18698 -0.0194,-0.0349 -0.0222,-0.18415 -0.0293,-0.24624 -0.009,-0.0624 -0.055,-0.11112 -0.0794,-0.13864 -0.024,-0.0272 -0.0596,-0.20038 -0.0596,-0.22789 0,-0.0272 -0.11642,-0.52564 -0.133,-0.53693 -0.0159,-0.0109 -0.049,-0.0162 -0.0868,-0.0183 -0.0381,-0.003 -0.0409,-0.0166 -0.0409,-0.0166 v -0.0519 l -0.0564,-0.0162 c 0,0 -0.0328,-0.10266 0.03,-0.19191 0.0624,-0.09 0.0995,-0.44238 0.0995,-0.44238 0,0 -0.18944,-0.0924 -0.31926,-0.14641 -0.13018,-0.0543 -0.37219,-0.10336 -0.39864,-0.1083 -0.0272,-0.006 -0.15205,-0.13829 -0.17392,-0.21978 -0.0212,-0.0811 -0.12136,-0.38806 -0.12418,-0.45544 -0.003,-0.0677 0.0974,-0.29315 0.133,-0.39052 0.0346,-0.0981 0.024,-0.0924 0.024,-0.0924 l 0.28433,-0.0325 0.24201,0.11924 0.0593,-0.054 c 0.03,-0.0272 0.0409,-0.03 0.06,-0.0811 0.019,-0.0519 0.12418,-0.0952 0.13864,-0.10866 0.0127,-0.0134 0.007,-0.049 -0.0173,-0.11147 -0.0236,-0.0621 -0.0402,-0.1651 -0.0402,-0.1651 0,0 -0.0621,-0.0191 -0.0787,-0.0381 -0.0159,-0.019 -0.0159,-0.0409 -0.0762,-0.0974 -0.0593,-0.0571 0.0324,-0.13335 0.0628,-0.17428 0.03,-0.0402 0.0512,-0.15169 0.084,-0.20531 0.0317,-0.0547 0.15135,-0.10302 0.37959,-0.0815 0.2279,0.0212 0.26529,0.11923 0.27658,0.17885 0.0106,0.0596 0.0596,0.32774 0.0952,0.39088 0.0349,0.0617 0.005,0.0536 -0.0272,0.0536 -0.0328,0 -0.0952,-0.0106 -0.0952,-0.0106 0,0 -0.008,0.005 -0.0272,0.0353 -0.0187,0.0296 -0.008,0.0515 0.006,0.0593 0.0138,0.009 0.0459,-0.008 0.11112,-0.0265 0.0649,-0.0194 0.127,0.0455 0.15699,0.0646 0.03,0.019 0.084,0.0113 0.10583,0.0141 0.0219,0.002 0.12665,0.0974 0.133,0.12982 0.006,0.0321 0.0487,0.0515 0.0649,0.0734 0.0162,0.0212 0.0483,0.0321 0.084,0.0617 0.0353,0.0303 0.0272,0.11395 0.0628,0.13053 0.0349,0.0162 0.18169,0.26282 0.23072,0.29034 0.0483,0.0272 0.0483,0.084 0.0646,0.14605 0.0166,0.0624 0.0896,0.11924 0.11395,0.1711 0.0243,0.0512 0.0134,0.1464 -0.0159,0.21978 -0.03,0.073 -0.16616,0.127 -0.21166,0.13793 -0.0466,0.0106 -0.1577,0.0624 -0.1577,0.0624 l 0.0628,0.0568 -0.0328,0.0681 c 0,0 0.10301,-0.0272 0.13758,-0.03 0.0356,-0.002 0.0494,0.0568 0.0631,0.10619 0.0134,0.0483 0.0272,0.23812 0.0572,0.38735 0.0293,0.14887 -0.1083,0.23318 -0.1083,0.23318 0,0 -0.003,0.0296 0,0.0409 0.002,0.0106 -0.03,0.0649 -0.0522,0.0864 -0.0215,0.0219 -0.0628,-0.006 -0.0628,-0.006 0,0 0.0113,0.036 -0.0155,0.06 -0.0275,0.024 -0.12206,0.0353 -0.12206,0.0353 0,0 -0.008,0.0325 -0.008,0.0437 0,0.0106 -0.0646,0.10831 -0.0702,0.12736 -0.005,0.0187 0.0321,0.10512 -0.008,0.20602 -0.0409,0.0998 -0.10866,0.17886 -0.11889,0.19191 -0.0113,0.0141 -0.0328,0.10619 -0.0328,0.10619 0,0 0.0515,0.0868 0.0293,0.127 -0.0215,0.0413 -0.0155,0.0981 -0.0155,0.0981 0,0 0.11889,0.10548 0.18168,0.21695 0.0621,0.11113 0.12488,0.0893 0.18062,0.11677 0.0575,0.0268 0.03,0.0759 0.03,0.0759 0,0 0.0656,0.0325 0.11677,0.0621 0.0522,0.0296 0.0628,0.10866 0.0628,0.10866 0,0 0.0215,0.0378 0.0402,0.0734 0.0194,0.0349 -0.0759,0.16263 -0.0759,0.16263 h -0.048 c 0,0 -0.006,0.0677 -0.004,0.0917 0.004,0.0247 -0.0625,0.18697 -0.11113,0.24448 -0.0487,0.0568 -0.13829,0.0593 -0.24412,0.0568 -0.10548,-0.003 -0.0416,0 -0.10019,0.1083 -0.0536,0.10019 -0.15769,0.18697 -0.35242,0.18697 -0.19544,0 -0.043,-0.17604 0.0459,-0.30374 0.0896,-0.127 0.0194,-0.17321 0.0137,-0.2734 0,0 -0.0324,-0.14111 -0.0374,-0.20356 m -0.81139,-2.74955 c -0.005,-0.0381 0.0109,-0.084 0.0381,-0.0868 0.0272,-0.002 0.0494,0.008 0.0536,-0.0106 0.006,-0.019 -0.0317,-0.13264 -0.0317,-0.13264 0,0 -0.14675,0.16475 -0.17603,0.18697 -0.03,0.0215 -0.15522,0.0836 -0.17957,0.0836 -0.0236,0 -0.12982,-0.024 -0.15169,-0.0758 -0.0208,-0.0515 -0.0243,-0.0762 -0.0462,-0.12453 -0.0212,-0.0487 -0.0293,-0.0787 -0.0155,-0.10865 0.0127,-0.03 0.0106,-0.0624 0.008,-0.0783 -0.002,-0.0166 0,-0.0758 0.0159,-0.0952 0.0173,-0.019 -0.006,-0.0243 -0.008,-0.0568 -0.003,-0.0325 -0.0349,-0.0515 0.0109,-0.10266 0.0466,-0.0519 0.079,-0.13088 0.079,-0.13088 l -0.0325,-0.0378 c 0,0 -0.03,-0.0187 -0.0494,-0.0353 -0.0183,-0.0159 -0.0459,-0.0434 -0.0487,-0.073 -0.002,-0.03 -0.002,-0.0977 -0.002,-0.0977 l -0.049,-0.0219 c 0,0 -0.0568,0.15204 -0.0674,0.18168 -0.0113,0.0303 -0.0572,0.0815 -0.0596,0.14111 -0.004,0.06 -0.0356,0.17074 0.03,0.35807 0.0649,0.18732 0.0621,0.26564 0.10759,0.30409 0.0466,0.0374 0.12771,0.073 0.19262,0.0864 0.0656,0.0134 0.26353,0.0512 0.33373,0.0977 0.0702,0.0455 0.084,0.0406 0.084,0.0406 -0.0183,-0.0624 -0.0293,-0.17392 -0.0353,-0.21167 m 1.16346,2.7873 c -0.002,0.0381 0.0219,0.19862 0.024,0.21167 0.004,0.0138 0.0656,-0.0734 0.0765,-0.0998 0.0106,-0.0272 0.03,-0.0684 0.0353,-0.0928 0.005,-0.024 0,-0.0677 0.005,-0.084 0.006,-0.0162 -0.15699,-0.15452 -0.15699,-0.15452 0.008,0.0564 0.019,0.18168 0.0162,0.21943"
         id="path51558-0-7-1-3" />
      <path
         d="m 31.64756,202.21869 c 0.0564,-0.0423 0.0952,-0.0755 0.0533,-0.11536 -0.0416,-0.0395 -0.24306,-0.20602 -0.254,-0.21308 -0.0106,-0.007 -0.16157,-0.0755 -0.22719,-0.17039 -0.0656,-0.0953 -0.0497,-0.10654 -0.0949,-0.14146 -0.0466,-0.0342 -0.68086,-0.4572 -0.68086,-0.4572 l 0.0243,-0.0384 -0.0811,-0.0561 0.0215,-0.0289 -0.13229,-0.0815 c 0,0 -0.004,-0.0145 -0.0169,-0.0183 -0.013,-0.004 -0.0233,0.001 -0.0233,0.001 l -0.0169,0.019 -0.0494,0.0229 -0.0727,-0.0459 -0.0106,0.008 -0.60854,-0.40923 -0.0335,10e-4 -0.11112,-0.0596 c 0,0 -0.0145,-0.025 -0.0268,-0.009 -0.012,0.0162 0.005,0.0233 0.005,0.0233 l 0.0159,0.004 0.0921,0.0543 0.01,0.0286 -0.0187,0.025 -0.2607,-0.17533 0.0579,-0.14005 -0.0459,-0.0459 -0.0864,0.11007 -0.0173,0.005 -0.0272,-0.0183 c 0,0 -0.0123,0.003 -0.0268,0.0162 -0.0141,0.0127 -0.006,0.0385 -0.006,0.0385 l 0.11254,0.0734 0.01,3.5e-4 0.38136,0.26811 0.06,0.0543 c 0,0 0.33796,0.23001 0.34678,0.23601 0.009,0.007 0.0452,0.0589 0.0607,0.0684 0.0159,0.009 0.15099,0.079 0.14111,0.11324 -0.0106,0.0349 -0.066,0.0903 -0.066,0.0903 l 0.0131,0.0155 c 0,0 -0.13829,0.16475 -0.23213,0.23319 -0.0931,0.0688 -0.26493,0.18133 -0.26493,0.18133 l 0.0808,0.17004 c 0,0 0.21308,-0.11924 0.31892,-0.21732 0.10583,-0.0977 0.24553,-0.2614 0.24553,-0.2614 0,0 0.0363,0.0226 0.0402,0.0448 0.004,0.0212 0.0254,0.036 0.0254,0.036 0,0 0.0681,0.0448 0.0614,0.0889 -0.007,0.0441 0.005,0.0896 0.06,0.12312 0.0543,0.0339 0.0801,0.0462 0.0981,0.043 0.0173,-0.004 0.0427,0.003 0.0473,0.0134 0.006,0.0109 0.0212,0.0596 0.0173,0.12946 -0.004,0.0695 -0.01,0.11078 -0.01,0.11078 0,0 -0.006,0.0261 0.043,0.0353 0.0476,0.008 0.13687,0.0346 0.13758,-0.0529 7e-4,-0.0871 -0.0131,-0.28117 -0.0131,-0.28117 0,0 0.025,-0.0677 0.0998,-0.01 0.0751,0.0582 0.18239,0.12383 0.18239,0.12383 0,0 0.11677,0.13793 0.18485,0.27446 0.0677,0.13652 0.2219,0.36406 0.22755,0.37112 0.006,0.007 0.0822,0.0783 0.12523,-0.006 0.0445,-0.0847 0.043,-0.0878 0.0751,-0.14005 0.0321,-0.0522 0.0402,-0.0631 0.0402,-0.0631"
         id="path51562-4-0-3-70" />
      <path
         d="m 33.61391,202.71417 c 0,0 0.005,0.0314 0.0229,0.048 0.0194,0.0155 0.0639,0.0155 0.0639,0.0155 0,0 0.0349,0.0102 0.0469,0.0159 0.0138,0.005 0.0346,-0.008 0.048,-0.008 0.0138,0 0.031,0.018 0.0476,0.0208 0.0155,0.002 0.0314,-0.0152 0.0452,-0.0152 0.012,0 0.012,0.005 0.0335,0.0102 0.0208,0.005 0.0557,-0.0296 0.0557,-0.0296 l 0.18415,-0.0314 0.0766,0.0314 -0.084,0.51082 -0.008,0.0564 0.0441,0.0159 c 0,0 0.003,0.4318 0.0138,0.51929 0.0106,0.0864 0.0134,0.29492 0.0843,0.38206 0.0709,0.0868 0.18486,0.21837 0.20038,0.2607 0.0159,0.0423 0.079,0.10054 0.12347,0.10795 0.0452,0.008 0.17145,0.0109 0.22401,0.0956 0.0529,0.0836 0.15311,0.11818 0.15311,0.11818 0,0 0.0688,0.079 0.0797,0.0995 0.01,0.0219 0.12065,0.0928 0.11783,0.11959 -0.002,0.0258 0.0325,0.2607 0.006,0.31044 -0.0268,0.0505 -0.0921,0.12983 -0.0822,0.18698 0.0109,0.0582 0.0473,0.0635 0.0473,0.0635 l 0.0166,0.0289 c 0,0 0.11888,0.0423 0.20037,-0.0445 0.0811,-0.0875 0.11042,-0.17392 0.13194,-0.21379 0.0205,-0.0395 0.0497,-0.15839 0.0497,-0.15839 l 0.0261,0.0183 c 0,0 0.0924,-0.13653 0.0265,-0.21097 -0.0656,-0.0737 -0.0949,-0.0966 -0.0949,-0.0966 0,0 -0.013,0.0155 -0.0448,-0.0194 -0.0314,-0.0332 -0.11536,-0.12313 -0.11536,-0.12313 0,0 -0.085,-0.1217 -0.10583,-0.13476 -0.0215,-0.0127 -0.0582,-0.0864 -0.0794,-0.0974 -0.0208,-0.0106 -0.0921,-0.0952 -0.0921,-0.12664 0,-0.031 0.0183,-0.11042 -0.0183,-0.14253 -0.037,-0.0314 -0.0554,-0.0967 -0.0896,-0.11888 -0.0349,-0.0208 -0.0505,-0.0917 -0.055,-0.13617 -0.006,-0.0452 -0.0508,-0.0896 -0.0663,-0.10301 -0.0159,-0.0131 -0.0212,-0.0314 0.0102,-0.12383 0.0317,-0.0924 0.0504,-0.21131 0.0949,-0.27411 0.0452,-0.0632 0.0579,-0.0716 0.0579,-0.0716 0,0 0.19544,0.31926 0.21626,0.3616 0.0215,0.0423 0.15839,0.2734 0.1845,0.31326 0.0268,0.0395 0.0691,0.0469 0.0928,0.1771 0.0233,0.12876 0.13935,0.15522 0.16581,0.19755 0.0268,0.0416 0.0765,0.11889 0.12629,0.15276 0.0501,0.0342 0.0949,0.0684 0.0949,0.0684 0.0663,0.10301 0.17674,0.21907 0.21943,0.26881 0.0413,0.0501 0.0917,0.13723 0.0917,0.13723 l 0.024,0.0159 c 0,0 0.013,0.13159 -0.003,0.16616 -0.0155,0.0335 -0.0476,0.0705 -0.0579,0.12665 -0.0106,0.0543 0,0.0653 0,0.0653 l -0.0106,0.0293 c 0,0 0.13476,0.0392 0.20037,0.0268 0.0653,-0.0138 0.1584,-0.0875 0.1584,-0.0875 l 0.078,-0.0818 c 0,0 -0.0229,-0.0635 -0.0229,-0.084 0,-0.0212 0,-0.0765 -0.0183,-0.0977 -0.0183,-0.0208 -0.079,-0.12947 -0.079,-0.12947 0,0 0.0127,-0.0818 -0.0395,-0.12629 -0.0529,-0.0452 -0.0794,-0.16334 -0.0843,-0.19721 -0.005,-0.0349 -0.0162,-0.14816 -0.0529,-0.17215 -0.0374,-0.0229 -0.0554,-0.0526 -0.0526,-0.12065 0.002,-0.0691 -0.008,-0.10584 -0.0399,-0.13229 -0.0314,-0.0257 -0.0395,-0.0995 -0.0504,-0.16052 -0.0102,-0.0607 -0.005,-0.10583 -0.073,-0.14746 -0.0692,-0.0423 -0.10302,-0.12947 -0.11395,-0.2219 -0.0102,-0.0914 -0.0921,-0.30515 -0.11854,-0.34995 -0.0265,-0.0452 -0.0445,-0.21378 -0.0445,-0.21378 0,0 0.0476,0.0102 0.0607,-0.0155 0.0131,-0.0265 0.005,-0.0744 0.005,-0.0744 0,0 0.0416,-0.036 0.0416,-0.0811 0,-0.0445 -0.0159,-0.1023 -0.0159,-0.1023 0,0 0.11359,-0.0452 0.0794,-0.18239 -0.0342,-0.13723 -0.11324,-0.25294 -0.11888,-0.29809 -0.005,-0.0444 -0.0441,-0.21308 -0.11501,-0.20038 -0.072,0.0134 -0.15099,0.042 -0.15099,0.042 0,0 0.13159,-0.1651 0.17392,-0.21837 0.0427,-0.0529 0.0427,-0.055 0.0892,-0.1845 0.048,-0.12983 0.0582,-0.18204 0.0243,-0.22366 -0.0342,-0.0427 -0.0635,-0.0977 -0.0794,-0.14464 -0.0159,-0.048 -0.13441,-0.20885 -0.15557,-0.24342 -0.0205,-0.0339 -0.1577,-0.18944 -0.16863,-0.21061 -0.0102,-0.0212 -0.0102,-0.0656 -0.0628,-0.11077 -0.0533,-0.0452 -0.15557,-0.13229 -0.20073,-0.1397 -0.0448,-0.008 -0.0868,-0.0159 -0.10019,-0.0212 -0.0131,-0.005 0.024,-0.0783 -0.0388,-0.10795 -0.0646,-0.0293 -0.13794,-0.037 -0.17498,-0.0818 -0.0367,-0.0444 -0.1337,-0.0607 -0.15275,-0.0607 h -0.0388 c 0,0 0.007,-0.0526 -0.005,-0.0864 -0.0138,-0.0342 -0.0529,-0.061 -0.0529,-0.061 0,0 -0.0847,-0.36125 -0.30585,-0.3556 -0.2219,0.006 -0.35349,-0.0187 -0.46391,0.16334 -0.11042,0.18203 -0.11606,0.36089 -0.11606,0.36089 0,0 0.0452,0.0155 0.0635,0.0236 0.0183,0.008 0.0318,-0.008 0.0395,0.024 0.008,0.0317 0.0473,0.0526 0.0473,0.0526 0,0 0.0339,0.0822 0.0452,0.10301 0.0109,0.0208 0.031,0.0875 0.0469,0.12629 0.0162,0.0399 0.037,0.0892 0.0579,0.0977 0.0212,0.008 0.0427,0.008 0.0427,0.008 0,0 -0.1136,0.13723 -0.12383,0.1711 -0.0109,0.0335 -0.0452,0.25012 -0.0579,0.28716 -0.0138,0.0374 -0.0639,0.10548 -0.0554,0.14817 0.007,0.0413 0.002,0.1203 -0.006,0.1711 -0.008,0.0497 -0.042,0.14463 -0.0469,0.17109 -0.005,0.0261 0.0176,0.0416 0.0205,0.0554 0.003,0.0134 -0.0286,0.037 -0.0473,0.055 -0.0183,0.0187 -0.0208,0.0794 -0.0339,0.0924 -0.0134,0.0127 -0.0377,0.0155 -0.0452,0.0342 -0.008,0.0183 0.0131,0.0557 -0.0109,0.0875 -0.0233,0.0314 -0.10478,0.0653 -0.10478,0.0917 0,0.0261 0.0155,0.0713 0.0155,0.0713 0,0 -0.0183,0.0293 -0.037,0.0632 -0.0183,0.0342 -0.0395,0.0501 -0.0314,0.0667 z"
         id="path51574-7-7-0-57" />
      <path
         d="m 35.88016,202.2207 c 0.006,-0.0709 0.007,-0.12171 -0.0512,-0.11677 -0.0575,0.006 -0.31574,0.0448 -0.32809,0.0487 -0.012,0.004 -0.16368,0.0702 -0.27798,0.0564 -0.11501,-0.0141 -0.11254,-0.0342 -0.16899,-0.0222 -0.0554,0.0116 -0.79445,0.20426 -0.79445,0.20426 l -0.0116,-0.0441 -0.096,0.0236 -0.007,-0.0353 -0.14852,0.0444 c 0,0 -0.0141,-0.007 -0.0258,10e-4 -0.0116,0.007 -0.0141,0.018 -0.0141,0.018 l 0.003,0.0258 -0.0159,0.0511 -0.0822,0.024 -0.001,0.0141 -0.71014,0.18309 -0.0222,0.0254 -0.11712,0.0441 c 0,0 -0.0289,-0.007 -0.0254,0.0141 0.004,0.0198 0.0215,0.0109 0.0215,0.0109 l 0.0134,-0.008 0.10195,-0.0321 0.0279,0.0116 0.005,0.0303 -0.30444,0.078 -0.0646,-0.13617 -0.066,0.004 0.0247,0.13723 -0.007,0.0169 -0.0317,0.008 c 0,0 -0.006,0.0109 -0.006,0.03 0,0.019 0.0243,0.0307 0.0243,0.0307 l 0.12912,-0.0346 0.008,-0.008 0.45297,-0.10795 0.0808,-0.008 c 0,0 0.39581,-0.0995 0.40675,-0.10231 0.0109,-0.003 0.0737,0.005 0.0917,-3.5e-4 0.0166,-0.005 0.15875,-0.0603 0.1778,-0.0293 0.019,0.0307 0.024,0.10901 0.024,0.10901 l 0.0194,7.1e-4 c 0,0 0.031,0.21272 0.0208,0.32808 -0.0106,0.11571 -0.0402,0.31856 -0.0402,0.31856 l 0.18027,0.0522 c 0,0 0.0526,-0.23813 0.0497,-0.38241 -0.003,-0.14394 -0.0328,-0.35772 -0.0328,-0.35772 0,0 0.042,-0.0124 0.06,0 0.0187,0.012 0.0437,0.005 0.0437,0.005 0,0 0.0794,-0.0212 0.10795,0.0134 0.0279,0.0353 0.0699,0.0557 0.13123,0.037 0.0621,-0.0187 0.0878,-0.0293 0.0974,-0.0448 0.01,-0.0152 0.03,-0.03 0.0423,-0.0268 0.0116,0.003 0.0582,0.0243 0.10725,0.0734 0.0497,0.0494 0.0773,0.0808 0.0773,0.0808 0,0 0.0159,0.0212 0.0543,-0.008 0.0377,-0.03 0.11677,-0.0794 0.0519,-0.13829 -0.0642,-0.0586 -0.21837,-0.17745 -0.21837,-0.17745 0,0 -0.0346,-0.0628 0.0586,-0.0804 0.0938,-0.0173 0.21449,-0.054 0.21449,-0.054 0,0 0.18027,0.004 0.32703,0.0437 0.14746,0.0402 0.4198,0.0762 0.42898,0.0762 0.009,0 0.11288,-0.009 0.0787,-0.0981 -0.0342,-0.0889 -0.0381,-0.0896 -0.0557,-0.14851 -0.0166,-0.0589 -0.0198,-0.072 -0.0198,-0.072"
         id="path51578-6-6-1-47" />
      <path
         d="m 33.380365,212.92242 c -0.0614,-0.0416 -0.0307,-0.16757 -0.0279,-0.21554 0.003,-0.048 -0.0765,-0.037 -0.11818,-0.0342 -0.0423,0.004 -0.10654,0.0169 -0.15169,-0.0166 -0.0448,-0.0332 -0.25436,-0.0279 -0.25436,-0.0279 0,0 -0.004,0.048 -0.0226,0.0586 -0.0198,0.0113 -0.0342,0.0229 -0.0198,0.0589 0.0138,0.037 -0.0113,0.0928 -0.0226,0.11818 -0.0116,0.025 -0.0162,0.0335 -0.008,0.0586 0.008,0.025 -0.0561,0.073 -0.10936,0.0868 -0.054,0.0141 -0.0226,0.21096 -0.009,0.28046 0.0145,0.0702 -0.0614,0.17109 -0.0614,0.17109 0,0 0.019,0.0617 0.0279,0.0811 0.008,0.0201 0.006,0.18521 0.0198,0.2413 0.0138,0.0557 -0.0141,0.0593 -0.0141,0.0593 0,0 -0.0145,0.0639 -0.0388,0.0723 -0.0254,0.009 -0.21378,-0.008 -0.21378,-0.008 l -0.003,-0.0501 c 0,0 -0.1397,0.0307 -0.26071,0.0586 -0.12065,0.0279 -0.37535,-0.006 -0.44273,-0.0162 -0.0677,-0.0116 -0.0868,-0.0282 -0.0868,-0.0282 l 0.0191,-0.0198 c 0,0 -0.036,-0.084 -0.008,-0.109 0.0279,-0.0251 0.28046,-0.0423 0.33937,-0.0452 0.0586,-0.003 0.0808,-0.0395 0.10901,-0.0529 0.0286,-0.0145 0.19897,-0.1852 0.19897,-0.1852 0,0 -0.0187,-0.0342 -0.0303,-0.0505 -0.012,-0.0173 -0.006,-0.0423 0.008,-0.0677 0.0145,-0.0254 -0.003,-0.11466 -0.008,-0.12912 -0.006,-0.0134 -0.006,-0.0614 0.002,-0.11183 0.009,-0.0504 0,-0.17392 0,-0.17392 0,0 -0.0279,-0.0508 -0.0586,-0.084 -0.031,-0.0335 -0.0254,-0.10654 -0.002,-0.14323 0.0215,-0.0363 -0.012,-0.14287 -0.012,-0.18168 0,-0.0395 0.0565,-0.19685 0.0586,-0.2219 0.004,-0.025 0.004,-0.13441 0.0452,-0.2607 0.0423,-0.12629 0.2219,-0.12876 0.3115,-0.14887 0.09,-0.0194 0.0222,-0.0557 -0.0307,-0.11465 -0.0533,-0.0593 -0.14887,-0.20779 -0.16545,-0.2413 -0.0166,-0.0335 0.008,-0.0977 -0.0646,-0.14041 -0.0723,-0.042 -0.067,-0.0924 -0.0561,-0.1203 0.0109,-0.0282 0.0811,-0.10654 0.0533,-0.1718 -0.0279,-0.0639 -0.0642,-0.11112 -0.0642,-0.11112 0,0 -0.13793,-0.0737 -0.17427,-0.11254 -0.0258,-0.0279 -0.0787,-0.19226 -0.13829,-0.21484 -0.0765,0.0296 0.8315,0.0497 0.90735,-0.0233 0.0346,-0.0328 0.0864,-0.009 0.0864,-0.009 0,0 0.0162,0.009 0.0423,0.0116 0.0243,0.003 0.10089,0.0529 0.10089,0.0529 0,0 -0.0113,-0.0808 -0.0226,-0.12312 -0.0117,-0.0416 0.002,-0.0646 0.002,-0.0646 l -0.0416,-0.073 c 0,0 -0.0423,-0.0106 -0.0614,-0.0194 -0.0198,-0.009 -0.0169,-0.0335 -0.0169,-0.0335 0,0 0.09,-0.17145 0.12912,-0.24377 0.0388,-0.073 0.10371,-0.23001 0.42827,-0.19368 0.32561,0.036 0.32279,0.34149 0.33655,0.4124 0.0145,0.0702 0.0145,0.12312 0.025,0.10619 0.0117,-0.0173 0.0564,-0.031 0.0931,-0.0254 0.0363,0.006 0.21554,0.17427 0.26352,0.20496 0.0476,0.0307 0.0194,0.0702 0.0279,0.0811 0.008,0.0116 0.121,0.12347 0.14605,0.18521 0.025,0.0617 0.005,0.34431 -0.004,0.42016 -0.008,0.0759 -0.0896,0.19367 -0.0945,0.23001 -0.006,0.037 0.036,0.13793 0.036,0.13793 0,0 0.14253,0.005 0.21908,0.0303 0.0759,0.0258 0.0226,0.19333 0.0226,0.19333 0,0 -0.0226,0.11818 -0.0286,0.16827 -0.006,0.0508 0.0286,0.043 0.0145,0.26388 -0.0145,0.22119 -0.1852,0.25259 -0.1852,0.25259 0,0 0,0.0642 0.005,0.11747 0.006,0.0529 -0.008,0.24977 -0.008,0.24977 l -0.0787,0.0106 -0.0702,0.25576 0.34784,-0.0868 c 0,0 0.14535,-0.0173 0.20426,-0.037 0.0593,-0.019 0.0952,0.0197 0.0952,0.0197 0,0 0.0642,0.003 0.084,0.0226 0.0198,0.0198 0.0342,0.21308 0.0342,0.21308 0,0 -0.0395,0.0145 -0.0145,0.0674 0.0254,0.0533 -0.008,0.26353 -0.0423,0.32491 -0.0335,0.0614 -0.0783,0.0614 -0.24342,0.0705 -0.16581,0.008 -0.0787,-0.19932 -0.0759,-0.21061 0.003,-0.0113 0.0505,-0.073 0.0335,-0.11183 -0.0162,-0.0395 -0.0392,-0.0169 -0.0642,-0.009 -0.0257,0.009 -0.0674,0.0533 -0.10372,0.10372 -0.036,0.0504 -0.0702,0.0399 -0.0702,0.0399 0,0 -0.21308,0.13159 -0.32879,0.1785 -0.1143,0.0483 -0.31573,0.0765 -0.40605,0 -0.0896,-0.0748 -0.16827,-0.72002 -0.17392,-0.8516 0,0 -0.005,-0.003 -0.0667,-0.0452 m -0.62512,-1.80869 c 0.0194,-0.0222 0.036,-0.10619 0.036,-0.10619 0,0 -0.0166,-0.0617 -0.0476,-0.0564 -0.0307,0.006 -0.15699,0.008 -0.17322,-0.0332 -0.0173,-0.0423 -0.0254,-0.09 -0.0254,-0.09 l -0.19932,-0.031 c 0,0 0.0614,0.0624 0.0614,0.0868 0,0.0258 0,0.0395 0.0254,0.0674 0.0258,0.0286 0.0758,0.048 0.09,0.0843 0.0138,0.0367 0.0416,0.13476 0.0416,0.13476 l 0.12101,0.0674 c 0.0279,-0.0536 0.0501,-0.10125 0.0702,-0.12382"
         id="path51530-5-4-0-97-8-0" />
      <path
         d="m 33.924285,210.86192 c 0.0279,-0.0653 0.0444,-0.11324 -0.0116,-0.127 -0.0557,-0.0127 -0.31327,-0.0564 -0.32632,-0.0572 -0.013,-7.1e-4 -0.17815,0.0152 -0.28222,-0.0342 -0.10372,-0.0501 -0.096,-0.0674 -0.15311,-0.0744 -0.0568,-0.007 -0.81844,-0.0561 -0.81844,-0.0561 l 0.003,-0.0455 -0.0988,-0.008 0.005,-0.0356 -0.15522,-0.004 c 0,0 -0.0109,-0.0109 -0.0247,-0.008 -0.0134,0.004 -0.019,0.013 -0.019,0.013 l -0.005,0.0251 -0.0307,0.0437 -0.0868,-0.002 -0.005,0.0123 -0.73166,-0.0501 -0.0286,0.0173 -0.12559,0.005 c 0,0 -0.0243,-0.0148 -0.0279,0.005 -0.003,0.0208 0.0166,0.0173 0.0166,0.0173 l 0.0148,-0.004 0.10689,0.001 0.0229,0.0198 -0.004,0.031 -0.31362,-0.0215 -0.0194,-0.15028 -0.0632,-0.0166 -0.0201,0.13828 -0.012,0.0131 -0.0325,-0.002 c 0,0 -0.01,0.009 -0.0155,0.0268 -0.005,0.018 0.0148,0.0374 0.0148,0.0374 l 0.13335,0.007 0.008,-0.004 0.46496,0.0402 0.0794,0.0176 c 0,0 0.40675,0.03 0.41734,0.0314 0.0116,7.1e-4 0.0691,0.0275 0.0875,0.0282 0.0187,7.1e-4 0.1704,-0.007 0.17886,0.0279 0.007,0.0353 -0.0123,0.11113 -0.0123,0.11113 l 0.0183,0.007 c 0,0 -0.0374,0.21202 -0.084,0.31785 -0.0462,0.10654 -0.13864,0.28928 -0.13864,0.28928 l 0.15522,0.10724 c 0,0 0.12488,-0.21025 0.16686,-0.34784 0.043,-0.13758 0.0822,-0.34924 0.0822,-0.34924 0,0 0.0437,0.001 0.0575,0.0187 0.0134,0.0162 0.0395,0.0183 0.0395,0.0183 0,0 0.0815,0.005 0.0981,0.0466 0.0155,0.0416 0.0494,0.0751 0.11359,0.0762 0.0646,0.002 0.0917,0 0.10619,-0.0116 0.0138,-0.0116 0.0384,-0.0187 0.0487,-0.012 0.009,0.007 0.0476,0.0413 0.079,0.10371 0.0314,0.0621 0.0469,0.1009 0.0469,0.1009 0,0 0.009,0.025 0.0547,0.009 0.0455,-0.0162 0.13653,-0.0381 0.0928,-0.11466 -0.0423,-0.0755 -0.15169,-0.23742 -0.15169,-0.23742 0,0 -0.0127,-0.0706 0.0815,-0.0579 0.0942,0.0127 0.21978,0.0155 0.21978,0.0155 0,0 0.17004,0.0614 0.29669,0.14605 0.12735,0.084 0.375,0.20426 0.38311,0.20673 0.009,0.004 0.11007,0.0272 0.10584,-0.0681 -0.004,-0.0949 -0.008,-0.097 -0.006,-0.1584 0.002,-0.0614 0.004,-0.0744 0.004,-0.0744"
         id="path51534-5-2-9-3-8-0" />
      <path
         d="m 38.080925,213.48888 c -0.0257,0.0825 -0.0681,0.16546 -0.0942,0.19121 -0.0261,0.0258 -0.13123,0.133 -0.13441,0.15557 -0.003,0.0226 -0.008,0.0564 0.0307,0.0889 0.0388,0.0325 0.0776,0.0402 0.12489,0.0522 0.0473,0.0113 0.23494,-0.0198 0.27093,-0.0554 0.0356,-0.0356 0.0854,-0.12982 0.0991,-0.1524 0.013,-0.0229 0.0109,0.003 0.0109,0.003 l 0.079,-0.0515 c 0,0 0.0148,-0.0794 0.005,-0.0942 -0.01,-0.0141 0.003,-0.0497 -0.005,-0.0773 -0.007,-0.0275 -0.0462,-0.0635 -0.0483,-0.0857 -0.001,-0.0229 0.004,-0.0423 -0.004,-0.0617 -0.006,-0.0198 -0.0307,-0.0328 -0.0381,-0.0388 -0.008,-0.007 -0.0106,-0.0667 -0.0233,-0.0871 -0.0131,-0.0215 -0.003,-0.0169 0.0212,-0.0314 0.0243,-0.0145 0.0695,-0.0709 0.0695,-0.0709 0,0 -0.0565,-0.004 -0.0744,0.001 -0.0176,0.005 -0.0388,0.0176 -0.0388,0.0176 l -0.0247,-0.0113 c 0,0 -0.0109,-0.0455 -0.0402,-0.0663 -0.0293,-0.0212 -0.0437,-0.0829 -0.0437,-0.0829 l 0.0272,-0.0293 -0.048,-0.0529 -0.018,0.007 -0.0243,-0.037 -0.0275,0.002 c 0,0 0.005,-0.19438 -0.01,-0.23953 -0.0152,-0.0455 -0.0811,-0.1083 -0.0861,-0.11536 -0.005,-0.006 -0.007,-0.0709 -0.0258,-0.0808 -0.0201,-0.01 -0.0508,-0.0289 -0.0508,-0.0289 0,0 -0.0222,-0.0847 -0.0127,-0.16404 0.01,-0.0794 -0.0533,-0.39194 -0.0631,-0.43074 -0.009,-0.0392 0.01,-0.1136 0.018,-0.16687 0.008,-0.0533 10e-4,-0.31115 10e-4,-0.31115 l 0.0857,-0.0572 c 0,0 -0.17109,-0.45614 -0.19544,-0.53093 -0.025,-0.0744 -0.0437,-0.1718 -0.0437,-0.1718 0,0 0.0988,-0.19438 0.10019,-0.23812 10e-4,-0.0438 -0.004,-0.0988 0.0279,-0.13583 0.0303,-0.0374 0.0903,-0.24517 0.0547,-0.36971 -0.0353,-0.12488 -0.12171,-0.36935 -0.16651,-0.41169 -0.0455,-0.042 -0.0762,-0.0617 -0.0977,-0.13899 -0.0208,-0.078 -0.0367,-0.14111 -0.11324,-0.17357 -0.0766,-0.0321 -0.133,-0.0293 -0.14746,-0.0483 -0.0141,-0.0198 -0.0402,-0.0346 -0.0628,-0.0346 -0.0233,0 -0.0702,0.0148 -0.0868,0 -0.0152,-0.0141 -0.025,-0.0307 -0.0187,-0.0596 0.006,-0.0289 0.0113,-0.0437 0.0113,-0.0437 l 0.16404,0.003 c 0,0 -0.0572,-0.12594 -0.067,-0.15699 -0.01,-0.0307 0.0684,-0.36653 -0.16369,-0.44414 -0.23177,-0.0773 -0.45331,-0.0582 -0.52316,0.0811 -0.0702,0.13899 -0.0681,0.28187 -0.15276,0.29351 -0.0836,0.0109 0.0684,0.0469 0.0684,0.0469 0,0 0,0.0286 0.0141,0.0321 0.0152,0.004 0.0307,0.0145 0.0138,0.0536 -0.0183,0.0392 -0.0632,0.0988 -0.0265,0.11042 0.0378,0.0113 0.0434,0.0162 0.0434,0.0162 l 0.007,0.024 c 0,0 -0.005,0.0141 10e-4,0.0212 0.007,0.006 0.0279,0.018 0.0279,0.018 l 0.006,0.0303 c 0,0 -0.0208,0.0116 -0.0176,0.0198 0.004,0.008 0.0247,0.0258 0.0148,0.0402 -0.01,0.0145 -0.0243,0.0568 -0.008,0.0716 0.0155,0.0145 0.0871,0.0356 0.0871,0.0356 0,0 -0.078,0.0487 -0.11465,0.084 -0.0377,0.036 -0.067,0.0861 -0.0988,0.11677 -0.0328,0.031 -0.0702,0.0695 -0.0543,0.0988 0.0166,0.0293 0.0215,0.0374 -10e-4,0.0505 -0.0233,0.0123 -0.10583,0.10689 -0.11535,0.1277 -0.01,0.0215 -0.079,0.0744 -0.11677,0.0924 -0.0367,0.0176 -0.073,0.0243 -0.073,0.0243 l -0.13899,-0.007 c 0,0 -0.0215,-0.0275 -0.0423,-0.0321 -0.0208,-0.005 -0.10654,-0.007 -0.10654,-0.007 l -0.0247,0.0388 -0.20884,0.003 c 0,0 -0.0353,-0.0191 -0.0497,-0.0141 -0.0148,0.005 -0.0586,0.005 -0.0586,0.005 l -0.15028,0.008 -0.0653,-0.003 c 0,0 0.0293,0.15558 0.0293,0.17216 v 0.0642 c 0,0 -0.0628,0.0229 -0.0628,0.0423 0,0.0194 0.019,0.0437 0.0155,0.055 -0.004,0.0116 -0.005,0.0402 -0.004,0.0501 0.002,0.0102 0.0152,0.0265 0.013,0.0406 -10e-4,0.0145 0.002,0.0342 0.0123,0.0473 0.009,0.0127 0.007,0.0243 0.007,0.0416 0,0.0183 -0.0102,0.0198 0.0109,0.0328 0.0212,0.0127 0.0229,0.0226 0.0229,0.0226 l 0.14111,0.01 c 0,0 0.036,0.005 0.073,0 0.0374,-0.005 0.0744,-0.0148 0.0744,-0.0148 0,0 0.0279,0.0956 0.0808,0.0956 0.0533,0 0.17568,-0.0907 0.17568,-0.0907 0,0 0.001,-0.0325 0.0759,-0.0134 0.0744,0.0198 0.11783,0.0459 0.15169,0.0473 0.0346,0.001 0.18521,-0.0624 0.21732,-0.0162 0.0328,0.0469 0.0861,0.0279 0.0861,0.0279 0,0 -0.0871,0.25435 -0.0885,0.29316 -0.002,0.0392 0.0173,0.11677 0.0173,0.11677 0,0 -0.11324,0.19579 -0.12947,0.26211 -0.0166,0.0667 -0.0145,0.0667 -0.0293,0.0889 -0.0145,0.0233 -0.0275,0.0684 -0.0505,0.10372 -0.0229,0.036 -0.0229,0.0554 -0.0229,0.0554 l 0.0392,0.0257 c 0,0 -0.2039,0.4572 -0.22331,0.51188 -0.0198,0.0557 -0.15381,0.20955 -0.13793,0.35877 0.0159,0.14887 0.018,0.28998 0.0215,0.30868 0.003,0.0201 0.0212,0.0522 0.009,0.0762 -0.0106,0.0247 -0.0388,0.073 0.002,0.10195 0.0402,0.0296 0.0501,0.025 0.0501,0.0508 0,0.0258 0.0131,0.0501 0.0328,0.066 0.019,0.0166 0.0388,0.16405 0.0388,0.16405 l 0.0307,0.14746 c 0,0 -0.0134,0.024 -0.0247,0.0423 -0.0116,0.0173 -0.006,0.0356 -0.006,0.0356 0,0 -0.0138,0.0335 -0.0388,0.0497 -0.0268,0.0166 -0.0871,0.0956 -0.0871,0.0956 0,0 -0.0688,0.06 -0.0995,0.0681 -0.0307,0.008 -0.15064,0.06 -0.15064,0.06 0,0 -0.12488,0.0243 -0.1344,0.0649 -0.0102,0.0406 -10e-4,0.0776 -10e-4,0.0776 l -0.0116,0.0296 c 0,0 0.12771,0.0385 0.18415,0.0437 0.0568,0.005 0.35525,-0.0931 0.39935,-0.10266 0.043,-0.009 0.0596,-0.0141 0.0818,-0.0109 0.0236,0.003 0.0293,0.0374 0.0293,0.0374 0,0 0.16052,-0.01 0.19932,-0.0194 0.0392,-0.0102 0.0413,-0.0409 0.0413,-0.0409 l -0.006,-0.06 -0.013,-0.0148 c 0,0 0.0554,-0.0885 0.0459,-0.14711 -0.01,-0.0582 -0.0363,-0.12277 -0.0363,-0.12277 0,0 0.004,-0.0928 -0.004,-0.11676 -0.008,-0.0247 0.003,-0.0505 0.003,-0.0695 0,-0.0201 -0.0222,-0.0744 -0.0257,-0.0928 -0.004,-0.018 0.013,-0.10337 0.013,-0.10337 0,0 0.0857,-0.1203 0.0762,-0.15416 -0.01,-0.0342 0.0339,-0.12771 0.0226,-0.15099 -0.0116,-0.0222 -0.0272,-0.0825 -0.0339,-0.10971 -0.007,-0.0279 -0.005,-0.0473 0.009,-0.0797 0.0145,-0.0325 0.0145,-0.0748 0.008,-0.11501 -0.006,-0.0406 -10e-4,-0.0483 0.0762,-0.0804 0.078,-0.0328 0.26212,-0.22049 0.29281,-0.27411 0.0314,-0.0536 0.12982,-0.23036 0.18627,-0.10513 0.0568,0.12418 0.22895,0.55563 0.25611,0.60078 0.0282,0.0452 0.19791,0.3676 0.21449,0.39864 0.0155,0.0307 0.12735,0.10019 0.14252,0.12312 0.0141,0.0226 0.0695,0.17498 0.11783,0.18451 0.0487,0.01 0.12312,0 0.1464,0.0293 0.0226,0.0293 0.12418,0.13299 0.13088,0.14428 0.006,0.0109 0.0236,0.0455 0.0212,0.0663 -0.003,0.0212 0.0275,0.0289 0.0402,0.0321 0.013,0.004 0.013,0.0766 0.013,0.0766"
         id="path51550-7-8-8-2-3" />
      <path
         d="m 37.186145,209.903 c 0.0243,-0.0667 0.0388,-0.11571 -0.0187,-0.12629 -0.0564,-0.0102 -0.31573,-0.0406 -0.32879,-0.0402 -0.0127,0 -0.17674,0.0247 -0.28328,-0.019 -0.10689,-0.0445 -0.0995,-0.0628 -0.15698,-0.0663 -0.0565,-0.004 -0.82056,-0.0134 -0.82056,-0.0134 l 7e-4,-0.0462 -0.0988,-0.002 0.003,-0.036 -0.15487,0.004 c 0,0 -0.0116,-0.0102 -0.0254,-0.006 -0.0131,0.003 -0.0183,0.0134 -0.0183,0.0134 l -0.004,0.0258 -0.0289,0.0452 -0.0857,0.001 -0.005,0.013 -0.73307,-0.0116 -0.0282,0.019 -0.12453,0.0109 c 0,0 -0.0261,-0.0134 -0.0279,0.007 -10e-4,0.0205 0.0176,0.0166 0.0176,0.0166 l 0.0152,-0.005 0.10619,-0.004 0.024,0.019 -0.003,0.0303 -0.31398,-0.005 -0.0268,-0.14887 -0.0639,-0.0138 -0.013,0.13934 -0.0116,0.0141 -0.0325,-3.6e-4 c 0,0 -0.009,0.009 -0.0138,0.0272 -0.005,0.0191 0.0155,0.0363 0.0155,0.0363 l 0.13371,3.6e-4 0.01,-0.005 0.46531,0.0166 0.0797,0.0134 c 0,0 0.40816,0.009 0.4198,0.009 0.0109,3.5e-4 0.0699,0.0243 0.0878,0.024 0.018,-7e-4 0.16969,-0.0159 0.17957,0.0187 0.0102,0.0349 -0.005,0.11113 -0.005,0.11113 l 0.0183,0.006 c 0,0 -0.0265,0.21378 -0.0667,0.32244 -0.0413,0.1083 -0.12383,0.29633 -0.12383,0.29633 l 0.16051,0.0984 c 0,0 0.11325,-0.21554 0.14888,-0.35595 0.0353,-0.1397 0.0635,-0.35313 0.0635,-0.35313 0,0 0.0437,-7.1e-4 0.0582,0.0152 0.0141,0.0166 0.0406,0.0166 0.0406,0.0166 0,0 0.0819,7e-4 0.10055,0.0416 0.0176,0.0413 0.0522,0.0727 0.11677,0.0709 0.0645,-0.002 0.0921,-0.005 0.10583,-0.018 0.0127,-0.0116 0.0367,-0.0208 0.0473,-0.0145 0.0106,0.006 0.0501,0.0388 0.0843,0.0995 0.0346,0.061 0.0533,0.0981 0.0533,0.0981 0,0 0.009,0.0251 0.0543,0.006 0.0444,-0.019 0.13406,-0.0455 0.0868,-0.11924 -0.0466,-0.0737 -0.16405,-0.22931 -0.16405,-0.22931 0,0 -0.0159,-0.0695 0.078,-0.0621 0.0952,0.008 0.22119,0.005 0.22119,0.005 0,0 0.17286,0.0519 0.30374,0.12947 0.13159,0.0773 0.38523,0.18451 0.3937,0.18733 0.008,0.002 0.11113,0.0205 0.10195,-0.0741 -0.01,-0.0945 -0.013,-0.0967 -0.0145,-0.15805 -7.1e-4,-0.0614 0,-0.0744 0,-0.0744"
         id="path51554-3-0-1-0-4" />
      <path
         d="m 40.559755,213.19816 c -0.006,-0.0624 -0.0847,-0.24659 -0.0928,-0.27093 -0.007,-0.0247 -0.005,-0.0434 -0.005,-0.0575 0,-0.0134 -0.13829,-0.15135 -0.15699,-0.18698 -0.0194,-0.0349 -0.0222,-0.18415 -0.0293,-0.24624 -0.009,-0.0624 -0.055,-0.11112 -0.0794,-0.13864 -0.024,-0.0272 -0.0596,-0.20038 -0.0596,-0.22789 0,-0.0272 -0.11642,-0.52564 -0.133,-0.53693 -0.0159,-0.0109 -0.049,-0.0162 -0.0868,-0.0183 -0.0381,-0.003 -0.0409,-0.0166 -0.0409,-0.0166 v -0.0519 l -0.0564,-0.0162 c 0,0 -0.0328,-0.10266 0.03,-0.19191 0.0624,-0.09 0.0995,-0.44238 0.0995,-0.44238 0,0 -0.18944,-0.0924 -0.31926,-0.14641 -0.13018,-0.0543 -0.37219,-0.10336 -0.39864,-0.1083 -0.0272,-0.006 -0.15205,-0.13829 -0.17392,-0.21978 -0.0212,-0.0811 -0.12136,-0.38806 -0.12418,-0.45544 -0.003,-0.0677 0.0974,-0.29315 0.133,-0.39052 0.0346,-0.0981 0.024,-0.0924 0.024,-0.0924 l 0.28433,-0.0325 0.24201,0.11924 0.0593,-0.054 c 0.03,-0.0272 0.0409,-0.03 0.06,-0.0811 0.019,-0.0519 0.12418,-0.0952 0.13864,-0.10866 0.0127,-0.0134 0.007,-0.049 -0.0173,-0.11147 -0.0236,-0.0621 -0.0402,-0.1651 -0.0402,-0.1651 0,0 -0.0621,-0.0191 -0.0787,-0.0381 -0.0159,-0.019 -0.0159,-0.0409 -0.0762,-0.0974 -0.0593,-0.0571 0.0324,-0.13335 0.0628,-0.17428 0.03,-0.0402 0.0512,-0.15169 0.084,-0.20531 0.0317,-0.0547 0.15135,-0.10302 0.37959,-0.0815 0.2279,0.0212 0.26529,0.11923 0.27658,0.17885 0.0106,0.0596 0.0596,0.32774 0.0952,0.39088 0.0349,0.0617 0.005,0.0536 -0.0272,0.0536 -0.0328,0 -0.0952,-0.0106 -0.0952,-0.0106 0,0 -0.008,0.005 -0.0272,0.0353 -0.0187,0.0296 -0.008,0.0515 0.006,0.0593 0.0138,0.009 0.0459,-0.008 0.11112,-0.0265 0.0649,-0.0194 0.127,0.0455 0.15699,0.0646 0.03,0.019 0.084,0.0113 0.10583,0.0141 0.0219,0.002 0.12665,0.0974 0.133,0.12982 0.006,0.0321 0.0487,0.0515 0.0649,0.0734 0.0162,0.0212 0.0483,0.0321 0.084,0.0617 0.0353,0.0303 0.0272,0.11395 0.0628,0.13053 0.0349,0.0162 0.18169,0.26282 0.23072,0.29034 0.0483,0.0272 0.0483,0.084 0.0646,0.14605 0.0166,0.0624 0.0896,0.11924 0.11395,0.1711 0.0243,0.0512 0.0134,0.1464 -0.0159,0.21978 -0.03,0.073 -0.16616,0.127 -0.21166,0.13793 -0.0466,0.0106 -0.1577,0.0624 -0.1577,0.0624 l 0.0628,0.0568 -0.0328,0.0681 c 0,0 0.10301,-0.0272 0.13758,-0.03 0.0356,-0.002 0.0494,0.0568 0.0631,0.10619 0.0134,0.0483 0.0272,0.23812 0.0572,0.38735 0.0293,0.14887 -0.1083,0.23318 -0.1083,0.23318 0,0 -0.003,0.0296 0,0.0409 0.002,0.0106 -0.03,0.0649 -0.0522,0.0864 -0.0215,0.0219 -0.0628,-0.006 -0.0628,-0.006 0,0 0.0113,0.036 -0.0155,0.06 -0.0275,0.024 -0.12206,0.0353 -0.12206,0.0353 0,0 -0.008,0.0325 -0.008,0.0437 0,0.0106 -0.0646,0.10831 -0.0702,0.12736 -0.005,0.0187 0.0321,0.10512 -0.008,0.20602 -0.0409,0.0998 -0.10866,0.17886 -0.11889,0.19191 -0.0113,0.0141 -0.0328,0.10619 -0.0328,0.10619 0,0 0.0515,0.0868 0.0293,0.127 -0.0215,0.0413 -0.0155,0.0981 -0.0155,0.0981 0,0 0.11889,0.10548 0.18168,0.21695 0.0621,0.11113 0.12488,0.0893 0.18062,0.11677 0.0575,0.0268 0.03,0.0759 0.03,0.0759 0,0 0.0656,0.0325 0.11677,0.0621 0.0522,0.0296 0.0628,0.10866 0.0628,0.10866 0,0 0.0215,0.0378 0.0402,0.0734 0.0194,0.0349 -0.0759,0.16263 -0.0759,0.16263 h -0.048 c 0,0 -0.006,0.0677 -0.004,0.0917 0.004,0.0247 -0.0625,0.18697 -0.11113,0.24448 -0.0487,0.0568 -0.13829,0.0593 -0.24412,0.0568 -0.10548,-0.003 -0.0416,0 -0.10019,0.1083 -0.0536,0.10019 -0.15769,0.18697 -0.35242,0.18697 -0.19544,0 -0.043,-0.17604 0.0459,-0.30374 0.0896,-0.127 0.0194,-0.17321 0.0137,-0.2734 0,0 -0.0324,-0.14111 -0.0374,-0.20356 m -0.81139,-2.74955 c -0.005,-0.0381 0.0109,-0.084 0.0381,-0.0868 0.0272,-0.002 0.0494,0.008 0.0536,-0.0106 0.006,-0.019 -0.0317,-0.13264 -0.0317,-0.13264 0,0 -0.14675,0.16475 -0.17603,0.18697 -0.03,0.0215 -0.15522,0.0836 -0.17957,0.0836 -0.0236,0 -0.12982,-0.024 -0.15169,-0.0758 -0.0208,-0.0515 -0.0243,-0.0762 -0.0462,-0.12453 -0.0212,-0.0487 -0.0293,-0.0787 -0.0155,-0.10865 0.0127,-0.03 0.0106,-0.0624 0.008,-0.0783 -0.002,-0.0166 0,-0.0758 0.0159,-0.0952 0.0173,-0.019 -0.006,-0.0243 -0.008,-0.0568 -0.003,-0.0325 -0.0349,-0.0515 0.0109,-0.10266 0.0466,-0.0519 0.079,-0.13088 0.079,-0.13088 l -0.0325,-0.0378 c 0,0 -0.03,-0.0187 -0.0494,-0.0353 -0.0183,-0.0159 -0.0459,-0.0434 -0.0487,-0.073 -0.002,-0.03 -0.002,-0.0977 -0.002,-0.0977 l -0.049,-0.0219 c 0,0 -0.0568,0.15204 -0.0674,0.18168 -0.0113,0.0303 -0.0572,0.0815 -0.0596,0.14111 -0.004,0.06 -0.0356,0.17074 0.03,0.35807 0.0649,0.18732 0.0621,0.26564 0.10759,0.30409 0.0466,0.0374 0.12771,0.073 0.19262,0.0864 0.0656,0.0134 0.26353,0.0512 0.33373,0.0977 0.0702,0.0455 0.084,0.0406 0.084,0.0406 -0.0183,-0.0624 -0.0293,-0.17392 -0.0353,-0.21167 m 1.16346,2.7873 c -0.002,0.0381 0.0219,0.19862 0.024,0.21167 0.004,0.0138 0.0656,-0.0734 0.0765,-0.0998 0.0106,-0.0272 0.03,-0.0684 0.0353,-0.0928 0.005,-0.024 0,-0.0677 0.005,-0.084 0.006,-0.0162 -0.15699,-0.15452 -0.15699,-0.15452 0.008,0.0564 0.019,0.18168 0.0162,0.21943"
         id="path51558-0-7-1-3-4" />
      <path
         d="m 40.754945,210.51726 c 0.0564,-0.0423 0.0952,-0.0755 0.0533,-0.11536 -0.0416,-0.0395 -0.24306,-0.20602 -0.254,-0.21308 -0.0106,-0.007 -0.16157,-0.0755 -0.22719,-0.17039 -0.0656,-0.0953 -0.0497,-0.10654 -0.0949,-0.14146 -0.0466,-0.0342 -0.68086,-0.4572 -0.68086,-0.4572 l 0.0243,-0.0384 -0.0811,-0.0561 0.0215,-0.0289 -0.13229,-0.0815 c 0,0 -0.004,-0.0145 -0.0169,-0.0183 -0.013,-0.004 -0.0233,0.001 -0.0233,0.001 l -0.0169,0.019 -0.0494,0.0229 -0.0727,-0.0459 -0.0106,0.008 -0.60854,-0.40923 -0.0335,0.001 -0.11112,-0.0596 c 0,0 -0.0145,-0.025 -0.0268,-0.009 -0.012,0.0162 0.005,0.0233 0.005,0.0233 l 0.0159,0.004 0.0921,0.0543 0.01,0.0286 -0.0187,0.025 -0.2607,-0.17533 0.0579,-0.14005 -0.0459,-0.0459 -0.0864,0.11007 -0.0173,0.005 -0.0272,-0.0183 c 0,0 -0.0123,0.003 -0.0268,0.0162 -0.0141,0.0127 -0.006,0.0385 -0.006,0.0385 l 0.11254,0.0734 0.01,3.5e-4 0.38136,0.26811 0.06,0.0543 c 0,0 0.33796,0.23001 0.34678,0.23601 0.009,0.007 0.0452,0.0589 0.0607,0.0684 0.0159,0.009 0.15099,0.079 0.14111,0.11324 -0.0106,0.0349 -0.066,0.0903 -0.066,0.0903 l 0.0131,0.0155 c 0,0 -0.13829,0.16475 -0.23213,0.23319 -0.0931,0.0688 -0.26493,0.18133 -0.26493,0.18133 l 0.0808,0.17004 c 0,0 0.21308,-0.11924 0.31892,-0.21732 0.10583,-0.0977 0.24553,-0.2614 0.24553,-0.2614 0,0 0.0363,0.0226 0.0402,0.0448 0.004,0.0212 0.0254,0.036 0.0254,0.036 0,0 0.0681,0.0448 0.0614,0.0889 -0.007,0.0441 0.005,0.0896 0.06,0.12312 0.0543,0.0339 0.0801,0.0462 0.0981,0.043 0.0173,-0.004 0.0427,0.003 0.0473,0.0134 0.006,0.0109 0.0212,0.0596 0.0173,0.12946 -0.004,0.0695 -0.01,0.11078 -0.01,0.11078 0,0 -0.006,0.0261 0.043,0.0353 0.0476,0.008 0.13687,0.0346 0.13758,-0.0529 7e-4,-0.0871 -0.0131,-0.28117 -0.0131,-0.28117 0,0 0.025,-0.0677 0.0998,-0.01 0.0751,0.0582 0.18239,0.12383 0.18239,0.12383 0,0 0.11677,0.13793 0.18485,0.27446 0.0677,0.13652 0.2219,0.36406 0.22755,0.37112 0.006,0.007 0.0822,0.0783 0.12523,-0.006 0.0445,-0.0847 0.043,-0.0878 0.0751,-0.14005 0.0321,-0.0522 0.0402,-0.0631 0.0402,-0.0631"
         id="path51562-4-0-3-70-1" />
      <path
         d="m 42.721295,211.01274 c 0,0 0.005,0.0314 0.0229,0.048 0.0194,0.0155 0.0639,0.0155 0.0639,0.0155 0,0 0.0349,0.0102 0.0469,0.0159 0.0138,0.005 0.0346,-0.008 0.048,-0.008 0.0138,0 0.031,0.018 0.0476,0.0208 0.0155,0.002 0.0314,-0.0152 0.0452,-0.0152 0.012,0 0.012,0.005 0.0335,0.0102 0.0208,0.005 0.0557,-0.0296 0.0557,-0.0296 l 0.18415,-0.0314 0.0766,0.0314 -0.084,0.51082 -0.008,0.0564 0.0441,0.0159 c 0,0 0.003,0.4318 0.0138,0.51929 0.0106,0.0864 0.0134,0.29492 0.0843,0.38206 0.0709,0.0868 0.18486,0.21837 0.20038,0.2607 0.0159,0.0423 0.079,0.10054 0.12347,0.10795 0.0452,0.008 0.17145,0.0109 0.22401,0.0956 0.0529,0.0836 0.15311,0.11818 0.15311,0.11818 0,0 0.0688,0.079 0.0797,0.0995 0.01,0.0219 0.12065,0.0928 0.11783,0.11959 -0.002,0.0258 0.0325,0.2607 0.006,0.31044 -0.0268,0.0505 -0.0921,0.12983 -0.0822,0.18698 0.0109,0.0582 0.0473,0.0635 0.0473,0.0635 l 0.0166,0.0289 c 0,0 0.11888,0.0423 0.20037,-0.0445 0.0811,-0.0875 0.11042,-0.17392 0.13194,-0.21379 0.0205,-0.0395 0.0497,-0.15839 0.0497,-0.15839 l 0.0261,0.0183 c 0,0 0.0924,-0.13653 0.0265,-0.21097 -0.0656,-0.0737 -0.0949,-0.0966 -0.0949,-0.0966 0,0 -0.013,0.0155 -0.0448,-0.0194 -0.0314,-0.0332 -0.11536,-0.12313 -0.11536,-0.12313 0,0 -0.085,-0.1217 -0.10583,-0.13476 -0.0215,-0.0127 -0.0582,-0.0864 -0.0794,-0.0974 -0.0208,-0.0106 -0.0921,-0.0952 -0.0921,-0.12664 0,-0.031 0.0183,-0.11042 -0.0183,-0.14253 -0.037,-0.0314 -0.0554,-0.0967 -0.0896,-0.11888 -0.0349,-0.0208 -0.0505,-0.0917 -0.055,-0.13617 -0.006,-0.0452 -0.0508,-0.0896 -0.0663,-0.10301 -0.0159,-0.0131 -0.0212,-0.0314 0.0102,-0.12383 0.0317,-0.0924 0.0504,-0.21131 0.0949,-0.27411 0.0452,-0.0632 0.0579,-0.0716 0.0579,-0.0716 0,0 0.19544,0.31926 0.21626,0.3616 0.0215,0.0423 0.15839,0.2734 0.1845,0.31326 0.0268,0.0395 0.0691,0.0469 0.0928,0.1771 0.0233,0.12876 0.13935,0.15522 0.16581,0.19755 0.0268,0.0416 0.0765,0.11889 0.12629,0.15276 0.0501,0.0342 0.0949,0.0684 0.0949,0.0684 0.0663,0.10301 0.17674,0.21907 0.21943,0.26881 0.0413,0.0501 0.0917,0.13723 0.0917,0.13723 l 0.024,0.0159 c 0,0 0.013,0.13159 -0.003,0.16616 -0.0155,0.0335 -0.0476,0.0705 -0.0579,0.12665 -0.0106,0.0543 0,0.0653 0,0.0653 l -0.0106,0.0293 c 0,0 0.13476,0.0392 0.20037,0.0268 0.0653,-0.0138 0.1584,-0.0875 0.1584,-0.0875 l 0.078,-0.0818 c 0,0 -0.0229,-0.0635 -0.0229,-0.084 0,-0.0212 0,-0.0765 -0.0183,-0.0977 -0.0183,-0.0208 -0.079,-0.12947 -0.079,-0.12947 0,0 0.0127,-0.0818 -0.0395,-0.12629 -0.0529,-0.0452 -0.0794,-0.16334 -0.0843,-0.19721 -0.005,-0.0349 -0.0162,-0.14816 -0.0529,-0.17215 -0.0374,-0.0229 -0.0554,-0.0526 -0.0526,-0.12065 0.002,-0.0691 -0.008,-0.10584 -0.0399,-0.13229 -0.0314,-0.0257 -0.0395,-0.0995 -0.0504,-0.16052 -0.0102,-0.0607 -0.005,-0.10583 -0.073,-0.14746 -0.0692,-0.0423 -0.10302,-0.12947 -0.11395,-0.2219 -0.0102,-0.0914 -0.0921,-0.30515 -0.11854,-0.34995 -0.0265,-0.0452 -0.0445,-0.21378 -0.0445,-0.21378 0,0 0.0476,0.0102 0.0607,-0.0155 0.0131,-0.0265 0.005,-0.0744 0.005,-0.0744 0,0 0.0416,-0.036 0.0416,-0.0811 0,-0.0444 -0.0159,-0.1023 -0.0159,-0.1023 0,0 0.11359,-0.0452 0.0794,-0.18239 -0.0342,-0.13723 -0.11324,-0.25294 -0.11888,-0.29809 -0.005,-0.0444 -0.0441,-0.21308 -0.11501,-0.20038 -0.072,0.0134 -0.15099,0.042 -0.15099,0.042 0,0 0.13159,-0.1651 0.17392,-0.21837 0.0427,-0.0529 0.0427,-0.055 0.0892,-0.1845 0.048,-0.12983 0.0582,-0.18204 0.0243,-0.22366 -0.0342,-0.0427 -0.0635,-0.0977 -0.0794,-0.14464 -0.0159,-0.048 -0.13441,-0.20885 -0.15557,-0.24342 -0.0205,-0.0339 -0.1577,-0.18944 -0.16863,-0.21061 -0.0102,-0.0212 -0.0102,-0.0656 -0.0628,-0.11077 -0.0533,-0.0452 -0.15557,-0.13229 -0.20073,-0.1397 -0.0448,-0.008 -0.0868,-0.0159 -0.10019,-0.0212 -0.0131,-0.005 0.024,-0.0783 -0.0388,-0.10795 -0.0646,-0.0293 -0.13794,-0.037 -0.17498,-0.0818 -0.0367,-0.0444 -0.1337,-0.0607 -0.15275,-0.0607 h -0.0388 c 0,0 0.007,-0.0526 -0.005,-0.0864 -0.0138,-0.0342 -0.0529,-0.061 -0.0529,-0.061 0,0 -0.0847,-0.36125 -0.30585,-0.3556 -0.2219,0.006 -0.35349,-0.0187 -0.46391,0.16334 -0.11042,0.18203 -0.11606,0.36089 -0.11606,0.36089 0,0 0.0452,0.0155 0.0635,0.0236 0.0183,0.008 0.0318,-0.008 0.0395,0.024 0.008,0.0317 0.0473,0.0526 0.0473,0.0526 0,0 0.0339,0.0822 0.0452,0.10301 0.0109,0.0208 0.031,0.0875 0.0469,0.12629 0.0162,0.0399 0.037,0.0892 0.0579,0.0977 0.0212,0.008 0.0427,0.008 0.0427,0.008 0,0 -0.1136,0.13723 -0.12383,0.1711 -0.0109,0.0335 -0.0452,0.25012 -0.0579,0.28716 -0.0138,0.0374 -0.0639,0.10548 -0.0554,0.14817 0.007,0.0413 0.002,0.1203 -0.006,0.1711 -0.008,0.0497 -0.042,0.14463 -0.0469,0.17109 -0.005,0.0261 0.0176,0.0416 0.0205,0.0554 0.003,0.0134 -0.0286,0.037 -0.0473,0.055 -0.0183,0.0187 -0.0208,0.0794 -0.0339,0.0924 -0.0134,0.0127 -0.0377,0.0155 -0.0452,0.0342 -0.008,0.0183 0.0131,0.0557 -0.0109,0.0875 -0.0233,0.0314 -0.10478,0.0653 -0.10478,0.0917 0,0.0261 0.0155,0.0713 0.0155,0.0713 0,0 -0.0183,0.0293 -0.037,0.0632 -0.0183,0.0342 -0.0395,0.0501 -0.0314,0.0667 z"
         id="path51574-7-7-0-57-1" />
      <path
         d="m 44.987545,210.51927 c 0.006,-0.0709 0.007,-0.12171 -0.0512,-0.11677 -0.0575,0.006 -0.31574,0.0448 -0.32809,0.0487 -0.012,0.004 -0.16368,0.0702 -0.27798,0.0564 -0.11501,-0.0141 -0.11254,-0.0342 -0.16899,-0.0222 -0.0554,0.0116 -0.79445,0.20426 -0.79445,0.20426 l -0.0116,-0.0441 -0.096,0.0236 -0.007,-0.0353 -0.14852,0.0444 c 0,0 -0.0141,-0.007 -0.0258,0.001 -0.0116,0.007 -0.0141,0.018 -0.0141,0.018 l 0.003,0.0258 -0.0159,0.0511 -0.0822,0.024 -0.001,0.0141 -0.71014,0.18309 -0.0222,0.0254 -0.11712,0.0441 c 0,0 -0.0289,-0.007 -0.0254,0.0141 0.004,0.0198 0.0215,0.0109 0.0215,0.0109 l 0.0134,-0.008 0.10195,-0.0321 0.0279,0.0116 0.005,0.0303 -0.30444,0.078 -0.0646,-0.13617 -0.066,0.004 0.0247,0.13723 -0.007,0.0169 -0.0317,0.008 c 0,0 -0.006,0.0109 -0.006,0.03 0,0.019 0.0243,0.0307 0.0243,0.0307 l 0.12912,-0.0346 0.008,-0.008 0.45297,-0.10795 0.0808,-0.008 c 0,0 0.39581,-0.0995 0.40675,-0.10231 0.0109,-0.003 0.0737,0.005 0.0917,-3.5e-4 0.0166,-0.005 0.15875,-0.0603 0.1778,-0.0293 0.019,0.0307 0.024,0.10901 0.024,0.10901 l 0.0194,7.1e-4 c 0,0 0.031,0.21272 0.0208,0.32808 -0.0106,0.11571 -0.0402,0.31856 -0.0402,0.31856 l 0.18027,0.0522 c 0,0 0.0526,-0.23813 0.0497,-0.38241 -0.003,-0.14394 -0.0328,-0.35772 -0.0328,-0.35772 0,0 0.042,-0.0124 0.06,0 0.0187,0.012 0.0437,0.005 0.0437,0.005 0,0 0.0794,-0.0212 0.10795,0.0134 0.0279,0.0353 0.0699,0.0557 0.13123,0.037 0.0621,-0.0187 0.0878,-0.0293 0.0974,-0.0448 0.01,-0.0152 0.03,-0.03 0.0423,-0.0268 0.0116,0.003 0.0582,0.0243 0.10725,0.0734 0.0497,0.0494 0.0773,0.0808 0.0773,0.0808 0,0 0.0159,0.0212 0.0543,-0.008 0.0377,-0.03 0.11677,-0.0794 0.0519,-0.13829 -0.0642,-0.0586 -0.21837,-0.17745 -0.21837,-0.17745 0,0 -0.0346,-0.0628 0.0586,-0.0804 0.0938,-0.0173 0.21449,-0.054 0.21449,-0.054 0,0 0.18027,0.004 0.32703,0.0437 0.14746,0.0402 0.4198,0.0762 0.42898,0.0762 0.009,0 0.11288,-0.009 0.0787,-0.0981 -0.0342,-0.0889 -0.0381,-0.0896 -0.0557,-0.14851 -0.0166,-0.0589 -0.0198,-0.072 -0.0198,-0.072"
         id="path51578-6-6-1-47-0" />
    </g>
  </g>
</svg>
