<?xml version="1.0" encoding="UTF-8" standalone="no"?>
<!-- Created with Inkscape (http://www.inkscape.org/) -->

<svg
   width="28.84712mm"
   height="8.4269104mm"
   viewBox="0 0 28.84712 8.4269109"
   version="1.1"
   id="svg33402"
   sodipodi:docname="inkporter-svg-e7qp_36f.svg"
   inkscape:version="1.1.1 (3bf5ae0d25, 2021-09-20)"
   xmlns:inkscape="http://www.inkscape.org/namespaces/inkscape"
   xmlns:sodipodi="http://sodipodi.sourceforge.net/DTD/sodipodi-0.dtd"
   xmlns="http://www.w3.org/2000/svg"
   xmlns:svg="http://www.w3.org/2000/svg">
  <sodipodi:namedview
     id="namedview555"
     pagecolor="#ffffff"
     bordercolor="#666666"
     borderopacity="1.0"
     inkscape:pageshadow="2"
     inkscape:pageopacity="0.0"
     inkscape:pagecheckerboard="0"
     inkscape:document-units="mm"
     showgrid="false"
     inkscape:zoom="0.32"
     inkscape:cx="889.0625"
     inkscape:cy="4120.3125"
     inkscape:window-width="1920"
     inkscape:window-height="1017"
     inkscape:window-x="-8"
     inkscape:window-y="-8"
     inkscape:window-maximized="1"
     inkscape:current-layer="svg33402" />
  <defs
     id="defs13927" />
  <path
     d="m 26.73466,5.93129 0.007,0.019 0.14605,0.0116 0.0106,0.10548 -0.19297,0.0819 -0.0402,0.29069 0.18591,0.0215 -0.0314,0.11324 -0.22896,0.0699 -0.0508,0.0794 -0.0487,0.0977 0.0924,0.11783 -0.0684,0.0804 -0.1898,-0.09 -0.23248,0.16757 0.11113,0.15522 -0.10125,0.0536 -0.19896,-0.0952 -0.16581,0.12241 0.0815,0.13053 -0.0716,0.0769 -0.18486,-0.10054 -0.2413,0.15522 0.10301,0.16122 -0.10407,0.0473 -0.19332,-0.10583 -0.13935,0.0921 0.067,0.14182 -0.078,0.0702 -0.17569,-0.11677 -0.25329,0.13265 0.0885,0.17003 -0.10725,0.0374 -0.18344,-0.12206 -0.18168,0.0977 0.0148,0.14711 -0.0998,0.0296 -0.11148,-0.18239 -0.28363,0.01 0.0109,0.19262 -0.11289,-0.0124 -0.11676,-0.19156 -0.11713,0.006 -0.079,0.0434 0.01,0.15063 -0.10054,0.0258 -0.10513,-0.18627 h -0.28434 l 0.005,0.19297 -0.11254,-0.0162 -0.11006,-0.19544 h -0.14923 l -0.0497,0.0275 0.01,0.15064 -0.10018,0.0257 -0.10513,-0.18627 h -0.28399 l 0.005,0.19297 -0.11254,-0.0162 -0.11042,-0.19544 h -0.12876 l -0.0501,0.0275 0.009,0.15064 -0.0998,0.0258 -0.10548,-0.18627 h -0.28399 l 0.005,0.19297 -0.11289,-0.0162 -0.10971,-0.19543 h -0.14923 l -0.0497,0.0275 0.009,0.15064 -0.0998,0.0258 -0.10548,-0.18627 h -0.28399 l 0.005,0.19297 -0.11254,-0.0162 -0.11006,-0.19544 h -0.16299 l -0.0497,0.0275 0.0102,0.15064 -0.10089,0.0258 -0.10513,-0.18626 h -0.28363 l 0.004,0.19297 -0.11254,-0.0162 -0.11006,-0.19544 h -0.14923 l -0.0501,0.0275 0.01,0.15063 -0.0998,0.0257 -0.10583,-0.18626 h -0.28364 l 0.005,0.19297 -0.11254,-0.0162 -0.11006,-0.19544 h -0.12065 l -0.0501,0.0275 0.01,0.15063 -0.0998,0.0258 -0.10583,-0.18627 H 17.4442 l 0.005,0.19297 -0.11254,-0.0162 -0.10936,-0.19544 h -0.14993 l -0.0494,0.0275 0.01,0.15064 -0.10054,0.0257 -0.10584,-0.18627 h -0.28363 l 0.005,0.19297 -0.11254,-0.0162 -0.11007,-0.19544 h -0.16474 l -0.0494,0.0275 0.01,0.15064 -0.10054,0.0258 -0.10512,-0.18627 h -0.28434 l 0.005,0.19297 -0.11254,-0.0162 -0.10971,-0.19543 h -0.14958 l -0.0497,0.0275 0.01,0.15064 -0.10054,0.0258 -0.10548,-0.18627 h -0.28398 l 0.005,0.19297 -0.11218,-0.0162 -0.11007,-0.19544 h -0.13758 l -0.0501,0.0275 0.01,0.15064 -0.10054,0.0257 -0.10548,-0.18626 h -0.28399 l 0.005,0.19297 L 13.7472,8.40034 13.63749,8.2049 h -0.14923 l -0.0501,0.0275 0.0102,0.15063 -0.10089,0.0257 -0.10513,-0.18626 h -0.28399 l 0.005,0.19297 -0.11254,-0.0162 -0.11006,-0.19544 -0.25153,0.004 0.004,0.1337 -0.1009,0.0226 -0.0991,-0.19015 -0.28363,-0.0106 -0.002,0.19262 -0.11183,-0.0205 -0.10336,-0.19932 -0.15346,-0.0459 -0.0519,0.004 -0.0554,0.14041 -0.10125,-0.0226 -0.0152,-0.2152 -0.25506,-0.12876 -0.078,0.17533 -0.0942,-0.0656 -0.0162,-0.22507 -0.15875,-0.0783 h -0.0515 l -0.06,0.13793 -0.10019,-0.0257 -0.008,-0.21555 -0.25047,-0.13829 -0.0832,0.17251 -0.0924,-0.0691 -0.008,-0.22543 -0.2141403,-0.11641 -0.0646,0.13546 -0.0995,-0.0296 -7.1e-4,-0.21555 -0.24623,-0.14711 -0.0893,0.16969 -0.0892,-0.0727 -7.1e-4,-0.22402 -0.066,-0.0402 -0.10689,-0.0617 -0.13829,0.12136 -0.0765,-0.072 0.0907,-0.19403 -0.1584,-0.24342 -0.15205,0.11184 -0.0501,-0.10549 0.0953,-0.20355 -0.003,-0.03 -0.0917,-0.20179 -0.14534,-0.0215 -0.003,-0.10654 0.19862,-0.0677 0.0593,-0.28681 -0.18415,-0.0353 0.0395,-0.10971 0.20779,-0.0713 0.12418,-0.20355 -0.11818,-0.1016 0.0409,-0.0949 -0.29422,-0.0205 V 4.41202 c 0,0 0.13335,-0.23495 0.57291,-0.43039 0.22472,-0.0998 0.51965,-0.13688 0.7546,-0.14887 L 10.11555,3.66413 v -0.0656 h 0.018 v -0.0378 h -0.0702 c -0.0804,0 -0.1449903,-0.067 -0.1449903,-0.15028 V 3.22101 c 0,-0.0833 0.0646,-0.15028 0.1449903,-0.15028 h 0.22507 c 0.0801,0 0.145,0.067 0.145,0.15028 v 0.18944 c 0,0.0751 -0.0529,0.13723 -0.12277,0.14852 v 0.0395 h 0.0233 v 0.0511 l 0.1898,0.19685 h 0.10618 L 11.32067,3.35571 V 3.20472 l 0.0681,-0.1143 0.49636,-0.35066 C 11.7486,2.70346 11.62266,2.62511 11.62266,2.62511 V 2.472 L 1.78475,2.31784 1.72685,2.36684 1.43934,2.37184 1.16523,2.41034 0.82021,2.60648 0.64629,2.51368 H 0.14464 L 0,2.33412 0.01,1.9122 0.17122,1.78132 H 0.651 l 0.19015,-0.13088 0.33478,0.24553 0.27446,0.0325 h 0.28716 l 0.0363,0.0416 9.84885,-0.0367 V 1.76686 c 0,0 0.19156,-0.1397 0.41663,-0.16263 0.22543,-0.0233 0.66463,-0.14958 0.9779,-0.35842 0.31362,-0.20955 0.39229,-0.36054 0.53904,-0.32561 0.1457,0.0346 0.1457,0.11606 0.11219,0.27904 -0.003,0.0152 -0.006,0.0349 -0.01,0.0582 h 0.32561 l 0.31292,-0.22119 0.25894,-0.0229 0.18062,-0.11607 0.10125,0.0575 h 0.0762 l 0.14746,-0.32562 0.22472,-0.004 v -0.0663 h 0.39229 v 0.0603 h 0.0561 V 0.2244 h 0.30444 v 0.39017 l 0.36019,-0.006 V 0.43359 h 0.57221 l 0.0451,0.10478 0.47096,-0.0473 0.0903,-0.0575 h 0.32667 l 0.11254,0.0699 h 0.24553 V 0.259 h 0.47343 L 18.77544,0.255 18.76744,0.1777 18.6609,0.1827 18.6559,0.0942 19.54172,0 l 0.0155,0.0889 -0.0811,0.0155 v 0.09 l 0.19261,-0.0173 0.0561,0.0815 H 20.1845 V 0.00283 h 0.29281 v 0.18592 l 0.11289,0.0699 h 0.22331 l 0.16898,0.11888 0.18027,-0.0145 0.13229,0.19579 h 0.19261 l 1.13524,1.70497 -0.10124,0.11078 0.0896,0.13335 h 0.48295 v -0.0815 h 0.25894 v 0.0815 h 0.13512 V 2.36857 h 0.13511 v -0.0466 h 0.0448 V 2.21931 h 0.16934 v 0.10266 h 0.0339 v 0.18592 h 0.0988 v -0.0815 h 0.16475 l 0.0833,-0.16263 h 1.85385 l 0.0692,0.16263 h 0.14534 v -0.0579 h 0.14429 v 0.0579 h 0.10089 V 2.32197 H 27.206 v 0.10442 h 0.15734 v 0.0815 H 27.7327 V 2.30645 h 0.30127 v 0.19297 h 0.13123 c 0,0 0.007,-0.0212 0.22119,-0.15699 0.21449,-0.13546 0.46073,-0.11147 0.46073,-0.11147 v 0.23248 c 0,0 -0.10054,0 -0.25259,0.0286 -0.0988,0.0187 -0.2032,0.0907 -0.26423,0.13935 v 0.15557 l 0.39441,0.2212 -0.56797,1.02728 h 0.14005 V 4.16421 H 28.08547 L 27.9493,4.4108 h -0.57644 v 0.096 L 27.18342,4.72093 V 5.30372 H 27.06418 V 5.6699 h -0.40463 l 0.0815,0.25153 z M 25.55038,7.27361 25.71795,7.1519 25.69965,7.1064 c -0.19086,0 -0.3676,-0.0631 -0.51118,-0.17039 -0.024,0.16334 -0.0773,0.3175 -0.1531,0.45614 l 0.10654,0.12595 0.17145,-0.0967 -0.11395,-0.31715 0.13476,-0.0512 z m -0.71226,0.42333 0.10619,-0.0674 -0.0229,-0.0628 c -0.0388,0.0501 -0.0811,0.0977 -0.127,0.14146 z m -1.27317,0.34855 0.11289,0.004 c -0.0392,-0.007 -0.0787,-0.0166 -0.11712,-0.0279 z m -0.42545,0 0.20143,-0.006 0.0148,-0.0995 c -0.0981,-0.048 -0.18909,-0.10866 -0.27199,-0.17992 l -0.019,0.0162 z m -0.4632,0.0226 0.19509,0.012 0.0392,-0.19438 c -0.0769,0.0469 -0.15875,0.0861 -0.24448,0.11536 z m -0.89676,0 0.19544,0.012 0.008,-0.0413 c -0.0755,-0.0169 -0.14887,-0.0406 -0.21907,-0.0702 z m -0.4124,-0.0145 h 0.18768 l 0.0342,-0.1778 c -0.061,-0.0381 -0.11818,-0.0808 -0.1718,-0.12806 -0.0328,0.0282 -0.0667,0.0557 -0.1016,0.0808 z m -0.46461,0.0145 0.19509,0.012 0.0275,-0.13652 c -0.073,0.0349 -0.14958,0.0639 -0.22896,0.0847 z m -0.89711,0 0.19544,0.012 0.0127,-0.0646 c -0.0804,-0.0247 -0.15769,-0.0564 -0.23107,-0.0959 z m -0.43568,0.0162 -0.018,-0.0307 h 0.2293 L 19.82584,7.819 c -0.0265,-0.0198 -0.0522,-0.0402 -0.0773,-0.0621 -0.0681,0.0589 -0.14217,0.11042 -0.22155,0.15451 l 0.0332,0.14111 0.005,0.0229 z m -0.47413,-0.0162 0.19473,0.012 0.0145,-0.0713 c -0.0684,0.0219 -0.13864,0.0381 -0.21131,0.048 z m -0.43251,-0.0145 0.0621,3.6e-4 c -0.0215,-0.004 -0.043,-0.007 -0.0649,-0.012 z m -0.46461,0.0145 0.19474,0.012 0.0236,-0.11571 c -0.0921,-0.0402 -0.1785,-0.0914 -0.25788,-0.15099 z m -0.40428,-0.0141 h 0.17921 l 0.0522,-0.27164 c -0.0783,0.0642 -0.16439,0.11853 -0.25576,0.16298 z m 0.25541,-0.29069 0.0575,0.01 -0.0342,-0.03 z m -0.72002,0.3048 0.19544,0.012 0.01,-0.049 C 17.46834,8.0477 17.39957,8.059 17.32902,8.0646 Z M 16.89745,8.0536 h 0.13758 c -0.049,-0.007 -0.0974,-0.018 -0.14428,-0.031 z m -0.46496,0.0145 0.19544,0.012 0.0293,-0.14746 c -0.085,-0.043 -0.16475,-0.0956 -0.23777,-0.15593 l -0.0282,0.0226 z m -0.43604,0.0162 -0.0176,-0.0307 h 0.22965 l 0.0286,-0.15134 c -0.0815,0.0466 -0.16898,0.0843 -0.26035,0.11218 l 0.008,0.0381 0.004,0.0187 z m -0.47589,-0.0162 0.19508,0.012 c -0.0317,-0.0127 -0.0674,-0.0113 -0.10301,-0.0113 -0.031,0 -0.0617,0 -0.0924,-0.004 z m -0.4318,-0.0145 h 0.20743 l 0.005,-0.025 C 15.21859,8.0078 15.13856,7.9782 15.06377,7.9415 Z m -0.46496,0.0145 0.19473,0.012 0.0512,-0.25365 c -0.0363,-0.0261 -0.0705,-0.0536 -0.10371,-0.0836 -0.0533,0.0483 -0.11113,0.0921 -0.17251,0.13017 z M 14.20329,8.0536 h 0.19614 l 0.0162,-0.0878 c -0.0692,0.0296 -0.14111,0.054 -0.21661,0.0709 z m -0.46497,0.0145 0.19544,0.012 C 13.85726,8.0688 13.79653,8.0642 13.73656,8.0558 Z M 13.30617,8.0536 h 0.20779 l 0.009,-0.0497 c -0.09,-0.0296 -0.17498,-0.0695 -0.25541,-0.11783 z m -0.46425,0.0145 0.19473,0.012 0.0628,-0.31432 -0.0261,-0.0229 c -0.0773,0.0695 -0.16263,0.12947 -0.25471,0.1778 z m -0.28752,-0.0138 0.0624,3.5e-4 0.01,-0.0512 c -0.0346,0.012 -0.0695,0.0219 -0.10548,0.0307 h 0.0251 z m -3.6018603,-3.25226 0.14358,0.0198 z m 0.39793,2.01471 -0.066,-0.0402 z m 0.25859,-0.007 0.066,0.0452 0.0162,-0.0194 c -0.0279,-0.008 -0.0554,-0.0159 -0.0822,-0.0258 m 0.34149,0.0614 -0.0381,0.13017 0.1573403,0.0833 0.0512,0.0342 0.18415,-0.23283 0.0998,0.0776 -0.0914,0.27587 0.16651,0.10513 0.20884,-0.26035 0.11042,0.0949 -0.0713,0.28152 0.20003,0.1016 0.1531,-0.20884 C 10.98804,7.16856 10.93509,6.95866 10.93509,6.7357 V 6.7025 h -0.40146 c -0.1651,0.10689 -0.36124,0.16898 -0.5704403,0.16898 z m 1.1733403,0.80504 0.17039,0.0988 0.049,-0.066 C 11.28088,7.64829 11.22333,7.58093 11.17324,7.50826 Z M 0.20118,2.35877 H 0.58112 V 1.96648 H 0.20118 Z m 0.64382,-0.007 0.27623,-0.06 V 2.01696 L 0.845,1.94076 Z"
     id="G-Jagdpanther" />
</svg>
