<?xml version="1.0" encoding="UTF-8" standalone="no"?>
<!-- Created with Inkscape (http://www.inkscape.org/) -->

<svg
   width="16.982216mm"
   height="6.27562mm"
   viewBox="0 0 16.982216 6.27562"
   version="1.1"
   id="svg22169"
   sodipodi:docname="inkporter-svg-ohevpp5u.svg"
   xmlns:inkscape="http://www.inkscape.org/namespaces/inkscape"
   xmlns:sodipodi="http://sodipodi.sourceforge.net/DTD/sodipodi-0.dtd"
   xmlns="http://www.w3.org/2000/svg"
   xmlns:svg="http://www.w3.org/2000/svg">
  <sodipodi:namedview
     id="namedview22171"
     pagecolor="#ffffff"
     bordercolor="#666666"
     borderopacity="1.0"
     inkscape:pageshadow="2"
     inkscape:pageopacity="0.0"
     inkscape:pagecheckerboard="0"
     inkscape:document-units="mm"
     showgrid="false"
     inkscape:zoom="0.66368547"
     inkscape:cx="397.02542"
     inkscape:cy="561.25984"
     inkscape:window-width="3840"
     inkscape:window-height="2081"
     inkscape:window-x="2391"
     inkscape:window-y="-9"
     inkscape:window-maximized="1"
     inkscape:current-layer="layer1" />
  <defs
     id="defs22166" />
  <g
     inkscape:label="Layer 1"
     inkscape:groupmode="layer"
     id="layer1"
     transform="translate(95.39849,27.057273)">
    <path
       d="m -78.416274,-25.261693 -2.14422,-1.79558 h -3.86403 l -2.35093,0.42443 -3.86677,1.25539 -0.0138,0.0207 -0.52641,0.77997 -1.82865,0.38998 h -1.62885 c -0.3197,0 -0.63665,0.27561 -0.64905,0.28801 l -0.0345,0.0303 0.0221,0.04 0.12816,0.23702 c -0.17777,0.24667 -0.25907,0.56637 -0.21222,0.86541 0.0468,0.29352 0.20671,0.54157 0.46302,0.71658 0.0868,0.0592 0.19431,0.13642 0.31695,0.22599 0.54984,0.39826 1.37942,1.00184 1.86586,1.00184 h 9.78959 c 0.69177,0 2.07119,-0.67524 2.45566,-1.00735 0.22049,-0.18879 0.41341,-0.52641 0.46027,-0.93155 l -0.004,-0.001 c 0.003,-0.0303 0.004,-0.062 0.004,-0.0923 0,-0.43822 -0.29077,-0.80753 -0.6904,-0.92604 h 1.00045 z m -16.13683,3.16122 c -0.005,-0.004 -0.01,-0.007 -0.0152,-0.011 0.007,0.001 0.0124,0.003 0.0193,0.004 z m 0.95361,0.43959 -0.0124,-0.008 -0.0317,0.0482 -0.0689,0.10749 c -0.0469,-0.0289 -0.0937,-0.0606 -0.14056,-0.0923 l 0.0689,-0.10611 0.0317,-0.0482 -0.0482,-0.0317 -0.0606,-0.04 -0.0482,-0.0303 -0.0317,0.0482 -0.0661,0.10335 -0.13367,-0.0937 0.0634,-0.0992 0.0317,-0.0482 -0.0482,-0.0303 -0.0606,-0.04 -0.0482,-0.0317 -0.0317,0.0482 -0.0593,0.0923 -0.11024,-0.0799 0.0537,-0.0937 c 0.0413,-0.001 0.0813,-0.007 0.12265,-0.0138 l 0.0179,0.0152 0.0165,0.0138 0.0207,10e-4 0.59118,0.008 c -0.0221,0.0744 -0.0358,0.1502 -0.0358,0.22875 0,0.0593 0.007,0.11714 0.0179,0.17226 m 0.0455,0.24667 0.0289,-0.0455 c 0.0179,0.0317 0.0331,0.0648 0.0537,0.0937 -0.0276,-0.0152 -0.0537,-0.0303 -0.0827,-0.0482 m 1.12724,0.3445 h -0.062 c 0.0207,-0.008 0.0413,-0.0179 0.062,-0.0276 z m 1.03077,-0.16398 v 0.16398 h -0.16674 v -0.16398 h -0.18741 v 0.16398 h -0.16261 v -0.16398 h -0.18743 v 0.16398 h -0.13918 v -0.15571 c 0.0648,-0.0593 0.12127,-0.1254 0.16537,-0.20533 0.0951,0.0455 0.19843,0.073 0.30592,0.073 0.14056,0 0.27285,-0.0413 0.38309,-0.11163 0.0441,0.0896 0.10336,0.16812 0.17502,0.23565 z m 0.35002,0.16398 h -0.16261 v -0.16123 c 0.0496,0.0455 0.10336,0.0868 0.16261,0.11989 z m 1.72255,0 h -0.16261 v -0.16398 h -0.18603 v 0.16398 h -0.16812 v -0.16398 h -0.18743 v 0.16398 h -0.16261 v -0.0758 c 0.23014,-0.15296 0.37345,-0.41065 0.37345,-0.68764 0,-0.0565 -0.0138,-0.113 -0.0248,-0.16812 l 0.1571,0.003 c -0.011,0.0538 -0.0234,0.10887 -0.0234,0.16537 0,0.28663 0.14745,0.54432 0.38447,0.68626 z m 0.99081,0 h -0.24805 c 0.0923,-0.0372 0.17364,-0.0882 0.24805,-0.15434 z m 1.0542,0 h -0.16261 v -0.16398 h -0.18603 v 0.16398 h -0.1695 v -0.16398 h -0.18604 v 0.16398 h -0.16261 v -0.16398 h -0.17639 c 0.062,-0.0565 0.11438,-0.12127 0.1571,-0.19706 0.0937,0.0455 0.19706,0.073 0.30593,0.073 0.13918,0 0.27284,-0.04 0.38171,-0.11025 0.0496,0.1006 0.11713,0.18742 0.19844,0.25907 z m 0.18741,0 v -0.0152 c 0.0124,0.006 0.0262,0.01 0.0386,0.0152 z m 0.72623,0 h -0.0496 c 0.0165,-0.008 0.0331,-0.0179 0.0496,-0.0262 z m 0.70418,-0.16398 v 0.16398 h -0.16813 v -0.16398 h -0.18741 v 0.16398 h -0.16261 v -0.15571 c 0.16537,-0.15159 0.27148,-0.36656 0.27148,-0.60772 0,-0.0358 -0.007,-0.0703 -0.011,-0.10611 l 0.0786,0.001 c -0.004,0.0345 -0.01,0.0689 -0.01,0.10474 0,0.23426 0.0965,0.44786 0.25631,0.59944 z m 0.18741,0.16398 v -0.0703 c 0.0427,0.0276 0.0882,0.0496 0.13642,0.0703 z m 0.89159,0 h -0.13091 c 0.0455,-0.0193 0.0896,-0.0413 0.13091,-0.0675 z m 1.04179,-0.16398 v 0.16398 h -0.14882 v -0.16398 h -0.18741 v 0.16398 h -0.16261 v -0.16398 h -0.18742 v 0.16398 h -0.16812 v -0.16398 h -0.062 c 0.0606,-0.0565 0.11024,-0.12265 0.15159,-0.19568 0.0937,0.0441 0.19568,0.0717 0.30454,0.0717 0.13918,0 0.27148,-0.04 0.38172,-0.11025 0.0441,0.0882 0.10059,0.16812 0.1695,0.23427 z m 0.18742,0.16398 v -0.0854 c 0.0482,0.0345 0.10198,0.062 0.1571,0.0854 z m 0.99081,-0.11437 -0.001,-0.004 c 0.0482,-0.04 0.0923,-0.0841 0.13091,-0.13229 l 0.0303,0.0841 c -0.0551,0.0179 -0.10887,0.0358 -0.15985,0.0524 m 0.96462,-0.39411 -0.0551,-0.15021 -0.0193,-0.0551 -0.0537,0.0207 -0.0689,0.0248 -0.0537,0.0193 0.0207,0.0537 0.0606,0.1695 c -0.0455,0.0207 -0.0909,0.0413 -0.13642,0.0606 l -0.0648,-0.17914 -0.0193,-0.0538 -0.0551,0.0193 -0.0675,0.0248 -0.0537,0.0193 0.0193,0.0551 0.0689,0.18879 c -0.051,0.0207 -0.1006,0.04 -0.15158,0.0592 l -0.0703,-0.19292 -0.0152,-0.0413 c 0.0372,-0.0951 0.0634,-0.19568 0.0634,-0.29766 0,-0.0138 -0.003,-0.0289 -0.003,-0.0441 l 0.48369,0.008 h 0.0345 l 0.0165,-0.0303 0.0413,-0.073 c 0.0193,0.011 0.0386,0.0207 0.0579,0.0289 0.0331,0.0207 0.0661,0.0386 0.1006,0.0537 h -0.001 l 0.0234,0.0524 0.0744,0.16812 c -0.0565,0.0317 -0.11575,0.0606 -0.17639,0.091 m 0.34176,-0.1819 -0.0358,-0.0786 c 0.0193,10e-4 0.0372,0.006 0.0565,0.006 0.0413,0 0.0827,-0.007 0.12402,-0.0138 -0.0441,0.0275 -0.0937,0.0579 -0.14469,0.0868"
       id="G-LSOP" />
  </g>
</svg>
