<?xml version="1.0" encoding="UTF-8" standalone="no"?>
<!-- Created with Inkscape (http://www.inkscape.org/) -->

<svg
   width="16.974939mm"
   height="8.3349504mm"
   viewBox="0 0 16.974939 8.3349509"
   version="1.1"
   id="svg33402"
   sodipodi:docname="inkporter-svg-e7qp_36f.svg"
   inkscape:version="1.1.1 (3bf5ae0d25, 2021-09-20)"
   xmlns:inkscape="http://www.inkscape.org/namespaces/inkscape"
   xmlns:sodipodi="http://sodipodi.sourceforge.net/DTD/sodipodi-0.dtd"
   xmlns="http://www.w3.org/2000/svg"
   xmlns:svg="http://www.w3.org/2000/svg">
  <sodipodi:namedview
     id="namedview555"
     pagecolor="#ffffff"
     bordercolor="#666666"
     borderopacity="1.0"
     inkscape:pageshadow="2"
     inkscape:pageopacity="0.0"
     inkscape:pagecheckerboard="0"
     inkscape:document-units="mm"
     showgrid="false"
     inkscape:zoom="0.32"
     inkscape:cx="889.0625"
     inkscape:cy="4120.3125"
     inkscape:window-width="1920"
     inkscape:window-height="1017"
     inkscape:window-x="-8"
     inkscape:window-y="-8"
     inkscape:window-maximized="1"
     inkscape:current-layer="svg33402" />
  <defs
     id="defs13927" />
  <path
     d="M 0.87612996,1.72948 H 1.22009 V 1.43068 H 0.87612996 Z M 1.42364,1.73448 H 1.60779 V 1.43074 H 1.42364 Z m 4.2421497,1.67569 0.28399,-0.0956 h 2.21474 l 0.0487,-0.10619 c 0,0 -0.20355,-0.19226 -0.0727,-0.21201 0.13088,-0.0187 0.19861,-0.0187 0.19861,-0.0187 l 0.097,-0.1016 h 0.16968 l 0.0582,-0.12947 h -0.14041 l -0.0681,-0.12594 h -0.20849 v 0.0727 h -0.22296 v -0.0822 h -0.121 V 2.72193 L 7.6268197,2.43795 V 2.28378 l 0.25189,-0.26493 0.0536,0.0674 h 0.0628 v -0.0963 l -0.16968,-0.0773 -2.15971,-0.0564 z M 14.92938,6.29272 c 0.17004,0.53834 -0.0723,0.91899 -0.47025,1.21885 -0.3997,0.30233 -2.18405,0.82338 -2.49661,0.82338 H 3.34628 c -0.6798,0 -1.93816,-0.60678 -2.84868004,-1.40053 l -0.009,-0.008 c -0.0282,-0.0113 -0.0483,-0.0226 -0.0593,-0.0353 -0.0293,-0.0332 -0.0568,-0.0677 -0.0832,-0.10336 -0.53376,-0.57326 -0.36513,-1.143 -0.0621,-1.53987 0.0314,-0.043 0.0663,-0.085 0.10512,-0.12665 0.0183,-0.0201 0.0374,-0.0399 0.0561,-0.0589 l -0.0155,-0.0282 h -0.42615 c 0,0 0.25682,-0.51047 0.93521,-0.51047 H 2.56227 L 4.9368097,3.51649 h 0.39617 V 1.8468 L 2.15975,1.7635 2.11675,1.8062 H 1.6853 L 1.34593,2.00869 1.28273,1.86899 H 0.69182996 V 1.23787 H 1.30707 l 0.0388,-0.12982 0.33937,0.26494 h 0.41663 l 0.0487,0.0384 3.1824097,0.043 v -0.0346 h 0.33267 v 0.0395 l 2.16465,0.0293 0.0825,-0.0727 0.61524,0.005 v 0.048 h 0.73166 l 0.39264,-0.7948 0.4166303,0.01 0.0437,-0.072 0.9839,-0.0293 V 0.3997 h 0.47977 l 0.13586,0.14958 h 0.60078 V 0.09137 h 0.10195 V 0.5394 L 14.80394,1.33456 15.13308,0 l 0.1069,0.0194 -0.34361,1.33385 c 0,0 0.42086,0.13053 0.49848,0.381 0.0776,0.25082 0.52846,1.64747 0.52846,1.64747 v 0.18803 l 0.11641,0.005 c 0,0 0.11607,-0.20249 0.35878,-0.13547 0.242,0.0681 0.27587,0.25577 0.27587,0.25577 h 0.30057 v 0.24059 h -0.30551 c 0,0 -0.0483,0.11077 -0.12559,0.17357 -0.0776,0.0628 -0.19403,0.0727 -0.19403,0.0727 v 0.40922 h -0.2667 l 0.31045,1.12219 -0.0871,0.005 -0.2861,-0.92957 -0.0875,-0.005 V 5.26564 Z M 3.91249,8.18043 3.93969,8.05696 c -0.11677,0.06 -0.24447,0.10266 -0.37853,0.12347 z m 1.6806297,-0.0836 0.0222,0.0836 h 0.16793 l 0.004,-0.0197 c -0.0667,-0.0159 -0.13159,-0.0378 -0.19403,-0.0639 m -0.56092,0.0836 0.0279,-0.12876 h 0.15276 l 0.0339,0.12876 h 0.15381 l 0.0279,-0.12876 h 0.0706 c -0.37712,-0.1972 -0.6417,-0.57855 -0.6731,-1.02411 L 4.6211,7.03256 C 4.5883,7.47565 4.32442,7.85488 3.94906,8.05138 h 0.14499 l 0.0339,0.12876 h 0.15311 l 0.0282,-0.12876 h 0.15275 l 0.0339,0.12876 h 0.16827 l 0.0279,-0.12876 h 0.1531097 l 0.0339,0.12876 z m 1.48767,0 0.0138,-0.0635 c -0.0773,0.0289 -0.1584,0.0505 -0.24272,0.0635 z m 2.05493,-0.11606 0.0307,0.11606 h 0.33267 c -0.12877,-0.0201 -0.25083,-0.0596 -0.36336,-0.11606 m -0.93557,0.11606 0.0282,-0.12876 h 0.15311 l 0.0335,0.12876 h 0.15346 l 0.0282,-0.12876 h 0.15276 l 0.0339,0.12876 h 0.16828 l 0.0279,-0.12876 h 0.13229 c -0.40217,-0.21025 -0.67628,-0.63006 -0.67628,-1.11301 v -0.0215 c -0.17286,0.008 -0.34678,0.0159 -0.51964,0.0233 0,0.48225 -0.27516,0.901 -0.67627,1.11125 h 0.0222 l 0.0339,0.12876 h 0.15346 l 0.0279,-0.12876 h 0.1531 l 0.0339,0.12876 h 0.16792 l 0.0282,-0.12876 h 0.15276 l 0.0339,0.12876 z m 1.83656,0 0.007,-0.03 c -0.0455,0.0127 -0.0924,0.0229 -0.1397,0.03 z m 2.0792703,-0.0243 0.006,0.0243 h 0.11222 c -0.0403,-0.006 -0.0798,-0.0145 -0.11857,-0.0243 m -0.95955,0.0243 0.0279,-0.12876 h 0.1531 l 0.0339,0.12876 h 0.15346 l 0.0282,-0.12876 h 0.15311 l 0.0335,0.12876 h 0.16792 l 0.0198,-0.0896 c -0.44556,-0.19473 -0.756,-0.63747 -0.756,-1.15217 0,-0.0571 0.004,-0.1136 0.0109,-0.16898 l -0.22437,0.0138 c 0.006,0.0508 0.01,0.10266 0.01,0.15523 0,0.50835 -0.30374,0.94685 -0.7408303,1.14511 l 0.0254,0.0967 h 0.15345 l 0.0279,-0.12876 H 10.02572 l 0.0339,0.12876 h 0.16757 l 0.0286,-0.12876 h 0.15275 l 0.0339,0.12876 z m 1.77698,-0.0843 0.005,0.007 c 0.0479,-0.0117 0.0984,-0.0243 0.15029,-0.0381 l -0.005,-0.0444 c -0.048,0.0286 -0.0981,0.0536 -0.15028,0.0755 m 1.36062,-0.55104 0.0741,0.11148 c 0.0501,-0.019 0.0981,-0.0381 0.14394,-0.0572 l -0.006,-0.048 c -0.0254,0.004 -0.0512,0.004 -0.0776,0.004 -0.0455,0 -0.0906,-0.004 -0.13441,-0.01 m -0.49107,0.30939 -0.0197,-0.16757 0.14428,-0.0494 0.0963,0.14358 c 0.043,-0.0148 0.0857,-0.0296 0.12771,-0.0445 l -0.0201,-0.16898 0.0988,-0.0335 c -0.22366,-0.048 -0.41769,-0.17428 -0.55175,-0.34855 -0.0582,0.29069 -0.21766,0.54575 -0.43956,0.72708 l 0.0628,0.0935 c 0.0494,-0.0138 0.10018,-0.0286 0.15169,-0.0437 l -0.0187,-0.15593 0.14464,-0.0501 0.0931,0.1397 c 0.0434,-0.0141 0.0868,-0.0279 0.13053,-0.0416 M 2.55377,7.91019 2.53407,7.99379 C 2.6646,8.04349 2.78983,8.08409 2.9066,8.11444 2.77749,8.06544 2.65895,7.99591 2.55382,7.91018 m -0.22824,0 L 2.42647,7.7913 C 2.24338,7.59374 2.12344,7.33763 2.09768,7.05435 1.88002,7.05035 1.67894,7.04635 1.49796,7.03885 c -0.0829,0.0201 -0.16933,0.0311 -0.25823,0.0311 -0.1397,0 -0.27376004,-0.0265 -0.39617004,-0.0744 l -0.0388,-0.005 c 0.0794,0.0628 0.16016,0.12453 0.24201004,0.18415 l 0.0716,-0.0843 0.13512,0.0709 -0.0325,0.13547 c 0.0409,0.0279 0.0822,0.055 0.12347,0.0818 L 1.44356,7.2618 1.57868,7.3334 1.53848,7.50096 c 0.0427,0.0258 0.0854,0.0508 0.12771,0.0752 L 1.7819,7.44069 1.91666,7.51199 1.87396,7.69155 c 0.0385,0.0205 0.0769,0.0402 0.11501,0.0596 l 0.11782,-0.13864 0.13512,0.0713 -0.0406,0.1704 c 0.0416,0.0194 0.0829,0.0377 0.12418,0.0557"
     id="G-Marder-III" />
</svg>
