<?xml version="1.0" encoding="UTF-8" standalone="no"?>
<!-- Created with Inkscape (http://www.inkscape.org/) -->

<svg
   width="18.83198mm"
   height="8.2957001mm"
   viewBox="0 0 18.83198 8.2957003"
   version="1.1"
   id="svg33402"
   sodipodi:docname="inkporter-svg-71kf7czj.svg"
   inkscape:version="1.1.1 (3bf5ae0d25, 2021-09-20)"
   xmlns:inkscape="http://www.inkscape.org/namespaces/inkscape"
   xmlns:sodipodi="http://sodipodi.sourceforge.net/DTD/sodipodi-0.dtd"
   xmlns="http://www.w3.org/2000/svg"
   xmlns:svg="http://www.w3.org/2000/svg">
  <sodipodi:namedview
     id="namedview555"
     pagecolor="#ffffff"
     bordercolor="#666666"
     borderopacity="1.0"
     inkscape:pageshadow="2"
     inkscape:pageopacity="0.0"
     inkscape:pagecheckerboard="0"
     inkscape:document-units="mm"
     showgrid="false"
     inkscape:zoom="2.5097476"
     inkscape:cx="-1212.871"
     inkscape:cy="1547.3668"
     inkscape:window-width="1920"
     inkscape:window-height="1017"
     inkscape:window-x="-8"
     inkscape:window-y="-8"
     inkscape:window-maximized="1"
     inkscape:current-layer="svg33402" />
  <defs
     id="defs14119" />
  <path
     d="m 18.00063,5.56697 c 0.81492,0.29809 0.7493,1.23366 0.44521,1.64606 -0.33408,0.45296 -1.68063,1.07667 -2.70898,1.07667 -1.00154,0 -8.12941,0.006 -8.85508,0.006 C 6.11449,8.2957 4.62401,7.64694 3.77452,6.771 3.14904,6.12541 3.4415,5.36941 4.02534,4.90833 L 3.94134,4.75699 3.72121,4.84269 3.65141,4.68959 4.44375,4.33505 4.66388,4.32375 4.65688,4.10714 5.27883,3.87925 H 6.40737 L 6.81306,3.4799 6.41513,3.21497 6.43453,3.12537 4.85373,2.68475 4.37078,2.30763 l 0.0385,-0.0709 0.4946,0.32103 2.07151,0.55633 c 0,0 0.066,-0.0674 0.14287,-0.0187 0.0773,0.0487 0.0621,0.14181 0.0621,0.14181 l 1.15923,-0.72425 1.14018,-0.19791 0.11571,-0.097 -2.5774,-0.067 0.004,-0.0526 H 6.79384 V 1.77388 h 0.23953 v -0.0674 h 0.30939 v -0.097 L 1.41468,1.49764 1.39528,1.54954 1.02028,1.54554 0.63787,1.63864 0.0773,1.63464 C 0.0773,1.63464 0,1.48542 0,1.32102 0,1.15663 0.0889,1.05573 0.0889,1.05573 l 0.53305,-0.0109 0.375,0.0896 0.39053,0.004 0.0116,0.0448 6.00569,0.0522 v -0.0557 l 2.97533,0.037 0.78845,-1.08233 h 0.77647 V 0 h 0.46002 v 0.13793 h 0.64911 c 0.22437,0 0.32456,0.20532 0.32456,0.3362 v 1.48202 h 0.39476 v 0.41451 h -0.0854 v 0.11183 h 0.0928 L 14.40705,2.5982 14.08991,0.41416 h 0.066 l 0.33619,2.20662 0.43674,0.067 V 2.41544 h 0.16969 v 0.29492 l 1.00118,0.19791 -0.47519,-2.89737 0.0695,-0.007 0.52528,2.93476 0.29422,0.0445 0.29351,-0.10795 0.10019,0.23883 h 0.64523 L 18.01247,2.2328 h 0.18168 l -0.4639,0.97826 -0.13123,0.59372 -0.14676,0.24271 c 0,0 0.20109,-0.0487 0.30163,-0.008 0.10054,0.0413 0.18521,0.12347 0.18521,0.12347 l 0.39052,-0.20179 0.12383,0.15699 -0.4445,0.28716 v 0.2914 l 0.48295,0.14957 v 0.22366 l 0.34008,0.0748 -0.0582,0.11571 -0.28187,-0.0187 v 0.32491 z m -13.80207,1.27 c 0.0921,0.0794 0.18838,0.15592 0.28892,0.22965 l 0.0529,-0.097 c 0.008,-0.0145 0.0219,-0.0247 0.037,-0.0289 C 4.44227,6.92912 4.31456,6.89312 4.1985,6.83701 m 7.99182,1.0675 c 0.004,0.008 0.006,0.0166 0.006,0.0261 v 0.12241 h 0.11959 v -0.0695 c -0.043,-0.024 -0.0857,-0.0501 -0.12524,-0.079 m -0.59725,0.0261 c 0,-0.0335 0.0279,-0.06 0.0621,-0.06 h 0.12347 c 0.0342,0 0.0614,0.0265 0.0614,0.06 v 0.12312 h 0.10865 V 7.93097 c 0,-0.0335 0.0279,-0.06 0.0617,-0.06 h 0.12347 c 0.004,0 0.008,0 0.012,0 C 11.87634,7.66036 11.69642,7.34709 11.66996,6.9922 h -0.59372 c -0.0261,0.35383 -0.20567,0.66745 -0.47484,0.87771 h 0.10725 c 0.0339,0 0.0617,0.0265 0.0617,0.06 V 8.05374 H 10.8783 V 7.92991 c 0,-0.0335 0.0275,-0.06 0.0621,-0.06 h 0.12347 c 0.0342,0 0.0621,0.0265 0.0621,0.06 v 0.12383 h 0.11959 V 7.93026 c 0,-0.0335 0.0275,-0.06 0.0617,-0.06 h 0.12418 c 0.0339,0 0.0617,0.0265 0.0617,0.06 v 0.12312 h 0.10019 z m -1.18674,0.0656 v 0.0586 h 0.11606 V 7.931 c -0.037,0.0215 -0.0755,0.0444 -0.11606,0.0656 M 7.74956,7.87101 h 0.0758 c 0.0342,0 0.0621,0.0265 0.0621,0.06 V 8.05695 H 8.00705 V 7.93101 c 0,-0.0335 0.0279,-0.06 0.0617,-0.06 h 0.12418 c 0.0339,0 0.0614,0.0265 0.0614,0.06 V 8.05625 H 8.36651 V 7.93101 c 0,-0.0335 0.0279,-0.06 0.0617,-0.06 h 0.12347 c 0.0346,0 0.0617,0.0265 0.0617,0.06 v 0.12524 h 0.1083 V 7.93101 c 0,-0.0335 0.0279,-0.06 0.0621,-0.06 h 0.12347 c 0.0342,0 0.0621,0.0265 0.0621,0.06 V 8.05589 H 9.0893 V 7.94512 C 8.76227,7.73875 8.53826,7.39197 8.50898,6.99333 H 8.22393 C 8.19783,7.34716 8.01826,7.66078 7.74945,7.87104 M 7.53143,8.00827 v 0.0487 h 0.1083 V 7.94796 c -0.0349,0.0219 -0.0709,0.0416 -0.1083,0.0603 m 6.0131,0 v 0.0444 l 0.10865,-3.5e-4 V 7.94788 c -0.0353,0.0219 -0.0713,0.0416 -0.10865,0.0603 m 1.42628,-0.0677 v 0.11148 h 0.11994 v -0.0437 c -0.0413,-0.0201 -0.0815,-0.0434 -0.11994,-0.0677 m -0.6029,-0.01 c 0,-0.0335 0.0275,-0.06 0.0621,-0.06 h 0.12347 c 0.0346,0 0.0621,0.0265 0.0621,0.06 v 0.121 h 0.10795 v -0.121 c 0,-0.0335 0.0275,-0.06 0.0617,-0.06 h 0.0878 C 14.60386,7.6603 14.42429,7.34668 14.39819,6.99285 h -0.16122 c -0.0261,0.35383 -0.20532,0.66745 -0.47449,0.87771 h 0.0762 c 0.0339,0 0.0617,0.0265 0.0617,0.06 v 0.12136 h 0.11959 V 7.93056 c 0,-0.0335 0.0279,-0.06 0.0621,-0.06 h 0.12347 c 0.0342,0 0.0617,0.0265 0.0617,0.06 v 0.12136 h 0.10054 z m 2.02036,0.0459 -0.01,-0.0272 c -0.0251,0.0159 -0.0512,0.0303 -0.0776,0.0444 0.0293,-0.005 0.0586,-0.0113 0.0875,-0.0173 m 0.19544,-0.18591 0.0455,0.1277 c 0.0385,-0.0109 0.0769,-0.0215 0.11501,-0.0328 l -0.0639,-0.1785 c -10e-4,-0.005 -0.003,-0.0102 -0.003,-0.0155 -0.0293,0.0349 -0.0607,0.0681 -0.0935,0.0991 m 0.99518,-0.38418 0.0434,0.12242 c 0.0367,-0.019 0.072,-0.0385 0.10619,-0.0579 l -0.0236,-0.067 c -0.0261,0.004 -0.0526,0.004 -0.079,0.004 -0.0155,0 -0.031,0 -0.0469,0 m -0.56973,0.19086 c -0.0109,-0.031 0.006,-0.0649 0.0385,-0.0762 l 0.11677,-0.0385 c 0.0324,-0.0109 0.0677,0.006 0.0787,0.037 l 0.0579,0.16228 c 0.0339,-0.0145 0.0663,-0.0293 0.0991,-0.0441 l -0.0547,-0.1524 c -0.0109,-0.031 0.006,-0.0649 0.0385,-0.0759 l 0.0607,-0.0201 C 17.24824,7.35083 17.07643,7.2468 16.95261,7.10251 16.92091,7.29689 16.84219,7.47575 16.7286,7.62885 l 0.10759,-0.0353 c 0.0321,-0.0113 0.067,0.006 0.0783,0.0367 l 0.0642,0.17991 c 0.0318,-0.0109 0.0628,-0.0229 0.0938,-0.0349 z M 6.02023,7.77433 5.97293,7.85973 c 0.0825,0.0293 0.16298,0.0557 0.24094,0.0797 C 6.14407,7.88583 6.07911,7.83254 6.0202,7.77433 M 4.86485,7.13757 c 0.0162,-0.0289 0.0536,-0.0402 0.0836,-0.0243 l 0.10936,0.0561 c 0.03,0.0155 0.0416,0.0515 0.0258,0.0808 l -0.0843,0.1524 c 0.0321,0.0187 0.0642,0.0367 0.0967,0.055 l 0.0861,-0.15663 c 0.0166,-0.0293 0.0536,-0.0402 0.084,-0.025 l 0.10901,0.0564 c 0.0303,0.0155 0.042,0.0515 0.0254,0.0808 L 5.31272,7.5726 c 0.0321,0.0166 0.0642,0.0325 0.0963,0.048 L 5.49612,7.4622 C 5.51202,7.4333 5.54972,7.422 5.57972,7.4375 l 0.10936,0.0561 c 0.03,0.0152 0.0416,0.0515 0.0254,0.0808 l -0.0818,0.14923 c 0.0363,0.0162 0.0734,0.0318 0.10971,0.0469 l 0.0783,-0.14182 c 0.0102,-0.019 0.03,-0.0307 0.0508,-0.0317 C 5.73355,7.39946 5.65382,7.16133 5.65382,6.90521 L 5.28341,6.75846 C 5.1109,6.87664 4.89994,6.94614 4.67204,6.94614 c -0.0169,0 -0.0339,0 -0.0512,0 l 0.11289,0.0579 c 0.03,0.0152 0.0413,0.0519 0.0258,0.0804 l -0.0702,0.12664 c 0.0335,0.0219 0.0667,0.0434 0.0998,0.0649 z"
     id="G-Marder" />
</svg>
