<?xml version="1.0" encoding="UTF-8" standalone="no"?>
<!-- Created with Inkscape (http://www.inkscape.org/) -->

<svg
   width="18.800503mm"
   height="6.5760984mm"
   viewBox="0 0 18.800503 6.5760984"
   version="1.1"
   id="svg7426"
   sodipodi:docname="inkporter-svg-58n8kf48.svg"
   xmlns:inkscape="http://www.inkscape.org/namespaces/inkscape"
   xmlns:sodipodi="http://sodipodi.sourceforge.net/DTD/sodipodi-0.dtd"
   xmlns="http://www.w3.org/2000/svg"
   xmlns:svg="http://www.w3.org/2000/svg">
  <sodipodi:namedview
     id="namedview7428"
     pagecolor="#ffffff"
     bordercolor="#666666"
     borderopacity="1.0"
     inkscape:pageshadow="2"
     inkscape:pageopacity="0.0"
     inkscape:pagecheckerboard="0"
     inkscape:document-units="mm"
     showgrid="false"
     inkscape:zoom="0.64052329"
     inkscape:cx="984.35141"
     inkscape:cy="289.60696"
     inkscape:window-width="1920"
     inkscape:window-height="1017"
     inkscape:window-x="-8"
     inkscape:window-y="-8"
     inkscape:window-maximized="1"
     inkscape:current-layer="layer1" />
  <defs
     id="defs7423">
    <clipPath
       clipPathUnits="userSpaceOnUse"
       id="clipPath180456-5-6">
      <path
         d="M 0,0 H 595.276 V 841.89 H 0 Z"
         id="path180454-2-9" />
    </clipPath>
  </defs>
  <g
     inkscape:label="Layer 1"
     inkscape:groupmode="layer"
     id="layer1"
     transform="translate(-283.74815,-78.948646)">
    <g
       id="G-Nebelwerfer"
       transform="matrix(0.35277777,0,0,-0.35277777,152.29097,396.62784)">
      <path
         id="path1670-1-4"
         d="m 394.73896,899.4499 c -0.11996,-0.004 -0.25696,-0.0296 -0.4585,-0.0791 0,0 -0.43412,-0.0649 -0.55811,-0.38672 -0.0226,-0.0842 -0.0404,-0.24378 -0.041,-0.35449 -4.6e-4,-0.11075 -0.0523,-0.25145 -0.11426,-0.31348 -0.14155,-0.14157 -0.14323,-0.19921 -0.004,-0.19921 0.15765,0 0.19868,-0.10372 0.14502,-0.37207 -0.24287,-0.43856 -0.0369,-0.20379 0.24609,-0.67823 0.13343,-0.2451 0.16776,-0.26342 0.46289,-0.24463 0.28195,0.0179 0.32716,-3.2e-4 0.39257,-0.17431 0.0407,-0.1069 0.0733,-0.29128 0.0733,-0.41016 0,-0.11893 0.0348,-0.23664 0.0762,-0.26221 0.13628,-0.0842 0.0831,-0.25177 -0.0674,-0.2124 -0.11803,0.031 -0.15216,-0.0168 -0.19629,-0.27832 l -0.0542,-0.31494 -0.0601,-0.40869 c -0.022,-0.47059 -0.007,-0.53903 0.15674,-0.69141 0.10129,-0.0943 0.1278,-0.16344 0.0747,-0.19629 -0.0449,-0.0277 -0.30889,0.15532 -0.5874,0.40723 -0.0167,0.0151 -0.0363,0.0314 -0.0542,0.0469 -0.0843,0.36108 -0.68037,0.95878 -0.93896,1.1587 -0.27582,0.21323 -1.05112,0.65812 -1.31396,0.52295 -0.26286,-0.13518 -0.3543,-1.02563 -0.34131,-1.37403 0.013,-0.3484 0.17094,-1.27212 0.44677,-1.48535 l -0.0308,-0.0161 3.46143,-6.72803 c 0.008,-0.46168 0.004,-0.89872 -0.0161,-1.13818 -0.0437,-0.5252 -0.0759,-0.63236 -0.21973,-0.72657 l -0.43946,-0.24023 c -0.0574,-0.0575 -0.21745,-0.1284 -0.35595,-0.15674 -0.18258,-0.0371 -0.27168,-0.10687 -0.32373,-0.25488 -0.0961,-0.27319 -0.0157,-0.33877 0.49218,-0.39844 0.30312,-0.0357 0.49053,-0.0168 0.6753,0.0659 0.36921,0.16554 0.66943,0.22201 0.66943,0.12597 0,-0.0487 0.12701,-0.0725 0.31934,-0.0586 0.31482,0.0226 0.31935,0.0287 0.34131,0.32666 0.005,0.0743 -10e-4,0.16535 -0.0132,0.25635 l 0.49805,-0.9668 1.69482,0.87305 c -0.0378,-0.0601 -0.0996,-0.12613 -0.19775,-0.21826 -0.15162,-0.14238 -0.36744,-0.31533 -0.48047,-0.38526 -0.24142,-0.14933 -0.35574,-0.48386 -0.19922,-0.583 0.17114,-0.10837 0.91297,-0.0765 1.15576,0.0498 0.12404,0.0645 0.30104,0.18828 0.39404,0.27539 0.093,0.0872 0.16992,0.11875 0.16992,0.0703 0,-0.13345 0.13214,-0.10512 0.3003,0.063 0.22317,0.22315 0.19436,0.70519 -0.082,1.39014 -0.0333,0.0826 -0.13128,0.4207 -0.21827,0.75146 -0.087,0.33075 -0.2199,0.73699 -0.29589,0.90235 -0.1687,0.36708 -0.30615,0.77611 -0.30615,0.91406 l -0.10547,0.88916 c 0.0238,0.0949 -0.011,0.27521 -0.0762,0.40137 -0.082,0.15869 -0.0981,0.28291 -0.0527,0.40283 0.0361,0.0953 0.0901,0.36002 0.12012,0.5874 0.0299,0.22739 0.10396,0.62938 0.16406,0.89356 0.0716,0.31487 0.0912,0.62333 0.0571,0.89648 -0.0496,0.39607 -0.0424,0.42515 0.16113,0.5874 l 0.21533,0.17139 -0.17138,0.30322 c -0.0948,0.16864 -0.13393,0.30469 -0.0879,0.30469 0.11823,0 0.65321,0.56141 0.62256,0.65332 l -0.22559,0.43359 c -0.13438,0.12349 -0.24463,0.26271 -0.24463,0.31055 0,0.0478 -0.0527,0.13105 -0.11719,0.18457 l -0.19629,0.13916 -0.35156,0.3252 c -0.19278,0.17945 -0.42417,0.37903 -0.51563,0.44238 -0.13726,0.0951 -0.77549,1.31928 -0.77343,1.48389 l -0.0864,0.10693 -0.48925,0.32812 c -0.26886,0.18029 -0.54964,0.32813 -0.62402,0.32813 -0.14388,0 -0.33154,0.17385 -0.26221,0.24316 0.0227,0.0226 -0.0103,0.168 -0.0747,0.32227 -0.0644,0.15422 -0.11719,0.41202 -0.11719,0.57422 0,0.36948 -0.22972,0.61832 -0.68701,0.74414 -0.13535,0.0373 -0.23894,0.0542 -0.35888,0.0498 z" />
      <g
         id="g170446-2-4-2"
         transform="translate(381.27554,896.81597)">
        <path
           d="m 0,0 0.067,0.289 -1.449,0.336 -0.066,-0.29 z m -0.62,-2.69 0.066,0.291 -1.449,0.333 -0.066,-0.289 z m 7.02,-6.539 13.935,-2.67 2.985,1.035 2.09,-3.243 -4.198,0.828 -15.105,2.894 c -0.628,-1.508 -2.115,-2.569 -3.852,-2.569 -1.526,0 -2.864,0.822 -3.589,2.049 l -5.908,-2.533 h -1.399 v 0.595 h 1.277 l 5.764,2.47 c -0.2,0.489 -0.311,1.025 -0.311,1.586 0,1.325 0.619,2.507 1.583,3.27 l -0.897,0.208 0.147,0.636 -1.45,0.335 -0.218,-0.943 -0.578,0.135 0.217,0.941 -4.456,1.028 0.458,1.984 4.456,-1.029 0.066,0.29 -4.456,1.029 0.555,2.401 4.457,-1.03 0.066,0.291 -4.456,1.028 0.426,1.847 4.456,-1.028 0.251,1.086 0.58,-0.133 L -0.955,2.472 9.84,-0.02 9.414,-1.868 7.193,-1.355 7.127,-1.645 9.347,-2.158 8.793,-4.557 6.573,-4.044 6.505,-4.335 8.726,-4.847 8.269,-6.831 6.048,-6.318 5.931,-6.823 c 0.314,-0.585 0.492,-1.254 0.492,-1.964 0,-0.15 -0.008,-0.297 -0.023,-0.442"
           style="fill:#000000;fill-opacity:1;fill-rule:nonzero;stroke:none"
           id="path170448-4-8-5" />
      </g>
      <path
         id="path54405-72"
         d="m 406.71932,882.76067 c -0.14393,0.0276 -0.32636,0.19325 -0.33365,0.30277 -0.002,0.0329 -0.006,0.0753 -0.008,0.0944 -0.003,0.019 -0.0561,0.0848 -0.11916,0.14638 l -0.11453,0.11186 0.007,0.44006 c 0.005,0.36328 -0.003,0.46243 -0.0553,0.56834 -0.0552,0.11376 -0.0569,0.14415 -0.0159,0.26842 0.0405,0.12227 0.039,0.15529 -0.0106,0.25918 -0.0313,0.0654 -0.0808,0.27068 -0.11038,0.45599 -0.0295,0.18531 -0.0706,0.42538 -0.0914,0.53348 -0.0208,0.1081 -0.0408,0.26333 -0.044,0.34496 -0.004,0.0815 -0.033,0.20963 -0.0656,0.28445 -0.0421,0.0966 -0.0507,0.16169 -0.0292,0.22422 0.0523,0.15273 0.008,0.32717 -0.11765,0.46891 -0.1159,0.13029 -0.18582,0.30197 -0.18619,0.45724 0,0.0435 -0.0616,0.17363 -0.13667,0.28914 -0.15502,0.23859 -0.17944,0.34178 -0.25671,1.0848 -0.0703,0.67691 -0.11909,0.81004 -0.12205,0.33345 -9.2e-4,-0.22383 -0.0274,-0.46056 -0.0714,-0.64935 -0.0656,-0.28182 -0.0663,-0.30804 -0.0136,-0.51014 0.0308,-0.11716 0.0579,-0.31685 0.0606,-0.44371 0.004,-0.21769 -0.002,-0.23739 -0.11009,-0.34963 -0.11299,-0.11682 -0.11407,-0.12084 -0.0604,-0.22467 0.076,-0.14697 0.0683,-0.34528 -0.0193,-0.48861 -0.0658,-0.10795 -0.0764,-0.19373 -0.0996,-0.81064 -0.0188,-0.49582 -0.0417,-0.73269 -0.0818,-0.84198 -0.0521,-0.14165 -0.0519,-0.15654 0.003,-0.21731 0.0795,-0.0877 0.0771,-0.28963 -0.003,-0.34889 -0.051,-0.0373 -0.0558,-0.0596 -0.0249,-0.11731 0.0209,-0.0391 0.0399,-0.22815 0.0424,-0.41996 0.003,-0.19182 0.0362,-0.36842 0.0362,-0.36842 l 0.006,-0.11531 c 0,0 -0.0226,-0.042 -0.0794,-0.0545 -0.0567,-0.0125 -0.11193,-0.0371 -0.12276,-0.0546 -0.0108,-0.0175 -0.0382,-0.0316 -0.0607,-0.031 l -0.0774,-0.0126 c 0,0 -0.0963,-0.0477 -0.16392,-0.0502 -0.0794,-0.004 -0.0932,0.007 -0.0765,0.0591 0,0 -0.11883,0.0321 -0.14016,-0.0488 -0.012,-0.0474 -0.0338,-0.0862 -0.0485,-0.0862 -0.0149,0 -0.0247,-0.0272 -0.0222,-0.0603 0.003,-0.0421 -0.0213,-0.0611 -0.0814,-0.0628 -0.14623,-0.004 -0.34494,-0.051 -0.34494,-0.0809 0,-0.0544 -0.19078,-0.063 -0.53185,-0.0243 -0.4967,0.1309 -0.13428,0.61601 -0.11891,0.62749 0.0639,0.0582 0.22961,0.181 0.36837,0.27296 0.22315,0.1479 0.26334,0.19156 0.34784,0.37795 0.11903,0.26248 0.15503,0.53003 0.092,0.68328 -0.03,0.0731 -0.0479,0.28149 -0.0515,0.5953 -0.005,0.54712 -0.0674,1.00263 -0.15218,1.12356 -0.0652,0.0931 -0.0729,0.23386 -0.0223,0.41526 0.0295,0.10682 0.0225,0.14603 -0.05,0.27596 -0.0534,0.0957 -0.0852,0.2086 -0.0861,0.30668 -0.005,0.56323 -0.0171,2.11836 -0.0163,2.26808 6.2e-4,0.14503 -0.0105,0.1811 -0.0555,0.1811 -0.0312,0 -0.0923,0.0381 -0.13588,0.0845 l -0.0794,0.0845 -0.0623,-0.0759 c -0.0554,-0.0674 -0.0681,-0.0702 -0.1139,-0.0242 -0.0283,0.0284 -0.0822,0.16817 -0.1199,0.31047 -0.0376,0.14229 -0.093,0.34873 -0.12314,0.45873 -0.0301,0.11002 -0.0548,0.27814 -0.0548,0.37358 v 0.17353 l -0.10125,-0.0223 c -0.13708,-0.0301 -0.20623,0.0795 -0.24496,0.38773 -0.0163,0.1297 -0.0472,0.28167 -0.0686,0.33774 -0.0329,0.086 -0.0867,0.94615 -0.0765,1.22301 0.0211,0.57411 0.0458,0.81189 0.1054,1.01762 0.0384,0.13281 0.10855,0.40445 0.15578,0.60367 0.0472,0.19921 0.10522,0.40877 0.12882,0.46568 0.10601,0.25547 0.17766,0.46258 0.22075,0.63817 0.0939,0.38207 0.30126,0.88129 0.37092,0.89249 0.0243,0.003 0.0908,0.0124 0.14772,0.0189 0.0569,0.006 0.12989,0.0227 0.16219,0.0363 0.0324,0.0135 0.074,0.015 0.0925,0.004 0.0186,-0.0113 0.0428,-0.006 0.0541,0.012 0.0112,0.018 0.1071,0.0581 0.21325,0.0891 0.18832,0.0548 0.19247,0.0586 0.17199,0.16105 -0.014,0.0694 -9.2e-4,0.13903 0.0384,0.20557 0.0518,0.0875 0.0532,0.1106 0.0115,0.17731 -0.0264,0.0421 -0.0592,0.12672 -0.0731,0.1879 0,0 -0.0143,-0.0472 -0.0417,0.3803 -0.002,0.0234 -0.0311,0.0517 -0.0659,0.0627 -0.0702,0.0223 -0.0854,0.1356 -0.0234,0.17395 0.0257,0.0159 0.0304,0.009 0.0132,-0.0185 l 0.0505,0.14466 c 0,0.0693 -0.0283,0.14674 -0.0703,0.19169 -0.0576,0.0618 -0.0634,0.0884 -0.0315,0.14803 0.0371,0.0694 0.0328,0.0716 -0.0936,0.0515 -0.1863,-0.03 -0.33682,0.0181 -0.35055,0.11191 -0.009,0.0604 0.0193,0.0897 0.13799,0.14355 0.082,0.0372 0.19225,0.0679 0.24503,0.0685 0.0602,3.1e-4 0.10354,0.0232 0.11626,0.0611 0.0112,0.0333 0.0507,0.1259 0.0877,0.20599 0.0371,0.0801 0.0646,0.18097 0.061,0.22422 -0.0135,0.16634 0.004,0.23209 0.0904,0.33467 0.0642,0.0763 0.11922,0.10614 0.19585,0.10614 0.13155,0 0.64376,-0.18389 0.85272,-0.30615 0.22333,-0.13066 0.53233,-0.45659 0.6384,-0.67339 0.0895,-0.18298 0.0903,-0.19075 0.0377,-0.35406 -0.0296,-0.0919 -0.0625,-0.22517 -0.0732,-0.29631 -0.0106,-0.0712 -0.0337,-0.12937 -0.0516,-0.12937 -0.0357,0 -0.23974,-0.33989 -0.24026,-0.40008 0,-0.0208 0.0616,-0.0658 0.13745,-0.10003 0.10781,-0.0486 0.14529,-0.0892 0.17229,-0.18632 0.019,-0.0684 0.0346,-0.14546 0.0347,-0.17141 0,-0.0259 0.043,-0.0958 0.0954,-0.15524 0.078,-0.0886 0.12602,-0.11026 0.26633,-0.12039 0.0942,-0.006 0.20872,-0.0267 0.25459,-0.0441 0.0612,-0.0232 0.099,-0.0178 0.14171,0.0209 0.0743,0.0671 0.1883,0.0675 0.25486,9.3e-4 0.0285,-0.0284 0.063,-0.0518 0.0768,-0.0518 0.0139,0 0.0863,-0.0626 0.16131,-0.13896 0.075,-0.0764 0.18283,-0.16307 0.23977,-0.19252 0.14792,-0.0765 0.98203,-0.92182 1.16141,-1.17703 0.0888,-0.12646 0.21112,-0.25014 0.29691,-0.30042 0.23932,-0.14027 0.27003,-0.21465 0.22856,-0.55368 -0.0462,-0.37726 -0.0875,-0.46556 -0.37039,-0.78924 -0.13045,-0.14932 -0.27165,-0.32007 -0.3138,-0.37945 -0.14866,-0.2095 -0.5007,-0.50465 -0.6019,-0.50465 -0.0587,0 -0.19426,-0.0693 -0.3544,-0.18112 -0.31226,-0.21796 -0.3207,-0.25852 -0.14344,-0.68949 0.11138,-0.2708 0.29671,-0.82469 0.29671,-0.88674 0,-0.0159 -0.0788,-0.0889 -0.17489,-0.16205 l -0.1749,-0.13308 0.0264,-0.3277 c 0.0595,-0.738 0.0125,-0.90491 -0.11303,-0.40198 -0.0419,0.16783 -0.085,0.31402 -0.0958,0.32483 -0.0471,0.0471 0.0124,-1.15758 0.0864,-1.7502 0.0306,-0.24436 0.0556,-0.31884 0.15266,-0.45398 0.1573,-0.21895 0.25869,-0.42403 0.25869,-0.52328 0,-0.0452 -0.0288,-0.16612 -0.0641,-0.2687 -0.0586,-0.17076 -0.0601,-0.20835 -0.0165,-0.44522 0.0261,-0.14229 0.0452,-0.32081 0.0427,-0.3967 -0.003,-0.0759 -0.003,-0.19768 -9.1e-4,-0.27062 0.002,-0.073 -0.0141,-0.16557 -0.0356,-0.20582 -0.0215,-0.0402 -0.0362,-0.1513 -0.0325,-0.2468 0.003,-0.0955 -0.0115,-0.37375 -0.0339,-0.61834 -0.0325,-0.35526 -0.0317,-0.49239 0.004,-0.68169 0.0364,-0.19299 0.0365,-0.25234 3.1e-4,-0.31968 -0.037,-0.0692 -0.0357,-0.0951 0.009,-0.15841 0.0385,-0.0551 0.0478,-0.12541 0.0342,-0.258 -0.0375,-0.49345 0.38791,-0.67013 0.4153,-1.08184 0.003,-0.0693 0.0215,-0.13718 0.0405,-0.15111 0.0213,-0.0157 0.018,-0.0255 -0.008,-0.0258 -0.0238,-3e-4 -0.0431,-0.0395 -0.0431,-0.0873 0,-0.1881 -0.34411,-0.27238 -0.77417,-0.1896 z m 0.43214,11.96998 c 0.15692,0.16713 0.24056,0.38012 0.16097,0.40993 -0.0189,0.007 -0.0655,0.0439 -0.10354,0.0818 -0.0652,0.0653 -0.0753,0.066 -0.1845,0.014 -0.0765,-0.0366 -0.12278,-0.0874 -0.13711,-0.15093 -0.0589,-0.26079 -0.0885,-0.35344 -0.11913,-0.37238 -0.0184,-0.0115 -0.0335,-0.0509 -0.0335,-0.0876 0,-0.0543 0.0243,-0.0668 0.12759,-0.0668 0.1085,0 0.15179,0.0258 0.28926,0.17219 z m 1.03196,5.46577 c 0,0.008 -0.0156,0.0248 -0.0345,0.0366 -0.019,0.0118 -0.0346,0.004 -0.0346,-0.0152 0,-0.0201 0.0155,-0.0366 0.0346,-0.0366 0.0189,0 0.0345,0.006 0.0345,0.0152 z" />
      <path
         d="m 424.11515,882.08022 c 0.248,0.11749 0.47064,0.23708 0.49475,0.26577 0.0385,0.0458 0.0438,0.11204 0.0438,0.54155 v 0.48938 l 0.0845,0.12785 c 0.13387,0.20281 0.19243,0.33391 0.23031,0.51557 0.0621,0.29744 -0.007,0.42539 -0.38611,0.72082 -0.0582,0.0454 -0.0585,0.0472 -0.0196,0.17823 0.0431,0.14552 0.0521,0.10165 -0.10657,0.5239 -0.0664,0.17674 -0.0724,0.20961 -0.0397,0.22213 0.021,0.008 0.0803,-0.0143 0.13153,-0.0498 0.0512,-0.0354 0.13706,-0.0826 0.19057,-0.10487 0.13799,-0.0573 0.42065,-0.0769 0.54072,-0.0372 0.0882,0.0291 0.10637,0.027 0.18841,-0.0213 0.11827,-0.0697 0.17756,-0.0676 0.27993,0.0107 0.1803,0.13753 0.21646,0.3142 0.14581,0.71249 -0.0557,0.31464 -0.0784,0.39645 -0.28773,1.04429 -0.0754,0.23328 -0.0681,0.27683 0.075,0.446 0.0688,0.0814 0.14359,0.19644 0.16623,0.25571 0.0386,0.1008 0.0384,0.11543 -0.004,0.22673 -0.0694,0.18795 -0.10198,0.22401 -0.24367,0.27068 -0.11076,0.0365 -0.18358,0.0933 -0.44422,0.34678 -0.17145,0.16672 -0.34252,0.33444 -0.38015,0.3727 -0.0744,0.0754 -0.10572,0.18727 -0.19838,0.70608 -0.0491,0.27479 -0.1276,0.53564 -0.19703,0.65484 -0.0152,0.0261 -0.0836,0.17562 -0.15183,0.33222 -0.0683,0.15656 -0.14236,0.3125 -0.16464,0.34652 -0.0594,0.0906 -0.18539,0.13283 -0.39664,0.13283 h -0.18627 l -0.0884,0.17396 -0.0884,0.17399 0.0852,0.0282 c 0.10705,0.0353 0.21204,0.15772 0.21204,0.24722 0,0.0456 -0.0298,0.0969 -0.0898,0.15463 -0.15681,0.15073 -0.16976,0.19605 -0.17159,0.59988 -8.8e-4,0.35193 -0.005,0.36791 -0.0768,0.51353 -0.19211,0.38419 -0.77242,0.5911 -1.34112,0.47813 -0.23156,-0.046 -0.51638,-0.16796 -0.64377,-0.27568 -0.0853,-0.0721 -0.21431,-0.31714 -0.24509,-0.46548 -0.0262,-0.12618 -0.0958,-0.25179 -0.18736,-0.33818 -0.0854,-0.0805 -0.15036,-0.18743 -0.15036,-0.24735 0,-0.0736 0.12593,-0.18519 0.2696,-0.23891 0.19376,-0.0725 0.29162,-0.19102 0.29002,-0.35137 -8.9e-4,-0.11673 -0.053,-0.22532 -0.26548,-0.55502 -0.0497,-0.077 -0.22079,-0.39135 -0.38034,-0.69836 -0.15953,-0.30704 -0.30968,-0.58313 -0.33365,-0.61353 -0.20401,-0.25875 -0.36932,-0.49004 -0.39693,-0.55536 -0.0182,-0.043 -0.0562,-0.21789 -0.0842,-0.38829 -0.11069,-0.67091 -0.21368,-1.06817 -0.30096,-1.16108 -0.0298,-0.0318 -0.1385,-0.0885 -0.24152,-0.12602 -0.24491,-0.0893 -0.42438,-0.24943 -0.52496,-0.46835 -0.0648,-0.14097 -0.0723,-0.18402 -0.0717,-0.4081 5.1e-4,-0.17154 0.015,-0.29393 0.0457,-0.38828 0.0377,-0.11535 0.0472,-0.25807 0.0582,-0.87677 0.0123,-0.69511 0.0167,-0.74928 0.0729,-0.91244 0.073,-0.21183 0.0762,-0.33747 0.0108,-0.42067 -0.0269,-0.0342 -0.13685,-0.10475 -0.24424,-0.1566 -0.10739,-0.0519 -0.23191,-0.12176 -0.27669,-0.15531 -0.10778,-0.0808 -0.21309,-0.12304 -0.42773,-0.17186 -0.14524,-0.033 -0.19156,-0.0563 -0.25384,-0.12718 -0.0689,-0.0784 -0.0762,-0.10326 -0.0762,-0.25569 0,-0.20527 0.0328,-0.25981 0.19409,-0.322 0.3095,-0.11943 1.12793,0.022 1.48671,0.25663 0.063,0.0412 0.0703,0.04 0.23203,-0.0397 0.1528,-0.0752 0.18071,-0.0809 0.32846,-0.0671 0.19873,0.0185 0.34873,0.0918 0.40729,0.19903 0.0681,0.12464 0.0598,0.6048 -0.0138,0.80504 l -0.0544,0.1477 0.0535,0.37642 c 0.0479,0.33677 0.0512,0.42507 0.0312,0.83809 -0.0124,0.25393 -0.0167,0.47011 -0.01,0.48041 0.0409,0.061 0.12923,0.0762 0.29487,0.0506 0.13189,-0.0204 0.26526,-0.0176 0.57747,0.0121 0.22329,0.0213 0.45816,0.0388 0.52193,0.0388 h 0.11596 l -0.0162,-0.17334 c -0.008,-0.0953 -0.008,-0.19183 -2.7e-4,-0.21443 0.008,-0.0226 0.0599,-0.0588 0.11399,-0.0803 0.0917,-0.0367 0.0972,-0.0445 0.0817,-0.11749 -0.008,-0.043 -0.0481,-0.15146 -0.0866,-0.24101 -0.1008,-0.23401 -0.14381,-0.39517 -0.18977,-0.71092 -0.0264,-0.18081 -0.0715,-0.3577 -0.12881,-0.50403 -0.0839,-0.21436 -0.0884,-0.24152 -0.0914,-0.55113 -0.002,-0.27249 0.007,-0.35451 0.0525,-0.50251 0.0984,-0.313 0.28499,-0.50054 0.62073,-0.62412 0.0964,-0.0355 0.22303,-0.0967 0.28129,-0.13616 0.0583,-0.0393 0.19918,-0.0961 0.31314,-0.1261 0.11397,-0.0299 0.34248,-0.0989 0.50784,-0.1532 0.16535,-0.0543 0.34009,-0.0987 0.38828,-0.0987 0.0581,2e-5 0.24015,0.0722 0.53855,0.21364 z m -3.10621,6.07356 c -0.0251,0.18216 0.006,0.31349 0.10358,0.44168 0.0495,0.065 0.0952,0.16088 0.10731,0.22537 0.0424,0.22699 0.0725,0.1872 0.11896,-0.15779 0.0201,-0.14896 0.0527,-0.32818 0.0726,-0.39827 0.0504,-0.17875 0.0483,-0.18563 -0.0581,-0.18606 -0.0517,-2e-4 -0.13899,-0.016 -0.19407,-0.0352 -0.0551,-0.0191 -0.10756,-0.0303 -0.11663,-0.0247 -0.008,0.006 -0.0241,0.0663 -0.0336,0.13494 z"
         id="path42018-2-3-4" />
      <path
         d="m 415.08095,882.78352 c 0.20801,0.0322 0.28244,0.0823 0.30562,0.20581 0.0102,0.0541 0.0604,0.15329 0.11161,0.22042 0.0513,0.0671 0.11608,0.17975 0.14409,0.25027 0.028,0.0706 0.0828,0.1836 0.12164,0.25125 0.0816,0.14199 0.0888,0.22127 0.0283,0.31358 -0.0237,0.0362 -0.0594,0.1439 -0.0794,0.2395 -0.0445,0.21289 -0.0824,0.71477 -0.0569,0.75587 0.013,0.0209 0.045,0.0166 0.1058,-0.0142 0.12936,-0.0654 0.1778,-0.11605 0.1976,-0.20617 0.0209,-0.095 0.11394,-0.14686 0.21723,-0.12094 0.10926,0.0275 0.30512,0.22351 0.38372,0.38414 0.0928,0.18979 0.11533,0.46215 0.0564,0.68318 -0.0239,0.0896 -0.0434,0.22099 -0.0434,0.29201 0,0.071 -0.0122,0.16136 -0.0272,0.20074 -0.0149,0.0393 -0.0451,0.22158 -0.067,0.4049 -0.0218,0.1833 -0.0477,0.37185 -0.0576,0.41898 -0.0174,0.0836 -0.0142,0.0869 0.12737,0.13393 0.30843,0.10245 0.51048,0.42177 0.48161,0.76116 -0.027,0.31733 -0.18529,0.56246 -0.43658,0.67605 -0.13133,0.0594 -0.17598,0.0645 -0.51932,0.0596 -0.36684,-0.006 -0.37595,-0.005 -0.38769,0.0547 -0.0574,0.28606 -0.0981,0.60256 -0.11148,0.86619 -0.0249,0.49186 -0.0646,0.86447 -0.12411,1.16346 l -0.0547,0.27525 0.0684,0.14951 c 0.0514,0.11241 0.0862,0.2815 0.13984,0.6813 0.0392,0.29248 0.0777,0.5708 0.0853,0.61852 0.0106,0.0656 -2e-5,0.0987 -0.0434,0.13587 -0.0316,0.0271 -0.0574,0.0682 -0.0574,0.0913 0,0.0232 0.043,0.21296 0.0956,0.42167 l 0.0956,0.37948 -0.0556,0.18677 c -0.0314,0.10551 -0.0764,0.19784 -0.10328,0.21227 -0.0486,0.026 -0.33614,-0.0532 -0.40804,-0.11255 -0.0619,-0.051 -0.0414,-0.20175 0.0341,-0.25126 0.0376,-0.0246 0.0682,-0.0661 0.068,-0.092 -3.3e-4,-0.0493 -0.12977,-0.59425 -0.2027,-0.85342 -0.0233,-0.0827 -0.0424,-0.20107 -0.0426,-0.26312 -4.9e-4,-0.16947 -0.081,-0.49243 -0.13486,-0.5412 -0.0385,-0.0349 -0.0871,-0.0396 -0.25652,-0.0254 -0.18044,0.0152 -0.21148,0.0254 -0.22693,0.0752 -0.01,0.0317 -0.0523,0.10131 -0.0944,0.15482 -0.14221,0.18081 -0.13373,0.2975 0.0217,0.29857 0.0337,1.8e-4 0.08,0.0296 0.10371,0.0658 0.0379,0.0579 0.0385,0.0843 0.005,0.23028 -0.0222,0.0961 -0.069,0.20164 -0.11224,0.25303 -0.0647,0.0769 -0.0716,0.10242 -0.0543,0.20015 0.0109,0.0616 0.0161,0.14276 0.0114,0.18035 -0.005,0.0375 -0.007,0.10214 -0.005,0.14348 0.0174,0.39295 0.0182,0.38627 -0.0639,0.53621 -0.15522,0.28328 -0.56862,0.56248 -0.99738,0.67359 -0.219,0.0568 -0.62713,0.0459 -0.75156,-0.0198 -0.2711,-0.14343 -0.5945,-0.49266 -0.67169,-0.72534 -0.0249,-0.075 -0.0462,-0.0915 -0.13769,-0.10613 -0.0755,-0.0121 -0.13061,-0.044 -0.18235,-0.10542 -0.0731,-0.0869 -0.0764,-0.0878 -0.23811,-0.067 -0.43992,0.0567 -0.669,0.007 -0.86468,-0.18909 -0.16699,-0.16698 -0.21484,-0.32641 -0.21484,-0.71565 0,-0.24168 -0.009,-0.30322 -0.0503,-0.35717 -0.0702,-0.0909 -0.1137,-0.23072 -0.1137,-0.3651 0,-0.0847 -0.0167,-0.12983 -0.0647,-0.17486 -0.0355,-0.0334 -0.11092,-0.15938 -0.16752,-0.27998 -0.13848,-0.29511 -0.15678,-0.55988 -0.0687,-0.99433 0.0685,-0.33763 0.12404,-0.46694 0.24431,-0.56814 0.16665,-0.14024 0.34688,-0.15454 0.96322,-0.0765 0.3465,0.0439 0.7965,0.0433 0.81763,-8.2e-4 0.14174,-0.2973 0.1815,-0.474 0.13591,-0.60408 -0.0412,-0.11769 -0.15543,-0.70006 -0.17919,-0.91387 -0.0144,-0.12909 -0.009,-0.19037 0.0258,-0.26229 0.0344,-0.0726 0.0424,-0.1563 0.0351,-0.3689 -0.0103,-0.29981 -0.003,-0.28185 -0.23201,-0.53482 -0.27167,-0.29944 -0.31742,-0.47845 -0.162,-0.63387 0.11433,-0.11432 0.26966,-0.1498 0.37961,-0.0867 l 0.0765,0.0439 -0.0166,-0.11496 c -0.009,-0.0632 -0.053,-0.16725 -0.0975,-0.23116 -0.11694,-0.16803 -0.23994,-0.45282 -0.25996,-0.60199 -0.0119,-0.0888 -0.0571,-0.18863 -0.14488,-0.32034 -0.0933,-0.13999 -0.18503,-0.34892 -0.34188,-0.7789 -0.19566,-0.53644 -0.21537,-0.60918 -0.22649,-0.83581 -0.01,-0.19426 -0.003,-0.26704 0.0325,-0.33465 0.0542,-0.10481 0.23607,-0.20114 0.47152,-0.24972 0.22341,-0.0461 0.83297,-0.0246 1.09859,0.0389 0.18361,0.0438 0.21626,0.0627 0.37341,0.21593 0.0947,0.0924 0.21325,0.20022 0.26341,0.2397 0.10874,0.0855 0.48534,0.2811 0.50451,0.26193 0.007,-0.007 0.0163,-0.0943 0.0198,-0.19307 0.005,-0.14502 0.0186,-0.19265 0.07,-0.2473 0.035,-0.0372 0.0745,-0.12628 0.0879,-0.19787 0.0298,-0.1597 0.12403,-0.26431 0.2943,-0.32682 0.14781,-0.0543 0.84404,-0.0773 1.10699,-0.0367 z m -3.99559,8.69485 c -0.0483,0.0483 -0.0401,0.16393 0.0213,0.29902 0.0297,0.0655 0.0544,0.17056 0.0547,0.23343 4.9e-4,0.0947 0.0143,0.12401 0.08,0.17081 0.11258,0.0801 0.13926,0.071 0.13926,-0.0479 0,-0.1344 0.0739,-0.35671 0.14443,-0.43458 0.0535,-0.0591 0.0536,-0.0612 0.003,-0.076 -0.0286,-0.008 -0.11956,-0.0509 -0.20223,-0.0944 -0.17217,-0.0906 -0.19539,-0.0954 -0.24051,-0.0503 z"
         id="path42440-0-3-01" />
    </g>
  </g>
</svg>
