<?xml version="1.0" encoding="UTF-8" standalone="no"?>
<!-- Created with Inkscape (http://www.inkscape.org/) -->

<svg
   width="17.691891mm"
   height="8.3174429mm"
   viewBox="0 0 17.691891 8.3174431"
   version="1.1"
   id="svg33402"
   sodipodi:docname="inkporter-svg-71kf7czj.svg"
   inkscape:version="1.1.1 (3bf5ae0d25, 2021-09-20)"
   xmlns:inkscape="http://www.inkscape.org/namespaces/inkscape"
   xmlns:sodipodi="http://sodipodi.sourceforge.net/DTD/sodipodi-0.dtd"
   xmlns="http://www.w3.org/2000/svg"
   xmlns:svg="http://www.w3.org/2000/svg">
  <sodipodi:namedview
     id="namedview555"
     pagecolor="#ffffff"
     bordercolor="#666666"
     borderopacity="1.0"
     inkscape:pageshadow="2"
     inkscape:pageopacity="0.0"
     inkscape:pagecheckerboard="0"
     inkscape:document-units="mm"
     showgrid="false"
     inkscape:zoom="2.5097476"
     inkscape:cx="-1212.871"
     inkscape:cy="1547.3668"
     inkscape:window-width="1920"
     inkscape:window-height="1017"
     inkscape:window-x="-8"
     inkscape:window-y="-8"
     inkscape:window-maximized="1"
     inkscape:current-layer="svg33402" />
  <defs
     id="defs14119" />
  <path
     d="m 11.50147,2.959349 v -0.04797 h -0.044 z M 0.60513,5.795806 c 0,0.104281 0.0845,0.189177 0.18874,0.189177 0.1038,0 0.18869,-0.0849 0.18869,-0.189177 0,-0.104242 -0.0849,-0.188697 -0.18869,-0.188697 -0.10424,0 -0.18874,0.08445 -0.18874,0.188697 m 1.05314,1.054022 c 0.10424,0 0.1883,-0.08534 0.1883,-0.18918 0,-0.104684 -0.0841,-0.189135 -0.1883,-0.189135 -0.10424,0 -0.18918,0.08445 -0.18918,0.189135 0,0.103843 0.0849,0.18918 0.18918,0.18918 M 0.91397,6.540993 c 0.0735,0.0735 0.19267,0.0735 0.26612,0 0.0743,-0.07434 0.0743,-0.193552 0,-0.267007 -0.0734,-0.07434 -0.19267,-0.07434 -0.26612,0 -0.0743,0.07345 -0.0743,0.192669 0,0.267007 M 2.08323,6.37911 c -0.009,0.05764 0.009,0.117891 0.0528,0.161883 0.0563,0.05588 0.139,0.06952 0.20809,0.04014 z m 9.99011,0.585516 h -0.0453 c 0.0108,0.04399 0.0184,0.09019 0.0225,0.136796 0.004,-0.0466 0.012,-0.0928 0.0229,-0.136796 M 6.56591,7.833002 H 6.8175 V 7.966709 H 7.23544 C 6.94992,7.819798 6.75416,7.522001 6.75416,7.17885 c 0,-0.0739 0.01,-0.146029 0.0265,-0.214224 h -0.0937 c 0.0172,0.0682 0.0261,0.140328 0.0261,0.214224 0,0.343151 -0.19532,0.640948 -0.48127,0.787859 h 0.33436 z m 1.70023,0 H 8.51817 V 7.966709 H 9.04825 C 8.76278,7.819798 8.5679,7.522001 8.5679,7.17885 c 0,-0.0739 0.009,-0.146029 0.0257,-0.214224 H 8.4999 c 0.0172,0.0682 0.0261,0.140328 0.0261,0.214224 0,0.343151 -0.19532,0.640948 -0.48123,0.787859 h 0.22168 z m 1.70062,0.133707 v -0.06683 c -0.0349,0.02448 -0.0708,0.04704 -0.10954,0.06683 z m 0.0823,-0.133707 h 0.16935 v 0.133707 h 0.5459 C 10.54173,7.852349 10.37455,7.646475 10.31121,7.399255 10.26761,7.568602 10.17486,7.718607 10.04906,7.833002 M 11.667,7.966709 v -0.05627 c -0.0297,0.02046 -0.0611,0.03974 -0.0937,0.05627 z m 0.85076,0 C 12.25954,7.823329 12.07743,7.56202 12.05058,7.255837 12.03088,7.484151 11.92478,7.687376 11.7651,7.833002 h 0.15398 v 0.133707 z m 3.06698,-0.82876 -0.0245,-0.06864 c -0.0317,0.004 -0.0633,0.004 -0.0955,0.004 -0.29342,0 -0.56219,-0.103361 -0.77333,-0.275798 h -0.95897 c 0.0549,0.115682 0.0862,0.245452 0.0862,0.382287 0,0.252035 -0.10605,0.480349 -0.27539,0.64135 l 0.009,0.06643 c 0.15088,-0.03373 0.31055,-0.07699 0.4742,-0.126238 l -0.0594,-0.163646 0.2371,-0.08578 0.0625,0.171997 c 0.128,-0.04311 0.25645,-0.08887 0.38361,-0.136797 l -0.0145,-0.03974 0.15746,-0.0572 -0.0642,-0.177296 0.23622,-0.08622 0.0651,0.177296 0.14779,-0.05367 c 0.15,-0.04576 0.28507,-0.109541 0.40694,-0.171556 M 1.53902,7.022604 1.51932,7.077114 C 1.66583,7.147074 1.85541,7.233737 2.0657,7.325657 L 2.1203,7.176538 2.3574,7.262318 2.298,7.425087 c 0.17376,0.0739 0.35499,0.147831 0.53317,0.216432 l 0.0506,-0.139887 0.23667,0.08622 -0.0515,0.142096 C 3.19936,7.777868 3.32736,7.821018 3.44525,7.857509 3.25258,7.695185 3.12984,7.4515 3.12984,7.179635 c 0,-0.0871 0.0116,-0.170673 0.0353,-0.249869 L 2.52202,6.675082 C 2.29985,6.893681 1.99499,7.028308 1.6589,7.028308 c -0.0405,0 -0.08,-0.004 -0.11961,-0.0056 m 2.9293,0.917187 0.49837,0.02769 V 7.83384 H 5.21859 V 7.967585 H 5.42315 C 5.13767,7.820674 4.94191,7.522838 4.94191,7.179726 c 0,-0.0739 0.01,-0.146068 0.0265,-0.214224 h -0.0941 c 0.0177,0.06816 0.0265,0.140328 0.0265,0.214224 0,0.323324 -0.17332,0.605744 -0.43198,0.760162 M 0.6113,4.836386 0.5141,4.720223 0.64258,4.612047 0.72928,4.715404 C 0.78298,4.667924 0.84011,4.624764 0.90084,4.586958 L 0.90884,4.553228 0.83844,4.470538 0.12624,4.985205 0,4.829905 0.93128,4.158611 V 3.822524 L 1.20487,4.01126 V 3.92769 H 3.6846 L 3.88607,2.933076 H 4.60749 V 2.827948 H 4.73333 V 2.744338 H 5.50975 V 2.639214 H 5.1741 V 2.429364 H 4.36818 V 2.334794 H 3.6252 c -0.0537,0 -0.0972,-0.04355 -0.0972,-0.09722 V 2.177764 H 1.07865 V 1.875995 H 3.528 v -0.06029 c 0,-0.05367 0.0435,-0.09766 0.0972,-0.09766 H 4.36818 V 1.623915 H 5.1442 L 5.42618,1.267158 H 5.63554 V 1.392955 H 5.8533 L 5.95843,1.204258 6.6306,1.099095 7.33092,1.030495 V 0.910434 H 7.45675 V 0.80575 h 0.65062 v 0.104684 h 0.1258 v 0.03133 L 8.33785,0.931714 H 8.7659 V 0.650617 h 0.084 V 0.419657 H 8.9445 V 0.146949 H 9.04919 V 0 h 2.04333 v 0.146949 h 0.10561 v 0.272708 h 0.0941 v 0.324647 l 1.96282,0.358084 V 2.53601 h -1.85946 l 0.10733,0.351501 v -0.04094 c 0,-0.05366 0.0436,-0.09677 0.0972,-0.09677 h 0.91767 c 0.0537,0 0.0972,0.04311 0.0972,0.09677 v 0.230523 l 0.20411,0.008 V 2.946089 c 0,-0.05366 0.0444,-0.09722 0.0972,-0.09722 h 0.91851 c 0.0537,0 0.0968,0.04355 0.0968,0.09722 v 0.179906 l 0.44868,0.01725 0.19929,0.04178 h 0.74519 v 0.105569 h 0.13503 c 0,-0.0629 0.0431,-0.106451 0.0968,-0.106451 h 0.39329 c 0.0537,0 0.0972,0.04355 0.0972,0.09722 v 0.07875 c 0,0.05367 -0.0435,0.09722 -0.0972,0.09722 h -0.077 l 1.44113,0.302651 0.37787,0.356761 H 17.4816 v 0.398543 h 0.14695 V 5.17426 h -0.89037 c 0.0181,0.0796 0.0479,0.154375 0.0713,0.231362 l 0.14165,-0.05716 0.0625,0.155702 -0.16718,0.06731 c 0.014,0.0871 0.0184,0.175088 0.0145,0.264838 l 0.17067,0.03291 -0.0321,0.16449 -0.15614,-0.03052 c -0.0133,0.07831 -0.0329,0.156623 -0.0599,0.234495 l 0.17023,0.03291 -0.0321,0.16449 -0.2019,-0.03853 c -0.0301,0.06378 -0.0647,0.127603 -0.10425,0.190945 l 0.1368,0.12712 -0.11436,0.122749 -0.11877,-0.110423 c -0.047,0.06245 -0.099,0.124029 -0.15662,0.183878 l 0.11042,0.102916 -0.11436,0.12319 -0.11793,-0.110868 c -0.0558,0.044 -0.12535,0.09196 -0.20848,0.142537 l 0.0466,0.12712 -0.15791,0.05764 -0.0357,-0.09854 c -0.0669,0.03693 -0.13948,0.07522 -0.21603,0.113513 l 0.0249,0.06728 -0.15791,0.05764 -0.0184,-0.05057 c -0.0801,0.03813 -0.1632,0.0761 -0.24942,0.114356 l 0.0108,0.03009 -0.15703,0.05676 c -0.0814,0.01044 -0.15618,0.04138 -0.2314,0.07081 l -0.15353,0.06952 c -0.0809,0.02127 -0.15968,0.04969 -0.23755,0.07743 l 0.0177,0.05014 -0.15746,0.05764 -0.0193,-0.05323 c -0.0765,0.02568 -0.15398,0.05014 -0.23008,0.07345 l 0.0229,0.06246 -0.15747,0.0572 -0.0265,-0.07213 c -0.0704,0.01965 -0.13989,0.03813 -0.20808,0.05539 l 0.0185,0.133746 -0.1663,0.02328 -0.0169,-0.118773 c -0.0818,0.01806 -0.161,0.0333 -0.2371,0.04532 l 0.0149,0.106892 -0.16626,0.02328 -0.0152,-0.107773 c -0.0752,0.0084 -0.14651,0.01245 -0.21206,0.01245 h -0.0333 V 8.317443 H 12.75955 V 8.210992 H 12.51891 V 8.317443 H 12.35089 V 8.210992 H 12.0777 V 8.317443 H 11.90963 V 8.210992 H 11.66815 V 8.317443 H 11.50009 V 8.210992 H 11.22738 V 8.317443 H 11.05932 V 8.210992 h -0.24108 l -3.5e-4,0.106451 H 10.65031 V 8.210992 H 10.37656 V 8.317443 H 10.20942 V 8.210992 H 9.96794 V 8.317443 H 9.79992 V 8.210992 H 9.52673 V 8.317443 H 9.35915 V 8.210992 H 9.11719 V 8.317443 H 8.95004 V 8.210992 H 8.67642 V 8.317443 H 8.50879 V 8.210992 H 8.26731 V 8.317443 H 8.09925 V 8.210992 H 7.82654 V 8.317443 H 7.65848 V 8.210992 H 7.4174 V 8.317443 H 7.24938 V 8.210992 H 6.97619 V 8.317443 H 6.80816 V 8.210992 H 6.56709 V 8.317443 H 6.39906 V 8.210992 H 6.22707 V 8.317443 H 6.059 V 8.210992 H 5.81748 V 8.317443 H 5.6499 V 8.210992 H 5.37671 V 8.317443 H 5.20913 V 8.210992 H 4.96761 V 8.317443 H 4.79959 V 8.210992 H 4.62626 V 8.317443 H 4.45908 V 8.210992 H 4.2176 V 8.317443 H 4.04954 V 8.210992 h -0.073 c -0.0297,0 -0.0647,-0.004 -0.10472,-0.008 l -0.0193,0.09328 -0.16405,-0.03532 0.0185,-0.08843 C 3.63617,8.156082 3.55825,8.135992 3.47292,8.111792 l -0.0213,0.09898 -0.16405,-0.03493 0.0241,-0.112593 -0.16718,-0.0541 -0.0325,0.09015 -0.15791,-0.0576 0.0317,-0.08666 -0.22743,-0.08273 -0.0313,0.0871 -0.15707,-0.0576 0.0317,-0.08887 -0.23224,-0.09152 -0.0193,0.05282 -0.15795,-0.05764 0.0221,-0.05896 -0.22257,-0.09457 -0.0261,0.07085 -0.15791,-0.0572 0.0297,-0.0814 C 1.75211,7.457189 1.66802,7.418769 1.58842,7.380521 L 1.55112,7.483437 1.39361,7.425837 1.43671,7.307064 C 1.35971,7.269334 1.28715,7.231844 1.22028,7.195759 L 1.16658,7.343111 1.00867,7.285951 1.07197,7.112187 C 0.99457,7.067317 0.92943,7.024647 0.87886,6.986792 l -0.15,0.139887 -0.1144,-0.122707 0.1333,-0.124513 C 0.68666,6.824909 0.63031,6.766867 0.57841,6.707022 L 0.44948,6.827118 0.33513,6.704372 0.47722,6.572874 C 0.43632,6.512584 0.40022,6.450129 0.37033,6.385906 L 0.16578,6.426046 0.13368,6.261073 0.30701,6.227343 C 0.28291,6.151683 0.26481,6.07337 0.25461,5.991564 l -0.1667,0.03253 -0.0325,-0.164973 0.18825,-0.03653 c -3.5e-4,-0.0818 0.006,-0.165375 0.0213,-0.251594 l -0.19178,-0.07655 0.0633,-0.156182 0.1663,0.06731 c 0.0225,-0.0761 0.051,-0.15221 0.0858,-0.225224 L 0.22669,5.114801 0.28999,4.95906 0.46906,5.03167 C 0.51126,4.96259 0.55876,4.897484 0.61155,4.836753"
     id="G-PanzerIIIShort" />
</svg>
