<?xml version="1.0" encoding="UTF-8" standalone="no"?>
<!-- Created with Inkscape (http://www.inkscape.org/) -->

<svg
   width="20.411348mm"
   height="8.6685801mm"
   viewBox="0 0 20.411348 8.6685801"
   version="1.1"
   id="svg1"
   sodipodi:docname="inkporter-svg-b8d36se7.svg"
   xmlns:inkscape="http://www.inkscape.org/namespaces/inkscape"
   xmlns:sodipodi="http://sodipodi.sourceforge.net/DTD/sodipodi-0.dtd"
   xmlns="http://www.w3.org/2000/svg"
   xmlns:svg="http://www.w3.org/2000/svg">
  <sodipodi:namedview
     id="namedview1"
     pagecolor="#ffffff"
     bordercolor="#666666"
     borderopacity="1.0"
     inkscape:showpageshadow="2"
     inkscape:pageopacity="0.0"
     inkscape:pagecheckerboard="0"
     inkscape:deskcolor="#d1d1d1"
     inkscape:document-units="mm"
     inkscape:zoom="2.0586053"
     inkscape:cx="292.91676"
     inkscape:cy="605.99281"
     inkscape:window-width="1920"
     inkscape:window-height="1017"
     inkscape:window-x="-8"
     inkscape:window-y="-8"
     inkscape:window-maximized="1"
     inkscape:current-layer="layer1" />
  <defs
     id="defs1" />
  <g
     inkscape:label="Layer 1"
     inkscape:groupmode="layer"
     id="layer1"
     transform="translate(-60.589565,-147.90209)">
    <path
       d="m 80.764052,153.61091 c 0.0072,-0.003 0.01478,-0.003 0.02021,-0.006 v -0.18254 c -0.01058,-0.004 -0.02293,-0.007 -0.03591,-0.007 -0.05198,0 -0.09551,0.0444 -0.09551,0.0988 0,0.013 0.0028,0.0263 0.0072,0.038 l -0.610566,-0.34437 c -0.0028,-0.15973 -0.07647,-0.30254 -0.191858,-0.39255 0.02413,-0.057 0.05412,-0.13056 0.06299,-0.15337 0.0139,-0.0384 -0.08199,-0.0773 -0.08199,-0.0773 l 0.19014,-0.29915 -0.07056,-0.12338 c 0,0 -0.206611,0.0148 -0.309721,0.0317 -0.103106,0.0169 -0.131403,0.082 -0.131403,0.082 l -0.109865,0.1851 c -0.03126,-0.0278 -0.07056,-0.0452 -0.114512,-0.0452 -0.09632,0 -0.174935,0.0807 -0.174935,0.17958 0,0.0655 0.0338,0.12211 0.08495,0.15382 h -0.0803 l -0.278014,-0.95621 0.224801,-0.0389 -0.01446,-0.0883 -0.236199,0.041 -0.04398,-0.15086 -0.363774,-0.0241 0.0028,-0.0735 -0.279308,-0.0115 -0.0028,0.0668 -0.705223,-0.0473 -0.04734,-0.10564 c 0,0 -0.716206,-0.0317 -0.716206,-0.0384 0,-0.005 -0.07436,0.057 -0.108567,0.0866 l -0.0524,-0.004 v -0.046 l -0.278466,-0.0115 -0.0028,0.0393 -0.57253,-0.0385 c 0,0 -0.04775,-0.12592 -0.111128,-0.29198 l 1.689279,0.009 0.01658,-1.45606 -1.955923,-0.23747 c 0.006,-0.007 0.01058,-0.0157 0.01058,-0.0253 0,-0.0223 -0.01778,-0.0405 -0.04015,-0.0405 h -0.0039 v -0.049 h -0.03717 v -0.15421 c 0,0 0.08914,-0.0393 0.08914,-0.16438 0,-0.12548 -0.160123,-0.27041 -0.160123,-0.27041 l 0.01446,-0.22691 -0.03804,-0.0389 h -0.767733 v -0.0748 h -0.408181 v 0.0748 h -0.786346 l -0.03468,0.0359 v 0.22477 c 0,0 -0.176202,0.15466 -0.176202,0.29451 0,0.10396 0.05409,0.13904 0.08196,0.15002 h -0.303805 l -0.04096,-0.32368 c 0,0 -0.02836,-0.0384 -0.167333,-0.0384 -0.137739,0 -0.158885,0.0431 -0.158885,0.0431 l -0.06465,0.45888 h -0.163078 l -2.148198,0.24761 v -1.59254 h -0.0193 v 1.59507 l -0.307185,0.0347 h -0.131402 l -0.02445,0.12465 c -0.06676,0.0321 -0.186757,0.10015 -0.312251,0.20534 h -0.0115 c 0.0638,-0.0896 0.121267,-0.1673 0.122114,-0.16899 0.0199,-0.0254 0.0139,-0.0621 -0.01027,-0.0811 -0.02413,-0.0193 -0.05958,-0.0148 -0.07946,0.0109 -0.0048,0.006 -0.09083,0.12296 -0.171527,0.23917 h -1.373682 v 0.0904 h -1.507193 l -0.09002,0.0993 -4.04285,-0.0722 h -0.351949 l -0.333823,-0.14453 h -0.117041 l -0.04519,0.0811 h -0.451256 v -0.0723 h -0.13566 v 0.6858 h 0.117467 l -0.0094,-0.0634 h 0.469452 l 0.04519,0.0634 0.09931,0.009 0.360853,-0.18043 4.376638,0.12634 0.126341,0.12591 h 1.533831 v 0.0904 h 1.305627 c 0.0338,0.11068 0.06422,0.20998 0.06422,0.20998 0.0093,0.0309 0.041,0.0478 0.07101,0.0384 0.02925,-0.01 0.04645,-0.0418 0.03631,-0.0727 l -0.06084,-0.20153 c 0.03295,0.0477 0.07647,0.10352 0.134359,0.16859 l -0.08241,0.40266 h -0.417897 l -0.384073,0.0435 -0.09931,0.0871 -0.05577,0.005 -0.04223,-0.0431 -0.447068,0.0427 -0.0042,-0.0478 -0.668877,0.0596 0.0048,0.0524 -0.353667,0.0334 v -0.063 h -0.07056 v 0.10606 h 0.02748 v 0.0241 l -0.400124,0.0558 -0.0039,-0.007 -0.174936,0.0925 0.117892,0.23662 -0.01178,0.0773 h -0.09931 l -0.106878,0.16269 h -0.268753 v -0.0241 h -0.164348 v 0.0313 l -0.16437,-0.0217 v 0.11578 l 0.16437,-0.0304 v 0.026 h 0.164348 v -0.0193 h 0.253972 v 0.0964 H 65.60045 v -0.0334 h -0.116625 v 0.0313 l -0.08957,0.0456 v 0.0241 h -0.07692 c -0.0169,-0.21125 -0.133515,-0.20703 -0.133515,-0.20703 0,-0.15635 -0.199429,-0.17325 -0.26875,-0.17451 v -0.019 h -0.06042 v 0.20746 h -0.248874 c -0.141538,0 -0.159702,0.14495 -0.159702,0.14495 h 0.40351 v 0.10646 h 0.136497 v 0.10142 h -0.07565 v 0.0769 h -0.04139 v 0.0439 h -0.02413 c 0,0 -0.596201,-0.0245 -1.319166,0.23621 l -0.0028,0.004 c 0,-0.025 -0.0193,-0.0448 -0.04396,-0.0448 -0.02505,0 -0.0444,0.0208 -0.0444,0.0461 0,0.008 0.0028,0.0145 0.0051,0.0202 l -0.08069,0.10818 0.04268,0.0343 0.09041,-0.11915 c 3.03e-4,0 0.0028,0 0.0028,0 l -0.70055,1.0534 h 0.211678 l 0.01358,-0.0193 h 0.345649 l -0.01298,0.0579 -0.234509,0.0871 c 0,0 -0.107332,0.0722 -0.06,0.14028 0.02321,0.0334 0.04987,0.0566 0.07946,0.0676 v 0.16395 h 0.06124 v -0.1593 c 0.01027,-0.003 0.0217,-0.005 0.03341,-0.0103 0.0085,-0.004 0.02198,-0.009 0.03507,-0.0139 l 0.05493,0.0211 0.03807,0.19312 -0.09466,0.0385 0.0066,0.0841 0.112398,0.0321 0.12507,0.19946 -0.0752,0.0642 0.04395,0.0837 0.119158,-0.019 0.137318,0.13478 -0.04353,0.0904 0.04986,0.0769 0.119157,-0.0579 0.200276,0.10311 -0.01235,0.1035 0.06253,0.0511 0.07437,-0.0836 0.175351,0.0963 -0.02445,0.10987 0.08748,0.0448 0.05029,-0.0769 0.21252,0.09 -0.0054,0.10308 0.05578,0.0579 0.07436,-0.071 0.182115,0.0773 -0.02445,0.10312 0.08069,0.0642 0.06296,-0.071 0.187607,0.10353 -0.01901,0.09 0.08115,0.0448 0.06338,-0.0642 0.206184,0.0968 -0.03087,0.10941 0.09337,0.0516 0.03759,-0.0516 0.200724,0.0642 v 0.0968 l 0.100125,0.013 0.0309,-0.0651 h 0.242962 l 0.03889,0.0997 h 0.09716 v -0.0997 h 0.22691 l 0.03889,0.0997 h 0.09719 v -0.0997 h 0.242962 l 0.03846,0.0997 h 0.09719 v -0.0997 h 0.233247 l 0.03973,0.0997 h 0.09635 v -0.0997 h 0.226882 l 0.03892,0.0997 h 0.09717 v -0.0997 h 0.242958 l 0.03889,0.0997 h 0.09719 v -0.0997 h 0.242958 l 0.03888,0.0997 h 0.09678 v -0.0997 h 0.227721 l 0.03804,0.0997 h 0.09717 v -0.0997 h 0.242965 l 0.03848,0.0997 h 0.09717 v -0.0997 h 0.240006 l 0.03888,0.0997 h 0.09678 v -0.0997 h 0.227327 l 0.03889,0.0997 h 0.09717 v -0.0997 h 0.242538 l 0.03892,0.0997 h 0.09674 v -0.0997 h 0.23663 l 0.0393,0.0997 h 0.09677 v -0.0997 h 0.227333 l 0.03931,0.0997 h 0.09674 v -0.0997 h 0.243381 l 0.03807,0.0997 h 0.09725 v -0.0997 h 0.237081 l 0.03843,0.0997 h 0.09674 v -0.0997 h 0.226914 l 0.0393,0.0997 h 0.09719 v -0.0997 h 0.242539 l 0.03973,0.0997 h 0.09677 v -0.0997 h 0.239159 l 0.03973,0.0997 h 0.09677 v -0.0997 h 0.226483 l 0.03973,0.0997 h 0.09635 v -0.0997 h 0.243385 l 0.03846,0.0997 h 0.09719 v -0.0997 h 0.242539 l 0.03889,0.0997 h 0.09677 v -0.0997 h 0.227725 l 0.03849,0.0997 h 0.0972 v -0.0997 h 0.242955 l 0.03846,0.0997 h 0.0972 v -0.0997 h 0.236626 l 0.03888,0.0997 h 0.09674 v -0.0997 h 0.22818 l 0.03758,0.0997 h 0.09719 v -0.0997 h 0.243382 l 0.03804,0.0997 h 0.09762 v -0.0997 h 0.223953 l 0.03889,0.0997 h 0.09717 v -0.0997 h 0.242538 l 0.03933,0.0997 h 0.09717 v -0.10142 l 0.215088,-0.0302 0.0752,0.10311 0.08112,-0.013 0.0066,-0.10987 0.207063,-0.0511 0.04986,0.0904 0.106482,-0.026 -0.0127,-0.0841 0.212944,-0.0579 0.04944,0.09 0.09379,-0.019 0.0127,-0.09 0.213819,-0.0642 0.04944,0.0963 0.106035,-0.0452 -0.0054,-0.0773 0.187216,-0.0452 0.05068,0.0773 0.09973,-0.019 v -0.09 l 0.213811,-0.0452 0.03675,0.0769 0.09421,-0.019 -0.0127,-0.0837 0.212128,-0.0837 0.06296,0.0837 0.06887,-0.0452 0.0063,-0.0837 0.199849,-0.0967 0.05029,0.0579 0.10649,-0.0516 -0.02448,-0.0642 0.130986,-0.18042 0.118731,0.0325 0.04395,-0.0773 -0.02505,-0.0385 0.05578,-0.21974 0.119577,-0.0123 0.0127,-0.0647 -0.03758,-0.0579 0.006,-0.21252 0.106909,-0.0452 v -0.0706 l -0.08787,-0.0253 -0.05029,-0.22561 0.100119,-0.0516 -0.03126,-0.10353 -0.05662,0.007 -0.169023,-0.16775 0.05662,-0.09 -0.04395,-0.0837 -0.06845,0.0452 -0.181268,-0.1483 0.03045,-0.0803 h 1.242702 l 0.06127,-0.13563 z m -15.416325,-0.92454 h -0.182958 v -0.044 h -0.03717 v -0.0769 h -0.06085 v -0.10142 h 0.09295 v 0.14027 h 0.188024 z m 0.130559,2.97678 c 0,0.13862 0.03847,0.26706 0.1048,0.37693 l -0.08326,0.0642 -0.06929,-0.0389 0.04434,-0.18043 -0.137738,-0.09 -0.156351,0.11578 -0.06887,-0.0452 0.04944,-0.17367 -0.130559,-0.0773 -0.156775,0.12887 -0.06338,-0.0389 0.05746,-0.18 -0.138166,-0.0773 -0.155924,0.10941 -0.08154,-0.026 0.04983,-0.18676 0.08749,-0.0193 0.03716,0.0837 0.169027,-0.026 0.0103,-0.0883 h 0.731407 c -0.06253,0.10775 -0.0993,0.23409 -0.0993,0.36888 m 0.620306,-3.03509 -0.0087,0.0583 h -0.37563 v -0.0583 z m 0.03551,3.75087 -2.99e-4,0.003 h -0.04519 l -0.0097,-0.007 c 0.0187,0.003 0.03717,0.005 0.05536,0.005 m 0.394631,-0.0972 -0.03126,0.0989 h -0.0752 l -0.01478,-0.041 c 0.04269,-0.0151 0.08323,-0.0351 0.121268,-0.0579 m 0.765196,-0.0528 -0.04899,0.1517 h -0.08074 l -0.06169,-0.17029 h -0.171976 l -0.05491,0.17029 h -0.09002 l -0.06169,-0.17029 h -0.09677 c 0.104372,-0.0909 0.180844,-0.21212 0.219731,-0.35113 h 0.204075 c 0.04142,0.14875 0.127603,0.2772 0.242958,0.36972 m 0.316928,0.14196 -0.0028,0.01 h -0.07436 l -0.0115,-0.0296 c 0.02868,0.008 0.05828,0.0151 0.0883,0.0199 m 0.395905,-0.0528 -0.0193,0.0625 h -0.0904 l -0.0085,-0.0211 c 0.04097,-0.0106 0.08069,-0.0241 0.118314,-0.0414 m 0.775367,-0.10519 -0.05367,0.16776 h -0.0752 l -0.06085,-0.17029 h -0.172398 l -0.05451,0.17029 h -0.09086 l -0.06124,-0.17029 h -0.03976 c 0.15041,-0.13183 0.246341,-0.3279 0.246341,-0.54719 0,-0.13481 -0.03717,-0.26115 -0.100153,-0.3689 h 0.312702 c -0.06296,0.10775 -0.100147,0.23409 -0.100147,0.3689 0,0.22055 0.09719,0.41829 0.249711,0.54972 m 0.329173,0.15717 -0.0032,0.0106 h -0.09086 l -0.0139,-0.0402 c 0.03468,0.0127 0.07056,0.0223 0.108176,0.0296 m 0.390017,-0.0452 -0.0187,0.0558 h -0.08664 l -0.0075,-0.019 c 0.03931,-0.009 0.07647,-0.0211 0.112822,-0.0367 m 0.825229,-0.11451 h -0.04733 l -0.05409,0.17029 h -0.09086 l -0.06084,-0.17029 h -0.17279 l -0.05452,0.17029 h -0.07481 l -0.06211,-0.17029 h -0.02716 c 0.10353,-0.0909 0.180852,-0.21213 0.219308,-0.35114 h 0.204921 c 0.03849,0.13901 0.115779,0.26027 0.220155,0.35114 m 0.278465,0.14787 -0.0075,0.0223 h -0.08492 l -0.02233,-0.0638 c 0.03674,0.0172 0.07478,0.0309 0.114935,0.0414 m 0.364649,-0.005 -0.0094,0.0278 h -0.07521 l -0.0028,-0.009 c 0.02956,-0.004 0.05874,-0.0109 0.08703,-0.019 m 0.617774,-0.68958 c 0,0.21928 0.09632,0.41537 0.246341,0.54719 h -0.06806 l -0.05406,0.17029 h -0.08452 l -0.06127,-0.17029 H 71.39377 l -0.05448,0.17029 H 71.24885 L 71.19603,156.237 c 0.1686,-0.13099 0.278888,-0.33802 0.278888,-0.57254 0,-0.13478 -0.03631,-0.26114 -0.09973,-0.36887 h 0.312254 c -0.06296,0.10773 -0.100125,0.23409 -0.100125,0.36887 m 0.496902,0.68704 -0.0097,0.0305 h -0.07439 l -0.02836,-0.0769 c 0.03595,0.0187 0.07313,0.0342 0.112434,0.0465 m 0.376022,0.007 -0.0072,0.0236 h -0.08998 l -0.0028,-0.004 c 0.0338,-0.004 0.06633,-0.0106 0.09888,-0.0193 m 0.587305,-7.10965 h -0.302112 l -0.0127,-0.10141 h 0.314812 z m 0.332556,6.96301 h -0.134362 l -0.05451,0.17029 h -0.07481 l -0.06127,-0.17029 h -0.171948 l -0.05409,0.17029 h -0.08791 l -0.0486,-0.13521 c 0.125494,-0.0934 0.219731,-0.22859 0.263687,-0.38618 h 0.203652 c 0.03849,0.139 0.116201,0.26027 0.220154,0.3511 m 0.204918,0.1238 -0.01478,0.0465 h -0.08999 l -0.04691,-0.12803 c 0.04733,0.0334 0.09804,0.0604 0.151705,0.0815 m 0.368032,0.0351 -0.0042,0.0115 h -0.09002 l -3e-4,-0.003 c 0.03171,-0.003 0.06338,-0.005 0.09466,-0.0103 m 0.67014,-0.70604 c 0,0.21928 0.09593,0.41536 0.247184,0.54719 H 74.74477 l -0.05409,0.17026 h -0.09125 l -0.06169,-0.17026 h -0.17198 l -0.05451,0.17026 h -0.07436 l -0.0393,-0.10773 c 0.198163,-0.12676 0.330832,-0.35198 0.330832,-0.60972 0,-0.13481 -0.03759,-0.26115 -0.09931,-0.36887 h 0.292403 c -0.06211,0.10772 -0.09928,0.23406 -0.09928,0.36887 m 0.454639,0.67184 -0.01478,0.0456 h -0.08407 l -0.04311,-0.11916 c 0.04353,0.0302 0.09125,0.0545 0.141964,0.0735 m 0.351977,0.0359 -0.0032,0.01 h -0.07566 v -0.003 c 0.02716,-0.003 0.05282,-0.004 0.07904,-0.008 m 1.136632,-0.0609 -0.02321,0.0706 h -0.0896 l -0.06211,-0.17026 h -0.171556 l -0.05535,0.17026 h -0.0714 l -0.06169,-0.17026 h -0.171982 l -0.05409,0.17026 h -0.09041 l -0.03717,-0.10139 c 0.150837,-0.0926 0.265346,-0.24211 0.313944,-0.42 h 0.204527 c 0.05536,0.199 0.191826,0.36253 0.370109,0.45083 m 0.300458,0.0706 h -0.03507 l -3.04e-4,-0.003 c 0.0115,0 0.02357,0.003 0.03551,0.003 m 0.01901,0 h -0.0181 c 0.0063,0 0.0115,-2.7e-4 0.0181,-2.7e-4 z m 0.353251,-0.11068 -0.0028,0.0596 -0.06296,0.006 -0.0085,-0.0244 c 0.02533,-0.0123 0.04983,-0.0263 0.07393,-0.0414 m 1.996916,-1.28831 c 0.03759,-0.0554 0.06,-0.12169 0.06,-0.19478 0,-0.008 -3.04e-4,-0.016 -0.0028,-0.0241 h 0.477474 c 0.0028,0.0178 0.0032,0.0355 0.0032,0.0532 0,0.0786 -0.01235,0.15463 -0.03172,0.22688 l -0.06211,-0.0274 c -0.0054,0.0223 -0.01178,0.0443 -0.0187,0.0655 l 0.06,0.0263 c -0.03253,0.0871 -0.07689,0.16776 -0.133093,0.23832 z m -0.259432,0.66465 v -0.52142 c 0.08408,-0.003 0.159279,-0.0372 0.216323,-0.0921 l 0.352404,0.36253 c -0.06802,0.0718 -0.148721,0.13056 -0.237466,0.17282 l -0.02078,-0.0545 c -0.02021,0.009 -0.04054,0.0187 -0.06127,0.0263 l 0.02113,0.0545 c -0.08495,0.0325 -0.174935,0.0511 -0.270411,0.052 m -0.240873,0.16522 -0.04688,0.009 -0.02533,0.20579 h -0.06887 l -0.08749,-0.16099 -0.162656,0.0389 -0.03758,0.19986 -0.06257,0.006 -0.07521,-0.15421 -0.181688,0.0127 -0.02445,0.19351 -0.02565,0.0321 -0.06845,-0.0193 -0.06929,-0.1483 -0.162264,0.026 -0.03759,0.19985 -0.07478,0.006 -0.0955,-0.17198 c 0.08537,-0.11828 0.135654,-0.26449 0.135654,-0.42338 0,-0.13479 -0.03674,-0.26112 -0.09931,-0.36888 h 0.130983 l 0.435208,-0.1276 c 0.113668,0.31988 0.378167,0.56496 0.703961,0.6448 m -0.08875,-0.82438 -0.321966,0.33087 c -0.04645,-0.063 -0.08407,-0.13099 -0.111132,-0.20453 z m 0.264527,0.65663 c -0.09888,-0.006 -0.192669,-0.0317 -0.280155,-0.0731 l 0.02233,-0.0549 c -0.0199,-0.01 -0.0393,-0.0193 -0.05831,-0.0313 l -0.02233,0.0558 c -0.06423,-0.0368 -0.12338,-0.082 -0.176625,-0.1365 -0.01027,-0.0109 -0.0193,-0.0223 -0.02956,-0.0334 l 0.352404,-0.36211 c 0.0486,0.0575 0.116198,0.098 0.192278,0.11155 z m 0.05578,0.19647 c 0.01058,0 0.02198,-2.7e-4 0.03253,0 l -0.0039,0.0909 -0.05662,0.026 -0.05873,-0.12 c 0.02836,0.003 0.05789,0.004 0.08664,0.004 m 0.487606,-1.68509 -0.281418,0.28987 -0.196896,-0.14028 v -0.31903 c 0.07859,0 0.15421,0.0136 0.224377,0.0351 l -0.03253,0.0807 c 0.02113,0.006 0.04184,0.0136 0.06211,0.0214 l 0.03341,-0.079 c 0.06887,0.0278 0.132673,0.0659 0.190983,0.1111 m 0.207455,0.24043 -0.07225,0.0296 c 0.0115,0.0199 0.02293,0.0393 0.03341,0.0596 l 0.07014,-0.0296 c 0.03507,0.0748 0.05915,0.15508 0.0714,0.24042 h -0.48127 c -0.0028,-0.0118 -0.0067,-0.0229 -0.0115,-0.0338 l -0.01901,-0.16015 -0.02448,-0.0172 0.277622,-0.28562 c 0.06042,0.057 0.113668,0.12293 0.155899,0.1969"
       id="G-PanzerIV-long"
       style="stroke-width:0.352778" />
  </g>
</svg>
