<?xml version="1.0" encoding="UTF-8" standalone="no"?>
<!-- Created with Inkscape (http://www.inkscape.org/) -->

<svg
   width="24.650002mm"
   height="5.1801491mm"
   viewBox="0 0 24.650002 5.1801491"
   version="1.1"
   id="svg7426"
   sodipodi:docname="inkporter-svg-58n8kf48.svg"
   xmlns:inkscape="http://www.inkscape.org/namespaces/inkscape"
   xmlns:sodipodi="http://sodipodi.sourceforge.net/DTD/sodipodi-0.dtd"
   xmlns="http://www.w3.org/2000/svg"
   xmlns:svg="http://www.w3.org/2000/svg">
  <sodipodi:namedview
     id="namedview7428"
     pagecolor="#ffffff"
     bordercolor="#666666"
     borderopacity="1.0"
     inkscape:pageshadow="2"
     inkscape:pageopacity="0.0"
     inkscape:pagecheckerboard="0"
     inkscape:document-units="mm"
     showgrid="false"
     inkscape:zoom="0.64052329"
     inkscape:cx="984.35141"
     inkscape:cy="289.60696"
     inkscape:window-width="1920"
     inkscape:window-height="1017"
     inkscape:window-x="-8"
     inkscape:window-y="-8"
     inkscape:window-maximized="1"
     inkscape:current-layer="layer1" />
  <defs
     id="defs7423">
    <clipPath
       clipPathUnits="userSpaceOnUse"
       id="clipPath180456-5-6">
      <path
         d="M 0,0 H 595.276 V 841.89 H 0 Z"
         id="path180454-2-9" />
    </clipPath>
  </defs>
  <g
     inkscape:label="Layer 1"
     inkscape:groupmode="layer"
     id="layer1"
     transform="translate(-301.03192,-0.03856553)">
    <g
       id="G-PaK38"
       transform="matrix(0.35277777,0,0,-0.35277777,268.56074,141.67423)">
      <g
         id="g180452-2-5"
         clip-path="url(#clipPath180456-5-6)"
         style="fill:#000000">
        <g
           id="g180458-6-2"
           transform="translate(134.9243,389.7693)"
           style="fill:#000000">
          <path
             d="M 0,0 C 0.046,0 0.638,-0.029 0.638,-0.029 L 0.592,0.249 -0.76,0.498 -2.582,-0.044 c 0,0 -0.79,0.791 -0.896,0.894 -0.107,0.102 -0.471,0.205 -0.76,0.088 -0.289,-0.118 -1.018,-0.22 -1.018,-0.22 0,0 -0.212,-0.059 -0.395,0.146 -0.182,0.205 -1.154,1.084 -1.154,1.084 L -7.048,1.729 c 0,0 1.291,-1.26 1.397,-1.377 0.107,-0.118 0.38,0 0.517,0.014 0.137,0.015 1.109,0.308 1.109,0.308 0,0 0.258,0.044 0.425,-0.176 0.167,-0.22 0.577,-0.63 0.577,-0.63 0,0 -0.44,-0.234 -1.124,-0.102 -0.595,0.114 -9.716,2.087 -12.051,2.593 -0.009,0.187 -0.022,0.35 -0.04,0.454 -0.076,0.439 -0.395,1.304 -0.395,1.304 0,0 0.456,-0.118 0.699,-0.147 0.243,-0.029 0.395,0.322 0.395,0.322 0,0 3.068,-0.014 3.099,-0.073 0.03,-0.058 0.045,1.113 0.045,1.113 l -2.673,0.03 0.015,0.307 c 0,0 0.668,0.03 0.775,0.044 0.106,0.015 0.273,0.088 0.258,0.205 -0.015,0.118 -0.03,0.455 -0.03,0.455 0,0 1.746,0.117 1.898,0.131 0.152,0.015 0.213,0.118 0.213,0.176 0,0.059 -0.03,0.63 -0.046,0.865 -0.015,0.234 -0.243,0.219 -0.243,0.219 l -1.716,-0.132 v 0.337 l -0.517,0.015 -0.136,0.176 -2.628,-0.015 c 0,0 -0.091,-0.058 -0.273,0.161 -0.183,0.22 -0.532,0.323 -0.821,0.337 -0.288,0.015 -1.063,0.074 -1.473,0.117 -0.41,0.044 -1.291,0.381 -1.291,0.381 l -1.202,-1.607 -18.271,0.597 -0.638,0.293 -1.352,-0.03 -0.289,-0.088 -0.045,-1.098 0.334,-0.132 h 1.352 l 0.577,0.22 11.805,-0.65 -0.024,-0.519 -1.042,0.04 -0.03,-0.615 0.653,-0.556 V 4.834 l 0.288,-0.044 0.016,0.074 3.743,-0.202 c -0.913,-0.721 -1.495,-1.816 -1.495,-3.043 0,-2.173 1.826,-3.934 4.078,-3.934 2.014,0 3.686,1.408 4.018,3.259 l 2.795,-0.343 0.03,0.263 -0.395,0.03 c 0,0 0.003,0.301 0,0.672 l 12.972,-2.87 c 0,0 0.851,-1.099 0.927,-1.128 0.075,-0.029 0.956,0.044 0.956,0.044 0,0 -0.698,0.484 -0.789,0.63 -0.092,0.147 -0.228,0.498 -0.228,0.498 l 0.152,0.63 C -2.187,-0.63 -0.046,0 0,0 M -41.635,7.325 -42.409,7.31 v 0.835 l 0.774,-0.014 z m 0.38,0.002 v 0.791 l 0.501,-0.176 0.015,-0.41 z m 14.038,-0.769 4.037,-0.222 -0.314,-0.419 -3.749,0.147 c 0.006,0.143 0.015,0.336 0.026,0.494"
             style="fill:#000000;fill-opacity:1;fill-rule:nonzero;stroke:none"
             id="path180460-9-4" />
        </g>
        <path
           id="path42229-1-7-9"
           style="fill:#000000;stroke-width:0.0306541"
           d="m 134.62121,401.44204 c -0.54718,0 -0.76811,-0.1295 -1.02814,-0.60606 -0.19764,-0.36223 -0.27776,-0.46728 -0.41667,-0.53933 -0.27764,-0.14395 -0.27065,-0.44801 0.0127,-0.52489 0.0704,-0.019 0.2143,-0.0722 0.31928,-0.11723 0.17226,-0.074 0.18923,-0.088 0.17316,-0.15511 -0.01,-0.0409 -0.0571,-0.13473 -0.1064,-0.20743 -0.13321,-0.19678 -0.11341,-0.34765 0.056,-0.40765 0.0809,-0.0287 0.0891,-0.0456 0.10824,-0.2363 0.0111,-0.11304 0.0141,-0.21684 0.006,-0.23088 -0.01,-0.014 -0.0719,-0.0358 -0.14069,-0.0469 -0.17534,-0.0285 -0.34643,-0.12346 -0.43651,-0.24351 -0.0637,-0.0849 -0.56458,-1.10431 -0.56458,-1.14899 0,-0.009 -0.0476,-0.11426 -0.1047,-0.2381 -0.057,-0.12389 -0.14618,-0.33237 -0.19842,-0.46176 -0.0523,-0.12938 -0.16608,-0.35861 -0.25433,-0.51045 -0.0883,-0.15182 -0.1708,-0.30171 -0.18218,-0.33189 -0.0111,-0.0302 0.006,-0.15535 0.0378,-0.2778 0.0315,-0.12251 0.0657,-0.34705 0.0776,-0.49963 0.0123,-0.15258 0.0419,-0.37041 0.0649,-0.48521 0.0336,-0.16713 0.10247,-0.88423 0.10279,-1.06782 3e-5,-0.0222 0.0666,-0.11378 0.14791,-0.20202 0.0813,-0.0882 0.15538,-0.19561 0.16414,-0.23809 0.0225,-0.10849 0.15979,-0.55181 0.20744,-0.66921 0.0328,-0.0809 0.0316,-0.12006 -0.001,-0.22547 -0.0411,-0.1266 -0.0405,-0.12598 0.0596,-0.21103 l 0.10098,-0.0865 -0.15332,-0.29221 c -0.0845,-0.1606 -0.18858,-0.40928 -0.23268,-0.55376 -0.0441,-0.14447 -0.10861,-0.3157 -0.14248,-0.38059 -0.0365,-0.0698 -0.0713,-0.22225 -0.0866,-0.37337 -0.0143,-0.14031 -0.0508,-0.33753 -0.0812,-0.43832 -0.0428,-0.14124 -0.0559,-0.28587 -0.0559,-0.6313 -2.4e-4,-0.5077 0.0352,-0.68373 0.15692,-0.7648 0.11131,-0.0742 0.45733,-0.12863 0.8153,-0.12988 0.44506,-0.002 0.50027,0.0211 0.80448,0.3337 0.14301,0.14698 0.34958,0.32088 0.45815,0.38602 0.10861,0.0651 0.28557,0.1792 0.39323,0.25431 0.21599,0.15064 0.23893,0.15698 0.36254,0.092 0.079,-0.0414 0.087,-0.0625 0.10279,-0.27598 0.0205,-0.27628 0.0552,-0.35066 0.1894,-0.40766 l 0.10098,-0.0432 -0.0163,-0.29221 c -0.0271,-0.46217 0.0186,-0.49694 0.69084,-0.5249 0.20772,-0.01 0.42349,-0.003 0.4816,0.0111 h 0.001 c 0.23,0.0611 0.33731,0.32387 0.33731,0.82973 0,0.23977 0.0123,0.32426 0.0776,0.49062 0.0714,0.18146 0.0764,0.21374 0.0433,0.33009 -0.0692,0.24285 -0.0679,0.33943 0.005,0.54653 0.0652,0.18445 0.0692,0.2427 0.0632,0.75398 -0.003,0.36537 0.005,0.56835 0.027,0.59524 l 0.0323,0.73232 c 0.20617,1.09491 0.54176,2.1644 0.71609,3.26482 l -0.0703,1.47186 c -0.0458,0.0579 -0.10109,0.19468 -0.13528,0.3391 -0.0316,0.13346 -0.0776,0.30135 -0.10278,0.37338 -0.0504,0.14416 -0.29004,0.48641 -0.5249,0.75037 -0.0832,0.0934 -0.18342,0.21828 -0.22368,0.27777 -0.0945,0.13964 -0.14004,0.17515 -0.29039,0.21826 -0.091,0.0261 -0.13794,0.0623 -0.17858,0.13888 -0.0303,0.0572 -0.0884,0.1353 -0.12807,0.17316 -0.0984,0.094 -0.0913,0.13182 0.0361,0.17858 0.12578,0.0462 0.23621,0.20236 0.20744,0.29581 -0.0111,0.034 -0.072,0.17426 -0.13529,0.31025 -0.10258,0.22078 -0.11661,0.28201 -0.13348,0.57179 -0.0287,0.49174 -0.0844,0.65829 -0.29402,0.87301 -0.12251,0.1254 -0.24955,0.21476 -0.42749,0.30123 -0.30572,0.14861 -0.48313,0.18399 -0.89466,0.18399 z m 0.60786,-10.35176 c 0.009,-0.009 0.0222,-0.0494 0.0326,-0.092 0.0159,-0.0669 -0.005,-0.0953 -0.15692,-0.20743 -0.0965,-0.0712 -0.22194,-0.17933 -0.27957,-0.23989 -0.16871,-0.17732 -0.16542,-0.12635 0.007,0.0974 h -0.001 c 0.20984,0.27312 0.37995,0.4609 0.39863,0.44192 z"
           sodipodi:nodetypes="csssssssccssssssccccssssccccsscccscsssccccccccsccscccccsssssssscssssscsssccccs" />
        <path
           style="fill:#000000;stroke-width:0.0313853"
           d="m 145.37584,387.33666 c 0.23888,0.037 0.32435,0.0945 0.35097,0.23635 0.0117,0.0621 0.0694,0.17604 0.12817,0.25313 0.0589,0.0771 0.13331,0.20643 0.16548,0.28741 0.0322,0.0811 0.0951,0.21085 0.13969,0.28853 0.0937,0.16306 0.10197,0.25411 0.0325,0.36012 -0.0272,0.0416 -0.0682,0.16525 -0.0912,0.27504 -0.0511,0.24448 -0.0946,0.82083 -0.0653,0.86803 0.0149,0.024 0.0517,0.0191 0.1215,-0.0163 0.14856,-0.0751 0.20418,-0.13328 0.22692,-0.23677 0.024,-0.1091 0.13085,-0.16865 0.24947,-0.13889 0.12547,0.0316 0.35039,0.25668 0.44066,0.44115 0.10657,0.21795 0.13244,0.53073 0.0648,0.78456 -0.0275,0.10289 -0.0498,0.25378 -0.0498,0.33534 0,0.0815 -0.014,0.1853 -0.0312,0.23053 -0.0171,0.0451 -0.0518,0.25446 -0.0769,0.46498 -0.025,0.2105 -0.0548,0.42703 -0.0661,0.48115 -0.02,0.096 -0.0163,0.0998 0.14627,0.15381 0.3542,0.11765 0.58623,0.48436 0.55308,0.87411 -0.031,0.36442 -0.21279,0.64592 -0.50137,0.77637 -0.15081,0.0682 -0.20209,0.0741 -0.59638,0.0684 -0.42127,-0.007 -0.43174,-0.006 -0.44522,0.0628 -0.0659,0.32851 -0.11266,0.69197 -0.12802,0.99473 -0.0286,0.56484 -0.0742,0.99275 -0.14253,1.3361 l -0.0628,0.3161 0.0786,0.17169 c 0.059,0.1291 0.099,0.32328 0.1606,0.7824 0.045,0.33589 0.0892,0.65551 0.0979,0.71031 0.0122,0.0753 -2e-5,0.11334 -0.0498,0.15603 -0.0363,0.0311 -0.0659,0.0783 -0.0659,0.10485 0,0.0266 0.0494,0.24456 0.10978,0.48424 l 0.10979,0.43579 -0.0639,0.21449 c -0.0361,0.12116 -0.0877,0.2272 -0.11861,0.24377 -0.0558,0.0299 -0.38602,-0.0611 -0.46859,-0.12926 -0.0711,-0.0586 -0.0475,-0.23168 0.0392,-0.28854 0.0432,-0.0282 0.0783,-0.0759 0.0781,-0.10565 -3.8e-4,-0.0566 -0.14902,-0.68243 -0.23278,-0.98006 -0.0267,-0.095 -0.0487,-0.23091 -0.0489,-0.30217 -5.6e-4,-0.19462 -0.093,-0.5655 -0.15487,-0.62151 -0.0442,-0.0401 -0.10003,-0.0455 -0.29459,-0.0292 -0.20721,0.0175 -0.24286,0.0292 -0.2606,0.0864 -0.0115,0.0364 -0.0601,0.11635 -0.10841,0.1778 -0.16331,0.20764 -0.15357,0.34164 0.0249,0.34287 0.0387,2.1e-4 0.0919,0.034 0.1191,0.0756 0.0435,0.0665 0.0442,0.0968 0.006,0.26445 -0.0255,0.11036 -0.0792,0.23156 -0.12889,0.29058 -0.0743,0.0883 -0.0822,0.11761 -0.0624,0.22985 0.0125,0.0707 0.0185,0.16394 0.0131,0.20711 -0.006,0.0431 -0.008,0.1173 -0.006,0.16477 0.02,0.45126 0.0209,0.44359 -0.0734,0.61578 -0.17826,0.32532 -0.653,0.64595 -1.14539,0.77354 -0.25149,0.0652 -0.72019,0.0527 -0.86308,-0.0227 -0.31133,-0.16472 -0.68272,-0.56577 -0.77136,-0.83298 -0.0286,-0.0861 -0.0531,-0.10508 -0.15813,-0.12188 -0.0867,-0.0139 -0.14999,-0.0505 -0.20941,-0.12106 -0.0839,-0.0998 -0.0877,-0.10083 -0.27344,-0.0769 -0.5052,0.0651 -0.76827,0.008 -0.99299,-0.21715 -0.19177,-0.19176 -0.24672,-0.37485 -0.24672,-0.82185 0,-0.27754 -0.0103,-0.34821 -0.0578,-0.41017 -0.0806,-0.10439 -0.13057,-0.26496 -0.13057,-0.41928 0,-0.0973 -0.0192,-0.14909 -0.0743,-0.20081 -0.0408,-0.0383 -0.12738,-0.18303 -0.19238,-0.32152 -0.15903,-0.3389 -0.18004,-0.64296 -0.0789,-1.14188 0.0787,-0.38774 0.14244,-0.53623 0.28056,-0.65245 0.19138,-0.16105 0.39836,-0.17747 1.10616,-0.0879 0.39791,0.0504 0.91469,0.0497 0.93896,-9.4e-4 0.16277,-0.34142 0.20843,-0.54434 0.15607,-0.69373 -0.0473,-0.13515 -0.17849,-0.80394 -0.20578,-1.04948 -0.0165,-0.14824 -0.0103,-0.21862 0.0296,-0.30121 0.0395,-0.0834 0.0487,-0.17949 0.0403,-0.42364 -0.0118,-0.3443 -0.003,-0.32367 -0.26644,-0.61418 -0.31198,-0.34388 -0.36452,-0.54945 -0.18604,-0.72793 0.1313,-0.13129 0.30968,-0.17203 0.43594,-0.0996 l 0.0879,0.0504 -0.0191,-0.13201 c -0.0103,-0.0726 -0.0609,-0.19207 -0.11197,-0.26547 -0.13429,-0.19296 -0.27554,-0.52001 -0.29853,-0.69132 -0.0137,-0.10197 -0.0656,-0.21662 -0.16638,-0.36787 -0.10715,-0.16077 -0.21249,-0.4007 -0.39261,-0.89449 -0.2247,-0.61604 -0.24733,-0.69957 -0.2601,-0.95983 -0.0115,-0.22309 -0.003,-0.30667 0.0373,-0.38431 0.0622,-0.12037 0.2711,-0.23099 0.54149,-0.28678 0.25656,-0.0529 0.95658,-0.0283 1.26161,0.0447 0.21086,0.0503 0.24835,0.072 0.42882,0.24798 0.10876,0.10611 0.2449,0.22993 0.3025,0.27526 0.12488,0.0982 0.55736,0.32282 0.57938,0.3008 0.008,-0.008 0.0187,-0.10829 0.0227,-0.22172 0.006,-0.16654 0.0214,-0.22123 0.0804,-0.28399 0.0402,-0.0427 0.0856,-0.14502 0.10095,-0.22724 0.0342,-0.18339 0.14243,-0.30353 0.33797,-0.37531 0.16974,-0.0624 0.96929,-0.0888 1.27126,-0.0421 z m -4.5885,9.9851 c -0.0555,0.0555 -0.0461,0.18826 0.0245,0.34339 0.0341,0.0752 0.0625,0.19587 0.0628,0.26807 5.7e-4,0.10875 0.0164,0.14241 0.0919,0.19616 0.12928,0.092 0.15992,0.0815 0.15992,-0.055 0,-0.15434 0.0849,-0.40964 0.16586,-0.49907 0.0614,-0.0679 0.0616,-0.0703 0.003,-0.0873 -0.0328,-0.009 -0.1373,-0.0584 -0.23224,-0.1084 -0.19772,-0.10405 -0.22439,-0.10956 -0.2762,-0.0578 z"
           id="path42440-0-0-4" />
        <path
           style="fill:#000000;stroke-width:0.0577381"
           d="m 156.1717,386.83405 c 0.7398,-0.0808 1.62275,0.002 1.93532,0.1824 0.14716,0.0848 0.25389,0.57159 0.19728,0.89999 -0.0217,0.12643 -0.036,0.38692 -0.0318,0.57887 0.004,0.19192 -0.0125,0.37944 -0.0373,0.41665 -0.0724,0.1086 -0.0394,0.15193 0.15894,0.20902 0.47095,0.13544 0.8641,0.48347 1.14565,1.01411 0.10874,0.20482 0.13505,0.2191 0.42013,0.22771 0.28884,0.009 0.30777,0.002 0.37491,-0.13987 0.27286,-0.57556 0.31915,-0.61499 0.50398,-0.42942 l 0.10817,0.10854 0.17831,-0.29193 c 0.1503,-0.24604 0.20279,-0.29072 0.33408,-0.28433 0.10468,0.005 0.17828,0.0559 0.22433,0.15491 0.0377,0.081 0.11144,0.18921 0.16386,0.24042 0.0687,0.067 0.0852,0.12673 0.0589,0.21347 -0.0299,0.0985 -0.0763,0.12157 -0.25616,0.12685 -0.15476,0.005 -0.23458,0.0341 -0.27012,0.0999 -0.087,0.16091 -0.22779,0.67782 -0.20954,0.76913 0.0277,0.13867 -0.34132,1.50311 -0.49883,1.8444 -0.0787,0.1705 -0.21069,0.36407 -0.29332,0.43012 -0.13824,0.11063 -0.16661,0.11447 -0.35581,0.0484 l -0.20559,-0.0718 -0.0582,0.17349 c -0.032,0.0954 -0.18764,0.28838 -0.34583,0.42881 -0.15819,0.1404 -0.29973,0.29744 -0.31458,0.34888 -0.0148,0.0516 -0.0663,0.24073 -0.11443,0.42065 -0.24258,0.90708 -1.00298,2.22547 -1.64172,2.84639 -0.55199,0.5366 -0.79106,0.66809 -1.4867,0.81767 -0.4617,0.0994 -0.61937,0.15538 -0.71309,0.25386 -0.0661,0.0694 -0.19112,0.14043 -0.27761,0.15772 -0.18726,0.0374 -0.18427,0.0847 0.0209,0.3337 0.20439,0.24805 0.2315,0.41463 0.0996,0.61237 -0.16957,0.25426 -0.89122,0.78725 -1.41843,1.04762 -0.26419,0.1304 -0.61093,0.31822 -0.77056,0.41725 -0.37478,0.23251 -0.5211,0.25796 -0.74795,0.13019 -0.26087,-0.14699 -0.30574,-0.45383 -0.14619,-1.00004 0.144,-0.49315 0.11703,-0.56272 -0.33774,-0.8707 -0.49728,-0.3368 -0.41427,-0.56166 0.18112,-0.49054 0.34224,0.0409 0.38426,0.0187 0.25719,-0.13573 -0.13375,-0.16258 -0.13293,-0.408 0.002,-0.50218 0.0639,-0.0447 0.1104,-0.11047 0.10332,-0.1459 -0.007,-0.0355 0.0199,-0.10504 0.0599,-0.15449 0.0401,-0.0494 0.0486,-0.10578 0.0192,-0.12508 -0.0517,-0.0338 -1.34955,-0.17989 -2.21615,-0.24934 -0.23039,-0.0185 -0.55646,-0.0591 -0.72462,-0.0904 -0.1804,-0.0335 -0.56571,-0.0289 -0.93983,0.0112 -1.00288,0.1075 -1.63027,-0.0111 -1.73276,-0.32762 -0.0743,-0.2294 0.0637,-0.2705 0.69836,-0.20808 0.12279,0.012 0.1314,-0.005 0.0942,-0.19147 -0.0344,-0.17197 -0.0208,-0.21027 0.0847,-0.23913 0.1498,-0.0404 0.10805,-0.0365 1.05005,-0.11449 0.68344,-0.0566 0.75434,-0.0713 0.78373,-0.16272 0.11603,-0.35854 0.25977,-0.42018 0.9939,-0.42617 0.25342,-0.002 0.47985,-0.008 0.50321,-0.0122 0.0682,-0.0136 0.0204,-0.15387 -0.10583,-0.31066 -0.0644,-0.0798 -0.12835,-0.20085 -0.14203,-0.2688 -0.031,-0.15295 0.30543,-0.57763 0.59244,-0.74789 0.17765,-0.10546 0.19862,-0.14157 0.15728,-0.27161 -0.10218,-0.32152 -0.0193,-0.5192 0.37953,-0.90534 0.34627,-0.33524 0.83476,-0.90107 1.25662,-1.45559 0.15487,-0.20354 0.15693,-0.2169 0.0404,-0.26101 -0.0675,-0.0257 -0.34146,-0.13684 -0.60876,-0.24728 -1.28743,-0.53187 -1.35106,-0.57697 -1.49296,-1.05808 -0.24769,-0.8399 0.11752,-1.47146 1.00277,-1.734 0.3934,-0.11655 1.47729,-0.15995 2.10642,-0.0841 0.51589,0.0622 0.98606,0.21392 1.08046,0.3487 0.0736,0.10497 0.20163,0.12734 0.58253,0.10157 0.08,-0.005 0.25143,0.0254 0.3812,0.0685 0.30282,0.10053 0.47791,0.004 0.51296,-0.28291 0.0222,-0.18147 -9.5e-4,-0.23388 -0.21818,-0.49517 -0.19635,-0.23617 -0.29374,-0.30292 -0.50769,-0.34801 -0.26894,-0.0567 -0.36055,-0.12985 -0.47556,-0.37987 -0.14163,-0.30818 0.13132,-0.49166 0.84819,-0.57003 z m -1.62763,5.96389 c 0.12511,0.31325 0.16471,0.36856 0.21753,0.30345 0.0686,-0.0846 0.21661,-0.55967 0.18077,-0.58008 -0.067,-0.0381 -0.52274,-0.14796 -0.53576,-0.12905 -0.008,0.0121 0.0532,0.195 0.13736,0.4057 z m -1.9571,2.37757 c -0.39112,0.33617 -0.31716,0.56229 0.18618,0.56937 0.45458,0.006 0.45485,0.006 0.42958,-0.33108 -0.0125,-0.16751 -0.0305,-0.42209 -0.0397,-0.56577 l -0.0169,-0.26123 -0.16163,0.19303 c -0.0889,0.10618 -0.26772,0.28423 -0.39738,0.39566 z"
           id="path46169-0-3-8" />
        <path
           id="path46620-3-8-8"
           style="fill:#000000;stroke-width:0.0384602"
           d="m 123.48674,401.4868 c -0.10759,-1.2e-4 -0.16533,-0.0102 -0.21254,-0.0288 -0.14315,-0.0593 -0.46654,-0.39621 -0.46654,-0.48634 0,-0.0858 -0.24129,-0.5203 -0.42871,-0.77276 -0.0817,-0.11021 -0.1477,-0.21804 -0.1477,-0.23956 0,-0.0215 0.0463,-0.065 0.10451,-0.0954 0.0582,-0.0303 0.15718,-0.10895 0.21977,-0.17471 0.0707,-0.0744 0.16824,-0.12829 0.25577,-0.14231 l 0.14051,-0.0217 0.0198,-0.23598 c 0.0114,-0.12994 0.0637,-0.37476 0.11707,-0.54398 0.0534,-0.16921 0.10633,-0.35568 0.1189,-0.41249 0.0163,-0.0735 0.0626,-0.11658 0.15851,-0.15132 0.0741,-0.0268 0.13329,-0.0644 0.13329,-0.0828 0,-0.0183 -0.14249,-0.17972 -0.31702,-0.35845 -0.34127,-0.34954 -0.50891,-0.63444 -0.54938,-0.93487 -0.0393,-0.29163 -0.0915,-0.41187 -0.30442,-0.7043 -0.11215,-0.1541 -0.25141,-0.37542 -0.30982,-0.49176 l -0.53858,-0.26658 c -0.0939,-0.003 -0.18371,-0.0114 -0.272,-0.0217 h -0.22877 l -0.43409,0.15671 -0.42871,0.027 -0.2792,0.1315 -0.23057,-1.18524 1.09339,-0.1315 0.1513,-0.18192 0.0631,-0.0198 0.1441,-0.49897 c 0.0514,-0.232 0.10269,-0.35461 0.20354,-0.49535 0.11743,-0.16398 0.48754,-0.91165 0.52419,-1.05734 0.0172,-0.0685 -6e-5,-0.11584 -0.0666,-0.17832 l -0.41791,-0.56201 c 0.0339,-0.0408 -0.0204,-0.13155 -0.25397,-0.4179 h -9.8e-4 c -0.1642,-0.20127 -0.3417,-0.42308 -0.39629,-0.49354 l -0.23056,-0.34223 -0.20355,-0.15313 -0.51336,-0.51697 -0.0972,-0.17471 c -0.053,-0.0963 -0.12616,-0.3098 -0.16391,-0.47375 0,0 6.6e-4,-0.22552 9.8e-4,-0.53317 0.0145,-0.0455 0.14442,-0.20024 0.28819,-0.34404 0.35771,-0.35766 0.49095,-0.39876 1.36358,-0.39989 0.6327,-9.2e-4 0.7061,0.0103 0.90424,0.12969 0.15457,0.0939 0.32021,0.14233 0.4305,0.1261 l 0.12064,-0.0179 -0.13149,-0.10804 c -0.0722,-0.0601 -0.14539,-0.10941 -0.16212,-0.10998 -0.0169,-5.8e-4 -0.0254,-0.11719 -0.0179,-0.25938 0.0157,-0.3544 0.0434,-0.36819 0.72231,-0.34225 0.65795,0.0252 1.04614,0.10018 1.40319,0.27199 0.15543,0.0748 0.307,0.13641 0.33504,0.13691 0.0283,3.6e-4 0.0917,0.0332 0.14229,0.072 0.0827,0.0637 0.0891,0.09 0.0685,0.27741 -0.0127,0.11412 -0.0385,0.29189 -0.0577,0.39629 -0.0285,0.15574 -0.027,0.1785 0.0125,0.12427 0.0265,-0.0365 0.0654,-0.0631 0.0846,-0.0559 0.0626,0.0197 0.26408,-0.17841 0.34046,-0.33504 0.11351,-0.23259 0.28256,-0.3004 0.67006,-0.26659 0.28607,0.025 0.31135,0.0351 0.33324,0.12248 0.0357,0.14178 -0.0114,0.44328 -0.11522,0.75292 -0.0513,0.15214 -0.10417,0.39989 -0.11707,0.55121 l -0.0234,0.2756 0.11892,0.0414 0.12063,0.0415 -0.0144,0.34225 c -0.0123,0.30005 -0.0255,0.3592 -0.11891,0.48995 l -0.10622,0.1495 0.12969,0.0217 c 0.0726,0.0123 0.21209,0.0937 0.31881,0.18372 0.10485,0.0882 0.22912,0.16033 0.2756,0.16033 0.14102,0 0.4203,0.15334 0.55841,0.30621 0,0 0.12013,0.28041 0.14049,0.32783 0,0.0761 0.0183,0.0972 0.0919,0.0972 0.17804,0 0.21616,0.0355 0.21616,0.21436 0,0.0987 0.0164,0.1693 0.0414,0.1693 -0.0812,-0.32039 0.13747,-0.36374 0.17292,-0.45752 0.12427,-0.14742 0.21099,-0.14816 0.52238,-0.008 0.41314,0.18746 0.53318,0.37493 0.53318,0.8394 0,0.21163 0.0114,0.24658 0.0937,0.30081 0.12543,0.0822 0.1645,0.26771 0.0775,0.36386 -0.05,0.0553 -0.0582,0.10873 -0.0379,0.21975 0.0146,0.0803 0.0299,0.23098 0.036,0.33685 0.006,0.10577 0.0227,0.27424 0.038,0.37286 0.0342,0.22653 -0.062,0.54135 -0.19814,0.64845 -0.11793,0.093 -0.16209,0.094 -0.33684,0.0114 -0.12483,-0.0603 -0.14076,-0.0607 -0.19633,-0.005 -0.052,0.0518 -0.0554,0.0815 -0.0144,0.19452 0.0612,0.1692 0.0238,0.379 -0.0937,0.51879 -0.10497,0.12467 -0.35305,0.2029 -0.64849,0.20353 -0.30935,8.9e-4 -0.30872,-9.3e-4 -0.25757,0.47373 0.0327,0.30198 0.0343,0.51258 0.003,0.79615 -0.0231,0.21198 -0.0433,0.46442 -0.0433,0.56023 0,0.35433 -0.26436,0.81527 -0.56562,0.9853 -0.11214,0.0634 -0.23775,0.15823 -0.27919,0.21073 -0.0923,0.11731 -0.35797,0.18736 -1.11858,0.29902 -0.11682,0.0172 -0.15212,0.0463 -0.22516,0.19272 -0.0473,0.0949 -0.11032,0.17292 -0.14052,0.17292 -0.0357,0 -0.0539,0.0421 -0.0539,0.11892 0,0.1 0.0134,0.11546 0.0865,0.10804 0.16561,-0.0181 0.56383,0.0504 0.60884,0.10451 0.0352,0.0424 0.0284,0.10383 -0.0325,0.27559 -0.0429,0.12137 -0.0896,0.34187 -0.10269,0.48995 -0.0463,0.52204 -0.0586,0.58412 -0.1459,0.73672 -0.2646,0.46217 -0.47428,0.54917 -1.49866,0.63043 -0.24217,0.0194 -0.39858,0.0292 -0.50616,0.0288 z m 2.01742,-11.1499 c 0.0443,0.0103 0.0702,3.9e-4 0.0702,-0.027 0,-0.017 -0.0851,-0.0597 -0.19093,-0.0937 -0.10576,-0.0338 -0.19273,-0.0561 -0.19273,-0.0487 0,0.006 0.0617,0.0475 0.1369,0.0919 0.0703,0.0415 0.13216,0.0686 0.17651,0.0775 z m -0.4359,-0.23416 c 0.003,-0.005 -0.0123,-0.0169 -0.045,-0.0396 -0.0395,-0.0272 -0.13815,-0.10223 -0.21794,-0.16752 -0.10177,-0.0833 -0.19073,-0.1194 -0.29722,-0.12429 -0.14063,-0.006 -0.15417,0.003 -0.19094,0.12247 l -0.0395,0.12969 0.31344,0.027 c 0.17175,0.0146 0.35432,0.0352 0.40707,0.045 0.0442,0.009 0.067,0.0114 0.0702,0.008 z" />
      </g>
      <g
         id="g169342-4-4-3"
         transform="translate(133.70733,394.40186)"
         style="fill:#000000">
        <path
           d="m 0,0 c 0,0 -2.089,0.584 -2.709,0.756 -0.643,0.178 -2.343,0.045 -2.343,0.045 0,0 1.01,-0.934 1.976,-1.202 0.642,-0.178 0.55,-0.445 0.642,-0.578 0.092,-0.134 1.699,-0.178 1.699,-0.178 l 0.138,-0.223 0.904,-0.125"
           style="fill:#000000;fill-opacity:1;fill-rule:nonzero;stroke:none"
           id="path169344-2-6-4" />
      </g>
    </g>
  </g>
</svg>
