<?xml version="1.0" encoding="UTF-8" standalone="no"?>
<!-- Created with Inkscape (http://www.inkscape.org/) -->

<svg
   width="18.76911mm"
   height="7.7328591mm"
   viewBox="0 0 18.76911 7.7328593"
   version="1.1"
   id="svg33402"
   sodipodi:docname="inkporter-svg-71kf7czj.svg"
   inkscape:version="1.1.1 (3bf5ae0d25, 2021-09-20)"
   xmlns:inkscape="http://www.inkscape.org/namespaces/inkscape"
   xmlns:sodipodi="http://sodipodi.sourceforge.net/DTD/sodipodi-0.dtd"
   xmlns="http://www.w3.org/2000/svg"
   xmlns:svg="http://www.w3.org/2000/svg">
  <sodipodi:namedview
     id="namedview555"
     pagecolor="#ffffff"
     bordercolor="#666666"
     borderopacity="1.0"
     inkscape:pageshadow="2"
     inkscape:pageopacity="0.0"
     inkscape:pagecheckerboard="0"
     inkscape:document-units="mm"
     showgrid="false"
     inkscape:zoom="2.5097476"
     inkscape:cx="-1212.871"
     inkscape:cy="1547.3668"
     inkscape:window-width="1920"
     inkscape:window-height="1017"
     inkscape:window-x="-8"
     inkscape:window-y="-8"
     inkscape:window-maximized="1"
     inkscape:current-layer="svg33402" />
  <defs
     id="defs14119" />
  <path
     d="m 18.76849,3.740541 c 0,-0.126648 -0.0586,-0.239536 -0.14958,-0.313267 V 2.946085 h -0.0462 V 2.738652 h -0.46073 v 0.207433 h -0.0342 v 0.512586 c -0.0713,0.07267 -0.11536,0.172156 -0.11536,0.28187 0,0.01552 0,0.03034 0.004,0.04551 L 17.65845,3.495362 16.31895,3.213845 h 0.0716 c 0.0498,0 0.09,-0.04057 0.09,-0.09031 v -0.07302 c 0,-0.05009 -0.0402,-0.09066 -0.09,-0.09066 h -0.36583 c -0.0497,0 -0.0899,0.04057 -0.0899,0.09913 h -0.12559 v -0.09843 h -0.69251 l -0.1852,-0.0381 -0.41699,-0.01658 V 2.738659 c 0,-0.05009 -0.0406,-0.09031 -0.0903,-0.09031 h -0.85372 c -0.0494,0 -0.0903,0.04022 -0.0903,0.09031 v 0.129116 l -0.19015,-0.0071 V 2.646539 c 0,-0.05009 -0.0406,-0.09031 -0.0903,-0.09031 h -0.85302 c -0.0497,0 -0.0903,0.04022 -0.0903,0.09031 v 0.0381 l -0.0998,-0.327025 h 1.72861 V 1.024819 L 12.06033,0.691797 V 0.390172 h -0.0875 V 0.136525 h -0.0977 V 0 H 9.97542 v 0.136525 h -0.0977 v 0.253647 h -0.0878 v 0.214489 h -0.078 V 0.866069 H 9.31398 l -0.097,0.0095 V 0.846705 H 9.09986 V 0.749335 H 8.49519 v 0.09737 H 8.37807 v 0.11183 l -0.65123,0.0635 -0.62512,0.09772 -0.0737,0.13335 H 6.80189 V 1.177965 H 6.60716 l -0.0596,0.07514 H 5.73441 v 0.0035 C 5.67691,1.277415 5.62716,1.400539 5.59894,1.575869 H 4.32964 V 1.691228 H 0 V 2.186175 H 4.32964 V 2.359036 H 5.6194 c 0.0293,0.119239 0.0695,0.199319 0.11501,0.215547 v 0.0035 h 0.22895 v 0.05186 H 5.84624 v 0.09772 H 5.17561 l -0.004,0.01517 C 4.967,2.702613 4.5479,2.620772 4.53484,2.620772 c -0.0169,0 -0.14922,0.9652 -0.14922,0.9652 H 4.00074 l -0.0614,0.06632 H 2.68168 v 0.07761 L 2.42733,3.554219 V 3.86678 L 1.56197,4.490844 1.67909,4.63513 2.34125,4.156411 l 0.0656,0.07726 -0.007,0.03175 c -0.0564,0.03493 -0.10901,0.07514 -0.1591,0.119239 l -0.0808,-0.09631 -0.11924,0.100541 0.09,0.10795 c -0.0483,0.0568 -0.0931,0.117122 -0.13229,0.181328 l -0.16651,-0.06738 -0.0586,0.144639 0.15028,0.06103 c -0.0321,0.06773 -0.0589,0.138642 -0.0797,0.20955 l -0.15416,-0.0628 -0.0593,0.145345 0.17851,0.07091 c -0.0138,0.08008 -0.0201,0.158045 -0.0198,0.234245 l -0.17498,0.03387 0.0303,0.153106 0.15487,-0.03034 c 0.01,0.0762 0.0261,0.148872 0.0487,0.219428 l -0.16087,0.03104 0.0293,0.153458 0.1905,-0.03704 c 0.0279,0.05997 0.061,0.11818 0.0991,0.173919 L 1.87412,6.23321 1.98066,6.347863 2.10025,6.23568 c 0.0487,0.05574 0.1009,0.109714 0.15769,0.160514 L 2.13377,6.511905 2.2403,6.625852 2.37965,6.49603 c 0.0469,0.03528 0.10725,0.07479 0.17957,0.116769 l -0.0589,0.16122 0.14676,0.05327 0.0497,-0.136878 c 0.0624,0.03316 0.12947,0.06809 0.20144,0.103364 l -0.0402,0.11042 0.14675,0.05327 0.0342,-0.09525 c 0.0744,0.03563 0.15205,0.07091 0.23178,0.106539 l -0.0279,0.07549 0.14675,0.05327 0.0244,-0.06562 0.20672,0.08784 -0.0205,0.05468 0.14711,0.05327 0.0176,-0.04868 0.21625,0.08502 -0.0296,0.08255 0.14605,0.05327 0.0293,-0.08079 0.21131,0.07691 -0.0296,0.08079 0.1464,0.05327 0.0303,-0.08361 0.15593,0.05045 -0.0229,0.104775 0.15311,0.03246 0.0194,-0.09243 c 0.079,0.02222 0.15169,0.04163 0.21731,0.05609 l -0.0169,0.0829 0.15275,0.03245 0.0176,-0.08678 c 0.0374,0.0049 0.0695,0.0074 0.0974,0.0074 h 0.0677 v 0.09913 h 0.15628 v -0.09913 h 0.22472 v 0.09913 h 0.15522 v -0.09913 h 0.16122 v 0.09913 h 0.15628 v -0.09913 h 0.22437 v 0.09913 h 0.15592 v -0.09913 h 0.254 v 0.09913 h 0.15558 v -0.09913 h 0.22472 v 0.09913 h 0.15593 v -0.09913 h 0.16016 v 0.09913 h 0.15628 v -0.09913 h 0.22366 v 0.09913 h 0.15628 v -0.09913 h 0.254 v 0.09913 h 0.15663 v -0.09913 h 0.22366 v 0.09913 h 0.15628 v -0.09913 h 0.254 v 0.09913 h 0.15629 v -0.09913 h 0.22436 v 0.09913 h 0.15558 v -0.09913 h 0.254 v 0.09913 h 0.15592 v -0.09913 h 0.22437 v 0.09913 h 0.15628 v -0.09913 h 0.25365 v 0.09913 h 0.15663 v -0.09913 h 0.22437 v 0.09913 h 0.15522 v -0.09913 h 0.25435 v 0.09913 h 0.15593 l 3.5e-4,-0.09913 h 0.22402 v 0.09913 h 0.15628 v -0.09913 h 0.25365 v 0.09913 h 0.15628 v -0.09913 h 0.22472 v 0.09913 h 0.15592 v -0.09913 h 0.25365 v 0.09913 h 0.15628 v -0.09913 h 0.22402 v 0.09913 h 0.15628 v -0.09913 h 0.031 c 0.061,0 0.127,-0.0035 0.19685,-0.01164 l 0.0145,0.100189 0.15452,-0.02187 -0.0138,-0.09878 c 0.0709,-0.01129 0.14429,-0.02575 0.22049,-0.04233 l 0.0152,0.110419 0.15452,-0.02187 -0.0169,-0.124178 c 0.0635,-0.01587 0.12841,-0.03351 0.19332,-0.0515 l 0.0247,0.06703 0.1464,-0.05327 -0.0212,-0.05786 c 0.0706,-0.02187 0.14253,-0.04445 0.21379,-0.06844 l 0.018,0.04904 0.14676,-0.05327 -0.0169,-0.04657 c 0.0727,-0.02611 0.1457,-0.05221 0.22119,-0.07197 l 0.14253,-0.06421 c 0.0699,-0.02787 0.1397,-0.05609 0.21519,-0.06632 l 0.14605,-0.05256 -0.0102,-0.02822 c 0.0804,-0.03493 0.15734,-0.0702 0.23177,-0.106186 l 0.0173,0.04727 0.1464,-0.05327 -0.0229,-0.0628 c 0.0713,-0.03563 0.13829,-0.07126 0.20073,-0.105833 l 0.0332,0.09172 0.14676,-0.05327 -0.0434,-0.118181 c 0.0773,-0.04727 0.14217,-0.09172 0.19367,-0.132644 l 0.11007,0.102658 0.10619,-0.113947 -0.10266,-0.09596 c 0.0536,-0.05574 0.1016,-0.112536 0.14534,-0.171097 l 0.11077,0.103011 0.10619,-0.1143 -0.127,-0.11818 c 0.0367,-0.05856 0.0688,-0.117828 0.0967,-0.177447 L 17.2935,5.983073 17.3228,5.83032 17.16511,5.79963 c 0.0247,-0.07267 0.0434,-0.145697 0.055,-0.217663 l 0.14535,0.02787 0.03,-0.152753 -0.15875,-0.03104 c 0.004,-0.08326 0,-0.1651 -0.0134,-0.245886 l 0.15557,-0.06279 -0.0586,-0.144639 -0.13158,0.05327 C 17.1675,4.954389 17.1393,4.884888 17.1227,4.810804 h 0.39193 c 0.0536,0.391584 0.28787,0.449792 0.51753,0.449792 0.24447,0 0.50588,-0.156986 0.50588,-0.598311 V 4.105249 c 0.13653,-0.06456 0.23107,-0.2032 0.23107,-0.364067 m -16.643,1.648531 c 0,-0.09666 0.0787,-0.175331 0.17534,-0.175331 0.0967,0 0.17568,0.07867 0.17568,0.175331 0,0.09701 -0.079,0.175683 -0.17568,0.175683 -0.0967,0 -0.17534,-0.07867 -0.17534,-0.175683 m 0.53482,0.692502 c -0.0684,0.06844 -0.17957,0.06844 -0.24765,0 -0.0691,-0.06844 -0.0691,-0.179916 0,-0.248002 0.0681,-0.06879 0.17921,-0.06879 0.24765,0 0.0688,0.06809 0.0688,0.179564 0,0.248002 M 3.50018,5.932285 3.74254,6.11961 C 3.67834,6.14713 3.60143,6.13443 3.54922,6.08221 3.50832,6.04129 3.49172,5.98555 3.50022,5.93228 M 3.10511,6.01765 c 0.0967,0 0.17533,0.07902 0.17533,0.176036 0,0.09666 -0.0787,0.175684 -0.17533,0.175684 -0.0967,0 -0.17568,-0.07902 -0.17568,-0.175684 0,-0.09701 0.079,-0.176036 0.17568,-0.176036 M 4.41462,7.187108 4.46222,7.054817 4.24209,6.974737 4.19519,7.104559 C 4.02973,7.041059 3.86111,6.972268 3.69918,6.903829 L 3.75458,6.752487 3.53409,6.672757 3.48359,6.811046 C 3.28815,6.725676 3.11177,6.645241 2.97559,6.58033 l 0.0183,-0.0508 c 0.037,0.0035 0.0737,0.0053 0.11112,0.0053 0.31256,0 0.59584,-0.125236 0.80257,-0.328789 l 0.59761,0.237067 c -0.0215,0.07373 -0.0325,0.151342 -0.0325,0.232128 0,0.252942 0.11395,0.479778 0.29351,0.630414 C 4.65614,7.27178 4.53725,7.23157 4.41448,7.187116 m 1.9999,0.220487 V 7.283778 H 6.18049 V 7.407603 L 5.71694,7.382203 C 5.95789,7.238269 6.1184,6.975803 6.1184,6.675236 c 0,-0.06844 -0.008,-0.135467 -0.024,-0.198614 H 6.1815 C 6.166,6.539772 6.1572,6.606797 6.1572,6.675236 c 0,0.319264 0.18203,0.595842 0.44732,0.732367 z m 1.48696,0 V 7.283778 H 7.66745 V 7.407603 H 7.35665 C 7.62229,7.271078 7.80397,6.9945 7.80397,6.675236 c 0,-0.06844 -0.008,-0.135467 -0.0243,-0.198614 h 0.0871 c -0.0152,0.06315 -0.024,0.130175 -0.024,0.198614 0,0.319264 0.18168,0.595842 0.44697,0.732367 z m 1.5808,0 V 7.283778 H 9.24825 V 7.407603 H 9.04187 C 9.30751,7.271078 9.48919,6.9945 9.48919,6.675236 c 0,-0.06844 -0.008,-0.135467 -0.0243,-0.198614 h 0.0875 c -0.0159,0.06315 -0.024,0.130175 -0.024,0.198614 0,0.319264 0.18098,0.595842 0.44697,0.732367 z m 1.3469,0 h -0.10195 c 0.0356,-0.01834 0.0695,-0.03881 0.10195,-0.06174 z m 0.23389,0 V 7.283778 h -0.15769 c 0.11712,-0.106539 0.2032,-0.245534 0.24377,-0.403578 0.0586,0.229658 0.21449,0.421216 0.42122,0.527403 z m 1.19275,-4.65455 -0.0409,-0.04445 h 0.0409 z m 0.53163,3.723569 c -0.0102,0.04092 -0.0173,0.08361 -0.0215,0.127 -0.004,-0.04339 -0.0106,-0.08608 -0.0208,-0.127 z m -0.37782,0.930981 h -0.0875 c 0.0303,-0.01517 0.0596,-0.03281 0.0875,-0.05221 z m 0.23424,0 V 7.283778 H 12.5005 c 0.14852,-0.13582 0.24695,-0.324556 0.26529,-0.536575 0.0251,0.284691 0.19438,0.52705 0.43427,0.6604 z m 3.0293,-0.610659 -0.13687,0.05009 -0.061,-0.165453 -0.21943,0.08043 0.06,0.164747 -0.14676,0.05327 0.0134,0.03669 c -0.11783,0.0448 -0.23742,0.08749 -0.35631,0.127353 l -0.0582,-0.159809 -0.22014,0.07973 0.055,0.152047 c -0.15205,0.04586 -0.30057,0.08608 -0.44062,0.117475 l -0.008,-0.06174 c 0.15734,-0.149578 0.25576,-0.361597 0.25576,-0.596547 0,-0.127 -0.0286,-0.24765 -0.0801,-0.355247 h 0.89183 c 0.19614,0.160514 0.44626,0.256822 0.7186,0.256822 0.03,0 0.0593,0 0.0885,-0.0035 l 0.0233,0.0635 C 15.9384,6.694662 15.81316,6.753924 15.67346,6.79661 m 2.29941,-2.96933 c 0.024,0.110067 0.0931,0.202847 0.18662,0.258939 H 17.81412 V 3.82728 Z m 0.0596,1.134886 c -0.11783,0 -0.19085,0 -0.21837,-0.151694 h 0.13652 v -0.3556 h 0.28964 v 0.20708 c 0,0.300214 -0.15629,0.300214 -0.20779,0.300214"
     id="G-PanzerIIIFlamm" />
</svg>
