<?xml version="1.0" encoding="UTF-8" standalone="no"?>
<!-- Created with Inkscape (http://www.inkscape.org/) -->

<svg
   width="21.22928mm"
   height="8.0163221mm"
   viewBox="0 0 21.22928 8.0163223"
   version="1.1"
   id="svg33402"
   sodipodi:docname="G-PanzerIV-late.svg"
   inkscape:version="1.1.1 (3bf5ae0d25, 2021-09-20)"
   xmlns:inkscape="http://www.inkscape.org/namespaces/inkscape"
   xmlns:sodipodi="http://sodipodi.sourceforge.net/DTD/sodipodi-0.dtd"
   xmlns="http://www.w3.org/2000/svg"
   xmlns:svg="http://www.w3.org/2000/svg">
  <sodipodi:namedview
     id="namedview555"
     pagecolor="#ffffff"
     bordercolor="#666666"
     borderopacity="1.0"
     inkscape:pageshadow="2"
     inkscape:pageopacity="0.0"
     inkscape:pagecheckerboard="0"
     inkscape:document-units="mm"
     showgrid="false"
     inkscape:zoom="7.2407734"
     inkscape:cx="29.347694"
     inkscape:cy="15.537014"
     inkscape:window-width="1920"
     inkscape:window-height="1017"
     inkscape:window-x="-8"
     inkscape:window-y="-8"
     inkscape:window-maximized="1"
     inkscape:current-layer="svg33402" />
  <defs
     id="defs14119" />
  <path
     d="m 0.24477,1.9391 v 0.28801 c 0,0.0234 0.0193,0.0427 0.0413,0.0427 h 0.13918 c 0.0248,0 0.0427,-0.0193 0.0427,-0.0427 V 1.9391 c 0,-0.0234 -0.0179,-0.0413 -0.0427,-0.0413 H 0.28607 c -0.0221,0 -0.0413,0.0179 -0.0413,0.0413 m 0.39411,0 v 0.28801 c 0,0.0234 0.0193,0.0427 0.0427,0.0427 l 0.13919,-0.0427 c 0.0234,0 0.0427,-0.0193 0.0427,-0.0427 V 1.98322 c 0,-0.0248 -0.0193,-0.0441 -0.0427,-0.0441 L 0.68158,1.89782 c -0.0234,0 -0.0427,0.0179 -0.0427,0.0413 m 18.12947,4.59852 c 0,0 10e-4,0.0689 0.0303,0.12264 0.0303,0.0524 0.0813,0.0978 0.0813,0.0978 l 0.42719,-0.42719 z m -13.76798,0.3886 0.004,0.001 z M 4.04539,5.8059 c 10e-4,-0.0634 0.006,-0.12541 0.0138,-0.18466 -0.0703,0.0276 -0.12541,0.0455 -0.2012,0.0675 -0.0978,0.0276 -0.051,0.11989 -0.0179,0.12403 l -0.008,-0.0675 c -0.01,-0.0565 0.0744,-0.0703 0.0827,-0.0138 l 0.0138,0.0813 c 0.0345,-0.001 0.0758,-0.004 0.11714,-0.007 M 20.17428,5.22148 c 0.74966,0.42857 0.95085,1.66054 -0.36242,2.19246 -0.2136,0.0868 -1.7377,0.57051 -2.25723,0.59256 -0.49885,0.0221 -9.87502,0 -10.65223,0 C 6.09763,8.0065 5.11508,7.22653 4.43709,6.83379 4.16286,6.67531 4.05261,6.26604 4.04573,5.89121 c -0.0358,0.003 -0.0717,0.004 -0.10336,0.005 l 0.0427,0.26459 c 0.01,0.0565 -0.0758,0.0689 -0.0854,0.0138 L 3.85557,5.89762 c -0.008,0 -0.0179,-10e-4 -0.0234,-10e-4 C 3.6737,5.87872 3.67921,5.65133 3.83517,5.60586 3.90547,5.58516 3.95782,5.56866 4.02259,5.54526 L 3.82553,5.56866 3.67257,5.50386 4.10251,4.52683 4.62203,4.43593 V 4.05284 l 1.46761,-0.97152 0.3142,-0.0386 0.0951,-0.12127 0.0854,0.0978 1.4621,-0.17915 0.10473,-0.11575 0.0799,0.0923 0.78686,-0.0978 0.0841,-0.1006 0.0799,0.0813 0.26596,-0.0331 V 2.45836 L 8.40058,2.43766 v 0.0482 H 8.24211 V 2.37838 H 6.76485 L 6.63797,2.28878 1.27465,2.24188 1.14236,2.31488 H 0.8764 L 0.61595,2.44304 H 0.51945 L 0.47815,2.37824 H 0.2494 L 0.175,2.45404 H 0.0896 L 0,2.36314 V 1.81331 L 0.0896,1.72371 H 0.175 l 0.0744,0.0744 h 0.22875 l 0.0413,-0.0634 h 0.0965 L 0.8764,1.86149 H 1.14236 L 1.27465,1.93589 6.63797,1.82427 6.76475,1.71265 8.24201,1.67135 V 1.56386 h 0.15847 v 0.0482 l 1.04731,-0.0207 0.2825,-0.0303 0.15434,-0.23427 0.10473,0.0262 -0.0951,0.18741 0.0744,-0.022 0.0951,-0.10198 0.18052,-0.0634 0.30317,-0.0303 0.0537,-0.0744 0.27561,-0.0331 0.0275,0.0427 0.57326,-0.0592 -10e-4,-0.0138 -0.0193,0.003 c -0.0234,0.003 -0.0441,-0.0152 -0.0469,-0.0386 -0.003,-0.0234 0.0152,-0.0441 0.0386,-0.0469 l 0.0138,-10e-4 -0.003,-0.0262 -0.008,10e-4 c -0.022,0.003 -0.0441,-0.0152 -0.0455,-0.0386 -0.003,-0.0234 0.0138,-0.0441 0.0372,-0.0469 l 0.68214,-0.0703 c 0.0234,-0.003 0.0441,0.0138 0.0468,0.0372 0.001,0.0221 -0.0124,0.0413 -0.0331,0.0455 l 0.003,0.0289 c 0.0179,0.003 0.0331,0.0179 0.0358,0.0372 10e-4,0.0221 -0.0138,0.0427 -0.0358,0.0469 l 0.003,0.0138 0.0992,-0.011 0.0896,-0.0896 0.28663,-0.0207 0.0427,0.0593 0.43546,-0.0703 v -0.0951 c 0,-0.0427 0.0165,-0.0648 0.0951,-0.0648 h 0.3142 l -0.0689,-0.19017 h 0.11576 l -0.004,-0.20257 0.0951,-0.1254 v -0.0868 h -0.0262 V 0.08809 h 1.91823 v 0.14469 h -0.0262 v 0.0827 l 0.11713,0.12954 v 0.20257 h 0.1006 l -0.1006,0.23289 -0.41893,-0.003 0.59394,0.0138 V 1.0401 l 1.64262,0.1695 v 1.43592 l 0.10473,0.01 0.0854,-0.0744 0.0854,0.0909 0.93431,0.11576 V 0 h 0.0675 v 2.79604 l 0.7469,0.0937 0.1006,-0.091 0.0785,0.10611 0.43547,0.0593 v 1.53514 l 1.14377,0.61598 -0.0689,0.10611 z m -0.66697,2.00091 0.0358,0.062 c 0.0896,-0.0289 0.15572,-0.0537 0.1888,-0.0675 l 0.011,-0.004 c -0.051,0.008 -0.10335,0.0138 -0.1571,0.0138 -0.0262,0 -0.0524,-10e-4 -0.0785,-0.004 M 19.31025,7.0904 19.41773,7.067 l 0.0303,0.0551 c 0.0289,0.004 0.0579,0.007 0.0868,0.008 l -0.0372,-0.56913 -0.10059,-0.0455 -0.38585,0.41617 c 0.0868,0.0703 0.18879,0.1254 0.29903,0.15847 m 0.85025,-0.17776 -0.0579,-0.1006 0.0841,-0.0799 -0.36519,-0.26321 -0.12264,0.0689 0.0813,0.56224 c 0.0413,-0.01 0.0813,-0.0207 0.12126,-0.0372 l -0.0207,-0.11024 0.13092,-0.0593 0.0689,0.0772 c 0.0276,-0.0179 0.0551,-0.0372 0.0799,-0.0579 m 0.29352,-0.80754 -0.0813,-0.003 -0.0138,-0.0593 -0.46027,0.14194 -0.0165,0.13919 0.42168,0.23288 0.0262,-0.0606 0.0841,0.007 c 0.0152,-0.0455 0.0248,-0.0923 0.0345,-0.14194 l -0.0799,-0.0331 0.0234,-0.14194 0.0675,-0.011 c -0.001,-0.0234 -0.003,-0.0468 -0.006,-0.0703 m -0.21773,-0.49058 -0.0992,0.0717 -0.0413,-0.0358 c 0.003,0.0468 0.007,0.0868 0.007,0.0868 l -0.35691,0.12264 -0.004,0.051 0.13919,0.0992 0.42305,-0.16123 -0.0786,-0.0965 0.0537,-0.0854 c -0.0124,-0.0165 -0.0262,-0.0345 -0.0427,-0.0524 m -2.15801,1.87964 0.10749,0.18466 c 0.0345,-0.01 0.0689,-0.0165 0.10198,-0.0248 l 0.006,-0.27423 0.13918,-0.0317 0.13505,0.23013 0.04,-0.01 0.004,-0.25494 0.14056,-0.0317 0.12127,0.21084 0.0496,-0.0152 0.004,-0.26734 0.14056,-0.0317 0.12678,0.21773 0.0772,-0.0234 0.003,-0.19844 C 18.99359,7.07991 18.76897,6.8608 18.66837,6.58244 l -0.5898,0.16812 c 0.0675,0.10748 0.10473,0.23564 0.10473,0.37069 0,0.13642 -0.0372,0.26321 -0.10473,0.37207 m -0.15296,0.24391 v -0.0661 c -0.0441,0.0358 -0.0937,0.0689 -0.1447,0.0937 0.0455,-0.008 0.0937,-0.0179 0.1447,-0.0275 m -0.7469,0.0372 0.005,0.0248 0.0551,-0.001 c -0.022,-0.007 -0.0427,-0.0152 -0.0606,-0.0234 m -0.75792,-0.0978 0.0345,0.1254 h 0.0813 l 0.0689,-0.24804 0.14469,0.005 0.0661,0.24116 h 0.0882 l 0.0524,-0.18052 C 16.87228,7.53333 16.81031,7.42582 16.77723,7.30456 h -0.11575 c -0.04,0.14882 -0.12541,0.27836 -0.24116,0.37206 m -1.44418,-0.0179 0.0386,0.1447 h 0.11438 l 0.0717,-0.24943 0.14331,0.006 0.0675,0.24391 h 0.0772 l 0.0345,-0.12402 C 15.36072,7.54896 15.25461,7.34777 15.25461,7.12177 c 0,-0.13091 0.0358,-0.25356 0.0978,-0.35829 h -0.23013 c 0.0606,0.10473 0.0965,0.22738 0.0965,0.35829 0,0.21497 -0.0951,0.40652 -0.24253,0.53743 m -0.24253,0.1447 10e-4,-0.006 -0.0165,0.006 z m -1.22646,-0.20671 0.0565,0.20671 h 0.0937 l 0.0703,-0.24942 0.14469,0.005 0.0661,0.24391 h 0.10473 l 0.0317,-0.11024 c -0.12402,-0.0937 -0.21635,-0.226 -0.25907,-0.37758 h -0.15434 c -0.0289,0.10473 -0.0827,0.20119 -0.15434,0.28112 m -0.22462,0.2067 0.0124,-0.0427 c -0.0345,0.0165 -0.0689,0.0303 -0.10473,0.0427 z m -1.23335,-0.23564 0.0634,0.23426 h 0.0786 l 0.0703,-0.24804 0.14469,0.005 0.0661,0.24254 h 0.11989 l 0.0179,-0.0648 c -0.21084,-0.12402 -0.3514,-0.35416 -0.3514,-0.61598 0,-0.13092 0.0345,-0.25356 0.0965,-0.35829 h -0.24529 c 0.0606,0.10473 0.0951,0.22737 0.0951,0.35829 0,0.16949 -0.0579,0.32383 -0.15572,0.44648 m -0.21635,0.23427 0.0179,-0.062 c -0.0441,0.0248 -0.0896,0.0455 -0.13918,0.0606 z m -0.88332,-0.2136 0.0579,0.21222 h 0.16123 l 0.01,-0.0358 C 11.09059,7.7216 11.01343,7.66095 10.95004,7.58791 m -0.39136,-0.0289 h 0.0331 l 0.0648,0.24116 h 0.0717 l 0.0703,-0.24667 0.12816,0.006 C 10.87024,7.4878 10.82894,7.40515 10.80409,7.31558 h -0.12402 c -0.0248,0.0896 -0.0661,0.17226 -0.12127,0.24392 m -0.29766,0.22462 0.004,0.0152 h 0.113 l 0.0262,-0.0937 c -0.0441,0.0317 -0.0923,0.0579 -0.14332,0.0785 M 9.5596,7.68902 9.5885,7.79789 H 9.76213 C 9.68773,7.77309 9.62019,7.73589 9.55956,7.68902 m -0.49747,-0.13229 0.0951,0.003 0.0634,0.2384 h 0.0896 l 0.0689,-0.24391 0.0455,0.003 C 9.33229,7.43596 9.27714,7.28575 9.27714,7.12177 c 0,-0.13092 0.0358,-0.25356 0.0978,-0.3583 H 9.11311 c 0.0606,0.10474 0.0965,0.22738 0.0965,0.3583 0,0.16398 -0.0551,0.31419 -0.14745,0.43545 m -0.27699,0.21774 0.006,0.022 H 8.94413 L 8.98963,7.63711 C 8.93043,7.69361 8.8601,7.74184 8.78568,7.77492 m -0.66559,-0.0441 0.0179,0.0661 h 0.11989 c -0.0496,-0.0179 -0.0951,-0.04 -0.1378,-0.0661 M 7.5854,7.57648 l 0.12953,0.005 0.0579,0.2136 h 0.0882 L 7.92853,7.55806 C 7.88443,7.50016 7.84863,7.43679 7.8238,7.36789 H 7.70391 C 7.67501,7.44509 7.63501,7.51396 7.5854,7.57597 m -0.18741,0.15985 0.0152,0.0579 h 0.0951 l 0.0551,-0.19293 c -0.0482,0.0524 -0.10335,0.0992 -0.16536,0.13505 m -0.63528,0.0469 0.005,0.003 z M 6.46234,7.55249 6.43614,7.70821 c 0.0262,0.008 0.0524,0.0165 0.0772,0.0234 l 0.0496,-0.0717 C 6.52574,7.62681 6.49264,7.59101 6.46234,7.55242 M 5.3103,7.12386 5.3985,7.02188 5.52666,7.08808 5.50046,7.24242 c 0.0372,0.0221 0.0744,0.0455 0.11162,0.0675 l 0.11851,-0.13643 0.12816,0.0661 -0.0331,0.19155 c 0.0276,0.0152 0.0538,0.0303 0.0813,0.0455 l 0.13918,-0.16261 0.12954,0.0662 -0.0372,0.20946 c 0.0193,0.01 0.0372,0.0179 0.0565,0.0248 l 0.14607,-0.1695 0.0758,0.0386 c -0.062,-0.10611 -0.0978,-0.23013 -0.0978,-0.36242 0,-0.13092 0.0345,-0.25356 0.0965,-0.3583 H 5.9856 l 0.0345,0.0565 -0.0854,0.0634 -0.091,-0.0689 c -0.051,0.0303 -0.10335,0.0551 -0.15847,0.0786 l 0.0152,0.10611 -0.11024,0.0289 -0.0538,-0.0909 c -0.0579,0.0138 -0.11988,0.0234 -0.1819,0.0276 l -0.0248,0.0841 -0.10335,-0.004 -0.0262,-0.0744 -0.0138,0.0744 c 0.0413,0.0262 0.0813,0.0524 0.12402,0.0799"
     id="G-PanzerIV-late" />
</svg>
