<?xml version="1.0" encoding="UTF-8" standalone="no"?>
<!-- Created with Inkscape (http://www.inkscape.org/) -->

<svg
   width="17.691935mm"
   height="8.3173103mm"
   viewBox="0 0 17.691935 8.3173103"
   version="1.1"
   id="svg1"
   sodipodi:docname="inkporter-svg-bkw7v02n.svg"
   xmlns:inkscape="http://www.inkscape.org/namespaces/inkscape"
   xmlns:sodipodi="http://sodipodi.sourceforge.net/DTD/sodipodi-0.dtd"
   xmlns="http://www.w3.org/2000/svg"
   xmlns:svg="http://www.w3.org/2000/svg">
  <sodipodi:namedview
     id="namedview1"
     pagecolor="#ffffff"
     bordercolor="#666666"
     borderopacity="1.0"
     inkscape:showpageshadow="2"
     inkscape:pageopacity="0.0"
     inkscape:pagecheckerboard="0"
     inkscape:deskcolor="#d1d1d1"
     inkscape:document-units="mm"
     inkscape:zoom="0.72782688"
     inkscape:cx="396.38547"
     inkscape:cy="561.25984"
     inkscape:window-width="1920"
     inkscape:window-height="1017"
     inkscape:window-x="-8"
     inkscape:window-y="770"
     inkscape:window-maximized="1"
     inkscape:current-layer="layer1" />
  <defs
     id="defs1" />
  <g
     inkscape:label="Layer 1"
     inkscape:groupmode="layer"
     id="layer1"
     transform="translate(-46.869346,-178.99524)">
    <path
       d="m 58.37146,181.95509 v -0.048 h -0.04399 z m -10.896339,2.83646 c 0,0.10428 0.08449,0.18918 0.188736,0.18918 0.103798,0 0.188694,-0.0849 0.188694,-0.18918 0,-0.10424 -0.0849,-0.1887 -0.188694,-0.1887 -0.104242,0 -0.188736,0.0845 -0.188736,0.1887 m 1.053137,1.05402 c 0.104242,0 0.188295,-0.0853 0.188295,-0.18918 0,-0.10468 -0.08405,-0.18913 -0.188295,-0.18913 -0.104242,0 -0.189177,0.0845 -0.189177,0.18913 0,0.10385 0.08494,0.18918 0.189177,0.18918 m -0.744305,-0.30883 c 0.07346,0.0735 0.19267,0.0735 0.266125,0 0.07434,-0.0743 0.07434,-0.19355 0,-0.26701 -0.07346,-0.0743 -0.192669,-0.0743 -0.266125,0 -0.07434,0.0735 -0.07434,0.19267 0,0.26701 m 1.169264,-0.16189 c -0.0088,0.0576 0.0088,0.1179 0.05278,0.16189 0.05631,0.0559 0.139002,0.0695 0.208083,0.0401 z m 9.99011,0.58552 h -0.04532 c 0.01083,0.044 0.01845,0.0902 0.02247,0.1368 0.0044,-0.0466 0.01203,-0.0928 0.02286,-0.1368 m -5.507535,0.86838 H 53.6874 v 0.1337 h 0.417932 c -0.28551,-0.14691 -0.481273,-0.44471 -0.481273,-0.78786 0,-0.0739 0.0096,-0.14602 0.02649,-0.21422 h -0.09369 c 0.01725,0.0682 0.02611,0.14033 0.02611,0.21422 0,0.34315 -0.195319,0.64095 -0.48127,0.78786 h 0.334359 z m 1.700226,0 h 0.252039 v 0.1337 h 0.53008 c -0.285471,-0.14691 -0.480349,-0.44471 -0.480349,-0.78786 0,-0.0739 0.0088,-0.14602 0.02568,-0.21422 h -0.09373 c 0.01725,0.0682 0.02611,0.14033 0.02611,0.21422 0,0.34315 -0.195319,0.64095 -0.481231,0.78786 h 0.221689 z m 1.700629,0.1337 v -0.0668 c -0.03493,0.0245 -0.07081,0.047 -0.109541,0.0668 z m 0.08229,-0.1337 h 0.169348 v 0.1337 h 0.545895 c -0.222571,-0.11436 -0.389753,-0.32023 -0.453094,-0.56745 -0.04355,0.16935 -0.136352,0.31935 -0.262149,0.43375 m 1.617941,0.1337 v -0.0563 c -0.0297,0.0205 -0.06113,0.0397 -0.09369,0.0563 z m 0.850756,0 c -0.258223,-0.14338 -0.440331,-0.40469 -0.467184,-0.71087 -0.01968,0.22832 -0.125797,0.43154 -0.285471,0.57717 h 0.153973 v 0.1337 z m 3.066972,-0.82876 -0.02448,-0.0686 c -0.03171,0.004 -0.06334,0.004 -0.09545,0.004 -0.29342,0 -0.562191,-0.10337 -0.773328,-0.2758 h -0.95897 c 0.05495,0.11568 0.08622,0.24545 0.08622,0.38228 0,0.25204 -0.106049,0.48035 -0.275396,0.64135 l 0.0088,0.0664 c 0.150883,-0.0337 0.310558,-0.077 0.474208,-0.12624 l -0.05937,-0.16364 0.237102,-0.0858 0.06246,0.172 c 0.128002,-0.0431 0.256449,-0.0889 0.383611,-0.1368 l -0.01446,-0.0397 0.157466,-0.0572 -0.06422,-0.17729 0.236223,-0.0862 0.06511,0.1773 0.147792,-0.0537 c 0.150001,-0.0458 0.285073,-0.10954 0.406936,-0.17156 m -14.046044,-0.11612 -0.01965,0.0545 c 0.146509,0.07 0.336092,0.15662 0.546379,0.24854 l 0.05455,-0.14912 0.237102,0.0858 -0.05941,0.16277 c 0.173764,0.0739 0.354993,0.14783 0.533174,0.21643 l 0.05058,-0.13989 0.236664,0.0862 -0.05146,0.1421 c 0.132419,0.0479 0.260424,0.0911 0.378316,0.12756 -0.19267,-0.16232 -0.315419,-0.40601 -0.315419,-0.67787 0,-0.0871 0.01164,-0.17068 0.03532,-0.24987 l -0.643114,-0.25469 c -0.222173,0.2186 -0.527032,0.35323 -0.86312,0.35323 -0.04046,0 -0.08004,-0.004 -0.119613,-0.006 m 2.929297,0.91719 0.498369,0.0277 v -0.13375 h 0.251637 v 0.13375 h 0.204551 c -0.285472,-0.14691 -0.481235,-0.44475 -0.481235,-0.78786 0,-0.0739 0.0096,-0.14607 0.02649,-0.21422 h -0.09413 c 0.01768,0.0681 0.02649,0.14032 0.02649,0.21422 0,0.32332 -0.173323,0.60574 -0.43198,0.76016 m -3.857526,-3.1035 -0.09721,-0.11616 0.128485,-0.10818 0.08666,0.10336 c 0.05367,-0.0475 0.110825,-0.0906 0.171556,-0.12845 l 0.0076,-0.0337 -0.0704,-0.0827 -0.712195,0.51467 -0.126238,-0.1553 0.931277,-0.6713 v -0.33609 l 0.27359,0.18874 v -0.0836 h 2.479735 l 0.201461,-0.99461 h 0.721427 v -0.10513 h 0.125835 v -0.0836 h 0.776418 v -0.10512 H 52.04347 v -0.20985 h -0.805918 v -0.0946 h -0.742981 c -0.05367,0 -0.09722,-0.0435 -0.09722,-0.0972 v -0.0598 h -3.465675 v -0.30177 h 3.465675 v -0.0603 c 0,-0.0537 0.04355,-0.0977 0.09722,-0.0977 h 0.742981 v -0.0941 h 0.776016 l 0.281979,-0.35676 h 0.209366 v 0.1258 h 0.217756 l 0.105128,-0.1887 0.672176,-0.10516 0.700313,-0.0686 v -0.12009 h 0.125836 v -0.10469 h 0.650621 v 0.10469 h 0.125797 v 0.0313 l 0.104683,-0.0101 h 0.428046 v -0.2811 h 0.08401 v -0.23096 h 0.09457 v -0.2727 h 0.104683 v -0.14695 h 2.043342 v 0.14695 h 0.105604 v 0.2727 h 0.09413 v 0.32465 l 1.96282,0.35808 v 1.43363 h -1.859463 l 0.107336,0.3515 v -0.041 c 0,-0.0537 0.04355,-0.0968 0.09722,-0.0968 h 0.917671 c 0.05366,0 0.09721,0.0431 0.09721,0.0968 v 0.23053 l 0.204111,0.008 v -0.13901 c 0,-0.0537 0.04444,-0.0972 0.09722,-0.0972 h 0.918513 c 0.05367,0 0.09678,0.0436 0.09678,0.0972 v 0.17991 l 0.44868,0.0172 0.199288,0.0418 h 0.74519 v 0.10557 h 0.135029 c 0,-0.0629 0.04311,-0.10645 0.09677,-0.10645 h 0.393287 c 0.05367,0 0.09722,0.0435 0.09722,0.0972 v 0.0787 c 0,0.0537 -0.04355,0.0972 -0.09722,0.0972 h -0.07699 l 1.441126,0.30265 0.377874,0.35676 h -0.210291 v 0.39855 h 0.14695 v 0.65897 h -0.890372 c 0.01806,0.0796 0.04792,0.15437 0.07125,0.23136 l 0.141651,-0.0572 0.0625,0.1557 -0.167182,0.0673 c 0.01404,0.0871 0.01845,0.17508 0.01446,0.26484 l 0.170674,0.0329 -0.0321,0.16449 -0.156143,-0.0305 c -0.01326,0.0783 -0.03291,0.15663 -0.05985,0.2345 l 0.170233,0.0329 -0.0321,0.16449 -0.201898,-0.0385 c -0.03009,0.0638 -0.06466,0.1276 -0.104242,0.19094 l 0.136796,0.12712 -0.114356,0.12275 -0.118773,-0.11042 c -0.04704,0.0625 -0.09899,0.12403 -0.156627,0.18388 l 0.110427,0.10291 -0.11436,0.12319 -0.11793,-0.11086 c -0.05584,0.044 -0.125353,0.092 -0.208485,0.14253 l 0.0466,0.12712 -0.157907,0.0576 -0.03573,-0.0985 c -0.06687,0.0369 -0.139478,0.0752 -0.216031,0.11351 l 0.02491,0.0673 -0.157911,0.0576 -0.01845,-0.0506 c -0.08008,0.0381 -0.163206,0.0761 -0.249425,0.11435 l 0.01083,0.0301 -0.157025,0.0568 c -0.0814,0.0104 -0.156185,0.0414 -0.231405,0.0708 l -0.153532,0.0695 c -0.08092,0.0213 -0.159678,0.0497 -0.237547,0.0774 l 0.01767,0.0501 -0.157466,0.0576 -0.01926,-0.0532 c -0.07655,0.0257 -0.153973,0.0501 -0.230078,0.0735 l 0.02289,0.0625 -0.157469,0.0572 -0.02649,-0.0721 c -0.07041,0.0196 -0.139887,0.0381 -0.208082,0.0554 l 0.01845,0.13374 -0.166296,0.0233 -0.01686,-0.11878 c -0.0818,0.0181 -0.161,0.0333 -0.237102,0.0453 l 0.01485,0.10689 -0.166257,0.0233 -0.01524,-0.10778 c -0.07522,0.008 -0.146512,0.0125 -0.212058,0.0125 h -0.0333 v 0.10645 H 59.62877 v -0.10645 h -0.240633 v 0.10645 h -0.168025 v -0.10645 h -0.273191 v 0.10645 h -0.168063 v -0.10645 h -0.24148 v 0.10645 h -0.168063 v -0.10645 h -0.272712 v 0.10645 H 57.92854 v -0.10645 h -0.241078 l -3.52e-4,0.10645 h -0.16758 v -0.10645 h -0.273749 v 0.10645 h -0.167139 v -0.10645 h -0.241476 v 0.10645 h -0.168025 v -0.10645 h -0.273187 v 0.10645 H 56.22837 v -0.10645 h -0.24196 v 0.10645 h -0.167142 v -0.10645 h -0.273629 v 0.10645 h -0.167622 v -0.10645 h -0.24148 v 0.10645 h -0.168063 v -0.10645 h -0.272708 v 0.10645 h -0.168067 v -0.10645 h -0.241078 v 0.10645 h -0.168024 v -0.10645 h -0.273191 v 0.10645 h -0.168021 v -0.10645 h -0.241078 v 0.10645 h -0.168025 v -0.10645 h -0.171997 v 0.10645 H 52.928219 V 187.2061 H 52.6867 v 0.10645 h -0.16758 v -0.10645 h -0.273191 v 0.10645 h -0.16758 v -0.10645 h -0.241523 v 0.10645 h -0.168021 v -0.10645 h -0.173323 v 0.10645 h -0.167181 v -0.10645 h -0.24148 v 0.10645 h -0.168063 v -0.10645 h -0.07301 c -0.0297,0 -0.06466,-0.004 -0.104722,-0.008 l -0.01926,0.0933 -0.164048,-0.0353 0.01845,-0.0884 c -0.07084,-0.0164 -0.148717,-0.0365 -0.234054,-0.0607 l -0.02127,0.099 -0.164053,-0.0349 0.0241,-0.11259 -0.167181,-0.0541 -0.03253,0.0901 -0.157907,-0.0576 0.03171,-0.0867 -0.227428,-0.0827 -0.03129,0.0871 -0.157067,-0.0576 0.03171,-0.0889 -0.232248,-0.0915 -0.01926,0.0528 -0.157945,-0.0576 0.02208,-0.059 -0.222575,-0.0946 -0.02611,0.0708 -0.157906,-0.0572 0.0297,-0.0814 c -0.08534,-0.0381 -0.169389,-0.0765 -0.248987,-0.11479 l -0.03733,0.10291 -0.157508,-0.0576 0.04311,-0.11877 c -0.07699,-0.0377 -0.14956,-0.0752 -0.216432,-0.1113 l -0.05367,0.14735 -0.15791,-0.0572 0.06334,-0.17377 c -0.07743,-0.0449 -0.142536,-0.0875 -0.193111,-0.12539 l -0.150001,0.13988 -0.114399,-0.1227 0.133305,-0.12452 c -0.06113,-0.0545 -0.117451,-0.11259 -0.169348,-0.17243 l -0.12893,0.12009 -0.114356,-0.12274 0.142092,-0.1315 c -0.04094,-0.0603 -0.07699,-0.12275 -0.106892,-0.18697 l -0.204551,0.0401 -0.0321,-0.16497 0.173324,-0.0337 c -0.0241,-0.0757 -0.04223,-0.15397 -0.05238,-0.23578 l -0.166699,0.0325 -0.03253,-0.16497 0.188253,-0.0365 c -3.49e-4,-0.0818 0.0064,-0.16538 0.02127,-0.25159 l -0.191784,-0.0765 0.06334,-0.15618 0.1663,0.0673 c 0.02247,-0.0761 0.05102,-0.15221 0.08578,-0.22522 l -0.161883,-0.0656 0.06334,-0.15574 0.179063,0.0726 c 0.04219,-0.0691 0.08971,-0.13418 0.142498,-0.19491"
       id="G-PanzerIIILong"
       style="stroke-width:0.352778" />
  </g>
</svg>
