<?xml version="1.0" encoding="UTF-8" standalone="no"?>
<!-- Created with Inkscape (http://www.inkscape.org/) -->

<svg
   width="30.01298mm"
   height="10.05334mm"
   viewBox="0 0 30.012979 10.053341"
   version="1.1"
   id="svg33402"
   sodipodi:docname="inkporter-svg-e7qp_36f.svg"
   inkscape:version="1.1.1 (3bf5ae0d25, 2021-09-20)"
   xmlns:inkscape="http://www.inkscape.org/namespaces/inkscape"
   xmlns:sodipodi="http://sodipodi.sourceforge.net/DTD/sodipodi-0.dtd"
   xmlns="http://www.w3.org/2000/svg"
   xmlns:svg="http://www.w3.org/2000/svg">
  <sodipodi:namedview
     id="namedview555"
     pagecolor="#ffffff"
     bordercolor="#666666"
     borderopacity="1.0"
     inkscape:pageshadow="2"
     inkscape:pageopacity="0.0"
     inkscape:pagecheckerboard="0"
     inkscape:document-units="mm"
     showgrid="false"
     inkscape:zoom="0.32"
     inkscape:cx="889.0625"
     inkscape:cy="4120.3125"
     inkscape:window-width="1920"
     inkscape:window-height="1017"
     inkscape:window-x="-8"
     inkscape:window-y="-8"
     inkscape:window-maximized="1"
     inkscape:current-layer="svg33402" />
  <defs
     id="defs13927" />
  <path
     d="M 0.71119,2.06257 H 0.34007 V 2.44745 H 0.71119 Z M 1.00823,2.4471 h 0.0741 V 2.06222 h -0.0741 z m 25.93658,4.53743 c 0.13511,0.32173 0.18344,0.83961 0.0162,1.22767 -0.30585,0.71014 -2.06974,1.84114 -3.06669,1.84114 H 10.61788 c -1.0015403,0 -3.3217603,-1.16487 -3.7757803,-1.68275 -0.29986,-0.34254 -0.42369,-0.88864 -0.30374,-1.36631 h -0.15946 l -0.17286,0.0632 v 0.12665 h -0.25224 c 0,0 -0.0787,-0.84913 0.31503,-1.27952 0.3937,-0.43039 0.82268,-0.84103 1.53106,-0.96732 0.70838,-0.12629 1.2005,-0.0949 1.2005,-0.0949 l 0.38947,-0.3616 h -0.34678 V 4.27772 h 0.0981 v -0.0999 c -0.067,-0.006 -0.12841,-0.025 -0.17956,-0.054 V 3.67826 c 0.0614,-0.0349 0.13758,-0.0557 0.22048,-0.0557 0.20285,0 0.3676,0.12488 0.3676,0.27834 0,0.12135 -0.10231,0.22436 -0.24518,0.26282 v 0.11394 h 0.31467 l 0.23107,-0.21484 H 10.14942 l 0.57079,-0.46214 h 0.18909 v 0.11078 h 0.15981 V 3.54425 c 0,-0.091 0.0741,-0.16545 0.1651,-0.16545 h 0.51929 c 0.091,0 0.1651,0.0744 0.1651,0.16545 v 0.16722 h 0.37465 V 3.59011 h 0.52211 v -0.0984 h 0.17957 v 0.0984 h 0.60466 v -0.115 h 0.32667 v 0.23636 h 0.75071 V 3.42184 c -0.0402,-0.0127 -0.0794,-0.0279 -0.11748,-0.0448 h -0.19296 v 0.078 C 14.0081,3.38664 13.71001,3.14741 13.55902,2.82533 h -0.39899 c -0.091,0 -0.16475,-0.0741 -0.16475,-0.16545 L 12.8076,2.62598 v -0.0995 l -10.97174,-0.06 v 0.0974 H 1.5741 L 1.00824,2.59348 V 2.742 H 0.7112 V 2.62347 L 0.16475,2.62382 C 0.07375,2.62382 0,2.54972 0,2.45837 V 2.05126 C 0,1.95986 0.0737,1.88581 0.16475,1.88581 h 0.53622 l 0.0102,-0.11783 h 0.29704 v 0.14817 l 0.56586,0.0494 0.26176,-0.0289 v 0.11113 l 10.97174,0.006 v -0.0995 h 0.18768 c 0,-0.12524 0.0737,-0.19932 0.16475,-0.19932 h 0.4579 C 13.78053,1.48861 14.05005,1.29529 14.3665,1.23461 V 1.4237 c 0.12946,-0.0924 0.27904,-0.15805 0.44061,-0.18909 v 0.0917 l 0.34361,-0.0134 0.0325,-0.13123 h 0.65334 l 0.0928,-0.0416 -0.0762,-0.0892 L 16.06553,0.80499 16.2839,0.98067 16.31,0.8378 h 0.5715 V 0.72315 h 0.44097 v 0.16368 h 0.89359 V 0.44551 c 0,-0.0871 0.0677,-0.15875 0.1531,-0.16475 l 3.5e-4,-0.23107 h 2.20592 v 0.23107 c 0.0857,0.006 0.15346,0.0776 0.15346,0.16475 v 0.44132 h 0.18627 l 0.37571,0.4752 0.83255,1.54022 0.29351,0.80963 H 23.3331 V 3.59405 h 0.14076 V 3.49139 h 0.10936 V 3.35033 h 0.1023 V 0 h 0.16651 v 3.35033 h 0.0893 v 0.14111 h 0.1023 V 3.5941 h 0.11501 l 3.5e-4,-0.0769 H 24.3763 V 3.33764 h 0.9719 V 3.5172 h 0.6851 v 0.09 h 1.93816 v 0.10478 h 0.29422 V 3.6072 h 0.24306 V 3.41459 h 0.14076 l -3.5e-4,0.19261 h 0.1023 v 0.10478 l 0.28152,0.18944 c 0,0 0.16157,-0.25259 0.31891,-0.33161 0.15734,-0.079 0.6611,-0.11077 0.6611,-0.11077 v 0.30021 c 0,0 -0.37782,-0.067 -0.50376,0.0632 -0.12594,0.13018 -0.38171,0.46214 -0.38171,0.46214 l 0.44486,0.31574 -0.85408,1.34655 H 28.11998 L 27.8367,6.27849 v 0.61595 h -0.55104 l -0.067,-0.12629 h -0.15734 z m -4.56953,2.73826 h 0.91616 c -0.1718,-0.0667 -0.32703,-0.16581 -0.45826,-0.29034 -0.13123,0.12453 -0.28645,0.22366 -0.4579,0.29034 m -1.83268,0 h 0.82902 C 21.21852,9.66349 21.07846,9.57815 20.95711,9.47197 20.83575,9.57815 20.6957,9.66352 20.5426,9.72279 m -1.91947,0 h 0.91581 C 19.36749,9.65609 19.21227,9.55698 19.08104,9.43245 18.9498,9.55698 18.79458,9.65611 18.62313,9.72279 m -1.89089,0 h 0.88689 C 17.45403,9.65859 17.30374,9.56404 17.17568,9.44586 17.04763,9.56404 16.8977,9.65858 16.73224,9.72279 m -1.83232,0 h 0.82867 C 15.57584,9.66349 15.43578,9.57815 15.31408,9.47197 15.19272,9.57815 15.05267,9.66352 14.89992,9.72279 m -1.8034,0 h 0.79939 C 13.74915,9.66599 13.61439,9.58485 13.49621,9.48467 13.37803,9.58485 13.24327,9.66599 13.09652,9.72279 m -1.9491,0 h 0.94544 C 11.91471,9.65369 11.7542,9.54958 11.62014,9.41834 11.48608,9.54958 11.32557,9.65365 11.14742,9.72279 M 7.8856297,8.70714 c 0.11184,0.0631 0.23107,0.12771 0.35525,0.19156 l 0.0554,-0.13758 c 0.0339,-0.0847 0.13017,-0.12559 0.21449,-0.0914 0.10618,0.043 0.14711,0.13935 0.11289,0.22436 l -0.0586,0.1457 c 0.1136,0.0744 0.23742,0.13124 0.36195,0.18556 l 0.0684,-0.18062 c 0.0342,-0.0847 0.13018,-0.12559 0.21485,-0.0914 0.10583,0.0427 0.14675,0.13935 0.11253,0.22401 l -0.0586,0.1457 c 0.11007,0.0875 0.23848,0.13582 0.36336,0.17886 l 0.0346,-0.0928 c -0.25505,-0.25365 -0.41275,-0.60537 -0.41275,-0.99413 l -0.55174,-0.0325 c -0.19685,0.13688 -0.43568,0.21731 -0.69321,0.21731 l -0.0755,-0.002 z M 26.16023,8.59602 l 0.1397,-0.0656 c -0.0444,0.0254 -0.091,0.0473 -0.1397,0.0656 m -0.36724,0.0868 C 25.55663,8.65252 25.35201,8.57205 25.18903,8.44116 25.18303,8.78583 25.05251,9.0998 24.84155,9.3404 l 0.0684,0.10195 C 25.03096,9.38665 25.15302,9.32487 25.27296,9.2582 L 25.16748,9.10615 c -0.0508,-0.0758 -0.031,-0.17886 0.0444,-0.23001 0.0953,-0.0639 0.19756,-0.0441 0.24836,0.0317 l 0.0878,0.13053 c 0.01,0.0141 0.0166,0.0289 0.0212,0.0444 0.11959,-0.0755 0.2353,-0.15417 0.3436,-0.23389 z"
     id="G-Panther" />
</svg>
