<?xml version="1.0" encoding="UTF-8" standalone="no"?>
<!-- Created with Inkscape (http://www.inkscape.org/) -->

<svg
   width="17.691788mm"
   height="8.2109203mm"
   viewBox="0 0 17.691788 8.2109203"
   version="1.1"
   id="svg1"
   sodipodi:docname="inkporter-svg-bkw7v02n.svg"
   xmlns:inkscape="http://www.inkscape.org/namespaces/inkscape"
   xmlns:sodipodi="http://sodipodi.sourceforge.net/DTD/sodipodi-0.dtd"
   xmlns="http://www.w3.org/2000/svg"
   xmlns:svg="http://www.w3.org/2000/svg">
  <sodipodi:namedview
     id="namedview1"
     pagecolor="#ffffff"
     bordercolor="#666666"
     borderopacity="1.0"
     inkscape:showpageshadow="2"
     inkscape:pageopacity="0.0"
     inkscape:pagecheckerboard="0"
     inkscape:deskcolor="#d1d1d1"
     inkscape:document-units="mm"
     inkscape:zoom="0.72782688"
     inkscape:cx="396.38547"
     inkscape:cy="561.25984"
     inkscape:window-width="1920"
     inkscape:window-height="1017"
     inkscape:window-x="-8"
     inkscape:window-y="770"
     inkscape:window-maximized="1"
     inkscape:current-layer="layer1" />
  <defs
     id="defs1" />
  <g
     inkscape:label="Layer 1"
     inkscape:groupmode="layer"
     id="layer1"
     transform="translate(-47.096664,-162.57353)">
    <path
       d="m 58.679068,165.49669 v -0.0473 h -0.04339 z m -10.7569,2.80035 c 0,0.10266 0.08361,0.18662 0.186267,0.18662 0.102658,0 0.186619,-0.084 0.186619,-0.18662 0,-0.10301 -0.08396,-0.18661 -0.186619,-0.18661 -0.102659,0 -0.186267,0.0836 -0.186267,0.18661 m 1.039636,1.03999 c 0.103011,0 0.186267,-0.084 0.186267,-0.18662 0,-0.10301 -0.08326,-0.18662 -0.186267,-0.18662 -0.102658,0 -0.186619,0.0836 -0.186619,0.18662 0,0.10266 0.08396,0.18662 0.186619,0.18662 m -0.734836,-0.3048 c 0.07267,0.0727 0.1905,0.0727 0.263172,0 0.07303,-0.073 0.07303,-0.19085 0,-0.26352 -0.07267,-0.073 -0.1905,-0.073 -0.263172,0 -0.07303,0.0727 -0.07303,0.1905 0,0.26352 m 1.154642,-0.15945 c -0.0092,0.0568 0.0085,0.11606 0.05221,0.15945 0.05539,0.0554 0.136877,0.0688 0.204964,0.0395 z m 9.861902,0.57785 h -0.0448 c 0.01094,0.0434 0.01834,0.0889 0.02222,0.13511 0.0046,-0.0462 0.01199,-0.0917 0.02258,-0.13511 m -5.437011,0.85725 h 0.248709 v 0.13194 h 0.412397 c -0.28187,-0.14499 -0.474839,-0.43921 -0.474839,-0.77788 0,-0.0727 0.0095,-0.14393 0.02575,-0.21131 h -0.09278 c 0.01729,0.0674 0.02611,0.13864 0.02611,0.21131 0,0.33867 -0.193323,0.63289 -0.475192,0.77788 h 0.329847 z m 1.67887,0 h 0.248355 v 0.13194 h 0.523522 c -0.281869,-0.14499 -0.474133,-0.43921 -0.474133,-0.77788 0,-0.0727 0.0088,-0.14393 0.02505,-0.21131 h -0.09278 c 0.01729,0.0674 0.02611,0.13864 0.02611,0.21131 0,0.33867 -0.193322,0.63289 -0.475191,0.77788 h 0.219075 z m 1.678516,0.13194 v -0.066 c -0.03422,0.0243 -0.0702,0.0462 -0.10795,0.066 z m 0.08114,-0.13194 h 0.167217 v 0.13194 h 0.538691 c -0.219427,-0.11289 -0.384527,-0.31609 -0.446969,-0.56021 -0.04304,0.16757 -0.134408,0.31538 -0.258939,0.42827 m 1.597378,0.13194 v -0.0554 c -0.02963,0.0205 -0.06068,0.0388 -0.09278,0.0554 z m 0.839611,0 c -0.254706,-0.14182 -0.434622,-0.39935 -0.461081,-0.70168 -0.0194,0.22543 -0.124177,0.4258 -0.281869,0.56974 h 0.152047 v 0.13194 z m 3.027892,-0.81809 -0.02434,-0.0677 c -0.03104,0.002 -0.06244,0.003 -0.09419,0.003 -0.28963,0 -0.555272,-0.10196 -0.763411,-0.27235 h -0.946855 c 0.05433,0.11395 0.08537,0.24201 0.08537,0.37712 0,0.24906 -0.104775,0.47449 -0.271992,0.63324 l 0.0088,0.0656 c 0.148872,-0.0332 0.306563,-0.0758 0.468136,-0.12488 l -0.05856,-0.16122 0.233891,-0.0847 0.06174,0.16968 c 0.126295,-0.0423 0.252942,-0.0878 0.378531,-0.13511 l -0.01446,-0.0392 0.155928,-0.0565 -0.06385,-0.17497 0.233539,-0.085 0.0642,0.17533 0.145698,-0.0533 c 0.148166,-0.0452 0.281516,-0.1083 0.401814,-0.16933 m -13.865931,-0.11466 -0.0194,0.054 c 0.144286,0.0688 0.331611,0.15451 0.539044,0.24553 l 0.05362,-0.14746 0.234245,0.0847 -0.05856,0.16086 c 0.17145,0.0727 0.350662,0.1457 0.526698,0.21343 l 0.04974,-0.13829 0.233186,0.0854 -0.05045,0.1404 c 0.130881,0.0473 0.256822,0.0896 0.373592,0.12559 -0.1905,-0.16016 -0.311503,-0.4004 -0.311503,-0.66922 0,-0.0857 0.01199,-0.16827 0.03457,-0.24659 l -0.634647,-0.25153 c -0.219428,0.2159 -0.520347,0.3489 -0.852311,0.3489 -0.03951,0 -0.07867,-0.002 -0.117828,-0.006 m 2.89172,0.90558 0.492125,0.0272 v -0.13194 h 0.248355 v 0.13194 h 0.201789 c -0.281869,-0.14499 -0.474839,-0.43921 -0.474839,-0.77788 0,-0.0727 0.0095,-0.14393 0.02575,-0.21131 h -0.09278 c 0.01729,0.0674 0.02611,0.13864 0.02611,0.21131 0,0.31927 -0.171097,0.59796 -0.426508,0.75071 m -3.808236,-3.06387 -0.09596,-0.11465 0.126647,-0.1069 0.08608,0.10231 c 0.05292,-0.0469 0.109008,-0.0896 0.168981,-0.12665 l 0.0074,-0.0335 -0.06914,-0.0822 -0.703439,0.50835 -0.124178,-0.1531 0.918986,-0.66287 v -0.33197 l 0.269875,0.18662 v -0.0825 h 2.209094 l 0.198614,-0.98178 h 0.951442 v -0.10371 h 0.124178 v -0.0825 h 0.766586 v -0.10407 h -0.65405 v -0.20708 H 51.63586 v -0.0935 h -0.733425 c -0.05327,0 -0.09596,-0.0427 -0.09596,-0.0956 v -0.0596 h -3.709811 v -0.29775 h 3.709811 v -0.0596 c 0,-0.0529 0.04269,-0.0959 0.09596,-0.0959 h 0.733425 v -0.0931 h 0.486127 l 0.05856,-0.35243 h 0.706262 v 0.12488 h 0.215194 l 0.103364,-0.18662 0.663575,-0.10371 0.691444,-0.0677 v -0.11853 h 0.124178 v -0.10372 h 0.642408 v 0.10372 h 0.124178 v 0.0307 l 0.103364,-0.01 h 0.422628 v -0.27764 h 0.0829 v -0.2279 h 0.09313 v -0.26916 h 0.103364 v -0.14535 h 2.017536 v 0.14535 h 0.104069 v 0.26916 h 0.09278 v 0.32068 l 1.937808,0.35313 v 1.4157 h -1.835503 l 0.105834,0.34678 v -0.0402 c 0,-0.0533 0.04304,-0.096 0.09595,-0.096 h 0.905934 c 0.05292,0 0.0956,0.0427 0.0956,0.096 v 0.22719 l 0.202142,0.008 v -0.13723 c 0,-0.0529 0.04339,-0.0959 0.0956,-0.0959 h 0.906639 c 0.05292,0 0.09595,0.043 0.09595,0.0959 v 0.1778 l 0.442736,0.0169 0.19685,0.0413 h 0.735542 v 0.10407 H 62.585 c 0,-0.0621 0.04304,-0.10478 0.09596,-0.10478 h 0.388055 c 0.05292,0 0.09596,0.0427 0.09596,0.096 v 0.0776 c 0,0.0529 -0.04304,0.0956 -0.09596,0.0956 h -0.07585 l 1.4224,0.29916 0.372886,0.35207 H 64.58104 v 0.39335 h 0.144991 v 0.65052 h -0.878769 c 0.01764,0.079 0.04727,0.15275 0.0702,0.2286 l 0.140053,-0.0564 0.06174,0.15381 -0.165453,0.0663 c 0.01411,0.0857 0.01834,0.17286 0.01482,0.26141 l 0.168275,0.0328 -0.0314,0.16227 -0.154516,-0.03 c -0.0127,0.0769 -0.03246,0.15416 -0.05891,0.23107 l 0.167922,0.0328 -0.0314,0.16263 -0.199672,-0.0385 c -0.02963,0.0631 -0.0635,0.12594 -0.102659,0.18839 l 0.135114,0.12559 -0.112889,0.12135 -0.117475,-0.10936 c -0.04657,0.0621 -0.09772,0.12241 -0.154516,0.18168 l 0.109008,0.1016 -0.112889,0.12136 -0.116769,-0.10937 c -0.05468,0.0437 -0.123473,0.091 -0.20567,0.14112 l 0.04621,0.12558 -0.155928,0.0568 -0.03528,-0.0977 c -0.06632,0.0367 -0.137584,0.0744 -0.213078,0.11254 l 0.02434,0.0663 -0.155575,0.0568 -0.01834,-0.0501 c -0.07902,0.0377 -0.160867,0.0755 -0.245886,0.11289 l 0.01058,0.0296 -0.155222,0.0561 c -0.08008,0.0106 -0.153811,0.0409 -0.228247,0.0702 l -0.151342,0.0684 c -0.08008,0.0208 -0.157692,0.0487 -0.23495,0.0762 l 0.01764,0.0497 -0.155575,0.0564 -0.01905,-0.0522 c -0.07549,0.0254 -0.152047,0.0494 -0.227189,0.0727 l 0.02293,0.0614 -0.155928,0.0564 -0.02575,-0.0713 c -0.0695,0.0194 -0.138289,0.0377 -0.205669,0.055 l 0.01834,0.13158 -0.164042,0.0233 -0.01658,-0.11713 c -0.08079,0.0176 -0.15875,0.0328 -0.233892,0.0448 l 0.01446,0.10512 -0.164042,0.0233 -0.01517,-0.10654 c -0.07444,0.008 -0.144286,0.012 -0.209197,0.012 h -0.03281 v 0.10548 h -0.166158 v -0.10548 h -0.237772 v 0.10548 h -0.165806 v -0.10548 h -0.269522 v 0.10548 h -0.165805 v -0.10548 h -0.238478 v 0.10548 h -0.165806 v -0.10548 h -0.269522 v 0.10548 H 58.24126 v -0.10548 h -0.237773 l -7.05e-4,0.10548 h -0.1651 v -0.10548 h -0.270228 v 0.10548 h -0.1651 v -0.10548 h -0.238478 v 0.10548 h -0.165805 v -0.10548 h -0.269523 v 0.10548 h -0.165805 v -0.10548 h -0.238478 v 0.10548 h -0.165453 v -0.10548 h -0.269875 v 0.10548 h -0.165452 v -0.10548 H 55.48536 v 0.10548 h -0.166159 v -0.10548 h -0.269169 v 0.10548 h -0.166159 v -0.10548 h -0.237772 v 0.10548 h -0.165805 v -0.10548 h -0.269875 v 0.10548 h -0.166159 v -0.10548 H 53.80649 v 0.10548 h -0.165805 v -0.10548 H 53.47101 v 0.10548 h -0.165806 v -0.10548 h -0.238478 v 0.10548 h -0.165453 v -0.10548 h -0.269875 v 0.10548 h -0.1651 v -0.10548 h -0.238477 v 0.10548 h -0.166159 v -0.10548 h -0.170744 v 0.10548 h -0.165453 v -0.10548 h -0.238478 v 0.10548 h -0.165805 v -0.10548 h -0.07197 c -0.02963,0 -0.0635,-0.002 -0.103364,-0.008 l -0.01905,0.0921 -0.161925,-0.0342 0.01835,-0.0878 c -0.0702,-0.0159 -0.147109,-0.036 -0.23107,-0.06 l -0.02081,0.0981 -0.161925,-0.0342 0.02364,-0.11148 -0.1651,-0.0533 -0.0321,0.0889 -0.155928,-0.0568 0.03175,-0.0857 -0.22472,-0.0815 -0.03104,0.0861 -0.154869,-0.0568 0.0314,-0.0879 -0.229659,-0.0903 -0.01905,0.0519 -0.155575,-0.0568 0.02117,-0.0579 -0.219428,-0.0935 -0.02575,0.0699 -0.155928,-0.0568 0.02963,-0.0801 c -0.08431,-0.0377 -0.167216,-0.0755 -0.245886,-0.11324 l -0.03669,0.10125 -0.155575,-0.0568 0.04269,-0.11677 c -0.0762,-0.0377 -0.147461,-0.0744 -0.213783,-0.11006 l -0.05292,0.14569 -0.155927,-0.0568 0.06244,-0.17145 c -0.0762,-0.0445 -0.140758,-0.0864 -0.1905,-0.12383 l -0.148166,0.13829 -0.112889,-0.12135 0.131586,-0.12277 c -0.06032,-0.054 -0.116064,-0.11113 -0.166864,-0.17039 l -0.127706,0.11888 -0.112889,-0.12135 0.140053,-0.13018 c -0.04022,-0.0593 -0.07549,-0.12065 -0.105128,-0.1845 l -0.202141,0.0395 -0.0314,-0.16263 0.171097,-0.0335 c -0.02399,-0.0748 -0.04163,-0.15205 -0.05186,-0.23284 l -0.164747,0.0321 -0.0321,-0.16263 0.186267,-0.036 c -7.05e-4,-0.0808 0.006,-0.16333 0.02081,-0.24835 l -0.189442,-0.0758 0.06244,-0.15381 0.164042,0.0663 c 0.02222,-0.0751 0.05045,-0.15028 0.08467,-0.2226 l -0.159808,-0.0646 0.06244,-0.15381 0.176741,0.0716 c 0.04163,-0.0681 0.0889,-0.13229 0.140759,-0.19226"
       id="G-PanzerIIILong-UA"
       style="stroke-width:0.352778" />
  </g>
</svg>
