<?xml version="1.0" encoding="UTF-8" standalone="no"?>
<!-- Created with Inkscape (http://www.inkscape.org/) -->

<svg
   width="19.809597mm"
   height="7.7335901mm"
   viewBox="0 0 19.809597 7.7335901"
   version="1.1"
   id="svg1"
   sodipodi:docname="inkporter-svg-bkw7v02n.svg"
   xmlns:inkscape="http://www.inkscape.org/namespaces/inkscape"
   xmlns:sodipodi="http://sodipodi.sourceforge.net/DTD/sodipodi-0.dtd"
   xmlns="http://www.w3.org/2000/svg"
   xmlns:svg="http://www.w3.org/2000/svg">
  <sodipodi:namedview
     id="namedview1"
     pagecolor="#ffffff"
     bordercolor="#666666"
     borderopacity="1.0"
     inkscape:showpageshadow="2"
     inkscape:pageopacity="0.0"
     inkscape:pagecheckerboard="0"
     inkscape:deskcolor="#d1d1d1"
     inkscape:document-units="mm"
     inkscape:zoom="0.72782688"
     inkscape:cx="396.38547"
     inkscape:cy="561.25984"
     inkscape:window-width="1920"
     inkscape:window-height="1017"
     inkscape:window-x="-8"
     inkscape:window-y="770"
     inkscape:window-maximized="1"
     inkscape:current-layer="layer1" />
  <defs
     id="defs1" />
  <g
     inkscape:label="Layer 1"
     inkscape:groupmode="layer"
     id="layer1"
     transform="translate(-44.979175,-147.10833)">
    <path
       id="G-PanzerIIILate"
       d="m 55.994517,147.10833 v 0.13643 h -0.09767 v 0.25373 h -0.08785 v 0.21446 h -0.07803 v 0.26097 h -0.397908 l -0.09715,0.01 v -0.0289 h -0.11679 v -0.0977 h -0.604612 v 0.0977 h -0.117306 v 0.11161 l -0.651125,0.0636 -0.28267,0.0439 -0.642338,0.007 -0.03565,0.10543 h -0.159163 l -0.05943,0.0749 h -0.813386 v 0.004 c -0.04552,0.0165 -0.08577,0.0987 -0.114723,0.21859 v 0.0388 h -0.341581 v 0.14211 h -0.948778 v 0.13591 l -5.369182,0.0703 v 0.27338 l 5.369182,0.0636 v 0.12815 h 0.948778 v 0.12248 h 0.37362 c 0.02445,0.064 0.05125,0.11384 0.08268,0.12505 v 0.003 h 0.228925 v 0.0362 l -0.05219,0.016 h -0.06511 v 0.0201 l -0.253732,0.0775 h -0.41651 l -0.0036,0.015 c -0.204611,-0.0402 -0.623601,-0.12196 -0.636654,-0.12196 -0.0081,0 -0.04319,0.22369 -0.077,0.45424 l -0.758095,0.23254 -0.0011,0.34468 H 48.70193 v 0.0775 l -0.254762,-0.1757 v 0.31264 l -0.865064,0.62426 0.117306,0.14417 0.480074,-0.34675 0.181899,-0.13177 0.06563,0.077 -0.0072,0.032 c -0.05644,0.0349 -0.109068,0.0748 -0.159163,0.11885 l -0.08113,-0.0961 -0.118858,0.10076 0.08992,0.10749 c -0.04833,0.0568 -0.09313,0.11718 -0.132291,0.18139 l -0.166917,-0.0672 -0.0584,0.14469 0.150379,0.061 c -0.0321,0.0677 -0.05877,0.13838 -0.07958,0.20929 l -0.154513,-0.0625 -0.05891,0.14521 0.178283,0.0708 c -0.01376,0.0801 -0.02,0.15841 -0.01965,0.23461 l -0.175183,0.0336 0.03048,0.15348 0.155028,-0.0305 c 0.0095,0.0762 0.026,0.14856 0.04858,0.21911 l -0.160715,0.0315 0.02893,0.15296 0.190687,-0.0367 c 0.02787,0.06 0.06112,0.11789 0.09922,0.17363 l -0.132291,0.12248 0.106969,0.1142 0.119373,-0.11214 c 0.04868,0.0557 0.100817,0.10991 0.157614,0.16071 l -0.124026,0.11576 0.106454,0.11369 0.139527,-0.12971 c 0.04692,0.0353 0.106998,0.0748 0.179317,0.11679 l -0.05891,0.16123 0.146759,0.0532 0.04961,-0.13695 c 0.06244,0.0332 0.129572,0.0681 0.201538,0.10336 l -0.04031,0.11059 0.146763,0.0532 0.03461,-0.0951 c 0.07444,0.0356 0.151783,0.0708 0.231511,0.10645 l -0.0279,0.0754 0.146762,0.0532 0.02427,-0.0656 0.206706,0.0879 -0.02014,0.0548 0.146762,0.0532 0.01757,-0.0486 0.216524,0.0847 -0.02946,0.0827 0.145725,0.0532 0.02946,-0.0806 0.211357,0.077 -0.02999,0.0806 0.14676,0.0532 0.02999,-0.0837 0.156065,0.0506 -0.02275,0.10491 0.152964,0.032 0.01965,-0.092 c 0.07902,0.0222 0.151426,0.0414 0.217043,0.0558 l -0.01704,0.0832 0.152961,0.032 0.01757,-0.0868 c 0.03739,0.005 0.0698,0.008 0.09767,0.008 h 0.06769 v 0.0992 h 0.156065 v -0.0992 h 0.22479 v 0.0992 h 0.155032 v -0.0992 h 0.16123 v 0.0992 h 0.15658 v -0.0992 h 0.224275 v 0.0992 h 0.156062 v -0.0992 h 0.253732 v 0.0992 h 0.155547 v -0.0992 h 0.22479 v 0.0992 h 0.156065 v -0.0992 h 0.160196 v 0.0992 h 0.156062 v -0.0992 h 0.22376 v 0.0992 h 0.156062 v -0.0992 h 0.25425 v 0.0992 h 0.156577 v -0.0992 h 0.22376 v 0.0992 h 0.156062 v -0.0992 h 0.25425 v 0.0992 h 0.156062 v -0.0992 h 0.224275 v 0.0992 h 0.155547 v -0.0992 h 0.254247 v 0.0992 h 0.156065 v -0.0992 h 0.224275 v 0.0992 h 0.156062 v -0.0992 h 0.253732 v 0.0992 h 0.15658 v -0.0992 h 0.224275 v 0.0992 h 0.155547 v -0.0992 h 0.254247 v 0.0992 h 0.156062 v -0.0992 h 0.224275 v 0.0992 H 58.0192 v -0.0992 h 0.253732 v 0.0992 h 0.156577 v -0.0992 h 0.224278 v 0.0992 h 0.156062 v -0.0992 h 0.253732 v 0.0992 h 0.156062 v -0.0992 h 0.224275 v 0.0992 h 0.156062 v -0.0992 h 0.03101 c 0.06103,0 0.127035,-0.004 0.196885,-0.0119 l 0.01446,0.10025 0.15451,-0.0217 -0.01344,-0.0987 c 0.07091,-0.0113 0.14394,-0.0258 0.22014,-0.0424 l 0.01549,0.11007 0.154513,-0.0217 -0.01704,-0.12402 c 0.0635,-0.0159 0.128358,-0.0337 0.193269,-0.0517 l 0.0248,0.0672 0.146244,-0.0532 -0.0212,-0.0579 c 0.07055,-0.0219 0.142681,-0.0447 0.213942,-0.0687 l 0.0181,0.0491 0.146759,-0.0532 -0.01704,-0.0465 c 0.07267,-0.0261 0.145683,-0.0521 0.221178,-0.0718 l 0.142624,-0.0646 c 0.06985,-0.0279 0.139482,-0.0559 0.214976,-0.0662 l 0.146244,-0.0527 -0.01034,-0.0279 c 0.08043,-0.0349 0.157074,-0.0705 0.23151,-0.10645 l 0.01757,0.0475 0.146244,-0.0532 -0.02275,-0.063 c 0.07126,-0.0356 0.138063,-0.0714 0.200505,-0.10594 l 0.03305,0.092 0.146763,-0.0532 -0.04341,-0.11834 c 0.07726,-0.0473 0.142282,-0.0919 0.193787,-0.13281 l 0.110071,0.10284 0.106454,-0.11369 -0.102838,-0.0961 c 0.05362,-0.0557 0.101469,-0.11249 0.145214,-0.17105 l 0.111103,0.10284 0.105936,-0.1142 -0.127123,-0.11834 c 0.03669,-0.0586 0.06876,-0.11764 0.09663,-0.17725 l 0.188105,0.0362 0.02946,-0.15296 -0.15761,-0.0305 c 0.02469,-0.0727 0.04313,-0.14611 0.05477,-0.21808 l 0.145729,0.0279 0.02999,-0.15245 -0.159166,-0.031 c 0.0039,-0.0833 -1.4e-5,-0.16519 -0.01344,-0.24598 l 0.156062,-0.063 -0.05891,-0.1447 -0.131258,0.0532 c -0.02117,-0.0716 -0.04957,-0.14089 -0.06615,-0.21497 h 0.391707 c 0.05362,0.39158 0.288138,0.44958 0.517796,0.44958 0.244475,0 0.505915,-0.15657 0.505915,-0.5979 v -0.55707 c 0.136525,-0.0646 0.230992,-0.20345 0.230992,-0.36431 v -3.6e-4 c 0,-0.12664 -0.05884,-0.23942 -0.14986,-0.31315 v -0.48163 h -0.04599 v -0.20722 h -0.460957 v 0.20722 h -0.03411 v 0.51263 c -0.07126,0.0727 -0.115242,0.17244 -0.115242,0.28215 0,0.0155 6.3e-5,0.0303 0.0036,0.0455 l -0.307993,-0.29094 -1.339451,-0.28112 h 0.07131 c 0.04974,0 0.08992,-0.0407 0.08992,-0.0904 v -0.0729 c 0,-0.0501 -0.04017,-0.091 -0.08992,-0.091 h -0.36587 c -0.0097,0 -0.01817,0.003 -0.02688,0.006 v -0.3514 h -2.714047 c -0.01316,-0.0337 -0.04549,-0.0579 -0.08371,-0.0579 h -0.853179 c -0.03822,0 -0.07057,0.0242 -0.08371,0.0579 h -0.02843 l -0.04702,-0.15451 1.809707,0.008 -0.112137,-1.46709 -0.12609,0.001 L 58.080086,147.8 v -0.30128 h -0.08785 v -0.25373 h -0.09767 v -0.13642 z m 7.838281,3.82716 h 0.158648 c 0.02399,0.11007 0.09358,0.20281 0.187067,0.2589 h -0.345715 z m 0.136426,0.62735 h 0.289906 v 0.20723 c 0,0.30021 -0.156235,0.30023 -0.20774,0.30023 -0.117828,0 -0.191075,-2.3e-4 -0.218592,-0.15192 h 0.136426 z m -15.648657,0.75965 c 0.09666,0 0.175701,0.0785 0.175701,0.17518 0,0.097 -0.07904,0.1757 -0.175701,0.1757 -0.09666,0 -0.175182,-0.0787 -0.175182,-0.1757 0,-0.0967 0.07852,-0.17518 0.175182,-0.17518 z m 0.235645,0.56844 c 0.04484,0 0.0898,0.0168 0.124022,0.0512 0.06879,0.0681 0.06879,0.17961 0,0.24804 -0.06844,0.0684 -0.179959,0.0684 -0.248045,0 -0.06914,-0.0684 -0.06914,-0.17996 0,-0.24804 0.03404,-0.0344 0.07918,-0.0512 0.124023,-0.0512 z m 0.963249,0.14934 0.242362,0.18759 c -0.06421,0.0275 -0.141058,0.0145 -0.193269,-0.0377 -0.04092,-0.0409 -0.05756,-0.0966 -0.04909,-0.14986 z m -0.395326,0.0853 c 0.09666,0 0.175182,0.0792 0.175182,0.17622 0,0.0967 -0.07852,0.17569 -0.175182,0.17569 -0.09666,0 -0.175701,-0.079 -0.175701,-0.17569 0,-0.097 0.07904,-0.17622 0.175701,-0.17622 z m 0.802534,0.18862 0.597898,0.23719 c -0.02152,0.0737 -0.03256,0.15124 -0.03256,0.23203 0,0.25294 0.113958,0.47982 0.293522,0.63045 -0.110067,-0.0339 -0.229147,-0.0744 -0.351914,-0.11885 l 0.04754,-0.13229 -0.22014,-0.0796 -0.04651,0.12971 c -0.165449,-0.0635 -0.334169,-0.13258 -0.496094,-0.20102 l 0.05529,-0.15141 -0.220659,-0.0796 -0.05013,0.13849 c -0.195435,-0.0854 -0.371806,-0.16608 -0.507979,-0.231 l 0.0181,-0.0506 c 0.03704,0.004 0.07371,0.005 0.111104,0.005 0.312561,0 0.595806,-0.12511 0.802534,-0.32866 z m 10.422103,0.11369 h 0.89142 c 0.196144,0.16051 0.446476,0.25683 0.71882,0.25683 0.02999,0 0.05909,-9e-5 0.08836,-0.004 l 0.02325,0.0636 c -0.113588,0.0579 -0.23857,0.11699 -0.37827,0.15967 l -0.136944,0.0501 -0.06098,-0.16537 -0.219625,0.0806 0.05995,0.16485 -0.146763,0.0532 0.01344,0.0367 c -0.117827,0.0448 -0.237165,0.0873 -0.356051,0.12712 l -0.0584,-0.15968 -0.22014,0.0796 0.05529,0.15193 c -0.152047,0.0459 -0.30075,0.0864 -0.440802,0.11782 l -0.0083,-0.062 c 0.157338,-0.14958 0.255795,-0.3614 0.255795,-0.59634 0,-0.12684 -0.02875,-0.24753 -0.0801,-0.35502 z m -8.235156,0.15709 h 0.08733 c -0.01552,0.0632 -0.02431,0.13 -0.02431,0.19844 0,0.31926 0.181712,0.59573 0.447001,0.73225 h -0.190168 v -0.1235 h -0.233578 v 0.1235 l -0.463536,-0.0253 c 0.240948,-0.14393 0.401525,-0.40636 0.401525,-0.70693 0,-0.0684 -0.0084,-0.13529 -0.02427,-0.19844 z m 1.68517,0 h 0.08733 c -0.01517,0.0632 -0.02427,0.13 -0.02427,0.19844 0,0.31926 0.181713,0.59573 0.447002,0.73225 h -0.388091 v -0.1235 h -0.234093 v 0.1235 h -0.310575 c 0.265642,-0.13652 0.447001,-0.41299 0.447001,-0.73225 0,-0.0684 -0.0081,-0.13529 -0.02427,-0.19844 z m 1.685166,0 h 0.08785 c -0.01588,0.0632 -0.02427,0.13 -0.02427,0.19844 0,0.31926 0.181006,0.59573 0.447001,0.73225 H 55.50154 v -0.1235 h -0.234096 v 0.1235 h -0.206188 c 0.265641,-0.13652 0.447001,-0.41299 0.447001,-0.73225 0,-0.0684 -0.0084,-0.13529 -0.02431,-0.19844 z m 3.280421,0 h 0.04238 c -0.01023,0.0409 -0.01746,0.0832 -0.0217,0.12661 -0.0035,-0.0434 -0.01044,-0.0857 -0.02067,-0.12661 z m 0.02067,0.27027 c 0.02505,0.28469 0.194193,0.52707 0.434079,0.66042 h -0.556038 v -0.1235 h -0.143143 c 0.148519,-0.13582 0.246757,-0.3249 0.265102,-0.53692 z m -1.616957,0.13332 c 0.05856,0.22966 0.214436,0.42092 0.421164,0.5271 h -0.506946 v -0.1235 H 56.92469 c 0.117123,-0.10654 0.202826,-0.24556 0.243396,-0.4036 z m -0.319878,0.46561 v 0.0615 H 56.74641 c 0.03563,-0.0183 0.06935,-0.0386 0.101801,-0.0615 z m 1.580783,0.009 v 0.0522 h -0.08785 c 0.03034,-0.0152 0.05998,-0.0328 0.08785,-0.0522 z"
       style="stroke-width:0.352778" />
  </g>
</svg>
