<?xml version="1.0" encoding="UTF-8" standalone="no"?>
<!-- Created with Inkscape (http://www.inkscape.org/) -->

<svg
   width="23.2166mm"
   height="7.9422402mm"
   viewBox="0 0 23.2166 7.9422404"
   version="1.1"
   id="svg33402"
   sodipodi:docname="inkporter-svg-71kf7czj.svg"
   inkscape:version="1.1.1 (3bf5ae0d25, 2021-09-20)"
   xmlns:inkscape="http://www.inkscape.org/namespaces/inkscape"
   xmlns:sodipodi="http://sodipodi.sourceforge.net/DTD/sodipodi-0.dtd"
   xmlns="http://www.w3.org/2000/svg"
   xmlns:svg="http://www.w3.org/2000/svg">
  <sodipodi:namedview
     id="namedview555"
     pagecolor="#ffffff"
     bordercolor="#666666"
     borderopacity="1.0"
     inkscape:pageshadow="2"
     inkscape:pageopacity="0.0"
     inkscape:pagecheckerboard="0"
     inkscape:document-units="mm"
     showgrid="false"
     inkscape:zoom="2.5097476"
     inkscape:cx="-1212.871"
     inkscape:cy="1547.3668"
     inkscape:window-width="1920"
     inkscape:window-height="1017"
     inkscape:window-x="-8"
     inkscape:window-y="-8"
     inkscape:window-maximized="1"
     inkscape:current-layer="svg33402" />
  <defs
     id="defs14119" />
  <path
     d="M 23.2166,4.90242 H 22.93014 L 23.13369,4.63889 V 4.11854 L 22.40768,2.9699 21.34617,2.9399 V 2.74764 h -2.70969 v 0.115 l -0.30515,-0.008 V 2.70683 H 17.50266 V 0.44552 h -0.0751 v 2.26131 h -0.22013 v 0.11571 l -1.93957,-0.055 V 2.62573 L 15.12745,2.42359 14.75069,2.12549 H 14.54325 L 13.76256,0.27023 H 13.58229 V 0.00776 H 13.4694 V 0.27023 H 12.07063 V 0.18313 H 11.43775 V 0.0519 H 11.25748 V 0.18313 H 10.89553 V 0.0519 h -0.18027 v 0.13123 h -0.11253 v 0.0871 H 10.0217 L 9.79557,0 9.58531,0.16475 9.67321,0.27023 H 9.5268 9.06819 L 8.96695,0.51153 H 8.6752 l -0.085,-0.1531 c 0,0 -0.44697,0.0871 -0.65052,0.23988 C 7.73542,0.75107 7.6003,0.88265 7.6003,0.88265 l -1.06045,0.043 c 0,0 -0.0229,0.0497 -0.0413,0.13124 L 0.94159,1.09249 C 0.93099,1.05259 0.89429,1.02299 0.85019,1.02299 L 0.61383,1.00749 0.41522,1.02299 0.25612,1.00919 H 0 v 0.5274 l 0.25612,-0.0138 0.1591,0.0159 0.19861,-0.0159 h 0.23636 c 0.0441,0 0.0808,-0.0296 0.0914,-0.0695 l 5.55061,0.0356 c 0.0116,0.072 0.0243,0.1143 0.0243,0.1143 L 7.71312,1.7122 8.16503,1.99618 8.32272,1.84519 8.39752,1.86459 8.28781,2.12529 H 7.36635 L 6.96912,2.54474 V 2.80827 L 4.53954,3.57133 3.59833,4.41623 4.27073,5.12496 H 4.11021 C 4.08441,5.05436 4.01491,5.0036 3.93277,5.0036 H 3.54083 c -0.10407,0 -0.18838,0.0815 -0.18838,0.2025 0,0.10054 0.0843,0.18203 0.18838,0.18203 h 0.39194 c 0.0822,0 0.15169,-0.0505 0.17744,-0.12135 h 0.29493 l 0.78281,0.82479 c -0.004,0.0459 -0.006,0.0921 -0.006,0.13864 0,0.94545 0.79163,1.71203 1.76882,1.71203 0.90558,0 1.65171,-0.65793 1.75684,-1.50671 h 0.91863 c 0.10513,0.84878 0.85161,1.50671 1.75648,1.50671 0.90488,0 1.65171,-0.65793 1.75683,-1.50671 h 1.33068 c 0.10513,0.84878 0.85125,1.50671 1.75683,1.50671 0.90559,0 1.65136,-0.65793 1.75613,-1.50671 h 0.89817 c 0.10478,0.84878 0.85161,1.50671 1.75684,1.50671 0.97649,0 1.76918,-0.76658 1.76918,-1.71203 0,-0.18838 -0.0317,-0.369 -0.0889,-0.53763 L 22.69524,5.20574 H 23.2163 Z M 0.41516,1.37675 c -0.0494,0.006 -0.10266,0.01 -0.1591,0.0117 V 1.15738 c 0.0564,0.003 0.10971,0.006 0.1591,0.0113 z M 0.73548,1.27304 c 0,0.0265 -0.0455,0.0508 -0.12171,0.0709 V 1.20212 c 0.0762,0.0194 0.12171,0.0441 0.12171,0.0709"
     id="G-Puma" />
</svg>
