<?xml version="1.0" encoding="UTF-8" standalone="no"?>
<!-- Created with Inkscape (http://www.inkscape.org/) -->

<svg
   width="15.57094mm"
   height="5.0092402mm"
   viewBox="0 0 15.57094 5.0092402"
   version="1.1"
   id="svg7426"
   sodipodi:docname="inkporter-svg-58n8kf48.svg"
   xmlns:inkscape="http://www.inkscape.org/namespaces/inkscape"
   xmlns:sodipodi="http://sodipodi.sourceforge.net/DTD/sodipodi-0.dtd"
   xmlns="http://www.w3.org/2000/svg"
   xmlns:svg="http://www.w3.org/2000/svg">
  <sodipodi:namedview
     id="namedview7428"
     pagecolor="#ffffff"
     bordercolor="#666666"
     borderopacity="1.0"
     inkscape:pageshadow="2"
     inkscape:pageopacity="0.0"
     inkscape:pagecheckerboard="0"
     inkscape:document-units="mm"
     showgrid="false"
     inkscape:zoom="0.64052329"
     inkscape:cx="984.35141"
     inkscape:cy="289.60696"
     inkscape:window-width="1920"
     inkscape:window-height="1017"
     inkscape:window-x="-8"
     inkscape:window-y="-8"
     inkscape:window-maximized="1"
     inkscape:current-layer="layer1" />
  <defs
     id="defs7423">
    <clipPath
       clipPathUnits="userSpaceOnUse"
       id="clipPath180456-5-6">
      <path
         d="M 0,0 H 595.276 V 841.89 H 0 Z"
         id="path180454-2-9" />
    </clipPath>
  </defs>
  <g
     inkscape:label="Layer 1"
     inkscape:groupmode="layer"
     id="layer1"
     transform="translate(-359.60596,-92.606919)">
    <g
       id="G-Recoilless"
       transform="matrix(0.35277777,0,0,-0.35277777,152.29097,396.62784)">
      <path
         id="path858"
         style="fill:#000000;stroke-width:0.0526836;stroke-linejoin:round;paint-order:markers fill stroke;stop-color:#000000"
         d="m 795.36523,-25.185547 -1.46875,3.664063 -8.48632,-1.353516 0.043,-0.326172 -0.91601,-0.11914 -0.0391,0.300781 -0.66993,-0.107422 -0.27539,1.728515 0.71875,0.115235 -0.11914,0.919922 0.28125,0.03711 -0.24609,0.390625 5.80273,3.65625 c -0.61881,0.801067 -0.95469,1.784635 -0.95507,2.796875 -8e-5,2.527693 2.04847,4.5771251 4.57617,4.5781251 1.91618,-6.533e-4 3.62921,-1.1946411 4.29297,-2.9921871 l 12.67382,3.007812 -0.11132,-1.207031 -12.30078,-2.947266 c 0.0149,-0.146026 0.0226,-0.29268 0.0234,-0.439453 1.2e-4,-0.80512 -0.2121,-1.596049 -0.61523,-2.292969 v -1.765625 -1.224609 -0.398437 l 0.22851,0.03711 h -0.0215 l 0.0449,0.08594 h 0.21094 l 0.0469,0.06445 -0.0918,0.677734 5.45117,0.746094 0.44336,-3.242188 -5.45117,-0.746094 v 0.002 l -0.002,0.01172 -0.11328,0.710938 -2.30078,-0.367188 1.29297,-3.220703 z m -10.18164,4.046875 8.04493,1.283203 -0.78321,1.949219 c -0.63898,0.168173 -1.23398,0.472671 -1.74414,0.892578 l -0.93555,-0.58789 0.49219,-0.777344 -3.80078,-2.410156 -0.5,0.787109 -0.84961,-0.537109 z"
         transform="matrix(0.75000002,0,0,-0.75000002,0,841.89002)"
         sodipodi:nodetypes="ccccccccccccccccccccccccccccccccccccccccccccccccc" />
      <path
         style="fill:#000000;stroke-width:0.030941"
         d="m 626.41365,847.61378 c 0.2351,0.0607 0.34414,0.32319 0.34414,0.83082 0,0.24007 0.0129,0.32455 0.0797,0.49111 0.0733,0.18171 0.0765,0.21371 0.0431,0.3302 -0.07,0.24309 -0.069,0.34032 0.0108,0.54766 0.0668,0.18466 0.0711,0.243 0.0657,0.75491 -0.0108,0.36574 0.0108,0.5687 0.0269,0.59557 0.0431,0.0523 0.5913,0.0554 0.84041,0 0.15235,-0.0303 0.20116,-0.0272 0.38411,0.0293 0.11529,0.0356 0.29684,0.0721 0.4034,0.0805 0.10666,0.0108 0.24899,0.0449 0.31666,0.0795 0.16743,0.0857 0.7666,0.34043 0.7999,0.34043 0.0539,0 0.30352,0.24509 0.39122,0.38372 0.0496,0.0784 0.1002,0.14231 0.11206,0.14231 0.0129,0 0.17228,-0.19845 0.35566,-0.44091 0.31376,-0.41479 0.37431,-0.48568 0.41579,-0.48693 0.0108,-2.1e-4 0.1002,0.069 0.20116,0.15348 0.10128,0.0847 0.24684,0.18769 0.32334,0.22899 0.0765,0.0407 0.17369,0.11198 0.21582,0.15715 0.0722,0.0764 0.0733,0.0878 0.0302,0.16436 -0.0248,0.0449 -0.1086,0.12976 -0.18489,0.18779 -0.13371,0.10139 -0.89256,0.83761 -1.34993,1.30886 -0.12143,0.12526 -0.2503,0.28627 -0.28596,0.3577 -0.0679,0.13676 -0.0927,0.1583 -0.39025,0.34921 -0.10667,0.069 -0.21603,0.16949 -0.2574,0.23766 -0.24362,0.40255 -0.3449,0.58909 -0.34544,0.63519 -5.3e-4,0.0649 -0.1155,0.14869 -0.20374,0.14869 -0.0733,0 -0.12574,0.0523 -0.22422,0.22532 -0.0625,0.11073 -0.69011,0.97741 -0.85873,1.18705 -0.0463,0.0574 -0.10235,0.19584 -0.13683,0.34044 -0.0323,0.13352 -0.0797,0.30185 -0.10559,0.37399 -0.0517,0.14431 -0.29469,0.48641 -0.53366,0.75073 -0.0851,0.0941 -0.18748,0.21884 -0.22842,0.27844 -0.0959,0.1398 -0.14234,0.17378 -0.29523,0.21685 -0.0927,0.0262 -0.1406,0.0628 -0.18198,0.13969 -0.0302,0.0574 -0.0894,0.1353 -0.12951,0.17326 -0.1002,0.0941 -0.0927,0.13164 0.0366,0.17837 0.128,0.046 0.23919,0.20379 0.20988,0.29736 -0.0108,0.0345 -0.0722,0.17337 -0.13629,0.30949 -0.10452,0.22104 -0.11885,0.28232 -0.13609,0.57236 -0.0291,0.49237 -0.0862,0.65965 -0.29996,0.87463 -0.12466,0.12546 -0.25331,0.21475 -0.43443,0.30134 -0.31106,0.14878 -0.49131,0.18548 -0.91012,0.18548 -0.55672,0 -0.78169,-0.13059 -1.0462,-0.60769 -0.20116,-0.36272 -0.28359,-0.46738 -0.42495,-0.53953 -0.28251,-0.14407 -0.27475,-0.44875 0.014,-0.52571 0.0722,-0.0189 0.21786,-0.0721 0.32463,-0.11689 0.1753,-0.0742 0.19244,-0.0889 0.17617,-0.15653 -0.0108,-0.0407 -0.0593,-0.13384 -0.10915,-0.20671 -0.13565,-0.19699 -0.11389,-0.34849 0.0582,-0.40861 0.0819,-0.0282 0.0905,-0.046 0.1099,-0.23662 0.0118,-0.11313 0.014,-0.21716 0.0108,-0.23118 -0.0108,-0.0136 -0.0733,-0.0345 -0.14309,-0.046 -0.17842,-0.0282 -0.35189,-0.12412 -0.44358,-0.24435 -0.0647,-0.0847 -0.57536,-1.1056 -0.57536,-1.15024 0,-0.0108 -0.0474,-0.11565 -0.10559,-0.23966 -0.0571,-0.12399 -0.14912,-0.33145 -0.20224,-0.46099 -0.0528,-0.12955 -0.17013,-0.35989 -0.25999,-0.51192 -0.0894,-0.15202 -0.17282,-0.30112 -0.18435,-0.33133 -0.0118,-0.0303 0.0108,-0.15528 0.0366,-0.27781 0.0323,-0.12266 0.0679,-0.34787 0.0797,-0.50063 0.0129,-0.15276 0.0409,-0.37181 0.0647,-0.48673 0.0345,-0.16728 0.10559,-0.88538 0.10559,-1.0692 0,-0.022 0.0679,-0.11282 0.15052,-0.20107 0.083,-0.0878 0.15774,-0.19542 0.16657,-0.23796 0.0226,-0.10864 0.1627,-0.55291 0.21118,-0.67044 0.0334,-0.0805 0.0334,-0.11982 -8.6e-4,-0.22533 -0.042,-0.12671 -0.0409,-0.12787 0.0603,-0.21297 l 0.10236,-0.0858 -0.15612,-0.29244 c -0.0862,-0.16081 -0.19308,-0.4107 -0.23791,-0.55531 -0.0453,-0.14471 -0.10979,-0.31619 -0.14427,-0.38111 -0.0366,-0.07 -0.0733,-0.2222 -0.0894,-0.37349 -0.014,-0.14052 -0.0517,-0.33793 -0.083,-0.43883 -0.0431,-0.14147 -0.0571,-0.28627 -0.0571,-0.63216 -2.2e-4,-0.50825 0.0366,-0.6836 0.16032,-0.76474 0.11335,-0.0742 0.46535,-0.12985 0.82953,-0.1311 0.45296,0 0.50931,0.0209 0.81886,0.33437 0.14546,0.14721 0.35491,0.32089 0.46546,0.38613 0.11055,0.0649 0.29048,0.18005 0.40017,0.25522 0.2198,0.15088 0.24436,0.15695 0.3701,0.092 0.0797,-0.0418 0.0884,-0.0617 0.10451,-0.27561 0.0205,-0.27656 0.0571,-0.35153 0.19276,-0.40863 l 0.10343,-0.0429 -0.0183,-0.29317 c -0.028,-0.46267 0.0194,-0.49749 0.70314,-0.52552 0.21269,-0.0108 0.43368,0 0.49121,0.0108 z m -1.81335,3.21035 c 0.21345,0.27352 0.38541,0.46141 0.40437,0.44239 0.0108,-0.0108 0.0237,-0.0502 0.0345,-0.0931 0.0162,-0.0669 -0.0108,-0.0941 -0.15989,-0.20682 -0.0981,-0.071 -0.2267,-0.17911 -0.28531,-0.23976 -0.17164,-0.17753 -0.16819,-0.12713 0.0108,0.0972 z m 3.19206,3.96556 c -0.0345,0.20055 -0.0474,0.22271 -0.17078,0.27196 -0.10128,0.0407 -0.12121,0.0628 -0.12121,0.13614 0,0.12201 0.0442,0.13687 0.13576,0.0449 0.0431,-0.0429 0.0894,-0.0784 0.10343,-0.0784 0.042,0 0.13178,-0.17378 0.13178,-0.25524 0,-0.0418 0.028,-0.10031 0.0625,-0.13152 0.0916,-0.0825 0.0787,-0.13091 -0.0302,-0.11491 -0.0786,0.0115 -0.0948,0.0303 -0.11098,0.12609 z"
         id="path42229-4-9"
         sodipodi:nodetypes="csssssssssssssscsssssssssssssssssssssssssssssssscssscssssssssscssssscssssscsssssssscsscsssssssssssssss" />
      <path
         id="path42018-0-8-8-4"
         style="fill:#000000;stroke-width:0.0262677"
         sodipodi:type="inkscape:offset"
         inkscape:radius="-0.1"
         inkscape:original="M 555.24219 747.5918 C 555.19166 747.5918 555.00737 747.63841 554.83398 747.69531 C 554.66059 747.75224 554.42028 747.82417 554.30078 747.85547 C 554.18128 747.88693 554.03376 747.94708 553.97266 747.98828 C 553.91157 748.02965 553.77881 748.09366 553.67773 748.13086 C 553.32567 748.26045 553.13052 748.45695 553.02734 748.78516 C 552.97924 748.94035 552.97066 749.02677 552.97266 749.3125 C 552.97586 749.63716 552.98036 749.6639 553.06836 749.88867 C 553.12842 750.04211 553.17543 750.22838 553.20312 750.41797 C 553.25132 750.74906 553.29665 750.91868 553.40234 751.16406 C 553.44274 751.25796 553.48419 751.37092 553.49219 751.41602 C 553.50842 751.49252 553.5044 751.50056 553.4082 751.53906 C 553.35147 751.56166 553.29511 751.59935 553.28711 751.62305 C 553.2794 751.64675 553.28106 751.74776 553.28906 751.84766 L 553.30469 752.03125 L 553.18359 752.03125 C 553.11672 752.03125 552.87086 752.01253 552.63672 751.99023 C 552.30934 751.95903 552.16955 751.95516 552.03125 751.97656 C 551.85756 752.00336 551.7636 751.98783 551.7207 751.92383 C 551.7137 751.91303 551.71942 751.68619 551.73242 751.41992 C 551.75342 750.98683 551.74942 750.89415 551.69922 750.54102 L 551.64258 750.14648 L 551.70117 749.99219 C 551.77837 749.78222 551.78624 749.27913 551.71484 749.14844 C 551.65343 749.03604 551.4955 748.95885 551.28711 748.93945 C 551.13218 748.92505 551.10358 748.93087 550.94336 749.00977 C 550.77376 749.09327 550.76532 749.09398 550.69922 749.05078 C 550.323 748.80478 549.46516 748.65602 549.14062 748.78125 C 548.9715 748.84646 548.9375 748.9039 548.9375 749.11914 C 548.9375 749.27898 548.94538 749.30452 549.01758 749.38672 C 549.08289 749.46108 549.1309 749.48688 549.2832 749.52148 C 549.50826 749.57267 549.6194 749.61647 549.73242 749.70117 C 549.77937 749.73635 549.90887 749.80888 550.02148 749.86328 C 550.13409 749.91765 550.24914 749.99144 550.27734 750.02734 C 550.34594 750.11458 550.34408 750.24663 550.26758 750.46875 C 550.20868 750.63984 550.20431 750.6969 550.19141 751.42578 C 550.17991 752.07455 550.16841 752.22474 550.12891 752.3457 C 550.09671 752.44463 550.08257 752.57208 550.08203 752.75195 C 550.08143 752.98692 550.08835 753.03187 550.15625 753.17969 C 550.26172 753.40925 550.45023 753.57827 550.70703 753.67188 C 550.81506 753.71122 550.92974 753.76943 550.96094 753.80273 C 551.05246 753.90015 551.15932 754.31798 551.27539 755.02148 C 551.30479 755.20016 551.34613 755.38263 551.36523 755.42773 C 551.39419 755.49622 551.56733 755.73845 551.78125 756.00977 C 551.80638 756.04165 551.96358 756.33235 552.13086 756.6543 C 552.29816 756.97623 552.4772 757.30602 552.5293 757.38672 C 552.75208 757.73244 552.80766 757.84635 552.80859 757.96875 C 552.81027 758.13689 552.70708 758.25994 552.50391 758.33594 C 552.35326 758.39227 552.2207 758.51069 552.2207 758.58789 C 552.2207 758.65073 552.28931 758.7613 552.37891 758.8457 C 552.47491 758.93629 552.54672 759.06886 552.57422 759.20117 C 552.60649 759.35672 552.74253 759.61385 552.83203 759.68945 C 552.96561 759.8024 553.265 759.93032 553.50781 759.97852 C 554.10414 760.09697 554.71262 759.87942 554.91406 759.47656 C 554.98956 759.32387 554.99322 759.30848 554.99414 758.93945 C 554.99606 758.516 555.0094 758.46664 555.17383 758.30859 C 555.23683 758.24805 555.26758 758.19428 555.26758 758.14648 C 555.26758 758.05263 555.15717 757.92567 555.04492 757.88867 L 554.95703 757.85938 L 555.04883 757.67578 L 555.14258 757.49414 L 555.33789 757.49414 C 555.5594 757.49414 555.69161 757.44852 555.75391 757.35352 C 555.77727 757.31785 555.85418 757.1544 555.92578 756.99023 C 555.99729 756.82602 556.06808 756.66998 556.08398 756.64258 C 556.15678 756.51759 556.23952 756.24323 556.29102 755.95508 C 556.38818 755.41107 556.422 755.29394 556.5 755.21484 C 556.53946 755.17472 556.71866 754.99904 556.89844 754.82422 C 557.17175 754.55839 557.24713 754.49924 557.36328 754.46094 C 557.51185 754.412 557.54634 754.37481 557.61914 754.17773 C 557.66344 754.06102 557.66355 754.04515 557.62305 753.93945 C 557.59931 753.8773 557.52132 753.75717 557.44922 753.67188 C 557.29922 753.49449 557.29199 753.44773 557.37109 753.20312 C 557.5906 752.5238 557.61347 752.4393 557.67188 752.10938 C 557.74595 751.69172 557.70859 751.50554 557.51953 751.36133 C 557.41219 751.27923 557.35058 751.27651 557.22656 751.34961 C 557.14054 751.40021 557.11984 751.40355 557.02734 751.37305 C 556.90143 751.33145 556.60563 751.35201 556.46094 751.41211 C 556.40483 751.43548 556.31542 751.48438 556.26172 751.52148 C 556.208 751.55868 556.14505 751.58222 556.12305 751.57422 C 556.08875 751.56109 556.09642 751.52713 556.16602 751.3418 C 556.33237 750.89904 556.32254 750.94361 556.27734 750.79102 C 556.23654 750.65363 556.23587 750.65307 556.29688 750.60547 C 556.69475 750.29568 556.76823 750.16151 556.70312 749.84961 C 556.66341 749.65913 556.60132 749.52126 556.46094 749.30859 L 556.37305 749.17383 L 556.37305 748.66016 C 556.37305 748.20978 556.36657 748.14175 556.32617 748.09375 C 556.30089 748.06367 556.06669 747.93765 555.80664 747.81445 C 555.49374 747.66613 555.30309 747.59182 555.24219 747.5918 z M 552.58594 754.04102 C 552.59545 754.03512 552.64923 754.04836 552.70703 754.06836 C 552.76479 754.08846 552.85791 754.10526 552.91211 754.10547 C 553.02361 754.10592 553.02546 754.1114 552.97266 754.29883 C 552.95186 754.37233 552.91758 754.56061 552.89648 754.7168 C 552.84774 755.07856 552.81598 755.12083 552.77148 754.88281 C 552.75876 754.81519 552.7101 754.71468 552.6582 754.64648 C 552.55559 754.51206 552.52448 754.3746 552.55078 754.18359 C 552.56068 754.11159 552.57794 754.04702 552.58594 754.04102 z "
         transform="matrix(1.1291057,0,0,1.1291057,-9.606747,3.6068252)"
         d="m 555.24219,747.69141 c 0.005,0 -0.0614,0.009 -0.13281,0.0273 -0.0714,0.0181 -0.15974,0.0446 -0.24415,0.0723 -0.17568,0.0577 -0.41502,0.12962 -0.53906,0.1621 -0.10874,0.0286 -0.26023,0.0925 -0.29687,0.11719 -0.0771,0.0522 -0.20707,0.11406 -0.31641,0.1543 -0.33255,0.12241 -0.49406,0.28515 -0.58984,0.58984 -0.0458,0.1478 -0.0527,0.2153 -0.0508,0.4961 0.003,0.32379 0.002,0.31767 0.0898,0.54101 0.0636,0.16253 0.11195,0.3564 0.14062,0.55274 0.0476,0.32706 0.0882,0.48116 0.19141,0.7207 0.0421,0.0978 0.0823,0.19812 0.0957,0.27344 0.004,0.0189 0.009,0.0373 0.01,0.0605 8.2e-4,0.0248 -0.004,0.0596 -0.0234,0.0879 -0.038,0.0565 -0.081,0.066 -0.13086,0.0859 -0.0212,0.008 -0.0437,0.021 -0.0586,0.0312 -0.0149,0.0102 -0.0175,0.0306 -0.004,-0.01 0.005,-0.0149 6.1e-4,-0.005 0,0.006 -6.1e-4,0.0109 -2.1e-4,0.0261 0,0.0449 4.2e-4,0.0377 0.002,0.0869 0.006,0.13476 l 0.0156,0.1836 a 0.10001,0.10001 0 0 1 -0.0996,0.10742 h -0.1211 c -0.0855,0 -0.32118,-0.0186 -0.55664,-0.041 -0.32548,-0.031 -0.45364,-0.0332 -0.58007,-0.0137 -0.0924,0.0143 -0.16793,0.0174 -0.23633,0.006 -0.0684,-0.0115 -0.13566,-0.0446 -0.17383,-0.10156 a 0.10001,0.10001 0 0 1 0,-0.002 c -1.1e-4,-1.7e-4 -0.01,-0.0193 -0.01,-0.0195 -10e-5,-2.7e-4 -0.003,-0.009 -0.004,-0.0117 -0.002,-0.006 -0.001,-0.0102 -0.002,-0.0137 -0.001,-0.007 -0.002,-0.0121 -0.002,-0.0176 -6.9e-4,-0.011 -0.002,-0.0226 -0.002,-0.0371 -2.7e-4,-0.029 8.5e-4,-0.067 0.002,-0.11329 0.002,-0.0926 0.007,-0.2158 0.0137,-0.3496 0.0209,-0.43179 0.0168,-0.50988 -0.0332,-0.86133 l -0.0566,-0.39453 a 0.10001,0.10001 0 0 1 0.006,-0.0488 l 0.0586,-0.1543 c 0.0301,-0.0817 0.0541,-0.2569 0.0566,-0.41797 0.001,-0.0805 -0.002,-0.15787 -0.01,-0.2207 -0.007,-0.0628 -0.0228,-0.11279 -0.0274,-0.12109 -0.0361,-0.066 -0.16095,-0.14064 -0.34961,-0.15821 -0.15132,-0.0141 -0.13132,-0.0171 -0.28906,0.0606 -0.0853,0.042 -0.13009,0.0664 -0.18945,0.0762 -0.0297,0.005 -0.0649,0.002 -0.0918,-0.008 -0.0269,-0.01 -0.0451,-0.0218 -0.0625,-0.0332 -0.1667,-0.10901 -0.46922,-0.20914 -0.76172,-0.25977 -0.29249,-0.0506 -0.58477,-0.0472 -0.70703,0 -0.0775,0.0299 -0.10212,0.0485 -0.11523,0.0703 -0.0131,0.0219 -0.0234,0.0715 -0.0234,0.17383 0,0.0783 0.005,0.11721 0.01,0.13477 0.005,0.0176 0.011,0.0278 0.0449,0.0664 0.0568,0.0647 0.0666,0.0703 0.21289,0.10352 0.23014,0.0524 0.36332,0.10362 0.48828,0.19726 0.0291,0.0218 0.16318,0.10003 0.27148,0.15235 0.0602,0.0291 0.11974,0.0616 0.16993,0.0937 0.0502,0.0322 0.0867,0.0539 0.12109,0.0976 0.0497,0.0632 0.0741,0.14616 0.0723,0.23438 -0.002,0.0882 -0.0263,0.18614 -0.0664,0.30273 -0.0286,0.083 -0.0392,0.12326 -0.0488,0.24414 -0.01,0.12088 -0.015,0.31736 -0.0215,0.68164 -0.0115,0.64968 -0.0211,0.81049 -0.0664,0.94922 -0.027,0.0831 -0.0424,0.20023 -0.043,0.375 -5.9e-4,0.23298 6.4e-4,0.24355 0.0664,0.38672 0.0944,0.20541 0.25893,0.35372 0.49414,0.43945 0.0582,0.0212 0.11569,0.0465 0.16601,0.0723 0.0503,0.0258 0.0875,0.0439 0.125,0.084 0.0813,0.0865 0.11796,0.21634 0.17188,0.42578 0.0539,0.20943 0.1116,0.49222 0.16992,0.8457 0.0144,0.0873 0.0309,0.17651 0.0469,0.24805 0.0159,0.0715 0.0344,0.13295 0.0352,0.13476 0.003,0.007 0.0565,0.094 0.12891,0.19531 0.0724,0.1013 0.16731,0.22869 0.27344,0.36329 0.0206,0.0262 0.0293,0.0443 0.0508,0.082 0.0214,0.0377 0.0482,0.0877 0.0801,0.14648 0.0638,0.11763 0.14465,0.27022 0.22852,0.43164 0.16672,0.32082 0.35314,0.6605 0.39453,0.72461 0.11205,0.17388 0.1828,0.29171 0.22852,0.38672 0.0457,0.095 0.0658,0.1739 0.0664,0.25 6e-4,0.10405 -0.0326,0.20307 -0.0976,0.28125 -0.0655,0.0787 -0.15852,0.13743 -0.27149,0.17969 -0.0628,0.0235 -0.12439,0.0625 -0.16601,0.0996 -0.0416,0.0371 -0.0527,0.0772 -0.0527,0.0586 0,-0.005 0.008,0.0308 0.0312,0.0684 0.0231,0.0375 0.0575,0.0812 0.0957,0.11719 0.11331,0.10693 0.19276,0.25496 0.22461,0.4082 0.0127,0.0611 0.0517,0.15907 0.0977,0.24609 0.046,0.087 0.10582,0.1677 0.12695,0.18555 0.10576,0.0894 0.4058,0.2229 0.63086,0.26758 0.56063,0.11136 1.12502,-0.10553 1.29688,-0.44922 0.0374,-0.0757 0.05,-0.10166 0.0586,-0.1582 0.009,-0.0565 0.0113,-0.1498 0.0117,-0.33399 9.7e-4,-0.21275 0.003,-0.33562 0.0332,-0.4414 0.03,-0.10578 0.0928,-0.18003 0.17774,-0.26172 0.0534,-0.0513 0.0625,-0.0849 0.0625,-0.0898 0,-0.008 -0.0138,-0.048 -0.0449,-0.084 -0.0312,-0.036 -0.0763,-0.0672 -0.10938,-0.0781 l -0.0879,-0.0293 a 0.10001,0.10001 0 0 1 -0.0586,-0.14063 l 0.0918,-0.18359 a 0.10001,0.10001 0 0 1 0.002,0 l 0.0937,-0.18164 a 0.10001,0.10001 0 0 1 0.0879,-0.0547 h 0.19531 c 0.20778,0 0.29726,-0.0427 0.33203,-0.0957 8.9e-4,-0.001 0.03,-0.0564 0.0605,-0.1211 0.0306,-0.0647 0.0681,-0.14535 0.10351,-0.22656 0.0359,-0.0826 0.0726,-0.16294 0.10157,-0.22656 0.0289,-0.0636 0.0455,-0.10356 0.0625,-0.13281 0.0573,-0.0985 0.14514,-0.37359 0.19531,-0.6543 0.0487,-0.27276 0.0807,-0.43972 0.11328,-0.55469 0.0326,-0.11496 0.0718,-0.1863 0.12305,-0.23828 0.0438,-0.0445 0.21891,-0.218 0.39843,-0.39258 0.1373,-0.13353 0.22695,-0.21569 0.30079,-0.27343 0.0738,-0.0577 0.13662,-0.0914 0.20312,-0.11329 0.0693,-0.0228 0.0931,-0.0344 0.11328,-0.0566 0.0202,-0.0223 0.0448,-0.0704 0.0801,-0.16601 0.0216,-0.057 0.0272,-0.0803 0.0273,-0.0898 1.6e-4,-0.01 -0.004,-0.0269 -0.0234,-0.0781 -0.013,-0.0341 -0.0911,-0.16119 -0.15625,-0.23828 -0.0773,-0.0914 -0.13283,-0.16354 -0.14844,-0.25781 -0.0156,-0.0943 0.0104,-0.18172 0.0508,-0.30664 0.21939,-0.67895 0.24069,-0.75169 0.29883,-1.08008 0.0361,-0.20347 0.0408,-0.34408 0.0215,-0.43946 -0.0194,-0.0954 -0.0562,-0.14949 -0.13672,-0.21093 -0.0468,-0.0358 -0.0689,-0.0443 -0.084,-0.0449 -0.0151,-6.1e-4 -0.0424,0.006 -0.0977,0.0391 -0.0452,0.0266 -0.0849,0.0484 -0.13672,0.0547 -0.0518,0.006 -0.0951,-0.005 -0.14453,-0.0215 -0.0361,-0.0119 -0.13821,-0.0206 -0.23828,-0.0137 -0.10006,0.007 -0.20403,0.0265 -0.25781,0.0488 -0.0452,0.0188 -0.13684,0.0686 -0.18164,0.0996 -0.0338,0.0234 -0.0674,0.0417 -0.10156,0.0547 -0.0171,0.006 -0.0339,0.0124 -0.0527,0.0156 -0.0189,0.003 -0.0395,0.007 -0.0742,-0.006 a 0.10001,0.10001 0 0 1 -0.002,0 c -0.0232,-0.009 -0.0622,-0.0374 -0.0762,-0.0742 -0.014,-0.0368 -0.009,-0.0648 -0.004,-0.0898 0.01,-0.0502 0.0294,-0.10385 0.0645,-0.19727 0.0833,-0.22181 0.12199,-0.3249 0.13085,-0.36914 0.004,-0.0221 0.005,-0.0255 0.002,-0.0391 -0.003,-0.0135 -0.0115,-0.0378 -0.0234,-0.0781 -0.0204,-0.0686 -0.0376,-0.10362 -0.0312,-0.16601 0.003,-0.0312 0.0196,-0.0662 0.0371,-0.0859 0.0175,-0.0198 0.0334,-0.029 0.0488,-0.041 0.19577,-0.15243 0.30242,-0.25816 0.34961,-0.3457 0.0472,-0.0875 0.05,-0.16672 0.0195,-0.3125 -0.0374,-0.17953 -0.0916,-0.29846 -0.22852,-0.50586 l -0.0879,-0.13476 a 0.10001,0.10001 0 0 1 -0.0156,-0.0547 v -0.51367 c 0,-0.22471 -0.002,-0.3542 -0.008,-0.42578 -0.006,-0.0698 -0.009,-0.0667 -0.0156,-0.0742 -0.006,-0.005 -0.0177,-0.0113 -0.0312,-0.0195 -0.0271,-0.0165 -0.0652,-0.0397 -0.11133,-0.0644 -0.0922,-0.0496 -0.21515,-0.11095 -0.34375,-0.17187 -0.15519,-0.0736 -0.2802,-0.12832 -0.37109,-0.16407 -0.0909,-0.0357 -0.16058,-0.0488 -0.15039,-0.0488 z m -2.65821,6.24804 c 0.0109,-7.1e-4 0.0201,0.001 0.0273,0.002 0.0144,0.001 0.0255,0.003 0.0391,0.006 0.027,0.006 0.0583,0.0164 0.0898,0.0273 0.0426,0.0148 0.1379,0.0311 0.17188,0.0312 0.0287,1.2e-4 0.0526,-0.002 0.0859,0.006 0.0334,0.008 0.0875,0.045 0.10156,0.0898 0.0141,0.0449 0.007,0.0747 0,0.10742 -0.007,0.0327 -0.018,0.0701 -0.0312,0.11719 -0.0165,0.0581 -0.0517,0.25178 -0.0723,0.4043 -0.0123,0.0916 -0.0238,0.16348 -0.0351,0.21875 -0.0114,0.0553 -0.0116,0.0852 -0.0488,0.13476 -0.005,0.006 -0.009,0.0145 -0.0176,0.0215 -0.004,0.004 -0.0101,0.006 -0.0156,0.01 -0.006,0.003 -0.017,0.01 -0.0176,0.01 -0.001,4.6e-4 -0.0476,0.006 -0.0488,0.006 -6.1e-4,-6e-5 -0.0248,-0.006 -0.0254,-0.006 -6.1e-4,-2e-4 -0.0138,-0.005 -0.0195,-0.008 -0.046,-0.0262 -0.0483,-0.0504 -0.0566,-0.0703 -0.0167,-0.0398 -0.0255,-0.0843 -0.0371,-0.14649 -0.007,-0.0398 -0.0542,-0.13887 -0.0957,-0.19336 -0.11664,-0.15281 -0.15559,-0.32912 -0.12695,-0.53711 0.005,-0.0398 0.0138,-0.0772 0.0215,-0.10742 0.004,-0.0151 0.007,-0.0281 0.0117,-0.041 0.002,-0.006 0.006,-0.0133 0.01,-0.0215 0.002,-0.004 0.004,-0.008 0.008,-0.0137 0.002,-0.003 0.008,-0.0114 0.008,-0.0117 2.6e-4,-3e-4 0.0154,-0.0135 0.0156,-0.0137 a 0.10001,0.10001 0 0 1 0.008,-0.006 c 3e-4,-1.9e-4 0.0172,-0.008 0.0176,-0.008 3.8e-4,-1.5e-4 0.01,-0.003 0.0137,-0.004 0.008,-0.002 0.0141,-0.004 0.0195,-0.004 z" />
      <path
         id="path46620-3-6"
         style="fill:#000000;stroke-width:0.0365289"
         d="m 604.67108,861.79099 c -0.10218,-10e-5 -0.15702,-0.009 -0.20187,-0.0273 -0.13596,-0.0563 -0.44311,-0.3763 -0.44311,-0.46191 0,-0.0815 -0.22917,-0.49417 -0.40717,-0.73395 -0.0776,-0.10465 -0.14029,-0.2071 -0.14029,-0.22754 0,-0.0205 0.0439,-0.0617 0.0993,-0.0906 0.0553,-0.0288 0.14929,-0.10348 0.20872,-0.16594 0.0672,-0.0707 0.1598,-0.12185 0.24294,-0.13516 l 0.13344,-0.0206 0.0188,-0.22412 c 0.0105,-0.12342 0.0605,-0.35594 0.11119,-0.51667 0.0508,-0.16072 0.10102,-0.33782 0.11294,-0.39178 0.0154,-0.0699 0.0594,-0.11071 0.15054,-0.14371 0.0703,-0.0255 0.1266,-0.0612 0.1266,-0.0787 0,-0.0175 -0.13535,-0.17069 -0.3011,-0.34045 -0.32413,-0.33198 -0.48337,-0.60258 -0.5218,-0.88792 -0.0374,-0.27699 -0.0869,-0.39118 -0.28913,-0.66893 -0.10652,-0.14637 -0.23878,-0.35656 -0.29426,-0.46707 l -0.51154,-0.25319 c -0.0892,-0.004 -0.17448,-0.0105 -0.25833,-0.0206 h -0.21728 l -0.4123,0.14884 -0.40719,0.0257 -0.26517,0.12489 -0.21899,-1.12572 1.03848,-0.1249 0.1437,-0.17278 0.0599,-0.0188 0.13687,-0.47391 c 0.0488,-0.22036 0.0975,-0.33681 0.19331,-0.47047 0.11154,-0.15576 0.46305,-0.86588 0.49786,-1.00426 0.0164,-0.065 -4e-5,-0.11001 -0.0633,-0.16937 l -0.39692,-0.53379 c 0.0321,-0.0386 -0.0194,-0.12494 -0.24123,-0.3969 h -9.3e-4 c -0.15595,-0.19118 -0.32453,-0.40185 -0.37638,-0.46877 l -0.21899,-0.32504 -0.19333,-0.14543 -0.48758,-0.49101 -0.0924,-0.16595 c -0.0503,-0.0914 -0.11982,-0.29423 -0.15568,-0.44994 0,0 6.3e-4,-0.21421 9.3e-4,-0.50641 0.0138,-0.0432 0.13717,-0.19018 0.27372,-0.32676 0.33975,-0.33971 0.46629,-0.37873 1.2951,-0.37981 0.60094,-8.7e-4 0.67065,0.009 0.85884,0.12318 0.1468,0.0892 0.30413,0.13518 0.4089,0.11976 l 0.11456,-0.017 -0.12488,-0.10266 c -0.0686,-0.057 -0.13809,-0.10395 -0.15398,-0.10441 -0.016,-5.5e-4 -0.0242,-0.11131 -0.017,-0.24637 0.0149,-0.33659 0.0412,-0.34969 0.68605,-0.32505 0.6249,0.0239 0.99359,0.0952 1.33272,0.25833 0.14763,0.071 0.29158,0.12956 0.31822,0.13003 0.0268,3.5e-4 0.0872,0.0315 0.13514,0.0685 0.0786,0.0605 0.0847,0.0855 0.065,0.26347 -0.012,0.10838 -0.0366,0.27723 -0.0548,0.37639 -0.0271,0.14793 -0.0257,0.16955 0.0119,0.11804 0.0251,-0.0346 0.0621,-0.06 0.0804,-0.053 0.0595,0.0187 0.25082,-0.16945 0.32335,-0.31823 0.1078,-0.22091 0.26839,-0.28531 0.63643,-0.25319 0.2717,0.0237 0.29571,0.0334 0.3165,0.11633 0.0339,0.13466 -0.0105,0.42101 -0.10943,0.71511 -0.0487,0.1445 -0.0989,0.37981 -0.11118,0.52353 l -0.0222,0.26175 0.11294,0.0394 0.11457,0.0394 -0.0137,0.32505 c -0.0116,0.28499 -0.0243,0.34117 -0.11293,0.46535 l -0.10092,0.14199 0.12319,0.0206 c 0.0689,0.0116 0.20143,0.089 0.30281,0.1745 0.0996,0.0839 0.2176,0.15228 0.26175,0.15228 0.13393,0 0.39918,0.14563 0.53036,0.29083 0,0 0.11411,0.26633 0.13344,0.31137 0,0.0723 0.0174,0.0924 0.0872,0.0924 0.1691,0 0.2053,0.0337 0.2053,0.20359 0,0.0938 0.0155,0.16081 0.0394,0.16081 -0.0771,-0.30431 0.13057,-0.34548 0.16424,-0.43454 0.11802,-0.14003 0.20039,-0.14074 0.49614,-0.007 0.39239,0.17805 0.5064,0.3561 0.5064,0.79725 0,0.20099 0.0105,0.2342 0.089,0.2857 0.11912,0.078 0.15623,0.25426 0.0736,0.34559 -0.0475,0.0525 -0.0553,0.10325 -0.036,0.20872 0.0139,0.0763 0.0284,0.21937 0.0342,0.31993 0.006,0.10045 0.0216,0.26048 0.036,0.35414 0.0325,0.21516 -0.0589,0.51416 -0.18818,0.61589 -0.112,0.0883 -0.15396,0.0893 -0.31993,0.0105 -0.11857,-0.0572 -0.13368,-0.0577 -0.18647,-0.005 -0.0493,0.0493 -0.0526,0.0774 -0.0137,0.18478 0.0581,0.1607 0.0227,0.35996 -0.089,0.49272 -0.0997,0.11842 -0.33531,0.19271 -0.6159,0.19331 -0.29382,8.5e-4 -0.29323,-8.8e-4 -0.24464,0.44994 0.0311,0.28682 0.0326,0.48685 0.004,0.75619 -0.022,0.20132 -0.0411,0.44108 -0.0411,0.53207 0,0.33656 -0.25108,0.77433 -0.5372,0.93582 -0.10651,0.0602 -0.22581,0.15029 -0.26517,0.20016 -0.0876,0.11142 -0.34001,0.17795 -1.06241,0.284 -0.11096,0.0164 -0.14448,0.044 -0.21386,0.18306 -0.0449,0.0901 -0.10476,0.16423 -0.13344,0.16423 -0.0339,0 -0.0513,0.0399 -0.0513,0.11293 0,0.095 0.0127,0.10968 0.0821,0.10266 0.15728,-0.0172 0.53552,0.0479 0.57826,0.0993 0.0335,0.0403 0.027,0.0986 -0.0308,0.26176 -0.0407,0.11526 -0.085,0.3247 -0.0975,0.46534 -0.0439,0.49582 -0.0556,0.55478 -0.13858,0.69973 -0.25131,0.43895 -0.45047,0.52159 -1.42341,0.59878 -0.23001,0.0184 -0.37857,0.0276 -0.48073,0.0273 z M 606.5872,851.201 c 0.0421,0.009 0.0667,3.9e-4 0.0667,-0.0257 0,-0.0163 -0.0808,-0.0567 -0.18134,-0.089 -0.10043,-0.0321 -0.18306,-0.0532 -0.18306,-0.0462 0,0.006 0.0585,0.0451 0.13003,0.0873 0.0668,0.0394 0.12553,0.0652 0.16766,0.0736 z m -0.41402,-0.2224 c 0.004,-0.005 -0.0117,-0.016 -0.0427,-0.0376 -0.0376,-0.0258 -0.13122,-0.097 -0.20701,-0.15911 -0.0967,-0.0791 -0.18114,-0.1134 -0.2823,-0.11804 -0.13356,-0.006 -0.14642,0.003 -0.18134,0.11631 l -0.0376,0.12318 0.29769,0.0257 c 0.16314,0.0139 0.33654,0.0335 0.38664,0.0428 0.0421,0.008 0.0636,0.0105 0.0667,0.007 z" />
    </g>
  </g>
</svg>
