<?xml version="1.0" encoding="UTF-8" standalone="no"?>
<!-- Created with Inkscape (http://www.inkscape.org/) -->

<svg
   width="16.65093mm"
   height="6.9740992mm"
   viewBox="0 0 16.65093 6.9740992"
   version="1.1"
   id="svg5"
   sodipodi:docname="inkporter-svg-urobi3ui.svg"
   xmlns:inkscape="http://www.inkscape.org/namespaces/inkscape"
   xmlns:sodipodi="http://sodipodi.sourceforge.net/DTD/sodipodi-0.dtd"
   xmlns="http://www.w3.org/2000/svg"
   xmlns:svg="http://www.w3.org/2000/svg">
  <sodipodi:namedview
     id="namedview7"
     pagecolor="#ffffff"
     bordercolor="#666666"
     borderopacity="1.0"
     inkscape:pageshadow="2"
     inkscape:pageopacity="0.0"
     inkscape:pagecheckerboard="0"
     inkscape:document-units="mm"
     showgrid="false"
     inkscape:object-paths="true"
     inkscape:snap-smooth-nodes="true"
     inkscape:zoom="0.080065411"
     inkscape:cx="-149.87745"
     inkscape:cy="443.38747"
     inkscape:window-width="1920"
     inkscape:window-height="1017"
     inkscape:window-x="-8"
     inkscape:window-y="-8"
     inkscape:window-maximized="1"
     inkscape:current-layer="layer1" />
  <defs
     id="defs2" />
  <g
     inkscape:label="Layer 1"
     inkscape:groupmode="layer"
     id="layer1"
     transform="translate(48.712101,215.99289)">
    <path
       d="m -44.88523,-209.02266 c 0.22696,-0.017 0.47688,-0.0944 0.68174,-0.21092 0.3384,-0.19263 0.60169,-0.52105 0.70899,-0.88431 0.0181,-0.0611 0.0369,-0.12494 0.0419,-0.14209 l 0.009,-0.0311 2.76112,-0.002 2.76116,-0.002 0.0224,0.0849 c 0.0289,0.11014 0.11988,0.30182 0.19856,0.41907 0.12144,0.18098 0.33472,0.36509 0.5461,0.4714 0.37353,0.18783 0.87309,0.20378 1.30615,0.0417 0.42768,-0.16006 0.78325,-0.54699 0.89492,-0.97389 0.0155,-0.0595 0.0292,-0.10992 0.0305,-0.11182 0,-0.002 0.0515,-0.009 0.11187,-0.016 0.0603,-0.007 0.21527,-0.0247 0.34447,-0.0395 0.35686,-0.0409 0.76395,-0.11954 0.94022,-0.1815 0.30807,-0.10827 0.47389,-0.35198 0.50881,-0.74785 l 0.009,-0.1011 0.11915,-3e-4 c 0.17819,-3.1e-4 0.26296,-0.0495 0.28838,-0.16687 0.006,-0.0277 0.0199,-0.0472 0.039,-0.0546 0.0834,-0.0316 0.11055,-0.14362 0.0536,-0.22065 l -0.0316,-0.0428 0.0459,-0.10651 c 0.0763,-0.17683 0.0743,-0.16162 0.0233,-0.17839 -0.0246,-0.008 -0.0477,-0.0195 -0.0513,-0.0252 -0.006,-0.008 0.0395,-0.1449 0.12807,-0.38841 0.011,-0.0302 0.0196,-0.0654 0.019,-0.0783 0,-0.0129 0.0351,-0.1286 0.079,-0.25721 0.044,-0.12862 0.0801,-0.23576 0.0801,-0.23813 0,-0.002 0.0136,-0.006 0.0305,-0.006 0.0405,0 0.0645,-0.0299 0.0981,-0.12119 0.0346,-0.0938 0.0346,-0.10695 0,-0.14135 -0.0255,-0.0254 -0.0262,-0.0319 -0.011,-0.0784 0.0194,-0.058 0.0181,-0.0605 -0.0357,-0.0712 -0.0358,-0.008 -0.0411,-0.004 -0.0546,0.0346 -0.008,0.0234 -0.0172,0.0401 -0.0202,0.037 -0.003,-0.003 -0.0296,-0.11698 -0.0589,-0.25329 -0.0293,-0.13631 -0.0636,-0.28827 -0.076,-0.33765 l -0.0228,-0.0899 -0.15004,-0.0565 c -0.0826,-0.0311 -0.15613,-0.0567 -0.16359,-0.057 -0.0137,-5e-4 -0.0776,0.15185 -0.15075,0.36004 -0.0224,0.0637 -0.0469,0.12338 -0.0546,0.13269 -0.008,0.009 -0.0346,0.0157 -0.0606,0.014 -0.0932,-0.006 -0.13014,0.002 -0.17114,0.0366 -0.0394,0.0332 -0.0412,0.0388 -0.0356,0.10761 0.004,0.04 0.008,0.0808 0.0112,0.0907 0.006,0.0201 -0.0806,0.0374 -0.5298,0.10629 -0.14352,0.0219 -0.31373,0.0482 -0.37822,0.0581 -0.0644,0.01 -0.11903,0.0162 -0.12125,0.014 -0.003,-0.002 -0.008,-0.0748 -0.0119,-0.1612 -0.009,-0.18081 0,-0.17178 -0.15083,-0.17208 l -0.0881,-1.9e-4 v 0.0857 c 0,0.0792 -0.003,0.0851 -0.0255,0.0775 -0.014,-0.006 -0.0595,-9.5e-4 -0.1011,0.008 -0.0416,0.008 -0.0872,0.0158 -0.10155,0.016 -0.0143,2.4e-4 -0.14942,-0.0391 -0.30014,-0.0875 -0.15069,-0.0485 -0.30275,-0.096 -0.33792,-0.10596 -0.0352,-0.01 -0.0688,-0.0228 -0.0748,-0.0288 -0.0135,-0.0136 0.0111,-0.10794 0.0283,-0.10794 0.007,0 0.0124,-0.0367 0.0124,-0.0815 0,-0.1418 0.01,-0.17563 0.0547,-0.1845 0.056,-0.0112 0.10839,-0.0528 0.1337,-0.10618 l 0.022,-0.0465 0.1981,0.002 c 0.19576,0.002 0.19814,0.002 0.20247,-0.0272 0.003,-0.016 0,-0.049 -0.004,-0.0732 l -0.008,-0.044 h -0.14948 c -0.14102,0 -0.1898,-0.0132 -0.11684,-0.0314 0.0181,-0.006 0.0326,-0.0125 0.0326,-0.0178 0,-0.0182 -0.093,-0.0835 -0.18055,-0.12681 -0.0818,-0.0405 -0.0883,-0.0468 -0.0895,-0.0871 -0.003,-0.0997 -0.004,-0.1022 -0.0301,-0.1022 -0.0205,0 -0.0261,0.008 -0.0261,0.04 0,0.0359 -0.004,0.0396 -0.036,0.0359 -0.0301,-0.004 -0.0353,-0.01 -0.0323,-0.0385 0.003,-0.0219 -0.004,-0.0373 -0.0174,-0.0425 -0.0358,-0.0137 -0.0448,0.004 -0.0448,0.0892 v 0.0826 l -0.0663,0.0217 c -0.0734,0.024 -0.19439,0.0979 -0.19378,0.11832 0,0.008 0.0324,0.0334 0.0716,0.0581 0.0644,0.0407 0.071,0.0495 0.071,0.0915 0,0.0256 0.0121,0.0691 0.0271,0.0969 l 0.0271,0.0504 -0.0289,0.0798 c -0.0379,0.10475 -0.0595,0.13855 -0.0892,0.13855 -0.0196,0 -0.0262,-0.0138 -0.0336,-0.0738 -0.0123,-0.10077 -0.0646,-0.25579 -0.11816,-0.35172 -0.0663,-0.11895 -0.13399,-0.17454 -0.27687,-0.22748 l -0.0425,-0.0158 v -0.10408 c 0,-0.0939 0.003,-0.10475 0.0267,-0.11103 0.0183,-0.006 0.0255,-0.0158 0.0228,-0.0346 -0.003,-0.0222 -0.0152,-0.0289 -0.0616,-0.0343 l -0.0578,-0.007 0.003,-0.18267 c 0,-0.10044 0.006,-0.33093 0.011,-0.51215 l 0.008,-0.32948 h -0.0539 -0.0539 v 0.33601 c 0,0.31552 -0.008,0.53779 -0.0205,0.5502 -0.003,0.003 -0.006,-0.11004 -0.006,-0.25118 0,-0.14114 -0.006,-0.25662 -0.0115,-0.25662 -0.0119,0 -0.008,0.69704 0.006,0.84394 0.004,0.0443 0.003,0.0837 -0.004,0.0874 -0.007,0.004 -0.008,0.0256 -0.006,0.0484 0.006,0.0289 0.003,0.0388 -0.008,0.0324 -0.008,-0.006 -0.015,-0.003 -0.015,0.006 0,0.008 0.008,0.0138 0.0162,0.0138 0.0119,0 0.0168,0.0326 0.0177,0.11639 0,0.10375 0,0.1171 -0.0233,0.12284 -0.0215,0.006 -0.024,0.0158 -0.0181,0.0826 0.01,0.11571 0.0178,0.22733 0.0404,0.60298 0.0212,0.34616 0.0196,0.36804 -0.0233,0.37436 -0.009,9.5e-4 -0.0634,0.0124 -0.12084,0.0245 -0.0573,0.0121 -0.11665,0.0246 -0.13168,0.0277 -0.0265,0.006 -0.0374,-0.0152 -0.0639,-0.11854 -0.004,-0.0144 -0.0708,-0.011 -0.68507,0.0335 -0.54052,0.0392 -1.00666,0.0754 -1.17434,0.091 -0.28319,0.0265 -0.52777,0.0359 -0.53805,0.0205 -0.006,-0.008 -0.01,-0.0795 -0.01,-0.15923 0,-0.0797 -0.004,-0.17284 -0.008,-0.20689 -0.008,-0.0611 -0.009,-0.0617 -0.0499,-0.0551 -0.0228,0.004 -0.0477,0.003 -0.0553,-0.002 -0.008,-0.006 -0.0233,-0.0909 -0.0352,-0.19129 -0.0662,-0.5654 -0.0854,-0.73528 -0.0887,-0.77639 l -0.004,-0.0456 -0.0781,0.004 c -0.0429,0.002 -0.0794,0.006 -0.0811,0.008 -0.003,0.002 0.003,0.0233 0.008,0.0481 0.007,0.0247 0.0212,0.13896 0.0327,0.25378 0.0199,0.19833 0.0527,0.51335 0.0652,0.62634 0.0251,0.22779 0.0251,0.21425 -0.004,0.20679 -0.0613,-0.016 -0.13588,0.0743 -0.18616,0.2255 -0.0152,0.0455 -0.0315,0.0852 -0.0365,0.0883 -0.0181,0.0111 -0.76976,0.0332 -1.38604,0.0406 l -0.63367,0.008 -0.0236,-0.044 c -0.023,-0.043 -0.023,-0.0513 0.0116,-0.34977 0.0193,-0.16815 0.0433,-0.39673 0.0533,-0.50798 0.0165,-0.18565 0.0165,-0.20359 -0.004,-0.21863 -0.0186,-0.0141 -0.0208,-0.0424 -0.0178,-0.20859 0.003,-0.10574 0.007,-0.19632 0.009,-0.20136 0.007,-0.011 0.009,-0.95027 0.003,-0.95686 -0.003,-0.003 -0.022,-0.007 -0.0435,-0.008 l -0.039,-0.004 -0.01,0.19573 c -0.008,0.16611 -0.015,0.50579 -0.0217,1.06018 0,0.10287 -0.006,0.12071 -0.023,0.12071 -0.0194,0 -0.0206,0.0142 -0.0131,0.12721 0.006,0.07 0.0119,0.28282 0.0158,0.47301 l 0.008,0.34577 -0.0283,-0.0325 c -0.0156,-0.018 -0.10684,-0.16123 -0.20276,-0.31841 -0.0959,-0.15719 -0.18738,-0.29958 -0.20323,-0.31644 -0.0522,-0.0556 -0.11555,-0.0292 -0.11555,0.048 0,0.0154 0.0696,0.13769 0.15461,0.27161 0.14986,0.23594 0.18465,0.2937 0.18465,0.30667 0,0.004 -0.0265,0.0228 -0.0587,0.0433 -0.0323,0.0204 -0.0588,0.0459 -0.0589,0.0567 0,0.0197 -0.12644,0.0975 -0.2058,0.12668 -0.058,0.0214 -0.6333,0.0249 -0.68789,0.004 -0.0215,-0.008 -0.0773,-0.052 -0.12396,-0.0976 -0.0466,-0.0454 -0.1085,-0.0974 -0.13759,-0.11522 -0.0326,-0.0201 -0.0615,-0.0518 -0.0756,-0.083 l -0.0228,-0.0504 0.0506,-0.11678 c 0.028,-0.0643 0.0589,-0.12151 0.069,-0.12724 0.0334,-0.0191 0.0965,-0.0407 0.11144,-0.0384 0.014,0.002 0.0366,-0.0358 0.0271,-0.0454 -0.003,-0.003 -0.0289,0.006 -0.0592,0.017 -0.0302,0.0118 -0.058,0.0182 -0.0619,0.0142 -0.004,-0.004 0.0599,-0.20016 0.14199,-0.43589 0.082,-0.23574 0.15668,-0.45209 0.16571,-0.4808 0.009,-0.0287 0.0224,-0.0597 0.0296,-0.0688 0.0165,-0.0206 0.0134,-0.0233 -0.04,-0.0334 -0.0371,-0.007 -0.0413,-0.006 -0.0309,0.0134 0.008,0.0148 0.006,0.0343 -0.01,0.0617 -0.0121,0.0221 -0.0441,0.0931 -0.0712,0.15759 -0.0271,0.0646 -0.057,0.13506 -0.0667,0.15659 -0.01,0.0215 -0.0417,0.0949 -0.0711,0.1631 -0.0296,0.0681 -0.059,0.1357 -0.0654,0.15006 -0.007,0.0143 -0.0363,0.0818 -0.0661,0.15005 -0.0943,0.21457 -0.1198,0.26097 -0.14382,0.26097 -0.0131,0 -0.0258,-0.0134 -0.0305,-0.0322 -0.0134,-0.0529 -0.0534,-0.0644 -0.24919,-0.0718 l -0.18266,-0.007 -0.004,-0.0431 c -0.003,-0.0258 -0.0131,-0.0464 -0.0262,-0.0513 -0.0121,-0.006 -0.0249,-0.0115 -0.0283,-0.0157 -0.0255,-0.0294 -0.16961,-0.0523 -0.16961,-0.027 0,0.008 -0.0134,0.0131 -0.0301,0.0131 -0.0165,0 -0.0356,0.006 -0.0423,0.012 -0.007,0.007 -0.0271,0.0139 -0.0451,0.0163 -0.0325,0.006 -0.0325,0.006 -0.0363,0.1682 l -0.004,0.16383 0.11635,0.0299 c 0.0761,0.0196 0.13059,0.0269 0.1575,0.0209 0.0487,-0.011 0.0793,0.009 0.0793,0.052 0,0.0162 -0.01,0.0375 -0.0215,0.0473 -0.0119,0.01 -0.0295,0.0369 -0.0394,0.0603 -0.0147,0.0351 -0.0253,0.0426 -0.06,0.0434 -0.0233,5.5e-4 -0.051,0.003 -0.0617,0.006 -0.011,0.002 -0.0606,0.008 -0.11087,0.0128 -0.0502,0.006 -0.23307,0.0293 -0.40628,0.0539 -0.17319,0.0247 -0.32146,0.045 -0.32948,0.045 -0.009,0 -0.0147,-0.0315 -0.0147,-0.0866 0,-0.0609 -0.006,-0.091 -0.0194,-0.1011 -0.0158,-0.012 -0.0171,-0.0353 -0.008,-0.13845 0.007,-0.0681 0.0155,-0.26048 0.0205,-0.42733 l 0.009,-0.30338 h -0.0452 -0.0452 l -0.008,0.11945 c -0.006,0.0657 -0.009,0.20807 -0.009,0.31641 0,0.24558 -0.0165,0.42895 -0.0363,0.43557 -0.008,0.003 -0.015,0.0247 -0.015,0.0488 0,0.0241 -0.006,0.0474 -0.0131,0.0518 -0.008,0.006 -0.0131,0.0335 -0.0131,0.0646 0,0.0628 0,0.0634 -0.12532,0.0796 -0.0624,0.008 -0.0671,0.007 -0.0747,-0.0221 -0.006,-0.02 0,-0.0358 0.0112,-0.0453 0.0202,-0.015 0.0271,-0.0902 0.009,-0.10122 -0.006,-0.004 -0.098,0.011 -0.2055,0.0314 -0.24229,0.0469 -0.24093,0.0469 -0.24093,0.007 0,-0.0781 -0.0619,-0.13879 -0.15871,-0.15599 -0.0274,-0.006 -0.18994,0.008 -0.37841,0.0302 -0.18183,0.0214 -0.4652,0.0544 -0.62971,0.0733 l -0.29908,0.0346 -0.12499,-0.049 c -0.0688,-0.027 -0.22072,-0.0887 -0.3377,-0.13714 l -0.21276,-0.0882 -0.0128,0.0339 c -0.008,0.0185 -0.011,0.0402 -0.008,0.048 0.003,0.008 0.10154,0.0517 0.21909,0.0979 0.24169,0.0948 0.26417,0.10485 0.25502,0.11401 -0.007,0.007 -0.11808,0.0206 -0.60897,0.0759 -0.37509,0.0421 -0.36123,0.0404 -0.43248,0.0588 -0.0375,0.01 -0.0766,0.0323 -0.10276,0.0593 -0.0374,0.0386 -0.0429,0.0538 -0.0481,0.13256 -0.003,0.0488 0,0.1735 0.006,0.2768 l 0.0115,0.18781 0.0417,0.0373 c 0.0365,0.0325 0.0519,0.0371 0.12393,0.0371 0.0452,0 0.11704,-0.007 0.15961,-0.0143 0.12963,-0.024 0.46799,-0.0757 0.47164,-0.0722 0.003,0.002 -0.022,0.0214 -0.0535,0.0434 -0.0385,0.0271 -0.0668,0.0617 -0.0879,0.10761 l -0.0311,0.0676 -0.16964,-0.008 c -0.36635,-0.0165 -0.41395,-0.0218 -0.42081,-0.0482 -0.008,-0.031 -0.10893,-0.0345 -0.13376,-0.006 -0.009,0.011 -0.0302,0.0196 -0.047,0.0196 -0.0523,0 -0.0627,0.10585 -0.0116,0.11554 0.0143,0.003 0.0302,0.0116 0.0353,0.0197 0.007,0.01 0.0784,0.015 0.22182,0.0157 0.11686,6.3e-4 0.28764,0.006 0.37948,0.0116 0.16425,0.011 0.16727,0.0113 0.18546,0.0464 0.01,0.0197 0.0797,0.11721 0.15448,0.21676 0.0747,0.0996 0.13341,0.1854 0.13021,0.1908 -0.009,0.015 -0.40692,0.0117 -0.43573,-0.004 -0.0315,-0.017 -0.0331,-0.0727 -0.003,-0.0891 0.0125,-0.007 0.0576,-0.0126 0.10001,-0.0131 0.0835,-9.4e-4 0.10452,-0.0113 0.0914,-0.0453 -0.011,-0.0284 -0.0509,-0.0377 -0.17063,-0.0396 -0.0947,-0.002 -0.099,-2.4e-4 -0.13596,0.041 -0.0789,0.0882 -0.0341,0.22824 0.0923,0.28785 0.0375,0.0176 0.0945,0.0218 0.31857,0.0232 0.22301,9.5e-4 0.27548,0.006 0.28707,0.0207 0.008,0.011 0.0327,0.0421 0.0557,0.0702 0.0228,0.0281 0.0868,0.11283 0.14245,0.18818 0.29792,0.40393 0.28013,0.38423 0.52676,0.58311 l 0.2318,0.1869 0.009,0.11411 c 0.0236,0.29286 0.11095,0.54303 0.258,0.73918 0.30696,0.40944 0.78509,0.62068 1.31522,0.58106 z"
       id="G-Schwimmwagen" />
  </g>
</svg>
