<?xml version="1.0" encoding="UTF-8" standalone="no"?>
<!-- Created with Inkscape (http://www.inkscape.org/) -->

<svg
   width="19.838104mm"
   height="6.7614093mm"
   viewBox="0 0 19.838104 6.7614093"
   version="1.1"
   id="svg1854"
   sodipodi:docname="inkporter-svg-dewpmrui.svg"
   xmlns:inkscape="http://www.inkscape.org/namespaces/inkscape"
   xmlns:sodipodi="http://sodipodi.sourceforge.net/DTD/sodipodi-0.dtd"
   xmlns="http://www.w3.org/2000/svg"
   xmlns:svg="http://www.w3.org/2000/svg">
  <sodipodi:namedview
     id="namedview1856"
     pagecolor="#ffffff"
     bordercolor="#666666"
     borderopacity="1.0"
     inkscape:pageshadow="2"
     inkscape:pageopacity="0.0"
     inkscape:pagecheckerboard="0"
     inkscape:document-units="mm"
     showgrid="false"
     inkscape:zoom="0.90583672"
     inkscape:cx="294.20313"
     inkscape:cy="551.42388"
     inkscape:window-width="3072"
     inkscape:window-height="1665"
     inkscape:window-x="1912"
     inkscape:window-y="-8"
     inkscape:window-maximized="1"
     inkscape:current-layer="layer1" />
  <defs
     id="defs1851" />
  <g
     inkscape:label="Layer 1"
     inkscape:groupmode="layer"
     id="layer1"
     transform="translate(-124.89244,-167.34069)">
    <g
       id="G-SdKfz2511"
       transform="matrix(0.35277777,0,0,-0.35277777,1.233741,347.67189)">
      <path
         d="m 375.20051,508.65508 0.72,1.071 h -4.072 v 0.142 h -0.246 v -0.095 h -0.463 v 0.095 h -0.592 v 0.264 h 0.592 v 0.095 h 0.328 v 0.14 h 0.688 v 0.246 h 0.135 v -0.34 h 3.375 v 0.17 h 0.736 l 0.492,0.732 1.42,-0.321 -0.359,-0.625 1.722,-0.031 0.135,-0.151 h 0.345 l 0.844,0.094 0.347,0.132 0.229,-0.056 -0.229,-0.245 v -0.488 l 0.095,-0.263 -0.269,-0.057 -0.211,0.246 h -0.232 l -0.096,-0.132 -0.097,0.301 h -1.3 l -0.037,-0.151 h -0.425 l 0.27,-0.414 -0.038,-0.302 h -0.385 l -0.078,0.32 -0.154,0.302 -0.153,-0.019 -0.42,-0.017 v 0.334 l -0.198,0.017 -0.895,-1.555 h -3.033 l 0.003,0.056 -0.003,0.505 z"
         id="path16530-3" />
      <path
         d="m 375.91961,494.03888 c 0,-0.244 0.202,-0.443 0.452,-0.443 0.251,0 0.454,0.199 0.454,0.443 0,0.246 -0.203,0.444 -0.454,0.444 -0.25,0 -0.452,-0.198 -0.452,-0.444 m -3.333,0.411 c 0,-0.197 0.165,-0.36 0.367,-0.36 0.202,0 0.367,0.163 0.367,0.36 0,0.198 -0.165,0.359 -0.367,0.359 -0.202,0 -0.367,-0.161 -0.367,-0.359 m 2.945,0.362 c -0.092,-0.266 -0.227,-0.514 -0.396,-0.734 0.134,-0.016 0.274,0.026 0.378,0.126 0.169,0.167 0.176,0.434 0.018,0.608 m 3.92,-0.362 c 0,-0.197 0.163,-0.36 0.366,-0.36 0.203,0 0.367,0.163 0.367,0.36 0,0.198 -0.164,0.359 -0.367,0.359 -0.203,0 -0.366,-0.161 -0.366,-0.359 m -1.818,-0.368 c -0.173,0.226 -0.31,0.478 -0.402,0.751 -0.176,-0.175 -0.176,-0.455 0,-0.629 0.109,-0.106 0.259,-0.147 0.402,-0.122 m 5.165,-0.043 c 0,-0.244 0.202,-0.443 0.453,-0.443 0.251,0 0.453,0.199 0.453,0.443 0,0.246 -0.202,0.444 -0.453,0.444 -0.251,0 -0.453,-0.198 -0.453,-0.444 m -0.797,0.04 c 0.138,-0.02 0.283,0.021 0.39,0.125 0.175,0.171 0.176,0.446 0.007,0.621 -0.092,-0.27 -0.227,-0.521 -0.397,-0.746 m 7.556,-0.04 c 0,-0.244 0.203,-0.443 0.451,-0.443 0.251,0 0.453,0.199 0.453,0.443 0,0.246 -0.202,0.444 -0.453,0.444 -0.248,0 -0.451,-0.198 -0.451,-0.444 m -3.306,0.411 c 0,-0.197 0.165,-0.36 0.368,-0.36 0.202,0 0.367,0.163 0.367,0.36 0,0.198 -0.165,0.359 -0.367,0.359 -0.203,0 -0.368,-0.161 -0.368,-0.359 m -1.811,-0.376 c -0.162,0.211 -0.291,0.444 -0.383,0.694 -0.121,-0.172 -0.104,-0.411 0.052,-0.564 0.092,-0.088 0.211,-0.132 0.331,-0.13 m 4.747,0.715 c -0.092,-0.259 -0.224,-0.498 -0.388,-0.714 0.126,-0.008 0.254,0.035 0.35,0.129 0.163,0.16 0.177,0.411 0.038,0.585 m 4.811,0.022 c 0,-0.198 0.164,-0.358 0.367,-0.358 0.202,0 0.367,0.16 0.367,0.358 0,0.199 -0.165,0.36 -0.367,0.36 -0.203,0 -0.367,-0.161 -0.367,-0.36 m 1.215,0.256 c 0.169,-0.108 0.395,-0.061 0.507,0.106 0.109,0.167 0.061,0.389 -0.108,0.497 -0.17,0.108 -0.397,0.061 -0.507,-0.105 -0.111,-0.167 -0.062,-0.39 0.108,-0.498 m -23.002,-0.142 -0.679,0.002 c 0.007,-0.015 0.013,-0.03 0.022,-0.045 0.102,-0.172 0.326,-0.23 0.501,-0.131 0.072,0.041 0.126,0.104 0.156,0.174 m 1.549,-0.006 -0.115,0.002 c 0.022,-0.086 0.075,-0.163 0.155,-0.215 0.014,-0.009 0.028,-0.017 0.042,-0.022 -0.03,0.076 -0.059,0.155 -0.082,0.235 m 5.305,-0.016 -0.086,0.001 c -0.016,-0.05 -0.032,-0.1 -0.05,-0.148 0.06,0.038 0.106,0.089 0.136,0.147 m 1.581,-0.005 h -0.131 c 0.025,-0.077 0.076,-0.144 0.151,-0.192 0.018,-0.013 0.038,-0.022 0.06,-0.03 -0.03,0.072 -0.056,0.145 -0.08,0.222 m 6.765,-0.023 -0.086,10e-4 c 0.027,-0.069 0.075,-0.128 0.141,-0.17 -0.017,0.053 -0.037,0.111 -0.055,0.169 m 4.063,-0.013 -0.569,0.003 c -0.012,-0.01 -0.024,-0.022 -0.036,-0.032 -0.177,-0.175 -0.177,-0.455 0,-0.629 0.176,-0.173 0.463,-0.173 0.639,0 0.177,0.174 0.177,0.454 0,0.629 -0.01,0.01 -0.022,0.02 -0.034,0.029 m 13.352,14.317 -2.918,0.394 2.918,-1.203 z m -53.288,-11.231 0.381,-0.627 c 0.068,0.232 0.157,0.456 0.263,0.67 h -0.555 z m 2.077,4.951 h -0.102 l -1.912,-4.375 0.265,0.072 h 0.688 c 0.128,0.174 0.27,0.339 0.425,0.49 v 2.223 l 0.345,0.676 0.291,0.312 z m 0.562,0 h -0.356 v -0.382 z m 20.31,-9.429 c 0.049,-0.085 0.091,-0.184 0.12,-0.266 l 0.751,-0.008 c -0.252,0.1 -0.487,0.236 -0.696,0.401 -0.056,-0.045 -0.114,-0.087 -0.175,-0.127 m 4.225,-0.235 0.026,-0.073 0.166,-10e-4 c -0.066,0.021 -0.13,0.047 -0.192,0.074 m -0.598,-0.067 c 0.026,0.106 0.064,0.238 0.118,0.337 -0.048,0.033 -0.094,0.068 -0.138,0.104 -0.218,-0.177 -0.467,-0.32 -0.736,-0.423 z m 2.738,-0.027 0.018,0.072 c -0.063,-0.027 -0.127,-0.049 -0.192,-0.071 z m 1.369,-0.015 0.017,0.071 c -0.257,0.101 -0.493,0.239 -0.704,0.407 -0.06,-0.048 -0.121,-0.094 -0.185,-0.136 0.065,-0.111 0.115,-0.248 0.144,-0.335 z m 3.322,0.097 c 0.02,-0.053 0.035,-0.1 0.045,-0.131 l 0.361,-0.004 c -0.141,0.034 -0.276,0.08 -0.406,0.135 m -0.619,-0.124 c 0.024,0.105 0.066,0.272 0.128,0.394 -0.04,0.027 -0.08,0.055 -0.116,0.084 -0.216,-0.165 -0.457,-0.3 -0.716,-0.397 l 0.026,-0.075 z m 2.739,-0.029 c 0.009,0.041 0.021,0.096 0.037,0.154 -0.15,-0.063 -0.305,-0.113 -0.467,-0.15 z m 1.368,-0.014 c 0.008,0.032 0.016,0.073 0.026,0.118 -0.27,0.098 -0.521,0.238 -0.744,0.413 -0.047,-0.037 -0.096,-0.073 -0.146,-0.108 0.092,-0.151 0.156,-0.359 0.173,-0.417 z m 4.144,0.162 c 0.028,0.114 0.074,0.259 0.133,0.358 -0.38,0.156 -0.715,0.395 -0.983,0.693 -0.301,-0.476 -0.752,-0.851 -1.286,-1.065 l 0.026,-0.078 0.734,0.033 c 0.046,0.194 0.141,0.493 0.283,0.493 0.147,0 0.271,-0.289 0.335,-0.468 z m 1.348,0.131 c -0.05,0.02 -0.104,0.018 -0.158,0.018 -0.231,0 -0.458,0.028 -0.67,0.081 0.028,-0.058 0.054,-0.118 0.076,-0.175 z m -23.129,0.043 0.032,0.073 c -0.519,0.346 -0.909,0.862 -1.088,1.466 l -1.237,0.004 c -0.327,-0.377 -0.759,-0.665 -1.252,-0.818 0.025,-0.068 0.044,-0.142 0.058,-0.207 l 0.782,-0.112 c 0.079,0.18 0.199,0.398 0.323,0.38 0.135,-0.017 0.216,-0.28 0.257,-0.465 l 0.773,-0.117 c 0.078,0.182 0.202,0.414 0.329,0.396 0.14,-0.02 0.221,-0.299 0.261,-0.485 z m 25.841,1.368 0.347,-0.266 -0.163,-0.337 -0.477,0.104 -0.624,-0.572 0.261,-0.394 -0.263,-0.267 -0.491,0.294 -0.652,-0.296 -0.032,-0.451 -0.375,-0.057 -0.155,0.381 -0.842,-0.086 -0.102,-0.437 h -0.382 l -0.088,0.384 -0.812,-0.034 -0.092,-0.387 h -0.379 l -0.083,0.363 -0.832,-0.037 -0.078,-0.326 h -0.379 l -0.071,0.305 -0.858,-0.038 -0.064,-0.267 h -0.38 l -0.06,0.259 -0.868,0.008 -0.063,-0.267 h -0.38 l -0.062,0.273 -0.865,0.01 -0.066,-0.283 h -0.379 l -0.066,0.288 -0.857,0.009 -0.07,-0.297 h -0.379 l -0.069,0.302 -0.817,0.007 -0.073,-0.309 h -0.379 l -0.072,0.315 -0.844,0.009 -0.077,-0.324 h -0.379 l -0.076,0.33 -0.836,0.008 -0.08,-0.338 h -0.381 l -0.077,0.344 -0.831,0.008 -0.083,-0.352 h -0.381 l -0.081,0.358 -0.824,0.009 -0.086,-0.367 h -0.38 l -0.086,0.371 -0.817,0.01 -0.089,-0.381 h -0.38 l -0.089,0.386 -0.811,0.009 -0.092,-0.395 h -0.38 l -0.092,0.401 -0.804,0.008 -0.098,-0.409 h -0.379 l -0.094,0.415 -0.72,0.007 -0.186,-0.473 -0.376,0.052 -0.037,0.454 -0.791,0.077 -0.155,-0.396 -0.375,0.053 -0.034,0.409 -0.794,0.12 -0.155,-0.395 -0.375,0.052 -0.036,0.429 -0.786,0.118 -0.162,-0.412 -0.376,0.052 -0.036,0.444 -0.781,0.113 -0.166,-0.421 -0.376,0.051 -0.039,0.466 -0.786,0.153 -0.174,-0.401 -0.374,0.065 -0.024,0.507 -0.619,0.313 -0.462,-0.305 -0.276,0.253 0.253,0.427 -0.54,0.741 -0.409,-0.195 -0.239,0.289 0.375,0.463 -0.02,0.109 -1.647,-0.085 -0.795,-0.524 -1.38,-0.041 c -0.396,-1.891 -2.106,-3.314 -4.153,-3.314 -2.341,0 -4.24,1.861 -4.24,4.155 0,0.336 0.04,0.664 0.118,0.975 l -0.453,0.748 -0.201,-0.098 -0.447,0.033 -0.24,0.337 0.104,0.335 0.583,0.371 -0.07,-0.337 -0.411,-0.201 0.241,-0.202 0.24,0.135 0.193,0.166 2.105,4.832 v 0.985 h 0.171 v 1.146 c -0.098,0.016 -0.171,0.098 -0.171,0.198 0,0.111 0.092,0.201 0.206,0.201 0.112,0 0.206,-0.09 0.206,-0.201 0,-0.074 -0.042,-0.139 -0.104,-0.175 v -1.169 h 0.652 v -0.236 h 0.343 v -0.424 l 0.122,0.129 0.751,0.101 -0.015,0.228 1.097,0.101 0.089,-0.173 2.607,0.346 -0.02,0.264 0.685,0.1 0.085,-0.265 4.355,0.578 -0.024,0.302 0.685,0.101 0.097,-0.303 5.814,0.772 0.251,0.388 0.091,0.848 0.377,0.537 0.496,0.1 0.291,0.449 32.176,-0.372 v 0.411 l -3.443,1.419 -0.688,0.094 v -0.12 h -0.389 v 0.56 l -0.295,-0.116 -0.052,0.125 0.347,0.137 v 0.055 h 0.14 l 0.267,0.104 0.05,-0.126 -0.068,-0.027 v -0.456 l 0.639,-0.087 0.085,-0.012 3.407,-0.46 v 0.241 h -0.13 v 0.357 h 0.883 v -0.357 h -0.193 v -1.748 l 0.323,-0.004 1.053,-0.99 -0.255,-0.399 0.068,-0.122 -4.595,-7.193 -0.214,-0.063 -0.823,-1.282 h 0.454 v 0.169 h 0.172 v -0.135 l 0.925,0.202 h 0.652 v -1.177 h -0.548 l -1.029,0.393 v -0.157 h -0.172 v 0.134 h -0.6 c 0.199,0 0.361,-0.158 0.361,-0.352 0,-0.195 -0.162,-0.354 -0.361,-0.354 -0.114,0 -0.217,0.053 -0.283,0.136 h -1.073 v 0.239 l -1.956,-0.217 0.037,-0.57 0.455,-0.095 0.006,-0.372 -0.479,-0.114 z"
         id="path16532-6" />
      <path
         d="m 352.06051,496.89858 c 0,0.092 -0.738,1.273 -0.738,1.273 l 2.234,5.203 1.439,-0.275 z"
         id="path16534-1" />
    </g>
  </g>
</svg>
