<?xml version="1.0" encoding="UTF-8" standalone="no"?>
<!-- Created with Inkscape (http://www.inkscape.org/) -->

<svg
   width="19.837959mm"
   height="8.1242847mm"
   viewBox="0 0 19.837959 8.1242847"
   version="1.1"
   id="svg26913"
   sodipodi:docname="G-SdKfz251-triple.svg"
   inkscape:version="1.1.1 (3bf5ae0d25, 2021-09-20)"
   xmlns:inkscape="http://www.inkscape.org/namespaces/inkscape"
   xmlns:sodipodi="http://sodipodi.sourceforge.net/DTD/sodipodi-0.dtd"
   xmlns="http://www.w3.org/2000/svg"
   xmlns:svg="http://www.w3.org/2000/svg">
  <sodipodi:namedview
     id="namedview26915"
     pagecolor="#ffffff"
     bordercolor="#666666"
     borderopacity="1.0"
     inkscape:pageshadow="2"
     inkscape:pageopacity="0.0"
     inkscape:pagecheckerboard="0"
     inkscape:document-units="mm"
     showgrid="false"
     inkscape:zoom="10.248373"
     inkscape:cx="61.131658"
     inkscape:cy="19.759235"
     inkscape:window-width="1920"
     inkscape:window-height="1017"
     inkscape:window-x="-8"
     inkscape:window-y="-8"
     inkscape:window-maximized="1"
     inkscape:current-layer="layer1" />
  <defs
     id="defs26910" />
  <g
     inkscape:label="Layer 1"
     inkscape:groupmode="layer"
     id="layer1"
     transform="translate(-273.94937,-166.59152)">
    <path
       id="G-SdKfz251-triple-3"
       style="stroke-width:0.352777"
       d="m 282.12263,166.59155 c -0.007,-0.003 -0.12526,0.19154 -0.15236,0.2668 -0.0271,0.0753 -0.0432,0.13967 -0.0362,0.14211 0.007,0.002 0.11713,0.0291 0.24442,0.0594 0.16667,0.0398 0.44712,0.13211 1.00304,0.33176 l 0.77205,0.2775 -0.0284,0.0713 -0.0284,0.0713 0.16124,0.0625 c 0.0886,0.0345 0.23379,0.0902 0.32298,0.12299 l 0.12557,0.0667 -0.16021,0.25993 0.092,0.31781 -0.62476,-0.0124 -0.56846,-0.005 c -0.31258,-0.003 -0.56795,0.001 -0.5679,0.009 0,0.007 -0.0164,0.0139 -0.0362,0.0139 -0.0379,0 -0.0993,0.0944 -0.0863,0.13281 0.008,0.0227 -0.10224,0.084 -0.15299,0.0847 -0.0257,2.7e-4 -0.0597,0.0679 -0.0868,0.15141 l -0.5612,-0.007 -0.10232,0.15813 -0.17518,0.0357 -0.13282,0.18914 -0.032,0.2992 -0.0889,0.13695 -2.05103,0.27233 -0.0341,-0.10697 -0.24183,0.0357 0.009,0.10645 -1.53635,0.20412 -0.03,-0.0935 -0.24186,0.0351 0.007,0.0935 -0.91982,0.12196 -0.0315,-0.061 -0.38703,0.0357 0.006,0.0801 -0.26509,0.0357 -0.0429,0.0455 v -0.14935 h -0.12144 v -0.0832 h -0.23057 v -0.41247 c 0.022,-0.0127 0.0367,-0.0359 0.0367,-0.062 0,-0.0391 -0.0328,-0.0708 -0.0723,-0.0708 -0.0402,0 -0.0729,0.0316 -0.0729,0.0708 0,0.0353 0.0259,0.0641 0.0605,0.0698 v 0.40462 h -0.0605 v 0.34107 l -0.19275,0.44803 -0.54983,1.26298 -0.0682,0.0584 -0.0848,0.0475 -0.0847,-0.0713 0.1452,-0.0708 0.0243,-0.11885 -0.20566,0.13074 -0.0367,0.11833 0.0847,0.11886 0.15761,0.0119 0.0713,-0.0346 0.15968,0.26355 c -0.0275,0.10971 -0.0419,0.22563 -0.0419,0.34416 0,0.80928 0.67019,1.46555 1.49604,1.46555 0.72212,0 1.32532,-0.50183 1.46502,-1.16893 l 0.48678,-0.0145 0.28062,-0.185 0.58084,-0.03 0.007,0.0387 -0.13229,0.1633 0.0842,0.1018 0.14418,-0.0687 0.19068,0.26148 -0.0894,0.15038 0.0971,0.0894 0.1633,-0.10749 0.21807,0.11059 0.009,0.1788 0.13179,0.0227 0.0615,-0.1416 0.27699,0.0543 0.014,0.16433 0.13282,0.0181 0.0584,-0.14883 0.27543,0.0398 0.013,0.15658 0.13229,0.0186 0.0574,-0.14521 0.2775,0.0413 0.0124,0.15142 0.13229,0.0186 0.0548,-0.13953 0.28009,0.0424 0.0119,0.14418 0.13229,0.0186 0.0548,-0.13953 0.27905,0.0274 0.013,0.15969 0.13282,0.0186 0.0656,-0.16692 0.25374,0.003 0.0336,0.14624 h 0.13332 l 0.0346,-0.14418 0.28372,0.003 0.0325,0.14159 h 0.13385 l 0.0325,-0.13952 0.2863,0.004 0.0315,0.13591 h 0.13386 l 0.0315,-0.13436 0.28784,0.004 0.0305,0.13074 h 0.13435 l 0.03,-0.12919 0.29094,0.003 0.0284,0.12609 h 0.13439 l 0.0294,-0.12402 0.293,0.003 0.0274,0.12144 h 0.13435 l 0.0279,-0.11937 0.29506,0.003 0.0269,0.11627 h 0.13385 l 0.0269,-0.1142 0.29766,0.003 0.0259,0.11111 h 0.13333 l 0.0265,-0.10904 0.28834,0.003 0.0243,0.10645 h 0.13385 l 0.0249,-0.10491 0.30232,0.004 0.0233,0.10128 h 0.13332 l 0.0233,-0.0997 0.30541,0.004 0.0217,0.0961 h 0.13436 l 0.0222,-0.0941 0.30594,0.003 0.0212,0.0915 h 0.13435 l 0.0222,-0.0941 0.30281,-0.0134 0.0254,0.10749 h 0.13333 l 0.0279,-0.11472 0.293,-0.0135 0.0294,0.12816 h 0.13385 l 0.0325,-0.13642 0.28631,-0.0119 0.031,0.13539 h 0.13489 l 0.0357,-0.154 0.29713,-0.0305 0.0548,0.13436 0.13229,-0.0202 0.0114,-0.15916 0.22998,-0.10439 0.17312,0.10387 0.093,-0.0946 -0.092,-0.13849 0.22013,-0.20206 0.16796,0.0367 0.0579,-0.11885 -0.12247,-0.0941 0.0946,-0.2558 0.16899,-0.0398 -0.003,-0.13126 -0.1602,-0.0336 -0.0135,-0.20102 0.69041,-0.0765 v 0.0842 h 0.37827 c 0.0233,0.0293 0.0595,0.0481 0.0997,0.0481 0.0702,0 0.12764,-0.0563 0.12764,-0.12506 0,-0.0684 -0.0574,-0.12402 -0.12764,-0.12402 h 0.21188 v 0.047 h 0.0605 v -0.0553 l 0.3633,0.1385 h 0.19325 v -0.41497 h -0.22995 l -0.3266,0.0713 v -0.0481 h -0.0605 v 0.0599 h -0.1602 l 0.29043,-0.45217 0.0754,-0.0222 1.62111,-2.53783 -0.0244,-0.0429 0.0899,-0.14056 -0.37103,-0.34934 -0.11419,-0.002 v -0.6165 h 0.0682 v -0.12609 h -0.31163 v 0.12609 h 0.046 v 0.0847 l -1.202,-0.16227 -0.03,-0.004 -0.22529,-0.0305 v -0.16123 l 0.0238,-0.009 -0.0175,-0.0444 -0.0935,0.0367 h -0.0501 v 0.0191 l -0.12194,0.0486 0.018,0.0439 0.10387,-0.0408 v 0.19741 h 0.13748 v -0.0424 l 0.24236,0.0336 1.21491,0.50023 v 0.14521 l -3.31401,-0.0382 -0.0124,-0.005 -0.0822,-0.1018 c -0.0451,-0.0559 -0.0789,-0.10893 -0.0765,-0.11782 0.003,-0.009 -0.003,-0.0114 -0.0124,-0.006 -0.009,0.006 -0.0447,-0.0228 -0.0791,-0.0641 l -0.0625,-0.0755 -0.49353,0.002 c -0.25286,0.001 -0.36229,-0.002 -0.42116,-0.008 0.0111,-0.0398 0.0238,-0.0825 0.0398,-0.12815 l 0.0667,-0.18449 -0.0512,-0.0181 -0.0512,-0.0196 -0.0636,0.1757 c -0.0233,0.0648 -0.0466,0.12032 -0.0692,0.1695 l -0.72192,-0.0145 -0.16949,-0.061 0.0863,-0.23978 0.0863,-0.23978 -1.07331,-0.38705 c -0.59036,-0.21316 -1.08595,-0.39486 -1.10122,-0.40411 -0.0156,-0.009 -0.0266,-0.008 -0.0243,0.003 0.005,0.0212 -0.0649,0.0765 -0.0734,0.0584 -0.003,-0.006 -0.01,-0.002 -0.014,0.01 -0.0132,0.0371 -0.15399,0.13298 -0.16846,0.11472 -0.008,-0.0101 -0.0119,-0.007 -0.009,0.007 0.003,0.0141 0.0562,-0.0836 0.004,-0.0476 -0.10395,0.0715 -0.11438,0.0873 -0.076,0.11369 0.0148,0.0102 -0.0287,-5.3e-4 -0.0967,-0.0243 -0.068,-0.0234 -0.1319,-0.0357 -0.14108,-0.0284 -0.01,0.008 -0.1189,-0.0236 -0.26871,-0.0775 -0.19622,-0.0706 -0.26215,-0.0879 -0.29506,-0.0775 -0.0609,0.0191 -1.68294,-0.56435 -2.0097,-0.72296 -0.12218,-0.0593 -0.22765,-0.10996 -0.23461,-0.11265 z m 7.4301,2.12715 c 0,10e-4 0.005,0.008 0.0161,0.0227 0.0238,0.0303 0.0388,0.0403 0.0388,0.0253 0,-0.004 -0.0145,-0.0183 -0.032,-0.032 -0.0143,-0.0113 -0.0217,-0.0169 -0.0227,-0.016 z"
       sodipodi:nodetypes="ccccccccccccccccsccccccccccccccccccccccccccccssscccccccccccccccccssccccccccccccccccccccccccccccccccccccccccccccccccccccccccccccccccccccccccccccccccccccccccccccccccccccccccccccccccccccssccccccccccccccccccccccccccccccccccccccccccccccccccccccccccccccccccccccccccccsccccccsccc" />
  </g>
</svg>
