<?xml version="1.0" encoding="UTF-8" standalone="no"?>
<!-- Created with Inkscape (http://www.inkscape.org/) -->

<svg
   width="18.627001mm"
   height="6.5995498mm"
   viewBox="0 0 18.627001 6.5995498"
   version="1.1"
   id="svg12008"
   sodipodi:docname="inkporter-svg-ye7tu6yu.svg"
   xmlns:inkscape="http://www.inkscape.org/namespaces/inkscape"
   xmlns:sodipodi="http://sodipodi.sourceforge.net/DTD/sodipodi-0.dtd"
   xmlns="http://www.w3.org/2000/svg"
   xmlns:svg="http://www.w3.org/2000/svg">
  <sodipodi:namedview
     id="namedview12010"
     pagecolor="#ffffff"
     bordercolor="#666666"
     borderopacity="1.0"
     inkscape:pageshadow="2"
     inkscape:pageopacity="0.0"
     inkscape:pagecheckerboard="0"
     inkscape:document-units="mm"
     showgrid="false"
     inkscape:zoom="0.64052329"
     inkscape:cx="397.33138"
     inkscape:cy="561.25984"
     inkscape:window-width="1920"
     inkscape:window-height="1017"
     inkscape:window-x="-8"
     inkscape:window-y="-8"
     inkscape:window-maximized="1"
     inkscape:current-layer="layer1" />
  <defs
     id="defs12005" />
  <g
     inkscape:label="Layer 1"
     inkscape:groupmode="layer"
     id="layer1"
     transform="translate(-39.662108,-147.84137)">
    <path
       d="m 57.368351,151.94398 0.856897,-1.58891 -0.02469,-0.0423 0.08855,-0.14005 -0.959908,-1.28588 h -0.11042 v -0.61383 h 0.06597 v -0.12524 h -0.303389 v 0.12524 h 0.0441 v 0.0847 l -1.171928,-0.16192 -0.02893,-0.004 -0.220486,-0.0303 v -0.16087 l 0.02364,-0.01 -0.01834,-0.0441 -0.09137,0.037 h -0.04798 v 0.0194 l -0.118886,0.0476 0.01729,0.0444 0.1016,-0.0413 v 0.1972 h 0.134055 v -0.0423 l 0.236361,0.0325 1.184981,0.49883 v 0.14358 l -2.776008,-0.0367 c 0.01834,-0.0317 0.03422,-0.0663 0.0314,-0.097 -0.0067,-0.0752 -0.286456,-0.3228 -0.3556,-0.32879 -0.06879,-0.007 -0.151695,0.17744 -0.197556,0.17074 l -0.11183,-0.0328 -0.128764,-0.0723 -0.0822,-0.10548 0.07549,0.007 -0.06914,-0.16475 v -0.066 c 0,0 0.0071,-0.004 0,-0.0656 -0.0063,-0.0628 -0.03246,-0.0924 -0.03246,-0.0924 0,0 0.02611,-0.01 -0.105833,-0.11218 l -0.09842,-0.0328 -0.151695,-0.013 -0.138641,0.0198 -0.147814,0.0956 -0.03634,0.0691 c 0,0 -0.0035,0.066 -0.02646,0.13476 -0.02293,0.0692 -0.04939,0.0861 -0.108302,0.13194 l 0.06209,0.0265 0.128412,0.0755 -0.01623,0.16474 0.06244,0.0131 0.02646,0.109 c 0,0 0.0035,0.0593 0.02293,0.0688 0.01976,0.0102 0.06315,-0.006 0.06315,-0.006 l 0.06244,-0.0198 0.06562,0.079 0.0035,0.0282 -0.753181,-0.0102 c 0.01094,-0.024 0.01799,-0.0487 0.01623,-0.0709 -0.0063,-0.0752 -0.286808,-0.3228 -0.3556,-0.32879 -0.0695,-0.007 -0.152047,0.17744 -0.197908,0.17074 l -0.112184,-0.0328 -0.128058,-0.0723 -0.08255,-0.10548 0.07585,0.007 -0.0695,-0.16475 v -0.066 c 0,0 0.0074,-0.004 0,-0.0656 -0.0063,-0.0628 -0.03246,-0.0924 -0.03246,-0.0924 0,0 0.02611,-0.01 -0.105833,-0.11218 l -0.09842,-0.0328 -0.151342,-0.013 -0.138641,0.0198 -0.148167,0.0956 -0.03598,0.0691 c 0,0 -0.0035,0.066 -0.02646,0.13476 -0.02293,0.0692 -0.04974,0.0861 -0.109008,0.13194 l 0.06244,0.0265 0.128764,0.0755 -0.01658,0.16474 0.06244,0.0131 0.02646,0.109 c 0,0 0.0035,0.0593 0.02328,0.0688 0.01976,0.0102 0.06244,-0.006 0.06244,-0.006 l 0.06244,-0.0198 0.06597,0.079 v 0.004 l -0.536222,-0.007 -0.218722,-0.30444 -0.192617,0.2988 h -0.0575 v -0.19156 h -0.04692 v -0.29175 h 0.04586 V 148.205 h -0.04586 v -0.0709 l 0.06209,-0.061 -0.142523,-0.14146 -0.08819,-0.0893 -0.06456,0.0642 0.02505,0.025 h -0.07267 v 0.13793 h 0.137583 v 0.13547 h -0.04692 v 0.10724 h 0.04692 v 0.29175 h -0.04692 v 0.0885 H 48.89992 l -0.209549,-0.22613 -0.06667,0.0709 -0.324556,-0.34678 -0.358775,0.34678 h -0.892881 l 0.05468,-0.0709 -0.08749,-0.0441 -0.182386,0.28117 H 46.54231 v -0.0176 h -0.263878 v 0.0176 h -0.752828 l -0.186972,0.0995 -0.672747,0.0437 v 0.25859 l 0.650522,0.0557 0.198614,0.0878 h 0.763411 v 0.018 h 0.224014 l -0.07197,0.13123 h 0.413103 l 0.0039,0.004 -0.0039,0.037 -0.08678,0.13547 -2.000603,0.27129 -0.03351,-0.10584 -0.236714,0.0356 0.0088,0.10584 -1.498952,0.2032 -0.02928,-0.0935 -0.235303,0.0356 0.0071,0.0921 -0.897467,0.12206 -0.03034,-0.0614 -0.37853,0.0363 0.006,0.0797 -0.258586,0.0346 -0.04198,0.0462 v -0.14887 h -0.117827 v -0.0825 H 40.79524 v -0.41134 c 0.02117,-0.012 0.03563,-0.0346 0.03563,-0.0614 0,-0.0392 -0.0321,-0.0709 -0.07091,-0.0709 -0.03916,0 -0.07091,0.0317 -0.07091,0.0709 0,0.0349 0.0254,0.0642 0.05891,0.0699 v 0.40287 h -0.05891 v 0.34537 l -0.724606,1.69722 -0.06703,0.0582 -0.08255,0.0473 -0.0822,-0.0706 0.141817,-0.0709 0.02293,-0.11818 -0.199673,0.12982 -0.03563,0.11783 0.08255,0.11818 0.152753,0.012 0.0695,-0.0349 0.156633,0.26282 c -0.02681,0.11007 -0.04092,0.22472 -0.04092,0.3429 0,0.8061 0.652992,1.45909 1.459089,1.45909 0.704497,0 1.293283,-0.49953 1.429103,-1.16417 l 0.475544,-0.0138 0.273756,-0.1845 0.566208,-0.0289 0.0063,0.0381 -0.128411,0.16193 0.0822,0.1016 0.140758,-0.0684 0.186267,0.26035 -0.08784,0.14958 0.09596,0.0889 0.158397,-0.10689 0.213078,0.11006 0.0085,0.17816 0.128059,0.0229 0.06032,-0.14147 0.271286,0.0543 0.0127,0.16369 0.129469,0.0183 0.05715,-0.14852 0.268817,0.0395 0.01235,0.15592 0.129117,0.0187 0.05609,-0.14464 0.27058,0.0413 0.012,0.15099 0.129116,0.018 0.05398,-0.139 0.272345,0.042 0.01199,0.14358 0.12947,0.019 0.05292,-0.13864 0.272345,0.0265 0.01235,0.15946 0.129822,0.0183 0.0635,-0.16651 0.248356,0.004 0.03245,0.14569 h 0.130528 l 0.03351,-0.14322 0.27693,0.004 0.03104,0.14041 h 0.130175 l 0.03281,-0.13829 0.279047,0.004 0.03069,0.13547 h 0.130175 l 0.03104,-0.13371 0.281517,0.004 0.02928,0.13088 h 0.13088 l 0.02928,-0.12912 0.283986,0.004 0.02822,0.12559 h 0.129822 l 0.02928,-0.12347 0.28575,0.004 0.02716,0.12065 h 0.130528 l 0.02787,-0.11889 0.287161,0.004 0.02646,0.11571 h 0.130528 l 0.02611,-0.1136 0.290689,0.004 0.02469,0.11042 h 0.130881 l 0.0254,-0.10865 0.280458,0.004 0.02434,0.10584 h 0.130175 l 0.02434,-0.10407 0.295275,0.004 0.02222,0.10089 h 0.130881 l 0.02223,-0.0988 0.297039,0.004 0.02187,0.0956 h 0.130175 l 0.02223,-0.0938 0.299156,0.004 0.02081,0.0907 h 0.130528 l 0.02152,-0.0938 0.295627,-0.0127 0.02399,0.10654 h 0.131234 l 0.02646,-0.11466 0.286455,-0.013 0.02857,0.12771 h 0.130528 l 0.0314,-0.13547 0.2794,-0.0123 0.03034,0.13476 h 0.130528 l 0.03598,-0.15346 0.289984,-0.03 0.05292,0.1337 0.129117,-0.0205 0.01094,-0.15769 0.224367,-0.10442 0.169333,0.10336 0.09066,-0.0938 -0.08996,-0.13864 0.214489,-0.20038 0.164394,0.0363 0.05574,-0.11854 -0.119592,-0.0935 0.09313,-0.25435 0.1651,-0.0406 -0.0035,-0.12983 -0.156633,-0.0339 -0.0127,-0.19967 0.673452,-0.0766 v 0.0843 h 0.369359 c 0.02258,0.0289 0.0575,0.0469 0.09701,0.0469 0.06844,0 0.123825,-0.0554 0.123825,-0.12312 0,-0.0688 -0.05539,-0.12418 -0.123825,-0.12418 h 0.206727 v 0.0466 h 0.05927 v -0.055 l 0.353836,0.13794 h 0.188736 v -0.41275 h -0.224366 l -0.318206,0.0705 v -0.0473 h -0.05927 v 0.0586 h -0.155927 l 0.282927,-0.44944 z m -10.526536,2.00449 -0.262114,-0.0402 c -0.0134,-0.0656 -0.04163,-0.16369 -0.08996,-0.17004 -0.04374,-0.007 -0.08608,0.0744 -0.112889,0.13864 l -0.265642,-0.0406 c -0.01446,-0.0653 -0.04233,-0.15734 -0.0889,-0.16333 -0.04269,-0.006 -0.08431,0.0699 -0.111125,0.13299 l -0.268464,-0.0392 c -0.0053,-0.0226 -0.01199,-0.049 -0.02046,-0.0727 0.169334,-0.0536 0.318206,-0.15451 0.431095,-0.28716 h 0.42545 c 0.06103,0.21273 0.195791,0.39335 0.37465,0.5147 z m 0.227542,-0.47731 c -0.05997,0.0349 -0.137231,0.0145 -0.172156,-0.0455 -0.0035,-0.005 -0.0053,-0.0109 -0.0078,-0.0159 h 0.233892 c -0.0099,0.025 -0.02857,0.0469 -0.05398,0.061 m 0.309739,0.23143 c -0.0702,0 -0.126648,-0.0561 -0.126648,-0.12559 0,-0.0699 0.05644,-0.12594 0.126648,-0.12594 0.06914,0 0.125588,0.0561 0.125588,0.12594 0,0.0695 -0.05644,0.12559 -0.125588,0.12559 m 0.291394,-0.21555 c -0.02787,-0.0176 -0.04657,-0.0448 -0.05398,-0.0755 h 0.03916 c 0.0085,0.0286 0.01764,0.0564 0.02963,0.0836 -0.0053,-0.004 -0.01058,-0.005 -0.01482,-0.008 m 0.277636,0.52776 c -0.01058,-0.0286 -0.02399,-0.0635 -0.04198,-0.0931 0.02117,-0.0148 0.04092,-0.0296 0.06068,-0.0448 0.07197,0.0579 0.153106,0.10583 0.240242,0.14111 z m 0.310797,-0.35172 c -0.03493,0.0356 -0.08326,0.0504 -0.129116,0.0452 0.05786,-0.0783 0.104422,-0.16475 0.136172,-0.25858 0.05398,0.0614 0.05221,0.15522 -0.0071,0.21343 m 0.295981,0.21413 c -0.08608,0 -0.155928,-0.0691 -0.155928,-0.15557 0,-0.0861 0.06985,-0.15593 0.155928,-0.15593 0.08643,0 0.155928,0.0699 0.155928,0.15593 0,0.0864 -0.0695,0.15557 -0.155928,0.15557 m 0.296686,-0.21413 c -0.06174,-0.0603 -0.06174,-0.15946 0,-0.22014 0.03069,0.096 0.07867,0.18451 0.13723,0.26388 -0.04833,0.008 -0.09984,-0.006 -0.13723,-0.0437 m 0.303742,0.36406 -0.26035,-0.006 c 0.09243,-0.036 0.177447,-0.0861 0.252588,-0.14781 0.01623,0.0123 0.0314,0.0247 0.04762,0.036 -0.01764,0.0349 -0.0314,0.0811 -0.03986,0.11818 m 0.214488,0.004 -0.0092,-0.0254 c 0.02117,0.01 0.04339,0.018 0.06562,0.0261 z m 0.06562,-0.56021 c 0.0063,-0.0166 0.01164,-0.0339 0.01693,-0.0515 h 0.02963 c -0.01023,0.0205 -0.02611,0.0392 -0.04657,0.0515 m 0.305858,0.23319 c -0.0702,0 -0.126294,-0.0561 -0.126294,-0.12559 0,-0.0699 0.05609,-0.12595 0.126294,-0.12595 0.0695,0 0.125589,0.0561 0.125589,0.12595 0,0.0695 -0.05609,0.12559 -0.125589,0.12559 m 0.240242,-0.28258 h 0.0448 c 0.0081,0.0265 0.01693,0.0522 0.02716,0.078 -0.0067,-0.004 -0.01446,-0.007 -0.02081,-0.0109 -0.02505,-0.0159 -0.04304,-0.0406 -0.05115,-0.067 m 0.115358,0.61736 h -0.05997 c 0.02258,-0.007 0.04516,-0.0162 0.06667,-0.025 z m 0.471664,0.005 -0.250825,-0.004 c -0.01023,-0.0307 -0.02752,-0.0783 -0.05009,-0.11712 0.02258,-0.0155 0.04339,-0.031 0.06421,-0.0476 0.07267,0.0589 0.153812,0.10725 0.242006,0.14323 z m 0.05856,-0.37889 c -0.03704,0.037 -0.08714,0.0515 -0.134761,0.0441 0.05821,-0.0787 0.105481,-0.16651 0.137584,-0.26176 0.05786,0.0614 0.05715,0.15804 -0.0035,0.21766 m 0.295628,0.21414 c -0.08573,0 -0.155928,-0.0691 -0.155928,-0.15557 0,-0.0861 0.0702,-0.15593 0.155928,-0.15593 0.08643,0 0.15628,0.0699 0.15628,0.15593 0,0.0864 -0.06985,0.15557 -0.15628,0.15557 m 0.295275,-0.21414 c -0.05362,-0.054 -0.05997,-0.13723 -0.01799,-0.1979 0.0321,0.0878 0.07585,0.17039 0.131939,0.24377 -0.04127,0 -0.08255,-0.0148 -0.113947,-0.0459 m 0.280458,0.38912 -0.233539,-0.004 -0.0088,-0.0265 c 0.08996,-0.0335 0.172155,-0.0811 0.245886,-0.13899 0.01341,0.0102 0.02646,0.0201 0.04022,0.0289 -0.02117,0.0434 -0.03563,0.10195 -0.04374,0.13934 m 0.2286,0.004 c -0.0035,-0.0109 -0.0085,-0.0275 -0.01517,-0.0466 0.0441,0.0198 0.09102,0.0356 0.139347,0.048 z m 0.355247,-0.35172 c -0.0702,0 -0.126647,-0.0561 -0.126647,-0.12559 0,-0.0698 0.05644,-0.12594 0.126647,-0.12594 0.06914,0 0.125589,0.0561 0.125589,0.12594 0,0.0695 -0.05644,0.12559 -0.125589,0.12559 m 0.291395,-0.21555 c -0.02328,-0.0152 -0.03951,-0.036 -0.04939,-0.0593 h 0.03034 c 0.006,0.0205 0.0134,0.0406 0.01905,0.0593 m 0.06738,0.57468 -0.148166,-0.004 c 0.05574,-0.0123 0.109713,-0.0303 0.160513,-0.0522 -0.0056,0.0208 -0.0092,0.0399 -0.01235,0.054 m 0.471311,0.005 -0.237419,-0.004 c -0.0063,-0.0201 -0.02857,-0.0928 -0.05997,-0.14676 0.01693,-0.0113 0.03351,-0.024 0.04974,-0.0374 0.07691,0.0617 0.162984,0.11112 0.25647,0.14534 -0.0039,0.0162 -0.0067,0.0303 -0.0088,0.0416 m 0.04022,-0.40393 c -0.03281,0.0335 -0.07726,0.0487 -0.119944,0.0455 0.05609,-0.0755 0.100894,-0.16016 0.133702,-0.25083 0.04727,0.0614 0.04233,0.14958 -0.01376,0.20532 m 0.295981,0.21414 c -0.08643,0 -0.155928,-0.0692 -0.155928,-0.15558 0,-0.0861 0.0695,-0.15593 0.155928,-0.15593 0.08608,0 0.15628,0.0699 0.15628,0.15593 0,0.0864 -0.0702,0.15558 -0.15628,0.15558 m 0.295627,-0.21414 c -0.06068,-0.0603 -0.06068,-0.15946 0,-0.22013 0.0046,-0.004 0.0085,-0.008 0.01235,-0.0109 h 0.196144 c 0.0042,0.004 0.0078,0.007 0.01199,0.0106 0.06068,0.0607 0.06068,0.15981 0,0.22014 -0.06068,0.061 -0.159455,0.061 -0.220486,0 m 0.794456,0.34713 -0.261761,0.0109 c -0.02117,-0.0624 -0.06491,-0.16334 -0.114653,-0.16334 -0.04939,0 -0.08185,0.10478 -0.09772,0.17357 l -0.251883,0.0106 -0.0099,-0.0268 c 0.18415,-0.0755 0.33902,-0.20708 0.442736,-0.3743 0.09208,0.10478 0.208139,0.18839 0.338667,0.24342 -0.02081,0.0346 -0.03563,0.0857 -0.04551,0.12594 m 0.204611,-0.0201 c -0.0071,-0.0194 -0.01658,-0.0416 -0.02646,-0.0614 0.07338,0.0183 0.151341,0.0289 0.230716,0.0289 0.01905,0 0.03669,0 0.05468,0.006 z m 0.204258,-0.41381 c -0.06985,0 -0.125941,-0.0568 -0.125941,-0.12664 0,-0.0692 0.05609,-0.12559 0.125941,-0.12559 0.06985,0 0.126295,0.0564 0.126295,0.12559 0,0.0699 -0.05644,0.12664 -0.126295,0.12664 m 0.466372,-0.25258 c -0.0381,0.0582 -0.116416,0.0744 -0.174625,0.0363 -0.05856,-0.0377 -0.07514,-0.11642 -0.03739,-0.17462 0.0381,-0.0582 0.116769,-0.0748 0.174978,-0.0367 0.05821,0.0381 0.07479,0.11641 0.03704,0.17498 m 1.811514,-4.63586 -1.0033,-0.42262 1.0033,0.13828 z"
       style="fill:#000000;fill-opacity:1;fill-rule:nonzero;stroke:none;stroke-width:0.352778"
       id="G-SdKfz251-75" />
  </g>
</svg>
