<?xml version="1.0" encoding="UTF-8" standalone="no"?>
<!-- Created with Inkscape (http://www.inkscape.org/) -->

<svg
   width="33.056545mm"
   height="14.208817mm"
   viewBox="0 0 33.056545 14.208817"
   version="1.1"
   id="svg15601"
   inkscape:version="1.1.1 (3bf5ae0d25, 2021-09-20)"
   sodipodi:docname="inkporter-svg-fswrd51t.svg"
   xmlns:inkscape="http://www.inkscape.org/namespaces/inkscape"
   xmlns:sodipodi="http://sodipodi.sourceforge.net/DTD/sodipodi-0.dtd"
   xmlns="http://www.w3.org/2000/svg"
   xmlns:svg="http://www.w3.org/2000/svg">
  <sodipodi:namedview
     id="namedview15603"
     pagecolor="#ffffff"
     bordercolor="#666666"
     borderopacity="1.0"
     inkscape:pageshadow="2"
     inkscape:pageopacity="0.0"
     inkscape:pagecheckerboard="0"
     inkscape:document-units="mm"
     showgrid="false"
     inkscape:zoom="1.2810466"
     inkscape:cx="358.6911"
     inkscape:cy="503.49457"
     inkscape:window-width="1889"
     inkscape:window-height="1656"
     inkscape:window-x="3581"
     inkscape:window-y="141"
     inkscape:window-maximized="0"
     inkscape:current-layer="G-Infantry-MG5-4-Pfx3"
     inkscape:snap-nodes="true"
     inkscape:snap-bbox="true"
     inkscape:snap-others="true"
     inkscape:bbox-paths="true"
     inkscape:snap-global="true" />
  <defs
     id="defs15598">
    <clipPath
       clipPathUnits="userSpaceOnUse"
       id="clipPath48514-9-5-6-7-4">
      <path
         d="M 309.111,103.342 H 547.1 V 372.047 H 309.111 Z"
         id="path48512-3-2-8-8-0" />
    </clipPath>
    <clipPath
       clipPathUnits="userSpaceOnUse"
       id="clipPath48514-9-5-6-7-4-5">
      <path
         d="M 309.111,103.342 H 547.1 V 372.047 H 309.111 Z"
         id="path48512-3-2-8-8-0-2" />
    </clipPath>
    <clipPath
       clipPathUnits="userSpaceOnUse"
       id="clipPath48514-9-5-6-7-4-1">
      <path
         d="M 309.111,103.342 H 547.1 V 372.047 H 309.111 Z"
         id="path48512-3-2-8-8-0-4" />
    </clipPath>
  </defs>
  <g
     inkscape:label="Layer 1"
     inkscape:groupmode="layer"
     id="layer1"
     transform="translate(-134.18873,-159.38531)">
    <g
       id="G-SdKfz251-InfantryStG5-4-Pf"
       transform="matrix(0.35277777,0,0,-0.35277777,182.67858,237.59796)">
      <g
         id="g16528"
         transform="translate(-463.06962,-200.07663)">
        <path
           id="path16524"
           d="m 418.2207,591.39453 c -0.0967,0.008 -0.1582,0.0508 -0.1582,0.0508 l -0.61133,0.44141 -0.1875,0.13476 -0.0762,0.16407 -0.0332,0.0176 -0.0352,0.0742 c 0,0 -0.0304,0.20289 -0.0664,0.46289 -0.0467,0.332 -0.10667,0.75632 -0.13867,0.95899 -0.0333,0.21067 -0.0186,0.33186 -0.004,0.39453 l -0.36328,0.7793 c -0.0821,-0.035 -0.17119,-0.0505 -0.26172,-0.0234 -0.24667,0.0707 -0.36793,0.13161 -0.41993,0.0996 -0.052,-0.0293 -0.0922,-0.11261 -0.0215,-0.22461 0.0733,-0.11467 0.10156,-0.13281 0.10156,-0.13281 0,0 0.23733,0.041 0.36133,0.041 0.12133,0 0.23356,0.0302 0.10156,-0.20312 -0.13466,-0.23867 -0.31937,-1.25318 -0.35937,-1.47852 -0.0427,-0.22533 -0.18359,-0.59578 -1.04492,-0.67578 -0.86267,-0.0813 -1.31555,0.10193 -1.43555,0.30859 -0.124,0.20267 -0.20307,0.6234 -0.31641,0.7754 -0.11466,0.15466 -0.46228,0.4422 -0.23828,0.6582 0.228,0.21333 0.22711,0.29714 0.28711,0.36914 0.0627,0.072 0.29883,0.14453 0.29883,0.14453 0,0 0.063,0.38838 0.15234,0.62305 0.0933,0.236 0.11246,0.37121 0.0645,0.42187 -0.0547,0.0507 -0.45144,0.21416 -0.52344,0.41016 -0.072,0.19333 -0.11323,0.20397 -0.22656,0.30664 l -0.20899,0.18945 c -0.0487,-0.0325 -0.25976,-0.17383 -0.25976,-0.17383 l 0.0918,-0.14453 -0.30664,-0.21289 0.0801,-0.10937 -0.5,-0.3086 c 0,0 -0.0118,-0.0537 -0.0625,-0.0684 -0.0493,-0.016 -0.0898,0.006 -0.0898,0.006 l -0.0625,0.0723 -0.1875,0.0859 -0.27539,-0.17383 -0.0391,0.0312 -2.30078,-1.54688 -0.125,0.004 -0.41992,-0.22461 c 0,0 -0.0549,-0.0945 -0.10156,-0.0332 -0.0453,0.0613 0.0176,0.0879 0.0176,0.0879 l 0.0586,0.0156 0.34766,0.20508 0.0371,0.10742 -0.0723,0.0957 -0.98438,-0.66407 0.21876,-0.52929 -0.17383,-0.17188 -0.32617,0.41602 -0.0645,0.0176 -0.10351,-0.0684 c 0,0 -0.0469,0.0112 -0.10157,0.0605 -0.0533,0.048 -0.0215,0.14649 -0.0215,0.14649 l 0.42383,0.27734 h 0.0371 l 1.4414,1.01367 0.22657,0.20508 c 0,0 1.27721,0.86991 1.31054,0.89258 0.0347,0.0253 0.16985,0.22181 0.22852,0.25781 0.0202,0.0117 0.0973,0.0537 0.18164,0.10352 l -0.12891,0.0156 c 0,0 0.0408,-0.023 -0.0898,0.34766 -0.10179,0.27816 -0.34213,0.83245 -0.44922,1.19726 -0.0188,0.0149 -0.0386,0.0318 -0.0566,0.0449 -0.352,0.26 -1.00195,0.68554 -1.00195,0.68554 l 0.30468,0.64258 c 0,0 0.44096,-0.2453 0.83203,-0.52344 0.12093,0.43218 0.28719,0.95799 0.3379,1.15235 0.0827,0.308 0.55358,0.80874 0.65625,0.83008 0.1,0.0187 1.01581,0.20286 1.50781,0.4082 0.21167,0.088 0.45944,0.2023 0.67969,0.30469 l -0.6211,1.33398 0.46289,0.21484 0.61914,-1.33007 c 0.008,0.004 0.0664,0.0312 0.0664,0.0312 0,0 -0.14095,1.33187 -0.37695,1.67187 -0.23734,0.33733 -0.11328,0.72461 -0.11328,0.72461 l 0.21484,0.0625 v 0.19531 c 0,0 0.0103,0.0518 0.1543,0.0625 0.14266,0.008 0.26812,0.027 0.32812,0.0684 0.0627,0.0427 0.50195,1.92859 0.50195,2.03125 0,0.104 0.13395,0.75866 0.22461,0.86133 0.092,0.104 0.26612,0.28744 0.30078,0.52344 0.0267,0.23466 0.038,0.79769 0.11133,0.92968 0.0707,0.13467 0.5918,0.65637 0.5918,0.70704 0,0.0533 -0.007,0.12346 0.0215,0.21679 0.0307,0.092 0.32828,0.78939 0.34961,1.02539 0.0187,0.236 0.14063,0.76954 0.14063,0.76954 0.0213,0.37866 0.28788,0.5532 -0.0508,1.0332 -0.336,0.48266 -0.9125,1.14648 -0.17383,1.14648 0.736,0 1.12936,-0.32641 1.33203,-0.70508 0.22133,-0.40933 -0.0198,-0.42082 0.37891,-0.41015 0.40133,0.009 0.73787,-1.8e-4 0.92187,-0.21485 0.184,-0.21733 0.43326,-0.83049 0.41992,-0.92382 -0.008,-0.0907 0.0137,-0.34571 0.0137,-0.34571 h 0.18165 c 0,0 0.36044,-0.48323 0.28711,-0.61523 -0.0707,-0.13467 -0.15235,-0.27734 -0.15235,-0.27734 0,0 -0.0409,-0.29816 -0.23828,-0.41016 -0.19333,-0.112 -0.43945,-0.23633 -0.43945,-0.23633 0,0 0.10538,-0.18382 -0.11328,-0.28516 -0.21067,-0.104 -0.44893,-0.0214 -0.6836,-0.4414 -0.23733,-0.42134 -0.6875,-0.82031 -0.6875,-0.82031 0,0 -0.0227,-0.2151 0.0586,-0.3711 0.084,-0.152 -0.10938,-0.48047 -0.10938,-0.48047 0,0 0.0804,-0.34705 0.12305,-0.40039 0.0387,-0.0493 0.29455,-0.34923 0.44922,-0.72656 0.152,-0.38133 0.0112,-0.70668 0.0312,-0.77734 0.0213,-0.072 0.26562,-0.44243 0.26562,-0.48243 0,-0.0427 0.0312,-0.16406 0.0312,-0.16406 0,0 0.35694,-0.0441 0.46094,-0.13476 0.10133,-0.0907 0.0605,-0.22657 0.0605,-0.22657 0,0 0.15499,0.10415 0.23632,0.0215 0.084,-0.0813 0.2066,-0.28617 0.19727,-0.32617 -0.0107,-0.0427 0,-0.1543 0,-0.1543 0,0 0.52082,-0.31819 0.41016,-0.88086 -0.11334,-0.564 -0.16613,-1.28218 -0.2168,-1.46484 -0.052,-0.18667 -0.10362,-0.40839 -0.23828,-0.40039 -0.13067,0.0107 -0.51953,0.11328 -0.51953,0.11328 l 0.12304,-0.25782 -0.23632,-0.21484 c 0,0 0.4197,-0.19633 0.5957,-0.23633 0.172,-0.0413 0.68549,-0.24548 0.79883,-0.52148 0.11066,-0.27734 0.15254,-0.63675 0.0605,-0.83008 -0.092,-0.196 -0.36702,-0.41048 -0.42968,-0.64648 -0.0613,-0.23467 -0.0615,-0.45007 -0.24415,-0.55274 -0.18533,-0.104 -0.74104,-1.03632 -0.87304,-1.09766 -0.13467,-0.0627 -0.103,-0.37752 -0.23633,-0.49218 -0.13467,-0.112 -0.25703,-0.15438 -0.31836,-0.23438 -0.0613,-0.0827 -0.22281,-0.15601 -0.24414,-0.27734 -0.024,-0.12267 -0.42124,-0.48224 -0.50391,-0.49024 -0.0595,-0.008 -0.18095,0.005 -0.28711,-0.0137 l 0.38282,-0.82031 c 0.0587,-0.028 0.16006,-0.0945 0.30273,-0.25586 0.136,-0.156 0.42187,-0.47466 0.64453,-0.72266 0.17867,-0.196 0.31446,-0.3496 0.31446,-0.3496 l 0.0351,-0.0742 -0.01,-0.0391 0.0742,-0.16406 -0.0137,-0.22851 -0.0547,-0.75391 c 0,0 -0.0185,-0.18454 -0.23047,-0.2832 l -0.008,-0.006 c -0.079,-0.038 -0.14898,-0.0456 -0.20703,-0.041 z m -15.50976,0.78516 c -0.48239,-0.004 -0.87016,0.14739 -1.03516,0.47656 -0.26533,0.52533 -0.25812,1.06538 -0.57812,1.10937 -0.316,0.0413 0.25976,0.17774 0.25976,0.17774 0,0 -6e-4,0.10776 0.0527,0.12109 0.0573,0.0133 0.11673,0.0551 0.0527,0.20313 -0.0693,0.148 -0.24023,0.37201 -0.10156,0.41601 0.14266,0.0427 0.16406,0.0625 0.16406,0.0625 l 0.0273,0.0899 c 0,0 -0.0181,0.0534 0.006,0.0801 0.0253,0.024 0.10547,0.0684 0.10547,0.0684 l 0.0215,0.11523 c 0,0 -0.0784,0.0435 -0.0664,0.0742 0.0133,0.0293 0.094,0.0977 0.0566,0.15234 -0.0373,0.0547 -0.092,0.21353 -0.0293,0.26953 0.0587,0.0547 0.32813,0.13477 0.32813,0.13477 0,0 -0.29493,0.18502 -0.43359,0.31836 -0.14267,0.136 -0.25305,0.3254 -0.37305,0.4414 -0.124,0.11734 -0.26508,0.26238 -0.20508,0.37305 0.0627,0.11067 0.0814,0.14012 -0.004,0.18945 -0.0319,0.0169 -0.0933,0.08 -0.16015,0.15039 -0.0321,-0.009 -0.0695,-0.0165 -0.11914,-0.0195 -0.21334,-0.0147 -3.10157,-0.0508 -3.10157,-0.0508 l 0.004,-0.17578 -0.37305,-0.008 0.01,-0.13477 -0.58594,0.0117 c 0,0 -0.0437,-0.0375 -0.0957,-0.0215 -0.0493,0.012 -0.0684,0.0508 -0.0684,0.0508 l -0.0156,0.0977 -0.10937,0.16993 -0.32422,0.006 -0.0176,0.0488 -2.77148,-0.0449 -0.10547,0.0723 -0.4707,0.041 c 0,0 -0.0994,-0.05 -0.10742,0.0274 -0.004,0.0773 0.0684,0.0625 0.0684,0.0625 l 0.0566,-0.0176 0.40234,-0.0176 0.0898,0.0723 -0.01,0.11523 -1.1875,-0.0176 -0.10157,-0.56445 -0.24023,-0.0508 -0.0508,0.52539 -0.043,0.0547 -0.12305,-0.002 c 0,0 -0.0354,0.0342 -0.0527,0.10352 -0.0187,0.072 0.0586,0.13672 0.0586,0.13672 l 0.50586,0.002 0.0371,-0.0195 1.75977,0.0625 0.30078,0.0508 c 0,0 1.54194,0.0319 1.58594,0.0332 0.0413,10e-4 0.26403,0.0931 0.33203,0.0918 0.0676,-0.003 0.63606,-0.0573 0.67968,0.0703 0.005,0.0165 0.008,0.0342 0.01,0.0547 1.5e-4,7.9e-4 -1.5e-4,0.003 0,0.004 0.0136,0.14361 -0.0293,0.36133 -0.0293,0.36133 l 0.0684,0.0215 c 0,0 -0.028,0.22524 -0.0762,0.49609 -0.0535,0.0294 -0.10547,0.0645 -0.10547,0.0977 0,0.053 0.0385,0.11527 0.0547,0.16211 -0.0358,0.16883 -0.0776,0.33479 -0.125,0.46289 -0.156,0.40933 -0.46875,1.12109 -0.46875,1.12109 l 0.60742,0.3711 c 0,0 0.27467,-0.52398 0.45313,-1.00586 l 0.31054,0.0215 c 0,0 0.13735,0.0187 0.27735,0 0.14133,-0.0187 0.28125,-0.0547 0.28125,-0.0547 0,0 0.10468,0.36133 0.30468,0.36133 0.20134,0 0.66407,-0.34375 0.66407,-0.34375 0,0 0.006,-0.12278 0.28711,-0.0508 0.28133,0.0747 0.44426,0.17436 0.57226,0.17969 0.13067,0.005 0.70093,-0.23717 0.82227,-0.0625 0.124,0.17733 0.32617,0.10547 0.32617,0.10547 0,0 -0.3306,0.96271 -0.33594,1.10937 -0.008,0.148 0.0664,0.43946 0.0664,0.43946 0,0 -0.4289,0.74152 -0.49024,0.99218 -0.0627,0.252 -0.054,0.25194 -0.11132,0.33594 -0.0533,0.088 -0.10279,0.25729 -0.18946,0.39063 -0.0867,0.136 -0.0879,0.21093 -0.0879,0.21093 l 0.14844,0.0957 c 0,0 -0.77042,1.72888 -0.84375,1.93554 -0.0747,0.21067 -0.58148,0.79147 -0.52148,1.35547 0.06,0.56267 0.0687,1.0973 0.082,1.16797 0.0107,0.076 0.0805,0.19644 0.0351,0.28711 -0.04,0.0933 -0.14685,0.27543 0.008,0.38477 0.15199,0.112 0.18945,0.096 0.18945,0.19336 0,0.0973 0.0484,0.18804 0.12305,0.24804 0.072,0.0627 0.14648,0.6211 0.14648,0.6211 l 0.11719,0.55664 c 0,0 -0.0511,0.0908 -0.0937,0.16015 -0.044,0.0653 -0.0234,0.13477 -0.0234,0.13477 0,0 -0.0518,0.12617 -0.14648,0.1875 -0.10134,0.0627 -0.33008,0.36133 -0.33008,0.36133 0,0 -0.259,0.22714 -0.375,0.25781 -0.116,0.0307 -0.57032,0.22656 -0.57032,0.22656 0,0 -0.47181,0.0928 -0.50781,0.2461 -0.0387,0.15333 -0.004,0.29296 -0.004,0.29296 l -0.0449,0.11133 c 0,0 0.48198,0.14602 0.69532,0.16602 0.21466,0.0173 1.3431,-0.35267 1.50976,-0.38867 0.16267,-0.0347 0.22655,-0.053 0.31055,-0.041 0.0893,0.012 0.10937,0.14063 0.10937,0.14063 0,0 0.60724,-0.0363 0.75391,-0.0723 0.148,-0.0387 0.15625,-0.1543 0.15625,-0.1543 l -0.0215,-0.22656 -0.0488,-0.0566 c 0,0 0.20787,-0.33531 0.17187,-0.55664 -0.0373,-0.22 -0.13672,-0.46289 -0.13672,-0.46289 0,0 0.0137,-0.35074 -0.0156,-0.44141 -0.0307,-0.0933 0.01,-0.19167 0.01,-0.26367 0,-0.076 -0.0824,-0.28028 -0.0957,-0.34961 -0.0133,-0.068 0.0469,-0.39062 0.0469,-0.39062 0,0 0.32506,-0.45599 0.28906,-0.58399 -0.0373,-0.12933 0.1286,-0.48231 0.0859,-0.57031 -0.044,-0.084 -0.10358,-0.3114 -0.12891,-0.41406 -0.0267,-0.10534 -0.0182,-0.17812 0.0352,-0.30078 0.0547,-0.12267 0.0559,-0.28355 0.0332,-0.43555 -0.024,-0.15333 -0.006,-0.18336 0.28711,-0.30469 0.29467,-0.124 0.99142,-0.83249 1.10742,-1.03516 0.11867,-0.20266 0.48979,-0.86981 0.70313,-0.39648 0.21466,0.46933 0.86608,2.09887 0.96875,2.26953 0.10666,0.17067 0.74788,1.38853 0.81054,1.50586 0.0587,0.116 0.47978,0.38013 0.53711,0.4668 0.0533,0.0853 0.2646,0.66126 0.44727,0.69726 0.184,0.0373 0.46473,-10e-4 0.55273,0.10938 0.0853,0.11067 0.46881,0.50421 0.49414,0.54687 0.024,0.0413 0.0894,0.17134 0.0801,0.25 -0.012,0.08 0.10434,0.1091 0.15234,0.1211 0.0493,0.0133 0.0488,0.28906 0.0488,0.28906 -0.0973,0.312 -0.2568,0.62532 -0.35547,0.72266 -0.0987,0.0973 -0.49581,0.50255 -0.50781,0.58789 -0.0107,0.0853 -0.0301,0.21327 0.11524,0.33593 0.14666,0.12267 0.29399,0.15194 0.47265,0.19727 0.17867,0.0427 0.88744,-0.0743 1.02344,-0.20898 0.13467,-0.13467 0.323,-0.49084 0.375,-0.57618 0.0493,-0.0867 0.041,0.0117 0.041,0.0117 l 0.29883,-0.19531 c 0,0 0.0555,-0.29947 0.0195,-0.35547 -0.0373,-0.0533 0.0111,-0.18897 -0.0195,-0.29297 -0.028,-0.104 -0.17559,-0.24022 -0.18359,-0.32422 -0.005,-0.0867 0.0149,-0.15908 -0.0117,-0.23242 -0.024,-0.0747 -0.11653,-0.12382 -0.14453,-0.14648 -0.032,-0.0253 -0.0399,-0.25275 -0.0879,-0.33008 -0.0493,-0.0813 -0.0106,-0.0645 0.0801,-0.11914 0.092,-0.0547 0.26172,-0.26758 0.26172,-0.26758 0,0 -0.21325,-0.0128 -0.28125,0.006 -0.0667,0.0173 -0.14649,0.0664 -0.14649,0.0664 l -0.0937,-0.043 c 0,0 -0.0397,-0.17134 -0.15039,-0.25 -0.11067,-0.08 -0.16602,-0.3125 -0.16602,-0.3125 l 0.10157,-0.11133 -0.17969,-0.20117 -0.0684,0.0293 -0.0918,-0.14062 -0.10546,0.008 c 0,0 0.0182,-0.73558 -0.0352,-0.90625 -0.0573,-0.172 -0.30751,-0.40888 -0.32617,-0.43555 -0.0187,-0.024 -0.025,-0.2693 -0.0957,-0.30664 -0.076,-0.0373 -0.19336,-0.10937 -0.19336,-0.10937 0,0 -0.0829,-0.31914 -0.0469,-0.61914 0.0373,-0.3 -0.20095,-1.48224 -0.23828,-1.62891 -0.0347,-0.148 0.0357,-0.42757 0.0664,-0.6289 0.032,-0.20134 0.006,-1.17774 0.006,-1.17774 l 0.32422,-0.21484 c 0,0 -0.64628,-1.72515 -0.73828,-2.00781 -0.0947,-0.28134 -0.16601,-0.64844 -0.16601,-0.64844 0,0 0.37357,-0.73506 0.3789,-0.90039 0.005,-0.16534 -0.0132,-0.37367 0.10547,-0.51367 0.11467,-0.14134 0.3417,-0.92582 0.20703,-1.39649 -0.13333,-0.472 -0.45957,-1.39664 -0.6289,-1.55664 -0.172,-0.15867 -0.28976,-0.23339 -0.3711,-0.52539 -0.0787,-0.29467 -0.1384,-0.53358 -0.42773,-0.65625 -0.28934,-0.12133 -0.50198,-0.10964 -0.55664,-0.18164 -0.054,-0.0753 -0.1536,-0.13147 -0.23893,-0.13147 -0.088,0 -0.26351,0.056 -0.32618,0 -0.0573,-0.0533 -0.0963,-0.11528 -0.0723,-0.22461 0.0227,-0.10933 0.043,-0.16601 0.043,-0.16601 l 0.62109,0.0117 c 0,0 -0.21657,-0.47641 -0.25391,-0.59375 -0.036,-0.116 0.2582,-1.3844 -0.61914,-1.67773 -0.3285,-0.1095 -0.65197,-0.16758 -0.9414,-0.16992 z m 24.375,0.23828 c -0.83867,0.0213 -1.33462,-0.0708 -1.75196,0.61719 -0.41733,0.688 -0.43945,1.36523 -0.43945,1.36523 0,0 0.1709,0.0592 0.24024,0.0898 0.0693,0.0293 0.12105,-0.0315 0.15039,0.0898 0.0307,0.12 0.17773,0.19922 0.17773,0.19922 0,0 0.12726,0.31 0.16992,0.38867 0.0413,0.0787 0.11774,0.32989 0.17774,0.47656 0.0613,0.15067 0.14008,0.3391 0.21875,0.37109 0.08,0.0307 0.16211,0.0293 0.16211,0.0293 0,0 -0.43009,0.51849 -0.46875,0.64649 -0.0413,0.12666 -0.17075,0.94593 -0.21875,1.08593 -0.052,0.14134 -0.24099,0.39922 -0.20899,0.56055 0.028,0.156 0.008,0.45449 -0.0215,0.64649 -0.0293,0.18799 -0.15907,0.54648 -0.17774,0.64648 -0.02,0.0987 0.0675,0.15698 0.0781,0.20898 0.0107,0.0507 -0.10902,0.14099 -0.17969,0.20899 -0.0693,0.0707 -0.0776,0.29832 -0.12695,0.34765 -0.0507,0.048 -0.14326,0.0602 -0.16992,0.13086 -0.032,0.0693 0.0477,0.21008 -0.043,0.33008 -0.088,0.11867 -0.39453,0.24571 -0.39453,0.3457 0,0.0987 0.0586,0.26954 0.0586,0.26954 0,0 -0.07,0.11223 -0.14063,0.24023 -0.0411,0.0767 -0.0841,0.12697 -0.10742,0.16992 l -1.47461,0.38086 -0.084,0.0957 -0.44336,0.16796 c 0,0 -0.10904,-0.0259 -0.0957,0.0527 0.016,0.0747 0.0801,0.041 0.0801,0.041 l 0.0508,-0.0312 0.38671,-0.12109 0.10547,0.043 0.0195,0.11523 -1.15039,0.29493 -0.24414,-0.51563 -0.25,0.0176 0.0937,0.51758 -0.0273,0.0644 -0.12109,0.0312 c 0,0 -0.0242,0.0413 -0.0215,0.11328 0,0.072 0.0918,0.11523 0.0918,0.11523 l 0.48828,-0.13085 0.0312,-0.0293 1.71094,-0.4082 0.30664,-0.0312 c 0,0 0.44338,-0.11268 0.86523,-0.21875 0.012,0.0228 0.0276,0.0447 0.0469,0.0625 0.0733,0.0587 0.24023,0.0586 0.24023,0.0586 0,0 0.1324,0.0392 0.17774,0.0606 0.052,0.02 0.13097,-0.0293 0.18164,-0.0293 0.052,0 0.11702,0.0675 0.17968,0.0781 0.0587,0.008 0.11793,-0.0566 0.16993,-0.0566 0.0453,0 0.0456,0.0177 0.12695,0.0391 0.0787,0.0187 0.21094,-0.11133 0.21094,-0.11133 l 0.43554,-0.0742 c 0.007,0.0582 0.0117,0.10547 0.0117,0.10547 l 0.0723,0.002 c 0,0 0.11874,0.80424 0.0801,1.24024 -0.04,0.43733 -0.15235,1.20507 -0.15235,1.20507 l 0.36133,0.10547 c 0.004,0.45136 0.0147,1.32481 0.0469,1.58203 0.04,0.32667 0.0523,1.11403 0.32032,1.44336 0.268,0.328 0.69719,0.82633 0.75586,0.98633 0.06,0.16 0.29879,0.3802 0.46679,0.4082 0.17067,0.0307 0.64899,0.0413 0.84766,0.36133 0.20133,0.316 0.57813,0.44532 0.57813,0.44532 0,0 0.25944,0.29961 0.30078,0.37695 0.0373,0.0827 0.45598,0.34984 0.44531,0.45117 -0.008,0.0973 0.12282,0.98583 0.0215,1.17383 -0.10133,0.19066 -0.34726,0.49103 -0.30859,0.70703 0.04,0.22 0.17773,0.24023 0.17773,0.24023 l 0.0625,0.10938 c 0,0 0.44786,0.16003 0.75586,-0.16797 0.30667,-0.33067 0.41867,-0.65793 0.5,-0.80859 0.0773,-0.14934 0.1875,-0.59961 0.1875,-0.59961 l 0.0996,0.0703 c 0,0 0.34895,-0.51554 0.0996,-0.79688 -0.248,-0.27866 -0.35937,-0.36523 -0.35937,-0.36523 0,0 -0.0499,0.0578 -0.16992,-0.0742 -0.11867,-0.12533 -0.43555,-0.46484 -0.43555,-0.46484 0,0 -0.32173,-0.46043 -0.40039,-0.50977 -0.0813,-0.048 -0.21883,-0.32585 -0.29883,-0.36719 -0.0787,-0.04 -0.34766,-0.35984 -0.34766,-0.47851 0,-0.11733 0.0684,-0.41773 -0.0703,-0.53906 -0.14,-0.11867 -0.20856,-0.36522 -0.33789,-0.44922 -0.132,-0.0787 -0.19165,-0.34763 -0.20898,-0.51563 -0.0213,-0.17066 -0.19134,-0.338 -0.25,-0.38867 -0.06,-0.0493 -0.0796,-0.11942 0.0391,-0.46875 0.12133,-0.34933 0.18942,-0.79782 0.35742,-1.03516 0.17067,-0.23866 0.21875,-0.27148 0.21875,-0.27148 0,0 0.73969,1.20719 0.81836,1.36719 0.0813,0.16 0.5986,1.03292 0.69726,1.18359 0.10134,0.14933 0.26028,0.17792 0.34961,0.66992 0.088,0.48667 0.52696,0.5861 0.62696,0.7461 0.10133,0.15733 0.29051,0.45012 0.47851,0.57812 0.18934,0.12934 0.35742,0.25781 0.35742,0.25781 0.25067,0.38934 0.66875,0.82763 0.83008,1.01563 0.156,0.18933 0.34571,0.51953 0.34571,0.51953 l 0.0918,0.0606 c 0,0 0.0483,0.49628 -0.0117,0.62695 -0.0587,0.12667 -0.18008,0.26652 -0.21875,0.47852 -0.04,0.20533 0,0.24804 0,0.24804 l -0.0391,0.10938 c 0,0 0.50981,0.14823 0.75781,0.10156 0.24667,-0.052 0.59766,-0.33008 0.59766,-0.33008 l 0.29492,-0.31054 c 0,0 -0.0859,-0.23908 -0.0859,-0.31641 0,-0.08 -9.7e-4,-0.28914 -0.0703,-0.36914 -0.0693,-0.0787 -0.29883,-0.49024 -0.29883,-0.49024 0,0 0.0489,-0.30856 -0.14843,-0.47656 -0.2,-0.17066 -0.2997,-0.61809 -0.31836,-0.74609 -0.02,-0.132 -0.0625,-0.55973 -0.20117,-0.65039 -0.14,-0.0867 -0.20989,-0.19775 -0.19922,-0.45508 0.009,-0.26133 -0.0317,-0.4 -0.15039,-0.5 -0.11867,-0.0973 -0.14812,-0.37676 -0.18946,-0.60742 -0.0387,-0.22934 -0.0187,-0.39931 -0.27734,-0.55664 -0.26133,-0.16 -0.38835,-0.49051 -0.42969,-0.83985 -0.0387,-0.34533 -0.34726,-1.15293 -0.44726,-1.32226 -0.1,-0.17067 -0.16797,-0.8086 -0.16797,-0.8086 0,0 0.17918,0.0387 0.22851,-0.0586 0.0493,-0.1 0.0195,-0.28125 0.0195,-0.28125 0,0 0.15821,-0.13597 0.15821,-0.30664 0,-0.168 -0.0605,-0.38672 -0.0605,-0.38672 0,0 0.43012,-0.17079 0.30078,-0.68945 -0.10275,-0.41208 -0.30982,-0.76988 -0.40234,-0.98633 0.007,7.8e-4 0.0391,0.006 0.041,0.006 0.0333,0 0.42621,-0.0351 0.29688,-0.37109 -0.12933,-0.336 -0.14427,-0.33789 -0.21094,-0.56055 -0.0627,-0.22267 -0.0742,-0.27149 -0.0742,-0.27149 0.0227,-0.268 0.0266,-0.46007 -0.19336,-0.4414 -0.0422,0.004 -0.12981,0.0156 -0.21679,0.0273 0.11972,-0.15207 0.14017,-0.20928 0.29882,-0.65039 0.18134,-0.49067 0.2198,-0.68642 0.0918,-0.84375 -0.12933,-0.16133 -0.23883,-0.36954 -0.29883,-0.54687 -0.06,-0.18134 -0.50789,-0.78926 -0.58789,-0.91993 -0.0773,-0.128 -0.59734,-0.71687 -0.63867,-0.79687 -0.0387,-0.08 -0.0377,-0.2473 -0.23633,-0.41797 -0.20133,-0.17067 -0.5891,-0.5013 -0.75976,-0.5293 -0.16934,-0.0293 -0.32824,-0.0581 -0.37891,-0.0781 -0.0493,-0.02 0.0908,-0.29621 -0.14648,-0.4082 -0.244,-0.11067 -0.52016,-0.14122 -0.66016,-0.31055 -0.13867,-0.168 -0.50551,-0.22852 -0.57617,-0.22852 h -0.14844 c 0,0 0.0285,-0.19817 -0.0195,-0.32617 -0.052,-0.12933 -0.20117,-0.23242 -0.20117,-0.23242 0,0 -0.32025,-1.36508 -1.15625,-1.34375 z m -15.95703,4.00781 0.18554,0.082 c 0,0 0,0.0125 0,0.0137 -0.0634,0.13003 -0.23047,0.29883 -0.23047,0.29883 l 0.0488,0.0586 c 0,0 -0.14571,0.17248 -0.33398,0.37304 0.032,-0.0534 0.0601,-0.10275 0.0742,-0.14062 0.04,-0.112 0.25586,-0.68555 0.25586,-0.68555 z m 0.56054,0.85938 c 1.7e-4,10e-5 0.004,0.002 0.004,0.002 l 0.12305,0.14258 c 0,0 -0.12283,0.29814 -0.29883,0.49414 -0.17334,0.19333 -0.0517,0.266 -0.041,0.38867 0.009,0.12267 0.0966,0.14284 0.0312,0.21484 -0.06,0.0733 -0.0699,0.29671 -0.0605,0.35938 0.0107,0.06 0.0187,0.18159 -0.0293,0.29492 -0.052,0.11333 -0.0214,0.22811 0.0586,0.41211 0.0827,0.18267 0.0952,0.27604 0.17383,0.4707 0.0827,0.196 0.48489,0.28516 0.57422,0.28516 0.092,0 0.5644,-0.23312 0.67773,-0.31445 0.0537,-0.0408 0.21265,-0.20936 0.36133,-0.3711 0.14629,0.0256 0.31576,0.0359 0.375,-0.10547 0.0318,0.11401 0.0593,0.23632 0.0488,0.27149 -0.016,0.0693 -0.0985,0.0297 -0.20117,0.0391 -0.10267,0.0107 -0.1632,0.18413 -0.14453,0.32813 0.0227,0.14266 0.0635,0.56478 0.13281,0.80078 0,0 -0.0511,0.0177 -0.31641,-0.1543 -0.26533,-0.176 -1.01372,-0.31847 -1.26172,-0.36914 -0.24533,-0.0507 -0.55251,-0.18484 -0.72851,-0.32617 -0.172,-0.14534 -0.16092,-0.44239 -0.40625,-1.15039 -0.0822,-0.23459 -0.12219,-0.43478 -0.14063,-0.60938 0.0509,-0.0411 0.1015,-0.0812 0.14453,-0.12109 0.39486,-0.36458 0.91053,-0.96685 0.92383,-0.98242 z m -22.64062,1.04296 c -0.87074,0.0253 -1.07479,0.50851 -1.20313,0.75 -0.148,0.27334 -0.48828,0.92188 -0.48828,0.92188 0,0 -0.0102,0.095 0.0645,0.12695 0.072,0.0333 0.23242,0.0742 0.23242,0.0742 l 0.15625,0.27539 c 0,0 -0.0403,0.0757 -0.0137,0.20899 -0.88759,-0.0627 -2.55469,-0.16993 -2.55469,-0.16993 l 0.01,-0.17187 -0.37304,-0.0312 0.0195,-0.13477 -0.58789,-0.0156 c 0,0 -0.0417,-0.0419 -0.0937,-0.0312 -0.0507,0.0133 -0.0703,0.0508 -0.0703,0.0508 l -0.0215,0.0937 -0.11523,0.16602 -0.32813,-0.01 -0.0195,0.0469 -2.76367,-0.18946 -0.10938,0.0645 -0.47461,0.0195 c 0,0 -0.0921,-0.0558 -0.10547,0.0176 -0.0107,0.0787 0.0625,0.0664 0.0625,0.0664 l 0.0566,-0.0137 0.4043,0.006 0.0859,0.0742 -0.0156,0.11718 -1.18554,-0.082 -0.0723,-0.5664 -0.24023,-0.0645 -0.0742,0.52344 -0.0469,0.0488 -0.12109,-0.008 c 0,0 -0.0379,0.0336 -0.0605,0.10156 -0.0187,0.068 0.0566,0.14062 0.0566,0.14063 l 0.50391,0.0273 0.0332,-0.0156 1.75586,0.15235 0.30078,0.0664 c 0,0 1.53813,0.11381 1.57813,0.11914 0.044,0.003 0.26074,0.10281 0.33008,0.10547 0.0213,8.1e-4 0.0919,-2.7e-4 0.17578,0 0.16363,0.21118 0.30121,0.60359 0.37695,0.68555 0.0234,0.0249 0.0605,0.0554 0.10156,0.0859 -0.054,0.26476 -0.15353,0.70991 -0.27343,0.98242 -0.17467,0.40267 -0.52344,1.09375 -0.52344,1.09375 l 0.58594,0.4043 c 0,0 0.47219,-0.79446 0.63086,-1.31446 0.0711,-0.22746 0.13702,-0.50382 0.1914,-0.74804 0.0483,0.0704 0.1187,0.17969 0.18945,0.34179 0.10534,0.24667 -0.15983,0.54177 -0.20117,0.64844 -0.0413,0.10533 -0.0624,0.29641 0.21094,0.45508 0.276,0.16133 0.18147,0.40458 0.24414,0.53125 0.0627,0.12667 0.42367,0.68811 0.625,0.91211 0.2,0.22266 0.45719,0.36026 0.11719,0.43359 -0.33867,0.076 -1.01774,0.0852 -1.17774,0.5625 -0.15733,0.47734 -0.15658,0.88971 -0.16992,0.98438 -0.008,0.0947 -0.22265,0.69051 -0.22265,0.83984 0,0.14667 0.12625,0.54821 0.0449,0.68555 -0.0867,0.13866 -0.10757,0.41435 0.01,0.54101 0.116,0.12534 0.22266,0.31836 0.22266,0.31836 0,0 0.0347,0.46559 0,0.65625 -0.0307,0.19067 -0.0311,0.37316 -0.01,0.42383 0.02,0.0547 0.084,0.39228 0.0293,0.48828 -0.052,0.096 -0.0746,0.19053 -0.0293,0.25586 0.044,0.0613 0.11329,0.18945 0.11329,0.18945 0,0 -0.64396,0.64651 -0.75196,0.70118 -0.10666,0.0507 -0.19077,0.18855 -0.41211,0.19922 -0.22266,0.0107 -1.17591,0.0752 -1.28125,0.16992 -0.10533,0.0947 0.0293,0.41211 0.0293,0.41211 l -0.0703,0.0762 c 0,0 0.0721,0.0615 0.32812,0.10547 0.25467,0.04 1.21588,0.16783 1.67188,0.0625 0.45733,-0.10534 0.98633,-0.22266 0.98633,-0.22266 l 0.01,0.18945 c 0,0 0.7126,0.0665 0.80859,0.0332 0.092,-0.032 0.14649,-0.27344 0.14649,-0.27344 0,0 0.10473,-0.0139 0.0527,-0.22461 -0.0533,-0.212 -0.0422,-0.83611 -0.0742,-0.91211 -0.0333,-0.0733 -0.10546,-0.30664 -0.10546,-0.30664 0,0 0.28708,-0.38115 0.23242,-0.64648 -0.052,-0.26267 -0.1708,-1.00722 0.0332,-1.06055 0.20133,-0.052 0.44473,-0.23346 0.41406,-0.32813 -0.0307,-0.0947 -0.0147,-0.12603 0.0293,-0.2207 0.0427,-0.096 0.13794,-0.30727 0.0859,-0.44727 -0.0547,-0.13599 -4.5e-4,-0.17998 0.0742,-0.22265 0.072,-0.04 0.0859,-0.2207 0.0859,-0.2207 0,0 0.79161,-0.0199 0.96094,0.10546 0.17067,0.12667 0.41422,0.0758 0.57422,0.0625 0.15733,-0.0107 0.45598,-0.0524 0.44531,0.12891 -0.0107,0.18133 -0.12653,0.65712 0.10547,0.81445 0.232,0.16 0.25195,0.17188 0.25195,0.17188 0.0213,0.49733 0.31954,2.93608 0.65821,3.21875 0.34133,0.28933 1.10315,0.18267 1.53515,0 0.43734,-0.17733 1.24219,-0.67578 1.24219,-0.67578 0,0 0.12963,0.0403 0.26563,-0.15039 0.13733,-0.19067 0.29329,-0.35925 0.39062,-0.39258 0.0947,-0.0307 0.18281,-0.11613 0.24414,0.0332 0.064,0.14667 -0.11628,0.38116 -0.12695,0.42383 -0.0107,0.0427 -0.33956,0.82426 0.28711,0.79492 0.624,-0.0347 0.79325,-0.0336 0.91992,-0.26562 0.13067,-0.232 0.25616,-1.02719 0.16016,-1.22852 -0.0947,-0.2 0.0547,-0.2539 0.0547,-0.2539 0,0 -0.0562,-0.73198 -0.13086,-0.80665 -0.0747,-0.0747 -0.3164,-0.084 -0.3164,-0.084 0,0 -0.13538,-0.14622 -0.35938,-0.0742 -0.22266,0.0747 -0.77343,0.13867 -0.77343,0.13867 l -1.31446,0.32813 0.26563,-0.9668 0.29687,-0.0391 c 0,0 0.0533,-0.74531 0.0293,-0.94531 -0.02,-0.20134 -0.0195,-0.44336 -0.0195,-0.44336 0,0 0.64455,-0.11908 0.69922,-0.95508 0.0533,-0.83467 -0.076,-0.8041 -0.0547,-0.9961 0.0227,-0.18933 0.10937,-0.63671 0.10937,-0.63671 10e-6,0 0.20073,-0.63314 -0.0859,-0.73047 -0.28934,-0.0947 -0.82813,-0.11524 -0.82813,-0.11524 0,0 -0.1561,-0.38148 -0.13476,-0.52148 0.0187,-0.13733 0.3248,-0.58248 0.35547,-0.86914 0.0333,-0.28667 0.10833,-1.35456 0.0137,-1.58789 -0.0947,-0.23334 -0.52012,-0.65522 -0.55078,-0.69922 -0.032,-0.0413 0.0745,-0.19064 -0.10547,-0.30664 -0.18134,-0.116 -0.85876,-0.75406 -0.9961,-0.77539 -0.13866,-0.0213 -0.30756,0.0304 -0.35156,0.0957 -0.04,0.064 -0.041,-0.13506 -0.0957,-0.40039 -0.052,-0.268 -0.0408,-1.42259 -1.27149,-1.55859 -0.15333,-0.0172 -0.29162,-0.0231 -0.41601,-0.0195 z m -3.52149,3.66602 c 0.0677,0.0263 0.13133,0.0663 0.15625,0.12891 0.0587,0.15733 0.18507,0.28506 0.42774,0.28906 0.244,0.008 0.34768,-9.2e-4 0.40234,-0.0449 0.052,-0.044 0.14493,-0.0703 0.1836,-0.0449 0.0278,0.0203 0.12718,0.10963 0.22656,0.26562 -0.0236,0.0795 -0.0521,0.16074 -0.084,0.19727 -0.076,0.0853 -0.16029,0.26608 -0.26562,0.46875 L 386.11719,603 c 0,0 -0.10621,-0.3711 -0.15821,-0.50977 -0.0533,-0.13733 -0.24251,-0.21036 -0.33984,-0.31835 -0.0672,-0.0737 -0.0858,-0.12243 -0.0918,-0.17774 z m 32.15039,7.9082 c 0,0 0.61509,0.52265 0.59375,0.58399 -0.0187,0.0613 -8.6e-4,0.22769 -0.0195,0.31836 -0.02,0.092 -0.0928,0.24694 -0.13281,0.34961 -0.0413,0.1 -0.27573,0.42895 -0.28906,0.37695 -0.008,-0.0493 -0.10113,-0.65483 -0.0918,-0.79883 0.0107,-0.14266 -0.0299,-0.61674 -0.0605,-0.83008 z"
           transform="matrix(0.75000002,0,0,-0.75000002,92.620513,865.32671)" />
        <path
           id="path16526"
           style="fill:#000000;fill-opacity:1;fill-rule:evenodd;stroke:none;stroke-width:1.33333"
           d="m 333.63867,592.17969 c -0.48238,-0.004 -0.87015,0.14739 -1.03515,0.47656 -0.26534,0.52533 -0.25813,1.06538 -0.57813,1.10937 -0.316,0.0413 0.25781,0.17774 0.25781,0.17774 0,0 10e-4,0.10776 0.0547,0.12109 0.0573,0.0133 0.11478,0.0551 0.0508,0.20313 -0.0693,0.148 -0.23827,0.37201 -0.0996,0.41601 0.14267,0.0427 0.16407,0.0625 0.16406,0.0625 l 0.0274,0.0899 c 0,0 -0.0201,0.0534 0.004,0.0801 0.0253,0.024 0.10546,0.0684 0.10546,0.0684 l 0.0234,0.11523 c 0,0 -0.0784,0.0435 -0.0664,0.0742 0.0133,0.0293 0.094,0.0977 0.0566,0.15234 -0.0373,0.0547 -0.092,0.21353 -0.0293,0.26953 0.0587,0.0547 0.32812,0.13477 0.32812,0.13477 0,0 -0.29492,0.18502 -0.43359,0.31836 -0.14267,0.136 -0.25305,0.3254 -0.37305,0.4414 -0.124,0.11734 -0.26507,0.26238 -0.20508,0.37305 0.0627,0.11067 0.0814,0.14012 -0.004,0.18945 -0.032,0.0169 -0.0951,0.0798 -0.16211,0.15039 -0.0321,-0.009 -0.0676,-0.0165 -0.11719,-0.0195 -0.21333,-0.0147 -3.10156,-0.0508 -3.10156,-0.0508 l 0.002,-0.17578 -0.37304,-0.008 0.0117,-0.13477 -0.58593,0.0117 c 0,0 -0.0437,-0.0375 -0.0957,-0.0215 -0.0493,0.012 -0.0703,0.0508 -0.0703,0.0508 l -0.0137,0.0977 -0.10938,0.16993 -0.32421,0.006 -0.0176,0.0488 -2.77149,-0.0449 -0.10742,0.0723 -0.4707,0.041 c 0,0 -0.0988,-0.05 -0.10547,0.0274 -0.005,0.0773 0.0684,0.0625 0.0684,0.0625 l 0.0566,-0.0176 0.40039,-0.0176 0.0918,0.0723 -0.0117,0.11523 -1.18555,-0.0176 -0.10156,-0.56445 -0.24219,-0.0508 -0.0488,0.52539 -0.043,0.0547 -0.12304,-0.002 c 0,0 -0.0354,0.0342 -0.0527,0.10352 -0.0187,0.072 0.0586,0.13672 0.0586,0.13672 l 0.50586,0.002 0.0371,-0.0195 1.75781,0.0625 0.30273,0.0508 c 0,0 1.54194,0.0319 1.58594,0.0332 0.0413,10e-4 0.26403,0.0931 0.33203,0.0918 0.0676,-0.003 0.63607,-0.0573 0.67969,0.0703 0.005,0.0165 0.008,0.0342 0.01,0.0547 1.5e-4,7.9e-4 -1.5e-4,0.003 0,0.004 0.0136,0.14361 -0.0312,0.36133 -0.0312,0.36133 l 0.0703,0.0215 c 0,0 -0.03,0.22521 -0.0781,0.49609 -0.0526,0.0292 -0.10156,0.0648 -0.10156,0.0977 0,0.053 0.0369,0.11528 0.0527,0.16211 -0.0358,0.16883 -0.0776,0.33479 -0.125,0.46289 -0.156,0.40933 -0.46875,1.12109 -0.46875,1.12109 l 0.60743,0.3711 c 0,0 0.27466,-0.52398 0.45312,-1.00586 l 0.31055,0.0215 c 0,0 0.13734,0.0187 0.27734,0 0.14133,-0.0187 0.28125,-0.0547 0.28125,-0.0547 0,0 0.10469,0.36133 0.30469,0.36133 0.20133,0 0.66406,-0.34375 0.66406,-0.34375 0,0 0.006,-0.12278 0.28711,-0.0508 0.28133,0.0747 0.44427,0.17436 0.57227,0.17969 0.13066,0.005 0.70093,-0.23717 0.82226,-0.0625 0.124,0.17733 0.32422,0.10547 0.32422,0.10547 0,0 -0.32865,0.96271 -0.33398,1.10937 -0.008,0.148 0.0644,0.43946 0.0644,0.43946 0,0 -0.42695,0.74152 -0.48828,0.99218 -0.0627,0.252 -0.0553,0.25194 -0.11133,0.33594 -0.0547,0.088 -0.10279,0.25729 -0.18945,0.39063 -0.0867,0.136 -0.0879,0.21093 -0.0879,0.21093 l 0.14843,0.0957 c 0,0 -0.77041,1.72888 -0.84375,1.93554 -0.0747,0.21067 -0.58148,0.79147 -0.52148,1.35547 0.06,0.56267 0.0687,1.0973 0.082,1.16797 0.0107,0.076 0.0785,0.19644 0.0332,0.28711 -0.04,0.0933 -0.14685,0.27543 0.008,0.38477 0.152,0.112 0.18945,0.096 0.18945,0.19336 0,0.0973 0.0503,0.18804 0.125,0.24804 0.072,0.0627 0.14648,0.6211 0.14648,0.6211 l 0.11524,0.55664 c 0,0 -0.0491,0.0908 -0.0918,0.16015 -0.044,0.0653 -0.0234,0.13477 -0.0234,0.13477 0,0 -0.0518,0.12617 -0.14648,0.1875 -0.10133,0.0627 -0.33008,0.36133 -0.33008,0.36133 0,0 -0.259,0.22714 -0.375,0.25781 -0.116,0.0307 -0.57031,0.22656 -0.57031,0.22656 0,0 -0.47181,0.0928 -0.50781,0.2461 -0.0387,0.15333 -0.006,0.29296 -0.006,0.29296 l -0.043,0.11133 c 0,0 0.48198,0.14602 0.69531,0.16602 0.21467,0.0173 1.3431,-0.35267 1.50977,-0.38867 0.16266,-0.0347 0.22459,-0.053 0.30859,-0.041 0.0893,0.012 0.11133,0.14063 0.11133,0.14063 0,0 0.60724,-0.0363 0.7539,-0.0723 0.148,-0.0387 0.15625,-0.1543 0.15625,-0.1543 l -0.0215,-0.22656 -0.0508,-0.0566 c 0,0 0.20983,-0.33531 0.17383,-0.55664 -0.0373,-0.22 -0.13672,-0.46289 -0.13672,-0.46289 0,0 0.0137,-0.35074 -0.0156,-0.44141 -0.0307,-0.0933 0.01,-0.19167 0.01,-0.26367 0,-0.076 -0.0843,-0.28028 -0.0977,-0.34961 -0.0133,-0.068 0.0508,-0.39062 0.0508,-0.39062 0,0 0.32311,-0.45599 0.28711,-0.58399 -0.0373,-0.12933 0.12861,-0.48231 0.0859,-0.57031 -0.044,-0.084 -0.10357,-0.3114 -0.12891,-0.41406 -0.0267,-0.10534 -0.0182,-0.17812 0.0352,-0.30078 0.0547,-0.12267 0.0539,-0.28355 0.0312,-0.43555 -0.024,-0.15333 -0.004,-0.18336 0.28906,-0.30469 0.29467,-0.124 0.98947,-0.83249 1.10547,-1.03516 0.11867,-0.20266 0.49175,-0.86981 0.70508,-0.39648 0.21467,0.46933 0.86413,2.09887 0.9668,2.26953 0.10666,0.17067 0.74788,1.38853 0.81054,1.50586 0.0587,0.116 0.48173,0.38013 0.53907,0.4668 0.0533,0.0853 0.26264,0.66126 0.44531,0.69726 0.184,0.0373 0.46669,-10e-4 0.55469,0.10938 0.0853,0.11067 0.4688,0.50421 0.49414,0.54687 0.024,0.0413 0.0894,0.17134 0.0801,0.25 -0.012,0.08 0.10435,0.1091 0.15235,0.1211 0.0493,0.0133 0.0488,0.28906 0.0488,0.28906 -0.0973,0.312 -0.25681,0.62532 -0.35547,0.72266 -0.0987,0.0973 -0.49581,0.50255 -0.50781,0.58789 -0.0107,0.0853 -0.0301,0.21327 0.11523,0.33593 0.14667,0.12267 0.29399,0.15194 0.47266,0.19727 0.17866,0.0427 0.88743,-0.0743 1.02343,-0.20898 0.13467,-0.13467 0.323,-0.49084 0.375,-0.57618 0.0493,-0.0867 0.041,0.0117 0.041,0.0117 l 0.29883,-0.19531 c 0,0 0.0555,-0.29947 0.0195,-0.35547 -0.0373,-0.0533 0.0111,-0.18897 -0.0195,-0.29297 -0.028,-0.104 -0.1756,-0.24022 -0.1836,-0.32422 -0.005,-0.0867 0.013,-0.15908 -0.0137,-0.23242 -0.024,-0.0747 -0.11458,-0.12382 -0.14258,-0.14648 -0.032,-0.0253 -0.0399,-0.25275 -0.0879,-0.33008 -0.0493,-0.0813 -0.0106,-0.0645 0.0801,-0.11914 0.092,-0.0547 0.26172,-0.26758 0.26172,-0.26758 0,0 -0.21325,-0.0128 -0.28125,0.006 -0.0667,0.0173 -0.14648,0.0664 -0.14648,0.0664 l -0.0937,-0.043 c 0,0 -0.0417,-0.17134 -0.15235,-0.25 -0.11066,-0.08 -0.16406,-0.3125 -0.16406,-0.3125 l 0.10156,-0.11133 -0.18164,-0.20117 -0.0664,0.0293 -0.0918,-0.14062 -0.10547,0.008 c 0,0 0.0182,-0.73558 -0.0352,-0.90625 -0.0573,-0.172 -0.3075,-0.40888 -0.32617,-0.43555 -0.0187,-0.024 -0.027,-0.2693 -0.0977,-0.30664 -0.076,-0.0373 -0.1914,-0.10937 -0.1914,-0.10937 0,0 -0.0829,-0.31914 -0.0469,-0.61914 0.0373,-0.3 -0.2029,-1.48224 -0.24023,-1.62891 -0.0347,-0.148 0.0377,-0.42757 0.0684,-0.6289 0.032,-0.20134 0.006,-1.17774 0.006,-1.17774 l 0.32422,-0.21484 c 0,0 -0.64628,-1.72515 -0.73828,-2.00781 -0.0947,-0.28134 -0.16602,-0.64844 -0.16602,-0.64844 0,0 0.37357,-0.73506 0.37891,-0.90039 0.005,-0.16534 -0.0132,-0.37367 0.10546,-0.51367 0.11467,-0.14134 0.3417,-0.92582 0.20704,-1.39649 -0.13334,-0.472 -0.46153,-1.39664 -0.63086,-1.55664 -0.172,-0.15867 -0.28781,-0.23339 -0.36914,-0.52539 -0.0787,-0.29467 -0.1384,-0.53358 -0.42774,-0.65625 -0.28933,-0.12133 -0.50197,-0.10964 -0.55664,-0.18164 C 335.37245,595.05619 335.27283,595 335.1875,595 c -0.088,0 -0.26546,0.056 -0.32812,0 -0.0573,-0.0533 -0.0943,-0.11528 -0.0703,-0.22461 0.0227,-0.10933 0.043,-0.16601 0.043,-0.16601 l 0.61914,0.0117 c 0,0 -0.21462,-0.47641 -0.25195,-0.59375 -0.036,-0.116 0.25819,-1.3844 -0.61914,-1.67773 -0.3285,-0.1095 -0.65198,-0.16758 -0.94141,-0.16992 z m 11.98633,0.0781 c -0.66608,-0.0167 -1.02391,0.14534 -1.12891,0.32617 -0.124,0.20267 -0.20502,0.6234 -0.31836,0.7754 -0.11466,0.15466 -0.46032,0.4422 -0.23632,0.6582 0.228,0.21333 0.22711,0.29714 0.28711,0.36914 0.0627,0.072 0.29687,0.14453 0.29687,0.14453 0,0 0.063,0.38838 0.15234,0.62305 0.0933,0.236 0.11441,0.37121 0.0664,0.42187 -0.0547,0.0507 -0.45339,0.21416 -0.52539,0.41016 -0.072,0.19333 -0.11323,0.20397 -0.22656,0.30664 l -0.20703,0.19141 c -0.0495,-0.0331 -0.26172,-0.17579 -0.26172,-0.17579 l 0.0918,-0.14453 -0.30664,-0.21289 0.082,-0.10937 -0.5,-0.3086 c 0,0 -0.0138,-0.0537 -0.0645,-0.0684 -0.0493,-0.016 -0.0879,0.006 -0.0879,0.006 l -0.0644,0.0723 -0.18555,0.0859 -0.27539,-0.17383 -0.0391,0.0312 -2.30078,-1.54688 -0.12696,0.004 -0.41992,-0.22461 c 0,0 -0.0549,-0.0945 -0.10156,-0.0332 -0.0453,0.0613 0.0176,0.0879 0.0176,0.0879 l 0.0605,0.0156 0.34766,0.20508 0.0352,0.10742 -0.0703,0.0957 -0.98437,-0.66407 0.21875,-0.52929 -0.17383,-0.17188 -0.32617,0.41602 -0.0664,0.0176 -0.10156,-0.0684 c 0,0 -0.0469,0.0112 -0.10156,0.0605 -0.0533,0.048 -0.0234,0.14649 -0.0234,0.14649 l 0.42578,0.27734 h 0.0352 l 1.4414,1.01367 0.22657,0.20508 c 0,0 1.27916,0.86991 1.3125,0.89258 0.0347,0.0253 0.16985,0.22181 0.22851,0.25781 0.0203,0.0117 0.095,0.0554 0.17969,0.10547 l -0.12695,0.0137 c 0,0 0.0408,-0.023 -0.0898,0.34766 -0.1016,0.27765 -0.34183,0.83048 -0.44922,1.19531 -0.0194,0.0154 -0.04,0.0333 -0.0586,0.0469 -0.352,0.26 -1,0.68554 -1,0.68554 l 0.30469,0.64258 c 0,0 0.44066,-0.24495 0.83203,-0.52344 0.12092,0.43213 0.2872,0.95803 0.33789,1.15235 0.0827,0.308 0.55358,0.80874 0.65625,0.83008 0.1,0.0187 1.01581,0.20286 1.50781,0.4082 0.49067,0.204 1.20508,0.55469 1.20508,0.55469 0,0 -0.139,1.33187 -0.375,1.67187 -0.23733,0.33733 -0.11328,0.72461 -0.11328,0.72461 l 0.21289,0.0625 v 0.19531 c 0,0 0.0103,0.0518 0.1543,0.0625 0.14266,0.008 0.26812,0.027 0.32812,0.0684 0.0627,0.0427 0.50391,1.92859 0.50391,2.03125 0,0.104 0.13394,0.75866 0.22461,0.86133 0.092,0.104 0.26611,0.28744 0.30078,0.52344 0.0267,0.23466 0.036,0.79769 0.10937,0.92968 0.0707,0.13467 0.59375,0.65637 0.59375,0.70704 0,0.0533 -0.008,0.12346 0.0195,0.21679 0.0307,0.092 0.33022,0.78939 0.35156,1.02539 0.0187,0.236 0.14062,0.76954 0.14062,0.76954 0.0213,0.37866 0.28593,0.5532 -0.0527,1.0332 -0.336,0.48266 -0.91054,1.14648 -0.17188,1.14648 0.736,0 1.12937,-0.32641 1.33203,-0.70508 0.22134,-0.40933 -0.0198,-0.42082 0.37891,-0.41015 0.4,0.009 0.73788,-1.8e-4 0.92188,-0.21485 0.184,-0.21733 0.43325,-0.83049 0.41992,-0.92382 -0.008,-0.0907 0.0137,-0.34571 0.0137,-0.34571 H 350.5 c 0,0 0.35849,-0.48323 0.28516,-0.61523 -0.0707,-0.13467 -0.15039,-0.27734 -0.15039,-0.27734 0,0 -0.041,-0.29816 -0.23829,-0.41016 -0.19333,-0.112 -0.4414,-0.23633 -0.4414,-0.23633 0,0 0.10405,-0.18382 -0.11328,-0.28516 -0.21067,-0.104 -0.44698,-0.0214 -0.68164,-0.4414 -0.23734,-0.42134 -0.6875,-0.82031 -0.6875,-0.82031 0,0 -0.0227,-0.2151 0.0586,-0.3711 0.084,-0.152 -0.11133,-0.48047 -0.11133,-0.48047 0,0 0.0823,-0.34705 0.125,-0.40039 0.0387,-0.0493 0.29455,-0.34923 0.44922,-0.72656 0.152,-0.38133 0.0112,-0.70668 0.0312,-0.77734 0.0213,-0.072 0.26563,-0.44243 0.26563,-0.48243 0,-0.0427 0.0312,-0.16406 0.0312,-0.16406 0,0 0.35693,-0.0441 0.46093,-0.13476 0.10134,-0.0907 0.0586,-0.22657 0.0586,-0.22657 0,0 0.15694,0.10415 0.23828,0.0215 0.084,-0.0813 0.2066,-0.28617 0.19726,-0.32617 -0.0107,-0.0427 0,-0.1543 0,-0.1543 0,0 0.51887,-0.31819 0.40821,-0.88086 -0.11334,-0.564 -0.16418,-1.28218 -0.21485,-1.46484 -0.052,-0.18667 -0.10556,-0.40839 -0.24023,-0.40039 -0.13067,0.0107 -0.51953,0.11328 -0.51953,0.11328 l 0.125,-0.25782 -0.23828,-0.21484 c 0,0 0.4197,-0.19633 0.5957,-0.23633 0.172,-0.0413 0.68745,-0.24548 0.80078,-0.52148 0.11067,-0.27734 0.15255,-0.63675 0.0605,-0.83008 -0.092,-0.196 -0.36898,-0.41048 -0.43164,-0.64648 -0.0613,-0.23467 -0.0615,-0.45007 -0.24414,-0.55274 -0.18534,-0.104 -0.7391,-1.03632 -0.8711,-1.09766 -0.13466,-0.0627 -0.10495,-0.37752 -0.23828,-0.49218 -0.13467,-0.112 -0.25507,-0.15438 -0.31641,-0.23438 -0.0613,-0.0827 -0.22476,-0.15601 -0.24609,-0.27734 -0.024,-0.12267 -0.41929,-0.48224 -0.50195,-0.49024 -0.0827,-0.0107 -0.28706,0.0193 -0.40039,-0.0527 -0.11334,-0.072 -0.34842,-0.31747 -0.59375,-0.24414 -0.24667,0.0707 -0.36792,0.13161 -0.41992,0.0996 -0.052,-0.0293 -0.0922,-0.11261 -0.0215,-0.22461 0.0733,-0.11467 0.10352,-0.13281 0.10352,-0.13281 0,0 0.23537,0.041 0.35937,0.041 0.12134,0 0.23552,0.0302 0.10352,-0.20312 -0.13467,-0.23867 -0.32133,-1.25318 -0.36133,-1.47852 -0.0427,-0.22533 -0.18359,-0.59578 -1.04492,-0.67578 -0.10784,-0.0102 -0.20954,-0.0152 -0.30469,-0.0176 z m 12.61914,0.16016 c -0.83867,0.0213 -1.33657,-0.0708 -1.75391,0.61719 -0.41733,0.688 -0.43945,1.36523 -0.43945,1.36523 0,0 0.1709,0.0592 0.24024,0.0898 0.0693,0.0293 0.12105,-0.0315 0.15039,0.0898 0.0307,0.12 0.17773,0.19922 0.17773,0.19922 0,0 0.12921,0.31 0.17188,0.38867 0.0413,0.0787 0.11578,0.32989 0.17578,0.47656 0.0613,0.15067 0.14008,0.3391 0.21875,0.37109 0.08,0.0307 0.16211,0.0293 0.16211,0.0293 0,0 -0.43009,0.51849 -0.46875,0.64649 -0.0413,0.12666 -0.17075,0.94593 -0.21875,1.08593 -0.052,0.14134 -0.24099,0.39922 -0.20899,0.56055 0.028,0.156 0.008,0.45449 -0.0215,0.64649 -0.0293,0.18799 -0.15712,0.54648 -0.17578,0.64648 -0.02,0.0987 0.0655,0.15698 0.0762,0.20898 0.0107,0.0507 -0.10707,0.14099 -0.17774,0.20899 -0.0693,0.0707 -0.0796,0.29832 -0.1289,0.34765 -0.0507,0.048 -0.14192,0.0602 -0.16992,0.13086 -0.0307,0.0693 0.0496,0.21008 -0.041,0.33008 -0.088,0.11867 -0.39648,0.24571 -0.39648,0.3457 0,0.0987 0.0586,0.26954 0.0586,0.26954 0,0 -0.07,0.11223 -0.14063,0.24023 -0.041,0.0765 -0.0821,0.12702 -0.10546,0.16992 l -1.47657,0.38086 -0.084,0.0957 -0.44336,0.16796 c 0,0 -0.10904,-0.0259 -0.0957,0.0527 0.016,0.0747 0.082,0.041 0.082,0.041 l 0.0508,-0.0312 0.38476,-0.12109 0.10547,0.043 0.0195,0.11523 -1.15039,0.29493 -0.24414,-0.51563 -0.25,0.0176 0.0937,0.51758 -0.0273,0.0644 -0.12109,0.0312 c 0,0 -0.0242,0.0413 -0.0215,0.11328 0,0.072 0.0937,0.11523 0.0937,0.11523 l 0.48633,-0.13085 0.0312,-0.0293 1.71289,-0.4082 0.30469,-0.0312 c 0,0 0.44338,-0.11268 0.86523,-0.21875 0.0121,0.0228 0.0276,0.0447 0.0469,0.0625 0.0733,0.0587 0.24218,0.0586 0.24218,0.0586 0,0 0.13045,0.0392 0.17579,0.0606 0.052,0.02 0.13097,-0.0293 0.18164,-0.0293 0.052,0 0.11702,0.0675 0.17968,0.0781 0.0587,0.008 0.11988,-0.0566 0.17188,-0.0566 0.0453,0 0.0456,0.0177 0.12695,0.0391 0.0787,0.0187 0.20899,-0.11133 0.20899,-0.11133 l 0.43554,-0.0742 c 0.007,0.0582 0.0117,0.10547 0.0117,0.10547 l 0.0742,0.002 c 0,0 0.11679,0.80424 0.0781,1.24024 -0.04,0.43733 -0.15235,1.20507 -0.15235,1.20507 l 0.36133,0.10547 c 0.004,0.45136 0.0167,1.32481 0.0488,1.58203 0.04,0.32667 0.0504,1.11403 0.31836,1.44336 0.268,0.328 0.69914,0.82633 0.75781,0.98633 0.06,0.16 0.2988,0.3802 0.4668,0.4082 0.17066,0.0307 0.64703,0.0413 0.8457,0.36133 0.2,0.316 0.57812,0.44532 0.57812,0.44532 0,0 0.26141,0.29961 0.30274,0.37695 0.0373,0.0827 0.45598,0.34984 0.44531,0.45117 -0.008,0.0973 0.12282,0.98583 0.0215,1.17383 -0.10134,0.19066 -0.34984,0.49103 -0.3125,0.70703 0.0413,0.22 0.17968,0.24023 0.17968,0.24023 l 0.0625,0.10938 c 0,0 0.44982,0.16003 0.75782,-0.16797 0.30666,-0.33067 0.41671,-0.65793 0.49804,-0.80859 0.0773,-0.14934 0.1875,-0.59961 0.1875,-0.59961 l 0.0996,0.0703 c 0,0 0.34895,-0.51554 0.0996,-0.79688 -0.248,-0.27866 -0.35937,-0.36523 -0.35937,-0.36523 0,0 -0.048,0.0578 -0.16797,-0.0742 -0.11867,-0.12533 -0.4375,-0.46484 -0.4375,-0.46484 0,0 -0.31977,-0.46043 -0.39844,-0.50977 -0.0813,-0.048 -0.22078,-0.32585 -0.30078,-0.36719 -0.0787,-0.04 -0.34766,-0.35984 -0.34766,-0.47851 0,-0.11733 0.0684,-0.41773 -0.0703,-0.53906 -0.14,-0.11867 -0.20856,-0.36522 -0.33789,-0.44922 -0.132,-0.0787 -0.1897,-0.34763 -0.20703,-0.51563 -0.0213,-0.17066 -0.19329,-0.338 -0.25195,-0.38867 -0.06,-0.0493 -0.0796,-0.11942 0.0391,-0.46875 0.12,-0.34933 0.19137,-0.79782 0.35937,-1.03516 0.17067,-0.23866 0.21875,-0.27148 0.21875,-0.27148 0,0 0.73774,1.20719 0.81641,1.36719 0.0813,0.16 0.5986,1.03292 0.69727,1.18359 0.10133,0.14933 0.26222,0.17792 0.35156,0.66992 0.088,0.48667 0.525,0.5861 0.625,0.7461 0.10133,0.15733 0.29051,0.45012 0.47851,0.57812 0.18934,0.12934 0.35938,0.25781 0.35938,0.25781 0.25066,0.38934 0.66679,0.82763 0.82812,1.01563 0.156,0.18933 0.34766,0.51953 0.34766,0.51953 l 0.0898,0.0606 c 0,0 0.0502,0.49628 -0.01,0.62695 -0.0587,0.12667 -0.18009,0.26652 -0.21875,0.47852 -0.04,0.20533 0,0.24804 0,0.24804 l -0.041,0.10938 c 0,0 0.50981,0.14823 0.75781,0.10156 0.24667,-0.052 0.59766,-0.33008 0.59766,-0.33008 l 0.29492,-0.31054 c 0,0 -0.0859,-0.23908 -0.0859,-0.31641 0,-0.08 -9.8e-4,-0.28914 -0.0703,-0.36914 -0.0693,-0.0787 -0.29883,-0.49024 -0.29883,-0.49024 0,0 0.0489,-0.30856 -0.14843,-0.47656 -0.2,-0.17066 -0.2997,-0.61809 -0.31836,-0.74609 -0.02,-0.132 -0.0625,-0.55973 -0.20117,-0.65039 -0.14134,-0.0867 -0.20794,-0.19775 -0.19727,-0.45508 0.009,-0.26133 -0.0317,-0.4 -0.15039,-0.5 -0.11867,-0.0973 -0.15007,-0.37676 -0.19141,-0.60742 -0.0387,-0.22934 -0.0167,-0.39931 -0.27539,-0.55664 -0.26133,-0.16 -0.3903,-0.49051 -0.43164,-0.83985 -0.0387,-0.34533 -0.34726,-1.15293 -0.44726,-1.32226 -0.1,-0.17067 -0.16797,-0.8086 -0.16797,-0.8086 0,0 0.17918,0.0387 0.22851,-0.0586 0.0493,-0.1 0.0195,-0.28125 0.0195,-0.28125 0,0 0.15821,-0.13597 0.15821,-0.30664 0,-0.168 -0.0605,-0.38672 -0.0605,-0.38672 0,0 0.43012,-0.17079 0.30078,-0.68945 -0.10275,-0.41208 -0.30982,-0.76988 -0.40234,-0.98633 0.007,7.8e-4 0.0391,0.006 0.041,0.006 0.0333,0 0.42621,-0.0351 0.29688,-0.37109 -0.12933,-0.336 -0.14427,-0.33789 -0.21094,-0.56055 -0.0627,-0.22267 -0.0742,-0.27149 -0.0742,-0.27149 0.0227,-0.268 0.0266,-0.46007 -0.19336,-0.4414 -0.0422,0.004 -0.12981,0.0156 -0.21679,0.0273 0.12014,-0.15253 0.13997,-0.20871 0.29882,-0.65039 0.18134,-0.49067 0.2198,-0.68642 0.0918,-0.84375 -0.12933,-0.16133 -0.23883,-0.36954 -0.29883,-0.54687 -0.06,-0.18134 -0.50789,-0.78926 -0.58789,-0.91993 -0.0773,-0.128 -0.59538,-0.71687 -0.63672,-0.79687 -0.0387,-0.08 -0.0396,-0.2473 -0.23828,-0.41797 -0.20133,-0.17067 -0.58714,-0.5013 -0.75781,-0.5293 -0.16933,-0.0293 -0.32824,-0.0581 -0.37891,-0.0781 -0.0493,-0.02 0.0909,-0.29621 -0.14648,-0.4082 -0.244,-0.11067 -0.52211,-0.14122 -0.66211,-0.31055 -0.13867,-0.168 -0.50613,-0.22852 -0.57813,-0.22852 h -0.14648 c 0,0 0.0285,-0.19817 -0.0195,-0.32617 -0.052,-0.12933 -0.19922,-0.23242 -0.19922,-0.23242 0,0 -0.32025,-1.36508 -1.15625,-1.34375 z m -16.18945,4.00781 0.18554,0.082 c 0,0 0,0.0157 0,0.0176 -0.0649,0.12944 -0.23046,0.29492 -0.23046,0.29492 l 0.0508,0.0586 c 0,0 -0.14836,0.17326 -0.33789,0.375 0.0326,-0.0544 0.0638,-0.10412 0.0781,-0.14258 0.04,-0.112 0.25391,-0.68555 0.25391,-0.68555 z m 0.56054,0.85742 c 4.4e-4,2.8e-4 0.006,0.004 0.006,0.004 l 0.12305,0.14258 c 0,0 -0.12283,0.29814 -0.29883,0.49414 -0.17333,0.19333 -0.0517,0.266 -0.041,0.38867 0.009,0.12267 0.0946,0.14284 0.0293,0.21484 -0.06,0.0733 -0.0679,0.29671 -0.0586,0.35938 0.0107,0.06 0.0187,0.18159 -0.0293,0.29492 -0.052,0.11333 -0.0214,0.22811 0.0586,0.41211 0.0827,0.18267 0.0952,0.27604 0.17382,0.4707 0.0827,0.196 0.48489,0.28516 0.57422,0.28516 0.092,0 0.5644,-0.23312 0.67774,-0.31445 0.0537,-0.0408 0.21264,-0.20936 0.36133,-0.3711 0.14545,0.0255 0.31285,0.0353 0.37304,-0.10351 0.0316,0.11345 0.0611,0.23455 0.0508,0.26953 -0.016,0.0693 -0.10045,0.0297 -0.20312,0.0391 -0.10267,0.0107 -0.16125,0.18413 -0.14258,0.32813 0.0227,0.14266 0.0635,0.56478 0.13281,0.80078 0,0 -0.053,0.0177 -0.31836,-0.1543 -0.26533,-0.176 -1.01176,-0.31847 -1.25976,-0.36914 -0.24533,-0.0507 -0.55252,-0.18484 -0.72852,-0.32617 -0.172,-0.14534 -0.16091,-0.44239 -0.40625,-1.15039 -0.0822,-0.23459 -0.12218,-0.43478 -0.14062,-0.60938 0.0508,-0.041 0.0996,-0.0813 0.14258,-0.12109 0.39589,-0.36555 0.91317,-0.97191 0.92382,-0.98438 z m -22.63867,1.04492 c -0.87073,0.0253 -1.07479,0.50851 -1.20312,0.75 -0.148,0.27334 -0.48828,0.92188 -0.48828,0.92188 0,0 -0.0102,0.095 0.0644,0.12695 0.072,0.0333 0.23047,0.0742 0.23047,0.0742 l 0.1582,0.27539 c 0,0 -0.0518,0.0868 -0.008,0.24414 0.0109,0.041 0.021,0.092 0.0312,0.14453 l -1.14844,-0.0352 0.002,-0.0703 0.17188,0.006 v 0.0234 l 0.084,0.002 0.006,-0.23829 -0.082,-0.004 -0.004,0.10742 -0.17188,-0.006 v -0.0176 l -0.17383,-0.006 v -0.0293 l -0.11719,-0.004 -0.002,0.0312 -1.45117,-0.0449 0.002,-0.0449 -0.11914,-0.004 v 0.0449 l -0.21093,-0.006 -0.006,0.19727 -1.81836,-0.0547 c -0.0507,-0.044 -0.15281,-0.10973 -0.35547,-0.17773 -0.19734,-0.0613 -0.60126,-0.19998 -0.91992,-0.30664 -0.248,-0.084 -0.44532,-0.14649 -0.44532,-0.14649 l -0.0801,-0.004 -0.0313,0.0215 -0.18164,-0.006 -0.20312,0.10742 -0.66992,0.34766 c 0,0 -0.16521,0.0889 -0.17188,0.32226 v 0.0117 c -0.008,0.23334 0.15235,0.32813 0.15235,0.32813 l 0.64648,0.38867 0.19922,0.11914 0.17969,0.006 0.0293,0.0254 0.084,0.002 c 0,0 0.1965,-0.0543 0.45117,-0.125 0.32267,-0.0867 0.73688,-0.198 0.93555,-0.25 0.20533,-0.0533 0.3119,-0.11429 0.36523,-0.15429 l 1.00195,0.0293 c 0.14397,0.21856 0.26328,0.54864 0.33204,0.62305 0.13733,0.14667 0.6582,0.42578 0.6582,0.42578 0,0 0.13685,0.17859 0.24219,0.41992 0.10533,0.24667 -0.15984,0.54177 -0.20118,0.64844 -0.0413,0.10533 -0.0604,0.29641 0.21289,0.45508 0.276,0.16133 0.18148,0.40458 0.24415,0.53125 0.0627,0.12667 0.42366,0.68811 0.625,0.91211 0.2,0.22266 0.45523,0.36026 0.11523,0.43359 -0.33867,0.076 -1.01578,0.0852 -1.17578,0.5625 -0.15733,0.47734 -0.15854,0.88971 -0.17188,0.98438 -0.008,0.0947 -0.2207,0.69051 -0.2207,0.83984 0,0.14667 0.12626,0.54821 0.0449,0.68555 -0.0867,0.13866 -0.10757,0.41435 0.01,0.54101 0.116,0.12534 0.2207,0.31836 0.2207,0.31836 0,0 0.0347,0.46559 0,0.65625 -0.0307,0.19067 -0.0311,0.37316 -0.01,0.42383 0.02,0.0547 0.0859,0.39228 0.0312,0.48828 -0.052,0.096 -0.0766,0.19053 -0.0312,0.25586 0.044,0.0613 0.11718,0.18945 0.11718,0.18945 0,0 -0.6459,0.64651 -0.7539,0.70118 -0.10667,0.0507 -0.19078,0.18855 -0.41211,0.19922 -0.22267,0.0107 -1.17787,0.0752 -1.28321,0.16992 -0.10533,0.0947 0.0312,0.41211 0.0312,0.41211 l -0.0723,0.0762 c 0,0 0.0721,0.0615 0.32812,0.10547 0.25467,0.04 1.21783,0.16783 1.67383,0.0625 0.45734,-0.10534 0.98438,-0.22266 0.98438,-0.22266 l 0.0117,0.18945 c 0,0 0.71259,0.0665 0.80859,0.0332 0.092,-0.032 0.14648,-0.27344 0.14648,-0.27344 0,0 0.10474,-0.0139 0.0527,-0.22461 -0.0533,-0.212 -0.0422,-0.83611 -0.0742,-0.91211 -0.0333,-0.0733 -0.10547,-0.30664 -0.10547,-0.30664 0,0 0.28709,-0.38115 0.23242,-0.64648 -0.052,-0.26267 -0.17079,-1.00722 0.0332,-1.06055 0.20133,-0.052 0.44277,-0.23346 0.4121,-0.32813 -0.0307,-0.0947 -0.0127,-0.12603 0.0313,-0.2207 0.044,-0.096 0.13793,-0.30727 0.0859,-0.44727 -0.0547,-0.13599 -4.5e-4,-0.17998 0.0742,-0.22265 0.072,-0.04 0.0859,-0.2207 0.0859,-0.2207 0,0 0.7916,-0.0199 0.96094,0.10546 0.17066,0.12667 0.41226,0.0758 0.57226,0.0625 0.15734,-0.0107 0.45793,-0.0524 0.44727,0.12891 -0.0107,0.18133 -0.12653,0.65712 0.10547,0.81445 0.232,0.16 0.25195,0.17188 0.25195,0.17188 0.0213,0.49733 0.31954,2.93608 0.6582,3.21875 0.34134,0.28933 1.10245,0.18267 1.53711,0 0.43467,-0.17733 1.24024,-0.67578 1.24024,-0.67578 0,0 0.12767,0.0403 0.26367,-0.15039 0.13733,-0.19067 0.29524,-0.35925 0.39258,-0.39258 0.0947,-0.0307 0.18085,-0.11613 0.24218,0.0332 0.064,0.14667 -0.11433,0.38116 -0.125,0.42383 -0.0107,0.0427 -0.34151,0.82426 0.28516,0.79492 0.624,-0.0347 0.79326,-0.0336 0.91992,-0.26562 0.13067,-0.232 0.25616,-1.02719 0.16016,-1.22852 -0.0947,-0.2 0.0547,-0.2539 0.0547,-0.2539 0,0 -0.0542,-0.73198 -0.12891,-0.80665 -0.0747,-0.0747 -0.31641,-0.084 -0.31641,-0.084 0,0 -0.13733,-0.14622 -0.36133,-0.0742 -0.22266,0.0747 -0.77148,0.13867 -0.77148,0.13867 l -1.31445,0.32813 0.26562,-0.9668 0.29688,-0.0391 c 0,0 0.0533,-0.74531 0.0293,-0.94531 -0.02,-0.20134 -0.0195,-0.44336 -0.0195,-0.44336 0,0 0.64456,-0.11908 0.69922,-0.95508 0.0533,-0.83467 -0.076,-0.8041 -0.0547,-0.9961 0.0227,-0.18933 0.10743,-0.63671 0.10743,-0.63671 0,0 0.20268,-0.63314 -0.084,-0.73047 -0.28933,-0.0947 -0.82812,-0.11524 -0.82812,-0.11524 0,0 -0.15806,-0.38148 -0.13672,-0.52148 0.0187,-0.13733 0.32675,-0.58248 0.35742,-0.86914 0.0347,-0.28667 0.10834,-1.35456 0.0137,-1.58789 -0.0947,-0.23334 -0.52207,-0.65522 -0.55273,-0.69922 -0.0307,-0.0413 0.0745,-0.19064 -0.10547,-0.30664 -0.18133,-0.116 -0.85876,-0.75406 -0.99609,-0.77539 -0.13867,-0.0213 -0.30623,0.0304 -0.35157,0.0957 -0.04,0.064 -0.0391,-0.13506 -0.0937,-0.40039 -0.052,-0.268 -0.0428,-1.42259 -1.27344,-1.55859 -0.15333,-0.0172 -0.28967,-0.0231 -0.41406,-0.0195 z m -3.75781,3.25977 0.75195,0.11719 c 0,0 0.0323,0.17984 0.0977,0.33984 0.0613,0.15734 0.5383,0.14829 0.6543,0.12696 0.11866,-0.02 0.17968,0.21289 0.17968,0.21289 0,0 -0.062,0.31639 -0.13672,0.40039 -0.076,0.0853 -0.16029,0.26608 -0.26562,0.46875 L 317.04297,603 c 0,0 -0.10425,-0.3711 -0.15625,-0.50977 -0.0533,-0.13733 -0.24251,-0.21036 -0.33984,-0.31835 -0.096,-0.10534 -0.0957,-0.15853 -0.0957,-0.25586 0,-0.092 -0.23242,-0.32813 -0.23242,-0.32813 z m 32.38672,8.31445 c 0,0 0.61313,0.52265 0.5918,0.58399 -0.0187,0.0613 10e-4,0.22769 -0.0176,0.31836 -0.02,0.092 -0.0928,0.24694 -0.13281,0.34961 -0.0413,0.1 -0.27769,0.42895 -0.29102,0.37695 -0.008,-0.0493 -0.0992,-0.65483 -0.0898,-0.79883 0.0107,-0.14266 -0.0299,-0.61674 -0.0605,-0.83008 z"
           transform="matrix(0.75000002,0,0,-0.75000002,92.620513,865.32671)" />
      </g>
      <g
         id="g16536"
         transform="translate(-469.24538,-310.58069)">
        <path
           d="m 375.20051,508.65508 0.72,1.071 h -4.072 v 0.142 h -0.246 v -0.095 h -0.463 v 0.095 h -0.592 v 0.264 h 0.592 v 0.095 h 0.328 v 0.14 h 0.688 v 0.246 h 0.135 v -0.34 h 3.375 v 0.17 h 0.736 l 0.492,0.732 1.42,-0.321 -0.359,-0.625 1.722,-0.031 0.135,-0.151 h 0.345 l 0.844,0.094 0.347,0.132 0.229,-0.056 -0.229,-0.245 v -0.488 l 0.095,-0.263 -0.269,-0.057 -0.211,0.246 h -0.232 l -0.096,-0.132 -0.097,0.301 h -1.3 l -0.037,-0.151 h -0.425 l 0.27,-0.414 -0.038,-0.302 h -0.385 l -0.078,0.32 -0.154,0.302 -0.153,-0.019 -0.42,-0.017 v 0.334 l -0.198,0.017 -0.895,-1.555 h -3.033 l 0.003,0.056 -0.003,0.505 z"
           id="path16530" />
        <path
           d="m 375.91961,494.03888 c 0,-0.244 0.202,-0.443 0.452,-0.443 0.251,0 0.454,0.199 0.454,0.443 0,0.246 -0.203,0.444 -0.454,0.444 -0.25,0 -0.452,-0.198 -0.452,-0.444 m -3.333,0.411 c 0,-0.197 0.165,-0.36 0.367,-0.36 0.202,0 0.367,0.163 0.367,0.36 0,0.198 -0.165,0.359 -0.367,0.359 -0.202,0 -0.367,-0.161 -0.367,-0.359 m 2.945,0.362 c -0.092,-0.266 -0.227,-0.514 -0.396,-0.734 0.134,-0.016 0.274,0.026 0.378,0.126 0.169,0.167 0.176,0.434 0.018,0.608 m 3.92,-0.362 c 0,-0.197 0.163,-0.36 0.366,-0.36 0.203,0 0.367,0.163 0.367,0.36 0,0.198 -0.164,0.359 -0.367,0.359 -0.203,0 -0.366,-0.161 -0.366,-0.359 m -1.818,-0.368 c -0.173,0.226 -0.31,0.478 -0.402,0.751 -0.176,-0.175 -0.176,-0.455 0,-0.629 0.109,-0.106 0.259,-0.147 0.402,-0.122 m 5.165,-0.043 c 0,-0.244 0.202,-0.443 0.453,-0.443 0.251,0 0.453,0.199 0.453,0.443 0,0.246 -0.202,0.444 -0.453,0.444 -0.251,0 -0.453,-0.198 -0.453,-0.444 m -0.797,0.04 c 0.138,-0.02 0.283,0.021 0.39,0.125 0.175,0.171 0.176,0.446 0.007,0.621 -0.092,-0.27 -0.227,-0.521 -0.397,-0.746 m 7.556,-0.04 c 0,-0.244 0.203,-0.443 0.451,-0.443 0.251,0 0.453,0.199 0.453,0.443 0,0.246 -0.202,0.444 -0.453,0.444 -0.248,0 -0.451,-0.198 -0.451,-0.444 m -3.306,0.411 c 0,-0.197 0.165,-0.36 0.368,-0.36 0.202,0 0.367,0.163 0.367,0.36 0,0.198 -0.165,0.359 -0.367,0.359 -0.203,0 -0.368,-0.161 -0.368,-0.359 m -1.811,-0.376 c -0.162,0.211 -0.291,0.444 -0.383,0.694 -0.121,-0.172 -0.104,-0.411 0.052,-0.564 0.092,-0.088 0.211,-0.132 0.331,-0.13 m 4.747,0.715 c -0.092,-0.259 -0.224,-0.498 -0.388,-0.714 0.126,-0.008 0.254,0.035 0.35,0.129 0.163,0.16 0.177,0.411 0.038,0.585 m 4.811,0.022 c 0,-0.198 0.164,-0.358 0.367,-0.358 0.202,0 0.367,0.16 0.367,0.358 0,0.199 -0.165,0.36 -0.367,0.36 -0.203,0 -0.367,-0.161 -0.367,-0.36 m 1.215,0.256 c 0.169,-0.108 0.395,-0.061 0.507,0.106 0.109,0.167 0.061,0.389 -0.108,0.497 -0.17,0.108 -0.397,0.061 -0.507,-0.105 -0.111,-0.167 -0.062,-0.39 0.108,-0.498 m -23.002,-0.142 -0.679,0.002 c 0.007,-0.015 0.013,-0.03 0.022,-0.045 0.102,-0.172 0.326,-0.23 0.501,-0.131 0.072,0.041 0.126,0.104 0.156,0.174 m 1.549,-0.006 -0.115,0.002 c 0.022,-0.086 0.075,-0.163 0.155,-0.215 0.014,-0.009 0.028,-0.017 0.042,-0.022 -0.03,0.076 -0.059,0.155 -0.082,0.235 m 5.305,-0.016 -0.086,0.001 c -0.016,-0.05 -0.032,-0.1 -0.05,-0.148 0.06,0.038 0.106,0.089 0.136,0.147 m 1.581,-0.005 h -0.131 c 0.025,-0.077 0.076,-0.144 0.151,-0.192 0.018,-0.013 0.038,-0.022 0.06,-0.03 -0.03,0.072 -0.056,0.145 -0.08,0.222 m 6.765,-0.023 -0.086,10e-4 c 0.027,-0.069 0.075,-0.128 0.141,-0.17 -0.017,0.053 -0.037,0.111 -0.055,0.169 m 4.063,-0.013 -0.569,0.003 c -0.012,-0.01 -0.024,-0.022 -0.036,-0.032 -0.177,-0.175 -0.177,-0.455 0,-0.629 0.176,-0.173 0.463,-0.173 0.639,0 0.177,0.174 0.177,0.454 0,0.629 -0.01,0.01 -0.022,0.02 -0.034,0.029 m 13.352,14.317 -2.918,0.394 2.918,-1.203 z m -53.288,-11.231 0.381,-0.627 c 0.068,0.232 0.157,0.456 0.263,0.67 h -0.555 z m 2.077,4.951 h -0.102 l -1.912,-4.375 0.265,0.072 h 0.688 c 0.128,0.174 0.27,0.339 0.425,0.49 v 2.223 l 0.345,0.676 0.291,0.312 z m 0.562,0 h -0.356 v -0.382 z m 20.31,-9.429 c 0.049,-0.085 0.091,-0.184 0.12,-0.266 l 0.751,-0.008 c -0.252,0.1 -0.487,0.236 -0.696,0.401 -0.056,-0.045 -0.114,-0.087 -0.175,-0.127 m 4.225,-0.235 0.026,-0.073 0.166,-10e-4 c -0.066,0.021 -0.13,0.047 -0.192,0.074 m -0.598,-0.067 c 0.026,0.106 0.064,0.238 0.118,0.337 -0.048,0.033 -0.094,0.068 -0.138,0.104 -0.218,-0.177 -0.467,-0.32 -0.736,-0.423 z m 2.738,-0.027 0.018,0.072 c -0.063,-0.027 -0.127,-0.049 -0.192,-0.071 z m 1.369,-0.015 0.017,0.071 c -0.257,0.101 -0.493,0.239 -0.704,0.407 -0.06,-0.048 -0.121,-0.094 -0.185,-0.136 0.065,-0.111 0.115,-0.248 0.144,-0.335 z m 3.322,0.097 c 0.02,-0.053 0.035,-0.1 0.045,-0.131 l 0.361,-0.004 c -0.141,0.034 -0.276,0.08 -0.406,0.135 m -0.619,-0.124 c 0.024,0.105 0.066,0.272 0.128,0.394 -0.04,0.027 -0.08,0.055 -0.116,0.084 -0.216,-0.165 -0.457,-0.3 -0.716,-0.397 l 0.026,-0.075 z m 2.739,-0.029 c 0.009,0.041 0.021,0.096 0.037,0.154 -0.15,-0.063 -0.305,-0.113 -0.467,-0.15 z m 1.368,-0.014 c 0.008,0.032 0.016,0.073 0.026,0.118 -0.27,0.098 -0.521,0.238 -0.744,0.413 -0.047,-0.037 -0.096,-0.073 -0.146,-0.108 0.092,-0.151 0.156,-0.359 0.173,-0.417 z m 4.144,0.162 c 0.028,0.114 0.074,0.259 0.133,0.358 -0.38,0.156 -0.715,0.395 -0.983,0.693 -0.301,-0.476 -0.752,-0.851 -1.286,-1.065 l 0.026,-0.078 0.734,0.033 c 0.046,0.194 0.141,0.493 0.283,0.493 0.147,0 0.271,-0.289 0.335,-0.468 z m 1.348,0.131 c -0.05,0.02 -0.104,0.018 -0.158,0.018 -0.231,0 -0.458,0.028 -0.67,0.081 0.028,-0.058 0.054,-0.118 0.076,-0.175 z m -23.129,0.043 0.032,0.073 c -0.519,0.346 -0.909,0.862 -1.088,1.466 l -1.237,0.004 c -0.327,-0.377 -0.759,-0.665 -1.252,-0.818 0.025,-0.068 0.044,-0.142 0.058,-0.207 l 0.782,-0.112 c 0.079,0.18 0.199,0.398 0.323,0.38 0.135,-0.017 0.216,-0.28 0.257,-0.465 l 0.773,-0.117 c 0.078,0.182 0.202,0.414 0.329,0.396 0.14,-0.02 0.221,-0.299 0.261,-0.485 z m 25.841,1.368 0.347,-0.266 -0.163,-0.337 -0.477,0.104 -0.624,-0.572 0.261,-0.394 -0.263,-0.267 -0.491,0.294 -0.652,-0.296 -0.032,-0.451 -0.375,-0.057 -0.155,0.381 -0.842,-0.086 -0.102,-0.437 h -0.382 l -0.088,0.384 -0.812,-0.034 -0.092,-0.387 h -0.379 l -0.083,0.363 -0.832,-0.037 -0.078,-0.326 h -0.379 l -0.071,0.305 -0.858,-0.038 -0.064,-0.267 h -0.38 l -0.06,0.259 -0.868,0.008 -0.063,-0.267 h -0.38 l -0.062,0.273 -0.865,0.01 -0.066,-0.283 h -0.379 l -0.066,0.288 -0.857,0.009 -0.07,-0.297 h -0.379 l -0.069,0.302 -0.817,0.007 -0.073,-0.309 h -0.379 l -0.072,0.315 -0.844,0.009 -0.077,-0.324 h -0.379 l -0.076,0.33 -0.836,0.008 -0.08,-0.338 h -0.381 l -0.077,0.344 -0.831,0.008 -0.083,-0.352 h -0.381 l -0.081,0.358 -0.824,0.009 -0.086,-0.367 h -0.38 l -0.086,0.371 -0.817,0.01 -0.089,-0.381 h -0.38 l -0.089,0.386 -0.811,0.009 -0.092,-0.395 h -0.38 l -0.092,0.401 -0.804,0.008 -0.098,-0.409 h -0.379 l -0.094,0.415 -0.72,0.007 -0.186,-0.473 -0.376,0.052 -0.037,0.454 -0.791,0.077 -0.155,-0.396 -0.375,0.053 -0.034,0.409 -0.794,0.12 -0.155,-0.395 -0.375,0.052 -0.036,0.429 -0.786,0.118 -0.162,-0.412 -0.376,0.052 -0.036,0.444 -0.781,0.113 -0.166,-0.421 -0.376,0.051 -0.039,0.466 -0.786,0.153 -0.174,-0.401 -0.374,0.065 -0.024,0.507 -0.619,0.313 -0.462,-0.305 -0.276,0.253 0.253,0.427 -0.54,0.741 -0.409,-0.195 -0.239,0.289 0.375,0.463 -0.02,0.109 -1.647,-0.085 -0.795,-0.524 -1.38,-0.041 c -0.396,-1.891 -2.106,-3.314 -4.153,-3.314 -2.341,0 -4.24,1.861 -4.24,4.155 0,0.336 0.04,0.664 0.118,0.975 l -0.453,0.748 -0.201,-0.098 -0.447,0.033 -0.24,0.337 0.104,0.335 0.583,0.371 -0.07,-0.337 -0.411,-0.201 0.241,-0.202 0.24,0.135 0.193,0.166 2.105,4.832 v 0.985 h 0.171 v 1.146 c -0.098,0.016 -0.171,0.098 -0.171,0.198 0,0.111 0.092,0.201 0.206,0.201 0.112,0 0.206,-0.09 0.206,-0.201 0,-0.074 -0.042,-0.139 -0.104,-0.175 v -1.169 h 0.652 v -0.236 h 0.343 v -0.424 l 0.122,0.129 0.751,0.101 -0.015,0.228 1.097,0.101 0.089,-0.173 2.607,0.346 -0.02,0.264 0.685,0.1 0.085,-0.265 4.355,0.578 -0.024,0.302 0.685,0.101 0.097,-0.303 5.814,0.772 0.251,0.388 0.091,0.848 0.377,0.537 0.496,0.1 0.291,0.449 32.176,-0.372 v 0.411 l -3.443,1.419 -0.688,0.094 v -0.12 h -0.389 v 0.56 l -0.295,-0.116 -0.052,0.125 0.347,0.137 v 0.055 h 0.14 l 0.267,0.104 0.05,-0.126 -0.068,-0.027 v -0.456 l 0.639,-0.087 0.085,-0.012 3.407,-0.46 v 0.241 h -0.13 v 0.357 h 0.883 v -0.357 h -0.193 v -1.748 l 0.323,-0.004 1.053,-0.99 -0.255,-0.399 0.068,-0.122 -4.595,-7.193 -0.214,-0.063 -0.823,-1.282 h 0.454 v 0.169 h 0.172 v -0.135 l 0.925,0.202 h 0.652 v -1.177 h -0.548 l -1.029,0.393 v -0.157 h -0.172 v 0.134 h -0.6 c 0.199,0 0.361,-0.158 0.361,-0.352 0,-0.195 -0.162,-0.354 -0.361,-0.354 -0.114,0 -0.217,0.053 -0.283,0.136 h -1.073 v 0.239 l -1.956,-0.217 0.037,-0.57 0.455,-0.095 0.006,-0.372 -0.479,-0.114 z"
           id="path16532" />
        <path
           d="m 352.06051,496.89858 c 0,0.092 -0.738,1.273 -0.738,1.273 l 2.234,5.203 1.439,-0.275 z"
           id="path16534" />
      </g>
    </g>
  </g>
</svg>
