<?xml version="1.0" encoding="UTF-8" standalone="no"?>
<!-- Created with Inkscape (http://www.inkscape.org/) -->

<svg
   width="19.19746mm"
   height="7.3268766mm"
   viewBox="0 0 19.19746 7.3268766"
   version="1.1"
   id="svg4182"
   sodipodi:docname="inkporter-svg-dkwifiqy.svg"
   xmlns:inkscape="http://www.inkscape.org/namespaces/inkscape"
   xmlns:sodipodi="http://sodipodi.sourceforge.net/DTD/sodipodi-0.dtd"
   xmlns="http://www.w3.org/2000/svg"
   xmlns:svg="http://www.w3.org/2000/svg">
  <sodipodi:namedview
     id="namedview4184"
     pagecolor="#ffffff"
     bordercolor="#666666"
     borderopacity="1.0"
     inkscape:pageshadow="2"
     inkscape:pageopacity="0.0"
     inkscape:pagecheckerboard="0"
     inkscape:document-units="mm"
     showgrid="false"
     inkscape:zoom="3.6233469"
     inkscape:cx="405.01229"
     inkscape:cy="608.41539"
     inkscape:window-width="1920"
     inkscape:window-height="1017"
     inkscape:window-x="-8"
     inkscape:window-y="-8"
     inkscape:window-maximized="1"
     inkscape:current-layer="layer1" />
  <defs
     id="defs4179">
    <clipPath
       clipPathUnits="userSpaceOnUse"
       id="clipPath51510-6-1-5">
      <path
         d="m 311.244,282.183 h 237.721 v 240.1 H 311.244 Z"
         id="path51508-7-1-3" />
    </clipPath>
    <clipPath
       clipPathUnits="userSpaceOnUse"
       id="clipPath66866-1-1-8-6-3">
      <path
         d="M 0,0 H 595.276 V 841.89 H 0 Z"
         id="path66864-5-2-8-4-4" />
    </clipPath>
  </defs>
  <g
     inkscape:label="Layer 1"
     inkscape:groupmode="layer"
     id="layer1"
     transform="translate(-39.970115,-190.06813)">
    <g
       id="G-SdKfz2511-flamm"
       transform="matrix(0.35277777,0,0,-0.35277777,-65.878664,385.55272)">
      <path
         d="m 323.91879,550.09655 0.697,1.077 h -3.941 v 0.142 h -0.238 v -0.094 h -0.448 v 0.094 h -0.573 v 0.266 h 0.573 v 0.094 h 0.317 v 0.142 h 0.667 v 0.247 h 0.13 v -0.341 h 3.267 v 0.17 h 0.712 l 0.476,0.736 1.374,-0.323 -0.348,-0.627 1.666,-0.032 0.131,-0.152 h 0.335 l 0.815,0.095 0.336,0.133 0.223,-0.057 -0.223,-0.247 v -0.489 l 0.093,-0.265 -0.261,-0.057 -0.205,0.246 h -0.223 l -0.093,-0.132 -0.093,0.303 h -1.26 l -0.036,-0.152 h -0.41 l 0.261,-0.416 -0.038,-0.304 h -0.372 l -0.075,0.322 -0.148,0.304 -0.15,-0.02 -0.405,-0.018 v 0.337 l -0.192,0.017 -0.866,-1.564 h -2.935 l 0.003,0.057 -0.003,0.508 z"
         id="path66970-0-9" />
      <path
         d="m 324.61379,535.40145 c 0,-0.246 0.197,-0.446 0.439,-0.446 0.242,0 0.438,0.2 0.438,0.446 0,0.246 -0.196,0.446 -0.438,0.446 -0.242,0 -0.439,-0.2 -0.439,-0.446 m -3.224,0.413 c 0,-0.199 0.159,-0.361 0.355,-0.361 0.196,0 0.355,0.162 0.355,0.361 0,0.199 -0.159,0.361 -0.355,0.361 -0.196,0 -0.355,-0.162 -0.355,-0.361 m 2.849,0.365 c -0.089,-0.268 -0.22,-0.517 -0.383,-0.739 0.129,-0.017 0.265,0.026 0.365,0.127 0.166,0.168 0.171,0.436 0.018,0.612 m 3.793,-0.365 c 0,-0.199 0.159,-0.361 0.356,-0.361 0.195,0 0.354,0.162 0.354,0.361 0,0.199 -0.159,0.361 -0.354,0.361 -0.197,0 -0.356,-0.162 -0.356,-0.361 m -1.758,-0.37 c -0.167,0.226 -0.301,0.479 -0.39,0.754 -0.171,-0.175 -0.171,-0.457 0,-0.631 0.106,-0.108 0.253,-0.149 0.39,-0.123 m 4.998,-0.043 c 0,-0.246 0.196,-0.446 0.438,-0.446 0.241,0 0.438,0.2 0.438,0.446 0,0.246 -0.197,0.446 -0.438,0.446 -0.242,0 -0.438,-0.2 -0.438,-0.446 m -0.772,0.041 c 0.134,-0.021 0.275,0.02 0.378,0.125 0.168,0.172 0.171,0.448 0.008,0.623 -0.09,-0.271 -0.222,-0.523 -0.386,-0.748 m 7.311,-0.041 c 0,-0.246 0.196,-0.446 0.439,-0.446 0.242,0 0.438,0.2 0.438,0.446 0,0.246 -0.196,0.446 -0.438,0.446 -0.243,0 -0.439,-0.2 -0.439,-0.446 m -3.197,0.413 c 0,-0.199 0.159,-0.361 0.354,-0.361 0.197,0 0.356,0.162 0.356,0.361 0,0.199 -0.159,0.361 -0.356,0.361 -0.195,0 -0.354,-0.162 -0.354,-0.361 m -1.754,-0.378 c -0.155,0.211 -0.281,0.446 -0.37,0.698 -0.117,-0.173 -0.101,-0.413 0.051,-0.567 0.088,-0.09 0.204,-0.133 0.319,-0.131 m 4.596,0.719 c -0.091,-0.26 -0.218,-0.502 -0.378,-0.718 0.122,-0.008 0.247,0.035 0.34,0.13 0.158,0.16 0.171,0.413 0.038,0.588 m 4.654,0.022 c 0,-0.199 0.159,-0.361 0.354,-0.361 0.197,0 0.356,0.162 0.356,0.361 0,0.2 -0.159,0.361 -0.356,0.361 -0.195,0 -0.354,-0.161 -0.354,-0.361 m 1.176,0.257 c 0.163,-0.108 0.383,-0.06 0.49,0.107 0.106,0.167 0.06,0.391 -0.104,0.499 -0.165,0.109 -0.385,0.061 -0.491,-0.106 -0.107,-0.167 -0.06,-0.391 0.105,-0.5 m -22.26,-0.143 -0.656,0.003 c 0.005,-0.015 0.013,-0.031 0.022,-0.045 0.098,-0.173 0.314,-0.232 0.484,-0.133 0.07,0.042 0.122,0.104 0.15,0.175 m 1.499,-0.005 -0.112,0.001 c 0.022,-0.086 0.074,-0.164 0.152,-0.215 0.014,-0.01 0.028,-0.017 0.041,-0.024 -0.031,0.078 -0.058,0.157 -0.081,0.238 m 5.134,-0.017 h -0.084 c -0.013,-0.049 -0.031,-0.099 -0.048,-0.147 0.059,0.037 0.104,0.088 0.132,0.147 m 1.53,-0.005 h -0.127 c 0.025,-0.077 0.074,-0.145 0.145,-0.192 0.019,-0.013 0.039,-0.023 0.059,-0.032 -0.029,0.073 -0.055,0.147 -0.077,0.224 m 6.546,-0.023 -0.083,10e-4 c 0.027,-0.068 0.073,-0.128 0.137,-0.17 -0.016,0.053 -0.036,0.111 -0.054,0.169 m 3.933,-0.013 -0.552,0.002 c -0.011,-0.01 -0.024,-0.021 -0.035,-0.032 -0.171,-0.175 -0.171,-0.457 0,-0.631 0.171,-0.174 0.448,-0.174 0.62,0 0.171,0.174 0.171,0.456 0,0.631 -0.011,0.011 -0.021,0.021 -0.033,0.03 m 12.92,14.394 -2.824,0.397 2.824,-1.209 z m -51.566,-11.291 0.367,-0.63 c 0.068,0.234 0.153,0.458 0.256,0.673 h -0.539 z m 2.009,4.977 h -0.099 l -1.85,-4.397 0.257,0.071 h 0.665 c 0.125,0.175 0.262,0.34 0.411,0.493 v 2.235 l 0.334,0.679 0.282,0.314 z m 0.543,0 h -0.342 v -0.383 z m 19.656,-9.48 c 0.047,-0.085 0.086,-0.185 0.115,-0.266 l 0.728,-0.008 c -0.244,0.1 -0.472,0.236 -0.675,0.403 -0.054,-0.046 -0.111,-0.088 -0.168,-0.129 m 4.088,-0.236 0.026,-0.074 0.159,-10e-4 c -0.063,0.023 -0.125,0.048 -0.185,0.075 m -0.578,-0.067 c 0.025,0.106 0.062,0.238 0.112,0.339 -0.045,0.033 -0.089,0.068 -0.132,0.103 -0.212,-0.177 -0.452,-0.32 -0.713,-0.424 z m 2.649,-0.028 0.017,0.073 c -0.06,-0.026 -0.123,-0.05 -0.187,-0.071 z m 1.324,-0.014 0.017,0.071 c -0.248,0.101 -0.478,0.239 -0.682,0.408 -0.058,-0.048 -0.117,-0.093 -0.179,-0.136 0.063,-0.112 0.111,-0.249 0.139,-0.336 z m 3.215,0.097 c 0.019,-0.054 0.034,-0.1 0.043,-0.132 l 0.349,-0.004 c -0.135,0.035 -0.266,0.08 -0.392,0.136 m -0.598,-0.125 c 0.021,0.107 0.062,0.273 0.122,0.396 -0.038,0.028 -0.076,0.056 -0.113,0.085 -0.207,-0.166 -0.44,-0.301 -0.691,-0.399 l 0.024,-0.075 z m 2.649,-0.029 c 0.008,0.042 0.02,0.096 0.035,0.156 -0.144,-0.064 -0.294,-0.115 -0.45,-0.151 z m 1.325,-0.014 c 0.006,0.032 0.014,0.073 0.026,0.118 -0.263,0.1 -0.506,0.241 -0.721,0.415 -0.046,-0.037 -0.093,-0.073 -0.142,-0.107 0.09,-0.153 0.152,-0.361 0.169,-0.419 z m 4.01,0.162 c 0.027,0.116 0.07,0.261 0.128,0.361 -0.367,0.157 -0.692,0.397 -0.952,0.697 -0.292,-0.478 -0.727,-0.856 -1.245,-1.071 l 0.026,-0.078 0.711,0.032 c 0.044,0.196 0.136,0.496 0.273,0.496 0.143,0 0.263,-0.291 0.325,-0.47 z m 1.304,0.134 c -0.049,0.019 -0.101,0.017 -0.154,0.017 -0.224,0 -0.441,0.029 -0.648,0.083 0.028,-0.059 0.053,-0.121 0.074,-0.177 z m -22.382,0.042 0.031,0.074 c -0.503,0.347 -0.881,0.866 -1.053,1.474 l -1.198,0.004 c -0.316,-0.38 -0.734,-0.669 -1.21,-0.824 0.024,-0.068 0.043,-0.142 0.057,-0.207 l 0.756,-0.113 c 0.076,0.181 0.192,0.4 0.312,0.383 0.13,-0.018 0.209,-0.282 0.249,-0.468 l 0.749,-0.117 c 0.074,0.183 0.193,0.415 0.317,0.397 0.135,-0.02 0.214,-0.3 0.253,-0.487 z m 25.005,1.375 0.336,-0.267 -0.155,-0.339 -0.464,0.104 -0.604,-0.573 0.253,-0.397 -0.255,-0.269 -0.475,0.296 -0.63,-0.298 -0.033,-0.453 -0.362,-0.058 -0.15,0.384 -0.814,-0.087 -0.1,-0.439 h -0.367 l -0.086,0.386 -0.786,-0.035 -0.089,-0.39 h -0.367 l -0.08,0.366 -0.806,-0.036 -0.074,-0.33 h -0.368 l -0.067,0.307 -0.832,-0.037 -0.062,-0.27 h -0.367 l -0.057,0.262 -0.842,0.009 -0.061,-0.271 h -0.367 l -0.061,0.276 -0.834,0.009 -0.066,-0.285 h -0.367 l -0.064,0.29 -0.829,0.009 -0.068,-0.299 h -0.367 l -0.066,0.305 -0.79,0.008 -0.071,-0.313 h -0.368 l -0.069,0.318 -0.816,0.009 -0.074,-0.327 h -0.367 l -0.074,0.332 -0.81,0.009 -0.078,-0.341 h -0.367 l -0.076,0.347 -0.804,0.009 -0.079,-0.356 h -0.368 l -0.08,0.361 -0.797,0.009 -0.084,-0.37 h -0.368 l -0.082,0.375 -0.791,0.009 -0.086,-0.384 h -0.367 l -0.087,0.389 -0.783,0.009 -0.092,-0.398 h -0.367 l -0.088,0.404 -0.778,0.008 -0.093,-0.412 h -0.368 l -0.092,0.418 -0.696,0.008 -0.181,-0.476 -0.363,0.052 -0.036,0.457 -0.765,0.076 -0.151,-0.397 -0.362,0.052 -0.033,0.413 -0.768,0.121 -0.151,-0.398 -0.363,0.052 -0.034,0.431 -0.761,0.119 -0.157,-0.414 -0.363,0.052 -0.036,0.447 -0.756,0.113 -0.16,-0.423 -0.362,0.051 -0.038,0.468 -0.762,0.155 -0.169,-0.404 -0.362,0.065 -0.022,0.51 -0.6,0.315 -0.445,-0.306 -0.269,0.255 0.247,0.428 -0.525,0.746 -0.396,-0.196 -0.231,0.291 0.362,0.464 -0.018,0.109 -1.592,-0.083 -0.77,-0.53 -1.337,-0.039 c -0.384,-1.902 -2.037,-3.332 -4.019,-3.332 -2.265,0 -4.102,1.87 -4.102,4.176 0,0.339 0.04,0.667 0.114,0.982 l -0.439,0.752 -0.194,-0.099 -0.433,0.034 -0.232,0.338 0.1,0.338 0.565,0.372 -0.067,-0.339 -0.398,-0.202 0.232,-0.203 0.233,0.135 0.186,0.167 2.037,4.859 v 0.989 h 0.167 v 1.152 c -0.094,0.016 -0.167,0.099 -0.167,0.2 0,0.112 0.09,0.203 0.2,0.203 0.109,0 0.199,-0.091 0.199,-0.203 0,-0.075 -0.04,-0.141 -0.099,-0.176 v -1.176 h 0.629 v -0.236 h 0.332 v -0.428 l 0.119,0.132 0.727,0.1 -0.015,0.23 1.062,0.101 0.086,-0.174 2.523,0.347 -0.021,0.266 0.665,0.102 0.082,-0.267 4.213,0.581 -0.023,0.303 0.664,0.102 0.093,-0.304 5.626,0.776 0.244,0.389 0.087,0.852 0.366,0.541 0.48,0.101 0.281,0.45 31.136,-0.373 v 0.413 l -3.333,1.427 -0.665,0.094 v -0.121 h -0.376 v 0.564 l -0.287,-0.117 -0.049,0.126 0.336,0.136 v 0.056 h 0.135 l 0.258,0.105 0.049,-0.125 -0.066,-0.028 v -0.46 l 0.62,-0.087 0.081,-0.011 3.297,-0.463 v 0.242 h -0.126 v 0.359 h 0.854 v -0.359 h -0.185 v -1.757 l 0.311,-0.004 1.02,-0.996 -0.248,-0.401 0.068,-0.123 -4.449,-7.231 -0.206,-0.064 -0.796,-1.288 h 0.438 v 0.169 h 0.166 v -0.135 l 0.897,0.203 h 0.631 v -1.183 h -0.532 l -0.996,0.395 v -0.158 h -0.166 v 0.135 h -0.58 c 0.191,0 0.348,-0.159 0.348,-0.355 0,-0.196 -0.157,-0.355 -0.348,-0.355 -0.112,0 -0.211,0.053 -0.273,0.135 h -1.038 v 0.242 l -1.894,-0.219 0.036,-0.572 0.44,-0.096 0.007,-0.373 -0.465,-0.115 z"
         id="path66982-0-7" />
      <path
         d="m 348.35069,547.95575 0.199,0.052 -0.173,0.026 z m -0.886,-0.234 c 0.003,0.126 -0.07,0.263 -0.096,0.42 l -0.066,0.178 z m 0.213,-0.708 c 0.288,-0.081 -0.086,0.327 -0.086,0.327 z m -2.384,5.378 0.19,0.147 c 0,0 0.082,0.052 0.156,0.272 0.074,0.221 0.085,0.431 0.085,0.431 l 0.115,0.22 0.147,0.189 0.325,0.115 0.441,0.063 0.483,-0.042 0.316,-0.105 c 0,0 -0.043,0.074 0.189,-0.126 0.23,-0.199 0.146,-0.23 0.146,-0.23 0,0 0.084,-0.095 0.105,-0.294 0.021,-0.2 0,-0.21 0,-0.21 v -0.21 l 0.222,-0.525 -0.243,0.022 0.262,-0.336 0.41,-0.231 0.357,-0.104 0.148,-0.022 c 0,0 0.262,0.587 0.482,0.566 0.221,-0.021 1.113,-0.807 1.134,-1.048 0.021,-0.241 -0.294,-0.578 -0.294,-0.578 l -0.053,-0.178 0.326,-0.064 c 0,0 0.504,0.022 0.63,-0.041 0.126,-0.064 0.294,-0.357 0.294,-0.357 0,0 0.179,-0.293 0.19,-0.42 0.01,-0.126 -0.042,-0.356 -0.042,-0.356 l -0.148,-0.273 -0.063,-0.126 v -0.105 c 0,0 0.373,0.064 0.531,0.016 0.157,-0.047 0.373,-0.132 0.415,-0.534 0.042,-0.406 -0.222,-0.573 -0.222,-0.573 l 0.515,-0.293 c -1.93638,-0.65556 -2.99328,-1.19492 -5.296,0.244 l -0.088,0.134 0.044,0.156 -0.038,0.136 -0.354,0.903 -0.211,0.168 -0.189,0.441 c 0,0 -0.052,0.178 -0.084,0.252 -0.031,0.073 0,0.378 0,0.378 l 0.084,0.314 0.168,0.441 -0.062,0.146 -0.211,0.252 -0.2,-0.062 c 0,0 -0.135,-0.053 -0.199,-0.021 -0.062,0.031 -0.074,0.22 -0.074,0.22 l -0.083,0.345 -0.2,0.043 0.053,0.524 -0.138,0.159 -0.272,0.083 z"
         id="path170444-0-8-0-4-5"
         inkscape:transform-center-x="1.931916"
         inkscape:transform-center-y="7.5896702" />
      <path
         d="m 333.14679,548.25655 0.199,0.052 -0.173,0.026 z m -0.886,-0.234 c 0.003,0.126 -0.07,0.263 -0.096,0.42 l -0.066,0.178 z m 0.213,-0.708 c 0.288,-0.081 -0.086,0.327 -0.086,0.327 z m -2.384,5.378 0.19,0.147 c 0,0 0.082,0.052 0.156,0.272 0.074,0.221 0.085,0.431 0.085,0.431 l 0.115,0.22 0.147,0.189 0.325,0.115 0.441,0.063 0.483,-0.042 0.316,-0.105 c 0,0 -0.043,0.074 0.189,-0.126 0.23,-0.199 0.146,-0.23 0.146,-0.23 0,0 0.084,-0.095 0.105,-0.294 0.021,-0.2 0,-0.21 0,-0.21 v -0.21 l 0.222,-0.525 -0.243,0.022 0.262,-0.336 0.41,-0.231 0.357,-0.104 0.148,-0.022 c 0,0 0.262,0.587 0.482,0.566 0.221,-0.021 1.113,-0.807 1.134,-1.048 0.021,-0.241 -0.294,-0.578 -0.294,-0.578 l -0.053,-0.178 0.326,-0.064 c 0,0 0.504,0.022 0.63,-0.041 0.126,-0.064 0.294,-0.357 0.294,-0.357 0,0 0.179,-0.293 0.19,-0.42 0.01,-0.126 -0.042,-0.356 -0.042,-0.356 l -0.148,-0.273 -0.063,-0.126 v -0.105 c 0,0 0.373,0.064 0.531,0.016 0.157,-0.047 0.373,-0.132 0.415,-0.534 0.042,-0.406 -0.222,-0.573 -0.222,-0.573 l 0.515,-0.293 c -1.93638,-0.65556 -2.99328,-1.19492 -5.296,0.244 l -0.088,0.134 0.044,0.156 -0.038,0.136 -0.354,0.903 -0.211,0.168 -0.189,0.441 c 0,0 -0.052,0.178 -0.084,0.252 -0.031,0.073 0,0.378 0,0.378 l 0.084,0.314 0.168,0.441 -0.062,0.146 -0.211,0.252 -0.2,-0.062 c 0,0 -0.135,-0.053 -0.199,-0.021 -0.062,0.031 -0.074,0.22 -0.074,0.22 l -0.083,0.345 -0.2,0.043 0.053,0.524 -0.138,0.159 -0.272,0.083 z"
         id="path170444-0-8-0-4-5-4"
         inkscape:transform-center-x="1.931916"
         inkscape:transform-center-y="7.5896702" />
      <path
         d="m 340.54369,549.27275 0.745,1.223 0.293,0.105 h -7.78 v 0.844 h 8.38 l 0.55,0.884 1.408,-0.295 -0.462,-0.833 1.533,0.427 0.083,-0.422 -0.905,-0.169 -0.331,0.127 -0.49,-0.164 -0.097,-0.176 c 0.423,-0.241 0.937,-0.543 1.211,-0.744 0.699,-0.509 0.689,-1.547 0.336,-2.222 -0.315,-0.605 -0.879,-1.504 -0.879,-1.504 l -0.556,0.361 c 0,0 0.548,0.872 0.854,1.458 0.27,0.516 0.184,1.128 -0.138,1.362 -0.218,0.159 -0.592,0.384 -0.946,0.588 v -1.034 h -1.36 v 0.253 h -0.346 l -0.11,-0.448 z"
         id="path66986-2-4" />
      <path
         d="m 301.54009,538.26465 c 0,0.092 -0.714,1.28 -0.714,1.28 l 2.161,5.23 1.394,-0.276 z"
         id="path66990-0-1" />
    </g>
  </g>
</svg>
