<?xml version="1.0" encoding="UTF-8" standalone="no"?>
<!-- Created with Inkscape (http://www.inkscape.org/) -->

<svg
   width="22.600004mm"
   height="6.7614093mm"
   viewBox="0 0 22.600004 6.7614093"
   version="1.1"
   id="svg8949"
   sodipodi:docname="inkporter-svg-hulw6emd.svg"
   xmlns:inkscape="http://www.inkscape.org/namespaces/inkscape"
   xmlns:sodipodi="http://sodipodi.sourceforge.net/DTD/sodipodi-0.dtd"
   xmlns="http://www.w3.org/2000/svg"
   xmlns:svg="http://www.w3.org/2000/svg">
  <sodipodi:namedview
     id="namedview8951"
     pagecolor="#ffffff"
     bordercolor="#666666"
     borderopacity="1.0"
     inkscape:pageshadow="2"
     inkscape:pageopacity="0.0"
     inkscape:pagecheckerboard="0"
     inkscape:document-units="mm"
     showgrid="false"
     inkscape:zoom="0.64052329"
     inkscape:cx="704.8924"
     inkscape:cy="561.25984"
     inkscape:window-width="1920"
     inkscape:window-height="1017"
     inkscape:window-x="-8"
     inkscape:window-y="-8"
     inkscape:window-maximized="1"
     inkscape:current-layer="layer1" />
  <defs
     id="defs8946">
    <clipPath
       clipPathUnits="userSpaceOnUse"
       id="clipPath66866-1-12-4-9-5">
      <path
         d="M 0,0 H 595.276 V 841.89 H 0 Z"
         id="path66864-5-5-1-3-8" />
    </clipPath>
  </defs>
  <g
     inkscape:label="Layer 1"
     inkscape:groupmode="layer"
     id="layer1"
     transform="translate(-71.314741,-116.82375)">
    <g
       id="G-SdKfz2511-Stuka"
       transform="matrix(0.35277777,0,0,-0.35277777,-3.4715274,350.60863)">
      <g
         id="g68471-3-2-4-6"
         transform="translate(-138.53603,151.52224)"
         style="fill:#000000">
        <g
           id="g66856-0-7-6-3"
           transform="translate(375.20051,508.65508)"
           style="fill:#000000">
          <path
             d="M 0,0 0.72,1.071 H -3.352 V 1.213 H -3.598 V 1.118 h -0.463 v 0.095 h -0.592 v 0.264 h 0.592 v 0.095 h 0.328 v 0.14 h 0.688 v 0.246 h 0.135 v -0.34 h 3.375 v 0.17 H 1.201 L 1.693,2.52 3.113,2.199 2.754,1.574 4.476,1.543 4.611,1.392 H 4.956 L 5.8,1.486 6.147,1.618 6.376,1.562 6.147,1.317 V 0.829 L 6.242,0.566 5.973,0.509 5.762,0.755 H 5.53 L 5.434,0.623 5.337,0.924 h -1.3 L 4,0.773 H 3.575 L 3.845,0.359 3.807,0.057 H 3.422 L 3.344,0.377 3.19,0.679 3.037,0.66 2.617,0.643 V 0.977 L 2.419,0.994 1.524,-0.561 H -1.509 L -1.506,-0.505 -1.509,0 Z"
             style="fill:#000000;fill-opacity:1;fill-rule:nonzero;stroke:none"
             id="path66858-8-4-8-4" />
        </g>
        <g
           id="g66860-2-8-6-7"
           transform="translate(65.760506,-157.43722)"
           style="fill:#000000">
          <g
             id="g66862-7-4-8-2"
             clip-path="url(#clipPath66866-1-12-4-9-5)"
             style="fill:#000000">
            <g
               id="g66868-1-7-0-9"
               transform="translate(310.1591,651.4761)"
               style="fill:#000000">
              <path
                 d="m 0,0 c 0,-0.244 0.202,-0.443 0.452,-0.443 0.251,0 0.454,0.199 0.454,0.443 0,0.246 -0.203,0.444 -0.454,0.444 C 0.202,0.444 0,0.246 0,0 m -3.333,0.411 c 0,-0.197 0.165,-0.36 0.367,-0.36 0.202,0 0.367,0.163 0.367,0.36 0,0.198 -0.165,0.359 -0.367,0.359 -0.202,0 -0.367,-0.161 -0.367,-0.359 m 2.945,0.362 C -0.48,0.507 -0.615,0.259 -0.784,0.039 c 0.134,-0.016 0.274,0.026 0.378,0.126 0.169,0.167 0.176,0.434 0.018,0.608 m 3.92,-0.362 c 0,-0.197 0.163,-0.36 0.366,-0.36 0.203,0 0.367,0.163 0.367,0.36 C 4.265,0.609 4.101,0.77 3.898,0.77 3.695,0.77 3.532,0.609 3.532,0.411 M 1.714,0.043 C 1.541,0.269 1.404,0.521 1.312,0.794 1.136,0.619 1.136,0.339 1.312,0.165 1.421,0.059 1.571,0.018 1.714,0.043 M 6.879,0 c 0,-0.244 0.202,-0.443 0.453,-0.443 0.251,0 0.453,0.199 0.453,0.443 0,0.246 -0.202,0.444 -0.453,0.444 C 7.081,0.444 6.879,0.246 6.879,0 M 6.082,0.04 C 6.22,0.02 6.365,0.061 6.472,0.165 6.647,0.336 6.648,0.611 6.479,0.786 6.387,0.516 6.252,0.265 6.082,0.04 M 13.638,0 c 0,-0.244 0.203,-0.443 0.451,-0.443 0.251,0 0.453,0.199 0.453,0.443 0,0.246 -0.202,0.444 -0.453,0.444 -0.248,0 -0.451,-0.198 -0.451,-0.444 m -3.306,0.411 c 0,-0.197 0.165,-0.36 0.368,-0.36 0.202,0 0.367,0.163 0.367,0.36 0,0.198 -0.165,0.359 -0.367,0.359 -0.203,0 -0.368,-0.161 -0.368,-0.359 M 8.521,0.035 C 8.359,0.246 8.23,0.479 8.138,0.729 8.017,0.557 8.034,0.318 8.19,0.165 8.282,0.077 8.401,0.033 8.521,0.035 M 13.268,0.75 C 13.176,0.491 13.044,0.252 12.88,0.036 c 0.126,-0.008 0.254,0.035 0.35,0.129 0.163,0.16 0.177,0.411 0.038,0.585 m 4.811,0.022 c 0,-0.198 0.164,-0.358 0.367,-0.358 0.202,0 0.367,0.16 0.367,0.358 0,0.199 -0.165,0.36 -0.367,0.36 -0.203,0 -0.367,-0.161 -0.367,-0.36 m 1.215,0.256 C 19.463,0.92 19.689,0.967 19.801,1.134 19.91,1.301 19.862,1.523 19.693,1.631 19.523,1.739 19.296,1.692 19.186,1.526 19.075,1.359 19.124,1.136 19.294,1.028 M -3.708,0.886 -4.387,0.888 c 0.007,-0.015 0.013,-0.03 0.022,-0.045 0.102,-0.172 0.326,-0.23 0.501,-0.131 0.072,0.041 0.126,0.104 0.156,0.174 M -2.159,0.88 -2.274,0.882 C -2.252,0.796 -2.199,0.719 -2.119,0.667 -2.105,0.658 -2.091,0.65 -2.077,0.645 -2.107,0.721 -2.136,0.8 -2.159,0.88 M 3.146,0.864 3.06,0.865 C 3.044,0.815 3.028,0.765 3.01,0.717 3.07,0.755 3.116,0.806 3.146,0.864 M 4.727,0.859 H 4.596 C 4.621,0.782 4.672,0.715 4.747,0.667 4.765,0.654 4.785,0.645 4.807,0.637 4.777,0.709 4.751,0.782 4.727,0.859 M 11.492,0.836 11.406,0.837 C 11.433,0.768 11.481,0.709 11.547,0.667 11.53,0.72 11.51,0.778 11.492,0.836 M 15.555,0.823 14.986,0.826 C 14.974,0.816 14.962,0.804 14.95,0.794 c -0.177,-0.175 -0.177,-0.455 0,-0.629 0.176,-0.173 0.463,-0.173 0.639,0 0.177,0.174 0.177,0.454 0,0.629 -0.01,0.01 -0.022,0.02 -0.034,0.029 m 13.352,14.317 -2.918,0.394 2.918,-1.203 z M -24.381,3.909 -24,3.282 c 0.068,0.232 0.157,0.456 0.263,0.67 h -0.555 z m 2.077,4.951 h -0.102 l -1.912,-4.375 0.265,0.072 h 0.688 c 0.128,0.174 0.27,0.339 0.425,0.49 V 7.27 l 0.345,0.676 0.291,0.312 z m 0.562,0 h -0.356 V 8.478 Z m 20.31,-9.429 c 0.049,-0.085 0.091,-0.184 0.12,-0.266 l 0.751,-0.008 c -0.252,0.1 -0.487,0.236 -0.696,0.401 -0.056,-0.045 -0.114,-0.087 -0.175,-0.127 m 4.225,-0.235 0.026,-0.073 0.166,-0.001 c -0.066,0.021 -0.13,0.047 -0.192,0.074 M 2.195,-0.871 c 0.026,0.106 0.064,0.238 0.118,0.337 C 2.265,-0.501 2.219,-0.466 2.175,-0.43 1.957,-0.607 1.708,-0.75 1.439,-0.853 Z m 2.738,-0.027 0.018,0.072 C 4.888,-0.853 4.824,-0.875 4.759,-0.897 Z m 1.369,-0.015 0.017,0.071 C 6.062,-0.741 5.826,-0.603 5.615,-0.435 5.555,-0.483 5.494,-0.529 5.43,-0.571 5.495,-0.682 5.545,-0.819 5.574,-0.906 Z m 3.322,0.097 c 0.02,-0.053 0.035,-0.1 0.045,-0.131 l 0.361,-0.004 c -0.141,0.034 -0.276,0.08 -0.406,0.135 M 9.005,-0.94 c 0.024,0.105 0.066,0.272 0.128,0.394 -0.04,0.027 -0.08,0.055 -0.116,0.084 -0.216,-0.165 -0.457,-0.3 -0.716,-0.397 l 0.026,-0.075 z m 2.739,-0.029 c 0.009,0.041 0.021,0.096 0.037,0.154 -0.15,-0.063 -0.305,-0.113 -0.467,-0.15 z m 1.368,-0.014 c 0.008,0.032 0.016,0.073 0.026,0.118 -0.27,0.098 -0.521,0.238 -0.744,0.413 -0.047,-0.037 -0.096,-0.073 -0.146,-0.108 0.092,-0.151 0.156,-0.359 0.173,-0.417 z m 4.144,0.162 c 0.028,0.114 0.074,0.259 0.133,0.358 -0.38,0.156 -0.715,0.395 -0.983,0.693 -0.301,-0.476 -0.752,-0.851 -1.286,-1.065 l 0.026,-0.078 0.734,0.033 c 0.046,0.194 0.141,0.493 0.283,0.493 0.147,0 0.271,-0.289 0.335,-0.468 z m 1.348,0.131 c -0.05,0.02 -0.104,0.018 -0.158,0.018 -0.231,0 -0.458,0.028 -0.67,0.081 0.028,-0.058 0.054,-0.118 0.076,-0.175 z m -23.129,0.043 0.032,0.073 c -0.519,0.346 -0.909,0.862 -1.088,1.466 L -6.818,0.896 C -7.145,0.519 -7.577,0.231 -8.07,0.078 -8.045,0.01 -8.026,-0.064 -8.012,-0.129 l 0.782,-0.112 c 0.079,0.18 0.199,0.398 0.323,0.38 0.135,-0.017 0.216,-0.28 0.257,-0.465 l 0.773,-0.117 c 0.078,0.182 0.202,0.414 0.329,0.396 0.14,-0.02 0.221,-0.299 0.261,-0.485 z M 21.316,0.721 21.663,0.455 21.5,0.118 21.023,0.222 20.399,-0.35 20.66,-0.744 20.397,-1.011 19.906,-0.717 19.254,-1.013 19.222,-1.464 18.847,-1.521 18.692,-1.14 17.85,-1.226 17.748,-1.663 H 17.366 L 17.278,-1.279 16.466,-1.313 16.374,-1.7 H 15.995 L 15.912,-1.337 15.08,-1.374 15.002,-1.7 H 14.623 L 14.552,-1.395 13.694,-1.433 13.63,-1.7 h -0.38 l -0.06,0.259 -0.868,0.008 -0.063,-0.267 h -0.38 l -0.062,0.273 -0.865,0.01 L 10.886,-1.7 H 10.507 L 10.441,-1.412 9.584,-1.403 9.514,-1.7 H 9.135 L 9.066,-1.398 8.249,-1.391 8.176,-1.7 H 7.797 L 7.725,-1.385 6.881,-1.376 6.804,-1.7 H 6.425 L 6.349,-1.37 5.513,-1.362 5.433,-1.7 H 5.052 L 4.975,-1.356 4.144,-1.348 4.061,-1.7 H 3.68 L 3.599,-1.342 2.775,-1.333 2.689,-1.7 H 2.309 L 2.223,-1.329 1.406,-1.319 1.317,-1.7 H 0.937 L 0.848,-1.314 0.037,-1.305 -0.055,-1.7 h -0.38 l -0.092,0.401 -0.804,0.008 -0.098,-0.409 h -0.379 l -0.094,0.415 -0.72,0.007 -0.186,-0.473 -0.376,0.052 -0.037,0.454 -0.791,0.077 -0.155,-0.396 -0.375,0.053 -0.034,0.409 -0.794,0.12 -0.155,-0.395 -0.375,0.052 -0.036,0.429 -0.786,0.118 -0.162,-0.412 -0.376,0.052 -0.036,0.444 -0.781,0.113 -0.166,-0.421 -0.376,0.051 -0.039,0.466 -0.786,0.153 -0.174,-0.401 -0.374,0.065 -0.024,0.507 -0.619,0.313 -0.462,-0.305 -0.276,0.253 0.253,0.427 -0.54,0.741 -0.409,-0.195 -0.239,0.289 0.375,0.463 -0.02,0.109 -1.647,-0.085 -0.795,-0.524 -1.38,-0.041 c -0.396,-1.891 -2.106,-3.314 -4.153,-3.314 -2.341,0 -4.24,1.861 -4.24,4.155 0,0.336 0.04,0.664 0.118,0.975 l -0.453,0.748 -0.201,-0.098 -0.447,0.033 -0.24,0.337 0.104,0.335 0.583,0.371 -0.07,-0.337 -0.411,-0.201 0.241,-0.202 0.24,0.135 0.193,0.166 2.105,4.832 v 0.985 h 0.171 v 1.146 c -0.098,0.016 -0.171,0.098 -0.171,0.198 0,0.111 0.092,0.201 0.206,0.201 0.112,0 0.206,-0.09 0.206,-0.201 0,-0.074 -0.042,-0.139 -0.104,-0.175 v -1.169 h 0.652 V 9.968 h 0.343 V 9.544 l 0.122,0.129 0.751,0.101 -0.015,0.228 1.097,0.101 0.089,-0.173 2.607,0.346 -0.02,0.264 0.685,0.1 0.085,-0.265 4.355,0.578 -0.024,0.302 0.685,0.101 0.097,-0.303 5.814,0.772 0.251,0.388 0.091,0.848 0.377,0.537 0.496,0.1 0.291,0.449 32.176,-0.372 v 0.411 l -3.443,1.419 -0.688,0.094 v -0.12 h -0.389 v 0.56 l -0.295,-0.116 -0.052,0.125 0.347,0.137 v 0.055 h 0.14 l 0.267,0.104 0.05,-0.126 -0.068,-0.027 v -0.456 l 0.639,-0.087 0.085,-0.012 3.407,-0.46 v 0.241 h -0.13 v 0.357 h 0.883 v -0.357 h -0.193 v -1.748 l 0.323,-0.004 1.053,-0.99 -0.255,-0.399 0.068,-0.122 L 26.061,5.061 25.847,4.998 25.024,3.716 h 0.454 V 3.885 H 25.65 V 3.75 l 0.925,0.202 h 0.652 V 2.775 H 26.679 L 25.65,3.168 V 3.011 h -0.172 v 0.134 h -0.6 c 0.199,0 0.361,-0.158 0.361,-0.352 0,-0.195 -0.162,-0.354 -0.361,-0.354 -0.114,0 -0.217,0.053 -0.283,0.136 H 23.522 V 2.814 L 21.566,2.597 21.603,2.027 22.058,1.932 22.064,1.56 21.585,1.446 Z"
                 style="fill:#000000;fill-opacity:1;fill-rule:nonzero;stroke:none"
                 id="path66870-7-5-5-1" />
            </g>
            <g
               id="g66872-2-6-0-2"
               transform="translate(286.3,654.3358)"
               style="fill:#000000">
              <path
                 d="M 0,0 C 0,0.092 -0.738,1.273 -0.738,1.273 L 1.496,6.476 2.935,6.201 Z"
                 style="fill:#000000;fill-opacity:1;fill-rule:nonzero;stroke:none"
                 id="path66874-1-5-4-9" />
            </g>
          </g>
        </g>
      </g>
      <path
         style="fill:#000000;fill-opacity:1;fill-rule:nonzero;stroke:none"
         d="m 275.97358,654.44112 0.082,0.342 -0.195,0.905 -0.099,0.398 -0.115,0.408 -0.1,0.382 -0.155,0.309 -0.24,0.206 -0.395,0.24 -0.413,0.155 c 0,0 -0.309,0.017 -0.361,0.308 -0.051,0.292 -0.034,0.241 -0.034,0.241 l 0.223,0.06 c 0,0 0.216,0.274 0.129,0.471 -0.086,0.197 -0.154,0.24 -0.154,0.24 0,0 -0.01,0.43 -0.078,0.755 -0.068,0.326 -0.318,0.412 -0.378,0.446 -0.06,0.034 -0.62,0.086 -0.62,0.086 0,0 -0.429,-0.069 -0.516,-0.154 -0.085,-0.086 -0.188,-0.326 -0.188,-0.326 l -0.138,-0.36 -0.119,-0.189 c 0,0 -0.032,-0.051 -0.052,-0.258 0.01,-0.102 0.102,-0.12 0.12,-0.24 0.017,-0.12 0.086,-0.18 0.138,-0.24 0.051,-0.06 0.205,-0.12 0.205,-0.12 l 0.034,-0.171 c 0,0 0.028,-0.112 -0.051,-0.292 -0.077,-0.18 -0.24,-0.257 -0.24,-0.257 l -0.206,-0.138 -0.362,-0.068 -0.326,-0.12 -0.138,-0.343 -0.068,-0.378 -0.035,-0.292 -0.119,-0.179 -2.326,1.456 -0.457,0.082 0.065,-0.424 0.378,-0.574 0.087,-0.343 0.291,-0.343 0.395,-0.292 0.121,-0.206 -0.137,-0.377 0.532,-0.446 0.414,-0.292 0.291,-0.137 0.417,-0.093 0.244,0.082 -0.111,0.354 0.139,-0.206 -0.018,-0.171 c 0,0 -0.189,-0.017 -0.257,-0.121 -0.07,-0.102 -0.07,-0.36 -0.07,-0.36 l 0.036,-0.326 0.102,-0.343 0.052,-0.325 -0.069,-0.189 0.017,-0.532 -0.068,-0.463 0.034,-0.189 0.241,-0.171 0.068,-0.515 v -0.566 l 0.068,-0.412 0.035,-0.634 v -0.429 l -0.12,-0.206 v -0.275 l -0.017,-0.308 0.086,-0.309 0.016,-1.647 v -0.274 l 0.087,-0.318 -0.087,-0.317 -0.042,-0.266 -0.112,-0.283 -0.069,-0.377 0.078,-0.438 0.232,-0.18 0.361,-0.034 0.223,0.18 0.104,0.386 v 0.446 l -0.069,0.292 -0.017,0.394 0.068,0.506 0.362,1.621 0.172,0.215 0.05,0.454 -0.05,0.789 0.137,0.532 0.188,0.72 0.07,0.498 c 0,0 0,0.283 0.172,0.275 0.177,-0.01 0.206,-0.189 0.206,-0.189 l 0.189,-0.566 0.293,-0.584 0.103,-0.377 -0.017,-0.394 -0.104,-0.343 c 0,0 -0.016,-0.121 0.121,-0.395 l 0.069,-1.973 -0.103,-0.326 0.137,-0.385 0.241,-0.035 0.137,-0.24 c 0,0 0.061,-0.266 0.121,-0.326 0.059,-0.06 0.464,-0.155 0.464,-0.155 0,0 0.404,0.026 0.482,0.147 0.077,0.119 0.025,0.282 0,0.377 -0.026,0.094 -0.241,0.24 -0.241,0.24 l -0.379,0.24 -0.205,0.386 0.24,1.63 0.291,0.351 c 0.053,0.103 0.019,1.115 0.019,1.115 l -0.034,1.253 -0.105,1.269 v 0.446 c 0,0 -0.016,0.427 -0.01,0.677 0.01,0.269 -0.057,0.277 -0.057,0.277 0,0 -0.065,0.179 -0.041,0.35 0.021,0.143 0.02,0.222 0.018,0.256 l 0.104,0.2 c 0.058,0.12 0.072,0.172 0.063,0.189 l 0.231,0.243 z"
         id="path8713-6" />
      <rect
         style="fill:#000000;fill-opacity:1;stroke:none;stroke-width:0.492831;stroke-linejoin:round;paint-order:markers fill stroke;stop-color:#000000"
         id="rect9651"
         width="5.955039"
         height="13.174088"
         x="580.88501"
         y="-402.26865"
         transform="matrix(0.82891665,0.55937213,0.55937213,-0.82891665,0,0)" />
      <rect
         style="fill:#000000;fill-opacity:1;stroke:none;stroke-width:0.492831;stroke-linejoin:round;paint-order:markers fill stroke;stop-color:#000000"
         id="rect9651-2"
         width="5.955039"
         height="13.174088"
         x="572.75513"
         y="-408.11194"
         transform="matrix(0.82891665,0.55937213,0.55937213,-0.82891665,0,0)" />
      <rect
         style="fill:#000000;fill-opacity:1;stroke:none;stroke-width:0.492831;stroke-linejoin:round;paint-order:markers fill stroke;stop-color:#000000"
         id="rect9651-0"
         width="5.955039"
         height="13.174088"
         x="565.66382"
         y="-412.57666"
         transform="matrix(0.82891665,0.55937213,0.55937213,-0.82891665,0,0)" />
    </g>
  </g>
</svg>
