<?xml version="1.0" encoding="UTF-8" standalone="no"?>
<!-- Created with Inkscape (http://www.inkscape.org/) -->

<svg
   width="19.958029mm"
   height="7.7618499mm"
   viewBox="0 0 19.958029 7.7618503"
   version="1.1"
   id="svg33402"
   sodipodi:docname="inkporter-svg-e7qp_36f.svg"
   inkscape:version="1.1.1 (3bf5ae0d25, 2021-09-20)"
   xmlns:inkscape="http://www.inkscape.org/namespaces/inkscape"
   xmlns:sodipodi="http://sodipodi.sourceforge.net/DTD/sodipodi-0.dtd"
   xmlns="http://www.w3.org/2000/svg"
   xmlns:svg="http://www.w3.org/2000/svg">
  <sodipodi:namedview
     id="namedview555"
     pagecolor="#ffffff"
     bordercolor="#666666"
     borderopacity="1.0"
     inkscape:pageshadow="2"
     inkscape:pageopacity="0.0"
     inkscape:pagecheckerboard="0"
     inkscape:document-units="mm"
     showgrid="false"
     inkscape:zoom="0.32"
     inkscape:cx="889.0625"
     inkscape:cy="4120.3125"
     inkscape:window-width="1920"
     inkscape:window-height="1017"
     inkscape:window-x="-8"
     inkscape:window-y="-8"
     inkscape:window-maximized="1"
     inkscape:current-layer="svg33402" />
  <defs
     id="defs13927" />
  <path
     d="M 19.95803,4.61452 H 19.67017 L 19.87478,4.34183 V 3.80278 L 19.14523,2.61357 18.07879,2.58257 V 2.38326 h -2.72274 v 0.11923 l -0.30621,-0.008 V 2.34173 H 14.21693 V 0 h -0.0755 v 2.34173 h -0.22119 v 0.1196 L 11.9715,2.40413 V 2.25737 L 11.83074,2.04817 11.45186,1.73914 H 11.3432 L 10.88,1.18457 V 1.18422 H 8.1699597 V 1.03171 h -0.35383 l -0.0201,-0.0317 h 0.1457 l 0.0131,-0.0529 h 0.44909 l 0.0332,0.10583 0.0332,-0.0462 h 0.0794 l 0.073,0.0857 0.0931,-0.0198 -0.0332,-0.0924 V 0.80949 l 0.0794,-0.0861 -0.0794,-0.0198 -0.11924,0.0462 -0.29104,0.0332 h -0.11924 l -0.0466,-0.0533 -0.59372,-0.0109 -0.53552,-0.0748 h -0.25365 v 0.0596 h -1.16381 V 0.58435 h -0.0462 v 0.0861 h -0.23707 v 0.0497 h -0.11324 v 0.0332 h -0.20426 v 0.0924 h 0.20426 v 0.0303 H 4.76747 l 0.055,-0.072 -0.0889,-0.0448 -0.18345,0.28293 -0.29245,-0.018 -0.26635,0.018 H 3.2332 L 3.04411,1.14237 2.36537,1.18687 v 0.25999 l 0.65616,0.0557 0.20003,0.0889 0.76976,0.0183 H 4.21745 L 4.14585,1.73852 H 4.03261 l -0.399,0.43462 v 0.2727 L 1.19239,3.23641 0.24659,4.11095 0.92216,4.84473 H 0.76094 C 0.73514,4.77173 0.66534,4.71914 0.58279,4.71914 H 0.18874 C 0.08432,4.71914 0,4.80344 0,4.92904 0,5.03311 0.0843,5.11707 0.18874,5.11707 h 0.39405 c 0.0826,0 0.1524,-0.0522 0.17815,-0.12523 h 0.29634 l 0.78634,0.85407 c -0.003,0.0473 -0.006,0.0949 -0.006,0.14323 0,0.97931 0.79586,1.77271 1.77729,1.77271 0.91017,0 1.6598197,-0.68122 1.7652997,-1.55999 h 0.92322 c 0.10548,0.87877 0.85549,1.55999 1.76459,1.55999 0.90911,0 1.65947,-0.68122 1.76495,-1.55999 H 11.17035 c 0.10548,0.87877 0.85513,1.55999 1.76495,1.55999 0.90981,0 1.65911,-0.68122 1.76459,-1.55999 h 0.90206 c 0.10548,0.87877 0.85619,1.55999 1.76565,1.55999 0.98107,0 1.77729,-0.7934 1.77729,-1.77271 0,-0.19473 -0.0318,-0.38206 -0.0893,-0.55668 l 0.37853,-0.50412 h 0.52352 z M 5.4073597,0.87614 h -0.085 v -0.0303 h 0.085 z m 2.05846,0.15557 h -0.12982 l 0.0614,-0.10865 0.0684,0.006 z"
     id="G-SdKfz234-75" />
</svg>
