<?xml version="1.0" encoding="UTF-8" standalone="no"?>
<!-- Created with Inkscape (http://www.inkscape.org/) -->

<svg
   width="20.331631mm"
   height="7.9272699mm"
   viewBox="0 0 20.331631 7.9272699"
   version="1.1"
   id="svg4182"
   sodipodi:docname="inkporter-svg-dkwifiqy.svg"
   xmlns:inkscape="http://www.inkscape.org/namespaces/inkscape"
   xmlns:sodipodi="http://sodipodi.sourceforge.net/DTD/sodipodi-0.dtd"
   xmlns="http://www.w3.org/2000/svg"
   xmlns:svg="http://www.w3.org/2000/svg">
  <sodipodi:namedview
     id="namedview4184"
     pagecolor="#ffffff"
     bordercolor="#666666"
     borderopacity="1.0"
     inkscape:pageshadow="2"
     inkscape:pageopacity="0.0"
     inkscape:pagecheckerboard="0"
     inkscape:document-units="mm"
     showgrid="false"
     inkscape:zoom="3.6233469"
     inkscape:cx="405.01229"
     inkscape:cy="608.41539"
     inkscape:window-width="1920"
     inkscape:window-height="1017"
     inkscape:window-x="-8"
     inkscape:window-y="-8"
     inkscape:window-maximized="1"
     inkscape:current-layer="layer1" />
  <defs
     id="defs4179">
    <clipPath
       clipPathUnits="userSpaceOnUse"
       id="clipPath51510-6-1-5">
      <path
         d="m 311.244,282.183 h 237.721 v 240.1 H 311.244 Z"
         id="path51508-7-1-3" />
    </clipPath>
    <clipPath
       clipPathUnits="userSpaceOnUse"
       id="clipPath66866-1-1-8-6-3">
      <path
         d="M 0,0 H 595.276 V 841.89 H 0 Z"
         id="path66864-5-2-8-4-4" />
    </clipPath>
  </defs>
  <g
     inkscape:label="Layer 1"
     inkscape:groupmode="layer"
     id="layer1"
     transform="translate(-41.881463,-147.634)">
    <path
       d="m 61.918888,152.34683 0.208844,-0.27799 v -0.55068 l -0.743655,-1.21427 -1.08585,-0.0317 v -0.2039 h -2.773892 v 0.12277 l -0.312208,-0.01 v -0.15628 H 56.364049 V 147.634 h -0.07691 v 2.39078 h -0.225778 v 0.12277 l -1.985081,-0.0582 v -0.14993 l -0.143227,-0.21414 -0.385234,-0.31538 H 52.8405 v -0.8248 h -1.15887 v -0.49882 h -4.194881 l -0.408163,0.49777 h -2.547409 v -0.0286 l -0.976136,-0.0593 v 0.3609 l 0.976136,-0.0589 v -0.0282 h 2.39395 l -0.525991,0.63994 h -0.409223 l -0.407458,0.44379 v 0.27834 l -2.486378,0.80716 -0.963789,0.89323 0.688975,0.74966 h -0.164747 c -0.02611,-0.0744 -0.09701,-0.12806 -0.18168,-0.12806 h -0.401109 c -0.106186,0 -0.192264,0.0857 -0.192264,0.21413 0,0.10619 0.08608,0.19262 0.192264,0.19262 h 0.401109 c 0.08467,0 0.155575,-0.054 0.182033,-0.12876 h 0.301272 l 0.800806,0.87242 c -0.0025,0.0476 -0.0053,0.097 -0.0053,0.14605 0,0.99977 0.810683,1.8108 1.811514,1.8108 0.925689,0 1.689805,-0.69603 1.796697,-1.59349 h 0.940506 c 0.107597,0.89746 0.871361,1.59349 1.798108,1.59349 0.926394,0 1.690511,-0.69603 1.798108,-1.59349 h 1.362075 c 0.107597,0.89746 0.871361,1.59349 1.798108,1.59349 0.926042,0 1.690159,-0.69603 1.797403,-1.59349 h 0.919339 c 0.106892,0.89746 0.871008,1.59349 1.797756,1.59349 1.000125,0 1.810808,-0.81103 1.810808,-1.8108 0,-0.19897 -0.0314,-0.38982 -0.09102,-0.56833 l 0.385234,-0.51435 h 0.534811 v -0.32138 z"
       id="G-SdKfz234" />
  </g>
</svg>
