<?xml version="1.0" encoding="UTF-8" standalone="no"?>
<!-- Created with Inkscape (http://www.inkscape.org/) -->

<svg
   width="15.308149mm"
   height="7.1145401mm"
   viewBox="0 0 15.308149 7.1145405"
   version="1.1"
   id="svg33402"
   sodipodi:docname="inkporter-svg-e7qp_36f.svg"
   inkscape:version="1.1.1 (3bf5ae0d25, 2021-09-20)"
   xmlns:inkscape="http://www.inkscape.org/namespaces/inkscape"
   xmlns:sodipodi="http://sodipodi.sourceforge.net/DTD/sodipodi-0.dtd"
   xmlns="http://www.w3.org/2000/svg"
   xmlns:svg="http://www.w3.org/2000/svg">
  <sodipodi:namedview
     id="namedview555"
     pagecolor="#ffffff"
     bordercolor="#666666"
     borderopacity="1.0"
     inkscape:pageshadow="2"
     inkscape:pageopacity="0.0"
     inkscape:pagecheckerboard="0"
     inkscape:document-units="mm"
     showgrid="false"
     inkscape:zoom="0.32"
     inkscape:cx="889.0625"
     inkscape:cy="4120.3125"
     inkscape:window-width="1920"
     inkscape:window-height="1017"
     inkscape:window-x="-8"
     inkscape:window-y="-8"
     inkscape:window-maximized="1"
     inkscape:current-layer="svg33402" />
  <defs
     id="defs13927" />
  <path
     d="m 15.09751,3.36491 0.13335,-0.0624 -0.0296,-0.0642 0.10689,-0.0501 -0.11783,-0.25188 0.0554,-0.0258 -0.0621,-0.13335 -0.0557,0.0257 -0.19897,-0.42757 -0.10089,0.0469 -0.0346,-0.0741 0.10548,-0.0494 -0.0998,-0.21343 0.0533,-0.0251 -0.0624,-0.13335 -0.0529,0.0251 -0.21731,-0.46602 -0.78599,0.36654 -0.21025,-0.44697 h -0.0106 l -0.115,-0.2921 -1.91523,-0.30233 V 0.58985 H 10.6368 V 0.44028 h -0.34749 l -0.0198,-0.0314 h 0.14288 l 0.0131,-0.0519 h 0.44097 l 0.0325,0.10407 0.0325,-0.0455 h 0.078 l 0.0716,0.0847 0.0914,-0.0198 -0.0324,-0.0907 V 0.22147 l 0.078,-0.0847 -0.078,-0.0194 -0.11713,0.0455 -0.28575,0.0325 h -0.11712 l -0.0455,-0.0522 -0.5831403,-0.0109 -0.52564,-0.0737 h -0.24906 v 0.0589 h -1.14264 V 0 h -0.0452 v 0.0847 h -0.23319 v 0.049 h -0.11112 v 0.0325 h -0.20038 v 0.091 h 0.20038 v 0.03 h -0.38876 l 0.0543,-0.0709 -0.0875,-0.0441 -0.17992,0.27835 -0.28716,-0.0173 -0.26141,0.0173 h -0.74436 l -0.18556,0.0988 -0.6664,0.0437 v 0.25576 l 0.64382,0.055 0.1965,0.0875 0.756,0.018 h 0.2219 l -0.0716,0.12947 c 0,0 0.3616,0.0427 0.69674,0.0663 0.11536,0.008 0.18909,0.0974 0.28187,0.0981 l 0.15593,0.11536 -0.59091,-0.0265 v 0.0762 h -0.0628 l -0.10936,0.18909 -0.30727,0.14146 -0.0596,0.4946 -0.16863,0.29245 -0.3616,0.0272 -0.003,-0.0413 -0.84561,0.0589 0.003,0.0466 -0.32703,0.0251 -0.16721,0.0243 -0.007,-0.0423 -1.0484497,0.1658 0.005,0.0293 -0.90805,0.12312 H 2.43922 v 0.0698 L 1.37736,3.22653 c 0.0236,-0.0603 0.0392,-0.14958 0.0392,-0.24907 0,-0.18168 -0.0505,-0.32843 -0.11254,-0.32843 -0.0582,0 -0.10654,0.13123 -0.11148,0.29845 H 1.11744 V 2.61975 c 0.0307,-0.0194 0.0512,-0.054 0.0512,-0.0935 0,-0.0603 -0.0494,-0.10971 -0.11042,-0.10971 -0.0607,0 -0.11007,0.0494 -0.11007,0.10971 0,0.0582 0.0452,0.10654 0.10231,0.11042 v 0.3108 h -0.0314 v 0.1457 h 0.0314 V 3.27414 L 0.64123,3.33304 0.26376,3.32604 0.25576,4.07357 0.0321,5.3725 C 0.0113,5.43 0,5.49174 0,5.55665 c 0,0.30021 0.24342,0.54328 0.54328,0.54328 0.0441,0 0.0871,-0.005 0.12841,-0.0155 0.12877,0.58913 0.6537,1.03011 1.28164,1.03011 0.68545,0 1.24813,-0.52564 1.30669,-1.19521 l 1.0407,-0.036 0.0236,0.22014 0.6798097,-0.0258 c 0.0406,0.0871 0.0868,0.16263 0.13899,0.22825 l -0.0346,0.0392 -0.0208,0.0818 0.13653,0.11254 0.0847,-0.0353 0.019,-0.0201 c 0.0977,0.0702 0.20849,0.1203 0.33196,0.15487 l -0.0138,0.0582 0.0205,0.0822 0.17322,0.0349 0.0582,-0.0702 0.0148,-0.0564 c 0.049,0.006 0.10019,0.0109 0.15275,0.0137 l 0.18557,0.0117 -0.006,0.079 0.0324,0.078 0.17745,0.007 0.0462,-0.0787 0.007,-0.0695 0.30198,0.0201 0.001,0.0903 0.0395,0.0744 0.17675,-0.007 0.0392,-0.0829 7.1e-4,-0.0589 0.23354,0.0138 10e-4,0.10407 0.0392,0.0748 0.17745,-0.008 0.0395,-0.0825 7e-4,-0.0765 c 0.079,0.004 0.1584,0.007 0.23777,0.009 l 0.001,0.11853 0.0395,0.0751 0.17745,-0.008 0.0392,-0.0825 7.1e-4,-0.0981 h 0.31644 l 0.001,0.10972 0.0395,0.0751 0.17709,-0.008 0.0392,-0.0825 10e-4,-0.0942 0.24553,-7e-4 0.001,0.1143 0.0392,0.0751 0.1771,-0.008 0.0395,-0.0825 7e-4,-0.0995 0.27729,-7e-4 10e-4,0.13194 0.0395,0.0748 0.17744,-0.008 0.0392,-0.0826 10e-4,-0.11642 0.22119,-7e-4 0.002,0.14499 0.0395,0.0744 0.1770903,-0.007 0.0392,-0.0825 0.001,-0.13018 0.2607,-0.001 0.002,0.13547 0.0392,0.0748 0.17674,-0.008 0.0399,-0.0826 10e-4,-0.11995 0.2607,-10e-4 0.002,0.14075 0.0395,0.0752 0.17674,-0.008 0.0392,-0.0826 10e-4,-0.12735 0.31327,-0.003 0.004,0.0875 0.042,0.073 0.17674,-0.0141 0.036,-0.084 -0.001,-0.0692 c 0.0554,-0.006 0.14075,-0.0197 0.24412,-0.0391 l 0.002,0.0487 0.042,0.073 0.17674,-0.0141 0.0363,-0.084 -0.002,-0.0758 c 0.0706,-0.0148 0.14358,-0.0314 0.21802,-0.0487 l 0.005,0.037 0.048,0.0692 0.17498,-0.0293 0.0289,-0.0864 -0.006,-0.0501 c 0.0829,-0.0205 0.16299,-0.0406 0.23813,-0.061 l 0.012,0.0575 0.0529,0.0663 0.1718,-0.042 0.0233,-0.0879 -0.0123,-0.0653 0.0624,-0.0201 c 0.066,-0.0233 0.13511,-0.0501 0.20355,-0.084 l 0.0166,0.048 0.0603,0.0589 0.1658,-0.0624 0.0124,-0.0907 -0.0321,-0.1009 c 0.0801,-0.0699 0.1524,-0.15628 0.2099,-0.2667 l 0.0713,0.0561 0.0825,0.0162 0.10548,-0.14287 -0.0399,-0.0825 -0.12594,-0.10442 c 0.0176,-0.0752 0.0303,-0.1584 0.0363,-0.25048 l 0.10337,0.004 0.0765,-0.0349 10e-4,-0.1778 -0.0575,-0.031 0.46778,-0.0522 0.0317,0.40182 h 0.0632 l -0.0159,-0.49566 h 0.41664 l -0.0233,-0.26775 -0.31468,-0.67028 0.0536,-0.024 -0.10548,-0.23707 -0.0586,0.0258 -0.14922,-0.3175 0.53657,-0.24977 z M 1.11763,3.26402 V 3.09328 h 0.0819 c 0.008,0.0624 0.0222,0.11571 0.0406,0.1531 z M 3.26429,5.7571 C 3.26129,5.6731 3.25049,5.59024 3.23249,5.51051 L 3.85196,5.7571 Z m 3.0010797,0.76729 -0.11395,-0.007 c 0.0402,-0.009 0.079,-0.0198 0.11677,-0.0335 z m 3.61279,-6.19125 0.067,0.006 v 0.10125 h -0.12735 z m -2.03729,-0.0759 h 0.0833 v 0.03 h -0.0833 z m 1.97944,5.67161 c 0.0127,0.0381 -0.012,0.11395 -0.0487,0.17886 -0.0349,-0.0229 -0.0737,-0.1083 -0.0882,-0.17533 z m -2.42323,0.44239 -0.0984,0.18485 3.6e-4,0.0332 -0.22966,-0.0134 0.001,-0.16193 -0.0632,-0.0826 -0.1023,-0.004 -0.0981,0.18486 7.1e-4,0.0469 -0.28187,-0.0183 0.0148,-0.14958 -0.0275,-0.0434 c 0.11289,-0.0896 0.20355,-0.20532 0.26247,-0.33797 l 0.0353,-0.001 0.41205,-0.0109 c 0.0409,0.14287 0.11677,0.27093 0.21801,0.37465 z m 0.10971,-0.30621 c -0.0243,0.0226 -0.0575,-0.0176 -0.0836,-0.0723 l 0.17992,-0.005 c -0.0448,0.0353 -0.0815,0.0639 -0.0963,0.0773 m 0.43357,0.32173 c -7.1e-4,0.0109 -0.007,0.0176 -0.0169,0.0212 l -0.0328,0.002 -0.0963,0.1845 3.5e-4,0.0162 c -0.0783,-0.002 -0.15628,-0.006 -0.23389,-0.009 l 7e-4,-0.12559 c 0.0709,0.0504 0.14923,0.0903 0.23284,0.11536 l 0.0963,-0.18168 c -0.0832,-0.009 -0.23953,-0.0953 -0.2099,-0.13335 l 0.2286,-0.29669 0.0829,-0.002 c -0.0197,0.14217 -0.0494,0.35736 -0.0519,0.40887 m 0.42862,0.22825 h -0.0963 c 0.0328,-0.007 0.0653,-0.0169 0.0963,-0.0279 z m -0.12206,-0.23354 -0.0751,-0.40852 0.0794,-0.003 c 0.0466,0.0564 0.10231,0.12206 0.14958,0.17745 0.0265,0.0557 0.0582,0.10865 0.0949,0.15733 -0.0529,0.0589 -0.23989,0.12665 -0.24871,0.0766 m 0.38417,0.23354 10e-4,-0.12595 -0.0247,-0.0324 0.0152,-0.0124 c 0.0737,0.0663 0.15769,0.12065 0.24977,0.17004 z m 0.29775,-0.35349 c 0.0162,-0.0155 0.24059,-0.20461 0.24059,-0.20461 0,0 0.0589,0.18486 0.0864,0.30692 0.0272,0.12171 -0.42545,-0.004 -0.32702,-0.10231 m 0.54539,-0.32385 0.0222,-7e-4 c 0.004,0.0233 0.008,0.0455 0.0138,0.0677 z m 0.41699,0.67451 -0.2212,7.1e-4 3.6e-4,-0.0317 c 0.0519,-0.0272 0.10124,-0.0582 0.1464,-0.0935 0.0325,0.0258 0.0667,0.0494 0.10266,0.0713 z M 10.23629,6.42842 c -0.004,0.072 -0.2480003,-0.036 -0.2628203,-0.0942 0.0296,-0.0363 0.0561,-0.0751 0.0797,-0.11571 l 0.23319,-0.30269 h 0.0169 c -0.0145,0.0981 -0.0639,0.44556 -0.067,0.51259 m 0.37113,-0.002 -0.0649,-0.003 -0.0935,-0.51153 0.0134,-7.1e-4 c 0.0642,0.0773 0.28822,0.34573 0.33585,0.393 0.0392,0.0385 -0.0949,0.11253 -0.19085,0.12206 m 0.32067,0.18133 -0.21167,10e-4 C 10.8194,6.56376 10.91183,6.50096 10.9898,6.423 l 0.0258,0.0201 z m 0.26106,-0.001 7e-4,-0.0575 c 0.0501,0.0229 0.10301,0.042 0.15769,0.0561 z m 0.0758,-0.39265 c 0.0159,-0.0155 0.24024,-0.20461 0.24024,-0.20461 0,0 0.0589,0.18486 0.0864,0.30692 0.0275,0.12171 -0.4251,-0.004 -0.32668,-0.10231 m 0.66711,0.35349 c 0.0201,-0.009 0.0406,-0.0176 0.0603,-0.0272 L 11.993,6.555 Z M 11.95349,6.155 C 11.94149,6.1367 11.8032,5.87772 11.8032,5.87772 l 0.0222,-0.002 0.32314,-0.009 c 0.0575,0.0628 -0.12629,0.39406 -0.19508,0.28787 m 0.4833,0.20391 0.0131,0.0988 c -0.067,0.0155 -0.13335,0.0303 -0.1972,0.0441 l -0.006,-0.14428 c 0.0716,-0.0727 0.13123,-0.15664 0.17639,-0.24871 0.0272,0.0222 0.0561,0.0434 0.0864,0.0624 z m 0.15205,-0.41416 0.0709,-0.0914 0.21343,-0.005 c -0.0127,0.0935 -0.0229,0.17745 -0.0243,0.20708 -0.004,0.0787 -0.29916,-0.0589 -0.26,-0.11041 m 0.11641,0.4519 -0.0155,-0.13829 c 0.0723,0.0251 0.14958,0.0413 0.22966,0.0469 l 0.007,0.0346 c -0.0695,0.0183 -0.14394,0.0377 -0.2212,0.0568 m 0.70732,-0.43356 c -0.0374,0.0603 -0.24765,0.1397 -0.25752,0.0868 l -0.0378,-0.20849 0.20884,-0.006 c 0.0381,0.0448 0.0702,0.0808 0.0903,0.10301 z"
     id="G-SdKfz250-75" />
</svg>
