<?xml version="1.0" encoding="UTF-8" standalone="no"?>
<!-- Created with Inkscape (http://www.inkscape.org/) -->

<svg
   width="15.30584mm"
   height="7.3656301mm"
   viewBox="0 0 15.305839 7.3656306"
   version="1.1"
   id="svg33402"
   sodipodi:docname="inkporter-svg-e7qp_36f.svg"
   inkscape:version="1.1.1 (3bf5ae0d25, 2021-09-20)"
   xmlns:inkscape="http://www.inkscape.org/namespaces/inkscape"
   xmlns:sodipodi="http://sodipodi.sourceforge.net/DTD/sodipodi-0.dtd"
   xmlns="http://www.w3.org/2000/svg"
   xmlns:svg="http://www.w3.org/2000/svg">
  <sodipodi:namedview
     id="namedview555"
     pagecolor="#ffffff"
     bordercolor="#666666"
     borderopacity="1.0"
     inkscape:pageshadow="2"
     inkscape:pageopacity="0.0"
     inkscape:pagecheckerboard="0"
     inkscape:document-units="mm"
     showgrid="false"
     inkscape:zoom="0.32"
     inkscape:cx="889.0625"
     inkscape:cy="4120.3125"
     inkscape:window-width="1920"
     inkscape:window-height="1017"
     inkscape:window-x="-8"
     inkscape:window-y="-8"
     inkscape:window-maximized="1"
     inkscape:current-layer="svg33402" />
  <defs
     id="defs13927" />
  <path
     d="m 7.2254597,1.71925 v -0.078 l 1.20121,0.002 1.8520803,0.006 0.23425,-0.13053 0.0596,0.13406 0.93168,7e-4 L 11.34165,1.5353 H 11.21324 L 11.08518,1.5508 10.99948,1.5829 10.88729,1.5889 10.77511,1.5406 10.63083,1.4545 10.513,1.3854 10.4273,1.3427 l 0.0564,0.0709 -0.13512,0.0765 -0.0324,-0.13123 -0.0759,-0.0586 -0.0967,-0.1016 -0.0638,-0.0847 -0.0363,-0.0815 -0.0254,-0.0843 -0.0116,-0.091 -10e-4,-0.0815 0.005,-0.0642 0.091,0.0215 0.0829,0.0723 0.0561,0.0628 0.0536,0.0751 0.048,0.11077 0.2727,0.091 0.15487,0.0642 0.18591,0.0346 0.10301,-0.0938 0.11783,-0.0959 0.0423,-0.11254 -0.0504,-0.14569 -0.13159,-0.0243 -0.0452,-0.11324 -0.0684,-0.0543 0.0152,-0.13123 -0.16827,-0.096 0.0723,-0.0296 0.0388,-0.11112 0.012,-0.0656 0.0536,-0.11112 0.14993,-0.0533 0.1016,-0.006 0.0928,0.006 0.078,0.0268 0.0656,0.0303 0.0628,0.11888 0.009,0.0663 0.006,0.0808 0.0684,0.13123 -0.0116,0.0868 0.13865,0.0684 0.0882,0.0317 0.0748,0.0434 0.0963,0.0801 0.0963,0.0959 0.0751,0.10443 0.0691,0.12065 0.0642,0.11183 0.0536,0.0967 0.0427,0.0878 0.10371,0.14005 -0.006,-0.13864 0.14111,-0.0152 0.0226,0.14605 0.0801,0.0346 0.0603,0.0995 0.75107,0.002 0.2099,0.44733 0.78669,-0.36654 0.21696,0.46602 0.11536,0.1083 0.0462,0.23883 -0.10512,0.049 0.0346,0.0744 0.10089,-0.0476 0.19932,0.42757 0.11783,0.10759 0.0621,0.27799 -0.10725,0.0497 0.0303,0.0649 -0.13335,0.0621 -0.0303,-0.0642 -0.53657,0.24941 0.14922,0.3175 0.1644,0.21132 0.2607,0.69391 0.0236,0.26776 H 14.7096 l 0.0155,0.49565 h -0.0624 l -0.0317,-0.40111 -0.46779,0.0526 0.0557,0.20778 -0.0765,0.0356 -0.10301,-0.004 c -0.007,0.0917 -0.019,0.17463 -0.037,0.25047 l 0.12664,0.10478 0.0395,0.0822 -0.10548,0.14287 -0.0829,-0.0166 -0.0706,-0.0564 c -0.0578,0.11112 -0.13052,0.19755 -0.21025,0.26705 l 0.0317,0.1016 -0.012,0.0903 -0.16615,0.0628 -0.0762,-0.1076 c -0.0688,0.0339 -0.13794,0.0614 -0.20391,0.0836 l -0.0621,0.0201 0.012,0.0649 -0.0229,0.0889 -0.17216,0.042 -0.0533,-0.0663 -0.24941,0.004 -0.0236,0.13617 -0.17498,0.0296 -0.0483,-0.0691 -0.22295,0.0113 0.002,0.0759 -0.0363,0.0843 -0.17674,0.0138 -0.042,-0.0727 c -0.10513,-0.0296 -0.1905,-0.0152 -0.2466,-0.01 l 0.002,0.0695 -0.0363,0.0836 -0.17674,0.0145 -0.0423,-0.0737 -0.004,-0.0871 -0.31362,0.003 -10e-4,0.127 -0.0395,0.0829 -0.17674,0.008 -0.0399,-0.0748 -10e-4,-0.14075 -0.2607,7e-4 -10e-4,0.1203 -0.0395,0.0832 -0.17709,0.007 -0.0392,-0.0744 -0.002,-0.13476 -0.2607,7.1e-4 -10e-4,0.12982 -0.0392,0.0829 -0.1770903,0.008 -0.0395,-0.0751 -0.002,-0.14429 -0.22119,7e-4 -0.001,0.11607 -0.0395,0.0832 -0.17674,0.007 -0.0399,-0.0744 -0.001,-0.13123 h -0.27693 l -7e-4,0.0998 -0.0392,0.0829 -0.17709,0.008 -0.0395,-0.0751 -10e-4,-0.11465 -0.24553,7e-4 -7.1e-4,0.0945 -0.0399,0.0822 -0.17674,0.008 -0.0395,-0.0744 -10e-4,-0.11042 h -0.31609 l -7.1e-4,0.0984 -0.0399,0.0829 -0.17674,0.008 -0.0395,-0.0751 -10e-4,-0.11818 -0.23777,-0.01 -7e-4,0.0766 -0.0395,0.0829 -0.1771,0.008 -0.0392,-0.0751 -0.001,-0.10442 -0.23389,-0.0131 -0.0395,0.14075 -0.17745,0.008 -0.0392,-0.0741 -0.001,-0.0903 -0.30162,-0.0201 -0.007,0.0691 -0.0466,0.0794 -0.17674,-0.008 -0.0328,-0.0776 0.006,-0.0794 -0.18557,-0.0109 -0.15275,-0.0138 -0.073,0.12629 -0.17357,-0.0353 -0.0201,-0.0815 c -0.11007,-0.0931 -0.22048,-0.14358 -0.3182,-0.21378 l -0.10337,0.0557 -0.13688,-0.11254 0.0208,-0.0822 c -0.0173,-0.10477 -0.0639,-0.18062 -0.10442,-0.26705 L 4.32432,6.3549 4.30072,6.13406 3.26002,6.17006 C 3.20142,6.84034 2.63878,7.36563 1.95333,7.36563 1.32539,7.36563 0.80046,6.92465 0.67169,6.33516 0.63039,6.34536 0.58739,6.35036 0.54293,6.35036 0.24307,6.35036 0,6.1073 0,5.80779 0,5.74289 0.0113,5.68079 0.0321,5.62399 l 0.22366,-1.29928 0.008,-0.74824 0.37782,0.008 0.40923,-0.0593 V 3.3449 L 1.01941,3.19885 1.05081,2.88805 C 0.99361,2.88405 0.9485,2.83615 0.9485,2.77763 c 0,-0.0607 0.0494,-0.10971 0.11007,-0.10971 0.061,0 0.11042,0.049 0.11042,0.10971 0,0.0392 -0.0205,0.0737 -0.0512,0.0931 v 0.32809 h 0.0751 c 0.005,-0.16792 0.0529,-0.29916 0.11184,-0.29916 0.0617,0 0.11218,0.14711 0.11218,0.32879 0,0.0998 -0.0152,0.18909 -0.0392,0.24906 L 2.43957,3.323 V 3.2538 h 0.42122 l 0.9077,-0.12347 1.0438597,-0.19544 0.17392,0.0187 0.32703,-0.0243 0.84208,-0.1069 0.36442,0.0145 0.16898,-0.2921 0.0593,-0.49495 0.30762,-0.14076 0.10971,-0.18979 z M 1.19755,3.34485 h -0.0819 v 0.17004 l 0.12242,-0.0173 c -0.0183,-0.0374 -0.0325,-0.091 -0.0406,-0.15275 m 6.2233497,2.89877 c 0.0265,0.0547 0.06,0.0945 0.0836,0.0727 l 0.0967,-0.0773 z m 5.2369903,-0.13934 -0.0706,0.0917 c -0.0399,0.0512 0.25541,0.18909 0.25965,0.11042 0.001,-0.0296 0.012,-0.1143 0.0247,-0.20779 z m -1.155,0.15592 -0.23989,0.20391 C 11.16452,6.5632 11.61711,6.68847 11.5896,6.56676 11.5621,6.4447 11.5028,6.26019 11.5028,6.26019 m 0.2988,-0.13158 0.14994,0.27728 c 0.0691,0.10583 0.25294,-0.22507 0.19473,-0.28787 l -0.32315,0.008 z m -2.6345403,0.17991 -0.23989,0.20391 c -0.0988,0.0991 0.35419,0.22437 0.32667,0.10266 -0.0279,-0.12206 -0.0868,-0.30657 -0.0868,-0.30657 m 0.60219,0.0505 c 0.037,-0.0656 0.0621,-0.14146 0.049,-0.17886 l -0.13653,0.004 c 0.0145,0.067 0.0529,0.15205 0.0875,0.17533 m -0.29739,-0.16969 0.0363,0.067 -0.0134,-0.0677 z m -0.97825,0.36725 c -0.0367,-0.049 -0.0684,-0.1016 -0.0946,-0.15805 l -0.14993,-0.17674 -0.0794,0.002 0.0751,0.40851 c 0.009,0.0498 0.19614,-0.018 0.24871,-0.0758 M 10.0513,6.47057 c -0.024,0.0402 -0.0508,0.0794 -0.0797,0.11535 0.0148,0.0586 0.2589403,0.16581 0.2624603,0.0946 0.003,-0.067 0.0529,-0.41416 0.067,-0.51294 z M 3.23035,5.76219 c 0.0183,0.0801 0.0289,0.16228 0.0318,0.24659 h 0.58772 z m 4.5617697,1.08056 c -0.0836,-0.0254 -0.16228,-0.0649 -0.23213,-0.11466 l -0.001,0.12559 0.23354,0.008 z m 0.0967,-0.18168 c 0.0522,-0.0744 0.0818,-0.28928 0.1016,-0.43216 l -0.0833,0.002 -0.22895,0.29704 c -0.0289,0.0384 0.127,0.12418 0.21061,0.133 m 0.47766,0.17815 -0.096,0.0282 0.096,-7e-4 z m 0.50376,0.0268 c -0.0917,-0.0494 -0.17568,-0.10407 -0.24976,-0.16969 l 0.009,0.1704 z m 1.6700503,-0.1905 0.0649,0.002 c 0.0963,-0.01 0.23001,-0.0829 0.1912,-0.12206 -0.048,-0.0469 -0.27199,-0.31539 -0.3362,-0.39229 z M 9.8886697,6.86343 c -0.007,-0.0748 -0.0413,-0.0981 -0.0737,-0.12382 -0.0459,0.0353 -0.0949,0.0663 -0.14675,0.0928 z m 1.0368203,-0.004 0.0878,-0.1644 c -0.10372,0.0575 -0.19685,0.12101 -0.29916,0.16581 z m 1.50918,-0.24942 0.0723,-0.18767 c -0.0303,-0.0187 -0.0593,-0.0399 -0.0864,-0.0621 -0.0448,0.0924 -0.10478,0.17603 -0.17604,0.248 l 0.006,0.14499 0.1972,-0.0444 z m 0.49001,-0.0191 c -0.0871,-0.0395 -0.1644,-0.0561 -0.23707,-0.0815 l 0.0155,0.13864 z M 13.4101,6.2145 13.324,6.0875 l -0.20884,0.005 0.0381,0.2092 c 0.01,0.0529 0.21943,-0.0265 0.25682,-0.0871 M 6.2627997,6.77587 c -0.0346,-0.0268 -0.0737,-0.0152 -0.11324,-0.007 z m 0.24801,-0.17604 0.0131,0.19332 0.28152,0.018 0.0981,-0.23143 0.10195,0.004 0.0632,0.0829 -10e-4,0.16158 0.2293,0.013 0.0984,-0.21802 c -0.0572,-0.1016 -0.133,-0.23001 -0.17357,-0.37288 l -0.4124,0.0109 c -0.0942,0.13406 -0.18485,0.25012 -0.29809,0.33902"
     id="G-SdKfz250-8cm" />
</svg>
