<?xml version="1.0" encoding="UTF-8" standalone="no"?>
<!-- Created with Inkscape (http://www.inkscape.org/) -->

<svg
   width="20.091709mm"
   height="7.9423099mm"
   viewBox="0 0 20.091709 7.9423103"
   version="1.1"
   id="svg33402"
   sodipodi:docname="inkporter-svg-e7qp_36f.svg"
   inkscape:version="1.1.1 (3bf5ae0d25, 2021-09-20)"
   xmlns:inkscape="http://www.inkscape.org/namespaces/inkscape"
   xmlns:sodipodi="http://sodipodi.sourceforge.net/DTD/sodipodi-0.dtd"
   xmlns="http://www.w3.org/2000/svg"
   xmlns:svg="http://www.w3.org/2000/svg">
  <sodipodi:namedview
     id="namedview555"
     pagecolor="#ffffff"
     bordercolor="#666666"
     borderopacity="1.0"
     inkscape:pageshadow="2"
     inkscape:pageopacity="0.0"
     inkscape:pagecheckerboard="0"
     inkscape:document-units="mm"
     showgrid="false"
     inkscape:zoom="0.32"
     inkscape:cx="889.0625"
     inkscape:cy="4120.3125"
     inkscape:window-width="1920"
     inkscape:window-height="1017"
     inkscape:window-x="-8"
     inkscape:window-y="-8"
     inkscape:window-maximized="1"
     inkscape:current-layer="svg33402" />
  <defs
     id="defs13927" />
  <path
     d="m 14.07438,6.65399 c -0.004,-0.013 -0.004,-0.0265 -0.004,-0.0413 v -0.0452 h -0.13546 c -0.004,0.0289 -0.005,0.0575 -0.01,0.0864 z m 0.20002,-0.0864 v 0.0452 c 0,0.0148 -0.004,0.0282 -0.005,0.0413 h 0.78035 c -0.0215,-0.0229 -0.0356,-0.0533 -0.0377,-0.0864 z M 9.2187397,6.0222 V 5.83593 h -0.26388 c 0.0265,0.0607 0.049,0.12277 0.0677,0.18627 z m 0.58879,-0.18627 V 6.0222 h 0.10513 V 6.0349 H 10.3053 c 0.0265,0 0.0511,0.007 0.0723,0.0201 V 6.0098 h 0.43356 v 0.0804 h 0.17216 c 0.0212,-0.0878 0.0497,-0.17286 0.0861,-0.25435 z M 15.06109,5.95446 v 0.15487 h -0.0991 v 0.0512 c 0,0.078 -0.0628,0.14041 -0.1404,0.14041 h -0.15275 c -0.0773,0 -0.14041,-0.0624 -0.14041,-0.14041 V 6.10933 H 14.40425 V 5.95446 H 13.8578 c 0.0501,0.14394 0.0783,0.2981 0.0818,0.45791 h 0.13053 v -0.008 c 0,-0.078 0.0459,-0.1404 0.10195,-0.1404 0.0564,0 0.10231,0.0624 0.10231,0.1404 v 0.008 h 0.79481 c 0.0222,0 0.043,0.003 0.0617,0.008 0.007,-7.1e-4 0.0141,-0.001 0.0212,-0.001 h 0.42333 c 0.004,-0.16298 0.031,-0.31891 0.0819,-0.46461 z m -8.8956403,0.9772 c -0.006,0.001 -0.0116,0.001 -0.0176,0.001 H 4.34798 C 4.14548,7.52003 3.58704,7.94231 2.93087,7.94231 2.16993,7.94231 1.54128,7.37575 1.44427,6.64197 L 0.99165,6.33152 0.55809,5.35292 0.43991,5.30282 0.49001,5.20402 0.37183,4.93767 C 0.37183,4.93767 0,4.89427 0,4.7641 0,4.63393 0.22931,4.61523 0.22931,4.61523 L 0.13651,4.37393 1.30138,3.19071 1.67286,3.06054 V 2.98574 L 2.4786,2.7261 2.4846,2.8065 2.74459,2.7261 V 2.6513 l 0.27905,-0.10478 0.0247,0.0737 0.58913,-0.2226 0.14852,-0.5207 0.18557,-0.0924 0.0557,-0.10583 h 0.23531 l 0.0991,-0.12418 h 0.39652 l -0.0247,0.14288 h 0.2906797 l 0.0497,-0.21661 -0.0497,-0.031 0.0688,-0.23566 -2.8250497,-0.10513 -0.0871,0.037 -0.0621,-0.037 -0.24166,0.0247 V 0.92308 c 0,0 0.2667,0.0374 0.29775,-0.006 l 0.10513,0.0434 H 3.93446 V 0.82396 h 1.3257397 l 0.031,-0.0497 -0.0437,-0.031 0.0931,-0.34043 0.39617,-0.031 0.58913,-0.13018 c 0,0 0.031,-0.0991 0.11748,-0.11747 0.0868,-0.0183 0.12982,0.0804 0.12982,0.0804 L 7.1245897,0.0804 V 0 h 0.28505 v 0.0621 h 1.48696 l 0.14852,-0.0561 0.31044,0.0804 0.12347,0.26705 0.0434,-0.0187 0.18592,0.29704 -0.0808,0.0374 0.28505,0.45861 0.0494,-0.007 0.1368803,0.27904 -0.0377,0.043 0.16121,0.2794 h 0.11748 V 1.61641 h 0.95497 l 0.049,0.10583 h 0.14851 l 0.16122,0.24765 0.15452,-0.0991 0.0505,0.031 -0.14288,0.12982 0.17992,0.2727 1.75331,0.2233 0.012,-0.0561 1.518,0.21661 -0.0187,0.0748 1.18956,0.14852 0.0681,-0.0434 0.31644,0.0247 0.0554,0.0804 1.14617,0.13018 0.006,-0.0621 1.264,0.25435 v 0.10548 h 0.0864 l 0.60749,1.38113 -0.0254,0.20461 h 0.21731 v 0.15522 h -0.24165 l -0.86149,1.39982 0.0251,0.37183 -0.0681,0.0123 -0.0191,-0.29104 -0.39652,0.16933 c -0.16192,0.65334 -0.75177,1.13771 -1.45521,1.13771 -0.65828,0 -1.21708,-0.42334 -1.41922,-1.01283 -0.009,0.002 -0.0187,0.003 -0.0289,0.003 h -1.76918 c -0.20214,0.58737 -0.76059,1.00965 -1.41711,1.00965 -0.82832,0 -1.4993,-0.67099 -1.4993,-1.49931 0,-0.0459 0.004,-0.0914 0.006,-0.13617 h -0.57185 c -0.0208,0.0116 -0.0448,0.0187 -0.0702,0.0187 h -0.0829 V 6.49186 H 9.6957397 V 6.34934 h -0.47731 V 6.20717 h -0.15451 c 0.012,0.0769 0.0183,0.15522 0.0183,0.2353 0,0.82832 -0.67134,1.49931 -1.49931,1.49931 -0.65652,0 -1.21496,-0.42263 -1.41781,-1.01106 M 4.59524,6.65308 c -0.004,-0.013 -0.005,-0.0265 -0.005,-0.0413 V 6.56658 H 4.42408 c -0.004,0.0289 -0.005,0.0575 -0.009,0.0864 z m 0.1996697,-0.0864 v 0.0452 c 0,0.0148 0,0.0282 -0.004,0.0413 h 0.78034 c -0.0222,-0.0229 -0.0367,-0.0533 -0.0384,-0.0864 z m 0.78705,-0.68121 v 0.22295 h -0.0988 v 0.0512 c 0,0.078 -0.0635,0.14041 -0.14076,0.14041 h -0.15275 c -0.078,0 -0.14041,-0.0624 -0.14041,-0.14041 v -0.0512 h -0.12417 V 5.94897 L 4.8199397,5.88547 4.59698,6.03399 H 4.37297 c 0.0346,0.11994 0.0533,0.24694 0.0561,0.37747 h 0.16122 v -0.008 c 0,-0.078 0.0462,-0.1404 0.10231,-0.1404 0.0568,0 0.1022997,0.0624 0.1022997,0.1404 v 0.008 h 0.79516 c 0.0219,0 0.043,0.003 0.0617,0.008 0.007,-7.1e-4 0.0141,-0.001 0.0208,-0.001 h 0.2032 L 5.9971197,6.31263 5.8662397,6.1888 V 5.99054 l 0.11853,-0.10477 z"
     id="G-SdKfz231" />
</svg>
