<?xml version="1.0" encoding="UTF-8" standalone="no"?>
<!-- Created with Inkscape (http://www.inkscape.org/) -->

<svg
   width="13.792356mm"
   height="6.1274347mm"
   viewBox="0 0 13.792356 6.1274347"
   version="1.1"
   id="svg11631"
   sodipodi:docname="inkporter-svg-d6aug6uc.svg"
   xmlns:inkscape="http://www.inkscape.org/namespaces/inkscape"
   xmlns:sodipodi="http://sodipodi.sourceforge.net/DTD/sodipodi-0.dtd"
   xmlns="http://www.w3.org/2000/svg"
   xmlns:svg="http://www.w3.org/2000/svg">
  <sodipodi:namedview
     id="namedview11633"
     pagecolor="#ffffff"
     bordercolor="#666666"
     borderopacity="1.0"
     inkscape:pageshadow="2"
     inkscape:pageopacity="0.0"
     inkscape:pagecheckerboard="0"
     inkscape:document-units="mm"
     showgrid="false"
     inkscape:zoom="1.8116734"
     inkscape:cx="248.66512"
     inkscape:cy="430.26518"
     inkscape:window-width="1920"
     inkscape:window-height="1017"
     inkscape:window-x="-8"
     inkscape:window-y="-8"
     inkscape:window-maximized="1"
     inkscape:current-layer="layer1" />
  <defs
     id="defs11628" />
  <g
     inkscape:label="Layer 1"
     inkscape:groupmode="layer"
     id="layer1"
     transform="translate(-37.303216,-87.972811)">
    <path
       d="m 39.350527,94.083417 c -0.121176,-0.02554 -0.253266,-0.07135 -0.36823,-0.127667 -0.05674,-0.0278 -0.107883,-0.04718 -0.113665,-0.04305 -0.0057,0.0039 -0.0068,0.0025 -0.0021,-0.0039 0.0045,-0.0062 -0.03849,-0.04559 -0.09553,-0.08759 -0.106119,-0.07812 -0.209776,-0.192374 -0.306349,-0.337651 -0.0585,-0.08802 -0.133709,-0.241938 -0.133709,-0.273667 0,-0.01069 -0.0074,-0.01485 -0.01651,-0.0092 -0.0091,0.0056 -0.01231,-0.0058 -0.0072,-0.02533 0.0077,-0.02953 7.05e-4,-0.03493 -0.04109,-0.03182 -0.0496,0.0035 -0.05249,-0.0021 -0.181889,-0.360038 l -0.131491,-0.363717 -0.07875,-0.0011 c -0.05333,-7.05e-4 -0.110303,0.01517 -0.176484,0.05001 -0.12912,0.06793 -0.225076,0.06887 -0.286294,0.0025 -0.02477,-0.02671 -0.05004,-0.06851 -0.05614,-0.09285 -0.01288,-0.05117 0.03621,-0.167583 0.0708,-0.167992 0.01266,-1.24e-4 -0.0092,-0.02752 -0.04859,-0.06086 -0.0648,-0.05481 -0.07182,-0.06922 -0.07367,-0.151095 -0.0018,-0.08371 7.06e-4,-0.08994 0.03766,-0.08292 0.02184,0.0043 0.04525,-0.0011 0.05201,-0.01231 0.0071,-0.0115 0.06858,-0.0199 0.145171,-0.0199 0.102447,0 0.142805,0.0078 0.17628,0.03415 0.0367,0.02889 0.04703,0.03027 0.06682,0.0091 0.01288,-0.01376 0.01937,-0.02505 0.01443,-0.02505 -0.0049,0 0.01157,-0.0205 0.03662,-0.04562 0.02646,-0.02646 0.04014,-0.0551 0.03263,-0.0682 -0.0071,-0.01242 -0.0064,-0.01662 0.0018,-0.0092 0.0081,0.0073 0.05095,-0.03767 0.09522,-0.100023 0.07829,-0.110257 0.0803,-0.116558 0.07349,-0.230406 -0.0045,-0.07544 -0.01552,-0.119888 -0.03094,-0.125032 -0.01316,-0.0044 -0.03927,-0.02335 -0.05803,-0.04205 -0.03094,-0.03094 -0.03411,-0.06601 -0.03411,-0.379215 0,-0.337841 7.05e-4,-0.345676 0.04092,-0.371894 0.06851,-0.04484 0.182449,-0.05448 0.247311,-0.02096 0.04855,0.02508 0.0573,0.02558 0.0573,0.0035 0,-0.0145 0.02314,-0.04539 0.05146,-0.06866 l 0.05146,-0.04232 -0.05246,-0.144219 c -0.02886,-0.07932 -0.06531,-0.153614 -0.08102,-0.1651 -0.01566,-0.0115 -0.03069,-0.05297 -0.03334,-0.0922 -0.0025,-0.03923 -0.0011,-0.06228 0.0028,-0.05123 0.0043,0.01104 0.0279,0.01623 0.05262,0.01147 0.06162,-0.01178 0.104637,0.02766 0.0934,0.0856 -0.0054,0.02748 0.01464,0.109601 0.04892,0.201065 l 0.05794,0.15458 0.232173,0.0051 c 0.183685,0.0039 0.234308,0.01062 0.242387,0.03171 0.0056,0.01464 0.01746,0.02215 0.02628,0.01669 0.0088,-0.0055 0.01185,7.06e-4 0.0067,0.0145 -0.0052,0.01344 -0.0028,0.05401 0.0048,0.09013 l 0.01418,0.06567 0.627415,-0.25219 c 0.345084,-0.138705 0.651969,-0.264488 0.681976,-0.27951 0.03002,-0.01503 0.07509,-0.0321 0.100192,-0.03792 0.06931,-0.01612 0.113926,-0.108081 0.120608,-0.248687 0.0069,-0.145602 0.08485,-0.359957 0.131212,-0.36092 0.05075,-7.06e-4 0.160867,-0.06182 0.15318,-0.08453 -0.01302,-0.0384 0.0484,-0.133078 0.08632,-0.133078 0.01976,0 0.03587,-0.0062 0.03587,-0.01365 -1.1e-5,-0.0075 0.255732,-0.01147 0.568304,-0.0088 l 0.568328,0.0049 0.03636,-0.05582 c 0.01997,-0.03073 0.0344,-0.06328 0.03207,-0.0724 -0.0021,-0.0091 0.0092,-0.01136 0.02568,-0.0051 0.02177,0.0083 0.02593,0.0049 0.01513,-0.01256 -0.0099,-0.01598 -0.0079,-0.01976 0.006,-0.01122 0.0115,0.0071 0.03524,0.0045 0.05282,-0.0057 0.0235,-0.01369 -0.01376,-0.01901 -0.140793,-0.01993 -0.09502,-7.06e-4 -0.250515,-0.0035 -0.345532,-0.0062 l -0.172769,-0.0049 0.0018,-0.07651 0.0018,-0.0765 -0.819965,7.06e-4 c -0.590662,3.53e-4 -0.886071,0.0084 -1.056375,0.02738 -0.130034,0.01453 -0.242556,0.02649 -0.250059,0.0266 -0.0075,7e-5 -0.01365,-0.06529 -0.01365,-0.145309 0,-0.08002 0.0062,-0.145324 0.01365,-0.145126 0.0075,1.8e-4 0.124124,0.01217 0.259154,0.02663 0.361159,0.03861 2.084983,0.03853 2.13578,-1.24e-4 0.02745,-0.02092 0.09502,-0.02685 0.30354,-0.02685 0.159212,0 0.272814,-0.0074 0.279481,-0.0182 0.0062,-0.01 0.07009,-0.01916 0.142018,-0.02029 0.07193,-7.06e-4 0.116452,-0.0059 0.09895,-0.01044 -0.04499,-0.01178 -0.04044,-0.02995 0.03316,-0.132437 0.03696,-0.05148 0.05929,-0.09975 0.05175,-0.111968 -0.0078,-0.01256 -0.0055,-0.01665 0.0055,-0.0099 0.01983,0.01228 0.120205,-0.125331 0.120205,-0.164761 0,-0.01266 0.0039,-0.01905 0.009,-0.01411 0.01411,0.01411 0.06101,-0.06167 0.04958,-0.08015 -0.0056,-0.0091 0.0039,-0.01379 0.0217,-0.01048 0.01753,0.0035 0.545444,0.0067 1.173089,0.0075 l 1.141169,0.0011 v 0.254596 0.25461 h 0.30916 c 0.257341,0 0.309167,-0.0044 0.309167,-0.02621 0,-0.02007 0.02325,-0.02547 0.0987,-0.02293 0.05429,0.0018 0.104433,-0.0025 0.111421,-0.0094 0.02491,-0.02487 0.04288,-0.171419 0.04368,-0.355152 L 46.133,87.972811 h 0.05456 0.05455 l 0.0011,0.195499 c 0.0018,0.208428 0.03069,0.362127 0.0673,0.35463 0.01259,-0.0025 0.02215,0.01453 0.02215,0.03988 0,0.03875 -0.0092,0.04513 -0.07256,0.05001 l -0.07255,0.0056 0.08321,0.104683 c 0.046,0.05787 0.0919,0.09931 0.102637,0.09267 0.01069,-0.0066 0.01464,-0.0043 0.0087,0.0053 -0.0139,0.02251 0.01566,0.07014 0.04361,0.07014 0.01189,0 0.02388,0.01535 0.02667,0.03408 0.0039,0.02748 0.06101,0.103406 0.117552,0.156626 0.0055,0.0052 0.02861,0.03606 0.0514,0.0687 0.02282,0.03263 0.05026,0.05387 0.06104,0.0472 0.01087,-0.0067 0.01443,-0.0035 0.0079,0.0068 -0.0064,0.01044 7.06e-4,0.02935 0.01619,0.0421 0.01535,0.0127 0.02374,0.03397 0.01866,0.04723 -0.0075,0.01965 0.08172,0.02371 0.483976,0.02212 l 0.493208,-0.0018 0.06236,0.07507 c 0.03433,0.04131 0.07004,0.07033 0.07942,0.06454 0.0094,-0.0057 0.01482,-0.0035 0.0121,0.0056 -0.0025,0.0089 0.03182,0.0619 0.07683,0.117768 l 0.08184,0.101579 0.409603,0.148286 c 0.225284,0.08156 0.421686,0.150114 0.436461,0.15234 0.01478,0.0021 0.03643,0.01002 0.04816,0.01739 0.03023,0.01887 0.916817,0.335517 0.960745,0.343105 0.01997,0.0035 0.04045,0.01115 0.04546,0.01711 0.01863,0.02219 0.351201,0.124217 0.369013,0.113217 0.01097,-0.0068 0.01291,-0.0021 0.0048,0.01076 -0.01429,0.02307 0.34539,0.58354 0.374466,0.58354 0.0086,0 0.01351,0.0062 0.01101,0.01365 -0.0075,0.02247 0.101921,0.18457 0.11793,0.174667 0.0081,-0.005 0.01316,-0.0025 0.01122,0.0059 -0.0088,0.03636 0.0449,0.111729 0.07319,0.102765 0.0236,-0.0075 0.02448,-0.0057 0.0044,0.0085 -0.02014,0.01432 -0.0011,0.05287 0.09456,0.193216 l 0.119701,0.175303 -0.07518,0.05446 c -0.04136,0.02995 -0.11049,0.07676 -0.153641,0.104023 -0.04314,0.02727 -0.07848,0.05619 -0.07849,0.06428 -1.7e-5,0.0081 0.0068,0.01048 0.01517,0.0054 0.0083,-0.0052 0.0092,0.02914 0.0021,0.07621 -0.0073,0.04708 -0.0087,0.09301 -0.0035,0.102051 0.0054,0.0091 0.0018,0.01129 -0.0086,0.005 -0.01023,-0.0063 -0.03281,0.0043 -0.05016,0.02346 -0.04846,0.05355 -0.124227,0.06228 -0.213335,0.02459 -0.04301,-0.0182 -0.104786,-0.03048 -0.137287,-0.02737 -0.05197,0.005 -0.05911,0.0121 -0.05911,0.0591 0,0.04607 -0.0069,0.05344 -0.05001,0.05369 -0.02748,1.2e-4 -0.05908,0.0063 -0.07016,0.01365 -0.01647,0.01094 -0.07215,0.219901 -0.08837,0.331615 -0.0028,0.02187 -0.04665,0.02907 -0.220518,0.03636 -0.192627,0.0081 -0.222998,0.01393 -0.274945,0.0529 -0.0321,0.02409 -0.0547,0.04977 -0.05021,0.05705 0.0045,0.0073 -0.006,0.01214 -0.02346,0.01076 -0.0175,-0.0011 -0.02939,0.0083 -0.02663,0.02159 0.0025,0.01323 -0.0025,0.01933 -0.01214,0.01351 -0.0094,-0.0058 -0.04105,0.0096 -0.0703,0.03418 -0.04494,0.03779 -0.07538,0.0456 -0.195946,0.05013 l -0.142741,0.0054 -0.03971,0.154583 c -0.02184,0.08502 -0.049,0.177772 -0.06033,0.206118 -0.01132,0.02833 -0.0151,0.06108 -0.0085,0.07274 0.0067,0.01168 0.0057,0.01538 -0.0021,0.0082 -0.0079,-0.0071 -0.04401,0.03565 -0.08021,0.09512 -0.03617,0.05946 -0.09855,0.14708 -0.138561,0.194702 -0.04001,0.04762 -0.07049,0.0934 -0.06775,0.101734 0.0025,0.0083 -0.0021,0.01065 -0.01122,0.0051 -0.0089,-0.0055 -0.03126,0.0067 -0.0497,0.02699 -0.05105,0.0564 -0.277089,0.191442 -0.392031,0.234195 -0.246048,0.09152 -0.510004,0.114162 -0.748548,0.0642 -0.226516,-0.04744 -0.372146,-0.11509 -0.563524,-0.261772 -0.06503,-0.04984 -0.124538,-0.08495 -0.132242,-0.07801 -0.0077,0.0069 -0.0084,0.0028 -0.0018,-0.0091 0.0071,-0.01235 -0.02117,-0.05948 -0.0657,-0.109619 -0.11296,-0.127187 -0.225753,-0.355977 -0.270873,-0.549448 l -0.03845,-0.16492 H 43.678148 40.91944 l -0.02879,0.131848 c -0.06138,0.280888 -0.166586,0.476253 -0.362765,0.67366 -0.0617,0.06209 -0.11055,0.119631 -0.108557,0.127879 0.0021,0.0083 -0.0039,0.01037 -0.01288,0.0048 -0.0091,-0.0056 -0.03598,0.0051 -0.05982,0.02392 -0.02378,0.0187 -0.0903,0.05813 -0.147736,0.08754 -0.05743,0.02939 -0.100958,0.05693 -0.09673,0.06116 0.0043,0.0043 -0.01002,0.0088 -0.03171,0.01013 -0.0217,0.0011 -0.08441,0.01616 -0.139421,0.03295 -0.117662,0.03591 -0.463652,0.05254 -0.580588,0.02791 z m -1.072268,-1.598429 c 0.005,-0.01852 -0.02367,-0.03214 -0.102101,-0.04843 -0.06001,-0.01245 -0.110825,-0.02102 -0.112907,-0.01894 -0.0021,0.0021 0.03883,0.121384 0.09092,0.265187 l 0.09473,0.26145 0.01115,-0.216754 c 0.0061,-0.119214 0.01432,-0.228342 0.0182,-0.242506 z m -0.69058,-0.09246 c 0.0098,0 0.01326,-0.0073 0.0078,-0.01612 -0.0055,-0.0089 0.0035,-0.01499 0.01969,-0.01365 0.05751,0.0048 0.04253,-0.03636 -0.02752,-0.07574 l -0.0709,-0.03984 -0.02258,0.05451 c -0.0181,0.04377 -0.01799,0.06005 7.06e-4,0.08261 0.01284,0.01545 0.03493,0.02364 0.04916,0.01817 0.01422,-0.0054 0.03387,-0.0099 0.04362,-0.0099 z M 50.65026,92.090512 c 0.02854,-0.01097 0.04127,-0.06224 0.0151,-0.06113 -0.01909,7.06e-4 -0.07729,0.04643 -0.07729,0.06053 0,0.01464 0.02494,0.01489 0.06216,3.52e-4 z M 38.484655,90.786613 c -0.04049,-0.111491 -0.0448,-0.126389 -0.0448,-0.154259 0,-0.0079 -0.01637,-0.01556 -0.03636,-0.017 -0.04519,-0.0035 -0.04577,-0.0082 0.01129,0.09393 0.0332,0.0594 0.04839,0.11472 0.05002,0.182108 0.0021,0.09545 0.0025,0.09618 0.03154,0.05237 0.02723,-0.04144 0.02646,-0.05201 -0.01168,-0.157088 z m 0.143065,-0.05959 c -0.0048,-0.01263 -0.01986,-0.0272 -0.03337,-0.03239 -0.01979,-0.0075 -0.02078,0.0011 -0.0053,0.04581 0.01305,0.03753 0.02374,0.04792 0.03337,0.03239 0.0078,-0.01256 0.01016,-0.03316 0.0053,-0.04581 z m 3.193218,-1.856045 c 0.0043,-0.0035 -0.04903,-0.006 -0.118212,-0.0052 -0.08484,7.05e-4 -0.113941,0.0062 -0.08941,0.01637 0.03263,0.01355 0.188687,0.0052 0.207624,-0.01111 z m 2.111086,-0.388433 c 0,-0.01 -0.0082,-0.0182 -0.0182,-0.0182 -0.01,0 -0.0182,0.0082 -0.0182,0.0182 0,0.01 0.0081,0.0182 0.0182,0.0182 0.01,0 0.0182,-0.0081 0.0182,-0.0182 z m 0.07275,0.01016 c 0,-0.0044 -0.0081,-0.01309 -0.0182,-0.01926 -0.01,-0.0062 -0.0182,-0.0025 -0.0182,0.008 0,0.01058 0.0081,0.01923 0.0182,0.01923 0.01,0 0.0182,-0.0035 0.0182,-0.008 z m 0.06365,-0.01016 c 0.0062,-0.01 0.0025,-0.0182 -0.008,-0.0182 -0.01058,0 -0.01926,0.0082 -0.01926,0.0182 0,0.01 0.0035,0.0182 0.008,0.0182 0.0044,0 0.01305,-0.0081 0.01923,-0.0182 z m 0.08184,0 c 0,-0.01 -0.0081,-0.0182 -0.0182,-0.0182 -0.01,0 -0.0182,0.0082 -0.0182,0.0182 0,0.01 0.0081,0.0182 0.0182,0.0182 0.01,0 0.0182,-0.0081 0.0182,-0.0182 z m 0.07275,0 c 0,-0.01 -0.0081,-0.0182 -0.0182,-0.0182 -0.01,0 -0.0182,0.0082 -0.0182,0.0182 0,0.01 0.0081,0.0182 0.0182,0.0182 0.01,0 0.0182,-0.0081 0.0182,-0.0182 z m 0.07274,0 c 0,-0.01 -0.0081,-0.0182 -0.0182,-0.0182 -0.01,0 -0.0182,0.0082 -0.0182,0.0182 0,0.01 0.0082,0.0182 0.0182,0.0182 0.01,0 0.0182,-0.0081 0.0182,-0.0182 z m 0.07274,0 c 0,-0.01 -0.0081,-0.0182 -0.0182,-0.0182 -0.01,0 -0.0182,0.0082 -0.0182,0.0182 0,0.01 0.0081,0.0182 0.0182,0.0182 0.01,0 0.0182,-0.0081 0.0182,-0.0182 z m 0.07275,0 c 0,-0.01 -0.0081,-0.0182 -0.0182,-0.0182 -0.01,0 -0.0182,0.0082 -0.0182,0.0182 0,0.01 0.0082,0.0182 0.0182,0.0182 0.01,0 0.0182,-0.0081 0.0182,-0.0182 z m 0.07274,0 c 0,-0.01 -0.0081,-0.0182 -0.0182,-0.0182 -0.01,0 -0.0182,0.0082 -0.0182,0.0182 0,0.01 0.0081,0.0182 0.0182,0.0182 0.01,0 0.0182,-0.0081 0.0182,-0.0182 z m 0.07274,0 c 0,-0.01 -0.0082,-0.0182 -0.0182,-0.0182 -0.01,0 -0.0182,0.0082 -0.0182,0.0182 0,0.01 0.0081,0.0182 0.0182,0.0182 0.01,0 0.0182,-0.0081 0.0182,-0.0182 z m 0.07275,0 c 0,-0.01 -0.0081,-0.0182 -0.0182,-0.0182 -0.01,0 -0.0182,0.0082 -0.0182,0.0182 0,0.01 0.0081,0.0182 0.0182,0.0182 0.01,0 0.0182,-0.0081 0.0182,-0.0182 z m 0.07275,0 c 0,-0.01 -0.0081,-0.0182 -0.0182,-0.0182 -0.01,0 -0.0182,0.0082 -0.0182,0.0182 0,0.01 0.0081,0.0182 0.0182,0.0182 0.01,0 0.0182,-0.0081 0.0182,-0.0182 z m 0.07274,0 c 0,-0.01 -0.0081,-0.0182 -0.0182,-0.0182 -0.01,0 -0.0182,0.0082 -0.0182,0.0182 0,0.01 0.0081,0.0182 0.0182,0.0182 0.01,0 0.0182,-0.0081 0.0182,-0.0182 z m 0.07275,0 c 0,-0.01 -0.0081,-0.0182 -0.0182,-0.0182 -0.01,0 -0.0182,0.0082 -0.0182,0.0182 0,0.01 0.0081,0.0182 0.0182,0.0182 0.01,0 0.0182,-0.0081 0.0182,-0.0182 z m 0.07275,0 c 0,-0.01 -0.0082,-0.0182 -0.0182,-0.0182 -0.01,0 -0.0182,0.0082 -0.0182,0.0182 0,0.01 0.0081,0.0182 0.0182,0.0182 0.01,0 0.0182,-0.0081 0.0182,-0.0182 z m 0.07274,0 c 0,-0.01 -0.0081,-0.0182 -0.0182,-0.0182 -0.01,0 -0.0182,0.0082 -0.0182,0.0182 0,0.01 0.0081,0.0182 0.0182,0.0182 0.01,0 0.0182,-0.0081 0.0182,-0.0182 z m 0.07275,0 c 0,-0.01 -0.0082,-0.0182 -0.0182,-0.0182 -0.01,0 -0.0182,0.0082 -0.0182,0.0182 0,0.01 0.0081,0.0182 0.0182,0.0182 0.01,0 0.0182,-0.0081 0.0182,-0.0182 z m -0.591048,-0.05456 c 0.0062,-0.01 0.0025,-0.0182 -0.008,-0.0182 -0.01058,0 -0.01923,0.0081 -0.01923,0.0182 0,0.01 0.0035,0.0182 0.008,0.0182 0.0044,0 0.01309,-0.0081 0.01926,-0.0182 z m -0.796015,-0.06554 c -0.0061,-0.0061 -0.02173,-0.0067 -0.03482,-0.0011 -0.0145,0.0058 -0.01019,0.01012 0.01101,0.01101 0.01916,7.06e-4 0.02992,-0.0035 0.02385,-0.0096 z m 0.07275,0 c -0.0061,-0.0061 -0.02173,-0.0067 -0.03482,-0.0011 -0.01453,0.0058 -0.01023,0.01012 0.01101,0.01101 0.01916,7.06e-4 0.02992,-0.0035 0.02392,-0.0096 z m -0.07275,-0.05456 c -0.0061,-0.006 -0.02173,-0.0067 -0.03482,-0.0011 -0.0145,0.0058 -0.01019,0.01013 0.01101,0.01101 0.01916,7.05e-4 0.02992,-0.0035 0.02385,-0.0096 z m 0.07275,0 c -0.0061,-0.006 -0.02173,-0.0067 -0.03482,-0.0011 -0.01453,0.0058 -0.01023,0.01013 0.01101,0.01101 0.01916,7.05e-4 0.02992,-0.0035 0.02392,-0.0096 z m -0.140565,-0.05159 c 0,-0.0044 -0.0081,-0.01309 -0.0182,-0.01923 -0.01,-0.0062 -0.0182,-0.0025 -0.0182,0.008 0,0.01058 0.0081,0.01926 0.0182,0.01926 0.01,0 0.0182,-0.0035 0.0182,-0.008 z m 0.07274,0 c 0,-0.0044 -0.0081,-0.01309 -0.0182,-0.01923 -0.01,-0.0062 -0.0182,-0.0025 -0.0182,0.008 0,0.01058 0.0081,0.01926 0.0182,0.01926 0.01,0 0.0182,-0.0035 0.0182,-0.008 z m 0.07275,0 c 0,-0.0044 -0.0082,-0.01309 -0.0182,-0.01923 -0.01,-0.0062 -0.0182,-0.0025 -0.0182,0.008 0,0.01058 0.0081,0.01926 0.0182,0.01926 0.01,0 0.0182,-0.0035 0.0182,-0.008 z m 0.145482,0 c 0,-0.0044 -0.0082,-0.01309 -0.0182,-0.01923 -0.01,-0.0062 -0.0182,-0.0025 -0.0182,0.008 0,0.01058 0.0081,0.01926 0.0182,0.01926 0.01,0 0.0182,-0.0035 0.0182,-0.008 z m 0.07275,0 c 0,-0.0044 -0.0081,-0.01309 -0.0182,-0.01923 -0.01,-0.0062 -0.0182,-0.0025 -0.0182,0.008 0,0.01058 0.0081,0.01926 0.0182,0.01926 0.01,0 0.0182,-0.0035 0.0182,-0.008 z m 0.07274,0 c 0,-0.0044 -0.0082,-0.01309 -0.0182,-0.01923 -0.01,-0.0062 -0.0182,-0.0025 -0.0182,0.008 0,0.01058 0.0081,0.01926 0.0182,0.01926 0.01,0 0.0182,-0.0035 0.0182,-0.008 z m 0.07275,0 c 0,-0.0044 -0.0081,-0.01309 -0.0182,-0.01923 -0.01,-0.0062 -0.0182,-0.0025 -0.0182,0.008 0,0.01058 0.0081,0.01926 0.0182,0.01926 0.01,0 0.0182,-0.0035 0.0182,-0.008 z m 0.07275,0 c 0,-0.0044 -0.0081,-0.01309 -0.0182,-0.01923 -0.01,-0.0062 -0.0182,-0.0025 -0.0182,0.008 0,0.01058 0.0081,0.01926 0.0182,0.01926 0.01,0 0.0182,-0.0035 0.0182,-0.008 z m 0.07274,-0.01016 c 0,-0.01 -0.0081,-0.0182 -0.0182,-0.0182 -0.01,0 -0.0182,0.0081 -0.0182,0.0182 0,0.01 0.0082,0.0182 0.0182,0.0182 0.01,0 0.0182,-0.0081 0.0182,-0.0182 z m 0.07274,0 c 0,-0.01 -0.0081,-0.0182 -0.0182,-0.0182 -0.01,0 -0.0182,0.0081 -0.0182,0.0182 0,0.01 0.0081,0.0182 0.0182,0.0182 0.01,0 0.0182,-0.0081 0.0182,-0.0182 z m 0.07275,0 c 0,-0.01 -0.0081,-0.0182 -0.0182,-0.0182 -0.01,0 -0.0182,0.0081 -0.0182,0.0182 0,0.01 0.0082,0.0182 0.0182,0.0182 0.01,0 0.0182,-0.0081 0.0182,-0.0182 z m 0.07274,0.01016 c 0,-0.0044 -0.0081,-0.01309 -0.0182,-0.01923 -0.01,-0.0062 -0.0182,-0.0025 -0.0182,0.008 0,0.01058 0.0081,0.01926 0.0182,0.01926 0.01,0 0.0182,-0.0035 0.0182,-0.008 z m 0.07274,-0.01016 c 0,-0.01 -0.0082,-0.0182 -0.0182,-0.0182 -0.01,0 -0.0182,0.0081 -0.0182,0.0182 0,0.01 0.0081,0.0182 0.0182,0.0182 0.01,0 0.0182,-0.0081 0.0182,-0.0182 z m 0.07275,0.01016 c 0,-0.0044 -0.0081,-0.01309 -0.0182,-0.01923 -0.01,-0.0062 -0.0182,-0.0025 -0.0182,0.008 0,0.01058 0.0081,0.01926 0.0182,0.01926 0.01,0 0.0182,-0.0035 0.0182,-0.008 z m 0.07275,-0.01016 c 0,-0.01 -0.0081,-0.0182 -0.0182,-0.0182 -0.01,0 -0.0182,0.0081 -0.0182,0.0182 0,0.01 0.0081,0.0182 0.0182,0.0182 0.01,0 0.0182,-0.0081 0.0182,-0.0182 z m 0.07274,0 c 0,-0.01 -0.0081,-0.0182 -0.0182,-0.0182 -0.01,0 -0.0182,0.0081 -0.0182,0.0182 0,0.01 0.0081,0.0182 0.0182,0.0182 0.01,0 0.0182,-0.0081 0.0182,-0.0182 z m 0.07275,0 c 0,-0.01 -0.0035,-0.0182 -0.008,-0.0182 -0.0044,0 -0.01305,0.0081 -0.01923,0.0182 -0.0062,0.01 -0.0025,0.0182 0.008,0.0182 0.01058,0 0.01926,-0.0081 0.01926,-0.0182 z m 0.07275,0.01016 c 0,-0.0044 -0.0082,-0.01309 -0.0182,-0.01923 -0.01,-0.0062 -0.0182,-0.0025 -0.0182,0.008 0,0.01058 0.0081,0.01926 0.0182,0.01926 0.01,0 0.0182,-0.0035 0.0182,-0.008 z m 0.07274,0 c 0,-0.0044 -0.0081,-0.01309 -0.0182,-0.01923 -0.01,-0.0062 -0.0182,-0.0025 -0.0182,0.008 0,0.01058 0.0081,0.01926 0.0182,0.01926 0.01,0 0.0182,-0.0035 0.0182,-0.008 z m 0.07275,-0.01016 c 0,-0.01 -0.0082,-0.0182 -0.0182,-0.0182 -0.01,0 -0.0182,0.0081 -0.0182,0.0182 0,0.01 0.0081,0.0182 0.0182,0.0182 0.01,0 0.0182,-0.0081 0.0182,-0.0182 z m 0.07274,0 c 0,-0.01 -0.0081,-0.0182 -0.0182,-0.0182 -0.01,0 -0.0182,0.0081 -0.0182,0.0182 0,0.01 0.0081,0.0182 0.0182,0.0182 0.01,0 0.0182,-0.0081 0.0182,-0.0182 z m -0.736533,-0.05456 c 0.0062,-0.01 0.0025,-0.0182 -0.008,-0.0182 -0.01058,0 -0.01926,0.0081 -0.01926,0.0182 0,0.01 0.0035,0.0182 0.008,0.0182 0.0044,0 0.01309,-0.0081 0.01923,-0.0182 z m 0.14549,0 c 0.0062,-0.01 0.0025,-0.0182 -0.008,-0.0182 -0.01058,0 -0.01923,0.0081 -0.01923,0.0182 0,0.01 0.0035,0.0182 0.008,0.0182 0.0044,0 0.01309,-0.0081 0.01926,-0.0182 z m 3.225694,1.132081 c -0.02261,-0.02882 -0.02198,-0.02953 0.0069,-0.0068 0.0175,0.01372 0.03182,0.02805 0.03182,0.03182 0,0.01499 -0.01496,0.0054 -0.03871,-0.02494 z"
       id="G-SdKfz222"
       style="stroke-width:0.352778" />
  </g>
</svg>
