<?xml version="1.0" encoding="UTF-8" standalone="no"?>
<!-- Created with Inkscape (http://www.inkscape.org/) -->

<svg
   width="24.052042mm"
   height="15.931794mm"
   viewBox="0 0 24.052042 15.931794"
   version="1.1"
   id="svg15601"
   sodipodi:docname="inkporter-svg-33kzehxe.svg"
   xmlns:inkscape="http://www.inkscape.org/namespaces/inkscape"
   xmlns:sodipodi="http://sodipodi.sourceforge.net/DTD/sodipodi-0.dtd"
   xmlns="http://www.w3.org/2000/svg"
   xmlns:svg="http://www.w3.org/2000/svg">
  <sodipodi:namedview
     id="namedview15603"
     pagecolor="#ffffff"
     bordercolor="#666666"
     borderopacity="1.0"
     inkscape:pageshadow="2"
     inkscape:pageopacity="0.0"
     inkscape:pagecheckerboard="0"
     inkscape:document-units="mm"
     showgrid="false"
     inkscape:zoom="0.64052329"
     inkscape:cx="397.33138"
     inkscape:cy="561.25984"
     inkscape:window-width="1920"
     inkscape:window-height="1017"
     inkscape:window-x="-8"
     inkscape:window-y="-8"
     inkscape:window-maximized="1"
     inkscape:current-layer="layer1" />
  <defs
     id="defs15598" />
  <g
     inkscape:label="Layer 1"
     inkscape:groupmode="layer"
     id="layer1"
     transform="translate(-70.175644,-163.45969)">
    <g
       id="G-InfantryHQ-SdKfz251-StG"
       transform="translate(-113.18489,50.329538)">
      <path
         id="path66858-8-4-8-6-9-0"
         d="m 194.76568,122.29445 -0.17364,0.2583 h -0.25941 v 0.06 H 193.142 v -0.1199 h -0.0475 v 0.087 h -0.24288 v 0.049 h -0.11576 v 0.034 h -0.20877 v 0.093 h 0.20877 v 0.034 h 0.1633 v -0.034 h 0.0868 v 0.05 h 1.4366 l -0.25373,0.3778 h -0.53278 l 10e-4,0.17 h -0.36794 l -0.10283,0.1581 -0.17467,0.036 -0.13333,0.1891 -0.032,0.2992 -0.0884,0.137 -2.05104,0.2723 -0.0346,-0.1069 -0.24133,0.036 0.008,0.1065 -1.53634,0.2041 -0.03,-0.094 -0.24133,0.035 0.007,0.093 -0.91984,0.1225 -0.031,-0.061 -0.38706,0.035 0.005,0.081 -0.2651,0.036 -0.0429,0.046 v -0.1494 h -0.12092 v -0.083 h -0.22996 v -0.4123 c 0.0219,-0.013 0.0367,-0.036 0.0367,-0.062 0,-0.039 -0.0333,-0.071 -0.0729,-0.071 -0.0402,0 -0.0724,0.032 -0.0724,0.071 0,0.035 0.0254,0.064 0.0599,0.07 v 0.4046 h -0.0599 v 0.3411 l -0.19275,0.448 -0.54984,1.263 -0.0682,0.058 -0.0848,0.048 -0.0853,-0.071 0.14521,-0.071 0.0248,-0.1188 -0.20567,0.1307 -0.0367,0.1184 0.0847,0.1188 0.15761,0.011 0.0708,-0.034 0.15968,0.2635 c -0.0275,0.1098 -0.0413,0.2257 -0.0413,0.3442 0,0.8093 0.66967,1.4656 1.49552,1.4656 0.72214,0 1.32533,-0.5019 1.46503,-1.169 l 0.48679,-0.014 0.2806,-0.185 0.58136,-0.03 0.007,0.039 -0.13229,0.1633 0.0842,0.1018 0.1447,-0.069 0.19017,0.2615 -0.0894,0.1504 0.0977,0.089 0.16278,-0.1075 0.21859,0.1101 0.008,0.1793 0.13229,0.023 0.061,-0.1416 0.2775,0.054 0.0139,0.1643 0.13229,0.018 0.0589,-0.1488 0.27544,0.04 0.0124,0.1566 0.13281,0.019 0.0574,-0.1453 0.27699,0.041 0.0129,0.1514 0.13229,0.019 0.0548,-0.1395 0.28008,0.042 0.0119,0.1442 0.1323,0.019 0.0548,-0.1395 0.27906,0.027 0.0129,0.1602 0.13281,0.019 0.0651,-0.167 h 0.25425 l 0.0331,0.1463 h 0.13384 l 0.0346,-0.1442 h 0.2837 l 0.032,0.1416 h 0.13436 l 0.0326,-0.1395 h 0.28577 l 0.0315,0.1359 h 0.13436 l 0.031,-0.1344 h 0.28836 l 0.0305,0.1308 h 0.13384 l 0.0305,-0.1297 h 0.29042 l 0.0289,0.126 h 0.13436 l 0.0289,-0.124 h 0.29353 l 0.0269,0.1215 h 0.13436 l 0.0284,-0.1194 h 0.29507 l 0.0269,0.1163 h 0.13333 l 0.0274,-0.1142 h 0.29765 l 0.0253,0.1111 h 0.13385 l 0.0259,-0.1091 h 0.28783 l 0.0248,0.1065 h 0.13333 l 0.0248,-0.1049 h 0.30231 l 0.0233,0.1018 h 0.13385 l 0.0233,-0.1 h 0.30541 l 0.0217,0.096 h 0.13385 l 0.0222,-0.094 h 0.30644 l 0.0212,0.091 h 0.13384 l 0.0227,-0.094 0.30282,-0.013 0.0248,0.1075 h 0.13384 l 0.0274,-0.1153 0.29352,-0.013 0.0295,0.1282 h 0.13332 l 0.0326,-0.1364 0.2868,-0.012 0.031,0.1354 h 0.13436 l 0.0362,-0.1545 0.29714,-0.03 0.0548,0.1343 0.13229,-0.02 0.0114,-0.1592 0.22996,-0.1044 0.17311,0.1039 0.0925,-0.095 -0.092,-0.139 0.22014,-0.2015 0.16847,0.037 0.0574,-0.1189 -0.12248,-0.094 0.0951,-0.2558 0.16898,-0.04 -0.002,-0.1313 -0.16071,-0.034 -0.0129,-0.201 0.68988,-0.077 v 0.085 h 0.37879 c 0.0233,0.029 0.0595,0.047 0.0997,0.047 0.0702,0 0.12712,-0.056 0.12712,-0.1245 0,-0.069 -0.0569,-0.1246 -0.12712,-0.1246 h 0.21136 v 0.048 h 0.061 v -0.055 l 0.36277,0.1385 h 0.19326 v -0.415 h -0.22996 l -0.32607,0.071 v -0.048 h -0.061 v 0.06 h -0.1602 l 0.29042,-0.4522 0.0755,-0.022 1.62109,-2.5378 -0.0238,-0.043 0.0899,-0.1411 -0.37156,-0.3488 h -0.11368 v -0.6165 h 0.0677 v -0.1261 h -0.31109 v 0.1261 h 0.0455 v 0.085 l -1.20199,-0.1622 h -0.03 l -0.22531,-0.031 v -0.1607 l 0.0243,-0.01 -0.0181,-0.045 -0.094,0.037 h -0.0491 v 0.019 l -0.12247,0.049 0.0181,0.044 0.10439,-0.041 v 0.1974 h 0.13694 v -0.042 l 0.24288,0.033 1.2144,0.5008 v 0.1452 l -9.90483,-0.1148 0.30696,-0.5327 0.0698,0.01 v 0.1178 l 0.14831,-0.01 0.0537,-0.01 0.0543,0.1064 0.0279,0.1132 h 0.13539 l 0.0134,-0.107 -0.0951,-0.1457 h 0.14987 l 0.0129,-0.053 h 0.45888 l 0.0341,0.1059 0.0341,-0.046 h 0.0816 l 0.0744,0.087 0.0951,-0.02 -0.0336,-0.092 v -0.1726 l 0.0806,-0.086 -0.0806,-0.02 -0.12248,0.046 -0.29765,0.033 h -0.12196 l -0.0475,-0.053 -0.6072,-0.011 0.12661,-0.2206 z m 8.82478,0.5653 1.0294,0.139 v 0.2853 z m -2.26859,4.886 c 0.0165,0 0.0326,0.01 0.0475,0.019 0.0596,0.038 0.0767,0.1163 0.0382,0.1752 -0.0395,0.059 -0.11918,0.076 -0.1788,0.038 -0.06,-0.038 -0.0774,-0.1168 -0.0382,-0.1757 0.0291,-0.044 0.0816,-0.064 0.13126,-0.056 z m -0.39223,0.1948 c 0.0713,0 0.12919,0.056 0.12919,0.1266 0,0.07 -0.0579,0.1266 -0.12919,0.1266 -0.0716,0 -0.12971,-0.057 -0.12971,-0.1266 0,-0.07 0.0581,-0.1266 0.12971,-0.1266 z m -8.91263,0.083 h 0.43615 c 0.0631,0.2131 0.20086,0.3947 0.38395,0.5168 l -0.0114,0.026 -0.26872,-0.04 c -0.0141,-0.066 -0.0426,-0.164 -0.092,-0.171 -0.0448,-0.01 -0.0888,0.075 -0.11627,0.1395 l -0.27233,-0.041 c -0.0145,-0.065 -0.0433,-0.1579 -0.0909,-0.1638 -0.0438,-0.01 -0.0858,0.07 -0.11369,0.1338 l -0.27595,-0.039 c -0.005,-0.023 -0.0119,-0.049 -0.0207,-0.073 0.17392,-0.054 0.32647,-0.1553 0.44183,-0.2883 z m 0.85782,0 h 0.23927 c -0.0106,0.025 -0.0294,0.046 -0.0548,0.061 -0.0617,0.035 -0.14075,0.015 -0.17673,-0.046 -0.003,-0.01 -0.005,-0.011 -0.008,-0.016 z m 0.74518,0 h 0.0408 c 0.008,0.028 0.0184,0.056 0.0289,0.083 -0.005,0 -0.01,0 -0.015,-0.01 -0.0282,-0.018 -0.047,-0.046 -0.0548,-0.076 z m 1.88154,0.01 0.0305,6e-4 c -0.0106,0.02 -0.0269,0.038 -0.0481,0.052 0.006,-0.017 0.0119,-0.034 0.0176,-0.052 z m 0.54209,0 h 0.046 c 0.008,0.027 0.0178,0.053 0.0284,0.079 -0.008,0 -0.0148,-0.01 -0.0212,-0.011 -0.0265,-0.017 -0.0444,-0.041 -0.0532,-0.068 z m 2.40243,0.01 0.0305,6e-4 c 0.006,0.02 0.0131,0.041 0.0191,0.059 -0.0233,-0.015 -0.0401,-0.036 -0.0496,-0.06 z m 1.26297,0 h 0.20051 c 0.004,0 0.009,0.01 0.0124,0.01 0.0624,0.062 0.0624,0.1608 0,0.2222 -0.0621,0.061 -0.16374,0.061 -0.22583,0 -0.0624,-0.061 -0.0624,-0.1604 0,-0.2222 0.004,0 0.009,-0.01 0.0129,-0.011 z m -4.82399,0.011 c 0.0325,0.096 0.0811,0.1853 0.14211,0.2651 -0.0504,0.01 -0.10366,-0.01 -0.14211,-0.043 -0.0621,-0.061 -0.0621,-0.1605 0,-0.2222 z m 1.82263,0 c 0.0596,0.062 0.0597,0.1588 -0.002,0.2191 -0.0377,0.037 -0.0893,0.051 -0.13798,0.044 0.06,-0.079 0.10759,-0.1678 0.14005,-0.263 z m -2.42208,0 c 0.0557,0.061 0.0529,0.1555 -0.007,0.2144 -0.0367,0.035 -0.0861,0.05 -0.13332,0.044 0.0596,-0.078 0.10758,-0.1651 0.14004,-0.2589 z m -0.9095,0 c 0.0713,0 0.12919,0.057 0.12919,0.1266 0,0.07 -0.0579,0.1271 -0.12919,0.1271 -0.0713,0 -0.12971,-0.058 -0.12971,-0.1271 0,-0.07 0.0585,-0.1266 0.12971,-0.1266 z m 2.42104,0 c 0.0716,0 0.12971,0.057 0.12971,0.1266 0,0.07 -0.0581,0.1271 -0.12971,0.1271 -0.0716,0 -0.12868,-0.058 -0.12868,-0.1271 0,-0.07 0.0571,-0.1266 0.12868,-0.1266 z m 2.39985,0 c 0.0713,0 0.12971,0.057 0.12971,0.1266 0,0.07 -0.0585,0.1271 -0.12971,0.1271 -0.0716,0 -0.12971,-0.058 -0.12971,-0.1271 0,-0.07 0.0581,-0.1266 0.12971,-0.1266 z m 0.90589,0.01 c 0.049,0.061 0.0441,0.1502 -0.0134,0.2067 -0.0339,0.033 -0.0791,0.048 -0.12351,0.045 0.0579,-0.076 0.10449,-0.1609 0.13694,-0.2522 z m -1.80971,0.01 c 0.0325,0.088 0.0777,0.1705 0.13488,0.2449 -0.0423,8e-4 -0.0843,-0.015 -0.11679,-0.046 -0.055,-0.054 -0.0608,-0.1382 -0.0181,-0.1989 z m -2.71146,0.1002 c 0.0885,0 0.16019,0.07 0.16019,0.1566 0,0.086 -0.0717,0.1566 -0.16019,0.1566 -0.0882,0 -0.15968,-0.07 -0.15968,-0.1566 0,-0.087 0.0715,-0.1566 0.15968,-0.1566 z m 2.42724,0 c 0.0885,0 0.15968,0.07 0.15968,0.1566 0,0.086 -0.0711,0.1566 -0.15968,0.1566 -0.0885,0 -0.15968,-0.07 -0.15968,-0.1566 0,-0.087 0.0711,-0.1566 0.15968,-0.1566 z m 2.38383,0 c 0.0885,0 0.15969,0.07 0.15969,0.1566 -1e-5,0.086 -0.0711,0.1566 -0.15969,0.1566 -0.0875,0 -0.15916,-0.07 -0.15916,-0.1566 0,-0.087 0.0717,-0.1566 0.15916,-0.1566 z m 0.81701,0.075 c 0.0945,0.1051 0.21269,0.1899 0.34675,0.2449 -0.0208,0.035 -0.0366,0.086 -0.0465,0.1261 l -0.26768,0.012 c -0.0226,-0.063 -0.0665,-0.1649 -0.11834,-0.1649 -0.0501,0 -0.0835,0.1052 -0.0997,0.1737 l -0.2589,0.012 -0.009,-0.027 c 0.18838,-0.075 0.34753,-0.2083 0.45372,-0.3762 z m -5.02037,0.233 c 0.0155,0.013 0.0316,0.025 0.0486,0.037 -0.0191,0.035 -0.0322,0.082 -0.0413,0.1189 l -0.26665,-0.01 c 0.0949,-0.036 0.18251,-0.087 0.25941,-0.1494 z m 1.21388,0 c 0.0744,0.059 0.15738,0.1081 0.24805,0.1437 l -0.006,0.025 h -0.25683 c -0.0102,-0.031 -0.0282,-0.079 -0.0512,-0.1183 0.0226,-0.015 0.0445,-0.031 0.0656,-0.048 z m -2.42466,0 c 0.0737,0.058 0.15657,0.1064 0.24547,0.1416 h -0.26459 c -0.0102,-0.029 -0.0251,-0.064 -0.0424,-0.094 0.0215,-0.014 0.0417,-0.029 0.0615,-0.045 z m 4.81573,0 c 0.0787,0.062 0.16727,0.1112 0.26252,0.1458 -0.004,0.016 -0.006,0.031 -0.009,0.042 h -0.24391 c -0.006,-0.02 -0.0285,-0.093 -0.061,-0.1467 0.0177,-0.012 0.0346,-0.025 0.0512,-0.038 z m -1.19114,0 c 0.0127,0.01 0.0267,0.02 0.0408,0.029 -0.0219,0.043 -0.0365,0.102 -0.045,0.139 h -0.23926 l -0.009,-0.026 c 0.0914,-0.034 0.1765,-0.082 0.2527,-0.1401 z m 3.09025,0.045 c 0.0748,0.019 0.15467,0.028 0.23616,0.028 0.0191,0 0.0382,-2e-4 0.0558,0.01 l -0.26562,0.026 c -0.008,-0.02 -0.0165,-0.041 -0.0264,-0.062 z m -5.28598,0.075 c 0.0219,0.01 0.0444,0.019 0.0677,0.026 l -0.0584,-5e-4 z m 3.17086,0 c -0.006,0.021 -0.01,0.04 -0.0129,0.054 h -0.15193 c 0.0572,-0.013 0.11193,-0.031 0.16485,-0.053 z m -0.76119,6e-4 c 0.0459,0.019 0.0939,0.035 0.14366,0.047 h -0.12764 c -0.004,-0.011 -0.009,-0.027 -0.016,-0.046 z m -1.64848,0 -0.006,0.026 -0.0615,-5e-4 c 0.0229,-0.01 0.0455,-0.016 0.0677,-0.025 z" />
      <path
         d="m 189.81789,119.20841 c -0.0119,-0.001 -0.0537,-0.01 -0.0929,-0.0179 -0.0556,-0.0115 -0.0725,-0.0128 -0.0768,-0.006 -0.007,0.0115 -0.0875,-0.001 -0.15709,-0.0242 -0.0539,-0.018 -0.0614,-0.0309 -0.0413,-0.0712 0.006,-0.0125 0.0113,-0.0321 0.0113,-0.0437 0,-0.0115 0.004,-0.0275 0.008,-0.0355 0.006,-0.0109 0.005,-0.0201 -0.003,-0.0374 -0.0149,-0.0316 -0.0324,-0.12111 -0.038,-0.19376 l -0.005,-0.0608 0.0403,-0.0788 0.0403,-0.0788 -0.014,-0.0858 c -0.008,-0.0472 -0.0157,-0.0875 -0.0177,-0.0895 -0.002,-0.002 -0.0272,-0.004 -0.056,-0.005 -0.0287,-10e-4 -0.0806,-0.004 -0.11531,-0.007 l -0.0631,-0.005 v 0.0255 c 0,0.0214 0.009,0.0358 0.0547,0.0892 0.0864,0.10046 0.0934,0.12243 0.071,0.22222 -0.0241,0.10762 -0.0257,0.11145 -0.0562,0.13751 -0.0279,0.0239 -0.0293,0.027 -0.0278,0.0621 0.001,0.024 -0.002,0.0431 -0.01,0.0544 -0.0126,0.0192 -0.0143,0.0409 -0.008,0.10781 0.004,0.0376 0.002,0.0476 -0.0103,0.0629 -0.027,0.0342 -0.094,0.0395 -0.2262,0.0179 -0.0911,-0.0149 -0.11173,-0.0301 -0.11173,-0.082 0,-0.0322 0.004,-0.0438 0.033,-0.0864 0.0381,-0.0569 0.0453,-0.0735 0.0534,-0.12288 0.004,-0.025 0.003,-0.0429 -0.004,-0.0584 -0.005,-0.0123 -0.0116,-0.0399 -0.0145,-0.0613 -0.003,-0.0214 -0.0109,-0.0535 -0.0179,-0.0714 -0.007,-0.0179 -0.0147,-0.0633 -0.0174,-0.10092 -0.006,-0.0839 -0.0252,-0.19463 -0.034,-0.19463 -0.004,0 -0.007,0.0397 -0.007,0.0883 -6e-5,0.0486 -0.003,0.0927 -0.006,0.0981 -0.01,0.0157 -0.0674,0.0187 -0.10601,0.005 -0.0463,-0.0158 -0.12039,-0.0157 -0.13358,2.2e-4 -0.007,0.009 -0.0101,0.0376 -0.0105,0.10632 l -7e-4,0.0944 -0.0258,-7.1e-4 c -0.0384,-0.001 -0.0951,-0.0218 -0.15062,-0.0549 -0.0272,-0.0162 -0.0494,-0.0304 -0.0494,-0.0314 0,-10e-4 0.003,-0.0257 0.007,-0.0547 0.006,-0.0474 0.0229,-0.26997 0.0432,-0.58261 0.007,-0.10678 0.0142,-0.25655 0.0294,-0.61273 0.004,-0.0892 0.0101,-0.32763 0.014,-0.52983 0.004,-0.2022 0.0104,-0.40819 0.0146,-0.45774 0.0269,-0.32331 0.0444,-0.44628 0.0978,-0.68971 0.0176,-0.08 0.0339,-0.16921 0.0363,-0.19824 0.004,-0.0486 0.003,-0.0539 -0.0118,-0.0672 -0.0157,-0.014 -0.0164,-0.014 -0.0243,-0.001 -0.0478,0.0793 -0.0959,0.13588 -0.12585,0.14829 -0.0168,0.007 -0.0257,0.007 -0.0453,-0.001 -0.0373,-0.0157 -0.0956,-0.065 -0.14036,-0.11878 -0.0605,-0.0726 -0.19437,-0.277 -0.21155,-0.32293 -0.0175,-0.0469 -0.0277,-0.11231 -0.0303,-0.19578 l -0.002,-0.0593 0.0591,-0.0606 c 0.0325,-0.0333 0.0591,-0.0645 0.0591,-0.0692 0,-0.005 0.0176,-0.027 0.039,-0.0495 0.0285,-0.0299 0.0404,-0.0486 0.0442,-0.0697 0.009,-0.0474 0.0245,-0.0803 0.044,-0.0907 0.0101,-0.005 0.0261,-0.0252 0.0357,-0.044 0.01,-0.0188 0.0268,-0.045 0.0384,-0.0582 0.017,-0.0194 0.0225,-0.0348 0.029,-0.0813 0.0132,-0.0952 0.0825,-0.19172 0.1446,-0.20155 0.0179,-0.003 0.0572,-0.0157 0.0874,-0.0287 0.0303,-0.013 0.0724,-0.0275 0.0937,-0.0323 0.0916,-0.0207 0.15834,-0.0565 0.26303,-0.14088 0.0606,-0.0489 0.0989,-0.0847 0.0972,-0.0908 -0.007,-0.026 -0.0154,-0.063 -0.0191,-0.088 -0.003,-0.0219 -0.007,-0.0266 -0.0167,-0.0234 -0.0151,0.005 -0.0339,-0.008 -0.048,-0.0322 -0.0347,-0.0603 -0.0612,-0.12155 -0.0612,-0.14153 0,-0.0212 0.0151,-0.0458 0.028,-0.0458 0.003,0 0.0107,-0.0111 0.0171,-0.0247 0.0105,-0.0221 0.0106,-0.0256 0.001,-0.0338 -0.007,-0.006 -0.0104,-0.0194 -0.009,-0.0384 0.001,-0.0161 0.001,-0.0463 7e-4,-0.0671 l -0.001,-0.0379 h -0.0291 c -0.0768,0 -0.13151,-0.0646 -0.0821,-0.097 0.0804,-0.0527 0.34233,-0.0901 0.5279,-0.0755 0.0823,0.007 0.21081,0.0359 0.26088,0.0598 0.057,0.0272 0.0464,0.0624 -0.0276,0.0917 -0.0225,0.009 -0.0449,0.0193 -0.0499,0.0231 -0.0102,0.008 -0.0125,0.0743 -0.003,0.0802 0.007,0.004 0.002,0.0402 -0.005,0.0403 -0.002,3e-5 -0.005,0.0236 -0.006,0.0523 -10e-4,0.0477 -0.0163,0.12447 -0.031,0.16032 -0.003,0.008 -0.008,0.0323 -0.01,0.0541 -0.002,0.0218 -0.0106,0.0567 -0.0186,0.0776 -0.0284,0.0742 -0.0306,0.071 0.10985,0.16279 0.16921,0.11064 0.25016,0.15811 0.32259,0.18919 0.0663,0.0284 0.10211,0.0519 0.11949,0.0785 0.006,0.009 0.0307,0.0942 0.0546,0.18875 0.0647,0.25529 0.0757,0.30567 0.0924,0.42285 0.008,0.0588 0.0231,0.13174 0.0328,0.16219 0.0187,0.0585 0.0218,0.11514 0.0119,0.21399 -0.003,0.0278 -0.003,0.0635 -1.5e-4,0.0793 0.003,0.0158 0.002,0.0585 -0.001,0.0949 -0.005,0.0574 -0.012,0.0804 -0.0517,0.17587 -0.0424,0.10203 -0.0479,0.11139 -0.0777,0.13217 -0.12089,0.0844 -0.1313,0.13013 -0.0731,0.32135 0.0162,0.0534 0.0361,0.1318 0.0441,0.17416 0.0196,0.1042 0.0642,0.26448 0.11595,0.41695 0.0236,0.0695 0.0589,0.18681 0.0786,0.26075 0.0318,0.11964 0.0527,0.18375 0.12998,0.3992 0.0114,0.0318 0.0323,0.10806 0.0463,0.1694 0.0319,0.13906 0.0467,0.18424 0.13159,0.39987 0.0686,0.1744 0.14617,0.39894 0.14617,0.42323 0,0.008 -0.009,0.017 -0.0234,0.0229 -0.0756,0.0317 -0.12015,0.0482 -0.28293,0.10522 l -0.18021,0.0631 0.002,0.0397 c 0.003,0.0515 7.1e-4,0.0532 -0.15021,0.10218 -0.0654,0.0212 -0.13648,0.0456 -0.15791,0.0542 -0.0214,0.009 -0.0429,0.014 -0.0476,0.0122 -0.008,-0.003 -0.0255,-0.0877 -0.0503,-0.24574 -0.0113,-0.0717 -0.017,-0.0829 -0.0426,-0.0831 -0.0129,-1.5e-4 -0.0134,0.005 -0.009,0.099 0.002,0.0545 0.007,0.1256 0.009,0.15796 0.004,0.0447 0.001,0.0671 -0.007,0.0932 -0.006,0.0189 -0.0117,0.0436 -0.0117,0.0549 0,0.0113 -0.005,0.0323 -0.0108,0.0466 -0.009,0.0204 -0.009,0.0283 -0.002,0.0364 0.007,0.008 0.007,0.0136 2.2e-4,0.0239 -0.007,0.0106 -0.006,0.0179 0.002,0.0337 0.006,0.0111 0.014,0.0339 0.0181,0.0507 0.006,0.0254 0.0158,0.0372 0.0577,0.0706 0.0276,0.022 0.055,0.0495 0.061,0.061 0.0135,0.0261 0.0141,0.0749 0.001,0.0857 -0.0108,0.009 -0.0828,0.0157 -0.11641,0.0109 z m 0.0765,-3.86115 c 0.009,-0.0168 0.0216,-0.0384 0.029,-0.0478 0.007,-0.009 0.0134,-0.0269 0.0134,-0.0388 0,-0.0119 0.007,-0.0325 0.0149,-0.0458 0.0173,-0.028 0.0144,-0.0431 -0.0134,-0.0698 l -0.0199,-0.0191 -2.8e-4,0.0304 c -1.5e-4,0.0168 -0.009,0.0499 -0.0192,0.0737 -0.0261,0.0598 -0.0373,0.10545 -0.0316,0.12838 0.003,0.0107 0.006,0.0194 0.008,0.0194 0.002,0 0.0103,-0.0138 0.0189,-0.0306 z m -1.20065,-0.19351 c 0.008,-0.0131 -0.005,-0.24441 -0.0133,-0.24441 -0.006,0 -0.10416,0.0427 -0.16909,0.0739 -0.0165,0.008 -0.022,0.0198 -0.009,0.0198 0.0132,0 0.10933,0.0964 0.12312,0.1234 0.008,0.0148 0.0194,0.0284 0.0265,0.0302 0.0232,0.006 0.0371,0.005 0.042,-0.003 z"
         id="path13056-2-1" />
      <path
         d="m 191.81598,119.30682 c -0.0538,0.0207 -0.13643,0.0317 -0.19293,-0.022 -0.0579,-0.0551 -0.0785,-0.16261 -0.0648,-0.25356 0.0138,-0.091 0.0648,-0.29352 0.0648,-0.29352 l -0.0275,-0.0469 0.01,-0.0496 -0.0303,-0.0441 0.0413,-0.0923 -0.011,-0.0303 -0.0386,-0.30041 -0.01,-0.008 -0.011,-0.0248 c 0,0 -0.0289,-0.21773 -0.0289,-0.25907 0,-0.0413 0.01,-0.13642 0,-0.15985 -0.008,-0.0234 -0.0331,-0.0427 -0.0413,-0.0772 -0.01,-0.0345 -0.004,-0.0868 0.0179,-0.11162 0.022,-0.0234 0.0482,-0.0317 0.04,-0.0469 -0.01,-0.0138 -0.0386,-0.0455 -0.04,-0.062 -0.001,-0.0152 0.005,-0.0469 0.022,-0.0896 0.0165,-0.0441 0.007,-0.18328 0.007,-0.18328 0,0 -0.0565,-0.0537 -0.0413,-0.0868 0.0138,-0.0331 0.008,-0.27009 0.011,-0.35691 0.001,-0.0882 -0.004,-0.28525 -0.004,-0.28525 0,0 -0.11438,-0.0565 -0.11024,-0.0854 0.003,-0.0289 0.062,-0.40239 0.0648,-0.42168 0.004,-0.0207 0.0276,-0.14056 0.0276,-0.14883 0,-0.01 -0.0276,-0.0289 -0.0289,-0.0372 l 0.004,-0.0193 c 0,0 -0.006,0.011 -0.0317,-0.0124 -0.0248,-0.0234 -0.0868,-0.0358 -0.0868,-0.0358 0,0 -0.23289,-0.11713 -0.24253,-0.16812 -0.0152,-0.0937 0.007,-0.30592 0.007,-0.30592 0,0 0.004,-0.14607 0.0165,-0.16261 0.01,-0.0179 0.051,-0.0427 0.0537,-0.0537 0.003,-0.01 -0.0386,-0.062 -0.0138,-0.0951 0.0262,-0.0345 0.073,-0.10886 0.0799,-0.13229 0.007,-0.0248 0.0386,-0.10335 0.051,-0.12816 0.0124,-0.0262 0.0937,-0.19292 0.12679,-0.21773 0.0331,-0.0248 0.0524,-0.0262 0.062,-0.0303 0.01,-0.003 0.0537,-0.0358 0.0537,-0.0358 0,0 0.0303,-0.0345 0.0579,-0.051 0.0276,-0.0165 0.16123,-0.0992 0.16123,-0.0992 l 0.0207,0.0345 c 0,0 0.008,-0.01 0.0441,-0.0207 0.0372,-0.011 0.062,-0.0221 0.062,-0.0221 0,0 0.0165,0.01 0.0207,0.004 0.003,-0.004 0,-0.0317 0.005,-0.04 0.006,-0.008 0.0234,-0.0207 0.0234,-0.0207 0,0 -0.001,-0.0179 0.01,-0.0317 0.0124,-0.0124 0.0276,-0.0179 0.0276,-0.0179 l 0.0179,0.003 0.004,-0.15572 c 0,0 -0.0772,-0.0179 -0.1185,-0.0469 -0.0413,-0.0289 -0.0469,-0.0455 -0.0386,-0.0661 0.008,-0.0193 0.0854,-0.16123 0.0854,-0.16123 0,0 0.0207,-0.14194 0.0372,-0.22325 0.0152,-0.0827 0.10886,-0.1502 0.2067,-0.15847 0.0978,-0.007 0.22324,0.003 0.30317,0.0593 0.0799,0.0565 0.0951,0.15159 0.0951,0.15986 0,0.007 -0.003,0.17225 -0.003,0.17225 0,0 0.0234,0.0317 0.0234,0.0482 0,0.0165 -0.0138,0.0289 -0.0165,0.0358 -0.003,0.005 -0.008,0.0455 10e-4,0.0813 0.011,0.0372 0.008,0.0482 -0.004,0.0579 -0.0124,0.0124 -0.0358,0.0345 -0.0661,0.0358 -0.0303,10e-4 -0.0441,10e-4 -0.0441,10e-4 0,0 -0.0648,0.12265 -0.0689,0.12816 -0.003,0.006 -0.003,0.0469 -0.003,0.0469 0,0 0.0276,-0.007 0.04,0.0193 0.011,0.0248 0.0303,0.10198 0.0303,0.10198 l 0.0289,0.0606 c 0,0 0.0579,0.0138 0.0648,0.0193 0.007,0.006 0.0193,0.0152 0.0193,0.0152 0,0 0.0124,-0.0124 0.0469,-0.007 0.0344,0.006 0.12264,0.0331 0.13505,0.0413 0.0138,0.008 0.0138,0.0179 0.01,0.022 -0.006,0.005 -0.006,0.0165 0,0.0248 0.005,0.008 0.0262,0.0289 0.0317,0.0758 0.006,0.0469 0.022,0.0799 0.0276,0.0854 0.003,0.007 0.0455,0.1061 0.0441,0.13229 -0.001,0.0276 0.001,0.0648 0.0152,0.0978 0.0124,0.0345 0.0372,0.0703 0.0413,0.13229 0.006,0.0606 0.004,0.0744 0.0138,0.10611 0.011,0.0303 0.008,0.0703 0.008,0.0703 l 0.0372,0.11438 c 0,0 -0.001,0.073 0.0234,0.0965 0.0262,0.0234 0.0345,0.0455 0.0289,0.0675 -0.003,0.022 -0.011,0.051 -0.003,0.0634 0.01,0.0138 0.0138,0.0262 0.0138,0.0469 10e-4,0.022 0.011,0.0551 0.0179,0.0882 0.003,0.0179 0.004,0.0606 0.004,0.0992 0.0317,-0.004 0.0717,-0.007 0.0758,0.004 0.004,0.0193 -0.022,0.0386 -0.0165,0.051 0.005,0.011 0.3514,0.2012 0.3514,0.2012 l 0.0138,0.0469 0.34864,0.18466 c 0,0 0.0345,0 0.0482,-0.008 0.0138,-0.007 0.0372,-0.0469 0.0372,-0.0469 l 0.0372,0.0207 c 0,0 -0.0358,0.051 -0.0358,0.0675 0,0.0165 0.01,0.0289 0.01,0.0289 l -0.0179,0.0386 -0.051,-0.0289 c 0,0 -0.0537,0.006 -0.0799,0.0165 -0.0234,0.0124 -0.0455,0.006 -0.0455,-0.0165 0,-0.0234 0.004,-0.04 0.004,-0.04 l -0.30317,-0.14607 h -0.0441 l -0.0689,-0.0413 -0.0413,0.007 -0.0565,0.11989 -0.0234,-0.001 -0.25632,0.46853 -0.0965,-0.0565 0.2508,-0.46716 -0.0207,-0.0179 0.0372,-0.0648 -0.0441,-0.0441 c 0,0 -0.0124,0.0207 -0.0262,0.022 -0.0124,0 -0.0427,-0.0289 -0.0427,-0.0289 0,0 -0.0165,0.022 -0.0289,0.0234 -0.0138,0.003 -0.0276,-0.004 -0.0372,-0.004 -0.011,-0.001 -0.0152,0.007 -0.0262,0.01 -0.011,0.003 -0.0262,0.001 -0.0317,0.003 -0.006,0.001 -0.0234,0.006 -0.0234,0.006 l -0.0923,-0.0882 c 0.0207,0.14469 0.11989,0.35002 0.11989,0.35002 l -0.0317,0.1819 -0.051,0.0868 c 0,0 -0.0124,0.022 -0.0152,0.0331 -0.003,0.0124 -0.0331,0.0372 -0.0331,0.0372 0,0 -0.04,0.20808 -0.0482,0.25493 -0.008,0.0482 -0.022,0.0813 -0.0234,0.12954 0,0.0469 -0.0193,0.0799 -0.0234,0.1006 -0.003,0.0207 -0.007,0.1254 -0.001,0.15985 0.006,0.0331 0.04,0.11989 0.0413,0.16261 0.001,0.0413 0.003,0.0772 -0.0207,0.10749 -0.022,0.0289 -0.0358,0.0234 -0.0441,0.0923 -0.007,0.0689 -0.007,0.21498 -0.007,0.22463 -0.001,0.0124 0.001,0.0413 0,0.0469 -0.003,0.007 -0.0248,0.0124 -0.0276,0.0207 -0.001,0.007 -0.005,0.22186 -0.005,0.22186 l 0.0248,0.0482 -0.0124,0.0289 c 0,0 0.0496,0.0317 0.051,0.051 0,0.0193 -0.0331,0.04 -0.0207,0.0565 0.011,0.0165 0.10198,0.14194 0.13229,0.15159 0.0289,0.01 0.0455,0.004 0.051,0.0193 0.005,0.0165 0.0138,0.0317 0.0152,0.0358 0.001,0.004 0.0482,-0.0152 0.062,-0.008 0.0124,0.007 0.0276,0.0248 0.0386,0.0275 0.01,0.004 0.0524,-0.004 0.0648,0.0289 0.011,0.0345 0.0193,0.0854 0.0165,0.0965 -0.003,0.011 -0.0248,0.0413 -0.0689,0.0648 -0.0441,0.0234 -0.15296,0.0469 -0.21911,0.0345 -0.0689,-0.0124 -0.26734,-0.13918 -0.26734,-0.13918 l -0.0661,0.0386 c 0,0 -0.10335,-0.0193 -0.12539,-0.0345 -0.022,-0.0152 -0.0262,-0.0248 -0.0262,-0.0317 -10e-4,-0.008 0,-0.0606 0,-0.0606 0,0 -0.0276,-0.0482 -0.0262,-0.0744 0.003,-0.0248 0.01,-0.0579 0.0152,-0.0648 0.004,-0.008 -0.001,-0.0138 -0.011,-0.0207 -0.008,-0.007 -0.0207,-0.0331 -0.008,-0.0565 0.0124,-0.022 0.0482,-0.0565 0.0524,-0.0606 0.003,-0.007 -0.011,-0.0234 -0.0234,-0.0303 -0.0124,-0.008 -0.0386,-0.32659 -0.0372,-0.33486 0.003,-0.007 -0.004,-0.0152 -0.0262,-0.0317 -0.0234,-0.0165 0.0207,-0.17087 0.0248,-0.21222 0.005,-0.0413 0.022,-0.0689 10e-4,-0.0992 -0.0193,-0.0303 -0.0344,-0.10611 -0.0221,-0.14608 0.011,-0.0413 0.0193,-0.0593 0.0193,-0.091 0,-0.0289 0.0179,-0.0841 0.0193,-0.0951 0.003,-0.011 -0.0331,-0.0937 -0.04,-0.11576 -0.007,-0.0207 -0.0207,-0.0717 -0.0317,-0.0675 -0.011,0.004 -0.0469,0.0841 -0.0496,0.10749 -0.004,0.0248 -0.0165,0.0386 -0.0262,0.14882 -0.008,0.11163 -0.011,0.13781 -0.0165,0.15159 -0.007,0.0138 -0.0152,0.0234 -0.0179,0.0427 -0.003,0.0193 -0.001,0.0386 -0.0124,0.0468 -0.011,0.01 -0.007,0.0262 0.007,0.0469 0.0138,0.0207 0.0317,0.0469 0.0193,0.091 -0.0138,0.0455 -0.0331,0.0868 -0.0455,0.10198 -0.011,0.0138 -0.0138,0.0896 -0.0179,0.10611 -0.004,0.0152 -0.0124,0.30592 -0.0124,0.30592 0,0 -0.011,0.0234 -0.0345,0.0276 -0.022,0.006 -0.0317,0.27424 -0.0317,0.27975 -0.001,0.006 0.0221,0.0634 0.0234,0.073 0.001,0.007 0.005,0.0427 -0.005,0.0579 -0.011,0.0152 -0.0193,0.0289 -0.0193,0.0441 0,0.0152 -0.005,0.0482 -0.0165,0.0579 -0.011,0.008 0.007,0.19843 0.008,0.22048 0.001,0.0207 0.001,0.1695 0.001,0.19982 -0.001,0.0303 -0.01,0.12264 -0.0303,0.1502 -0.0234,0.0358 -0.0413,0.0524 -0.0413,0.0524"
         id="path4681-0-0" />
      <path
         id="path4677-7-9"
         d="m 201.48537,113.27939 c -0.0366,7.9e-4 -0.073,0.005 -0.10748,0.0108 -0.13783,0.0234 -0.17804,0.10336 -0.18604,0.12816 -0.008,0.0248 -0.0108,0.14624 -0.0108,0.14624 0,0 -0.0265,0.0985 -0.0305,0.10852 -0.006,0.008 -0.0429,0.16847 -0.0429,0.16847 0,0 0.0513,0.0292 0.0775,0.0372 0.0262,0.01 0.0617,0.003 0.0687,0.0207 0.007,0.0179 0.0481,0.12092 0.0481,0.12092 0,0 -0.066,0.0191 -0.077,0.0181 -0.011,-0.003 -0.14625,-0.01 -0.17105,0 -0.0234,0.008 -0.0369,0.0305 -0.0548,0.0305 -0.0179,0 -0.10217,-0.009 -0.11317,-0.0124 -0.011,-0.003 -0.17518,0.004 -0.17518,0.004 0,0 -0.056,0.10916 -0.062,0.13126 -0.004,0.022 0.0155,0.0479 0.0155,0.0589 0,0.011 -0.0181,0.0362 -0.0305,0.0817 -0.0138,0.0469 0.0112,0.0726 0.0264,0.10025 0.0148,0.0262 0.0218,0.0427 0.0248,0.062 0.003,0.0209 0.0481,0.0181 0.0481,0.0181 0,0 -0.0441,0.0742 -0.0703,0.16382 -0.0262,0.0882 -0.13504,0.55239 -0.14883,0.6103 -0.014,0.0579 -0.008,0.0938 -0.007,0.10903 0.003,0.0152 -0.008,0.13352 -0.008,0.16382 0,0.0317 0.008,0.0842 0.0139,0.1173 0.004,0.0331 -0.006,0.20416 -0.003,0.23306 0.003,0.029 0.0336,0.0758 0.0346,0.0951 0.003,0.0193 0.0138,0.14315 0.01,0.19275 -0.004,0.0482 0.0153,0.17947 0.0305,0.20567 0.0166,0.0258 0.0703,0.0248 0.0703,0.0248 0,0 10e-4,0.0358 0.0165,0.0868 0.0165,0.051 0.0538,0.14986 0.0538,0.14986 l 0.0351,0.20206 0.0543,-0.0145 -0.0176,0.0289 -0.008,0.11989 -0.007,-0.008 0.03,0.17156 c 7.9e-4,0.002 0.001,0.004 0.001,0.005 -0.001,0.0138 -0.0177,0.0427 -0.0207,0.0579 -0.001,0.0152 -0.0383,0.0481 -0.0413,0.077 -0.003,0.0289 0.0155,0.11597 0.0155,0.13797 0,0.0221 -0.0185,0.0178 -0.0155,0.0398 0.003,0.022 0.0361,0.0512 0.0331,0.0677 -0.001,0.0179 -0.025,0.0162 -0.0289,0.03 -0.004,0.0124 0.0178,0.0486 0.0248,0.061 0.007,0.0138 -0.0104,0.0272 -0.0134,0.0382 -0.001,0.011 0.0209,0.29936 0.0289,0.32556 0.01,0.0261 0.0258,0.0217 0.0258,0.0217 0,0 -0.0289,0.0248 -0.0289,0.0455 0,0.0193 0.0193,0.19847 0.0264,0.22737 0.005,0.029 0.0195,0.0484 0.0165,0.0594 -0.001,0.011 -0.0299,0.0484 -0.0289,0.076 0.003,0.0262 0.0289,0.0646 0.0289,0.0646 0,0 -0.004,0.0334 -0.0305,0.1478 -0.0275,0.11577 -0.10063,0.18187 -0.12403,0.21497 -0.0248,0.0331 -0.0346,0.0865 -0.0357,0.10852 -0.001,0.0221 -0.0222,0.0633 -0.0222,0.0909 0,0.0262 0.004,0.0789 0.11989,0.10232 0.11437,0.0206 0.15017,-0.0582 0.19017,-0.0899 0.0399,-0.0303 0.0925,-0.1912 0.0925,-0.1912 l 0.0357,-0.003 c 0,0 0.0179,-0.007 0.0496,-0.0372 0.0302,-0.0317 0.0293,-0.0607 0.0264,-0.0827 -0.003,-0.022 0.0139,-0.0468 0.0139,-0.062 0,-0.0152 -0.005,-0.16536 -0.005,-0.16536 h 0.002 c 0,0 -0.002,-0.001 0.0134,-0.0207 0.0139,-0.0179 0.0181,-0.0553 0.0181,-0.0553 l -0.0165,-0.0248 c 0,0 0.004,-0.0507 0.0108,-0.0879 0.006,-0.0372 0.0568,-0.23565 0.0568,-0.23565 l -0.0222,-0.0264 0.0388,-0.0274 0.0357,-0.14469 c 0,0 0.0331,-0.20708 0.0331,-0.21808 0,-0.0111 7.9e-4,-0.0166 0.008,-0.0331 0.008,-0.0176 -0.004,-0.0274 -0.004,-0.0274 0,0 0.0396,-0.0232 0.0589,-0.0687 0.0194,-0.0455 0.009,-0.0828 -0.004,-0.0966 -0.012,-0.0124 -0.0113,-0.0141 -0.008,-0.032 10e-4,-0.0179 -0.0176,-0.0284 -0.0176,-0.0284 l 5.3e-4,-0.0486 0.0279,-0.0165 c 0,0 0.0455,-0.002 0.0744,-0.005 0.029,-0.003 0.0837,-0.0248 0.0837,-0.0248 0,0 0.006,0.008 0.0139,0.0372 0.008,0.0289 0.0248,0.0537 0.0372,0.0744 0.0138,0.0197 0.0398,0.0207 0.0398,0.0207 0,0 -0.009,0.0178 -0.0124,0.0258 -0.001,0.008 0.001,0.04 0.004,0.062 10e-4,0.022 -0.0165,0.051 -0.0289,0.0744 -0.013,0.0235 -0.0101,0.0389 -0.003,0.0527 0.008,0.0124 0.0219,0.0329 0.0279,0.0481 0.005,0.0138 0.01,0.0827 0.0108,0.13229 0,0.0496 0.004,0.11868 0.0109,0.16278 0.004,0.0442 0.0222,0.10335 0.0222,0.10335 l -0.0176,0.015 0.0357,0.24391 0.0165,0.0264 c 0,0 -0.01,0.029 -0.0155,0.0579 -0.006,0.0289 0.0155,0.0481 0.0155,0.0481 v 0.0496 c 10e-4,0.0207 0.0108,0.0388 0.0108,0.0388 0,0 -0.0131,0.0138 -0.0191,0.062 -0.006,0.0468 0.0207,0.12506 0.0207,0.12506 l -0.0165,0.001 0.004,0.0677 0.154,0.0605 0.0677,-0.0124 c 0,0 0.0208,0.0291 0.0703,0.0801 0.0524,0.0497 0.15951,0.0757 0.24082,0.091 0.0799,0.0151 0.12672,-0.0152 0.14882,-0.0331 0.021,-0.0179 0.0104,-0.0305 0.0104,-0.0305 0,0 3e-5,-0.008 0.001,-0.0563 0.003,-0.0496 -0.0415,-0.0827 -0.0801,-0.10748 -0.04,-0.0234 -0.0949,-0.0827 -0.11421,-0.0951 -0.0165,-0.0124 -0.0706,-0.0772 -0.0982,-0.11575 -0.0274,-0.0386 -0.0233,-0.0523 -0.0233,-0.0661 0,-0.0124 -0.0152,-0.0355 -0.0222,-0.0455 -0.008,-0.01 -0.0207,-0.0538 -0.0207,-0.0538 l 0.0155,-0.0232 v -0.0289 l 0.0176,-0.0346 0.0196,-0.25218 -0.0165,-0.0181 c 0,0 0.0208,-0.007 0.0248,-0.0233 0.003,-0.0165 0.0346,-0.33486 0.0346,-0.33486 0,0 0.0329,-0.0178 0.0439,-0.0357 0.008,-0.0179 0.007,-0.0527 0.008,-0.0651 0,-0.0138 -0.014,-0.0318 -0.015,-0.0398 0,-0.01 0.007,-0.0137 0.0109,-0.0357 0.004,-0.0207 -0.007,-0.0303 0.004,-0.0579 0.014,-0.029 0.0172,-0.0372 0.007,-0.0703 -0.0113,-0.0317 0.007,-0.12853 0.008,-0.17673 0.001,-0.0468 0.0512,-0.2589 0.0512,-0.2589 l 0.007,-0.29611 -0.0124,-0.25941 0.0734,-10e-4 c 0,0 0.0104,-0.0194 0.0134,-0.0346 0.004,-0.0179 0.0103,-0.0987 0.0103,-0.0987 0,0 0.0121,-0.002 0.0341,-0.0104 0.022,-0.008 0.0654,-0.0448 0.0734,-0.0548 0.008,-0.009 0.008,-0.0196 0.008,-0.0196 l 0.0289,-0.24649 -0.0207,-0.0181 -0.004,-0.0465 -0.015,-0.0486 0.008,-0.11679 c 0,0 0.0113,-0.0362 0.008,-0.0816 -0.001,-0.0441 -0.0115,-0.0934 -0.0155,-0.10336 -0.004,-0.008 -0.0222,-0.1266 -0.0222,-0.1266 l 0.004,-0.03 -0.0455,-0.0248 v -0.0279 l 0.0124,-0.0289 -0.015,-0.0289 v -0.0894 c 0,-0.0124 -0.0181,-0.0951 -0.0181,-0.0951 l -0.0222,-0.0579 -0.01,-0.16123 c 0,0 -0.0248,-0.11731 -0.0248,-0.14211 0,-0.0234 -0.0202,-0.0921 -0.0232,-0.10594 -0.001,-0.0124 -0.0951,-0.27699 -0.0951,-0.27699 l -0.11058,-0.0677 -0.0176,-0.0357 -0.0661,-0.0222 -0.0139,-0.0357 -0.0289,-0.0139 c 0,0 -0.0263,-0.0744 -0.047,-0.10335 -0.0193,-0.0292 -0.0961,-0.0372 -0.0961,-0.0372 l -0.0362,-0.0274 -0.0424,-0.003 0.0165,-0.11421 0.0289,-0.0289 c 0,0 0.0176,-0.003 0.0589,-0.003 0.0427,0 0.076,-0.0481 0.076,-0.0481 l -0.0563,-0.10335 c 0,0 -0.0404,-0.14093 -0.0444,-0.16434 -0.004,-0.0248 -0.005,-0.1292 -0.0579,-0.2036 -0.0372,-0.0571 -0.14508,-0.0797 -0.25476,-0.077 z m 0.0739,3.59099 0.007,0.091 -0.0155,0.0646 -0.01,0.1478 -0.001,0.063 -0.003,0.0413 c 0,0 -0.0439,0.0152 -0.077,0.0222 -0.0331,0.007 -0.0718,0.004 -0.0718,0.004 l 0.0982,-0.27698 0.0139,-0.047 0.0455,-0.0672 z" />
      <path
         d="m 200.09456,116.80426 c -0.0391,-0.0588 -0.0646,-0.10297 -0.0117,-0.12652 0.0524,-0.0233 0.29791,-0.11303 0.31057,-0.11603 0.0122,-0.003 0.17751,-0.0172 0.27105,-0.0847 0.0937,-0.0679 0.0825,-0.0838 0.13669,-0.10165 0.0553,-0.0167 0.79445,-0.2036 0.79445,-0.2036 l -0.0101,-0.0444 0.0952,-0.0258 -0.0106,-0.0345 0.15191,-0.0326 c 0,0 0.008,-0.0125 0.0221,-0.0116 0.0137,3.7e-4 0.0215,0.009 0.0215,0.009 l 0.01,0.0236 0.0389,0.0381 0.0838,-0.019 0.007,0.0112 0.71027,-0.18253 0.0312,0.0122 0.12466,-0.0191 c 0,0 0.022,-0.0188 0.0282,6.4e-4 0.006,0.0193 -0.0121,0.0204 -0.0121,0.0204 l -0.0164,-0.001 -0.10493,0.0205 -0.0185,0.0237 0.009,0.0299 0.30428,-0.0782 -0.008,-0.15134 0.0585,-0.0279 0.0447,0.13261 0.0146,0.0104 0.0317,-0.008 c 0,0 0.0106,0.007 0.0198,0.0242 0.009,0.0167 -0.007,0.0383 -0.007,0.0383 l -0.13058,0.0316 -0.009,-0.003 -0.44899,0.12538 -0.0747,0.0312 c 0,0 -0.39537,0.10396 -0.40569,0.10666 -0.0109,0.003 -0.0622,0.0405 -0.08,0.0442 -0.018,0.003 -0.16871,0.0241 -0.17082,0.0596 -0.002,0.0365 0.032,0.10716 0.032,0.10716 l -0.0175,0.0103 c 0,0 0.0753,0.20147 0.14094,0.29732 0.0648,0.0959 0.18918,0.25938 0.18918,0.25938 l -0.13293,0.13331 c 0,0 -0.16103,-0.18355 -0.22804,-0.31133 -0.0671,-0.12746 -0.14415,-0.3284 -0.14415,-0.3284 0,0 -0.0418,0.009 -0.0529,0.0288 -0.0104,0.0188 -0.0359,0.0254 -0.0359,0.0254 0,0 -0.0791,0.0195 -0.0875,0.0633 -0.008,0.0438 -0.0343,0.0829 -0.0976,0.096 -0.0625,0.0138 -0.0909,0.0168 -0.10682,0.008 -0.0151,-0.009 -0.0412,-0.0116 -0.049,-0.003 -0.009,0.008 -0.0399,0.0491 -0.0595,0.11627 -0.0192,0.0669 -0.028,0.10759 -0.028,0.10759 0,0 -0.003,0.0265 -0.0523,0.0189 -0.0477,-0.008 -0.14057,-0.0131 -0.11202,-0.0958 0.0284,-0.0824 0.1062,-0.26066 0.1062,-0.26066 0,0 -0.001,-0.0722 -0.0908,-0.0427 -0.0903,0.0298 -0.21327,0.0558 -0.21327,0.0558 0,0 -0.15612,0.091 -0.26589,0.19698 -0.10944,0.10607 -0.33073,0.26907 -0.33841,0.27383 -0.008,0.004 -0.10363,0.0464 -0.11593,-0.0478 -0.0136,-0.0946 -0.0112,-0.0972 -0.0241,-0.15711 -0.0128,-0.0599 -0.0168,-0.073 -0.0168,-0.073"
         id="path51562-4-0-3-8" />
      <path
         d="m 186.36717,113.39846 c -0.12763,-0.001 -0.23022,0.039 -0.27388,0.12609 -0.0702,0.139 -0.0683,0.28188 -0.15296,0.29352 -0.0836,0.0109 0.0682,0.047 0.0682,0.047 0,0 2.6e-4,0.0285 0.0145,0.032 0.0152,0.003 0.0304,0.0146 0.0134,0.0537 -0.0183,0.0392 -0.063,0.0984 -0.0263,0.11007 0.0378,0.0113 0.0434,0.0165 0.0434,0.0165 l 0.007,0.0238 c 0,0 -0.005,0.0141 0.001,0.0212 0.007,0.006 0.0279,0.0181 0.0279,0.0181 l 0.006,0.0305 c 0,0 -0.0207,0.0115 -0.0176,0.0196 0.004,0.008 0.0249,0.0258 0.015,0.0403 -0.01,0.0145 -0.0243,0.0565 -0.008,0.0713 0.0155,0.0145 0.0868,0.0357 0.0868,0.0357 0,0 -0.078,0.049 -0.11472,0.0842 -0.0378,0.036 -0.067,0.0861 -0.0987,0.11679 -0.0328,0.0311 -0.0701,0.0694 -0.0543,0.0987 0.0166,0.0293 0.0215,0.0371 -0.001,0.0501 -0.008,0.004 -0.0252,0.0211 -0.0429,0.0398 -0.008,-0.002 -0.0179,-0.004 -0.031,-0.005 -0.0564,-0.004 -0.82062,-0.0134 -0.82062,-0.0134 l 5.3e-4,-0.0465 -0.0987,-0.002 0.003,-0.0357 -0.15503,0.003 c 0,0 -0.0116,-0.01 -0.0253,-0.006 -0.0131,0.003 -0.0186,0.0134 -0.0186,0.0134 l -0.004,0.0259 -0.0289,0.045 -0.0858,0.002 -0.005,0.0129 -0.73329,-0.0119 -0.0284,0.0191 -0.12454,0.0109 c 0,0 -0.0261,-0.0132 -0.0279,0.007 -0.001,0.0204 0.0181,0.0165 0.0181,0.0165 l 0.015,-0.005 0.10594,-0.005 0.0243,0.0191 -0.003,0.0305 -0.31368,-0.005 -0.0269,-0.14934 -0.0641,-0.0134 -0.0129,0.13901 -0.0114,0.0145 -0.0326,-5.3e-4 c 0,0 -0.009,0.009 -0.0139,0.0274 -0.005,0.019 0.0155,0.0362 0.0155,0.0362 l 0.13384,5.3e-4 0.01,-0.005 0.46508,0.0165 0.0801,0.0134 c 0,0 0.40797,0.008 0.41962,0.009 0.0109,2.6e-4 0.0699,0.0246 0.0878,0.0243 0.0179,-8e-4 0.1683,-0.0152 0.17984,0.0186 0.001,0.004 0.002,0.009 0.003,0.0145 4e-5,2.1e-4 -4e-5,7.9e-4 0,0.001 0.004,0.038 -0.008,0.0956 -0.008,0.0956 l 0.0186,0.006 c 0,0 -0.008,0.0596 -0.0207,0.13126 -0.0139,0.008 -0.0269,0.0171 -0.0269,0.0258 0,0.014 0.01,0.0305 0.0139,0.0429 -0.009,0.0447 -0.0205,0.0886 -0.0331,0.12247 -0.0413,0.1083 -0.12403,0.29662 -0.12403,0.29662 l 0.16072,0.0982 c 0,0 0.0727,-0.13864 0.11989,-0.26613 l 0.0822,0.006 c 0,0 0.0363,0.005 0.0734,0 0.0374,-0.005 0.0744,-0.0145 0.0744,-0.0145 0,0 0.0277,0.0956 0.0806,0.0956 0.0533,0 0.1757,-0.091 0.1757,-0.091 0,0 0.002,-0.0325 0.076,-0.0134 0.0744,0.0198 0.11754,0.0461 0.15141,0.0475 0.0346,0.001 0.18545,-0.0628 0.21756,-0.0165 0.0328,0.0469 0.0858,0.0279 0.0858,0.0279 0,0 -0.087,0.25472 -0.0884,0.29353 -0.002,0.0392 0.017,0.11627 0.017,0.11627 0,0 -0.11296,0.19619 -0.12919,0.26251 -0.0166,0.0667 -0.0146,0.0667 -0.0295,0.0889 -0.0145,0.0233 -0.0272,0.0681 -0.0501,0.10336 -0.0229,0.036 -0.0233,0.0558 -0.0233,0.0558 l 0.0393,0.0253 c 0,0 -0.20383,0.45743 -0.22325,0.51211 -0.0198,0.0557 -0.15385,0.20941 -0.13797,0.35863 0.0159,0.14888 0.0182,0.29033 0.0217,0.30903 0.003,0.0201 0.0208,0.052 0.009,0.076 -0.0106,0.0247 -0.0389,0.0729 0.002,0.1018 0.0402,0.0296 0.0501,0.0254 0.0501,0.0512 0,0.0258 0.0133,0.0498 0.0331,0.0656 0.0191,0.0166 0.0388,0.16433 0.0388,0.16433 l 0.0305,0.14728 c 0,0 -0.013,0.024 -0.0243,0.0424 -0.0116,0.0173 -0.006,0.0357 -0.006,0.0357 0,0 -0.0137,0.0334 -0.0388,0.0496 -0.0268,0.0166 -0.0873,0.0956 -0.0873,0.0956 0,0 -0.0685,0.0601 -0.0992,0.0682 -0.0307,0.008 -0.15089,0.0599 -0.15089,0.0599 0,0 -0.12484,0.0245 -0.13436,0.0651 -0.0102,0.0406 -0.002,0.0775 -0.002,0.0775 l -0.0114,0.0295 c 0,0 0.12752,0.0386 0.18397,0.0439 0.0568,0.005 0.35535,-0.0933 0.39946,-0.10283 0.043,-0.009 0.0594,-0.014 0.0817,-0.0109 0.0236,0.003 0.0295,0.0372 0.0295,0.0372 0,0 0.16066,-0.01 0.19947,-0.0191 0.0392,-0.0102 0.0414,-0.0408 0.0414,-0.0408 l -0.006,-0.0599 -0.0134,-0.015 c 0,0 0.0555,-0.0887 0.046,-0.14728 -0.01,-0.0582 -0.0362,-0.12247 -0.0362,-0.12247 0,0 0.004,-0.0928 -0.004,-0.11679 -0.008,-0.0247 0.003,-0.0507 0.003,-0.0698 0,-0.0201 -0.0223,-0.0742 -0.0259,-0.0925 -0.004,-0.018 0.0134,-0.10336 0.0134,-0.10336 0,0 0.0855,-0.12064 0.076,-0.15451 -0.01,-0.0342 0.034,-0.12761 0.0227,-0.1509 -0.0116,-0.0222 -0.0274,-0.0824 -0.0341,-0.10955 -0.007,-0.0279 -0.005,-0.0471 0.009,-0.0796 0.0145,-0.0325 0.0143,-0.075 0.008,-0.11524 -0.006,-0.0406 -0.001,-0.0485 0.0765,-0.0806 0.078,-0.0328 0.2618,-0.22026 0.29249,-0.27388 0.0314,-0.0536 0.1301,-0.23014 0.18655,-0.10491 0.0568,0.12418 0.22862,0.55533 0.25579,0.60048 0.0282,0.0452 0.19789,0.36739 0.21446,0.39843 0.0155,0.0307 0.12746,0.10058 0.14263,0.12351 0.0141,0.0226 0.0695,0.17496 0.11782,0.18448 0.0487,0.01 0.12348,-2.6e-4 0.14677,0.0289 0.0226,0.0293 0.12403,0.13341 0.13074,0.14469 0.006,0.0109 0.0236,0.0453 0.0212,0.0661 -0.003,0.0212 0.0276,0.0289 0.0403,0.032 0.013,0.003 0.0129,0.0765 0.0129,0.0765 -0.0257,0.0825 -0.068,0.16545 -0.0941,0.1912 -0.0261,0.0258 -0.13118,0.13297 -0.13436,0.15555 -0.003,0.0226 -0.008,0.0564 0.0305,0.0889 0.0388,0.0325 0.0778,0.0402 0.12506,0.0522 0.0473,0.0113 0.2348,-0.0197 0.27078,-0.0553 0.0356,-0.0356 0.0855,-0.12987 0.0992,-0.15245 0.013,-0.0229 0.0109,0.003 0.0109,0.003 l 0.0791,-0.0517 c 0,0 0.0147,-0.0792 0.005,-0.094 -0.01,-0.0141 0.003,-0.05 -0.005,-0.0775 -0.007,-0.0275 -0.0465,-0.0636 -0.0486,-0.0858 -0.001,-0.0229 0.003,-0.0421 -0.004,-0.0615 -0.006,-0.0198 -0.0303,-0.0328 -0.0377,-0.0388 -0.008,-0.007 -0.0106,-0.0669 -0.0233,-0.0873 -0.013,-0.0215 -0.003,-0.0171 0.0212,-0.0315 0.0243,-0.0145 0.0693,-0.0708 0.0693,-0.0708 0,0 -0.0564,-0.003 -0.0744,0.002 -0.0177,0.005 -0.0388,0.0176 -0.0388,0.0176 l -0.0248,-0.0114 c 0,0 -0.011,-0.0453 -0.0403,-0.0661 -0.0293,-0.0212 -0.0434,-0.0827 -0.0434,-0.0827 l 0.0269,-0.0295 -0.0481,-0.0532 -0.0176,0.008 -0.0243,-0.0372 -0.0279,0.002 c 0,0 0.005,-0.19462 -0.009,-0.23978 -0.0152,-0.0455 -0.0814,-0.10818 -0.0863,-0.11523 -0.005,-0.006 -0.007,-0.0713 -0.0259,-0.0811 -0.0201,-0.01 -0.0506,-0.0289 -0.0506,-0.0289 0,0 -0.0219,-0.0845 -0.0124,-0.16382 0.01,-0.0794 -0.0537,-0.39217 -0.0636,-0.43098 -0.009,-0.0392 0.01,-0.11313 0.0181,-0.1664 0.008,-0.0533 0.002,-0.31161 0.002,-0.31161 l 0.0858,-0.0568 c 0,0 -0.171,-0.45644 -0.19534,-0.53123 -0.0251,-0.0744 -0.0439,-0.17157 -0.0439,-0.17157 0,0 0.0988,-0.19448 0.10026,-0.23823 10e-4,-0.0437 -0.003,-0.0989 0.0279,-0.1359 0.0303,-0.0374 0.0904,-0.24496 0.0548,-0.36949 -0.0353,-0.1249 -0.12211,-0.36955 -0.16691,-0.41188 -0.0455,-0.042 -0.0761,-0.0618 -0.0977,-0.13901 -0.0208,-0.078 -0.0366,-0.14118 -0.11317,-0.17363 -0.0765,-0.0321 -0.13281,-0.029 -0.14728,-0.0481 -0.0143,-0.0199 -0.0406,-0.0348 -0.0632,-0.0348 -0.0233,0 -0.0702,0.0148 -0.0868,0 -0.0152,-0.0141 -0.0249,-0.0305 -0.0186,-0.0594 0.006,-0.0289 0.0114,-0.0439 0.0114,-0.0439 l 0.16382,0.003 c 0,0 -0.0568,-0.12605 -0.0667,-0.15709 -0.01,-0.0307 0.0683,-0.36629 -0.16381,-0.4439 -0.0869,-0.029 -0.1725,-0.0443 -0.24908,-0.045 z"
         id="path12777" />
      <path
         d="m 204.40594,113.44974 c 0.12763,-0.001 0.23022,0.039 0.27388,0.12609 0.0702,0.139 0.0683,0.28188 0.15296,0.29352 0.0836,0.0109 -0.0682,0.047 -0.0682,0.047 0,0 -2.6e-4,0.0285 -0.0145,0.032 -0.0152,0.003 -0.0304,0.0146 -0.0134,0.0537 0.0183,0.0392 0.063,0.0984 0.0263,0.11007 -0.0378,0.0113 -0.0434,0.0165 -0.0434,0.0165 l -0.007,0.0238 c 0,0 0.005,0.0141 -0.001,0.0212 -0.007,0.006 -0.0279,0.0181 -0.0279,0.0181 l -0.006,0.0305 c 0,0 0.0207,0.0115 0.0176,0.0196 -0.004,0.008 -0.0249,0.0258 -0.015,0.0403 0.01,0.0145 0.0243,0.0565 0.008,0.0713 -0.0155,0.0145 -0.0868,0.0357 -0.0868,0.0357 0,0 0.078,0.049 0.11472,0.0842 0.0378,0.036 0.067,0.0861 0.0987,0.11679 0.0328,0.0311 0.0701,0.0694 0.0543,0.0987 -0.0166,0.0293 -0.0215,0.0371 0.001,0.0501 0.008,0.004 0.0252,0.0211 0.0429,0.0398 0.008,-0.002 0.0179,-0.004 0.031,-0.005 0.0564,-0.004 0.82062,-0.0134 0.82062,-0.0134 l -5.3e-4,-0.0465 0.0987,-0.002 -0.003,-0.0357 0.15503,0.003 c 0,0 0.0116,-0.01 0.0253,-0.006 0.0131,0.003 0.0186,0.0134 0.0186,0.0134 l 0.004,0.0259 0.0289,0.045 0.0858,0.002 0.005,0.0129 0.73329,-0.0119 0.0284,0.0191 0.12454,0.0109 c 0,0 0.0261,-0.0132 0.0279,0.007 10e-4,0.0204 -0.0181,0.0165 -0.0181,0.0165 l -0.015,-0.005 -0.10594,-0.005 -0.0243,0.0191 0.003,0.0305 0.31368,-0.005 0.0269,-0.14934 0.0641,-0.0134 0.0129,0.13901 0.0114,0.0145 0.0326,-5.3e-4 c 0,0 0.009,0.009 0.0139,0.0274 0.005,0.019 -0.0155,0.0362 -0.0155,0.0362 l -0.13384,5.3e-4 -0.01,-0.005 -0.46508,0.0165 -0.0801,0.0134 c 0,0 -0.40797,0.008 -0.41962,0.009 -0.0109,2.6e-4 -0.0699,0.0246 -0.0878,0.0243 -0.0179,-8e-4 -0.1683,-0.0152 -0.17984,0.0186 -0.001,0.004 -0.002,0.009 -0.003,0.0145 -4e-5,2.1e-4 4e-5,7.9e-4 0,0.001 -0.004,0.038 0.008,0.0956 0.008,0.0956 l -0.0186,0.006 c 0,0 0.008,0.0596 0.0207,0.13126 0.0139,0.008 0.0269,0.0171 0.0269,0.0258 0,0.014 -0.01,0.0305 -0.0139,0.0429 0.009,0.0447 0.0205,0.0886 0.0331,0.12247 0.0413,0.1083 0.12403,0.29662 0.12403,0.29662 l -0.16072,0.0982 c 0,0 -0.0727,-0.13864 -0.11989,-0.26613 l -0.0822,0.006 c 0,0 -0.0363,0.005 -0.0734,0 -0.0374,-0.005 -0.0744,-0.0145 -0.0744,-0.0145 0,0 -0.0277,0.0956 -0.0806,0.0956 -0.0533,0 -0.1757,-0.091 -0.1757,-0.091 0,0 -0.002,-0.0325 -0.076,-0.0134 -0.0744,0.0198 -0.11754,0.0461 -0.15141,0.0475 -0.0346,10e-4 -0.18545,-0.0628 -0.21756,-0.0165 -0.0328,0.0469 -0.0858,0.0279 -0.0858,0.0279 0,0 0.087,0.25472 0.0884,0.29353 0.002,0.0392 -0.017,0.11627 -0.017,0.11627 0,0 0.11296,0.19619 0.12919,0.26251 0.0166,0.0667 0.0146,0.0667 0.0295,0.0889 0.0145,0.0233 0.0272,0.0681 0.0501,0.10336 0.0229,0.036 0.0233,0.0558 0.0233,0.0558 l -0.0393,0.0253 c 0,0 0.20383,0.45743 0.22325,0.51211 0.0198,0.0557 0.15385,0.20941 0.13797,0.35863 -0.0159,0.14888 -0.0182,0.29033 -0.0217,0.30903 -0.003,0.0201 -0.0208,0.052 -0.009,0.076 0.0106,0.0247 0.0389,0.0729 -0.002,0.1018 -0.0402,0.0296 -0.0501,0.0254 -0.0501,0.0512 0,0.0258 -0.0133,0.0498 -0.0331,0.0656 -0.0191,0.0166 -0.0388,0.16433 -0.0388,0.16433 l -0.0305,0.14728 c 0,0 0.013,0.024 0.0243,0.0424 0.0116,0.0173 0.006,0.0357 0.006,0.0357 0,0 0.0137,0.0334 0.0388,0.0496 0.0268,0.0166 0.0873,0.0956 0.0873,0.0956 0,0 0.0685,0.0601 0.0992,0.0682 0.0307,0.008 0.15089,0.0599 0.15089,0.0599 0,0 0.12484,0.0245 0.13436,0.0651 0.0102,0.0406 0.002,0.0775 0.002,0.0775 l 0.0114,0.0295 c 0,0 -0.12752,0.0386 -0.18397,0.0439 -0.0568,0.005 -0.35535,-0.0933 -0.39946,-0.10283 -0.043,-0.009 -0.0594,-0.014 -0.0817,-0.0109 -0.0236,0.003 -0.0295,0.0372 -0.0295,0.0372 0,0 -0.16066,-0.01 -0.19947,-0.0191 -0.0392,-0.0102 -0.0414,-0.0408 -0.0414,-0.0408 l 0.006,-0.0599 0.0134,-0.015 c 0,0 -0.0555,-0.0887 -0.046,-0.14728 0.01,-0.0582 0.0362,-0.12247 0.0362,-0.12247 0,0 -0.004,-0.0928 0.004,-0.11679 0.008,-0.0247 -0.003,-0.0507 -0.003,-0.0698 0,-0.0201 0.0223,-0.0742 0.0259,-0.0925 0.004,-0.018 -0.0134,-0.10336 -0.0134,-0.10336 0,0 -0.0855,-0.12064 -0.076,-0.15451 0.01,-0.0342 -0.034,-0.12761 -0.0227,-0.1509 0.0116,-0.0222 0.0274,-0.0824 0.0341,-0.10955 0.007,-0.0279 0.005,-0.0471 -0.009,-0.0796 -0.0145,-0.0325 -0.0143,-0.075 -0.008,-0.11524 0.006,-0.0406 10e-4,-0.0485 -0.0765,-0.0806 -0.078,-0.0328 -0.2618,-0.22026 -0.29249,-0.27388 -0.0314,-0.0536 -0.1301,-0.23014 -0.18655,-0.10491 -0.0568,0.12418 -0.22862,0.55533 -0.25579,0.60048 -0.0282,0.0452 -0.19789,0.36739 -0.21446,0.39843 -0.0155,0.0307 -0.12746,0.10058 -0.14263,0.12351 -0.0141,0.0226 -0.0695,0.17496 -0.11782,0.18448 -0.0487,0.01 -0.12348,-2.6e-4 -0.14677,0.0289 -0.0226,0.0293 -0.12403,0.13341 -0.13074,0.14469 -0.006,0.0109 -0.0236,0.0453 -0.0212,0.0661 0.003,0.0212 -0.0276,0.0289 -0.0403,0.032 -0.013,0.003 -0.0129,0.0765 -0.0129,0.0765 0.0257,0.0825 0.068,0.16545 0.0941,0.1912 0.0261,0.0258 0.13118,0.13297 0.13436,0.15555 0.003,0.0226 0.008,0.0564 -0.0305,0.0889 -0.0388,0.0325 -0.0778,0.0402 -0.12506,0.0522 -0.0473,0.0113 -0.2348,-0.0197 -0.27078,-0.0553 -0.0356,-0.0356 -0.0855,-0.12987 -0.0992,-0.15245 -0.013,-0.0229 -0.0109,0.003 -0.0109,0.003 l -0.0791,-0.0517 c 0,0 -0.0147,-0.0792 -0.005,-0.094 0.01,-0.0141 -0.003,-0.05 0.005,-0.0775 0.007,-0.0275 0.0465,-0.0636 0.0486,-0.0858 10e-4,-0.0229 -0.003,-0.0421 0.004,-0.0615 0.006,-0.0198 0.0303,-0.0328 0.0377,-0.0388 0.008,-0.007 0.0106,-0.0669 0.0233,-0.0873 0.013,-0.0215 0.003,-0.0171 -0.0212,-0.0315 -0.0243,-0.0145 -0.0693,-0.0708 -0.0693,-0.0708 0,0 0.0564,-0.003 0.0744,0.002 0.0177,0.005 0.0388,0.0176 0.0388,0.0176 l 0.0248,-0.0114 c 0,0 0.011,-0.0453 0.0403,-0.0661 0.0293,-0.0212 0.0434,-0.0827 0.0434,-0.0827 l -0.0269,-0.0295 0.0481,-0.0532 0.0176,0.008 0.0243,-0.0372 0.0279,0.002 c 0,0 -0.005,-0.19462 0.009,-0.23978 0.0152,-0.0455 0.0814,-0.10818 0.0863,-0.11523 0.005,-0.006 0.007,-0.0713 0.0259,-0.0811 0.0201,-0.01 0.0506,-0.0289 0.0506,-0.0289 0,0 0.0219,-0.0845 0.0124,-0.16382 -0.01,-0.0794 0.0537,-0.39217 0.0636,-0.43098 0.009,-0.0392 -0.01,-0.11313 -0.0181,-0.1664 -0.008,-0.0533 -0.002,-0.31161 -0.002,-0.31161 l -0.0858,-0.0568 c 0,0 0.171,-0.45644 0.19534,-0.53123 0.0251,-0.0744 0.0439,-0.17157 0.0439,-0.17157 0,0 -0.0988,-0.19448 -0.10026,-0.23823 -0.001,-0.0437 0.003,-0.0989 -0.0279,-0.1359 -0.0303,-0.0374 -0.0904,-0.24496 -0.0548,-0.36949 0.0353,-0.1249 0.12211,-0.36955 0.16691,-0.41188 0.0455,-0.042 0.0761,-0.0618 0.0977,-0.13901 0.0208,-0.078 0.0366,-0.14118 0.11317,-0.17363 0.0765,-0.0321 0.13281,-0.029 0.14728,-0.0481 0.0143,-0.0199 0.0406,-0.0348 0.0632,-0.0348 0.0233,0 0.0702,0.0148 0.0868,0 0.0152,-0.0141 0.0249,-0.0305 0.0186,-0.0594 -0.006,-0.0289 -0.0114,-0.0439 -0.0114,-0.0439 l -0.16382,0.003 c 0,0 0.0568,-0.12605 0.0667,-0.15709 0.01,-0.0307 -0.0683,-0.36629 0.16381,-0.4439 0.0869,-0.029 0.1725,-0.0443 0.24908,-0.045 z"
         id="path12777-8" />
      <path
         d="m 197.31763,116.17916 c 0,0 0.005,0.0314 0.0229,0.048 0.0194,0.0155 0.0639,0.0155 0.0639,0.0155 0,0 0.0349,0.0102 0.0469,0.0159 0.0138,0.005 0.0346,-0.008 0.048,-0.008 0.0138,0 0.031,0.018 0.0476,0.0208 0.0155,0.002 0.0314,-0.0152 0.0451,-0.0152 0.012,0 0.012,0.005 0.0335,0.0102 0.0208,0.005 0.0557,-0.0296 0.0557,-0.0296 l 0.18415,-0.0314 0.0766,0.0314 -0.084,0.51082 -0.008,0.0564 0.0441,0.0159 c 0,0 0.003,0.4318 0.0138,0.51929 0.0106,0.0864 0.0134,0.29492 0.0843,0.38205 0.0709,0.0868 0.18486,0.21837 0.20038,0.26071 0.0159,0.0423 0.079,0.10054 0.12347,0.10795 0.0452,0.008 0.17145,0.0109 0.22401,0.0956 0.0533,0.0836 0.15311,0.11818 0.15311,0.11818 0,0 0.0688,0.079 0.0797,0.0995 0.01,0.0219 0.12065,0.0928 0.11783,0.11959 -0.002,0.0258 0.0324,0.2607 0.006,0.31044 -0.0268,0.0505 -0.0921,0.12983 -0.0818,0.18698 0.0106,0.0582 0.0469,0.0635 0.0469,0.0635 l 0.0166,0.0289 c 0,0 0.11888,0.0423 0.20037,-0.0445 0.0811,-0.0875 0.11042,-0.17392 0.13194,-0.21379 0.0205,-0.0395 0.0497,-0.15839 0.0497,-0.15839 l 0.0261,0.0183 c 0,0 0.0924,-0.13653 0.0265,-0.21097 -0.0656,-0.0737 -0.0949,-0.0967 -0.0949,-0.0967 0,0 -0.0131,0.0155 -0.0448,-0.0194 -0.0314,-0.0332 -0.11536,-0.12312 -0.11536,-0.12312 0,0 -0.085,-0.1217 -0.10583,-0.13476 -0.0215,-0.0127 -0.0582,-0.0864 -0.0794,-0.0974 -0.0208,-0.0106 -0.0921,-0.0952 -0.0921,-0.12664 0,-0.031 0.0183,-0.11042 -0.0183,-0.14253 -0.037,-0.0314 -0.0554,-0.0967 -0.0896,-0.11888 -0.0349,-0.0208 -0.0505,-0.0917 -0.055,-0.13617 -0.006,-0.0452 -0.0508,-0.0896 -0.0663,-0.10302 -0.0159,-0.013 -0.0212,-0.0314 0.0102,-0.12382 0.0321,-0.0924 0.0504,-0.21131 0.0949,-0.27411 0.0452,-0.0631 0.0579,-0.0716 0.0579,-0.0716 0,0 0.19544,0.31926 0.21626,0.3616 0.0215,0.0423 0.15839,0.2734 0.1845,0.31326 0.0268,0.0395 0.0691,0.0469 0.0928,0.1771 0.0233,0.12876 0.13935,0.15522 0.16581,0.19755 0.0268,0.0416 0.0765,0.11889 0.12629,0.15276 0.0501,0.0342 0.0949,0.0684 0.0949,0.0684 0.0663,0.10301 0.17674,0.21907 0.21943,0.26881 0.0413,0.0501 0.0917,0.13723 0.0917,0.13723 l 0.024,0.0159 c 0,0 0.013,0.13159 -0.003,0.16616 -0.0155,0.0335 -0.0476,0.0705 -0.0579,0.12665 -0.0106,0.0543 0,0.0653 0,0.0653 l -0.0106,0.0293 c 0,0 0.13476,0.0392 0.20037,0.0268 0.0653,-0.0138 0.1584,-0.0875 0.1584,-0.0875 l 0.078,-0.0818 c 0,0 -0.0229,-0.0635 -0.0229,-0.084 0,-0.0212 0,-0.0765 -0.0183,-0.0977 -0.0183,-0.0208 -0.079,-0.12947 -0.079,-0.12947 0,0 0.0127,-0.0818 -0.0395,-0.12629 -0.0529,-0.0452 -0.0794,-0.16334 -0.0843,-0.19721 -0.005,-0.0349 -0.0162,-0.14816 -0.0529,-0.17215 -0.0371,-0.0229 -0.0554,-0.0526 -0.0526,-0.12065 0.002,-0.0691 -0.008,-0.10584 -0.0399,-0.13229 -0.0314,-0.0258 -0.0395,-0.0995 -0.0505,-0.16052 -0.0102,-0.0607 -0.005,-0.10583 -0.073,-0.14746 -0.0692,-0.0423 -0.10302,-0.12947 -0.11395,-0.2219 -0.0102,-0.0914 -0.0921,-0.30515 -0.11854,-0.34995 -0.0264,-0.0452 -0.0444,-0.21379 -0.0444,-0.21379 0,0 0.0476,0.0102 0.0607,-0.0155 0.0131,-0.0265 0.005,-0.0744 0.005,-0.0744 0,0 0.0416,-0.036 0.0416,-0.0811 0,-0.0444 -0.0159,-0.1023 -0.0159,-0.1023 0,0 0.11359,-0.0452 0.0794,-0.18239 -0.0342,-0.13723 -0.11324,-0.25294 -0.11888,-0.29809 -0.005,-0.0444 -0.0441,-0.21308 -0.11501,-0.20038 -0.072,0.0134 -0.15099,0.042 -0.15099,0.042 0,0 0.13159,-0.1651 0.17392,-0.21837 0.0427,-0.0529 0.0427,-0.055 0.0892,-0.1845 0.048,-0.12983 0.0582,-0.18204 0.0243,-0.22367 -0.0342,-0.0427 -0.0635,-0.0977 -0.0794,-0.14463 -0.0159,-0.048 -0.13441,-0.20885 -0.15557,-0.24342 -0.0205,-0.0339 -0.1577,-0.18944 -0.16863,-0.21061 -0.0102,-0.0212 -0.0102,-0.0656 -0.0628,-0.11077 -0.0533,-0.0452 -0.15557,-0.13229 -0.20073,-0.1397 -0.0448,-0.008 -0.0868,-0.0159 -0.10019,-0.0212 -0.013,-0.005 0.024,-0.0783 -0.0388,-0.10795 -0.0646,-0.0293 -0.13794,-0.037 -0.17498,-0.0818 -0.0367,-0.0444 -0.1337,-0.0607 -0.1524,-0.0607 h -0.0392 c 0,0 0.007,-0.0526 -0.005,-0.0864 -0.0138,-0.0342 -0.0529,-0.061 -0.0529,-0.061 0,0 -0.0847,-0.36125 -0.30585,-0.3556 -0.2219,0.006 -0.35349,-0.0187 -0.46391,0.16334 -0.11042,0.18203 -0.11606,0.36089 -0.11606,0.36089 0,0 0.0452,0.0155 0.0635,0.0236 0.0183,0.008 0.0317,-0.008 0.0395,0.024 0.008,0.0318 0.0473,0.0526 0.0473,0.0526 0,0 0.0339,0.0822 0.0452,0.10301 0.0109,0.0208 0.031,0.0875 0.0469,0.12629 0.0162,0.0399 0.037,0.0893 0.0578,0.0977 0.0212,0.008 0.0427,0.008 0.0427,0.008 0,0 -0.1136,0.13723 -0.12383,0.1711 -0.0109,0.0335 -0.0452,0.25012 -0.0579,0.28716 -0.0138,0.0374 -0.0639,0.10548 -0.0554,0.14817 0.007,0.0413 0.002,0.1203 -0.006,0.1711 -0.008,0.0497 -0.042,0.14463 -0.0469,0.17109 -0.005,0.0261 0.0176,0.0416 0.0205,0.0554 0.003,0.0134 -0.0286,0.037 -0.0473,0.055 -0.0183,0.0187 -0.0208,0.0794 -0.0339,0.0924 -0.0134,0.0127 -0.0377,0.0155 -0.0448,0.0342 -0.008,0.0183 0.0127,0.0557 -0.0113,0.0875 -0.0233,0.0314 -0.10478,0.0653 -0.10478,0.0917 0,0.0261 0.0155,0.0713 0.0155,0.0713 0,0 -0.0183,0.0293 -0.037,0.0631 -0.0183,0.0342 -0.0395,0.0501 -0.0314,0.0667 z"
         id="path51542-7-0-9-8" />
      <path
         d="m 199.58387,115.68568 c 0.006,-0.0709 0.007,-0.12171 -0.0511,-0.11677 -0.0575,0.006 -0.31574,0.0448 -0.32809,0.0487 -0.012,0.004 -0.16368,0.0702 -0.27798,0.0564 -0.11501,-0.0141 -0.11254,-0.0342 -0.16899,-0.0222 -0.0554,0.0117 -0.79445,0.20426 -0.79445,0.20426 l -0.0116,-0.0441 -0.096,0.0236 -0.007,-0.0353 -0.14852,0.0444 c 0,0 -0.0141,-0.007 -0.0258,0.001 -0.0116,0.007 -0.0141,0.018 -0.0141,0.018 l 0.003,0.0258 -0.0159,0.0512 -0.0822,0.024 -0.001,0.0141 -0.71014,0.18309 -0.0222,0.0254 -0.11712,0.0441 c 0,0 -0.0289,-0.007 -0.0254,0.0141 0.004,0.0197 0.0215,0.0109 0.0215,0.0109 l 0.0134,-0.008 0.10195,-0.0321 0.0279,0.0116 0.005,0.0303 -0.30444,0.078 -0.0646,-0.13617 -0.066,0.004 0.0247,0.13723 -0.007,0.0169 -0.0317,0.008 c 0,0 -0.006,0.0109 -0.006,0.03 0,0.0191 0.0243,0.0307 0.0243,0.0307 l 0.12912,-0.0346 0.008,-0.008 0.45297,-0.10795 0.0808,-0.008 c 0,0 0.39581,-0.0995 0.40675,-0.10231 0.0109,-0.003 0.0737,0.005 0.0917,-3.5e-4 0.0166,-0.005 0.15875,-0.0603 0.1778,-0.0293 0.019,0.0307 0.024,0.10901 0.024,0.10901 l 0.0194,7e-4 c 0,0 0.0311,0.21273 0.0208,0.32809 -0.0106,0.11571 -0.0402,0.31856 -0.0402,0.31856 l 0.18027,0.0522 c 0,0 0.0526,-0.23813 0.0497,-0.38241 -0.003,-0.14394 -0.0328,-0.35772 -0.0328,-0.35772 0,0 0.042,-0.0123 0.06,0 0.0187,0.012 0.0437,0.005 0.0437,0.005 0,0 0.0794,-0.0212 0.10795,0.0134 0.0279,0.0353 0.0699,0.0557 0.13123,0.037 0.0621,-0.0187 0.0878,-0.0293 0.0974,-0.0448 0.01,-0.0152 0.03,-0.03 0.0423,-0.0268 0.0116,0.003 0.0582,0.0243 0.10725,0.0734 0.0497,0.0494 0.0773,0.0808 0.0773,0.0808 0,0 0.0159,0.0212 0.0543,-0.008 0.0377,-0.03 0.11677,-0.0794 0.0519,-0.13829 -0.0642,-0.0586 -0.21837,-0.17745 -0.21837,-0.17745 0,0 -0.0346,-0.0628 0.0586,-0.0804 0.0938,-0.0173 0.21449,-0.054 0.21449,-0.054 0,0 0.18027,0.004 0.32703,0.0438 0.14746,0.0402 0.4198,0.0762 0.42898,0.0762 0.009,0 0.11288,-0.009 0.0787,-0.0981 -0.0342,-0.0889 -0.0381,-0.0896 -0.0557,-0.14852 -0.0166,-0.0589 -0.0198,-0.072 -0.0198,-0.072"
         id="path51546-5-3-5-0" />
      <path
         d="m 201.79167,116.15081 -0.61207,-1.3141 -0.0173,0.007 0.0194,0.0413 0.006,-0.003 0.009,0.0205 -0.0572,0.0261 -0.01,-0.0198 0.0261,-0.0117 -0.019,-0.0409 -0.005,0.002 -0.0197,-0.0416 -0.007,0.002 -0.0138,-0.0282 0.008,-0.003 -0.16263,-0.34819 -0.0106,0.005 -0.0127,-0.0279 0.0102,-0.005 -0.024,-0.0508 0.048,-0.0219 -0.20355,-0.43638 c -0.0155,-0.007 -0.0423,-0.025 -0.0801,-0.0677 -0.036,-0.0413 -0.11148,-0.12523 -0.17039,-0.19085 -0.0473,-0.0519 -0.0833,-0.0928 -0.0833,-0.0928 l -0.01,-0.0198 0.003,-0.01 -0.0198,-0.0434 0.004,-0.0607 0.0145,-0.19932 c 0,0 0.005,-0.049 0.0607,-0.0751 l 0.002,-0.001 c 0.0557,-0.0268 0.0967,0.002 0.0967,0.002 l 0.16193,0.11676 0.0494,0.0356 0.0205,0.0434 0.009,0.005 0.009,0.0198 c 0,0 0.008,0.054 0.0173,0.12277 0.0123,0.0878 0.0286,0.20002 0.037,0.25364 0.009,0.0557 0.005,0.0878 7e-4,0.10442 l 1.04775,2.24861 z"
         id="path51538-6-9-8-1" />
    </g>
  </g>
</svg>
