<?xml version="1.0" encoding="UTF-8" standalone="no"?>
<!-- Created with Inkscape (http://www.inkscape.org/) -->

<svg
   width="21.950569mm"
   height="10.45551mm"
   viewBox="0 0 21.950569 10.45551"
   version="1.1"
   id="svg33402"
   sodipodi:docname="inkporter-svg-71kf7czj.svg"
   inkscape:version="1.1.1 (3bf5ae0d25, 2021-09-20)"
   xmlns:inkscape="http://www.inkscape.org/namespaces/inkscape"
   xmlns:sodipodi="http://sodipodi.sourceforge.net/DTD/sodipodi-0.dtd"
   xmlns="http://www.w3.org/2000/svg"
   xmlns:svg="http://www.w3.org/2000/svg">
  <sodipodi:namedview
     id="namedview555"
     pagecolor="#ffffff"
     bordercolor="#666666"
     borderopacity="1.0"
     inkscape:pageshadow="2"
     inkscape:pageopacity="0.0"
     inkscape:pagecheckerboard="0"
     inkscape:document-units="mm"
     showgrid="false"
     inkscape:zoom="2.5097476"
     inkscape:cx="-1212.871"
     inkscape:cy="1547.3668"
     inkscape:window-width="1920"
     inkscape:window-height="1017"
     inkscape:window-x="-8"
     inkscape:window-y="-8"
     inkscape:window-maximized="1"
     inkscape:current-layer="svg33402" />
  <defs
     id="defs14119" />
  <g
     id="G-SdKfz7-1"
     transform="translate(327.03099,-510.31646)">
    <path
       d="m -305.13467,514.26152 v -0.84067 h -0.22613 v 0.84067 h -0.0406 v 0.629 h -0.0801 v 0.19826 h -4.74274 v -1.74695 l 2.44721,-0.50236 h 0.37889 l -0.0762,-0.35771 -0.3369,0.15169 -2.413,0.50553 v -0.0691 h -0.70803 v -0.27623 l -0.0141,-0.13017 0.23918,-0.0501 -0.007,-0.0974 2.79188,-0.57186 h 0.37888 l -0.0762,-0.35842 -0.3376,0.15134 -2.8247,0.59267 -0.007,-0.0677 -0.39123,0.0261 -0.44062,-1.12959 v -0.16969 h -0.64805 v 0.20602 l -0.79905,0.3168 v 0.0293 l -1.13912,-0.4632 -0.42545,-0.76129 0.091,0.62512 -0.44662,-0.18168 0.008,-0.12065 h -0.24342 l -0.0917,0.3496 h -0.24306 v 0.26176 l -0.29493,0.14711 h -0.22472 v 0.133 l -0.24306,-0.019 -0.12912,0.11077 0.0187,0.24342 2.28741,0.6297 -0.48648,0.0371 0.037,0.18767 -0.12911,0.0187 -0.0176,-0.17004 -0.18451,-0.12876 h -0.31714 l -0.22472,0.1658 -0.23919,0.17004 0.22049,0.31221 h 0.17004 l 0.14746,0.44627 0.41981,-0.12806 0.0833,0.42474 h 0.12735 v 0.1845 l -0.86959,0.18839 v 0.14781 h -0.42757 v -0.12806 l 0.21908,-0.0734 -0.0744,-0.0744 c 0,0 -0.15981,0.0321 -0.38523,0 -0.22472,-0.0317 -0.49142,-0.13794 -0.49142,-0.13794 0,0 -0.0159,0.13371 0.061,0.21873 v 0.0473 c -0.0684,-0.002 -0.20638,-0.0314 -0.20638,-0.23425 0,-0.1023 0.0208,-0.30021 0.11254,-0.37923 0.0254,-0.048 0.0254,-0.37959 0.0254,-0.37959 h -0.11395 v 0.30656 c -0.11007,0.121 -0.13758,0.30692 -0.13758,0.45226 0,0.20814 0.13441,0.34996 0.31997,0.34855 v 0.27693 h 2.30258 v 0.29809 h -0.29457 v 0.19544 h -2.37525 v -0.38311 h -0.0836 v -0.46249 h -0.25012 v 0.49283 c 0,0.0113 -0.16404,0.0141 -0.37324,0.0131 l 0.0148,-0.0289 0.049,-0.0903 c 0,0 0.0173,-0.0765 0.0141,-0.11853 -0.004,-0.0416 -0.0631,-0.139 -0.0631,-0.139 0,0 -0.0561,-0.0974 -0.0974,-0.11818 -0.042,-0.0212 -0.20849,-0.0138 -0.20849,-0.0138 l -0.10831,-0.0215 0.0169,-0.0586 c 0,0 0.10513,-0.11183 0.0981,-0.19156 -0.007,-0.0801 -0.30233,-0.34078 -0.37571,-0.34783 -0.0734,-0.007 -0.16016,0.18803 -0.16016,0.18803 l -0.049,-0.007 -0.11818,-0.0349 -0.13582,-0.0762 -0.0861,-0.11147 0.0797,0.007 -0.073,-0.17392 v -0.0691 c 0,0 0.007,-0.004 0,-0.0702 -0.007,-0.066 -0.0349,-0.0974 -0.0349,-0.0974 0,0 0.0282,-0.0102 -0.0483,-0.0762 -0.0772,-0.0667 -0.0628,-0.0416 -0.0628,-0.0416 l -0.10513,-0.0349 -0.15945,-0.0137 -0.14676,0.0208 -0.10724,0.0385 -0.0487,0.0624 -0.0385,0.0727 c 0,0 -0.003,0.0695 -0.0279,0.14287 -0.0247,0.073 -0.0519,0.0903 -0.0519,0.0903 l -0.0632,0.0487 0.0663,0.0279 0.0903,0.0279 0.0455,0.0522 -0.0176,0.17356 0.0663,0.0145 0.0279,0.11465 c 0,0 0.004,0.0624 0.0236,0.073 0.0219,0.0106 0.0667,-0.007 0.0667,-0.007 l 0.0663,-0.0208 0.0695,0.084 0.0208,0.048 -0.0554,0.14605 -0.0282,0.10443 c 0,0 -0.0106,0.10124 0,0.12558 0.0102,0.0244 0.0282,0.0833 0.0282,0.0833 l 0.0624,0.1464 0.0695,0.0554 0.11712,0.29951 -0.0533,-0.19862 0.0219,0.0593 c 0.008,0.0522 0.0328,0.0977 0.0314,0.13935 l 0.0131,0.0451 -0.0148,0.0515 0.0293,0.0448 c 0,0 -0.0328,0.0667 0.0522,0.12524 l -0.19227,0.007 -0.34748,0.03 -0.0889,0.007 c 0,0 -0.0889,0.0145 -0.10407,0.0367 -0.0208,0.0282 -0.1009,0.0106 -0.14605,0.0279 -0.0455,0.0173 -0.10478,0.10442 -0.10478,0.10442 l -0.0208,0.15981 0.0138,0.16686 0.0705,0.18838 0.0692,0.09 0.0695,0.0349 -0.0208,0.0346 0.15064,0.29104 h -0.57186 c 0,0 -0.31079,-0.12135 -0.31079,-0.31856 v -0.28539 l 0.69179,-1.01036 0.54152,0.34925 0.0533,-0.0829 -1.17828,-0.75989 -0.0533,0.0829 0.55386,0.35736 -0.60889,0.889 v -0.28998 c 0,0 0.25012,-0.20461 0.28045,-0.20461 0.0303,0 -0.29562,-0.43957 -0.29562,-0.43957 h -0.18945 l 0.0152,-0.28045 c 0,0 0.16687,-0.008 0.22755,-0.0381 0.0607,-0.0303 0.0681,-0.15135 0.0681,-0.15135 h 0.13653 v -0.12135 c 0,-0.0303 -0.14394,0 -0.14394,0 v -0.0681 c 0,-0.0684 -0.16686,-0.0988 -0.16686,-0.0988 l 0.11359,-0.48507 0.0533,0.0152 0.0455,-0.18168 -0.0455,-0.0229 0.0907,-0.4773 -0.0755,-0.0152 -0.31856,1.15958 h -0.17427 v 0.47731 h 0.0759 c 0,0 0,0.0684 -0.0226,0.22754 -0.0229,0.1591 -0.29563,0.27269 -0.43956,0.31079 -0.14429,0.0377 -4.00932,0.25753 -4.00932,0.25753 l 0.008,-0.0533 -0.28046,0.0152 v 0.0607 l -0.30303,0.0381 -0.1517,0.40922 c 0,0 -0.13017,0.93486 -0.17603,1.15782 l -0.15875,-0.01 h -0.18345 v -0.14464 h -0.13158 v 0.14464 h -0.0536 -0.12135 -0.0265 v 0.35984 h -0.17498 v 0.0808 h 0.35031 c -0.40287,0.42581 -0.44132,1.0026 -0.44132,1.0026 l 0.23918,0.0406 0.0131,0.14464 0.18839,0.0402 0.13158,-0.33302 0.0713,0.024 c -0.14605,0.24271 -0.22966,0.52705 -0.22966,0.83079 0,0.89218 0.7232,1.61431 1.61537,1.61431 0.82515,0 1.50566,-0.61806 1.60267,-1.41711 l 1.9558,-0.072 0.004,0.0247 -0.15769,0.19932 0.10089,0.12418 0.17251,-0.0843 0.22825,0.31997 -0.1076,0.1831 0.11712,0.109 0.19473,-0.13088 0.26106,0.13406 0.01,0.21943 0.1577,0.0275 0.0734,-0.17286 0.33232,0.066 0.0166,0.20003 0.15805,0.0226 0.0699,-0.18168 0.32914,0.048 0.0152,0.19191 0.15875,0.0219 0.0681,-0.17675 0.33161,0.0508 0.0141,0.18415 0.15911,0.0226 0.0653,-0.16968 0.33514,0.0504 0.0134,0.1771 0.1591,0.0226 0.0653,-0.17003 0.33302,0.0328 0.0155,0.19544 0.1591,0.0226 0.078,-0.20355 0.30375,0.003 0.0399,0.17886 h 0.16016 l 0.0406,-0.17639 0.33902,0.004 0.0384,0.17286 h 0.16052 l 0.0388,-0.17004 0.3422,0.004 0.037,0.16651 h 0.16016 l 0.0378,-0.16404 0.34466,0.004 0.0363,0.15981 h 0.1598 l 0.0371,-0.1584 0.34713,0.004 0.0346,0.15417 h 0.15946 l 0.0356,-0.1517 0.35031,0.004 0.0328,0.14817 h 0.16052 l 0.0328,-0.14605 0.35348,0.004 0.0314,0.14182 h 0.16051 l 0.0321,-0.14005 0.35596,0.004 0.03,0.13582 h 0.16052 l 0.0307,-0.1337 0.34396,0.004 0.0289,0.12947 h 0.16017 l 0.0296,-0.12841 0.36089,0.004 0.0275,0.12418 h 0.16051 l 0.0279,-0.12206 0.36407,0.004 0.0268,0.11783 h 0.15945 l 0.0268,-0.11536 0.36725,0.004 0.0247,0.11183 h 0.16051 l 0.0265,-0.11536 0.36195,-0.0162 0.0296,0.13159 h 0.15945 l 0.0328,-0.14041 0.35172,-0.0159 0.0342,0.15628 h 0.15981 l 0.0388,-0.16651 0.34326,-0.0152 0.0363,0.1651 h 0.16052 l 0.043,-0.18768 0.35525,-0.037 0.0649,0.16369 0.1584,-0.0247 0.0138,-0.19332 0.27481,-0.12735 0.20673,0.12629 0.11113,-0.11536 -0.10972,-0.16968 0.26317,-0.24554 0.20144,0.0444 0.0677,-0.14428 -0.14569,-0.11536 0.11288,-0.31186 0.0625,-0.0148 v 0.0889 h 0.49494 v -0.19862 h 0.1076 v -0.14816 l 0.34572,-0.067 v -0.0677 h 0.0543 v 0.0272 0.12065 h 0.067 v 0.66675 h 0.0811 v -0.66675 h 0.0265 0.10477 v 0.20214 h 0.16122 l 0.0138,-0.20214 -0.0138,-0.12065 0.0138,-0.1584 -0.0138,-0.0938 v -0.054 h 0.25294 v -0.16193 h -0.34678 v 0.10831 h -0.0674 v 0.10759 h -0.10477 v -0.0677 h 0.0783 l -0.51893,-0.66604 h 0.80115 v 0.37359 h 0.10407 v -0.37359 h 0.17498 v -0.2152 h -0.19826 v -0.70661 h 0.14464 v 0.33302 h 0.21519 v -1.08267 h 0.10407 v -1.29223 h 0.0811 v -0.80398 z m -9.7536,-2.47297 V 511.567 l -0.15064,-0.0176 0.0416,-0.64417 0.47837,0.19191 0.11042,0.75918 z m -11.51714,5.3601 -0.10442,0.10337 h -0.1076 v -0.25224 h 0.21202 z m 3.01767,1.93393 c 0,-0.0399 -10e-4,-0.0797 -0.004,-0.11853 l 0.31045,-0.0159 0.0402,0.14782 z m 4.50144,-3.81459 -0.0286,-0.1083 c 0,0 0.12348,0.13547 0.0286,0.1083 m 0.57115,5.02815 -0.32138,-0.0494 c -0.0166,-0.0801 -0.0515,-0.20003 -0.10972,-0.20849 -0.054,-0.007 -0.10618,0.0921 -0.13899,0.17003 l -0.32562,-0.0501 c -0.018,-0.0801 -0.0522,-0.19262 -0.1083,-0.20002 -0.0529,-0.007 -0.10336,0.0864 -0.13652,0.16368 l -0.3295,-0.0487 c -0.006,-0.0279 -0.0145,-0.0589 -0.0247,-0.0889 0.20778,-0.066 0.38982,-0.18979 0.52775,-0.35207 l 0.52141,0.002 c 0.0755,0.26 0.23989,0.4826 0.45932,0.63112 z m 0.27869,-0.58456 c -0.0737,0.043 -0.16827,0.0169 -0.21096,-0.0561 l -0.01,-0.0201 0.28645,7.1e-4 c -0.0131,0.031 -0.0349,0.0575 -0.066,0.0755 m 0.37853,0.28364 c -0.085,0 -0.15416,-0.0692 -0.15416,-0.15417 0,-0.0857 0.0691,-0.15487 0.15416,-0.15487 0.0854,0 0.15487,0.0691 0.15487,0.15487 0,0.085 -0.0695,0.15417 -0.15487,0.15417 m 0.35772,-0.26459 c -0.0342,-0.0226 -0.0572,-0.0554 -0.066,-0.0917 h 0.048 c 0.0102,0.0349 0.0219,0.0684 0.0356,0.10195 z m 0.33972,0.64629 c -0.0123,-0.0349 -0.0293,-0.0776 -0.0508,-0.1143 0.0254,-0.0173 0.0501,-0.0353 0.0741,-0.0543 0.0878,0.0706 0.18732,0.12877 0.29421,0.17287 z m 0.38171,-0.43039 c -0.0437,0.0437 -0.10195,0.0617 -0.1591,0.055 0.0709,-0.0956 0.1277,-0.20179 0.16651,-0.3168 0.0674,0.0755 0.0646,0.1898 -0.007,0.26176 m 0.36195,0.26247 c -0.10478,0 -0.1905,-0.0864 -0.1905,-0.19121 0,-0.10548 0.0857,-0.1905 0.1905,-0.1905 0.10548,0 0.1912,0.085 0.1912,0.1905 0,0.10478 -0.0857,0.19121 -0.1912,0.19121 m 0.64135,-5.02567 h 0.10407 v 0.0917 h -0.10407 z m 0,0.14464 h 0.10407 v 0.10407 h -0.10407 z m 0,0.15804 h 0.10407 v 0.10407 h -0.10407 z m 0,0.15769 h 0.10407 v 0.10407 h -0.10407 z m 0,0.15769 h 0.10407 v 0.10407 h -0.10407 z m 0,0.1584 h 0.10407 v 0.10407 h -0.10407 z m 0,0.15734 h 0.10407 v 0.10407 h -0.10407 z m 0,0.15769 h 0.10407 v 0.10407 h -0.10407 z m 0,0.1584 h 0.10407 v 0.10407 h -0.10407 z m 0,0.15769 h 0.10407 v 0.10407 h -0.10407 z m 0,0.15734 h 0.10407 v 0.0769 h -0.10407 z m -0.1584,-1.56492 h 0.10407 v 0.0917 h -0.10407 z m 0,0.14464 h 0.10407 v 0.10407 h -0.10407 z m 0,0.15804 h 0.10407 v 0.10407 h -0.10407 z m 0,0.15769 h 0.10407 v 0.10407 h -0.10407 z m 0,0.15769 h 0.10407 v 0.10407 h -0.10407 z m 0,0.1584 h 0.10407 v 0.10407 h -0.10407 z m 0,0.15734 h 0.10407 l -0.012,0.10442 v -0.0646 h -0.0921 z m 0.0921,0.57785 v -0.10407 h 0.012 z m 0.012,0.0533 -0.012,0.0769 v -0.0769 z m -0.012,-0.21096 v -0.10407 h 0.012 z m 0,-0.15769 v -0.10478 h 0.012 z m -0.24977,-1.19627 h 0.10407 v 0.0917 h -0.10407 z m 0,0.14464 h 0.10407 v 0.10407 h -0.10407 z m 0,0.15804 h 0.10407 v 0.10407 h -0.10407 z m 0,0.15769 h 0.10407 v 0.10407 h -0.10407 z m 0,0.15769 h 0.10407 v 0.10407 h -0.10407 z m 0,0.1584 h 0.10407 v 0.10407 h -0.10407 z m 0,0.15664 h 0.10407 v 0.0406 h -0.10407 z m -0.0533,0.0406 h -0.0515 v -0.0406 h 0.0515 z m 0,-0.0931 h -0.0515 v -0.10407 h 0.0515 z m 0,-0.1584 h -0.0515 v -0.10407 h 0.0515 z m 0,-0.15769 h -0.0515 v -0.10407 h 0.0515 z m 0,-0.15734 h -0.0515 v -0.10407 h 0.0515 z m 0,-0.15839 h -0.0515 v -0.10407 h 0.0515 z m 0,-0.1577 h -0.0515 v -0.0917 h 0.0515 z m 0.0903,4.67219 c -0.0744,-0.0748 -0.0744,-0.19508 0,-0.26917 0.0392,0.11713 0.0974,0.22543 0.16934,0.32209 -0.0596,0.0109 -0.12312,-0.006 -0.16934,-0.0529 m 0.37289,0.44627 -0.31927,-0.008 c 0.1136,-0.0437 0.21873,-0.10548 0.31115,-0.18062 0.0183,0.0148 0.0378,0.03 0.0575,0.0444 -0.0219,0.0423 -0.0385,0.0991 -0.0494,0.14464 m 0.16792,-3.56764 h -0.10477 v -0.0769 h 0.10477 z m 0,-0.13018 h -0.10477 v -0.10407 h 0.10477 z m 0,-0.15769 h -0.10477 v -0.10407 h 0.10477 z m 0,-0.1584 h -0.10477 v -0.10407 h 0.10477 z m 0,-0.15734 h -0.10477 v -0.10407 h 0.10477 z m 0,-0.15769 h -0.10477 v -0.10407 h 0.10477 z m 0,-0.1584 h -0.10477 v -0.10407 h 0.10477 z m 0,-0.15769 h -0.10477 v -0.10407 h 0.10477 z m 0,-0.15734 h -0.10477 v -0.10407 h 0.10477 z m 0,-0.15839 h -0.10477 v -0.10407 h 0.10477 z m 0,-0.15699 h -0.10477 v -0.0917 h 0.10477 z m 0.52705,-0.0917 h 0.10407 v 0.0917 h -0.10407 z m 0,0.14464 h 0.10407 v 0.10407 h -0.10407 z m 0,0.15804 h 0.10407 v 0.10407 h -0.10407 z m 0,0.15769 h 0.10407 v 0.0677 h -0.10407 z m 0,0.31609 0.002,-7e-4 0.0261,7e-4 v 0.10407 h -0.0279 z m -0.15769,-0.77646 h 0.10407 v 0.0917 h -0.10407 z m 0,0.14464 h 0.10407 v 0.10407 h -0.10407 z m 0,0.15804 h 0.10407 v 0.10407 h -0.10407 z m -0.1584,0.31538 h 0.0589 l -0.0589,0.0829 z m 0.008,0.31504 v 0.10512 h -0.008 z m 0,0.15839 v 0.10478 h -0.008 z m -0.16651,-1.09149 h 0.10477 v 0.0917 h -0.10477 z m 0,0.14464 h 0.10477 v 0.10407 h -0.10477 z m 0,0.15804 h 0.10477 v 0.10407 h -0.10477 z m 0,0.15769 h 0.10477 v 0.10407 h -0.10477 z m 0,0.15769 h 0.10477 v 0.10407 h -0.10477 z m 0,0.1584 h 0.10477 v 0.10407 h -0.10477 z m 0,0.15734 h 0.10477 v 0.10407 h -0.10477 z m 0,0.15769 h 0.10477 v 0.10407 h -0.10477 z m 0,0.1584 h 0.10477 v 0.10407 h -0.10477 z m 0,0.15769 h 0.10477 v 0.10407 h -0.10477 z m 0,0.15734 h 0.10477 v 0.0769 h -0.10477 z m 0.0423,3.64702 -0.0109,-0.0314 c 0.0261,0.0116 0.0533,0.0226 0.0808,0.0321 z m 0.0801,-0.68651 c 0.008,-0.0205 0.0145,-0.0413 0.0212,-0.0624 h 0.0363 c -0.0127,0.0254 -0.0321,0.0473 -0.0575,0.0624 m 0.14076,-2.8836 h -0.10407 v -0.0769 h 0.10407 z m 0,-0.13018 h -0.10407 v -0.10407 h 0.10407 z m 0,-0.15769 h -0.10513 l 0.008,-0.10407 v 0.0547 h 0.0967 z m 0,-0.47343 h -0.10407 v -0.10407 h 0.10407 z m -0.008,-0.31609 h -0.0967 v -0.10407 h 0.10513 z m 0.008,-0.15734 h -0.10407 v -0.10407 h 0.10407 z m 0,-0.15839 h -0.10407 v -0.10407 h 0.10407 z m 0,-0.15699 h -0.10407 v -0.0917 h 0.10407 z m 0.0526,0.36865 h 0.10407 v 0.0677 h -0.10407 z m 7.1e-4,0.31609 h 0.10407 v 0.10407 h -0.10407 z m 0.18097,4.03543 c -0.0857,0 -0.15487,-0.0692 -0.15487,-0.15417 0,-0.0857 0.0691,-0.15487 0.15487,-0.15487 0.085,0 0.15417,0.0691 0.15417,0.15487 0,0.085 -0.0691,0.15417 -0.15417,0.15417 m 0.23848,-4.28378 h -0.10477 v -0.0677 h 0.10477 z m 0,-0.12101 h -0.10477 v -0.10407 h 0.10477 z m 0,-0.15839 h -0.10477 v -0.10407 h 0.10477 z m 0,-0.15699 h -0.10477 v -0.0917 h 0.10477 z m 0.0533,-0.0924 h 0.12488 v 0.0917 h -0.12488 z m 0,0.14535 h 0.12488 v 0.10407 h -0.12488 z m 0,0.15804 h 0.12488 v 0.10407 h -0.12488 z m 0,0.15769 h 0.12488 v 0.0677 h -0.12488 z m 0.002,4.00474 h 0.055 c 0.0102,0.0328 0.0212,0.0645 0.0335,0.0959 -0.009,-0.004 -0.0166,-0.008 -0.0254,-0.0138 -0.0314,-0.0205 -0.0522,-0.0494 -0.0631,-0.0822 m 0.14181,0.7567 -0.0734,-7e-4 c 0.0275,-0.01 0.055,-0.0201 0.0811,-0.0311 z m 0.0473,-5.22181 h 0.0219 v 0.0917 h -0.0219 z m 0,0.14464 h 0.0219 v 0.10407 h -0.0219 z m 0,0.15804 h 0.0219 v 0.10407 h -0.0219 z m 0.0226,0.22543 h -0.0219 v -0.0677 h 0.0219 z m 0.055,-2.04047 -0.0776,-7.1e-4 v 0.1397 h -0.0744 l -0.35772,-0.41451 0.0272,-0.008 -0.0183,-0.1658 0.35349,-0.0554 v 0.18451 h 0.14746 z m 0.45296,6.73947 -0.30762,-0.004 c -0.0116,-0.0367 -0.0332,-0.0949 -0.0603,-0.14288 0.0265,-0.0187 0.0526,-0.0385 0.078,-0.0586 0.0886,0.072 0.18838,0.13159 0.29669,0.17569 z m 0.072,-0.46391 c -0.0452,0.0452 -0.10689,0.0631 -0.1651,0.0536 0.0713,-0.096 0.12876,-0.20356 0.16792,-0.32033 0.0713,0.0748 0.0699,0.19333 -0.003,0.2667 m 0.3616,0.26247 c -0.10548,0 -0.19121,-0.0864 -0.19121,-0.19121 0,-0.10548 0.0857,-0.1905 0.19121,-0.1905 0.10583,0 0.1912,0.085 0.1912,0.1905 0,0.10478 -0.0854,0.19121 -0.1912,0.19121 m -0.55845,-8.27687 v -0.25894 l -0.22895,-0.40958 1.03575,0.41381 v 0.12877 l 0.14711,0.26176 z m 0.9211,8.0144 c -0.0663,-0.0656 -0.0741,-0.16862 -0.0226,-0.24271 0.0392,0.1076 0.0931,0.20849 0.16157,0.29881 -0.0505,7e-4 -0.10054,-0.0176 -0.139,-0.0561 m 0.34326,0.47625 -0.28575,-0.003 -0.0109,-0.0328 c 0.10971,-0.0409 0.21026,-0.0991 0.30092,-0.17074 0.0162,0.0123 0.0321,0.0247 0.0494,0.0363 -0.0261,0.0536 -0.0441,0.12418 -0.0536,0.17004 m 1.04775,-0.76482 0.0233,0.0727 c -0.0272,-0.0176 -0.048,-0.0437 -0.0589,-0.0727 z m -0.768,0.76765 c -0.004,-0.0138 -0.0102,-0.0335 -0.0194,-0.0561 0.0557,0.0233 0.11253,0.043 0.17145,0.0582 z m 0.43427,-0.43039 c -0.085,0 -0.15417,-0.0692 -0.15417,-0.15417 0,-0.0857 0.0691,-0.15487 0.15417,-0.15487 0.0857,0 0.15487,0.0691 0.15487,0.15487 0,0.085 -0.0691,0.15417 -0.15487,0.15417 m 0.44062,0.43921 -0.18133,-10e-4 c 0.0684,-0.0155 0.13406,-0.0377 0.1965,-0.0642 -0.007,0.0247 -0.0116,0.0487 -0.0152,0.0656 m 0.57714,0.006 -0.29139,-0.003 c -0.007,-0.0247 -0.0342,-0.11394 -0.073,-0.17956 0.0212,-0.0145 0.0416,-0.0296 0.0621,-0.0459 0.0931,0.0748 0.19967,0.13546 0.31397,0.17815 z m 0.0501,-0.49425 c -0.0406,0.0406 -0.0952,0.0596 -0.14817,0.0554 0.0691,-0.0924 0.12488,-0.19579 0.16439,-0.30692 0.0579,0.0748 0.0522,0.18309 -0.0162,0.25153 m 2.61761,-4.76391 h 0.0988 v 0.0917 h -0.0988 z m 0,0.14535 h 0.0988 v 0.10407 h -0.0988 z m 0,0.15804 h 0.0988 v 0.10407 h -0.0988 z m 0,0.15769 h 0.0988 v 0.10407 h -0.0988 z m 0,0.15769 h 0.0988 v 0.10407 h -0.0988 z m 0,0.1584 h 0.0988 v 0.10407 h -0.0988 z m 0,0.15734 h 0.0981 v 0.0282 h -0.0938 l -0.004,0.0762 z m 0,0.15769 h 0.004 l -0.004,0.10478 z m 0,0.1584 h 0.004 l -0.004,0.10407 z m 0,0.15769 h 0.004 l -0.004,0.10407 z m 0,0.15734 h 0.004 l -0.004,0.0769 z m -0.1584,-1.56492 h 0.10407 v 0.0917 h -0.10407 z m 0,0.14464 h 0.10407 v 0.10407 h -0.10407 z m 0,0.15804 h 0.10407 v 0.10407 h -0.10407 z m 0,0.15769 h 0.10407 v 0.10407 h -0.10407 z m 0,0.15769 h 0.10407 v 0.10407 h -0.10407 z m 0,0.1584 h 0.10407 v 0.10407 h -0.10407 z m 0,0.15734 h 0.10407 v 0.10407 h -0.10407 z m 0,0.15769 h 0.10407 v 0.10407 h -0.10407 z m 0,0.1584 h 0.10407 v 0.10407 h -0.10407 z m 0,0.15769 h 0.10407 v 0.10407 h -0.10407 z m -0.31503,-1.40758 h 0.10407 v 0.0917 h -0.10407 z m 0,0.14464 h 0.10407 v 0.10407 h -0.10407 z m 0,0.15804 h 0.10407 v 0.10407 h -0.10407 z m 0,0.15769 h 0.10407 v 0.10407 h -0.10407 z m 0,0.15769 h 0.10407 v 0.10407 h -0.10407 z m 0,0.1584 h 0.10407 v 0.10407 h -0.10407 z m 0,0.15734 h 0.10407 v 0.10407 h -0.10407 z m 0,0.15769 h 0.10407 v 0.10407 h -0.10407 z m 0,0.1584 h 0.10407 v 0.10407 h -0.10407 z m 0,0.15769 h 0.10407 v 0.10407 h -0.10407 z m 0,0.15734 h 0.10407 v 0.0769 h -0.10407 z m -0.15699,-1.56492 h 0.10407 v 0.0917 h -0.10407 z m 0,0.14464 h 0.10407 v 0.10407 h -0.10407 z m 0,0.15804 h 0.10407 v 0.10407 h -0.10407 z m 0,0.15769 h 0.10407 v 0.10407 h -0.10407 z m 0,0.15769 h 0.10407 v 0.10407 h -0.10407 z m 0,0.1584 h 0.10407 v 0.10407 h -0.10407 z m 0,0.15734 h 0.10407 v 0.10407 h -0.10407 z m 0,0.15769 h 0.10407 v 0.10407 h -0.10407 z m 0,0.1584 h 0.10407 v 0.10407 h -0.10407 z m 0,0.15769 h 0.10407 v 0.10407 h -0.10407 z m 0,0.15734 h 0.10407 v 0.0769 h -0.10407 z m -0.15839,-1.56492 h 0.10407 v 0.0917 h -0.10407 z m 0,0.14464 h 0.10407 v 0.10407 h -0.10407 z m 0,0.15804 h 0.10407 v 0.10407 h -0.10407 z m 0,0.15769 h 0.10407 v 0.10407 h -0.10407 z m 0,0.15769 h 0.10407 v 0.10407 h -0.10407 z m 0,0.1584 h 0.10407 v 0.10407 h -0.10407 z m 0,0.15734 h 0.10407 v 0.10407 h -0.10407 z m 0,0.15769 h 0.10407 v 0.10407 h -0.10407 z m 0,0.1584 h 0.10407 v 0.10407 h -0.10407 z m 0,0.15769 h 0.10407 v 0.10407 h -0.10407 z m -0.31503,-1.40758 h 0.10407 v 0.0917 h -0.10407 z m 0,0.14464 h 0.10407 v 0.10407 h -0.10407 z m 0,0.15804 h 0.10407 v 0.10407 h -0.10407 z m 0,0.15769 h 0.10407 v 0.10407 h -0.10407 z m 0,0.15769 h 0.10407 v 0.10407 h -0.10407 z m 0,0.1584 h 0.10407 v 0.10407 h -0.10407 z m 0,0.15734 h 0.10407 v 0.10407 h -0.10407 z m 0,0.15769 h 0.10407 v 0.10407 h -0.10407 z m 0,0.1584 h 0.10407 v 0.10407 h -0.10407 z m 0,0.15769 h 0.10407 v 0.10407 h -0.10407 z m 0,0.15734 h 0.10407 v 0.0769 h -0.10407 z m -0.1584,-1.56492 h 0.10477 v 0.0917 h -0.10477 z m 0,0.14464 h 0.10477 v 0.10407 h -0.10477 z m 0,0.15804 h 0.10477 v 0.10407 h -0.10477 z m 0,0.15769 h 0.10477 v 0.10407 h -0.10477 z m 0,0.15769 h 0.10477 v 0.10407 h -0.10477 z m 0,0.1584 h 0.10477 v 0.10407 h -0.10477 z m 0,0.15734 h 0.10477 v 0.10407 h -0.10477 z m 0.10477,0.24201 h -0.0755 v -0.0843 h 0.0755 z m -0.26176,-1.17581 h 0.10407 v 0.0917 h -0.10407 z m 0,0.14464 h 0.10407 v 0.10407 h -0.10407 z m 0,0.15804 h 0.10407 v 0.10407 h -0.10407 z m 0,0.15769 h 0.10407 v 0.10407 h -0.10407 z m 0,0.15769 h 0.10407 v 0.10407 h -0.10407 z m 0,0.1584 h 0.10407 v 0.10407 h -0.10407 z m -7e-4,0.15734 h 0.10477 v 0.10442 h -0.0504 v -0.0646 h -0.0543 z m -0.15769,-0.9338 h 0.10407 v 0.0917 h -0.10407 z m 0.10512,0.97366 h -0.0399 v -0.0406 h 0.0399 z m -0.10512,-0.82902 h 0.10407 v 0.10407 h -0.10407 z m 0,0.15804 h 0.10407 v 0.10407 h -0.10407 z m 0,0.15769 h 0.10407 v 0.10407 h -0.10407 z m 0,0.15769 h 0.10407 v 0.10407 h -0.10407 z m 0,0.1584 h 0.10442 v 0.10407 h -0.0392 v -0.0399 h -0.0653 z m -0.15734,-0.77646 h 0.10407 v 0.0917 h -0.10407 z m 0,0.14464 h 0.10407 v 0.10407 h -0.10407 z m 0,0.15804 h 0.10407 v 0.10407 h -0.10407 z m 0,0.15769 h 0.10407 v 0.10407 h -0.10407 z m 0,0.15769 h 0.10407 v 0.10407 h -0.10407 z m 0,0.1577 h 0.10407 v 0.0653 h -0.10407 z m -0.15487,-0.77576 h 0.10124 v 0.0917 h -0.10124 z m 0,0.14464 h 0.10124 v 0.10407 h -0.10124 z m 0,0.15804 h 0.10124 v 0.10407 h -0.10124 z m 0,0.15769 h 0.10124 v 0.10407 h -0.10124 z m 0,0.15769 h 0.10124 v 0.10407 h -0.10124 z m 0,0.1577 h 0.10124 v 0.0653 h -0.10124 z m -0.12347,-0.77647 h 0.0561 v 0.0917 h -0.0561 z m 0,0.14535 h 0.0561 v 0.10407 h -0.0561 z m 0,0.15804 h 0.0561 v 0.10407 h -0.0561 z m -0.0755,0.24412 h 0.0755 v -0.0864 h 0.0561 v 0.10407 h -0.13159 z m -0.15734,0 h 0.10407 v 0.0183 h -0.10407 z m 0,0.0713 h 0.10407 v 0.10407 h -0.10407 z m -7e-4,0.1577 h 0.10407 v 0.0653 h -0.10407 z m -0.0529,-0.22896 v 0.0176 h -0.0459 l -0.005,-0.0176 z m 0,0.0713 -0.008,0.10407 -0.0254,-0.10407 z m 0.0437,4.40761 c -0.10477,0 -0.1905,-0.0864 -0.1905,-0.19121 0,-0.10548 0.0857,-0.1905 0.1905,-0.1905 0.10584,0 0.19121,0.085 0.19121,0.1905 0,0.10478 -0.0854,0.19121 -0.19121,0.19121 m 0.29881,-4.185 h -0.13159 v -0.0653 h 0.13159 z m 0,-0.11854 h -0.13159 v -0.10407 h 0.13159 z m 0.0639,4.04107 c -0.0748,-0.0748 -0.0748,-0.19508 0.0159,-0.28363 l 0.23989,7.1e-4 0.0141,0.0138 c 0.0748,0.0741 0.0748,0.19438 0,0.26917 -0.0744,0.0748 -0.19508,0.0748 -0.26987,0 m 0.97296,0.42475 -0.31997,0.0138 c -0.0268,-0.0759 -0.0794,-0.20073 -0.14111,-0.20073 -0.0603,0 -0.10019,0.12876 -0.11994,0.21237 l -0.30904,0.0138 -0.0116,-0.0328 c 0.22543,-0.0924 0.41522,-0.25435 0.54257,-0.45861 0.11324,0.12841 0.25506,0.23107 0.41487,0.29809 -0.0247,0.0427 -0.0441,0.10513 -0.0557,0.15417 m 0.0783,-3.54612 h -0.10407 v -0.0769 h 0.10407 z m 0,-0.13018 h -0.10407 v -0.10407 h 0.10407 z m 0,-0.15769 h -0.10407 v -0.10407 h 0.10407 z m 0,-0.1584 h -0.10407 v -0.10407 h 0.10407 z m 0,-0.15734 h -0.10407 v -0.10407 h 0.10407 z m 0,-0.15769 h -0.10407 v -0.10407 h 0.10407 z m 0,-0.1584 h -0.10407 v -0.10407 h 0.10407 z m 0,-0.15769 h -0.10407 v -0.10407 h 0.10407 z m 0,-0.15734 h -0.10407 v -0.10407 h 0.10407 z m 0,-0.15839 h -0.10407 v -0.10407 h 0.10407 z m 0,-0.15699 h -0.10407 v -0.0917 h 0.10407 z m 0.0533,1.4732 h 0.10407 v 0.0769 h -0.10407 z m 0.11853,3.59904 c -0.009,-0.024 -0.019,-0.0497 -0.0321,-0.0751 0.0903,0.0226 0.18556,0.0349 0.28293,0.0349 0.0233,0 0.0459,-7e-4 0.0674,0.007 z m 0.25083,-0.50765 c -0.085,0 -0.15417,-0.0684 -0.15417,-0.15416 0,-0.085 0.0692,-0.15487 0.15417,-0.15487 0.0857,0 0.15486,0.0698 0.15486,0.15487 0,0.0857 -0.0691,0.15416 -0.15486,0.15416 m 0.20778,-3.01448 h -0.10407 v -0.0769 h 0.10407 z m 0,-0.13018 h -0.10407 v -0.10407 h 0.10407 z m 0,-0.15769 h -0.10407 v -0.10407 h 0.10407 z m 0,-0.1584 h -0.10407 v -0.10407 h 0.10407 z m 0,-0.15734 h -0.10407 v -0.10407 h 0.10407 z m 0,-0.15769 h -0.10407 v -0.10407 h 0.10407 z m 0,-0.1584 h -0.10407 v -0.10407 h 0.10407 z m 0,-0.15769 h -0.10407 v -0.10407 h 0.10407 z m 0,-0.15734 h -0.10407 v -0.10407 h 0.10407 z m 0,-0.15839 h -0.10407 v -0.10407 h 0.10407 z m 0,-0.15699 h -0.10407 v -0.0917 h 0.10407 z m 0.0533,1.4732 h 0.10407 v 0.0769 h -0.10407 z m 0.30974,2.78165 c -0.0459,0.072 -0.14182,0.0917 -0.21308,0.0452 -0.072,-0.0459 -0.0917,-0.14182 -0.0459,-0.21308 0.0473,-0.072 0.14252,-0.0924 0.21378,-0.0459 0.072,0.0466 0.0924,0.14182 0.0452,0.21378 m 0.12559,-2.70474 h -0.0713 v -0.0769 h 0.0713 z m 0,-0.13018 h -0.0713 v -0.10407 h 0.0713 z m 0,-0.15769 h -0.0713 v -0.10407 h 0.0713 z m 0,-0.15769 h -0.0713 v -0.10407 h 0.0713 z m 0,-0.15805 h -0.0713 v -0.0762 h -0.0406 v -0.0282 h 0.11183 z m 0,-0.15769 h -0.11183 v -0.10407 h 0.11183 z m 0,-0.1584 h -0.11183 v -0.10407 h 0.11183 z m 0,-0.15769 h -0.11183 v -0.10407 h 0.11183 z m 0,-0.15734 h -0.11183 v -0.10407 h 0.11183 z m 0,-0.15839 h -0.11183 v -0.10407 h 0.11183 z m 0,-0.1577 h -0.11183 v -0.0917 h 0.11183 z m 0.15769,1.55082 h -0.10407 v -0.0769 h 0.10407 z m 0,-0.13018 h -0.10407 v -0.10407 h 0.10407 z m 0,-0.15769 h -0.10407 v -0.10407 h 0.10407 z m 0,-0.15769 h -0.10407 v -0.10407 h 0.10407 z m 0,-0.15805 h -0.10407 v -0.10407 h 0.10407 z m 0,-0.15769 h -0.10407 v -0.10407 h 0.10407 z m 0,-0.1584 h -0.10407 v -0.10407 h 0.10407 z m 0,-0.15769 h -0.10407 v -0.10407 h 0.10407 z m 0,-0.15734 h -0.10407 v -0.10407 h 0.10407 z m 0,-0.15839 h -0.10407 v -0.10407 h 0.10407 z m 0,-0.1577 h -0.10407 v -0.0917 h 0.10407 z m 0.15734,1.55082 h -0.10407 v -0.0769 h 0.10407 z m 0,-0.13018 h -0.10407 v -0.10407 h 0.10407 z m 0,-0.15769 h -0.10407 v -0.10407 h 0.10407 z m 0,-0.15769 h -0.10407 v -0.10407 h 0.10407 z m 0,-0.15805 h -0.10407 v -0.10407 h 0.10407 z m 0,-0.15769 h -0.10407 v -0.10407 h 0.10407 z m 0,-0.1584 h -0.10407 v -0.10407 h 0.10407 z m 0,-0.15769 h -0.10407 v -0.10407 h 0.10407 z m 0,-0.15734 h -0.10407 v -0.10407 h 0.10407 z m 0,-0.15839 h -0.10407 v -0.10407 h 0.10407 z m 0,-0.1577 h -0.10407 v -0.0917 h 0.10407 z m 0.15769,1.55082 h -0.10407 v -0.0769 h 0.10407 z m 0,-0.13018 h -0.10407 v -0.10407 h 0.10407 z m 0,-0.15769 h -0.10407 v -0.10407 h 0.10407 z m 0,-0.15769 h -0.10407 v -0.10407 h 0.10407 z m 0,-0.15805 h -0.10407 v -0.10407 h 0.10407 z m 0,-0.15769 h -0.10407 v -0.10407 h 0.10407 z m 0,-0.1584 h -0.10407 v -0.10407 h 0.10407 z m 0,-0.15769 h -0.10407 v -0.10407 h 0.10407 z m 0,-0.15734 h -0.10407 v -0.10407 h 0.10407 z m 0,-0.15839 h -0.10407 v -0.10407 h 0.10407 z m 0,-0.1577 h -0.10407 v -0.0917 h 0.10407 z m 0.21096,-0.0917 h 0.10407 v 0.0917 h -0.10407 z m 0,0.14535 h 0.10407 v 0.10407 h -0.10407 z m 0,0.15804 h 0.10407 v 0.10407 h -0.10407 z m 0,0.15769 h 0.10407 v 0.10407 h -0.10407 z m 0,0.15769 h 0.10407 v 0.10407 h -0.10407 z m 0,0.1584 h 0.10407 v 0.10407 h -0.10407 z m 0,0.15734 h 0.10407 v 0.10407 h -0.10407 z m 0,0.1584 h 0.10407 v 0.10407 h -0.10407 z m 0,0.15769 h 0.10407 v 0.10407 h -0.10407 z m -0.0533,0.39194 h -0.10407 v -0.0769 h 0.10407 z m 0,-0.13018 h -0.10407 v -0.10407 h 0.10407 z m 0,-0.15769 h -0.10407 v -0.10407 h 0.10407 z m 0,-0.15769 h -0.10407 v -0.10407 h 0.10407 z m 0,-0.15805 h -0.10407 v -0.10407 h 0.10407 z m 0,-0.15769 h -0.10407 v -0.10407 h 0.10407 z m 0,-0.1584 h -0.10407 v -0.10407 h 0.10407 z m 0,-0.15769 h -0.10407 v -0.10407 h 0.10407 z m 0,-0.15734 h -0.10407 v -0.10407 h 0.10407 z m 0,-0.15839 h -0.10407 v -0.10407 h 0.10407 z m 0,-0.1577 h -0.10407 v -0.0917 h 0.10407 z m 0.0533,1.31657 h 0.10407 v 0.10407 h -0.10407 z m 0.10513,0.23425 h -0.10407 v -0.0769 h 0.10407 z m 0.15734,0 h -0.10478 v -0.0769 h 0.10478 z m 0,-0.13018 h -0.10478 v -0.10407 h 0.10478 z m 0,-0.15769 h -0.10478 v -0.10407 h 0.10478 z m 0,-0.15769 h -0.10478 v -0.10407 h 0.10478 z m 0,-0.15805 h -0.10478 v -0.10407 h 0.10478 z m 0,-0.15769 h -0.10478 v -0.10407 h 0.10478 z m 0,-0.1584 h -0.10478 v -0.10407 h 0.10478 z m 0,-0.15769 h -0.10478 v -0.10407 h 0.10478 z m 0,-0.15734 h -0.10478 v -0.10407 h 0.10478 z m 0,-0.15839 h -0.10478 v -0.10407 h 0.10478 z m 0,-0.1577 h -0.10478 v -0.0917 h 0.10478 z m 0.15769,1.55082 h -0.10407 v -0.0769 h 0.10407 z m 0,-0.13018 h -0.10407 v -0.10407 h 0.10407 z m 0,-0.15769 h -0.10407 v -0.10407 h 0.10407 z m 0,-0.15769 h -0.10407 v -0.10407 h 0.10407 z m 0,-0.15805 h -0.10407 v -0.10407 h 0.10407 z m 0,-0.15769 h -0.10407 v -0.10407 h 0.10407 z m 0,-0.1584 h -0.10407 v -0.10407 h 0.10407 z m 0,-0.15769 h -0.10407 v -0.10407 h 0.10407 z m 0,-0.15734 h -0.10407 v -0.10407 h 0.10407 z m 0,-0.15839 h -0.10407 v -0.10407 h 0.10407 z m 0,-0.1577 h -0.10407 v -0.0917 h 0.10407 z m 0.15769,1.55082 h -0.10407 v -0.0769 h 0.10407 z m 0,-0.13018 h -0.10407 v -0.10407 h 0.10407 z m 0,-0.15769 h -0.10407 v -0.10407 h 0.10407 z m 0,-0.15769 h -0.10407 v -0.10407 h 0.10407 z m 0,-0.15805 h -0.10407 v -0.10407 h 0.10407 z m 0,-0.15769 h -0.10407 v -0.10407 h 0.10407 z m 0,-0.1584 h -0.10407 v -0.10407 h 0.10407 z m 0,-0.15769 h -0.10407 v -0.10407 h 0.10407 z m 0,-0.15734 h -0.10407 v -0.10407 h 0.10407 z m 0,-0.15839 h -0.10407 v -0.10407 h 0.10407 z m 0,-0.1577 h -0.10407 v -0.0917 h 0.10407 z m 0.60502,3.58246 h 0.10477 v 0.1584 h -0.10477 z m -0.55104,-3.67418 h 0.10336 v 0.0917 h -0.10336 z m 0,0.14535 h 0.10336 v 0.10407 h -0.10336 z m 0,0.15804 h 0.10336 v 0.10407 h -0.10336 z m 0,0.15769 h 0.10336 v 0.10407 h -0.10336 z m 0,0.15769 h 0.10336 v 0.10407 h -0.10336 z m 0,0.1584 h 0.10336 v 0.10407 h -0.10336 z m 0,0.15734 h 0.10336 v 0.10407 h -0.10336 z m 0,0.1584 h 0.10336 v 0.10407 h -0.10336 z m 0,0.15769 h 0.10336 v 0.10407 h -0.10336 z m 0,0.15769 h 0.10336 v 0.10407 h -0.10336 z m 0,0.15734 h 0.10336 v 0.0769 h -0.10336 z m 0.16474,1.77553 0.1711,0.17145 h 0.0406 v 0.16157 h -0.0543 v -0.067 h -0.23847 v -0.17463 z m 0.097,-1.69862 h -0.10407 v -0.0769 h 0.10407 z m 3.5e-4,-0.13018 h -0.10407 v -0.10407 h 0.10407 z m 0,-0.15769 h -0.10407 v -0.10407 h 0.10407 z m 0,-0.15769 h -0.10407 v -0.10407 h 0.10407 z m 0,-0.15805 h -0.10407 v -0.10407 h 0.10407 z m 0,-0.15769 h -0.10407 v -0.10407 h 0.10407 z m 0,-0.1584 h -0.10407 v -0.10407 h 0.10407 z m 0,-0.15769 h -0.10407 v -0.10407 h 0.10407 z m 0,-0.15734 h -0.10407 v -0.10407 h 0.10407 z m 0,-0.15839 h -0.10407 v -0.10407 h 0.10407 z m 0,-0.1577 h -0.10407 v -0.0917 h 0.10407 z m 0.15734,1.55082 h -0.10407 v -0.0769 h 0.10407 z m 0,-0.13018 h -0.10407 v -0.10407 h 0.10407 z m 0,-0.15769 h -0.10407 v -0.10407 h 0.10407 z m 0,-0.15769 h -0.10407 v -0.10407 h 0.10407 z m 0,-0.15805 h -0.10407 v -0.10407 h 0.10407 z m 0,-0.15769 h -0.10407 v -0.10407 h 0.10407 z m 0,-0.1584 h -0.10407 v -0.10407 h 0.10407 z m 0,-0.15769 h -0.10407 v -0.10407 h 0.10407 z m 0,-0.15734 h -0.10407 v -0.10407 h 0.10407 z m 0,-0.15839 h -0.10407 v -0.10407 h 0.10407 z m 0,-0.1577 h -0.10407 v -0.0917 h 0.10407 z m 0.11783,0.87101 h -0.0653 v -0.0282 h 0.0653 z m 7e-4,-0.0815 h -0.0653 v -0.10407 h 0.0653 z m 0,-0.1584 h -0.0653 v -0.10407 h 0.0653 z m 0,-0.15769 h -0.0653 v -0.10407 h 0.0653 z m 0,-0.15734 h -0.0653 v -0.10407 h 0.0653 z m 0,-0.15839 h -0.0653 v -0.10407 h 0.0653 z m 0,-0.1577 h -0.0653 v -0.0917 h 0.0653 z m 0.15099,1.55082 h -0.0437 v -0.0769 h 0.0437 z m 0,-0.13018 h -0.0437 v -0.10407 h 0.0437 z m 0,-0.15769 h -0.0437 v -0.10407 h 0.0437 z m 0,-0.1584 h -0.0437 v -0.10407 h 0.0437 z m 0,-0.15734 h -0.0441 v -0.0762 h -0.0395 v -0.0282 h 0.0836 z m 0,-0.15769 h -0.0843 v -0.10407 h 0.0843 z m 0,-0.1584 h -0.0843 v -0.10407 h 0.0843 z m 0,-0.15769 h -0.0843 v -0.10407 h 0.0843 z m 0,-0.15734 h -0.0843 v -0.10407 h 0.0843 z m 0,-0.15839 h -0.0843 v -0.10407 h 0.0843 z m 0,-0.15699 h -0.0843 v -0.0917 h 0.0843 z m 0.15734,1.55011 h -0.10407 v -0.0769 h 0.10407 z m 0,-0.13018 h -0.10407 v -0.10407 h 0.10407 z m 0,-0.15769 h -0.10407 v -0.10407 h 0.10407 z m 0,-0.1584 h -0.10407 v -0.10407 h 0.10407 z m 0,-0.15734 h -0.10407 V 516.118 h 0.10407 z m 0,-0.15769 h -0.10407 v -0.10407 h 0.10407 z m 0,-0.1584 h -0.10407 v -0.10407 h 0.10407 z m 0,-0.15769 h -0.10407 v -0.10407 h 0.10407 z m 0,-0.15734 h -0.10407 v -0.10407 h 0.10407 z m 0,-0.15839 h -0.10407 v -0.10407 h 0.10407 z m 0,-0.15699 h -0.10407 v -0.0917 h 0.10407 z m 0.13229,1.55011 h -0.0787 v -0.0769 h 0.0787 z m 0,-0.13018 h -0.0787 v -0.10407 h 0.0787 z m 0,-0.15769 h -0.0787 v -0.10407 h 0.0787 z m 0,-0.15769 h -0.0787 v -0.10407 h 0.0787 z m 0,-0.15805 h -0.0787 V 516.118 h 0.0787 z m 0,-0.15769 h -0.0787 v -0.10407 h 0.0787 z m 0,-0.1584 h -0.0787 v -0.10407 h 0.0787 z m 0,-0.15769 h -0.0787 v -0.10407 h 0.0787 z m 0,-0.15734 h -0.0787 v -0.10407 h 0.0787 z m 0,-0.15839 h -0.0787 v -0.10407 h 0.0787 z m 0,-0.1577 h -0.0787 v -0.0917 h 0.0787 z"
       style="fill:#000000;fill-opacity:1;fill-rule:nonzero;stroke:none;stroke-width:0.352778"
       id="path11610-5-0" />
    <g
       id="g23327-8-8"
       style="fill:#000000"
       transform="matrix(0.35277777,0,0,-0.35277777,-490.16626,727.37213)">
      <g
         id="g48054-6-2-8-5-1"
         transform="translate(485.32486,601.81731)"
         style="fill:#000000">
        <path
           d="m 0,0 c -0.189,0.065 -0.109,0.232 -0.109,0.232 l -0.036,0.239 -0.323,0.858 -0.175,0.139 -0.154,0.363 c 0,0 -0.045,0.146 -0.07,0.209 -0.026,0.057 0,0.307 0,0.307 l 0.07,0.262 0.138,0.362 L -0.71,3.093 -0.884,3.3 -1.049,3.248 c 0,0 -0.111,-0.042 -0.163,-0.015 -0.052,0.025 -0.061,0.179 -0.061,0.179 l -0.07,0.287 -0.164,0.034 0.044,0.433 -0.113,0.13 -0.226,0.069 -0.163,0.069 0.155,0.122 c 0,0 0.07,0.042 0.13,0.224 0.061,0.182 0.07,0.355 0.07,0.355 l 0.094,0.181 0.123,0.156 0.267,0.094 0.365,0.055 0.397,-0.035 0.259,-0.087 c 0,0 -0.035,0.059 0.156,-0.104 0.189,-0.164 0.121,-0.191 0.121,-0.191 0,0 0.068,-0.077 0.087,-0.242 0.017,-0.166 0,-0.174 0,-0.174 V 4.617 L 0.438,4.182 0.24,4.199 0.457,3.924 0.795,3.733 1.09,3.647 1.21,3.629 c 0,0 0.217,0.484 0.398,0.467 C 1.791,4.079 2.525,3.43 2.544,3.233 2.56,3.033 2.301,2.756 2.301,2.756 L 2.257,2.609 2.525,2.556 c 0,0 0.416,0.018 0.519,-0.034 0.106,-0.053 0.243,-0.293 0.243,-0.293 0,0 0.147,-0.244 0.156,-0.347 C 3.451,1.778 3.409,1.587 3.409,1.587 L 3.287,1.364 3.236,1.172 c 0,0 0.306,0.052 0.436,0.013 C 3.802,1.146 3.979,1.077 4.013,0.746 4.049,0.41 3.833,0.271 3.833,0.271 L 4.256,0.031 4.342,-0.177 4.377,-0.453 4.393,-0.765 4.324,-1.077 4.187,-1.217 v -0.24 L 4.135,-1.614 3.842,-1.821 3.581,-1.786 3.546,-2.063 3.563,-2.41 3.46,-2.669 v -0.414 l 0.156,-0.14 0.128,-0.199 1.031,0.252 c 0,0 0.27,0.172 0.398,0.207 0.131,0.035 0.329,0.035 0.329,0.035 l 0.26,-0.433 -0.087,-0.313 0.156,-0.225 0.141,-0.293 c 0,0 0.136,-0.234 0.153,-0.379 0.017,-0.147 0,-0.296 0,-0.296 L 6.09,-5.092 5.745,-5.125 5.605,-5.02 c -0.034,0.025 -0.043,0.005 -0.068,0.197 -0.009,0.06 0.003,0.039 0.025,0.128 0.036,0.147 -0.198,0.399 -0.198,0.399 L 5.189,-4.115 5.045,-3.991 3.616,-4.625 3.511,-4.78 3.374,-4.867 2.837,-4.9 2.353,-4.952 2.163,-4.9 l -0.278,0.362 -0.12,0.569 -0.036,0.521 -0.087,0.64 c 0,0 -0.163,0.406 -0.223,0.469 -0.061,0.057 -0.572,0.136 -0.572,0.136 0,0 -0.337,-0.006 -0.449,0.018 -0.114,0.027 -0.642,0.26 -0.642,0.26 h -0.311 l 0.017,-0.19 -0.138,-0.139 0.379,-1.333 -0.067,-0.207 0.052,-0.175 c 0,0 0.068,-0.11 0.086,-0.187 0.017,-0.079 0,-0.278 0,-0.278 v -0.261 l -0.036,-0.294 -0.622,-0.016 -0.017,0.157 -0.225,-0.052 -0.26,-0.12 -0.399,-0.037 -0.397,0.017 -0.19,0.104 c -0.104,0.088 -0.077,0.209 -0.052,0.278 0.025,0.068 0.362,0.068 0.362,0.068 l 0.417,0.019 0.173,0.275 0.26,0.277 0.017,0.225 -0.779,1.506 -0.12,0.173 -0.174,0.227 -0.173,0.466 -0.035,0.413 0.052,0.399 c 0,0 0.147,0.217 0.259,0.26 0.112,0.043 0.313,-0.002 0.363,0.067 0.042,0.057 0.26,0.094 0.26,0.094 l 0.221,0.018 0.862,0.074 0.48,0.016 z"
           style="fill:#000000;fill-opacity:1;fill-rule:nonzero;stroke:none"
           id="path48056-8-8-9-7-2" />
      </g>
      <g
         id="g48082-9-0-2-2-7"
         transform="translate(481.20616,605.18931)"
         style="fill:#000000">
        <path
           d="m 0.31048651,-0.12936938 0.078,-0.765 0.171,-0.081 0.043,-0.16800002 0.245,-0.008 c 0,0 0.71400009,-0.777 0.81400009,-0.955 0.099,-0.177 0.319,-0.484 0.529,-0.555 0.21,-0.069 0.639,-0.27 1.033,-0.059 0.397,0.209 1.028,0.638 1.028,0.638 l -0.65,0.807 c 0,0 -0.289,0.228 -0.351,0.15 -0.061,-0.079 -0.491,-0.867 -1.13,-0.474 -0.64,0.395 -1.12500009,0.95700002 -1.12500009,0.95700002 l 0.075,0.257 -0.091,0.382 z"
           style="fill:#000000;fill-opacity:1;fill-rule:nonzero;stroke:none"
           id="path48084-1-2-5-8-3" />
      </g>
    </g>
    <g
       id="g23327-8-9"
       style="fill:#000000"
       transform="matrix(-0.27644495,0.21915826,-0.21915826,-0.27644495,-49.334902,572.9269)">
      <g
         id="g48054-6-2-8-5-8"
         transform="translate(485.32486,601.81731)"
         style="fill:#000000">
        <path
           d="m 0,0 c -0.189,0.065 -0.109,0.232 -0.109,0.232 l -0.036,0.239 -0.323,0.858 -0.175,0.139 -0.154,0.363 c 0,0 -0.045,0.146 -0.07,0.209 -0.026,0.057 0,0.307 0,0.307 l 0.07,0.262 0.138,0.362 L -0.71,3.093 -0.884,3.3 -1.049,3.248 c 0,0 -0.111,-0.042 -0.163,-0.015 -0.052,0.025 -0.061,0.179 -0.061,0.179 l -0.07,0.287 -0.164,0.034 0.044,0.433 -0.113,0.13 -0.226,0.069 -0.163,0.069 0.155,0.122 c 0,0 0.07,0.042 0.13,0.224 0.061,0.182 0.07,0.355 0.07,0.355 l 0.094,0.181 0.123,0.156 0.267,0.094 0.365,0.055 0.397,-0.035 0.259,-0.087 c 0,0 -0.035,0.059 0.156,-0.104 0.189,-0.164 0.121,-0.191 0.121,-0.191 0,0 0.068,-0.077 0.087,-0.242 0.017,-0.166 0,-0.174 0,-0.174 V 4.617 L 0.438,4.182 0.24,4.199 0.457,3.924 0.795,3.733 1.09,3.647 1.21,3.629 c 0,0 0.217,0.484 0.398,0.467 C 1.791,4.079 2.525,3.43 2.544,3.233 2.56,3.033 2.301,2.756 2.301,2.756 L 2.257,2.609 2.525,2.556 c 0,0 0.416,0.018 0.519,-0.034 0.106,-0.053 0.243,-0.293 0.243,-0.293 0,0 0.147,-0.244 0.156,-0.347 C 3.451,1.778 3.409,1.587 3.409,1.587 L 3.287,1.364 3.236,1.172 c 0,0 0.306,0.052 0.436,0.013 C 3.802,1.146 3.979,1.077 4.013,0.746 4.049,0.41 3.833,0.271 3.833,0.271 L 4.256,0.031 4.342,-0.177 4.377,-0.453 4.393,-0.765 4.324,-1.077 4.187,-1.217 4.1066311,-1.3556231 c 0,0 -0.075282,-0.057241 -0.1285336,-0.10211 l -0.155274,-0.1308327 c 0,0 -0.3548468,-0.150207 -0.5308823,-0.2284829 -0.2283491,-0.1015377 -0.448149,-0.222959 -0.6813482,-0.3127996 -0.1828798,-0.070455 -0.5607976,-0.1765959 -0.5607976,-0.1765959 0,0 -0.3057731,-0.028383 -0.4142312,-0.065218 C 1.52385,-2.4069456 0.97062275,-2.6273046 0.97062275,-2.6273046 L 0.70363583,-2.7868008 0.81567117,-2.9411935 0.76848698,-3.1312951 1.7774775,-4.0812783 1.826119,-4.2933444 1.9605084,-4.4169101 c 0,0 0.1147899,-0.059559 0.1697318,-0.1164307 0.055109,-0.059102 0.1425719,-0.2386572 0.1425719,-0.2386572 L 2.4066659,-4.9960609 2.5265383,-5.2669163 2.0007698,-5.5996437 1.9056584,-5.4735809 1.7391687,-5.6336128 1.577506,-5.8699709 1.2539481,-6.1063611 0.90441352,-6.2953679 l -0.2164473,-0.00816 c -0.13441241,0.02221 -0.1732882,0.1399328 -0.18721277,0.2119891 -0.0134116,0.071198 0.27589575,0.2440277 0.27589575,0.2440277 l 0.3482417,0.2301689 0.00748,0.3248046 0.081146,0.3711393 -0.1007967,0.2018762 -1.44110506,0.8933607 -0.19174027,0.086975 -0.26579195,0.1056392 -0.38750422,0.3113285 -0.2418532,0.3366022 -0.1599855,0.3692013 c 0,0 0.014908,0.2616787 0.089006,0.3560323 0.074097,0.094354 0.20255,0.1662536 0.2772671,0.2436822 0.074717,0.077428 0.22321814,0.1532114 0.22321814,0.1532114 0.11729154,0.1038208 0.22436797,0.2180439 0.34899807,0.3119061 0.19336923,0.1456316 0.61465438,0.386784 0.61465438,0.386784 0,0 0.47685273,0.2074354 0.58788775,0.459097 z"
           style="fill:#000000;fill-opacity:1;fill-rule:nonzero;stroke:none"
           id="path48056-8-8-9-7-0" />
      </g>
      <g
         id="g48082-9-0-2-2-8"
         transform="rotate(27.270623,-1003.629,1293.4861)"
         style="fill:#000000">
        <path
           d="m 0.31048651,-0.12936938 0.078,-0.765 0.171,-0.081 0.043,-0.16800002 0.245,-0.008 c 0,0 0.71400009,-0.777 0.81400009,-0.955 0.099,-0.177 0.319,-0.484 0.529,-0.555 0.21,-0.069 0.639,-0.27 1.033,-0.059 0.397,0.209 1.028,0.638 1.028,0.638 l -0.65,0.807 c 0,0 -0.289,0.228 -0.351,0.15 -0.061,-0.079 -0.491,-0.867 -1.13,-0.474 -0.64,0.395 -1.12500009,0.95700002 -1.12500009,0.95700002 l 0.075,0.257 -0.091,0.382 z"
           style="fill:#000000;fill-opacity:1;fill-rule:nonzero;stroke:none"
           id="path48084-1-2-5-8-1" />
      </g>
    </g>
  </g>
</svg>
