<?xml version="1.0" encoding="UTF-8" standalone="no"?>
<!-- Created with Inkscape (http://www.inkscape.org/) -->

<svg
   width="20.331959mm"
   height="7.9272499mm"
   viewBox="0 0 20.331959 7.9272504"
   version="1.1"
   id="svg33402"
   sodipodi:docname="inkporter-svg-e7qp_36f.svg"
   inkscape:version="1.1.1 (3bf5ae0d25, 2021-09-20)"
   xmlns:inkscape="http://www.inkscape.org/namespaces/inkscape"
   xmlns:sodipodi="http://sodipodi.sourceforge.net/DTD/sodipodi-0.dtd"
   xmlns="http://www.w3.org/2000/svg"
   xmlns:svg="http://www.w3.org/2000/svg">
  <sodipodi:namedview
     id="namedview555"
     pagecolor="#ffffff"
     bordercolor="#666666"
     borderopacity="1.0"
     inkscape:pageshadow="2"
     inkscape:pageopacity="0.0"
     inkscape:pagecheckerboard="0"
     inkscape:document-units="mm"
     showgrid="false"
     inkscape:zoom="0.32"
     inkscape:cx="889.0625"
     inkscape:cy="4120.3125"
     inkscape:window-width="1920"
     inkscape:window-height="1017"
     inkscape:window-x="-8"
     inkscape:window-y="-8"
     inkscape:window-maximized="1"
     inkscape:current-layer="svg33402" />
  <defs
     id="defs13927" />
  <path
     d="M 20.03742,4.71284 20.24626,4.43485 V 3.88416 L 19.50261,2.6699 18.41676,2.6382 V 2.4343 h -2.77389 v 0.12276 l -0.31221,-0.01 V 2.39078 H 14.48258 V 0 h -0.0769 V 2.39078 H 14.17991 V 2.51354 L 12.19483,2.45534 V 2.30541 L 12.0516,2.09128 11.66636,1.77589 H 10.95904 V 0.9511 H 9.8001697 V 0.45227 h -4.19488 l -0.40816,0.49777 H 2.64972 V 0.92144 L 1.67358,0.86214 V 1.22303 L 2.64972,1.16413 V 1.13593 H 5.0436697 L 4.51768,1.77586 H 4.10845 L 3.70099,2.21966 V 2.498 L 1.21462,3.30516 0.25083,4.19839 0.9398,4.94804 H 0.77506 C 0.74896,4.87364 0.67806,4.81998 0.59338,4.81998 H 0.19227 C 0.08608,4.81998 0,4.90568 0,5.03412 0,5.14031 0.0861,5.22674 0.19227,5.22674 h 0.40111 c 0.0847,0 0.15557,-0.054 0.18203,-0.12877 h 0.30127 l 0.80081,0.87242 c -0.002,0.0476 -0.005,0.097 -0.005,0.14605 0,0.99977 0.81069,1.81081 1.81152,1.81081 0.92569,0 1.6897997,-0.69603 1.7966997,-1.5935 h 0.9405 c 0.1076,0.89747 0.87136,1.5935 1.79811,1.5935 0.92639,0 1.69051,-0.69603 1.7981103,-1.5935 h 1.36207 c 0.1076,0.89747 0.87136,1.5935 1.79811,1.5935 0.92604,0 1.69016,-0.69603 1.7974,-1.5935 h 0.91934 c 0.10689,0.89747 0.87101,1.5935 1.79776,1.5935 1.00012,0 1.81081,-0.81104 1.81081,-1.81081 0,-0.19896 -0.0314,-0.38982 -0.091,-0.56832 l 0.38523,-0.51435 h 0.53481 V 4.71239 Z"
     id="G-SdKfz234-1" />
</svg>
