<?xml version="1.0" encoding="UTF-8" standalone="no"?>
<!-- Created with Inkscape (http://www.inkscape.org/) -->

<svg
   width="19.797991mm"
   height="6.68575mm"
   viewBox="0 0 19.797991 6.68575"
   version="1.1"
   id="svg11631"
   sodipodi:docname="inkporter-svg-z1bt_9q6.svg"
   xmlns:inkscape="http://www.inkscape.org/namespaces/inkscape"
   xmlns:sodipodi="http://sodipodi.sourceforge.net/DTD/sodipodi-0.dtd"
   xmlns="http://www.w3.org/2000/svg"
   xmlns:svg="http://www.w3.org/2000/svg">
  <sodipodi:namedview
     id="namedview11633"
     pagecolor="#ffffff"
     bordercolor="#666666"
     borderopacity="1.0"
     inkscape:pageshadow="2"
     inkscape:pageopacity="0.0"
     inkscape:pagecheckerboard="0"
     inkscape:document-units="mm"
     showgrid="false"
     inkscape:zoom="1.8116734"
     inkscape:cx="248.66512"
     inkscape:cy="430.26518"
     inkscape:window-width="1920"
     inkscape:window-height="1017"
     inkscape:window-x="-8"
     inkscape:window-y="-8"
     inkscape:window-maximized="1"
     inkscape:current-layer="layer1" />
  <defs
     id="defs11628" />
  <g
     inkscape:label="Layer 1"
     inkscape:groupmode="layer"
     id="layer1"
     transform="translate(-65.750691,-113.63818)">
    <path
       id="G-SdKfz25110"
       d="m 75.520601,113.63818 -0.0398,0.0515 h -2.02171 v 0.0453 l -1.62564,0.0283 v 0.16182 l 1.62564,0.0283 v 0.082 h 0.11949 v 0.0442 h -0.16366 v 0.17654 h 0.16366 v 0.0883 h 1.39632 l -0.0796,0.10299 0.32731,0.0283 v 0.17198 l -1.68292,-0.0194 -0.1024,0.15805 -0.17462,0.0352 -0.13273,0.18905 -0.032,0.29853 -0.0884,0.13664 -2.04696,0.27179 -0.0341,-0.10667 -0.24117,0.0356 0.008,0.1063 -1.53325,0.20349 -0.0299,-0.0933 -0.24117,0.0352 0.007,0.093 -0.9178,0.12177 -0.0314,-0.0609 -0.3862,0.0356 0.005,0.0802 -0.26444,0.0356 -0.0429,0.0454 v -0.14922 h -0.12081 v -0.0831 h -0.22954 v -0.4116 c 0.0218,-0.0127 0.0366,-0.0356 0.0366,-0.0616 0,-0.0391 -0.0331,-0.0707 -0.0725,-0.0707 -0.0401,0 -0.0725,0.0317 -0.0725,0.0707 0,0.0352 0.0257,0.0641 0.0602,0.0697 v 0.4035 h -0.0602 v 0.34108 l -0.17153,0.39945 -0.56959,1.30747 -0.0679,0.0584 -0.0845,0.0476 -0.0848,-0.0711 0.14466,-0.0708 0.0247,-0.1186 -0.20525,0.1306 -0.0366,0.11794 0.0845,0.11866 0.15732,0.0116 0.0708,-0.0344 0.15953,0.26334 c -0.0274,0.10949 -0.0415,0.22499 -0.0415,0.34328 0,0.80765 0.66856,1.46287 1.49276,1.46287 0.72069,0 1.32271,-0.50101 1.46213,-1.16678 l 0.48589,-0.0145 0.27989,-0.18449 0.57982,-0.03 0.007,0.0384 -0.13199,0.16299 0.0841,0.10174 0.144,-0.0687 0.19008,0.2609 -0.0891,0.15033 0.0972,0.0891 0.16262,-0.10741 0.21799,0.11021 0.008,0.17852 0.13164,0.0229 0.0612,-0.1412 0.27674,0.0539 0.0137,0.16403 0.13237,0.018 0.0584,-0.1482 0.27497,0.0398 0.0127,0.15636 0.13236,0.0182 0.0571,-0.14503 0.27673,0.0415 0.0127,0.15107 0.132,0.0183 0.0546,-0.13907 0.27952,0.0423 0.0119,0.14399 0.13207,0.0186 0.0546,-0.13943 0.2785,0.0271 0.013,0.1599 0.13236,0.0182 0.0655,-0.16653 0.25348,0.003 0.0331,0.14606 h 0.13347 l 0.0345,-0.144 0.28307,0.003 0.0324,0.14113 h 0.13376 l 0.0324,-0.13907 0.28549,0.003 0.0314,0.1359 h 0.13376 l 0.0314,-0.13414 0.28763,0.004 0.0303,0.1306 h 0.1337 l 0.0303,-0.1292 0.29013,0.003 0.0285,0.12604 h 0.13414 l 0.0292,-0.1239 0.29257,0.003 0.0272,0.12111 h 0.13413 l 0.0281,-0.11897 0.29432,0.003 0.0268,0.11617 h 0.13339 l 0.0272,-0.11403 0.29712,0.003 0.0253,0.11087 h 0.13347 l 0.0257,-0.10873 0.28763,0.002 0.0243,0.1063 h 0.13347 l 0.0246,-0.10454 0.30176,0.003 0.0232,0.10137 h 0.13347 l 0.0233,-0.0996 0.30448,0.004 0.0219,0.0961 h 0.13376 l 0.0222,-0.094 0.30567,0.003 0.0211,0.0911 h 0.13383 l 0.0225,-0.094 0.30205,-0.0134 0.025,0.10734 h 0.1334 l 0.0275,-0.11478 0.29293,-0.013 0.0292,0.1278 h 0.13347 l 0.0324,-0.1362 0.28585,-0.012 0.031,0.13516 h 0.13451 l 0.0359,-0.15378 0.29646,-0.0303 0.0546,0.13413 0.13207,-0.02 0.0112,-0.15879 0.22954,-0.10425 0.17286,0.10351 0.0926,-0.094 -0.0919,-0.1387 0.21967,-0.20135 0.16793,0.0366 0.0574,-0.11867 -0.1222,-0.0936 0.0947,-0.25523 0.16859,-0.0401 -0.002,-0.13097 -0.1602,-0.0335 -0.013,-0.20061 0.68863,-0.0764 v 0.0841 h 0.37781 c 0.0233,0.0292 0.0595,0.0479 0.0996,0.0479 0.0701,0 0.12707,-0.056 0.12707,-0.12463 0,-0.0683 -0.057,-0.12391 -0.12707,-0.12391 h 0.21121 v 0.0472 h 0.0606 v -0.0553 l 0.36227,0.13833 h 0.19296 v -0.4144 h -0.22954 l -0.32569,0.0711 v -0.0475 h -0.0606 v 0.0595 h -0.15982 l 0.28976,-0.45135 0.0753,-0.0222 1.61777,-2.53248 -0.0239,-0.0429 0.0898,-0.14046 -0.37075,-0.34859 -0.11374,-10e-4 v -0.61545 h 0.068 v -0.12567 h -0.31089 v 0.12567 h 0.0458 v 0.0849 l -1.19946,-0.16196 -0.03,-0.004 -0.22498,-0.0307 v -0.16049 l 0.0239,-0.009 -0.0176,-0.0444 -0.094,0.0366 h -0.0493 v 0.0193 l -0.12221,0.0483 0.0183,0.0439 0.10388,-0.0408 v 0.19714 h 0.13693 v -0.0422 l 0.2422,0.033 1.2122,0.49965 v 0.14466 l -8.90238,-0.10292 v -0.11617 l 0.20223,0.0175 0.0473,-0.16918 h 1.20881 v -0.4928 h -1.07115 l 0.002,-0.007 h 0.49531 v -0.23544 h -0.88269 v 0.0368 h -0.009 z m 8.32005,0.50171 1.02735,0.1387 v 0.28483 z m -2.28916,4.87442 c 0.0249,-3.3e-4 0.0501,0.006 0.0725,0.0204 0.0595,0.038 0.0764,0.1162 0.038,0.17499 -0.0394,0.0588 -0.11902,0.0753 -0.17852,0.0373 -0.0598,-0.038 -0.0771,-0.11656 -0.038,-0.17535 0.0242,-0.0365 0.0645,-0.0566 0.10594,-0.0573 z m -0.36647,0.19612 c 0.0711,0 0.1292,0.0566 0.1292,0.12669 0,0.0697 -0.0581,0.12604 -0.1292,0.12604 -0.0715,0 -0.1292,-0.0563 -0.1292,-0.12604 0,-0.07 0.0577,-0.12669 0.1292,-0.12669 z m -8.89473,0.083 0.43553,0.001 c 0.063,0.21265 0.20031,0.39432 0.38303,0.51614 l -0.0112,0.0257 -0.26827,-0.0406 c -0.0141,-0.0655 -0.0427,-0.16367 -0.0919,-0.17072 -0.0447,-0.006 -0.0883,0.0753 -0.1158,0.13944 l -0.27217,-0.0412 c -0.0145,-0.0651 -0.0429,-0.15767 -0.0905,-0.16365 -0.0437,-0.006 -0.0859,0.0704 -0.11374,0.13376 l -0.27526,-0.0395 c -0.005,-0.0229 -0.0116,-0.0489 -0.0204,-0.0729 0.17357,-0.0539 0.3257,-0.15526 0.44083,-0.28799 z m 0.85589,0.003 0.23904,7e-4 c -0.0105,0.0246 -0.0296,0.0468 -0.0549,0.0613 -0.0616,0.0349 -0.14048,0.0145 -0.17639,-0.0461 -0.003,-0.005 -0.005,-0.0105 -0.008,-0.0158 z m 0.74391,0.002 0.0405,7.1e-4 c 0.008,0.0281 0.0183,0.056 0.0289,0.0827 -0.005,-0.002 -0.01,-0.005 -0.0148,-0.008 -0.0281,-0.0183 -0.0468,-0.0454 -0.0546,-0.0757 z m 1.87794,0.006 0.0303,3.3e-4 c -0.0105,0.0204 -0.0267,0.0384 -0.0478,0.0518 0.006,-0.0169 0.0119,-0.0344 0.0176,-0.052 z m 0.5408,0.002 h 0.0461 c 0.008,0.0271 0.0176,0.0528 0.0282,0.0782 -0.008,-0.003 -0.0148,-0.006 -0.0211,-0.0106 -0.0264,-0.0169 -0.0444,-0.0405 -0.0532,-0.0676 z m 2.3976,0.008 0.0303,3.3e-4 c 0.006,0.0204 0.0134,0.0408 0.0193,0.0595 -0.0232,-0.0148 -0.0401,-0.0356 -0.0496,-0.0599 z m 1.26042,0.004 v 5e-5 l 0.20032,0.001 c 0.004,0.003 0.008,0.007 0.0119,0.0102 0.0623,0.0616 0.0623,0.16019 0,0.22145 -0.062,0.0609 -0.16294,0.0609 -0.2249,0 -0.0623,-0.0613 -0.0623,-0.15983 0,-0.22145 0.004,-0.004 0.008,-0.008 0.0127,-0.0112 z m -4.81427,0.0113 c 0.0324,0.0961 0.0807,0.18487 0.14157,0.26444 -0.0504,0.009 -0.10319,-0.006 -0.14157,-0.043 -0.062,-0.0613 -0.062,-0.15983 0,-0.22144 z m 1.81918,0.003 c 0.0595,0.0616 0.0592,0.15844 -0.002,0.21865 -0.0377,0.0366 -0.0888,0.0511 -0.13737,0.044 0.0598,-0.0792 0.10741,-0.16761 0.1398,-0.26267 z m -2.4177,0.005 c 0.0556,0.0613 0.0532,0.15522 -0.006,0.21401 -0.0366,0.0352 -0.0858,0.05 -0.13302,0.0444 0.0595,-0.0774 0.10696,-0.16474 0.13936,-0.2584 z m -0.90764,0.001 c 0.0711,0 0.12927,0.0567 0.12927,0.1264 0,0.0694 -0.0582,0.1267 -0.12927,0.1267 -0.0711,0 -0.1292,-0.0573 -0.1292,-0.1267 0,-0.0697 0.0581,-0.1264 0.1292,-0.1264 z m 2.41667,0 c 0.0715,0 0.1292,0.0567 0.1292,0.1264 0,0.0694 -0.0577,0.1267 -0.1292,0.1267 -0.0715,0 -0.12891,-0.0573 -0.12891,-0.1267 0,-0.0697 0.0574,-0.1264 0.12891,-0.1264 z m 2.39473,0 c 0.0711,0 0.12928,0.0567 0.12928,0.1264 0,0.0694 -0.0582,0.1267 -0.12928,0.1267 -0.0715,0 -0.12949,-0.0573 -0.12949,-0.1267 0,-0.0697 0.058,-0.1264 0.12949,-0.1264 z m 0.90419,0.007 c 0.0489,0.0613 0.044,0.14958 -0.0134,0.20591 -0.0338,0.0331 -0.0789,0.0482 -0.12324,0.0454 0.0577,-0.076 0.10425,-0.16014 0.13664,-0.25133 z m -1.80616,0.007 c 0.0324,0.088 0.0778,0.17006 0.13487,0.24435 -0.0423,7e-4 -0.0842,-0.0148 -0.11654,-0.0458 -0.0549,-0.0539 -0.0609,-0.13799 -0.0183,-0.19855 z m -2.70599,0.10034 c 0.0884,0 0.15982,0.0697 0.15982,0.1563 0,0.0859 -0.0714,0.15599 -0.15982,0.15599 -0.088,0 -0.15916,-0.0701 -0.15916,-0.15599 0,-0.0866 0.0711,-0.1563 0.15916,-0.1563 z m 2.42219,0 c 0.0884,0 0.15953,0.0697 0.15953,0.1563 0,0.0859 -0.0712,0.15599 -0.15953,0.15599 -0.0884,0 -0.15946,-0.0701 -0.15946,-0.15599 0,-0.0866 0.0711,-0.1563 0.15946,-0.1563 z m 2.37898,0 c 0.0884,0 0.15946,0.0697 0.15946,0.1563 0,0.0859 -0.0711,0.15599 -0.15946,0.15599 -0.0873,0 -0.15879,-0.0701 -0.15879,-0.15599 0,-0.0866 0.0715,-0.1563 0.15879,-0.1563 z m 0.81577,0.0753 c 0.0944,0.10492 0.21229,0.18912 0.34608,0.24404 -0.0208,0.0349 -0.037,0.0859 -0.0468,0.12604 l -0.26687,0.0119 c -0.0226,-0.063 -0.0662,-0.16476 -0.11794,-0.16476 -0.05,0 -0.0835,0.10529 -0.0997,0.17359 l -0.2584,0.0117 -0.009,-0.0274 c 0.18801,-0.0753 0.34678,-0.20742 0.45275,-0.37501 z m -5.01033,0.23242 c 0.0155,0.0127 0.0317,0.0249 0.0486,0.0366 -0.019,0.0349 -0.0325,0.0813 -0.0416,0.11868 l -0.26613,-0.006 c 0.0947,-0.0363 0.18238,-0.0866 0.25913,-0.14893 z m 1.2111,0.002 c 0.0743,0.0591 0.15739,0.1077 0.24787,0.14326 l -0.006,0.025 -0.25634,-0.003 c -0.0102,-0.0307 -0.0278,-0.0789 -0.0507,-0.11793 0.0225,-0.0148 0.044,-0.031 0.0652,-0.0479 z m -2.41939,0.002 c 0.0736,0.0581 0.15628,0.106 0.245,0.1412 l -0.26437,-0.003 c -0.0102,-0.0289 -0.025,-0.0637 -0.0422,-0.0936 0.0215,-0.0141 0.0419,-0.0289 0.0616,-0.0448 z m 4.8061,0.004 c 0.0785,0.0616 0.16688,0.11089 0.26194,0.14539 -0.004,0.0158 -0.006,0.0303 -0.009,0.0415 l -0.24331,-0.002 c -0.006,-0.0204 -0.0285,-0.0937 -0.0609,-0.14686 0.0176,-0.0123 0.0348,-0.025 0.0514,-0.038 z m -1.18894,0.004 c 0.0127,0.0102 0.0267,0.0201 0.0408,0.0296 -0.0218,0.043 -0.0366,0.10173 -0.0451,0.1387 l -0.23867,-0.002 -0.009,-0.0264 c 0.0912,-0.0341 0.17602,-0.0816 0.25207,-0.13973 z m 3.0838,0.0454 c 0.0746,0.0187 0.15455,0.0285 0.23588,0.0285 0.019,0 0.038,-7.1e-4 0.0556,0.006 l -0.26473,0.0268 c -0.008,-0.02 -0.0169,-0.0412 -0.0267,-0.0616 z m -5.27513,0.075 c 0.0218,0.009 0.0444,0.0187 0.0676,0.0261 l -0.0584,-3.4e-4 z m 3.16442,0.004 c -0.006,0.0204 -0.01,0.0397 -0.013,0.0542 l -0.15136,-0.001 c 0.057,-0.013 0.11158,-0.0306 0.16439,-0.0528 z m -0.75937,3.3e-4 c 0.0458,0.0193 0.0932,0.0355 0.14289,0.0475 l -0.12707,-0.001 c -0.004,-0.0109 -0.009,-0.0274 -0.0158,-0.046 z m -1.64523,0.004 v 5e-5 l -0.006,0.0253 -0.0613,-3.4e-4 c 0.0229,-0.008 0.0455,-0.0154 0.0677,-0.025 z"
       style="stroke-width:0.352778" />
  </g>
</svg>
