<?xml version="1.0" encoding="UTF-8" standalone="no"?>
<!-- Created with Inkscape (http://www.inkscape.org/) -->

<svg
   width="18.164923mm"
   height="7.8743801mm"
   viewBox="0 0 18.164923 7.8743801"
   version="1.1"
   id="svg11631"
   sodipodi:docname="inkporter-svg-8dpsaa79.svg"
   xmlns:inkscape="http://www.inkscape.org/namespaces/inkscape"
   xmlns:sodipodi="http://sodipodi.sourceforge.net/DTD/sodipodi-0.dtd"
   xmlns="http://www.w3.org/2000/svg"
   xmlns:svg="http://www.w3.org/2000/svg">
  <sodipodi:namedview
     id="namedview11633"
     pagecolor="#ffffff"
     bordercolor="#666666"
     borderopacity="1.0"
     inkscape:pageshadow="2"
     inkscape:pageopacity="0.0"
     inkscape:pagecheckerboard="0"
     inkscape:document-units="mm"
     showgrid="false"
     inkscape:zoom="1.2810466"
     inkscape:cx="79.622398"
     inkscape:cy="445.339"
     inkscape:window-width="1920"
     inkscape:window-height="1017"
     inkscape:window-x="-8"
     inkscape:window-y="-8"
     inkscape:window-maximized="1"
     inkscape:current-layer="layer1" />
  <defs
     id="defs11628" />
  <g
     inkscape:label="Layer 1"
     inkscape:groupmode="layer"
     id="layer1"
     transform="translate(14.721812,-53.015332)">
    <path
       d="m -9.5747416,56.12826 0.1012472,0.09102 0.6586361,-0.01305 0.053269,-0.09807 -0.067028,-0.134761 -0.064205,0.01058 c 0,0 -0.04445,0.01023 -0.062795,-0.0028 -0.017639,-0.01199 -0.013053,-0.07091 -0.013053,-0.07091 l -0.010231,-0.11042 -0.060325,-0.02222 0.039158,-0.160514 -0.034925,-0.05468 -0.081139,-0.03775 -0.058914,-0.03457 0.064911,-0.03704 c 0,0 0.028575,-0.01305 0.061383,-0.07761 0.0254,-0.05151 0.038453,-0.102659 0.042333,-0.121709 l -0.4801305,0.0127 -0.1160639,0.0095 -0.058208,0.0194 -0.058208,0.04798 -0.3566583,0.594783 -0.05821,0.140053 0.03845,0.08678 0.07726,0.02857 0.1015998,0.03457 0.2353028,-0.0049 z m 0.6307666,-0.9525 0.1442861,-0.06667 -0.1054805,0.02152 z m 0.523875,0.0127 c 0.1157111,0.119239 0.088194,0.125236 0.088194,0.125236 0,0 0.022578,0.03316 0.019756,0.0956 -0.00176,0.06315 -0.00882,0.06526 -0.00882,0.06526 l -0.00882,0.06456 0.045156,0.172509 -0.074083,-0.01729 0.067028,0.115711 0.1171222,0.08925 0.1051278,0.04762 0.090664,0.04798 0.08643,-0.661458 -0.047978,-0.09631 -0.1065389,-0.0095 -0.3199695,0.0081 C -8.429625,55.164119 -8.4201,55.18846 -8.4201,55.18846 m -5.557661,1.034697 h 0.309739 v 0.0949 l 0.521053,-0.05574 2.693458,-0.155222 0.5468055,-1.04387 0.1305278,-0.115711 0.2314222,-0.09631 0.1742722,-0.05786 0.5221111,-0.116064 0.4631972,-0.0388 0.4064,0.0194 0.2748139,0.0194 0.1552222,0.02928 0.014111,-1.324681 0.1354667,-0.134408 0.1735666,-0.05786 h 0.2896306 l 0.638175,0.192264 h 0.5210527 l 0.6385278,0.03951 0.3478389,-0.03951 0.3866444,-0.05785 0.4064,-0.115711 0.2120194,-0.05786 0.1351139,0.0194 0.4060472,0.173919 0.676275,0.09631 0.7344833,-0.05821 0.638175,-0.09595 0.48330557,-0.174272 0.28963055,-0.05821 h 0.15486944 l 0.67592221,0.17392 0.63817503,0.09666 0.6565194,0.01975 0.5221111,-0.09631 0.7154333,-0.135819 0.212725,-0.09631 0.1929694,0.347839 0.096661,0.270228 -0.038453,3.836105 -0.3287889,-0.0095 -0.077258,0.482953 -0.1548695,0.01905 v -0.231422 l -0.5214055,0.01905 v 1.739547 l -2.72979441,0.01623 c -0.0112889,0.753533 -0.62653329,1.360664 -1.38218329,1.360664 -0.75565,0 -1.368425,-0.605014 -1.3821833,-1.357842 h -3.8794972 l -3.0441195,-0.01482 -0.255764,0.02434 -0.08714,-0.08678 h -0.3937 l 0.0021,0.07726 c 0,0.763411 -0.618067,1.381478 -1.382183,1.381478 -0.762706,0 -1.381478,-0.618067 -1.381478,-1.381478 l 0.0028,-0.07726 h -1.131005 v -0.521759 h 0.125236 l 0.0194,-0.385938 0.07796,-1.566334 0.0381,-0.231422 0.07761,-0.192969 0.193322,-0.135467 0.154164,-0.03881 0.05821,-0.0056 z"
       id="G-Softskin"
       style="stroke-width:0.352778" />
  </g>
</svg>
