<?xml version="1.0" encoding="UTF-8" standalone="no"?>
<!-- Created with Inkscape (http://www.inkscape.org/) -->

<svg
   width="20.364639mm"
   height="10.712646mm"
   viewBox="0 0 20.364639 10.712646"
   version="1.1"
   id="svg2397"
   sodipodi:docname="inkporter-svg-toe_kl40.svg"
   xmlns:inkscape="http://www.inkscape.org/namespaces/inkscape"
   xmlns:sodipodi="http://sodipodi.sourceforge.net/DTD/sodipodi-0.dtd"
   xmlns="http://www.w3.org/2000/svg"
   xmlns:svg="http://www.w3.org/2000/svg">
  <sodipodi:namedview
     id="namedview2399"
     pagecolor="#ffffff"
     bordercolor="#666666"
     borderopacity="1.0"
     inkscape:pageshadow="2"
     inkscape:pageopacity="0.0"
     inkscape:pagecheckerboard="0"
     inkscape:document-units="mm"
     showgrid="false"
     inkscape:zoom="0.46929649"
     inkscape:cx="443.21661"
     inkscape:cy="416.58099"
     inkscape:window-width="1920"
     inkscape:window-height="1017"
     inkscape:window-x="-8"
     inkscape:window-y="-8"
     inkscape:window-maximized="1"
     inkscape:current-layer="layer1" />
  <defs
     id="defs2394" />
  <g
     inkscape:label="Layer 1"
     inkscape:groupmode="layer"
     id="layer1"
     transform="translate(-113.85085,-222.41369)">
    <path
       d="m 129.61729,233.0876 c -0.009,-0.0218 -0.01,-0.0454 -0.003,-0.0523 0.007,-0.008 0.0201,0.0108 0.0279,0.0396 0.0168,0.0612 -0.002,0.0707 -0.0254,0.0127 z m -11.21985,-0.13156 c -0.01,-0.009 -0.0181,-0.0442 -0.0181,-0.077 0,-0.0361 -0.0162,-0.06 -0.0406,-0.06 -0.0224,0 -0.0406,0.0116 -0.0406,0.0257 0,0.0362 -0.10171,0.032 -0.11463,-0.005 -0.0159,-0.0449 -0.1051,-0.004 -0.12165,0.0561 -0.0214,0.0772 -0.11631,0.0667 -0.11631,-0.0129 0,-0.0462 -0.0146,-0.0642 -0.052,-0.0642 -0.0286,0 -0.0576,0.0144 -0.0643,0.032 -0.01,0.0256 -0.0239,0.0257 -0.0689,2.7e-4 -0.0688,-0.0384 -0.13243,-0.0192 -0.15458,0.0469 -0.0259,0.0772 -0.11608,0.0619 -0.12624,-0.0217 -0.008,-0.0626 -0.0187,-0.0698 -0.0974,-0.0639 -0.0591,0.005 -0.0942,-0.007 -0.10461,-0.032 -0.009,-0.0213 -0.0308,-0.0388 -0.0493,-0.0388 -0.0471,0 -0.12774,0.0897 -0.10307,0.11468 0.0112,0.0113 -0.007,0.008 -0.0405,-0.01 -0.0594,-0.0294 -0.0728,-0.0562 -0.0625,-0.12694 0.003,-0.0253 -0.0164,-0.0301 -0.0748,-0.018 -0.0502,0.0104 -0.0938,0.004 -0.11769,-0.0169 -0.063,-0.0556 -0.10425,-0.0501 -0.13146,0.0178 -0.0142,0.0354 -0.0368,0.0643 -0.0503,0.0643 -0.036,0 -0.0878,-0.0662 -0.067,-0.0858 0.01,-0.01 0.005,-0.0169 -0.01,-0.0169 -0.0152,0 -0.06,-0.0283 -0.0994,-0.063 -0.0636,-0.056 -0.087,-0.0495 -0.0743,0.0199 0.002,0.0116 -0.008,0.0141 -0.0228,0.005 -0.0147,-0.009 -0.0197,-0.0326 -0.0113,-0.0533 0.01,-0.0236 -0.002,-0.0377 -0.0283,-0.0377 -0.0389,0 -0.0555,0.029 -0.0472,0.0825 0.007,0.0428 -0.11939,-0.0286 -0.1282,-0.0726 -0.0138,-0.0693 -0.0564,-0.11167 -0.10824,-0.10783 -0.0895,0.007 -0.14259,-0.005 -0.12732,-0.0287 0.009,-0.0132 0.003,-0.0313 -0.0126,-0.0405 -0.0155,-0.01 -0.0261,-0.007 -0.0233,0.005 0.003,0.0116 -0.004,0.0411 -0.0156,0.0656 -0.03,0.0648 -0.12365,0.0109 -0.12365,-0.0711 0,-0.0348 -0.0154,-0.065 -0.0338,-0.0671 -0.0187,-0.002 -0.0523,-0.006 -0.0747,-0.01 -0.0224,-0.003 -0.0651,-0.008 -0.0949,-0.01 -0.0406,-0.003 -0.0452,-0.01 -0.0181,-0.0259 0.0275,-0.0165 0.0226,-0.025 -0.0204,-0.0357 -0.0311,-0.008 -0.0506,-0.005 -0.0433,0.007 0.0217,0.0333 -0.0631,0.0846 -0.11089,0.0673 -0.0283,-0.0102 -0.0389,-0.0346 -0.0299,-0.0675 0.0181,-0.0656 -0.0567,-0.14317 -0.0992,-0.10293 -0.0214,0.0202 -0.043,0.0118 -0.0781,-0.0304 l -0.0485,-0.0585 -0.0502,0.0562 c -0.0634,0.0713 -0.1119,0.0335 -0.1119,-0.087 0,-0.0812 -0.0192,-0.0971 -0.10381,-0.0862 -0.0198,0.003 -0.0421,-0.0178 -0.0498,-0.0451 -0.0143,-0.0521 -0.13192,-0.071 -0.16126,-0.026 -0.0343,0.0525 -0.0888,-0.0358 -0.0768,-0.12432 0.01,-0.0741 0.002,-0.0927 -0.0421,-0.10375 -0.0299,-0.008 -0.0544,-0.0313 -0.0544,-0.0534 0,-0.0686 -0.0823,-0.1352 -0.13433,-0.10881 -0.0335,0.017 -0.0587,0.01 -0.0918,-0.0272 -0.038,-0.0421 -0.0393,-0.0529 -0.007,-0.0645 0.0381,-0.014 0.0331,-0.16134 -0.006,-0.19012 -0.0331,-0.024 -0.0335,-0.0814 -5.8e-4,-0.062 0.0228,0.0133 0.027,6.6e-4 0.0147,-0.043 -0.01,-0.034 -0.0176,-0.0705 -0.0179,-0.081 -2.2e-4,-0.0105 -0.0309,-0.0193 -0.0681,-0.0193 -0.0754,0 -0.0741,0.005 -0.0681,-0.29794 0.003,-0.17878 0.002,-0.183 -0.0759,-0.21356 -0.12713,-0.0499 -0.14077,-0.1133 -0.14077,-0.65417 0,-0.51774 0.0208,-0.64387 0.11076,-0.67089 0.0286,-0.009 0.052,-0.0263 0.052,-0.0395 0,-0.0132 0.009,-0.0226 0.0204,-0.021 0.0514,0.008 0.12265,-0.005 0.10787,-0.0186 -0.009,-0.009 0.0136,-0.044 0.0502,-0.0787 0.0366,-0.0347 0.0584,-0.0757 0.0484,-0.0911 -0.0106,-0.0163 -0.005,-0.0206 0.0116,-0.0105 0.0165,0.01 0.0427,-0.005 0.0584,-0.0329 0.0409,-0.0724 0.0359,-0.0822 -0.0331,-0.0657 -0.1213,0.0288 -0.24257,-0.21637 -0.17917,-0.36227 0.018,-0.0412 0.0296,-0.0866 0.026,-0.10074 -0.003,-0.0142 0.002,-0.0177 0.0125,-0.008 0.0105,0.01 0.0337,0.004 0.0516,-0.0128 0.0222,-0.021 0.0969,-0.0268 0.23408,-0.018 l 0.20153,0.0128 v 0.23108 c 0,0.22011 -0.003,0.23149 -0.0611,0.23929 -0.081,0.0109 -0.0772,0.0409 0.0102,0.0786 0.0626,0.027 0.11093,0.0163 0.39936,-0.0881 0.18044,-0.0653 0.36501,-0.13737 0.41014,-0.16007 0.0451,-0.0227 0.0942,-0.0418 0.10917,-0.0426 0.0922,-0.005 0.32994,-0.11664 0.42755,-0.20152 0.0632,-0.0549 0.1852,-0.15843 0.27114,-0.22997 0.14207,-0.11828 0.15253,-0.13397 0.11527,-0.17295 -0.052,-0.0544 -0.0522,-0.0935 -2.9e-4,-0.1123 0.0269,-0.01 0.0406,-0.05 0.0406,-0.11829 v -0.10351 h -0.43395 c -0.27123,0 -0.43395,-0.01 -0.43395,-0.0256 0,-0.0142 -0.0666,-0.0257 -0.14823,-0.0257 -0.11944,0 -0.15373,0.01 -0.17666,0.0503 -0.0156,0.0277 -0.0268,0.0595 -0.0249,0.0706 0.0161,0.0914 -0.005,0.11307 -0.10384,0.1053 -0.0952,-0.008 -0.1023,-0.0142 -0.12365,-0.11709 -0.0194,-0.0929 -0.0325,-0.10914 -0.0892,-0.10914 h -0.0665 l 0.007,-0.80239 0.007,-0.80239 0.061,-0.009 c 0.0478,-0.007 0.0647,-0.03 0.078,-0.10839 0.0181,-0.10676 0.0745,-0.14409 0.17297,-0.11449 0.0342,0.0103 0.0543,0.0388 0.0543,0.0772 0,0.0335 0.0124,0.0682 0.0276,0.077 0.0152,0.009 0.0206,0.0269 0.0119,0.04 -0.018,0.0275 0.26682,0.0334 0.2955,0.006 0.0102,-0.01 0.21546,-0.0156 0.45608,-0.0131 l 0.4375,0.005 0.0993,-0.16019 c 0.0664,-0.10711 0.0898,-0.16737 0.0705,-0.18186 -0.0173,-0.0129 -0.01,-0.0159 0.019,-0.008 0.0263,0.009 0.0773,0.004 0.11338,-0.01 0.0503,-0.0181 0.0811,-0.0122 0.13175,0.0255 0.0364,0.027 0.0745,0.0412 0.0847,0.0315 0.0102,-0.01 0.0105,0.002 6e-4,0.0265 -0.0123,0.0304 -0.004,0.0442 0.0257,0.0442 0.024,0 0.0436,0.016 0.0436,0.0354 0,0.0444 0.16,0.16187 0.24937,0.1831 0.0544,0.0129 0.0804,-6.6e-4 0.13932,-0.074 0.0398,-0.0495 0.0731,-0.0993 0.0741,-0.11081 0.003,-0.0412 0.3429,-0.28878 0.51522,-0.37533 0.19852,-0.0997 0.54098,-0.20177 0.8325,-0.24812 0.10814,-0.0172 0.19849,-0.0447 0.20076,-0.0611 0.002,-0.0164 0.005,-0.0471 0.007,-0.0682 0.002,-0.0212 0.0149,-0.0395 0.0297,-0.0407 0.0149,-0.002 0.059,-0.0146 0.0978,-0.0301 0.0388,-0.0153 0.32802,-0.0363 0.64245,-0.0464 l 0.57173,-0.0185 0.0278,-0.0669 c 0.0154,-0.0368 0.0314,-0.0843 0.0356,-0.10547 0.004,-0.0212 0.016,-0.0445 0.0261,-0.0517 0.01,-0.008 0.048,-0.0882 0.0841,-0.17973 l 0.0658,-0.16658 0.52766,-0.007 0.52765,-0.007 0.0488,0.0967 c 0.0268,0.0533 0.0783,0.17096 0.11432,0.26169 0.036,0.0907 0.0783,0.17948 0.0938,0.19723 0.0209,0.0237 0.17286,0.033 0.57914,0.0349 l 0.55085,0.003 -0.003,-0.10171 c -0.002,-0.087 -0.009,-0.0973 -0.044,-0.0714 -0.0359,0.0264 -0.0365,0.0246 -0.004,-0.0144 0.0204,-0.0246 0.047,-0.0388 0.0591,-0.0317 0.0122,0.008 0.0293,0.002 0.038,-0.0113 0.009,-0.0133 -0.008,-0.0314 -0.0363,-0.0399 -0.10154,-0.0305 -0.26969,-0.23527 -0.31536,-0.38405 -0.0379,-0.12362 -0.0391,-0.16337 -0.009,-0.29083 0.0194,-0.0811 0.0338,-0.16197 0.0321,-0.17947 -0.002,-0.0175 0.007,-0.0258 0.0197,-0.0185 0.0285,0.0166 0.0763,-0.0677 0.061,-0.10777 -0.006,-0.0163 0.002,-0.0371 0.0169,-0.0462 0.0174,-0.0102 0.0222,0.002 0.0127,0.0297 -0.0118,0.0351 -0.002,0.0317 0.0409,-0.0144 0.0311,-0.0333 0.0565,-0.0515 0.0565,-0.0405 0,0.0111 0.0315,-0.008 0.07,-0.0421 0.0385,-0.0342 0.072,-0.0582 0.0746,-0.0535 0.003,0.005 0.0504,5.6e-4 0.1063,-0.01 0.0968,-0.0172 0.10171,-0.0229 0.10171,-0.11791 0,-0.0716 -0.0115,-0.0998 -0.0406,-0.0998 -0.0284,0 -0.0406,-0.0271 -0.0406,-0.0899 0,-0.0699 0.011,-0.0899 0.0496,-0.0899 0.0272,0 0.0776,-0.0283 0.1119,-0.0629 0.0922,-0.0929 0.19925,-0.10653 0.3133,-0.0398 0.0522,0.0306 0.0948,0.0661 0.0948,0.0791 0,0.0129 0.0236,0.0236 0.0527,0.0236 0.0412,0 0.0544,-0.0209 0.0611,-0.0963 0.008,-0.0914 0.0136,-0.0967 0.1122,-0.10437 0.0853,-0.007 0.10634,0.002 0.1181,0.0438 0.0154,0.0552 0.011,0.0552 0.29343,6.6e-4 0.0747,-0.0143 0.15393,-0.0264 0.1763,-0.027 0.0224,-5.5e-4 0.14442,-0.0167 0.27122,-0.036 0.54335,-0.0828 2.00697,-0.29458 2.0357,-0.29458 0.0173,0 0.0243,-0.0173 0.0159,-0.0385 -0.0133,-0.0326 0.0241,-0.0385 0.24118,-0.0385 0.25586,0 0.25682,2e-4 0.25682,0.0642 0,0.0352 0.0122,0.0642 0.0271,0.0642 0.016,0 0.0271,0.0899 0.0271,0.21825 0,0.12838 0.0112,0.21825 0.0271,0.21825 0.0149,0 0.0271,0.0455 0.0271,0.10119 0,0.0557 -0.0123,0.10833 -0.0271,0.11706 -0.0169,0.01 -0.0271,0.26131 -0.0271,0.6691 v 0.65324 h 0.13561 c 0.12657,0 0.13561,0.004 0.13561,0.0642 0,0.0599 -0.009,0.0642 -0.13656,0.0642 -0.13076,0 -0.13525,0.002 -0.10579,0.0545 0.0216,0.0383 0.0219,0.0493 7e-4,0.0371 -0.0395,-0.0231 -0.0385,0.0442 0.002,0.0818 0.0374,0.0354 0.0323,0.45151 -0.005,0.46435 -0.0148,0.005 -0.0254,0.28492 -0.0254,0.67699 0,0.63066 0.003,0.66776 0.0488,0.65638 0.0395,-0.01 0.0477,0.002 0.0433,0.0631 -0.003,0.0413 -0.0128,0.0821 -0.0218,0.0905 -0.009,0.009 -0.0895,0.0125 -0.17886,0.01 -0.15613,-0.006 -0.16254,-0.004 -0.16254,0.0565 0,0.11204 0.0332,0.22327 0.0665,0.22327 0.0588,0 0.1502,0.11299 0.12392,0.15323 -0.0132,0.0203 -0.0168,0.049 -0.008,0.0637 0.009,0.0148 0.006,0.0183 -0.006,0.008 -0.041,-0.0352 -0.0953,0.0751 -0.0778,0.158 l 0.0168,0.0793 h 0.33564 c 0.33118,0 0.33563,-6.5e-4 0.33563,-0.0585 0,-0.0707 0.0637,-0.16188 0.14017,-0.2006 0.0342,-0.0173 0.20488,-0.0272 0.43934,-0.0253 0.43648,0.003 0.49995,0.0258 0.54407,0.19051 0.0246,0.0917 0.0281,0.0939 0.15596,0.0939 0.14078,0 0.1412,-5.5e-4 0.14029,-0.21172 -1.1e-4,-0.0247 0.005,-0.0394 0.0123,-0.033 0.007,0.007 0.0431,-0.0108 0.0804,-0.0386 0.057,-0.0425 0.11037,-0.0505 0.33539,-0.0505 0.21975,0 0.26757,-0.007 0.26757,-0.0386 0,-0.0295 0.0346,-0.0385 0.14916,-0.0385 0.11696,0 0.14918,0.009 0.14918,0.04 0,0.0337 0.0417,0.0394 0.26444,0.037 0.14545,-0.002 0.27665,-6.7e-4 0.29156,0.002 0.0149,0.003 0.0372,0.003 0.0495,6.7e-4 0.0122,-0.002 0.0159,0.007 0.008,0.0187 -0.008,0.0123 0.01,0.047 0.0392,0.0772 0.0296,0.0301 0.0536,0.0607 0.0534,0.0681 -2.9e-4,0.008 -5.9e-4,0.048 -5.9e-4,0.0903 v 0.077 h 0.35259 0.35259 v -0.0911 c 0,-0.0502 0.019,-0.12587 0.0421,-0.16833 l 0.0421,-0.0772 0.43186,0.005 c 0.23753,0.003 0.42533,0.0149 0.41732,0.0271 -0.008,0.0123 -0.004,0.0223 0.009,0.0223 0.0204,0 0.0284,0.0391 0.0438,0.21613 0.002,0.0271 0.0175,0.0534 0.0337,0.0585 0.0175,0.005 0.0419,-0.0617 0.0598,-0.16477 0.0651,-0.37209 0.0658,-0.38464 0.0225,-0.4004 -0.0308,-0.0113 -0.037,-0.0391 -0.025,-0.11251 0.009,-0.0537 0.019,-0.10126 0.0228,-0.10569 0.003,-0.005 0.26756,0.027 0.58608,0.0699 0.31851,0.0428 0.61224,0.0817 0.6527,0.0863 0.0404,0.005 0.0803,0.0146 0.0886,0.0225 0.0286,0.0271 -0.0288,0.21455 -0.0657,0.21455 -0.0202,0 -0.0403,0.0231 -0.0447,0.0514 -0.004,0.0282 -0.0755,0.49042 -0.15808,1.02706 -0.0826,0.53664 -0.1817,1.18947 -0.22022,1.45073 -0.0385,0.26126 -0.0744,0.48777 -0.0796,0.50338 -0.006,0.0187 -0.0513,0.0223 -0.13232,0.0107 -0.10987,-0.0159 -0.11937,-0.0133 -0.0905,0.0237 0.12826,0.16473 0.16874,0.20673 0.19923,0.20673 0.0191,0 0.0284,0.0155 0.0208,0.0344 -0.008,0.019 0.005,0.0492 0.028,0.0674 0.0522,0.0409 0.053,0.0712 0.003,0.11835 -0.059,0.0559 -0.0844,0.0463 -0.2076,-0.0782 -0.0625,-0.0632 -0.12613,-0.1076 -0.14129,-0.0987 -0.0152,0.009 -0.0196,0.004 -0.01,-0.0109 0.0232,-0.0354 -0.28458,-0.34031 -0.34357,-0.34031 -0.0325,0 -0.0455,0.022 -0.0455,0.077 0,0.065 -0.0105,0.077 -0.0678,0.077 -0.0669,0 -0.0678,0.003 -0.0678,0.21551 0,0.16786 0.009,0.21876 0.0406,0.23028 0.0404,0.0146 0.0592,0.12186 0.0204,0.11605 -0.06,-0.009 -0.0881,0.009 -0.0881,0.0544 0,0.0282 0.0122,0.0514 0.0271,0.0514 0.0149,0 0.0271,0.0231 0.0271,0.0514 0,0.0282 -0.0111,0.0514 -0.0247,0.0514 -0.0483,0 0.004,0.10131 0.0614,0.11815 0.12336,0.0365 0.11551,0.11293 -0.0115,0.11293 -0.0785,0 -0.0798,0.002 -0.0681,0.11516 0.007,0.0672 -2.9e-4,0.12232 -0.0175,0.13235 -0.019,0.0111 -0.0217,0.005 -0.008,-0.0189 0.0175,-0.0291 0.0147,-0.0298 -0.0145,-0.005 -0.0299,0.0262 -0.0258,0.0422 0.0232,0.0915 0.063,0.0635 0.077,0.13293 0.0322,0.15916 -0.0149,0.009 -0.0271,0.003 -0.0271,-0.0131 0,-0.0159 -0.0275,-0.0254 -0.0611,-0.0208 -0.0419,0.005 -0.0703,0.0354 -0.0906,0.0947 -0.0162,0.0475 -0.0498,0.0973 -0.0746,0.1104 -0.0495,0.0262 -0.0607,0.11181 -0.018,0.13685 0.0406,0.0238 0.0326,0.0895 -0.0129,0.10601 -0.022,0.009 -0.0594,-0.004 -0.0832,-0.0264 -0.0344,-0.0326 -0.055,-0.0351 -0.10051,-0.012 -0.0563,0.0285 -0.0564,0.0296 -0.005,0.0675 0.0426,0.0313 0.0437,0.0357 0.005,0.0235 -0.0256,-0.009 -0.0539,-0.004 -0.0629,0.01 -0.009,0.0138 -0.0266,0.019 -0.0391,0.0116 -0.0556,-0.0325 -0.11392,0.0209 -0.10263,0.0937 0.0162,0.10353 -0.0489,0.15157 -0.10409,0.077 -0.0513,-0.0693 -0.14677,-0.0727 -0.16526,-0.006 -0.0108,0.0394 -0.0262,0.0452 -0.0735,0.0282 -0.0799,-0.0288 -0.1518,0.0126 -0.1518,0.0875 0,0.0788 -0.072,0.10457 -0.10903,0.039 -0.0342,-0.0605 -0.10332,-0.066 -0.12604,-0.01 -0.0114,0.0284 -0.0363,0.0357 -0.0831,0.0246 -0.0779,-0.0184 -0.14291,0.0235 -0.14291,0.0923 0,0.0341 -0.0195,0.0482 -0.0669,0.0482 -0.0482,0 -0.0626,-0.0106 -0.0515,-0.0383 0.0226,-0.0557 -0.0622,-0.0769 -0.1134,-0.0284 -0.0519,0.0491 -0.0935,0.0531 -0.0941,0.009 -3e-4,-0.0214 -0.009,-0.0193 -0.0268,0.007 -0.0145,0.0212 -0.0264,0.0284 -0.0268,0.0161 -7.1e-4,-0.0455 -0.0818,0.0432 -0.0818,0.0898 0,0.0311 -0.0194,0.0482 -0.0543,0.0482 -0.0486,0 -0.0669,-0.0267 -0.0575,-0.0834 0.006,-0.0371 -0.0996,-0.0189 -0.11532,0.0199 -0.0129,0.032 -0.0255,0.0333 -0.0685,0.009 -0.0665,-0.0393 -0.14879,0.0153 -0.1293,0.086 0.0103,0.0374 -0.003,0.0467 -0.0675,0.0467 -0.0442,0 -0.0744,-0.01 -0.0671,-0.0204 0.007,-0.0113 0.002,-0.0372 -0.0115,-0.0579 -0.0187,-0.0278 -0.0249,-0.0288 -0.0254,-0.004 -2.1e-4,0.0185 -0.0125,0.0264 -0.0276,0.0178 -0.0149,-0.009 -0.0271,-0.005 -0.0271,0.009 0,0.0133 -0.036,0.0294 -0.08,0.0354 -0.0463,0.007 -0.0732,6.6e-4 -0.064,-0.0133 0.009,-0.0134 -0.002,-0.019 -0.0218,-0.0125 -0.0208,0.007 -0.0419,0.034 -0.0471,0.0611 -0.0136,0.0716 -0.0459,0.095 -0.10602,0.0769 -0.0392,-0.0119 -0.0498,-0.0326 -0.0402,-0.0796 0.014,-0.0699 -0.0388,-0.0875 -0.0972,-0.0321 -0.0261,0.0247 -0.0446,0.0247 -0.0857,2.8e-4 -0.0644,-0.0381 -0.12845,-0.0179 -0.15037,0.0476 -0.0221,0.0657 -0.12126,0.065 -0.12126,-6.7e-4 0,-0.0689 -0.0411,-0.0864 -0.11092,-0.0473 -0.0469,0.0262 -0.0614,0.0263 -0.0711,6.7e-4 -0.0201,-0.0523 -0.0847,-0.0367 -0.13228,0.032 -0.0244,0.0353 -0.0674,0.0642 -0.0955,0.0642 -0.0364,0 -0.0511,-0.0184 -0.0511,-0.0642 0,-0.0399 -0.0154,-0.0642 -0.0406,-0.0642 -0.0224,0 -0.0406,0.0116 -0.0406,0.0257 0,0.0357 -0.10162,0.0324 -0.11432,-0.004 -0.0141,-0.0402 -0.12979,0.0185 -0.12979,0.0657 0,0.0191 -0.0244,0.0407 -0.0543,0.0481 -0.0451,0.0112 -0.0542,6.7e-4 -0.0542,-0.0612 0,-0.0576 -0.0125,-0.0747 -0.0543,-0.0747 -0.0298,0 -0.0543,0.0116 -0.0543,0.0256 0,0.0354 -0.0745,0.0325 -0.087,-0.003 -0.0156,-0.0442 -0.12451,-0.002 -0.14391,0.0561 -0.0256,0.0762 -0.12159,0.065 -0.12159,-0.0141 0,-0.0715 -0.0284,-0.0798 -0.10969,-0.032 -0.0446,0.0262 -0.059,0.0256 -0.0782,-0.004 -0.031,-0.0472 -0.11154,-0.0169 -0.1297,0.0488 -0.009,0.0331 -0.037,0.0512 -0.0788,0.0512 -0.051,0 -0.0646,-0.0137 -0.0646,-0.0642 0,-0.0399 -0.0154,-0.0642 -0.0406,-0.0642 -0.0224,0 -0.0406,0.0116 -0.0406,0.0257 0,0.0362 -0.10172,0.0321 -0.11464,-0.005 -0.0159,-0.0449 -0.1051,-0.004 -0.12164,0.056 -0.0214,0.0773 -0.11631,0.0667 -0.11631,-0.0129 0,-0.0482 -0.0143,-0.0642 -0.0571,-0.0642 -0.0387,0 -0.0523,0.012 -0.0421,0.0372 0.0165,0.0405 -0.0462,0.029 -0.11408,-0.0211 -0.028,-0.0206 -0.0524,-0.0103 -0.10041,0.0425 -0.0808,0.0888 -0.14737,0.0914 -0.14737,0.005 0,-0.0399 -0.0154,-0.0642 -0.0406,-0.0642 -0.0224,0 -0.0406,0.0116 -0.0406,0.0257 0,0.0362 -0.1017,0.032 -0.11464,-0.005 -0.0161,-0.0455 -0.10519,-0.003 -0.12201,0.0575 -0.0201,0.0729 -0.12652,0.0569 -0.13818,-0.0207 -0.009,-0.0556 -0.0863,-0.0846 -0.0863,-0.032 0,0.0362 -0.10169,0.032 -0.11462,-0.005 -0.0159,-0.0449 -0.10511,-0.004 -0.12164,0.0561 -0.0127,0.0454 -0.0326,0.0546 -0.10954,0.0501 -0.0111,-5.6e-4 -0.0165,-0.0295 -0.0116,-0.0642 0.007,-0.0493 -0.003,-0.063 -0.0474,-0.063 -0.0309,0 -0.0563,0.0116 -0.0563,0.0256 0,0.0142 -0.0183,0.0257 -0.0406,0.0257 -0.0224,0 -0.0406,-0.0116 -0.0406,-0.0257 0,-0.0484 -0.0775,-0.0256 -0.13077,0.0385 -0.0293,0.0352 -0.0729,0.0642 -0.0969,0.0642 -0.0284,0 -0.0435,-0.0223 -0.0435,-0.0642 0,-0.0399 -0.0155,-0.0642 -0.0406,-0.0642 -0.0224,0 -0.0406,0.0116 -0.0406,0.0256 0,0.0362 -0.10171,0.032 -0.11464,-0.005 -0.0171,-0.0485 -0.10057,-0.003 -0.13025,0.0708 -0.0187,0.0462 -0.0405,0.0626 -0.0696,0.0521 -0.0234,-0.009 -0.0477,-0.0155 -0.0539,-0.0155 -0.006,0 -0.0113,-0.0289 -0.0113,-0.0642 0,-0.0399 -0.0154,-0.0642 -0.0406,-0.0642 -0.0224,0 -0.0406,0.0116 -0.0406,0.0256 0,0.0141 -0.0244,0.0257 -0.0543,0.0257 -0.0298,0 -0.0543,-0.0116 -0.0543,-0.0257 0,-0.0499 -0.0807,-0.0249 -0.12455,0.0385 -0.0244,0.0353 -0.0658,0.0642 -0.0918,0.0642 -0.0359,0 -0.0442,-0.0156 -0.0344,-0.0642 0.0143,-0.0705 -0.0384,-0.0883 -0.0971,-0.0327 -0.026,0.0247 -0.0446,0.0247 -0.0857,2.8e-4 -0.0289,-0.0171 -0.0713,-0.0242 -0.0942,-0.0159 -0.0445,0.0161 -0.0551,0.0497 -0.0215,0.0675 0.0111,0.006 0.005,0.008 -0.0135,0.003 -0.0187,-0.004 -0.0338,0.003 -0.0338,0.0171 0,0.0137 -0.0244,0.0249 -0.0543,0.0249 -0.0398,0 -0.0543,-0.0171 -0.0543,-0.0642 0,-0.0399 -0.0153,-0.0642 -0.0406,-0.0642 -0.0224,0 -0.0406,0.0116 -0.0406,0.0257 0,0.0141 -0.0244,0.0256 -0.0543,0.0256 -0.0298,0 -0.0543,-0.0116 -0.0543,-0.0256 0,-0.0499 -0.0807,-0.0248 -0.12455,0.0385 -0.0244,0.0353 -0.0674,0.0642 -0.0955,0.0642 -0.0364,0 -0.0512,-0.0184 -0.0512,-0.0642 0,-0.0399 -0.0155,-0.0642 -0.0406,-0.0642 -0.0224,0 -0.0406,0.0129 -0.0406,0.0287 0,0.028 -0.043,0.023 -0.14553,-0.0168 -0.0426,-0.0165 -0.0477,-0.0109 -0.0321,0.0356 0.0115,0.0342 0.007,0.0553 -0.012,0.0553 -0.0168,0 -0.023,-0.0116 -0.0138,-0.0257 0.009,-0.0141 0.005,-0.0257 -0.009,-0.0257 -0.014,0 -0.0318,0.0223 -0.0393,0.0497 -0.0216,0.0785 -0.12356,0.0415 -0.10734,-0.0388 0.01,-0.05 0.002,-0.0623 -0.0448,-0.0623 -0.0316,0 -0.0574,0.0116 -0.0574,0.0257 0,0.0354 -0.0745,0.0325 -0.087,-0.003 -0.0155,-0.0442 -0.12451,-0.002 -0.1439,0.056 -0.0256,0.0762 -0.1216,0.065 -0.1216,-0.0142 0,-0.0399 -0.0154,-0.0642 -0.0406,-0.0642 -0.0224,0 -0.0406,0.0116 -0.0406,0.0256 0,0.0142 -0.0244,0.0256 -0.0543,0.0256 -0.0298,0 -0.0543,-0.0105 -0.0543,-0.0234 0,-0.0129 -0.0214,-0.0196 -0.0475,-0.0148 -0.0261,0.005 -0.0551,0.01 -0.0646,0.0105 -0.009,0.002 -0.0232,0.0235 -0.0304,0.0497 -0.007,0.0262 -0.0447,0.0534 -0.0834,0.0604 -0.0576,0.0104 -0.0661,0.005 -0.0479,-0.0284 0.0282,-0.0521 0.009,-0.10535 -0.0381,-0.10535 -0.0199,0 -0.0416,0.0145 -0.0484,0.0321 -0.01,0.0256 -0.0239,0.0255 -0.0701,-2e-4 -0.0463,-0.0258 -0.0686,-0.0259 -0.11202,-1.9e-4 -0.0298,0.0177 -0.0543,0.0454 -0.0543,0.0616 0,0.034 -0.0679,0.0649 -0.0923,0.0418 -0.009,-0.009 -0.0162,-0.0424 -0.0162,-0.0753 0,-0.0674 -0.0296,-0.0749 -0.10968,-0.0278 -0.0445,0.026 -0.0591,0.0256 -0.0776,-0.003 -0.031,-0.0471 -0.13075,-0.015 -0.15218,0.0489 -0.0256,0.0762 -0.12161,0.065 -0.12161,-0.0142 0,-0.0399 -0.0155,-0.0642 -0.0406,-0.0642 -0.0224,0 -0.0406,0.0116 -0.0406,0.0257 0,0.0354 -0.10159,0.0325 -0.11421,-0.003 -0.0169,-0.048 -0.1299,0.002 -0.1299,0.0565 0,0.0325 -0.0188,0.0496 -0.0543,0.0496 -0.0364,0 -0.0542,-0.0172 -0.0542,-0.0521 0,-0.0637 -0.0779,-0.0974 -0.11041,-0.0479 -0.0191,0.0291 -0.0338,0.0298 -0.0776,0.004 -0.0658,-0.0387 -0.12981,-0.0189 -0.15186,0.0468 -0.0147,0.0439 -0.059,0.0605 -0.11375,0.0426 -0.0108,-0.003 -0.0161,-0.0324 -0.0116,-0.0642 0.006,-0.0438 -0.005,-0.0579 -0.0482,-0.0579 -0.0309,0 -0.0563,0.0116 -0.0563,0.0257 0,0.0142 -0.0183,0.0256 -0.0406,0.0256 -0.0224,0 -0.0406,-0.0116 -0.0406,-0.0256 0,-0.0433 -0.0702,-0.0286 -0.12204,0.0256 -0.027,0.0282 -0.038,0.0522 -0.0246,0.0532 0.0134,0.002 1e-4,0.0111 -0.0297,0.0224 -0.0716,0.0274 -0.0949,0.0115 -0.0949,-0.0643 0,-0.0386 -0.0156,-0.0626 -0.0406,-0.0626 -0.0224,0 -0.0406,0.0116 -0.0406,0.0257 0,0.0142 -0.0312,0.0256 -0.0693,0.0256 -0.0435,0 -0.0625,-0.0105 -0.051,-0.0281 0.0114,-0.0175 -7e-4,-0.0247 -0.0321,-0.019 -0.0277,0.005 -0.0659,0.0398 -0.0848,0.077 -0.0252,0.0498 -0.0489,0.0643 -0.0891,0.0543 -0.0378,-0.01 -0.0501,-0.0277 -0.0393,-0.0597 0.02,-0.0596 -0.0318,-0.0896 -0.0838,-0.0487 -0.0323,0.0254 -0.0545,0.0247 -0.11003,-0.003 -0.062,-0.0313 -0.0737,-0.0301 -0.1067,0.0127 -0.0204,0.0263 -0.0307,0.0579 -0.0229,0.0699 0.008,0.012 -0.0214,0.0218 -0.0649,0.0218 -0.0698,0 -0.0777,-0.008 -0.0662,-0.0642 0.0143,-0.0705 -0.0385,-0.0883 -0.0971,-0.0327 -0.0263,0.0248 -0.0457,0.0241 -0.0923,-0.003 -0.0539,-0.0319 -0.0654,-0.0278 -0.13013,0.0456 -0.0745,0.0844 -0.0872,0.0914 -0.11679,0.0634 z m -1.80815,-0.34234 c 0,-0.0142 -0.0121,-0.0257 -0.0271,-0.0257 -0.0149,0 -0.0271,0.0116 -0.0271,0.0257 0,0.0141 0.0122,0.0256 0.0271,0.0256 0.0149,0 0.0271,-0.0116 0.0271,-0.0256 z m 1.66646,0.003 c 0.009,-0.0128 -0.009,-0.0172 -0.0391,-0.01 -0.0632,0.0157 -0.0713,0.0331 -0.0153,0.0331 0.0215,0 0.046,-0.0105 0.0543,-0.0233 z m 0.22759,-0.0647 c 0.009,-0.0733 0.008,-0.0742 -0.0543,-0.0354 -0.0895,0.0562 -0.10088,0.13018 -0.0183,0.11911 0.0474,-0.007 0.0658,-0.0276 0.0726,-0.0837 z m 0.22148,0.0623 c 0,-0.0141 -0.0335,-0.0249 -0.0747,-0.0238 -0.0661,0.002 -0.0684,0.004 -0.0204,0.0238 0.074,0.0301 0.0949,0.0301 0.0949,0 z m 0.21699,0.009 c 0,-0.0259 -0.0864,-0.11115 -0.1127,-0.11115 -0.0127,0 -0.0229,0.0289 -0.0229,0.0642 0,0.0514 0.0135,0.0642 0.0678,0.0642 0.0372,0 0.0678,-0.008 0.0678,-0.0172 z m 1.13913,-0.0149 c 0,-0.0106 -0.0305,-0.0193 -0.0678,-0.0193 -0.0372,0 -0.0678,0.009 -0.0678,0.0193 0,0.0105 0.0305,0.0193 0.0678,0.0193 0.0372,0 0.0678,-0.009 0.0678,-0.0193 z m 0.22797,-0.074 c 0.01,-0.0584 0.0125,-0.11129 0.005,-0.1176 -0.006,-0.006 -0.0436,0.009 -0.0823,0.032 -0.0964,0.0598 -0.10047,0.19168 -0.005,0.19168 0.0544,0 0.0671,-0.0163 0.0823,-0.10615 z m 0.20598,0.0805 c 0,-0.0142 -0.0335,-0.0248 -0.0747,-0.0238 -0.0661,0.002 -0.0684,0.005 -0.0204,0.0238 0.0741,0.0301 0.0949,0.0301 0.0949,0 z m 0.18985,0 c -0.0526,-0.0321 -0.0814,-0.0321 -0.0814,0 0,0.0142 0.0275,0.0256 0.0611,0.0254 0.0494,-2.8e-4 0.0533,-0.005 0.0204,-0.0254 z m 0.94928,0 c 0,-0.0321 -0.0288,-0.0321 -0.0814,0 -0.0329,0.0201 -0.0289,0.025 0.0204,0.0254 0.0335,1.9e-4 0.0611,-0.0112 0.0611,-0.0254 z m 0.24411,-0.0158 c 0,-0.005 -0.0373,-0.01 -0.083,-0.01 -0.0456,0 -0.0765,0.01 -0.0684,0.0223 0.0134,0.0207 0.15143,0.009 0.15143,-0.0124 z m 0.21697,-0.0271 c 0,-0.0378 -0.0203,-0.0897 -0.0449,-0.11555 -0.0561,-0.0586 -0.13018,-0.063 -0.1072,-0.007 0.009,0.0222 0.0165,0.0743 0.0165,0.11554 0,0.0628 0.0109,0.075 0.0678,0.075 0.0555,0 0.0678,-0.0125 0.0678,-0.0686 z m 1.35125,-0.002 c 0.008,-0.0536 0.003,-0.0558 -0.0611,-0.028 -0.0875,0.0378 -0.0938,0.10567 -0.009,0.0942 0.0392,-0.005 0.0641,-0.0288 0.0697,-0.0662 z m 0.22183,0.0452 c 0,-0.0141 -0.0335,-0.0245 -0.0747,-0.0231 l -0.0746,0.003 0.0678,0.0205 c 0.0373,0.0113 0.0708,0.0217 0.0747,0.0231 0.003,0.002 0.007,-0.009 0.007,-0.0231 z m 0.2251,-0.009 c 0.008,-0.0197 -0.0194,-0.0529 -0.0633,-0.0776 l -0.0773,-0.0431 0.009,0.0711 c 0.0112,0.0902 0.006,0.084 0.0665,0.084 0.0282,0 0.0577,-0.0155 0.0652,-0.0345 z m 0.18173,0.0243 c 0,-0.005 -0.0183,-0.0167 -0.0406,-0.0249 -0.0224,-0.009 -0.0406,-0.003 -0.0406,0.0101 0,0.0137 0.0183,0.0249 0.0406,0.0249 0.0224,0 0.0406,-0.005 0.0406,-0.0101 z m 0.94925,-0.0219 c 3e-5,-0.0272 -0.10213,-0.024 -0.12024,0.004 -0.008,0.0126 0.0153,0.0213 0.0526,0.0193 0.0372,-0.002 0.0676,-0.0123 0.0676,-0.023 z m 0.22703,-0.0257 c 0.0416,-0.14719 0.0114,-0.18036 -0.0918,-0.10112 -0.0446,0.0341 -0.0557,0.0616 -0.0419,0.10271 0.0248,0.0738 0.11265,0.0727 0.13369,-0.002 z m 0.22051,0.0321 c 0.01,-0.0148 -0.0154,-0.0256 -0.0594,-0.0254 -0.0591,2.8e-4 -0.0671,0.006 -0.0355,0.0254 0.0522,0.0319 0.0741,0.0319 0.0949,0 z m 0.219,0.003 c -0.0193,-0.0294 -0.12407,-0.0553 -0.12407,-0.0307 0,0.0325 0.034,0.0533 0.0875,0.0533 0.0283,0 0.0448,-0.0102 0.0365,-0.0226 z m 0.90657,-0.002 c 0,-0.0137 -0.0183,-0.0182 -0.0406,-0.0101 -0.0224,0.009 -0.0406,0.0193 -0.0406,0.0249 0,0.005 0.0183,0.0101 0.0406,0.0101 0.0224,0 0.0406,-0.0112 0.0406,-0.0248 z m 0.2441,-0.007 c 0,-0.011 -0.0305,-0.0201 -0.0678,-0.0201 -0.0372,0 -0.0678,0.0114 -0.0678,0.0254 0,0.014 0.0305,0.023 0.0678,0.02 0.0372,-0.003 0.0678,-0.0143 0.0678,-0.0254 z m 0.20621,-0.0791 c 0.002,-0.0717 -0.007,-0.0941 -0.0335,-0.0844 -0.0201,0.008 -0.0335,0.003 -0.0299,-0.009 0.003,-0.0122 -0.005,-0.0262 -0.0206,-0.0312 -0.015,-0.005 -0.0307,0.0467 -0.0352,0.11493 -0.008,0.11648 -0.004,0.12343 0.0542,0.11556 0.0521,-0.007 0.0629,-0.0247 0.0652,-0.10597 z m 0.25487,0.0847 c 0,-0.0141 -0.0396,-0.0245 -0.0881,-0.0231 -0.0836,0.003 -0.0846,0.003 -0.0204,0.0231 0.0957,0.0291 0.10849,0.0291 0.10849,0 z m 1.112,-0.0248 c 0,-0.0412 -0.0109,-0.0467 -0.0597,-0.0296 -0.0868,0.0304 -0.0933,0.0802 -0.0105,0.0802 0.0516,0 0.07,-0.0133 0.07,-0.0505 z m 0.21698,0.0248 c 0.0305,-0.0186 0.0169,-0.0249 -0.0543,-0.0249 -0.0712,0 -0.0848,0.006 -0.0543,0.0249 0.0224,0.0137 0.0468,0.025 0.0543,0.025 0.008,0 0.0318,-0.0112 0.0543,-0.025 z m 0.22902,0.002 c 0.0259,-0.0397 -0.0117,-0.0966 -0.0846,-0.12808 -0.0603,-0.026 -0.0672,-0.0244 -0.0528,0.0115 0.009,0.0228 0.0168,0.0637 0.0168,0.0907 0,0.0512 0.0912,0.0707 0.12054,0.0259 z m 0.19138,-0.002 c -0.0706,-0.0289 -0.0949,-0.0304 -0.0949,-0.006 0,0.011 0.0335,0.0218 0.0746,0.024 0.0644,0.003 0.0672,6.6e-4 0.0204,-0.0183 z m -6.7472,-0.0157 c -0.009,-0.009 -0.0325,-0.01 -0.052,-0.002 -0.0216,0.009 -0.0153,0.0142 0.0164,0.0156 0.0286,0.002 0.0447,-0.005 0.0356,-0.0135 z m 7.83209,-0.0358 c -0.009,-0.0142 -0.003,-0.0257 0.012,-0.0257 0.0158,0 0.0287,-0.0113 0.0287,-0.0249 0,-0.0137 -0.0183,-0.0182 -0.0406,-0.0101 -0.0462,0.0167 -0.0558,0.0864 -0.0119,0.0864 0.0159,0 0.0212,-0.0116 0.0119,-0.0256 z m -13.02019,-0.0621 c -0.0568,-0.0393 -0.0826,-0.0351 -0.0538,0.01 0.01,0.0151 0.0378,0.0275 0.0621,0.0275 0.037,0 0.0356,-0.006 -0.009,-0.0365 z m 13.27558,-0.005 c 0.006,-0.005 0.005,-0.0149 -0.002,-0.0215 -0.0208,-0.0197 -0.13217,0.016 -0.13217,0.0423 0,0.0214 0.10273,0.005 0.13336,-0.0207 z m 0.2054,-0.0953 c -0.0104,-0.0306 -0.0191,-0.0881 -0.0193,-0.1278 -2e-4,-0.0542 -0.0106,-0.0685 -0.0416,-0.0572 -0.0343,0.0125 -0.0356,0.009 -0.007,-0.024 0.0189,-0.0216 0.0552,-0.0391 0.0807,-0.0391 0.0658,0 0.0871,-0.0281 0.0519,-0.0682 -0.0449,-0.0512 -0.0587,-0.0442 -0.13206,0.0682 -0.0368,0.0565 -0.0764,0.10272 -0.0878,0.10272 -0.0113,0 -0.0208,0.0179 -0.0208,0.04 0,0.022 0.012,0.033 0.0268,0.0243 0.0147,-0.009 0.0204,2.8e-4 0.0124,0.0198 -0.008,0.0195 -0.002,0.0668 0.0137,0.10508 0.0245,0.061 0.0351,0.066 0.085,0.0408 0.0428,-0.0216 0.0523,-0.043 0.038,-0.0844 z m -13.6286,0.0599 c 0,-0.0141 -0.0129,-0.0257 -0.0287,-0.0257 -0.0158,0 -0.0212,0.0116 -0.0119,0.0257 0.009,0.0141 0.0222,0.0257 0.0287,0.0257 0.006,0 0.0119,-0.0116 0.0119,-0.0257 z m -0.20076,-0.13488 c 0.0296,-0.0808 0.0277,-0.0971 -0.0152,-0.1338 -0.046,-0.0393 -0.0499,-0.0368 -0.0657,0.0428 -0.009,0.0465 -0.0221,0.10949 -0.0283,0.13986 -0.0195,0.0942 0.0717,0.0533 0.10918,-0.0488 z m 14.0449,0.0808 c 0.007,-0.007 -0.0107,-0.0139 -0.0395,-0.016 -0.0289,-0.002 -0.0583,0.005 -0.0653,0.016 -0.0136,0.0209 0.083,0.021 0.10499,9e-5 z m 0.22003,-0.11995 c -0.0139,-0.0599 -0.0578,-0.099 -0.20533,-0.18227 -0.21717,-0.12265 -0.25093,-0.1312 -0.1614,-0.041 0.0354,0.0358 0.0795,0.0596 0.0976,0.0529 0.043,-0.0157 0.0765,0.026 0.11705,0.14517 0.0554,0.16279 0.18909,0.18499 0.15202,0.0253 z m -0.0997,-0.0764 c -0.0338,-0.0408 -0.0328,-0.0417 0.0102,-0.01 0.0261,0.0194 0.0475,0.0396 0.0475,0.0449 0,0.0211 -0.0222,0.008 -0.0577,-0.0353 z m -14.39919,0.12097 c -0.0436,-0.0262 -0.1077,-0.0327 -0.1077,-0.011 0,0.019 0.11922,0.0598 0.13483,0.0462 0.007,-0.006 -0.005,-0.022 -0.0271,-0.0351 z m 14.75525,-0.0307 c 0,-0.0141 -0.0275,-0.0187 -0.0611,-0.0102 -0.0335,0.009 -0.0708,0.0157 -0.083,0.0159 -0.012,2e-4 -0.0155,0.0104 -0.007,0.0226 0.0192,0.0294 0.15143,0.005 0.15143,-0.0282 z m -14.89049,-0.13422 c 0.033,-0.0771 0.0802,-0.15512 0.10485,-0.17332 0.0385,-0.0285 0.0402,-0.0276 0.0126,0.006 -0.027,0.0328 -0.0168,0.0437 0.0625,0.0673 0.0695,0.0206 0.0912,0.0204 0.0816,-5.6e-4 -0.0204,-0.0448 -0.13006,-0.30455 -0.15611,-0.36981 l -0.0235,-0.0586 -0.0809,0.0566 c -0.0651,0.0456 -0.0777,0.0694 -0.0642,0.12285 0.009,0.0364 0.0275,0.0793 0.0406,0.0953 0.0154,0.0187 0.007,0.0352 -0.0234,0.0463 -0.0381,0.0139 -0.0401,0.0215 -0.0103,0.0389 0.0204,0.012 0.0297,0.0402 0.0204,0.0628 -0.009,0.0231 -0.003,0.041 0.0147,0.041 0.0173,0 0.0114,0.0145 -0.0129,0.032 -0.0517,0.0374 -0.0936,0.17333 -0.0535,0.17333 0.0147,0 0.054,-0.0631 0.087,-0.14022 z m 15.05322,0.11453 c 0,-0.0142 -0.0183,-0.0257 -0.0406,-0.0257 -0.0224,0 -0.0406,0.0116 -0.0406,0.0257 0,0.0141 0.0183,0.0256 0.0406,0.0256 0.0224,0 0.0406,-0.0116 0.0406,-0.0256 z m -15.24265,-0.0515 c 0,-0.0142 -0.0112,-0.0256 -0.0249,-0.0256 -0.0136,0 -0.0442,-0.008 -0.0678,-0.0156 -0.0235,-0.009 -0.0429,-0.003 -0.0429,0.0109 0,0.023 0.0421,0.0424 0.11528,0.053 0.0112,0.002 0.0204,-0.009 0.0204,-0.0227 z m -0.17618,-0.16249 c 0.0509,-0.10394 0.0515,-0.114 0.009,-0.1563 -0.0434,-0.0431 -0.0466,-0.043 -0.0718,0.002 -0.0405,0.0724 -0.083,0.23454 -0.0658,0.25088 0.0382,0.0362 0.0783,0.006 0.12851,-0.0966 z m -0.49357,-0.061 c -0.0179,-0.006 -0.026,-0.0304 -0.0183,-0.0542 0.011,-0.0339 0.007,-0.0329 -0.0183,0.005 -0.0256,0.0379 -0.0247,0.0524 0.004,0.0693 0.02,0.0117 0.0428,0.0145 0.0506,0.006 0.008,-0.009 -2.2e-4,-0.0199 -0.0181,-0.0259 z m 15.8039,-0.13736 c 0,-0.15425 -5.8e-4,-0.15564 -0.0981,-0.19417 -0.054,-0.0213 -0.11192,-0.0337 -0.12882,-0.0275 -0.0169,0.006 -0.0708,0.0642 -0.11976,0.1289 l -0.089,0.11762 0.0852,0.0417 c 0.0469,0.023 0.0776,0.03 0.0682,0.0157 -0.009,-0.0143 -0.003,-0.0345 0.0147,-0.0446 0.0186,-0.0109 0.0246,-0.008 0.0144,0.009 -0.0307,0.047 0.0568,0.0893 0.21927,0.10608 0.0238,0.003 0.0338,-0.0428 0.0338,-0.15186 z m 0.43803,0.0582 c -0.0258,-0.009 -0.024,-0.025 0.008,-0.0713 0.0388,-0.0561 0.0373,-0.0669 -0.0202,-0.1472 -0.0534,-0.0746 -0.0705,-0.083 -0.12195,-0.0613 -0.0329,0.014 -0.0599,0.034 -0.0599,0.0446 0,0.0106 -0.0252,0.0131 -0.056,0.005 -0.0512,-0.0125 -0.0552,-0.004 -0.0475,0.0987 0.008,0.10368 0.0138,0.11184 0.0763,0.10349 0.0372,-0.005 0.0748,-0.0197 0.0833,-0.0326 0.009,-0.0129 0.0314,0.005 0.0509,0.039 0.0232,0.0409 0.0502,0.0573 0.0781,0.0471 0.0297,-0.0108 0.0325,-0.0187 0.009,-0.0262 z m -16.35872,0.01 c 0,-0.005 -0.019,-0.0169 -0.0421,-0.0254 -0.0242,-0.009 -0.035,-0.005 -0.0256,0.0101 0.016,0.0243 0.0676,0.0361 0.0676,0.0153 z m 15.56713,-0.3878 c -5.8e-4,-0.0142 -0.0294,-0.0586 -0.0642,-0.0989 -0.077,-0.0891 -0.16379,-0.0844 -0.16882,0.01 -0.002,0.0351 -0.007,0.11181 -0.0123,0.17042 -0.005,0.0627 0.005,0.12349 0.0271,0.14769 0.0319,0.0365 0.0465,0.0274 0.12762,-0.0808 0.0504,-0.0671 0.0911,-0.13352 0.0906,-0.14769 z m 0.9872,0.13539 c -0.0102,-0.0157 -0.005,-0.0205 0.0104,-0.0111 0.0159,0.01 0.0541,-0.0207 0.085,-0.0667 0.0522,-0.0772 0.0529,-0.0858 0.011,-0.11551 -0.025,-0.0177 -0.0357,-0.032 -0.024,-0.032 0.0116,0 0.0521,0.023 0.0897,0.051 0.0377,0.028 0.0823,0.0428 0.0992,0.0327 0.0204,-0.0121 0.0156,-0.0211 -0.014,-0.0267 -0.0246,-0.005 -0.0504,-0.0291 -0.0574,-0.0543 -0.0176,-0.0637 -0.22712,-0.11532 -0.24897,-0.0614 -0.009,0.0207 -0.007,0.0501 0.003,0.065 0.01,0.015 0.005,0.0199 -0.0104,0.0108 -0.0155,-0.01 -0.0428,1.1e-4 -0.0606,0.0204 -0.0428,0.0488 -0.009,0.15064 0.0438,0.13148 0.0219,-0.009 0.0328,-0.004 0.0247,0.009 -0.0217,0.0333 0.0133,0.10713 0.0428,0.09 0.0136,-0.009 0.0165,-0.027 0.006,-0.0424 z m -0.0149,-0.26856 c 0.0196,-0.008 0.043,-0.007 0.052,0.002 0.009,0.009 -0.007,0.0146 -0.0356,0.0135 -0.0316,-0.002 -0.038,-0.008 -0.0164,-0.0156 z m -16.43437,0.0188 0.003,-0.15283 -0.10062,-0.0263 c -0.11222,-0.0294 -0.15208,-0.002 -0.12977,0.0881 0.007,0.0282 0.005,0.0361 -0.003,0.0174 -0.0122,-0.0257 -0.0321,-0.0198 -0.0811,0.0236 -0.0357,0.0317 -0.0649,0.0656 -0.0649,0.0751 0,0.01 0.0458,0.0356 0.10171,0.058 0.25906,0.10359 0.27019,0.10023 0.27456,-0.083 z m 0.47205,0.0789 0.10245,-0.0417 -0.0618,-0.0831 c -0.0339,-0.0457 -0.0764,-0.0781 -0.0943,-0.0719 -0.0194,0.007 -0.0264,-0.004 -0.0175,-0.026 0.0163,-0.0402 -0.0612,-0.0495 -0.17379,-0.0211 -0.0534,0.0136 -0.0611,0.0322 -0.0611,0.14943 0,0.0736 0.008,0.14109 0.0168,0.14982 0.0232,0.0219 0.16629,-0.005 0.28911,-0.0555 z m -0.94697,-0.21748 c -0.002,-0.023 0.007,-0.0355 0.0204,-0.0278 0.036,0.0211 0.029,-0.051 -0.009,-0.0865 -0.0235,-0.0222 -0.024,-0.0308 -0.002,-0.0308 0.0171,0 0.0388,0.0121 0.0485,0.0269 0.0119,0.0184 0.0297,0.0174 0.0559,-0.003 0.0504,-0.0396 0.0482,-0.0499 -0.0283,-0.1321 l -0.0649,-0.0698 -0.14015,0.0394 c -0.13208,0.0371 -0.13911,0.0434 -0.12221,0.10832 0.0208,0.0796 0.17473,0.24108 0.21649,0.22698 0.0154,-0.005 0.0265,-0.0284 0.0245,-0.0514 z m -0.13352,-0.17333 c -0.0236,-0.0359 0.0357,-0.0488 0.0659,-0.0144 0.0225,0.0257 0.0196,0.034 -0.0116,0.034 -0.0228,0 -0.0473,-0.009 -0.0543,-0.0197 z m 1.35584,0.21083 c 0.008,-0.0125 -0.009,-0.0285 -0.037,-0.0356 -0.0364,-0.01 -0.0476,-0.002 -0.0374,0.0228 0.0165,0.0405 0.0525,0.0466 0.0746,0.0128 z m 15.93617,-0.0675 c 0,-0.0288 0.0178,-0.0348 0.0678,-0.0229 0.0418,0.01 0.0678,0.005 0.0678,-0.0123 0,-0.0157 -0.0244,-0.0284 -0.0543,-0.0284 -0.0453,0 -0.0548,-0.0181 -0.0575,-0.10913 -0.002,-0.0599 -0.002,-0.11865 5.8e-4,-0.13031 0.003,-0.0204 -0.0502,-0.01 -0.18053,0.0368 -0.0335,0.012 -0.0611,0.0399 -0.0611,0.0623 0,0.0223 0.0122,0.0335 0.0271,0.0248 0.0371,-0.0218 0.0343,0.0214 -0.003,0.0573 -0.0421,0.0398 -0.0105,0.1059 0.064,0.13425 0.0916,0.0348 0.12944,0.0312 0.12944,-0.0123 z m -0.1046,-0.01 c -0.0202,-0.0122 -0.0263,-0.028 -0.0136,-0.0354 0.0127,-0.008 0.0389,0.003 0.0582,0.0224 0.0387,0.0397 0.0126,0.0473 -0.0446,0.0129 z m -17.27103,-0.38228 c 0.0273,-0.0142 -0.035,-0.0561 -0.0843,-0.0566 -0.0187,-2e-4 -0.0338,0.0223 -0.0338,0.0502 0,0.0482 0.0345,0.0501 0.11816,0.007 z m 17.16961,-0.01 c -0.0117,-0.018 -0.008,-0.0227 0.0107,-0.0121 0.0166,0.01 0.0601,0.0104 0.0968,0.002 0.0615,-0.0146 0.0643,-0.0215 0.0348,-0.0878 -0.0176,-0.0396 -0.0649,-0.10965 -0.10526,-0.1557 -0.0618,-0.0706 -0.0799,-0.0786 -0.11491,-0.0511 -0.0499,0.0391 -0.0559,0.0886 -0.008,0.0623 0.0197,-0.0107 0.0244,-0.009 0.0113,0.005 -0.0125,0.0129 -0.0307,0.0236 -0.0406,0.0238 -0.01,2e-4 -0.0329,0.01 -0.051,0.0202 -0.0396,0.0239 0.093,0.2208 0.14979,0.22235 0.0201,5.6e-4 0.0271,-0.012 0.0161,-0.0287 z m 0.61285,-0.40837 c 0,-0.0291 -0.0116,-0.0461 -0.026,-0.0377 -0.0143,0.009 -0.0191,0.0321 -0.0106,0.0529 0.0215,0.0531 0.0366,0.0468 0.0366,-0.0152 z m -0.0271,-0.17823 c 0.0302,-0.0184 0.014,-0.0249 -0.0625,-0.0254 -0.062,-2e-4 -0.0966,0.01 -0.0865,0.0254 0.0212,0.0325 0.0961,0.0325 0.14917,0 z m -3.62229,-2.80516 c -0.0379,-0.11723 -0.0552,-0.12197 -0.44393,-0.12197 -0.39311,0 -0.43605,0.012 -0.43605,0.12069 v 0.0591 h 0.44934 0.44933 z m -1.91063,-1.89213 c 0,-0.1545 -0.0109,-0.28732 -0.0243,-0.29514 -0.0134,-0.008 -0.0513,0.007 -0.0844,0.0318 l -0.0601,0.0461 0.0492,0.2491 c 0.0322,0.16322 0.0612,0.2491 0.0843,0.2491 0.0268,0 0.0352,-0.0677 0.0352,-0.28092 z m -0.0152,-0.75757 c 0.0263,-0.16677 0.0245,-0.1683 -0.1927,-0.1683 -0.1587,0 -0.19888,-0.008 -0.19888,-0.0385 0,-0.0223 -0.0257,-0.0392 -0.0611,-0.0404 -0.0583,-0.002 -0.0585,-0.003 -0.007,-0.0238 0.0298,-0.0122 0.0382,-0.0229 0.0188,-0.0238 -0.0195,-0.002 -0.029,-0.0119 -0.021,-0.024 0.008,-0.0122 0.0175,-0.0989 0.0211,-0.19258 l 0.006,-0.17032 h 0.10259 c 0.12576,0 0.12486,0.0122 0.0318,-0.43949 -0.0389,-0.18901 -0.07,-0.36474 -0.0693,-0.39052 0.002,-0.0378 -0.006,-0.041 -0.0374,-0.0163 -0.0214,0.0168 -0.0338,0.0382 -0.0277,0.0475 0.006,0.01 -0.0649,0.0203 -0.15783,0.0242 -0.15239,0.007 -0.17606,2.8e-4 -0.24195,-0.0619 -0.0401,-0.038 -0.073,-0.0793 -0.073,-0.0918 0,-0.0127 -0.51894,-0.022 -1.18814,-0.0212 -1.14698,0.002 -1.18948,0.003 -1.22638,0.0517 -0.0621,0.0816 -0.20083,0.11295 -0.29756,0.0673 -0.0789,-0.0372 -0.0816,-0.0366 -0.0816,0.0209 0,0.0467 0.0189,0.0627 0.0886,0.0752 0.0488,0.009 0.1348,0.0391 0.1912,0.0677 0.0564,0.0287 0.11277,0.0461 0.12525,0.0388 0.0125,-0.008 0.0393,0.007 0.0597,0.0314 0.0335,0.0405 0.0324,0.0413 -0.0105,0.01 -0.0704,-0.0523 -0.0577,-0.0125 0.0305,0.0945 0.0953,0.11584 0.13935,0.23549 0.13778,0.37465 -0.002,0.12169 -0.0558,0.28116 -0.11828,0.34652 -0.0516,0.054 -0.0569,0.0902 -0.009,0.0643 0.0197,-0.0107 0.0244,-0.009 0.0113,0.005 -0.0124,0.0129 -0.0307,0.0238 -0.0406,0.0243 -0.0516,0.003 -0.13919,0.0695 -0.12313,0.0942 0.0105,0.0161 0.006,0.0211 -0.01,0.0118 -0.0156,-0.01 -0.072,5.5e-4 -0.12536,0.0217 -0.0534,0.0211 -0.15531,0.0385 -0.22663,0.0385 l -0.12971,1e-4 -0.006,0.10257 -0.006,0.10257 h 0.40621 0.40622 v -0.13017 c 0,-0.1203 0.005,-0.12955 0.0611,-0.12197 0.0505,0.007 0.0633,0.0282 0.0747,0.12376 0.01,0.0839 0.0266,0.11762 0.0611,0.1231 0.0365,0.006 0.0475,-0.0104 0.0475,-0.0707 0,-0.0451 -0.0143,-0.0784 -0.0338,-0.0786 -0.0253,-2.7e-4 -0.0248,-0.006 0.002,-0.0221 0.02,-0.012 0.0348,-0.032 0.0331,-0.0445 -0.002,-0.0125 0.0277,-0.0264 0.0654,-0.031 0.0655,-0.008 0.0686,-0.002 0.0686,0.12196 v 0.13009 h 0.1085 c 0.10589,0 0.10847,-0.002 0.10847,-0.0899 v -0.0899 h 0.36616 0.36614 v -0.20283 -0.20283 l 0.12396,-0.01 c 0.0681,-0.005 0.12921,-0.005 0.13561,0.002 0.006,0.006 0.0116,0.10246 0.0116,0.21421 v 0.20318 l 0.50134,-0.008 0.50133,-0.008 0.10891,0.10069 c 0.0599,0.0553 0.10892,0.11612 0.10892,0.13502 0,0.024 0.0328,0.0325 0.10824,0.0283 0.0981,-0.005 0.10941,-0.0133 0.12062,-0.0845 z m -3.94224,-0.15066 c -0.036,-0.0341 -0.0533,0.0129 -0.0359,0.098 l 0.0158,0.0769 0.0218,-0.0765 c 0.0119,-0.0421 0.0113,-0.0864 -0.002,-0.0985 z m 0.37152,-0.11876 c 0.12812,-0.0348 0.29745,-0.17089 0.36227,-0.29115 0.0811,-0.15058 0.0636,-0.40777 -0.0378,-0.55276 -0.10197,-0.14587 -0.29072,-0.24605 -0.46663,-0.24767 -0.14206,-0.002 -0.37775,0.0775 -0.3516,0.11757 0.008,0.012 -0.003,0.0157 -0.0234,0.009 -0.0404,-0.0146 -0.15874,0.1296 -0.2078,0.25342 -0.0466,0.11751 -0.0325,0.27822 0.0365,0.41862 0.0657,0.13368 0.16598,0.22582 0.21465,0.19733 0.0148,-0.009 0.0191,-0.004 0.009,0.0109 -0.0222,0.0341 0.1306,0.0952 0.17431,0.0696 0.021,-0.0123 0.0259,-0.009 0.0136,0.0104 -0.0242,0.037 0.14797,0.0405 0.27636,0.005 z m 3.57979,-0.88101 -0.007,-0.46859 -0.16916,-0.008 c -0.12953,-0.006 -0.16619,1.9e-4 -0.15654,0.0257 0.007,0.0183 0.0489,0.22116 0.0931,0.45077 0.0443,0.22959 0.088,0.42891 0.0971,0.44292 0.009,0.014 0.0467,0.0255 0.0835,0.0255 h 0.0668 z m -0.90356,-0.70612 c 0.0425,-0.11897 0.348,-0.20583 0.423,-0.12028 0.0175,0.02 0.043,0.0297 0.0565,0.0218 0.0137,-0.009 0.0218,-0.005 0.0183,0.007 -0.003,0.0116 0.009,0.0477 0.0281,0.0801 0.0311,0.0532 0.0512,0.0582 0.20238,0.0513 l 0.1679,-0.008 0.008,-0.18616 0.008,-0.18616 h -0.0826 c -0.0547,0 -0.0826,-0.0127 -0.0826,-0.0378 0,-0.0274 -0.0208,-0.0343 -0.0746,-0.025 -0.0899,0.0154 -2.01603,0.30376 -2.42743,0.36335 -0.16034,0.0233 -0.29156,0.0519 -0.29156,0.0635 0,0.0117 0.45687,0.0213 1.01525,0.0213 0.94271,0 1.01641,-0.003 1.03134,-0.0449 z m 3.93404,9.95639 c -0.009,-0.0145 0.002,-0.0189 0.0256,-0.0101 0.047,0.0171 0.0556,0.0354 0.0166,0.0354 -0.014,0 -0.033,-0.0114 -0.0421,-0.0254 z m 0.28113,-0.14793 c -0.0338,-0.0408 -0.0328,-0.0417 0.0102,-0.01 0.0261,0.0194 0.0475,0.0396 0.0475,0.0449 0,0.0211 -0.0223,0.008 -0.0577,-0.0352 z m -14.10005,-0.0675 c 0,-0.005 0.0214,-0.0256 0.0475,-0.0449 0.043,-0.0319 0.044,-0.0311 0.0102,0.01 -0.0354,0.0429 -0.0577,0.0563 -0.0577,0.0353 z m 16.78514,-2.52587 c -0.0337,-0.0408 -0.0328,-0.0417 0.0102,-0.01 0.0261,0.0194 0.0475,0.0396 0.0475,0.0449 0,0.0211 -0.0222,0.008 -0.0577,-0.0352 z m -18.41247,-1.391 c 0,-0.0122 0.0183,-0.0288 0.0406,-0.037 0.0224,-0.009 0.0406,-0.005 0.0406,0.008 0,0.0122 -0.0183,0.0288 -0.0406,0.0369 -0.0224,0.009 -0.0406,0.005 -0.0406,-0.008 z"
       id="G-Sturmtiger" />
  </g>
</svg>
