<?xml version="1.0" encoding="UTF-8" standalone="no"?>
<!-- Created with Inkscape (http://www.inkscape.org/) -->

<svg
   width="20.337931mm"
   height="8.9989004mm"
   viewBox="0 0 20.33793 8.9989006"
   version="1.1"
   id="svg33402"
   sodipodi:docname="inkporter-svg-71kf7czj.svg"
   inkscape:version="1.1.1 (3bf5ae0d25, 2021-09-20)"
   xmlns:inkscape="http://www.inkscape.org/namespaces/inkscape"
   xmlns:sodipodi="http://sodipodi.sourceforge.net/DTD/sodipodi-0.dtd"
   xmlns="http://www.w3.org/2000/svg"
   xmlns:svg="http://www.w3.org/2000/svg">
  <sodipodi:namedview
     id="namedview555"
     pagecolor="#ffffff"
     bordercolor="#666666"
     borderopacity="1.0"
     inkscape:pageshadow="2"
     inkscape:pageopacity="0.0"
     inkscape:pagecheckerboard="0"
     inkscape:document-units="mm"
     showgrid="false"
     inkscape:zoom="2.5097476"
     inkscape:cx="-1212.871"
     inkscape:cy="1547.3668"
     inkscape:window-width="1920"
     inkscape:window-height="1017"
     inkscape:window-x="-8"
     inkscape:window-y="-8"
     inkscape:window-maximized="1"
     inkscape:current-layer="svg33402" />
  <defs
     id="defs14119" />
  <path
     d="m 6.65386,8.86198 0.003,-0.008 c -0.018,0.003 -0.0367,0.006 -0.0554,0.008 z m 1.89618,-0.009 0.003,0.009 h 0.11888 l 0.0145,-0.0455 c -0.0437,0.0159 -0.0896,0.0286 -0.13653,0.0367 m -0.26987,0.009 10e-4,-0.004 c -0.0423,-0.006 -0.0833,-0.0152 -0.12347,-0.0272 l 0.01,0.0307 z m 2.26659,-0.0328 0.0106,0.0328 h 0.1457 l 0.0399,-0.12276 c -0.0607,0.0377 -0.1263,0.0684 -0.19615,0.09 m -0.38276,0.0268 0.002,0.006 h 0.0416 c -0.0145,-0.001 -0.0289,-0.004 -0.0437,-0.006 m 2.15865,0.006 0.002,-0.006 c -0.0138,0.002 -0.0279,0.004 -0.042,0.006 z m -0.57644,-0.12347 0.0392,0.12347 h 0.11888 l 0.0138,-0.0413 c -0.0607,-0.0208 -0.11818,-0.0487 -0.1718,-0.0822 m 2.60738,0.12347 0.0148,-0.0459 c -0.0455,0.0169 -0.0938,0.0296 -0.14253,0.0385 l 0.002,0.007 z m -0.55809,-0.0455 0.0145,0.0455 h 0.14534 l 10e-4,-0.004 c -0.0557,-0.008 -0.10971,-0.0222 -0.16121,-0.0413 m 2.16393,0.0455 10e-4,-0.002 c -0.0452,-0.002 -0.0893,-0.007 -0.13265,-0.0159 l 0.006,0.0183 z m 0.7366,-0.21237 -0.0162,-0.14393 C 16.56751,8.6606 16.40699,8.77596 16.22108,8.82888 l 10e-4,0.003 c 0.11888,-0.0356 0.28398,-0.0998 0.47342,-0.18203 m 1.69792,-0.88018 0.0162,0.018 c 0.037,-0.0212 0.0716,-0.0416 0.10478,-0.061 -0.0395,0.0162 -0.0801,0.0307 -0.12101,0.043 M 0.38521,3.55139 H 0.21235 v 0.40075 h 0.3817 V 3.55139 Z m 0.375,-0.0201 -0.007,0.44803 0.24518,-0.0984 V 3.63327 Z m 1.51053,2.54647 c 0,0.06 0.0476,0.10865 0.10619,0.10865 0.0586,0 0.10619,-0.0487 0.10619,-0.10865 0,-0.06 -0.0476,-0.10866 -0.10619,-0.10866 -0.0586,0 -0.10619,0.0487 -0.10619,0.10866 m 8.29698,-4.27179 h -0.19579 v -0.036 l -0.15628,0.49107 h 0.133 V 1.94177 h 0.21907 z M 7.54583,7.97147 7.36097,7.91607 c 0.002,0.0254 0.003,0.0512 0.003,0.0773 0,0.33973 -0.1898,0.6343 -0.46637,0.77893 l 0.0286,0.09 H 7.04509 L 7.10929,8.66545 H 7.2557 L 7.3178,8.8623 H 7.46314 L 7.52704,8.66545 H 7.6738 L 7.7359,8.8623 H 7.895 L 7.938,8.72895 C 7.70199,8.57338 7.54536,8.30174 7.54536,7.99341 c 0,-0.007 0,-0.0145 3.5e-4,-0.0219 m 1.89794,0.0205 -0.19367,-0.0755 c 0.002,0.025 0.004,0.0508 0.004,0.0769 0,0.29387 -0.14147,0.55386 -0.35948,0.71226 L 8.9442,8.8623 H 9.0899 L 9.1541,8.66545 H 9.2998 L 9.3622,8.8623 H 9.5213 L 9.5855,8.66545 H 9.7312 L 9.7936,8.8623 H 9.8931 L 9.9203,8.7773 C 9.63808,8.63478 9.44405,8.33739 9.44405,7.99343 Z m 1.89407,-0.0205 -0.18944,-0.0561 c 0.002,0.0258 0.003,0.0515 0.003,0.078 0,0.26988 -0.11959,0.51153 -0.30762,0.67204 h 0.0684 l 0.0628,0.19685 h 0.12524 l 0.0642,-0.19685 h 0.14641 l 0.0621,0.19685 h 0.13934 l 0.0642,-0.19685 h 0.0688 C 11.45712,8.50494 11.33718,8.26329 11.33718,7.99341 c 0,-0.007 0,-0.0148 3.5e-4,-0.0219 m 1.88877,0.0307 -0.18344,-0.0702 c 0.002,0.0205 0.002,0.0409 0.002,0.0614 0,0.34431 -0.19474,0.64241 -0.47767,0.78458 l 0.0265,0.0843 h 0.12594 l 0.0639,-0.19685 h 0.14605 l 0.0628,0.19685 h 0.15205 l 0.0639,-0.19685 h 0.14605 l 0.0628,0.19685 h 0.11888 l 0.0508,-0.15592 C 13.37061,8.55008 13.22915,8.29326 13.22597,8.00222 m 1.91206,0.012 -0.20673,-0.0914 c 0.002,0.0229 0.003,0.0466 0.003,0.0705 0,0.29351 -0.14182,0.55351 -0.35877,0.71191 l 0.0494,0.15698 h 0.12595 l 0.0639,-0.19685 h 0.1464 l 0.0624,0.19685 h 0.11889 l 0.0642,-0.19685 h 0.1457 l 0.0628,0.19685 h 0.14534 l 0.0335,-0.1023 C 15.33014,8.61739 15.1481,8.33799 15.13823,8.01414 m 2.3749,-0.29916 -0.10266,0.0201 -0.31927,0.0744 h -0.26282 c 0.0113,0.0572 0.0176,0.11642 0.0176,0.17675 0,0.13899 -0.0317,0.27022 -0.0878,0.38664 l 0.0427,-0.0205 0.16157,0.17709 c 0.0388,-0.0176 0.0787,-0.036 0.11853,-0.055 l -0.0275,-0.24236 0.13229,-0.0635 0.16192,0.17745 c 0.0293,-0.0145 0.0586,-0.0286 0.0878,-0.0434 l -0.0268,-0.24024 0.13194,-0.0628 0.15664,0.17145 c 0.0391,-0.0201 0.0776,-0.0402 0.11606,-0.06 l -0.0257,-0.22931 0.13229,-0.0635 0.14499,0.15981 c 0.0363,-0.0194 0.0723,-0.0392 0.10724,-0.0582 l -0.0116,-0.10371 c -0.0441,0.004 -0.0882,0.007 -0.13299,0.007 -0.18274,0 -0.35666,-0.0385 -0.51435,-0.10795 M 10.46964,1.45974 h 0.15382 v 0.0709 c 0.14816,0.0434 0.42368,0.0713 0.54751,0.0684 0.13617,-0.004 0.36512,-0.024 0.46461,-0.0716 0.0998,-0.0473 0.20602,-0.0543 0.17603,0.004 -0.0268,0.0522 -0.043,0.0628 -0.0293,0.14605 h 1.08797 v 0.061 h -0.11924 v 0.17674 h 0.29845 v 0.13582 h 0.24553 v 0.17639 h 0.17251 V 0 h 0.0466 v 2.47897 l 0.13934,0.44132 -0.35136,0.41452 v 0.28504 h 0.25188 V 3.30764 l 0.33831,0.0201 -0.0198,0.30586 0.0928,-0.0952 0.31186,0.007 0.1464,0.0543 V 3.5454 c 0,0 -0.0469,-0.19015 0.0931,-0.19685 0.139,-0.007 1.7519,0.0677 1.89795,0.0677 0.14605,0 0.1591,0.19721 0.1591,0.19721 l -0.0596,0.0134 0.007,0.11571 0.1524,-0.0137 0.0201,-0.0748 0.94897,0.23107 0.35207,-0.0342 0.13935,0.0953 0.0265,-0.0748 -0.0931,-0.0205 c 0,0 0.0402,-0.1457 0.2099,-0.14535 l 0.10865,-0.0956 -0.0261,-0.0272 0.0131,-0.0476 -0.47766,-0.10513 -0.10971,-0.0374 0.0399,-0.24448 0.11289,0.007 0.007,-0.0575 0.23531,0.0441 0.0169,-0.0952 -0.22543,-0.0374 0.0127,-0.0543 -0.10265,-0.0272 0.0466,-0.26176 1.5233,0.30586 0.18909,0.0713 -0.0367,0.21414 -0.14923,0.007 -0.01,0.0543 -0.21907,-0.0441 -0.013,0.085 0.21907,0.0473 -0.0131,0.061 0.12559,0.0512 -0.0399,0.20708 -0.21554,-0.007 -0.32879,-0.0645 0.0134,0.12559 0.16934,0.0441 0.004,0.0639 c 0.0229,0.005 0.0399,0.009 0.0487,0.0109 0.12947,0.0272 0.10301,0.22084 0.10301,0.22084 l -0.043,-0.004 -0.0233,0.13582 0.61701,0.13617 0.39511,0.41064 -0.0797,0.085 -0.0695,-0.061 h -0.0931 l 0.0663,0.1016 0.0434,-0.0169 0.13934,0.061 0.0864,0.39723 -0.0734,0.0748 -0.043,0.0138 0.10618,0.41769 -0.14605,0.0374 -0.0233,-0.0476 h -0.0663 l -0.16616,0.9846 -0.51259,-0.009 C 19.30113,7.23219 19.13321,7.41775 18.90179,7.63012 18.63791,7.87248 16.46515,8.9989 16.06969,8.9989 H 6.44591 C 5.85324,8.9989 4.22588,8.51595 3.26914,8.01324 2.43236,7.57403 2.41683,6.7824 2.48986,6.34425 L 2.10498,6.39085 2.13148,5.96328 2.74213,5.48103 2.4899,5.1346 2.9478,4.8224 H 2.57598 V 4.68622 h 0.71719 v 0.0737 L 5.65573,4.48934 V 4.34682 L 5.56293,4.24487 3.87735,4.21767 3.77755,4.10901 V 4.02081 L 1.57981,3.93601 1.4207,3.99741 H 1.09544 L 0.73702,4.13993 H 0.64392 L 0.61072,4.08563 H 0.23255 l -0.0332,0.0476 H 0.0667 L 0,4.02458 V 3.488 L 0.0797,3.37935 h 0.13265 l 0.0268,0.0543 h 0.36512 l 0.0395,-0.0882 H 0.7503 L 1.08862,3.5423 H 1.42729 L 1.57298,3.6171 3.78448,3.5453 V 3.41618 l 0.0991,-0.1016 h 1.905 V 2.83904 h -0.073 V 2.66935 h 0.073 V 2.54694 h 1.10808 l 0.133,-0.17639 h 1.56633 l 0.0134,-0.061 h 0.50448 l 0.0663,-0.0476 h 0.87595 l 0.0921,-0.52635 h -0.0187 V 1.7116 H 9.77428 V 1.6809 H 8.77874 V 1.7116 H 8.41044 V 1.6809 H 8.27427 V 1.5998 h 0.13617 v -0.024 h 0.2353 V 1.45692 h 0.0466 V 1.5758 h 0.0864 V 1.5927 H 9.77428 V 1.5758 h 0.35524 V 1.5589 h 0.0501 l 0.13582,-0.77752 0.33831,0.10195 z m -6.69431,6.54968 -0.0123,0.0896 c 0.0367,0.0159 0.0734,0.0317 0.11112,0.0476 l 0.1337,-0.14006 c -0.043,0.005 -0.0871,0.007 -0.13123,0.007 -0.0339,0 -0.0677,-10e-4 -0.10125,-0.004 m -0.36442,-0.084 -0.001,0.008 c 0.025,0.0127 0.0508,0.0254 0.0765,0.0381 l 0.0138,-0.0145 c -0.0303,-0.01 -0.06,-0.0197 -0.0893,-0.0314 m 2.68958,0.83537 0.002,0.0674 c 0.12171,0.0198 0.2279,0.0314 0.31256,0.0339 C 6.3022,8.84973 6.19602,8.81443 6.10006,8.76118 M 4.64662,8.4398 4.79902,8.25601 4.93448,8.31211 4.91998,8.52942 c 0.0318,0.0102 0.0635,0.0201 0.0953,0.0296 l 0.12418,-0.18591 0.14076,0.0413 0.007,0.22472 c 0.0441,0.0127 0.0875,0.0247 0.13053,0.0363 l 0.12383,-0.18415 0.14005,0.0409 0.007,0.21167 c 0.0536,0.0131 0.10548,0.0243 0.15592,0.0353 L 5.93625,8.64192 C 5.76656,8.48494 5.65896,8.25916 5.65508,8.00763 L 5.32277,7.87816 c 0,0 -0.1397,0.0272 -0.17922,0.0272 -0.0399,0 -0.15275,-0.0476 -0.15275,-0.0476 0,0 -0.1524,0.0476 -0.19897,0.0476 -0.03,0 -0.16721,-0.0413 -0.26281,-0.0713 -0.13335,0.079 -0.28152,0.13476 -0.43886,0.16158 l 0.0822,0.0413 -0.03,0.21943 c 0.0434,0.0169 0.0871,0.0335 0.13088,0.0501 l 0.14464,-0.17321 0.13547,0.0557 -0.0148,0.21378 c 0.0356,0.0124 0.0716,0.0247 0.1076,0.037"
     id="G-StuH" />
</svg>
