<?xml version="1.0" encoding="UTF-8" standalone="no"?>
<!-- Created with Inkscape (http://www.inkscape.org/) -->

<svg
   width="26.888969mm"
   height="9.4365997mm"
   viewBox="0 0 26.888969 9.4366003"
   version="1.1"
   id="svg33402"
   sodipodi:docname="inkporter-svg-e7qp_36f.svg"
   inkscape:version="1.1.1 (3bf5ae0d25, 2021-09-20)"
   xmlns:inkscape="http://www.inkscape.org/namespaces/inkscape"
   xmlns:sodipodi="http://sodipodi.sourceforge.net/DTD/sodipodi-0.dtd"
   xmlns="http://www.w3.org/2000/svg"
   xmlns:svg="http://www.w3.org/2000/svg">
  <sodipodi:namedview
     id="namedview555"
     pagecolor="#ffffff"
     bordercolor="#666666"
     borderopacity="1.0"
     inkscape:pageshadow="2"
     inkscape:pageopacity="0.0"
     inkscape:pagecheckerboard="0"
     inkscape:document-units="mm"
     showgrid="false"
     inkscape:zoom="0.32"
     inkscape:cx="889.0625"
     inkscape:cy="4120.3125"
     inkscape:window-width="1920"
     inkscape:window-height="1017"
     inkscape:window-x="-8"
     inkscape:window-y="-8"
     inkscape:window-maximized="1"
     inkscape:current-layer="svg33402" />
  <defs
     id="defs13927" />
  <path
     d="m 0.12477,2.0145 c 0,0 0.49472,0 0.50712,0 0.0138,-0.01 0.0565,-0.099 0.14883,-0.099 0.0937,0 0.39687,0.197 0.39687,0.197 l 0.53331,0.025 0.11161,0.074 4.6233197,-0.087 0.14883,-0.1226 h 2.49012 l 0.23564,-0.1557 H 11.34062 l 0.0937,-0.068 h 0.22324 L 11.856,1.7222 V 1.6051 l 0.29077,-0.094 h 0.31005 l 0.13643,0.3969 0.13643,-0.4148 2.31097,-0.3473 v -0.186 h 0.49609 v 0.087 l 0.31006,-0.081 c 0,0 0.14745,0.044 0.20946,0.063 0.0634,0.018 0.12402,-0.012 0.12402,-0.012 V 0.7992 h 0.49059 L 16.76317,0.682 V 0.5759 H 16.62674 L 16.4848,0.5329 c 0,0 -0.0372,0.01 -0.11162,0.01 -0.0744,0 -0.0923,-0.074 -0.0923,-0.074 L 15.26389,0.3022 15.15778,0.01 15.20878,0 l 0.0978,0.2605 0.96049,0.1543 c 0,0 0.0248,-0.018 0.11162,-0.037 0.0868,-0.018 0.13092,0.1241 0.13092,0.1241 h 0.11713 V 0.353 h 0.24253 V 0.291 h 0.12954 v 0.1061 h 0.58842 v -0.094 h 0.49058 v 0.074 h 1.08452 v 0.193 h 0.0427 v 0.1612 l 0.16674,0.068 0.0937,0.2921 h 1.63022 l 0.59393,0.068 V 3.192 H 20.35706 V 3.6013 H 22.1237 V 3.4897 c 0,-0.062 0,-0.087 0.0923,-0.087 h 1.38907 c 0.0868,0 0.10472,0.1736 0.10472,0.1736 l 0.0248,0.03 0.74966,0.012 V 3.5012 c 0,-0.056 0.0992,-0.1185 0.16812,-0.1557 0.0675,-0.037 0.74414,0.062 0.74414,0.062 l 0.0551,0.186 h 0.10473 l 0.0937,-0.576 c 0,0 1.23335,0.1667 1.23886,0.1488 0.007,-0.018 -0.51401,3.5264 -0.51401,3.5264 l -0.18604,-0.032 0.16123,0.2357 -0.0675,0.074 -0.29214,-0.3349 -0.5209,-0.092 v 0.3776 c 0,0.073 -0.0565,0.09 -0.0965,0.066 l -0.0207,0.026 c 0.0331,0.085 0.0537,0.1708 0.0689,0.2535 0.0703,0.052 0.15159,0.1117 0.15986,0.1185 l -0.13781,0.076 c 0.003,0.087 0,0.1654 -0.005,0.2316 0.0537,0.052 0.10749,0.1047 0.11438,0.1116 l -0.13505,0.051 c -0.007,0.032 -0.011,0.052 -0.0124,0.058 h -0.001 v 0 c -0.0234,0.072 -0.0579,0.1405 -0.0978,0.2053 0.0289,0.081 0.062,0.1736 0.0648,0.1847 l -0.19293,-0.018 c -0.0468,0.051 -0.10059,0.1006 -0.15847,0.1474 0,0.087 -10e-4,0.1902 -10e-4,0.2012 L 24.8507,8.5549 c -0.0551,0.034 -0.11162,0.069 -0.17088,0.1006 -0.0289,0.085 -0.0675,0.1984 -0.0717,0.2095 L 24.48686,8.7506 c -0.0827,0.037 -0.1695,0.073 -0.25907,0.1061 -0.0331,0.061 -0.0648,0.1185 -0.0689,0.1268 l -0.0606,-0.081 c -0.0854,0.029 -0.17363,0.055 -0.26321,0.08 -0.0345,0.065 -0.0689,0.1268 -0.073,0.135 l -0.0717,-0.097 c -0.0923,0.023 -0.18328,0.044 -0.27423,0.063 -0.0413,0.065 -0.0827,0.1323 -0.0868,0.1406 l -0.073,-0.1102 c -0.073,0.014 -0.14607,0.025 -0.21635,0.036 -0.0565,0.072 -0.13367,0.1695 -0.14194,0.1792 l -0.0744,-0.1488 c -0.0565,0 -0.11163,0.012 -0.16537,0.018 -0.0551,0.07 -0.15296,0.1929 -0.16261,0.2039 l -0.0923,-0.1846 c -0.0634,0 -0.12402,0.01 -0.18052,0.01 -0.0648,0.062 -0.17639,0.1708 -0.18603,0.1819 l -0.0648,-0.1819 c -0.0565,10e-4 -0.12265,10e-4 -0.19568,10e-4 -0.0648,0.063 -0.17364,0.1695 -0.18328,0.1805 l -0.0634,-0.1792 c -0.051,0 -0.10474,0 -0.16123,0 -0.0551,0.055 -0.19844,0.1957 -0.20946,0.2067 l -0.073,-0.2039 c -0.0469,0 -0.0951,0 -0.1447,0 -0.0565,0.055 -0.19705,0.1929 -0.20808,0.2039 L 20.6629,9.2341 c -0.0551,10e-4 -0.11162,10e-4 -0.16812,10e-4 -0.0579,0.058 -0.1943,0.1901 -0.20533,0.2012 l -0.0703,-0.1998 c -0.0496,0 -0.10059,0 -0.15296,0 -0.0593,0.058 -0.19017,0.1874 -0.20119,0.1984 L 19.7961,9.2392 c -0.0537,0 -0.10749,0 -0.16261,0 -0.0606,0.061 -0.18742,0.1847 -0.19844,0.1957 L 19.36615,9.242 c -0.0524,0 -0.10611,0 -0.15986,0 -0.062,0.061 -0.18603,0.1819 -0.19568,0.1929 l -0.0675,-0.1902 c -0.0551,0 -0.11024,0 -0.16536,0 -0.062,0.062 -0.18191,0.1792 -0.19293,0.1902 l -0.0661,-0.1874 c -0.0565,0 -0.113,0 -0.1695,0 -0.0634,0.063 -0.17914,0.1764 -0.18879,0.1874 l -0.0661,-0.1847 c -0.0634,0 -0.12678,0 -0.19155,0.001 -0.0634,0.062 -0.17639,0.1723 -0.18604,0.1833 l -0.0648,-0.1819 c -0.0593,0 -0.11852,0 -0.17639,0 -0.0648,0.063 -0.17501,0.1709 -0.18466,0.1805 L 17.22749,9.254 c -0.062,0.001 -0.12402,0.001 -0.18465,0.001 -0.0661,0.063 -0.17226,0.1681 -0.18191,0.1777 l -0.062,-0.1763 c -0.062,0.001 -0.12402,0.001 -0.18466,0.001 -0.0648,0.065 -0.16812,0.1653 -0.17776,0.175 l -0.0606,-0.1723 c -0.0565,0 -0.11162,0 -0.16674,0 -0.0648,0.065 -0.16536,0.1626 -0.17501,0.1723 l -0.0593,-0.1695 c -0.0661,0 -0.13091,0 -0.1943,10e-4 -0.0648,0.063 -0.16261,0.1585 -0.17087,0.1681 l -0.0593,-0.1667 c -0.0744,0 -0.14745,0 -0.21635,0 -0.0648,0.063 -0.15986,0.1557 -0.16812,0.1653 l -0.0579,-0.164 c -0.0717,10e-4 -0.13918,10e-4 -0.20257,10e-4 -0.0648,0.063 -0.15572,0.153 -0.16537,0.1626 L 14.68358,9.269 c -0.091,10e-4 -0.16123,10e-4 -0.21084,0 -0.0648,0.063 -0.15296,0.1488 -0.16123,0.1585 L 14.25501,9.269 H 14.04693 C 13.98213,9.332 13.89397,9.4178 13.8857,9.4275 L 13.8306,9.269 h -0.20808 c -0.0648,0.063 -0.15297,0.1488 -0.16124,0.1585 L 13.40478,9.269 H 13.1967 C 13.1319,9.332 13.04374,9.4178 13.03547,9.4275 L 12.98037,9.269 h -0.22738 c -0.0648,0.063 -0.15158,0.1488 -0.16123,0.1585 L 12.53666,9.269 h -0.20808 c -0.0648,0.063 -0.15297,0.1488 -0.16123,0.1585 L 12.11085,9.269 H 11.89863 C 11.83383,9.332 11.74566,9.4178 11.7374,9.4275 L 11.6809,9.269 h -0.20808 c -0.0648,0.063 -0.15159,0.1488 -0.15986,0.1585 L 11.25646,9.269 h -0.21222 c -0.0648,0.063 -0.15296,0.1488 -0.16123,0.1585 l -0.0579,-0.1613 c -0.0648,0 -0.13092,-0.01 -0.19706,-0.011 -0.0648,0.065 -0.16537,0.1627 -0.17501,0.1723 l -0.0717,-0.1998 c -0.0551,-0.01 -0.11024,-0.018 -0.16537,-0.027 -0.0772,0.048 -0.20257,0.1268 -0.21359,0.1337 l -0.022,-0.1819 c -0.0854,-0.019 -0.1695,-0.041 -0.25218,-0.065 -0.073,0.045 -0.15572,0.098 -0.16537,0.1033 l -0.0193,-0.1557 c -0.0772,-0.023 -0.15434,-0.048 -0.23152,-0.074 -0.0758,0.04 -0.1626,0.087 -0.17225,0.092 l -0.01,-0.1557 c -0.073,-0.026 -0.14607,-0.054 -0.21911,-0.081 -0.0703,0.032 -0.14056,0.062 -0.14883,0.066 l 0.003,-0.1213 c -0.0882,-0.035 -0.17639,-0.069 -0.2632,-0.1047 -0.0689,0.03 -0.1378,0.059 -0.14607,0.063 l 0.003,-0.1213 c -0.0662,-0.026 -0.13229,-0.054 -0.19844,-0.081 l -0.0345,-0.014 c -0.0758,0.03 -0.15709,0.062 -0.16674,0.066 l 0.008,-0.1309 -0.18879,-0.076 c -0.003,0 -0.004,0 -0.006,0 -0.0841,0.025 -0.18465,0.055 -0.19568,0.058 l 0.0221,-0.1406 c -0.0841,-0.045 -0.15847,-0.098 -0.22737,-0.1543 -0.0854,0.011 -0.18604,0.025 -0.19706,0.026 l 0.0537,-0.1695 c -0.0551,-0.065 -0.10335,-0.135 -0.14469,-0.2095 -0.0841,-0.032 -0.18742,-0.069 -0.19844,-0.073 l 0.11438,-0.113 c -0.0289,-0.08 -0.0496,-0.1626 -0.0648,-0.2508 l -0.17777,-0.07 0.0179,-0.4837 -0.0813,-0.037 c -0.0799,-0.037 -0.15434,-0.094 -0.15434,-0.2108 0,-0.1185 0.0193,-0.8309 0.0193,-0.9357 0,-0.1061 0.0248,-0.1929 0.17915,-0.2356 0.15434,-0.044 1.24575,-0.2536 1.24575,-0.2536 l -0.0565,-0.2425 0.70694,-0.142 0.0565,0.068 0.16674,-0.012 0.0992,0.1117 h 0.0744 c 0,0 0.0124,-0.1861 0.006,-0.2054 -0.006,-0.018 -0.073,-0.1295 -0.073,-0.1295 l -0.20533,-0.1805 h -0.65732 v -0.03 l -0.11714,0.043 -0.005,-0.1296 0.12953,0.037 0.006,-0.044 h 0.81166 V 4.1114 h -0.12264 c 0,0 -0.13092,-0.1171 -0.13092,-0.2232 0,-0.1048 0.11851,-0.1544 0.11851,-0.1544 v -0.037 h 0.31558 c 0.0675,0 0.062,0.1985 0.12402,0.1612 0.062,-0.037 0.24805,-0.094 0.24805,-0.094 l 0.0799,-0.2232 h 0.13091 l 0.10474,0.1364 0.062,-0.2287 H 10.33943 V 3.2928 h 1.30087 v 0.2921 h 0.39687 l 0.20395,0.1419 V 3.6152 c 0,-0.018 0.79926,0 0.79926,0 V 3.3672 H 12.638 L 12.576,3.1067 12.43406,3.3369 H 12.1364 l -0.27285,-0.131 -0.0179,-0.1474 h -0.13643 l -0.0565,-0.057 H 11.41704 L 11.30542,2.9095 H 9.2728097 l -0.16123,-0.1488 h -2.52181 L 6.4533497,2.6737 1.81211,2.5747 1.73771,2.6177 1.16169,2.6497 c 0,0 -0.27974,0.2163 -0.38448,0.2163 C 0.67249,2.866 0.6091,2.742 0.6091,2.742 H 0.12678 L 0,2.5628 V 2.1379 Z m 10.6798,7.0913 c 0.0358,10e-4 0.0717,0 0.10611,0 0.004,-0.021 0.008,-0.043 0.0124,-0.065 -0.04,0.014 -0.0799,0.026 -0.12264,0.037 10e-4,0.01 0.003,0.016 0.004,0.025 m 0.42995,0 h 0.10611 c 0.011,-0.066 0.0317,-0.1584 0.0717,-0.2191 -0.0331,-0.022 -0.0648,-0.047 -0.0965,-0.073 -0.0427,0.036 -0.0882,0.069 -0.13505,0.099 0.0289,0.058 0.0455,0.1351 0.0537,0.193 m 0.41204,-0.09 c 0.008,0.032 0.0138,0.062 0.0179,0.09 h 0.1006 c 0.003,-0.014 0.006,-0.029 0.008,-0.044 -0.0427,-0.012 -0.0854,-0.028 -0.12678,-0.045 m 9.68761,-0.1861 c -0.011,-0.01 -0.022,-0.018 -0.033,-0.028 -0.0744,0.065 -0.1571,0.1213 -0.24667,0.1682 0.011,0.029 0.0179,0.061 0.0234,0.09 0.04,0 0.0799,-10e-4 0.11851,-10e-4 0.0193,-0.095 0.0593,-0.2136 0.13781,-0.2288 m 1.55029,0.1723 c 10e-4,-0.037 0.006,-0.084 0.0138,-0.1296 -0.0386,0.029 -0.0799,0.054 -0.12127,0.079 0.008,0.021 0.0152,0.041 0.022,0.062 0.0276,0 0.0565,-0.01 0.0854,-0.011 m 0.48507,-0.412 c 0.11575,-0.029 0.20808,0.1902 0.23978,0.277 0.0303,-0.01 0.0606,-0.015 0.0909,-0.022 -0.011,-0.059 -0.0317,-0.2012 0,-0.2908 -0.13504,-0.061 -0.25631,-0.1461 -0.35691,-0.2508 -0.062,0.1557 -0.15434,0.2963 -0.26734,0.4148 0.0634,0.041 0.10473,0.153 0.12816,0.2343 0.0262,0 0.051,-0.01 0.0772,-0.014 -0.0124,-0.092 -0.0275,-0.3211 0.0882,-0.3487 m -3.72897,0.2343 c -0.001,10e-4 -0.003,0 -0.006,0 0.006,0 0.01,10e-4 0.0138,10e-4 -0.003,-10e-4 -0.006,0 -0.008,-0.01 m 0.27698,0.1723 c -0.073,-0.033 -0.14056,-0.073 -0.20532,-0.1186 0.0358,0.05 0.0565,0.1241 0.0689,0.1902 0.04,-0.001 0.0799,-0.001 0.11989,-0.001 0.004,-0.022 0.01,-0.045 0.0165,-0.07 m -0.39687,-0.085 c -0.0565,0.036 -0.11575,0.069 -0.17777,0.097 0.006,0.021 0.01,0.043 0.0138,0.063 0.0372,0 0.0758,0 0.113,0 0.011,-0.051 0.0262,-0.1116 0.051,-0.1585 m -3.0179,0.043 c -0.0786,-0.044 -0.15296,-0.097 -0.22049,-0.1557 -0.0124,0.011 -0.0248,0.022 -0.0372,0.032 0.0854,0.018 0.12264,0.1612 0.13918,0.2605 0.0276,0 0.0551,0 0.0827,0 0.008,-0.041 0.0193,-0.091 0.0358,-0.1365 m 0.28388,0.1337 c 0.0234,0 0.0469,0 0.0717,0 -0.0262,-0.01 -0.051,-0.011 -0.0758,-0.018 10e-4,0.01 0.003,0.012 0.004,0.018 m -0.67248,-0.164 c -0.0538,0.033 -0.11162,0.063 -0.17088,0.088 0.007,0.029 0.0124,0.056 0.0165,0.083 0.0345,0 0.0703,0 0.10473,-10e-4 0.01,-0.051 0.0248,-0.1171 0.0496,-0.1695 m -0.91778,0.1709 c -0.0372,-0.01 -0.073,-0.016 -0.11024,-0.026 0.003,0.011 0.004,0.022 0.007,0.032 0.0331,0 0.0675,0 0.10197,0 0,-0.001 0.001,0 0.001,-0.01 M 14.80667,8.943 c -0.0703,-0.04 -0.13781,-0.085 -0.19844,-0.1364 -0.0152,0.011 -0.0289,0.023 -0.0441,0.034 0.0579,0.051 0.0854,0.1695 0.0978,0.2522 0.0331,-0.001 0.0689,-0.001 0.10611,-0.001 0.007,-0.044 0.0193,-0.099 0.0386,-0.1488 M 14.3698,8.964 c -0.0469,0.023 -0.0951,0.045 -0.14469,0.063 0.006,0.023 0.008,0.047 0.0124,0.067 h 0.1006 c 0.007,-0.039 0.0165,-0.085 0.0317,-0.131 M 13.492,9.0719 c -0.0386,-0.01 -0.0772,-0.019 -0.11438,-0.032 0.004,0.019 0.007,0.037 0.01,0.054 h 0.1006 c 10e-4,-0.01 0.003,-0.014 0.004,-0.022 M 24.08795,8.6392 c -0.0413,0 -0.0813,-0.01 -0.11988,-0.015 0.0234,0.044 0.0441,0.085 0.0551,0.113 0.0248,-0.01 0.051,-0.016 0.0758,-0.026 -0.003,-0.014 -0.008,-0.04 -0.011,-0.072 m -2.45428,0.361 c -0.0606,-0.026 -0.11852,-0.057 -0.17364,-0.092 0.0193,0.043 0.0331,0.092 0.0413,0.1379 0.0427,0 0.0841,0 0.12265,0 0.003,-0.015 0.006,-0.03 0.01,-0.045 m -3.44096,0.066 c 0.006,-0.034 0.0152,-0.073 0.0276,-0.1103 -0.0882,-0.047 -0.17088,-0.1033 -0.24529,-0.1695 -0.0124,0.012 -0.0262,0.023 -0.04,0.034 0.0758,0.025 0.11162,0.1516 0.12816,0.2467 0.0427,0 0.0868,-10e-4 0.12953,-10e-4 M 17.79065,8.9223 c -0.0524,0.032 -0.10748,0.061 -0.16536,0.084 0.005,0.022 0.011,0.044 0.0138,0.065 0.0372,0 0.073,0 0.10887,0 0.01,-0.047 0.022,-0.102 0.0427,-0.1488 m -4.72678,0.1722 c 0.008,-0.051 0.0221,-0.1198 0.0482,-0.1763 -0.0524,-0.032 -0.10197,-0.066 -0.14745,-0.1048 -0.0289,0.022 -0.0579,0.044 -0.0882,0.065 0.0372,0.059 0.0579,0.1502 0.0675,0.2164 z m -0.42581,-0.087 c -0.0414,0.018 -0.0841,0.033 -0.12678,0.045 0.003,0.014 0.005,0.028 0.008,0.041 h 0.1006 c 0.004,-0.026 0.01,-0.055 0.0179,-0.087 M 9.6818997,8.8235 c -0.0372,-0.029 -0.0717,-0.059 -0.10473,-0.092 -0.001,0.047 -0.007,0.092 -0.0124,0.1267 0.0303,0.01 0.0606,0.019 0.091,0.028 0.007,-0.018 0.0165,-0.04 0.0262,-0.062 m -0.89986,-0.5856 c 0.0717,0.07 0.0289,0.2659 0.008,0.3459 0.0317,0.011 0.062,0.023 0.0937,0.036 0.0413,-0.079 0.16123,-0.2839 0.27423,-0.2398 0.10886,0.041 0.0648,0.2618 0.0413,0.3569 0.0165,0.01 0.0345,0.012 0.051,0.018 0.0317,-0.069 0.091,-0.1805 0.1626,-0.2233 -0.11299,-0.1681 -0.18741,-0.3651 -0.20946,-0.5773 -0.11989,0.1198 -0.2632,0.2177 -0.42168,0.2838 m -0.35553,0.091 c -0.007,0.037 -0.0152,0.073 -0.0234,0.099 0.0248,0.01 0.0496,0.021 0.0744,0.03 0.0193,-0.037 0.0565,-0.1019 0.10197,-0.1557 -0.051,0.011 -0.10059,0.021 -0.15296,0.026 M 25.33343,6.8615 c 0.001,-0.1185 0.006,-0.339 0.006,-0.339 0,0 -0.17915,-0.01 -0.21636,-0.01 -0.0193,0 -0.0331,0.04 -0.04,0.079 0.0827,0.079 0.14607,0.1654 0.19706,0.2536 0.0179,0 0.0358,0.01 0.0537,0.012 M 0.82548,2.5411 c 0,0.063 0.0689,0.078 0.12264,0.047 0.0648,-0.04 0.18052,-0.1061 0.20257,-0.1282 0.0234,-0.023 0.0166,-0.085 0.0166,-0.085 0,-0.1088 -0.0124,-0.1061 -0.062,-0.1309 -0.0496,-0.028 -0.16398,-0.09 -0.1943,-0.096 -0.0289,-0.01 -0.0882,0.017 -0.0882,0.083 0,0.065 0.003,0.2494 0.003,0.3115 m -0.62701,0 c 0,0.014 0.011,0.026 0.0234,0.026 h 0.35691 c 0.0138,0 0.0234,-0.012 0.0234,-0.026 V 2.2007 c 0,-0.015 -0.01,-0.026 -0.0234,-0.026 H 0.22218 c -0.0124,0 -0.0234,0.011 -0.0234,0.026 z m 0,0"
     id="G-Tiger" />
</svg>
