<?xml version="1.0" encoding="UTF-8" standalone="no"?>
<!-- Created with Inkscape (http://www.inkscape.org/) -->

<svg
   width="14.898306mm"
   height="9.2902775mm"
   viewBox="0 0 14.898306 9.2902777"
   version="1.1"
   id="svg33402"
   sodipodi:docname="inkporter-svg-71kf7czj.svg"
   inkscape:version="1.1.1 (3bf5ae0d25, 2021-09-20)"
   xmlns:inkscape="http://www.inkscape.org/namespaces/inkscape"
   xmlns:sodipodi="http://sodipodi.sourceforge.net/DTD/sodipodi-0.dtd"
   xmlns="http://www.w3.org/2000/svg"
   xmlns:svg="http://www.w3.org/2000/svg">
  <sodipodi:namedview
     id="namedview555"
     pagecolor="#ffffff"
     bordercolor="#666666"
     borderopacity="1.0"
     inkscape:pageshadow="2"
     inkscape:pageopacity="0.0"
     inkscape:pagecheckerboard="0"
     inkscape:document-units="mm"
     showgrid="false"
     inkscape:zoom="2.5097476"
     inkscape:cx="-1212.871"
     inkscape:cy="1547.3668"
     inkscape:window-width="1920"
     inkscape:window-height="1017"
     inkscape:window-x="-8"
     inkscape:window-y="-8"
     inkscape:window-maximized="1"
     inkscape:current-layer="svg33402" />
  <defs
     id="defs14119" />
  <path
     d="m 14.81642,5.9269873 0.0681,-0.0494 -0.12664,-0.14569 c 0,0 -0.01,0.012 -0.0353,0.0236 -0.0261,0.0116 -0.0706,0.10795 -0.12453,0.11042 -0.054,0.002 -0.17851,0.14323 -0.17851,0.14323 v -0.17392 h 0.19015 v -0.0938 h -0.18098 v -0.36406 h 0.10337 v -0.30092 h -0.11501 v -0.27693 h 0.29598 v -0.24448 l -0.51682,-0.48613 c 0,0 -0.13864,-0.45332 -0.20672,-0.62265 -0.0681,-0.16898 -0.16193,-0.18098 -0.16193,-0.18098 l -4.54342,-1.30845 h -0.054 v -0.19261 l 0.1337,-0.15981 h 0.17639 c 0,0 0.15029,0.0328 0.22084,0.0448 0.0702,0.0116 0.17851,-0.0423 0.18309,-0.002 0.005,0.0399 0.0635,0.1457 0.10584,0.15734 0.0423,0.012 0.16192,-0.0681 0.16192,-0.0681 0,0 0.0751,0.0871 0.0822,0.14111 0.007,0.054 0.0328,0.0632 0.0589,0.0515 0.0258,-0.0116 0.0822,-0.0751 0.0822,-0.0751 0,0 -0.0751,-0.0988 -0.0917,-0.12206 -0.0166,-0.0236 -0.0116,-0.0565 0.0258,-0.066 0.0377,-0.009 0.27975,-0.0187 0.39229,0.005 0.11289,0.0233 0.127,0.10336 0.1457,0.0914 0.019,-0.0117 0.0635,-0.0258 0.11535,-0.005 0.0515,0.0212 0.15487,0.0258 0.15487,0.0258 0,0 -0.0141,-0.13864 -0.0116,-0.20884 0.002,-0.0706 0.0469,-0.17851 0.0469,-0.17851 0,0 -0.0797,0 -0.22542,0.0515 -0.1457,0.0519 -0.31715,0.0519 -0.34996,0.0448 -0.0332,-0.007 -0.0378,-0.0353 -0.0378,-0.0353 0,0 -0.24659,0.0212 -0.31256,0.0258 -0.0656,0.005 -0.15981,-0.0589 -0.15981,-0.0589 l -0.3122,0.002 v -0.0423 H 9.45103 v 0.0332 H 9.26759 l -0.009,0.0374 -1.37901,-0.0116 v -0.16439 h -0.0519 v 0.19014 l -0.23248,-0.0469 v 0.1785 l 0.23742,-0.0399 v 0.0399 h 0.0772 v 0.0236 l 0.0942,-0.019 h 1.29081 l -0.12806,0.14816 v 0.20426 H 7.81598 l -0.0141,0.0519 H 7.53413 l -0.0543,0.14429 -1.1557,-0.56727 -0.0268,-0.0554 -0.20073,-0.0995 c 0,0 -0.12277,0.0215 -0.17886,0.13511 -0.0564,0.11395 -0.01,0.21732 -0.01,0.21732 l 0.21061,0.10442 0.072,-0.0187 0.26,0.13653 -0.0176,0.0356 0.0215,0.0106 -0.13617,0.27517 -0.21167,-0.0995 0.007,-0.0145 -0.38311,-0.18944 -0.0109,0.0215 -2.63525,-1.24072004 -0.0261,-0.0632 -0.39087,-0.19367 c -0.0438,-0.0579 -0.15064,-0.19368 -0.22684,-0.23143 -0.0981,-0.0483 -0.62089,-0.32173 -0.63818,-0.315730001077 C 1.78526,0.00609726 1.77146,0.00809726 1.75806,0.03179726 c -0.0138,0.0236 -0.0265,0.0533 -0.0265,0.0533 l -0.0607,-0.03 -0.121,0.24483 -0.0974,0.1965 0.0603,0.03 c 0,0 -0.0155,0.0279 -0.0261,0.0533 -0.0109,0.025 -0.004,0.037 10e-4,0.0543 0.006,0.0173 0.54011,0.2674 0.63782,0.31609 0.0794,0.0392 0.26282,0.0409 0.32985,0.0399 0.0515,0.0335 0.36901,0.19650004 0.36901,0.19650004 l 0.0776,-0.0116 c 0,0 1.40088,0.73166 2.57986,1.34867 l -0.0706,0.14287 -0.43745,-0.2166 -0.0208,0.0423 -0.2988,-0.14817 -0.16475,0.33267 0.2988,0.14817 -0.0145,0.0293 2.0574,1.01882 -0.2025,0.53869 H 6.33968 l -0.11289,0.30762 H 5.17198 v -0.0914 H 4.81744 v 0.0822 H 3.45008 v -0.0801 H 3.09553 v 0.0847 H 2.84859 l -0.0279,-0.061 H 2.67252 v -0.0307 H 2.56669 v 0.10124 l -0.0702,0.12418 c 0,0 0.0303,0.0635 0.0374,0.0706 0.007,0.007 -0.47343,0.82832 -0.47907,0.83396 -0.006,0.006 -0.3549,0 -0.3549,0 v -0.115 h -0.0564 v -0.22084 h 0.0988 c 0.0116,0 0,-0.39935 0,-0.39935 H 1.42976 v -0.0328 h -0.0561 v 0.0469 c 0,0 -0.10337,0.10583 -0.10337,0.20425 0,0.0988 0.0984,0.16934 0.0984,0.16934 v 0.0515 h 0.0448 v -0.0258 h 0.0822 v 0.22331 h -0.0448 v 0.0963 H 0.97394 c -0.2794,0 -0.56127,0.16898 -0.56127,0.16898 l 0.005,0.0469 c 0,0 -0.0892,0.007 -0.18767,0.007 -0.0988,0 -0.0893,0.0988 -0.0893,0.0988 l 0.0603,0.52388 -0.0487,0.0847 0.0494,0.0561 -0.0307,0.0473 -0.0635,-0.0261 -0.0303,0.061 0.0445,0.0423 -0.0328,0.0871 -0.0494,-0.005 c 0,0 -0.0353,0.20673 -0.0353,0.21414 0,0.007 0.0448,0.005 0.0448,0.005 l 0.005,0.22543 -0.054,0.005 0.0307,0.21167 h 0.0727 l 0.0307,0.10337 -0.0423,0.0233 0.0162,0.0751 0.061,-0.0162 0.0282,0.0423 -0.0444,0.0469 0.14322,0.21131 0.0565,-0.0328 0.1337,0.11042 -0.0258,0.0564 0.16933,0.12207 c 0,0 0.0374,-0.0423 0.0445,-0.0399 0.005,0.002 0.0543,0.0272 0.084,0.0444 l -0.01,0.024 0.002,10e-4 -0.0208,0.0505 0.0596,0.0247 0.0212,-0.0504 0.18944,0.0783 0.002,7.1e-4 -0.0208,0.0504 0.0596,0.025 0.0208,-0.0508 0.19544,0.0808 -0.0169,0.0413 0.0596,0.0247 0.0208,-0.0504 0.19755,0.0818 h 3.6e-4 l -0.0208,0.0505 0.06,0.0247 0.0208,-0.0504 0.19085,0.079 h 7.1e-4 l -0.0208,0.0508 0.0596,0.0247 0.0208,-0.0504 0.19191,0.079 -0.0208,0.0504 0.0596,0.0247 0.0208,-0.0505 0.18979,0.0783 0.002,10e-4 -0.0212,0.0505 0.06,0.0247 0.0208,-0.0504 0.21237,0.0875 -7.1e-4,0.002 0.002,7e-4 -0.0123,0.0529 0.0632,0.0148 0.0123,-0.0533 0.23706,0.0554 -0.01,0.0427 0.0628,0.0145 0.0124,-0.0533 0.2346,0.0536 v 0.0497 h 0.0646 v -0.0547 h 0.20531 0.002 v 0.0547 h 0.0646 v -0.0547 h 0.21202 0.002 v 0.0547 h 0.0646 v -0.0547 h 0.20532 0.002 v 0.0547 h 0.0649 v -0.0547 h 0.20531 0.002 v 0.0547 h 0.0646 v -0.0547 h 0.20532 0.002 v 0.0547 h 0.0646 v -0.0547 h 0.21202 0.002 v 0.0547 h 0.0645 v -0.0547 h 0.20532 0.002 v 0.0547 h 0.0649 v -0.0547 h 0.20285 0.002 v 0.0547 h 0.0646 v -0.0547 h 0.21378 0.002 v 0.0547 h 0.0646 v -0.0547 h 0.20532 0.002 v 0.0547 h 0.0649 v -0.0547 h 0.21202 0.002 v 0.0547 h 0.0646 v -0.0547 h 0.20532 0.002 v 0.0547 h 0.0646 v -0.0547 h 0.20532 0.002 v 0.0547 h 0.0646 v -0.0547 h 0.20532 0.002 v 0.0547 h 0.0649 v -0.0547 h 0.21202 0.002 v 0.0547 h 0.0649 v -0.0547 h 0.20532 0.002 v 0.0547 h 0.0646 v -0.0547 h 0.2032 0.002 v 0.0547 h 0.0646 v -0.0547 h 0.20531 0.002 v 0.0547 h 0.0646 v -0.0547 h 0.21202 0.002 v 0.0547 h 0.0645 v -0.0547 h 0.20109 0.002 v 0.0547 h 0.004 0.0603 0.005 v -0.0547 h 0.20073 0.002 v 0.0547 h 0.0645 v -0.0547 h 0.21202 0.002 v 0.0547 h 0.0646 v -0.0547 h 0.20531 0.002 v 0.0547 h 0.0649 v -0.0547 h 0.21837 0.002 v 0.0547 h 0.0649 v -0.0547 h 0.20532 0.002 v 0.0547 h 0.0646 v -0.0547 h 0.21202 0.002 v 0.0547 h 0.0646 v -0.0547 h 0.20531 0.002 v 0.0547 h 0.0646 v -0.0547 h 0.2226 l 7.1e-4,0.004 0.002,-3.5e-4 0.007,0.0543 0.0642,-0.008 -0.007,-0.0543 0.20602,-0.0261 0.007,0.0543 0.0642,-0.008 -0.007,-0.0543 0.21238,-0.0268 0.007,0.0543 0.0642,-0.008 -0.007,-0.0543 0.20567,-0.0258 0.007,0.054 0.0642,-0.008 -0.007,-0.054 0.23212,-0.0293 0.0113,0.0508 0.0632,-0.0141 -0.012,-0.0533 0.20249,-0.0452 0.012,0.0533 0.0632,-0.0141 -0.012,-0.0533 0.21202,-0.0473 v 3.6e-4 l 0.002,-7.1e-4 v 0 l 0.0173,0.0519 0.0614,-0.0201 -0.0169,-0.0519 0.20355,-0.067 10e-4,0.003 0.002,-7.1e-4 0.0201,0.0508 0.0603,-0.0236 -0.0201,-0.0508 0.19509,-0.0766 0.0197,0.0434 0.0589,-0.0268 -0.0226,-0.0497 0.1972,-0.0903 v 3.5e-4 l 0.002,-10e-4 v 0 l 0.0275,0.0469 0.0561,-0.0325 -0.0275,-0.0473 0.20002,-0.11642 0.0353,0.0409 0.049,-0.0423 -0.0356,-0.0413 0.15381,-0.13158 0.0356,0.0346 0.0448,-0.0466 -0.0392,-0.0377 0.15311,-0.1584 7e-4,3.5e-4 10e-4,-0.002 0.0448,0.031 0.0367,-0.0533 -0.0451,-0.031 0.13158,-0.1905 0.049,0.0219 0.0265,-0.0589 -0.0497,-0.0226 0.10371,-0.23072 -0.0226,-0.0102 -0.002,-0.0561 0.23954,-0.0755 v -0.26776 h -0.19015 v -0.0656 h 0.15028 l 0.0589,-0.23248 h 0.0515 l 0.0187,-0.0543 c 0,0 0.26776,-0.0279 0.28681,-0.14323 0.0187,-0.115 0.0399,-0.29598 0.0751,-0.5214 0.0353,-0.22543 -0.0776,-0.24201 -0.0776,-0.24201 M 2.10434,0.76512726 l -0.47378,-0.2346 0.0755,-0.1517 0.0991,-0.20002 0.47342,0.2346 -0.0751,0.15169 z m 0.0878,0.0543 0.0797,-0.16051 0.10337,-0.20849 c 0,0 0.17321,0.12241 0.23071,0.21167 -0.0325,0.066 -0.0727,0.14746 -0.10477,0.21237 -0.10584,0.009 -0.30904,-0.055 -0.30904,-0.055 m -1.10278,7.61930004 -0.0201,-0.008 -0.0251,-0.0102 c 0.0166,0.002 0.0332,0.006 0.0498,0.007 z m 0.29739,0.003 -0.0381,0.0928 -0.0646,-0.0264 -0.004,0.009 -0.003,-0.001 0.0349,-0.0843 c 0.0303,-0.002 0.06,-0.006 0.0896,-0.0106 -0.006,0.006 -0.0116,0.0124 -0.0152,0.0205 m 1.26224,0.51435 -0.0229,0.0977 -0.0494,-0.0116 -0.0282,-0.0116 0.0385,-0.0928 c 0.012,-0.0293 -0.002,-0.0628 -0.031,-0.0748 l -0.0822,-0.0339 c -0.0293,-0.012 -0.0628,0.002 -0.0748,0.031 l -0.0385,0.0928 -0.0201,-0.008 -0.0434,-0.0176 0.0385,-0.0931 c 0.012,-0.0293 -0.002,-0.0624 -0.031,-0.0748 l -0.0822,-0.0339 c -0.0293,-0.012 -0.0628,0.002 -0.0748,0.031 l -0.0385,0.0928 -0.0201,-0.008 -0.0434,-0.018 0.0385,-0.0928 c 0.012,-0.0293 -0.002,-0.0628 -0.031,-0.0748 l -0.0822,-0.0339 c -0.0293,-0.0124 -0.0624,0.002 -0.0748,0.031 l -0.0381,0.0928 -0.0561,-0.0233 -0.008,-0.003 0.0385,-0.0928 c 0.012,-0.0293 -0.002,-0.0628 -0.031,-0.0748 l -0.0818,-0.0339 c -0.0293,-0.012 -0.0628,0.002 -0.0748,0.031 l -0.0385,0.0928 -0.031,-0.0127 -0.0388,-0.0159 0.0385,-0.0931 c 0.012,-0.0293 -0.002,-0.0624 -0.031,-0.0748 l -0.0804,-0.0332 c 0.13547,-0.0286 0.26141,-0.0818 0.3743,-0.15381 h 0.61137 c -0.003,0.03 -0.005,0.06 -0.005,0.0907 0,0.2226 0.0864,0.42474 0.22649,0.57608 -0.01,0.008 -0.018,0.0184 -0.0212,0.0317 m 0.21167,0.14111 -0.002,0.0106 -0.0342,-0.008 0.009,-0.0385 c 0.0286,0.0183 0.0589,0.0349 0.09,0.0501 z m 0.9017,-0.0385 v 0.10054 h -0.0286 -0.0413 -0.006 v -0.0596 c 0.0261,-0.0137 0.0519,-0.0286 0.0762,-0.0448 0,10e-4 -7e-4,0.002 -7e-4,0.004 m 0.81633,0 v 0.10054 h -0.0222 -0.0466 v -0.10054 c 0,-0.0317 -0.0258,-0.0571 -0.0575,-0.0571 h -0.0885 c -0.0317,0 -0.0575,0.0254 -0.0575,0.0571 v 0.10054 h -0.0219 -0.0469 v -0.10054 c 0,-0.0317 -0.0254,-0.0571 -0.0572,-0.0571 h -0.0889 c -0.0314,0 -0.0572,0.0254 -0.0572,0.0571 v 0.10054 h -0.0219 -0.0469 v -0.10054 c 0,-0.0317 -0.0254,-0.0571 -0.0571,-0.0571 h -0.0737 c 0.18732,-0.15593 0.30691,-0.39052 0.30691,-0.65334 0,-0.0307 -0.002,-0.0607 -0.005,-0.0907 h 0.16052 c -0.003,0.03 -0.005,0.06 -0.005,0.0907 0,0.2674 0.12382,0.50553 0.31679,0.6611 -0.0176,0.01 -0.03,0.0279 -0.03,0.0494 m 0.27869,0.10054 h -0.0286 -0.0413 -0.006 v -0.0423 c 0.0243,0.0113 0.0497,0.0215 0.0755,0.0307 z m 0.54187,0 h -0.007 c 0.002,-7e-4 0.004,-0.002 0.007,-0.002 z m 1.10349,-0.10054 v 0.10054 h -0.0222 -0.0466 v -0.10054 c 0,-0.0317 -0.0258,-0.0571 -0.0575,-0.0571 h -0.0885 c -0.0318,0 -0.0575,0.0254 -0.0575,0.0571 v 0.10054 h -0.0286 -0.0409 -0.006 v -0.10054 c 0,-0.0317 -0.0254,-0.0571 -0.0572,-0.0571 h -0.0889 c -0.0314,0 -0.0572,0.0254 -0.0572,0.0571 v 0.10054 h -0.0219 -0.0469 v -0.10054 c 0,-0.0317 -0.0254,-0.0571 -0.0572,-0.0571 h -0.0889 c -0.0314,0 -0.0572,0.0254 -0.0572,0.0571 v 0.10054 h -0.0303 -0.0395 -0.007 v -0.0991 c 0.23283,-0.15169 0.38699,-0.41345 0.38699,-0.7119 0,-0.0307 -0.002,-0.0607 -0.005,-0.0907 h 0.19791 c -0.003,0.03 -0.005,0.06 -0.005,0.0907 0,0.27657 0.13265,0.5214 0.33761,0.67662 -0.007,0.01 -0.0123,0.0208 -0.0123,0.0339 m 0.0166,-6.97336 0.0303,0.0148 0.0162,-0.0325 0.78776,0.41381 -0.1069,0.28399 -0.86289,-0.4064 z m 0.48013,1.33668 -0.91723,-0.45403 0.0508,-0.10266 c 0.43957,0.23037 0.78105,0.40958 0.89818,0.47202 z m -0.93345,-0.59161 -0.0515,0.10407 -0.2092,-0.10372 0.0536,-0.10865 c 0.0709,0.037 0.14005,0.073 0.20708,0.1083 m 0.68685,6.32883 h -0.0469 v -0.025 c 0.0222,0.009 0.0451,0.0176 0.0684,0.025 z m 0.57256,0 h -0.0286 -0.0187 c 0.0162,-0.005 0.0317,-0.0113 0.0473,-0.0173 z m 1.09291,0 h -0.0286 -0.0413 -0.006 v -0.10054 c 0,-0.0317 -0.0257,-0.0571 -0.0571,-0.0571 h -0.0889 c -0.0317,0 -0.0571,0.0254 -0.0571,0.0571 v 0.10054 h -0.0222 -0.0466 v -0.10054 c 0,-0.0317 -0.0258,-0.0571 -0.0575,-0.0571 h -0.0885 c -0.0317,0 -0.0575,0.0254 -0.0575,0.0571 v 0.10054 h -0.0194 -0.0469 v -0.10054 c 0,-0.0317 -0.0258,-0.0571 -0.0571,-0.0571 h -0.0889 c -0.0317,0 -0.0575,0.0254 -0.0575,0.0571 v 0.10054 h -0.0219 -0.0466 v -0.10054 c 0,-0.008 -0.002,-0.0162 -0.005,-0.0236 0.21273,-0.15417 0.35137,-0.40394 0.35137,-0.68686 0,-0.0307 -0.002,-0.0607 -0.005,-0.0907 h 0.13547 c -0.004,0.03 -0.005,0.06 -0.005,0.0907 0,0.3115 0.16827,0.58279 0.41804,0.7306 z m 0.81844,0 h -0.0286 -0.0413 -0.006 v -0.0222 c 0.0257,-0.01 0.0508,-0.0215 0.0755,-0.0342 z m 0.88689,-0.15769 c -0.0317,0 -0.0575,0.0254 -0.0575,0.0571 v 0.10054 h -0.0219 -0.0466 v -0.10054 c 0,-0.0317 -0.0258,-0.0571 -0.0575,-0.0571 h -0.0889 c -0.0314,0 -0.0571,0.0254 -0.0571,0.0571 v 0.10054 h -0.0353 -0.0346 -0.0123 v -0.10054 c 0,-0.0317 -0.0254,-0.0571 -0.0572,-0.0571 h -0.0889 c -0.0314,0 -0.0572,0.0254 -0.0572,0.0571 v 0.10054 h -0.0219 -0.0469 v -0.10054 c 0,-0.0293 -0.0222,-0.0522 -0.0501,-0.0557 0.18838,-0.15593 0.30833,-0.39123 0.30833,-0.65475 0,-0.0303 -0.002,-0.0603 -0.005,-0.0896 l 0.18485,0.002 c -0.003,0.0289 -0.005,0.0582 -0.005,0.0878 0,0.26282 0.11924,0.49741 0.30656,0.65334 z m 0.22154,0.15769 h -0.0286 -0.0413 -0.006 v -0.0938 c 0.0243,0.0155 0.0494,0.0296 0.0755,0.0423 z m 0.75389,-0.0296 -0.003,-0.0201 c 0.0222,-0.0109 0.0441,-0.0229 0.0649,-0.0356 l 0.006,0.0469 z m 1.93322,-0.61101 c -0.0286,0.0134 -0.0413,0.0473 -0.0282,0.0758 l 0.042,0.0917 -0.0607,0.0275 -0.0342,-0.0871 c -0.0116,-0.0296 -0.0448,-0.0441 -0.0741,-0.0325 l -0.0829,0.0325 c -0.0293,0.0116 -0.0437,0.0448 -0.0321,0.0741 l 0.0367,0.0938 -0.0254,0.01 -3.5e-4,-10e-4 -0.0445,0.0148 -0.0314,-0.0956 c -0.01,-0.03 -0.0423,-0.0462 -0.0723,-0.0363 l -0.0843,0.0275 c -0.03,0.01 -0.0462,0.0423 -0.0363,0.0723 l 0.0314,0.0956 -0.061,0.0201 -0.009,0.002 -0.0219,-0.0981 c -0.007,-0.0307 -0.0374,-0.0501 -0.0684,-0.0434 l -0.0868,0.0194 c -0.0307,0.007 -0.0501,0.0374 -0.0434,0.0681 l 0.0219,0.0984 -0.0212,0.005 -0.0459,0.0102 -0.0219,-0.0981 c -0.007,-0.031 -0.0374,-0.0504 -0.0684,-0.0434 l -0.0864,0.019 c -0.031,0.007 -0.0504,0.0377 -0.0434,0.0684 l 0.0219,0.0981 -0.0684,0.0152 7e-4,0.002 -0.0187,0.002 -0.0127,-0.0998 c -0.004,-0.0314 -0.0324,-0.0536 -0.0639,-0.0497 l -0.0882,0.0113 c -0.0314,0.004 -0.0536,0.0325 -0.0494,0.0639 l 0.0124,0.0998 -0.0681,0.008 -0.0127,-0.0998 c -0.004,-0.0314 -0.0325,-0.0533 -0.0639,-0.0494 l -0.0882,0.0109 c -0.0314,0.004 -0.0536,0.0328 -0.0497,0.0642 l 0.0127,0.0995 -0.0282,0.004 -0.0466,0.006 -0.0127,-0.0998 c -0.003,-0.0212 -0.0173,-0.0374 -0.036,-0.0452 0.15487,-0.15381 0.25082,-0.36654 0.25082,-0.60219 0,-0.0236 -0.001,-0.0473 -0.004,-0.0709 l 1.01705,0.0106 c 0.14464,0.11642 0.32597,0.18803 0.52388,0.19615 z m 0.20708,0.079 -0.008,0.004 -0.042,-0.0914 c -0.005,-0.0116 -0.0141,-0.0198 -0.0243,-0.0254 0.0268,-3.5e-4 0.054,-0.002 0.0801,-0.005 l 0.0501,0.0857 z m 0.24342,-0.14182 -0.0124,0.007 -0.019,-0.0321 c 0.0243,-0.009 0.048,-0.0184 0.0709,-0.0293 l 0.0102,0.012 z m 0.54645,-0.60254 -0.008,0.012 -0.0201,-0.0137 c 0.007,-0.0244 0.0138,-0.0487 0.019,-0.0737 l 0.036,0.0162 z"
     id="G-Wespe" />
</svg>
