<?xml version="1.0" encoding="UTF-8" standalone="no"?>
<!-- Created with Inkscape (http://www.inkscape.org/) -->

<svg
   width="21.41107mm"
   height="12.033566mm"
   viewBox="0 0 21.41107 12.033567"
   version="1.1"
   id="svg33402"
   sodipodi:docname="inkporter-svg-e7qp_36f.svg"
   inkscape:version="1.1.1 (3bf5ae0d25, 2021-09-20)"
   xmlns:inkscape="http://www.inkscape.org/namespaces/inkscape"
   xmlns:sodipodi="http://sodipodi.sourceforge.net/DTD/sodipodi-0.dtd"
   xmlns="http://www.w3.org/2000/svg"
   xmlns:svg="http://www.w3.org/2000/svg">
  <sodipodi:namedview
     id="namedview555"
     pagecolor="#ffffff"
     bordercolor="#666666"
     borderopacity="1.0"
     inkscape:pageshadow="2"
     inkscape:pageopacity="0.0"
     inkscape:pagecheckerboard="0"
     inkscape:document-units="mm"
     showgrid="false"
     inkscape:zoom="0.32"
     inkscape:cx="889.0625"
     inkscape:cy="4120.3125"
     inkscape:window-width="1920"
     inkscape:window-height="1017"
     inkscape:window-x="-8"
     inkscape:window-y="-8"
     inkscape:window-maximized="1"
     inkscape:current-layer="svg33402" />
  <defs
     id="defs13927" />
  <path
     id="G-Wirbelwind"
     d="m 5.5966197,0 -0.12504,0.2553 0.44389,0.1664 0.36018,0.1757 0.008,-0.016 2.13373,1.0423 h -0.5829 l -0.3478,0.7162 -1.66449,-0.8128 0.007,-0.016 L 5.4695397,1.3354 5.06492,1.0873 4.94038,1.3426 5.38427,1.509 l 0.3607097,0.1757 0.007,-0.015 1.6645,0.8129 -0.0961,0.1984 c 0,0 0,0 -0.002,0 -0.0367,0 -0.0667,0.03 -0.0667,0.067 0,0.017 0.006,0.032 0.0161,0.043 l -0.3886,0.7995 0.60254,1.8252 h -0.062 v 0.1426 h 0.0909 v 0.096 h -0.50022 l -0.44389,0.046 -0.11319,0.1085 -0.0631,0.011 -0.0393,-0.068 -0.50694,0.051 -0.0331,-0.062 -0.7451697,0.085 -0.0233,0.063 -0.42583,0.039 v -0.057 h -0.0801 v 0.1597 l -0.46561,0.045 -0.0175,0.091 C 3.84313,6.2295 3.78053,6.445 3.78053,6.445 l 0.0853,0.051 v 0.091 l -0.0206,0.02 H 3.43388 V 6.591 H 3.29747 V 6.625 L 3.10419,6.587 v 0.1365 l 0.19328,-0.038 v 0.034 h 0.13641 v -0.016 h 0.30904 l -0.0584,0.055 v 0.085 L 3.88346,6.9908 H 3.31763 V 6.9398 H 3.18118 v 0.051 h -0.0145 l -0.11935,0.074 h -0.0718 c -0.004,-0.065 -0.0249,-0.2129 -0.14417,-0.2507 0,0 -0.0343,-0.2273 -0.31576,-0.2273 0,0 -0.0594,-0.017 -0.0904,0 v 0.2309 c -0.0861,0 -0.20662,0.011 -0.29869,0.014 -0.15944,0.01 -0.17105,0.1959 -0.17105,0.1959 H 2.4252 v 0.1085 c 0,0 0.0458,0.02 0.0998,-0.01 H 2.5813 V 7.2408 H 2.496 V 7.3509 H 2.4479 v 0.071 H 2.27998 C 1.7166,7.4219 0.7338,7.871 0.7338,7.871 0.7222,7.809 0.6537,7.86 0.6537,7.86 L 0.5457,8.047 0.586,8.07 0,9.0426 h 0.18243 l 0.0336,-0.023 h 0.3116 l 0.005,0.1142 0.23151,-0.027 c -0.0755,0.029 -0.1379,0.048 -0.22116,0.073 -0.18556,0.053 -0.19111,0.3234 -0.004,0.3442 0.008,0 0.0182,0 0.0295,0 l 0.0522,0.3281 c 0.0109,0.066 0.11226,0.051 0.10027,-0.016 L 0.67025,9.5219 c 0.0384,0 0.0801,0 0.12351,-0.01 0.007,0.4449 0.13811,0.9315 0.46405,1.1188 0.80468,0.4661 1.97027,1.3922 2.92489,1.3922 0.92181,0 12.05052,0.024 12.64213,0 0.61701,-0.025 2.42544,-0.5993 2.67838,-0.7013 1.42981,-0.5813 1.3467,-1.8606 0.63407,-2.4593 h 1.21129 l 0.0625,-0.1534 -1.1679,-0.6992 c 0.003,-0.019 0.005,-0.039 0.005,-0.059 0,-0.1418 -0.0685,-0.2688 -0.17572,-0.3566 l 0.0765,-0.1984 c 0,0 0.0119,-0.077 -0.10232,-0.1137 -0.11324,-0.037 -0.15555,0.01 -0.15555,0.01 l -0.0656,0.1911 c -0.0325,-0.01 -0.0658,-0.01 -0.10075,-0.01 -0.0967,0 -0.18765,0.024 -0.26562,0.067 l -0.0889,-0.054 h -0.216 L 19.13141,7.3838 19.56911,7.2701 19.319,6.173 18.86992,6.259 18.79602,6.0027 18.5459,5.9927 V 5.7261 h -0.10231 v 0.1762 l -0.1819,-0.01 v -0.086 h -0.79634 l -0.0279,-0.08 -0.89297,-0.051 -0.0796,0.1075 L 14.743,5.6753 V 5.5332 h 1.39249 V 5.3911 H 16.0156 L 16.75509,3.5943 16.3112,1.6099 h -0.82889 c -0.0199,-0.056 -0.0721,-0.097 -0.13385,-0.097 -0.0275,0 -0.0536,0.01 -0.0754,0.023 H 14.63432 V 1.2212 h -0.41703 l -0.2031,-0.3369 c 0.004,-0.013 0.006,-0.026 0.006,-0.04 0,-0.076 -0.062,-0.138 -0.13851,-0.138 -0.0695,0 -0.12689,0.052 -0.13641,0.1194 L 11.36195,1.6101 H 8.7791697 l -2.4257,-1.1849 0.008,-0.016 -0.3607,-0.1757 z M 13.75944,0.9219 c 0.005,0.01 0.0111,0.018 0.018,0.026 l 0.0682,0.6248 -0.13642,0.051 H 11.62716 Z M 2.67535,7.1272 h 0.13386 v 0.199 h 0.20462 v 0.097 H 2.82574 V 7.3522 H 2.75494 V 7.2421 h -0.0796 z m 17.33177,2.0635 c 0.0182,0.02 0.0353,0.041 0.0501,0.062 l -0.0656,0.1013 0.0956,0.1152 -0.50281,0.1891 -0.1664,-0.1168 0.006,-0.061 0.42427,-0.1452 c 0,0 -0.005,-0.047 -0.008,-0.1033 l 0.0475,0.042 z M 0.8088,9.2007 c -0.01,0.07 -0.0138,0.1422 -0.0156,0.218 -0.0505,0 -0.0977,0.01 -0.14004,0.01 L 0.63806,9.3317 C 0.62746,9.2657 0.5281,9.2807 0.53836,9.3477 l 0.0108,0.081 c -0.0392,0 -0.0959,-0.1142 0.0212,-0.1477 0.0896,-0.026 0.15462,-0.047 0.23823,-0.079 z m 19.34302,0.4987 0.0156,0.072 h 0.0977 c 0.004,0.029 0.004,0.057 0.005,0.085 l -0.0796,0.012 -0.0274,0.1684 0.0941,0.04 c -0.0109,0.058 -0.0228,0.1147 -0.0398,0.169 l -0.10024,-0.01 -0.03,0.072 -0.50229,-0.276 0.0206,-0.1659 z m -1.24851,0.3421 -0.50747,0.5074 c 0,0 -0.0601,-0.054 -0.0951,-0.1168 -0.0339,-0.062 -0.0372,-0.1447 -0.0372,-0.1447 z m 0.60925,0.1638 0.43358,0.3116 -0.0987,0.097 0.0687,0.1183 c -0.0307,0.025 -0.0623,0.046 -0.094,0.068 l -0.0827,-0.091 -0.15504,0.071 0.0243,0.1297 c -0.0469,0.019 -0.0959,0.033 -0.14314,0.044 l -0.0971,-0.6671 z m -0.50278,0.056 0.11988,0.054 0.0444,0.6754 c -0.0356,0 -0.0689,0 -0.10281,-0.01 l -0.0377,-0.066 -0.12661,0.028 c -0.13194,-0.041 -0.2499,-0.1049 -0.35502,-0.1882 z m -0.86508,0.08 c 0.11996,0.3298 0.38597,0.5906 0.71934,0.7017 l -0.003,0.2346 -0.0904,0.028 -0.15142,-0.2584 -0.16639,0.037 -0.005,0.3188 -0.0584,0.017 -0.14468,-0.2496 -0.16536,0.037 -0.006,0.3018 -0.047,0.012 -0.15968,-0.2733 -0.16639,0.038 -0.006,0.3246 c -0.0399,0.01 -0.0802,0.019 -0.12041,0.03 l -0.12764,-0.2191 c 0.0794,-0.1284 0.12401,-0.2796 0.12401,-0.4408 0,-0.1605 -0.0446,-0.3124 -0.12401,-0.4398 z M 3.09342,10.5557 h 0.51004 c -0.0723,0.1249 -0.11472,0.2694 -0.11472,0.4253 0,0.157 0.0433,0.3037 0.11628,0.4299 l -0.0889,-0.046 -0.17365,0.2016 c -0.023,-0.01 -0.0444,-0.018 -0.0667,-0.03 l 0.0429,-0.2481 -0.15245,-0.079 -0.1659,0.1917 c -0.0314,-0.017 -0.0635,-0.035 -0.0956,-0.052 l 0.0393,-0.2279 -0.15243,-0.079 -0.14057,0.1618 c -0.0444,-0.026 -0.0897,-0.053 -0.13383,-0.08 l 0.032,-0.183 -0.15195,-0.079 -0.10488,0.1205 c -0.0494,-0.032 -0.0988,-0.063 -0.14779,-0.095 l 0.0169,-0.088 0.0305,0.088 h 0.12245 l 0.03,-0.1 c 0.0734,0 0.14637,-0.016 0.2155,-0.031 l 0.0651,0.1069 0.13073,-0.034 -0.0196,-0.1276 c 0.0649,-0.026 0.12917,-0.056 0.18809,-0.091 l 0.108,0.082 0.10234,-0.076 z m 3.7119197,0 h 0.31057 c -0.0734,0.1249 -0.11419,0.2694 -0.11419,0.4253 0,0.1947 0.0648,0.3729 0.17414,0.5157 h -0.0548 l -0.0806,0.2889 h -0.10646 l -0.076,-0.2816 -0.11317,-0.01 c 0.10867,-0.1436 0.17569,-0.3215 0.17569,-0.5163 0,-0.1559 -0.0426,-0.3004 -0.11523,-0.4253 z m 3.5569003,0 h 0.29094 c -0.073,0.1249 -0.11319,0.2694 -0.11319,0.4253 0,0.3105 0.16621,0.5841 0.41703,0.7312 l -0.0222,0.076 h -0.14261 l -0.0786,-0.2868 -0.17052,-0.01 -0.0842,0.2935 h -0.0935 l -0.0744,-0.2785 c 0.11573,-0.145 0.185,-0.3286 0.185,-0.5286 0,-0.156 -0.0406,-0.3005 -0.11367,-0.4253 z m 3.57444,0 h 0.27337 c -0.073,0.1249 -0.11473,0.2694 -0.11473,0.4253 0,0.2677 0.12468,0.5055 0.31835,0.6614 l -0.0429,0.1473 h -0.091 l -0.0791,-0.2878 -0.17105,-0.01 -0.0848,0.2951 h -0.13488 l -0.0465,-0.1711 c 0.17605,-0.1562 0.28836,-0.3829 0.28836,-0.6377 0,-0.1559 -0.0419,-0.3004 -0.11525,-0.4252 z m 5.48391,0.5333 h -0.0135 c -0.0388,0.016 -0.11755,0.044 -0.22375,0.08 l -0.0419,-0.073 c 0.0307,0 0.062,0 0.093,0 0.0638,0 0.12499,-0.01 0.18602,-0.015 z m -3.65662,0.1096 h 0.13849 c 0.0377,0.1428 0.11183,0.2714 0.21238,0.3741 l -0.062,0.2139 H 15.9469 l -0.0786,-0.2847 -0.17002,-0.01 -0.0832,0.2935 h -0.0967 l -0.0403,-0.1493 c 0.13793,-0.1108 0.23921,-0.2651 0.28577,-0.4408 z m -7.0977603,0.013 h 0.1452 c 0.0296,0.1068 0.0796,0.205 0.14626,0.2904 l -0.15195,-0.01 -0.0832,0.292 h -0.0847 l -0.0786,-0.2848 h -0.0382 c 0.0653,-0.085 0.11522,-0.1825 0.1452,-0.2883 z m 3.5382703,0 h 0.18243 c 0.0505,0.1809 0.16005,0.3378 0.30644,0.4475 l -0.0367,0.1307 h -0.12454 l -0.078,-0.2878 -0.17106,-0.01 -0.0832,0.2951 h -0.11216 l -0.0661,-0.2455 c 0.084,-0.095 0.14766,-0.2079 0.18293,-0.3328 z m -7.07139,0.063 H 5.2752 c 0.03,0.081 0.072,0.1561 0.12454,0.2242 L 5.31914,11.781 H 5.21527 l -0.0687,-0.2537 -0.15504,-0.01 c 0.0607,-0.073 0.10845,-0.1563 0.1416,-0.2466 z m -1.4733,0.217 c 0.0349,0.047 0.076,0.089 0.11938,0.1276 l -0.0584,0.086 c -0.0307,-0.01 -0.0611,-0.018 -0.0925,-0.029 z m 5.3262997,0.044 c 0.0759,0.087 0.16724,0.1587 0.2713,0.2088 l -0.0125,0.042 h -0.19016 z M 4.96617,11.5516 4.90107,11.7795 H 4.78894 l -0.0196,-0.068 c 0.0741,-0.044 0.14079,-0.098 0.19688,-0.1602 z m 1.6918997,0.041 -0.0532,0.1896 h -0.1814 l -0.007,-0.026 c 0.0896,-0.04 0.1722,-0.097 0.24136,-0.1638 z m 10.6060603,0.041 -0.002,0.079 c -0.06,0.011 -0.11689,0.023 -0.17052,0.032 0.0621,-0.03 0.11951,-0.068 0.17209,-0.1111 z m -9.9290903,0.022 c 0.072,0.056 0.15293,0.099 0.24183,0.1287 h -0.2062 z m 1.00353,0.019 -0.032,0.1111 h -0.13279 l -0.005,-0.017 c 0.0603,-0.025 0.11748,-0.055 0.17002,-0.093 z m -2.71094,0.03 c 0.0501,0.031 0.10409,0.057 0.16124,0.077 h -0.14161 z m 4.4266103,0.01 -0.0206,0.074 H 9.8904997 c 0.0585,-0.018 0.1133503,-0.042 0.1638103,-0.072 z m 1.71463,0.025 -0.0145,0.051 h -0.10904 c 0.0423,-0.013 0.0833,-0.031 0.12351,-0.051 z m 4.60799,0.016 c 0.0222,0.01 0.0466,0.02 0.0723,0.028 h -0.0651 z m -2.89957,0.028 v 0.01 h -0.0185 z" />
</svg>
