<?xml version="1.0" encoding="UTF-8" standalone="no"?>
<!-- Created with Inkscape (http://www.inkscape.org/) -->

<svg
   width="6.5868859mm"
   height="8mm"
   viewBox="0 0 6.586886 7.9999999"
   version="1.1"
   id="svg47190"
   inkscape:version="1.1.1 (3bf5ae0d25, 2021-09-20)"
   sodipodi:docname="gebirg.svg"
   xmlns:inkscape="http://www.inkscape.org/namespaces/inkscape"
   xmlns:sodipodi="http://sodipodi.sourceforge.net/DTD/sodipodi-0.dtd"
   xmlns="http://www.w3.org/2000/svg"
   xmlns:svg="http://www.w3.org/2000/svg">
  <sodipodi:namedview
     id="namedview47192"
     pagecolor="#ffffff"
     bordercolor="#666666"
     borderopacity="1.0"
     inkscape:pageshadow="2"
     inkscape:pageopacity="0.0"
     inkscape:pagecheckerboard="0"
     inkscape:document-units="mm"
     showgrid="false"
     inkscape:zoom="8"
     inkscape:cx="22.8125"
     inkscape:cy="37.6875"
     inkscape:window-width="3072"
     inkscape:window-height="1665"
     inkscape:window-x="1912"
     inkscape:window-y="-1291"
     inkscape:window-maximized="1"
     inkscape:current-layer="layer1"
     inkscape:snap-bbox="true"
     inkscape:snap-bbox-midpoints="true"
     inkscape:snap-page="true" />
  <defs
     id="defs47187">
    <clipPath
       clipPathUnits="userSpaceOnUse"
       id="clipPath63680-8">
      <path
         d="M 0,0 H 595.276 V 841.89 H 0 Z"
         id="path63678-4" />
    </clipPath>
  </defs>
  <g
     inkscape:label="Layer 1"
     inkscape:groupmode="layer"
     id="layer1"
     transform="translate(-86.473436,-76.723206)">
    <g
       id="g28042-1-1"
       transform="matrix(0.17398091,0,0,0.17398091,160.71005,33.659013)"
       style="display:inline;mix-blend-mode:normal;fill:#000000">
      <path
         id="path27817-3-6"
         style="fill:#ffc948;fill-opacity:1;stroke:none;stroke-width:0;stroke-linejoin:round;stroke-miterlimit:4;stroke-dasharray:none;stroke-opacity:1;paint-order:markers fill stroke;stop-color:#000000"
         d="m -398.53174,248.11974 c -8.9653,0.0348 -17.93039,0.10616 -26.89553,0.1695 -0.13004,0.0857 -0.3348,0.10258 -0.4156,0.23364 -0.0875,0.18794 -0.13417,0.38296 -0.10777,0.59069 0.0572,6.92632 0.09,13.85289 0.1724,20.77899 0.0399,2.19875 0.0493,4.40048 0.2113,6.59453 0.0656,0.97594 0.23297,1.95226 0.61029,2.85946 1.04248,2.70018 2.87866,5.02756 4.99578,6.97198 1.97157,1.80007 4.22156,3.28475 6.62429,4.44413 1.17118,0.5651 2.34456,1.14535 3.58863,1.53437 1.02587,0.32425 2.13868,0.33335 3.17431,0.0469 1.47159,-0.39995 2.83583,-1.10334 4.19304,-1.78343 3.22799,-1.67565 6.28665,-3.76946 8.7359,-6.47969 1.14255,-1.27929 2.13797,-2.70016 2.88682,-4.24546 0.35711,-0.78224 0.66662,-1.59347 0.85386,-2.43392 0.15412,-1.09546 0.1275,-2.20628 0.15481,-3.30984 0.051,-5.50325 0.0566,-11.00681 0.0655,-16.51025 -0.008,-2.72047 0.013,-5.44156 -0.0435,-8.16152 -0.024,-0.28816 -0.0515,-0.5831 -0.10678,-0.86383 -0.11412,-0.1428 -0.15108,-0.38483 -0.36587,-0.39818 -0.30152,-0.0929 -0.62743,-0.0233 -0.93967,-0.0448 -2.46409,-3.6e-4 -4.92821,-0.001 -7.3923,0.007 z" />
      <path
         style="fill:#000000;stroke-width:0.264583"
         d="m -410.21475,292.88778 c -4.29039,-1.46149 -8.51799,-4.11402 -11.44524,-7.18111 -2.16439,-2.26779 -3.07927,-3.66806 -4.16279,-6.37136 -0.71449,-1.78258 -0.71449,-1.78258 -0.79284,-16.79769 l -0.0784,-15.0151 h 18.92991 18.92991 l -0.005,14.08906 c -0.005,15.77239 -0.0533,16.30702 -1.76304,19.58109 -2.32979,4.46138 -9.19636,9.73813 -15.38512,11.82297 -1.98939,0.67018 -1.87494,0.67364 -4.22785,-0.12786 z m 7.2254,-2.48934 c 7.336,-3.66336 12.12175,-8.87726 12.76229,-13.90405 0.11126,-0.87312 0.16281,-7.51316 0.11455,-14.75563 l -0.0877,-13.16814 -17.63935,0.0713 -17.63935,0.0713 0.0947,14.15521 c 0.0941,14.07732 0.0981,14.16537 0.72202,16.00132 1.75313,5.15885 7.0588,9.9009 14.25693,12.74241 2.33326,0.92108 3.53497,0.72442 7.41598,-1.21364 z"
         id="path24661-4-9"
         sodipodi:nodetypes="csssccccsscccsscccssscc" />
      <path
         id="path2451-1-60"
         d="m -405.48528,287.36534 c -0.31418,-1.51338 -0.69982,-1.73995 -1.17417,-0.68985 -0.39681,0.87848 -0.65926,0.68528 -0.65926,-0.48531 0,-0.96535 -0.0447,-1.03471 -0.50745,-0.78706 -0.75814,0.40574 -0.80431,0.36109 -0.80431,-0.77783 0,-0.57717 -0.0885,-1.0476 -0.19676,-1.04539 -0.44722,0.009 -0.80527,0.42886 -0.89179,1.04539 -0.0506,0.36074 -0.21009,0.59685 -0.35439,0.52471 -0.28537,-0.14269 -0.28377,-0.77846 0.0107,-4.25911 0.13229,-1.56345 0.0867,-2.79647 -0.14345,-3.88104 -0.27201,-1.2818 -0.27322,-1.70938 -0.006,-2.20825 0.63826,-1.19259 0.37939,-1.28446 -3.6803,-1.30609 -3.60734,-0.0192 -3.78897,-0.0453 -3.78897,-0.5449 0,-0.32915 -0.28669,-0.64969 -0.76925,-0.86006 -1.14092,-0.49741 -1.34018,-0.38771 7.0657,-3.88976 2.22002,-0.9249 2.81645,-1.28313 3.38092,-2.03066 0.69976,-0.92669 0.39646,-1.41613 -1.00809,-1.62676 -2.47821,-0.37163 -4.36828,-0.0475 -6.86231,1.17695 -1.28242,0.62958 -2.39071,1.09726 -2.46285,1.03927 -0.0721,-0.058 -0.10306,-0.31203 -0.0687,-0.56455 0.0344,-0.25251 -0.10623,-0.45912 -0.31245,-0.45912 -0.60269,0 -0.6856,-0.40657 -0.19253,-0.94408 0.25169,-0.27437 0.41816,-0.69444 0.36994,-0.9335 -0.0808,-0.40031 0.0189,-0.4034 1.2613,-0.0392 1.50009,0.43974 3.77085,0.27169 3.59497,-0.26605 -0.10722,-0.32782 -1.10024,-0.59483 -3.14056,-0.84446 l -1.24272,-0.15205 0.70949,-0.61027 c 0.57617,-0.49561 0.64989,-0.68208 0.39235,-0.99241 -0.43687,-0.52639 -0.13359,-0.74262 0.63287,-0.45121 0.48523,0.18449 0.67421,0.14902 0.78815,-0.14792 0.20622,-0.53739 0.68568,-0.48906 1.29046,0.13005 1.91506,1.96049 2.12087,2.10083 3.50109,2.38737 1.57481,0.32692 3.24561,0.19939 3.83894,-0.29303 0.21078,-0.17494 0.38324,-0.70068 0.38324,-1.16832 0,-0.82377 -0.0473,-0.86031 -1.51903,-1.17262 -0.83547,-0.1773 -1.92751,-0.28198 -2.42676,-0.23262 -0.81727,0.0808 -0.90773,0.0244 -0.90773,-0.56613 0,-0.6508 -0.0163,-0.65534 -2.09882,-0.58572 -2.67886,0.0896 -3.14005,-0.16393 -2.15979,-1.1871 0.81491,-0.85058 0.88539,-1.24436 0.32333,-1.80642 -0.60455,-0.60454 -0.48201,-1.1431 0.26008,-1.1431 0.57789,0 1.5912,0.62819 3.80638,2.35973 l 0.65588,0.51268 0.0814,-0.9115 c 0.13194,-1.47706 0.72642,-1.17975 2.53877,1.2697 0.44335,0.5992 1.18391,0.96672 1.18391,0.58755 0,-0.41582 -1.92595,-3.29346 -2.20425,-3.29346 -0.18846,0 -0.66112,-0.29515 -1.05036,-0.65588 -0.4147,-0.38433 -1.0209,-0.65588 -1.46417,-0.65588 -0.41605,0 -1.08881,-0.13463 -1.49501,-0.29917 l -0.73855,-0.29916 0.65588,-0.17428 c 0.54632,-0.14517 0.65588,-0.3325 0.65588,-1.12149 0,-0.52097 0.0671,-1.01451 0.14911,-1.09675 0.082,-0.0822 0.54789,0.26192 1.03529,0.76478 0.98946,1.02087 1.42452,1.17017 1.18185,0.40558 -0.10853,-0.34192 -0.002,-0.59398 0.32439,-0.76875 0.71149,-0.38078 0.99826,-0.0677 1.36873,1.49437 0.18229,0.76861 0.489,1.45794 0.68158,1.53184 0.19258,0.0739 0.7292,0.72506 1.19248,1.44703 0.74871,1.16675 0.92315,1.2965 1.56937,1.16725 0.39987,-0.08 1.51684,-0.68612 2.48215,-1.34701 0.96532,-0.66088 1.81022,-1.1465 1.87756,-1.07916 0.43831,0.43831 -1.11689,2.35118 -2.83709,3.48955 -0.56302,0.37259 -1.02367,0.73915 -1.02367,0.81458 0,0.48708 1.49018,1.93152 2.49403,2.41747 1.51134,0.73163 2.43487,0.61842 5.56337,-0.68198 1.23615,-0.51382 1.28052,-0.0176 0.0896,1.0018 -1.09216,0.93485 -1.35015,1.08204 -3.70993,2.11676 -1.36429,0.59821 -1.53248,0.77385 -2.42676,2.53415 -1.10636,2.17777 -1.15543,2.51073 -0.43618,2.95991 0.76587,0.47829 0.64544,0.90662 -0.39353,1.39964 -0.54881,0.26043 -0.91823,0.62604 -0.91823,0.90879 0,1.05866 1.15307,3.03787 2.85927,4.90786 l 1.80741,1.98091 -1.19939,1.47065 c -1.46335,1.79432 -3.16323,5.33555 -3.55778,7.41166 -0.16304,0.85787 -0.43094,1.53603 -0.60681,1.53603 -0.1732,0 -0.45107,-0.65592 -0.6175,-1.45759 z m 0.46721,-21.10653 c 0.33759,-0.50403 0.81655,-1.15253 1.06435,-1.44112 1.73734,-2.02327 1.81165,-3.28718 0.21061,-3.58241 -0.37521,-0.0692 -0.56632,0.15674 -0.81108,0.95889 -0.17612,0.57717 -0.74405,1.87064 -1.26207,2.87437 -0.51802,1.00373 -0.87989,1.92522 -0.80416,2.04775 0.26912,0.43546 0.9974,0.0457 1.60235,-0.85748 z"
         style="fill:#000000;stroke:none;stroke-width:0.264583" />
    </g>
  </g>
</svg>
