<?xml version="1.0" encoding="UTF-8" standalone="no"?>
<!-- Created with Inkscape (http://www.inkscape.org/) -->

<svg
   width="7.0782256mm"
   height="8mm"
   viewBox="0 0 7.0782257 7.9999999"
   version="1.1"
   id="svg47190"
   inkscape:version="1.1.1 (3bf5ae0d25, 2021-09-20)"
   sodipodi:docname="GStorm.svg"
   xmlns:inkscape="http://www.inkscape.org/namespaces/inkscape"
   xmlns:sodipodi="http://sodipodi.sourceforge.net/DTD/sodipodi-0.dtd"
   xmlns="http://www.w3.org/2000/svg"
   xmlns:svg="http://www.w3.org/2000/svg">
  <sodipodi:namedview
     id="namedview47192"
     pagecolor="#ffffff"
     bordercolor="#666666"
     borderopacity="1.0"
     inkscape:pageshadow="2"
     inkscape:pageopacity="0.0"
     inkscape:pagecheckerboard="0"
     inkscape:document-units="mm"
     showgrid="false"
     inkscape:zoom="14.493388"
     inkscape:cx="29.841194"
     inkscape:cy="18.249701"
     inkscape:window-width="1920"
     inkscape:window-height="1017"
     inkscape:window-x="-8"
     inkscape:window-y="-8"
     inkscape:window-maximized="1"
     inkscape:current-layer="layer1"
     inkscape:snap-bbox="true"
     inkscape:snap-bbox-midpoints="true"
     inkscape:snap-page="true" />
  <defs
     id="defs47187">
    <clipPath
       clipPathUnits="userSpaceOnUse"
       id="clipPath63680-8">
      <path
         d="M 0,0 H 595.276 V 841.89 H 0 Z"
         id="path63678-4" />
    </clipPath>
  </defs>
  <g
     inkscape:label="Layer 1"
     inkscape:groupmode="layer"
     id="layer1"
     transform="translate(-86.934703,-76.723206)">
    <g
       id="g14693"
       transform="matrix(0.23515869,0,0,0.23515869,68.907511,16.763264)">
      <path
         style="fill:#ffffff;fill-opacity:1;fill-rule:nonzero;stroke:none"
         d="m 105.75781,260.32812 -0.21875,-1.36718 -1.38672,0.0234 c -3.63281,0.0586 -6.601559,-0.67187 -8.453121,-1.29687 -1.980469,-0.66797 -3.144531,-1.36328 -3.152344,-1.36719 l -0.832031,-0.51953 -0.835938,0.51563 c -0.01563,0.008 -1.175781,0.70312 -3.160156,1.37109 -1.851562,0.625 -4.824219,1.35156 -8.457031,1.29687 l -1.382813,-0.0234 -0.21875,1.36718 C 77.625,260.55078 76.808594,265.82031 78,271.85937 c 0.710938,3.60157 1.996094,6.73047 3.8125,9.29297 2.308594,3.25391 5.464844,5.58203 9.378906,6.92578 l 0.519532,0.17969 0.515624,-0.17969 c 3.914063,-1.34375 7.070313,-3.67187 9.378908,-6.92578 1.81641,-2.5625 3.10156,-5.6914 3.8125,-9.29297 1.1875,-6.03125 0.375,-11.30859 0.33984,-11.53125"
         id="path13882" />
      <path
         style="fill:#000000;fill-opacity:1;fill-rule:nonzero;stroke:none"
         d="m 93.738281,271.64453 c 0.06641,-0.0156 0.113281,-0.0352 0.132813,-0.11719 0.0625,-0.25 -0.08594,-0.43359 -0.417969,-0.42968 -0.07422,0.0156 -0.21875,0.0312 -0.347656,0.0781 -0.375,0.13281 -0.753907,0.26563 -1.117188,0.43359 -0.453125,0.20704 -0.902343,0.42969 -1.328125,0.6836 -0.390625,0.23437 -0.75,0.51953 -1.121094,0.78906 -0.207031,0.15234 -0.394531,0.32422 -0.519531,0.55859 -0.05078,0.0977 -0.02734,0.17188 0.04297,0.23047 0.07813,0.0625 0.140625,0 0.199219,-0.0508 0.0625,-0.0625 0.117187,-0.14062 0.191406,-0.1914 0.476563,-0.32032 0.953125,-0.64454 1.441406,-0.94922 0.589844,-0.35938 1.238281,-0.58985 1.894531,-0.78907 0.3125,-0.0976 0.632813,-0.16796 0.949219,-0.24609"
         id="path13884" />
      <path
         style="fill:#000000;fill-opacity:1;fill-rule:nonzero;stroke:none"
         d="m 89.109375,271.25391 c 0.121094,-0.17188 0.230469,-0.35547 0.390625,-0.48829 0.21875,-0.17968 0.457031,-0.33593 0.695312,-0.48828 0.210938,-0.13281 0.433594,-0.2539 0.660157,-0.37109 0.242187,-0.12891 0.492187,-0.25 0.785156,-0.21094 0.01953,0.004 0.05469,-0.0156 0.07031,-0.0351 0.05859,-0.0664 0.113281,-0.15235 0.05469,-0.22266 -0.05469,-0.0703 -0.148437,-0.10547 -0.207031,-0.14063 -0.09375,0.0156 -0.15625,0.0117 -0.210938,0.0352 -0.300781,0.12891 -0.605468,0.25 -0.898437,0.40234 -0.246094,0.12891 -0.492188,0.28516 -0.710938,0.45704 -0.339843,0.26953 -0.65625,0.5664 -0.984375,0.85156 -0.08984,0.082 -0.203125,0.14453 -0.265625,0.24609 -0.105469,0.16797 -0.175781,0.36328 -0.257812,0.54688 -0.03125,0.0703 0.02734,0.13672 0.105469,0.11718 0.03906,-0.008 0.07812,-0.0273 0.113281,-0.0508 0.269531,-0.16406 0.484375,-0.39062 0.660156,-0.64843"
         id="path13886" />
      <path
         style="fill:#000000;fill-opacity:1;fill-rule:nonzero;stroke:none"
         d="m 94.550781,275.83984 c 0.04297,0.0117 0.08594,0.0274 0.128907,0.0508 0.210937,0.10938 0.402343,0.0703 0.585937,-0.0703 0.195313,-0.14844 0.308594,-0.46875 0.21875,-0.65625 -0.02344,-0.0469 -0.05859,-0.0937 -0.09375,-0.13672 -0.136719,-0.17578 -0.472656,-0.27343 -0.632813,-0.19531 -0.289062,0.13281 -0.386718,0.37891 -0.421874,0.66797 -0.01563,0.15234 0.04297,0.29297 0.214843,0.33984"
         id="path13888" />
      <path
         style="fill:#000000;fill-opacity:1;fill-rule:nonzero;stroke:none"
         d="m 92.394531,275.58984 c -0.144531,-0.0156 -0.273437,0.0899 -0.375,0.21875 -0.105469,0.12891 -0.179687,0.28125 -0.15625,0.45313 0.02344,0.18359 0.117188,0.3125 0.296875,0.37109 0.03125,0.0117 0.05859,0.0312 0.08984,0.0469 0.160156,0.0937 0.304688,0.0703 0.449219,-0.043 0.167969,-0.12891 0.253906,-0.3125 0.367187,-0.48047 0.01172,-0.0195 0.01172,-0.0586 0.0039,-0.0859 -0.109374,-0.29687 -0.308593,-0.48047 -0.675781,-0.48047"
         id="path13890" />
      <path
         style="fill:#000000;fill-opacity:1;fill-rule:nonzero;stroke:none"
         d="m 95.609375,276.55469 c -0.08594,-0.0469 -0.175781,-0.0781 -0.265625,-0.1211 -0.1875,-0.0859 -0.386719,-0.12109 -0.59375,-0.0976 -0.304688,0.0351 -0.59375,0.11718 -0.859375,0.26953 -0.195313,0.11328 -0.371094,0.24609 -0.429687,0.48437 -0.02344,0.082 0,0.14844 0.08203,0.1875 0.07031,0.0312 0.15625,0.10157 0.210937,-0.0117 0.09375,-0.1875 0.277344,-0.22656 0.449219,-0.29296 0.253906,-0.0937 0.503906,-0.20313 0.789063,-0.16797 0.171874,0.0234 0.34375,0.043 0.554687,0.0664 0.02344,-0.0234 0.07031,-0.0586 0.09375,-0.10547 0.03906,-0.0742 0.05859,-0.16015 -0.03125,-0.21093"
         id="path13892" />
      <path
         style="fill:#000000;fill-opacity:1;fill-rule:nonzero;stroke:none"
         d="m 97.070312,274.98047 c 0.296876,0.004 0.609376,-0.25 0.648438,-0.53906 0.01953,-0.14844 -0.01953,-0.31641 -0.167969,-0.38672 -0.269531,-0.12891 -0.535156,-0.125 -0.796875,0.0117 -0.171875,0.0859 -0.296875,0.28906 -0.269531,0.42968 0.05469,0.26563 0.316406,0.48047 0.585937,0.48438"
         id="path13894" />
      <path
         style="fill:#000000;fill-opacity:1;fill-rule:nonzero;stroke:none"
         d="m 97.648438,275.46094 c -0.171876,-0.0977 -0.363282,-0.11719 -0.554688,-0.10157 -0.300781,0.0234 -0.570312,0.14454 -0.808594,0.32813 -0.175781,0.13672 -0.34375,0.28906 -0.414062,0.51562 -0.02734,0.0859 -0.0039,0.14063 0.07031,0.17969 0.04687,0.0234 0.09766,0.0352 0.15625,0.0586 0.08594,-0.19141 0.394532,-0.41016 0.667969,-0.55079 0.210937,-0.10937 0.410156,-0.11328 0.625,-0.0391 0.0625,0.0234 0.125,0.0547 0.1875,0.0664 0.04687,0.004 0.113281,-0.004 0.144531,-0.0352 0.125,-0.13281 0.08984,-0.33203 -0.07422,-0.42187"
         id="path13896" />
      <path
         style="fill:#000000;fill-opacity:1;fill-rule:nonzero;stroke:none"
         d="m 91.632812,270.13281 c -0.05469,0.1211 -0.09375,0.2461 -0.140624,0.36719 -0.04297,0.11719 -0.02734,0.21875 0.07812,0.29687 0.02734,0.0195 0.04297,0.0547 0.07422,0.0703 0.08594,0.0586 0.179688,0.11328 0.28125,0.17187 0.148438,-0.0586 0.289063,-0.0937 0.40625,-0.17187 0.203125,-0.13672 0.207031,-0.44141 0.01563,-0.58203 -0.179687,-0.13282 -0.390625,-0.1875 -0.609375,-0.21094 -0.03125,-0.004 -0.09375,0.0273 -0.105469,0.0586"
         id="path13898" />
      <path
         style="fill:#000000;fill-opacity:1;fill-rule:nonzero;stroke:none"
         d="m 90.355469,270.86719 c -0.164063,0.008 -0.21875,0.1289 -0.261719,0.25781 -0.01953,0.0547 -0.04297,0.10547 -0.0625,0.16016 -0.01953,0.0703 0.04297,0.29296 0.101562,0.3125 0.144532,0.0586 0.292969,0.10156 0.441407,0.14843 0.0039,-0.008 0.0039,-0.0195 0.0078,-0.0273 0.179688,0.008 0.316407,-0.0742 0.390625,-0.23438 0.07813,-0.15625 0.0078,-0.29296 -0.08594,-0.42187 -0.0078,-0.0117 -0.01563,-0.0234 -0.02344,-0.0352 -0.132812,-0.17578 -0.320312,-0.17187 -0.507812,-0.16015"
         id="path13900" />
      <path
         style="fill:#000000;fill-opacity:1;fill-rule:nonzero;stroke:none"
         d="m 93.09375,277.07422 c -0.0625,-0.0156 -0.125,-0.0312 -0.1875,-0.043 -0.390625,-0.0625 -0.882812,0.10937 -1.101562,0.48047 -0.08203,0.14453 -0.05859,0.22656 0.101562,0.26172 0.05078,0.0117 0.125,-0.0156 0.175781,-0.0469 0.207031,-0.13281 0.40625,-0.28515 0.675781,-0.25 0.06641,0.008 0.132813,0.0274 0.210938,0.043 0.04297,-0.0117 0.09375,-0.0156 0.140625,-0.0352 0.101563,-0.0469 0.164063,-0.1289 0.164063,-0.23828 0,-0.11328 -0.08594,-0.15234 -0.179688,-0.17187"
         id="path13902" />
      <path
         style="fill:#000000;fill-opacity:1;fill-rule:nonzero;stroke:none"
         d="m 89.171875,272.9375 c 0.226563,-0.0195 0.375,-0.16406 0.363281,-0.33594 -0.01953,-0.24219 -0.273437,-0.48437 -0.527344,-0.50781 -0.06641,0.0195 -0.136718,0.0352 -0.199218,0.0664 -0.164063,0.0742 -0.257813,0.29296 -0.203125,0.4414 0.08594,0.22266 0.382812,0.35156 0.566406,0.33594"
         id="path13904" />
      <path
         style="fill:#000000;fill-opacity:1;fill-rule:nonzero;stroke:none"
         d="m 93.246094,270.63672 c 0.191406,0.008 0.265625,-0.0899 0.183594,-0.22656 -0.109376,-0.16797 -0.242188,-0.32032 -0.378907,-0.46485 -0.03125,-0.0351 -0.136719,-0.0312 -0.183593,-0.008 -0.128907,0.0664 -0.171876,0.3125 -0.08594,0.42578 0.121094,0.16797 0.296875,0.24219 0.464844,0.27344"
         id="path13906" />
      <path
         style="fill:#000000;fill-opacity:1;fill-rule:nonzero;stroke:none"
         d="m 106.44531,260.21875 -0.3125,-1.96484 -1.98828,0.0312 c -3.5039,0.0586 -6.36328,-0.63672 -8.148436,-1.23438 -1.890625,-0.62891 -3.011719,-1.28516 -3.089844,-1.32812 l -1.1875,-0.7461 -1.210938,0.7461 c -0.01172,0.008 -1.0625,0.64062 -2.941406,1.28125 -1.8125,0.61718 -4.722656,1.33984 -8.292968,1.28125 l -1.988282,-0.0312 -0.3125,1.96484 c -0.03516,0.22656 -0.871094,5.62109 0.34375,11.77344 1.671875,8.46484 6.390625,14.25781 13.648438,16.74609 l 0.742187,0.25781 0.746094,-0.25781 c 7.257813,-2.48828 11.976565,-8.28125 13.648435,-16.74609 1.21485,-6.15235 0.38282,-11.54688 0.34375,-11.77344 m -1.46875,11.55078 c -0.69922,3.53906 -1.95703,6.60938 -3.73828,9.12109 -2.253905,3.17579 -5.33203,5.44922 -9.156249,6.76563 l -0.375,0.125 -0.371093,-0.125 c -3.824219,-1.31641 -6.902344,-3.58984 -9.152344,-6.76563 -1.785156,-2.51171 -3.042969,-5.58203 -3.742188,-9.12109 -1.175781,-5.95312 -0.371094,-11.15234 -0.335937,-11.37109 l 0.15625,-0.98047 0.996093,0.0156 c 3.699219,0.0586 6.722657,-0.68359 8.605469,-1.3164 2.046875,-0.69532 3.234375,-1.41016 3.246094,-1.41797 l 0.605469,-0.3711 0.59375,0.375 c 0.01172,0.004 1.199218,0.71875 3.25,1.41407 1.882812,0.63281 4.902346,1.375 8.601566,1.3164 l 0.99609,-0.0156 0.15625,0.98047 c 0.0352,0.21875 0.83984,5.41797 -0.33594,11.37109"
         id="path13908" />
      <path
         style="fill:#000000;fill-opacity:1;fill-rule:nonzero;stroke:none"
         d="m 104.55859,260.51953 -0.0508,-0.32812 -0.33203,0.008 c -3.83594,0.0625 -6.964842,-0.71485 -8.914061,-1.375 -2.117188,-0.71875 -3.339844,-1.46485 -3.351563,-1.46875 l -0.199218,-0.125 -0.203126,0.12109 c -0.01172,0.008 -1.234374,0.75391 -3.351562,1.47266 -1.949219,0.66015 -5.078125,1.4375 -8.914062,1.375 l -0.328126,-0.008 -0.05469,0.32812 c -0.0078,0.0547 -0.207031,1.33594 -0.269531,3.34766 -0.05469,1.85937 0.0039,4.71093 0.605468,7.7539 0.675782,3.4336 1.890626,6.40625 3.609376,8.82813 2.15625,3.04297 5.109374,5.22265 8.78125,6.48047 l 0.125,0.043 0.121093,-0.043 c 3.671875,-1.25782 6.625,-3.4375 8.781252,-6.48047 1.71875,-2.42188 2.9336,-5.39453 3.61328,-8.82813 0.60157,-3.04297 0.66016,-5.89453 0.60157,-7.7539 -0.0625,-2.01172 -0.26172,-3.29297 -0.26954,-3.34766 m -1.08203,10.95313 c -0.65625,3.32812 -1.83203,6.19921 -3.488282,8.53515 -2.035156,2.875 -4.820312,4.94531 -8.277343,6.15625 -3.453126,-1.21094 -6.238282,-3.27734 -8.277344,-6.14844 -1.652344,-2.33203 -2.828125,-5.19921 -3.484375,-8.51953 -0.964844,-4.87109 -0.53125,-9.3164 -0.378907,-10.53125 0.03906,0 0.07422,0 0.109376,0 3.75,0 6.8125,-0.76953 8.75,-1.42578 1.710937,-0.58594 2.84375,-1.17578 3.28125,-1.41797 0.433593,0.24219 1.566406,0.83203 3.277343,1.41797 1.957031,0.66406 5.058602,1.44141 8.859382,1.42578 0.15234,1.21485 0.58593,5.64453 -0.3711,10.50782"
         id="path13910" />
      <path
         style="fill:#000000;fill-opacity:1;fill-rule:nonzero;stroke:none"
         d="m 100.55469,274.89453 c -0.082,-0.3125 -0.28125,-0.53516 -0.49219,-0.75781 -0.109375,-0.11719 -0.230469,-0.22656 -0.363281,-0.31641 -0.183594,-0.1289 -0.355469,-0.26562 -0.503907,-0.4375 -0.08594,-0.0976 -0.21875,-0.15625 -0.328124,-0.23047 -0.222657,-0.15625 -0.449219,-0.30468 -0.664063,-0.46875 -0.503906,-0.38281 -1.007813,-0.76562 -1.566406,-1.07812 -0.238281,-0.13281 -0.484375,-0.26172 -0.734375,-0.36719 -0.261719,-0.10937 -0.449219,-0.31641 -0.683594,-0.46484 -0.332031,-0.21485 -0.671875,-0.41407 -1.007812,-0.625 -0.03125,-0.0195 -0.0625,-0.0547 -0.07813,-0.0899 -0.304687,-0.67578 -0.609374,-1.35547 -0.917968,-2.03515 -0.175782,-0.39063 -0.347656,-0.78516 -0.53125,-1.17578 -0.226563,-0.49219 -0.472656,-0.97266 -0.691406,-1.46875 -0.125,-0.27344 -0.246094,-0.55079 -0.273438,-0.85938 -0.0039,-0.0391 -0.05859,-0.0742 -0.07813,-0.11719 -0.175781,-0.38281 -0.355469,-0.75781 -0.515625,-1.14453 -0.3125,-0.76562 -0.613281,-1.53125 -0.921875,-2.29687 -0.02344,-0.0664 -0.277344,-0.76563 -0.378906,-1.1211 -0.351563,0.13672 -0.734375,0.28125 -1.148438,0.42188 -1.890625,0.64453 -4.828125,1.39062 -8.417969,1.46484 -0.09766,1.01563 -0.210937,2.76563 -0.117187,4.875 0.05078,0.0703 0.113281,0.13281 0.179687,0.19141 0.207032,0.18359 0.421876,0.34765 0.621094,0.53515 0.226563,0.21094 0.433594,0.44141 0.660156,0.65235 0.109376,0.10156 0.257813,0.16015 0.355469,0.26562 0.183594,0.19141 0.417969,0.30469 0.617188,0.46875 0.394531,0.33203 0.785156,0.67188 1.171875,1.01953 0.539062,0.48047 1.070312,0.97266 1.609375,1.45704 0.375,0.33203 0.75,0.65625 1.1875,0.90234 0.01172,0.008 0.03516,0.0156 0.03516,0.0234 -0.01953,0.13281 0.101563,0.125 0.167969,0.16015 0.535156,0.26563 0.925781,0.65625 1.03125,1.25782 0.05078,0.30859 0.04297,0.625 0.05469,0.9375 0.01953,0.35156 0.03125,0.70312 0.05078,1.05468 0.01172,0.17969 0.02734,0.19532 0.207032,0.17969 0.113281,-0.0117 0.171875,0.0664 0.226562,0.14063 0.292969,0.39062 0.648438,0.71875 0.992188,1.0625 0.07031,0.0664 0.140625,0.13671 0.203125,0.21484 0.04687,0.0547 0.05078,0.10547 -0.01563,0.16406 -0.09766,0.082 -0.191406,0.17188 -0.277344,0.26563 -0.234375,0.2539 -0.332031,0.55859 -0.316406,0.90625 0.02734,0.60937 0.05078,1.21875 0.07422,1.82812 0.0078,0.17969 -0.01953,0.36328 0.01953,0.53906 0.07422,0.35157 0.292968,0.61719 0.566406,0.84766 0.324219,0.26563 0.636719,0.55078 0.96875,0.80859 0.199219,0.15625 0.429688,0.26954 0.636719,0.41407 0.222656,0.15625 0.460937,0.26953 0.726562,0.32422 0.128907,0.0312 0.257813,0.0508 0.386719,0.0625 0.03516,0.004 0.08203,-0.0312 0.113281,-0.0586 0.175781,-0.15625 0.347657,-0.3164 0.523438,-0.46875 0.04687,-0.0391 0.113281,-0.0586 0.171875,-0.0742 0.222656,-0.0469 0.414062,0.0312 0.59375,0.14844 0.324218,0.21484 0.640625,0.16406 0.964844,-0.008 0.230468,-0.125 0.425781,-0.28906 0.609374,-0.47656 0.144532,-0.14454 0.296876,-0.28125 0.449219,-0.41407 0.02734,-0.0273 0.09766,-0.043 0.125,-0.0273 0.160157,0.10156 0.324219,0.0508 0.488281,0.0391 0.195313,-0.0156 0.375,-0.0625 0.550782,-0.15234 0.08984,-0.0469 0.171875,-0.10547 0.246094,-0.17188 0.02734,-0.0234 0.05078,-0.0508 0.07812,-0.0742 l 0.0039,-0.004 c 0.05469,-0.0547 0.105469,-0.10938 0.160156,-0.16406 0.01953,-0.0274 0.04297,-0.0508 0.06641,-0.0742 0.09375,-0.0977 0.175781,-0.20703 0.265625,-0.30469 0.02344,-0.0234 0.0625,-0.0469 0.09375,-0.0469 0.03906,0.004 0.07813,0.008 0.117188,0.008 0.01563,0.004 0.03516,0.004 0.05078,0.004 0.02344,0.004 0.04297,0.004 0.06641,0.008 0.02344,0 0.04687,0.004 0.07031,0.004 0.01563,0 0.03125,0.004 0.04687,0.004 0.03125,0.004 0.0625,0.004 0.09375,0.008 0.02344,0.004 0.04687,0.004 0.07422,0.008 l 0.46875,-0.3789 0.273437,-0.39844 0.324219,-0.71094 c 0.02734,-0.0742 0.05859,-0.14453 0.08594,-0.21875 0.05078,-0.13672 0.105469,-0.26953 0.160157,-0.40234 0.0625,-0.16016 0.125,-0.32031 0.1875,-0.48047 0,-0.004 0,-0.004 0.0039,-0.004 0.144531,-0.36718 0.285158,-0.73437 0.414068,-1.10937 0.15625,-0.45703 0.29297,-0.92578 0.32812,-1.41406 0.0156,-0.20704 -0.004,-0.41797 0.0352,-0.6211 0.0234,-0.13281 0.004,-0.23828 -0.0312,-0.36328 m -10.85938,4.37109 c -0.0625,-0.375 -0.105468,-0.7539 -0.03125,-1.1289 0.02344,-0.10938 0.04688,-0.22656 0.160157,-0.29688 0.171875,-0.10547 0.230469,-0.11328 0.386719,0.0117 0.07812,0.0625 0.148437,0.13672 0.214843,0.21485 0.01953,0.0195 0.02734,0.0625 0.02344,0.0898 -0.07813,0.375 -0.04687,0.75391 0.01563,1.12891 0.01563,0.082 0.0039,0.11328 -0.07422,0.14062 -0.191406,0.0664 -0.378906,0.14063 -0.59375,0.22266 -0.03516,-0.13282 -0.07813,-0.25782 -0.101563,-0.38282 m 0.78125,2.11719 c -0.257812,-0.14453 -0.453124,-0.30469 -0.582031,-0.53906 -0.05859,-0.10156 -0.03125,-0.19531 0.0078,-0.29688 0.05078,-0.14453 0.164062,-0.23046 0.273437,-0.3125 0.03125,-0.0234 0.105469,-0.0156 0.152344,0 0.03906,0.0156 0.09375,0.0586 0.101563,0.0977 0.03906,0.26172 0.07031,0.52344 0.09375,0.78906 0.0078,0.082 -0.02734,0.16407 -0.04688,0.26172 M 91.359375,279.75 c 0.164063,0.31641 0.445313,0.48047 0.785156,0.55078 0.1875,0.0352 0.347657,-0.0742 0.511719,-0.15234 0.140625,-0.0664 0.277344,-0.14453 0.421875,-0.20703 0.125,-0.0508 0.1875,-0.004 0.179687,0.13281 -0.0078,0.13672 -0.03906,0.27344 -0.0625,0.40625 -0.04687,0.23828 -0.09375,0.48047 -0.15625,0.71484 -0.07031,0.27735 -0.15625,0.54688 -0.238281,0.81641 -0.0078,0.0273 -0.02344,0.0586 -0.04687,0.0742 -0.109375,0.0703 -0.226562,0.13281 -0.332031,0.21093 -0.113281,0.082 -0.214844,0.0937 -0.347656,0.0391 -0.203125,-0.082 -0.398438,-0.17188 -0.550781,-0.33594 -0.175782,-0.19531 -0.246094,-0.41797 -0.257813,-0.67188 -0.01172,-0.19531 -0.03906,-0.38671 -0.04687,-0.58203 -0.0039,-0.10156 0.01953,-0.20703 0.02344,-0.3125 0.0039,-0.082 -0.0078,-0.16406 -0.0078,-0.24218 -0.0039,-0.3086 -0.01563,-0.61719 -0.01172,-0.92188 0,-0.13281 0.01953,-0.26953 0.04687,-0.40234 0.01563,-0.10157 0.06641,-0.19141 0.02734,-0.30469 -0.01172,-0.0352 0.03906,-0.0937 0.0625,-0.14453 0.04297,0.0273 0.09375,0.043 0.125,0.082 0.15625,0.18359 0.332031,0.33594 0.566406,0.42578 0.167969,0.0625 0.320313,0.0352 0.476563,-0.004 0.199218,-0.043 0.398437,-0.0859 0.597656,-0.1289 0.05078,-0.008 0.105469,0 0.167969,0 0,0.22265 -0.02734,0.42969 -0.144531,0.60156 -0.05859,0.0859 -0.183594,0.13672 -0.285157,0.1875 -0.101562,0.0547 -0.210937,0.10156 -0.324219,0.13672 -0.246093,0.082 -0.425781,-0.0586 -0.597656,-0.20313 -0.06641,-0.0586 -0.117187,-0.13281 -0.179687,-0.20312 -0.105469,-0.125 -0.269531,-0.0977 -0.324219,0.0547 -0.03516,0.10156 -0.05859,0.21093 -0.08594,0.3164 -0.0039,0.0195 -0.0039,0.0469 0.0078,0.0664 m 4.085937,-0.19922 c -0.01172,0.14063 -0.04297,0.28125 -0.0625,0.42188 -0.03516,0.33593 -0.06641,0.67187 -0.105468,1.00781 -0.03125,0.26953 -0.109375,0.52344 -0.347656,0.6914 -0.191407,0.14063 -0.390626,0.27735 -0.589844,0.41407 -0.07031,0.0469 -0.140625,0.0391 -0.222656,0.004 -0.191407,-0.082 -0.359376,-0.1914 -0.488282,-0.35547 -0.05469,-0.0625 -0.07422,-0.12109 -0.05469,-0.20703 0.121093,-0.59375 0.242187,-1.1914 0.367187,-1.78906 0.0078,-0.0391 0.02344,-0.0781 0.03906,-0.12109 0.351562,0.14843 0.667969,0.0508 0.976562,-0.10547 0.08594,-0.0391 0.167969,-0.0859 0.253907,-0.125 0.164062,-0.0664 0.25,-0.008 0.234374,0.16406 m -1.925781,-0.94922 c 0.02734,-0.0547 0.05469,-0.0976 0.07813,-0.13672 0.0625,-0.10156 0.121094,-0.19922 0.1875,-0.29297 0.01953,-0.0273 0.0625,-0.0391 0.09766,-0.0508 0.02344,-0.008 0.05078,0.004 0.07422,0.0156 0.203125,0.0937 0.402344,0.0547 0.605469,-0.0117 0.214844,-0.0703 0.433594,-0.125 0.652344,-0.1875 0.03906,-0.008 0.08984,-0.0117 0.128906,0 0.02734,0.008 0.05469,0.0625 0.05078,0.0859 -0.01953,0.12109 -0.03516,0.24218 -0.07813,0.35156 -0.105468,0.30078 -0.320312,0.49219 -0.609375,0.62891 -0.285156,0.13671 -0.535156,0.008 -0.792969,-0.0625 -0.0078,0 -0.01953,-0.0117 -0.02344,-0.0195 -0.05469,-0.17968 -0.191406,-0.26171 -0.371094,-0.32031 m 3.925781,0.85547 c -0.02344,0.0859 -0.06641,0.17188 -0.05078,0.25 0.04687,0.29297 -0.132812,0.52734 -0.183593,0.79297 -0.02344,0.10937 -0.08203,0.20703 -0.203126,0.25 -0.0039,0.004 -0.01172,0.004 -0.01562,0.008 0,0 0,0 -0.0039,0 -0.0039,0.004 -0.0039,0.004 -0.0078,0.008 0,0 -0.0039,0.004 -0.0039,0.004 -0.0039,0 -0.0078,0.004 -0.01172,0.008 v 0.004 c -0.0039,0.004 -0.0078,0.008 -0.01172,0.0117 -0.01172,0.0117 -0.01953,0.0273 -0.02734,0.0391 -0.09375,0.16406 -0.214843,0.30078 -0.382812,0.39063 -0.08984,0.043 -0.179688,0.0508 -0.273438,0.008 -0.09766,-0.0508 -0.199219,-0.0899 -0.296875,-0.14063 -0.140625,-0.0742 -0.167968,-0.19531 -0.167968,-0.35156 -0.0039,-0.38672 0.07031,-0.76562 0.125,-1.14453 0.02734,-0.19922 0.07422,-0.40234 0.132812,-0.59375 0.05078,-0.1875 0.128906,-0.23828 0.273438,-0.22656 0.09375,0.008 0.195312,0.008 0.289062,0.0273 0.300781,0.0586 0.542969,-0.0508 0.757812,-0.25 0.05859,-0.0508 0.132813,-0.082 0.207032,-0.11328 0.05859,-0.0234 0.08984,-0.008 0.07422,0.0703 -0.06641,0.28125 -0.128906,0.5625 -0.195312,0.84375 -0.0039,0.0234 -0.0078,0.0469 -0.01563,0.0703 0,0.0117 -0.0039,0.0234 -0.0078,0.0352 m 1.566407,-0.73437 c -0.01172,0.0508 -0.02344,0.0976 -0.03906,0.14453 -0.01563,0.0547 -0.03125,0.10547 -0.05078,0.15625 -0.04687,0.14453 -0.09766,0.30078 -0.183594,0.42187 -0.01172,0.0195 -0.02734,0.0352 -0.03906,0.0547 -0.06641,0.0781 -0.113281,0.16016 -0.160157,0.24219 -0.01562,0.0312 -0.03125,0.0586 -0.04687,0.0859 -0.02734,0.043 -0.08984,0.0859 -0.148438,0.10547 -0.01563,0.004 -0.03906,0.008 -0.05469,0.008 -0.101562,0 -0.214843,-0.0352 -0.300781,-0.0899 -0.04297,-0.0273 -0.0625,-0.13672 -0.04687,-0.19922 0.01953,-0.0898 0.04297,-0.17578 0.0625,-0.26172 0.0039,-0.0195 0.0078,-0.0391 0.01563,-0.0547 0.01563,-0.0781 0.03516,-0.15235 0.05469,-0.23047 0.105469,-0.42188 0.214843,-0.84375 0.308593,-1.26563 0.03516,-0.16015 0.117188,-0.21875 0.253907,-0.24218 0.171875,-0.0312 0.339843,-0.0664 0.53125,-0.10157 -0.01563,0.0547 -0.02344,0.0859 -0.03125,0.1211 0.05078,0.0117 0.101562,0.0234 0.160156,0.0391 -0.05859,0.22266 -0.117187,0.44922 -0.175781,0.67187 -0.03906,0.13282 -0.07031,0.26563 -0.109375,0.39454 m 0.691406,-2.21875 c -0.02344,0.12109 -0.09375,0.1914 -0.203125,0.21093 -0.253906,0.043 -0.511719,0.0859 -0.769531,0.10157 -0.08203,0.004 -0.171875,-0.0742 -0.253907,-0.11719 -0.07031,-0.0391 -0.128906,-0.0703 -0.214843,-0.0156 -0.08984,0.0586 -0.195313,0.0859 -0.316407,0.10938 0.04297,-0.0899 0.08984,-0.17969 0.136719,-0.26563 0.04687,-0.0859 0.04297,-0.23047 -0.04297,-0.28906 -0.05078,-0.0312 -0.15625,-0.043 -0.214843,-0.0156 -0.183594,0.0937 -0.355469,0.21093 -0.535157,0.3125 -0.292968,0.16406 -0.597656,0.17968 -0.90625,0.0664 -0.06641,-0.0234 -0.105468,-0.0234 -0.148437,0.0352 -0.03516,0.0469 -0.08203,0.0859 -0.121094,0.13281 -0.113281,0.12891 -0.07813,0.28906 0.08594,0.35547 0.125,0.0547 0.257812,0.0937 0.390625,0.13281 0.03125,0.0117 0.06641,0 0.101562,-0.004 0.375,-0.0547 0.722656,-0.20704 1.078125,-0.33594 0.03125,-0.0156 0.0625,-0.0274 0.09375,-0.0352 0.0078,0.004 0.01563,0.008 0.02344,0.0156 -0.164063,0.23828 -0.167969,0.52343 -0.230469,0.79297 -0.0039,0.0156 -0.01563,0.0351 -0.03125,0.043 -0.257812,0.16407 -0.5,0.36329 -0.824219,0.37891 -0.226562,0.0117 -0.457031,0.0156 -0.675781,-0.0508 -0.07422,-0.0234 -0.148438,-0.0469 -0.175781,-0.14063 -0.01563,-0.0547 -0.07422,-0.0937 -0.125,-0.15625 0.02344,-0.0391 0.0625,-0.0976 0.101562,-0.15234 0.03125,-0.043 0.07031,-0.082 0.09375,-0.12891 0.08594,-0.16796 0.03906,-0.25 -0.136719,-0.3164 -0.273437,-0.10938 -0.472656,-0.008 -0.667968,0.17969 -0.08203,0.0742 -0.195313,0.12109 -0.300782,0.16796 -0.117187,0.0547 -0.242187,0.11329 -0.367187,0.13672 -0.121094,0.0234 -0.253906,0.004 -0.378906,0.004 -0.05859,0 -0.121094,-0.004 -0.179688,-0.004 -0.136719,0 -0.226562,0.0664 -0.257812,0.19532 -0.02344,0.0742 -0.06641,0.0976 -0.144531,0.11328 -0.117188,0.0234 -0.230469,0.0664 -0.34375,0.10937 -0.07031,0.0274 -0.136719,0.0664 -0.199219,0.10547 -0.363281,0.23047 -0.746094,0.19531 -1.136719,0.0898 -0.152344,-0.0391 -0.304688,-0.0703 -0.464844,-0.10937 0.04297,-0.0859 0.07813,-0.16406 0.121094,-0.23438 0.06641,-0.10937 0.03516,-0.20703 -0.03906,-0.29296 -0.113282,-0.14063 -0.257813,-0.26563 -0.34375,-0.41797 -0.132813,-0.25 -0.375,-0.375 -0.5625,-0.56641 -0.328126,-0.33984 -0.660157,-0.67969 -0.988282,-1.02734 -0.183594,-0.19141 -0.371094,-0.38282 -0.542968,-0.58594 -0.04688,-0.0547 -0.07422,-0.13672 -0.07422,-0.21094 -0.01172,-0.3125 -0.105469,-0.60547 -0.191407,-0.90234 -0.09375,-0.32422 -0.183593,-0.64844 -0.25,-0.98047 -0.04297,-0.23047 -0.175781,-0.38281 -0.351562,-0.51172 -0.238281,-0.17187 -0.472656,-0.35156 -0.722656,-0.49609 -0.390625,-0.23438 -0.671875,-0.58203 -0.992188,-0.89453 -0.261718,-0.25782 -0.542968,-0.50391 -0.8125,-0.75782 -0.1875,-0.17578 -0.363281,-0.36328 -0.558594,-0.53125 -0.25,-0.22265 -0.519531,-0.42578 -0.765624,-0.64843 -0.277344,-0.2461 -0.53125,-0.51172 -0.804688,-0.76172 -0.105469,-0.0937 -0.230469,-0.16407 -0.34375,-0.2461 -0.101562,-0.082 -0.207031,-0.16406 -0.300781,-0.2539 -0.339844,-0.32032 -0.671875,-0.65235 -1.019531,-0.96485 -0.265626,-0.23828 -0.445313,-0.36328 -0.71875,-0.59375 -0.160157,-0.13672 -0.277344,-0.53906 -0.246094,-0.77343 0.05078,-0.39454 -0.03125,-0.65235 0.04687,-1.04297 0.02734,-0.14063 0,-0.26953 0.01563,-0.40235 0.02344,-0.22656 -0.113282,-0.34765 -0.07031,-0.57031 0.08203,-0.39453 0.04687,-0.58594 0.140625,-0.98047 0.03125,-0.12109 0.554688,-0.0742 0.675782,-0.0781 0.441406,-0.0234 0.746093,-0.16407 1.203124,-0.1836 0.394532,-0.0156 0.773438,-0.043 1.167969,-0.0508 0.246094,-0.004 0.535157,-0.20312 0.78125,-0.21875 0.09375,-0.008 0.191407,0.004 0.285157,0 0.136718,-0.0117 0.28125,-0.008 0.410156,-0.0469 0.207031,-0.0586 0.207031,-0.15625 0.402344,-0.0664 0.04687,0.0234 0.351562,0.008 0.417968,0.0312 0.01172,-0.15625 0.07422,-0.0352 0.183594,-0.0547 0.07031,-0.008 0.136719,-0.043 0.207031,-0.0586 0.07031,-0.0117 0.160157,-0.0391 0.21875,-0.0117 0.113281,0.0547 0.1875,0 0.285157,-0.0352 0.144531,-0.0547 0.308593,-0.0625 0.457031,-0.10156 0.175781,-0.0469 0.34375,-0.10937 0.515625,-0.16406 0.01563,-0.004 0.03516,0.004 0.05078,0.004 0.1875,0.0234 0.160156,-0.0274 0.34375,-0.12891 0.0625,-0.0391 0.195313,-0.0625 0.277344,-0.12891 0.08594,-0.0664 0.210937,-0.0547 0.222656,-0.0508 0.25,0.0781 0.253906,0.65625 0.355469,0.84766 0.164062,0.32422 0.339844,0.63672 0.5,0.96094 0.144531,0.28515 0.265625,0.57812 0.398437,0.86718 0.15625,0.33594 0.300781,0.6836 0.476563,1.01172 0.359375,0.69141 0.691406,1.39063 1.019531,2.09766 0.304687,0.66797 0.65625,1.3125 0.980469,1.96875 0.179687,0.36328 0.359375,0.73047 0.507812,1.10937 0.175782,0.44141 0.453125,0.76953 0.898438,0.94532 0.01953,0.008 0.03906,0.008 0.05469,0.0195 0.1875,0.1875 0.433594,0.28906 0.640625,0.45312 0.207032,0.16797 0.433594,0.32031 0.65625,0.46485 0.425782,0.28125 0.859375,0.55859 1.292969,0.83203 0.316406,0.19922 0.648437,0.375 0.960937,0.58203 0.230469,0.15625 0.433594,0.34765 0.65625,0.51562 0.203126,0.15235 0.414063,0.29688 0.632813,0.45313 -0.0039,0.0664 -0.05469,0.10937 -0.148437,0.13672 -0.375,0.10937 -0.675782,0.3125 -0.820313,0.6914 -0.02344,0.0625 -0.01563,0.14844 0,0.21485 0.02344,0.0898 0.07813,0.17187 0.109375,0.26172 0.01172,0.0312 -0.0039,0.0781 -0.01172,0.11718 -0.0039,0.0195 -0.01953,0.0391 -0.02734,0.0586 -0.07813,0.19922 -0.05078,0.26562 0.167968,0.30078 0.285156,0.0508 0.550782,-0.0156 0.808594,-0.12891 0.105469,-0.0508 0.210938,-0.10156 0.308594,-0.16797 0.09766,-0.0625 0.171875,-0.0391 0.257812,0.0195 -0.05078,0.23829 -0.105468,0.46875 -0.144531,0.70704 m 0.117187,-1.29688 c -0.136718,-0.0273 -0.238281,0.0234 -0.347656,0.0898 -0.101562,0.0664 -0.203125,0.12891 -0.3125,0.17969 -0.05078,0.0234 -0.117187,0.0195 -0.171875,0.0312 -0.148437,0.0352 -0.292969,0.0703 -0.476562,0.11328 0.02734,-0.11718 0.0625,-0.21093 0.07031,-0.30468 0.02344,-0.21875 0.167969,-0.32032 0.355469,-0.36719 0.238281,-0.0586 0.476562,-0.125 0.71875,-0.14844 0.203125,-0.0195 0.28125,0.0664 0.308594,0.25 0.01953,0.11719 -0.03125,0.17578 -0.144532,0.15625"
         id="path13912" />
    </g>
  </g>
</svg>
