<?xml version="1.0" encoding="UTF-8" standalone="no"?>
<!-- Created with Inkscape (http://www.inkscape.org/) -->

<svg
   width="13.070788mm"
   height="4.391819mm"
   viewBox="0 0 13.070788 4.391819"
   version="1.1"
   id="svg5"
   sodipodi:docname="inkporter-svg-1zhk8ahw.svg"
   xmlns:inkscape="http://www.inkscape.org/namespaces/inkscape"
   xmlns:sodipodi="http://sodipodi.sourceforge.net/DTD/sodipodi-0.dtd"
   xmlns="http://www.w3.org/2000/svg"
   xmlns:svg="http://www.w3.org/2000/svg">
  <sodipodi:namedview
     id="namedview7"
     pagecolor="#ffffff"
     bordercolor="#666666"
     borderopacity="1.0"
     inkscape:pageshadow="2"
     inkscape:pageopacity="0.0"
     inkscape:pagecheckerboard="0"
     inkscape:document-units="mm"
     showgrid="false"
     inkscape:snap-bbox="true"
     inkscape:snap-bbox-edge-midpoints="false"
     inkscape:snap-bbox-midpoints="true"
     showguides="true"
     inkscape:guide-bbox="true"
     inkscape:zoom="0.93859299"
     inkscape:cx="214.15033"
     inkscape:cy="554.55347"
     inkscape:window-width="1920"
     inkscape:window-height="1017"
     inkscape:window-x="-8"
     inkscape:window-y="-8"
     inkscape:window-maximized="1"
     inkscape:current-layer="layer1">
    <sodipodi:guide
       position="118.98754,74.436652"
       orientation="0,-1"
       id="guide11681" />
  </sodipodi:namedview>
  <defs
     id="defs2" />
  <g
     inkscape:label="Layer 1"
     inkscape:groupmode="layer"
     id="layer1"
     transform="translate(-44.860782,-117.1861)">
    <g
       id="H-44mm"
       transform="matrix(0.35571091,0,0,-0.35571091,-143.59128,387.47068)">
      <path
         id="path42018-28"
         style="fill:#000000;stroke-width:0.0250505"
         sodipodi:type="inkscape:offset"
         inkscape:radius="-0.1"
         inkscape:original="M 554.94922 747.5918 C 554.90103 747.5918 554.7259 747.63515 554.56055 747.68945 C 554.39519 747.74375 554.1667 747.81385 554.05273 747.84375 C 553.93877 747.87375 553.79853 747.92945 553.74023 747.96875 C 553.68197 748.00821 553.55538 748.06997 553.45898 748.10547 C 553.12324 748.22905 552.93629 748.41552 552.83789 748.72852 C 552.79239 748.87652 552.78316 748.95993 552.78516 749.23242 C 552.78816 749.54203 552.79305 749.56884 552.87695 749.7832 C 552.93426 749.92953 552.97946 750.1063 553.00586 750.28711 C 553.05182 750.60286 553.09451 750.76404 553.19531 750.99805 C 553.23381 751.0876 553.27325 751.19528 553.28125 751.23828 C 553.29675 751.31127 553.29287 751.31877 553.20117 751.35547 C 553.14708 751.37697 553.09394 751.4149 553.08594 751.4375 C 553.07821 751.4601 553.07794 751.55509 553.08594 751.65039 L 553.10352 751.82422 L 552.98633 751.82422 C 552.92256 751.82422 552.68813 751.80646 552.46484 751.78516 C 552.15263 751.75546 552.01861 751.75304 551.88672 751.77344 C 551.72108 751.79904 551.6327 751.78366 551.5918 751.72266 C 551.5851 751.71236 551.58916 751.49612 551.60156 751.24219 C 551.62156 750.82917 551.62017 750.74107 551.57227 750.4043 L 551.51758 750.02734 L 551.57227 749.88086 C 551.64587 749.68062 551.65404 749.20081 551.58594 749.07617 C 551.52738 748.96894 551.37842 748.89545 551.17969 748.87695 C 551.03194 748.86315 551.00241 748.86816 550.84961 748.94336 C 550.68788 749.02306 550.68214 749.02362 550.61914 748.98242 C 550.26036 748.74779 549.44036 748.60713 549.13086 748.72656 C 548.96957 748.78875 548.9375 748.84356 548.9375 749.04883 C 548.9375 749.20126 548.94477 749.22629 549.01367 749.30469 C 549.07595 749.37557 549.12234 749.39864 549.26758 749.43164 C 549.48222 749.48046 549.58753 749.52272 549.69531 749.60352 C 549.74009 749.63707 549.86527 749.70591 549.97266 749.75781 C 550.08005 749.80966 550.1899 749.88182 550.2168 749.91602 C 550.2822 749.99922 550.27808 750.12411 550.20508 750.33594 C 550.14888 750.4991 550.14511 750.55294 550.13281 751.24805 C 550.12181 751.86675 550.11192 752.00965 550.07422 752.125 C 550.04352 752.21935 550.02981 752.34213 550.0293 752.51367 C 550.0287 752.73775 550.03481 752.7809 550.09961 752.92188 C 550.20019 753.1408 550.38009 753.30133 550.625 753.39062 C 550.72802 753.42815 550.83739 753.48383 550.86719 753.51562 C 550.95447 753.60853 551.05728 754.00682 551.16797 754.67773 C 551.19597 754.84813 551.23375 755.02145 551.25195 755.06445 C 551.27956 755.12977 551.44443 755.36234 551.64844 755.62109 C 551.67241 755.65149 551.82289 755.92733 551.98242 756.23438 C 552.14197 756.54138 552.31358 756.85464 552.36328 756.93164 C 552.57576 757.26134 552.62802 757.37155 552.62891 757.48828 C 552.63051 757.64863 552.53165 757.76539 552.33789 757.83789 C 552.19422 757.89161 552.06836 758.00452 552.06836 758.07812 C 552.06836 758.13805 552.13335 758.24372 552.21875 758.32422 C 552.31031 758.41061 552.38005 758.53788 552.40625 758.66406 C 552.43703 758.8124 552.56704 759.05681 552.65234 759.12891 C 552.77973 759.23663 553.06336 759.3583 553.29492 759.4043 C 553.86362 759.51727 554.44461 759.30997 554.63672 758.92578 C 554.70852 758.78016 554.71201 758.76404 554.71289 758.41211 C 554.71472 758.00828 554.72796 757.96323 554.88477 757.8125 C 554.94477 757.75477 554.97461 757.7038 554.97461 757.6582 C 554.97461 757.5687 554.86877 757.44546 554.76172 757.41016 L 554.67773 757.38281 L 554.76562 757.20898 L 554.85352 757.03516 L 555.04102 757.03516 C 555.25227 757.03516 555.3781 756.99294 555.4375 756.90234 C 555.45978 756.86832 555.53326 756.71125 555.60156 756.55469 C 555.66979 756.39809 555.73871 756.24876 555.75391 756.22266 C 555.82334 756.10346 555.90207 755.84315 555.95117 755.56836 C 556.04383 755.04955 556.07404 754.93673 556.14844 754.86133 C 556.18607 754.82307 556.35785 754.65695 556.5293 754.49023 C 556.78994 754.23675 556.8619 754.17908 556.97266 754.14258 C 557.11435 754.09591 557.1474 754.061 557.2168 753.87305 C 557.2592 753.76175 557.2593 753.74533 557.2207 753.64453 C 557.19806 753.58526 557.12349 753.47203 557.05469 753.39062 C 556.91159 753.22145 556.90507 753.17664 556.98047 752.94336 C 557.1898 752.29552 557.21188 752.21308 557.26758 751.89844 C 557.33823 751.50015 557.30139 751.32503 557.12109 751.1875 C 557.01872 751.1092 556.96007 751.10608 556.8418 751.17578 C 556.75976 751.22408 556.74054 751.22637 556.65234 751.19727 C 556.53227 751.15757 556.25127 751.17707 556.11328 751.23438 C 556.05977 751.25665 555.97307 751.30444 555.92188 751.33984 C 555.87065 751.37534 555.81202 751.39667 555.79102 751.38867 C 555.75832 751.37615 555.76368 751.34471 555.83008 751.16797 C 555.98875 750.74572 555.9806 750.7881 555.9375 750.64258 C 555.8986 750.51155 555.89883 750.51024 555.95703 750.46484 C 556.33614 750.16941 556.4039 750.04158 556.3418 749.74414 C 556.30392 749.56248 556.2452 749.43133 556.11133 749.22852 L 556.02734 749.10156 L 556.02734 748.61133 C 556.02734 748.18182 556.02287 748.11611 555.98438 748.07031 C 555.96027 748.04162 555.73628 747.92218 555.48828 747.80469 C 555.18988 747.66325 555.00732 747.59182 554.94922 747.5918 z M 552.41602 753.74219 C 552.42509 753.73659 552.4781 753.74848 552.5332 753.76758 C 552.58828 753.78678 552.67486 753.80253 552.72656 753.80273 C 552.83296 753.80316 552.83556 753.80953 552.78516 753.98828 C 552.76526 754.05837 552.73299 754.23776 552.71289 754.38672 C 552.66643 754.73171 552.63615 754.77191 552.59375 754.54492 C 552.58164 754.48043 552.53583 754.38531 552.48633 754.32031 C 552.38875 754.19212 552.35771 754.05911 552.38281 753.87695 C 552.39231 753.80831 552.40802 753.74819 552.41602 753.74219 z "
         transform="matrix(1.0574897,0,0,1.0574897,-31.731487,-43.178183)"
         d="m 554.94922,747.69141 c 0.006,0 -0.0592,0.008 -0.12695,0.0254 -0.0678,0.0169 -0.15025,0.042 -0.23047,0.0684 -0.16707,0.0549 -0.39433,0.12494 -0.51368,0.15625 -0.10402,0.0274 -0.24826,0.0871 -0.28124,0.10937 -0.0738,0.05 -0.19769,0.10975 -0.30274,0.14844 -0.31643,0.11647 -0.46961,0.26932 -0.56055,0.55859 -0.0435,0.14155 -0.0508,0.20453 -0.0488,0.47461 0.003,0.30862 0.003,0.30072 0.0859,0.51367 0.0608,0.15517 0.10736,0.33961 0.13477,0.52735 0.0454,0.31181 0.0834,0.45744 0.18164,0.68554 0.0402,0.0935 0.0785,0.19013 0.0918,0.26172 0.004,0.0181 0.009,0.0359 0.01,0.0586 8.1e-4,0.0242 -0.005,0.06 -0.0234,0.0879 -0.0375,0.0557 -0.0794,0.063 -0.12695,0.082 -0.0187,0.007 -0.0409,0.0175 -0.0547,0.0273 -0.005,0.004 -3e-5,-0.005 -0.002,-0.002 -7.3e-4,0.01 -0.002,0.0254 -0.002,0.043 -3e-5,0.0351 0.002,0.0802 0.006,0.125 l 0.0176,0.17187 a 0.10001,0.10001 0 0 1 -0.0996,0.10938 h -0.11719 c -0.0823,0 -0.30661,-0.0176 -0.53125,-0.0391 -0.31004,-0.0295 -0.43214,-0.0304 -0.55274,-0.0117 -0.0885,0.0137 -0.16065,0.0172 -0.22656,0.006 -0.0659,-0.0114 -0.13113,-0.0447 -0.16797,-0.0996 a 0.10001,0.10001 0 0 1 0,-0.002 c -10e-5,-1.6e-4 -0.01,-0.0193 -0.01,-0.0195 -1e-4,-2.6e-4 -0.003,-0.009 -0.004,-0.0117 -0.002,-0.006 -0.001,-0.0103 -0.002,-0.0137 -0.001,-0.007 -0.002,-0.0103 -0.002,-0.0156 -7.2e-4,-0.0106 -0.002,-0.0233 -0.002,-0.0371 -4e-4,-0.0277 0.001,-0.0632 0.002,-0.10742 0.002,-0.0885 0.005,-0.20617 0.0117,-0.33399 0.02,-0.41211 0.0183,-0.48568 -0.0293,-0.82031 l -0.0547,-0.37695 a 0.10001,0.10001 0 0 1 0.006,-0.0488 l 0.0547,-0.14649 c 0.0283,-0.077 0.0521,-0.2432 0.0547,-0.39648 0.001,-0.0766 -0.003,-0.1513 -0.01,-0.21094 -0.007,-0.0596 -0.0217,-0.10655 -0.0254,-0.11328 -0.0336,-0.0615 -0.14914,-0.13178 -0.32813,-0.14844 -0.14429,-0.0135 -0.12559,-0.0171 -0.27539,0.0566 -0.0812,0.04 -0.12191,0.0645 -0.17969,0.0742 -0.0289,0.005 -0.0657,9e-5 -0.0918,-0.01 -0.0261,-0.01 -0.0422,-0.0205 -0.0586,-0.0312 -0.15784,-0.10323 -0.44563,-0.19817 -0.72461,-0.2461 -0.27898,-0.0479 -0.55905,-0.0443 -0.67382,0 -0.0735,0.0284 -0.0957,0.0449 -0.10743,0.0645 -0.0117,0.0195 -0.0215,0.0666 -0.0215,0.16406 0,0.0746 0.003,0.11084 0.008,0.12695 0.005,0.0161 0.0109,0.0259 0.043,0.0625 0.0531,0.0605 0.0613,0.0639 0.20117,0.0957 0.21991,0.05 0.34739,0.0999 0.4668,0.18946 0.0257,0.0193 0.15615,0.0945 0.25976,0.14453 0.058,0.028 0.11597,0.0605 0.16407,0.0918 0.0481,0.0313 0.082,0.0515 0.11523,0.0937 0.0484,0.0615 0.0708,0.142 0.0684,0.22656 -0.002,0.0846 -0.0262,0.17797 -0.0645,0.28906 -0.0272,0.079 -0.0378,0.11559 -0.0469,0.23047 -0.009,0.11488 -0.0134,0.30297 -0.0195,0.65039 -0.011,0.61949 -0.0188,0.77263 -0.0625,0.90625 -0.0255,0.0784 -0.0405,0.19107 -0.041,0.35742 -6e-4,0.22223 -7e-5,0.23108 0.0625,0.36719 0.0894,0.19467 0.24527,0.33454 0.46875,0.41602 0.0558,0.0203 0.11,0.0455 0.1582,0.0703 0.0482,0.0248 0.0844,0.0409 0.12109,0.0801 0.0791,0.0841 0.11431,0.20826 0.16602,0.4082 0.0517,0.19994 0.10647,0.46941 0.16211,0.80664 0.0137,0.0834 0.0282,0.16831 0.043,0.23633 0.0148,0.068 0.0332,0.12699 0.0332,0.12695 0.003,0.006 0.0522,0.0906 0.12109,0.1875 0.0689,0.0969 0.16063,0.21748 0.26172,0.3457 0.02,0.0254 0.0283,0.0422 0.0488,0.0781 0.0205,0.0359 0.0457,0.0827 0.0762,0.13867 0.061,0.11191 0.13871,0.25804 0.21875,0.41211 0.15886,0.30566 0.33739,0.62816 0.37696,0.68945 0.10696,0.16598 0.17515,0.27769 0.21875,0.36914 0.0436,0.0915 0.0619,0.16914 0.0625,0.24219 5.5e-4,0.10025 -0.0329,0.19633 -0.0957,0.27149 -0.0632,0.0756 -0.15161,0.1314 -0.25976,0.17187 -0.0593,0.0222 -0.1172,0.0589 -0.15625,0.0937 -0.0391,0.0349 -0.0488,0.0729 -0.0488,0.0527 0,-0.006 0.008,0.0271 0.0293,0.0625 0.0217,0.0354 0.0538,0.0774 0.0898,0.11133 0.10878,0.10264 0.18614,0.24492 0.2168,0.39258 0.0119,0.0574 0.05,0.15187 0.0937,0.23438 0.0437,0.0825 0.0999,0.15757 0.11914,0.17382 0.0998,0.0844 0.38384,0.21144 0.59765,0.25391 0.53301,0.10588 1.06995,-0.10086 1.23243,-0.42578 0.0355,-0.0721 0.0466,-0.0966 0.0547,-0.15039 0.008,-0.0538 0.0113,-0.14272 0.0117,-0.31836 9.2e-4,-0.20299 0.002,-0.32039 0.0312,-0.42188 0.0291,-0.10148 0.0909,-0.17216 0.17188,-0.25 0.0507,-0.0488 0.0586,-0.0801 0.0586,-0.082 0,-0.005 -0.0135,-0.0457 -0.043,-0.0801 -0.0295,-0.0344 -0.0716,-0.0624 -0.10156,-0.0723 l -0.084,-0.0273 a 0.10001,0.10001 0 0 1 -0.0586,-0.14063 l 0.0879,-0.17383 0.0879,-0.17383 a 0.10001,0.10001 0 0 1 0.0898,-0.0547 h 0.1875 c 0.19792,0 0.28079,-0.0395 0.3125,-0.0879 10e-5,-1.6e-4 0.0294,-0.0533 0.0586,-0.11524 0.0292,-0.062 0.0639,-0.13933 0.0977,-0.2168 0.0344,-0.0789 0.0697,-0.1559 0.0977,-0.21679 0.028,-0.0609 0.0443,-0.099 0.0605,-0.12695 0.0541,-0.0929 0.13778,-0.35377 0.18555,-0.6211 0.0464,-0.26002 0.0769,-0.41919 0.10742,-0.5293 0.0305,-0.1101 0.0672,-0.17983 0.11718,-0.23046 0.0434,-0.0441 0.20999,-0.2069 0.38086,-0.37305 0.1309,-0.12731 0.21647,-0.20616 0.28711,-0.26172 0.0706,-0.0556 0.13118,-0.0882 0.19532,-0.10937 0.066,-0.0217 0.089,-0.0325 0.10742,-0.0527 0.0185,-0.0203 0.0406,-0.0652 0.0742,-0.15625 0.0206,-0.0542 0.0252,-0.0754 0.0254,-0.084 1.4e-4,-0.009 -0.003,-0.0255 -0.0215,-0.0742 -0.0117,-0.0306 -0.0861,-0.15091 -0.14843,-0.22461 -0.0739,-0.0873 -0.12564,-0.15672 -0.14063,-0.24805 -0.015,-0.0913 0.008,-0.1757 0.0469,-0.29492 0.2092,-0.64744 0.22972,-0.71812 0.28515,-1.03125 0.0344,-0.19372 0.0399,-0.3268 0.0215,-0.41602 -0.0185,-0.0892 -0.0544,-0.13892 -0.13086,-0.19726 -0.0444,-0.0339 -0.0651,-0.0404 -0.0781,-0.041 -0.013,-5.7e-4 -0.0375,0.004 -0.0898,0.0352 -0.0434,0.0255 -0.0823,0.047 -0.13281,0.0527 -0.0506,0.006 -0.0918,-0.006 -0.13868,-0.0215 -0.0333,-0.011 -0.12983,-0.0202 -0.22461,-0.0137 -0.0948,0.007 -0.19364,0.0259 -0.24414,0.0469 -0.042,0.0175 -0.13145,0.0664 -0.17382,0.0957 -0.0326,0.0226 -0.0666,0.0405 -0.0996,0.0527 -0.0331,0.0122 -0.056,0.0334 -0.12305,0.008 -0.0221,-0.008 -0.0595,-0.0343 -0.0742,-0.0703 -0.0147,-0.036 -0.0102,-0.0652 -0.006,-0.0898 0.009,-0.0492 0.027,-0.10009 0.0605,-0.18946 0.0795,-0.21163 0.11645,-0.30998 0.125,-0.35156 0.004,-0.0208 0.004,-0.0229 0.002,-0.0352 -0.002,-0.0122 -0.0101,-0.0357 -0.0215,-0.0742 -0.0195,-0.0657 -0.038,-0.10077 -0.0312,-0.16211 0.003,-0.0307 0.0219,-0.0628 0.0391,-0.082 0.0171,-0.0193 0.0322,-0.0295 0.0469,-0.041 0.18632,-0.14519 0.28625,-0.24593 0.33008,-0.32813 0.0438,-0.0822 0.0466,-0.15613 0.0176,-0.29492 -0.0356,-0.17086 -0.0864,-0.28298 -0.2168,-0.48047 l -0.084,-0.12695 a 0.10001,0.10001 0 0 1 -0.0156,-0.0547 v -0.49023 c 0,-0.21441 -0.002,-0.33787 -0.008,-0.40625 -0.005,-0.0665 -0.007,-0.0627 -0.0117,-0.0684 -0.006,-0.004 -0.0164,-0.01 -0.0293,-0.0176 -0.0258,-0.0156 -0.0615,-0.037 -0.10547,-0.0606 -0.0881,-0.0471 -0.20545,-0.10594 -0.32813,-0.16406 -0.14795,-0.0701 -0.26679,-0.12208 -0.35351,-0.15625 -0.0867,-0.0342 -0.15448,-0.0469 -0.14258,-0.0469 z m -2.53516,5.94921 c 0.0105,-7.5e-4 0.0184,-6.1e-4 0.0254,0 0.014,0.001 0.0258,0.005 0.0391,0.008 0.0266,0.006 0.057,0.0147 0.0879,0.0254 0.0404,0.0141 0.12833,0.0292 0.16015,0.0293 0.0276,1.2e-4 0.0511,-0.002 0.084,0.006 0.0328,0.008 0.0856,0.0458 0.0996,0.0898 0.014,0.0441 0.006,0.0737 0,0.10547 -0.006,0.0317 -0.0166,0.0663 -0.0293,0.11132 -0.0154,0.0543 -0.0487,0.23932 -0.0684,0.38477 -0.0118,0.0874 -0.0223,0.15609 -0.0332,0.20899 -0.0109,0.0529 -0.01,0.0819 -0.0469,0.13085 -0.005,0.006 -0.0114,0.0126 -0.0195,0.0195 -0.004,0.003 -0.008,0.008 -0.0137,0.0117 -0.005,0.003 -0.019,0.008 -0.0195,0.008 -0.001,4.3e-4 -0.0477,0.008 -0.0488,0.008 -5.8e-4,-6e-5 -0.0229,-0.006 -0.0234,-0.006 -5.8e-4,-2e-4 -0.0138,-0.006 -0.0195,-0.01 -0.0457,-0.0261 -0.0485,-0.049 -0.0566,-0.0684 -0.0162,-0.0387 -0.0241,-0.0812 -0.0352,-0.14062 -0.007,-0.0371 -0.0508,-0.13039 -0.0898,-0.18164 -0.11158,-0.14659 -0.15057,-0.31785 -0.12305,-0.51758 0.005,-0.0378 0.0123,-0.0728 0.0195,-0.10156 0.004,-0.0144 0.007,-0.0263 0.0117,-0.0391 0.002,-0.006 0.006,-0.0132 0.01,-0.0215 0.002,-0.004 0.004,-0.01 0.008,-0.0156 0.002,-0.003 0.01,-0.009 0.01,-0.01 2.6e-4,-2.9e-4 0.0134,-0.0135 0.0137,-0.0137 a 0.10001,0.10001 0 0 1 0.008,-0.006 c 2.8e-4,-1.8e-4 0.0172,-0.008 0.0176,-0.008 3.7e-4,-1.4e-4 0.01,-0.003 0.0137,-0.004 0.008,-0.002 0.0143,-0.004 0.0195,-0.004 z" />
      <path
         id="path42440-2"
         style="fill:#000000;stroke-width:0.0273298"
         sodipodi:type="inkscape:offset"
         inkscape:radius="-0.1"
         inkscape:original="M 563.89062 747.61133 C 563.62768 747.57073 562.93101 747.59414 562.7832 747.64844 C 562.61293 747.71095 562.52003 747.81491 562.49023 747.97461 C 562.47683 748.0462 562.43734 748.13468 562.40234 748.17188 C 562.35094 748.22653 562.33703 748.2749 562.33203 748.41992 C 562.32853 748.51869 562.3195 748.60628 562.3125 748.61328 C 562.29333 748.63245 561.91538 748.43706 561.80664 748.35156 C 561.75648 748.31208 561.63767 748.20373 561.54297 748.11133 C 561.38582 747.9581 561.35353 747.94028 561.16992 747.89648 C 560.9043 747.83298 560.29568 747.81132 560.07227 747.85742 C 559.83682 747.906 559.65381 748.00261 559.59961 748.10742 C 559.56411 748.17503 559.55836 748.24715 559.56836 748.44141 C 559.57948 748.66804 559.59926 748.7409 559.79492 749.27734 C 559.95177 749.70732 560.04342 749.91665 560.13672 750.05664 C 560.2245 750.18835 560.26935 750.28815 560.28125 750.37695 C 560.30127 750.52612 560.42408 750.81049 560.54102 750.97852 C 560.58552 751.04243 560.62967 751.14578 560.63867 751.20898 L 560.6543 751.32422 L 560.57812 751.28125 C 560.46817 751.21815 560.31355 751.25287 560.19922 751.36719 C 560.0438 751.52261 560.08966 751.70056 560.36133 752 C 560.59034 752.25297 560.58345 752.23535 560.59375 752.53516 C 560.60105 752.74776 560.59299 752.8317 560.55859 752.9043 C 560.52379 752.97622 560.51685 753.03693 560.53125 753.16602 C 560.55501 753.37983 560.66974 753.96239 560.71094 754.08008 C 560.75653 754.21016 560.71791 754.38825 560.57617 754.68555 C 560.55504 754.72967 560.10431 754.72945 559.75781 754.68555 C 559.14147 754.60751 558.96157 754.62148 558.79492 754.76172 C 558.67465 754.86292 558.61928 754.99245 558.55078 755.33008 C 558.4627 755.76453 558.48066 756.02911 558.61914 756.32422 C 558.67574 756.44482 558.75161 756.57207 558.78711 756.60547 C 558.83511 756.6505 558.85156 756.6946 558.85156 756.7793 C 558.85156 756.91368 558.89464 757.05363 558.96484 757.14453 C 559.00614 757.19848 559.01562 757.26027 559.01562 757.50195 C 559.01563 757.89119 559.06348 758.04982 559.23047 758.2168 C 559.42615 758.41289 559.65383 758.46295 560.09375 758.40625 C 560.25546 758.38545 560.25893 758.38576 560.33203 758.47266 C 560.38377 758.53408 560.44012 758.56602 560.51562 758.57812 C 560.60712 758.59275 560.62744 758.61055 560.65234 758.68555 C 560.72953 758.91823 561.05312 759.26673 561.32422 759.41016 C 561.44865 759.47586 561.85717 759.48649 562.07617 759.42969 C 562.50493 759.31858 562.919 759.03914 563.07422 758.75586 C 563.15632 758.60592 563.15412 758.61365 563.13672 758.2207 C 563.13472 758.17936 563.13758 758.11367 563.14258 758.07617 C 563.14728 758.03858 563.14176 757.95808 563.13086 757.89648 C 563.11356 757.79875 563.12085 757.77417 563.18555 757.69727 C 563.22879 757.64588 563.27468 757.53946 563.29688 757.44336 C 563.33038 757.29738 563.33087 757.27079 563.29297 757.21289 C 563.26926 757.17669 563.22315 757.14666 563.18945 757.14648 C 563.03402 757.14541 563.02381 757.03042 563.16602 756.84961 C 563.20812 756.7961 563.25172 756.72506 563.26172 756.69336 C 563.27717 756.64356 563.30784 756.63434 563.48828 756.61914 C 563.6577 756.60494 563.70564 756.60963 563.74414 756.64453 C 563.798 756.6933 563.87842 757.01608 563.87891 757.18555 C 563.87911 757.2476 563.89858 757.36652 563.92188 757.44922 C 563.9948 757.70839 564.12467 758.25343 564.125 758.30273 C 564.1252 758.32863 564.09424 758.36993 564.05664 758.39453 C 563.98114 758.44404 563.96154 758.59353 564.02344 758.64453 C 564.09534 758.70388 564.38304 758.78381 564.43164 758.75781 C 564.45852 758.74338 564.5018 758.65043 564.5332 758.54492 L 564.58984 758.35938 L 564.49414 757.97852 C 564.44154 757.76981 564.39844 757.57984 564.39844 757.55664 C 564.39844 757.53354 564.42348 757.4939 564.45508 757.4668 C 564.49846 757.42963 564.5106 757.39568 564.5 757.33008 C 564.4924 757.28236 564.45326 757.00342 564.41406 756.71094 C 564.36042 756.31114 564.32484 756.14366 564.27344 756.03125 L 564.20508 755.88086 L 564.25977 755.60547 C 564.31928 755.30648 564.35987 754.93327 564.38477 754.44141 C 564.39815 754.17778 564.43869 753.86223 564.49609 753.57617 C 564.50783 753.51647 564.51793 753.51548 564.88477 753.52148 C 565.22811 753.52638 565.27101 753.52034 565.40234 753.46094 C 565.65363 753.34735 565.81284 753.10249 565.83984 752.78516 C 565.86871 752.44577 565.66585 752.12784 565.35742 752.02539 C 565.21585 751.97836 565.21307 751.97423 565.23047 751.89062 C 565.24037 751.8435 565.26726 751.65596 565.28906 751.47266 C 565.31096 751.28934 565.34057 751.10571 565.35547 751.06641 C 565.37047 751.02703 565.38281 750.93623 565.38281 750.86523 C 565.38281 750.79421 565.40188 750.66382 565.42578 750.57422 C 565.48471 750.35319 565.46194 750.08042 565.36914 749.89062 C 565.29054 749.73 565.09559 749.53336 564.98633 749.50586 C 564.88304 749.47994 564.79043 749.53195 564.76953 749.62695 C 564.74973 749.71707 564.69967 749.76858 564.57031 749.83398 C 564.50951 749.86478 564.47784 749.86856 564.46484 749.84766 C 564.43934 749.80656 564.47698 749.30469 564.52148 749.0918 C 564.54148 748.9962 564.57786 748.88972 564.60156 748.85352 C 564.66206 748.76121 564.65387 748.68105 564.57227 748.53906 C 564.53343 748.47141 564.47917 748.35771 564.45117 748.28711 C 564.42316 748.21659 564.35794 748.10421 564.30664 748.03711 C 564.25543 747.96998 564.20551 747.87051 564.19531 747.81641 C 564.17213 747.6929 564.09863 747.64353 563.89062 747.61133 z M 559.89453 756.30664 C 559.93965 756.26154 559.9626 756.26682 560.13477 756.35742 C 560.21744 756.40092 560.30929 756.44317 560.33789 756.45117 C 560.38849 756.46597 560.38748 756.46824 560.33398 756.52734 C 560.26345 756.60521 560.18945 756.82654 560.18945 756.96094 C 560.18945 757.07984 560.16336 757.08987 560.05078 757.00977 C 559.98508 756.96297 559.97119 756.93259 559.9707 756.83789 C 559.9704 756.77502 559.94572 756.67097 559.91602 756.60547 C 559.85462 756.47038 559.84623 756.35494 559.89453 756.30664 z "
         transform="matrix(1.0574897,0,0,1.0574897,-31.731487,-43.178183)"
         d="m 563.29688,747.69336 c -0.11094,0.004 -0.21767,0.0107 -0.30469,0.0195 -0.087,0.009 -0.15856,0.0237 -0.17383,0.0293 -0.14765,0.0542 -0.20611,0.11944 -0.23047,0.25 -0.0172,0.0919 -0.0498,0.18055 -0.11328,0.24804 -0.0187,0.0199 -0.0229,0.0262 -0.0293,0.0488 -0.006,0.0226 -0.0113,0.0651 -0.0137,0.13477 -0.002,0.0514 -0.004,0.0986 -0.008,0.13672 -0.002,0.0191 -0.005,0.036 -0.008,0.0508 -0.001,0.007 -0.001,0.0147 -0.004,0.0234 -0.001,0.004 -0.003,0.009 -0.006,0.0156 -0.002,0.004 -0.008,0.0133 -0.008,0.0137 -2.2e-4,3.8e-4 -0.0154,0.0193 -0.0156,0.0195 -3e-4,3e-4 -0.0327,0.0233 -0.0332,0.0234 -4.7e-4,2e-4 -0.0185,0.005 -0.0254,0.006 -0.0138,0.002 -0.022,0.003 -0.0293,0.002 -0.0146,-0.002 -0.0236,-0.005 -0.0332,-0.008 -0.0191,-0.006 -0.0387,-0.0141 -0.0605,-0.0234 -0.0437,-0.0186 -0.0975,-0.0429 -0.15429,-0.0723 -0.11357,-0.0587 -0.23321,-0.12698 -0.30274,-0.18164 -0.0597,-0.047 -0.17483,-0.15179 -0.27148,-0.2461 -0.15503,-0.15115 -0.14595,-0.14646 -0.32618,-0.18945 -0.23702,-0.0567 -0.87255,-0.0766 -1.05468,-0.0391 -0.1099,0.0227 -0.20607,0.0561 -0.27735,0.0937 -0.0713,0.0377 -0.11519,0.0827 -0.12695,0.10547 -0.024,0.0456 -0.0294,0.0902 -0.0195,0.28125 0.005,0.11094 0.012,0.17428 0.041,0.28125 0.029,0.10696 0.082,0.25752 0.17969,0.52539 0.15613,0.42801 0.24749,0.63291 0.33203,0.75976 0.092,0.13803 0.14518,0.24952 0.16016,0.36133 0.0151,0.11234 0.13671,0.40704 0.24219,0.5586 0.0557,0.0799 0.10194,0.18011 0.11523,0.27343 l 0.0156,0.11524 a 0.10001,0.10001 0 0 1 -0.14844,0.10156 l -0.0762,-0.043 a 0.10001,0.10001 0 0 1 0,-0.002 c -0.0611,-0.0351 -0.17016,-0.0193 -0.25977,0.0703 -0.0607,0.0607 -0.0713,0.0958 -0.0527,0.16797 0.0185,0.0722 0.0876,0.18363 0.21875,0.32812 0.11406,0.126 0.17631,0.18892 0.21484,0.27735 0.0385,0.0884 0.0378,0.1711 0.043,0.32031 0.007,0.21603 -3.4e-4,0.32192 -0.0449,0.41602 -0.0275,0.0567 -0.0312,0.0849 -0.0176,0.20703 0.011,0.0992 0.0455,0.30078 0.082,0.48632 0.0365,0.18555 0.0786,0.36865 0.0918,0.40626 0.0608,0.1736 0.007,0.3767 -0.13867,0.68164 -3.3e-4,6.8e-4 -0.009,0.0155 -0.0137,0.0215 -0.005,0.006 -0.009,0.0117 -0.0137,0.0156 -0.009,0.008 -0.0181,0.0118 -0.0254,0.0156 -0.0146,0.008 -0.0251,0.0123 -0.0371,0.0156 -0.024,0.007 -0.0497,0.0106 -0.0781,0.0137 -0.0568,0.006 -0.12736,0.008 -0.20899,0.008 -0.16325,-3e-5 -0.36437,-0.0106 -0.54297,-0.0332 -0.30623,-0.0388 -0.50267,-0.0531 -0.63086,-0.043 -0.12818,0.0101 -0.18484,0.0359 -0.25585,0.0957 -0.0498,0.0419 -0.0807,0.0823 -0.11329,0.1582 -0.0326,0.0759 -0.0639,0.18741 -0.0976,0.35352 -0.086,0.42411 -0.0696,0.65433 0.0605,0.93164 0.0267,0.057 0.0593,0.11815 0.0879,0.16602 0.0286,0.0479 0.0611,0.0883 0.0586,0.0859 0.0634,0.0595 0.0957,0.14845 0.0957,0.2461 0,0.113 0.0418,0.23742 0.0937,0.30468 0.0296,0.0387 0.0515,0.0914 0.0605,0.1543 0.009,0.0629 0.01,0.14153 0.01,0.26367 10e-6,0.19053 0.0129,0.3186 0.041,0.41211 0.0281,0.0935 0.0689,0.15675 0.14453,0.23242 0.0871,0.0873 0.17209,0.13601 0.29102,0.16211 0.11892,0.0261 0.27419,0.0256 0.48828,-0.002 0.081,-0.0104 0.13049,-0.0213 0.19336,-0.004 0.0629,0.0173 0.0977,0.0615 0.13476,0.10547 0.0397,0.0471 0.067,0.0613 0.12305,0.0703 0.0508,0.008 0.098,0.0187 0.14063,0.0527 0.0426,0.034 0.0619,0.0801 0.0762,0.12305 0.0301,0.0909 0.12208,0.23201 0.24023,0.35937 0.11815,0.12737 0.26232,0.24485 0.38281,0.3086 0.0242,0.0128 0.15899,0.0394 0.29688,0.043 0.13789,0.004 0.28941,-0.009 0.38281,-0.0332 0.40448,-0.10482 0.80302,-0.38314 0.93555,-0.625 0.0412,-0.0753 0.0509,-0.0885 0.0566,-0.13867 0.006,-0.0502 0.003,-0.14706 -0.006,-0.34375 -0.002,-0.0504 -3.4e-4,-0.11264 0.006,-0.16016 0.001,-0.0106 -4.6e-4,-0.0978 -0.01,-0.15039 -0.009,-0.0526 -0.0162,-0.10096 -0.002,-0.15234 0.0142,-0.0514 0.0436,-0.0879 0.0781,-0.12891 0.0217,-0.0258 0.0705,-0.12883 0.0898,-0.21093 v -0.002 c 0.0159,-0.0698 0.0236,-0.10993 0.0234,-0.12304 -1.8e-4,-0.0133 0.001,-0.006 -0.0137,-0.0293 -0.005,-0.008 -0.0447,-0.0216 -0.0195,-0.0215 -0.0512,-3.5e-4 -0.10066,-0.008 -0.14453,-0.0371 -0.0439,-0.0293 -0.074,-0.084 -0.0781,-0.13476 -0.008,-0.10154 0.0429,-0.18769 0.12109,-0.28711 0.0181,-0.023 0.0374,-0.0512 0.0527,-0.0762 0.0153,-0.025 0.0265,-0.0504 0.0254,-0.0469 0.0127,-0.0411 0.0654,-0.0984 0.11718,-0.11523 0.0518,-0.0168 0.10584,-0.0216 0.19727,-0.0293 0.0864,-0.007 0.14391,-0.0109 0.19531,-0.006 0.0514,0.005 0.10187,0.0268 0.13477,0.0566 0.045,0.0407 0.0531,0.0739 0.0703,0.11914 0.0172,0.0452 0.0327,0.0993 0.0469,0.15625 0.0284,0.11386 0.0505,0.23948 0.0508,0.33985 1.3e-4,0.0415 0.0186,0.16371 0.0391,0.23633 0.0372,0.13227 0.089,0.33395 0.13086,0.50976 0.0209,0.0879 0.0391,0.1692 0.0527,0.23242 0.007,0.0316 0.0116,0.0584 0.0156,0.0801 0.004,0.0217 0.008,0.0311 0.008,0.0586 4.1e-4,0.0532 -0.0192,0.0788 -0.0391,0.10547 -0.0199,0.0266 -0.0445,0.0509 -0.0742,0.0703 -0.002,0.002 -0.0198,0.0252 -0.0234,0.0527 -0.004,0.0276 0.0101,0.0434 0,0.0352 a 0.10001,0.10001 0 0 1 0,0.002 c 0.002,0.002 0.0956,0.0461 0.17578,0.0684 0.0401,0.0111 0.0791,0.0196 0.10742,0.0234 0.004,6e-4 0.006,-3.7e-4 0.01,0 0.003,-0.006 0.006,-0.01 0.01,-0.0176 0.0152,-0.032 0.0325,-0.0785 0.0469,-0.12696 l 0.0488,-0.1582 -0.0898,-0.35351 v -0.002 c -0.0263,-0.1043 -0.0509,-0.20421 -0.0684,-0.28125 -0.009,-0.0388 -0.0144,-0.0719 -0.0195,-0.0976 -0.005,-0.0258 -0.01,-0.0297 -0.01,-0.0664 0,-0.0477 0.0153,-0.0724 0.0312,-0.0977 0.0159,-0.0252 0.0364,-0.0476 0.0605,-0.0684 0.0138,-0.0118 0.0117,-0.0135 0.0117,-0.0137 6e-5,-1.8e-4 0.002,-0.007 -0.002,-0.0312 -0.009,-0.0548 -0.0467,-0.32822 -0.0859,-0.62109 -0.0533,-0.39767 -0.0898,-0.55822 -0.13281,-0.65234 l -0.0684,-0.15039 a 0.10001,0.10001 0 0 1 -0.006,-0.0606 l 0.0547,-0.27539 c 0.0581,-0.29191 0.0983,-0.66146 0.12305,-1.15039 0.0137,-0.26981 0.0549,-0.58785 0.11328,-0.87891 0.003,-0.0175 0.009,-0.0539 0.041,-0.0859 0.0318,-0.0321 0.0692,-0.0401 0.10352,-0.0449 0.0686,-0.01 0.16022,-0.007 0.34375,-0.004 0.17102,0.002 0.26458,0.001 0.32422,-0.006 0.0596,-0.007 0.0873,-0.0183 0.15039,-0.0469 0.21658,-0.0979 0.35435,-0.30322 0.3789,-0.5918 0.0251,-0.29471 -0.15192,-0.56917 -0.41406,-0.65625 -0.0714,-0.0237 -0.11405,-0.0285 -0.16406,-0.082 -0.025,-0.0268 -0.039,-0.0686 -0.0391,-0.0976 -6e-5,-0.029 0.005,-0.0487 0.01,-0.0703 a 0.10001,0.10001 0 0 1 0,-0.002 c 0.006,-0.0305 0.035,-0.22654 0.0566,-0.4082 0.0111,-0.093 0.0248,-0.1862 0.0371,-0.26172 0.0123,-0.0755 0.0172,-0.12058 0.0352,-0.16797 0.003,-0.009 0.0215,-0.1066 0.0215,-0.16602 0,-0.0889 0.0202,-0.21626 0.0469,-0.3164 0.0518,-0.19444 0.0276,-0.45156 -0.0508,-0.61328 v -0.002 c -0.0322,-0.0653 -0.095,-0.14922 -0.16016,-0.21484 -0.0656,-0.066 -0.14268,-0.11182 -0.15625,-0.11523 -0.059,-0.0148 -0.0865,0.003 -0.0957,0.0449 -0.0128,0.0584 -0.0405,0.115 -0.084,0.16015 -0.0435,0.0452 -0.0985,0.0801 -0.16797,0.11524 -0.0352,0.0178 -0.0647,0.0302 -0.10351,0.0352 -0.0388,0.005 -0.1037,-0.0149 -0.13086,-0.0586 a 0.10001,0.10001 0 0 1 -0.002,0 c -0.0301,-0.0486 -0.0198,-0.0573 -0.0215,-0.0801 -0.002,-0.0228 -3.4e-4,-0.0503 0,-0.0801 6.8e-4,-0.0596 0.004,-0.13278 0.01,-0.21289 0.012,-0.16021 0.0323,-0.33875 0.0566,-0.45507 0.011,-0.0524 0.0251,-0.1073 0.041,-0.1543 0.0159,-0.047 0.0291,-0.0831 0.0527,-0.11914 0.0218,-0.0333 0.026,-0.0478 0.0234,-0.0742 -0.003,-0.0264 -0.0172,-0.0696 -0.0547,-0.13477 a 0.10001,0.10001 0 0 1 0,-0.002 c -0.0429,-0.0747 -0.0981,-0.18612 -0.12891,-0.26367 -0.0218,-0.0549 -0.0874,-0.16977 -0.13086,-0.22656 -0.0611,-0.0801 -0.11183,-0.17313 -0.1289,-0.26368 -0.009,-0.0453 -0.0155,-0.0551 -0.041,-0.0723 -0.0256,-0.0172 -0.0835,-0.0356 -0.18164,-0.0508 -0.11544,-0.0178 -0.35626,-0.025 -0.57812,-0.0176 z m -3.3086,8.49023 c 0.0586,0.0125 0.10636,0.0402 0.19336,0.0859 0.0396,0.0209 0.0821,0.0405 0.11719,0.0566 0.0351,0.0162 0.0693,0.0301 0.0664,0.0293 0.0134,0.004 0.0258,0.007 0.0469,0.0176 0.0106,0.005 0.0245,0.0124 0.0391,0.0312 0.0146,0.0188 0.0249,0.0504 0.0234,0.0742 -0.003,0.0477 -0.0205,0.0624 -0.0312,0.0762 -0.0107,0.0138 -0.0217,0.0242 -0.0352,0.0391 -0.0153,0.0169 -0.0534,0.0861 -0.0781,0.16016 -0.0247,0.0741 -0.041,0.15818 -0.041,0.20703 0,0.0334 4.1e-4,0.0617 -0.008,0.0937 -0.008,0.0321 -0.0352,0.0815 -0.0859,0.0996 -0.0507,0.0181 -0.0884,0.002 -0.11719,-0.0117 -0.0288,-0.0133 -0.0555,-0.0291 -0.0859,-0.0508 -0.0385,-0.0274 -0.074,-0.0606 -0.0957,-0.10742 -0.0217,-0.0468 -0.0251,-0.0943 -0.0254,-0.14649 -1.7e-4,-0.0372 -0.025,-0.14321 -0.0469,-0.19141 -0.0344,-0.0757 -0.0556,-0.14654 -0.0605,-0.21484 -0.005,-0.0683 0.006,-0.14095 0.0605,-0.19531 0.015,-0.015 0.0351,-0.0345 0.0664,-0.0469 0.0313,-0.0124 0.0683,-0.0121 0.0977,-0.006 z" />
      <path
         id="path46620-3-7"
         style="fill:#000000;stroke-width:0.0312768"
         d="m 544.17759,759.37129 c -0.0875,-9e-5 -0.13445,-0.008 -0.17285,-0.0234 -0.11641,-0.0482 -0.3794,-0.3222 -0.3794,-0.3955 0,-0.0698 -0.19622,-0.42312 -0.34863,-0.62843 -0.0664,-0.0896 -0.12012,-0.17732 -0.12012,-0.19482 0,-0.0175 0.0376,-0.0528 0.085,-0.0776 0.0473,-0.0247 0.12782,-0.0886 0.17871,-0.14208 0.0575,-0.0605 0.13682,-0.10433 0.20801,-0.11573 l 0.11426,-0.0176 0.0161,-0.1919 c 0.009,-0.10567 0.0518,-0.30476 0.0952,-0.44238 0.0435,-0.13761 0.0865,-0.28925 0.0967,-0.33545 0.0132,-0.0598 0.0509,-0.0948 0.1289,-0.12305 0.0602,-0.0218 0.1084,-0.0524 0.1084,-0.0674 0,-0.015 -0.11589,-0.14615 -0.25781,-0.2915 -0.27753,-0.28425 -0.41387,-0.51594 -0.44678,-0.76026 -0.032,-0.23716 -0.0744,-0.33494 -0.24756,-0.57275 -0.0912,-0.12532 -0.20445,-0.3053 -0.25195,-0.39991 l -0.43799,-0.21679 c -0.0764,-0.003 -0.14939,-0.009 -0.22119,-0.0176 h -0.18604 l -0.35302,0.12744 -0.34864,0.022 -0.22705,0.10694 -0.1875,-0.96387 0.88917,-0.10694 0.12304,-0.14794 0.0513,-0.0161 0.11719,-0.40577 c 0.0418,-0.18867 0.0835,-0.28838 0.16552,-0.40283 0.0955,-0.13336 0.39648,-0.74138 0.42628,-0.85986 0.014,-0.0557 -4e-5,-0.0942 -0.0542,-0.14502 l -0.33985,-0.45704 c 0.0275,-0.0331 -0.0166,-0.10698 -0.20654,-0.33984 h -10e-4 c -0.13353,-0.16369 -0.27787,-0.34407 -0.32227,-0.40137 l -0.1875,-0.27831 -0.16553,-0.12452 -0.41748,-0.42041 -0.0791,-0.14209 c -0.0431,-0.0783 -0.1026,-0.25193 -0.1333,-0.38525 0,0 5.4e-4,-0.18341 10e-4,-0.4336 0.0118,-0.037 0.11745,-0.16284 0.23437,-0.27978 0.2909,-0.29086 0.39925,-0.32428 1.10889,-0.3252 0.51454,-7.5e-4 0.57423,0.008 0.73536,0.10547 0.12569,0.0764 0.2604,0.11574 0.3501,0.10254 l 0.0981,-0.0146 -0.10693,-0.0879 c -0.0588,-0.0488 -0.11824,-0.089 -0.13184,-0.0894 -0.0137,-4.7e-4 -0.0207,-0.0953 -0.0146,-0.21094 0.0127,-0.2882 0.0353,-0.29942 0.5874,-0.27832 0.53506,0.0205 0.85074,0.0815 1.14111,0.22119 0.1264,0.0608 0.24966,0.11093 0.27246,0.11133 0.0229,3e-4 0.0746,0.027 0.11572,0.0586 0.0673,0.0518 0.0725,0.0732 0.0557,0.22559 -0.0103,0.0928 -0.0313,0.23737 -0.0469,0.32227 -0.0232,0.12666 -0.022,0.14517 0.0102,0.10107 0.0215,-0.0296 0.0532,-0.0514 0.0688,-0.0454 0.0509,0.016 0.21476,-0.14509 0.27686,-0.27247 0.0923,-0.18915 0.2298,-0.24429 0.54492,-0.21679 0.23264,0.0203 0.2532,0.0286 0.271,0.0996 0.029,0.1153 -0.009,0.36048 -0.0937,0.6123 -0.0417,0.12372 -0.0847,0.3252 -0.0952,0.44825 l -0.019,0.22412 0.0967,0.0337 0.0981,0.0337 -0.0117,0.27832 c -0.01,0.24401 -0.0208,0.29211 -0.0967,0.39844 l -0.0864,0.12158 0.10547,0.0176 c 0.059,0.01 0.17247,0.0762 0.25927,0.14941 0.0853,0.0718 0.18632,0.13038 0.22412,0.13038 0.11468,0 0.34179,0.1247 0.45411,0.24902 0,0 0.0977,0.22804 0.11425,0.2666 0,0.0619 0.0149,0.0791 0.0747,0.0791 0.14479,0 0.17578,0.0288 0.17578,0.17432 0,0.0803 0.0133,0.13769 0.0337,0.13769 -0.066,-0.26056 0.1118,-0.29581 0.14063,-0.37207 0.10105,-0.11989 0.17158,-0.1205 0.42481,-0.006 0.33597,0.15245 0.43359,0.3049 0.43359,0.68262 0,0.1721 0.009,0.20053 0.0762,0.24463 0.102,0.0668 0.13377,0.2177 0.063,0.2959 -0.0407,0.0449 -0.0473,0.0884 -0.0308,0.17871 0.0119,0.0653 0.0243,0.18783 0.0293,0.27393 0.005,0.086 0.0185,0.22302 0.0308,0.30322 0.0278,0.18422 -0.0504,0.44024 -0.16113,0.52734 -0.0959,0.0756 -0.13182,0.0765 -0.27393,0.009 -0.10152,-0.049 -0.11446,-0.0494 -0.15966,-0.004 -0.0422,0.0422 -0.045,0.0663 -0.0117,0.1582 0.0498,0.1376 0.0194,0.30821 -0.0762,0.42188 -0.0854,0.1014 -0.2871,0.16501 -0.52735,0.16552 -0.25158,7.3e-4 -0.25107,-7.5e-4 -0.20947,0.38525 0.0266,0.24558 0.0279,0.41685 0.003,0.64746 -0.0188,0.17238 -0.0352,0.37767 -0.0352,0.45558 0,0.28816 -0.21498,0.663 -0.45996,0.80127 -0.0912,0.0515 -0.19335,0.12868 -0.22705,0.17138 -0.075,0.0954 -0.29112,0.15236 -0.90966,0.24316 -0.095,0.014 -0.12371,0.0377 -0.18311,0.15674 -0.0385,0.0772 -0.0897,0.14062 -0.11426,0.14062 -0.029,0 -0.0439,0.0342 -0.0439,0.0967 0,0.0813 0.0109,0.0939 0.0703,0.0879 0.13467,-0.0147 0.45852,0.041 0.49512,0.085 0.0287,0.0345 0.0231,0.0844 -0.0264,0.22412 -0.0348,0.0987 -0.0728,0.27802 -0.0835,0.39844 -0.0376,0.42453 -0.0476,0.47501 -0.11865,0.59912 -0.21518,0.37584 -0.3857,0.4466 -1.21875,0.51269 -0.19694,0.0158 -0.32414,0.0237 -0.41162,0.0234 z m 1.64062,-9.06738 c 0.0361,0.008 0.0571,3.2e-4 0.0571,-0.022 0,-0.0139 -0.0692,-0.0486 -0.15527,-0.0762 -0.086,-0.0275 -0.15674,-0.0456 -0.15674,-0.0396 0,0.005 0.0501,0.0386 0.11133,0.0747 0.0572,0.0338 0.10748,0.0558 0.14355,0.063 z m -0.35449,-0.19043 c 0.003,-0.004 -0.01,-0.0137 -0.0366,-0.0322 -0.0322,-0.0221 -0.11235,-0.0831 -0.17724,-0.13623 -0.0828,-0.0677 -0.1551,-0.0971 -0.24171,-0.10108 -0.11436,-0.005 -0.12537,0.002 -0.15527,0.0996 l -0.0322,0.10546 0.25489,0.022 c 0.13968,0.0119 0.28815,0.0287 0.33105,0.0366 0.036,0.007 0.0545,0.009 0.0571,0.006 z" />
      <path
         id="path22884"
         d="m 531.75643,757.76489 5.99414,-0.56852 4.35931,-1.30315 0.0237,-5.28335 0.0237,-0.30798 -0.4738,-0.21326 -4.64714,0.10909 0.35884,-0.25122 4.80952,-0.99517 2.03753,-0.90021 -0.61595,-0.26069 -1.80068,0.75821 -4.97538,0.7345 -1.65251,0.9577 -0.9313,0.0219 a 1.8006176,1.8006176 0 0 0 0.0961,-0.57689 1.8006176,1.8006176 0 0 0 -1.80055,-1.80054 1.8006176,1.8006176 0 0 0 -1.80067,1.80054 1.8006176,1.8006176 0 0 0 0.76434,1.47244 l -0.10614,1.36014 a 1.9427717,0.97138587 0 0 0 -1.62955,0.9582 1.9427717,0.97138587 0 0 0 1.48128,0.94358 l -0.20184,2.58664 z" />
    </g>
  </g>
</svg>
