<?xml version="1.0" encoding="UTF-8" standalone="no"?>
<!-- Created with Inkscape (http://www.inkscape.org/) -->

<svg
   width="16.823282mm"
   height="7.6219244mm"
   viewBox="0 0 16.823282 7.6219244"
   version="1.1"
   id="svg5"
   sodipodi:docname="inkporter-svg-1zhk8ahw.svg"
   xmlns:inkscape="http://www.inkscape.org/namespaces/inkscape"
   xmlns:sodipodi="http://sodipodi.sourceforge.net/DTD/sodipodi-0.dtd"
   xmlns="http://www.w3.org/2000/svg"
   xmlns:svg="http://www.w3.org/2000/svg">
  <sodipodi:namedview
     id="namedview7"
     pagecolor="#ffffff"
     bordercolor="#666666"
     borderopacity="1.0"
     inkscape:pageshadow="2"
     inkscape:pageopacity="0.0"
     inkscape:pagecheckerboard="0"
     inkscape:document-units="mm"
     showgrid="false"
     inkscape:snap-bbox="true"
     inkscape:snap-bbox-edge-midpoints="false"
     inkscape:snap-bbox-midpoints="true"
     showguides="true"
     inkscape:guide-bbox="true"
     inkscape:zoom="0.93859299"
     inkscape:cx="214.15033"
     inkscape:cy="554.55347"
     inkscape:window-width="1920"
     inkscape:window-height="1017"
     inkscape:window-x="-8"
     inkscape:window-y="-8"
     inkscape:window-maximized="1"
     inkscape:current-layer="layer1">
    <sodipodi:guide
       position="113.60745,137.51078"
       orientation="0,-1"
       id="guide11681" />
  </sodipodi:namedview>
  <defs
     id="defs2" />
  <g
     inkscape:label="Layer 1"
     inkscape:groupmode="layer"
     id="layer1"
     transform="translate(-50.240865,-177.03013)">
    <path
       id="H-Toldi-IIb"
       d="m 58.589453,177.03063 c -0.02841,0.002 -0.06056,0.007 -0.09767,0.0176 -0.03071,0.19824 -0.352176,0.055 -0.549839,0.061 -0.16829,0.009 -0.408469,0.17232 -0.392739,0.36639 0.0369,0.27925 -0.255678,0.25374 -0.450101,0.23254 -0.342644,-0.0358 -0.675463,0.007 -0.997874,0.12867 -0.214505,0.0478 -0.427318,0.13432 -0.619598,0.19482 -0.229185,-0.046 -0.385625,0.0455 -0.38344,0.2558 h -4.132048 v 0.54777 h 2.972427 c 0.03634,0.019 0.06742,0.0481 0.09043,0.0935 0.203094,0.0748 0.471977,0.0213 0.700214,0.047 0.223938,-0.0119 0.45276,-0.029 0.404111,0.26355 -0.110524,0.25324 0.436902,0.27055 0.143661,0.26355 -0.221443,0.0458 -0.518866,-0.0872 -0.675412,0.11059 -0.312171,0.0765 -0.672849,0.0421 -1.003038,0.077 0.07983,0.28443 -0.119637,0.26742 -0.336415,0.23202 -0.122785,0.11299 -0.121134,0.40009 -0.198954,0.5762 -0.326837,-0.0266 -0.652089,-0.0829 -0.980818,-0.0739 -0.355238,0.0347 -0.746913,-0.0946 -1.067636,0.0977 -0.151606,0.0756 -0.486333,0.17368 -0.373102,0.39222 0.190727,0.23298 -0.19398,0.2514 -0.20619,0.47594 -0.142526,0.27845 -0.233987,0.57193 -0.177768,0.88625 -0.04263,0.40778 0.205724,0.76129 0.486275,1.03198 0.52057,0.29298 1.086297,0.51089 1.620057,0.78497 0.225176,-0.0726 0.285673,0.15067 0.49816,0.10077 0.321643,0.19413 0.750922,0.2294 1.086239,0.41186 l 0.01963,0.0165 0.0279,0.0243 h 10.423652 c 0.538202,0.016 1.108644,0.009 1.57665,-0.29249 0.150442,-0.17515 0.29963,-0.38446 0.388091,-0.6041 0.202887,-0.4572 0.01061,-0.94985 -0.184486,-1.37459 0.229748,-0.1554 0.442417,-0.3896 0.476456,-0.67076 -0.0024,-0.15212 0.05501,-0.48028 0.238228,-0.36122 -0.09462,0.32342 -0.03746,0.32263 0.144177,0.0568 6.1e-5,-0.29146 0.05359,-0.61463 -0.175699,-0.83871 -0.194046,-0.27909 -0.565055,-0.21554 -0.824757,-0.39274 -0.175149,0.17572 -0.248986,-0.19889 -0.398941,-0.0605 -0.0822,-0.19734 -0.399743,-0.0602 -0.409795,-0.22118 -0.581348,0.008 -1.155869,-0.0826 -1.731677,-0.14986 -0.209068,-0.0216 -0.479758,-0.0319 -0.309025,-0.19224 -0.09308,-0.2366 -0.369755,-0.17572 -0.573609,-0.23202 -0.113157,-0.0332 -0.698267,-0.0772 -0.399457,-0.10077 0.200533,-0.062 0.495676,0.0296 0.626319,-0.14625 0.04812,-0.35873 0.0073,-0.74431 0.0217,-1.11311 -0.751155,-0.0597 -1.510268,-0.0825 -2.264463,-0.12816 -0.219419,-0.0536 -0.346337,-0.22615 -0.295587,-0.4563 0.06051,-0.31336 -0.158232,-0.42096 -0.122992,-0.0475 -0.03063,0.12887 0.05227,0.54756 -0.173633,0.38189 -0.0222,-0.19198 0.07403,-0.44398 -0.158646,-0.52969 -0.264983,-0.0561 -0.562335,-0.0248 -0.839743,-0.0248 -0.226253,0.0466 -0.240398,-0.12891 -0.439248,-0.11833 z m 3.025138,2.17455 c 0.09832,5.3e-4 0.156792,0.0296 0.06408,0.15451 -0.01545,0.0244 -0.03106,0.0486 -0.04651,0.0729 -0.243301,0.006 -0.486371,0.0121 -0.729671,0.017 -0.1559,-0.23707 0.212992,-0.24479 0.40876,-0.22789 0.06679,0.0107 0.205018,-0.0172 0.30334,-0.0165 z m -5.997567,0.21807 c 0.02093,7.9e-4 0.066,0.0115 0.145729,0.0393 l 0.03256,0.0145 c 0.08916,0.13407 -0.268944,-0.0569 -0.178284,-0.0538 z m -1.71204,0.37879 c 0.122052,0.002 0.285266,0.045 0.373105,0.0129 -0.02188,0.2043 0.103886,0.52143 -0.213942,0.50023 -0.07131,0.0196 -0.142629,0.0391 -0.213939,0.0589 -0.209416,0.12086 -0.05331,-0.32106 -0.101286,-0.44855 -0.0092,-0.10241 0.06113,-0.12515 0.156062,-0.12351 z m 11.804965,2.91352 c 0.07619,-0.003 0.132874,0.0428 0.03669,0.12402 -0.05574,0.0564 -0.120547,0.0455 -0.192236,0.0455 -0.01659,-0.1145 0.07935,-0.16645 0.155546,-0.16949 z m 0.183967,0.3607 c 0.02577,-0.001 0.05279,0.008 0.07751,0.0341 0.0098,0.0256 0.01966,0.0507 0.02946,0.0765 -0.300016,0.0988 -0.218625,-0.10484 -0.106971,-0.11058 z m -13.081888,0.0842 c 0.04354,-0.005 0.07122,0.0167 0.05685,0.0879 -0.05427,0.21964 0.175819,0.40578 0.03876,0.61392 -0.03054,0.0756 -0.04133,0.27446 -0.157096,0.14676 -0.120171,-0.12376 0.149408,-0.49715 -0.04496,-0.51935 -0.178901,-0.0174 -0.07049,0.46119 -0.28267,0.38189 -0.12124,-0.14284 0.04165,-0.4079 0.143661,-0.54054 -0.02392,-0.02 0.149677,-0.15944 0.245462,-0.17053 z m 11.578621,0.21342 c 0.105431,-5.3e-4 0.236199,0.0286 0.254249,0.0522 -0.05692,0.0725 -0.361918,0.34225 -0.355018,0.0723 -0.08471,-0.0942 -0.0047,-0.12408 0.100769,-0.12454 z m 1.334802,0.01 c 0.08458,-0.005 0.214807,0.0314 0.219109,0.11782 0.07939,0.17492 -0.117628,0.0615 -0.163298,0.007 -0.179414,-0.0749 -0.140391,-0.11989 -0.05581,-0.12454 z m -1.887223,0.076 c 0.02888,-0.002 0.06313,0.0252 0.104902,0.0956 0.06425,0.19767 0.260572,0.39514 0.100769,0.56741 0.05503,0.17635 -0.115924,0.55549 -0.205155,0.2775 0.06216,-0.24328 -0.171683,-0.53612 -0.175183,-0.14366 0.06978,0.22056 -0.264184,0.36672 -0.237194,0.0847 -0.07994,-0.2152 0.216503,-0.29467 0.245462,-0.50901 0.04198,-0.10737 0.07975,-0.3678 0.166399,-0.37259 z m -5.490104,0.0202 c -0.0601,0.26631 0.184026,0.45167 0.235643,0.68316 0.04759,0.2114 -0.163261,0.52674 -0.1881,0.16433 0.06195,-0.30335 -0.265631,-0.36075 -0.192238,-0.0289 -5e-6,0.0536 5e-6,0.1076 0,0.16123 -0.151604,0.16158 -0.277231,-0.15693 -0.180351,-0.30076 0.109331,-0.21579 0.236585,-0.50634 0.325046,-0.67902 z m -2.787428,0.0532 c 0.01865,-0.007 0.03129,0.089 0.08165,0.25115 0.108828,0.19085 0.180194,0.38677 0.09974,0.60306 -0.135253,0.32088 -0.169889,-0.10949 -0.183968,-0.26045 -0.123653,-0.25946 -0.16892,0.17002 -0.168981,0.28164 v 5.3e-4 c 0.05526,0.1362 -0.167778,0.0911 -0.205156,0.0692 -0.08776,-0.30539 0.257292,-0.44838 0.301273,-0.72295 0.0426,-0.14827 0.06093,-0.21656 0.07545,-0.22221 z m 4.703072,0.003 c 0.01458,-0.002 0.03201,0.01 0.05271,0.0408 -0.0013,0.0171 0.0064,0.0381 -0.0093,0.0512 -0.110744,0.30095 -0.122123,-0.0833 -0.04341,-0.092 z m 2.763658,0.002 c 0.01439,-10e-4 0.02447,0.0252 0.02273,0.0992 l -0.0083,0.032 c -0.172974,0.22404 -0.0659,-0.12779 -0.01447,-0.13125 z m -8.204668,0.002 c 0.03673,0.002 0.05965,0.0335 0.02997,0.11782 -0.02238,0.0293 -0.01037,0.11019 -0.07131,0.0827 -0.188417,-0.0596 -0.03947,-0.20384 0.04134,-0.20051 z m 2.693376,0.005 c 0.01058,0.001 0.02217,0.0137 0.03307,0.0444 v 0.0134 c -0.107977,0.14221 -0.07895,-0.0636 -0.03307,-0.0579 z m -5.379516,0.0124 c 0.03169,0.002 0.06215,0.0324 0.07803,0.11059 0.0016,0.0482 0.01019,0.0827 -0.04909,0.0971 -0.231661,0.0335 -0.12401,-0.21387 -0.02894,-0.20774 z m 8.913151,0.0692 c 0.01659,-7.9e-4 0.04194,0.0534 0.101285,0.19844 0.01971,0.22017 0.316365,0.30351 0.234095,0.51987 -0.03057,0.32078 -0.240895,0.0703 -0.182935,-0.13746 0.0041,-0.32131 -0.250354,-0.0667 -0.179835,0.12557 0.0019,0.14131 0.02934,0.18852 -0.138494,0.16382 -0.01714,-0.19678 -0.130651,-0.41246 0.04134,-0.57206 0.09362,-0.14225 0.09687,-0.29678 0.124542,-0.29818 z m 4.257619,0.12765 c 0.04763,0.002 0.176205,0.26918 0.160716,0.35191 -0.185817,0.15081 -0.181123,-0.0603 -0.165883,-0.20515 -0.01963,-0.10733 -0.01347,-0.14754 0.0052,-0.14676 z m 0.357603,0.0387 c 0.02138,8e-4 0.05132,0.0273 0.08785,0.10181 v 0.0109 c -0.139486,0.11812 -0.151985,-0.11468 -0.08785,-0.11266 z m -0.987539,0.0227 c 0.04831,-0.006 0.0779,0.0173 0.03928,0.0946 -0.01939,0.058 -0.02418,0.10348 -0.0987,0.0827 -0.243094,-0.0138 -0.04684,-0.16471 0.05943,-0.17725 z m 0.319879,0.0315 c 0.01918,5.3e-4 0.02447,0.0366 -0.0016,0.13333 -0.0217,0.0706 0.06508,0.2074 -0.07493,0.1633 -0.163414,0.0226 0.01892,-0.29794 0.07648,-0.29663 z m -10.789005,0.0915 c 0.02061,0.001 0.05902,0.0362 0.119888,0.13591 -0.10832,0.0794 -0.172585,-0.13871 -0.119888,-0.13591 z m 8.133869,0.031 c 0.01334,-0.003 0.0483,0.0171 0.116273,0.077 0.05972,0.22903 -0.163912,-0.0671 -0.116273,-0.077 z m -9.276435,0.006 c 0.0069,-0.002 0.02765,0.0215 0.07183,0.0915 0.06077,0.2569 -0.09634,-0.083 -0.07183,-0.0915 z m 11.159009,0.14314 c 0.08071,-0.0103 0.21768,0.0993 0.168981,0.22893 0.05658,0.28291 -0.241771,0.13869 -0.201022,-0.0594 -0.04419,-0.11382 -0.01638,-0.16334 0.03204,-0.1695 z m -8.221721,0.15193 c 0.03346,0.003 0.06874,0.0446 0.08682,0.15658 0.01233,0.0842 0.0013,0.0748 -0.07545,0.0698 -0.149429,-0.0477 -0.08499,-0.23227 -0.01138,-0.22634 z m 4.640543,0.0382 c 0.01992,2.6e-4 0.03217,0.0225 0.02585,0.0811 v 0.10697 c -0.262626,0.09 -0.09696,-0.18937 -0.02585,-0.1881 z m -1.813843,0.003 c 0.02764,0.003 0.0573,0.0342 0.07855,0.11523 -0.01984,0.004 0.02392,0.0698 -0.0016,0.0698 -0.225809,0.0573 -0.159909,-0.19294 -0.077,-0.185 z m -1.019575,0.0315 c 0.0154,-1e-5 0.02762,0.0156 0.03152,0.0563 l -0.01035,0.0315 c -0.215694,0.20396 -0.08789,-0.0878 -0.02119,-0.0879 z m 5.372799,0.0191 c 0.01543,-7.9e-4 0.03358,0.0138 0.05323,0.0532 v 0.007 c -0.135565,0.23164 -0.120026,-0.0564 -0.05323,-0.0599 z m -1.61644,0.006 c 0.01744,-0.003 0.05817,0.0174 0.134876,0.0785 0.03843,0.23184 -0.197149,-0.0691 -0.134876,-0.0785 z m 3.063896,0.006 c 0.01717,-5.3e-4 0.03924,0.0183 0.06511,0.0724 -0.124357,0.18377 -0.126479,-0.0702 -0.06511,-0.0724 z m -9.711553,0.0398 c 0.01767,-2e-5 0.03902,0.01 0.06356,0.0341 v 0.0114 c -0.143862,0.13008 -0.140139,-0.0454 -0.06356,-0.0455 z" />
  </g>
</svg>
