<?xml version="1.0" encoding="UTF-8" standalone="no"?>
<!-- Created with Inkscape (http://www.inkscape.org/) -->

<svg
   width="5.7017355mm"
   height="10.514342mm"
   viewBox="0 0 5.7017356 10.514342"
   version="1.1"
   id="svg47190"
   inkscape:version="1.1.1 (3bf5ae0d25, 2021-09-20)"
   sodipodi:docname="Hero.svg"
   xmlns:inkscape="http://www.inkscape.org/namespaces/inkscape"
   xmlns:sodipodi="http://sodipodi.sourceforge.net/DTD/sodipodi-0.dtd"
   xmlns="http://www.w3.org/2000/svg"
   xmlns:svg="http://www.w3.org/2000/svg">
  <sodipodi:namedview
     id="namedview47192"
     pagecolor="#ffffff"
     bordercolor="#666666"
     borderopacity="1.0"
     inkscape:pageshadow="2"
     inkscape:pageopacity="0.0"
     inkscape:pagecheckerboard="0"
     inkscape:document-units="mm"
     showgrid="false"
     inkscape:zoom="8"
     inkscape:cx="1.0625"
     inkscape:cy="40.4375"
     inkscape:window-width="1920"
     inkscape:window-height="1017"
     inkscape:window-x="-8"
     inkscape:window-y="-8"
     inkscape:window-maximized="1"
     inkscape:current-layer="layer1" />
  <defs
     id="defs47187">
    <clipPath
       clipPathUnits="userSpaceOnUse"
       id="clipPath63680-8">
      <path
         d="M 0,0 H 595.276 V 841.89 H 0 Z"
         id="path63678-4" />
    </clipPath>
    <clipPath
       id="clip26-8">
      <path
         d="m 177,605 h 14 v 7 h -14 z m 0,0"
         id="path4278-6" />
    </clipPath>
    <clipPath
       id="clip27-6">
      <path
         d="m 181.85547,606.17578 c -0.28516,0.53516 -0.66797,0.60547 -0.94141,0.66797 -0.27344,0.0586 -0.40625,0.0234 -0.72656,0.15234 -0.32031,0.13282 -0.25,0.26172 -0.28516,0.47657 -0.0352,0.21484 -0.0977,0.27343 -0.40625,1.09765 -0.30859,0.82031 -1.14062,2.03516 -1.4414,2.53516 -0.29688,0.5 -0.67578,0.47656 -0.79688,0.82031 -0.11719,0.34766 0.0117,0.82031 0.41797,1.10938 0.40234,0.28515 0.92969,0.11718 1.23828,0.0703 0.3086,-0.0469 0.40235,-0.0352 0.40235,-0.0352 l 0.33593,0.0234 c 0,0 -0.53906,-1.8125 0.77344,-1.73828 1.30859,0.0703 2,0.67578 2.90234,0.71484 0.90625,0.0352 1.0625,-0.25 1.72657,-0.25 0.66797,0 1.22656,0.19922 1.54687,0.23438 0.32422,0.0391 1.33594,0.0156 1.33594,0.0156 l 1.35547,-4.07422 h 0.30859 l -0.0195,0.53907 0.57813,-0.63282 c 0,0 0.15625,0.0234 0.24218,-0.0586 0.082,-0.0859 0.15235,-0.35938 -0.0586,-0.65625 -0.21484,-0.29688 -0.48047,-0.60547 -1.21484,-1.14063 -0.73829,-0.53906 -1.32422,-1.05078 -3.69141,-1.14453 -0.125,-0.004 -0.25,-0.008 -0.36719,-0.008 -2.09765,0 -2.94531,0.77344 -3.21484,1.28125"
         id="path4281-9" />
    </clipPath>
    <clipPath
       id="clip28-5">
      <path
         d="m 177,611 h 4 v 3 h -4 z m 0,0"
         id="path4284-9" />
    </clipPath>
    <clipPath
       id="clip29-3">
      <path
         d="m 181.85547,606.17578 c -0.28516,0.53516 -0.66797,0.60547 -0.94141,0.66797 -0.27344,0.0586 -0.40625,0.0234 -0.72656,0.15234 -0.32031,0.13282 -0.25,0.26172 -0.28516,0.47657 -0.0352,0.21484 -0.0977,0.27343 -0.40625,1.09765 -0.30859,0.82031 -1.14062,2.03516 -1.4414,2.53516 -0.29688,0.5 -0.67578,0.47656 -0.79688,0.82031 -0.11719,0.34766 0.0117,0.82031 0.41797,1.10938 0.40234,0.28515 0.92969,0.11718 1.23828,0.0703 0.3086,-0.0469 0.40235,-0.0352 0.40235,-0.0352 l 0.33593,0.0234 c 0,0 -0.53906,-1.8125 0.77344,-1.73828 1.30859,0.0703 2,0.67578 2.90234,0.71484 0.90625,0.0352 1.0625,-0.25 1.72657,-0.25 0.66797,0 1.22656,0.19922 1.54687,0.23438 0.32422,0.0391 1.33594,0.0156 1.33594,0.0156 l 1.35547,-4.07422 h 0.30859 l -0.0195,0.53907 0.57813,-0.63282 c 0,0 0.15625,0.0234 0.24218,-0.0586 0.082,-0.0859 0.15235,-0.35938 -0.0586,-0.65625 -0.21484,-0.29688 -0.48047,-0.60547 -1.21484,-1.14063 -0.73829,-0.53906 -1.32422,-1.05078 -3.69141,-1.14453 -0.125,-0.004 -0.25,-0.008 -0.36719,-0.008 -2.09765,0 -2.94531,0.77344 -3.21484,1.28125"
         id="path4287-0" />
    </clipPath>
    <clipPath
       id="clip30-0">
      <path
         d="m 177,610 h 5 v 4 h -5 z m 0,0"
         id="path4290-1" />
    </clipPath>
    <clipPath
       id="clip31-8">
      <path
         d="m 181.85547,606.17578 c -0.28516,0.53516 -0.66797,0.60547 -0.94141,0.66797 -0.27344,0.0586 -0.40625,0.0234 -0.72656,0.15234 -0.32031,0.13282 -0.25,0.26172 -0.28516,0.47657 -0.0352,0.21484 -0.0977,0.27343 -0.40625,1.09765 -0.30859,0.82031 -1.14062,2.03516 -1.4414,2.53516 -0.29688,0.5 -0.67578,0.47656 -0.79688,0.82031 -0.11719,0.34766 0.0117,0.82031 0.41797,1.10938 0.40234,0.28515 0.92969,0.11718 1.23828,0.0703 0.3086,-0.0469 0.40235,-0.0352 0.40235,-0.0352 l 0.33593,0.0234 c 0,0 -0.53906,-1.8125 0.77344,-1.73828 1.30859,0.0703 2,0.67578 2.90234,0.71484 0.90625,0.0352 1.0625,-0.25 1.72657,-0.25 0.66797,0 1.22656,0.19922 1.54687,0.23438 0.32422,0.0391 1.33594,0.0156 1.33594,0.0156 l 1.35547,-4.07422 h 0.30859 l -0.0195,0.53907 0.57813,-0.63282 c 0,0 0.15625,0.0234 0.24218,-0.0586 0.082,-0.0859 0.15235,-0.35938 -0.0586,-0.65625 -0.21484,-0.29688 -0.48047,-0.60547 -1.21484,-1.14063 -0.73829,-0.53906 -1.32422,-1.05078 -3.69141,-1.14453 -0.125,-0.004 -0.25,-0.008 -0.36719,-0.008 -2.09765,0 -2.94531,0.77344 -3.21484,1.28125"
         id="path4293-6" />
    </clipPath>
  </defs>
  <g
     inkscape:label="Layer 1"
     inkscape:groupmode="layer"
     id="layer1"
     transform="translate(-87.764038,-75.462744)">
    <path
       style="fill:none;stroke:#000000;stroke-width:0.5;stroke-linejoin:round;stroke-miterlimit:4;stroke-dasharray:none;stroke-opacity:1;paint-order:markers fill stroke;stop-color:#000000"
       d="m 89.825237,85.353495 c 0.429447,-0.201832 0.787136,-0.366968 0.794865,-0.366968 0.0077,0 0.371064,0.167536 0.807411,0.372303 0.480698,0.225579 0.789197,0.368273 0.789197,0.368273 0,0 -0.17782,-1.612438 -0.196976,-1.708115 -0.0079,-0.0395 0.07193,-0.132349 0.593462,-0.690197 0.331429,-0.354508 0.602599,-0.657711 0.602599,-0.657711 0,0 -0.384049,-0.08575 -0.853442,-0.17448 -0.469394,-0.08873 -0.863245,-0.170649 -0.875225,-0.18204 -0.01198,-0.01139 -0.178183,-0.303885 -0.369339,-0.649986 -0.30512,-0.552441 -0.343696,-0.631317 -0.315943,-0.645998 0.221768,-0.117317 0.253679,-0.456678 0.0584,-0.620998 -0.03133,-0.02636 -0.06455,-0.04794 -0.07382,-0.04794 -0.0093,0 -0.01685,-0.0575 -0.01685,-0.127789 v -0.127788 h 0.117365 0.117365 l 0.03045,-0.104728 c 0.0416,-0.143083 0.07115,-0.195436 0.157783,-0.279513 0.122003,-0.118399 0.176784,-0.126911 0.81678,-0.126911 h 0.55766 l 0.150989,-0.150205 0.150989,-0.150204 v -0.233008 -0.233007 l -0.200811,-0.10071 -0.20081,-0.10071 v -0.963542 -0.963542 l 0.168863,-0.05521 0.168863,-0.05521 0.0051,-0.280922 0.0051,-0.280922 -0.150699,-0.151486 -0.1507,-0.151487 h -1.890342 -1.890246 l -0.150699,0.151487 -0.1507,0.151486 0.0051,0.280581 0.0051,0.28058 0.159735,0.05322 0.159736,0.05322 -3.7e-5,0.970582 -3.6e-5,0.970581 -0.196207,0.100405 -0.196207,0.100405 -0.0051,0.225271 -0.0051,0.225271 0.149857,0.15353 0.149857,0.15353 h 0.541112 c 0.600223,0 0.667651,0.0095 0.790252,0.110855 0.08208,0.06788 0.155477,0.204425 0.17108,0.31826 l 0.01125,0.08204 h 0.143562 0.143562 l -6.93e-4,0.123225 c -6.85e-4,0.12172 -0.0015,0.123806 -0.06976,0.170928 -0.08106,0.05599 -0.1332,0.155337 -0.144857,0.276022 -0.01082,0.112061 0.05988,0.264349 0.151709,0.32675 0.0409,0.02779 0.05995,0.05301 0.05336,0.07061 -0.03819,0.102003 -0.695077,1.260596 -0.718327,1.266959 -0.01597,0.0044 -0.409878,0.07561 -0.873211,0.169171 l -0.843599,0.17035 0.607424,0.655137 0.606853,0.64601 -0.09927,0.8131 c -0.101205,0.828953 -0.121723,0.944793 -0.121723,0.944793 l 0.818106,-0.37363 z"
       id="path2117"
       sodipodi:nodetypes="csscsscssssssscccssscccccccccccccccccccccccccccccccssscccssssssscccsccc" />
    <g
       id="g1878"
       transform="matrix(0.2144356,0,0,0.2144356,70.15755,64.334814)">
      <path
         d="m 95.375689,76.736891 -3.981773,7.214034 -8.1275,1.569284 5.66817,6.042925 -1.030577,8.197767 7.47168,-3.513324 7.495101,3.513324 -1.03058,-8.197767 5.64475,-6.042925 -8.104079,-1.545861 z"
         id="path3943"
         style="color:#000000;font-style:normal;font-variant:normal;font-weight:normal;font-stretch:normal;font-size:medium;line-height:normal;font-family:Sans;-inkscape-font-specification:Sans;text-indent:0;text-align:start;text-decoration:none;text-decoration-line:none;letter-spacing:normal;word-spacing:normal;text-transform:none;writing-mode:lr-tb;direction:ltr;baseline-shift:baseline;text-anchor:start;display:inline;overflow:visible;visibility:visible;fill:#aa8800;fill-opacity:1;fill-rule:evenodd;stroke:none;stroke-width:0.330994;marker:none;enable-background:accumulate" />
      <g
         transform="matrix(0.93749998,0,0,0.93749998,67.991313,53.126869)"
         id="g3906"
         style="fill-rule:evenodd">
        <path
           d="m 31.044445,24.694445 c 0,1.013136 -0.821309,1.834444 -1.834444,1.834444 -1.013136,0 -1.834445,-0.821308 -1.834445,-1.834444 0,-1.013136 0.821309,-1.834444 1.834445,-1.834444 1.013135,0 1.834444,0.821308 1.834444,1.834444 z m -1.128889,0 c 0,0.389668 -0.315888,0.705555 -0.705555,0.705555 -0.389668,0 -0.705556,-0.315887 -0.705556,-0.705555 0,-0.389667 0.315888,-0.705555 0.705556,-0.705555 0.389667,0 0.705555,0.315888 0.705555,0.705555 z"
           id="path3876"
           style="fill:#aa8800;fill-opacity:1;stroke:none" />
        <path
           d="m 30.762223,24.694445 c 0,0.857268 -0.694953,1.552222 -1.552222,1.552222 -0.857269,0 -1.552222,-0.694954 -1.552222,-1.552222 0,-0.857269 0.694953,-1.552223 1.552222,-1.552223 0.857269,0 1.552222,0.694954 1.552222,1.552223 z m -0.564445,0 c 0,0.545535 -0.442243,0.987778 -0.987777,0.987778 -0.545536,0 -0.987778,-0.442243 -0.987778,-0.987778 0,-0.545535 0.442243,-0.987778 0.987778,-0.987778 0.545534,0 0.987777,0.442243 0.987777,0.987778 z"
           id="path3874"
           style="fill:#ffd42a;fill-opacity:1;stroke:none" />
      </g>
      <path
         d="m 87.041309,54.978937 h 16.668751 v 0.79375 H 87.041309 Z m -0.264583,13.493749 h 17.197914 v 0.79375 H 86.776726 Z m 9.524995,3.042709 c 0,0.511439 -0.414603,0.926042 -0.926041,0.926042 -0.511438,0 -0.926041,-0.414603 -0.926041,-0.926042 0,-0.511438 0.414603,-0.926042 0.926041,-0.926042 0.511438,0 0.926041,0.414604 0.926041,0.926042 z m -9.715164,-18.388542 -1.397332,1.389063 v 2.546615 l 1.587501,0.520898 v 9.086783 l -1.852084,0.926044 v 2.124943 c 0.501787,0.477501 0.976689,0.961575 1.397331,1.389067 h 4.754231 c 1.484753,0 2.226321,1.231757 2.257227,2.389519 h 3.836459 c 0.134012,-1.342669 1.020557,-2.389519 2.257226,-2.389519 h 5.002284 c 0.44257,-0.460062 0.90281,-0.905647 1.35599,-1.355992 l 0.0413,-0.03307 v -0.05788 -2.067062 l -1.85208,-0.926044 v -9.086783 l 1.5875,-0.520898 v -2.546615 l -1.39734,-1.389063 z"
         id="rect3999-7"
         style="fill:#aa8800;fill-opacity:1;fill-rule:evenodd;stroke:none;stroke-width:0.9375" />
      <path
         d="M 86.776726,54.714353 H 103.97464 V 56.03727 H 86.776726 Z m -0.264584,13.493749 h 17.727088 v 1.322917 H 86.512142 Z m 10.054162,3.307293 c 0,0.657564 -0.533061,1.190625 -1.190624,1.190625 -0.657564,0 -1.190623,-0.533061 -1.190623,-1.190625 0,-0.657565 0.533059,-1.190625 1.190623,-1.190625 0.657563,0 1.190624,0.53306 1.190624,1.190625 z M 86.694043,53.391437 h 17.363277 l 1.24024,1.231966 v 2.248958 l -1.5875,0.520898 v 9.442314 l 1.85208,0.926044 v 1.852084 l -1.24023,1.231965 h -4.894795 c -1.345684,0 -2.424764,1.064311 -2.497005,2.389518 H 93.573208 C 93.500965,71.909979 92.42189,70.845668 91.076204,70.845668 H 86.42946 l -1.240235,-1.231966 v -1.852083 l 1.852084,-0.926044 v -9.442313 l -1.5875,-0.520899 v -2.248958 z"
         id="rect3997-1"
         style="fill:#ffd42a;fill-opacity:1;fill-rule:evenodd;stroke:none;stroke-width:0.9375" />
      <path
         d="M 87.570475,55.508104 H 103.18089 V 69.001853 H 87.570475 Z"
         id="rect4052"
         style="fill:#550000;fill-opacity:1;fill-rule:evenodd;stroke:none;stroke-width:0.9375" />
      <path
         d="M 87.835058,55.772687 H 102.91631 V 68.737269 H 87.835058 Z"
         id="rect4054"
         style="fill:#d40000;fill-opacity:1;fill-rule:evenodd;stroke:none;stroke-width:0.9375" />
      <g
         transform="matrix(0.93749998,0,0,0.93749998,83.866309,53.126853)"
         id="g4169"
         style="fill:#ff0000;fill-rule:evenodd">
        <rect
           width="15.522223"
           height="0.28222224"
           x="4.5155549"
           y="3.3866665"
           id="rect4073"
           style="fill:#ff0000;fill-opacity:1;stroke:none" />
        <rect
           width="15.522223"
           height="0.28222224"
           x="4.5155549"
           y="4.2333331"
           id="rect4075"
           style="fill:#ff0000;fill-opacity:1;stroke:none" />
        <rect
           width="15.522223"
           height="0.28222224"
           x="4.5155549"
           y="5.0799994"
           id="rect4079"
           style="fill:#ff0000;fill-opacity:1;stroke:none" />
        <rect
           width="15.522223"
           height="0.28222224"
           x="4.5155549"
           y="5.9266658"
           id="rect4096"
           style="fill:#ff0000;fill-opacity:1;stroke:none" />
        <rect
           width="15.522223"
           height="0.28222224"
           x="4.5155549"
           y="6.7733321"
           id="rect4098"
           style="fill:#ff0000;fill-opacity:1;stroke:none" />
        <rect
           width="15.522223"
           height="0.28222224"
           x="4.5155549"
           y="6.7733321"
           id="rect4105"
           style="fill:#ff0000;fill-opacity:1;stroke:none" />
        <rect
           width="15.522223"
           height="0.28222224"
           x="4.5155549"
           y="7.6199989"
           id="rect4107"
           style="fill:#ff0000;fill-opacity:1;stroke:none" />
        <rect
           width="15.522223"
           height="0.28222224"
           x="4.5155549"
           y="8.4666653"
           id="rect4109"
           style="fill:#ff0000;fill-opacity:1;stroke:none" />
        <rect
           width="15.522223"
           height="0.28222224"
           x="4.5155549"
           y="9.3133316"
           id="rect4111"
           style="fill:#ff0000;fill-opacity:1;stroke:none" />
        <rect
           width="15.522223"
           height="0.28222224"
           x="4.5155549"
           y="10.159998"
           id="rect4113"
           style="fill:#ff0000;fill-opacity:1;stroke:none" />
        <rect
           width="15.522223"
           height="0.28222224"
           x="4.5155549"
           y="10.159998"
           id="rect4127"
           style="fill:#ff0000;fill-opacity:1;stroke:none" />
        <rect
           width="15.522223"
           height="0.28222224"
           x="4.5155549"
           y="11.006664"
           id="rect4129"
           style="fill:#ff0000;fill-opacity:1;stroke:none" />
        <rect
           width="15.522223"
           height="0.28222224"
           x="4.5155549"
           y="11.853331"
           id="rect4131"
           style="fill:#ff0000;fill-opacity:1;stroke:none" />
        <rect
           width="15.522223"
           height="0.28222224"
           x="4.5155549"
           y="12.699997"
           id="rect4133"
           style="fill:#ff0000;fill-opacity:1;stroke:none" />
        <rect
           width="15.522223"
           height="0.28222224"
           x="4.5155549"
           y="13.546663"
           id="rect4135"
           style="fill:#ff0000;fill-opacity:1;stroke:none" />
        <rect
           width="15.522223"
           height="0.28222224"
           x="4.5155549"
           y="13.546663"
           id="rect4137"
           style="fill:#ff0000;fill-opacity:1;stroke:none" />
        <rect
           width="15.522223"
           height="0.28222224"
           x="4.5155549"
           y="14.393331"
           id="rect4139"
           style="fill:#ff0000;fill-opacity:1;stroke:none" />
        <rect
           width="15.522223"
           height="0.28222224"
           x="4.5155549"
           y="15.239997"
           id="rect4141"
           style="fill:#ff0000;fill-opacity:1;stroke:none" />
        <rect
           width="15.522223"
           height="0.28222224"
           x="4.5155549"
           y="16.086662"
           id="rect4143"
           style="fill:#ff0000;fill-opacity:1;stroke:none" />
      </g>
      <path
         d="m 95.382656,77.277933 -3.811563,6.905653 -7.78007,1.502201 5.425871,5.784605 -0.986524,7.847334 7.152286,-3.363139 7.174704,3.363139 -0.98652,-7.847334 5.40345,-5.784605 -7.757655,-1.479779 z"
         id="path4711"
         style="color:#000000;font-style:normal;font-variant:normal;font-weight:normal;font-stretch:normal;font-size:medium;line-height:normal;font-family:Sans;-inkscape-font-specification:Sans;text-indent:0;text-align:start;text-decoration:none;text-decoration-line:none;letter-spacing:normal;word-spacing:normal;text-transform:none;writing-mode:lr-tb;direction:ltr;baseline-shift:baseline;text-anchor:start;display:inline;overflow:visible;visibility:visible;fill:#ffdd55;fill-opacity:1;fill-rule:evenodd;stroke:none;stroke-width:0.330994;marker:none;enable-background:accumulate" />
      <path
         d="m 83.795756,85.696397 11.586825,3.764789 -6.181292,2.008351 z m 11.586898,-8.418464 v 12.183179 l -3.820142,-5.258166 z m -7.16109,22.039668 7.16109,-9.856415 -7.3e-5,6.499411 z m 14.322176,0 -7.161086,-9.856415 7.4e-5,6.499411 z m 4.42581,-13.621204 -11.586822,3.764789 6.181292,2.008351 z"
         id="path34"
         style="fill:#f1cb40;fill-opacity:1;fill-rule:evenodd;stroke-width:0.9375" />
      <g
         transform="matrix(0.93749998,0,0,0.93749998,46.849451,53.126869)"
         id="g3993"
         style="fill-rule:evenodd">
        <path
           d="m 183.40625,70 c -1.38071,0 -2.5,1.119288 -2.5,2.5 v 13 c 0,1.380712 1.11929,2.5 2.5,2.5 1.38071,0 2.5,-1.119288 2.5,-2.5 v -13 c 0,-1.380712 -1.11929,-2.5 -2.5,-2.5 z"
           transform="scale(0.28222223)"
           id="path3969"
           style="fill:#aa8800;fill-opacity:1;stroke:none" />
        <path
           d="m 183.40625,71 c -0.82843,0 -1.5,0.671573 -1.5,1.5 v 13 c 0,0.828427 0.67157,1.5 1.5,1.5 0.82843,0 1.5,-0.671573 1.5,-1.5 v -13 c 0,-0.828427 -0.67157,-1.5 -1.5,-1.5 z"
           transform="scale(0.28222223)"
           id="path3971"
           style="fill:#ffd42a;fill-opacity:1;stroke:none" />
      </g>
    </g>
  </g>
</svg>
