<?xml version="1.0" encoding="UTF-8" standalone="no"?>
<!-- Created with Inkscape (http://www.inkscape.org/) -->

<svg
   width="16.041248mm"
   height="5.5946188mm"
   viewBox="0 0 16.041248 5.5946188"
   version="1.1"
   id="svg1"
   xml:space="preserve"
   sodipodi:docname="inkporter-svg-fua_ntp3.svg"
   xmlns:inkscape="http://www.inkscape.org/namespaces/inkscape"
   xmlns:sodipodi="http://sodipodi.sourceforge.net/DTD/sodipodi-0.dtd"
   xmlns="http://www.w3.org/2000/svg"
   xmlns:svg="http://www.w3.org/2000/svg"><sodipodi:namedview
     id="namedview1"
     pagecolor="#ffffff"
     bordercolor="#666666"
     borderopacity="1.0"
     inkscape:showpageshadow="2"
     inkscape:pageopacity="0.0"
     inkscape:pagecheckerboard="0"
     inkscape:deskcolor="#d1d1d1"
     inkscape:document-units="mm"
     inkscape:zoom="1.0293026"
     inkscape:cx="365.78163"
     inkscape:cy="281.25839"
     inkscape:window-width="1920"
     inkscape:window-height="1017"
     inkscape:window-x="-8"
     inkscape:window-y="-8"
     inkscape:window-maximized="1"
     inkscape:current-layer="layer1" /><defs
     id="defs1"><clipPath
       clipPathUnits="userSpaceOnUse"
       id="clipPath1544"><path
         d="M 0,0 H 595.276 V 841.89 H 0 Z"
         transform="translate(-172.36663,-750.91612)"
         id="path1544" /></clipPath></defs><g
     inkscape:label="Layer 1"
     inkscape:groupmode="layer"
     id="layer1"
     transform="translate(-76.729163,-120.12084)"><g
       id="it-Breda"
       transform="matrix(0.44291517,0,0,-0.44291517,-157.2044,456.55032)"><path
         style="fill:#000000;stroke-width:0.0581125"
         d="m 537.85987,747.08283 c 0.20027,0.35394 0.25291,0.77983 0.25364,2.05211 1.7e-4,0.30932 0.0333,0.65454 0.0735,0.76716 0.0634,0.17736 0.0614,0.21878 -0.0155,0.30968 -0.1126,0.13353 -0.13504,0.38756 -0.0313,0.35388 0.0414,-0.0135 0.28604,-0.0593 0.54362,-0.10177 0.2576,-0.0425 0.53533,-0.10611 0.6172,-0.1413 0.12548,-0.054 0.45454,-0.12268 0.67663,-0.1413 0.0322,-0.003 0.15579,-0.0198 0.27477,-0.0379 0.19849,-0.0302 0.21257,-0.0447 0.17083,-0.17458 -0.025,-0.0778 -0.0282,-0.1867 -0.007,-0.24188 0.0502,-0.13107 0.39564,-0.79317 0.51736,-0.99183 0.0522,-0.0854 0.0814,-0.18019 0.0645,-0.21081 -0.0167,-0.0306 -2.1e-4,-0.0722 0.0368,-0.0925 0.0489,-0.0268 0.0488,-0.0497 -6e-4,-0.084 -0.22311,-0.15461 0.34958,-0.40656 1.17749,-0.51803 0.16988,-0.0229 0.45558,-0.076 0.63487,-0.11806 0.36439,-0.0855 0.55154,-0.0497 0.42993,0.082 -0.0794,0.0861 -0.49203,0.20673 -0.84428,0.24691 -0.23316,0.0265 -0.29189,0.1009 -0.12239,0.15487 0.12552,0.04 0.22279,0.62277 0.1924,1.15277 l -0.0207,0.35634 0.15858,-0.0301 c 0.0872,-0.0165 0.26475,-0.0572 0.39451,-0.0903 0.20327,-0.0518 0.21436,-0.0621 0.0801,-0.0741 -0.0857,-0.007 -0.16896,-0.0379 -0.18497,-0.0671 -0.0542,-0.0988 0.11905,-0.15932 0.49178,-0.17179 0.41297,-0.0139 0.5745,-0.0912 0.3407,-0.16307 -0.0811,-0.025 -0.14612,-0.0691 -0.14459,-0.0981 0.005,-0.0878 0.1856,-0.22366 0.33743,-0.25339 0.16342,-0.0321 0.19802,-0.12887 0.0488,-0.1367 -0.0896,-0.005 -0.0901,-0.0138 -0.005,-0.0899 0.10048,-0.0904 1.15717,-0.179 1.31214,-0.10999 0.0693,0.0308 0.0745,0.11124 0.0279,0.4289 -0.0548,0.37343 -0.15009,0.53484 -0.34815,0.58949 -0.0323,0.009 -0.0746,0.0808 -0.0939,0.1597 -0.0926,0.37838 -0.12356,0.4343 -0.27527,0.49584 -0.13494,0.0548 -0.17104,0.0511 -0.21874,-0.0218 -0.0383,-0.0586 -0.0856,-0.0715 -0.14363,-0.0388 -0.0476,0.0267 -0.16011,0.0451 -0.25011,0.0408 -0.22123,-0.0109 -1.2709,0.20099 -1.48645,0.29939 -0.0953,0.0436 -0.25182,0.077 -0.34771,0.0745 -0.0959,-0.003 -0.22773,0.015 -0.29301,0.0391 -0.10141,0.0374 -0.0929,0.0457 0.0586,0.0572 0.22871,0.017 0.39717,0.15281 0.34254,0.27553 -0.0228,0.0515 -0.0182,0.0948 0.0104,0.0963 0.092,0.005 0.24385,-0.16655 0.24992,-0.282 0.008,-0.15465 0.17343,-0.13223 0.22518,0.0306 0.0233,0.0733 0.0367,0.30963 0.0299,0.52531 -0.0107,0.3569 -0.0226,0.39161 -0.12924,0.38601 -0.0642,-0.003 -0.11539,-0.0322 -0.11371,-0.0641 0.004,-0.0753 -0.19967,-0.30146 -0.27493,-0.30542 -0.032,-0.002 -0.0606,0.0296 -0.0637,0.0694 -0.003,0.0399 -0.0614,0.13263 -0.12954,0.20617 -0.0915,0.0988 -0.1399,0.11587 -0.18545,0.0653 -0.0839,-0.0932 -0.34234,0.0443 -0.4782,0.25462 -0.0762,0.11798 -0.19266,0.18221 -0.44758,0.24685 -0.18952,0.048 -0.3826,0.12024 -0.42906,0.16044 -0.0537,0.0464 -0.10361,0.0518 -0.13706,0.0146 -0.0334,-0.0371 -0.16832,-0.0245 -0.37074,0.035 -0.17498,0.0514 -0.42481,0.0878 -0.55516,0.0809 -0.13035,-0.007 -0.22434,0.0106 -0.20886,0.0389 0.0155,0.0283 10e-4,0.13202 -0.0335,0.2305 -0.0447,0.12987 -0.0404,0.22806 0.0157,0.35711 0.0991,0.22777 0.15164,0.26183 0.24612,0.15943 0.17832,-0.19327 0.48087,-0.025 0.46594,0.25913 -0.004,0.0803 0.0185,0.16411 0.0506,0.1863 0.032,0.0221 0.48296,0.0575 1.00212,0.0784 0.55685,0.0222 0.9569,0.0618 0.97558,0.0958 0.0175,0.0319 0.0319,0.32818 0.0322,0.65866 2.7e-4,0.33047 0.009,0.63429 0.0204,0.67515 0.0109,0.0409 -0.009,0.14145 -0.0461,0.2235 -0.0611,0.13846 -0.0844,0.1457 -0.32159,0.1004 -0.19311,-0.0369 -0.2686,-0.0284 -0.30835,0.0346 -0.0298,0.0473 -0.15252,0.0844 -0.28302,0.0856 -0.12671,10e-4 -0.26659,0.033 -0.31086,0.0706 -0.0443,0.0377 -0.24203,0.0634 -0.43945,0.0571 -0.19742,-0.006 -0.42477,-0.005 -0.5052,0.003 -0.0804,0.008 -0.4581,0.005 -0.83926,-0.008 -0.53004,-0.0174 -0.71105,-0.0424 -0.76976,-0.10802 -0.0632,-0.0702 -0.25858,-0.0871 -1.10481,-0.095 -0.56541,-0.005 -1.0672,-0.0116 -1.1151,-0.0137 -0.0478,-0.002 -0.24447,0.0386 -0.43685,0.0908 -0.23346,0.0634 -0.59308,0.0934 -1.08131,0.0902 -0.43188,-0.003 -0.74985,0.0206 -0.77628,0.0571 -0.0555,0.0766 -0.98522,0.0717 -1.12976,-0.006 -0.0595,-0.032 -0.61405,-0.0641 -1.26863,-0.0736 -1.36016,-0.0197 -1.29482,-0.0233 -1.33796,0.0736 -0.10673,0.23978 -0.48551,-0.25629 -0.46685,-0.61147 0.0127,-0.24096 -0.0529,-0.29982 -0.23504,-0.21103 -0.0746,0.0363 -0.16128,0.0563 -0.19265,0.0443 -0.0314,-0.012 -0.12197,-0.0322 -0.20131,-0.045 -0.0793,-0.0132 -0.18263,-0.0404 -0.22955,-0.0615 -0.0469,-0.021 -0.17627,-0.0506 -0.2875,-0.0657 -0.17274,-0.0235 -0.20113,-0.0485 -0.19462,-0.17251 0.007,-0.13694 0.0265,-0.14463 0.34474,-0.1372 0.18538,0.005 0.37554,-0.0207 0.42253,-0.0558 0.047,-0.035 0.18403,-0.0515 0.30453,-0.0367 0.12053,0.0143 0.35624,0.0137 0.52392,-0.004 0.29901,-0.0299 0.30673,-0.0355 0.40493,-0.29442 0.13906,-0.36662 0.28445,-0.87799 0.50743,-1.78467 0.20664,-0.84023 0.4099,-1.52294 0.57762,-1.94018 0.16955,-0.42178 0.16059,-0.47792 -0.10477,-0.65671 -0.13153,-0.0886 -0.29694,-0.21697 -0.36761,-0.28524 -0.0707,-0.0682 -0.3238,-0.24573 -0.56254,-0.39437 -0.23873,-0.14863 -0.45761,-0.32039 -0.48639,-0.38169 -0.0337,-0.0717 -0.12957,-0.12194 -0.26882,-0.14088 -0.22994,-0.0312 -0.242,-0.0645 -0.15043,-0.41431 0.0273,-0.10436 0.0137,-0.16537 -0.0434,-0.19068 l 1.10474,0.0956 c 0.0662,0.16097 0.0718,0.2423 0.0218,0.32483 -0.0809,0.13397 -0.0178,0.20582 0.52654,0.59724 0.69442,0.49946 0.66752,0.48829 0.94788,0.39361 0.13553,-0.0457 0.3012,-0.12881 0.36814,-0.18458 0.1617,-0.13468 0.81378,-0.41342 1.15373,-0.4932 0.52752,-0.12377 1.22224,-0.14819 2.19784,-0.0773 l 0.9809,0.0713 0.0213,-0.72629 c 0.012,-0.39945 0.0437,-0.75538 0.0707,-0.79093 0.0271,-0.0355 0.28921,-0.0708 0.58236,-0.0783 0.51851,-0.0132 0.53521,-0.01 0.61348,0.12855 z m 3.96723,1.01144 c -0.11811,0.0555 -0.2505,0.0851 -0.2942,0.0656 -0.0437,-0.0194 -0.081,-0.005 -0.083,0.0314 -0.002,0.0367 -0.0472,0.0568 -0.10077,0.0446 -0.0719,-0.0164 -0.10217,0.023 -0.11609,0.15139 -0.0335,0.30871 -0.0985,0.48303 -0.31395,0.84208 -0.11629,0.1938 -0.22519,0.36473 -0.24199,0.37985 -0.0168,0.0151 -0.0404,0.11208 -0.0526,0.21546 -0.018,0.15224 -9.2e-4,0.18908 0.0916,0.19394 0.0877,0.005 0.11583,-0.034 0.12287,-0.16811 0.008,-0.14644 0.0319,-0.17292 0.15241,-0.16659 0.0989,0.005 0.13229,0.0321 0.10785,0.0871 -0.0458,0.10285 0.0677,0.18185 0.16243,0.113 0.0401,-0.0292 0.1778,-0.0487 0.30589,-0.0433 0.34715,0.0142 0.57554,-0.0736 0.54713,-0.21142 -0.0128,-0.062 0.0134,-0.16027 0.0591,-0.21823 0.0913,-0.11677 0.0921,-0.22746 0.005,-0.73265 -0.0326,-0.18898 -0.093,-0.35862 -0.13422,-0.37698 -0.10942,-0.0487 -0.0812,-0.24102 0.0391,-0.26578 0.0566,-0.0117 0.0704,-0.026 0.0305,-0.0318 -0.0397,-0.006 -0.16904,0.0349 -0.28716,0.0904 z m 2.41748,1.17858 c -0.002,0.0319 0.0377,0.0602 0.0874,0.0628 0.0497,0.003 0.0758,-0.0222 0.0577,-0.0551 -0.018,-0.033 -0.0574,-0.0612 -0.0874,-0.0628 -0.0301,-0.002 -0.056,0.0232 -0.0577,0.0552 z m -10.30362,-0.48664 c -0.80977,0.10743 -0.82961,0.11196 -1.16699,0.2664 -0.34515,0.158 -0.42917,0.22402 -0.48959,0.38463 -0.0517,0.13718 0.078,0.46548 0.20638,0.52262 0.0497,0.0221 0.29545,0.19211 0.54611,0.37771 0.25064,0.18561 0.54442,0.39354 0.65285,0.46208 0.10841,0.0686 0.32697,0.21572 0.48567,0.32706 0.26977,0.18924 0.29964,0.19769 0.45874,0.12966 0.23912,-0.10226 0.84575,-0.22289 1.80197,-0.35833 l 0.33907,-0.048 -0.10798,-0.19714 c -0.0594,-0.10842 -0.10507,-0.25935 -0.1015,-0.33541 0.004,-0.076 -0.005,-0.19123 -0.0187,-0.25598 -0.0243,-0.11427 -0.0711,-0.1199 -1.6039,-0.19334 -1.81176,-0.0872 -1.95548,-0.10572 -1.94728,-0.26165 0.005,-0.10439 0.0739,-0.10593 1.4711,-0.033 0.80594,0.0421 1.60447,0.0671 1.77451,0.0557 l 0.30916,-0.0207 0.002,-0.3552 0.002,-0.35522 -0.28835,-0.0496 c -0.64215,-0.11053 -1.73856,-0.13988 -2.32445,-0.0621 z m -2.40317,1.52137 c -0.20441,0.40484 -0.48034,1.32249 -0.71916,2.39175 -0.0177,0.0791 -0.10342,0.41322 -0.19061,0.74251 -0.11856,0.44789 -0.14118,0.60551 -0.0897,0.6257 0.0378,0.0148 0.0668,0.064 0.0645,0.10922 -0.003,0.0659 0.12155,0.0888 0.63086,0.11555 0.72386,0.038 2.93135,0.0498 3.12982,0.0167 0.16154,-0.027 0.15357,-0.11144 -0.03,-0.31767 -0.0773,-0.0869 -0.15546,-0.20378 -0.17365,-0.25983 -0.0423,-0.13032 0.0204,-0.27367 0.11827,-0.26853 0.0415,0.002 0.0688,-0.0421 0.0606,-0.0987 -0.0525,-0.36497 -0.0741,-0.42578 -0.1526,-0.4299 -0.048,-0.003 -0.11066,-0.077 -0.1391,-0.16561 -0.0415,-0.12926 -0.0323,-0.17367 0.0464,-0.22514 0.0885,-0.0578 0.0865,-0.0685 -0.0198,-0.10849 -0.16437,-0.0618 -0.19542,-0.28725 -0.0642,-0.46625 0.1014,-0.13831 0.10219,-0.15341 0.0145,-0.26127 -0.0513,-0.063 -0.16795,-0.15014 -0.25936,-0.19377 -0.0914,-0.0437 -0.165,-0.10229 -0.16353,-0.13029 10e-4,-0.0281 -0.0221,-0.0523 -0.0524,-0.0539 -0.054,-0.003 -0.5665,-0.3672 -0.61988,-0.44074 -0.0149,-0.0206 -0.16986,-0.12842 -0.3443,-0.2397 -0.17445,-0.11127 -0.34749,-0.24301 -0.38455,-0.29277 -0.037,-0.0497 -0.10046,-0.0922 -0.1409,-0.0943 -0.0404,-0.002 -0.13247,-0.0584 -0.20452,-0.12519 -0.072,-0.0667 -0.13893,-0.12261 -0.1486,-0.12419 -0.01,-0.001 -0.0852,0.13107 -0.16787,0.29477 z m 7.09035,0.77944 c -0.51251,0.0966 -0.79895,0.17787 -0.82273,0.23353 -0.0201,0.0469 -0.0656,0.10548 -0.10126,0.13004 -0.045,0.0311 -0.0431,0.0548 0.006,0.0779 0.11018,0.0516 0.0787,0.13873 -0.0681,0.189 -0.10215,0.035 -0.10963,0.0477 -0.0319,0.0546 0.0557,0.005 0.1,0.0351 0.0983,0.067 -0.002,0.032 -0.0488,0.0577 -0.10485,0.0573 -0.0614,-2.2e-4 -0.0735,0.0125 -0.0303,0.0324 0.0392,0.0183 0.0553,0.0563 0.0357,0.0846 -0.0196,0.0282 -0.008,0.0529 0.0258,0.0546 0.0338,0.002 0.0594,0.0424 0.0568,0.0903 -0.003,0.0478 -0.0502,0.0851 -0.10618,0.0826 -0.0834,-0.004 -0.0872,0.006 -0.021,0.0527 0.0667,0.0474 0.0667,0.0721 4.2e-4,0.14461 -0.0474,0.0513 -0.0557,0.0888 -0.0202,0.0907 0.0735,0.004 0.14008,0.32634 0.1119,0.54235 l -0.0205,0.15712 0.48062,-0.0101 c 0.52393,-0.0109 0.7388,-0.0687 0.64458,-0.17337 -0.0399,-0.0444 -0.0303,-0.12649 0.0313,-0.26938 0.0488,-0.11308 0.11103,-0.25679 0.13816,-0.31939 0.0272,-0.0626 0.0472,-0.16767 0.0444,-0.23354 -0.003,-0.0659 0.0499,-0.16448 0.11704,-0.21911 0.17908,-0.14573 0.29203,-0.46473 0.20563,-0.58072 -0.0569,-0.0763 -0.047,-0.096 0.0592,-0.11782 0.0934,-0.0193 0.12967,-0.0708 0.13612,-0.19358 0.005,-0.0921 -0.0108,-0.1685 -0.0347,-0.16994 -0.024,-10e-4 -0.39732,0.064 -0.82975,0.14554 z m 0.8933,0.57099 c -0.15425,0.22547 -0.16381,0.32656 -0.0313,0.33111 0.16169,0.005 0.31222,-0.12765 0.3204,-0.28355 0.0147,-0.27968 -0.11564,-0.30112 -0.2891,-0.0476 z m -3.22416,-0.093 c -0.79765,0.19864 -0.88066,0.23975 -0.83573,0.41394 0.0671,0.26009 0.0477,0.36108 -0.0955,0.49997 -0.14387,0.13941 -0.14701,0.15603 -0.099,0.52474 l 0.0497,0.38077 0.22986,-0.0457 c 0.17737,-0.0353 0.2223,-0.0675 0.19683,-0.14133 -0.0672,-0.19475 -0.0698,-0.51954 -0.005,-0.55529 0.0364,-0.0199 0.30878,-0.0381 0.60523,-0.0402 0.29647,-0.002 0.56275,-0.0238 0.59173,-0.0482 0.029,-0.0243 0.0698,-0.2273 0.0908,-0.45098 0.0208,-0.22369 0.0594,-0.43741 0.0854,-0.47497 0.0301,-0.0436 0.0223,-0.0545 -0.0218,-0.0304 -0.0855,0.0468 -0.0855,-10e-4 -5.2e-4,-0.14248 0.0491,-0.0813 0.0468,-0.10271 -0.01,-0.087 -0.0414,0.0115 -0.39359,0.10009 -0.78275,0.197 z m 4.96996,2.32052 c -0.008,0.14342 0.0976,0.41522 0.16192,0.4186 0.0268,10e-4 0.0549,-0.11496 0.0625,-0.25859 0.0117,-0.22246 -0.003,-0.26205 -0.10234,-0.26724 -0.0764,-0.004 -0.11809,0.0325 -0.12201,0.10723 z m -6.03202,0.0351 c -0.012,-6.2e-4 -0.0239,0.0388 -0.0264,0.0877 -0.003,0.0488 -0.043,0.10129 -0.0897,0.11649 -0.19217,0.0624 -0.021,0.16776 0.33023,0.20333 l 0.37017,0.0375 0.0379,-0.34363 0.0379,-0.34366 -0.31914,0.1217 c -0.17554,0.067 -0.32896,0.12119 -0.34094,0.12056 z m 5.97146,0.53984 c 0.0186,0.13417 0.14062,0.36313 0.19503,0.36599 0.0217,10e-4 0.003,-0.10456 -0.0395,-0.23485 -0.0811,-0.24304 -0.18287,-0.32896 -0.15544,-0.13114 z"
         id="path50400-5"
         sodipodi:nodetypes="csssssssssssssssssssscssssssssssssssssssssssssssssssssssssssssssssssssssssssssssscssssssssssssssssssssssssssccsssssscsssccssssssssssssssssssssssssssssssssssscscssscscccsscssssssssssssssscsssssssssccsssssssssssscsssscssssssssscsssssssssscssssssssssssssssssssscccssssss" /><path
         id="path46620-3"
         style="fill:#000000;stroke-width:0.0312768"
         d="m 543.85387,757.14185 c 0.0435,-0.13761 0.0865,-0.28925 0.0967,-0.33545 0.0132,-0.0598 0.0509,-0.0948 0.1289,-0.12305 0.0602,-0.0218 0.1084,-0.0524 0.1084,-0.0674 0,-0.015 -0.11589,-0.14615 -0.25781,-0.2915 -0.27753,-0.28425 -0.41387,-0.51594 -0.44678,-0.76026 -0.032,-0.23716 -0.0744,-0.33494 -0.24756,-0.57275 -0.0912,-0.12532 -0.20445,-0.3053 -0.25195,-0.39991 l -0.43799,-0.21679 c -0.0764,-0.003 -0.14939,-0.009 -0.22119,-0.0176 h -0.18604 l -0.35302,0.12744 -0.34864,0.022 -0.22705,0.10694 -0.1875,-0.96387 0.88917,-0.10694 0.12304,-0.14794 0.0513,-0.0161 0.11719,-0.40577 c 0.0418,-0.18867 0.0835,-0.28838 0.16552,-0.40283 0.0955,-0.13336 0.39648,-0.74138 0.42628,-0.85986 0.014,-0.0557 -4e-5,-0.0942 -0.0542,-0.14502 l -0.33985,-0.45704 c 0.0275,-0.0331 -0.0166,-0.10698 -0.20654,-0.33984 h -10e-4 c -0.13353,-0.16369 -0.27787,-0.34407 -0.32227,-0.40137 l -0.1875,-0.27831 -0.16553,-0.12452 -0.41748,-0.42041 -0.0791,-0.14209 c -0.0431,-0.0783 -0.1026,-0.25193 -0.1333,-0.38525 0,0 5.4e-4,-0.18341 10e-4,-0.4336 0.0118,-0.037 0.11745,-0.16284 0.23437,-0.27978 0.2909,-0.29086 0.39925,-0.32428 1.10889,-0.3252 0.51454,-7.5e-4 0.57423,0.008 0.73536,0.10547 0.12569,0.0764 0.2604,0.11574 0.3501,0.10254 l 0.0981,-0.0146 -0.10693,-0.0879 c -0.0588,-0.0488 -0.11824,-0.089 -0.13184,-0.0894 -0.0137,-4.7e-4 -0.0207,-0.0953 -0.0146,-0.21094 0.0127,-0.2882 0.0353,-0.29942 0.5874,-0.27832 0.53506,0.0205 0.85074,0.0815 1.14111,0.22119 0.1264,0.0608 0.24966,0.11093 0.27246,0.11133 0.0229,3e-4 0.0746,0.027 0.11572,0.0586 0.0673,0.0518 0.0725,0.0732 0.0557,0.22559 -0.0103,0.0928 -0.0313,0.23737 -0.0469,0.32227 -0.0232,0.12666 -0.022,0.14517 0.0102,0.10107 0.0215,-0.0296 0.0532,-0.0514 0.0688,-0.0454 0.0509,0.016 0.21476,-0.14509 0.27686,-0.27247 0.0923,-0.18915 0.2298,-0.24429 0.54492,-0.21679 0.23264,0.0203 0.2532,0.0286 0.271,0.0996 0.029,0.1153 -0.009,0.36048 -0.0937,0.6123 -0.0417,0.12372 -0.0847,0.3252 -0.0952,0.44825 l -0.019,0.22412 0.0967,0.0337 0.0981,0.0337 -0.0117,0.27832 c -0.01,0.24401 -0.0208,0.29211 -0.0967,0.39844 l -0.0864,0.12158 0.10547,0.0176 c 0.059,0.01 0.17247,0.0762 0.25927,0.14941 0.0853,0.0718 0.18632,0.13038 0.22412,0.13038 0.11468,0 0.34179,0.1247 0.45411,0.24902 0,0 0.0977,0.22804 0.11425,0.2666 0,0.0619 0.0149,0.0791 0.0747,0.0791 0.14479,0 0.17578,0.0288 0.17578,0.17432 0,0.0803 0.0133,0.13769 0.0337,0.13769 -0.066,-0.26056 0.1118,-0.29581 0.14063,-0.37207 0.10105,-0.11989 0.17158,-0.1205 0.42481,-0.006 0.33597,0.15245 0.43359,0.3049 0.43359,0.68262 0,0.1721 0.009,0.20053 0.0762,0.24463 0.102,0.0668 0.13377,0.2177 0.063,0.2959 -0.0407,0.0449 -0.0473,0.0884 -0.0308,0.17871 0.0119,0.0653 0.0243,0.18783 0.0293,0.27393 0.005,0.086 0.0185,0.22302 0.0308,0.30322 0.0278,0.18422 -0.0504,0.44024 -0.16113,0.52734 -0.0959,0.0756 -0.13182,0.0765 -0.27393,0.009 -0.10152,-0.049 -0.11446,-0.0494 -0.15966,-0.004 -0.0422,0.0422 -0.045,0.0663 -0.0117,0.1582 0.0498,0.1376 0.0194,0.30821 -0.0762,0.42188 -0.0854,0.1014 -0.2871,0.16501 -0.52735,0.16552 -0.25158,7.3e-4 -0.25107,-7.5e-4 -0.20947,0.38525 0.0266,0.24558 0.0279,0.41685 0.003,0.64746 -0.0188,0.17238 -0.0352,0.37767 -0.0352,0.45558 0,0.28816 -0.21498,0.663 -0.45996,0.80127 -0.0912,0.0515 -0.19335,0.12868 -0.22705,0.17138 -0.075,0.0954 -0.29112,0.15236 -0.90966,0.24316 -0.095,0.014 -0.12371,0.0377 -0.18311,0.15674 -0.0385,0.0772 -0.0897,0.14062 -0.11426,0.14062 0,0 -1.05452,0.97638 -1.66127,-0.20264 z m 1.96434,-6.83794 c 0.0361,0.008 0.0571,3.2e-4 0.0571,-0.022 0,-0.0139 -0.0692,-0.0486 -0.15527,-0.0762 -0.086,-0.0275 -0.15674,-0.0456 -0.15674,-0.0396 0,0.005 0.0501,0.0386 0.11133,0.0747 0.0572,0.0338 0.10748,0.0558 0.14355,0.063 z m -0.35449,-0.19043 c 0.003,-0.004 -0.01,-0.0137 -0.0366,-0.0322 -0.0322,-0.0221 -0.11235,-0.0831 -0.17724,-0.13623 -0.0828,-0.0677 -0.1551,-0.0971 -0.24171,-0.10108 -0.11436,-0.005 -0.12537,0.002 -0.15527,0.0996 l -0.0322,0.10546 0.25489,0.022 c 0.13968,0.0119 0.28815,0.0287 0.33105,0.0366 0.036,0.007 0.0545,0.009 0.0571,0.006 z"
         sodipodi:nodetypes="cssssssccccccccccccsscccccccccccscccccccsscscccccscccccccccccsccsscccscsssccccsccccsscsssccscsscccccccccccc" /><path
         id="path66853-1"
         style="fill:#000000;stroke-width:0.0781223"
         d="m 560.98947,759.00106 c 0.46961,0.0256 0.49466,-0.37001 0.32928,-0.74015 -0.13779,-0.50352 -0.14716,-1.03 -0.20295,-1.54658 0.36618,0.0179 0.66928,-0.19831 0.8035,-0.52582 0.1188,-0.29077 0.35502,-0.45403 0.63827,-0.56624 0.0369,-0.45935 0.62903,-0.65632 0.71535,-1.028 -0.19366,-0.39578 0.23981,-0.65635 0.37129,-0.99533 0.20468,-0.41149 0.50705,-0.81343 0.65371,-1.23945 -0.023,-0.43079 -0.25495,-0.86982 -0.28626,-1.26199 0.1702,-0.29062 0.38462,-0.65686 0.11245,-0.94822 0.19108,-0.20983 0.2952,-0.44693 0.24125,-0.73392 0.079,-0.31604 -0.0866,-0.53261 -0.32292,-0.7203 -0.13191,-0.23725 -0.52887,-0.41135 -0.69038,-0.14041 -0.28912,0.26043 -0.10429,0.62786 -0.0853,0.95781 -0.27142,0.18395 -0.49964,0.49583 -0.86382,0.40524 -0.25657,-0.20164 -0.32468,-0.61533 -0.15082,-0.92363 0.10462,-0.33421 0.41656,-0.90917 0.0401,-1.15 -0.90108,-0.0389 -1.82177,-0.20419 -2.7111,-0.0128 -0.037,0.25621 0.2278,0.66988 -0.0405,0.80539 -0.35794,0.18011 -0.59201,0.58775 -0.44805,0.9772 -0.0922,0.41015 0.52168,0.9867 0.16516,1.24208 -0.14767,0.19292 0.15512,0.53878 0.19437,0.79521 0.15994,0.16398 0.14811,0.74904 -0.0334,0.63257 -0.348,-0.28744 -0.98297,0.0523 -1.40954,0.0876 -0.76408,0.20213 -1.50123,0.49464 -2.26913,0.68473 -0.18539,0.2188 -0.46457,0.39881 -0.59293,0.64126 -0.13856,0.55712 0.61592,0.11268 0.91814,0.14398 0.56266,-0.0533 0.74923,-0.80302 1.31888,-0.65689 0.38455,0.006 0.76911,0.008 1.15366,0.0128 0.25763,0.35792 0.31693,0.82329 -0.21301,0.58051 -0.47054,0.0381 -0.15905,0.76742 0.25971,0.82096 -0.0731,0.30891 0.26325,1.00879 -0.15431,0.98384 -0.25316,0.0566 -0.73335,-0.16654 -0.70705,0.23442 -0.24337,0.67182 -0.42512,1.38766 -0.38818,2.10932 0.20478,0.2568 0.5061,0.17807 0.79198,0.15295 0.55769,-0.14322 1.43453,0.1814 1.61481,-0.54658 0.001,-0.23367 -0.25627,-0.53624 -0.10474,-0.7281 0.33239,-0.13373 1.02377,-0.28789 0.96826,0.26933 0.34709,0.59612 0.16585,1.33214 0.3844,1.92811 z m -1.09356,-10.47495 c -0.35886,-0.53285 0.15385,-0.17832 0.24317,-0.0638 -0.0811,0.0205 -0.16212,0.0426 -0.24317,0.0638 z" /><path
         id="path66851-1"
         style="fill:#000000;stroke-width:0.0781223"
         d="m 551.94549,759.37187 c 0.4583,-0.16372 0.65204,-0.41306 0.0546,-0.29372 -0.69076,0.0684 -0.42301,-0.13706 0.10474,-0.0915 0.96967,0.11375 -0.36224,-0.45251 -0.74203,-0.26988 -0.41203,0.0359 0.61502,-0.23981 0.0171,-0.39085 0.26724,-0.0179 -0.24478,-0.49658 0.24445,-0.16346 0.27431,0.11042 -0.38636,-0.56821 -0.1027,-0.37928 0.32424,0.0837 -0.50454,-0.33853 0.12203,-0.22906 0.16246,-0.26409 0.47669,0.39582 0.65866,0.17987 0.0404,-0.27056 -0.12285,-0.63074 0.17822,-0.78656 0.43981,-0.27757 0.41091,-0.52263 -0.18987,-0.4222 -0.46317,0.10372 -1.17908,-0.13015 -1.49618,0.2475 -0.14101,0.3933 -0.74228,0.57808 -0.67961,1.03312 0.0559,0.47022 -0.25587,0.72714 -0.56052,0.87522 -0.30549,0.0833 -0.48997,-0.13911 -0.68479,-0.33529 0.006,-0.58715 0.44561,-1.0857 0.55192,-1.66327 0.0826,-0.43202 0.54764,-0.62173 0.81596,-0.93612 0.30929,-0.31532 0.8186,-0.26948 1.19551,-0.47603 0.49723,-0.0477 0.44099,-0.49771 0.45701,-0.86049 -0.006,-0.33865 0.0958,-0.72325 0.0236,-1.03298 -0.32735,-0.14065 -0.26036,-0.47249 -0.27011,-0.76715 -0.25789,-0.28111 -0.81416,-0.38652 -1.14385,-0.67414 -0.36007,-0.23596 -0.30163,-0.77176 -0.38889,-1.15909 0.25892,-0.31842 0.71235,-0.52733 0.7343,-0.97893 0.11609,-0.43592 0.13609,-0.88858 0.12908,-1.33743 -0.19274,-0.18856 -0.49561,-0.32402 -0.62499,-0.54334 -0.10043,-0.6193 0.68645,-0.35271 1.07222,-0.40726 0.26188,0.0153 0.49007,0.19472 0.73895,0.27343 -0.1027,0.75421 -0.14173,1.51486 -0.19026,2.27395 0.21668,0.14347 0.51198,0.24493 0.40999,0.56083 0.20801,0.31716 1.31374,0.7018 1.28941,-0.0354 0.32698,-0.84481 0.33902,-1.7899 0.74451,-2.60143 0.26883,-0.15526 0.53803,-0.30822 0.85865,-0.22572 0.23776,0.0564 0.61917,-0.10815 0.67848,0.22315 0.20172,0.37277 0.0521,0.82877 0.0968,1.23873 0.0355,0.51579 -0.0363,1.01785 -0.16869,1.51561 -0.13205,0.56913 -0.10508,1.18159 -0.22107,1.74286 -0.26367,0.26961 -0.4811,0.73024 0.0815,0.58077 0.43765,-0.13041 0.78831,0.29664 0.71976,0.72492 -0.0372,0.85231 -0.56832,1.56836 -0.89401,2.33347 -0.39903,0.23263 -0.94645,0.14937 -1.24685,0.53677 -0.48664,0.24775 0.45399,0.3023 0.2349,0.68153 -10e-4,0.59458 -0.32614,1.22349 -0.86775,1.40642 -0.39198,-0.0302 -0.17168,0.52208 -0.57135,0.2829 -0.2888,-0.17857 -0.21032,0.61551 -0.4154,0.023 -0.23205,0.14246 -0.46686,0.33861 -0.75365,0.32565 z m -0.1526,-0.97988 c 0.2055,-0.10304 -0.29797,-0.11041 0,0 z" /><path
         d="m 559.40299,756.40581 -0.22073,0.11631 -0.11531,0.24365 c -0.064,0.13527 -0.0928,0.25415 -0.0656,0.26702 0.0268,0.0128 0.021,0.14809 -0.002,0.27803 l -0.0504,0.25237 0.21275,-0.17525 0.2128,-0.1755 0.10679,-0.22546 0.10678,-0.22547 0.0487,0.043 c 0.0271,0.0256 0.11835,8.3e-4 0.20219,-0.0422 l 0.14589,-0.0692 -0.0792,0.18344 -0.0792,0.18344 0.10519,-0.0882 0.10519,-0.0882 -0.0704,0.16012 -0.0704,0.15987 0.0588,0.1381 0.0588,0.13809 -0.0102,-0.0878 c -0.007,-0.11375 0.13243,-0.25756 0.20957,-0.2211 0.0292,0.0153 0.0327,0.0707 -0.0102,0.16089 l -0.064,0.13528 0.0823,-0.0153 0.0823,-0.0154 -0.064,0.13528 -0.064,0.13528 0.11155,-0.002 c 0.0593,0.002 0.1588,0.0205 0.23883,0.002 l 0.12725,0.006 -0.37293,0.16038 c -0.38328,0.16628 -0.52514,0.26484 -0.79844,0.55228 l -0.15919,0.17294 0.0517,0.0257 c 0.0292,0.0154 0.24839,-0.0756 0.48685,-0.19727 0.24485,-0.13246 0.49581,-0.23725 0.57038,-0.25723 0.25743,-0.0715 0.0937,0.0528 -0.34067,0.24723 l -0.43423,0.19472 0.0696,0.0344 c 0.0381,0.0205 0.17903,0.0305 0.30704,0.0348 l 0.23656,0.002 -0.12157,0.0525 c -0.0642,0.0256 -0.28277,0.0318 -0.48525,0.0179 l -0.3637,-0.0341 -0.28772,0.11201 c -0.15939,0.0625 -0.32699,0.0935 -0.37501,0.0707 -0.0476,-0.0205 -0.12597,-0.0313 -0.18313,-0.002 l -0.0951,0.0377 -0.0339,-0.12656 -0.034,-0.12631 -0.15155,0.0102 c -0.0868,0.0154 -0.25063,-0.0364 -0.38398,-0.0723 -0.12641,-0.0474 -0.30124,-0.0874 -0.38346,-0.0984 l -0.15223,-0.0154 -0.0498,-0.13399 c -0.0304,-0.0697 -0.07,-0.14373 -0.0947,-0.15551 -0.0249,-0.0102 -0.0733,-0.0902 -0.11291,-0.16397 -0.0395,-0.074 -0.10735,-0.2165 -0.17036,-0.27396 l -0.10099,-0.13067 0.0799,-0.2106 c 0.0447,-0.11709 0.0778,-0.32756 0.0781,-0.47381 -0.003,-0.13937 0.0278,-0.31533 0.0622,-0.37631 0.0365,-0.0656 0.18628,-0.16038 0.34103,-0.23059 l 0.27878,-0.11657 0.14737,-0.20625 0.14736,-0.20624 0.0208,-0.18344 m 1.8858,2.21794 -0.0428,0.0904 0.10134,-0.0625 c 0.0529,-0.0302 0.12267,-0.10758 0.14403,-0.1527 l 0.0427,-0.0902 -0.10122,0.0623 c -0.0529,0.0302 -0.1227,0.10757 -0.14404,0.15269 z"
         style="fill:#000000;stroke-width:0.558646"
         id="path1-5-6-6"
         inkscape:transform-center-x="0.14708889"
         inkscape:transform-center-y="0.0034055681" /><path
         d="m 545.85546,756.90948 -0.19827,0.15146 -0.0731,0.25945 c -0.0406,0.14404 -0.0492,0.26606 -0.0202,0.27422 0.0285,0.008 0.0454,0.14252 0.0443,0.27448 l -0.008,0.25724 0.18059,-0.20825 0.18059,-0.2085 0.0677,-0.2401 0.0677,-0.2401 0.0552,0.0343 c 0.031,0.0207 0.11683,-0.0189 0.19234,-0.0753 l 0.13232,-0.0925 -0.0475,0.19407 -0.0475,0.19407 0.089,-0.10448 0.089,-0.1045 -0.0428,0.16961 -0.0428,0.16935 0.081,0.12639 0.081,0.12637 -0.0247,-0.0849 c -0.0258,-0.11099 0.0877,-0.27602 0.16981,-0.25292 0.0313,0.0102 0.044,0.0643 0.0167,0.16035 l -0.0406,0.14404 0.0786,-0.0288 0.0786,-0.0289 -0.0406,0.14406 -0.0406,0.14404 0.10965,-0.0205 c 0.0588,-0.008 0.16,-0.006 0.23583,-0.0378 l 0.12647,-0.0153 -0.341,0.22027 c -0.35024,0.2278 -0.47369,0.34862 -0.69529,0.67757 l -0.12815,0.19704 0.0553,0.0167 c 0.0313,0.0103 0.23232,-0.11592 0.44719,-0.27562 0.21937,-0.1714 0.44936,-0.31653 0.51956,-0.34865 0.24193,-0.11339 0.10119,0.0364 -0.29473,0.30052 l -0.39572,0.26433 0.0744,0.0223 c 0.041,0.0139 0.18161,2.5e-4 0.30855,-0.0168 l 0.23358,-0.0374 -0.11112,0.072 c -0.059,0.0359 -0.27352,0.0785 -0.47549,0.0985 l -0.3643,0.027 -0.26504,0.15837 c -0.14675,0.0882 -0.30685,0.14667 -0.35799,0.13219 -0.0503,-0.0123 -0.12943,-0.01 -0.18091,0.0285 l -0.0875,0.053 -0.0545,-0.11915 -0.0546,-0.11888 -0.14774,0.0353 c -0.083,0.0297 -0.25319,0.006 -0.39066,-0.007 -0.13253,-0.0257 -0.31159,-0.036 -0.39449,-0.0331 l -0.15267,0.0102 -0.0714,-0.12382 c -0.0416,-0.0637 -0.093,-0.13006 -0.11928,-0.13756 -0.0263,-0.006 -0.0873,-0.0767 -0.13865,-0.14287 -0.0513,-0.0664 -0.14192,-0.19559 -0.21362,-0.24176 l -0.12134,-0.11203 0.0437,-0.22095 c 0.0246,-0.1229 0.0222,-0.33596 -0.002,-0.4802 -0.0262,-0.13693 -0.0251,-0.31556 -10e-4,-0.38143 0.0251,-0.0708 0.15697,-0.18916 0.29786,-0.28416 l 0.25546,-0.16139 0.11096,-0.22791 0.11095,-0.2279 -0.01,-0.18435 m 2.22892,1.87281 -0.0271,0.0963 0.0895,-0.0785 c 0.0471,-0.0386 0.10304,-0.12652 0.11658,-0.17456 l 0.0271,-0.0961 -0.0894,0.0783 c -0.0471,0.0386 -0.10306,0.1265 -0.11659,0.17455 z"
         style="fill:#000000;stroke-width:0.558646"
         id="path1-5-6-6-6"
         inkscape:transform-center-x="0.11710132"
         inkscape:transform-center-y="-0.063284169" /></g></g></svg>
