<?xml version="1.0" encoding="UTF-8" standalone="no"?>
<!-- Created with Inkscape (http://www.inkscape.org/) -->

<svg
   width="20.161774mm"
   height="6.9177957mm"
   viewBox="0 0 20.161774 6.9177957"
   version="1.1"
   id="svg1"
   xml:space="preserve"
   sodipodi:docname="inkporter-svg-vgwxphvk.svg"
   xmlns:inkscape="http://www.inkscape.org/namespaces/inkscape"
   xmlns:sodipodi="http://sodipodi.sourceforge.net/DTD/sodipodi-0.dtd"
   xmlns="http://www.w3.org/2000/svg"
   xmlns:svg="http://www.w3.org/2000/svg"><sodipodi:namedview
     id="namedview1"
     pagecolor="#ffffff"
     bordercolor="#666666"
     borderopacity="1.0"
     inkscape:showpageshadow="2"
     inkscape:pageopacity="0.0"
     inkscape:pagecheckerboard="0"
     inkscape:deskcolor="#d1d1d1"
     inkscape:document-units="mm"
     inkscape:zoom="1.0293026"
     inkscape:cx="365.78163"
     inkscape:cy="281.25839"
     inkscape:window-width="1920"
     inkscape:window-height="1017"
     inkscape:window-x="-8"
     inkscape:window-y="-8"
     inkscape:window-maximized="1"
     inkscape:current-layer="layer1" /><defs
     id="defs1"><clipPath
       clipPathUnits="userSpaceOnUse"
       id="clipPath1544"><path
         d="M 0,0 H 595.276 V 841.89 H 0 Z"
         transform="translate(-172.36663,-750.91612)"
         id="path1544" /></clipPath></defs><g
     inkscape:label="Layer 1"
     inkscape:groupmode="layer"
     id="layer1"
     transform="translate(-94.191665,-93.92708)"><g
       id="IT-InfantryHQ"
       transform="translate(45.334944,207.8662)"><path
         d="m 66.786516,-113.65826 -0.03615,0.0131 c -0.01988,0.007 -0.05151,0.006 -0.07032,-0.003 -0.0188,-0.009 -0.08406,0.003 -0.144949,0.0255 l -0.110713,0.0416 -0.141316,-0.0137 c -0.07773,-0.008 -0.163048,-0.003 -0.189591,0.009 l -0.04821,0.0227 0.09384,-0.004 c 0.05162,-0.002 0.106292,0.002 0.121488,0.009 l 0.02759,0.013 -0.168963,0.0764 c -0.168629,0.0762 -0.231715,0.12215 -0.132387,0.0964 0.02884,-0.007 0.128646,-0.0529 0.221856,-0.10086 0.09321,-0.048 0.178559,-0.083 0.189654,-0.0778 l 0.0202,0.009 -0.06114,0.0649 c -0.106461,0.11307 -0.161502,0.1514 -0.310527,0.21632 l -0.145318,0.0633 0.04901,0.003 c 0.02697,0.002 0.06803,0.004 0.09119,0.005 l 0.04212,0.002 -0.02402,0.0511 -0.02401,0.051 0.03042,-0.003 0.03048,-0.004 -0.02284,0.0486 c -0.01255,0.0267 -0.01338,0.053 -0.0018,0.0585 0.03005,0.0141 0.08579,-0.0451 0.08159,-0.0867 l -0.0035,-0.035 0.02469,0.0511 0.02469,0.0512 -0.02746,0.0627 -0.02746,0.0627 0.04243,-0.0376 0.04242,-0.0377 -0.03085,0.0719 -0.03085,0.0719 0.0585,-0.0301 c 0.03216,-0.0166 0.06711,-0.0229 0.07765,-0.014 l 0.01915,0.0163 0.0399,-0.0849 0.0399,-0.0849 0.08171,-0.0668 0.08171,-0.0667 0.05616,-0.13221 3.58e-4,0.034 0.0024,0.28935 0.04015,0.11034 0.04015,0.11034 -0.02925,0.085 -0.02931,0.085 -0.163052,0.0341 c -0.08967,0.0188 -0.21974,0.0661 -0.289098,0.10511 l -0.126107,0.071 -0.03559,0.10942 c -0.05078,0.1562 -0.137807,0.78236 -0.137807,0.99149 v 0.1771 l 0.07561,0.0701 0.07562,0.0701 -0.01003,0.1412 c -0.0055,0.0777 -0.02493,0.23193 -0.0431,0.34285 -0.01817,0.11092 -0.02558,0.21378 -0.01644,0.22857 0.0091,0.0148 0.03604,0.0269 0.05979,0.0269 0.02375,0 0.06334,0.0201 0.08793,0.0447 l 0.0447,0.0447 -0.06379,0.28282 -0.06379,0.28276 0.08282,0.16902 0.08276,0.16909 0.01724,0.15763 c 0.0095,0.0867 0.01641,0.24501 0.01545,0.35178 -9.53e-4,0.10678 0.01496,0.28412 0.03547,0.39409 0.02051,0.10997 0.03572,0.25159 0.03381,0.31471 -0.0019,0.0631 -0.03199,0.18132 -0.06687,0.26268 -0.03488,0.0814 -0.06342,0.18932 -0.06342,0.2399 l 6.4e-5,0.092 h 0.202645 0.202645 l 0.05191,-0.0518 0.05185,-0.0519 -0.02272,-0.16096 c -0.01249,-0.0885 -0.02713,-0.19642 -0.03251,-0.23977 -0.01389,-0.11188 0.0813,-0.91904 0.116132,-0.98478 0.01595,-0.0301 0.02906,-0.0897 0.02906,-0.13251 0,-0.0849 0.05328,-0.22676 0.113176,-0.30141 0.02087,-0.026 0.04417,-0.0757 0.05178,-0.11035 l 0.01379,-0.0631 0.02266,0.12611 c 0.01246,0.0694 0.03613,0.15073 0.05252,0.18084 0.01639,0.0301 0.0298,0.0952 0.0298,0.14452 0,0.0494 0.0078,0.0976 0.01736,0.10714 0.01906,0.0191 0.0543,0.62281 0.05394,0.92315 -1.19e-4,0.10403 -0.01093,0.26364 -0.02401,0.35467 l -0.02383,0.16552 0.02765,0.004 c 0.09113,0.0142 0.438137,0.0359 0.626716,0.0392 l 0.220688,0.004 0.01028,-0.0727 c 0.0057,-0.04 -0.0058,-0.0921 -0.02549,-0.11577 -0.01967,-0.0237 -0.09012,-0.0522 -0.156587,-0.0635 l -0.120873,-0.0204 -0.07438,-0.0793 -0.07432,-0.0793 v -0.24168 c 0,-0.13295 0.009,-0.35888 0.02001,-0.50209 l 0.02001,-0.26041 0.03867,-0.0466 0.03867,-0.0465 -0.01712,-0.0446 -0.01712,-0.0446 0.04415,-0.0583 c 0.02427,-0.032 0.04448,-0.0892 0.04508,-0.12704 l 9.53e-4,-0.0688 0.05856,-0.0186 0.05862,-0.0186 0.05468,-0.12136 0.05474,-0.12131 -0.03904,-0.24199 -0.03904,-0.24193 0.04027,-0.0753 0.04033,-0.0753 -0.01829,-0.15185 c -0.01003,-0.0835 -0.02828,-0.21453 -0.04059,-0.29119 l -0.02241,-0.13941 0.131034,0.10523 c 0.07204,0.0579 0.131036,0.12064 0.131155,0.13941 1.19e-4,0.0188 0.04959,0.0678 0.109913,0.10887 l 0.109665,0.0747 0.07143,-0.0164 c 0.03926,-0.009 0.117106,-0.0349 0.173028,-0.0576 l 0.101662,-0.0413 0.109358,0.0395 0.109297,0.0395 0.06589,-0.0408 0.06589,-0.0408 -0.0089,-0.063 -0.0089,-0.0631 -0.09778,-0.0488 c -0.05378,-0.0269 -0.168531,-0.0943 -0.254984,-0.14976 -0.08646,-0.0555 -0.174552,-0.10086 -0.195749,-0.10086 -0.06177,0 -0.325097,-0.21323 -0.437434,-0.35418 -0.05677,-0.0712 -0.109415,-0.15902 -0.116993,-0.19507 -0.0076,-0.0361 -0.03043,-0.25001 -0.05074,-0.47543 -0.02031,-0.22541 -0.0482,-0.4318 -0.06201,-0.45867 -0.02782,-0.0542 -0.334767,-0.21898 -0.408432,-0.21934 l -0.0468,-2.4e-4 -0.05566,-0.0977 -0.05567,-0.0978 0.06355,-0.10283 0.06355,-0.10277 v -0.093 c 0,-0.0512 -0.02203,-0.16716 -0.04895,-0.25782 l -0.04895,-0.16484 -0.100801,-0.0615 -0.100799,-0.0614 -0.129739,-1.2e-4 z m -0.52678,0.40295 -0.01663,0.0354 c -0.0092,0.0195 -0.03443,0.0465 -0.05616,0.06 l -0.03947,0.0246 0.01662,-0.0354 c 0.0092,-0.0195 0.03437,-0.0465 0.0561,-0.06 z"
         style="fill:#000000;stroke-width:0.0315267"
         id="path66655-9-5"
         sodipodi:nodetypes="cssscsscscccssscssccsccccccsscccccccccscccccccccccccsscssccccsssscccccsssssccccccsssssccsssssccscccsscccsscccccsccccccccccccccssccsccccccccssssssscccccssccccccsscssc" /><path
         id="path58354-0-2-8"
         style="fill:#000000;stroke-width:0.0338966"
         d="m 64.326778,-113.93912 -0.13188,0.036 c -0.07253,0.0198 -0.152739,0.053 -0.178221,0.0738 -0.0095,0.008 -0.02446,0.0285 -0.04091,0.0536 -0.01858,0.006 -0.03812,0.0129 -0.0572,0.0211 l -0.116784,0.0503 -0.152469,-0.007 c -0.08386,-0.004 -0.17525,0.005 -0.203115,0.0193 l -0.05071,0.0267 0.10063,-0.009 c 0.05534,-0.005 0.114266,-0.003 0.130952,0.004 l 0.03032,0.0126 -0.177562,0.0906 c -0.177203,0.0905 -0.242666,0.14307 -0.137306,0.11036 0.03059,-0.01 0.135522,-0.0633 0.233171,-0.11963 0.09766,-0.0563 0.187488,-0.0983 0.199672,-0.0933 l 0.02218,0.009 -0.0623,0.0728 c -0.108553,0.12687 -0.165754,0.17087 -0.322482,0.2482 l -0.152798,0.0754 0.05283,5.9e-4 c 0.02904,3.6e-4 0.07317,9.6e-4 0.09812,0.001 l 0.04535,3.5e-4 -0.02317,0.0561 -0.02317,0.0561 0.03251,-0.005 0.03251,-0.005 -0.02198,0.0533 c -0.01207,0.0293 -0.01161,0.0576 0.0012,0.0629 0.033,0.0136 0.08987,-0.0528 0.08322,-0.0973 l -0.0056,-0.0375 0.02913,0.0537 0.02913,0.0536 -0.02628,0.0689 -0.02628,0.0688 0.04363,-0.0426 0.04369,-0.0426 -0.02946,0.0788 -0.02946,0.0788 0.06124,-0.0353 c 0.0337,-0.0194 0.07091,-0.028 0.08269,-0.0189 l 0.02138,0.0164 0.03853,-0.0932 0.03853,-0.0932 0.06283,-0.0566 0.04992,0.17955 c 0.03156,0.1135 0.0574,0.22942 0.0574,0.25767 v 0.0514 h -0.07004 c -0.03851,0 -0.09725,0.0146 -0.130489,0.0324 l -0.06038,0.0323 -0.05839,0.18557 c -0.0321,0.10206 -0.08907,0.22094 -0.126583,0.26422 l -0.06819,0.0787 -0.132673,0.005 -0.132608,0.005 -0.01907,-0.0309 c -0.02997,-0.0485 -0.122491,-0.0362 -0.190403,0.0252 l -0.06197,0.0561 v 0.0888 c 0,0.0489 0.02374,0.12282 0.05276,0.16426 l 0.05277,0.0753 h 0.0576 0.05753 l 0.101558,0.12115 c 0.05582,0.0666 0.109749,0.15426 0.119895,0.19477 l 0.01847,0.0737 0.04932,0.003 c 0.02714,0.002 0.08409,0.006 0.126516,0.009 l 0.07713,0.005 -0.05171,0.1 c -0.02844,0.055 -0.0517,0.14542 -0.0517,0.20092 v 0.10097 l 0.08282,0.0651 0.08282,0.0651 -0.01927,0.18663 -0.01927,0.18663 0.07786,0.0546 0.07786,0.0545 -0.04138,0.12838 -0.04131,0.1283 0.02933,0.20768 0.02933,0.20769 -0.02827,0.0765 -0.02833,0.0765 0.04144,0.12261 c 0.02277,0.0674 0.06707,0.15311 0.09844,0.1904 l 0.057,0.0678 0.03774,0.32778 c 0.02074,0.18029 0.03774,0.36103 0.03774,0.40166 v 0.0739 l -0.115263,0.11526 -0.115262,0.11526 h -0.08136 c -0.04474,0 -0.09964,0.0183 -0.122015,0.0406 -0.02237,0.0224 -0.04065,0.0755 -0.04065,0.11804 v 0.0773 l 0.09235,0.0232 0.09235,0.0232 0.23026,-0.0395 c 0.126648,-0.0217 0.283701,-0.0395 0.348961,-0.0395 h 0.118638 l -0.02125,0.0846 -0.02125,0.0847 0.07991,0.0843 v -1.2e-4 l 0.07998,0.0843 0.194905,6e-4 0.194906,5.9e-4 v -0.10288 -0.10288 l -0.05416,-0.0826 c -0.02977,-0.0454 -0.06,-0.14024 -0.0672,-0.21066 -0.0072,-0.0704 0.0022,-0.20454 0.02099,-0.29806 0.01874,-0.0935 0.0475,-0.29006 0.06395,-0.43675 l 0.02992,-0.26667 0.08871,-0.0822 0.08871,-0.0823 -0.01927,-0.0311 c -0.01058,-0.0171 -0.0022,-0.063 0.0186,-0.10195 l 0.03787,-0.0708 -0.04972,-0.0759 -0.04979,-0.0759 0.02853,-0.051 c 0.01569,-0.028 0.05546,-0.25112 0.08838,-0.49574 l 0.05985,-0.44476 0.103013,0.0194 0.10308,0.0194 0.247405,0.1902 c 0.136086,0.1046 0.27681,0.21084 0.312684,0.23609 l 0.06521,0.0459 0.04019,-0.0883 0.04025,-0.0883 -0.0386,-0.0847 -0.0386,-0.0847 h -0.06786 c -0.07577,0 -0.410246,-0.20097 -0.549364,-0.3301 l -0.0903,-0.0838 0.117844,-0.10348 0.11791,-0.10354 -0.01761,-0.29117 -0.01768,-0.29123 -0.0868,-0.33387 c -0.04774,-0.18363 -0.103762,-0.36668 -0.12453,-0.40676 -0.02077,-0.0401 -0.0885,-0.13566 -0.150482,-0.21238 l -0.11268,-0.1395 -0.116785,-0.0554 c -0.06421,-0.0305 -0.153676,-0.0554 -0.198878,-0.0554 h -0.08223 l -0.07799,-0.083 -0.07799,-0.083 0.02019,-0.0526 0.02019,-0.0526 h 0.120757 0.120757 l 0.01913,-0.05 0.0192,-0.05 -0.06892,-0.11156 -0.06892,-0.11148 0.0186,-0.1387 0.0186,-0.13864 -0.138698,-0.1283 c -0.07627,-0.0706 -0.167325,-0.14843 -0.202387,-0.17299 z m -0.685215,0.59319 -0.01602,0.0389 c -0.0088,0.0214 -0.03456,0.0517 -0.0572,0.0673 l -0.04118,0.0285 0.01602,-0.0389 c 0.0088,-0.0214 0.03463,-0.0517 0.05727,-0.0674 z m 0.738112,4.45456 h 0.03131 0.03138 l 0.02224,0.41345 0.02224,0.41344 -0.03059,0.0307 -0.03065,0.0306 -0.01609,-0.0628 c -0.0088,-0.0345 -0.01917,-0.2343 -0.02297,-0.44403 z"
         sodipodi:nodetypes="cscccccccccccccccssccccccccscscccccccccccccccsscsccsscccsccsccccssccccsscccccccccccccscccscccscsccccsccccccccccsscscccscccccsccccscccccsscccccsssccscccccccccccccccccsccscccccccccccc" /><path
         id="path66849-9-7-5-1"
         style="fill:#000000;stroke-width:0.0315267"
         d="m 61.729659,-113.65948 0.02814,0.0428 0.0282,0.0427 0.06428,-0.0204 0.06435,-0.0204 0.02032,0.0328 0.02026,0.0328 h 0.155786 0.155725 l 0.06305,0.0631 c 0.03468,0.0347 0.06305,0.0777 0.06305,0.0957 v 0.0326 l -0.0657,-0.0352 c -0.03616,-0.0194 -0.07409,-0.0269 -0.08424,-0.0168 -0.01014,0.0101 0.0088,0.0503 0.04212,0.0893 0.09077,0.10615 0.139345,0.20383 0.139345,0.28017 v 0.0684 l -0.06712,-0.0601 c -0.03693,-0.033 -0.101796,-0.11462 -0.144149,-0.18128 -0.04235,-0.0667 -0.08399,-0.11416 -0.09255,-0.1056 -0.0086,0.009 4.76e-4,0.0752 0.02013,0.14815 l 0.03571,0.13263 0.08356,0.0719 0.08356,0.0719 -0.04224,0.0509 c -0.02323,0.028 -0.06023,0.0509 -0.08227,0.0509 -0.02203,0 -0.04944,0.0245 -0.0609,0.0543 l -0.02087,0.0542 -0.02851,-0.0461 -0.02851,-0.0462 -0.03547,0.0355 -0.03541,0.0355 0.08928,0.0855 c 0.04912,0.047 0.189287,0.13243 0.311512,0.18984 0.122224,0.0574 0.236725,0.12348 0.25443,0.1468 0.03748,0.0494 0.07299,0.17086 0.182942,0.62567 l 0.08005,0.33103 -0.0436,0.12611 -0.0436,0.1261 -0.192238,0.0449 -0.192239,0.0449 v 0.0362 c 0,0.0199 0.02313,0.10393 0.05135,0.18676 l 0.05129,0.15061 -0.04119,0.13085 c -0.02267,0.072 -0.05126,0.1451 -0.06349,0.16244 l -0.02223,0.0315 0.07475,0.29951 c 0.04111,0.16472 0.07495,0.32433 0.07518,0.35467 l 4.77e-4,0.0552 h -0.04347 c -0.02389,0 -0.05814,0.0178 -0.07617,0.0395 -0.01802,0.0217 -0.04769,0.16714 -0.06589,0.32315 -0.0182,0.15602 -0.05481,0.42429 -0.0814,0.59618 -0.02659,0.17188 -0.04834,0.3665 -0.04834,0.43244 v 0.11989 l 0.05517,0.11632 c 0.03035,0.0639 0.09419,0.15812 0.14187,0.20929 l 0.0867,0.093 v 0.0755 0.0755 h -0.208064 -0.208003 l -0.108374,-0.0514 c -0.05957,-0.0283 -0.121779,-0.0766 -0.138298,-0.10751 l -0.03005,-0.0561 0.05068,-0.13683 0.05068,-0.13682 5.96e-4,-0.18916 5.96e-4,-0.18916 -0.06977,-0.19673 -0.06983,-0.19667 0.03836,-0.17131 0.03836,-0.1713 -0.04279,-0.19267 -0.04273,-0.19273 -0.07266,-0.0182 -0.07272,-0.0182 -0.09033,0.0374 -0.09039,0.0374 -0.100983,0.21909 -0.100984,0.21908 0.03436,0.0986 c 0.01889,0.0542 0.0343,0.15053 0.0343,0.21416 0,0.0636 -0.02105,0.18662 -0.0468,0.27333 -0.02575,0.0867 -0.04926,0.2228 -0.05228,0.3024 l -0.0055,0.1447 0.03892,0.0941 c 0.02143,0.0517 0.03437,0.13456 0.02869,0.18411 l -0.01034,0.0901 -0.126106,0.0265 c -0.06934,0.0146 -0.196982,0.0454 -0.283679,0.0684 h -6.3e-5 c -0.179728,0.0478 -0.27269,0.0553 -0.344208,0.0278 l -0.04981,-0.0191 v -0.0816 -0.0816 l 0.08467,-0.0884 c 0.04659,-0.0486 0.104031,-0.0884 0.127584,-0.0884 0.02355,0 0.07764,-0.0348 0.120197,-0.0774 l 0.0774,-0.0774 -0.0011,-0.19846 c -0.0012,-0.20812 -0.06942,-0.72885 -0.107204,-0.81784 l -0.02204,-0.052 0.03343,-0.24046 0.03344,-0.24045 -0.03485,-0.0559 -0.03485,-0.0558 0.09809,-0.30633 c 0.05397,-0.16849 0.09815,-0.31328 0.09815,-0.32174 0,-0.008 -0.01664,-0.0154 -0.03695,-0.0154 -0.02031,0 -0.06287,-0.0235 -0.09458,-0.0522 l -0.05763,-0.0522 v -0.0671 c 0,-0.0369 0.05005,-0.1613 0.111205,-0.27647 l 0.111206,-0.20942 -0.266684,-0.20825 c -0.250935,-0.19595 -0.44057,-0.39478 -0.564218,-0.59168 -0.02965,-0.0472 -0.0586,-0.13234 -0.06435,-0.18916 l -0.01047,-0.10333 -0.170625,-0.11853 c -0.09386,-0.0652 -0.273335,-0.16895 -0.398765,-0.23054 l -0.228014,-0.112 0.0065,-0.0788 c 0.0036,-0.0434 0.02531,-0.0944 0.04827,-0.11348 l 0.04175,-0.0347 0.108866,0.0518 c 0.05985,0.0285 0.108993,0.0699 0.109112,0.0919 l 2.39e-4,0.0399 0.29704,0.18128 c 0.163397,0.0997 0.324217,0.18127 0.357385,0.18127 0.03317,0 0.08735,0.0299 0.120382,0.0665 0.04866,0.0539 0.259493,0.20377 0.539833,0.38374 l 0.03842,0.0246 0.06404,-0.064 0.06404,-0.064 v -0.10419 -0.10412 l 0.0806,-0.1617 0.0806,-0.1617 0.09242,-0.0203 c 0.05085,-0.0112 0.09947,-0.0317 0.108065,-0.0456 0.0086,-0.0139 -0.0036,-0.066 -0.02722,-0.11583 -0.02357,-0.0498 -0.06131,-0.13446 -0.08387,-0.18817 l -0.04101,-0.0977 -0.08904,-0.0336 -0.08904,-0.0336 v -0.061 -0.061 l 0.07093,-0.0318 0.07094,-0.0318 v -0.13461 -0.13454 l 0.06274,-0.0355 c 0.03448,-0.0195 0.09669,-0.0602 0.138238,-0.0906 0.04155,-0.0303 0.101277,-0.0552 0.132756,-0.0552 h 0.05727 l 0.03251,-0.0552 z m 0.726224,2.09653 h -0.03153 -0.03153 v 0.0788 0.0788 h 0.03153 0.03153 v -0.0788 z m -1.728429,0.24396 c -0.0178,-0.005 0.01115,0.0319 0.09581,0.11484 0.08173,0.0801 0.165852,0.14563 0.186944,0.14563 0.02109,0 -0.02312,-0.0532 -0.09828,-0.11823 -0.102136,-0.0884 -0.166684,-0.13674 -0.184481,-0.14224 z"
         sodipodi:nodetypes="cccccccccssccsssccssccccssccccccsssscccccsccsscsccssssscsscccccsscccccccccccccccccsssscccccsscccccssccsccccccssccsscssccsccssccscsssccccccccsssscccccccccsssccccccccccccsssss" /><path
         style="fill:#000000;stroke-width:0.0448236"
         d="m 53.919606,-107.36308 c -0.06005,-0.0112 -0.138242,0.0737 -0.145172,0.0461 -0.0047,-0.0189 -0.01936,-0.0313 -0.04418,-0.0378 -0.03503,-0.009 -0.03805,-0.0145 -0.05334,-0.0941 -0.01577,-0.0819 -0.01539,-0.086 0.0119,-0.13566 0.01775,-0.0322 0.03776,-0.0525 0.0541,-0.0549 0.02823,-0.004 0.08664,-0.14069 0.07513,-0.17062 -0.0038,-0.0104 -0.02455,-0.0292 -0.04579,-0.0416 -0.0423,-0.0249 -0.07931,-0.0534 -0.121545,-0.0935 -0.027,-0.0256 -0.02757,-0.031 -0.02691,-0.24312 3.21e-4,-0.11934 0.0057,-0.24366 0.01218,-0.27628 0.03937,-0.20391 0.04909,-0.29497 0.05363,-0.50402 0.0028,-0.1272 0.0057,-0.24461 0.0066,-0.26092 9.45e-4,-0.0163 -0.0019,-0.0884 -0.0076,-0.1601 -0.0066,-0.0886 -0.0047,-0.14758 0.0047,-0.18382 0.04324,-0.16826 0.04862,-0.20716 0.03625,-0.26465 -0.0066,-0.0316 -0.0099,-0.0615 -0.0066,-0.0663 0.0028,-0.005 0.01076,-0.0418 0.01728,-0.0823 0.0085,-0.0551 0.0076,-0.0972 -0.0047,-0.16775 -0.02011,-0.11452 -0.02936,-0.13284 -0.08233,-0.16412 -0.02275,-0.0135 -0.04466,-0.0372 -0.04853,-0.0529 -0.0085,-0.0327 0.02445,-0.21862 0.04211,-0.2399 0.0066,-0.008 0.0219,-0.043 0.03418,-0.0782 0.01237,-0.0352 0.04957,-0.1173 0.0828,-0.18253 0.03323,-0.0652 0.06042,-0.12527 0.06052,-0.13341 1.04e-4,-0.008 0.0047,-0.0148 0.01114,-0.0148 0.0057,0 0.0169,-0.0181 0.02426,-0.0402 0.0076,-0.0221 0.02615,-0.0552 0.04192,-0.0735 0.02662,-0.0311 0.02813,-0.0397 0.02153,-0.12875 -0.0038,-0.0525 -0.0085,-0.0972 -0.0101,-0.0992 -0.0019,-0.002 -0.02483,0.002 -0.05155,0.009 -0.04013,0.0108 -0.05344,0.01 -0.07789,-0.007 -0.04928,-0.0323 -0.08875,-0.11882 -0.10761,-0.23568 -0.0095,-0.0592 -0.02322,-0.14223 -0.0304,-0.18463 -0.01227,-0.0723 -0.0096,-0.20202 0.0066,-0.338 0.0038,-0.0326 0.01463,-0.13416 0.0237,-0.22566 0.02087,-0.20984 0.0456,-0.27055 0.134357,-0.33031 0.06845,-0.0461 0.160084,-0.0901 0.239182,-0.11492 0.02927,-0.009 0.0626,-0.0261 0.07411,-0.0376 0.01152,-0.0115 0.03852,-0.0209 0.06005,-0.0209 0.0337,0 0.04116,-0.006 0.05363,-0.04 0.0076,-0.022 0.02729,-0.0539 0.04305,-0.0708 0.02502,-0.027 0.0271,-0.036 0.01699,-0.0727 -0.0066,-0.023 -0.02502,-0.0566 -0.04145,-0.0745 -0.01643,-0.0179 -0.03777,-0.0412 -0.04721,-0.0517 -0.04211,-0.0465 -0.03068,-0.24222 0.02379,-0.40728 0.02266,-0.0686 0.03248,-0.0839 0.05844,-0.0908 0.01718,-0.005 0.04947,-0.0196 0.07175,-0.0333 0.06798,-0.042 0.205081,-0.0747 0.336389,-0.0803 0.100387,-0.004 0.121554,-0.002 0.121554,0.012 0,0.009 0.01548,0.0235 0.03446,0.0314 0.03729,0.0154 0.04815,0.0404 0.04843,0.11102 9.4e-5,0.0249 0.0085,0.0533 0.01794,0.0631 0.0135,0.0135 0.01775,0.0468 0.01756,0.13851 -9.4e-5,0.0664 -0.0047,0.12827 -0.01086,0.13752 -0.0066,0.011 -0.0028,0.0313 0.01208,0.0591 0.02417,0.045 0.03021,0.11367 0.01114,0.12547 -0.0066,0.004 -0.01501,0.0336 -0.01935,0.0659 -0.0047,0.0324 -0.01246,0.0588 -0.01813,0.0588 -0.0057,0 -0.01038,0.0234 -0.01038,0.0519 0,0.0598 -0.01341,0.0751 -0.07119,0.0806 l -0.04145,0.004 0.04154,0.0268 c 0.02285,0.0147 0.05485,0.0302 0.07119,0.0344 0.01633,0.004 0.03229,0.0108 0.03559,0.0147 0.0028,0.004 0.04249,0.0168 0.08724,0.0284 0.06005,0.0157 0.08903,0.0303 0.110669,0.0561 0.02464,0.0293 0.03314,0.0329 0.05315,0.0221 0.01728,-0.009 0.0219,-0.0203 0.0168,-0.0405 -0.0057,-0.024 -9.44e-4,-0.0296 0.03748,-0.0415 0.06231,-0.0194 0.119261,-0.0459 0.127682,-0.0595 0.01161,-0.0189 0.06505,-0.0137 0.06505,0.007 0,0.0296 0.03729,0.0207 0.171961,-0.0409 0.152465,-0.0698 0.18195,-0.0823 0.221423,-0.0948 0.02389,-0.008 0.04966,-0.0212 0.05712,-0.0302 0.0076,-0.009 0.03059,-0.0199 0.05136,-0.0243 0.02077,-0.005 0.0591,-0.0175 0.08516,-0.0293 0.02606,-0.0118 0.07676,-0.0346 0.112661,-0.0508 0.03588,-0.0161 0.105259,-0.0484 0.154183,-0.0716 0.04891,-0.0232 0.103617,-0.0458 0.121555,-0.0501 0.01794,-0.005 0.03257,-0.0126 0.03257,-0.0185 0,-0.006 0.0085,-0.0106 0.01813,-0.0106 0.02719,0 0.03427,-0.0323 0.01199,-0.0546 -0.01076,-0.0108 -0.01794,-0.0309 -0.01596,-0.0447 0.0066,-0.0456 0.06769,-0.0237 0.102588,0.0368 0.0066,0.0111 0.02587,0.008 0.08252,-0.0107 0.0727,-0.0248 0.0744,-0.0248 0.0912,-0.003 0.01973,0.0261 0.03522,0.093 0.02521,0.10911 -0.0038,0.006 -0.03097,0.0178 -0.06042,0.0261 -0.02955,0.008 -0.05362,0.0186 -0.05362,0.0229 0,0.005 -0.02002,0.0149 -0.04447,0.0234 -0.02445,0.008 -0.0658,0.0253 -0.09196,0.0373 -0.141221,0.0647 -0.24227,0.10618 -0.258593,0.10618 -0.0101,0 -0.02549,0.007 -0.03408,0.015 -0.0085,0.008 -0.03833,0.0251 -0.06609,0.0374 -0.03739,0.0165 -0.05042,0.0291 -0.05042,0.0486 0,0.0329 -0.03805,0.0821 -0.08034,0.10402 -0.05334,0.0276 -0.113143,0.0612 -0.126502,0.0711 -0.0066,0.005 -0.02247,0.0161 -0.03465,0.0246 -0.02143,0.0148 -0.02143,0.0166 0.0019,0.0631 0.02389,0.0468 0.03673,0.1049 0.044,0.19961 0.0057,0.0742 -0.0047,0.10801 -0.03758,0.12305 -0.02464,0.0112 -0.0287,0.0194 -0.02294,0.0461 0.0038,0.0178 0.0019,0.0497 -0.0038,0.0707 -0.0094,0.0324 -0.0066,0.0451 0.01945,0.083 0.0457,0.0668 0.04192,0.12575 -0.01265,0.19718 -0.02549,0.0334 -0.04352,0.0703 -0.04352,0.0893 0,0.0178 -0.0102,0.0788 -0.02266,0.13579 -0.02011,0.092 -0.02795,0.10869 -0.0709,0.15031 -0.02653,0.0258 -0.06184,0.0502 -0.07836,0.0544 -0.03399,0.008 -0.242808,-0.0235 -0.253854,-0.039 -0.0038,-0.006 -0.022,-0.0165 -0.04013,-0.0245 -0.01813,-0.008 -0.03606,-0.0226 -0.03984,-0.0324 -0.0038,-0.01 -0.01388,-0.0179 -0.02238,-0.0179 -0.0085,0 -0.02266,-0.016 -0.03125,-0.0356 -0.0085,-0.0195 -0.01907,-0.0356 -0.02313,-0.0356 -0.0038,0 -0.0168,-0.0253 -0.02842,-0.0564 -0.01161,-0.031 -0.02832,-0.0648 -0.0372,-0.0751 -0.0085,-0.0103 -0.01614,-0.0259 -0.01614,-0.0345 0,-0.009 -0.0028,-0.0128 -0.0066,-0.009 -0.0098,0.01 0.01747,0.1962 0.03795,0.25933 0.01681,0.0517 0.01633,0.0571 -0.0085,0.10542 -0.01463,0.028 -0.03625,0.0534 -0.04824,0.0566 -0.01813,0.005 -0.02162,0.018 -0.02162,0.0818 0,0.0889 0.0076,0.10337 0.113945,0.21165 0.04173,0.0425 0.07581,0.0853 0.07581,0.095 0,0.01 0.0047,0.0177 0.01076,0.0177 0.01558,0 0.06354,0.1038 0.05466,0.11826 -0.0038,0.007 -0.01765,0.0122 -0.03012,0.0122 -0.02219,0 -0.02219,9.5e-4 -4.73e-4,0.0516 0.01218,0.0284 0.04503,0.0991 0.07307,0.15714 0.0474,0.0981 0.05089,0.11209 0.05004,0.19969 -9.44e-4,0.0977 -0.0019,0.10053 -0.06628,0.14299 -0.01992,0.0132 -0.01407,0.0903 0.02068,0.27277 0.0099,0.0522 0.03182,0.18561 0.04853,0.29649 0.01681,0.11089 0.03522,0.2105 0.04097,0.22134 0.01718,0.0324 0.03682,0.31225 0.03399,0.48405 -0.0028,0.15723 0.0066,0.26725 0.02549,0.29082 0.0047,0.007 0.01784,0.0546 0.02832,0.10674 0.01038,0.0522 0.03163,0.1269 0.04711,0.16603 0.05466,0.13843 0.0608,0.16795 0.07326,0.35235 l 0.0085,0.127 -0.07081,0.0693 -0.131336,0.10521 0.04522,0.0475 c 0.03021,0.0317 0.06193,0.0527 0.09563,0.0632 0.09262,0.0287 0.106931,0.0544 0.100624,0.17982 -0.0028,0.0527 -0.0038,0.0551 -0.04305,0.0707 -0.0641,0.0256 -0.287145,0.12836 -0.377544,0.0924 -0.04305,-0.0171 -0.08837,-0.0381 -0.100737,-0.0465 -0.01888,-0.0128 -0.02728,-0.01 -0.05221,0.0201 -0.03314,0.0396 0.09677,-0.0693 -0.06462,-0.12308 -0.05259,-0.0176 -0.09883,-0.0377 -0.10272,-0.0448 -0.0085,-0.015 0.02785,-0.23765 0.04787,-0.29534 0.0076,-0.0216 0.01473,-0.0447 0.01624,-0.0515 0.0028,-0.0128 8.02e-4,0.0583 -0.08629,0.0277 -0.11368,-0.04 -0.12061,-0.0665 -0.120705,-0.46011 -3.7e-5,-0.20498 -0.0038,-0.27728 -0.01529,-0.29112 -0.01001,-0.0121 -0.01529,-0.0561 -0.01529,-0.12846 0,-0.10312 -0.0019,-0.11214 -0.03172,-0.14345 -0.02795,-0.0294 -0.03257,-0.0456 -0.03795,-0.13422 -0.0076,-0.12758 -0.01539,-0.20517 -0.02644,-0.27277 -0.0094,-0.0566 -0.0094,-0.0556 -0.01907,-0.083 -0.0038,-0.01 -0.01548,-0.0525 -0.02653,-0.0949 -0.01095,-0.0424 -0.04324,-0.12594 -0.07175,-0.18566 -0.02842,-0.0598 -0.05835,-0.13177 -0.06637,-0.16011 -0.0085,-0.0283 -0.01907,-0.0566 -0.02455,-0.0628 -0.0057,-0.007 -0.0099,-0.0218 -0.0099,-0.0346 0,-0.0128 -0.0038,-0.0198 -0.0076,-0.0156 -0.0047,0.004 -0.01209,0.0545 -0.01728,0.11168 -0.01784,0.19386 -0.03153,0.2936 -0.04475,0.32708 -0.0076,0.0187 -0.01322,0.10354 -0.01322,0.19249 0,0.12045 -0.0047,0.17102 -0.01964,0.2082 -0.01548,0.0388 -0.01699,0.0569 -0.0066,0.0862 0.02577,0.075 0.02823,0.12203 0.03031,0.57414 l 0.0019,0.46097 -0.03559,0.0423 c -0.03257,0.0387 -0.04503,0.0441 -0.146263,0.063 -0.06108,0.0114 -0.113246,0.0274 -0.116418,0.0356 -0.0028,0.008 3.21e-4,0.0542 0.0076,0.10219 0.02436,0.15806 0.02634,0.18842 0.0136,0.20374 -0.0066,0.009 -0.01624,0.0379 -0.02068,0.0657 -0.0057,0.0337 -0.01709,0.0565 -0.03522,0.0683 -0.02823,0.0185 -0.13195,0.0302 -0.183102,0.0207 z m 0.806454,-3.14722 c 0,-0.007 -0.0019,-0.0119 -0.0057,-0.0119 -0.0028,0 -0.0085,0.006 -0.01256,0.0119 -0.0038,0.007 -0.0019,0.0119 0.0057,0.0119 0.0066,0 0.01256,-0.006 0.01256,-0.0119 z m 0.762883,-1.77902 c 0.0076,-4e-5 0.02313,-0.0163 0.03446,-0.0362 l 0.02058,-0.0362 -0.04749,-0.048 c -0.05164,-0.0522 -0.07421,-0.0542 -0.129051,-0.0114 -0.02814,0.0219 -0.02832,0.0231 -0.0085,0.0641 0.01086,0.0229 0.01983,0.0476 0.01983,0.0548 0,0.008 0.0057,0.013 0.0119,0.013 0.0066,0 0.0119,0.0138 0.0119,0.0307 v 0.0307 l 0.03644,-0.0307 c 0.02011,-0.0169 0.04277,-0.0308 0.05042,-0.0308 z"
         id="path3-4-3"
         sodipodi:nodetypes="csssscsssssssssssssssssscsssssssssssssssssssssssssssscscssssscsscsssssssssssssssssssssssssssssssssssssccsssssssscsssssscssssssssssssssssssssscccssssssscsscssssssssssssscsssssscssscsssccsscsscscsssssscssc" /><path
         d="m 54.396414,-113.90206 -0.03615,0.0131 c -0.01988,0.007 -0.05151,0.006 -0.07032,-0.003 -0.0188,-0.009 -0.08406,0.003 -0.144949,0.0255 l -0.110713,0.0416 -0.141316,-0.0137 c -0.07773,-0.008 -0.163048,-0.003 -0.189591,0.009 l -0.04821,0.0227 0.09384,-0.004 c 0.05162,-0.002 0.106292,0.002 0.121488,0.009 l 0.02759,0.013 -0.168963,0.0764 c -0.168629,0.0762 -0.231715,0.12215 -0.132387,0.0964 0.02884,-0.007 0.128646,-0.0529 0.221856,-0.10086 0.09321,-0.048 0.178559,-0.083 0.189654,-0.0778 l 0.0202,0.009 -0.06114,0.0649 c -0.106461,0.11307 -0.161502,0.1514 -0.310527,0.21632 l -0.145318,0.0633 0.04901,0.003 c 0.02697,0.002 0.06803,0.004 0.09119,0.005 l 0.04212,0.002 -0.02402,0.0511 -0.02401,0.051 0.03042,-0.003 0.03048,-0.004 -0.02284,0.0486 c -0.01255,0.0267 -0.01338,0.053 -0.0018,0.0585 0.03005,0.0141 0.08579,-0.0451 0.08159,-0.0867 l -0.0035,-0.035 0.02469,0.0511 0.02469,0.0512 -0.02746,0.0627 -0.02746,0.0627 0.04243,-0.0376 0.04242,-0.0377 -0.03085,0.0719 -0.03085,0.0719 0.0585,-0.0301 c 0.03216,-0.0166 0.06711,-0.0229 0.07765,-0.014 l 0.01915,0.0163 0.0399,-0.0849 0.0399,-0.0849 0.08171,-0.0668 0.08171,-0.0667 0.05616,-0.13221 3.58e-4,0.034 0.0024,0.28935 0.04015,0.11034 0.04015,0.11034 -0.02925,0.085 c 0.197031,0.0384 0.410698,-1.4e-4 0.597815,-0.0728 l -0.05567,-0.0978 0.06355,-0.10283 0.06355,-0.10277 v -0.093 c 0,-0.0512 -0.02203,-0.16716 -0.04895,-0.25782 l -0.04895,-0.16484 -0.100801,-0.0615 -0.100799,-0.0614 -0.129739,-1.2e-4 z m -0.52678,0.40295 -0.01663,0.0354 c -0.0092,0.0195 -0.03443,0.0465 -0.05616,0.06 l -0.03947,0.0246 0.01662,-0.0354 c 0.0092,-0.0195 0.03437,-0.0465 0.0561,-0.06 z"
         style="fill:#000000;stroke-width:0.0315267"
         id="path1-59"
         sodipodi:nodetypes="ccscccccccccccccssccccccccsccccccccccccccccccccccccccccsscccccccccccc" /><g
         id="g4"
         transform="translate(-2.3470047,0.10326011)"><path
           id="path1-8-6"
           style="fill:#000000;stroke-width:0.0428396"
           d="m 52.124471,-113.72999 c -0.01898,-4.8e-4 -0.02544,0.003 -0.02636,0.0108 -0.001,0.01 -0.0193,0.0227 -0.0403,0.0284 -0.0412,0.0112 -0.05593,0.0359 -0.06563,0.11007 -0.003,0.0262 -0.01568,0.0551 -0.02688,0.0641 -0.016,0.0124 -0.02479,0.0468 -0.03669,0.14315 -0.009,0.0698 -0.01223,0.13519 -0.0072,0.14572 0.005,0.0125 -0.0012,0.0333 -0.02067,0.0605 -0.0314,0.0441 -0.04641,0.11582 -0.02791,0.13075 0.006,0.005 0.01107,0.0368 0.01137,0.0713 6.7e-4,0.0347 0.0051,0.0639 0.01137,0.0646 0.006,7.5e-4 0.0081,0.0259 0.0041,0.0558 -0.0073,0.0575 0.0024,0.0772 0.05012,0.0904 -0.01146,0.005 -0.02088,0.01 -0.03307,0.0155 -0.0053,0.0125 -0.01357,0.0351 -0.01757,0.0506 -0.0044,0.0156 -0.01209,0.0321 -0.01809,0.0351 -0.0057,0.004 -0.01206,0.0197 -0.01292,0.0357 -0.0014,0.0178 -0.02236,0.0482 -0.05426,0.0786 -0.0826,0.0784 -0.18035,0.25731 -0.18035,0.33021 0,0.023 -0.0054,0.0419 -0.01137,0.0419 -0.0063,0 -0.01137,0.008 -0.01137,0.017 0,0.009 -0.01033,0.026 -0.02273,0.0367 -0.0124,0.0107 -0.02222,0.0261 -0.02222,0.0341 0,0.007 -0.0043,0.0145 -0.0093,0.0145 -0.0052,0 -0.02944,0.0395 -0.05374,0.0878 -0.0244,0.0483 -0.0576,0.10781 -0.0739,0.13281 -0.0164,0.0249 -0.0332,0.0598 -0.0372,0.0775 -0.01011,0.042 -0.05599,0.11548 -0.10749,0.17208 -0.0616,0.0678 -0.07103,0.0912 -0.07803,0.19017 -0.0055,0.0806 -0.0031,0.0968 0.02119,0.14315 0.0151,0.0287 0.03062,0.0549 0.03462,0.0579 0.0043,0.003 0.01098,0.0186 0.01498,0.0341 0.0047,0.0187 0.02308,0.0355 0.05478,0.0501 0.0262,0.0121 0.05585,0.026 0.06615,0.031 0.0124,0.006 0.03288,-0.001 0.06098,-0.0202 0.0422,-0.0286 0.08322,-0.03 0.06562,-0.002 -0.0085,0.0134 -0.02984,0.0855 -0.05994,0.20154 -0.0073,0.028 -0.01825,0.0592 -0.02325,0.0692 -0.0054,0.0101 -0.01357,0.0378 -0.01757,0.062 -0.0044,0.0241 -0.01154,0.0493 -0.01654,0.0553 -0.0048,0.006 -0.01305,0.032 -0.01705,0.0569 -0.0045,0.0249 -0.01309,0.0509 -0.01809,0.0579 -0.0053,0.007 -0.01153,0.0356 -0.0124,0.0636 -0.0025,0.0581 0.01894,0.0884 0.06304,0.0884 0.033,0 0.04463,0.0235 0.03463,0.0749 -0.0129,0.0685 0.0035,0.10858 0.06252,0.15348 0.0608,0.0463 0.05077,0.009 0.08527,0.31523 0.0081,0.0717 0.02609,0.17903 0.03979,0.23823 0.0478,0.20623 0.0577,0.27907 0.0677,0.48472 0.0064,0.13848 0.01377,0.21258 0.02377,0.22428 0.0152,0.0193 0.0181,0.14178 0.0031,0.16588 -0.0124,0.0201 -0.01322,0.0265 -0.02222,0.19379 -0.0043,0.0797 -0.01257,0.14789 -0.01757,0.15089 -0.0179,0.0111 -0.01122,0.18004 0.0088,0.22014 0.03136,0.0629 0.10942,0.12445 0.15762,0.12454 0.0128,0 0.03337,0.008 0.04547,0.0165 0.0121,0.009 0.03053,0.0168 0.04083,0.017 0.0199,5e-4 0.03203,0.0229 0.03203,0.0579 0,0.0118 -0.02285,0.0456 -0.05115,0.0754 -0.0283,0.0297 -0.0587,0.0675 -0.0677,0.0837 -0.02039,0.0376 -0.05922,0.0629 -0.11162,0.0729 -0.0227,0.004 -0.04134,0.0131 -0.04134,0.0181 0,0.006 -0.0054,0.01 -0.01241,0.01 -0.0069,0 -0.03749,0.0207 -0.06769,0.046 -0.0573,0.048 -0.08992,0.0988 -0.08992,0.14056 0,0.031 0.04107,0.0699 0.08527,0.0806 0.0187,0.005 0.03627,0.012 0.03927,0.016 0.0097,0.013 0.12158,0.0455 0.15658,0.0455 0.06264,0 0.16361,-0.0417 0.23461,-0.0972 0.04351,-0.0335 0.04984,-0.0356 0.15348,-0.0357 0.05949,0 0.11911,-0.004 0.13281,-0.008 0.033,-0.0104 0.06514,-0.0769 0.05064,-0.10491 -0.0059,-0.0114 -0.01405,-0.0739 -0.01705,-0.13849 -0.0034,-0.0646 -0.0116,-0.12271 -0.0186,-0.12971 -0.0073,-0.007 -0.01241,-0.0349 -0.01241,-0.0625 0,-0.0414 0.0071,-0.0579 0.03979,-0.0941 0.0218,-0.0241 0.0398,-0.052 0.0398,-0.061 0,-0.009 0.0048,-0.017 0.0098,-0.017 0.0185,0 0.08393,-0.14715 0.07183,-0.16175 -0.0231,-0.0279 -0.02798,-0.11818 -0.0088,-0.15658 0.0211,-0.0412 0.02355,-0.0805 0.0078,-0.10955 -0.0058,-0.0108 -0.01457,-0.0386 -0.01757,-0.062 -0.0038,-0.0234 -0.01154,-0.0424 -0.01654,-0.0424 -0.0054,0 -0.01357,-0.0272 -0.01757,-0.0599 -0.0044,-0.0328 -0.01418,-0.0665 -0.02118,-0.0755 -0.0082,-0.01 -0.0131,-0.068 -0.01396,-0.14728 -10e-4,-0.0723 -0.0063,-0.15948 -0.01033,-0.19378 -0.0067,-0.0551 -0.0055,-0.0598 0.0083,-0.0398 0.0231,0.0334 0.06231,0.17179 0.07131,0.24649 0.004,0.0358 0.01154,0.0678 0.01654,0.0708 0.0051,0.003 0.01357,0.0432 0.01757,0.0884 0.0045,0.0453 0.01253,0.0875 0.01653,0.0935 0.0047,0.006 0.01199,0.0408 0.01499,0.077 0.0035,0.0362 0.01212,0.0726 0.01912,0.0816 0.007,0.008 0.01612,0.0709 0.01912,0.13901 0.0053,0.1015 0.0034,0.13063 -0.01189,0.16123 -0.0201,0.0409 -0.02523,0.12454 -0.0072,0.12454 0.0063,0 0.01137,0.007 0.01137,0.0155 0,0.008 0.008,0.022 0.01705,0.03 0.0259,0.0215 0.02018,0.0589 -0.01292,0.0853 -0.0187,0.0149 -0.02945,0.0349 -0.02945,0.0537 0,0.0426 0.05977,0.0985 0.11317,0.10646 0.06394,0.009 0.1049,0.0293 0.1049,0.0517 0,0.0109 0.0054,0.0202 0.01137,0.0202 0.0063,0 0.01137,0.008 0.01137,0.017 0,0.009 -0.0043,0.017 -0.01034,0.017 -0.0057,0 -0.01408,0.0154 -0.01808,0.0341 -0.0041,0.0187 -0.01206,0.0336 -0.01706,0.0336 -0.0053,0 -0.01357,0.0332 -0.01757,0.0734 -0.0063,0.0592 -0.01452,0.0814 -0.04392,0.11627 -0.02,0.0238 -0.05276,0.0724 -0.07286,0.10852 -0.032,0.0583 -0.03594,0.0719 -0.02894,0.12247 0.0083,0.0621 0.05148,0.11813 0.09818,0.12713 v 5.1e-4 c 0.01397,0.003 0.07606,0.005 0.13746,0.006 0.16594,0.002 0.1946,-0.0162 0.2837,-0.18294 l 0.04083,-0.0765 -0.0062,-0.19947 -0.0057,-0.19947 0.04238,-0.0357 c 0.13055,-0.10937 0.17311,-0.17201 0.17311,-0.25321 0,-0.0532 -0.02761,-0.15265 -0.05271,-0.18965 -0.0214,-0.0317 -0.01839,-0.0562 0.0093,-0.0811 0.0211,-0.0196 0.02308,-0.0298 0.01808,-0.10956 -0.0032,-0.0486 -0.01105,-0.0938 -0.01705,-0.1018 -0.0059,-0.008 -0.01409,-0.0963 -0.01809,-0.19689 -0.0046,-0.11864 -0.01222,-0.19319 -0.02222,-0.21239 -0.01669,-0.0322 -0.08884,-0.10414 -0.11214,-0.11214 -0.0117,-0.004 -0.0114,-0.0121 0,-0.0439 0.0157,-0.0449 0.01912,-0.34985 0.0036,-0.34985 -0.0052,0 -0.01357,-0.0724 -0.01757,-0.16123 -0.0098,-0.191 -0.01429,-0.24372 -0.02429,-0.27802 -0.005,-0.0155 -0.0033,-0.0253 0.0046,-0.0253 0.01744,0 0.01699,-0.13003 -5.1e-4,-0.15813 -0.01063,-0.0166 -0.01104,-0.0282 -0.001,-0.0481 0.0072,-0.0144 0.01667,-0.0477 0.02067,-0.0739 0.0066,-0.043 0.0102,-0.0476 0.0429,-0.0506 0.0306,-0.003 0.03812,-0.0102 0.05012,-0.047 0.0077,-0.0239 0.01767,-0.1029 0.02067,-0.1757 0.0035,-0.0727 0.01154,-0.14263 0.01654,-0.15503 0.0055,-0.0125 0.01519,-0.0863 0.02119,-0.16433 0.0064,-0.0779 0.01725,-0.18749 0.02325,-0.24339 0.0076,-0.0659 0.0075,-0.12949 5.2e-4,-0.18139 -0.0302,-0.22279 -0.03803,-0.26665 -0.04703,-0.26665 -0.006,0 -0.0098,-0.0193 -0.0098,-0.0429 0,-0.0236 -0.008,-0.0708 -0.01705,-0.1049 -0.0095,-0.034 -0.02139,-0.0877 -0.02739,-0.11886 -0.0057,-0.0312 -0.01842,-0.0717 -0.02842,-0.0904 -0.01,-0.0191 -0.01752,-0.062 -0.01757,-0.0977 0,-0.0349 -0.008,-0.0785 -0.01705,-0.0971 -0.0098,-0.0198 -0.01585,-0.0594 -0.01499,-0.0951 0.0018,-0.0532 -0.0037,-0.0708 -0.04237,-0.13435 -0.0244,-0.0402 -0.06622,-0.0967 -0.09302,-0.12506 -0.0269,-0.0283 -0.05848,-0.0615 -0.07028,-0.0739 -0.0317,-0.0334 -0.05498,-0.0512 -0.06718,-0.0512 -0.0059,0 -0.03641,-0.0205 -0.06821,-0.0455 -0.0379,-0.03 -0.05815,-0.0542 -0.0584,-0.0708 -2e-4,-0.0139 -0.01012,-0.0458 -0.02222,-0.0708 -0.04963,1.5e-4 -0.08967,-0.003 -0.12557,-0.007 3.4e-4,-0.002 8.7e-4,-0.004 5.1e-4,-0.005 -0.005,-0.0241 -0.02177,-0.0603 -0.03617,-0.0801 -0.0227,-0.0317 -0.02345,-0.0413 -0.0078,-0.0785 0.01,-0.0233 0.03363,-0.0562 0.05323,-0.0729 0.0196,-0.0167 0.04492,-0.0383 0.05632,-0.0481 0.0504,-0.0432 0.06434,-0.2503 0.02894,-0.43098 -0.0147,-0.075 -0.02269,-0.0927 -0.04909,-0.10335 -0.0174,-0.007 -0.04971,-0.0271 -0.07131,-0.0444 -0.0659,-0.0531 -0.20537,-0.10595 -0.34262,-0.12919 -0.0525,-0.009 -0.08437,-0.013 -0.10335,-0.0134 z m 0.71985,2.30218 c 0.0106,-0.003 0.01395,0.0261 0.01395,0.10904 0,0.0681 0.0044,0.11431 0.01137,0.11731 h -0.001 c 0.0078,0.002 0.006,0.0121 -0.0041,0.0258 -0.0154,0.0211 -0.0166,0.0199 -0.0279,-0.0227 -0.0288,-0.11112 -0.02555,-0.21835 0.0078,-0.22945 z" /><path
           d="m 52.514749,-113.94092 0.101894,0.0911 c 0.05604,0.0502 0.112959,0.11567 0.126462,0.14566 0.005,0.0114 0.0091,0.0364 0.01266,0.0662 0.01394,0.0137 0.02834,0.0286 0.04175,0.0444 l 0.082,0.0972 0.139527,0.0619 c 0.07682,0.0339 0.154543,0.0828 0.173081,0.10807 l 0.03343,0.0466 -0.08601,-0.053 c -0.04728,-0.0292 -0.100884,-0.0537 -0.118938,-0.0549 l -0.03275,-0.002 0.118365,0.16039 c 0.118089,0.16014 0.153163,0.23642 0.07352,0.16008 -0.0229,-0.0226 -0.09295,-0.11718 -0.155142,-0.21121 -0.06221,-0.094 -0.123804,-0.17172 -0.136938,-0.17269 l -0.02387,-0.002 0.0232,0.093 c 0.04042,0.16201 0.07193,0.22694 0.17759,0.36615 l 0.103003,0.13573 -0.04753,-0.0231 c -0.02614,-0.0126 -0.06589,-0.0318 -0.08823,-0.0429 l -0.04072,-0.02 -0.0043,0.0605 -0.0043,0.0605 -0.02685,-0.019 -0.02685,-0.019 -0.0042,0.0576 c -0.0023,0.0316 -0.01535,0.0567 -0.02918,0.0558 -0.0356,-0.003 -0.05681,-0.0874 -0.03097,-0.12423 l 0.02177,-0.0311 -0.05006,0.035 -0.05001,0.0349 -0.0073,0.0734 -0.0073,0.0733 -0.02,-0.0576 -0.02004,-0.0577 -0.0088,0.0837 -0.0088,0.0836 -0.03901,-0.059 c -0.02148,-0.0324 -0.05093,-0.0568 -0.06553,-0.0539 l -0.02643,0.005 0.0071,-0.1006 0.0071,-0.1006 -0.03093,-0.0787 -0.124888,0.13831 c -0.07895,0.0874 -0.153866,0.17959 -0.16649,0.20487 -0.38492,-0.33024 -0.395536,-0.40239 -0.395536,-0.40239 l 0.0054,-0.056 0.0054,-0.056 -0.108032,-0.0539 -0.108032,-0.0539 0.0052,-0.0533 0.0052,-0.0533 0.111505,-0.069 0.11147,-0.0689 0.04534,-0.13239 0.04531,-0.13235 0.181411,-0.0528 c 0.09978,-0.029 0.216016,-0.058 0.258356,-0.0643 z m 0.34794,0.83685 -0.0031,0.042 c -0.0017,0.023 0.0078,0.0617 0.0211,0.0858 l 0.0241,0.0439 0.0031,-0.042 c 0.0017,-0.023 -0.0079,-0.0618 -0.02112,-0.0859 z"
           style="fill:#000000;stroke-width:0.0338966"
           id="path1-58-5"
           sodipodi:nodetypes="ccccccccccccccsccssccccccccscsccccccccccccccccccccccccccccscccsccssc" /></g><path
         id="path66655-9-4-0"
         style="fill:#000000;stroke-width:0.0315267"
         d="m 52.473693,-113.77027 c 0.0594,8e-5 0.11584,0.004 0.11834,0.0114 0.002,0.006 0.0161,0.0124 0.0305,0.0124 0.0144,0 0.0258,0.005 0.0258,0.0109 0,0.006 0.006,0.0113 0.014,0.0114 0.0168,6e-5 0.11679,0.0895 0.11679,0.10439 0,0.006 0.008,0.0199 0.0186,0.0315 0.0247,0.0274 0.0574,0.0976 0.0574,0.12403 0,0.0114 0.005,0.0234 0.0109,0.0274 0.006,0.004 0.0108,0.0211 0.0108,0.0388 0,0.0177 0.005,0.0407 0.01,0.0512 0.0181,0.0361 0.0332,0.14372 0.0233,0.17002 -0.009,0.0243 -0.10015,0.15095 -0.12505,0.17415 -0.006,0.006 -0.0178,0.0293 -0.0258,0.0522 -0.0123,0.0366 -0.0115,0.0441 0.005,0.0625 0.0104,0.012 0.024,0.0212 0.031,0.0212 0.007,0 0.0473,0.0342 0.0904,0.076 0.0431,0.0418 0.0834,0.076 0.0894,0.076 0.006,0 0.0109,0.0118 0.0109,0.0264 h -0.007 l 0.0357,0.007 c 0.0897,0.0188 0.22002,0.0664 0.28938,0.10542 l 0.12609,0.0708 0.0357,0.10955 c 0.0508,0.1562 0.13746,0.78254 0.13746,0.99168 v 0.17673 l -0.0755,0.0703 -0.0754,0.0703 0.01,0.14108 c 0.006,0.0777 0.0247,0.23169 0.0429,0.34261 0.0182,0.11093 0.0257,0.21414 0.0165,0.22893 -0.009,0.0148 -0.0361,0.0269 -0.0599,0.0269 -0.0237,0 -0.0632,0.0198 -0.0879,0.0444 l -0.0444,0.045 0.0636,0.28267 0.0641,0.28267 -0.0827,0.16898 -0.0832,0.16898 -0.017,0.15762 c -0.009,0.0867 -0.0164,0.24513 -0.0155,0.35191 9.5e-4,0.10677 -0.0152,0.28432 -0.0357,0.39429 -0.0205,0.10997 -0.0355,0.25159 -0.0336,0.31471 0.002,0.0631 0.0318,0.18115 0.0667,0.26252 0.0349,0.0814 0.0636,0.1892 0.0636,0.23978 v 0.092 h -0.20258 -0.20257 l -0.0522,-0.0517 -0.0517,-0.0517 0.0227,-0.16123 c 0.0125,-0.0885 0.0272,-0.19643 0.0326,-0.23978 0.0139,-0.11188 -0.0814,-0.9187 -0.11627,-0.98444 -0.0159,-0.0301 -0.0289,-0.09 -0.0289,-0.1328 0,-0.0848 -0.0533,-0.22663 -0.11317,-0.30128 -0.0209,-0.026 -0.0446,-0.0759 -0.0522,-0.11059 l -0.0134,-0.063 -0.0227,0.12661 c -0.0125,0.0694 -0.0363,0.15025 -0.0527,0.18035 -0.0164,0.0301 -0.03,0.0954 -0.03,0.14469 0,0.0494 -0.008,0.0974 -0.0171,0.10697 -0.0191,0.0191 -0.0541,0.62312 -0.0537,0.92346 1.1e-4,0.10403 0.0107,0.26347 0.0238,0.3545 l 0.0238,0.16536 -0.0274,0.004 c -0.0911,0.0142 -0.43826,0.036 -0.62683,0.0393 l -0.22066,0.004 -0.0103,-0.0729 c -0.006,-0.04 0.006,-0.0921 0.0253,-0.11575 0.0197,-0.0237 0.0901,-0.0524 0.15658,-0.0636 l 0.12092,-0.0202 0.0744,-0.0796 0.0744,-0.0791 v -0.24184 c 0,-0.13294 -0.009,-0.35857 -0.0202,-0.50178 l -0.0202,-0.26045 -0.0382,-0.0465 -0.0388,-0.0465 0.017,-0.045 0.0171,-0.0444 -0.0439,-0.0584 c -0.0243,-0.032 -0.0449,-0.0893 -0.0455,-0.12712 l -10e-4,-0.0687 -0.0584,-0.0186 -0.0584,-0.0186 -0.0548,-0.12144 -0.0548,-0.12092 0.0388,-0.24237 0.0393,-0.24184 -0.0403,-0.0755 -0.0403,-0.0749 0.0181,-0.15193 c 0.01,-0.0835 0.0285,-0.21478 0.0408,-0.29145 l 0.0222,-0.13901 -0.13074,0.1049 c -0.072,0.0579 -0.13114,0.12076 -0.13126,0.13953 -1.2e-4,0.0188 -0.0498,0.068 -0.11007,0.10903 l -0.10956,0.0744 -0.0713,-0.0165 c -0.0393,-0.009 -0.11719,-0.0347 -0.17311,-0.0574 l -0.10181,-0.0413 -0.10903,0.0398 -0.10956,0.0393 -0.0656,-0.0408 -0.0661,-0.0408 0.009,-0.063 0.009,-0.0631 0.0977,-0.0486 c 0.0538,-0.0269 0.16882,-0.0944 0.25528,-0.14986 0.0864,-0.0555 0.17414,-0.10077 0.19534,-0.10077 0.0618,0 0.32536,-0.21355 0.4377,-0.3545 0.0568,-0.0712 0.10921,-0.15877 0.11679,-0.19482 0.008,-0.036 0.0303,-0.25001 0.0506,-0.47543 0.0203,-0.22541 0.0482,-0.432 0.062,-0.45888 0.0278,-0.0542 0.3351,-0.21875 0.40876,-0.21911 l 0.0465,-5.2e-4 0.0217,-0.0377 c -9.5e-4,-8.4e-4 -0.002,-0.002 -0.003,-0.003 -0.037,-0.0312 -0.0382,-0.0351 -0.0382,-0.10697 0,-0.041 -0.005,-0.0749 -0.01,-0.0749 -0.005,0 -0.0125,-0.0179 -0.0155,-0.0403 -0.0118,-0.0848 -0.027,-0.13435 -0.047,-0.15245 -0.0762,-0.0692 -0.0833,-0.17438 -0.0176,-0.26148 0.0151,-0.0201 0.0417,-0.0647 0.0589,-0.0992 0.0398,-0.0798 0.10349,-0.15197 0.15709,-0.17777 0.023,-0.0108 0.0506,-0.024 0.0615,-0.03 0.0147,-0.008 0.0771,-0.0114 0.13642,-0.0114 z" /></g></g></svg>
