<?xml version="1.0" encoding="UTF-8" standalone="no"?>
<!-- Created with Inkscape (http://www.inkscape.org/) -->

<svg
   width="9.0452909mm"
   height="6.3566399mm"
   viewBox="0 0 9.0452909 6.3566399"
   version="1.1"
   id="svg1"
   sodipodi:docname="inkporter-svg-iknbq28b.svg"
   xmlns:inkscape="http://www.inkscape.org/namespaces/inkscape"
   xmlns:sodipodi="http://sodipodi.sourceforge.net/DTD/sodipodi-0.dtd"
   xmlns="http://www.w3.org/2000/svg"
   xmlns:svg="http://www.w3.org/2000/svg">
  <sodipodi:namedview
     id="namedview1"
     pagecolor="#ffffff"
     bordercolor="#666666"
     borderopacity="1.0"
     inkscape:showpageshadow="2"
     inkscape:pageopacity="0.0"
     inkscape:pagecheckerboard="0"
     inkscape:deskcolor="#d1d1d1"
     inkscape:document-units="mm"
     inkscape:zoom="1.0293026"
     inkscape:cx="447.87605"
     inkscape:cy="570.77479"
     inkscape:window-width="1920"
     inkscape:window-height="1017"
     inkscape:window-x="-8"
     inkscape:window-y="-8"
     inkscape:window-maximized="1"
     inkscape:current-layer="layer1" />
  <defs
     id="defs1" />
  <g
     inkscape:label="Layer 1"
     inkscape:groupmode="layer"
     id="layer1"
     transform="translate(-126.12499,-169.84781)">
    <g
       id="IT-Infantry-Para-HQ3b"
       transform="translate(24.65293,280.4808)">
      <path
         d="m 107.30784,-104.28305 c -0.0356,-0.006 -0.0709,-0.0141 -0.0785,-0.0188 -0.008,-0.005 -0.0138,-0.0471 -0.0138,-0.10028 0,-0.0908 5.1e-4,-0.0923 0.0543,-0.15 0.0318,-0.0342 0.0654,-0.0583 0.0811,-0.0583 0.019,0 0.0345,-0.0155 0.0533,-0.0534 0.0146,-0.0294 0.0409,-0.0814 0.0586,-0.11564 0.0377,-0.0733 0.0327,-0.0872 -0.0476,-0.13245 -0.0307,-0.0173 -0.0738,-0.045 -0.0958,-0.0617 -0.0447,-0.0338 -0.12897,-0.19204 -0.12897,-0.24214 0,-0.0175 0.0165,-0.0628 0.0368,-0.10073 0.0362,-0.0678 0.0707,-0.17453 0.0764,-0.23613 0.002,-0.0173 0.004,-0.13315 0.005,-0.25751 0.002,-0.21488 0.004,-0.23016 0.0368,-0.30776 0.032,-0.0763 0.035,-0.0999 0.0463,-0.358 0.007,-0.152 0.0185,-0.30745 0.0263,-0.34545 0.008,-0.038 0.0166,-0.22412 0.0195,-0.4136 0.005,-0.30307 0.003,-0.34585 -0.0143,-0.35552 -0.016,-0.009 -0.0185,-0.0283 -0.0135,-0.10452 0.003,-0.0514 0.0114,-0.10343 0.0177,-0.11554 0.006,-0.0121 0.0212,-0.0588 0.033,-0.10367 0.0118,-0.0449 0.029,-0.10709 0.0382,-0.13818 0.009,-0.0311 0.0182,-0.0806 0.02,-0.11 0.003,-0.0447 -0.002,-0.0569 -0.0276,-0.0746 -0.017,-0.0116 -0.0344,-0.0263 -0.0387,-0.0325 -0.004,-0.006 -0.006,-0.0842 -0.005,-0.17329 0.003,-0.16382 0.0103,-0.19141 0.0545,-0.20573 0.0263,-0.008 0.0774,-0.0827 0.0774,-0.11232 0,-0.0123 -0.0119,-0.032 -0.0265,-0.0438 -0.0353,-0.0286 -0.061,-0.10615 -0.0613,-0.18482 -9e-5,-0.0352 -0.006,-0.0819 -0.014,-0.10359 -0.0132,-0.0378 -0.016,-0.0392 -0.066,-0.0316 -0.0287,0.004 -0.0626,0.0133 -0.0753,0.0199 -0.0127,0.007 -0.0761,0.0151 -0.14076,0.0189 -0.0941,0.006 -0.12355,0.003 -0.14754,-0.0126 -0.0165,-0.0108 -0.0458,-0.0215 -0.0652,-0.0238 -0.0357,-0.004 -0.0402,-0.009 -0.0737,-0.0825 -0.032,-0.07 -0.0363,-0.11234 -0.0158,-0.15656 0.0106,-0.0228 0.0284,-0.069 0.0396,-0.10275 0.0112,-0.0337 0.026,-0.0677 0.0329,-0.0754 0.007,-0.008 0.0247,-0.0361 0.0398,-0.0631 0.04,-0.0719 0.0839,-0.0995 0.16206,-0.10197 0.0427,-0.001 0.0819,-0.0117 0.11021,-0.0291 0.0242,-0.0149 0.0649,-0.027 0.0906,-0.0271 0.0277,-3e-5 0.0532,-0.008 0.0628,-0.0203 0.0642,-0.0802 0.0833,-0.0928 0.14048,-0.0928 0.0442,0 0.0702,-0.009 0.11497,-0.0408 0.052,-0.0367 0.0571,-0.0445 0.0503,-0.0784 -0.004,-0.0207 -0.0215,-0.0506 -0.0386,-0.0665 -0.0379,-0.0351 -0.0397,-0.08 -0.005,-0.12675 0.0216,-0.0293 0.0259,-0.0532 0.0255,-0.14395 -1.7e-4,-0.0651 0.005,-0.10884 0.0123,-0.10884 0.007,0 0.0279,-0.0141 0.0465,-0.0314 0.0186,-0.0173 0.0404,-0.0314 0.0483,-0.0314 0.008,0 0.0174,-0.008 0.021,-0.017 0.004,-0.009 0.0339,-0.0332 0.0673,-0.0531 0.0552,-0.0328 0.0725,-0.0363 0.19022,-0.0386 0.12865,-0.003 0.12965,-0.002 0.16223,0.0342 0.018,0.0202 0.0391,0.0368 0.0468,0.0368 0.008,0 0.0236,0.0113 0.0355,0.0251 0.0118,0.0138 0.0319,0.0251 0.0446,0.0251 0.0307,0 0.0827,0.0566 0.0737,0.0802 -0.008,0.0205 0.0273,0.12076 0.0424,0.12076 0.0339,0 0.0351,0.19952 10e-4,0.21081 -0.021,0.007 -0.0173,0.0426 0.008,0.0734 0.0159,0.0195 0.042,0.0289 0.0971,0.0349 0.12422,0.0135 0.23625,0.0457 0.27076,0.078 0.0337,0.0315 0.0921,0.04 0.10717,0.0157 0.006,-0.01 0.0417,-0.012 0.11436,-0.007 0.0938,0.007 0.10826,0.005 0.13008,-0.0171 0.0266,-0.0265 0.0497,-0.0321 0.0497,-0.012 0,0.0164 0.0966,0.0164 0.10677,0 0.0123,-0.0199 0.0667,-0.0146 0.0791,0.008 0.0101,0.0181 0.0869,0.0406 0.1434,0.0421 0.0119,3.4e-4 0.0389,-0.0164 0.0601,-0.0371 0.0212,-0.0207 0.0493,-0.0377 0.0625,-0.0377 0.0271,0 0.0631,0.0446 0.0631,0.0782 0,0.0207 0.0191,0.0223 0.25667,0.0223 0.25523,0 0.25671,-1.4e-4 0.26533,-0.0283 0.0155,-0.0507 0.0287,-0.0592 0.0635,-0.0412 0.0173,0.009 0.0383,0.0257 0.0467,0.0371 0.008,0.0114 0.0292,0.0278 0.0464,0.0363 0.0414,0.0205 0.0488,0.0767 0.0131,0.099 -0.0152,0.01 -0.0259,0.0295 -0.0259,0.0483 0,0.0489 -0.0209,0.0616 -0.0882,0.0536 -0.0328,-0.004 -0.17055,-0.003 -0.30605,0.002 l -0.24635,0.009 v 0.0351 c 0,0.0281 -0.008,0.0378 -0.0396,0.0489 -0.0218,0.008 -0.0528,0.0138 -0.0691,0.0138 -0.0162,0 -0.0295,0.006 -0.0295,0.0123 0,0.007 -0.0141,0.0159 -0.0314,0.0202 -0.0345,0.009 -0.0408,0.032 -0.0146,0.0537 0.0612,0.0508 0.0446,0.30255 -0.0268,0.40599 -0.0467,0.0677 -0.15341,0.17353 -0.17491,0.17353 -0.009,0 -0.0161,0.005 -0.0161,0.0116 0,0.006 -0.0206,0.0184 -0.0458,0.0267 -0.0356,0.0118 -0.0607,0.0118 -0.11306,5e-5 -0.037,-0.008 -0.0672,-0.0194 -0.0672,-0.0248 0,-0.005 -0.0212,-0.0191 -0.0471,-0.0306 -0.0618,-0.0273 -0.11927,-0.064 -0.21427,-0.13675 -0.0428,-0.0328 -0.0778,-0.0537 -0.0778,-0.0465 0,0.0179 0.0359,0.17313 0.0504,0.2182 0.007,0.0207 0.007,0.0426 10e-4,0.0503 -0.006,0.007 -0.0148,0.0319 -0.0196,0.0545 -0.008,0.0383 -0.006,0.0414 0.0303,0.0487 0.0655,0.0131 0.0885,0.0562 0.0889,0.16638 1.4e-4,0.0526 0.006,0.11827 0.0119,0.1459 0.01,0.0418 0.007,0.0576 -0.0142,0.0941 -0.0254,0.043 -0.0255,0.0458 -0.005,0.14446 0.0117,0.0553 0.0285,0.11756 0.0373,0.13829 0.009,0.0207 0.0258,0.097 0.0377,0.16958 0.012,0.0725 0.0262,0.1432 0.0316,0.15702 0.005,0.0138 0.0164,0.0413 0.0243,0.0611 0.0156,0.0385 0.008,0.0833 -0.0139,0.0833 -0.007,0 -0.0258,0.0134 -0.041,0.0298 l -0.0276,0.0298 0.0245,0.10526 c 0.0135,0.0579 0.0316,0.12222 0.0404,0.14295 0.009,0.0207 0.0231,0.0857 0.032,0.14446 0.009,0.0587 0.0204,0.11242 0.0254,0.11933 0.005,0.007 0.0129,0.0408 0.0174,0.0754 0.0114,0.0874 0.0333,0.18601 0.0447,0.20098 0.005,0.007 0.0194,0.0493 0.0315,0.0942 0.0121,0.0449 0.0296,0.0942 0.039,0.10947 0.01,0.0161 0.0171,0.0627 0.0171,0.11057 0,0.0858 0.0329,0.25845 0.0515,0.27039 0.006,0.004 0.0207,0.0461 0.0329,0.0942 0.0123,0.0481 0.0266,0.0893 0.0317,0.0916 0.005,0.002 0.009,0.0406 0.009,0.0851 0,0.0684 0.007,0.0942 0.0449,0.16658 0.0366,0.0698 0.0467,0.10572 0.0547,0.19406 0.005,0.0596 0.0159,0.11569 0.0233,0.12456 0.0125,0.015 0.0519,0.14772 0.0802,0.26977 0.0166,0.0714 -0.004,0.1099 -0.0881,0.16898 -0.0369,0.0258 -0.0737,0.0491 -0.0816,0.0517 -0.009,0.003 -0.002,0.0212 0.0188,0.0477 0.0623,0.0806 0.0865,0.0989 0.1575,0.11954 0.0391,0.0113 0.0771,0.0256 0.0846,0.0317 0.007,0.006 0.0266,0.021 0.0426,0.0332 0.0192,0.0146 0.0315,0.0402 0.0362,0.0754 0.004,0.0293 0.0121,0.0533 0.0181,0.0533 0.0229,0 0.0102,0.0761 -0.0173,0.10363 -0.0267,0.0267 -0.0382,0.0283 -0.2111,0.0283 -0.18114,0 -0.18324,-3.4e-4 -0.22394,-0.0345 -0.0468,-0.0393 -0.07,-0.0423 -0.12305,-0.0158 -0.0332,0.0166 -0.0457,0.0166 -0.11033,-2.8e-4 -0.0401,-0.0104 -0.0768,-0.0214 -0.0817,-0.0244 -0.007,-0.004 -0.0212,-0.0977 -0.0424,-0.2821 -0.002,-0.016 -0.0551,-0.0523 -0.12767,-0.0869 -0.0138,-0.007 -0.0429,-0.0309 -0.0646,-0.054 -0.0329,-0.035 -0.0409,-0.0556 -0.0478,-0.12335 -0.005,-0.0447 -0.016,-0.10689 -0.0253,-0.13817 -0.009,-0.0313 -0.0266,-0.14167 -0.0383,-0.2453 -0.0117,-0.10364 -0.0254,-0.19408 -0.0305,-0.20099 -0.005,-0.007 -0.0194,-0.0578 -0.0319,-0.11305 -0.0125,-0.0553 -0.0267,-0.10615 -0.0315,-0.11306 -0.008,-0.0118 -0.0271,-0.10093 -0.0447,-0.21354 -0.004,-0.0276 -0.012,-0.0559 -0.0171,-0.0628 -0.0153,-0.0208 -0.0407,-0.1198 -0.0529,-0.20595 -0.006,-0.0446 -0.0163,-0.0871 -0.0223,-0.0945 -0.006,-0.007 -0.0195,-0.0503 -0.0302,-0.0952 -0.0189,-0.0796 -0.0728,-0.22599 -0.0971,-0.26379 -0.007,-0.0104 -0.018,-0.033 -0.0253,-0.0502 -0.007,-0.0173 -0.0242,-0.0544 -0.0376,-0.0824 -0.0134,-0.0281 -0.0336,-0.0818 -0.0447,-0.11934 -0.0194,-0.0656 -0.0378,-0.0916 -0.0564,-0.0801 -0.005,0.003 -0.01,0.18207 -0.0109,0.398 -0.001,0.21593 -0.008,0.41803 -0.0143,0.44912 -0.007,0.0311 -0.0194,0.11103 -0.0282,0.17764 -0.009,0.067 -0.0255,0.13558 -0.0372,0.15344 -0.0233,0.0356 -0.0279,0.0709 -0.009,0.0709 0.0211,0 0.0286,0.0841 0.0131,0.14665 -0.0234,0.0943 -0.029,0.16765 -0.0151,0.19705 0.007,0.0148 0.0223,0.10035 0.0341,0.19017 0.0117,0.0898 0.0264,0.17282 0.0326,0.18446 0.0373,0.0699 -0.0431,0.22351 -0.11704,0.22387 -0.009,4e-5 -0.033,0.009 -0.0536,0.0196 -0.0206,0.0107 -0.0636,0.0251 -0.0955,0.032 l -0.0581,0.0125 0.0112,0.0614 c 0.006,0.0338 0.01,0.12241 0.008,0.19695 l -0.004,0.13554 -0.0666,0.0128 c -0.0568,0.0109 -0.0695,0.0187 -0.0859,0.0527 -0.0106,0.022 -0.0287,0.0438 -0.0401,0.0485 -0.0326,0.0133 -0.29002,0.018 -0.36189,0.007 z m 1.93766,-5.21068 c 0.0141,-0.0457 0.0276,-0.0599 0.0628,-0.0661 0.0659,-0.0116 0.0319,-0.0279 -0.0704,-0.0338 -0.0963,-0.006 -0.10109,-0.005 -0.11154,0.0235 -0.009,0.0238 -0.004,0.0357 0.0251,0.0638 0.0409,0.0393 0.084,0.045 0.094,0.0126 z"
         style="fill:#000000;stroke-width:0.0474768"
         id="path1-6-5-6" />
      <path
         d="m 106.29548,-104.33784 c -0.0282,-0.0341 -0.11088,-0.0677 -0.18363,-0.0748 l -0.13229,-0.0128 0.007,-0.14579 c 0.003,-0.0802 0.0188,-0.24598 0.0331,-0.36845 l 0.0259,-0.22266 -0.0843,-0.174 -0.0843,-0.174 -0.038,-0.43644 -0.038,-0.43643 -0.0955,-0.1963 c -0.0525,-0.10796 -0.11857,-0.20517 -0.14685,-0.21602 l -0.0514,-0.0198 -0.0478,0.19906 c -0.0262,0.10953 -0.1122,0.30605 -0.19096,0.43681 -0.0788,0.13075 -0.14321,0.24546 -0.14321,0.2549 0,0.009 -0.0388,0.12099 -0.0863,0.24785 l -0.0863,0.23066 h -0.0788 c -0.0433,0 -0.0973,0.0344 -0.11977,0.0765 -0.0225,0.0421 -0.0597,0.26064 -0.0829,0.48575 l -0.0419,0.40931 -0.054,0.0354 c -0.0298,0.0194 -0.12902,0.0305 -0.22067,0.0245 l -0.16662,-0.0112 -0.0125,-0.1285 -0.0125,-0.12852 0.0647,-0.0536 0.0647,-0.0536 v -0.20045 c 0,-0.1102 0.0186,-0.2496 0.0415,-0.30966 l 0.0415,-0.10919 -0.0624,-0.12056 c -0.0343,-0.0663 -0.0624,-0.14602 -0.0624,-0.17714 0,-0.0312 0.0672,-0.16795 0.14946,-0.30407 l 0.14946,-0.24748 0.0399,-0.24541 c 0.064,-0.39401 0.14418,-0.70492 0.21936,-0.85032 l 0.07,-0.13532 -0.0409,-0.14777 c -0.0224,-0.0813 -0.0298,-0.1764 -0.0164,-0.21137 l 0.0244,-0.0635 -0.0548,-0.0339 -0.0548,-0.0339 0.0708,-0.10797 0.0708,-0.10796 -0.12926,-0.26802 c -0.0711,-0.14739 -0.15595,-0.29015 -0.18858,-0.31724 -0.0326,-0.0271 -0.0594,-0.0853 -0.0594,-0.12933 0,-0.0829 0.0194,-0.10451 0.45002,-0.50044 l 0.25737,-0.23669 0.15658,-0.0503 c 0.0861,-0.0277 0.18001,-0.0565 0.20865,-0.064 l 0.052,-0.0137 v -0.12627 c 0,-0.0695 -0.0175,-0.12627 -0.0389,-0.12627 -0.0213,0 -0.0508,-0.0375 -0.0653,-0.0834 l -0.0265,-0.0835 0.0653,-0.0653 c 0.0359,-0.0358 0.0653,-0.0908 0.0653,-0.1218 0,-0.031 0.0494,-0.0953 0.10975,-0.14281 l 0.10976,-0.0863 h 0.12068 c 0.14087,0 0.38589,0.0946 0.43005,0.166 0.0169,0.0272 0.0361,0.18084 0.0428,0.3413 l 0.0122,0.29176 -0.0793,-0.0208 c -0.0437,-0.0114 -0.0793,-0.0101 -0.0793,0.002 0,0.0124 0.0207,0.0903 0.046,0.17314 l 0.046,0.15063 0.13106,0.0833 0.13105,0.0833 0.0666,0.14579 0.0665,0.1458 -0.0261,0.40321 -0.0261,0.40323 -0.078,0.0862 c -0.0429,0.0474 -0.0587,0.0862 -0.0352,0.0862 h 0.0429 l -0.0213,0.3853 -0.0213,0.38532 -0.0506,0.0298 -0.0507,0.0298 -0.009,0.31248 -0.008,0.31247 0.0513,0.095 0.0512,0.095 0.0122,0.57197 0.0122,0.57198 -0.0747,0.04 -0.0747,0.04 -0.0494,0.16494 -0.0495,0.16495 0.0718,0.12511 0.0718,0.12512 0.18144,0.0882 0.18145,0.0881 -0.0136,0.072 -0.0137,0.072 -0.25331,0.0122 -0.25332,0.0122 z m -1.25315,-3.96144 c 0,-0.0343 -0.0281,-0.0624 -0.0624,-0.0624 -0.0651,0 -0.0826,0.0493 -0.0347,0.0973 0.0479,0.0479 0.0973,0.0302 0.0973,-0.0347 z"
         style="fill:#000000;stroke-width:0.0416547"
         id="path1-2-7-2" />
      <path
         id="path66655-9-4-3-4"
         style="fill:#000000;stroke-width:0.0315267"
         d="m 103.46537,-110.63243 c 0.0594,8e-5 0.11584,0.004 0.11834,0.0114 0.002,0.006 0.0161,0.0124 0.0305,0.0124 0.0144,0 0.0258,0.005 0.0258,0.0109 0,0.006 0.006,0.0113 0.014,0.0114 0.0168,6e-5 0.11679,0.0895 0.11679,0.10439 0,0.006 0.008,0.0199 0.0186,0.0315 0.0247,0.0274 0.0574,0.0976 0.0574,0.12403 0,0.0114 0.005,0.0234 0.0109,0.0274 0.006,0.004 0.0108,0.0211 0.0108,0.0388 0,0.0177 0.005,0.0407 0.01,0.0512 0.0181,0.0361 0.0332,0.14372 0.0233,0.17002 -0.009,0.0243 -0.10015,0.15095 -0.12505,0.17415 -0.006,0.006 -0.0178,0.0293 -0.0258,0.0522 -0.0123,0.0366 -0.0115,0.0441 0.005,0.0625 0.0104,0.012 0.024,0.0212 0.031,0.0212 0.007,0 0.0473,0.0342 0.0904,0.076 0.0431,0.0418 0.0834,0.076 0.0894,0.076 0.006,0 0.0109,0.0118 0.0109,0.0264 h -0.007 l 0.0357,0.007 c 0.0897,0.0188 0.22002,0.0664 0.28938,0.10542 l 0.12609,0.0708 0.0357,0.10955 c 0.0508,0.1562 0.13746,0.78254 0.13746,0.99168 v 0.17673 l -0.0755,0.0703 -0.0754,0.0703 0.01,0.14108 c 0.006,0.0777 0.0247,0.23169 0.0429,0.34261 0.0182,0.11093 0.0257,0.21414 0.0165,0.22893 -0.009,0.0148 -0.0361,0.0269 -0.0599,0.0269 -0.0237,0 -0.0632,0.0198 -0.0879,0.0444 l -0.0444,0.045 0.0636,0.28267 0.0641,0.28267 -0.0827,0.16898 -0.0832,0.16898 -0.017,0.15762 c -0.009,0.0867 -0.0164,0.24513 -0.0155,0.35191 9.5e-4,0.10677 -0.0152,0.28432 -0.0357,0.39429 -0.0205,0.10997 -0.0355,0.25159 -0.0336,0.31471 0.002,0.0631 0.0318,0.18115 0.0667,0.26252 0.0349,0.0814 0.0636,0.1892 0.0636,0.23978 v 0.092 h -0.20258 -0.20257 l -0.0522,-0.0517 -0.0517,-0.0517 0.0227,-0.16123 c 0.0125,-0.0885 0.0272,-0.19643 0.0326,-0.23978 0.0139,-0.11188 -0.0814,-0.9187 -0.11627,-0.98444 -0.0159,-0.0301 -0.0289,-0.09 -0.0289,-0.1328 0,-0.0848 -0.0533,-0.22663 -0.11317,-0.30128 -0.0209,-0.026 -0.0446,-0.0759 -0.0522,-0.11059 l -0.0134,-0.063 -0.0227,0.12661 c -0.0125,0.0694 -0.0363,0.15025 -0.0527,0.18035 -0.0164,0.0301 -0.03,0.0954 -0.03,0.14469 0,0.0494 -0.008,0.0974 -0.0171,0.10697 -0.0191,0.0191 -0.0541,0.62312 -0.0537,0.92346 1.1e-4,0.10403 0.0107,0.26347 0.0238,0.3545 l 0.0238,0.16536 -0.0274,0.004 c -0.0911,0.0142 -0.43826,0.036 -0.62683,0.0393 l -0.22066,0.004 -0.0103,-0.0729 c -0.006,-0.04 0.006,-0.0921 0.0253,-0.11575 0.0197,-0.0237 0.0901,-0.0524 0.15658,-0.0636 l 0.12092,-0.0202 0.0744,-0.0796 0.0744,-0.0791 v -0.24184 c 0,-0.13294 -0.009,-0.35857 -0.0202,-0.50178 l -0.0202,-0.26045 -0.0382,-0.0465 -0.0388,-0.0465 0.017,-0.045 0.0171,-0.0444 -0.0439,-0.0584 c -0.0243,-0.032 -0.0449,-0.0893 -0.0455,-0.12712 l -0.001,-0.0687 -0.0584,-0.0186 -0.0584,-0.0186 -0.0548,-0.12144 -0.0548,-0.12092 0.0388,-0.24237 0.0393,-0.24184 -0.0403,-0.0755 -0.0403,-0.0749 0.0181,-0.15193 c 0.01,-0.0835 0.0285,-0.21478 0.0408,-0.29145 l 0.0222,-0.13901 -0.13074,0.1049 c -0.072,0.0579 -0.13114,0.12076 -0.13126,0.13953 -1.2e-4,0.0188 -0.0498,0.068 -0.11007,0.10903 l -0.10956,0.0744 -0.0713,-0.0165 c -0.0393,-0.009 -0.11719,-0.0347 -0.17311,-0.0574 l -0.10181,-0.0413 -0.10903,0.0398 -0.10956,0.0393 -0.0656,-0.0408 -0.0661,-0.0408 0.009,-0.063 0.009,-0.0631 0.0977,-0.0486 c 0.0538,-0.0269 0.16882,-0.0944 0.25528,-0.14986 0.0864,-0.0555 0.17414,-0.10077 0.19534,-0.10077 0.0618,0 0.32536,-0.21355 0.4377,-0.3545 0.0568,-0.0712 0.10921,-0.15877 0.11679,-0.19482 0.008,-0.036 0.0303,-0.25001 0.0506,-0.47543 0.0203,-0.22541 0.0482,-0.432 0.062,-0.45888 0.0278,-0.0542 0.3351,-0.21875 0.40876,-0.21911 l 0.0465,-5.2e-4 0.0217,-0.0377 c -9.5e-4,-8.4e-4 -0.002,-0.002 -0.003,-0.003 -0.037,-0.0312 -0.0382,-0.0351 -0.0382,-0.10697 0,-0.041 -0.005,-0.0749 -0.01,-0.0749 -0.005,0 -0.0125,-0.0179 -0.0155,-0.0403 -0.0118,-0.0848 -0.027,-0.13435 -0.047,-0.15245 -0.0762,-0.0692 -0.0833,-0.17438 -0.0176,-0.26148 0.0151,-0.0201 0.0417,-0.0647 0.0589,-0.0992 0.0398,-0.0798 0.10349,-0.15197 0.15709,-0.17777 0.023,-0.0108 0.0506,-0.024 0.0615,-0.03 0.0147,-0.008 0.0771,-0.0114 0.13642,-0.0114 z" />
    </g>
  </g>
</svg>
