<?xml version="1.0" encoding="UTF-8" standalone="no"?>
<!-- Created with Inkscape (http://www.inkscape.org/) -->

<svg
   width="15.229338mm"
   height="6.3936138mm"
   viewBox="0 0 15.229338 6.3936138"
   version="1.1"
   id="svg1"
   sodipodi:docname="inkporter-svg-98vuzq3c.svg"
   xmlns:inkscape="http://www.inkscape.org/namespaces/inkscape"
   xmlns:sodipodi="http://sodipodi.sourceforge.net/DTD/sodipodi-0.dtd"
   xmlns="http://www.w3.org/2000/svg"
   xmlns:svg="http://www.w3.org/2000/svg">
  <sodipodi:namedview
     id="namedview1"
     pagecolor="#ffffff"
     bordercolor="#666666"
     borderopacity="1.0"
     inkscape:showpageshadow="2"
     inkscape:pageopacity="0.0"
     inkscape:pagecheckerboard="0"
     inkscape:deskcolor="#d1d1d1"
     inkscape:document-units="mm"
     inkscape:zoom="1.0293026"
     inkscape:cx="447.87605"
     inkscape:cy="570.77479"
     inkscape:window-width="1920"
     inkscape:window-height="1017"
     inkscape:window-x="-8"
     inkscape:window-y="-8"
     inkscape:window-maximized="1"
     inkscape:current-layer="layer1" />
  <defs
     id="defs1" />
  <g
     inkscape:label="Layer 1"
     inkscape:groupmode="layer"
     id="layer1"
     transform="translate(-97.748315,-126.26002)">
    <g
       id="IT-Infantry5"
       transform="matrix(0.11976417,0,0,0.11976417,79.6742,144.19207)">
      <path
         id="path66849-9-4-9"
         style="fill:#000000;stroke-width:0.264583"
         d="m 198.28623,-149.72797 0.23616,0.35916 0.23668,0.35863 0.5395,-0.17105 0.54002,-0.17156 0.17053,0.27543 0.17002,0.27544 h 1.30741 1.3069 l 0.52916,0.52916 c 0.29104,0.29105 0.52917,0.65242 0.52917,0.80306 v 0.27388 l -0.55139,-0.29559 c -0.30351,-0.16245 -0.62183,-0.22566 -0.70693,-0.14056 -0.0851,0.0851 0.074,0.42246 0.35347,0.74931 0.76177,0.89085 1.16943,1.71062 1.16943,2.35128 v 0.57412 l -0.56327,-0.50436 c -0.30991,-0.27721 -0.85431,-0.96191 -1.20975,-1.52135 -0.35543,-0.55945 -0.70489,-0.95805 -0.77669,-0.88625 -0.0718,0.0718 0.004,0.6312 0.16898,1.24333 l 0.29972,1.11311 0.70125,0.60306 0.70125,0.60358 -0.3545,0.42685 c -0.19499,0.23495 -0.50551,0.42737 -0.6904,0.42737 -0.18488,0 -0.41488,0.2052 -0.51108,0.45578 l -0.17518,0.45527 -0.23926,-0.38705 -0.23926,-0.38758 -0.29766,0.29766 -0.29714,0.29765 0.74931,0.71727 c 0.41223,0.39455 1.58856,1.11136 2.61431,1.59319 1.02575,0.48183 1.98668,1.03625 2.13527,1.23196 0.31452,0.41427 0.61255,1.43393 1.53531,5.25085 l 0.67179,2.77812 -0.36587,1.05833 -0.36587,1.05834 -1.61333,0.37672 -1.61334,0.37672 v 0.30386 c 0,0.16705 0.19413,0.87224 0.43098,1.56734 l 0.43046,1.26401 -0.34571,1.09812 c -0.19029,0.60414 -0.4302,1.21771 -0.53279,1.36323 l -0.18655,0.26458 0.62735,2.51354 c 0.34498,1.38244 0.62897,2.7219 0.63097,2.97656 l 0.004,0.46303 h -0.36484 c -0.20046,0 -0.48797,0.14898 -0.63923,0.33124 -0.15127,0.18226 -0.40021,1.40266 -0.55294,2.71198 -0.15272,1.30933 -0.46001,3.56078 -0.68316,5.00331 -0.22316,1.44253 -0.40566,3.0758 -0.40566,3.62924 v 1.00614 l 0.46302,0.97617 c 0.25467,0.53674 0.79044,1.327 1.19062,1.75648 l 0.72761,0.780831 v 0.633552 0.633553 h -1.74615 -1.74563 l -0.90951,-0.431498 c -0.49997,-0.23725 -1.02202,-0.643242 -1.16065,-0.902272 l -0.25218,-0.47077 0.4253,-1.148256 0.42529,-1.14825 0.005,-1.5875 0.005,-1.5875 -0.58549,-1.65106 -0.58601,-1.65054 0.32194,-1.43764 0.32194,-1.43764 -0.35915,-1.61696 -0.35863,-1.61747 -0.60978,-0.15296 -0.6103,-0.15296 -0.75809,0.31419 -0.75862,0.31419 -0.84749,1.83865 -0.84749,1.83865 0.28835,0.82734 c 0.15854,0.45479 0.28784,1.26335 0.28784,1.7973 0,0.53396 -0.17663,1.5662 -0.39274,2.29392 -0.21612,0.72773 -0.41343,1.86983 -0.43873,2.53783 l -0.046,1.2144 0.3266,0.78961 c 0.17984,0.43406 0.28841,1.12931 0.24081,1.545129 l -0.0868,0.756025 -1.05833,0.222208 c -0.58196,0.122317 -1.65314,0.380788 -2.38073,0.574127 h -5.3e-4 c -1.50834,0.400767 -2.28851,0.4639 -2.88871,0.233577 l -0.41806,-0.160713 v -0.684713 -0.684715 l 0.71055,-0.742075 c 0.39102,-0.40815 0.87306,-0.74207 1.07073,-0.74207 0.19767,0 0.65154,-0.29238 1.00873,-0.64957 l 0.64957,-0.64958 -0.009,-1.66553 c -0.01,-1.74666 -0.5826,-6.11681 -0.89969,-6.86366 l -0.185,-0.43615 0.2806,-2.01797 0.2806,-2.01796 -0.29248,-0.4687 -0.29249,-0.46819 0.8232,-2.57091 c 0.45294,-1.41401 0.82373,-2.62909 0.82373,-2.70009 0,-0.071 -0.13962,-0.12919 -0.31006,-0.12919 -0.17044,0 -0.52763,-0.19686 -0.79375,-0.4377 l -0.48369,-0.43822 v -0.56275 c 0,-0.30963 0.42005,-1.35372 0.93327,-2.32027 l 0.93328,-1.75752 -2.23811,-1.7477 c -2.10593,-1.64444 -3.69741,-3.3131 -4.73511,-4.96559 -0.24885,-0.39628 -0.49182,-1.11066 -0.54002,-1.5875 l -0.0879,-0.86713 -1.43195,-0.99477 c -0.78772,-0.5472 -2.29392,-1.41793 -3.34657,-1.93476 l -1.91358,-0.94 0.0548,-0.66146 c 0.0301,-0.36395 0.21237,-0.7924 0.40514,-0.95239 l 0.35037,-0.29094 0.91364,0.43511 c 0.50233,0.23956 0.91471,0.58677 0.91571,0.77102 l 0.002,0.33486 2.49287,1.52136 c 1.37128,0.83673 2.72094,1.52135 2.9993,1.52135 0.27836,0 0.73307,0.25105 1.01028,0.5581 0.40841,0.45237 2.17776,1.71015 4.53047,3.22048 l 0.32246,0.20671 0.53743,-0.53744 0.53744,-0.53743 v -0.87437 -0.87385 l 0.67644,-1.35702 0.67645,-1.35702 0.77566,-0.17054 c 0.42675,-0.0937 0.83482,-0.26575 0.90692,-0.3824 0.0721,-0.11665 -0.0306,-0.55417 -0.22841,-0.97204 -0.19783,-0.41784 -0.5145,-1.12849 -0.70383,-1.57923 l -0.34417,-0.81958 -0.74724,-0.28216 -0.74724,-0.28163 v -0.5116 -0.51211 l 0.59531,-0.26717 0.59532,-0.26717 v -1.12965 -1.12913 l 0.52658,-0.29765 c 0.28937,-0.16358 0.81142,-0.5055 1.16014,-0.76016 0.34872,-0.25466 0.84995,-0.46302 1.11414,-0.46302 h 0.48059 l 0.27285,-0.46302 z m 6.09472,17.5948 h -0.26459 -0.26458 v 0.66145 0.66146 h 0.26458 0.26459 v -0.66146 z m -14.50558,2.04742 c -0.14935,-0.0462 0.0936,0.26747 0.80409,0.96376 0.68594,0.67221 1.39189,1.22215 1.5689,1.22215 0.177,0 -0.19405,-0.44648 -0.82476,-0.99219 -0.85716,-0.74163 -1.39887,-1.14755 -1.54823,-1.19372 z" />
      <path
         style="fill:#000000;stroke-width:0.186951"
         d="m 245.68602,-96.704733 0.59091,-0.36031 0.15554,-0.433534 c 0.0856,-0.238446 0.16362,-1.737527 0.17349,-3.331283 0.0102,-1.59377 0.0814,-3.82316 0.15892,-4.95422 l 0.14098,-2.05647 -0.28298,-1.12171 c -0.15564,-0.61693 -0.41583,-1.60955 -0.57821,-2.2058 -0.16237,-0.59625 -0.29522,-1.2512 -0.29522,-1.45545 0,-0.20424 0.12828,-0.56714 0.28506,-0.80641 l 0.28506,-0.43506 0.10847,-1.1942 0.10849,-1.19419 -0.39324,-2.05646 c -0.2163,-1.13106 -0.39339,-2.15143 -0.39355,-2.26748 -1.6e-4,-0.11605 0.2521,-0.31555 0.56057,-0.44332 l 0.56085,-0.23231 0.0242,-0.30449 c 0.0133,-0.16746 0.0507,-0.68306 0.0833,-1.14577 l 0.0593,-0.84128 -0.27764,-0.21295 -0.27765,-0.21296 0.30116,-0.30116 c 0.16564,-0.16564 0.41683,-0.30117 0.55822,-0.30117 0.14138,0 0.7669,-0.2988 1.39006,-0.66403 l 1.133,-0.66403 2.53441,-0.71878 c 1.39393,-0.39535 2.58465,-0.76904 2.64605,-0.83043 0.0614,-0.0614 -0.0382,-0.27726 -0.22139,-0.47966 -0.37488,-0.41424 -1.49552,-0.84047 -1.76761,-0.6723 l -0.17842,0.11027 -0.44763,-0.6111 c -0.24621,-0.3361 -1.14744,-1.57857 -2.00275,-2.76104 -0.8553,-1.18246 -1.63917,-2.23408 -1.74192,-2.33689 l -0.18681,-0.18695 0.15793,0.28043 c 0.0869,0.15423 0.94498,1.39997 1.90694,2.76831 0.96196,1.36833 1.79057,2.59614 1.84135,2.72848 l 0.0923,0.24059 -2.01857,1.13549 c -1.11022,0.62452 -2.18683,1.16339 -2.39248,1.1975 l -0.37391,0.062 0.0112,-0.56085 0.0112,-0.56086 0.52699,-0.89881 0.52699,-0.89882 0.008,-0.78374 c 0.007,-0.68349 -0.28225,-2.5158 -0.72691,-4.59859 l -0.13593,-0.63665 0.20476,0.12654 c 0.34638,0.21409 -0.9338,-1.73298 -1.935,-2.94297 l -0.94733,-1.14489 -0.45481,-0.0941 c -0.78547,-0.16262 -1.93356,-0.87377 -2.37106,-1.46866 l -0.42063,-0.57198 v -0.75537 c 0,-0.41546 0.0694,-0.75538 0.15398,-0.75538 0.0846,0 0.23212,-0.31548 0.32764,-0.70107 l 0.17367,-0.70106 0.32668,0.68258 0.32668,0.68258 v 0.67282 0.67281 l 0.17376,-0.0467 c 0.0956,-0.0257 0.30321,0.12152 0.46143,0.32717 l 0.28768,0.3739 0.0191,-0.56085 0.0191,-0.56086 0.16068,0.37391 0.16067,0.3739 0.0131,-0.49123 0.0132,-0.49122 0.31632,-0.25658 0.31632,-0.25658 -0.12998,0.21682 c -0.15414,0.25715 0.027,0.81142 0.26515,0.81142 0.0918,0 0.16695,-0.17323 0.16695,-0.38494 v -0.38494 l 0.18696,0.11554 0.18695,0.11555 v -0.40494 -0.40494 l 0.28042,0.11348 c 0.15424,0.0624 0.42766,0.17217 0.60759,0.24392 l 0.32717,0.13045 -0.74988,-0.85384 c -0.76926,-0.87589 -1.00973,-1.29295 -1.35586,-2.35155 l -0.19868,-0.60759 h 0.15979 c 0.0879,0 0.53495,0.48757 0.99349,1.08347 0.45853,0.5959 0.96822,1.1951 1.13264,1.33154 0.56623,0.46994 0.29698,-0.0208 -0.56506,-1.02979 l -0.864,-1.01131 h 0.21896 c 0.12041,0 0.48817,0.13919 0.81724,0.30932 l 0.59831,0.30932 -0.2441,-0.2943 c -0.13426,-0.16185 -0.67569,-0.44827 -1.20318,-0.63647 l -0.95908,-0.3422 -0.59174,-0.6076 c -0.32546,-0.33417 -0.71365,-0.60759 -0.86264,-0.60759 -0.14898,0 -0.35858,-0.0877 -0.46576,-0.19487 l -0.19487,-0.19487 -0.23605,0.28442 -0.23605,0.28442 -0.37024,-0.19814 c -0.20361,-0.10898 -0.67853,-0.22056 -1.05533,-0.24796 -0.37681,-0.0274 -0.86554,-0.10758 -1.08605,-0.17818 l -0.40095,-0.12836 -0.28677,0.28677 c -0.15773,0.15773 -0.34926,0.28677 -0.42562,0.28677 -0.0764,0 -0.29327,0.13976 -0.48202,0.31057 -0.18875,0.17081 -0.52983,0.40364 -0.75799,0.51737 l -0.41481,0.20681 -0.0504,0.62086 c -0.0277,0.34148 -0.19372,0.92301 -0.36895,1.29228 -0.17524,0.36928 -0.30675,0.8289 -0.29225,1.02137 0.0145,0.19246 0.2795,0.63824 0.58889,0.99062 l 0.56252,0.64067 0.12882,0.68667 0.12882,0.68668 -0.17042,0.48458 -0.17042,0.48459 -0.61288,0.37509 c -0.33708,0.2063 -1.00826,0.63022 -1.49152,0.94205 l -0.87866,0.56695 0.0256,0.31905 c 0.0141,0.17548 -0.04,0.27849 -0.12024,0.22891 l -0.14585,-0.0902 -0.30041,1.33028 c -0.16523,0.73164 -0.30042,1.45033 -0.30042,1.59706 0,0.14672 -0.13624,0.53023 -0.30276,0.85223 -0.35983,0.69584 -0.67307,2.53645 -0.74033,4.35018 -0.0267,0.71977 -0.0924,1.43486 -0.14598,1.5891 -0.0536,0.15422 -0.0814,1.84896 -0.0618,3.76606 l 0.0357,3.48564 0.35614,0.3936 c 0.19588,0.21648 0.48046,0.39361 0.63241,0.39361 0.15194,0 0.43334,-0.18114 0.62534,-0.40251 0.19201,-0.22137 0.35281,-0.3686 0.35734,-0.32716 0.004,0.0415 0.0537,1.12636 0.10951,2.41096 l 0.10127,2.33562 0.35787,0.78556 c 0.19681,0.43205 0.35786,0.90029 0.35786,1.04052 0,0.14022 0.10777,0.40233 0.23949,0.58246 l 0.23948,0.32752 -0.12431,1.15709 c -0.0684,0.6364 -0.082,1.91424 -0.0303,2.83965 l 0.0941,1.68257 -0.21816,1.77604 -0.21817,1.77604 -0.69218,0.71284 c -0.69635,0.71715 -1.71499,1.43568 -2.1438,1.5122 -0.12701,0.0226 -0.42504,0.10637 -0.6623,0.186 l -0.43134,0.1448 -0.17627,0.46362 -0.17627,0.46363 0.19355,0.361656 0.19357,0.36165 0.88144,-0.001 c 0.93215,-10e-4 2.00955,-0.23637 2.93791,-0.64157 0.30847,-0.134626 0.97018,-0.256486 1.47049,-0.270786 0.5003,-0.0143 0.98404,-0.072 1.07497,-0.12818 0.21138,-0.13065 0.20527,-1.27169 -0.0118,-2.2074 l -0.16823,-0.72513 0.18131,-1.12583 c 0.0998,-0.61922 0.38056,-1.69614 0.62408,-2.39314 0.24352,-0.69702 0.53879,-1.75696 0.65617,-2.35545 0.11738,-0.59848 0.34287,-1.51857 0.50109,-2.04464 l 0.2877,-0.9565 -0.28854,-0.55797 -0.28854,-0.55798 0.29315,-0.41853 0.29314,-0.41852 0.65692,1.46562 c 0.3613,0.80609 0.78207,1.60968 0.93503,1.78574 0.15296,0.17608 0.56239,0.41396 0.90984,0.52862 0.34744,0.11467 0.63323,0.26506 0.63508,0.33421 0.0108,0.40513 0.58826,3.7628 0.91312,5.30944 0.21009,1.00021 0.39731,2.3042 0.41605,2.89774 l 0.0341,1.07916 -0.23542,0.840236 c -0.12948,0.46212 -0.3949,1.15283 -0.58981,1.5349 -0.19492,0.38206 -0.3544,0.891513 -0.3544,1.132099 0,0.240593 0.10097,0.538392 0.22434,0.661783 l 0.22435,0.224342 0.75715,-7.07e-4 0.75714,-7.07e-4 0.59092,-0.360302 z m -11.69305,-27.305047 c 0.12357,-0.41243 0.28982,-0.74988 0.36943,-0.74988 0.0796,0 0.19621,0.16208 0.25908,0.36018 l 0.11432,0.36018 -0.30015,0.71479 -0.30015,0.71479 -0.18361,-0.32508 -0.18358,-0.3251 z m 11.0144,-19.44502 v -0.28044 l 0.18122,0.28044 c 0.0996,0.15422 0.18123,0.40661 0.18123,0.56084 v 0.28043 l -0.18123,-0.28043 c -0.0996,-0.15423 -0.18122,-0.40662 -0.18122,-0.56084 z"
         id="path58588-4-0-0"
         sodipodi:nodetypes="ccssscsssscccssscsscccssscsssscssscssscsscccccsscsscsscssscccccsscccccccccssscccccsscsscsssscsscsscssscccssscsssscsssscccccssccscsssscscssscccsssccccccsssccccccsssscsssscccccsssssscsssscccccssscccccsscsscss" />
      <path
         d="m 171.91956,-148.04133 -0.71365,0.33434 c -0.3926,0.18386 -0.78433,0.42624 -0.87023,0.53796 l -0.15607,0.20308 1.55443,-0.0806 c 1.55097,-0.08 2.19842,0.0202 1.35858,0.21032 -0.24388,0.0552 -1.16338,0.10092 -2.04329,0.10129 -0.87985,5.3e-4 -1.65089,0.0673 -1.71359,0.14883 l -0.11421,0.14831 0.70539,0.24908 c 1.22896,0.43395 1.78736,0.50799 3.14864,0.41909 l 1.32705,-0.0863 -0.3545,0.21033 c -0.19496,0.11571 -0.49151,0.29104 -0.65939,0.38964 l -0.30541,0.17931 0.37569,0.28888 0.37569,0.28887 -0.24081,0.0909 -0.2403,0.091 0.35709,0.27492 c 0.19638,0.15106 0.30373,0.34413 0.23823,0.42943 -0.16988,0.22092 -0.81348,-0.006 -0.94207,-0.3328 l -0.10852,-0.27543 0.0124,0.47645 0.0124,0.47646 0.44648,0.36277 0.44649,0.36225 -0.46147,-0.1173 -0.46147,-0.11783 0.50643,0.41755 0.50694,0.41806 h -0.55242 c -0.30362,1.3e-4 -0.58822,0.0878 -0.63252,0.19482 l -0.0806,0.1943 -0.62425,-0.47955 -0.62374,-0.48008 -0.86661,-0.18397 -0.8661,-0.18345 -0.66094,-0.5488 c 0.1527,0.53297 0.27337,1.30705 0.27337,1.82004 v 1.02165 l 0.45682,0.24391 c 0.25115,0.13441 0.85991,0.31211 1.35289,0.39481 0.49299,0.0827 1.31279,0.22387 1.82211,0.31367 0.50932,0.0898 1.55734,0.5177 2.32854,0.95085 l 1.40198,0.78755 0.92966,1.84588 c 0.51121,1.01513 1.35214,2.44722 1.86913,3.18275 0.51699,0.73553 1.09843,1.71662 1.29192,2.17971 l 0.35191,0.84181 -0.92087,1.79679 c -0.50632,0.98836 -0.96228,2.1566 -1.01338,2.59571 l -0.093,0.7984 1.12447,1.74718 c 1.28205,1.99209 1.99006,3.31493 1.99006,3.71864 0,0.411 -0.55404,0.3374 -1.08675,-0.1447 l -0.46716,-0.42271 -0.28163,0.17363 c -0.41469,0.2563 -0.34462,1.4273 0.17105,2.86598 l 0.45475,1.26865 -0.32143,0.51367 c -0.17655,0.2827 -0.31926,0.72419 -0.31626,0.98082 0.003,0.25664 0.35007,0.97576 0.77205,1.59835 l 0.76739,1.13223 0.006,4.86947 0.006,4.86947 0.4129,0.7984 c 0.22707,0.43913 0.41289,1.15171 0.41289,1.58337 v 0.78496 l -0.7276,0.26562 -5.3e-4,-5.3e-4 c -0.40018,0.14616 -0.86155,0.275301 -1.02526,0.286801 -0.16371,0.0115 -0.66628,-0.0525 -1.11673,-0.142621 l -0.81855,-0.16382 -0.14418,-0.45372 -0.14418,-0.45372 0.38086,-1.07848 c 0.20929,-0.5932 0.34002,-1.11933 0.29042,-1.16893 -0.0496,-0.0496 -0.21789,-1.23271 -0.37362,-2.62929 -0.27638,-2.47859 -0.8634,-4.47208 -1.31672,-4.47208 -0.12423,0 -0.54899,-0.4881 -0.94413,-1.08521 l -0.7183,-1.08572 0.15606,-0.62218 0.15607,-0.62167 -1.15704,-1.19062 -1.15704,-1.19063 -0.1881,-1.66295 -0.1881,-1.66295 -0.26303,0.47026 c -0.14453,0.2585 -0.21086,0.61424 -0.14676,0.79065 0.0641,0.17642 -0.0628,0.52683 -0.28216,0.77876 l -0.39894,0.45786 0.2775,0.33589 c 0.15276,0.18463 0.27372,0.63304 0.26872,0.99684 -0.0107,0.76074 1.19425,4.17996 1.85725,5.26996 0.24621,0.40478 0.66163,1.03887 0.92294,1.40922 0.26131,0.37036 0.54527,1.10548 0.63097,1.63349 l 0.15555,0.96015 -0.47336,0.52297 c -0.26041,0.28775 -0.63367,0.52296 -0.82941,0.52296 -0.19572,0 -0.37103,0.14883 -0.38963,0.33073 -0.12473,1.22157 -0.17421,1.47996 -0.33073,1.73323 -0.26053,0.42154 -1.75077,1.11104 -2.40141,1.11104 -0.31234,0 -0.71059,-0.14266 -0.88522,-0.31729 -0.17462,-0.17462 -0.31781,-0.59631 -0.31781,-0.9369 0,-0.34059 0.23786,-0.94154 0.52814,-1.33583 l 0.52761,-0.71727 0.15193,-1.5875 0.15193,-1.5875 -0.48369,-0.87126 c -0.78837,-1.42135 -3.05347,-4.18814 -3.63957,-4.44573 l -0.54364,-0.23926 -0.0915,-0.66146 c -0.0503,-0.3638 -0.20087,-0.79433 -0.33434,-0.95704 -0.13348,-0.16273 -0.24453,-0.81757 -0.24753,-1.45521 -0.005,-1.02044 -0.0787,-2.08437 -0.21136,-3.04685 -0.0227,-0.16493 -0.28185,-0.36244 -0.57568,-0.43925 l -0.53381,-0.14004 0.17725,-1.54461 c 0.0975,-0.84964 0.33532,-1.99945 0.52865,-2.55488 l 0.3514,-1.00976 -0.40515,-0.61857 -0.40566,-0.61856 -0.67851,-0.17053 c -0.37331,-0.0933 -0.69445,-0.13445 -0.71365,-0.0909 -0.0192,0.0435 -0.21743,0.43625 -0.44029,0.87281 l -0.40513,0.79375 -0.95912,0.0806 -0.95964,0.0806 -0.68575,-0.89969 -0.68625,-0.89916 v -0.80977 -0.80978 l -1.12448,-0.65164 c -0.97472,-0.5647 -2.28711,-0.97781 -7.4233,-2.33732 l -1.00719,-0.26665 0.0811,-0.9772 0.0811,-0.97669 0.76636,-0.0873 0.76584,-0.0879 0.68937,0.50798 c 0.37899,0.2793 1.8201,0.88409 3.20289,1.34411 l 2.51457,0.83664 h 0.96327 0.96324 l 0.16021,-0.41858 c 0.0883,-0.23018 0.1607,-1.48261 0.1607,-2.78329 v -2.36472 l 0.6258,-0.99115 c 0.34401,-0.54495 0.82026,-1.1522 1.05833,-1.34979 0.2381,-0.19758 0.43254,-0.50749 0.43254,-0.68833 0,-0.18083 -0.23812,-0.63149 -0.52916,-1.00149 -0.29105,-0.37 -0.52917,-0.85732 -0.52917,-1.08314 0,-0.22582 -0.30459,-0.6934 -0.67696,-1.0387 l -0.67697,-0.62735 0.45268,-1.16892 c 0.249,-0.64286 0.70242,-1.4483 1.00769,-1.78955 0.30528,-0.34125 0.87675,-0.78773 1.26971,-0.99219 l 0.71416,-0.37155 h 1.07073 1.07074 l 0.26458,0.23926 c 0.0145,-0.0149 0.0281,-0.0297 0.0398,-0.045 0.10625,-0.13818 0.63708,-0.3033 1.17926,-0.3669 l 0.98547,-0.11576 1.00149,-0.64544 c 0.55085,-0.35512 1.20306,-0.65349 1.449,-0.66249 z m -0.41599,3.12177 0.26044,0.19999 c 0.14308,0.11002 0.43538,0.21443 0.64958,0.23203 l 0.38912,0.032 -0.25993,-0.19998 c -0.14308,-0.11002 -0.4354,-0.21443 -0.64958,-0.23203 z m -6.13917,14.62185 -0.33072,0.45217 c -0.1819,0.24862 -0.33073,0.66746 -0.33073,0.93069 v 0.47852 l 0.7276,0.008 c 0.40019,0.005 0.91668,0.15346 1.14773,0.33073 l 0.42013,0.32246 -0.1111,0.33073 v 5.3e-4 c -0.0612,0.1819 -0.0718,0.32695 -0.0233,0.32194 0.0485,-0.005 0.30371,-0.17163 0.56741,-0.37155 l 0.47955,-0.3638 -1.2733,-1.22008 z"
         style="fill:#000000;stroke-width:0.264583"
         id="path66826-9-1-0-0" />
      <path
         id="path58354-2-4-2-3"
         style="fill:#000000;stroke-width:0.264583"
         d="m 219.26145,-148.27859 -1.0294,0.28112 c -0.56616,0.15457 -1.19222,0.41387 -1.39112,0.57619 -0.0745,0.0608 -0.19097,0.22217 -0.31936,0.41858 -0.14505,0.0451 -0.29757,0.10069 -0.44649,0.16485 l -0.91157,0.39274 -1.19011,-0.0584 c -0.65461,-0.0321 -1.36793,0.0357 -1.58543,0.15089 l -0.39584,0.20877 0.78548,-0.0672 c 0.43193,-0.0371 0.89191,-0.0233 1.02216,0.0305 l 0.23668,0.0982 -1.38597,0.70745 c -1.38318,0.70621 -1.89416,1.11673 -1.07176,0.86145 0.23879,-0.0741 1.05783,-0.49417 1.82004,-0.9338 0.76228,-0.43939 1.46346,-0.76732 1.55856,-0.72812 l 0.17311,0.0713 -0.48627,0.56845 c -0.84733,0.99029 -1.29381,1.3337 -2.51716,1.93735 l -1.19269,0.58859 0.41238,0.005 c 0.22669,0.003 0.57115,0.007 0.76584,0.008 l 0.35399,0.003 -0.18087,0.4377 -0.18087,0.43822 0.25373,-0.0413 0.25373,-0.0413 -0.17156,0.416 c -0.0942,0.22901 -0.0906,0.44983 0.009,0.49092 0.25757,0.10641 0.70148,-0.41213 0.64957,-0.75912 l -0.0439,-0.29249 0.22738,0.41909 0.22737,0.41858 -0.20515,0.53744 -0.20516,0.53692 0.34055,-0.3328 0.34106,-0.33228 -0.22996,0.61495 -0.22996,0.61495 0.47801,-0.27543 c 0.26302,-0.15167 0.55354,-0.2183 0.64544,-0.1478 l 0.16691,0.12816 0.30076,-0.72761 0.30076,-0.7276 0.49041,-0.44183 0.38964,1.40146 c 0.24632,0.88594 0.44803,1.79077 0.44803,2.01125 v 0.40101 h -0.54673 c -0.30061,0 -0.75909,0.11383 -1.01855,0.2527 l -0.47129,0.25217 -0.45578,1.4485 c -0.25056,0.79659 -0.69523,1.72454 -0.98806,2.0624 l -0.53226,0.61444 -1.0356,0.0429 -1.03508,0.0424 -0.14883,-0.24133 c -0.23395,-0.37853 -0.95612,-0.28284 -1.48621,0.19689 l -0.48369,0.43822 v 0.69349 c 0,0.38163 0.18533,0.95868 0.41186,1.28209 l 0.41186,0.58808 h 0.44959 0.44906 l 0.79272,0.94568 c 0.43574,0.52012 0.85666,1.20411 0.93586,1.52032 l 0.14418,0.57516 0.38499,0.0264 c 0.21182,0.0146 0.65637,0.045 0.98753,0.0672 l 0.60204,0.0403 -0.4036,0.78032 c -0.22202,0.42933 -0.40359,1.13514 -0.40359,1.56837 v 0.78807 l 0.64647,0.5085 0.64647,0.50849 -0.15037,1.45676 -0.15038,1.45676 0.60771,0.42581 0.60772,0.4253 -0.32298,1.00201 -0.32246,1.00149 0.22892,1.62108 0.22893,1.6211 -0.22066,0.59686 -0.22117,0.59686 0.32349,0.95705 c 0.17776,0.52642 0.52355,1.19517 0.76843,1.48621 l 0.44493,0.52917 0.29456,2.5585 c 0.16189,1.40725 0.29456,2.81804 0.29456,3.13521 v 0.57671 l -0.89969,0.89968 -0.89969,0.89969 h -0.6351 c -0.34925,0 -0.77777,0.14266 -0.9524,0.31729 -0.17462,0.17462 -0.31729,0.58947 -0.31729,0.92139 v 0.60307 l 0.72089,0.181377 0.72088,0.18087 1.79731,-0.308507 c 0.98857,-0.16952 2.21446,-0.30799 2.72386,-0.30799 h 0.92604 l -0.16588,0.660417 -0.16588,0.66095 0.62374,0.65784 v -0.001 l 0.62425,0.65784 1.52135,0.005 1.52136,0.005 v -0.80306 -0.80305 l -0.42272,-0.644917 c -0.23239,-0.35467 -0.46831,-1.09463 -0.52451,-1.64434 -0.0562,-0.54971 0.0175,-1.59655 0.16381,-2.32648 0.14629,-0.72993 0.3708,-2.26414 0.4992,-3.40909 l 0.23357,-2.08153 0.69247,-0.64182 0.69246,-0.64233 -0.15038,-0.24288 c -0.0826,-0.13371 -0.0174,-0.49201 0.14521,-0.79582 l 0.29559,-0.55242 -0.38809,-0.59273 -0.38861,-0.59273 0.22273,-0.39791 c 0.12247,-0.21884 0.43289,-1.96013 0.68988,-3.86953 l 0.46716,-3.47162 0.80408,0.15141 0.8046,0.15141 1.93115,1.48466 c 1.06223,0.81643 2.16066,1.64568 2.44068,1.84279 l 0.50901,0.35811 0.31368,-0.68884 0.31419,-0.68937 -0.30127,-0.66145 -0.30128,-0.66146 h -0.52968 c -0.59146,0 -3.20222,-1.56871 -4.28811,-2.57659 l -0.70487,-0.65422 0.91984,-0.80771 0.92036,-0.80822 -0.13746,-2.27272 -0.13797,-2.27325 -0.67748,-2.60604 c -0.37267,-1.43338 -0.80993,-2.86213 -0.97203,-3.175 -0.1621,-0.31287 -0.69082,-1.05889 -1.17461,-1.65778 l -0.87953,-1.08883 -0.91158,-0.43253 c -0.50123,-0.23784 -1.19953,-0.43253 -1.55236,-0.43253 h -0.64182 l -0.60875,-0.64802 -0.60874,-0.64802 0.15761,-0.41032 0.15761,-0.41031 h 0.94258 0.94258 l 0.14934,-0.39015 0.14987,-0.39016 -0.53796,-0.87075 -0.53795,-0.87023 0.14521,-1.08262 0.14521,-1.08211 -1.08262,-1.00148 c -0.59534,-0.55083 -1.30607,-1.15862 -1.57975,-1.35031 z m -5.34851,4.63021 -0.12506,0.30334 c -0.0689,0.16682 -0.26978,0.40321 -0.44648,0.52555 l -0.32143,0.22272 0.12506,-0.30334 c 0.0689,-0.16681 0.27033,-0.40373 0.447,-0.52606 z m 5.7614,34.77049 h 0.24443 0.24495 l 0.17363,3.22719 0.17363,3.22719 -0.23874,0.23927 -0.23926,0.23874 -0.12558,-0.48989 c -0.069,-0.26931 -0.14961,-1.82884 -0.17931,-3.46594 z" />
      <path
         d="m 263.39089,-145.64848 1.05833,0.34416 c 0.58208,0.18915 1.35659,0.41143 1.72083,0.49403 l 0.66197,0.14986 0.85938,1.11776 0.85886,1.11777 v 0.64595 0.64596 l -0.39687,-0.3297 -0.39688,-0.32918 v 0.69402 0.6935 h -0.26458 c -0.14552,0 -0.26458,-0.0962 -0.26458,-0.21395 0,-0.11771 -0.1745,-0.44512 -0.38809,-0.7276 l -0.38861,-0.51366 0.24443,0.88263 0.24391,0.88263 -0.31884,0.5147 -0.31884,0.51418 0.39687,0.2527 c 0.21828,0.13885 0.70319,0.25431 1.07745,0.25631 0.73576,0.004 2.84515,0.66675 3.93517,1.23559 0.37183,0.19404 0.80161,0.3536 0.95498,0.3545 0.4189,0.002 1.72269,1.44986 3.66696,4.07055 l 1.74252,2.34869 v 0.67335 0.67283 l -0.43769,0.48369 c -0.24084,0.26612 -0.65756,0.48369 -0.92605,0.48369 h -0.48834 v 0.78083 0.78031 l -0.35967,0.21188 -0.35967,0.21135 -0.13694,2.26446 -0.13694,2.26446 -0.84646,1.75545 c -0.46555,0.96529 -0.96684,1.79492 -1.11363,1.84382 -0.14679,0.0489 -0.42518,0.91923 -0.61908,1.93373 -0.1939,1.01451 -0.50284,2.33789 -0.68626,2.94091 l -0.33332,1.09657 0.72812,0.86506 0.72813,0.86507 -0.14625,0.5519 -0.14676,0.55191 0.42736,1.12448 0.42737,1.12447 h 0.36122 0.3607 v 0.63821 0.63768 l 0.76636,0.64493 c 0.42135,0.35454 0.9489,0.99844 1.17254,1.43092 l 0.40669,0.786 -0.31781,0.64337 c -0.17463,0.35371 -0.59121,0.76192 -0.92604,0.90744 l -0.60875,0.26458 -0.14263,0.70436 -0.14262,0.704346 -0.56689,0.15193 c -0.75249,0.20217 -3.19291,0.2013 -3.72019,-0.001 l -0.41858,-0.16072 v -0.746206 -0.74673 l 0.416,-0.41595 c 0.22867,-0.22868 0.59799,-0.41548 0.82062,-0.41548 h 0.40463 l -0.12093,-1.92702 -0.12092,-1.92649 -0.36639,-0.58705 c -0.20154,-0.32272 -0.48666,-0.58116 -0.63355,-0.57516 -0.1469,0.006 -0.75815,0.45269 -1.35806,0.99219 l -1.09037,0.98082 -0.15348,1.38906 -0.154,1.38906 h 0.23978 0.2403 l -0.0171,1.12448 c -0.009,0.61847 0.0961,1.684796 0.23358,2.369886 0.1375,0.6851 0.1789,1.36035 0.0925,1.50017 -0.0864,0.13982 -0.5725,0.31062 -1.08056,0.37982 v -5.3e-4 c -1.28217,0.17464 -5.63742,-0.0773 -5.91178,-0.34209 l -0.22531,-0.21756 0.35967,-0.75344 0.35915,-0.75396 0.92449,-0.0848 c 0.50832,-0.0467 1.03563,-0.19435 1.17202,-0.32763 l 0.24805,-0.24236 0.0863,-2.382806 0.0863,-2.38332 -0.68936,-0.59686 c -0.37919,-0.3282 -0.80087,-0.80395 -0.93741,-1.0573 l -0.24857,-0.46096 0.43357,-0.83767 0.43356,-0.83819 -0.32969,-0.99891 -0.3297,-0.9989 0.18035,-1.12914 c 0.0993,-0.62082 0.2778,-1.25337 0.39688,-1.40611 0.11907,-0.15274 0.29801,-0.61934 0.39791,-1.03663 l 0.1819,-0.75861 -0.45062,-0.49816 c -0.2479,-0.27393 -0.59749,-0.49816 -0.7767,-0.49816 h -0.32556 l -0.16278,-1.19063 c -0.0893,-0.65484 -0.23349,-1.71321 -0.32039,-2.35231 l -0.15762,-1.1622 -1.09916,0.12867 -1.09864,0.12919 -1.71979,1.1281 c -0.94589,0.62044 -1.85916,1.20558 -2.02933,1.30018 l -0.30903,0.17208 -0.41496,-0.41496 -0.41444,-0.41444 0.57516,-0.77877 c 0.31649,-0.42808 0.76178,-0.78151 0.98908,-0.78651 0.22729,-0.005 1.0082,-0.45118 1.73581,-0.99219 l 1.32292,-0.98392 v -1.54823 -1.54771 l -0.99219,-0.83354 -0.99219,-0.83302 v -0.44752 c 0,-0.24607 0.10654,-0.51284 0.23668,-0.59324 0.13015,-0.0804 0.29174,-0.59388 0.35864,-1.1405 0.20271,-1.65563 1.01681,-4.62818 1.60352,-5.85339 0.30432,-0.63551 0.75825,-1.28328 1.00873,-1.43971 l 0.45578,-0.28422 -0.51418,-1.00769 c -0.28271,-0.55414 -0.62005,-1.00769 -0.74982,-1.00769 -0.12977,0 -0.31666,-0.47624 -0.41497,-1.05833 l -0.1788,-1.05833 h -0.3793 -0.3793 l -0.29611,-0.65061 -0.29662,-0.65061 0.41392,-0.63148 c 0.50981,-0.77804 2.68988,-2.19747 3.76205,-2.44947 0.43656,-0.10261 0.97234,-0.33882 1.19062,-0.52451 z m -1.75597,17.31057 -0.22892,0.37052 c -0.1259,0.20375 -0.16717,0.47078 -0.0915,0.59325 0.0757,0.12246 -0.003,0.39191 -0.17467,0.59893 -0.17181,0.20701 -0.27127,0.49342 -0.22118,0.63665 l 0.0909,0.26045 0.64906,-0.49144 0.64906,-0.49145 -0.33642,-0.73845 z m 12.81059,2.1823 -0.8971,0.0858 -0.8971,0.0858 0.063,0.52916 c 0.0346,0.29105 0.27921,1.5994 0.54312,2.90732 l 0.47956,2.37764 0.21446,-0.52555 c 0.11783,-0.28928 0.27708,-1.63629 0.35398,-2.9931 z"
         style="fill:#000000;stroke-width:0.264583"
         id="path66809-2-2-9" />
    </g>
  </g>
</svg>
