<?xml version="1.0" encoding="UTF-8" standalone="no"?>
<!-- Created with Inkscape (http://www.inkscape.org/) -->

<svg
   width="8.874382mm"
   height="6.6462455mm"
   viewBox="0 0 8.874382 6.6462455"
   version="1.1"
   id="svg1"
   sodipodi:docname="inkporter-svg-iknbq28b.svg"
   xmlns:inkscape="http://www.inkscape.org/namespaces/inkscape"
   xmlns:sodipodi="http://sodipodi.sourceforge.net/DTD/sodipodi-0.dtd"
   xmlns="http://www.w3.org/2000/svg"
   xmlns:svg="http://www.w3.org/2000/svg">
  <sodipodi:namedview
     id="namedview1"
     pagecolor="#ffffff"
     bordercolor="#666666"
     borderopacity="1.0"
     inkscape:showpageshadow="2"
     inkscape:pageopacity="0.0"
     inkscape:pagecheckerboard="0"
     inkscape:deskcolor="#d1d1d1"
     inkscape:document-units="mm"
     inkscape:zoom="1.0293026"
     inkscape:cx="447.87605"
     inkscape:cy="570.77479"
     inkscape:window-width="1920"
     inkscape:window-height="1017"
     inkscape:window-x="-8"
     inkscape:window-y="-8"
     inkscape:window-maximized="1"
     inkscape:current-layer="layer1" />
  <defs
     id="defs1" />
  <g
     inkscape:label="Layer 1"
     inkscape:groupmode="layer"
     id="layer1"
     transform="translate(-109.72073,-172.44189)">
    <g
       id="IT-Infantry-Para-HQ3a"
       transform="translate(18.98342,283.17568)">
      <path
         style="fill:#000000;stroke-width:0.0410185"
         d="m 93.858483,-104.42301 c -0.0044,-0.004 -0.04067,-0.0115 -0.0805,-0.0157 -0.108748,-0.0114 -0.204403,-0.0269 -0.217975,-0.0353 -0.0067,-0.004 -0.05229,-0.009 -0.101462,-0.0117 -0.07655,-0.004 -0.09222,-0.008 -0.109099,-0.0283 -0.01257,-0.0155 -0.0171,-0.0325 -0.01253,-0.0467 0.02497,-0.0777 0.02746,-0.23398 0.0037,-0.23398 -0.0052,0 -0.0094,-0.009 -0.0094,-0.0211 0,-0.0116 -0.0044,-0.0239 -0.0099,-0.0271 -0.0054,-0.003 -0.01307,-0.0489 -0.01696,-0.1011 -0.0061,-0.0826 -0.01929,-0.13569 -0.03826,-0.15461 -0.0077,-0.007 -0.03082,-0.0491 -0.06831,-0.12227 -0.02023,-0.0395 -0.0366,-0.0943 -0.04433,-0.14837 -0.0067,-0.0471 -0.0159,-0.0894 -0.02036,-0.0939 -0.0044,-0.004 -0.0081,-0.0315 -0.0081,-0.0599 0,-0.0284 -0.0048,-0.0548 -0.01085,-0.0585 -0.0059,-0.004 -0.01085,-0.0257 -0.01085,-0.0489 0,-0.0233 -0.0074,-0.0704 -0.01628,-0.10474 -0.009,-0.0345 -0.01628,-0.0831 -0.01628,-0.1084 0,-0.0253 -0.0048,-0.0489 -0.01085,-0.0526 -0.006,-0.004 -0.01085,-0.0257 -0.01085,-0.0489 0,-0.0232 -0.0044,-0.0448 -0.0098,-0.0482 -0.0053,-0.003 -0.01319,-0.0353 -0.01735,-0.0712 -0.0042,-0.0358 -0.01195,-0.0652 -0.01735,-0.0652 -0.0054,0 -0.0098,-0.017 -0.0098,-0.0381 0,-0.021 -0.0048,-0.0381 -0.01085,-0.0381 -0.0064,0 -0.01085,0.0398 -0.01085,0.0977 0,0.0579 -0.0044,0.0977 -0.01085,0.0977 -0.0064,0 -0.01085,0.0409 -0.01085,0.1014 0,0.0588 -0.0068,0.1238 -0.01617,0.15465 -0.0089,0.0293 -0.01621,0.0688 -0.01628,0.088 -8.3e-5,0.0192 -0.005,0.0378 -0.01098,0.0414 -0.01366,0.008 -0.01439,0.15389 -7.52e-4,0.16228 0.01406,0.008 0.007,0.29264 -0.009,0.35864 -0.0072,0.0298 -0.01677,0.0787 -0.02125,0.10853 -0.01572,0.10443 -0.07578,0.17907 -0.144055,0.17907 -0.02533,0 -0.04192,0.006 -0.04594,0.0163 -0.0073,0.019 0.008,0.0651 0.025,0.0755 0.0062,0.004 0.01154,0.0136 0.01154,0.0216 0,0.0236 0.06107,0.0819 0.08575,0.0819 0.01251,0 0.02278,0.005 0.02278,0.011 0,0.006 0.008,0.011 0.01779,0.011 0.02299,0 0.04654,0.0313 0.04697,0.0624 3.07e-4,0.0217 -0.0049,0.0245 -0.0485,0.0245 -0.02686,0 -0.04883,0.005 -0.04883,0.011 0,0.007 -0.03776,0.011 -0.09161,0.011 -0.0504,0 -0.09462,-0.005 -0.09832,-0.011 -0.004,-0.007 -0.06715,-0.011 -0.152922,-0.011 -0.128529,0 -0.147083,-0.002 -0.153409,-0.0187 -0.004,-0.0104 -0.01845,-0.0291 -0.03222,-0.0419 -0.01376,-0.0127 -0.02502,-0.0287 -0.02502,-0.0355 0,-0.007 -0.0048,-0.0123 -0.01085,-0.0123 -0.0059,0 -0.01085,-0.0213 -0.01085,-0.0473 0,-0.026 -0.0053,-0.0626 -0.012,-0.0816 -0.0091,-0.0261 -0.0088,-0.0384 0.0014,-0.0504 0.009,-0.0109 0.0098,-0.0205 0.0025,-0.0296 -0.0059,-0.007 -0.01389,-0.027 -0.01781,-0.0434 -0.004,-0.0163 -0.01192,-0.0298 -0.01777,-0.0298 -0.0058,0 -0.01064,-0.0102 -0.01064,-0.0217 0,-0.012 -0.0044,-0.0217 -0.0097,-0.0217 -0.0132,0 -0.02327,-0.0277 -0.03355,-0.0923 -0.0084,-0.0528 -0.02591,-0.11072 -0.04504,-0.14907 -0.01284,-0.0257 -0.01189,-0.0923 0.0015,-0.10059 0.0059,-0.004 0.01085,-0.0164 0.01085,-0.0284 0,-0.012 0.008,-0.0298 0.01773,-0.0395 0.01515,-0.015 0.01644,-0.0313 0.0089,-0.11046 -0.011,-0.11508 -0.0066,-0.41419 0.0077,-0.516 0.0058,-0.0418 0.0133,-0.11748 0.01662,-0.16822 0.0032,-0.0506 0.0096,-0.0971 0.01414,-0.1031 0.01378,-0.0183 0.02065,-0.1681 0.01292,-0.28218 l -0.0074,-0.10852 -0.03799,-0.007 c -0.08144,-0.0137 -0.08683,-0.0184 -0.08683,-0.0766 0,-0.0294 0.0074,-0.0647 0.01646,-0.0785 0.01385,-0.0212 0.01601,-0.0702 0.01357,-0.31046 -0.0027,-0.27252 -0.004,-0.28588 -0.02459,-0.29736 -0.01195,-0.007 -0.02415,-0.0146 -0.02713,-0.0179 -0.0029,-0.003 -0.02142,-0.017 -0.04097,-0.0307 -0.04666,-0.0325 -0.143543,-0.18653 -0.143543,-0.22811 0,-0.007 -0.0048,-0.012 -0.01085,-0.012 -0.0059,0 -0.01085,-0.0144 -0.01085,-0.0319 0,-0.0176 -0.0048,-0.035 -0.01085,-0.0387 -0.006,-0.004 -0.01085,-0.0157 -0.01085,-0.0269 0,-0.0112 -0.0069,-0.034 -0.01529,-0.051 -0.04266,-0.0858 -0.04395,-0.0908 -0.02944,-0.11406 0.01005,-0.0159 0.01061,-0.0257 0.0022,-0.0341 -0.0064,-0.007 -0.01174,-0.022 -0.01174,-0.0346 0,-0.0327 -0.0207,-0.0488 -0.06293,-0.0488 -0.03945,0 -0.110711,-0.0287 -0.110711,-0.0447 0,-0.006 -0.0066,-0.009 -0.0147,-0.009 -0.0165,0 -0.05094,-0.0319 -0.09926,-0.0922 -0.01792,-0.0223 -0.04596,-0.0556 -0.06236,-0.0743 -0.03669,-0.0415 -0.0457,-0.0858 -0.03624,-0.1782 0.0064,-0.0635 0.0054,-0.0696 -0.0094,-0.0572 -0.0092,0.008 -0.01677,0.0197 -0.01677,0.0265 0,0.007 -0.0097,0.0197 -0.0217,0.0282 -0.01195,0.008 -0.0217,0.0209 -0.0217,0.0273 0,0.007 -0.01709,0.0298 -0.03799,0.052 -0.02089,0.0221 -0.03799,0.0429 -0.03799,0.0464 0,0.006 -0.02176,0.0362 -0.06795,0.0968 -0.0045,0.006 -0.01833,0.0243 -0.03063,0.0407 -0.03048,0.0407 -0.07952,0.0407 -0.114487,0 -0.02588,-0.03 -0.03628,-0.10038 -0.01483,-0.10038 0.006,0 0.01085,-0.006 0.01085,-0.0117 0,-0.007 0.006,-0.018 0.01357,-0.026 0.0075,-0.008 0.02334,-0.028 0.03527,-0.0448 0.0301,-0.0423 0.08515,-0.1068 0.09496,-0.11114 0.0044,-0.002 0.0081,-0.0108 0.0081,-0.0193 0,-0.008 0.0074,-0.0185 0.01628,-0.022 0.009,-0.003 0.01632,-0.0118 0.01636,-0.0187 4.2e-5,-0.007 0.01714,-0.0303 0.03799,-0.0524 0.02085,-0.022 0.0379,-0.0427 0.0379,-0.046 0,-0.006 0.03395,-0.048 0.0624,-0.0775 0.0075,-0.008 0.01357,-0.0171 0.01357,-0.0207 0,-0.004 0.0122,-0.0199 0.02712,-0.0359 0.01493,-0.0161 0.02713,-0.0378 0.02713,-0.048 0,-0.0175 -0.03135,-0.0942 -0.04341,-0.10629 -0.0059,-0.006 -0.02671,-0.0415 -0.05347,-0.0917 -0.0094,-0.0176 -0.02556,-0.0416 -0.03593,-0.0535 -0.01038,-0.0119 -0.02169,-0.0305 -0.02514,-0.0414 -0.0035,-0.011 -0.0098,-0.0198 -0.01413,-0.0198 -0.0043,0 -0.02211,-0.0245 -0.03954,-0.0542 -0.01743,-0.0298 -0.03495,-0.0543 -0.03894,-0.0543 -0.004,0 -0.01344,-0.0149 -0.02099,-0.0332 -0.01033,-0.0249 -0.01064,-0.0363 -0.0014,-0.0455 0.02223,-0.0222 0.01444,-0.0828 -0.01472,-0.11425 -0.01493,-0.016 -0.02712,-0.0331 -0.02712,-0.0376 0,-0.0114 -0.07909,-0.0895 -0.113023,-0.11173 -0.0152,-0.0103 -0.03831,-0.0395 -0.05134,-0.0656 -0.01303,-0.0262 -0.04484,-0.0708 -0.07071,-0.0993 -0.02586,-0.0284 -0.04703,-0.0568 -0.04706,-0.063 -2.6e-5,-0.007 -0.0098,-0.0182 -0.02175,-0.0268 -0.02586,-0.0186 -0.02955,-0.0805 -0.0062,-0.10387 0.0085,-0.008 0.03448,-0.0155 0.05765,-0.0155 0.03268,0 0.04917,0.007 0.07335,0.0327 0.01716,0.0179 0.03907,0.0326 0.0487,0.0326 0.02627,0 0.04355,0.0224 0.04355,0.0564 0,0.0168 0.0048,0.0304 0.01085,0.0304 0.006,0 0.01085,0.007 0.01085,0.0139 0,0.008 0.0097,0.021 0.0217,0.0295 0.01195,0.008 0.0217,0.021 0.0217,0.0275 0,0.007 0.02479,0.0381 0.05509,0.0699 0.0303,0.0319 0.06814,0.0756 0.08411,0.0968 0.01597,0.0214 0.04001,0.0501 0.05345,0.0639 0.01343,0.0137 0.02441,0.0284 0.02441,0.0328 0,0.004 0.03154,0.041 0.07009,0.0817 0.03855,0.0407 0.07306,0.0833 0.07671,0.0949 0.0037,0.0114 0.01118,0.0209 0.01674,0.0209 0.0056,0 0.01015,0.005 0.01015,0.0105 0,0.006 0.03907,0.0503 0.08682,0.0989 0.04776,0.0487 0.08683,0.092 0.08683,0.0964 0,0.007 0.01208,0.0233 0.05543,0.0729 0.02808,0.032 0.05978,0.0551 0.08721,0.0635 0.01408,0.004 0.03381,0.015 0.04389,0.0238 0.02371,0.0209 0.03787,0.0113 0.04737,-0.032 0.0092,-0.0418 0.04998,-0.10862 0.09047,-0.14822 0.01618,-0.0158 0.04051,-0.0517 0.05407,-0.0797 0.01355,-0.028 0.05114,-0.0788 0.08352,-0.11267 0.05225,-0.0548 0.08042,-0.10841 0.08062,-0.15342 3.3e-5,-0.007 0.0049,-0.0136 0.01091,-0.0136 0.0059,0 0.01085,-0.006 0.01085,-0.0124 0,-0.0166 0.03352,-0.0411 0.05697,-0.0415 0.01043,-1.5e-4 0.01899,-0.004 0.01899,-0.009 0,-0.005 0.01709,-0.0148 0.03799,-0.0224 0.02925,-0.0107 0.03799,-0.0197 0.03799,-0.0401 0,-0.0146 0.0048,-0.0265 0.01076,-0.0265 0.0059,0 0.04606,-0.0342 0.08918,-0.076 0.04314,-0.0418 0.08392,-0.076 0.09064,-0.076 0.0066,0 0.02077,-0.009 0.03118,-0.021 0.01672,-0.0184 0.01729,-0.0258 0.0048,-0.0624 -0.0077,-0.0229 -0.01929,-0.0464 -0.0257,-0.0523 -0.02494,-0.0232 -0.115925,-0.14975 -0.125172,-0.17408 -0.01005,-0.0263 0.0046,-0.13423 0.02308,-0.17035 0.0053,-0.0105 0.0096,-0.0333 0.0096,-0.051 0,-0.0177 0.0048,-0.0351 0.01085,-0.0387 0.006,-0.004 0.01085,-0.016 0.01085,-0.0274 0,-0.0264 0.03226,-0.0965 0.05697,-0.12387 0.01044,-0.0116 0.01898,-0.026 0.01898,-0.0319 0,-0.0149 0.09991,-0.10433 0.116669,-0.10439 0.0075,-2e-5 0.01357,-0.005 0.01357,-0.011 0,-0.006 0.0118,-0.0109 0.02623,-0.0109 0.01442,0 0.02808,-0.006 0.03034,-0.0123 0.005,-0.0152 0.225264,-0.0155 0.254602,-3e-4 0.01091,0.006 0.03869,0.0195 0.06172,0.0303 0.05359,0.0258 0.117408,0.0979 0.157247,0.17768 0.01721,0.0345 0.04368,0.0791 0.05881,0.0992 0.06572,0.0871 0.05863,0.19223 -0.0176,0.26144 -0.02,0.0181 -0.03515,0.0673 -0.047,0.15215 -0.003,0.0224 -0.01005,0.0407 -0.0154,0.0407 -0.0053,0 -0.0097,0.0336 -0.0097,0.0746 0,0.0719 -0.0014,0.0758 -0.03799,0.10703 -0.02089,0.0178 -0.03786,0.0392 -0.03771,0.0475 1.52e-4,0.008 0.038,0.0379 0.08411,0.0659 0.04611,0.028 0.100539,0.0658 0.120955,0.084 0.02041,0.0183 0.05094,0.0394 0.06783,0.0468 0.01689,0.007 0.03071,0.0173 0.03071,0.0218 0,0.004 0.0062,0.008 0.01385,0.008 0.02822,0 0.170632,0.19126 0.170632,0.22917 0,0.0113 0.0037,0.0206 0.0081,0.0206 0.0044,8e-5 0.01723,0.0209 0.02832,0.0462 0.01109,0.0253 0.02453,0.0544 0.02984,0.0649 0.0053,0.0105 0.0096,0.0263 0.0096,0.0353 0,0.008 0.0037,0.0164 0.0081,0.0164 0.0044,0 0.01718,0.0305 0.02822,0.0677 0.01103,0.0373 0.02446,0.0763 0.02984,0.0867 0.0053,0.0105 0.0097,0.0284 0.0097,0.04 0,0.0117 0.0044,0.0239 0.0097,0.0272 0.01229,0.008 0.02147,0.0681 0.03217,0.21233 0.0046,0.0627 0.01365,0.12373 0.02001,0.13566 0.03041,0.0571 0.06834,0.16827 0.06834,0.20026 0,0.0113 0.0047,0.022 0.01057,0.0241 0.0058,0.002 0.01159,0.0563 0.01285,0.12088 0.0012,0.0646 0.0062,0.11973 0.01113,0.12274 0.0048,0.003 0.0089,0.0163 0.0089,0.0299 0,0.0134 0.0072,0.034 0.01594,0.0455 0.0088,0.0116 0.01609,0.0415 0.01628,0.0665 1.53e-4,0.025 0.0052,0.0485 0.01119,0.0523 0.01413,0.008 0.01413,0.0998 0,0.10852 -0.0059,0.004 -0.01085,0.0186 -0.01085,0.0333 0,0.0146 -0.0045,0.0266 -0.01015,0.0266 -0.01714,0 -0.02431,0.0414 -0.01138,0.0656 0.0068,0.0127 0.01428,0.0429 0.01671,0.0675 0.0024,0.0246 0.0094,0.0496 0.01547,0.0557 0.006,0.007 0.01102,0.0561 0.01102,0.11124 0,0.0551 0.0047,0.11277 0.0106,0.12811 0.01411,0.0371 -0.0028,0.0728 -0.04679,0.0986 -0.03834,0.0225 -0.05057,0.0343 -0.068,0.0653 -0.0066,0.0117 -0.02489,0.0228 -0.0407,0.0248 -0.02378,0.002 -0.02876,0.008 -0.02876,0.0352 0,0.0175 0.0048,0.0318 0.01085,0.0318 0.0059,0 0.01085,0.022 0.01085,0.0488 0,0.0268 0.0048,0.0488 0.01085,0.0488 0.006,0 0.01085,0.0143 0.01085,0.0318 0,0.0175 0.0052,0.0454 0.01146,0.062 0.01266,0.0334 0.0054,0.0798 -0.01242,0.0798 -0.02052,0 -0.04244,0.0303 -0.04244,0.0589 0,0.0153 0.0048,0.028 0.01085,0.028 0.0059,0 0.01085,0.0144 0.01085,0.0319 0,0.0176 0.0043,0.0346 0.0096,0.0379 0.0053,0.003 0.013,0.0239 0.01714,0.046 0.0072,0.0384 0.03738,0.11518 0.06327,0.16097 0.0068,0.012 0.01601,0.10694 0.02062,0.21164 0.01062,0.24188 0.01916,0.33642 0.03039,0.33642 0.0099,0 0.01769,0.0646 0.02995,0.25077 0.0052,0.0788 0.01378,0.13261 0.02297,0.14364 0.02003,0.0242 0.01184,0.16332 -0.01257,0.21336 -0.01084,0.0222 -0.03991,0.0515 -0.07009,0.0703 -0.08273,0.0521 -0.111257,0.0816 -0.111257,0.11592 0,0.0169 0.0048,0.0308 0.01085,0.0308 0.006,0 0.01085,0.007 0.01085,0.0163 0,0.0315 0.103027,0.16791 0.126907,0.16805 0.0048,3e-5 0.03693,0.0293 0.07136,0.0651 l 0.06261,0.0651 h 0.102389 c 0.131317,0 0.157672,0.0113 0.157672,0.0668 0,0.0298 -0.0046,0.0417 -0.01628,0.0417 -0.009,0 -0.01628,0.004 -0.01628,0.009 0,0.009 -0.03292,0.0235 -0.06623,0.0283 -0.0095,0.002 -0.03397,0.0112 -0.05426,0.0219 -0.06515,0.0343 -0.07055,0.0358 -0.08841,0.0258 -0.01093,-0.007 -0.02013,-0.006 -0.02436,8e-4 -0.0038,0.007 -0.02819,0.0111 -0.05434,0.0111 -0.02616,0 -0.05058,0.005 -0.05426,0.011 -0.0077,0.0126 -0.09553,0.0147 -0.107579,0.002 z m -1.764533,-3.11056 c 0,-0.0134 0.0049,-0.0293 0.01099,-0.0353 0.02672,-0.0266 0.0071,-0.17785 -0.02316,-0.17785 -0.0053,0 -0.0095,-0.007 -0.0095,-0.015 0,-0.008 -0.0073,-0.0289 -0.01621,-0.0461 -0.0089,-0.0171 -0.01624,-0.0392 -0.01628,-0.0492 -3.7e-5,-0.0103 -0.0038,-0.0197 -0.0082,-0.0217 -0.0044,-0.002 -0.0198,-0.0268 -0.03408,-0.0552 -0.02184,-0.0434 -0.03081,-0.0516 -0.05697,-0.0516 -0.01707,0 -0.03106,-0.005 -0.03106,-0.011 0,-0.006 -0.0037,-0.011 -0.0081,-0.011 -0.01168,-3e-5 -0.0033,0.22046 0.0089,0.23282 0.0056,0.006 0.01015,0.0231 0.01015,0.0389 0,0.0157 0.0032,0.0319 0.0074,0.0359 0.0041,0.004 0.01533,0.0305 0.02508,0.0588 0.01302,0.0378 0.02406,0.0524 0.04159,0.0548 0.01379,0.002 0.03133,0.018 0.04154,0.0381 0.02857,0.0556 0.05806,0.063 0.05806,0.0143 z m 0.140168,-0.74396 c 0.04679,-0.007 0.0473,-0.007 0.02131,-0.0206 -0.01464,-0.008 -0.03131,-0.0246 -0.03707,-0.0373 -0.01725,-0.0383 -0.03066,-0.0326 -0.06137,0.0254 l -0.0292,0.0552 0.0292,-0.008 c 0.01607,-0.004 0.05076,-0.0111 0.07712,-0.0146 z"
         id="path3-41-1"
         sodipodi:nodetypes="ccccccsscccsccscscscsccssssssssccscsccsssssssscsccsssccccssssscsccccccccscccccssscscccssssccccscscscccsscccscscscscscsssscscccscccsscscsssscscccsscsscscccssscssssscsssscccccscsssssscccscccsssssccssscssssccsccsscccsscccsssccscsscssssscsssscsscsscscssssscssssccccssccccsscsssssccscscccccccscccc" />
      <path
         style="fill:#000000;stroke-width:0.0448236"
         d="m 96.767329,-104.32604 c -0.06005,-0.0112 -0.138242,0.0737 -0.145172,0.0461 -0.0047,-0.0189 -0.01936,-0.0313 -0.04418,-0.0378 -0.03503,-0.009 -0.03805,-0.0145 -0.05334,-0.0941 -0.01577,-0.0819 -0.01539,-0.086 0.0119,-0.13566 0.01775,-0.0322 0.03776,-0.0525 0.0541,-0.0549 0.02823,-0.004 0.08664,-0.14069 0.07513,-0.17062 -0.0038,-0.0104 -0.02455,-0.0292 -0.04579,-0.0416 -0.0423,-0.0249 -0.07931,-0.0534 -0.121545,-0.0935 -0.027,-0.0256 -0.02757,-0.031 -0.02691,-0.24312 3.21e-4,-0.11934 0.0057,-0.24366 0.01218,-0.27628 0.03937,-0.20391 0.04909,-0.29497 0.05363,-0.50402 0.0028,-0.1272 0.0057,-0.24461 0.0066,-0.26092 9.45e-4,-0.0163 -0.0019,-0.0884 -0.0076,-0.1601 -0.0066,-0.0886 -0.0047,-0.14758 0.0047,-0.18382 0.04324,-0.16826 0.04862,-0.20716 0.03625,-0.26465 -0.0066,-0.0316 -0.0099,-0.0615 -0.0066,-0.0663 0.0028,-0.005 0.01076,-0.0418 0.01728,-0.0823 0.0085,-0.0551 0.0076,-0.0972 -0.0047,-0.16775 -0.02011,-0.11452 -0.02936,-0.13284 -0.08233,-0.16412 -0.02275,-0.0135 -0.04466,-0.0372 -0.04853,-0.0529 -0.0085,-0.0327 0.02445,-0.21862 0.04211,-0.2399 0.0066,-0.008 0.0219,-0.043 0.03418,-0.0782 0.01237,-0.0352 0.04957,-0.1173 0.0828,-0.18253 0.03323,-0.0652 0.06042,-0.12527 0.06052,-0.13341 1.04e-4,-0.008 0.0047,-0.0148 0.01114,-0.0148 0.0057,0 0.0169,-0.0181 0.02426,-0.0402 0.0076,-0.0221 0.02615,-0.0552 0.04192,-0.0735 0.02662,-0.0311 0.02813,-0.0397 0.02153,-0.12875 -0.0038,-0.0525 -0.0085,-0.0972 -0.0101,-0.0992 -0.0019,-0.002 -0.02483,0.002 -0.05155,0.009 -0.04013,0.0108 -0.05344,0.01 -0.07789,-0.007 -0.04928,-0.0323 -0.08875,-0.11882 -0.10761,-0.23568 -0.0095,-0.0592 -0.02322,-0.14223 -0.0304,-0.18463 -0.01227,-0.0723 -0.0096,-0.20202 0.0066,-0.338 0.0038,-0.0326 0.01463,-0.13416 0.0237,-0.22566 0.02087,-0.20984 0.0456,-0.27055 0.134357,-0.33031 0.06845,-0.0461 0.160084,-0.0901 0.239182,-0.11492 0.02927,-0.009 0.0626,-0.0261 0.07411,-0.0376 0.01152,-0.0115 0.03852,-0.0209 0.06005,-0.0209 0.0337,0 0.04116,-0.006 0.05363,-0.04 0.0076,-0.022 0.02729,-0.0539 0.04305,-0.0708 0.02502,-0.027 0.0271,-0.036 0.01699,-0.0727 -0.0066,-0.023 -0.02502,-0.0566 -0.04145,-0.0745 -0.01643,-0.0179 -0.03777,-0.0412 -0.04721,-0.0517 -0.04211,-0.0465 -0.03068,-0.24222 0.02379,-0.40728 0.02266,-0.0686 0.03248,-0.0839 0.05844,-0.0908 0.01718,-0.005 0.04947,-0.0196 0.07175,-0.0333 0.06798,-0.042 0.205081,-0.0747 0.336389,-0.0803 0.100387,-0.004 0.121554,-0.002 0.121554,0.012 0,0.009 0.01548,0.0235 0.03446,0.0314 0.03729,0.0154 0.04815,0.0404 0.04843,0.11102 9.4e-5,0.0249 0.0085,0.0533 0.01794,0.0631 0.0135,0.0135 0.01775,0.0468 0.01756,0.13851 -9.4e-5,0.0664 -0.0047,0.12827 -0.01086,0.13752 -0.0066,0.011 -0.0028,0.0313 0.01208,0.0591 0.02417,0.045 0.03021,0.11367 0.01114,0.12547 -0.0066,0.004 -0.01501,0.0336 -0.01935,0.0659 -0.0047,0.0324 -0.01246,0.0588 -0.01813,0.0588 -0.0057,0 -0.01038,0.0234 -0.01038,0.0519 0,0.0598 -0.01341,0.0751 -0.07119,0.0806 l -0.04145,0.004 0.04154,0.0268 c 0.02285,0.0147 0.05485,0.0302 0.07119,0.0344 0.01633,0.004 0.03229,0.0108 0.03559,0.0147 0.0028,0.004 0.04249,0.0168 0.08724,0.0284 0.06005,0.0157 0.08903,0.0303 0.110669,0.0561 0.02464,0.0293 0.03314,0.0329 0.05315,0.0221 0.01728,-0.009 0.0219,-0.0203 0.0168,-0.0405 -0.0057,-0.024 -9.44e-4,-0.0296 0.03748,-0.0415 0.06231,-0.0194 0.119261,-0.0459 0.127682,-0.0595 0.01161,-0.0189 0.06505,-0.0137 0.06505,0.007 0,0.0296 0.03729,0.0207 0.171961,-0.0409 0.152465,-0.0698 0.18195,-0.0823 0.221423,-0.0948 0.02389,-0.008 0.04966,-0.0212 0.05712,-0.0302 0.0076,-0.009 0.03059,-0.0199 0.05136,-0.0243 0.02077,-0.005 0.0591,-0.0175 0.08516,-0.0293 0.02606,-0.0118 0.07676,-0.0346 0.112661,-0.0508 0.03588,-0.0161 0.105259,-0.0484 0.154183,-0.0716 0.04891,-0.0232 0.103617,-0.0458 0.121555,-0.0501 0.01794,-0.005 0.03257,-0.0126 0.03257,-0.0185 0,-0.006 0.0085,-0.0106 0.01813,-0.0106 0.02719,0 0.03427,-0.0323 0.01199,-0.0546 -0.01076,-0.0108 -0.01794,-0.0309 -0.01596,-0.0447 0.0066,-0.0456 0.06769,-0.0237 0.102588,0.0368 0.0066,0.0111 0.02587,0.008 0.08252,-0.0107 0.0727,-0.0248 0.0744,-0.0248 0.0912,-0.003 0.01973,0.0261 0.03522,0.093 0.02521,0.10911 -0.0038,0.006 -0.03097,0.0178 -0.06042,0.0261 -0.02955,0.008 -0.05362,0.0186 -0.05362,0.0229 0,0.005 -0.02002,0.0149 -0.04447,0.0234 -0.02445,0.008 -0.0658,0.0253 -0.09196,0.0373 -0.141221,0.0647 -0.24227,0.10618 -0.258593,0.10618 -0.0101,0 -0.02549,0.007 -0.03408,0.015 -0.0085,0.008 -0.03833,0.0251 -0.06609,0.0374 -0.03739,0.0165 -0.05042,0.0291 -0.05042,0.0486 0,0.0329 -0.03805,0.0821 -0.08034,0.10402 -0.05334,0.0276 -0.113143,0.0612 -0.126502,0.0711 -0.0066,0.005 -0.02247,0.0161 -0.03465,0.0246 -0.02143,0.0148 -0.02143,0.0166 0.0019,0.0631 0.02389,0.0468 0.03673,0.1049 0.044,0.19961 0.0057,0.0742 -0.0047,0.10801 -0.03758,0.12305 -0.02464,0.0112 -0.0287,0.0194 -0.02294,0.0461 0.0038,0.0178 0.0019,0.0497 -0.0038,0.0707 -0.0094,0.0324 -0.0066,0.0451 0.01945,0.083 0.0457,0.0668 0.04192,0.12575 -0.01265,0.19718 -0.02549,0.0334 -0.04352,0.0703 -0.04352,0.0893 0,0.0178 -0.0102,0.0788 -0.02266,0.13579 -0.02011,0.092 -0.02795,0.10869 -0.0709,0.15031 -0.02653,0.0258 -0.06184,0.0502 -0.07836,0.0544 -0.03399,0.008 -0.242808,-0.0235 -0.253854,-0.039 -0.0038,-0.006 -0.022,-0.0165 -0.04013,-0.0245 -0.01813,-0.008 -0.03606,-0.0226 -0.03984,-0.0324 -0.0038,-0.01 -0.01388,-0.0179 -0.02238,-0.0179 -0.0085,0 -0.02266,-0.016 -0.03125,-0.0356 -0.0085,-0.0195 -0.01907,-0.0356 -0.02313,-0.0356 -0.0038,0 -0.0168,-0.0253 -0.02842,-0.0564 -0.01161,-0.031 -0.02832,-0.0648 -0.0372,-0.0751 -0.0085,-0.0103 -0.01614,-0.0259 -0.01614,-0.0345 0,-0.009 -0.0028,-0.0128 -0.0066,-0.009 -0.0098,0.01 0.01747,0.1962 0.03795,0.25933 0.01681,0.0517 0.01633,0.0571 -0.0085,0.10542 -0.01463,0.028 -0.03625,0.0534 -0.04824,0.0566 -0.01813,0.005 -0.02162,0.018 -0.02162,0.0818 0,0.0889 0.0076,0.10337 0.113945,0.21165 0.04173,0.0425 0.07581,0.0853 0.07581,0.095 0,0.01 0.0047,0.0177 0.01076,0.0177 0.01558,0 0.06354,0.1038 0.05466,0.11826 -0.0038,0.007 -0.01765,0.0122 -0.03012,0.0122 -0.02219,0 -0.02219,9.5e-4 -4.73e-4,0.0516 0.01218,0.0284 0.04503,0.0991 0.07307,0.15714 0.0474,0.0981 0.05089,0.11209 0.05004,0.19969 -9.44e-4,0.0977 -0.0019,0.10053 -0.06628,0.14299 -0.01992,0.0132 -0.01407,0.0903 0.02068,0.27277 0.0099,0.0522 0.03182,0.18561 0.04853,0.29649 0.01681,0.11089 0.03522,0.2105 0.04097,0.22134 0.01718,0.0324 0.03682,0.31225 0.03399,0.48405 -0.0028,0.15723 0.0066,0.26725 0.02549,0.29082 0.0047,0.007 0.01784,0.0546 0.02832,0.10674 0.01038,0.0522 0.03163,0.1269 0.04711,0.16603 0.05466,0.13843 0.0608,0.16795 0.07326,0.35235 l 0.0085,0.127 -0.07081,0.0693 -0.131336,0.10521 0.04522,0.0475 c 0.03021,0.0317 0.06193,0.0527 0.09563,0.0632 0.09262,0.0287 0.106931,0.0544 0.100624,0.17982 -0.0028,0.0527 -0.0038,0.0551 -0.04305,0.0707 -0.0641,0.0256 -0.287145,0.12836 -0.377544,0.0924 -0.04305,-0.0171 -0.08837,-0.0381 -0.100737,-0.0465 -0.01888,-0.0128 -0.02728,-0.01 -0.05221,0.0201 -0.03314,0.0396 0.09677,-0.0693 -0.06462,-0.12308 -0.05259,-0.0176 -0.09883,-0.0377 -0.10272,-0.0448 -0.0085,-0.015 0.02785,-0.23765 0.04787,-0.29534 0.0076,-0.0216 0.01473,-0.0447 0.01624,-0.0515 0.0028,-0.0128 8.02e-4,0.0583 -0.08629,0.0277 -0.11368,-0.04 -0.12061,-0.0665 -0.120705,-0.46011 -3.7e-5,-0.20498 -0.0038,-0.27728 -0.01529,-0.29112 -0.01001,-0.0121 -0.01529,-0.0561 -0.01529,-0.12846 0,-0.10312 -0.0019,-0.11214 -0.03172,-0.14345 -0.02795,-0.0294 -0.03257,-0.0456 -0.03795,-0.13422 -0.0076,-0.12758 -0.01539,-0.20517 -0.02644,-0.27277 -0.0094,-0.0566 -0.0094,-0.0556 -0.01907,-0.083 -0.0038,-0.01 -0.01548,-0.0525 -0.02653,-0.0949 -0.01095,-0.0424 -0.04324,-0.12594 -0.07175,-0.18566 -0.02842,-0.0598 -0.05835,-0.13177 -0.06637,-0.16011 -0.0085,-0.0283 -0.01907,-0.0566 -0.02455,-0.0628 -0.0057,-0.007 -0.0099,-0.0218 -0.0099,-0.0346 0,-0.0128 -0.0038,-0.0198 -0.0076,-0.0156 -0.0047,0.004 -0.01209,0.0545 -0.01728,0.11168 -0.01784,0.19386 -0.03153,0.2936 -0.04475,0.32708 -0.0076,0.0187 -0.01322,0.10354 -0.01322,0.19249 0,0.12045 -0.0047,0.17102 -0.01964,0.2082 -0.01548,0.0388 -0.01699,0.0569 -0.0066,0.0862 0.02577,0.075 0.02823,0.12203 0.03031,0.57414 l 0.0019,0.46097 -0.03559,0.0423 c -0.03257,0.0387 -0.04503,0.0441 -0.146263,0.063 -0.06108,0.0114 -0.113246,0.0274 -0.116418,0.0356 -0.0028,0.008 3.21e-4,0.0542 0.0076,0.10219 0.02436,0.15806 0.02634,0.18842 0.0136,0.20374 -0.0066,0.009 -0.01624,0.0379 -0.02068,0.0657 -0.0057,0.0337 -0.01709,0.0565 -0.03522,0.0683 -0.02823,0.0185 -0.13195,0.0302 -0.183102,0.0207 z m 0.806454,-3.14722 c 0,-0.007 -0.0019,-0.0119 -0.0057,-0.0119 -0.0028,0 -0.0085,0.006 -0.01256,0.0119 -0.0038,0.007 -0.0019,0.0119 0.0057,0.0119 0.0066,0 0.01256,-0.006 0.01256,-0.0119 z m 0.762883,-1.77902 c 0.0076,-4e-5 0.02313,-0.0163 0.03446,-0.0362 l 0.02058,-0.0362 -0.04749,-0.048 c -0.05164,-0.0522 -0.07421,-0.0542 -0.129051,-0.0114 -0.02814,0.0219 -0.02832,0.0231 -0.0085,0.0641 0.01086,0.0229 0.01983,0.0476 0.01983,0.0548 0,0.008 0.0057,0.013 0.0119,0.013 0.0066,0 0.0119,0.0138 0.0119,0.0307 v 0.0307 l 0.03644,-0.0307 c 0.02011,-0.0169 0.04277,-0.0308 0.05042,-0.0308 z"
         id="path3-4-1-2"
         sodipodi:nodetypes="csssscsssssssssssssssssscsssssssssssssssssssssssssssscscssssscsscsssssssssssssssssssssssssssssssssssssccsssssssscsssssscssssssssssssssssssssscccssssssscsscssssssssssssscsssssscssscsssccsscsscscsssssscssc" />
      <path
         id="path1-8-2-8"
         style="fill:#000000;stroke-width:0.0428396"
         d="m 94.972194,-110.69295 c -0.01898,-4.8e-4 -0.02544,0.003 -0.02636,0.0108 -0.001,0.01 -0.0193,0.0227 -0.0403,0.0284 -0.0412,0.0112 -0.05593,0.0359 -0.06563,0.11007 -0.003,0.0262 -0.01568,0.0551 -0.02688,0.0641 -0.016,0.0124 -0.02479,0.0468 -0.03669,0.14315 -0.009,0.0698 -0.01223,0.13519 -0.0072,0.14572 0.005,0.0125 -0.0012,0.0333 -0.02067,0.0605 -0.0314,0.0441 -0.04641,0.11582 -0.02791,0.13075 0.006,0.005 0.01107,0.0368 0.01137,0.0713 6.7e-4,0.0347 0.0051,0.0639 0.01137,0.0646 0.006,7.5e-4 0.0081,0.0259 0.0041,0.0558 -0.0073,0.0575 0.0024,0.0772 0.05012,0.0904 -0.01146,0.005 -0.02088,0.01 -0.03307,0.0155 -0.0053,0.0125 -0.01357,0.0351 -0.01757,0.0506 -0.0044,0.0156 -0.01209,0.0321 -0.01809,0.0351 -0.0057,0.004 -0.01206,0.0197 -0.01292,0.0357 -0.0014,0.0178 -0.02236,0.0482 -0.05426,0.0786 -0.0826,0.0784 -0.18035,0.25731 -0.18035,0.33021 0,0.023 -0.0054,0.0419 -0.01137,0.0419 -0.0063,0 -0.01137,0.008 -0.01137,0.017 0,0.009 -0.01033,0.026 -0.02273,0.0367 -0.0124,0.0107 -0.02222,0.0261 -0.02222,0.0341 0,0.007 -0.0043,0.0145 -0.0093,0.0145 -0.0052,0 -0.02944,0.0395 -0.05374,0.0878 -0.0244,0.0483 -0.0576,0.10781 -0.0739,0.13281 -0.0164,0.0249 -0.0332,0.0598 -0.0372,0.0775 -0.01011,0.042 -0.05599,0.11548 -0.10749,0.17208 -0.0616,0.0678 -0.07103,0.0912 -0.07803,0.19017 -0.0055,0.0806 -0.0031,0.0968 0.02119,0.14315 0.0151,0.0287 0.03062,0.0549 0.03462,0.0579 0.0043,0.003 0.01098,0.0186 0.01498,0.0341 0.0047,0.0187 0.02308,0.0355 0.05478,0.0501 0.0262,0.0121 0.05585,0.026 0.06615,0.031 0.0124,0.006 0.03288,-0.001 0.06098,-0.0202 0.0422,-0.0286 0.08322,-0.03 0.06562,-0.002 -0.0085,0.0134 -0.02984,0.0855 -0.05994,0.20154 -0.0073,0.028 -0.01825,0.0592 -0.02325,0.0692 -0.0054,0.0101 -0.01357,0.0378 -0.01757,0.062 -0.0044,0.0241 -0.01154,0.0493 -0.01654,0.0553 -0.0048,0.006 -0.01305,0.032 -0.01705,0.0569 -0.0045,0.0249 -0.01309,0.0509 -0.01809,0.0579 -0.0053,0.007 -0.01153,0.0356 -0.0124,0.0636 -0.0025,0.0581 0.01894,0.0884 0.06304,0.0884 0.033,0 0.04463,0.0235 0.03463,0.0749 -0.0129,0.0685 0.0035,0.10858 0.06252,0.15348 0.0608,0.0463 0.05077,0.009 0.08527,0.31523 0.0081,0.0717 0.02609,0.17903 0.03979,0.23823 0.0478,0.20623 0.0577,0.27907 0.0677,0.48472 0.0064,0.13848 0.01377,0.21258 0.02377,0.22428 0.0152,0.0193 0.0181,0.14178 0.0031,0.16588 -0.0124,0.0201 -0.01322,0.0265 -0.02222,0.19379 -0.0043,0.0797 -0.01257,0.14789 -0.01757,0.15089 -0.0179,0.0111 -0.01122,0.18004 0.0088,0.22014 0.03136,0.0629 0.10942,0.12445 0.15762,0.12454 0.0128,0 0.03337,0.008 0.04547,0.0165 0.0121,0.009 0.03053,0.0168 0.04083,0.017 0.0199,5e-4 0.03203,0.0229 0.03203,0.0579 0,0.0118 -0.02285,0.0456 -0.05115,0.0754 -0.0283,0.0297 -0.0587,0.0675 -0.0677,0.0837 -0.02039,0.0376 -0.05922,0.0629 -0.11162,0.0729 -0.0227,0.004 -0.04134,0.0131 -0.04134,0.0181 0,0.006 -0.0054,0.01 -0.01241,0.01 -0.0069,0 -0.03749,0.0207 -0.06769,0.046 -0.0573,0.048 -0.08992,0.0988 -0.08992,0.14056 0,0.031 0.04107,0.0699 0.08527,0.0806 0.0187,0.005 0.03627,0.012 0.03927,0.016 0.0097,0.013 0.12158,0.0455 0.15658,0.0455 0.06264,0 0.16361,-0.0417 0.23461,-0.0972 0.04351,-0.0335 0.04984,-0.0356 0.15348,-0.0357 0.05949,0 0.11911,-0.004 0.13281,-0.008 0.033,-0.0104 0.06514,-0.0769 0.05064,-0.10491 -0.0059,-0.0114 -0.01405,-0.0739 -0.01705,-0.13849 -0.0034,-0.0646 -0.0116,-0.12271 -0.0186,-0.12971 -0.0073,-0.007 -0.01241,-0.0349 -0.01241,-0.0625 0,-0.0414 0.0071,-0.0579 0.03979,-0.0941 0.0218,-0.0241 0.0398,-0.052 0.0398,-0.061 0,-0.009 0.0048,-0.017 0.0098,-0.017 0.0185,0 0.08393,-0.14715 0.07183,-0.16175 -0.0231,-0.0279 -0.02798,-0.11818 -0.0088,-0.15658 0.0211,-0.0412 0.02355,-0.0805 0.0078,-0.10955 -0.0058,-0.0108 -0.01457,-0.0386 -0.01757,-0.062 -0.0038,-0.0234 -0.01154,-0.0424 -0.01654,-0.0424 -0.0054,0 -0.01357,-0.0272 -0.01757,-0.0599 -0.0044,-0.0328 -0.01418,-0.0665 -0.02118,-0.0755 -0.0082,-0.01 -0.0131,-0.068 -0.01396,-0.14728 -10e-4,-0.0723 -0.0063,-0.15948 -0.01033,-0.19378 -0.0067,-0.0551 -0.0055,-0.0598 0.0083,-0.0398 0.0231,0.0334 0.06231,0.17179 0.07131,0.24649 0.004,0.0358 0.01154,0.0678 0.01654,0.0708 0.0051,0.003 0.01357,0.0432 0.01757,0.0884 0.0045,0.0453 0.01253,0.0875 0.01653,0.0935 0.0047,0.006 0.01199,0.0408 0.01499,0.077 0.0035,0.0362 0.01212,0.0726 0.01912,0.0816 0.007,0.008 0.01612,0.0709 0.01912,0.13901 0.0053,0.1015 0.0034,0.13063 -0.01189,0.16123 -0.0201,0.0409 -0.02523,0.12454 -0.0072,0.12454 0.0063,0 0.01137,0.007 0.01137,0.0155 0,0.008 0.008,0.022 0.01705,0.03 0.0259,0.0215 0.02018,0.0589 -0.01292,0.0853 -0.0187,0.0149 -0.02945,0.0349 -0.02945,0.0537 0,0.0426 0.05977,0.0985 0.11317,0.10646 0.06394,0.009 0.1049,0.0293 0.1049,0.0517 0,0.0109 0.0054,0.0202 0.01137,0.0202 0.0063,0 0.01137,0.008 0.01137,0.017 0,0.009 -0.0043,0.017 -0.01034,0.017 -0.0057,0 -0.01408,0.0154 -0.01808,0.0341 -0.0041,0.0187 -0.01206,0.0336 -0.01706,0.0336 -0.0053,0 -0.01357,0.0332 -0.01757,0.0734 -0.0063,0.0592 -0.01452,0.0814 -0.04392,0.11627 -0.02,0.0238 -0.05276,0.0724 -0.07286,0.10852 -0.032,0.0583 -0.03594,0.0719 -0.02894,0.12247 0.0083,0.0621 0.05148,0.11813 0.09818,0.12713 v 5.1e-4 c 0.01397,0.003 0.07606,0.005 0.13746,0.006 0.16594,0.002 0.1946,-0.0162 0.2837,-0.18294 l 0.04083,-0.0765 -0.0062,-0.19947 -0.0057,-0.19947 0.04238,-0.0357 c 0.13055,-0.10937 0.17311,-0.17201 0.17311,-0.25321 0,-0.0532 -0.02761,-0.15265 -0.05271,-0.18965 -0.0214,-0.0317 -0.01839,-0.0562 0.0093,-0.0811 0.0211,-0.0196 0.02308,-0.0298 0.01808,-0.10956 -0.0032,-0.0486 -0.01105,-0.0938 -0.01705,-0.1018 -0.0059,-0.008 -0.01409,-0.0963 -0.01809,-0.19689 -0.0046,-0.11864 -0.01222,-0.19319 -0.02222,-0.21239 -0.01669,-0.0322 -0.08884,-0.10414 -0.11214,-0.11214 -0.0117,-0.004 -0.0114,-0.0121 0,-0.0439 0.0157,-0.0449 0.01912,-0.34985 0.0036,-0.34985 -0.0052,0 -0.01357,-0.0724 -0.01757,-0.16123 -0.0098,-0.191 -0.01429,-0.24372 -0.02429,-0.27802 -0.005,-0.0155 -0.0033,-0.0253 0.0046,-0.0253 0.01744,0 0.01699,-0.13003 -5.1e-4,-0.15813 -0.01063,-0.0166 -0.01104,-0.0282 -0.001,-0.0481 0.0072,-0.0144 0.01667,-0.0477 0.02067,-0.0739 0.0066,-0.043 0.0102,-0.0476 0.0429,-0.0506 0.0306,-0.003 0.03812,-0.0102 0.05012,-0.047 0.0077,-0.0239 0.01767,-0.1029 0.02067,-0.1757 0.0035,-0.0727 0.01154,-0.14263 0.01654,-0.15503 0.0055,-0.0125 0.01519,-0.0863 0.02119,-0.16433 0.0064,-0.0779 0.01725,-0.18749 0.02325,-0.24339 0.0076,-0.0659 0.0075,-0.12949 5.2e-4,-0.18139 -0.0302,-0.22279 -0.03803,-0.26665 -0.04703,-0.26665 -0.006,0 -0.0098,-0.0193 -0.0098,-0.0429 0,-0.0236 -0.008,-0.0708 -0.01705,-0.1049 -0.0095,-0.034 -0.02139,-0.0877 -0.02739,-0.11886 -0.0057,-0.0312 -0.01842,-0.0717 -0.02842,-0.0904 -0.01,-0.0191 -0.01752,-0.062 -0.01757,-0.0977 0,-0.0349 -0.008,-0.0785 -0.01705,-0.0971 -0.0098,-0.0198 -0.01585,-0.0594 -0.01499,-0.0951 0.0018,-0.0532 -0.0037,-0.0708 -0.04237,-0.13435 -0.0244,-0.0402 -0.06622,-0.0967 -0.09302,-0.12506 -0.0269,-0.0283 -0.05848,-0.0615 -0.07028,-0.0739 -0.0317,-0.0334 -0.05498,-0.0512 -0.06718,-0.0512 -0.0059,0 -0.03641,-0.0205 -0.06821,-0.0455 -0.0379,-0.03 -0.05815,-0.0542 -0.0584,-0.0708 -2e-4,-0.0139 -0.01012,-0.0458 -0.02222,-0.0708 -0.04963,1.5e-4 -0.08967,-0.003 -0.12557,-0.007 3.4e-4,-0.002 8.7e-4,-0.004 5.1e-4,-0.005 -0.005,-0.0241 -0.02177,-0.0603 -0.03617,-0.0801 -0.0227,-0.0317 -0.02345,-0.0413 -0.0078,-0.0785 0.01,-0.0233 0.03363,-0.0562 0.05323,-0.0729 0.0196,-0.0167 0.04492,-0.0383 0.05632,-0.0481 0.0504,-0.0432 0.06434,-0.2503 0.02894,-0.43098 -0.0147,-0.075 -0.02269,-0.0927 -0.04909,-0.10335 -0.0174,-0.007 -0.04971,-0.0271 -0.07131,-0.0444 -0.0659,-0.0531 -0.20537,-0.10595 -0.34262,-0.12919 -0.0525,-0.009 -0.08437,-0.013 -0.10335,-0.0134 z m 0.71985,2.30218 c 0.0106,-0.003 0.01395,0.0261 0.01395,0.10904 0,0.0681 0.0044,0.11431 0.01137,0.11731 h -0.001 c 0.0078,0.002 0.006,0.0121 -0.0041,0.0258 -0.0154,0.0211 -0.0166,0.0199 -0.0279,-0.0227 -0.0288,-0.11112 -0.02555,-0.21835 0.0078,-0.22945 z" />
    </g>
  </g>
</svg>
