<?xml version="1.0" encoding="UTF-8" standalone="no"?>
<!-- Created with Inkscape (http://www.inkscape.org/) -->

<svg
   width="15.6098mm"
   height="6.4095335mm"
   viewBox="0 0 15.6098 6.4095335"
   version="1.1"
   id="svg1"
   sodipodi:docname="inkporter-svg-doa82ycy.svg"
   xmlns:inkscape="http://www.inkscape.org/namespaces/inkscape"
   xmlns:sodipodi="http://sodipodi.sourceforge.net/DTD/sodipodi-0.dtd"
   xmlns="http://www.w3.org/2000/svg"
   xmlns:svg="http://www.w3.org/2000/svg">
  <sodipodi:namedview
     id="namedview1"
     pagecolor="#ffffff"
     bordercolor="#666666"
     borderopacity="1.0"
     inkscape:showpageshadow="2"
     inkscape:pageopacity="0.0"
     inkscape:pagecheckerboard="0"
     inkscape:deskcolor="#d1d1d1"
     inkscape:document-units="mm"
     inkscape:zoom="0.72782688"
     inkscape:cx="396.38547"
     inkscape:cy="561.25984"
     inkscape:window-width="1920"
     inkscape:window-height="1017"
     inkscape:window-x="-8"
     inkscape:window-y="-8"
     inkscape:window-maximized="1"
     inkscape:current-layer="layer1" />
  <defs
     id="defs1" />
  <g
     inkscape:label="Layer 1"
     inkscape:groupmode="layer"
     id="layer1"
     transform="translate(-94.45624,-141.0229)">
    <path
       id="IT-P2640"
       d="m 100.67851,141.0229 -1.98437,0.20671 -0.28112,0.1571 -0.1571,0.28938 5.2e-4,0.0134 h -0.36949 l -1.10691,0.0367 h -2.21175 v 0.26458 h 2.21175 l 1.10691,0.0553 h 0.39016 l 0.0532,0.1757 0.25631,0.23978 -0.0413,0.19016 0.1819,-0.008 -0.0248,0.0827 h -0.22324 l -1.04025,1.01957 c -0.52501,-0.0245 -1.04971,-0.0597 -1.57458,-0.0884 -0.1499,0.0189 -0.29858,0.0551 -0.44804,0.0806 -0.13199,0.0546 -0.25756,0.12765 -0.38705,0.18965 -0.0762,0.0226 -0.11258,0.0952 -0.16278,0.15038 0.0285,0.0755 0.0568,0.15084 0.0853,0.22634 l -0.14883,-0.003 c -0.0515,-0.002 -0.0136,0.0885 -0.0258,0.12713 0.0143,0.0634 -0.0493,0.0983 -0.0801,0.14521 -0.0229,0.0555 -0.082,0.0337 -0.12919,0.0377 -0.02,0.026 -0.059,0.0996 -0.0429,0.12919 0.0474,0.0212 0.0834,0.0484 0.0677,0.10491 -0.0338,0.053 -0.093,0.0956 -0.13642,0.14469 0.0255,0.0832 0.0509,0.1664 0.0765,0.2496 0.0422,0.0602 -0.0169,0.0689 -0.0646,0.0832 v 0.1757 c -0.004,0.0522 0.0838,0.0116 0.11886,0.0243 0.0181,0.0574 0.0365,0.1152 0.0548,0.1726 -0.0617,0.0327 -0.035,0.0781 -0.004,0.12454 0.0222,0.0517 0.0442,0.1029 0.0956,0.046 0.0415,-0.008 0.0713,0.0682 0.108,0.0946 0.0527,0.0354 0.0521,0.0759 0.01,0.11989 -0.008,0.0406 0.0707,0.0673 0.0977,0.10232 0.0439,0.001 0.0938,-0.0335 0.14004,-0.046 0.0279,0.0736 0.0563,0.14706 0.0842,0.22066 0.0797,-0.007 0.15934,-0.0172 0.23874,-0.002 l 0.046,0.17622 c 0.0579,-0.0146 0.11574,-0.0294 0.17364,-0.0439 0.0611,-0.0364 0.0547,0.0565 0.0785,0.0915 0.0245,0.0328 0.0194,0.1225 0.0667,0.1111 0.068,-0.01 0.1384,-0.0595 0.2036,-0.0181 0.0722,0.004 0.0458,0.0578 0.0315,0.10593 -0.0384,0.064 0.009,0.0773 0.0661,0.0853 0.0472,0.015 0.0959,0.036 0.12402,-0.0196 0.029,-0.0569 0.0678,-0.0309 0.10698,-0.001 0.0459,0.0234 -0.0197,0.0849 -0.0217,0.12454 0.0487,0.0144 0.1016,0.0481 0.1478,0.0501 0.0373,-0.0268 0.065,-0.10021 0.11678,-0.0589 0.057,0.0105 0.0883,0.0385 0.0723,0.0992 -0.003,0.0521 -0.01,0.10607 0.0574,0.11007 0.0484,0.0293 0.0911,0.0318 0.12196,-0.0212 0.0311,-0.0624 0.077,-0.0232 0.12092,0.002 0.0453,0.02 0.0913,0.0397 0.0723,0.0982 -0.0193,0.0584 0.0306,0.0783 0.0729,0.10232 0.0405,0.0125 0.0754,-0.0545 0.11369,-0.0739 0.0429,-0.0606 0.0664,0.0378 0.0987,0.0646 0.0128,0.0157 0.0256,0.0312 0.0382,0.047 0.0216,0.0553 0.0794,0.0358 0.12609,0.0398 0.0606,0.0206 0.0554,-0.0568 0.0775,-0.093 0.008,-0.0582 0.0814,-0.0195 0.12144,-0.0305 0.0297,0.0253 0.0348,0.0858 0.0558,0.12402 h 0.14366 c 0.0518,0.002 0.0124,-0.0867 0.0248,-0.12402 h 0.14108 c 0.0518,-0.002 0.0124,0.0867 0.0248,0.12402 h 0.14883 c 0.0297,-0.0253 0.0348,-0.0858 0.0558,-0.12402 h 0.14366 c 0.0518,-0.002 0.0124,0.0867 0.0248,0.12402 h 0.16175 c 0.0289,-0.0483 0.0578,-0.0964 0.0868,-0.14469 0.0291,0.0375 0.0582,0.0746 0.0873,0.11214 0.0233,0.0561 0.0895,0.0245 0.13642,0.0325 0.0518,0.002 0.0124,-0.0867 0.0248,-0.12402 h 0.14366 c 0.0504,-0.005 0.0418,0.0766 0.0667,0.10904 0.0286,0.0342 0.0993,0.006 0.14521,0.015 0.0297,-0.0253 0.0353,-0.0859 0.0563,-0.12402 h 0.15089 c 0.0297,0.0253 0.0348,0.0859 0.0558,0.12402 h 0.14366 c 0.0518,0.002 0.0124,-0.0867 0.0248,-0.12402 h 0.14107 c 0.0518,-0.002 0.0124,0.0867 0.0248,0.12402 h 0.14883 c 0.0297,-0.0253 0.0348,-0.0859 0.0558,-0.12402 h 0.14366 c 0.0518,-0.002 0.0124,0.0867 0.0248,0.12402 h 0.14366 c 0.0504,0.005 0.0414,-0.0766 0.0661,-0.10903 0.0255,-0.0349 0.095,-0.006 0.13798,-0.015 0.0518,-0.002 0.0124,0.0867 0.0248,0.12402 h 0.14883 c 0.0297,-0.0253 0.0349,-0.0859 0.0558,-0.12402 0.0418,0.0101 0.11199,-0.021 0.13539,0.016 0.0252,0.0356 0.0171,0.1192 0.0744,0.108 0.0416,-0.0116 0.11964,0.0291 0.12764,-0.031 0.0211,-0.0404 0.0196,-0.11362 0.0827,-0.093 0.0577,-0.009 0.0991,-0.001 0.0801,0.0667 -0.0224,0.0703 0.0353,0.0604 0.0858,0.0574 0.0551,0.008 0.10145,0.003 0.10645,-0.062 0.006,-0.062 0.0478,-0.071 0.10232,-0.062 0.0579,-0.01 0.0966,1.6e-4 0.0785,0.0667 -0.0226,0.0708 0.0361,0.0594 0.0863,0.0574 0.0565,0.0184 0.0759,-0.0387 0.10645,-0.0734 0.0306,-0.0418 0.0614,-0.1016 0.092,-0.0248 0.0342,0.0301 0.0505,0.0962 0.0987,0.0982 0.043,-0.008 0.11589,0.0269 0.11989,-0.0387 0.0187,-0.0418 0.0208,-0.10707 0.0832,-0.0853 0.0533,-0.0123 0.0845,0.008 0.0915,0.0625 0.005,0.0665 0.0527,0.0685 0.10748,0.0615 0.0542,0.005 0.10513,0.008 0.0842,-0.062 -0.0203,-0.0682 0.0289,-0.068 0.0832,-0.062 0.0545,-0.0106 0.0922,0.003 0.0982,0.0625 0.004,0.0665 0.0527,0.0685 0.10749,0.0615 0.0542,0.005 0.10513,0.008 0.0842,-0.062 -0.0213,-0.0702 0.0289,-0.068 0.0832,-0.062 0.0542,-0.006 0.10318,-0.007 0.0827,0.062 -0.0216,0.0712 0.0329,0.067 0.0873,0.062 0.0377,-0.0121 0.12789,0.029 0.11989,-0.0289 10e-4,-0.0488 -0.0183,-0.11848 0.0553,-0.0951 0.0541,-0.0112 0.0901,0.004 0.0961,0.0625 0.005,0.0645 0.0519,0.0685 0.10646,0.0615 0.0641,0.0149 0.0879,-0.0112 0.0739,-0.0749 -0.0233,-0.0704 0.0481,-0.0461 0.092,-0.0491 0.0641,-0.0149 0.0884,0.0112 0.0744,0.0749 -0.0232,0.0711 0.0499,0.0451 0.0941,0.0491 0.0545,0.0107 0.0922,-0.003 0.0982,-0.0625 0.005,-0.0645 0.0519,-0.0685 0.10645,-0.0615 0.0641,-0.0149 0.0879,0.0112 0.0739,0.0749 -0.0231,0.0726 0.0544,0.0441 0.0992,0.0491 0.0615,0.0208 0.0728,-0.0314 0.0879,-0.078 0.003,-0.0687 0.0727,-0.041 0.11989,-0.046 0.0518,-0.002 0.0124,0.0867 0.0248,0.12402 h 0.18242 c 0.0518,0.002 0.0124,-0.0867 0.0248,-0.12402 0.041,0.0101 0.11062,-0.021 0.13332,0.016 0.0251,0.0338 0.0162,0.11652 0.0703,0.10852 0.0381,-0.011 0.12416,0.0244 0.12816,-0.0212 0.007,-0.0425 -0.0263,-0.12545 0.0455,-0.10335 0.0574,-0.009 0.0971,-2.4e-4 0.0786,0.0667 -0.0224,0.0703 0.0358,0.0609 0.0863,0.0579 0.0551,0.008 0.10094,0.003 0.10594,-0.0625 0.006,-0.0626 0.0493,-0.071 0.10387,-0.062 0.0547,-0.009 0.0983,-0.002 0.10335,0.062 0.006,0.062 0.0478,0.0715 0.10232,0.0625 0.0579,0.01 0.0967,-6.8e-4 0.0786,-0.0672 -0.022,-0.0692 0.0334,-0.0604 0.0837,-0.0574 0.058,-0.008 0.10177,-0.003 0.0822,0.0667 -0.0224,0.0703 0.0353,0.0609 0.0858,0.0579 0.0551,0.008 0.10146,0.003 0.10646,-0.0625 0.006,-0.062 0.0478,-0.071 0.10232,-0.062 0.0579,-0.01 0.0966,1.6e-4 0.0785,0.0667 -0.0236,0.0755 0.0465,0.0573 0.0977,0.0579 0.0585,0.0182 0.0802,-0.043 0.11472,-0.077 0.0387,-0.0341 0.0606,-0.1057 0.12248,-0.0894 0.0619,-0.0196 0.0516,0.0907 0.10697,0.0827 0.0426,-0.006 0.10937,0.0125 0.13797,-0.008 0.009,-0.0432 -0.0258,-0.11695 0.0377,-0.12195 0.0479,-0.0214 0.0985,-0.0498 0.11575,0.0196 0.0211,0.0534 0.0917,0.0178 0.13694,0.0279 0.0707,0.0187 0.0312,-0.0729 0.0414,-0.11472 0.0526,-0.0137 0.10501,-0.0275 0.15761,-0.0413 0.0362,0.0152 0.0408,0.0984 0.1018,0.0734 0.0365,-0.0122 0.12819,0.0302 0.11369,-0.0331 -0.006,-0.0534 -0.004,-0.10042 0.061,-0.10542 0.0552,-0.0429 0.0818,-0.001 0.10542,0.0491 0.0472,0.016 0.11176,0.002 0.16536,0.007 0.0109,-0.0419 -0.027,-0.11712 0.0305,-0.12712 0.0443,-0.005 0.10081,-0.0684 0.13281,-0.016 0.0333,0.0375 0.0662,0.0759 0.12144,0.0605 0.0571,0.0103 0.0965,-0.002 0.0956,-0.0672 0.0185,-0.038 0.004,-0.11962 0.0672,-0.0992 0.038,0.006 0.11205,-0.0233 0.091,0.0419 -0.0208,0.0679 0.0611,0.0328 0.10025,0.0408 0.0709,0.0208 0.0736,-0.0252 0.0656,-0.0827 -0.004,-0.0507 -0.0105,-0.1051 0.0584,-0.0832 0.0473,10e-4 0.10115,-0.0129 0.12815,0.0372 0.0304,0.0519 0.072,0.0509 0.11989,0.0212 0.0509,-0.0125 0.0916,-0.0296 0.0501,-0.0832 -0.049,-0.0626 0.0222,-0.0676 0.0708,-0.0832 0.0474,-0.0206 0.0935,-0.036 0.12247,0.0191 0.0295,0.0596 0.0779,0.0283 0.12402,0.009 0.058,-0.008 0.0205,-0.0822 0.031,-0.12299 -0.0167,-0.0585 0.0562,-0.0685 0.0899,-0.0997 0.0546,-0.0211 0.12083,-0.003 0.17983,-0.009 0.003,-0.0919 -0.001,-0.18435 0.007,-0.27595 -0.005,-0.0609 0.0167,-0.0929 0.0811,-0.0765 0.0476,0 0.1032,0.014 0.1173,-0.046 0.0546,-0.0468 -0.018,-0.0818 -0.0455,-0.12093 -0.0244,-0.0387 -0.0959,-0.0687 -0.0558,-0.11937 0.02,-0.0375 0.0178,-0.10721 0.0775,-0.0868 0.0703,0.019 0.0313,-0.0712 0.0413,-0.11266 0.01,-0.0568 -0.0699,-0.0648 -0.10335,-0.0977 -0.05,-0.0194 -0.0764,-0.0516 -0.0625,-0.10645 -0.0222,-0.0642 0.0483,-0.0614 0.0899,-0.0796 0.009,-0.0318 -0.0308,-0.0873 -0.0398,-0.12764 -0.0265,-0.0347 -0.0967,-0.006 -0.14056,-0.015 -0.0504,0.005 -0.0417,-0.0766 -0.0667,-0.10904 -0.009,-0.0482 0.033,-0.0965 0.0439,-0.14469 l -0.17466,-0.0455 c 0.0262,-0.0661 0.0778,-0.0386 0.0708,-0.11317 l -0.0222,-0.34933 0.0961,0.24288 c 0.0622,-0.0123 0.12435,-0.0243 0.18655,-0.0367 0.007,-0.0897 0.0147,-0.17954 0.0217,-0.26924 0.0429,-0.0201 0.12041,0.0147 0.0961,0.0837 0.0163,0.0437 -0.016,0.14338 0.0326,0.15038 0.0778,-0.0155 0.16978,0.009 0.23668,-0.0388 -0.0173,-0.0861 -0.0348,-0.17218 -0.0522,-0.25838 -0.0342,-0.0803 0.0162,-0.15554 0.0372,-0.23254 -0.01,-0.0569 -0.0514,-0.11185 -0.0734,-0.16795 -0.0694,-0.1082 -0.0601,-0.23928 -0.0842,-0.3607 -0.008,-0.0684 -0.10686,-0.0219 -0.15296,-0.0119 -0.0368,0.0243 -0.17034,0.0113 -0.10904,0.0718 0.0656,0.0526 -0.003,0.0765 -0.0496,0.1049 l -0.0992,-0.15193 c -0.0794,0.009 -0.15882,0.0183 -0.23823,0.0279 0.006,0.0164 -0.0829,0.14477 -0.17053,0.26717 1.4e-4,0.001 10e-4,0.001 -5.2e-4,0.006 v -0.005 c -0.0569,0.0795 -0.12402,0.1726 -0.12402,0.1726 0,0 0.10839,-0.16674 0.12402,-0.1757 v -0.21187 c -0.011,-0.0403 0.0304,-0.13254 -0.0382,-0.11524 -0.0661,0.0168 -0.0368,-0.0735 -0.0522,-0.11369 -1.7709,-0.19362 -4.26129,-0.4575 -6.03219,-0.65112 -0.01,-0.0163 -0.0199,-0.0328 -0.03,-0.0491 l 0.54467,-0.0517 -0.61185,-1.60404 c 0,0 -0.80199,-0.0253 -0.83509,-0.0253 z m 8.39432,2.82205 v 0.003 l 5.2e-4,-5.1e-4 c -1.1e-4,-0.001 5.8e-4,-0.003 -5.2e-4,-0.003 z m -12.59509,2.21899 c 0.15908,0.0482 0.31607,0.10811 0.47439,0.16071 0.10267,0.013 0.20951,0.003 0.31367,0.007 -0.046,0.0268 -0.092,0.0533 -0.13797,0.0801 -0.0393,0.0532 -0.0635,0.1203 -0.0972,0.1788 -0.0358,0.0476 -0.0381,0.10383 -0.0351,0.16123 -1.6e-4,0.029 1.6e-4,0.0583 0,0.0873 -0.027,0.0543 -0.0763,0.10095 -0.11162,0.15245 -0.0268,0.0714 -0.0613,0.0228 -0.0951,-0.014 0.0164,-0.0879 0.0327,-0.17565 0.0491,-0.26355 -0.0505,-0.0194 -0.10091,-0.039 -0.15141,-0.0584 -0.0635,0.0777 -0.12719,0.15536 -0.19069,0.23306 0.008,-0.10681 0.0158,-0.21357 0.0238,-0.32039 -0.0274,-0.0256 -0.0939,-0.0217 -0.1359,-0.0362 -0.0444,0.005 -0.0618,0.0773 -0.0951,0.10956 -0.0219,0.0528 -0.061,0.0718 -0.11627,0.0605 0.0301,-0.0865 0.0603,-0.17292 0.0904,-0.25942 -0.0431,-0.0295 -0.10472,-0.0481 -0.13642,-0.0842 -0.0216,-0.0649 0.0405,-0.0753 0.0868,-0.0966 0.0414,-0.006 0.10118,-0.0734 0.12868,-0.0346 0.0184,0.056 0.0602,0.0712 0.11575,0.061 0.0113,-0.0371 -0.0235,-0.11954 0.0202,-0.12454 z m 11.46751,0.0331 c 0.0872,0.10024 0.17429,0.2005 0.26149,0.30076 0.0347,0.038 -0.05,0.075 -0.0677,0.11265 -0.0557,0.0389 -0.0256,0.11075 -0.0326,0.16795 0.004,0.0549 0.0104,0.11252 -0.0625,0.0899 -0.0455,-0.0801 -0.0909,-0.1602 -0.13643,-0.2403 -0.0368,-0.007 -0.09,0.0323 -0.13281,0.0424 v 0.22324 c 0.0225,0.0701 -0.0351,0.0599 -0.0848,0.0579 -0.0321,-0.0703 -0.0645,-0.14054 -0.0966,-0.21084 -0.0572,0.008 -0.11437,0.0163 -0.17157,0.0243 -0.007,0.0652 -0.0126,0.13013 -0.0196,0.19533 0.01,0.0678 -0.0244,0.0863 -0.0868,0.0739 -0.023,-0.0504 -0.0457,-0.10049 -0.0687,-0.15089 -0.009,-0.0684 -0.059,-0.0622 -0.11317,-0.0481 -0.0278,0.004 -0.0559,0.009 -0.0837,0.0129 l -0.0424,0.2899 c -0.0355,-0.0696 -0.071,-0.13917 -0.10646,-0.20877 -0.0324,-0.0474 -0.0442,-0.0997 -0.0372,-0.15658 0.0159,-0.0819 -0.0423,-0.14571 -0.0739,-0.21601 -0.0243,-0.0573 -0.0565,-0.10829 -0.11059,-0.14159 -0.0403,-0.029 -0.0802,-0.0584 -0.0646,-0.11369 0.44361,-0.0349 0.88705,-0.0695 1.33066,-0.10439 z m -2.02726,0.11162 c 0.0274,0.005 0.0595,0.0208 0.0842,0.0191 v 5.2e-4 c 0.025,0.005 0.05,0.01 0.0749,0.015 0.0848,0.003 -0.0256,0.0415 -0.0512,0.0646 -0.0387,0.0402 -0.0825,0.0331 -0.12816,0.009 -0.067,-0.009 -0.0788,-0.0364 -0.0294,-0.0837 0.006,-0.0138 0.0141,-0.021 0.0243,-0.0238 0.008,-0.002 0.0162,-0.002 0.0253,-5.2e-4 z m -4.9475,0.015 c 0.0106,1.7e-4 0.02,0.005 0.0284,0.0155 0.004,0.005 0.009,0.009 0.0145,0.0145 -0.008,0.0325 -0.0719,0.0625 -0.10077,0.094 -0.0181,0.0209 -0.0862,-0.0833 -0.0465,-0.0853 0.0326,-0.003 0.0726,-0.0393 0.10439,-0.0388 z m -3.09025,0.004 c 0.0231,4.8e-4 0.039,0.009 0.0284,0.0434 v 0.0341 c -0.0345,0.0276 -0.0962,-0.0108 -0.13178,-0.0382 -0.0808,-0.0386 -0.0335,-0.0397 0.03,-0.0367 0.0196,0.004 0.0502,-0.003 0.0734,-0.003 z m 5.05653,0 c 0.0231,4.9e-4 0.039,0.009 0.0284,0.0434 h -5.2e-4 c 7e-5,0.0141 4.5e-4,0.0283 5.2e-4,0.0424 -0.0515,0.01 -0.0919,-0.017 -0.13126,-0.0465 -0.0808,-0.0386 -0.034,-0.0397 0.0294,-0.0367 0.0196,0.004 0.0503,-0.003 0.0734,-0.003 z m -1.39164,0.002 h 0.75344 l -0.1943,0.1943 c -0.0283,0.0716 -0.0396,0.1527 -0.0615,0.2279 0.0196,0.10999 0.0572,0.21976 0.0837,0.32969 -0.0112,0.0607 -0.0455,0.12057 -0.0651,0.18087 -0.025,-0.074 -0.0533,-0.14701 -0.0744,-0.22221 0.002,-0.0718 -0.0728,-0.0415 -0.1204,-0.0475 -0.0516,6.7e-4 -0.043,0.0861 -0.0682,0.12402 v 5.2e-4 c -0.0193,0.0351 -0.0225,0.10602 -0.0532,0.12402 -0.0551,0.016 -0.08,-0.0227 -0.10129,-0.0672 -0.0293,-0.0414 0.0482,-0.0737 0.0661,-0.1111 0.0683,-0.059 0.0685,-0.15603 0.10076,-0.23513 -0.008,-0.0907 -0.033,-0.18237 -0.0475,-0.27337 -0.064,-0.0794 -0.14687,-0.14909 -0.21807,-0.22479 z m -5.55108,0.005 c 0.009,0.002 0.0171,0.009 0.0207,0.0232 0.0451,0.0428 0.0296,0.0811 -0.0145,0.11782 -0.0297,0.039 -0.0522,0.0745 -0.10697,0.0605 -0.0122,-0.0287 0.0219,-0.0933 0.0269,-0.1354 9.7e-4,-0.0281 0.0457,-0.0709 0.0739,-0.0661 z m 3.64215,0.0367 c 0.0227,0.0133 0.007,0.0637 0.0103,0.0966 -0.0291,0.0577 -0.0797,0.10737 -0.11679,0.16227 -0.011,0.0778 -10e-4,0.16331 -0.004,0.24391 0.0159,0.0689 0.0649,0.12964 0.0935,0.19534 0.0406,0.0496 0.0292,0.11165 0.03,0.17105 -0.0308,0.0134 -0.0968,-0.0161 -0.14108,-0.0191 -0.0144,-0.0608 -0.0291,-0.12162 -0.0434,-0.18242 -0.0118,-0.0497 -0.0913,-0.0294 -0.1328,-0.0486 -0.0413,0.005 -0.0371,0.0886 -0.0605,0.12454 l -0.002,0.004 c -0.0242,0.0366 -0.0179,0.11602 -0.0625,0.12402 -0.0548,0.0179 -0.0718,-0.0318 -0.0951,-0.0703 0.0432,-0.0846 0.0865,-0.16964 0.12971,-0.25424 0.0407,-0.0528 0.0346,-0.11684 0.0336,-0.17984 -0.0126,-0.0633 -0.0581,-0.1185 -0.0832,-0.1788 -0.0248,-0.063 -0.0757,-0.11977 -0.0827,-0.18707 h 0.48937 c 0.018,-0.006 0.0297,-0.005 0.0372,-0.001 z m 4.52737,0.0517 c 0.18055,0.001 0.36102,0.003 0.54157,0.004 -0.0442,0.0674 -0.0886,0.13465 -0.13281,0.20205 0.0182,0.19326 0.0362,0.38655 0.0543,0.57981 0.0243,0.0766 -0.0661,0.008 -0.1049,0.005 -0.0138,-0.0589 -0.0281,-0.11783 -0.0419,-0.17673 -0.0118,-0.0506 -0.0913,-0.0293 -0.13281,-0.0486 -0.0412,0.005 -0.0378,0.0884 -0.061,0.12454 -0.0204,0.036 -0.0227,0.11363 -0.0568,0.12868 -0.0713,0.0208 -0.067,-0.0339 -0.062,-0.0889 0.037,-0.0606 0.0985,-0.11198 0.14469,-0.16898 v -0.38861 c -0.0383,-0.0618 -0.10081,-0.1143 -0.14831,-0.1726 z m 4.1274,0.1354 c 0.009,-0.009 0.0711,0.0338 0.0961,0.0398 0.042,0.0234 0.11141,0.0292 0.0899,0.0935 v 0.003 0.008 c 0.0209,0.069 -0.0641,0.0318 -0.10335,0.0408 -0.0237,-0.0515 -0.0475,-0.10301 -0.0713,-0.15451 -0.0117,-0.0179 -0.0145,-0.0269 -0.0114,-0.03 z m -2.57142,0.4315 c 0.0348,0.001 0.0404,0.0151 -0.0109,0.0522 -0.0457,0.0294 -0.0586,0.0724 -0.0496,0.12454 v 5.2e-4 0.008 c 0.0186,0.0667 -0.0213,0.0751 -0.078,0.0661 -0.0632,0.0188 -0.0522,-0.0637 -0.0734,-0.10232 -0.0336,-0.0518 -0.004,-0.0958 0.0274,-0.13952 0.039,-0.017 0.0955,-0.002 0.14107,-0.007 0.017,-0.002 0.0318,-0.003 0.0434,-0.003 z m -7.50548,0.003 c 0.0385,0.005 -0.0103,0.0777 -0.0109,0.11317 -0.005,0.0185 -0.01,0.0373 -0.015,0.0558 0.003,0.064 -0.0563,0.0695 -0.10439,0.0853 -0.0123,-0.0841 -0.0244,-0.16808 -0.0367,-0.25218 h 0.14469 c 0.009,-0.002 0.0167,-0.003 0.0222,-0.002 z m 2.30993,0 h 0.22066 c 0.0342,0.0108 -0.0275,0.0875 -0.0305,0.12402 v 5.2e-4 c -0.005,0.0132 -0.01,0.0261 -0.015,0.0393 -0.0164,0.0472 -0.025,0.10535 -0.0884,0.0847 -0.0289,-0.0829 -0.0579,-0.16566 -0.0868,-0.24856 z m 2.46548,0 h 0.22583 c 0.0534,-0.002 2.4e-4,0.0871 0.007,0.12402 l -5.2e-4,5.2e-4 c -0.004,0.0278 -0.008,0.0553 -0.0124,0.0832 0.008,0.0699 -0.0776,0.0307 -0.12093,0.0408 v -0.14107 c -0.0212,-0.0408 -0.0683,-0.0707 -0.0992,-0.10749 z m 2.92489,0.0816 c 0.0443,0.0253 0.0958,0.0461 0.076,0.10697 h 5.2e-4 v 0.0351 c 0.0169,0.0402 -0.10338,0.039 -0.0827,-0.003 0.004,-0.0426 -0.009,-0.11531 0.006,-0.13901 z m -4.93148,0.0811 c 0.0258,0.004 0.0528,0.0195 0.0548,0.0444 0.0327,0.0483 0.0293,0.0423 -0.0227,0.0413 -0.0516,0.005 -0.10052,0.008 -0.0806,-0.0579 -0.002,-0.0233 0.0227,-0.0317 0.0486,-0.0279 z m -3.18069,0.006 c 0.0182,-0.004 0.0329,0.006 0.0233,0.0408 v 0.0248 c 0.002,0.03 -0.13096,0.0289 -0.0667,-0.0176 0.003,-0.024 0.0252,-0.0436 0.0434,-0.0481 z m 5.66529,5.2e-4 c 0.0209,-0.005 0.079,0.0399 0.0775,0.0615 -1e-5,0.006 1.7e-4,0.0121 0,0.0181 -0.0476,0.002 -0.10337,0.0121 -0.0822,-0.0548 -0.005,-0.0156 -0.002,-0.0231 0.005,-0.0248 z" />
  </g>
</svg>
