<?xml version="1.0" encoding="UTF-8" standalone="no"?>
<!-- Created with Inkscape (http://www.inkscape.org/) -->

<svg
   width="6.3885221mm"
   height="8mm"
   viewBox="0 0 6.3885223 7.9999998"
   version="1.1"
   id="svg47190"
   inkscape:version="1.3.2 (091e20e, 2023-11-25, custom)"
   sodipodi:docname="Italian.svg"
   xmlns:inkscape="http://www.inkscape.org/namespaces/inkscape"
   xmlns:sodipodi="http://sodipodi.sourceforge.net/DTD/sodipodi-0.dtd"
   xmlns="http://www.w3.org/2000/svg"
   xmlns:svg="http://www.w3.org/2000/svg">
  <sodipodi:namedview
     id="namedview47192"
     pagecolor="#ffffff"
     bordercolor="#666666"
     borderopacity="1.0"
     inkscape:pageshadow="2"
     inkscape:pageopacity="0.0"
     inkscape:pagecheckerboard="0"
     inkscape:document-units="mm"
     showgrid="false"
     inkscape:zoom="8.0000004"
     inkscape:cx="-8.6874996"
     inkscape:cy="35.812498"
     inkscape:window-width="1920"
     inkscape:window-height="1017"
     inkscape:window-x="-8"
     inkscape:window-y="-8"
     inkscape:window-maximized="1"
     inkscape:current-layer="layer1"
     inkscape:snap-bbox="true"
     inkscape:snap-bbox-midpoints="true"
     inkscape:snap-page="true"
     inkscape:snap-bbox-edge-midpoints="true"
     inkscape:snap-nodes="true"
     inkscape:bbox-nodes="false"
     inkscape:bbox-paths="true"
     inkscape:snap-others="true"
     inkscape:snap-object-midpoints="true"
     inkscape:showpageshadow="2"
     inkscape:deskcolor="#d1d1d1" />
  <defs
     id="defs47187">
    <clipPath
       clipPathUnits="userSpaceOnUse"
       id="clipPath63680-8">
      <path
         d="M 0,0 H 595.276 V 841.89 H 0 Z"
         id="path63678-4" />
    </clipPath>
    <clipPath
       clipPathUnits="userSpaceOnUse"
       id="clipPath126">
      <path
         d="M 249.449,276.463 H 545.67 V 432.141 H 249.449 Z"
         transform="translate(-327.51401,-427.34091)"
         id="path126-8" />
    </clipPath>
  </defs>
  <g
     inkscape:label="Layer 1"
     inkscape:groupmode="layer"
     id="layer1"
     transform="translate(-103.44274,-78.104962)">
    <g
       id="g1"
       transform="matrix(0.92012109,0,0,0.92836493,8.7732006,5.8811997)">
      <path
         id="path1"
         clip-path="url(#clipPath126)"
         style="fill:#f9f9f9"
         transform="matrix(1.0262989,0,0,-1.0262989,103.53358,80.220164)"
         d="m 0.11523437,-6.0351562 c -0.23578581,-10e-8 -0.43749999,0.2017141 -0.4375,0.4375 v 0.3671875 c -0.15399794,0.090343 -0.27734374,0.2278871 -0.27734374,0.4179687 v 0.052734 c 0,0.1186971 0.0610515,0.2167297 0.12890624,0.3046875 -0.0675923,0.087262 -0.12890624,0.1850515 -0.12890624,0.3027344 v 0.052734 c 0,0.1907484 0.12277648,0.3278483 0.27734374,0.4179688 v 2.2480469 a 0.30003001,0.30003001 0 0 0 0.0527344,0.080078 c -0.19368419,0.2062008 -0.35790854,0.45034996 -0.359375,0.75390623 a 0.30003001,0.30003001 0 0 0 0,0.001953 c -6.1604e-4,0.20637382 0.0414423,0.36310349 0.09375,0.47460938 0.0386049,0.08229527 0.0785297,0.11586143 0.10742187,0.14648437 -0.10276617,0.0953888 -0.17187499,0.22538462 -0.17187499,0.375 v 0.0507813 c 0,0.11869717 0.0610515,0.21672972 0.12890624,0.3046875 -0.0680697,0.0879787 -0.12890624,0.18613603 -0.12890624,0.30468742 v 0.050781 c 0,0.190657 0.122895,0.3272389 0.27734374,0.4179687 v 0.3964844 c 10e-9,0.235786 0.20171392,0.4375 0.4375,0.4375 h 0.13867188 c 0.0872404,0 0.15727724,-0.051054 0.2265625,-0.097656 0.0692853,0.046602 0.13932213,0.097656 0.2265625,0.097656 H 1.1738281 c 0.093135,0 0.1701636,-0.05105 0.2421875,-0.1035156 0.072024,0.052465 0.1490521,0.1035156 0.2421875,0.1035156 H 2.125 c 0.093525,0 0.1702381,-0.049489 0.2421875,-0.1015625 0.071339,0.050907 0.1466874,0.1015625 0.2382813,0.1015625 h 0.1367187 c 0.2357861,0 0.4394531,-0.1965742 0.4394531,-0.4375 v -0.40625 C 3.3232044,1.4241228 3.4335937,1.2902763 3.4335938,1.109375 V 1.058594 c 0,-0.1185514 -0.060837,-0.21670871 -0.1289063,-0.30468745 0.067855,-0.0879578 0.1289062,-0.18599034 0.1289063,-0.3046875 V 0.3984375 C 3.4335937,0.21775824 3.3232713,0.083763 3.1816406,-0.00976563 v -0.25 c 0.1225365,-2.4058e-4 0.3174872,0.0254949 0.484375,0.27734376 0.2896043,0.43692153 -0.048828,0.94726562 -0.048828,0.94726562 a 0.30003001,0.30003001 0 0 0 0.173828,0.45898435 l 0.5625,0.1464844 a 0.30003001,0.30003001 0 0 0 0.28125,-0.072266 c 0,0 0.6878863,-0.6566896 1.171875,-1.9667969 0.4959552,-1.3400431 0.2851563,-2.7011719 0.2851563,-2.7011719 a 0.30003001,0.30003001 0 0 0 -0.296875,-0.255859 H 3.3847656 c -0.00353,-0.013749 0.00403,-0.039872 0,-0.052734 C 3.3413766,-3.6168307 3.2622287,-3.7025523 3.2480469,-3.71875 3.3574252,-3.813938 3.4335937,-3.9444513 3.4335938,-4.0996094 v -0.052734 c 0,-0.1176828 -0.061314,-0.2154725 -0.1289063,-0.3027344 0.067855,-0.087958 0.1289062,-0.1859904 0.1289063,-0.3046875 V -4.8125 c -1e-7,-0.180003 -0.1110638,-0.3131459 -0.2519532,-0.40625 v -0.3789062 c 0,-0.2409259 -0.203667,-0.4375001 -0.4394531,-0.4375 H 2.6054688 c -0.091594,0 -0.166942,0.050656 -0.2382813,0.1015625 C 2.2952381,-5.9856671 2.2185251,-6.0351563 2.125,-6.0351562 H 1.6582031 c -0.093135,0 -0.1701635,0.05105 -0.2421875,0.1035156 -0.072024,-0.052466 -0.1490521,-0.1035157 -0.2421875,-0.1035156 H 0.70703125 c -0.0872403,0 -0.15727723,0.051054 -0.2265625,0.097656 -0.0692853,-0.046602 -0.13932213,-0.097656 -0.2265625,-0.097656 z" />
      <path
         id="path125"
         d="M 0,0 H 0.387 V -0.819 C 0.312,-0.744 0.24,-0.654 0.171,-0.542 0.052,-0.347 0.01,-0.155 0,0 m 3.014,-0.561 c 0,0 0.572,-0.085 0.902,0.413 0.403,0.608 -0.049,1.28 -0.049,1.28 l 0.562,0.147 c 0,0 0.633,-0.596 1.097,-1.852 0.463,-1.251 0.269,-2.552 0.269,-2.552 H 3.317 c 0,0 -0.012,0.159 -0.086,0.343 -0.073,0.183 -0.217,0.342 -0.217,0.342 z m -3.213,0.406 c 0,0 0.05,-0.282 0.178,-0.493 0.034,-0.055 0.067,-0.098 0.103,-0.133 0.205,-0.195 0.824,-0.599 1.334,-0.831 0.51,-0.232 1.483,-0.655 1.672,-1.329 0.114,-0.41 -0.062,-0.587 -0.062,-0.587 0,0 -0.122,0.599 -0.574,0.892 -0.452,0.294 -0.669,0.37 -1.097,0.575 -0.293,0.14 -0.976,0.467 -1.376,0.871 -0.183,0.185 -0.307,0.386 -0.308,0.593 -0.001,0.335 0.13,0.442 0.13,0.442 m -0.1,1.265 c 0,0.121 0.099,0.22 0.22,0.22 h 2.992 c 0.121,0 0.219,-0.099 0.219,-0.22 V 1.058 c 0,-0.122 -0.098,-0.22 -0.219,-0.22 h -2.992 c -0.121,0 -0.22,0.098 -0.22,0.22 z m 1.61,-6.309 v -0.398 c 0,-0.076 -0.061,-0.137 -0.137,-0.137 H 0.708 c -0.076,0 -0.138,0.061 -0.138,0.137 v 0.398 z m 0,2.948 V -3.687 H 0.57 v 1.834 C 0.822,-2.004 1.088,-2.142 1.311,-2.251 M 1.311,0 V -1.323 C 0.958,-1.149 0.733,-1.035 0.57,-0.933 V 0 Z M 0.57,1.924 C 0.57,2 0.632,2.061 0.708,2.061 H 1.174 C 1.25,2.061 1.311,2 1.311,1.924 V 1.511 H 0.57 Z M 2.262,-5.199 V -5.597 C 2.262,-5.673 2.2,-5.734 2.125,-5.734 H 1.658 c -0.076,0 -0.137,0.061 -0.137,0.137 v 0.398 z m 0,2.497 V -3.687 H 1.521 V -2.35 L 1.693,-2.429 C 1.9,-2.521 2.089,-2.591 2.262,-2.702 m 0,2.701 v -1.818 c -0.156,0.094 -0.334,0.191 -0.535,0.29 l -0.206,0.102 v 1.426 z M 1.521,1.924 C 1.521,2 1.582,2.061 1.658,2.061 H 2.125 C 2.2,2.061 2.262,2 2.262,1.924 V 1.511 H 1.521 Z M -0.021,-1.433 C 0.095,-1.537 0.237,-1.64 0.39,-1.74 V -3.687 H -0.021 Z M 0.39,-5.199 v -0.398 c 0,-0.076 -0.061,-0.137 -0.137,-0.137 H 0.116 c -0.076,0 -0.137,0.061 -0.137,0.137 v 0.398 z M -0.021,1.924 C -0.021,2 0.04,2.061 0.116,2.061 H 0.253 C 0.329,2.061 0.39,2 0.39,1.924 V 1.511 h -0.411 z m 2.902,-7.123 v -0.398 c 0,-0.076 -0.062,-0.137 -0.138,-0.137 H 2.606 c -0.076,0 -0.137,0.061 -0.137,0.137 v 0.398 z M 2.856,-3.687 H 2.469 v 0.819 C 2.544,-2.942 2.616,-3.032 2.685,-3.145 2.804,-3.34 2.846,-3.532 2.856,-3.687 m 0.025,3.686 V -2.275 C 2.77,-2.171 2.634,-2.063 2.469,-1.952 v 1.951 z M 2.469,1.924 C 2.469,2 2.53,2.061 2.606,2.061 H 2.743 C 2.819,2.061 2.881,2 2.881,1.924 V 1.511 H 2.469 Z M -0.299,0.45 c 0,0.121 0.099,0.22 0.22,0.22 h 2.992 c 0.121,0 0.219,-0.099 0.219,-0.22 V 0.398 c 0,-0.122 -0.098,-0.22 -0.219,-0.22 h -2.992 c -0.121,0 -0.22,0.098 -0.22,0.22 z m 0,-4.55 c 0,0.121 0.099,0.22 0.22,0.22 h 2.992 c 0.121,0 0.219,-0.099 0.219,-0.22 v -0.052 c 0,-0.122 -0.098,-0.22 -0.219,-0.22 h -2.992 c -0.121,0 -0.22,0.098 -0.22,0.22 z m 0,-0.66 c 0,0.121 0.099,0.22 0.22,0.22 h 2.992 c 0.121,0 0.219,-0.099 0.219,-0.22 v -0.052 c 0,-0.122 -0.098,-0.22 -0.219,-0.22 h -2.992 c -0.121,0 -0.22,0.098 -0.22,0.22 z"
         style="fill:#000000;fill-opacity:1;fill-rule:nonzero;stroke:none"
         transform="matrix(1.0262989,0,0,-1.0262989,103.53358,80.220164)"
         clip-path="url(#clipPath126)" />
    </g>
  </g>
</svg>
