<?xml version="1.0" encoding="UTF-8" standalone="no"?>
<!-- Created with Inkscape (http://www.inkscape.org/) -->

<svg
   width="7.4159679mm"
   height="9mm"
   viewBox="0 0 7.4159681 8.9999997"
   version="1.1"
   id="svg47190"
   inkscape:version="1.4 (e7c3feb100, 2024-10-09)"
   sodipodi:docname="lehr.svg"
   xmlns:inkscape="http://www.inkscape.org/namespaces/inkscape"
   xmlns:sodipodi="http://sodipodi.sourceforge.net/DTD/sodipodi-0.dtd"
   xmlns="http://www.w3.org/2000/svg"
   xmlns:svg="http://www.w3.org/2000/svg">
  <sodipodi:namedview
     id="namedview47192"
     pagecolor="#ffffff"
     bordercolor="#666666"
     borderopacity="1.0"
     inkscape:pageshadow="2"
     inkscape:pageopacity="0.0"
     inkscape:pagecheckerboard="0"
     inkscape:document-units="mm"
     showgrid="false"
     inkscape:zoom="9.2785376"
     inkscape:cx="16.220229"
     inkscape:cy="18.429628"
     inkscape:window-width="2560"
     inkscape:window-height="1368"
     inkscape:window-x="0"
     inkscape:window-y="0"
     inkscape:window-maximized="1"
     inkscape:current-layer="layer1"
     inkscape:snap-page="true"
     inkscape:snap-bbox="true"
     inkscape:snap-nodes="false"
     inkscape:bbox-paths="false"
     inkscape:bbox-nodes="true"
     inkscape:snap-object-midpoints="true"
     inkscape:showpageshadow="2"
     inkscape:deskcolor="#d1d1d1" />
  <defs
     id="defs47187">
    <clipPath
       clipPathUnits="userSpaceOnUse"
       id="clipPath63680-8">
      <path
         d="M 0,0 H 595.276 V 841.89 H 0 Z"
         id="path63678-4" />
    </clipPath>
    <clipPath
       id="clip26-8">
      <path
         d="m 177,605 h 14 v 7 h -14 z m 0,0"
         id="path4278-6" />
    </clipPath>
    <clipPath
       id="clip27-6">
      <path
         d="m 181.85547,606.17578 c -0.28516,0.53516 -0.66797,0.60547 -0.94141,0.66797 -0.27344,0.0586 -0.40625,0.0234 -0.72656,0.15234 -0.32031,0.13282 -0.25,0.26172 -0.28516,0.47657 -0.0352,0.21484 -0.0977,0.27343 -0.40625,1.09765 -0.30859,0.82031 -1.14062,2.03516 -1.4414,2.53516 -0.29688,0.5 -0.67578,0.47656 -0.79688,0.82031 -0.11719,0.34766 0.0117,0.82031 0.41797,1.10938 0.40234,0.28515 0.92969,0.11718 1.23828,0.0703 0.3086,-0.0469 0.40235,-0.0352 0.40235,-0.0352 l 0.33593,0.0234 c 0,0 -0.53906,-1.8125 0.77344,-1.73828 1.30859,0.0703 2,0.67578 2.90234,0.71484 0.90625,0.0352 1.0625,-0.25 1.72657,-0.25 0.66797,0 1.22656,0.19922 1.54687,0.23438 0.32422,0.0391 1.33594,0.0156 1.33594,0.0156 l 1.35547,-4.07422 h 0.30859 l -0.0195,0.53907 0.57813,-0.63282 c 0,0 0.15625,0.0234 0.24218,-0.0586 0.082,-0.0859 0.15235,-0.35938 -0.0586,-0.65625 -0.21484,-0.29688 -0.48047,-0.60547 -1.21484,-1.14063 -0.73829,-0.53906 -1.32422,-1.05078 -3.69141,-1.14453 -0.125,-0.004 -0.25,-0.008 -0.36719,-0.008 -2.09765,0 -2.94531,0.77344 -3.21484,1.28125"
         id="path4281-9" />
    </clipPath>
    <clipPath
       id="clip28-5">
      <path
         d="m 177,611 h 4 v 3 h -4 z m 0,0"
         id="path4284-9" />
    </clipPath>
    <clipPath
       id="clip29-3">
      <path
         d="m 181.85547,606.17578 c -0.28516,0.53516 -0.66797,0.60547 -0.94141,0.66797 -0.27344,0.0586 -0.40625,0.0234 -0.72656,0.15234 -0.32031,0.13282 -0.25,0.26172 -0.28516,0.47657 -0.0352,0.21484 -0.0977,0.27343 -0.40625,1.09765 -0.30859,0.82031 -1.14062,2.03516 -1.4414,2.53516 -0.29688,0.5 -0.67578,0.47656 -0.79688,0.82031 -0.11719,0.34766 0.0117,0.82031 0.41797,1.10938 0.40234,0.28515 0.92969,0.11718 1.23828,0.0703 0.3086,-0.0469 0.40235,-0.0352 0.40235,-0.0352 l 0.33593,0.0234 c 0,0 -0.53906,-1.8125 0.77344,-1.73828 1.30859,0.0703 2,0.67578 2.90234,0.71484 0.90625,0.0352 1.0625,-0.25 1.72657,-0.25 0.66797,0 1.22656,0.19922 1.54687,0.23438 0.32422,0.0391 1.33594,0.0156 1.33594,0.0156 l 1.35547,-4.07422 h 0.30859 l -0.0195,0.53907 0.57813,-0.63282 c 0,0 0.15625,0.0234 0.24218,-0.0586 0.082,-0.0859 0.15235,-0.35938 -0.0586,-0.65625 -0.21484,-0.29688 -0.48047,-0.60547 -1.21484,-1.14063 -0.73829,-0.53906 -1.32422,-1.05078 -3.69141,-1.14453 -0.125,-0.004 -0.25,-0.008 -0.36719,-0.008 -2.09765,0 -2.94531,0.77344 -3.21484,1.28125"
         id="path4287-0" />
    </clipPath>
    <clipPath
       id="clip30-0">
      <path
         d="m 177,610 h 5 v 4 h -5 z m 0,0"
         id="path4290-1" />
    </clipPath>
    <clipPath
       id="clip31-8">
      <path
         d="m 181.85547,606.17578 c -0.28516,0.53516 -0.66797,0.60547 -0.94141,0.66797 -0.27344,0.0586 -0.40625,0.0234 -0.72656,0.15234 -0.32031,0.13282 -0.25,0.26172 -0.28516,0.47657 -0.0352,0.21484 -0.0977,0.27343 -0.40625,1.09765 -0.30859,0.82031 -1.14062,2.03516 -1.4414,2.53516 -0.29688,0.5 -0.67578,0.47656 -0.79688,0.82031 -0.11719,0.34766 0.0117,0.82031 0.41797,1.10938 0.40234,0.28515 0.92969,0.11718 1.23828,0.0703 0.3086,-0.0469 0.40235,-0.0352 0.40235,-0.0352 l 0.33593,0.0234 c 0,0 -0.53906,-1.8125 0.77344,-1.73828 1.30859,0.0703 2,0.67578 2.90234,0.71484 0.90625,0.0352 1.0625,-0.25 1.72657,-0.25 0.66797,0 1.22656,0.19922 1.54687,0.23438 0.32422,0.0391 1.33594,0.0156 1.33594,0.0156 l 1.35547,-4.07422 h 0.30859 l -0.0195,0.53907 0.57813,-0.63282 c 0,0 0.15625,0.0234 0.24218,-0.0586 0.082,-0.0859 0.15235,-0.35938 -0.0586,-0.65625 -0.21484,-0.29688 -0.48047,-0.60547 -1.21484,-1.14063 -0.73829,-0.53906 -1.32422,-1.05078 -3.69141,-1.14453 -0.125,-0.004 -0.25,-0.008 -0.36719,-0.008 -2.09765,0 -2.94531,0.77344 -3.21484,1.28125"
         id="path4293-6" />
    </clipPath>
  </defs>
  <g
     inkscape:label="Layer 1"
     inkscape:groupmode="layer"
     id="layer1"
     transform="translate(-86.91346,-77.022505)">
    <path
       fill="#e5e4e2"
       d="m 91.417992,77.114382 c -0.944076,-0.0994 -2.099028,0.240265 -2.635974,1.081597 -0.154951,0.242779 -0.273492,0.546347 -0.334101,0.827737 -0.228468,1.060741 0.554849,2.741609 0.718039,3.443329 0.163192,0.70172 0.315498,0.913869 0.11424,1.517676 -0.205523,0.616551 -0.571169,0.941073 -1.011784,1.174974 -0.774211,0.410996 -0.799636,0.35902 -0.799636,0.35902 0,0 0.750678,0.09792 1.387123,-0.212149 0.636445,-0.310062 0.995465,-0.391657 1.566633,-0.146871 0.571168,0.244787 0.984254,0.49659 1.958291,0.750679 0.37534,0.09791 0.636445,-0.01633 0.832275,-0.09792 0,0 0.288292,-0.168625 0.446049,-0.397093 0.162098,-0.234734 0.215705,-0.568982 0.0925,-0.832241 -0.195504,-0.417752 -0.538905,-0.698424 -0.935639,-0.908468 0,0 0.05438,0.119665 0.125102,0.391627 0.08834,0.339698 0.111855,0.775613 -0.146349,1.048991 -0.276788,0.292993 -0.727455,0.258886 -1.083016,0.164087 -0.326382,-0.08703 -0.854011,-0.271989 -1.147771,-0.391657 -0.325942,-0.132773 -0.806669,-0.32328 -1.170062,-0.244787 0.363507,-0.387644 0.540112,-1.015471 0.484661,-1.533995 -0.09248,-0.864894 -0.337268,-1.669981 -0.418863,-2.137801 -0.08159,-0.46782 -0.239352,-1.207498 -0.11424,-1.675301 0.125115,-0.467804 0.244786,-0.87051 0.576603,-1.202179 0.431623,-0.431412 1.052206,-0.552859 1.639579,-0.434627 0.41439,0.08341 0.827182,0.353275 0.993229,0.750124 0.09031,0.215853 0.152306,0.609241 -1.6e-5,0.881247 -0.246826,0.440779 -0.658426,0.847646 -0.51131,1.403426 0.04896,0.184944 0.201262,0.424297 0.315497,0.511326 0.0068,0.0051 0.01286,0.0094 0.02115,0.01026 -0.0082,-0.115317 -0.100389,-0.224649 -0.12019,-0.341836 -0.03502,-0.207367 0.130111,-0.35055 0.261611,-0.483976 0.155015,-0.157283 0.317406,-0.307174 0.479309,-0.457294 0.262851,-0.243742 0.335161,-0.574823 0.391658,-0.913868 0.05984,-0.359184 -0.102467,-0.680703 -0.244787,-0.935607 -0.103352,-0.185107 -0.42973,-0.489719 -0.62556,-0.603806 -0.151359,-0.08817 -0.337266,-0.184945 -0.549414,-0.244787 -0.212149,-0.05984 -0.392181,-0.102672 -0.554832,-0.119793 z"
       id="path3"
       style="stroke:#000000;stroke-width:0.128244;stroke-dasharray:none;stroke-opacity:1" />
  </g>
</svg>
