<?xml version="1.0" encoding="UTF-8" standalone="no"?>
<!-- Created with Inkscape (http://www.inkscape.org/) -->

<svg
   width="27.174927mm"
   height="5.18894mm"
   viewBox="0 0 27.174927 5.18894"
   version="1.1"
   id="svg32839"
   sodipodi:docname="inkporter-svg-l3lnoisa.svg"
   xmlns:inkscape="http://www.inkscape.org/namespaces/inkscape"
   xmlns:sodipodi="http://sodipodi.sourceforge.net/DTD/sodipodi-0.dtd"
   xmlns="http://www.w3.org/2000/svg"
   xmlns:svg="http://www.w3.org/2000/svg">
  <sodipodi:namedview
     id="namedview32841"
     pagecolor="#ffffff"
     bordercolor="#666666"
     borderopacity="1.0"
     inkscape:pageshadow="2"
     inkscape:pageopacity="0.0"
     inkscape:pagecheckerboard="0"
     inkscape:document-units="mm"
     showgrid="false"
     inkscape:zoom="1.3273709"
     inkscape:cx="362.74713"
     inkscape:cy="544.30904"
     inkscape:window-width="1920"
     inkscape:window-height="1017"
     inkscape:window-x="-8"
     inkscape:window-y="-8"
     inkscape:window-maximized="1"
     inkscape:current-layer="layer1" />
  <defs
     id="defs32836" />
  <g
     inkscape:label="Layer 1"
     inkscape:groupmode="layer"
     id="layer1"
     transform="translate(-97.938123,-133.26714)">
    <path
       d="m 124.40802,138.27307 c -0.23428,-0.0179 -0.38171,-0.0537 -0.4396,-0.12679 -0.0593,-0.073 -0.23566,-0.0909 -0.35278,-0.073 -0.11712,0.0179 -0.29351,-0.0909 -0.4396,-0.0551 -0.14742,0.0372 -0.23565,-0.2191 -0.3817,-0.19981 -0.0386,0.004 -0.0882,0.004 -0.14058,0.001 v -1.17272 h -7.00179 l -3.03171,-0.1502 -0.0579,-0.11851 c 0.3321,-0.001 0.55121,-0.003 0.57739,-0.003 0.13504,0 0.12816,-0.0896 0.12816,-0.0896 v -0.0965 c 0.0441,-0.0193 0.12538,-0.11575 0.12538,-0.22462 0,-0.10886 -0.10058,-0.19843 -0.10058,-0.19843 l -0.47543,-0.38585 c 0,0 -0.018,-0.0289 -0.0413,-0.0675 l 0.0924,-0.0868 -0.10062,-0.15985 -0.13091,0.0179 c -0.18327,-0.29765 -0.44785,-0.72622 -0.50437,-0.82131 -0.0138,-0.0248 -0.0332,-0.0386 -0.0524,-0.0551 v -0.22462 l -0.0538,-0.0565 h -0.15159 l -0.0482,0.0482 v 0.14745 h -0.38858 c -0.0317,-0.1943 -0.12541,-0.36656 -0.25495,-0.50712 l 0.0194,-0.0772 c 0,0 0.0593,-0.0427 0.14746,0.004 0,0 0.0303,-0.16262 -0.2329,-0.0937 l -0.12538,0.004 c -0.17226,-0.11437 -0.38174,-0.18465 -0.60911,-0.18465 -0.25079,0 -0.47819,0.0841 -0.66008,0.22049 l -0.0413,-0.04 c 0,0 -0.34728,0.25769 -0.33486,0.58291 -0.008,0.0303 -0.0152,0.0606 -0.0208,0.0909 h -0.10611 c 0,0 -0.44235,0.17777 -0.81167,0.32384 l -0.17914,-0.0951 -0.0318,0.0331 c -0.0346,-0.0482 -0.11575,-0.13642 -0.25905,-0.12678 -0.1833,0.011 -0.21636,0.14883 -0.22327,0.19982 0,0.004 0,0.007 0,0.01 -0.004,0.0427 0.0648,-0.0813 0.13917,-0.0689 0.0689,0.0124 0.13504,0.0455 0.0937,0.23289 -0.20394,0.0827 -0.19565,0.19706 -0.19565,0.19706 0,0 0,0.0234 -0.004,0.0592 -0.23974,0.0868 -0.22048,0.16812 -0.22048,0.16812 h -0.11716 v -0.062 h -0.0896 v 0.062 h -1.42766 c 0.007,-0.01 0.0123,-0.0193 0.0123,-0.0317 0,-0.0317 -0.0247,-0.0579 -0.0579,-0.0579 h -0.22461 c -0.0303,0 -0.0579,0.0262 -0.0579,0.0579 0,0.0152 0.007,0.0276 0.0166,0.0386 -0.15434,0.0165 -0.15022,0.0648 -0.15022,0.0648 v 0.1061 h -1.53239 v 0.26459 h 1.51035 c 0,0.12264 0.0606,0.13642 0.0992,0.13367 0.006,0.0179 0.0194,0.0331 0.0386,0.0331 h 0.28663 c 0.0219,0 0.0372,-0.0165 0.0414,-0.0358 h 0.77445 v 0.14332 c 0,0.26872 0.25079,0.2508 0.25079,0.2508 h 0.4203 v 0.0358 h 0.0896 v -0.0358 h 0.277 c -0.004,0.0648 -0.006,0.12127 -0.006,0.15434 0,0.17777 0.12679,0.21773 0.17501,0.226 l -0.0386,0.0648 c -0.63253,-0.001 -1.54478,-0.004 -1.6619,0.003 -0.14471,0.007 -0.27563,0.0689 -0.38312,0.17639 h -5.02984 v 1.26642 c -0.0578,0.0193 -0.10886,0.0317 -0.13366,0.0317 -0.0882,0 -0.35141,-0.0179 -0.49883,-0.0372 -0.146087,-0.0179 -0.322476,0.18328 -0.381742,0.25631 -0.05786,0.073 -0.234245,0 -0.381706,-0.0179 -0.146085,-0.0179 -0.146085,-0.0372 -0.263207,0.0179 -0.118499,0.0551 -0.205317,0.14608 -0.440973,0.14608 -0.234279,0 -0.704179,0.14607 -0.704179,0.14607 h 27.174927 c 0,0 -0.46856,-0.16399 -0.70418,-0.18328"
       id="LM-French"
       style="stroke-width:0.352778" />
  </g>
</svg>
