<?xml version="1.0" encoding="UTF-8" standalone="no"?>
<!-- Created with Inkscape (http://www.inkscape.org/) -->

<svg
   width="17.912226mm"
   height="4.5533152mm"
   viewBox="0 0 17.912226 4.5533152"
   version="1.1"
   id="svg32839"
   sodipodi:docname="inkporter-svg-l3lnoisa.svg"
   xmlns:inkscape="http://www.inkscape.org/namespaces/inkscape"
   xmlns:sodipodi="http://sodipodi.sourceforge.net/DTD/sodipodi-0.dtd"
   xmlns="http://www.w3.org/2000/svg"
   xmlns:svg="http://www.w3.org/2000/svg">
  <sodipodi:namedview
     id="namedview32841"
     pagecolor="#ffffff"
     bordercolor="#666666"
     borderopacity="1.0"
     inkscape:pageshadow="2"
     inkscape:pageopacity="0.0"
     inkscape:pagecheckerboard="0"
     inkscape:document-units="mm"
     showgrid="false"
     inkscape:zoom="1.3273709"
     inkscape:cx="362.74713"
     inkscape:cy="544.30904"
     inkscape:window-width="1920"
     inkscape:window-height="1017"
     inkscape:window-x="-8"
     inkscape:window-y="-8"
     inkscape:window-maximized="1"
     inkscape:current-layer="layer1" />
  <defs
     id="defs32836" />
  <g
     inkscape:label="Layer 1"
     inkscape:groupmode="layer"
     id="layer1"
     transform="translate(-121.80459,-150.76599)">
    <g
       id="LM-HMG"
       transform="matrix(0.35277777,0,0,-0.35277777,-281.1017,423.4796)">
      <path
         id="path42018-0-5"
         style="stroke-width:0.0262677"
         d="m 549.43298,778.82964 c -0.1028,8.7e-4 -0.20744,-0.008 -0.31258,-0.0289 -0.22505,-0.0447 -0.52543,-0.1787 -0.63119,-0.2681 -0.0211,-0.0179 -0.0803,-0.0982 -0.12625,-0.18514 -0.046,-0.087 -0.0859,-0.18536 -0.0985,-0.24646 -0.0319,-0.15324 -0.1103,-0.30064 -0.22362,-0.40757 -0.0382,-0.036 -0.0731,-0.0803 -0.0962,-0.11782 -0.02,-0.0324 -0.0268,-0.059 -0.0288,-0.0637 0.005,-0.005 0.0193,-0.0347 0.0505,-0.0625 0.0416,-0.0371 0.10311,-0.0763 0.16589,-0.0998 0.11296,-0.0423 0.20621,-0.10164 0.27171,-0.18034 0.065,-0.0782 0.098,-0.17727 0.0974,-0.28132 -5.6e-4,-0.0761 -0.0204,-0.15507 -0.0661,-0.25007 -0.0457,-0.095 -0.1164,-0.21204 -0.22843,-0.38592 -0.0414,-0.0641 -0.2288,-0.40413 -0.39556,-0.72495 -0.0838,-0.16142 -0.16459,-0.31398 -0.22843,-0.43161 -0.0319,-0.0588 -0.0579,-0.10898 -0.0793,-0.14668 -0.0215,-0.0377 -0.0311,-0.0556 -0.0517,-0.0818 -0.10612,-0.1346 -0.20048,-0.26178 -0.27287,-0.36308 -0.0724,-0.10131 -0.12564,-0.18896 -0.12865,-0.19596 -8e-4,-0.002 -0.019,-0.0632 -0.0348,-0.13465 -0.016,-0.0715 -0.0325,-0.16037 -0.0469,-0.24767 -0.0583,-0.35348 -0.11683,-0.63695 -0.17075,-0.84638 -0.0539,-0.20944 -0.0906,-0.3391 -0.17192,-0.42559 -0.0374,-0.0401 -0.0747,-0.0584 -0.12502,-0.0842 -0.0503,-0.0258 -0.10772,-0.0509 -0.16589,-0.0721 -0.2352,-0.0857 -0.39974,-0.23341 -0.4941,-0.43882 -0.0658,-0.14317 -0.0667,-0.15414 -0.0662,-0.38712 6.2e-4,-0.17477 0.0163,-0.292 0.0433,-0.3751 0.0452,-0.13873 0.0546,-0.29889 0.0661,-0.94858 5.5e-4,-0.0315 0.002,-0.0299 0.002,-0.0589 h 1.34048 c -9.2e-4,0.0202 -1.2e-4,0.0249 -10e-4,0.0469 -0.007,0.1338 -0.0124,0.25726 -0.0145,0.34986 -10e-4,0.0463 -10e-4,0.084 -10e-4,0.11301 0,0.0145 4.9e-4,0.0263 10e-4,0.0373 0,0.005 10e-4,0.011 0.002,0.018 10e-4,0.004 4.3e-4,0.007 0.002,0.0132 10e-4,0.003 0.004,0.0118 0.004,0.012 0,2e-4 0.009,0.0191 0.01,0.0192 -10e-6,6.7e-4 -10e-6,10e-4 0,0.002 0.0382,0.057 0.10594,0.0895 0.17433,0.10099 0.0684,0.0114 0.14447,0.008 0.23686,-0.006 0.12644,-0.0195 0.25398,-0.0178 0.57948,0.0132 0.23545,0.0224 0.47114,0.0421 0.55664,0.0421 h 0.12145 c 0.0585,0 0.10459,-0.0499 0.0998,-0.1082 l -0.0156,-0.18275 c -0.004,-0.0479 -0.006,-0.0982 -0.006,-0.13585 -1.8e-4,-0.0152 -1.8e-4,-0.0259 0,-0.0361 0.002,-0.002 0.001,-0.003 0.004,-0.005 0.0149,-0.0102 0.0377,-0.0233 0.0589,-0.0313 0.0499,-0.0199 0.093,-0.0288 0.13105,-0.0853 0.0194,-0.0283 0.0236,-0.063 0.0228,-0.0878 -10e-4,-0.0232 -0.006,-0.0412 -0.01,-0.0601 -0.002,-0.009 -0.006,-0.0206 -0.008,-0.03 h 2.47057 c -0.0177,0.0491 -0.0377,0.10035 -0.0444,0.13465 -0.005,0.025 -0.0104,0.0534 0.004,0.0902 0.014,0.0368 0.0538,0.0656 0.0769,0.0746 3.3e-4,0 6.7e-4,0 10e-4,0 0.0347,0.013 0.0557,0.008 0.0745,0.005 0.0188,-0.003 0.0358,-0.008 0.0529,-0.0144 0.0342,-0.013 0.0672,-0.0319 0.10101,-0.0553 0.0448,-0.031 0.13752,-0.081 0.18276,-0.0998 0.0537,-0.0223 0.15721,-0.0411 0.25724,-0.0481 0.10009,-0.007 0.20196,0.001 0.23809,0.0132 0.0494,0.0165 0.0925,0.0276 0.14423,0.0217 0.0518,-0.006 0.0919,-0.0287 0.13708,-0.0553 0.0553,-0.0331 0.0823,-0.0391 0.0974,-0.0385 0.0151,6e-4 0.0374,0.009 0.0841,0.0445 0.0805,0.0614 0.11764,0.11619 0.13709,0.2116 0.0193,0.0954 0.0144,0.23535 -0.0217,0.43882 -0.0581,0.32839 -0.08,0.40187 -0.29934,1.08082 -0.0404,0.12492 -0.0661,0.21227 -0.0505,0.30657 0.0156,0.0943 0.0718,0.16588 0.14909,0.25728 0.0652,0.0771 0.1433,0.20394 0.15629,0.23804 0.0195,0.0512 0.023,0.0682 0.0228,0.0782 -6e-5,0.01 -0.006,0.0332 -0.0276,0.0902 -0.0353,0.0956 -0.0592,0.14361 -0.0793,0.16591 -0.0202,0.0222 -0.0437,0.0337 -0.11302,0.0565 -0.0665,0.0219 -0.12938,0.0553 -0.20319,0.113 -0.0738,0.0577 -0.16441,0.14059 -0.30174,0.27412 -0.1795,0.17458 -0.35413,0.34743 -0.39795,0.39193 -0.0512,0.052 -0.09,0.12308 -0.12262,0.23804 -0.0326,0.11498 -0.0655,0.28268 -0.11419,0.55545 -0.0502,0.2807 -0.13751,0.55552 -0.19476,0.65402 -0.017,0.0292 -0.0337,0.0698 -0.0625,0.13344 -0.029,0.0636 -0.0651,0.14343 -0.10101,0.22603 -0.0354,0.0812 -0.074,0.16132 -0.10458,0.22602 -0.0305,0.0647 -0.0592,0.12043 -0.0601,0.12142 -0.0348,0.053 -0.12409,0.0962 -0.33184,0.0962 h -0.19599 c -0.037,4.3e-4 -0.0707,0.0212 -0.0877,0.0541 l -0.0938,0.18154 c -3.3e-4,0 -6.7e-4,0 -10e-4,0 l -0.0926,0.18394 c -0.028,0.055 7e-5,0.12199 0.0589,0.14066 l 0.0877,0.0289 c 0.0331,0.0109 0.0782,0.0421 0.10944,0.0781 0.0311,0.036 0.0457,0.0762 0.0457,0.0842 0,0.005 -0.009,0.0389 -0.0625,0.0902 -0.0849,0.0817 -0.14792,0.15631 -0.1779,0.26209 -0.0302,0.10578 -0.0327,0.22847 -0.0337,0.44122 -4.3e-4,0.1842 -0.003,0.27773 -0.012,0.33423 -0.009,0.0565 -0.0203,0.0818 -0.0577,0.15749 -0.13961,0.27925 -0.53928,0.47472 -0.98463,0.4785 z m -0.45687,-8.2414 c -0.009,0.01 -0.0113,0.0197 0,-0.0144 0.005,-0.0149 6.2e-4,-0.005 0,0.006 -1.2e-4,0.002 0,0.006 0,0.008 z m -7.59479,8.02998 c -0.0875,-9e-5 -0.13592,-0.008 -0.17433,-0.024 -0.1164,-0.0482 -0.37869,-0.32224 -0.37869,-0.39554 0,-0.0698 -0.19623,-0.42349 -0.34864,-0.62878 -0.0664,-0.0896 -0.12145,-0.17726 -0.12145,-0.19476 0,-0.0175 0.0393,-0.0521 0.0865,-0.0769 0.0473,-0.0247 0.12704,-0.0884 0.17795,-0.14186 0.0575,-0.0605 0.13678,-0.10402 0.208,-0.11542 l 0.11418,-0.0192 0.0156,-0.19116 c 0.009,-0.10567 0.0516,-0.30481 0.095,-0.44243 0.0435,-0.13761 0.0884,-0.28802 0.0986,-0.33423 0.0132,-0.0599 0.0494,-0.0956 0.12741,-0.12383 0.0602,-0.0218 0.10939,-0.0523 0.10939,-0.0673 0,-0.015 -0.11653,-0.14558 -0.25847,-0.29094 -0.27755,-0.28425 -0.41433,-0.51791 -0.44726,-0.76223 -0.0318,-0.23716 -0.0733,-0.33326 -0.24641,-0.57107 -0.0913,-0.12532 -0.20497,-0.30574 -0.25249,-0.40035 -0.0475,-0.0946 -0.0993,-0.17965 -0.11542,-0.18995 -0.0161,-0.0103 -0.13013,-0.0207 -0.25367,-0.0216 -0.12354,-0.002 -0.30045,-0.0181 -0.39315,-0.0361 -0.20116,-0.039 -0.40996,-0.0429 -0.40996,-0.007 0,0.0141 0.0236,0.10136 0.0529,0.19477 0.0783,0.24998 0.0716,0.70494 -0.0144,0.98343 -0.0373,0.12043 -0.0769,0.28127 -0.0889,0.35707 l -0.0217,0.13706 0.11782,-0.018 c 0.0647,-0.0105 0.22991,-0.0841 0.36791,-0.1623 0.14386,-0.0816 0.29116,-0.14187 0.34502,-0.14187 0.094,0 0.0946,5.3e-4 0.0745,0.14668 -0.011,0.0804 -0.0298,0.32617 -0.0409,0.54582 -0.0174,0.34052 -0.0126,0.41059 0.0313,0.47729 0.0702,0.10729 0.0362,0.17553 -0.0865,0.17553 -0.055,0 -0.11227,-0.012 -0.12865,-0.0265 -0.0164,-0.0145 -0.0779,-0.0457 -0.13585,-0.0685 -0.0984,-0.0388 -0.1092,-0.0362 -0.16109,0.0325 -0.0524,0.0694 -0.0597,0.0709 -0.13105,0.024 -0.0567,-0.037 -0.10772,-0.0431 -0.20559,-0.0253 -0.0718,0.014 -0.16589,0.0164 -0.20923,0.008 -0.12114,-0.0232 -0.18103,0.045 -0.15629,0.17794 0.0114,0.0614 0.0347,0.12848 0.0517,0.14907 0.0537,0.0649 0.0164,0.18126 -0.0613,0.19236 -0.0673,0.01 -0.0694,0.0197 -0.0505,0.19597 0.0134,0.12515 0.007,0.20043 -0.018,0.23083 -0.0207,0.0249 -0.0289,0.0593 -0.018,0.0769 0.0309,0.05 -0.0415,0.1587 -0.10581,0.1587 -0.032,0 -0.0897,-0.0263 -0.12865,-0.0577 -0.0599,-0.0485 -0.0716,-0.0937 -0.0818,-0.29936 -0.0129,-0.26126 -0.0541,-0.3567 -0.18515,-0.4268 -0.0692,-0.0368 -0.079,-0.0594 -0.0649,-0.14668 0.0151,-0.0933 0.0118,-0.0984 -0.0325,-0.0541 -0.0567,0.0567 -0.22283,0.0361 -0.27891,-0.0349 -0.0509,-0.0645 -0.39998,-0.0565 -0.80908,0.0192 -0.41574,0.077 -0.48327,0.10199 -0.59634,0.22001 -0.0483,0.0504 -0.11862,0.0914 -0.15629,0.0914 -0.0376,0 -0.0858,0.0205 -0.10581,0.0445 -0.0504,0.0607 -0.28851,0.0798 -0.34145,0.0276 -0.0252,-0.0248 -0.10267,-0.0401 -0.19593,-0.0361 -0.11474,0.004 -0.179,-0.0111 -0.2453,-0.0601 -0.0703,-0.052 -0.12914,-0.0653 -0.2765,-0.0613 -0.19187,0.005 -0.28734,-0.0352 -0.28734,-0.12263 0,-0.0323 -0.0322,-0.0431 -0.11659,-0.0361 -0.10932,0.009 -0.11572,0.0157 -0.11664,0.11902 -8e-4,0.0602 0.0145,0.12346 0.0349,0.14067 0.0204,0.0172 0.0409,0.0945 0.0468,0.17191 0.009,0.1258 0.003,0.13985 -0.0529,0.12985 -0.0732,-0.0128 -0.11419,-0.0659 -0.0937,-0.12143 0.0277,-0.0758 -0.19649,-0.13345 -0.5218,-0.13345 -0.30464,0 -0.40036,-0.0281 -0.40036,-0.11902 0,-0.0166 -0.0211,-0.0381 -0.0469,-0.0481 -0.0258,-0.01 -0.0469,-0.0375 -0.0469,-0.0613 0,-0.0888 -0.13696,-0.0998 -1.00026,-0.0781 -0.65624,0.0164 -0.89502,0.034 -0.96063,0.0673 -0.0674,0.0347 -0.18165,0.0396 -0.49891,0.0276 -0.22615,-0.009 -0.47606,-0.006 -0.55547,0.006 -0.12846,0.0193 -0.15216,0.0362 -0.20916,0.14788 -0.0421,0.0825 -0.0601,0.17027 -0.0541,0.25607 0.008,0.11515 0.002,0.13167 -0.0601,0.14067 -0.0664,0.009 -0.0709,-9.5e-4 -0.0709,-0.19116 v -0.20078 l -0.36668,-0.0204 c -0.20215,-0.0111 -0.41722,-0.0343 -0.4773,-0.0517 -0.0601,-0.0174 -0.18159,-0.0313 -0.27047,-0.0313 -0.10163,0 -0.16756,-0.014 -0.17556,-0.0385 -0.009,-0.0272 -0.0939,-0.0397 -0.2765,-0.0397 h -0.26334 v -0.17192 -0.17192 l 0.2405,0.007 c 0.2123,0.008 0.24499,0.002 0.28494,-0.0553 0.0423,-0.0616 0.0715,-0.0633 0.46523,-0.0553 0.36293,0.008 0.43095,10e-4 0.50617,-0.0481 0.0549,-0.0359 0.12975,-0.0529 0.20196,-0.0469 0.0888,0.008 0.11702,-0.002 0.12502,-0.0445 0.008,-0.0371 -0.009,-0.0553 -0.0505,-0.0553 -0.092,0 -0.13382,-0.073 -0.12982,-0.22361 0.002,-0.0746 -0.0267,-0.21948 -0.0625,-0.32221 -0.036,-0.10273 -0.0583,-0.20552 -0.0493,-0.22842 0.009,-0.0229 -0.0122,-0.12202 -0.0468,-0.22002 -0.0347,-0.098 -0.15548,-0.4743 -0.26813,-0.83556 -0.22554,-0.72318 -0.30063,-0.88337 -0.46646,-0.98584 -0.13715,-0.0847 -0.13487,-0.16663 0.006,-0.18034 0.0545,-0.005 0.11652,-0.0305 0.13702,-0.0553 0.0561,-0.0676 0.11979,-0.0547 0.14065,0.0289 0.0102,0.0408 0.0511,0.0921 0.0902,0.11302 0.0548,0.0293 0.0974,0.12521 0.18879,0.41838 0.24062,0.77271 0.21409,0.72055 0.38472,0.72255 0.10735,0.001 0.11819,0.01 0.12619,0.0974 0.009,0.093 0.006,0.095 -0.10699,0.0818 -0.0979,-0.0114 -0.11307,-0.005 -0.0961,0.0385 0.0109,0.0286 0.0515,0.15211 0.0889,0.27531 0.0566,0.18646 0.0715,0.21339 0.0926,0.15629 0.0277,-0.075 0.16337,-0.0968 0.20319,-0.0325 0.0264,0.0427 0.0265,0.0434 0.23564,-0.55303 0.32759,-0.93436 0.41519,-1.14741 0.4869,-1.18061 0.0378,-0.0176 0.0773,-0.0709 0.0878,-0.11902 0.0308,-0.1402 0.0952,-0.17385 0.15628,-0.0805 0.0366,0.0559 0.0842,0.083 0.16589,0.089 0.0987,0.008 0.11542,0.0202 0.11542,0.0866 0,0.0494 -0.0258,0.0899 -0.0721,0.11301 -0.10157,0.0506 -0.25336,0.20001 -0.30655,0.30176 -0.0527,0.10084 -0.21285,0.53509 -0.24166,0.65402 -0.0161,0.0667 -0.008,0.0857 0.0457,0.0998 0.0461,0.012 0.0605,0.0329 0.0469,0.0685 -0.0107,0.0283 -0.0193,0.0706 -0.0193,0.095 0,0.0268 -0.0321,0.0445 -0.0805,0.0445 -0.0691,0 -0.095,0.0319 -0.18516,0.22723 -0.0576,0.12473 -0.16134,0.39218 -0.23083,0.5939 -0.10871,0.31536 -0.12028,0.37034 -0.0794,0.39314 0.0779,0.0437 0.046,0.29243 -0.0433,0.33663 -0.14533,0.072 -0.10828,0.0829 0.20436,0.0613 0.24062,-0.0166 0.31978,-0.0125 0.31978,0.0156 0,0.0559 0.59924,0.009 0.64565,-0.0505 0.0444,-0.0569 0.1814,-0.0578 0.22843,-10e-4 0.047,0.0568 0.79745,0.0315 0.89323,-0.0301 0.043,-0.0285 0.1702,-0.0389 0.40638,-0.0349 0.18922,0.003 0.36182,-0.005 0.38232,-0.018 0.0426,-0.0276 -0.007,-0.21039 -0.0565,-0.21039 -0.0157,0 -0.0712,-0.0463 -0.12261,-0.1022 -0.0756,-0.0825 -0.0914,-0.1245 -0.0854,-0.22601 l 0.007,-0.12504 0.19716,-0.01 c 0.17747,-0.009 0.19901,-0.0169 0.22603,-0.0878 0.0424,-0.11179 0.0374,-0.13706 -0.0265,-0.13706 -0.0689,0 -0.13049,-0.0586 -0.13105,-0.12383 -1.8e-4,-0.0266 -0.0128,-0.068 -0.0276,-0.0914 -0.0205,-0.0324 -0.0586,-0.008 -0.15986,0.10219 -0.0732,0.0793 -0.15063,0.14427 -0.17193,0.14427 -0.0588,0 -0.20319,-0.12413 -0.20319,-0.17433 0,-0.0436 0.0245,-0.0796 0.19476,-0.28012 0.0889,-0.10479 0.10957,-0.1842 0.0553,-0.2176 -0.0172,-0.0106 -0.0312,-0.0304 -0.0313,-0.0433 6e-5,-0.0264 0.19279,-0.11487 0.3138,-0.14427 0.0613,-0.0149 0.0791,-0.0397 0.0782,-0.10459 -0.002,-0.0925 0.0494,-0.0786 -0.59154,-0.15269 l -0.21397,-0.0253 -0.18516,-0.29454 c -0.23889,-0.3811 -0.24849,-0.42115 -0.12982,-0.53981 0.081,-0.0811 0.1164,-0.0941 0.27048,-0.095 0.0976,-8e-4 0.18558,-0.0127 0.19359,-0.0265 0.008,-0.0138 -0.0942,-0.20297 -0.22726,-0.42078 l -0.24167,-0.39675 -0.2296,0.0216 c -0.12668,0.0119 -0.2749,0.0349 -0.32944,0.0505 -0.21526,0.0617 -0.27891,0.0393 -0.39672,-0.13705 -0.20449,-0.30607 -0.31049,-0.50671 -0.31141,-0.5891 -10e-4,-0.11503 0.16244,-0.26875 0.31504,-0.29455 0.0666,-0.0112 0.12945,-0.0331 0.13942,-0.0493 0.01,-0.0162 -0.0634,-0.15169 -0.16226,-0.30177 -0.0409,-0.0621 -0.0776,-0.12712 -0.11542,-0.19115 h 0.63236 c 0.16817,0.2645 0.31251,0.46527 0.33781,0.46527 0.0259,0 0.0825,0.028 0.12625,0.0625 0.0438,0.0345 0.10446,0.0625 0.13469,0.0625 0.0652,0 0.0982,0.0727 0.0769,0.16711 -0.059,0.262 -0.0715,0.22978 0.46166,1.09164 0.22129,0.35783 0.25349,0.39751 0.31855,0.38112 0.0571,-0.0143 0.0902,0.005 0.15512,0.0902 l 0.083,0.1082 0.11542,-0.0589 c 0.0633,-0.0324 0.14872,-0.0589 0.18996,-0.0589 0.059,0 0.07,-0.0124 0.0529,-0.0553 -0.0262,-0.0658 -0.0376,-0.14139 -0.0649,-0.4292 -0.0185,-0.19566 -0.0107,-0.24481 0.071,-0.45445 0.16773,-0.43114 0.67427,-1.12926 0.98703,-1.37176 h 0.4472 c -0.0471,0.0555 -0.0991,0.12246 -0.12742,0.16831 -0.0779,0.12607 -0.21766,0.30057 -0.40879,0.51216 -0.31756,0.35159 -0.41623,0.50452 -0.54457,0.84277 -0.0696,0.18368 -0.14041,0.35843 -0.15752,0.38833 -0.0457,0.0798 -0.0376,0.22961 0.0144,0.27291 0.0173,0.0143 0.0383,0.0212 0.071,0.0216 0.0327,4.8e-4 0.0775,-0.006 0.14066,-0.0192 0.0912,-0.0189 0.18269,-0.0448 0.20319,-0.0577 0.0206,-0.0129 0.0788,-0.1779 0.12982,-0.36668 0.051,-0.18879 0.12354,-0.4282 0.16109,-0.53139 0.0376,-0.10321 0.0958,-0.29233 0.12865,-0.42079 0.0329,-0.12845 0.0926,-0.28304 0.13228,-0.34384 0.0397,-0.0608 0.13819,-0.21311 0.21877,-0.33784 0.0459,-0.0709 0.0524,-0.0872 0.0769,-0.12863 h 0.41839 c -0.0776,0.13914 -0.20313,0.3366 -0.35105,0.54341 -0.31208,0.43632 -0.61783,1.0666 -0.70093,1.4451 l -0.0216,0.0986 0.15025,-0.0433 c 0.0828,-0.0237 0.21477,-0.0638 0.29214,-0.089 0.43643,-0.14263 0.86559,-0.26849 0.90653,-0.2645 0.13683,0.0118 0.18244,-0.0111 0.232,-0.11541 0.0581,-0.12262 0.043,-0.43657 -0.0288,-0.57708 -0.0314,-0.0621 -0.0311,-0.0988 0.004,-0.19717 0.0236,-0.0668 0.0495,-0.16681 0.0565,-0.22121 0.008,-0.0544 0.0275,-0.14779 0.0445,-0.20799 0.017,-0.0602 0.0379,-0.1806 0.0469,-0.2669 l 0.0108,-0.10459 h 0.39075 c -0.006,0.0398 -0.0264,0.0929 -0.0673,0.18875 -0.0753,0.17662 -0.18965,0.59292 -0.20436,0.74539 -0.003,0.0258 -0.007,0.0724 -0.01,0.1034 -0.005,0.0488 -0.0153,0.0464 -0.0793,-0.0228 -0.0909,-0.0982 -0.1638,-0.10973 -0.10581,-0.0168 0.0217,0.0345 0.0547,0.0551 0.0745,0.0481 0.0504,-0.0195 0.0676,0.10392 0.0493,0.35947 l -0.0156,0.22001 0.0913,-0.0204 c 0.0497,-0.0117 0.11135,-0.0494 0.13825,-0.0829 0.0391,-0.0483 0.0723,-0.0564 0.16109,-0.0397 0.10914,0.0205 0.11246,0.0173 0.19359,-0.14546 0.0708,-0.1436 0.0799,-0.19088 0.0637,-0.35467 -0.0148,-0.14809 -0.007,-0.21909 0.0409,-0.32941 0.0334,-0.0774 0.0553,-0.15683 0.0493,-0.17673 -0.007,-0.0199 0.002,-0.0453 0.0204,-0.0565 0.0182,-0.0112 0.0324,-0.0538 0.0324,-0.095 0,-0.0412 0.0332,-0.16873 0.0746,-0.28253 0.007,-0.0183 0.009,-0.0267 0.0145,-0.0421 h 0.61795 c -0.0395,0.0899 -0.075,0.17498 -0.11424,0.26328 l -0.18036,0.40877 0.0397,0.16952 c 0.0697,0.2935 0.14109,0.43692 0.21643,0.43641 0.0369,-1.9e-4 0.0856,-0.0127 0.10938,-0.0276 0.0504,-0.032 0.0208,-0.0974 -0.0445,-0.0974 -0.0514,0 -0.0567,-0.0273 -0.0168,-0.0902 0.0201,-0.0319 0.0631,-0.0379 0.15746,-0.0228 0.14281,0.0228 0.21181,-0.003 0.36915,-0.13946 0.0867,-0.0748 0.12446,-0.0877 0.26567,-0.0817 0.0906,0.004 0.18048,0.0168 0.19956,0.0289 0.0363,0.023 0.11228,-0.0489 0.22726,-0.21641 l 0.0685,-0.10098 -0.0926,-0.28975 c -0.0305,-0.096 -0.0502,-0.16606 -0.0721,-0.24044 h 0.10938 c 0.0664,0.21725 0.13062,0.40172 0.14792,0.39554 0.0135,-0.005 0.10304,-0.10609 0.19833,-0.22603 0.0604,-0.0759 0.0955,-0.12646 0.12028,-0.16951 h 5.31152 c 0.002,0.0699 0.015,0.12143 0.0336,0.12143 0.0143,0 0.0175,-0.0537 0.0156,-0.12143 h 0.89211 c 0.0662,0.10444 0.0901,0.23673 0.0901,0.42559 0,0.1721 0.008,0.20116 0.0758,0.24526 0.102,0.0669 0.1345,0.21755 0.0637,0.29575 -0.0407,0.0449 -0.0478,0.0876 -0.0313,0.17794 0.0119,0.0653 0.0251,0.18921 0.0301,0.27531 0.005,0.086 0.0179,0.22157 0.03,0.30177 0.0278,0.18421 -0.0504,0.44068 -0.16109,0.52778 -0.096,0.0756 -0.1308,0.0761 -0.27293,0.008 -0.10151,-0.049 -0.11591,-0.0488 -0.16109,-0.004 -0.0422,0.0422 -0.0429,0.0656 -0.01,0.15749 0.0498,0.1376 0.0174,0.30833 -0.0782,0.42199 -0.0854,0.1014 -0.28635,0.1654 -0.5266,0.16591 -0.25158,7.3e-4 -0.25078,-1.2e-4 -0.20917,0.38592 0.0266,0.24557 0.0275,0.4162 0.002,0.64681 -0.0188,0.17238 -0.0348,0.37775 -0.0348,0.45566 0,0.28816 -0.21433,0.66243 -0.45926,0.80069 -0.0912,0.0515 -0.19353,0.12802 -0.22726,0.17072 -0.075,0.0954 -0.29275,0.15326 -0.91126,0.24405 -0.095,0.014 -0.12219,0.0385 -0.18159,0.1575 -0.0385,0.0772 -0.0896,0.14066 -0.11418,0.14066 -0.029,0 -0.0457,0.0337 -0.0457,0.0962 0,0.0813 0.0115,0.0938 0.0709,0.0878 0.13468,-0.0147 0.4587,0.0403 0.49533,0.0842 0.0287,0.0345 0.023,0.0851 -0.0265,0.22482 -0.0348,0.0987 -0.0723,0.27753 -0.0829,0.39795 -0.0377,0.42452 -0.0481,0.47461 -0.11905,0.59871 -0.2152,0.37585 -0.38484,0.44847 -1.21787,0.51457 -0.19697,0.0158 -0.32372,0.0229 -0.41118,0.0228 z m -9.90889,-2.65817 c 0.0108,-5e-4 0.02,-0.003 0.0252,-0.008 0.0103,-0.0104 -0.008,-0.0165 -0.0409,-0.0156 -0.0365,10e-4 -0.0443,0.008 -0.0193,0.018 0.0113,0.004 0.024,0.007 0.0349,0.006 z m 2.60643,-0.14547 0.20682,-0.0228 c 0.11388,-0.0124 0.32544,-0.0247 0.47004,-0.0276 l 0.26333,-0.004 0.0372,-0.1094 c 0.0275,-0.0818 0.0632,-0.11879 0.14305,-0.14668 0.0589,-0.0205 0.0789,-0.0358 0.0445,-0.0349 -0.15161,0.006 -0.21107,0.0365 -0.27047,0.13706 -0.0347,0.0588 -0.0749,0.107 -0.0878,0.107 -0.013,0 -0.0688,-0.0436 -0.12508,-0.0974 -0.0987,-0.0944 -0.10963,-0.0978 -0.29454,-0.0769 -0.34871,0.0395 -0.40417,0.0463 -0.41113,0.0553 -0.004,0.005 -6.1e-4,0.0564 0.008,0.11421 z m 3.58028,-0.19957 c 0.13801,10e-4 0.1662,-0.007 0.15149,-0.0457 -0.01,-0.0258 -0.018,-0.0951 -0.018,-0.15389 0,-0.10092 -0.006,-0.10699 -0.10336,-0.10699 -0.11079,0 -0.16065,0.0585 -0.18638,0.22241 -0.0125,0.0795 -0.008,0.0832 0.15628,0.0842 z m 0.9967,-0.10821 c 0.004,-0.002 0.009,-0.009 0.0156,-0.0192 0.0175,-0.0301 0.0575,-0.0541 0.089,-0.0541 0.0445,0 0.0614,-0.033 0.0769,-0.15028 0.011,-0.0827 0.0568,-0.29065 0.10218,-0.46167 0.10871,-0.40892 0.11382,-0.75659 0.0169,-1.06158 -0.0383,-0.12043 -0.0882,-0.24351 -0.11185,-0.27411 -0.0459,-0.0597 -0.42067,-0.11473 -0.46523,-0.0685 -0.013,0.0133 -0.0229,0.0783 -0.0229,0.14427 0,0.1139 0.005,0.12023 0.0962,0.12023 0.34489,0 0.45354,0.45941 0.13345,0.56505 -0.0557,0.0185 -0.11086,0.0604 -0.12145,0.0938 -0.0107,0.0333 -0.0321,0.0601 -0.0481,0.0601 -0.0522,0 -0.031,0.19574 0.0361,0.33423 0.0419,0.0865 0.0858,0.13585 0.12262,0.13585 0.1348,0 0.21396,0.22578 0.10938,0.31258 -0.0307,0.0256 -0.0462,0.0942 -0.0457,0.19957 5.5e-4,0.0931 0.004,0.12918 0.0169,0.12383 z m -1.7673,-0.0433 c 0.0745,0 0.0933,-0.012 0.0854,-0.0541 -0.0173,-0.0897 -0.18158,-0.0811 -0.18158,0.01 0,0.0285 0.0341,0.0445 0.0962,0.0445 z m -0.61555,-0.012 c 0.0111,-5e-4 0.0192,-0.0135 0.0192,-0.0337 0,-0.0268 -0.0141,-0.0481 -0.0312,-0.0481 -0.0171,0 -0.0313,0.0127 -0.0313,0.0288 0,0.0161 0.014,0.0387 0.0313,0.0493 0.004,0.003 0.008,0.004 0.012,0.004 z m -2.50788,-0.31138 c 0.006,0.005 0.0158,-0.008 0.0361,-0.0361 0.0239,-0.0326 0.0368,-0.0776 0.0288,-0.0998 -0.029,-0.0758 -0.0721,-0.0399 -0.0721,0.0601 0,0.0464 10e-4,0.0703 0.007,0.0757 z m 0.39912,-0.0156 0.2272,-0.0192 c 0.43975,-0.0368 0.4195,-0.0275 0.47613,-0.22844 0.0276,-0.0983 0.0577,-0.19469 0.0637,-0.2152 0.007,-0.0204 0.0812,-0.0837 0.16589,-0.14066 0.13967,-0.0941 0.15118,-0.11184 0.12502,-0.18274 -0.0158,-0.043 -0.0733,-0.12323 -0.12742,-0.17913 -0.054,-0.0559 -0.11283,-0.10071 -0.13105,-0.0998 -0.0181,10e-4 -0.11615,0.0493 -0.2176,0.107 -0.16946,0.0963 -0.18454,0.1134 -0.18755,0.2164 -0.002,0.0617 0.008,0.11303 0.0204,0.11301 0.0129,0 0.0241,0.0292 0.0241,0.0661 0,0.0717 -0.0212,0.0919 -0.2741,0.26329 -0.13703,0.0928 -0.16473,0.12709 -0.16473,0.20558 z m 2.11836,-0.1611 c 0.0776,0.002 0.15912,-0.006 0.18516,-0.0228 0.0559,-0.037 0.13702,-0.21657 0.13702,-0.30297 0,-0.0691 0.0129,-0.0804 0.10101,-0.0806 0.0806,-2e-4 0.1132,-0.0192 0.15629,-0.095 0.0607,-0.10657 0.11781,-0.0975 0.11781,0.0192 0,0.042 0.0142,0.0769 0.0313,0.0769 0.0172,0 0.0313,0.0197 0.0313,0.0445 0,0.0476 0.24192,0.10033 0.31861,0.0697 0.0226,-0.009 -0.003,-0.0171 -0.0565,-0.018 -0.0537,-10e-4 -0.11647,-0.0242 -0.13826,-0.0505 -0.0333,-0.0401 -0.0236,-0.0621 0.0589,-0.13585 0.083,-0.0741 0.0985,-0.10998 0.0985,-0.22963 0,-0.19569 -0.0316,-0.33782 -0.0757,-0.33782 -0.0204,0 -0.0626,-0.018 -0.0938,-0.0409 -0.0475,-0.0346 -0.0512,-0.0532 -0.0204,-0.11061 0.0302,-0.0565 0.027,-0.081 -0.0192,-0.13826 l -0.0565,-0.0697 -0.14909,0.0781 c -0.0818,0.0432 -0.1569,0.10294 -0.16589,0.13225 -0.0236,0.0735 -0.20787,0.18151 -0.29817,0.17553 -0.041,-0.003 -0.21901,0.0759 -0.39555,0.17432 -0.17654,0.0984 -0.33585,0.1696 -0.35345,0.15869 -0.0198,-0.0124 -0.0259,0.007 -0.0145,0.0529 0.0102,0.0401 0.0517,0.2139 0.0926,0.38592 0.0409,0.17203 0.076,0.28859 0.077,0.25849 0.002,-0.0425 0.0307,-0.0553 0.12624,-0.0553 0.0678,0 0.1313,0.0141 0.14189,0.0313 0.0111,0.0178 0.0859,0.0284 0.16349,0.0301 z m 0.63482,-0.43642 c 0.017,0 0.0312,-0.0139 0.0312,-0.03 0,-0.0161 -0.014,-0.0375 -0.0312,-0.0481 -0.0171,-0.0106 -0.0313,0.002 -0.0313,0.0289 0,0.0268 0.014,0.0493 0.0313,0.0493 z m 11.48766,-0.47506 c 10e-4,0 0.0483,-0.006 0.0493,-0.006 5.6e-4,0 0.0108,-0.008 0.0168,-0.0108 0.005,-0.004 0.0116,-0.006 0.0156,-0.01 0.009,-0.007 0.0131,-0.0156 0.018,-0.0216 0.0372,-0.0496 0.0379,-0.0794 0.0493,-0.13465 0.0113,-0.0553 0.0225,-0.12721 0.0348,-0.21881 0.0206,-0.15252 0.0557,-0.34586 0.0721,-0.40396 0.0132,-0.0471 0.0243,-0.0851 0.0313,-0.11782 0.007,-0.0327 -0.4497,-0.2609 0,-0.107 0.0444,0.0152 -0.0688,-0.0822 -0.10218,-0.0902 -0.0333,-0.008 -0.0567,-0.006 -0.0854,-0.006 -0.034,-1e-4 -0.12933,-0.0164 -0.17192,-0.0313 -0.0315,-0.0109 -0.0632,-0.0204 -0.0902,-0.0264 -0.0136,-0.003 -0.0241,-0.005 -0.0385,-0.006 -0.007,-9.7e-4 -0.0162,-0.002 -0.0265,-0.002 h -10e-4 c -0.005,0 -0.0105,0.002 -0.018,0.004 -0.004,0.001 -0.014,0.005 -0.0145,0.005 -3.7e-4,0 -0.0165,0.007 -0.0168,0.007 -0.003,0.002 -0.005,0.004 -0.008,0.006 -1.9e-4,2e-4 -0.0153,0.0141 -0.0156,0.0144 0,2.9e-4 -0.006,0.009 -0.008,0.012 -0.004,0.006 -0.005,0.009 -0.007,0.0132 -0.004,0.008 -0.009,0.0156 -0.0108,0.0216 -0.005,0.0129 -0.007,0.0258 -0.0108,0.0409 -0.008,0.0302 -0.0166,0.0672 -0.0217,0.107 -0.0286,0.20799 0.01,0.3846 0.12624,0.53741 0.0415,0.0545 0.0892,0.15375 0.0962,0.19356 0.0116,0.0622 0.0206,0.10687 0.0372,0.14667 0.008,0.0199 0.0105,0.0435 0.0565,0.0697 0.006,0.003 0.0186,0.008 0.0193,0.008 5.5e-4,0 0.0246,0.006 0.0252,0.006 z m -12.85948,0.1745 c 0.0123,-0.007 -0.015,-0.0973 -0.0613,-0.19957 -0.0462,-0.10234 -0.0982,-0.18565 -0.11541,-0.18515 -0.0508,0.002 -0.17193,0.067 -0.17193,0.0926 0,0.0364 0.3236,0.30765 0.34865,0.29215 z m -1.70717,-0.36668 c 0.0358,0.0117 0.0407,-0.2863 0.006,-0.321 -0.0342,-0.0342 0.0182,-0.28009 0.0673,-0.3162 0.0273,-0.0202 0.0394,-0.0472 0.0265,-0.0601 -0.0129,-0.0129 -0.024,-0.006 -0.0241,0.0144 0,0.0283 -0.0159,0.0297 -0.0601,0.006 l -10e-4,-10e-4 c -0.15364,-0.0823 -0.28069,-0.0134 -0.27768,0.15148 0.002,0.12184 0.19205,0.50279 0.26327,0.52659 z m 0.27411,-0.0745 c 0.0198,0.007 0.0993,-0.0305 0.17672,-0.0842 l 0.14066,-0.0974 0.006,-0.30537 0.004,-0.30537 -0.0842,0.005 c -0.0457,0.002 -0.13868,0.0198 -0.20676,0.0409 -0.10206,0.0315 -0.1284,0.0572 -0.15149,0.14547 -0.0171,0.0676 -0.0157,0.14158 0.005,0.20078 0.0179,0.0516 0.0426,0.15995 0.0541,0.24045 0.0115,0.0805 0.0368,0.15289 0.0565,0.1599 z m 0.69372,-0.0216 c 0.007,-10e-4 0.0235,-0.01 0.0481,-0.0253 0.0436,-0.0269 0.21002,-0.1214 0.37031,-0.21039 0.16023,-0.089 0.32114,-0.18892 0.35702,-0.22242 0.036,-0.0335 0.0763,-0.0613 0.0902,-0.0613 0.0677,0 0.0704,-10e-4 0.57228,-0.28253 0.23212,-0.13005 0.39198,-0.25414 0.37148,-0.28734 -0.0254,-0.041 -0.0471,-0.0321 -0.32458,0.13465 -0.14625,0.0879 -0.3079,0.18511 -0.35948,0.21521 -0.40614,0.23764 -1.06792,0.66424 -1.11932,0.72134 -0.0114,0.0132 -0.0132,0.0193 -0.006,0.018 z m -0.84281,-0.0192 c 0.029,0 0.0457,-0.0208 0.0397,-0.0517 -0.0153,-0.0785 -0.089,-0.0894 -0.089,-0.0132 0,0.0384 0.0204,0.0649 0.0493,0.0649 z m -0.0661,-0.19957 c 0.008,0.003 0.0214,-0.003 0.0421,-0.0156 0.0269,-0.0167 0.0309,-0.0464 0.012,-0.0974 l -0.0265,-0.0745 -0.0228,0.0878 c -0.0158,0.063 -0.0183,0.0941 -0.005,0.0998 z m 0.59875,-0.002 c 0.0104,6.9e-4 0.0231,-0.004 0.0385,-0.0132 0.0334,-0.0207 0.0335,-0.0452 -0.002,-0.13225 l -0.0445,-0.1058 -0.0169,0.10941 c -0.0145,0.0919 -0.006,0.13977 0.0253,0.14187 z m 0.14305,-0.0794 c 0.0337,0 1.10461,-0.65211 1.24194,-0.75622 0.0652,-0.0486 0.0671,-0.0562 0.0156,-0.0553 -0.0324,10e-4 -0.24166,0.0484 -0.46529,0.10459 -0.22363,0.0561 -0.51885,0.11997 -0.65643,0.14187 -0.13763,0.0219 -0.2549,0.0433 -0.26087,0.0493 -0.006,0.005 0.0127,0.0525 0.0396,0.1046 0.0272,0.0521 0.0404,0.11597 0.03,0.14306 -0.0262,0.0684 0.015,0.26811 0.0553,0.26811 z m 2.54758,-0.58189 c 0.038,-0.002 0.11117,-0.0269 0.20313,-0.0697 l 0.19962,-0.0938 -0.12508,-0.002 c -0.1388,-0.002 -0.35234,0.11051 -0.30297,0.15991 0.004,0.004 0.0126,0.007 0.0253,0.006 z m 2.12316,-0.57107 c 0.0438,0.002 0.0822,-0.0273 0.0961,-0.0902 0.0418,-0.18867 0.0827,-0.2895 0.16473,-0.40395 0.0955,-0.13336 0.39703,-0.73993 0.42682,-0.8584 0.014,-0.0557 0,-0.0947 -0.0541,-0.14548 l -0.0745,-0.0697 -0.16109,0.2116 c -0.0887,0.11602 -0.20904,0.26632 -0.26814,0.33422 -0.0791,0.0908 -0.10821,0.15275 -0.10821,0.23444 0,0.0886 -0.0228,0.12999 -0.11301,0.20799 -0.0979,0.0847 -0.10588,0.10306 -0.0649,0.13705 0.0551,0.0457 0.0622,0.16019 0.0132,0.2092 -0.0244,0.0244 -0.0206,0.0622 0.0156,0.13224 0.0338,0.0653 0.0837,0.0987 0.12749,0.10099 z m -1.76374,-0.50855 c 0.0253,0.001 0.0429,-8.1e-4 0.0469,-0.005 0.008,-0.008 -0.009,-0.0762 -0.0385,-0.15148 -0.0774,-0.19993 -0.0899,-0.20253 -0.16109,-0.0313 l -0.0649,0.15629 0.12502,0.0204 c 0.0343,0.006 0.0673,0.01 0.0926,0.0108 z m -0.40756,-0.15269 c 0.002,1.3e-4 0.0119,-0.0133 0.0289,-0.0397 0.0196,-0.0306 0.0286,-0.0798 0.0217,-0.1094 -0.0118,-0.0478 -0.014,-0.0482 -0.018,-10e-4 -0.002,0.0287 -0.0116,0.0779 -0.0217,0.10941 -0.009,0.0268 -0.0132,0.0408 -0.0108,0.0409 z m 0.0914,-0.62997 c 0.0142,0 0.0277,-0.002 0.0385,-0.006 0.0215,-0.009 0.004,-0.0156 -0.0385,-0.0156 -0.0431,0 -0.0612,0.008 -0.0397,0.0156 0.0108,0.004 0.0255,0.006 0.0397,0.006 z"
         sodipodi:nodetypes="cssscsscssssssssscsscsscssscsscccsscccsccscsssccccccccsccscscscssscscssssssssscsssssssscsscscsccccssscccsccccssscccssssscccssssssssscsssssccsssccsssscccsscscsssscsssssssscscsscscccsssssccssscsccssssccccccsccsscssssccsscccscssssscscsssssssssscssssscccscccscssscsssscsccccscsccssscsssccssssssccsssscccsssssssssssssccssccccscccssccsccsscscccscsccssccccccscssscsscccccssccsccscssssscccscscsscsssscsscccccccsccccccccscsssssccscsssssscsscscssssssssssssccscccssscccsccsssccscssssscsssscccsssssssssssscscccccsscscssccsssssscscccssssssssscsssscscsccccscccsccsscssscssssccccccsccccscssccscssssssccsssssssccccsscccccccsccssccsssccccsccsssssccsssssssscccscccccscccccscscs"
         transform="matrix(1.4027941,0,0,1.4027941,407.63087,-319.49123)" />
      <path
         style="fill:#000000;fill-opacity:1;fill-rule:nonzero;stroke:none;stroke-width:1"
         d="m 1192.7006,762.20615 c 0.1913,0.13663 0.2304,0.31638 0.074,0.59375 -0.1562,0.27723 -0.504,0.45703 -0.3868,0.55468 0.1174,0.0978 0.1562,0.29687 0.3477,0.59375 0.1953,0.30078 -0.582,0.59765 -0.5039,0.7539 0.082,0.16016 -0.8125,0.27723 -1.1992,0.33984 -0.3867,0.0587 -1.3594,0.17575 -1.9024,0.19531 -0.543,0.0227 -3.2226,-0.37499 -3.6484,-0.13663 -0.4297,0.2384 -0.8164,0.21884 -1.0117,0.27723 -0.1914,0.0587 -0.4649,0.49609 -0.7735,0.65234 -0.3086,0.16015 -1.8242,-0.017 -2.1328,0.1406 -0.3125,0.15618 -1.2461,0.33984 -1.707,0.3789 -0.4649,0.0391 -1.5117,-0.0227 -1.9414,0.0391 -0.4258,0.0587 -1.7852,-0.0626 -2.1328,-0.12104 -0.1874,-0.0312 -0.4844,-0.009 -0.8399,0.0198 l -15.6758,0.0283 -0.01,-0.0113 c -0.5937,0.0227 -1.5312,0.0142 -1.793,-0.017 -0.3086,-0.0391 -0.8554,-0.0391 -1.4726,-0.0198 -0.6211,0.0198 -1.4766,-0.0782 -2.0195,-0.0978 -0.543,-0.0198 -0.9727,0.11707 -1.4375,0.11707 -0.4649,0 -1.2774,-0.13663 -1.4727,-0.25399 -0.1953,-0.12501 -0.3867,-0.0626 -1.0078,0.0391 -0.6211,0.0978 -1.668,-0.24208 -1.9414,-0.21883 -0.2735,0.017 -1.5899,0.0782 -2.0547,0.0978 -0.4688,0.0198 -0.8555,-0.12104 -1.0508,-0.17972 -0.1953,-0.0587 -0.543,-0.16015 -1.0469,-0.0391 -0.5039,0.12104 -0.3906,-0.17972 -0.7773,-0.31641 -0.3867,-0.13663 -0.2305,-0.13663 -0.1953,-0.33984 0.039,-0.19531 0.3125,-0.41406 0.078,-0.57422 -0.2305,-0.15619 0.3125,-0.55468 0.1953,-0.69139 -0.1172,-0.1406 0,-0.67578 0,-0.67578 0,0 0.1562,-0.21884 -0.1953,-0.4375 -0.3477,-0.21487 -0.2695,-0.53516 0.039,-0.6914 0.3125,-0.16016 0.2734,-0.26164 -0.078,-0.33985 -0.3477,-0.0819 -0.4258,-0.35549 -0.4258,-0.49609 0,-0.13663 0.1562,-0.59377 -0.078,-0.65236 -0.2305,-0.0587 -0.4258,-0.57813 -0.4258,-0.57813 l 0.8555,0.0627 h 49.0859 l 0.5391,0.29687 c 0,0 -0.074,0.39455 0.039,0.53515 0.1171,0.1406 0.1171,0.37891 0.1171,0.37891 0,0 -0.2305,0.65236 -0.035,0.79299"
         id="path11579" />
    </g>
  </g>
</svg>
