<?xml version="1.0" encoding="UTF-8" standalone="no"?>
<!-- Created with Inkscape (http://www.inkscape.org/) -->

<svg
   width="12.923564mm"
   height="15.88037mm"
   viewBox="0 0 12.923564 15.88037"
   version="1.1"
   id="svg1"
   inkscape:version="1.3.2 (091e20e, 2023-11-25, custom)"
   sodipodi:docname="LW.svg"
   xmlns:inkscape="http://www.inkscape.org/namespaces/inkscape"
   xmlns:sodipodi="http://sodipodi.sourceforge.net/DTD/sodipodi-0.dtd"
   xmlns:xlink="http://www.w3.org/1999/xlink"
   xmlns="http://www.w3.org/2000/svg"
   xmlns:svg="http://www.w3.org/2000/svg">
  <sodipodi:namedview
     id="namedview1"
     pagecolor="#ffffff"
     bordercolor="#666666"
     borderopacity="1.0"
     inkscape:showpageshadow="2"
     inkscape:pageopacity="0.0"
     inkscape:pagecheckerboard="0"
     inkscape:deskcolor="#d1d1d1"
     inkscape:document-units="mm"
     inkscape:zoom="2.0970679"
     inkscape:cx="43.393922"
     inkscape:cy="77.489146"
     inkscape:window-width="3440"
     inkscape:window-height="1377"
     inkscape:window-x="-8"
     inkscape:window-y="-8"
     inkscape:window-maximized="1"
     inkscape:current-layer="rect1-9" />
  <defs
     id="defs1">
    <linearGradient
       inkscape:collect="always"
       xlink:href="#linearGradient3"
       id="linearGradient6"
       gradientUnits="userSpaceOnUse"
       x1="102.6459"
       y1="86.42524"
       x2="120.16719"
       y2="162.12617"
       gradientTransform="matrix(0.30275703,0,0,0.30275703,68.816619,74.567283)" />
    <linearGradient
       id="linearGradient3"
       inkscape:collect="always">
      <stop
         style="stop-color:#2b2b2b;stop-opacity:1;"
         offset="0"
         id="stop3" />
      <stop
         style="stop-color:#ffffff;stop-opacity:1;"
         offset="1"
         id="stop4" />
    </linearGradient>
    <linearGradient
       inkscape:collect="always"
       xlink:href="#linearGradient1"
       id="linearGradient7"
       gradientUnits="userSpaceOnUse"
       gradientTransform="matrix(0.28916456,0,0,0.308293,69.389365,73.734667)"
       x1="118.14017"
       y1="143.57944"
       x2="94.403618"
       y2="93.820709" />
    <linearGradient
       id="linearGradient1"
       inkscape:collect="always">
      <stop
         style="stop-color:#000000;stop-opacity:1;"
         offset="0"
         id="stop1" />
      <stop
         style="stop-color:#000000;stop-opacity:0;"
         offset="1"
         id="stop2" />
    </linearGradient>
    <linearGradient
       inkscape:collect="always"
       xlink:href="#linearGradient1"
       id="linearGradient10"
       gradientUnits="userSpaceOnUse"
       gradientTransform="matrix(0.94587938,0,0,0.94587938,-57.197695,-59.868766)"
       x1="176.13574"
       y1="171.32204"
       x2="193.38055"
       y2="238.38446" />
  </defs>
  <g
     inkscape:label="Layer 1"
     inkscape:groupmode="layer"
     id="layer1"
     transform="translate(-92.941406,-105.7207)">
    <g
       id="rect1-9">
      <path
         style="color:#000000;fill:url(#linearGradient7);stroke-width:0.302757;-inkscape-stroke:none;paint-order:markers stroke fill"
         d="m 94.130555,105.7207 c -0.629212,0 -1.189149,0.485 -1.189149,1.12351 v 13.75298 c 0,0.63851 0.559937,1.12351 1.189149,1.12351 h 10.642025 c 0.62921,0 1.18975,-0.485 1.18975,-1.12351 v -13.75298 c 0,-0.63851 -0.56054,-1.12351 -1.18975,-1.12351 z m 0,0.90827 h 10.642025 c 0.18531,0 0.28147,0.11203 0.28147,0.21524 v 13.75298 c 0,0.10321 -0.0961,0.21524 -0.28147,0.21524 H 94.130555 c -0.185301,0 -0.280878,-0.11203 -0.280878,-0.21524 v -13.75298 c 0,-0.10321 0.09557,-0.21524 0.280878,-0.21524 z"
         id="path10" />
      <path
         style="color:#000000;fill:url(#linearGradient6);stroke-width:0.302757;-inkscape-stroke:none;paint-order:markers stroke fill"
         d="m 94.13055,106.17458 h 10.64224 c 0.40726,0 0.73512,0.29858 0.73512,0.66944 v 13.75308 c 0,0.37087 -0.32786,0.66943 -0.73512,0.66943 H 94.13055 c -0.407257,0 -0.735121,-0.29856 -0.735121,-0.66943 v -13.75308 c 0,-0.37086 0.327864,-0.66944 0.735121,-0.66944 z"
         id="path11" />
    </g>
    <g
       id="text2-3"
       transform="matrix(0.30275703,0,0,0.30275703,64.802743,73.713016)">
      <path
         style="color:#000000;-inkscape-font-specification:'DejaVu Sans Bold Semi-Condensed';fill:#1a1a1a;-inkscape-stroke:none"
         d="m 103.70457,112.23201 h 7.64827 v 26.49341 h 13.40099 v 6.41397 h -21.04926 z"
         id="path12" />
      <path
         style="color:#000000;-inkscape-font-specification:'DejaVu Sans Bold Semi-Condensed';fill:url(#linearGradient10);-inkscape-stroke:none"
         d="m 102.53906,111.06641 v 35.23828 h 23.37891 v -8.74414 h -13.40039 v -26.49414 z m 2.33008,2.33007 h 5.31836 v 26.49414 h 13.40039 v 4.08399 h -18.71875 z"
         id="path13" />
    </g>
    <path
       style="font-weight:bold;font-stretch:semi-condensed;font-size:7.57049px;line-height:1.25;font-family:'DejaVu Sans';-inkscape-font-specification:'DejaVu Sans Bold Semi-Condensed';stroke-width:0.260992"
       d="m 94.337019,118.62824 h 0.358823 v 1.45588 h 0.628718 v 0.35248 h -0.987541 z m 2.057809,1.47891 h -0.560469 l -0.08894,0.32945 h -0.359858 l 0.514969,-1.80836 h 0.427074 l 0.51497,1.80836 h -0.360893 z m -0.471539,-0.33551 h 0.380541 l -0.189236,-0.71947 z m 0.772455,-1.1434 h 1.280184 v 0.35246 h -0.460161 v 1.4559 h -0.358826 v -1.4559 h -0.461197 z m 1.465284,0 h 0.966863 v 0.35246 h -0.608037 v 0.33672 h 0.571843 v 0.35247 h -0.571843 v 0.41423 h 0.628718 v 0.35248 h -0.987544 z m 1.23055,0.9181 h 0.584254 v 0.35248 h -0.584254 z m 0.649402,-0.9181 h 0.34331 l 0.2399,1.31417 0.23888,-1.31417 h 0.34538 l 0.23784,1.31417 0.2399,-1.31417 h 0.34125 l -0.32781,1.80836 H 101.286 l -0.2523,-1.37475 -0.24923,1.37475 h -0.41362 z m 2.96883,1.47891 h -0.56047 l -0.089,0.32945 h -0.35985 l 0.51496,-1.80836 h 0.42709 l 0.51496,1.80836 h -0.36089 z m -0.47154,-0.33551 h 0.38054 l -0.18924,-0.71947 z m 1.61212,-0.34157 q 0.11168,0 0.16029,-0.0545 0.0497,-0.0545 0.0497,-0.17926 0,-0.12356 -0.0497,-0.17685 -0.0486,-0.0533 -0.16029,-0.0533 h -0.15097 v 0.4639 z m -0.15097,0.32218 v 0.68435 h -0.35882 v -1.80836 h 0.54702 q 0.27506,0 0.40225,0.1199 0.12823,0.11992 0.12823,0.37912 0,0.17926 -0.0662,0.29433 -0.0662,0.11506 -0.20061,0.16957 0.0734,0.0218 0.13133,0.0993 0.0589,0.0763 0.11788,0.23256 l 0.1944,0.51356 h -0.38157 l -0.16855,-0.44937 q -0.0517,-0.13566 -0.10444,-0.18532 -0.0527,-0.0497 -0.1396,-0.0497 z"
       id="text2-4-0"
       aria-label="LATE-WAR" />
  </g>
</svg>
