<?xml version="1.0" encoding="UTF-8" standalone="no"?>
<!-- Created with Inkscape (http://www.inkscape.org/) -->

<svg
   width="6.7991757mm"
   height="8mm"
   viewBox="0 0 6.7991758 7.9999999"
   version="1.1"
   id="svg47190"
   inkscape:version="1.3.2 (091e20e, 2023-11-25, custom)"
   sodipodi:docname="Marine.svg"
   xml:space="preserve"
   xmlns:inkscape="http://www.inkscape.org/namespaces/inkscape"
   xmlns:sodipodi="http://sodipodi.sourceforge.net/DTD/sodipodi-0.dtd"
   xmlns="http://www.w3.org/2000/svg"
   xmlns:svg="http://www.w3.org/2000/svg"><sodipodi:namedview
     id="namedview47192"
     pagecolor="#ffffff"
     bordercolor="#666666"
     borderopacity="1.0"
     inkscape:pageshadow="2"
     inkscape:pageopacity="0.0"
     inkscape:pagecheckerboard="0"
     inkscape:document-units="mm"
     showgrid="false"
     inkscape:zoom="3.623347"
     inkscape:cx="12.695444"
     inkscape:cy="22.493015"
     inkscape:window-width="1920"
     inkscape:window-height="1017"
     inkscape:window-x="-8"
     inkscape:window-y="-8"
     inkscape:window-maximized="1"
     inkscape:current-layer="layer1"
     inkscape:snap-bbox="true"
     inkscape:snap-bbox-midpoints="true"
     inkscape:snap-page="true"
     inkscape:showpageshadow="2"
     inkscape:deskcolor="#d1d1d1" /><defs
     id="defs47187"><clipPath
       clipPathUnits="userSpaceOnUse"
       id="clipPath63680-8"><path
         d="M 0,0 H 595.276 V 841.89 H 0 Z"
         id="path63678-4" /></clipPath></defs><g
     inkscape:label="Layer 1"
     inkscape:groupmode="layer"
     id="layer1"
     transform="translate(-87.211377,-76.723206)"><g
       id="g15224"
       transform="matrix(0.21603375,0,0,0.21603375,74.694939,-67.427001)"><g
         id="g15514"><path
           id="path13918-6"
           style="fill:#b3b3b3;fill-opacity:1;fill-rule:nonzero;stroke:none"
           sodipodi:type="inkscape:offset"
           inkscape:radius="1.5086963"
           inkscape:original="M 59.445312 668.76562 L 59.445312 689.64062 C 59.449213 689.68753 59.460944 689.73042 59.464844 689.78125 C 59.523434 690.51953 59.691406 691.22266 59.921875 691.90625 C 59.957035 692.00781 59.992185 692.11719 60.027344 692.21875 C 60.109374 692.43359 60.195312 692.64845 60.292969 692.85938 C 62.46875 697.88282 68.289062 701.25 73.429688 702.78125 C 73.484377 702.78125 73.582031 702.76179 73.671875 702.74609 C 73.761715 702.76169 73.863281 702.78125 73.914062 702.78125 C 79.058594 701.25 84.878906 697.88282 87.054688 692.85938 C 87.152348 692.64845 87.238281 692.43359 87.316406 692.21875 C 87.355466 692.11719 87.390626 692.00781 87.425781 691.90234 C 87.652344 691.22656 87.820312 690.53125 87.878906 689.79688 C 87.882806 689.74608 87.898434 689.69141 87.902344 689.64062 L 87.902344 668.76562 L 59.445312 668.76562 z "
           d="m 59.445312,667.25781 a 1.5088472,1.5088472 0 0 0 -1.507812,1.50781 v 20.875 a 1.5088472,1.5088472 0 0 0 0.0039,0.125 c 0.01831,0.22017 0.02833,0.24558 0.01953,0.13086 a 1.5088472,1.5088472 0 0 0 0,0.004 c 0.0706,0.88967 0.271621,1.7182 0.53125,2.48828 a 1.5088472,1.5088472 0 0 0 0.0039,0.0117 c 0.0273,0.0788 0.06245,0.18824 0.105468,0.3125 a 1.5088472,1.5088472 0 0 0 0.01563,0.0449 c 0.08349,0.21865 0.178776,0.45559 0.291015,0.70117 5.84e-4,0.001 0.0014,0.003 0.002,0.004 2.46924,5.69584 8.667211,9.149 14.087891,10.76367 a 1.5088472,1.5088472 0 0 0 0.431641,0.0625 c 0.199068,0 0.175614,-0.0149 0.242187,-0.0273 0.06257,0.0123 0.02994,0.0273 0.242187,0.0273 a 1.5088472,1.5088472 0 0 0 0.429688,-0.0625 c 5.423852,-1.61439 11.621822,-5.06737 14.091797,-10.76172 0.110095,-0.24031 0.205538,-0.4769 0.289062,-0.70507 l 0.0039,-0.01 c 0.05723,-0.14997 0.0963,-0.27508 0.126953,-0.36719 l 0.002,-0.004 c 0.253665,-0.75736 0.454739,-1.5774 0.52539,-2.46289 a 1.5088472,1.5088472 0 0 0 0,-0.004 c -0.01332,0.17354 0.0023,0.11868 0.02344,-0.15625 a 1.5088472,1.5088472 0 0 0 0.0039,-0.11524 v -20.875 a 1.5088472,1.5088472 0 0 0 -1.507812,-1.50781 z" /><path
           style="fill:#000000;fill-opacity:1;fill-rule:nonzero;stroke:none"
           d="M 87.902344,668.76562 H 59.445312 v 20.875 c 0.0039,0.0469 0.01563,0.0898 0.01953,0.14063 0.05859,0.73828 0.226562,1.44141 0.457031,2.125 0.03516,0.10156 0.07031,0.21094 0.105469,0.3125 0.08203,0.21484 0.167968,0.42969 0.265625,0.64062 2.175781,5.02344 7.996093,8.39063 13.136719,9.92188 0.05469,0 0.152343,-0.0195 0.242187,-0.0352 0.08984,0.0156 0.191406,0.0352 0.242187,0.0352 5.144532,-1.53125 10.964844,-4.89844 13.140626,-9.92188 0.09766,-0.21093 0.183593,-0.42578 0.261718,-0.64062 0.03906,-0.10156 0.07422,-0.21094 0.109375,-0.31641 0.226563,-0.67578 0.394531,-1.37109 0.453125,-2.10547 0.0039,-0.0508 0.01953,-0.10546 0.02344,-0.15625 z m 0,0"
           id="path13918" /><g
           id="g41"
           transform="matrix(1.0115003,0,0,1.0115003,-54.077427,608.61486)"><g
             id="path4"
             inkscape:transform-center-x="1.75557"
             inkscape:transform-center-y="-10.920636"><path
               style="color:#000000;fill:#b19d6b;stroke-linecap:round;-inkscape-stroke:none"
               d="m 124.96359,60.512309 c -0.63724,-0.0094 -1.35579,0.725309 -1.38751,1.095541 -0.21906,0.328597 -0.47439,1.095023 -0.47439,1.095023 l 2.60863,-0.157096 -2.92282,4.728393 0.15451,16.161288 3.35639,-5.316988 3.35638,5.316988 0.15503,-16.161288 -1.26142,-2.040702 c -0.0317,-1.085939 -0.0796,-2.791268 -0.0796,-3.479891 0,-0.949283 -1.02216,-1.204578 -1.02216,-1.204578 z"
               id="path16" /><path
               style="color:#000000;fill:#000000;stroke-linecap:round;-inkscape-stroke:none"
               d="m 127.42188,60.646484 c 0,0 0.23966,0.0599 0.47851,0.230469 0.23886,0.17057 0.46875,0.438205 0.46875,0.876953 0,0.693262 0.0484,2.396374 0.0801,3.482422 v 0.02734 l 1.25976,2.039062 -0.15039,15.791016 -3.25976,-5.162109 -3.25977,5.162109 -0.15039,-15.791016 3.00781,-4.86914 -2.64843,0.160156 c 0.0254,-0.07324 0.0415,-0.12623 0.10156,-0.279297 0.0902,-0.230073 0.21097,-0.501029 0.27406,-0.662512 0.0631,-0.161482 0.23291,-0.43973 0.48383,-0.657795 0.25093,-0.218065 0.57582,-0.386938 0.71565,-0.384875 z m -2.45704,-0.234375 c -0.35759,-0.0053 -0.71269,0.190191 -0.98828,0.429688 -0.27559,0.239497 -0.47914,0.514314 -0.54151,0.702245 -0.0624,0.187932 -0.17878,0.462861 -0.27102,0.69815 -0.0922,0.23529 -0.1582,0.429688 -0.1582,0.429688 l -0.0449,0.140625 2.5625,-0.154297 -2.83594,4.587891 0.1582,16.529297 3.45313,-5.46875 3.45312,5.46875 0.15821,-16.529297 -1.26172,-2.041016 c -0.0317,-1.086819 -0.0801,-2.772181 -0.0801,-3.451172 0,-0.510533 -0.28051,-0.844664 -0.55274,-1.039062 -0.27222,-0.194399 -0.54492,-0.263672 -0.54492,-0.263672 l -0.0117,-0.002 z"
               id="path17"
               sodipodi:nodetypes="csscccccccccccscccscccccccccccssccc" /></g><g
             id="path3"><path
               style="color:#000000;fill:#b19d6b;-inkscape-stroke:none"
               d="M 113.98371,67.015974 V 82.84186 c 0,0 1.05851,-0.877782 1.05851,-2.530076 0,-1.652295 0.18072,-12.727834 0.18072,-12.727834 z"
               id="path28" /><path
               style="color:#000000;fill:#000000;-inkscape-stroke:none"
               d="m 113.88281,66.859375 1.24024,0.779297 c -0.002,0.09764 -0.18164,11.021625 -0.18164,12.673828 0,1.351973 -0.62655,2.028781 -0.85743,2.253906 V 67.015625 l -0.14257,0.0918 z m 0,0 v 0.15625 16.039062 l 0.16407,-0.136718 c 0,0 1.0957,-0.910468 1.0957,-2.605469 0,-1.645002 0.17969,-12.726563 0.17969,-12.726563 l 0.002,-0.06641 z"
               id="path29" /></g><g
             id="path5"><path
               style="color:#000000;fill:#b19d6b;-inkscape-stroke:none"
               d="m 115.86006,68.665927 v 15.825886 c 0,0 1.05851,-0.877782 1.05851,-2.530076 0,-1.652295 0.18072,-12.727834 0.18072,-12.727834 z"
               id="path26" /><path
               style="color:#000000;fill:#000000;-inkscape-stroke:none"
               d="M 115.75977,68.509766 117,69.287109 c -0.002,0.09432 -0.18164,11.021372 -0.18164,12.673828 0,1.350067 -0.62549,2.025494 -0.85742,2.251954 V 68.666016 l -0.14258,0.08984 z m 0,0 v 0.15625 16.039062 l 0.16406,-0.136719 c 0,0 1.0957,-0.91242 1.0957,-2.607422 0,-1.645001 0.17969,-12.724609 0.17969,-12.724609 l 0.002,-0.06641 z"
               id="path27" /></g><g
             id="path6"><path
               style="color:#000000;fill:#b19d6b;-inkscape-stroke:none"
               d="m 117.86792,67.369549 v 15.825886 c 0,0 1.05851,-0.877782 1.05851,-2.530076 0,-1.652295 0.18072,-12.727834 0.18072,-12.727834 z"
               id="path24" /><path
               style="color:#000000;fill:#000000;-inkscape-stroke:none"
               d="m 117.76758,67.212891 1.24023,0.779296 c -0.002,0.09764 -0.18164,11.021626 -0.18164,12.673829 0,1.350066 -0.62549,2.025494 -0.85742,2.251953 V 67.369141 l -0.14258,0.0918 z m 0,0 v 0.15625 16.039062 l 0.16406,-0.136719 c 0,0 1.0957,-0.910467 1.0957,-2.605468 0,-1.645002 0.17969,-12.726563 0.17969,-12.726563 l 0.002,-0.06641 z"
               id="path25" /></g><g
             id="path7"><path
               style="color:#000000;fill:#b19d6b;-inkscape-stroke:none"
               d="m 119.87388,68.172789 v 13.014547 c 0,0 1.05851,-0.877782 1.05851,-2.530076 0,-1.652295 0.18072,-9.916495 0.18072,-9.916495 z"
               id="path22" /><path
               style="color:#000000;fill:#000000;-inkscape-stroke:none"
               d="m 119.77344,68.017578 1.23828,0.777344 c -0.002,0.09332 -0.17969,8.213175 -0.17969,9.863281 0,1.350067 -0.62549,2.025494 -0.85742,2.251953 V 68.171875 l -0.14258,0.0918 z m 0,0 v 0.154297 13.228516 l 0.16406,-0.136719 c 0,0 1.0957,-0.910468 1.0957,-2.605469 0,-1.645002 0.17969,-9.916016 0.17969,-9.916016 l 0.002,-0.06445 z"
               id="path23" /></g><g
             id="path1"><path
               style="color:#000000;fill:#b19d6b;-inkscape-stroke:none"
               d="m 122.78735,67.274145 0.0516,5.111787 c 0,0 -0.77451,0.05163 -1.34248,-0.154902 -0.56798,-0.206537 -6.76409,-3.872566 -6.76409,-3.872566 l -0.25817,-2.839882 3.25296,-2.168637 c 0,0 0.10327,0.929416 0.15494,1.445758 0.41304,0.516343 1.29086,1.187587 2.2719,1.755563 0.89928,0.520641 2.63335,0.722879 2.63335,0.722879 z"
               id="path20" /><path
               style="color:#000000;fill:#000000;-inkscape-stroke:none"
               d="m 117.80859,63.175781 -3.43945,2.292969 0.26758,2.949219 0.0449,0.02734 c 0,0 1.54949,0.916813 3.16992,1.859375 0.81022,0.471282 1.63736,0.947177 2.29883,1.320313 0.33073,0.186568 0.62083,0.348155 0.8457,0.46875 0.22488,0.120595 0.3786,0.198395 0.4668,0.230469 0.60044,0.218338 1.38281,0.162109 1.38281,0.162109 l 0.0937,-0.0078 -0.0527,-5.205079 -0.0996,0.101563 0.0117,-0.199219 c 0,0 -0.0116,-0.0019 -0.0117,-0.002 -0.0102,-0.0012 -0.42431,-0.0508 -0.95898,-0.164062 -0.54121,-0.11464 -1.19267,-0.295753 -1.62305,-0.544922 -0.96621,-0.55939 -1.82598,-1.224517 -2.22656,-1.71875 -0.053,-0.524344 -0.15235,-1.40625 -0.15235,-1.40625 z m -0.16406,0.34961 c 0.019,0.171906 0.093,0.822796 0.13867,1.279296 l 0.002,0.03125 0.0195,0.02148 c 0.4298,0.5373 1.31061,1.209117 2.29883,1.78125 0.4689,0.271472 1.13294,0.449767 1.68359,0.566406 0.50161,0.106253 0.83169,0.143956 0.90039,0.152344 l 0.0488,4.917969 c -0.0995,0.0048 -0.70901,0.04171 -1.20508,-0.138672 -0.0538,-0.01956 -0.21872,-0.09933 -0.44141,-0.21875 -0.22268,-0.119423 -0.50982,-0.280631 -0.83984,-0.466797 -0.66005,-0.372333 -1.48902,-0.849271 -2.29883,-1.320313 -1.59686,-0.928852 -3.08044,-1.808777 -3.12304,-1.833984 l -0.24805,-2.728516 z"
               id="path21" /></g><g
             id="path2"><path
               style="color:#000000;fill:#b19d6b;-inkscape-stroke:none"
               d="m 117.80751,62.50221 0.0183,1.697757 -2.72006,1.496947 c 0,0 -0.0548,2.555763 -0.0548,4.399563 0,1.843801 -1.3509,3.21296 -1.3509,3.21296 l 0.2008,-7.904611 c 0,0 0.54767,-1.204859 1.62474,-1.898566 1.07707,-0.693708 1.40567,-0.894517 1.6795,-0.949284 0.27383,-0.05477 0.60243,-0.05477 0.60243,-0.05477 z"
               id="path18" /><path
               style="color:#000000;fill:#000000;-inkscape-stroke:none"
               d="m 117.80664,62.402344 c 0,0 -0.33218,-0.0011 -0.62109,0.05664 -0.30484,0.06097 -0.63738,0.268927 -1.71485,0.962891 -1.10841,0.713892 -1.66015,1.941406 -1.66015,1.941406 l -0.01,0.01953 -0.20703,8.177735 0.17773,-0.181641 c 0,0 1.37891,-1.390559 1.37891,-3.283203 0,-1.817274 0.0533,-4.271262 0.0547,-4.337891 l 2.7207,-1.5 -0.0176,-1.755859 -0.0644,0.09375 z m -0.0977,0.208984 0.0156,1.529297 -2.7168,1.496094 -0.002,0.05859 c 0,0 -0.0547,2.554612 -0.0547,4.400391 0,1.550588 -0.87394,2.595845 -1.14258,2.898438 L 114,65.433594 c 0.01,-0.02087 0.54372,-1.176266 1.58008,-1.84375 1.07667,-0.693451 1.40171,-0.886982 1.64453,-0.935547 0.21529,-0.04306 0.40295,-0.0415 0.48437,-0.04297 z"
               id="path19" /></g><g
             id="path8"><path
               style="color:#000000;fill:#b19d6b;-inkscape-stroke:none"
               d="M 138.61323,67.015974 V 82.84186 c 0,0 -1.05851,-0.877782 -1.05851,-2.530076 0,-1.652295 -0.18072,-12.727834 -0.18072,-12.727834 z"
               id="path40" /><path
               style="color:#000000;fill:#000000;-inkscape-stroke:none"
               d="m 138.71289,66.859375 -1.43945,0.660156 v 0.06641 c 0,0 0.18164,11.081561 0.18164,12.726563 0,1.695001 1.09375,2.605469 1.09375,2.605469 l 0.16406,0.136718 z m -0.19922,0.3125 v 15.394531 c -0.23088,-0.225125 -0.85937,-0.901933 -0.85937,-2.253906 0,-1.65093 -0.17783,-12.549754 -0.17969,-12.664063 z"
               id="path41" /></g><g
             id="path9"><path
               style="color:#000000;fill:#b19d6b;-inkscape-stroke:none"
               d="m 136.73688,68.665927 v 15.825886 c 0,0 -1.05851,-0.877782 -1.05851,-2.530076 0,-1.652295 -0.18072,-12.727834 -0.18072,-12.727834 z"
               id="path38" /><path
               style="color:#000000;fill:#000000;-inkscape-stroke:none"
               d="m 136.83594,68.509766 -1.43946,0.660156 0.002,0.06641 c 0,0 0.17968,11.079608 0.17968,12.724609 0,1.695002 1.09571,2.607422 1.09571,2.607422 l 0.16211,0.136719 z m -0.19922,0.310546 v 15.394532 c -0.23088,-0.225126 -0.85742,-0.901934 -0.85742,-2.253907 0,-1.651183 -0.17983,-12.553066 -0.18164,-12.664062 z"
               id="path39" /></g><g
             id="path10"><path
               style="color:#000000;fill:#b19d6b;-inkscape-stroke:none"
               d="m 134.72902,67.369549 v 15.825886 c 0,0 -1.05851,-0.877782 -1.05851,-2.530076 0,-1.652295 -0.18072,-12.727834 -0.18072,-12.727834 z"
               id="path36" /><path
               style="color:#000000;fill:#000000;-inkscape-stroke:none"
               d="m 134.82812,67.212891 -1.43945,0.660156 0.002,0.06641 c 0,0 0.17969,11.081561 0.17969,12.726563 0,1.695001 1.09571,2.605468 1.09571,2.605468 l 0.1621,0.136719 z m -0.19921,0.3125 v 15.394531 c -0.23088,-0.225126 -0.85743,-0.901934 -0.85743,-2.253906 0,-1.65093 -0.17977,-12.549755 -0.18164,-12.664063 z"
               id="path37" /></g><g
             id="path11"><path
               style="color:#000000;fill:#b19d6b;-inkscape-stroke:none"
               d="m 132.72306,68.172789 v 13.014547 c 0,0 -1.05851,-0.877782 -1.05851,-2.530076 0,-1.652295 -0.18072,-9.916495 -0.18072,-9.916495 z"
               id="path34" /><path
               style="color:#000000;fill:#000000;-inkscape-stroke:none"
               d="m 132.82227,68.017578 -1.43946,0.660156 0.002,0.06445 c 0,0 0.17968,8.271014 0.17968,9.916016 0,1.695001 1.09571,2.605469 1.09571,2.605469 l 0.16211,0.136719 z m -0.19922,0.310547 v 12.583984 c -0.23088,-0.225125 -0.85938,-0.901933 -0.85938,-2.253906 0,-1.648473 -0.17534,-9.744319 -0.17773,-9.853516 z"
               id="path35" /></g><g
             id="path12"><path
               style="color:#000000;fill:#b19d6b;-inkscape-stroke:none"
               d="m 129.80959,67.274145 -0.0516,5.111787 c 0,0 0.77451,0.05163 1.34248,-0.154902 0.56798,-0.206537 6.76409,-3.872566 6.76409,-3.872566 l 0.25817,-2.839882 -3.25296,-2.168637 c 0,0 -0.10327,0.929416 -0.15494,1.445758 -0.41304,0.516343 -1.29086,1.187587 -2.2719,1.755563 -0.89928,0.520641 -2.63335,0.722879 -2.63335,0.722879 z"
               id="path32" /><path
               style="color:#000000;fill:#000000;-inkscape-stroke:none"
               d="m 134.78906,63.175781 -0.0195,0.164063 c 0,0 -0.0974,0.881905 -0.15039,1.40625 -0.40058,0.494233 -1.26035,1.15936 -2.22656,1.71875 -0.43038,0.249169 -1.08379,0.430282 -1.625,0.544922 -0.53467,0.113254 -0.94683,0.162864 -0.95703,0.164062 -1.3e-4,1.5e-5 -0.0117,0.002 -0.0117,0.002 l 0.0117,0.199219 -0.10157,-0.101563 -0.0527,5.205079 0.0957,0.0078 c 0,0 0.78238,0.05623 1.38282,-0.162109 0.0882,-0.03207 0.24192,-0.109874 0.46679,-0.230469 0.22488,-0.120595 0.51302,-0.282182 0.84375,-0.46875 0.66147,-0.373136 1.49057,-0.849031 2.30078,-1.320313 1.62044,-0.942562 3.16993,-1.859374 3.16993,-1.859375 l 0.043,-0.02734 0.26954,-2.949219 z m 0.16211,0.34961 3.06641,2.042968 -0.24805,2.728516 c -0.0426,0.0252 -1.52812,0.905126 -3.125,1.833984 -0.8098,0.471042 -1.63683,0.94798 -2.29687,1.320313 -0.33003,0.186166 -0.61716,0.347374 -0.83985,0.466797 -0.22269,0.119422 -0.38761,0.19919 -0.4414,0.21875 -0.49613,0.180408 -1.10765,0.143455 -1.20704,0.138672 l 0.0488,-4.917969 c 0.0686,-0.0084 0.40064,-0.04607 0.90235,-0.152344 0.55064,-0.116639 1.21274,-0.294934 1.68164,-0.566406 0.98822,-0.572133 1.87097,-1.24395 2.30078,-1.78125 l 0.0176,-0.02148 0.004,-0.03125 c 0.0457,-0.456491 0.11769,-1.107371 0.13672,-1.279296 z"
               id="path33" /></g><g
             id="path13"><path
               style="color:#000000;fill:#b19d6b;-inkscape-stroke:none"
               d="m 134.78943,62.50221 -0.0183,1.697757 2.72006,1.496947 c 0,0 0.0548,2.555763 0.0548,4.399563 0,1.843801 1.3509,3.21296 1.3509,3.21296 l -0.2008,-7.904611 c 0,0 -0.54767,-1.204859 -1.62474,-1.898566 -1.07707,-0.693708 -1.40567,-0.894517 -1.6795,-0.949284 -0.27383,-0.05477 -0.60243,-0.05477 -0.60243,-0.05477 z"
               id="path30" /><path
               style="color:#000000;fill:#000000;-inkscape-stroke:none"
               d="m 134.78906,62.402344 -0.0371,0.193359 -0.0625,-0.09375 -0.0195,1.755859 2.7207,1.498047 c 0.001,0.06445 0.0547,2.521752 0.0547,4.339844 0,1.892644 1.38086,3.283203 1.38086,3.283203 l 0.17774,0.181641 -0.20899,-8.177735 -0.008,-0.01953 c 0,0 -0.5537,-1.227514 -1.66211,-1.941406 -1.07747,-0.693964 -1.40805,-0.901922 -1.71289,-0.962891 -0.28892,-0.05779 -0.62305,-0.05664 -0.62305,-0.05664 z m 0.0996,0.208984 c 0.0823,0.0015 0.2698,5e-5 0.48438,0.04297 0.24282,0.04857 0.56786,0.242096 1.64453,0.935547 1.03345,0.665615 1.56555,1.812646 1.57812,1.839843 l 0.19336,7.564454 c -0.26844,-0.302343 -1.14258,-1.347595 -1.14258,-2.898438 0,-1.845779 -0.0547,-4.40039 -0.0547,-4.400391 l -0.002,-0.05859 -2.71875,-1.496094 z"
               id="path31" /></g><g
             id="rect3"
             transform="rotate(45)"><path
               style="color:#000000;fill:#b19d6b;stroke-linecap:round;-inkscape-stroke:none"
               d="m 144.54445,-34.068584 h 9.38203 v 9.382082 h -9.38203 z"
               id="path14" /><path
               style="color:#000000;fill:#000000;stroke-linecap:round;-inkscape-stroke:none"
               d="m 144.44531,-34.167969 v 9.582032 h 9.58203 v -9.582032 z m 0.19922,0.199219 h 9.18164 v 9.181641 h -9.18164 z"
               id="path15" /></g></g></g></g></g></svg>
