<?xml version="1.0" encoding="UTF-8" standalone="no"?>
<!-- Created with Inkscape (http://www.inkscape.org/) -->

<svg
   width="13.971395mm"
   height="4.7929888mm"
   viewBox="0 0 13.971395 4.7929888"
   version="1.1"
   id="svg5"
   sodipodi:docname="inkporter-svg-1zhk8ahw.svg"
   xmlns:inkscape="http://www.inkscape.org/namespaces/inkscape"
   xmlns:sodipodi="http://sodipodi.sourceforge.net/DTD/sodipodi-0.dtd"
   xmlns="http://www.w3.org/2000/svg"
   xmlns:svg="http://www.w3.org/2000/svg">
  <sodipodi:namedview
     id="namedview7"
     pagecolor="#ffffff"
     bordercolor="#666666"
     borderopacity="1.0"
     inkscape:pageshadow="2"
     inkscape:pageopacity="0.0"
     inkscape:pagecheckerboard="0"
     inkscape:document-units="mm"
     showgrid="false"
     inkscape:snap-bbox="true"
     inkscape:snap-bbox-edge-midpoints="false"
     inkscape:snap-bbox-midpoints="true"
     showguides="true"
     inkscape:guide-bbox="true"
     inkscape:zoom="0.93859299"
     inkscape:cx="214.15033"
     inkscape:cy="554.55347"
     inkscape:window-width="1920"
     inkscape:window-height="1017"
     inkscape:window-x="-8"
     inkscape:window-y="-8"
     inkscape:window-maximized="1"
     inkscape:current-layer="layer1">
    <sodipodi:guide
       position="97.355442,91.297603"
       orientation="0,-1"
       id="guide11681" />
  </sodipodi:namedview>
  <defs
     id="defs2" />
  <g
     inkscape:label="Layer 1"
     inkscape:groupmode="layer"
     id="layer1"
     transform="translate(-66.492881,-133.64588)">
    <g
       id="H-HMG"
       transform="matrix(0.38582186,0,0,-0.38582186,-138.12814,426.84891)">
      <path
         id="path42018-0-7"
         style="fill:#000000;stroke-width:0.0262677"
         sodipodi:type="inkscape:offset"
         inkscape:radius="-0.1"
         inkscape:original="M 555.24219 747.5918 C 555.19166 747.5918 555.00737 747.63841 554.83398 747.69531 C 554.66059 747.75224 554.42028 747.82417 554.30078 747.85547 C 554.18128 747.88693 554.03376 747.94708 553.97266 747.98828 C 553.91157 748.02965 553.77881 748.09366 553.67773 748.13086 C 553.32567 748.26045 553.13052 748.45695 553.02734 748.78516 C 552.97924 748.94035 552.97066 749.02677 552.97266 749.3125 C 552.97586 749.63716 552.98036 749.6639 553.06836 749.88867 C 553.12842 750.04211 553.17543 750.22838 553.20312 750.41797 C 553.25132 750.74906 553.29665 750.91868 553.40234 751.16406 C 553.44274 751.25796 553.48419 751.37092 553.49219 751.41602 C 553.50842 751.49252 553.5044 751.50056 553.4082 751.53906 C 553.35147 751.56166 553.29511 751.59935 553.28711 751.62305 C 553.2794 751.64675 553.28106 751.74776 553.28906 751.84766 L 553.30469 752.03125 L 553.18359 752.03125 C 553.11672 752.03125 552.87086 752.01253 552.63672 751.99023 C 552.30934 751.95903 552.16955 751.95516 552.03125 751.97656 C 551.85756 752.00336 551.7636 751.98783 551.7207 751.92383 C 551.7137 751.91303 551.71942 751.68619 551.73242 751.41992 C 551.75342 750.98683 551.74942 750.89415 551.69922 750.54102 L 551.64258 750.14648 L 551.70117 749.99219 C 551.77837 749.78222 551.78624 749.27913 551.71484 749.14844 C 551.65343 749.03604 551.4955 748.95885 551.28711 748.93945 C 551.13218 748.92505 551.10358 748.93087 550.94336 749.00977 C 550.77376 749.09327 550.76532 749.09398 550.69922 749.05078 C 550.323 748.80478 549.46516 748.65602 549.14062 748.78125 C 548.9715 748.84646 548.9375 748.9039 548.9375 749.11914 C 548.9375 749.27898 548.94538 749.30452 549.01758 749.38672 C 549.08289 749.46108 549.1309 749.48688 549.2832 749.52148 C 549.50826 749.57267 549.6194 749.61647 549.73242 749.70117 C 549.77937 749.73635 549.90887 749.80888 550.02148 749.86328 C 550.13409 749.91765 550.24914 749.99144 550.27734 750.02734 C 550.34594 750.11458 550.34408 750.24663 550.26758 750.46875 C 550.20868 750.63984 550.20431 750.6969 550.19141 751.42578 C 550.17991 752.07455 550.16841 752.22474 550.12891 752.3457 C 550.09671 752.44463 550.08257 752.57208 550.08203 752.75195 C 550.08143 752.98692 550.08835 753.03187 550.15625 753.17969 C 550.26172 753.40925 550.45023 753.57827 550.70703 753.67188 C 550.81506 753.71122 550.92974 753.76943 550.96094 753.80273 C 551.05246 753.90015 551.15932 754.31798 551.27539 755.02148 C 551.30479 755.20016 551.34613 755.38263 551.36523 755.42773 C 551.39419 755.49622 551.56733 755.73845 551.78125 756.00977 C 551.80638 756.04165 551.96358 756.33235 552.13086 756.6543 C 552.29816 756.97623 552.4772 757.30602 552.5293 757.38672 C 552.75208 757.73244 552.80766 757.84635 552.80859 757.96875 C 552.81027 758.13689 552.70708 758.25994 552.50391 758.33594 C 552.35326 758.39227 552.2207 758.51069 552.2207 758.58789 C 552.2207 758.65073 552.28931 758.7613 552.37891 758.8457 C 552.47491 758.93629 552.54672 759.06886 552.57422 759.20117 C 552.60649 759.35672 552.74253 759.61385 552.83203 759.68945 C 552.96561 759.8024 553.265 759.93032 553.50781 759.97852 C 554.10414 760.09697 554.71262 759.87942 554.91406 759.47656 C 554.98956 759.32387 554.99322 759.30848 554.99414 758.93945 C 554.99606 758.516 555.0094 758.46664 555.17383 758.30859 C 555.23683 758.24805 555.26758 758.19428 555.26758 758.14648 C 555.26758 758.05263 555.15717 757.92567 555.04492 757.88867 L 554.95703 757.85938 L 555.04883 757.67578 L 555.14258 757.49414 L 555.33789 757.49414 C 555.5594 757.49414 555.69161 757.44852 555.75391 757.35352 C 555.77727 757.31785 555.85418 757.1544 555.92578 756.99023 C 555.99729 756.82602 556.06808 756.66998 556.08398 756.64258 C 556.15678 756.51759 556.23952 756.24323 556.29102 755.95508 C 556.38818 755.41107 556.422 755.29394 556.5 755.21484 C 556.53946 755.17472 556.71866 754.99904 556.89844 754.82422 C 557.17175 754.55839 557.24713 754.49924 557.36328 754.46094 C 557.51185 754.412 557.54634 754.37481 557.61914 754.17773 C 557.66344 754.06102 557.66355 754.04515 557.62305 753.93945 C 557.59931 753.8773 557.52132 753.75717 557.44922 753.67188 C 557.29922 753.49449 557.29199 753.44773 557.37109 753.20312 C 557.5906 752.5238 557.61347 752.4393 557.67188 752.10938 C 557.74595 751.69172 557.70859 751.50554 557.51953 751.36133 C 557.41219 751.27923 557.35058 751.27651 557.22656 751.34961 C 557.14054 751.40021 557.11984 751.40355 557.02734 751.37305 C 556.90143 751.33145 556.60563 751.35201 556.46094 751.41211 C 556.40483 751.43548 556.31542 751.48438 556.26172 751.52148 C 556.208 751.55868 556.14505 751.58222 556.12305 751.57422 C 556.08875 751.56109 556.09642 751.52713 556.16602 751.3418 C 556.33237 750.89904 556.32254 750.94361 556.27734 750.79102 C 556.23654 750.65363 556.23587 750.65307 556.29688 750.60547 C 556.69475 750.29568 556.76823 750.16151 556.70312 749.84961 C 556.66341 749.65913 556.60132 749.52126 556.46094 749.30859 L 556.37305 749.17383 L 556.37305 748.66016 C 556.37305 748.20978 556.36657 748.14175 556.32617 748.09375 C 556.30089 748.06367 556.06669 747.93765 555.80664 747.81445 C 555.49374 747.66613 555.30309 747.59182 555.24219 747.5918 z M 552.58594 754.04102 C 552.59545 754.03512 552.64923 754.04836 552.70703 754.06836 C 552.76479 754.08846 552.85791 754.10526 552.91211 754.10547 C 553.02361 754.10592 553.02546 754.1114 552.97266 754.29883 C 552.95186 754.37233 552.91758 754.56061 552.89648 754.7168 C 552.84774 755.07856 552.81598 755.12083 552.77148 754.88281 C 552.75876 754.81519 552.7101 754.71468 552.6582 754.64648 C 552.55559 754.51206 552.52448 754.3746 552.55078 754.18359 C 552.56068 754.11159 552.57794 754.04702 552.58594 754.04102 z "
         d="m 555.24219,747.69141 c 0.005,0 -0.0614,0.009 -0.13281,0.0273 -0.0714,0.0181 -0.15974,0.0446 -0.24415,0.0723 -0.17568,0.0577 -0.41502,0.12962 -0.53906,0.1621 -0.10874,0.0286 -0.26023,0.0925 -0.29687,0.11719 -0.0771,0.0522 -0.20707,0.11406 -0.31641,0.1543 -0.33255,0.12241 -0.49406,0.28515 -0.58984,0.58984 -0.0458,0.1478 -0.0527,0.2153 -0.0508,0.4961 0.003,0.32379 0.002,0.31767 0.0898,0.54101 0.0636,0.16253 0.11195,0.3564 0.14062,0.55274 0.0476,0.32706 0.0882,0.48116 0.19141,0.7207 0.0421,0.0978 0.0823,0.19812 0.0957,0.27344 0.004,0.0189 0.009,0.0373 0.01,0.0605 8.2e-4,0.0248 -0.004,0.0596 -0.0234,0.0879 -0.038,0.0565 -0.081,0.066 -0.13086,0.0859 -0.0212,0.008 -0.0437,0.021 -0.0586,0.0312 -0.0149,0.0102 -0.0175,0.0306 -0.004,-0.01 0.005,-0.0149 6.1e-4,-0.005 0,0.006 -6.1e-4,0.0109 -2.1e-4,0.0261 0,0.0449 4.2e-4,0.0377 0.002,0.0869 0.006,0.13476 l 0.0156,0.1836 a 0.10001,0.10001 0 0 1 -0.0996,0.10742 h -0.1211 c -0.0855,0 -0.32118,-0.0186 -0.55664,-0.041 -0.32548,-0.031 -0.45364,-0.0332 -0.58007,-0.0137 -0.0924,0.0143 -0.16793,0.0174 -0.23633,0.006 -0.0684,-0.0115 -0.13566,-0.0446 -0.17383,-0.10156 a 0.10001,0.10001 0 0 1 0,-0.002 c -1.1e-4,-1.7e-4 -0.01,-0.0193 -0.01,-0.0195 -10e-5,-2.7e-4 -0.003,-0.009 -0.004,-0.0117 -0.002,-0.006 -0.001,-0.0102 -0.002,-0.0137 -0.001,-0.007 -0.002,-0.0121 -0.002,-0.0176 -6.9e-4,-0.011 -0.002,-0.0226 -0.002,-0.0371 -2.7e-4,-0.029 8.5e-4,-0.067 0.002,-0.11329 0.002,-0.0926 0.007,-0.2158 0.0137,-0.3496 0.0209,-0.43179 0.0168,-0.50988 -0.0332,-0.86133 l -0.0566,-0.39453 a 0.10001,0.10001 0 0 1 0.006,-0.0488 l 0.0586,-0.1543 c 0.0301,-0.0817 0.0541,-0.2569 0.0566,-0.41797 0.001,-0.0805 -0.002,-0.15787 -0.01,-0.2207 -0.007,-0.0628 -0.0228,-0.11279 -0.0274,-0.12109 -0.0361,-0.066 -0.16095,-0.14064 -0.34961,-0.15821 -0.15132,-0.0141 -0.13132,-0.0171 -0.28906,0.0606 -0.0853,0.042 -0.13009,0.0664 -0.18945,0.0762 -0.0297,0.005 -0.0649,0.002 -0.0918,-0.008 -0.0269,-0.01 -0.0451,-0.0218 -0.0625,-0.0332 -0.1667,-0.10901 -0.46922,-0.20914 -0.76172,-0.25977 -0.29249,-0.0506 -0.58477,-0.0472 -0.70703,0 -0.0775,0.0299 -0.10212,0.0485 -0.11523,0.0703 -0.0131,0.0219 -0.0234,0.0715 -0.0234,0.17383 0,0.0783 0.005,0.11721 0.01,0.13477 0.005,0.0176 0.011,0.0278 0.0449,0.0664 0.0568,0.0647 0.0666,0.0703 0.21289,0.10352 0.23014,0.0524 0.36332,0.10362 0.48828,0.19726 0.0291,0.0218 0.16318,0.10003 0.27148,0.15235 0.0602,0.0291 0.11974,0.0616 0.16993,0.0937 0.0502,0.0322 0.0867,0.0539 0.12109,0.0976 0.0497,0.0632 0.0741,0.14616 0.0723,0.23438 -0.002,0.0882 -0.0263,0.18614 -0.0664,0.30273 -0.0286,0.083 -0.0392,0.12326 -0.0488,0.24414 -0.01,0.12088 -0.015,0.31736 -0.0215,0.68164 -0.0115,0.64968 -0.0211,0.81049 -0.0664,0.94922 -0.027,0.0831 -0.0424,0.20023 -0.043,0.375 -5.9e-4,0.23298 6.4e-4,0.24355 0.0664,0.38672 0.0944,0.20541 0.25893,0.35372 0.49414,0.43945 0.0582,0.0212 0.11569,0.0465 0.16601,0.0723 0.0503,0.0258 0.0875,0.0439 0.125,0.084 0.0813,0.0865 0.11796,0.21634 0.17188,0.42578 0.0539,0.20943 0.1116,0.49222 0.16992,0.8457 0.0144,0.0873 0.0309,0.17651 0.0469,0.24805 0.0159,0.0715 0.0344,0.13295 0.0352,0.13476 0.003,0.007 0.0565,0.094 0.12891,0.19531 0.0724,0.1013 0.16731,0.22869 0.27344,0.36329 0.0206,0.0262 0.0293,0.0443 0.0508,0.082 0.0214,0.0377 0.0482,0.0877 0.0801,0.14648 0.0638,0.11763 0.14465,0.27022 0.22852,0.43164 0.16672,0.32082 0.35314,0.6605 0.39453,0.72461 0.11205,0.17388 0.1828,0.29171 0.22852,0.38672 0.0457,0.095 0.0658,0.1739 0.0664,0.25 6e-4,0.10405 -0.0326,0.20307 -0.0976,0.28125 -0.0655,0.0787 -0.15852,0.13743 -0.27149,0.17969 -0.0628,0.0235 -0.12439,0.0625 -0.16601,0.0996 -0.0416,0.0371 -0.0527,0.0772 -0.0527,0.0586 0,-0.005 0.008,0.0308 0.0312,0.0684 0.0231,0.0375 0.0575,0.0812 0.0957,0.11719 0.11331,0.10693 0.19276,0.25496 0.22461,0.4082 0.0127,0.0611 0.0517,0.15907 0.0977,0.24609 0.046,0.087 0.10582,0.1677 0.12695,0.18555 0.10576,0.0894 0.4058,0.2229 0.63086,0.26758 0.56063,0.11136 1.12502,-0.10553 1.29688,-0.44922 0.0374,-0.0757 0.05,-0.10166 0.0586,-0.1582 0.009,-0.0565 0.0113,-0.1498 0.0117,-0.33399 9.7e-4,-0.21275 0.003,-0.33562 0.0332,-0.4414 0.03,-0.10578 0.0928,-0.18003 0.17774,-0.26172 0.0534,-0.0513 0.0625,-0.0849 0.0625,-0.0898 0,-0.008 -0.0138,-0.048 -0.0449,-0.084 -0.0312,-0.036 -0.0763,-0.0672 -0.10938,-0.0781 l -0.0879,-0.0293 a 0.10001,0.10001 0 0 1 -0.0586,-0.14063 l 0.0918,-0.18359 a 0.10001,0.10001 0 0 1 0.002,0 l 0.0937,-0.18164 a 0.10001,0.10001 0 0 1 0.0879,-0.0547 h 0.19531 c 0.20778,0 0.29726,-0.0427 0.33203,-0.0957 8.9e-4,-0.001 0.03,-0.0564 0.0605,-0.1211 0.0306,-0.0647 0.0681,-0.14535 0.10351,-0.22656 0.0359,-0.0826 0.0726,-0.16294 0.10157,-0.22656 0.0289,-0.0636 0.0455,-0.10356 0.0625,-0.13281 0.0573,-0.0985 0.14514,-0.37359 0.19531,-0.6543 0.0487,-0.27276 0.0807,-0.43972 0.11328,-0.55469 0.0326,-0.11496 0.0718,-0.1863 0.12305,-0.23828 0.0438,-0.0445 0.21891,-0.218 0.39843,-0.39258 0.1373,-0.13353 0.22695,-0.21569 0.30079,-0.27343 0.0738,-0.0577 0.13662,-0.0914 0.20312,-0.11329 0.0693,-0.0228 0.0931,-0.0344 0.11328,-0.0566 0.0202,-0.0223 0.0448,-0.0704 0.0801,-0.16601 0.0216,-0.057 0.0272,-0.0803 0.0273,-0.0898 1.6e-4,-0.01 -0.004,-0.0269 -0.0234,-0.0781 -0.013,-0.0341 -0.0911,-0.16119 -0.15625,-0.23828 -0.0773,-0.0914 -0.13283,-0.16354 -0.14844,-0.25781 -0.0156,-0.0943 0.0104,-0.18172 0.0508,-0.30664 0.21939,-0.67895 0.24069,-0.75169 0.29883,-1.08008 0.0361,-0.20347 0.0408,-0.34408 0.0215,-0.43946 -0.0194,-0.0954 -0.0562,-0.14949 -0.13672,-0.21093 -0.0468,-0.0358 -0.0689,-0.0443 -0.084,-0.0449 -0.0151,-6.1e-4 -0.0424,0.006 -0.0977,0.0391 -0.0452,0.0266 -0.0849,0.0484 -0.13672,0.0547 -0.0518,0.006 -0.0951,-0.005 -0.14453,-0.0215 -0.0361,-0.0119 -0.13821,-0.0206 -0.23828,-0.0137 -0.10006,0.007 -0.20403,0.0265 -0.25781,0.0488 -0.0452,0.0188 -0.13684,0.0686 -0.18164,0.0996 -0.0338,0.0234 -0.0674,0.0417 -0.10156,0.0547 -0.0171,0.006 -0.0339,0.0124 -0.0527,0.0156 -0.0189,0.003 -0.0395,0.007 -0.0742,-0.006 a 0.10001,0.10001 0 0 1 -0.002,0 c -0.0232,-0.009 -0.0622,-0.0374 -0.0762,-0.0742 -0.014,-0.0368 -0.009,-0.0648 -0.004,-0.0898 0.01,-0.0502 0.0294,-0.10385 0.0645,-0.19727 0.0833,-0.22181 0.12199,-0.3249 0.13085,-0.36914 0.004,-0.0221 0.005,-0.0255 0.002,-0.0391 -0.003,-0.0135 -0.0115,-0.0378 -0.0234,-0.0781 -0.0204,-0.0686 -0.0376,-0.10362 -0.0312,-0.16601 0.003,-0.0312 0.0196,-0.0662 0.0371,-0.0859 0.0175,-0.0198 0.0334,-0.029 0.0488,-0.041 0.19577,-0.15243 0.30242,-0.25816 0.34961,-0.3457 0.0472,-0.0875 0.05,-0.16672 0.0195,-0.3125 -0.0374,-0.17953 -0.0916,-0.29846 -0.22852,-0.50586 l -0.0879,-0.13476 a 0.10001,0.10001 0 0 1 -0.0156,-0.0547 v -0.51367 c 0,-0.22471 -0.002,-0.3542 -0.008,-0.42578 -0.006,-0.0698 -0.009,-0.0667 -0.0156,-0.0742 -0.006,-0.005 -0.0177,-0.0113 -0.0312,-0.0195 -0.0271,-0.0165 -0.0652,-0.0397 -0.11133,-0.0644 -0.0922,-0.0496 -0.21515,-0.11095 -0.34375,-0.17187 -0.15519,-0.0736 -0.2802,-0.12832 -0.37109,-0.16407 -0.0909,-0.0357 -0.16058,-0.0488 -0.15039,-0.0488 z m -2.65821,6.24804 c 0.0109,-7.1e-4 0.0201,0.001 0.0273,0.002 0.0144,0.001 0.0255,0.003 0.0391,0.006 0.027,0.006 0.0583,0.0164 0.0898,0.0273 0.0426,0.0148 0.1379,0.0311 0.17188,0.0312 0.0287,1.2e-4 0.0526,-0.002 0.0859,0.006 0.0334,0.008 0.0875,0.045 0.10156,0.0898 0.0141,0.0449 0.007,0.0747 0,0.10742 -0.007,0.0327 -0.018,0.0701 -0.0312,0.11719 -0.0165,0.0581 -0.0517,0.25178 -0.0723,0.4043 -0.0123,0.0916 -0.0238,0.16348 -0.0351,0.21875 -0.0114,0.0553 -0.0116,0.0852 -0.0488,0.13476 -0.005,0.006 -0.009,0.0145 -0.0176,0.0215 -0.004,0.004 -0.0101,0.006 -0.0156,0.01 -0.006,0.003 -0.017,0.01 -0.0176,0.01 -0.001,4.6e-4 -0.0476,0.006 -0.0488,0.006 -6.1e-4,-6e-5 -0.0248,-0.006 -0.0254,-0.006 -6.1e-4,-2e-4 -0.0138,-0.005 -0.0195,-0.008 -0.046,-0.0262 -0.0483,-0.0504 -0.0566,-0.0703 -0.0167,-0.0398 -0.0255,-0.0843 -0.0371,-0.14649 -0.007,-0.0398 -0.0542,-0.13887 -0.0957,-0.19336 -0.11664,-0.15281 -0.15559,-0.32912 -0.12695,-0.53711 0.005,-0.0398 0.0138,-0.0772 0.0215,-0.10742 0.004,-0.0151 0.007,-0.0281 0.0117,-0.041 0.002,-0.006 0.006,-0.0133 0.01,-0.0215 0.002,-0.004 0.004,-0.008 0.008,-0.0137 0.002,-0.003 0.008,-0.0114 0.008,-0.0117 2.6e-4,-3e-4 0.0154,-0.0135 0.0156,-0.0137 a 0.10001,0.10001 0 0 1 0.008,-0.006 c 3e-4,-1.9e-4 0.0172,-0.008 0.0176,-0.008 3.8e-4,-1.5e-4 0.01,-0.003 0.0137,-0.004 0.008,-0.002 0.0141,-0.004 0.0195,-0.004 z" />
      <path
         id="path42440-5-9"
         style="fill:#000000;stroke-width:0.0286577"
         sodipodi:type="inkscape:offset"
         inkscape:radius="-0.1"
         inkscape:original="M 564.61719 747.61328 C 564.34147 747.57068 563.61202 747.59349 563.45703 747.65039 C 563.27848 747.71593 563.17964 747.82668 563.14844 747.99414 C 563.13434 748.0692 563.09334 748.16217 563.05664 748.20117 C 563.00274 748.25848 562.98742 748.30887 562.98242 748.46094 C 562.97872 748.56449 562.96794 748.65511 562.96094 748.66211 C 562.94084 748.68221 562.54566 748.47837 562.43164 748.38867 C 562.37904 748.34727 562.25555 748.23362 562.15625 748.13672 C 561.99147 747.976 561.95816 747.95606 561.76562 747.91016 C 561.4871 747.84356 560.84755 747.82084 560.61328 747.86914 C 560.36639 747.92008 560.17594 748.02096 560.11914 748.13086 C 560.08204 748.20176 560.07348 748.27873 560.08398 748.48242 C 560.09564 748.72007 560.1171 748.79687 560.32227 749.35938 C 560.48674 749.81025 560.58189 750.02899 560.67969 750.17578 C 560.77171 750.31389 560.81953 750.41862 560.83203 750.51172 C 560.85302 750.66813 560.98285 750.96639 561.10547 751.14258 C 561.15211 751.2096 561.19803 751.31847 561.20703 751.38477 L 561.22461 751.50586 L 561.14453 751.45898 C 561.02924 751.3928 560.86598 751.43091 560.74609 751.55078 C 560.58312 751.71375 560.63115 751.90085 560.91602 752.21484 C 561.1563 752.4801 561.14936 752.46101 561.16016 752.77539 C 561.16786 752.99832 561.15915 753.08601 561.12305 753.16211 C 561.08695 753.23752 561.0806 753.30214 561.0957 753.4375 C 561.12061 753.6617 561.24 754.27307 561.2832 754.39648 C 561.33101 754.53288 561.28926 754.71755 561.14062 755.0293 C 561.11847 755.07556 560.64654 755.07725 560.2832 755.03125 C 559.63691 754.9494 559.44819 754.96427 559.27344 755.11133 C 559.14733 755.21744 559.08938 755.353 559.01758 755.70703 C 558.92518 756.16259 558.94463 756.44055 559.08984 756.75 C 559.14919 756.87646 559.22843 757.00797 559.26562 757.04297 C 559.31592 757.09018 559.33203 757.13776 559.33203 757.22656 C 559.33203 757.36747 559.37757 757.51408 559.45117 757.60938 C 559.49487 757.66595 559.50391 757.72899 559.50391 757.98242 C 559.50391 758.39057 559.55536 758.55927 559.73047 758.73438 C 559.93566 758.93965 560.17543 758.99104 560.63672 758.93164 C 560.8063 758.90974 560.81012 758.91085 560.88672 759.00195 C 560.94097 759.06639 560.99892 759.10058 561.07812 759.11328 C 561.1741 759.12857 561.19656 759.14601 561.22266 759.22461 C 561.3036 759.4686 561.6415 759.83398 561.92578 759.98438 C 562.05625 760.05327 562.4852 760.06546 562.71484 760.00586 C 563.16444 759.88936 563.59701 759.59587 563.75977 759.29883 C 563.84587 759.1416 563.84632 759.14838 563.82812 758.73633 C 563.82612 758.69298 563.82703 758.62524 563.83203 758.58594 C 563.83693 758.54652 563.83171 758.46108 563.82031 758.39648 C 563.80211 758.294 563.80905 758.2681 563.87695 758.1875 C 563.92224 758.13362 563.97084 758.02265 563.99414 757.92188 C 564.02954 757.76881 564.02993 757.74039 563.99023 757.67969 C 563.96538 757.64169 563.91616 757.61152 563.88086 757.61133 C 563.71784 757.61021 563.7083 757.48842 563.85742 757.29883 C 563.90162 757.24272 563.94653 757.16992 563.95703 757.13672 C 563.97323 757.08452 564.0061 757.07254 564.19531 757.05664 C 564.37299 757.04174 564.42444 757.04738 564.46484 757.08398 C 564.52135 757.13512 564.60496 757.47464 564.60547 757.65234 C 564.60567 757.71741 564.62599 757.84103 564.65039 757.92773 C 564.72687 758.1995 564.86294 758.77057 564.86328 758.82227 C 564.86348 758.84947 564.83042 758.89217 564.79102 758.91797 C 564.71182 758.96989 564.69096 759.12814 564.75586 759.18164 C 564.83125 759.24386 565.13259 759.32808 565.18359 759.30078 C 565.21178 759.28565 565.25812 759.18876 565.29102 759.07812 L 565.34961 758.88281 L 565.25 758.48438 C 565.19486 758.26552 565.15039 758.06532 565.15039 758.04102 C 565.15039 758.01682 565.17588 757.97371 565.20898 757.94531 C 565.25446 757.90633 565.26696 757.87153 565.25586 757.80273 C 565.24796 757.75269 565.20712 757.46099 565.16602 757.1543 C 565.10978 756.73508 565.07343 756.55928 565.01953 756.44141 L 564.94727 756.2832 L 565.00586 755.99609 C 565.0683 755.68257 565.10867 755.29115 565.13477 754.77539 C 565.1488 754.49895 565.19175 754.16715 565.25195 753.86719 C 565.26426 753.80479 565.27354 753.80455 565.6582 753.81055 C 566.01822 753.81565 566.06541 753.81035 566.20312 753.74805 C 566.46663 753.62894 566.63186 753.37181 566.66016 753.03906 C 566.69043 752.68318 566.47966 752.34766 566.15625 752.24023 C 566.00779 752.19089 566.00328 752.18731 566.02148 752.09961 C 566.03188 752.05019 566.05913 751.85237 566.08203 751.66016 C 566.10493 751.46794 566.13674 751.27753 566.15234 751.23633 C 566.16804 751.19504 566.18164 751.09979 566.18164 751.02539 C 566.18164 750.95092 566.20146 750.81265 566.22656 750.71875 C 566.2884 750.48698 566.26527 750.20096 566.16797 750.00195 C 566.08555 749.83351 565.88019 749.62841 565.76562 749.59961 C 565.65731 749.57243 565.55901 749.62696 565.53711 749.72656 C 565.51635 749.82106 565.46573 749.87476 565.33008 749.94336 C 565.26634 749.97566 565.23235 749.97893 565.21875 749.95703 C 565.19205 749.91394 565.2326 749.38925 565.2793 749.16602 C 565.3003 749.06577 565.33838 748.95206 565.36328 748.91406 C 565.42668 748.81727 565.41763 748.73482 565.33203 748.58594 C 565.29128 748.515 565.23448 748.39627 565.20508 748.32227 C 565.17571 748.24832 565.10849 748.12899 565.05469 748.05859 C 565.00096 747.9882 564.9482 747.88482 564.9375 747.82812 C 564.91319 747.69862 564.8353 747.64708 564.61719 747.61328 z M 560.42773 756.73047 C 560.47504 756.68314 560.49916 756.6882 560.67969 756.7832 C 560.76638 756.8288 560.86063 756.87286 560.89062 756.88086 C 560.94382 756.89636 560.94477 756.89894 560.88867 756.96094 C 560.81472 757.04259 560.73633 757.27509 560.73633 757.41602 C 560.73633 757.54072 560.70789 757.5508 560.58984 757.4668 C 560.52094 757.41773 560.50637 757.38641 560.50586 757.28711 C 560.50556 757.22119 560.48042 757.11167 560.44922 757.04297 C 560.38482 756.90132 560.37703 756.78117 560.42773 756.73047 z "
         d="m 563.99414,747.69531 c -0.11628,0.004 -0.22707,0.0104 -0.31836,0.0195 -0.0913,0.009 -0.16664,0.0231 -0.18359,0.0293 -0.15555,0.0571 -0.22041,0.1297 -0.2461,0.26758 -0.0178,0.0949 -0.0516,0.18812 -0.11718,0.25781 -0.0202,0.0214 -0.0243,0.0304 -0.0312,0.0547 -0.007,0.0242 -0.0132,0.0676 -0.0156,0.14062 -0.002,0.0542 -0.005,0.10493 -0.01,0.14454 -0.002,0.0198 -0.005,0.0357 -0.008,0.0508 -0.001,0.008 -0.001,0.0148 -0.004,0.0234 -0.001,0.004 -0.003,0.009 -0.006,0.0156 -0.002,0.003 -0.008,0.0133 -0.008,0.0137 -2.3e-4,3.8e-4 -0.0154,0.0193 -0.0156,0.0195 -3.1e-4,3.2e-4 -0.0327,0.0232 -0.0332,0.0234 -5e-4,2.1e-4 -0.0185,0.005 -0.0254,0.006 -0.0139,0.002 -0.0219,0.003 -0.0293,0.002 -0.0148,-0.002 -0.0253,-0.005 -0.0352,-0.008 -0.0197,-0.006 -0.0378,-0.0138 -0.0605,-0.0234 -0.0456,-0.0193 -0.10278,-0.0455 -0.16211,-0.0762 -0.11867,-0.0613 -0.24421,-0.13265 -0.31641,-0.18945 -0.0627,-0.0494 -0.18222,-0.15927 -0.2832,-0.25782 -0.16292,-0.1589 -0.15504,-0.15618 -0.34375,-0.20117 -0.24985,-0.0597 -0.91643,-0.0808 -1.10938,-0.041 -0.23127,0.0477 -0.39938,0.15986 -0.42578,0.21093 -0.0262,0.0502 -0.0337,0.0992 -0.0234,0.29883 0.006,0.11635 0.0123,0.18425 0.043,0.29688 0.0307,0.11262 0.087,0.26985 0.18946,0.55078 0.16378,0.44899 0.25867,0.66333 0.34765,0.79687 0.0961,0.14422 0.15231,0.26032 0.16797,0.37696 0.016,0.11914 0.14456,0.42796 0.25586,0.58789 0.0581,0.0834 0.106,0.18839 0.11914,0.28515 l 0.0176,0.1211 a 0.10001,0.10001 0 0 1 -0.15039,0.0996 l -0.0781,-0.0469 h -0.002 c -0.0658,-0.0365 -0.18277,-0.0184 -0.27734,0.0762 -0.0645,0.0645 -0.0764,0.10243 -0.0566,0.17969 0.0198,0.0773 0.0928,0.19591 0.23046,0.34766 0.11966,0.1321 0.18456,0.19763 0.22461,0.28906 0.0401,0.0914 0.0395,0.17746 0.0449,0.33398 0.008,0.22644 -7e-4,0.33625 -0.0469,0.4336 -0.0285,0.0595 -0.032,0.0919 -0.0176,0.2207 0.0116,0.10459 0.0479,0.315 0.0859,0.50977 0.0381,0.19477 0.0816,0.38752 0.0957,0.42773 0.0631,0.18014 0.006,0.38995 -0.14648,0.70899 -3.5e-4,7.2e-4 -0.009,0.0155 -0.0137,0.0215 -0.005,0.006 -0.009,0.0116 -0.0137,0.0156 -0.009,0.008 -0.018,0.0117 -0.0254,0.0156 -0.0148,0.008 -0.0267,0.0122 -0.0391,0.0156 -0.0247,0.007 -0.0505,0.0104 -0.0801,0.0137 -0.0592,0.007 -0.13333,0.01 -0.21875,0.01 -0.17084,4.7e-4 -0.38118,-0.01 -0.56836,-0.0332 -0.32119,-0.0407 -0.52697,-0.0556 -0.6621,-0.0449 -0.13514,0.0107 -0.19641,0.0384 -0.27149,0.10156 -0.0528,0.0444 -0.0868,0.0879 -0.12109,0.16797 -0.0344,0.08 -0.0662,0.19678 -0.10157,0.37109 -0.0903,0.44512 -0.0724,0.68876 0.0645,0.98047 0.0281,0.0598 0.0619,0.12206 0.0918,0.17188 0.0299,0.0498 0.0636,0.0928 0.0625,0.0918 0.067,0.0629 0.0977,0.15497 0.0977,0.25586 0,0.11937 0.0441,0.25044 0.0996,0.32227 0.0308,0.0399 0.0533,0.095 0.0625,0.16015 0.009,0.0651 0.01,0.14554 0.01,0.27344 0,0.19987 0.0129,0.33411 0.043,0.4336 0.03,0.0995 0.0746,0.16838 0.1543,0.24804 0.0918,0.0918 0.18273,0.14262 0.3086,0.16992 0.12586,0.0273 0.28882,0.027 0.51367,-0.002 0.0851,-0.011 0.13684,-0.022 0.20117,-0.004 0.0643,0.0181 0.1,0.0634 0.13867,0.10938 0.0429,0.0509 0.0718,0.0667 0.13086,0.0762 0.0526,0.008 0.10042,0.0187 0.14453,0.0527 0.0441,0.034 0.065,0.0816 0.0801,0.12695 0.0321,0.0967 0.13006,0.24506 0.25391,0.37891 0.12384,0.13385 0.27336,0.25701 0.40039,0.32421 0.0274,0.0145 0.16742,0.0429 0.3125,0.0469 0.14507,0.004 0.30573,-0.01 0.40429,-0.0352 0.4252,-0.11017 0.84221,-0.4023 0.98243,-0.6582 0.0434,-0.0792 0.0559,-0.0949 0.0625,-0.14844 0.007,-0.0535 0.003,-0.15531 -0.006,-0.36133 -0.002,-0.0495 -0.003,-0.11395 0.004,-0.16601 0.002,-0.0132 -8e-5,-0.10527 -0.01,-0.16016 -0.01,-0.0548 -0.0163,-0.1034 -0.002,-0.15625 0.0143,-0.0528 0.0438,-0.0917 0.0801,-0.13476 0.0245,-0.0291 0.0756,-0.13788 0.0957,-0.22461 0.0174,-0.0753 0.0236,-0.11583 0.0234,-0.13086 -1.9e-4,-0.015 0.002,-0.009 -0.0137,-0.0332 -0.005,-0.008 -0.0466,-0.0236 -0.0254,-0.0234 -0.0532,-3.7e-4 -0.10553,-0.009 -0.15039,-0.0391 -0.0449,-0.0304 -0.0742,-0.0867 -0.0781,-0.13868 -0.008,-0.10397 0.0453,-0.19308 0.12696,-0.29687 0.0193,-0.0245 0.0387,-0.0541 0.0547,-0.0801 0.0159,-0.0259 0.0281,-0.0513 0.0273,-0.0488 0.0131,-0.0423 0.0635,-0.1009 0.11719,-0.11914 0.0537,-0.0182 0.11277,-0.0232 0.20898,-0.0312 0.0907,-0.008 0.15154,-0.0114 0.20508,-0.006 0.0535,0.005 0.10471,0.0278 0.13867,0.0586 0.0458,0.0415 0.0544,0.0777 0.0723,0.125 0.0178,0.0472 0.0341,0.10243 0.0488,0.16211 0.0295,0.11934 0.0524,0.25111 0.0527,0.35546 1.4e-4,0.0446 0.0194,0.17128 0.041,0.24805 0.039,0.13858 0.0929,0.34901 0.13672,0.5332 0.0219,0.0921 0.0404,0.17794 0.0547,0.24414 0.007,0.0331 0.0134,0.0613 0.0176,0.084 0.004,0.0227 0.008,0.0328 0.008,0.0606 4e-4,0.0545 -0.0203,0.0822 -0.041,0.10937 -0.0207,0.0272 -0.0461,0.0506 -0.0762,0.0703 -0.004,0.003 -0.0233,0.03 -0.0273,0.0606 -0.004,0.0305 0.0109,0.0484 0.002,0.041 a 0.10001,0.10001 0 0 1 0,0.002 c 0.004,0.004 0.10118,0.0487 0.18555,0.0723 0.0422,0.0118 0.0833,0.0213 0.11328,0.0254 0.006,8.5e-4 0.009,0.002 0.0137,0.002 0.004,-0.007 0.007,-0.0129 0.0117,-0.0234 0.0162,-0.0336 0.0357,-0.0821 0.0508,-0.13281 l 0.0508,-0.16797 -0.0937,-0.37109 v -0.002 c -0.0276,-0.10951 -0.0522,-0.21582 -0.0703,-0.29687 -0.009,-0.0408 -0.0162,-0.0746 -0.0215,-0.10156 -0.005,-0.027 -0.01,-0.0318 -0.01,-0.0684 0,-0.0472 0.0152,-0.0711 0.0312,-0.0977 0.0161,-0.0265 0.0366,-0.052 0.0625,-0.0742 0.015,-0.0129 0.0134,-0.0148 0.0137,-0.0156 2.8e-4,-8.4e-4 0.002,-0.009 -0.002,-0.0352 -0.009,-0.0567 -0.0487,-0.34333 -0.0898,-0.65039 -0.056,-0.41724 -0.0933,-0.58641 -0.13868,-0.68555 l -0.0723,-0.1582 a 0.10001,0.10001 0 0 1 -0.006,-0.0605 l 0.0586,-0.28711 c 0.0609,-0.30598 0.10099,-0.69392 0.12696,-1.20703 0.0143,-0.28271 0.0579,-0.61696 0.11914,-0.92187 0.004,-0.0179 0.009,-0.0533 0.041,-0.0859 0.0323,-0.0326 0.0721,-0.0421 0.10742,-0.0469 0.0706,-0.01 0.16506,-0.007 0.35743,-0.004 0.17945,0.003 0.27803,0.001 0.34179,-0.006 0.0638,-0.007 0.0942,-0.019 0.16016,-0.0488 0.22858,-0.10332 0.37255,-0.32066 0.39844,-0.625 0.0265,-0.31153 -0.15892,-0.60342 -0.43555,-0.69531 -0.0746,-0.0248 -0.11866,-0.029 -0.16992,-0.082 -0.0256,-0.0265 -0.0406,-0.0715 -0.041,-0.10157 -4.1e-4,-0.0301 0.005,-0.0494 0.01,-0.0723 a 0.10001,0.10001 0 0 1 0,-0.002 c 0.007,-0.0312 0.0358,-0.23872 0.0586,-0.42968 0.0116,-0.0977 0.026,-0.1948 0.0391,-0.27344 0.0131,-0.0786 0.0192,-0.12657 0.0371,-0.17383 0.004,-0.0115 0.0234,-0.11357 0.0234,-0.17578 0,-0.0922 0.0208,-0.22716 0.0488,-0.33203 0.0548,-0.20536 0.0301,-0.47574 -0.0527,-0.64648 v -0.002 c -0.034,-0.069 -0.101,-0.15768 -0.16992,-0.22656 -0.0693,-0.0693 -0.14946,-0.11693 -0.16601,-0.12109 -0.0638,-0.016 -0.0974,0.005 -0.10742,0.0508 -0.0132,0.06 -0.0413,0.11914 -0.0859,0.16601 -0.0446,0.0469 -0.1011,0.0824 -0.17383,0.11914 -0.0371,0.0188 -0.0675,0.0325 -0.10742,0.0371 -0.0399,0.005 -0.10514,-0.016 -0.13281,-0.0605 a 0.10001,0.10001 0 0 1 -0.002,0 c -0.0302,-0.0488 -0.0198,-0.0584 -0.0215,-0.082 -0.002,-0.0237 -4.1e-4,-0.0509 0,-0.082 8.2e-4,-0.0621 0.003,-0.14088 0.01,-0.22461 0.0129,-0.16745 0.0352,-0.3533 0.0606,-0.47461 0.0114,-0.0546 0.0264,-0.11256 0.043,-0.1621 0.0165,-0.0495 0.03,-0.0873 0.0547,-0.125 0.0234,-0.0357 0.0282,-0.0518 0.0254,-0.0801 -0.003,-0.0283 -0.019,-0.0737 -0.0586,-0.14258 -0.0448,-0.0779 -0.1026,-0.19638 -0.13476,-0.27734 -0.0237,-0.0596 -0.0916,-0.18123 -0.13672,-0.24024 -0.0632,-0.0828 -0.11707,-0.17964 -0.13477,-0.27344 -0.009,-0.0481 -0.0168,-0.0593 -0.0449,-0.0781 -0.0281,-0.0188 -0.0901,-0.0387 -0.19336,-0.0547 -0.12204,-0.0189 -0.37486,-0.0249 -0.60742,-0.0176 z m -3.4707,8.91016 c 0.0604,0.0127 0.11188,0.0418 0.20312,0.0898 0.0419,0.022 0.0848,0.0437 0.1211,0.0606 0.0363,0.0169 0.0723,0.0304 0.0684,0.0293 a 0.10001,0.10001 0 0 1 0.002,0 c 0.0139,0.004 0.0279,0.007 0.0488,0.0176 0.0105,0.005 0.0244,0.0118 0.0391,0.0293 0.0146,0.0175 0.0257,0.0478 0.0254,0.0723 -5.9e-4,0.049 -0.02,0.0652 -0.0312,0.0801 -0.0112,0.0148 -0.0228,0.0271 -0.0371,0.043 -0.0171,0.0189 -0.0577,0.0917 -0.084,0.16993 -0.0262,0.0782 -0.043,0.16682 -0.043,0.21875 0,0.035 -0.001,0.0646 -0.01,0.0977 -0.009,0.0331 -0.0349,0.0819 -0.0859,0.0996 -0.051,0.0178 -0.0894,0.004 -0.11914,-0.01 -0.0297,-0.0138 -0.058,-0.032 -0.0898,-0.0547 -0.0399,-0.0284 -0.0772,-0.0634 -0.0996,-0.11133 -0.0224,-0.048 -0.0251,-0.0959 -0.0254,-0.15039 -1.9e-4,-0.041 -0.0258,-0.15244 -0.0488,-0.20313 -0.036,-0.0791 -0.0577,-0.15385 -0.0625,-0.2246 -0.005,-0.0708 0.007,-0.14413 0.0625,-0.19922 0.0155,-0.0155 0.0346,-0.0342 0.0664,-0.0469 0.0318,-0.0127 0.0694,-0.0141 0.0996,-0.008 z" />
      <path
         style="fill:#000000;stroke-width:0.0312768"
         d="m 531.38608,747.54283 c -0.008,0.0137 -0.003,0.0454 0.0133,0.0704 0.0376,0.0592 0.0379,0.13237 5e-4,0.1093 -0.1237,-0.0765 0.0848,0.37513 0.37494,0.81187 0.29909,0.45029 0.78736,1.21318 0.9909,1.5482 0.10973,0.18063 0.21276,0.34178 0.22896,0.35811 0.0161,0.0164 0.0295,0.0851 0.0295,0.15278 0,0.15492 0.20387,0.5923 0.45033,0.96614 0.0989,0.15008 0.17173,0.28608 0.16175,0.30223 -0.01,0.0162 -0.0727,0.0386 -0.13931,0.0498 -0.15259,0.0258 -0.31677,0.17861 -0.31544,0.29364 9.2e-4,0.0824 0.10746,0.28392 0.31196,0.58999 0.11783,0.17637 0.18105,0.19813 0.39633,0.13639 0.0545,-0.0156 0.20259,-0.038 0.32929,-0.0499 l 0.23036,-0.0216 0.24189,0.39605 c 0.13304,0.21782 0.23491,0.40734 0.22637,0.42116 -0.008,0.0138 -0.0954,0.0259 -0.19294,0.0267 -0.1541,9.2e-4 -0.18967,0.0138 -0.27071,0.0949 -0.11868,0.11867 -0.10926,0.15779 0.12964,0.53888 l 0.18527,0.29554 0.21447,0.0248 c 0.64091,0.0741 0.58966,0.0608 0.59123,0.15329 9.2e-4,0.0649 -0.0169,0.0886 -0.0782,0.10356 -0.12104,0.0294 -0.3142,0.11841 -0.3142,0.14479 0,0.0129 0.0141,0.0321 0.0313,0.0427 0.0543,0.0334 0.0342,0.11338 -0.0547,0.21817 -0.17023,0.20051 -0.19548,0.23673 -0.19548,0.28035 0,0.0502 0.14476,0.17393 0.20353,0.17393 0.0213,0 0.0985,-0.0649 0.17164,-0.1442 0.10129,-0.10989 0.13934,-0.13408 0.15988,-0.10166 0.0148,0.0234 0.0272,0.0644 0.0274,0.091 5e-4,0.0652 0.0629,0.12354 0.13184,0.12354 0.0639,0 0.0688,0.0254 0.0264,0.13718 -0.027,0.0709 -0.0493,0.0796 -0.22675,0.0881 l -0.19683,0.009 -0.007,0.12511 c -0.006,0.10151 0.01,0.14428 0.0856,0.22676 0.0514,0.0559 0.10628,0.10164 0.12204,0.10164 0.0499,0 0.0989,0.18285 0.0563,0.21044 -0.0205,0.0133 -0.19204,0.0215 -0.38128,0.0183 -0.23618,-0.004 -0.36365,0.006 -0.40659,0.0345 -0.0958,0.0616 -0.84708,0.0874 -0.89417,0.0306 -0.047,-0.0566 -0.18389,-0.056 -0.22835,9.2e-4 -0.0464,0.0596 -0.64462,0.10651 -0.64462,0.0506 0,-0.0281 -0.08,-0.0321 -0.32059,-0.0155 -0.31262,0.0216 -0.34914,0.0105 -0.20385,-0.0615 0.0893,-0.0442 0.12116,-0.29335 0.0432,-0.337 -0.0409,-0.0228 -0.0298,-0.078 0.0789,-0.39335 0.0695,-0.20172 0.17351,-0.4688 0.23109,-0.59353 0.0902,-0.19535 0.1158,-0.22675 0.18491,-0.22675 0.0484,0 0.0803,-0.0176 0.0803,-0.0444 0,-0.0244 0.009,-0.0674 0.0197,-0.0957 0.0136,-0.0356 -5e-4,-0.0567 -0.0466,-0.0687 -0.0536,-0.0141 -0.0626,-0.0331 -0.0465,-0.0998 0.0288,-0.11894 0.18916,-0.55251 0.24184,-0.65335 0.0532,-0.10176 0.20493,-0.25125 0.3065,-0.30188 0.0463,-0.0231 0.0724,-0.0639 0.0724,-0.11335 0,-0.0664 -0.0161,-0.0786 -0.11484,-0.0868 -0.0817,-0.006 -0.12968,-0.0322 -0.16629,-0.0881 -0.0611,-0.0933 -0.12547,-0.0603 -0.15627,0.0799 -0.0105,0.0481 -0.0502,0.10173 -0.088,0.11929 -0.0717,0.0332 -0.15965,0.2465 -0.48725,1.18086 -0.2091,0.59639 -0.20869,0.59543 -0.2351,0.55269 -0.0398,-0.0643 -0.17498,-0.0429 -0.20272,0.0321 -0.0211,0.0571 -0.0368,0.0311 -0.0934,-0.15536 -0.0374,-0.1232 -0.077,-0.24735 -0.088,-0.27591 -0.0169,-0.0439 -0.002,-0.0498 0.0959,-0.0384 0.11287,0.0132 0.11563,0.011 0.10653,-0.082 -0.008,-0.0876 -0.0192,-0.0957 -0.1266,-0.0971 -0.17063,-0.002 -0.143,0.0498 -0.38364,-0.72291 -0.0913,-0.29317 -0.13475,-0.3891 -0.18954,-0.41842 -0.0391,-0.0209 -0.0795,-0.0714 -0.0897,-0.11223 -0.0209,-0.0835 -0.0849,-0.0967 -0.14104,-0.0291 -0.0205,0.0248 -0.082,0.0494 -0.1365,0.0547 -0.14088,0.0137 -0.14411,0.0961 -0.007,0.18083 0.16583,0.10247 0.24184,0.26285 0.46735,0.98603 0.11265,0.36125 0.23319,0.73698 0.26786,0.83496 0.0347,0.098 0.0558,0.19689 0.0471,0.21982 -0.009,0.0229 0.0134,0.12573 0.0494,0.22846 0.0359,0.10272 0.0637,0.24781 0.0616,0.32242 -0.004,0.15066 0.0387,0.22404 0.13073,0.22404 0.0414,0 0.0576,0.0176 0.0501,0.0547 -0.008,0.0425 -0.0364,0.0525 -0.12516,0.0448 -0.0722,-0.006 -0.14629,0.011 -0.20122,0.0469 -0.0752,0.0492 -0.14393,0.0557 -0.50684,0.0481 -0.39376,-0.008 -0.42269,-0.006 -0.46498,0.0556 -0.0399,0.0569 -0.0728,0.0634 -0.28515,0.0557 l -0.24003,-0.008 v 0.17203 0.17202 h 0.26309 c 0.1826,0 0.26713,0.0119 0.27628,0.0391 0.008,0.0245 0.0734,0.0391 0.17498,0.0391 0.089,0 0.21098,0.0143 0.27107,0.0317 0.0601,0.0174 0.27464,0.0406 0.47676,0.0517 l 0.3675,0.0201 v 0.20067 c 0,0.19021 0.004,0.20014 0.0704,0.19067 0.062,-0.009 0.0692,-0.0254 0.0607,-0.14054 -0.006,-0.0858 0.0122,-0.1736 0.0543,-0.25607 0.057,-0.11173 0.0799,-0.12789 0.20838,-0.14715 0.0794,-0.0119 0.32937,-0.0146 0.55553,-0.006 0.31726,0.012 0.43115,0.006 0.49856,-0.0287 0.0656,-0.0333 0.30498,-0.0498 0.96122,-0.0662 0.86334,-0.0217 1.00006,-0.0111 1.00006,0.0777 0,0.0238 0.0211,0.0512 0.0469,0.0611 0.0258,0.01 0.0469,0.0316 0.0469,0.0482 0,0.0909 0.0959,0.11953 0.40055,0.11953 0.32533,0 0.54926,0.0571 0.52147,0.13293 -0.0204,0.0555 0.0213,0.10917 0.0945,0.12197 0.056,0.01 0.0615,-0.004 0.0527,-0.1298 -0.006,-0.0774 -0.0265,-0.15482 -0.0469,-0.17203 -0.0204,-0.0172 -0.0364,-0.0805 -0.0356,-0.14074 9.2e-4,-0.10335 0.008,-0.11001 0.11729,-0.11917 0.0844,-0.007 0.11584,0.003 0.11584,0.0353 0,0.0874 0.0961,0.1285 0.28798,0.12317 0.14733,-0.004 0.20666,0.009 0.27697,0.061 0.0663,0.049 0.12962,0.0648 0.24436,0.0606 0.0933,-0.004 0.17148,0.011 0.19666,0.0358 0.0529,0.0522 0.29121,0.0328 0.34158,-0.0279 0.02,-0.024 0.0672,-0.0438 0.1048,-0.0438 0.0377,0 0.108,-0.0412 0.15625,-0.0916 0.11307,-0.11802 0.18072,-0.14298 0.59642,-0.21995 0.40914,-0.0757 0.75884,-0.0843 0.80976,-0.0198 0.0561,0.071 0.22243,0.0922 0.27915,0.0355 0.0443,-0.0443 0.0473,-0.0392 0.0322,0.0541 -0.0141,0.0873 -0.005,0.10947 0.0642,0.14624 0.13104,0.0701 0.17248,0.16559 0.18535,0.42684 0.0101,0.2057 0.0226,0.25107 0.0825,0.2996 0.0389,0.0314 0.0967,0.0571 0.12863,0.0571 0.0643,0 0.13677,-0.10838 0.10584,-0.1584 -0.0109,-0.0176 -0.003,-0.0523 0.0177,-0.0772 0.0252,-0.0304 0.031,-0.1058 0.0176,-0.23095 -0.0189,-0.17626 -0.0161,-0.1863 0.0512,-0.19586 0.0777,-0.0111 0.11425,-0.1267 0.0606,-0.19164 -0.017,-0.0206 -0.0403,-0.0875 -0.0517,-0.14886 -0.0248,-0.13294 0.035,-0.20112 0.15616,-0.17796 0.0433,0.008 0.13751,0.005 0.20936,-0.009 0.0979,-0.0179 0.14957,-0.0114 0.20626,0.0256 0.0714,0.0468 0.0788,0.0454 0.1312,-0.024 0.0519,-0.0687 0.0625,-0.0709 0.16086,-0.0321 0.058,0.0228 0.1187,0.0534 0.13505,0.0679 0.0164,0.0145 0.0746,0.0263 0.12958,0.0263 0.12279,0 0.15612,-0.0681 0.0859,-0.17539 -0.0438,-0.0667 -0.0484,-0.13714 -0.031,-0.47766 0.0111,-0.21965 0.0293,-0.46518 0.0403,-0.54561 0.02,-0.14615 0.02,-0.14624 -0.074,-0.14624 -0.0539,0 -0.20107,0.0606 -0.34492,0.14216 -0.13801,0.0782 -0.30385,0.15075 -0.36854,0.16126 l -0.11764,0.0191 0.0217,-0.1378 c 0.012,-0.0758 0.0521,-0.2363 0.0894,-0.35673 0.086,-0.27849 0.0926,-0.73308 0.0143,-0.98307 -0.0293,-0.0934 -0.0532,-0.18141 -0.0532,-0.19548 0,-0.0357 0.20897,-0.032 0.41014,0.007 0.0927,0.018 0.26956,0.0342 0.39309,0.0359 0.12354,9.2e-4 0.23782,0.0116 0.25394,0.0219 0.0161,0.0103 0.0682,0.0962 0.11568,0.19084 0.0475,0.0946 0.16101,0.27455 0.25225,0.39987 0.17315,0.23781 0.21475,0.33419 0.24667,0.57135 0.0329,0.24432 0.1697,0.4773 0.44723,0.76154 0.14192,0.14536 0.25804,0.27659 0.25804,0.29161 0,0.015 -0.0492,0.0451 -0.10938,0.0669 -0.078,0.0282 -0.11469,0.0637 -0.12792,0.12356 -0.0102,0.0462 -0.0541,0.19663 -0.0976,0.33424 -0.0434,0.13762 -0.0862,0.33668 -0.095,0.44235 l -0.0159,0.19212 -0.1146,0.0183 c -0.0712,0.0114 -0.14961,0.0551 -0.20711,0.11562 -0.0509,0.0535 -0.1312,0.11751 -0.17851,0.14222 -0.0473,0.0248 -0.0861,0.0592 -0.0861,0.0767 0,0.0175 0.0545,0.1051 0.12091,0.19467 0.15241,0.20529 0.34824,0.55874 0.34824,0.62855 0,0.0733 0.26297,0.3479 0.37938,0.39611 0.0768,0.0318 0.19136,0.032 0.58525,5e-4 0.83305,-0.0661 1.0031,-0.1379 1.21828,-0.51374 0.071,-0.12411 0.0811,-0.17439 0.11873,-0.59892 0.0107,-0.12042 0.0479,-0.29974 0.0827,-0.39847 0.0494,-0.13976 0.0552,-0.18937 0.0265,-0.22386 -0.0366,-0.0439 -0.3606,-0.0994 -0.49527,-0.0847 -0.0594,0.006 -0.0704,-0.007 -0.0704,-0.0883 0,-0.0625 0.0157,-0.0961 0.0447,-0.0961 0.0246,0 0.0763,-0.0631 0.1148,-0.14033 0.0594,-0.11901 0.0871,-0.14283 0.18205,-0.15679 0.61855,-0.0908 0.83557,-0.14914 0.9106,-0.24452 0.0337,-0.0427 0.1358,-0.11988 0.22699,-0.17135 0.24498,-0.13826 0.46,-0.51253 0.46,-0.8007 0,-0.0779 0.0153,-0.28259 0.0341,-0.45497 0.0251,-0.23061 0.0246,-0.40167 -0.002,-0.64724 -0.0416,-0.38604 -0.0419,-0.38547 0.20968,-0.3862 0.24025,-5.1e-4 0.44119,-0.0638 0.52655,-0.1652 0.0956,-0.11366 0.1269,-0.28485 0.0771,-0.42245 -0.0333,-0.0919 -0.0316,-0.11513 0.0106,-0.15737 0.0452,-0.0452 0.0592,-0.045 0.16072,0.004 0.14211,0.0677 0.17707,0.0666 0.27298,-0.009 0.11071,-0.0871 0.18891,-0.34311 0.16106,-0.52733 -0.0122,-0.0802 -0.0257,-0.21625 -0.0303,-0.30226 -0.005,-0.0861 -0.018,-0.20979 -0.0299,-0.27508 -0.0165,-0.0903 -0.009,-0.1328 0.0317,-0.17773 0.0708,-0.0782 0.0381,-0.22939 -0.0639,-0.29625 -0.0673,-0.0441 -0.0762,-0.0728 -0.0762,-0.2449 0,-0.37772 -0.097,-0.5307 -0.43297,-0.68315 -0.25322,-0.11491 -0.32332,-0.11389 -0.42437,0.006 -0.0807,0.0959 -0.081,0.096 -0.081,0.0194 0,-0.1009 -0.0624,-0.14871 -0.22204,-0.17012 -0.0991,-0.0133 -0.15627,-0.0458 -0.23672,-0.13493 -0.11232,-0.12432 -0.33907,-0.24852 -0.45374,-0.24852 -0.0378,0 -0.13848,-0.0589 -0.22377,-0.13076 -0.0868,-0.0732 -0.20151,-0.1386 -0.26048,-0.14857 l -0.1054,-0.0179 0.0864,-0.12118 c 0.0758,-0.10633 0.0878,-0.15531 0.0974,-0.39932 l 0.011,-0.27812 -0.0969,-0.0337 -0.0969,-0.0337 0.0192,-0.22372 c 0.0105,-0.12305 0.0533,-0.32494 0.095,-0.44866 0.0849,-0.25182 0.12238,-0.49755 0.0934,-0.61285 -0.0178,-0.071 -0.038,-0.0784 -0.27064,-0.0987 -0.31512,-0.0275 -0.45284,0.0271 -0.54514,0.21626 -0.0621,0.12738 -0.22673,0.2894 -0.2776,0.27333 -0.0157,-0.006 -0.0462,0.0152 -0.0677,0.0448 -0.0322,0.0441 -0.0343,0.0262 -0.0111,-0.10047 0.0156,-0.0849 0.0368,-0.23013 0.0471,-0.32292 0.0169,-0.15235 0.0115,-0.17423 -0.0558,-0.22606 -0.0411,-0.0316 -0.0933,-0.0577 -0.11616,-0.058 -0.0228,-4e-4 -0.14494,-0.0504 -0.27134,-0.11122 -0.29037,-0.13966 -0.60643,-0.20097 -1.1415,-0.22141 -0.55209,-0.0211 -0.57519,-0.0102 -0.58787,0.278 -0.006,0.11568 0.002,0.2107 0.0157,0.21117 0.0136,4e-4 0.073,0.0407 0.13181,0.0895 l 0.10691,0.0886 -0.0992,0.0145 c -0.0897,0.0132 -0.22356,-0.0262 -0.34925,-0.10261 -0.16113,-0.098 -0.22046,-0.10655 -0.735,-0.10544 -0.70964,9.2e-4 -0.81861,0.0334 -1.10949,0.32426 -0.11693,0.11694 -0.2222,0.24285 -0.23394,0.27982 -0.0148,0.0467 -0.0471,0.0674 -0.10524,0.0675 -0.10367,4.1e-4 -0.3693,0.12502 -0.47633,0.22351 -0.24269,0.22334 -0.34298,0.51786 -0.34147,1.00281 4.9e-4,0.19422 0.0219,0.44425 0.0473,0.55615 0.0977,0.42997 0.11655,0.56696 0.0828,0.6007 -0.0491,0.0491 -0.15569,0.0107 -0.38138,-0.13734 -0.2203,-0.14453 -0.24981,-0.14904 -0.70046,-0.10704 -0.23624,0.022 -0.44189,0.0997 -0.58685,0.22168 -0.0751,0.0632 -0.12755,0.0789 -0.26454,0.0789 -0.17981,0 -0.30077,0.0476 -0.55365,0.21836 -0.30697,0.20718 -0.8564,0.95679 -1.03201,1.40803 -0.0816,0.20964 -0.0891,0.25785 -0.0706,0.45351 0.0273,0.28781 0.0389,0.36425 0.0651,0.43006 0.0172,0.0429 0.006,0.0547 -0.0531,0.0547 -0.0412,0 -0.1268,0.0264 -0.19019,0.0588 l -0.11525,0.0588 -0.0825,-0.10819 c -0.0649,-0.0851 -0.098,-0.10432 -0.15512,-0.09 -0.0651,0.0164 -0.098,-0.0228 -0.31934,-0.38063 -0.53318,-0.86186 -0.51985,-0.83027 -0.46087,-1.09227 0.0213,-0.0944 -0.0124,-0.16669 -0.0776,-0.16669 -0.0302,0 -0.0907,-0.0281 -0.13451,-0.0626 -0.0438,-0.0345 -0.10071,-0.0626 -0.12659,-0.0626 -0.0269,0 -0.1837,-0.21784 -0.36585,-0.50825 -0.3775,-0.60184 -0.51632,-0.81638 -0.88851,-1.37306 -0.47879,-0.7161 -0.65477,-0.99291 -1.02106,-1.60606 -0.38423,-0.64318 -0.60273,-0.90677 -0.66632,-0.80388 z m 8.97207,1.4998 c 0.0307,0.13332 0.0911,0.30647 0.13423,0.38479 l 0.0784,0.14238 -0.12439,0.27986 c -0.0684,0.15391 -0.22849,0.51576 -0.35575,0.80413 -0.14979,0.33943 -0.23791,0.50567 -0.2499,0.47148 -0.0101,-0.029 -0.045,-0.0621 -0.0772,-0.0734 -0.0464,-0.0163 -0.0767,-0.10482 -0.14516,-0.42457 -0.13645,-0.63734 -0.11343,-1.17451 0.0625,-1.4588 0.12952,-0.20925 0.35179,-0.36481 0.52445,-0.36705 0.0955,-9.2e-4 0.0978,0.003 0.15277,0.24115 z m 0.63031,0.94663 0.16637,0.1256 -0.0189,0.38264 c -0.0205,0.41658 1.3e-4,0.54469 0.1802,1.11131 l 0.0924,0.29081 -0.0687,0.10016 c -0.11493,0.16746 -0.19096,0.24009 -0.22726,0.21711 -0.0191,-0.0121 -0.10866,-0.0251 -0.19924,-0.0289 -0.1412,-0.006 -0.17916,0.006 -0.26586,0.0808 -0.15728,0.13659 -0.22638,0.16279 -0.36915,0.13996 -0.0944,-0.0151 -0.13681,-0.009 -0.15695,0.0229 -0.0399,0.0629 -0.0349,0.0906 0.0165,0.0906 0.0653,0 0.0954,0.0649 0.045,0.0969 -0.0238,0.015 -0.0732,0.0276 -0.11008,0.0278 -0.0753,5.1e-4 -0.14601,-0.14241 -0.21568,-0.43591 l -0.0404,-0.17054 0.18126,-0.40808 c 0.2957,-0.66567 0.6141,-1.41331 0.72326,-1.69824 0.0372,-0.0973 0.0759,-0.0893 0.26739,0.0553 z m 3.73274,-0.0187 c 0.0649,0.0531 0.14425,0.1145 0.1765,0.13662 0.0541,0.037 0.0525,0.0391 -0.0195,0.0256 -0.0429,-0.008 -0.19249,-0.0242 -0.33217,-0.0361 l -0.25398,-0.0215 0.0323,-0.10536 c 0.0299,-0.0977 0.0413,-0.10501 0.15567,-0.10053 0.0866,0.004 0.15839,0.0335 0.2412,0.10123 z m 0.62608,0.33693 c 0,0.0446 -0.0871,0.0272 -0.20151,-0.0403 -0.0612,-0.0361 -0.11126,-0.07 -0.11126,-0.0753 0,-0.006 0.0704,0.0128 0.15638,0.0403 0.0861,0.0276 0.15639,0.0615 0.15639,0.0754 z m -3.6825,0.48672 c 0.18992,0.23286 0.23511,0.30683 0.20762,0.33993 -0.0192,0.0233 -0.0271,0.0745 -0.0172,0.11397 0.0137,0.0548 -0.0227,0.1228 -0.15539,0.28972 -0.0953,0.11994 -0.18449,0.22215 -0.19807,0.22714 -0.0251,0.009 -0.14874,-0.35631 -0.23546,-0.69591 -0.0489,-0.19131 -0.0628,-0.56675 -0.0262,-0.7038 l 0.0206,-0.077 0.0806,0.10417 c 0.0444,0.0573 0.18985,0.2381 0.32337,0.40179 z m -2.69844,0.22641 c 0.13518,0.0817 0.26016,0.13124 0.36156,0.1434 0.24069,0.0288 0.23466,0.0191 0.15187,0.24708 -0.0413,0.11379 -0.0751,0.24062 -0.0751,0.28183 0,0.0412 -0.0147,0.0841 -0.0329,0.0953 -0.018,0.0112 -0.0273,0.0367 -0.0205,0.0566 0.006,0.0199 -0.0148,0.0996 -0.0482,0.17697 -0.0474,0.11032 -0.0566,0.1816 -0.0418,0.32969 0.0162,0.16379 0.007,0.21097 -0.0638,0.35456 -0.0811,0.16276 -0.0845,0.16528 -0.19364,0.14479 -0.0888,-0.0167 -0.12099,-0.008 -0.16007,0.0403 -0.0269,0.0336 -0.0896,0.0707 -0.13927,0.0824 l -0.0904,0.0212 0.0157,-0.22 c 0.0183,-0.25555 9.2e-4,-0.37888 -0.0495,-0.35939 -0.0198,0.007 -0.0536,-0.0146 -0.0753,-0.0491 -0.058,-0.0929 0.0153,-0.0813 0.10621,0.0169 0.0641,0.0692 0.0747,0.0723 0.0793,0.0235 0.003,-0.031 0.007,-0.0775 0.01,-0.10326 0.0147,-0.15247 0.1286,-0.56935 0.20394,-0.74597 0.0809,-0.18953 0.0844,-0.21336 0.0431,-0.29314 -0.0501,-0.0969 -0.0502,-0.097 -0.30242,-0.0876 -0.0995,0.004 -0.19802,-0.006 -0.21893,-0.0227 -0.0209,-0.0162 -0.10461,-0.0474 -0.18602,-0.0694 -0.18054,-0.0489 -0.16547,-0.0939 0.0326,-0.0973 0.0807,-9.2e-4 0.21005,-0.0207 0.28747,-0.0428 0.0774,-0.0221 0.15396,-0.0421 0.17013,-0.0444 0.0162,-0.002 0.12237,0.052 0.236,0.12074 z m 8.17539,0.055 c 0.0413,0.14225 0.0566,0.41442 0.0232,0.41442 -0.0204,0 -0.0349,-0.0571 -0.0349,-0.1374 0,-0.14555 -0.0298,-0.17538 -0.17459,-0.17538 -0.0598,0 -0.0756,-0.0163 -0.0756,-0.0782 0,-0.0701 0.0127,-0.0782 0.123,-0.0782 0.0902,0 0.12724,0.0145 0.13888,0.0547 z m -8.90817,0.21387 c 0.0654,0.0274 0.17161,0.0446 0.23606,0.0384 l 0.1172,-0.0112 -0.0164,0.15699 c -0.009,0.0863 -0.0301,0.20625 -0.0471,0.26646 -0.017,0.0602 -0.0368,0.154 -0.0443,0.20844 -0.007,0.0544 -0.0329,0.15362 -0.0565,0.22041 -0.0347,0.0984 -0.0354,0.13601 -0.004,0.19816 0.0718,0.14051 0.0879,0.45438 0.0298,0.577 -0.0496,0.10431 -0.0957,0.12725 -0.23255,0.11541 -0.0409,-0.004 -0.4706,0.12165 -0.90702,0.26428 -0.0774,0.0252 -0.2085,0.0653 -0.2913,0.089 l -0.15054,0.0429 0.0217,-0.0988 c 0.0831,-0.3785 0.3887,-1.00849 0.70076,-1.44481 0.16979,-0.23737 0.32341,-0.4774 0.39143,-0.61156 0.0375,-0.0739 0.0962,-0.0765 0.25238,-0.0112 z m -0.78897,0.20836 c -0.0806,0.12472 -0.17902,0.27648 -0.21873,0.33724 -0.0396,0.0608 -0.0991,0.2156 -0.13205,0.34405 -0.0329,0.12846 -0.0907,0.31802 -0.12829,0.42123 -0.0376,0.1032 -0.11019,0.34212 -0.16124,0.53091 -0.051,0.18878 -0.10964,0.35378 -0.13021,0.36666 -0.0205,0.0129 -0.11199,0.0391 -0.20315,0.058 -0.12628,0.0264 -0.17656,0.0256 -0.21112,-0.003 -0.0521,-0.0433 -0.06,-0.19305 -0.0143,-0.27281 0.0171,-0.0299 0.0882,-0.20458 0.15782,-0.38826 0.12833,-0.33825 0.22669,-0.49043 0.54427,-0.84202 0.19113,-0.21158 0.33081,-0.38691 0.40871,-0.51298 0.0559,-0.0906 0.20413,-0.26585 0.22471,-0.26585 0.006,0 -0.0559,0.10204 -0.13649,0.22676 z m 4.82174,0.2386 c -0.0298,0.11848 -0.33143,0.72521 -0.42692,0.85857 -0.082,0.11445 -0.12318,0.21544 -0.16495,0.40412 -0.0278,0.12568 -0.15549,0.11914 -0.22301,-0.0114 -0.0362,-0.07 -0.0409,-0.10696 -0.0165,-0.13136 0.049,-0.049 0.0417,-0.16373 -0.0134,-0.20942 -0.041,-0.034 -0.0322,-0.0522 0.0657,-0.13695 0.0902,-0.078 0.11299,-0.12004 0.11299,-0.20866 0,-0.0817 0.0284,-0.14357 0.10754,-0.2344 0.0591,-0.0679 0.18008,-0.21831 0.26873,-0.33433 l 0.16118,-0.21094 0.0738,0.0694 c 0.0541,0.0508 0.0687,0.0897 0.0547,0.14542 z m -2.72873,0.0557 c -0.0215,0.008 -0.0567,0.008 -0.0782,0 -0.0215,-0.008 -0.004,-0.0158 0.0391,-0.0158 0.0429,0 0.0606,0.007 0.0391,0.0158 z m -0.10191,0.59602 c -0.0339,0.0528 -0.0348,0.0527 -0.0178,-9.2e-4 0.01,-0.0315 0.0196,-0.0808 0.0217,-0.10947 0.004,-0.047 0.006,-0.0469 0.0178,9.2e-4 0.007,0.0296 -0.002,0.0789 -0.0216,0.10947 z m 0.38783,0.0361 c 0.0291,0.0753 0.0462,0.14351 0.038,0.15167 -0.008,0.008 -0.0708,0.006 -0.13936,-0.006 l -0.12453,-0.021 0.0647,-0.15556 c 0.0712,-0.17127 0.0838,-0.16883 0.16116,0.0311 z m -1.67351,1.06134 c -0.13732,0.10411 -1.209,0.75663 -1.24267,0.75663 -0.0404,0 -0.0816,-0.1992 -0.0554,-0.2676 0.0104,-0.0271 -0.003,-0.0918 -0.0302,-0.14388 -0.0269,-0.0521 -0.0444,-0.0991 -0.0389,-0.10439 0.006,-0.006 0.12272,-0.0275 0.26035,-0.0494 0.13761,-0.0219 0.43318,-0.0858 0.65681,-0.14189 0.22362,-0.0562 0.43312,-0.10297 0.46555,-0.10405 0.0515,-9.2e-4 0.0496,0.006 -0.0157,0.0546 z m 0.73475,-0.0315 c 0.0205,0.0332 -0.13934,0.1564 -0.37147,0.28645 -0.50193,0.28119 -0.5051,0.28276 -0.57273,0.28276 -0.0139,0 -0.0547,0.0274 -0.0907,0.0609 -0.0359,0.0335 -0.19646,0.13367 -0.35673,0.22268 -0.16028,0.089 -0.32707,0.18383 -0.37064,0.21073 -0.0492,0.0304 -0.0651,0.0333 -0.0421,0.007 0.0514,-0.0571 0.71396,-0.48406 1.12011,-0.7217 0.0516,-0.0301 0.21345,-0.12679 0.35968,-0.21464 0.27751,-0.16676 0.2992,-0.17577 0.32456,-0.13474 z m 0.77371,0.13604 c -0.12262,0.0571 -0.21091,0.082 -0.22871,0.0642 -0.0494,-0.0494 0.16451,-0.16189 0.30333,-0.15948 l 0.1251,0.002 -0.19972,0.0932 z m -2.95424,0.4879 -0.006,0.30495 -0.14076,0.0976 c -0.0774,0.0537 -0.15687,0.0914 -0.1766,0.0839 -0.0197,-0.007 -0.0452,-0.0796 -0.0567,-0.1601 -0.0115,-0.0805 -0.0355,-0.18869 -0.0534,-0.2403 -0.0205,-0.0592 -0.0221,-0.13327 -0.005,-0.20086 0.0231,-0.0883 0.0497,-0.11373 0.15175,-0.14527 0.0681,-0.0211 0.16118,-0.0397 0.20693,-0.0415 l 0.0832,-0.004 z m -0.58156,-0.11618 c 0.0442,0.0237 0.0604,0.0223 0.0604,-0.006 0,-0.0207 0.0105,-0.0271 0.0234,-0.0142 0.0129,0.0129 9.2e-4,0.0398 -0.0263,0.06 -0.0491,0.0361 -0.10103,0.28194 -0.0668,0.31616 0.0347,0.0347 0.0298,0.33265 -0.006,0.32093 -0.0712,-0.0238 -0.26182,-0.40407 -0.2635,-0.52591 -0.003,-0.1649 0.12427,-0.23398 0.27795,-0.15173 z m 0.68049,0.34637 c -0.0614,0.038 -0.0836,-0.006 -0.0642,-0.12853 l 0.0174,-0.10947 0.0439,0.10637 c 0.0359,0.0871 0.0364,0.11095 0.003,0.13163 z m -0.59466,2.7e-4 c -0.0551,0.0341 -0.0629,0.0166 -0.0376,-0.0842 l 0.0221,-0.0879 0.0273,0.074 c 0.0189,0.051 0.0151,0.0815 -0.0118,0.0982 z m 4.90434,-0.0436 c 0.0236,0.0306 0.0743,0.15407 0.11258,0.2745 0.097,0.30499 0.0913,0.65264 -0.0174,1.06157 -0.0454,0.17101 -0.0916,0.37861 -0.10255,0.46134 -0.0156,0.11732 -0.0324,0.15039 -0.0769,0.15039 -0.0314,0 -0.0713,0.0246 -0.0888,0.0547 -0.0247,0.0424 -0.0321,0.0185 -0.0328,-0.10563 -5.1e-4,-0.10535 0.0152,-0.17373 0.046,-0.19931 0.10455,-0.0868 0.0259,-0.31277 -0.10891,-0.31277 -0.0368,0 -0.081,-0.0485 -0.12287,-0.13498 -0.0671,-0.13848 -0.0883,-0.33417 -0.0361,-0.33417 0.016,0 0.0378,-0.0273 0.0485,-0.0606 0.0106,-0.0334 0.0649,-0.0756 0.12062,-0.0941 0.32009,-0.10564 0.21226,-0.56466 -0.13265,-0.56466 -0.0914,0 -0.0968,-0.006 -0.0968,-0.1199 0,-0.066 0.0105,-0.13081 0.0235,-0.14414 0.0446,-0.0462 0.41902,0.008 0.46492,0.0677 z m -1.71055,0.26331 c -0.0307,0.0574 -0.0274,0.0757 0.0201,0.11035 0.0312,0.0229 0.0735,0.0416 0.0939,0.0416 0.0441,0 0.0761,0.14165 0.0761,0.33735 0,0.11964 -0.0154,0.15564 -0.0984,0.22974 -0.0825,0.0737 -0.092,0.0956 -0.0587,0.13572 0.0218,0.0263 0.0838,0.0489 0.13752,0.0503 0.0538,9.2e-4 0.0793,0.01 0.0567,0.0189 -0.0767,0.0306 -0.31863,-0.0226 -0.31863,-0.0702 0,-0.0248 -0.0141,-0.045 -0.0313,-0.045 -0.0171,0 -0.0312,-0.0344 -0.0312,-0.0764 0,-0.11671 -0.0569,-0.12627 -0.11758,-0.0197 -0.0431,0.0758 -0.0755,0.0957 -0.1561,0.0959 -0.0881,1.4e-4 -0.10165,0.0109 -0.10165,0.08 0,0.0864 -0.0813,0.26588 -0.13729,0.30291 -0.052,0.0345 -0.32527,0.0286 -0.3475,-0.007 -0.0106,-0.0172 -0.0748,-0.0312 -0.14259,-0.0312 -0.0956,0 -0.12384,0.0122 -0.12582,0.0547 -9.2e-4,0.0301 -0.0359,-0.086 -0.0768,-0.25803 -0.0409,-0.17203 -0.0824,-0.34562 -0.0925,-0.38577 -0.0114,-0.0458 -0.006,-0.0656 0.0138,-0.0532 0.0176,0.0109 0.17656,-0.0606 0.35312,-0.15905 0.17657,-0.0984 0.35455,-0.17651 0.39554,-0.1736 0.0903,0.006 0.27544,-0.10263 0.29899,-0.1761 0.009,-0.0293 0.084,-0.0884 0.16582,-0.13163 l 0.14877,-0.0784 0.0563,0.0697 c 0.0462,0.0573 0.0497,0.082 0.0195,0.13852 z m -3.13082,-0.0566 c 0.006,0.0309 -0.0101,0.0521 -0.0391,0.0521 -0.0289,0 -0.0492,-0.0267 -0.0492,-0.0651 0,-0.0762 0.073,-0.0654 0.0883,0.0131 z m 1.48134,0.33407 c 0.0463,0.10231 0.0741,0.19216 0.0619,0.19965 -0.0251,0.0155 -0.34924,-0.25558 -0.34924,-0.29195 0,-0.0256 0.12113,-0.0909 0.17201,-0.0926 0.0172,-5e-4 0.0691,0.0826 0.11528,0.18494 z m -0.38898,0.13249 c 0.0541,0.0559 0.11118,0.13684 0.12701,0.17984 0.0261,0.0709 0.0145,0.0878 -0.12514,0.18185 -0.0847,0.057 -0.15951,0.12035 -0.16634,0.14075 -0.006,0.0205 -0.0351,0.11753 -0.0627,0.21586 -0.0566,0.20095 -0.0368,0.19148 -0.47651,0.22827 l -0.22675,0.019 v -0.094 c 0,-0.0785 0.0272,-0.11247 0.1642,-0.20531 0.25293,-0.17136 0.27367,-0.1913 0.27367,-0.26303 0,-0.0369 -0.0106,-0.0669 -0.0235,-0.0669 -0.0129,1e-5 -0.022,-0.0504 -0.0203,-0.1121 0.003,-0.103 0.0182,-0.12063 0.18766,-0.21692 0.10146,-0.0577 0.1993,-0.10572 0.21743,-0.10685 0.0182,-9.2e-4 0.0772,0.0437 0.1312,0.0996 z m 1.85319,0.33807 c 0,0.0162 -0.0141,0.0295 -0.0312,0.0295 -0.0172,0 -0.0312,-0.0219 -0.0312,-0.0487 0,-0.0269 0.0141,-0.0401 0.0312,-0.0295 0.0172,0.0106 0.0312,0.0326 0.0312,0.0487 z m -3.11888,0.50771 c 0.008,0.0222 -0.004,0.0672 -0.0279,0.0998 -0.0404,0.0553 -0.0435,0.0524 -0.0435,-0.0404 0,-0.10002 0.0423,-0.1352 0.0714,-0.0594 z m 3.96335,0.41055 c 0,0.0588 0.008,0.12802 0.018,0.15384 0.0147,0.0382 -0.0133,0.0467 -0.15127,0.0454 -0.16474,-9.2e-4 -0.16893,-0.004 -0.1564,-0.0835 0.0257,-0.1639 0.0747,-0.2227 0.18549,-0.2227 0.0977,0 0.10418,0.006 0.10418,0.10692 z m -0.81908,-0.006 c 0.008,0.0421 -0.0112,0.0544 -0.0857,0.0544 -0.0621,0 -0.0961,-0.0158 -0.0961,-0.0443 0,-0.0907 0.1645,-0.0997 0.18177,-0.01 z m -0.6822,0.009 c 0,0.0269 -0.0141,0.0401 -0.0312,0.0295 -0.0172,-0.0106 -0.0312,-0.0326 -0.0312,-0.0487 0,-0.0162 0.0141,-0.0295 0.0312,-0.0295 0.0172,0 0.0312,0.0219 0.0312,0.0487 z m -1.09218,0.086 c -0.0799,0.0279 -0.11625,0.065 -0.14373,0.1468 l -0.0368,0.10947 -0.26287,0.004 c -0.14459,0.003 -0.35605,0.0145 -0.46994,0.0269 l -0.20707,0.0226 -0.0159,-0.10503 c -0.009,-0.0578 -0.0124,-0.109 -0.008,-0.11385 0.007,-0.009 0.0623,-0.0162 0.41104,-0.0557 0.18491,-0.0209 0.19516,-0.0182 0.29395,0.0762 0.0563,0.0538 0.11296,0.0978 0.12591,0.0978 0.0129,0 0.052,-0.0482 0.0867,-0.10697 0.0594,-0.1006 0.11985,-0.13119 0.27148,-0.13723 0.0344,-9.2e-4 0.0145,0.0143 -0.0444,0.0348 z m -3.70165,0.44719 c -0.0104,0.0104 -0.0374,0.0114 -0.06,0.003 -0.025,-0.01 -0.0176,-0.0174 0.0189,-0.0189 0.033,-9.2e-4 0.0514,0.006 0.0411,0.0164 z"
         id="path46620-37" />
    </g>
  </g>
</svg>
