<?xml version="1.0" encoding="UTF-8" standalone="no"?>
<!-- Created with Inkscape (http://www.inkscape.org/) -->

<svg
   width="12.6368mm"
   height="5.8679824mm"
   viewBox="0 0 12.6368 5.8679824"
   version="1.1"
   id="svg1"
   sodipodi:docname="inkporter-svg-98vuzq3c.svg"
   xmlns:inkscape="http://www.inkscape.org/namespaces/inkscape"
   xmlns:sodipodi="http://sodipodi.sourceforge.net/DTD/sodipodi-0.dtd"
   xmlns="http://www.w3.org/2000/svg"
   xmlns:svg="http://www.w3.org/2000/svg">
  <sodipodi:namedview
     id="namedview1"
     pagecolor="#ffffff"
     bordercolor="#666666"
     borderopacity="1.0"
     inkscape:showpageshadow="2"
     inkscape:pageopacity="0.0"
     inkscape:pagecheckerboard="0"
     inkscape:deskcolor="#d1d1d1"
     inkscape:document-units="mm"
     inkscape:zoom="1.0293026"
     inkscape:cx="447.87605"
     inkscape:cy="570.77479"
     inkscape:window-width="1920"
     inkscape:window-height="1017"
     inkscape:window-x="-8"
     inkscape:window-y="-8"
     inkscape:window-maximized="1"
     inkscape:current-layer="layer1" />
  <defs
     id="defs1" />
  <g
     inkscape:label="Layer 1"
     inkscape:groupmode="layer"
     id="layer1"
     transform="translate(-99.107,-183.27662)">
    <g
       id="R-Infantry4"
       transform="translate(-380.63911,265.86022)">
      <path
         id="path13968-08-0-4-3"
         style="fill:#000000;stroke-width:0.0169309"
         d="m 479.74611,-80.175075 c 0.005,-0.0019 0.009,-0.004 0.014,-0.0057 0.006,-0.0021 0.0124,-0.0044 0.0191,-0.0062 0.0132,-0.0037 0.0272,-0.0065 0.0424,-0.0093 0.0151,-0.0028 0.0311,-0.005 0.0481,-0.0072 0.0169,-0.0021 0.0346,-0.0042 0.0532,-0.0062 0.0373,-0.0039 0.078,-0.008 0.12094,-0.01291 0.0214,-0.0024 0.0435,-0.0051 0.0661,-0.0083 0.0228,-0.0032 0.0461,-0.0071 0.0697,-0.01138 0.0236,-0.0043 0.0454,-0.0087 0.0651,-0.01291 0.0198,-0.0043 0.0372,-0.0083 0.0532,-0.01241 0.0161,-0.0041 0.0307,-0.0081 0.0434,-0.01188 0.0127,-0.0038 0.0235,-0.0075 0.0331,-0.01085 0.01,-0.0033 0.0175,-0.0061 0.0243,-0.0088 0.007,-0.0027 0.0122,-0.0053 0.0164,-0.0072 0.008,-0.0039 0.0124,-0.0062 0.0124,-0.0062 0.005,0.0042 0.14793,-0.0066 0.31988,-0.02429 0.35563,-0.0365 0.42921,-0.04028 0.49559,-0.02429 0.0326,0.0078 0.0566,0.0027 0.078,-0.01654 0.0169,-0.01535 0.0784,-0.0362 0.13695,-0.04651 0.0918,-0.01617 0.10871,-0.01503 0.12141,0.0078 0.0101,0.01683 0.0303,0.02344 0.0569,0.0186 0.023,-0.0042 0.12772,-0.01162 0.23255,-0.01654 0.10482,-0.0049 0.24992,-0.01199 0.32244,-0.01601 0.11364,-0.0063 0.13333,-0.0035 0.14264,0.0217 0.013,0.03524 0.0379,0.05395 0.0723,0.05426 0.0209,1.93e-4 0.0257,-0.02787 0.0249,-0.160713 0,-0.100558 -0.008,-0.16827 -0.0217,-0.180869 -0.0462,-0.04624 -0.0103,-0.133541 0.11832,-0.287322 0.0935,-0.112133 0.18958,-0.155035 0.32764,-0.146243 0.13523,0.0086 0.23439,0.07073 0.293,0.183451 0.0364,0.06985 0.0391,0.09037 0.031,0.2589 -0.006,0.127662 -0.0172,0.195866 -0.0362,0.224793 -0.0151,0.02286 -0.0225,0.04908 -0.0172,0.05788 0.0172,0.02804 0.14833,0.05546 0.2739,0.05736 0.11065,0.0016 0.12673,0.0065 0.17571,0.05271 0.11361,0.107249 0.13721,0.165902 0.14004,0.344683 0.003,0.121341 -0.005,0.178036 -0.0254,0.222208 -0.0349,0.07325 -0.055,0.287208 -0.0388,0.417028 0.008,0.07003 0.0233,0.107104 0.0522,0.133842 0.022,0.0204 0.0403,0.04434 0.0403,0.05323 0,0.0089 0.0228,0.04204 0.0506,0.07338 0.0641,0.07176 0.0854,0.141682 0.0966,0.316259 0.008,0.133144 0.007,0.140303 -0.0351,0.179835 -0.0243,0.02262 -0.0445,0.0578 -0.0445,0.07855 0,0.0235 -0.0124,0.041 -0.0336,0.04651 -0.0387,0.01011 -0.0401,0.02437 -0.0161,0.172082 0.0124,0.07728 0.0122,0.123981 0,0.165365 -0.0172,0.05174 -0.0132,0.0694 0.0367,0.171566 0.0521,0.106334 0.0567,0.129643 0.0682,0.350883 0.006,0.130368 0.0169,0.264268 0.0233,0.29714 0.0101,0.04982 -0.004,0.08893 -0.0739,0.236678 -0.0855,0.178268 -0.12676,0.240353 -0.17258,0.258381 -0.047,0.01844 -0.14126,-0.003 -0.27647,-0.02946 l -0.0785,-0.07596 c -2.1e-4,-0.0052 -0.0191,-0.04267 -0.0424,-0.0832 -0.0233,-0.04053 -0.0424,-0.08279 -0.0424,-0.09405 0,-0.03209 -0.091,-0.111424 -0.12766,-0.111104 -0.0353,2.65e-4 -0.10067,0.03701 -0.25164,0.141076 -0.10002,0.0689 -0.0734,0.07338 -0.0734,0.07338 l -0.18396,0.0098 c 0.006,-0.0056 -0.005,-0.02058 -0.0233,-0.03359 -0.0649,-0.04544 -0.0333,-0.20523 0.063,-0.319876 0.0167,-0.01974 0.0726,-0.06319 0.12507,-0.09612 0.12068,-0.07586 0.17145,-0.129418 0.16071,-0.170532 -0.006,-0.02215 0.0161,-0.05573 0.0713,-0.109037 l 0.0791,-0.07648 -0.0574,-0.179319 c -0.0317,-0.09856 -0.0609,-0.18271 -0.0646,-0.187068 -0.004,-0.0044 -0.17209,-0.01384 -0.37415,-0.02066 -0.20206,-0.0069 -0.39285,-0.02 -0.42426,-0.02945 l -0.0574,-0.01707 0.0145,0.07132 c 0.008,0.03926 0.0154,0.193103 0.0164,0.342096 0.003,0.262535 0.0251,0.452908 0.0806,0.671795 0.0259,0.102172 0.0124,0.23282 -0.0279,0.265099 -0.0384,0.03077 -0.52324,0.06866 -0.68728,0.05374 -0.0804,-0.0073 -0.0884,-0.01088 -0.0527,-0.02326 l 0.0424,-0.01498 -0.0424,-0.0078 c -0.0233,-0.0044 -0.0498,-0.01434 -0.0594,-0.02222 -0.0271,-0.02223 -0.0204,-0.137697 0.01,-0.152445 0.014,-0.007 0.0749,-0.03765 0.13538,-0.0677 0.11422,-0.0567 0.16005,-0.09429 0.21085,-0.173117 0.0536,-0.08314 0.0367,-0.280204 -0.0486,-0.57154 -0.0288,-0.09798 -0.061,-0.259482 -0.0956,-0.478007 -0.0164,-0.102494 -0.0164,-0.154233 0,-0.237196 0.0361,-0.188619 0.0884,-0.250365 0.25734,-0.30644 0.0924,-0.03067 0.35613,-0.07848 0.43307,-0.07855 0.0512,-5e-5 0.0544,-0.0039 0.0594,-0.07079 0.005,-0.06098 0.0119,-0.07304 0.0558,-0.08888 0.0474,-0.01715 0.0506,-0.02249 0.0419,-0.08578 -0.0119,-0.08477 0.005,-0.120086 0.0615,-0.134358 0.0361,-0.009 0.0423,-0.01828 0.0336,-0.04858 -0.006,-0.02053 -0.018,-0.07386 -0.0269,-0.118338 -0.0269,-0.134734 -0.043,-0.153178 -0.12195,-0.14056 -0.0374,0.0059 -0.0995,0.02654 -0.13798,0.04599 -0.18013,0.09079 -0.46307,0.150476 -0.59584,0.125574 -0.072,-0.01352 -0.12094,-0.0805 -0.14261,-0.194821 -0.0204,-0.10731 0.0106,-0.196921 0.093,-0.269235 0.0701,-0.06159 0.0957,-0.109453 0.0858,-0.158646 -0.0283,-0.139571 -0.007,-0.125156 -0.20569,-0.136428 -0.12621,-0.0071 -0.18936,-0.0045 -0.21238,0.0098 -0.0262,0.01625 -0.0358,0.01582 -0.0476,-0.0031 -0.0119,-0.01934 -0.0512,-0.02175 -0.20722,-0.01241 -0.32012,0.01921 -0.76441,0.06212 -0.81648,0.07906 -0.0321,0.01045 -0.0565,0.01048 -0.0703,-0.0011 -0.0119,-0.0096 -0.0521,-0.01376 -0.0904,-0.0088 -0.22101,0.02847 -0.20437,0.03001 -0.2217,-0.0155 -0.01,-0.02635 -0.023,-0.03776 -0.0387,-0.03359 z m 2.2651,0.06211 c -0.0393,-0.0027 -0.0399,0.0042 -0.0333,0.02956 0.006,0.02127 -0.003,0.04884 -0.0209,0.06888 -0.0433,0.04785 -0.0238,0.05477 0.044,0.01556 0.0321,-0.01857 0.0838,-0.04551 0.11506,-0.05986 0.0313,-0.01434 0.0541,-0.02847 0.0507,-0.03141 -0.004,-0.003 -0.0493,-0.01058 -0.10211,-0.01701 -0.023,-0.0027 -0.0404,-0.0048 -0.0535,-0.0057 z" />
      <path
         id="path14157-4-7-8-0"
         style="fill:#000000;stroke-width:0.0169309"
         d="m 487.48495,-81.221255 c 0.0894,0.0015 0.18987,0.02908 0.30076,0.08216 0.0554,0.02651 0.0589,0.03378 0.0579,0.106971 l -5e-4,0.07803 0.0786,0.01034 c 0.13441,0.01783 0.27236,0.126897 0.32039,0.253214 0.012,0.03148 0.0294,0.04444 0.0589,0.04444 0.0229,0 0.0456,0.0068 0.0506,0.01499 0.005,0.0081 0.0283,0.01064 0.0517,0.0062 0.0235,-0.0045 0.0533,7.65e-4 0.0662,0.01137 0.0127,0.01058 0.0343,0.01462 0.048,0.0093 0.0137,-0.0052 0.0587,0.0022 0.0997,0.01654 0.041,0.01427 0.10525,0.02622 0.14314,0.02635 0.0912,3.2e-4 0.36515,0.05926 0.42941,0.0925 0.0281,0.01448 0.10986,0.03521 0.18243,0.04599 0.0725,0.01082 0.14365,0.02877 0.15762,0.03979 0.0392,0.03095 0.0842,0.04317 0.0842,0.02274 0,-0.0101 0.0154,-0.01471 0.0341,-0.0098 0.0185,0.0049 0.034,0.004 0.0341,-0.0021 1.8e-4,-0.0062 0.005,-0.02746 0.01,-0.04702 0.006,-0.02159 -9.3e-4,-0.04663 -0.0191,-0.06408 -0.0271,-0.02705 -0.0261,-0.02799 0.0134,-0.01809 0.0355,0.0089 0.0548,-0.0047 0.12713,-0.08578 0.068,-0.0763 0.0931,-0.09357 0.12091,-0.08475 0.0378,0.01199 0.10348,0.08662 0.10335,0.117305 0,0.01034 -0.0387,0.05827 -0.0858,0.106453 -0.0673,0.069 -0.0842,0.09751 -0.0801,0.134358 0.003,0.02471 0.002,0.03718 -0.0109,0.04548 -0.002,0.0012 -0.004,0.0021 -0.006,0.0031 -0.008,0.0037 -0.0186,0.0067 -0.0336,0.0098 -0.0573,0.01208 -0.0827,0.02689 -0.0693,0.04031 0,0 -0.004,0.0023 -0.0124,0.0062 -0.004,0.002 -0.01,0.0045 -0.0165,0.0072 -0.007,0.0027 -0.0147,0.0055 -0.0243,0.0088 -0.01,0.0033 -0.0204,0.0071 -0.0331,0.01085 -0.0127,0.0038 -0.0274,0.0078 -0.0434,0.01188 -0.0161,0.0041 -0.0335,0.0081 -0.0532,0.0124 -0.0197,0.0043 -0.0414,0.0086 -0.0651,0.01292 -0.0237,0.0043 -0.0471,0.0082 -0.0697,0.01137 -0.0227,0.0032 -0.0447,0.0058 -0.0661,0.0083 -0.043,0.0049 -0.0837,0.009 -0.12094,0.01292 -0.0186,0.002 -0.0362,0.004 -0.0532,0.0062 -0.017,0.0022 -0.0329,0.0045 -0.0481,0.0072 -0.0151,0.0028 -0.0292,0.0056 -0.0424,0.0093 -0.007,0.0018 -0.0131,0.0041 -0.0191,0.0062 -0.005,0.0017 -0.009,0.0038 -0.0139,0.0057 -10e-4,2.78e-4 -0.003,6.19e-4 -0.004,10e-4 -9e-4,3.44e-4 -0.002,7.39e-4 -0.003,0.001 -0.0146,0.0044 -0.0373,0.0035 -0.0527,-0.0026 -0.0163,-0.0064 -0.0958,-0.01417 -0.17621,-0.01705 -0.0805,-0.0029 -0.17407,-0.01456 -0.20826,-0.02584 -0.0797,-0.02633 -0.0955,-0.0098 -0.0398,0.04186 0.0242,0.02243 0.0577,0.07772 0.0744,0.122473 0.0168,0.04475 0.036,0.08474 0.0424,0.0894 0.006,0.0046 0.0239,0.03511 0.0393,0.0677 0.0153,0.03259 0.0479,0.09762 0.0724,0.144179 0.0622,0.118814 0.0713,0.246205 0.0238,0.330729 -0.043,0.07655 -0.034,0.140489 0.0243,0.1788 0.0213,0.01387 0.0538,0.06112 0.0729,0.104902 0.0191,0.04379 0.0652,0.116256 0.10231,0.160714 0.0983,0.11784 0.11073,0.168412 0.0884,0.36432 l -0.0186,0.16433 0.078,0.152445 c 0.0811,0.158293 0.14293,0.340027 0.17777,0.520899 0.0311,0.161591 0.0864,0.270544 0.17881,0.353467 0.0452,0.04055 0.12263,0.115025 0.17258,0.165881 0.0896,0.0913 0.0906,0.09383 0.0811,0.174667 -0.0299,0.23517 -0.32184,0.02339 -0.54623,-0.06925 -0.0662,-0.0189 -0.0705,-0.02397 -0.0822,-0.100253 -0.007,-0.04422 -0.0141,-0.107455 -0.016,-0.140041 -0.005,-0.08502 -0.0245,-0.137555 -0.0698,-0.186037 -0.0217,-0.02336 -0.074,-0.116125 -0.11626,-0.206187 -0.0421,-0.09006 -0.0959,-0.183192 -0.11938,-0.206708 -0.0235,-0.02352 -0.0428,-0.04893 -0.0429,-0.05633 0,-0.0074 -0.0222,-0.02604 -0.0491,-0.04134 -0.0269,-0.0153 -0.0591,-0.04896 -0.0718,-0.07493 -0.0188,-0.03865 -0.0468,-0.05419 -0.15452,-0.08682 -0.16322,-0.04946 -0.1828,-0.07374 -0.37105,-0.457853 -0.11194,-0.228616 -0.14091,-0.275376 -0.17155,-0.275953 -0.0203,-3.83e-4 -0.0777,-0.0031 -0.12714,-0.0062 l -0.0899,-0.0057 -0.18087,0.167431 c -0.11896,0.109863 -0.20299,0.174056 -0.24545,0.187069 -0.1664,0.05097 -0.19905,0.244482 -0.0967,0.574124 0.0739,0.237932 0.13634,0.508887 0.14367,0.622702 0.004,0.05472 0.0146,0.128733 0.0243,0.164846 0.01,0.03611 0.0165,0.15638 0.015,0.267169 -0.30949,0.23654 -0.86247,0.112138 -0.86247,0.112138 l 0.0109,-0.09509 c 0,-0.0791 3.5e-4,-0.0793 0.0966,-0.131773 0.0531,-0.02897 0.1433,-0.09585 0.2005,-0.148312 0.0916,-0.08408 0.10152,-0.09961 0.0853,-0.130225 -0.0107,-0.0191 -0.0181,-0.05766 -0.0181,-0.08578 0,-0.04613 -0.0673,-0.269594 -0.11989,-0.399457 -0.0119,-0.02793 -0.0437,-0.06613 -0.0723,-0.08475 -0.0287,-0.01863 -0.0677,-0.05711 -0.0868,-0.08527 -0.0304,-0.0452 -0.0399,-0.0493 -0.0801,-0.03514 -0.0332,0.01165 -0.0529,0.0098 -0.0734,-0.0072 -0.0234,-0.01936 -0.0263,-0.04455 -0.0181,-0.150894 0.0187,-0.242687 0.0291,-0.295934 0.0687,-0.339513 0.0599,-0.06621 0.1079,-0.363699 0.076,-0.470258 -0.0162,-0.05406 -0.0136,-0.09588 0.015,-0.241845 0.0189,-0.09716 0.0386,-0.222662 0.0434,-0.278534 0.007,-0.09004 0.022,-0.161018 0.0775,-0.380858 0.008,-0.03259 0.0247,-0.104835 0.0362,-0.160713 0.0376,-0.181904 0.0957,-0.305689 0.17415,-0.370001 0.0575,-0.04708 0.0759,-0.0759 0.092,-0.146246 0.0281,-0.12128 0.0259,-0.134469 -0.0227,-0.152961 -0.0674,-0.02564 -0.0673,-0.05911 0.001,-0.190169 0.0895,-0.171215 0.13642,-0.228129 0.23514,-0.284739 0.0485,-0.02784 0.10181,-0.04386 0.16018,-0.04806 0.0123,-8.36e-4 0.0244,-0.0013 0.0372,-0.001 z" />
      <path
         style="fill:#000000;stroke-width:0.028598"
         d="m 490.44411,-76.72753 c 0.0992,-0.01291 0.11838,-0.06474 0.0902,-0.182836 -0.097,-0.406657 0.20742,-1.242487 0.48859,-1.591909 0.0506,-0.06292 0.12757,-0.17552 0.17099,-0.250232 0.0435,-0.07471 0.0854,-0.135841 0.0933,-0.135841 0.0631,0 0.18716,0.198605 0.20181,0.284883 0.01,0.05632 0.0522,0.135086 0.0946,0.175045 l 0.0772,0.07266 -0.007,0.667092 -0.007,0.667093 0.0728,0.02157 c 0.0401,0.01187 0.0963,0.01279 0.125,0.0021 0.0286,-0.01074 0.10046,0.0043 0.15951,0.0334 0.10627,0.05235 0.33649,0.07684 0.36842,0.03918 0.0349,-0.0412 -0.022,-0.127514 -0.11401,-0.172839 -0.0529,-0.02602 -0.1358,-0.08676 -0.18439,-0.134955 -0.0788,-0.0781 -0.0883,-0.107154 -0.0883,-0.266862 0,-0.09858 0.0137,-0.288722 0.0302,-0.422551 0.0219,-0.175644 0.0213,-0.382563 -0.002,-0.743931 -0.0178,-0.275333 -0.0352,-0.568189 -0.0389,-0.65079 -0.0129,-0.299436 -0.0587,-0.434465 -0.12412,-0.512128 -0.0361,-0.04289 -0.0745,-0.113402 -0.0854,-0.156705 -0.0109,-0.0433 -0.0438,-0.09379 -0.0734,-0.112199 -0.057,-0.03559 -0.0728,-0.147467 -0.025,-0.177 0.0158,-0.0097 0.0286,-0.08246 0.0286,-0.161653 0,-0.119929 -0.01,-0.146479 -0.0572,-0.158937 -0.0315,-0.0082 -0.0572,-0.02528 -0.0572,-0.03788 0,-0.01261 -0.007,-0.04007 -0.0141,-0.06101 -0.0283,-0.07706 0.0376,-0.115653 0.23438,-0.137258 0.24316,-0.02669 0.35327,-0.07632 0.40395,-0.182056 0.0509,-0.106188 0.005,-0.218554 -0.12926,-0.321511 -0.0823,-0.0628 -0.11841,-0.07283 -0.20953,-0.05826 -0.0606,0.0097 -0.1424,0.0054 -0.1819,-0.0097 -0.0654,-0.02486 -0.0694,-0.03573 -0.0448,-0.121381 0.0806,-0.281206 -0.0403,-0.480528 -0.29156,-0.480528 -0.0662,0 -0.12341,0.03541 -0.23894,0.147944 -0.0843,0.08211 -0.1454,0.164828 -0.13732,0.185887 0.008,0.02087 3.3e-4,0.03795 -0.0171,0.03795 -0.0174,0 -0.0317,-0.01108 -0.0317,-0.02462 0,-0.01354 -0.0611,-0.03188 -0.13584,-0.04077 -0.0747,-0.0089 -0.29897,-0.06216 -0.49836,-0.118375 -0.19937,-0.05622 -0.38598,-0.102291 -0.41467,-0.102378 -0.11709,-3.25e-4 -0.26668,-0.06074 -0.26865,-0.108428 -0.002,-0.04044 -0.005,-0.04142 -0.0214,-0.0058 -0.0107,0.02359 -0.0356,0.04289 -0.0552,0.04289 -0.0914,0 -0.0285,0.06166 0.10353,0.101455 0.1008,0.03039 0.1376,0.0535 0.11737,0.07373 -0.0202,0.02022 0.0244,0.04446 0.14249,0.07728 0.0946,0.02629 0.19171,0.04781 0.21584,0.04781 0.0328,0 0.0392,0.01849 0.0255,0.07308 -0.0215,0.08582 0.0566,0.183131 0.22141,0.275766 0.11379,0.06395 0.16761,0.152794 0.16761,0.276671 0,0.09599 -0.086,0.177663 -0.24309,0.230846 -0.20416,0.06912 -0.24117,0.111894 -0.24218,0.279876 -5.9e-4,0.08228 -0.0165,0.240594 -0.0356,0.351799 -0.0382,0.223042 -0.0185,0.29269 0.0876,0.308475 0.0338,0.005 0.0614,0.02111 0.0614,0.03575 0,0.04829 0.11041,0.02767 0.14931,-0.02789 0.0369,-0.05265 0.0415,-0.05179 0.13598,0.02534 0.0973,0.0794 0.0976,0.08056 0.0668,0.21893 -0.0171,0.07651 -0.0245,0.212782 -0.0165,0.302834 0.0115,0.130358 0.002,0.19114 -0.0486,0.298211 -0.0661,0.140638 -0.0657,0.206693 0.003,0.432307 0.0305,0.100734 0.0303,0.138271 -8.4e-4,0.214485 -0.11836,0.286029 -0.15165,0.428792 -0.17778,0.762435 -0.0154,0.197711 -0.01,0.486234 -0.0665,0.618583 -0.10115,0.235265 -0.0728,0.27011 0.0287,0.287801 0.0956,0.01667 0.13865,0.0099 0.21917,-0.0019 z"
         id="path10383-1-3-0-2-7"
         sodipodi:nodetypes="csssscscccssssssscscsscsscscsscsccssssssssccsssssssssscsssssscccssscc" />
      <path
         id="path10327-2-54-7-6-9"
         style="fill:#000000;stroke-width:0.028598"
         d="m 486.4747,-76.868771 c 0.0427,-0.07357 -0.0312,-0.188383 -0.17215,-0.267998 -0.1704,-0.09614 -0.0677,-0.07065 -0.10636,-0.590258 -0.0157,-0.212341 -0.0478,-0.43755 -0.0713,-0.500465 -0.0539,-0.144627 -0.0559,-0.268265 -0.006,-0.386417 0.0352,-0.08371 0.0315,-0.118018 -0.0389,-0.35361 -0.0471,-0.15789 -0.086,-0.373722 -0.0984,-0.546643 -0.0113,-0.157157 -0.0335,-0.301292 -0.0492,-0.320301 -0.0289,-0.03488 -0.0464,-0.4164 -0.0226,-0.493934 0.008,-0.02392 -0.0147,-0.05439 -0.0515,-0.07113 -0.0534,-0.02429 -0.0643,-0.05206 -0.0643,-0.162988 0,-0.1048 0.0217,-0.166576 0.1001,-0.285696 0.055,-0.08359 0.10008,-0.173725 0.10008,-0.200299 0,-0.02658 0.01,-0.0526 0.0215,-0.05785 0.0681,-0.03027 0.23594,-0.33803 0.23594,-0.432651 0,-0.145497 -0.27409,-0.288288 -0.55052,-0.28681 -0.10617,5.56e-4 -0.19303,-0.0022 -0.19303,-0.006 0,-0.0038 0.0254,-0.06315 0.0566,-0.131718 0.11155,-0.24584 0.0499,-0.482277 -0.15047,-0.577372 -0.17418,-0.08266 -0.31357,-0.0483 -0.52552,0.129553 l -0.11893,0.09981 0.0551,0.12317 c 0.0673,0.150218 0.0495,0.241007 -0.0412,0.210125 -0.0341,-0.01162 -0.38796,-0.01748 -0.7863,-0.01302 -0.64891,0.0073 -0.72987,0.003 -0.77805,-0.04055 -0.0495,-0.0448 -0.0574,-0.04499 -0.1,-0.0024 -0.0254,0.0254 -0.0761,0.04619 -0.11259,0.04619 -0.0755,0 -0.11471,0.06756 -0.0637,0.109739 0.0187,0.01547 0.24422,0.0325 0.5011,0.03783 0.40546,0.0084 0.47192,0.01634 0.50375,0.05993 0.0353,0.04829 0.0265,0.152177 -0.0274,0.325785 -0.0216,0.06959 0.056,0.210256 0.11609,0.210256 0.0207,0 0.0673,0.04156 0.10343,0.09236 0.0525,0.07384 0.0641,0.122904 0.0574,0.244672 -0.008,0.134404 0.003,0.170609 0.095,0.308009 0.0568,0.08564 0.11811,0.155701 0.13614,0.155701 0.0238,0 0.0234,0.0094 -8.3e-4,0.03432 -0.0189,0.01887 -0.0343,0.06151 -0.0343,0.09474 0,0.03323 -0.0386,0.09741 -0.0858,0.142621 -0.0472,0.04521 -0.0858,0.09656 -0.0858,0.114108 0,0.01756 0.0396,0.08583 0.0881,0.151727 0.0931,0.126535 0.0959,0.207705 0.0132,0.37762 -0.0191,0.03932 -0.0714,0.197658 -0.11613,0.351858 -0.0901,0.310431 -0.0837,0.374073 0.0599,0.597297 0.0626,0.09741 0.0648,0.112804 0.0282,0.200467 -0.0307,0.07332 -0.0361,0.196541 -0.0238,0.540941 0.02,0.563936 0.0986,0.588028 -0.0607,0.758539 -0.0944,0.100916 -0.12678,0.158528 -0.12678,0.22552 0,0.08615 0.0635,0.08413 0.17474,0.08413 0.14378,0 0.24796,-0.02796 0.28247,-0.118736 0.0164,-0.04324 -0.0102,-0.06763 0.0268,-0.06763 0.0329,0 -0.0309,0.01652 0,0 0.0486,-0.02598 0.0536,-0.04912 0.0374,-0.171665 -0.0104,-0.07794 -0.005,-0.196261 0.0125,-0.2631 0.0172,-0.06681 0.0374,-0.259297 0.0449,-0.427758 0.008,-0.168463 0.0274,-0.331698 0.0439,-0.362744 0.0166,-0.03105 0.0301,-0.08303 0.0301,-0.115527 0,-0.03249 0.0269,-0.08374 0.0596,-0.113889 0.0328,-0.03015 0.0968,-0.08989 0.14229,-0.132771 0.0512,-0.04825 0.11297,-0.163583 0.16206,-0.302586 0.0437,-0.123546 0.0858,-0.224576 0.0936,-0.224509 0.0329,3.26e-4 0.14559,0.198525 0.19581,0.344503 0.0298,0.08644 0.099,0.227616 0.15394,0.313719 0.16613,0.260424 0.21344,0.376693 0.23267,0.571841 0.0101,0.102579 0.0393,0.276311 0.0649,0.386073 0.0256,0.109761 -0.0144,0.346694 0.018,0.427635 -0.0106,0.135098 0.0324,0.151731 0.11915,0.153118 0.0509,8.15e-4 0.11949,0.0652 0.15083,0.07642 0.0357,0.01279 0.19249,-0.0012 0.19249,-0.0012 0.10076,-0.0054 0.12118,-0.01479 0.15342,-0.07042 z m -2.08676,-4.40532 c -0.0259,-0.07439 -0.0366,-0.0815 -0.0755,-0.05005 -0.0325,0.02631 -0.0394,0.02682 -0.0244,0.0018 0.0115,-0.01916 -0.005,-0.0923 -0.0372,-0.162518 -0.093,-0.204195 -0.0709,-0.224567 0.24887,-0.229361 0.13585,-0.0021 0.15008,0.0037 0.15015,0.06016 2e-5,0.03807 -0.0231,0.06976 -0.0592,0.08123 -0.0349,0.01107 -0.053,0.03503 -0.0442,0.0582 0.008,0.02166 0.003,0.04701 -0.0123,0.05632 -0.015,0.0093 -0.0417,0.07406 -0.0594,0.143905 -0.0176,0.06985 -0.0376,0.126994 -0.0443,0.126994 -0.007,0 -0.026,-0.03902 -0.0426,-0.08671 z"
         sodipodi:nodetypes="ccsccssscsssscssscsscssssssssssssccscsssssssscsssssssccsssssssssscssscccsscssscccscc" />
    </g>
  </g>
</svg>
