<?xml version="1.0" encoding="UTF-8" standalone="no"?>
<!-- Created with Inkscape (http://www.inkscape.org/) -->

<svg
   width="13.456175mm"
   height="6.8747602mm"
   viewBox="0 0 13.456175 6.8747602"
   version="1.1"
   id="svg1"
   sodipodi:docname="inkporter-svg-gn5nl1p1.svg"
   xmlns:inkscape="http://www.inkscape.org/namespaces/inkscape"
   xmlns:sodipodi="http://sodipodi.sourceforge.net/DTD/sodipodi-0.dtd"
   xmlns="http://www.w3.org/2000/svg"
   xmlns:svg="http://www.w3.org/2000/svg">
  <sodipodi:namedview
     id="namedview1"
     pagecolor="#ffffff"
     bordercolor="#666666"
     borderopacity="1.0"
     inkscape:showpageshadow="2"
     inkscape:pageopacity="0.0"
     inkscape:pagecheckerboard="0"
     inkscape:deskcolor="#d1d1d1"
     inkscape:document-units="mm"
     inkscape:zoom="1.6641134"
     inkscape:cx="396.6076"
     inkscape:cy="561.25984"
     inkscape:window-width="3840"
     inkscape:window-height="2081"
     inkscape:window-x="2391"
     inkscape:window-y="-9"
     inkscape:window-maximized="1"
     inkscape:current-layer="layer1" />
  <defs
     id="defs1" />
  <g
     inkscape:label="Layer 1"
     inkscape:groupmode="layer"
     id="layer1"
     transform="translate(-95.508285,-146.19768)">
    <path
       id="R-R1"
       d="m 102.14964,146.19768 -1.30224,0.2778 -0.0608,0.19105 -0.30374,0.13889 0.0173,0.2343 -1.171719,-0.0346 -0.0435,-0.217 -0.08675,0.0173 0.03486,0.18214 -0.477494,-0.0432 0.0173,0.31239 0.486143,-0.0781 0.529385,0.0173 0.09566,0.1043 0.607485,0.009 -0.0519,0.12161 0.17349,0.20834 -0.0173,0.12999 -0.1562,0.0435 -0.087,0.38184 -0.23429,-0.11269 -0.173491,0.0346 -0.130249,0.19105 -0.02621,0.33859 0.208347,0.10404 -0.02595,0.12161 -1.171722,-0.0173 -0.06945,-0.14755 -0.06945,0.0173 -0.01756,0.1389 -0.512088,-0.0608 -0.0086,0.26914 0.503439,-0.0348 -0.0173,0.14754 -1.848914,0.42534 -0.164843,-0.64233 -0.173753,0.0781 -0.520737,0.74664 0.100112,0.29011 c -0.04805,0.0301 -0.09424,0.0633 -0.137064,0.10037 -0.09825,0.0851 -0.181198,0.18725 -0.242154,0.30086 -0.06096,0.11361 -0.09977,0.23875 -0.109808,0.36952 -0.0015,0.0193 -0.0024,0.0386 -0.0026,0.0582 0.0014,0.11041 0.01875,0.21706 0.04979,0.31842 0.03643,0.11893 0.0919,0.23058 0.162747,0.33231 0.07085,0.10172 0.157077,0.19368 0.255519,0.27308 0.03494,0.0282 0.07146,0.0547 0.109284,0.0797 0.06616,0.0431 0.132862,0.0854 0.199961,0.12685 0.104014,0.0643 0.209114,0.1267 0.31501,0.18764 0.105896,0.0609 0.212669,0.12057 0.319989,0.17873 0.10732,0.0582 0.21511,0.1149 0.323396,0.17087 0.01643,0.008 0.03283,0.017 0.04927,0.0254 0.09202,0.0473 0.184768,0.094 0.27832,0.13916 0.11028,0.0532 0.221636,0.10431 0.334927,0.15201 0.0287,0.0121 0.05755,0.024 0.08648,0.0356 0.08308,0.0343 0.170307,0.071 0.262071,0.0985 0.0833,0.025 0.170341,0.0422 0.26181,0.0432 h 0.117408 0.364541 0.364542 0.364541 0.364539 0.36454 0.36454 0.36455 0.36454 0.36454 0.36454 0.36454 0.36454 0.36455 0.36454 0.36454 0.36454 0.36454 0.36454 0.36454 0.36455 0.20887 c 0.0539,-2e-4 0.10743,-0.003 0.16065,-0.007 0.12459,-0.0105 0.24735,-0.0318 0.36821,-0.0608 0.12085,-0.029 0.23981,-0.0656 0.35694,-0.10614 0.11713,-0.0406 0.23251,-0.085 0.34593,-0.13025 0.0132,-0.005 0.0264,-0.0107 0.0396,-0.016 0.10037,-0.0399 0.20042,-0.0813 0.29955,-0.12449 0.11225,-0.0489 0.22343,-0.10021 0.33362,-0.15383 0.10418,-0.0507 0.20708,-0.10403 0.30898,-0.15934 a 1.0024506,0.9894302 0 0 0 0.17192,-0.0962 c 0.0585,-0.0363 0.11093,-0.0781 0.15724,-0.12475 0.089,-0.0896 0.15601,-0.19635 0.20285,-0.31239 0.0468,-0.11603 0.0734,-0.24126 0.082,-0.36847 0.002,-0.0301 0.003,-0.0602 0.003,-0.0904 -6e-4,-0.10209 -0.0211,-0.20223 -0.0574,-0.2964 -0.0476,-0.12334 -0.12231,-0.23683 -0.21595,-0.33231 -0.0936,-0.0955 -0.20618,-0.17289 -0.32864,-0.22433 -0.0719,-0.0302 -0.14721,-0.0515 -0.22433,-0.0621 -0.0513,-0.007 -0.10228,-0.0122 -0.15305,-0.0165 -0.0752,-0.006 -0.14986,-0.0109 -0.22329,-0.0162 -0.0278,-0.002 -0.0555,-0.004 -0.0833,-0.006 -0.0158,-0.0146 -0.0257,-0.0256 -0.0257,-0.0301 0,-0.0347 -0.0521,-0.14755 -0.0521,-0.14755 l 1.31953,0.0784 v -0.19105 h -1.27602 l 0.0867,-0.15619 0.0522,-0.34725 -0.14755,-0.1043 -0.0521,-0.009 c 0,0 0.0521,-0.10415 0,-0.217 -0.0521,-0.11284 -0.25185,-0.18214 -0.25185,-0.18214 l -2.55179,-0.81609 -0.2605,-0.74638 -0.2778,0.009 -0.16484,-1.31088 z m -4.300073,5.76374 a 1.0566989,1.0566989 0 0 0 0.332307,0.72594 c -0.03211,0.0566 -0.06429,0.11331 -0.09671,0.16956 -0.01798,-0.007 -0.03599,-0.0144 -0.05399,-0.0215 -0.02839,-0.0114 -0.05671,-0.0232 -0.08491,-0.0351 -0.0029,-0.001 -0.0059,-0.002 -0.0089,-0.004 0.0207,-0.0773 0.04164,-0.15444 0.06316,-0.23141 -0.04041,-0.0173 -0.08051,-0.0351 -0.120815,-0.0535 -0.0425,0.0677 -0.08553,0.13522 -0.128677,0.20258 -0.04526,-0.0208 -0.0903,-0.042 -0.135229,-0.0637 -0.0029,-0.001 -0.0058,-0.003 -0.0086,-0.004 0.02456,-0.0762 0.04937,-0.15231 0.07443,-0.22826 -0.04024,-0.0197 -0.08054,-0.0398 -0.120815,-0.06 -0.04534,0.0659 -0.09086,0.1319 -0.13654,0.1976 -0.02815,-0.0143 -0.05631,-0.0288 -0.08439,-0.0432 -0.01637,-0.008 -0.03266,-0.0167 -0.04901,-0.0252 -0.0029,-0.001 -0.0058,-0.003 -0.0086,-0.005 0.02659,-0.0755 0.05338,-0.15106 0.08019,-0.22644 -0.04033,-0.021 -0.08043,-0.0419 -0.120553,-0.0632 -0.0467,0.065 -0.09353,0.12991 -0.140471,0.19472 -0.04415,-0.0234 -0.08841,-0.047 -0.132346,-0.0708 -0.0028,-0.001 -0.0055,-0.003 -0.0084,-0.005 0.02807,-0.0749 0.05627,-0.14979 0.08465,-0.22459 -0.03973,-0.0217 -0.07926,-0.0435 -0.118718,-0.0655 -0.0481,0.0639 -0.09652,0.12785 -0.144926,0.19157 -0.04357,-0.0244 -0.08697,-0.0493 -0.13025,-0.0742 -0.0028,-0.002 -0.0056,-0.003 -0.0084,-0.005 0.01361,-0.0337 0.02746,-0.0673 0.04114,-0.10089 a 1.0566989,1.0566989 0 0 0 0.264954,-0.0398 z m 4.430583,0.0176 h 0.10823 a 1.0566989,1.0566989 0 0 0 0.43033,0.8174 l -0.0244,0.17349 h -0.15017 -0.01 l -0.0333,-0.2377 h -0.13811 l -0.0333,0.2377 h -0.15017 -0.01 l -0.0333,-0.2377 h -0.13811 l -0.0333,0.2377 h -0.15017 -0.01 l -0.0309,-0.2204 a 1.0566989,1.0566989 0 0 0 0.40569,-0.77049 z m 4.86038,0.0144 a 1.0024506,0.9894302 0 0 0 0.63264,0.38813 c 0.009,0.0303 0.0182,0.0606 0.0273,0.0909 -0.0454,0.0207 -0.0908,0.0411 -0.13654,0.0611 -0.003,0.001 -0.006,0.003 -0.009,0.004 -0.0417,-0.0683 -0.0832,-0.13667 -0.12448,-0.2052 -0.0411,0.0177 -0.0823,0.035 -0.1237,0.0521 0.0203,0.0774 0.0405,0.15467 0.0603,0.23219 -0.0331,0.0136 -0.0664,0.0271 -0.0996,0.0404 -0.0132,0.005 -0.0264,0.0103 -0.0396,0.0155 -0.003,0.001 -0.006,0.002 -0.009,0.004 -0.0395,-0.0698 -0.0791,-0.13958 -0.11846,-0.20966 -0.0424,0.0162 -0.0846,0.0322 -0.12658,0.048 0.0181,0.0784 0.0359,0.15672 0.0535,0.23535 -0.047,0.0176 -0.0939,0.0347 -0.14126,0.0511 -0.003,0.001 -0.006,0.002 -0.009,0.003 -0.0365,-0.0718 -0.0725,-0.14379 -0.10797,-0.21595 -0.0414,0.0141 -0.0827,0.0274 -0.1237,0.0401 0.0131,0.0792 0.0255,0.15856 0.0372,0.23796 -0.0477,0.014 -0.0956,0.0269 -0.14361,0.0385 -0.003,7.6e-4 -0.006,0.002 -0.009,0.002 -0.029,-0.0745 -0.057,-0.1492 -0.0841,-0.22407 -0.004,8.6e-4 -0.007,0.001 -0.011,0.002 a 1.0566989,1.0566989 0 0 0 0.27832,-0.68689 z m -10.711915,0.0149 a 1.0566989,1.0566989 0 0 0 0.04875,0.0105 c -0.0034,0.004 -0.0068,0.009 -0.01022,0.0128 -0.01288,-0.008 -0.02568,-0.0156 -0.03853,-0.0233 z m 3.497869,0.16458 0.276746,0.002 a 1.0566989,1.0566989 0 0 0 0.42927,0.61325 l -0.0254,0.18135 h -0.15016 -0.01 l -0.0333,-0.2377 h -0.13811 l -0.0333,0.2377 h -0.15017 -0.01 l -0.0333,-0.2377 h -0.138113 l -0.03328,0.2377 H 99.7272 99.7175 l -0.03328,-0.2377 h -0.110593 a 1.0566989,1.0566989 0 0 0 0.352224,-0.55926 z m 4.540126,0.0349 0.266,0.0136 a 1.0566989,1.0566989 0 0 0 0.29536,0.51078 h -0.0131 l -0.0333,0.2377 h -0.15017 -0.01 l -0.0333,-0.2377 h -0.13811 l -0.0333,0.2377 h -0.15017 -0.01 l -0.0333,-0.2377 h -0.13811 l -0.0333,0.2377 h -0.15016 -0.01 l -0.0241,-0.17166 a 1.0566989,1.0566989 0 0 0 0.39808,-0.59045 z m -4.923013,0.54747 -0.03014,0.21463 h -0.150167 -0.0097 l -0.01258,-0.0901 a 1.0566989,1.0566989 0 0 0 0.202582,-0.12448 z m -1.240384,0.0307 a 1.0566989,1.0566989 0 0 0 0.144139,0.0841 c -0.0076,0.0311 -0.01305,0.0627 -0.02175,0.0936 -0.04703,-0.007 -0.094,-0.0183 -0.140733,-0.0328 -0.003,-9.1e-4 -0.0059,-0.002 -0.0089,-0.003 0.0081,-0.0475 0.0179,-0.0947 0.02725,-0.14205 z m 8.123957,0.001 c 0.002,0.0531 0.004,0.10618 0.005,0.15934 -0.0485,0.008 -0.0972,0.0133 -0.14598,0.0173 -0.003,2.6e-4 -0.006,5.6e-4 -0.009,8.1e-4 -0.005,-0.0222 -0.009,-0.0446 -0.0134,-0.0668 a 1.0566989,1.0566989 0 0 0 0.1638,-0.11059 z m -1.25821,0.0603 a 1.0566989,1.0566989 0 0 0 0.18083,0.0964 l -0.004,0.0262 h -0.15016 -0.01 z m -3.45148,0.004 -0.0168,0.11898 h -0.15017 -0.01 l -0.006,-0.0438 a 1.0566989,1.0566989 0 0 0 0.18267,-0.0752 z m -0.91804,0.0309 a 1.0566989,1.0566989 0 0 0 0.17638,0.0584 l -0.004,0.0296 h -0.15017 -0.01 z m 2.18987,0.0183 a 1.0566989,1.0566989 0 0 0 0.17035,0.0637 l -7.6e-4,0.006 h -0.15017 -0.01 z m 0.90834,2.6e-4 -0.01,0.0694 h -0.15016 -0.01 l -7.6e-4,-0.006 a 1.0566989,1.0566989 0 0 0 0.17034,-0.0637 z m -5.278117,0.0346 a 1.0566989,1.0566989 0 0 0 0.165367,0.0315 l -5.07e-4,0.003 h -0.150167 -0.0097 z m 0.533316,0.007 -0.004,0.0275 h -0.150167 -0.0097 l -2.62e-4,-0.001 a 1.0566989,1.0566989 0 0 0 0.164057,-0.0265 z m 2.183841,0.0241 -5.1e-4,0.003 h -0.0404 a 1.0566989,1.0566989 0 0 0 0.0409,-0.003 z m -0.16039,0.003 a 1.0566989,1.0566989 0 0 0 0.0126,8.1e-4 h -0.003 -0.01 z" />
  </g>
</svg>
