<?xml version="1.0" encoding="UTF-8" standalone="no"?>
<!-- Created with Inkscape (http://www.inkscape.org/) -->

<svg
   width="14.979027mm"
   height="7.3662915mm"
   viewBox="0 0 14.979027 7.3662915"
   version="1.1"
   id="svg1371"
   sodipodi:docname="inkporter-svg-sa0ow0i1.svg"
   xmlns:inkscape="http://www.inkscape.org/namespaces/inkscape"
   xmlns:sodipodi="http://sodipodi.sourceforge.net/DTD/sodipodi-0.dtd"
   xmlns="http://www.w3.org/2000/svg"
   xmlns:svg="http://www.w3.org/2000/svg">
  <sodipodi:namedview
     id="namedview1373"
     pagecolor="#ffffff"
     bordercolor="#666666"
     borderopacity="1.0"
     inkscape:pageshadow="2"
     inkscape:pageopacity="0.0"
     inkscape:pagecheckerboard="0"
     inkscape:document-units="mm"
     showgrid="false"
     inkscape:zoom="0.32026164"
     inkscape:cx="1055.3871"
     inkscape:cy="113.96931"
     inkscape:window-width="1920"
     inkscape:window-height="1017"
     inkscape:window-x="-8"
     inkscape:window-y="-8"
     inkscape:window-maximized="1"
     inkscape:current-layer="layer1" />
  <defs
     id="defs1368" />
  <g
     inkscape:label="Layer 1"
     inkscape:groupmode="layer"
     id="layer1"
     transform="translate(-226.6094,64.762552)">
    <path
       id="R-R35-37"
       d="m 234.69568,-64.761728 c -0.33757,-0.01328 -0.64228,0.134265 -0.79065,0.414445 -0.0594,0.11215 -0.13688,0.18335 -0.24081,0.220659 -0.0844,0.03029 -0.31149,0.120565 -0.50436,0.200504 -0.29013,0.120255 -0.39831,0.143258 -0.62736,0.13436 -0.30833,-0.01198 -0.38332,0.02647 -0.42529,0.217557 l -0.0279,0.128674 -0.6873,0.0047 c -0.0655,5.29e-4 -0.14738,0.0021 -0.22686,0.0036 v 0.513145 c 0.39431,0.01802 0.6788,0.03375 0.70177,0.04186 0.0121,0.0043 -0.003,0.02357 -0.0336,0.04289 -0.0359,0.02281 -0.0453,0.08328 -0.0274,0.172599 0.0243,0.121787 0.041,0.13474 0.14624,0.113689 0.094,-0.01881 0.1344,6.7e-5 0.19327,0.08992 0.0635,0.09696 0.10768,0.114123 0.30334,0.117822 0.18055,0.0034 0.20572,0.01161 0.11937,0.03928 -0.0603,0.01931 -0.21637,0.03739 -0.34726,0.03979 -0.13089,0.0024 -0.29855,0.02299 -0.37259,0.04599 -0.074,0.02302 -0.25808,0.06503 -0.40876,0.09353 -0.15068,0.02851 -0.27427,0.07392 -0.2744,0.100769 -1.5e-4,0.02684 -0.0301,0.106188 -0.0667,0.176218 -0.0365,0.07003 -0.0622,0.188402 -0.0574,0.263033 0.009,0.137559 -0.068,0.328287 -0.15606,0.387056 -0.0265,0.01773 -0.4573,0.03223 -0.95757,0.03256 -0.75769,5.29e-4 -0.91002,-0.0095 -0.91002,-0.06149 0,-0.0505 -0.0647,-0.058 -0.33951,-0.04031 -0.18685,0.01204 -0.37915,0.03851 -0.42737,0.05891 -0.0482,0.0204 -0.22967,0.04702 -0.40307,0.05943 -0.50561,0.03618 -1.16955,0.345655 -1.14206,0.532268 0.007,0.04821 0.0371,0.08248 0.0667,0.07648 0.031,-0.0063 0.0537,0.03543 0.0537,0.0987 0,0.06619 -0.0249,0.109555 -0.063,0.109555 -0.0934,0 -0.12247,0.07424 -0.0687,0.174664 0.038,0.071 0.0338,0.08837 -0.0202,0.08837 -0.0795,0 -0.0852,0.05944 -0.0186,0.183968 0.0297,0.05546 0.0321,0.101063 0.007,0.117821 -0.0549,0.03617 -0.0625,0.48731 -0.008,0.48731 0.0232,0 0.0306,0.04742 0.016,0.105421 -0.0204,0.0813 -0.006,0.112239 0.0636,0.134357 0.0591,0.01876 0.0871,0.06079 0.0806,0.121441 -0.007,0.06674 0.021,0.100467 0.0997,0.119888 0.0701,0.0173 0.10948,0.05774 0.10956,0.112654 7e-5,0.04715 0.0295,0.08827 0.0656,0.09147 0.0362,0.0033 0.0879,0.0086 0.11524,0.01138 0.0273,0.0028 0.0601,0.04326 0.0724,0.08992 0.0154,0.05902 0.0483,0.07775 0.10852,0.06201 0.0544,-0.01423 0.0962,0.0033 0.11317,0.04754 0.0188,0.049 0.0589,0.06274 0.13178,0.04444 0.0728,-0.01828 0.11306,-0.0048 0.13177,0.04392 0.0192,0.05014 0.0584,0.06169 0.13746,0.04186 0.0862,-0.02162 0.11007,-0.0109 0.11007,0.04806 0,0.05414 0.0251,0.06924 0.0884,0.05271 0.0594,-0.01553 0.10405,0.0056 0.13591,0.06511 0.0353,0.06589 0.0596,0.07578 0.0966,0.03876 0.037,-0.03702 0.0689,-0.02421 0.12506,0.05013 0.0603,0.07986 0.0867,0.08882 0.13074,0.04496 0.0752,-0.075 0.12506,-0.06842 0.12506,0.01601 0,0.05304 0.0264,0.06376 0.10748,0.04341 0.0802,-0.02013 0.12014,-0.0048 0.15452,0.05943 0.0293,0.05468 0.0722,0.07603 0.11678,0.05891 0.0421,-0.01617 0.0868,0.0024 0.11111,0.04599 0.0284,0.05075 0.073,0.06476 0.14779,0.04599 0.0826,-0.02074 0.10749,-0.0099 0.10749,0.04806 0,0.0575 0.0246,0.06923 0.1049,0.04909 0.0716,-0.01796 0.11334,-0.0056 0.13075,0.03979 0.0174,0.04526 0.0585,0.05818 0.1297,0.04031 0.0684,-0.01717 0.11282,-0.0048 0.12816,0.03514 0.0182,0.0475 0.12976,0.06035 0.49919,0.05685 0.2616,-0.0024 0.50007,-0.02006 0.53021,-0.03876 0.0301,-0.01876 0.0548,-0.01722 0.0548,0.0031 0,0.04675 1.40564,0.04433 1.47949,-0.0026 0.0301,-0.01918 0.0548,-0.01651 0.0548,0.0057 0,0.04853 0.65636,0.04348 0.73432,-0.0057 0.0311,-0.01963 0.0548,-0.01445 0.0548,0.01188 0,0.06309 0.14531,0.05882 0.21033,-0.0062 0.0409,-0.04091 0.0527,-0.04091 0.0527,0 0,0.02893 0.0357,0.05271 0.0791,0.05271 0.0434,0 0.10232,-0.02379 0.13125,-0.05271 0.0409,-0.04091 0.0527,-0.04091 0.0527,0 0,0.02893 0.0357,0.05271 0.0791,0.05271 0.0434,0 0.10233,-0.02379 0.13126,-0.05271 0.0409,-0.04091 0.0527,-0.04091 0.0527,0 0,0.02893 0.0357,0.05271 0.0791,0.05271 0.0434,0 0.10233,-0.02379 0.13126,-0.05271 0.0409,-0.04091 0.0527,-0.04091 0.0527,0 0,0.02893 0.0357,0.05271 0.0791,0.05271 0.0434,0 0.10233,-0.02379 0.13126,-0.05271 0.0409,-0.04091 0.0527,-0.04091 0.0527,0 0,0.06613 0.15964,0.06942 0.19999,0.0041 0.0211,-0.03409 0.0403,-0.0318 0.0651,0.0083 0.0275,0.04438 0.0596,0.04624 0.14521,0.0072 0.0834,-0.0381 0.11395,-0.03798 0.12712,0.0016 0.0133,0.03996 0.0445,0.03993 0.13436,-0.0011 0.0692,-0.03153 0.11731,-0.03569 0.11731,-0.01034 0,0.0603 0.14711,0.05339 0.21032,-0.0098 0.0401,-0.04012 0.0527,-0.04051 0.0527,-0.0011 0,0.05681 0.37882,0.05139 0.47284,-0.0067 0.0292,-0.01804 0.0532,-0.01455 0.0532,0.0072 0,0.04608 0.65547,0.04237 0.7307,-0.0041 0.0279,-0.01725 0.0587,-0.0067 0.0687,0.02326 0.0143,0.04273 0.0428,0.04335 0.1323,0.0026 0.0881,-0.04013 0.1184,-0.04013 0.13177,0 0.0134,0.04013 0.0432,0.04013 0.13126,0 0.0881,-0.04013 0.1184,-0.04013 0.13177,0 0.0134,0.04013 0.0432,0.04013 0.13126,0 0.0881,-0.04013 0.11841,-0.04013 0.13178,0 0.0133,0.03986 0.0445,0.03941 0.13435,-0.0016 0.0692,-0.03153 0.11679,-0.03569 0.11679,-0.01034 0,0.0603 0.14712,0.05339 0.21033,-0.0098 0.0409,-0.04092 0.0527,-0.04092 0.0527,0 0,0.06981 0.16296,0.06803 0.18655,-0.0021 0.0143,-0.04251 0.0349,-0.04083 0.0925,0.0067 0.0646,0.0533 0.0825,0.05077 0.13436,-0.02016 0.0502,-0.06859 0.0704,-0.07264 0.12867,-0.02429 0.058,0.0481 0.0816,0.04496 0.14521,-0.0186 0.0489,-0.04891 0.0818,-0.05836 0.0925,-0.02635 0.0214,0.06414 0.14108,0.06544 0.14108,0.0016 0,-0.03042 0.0425,-0.03803 0.11369,-0.02016 0.0648,0.01627 0.14012,0.0064 0.17518,-0.02273 0.047,-0.03898 0.0768,-0.03831 0.12609,0.0026 0.0517,0.04286 0.0791,0.03924 0.13643,-0.0181 0.058,-0.05804 0.0841,-0.06134 0.13746,-0.01704 0.0538,0.04466 0.0763,0.03979 0.12505,-0.02687 0.0488,-0.06669 0.0717,-0.07159 0.12558,-0.02687 0.0536,0.04447 0.0803,0.04057 0.14211,-0.02119 0.0489,-0.04891 0.0818,-0.05836 0.0925,-0.02635 0.0214,0.06415 0.14056,0.06544 0.14056,0.0016 0,-0.03054 0.043,-0.03827 0.11524,-0.02016 0.086,0.02159 0.12966,0.0074 0.17466,-0.05684 0.0366,-0.05221 0.0923,-0.07712 0.14211,-0.06408 0.0572,0.01495 0.0893,-0.0074 0.10646,-0.07286 0.0155,-0.05935 0.053,-0.0887 0.1018,-0.0801 0.0518,0.0092 0.0864,-0.02254 0.10439,-0.09612 0.0147,-0.06028 0.0554,-0.109469 0.0904,-0.109556 0.0354,-9.8e-5 0.0643,-0.04173 0.0651,-0.09353 7.7e-4,-0.05138 0.0228,-0.120578 0.0491,-0.153479 0.0733,-0.09152 0.0602,-1.002007 -0.0145,-1.002007 -0.0325,0 -0.0579,-0.04719 -0.0579,-0.106971 0,-0.0589 -0.0348,-0.133336 -0.077,-0.164846 -0.0422,-0.0315 -0.0765,-0.08682 -0.0765,-0.122991 0,-0.03616 -0.0445,-0.07188 -0.0987,-0.07958 -0.0542,-0.0077 -0.0987,-0.0307 -0.0987,-0.05116 0,-0.02045 -0.0132,-0.07189 -0.0294,-0.114205 -0.023,-0.06 -0.013,-0.07069 0.046,-0.04806 0.0416,0.01598 0.0649,0.01201 0.0517,-0.0093 -0.0132,-0.0213 0.006,-0.05026 0.0418,-0.06408 0.11051,-0.04241 0.084,-0.32934 -0.0393,-0.426331 -0.0576,-0.04528 -0.11634,-0.129173 -0.13074,-0.186553 -0.0195,-0.07783 -0.0527,-0.101417 -0.12971,-0.09302 -0.0882,0.0097 -0.11475,-0.02188 -0.18242,-0.214458 -0.10233,-0.291205 -0.13259,-0.326874 -0.25838,-0.302823 -0.0573,0.01095 -0.11754,-0.0016 -0.13384,-0.02791 -0.0163,-0.02638 -0.0112,-0.04806 0.0114,-0.04806 0.0226,0 0.065,-0.0575 0.0941,-0.12764 0.0416,-0.100269 0.0409,-0.149291 -0.002,-0.22996 -0.0849,-0.1593 -0.17065,-0.201896 -0.47129,-0.234095 -0.15325,-0.0164 -0.35054,-0.06021 -0.43873,-0.09715 -0.10904,-0.04567 -0.34949,-0.0719 -0.7519,-0.08217 -0.32547,-0.0083 -0.6985,-0.03554 -0.82837,-0.06046 -0.12986,-0.02492 -0.41056,-0.04496 -0.62425,-0.04496 -0.31614,0 -0.38861,0.01212 -0.38861,0.06563 0,0.07449 -0.17383,0.08357 -0.46043,0.02429 -0.17286,-0.03581 -0.17148,-0.03644 0.0791,-0.04134 0.21747,-0.0043 0.27022,-0.02241 0.36587,-0.125574 0.23068,-0.248782 0.21374,-0.378026 -0.0724,-0.558622 -0.19859,-0.12536 -0.26272,-0.231238 -0.17364,-0.286287 0.0842,-0.05201 -0.0323,-0.184161 -0.13384,-0.151929 -0.0968,0.03071 -0.4377,-0.495001 -0.4377,-0.674894 0,-0.06692 -0.0101,-0.132064 -0.0227,-0.144696 -0.0383,-0.03831 -0.24072,0.01569 -0.21497,0.05736 0.0271,0.04386 -0.17256,0.05087 -0.31988,0.01138 -0.0911,-0.02442 -0.17095,-0.159226 -0.15296,-0.257865 0.004,-0.0241 -0.1051,-0.09851 -0.2434,-0.165365 -0.15569,-0.07527 -0.31578,-0.114369 -0.46922,-0.120407 z m 6.21461,5.615679 c 0.0157,-7.94e-4 0.0372,0.0013 0.0656,0.0047 0.10334,0.01193 0.11834,0.03286 0.11834,0.166915 0,0.127879 -0.0171,0.155737 -0.10336,0.167947 -0.0569,0.0081 -0.0921,-0.0037 -0.078,-0.02635 0.014,-0.0227 0.007,-0.104662 -0.015,-0.181901 -0.029,-0.101166 -0.0346,-0.129056 0.0124,-0.131259 z m -9.99939,0.565856 h 0.20412 0.20412 l -0.0155,0.219625 c -0.0114,0.163907 0.008,0.258771 0.077,0.375171 0.0974,0.165058 0.12111,0.326078 0.0481,0.326078 -0.0241,0 -0.0439,-0.03963 -0.0439,-0.08785 0,-0.051 -0.0291,-0.08785 -0.0698,-0.08785 -0.0384,0 -0.0804,0.03963 -0.093,0.08785 -0.0126,0.04822 -0.0402,0.08785 -0.0615,0.08785 -0.0213,0 -0.0388,-0.03963 -0.0388,-0.08785 0,-0.04822 -0.0279,-0.08785 -0.062,-0.08785 -0.0342,0 -0.0811,0.05462 -0.10439,0.120923 -0.0304,0.08647 -0.0498,0.101946 -0.0677,0.05478 -0.0513,-0.135154 -0.0456,-0.202816 0.0341,-0.407728 0.0662,-0.170217 0.0733,-0.239167 0.0357,-0.361733 z m 3.99459,0 h 0.20567 0.20619 l -0.0186,0.208255 c -0.013,0.146963 0.006,0.254546 0.0636,0.365353 0.0611,0.116965 0.072,0.187042 0.0429,0.274403 -0.0429,0.128681 -0.11886,0.117358 -0.11886,-0.01757 0,-0.04679 -0.0284,-0.08526 -0.0625,-0.08526 -0.0341,0 -0.0786,0.05087 -0.0992,0.112654 -0.04,0.120116 -0.10128,0.100695 -0.10128,-0.03204 0,-0.108615 -0.11896,-0.102635 -0.154,0.0078 -0.031,0.09771 -0.10904,0.07709 -0.10904,-0.02894 0,-0.03705 0.0378,-0.120827 0.0842,-0.186037 0.0642,-0.09007 0.0818,-0.178646 0.0729,-0.368453 z m 4.02042,0 h 0.16795 c 0.15387,0 0.17952,0.01818 0.30282,0.216524 0.074,0.11907 0.20494,0.26209 0.29094,0.31781 0.086,0.05572 0.15625,0.125923 0.15658,0.156064 8.8e-4,0.08795 -0.0746,0.06337 -0.0997,-0.03256 -0.0338,-0.129312 -0.16226,-0.112164 -0.16226,0.0217 0,0.131125 -0.0709,0.145518 -0.11007,0.02223 -0.0398,-0.125301 -0.13813,-0.108534 -0.18966,0.03255 -0.0242,0.0663 -0.0456,0.08833 -0.0475,0.04909 -0.002,-0.03924 -0.0321,-0.09432 -0.0667,-0.122992 -0.0509,-0.04225 -0.0744,-0.02952 -0.12557,0.06822 -0.0617,0.117809 -0.0638,0.118335 -0.0935,0.02479 -0.0167,-0.05265 -0.0476,-0.0956 -0.0682,-0.0956 -0.0206,0 -0.007,-0.0612 0.0305,-0.135909 0.0464,-0.09296 0.0594,-0.196622 0.0413,-0.328662 z m -10.10894,0.0041 c 0.0643,0.0016 0.062,0.01778 0.0305,0.05581 -0.0312,0.0375 -0.0438,0.08832 -0.0284,0.113173 0.0154,0.02484 -0.0139,0.08962 -0.0651,0.144177 l -0.093,0.09922 0.0294,-0.120406 c 0.0251,-0.101296 0.0159,-0.120407 -0.0579,-0.120407 -0.0482,0 -0.0992,0.03052 -0.11369,0.06821 -0.0374,0.09742 -0.1113,0.03726 -0.0837,-0.06821 0.0243,-0.09284 -0.0885,-0.128124 -0.14056,-0.04392 -0.0403,0.0652 -0.1102,0.0532 -0.0842,-0.01447 0.0259,-0.06759 0.0347,-0.06999 0.41083,-0.101804 0.0947,-0.008 0.15725,-0.01228 0.19585,-0.01138 z m 11.83907,0.03979 c 0.0604,0 0.12618,0.03664 0.15193,0.08475 0.0587,0.109659 0.0577,0.115903 -0.0238,0.197403 -0.0379,0.03788 -0.0954,0.06873 -0.12816,0.06873 -0.0567,0 -0.1974,-0.11389 -0.1974,-0.159682 0,-0.08648 0.1082,-0.191201 0.1974,-0.191201 z m -0.69867,0.0057 c 0.0847,-0.0024 0.1726,0.06801 0.1726,0.196371 0,0.110985 -0.0176,0.128518 -0.14262,0.14056 -0.14931,0.01439 -0.20727,-0.04803 -0.1788,-0.192755 0.019,-0.09674 0.0829,-0.142417 0.14882,-0.144176 z m -6.84402,0.116789 c 0.003,-0.0019 0.007,0.0052 0.0114,0.02119 0.011,0.04265 0.0105,0.101576 -0.002,0.131257 -0.012,0.02967 -0.021,-0.0052 -0.0202,-0.07751 5.5e-4,-0.04521 0.005,-0.07187 0.0103,-0.07493 z m 3.97547,0.031 0.0382,0.09405 c 0.0448,0.111146 0.20882,0.234611 0.3116,0.234611 0.0401,0 0.10521,0.04928 0.1447,0.109556 0.0622,0.09495 0.0633,0.109552 0.006,0.109552 -0.0363,0 -0.0785,0.04944 -0.0935,0.109555 -0.0309,0.123168 -0.10594,0.105955 -0.10594,-0.02429 0,-0.123632 -0.12483,-0.104309 -0.1571,0.02429 -0.0309,0.123168 -0.10593,0.105955 -0.10593,-0.02429 0,-0.04679 -0.0279,-0.08526 -0.062,-0.08526 -0.0342,0 -0.0792,0.05088 -0.0997,0.112654 -0.04,0.120115 -0.10129,0.100697 -0.10129,-0.03204 0,-0.108665 -0.13351,-0.102714 -0.16226,0.0072 -0.0299,0.114345 -0.10077,0.113212 -0.10077,-0.0016 0,-0.136085 0.12266,-0.293565 0.25425,-0.326596 0.15981,-0.04011 0.22769,-0.102664 0.23099,-0.21394 z m -7.71426,0.122993 c 0.0632,0.0039 0.11933,0.05139 0.13539,0.135392 0.0108,0.05624 -0.007,0.138388 -0.0393,0.182417 -0.0533,0.07292 -0.0584,0.06748 -0.0584,-0.05994 0,-0.15322 -0.0972,-0.192844 -0.16692,-0.06821 -0.0241,0.04313 -0.0509,0.05347 -0.0677,0.02635 -0.0153,-0.02469 0.008,-0.08884 0.0512,-0.142629 0.043,-0.05305 0.0966,-0.07646 0.14573,-0.07338 z m -0.41445,0.0052 c 0.009,0.0019 0.0177,0.0158 0.0279,0.04238 0.0144,0.03741 0.008,0.07876 -0.0129,0.09198 -0.056,0.03456 -0.0891,-0.03738 -0.0481,-0.10387 0.0136,-0.02201 0.0238,-0.03226 0.0331,-0.03049 z m 4.16409,0.08992 c 0.0428,0.0016 0.0854,0.02437 0.12506,0.06822 0.04,0.04422 0.0965,0.07107 0.12557,0.05994 0.029,-0.01114 0.0944,0.02514 0.14573,0.0801 0.0822,0.08797 0.0865,0.11269 0.0362,0.20619 l -0.0574,0.105937 -0.03,-0.09508 c -0.0389,-0.122708 -0.14838,-0.122756 -0.19379,0 l -0.0357,0.0956 -0.0248,-0.0956 c -0.0316,-0.120642 -0.16485,-0.126941 -0.16485,-0.0078 0,0.04822 -0.0169,0.08785 -0.0382,0.08785 -0.0213,0 -0.0494,-0.03963 -0.062,-0.08785 -0.0126,-0.04822 -0.0541,-0.08785 -0.0925,-0.08785 -0.0406,0 -0.0698,0.03686 -0.0698,0.08785 0,0.118234 -0.082,0.111189 -0.12712,-0.01085 -0.0474,-0.128204 0.0599,-0.296106 0.18914,-0.296106 0.0527,0 0.1191,-0.02352 0.14779,-0.05219 0.0407,-0.04073 0.0838,-0.06005 0.12661,-0.0584 z m 5.64203,0.34675 c 0.0157,7.94e-4 0.0269,0.01831 0.0269,0.04651 0,0.03759 -0.0198,0.06821 -0.0439,0.06821 -0.0241,0 -0.0439,-0.01865 -0.0439,-0.04134 0,-0.02267 0.0198,-0.05331 0.0439,-0.06821 0.006,-0.0037 0.0118,-0.0054 0.0171,-0.0052 z m -1.09554,0.03514 c 0.007,0.0019 0.0181,0.0098 0.0315,0.02326 0.0269,0.02682 0.0407,0.07149 0.0315,0.09922 -0.009,0.02774 -0.031,0.03567 -0.0486,0.0181 -0.0176,-0.01757 -0.032,-0.06225 -0.032,-0.09922 0,-0.03084 0.005,-0.0443 0.0176,-0.04134 z" />
  </g>
</svg>
