<?xml version="1.0" encoding="UTF-8" standalone="no"?>
<!-- Created with Inkscape (http://www.inkscape.org/) -->

<svg
   width="14.978628mm"
   height="7.3661652mm"
   viewBox="0 0 14.978628 7.3661652"
   version="1.1"
   id="svg1371"
   sodipodi:docname="inkporter-svg-sa0ow0i1.svg"
   xmlns:inkscape="http://www.inkscape.org/namespaces/inkscape"
   xmlns:sodipodi="http://sodipodi.sourceforge.net/DTD/sodipodi-0.dtd"
   xmlns="http://www.w3.org/2000/svg"
   xmlns:svg="http://www.w3.org/2000/svg">
  <sodipodi:namedview
     id="namedview1373"
     pagecolor="#ffffff"
     bordercolor="#666666"
     borderopacity="1.0"
     inkscape:pageshadow="2"
     inkscape:pageopacity="0.0"
     inkscape:pagecheckerboard="0"
     inkscape:document-units="mm"
     showgrid="false"
     inkscape:zoom="0.32026164"
     inkscape:cx="1055.3871"
     inkscape:cy="113.96931"
     inkscape:window-width="1920"
     inkscape:window-height="1017"
     inkscape:window-x="-8"
     inkscape:window-y="-8"
     inkscape:window-maximized="1"
     inkscape:current-layer="layer1" />
  <defs
     id="defs1368" />
  <g
     inkscape:label="Layer 1"
     inkscape:groupmode="layer"
     id="layer1"
     transform="translate(-227.66332,74.787326)">
    <path
       d="m 231.00394,-67.498041 c -0.0153,-0.03997 -0.0596,-0.05203 -0.12806,-0.03486 -0.0712,0.01787 -0.11276,0.005 -0.13014,-0.04026 -0.0174,-0.04536 -0.0589,-0.05813 -0.13054,-0.04016 -0.0802,0.02014 -0.10501,0.0086 -0.10501,-0.0489 0,-0.05795 -0.0247,-0.06906 -0.10727,-0.04833 -0.0748,0.01877 -0.11961,0.0049 -0.148,-0.04585 -0.0243,-0.04349 -0.0691,-0.06189 -0.11124,-0.04572 -0.0446,0.01712 -0.0875,-0.0047 -0.11677,-0.05938 -0.0344,-0.06424 -0.0739,-0.07949 -0.15409,-0.05937 -0.0811,0.02035 -0.10783,0.0096 -0.10783,-0.04344 0,-0.08444 -0.0499,-0.0907 -0.12511,-0.0157 -0.044,0.04386 -0.07,0.03488 -0.13036,-0.04498 -0.0562,-0.07434 -0.0881,-0.08711 -0.12508,-0.05009 -0.037,0.03702 -0.0617,0.02715 -0.097,-0.03874 -0.0319,-0.05953 -0.0762,-0.08088 -0.13556,-0.06535 -0.0633,0.01653 -0.0883,0.0016 -0.0883,-0.05254 0,-0.05895 -0.0244,-0.0695 -0.11055,-0.04787 -0.079,0.01983 -0.11822,0.0078 -0.13745,-0.04234 -0.0187,-0.04878 -0.0587,-0.06211 -0.1315,-0.04383 -0.0729,0.0183 -0.11279,0.0049 -0.13161,-0.0441 -0.017,-0.0443 -0.059,-0.06198 -0.11348,-0.04775 -0.0602,0.01574 -0.0932,-0.0032 -0.10865,-0.06222 -0.0122,-0.04666 -0.0445,-0.08711 -0.0719,-0.08989 -0.0273,-0.0028 -0.0793,-0.0077 -0.11543,-0.01095 -0.0362,-0.0032 -0.0658,-0.04448 -0.0659,-0.09163 -8e-5,-0.05492 -0.0395,-0.09543 -0.10959,-0.112738 -0.0787,-0.01942 -0.10665,-0.05311 -0.0995,-0.119851 0.006,-0.06065 -0.0214,-0.102784 -0.0804,-0.121529 -0.0697,-0.02212 -0.0843,-0.05285 -0.0639,-0.134146 0.0146,-0.058 0.007,-0.105454 -0.0157,-0.105454 -0.0542,0 -0.0467,-0.451404 0.008,-0.487571 0.0254,-0.01676 0.0227,-0.0622 -0.007,-0.117664 -0.0666,-0.124533 -0.0605,-0.183796 0.0189,-0.183796 0.0539,0 0.0579,-0.01758 0.0199,-0.08858 -0.0538,-0.100428 -0.0246,-0.174434 0.0688,-0.174434 0.0382,0 0.0632,-0.0434 0.0632,-0.109588 0,-0.06327 -0.0227,-0.104956 -0.0538,-0.09863 -0.0296,0.006 -0.0596,-0.0285 -0.0667,-0.07671 -0.0275,-0.186611 0.63651,-0.49601 1.14211,-0.532187 0.17341,-0.01241 0.35473,-0.03925 0.40295,-0.05965 0.0482,-0.0204 0.24055,-0.04694 0.42739,-0.05897 0.27482,-0.01769 0.33973,-0.01 0.33973,0.0405 0,0.05196 0.15188,0.06226 0.90957,0.0617 0.50027,-3.31e-4 0.93129,-0.01516 0.95781,-0.03288 0.088,-0.05877 0.16488,-0.249506 0.15598,-0.387065 -0.005,-0.07463 0.0211,-0.192982 0.0576,-0.26301 0.0365,-0.07003 0.0665,-0.149288 0.0667,-0.176128 1.3e-4,-0.02685 0.12355,-0.07212 0.27423,-0.100626 0.15069,-0.0285 0.33455,-0.07065 0.40859,-0.09366 0.074,-0.02301 0.24171,-0.04381 0.3726,-0.04621 0.13089,-0.0024 0.28729,-0.02016 0.34757,-0.03947 0.0863,-0.02765 0.061,-0.03603 -0.11954,-0.03947 -0.19566,-0.0037 -0.23999,-0.02095 -0.30352,-0.11791 -0.0589,-0.08985 -0.0992,-0.108584 -0.19321,-0.08978 -0.10527,0.02105 -0.12195,0.0081 -0.1463,-0.113689 -0.0179,-0.08932 -0.008,-0.149746 0.0278,-0.172561 0.0304,-0.01931 0.0455,-0.03859 0.0334,-0.04284 -0.0763,-0.02692 -2.86966,-0.134118 -3.93688,-0.151088 l -1.28486,-0.02043 0.0136,-0.141181 0.0136,-0.141179 1.2493,-0.0078 c 0.68711,-0.0042 1.5945,-0.02674 2.01641,-0.04995 0.42192,-0.02321 1.07623,-0.04438 1.45404,-0.04704 l 0.68691,-0.0048 0.0282,-0.128477 c 0.042,-0.19109 0.11685,-0.22937 0.42518,-0.217386 0.22904,0.0089 0.33741,-0.01433 0.62753,-0.134586 0.19288,-0.07994 0.41972,-0.170129 0.50411,-0.200419 0.10393,-0.03731 0.1817,-0.108478 0.24109,-0.220629 0.21581,-0.407534 0.76144,-0.534896 1.25966,-0.294028 0.13829,0.06686 0.24785,0.141291 0.24345,0.1654 -0.018,0.09864 0.062,0.233256 0.15311,0.257679 0.14733,0.0395 0.34656,0.03228 0.31945,-0.01158 -0.0257,-0.04166 0.17673,-0.0955 0.21505,-0.05719 0.0126,0.01263 0.0229,0.0777 0.0229,0.144615 0,0.179893 0.34102,0.705562 0.43779,0.674848 0.10156,-0.03223 0.21798,0.100149 0.13382,0.152161 -0.0891,0.05505 -0.025,0.160661 0.1736,0.286021 0.28609,0.180598 0.3028,0.310105 0.0721,0.558887 -0.0957,0.103154 -0.14845,0.121274 -0.36592,0.125588 -0.25054,0.0049 -0.25166,0.0055 -0.0788,0.04131 0.2866,0.05928 0.46027,0.05006 0.46027,-0.02443 0,-0.0535 0.0724,-0.06575 0.38853,-0.06575 0.21369,0 0.49479,0.02039 0.62465,0.04531 0.12987,0.02492 0.50242,0.05211 0.82789,0.06042 0.40241,0.01027 0.64309,0.0366 0.75213,0.08227 0.0882,0.03694 0.28574,0.08059 0.43899,0.097 0.30063,0.0322 0.38625,0.07473 0.47113,0.23403 0.043,0.08067 0.0434,0.129865 0.002,0.230134 -0.0291,0.07014 -0.0713,0.127529 -0.0939,0.127529 -0.0226,0 -0.0278,0.02158 -0.0115,0.04796 0.0163,0.02638 0.0765,0.039 0.13381,0.02805 0.1258,-0.02405 0.15633,0.01171 0.25866,0.302916 0.0677,0.192577 0.0943,0.223852 0.18249,0.214173 0.077,-0.0084 0.1099,0.01516 0.12944,0.09299 0.0144,0.05738 0.0733,0.141373 0.13084,0.186652 0.12331,0.09699 0.14967,0.383954 0.0392,0.426359 -0.036,0.01382 -0.0547,0.04257 -0.0416,0.06387 0.0132,0.02131 -0.0101,0.02568 -0.0517,0.0097 -0.059,-0.02263 -0.0691,-0.01208 -0.0461,0.04792 0.0162,0.04232 0.0295,0.09369 0.0295,0.114149 0,0.02046 0.0444,0.0435 0.0986,0.05121 0.0543,0.0077 0.0986,0.0436 0.0986,0.07976 0,0.03617 0.0345,0.09153 0.0767,0.123033 0.0422,0.03151 0.0767,0.105476 0.0767,0.164382 0,0.05978 0.0257,0.107101 0.0582,0.107101 0.0746,0 0.0878,0.910755 0.0145,1.002279 -0.0264,0.0329 -0.0486,0.101866 -0.0493,0.153245 -8.3e-4,0.0518 -0.0298,0.0935 -0.0652,0.0936 -0.0351,8.7e-5 -0.0758,0.04949 -0.0906,0.109764 -0.018,0.07357 -0.0522,0.105099 -0.104,0.09593 -0.0488,-0.0086 -0.0862,0.02089 -0.10176,0.08024 -0.0171,0.06547 -0.0494,0.08742 -0.10651,0.07247 -0.0499,-0.01304 -0.10551,0.01218 -0.14208,0.06439 -0.045,0.06424 -0.089,0.07857 -0.17501,0.05698 -0.0722,-0.01812 -0.1149,-0.01079 -0.1149,0.01975 0,0.06389 -0.11941,0.06295 -0.14077,-0.0012 -0.0107,-0.032 -0.0436,-0.02264 -0.0925,0.02627 -0.0618,0.06176 -0.0883,0.06575 -0.14188,0.02128 -0.0539,-0.04472 -0.0768,-0.03982 -0.12554,0.02687 -0.0487,0.06666 -0.0717,0.07157 -0.12549,0.02691 -0.0534,-0.04429 -0.0794,-0.04108 -0.13747,0.01696 -0.0573,0.05733 -0.0845,0.06093 -0.13615,0.01807 -0.0493,-0.04089 -0.0791,-0.04148 -0.12609,-0.0025 -0.0351,0.0291 -0.11054,0.0388 -0.17534,0.02253 -0.0712,-0.01788 -0.11378,-0.01039 -0.11378,0.02003 0,0.06389 -0.11941,0.06294 -0.14077,-0.0012 -0.0107,-0.032 -0.0436,-0.02264 -0.0925,0.02627 -0.0636,0.06356 -0.0873,0.06658 -0.14525,0.01848 -0.0582,-0.04835 -0.0788,-0.04452 -0.12891,0.02407 -0.0519,0.07092 -0.0693,0.07356 -0.13389,0.02026 -0.0576,-0.04755 -0.0784,-0.04901 -0.0927,-0.0065 -0.0236,0.0701 -0.18648,0.07201 -0.18648,0.0022 0,-0.04092 -0.0117,-0.04092 -0.0526,0 -0.0632,0.06321 -0.21041,0.07 -0.21041,0.0097 0,-0.02536 -0.0479,-0.02109 -0.11706,0.01044 -0.0899,0.04096 -0.1211,0.04126 -0.13441,0.0014 -0.0134,-0.04013 -0.0434,-0.04013 -0.1315,0 -0.0881,0.04013 -0.11813,0.04013 -0.13151,0 -0.0134,-0.04013 -0.0434,-0.04013 -0.1315,0 -0.0881,0.04013 -0.11813,0.04013 -0.13151,0 -0.0134,-0.04013 -0.0434,-0.04013 -0.1315,0 -0.0895,0.04077 -0.1181,0.04023 -0.13235,-0.0025 -0.01,-0.03 -0.041,-0.04045 -0.0689,-0.02321 -0.0752,0.0465 -0.73084,0.04978 -0.73084,0.0037 0,-0.02179 -0.0239,-0.02484 -0.0532,-0.0068 -0.094,0.05811 -0.47285,0.06341 -0.47285,0.0066 0,-0.03948 -0.0125,-0.0393 -0.0526,8.25e-4 -0.0632,0.06321 -0.21041,0.07 -0.21041,0.0097 0,-0.02536 -0.0479,-0.02109 -0.11706,0.01044 -0.0899,0.04096 -0.1211,0.04126 -0.13441,0.0013 -0.0132,-0.03953 -0.0437,-0.04 -0.12717,-0.0019 -0.0856,0.03901 -0.11759,0.03748 -0.14504,-0.0069 -0.0248,-0.04007 -0.0441,-0.04259 -0.0652,-0.0085 -0.0404,0.06529 -0.20015,0.06203 -0.20015,-0.0041 0,-0.04091 -0.0117,-0.04091 -0.0526,0 -0.0289,0.02893 -0.0881,0.0526 -0.13151,0.0526 -0.0434,0 -0.0789,-0.02367 -0.0789,-0.0526 0,-0.04091 -0.0117,-0.04091 -0.0526,0 -0.0289,0.02893 -0.0881,0.0526 -0.1315,0.0526 -0.0434,0 -0.0789,-0.02367 -0.0789,-0.0526 0,-0.04091 -0.0117,-0.04091 -0.0526,0 -0.0289,0.02893 -0.0881,0.0526 -0.13151,0.0526 -0.0434,0 -0.0789,-0.02367 -0.0789,-0.0526 0,-0.04091 -0.0117,-0.04091 -0.0526,0 -0.0289,0.02893 -0.0881,0.0526 -0.1315,0.0526 -0.0434,0 -0.0789,-0.02367 -0.0789,-0.0526 0,-0.04091 -0.0117,-0.04091 -0.0526,0 -0.065,0.06502 -0.21041,0.06929 -0.21041,0.0062 0,-0.02634 -0.0237,-0.03148 -0.0548,-0.01186 -0.078,0.04916 -0.73424,0.05433 -0.73424,0.0058 0,-0.02219 -0.0247,-0.02468 -0.0548,-0.0055 -0.0738,0.04691 -1.47943,0.04895 -1.47943,0.0022 0,-0.02032 -0.0247,-0.02165 -0.0548,-0.0029 -0.0301,0.0187 -0.26883,0.03604 -0.53043,0.03852 -0.36943,0.0035 -0.48087,-0.0091 -0.49908,-0.0566 z m 1.10988,-0.361438 c 0.0341,0 0.0621,0.03945 0.0621,0.08767 0,0.04822 0.0174,0.08767 0.0387,0.08767 0.0213,0 0.049,-0.03945 0.0616,-0.08767 0.0126,-0.04822 0.0544,-0.08767 0.0928,-0.08767 0.0406,0 0.0699,0.03667 0.0699,0.08767 0,0.04822 0.0197,0.08767 0.0438,0.08767 0.073,0 0.0493,-0.161049 -0.0481,-0.326106 -0.0687,-0.116401 -0.0881,-0.211225 -0.0767,-0.375132 l 0.0152,-0.219352 -0.20412,2.6e-5 -0.20411,2.8e-5 0.0465,0.151391 c 0.0376,0.122567 0.0309,0.191422 -0.0353,0.361639 -0.0797,0.204912 -0.0854,0.272351 -0.0341,0.407506 0.0179,0.04717 0.0369,0.03168 0.0673,-0.05479 0.0233,-0.0663 0.0703,-0.120547 0.10449,-0.120547 z m 4.16433,0 c 0.0342,0 0.0621,0.03829 0.0621,0.08508 0,0.134928 0.0764,0.146062 0.11926,0.01738 0.0291,-0.08736 0.0182,-0.157277 -0.043,-0.274242 -0.0579,-0.110806 -0.0767,-0.218243 -0.0637,-0.365206 l 0.0184,-0.208216 h -0.20573 -0.20572 l 0.0117,0.249841 c 0.009,0.189807 -0.009,0.278328 -0.0728,0.368405 -0.0464,0.06521 -0.0844,0.148878 -0.0844,0.185923 0,0.106024 0.0784,0.127042 0.10938,0.02933 0.035,-0.110386 0.15363,-0.116516 0.15363,-0.0079 0,0.132736 0.0613,0.152076 0.10136,0.03196 0.0206,-0.06178 0.0654,-0.112326 0.0995,-0.112326 z m 1.84107,0 c 0.0342,0 0.0621,0.03829 0.0621,0.08508 0,0.130242 0.0748,0.147368 0.10575,0.0242 0.0323,-0.128599 0.15726,-0.147833 0.15726,-0.0242 0,0.130242 0.0748,0.147368 0.10575,0.0242 0.0151,-0.06011 0.0571,-0.109285 0.0934,-0.109285 0.0571,0 0.0563,-0.01464 -0.006,-0.109586 -0.0395,-0.06027 -0.1046,-0.109588 -0.14468,-0.109588 -0.10279,0 -0.26708,-0.12368 -0.31193,-0.234825 l -0.0379,-0.09394 -0.003,0.09326 c -0.003,0.111276 -0.071,0.174125 -0.23085,0.214234 -0.13159,0.03303 -0.25412,0.190486 -0.25412,0.326572 0,0.114762 0.0705,0.115845 0.10038,0.0015 0.0288,-0.109951 0.16264,-0.115965 0.16264,-0.0073 0,0.132737 0.0613,0.152077 0.10136,0.03196 0.0206,-0.06178 0.0654,-0.112328 0.0995,-0.112328 z m 0.63689,0.07507 c -0.0358,-0.0358 -0.0488,-0.03089 -0.0488,0.01845 0,0.03697 0.0144,0.0816 0.032,0.09918 0.0176,0.01758 0.0395,0.0093 0.0488,-0.01844 0.009,-0.02773 -0.005,-0.07236 -0.032,-0.09918 z m -4.91446,0.01261 c 0,-0.05099 0.0292,-0.08767 0.0699,-0.08767 0.0384,0 0.0802,0.03945 0.0928,0.08767 0.0126,0.04822 0.0403,0.08767 0.0617,0.08767 0.0213,0 0.0387,-0.03945 0.0387,-0.08767 0,-0.119188 0.1331,-0.112941 0.16466,0.0077 l 0.025,0.0954 0.0353,-0.0954 c 0.0454,-0.122755 0.155,-0.122837 0.19394,-1.31e-4 l 0.0302,0.09525 0.0572,-0.106209 c 0.0504,-0.0935 0.046,-0.118163 -0.0361,-0.206128 -0.0513,-0.05496 -0.11709,-0.09081 -0.14612,-0.07967 -0.029,0.01113 -0.0855,-0.01594 -0.12555,-0.06016 -0.0793,-0.08767 -0.17003,-0.09116 -0.25152,-0.0097 -0.0287,0.02868 -0.0953,0.05216 -0.14794,0.05216 -0.12922,0 -0.23635,0.167908 -0.18892,0.296113 0.0451,0.122042 0.1269,0.128955 0.1269,0.01072 z m 6.0054,-0.0245 c 0,-0.03759 -0.0197,-0.05615 -0.0438,-0.04125 -0.0241,0.0149 -0.0438,0.04565 -0.0438,0.06834 0,0.02268 0.0197,0.04125 0.0438,0.04125 0.0241,0 0.0438,-0.03075 0.0438,-0.06834 z m 0.37554,-0.1484 c 0.0345,0.02867 0.0644,0.08424 0.0663,0.123477 0.002,0.03924 0.0233,0.0171 0.0475,-0.0492 0.0515,-0.14109 0.15037,-0.15818 0.19014,-0.03288 0.0391,0.123297 0.10959,0.109205 0.10959,-0.02192 0,-0.13387 0.12882,-0.151231 0.16264,-0.02192 0.0251,0.09593 0.1007,0.120834 0.0998,0.03288 -3.3e-4,-0.03014 -0.0709,-0.100383 -0.1569,-0.156105 -0.086,-0.05572 -0.21691,-0.198734 -0.29093,-0.317805 -0.1233,-0.198345 -0.14866,-0.216492 -0.30253,-0.216492 h -0.16795 l 0.0264,0.192938 c 0.0181,0.132041 0.005,0.235806 -0.0413,0.328762 -0.0373,0.07471 -0.0509,0.135825 -0.0302,0.135825 0.0206,0 0.0512,0.04308 0.0679,0.09573 0.0297,0.09353 0.0318,0.09296 0.0936,-0.02485 0.0512,-0.09773 0.0751,-0.110696 0.12599,-0.06844 z m -9.6587,-0.204205 c -0.0285,-0.149346 -0.18269,-0.183504 -0.28088,-0.06225 -0.0436,0.05379 -0.0667,0.11801 -0.0514,0.142704 0.0168,0.02712 0.0436,0.01664 0.0677,-0.02649 0.0697,-0.12463 0.16709,-0.08472 0.16709,0.0685 0,0.127425 0.005,0.132754 0.0585,0.05983 0.0322,-0.04403 0.0497,-0.126068 0.039,-0.182302 z m -0.52199,-0.08824 c -0.0204,-0.05314 -0.0337,-0.05569 -0.0609,-0.01165 -0.0411,0.06649 -0.008,0.138267 0.0482,0.103708 0.0214,-0.01322 0.0272,-0.05465 0.0128,-0.09206 z m -0.16886,-0.194667 c -0.0154,-0.02485 -0.002,-0.07587 0.0286,-0.113366 0.0505,-0.06084 0.0262,-0.0656 -0.22636,-0.04425 -0.37612,0.03181 -0.38525,0.03407 -0.41119,0.101657 -0.026,0.06767 0.0441,0.07981 0.0844,0.01461 0.052,-0.0842 0.16501,-0.04905 0.14074,0.04379 -0.0276,0.105472 0.0461,0.165993 0.0834,0.06857 0.0145,-0.03769 0.0658,-0.06853 0.11403,-0.06853 0.0737,0 0.083,0.01925 0.0579,0.120546 l -0.0299,0.120547 0.0931,-0.0992 c 0.0512,-0.05456 0.0805,-0.11953 0.0652,-0.144382 z m 11.31098,0.07302 c 0,-0.228189 -0.27802,-0.273425 -0.32151,-0.05231 -0.0285,0.144731 0.0294,0.207187 0.17874,0.192797 0.12504,-0.01204 0.14277,-0.0295 0.14277,-0.140485 z m 0.6544,0.07976 c 0.0815,-0.0815 0.0822,-0.08735 0.0235,-0.197009 -0.0257,-0.04811 -0.0915,-0.08479 -0.15188,-0.08479 -0.0892,0 -0.19726,0.10476 -0.19726,0.191246 0,0.04579 0.1406,0.159435 0.19726,0.159435 0.0327,0 0.0905,-0.031 0.12837,-0.06888 z m -7.65955,-0.138498 c -0.0111,-0.04265 -0.0209,-0.01837 -0.0218,0.05396 -8.2e-4,0.07233 0.008,0.107224 0.0202,0.07755 0.012,-0.02968 0.0127,-0.08886 0.002,-0.131506 z m 7.96952,-0.581649 c 0,-0.134055 -0.0149,-0.155147 -0.11826,-0.167073 -0.1136,-0.01311 -0.11667,-0.0081 -0.078,0.126788 0.0222,0.07724 0.0288,0.159012 0.0148,0.181716 -0.014,0.0227 0.0211,0.03469 0.078,0.02663 0.0863,-0.01221 0.10349,-0.04019 0.10349,-0.168068 z"
       id="R-R35-0"
       sodipodi:nodetypes="cssssssssssssssssssssscccsscsssscssssccsssscccscsssccsssscsccccsccsssssssssssssssccsssssssssssscsssscsssssssscsscssssscsssssscsscsssssscsscsssssscscscssscccssssssssssssssscscscsccssssssssscccsssssscsssscccccsssscccssssssssccsssssccssscsscssssscsscsssssssccssssssssssscssscscssssssssssssssssssccssssssscsccssssssssssssccsccsssssss" />
  </g>
</svg>
