<?xml version="1.0" encoding="UTF-8" standalone="no"?>
<!-- Created with Inkscape (http://www.inkscape.org/) -->

<svg
   width="20.730818mm"
   height="9.488205mm"
   viewBox="0 0 20.730818 9.488205"
   version="1.1"
   id="svg25643"
   sodipodi:docname="inkporter-svg-ecdmdl65.svg"
   xmlns:inkscape="http://www.inkscape.org/namespaces/inkscape"
   xmlns:sodipodi="http://sodipodi.sourceforge.net/DTD/sodipodi-0.dtd"
   xmlns="http://www.w3.org/2000/svg"
   xmlns:svg="http://www.w3.org/2000/svg">
  <sodipodi:namedview
     id="namedview25645"
     pagecolor="#ffffff"
     bordercolor="#666666"
     borderopacity="1.0"
     inkscape:pageshadow="2"
     inkscape:pageopacity="0.0"
     inkscape:pagecheckerboard="0"
     inkscape:document-units="mm"
     showgrid="false"
     inkscape:zoom="0.66368547"
     inkscape:cx="397.02542"
     inkscape:cy="561.25984"
     inkscape:window-width="1920"
     inkscape:window-height="1017"
     inkscape:window-x="-8"
     inkscape:window-y="-8"
     inkscape:window-maximized="1"
     inkscape:current-layer="layer1" />
  <defs
     id="defs25640" />
  <g
     inkscape:label="Layer 1"
     inkscape:groupmode="layer"
     id="layer1"
     transform="translate(-11.08019,-79.614305)">
    <path
       id="R-Tacam"
       d="m 25.81377,79.6154 c -0.019,-0.003 -0.0577,2.2e-4 -0.12797,0.009 -0.17957,0.0253 -0.21559,0.0616 -0.1556,0.15632 0.0592,0.0934 0.0528,0.20022 -0.0158,0.26438 -0.0639,0.0598 -0.0759,0.12414 -0.0263,0.14122 0.0189,0.007 0.0322,0.0988 0.0331,0.22798 9.3e-4,0.13763 0.0131,0.21735 0.0335,0.21795 0.0359,9.4e-4 -0.0668,0.0893 -0.10399,0.0893 -0.0128,0 -0.0235,-0.15389 -0.0235,-0.34196 v -0.34195 l -0.0895,-0.0184 c -0.17867,-0.0371 -0.20092,0.003 -0.20092,0.37284 0,0.27107 -0.008,0.32964 -0.043,0.32964 -0.0399,0 -0.0567,0.0411 -0.08,0.19539 -0.007,0.0467 -0.0315,0.0602 -0.11002,0.0605 -0.13419,3.3e-4 -0.18195,0.036 -0.16581,0.12342 l 0.0133,0.0716 h -0.2012 c -0.2096,0 -0.31353,0.034 -0.31353,0.1025 0,0.0328 -0.17278,0.0404 -0.92783,0.0415 l -0.92784,9.5e-4 0.0711,-0.16635 c 0.0872,-0.20405 0.0928,-0.30918 0.0166,-0.30918 -0.0408,0 -0.0603,0.0697 -0.15054,0.24049 l -0.12688,0.2405 -0.11817,0.10281 -0.0872,0.10281 -1.08911,0.0348 -9.81647,0.10525 v 0.22823 0.22816 l 8.15224,0.0485 -0.003,0.0825 -0.003,0.0826 -0.22843,0.0207 -0.24296,0.0784 -0.0371,0.0577 -0.0198,0.195 0.0534,0.0909 1.38259,0.12582 1.13993,0.03 -0.17152,0.12975 -0.29316,0.0689 -0.0443,0.082 0.0394,0.15934 -0.046,0.0167 -0.0871,-0.0303 -0.0939,0.0327 -0.0365,0.0913 h -0.7499 c -0.46859,0 -0.7566,-0.0108 -0.76782,-0.0302 -0.0265,-0.0444 -0.11844,-0.0365 -0.15865,0.0136 -0.0221,0.0274 -0.10188,0.0472 -0.21413,0.0526 l -0.17902,0.009 c 0.003,0.42447 0.008,0.84896 0.0116,1.2734 -0.65238,0.008 -1.30475,0.0152 -1.9571,0.0228 l -0.18556,0.0701 c -0.26212,0.099 -0.51293,0.28718 -0.67626,0.50741 -0.17637,0.23785 -0.1774,0.23099 0.0507,0.3369 l 0.19081,0.0886 -0.0221,0.0681 -0.012,0.0881 c -0.0707,0.21305 -0.0764,0.42305 -0.061,0.6489 0.0506,0.40435 0.35651,0.70137 0.63671,0.95835 0.27203,0.21831 0.54227,0.44999 0.82898,0.64656 0.4566,0.28745 0.89907,0.61899 1.42213,0.76658 0.47459,-0.0563 0.94662,0.0543 1.42214,0.0941 2.2402,-0.0142 4.4822,-0.0644 6.72308,-0.0923 0.19359,0.009 0.40021,-0.0168 0.5741,-0.0287 0.32513,0.0648 0.63295,-0.14569 0.94328,-0.21583 0.44585,-0.19266 0.9076,-0.33676 1.35627,-0.52186 0.27991,-0.0875 0.56274,-0.19154 0.76305,-0.4255 0.17243,-0.072 0.14742,-0.46234 0.25402,-0.38006 0.50865,0.33681 0.60096,-0.705 0.91366,-0.9655 0.3193,-0.35451 0.12491,-0.33979 -0.1992,-0.48452 -0.052,-0.0484 -0.0953,-0.10312 -0.0847,-0.12095 0.0105,-0.0168 0.004,-0.039 -0.0116,-0.0495 -0.0164,-0.0108 -0.0375,0.002 -0.0472,0.028 -0.0237,0.0641 -0.0479,0.0594 -0.13914,-0.0281 -0.043,-0.0415 -0.0907,-0.0751 -0.10586,-0.0751 -0.0152,0 -0.0275,-0.0203 -0.0275,-0.0451 0,-0.0248 -0.013,-0.0451 -0.0291,-0.0451 -0.0159,0 -0.0291,0.0139 -0.0291,0.0309 0,0.0401 -0.13401,-0.0321 -0.24685,-0.13317 -0.0479,-0.0428 -0.0966,-0.078 -0.10805,-0.078 -0.0116,-3e-5 -0.0135,-0.0203 -0.003,-0.0451 0.009,-0.0248 0.002,-0.0451 -0.0154,-0.0451 -0.0177,0 -0.0321,0.0135 -0.0321,0.0302 0,0.0457 -0.0443,0.0365 -0.15776,-0.0327 l -0.10291,-0.0629 0.0722,-0.12765 c 0.0977,-0.17251 0.0953,-0.17903 -0.0876,-0.23866 -0.0879,-0.0287 -0.15972,-0.0641 -0.15972,-0.0788 0,-0.0404 0.0592,-0.19255 0.0817,-0.21025 0.0286,-0.0224 0.12162,-0.20018 0.12162,-0.23252 0,-0.0278 -0.24,-0.0966 -0.31946,-0.0917 l -2.64291,-0.81966 v 0.0611 h -0.2016 c -0.11083,0 -0.20966,-0.0135 -0.21952,-0.0302 -0.0105,-0.0166 -0.0498,-0.0302 -0.0889,-0.0302 h -0.0708 v -0.30314 c 0,-0.2318 0.009,-0.29897 0.0363,-0.28558 0.0199,0.009 0.0567,0.0252 0.0817,0.0347 0.0249,0.009 0.0576,0.0593 0.0727,0.11077 0.0539,0.18564 0.41935,0.17802 0.41935,-0.009 0,-0.0778 -0.0105,-0.0889 -0.0831,-0.0889 h -0.0831 l 0.003,-0.30814 0.003,-0.30813 -0.22508,-0.009 -0.22509,-0.009 v -0.52755 -0.52754 l -0.34124,0.006 c -0.42351,0.007 -0.4153,0.008 -0.39674,-0.0419 0.0105,-0.0266 -0.0129,-0.0488 -0.0647,-0.0622 -0.044,-0.012 -0.0665,-0.0299 -0.0497,-0.0412 0.11327,-0.0766 0.049,-0.3327 -0.084,-0.33521 -0.0322,-6.3e-4 -0.0509,-0.0243 -0.0509,-0.0647 0,-0.0524 0.008,-0.0574 0.0423,-0.0275 0.0623,0.0534 0.10292,0.012 0.10292,-0.10585 0,-0.11256 -0.0281,-0.12522 -0.1614,-0.0728 l -0.078,0.0308 0.0188,-0.0683 c 0.0105,-0.0375 0.0267,-0.13243 0.0366,-0.21084 0.009,-0.0784 0.0348,-0.15722 0.0557,-0.17508 0.0506,-0.0434 0.0196,-0.11821 -0.049,-0.11821 -0.0433,0 -0.0549,-0.0221 -0.0549,-0.10429 0,-0.0803 0.0105,-0.10022 0.0436,-0.087 0.0299,0.012 0.0436,-0.002 0.0436,-0.0436 0,-0.0335 0.009,-0.0838 0.0189,-0.11184 0.009,-0.0228 0.009,-0.035 -0.0105,-0.039 z m 4.29954,7.53009 c 0.0562,-0.002 0.12456,0.014 0.17986,0.0684 -0.036,-0.002 -0.072,-0.003 -0.10805,-0.005 -0.26082,0.0336 -0.1956,-0.0591 -0.0719,-0.0638 z M 17.06607,87.375 c 0.26776,0.0455 0.48776,0.23596 0.73436,0.34565 0.23651,0.0512 0.14213,0.3407 0.14227,0.52427 -0.008,-0.0288 -0.0425,-0.0601 -0.039,-0.0889 0.16117,-0.28969 -0.23939,-0.12308 -0.28503,-0.13898 -0.0859,-0.14397 -0.32418,-0.1596 -0.45965,-0.28306 -0.32845,-0.0131 -0.0449,-0.11173 -0.093,-0.35886 z m 12.73105,0.0484 c 0.004,1.3e-4 0.0105,6.4e-4 0.016,0.002 0.34955,0.0884 -0.0148,0.12147 0.0993,0.36572 l -0.0116,-0.006 -0.0294,-0.0146 c -0.21802,0.006 -0.23382,-0.35093 -0.0745,-0.34706 z m -0.67105,0.0828 c 0.0935,3.1e-4 0.28715,0.0793 0.35617,0.0948 -0.0345,0.32639 -0.20126,0.088 -0.36735,0.0203 -0.0648,-0.0872 -0.0449,-0.11521 0.0116,-0.11498 z m -0.60423,0.23497 c 0.025,-6.3e-4 0.0554,0.003 0.092,0.0159 0.13629,0.0989 0.35482,0.25665 0.26763,0.4622 0.004,-0.0556 -0.3698,-0.25455 -0.34047,0.0488 -0.0688,-0.012 -0.0853,-0.003 -0.0844,-0.0835 -0.0225,-0.15927 -0.10991,-0.43845 0.0652,-0.44338 z m -2.60347,6e-5 c 0.0238,0.002 0.0524,0.009 0.0865,0.0228 0.28229,-0.0108 0.28303,0.32521 0.3611,0.52678 0.0762,0.16886 0.16874,0.43591 -0.0959,0.2479 -0.14682,0.031 -0.16499,0.31608 -0.20943,0.0601 -0.0971,-0.24171 -0.32594,0.22221 -0.3771,-0.007 -0.21145,-0.0648 0.0525,-0.27708 0.0437,-0.45902 0.0807,-0.14651 0.0235,-0.40353 0.19099,-0.39138 z m -5.67301,0.009 c 0.119,-0.003 0.27241,0.0414 0.37461,0.0602 0.18875,0.17949 0.14252,0.51838 0.30643,0.72754 -0.29157,-0.006 -0.5854,0.0964 -0.87617,0.005 -0.0642,0.0322 -0.14204,0.0416 -0.19722,0.0907 0.11733,-0.26616 0.24323,-0.5507 0.25945,-0.84343 0.0317,-0.0276 0.0789,-0.0387 0.1329,-0.0398 z m 2.62617,0.006 c 0.23617,0.0188 0.51291,-0.0433 0.72205,0.0739 0.0632,0.23001 0.23174,0.46924 0.1299,0.70927 -0.14295,0.099 -0.3223,0.0173 -0.48165,0.0358 -0.16639,-0.0891 -0.41575,0.10536 -0.50916,-0.12125 -0.0137,-0.22423 0.16313,-0.45729 0.13886,-0.69766 z m 2.39036,0.0564 c 0.0185,3.1e-4 0.0427,0.005 0.0734,0.016 0.0902,0.38982 -0.25262,-0.02 -0.0734,-0.016 z m -6.75354,0.12096 c 0.0418,0.002 0.0976,0.0535 0.0886,0.18683 l -0.009,-0.0108 c -0.1624,-0.0978 -0.13244,-0.17872 -0.0789,-0.17655 z m 8.31596,0.0309 c 0.0292,-0.003 0.0784,0.0246 0.15412,0.10115 -0.032,0.0459 -0.0912,0.2455 -0.12848,0.21025 -0.0582,-0.14085 -0.0901,-0.30331 -0.0256,-0.31141 z m -5.55718,0.053 c 0.037,0.002 0.0825,0.034 0.11409,0.12442 -0.23667,0.0128 -0.19564,-0.12867 -0.11409,-0.12442 z m 3.09835,0.0685 c 0.0256,-0.003 0.0337,0.012 -6.1e-4,0.0639 l -0.031,0.009 c -0.28039,0.1209 -0.0453,-0.0618 0.0316,-0.0728 z m -4.94268,0.009 c 0.0403,-0.003 0.0915,0.037 0.13942,0.13863 -0.0397,0.035 -0.19135,0.35908 -0.18796,0.1304 -0.0564,-0.14394 -0.0188,-0.26482 0.0485,-0.26903 z m 8.27431,0.0279 c 0.0516,-0.002 0.12337,0.0483 0.15356,0.17203 -0.056,0.0522 -0.0727,0.19601 -0.12241,0.0515 -0.13084,-0.13157 -0.0976,-0.22092 -0.0311,-0.22359 z m -2.55553,0.0446 c 0.0318,-2.2e-4 0.0744,0.0243 0.11281,0.0976 -0.19987,0.022 -0.18275,-0.0972 -0.11281,-0.0976 z m -2.97428,0.0128 c 0.0387,0.003 0.0895,0.0227 0.15242,0.0679 -0.054,0.0516 -0.10806,0.10323 -0.16212,0.15484 -0.11165,-0.0841 -0.1062,-0.23097 0.009,-0.22277 z m 5.09123,0.0689 c 0.0216,0.002 0.0419,0.0172 0.0582,0.051 0.15208,0.26219 0.18711,0.19276 -0.0888,0.22417 l -0.009,-1e-4 c -0.2325,0.0894 -0.0778,-0.28569 0.039,-0.27508 z m -8.32423,0.0453 c 0.0324,-3.2e-4 0.0606,0.0294 0.0691,0.11041 0.0617,0.1218 0.0973,0.1672 -0.0625,0.12188 -0.24056,0.039 -0.10412,-0.23138 -0.007,-0.23226 z m 5.74072,0.0485 c 0.11749,-0.002 0.2546,0.23007 0.0407,0.22553 -0.12925,-0.009 -0.24057,-0.002 -0.12667,-0.15917 0.0217,-0.0473 0.0531,-0.0659 0.0859,-0.0663 z m -3.012,0.0221 c 0.0313,-0.002 0.0895,0.0221 0.17755,0.0883 -0.006,0.0431 0.0595,0.12613 -0.0273,0.10125 -0.15846,-0.061 -0.21931,-0.1862 -0.15032,-0.18958 z" />
  </g>
</svg>
