<?xml version="1.0" encoding="UTF-8" standalone="no"?>
<!-- Created with Inkscape (http://www.inkscape.org/) -->

<svg
   width="26.417738mm"
   height="9.0455103mm"
   viewBox="0 0 26.417738 9.0455103"
   version="1.1"
   id="svg1"
   sodipodi:docname="inkporter-svg-gn5nl1p1.svg"
   xmlns:inkscape="http://www.inkscape.org/namespaces/inkscape"
   xmlns:sodipodi="http://sodipodi.sourceforge.net/DTD/sodipodi-0.dtd"
   xmlns="http://www.w3.org/2000/svg"
   xmlns:svg="http://www.w3.org/2000/svg">
  <sodipodi:namedview
     id="namedview1"
     pagecolor="#ffffff"
     bordercolor="#666666"
     borderopacity="1.0"
     inkscape:showpageshadow="2"
     inkscape:pageopacity="0.0"
     inkscape:pagecheckerboard="0"
     inkscape:deskcolor="#d1d1d1"
     inkscape:document-units="mm"
     inkscape:zoom="1.6641134"
     inkscape:cx="396.6076"
     inkscape:cy="561.25984"
     inkscape:window-width="3840"
     inkscape:window-height="2081"
     inkscape:window-x="2391"
     inkscape:window-y="-9"
     inkscape:window-maximized="1"
     inkscape:current-layer="layer1" />
  <defs
     id="defs1" />
  <g
     inkscape:label="Layer 1"
     inkscape:groupmode="layer"
     id="layer1"
     transform="translate(-90.4875,-107.15625)">
    <path
       id="R-TR2"
       d="m 100.43573,107.15625 -0.23306,0.44804 h -2.247926 v 0.12092 h -0.193787 v -0.0119 h -0.278019 v 0.0119 h -0.07286 v 0.12092 H 97.27727 v 0.1695 h 0.132808 v 0.0971 h 0.07286 v 0.27802 h -0.327112 v 0.0114 l -4.780586,0.0574 v -0.0687 h -0.362769 v -0.10903 H 90.4875 v 0.79891 h 1.524971 v -0.0966 h 0.362769 v -0.1173 l 4.780586,0.0574 v 0.56792 h 0.43615 v 0.1695 h 1.137398 v -0.1695 h 0.990637 l 0.338479,0.94361 -0.08785,-0.045 -0.120406,0.18035 -0.02377,0.6687 -0.486275,-0.0222 c 0,0 -1.447059,0.0802 -1.868103,0.30075 -0.421043,0.22055 -0.519348,0.41083 -0.519348,0.41083 l 0.463538,0.4377 c -0.03259,0.10231 -0.242966,0.46314 -0.243396,0.57051 9.32e-4,0.32288 0.149277,0.62723 0.403076,0.82682 l 0.07183,0.0853 0.09095,0.10801 c 0.0031,0.0165 0.01088,0.032 0.0217,0.045 0.01089,0.013 0.02467,0.0218 0.03927,0.0279 l 0.104903,0.12454 0.09302,0.11058 0.08216,0.0982 0.09457,-0.16795 -0.02946,-0.0351 c 0.0023,-0.002 0.0053,-0.004 0.0078,-0.007 0.03552,-0.0299 0.06782,-0.0602 0.09612,-0.0894 l 0.04289,-0.0755 c 0.0078,-4.8e-4 0.01544,-0.001 0.02325,-0.002 -0.01831,0.0243 -0.0397,0.0502 -0.06615,0.0775 l -0.07441,0.13126 0.04341,0.0517 0.09818,-0.26045 c 0.20519,-0.017 0.400542,-0.0933 0.562757,-0.22014 l 0.311092,0.17673 c -0.196848,0.1313 -0.31542,0.35199 -0.315743,0.5886 -7.9e-5,0.034 0.0024,0.0681 0.0072,0.1018 -0.045,0.0397 -0.09433,0.091 -0.143143,0.15503 -0.0023,0.003 -0.0042,0.005 -0.0067,0.008 -0.0016,-0.001 -0.0035,-0.003 -0.0052,-0.004 -0.03568,-0.0274 -0.07029,-0.0557 -0.104386,-0.0842 -0.0056,-0.0137 -0.01336,-0.0263 -0.02481,-0.0362 -0.01192,-0.0102 -0.02623,-0.0174 -0.04186,-0.0207 -0.02913,-0.0261 -0.0574,-0.0524 -0.08475,-0.0796 0.0023,-0.002 0.0048,-0.005 0.0072,-0.008 0.134909,-0.13513 0.221252,-0.26749 0.199471,-0.29094 -0.02147,-0.0231 -0.160185,0.0532 -0.305925,0.17622 -0.0023,0.002 -0.0054,0.004 -0.0078,0.007 -0.01017,-0.0121 -0.02019,-0.0244 -0.02997,-0.0367 -0.01823,-0.023 -0.03397,-0.0456 -0.04961,-0.0682 -7.89e-4,-0.0134 -0.0039,-0.026 -0.01085,-0.0367 -0.0016,-0.002 -0.0025,-0.004 -0.0041,-0.006 -0.0071,-0.009 -0.01498,-0.0148 -0.02429,-0.0186 -4.8e-5,-0.004 -7.08e-4,-0.005 -0.0015,-0.003 l -0.162781,0.077 c 0.0016,0.004 0.004,0.008 0.0057,0.0114 -9e-6,2.3e-4 0,8e-4 0,0.001 7.1e-5,0.0135 0.0028,0.027 0.0093,0.0393 0.0016,0.003 0.0025,0.005 0.0041,0.008 0.0097,0.0155 0.0232,0.0253 0.03772,0.0326 0.01776,0.0255 0.03536,0.0511 0.05478,0.0755 0.0139,0.0174 0.02844,0.0343 0.04289,0.0512 0.03118,0.0364 0.06343,0.0718 0.09715,0.10594 0.03292,0.0333 0.06691,0.0653 0.101803,0.0966 0.0056,0.0159 0.01562,0.0302 0.02842,0.0413 0.01342,0.0116 0.02857,0.0174 0.04444,0.0207 0.03584,0.0299 0.07196,0.0596 0.109038,0.0879 0.0056,0.004 0.01137,0.009 0.01705,0.0129 0.03828,0.0293 0.07683,0.0587 0.115238,0.0878 0.0375,0.0284 0.07471,0.0565 0.112655,0.0842 0.0071,0.0152 0.01837,0.0288 0.03204,0.0388 0.01428,0.0103 0.02995,0.0145 0.04599,0.0165 0.04397,0.031 0.08851,0.0616 0.133842,0.0904 0.01318,0.008 0.02645,0.0171 0.03979,0.0253 0.02763,0.017 0.05519,0.0333 0.0832,0.0496 0.0405,0.0237 0.08131,0.0467 0.122473,0.0693 0.0091,0.0141 0.02192,0.026 0.03669,0.0341 0.01515,0.008 0.03152,0.0107 0.04754,0.0108 0.04775,0.0253 0.0954,0.0505 0.14366,0.0749 0.04294,0.0217 0.08599,0.0433 0.129191,0.0646 0.04215,0.0208 0.08435,0.0413 0.126608,0.062 0.0099,0.0137 0.02308,0.025 0.03824,0.0326 0.015,0.007 0.03192,0.0102 0.04858,0.01 6.56e-4,3.3e-4 0.0014,7.2e-4 0.0021,0.001 0.0476,0.0234 0.09529,0.0464 0.143151,0.0692 0.0434,0.0208 0.0871,0.0417 0.13074,0.062 0.0426,0.0198 0.0853,0.0391 0.12815,0.0584 0.0103,0.0134 0.0239,0.0241 0.0393,0.031 0.0157,0.007 0.0321,0.008 0.0481,0.007 0.0495,0.0217 0.099,0.0433 0.14883,0.0641 0.0444,0.0185 0.0891,0.0371 0.13384,0.0548 0.0371,0.0147 0.0743,0.0288 0.11163,0.0429 0.006,0.002 0.013,0.005 0.0196,0.008 0.0111,0.0127 0.0255,0.022 0.0413,0.0279 0.0163,0.006 0.0327,0.006 0.0486,0.004 0.0361,0.0128 0.072,0.0256 0.10852,0.0372 0.0148,0.005 0.03,0.009 0.045,0.0139 0.003,9.4e-4 0.006,0.002 0.01,0.003 0.004,10e-4 0.008,0.002 0.0114,0.003 v 5.1e-4 c 0.002,4.5e-4 0.003,0.001 0.005,0.002 h 0.11472 0.14108 c 0.0148,0.008 0.0318,0.0123 0.0486,0.0124 0.017,0 0.0324,-0.005 0.0465,-0.0124 h 0.16278 0.14469 0.14108 c 0.0149,0.008 0.0312,0.0123 0.0481,0.0124 0.017,0 0.0324,-0.005 0.0465,-0.0124 h 0.16278 0.14469 0.14108 c 0.0148,0.008 0.0312,0.0123 0.0481,0.0124 0.017,0 0.0324,-0.005 0.0465,-0.0124 h 0.16278 0.14469 0.14108 c 0.0148,0.008 0.0317,0.0123 0.0486,0.0124 0.017,0 0.0324,-0.005 0.0465,-0.0124 h 0.16278 0.14469 0.14108 c 0.0148,0.008 0.0312,0.0123 0.0481,0.0124 0.017,0 0.0324,-0.005 0.0465,-0.0124 h 0.16278 0.1447 0.14107 c 0.0148,0.008 0.0317,0.0123 0.0486,0.0124 0.017,0 0.0319,-0.005 0.046,-0.0124 h 0.1633 0.14418 0.14107 c 0.0148,0.008 0.0317,0.0123 0.0486,0.0124 0.017,0 0.0324,-0.005 0.0465,-0.0124 h 0.16279 0.14469 0.14108 c 0.0148,0.008 0.0312,0.0123 0.0481,0.0124 0.017,0 0.0324,-0.005 0.0465,-0.0124 h 0.16278 0.14469 0.14108 c 0.0148,0.008 0.0317,0.0123 0.0486,0.0124 0.017,0 0.0324,-0.005 0.0465,-0.0124 h 0.16278 0.14418 0.14107 c 0.0148,0.008 0.0317,0.0123 0.0486,0.0124 0.017,0 0.0325,-0.005 0.0465,-0.0124 h 0.16278 0.1447 0.14107 c 0.0148,0.008 0.0312,0.0123 0.0481,0.0124 0.017,0 0.0325,-0.005 0.0465,-0.0124 h 0.16279 0.14469 0.14108 c 0.0148,0.008 0.0317,0.0123 0.0486,0.0124 0.017,0 0.0319,-0.005 0.046,-0.0124 h 0.16278 0.14469 0.14108 c 0.0148,0.008 0.0317,0.0123 0.0486,0.0124 0.017,0 0.0325,-0.005 0.0465,-0.0124 h 0.16278 0.14418 0.14159 c 0.0149,0.008 0.0312,0.0123 0.0481,0.0124 0.017,0 0.0324,-0.005 0.0465,-0.0124 h 0.16278 0.14469 0.14108 c 0.0148,0.008 0.0312,0.0123 0.0481,0.0124 0.017,0 0.0324,-0.005 0.0465,-0.0124 h 0.16278 0.14469 0.14108 c 0.0148,0.008 0.0318,0.0123 0.0486,0.0124 0.017,0 0.0319,-0.005 0.046,-0.0124 h 0.1633 0.14417 0.14108 c 0.0148,0.008 0.0318,0.0123 0.0486,0.0124 0.017,0 0.0324,-0.005 0.0465,-0.0124 h 0.16279 0.14469 0.14108 c 0.0148,0.008 0.0312,0.0123 0.0481,0.0124 0.017,0 0.0324,-0.005 0.0465,-0.0124 h 0.16279 0.14469 0.14108 c 0.0148,0.008 0.0317,0.0123 0.0486,0.0124 0.017,0 0.0319,-0.005 0.046,-0.0124 h 0.1633 0.14418 0.14108 c 0.0148,0.008 0.0317,0.0123 0.0486,0.0124 0.017,0 0.0324,-0.005 0.0465,-0.0124 h 0.16278 0.1447 0.14107 c 0.0149,0.008 0.0312,0.0123 0.0481,0.0124 0.017,0 0.0324,-0.005 0.0465,-0.0124 h 0.16278 0.14469 0.14108 c 0.0148,0.008 0.0317,0.0123 0.0486,0.0124 0.017,0 0.0324,-0.005 0.0465,-0.0124 h 0.16278 0.14417 0.1416 c 0.0148,0.008 0.0312,0.0123 0.0481,0.0124 0.017,0 0.0324,-0.005 0.0465,-0.0124 h 0.16278 0.14469 0.0904 c 3.8e-4,-10e-5 10e-4,1.1e-4 10e-4,0 h 0.001 v -5.1e-4 c 6e-4,-1.6e-4 7.4e-4,-3.7e-4 0.002,-5.2e-4 0.003,-9.5e-4 0.007,-0.002 0.0103,-0.003 0.0106,-0.003 0.0214,-0.006 0.032,-0.009 0.003,6.2e-4 0.005,0.001 0.009,0.001 0.0137,0.002 0.0276,9.1e-4 0.0408,-0.003 0.0165,-0.005 0.0296,-0.0146 0.0408,-0.0258 0.0206,-0.007 0.0416,-0.0129 0.062,-0.0196 0.0309,-0.0101 0.0617,-0.0204 0.0925,-0.031 0.0455,-0.0156 0.0908,-0.0319 0.13591,-0.0486 0.044,-0.0163 0.0881,-0.0328 0.13177,-0.0501 0.0167,0.002 0.0335,-4.3e-4 0.0491,-0.007 0.0159,-0.006 0.0293,-0.0167 0.0398,-0.0294 0.0107,-0.004 0.0215,-0.009 0.032,-0.0134 0.0388,-0.0164 0.0772,-0.0334 0.11575,-0.0506 0.0439,-0.0197 0.0877,-0.04 0.13126,-0.0605 0.0425,-0.02 0.0847,-0.0402 0.12712,-0.0605 0.015,7.2e-4 0.0306,-10e-4 0.0444,-0.007 0.002,-6.8e-4 0.003,-0.001 0.005,-0.002 0.0154,-0.007 0.0271,-0.0189 0.0367,-0.0315 0.0489,-0.0234 0.0974,-0.0467 0.14624,-0.0703 0.0433,-0.021 0.0869,-0.0419 0.13022,-0.063 0.0422,-0.0206 0.0844,-0.0413 0.12661,-0.062 0.0169,6.2e-4 0.0339,-0.003 0.0491,-0.0103 0.0147,-0.007 0.0264,-0.0185 0.0362,-0.0315 0.002,-6.2e-4 0.003,-0.002 0.004,-0.002 l 0.14159,-0.0703 0.12971,-0.0646 0.12609,-0.0625 c 0.0168,5.4e-4 0.0339,-0.003 0.0491,-0.0108 0.0152,-0.008 0.0263,-0.0188 0.0357,-0.0315 l 0.0713,-0.0351 c 0.0374,-0.014 0.0737,-0.0299 0.10956,-0.0475 h 0.002 v -5.2e-4 c 0.40452,-0.20267 0.66045,-0.61622 0.66146,-1.06867 0,-0.66162 -0.53624,-1.19786 -1.19786,-1.19786 -0.0131,7.2e-4 -0.0267,0.001 -0.0398,0.003 l -0.0439,-0.007 c -0.006,-0.005 -0.0142,-0.006 -0.0212,-0.009 v -0.26613 c 0,0 -0.0203,-0.17031 0.66146,0.12041 0.68168,0.29072 0.58136,0.46095 0.58136,0.46095 l 0.24081,-0.11007 c 0,0 -0.29063,-0.35089 -0.68161,-0.55139 -0.39096,-0.20049 -0.42633,-0.16433 -0.42633,-0.16433 l -0.0481,-0.26252 -0.98908,-0.28525 -2.03451,-1.13068 -4.06125,-0.49764 -0.0357,-0.10904 -0.0853,0.004 -1.9327,-2.58434 -4.49171,-0.0336 -0.77102,-0.25993 -0.0548,0.1633 -0.22065,-0.0739 c -0.14276,-0.048 -0.29615,0.0278 -0.34417,0.17053 l -10e-4,0.003 -0.39791,0.0424 0.14521,-0.26613 z m -2.674773,0.95653 h 0.193787 v 0.13281 h 0.472323 v 0.14108 l -0.346232,0.004 h -0.319878 z m 1.186491,0.13281 h 0.921391 l -0.06511,0.12454 -0.856279,0.0103 z m 1.388542,1.77871 0.062,0.0212 -0.0455,0.13436 0.39326,0.13229 -0.10283,0.27388 -0.3204,-0.016 -0.19792,-0.10077 0.0692,-0.0692 -0.12092,-0.35088 z m -2.359542,3.93619 c 0.03753,0.01 0.07582,0.0177 0.114205,0.0233 -0.01658,0.0127 -0.03279,0.0231 -0.04961,0.0372 -0.0023,0.002 -0.0054,0.004 -0.0078,0.007 z m 2.287712,0.37517 0.85473,0.22944 c -0.38322,0.0197 -0.68429,0.33387 -0.68574,0.71572 0.001,0.17534 0.0666,0.34416 0.18396,0.47491 -0.009,0.0189 -0.0184,0.0355 -0.0269,0.0558 -0.002,0.003 -0.002,0.007 -0.004,0.01 -0.0447,-0.0188 -0.0888,-0.0384 -0.13332,-0.0579 -0.01,-0.012 -0.0217,-0.0223 -0.0367,-0.0289 -0.0151,-0.007 -0.0315,-0.01 -0.0481,-0.008 -0.0378,-0.017 -0.0755,-0.0342 -0.11317,-0.0517 0.002,-0.003 0.003,-0.006 0.005,-0.009 0.0803,-0.17337 0.11131,-0.33001 0.0703,-0.34933 -0.0411,-0.0194 -0.14269,0.10371 -0.22531,0.27595 -0.002,0.003 -0.003,0.006 -0.005,0.009 -0.0429,-0.0206 -0.0858,-0.041 -0.128676,-0.062 -7.34e-4,-3.5e-4 -0.0014,-7.4e-4 -0.0021,-10e-4 -0.0098,-0.0135 -0.02273,-0.0247 -0.03772,-0.032 -0.01524,-0.007 -0.03177,-0.011 -0.04858,-0.0103 -0.03789,-0.0186 -0.07612,-0.0373 -0.113688,-0.0558 0.0016,-0.003 0.0035,-0.006 0.0052,-0.009 0.04697,-0.0953 0.0763,-0.18295 0.08785,-0.24805 0.260424,-0.11148 0.429514,-0.36733 0.429944,-0.65061 -3e-5,-0.0665 -0.009,-0.13253 -0.0279,-0.19637 z m 1.16221,0.27905 h 0.45578 v 0.0811 0.48524 h -0.0103 c -0.0362,-0.25447 -0.20587,-0.47034 -0.44545,-0.56637 z m 0.88521,0 h 0.26407 c -0.24345,0.0932 -0.41767,0.3096 -0.45578,0.56638 h -0.008 v -0.32402 l 0.0196,0.014 z m 0.78445,0 h 1.37098 c -0.27561,0.10839 -0.45689,0.37328 -0.45734,0.66818 0.001,0.22078 0.10431,0.42892 0.27957,0.56431 -0.006,0.0462 -0.01,0.0964 -0.01,0.15141 3e-5,0.004 4e-4,0.007 5.2e-4,0.0103 h -0.14831 c -0.0141,-0.007 -0.0295,-0.0124 -0.0465,-0.0124 -0.0169,9e-5 -0.0337,0.004 -0.0486,0.0124 h -0.12661 c 5e-5,-0.004 -7e-5,-0.007 0,-0.0103 0,-0.19105 -0.0389,-0.34577 -0.0868,-0.34572 -0.0479,4e-5 -0.0868,0.15473 -0.0868,0.34572 3e-5,0.004 -7e-5,0.007 0,0.0103 H 103.588 c -0.0141,-0.007 -0.0295,-0.0124 -0.0465,-0.0124 -0.0169,9e-5 -0.0331,0.004 -0.0481,0.0124 h -0.12661 c 5e-5,-0.004 -7e-5,-0.007 0,-0.0103 0,-0.0787 -0.008,-0.14806 -0.0191,-0.20619 0.13459,-0.13472 0.21023,-0.31699 0.21032,-0.50695 -1.4e-4,-0.29701 -0.18367,-0.56354 -0.46198,-0.67076 z m 1.90221,0 h 0.25993 l 0.17777,0.25373 0.0196,-0.014 v 0.32402 h -0.008 c -0.0379,-0.25426 -0.20937,-0.46935 -0.44958,-0.56379 z m 0.68782,0 h 0.4501 c -0.23662,0.0971 -0.4042,0.31163 -0.44029,0.56379 h -0.01 v -0.48524 z m 1.00562,0 h 1.22783 c -0.26417,0.11378 -0.43515,0.37295 -0.43563,0.65939 2.3e-4,0.13981 0.0413,0.27636 0.11834,0.39326 -0.0363,0.0414 -0.063,0.17332 -0.063,0.33125 2e-5,0.004 4.4e-4,0.007 5.1e-4,0.0103 h -0.14882 c -0.0141,-0.007 -0.029,-0.0124 -0.046,-0.0124 -0.0169,9e-5 -0.0337,0.004 -0.0486,0.0124 h -0.12661 c 5e-5,-0.004 -1e-4,-0.007 0,-0.0103 10e-6,-0.19105 -0.0388,-0.34577 -0.0868,-0.34572 -0.0479,4e-5 -0.0868,0.15473 -0.0868,0.34572 2e-5,0.004 -8e-5,0.007 0,0.0103 h -0.14831 c -0.0141,-0.007 -0.0295,-0.0124 -0.0465,-0.0124 -0.0169,9e-5 -0.0332,0.004 -0.0481,0.0124 h -0.12661 c 6e-5,-0.004 -7e-5,-0.007 0,-0.0103 0,-0.0118 -0.001,-0.0221 -0.001,-0.0336 0.30311,-0.0929 0.50987,-0.37169 0.51005,-0.6873 -1.5e-4,-0.2896 -0.17505,-0.55088 -0.44339,-0.66301 z m 1.79937,0 h 0.44184 v 0.0744 0.48576 h -0.0103 c -0.0358,-0.24882 -0.19919,-0.46145 -0.4315,-0.56017 z m 0.86713,0 h 0.25425 c -0.23615,0.096 -0.40413,0.30912 -0.44183,0.56018 h -0.008 v -0.32453 l 0.0202,0.014 z m 0.80615,0 h 1.33636 c -0.26659,0.11284 -0.44001,0.37318 -0.44029,0.66146 0.001,0.22591 0.10895,0.43855 0.29094,0.57361 -0.005,0.0455 -0.009,0.0949 -0.009,0.14883 3e-5,0.004 4.4e-4,0.007 5.2e-4,0.0103 h -0.14883 c -0.0141,-0.007 -0.0295,-0.0124 -0.0465,-0.0124 -0.0169,9e-5 -0.0331,0.004 -0.0481,0.0124 h -0.1266 c 4e-5,-0.004 -1.2e-4,-0.007 0,-0.0103 0,-0.19105 -0.0388,-0.34577 -0.0868,-0.34572 -0.0479,4e-5 -0.0868,0.15473 -0.0868,0.34572 3e-5,0.004 -7e-5,0.007 0,0.0103 h -0.14831 c -0.0141,-0.007 -0.0295,-0.0124 -0.0465,-0.0124 -0.0169,9e-5 -0.0332,0.004 -0.0481,0.0124 h -0.1266 c 4e-5,-0.004 -8e-5,-0.007 0,-0.0103 0,-0.0862 -0.009,-0.16268 -0.0217,-0.22324 0.12886,-0.1335 0.20101,-0.311 0.20154,-0.4961 0,-0.29044 -0.17552,-0.55284 -0.44493,-0.66456 z m 1.8986,0 h 0.25063 l 0.17311,0.24702 0.0202,-0.0139 v 0.32401 h -0.008 c -0.0375,-0.24874 -0.20299,-0.45999 -0.43615,-0.55708 z m 0.67386,0 h 0.43615 c -0.22936,0.0998 -0.39076,0.31052 -0.42633,0.55708 h -0.01 v -0.48525 z m 1.01751,0 h 0.001 0.68574 c 0.17846,0.37894 0.54204,0.63726 0.9586,0.6811 l -0.0822,0.0408 c -0.002,6.1e-4 -0.003,0.002 -0.004,0.002 -0.0163,-2.7e-4 -0.0323,0.002 -0.047,0.009 -0.0151,0.008 -0.0279,0.0189 -0.0377,0.0326 -0.0378,0.0185 -0.0759,0.0369 -0.11369,0.0553 -0.002,-0.003 -0.003,-0.006 -0.005,-0.009 -0.084,-0.1716 -0.18702,-0.29404 -0.22945,-0.27337 -0.0424,0.0206 -0.009,0.17693 0.0739,0.34881 0.002,0.003 0.003,0.006 0.005,0.009 -0.0444,0.0214 -0.0884,0.0428 -0.13281,0.0641 -0.0157,-4.5e-4 -0.0319,0.002 -0.047,0.009 -0.002,7.8e-4 -0.003,10e-4 -0.005,0.002 -0.0133,0.007 -0.0248,0.0173 -0.0336,0.0295 -0.038,0.0181 -0.076,0.0365 -0.11369,0.0543 -0.002,-0.003 -0.003,-0.007 -0.005,-0.01 -0.0814,-0.17289 -0.18195,-0.29666 -0.22221,-0.27801 -0.0398,0.0184 -0.01,0.17497 0.0682,0.34933 0.002,0.003 0.003,0.006 0.005,0.009 -0.0332,0.0148 -0.0661,0.029 -0.0992,0.0429 -0.0104,0.004 -0.0207,0.009 -0.031,0.0129 -0.016,-0.002 -0.0324,-1e-5 -0.0475,0.006 -0.0151,0.006 -0.0283,0.0162 -0.0388,0.0289 -0.038,0.0151 -0.0764,0.0302 -0.11472,0.0444 -7.9e-4,-0.003 -0.003,-0.007 -0.004,-0.0103 -0.0265,-0.0712 -0.0563,-0.13074 -0.0853,-0.18087 0.0857,-0.12109 0.13165,-0.26583 0.13178,-0.41393 -6.7e-4,-0.28423 -0.16923,-0.54135 -0.43047,-0.65629 z m -14.821838,0.19637 c 0.04986,0.11554 0.129605,0.21589 0.230994,0.29043 -0.0016,0.002 -0.0033,0.004 -0.0041,0.006 -0.03915,-0.0252 -0.07795,-0.0522 -0.116789,-0.0796 -0.0071,-0.0134 -0.01565,-0.0254 -0.02842,-0.0346 -0.01318,-0.009 -0.02863,-0.0155 -0.04496,-0.0176 -0.033,-0.0242 -0.06605,-0.0488 -0.09922,-0.0739 0.0023,-0.003 0.0037,-0.006 0.0062,-0.008 0.0214,-0.0283 0.03881,-0.0556 0.05633,-0.0827 z m 0.373104,0.37259 h 5.17e-4 c 0.08749,0.0375 0.181774,0.057 0.276985,0.0574 0.03621,-1.7e-4 0.07224,-0.003 0.108004,-0.009 -0.02368,0.0363 -0.04747,0.0771 -0.07028,0.12196 -0.0016,0.003 -0.0031,0.006 -0.0047,0.009 -0.0435,-0.0221 -0.08645,-0.0446 -0.129191,-0.0672 -0.0088,-0.0126 -0.01938,-0.0239 -0.03359,-0.0315 -0.01444,-0.008 -0.03053,-0.0115 -0.04703,-0.0114 -0.03584,-0.0196 -0.07135,-0.0396 -0.106453,-0.0599 0.0016,-0.003 0.004,-0.006 0.0057,-0.009 z m 13.181624,0.24908 h 5.2e-4 0.27233 c 0.0347,0.14612 0.11426,0.27744 0.2279,0.3762 -0.009,0.0552 -0.016,0.11812 -0.016,0.18966 2e-5,0.004 -1.2e-4,0.007 0,0.0103 h -0.14832 c -0.0141,-0.007 -0.0295,-0.0124 -0.0465,-0.0124 -0.0169,9e-5 -0.0332,0.004 -0.0481,0.0124 h -0.12661 c 5e-5,-0.004 -7e-5,-0.007 0,-0.0103 0,-0.19105 -0.0389,-0.34577 -0.0868,-0.34572 -0.0479,4e-5 -0.0868,0.15473 -0.0868,0.34572 3e-5,0.004 -8e-5,0.007 0,0.0103 h -0.14832 c -0.0141,-0.007 -0.0296,-0.0124 -0.0465,-0.0124 -0.0169,9e-5 -0.0337,0.004 -0.0486,0.0124 h -0.12661 c 5e-5,-0.004 4.5e-4,-0.007 5.2e-4,-0.0103 0,-0.0201 -0.003,-0.0377 -0.004,-0.0568 0.21882,-0.0893 0.38009,-0.27928 0.4315,-0.50901 z m -3.57756,0.003 h 0.27234 c 0.0196,0.0854 0.055,0.1664 0.10387,0.23926 -0.009,-0.0135 -0.0195,-0.0222 -0.03,-0.0222 -0.0479,4e-5 -0.0868,0.15524 -0.0868,0.34623 2e-5,0.004 -1.1e-4,0.007 0,0.0103 h -0.14831 c -0.0141,-0.007 -0.0295,-0.0124 -0.0465,-0.0124 -0.0169,9e-5 -0.0332,0.004 -0.0481,0.0124 h -0.12661 c 6e-5,-0.004 -8e-5,-0.007 0,-0.0103 0,-0.11356 -0.0145,-0.20979 -0.0357,-0.27285 0.0703,-0.0845 0.11996,-0.18373 0.14573,-0.29042 z m -3.47317,0.004 h 0.27285 c 0.0333,0.14154 0.10857,0.27 0.21652,0.36794 -0.01,0.0556 -0.0165,0.11921 -0.0165,0.19172 3e-5,0.004 4.4e-4,0.007 5.2e-4,0.0103 h -0.14883 c -0.0141,-0.007 -0.0291,-0.0124 -0.046,-0.0124 -0.0169,8e-5 -0.0337,0.004 -0.0486,0.0124 h -0.1266 c 4e-5,-0.004 -7e-5,-0.007 0,-0.0103 0,-0.19105 -0.0389,-0.34629 -0.0868,-0.34623 -0.0479,3e-5 -0.0868,0.15524 -0.0868,0.34623 2e-5,0.004 -8e-5,0.007 0,0.0103 h -0.14831 c -0.0141,-0.007 -0.0295,-0.0124 -0.0465,-0.0124 -0.0169,8e-5 -0.0332,0.004 -0.0481,0.0124 h -0.12661 c 4e-5,-0.004 -7e-5,-0.007 0,-0.0103 0,-0.0165 -0.002,-0.0306 -0.003,-0.0465 0.22398,-0.0871 0.38975,-0.27965 0.44235,-0.51315 z m -3.57756,0.003 h 0.27233 c 0.0596,0.26087 0.26,0.4673 0.51987,0.53589 -1.1e-4,0.007 -0.001,0.0133 -0.001,0.0207 2e-5,0.004 -8e-5,0.007 0,0.0103 h -0.14831 c -0.0141,-0.007 -0.0295,-0.0124 -0.0465,-0.0124 -0.0169,9e-5 -0.0332,0.004 -0.0481,0.0124 h -0.12661 c 5e-5,-0.004 -1e-4,-0.007 0,-0.0103 0,-0.19105 -0.0388,-0.34576 -0.0868,-0.34571 -0.0479,4e-5 -0.0868,0.15472 -0.0868,0.34571 2e-5,0.004 -8e-5,0.007 0,0.0103 h -0.14831 c -0.0141,-0.007 -0.0295,-0.0124 -0.0465,-0.0124 -0.0169,9e-5 -0.0332,0.004 -0.0481,0.0124 h -0.12661 c 5e-5,-0.004 -8e-5,-0.007 0,-0.0103 0,-0.10449 -0.0121,-0.19496 -0.0305,-0.25838 0.0736,-0.0861 0.12536,-0.18829 0.15193,-0.29817 z m 7.43314,0.24443 c 0.1005,0.14383 0.25071,0.24659 0.42168,0.28836 -1.5e-4,0.008 -0.002,0.0153 -0.002,0.0238 2e-5,0.004 -8e-5,0.007 0,0.0103 h -0.14832 c -0.0141,-0.007 -0.0295,-0.0124 -0.0465,-0.0124 -0.0169,9e-5 -0.0337,0.004 -0.0486,0.0124 h -0.12661 c 5e-5,-0.004 -7e-5,-0.007 0,-0.0103 0,-0.13887 -0.0204,-0.25709 -0.0501,-0.31212 z m -1.60042,0.0915 c 0.10605,0.10686 0.24296,0.17813 0.39171,0.20361 -8e-5,0.006 -5.2e-4,0.011 -5.2e-4,0.017 2e-5,0.004 -8e-5,0.007 0,0.0103 h -0.14831 c -0.0141,-0.007 -0.0296,-0.0124 -0.0465,-0.0124 -0.0169,9e-5 -0.0337,0.004 -0.0486,0.0124 h -0.12661 c 6e-5,-0.004 4.5e-4,-0.007 5.2e-4,-0.0103 10e-6,-0.0851 -0.009,-0.1604 -0.0217,-0.22065 z m 6.25491,0.0269 5.2e-4,5.2e-4 c 0.009,0.0373 0.0201,0.0763 0.0341,0.1173 7.8e-4,0.003 0.002,0.007 0.003,0.01 -0.0255,0.009 -0.0509,0.0175 -0.0765,0.0258 -0.0201,0.007 -0.0404,0.0128 -0.0605,0.0191 -0.0151,-0.003 -0.0307,-0.004 -0.046,10e-4 -0.0126,0.004 -0.0239,0.0105 -0.0341,0.0191 -0.002,10e-4 -0.003,0.002 -0.004,0.003 l 0.004,0.008 h -0.0258 c -0.003,9.5e-4 -0.007,0.002 -0.0109,0.003 -0.003,9.5e-4 -0.006,0.002 -0.009,0.003 -7.9e-4,3.2e-4 -0.003,2.2e-4 -0.004,5.2e-4 l 0.03,0.11007 -0.0357,-0.11627 h 0.0295 c 0.006,-0.002 0.0131,-0.004 0.0196,-0.006 7.9e-4,-8.7e-4 0.001,-0.002 0.002,-0.003 l -0.0294,-0.0631 c 0.0781,-0.0315 0.15034,-0.0766 0.2129,-0.13281 z m -5.3113,0.0439 c -0.006,0.0457 -0.009,0.0955 -0.009,0.14986 2e-5,0.004 -8e-5,0.007 0,0.0103 h -0.14831 c -0.0141,-0.007 -0.0295,-0.0124 -0.0465,-0.0124 -0.0169,9e-5 -0.0332,0.004 -0.0481,0.0124 h -0.12713 c 6e-5,-0.004 4.5e-4,-0.007 5.2e-4,-0.0103 0,-0.004 -4.9e-4,-0.007 -5.2e-4,-0.01 0.13728,-0.01 0.26881,-0.0584 0.37931,-0.14004 z m -7.0652,0.0186 c -0.004,0.0405 -0.006,0.0847 -0.006,0.13126 2e-5,0.004 -8e-5,0.007 0,0.0103 h -0.14831 c -0.0141,-0.007 -0.0295,-0.0124 -0.0465,-0.0124 -0.0169,9e-5 -0.0337,0.004 -0.0486,0.0124 h -0.12661 c 5e-5,-0.004 -7e-5,-0.007 0,-0.0103 v -0.002 c 0.13496,-0.007 0.26555,-0.052 0.3762,-0.12919 z m -0.82217,0.006 c 0.0254,0.0163 0.0518,0.031 0.0791,0.0439 -0.028,-0.0106 -0.0559,-0.0211 -0.0837,-0.032 0.002,-0.003 0.002,-0.007 0.004,-0.01 2.6e-4,-6.8e-4 7.6e-4,-0.001 0.001,-0.002 z m 9.51311,0.0181 c -0.003,0.0342 -0.006,0.069 -0.006,0.10697 2e-5,0.004 4.4e-4,0.007 5.2e-4,0.0103 h -0.14831 c -0.0141,-0.007 -0.0295,-0.0124 -0.0465,-0.0124 -0.0169,9e-5 -0.0337,0.004 -0.0486,0.0124 h -0.12661 c 5e-5,-0.004 -7e-5,-0.007 0,-0.0103 0.1325,-8.1e-4 0.26239,-0.0378 0.37517,-0.10697 z m -7.06313,0.0129 c -0.002,0.0305 -0.005,0.0608 -0.005,0.094 3e-5,0.004 -8e-5,0.007 0,0.0103 h -0.14832 c -0.0141,-0.007 -0.0295,-0.0124 -0.0465,-0.0124 -0.0169,9e-5 -0.0332,0.004 -0.0481,0.0124 h -0.1266 c 2e-5,-0.002 -2e-5,-0.003 0,-0.005 0.004,3.7e-4 0.007,7.3e-4 0.0114,0.001 0.12768,-0.001 0.25291,-0.036 0.36277,-0.10077 z m 9.94306,0.007 h 5.1e-4 c 0.0996,0.0509 0.2095,0.0782 0.32143,0.0796 0.0177,-6e-5 0.0351,-7.2e-4 0.0527,-0.002 -2e-5,0.003 -5.2e-4,0.006 -5.2e-4,0.01 3e-5,0.003 4.4e-4,0.007 5.2e-4,0.0103 h -0.14883 c -0.0141,-0.007 -0.0291,-0.0119 -0.046,-0.0119 -0.0169,9e-5 -0.0336,0.004 -0.0486,0.0119 h -0.12661 c 5e-5,-0.004 -7e-5,-0.007 0,-0.0103 0,-0.031 -0.002,-0.0588 -0.005,-0.0873 z m -7.06262,5.2e-4 h 5.2e-4 c 0.10249,0.0548 0.21698,0.0843 0.33331,0.0858 0.0137,-8e-5 0.0272,-7e-4 0.0408,-0.001 v 0.003 c 2e-5,0.004 -8e-5,0.007 0,0.0103 h -0.14831 c -0.0141,-0.007 -0.0296,-0.0124 -0.0465,-0.0124 -0.0169,8e-5 -0.0337,0.004 -0.0486,0.0124 h -0.1266 c 6e-5,-0.004 4.5e-4,-0.007 5.2e-4,-0.0103 0,-0.0307 -0.003,-0.0585 -0.005,-0.0868 z m 5.43429,0.031 h 5.2e-4 c 0.0859,0.0348 0.17801,0.053 0.27078,0.0532 0.0343,-9.7e-4 0.0685,-0.005 0.10232,-0.0103 -4e-5,0.004 -0.001,0.008 -0.001,0.0129 3e-5,0.004 4.4e-4,0.007 5.2e-4,0.0103 h -0.14831 c -0.0141,-0.007 -0.0295,-0.0124 -0.0465,-0.0124 -0.0169,8e-5 -0.0337,0.004 -0.0486,0.0124 h -0.1266 c 4e-5,-0.004 -7e-5,-0.007 0,-0.0103 0,-0.0197 -0.002,-0.037 -0.003,-0.0558 z m -7.06158,0.002 c 0.0891,0.0377 0.18484,0.0572 0.28164,0.0574 0.0303,-0.001 0.0605,-0.004 0.0904,-0.009 -1e-5,0.002 0,0.004 0,0.005 3e-5,0.004 -8e-5,0.007 0,0.0103 h -0.14832 c -0.0141,-0.007 -0.0295,-0.0124 -0.0465,-0.0124 -0.0169,8e-5 -0.0337,0.004 -0.0486,0.0124 h -0.1266 c 4e-5,-0.003 4.4e-4,-0.007 5.1e-4,-0.0103 0,-0.019 -0.003,-0.0355 -0.003,-0.0537 z m 9.24336,0.008 0.017,0.0563 h -0.0227 c 5e-5,-0.004 -7e-5,-0.007 0,-0.0109 0,-0.0154 -10e-4,-0.0292 -0.002,-0.0434 0.003,-7.6e-4 0.005,-0.001 0.008,-0.002 z m -12.67106,0.0346 c 0.0178,0.002 0.0358,0.004 0.0537,0.005 l -10e-4,0.0119 c -0.009,-0.003 -0.0182,-0.005 -0.0274,-0.008 -0.009,-0.003 -0.0168,-0.006 -0.0253,-0.009 z" />
  </g>
</svg>
