<?xml version="1.0" encoding="UTF-8" standalone="no"?>
<!-- Created with Inkscape (http://www.inkscape.org/) -->

<svg
   width="33.136555mm"
   height="8.9689684mm"
   viewBox="0 0 33.136555 8.9689684"
   version="1.1"
   id="svg4818"
   sodipodi:docname="inkporter-svg-uj5polbu.svg"
   xmlns:inkscape="http://www.inkscape.org/namespaces/inkscape"
   xmlns:sodipodi="http://sodipodi.sourceforge.net/DTD/sodipodi-0.dtd"
   xmlns="http://www.w3.org/2000/svg"
   xmlns:svg="http://www.w3.org/2000/svg">
  <sodipodi:namedview
     id="namedview4820"
     pagecolor="#ffffff"
     bordercolor="#666666"
     borderopacity="1.0"
     inkscape:pageshadow="2"
     inkscape:pageopacity="0.0"
     inkscape:pagecheckerboard="0"
     inkscape:document-units="mm"
     showgrid="false"
     inkscape:zoom="0.90583672"
     inkscape:cx="459.79589"
     inkscape:cy="582.33453"
     inkscape:window-width="1920"
     inkscape:window-height="1017"
     inkscape:window-x="-8"
     inkscape:window-y="-8"
     inkscape:window-maximized="1"
     inkscape:current-layer="layer1" />
  <defs
     id="defs4815" />
  <g
     inkscape:label="Layer 1"
     inkscape:groupmode="layer"
     id="layer1"
     transform="translate(-109.08036,-156.50534)">
    <g
       id="S-203mm"
       transform="matrix(0.35277777,0,0,-0.35277777,-176.00257,250.60394)">
      <path
         d="m 884.25164,241.85748 c -0.14968,0.18032 -0.15231,0.27367 -0.009,0.36152 0.10541,0.0651 1.68023,0.1964 3.49965,0.29168 1.81942,0.0953 3.40274,0.24729 3.51843,0.33781 0.29201,0.22851 0.26377,1.21566 -0.0421,1.46948 -0.13879,0.11524 -0.25245,0.42737 -0.25245,0.69367 0,0.42908 -0.0593,0.4842 -0.5205,0.4842 -0.36031,0 -0.545,-0.0935 -0.59998,-0.30374 -0.0765,-0.29258 -0.13616,-0.29243 -1.62485,0.004 -0.84999,0.16944 -2.12877,0.33737 -2.8418,0.3732 -0.71304,0.0358 -1.3805,0.11712 -1.48329,0.18066 -0.28221,0.17439 0.31481,0.75514 0.77625,0.75514 0.32783,0 0.40139,0.11395 0.50061,0.7758 0.13545,0.90295 0.0593,0.98217 -1.18941,1.23969 -2.17974,0.44947 -5.89411,0.65287 -6.45372,0.35338 -0.20371,-0.10904 -0.32468,-0.2724 -0.26871,-0.36297 0.056,-0.0906 0.12247,-0.45532 0.14776,-0.81054 0.0395,-0.5565 0,-0.6346 -0.26529,-0.56446 -0.17258,0.0452 -0.31138,-0.007 -0.31138,-0.1164 0,-0.1088 -0.0757,-0.15102 -0.16823,-0.0938 -0.0925,0.0571 -0.16832,0.28434 -0.16832,0.50479 0,0.22044 -0.0722,0.44545 -0.16045,0.50001 -0.28281,0.17475 -0.98287,-0.0975 -1.0657,-0.41436 -0.0758,-0.28961 -0.14868,-0.29313 -1.31999,-0.0638 -0.6819,0.13352 -1.44799,0.25152 -1.70254,0.26224 -0.2545,0.0105 -0.46271,0.0836 -0.46271,0.16212 0,0.0785 -0.20892,0.14266 -0.46433,0.14266 -0.27398,0 -0.54618,0.1311 -0.66405,0.31981 -0.14373,0.23018 -0.54414,0.37354 -1.42864,0.51157 -0.67596,0.10553 -1.36041,0.26444 -1.52115,0.35326 -0.16071,0.0888 -0.55447,0.16149 -0.875,0.16149 -0.37749,0 -0.64028,0.10248 -0.7457,0.29095 -0.15348,0.27429 -0.18225,0.27341 -0.5014,-0.0154 -0.33733,-0.30529 -0.50332,-0.30632 -2.29713,-0.0143 -0.18509,0.0302 -0.67729,0.10049 -1.09375,0.15646 -0.41647,0.0559 -1.0979,0.16978 -1.51436,0.25299 -0.41648,0.0832 -1.10344,0.19613 -1.52656,0.2509 l -0.76938,0.0996 0.0118,0.82808 c 0.009,0.62955 -0.0646,0.88435 -0.30856,1.06275 -0.29037,0.2125 -0.31137,0.39079 -0.22208,1.88713 0.0747,1.25303 0.16243,1.68821 0.36272,1.80031 0.14533,0.0813 0.26419,0.24837 0.26419,0.37124 0,0.23546 1.32986,1.46367 4.12254,3.80744 0.92544,0.77669 1.95961,1.66597 2.29811,1.97614 1.28345,1.17609 1.62748,1.36154 2.15595,1.16209 0.63139,-0.23833 1.01455,0.064 1.01455,0.80041 0,0.40078 -0.0983,0.58374 -0.37861,0.70467 -0.42529,0.18352 -0.96753,0.11536 -0.96753,-0.12166 0,-0.0857 -0.14835,-0.15594 -0.32974,-0.15594 -0.18134,0 -0.62857,-0.28395 -0.99387,-0.63099 -0.3653,-0.34705 -1.01888,-0.93388 -1.45241,-1.30405 -0.43352,-0.3702 -0.97661,-0.83844 -1.2068,-1.04053 -0.23012,-0.20211 -0.72791,-0.61855 -1.10613,-0.92545 -1.98528,-1.61104 -4.31093,-3.73908 -4.47151,-4.09157 -0.10038,-0.22036 -0.27036,-1.21913 -0.3777,-2.21952 -0.10728,-1.00039 -0.24349,-1.85673 -0.30262,-1.90301 -0.24606,-0.19251 -0.52821,-0.86543 -0.52821,-1.25971 0,-0.25272 -0.0959,-0.42294 -0.23835,-0.42294 -0.13109,0 -0.26825,-0.0896 -0.3048,-0.19925 -0.0488,-0.14586 -0.25389,-0.12422 -0.76624,0.0807 -0.38485,0.154 -0.81009,0.23768 -0.94494,0.18596 -0.17896,-0.0687 -0.22129,-0.004 -0.15677,0.24376 0.0619,0.23704 0.28418,0.3709 0.7449,0.44875 0.65121,0.10996 0.90182,0.50259 0.43517,0.68167 -0.23809,0.0914 -1.47736,0.20202 -2.53245,0.22613 l -0.65055,0.0149 0.60846,0.67355 c 0.3347,0.37045 0.60855,0.81936 0.60855,0.99757 0,0.17822 0.0966,0.42409 0.21492,0.54638 0.11818,0.1223 0.36122,0.67667 0.54006,1.23195 0.17883,0.55527 0.37096,1.0853 0.42686,1.17785 0.056,0.0925 0.0878,0.43329 0.0704,0.7572 -0.0171,0.32392 0.0428,0.68199 0.13308,0.79574 0.1075,0.13523 0.10305,0.38251 -0.0126,0.71439 -0.13241,0.37981 -0.11534,0.74413 0.0679,1.44752 0.13465,0.51696 0.20786,0.99969 0.16277,1.07274 -0.1317,0.21306 -1.09731,0.39854 -2.27653,0.43731 -0.60156,0.0198 -1.63479,0.18668 -2.29614,0.37094 -0.7285,0.20299 -1.29214,0.27811 -1.43022,0.19062 -0.34363,-0.21772 -0.43227,-0.18317 -0.53472,0.20852 -0.073,0.27901 -0.18877,0.3399 -0.52439,0.27573 -0.29157,-0.0557 -0.43075,-0.008 -0.43075,0.14673 0,0.12597 -0.0757,0.22906 -0.1683,0.22906 -0.0925,0 -0.16824,0.26056 -0.16824,0.579 0,0.68047 -0.19708,0.85362 -0.67833,0.59605 -0.30243,-0.16187 -0.33383,-0.286 -0.23646,-0.93541 0.0888,-0.59209 0.0646,-0.73318 -0.11746,-0.67419 -0.12635,0.0411 -2.04705,0.42994 -4.26813,0.86428 -2.29193,0.44815 -4.16237,0.89809 -4.32508,1.04035 -0.15769,0.13788 -0.92782,0.33676 -1.71137,0.44197 -0.78356,0.10517 -1.48111,0.24806 -1.55018,0.31747 -0.22526,0.22644 -1.08631,0.13486 -1.18646,-0.12619 -0.0534,-0.13882 -0.16897,-0.25241 -0.25706,-0.25241 -0.0881,0 -0.10821,0.0843 -0.0448,0.18709 0.1596,0.25826 -0.24395,0.48031 -0.87856,0.4834 -0.44463,0.003 -0.56028,-0.0832 -0.71514,-0.52734 -0.24545,-0.70409 -0.23541,-2.04433 0.0172,-2.29695 0.32832,-0.3283 0.99585,-0.24628 1.09545,0.13461 0.1012,0.3866 0.55356,0.46021 0.55356,0.0901 0,-0.32598 0.57402,-0.6223 0.93624,-0.48329 0.20149,0.0773 0.26392,0.0395 0.20848,-0.1268 -0.0434,-0.13043 -0.26201,-0.23543 -0.48568,-0.23333 -0.8812,0.008 -2.93993,0.28493 -3.0989,0.41642 -0.27048,0.22373 -2.34022,0.55169 -2.39748,0.37989 -0.0295,-0.0883 -0.4249,-0.0998 -0.9302,-0.027 -2.18394,0.31481 -5.71239,0.88834 -7.02065,1.14115 -0.50901,0.0984 -1.11476,0.21161 -1.34612,0.25168 -2.70198,0.46801 -7.26091,1.3335 -7.65609,1.45347 -0.27764,0.0843 -0.82131,0.20293 -1.20816,0.26364 l -0.70337,0.11043 -0.20238,-0.73476 c -0.11125,-0.40411 -0.21125,-0.99538 -0.22209,-1.31396 -0.0222,-0.65404 -0.0808,-0.62684 2.336,-1.08553 0.74036,-0.14051 1.87616,-0.37496 2.52399,-0.52101 0.64781,-0.14606 1.93504,-0.42237 2.86052,-0.61405 2.6954,-0.5583 3.59352,-0.75663 5.46861,-1.20766 3.8844,-0.93434 5.08295,-1.27197 5.35375,-1.50815 0.30951,-0.26991 1.20656,-0.47824 2.38649,-0.55426 1.01081,-0.0651 2.59583,-0.62974 2.65783,-0.94679 0.038,-0.19402 -0.17547,-0.27747 -0.9011,-0.35237 -0.52297,-0.0539 -0.99009,-0.13737 -1.03804,-0.18533 -0.19257,-0.19258 0.15256,-0.64705 0.62748,-0.82632 0.34444,-0.13001 0.47712,-0.27522 0.41894,-0.45852 -0.0915,-0.28828 0.555,-0.9492 1.2637,-1.2919 0.41475,-0.20056 0.41356,-0.202 -0.0841,-0.10294 -0.27765,0.0552 -0.58443,0.16249 -0.68175,0.23836 -0.0973,0.0759 -0.71871,0.22743 -1.38087,0.33678 -1.76283,0.29113 -2.5647,-0.16116 -2.5647,-1.44659 0,-0.96947 0.53131,-1.49499 1.68266,-1.66424 1.40799,-0.207 1.7038,-0.30953 1.60862,-0.55756 -0.0519,-0.13506 -0.0943,-0.64013 -0.0943,-1.12238 v -0.8768 l -0.79804,-0.21343 c -1.06372,-0.28452 -2.2476,-1.491 -2.56083,-2.60973 -0.28537,-1.01926 -0.0256,-2.32256 0.64763,-3.24971 0.67723,-0.93259 1.7413,-1.39347 3.85813,-1.67105 0.98877,-0.12964 2.17635,-0.34042 2.6391,-0.46837 1.30044,-0.35959 11.89495,-0.24768 13.29297,0.14041 1.45253,0.40321 2.24201,0.58571 3.19702,0.73905 0.46275,0.0743 1.07854,0.25969 1.36846,0.41198 0.62038,0.32589 1.57618,1.69189 1.57618,2.25259 0,0.48089 -0.10809,0.47891 3.47695,0.0638 1.55821,-0.18047 3.31581,-0.37456 3.90591,-0.43135 0.5901,-0.0568 1.30938,-0.13334 1.59852,-0.17012 0.59147,-0.0752 2.53601,-0.28554 3.04967,-0.32979 0.47079,-0.0406 0.54545,-0.68795 0.093,-0.80627 -0.40375,-0.10564 -0.44096,-0.33872 -0.10727,-0.67236 0.26456,-0.26459 3.66596,-0.67496 4.27483,-0.51574 0.41778,0.10926 0.49529,0.64445 0.11442,0.79059 -0.26285,0.10084 -0.34555,0.53777 -0.12622,0.66629 0.2479,0.14526 2.48696,-0.25173 2.74757,-0.48716 0.32165,-0.29055 0.85763,-0.31135 1.12535,-0.0437 0.14954,0.14955 0.428,0.14625 1.16941,-0.0138 6.10116,-1.77559 9.15073,-1.46486 9.15073,-1.46486 z"
         id="path19555-4" />
      <path
         d="m 869.16057,242.44891 c -0.20713,0.0403 -0.40499,0.0996 -0.43955,0.13252 -0.11695,0.11083 0.1823,0.41261 0.46387,0.4678 0.15368,0.0306 0.4405,0.13952 0.63766,0.24317 0.40193,0.2115 0.39449,0.11476 0.098,1.29781 -0.0938,0.37429 -0.2444,0.88276 -0.33467,1.13012 -0.22576,0.61852 -0.215,1.04608 0.0324,1.27813 0.22935,0.21545 1.16012,0.61072 1.43933,0.61134 0.10619,0 0.31866,0.077 0.47226,0.17039 0.24413,0.14888 0.26722,0.19253 0.18404,0.34788 l -0.0951,0.17756 -0.2122,-0.19925 c -0.17984,-0.16891 -0.30519,-0.2004 -0.82188,-0.20661 -0.40464,-0.009 -0.72417,0.0419 -0.94994,0.13995 -0.6144,0.26591 -0.97486,0.31718 -1.59661,0.22681 -0.39922,-0.0577 -0.40823,-0.0543 -0.54354,0.22953 -0.0761,0.15876 -0.11398,0.35023 -0.0848,0.42581 0.0734,0.18929 0.39222,0.29276 0.66408,0.21483 0.18185,-0.0516 0.28279,-0.0158 0.51109,0.17835 0.34455,0.29487 0.46938,0.30615 0.72531,0.0656 0.16174,-0.15194 0.23032,-0.16839 0.38812,-0.0928 0.1054,0.0499 0.24911,0.10986 0.31917,0.13173 0.14364,0.0446 0.48809,1.03671 0.53332,1.53495 0.0298,0.31699 0.0228,0.32495 -0.20836,0.27877 -0.13094,-0.0263 -0.29459,-0.0254 -0.3637,0 -0.17048,0.0656 -0.55649,0.7715 -0.55649,1.01799 0,0.12 -0.0761,0.23827 -0.19139,0.29836 -0.10514,0.0542 -0.20232,0.10847 -0.21561,0.1194 -0.0734,0.0603 0.35636,0.98046 0.53812,1.15112 0.31682,0.29757 1.17561,0.34429 1.50818,0.0822 0.28446,-0.22444 0.49377,-0.68647 0.52054,-1.1484 0.0149,-0.26294 0.0568,-0.3456 0.1843,-0.36432 0.61133,-0.0902 1.06802,-0.30834 1.4005,-0.66925 0.1941,-0.21045 0.36396,-0.37026 0.37735,-0.35495 0.0131,0.014 -0.0289,0.32793 -0.0915,0.6946 -0.17302,0.99534 -0.009,1.19268 0.6486,0.77779 0.38295,-0.24167 0.38872,-0.26687 0.20521,-0.88485 -0.0734,-0.24702 -0.11162,-0.47094 -0.0848,-0.49763 0.028,-0.0271 -0.014,-0.11852 -0.0924,-0.20415 -0.12806,-0.14153 -0.12876,-0.16935 -0.009,-0.30467 0.0734,-0.0822 0.14608,-0.24351 0.162,-0.35924 0.0158,-0.11572 0.11485,-0.25305 0.21973,-0.30528 0.34315,-0.17021 0.54381,-0.40927 0.7951,-0.94678 0.27694,-0.59218 0.32452,-1.19399 0.12491,-1.57676 -0.0895,-0.17065 -0.10024,-0.30667 -0.042,-0.50961 0.14818,-0.51686 0.0857,-0.59261 -0.7072,-0.86045 -0.0822,-0.028 -0.14879,-0.1285 -0.14879,-0.2241 0,-0.0956 -0.0359,-0.24037 -0.0796,-0.32164 -0.16785,-0.31445 -0.28419,-0.72915 -0.19077,-0.68008 0.63731,0.33441 1.25101,0.56882 1.59827,0.61064 0.3896,0.0473 0.44908,0.0324 0.56165,-0.14048 0.13418,-0.20565 0.21028,-0.52562 0.28997,-1.21979 0.0822,-0.71525 -0.41602,-1.49095 -0.70432,-1.09671 -0.0638,0.0866 -0.1152,0.27825 -0.1152,0.4259 0,0.15744 -0.0682,0.32976 -0.16497,0.41749 -0.15832,0.14329 -0.18868,0.13821 -0.74421,-0.12254 -0.31848,-0.1494 -0.66836,-0.35417 -0.77735,-0.45494 -0.16322,-0.15107 -0.32478,-0.18859 -0.91609,-0.21335 -0.48222,-0.0201 -0.75934,0 -0.84374,0.0735 -0.0954,0.0796 -0.12587,0.31087 -0.12701,0.9656 0,0.47366 -0.0298,0.90323 -0.0638,0.95458 -0.0822,0.12184 -0.79861,0.21631 -0.94687,0.12464 -0.0955,-0.0594 -0.097,-0.16366 -0.009,-0.61229 0.17056,-0.86965 0.31297,-2.27697 0.24204,-2.39156 -0.0778,-0.12525 -1.77838,-0.1508 -2.37371,-0.0359 z"
         style="fill:#000000;stroke-width:0.0225015"
         id="path87588-9-8-0" />
      <path
         style="fill:#000000;stroke-width:0.060365"
         d="m 881.7721,241.56968 c -0.10056,0.0486 -0.13575,0.11766 -0.13575,0.26648 0,0.17964 0.0313,0.2168 0.29057,0.34827 0.33923,0.17184 0.45228,0.28999 0.42177,0.44046 -0.0239,0.11617 -0.0296,0.11658 -0.71505,0.0445 -0.33291,-0.0346 -0.43347,-0.0222 -0.63802,0.0826 -0.34031,0.17372 -0.41948,0.28184 -0.33759,0.46141 0.0525,0.11314 0.14108,0.15868 0.41635,0.21188 0.19289,0.037 0.40739,0.0797 0.47671,0.0943 0.19576,0.0412 0.42975,0.25225 0.47367,0.4277 0.0222,0.0874 0.0296,0.16904 0.0181,0.18122 -0.0321,0.0321 -0.91831,0.18852 -1.34174,0.23654 -0.19913,0.023 -0.43904,0.0814 -0.53302,0.12957 l -0.17086,0.0885 0.0346,1.76162 c 0.0453,2.29588 0.089,3.4296 0.16205,4.19711 0.046,0.49118 0.0428,0.64452 -0.0181,0.71835 -0.0558,0.0666 -0.0773,0.33546 -0.0781,0.92694 0,0.50597 -0.0256,0.85803 -0.0641,0.897 -0.0435,0.0436 -0.16065,0.0461 -0.37007,0.008 -0.3574,-0.0674 -0.64427,-0.008 -1.03522,0.21879 -0.30692,0.17735 -0.43312,0.42598 -0.43,0.84726 0,0.31976 0.12958,0.97668 0.21475,1.10914 0.0296,0.046 0.0551,0.2182 0.0551,0.381 0,0.28202 0.0107,0.30265 0.24147,0.43502 0.13287,0.0764 0.31975,0.14027 0.41553,0.14159 0.0957,0 0.27527,0.0329 0.39878,0.0698 0.45408,0.13615 0.78386,-0.17817 0.78502,-0.74771 0,-0.11847 0.0436,-0.18688 0.14741,-0.23432 0.28802,-0.13113 0.49578,0.0909 0.28342,0.30298 -0.0674,0.0674 -0.14002,0.22553 -0.16231,0.35181 -0.0575,0.32584 -0.21261,0.79917 -0.27543,0.8379 -0.0823,0.0509 -0.0624,0.24427 0.0321,0.32254 0.046,0.0387 0.10261,0.14216 0.12472,0.23014 0.15869,0.6325 1.04896,0.95735 1.6688,0.60882 0.24147,-0.13566 0.47604,-0.5095 0.47604,-0.75855 0,-0.0698 0.0296,-0.2044 0.065,-0.29788 0.0592,-0.15326 0.0461,-0.18515 -0.1207,-0.32525 -0.10211,-0.0854 -0.18556,-0.18138 -0.18556,-0.2132 0,-0.032 0.12194,-0.16567 0.27115,-0.29738 0.14907,-0.13179 0.27133,-0.27026 0.27157,-0.30783 0,-0.037 0.0966,-0.14167 0.21419,-0.23128 0.11757,-0.0895 0.27896,-0.26269 0.3588,-0.38454 0.15227,-0.23244 0.51354,-1.58552 0.51387,-1.92483 0,-0.21221 -0.234,-0.97898 -0.39317,-1.28657 -0.0715,-0.13878 -0.0822,-0.21138 -0.0346,-0.25857 0.0362,-0.0362 0.0657,-0.13994 0.0657,-0.23096 0,-0.091 0.0272,-0.18228 0.06,-0.20275 0.0329,-0.0214 0.06,-0.10729 0.06,-0.19272 0,-0.0854 0.0272,-0.25373 0.0584,-0.37369 0.24765,-0.92709 0.59864,-2.78105 0.69245,-3.65923 0.0222,-0.19922 0.094,-0.77269 0.16124,-1.27465 0.11929,-0.88656 0.11962,-0.91904 0.0123,-1.14686 -0.0724,-0.15548 -0.18615,-0.27166 -0.33627,-0.34508 l -0.22635,-0.11058 -0.008,-0.64395 c -0.008,-0.35419 0,-0.67115 0.008,-0.70436 0.008,-0.0329 0.0272,-0.21056 0.0444,-0.39424 0.028,-0.29895 0.014,-0.35436 -0.13204,-0.52818 -0.129,-0.15326 -0.21023,-0.19444 -0.38454,-0.19502 -0.12168,0 -0.3704,-0.0403 -0.55309,-0.0899 -0.38379,-0.10303 -1.1148,-0.1124 -1.31296,-0.0173 z"
         id="path89379-7-4"
         sodipodi:nodetypes="csssssssssssscssssssssssscscsssssssssssscsscsssssssssscscsscscc" />
      <path
         d="m 891.90341,241.3245 c -0.0959,0.0149 -0.23582,0.10593 -0.3107,0.20049 -0.14459,0.18255 -0.1445,0.17127 -0.021,1.42666 0.028,0.28629 0.0193,0.43744 -0.0306,0.46753 -0.0464,0.0289 -0.0717,0.29145 -0.0717,0.73222 0,0.50567 -0.0254,0.72067 -0.094,0.8119 -0.0621,0.0813 -0.0959,0.28892 -0.0995,0.60399 -0.009,0.40054 -0.0891,1.06899 -0.12107,0.95957 -0.009,-0.0166 -0.0263,-0.42057 -0.0463,-0.89562 -0.028,-0.66461 -0.0114,-0.9963 0.0717,-1.43943 0.24973,-1.3293 0.2067,-1.51369 -0.34796,-1.48963 -0.24754,0.0105 -0.34787,-0.0236 -0.59979,-0.20434 -0.24265,-0.17433 -0.37814,-0.22278 -0.68437,-0.24492 -0.66855,-0.0489 -0.86946,0.23617 -0.42301,0.59883 0.11012,0.0896 0.38111,0.3086 0.60215,0.4867 0.3183,0.25672 0.38661,0.34192 0.32941,0.41093 -0.0394,0.0481 -0.0839,0.3254 -0.0981,0.61668 -0.0385,0.78452 -0.0726,0.96603 -0.24912,1.31705 -0.0879,0.17529 -0.16007,0.3602 -0.16007,0.41111 0,0.0508 -0.0586,0.32006 -0.13139,0.59839 -0.11799,0.45459 -0.12368,0.55693 -0.0551,1.00592 0.0907,0.59682 0.0289,1.88736 -0.10654,2.21022 -0.11931,0.28577 -0.11284,0.47489 0.0324,0.93647 l 0.12035,0.38382 -0.13742,0.0412 c -0.0752,0.0236 -0.25252,0.0446 -0.39353,0.0481 -0.34813,0.009 -0.86596,0.34202 -1.07983,0.69514 -0.26941,0.44444 -0.2709,0.53952 -0.0131,0.81208 0.13479,0.14284 0.30465,0.44286 0.41959,0.74097 0.33257,0.86221 0.63872,1.4515 0.81384,1.56626 0.0918,0.0603 0.39965,0.18754 0.68402,0.28315 0.48241,0.16199 0.52001,0.18771 0.55972,0.38198 0.0533,0.2618 -0.18753,0.7233 -0.40551,0.77604 -0.1222,0.0298 -0.14503,0.0761 -0.14126,0.28787 0.0114,0.69951 0.21649,1.10537 0.64615,1.28478 0.54397,0.22742 1.28845,0.0166 1.50546,-0.42607 0.39073,-0.79695 0.43902,-1.02193 0.21929,-1.02193 -0.0568,0 -0.12132,-0.12447 -0.17179,-0.33589 -0.0438,-0.18474 -0.11126,-0.38574 -0.14905,-0.44672 -0.10864,-0.17512 0.0673,-0.29398 0.63661,-0.43079 0.73607,-0.17695 0.89029,-0.27195 1.07467,-0.66102 0.0866,-0.18299 0.17635,-0.46946 0.19909,-0.63661 0.0228,-0.16716 0.0612,-0.30336 0.0857,-0.30274 0.0245,0 0.3176,0.0876 0.65183,0.19304 0.74709,0.23601 1.27944,0.31184 1.27944,0.18238 0,-0.0914 -1.085,-0.79799 -1.45543,-0.94775 -0.25639,-0.10356 -0.25927,-0.17319 -0.0184,-0.45476 0.15903,-0.18605 0.18964,-0.27799 0.19165,-0.57346 0,-0.39013 -0.14441,-0.70397 -0.39362,-0.83981 -0.17188,-0.0938 -0.89308,-0.0891 -1.07231,0.009 -0.1626,0.0875 -0.23958,-0.0324 -0.11502,-0.1787 0.0983,-0.11511 0.29818,-0.73502 0.35163,-1.09077 0.0175,-0.11826 0,-0.31979 -0.0376,-0.44776 -0.0385,-0.12798 -0.1005,-0.75086 -0.13733,-1.38415 -0.0368,-0.63338 -0.0987,-1.45386 -0.13768,-1.82342 -0.0385,-0.36931 -0.0805,-0.84436 -0.0922,-1.05552 -0.0307,-0.55159 -0.14591,-1.60265 -0.22156,-2.02977 -0.0499,-0.28261 -0.0411,-0.49901 0.0359,-0.94625 0.10242,-0.59071 0.0813,-0.96552 -0.0612,-1.08369 -0.10007,-0.0831 -0.398,-0.12456 -0.6256,-0.0874 z m -2.54436,11.32482 c 0,0.12866 -0.0184,0.15421 -0.0726,0.10024 -0.0394,-0.0394 -0.0551,-0.11757 -0.0341,-0.17276 0.0594,-0.15255 0.10646,-0.12001 0.10646,0.0726 z"
         style="fill:#000000;stroke-width:0.0169266"
         id="path89424-2-6" />
      <path
         d="m 899.58305,241.8196 c -0.37289,0.21143 -0.31577,0.405 0.28708,0.97391 0.42896,0.40482 0.50532,0.50672 0.42231,0.56349 -0.0551,0.0385 -0.14704,0.0508 -0.20284,0.0263 -0.0551,-0.0236 -0.17722,-0.0455 -0.27011,-0.0499 -0.24186,-0.01 -0.42529,0.36388 -0.37019,0.75338 0.0228,0.15798 0.0245,0.28717 0.01,0.28717 -0.0201,0 -0.30316,-0.13567 -0.629,-0.30143 -0.32592,-0.16593 -0.75951,-0.37866 -0.96393,-0.47286 -0.62079,-0.28639 -0.68105,-0.35724 -0.72365,-0.85136 -0.021,-0.23915 -0.0673,-0.47287 -0.10436,-0.51932 -0.0822,-0.10426 -0.48353,-0.11039 -0.6702,-0.01 -0.1285,0.0691 -0.13479,0.11336 -0.0906,0.63949 0.0463,0.56166 0.0446,0.56752 -0.17127,0.86939 -0.21614,0.30098 -0.21763,0.30763 -0.13882,0.69478 0.0499,0.2429 0.0568,0.46762 0.0219,0.59349 -0.0333,0.11589 -0.0324,0.31848 0,0.47295 0.0333,0.14871 0.0866,0.46789 0.11818,0.70931 0.14529,1.11439 0.29136,2.04053 0.40534,2.56728 0.0691,0.31568 0.14354,0.72618 0.16724,0.91188 0.0877,0.68753 0.28324,1.05509 0.63373,1.19032 0.11021,0.042 0.14573,0.0956 0.11608,0.17284 -0.0236,0.0621 -0.0778,0.31935 -0.12194,0.57346 -0.0638,0.3728 -0.1,0.45546 -0.18719,0.42782 -0.0594,-0.0193 -0.16208,0.01 -0.22813,0.0533 -0.11432,0.084 -0.11283,0.11004 0.0315,0.55763 0.0831,0.25839 0.19953,0.53628 0.25874,0.61737 0.31499,0.43158 1.1828,0.57801 1.62828,0.27475 0.35409,-0.24099 0.4776,-0.46107 0.5397,-0.96236 0.0524,-0.42415 0.0446,-0.46902 -0.0866,-0.57617 -0.13462,-0.1089 -0.13681,-0.12605 -0.035,-0.28061 0.0752,-0.1145 0.23871,-0.20075 0.53707,-0.28306 0.93857,-0.259 1.35169,-0.55395 1.6176,-1.15524 0.12561,-0.28401 0.15124,-0.48117 0.16751,-1.28354 0.0105,-0.52133 0.0219,-0.97067 0.0245,-0.99849 0,-0.028 0.11363,-0.17066 0.24658,-0.31795 0.23399,-0.259 0.2402,-0.27939 0.19471,-0.6437 -0.0271,-0.20688 -0.14983,-0.59061 -0.27553,-0.85285 -0.12552,-0.26215 -0.22821,-0.55938 -0.22821,-0.66041 0,-0.10094 -0.0341,-0.2178 -0.0761,-0.25935 -0.0551,-0.0551 -0.0559,-0.24938 -1.8e-4,-0.73983 0.0412,-0.3652 0.0577,-0.80072 0.0359,-0.96787 -0.0219,-0.16716 -0.0438,-0.52684 -0.0507,-0.79914 -0.0114,-0.55657 -0.0324,-0.583 -0.61912,-0.86282 -0.36974,-0.17607 -0.97732,-0.21675 -1.21603,-0.0813 z m -1.42718,5.71984 c 0.10767,0.11895 0.10278,0.13759 -0.0924,0.34699 -0.11363,0.12159 -0.21789,0.20949 -0.23137,0.19507 -0.014,-0.014 -0.0586,-0.14634 -0.0978,-0.29338 -0.0551,-0.20354 -0.0533,-0.27973 0.01,-0.31988 0.13847,-0.0877 0.29233,-0.0621 0.41217,0.0717 z"
         style="fill:#000000;stroke-width:0.0178743"
         id="path89441-2-8" />
      <path
         d="m 859.13992,247.42498 c -0.33186,0.035 -0.44698,0.17687 -0.28716,0.35356 0.0664,0.0726 0.22777,0.16313 0.3595,0.20048 0.13173,0.0385 0.33642,0.15159 0.45485,0.25358 l 0.21536,0.18544 -0.0656,0.76345 c -0.0879,1.02813 -0.18666,1.70262 -0.30326,2.06642 -0.17398,0.54381 -0.14582,1.04948 0.0866,1.53599 0.11248,0.23643 0.24124,0.54984 0.28611,0.69662 0.0455,0.14678 0.15439,0.41435 0.24344,0.59489 0.11205,0.2269 0.14913,0.3861 0.12035,0.51704 -0.0411,0.18509 -0.0507,0.18886 -0.50068,0.18886 -0.39117,0 -0.47007,-0.0201 -0.53078,-0.1334 -0.10714,-0.20005 -0.28191,-0.15657 -0.45406,0.1131 -0.21631,0.33869 -0.25244,0.58396 -0.11678,0.79109 0.0921,0.14065 0.0972,0.19078 0.028,0.27397 -0.0464,0.0559 -0.0914,0.3148 -0.1,0.57914 -0.009,0.26259 -0.0778,0.74115 -0.15343,1.06373 -0.17083,0.72655 -0.17101,0.82127 0,1.13538 0.1152,0.21501 0.12465,0.29128 0.0647,0.51679 -0.0394,0.14555 -0.0629,0.31576 -0.0516,0.37839 0.0122,0.0804 -0.0394,0.12509 -0.18072,0.1516 -0.18614,0.035 -0.19926,0.0568 -0.18833,0.31034 0.0315,0.73309 0.33686,1.20728 0.8965,1.39316 0.56419,0.18745 1.1366,0.0158 1.4766,-0.44375 0.13689,-0.18483 0.34324,-1.0277 0.28734,-1.17351 -0.0184,-0.0472 -0.0105,-0.0857 0.0149,-0.0875 0.29443,0 1.24165,-0.15308 1.49208,-0.23618 0.58422,-0.1941 1.12409,-0.7589 1.12409,-1.17604 0,-0.28464 0.23531,-0.83046 0.44218,-1.02578 0.11869,-0.11179 0.23669,-0.29207 0.26214,-0.40009 0.0263,-0.10812 0.13646,-0.35715 0.24659,-0.55335 0.18754,-0.33379 0.1976,-0.38723 0.15736,-0.83386 -0.035,-0.38531 -0.0166,-0.55011 0.0909,-0.85713 0.14634,-0.41584 0.17984,-0.80342 0.10628,-1.23168 -0.0385,-0.23111 -0.021,-0.3205 0.11616,-0.53367 l 0.16375,-0.25611 -0.0228,-1.66763 c -0.0122,-0.91732 -0.0219,-1.88851 -0.021,-2.15819 0,-0.5432 -0.077,-0.80438 -0.28244,-0.9327 -0.19611,-0.12246 -0.72803,-0.16909 -0.94942,-0.0831 -0.17878,0.07 -0.18658,0.0888 -0.14161,0.35636 0.0271,0.15552 0.11791,0.41802 0.20389,0.58309 0.14643,0.2806 0.15552,0.3637 0.13882,1.2727 -0.0158,0.88722 -0.0306,0.98921 -0.16479,1.15978 -0.0805,0.10296 -0.14722,0.21299 -0.14722,0.24448 0,0.0315 -0.13103,0.33537 -0.29084,0.67554 -0.15999,0.34009 -0.33991,0.78698 -0.39992,0.99314 -0.0603,0.20618 -0.16427,0.44323 -0.23206,0.52694 l -0.12324,0.15219 -0.19839,-0.29434 c -0.10908,-0.16182 -0.28358,-0.44435 -0.38785,-0.62786 -0.10418,-0.18335 -0.30283,-0.47751 -0.44164,-0.65359 -0.19733,-0.25069 -0.26224,-0.40246 -0.29916,-0.70047 -0.0263,-0.20914 -0.0822,-0.48546 -0.12674,-0.61379 -0.0542,-0.16032 -0.0647,-0.42195 -0.0298,-0.83386 0.0271,-0.3302 0.0699,-0.97993 0.094,-1.44371 0.042,-0.81112 0.0376,-0.84716 -0.0983,-0.9432 -0.111,-0.0778 -0.18404,-0.084 -0.33012,-0.0289 -0.1473,0.0551 -0.23819,0.0473 -0.42275,-0.0412 -0.22331,-0.10593 -0.54941,-0.12413 -1.12715,-0.063 z"
         style="fill:#000000;stroke-width:0.0176498"
         id="path89458-9-7" />
    </g>
  </g>
</svg>
