<?xml version="1.0" encoding="UTF-8" standalone="no"?>
<!-- Created with Inkscape (http://www.inkscape.org/) -->

<svg
   width="20.18714mm"
   height="5.7627707mm"
   viewBox="0 0 20.18714 5.7627707"
   version="1.1"
   id="svg5"
   sodipodi:docname="inkporter-svg-4cc3bnkp.svg"
   xmlns:inkscape="http://www.inkscape.org/namespaces/inkscape"
   xmlns:sodipodi="http://sodipodi.sourceforge.net/DTD/sodipodi-0.dtd"
   xmlns="http://www.w3.org/2000/svg"
   xmlns:svg="http://www.w3.org/2000/svg">
  <sodipodi:namedview
     id="namedview7"
     pagecolor="#ffffff"
     bordercolor="#666666"
     borderopacity="1.0"
     inkscape:pageshadow="2"
     inkscape:pageopacity="0.0"
     inkscape:pagecheckerboard="0"
     inkscape:document-units="mm"
     showgrid="false"
     inkscape:object-paths="true"
     inkscape:snap-smooth-nodes="true"
     inkscape:zoom="0.080065411"
     inkscape:cx="-149.87745"
     inkscape:cy="443.38747"
     inkscape:window-width="1920"
     inkscape:window-height="1017"
     inkscape:window-x="-8"
     inkscape:window-y="-8"
     inkscape:window-maximized="1"
     inkscape:current-layer="layer1" />
  <defs
     id="defs2" />
  <g
     inkscape:label="Layer 1"
     inkscape:groupmode="layer"
     id="layer1"
     transform="translate(30.95766,199.53901)">
    <path
       d="m -26.39286,-193.84009 c -0.0962,-0.0376 -0.21971,-0.10366 -0.27457,-0.14682 -0.0549,-0.0431 -0.11498,-0.0691 -0.13357,-0.0576 -0.0186,0.0115 -0.0292,-0.001 -0.0236,-0.0285 0.006,-0.0272 -0.012,-0.0447 -0.0391,-0.0391 -0.0272,0.006 -0.0399,-0.005 -0.0284,-0.0237 0.0116,-0.0187 -0.007,-0.0568 -0.0405,-0.0848 -0.11418,-0.0943 -0.23573,-0.43315 -0.24531,-0.68387 -0.008,-0.20302 -0.0203,-0.24178 -0.0837,-0.25882 -0.0431,-0.0116 -0.0922,0.003 -0.11645,0.036 -0.0372,0.0498 -0.0664,0.0493 -0.26089,-0.004 -0.12043,-0.0332 -0.25286,-0.0683 -0.29431,-0.078 -0.0414,-0.01 -0.24269,-0.15213 -0.44722,-0.3165 -0.20453,-0.16438 -0.53958,-0.42597 -0.74456,-0.58132 -0.20498,-0.15536 -0.47533,-0.36764 -0.60079,-0.47174 -0.12546,-0.10411 -0.36615,-0.2983 -0.53487,-0.43153 -0.37005,-0.29222 -0.56006,-0.49539 -0.56006,-0.59886 0,-0.0876 -0.0659,-0.22645 -0.1267,-0.26706 -0.0236,-0.0157 -0.005,-0.0276 0.0429,-0.0279 0.0729,-4.8e-4 0.0839,-0.0201 0.0839,-0.14964 0,-0.12423 0.0124,-0.14908 0.0745,-0.14908 0.0622,0 0.0753,0.0263 0.0789,0.1584 0.002,0.0871 0.0123,0.12748 0.022,0.0897 0.0123,-0.0479 0.0407,-0.0627 0.0937,-0.0488 0.0418,0.0109 0.21216,0.004 0.37861,-0.0142 0.16644,-0.0188 0.39906,-0.0371 0.51692,-0.0408 0.18106,-0.006 0.21429,-0.0174 0.21429,-0.0755 0,-0.0378 0.0168,-0.0688 0.0373,-0.0688 0.0598,0 0.043,-0.0806 -0.0279,-0.13446 -0.0604,-0.0459 -0.0591,-0.0496 0.0179,-0.0507 0.0581,-9.7e-4 0.0902,0.0269 0.10652,0.092 0.018,0.0719 0.0458,0.092 0.12184,0.0881 0.0878,-0.004 0.0894,-0.007 0.0146,-0.0212 -0.0461,-0.009 -0.0838,-0.0337 -0.0838,-0.0552 0,-0.0232 0.0339,-0.0286 0.0838,-0.0134 0.0461,0.0141 0.10221,0.0273 0.12464,0.0292 0.0225,0.002 0.0366,0.0416 0.0315,0.0882 -0.008,0.0723 0.002,0.0803 0.071,0.055 0.0442,-0.0163 0.10548,-0.0209 0.13623,-0.0103 0.048,0.0166 0.0486,0.0105 0.005,-0.0426 -0.0281,-0.0341 -0.0366,-0.0637 -0.0187,-0.0659 0.28826,-0.035 0.79671,-0.0444 0.79713,-0.0147 2.9e-4,0.0205 0.0168,0.0121 0.0366,-0.0187 0.0241,-0.0373 0.0363,-0.0404 0.0367,-0.009 2.9e-4,0.0256 0.0186,0.0466 0.0407,0.0466 0.0228,0 0.0349,-0.052 0.0279,-0.12112 -0.009,-0.0882 0.003,-0.12112 0.0438,-0.12112 0.0377,0 0.0528,0.0312 0.0462,0.0958 -0.01,0.0942 -0.006,0.0954 0.17587,0.0721 0.10206,-0.0131 0.21961,-0.0213 0.26123,-0.0182 0.0416,0.003 0.0685,-0.001 0.0598,-0.0104 -0.009,-0.009 0.0374,-0.0627 0.1025,-0.11989 0.13076,-0.1148 0.26173,-0.14103 0.77063,-0.15435 0.17423,-0.004 0.33062,-0.0156 0.34755,-0.0245 0.0169,-0.009 0.13691,-0.0233 0.26665,-0.032 0.22062,-0.0148 0.24382,-0.009 0.35871,0.0964 0.10096,0.0922 0.14639,0.10907 0.25511,0.0947 0.37396,-0.0496 0.61903,-0.0485 0.68911,0.003 0.0398,0.0293 0.0891,0.0532 0.10962,0.0532 0.0205,0 0.009,-0.0209 -0.0259,-0.0466 -0.0584,-0.0431 -0.0546,-0.0648 0.0505,-0.2864 0.096,-0.20266 0.10733,-0.25502 0.073,-0.338 -0.0692,-0.16706 -0.005,-0.50163 0.0721,-0.37665 0.0378,0.0612 0.006,0.19728 -0.039,0.1692 -0.043,-0.0265 -0.0419,0.0302 0.002,0.14736 0.0316,0.0831 0.0601,0.095 0.25156,0.10491 0.17267,0.009 0.21604,0.0238 0.21642,0.0738 2.8e-4,0.0344 0.0148,0.0764 0.0323,0.0932 0.0176,0.0169 0.0222,-0.0506 0.0104,-0.15039 -0.0193,-0.16251 -0.0145,-0.17916 0.0468,-0.16312 0.0536,0.014 0.0641,0.001 0.0486,-0.0578 -0.0134,-0.0512 -0.006,-0.067 0.0234,-0.049 0.0237,0.0147 0.0432,0.0177 0.0432,0.007 0,-0.0109 -0.0513,-0.0464 -0.11409,-0.0789 -0.10923,-0.0565 -0.11696,-0.0554 -0.18192,0.027 -0.0373,0.0473 -0.10478,0.12791 -0.14992,0.17915 -0.0681,0.0773 -0.0776,0.0805 -0.0559,0.0186 0.0144,-0.041 0.0263,-0.0997 0.0265,-0.13044 1.4e-4,-0.0308 0.0421,-0.10084 0.0932,-0.15576 l 0.0929,-0.0998 0.17243,0.0812 c 0.0948,0.0447 0.31022,0.15974 0.47862,0.25571 0.1684,0.096 0.36901,0.18449 0.44581,0.19669 0.0768,0.0122 0.14872,0.0355 0.15982,0.0518 0.0111,0.0163 0.0496,0.0405 0.0854,0.0537 0.0489,0.0181 0.0652,0.0661 0.0652,0.19223 0,0.15035 0.0104,0.17076 0.0976,0.19267 0.0537,0.0135 0.35978,0.0134 0.68015,-1.4e-4 0.64255,-0.0273 1.22569,-0.0504 1.96144,-0.0779 1.69515,-0.0634 3.45431,-0.13085 3.93184,-0.15071 0.25622,-0.0107 0.58325,-0.0275 0.72674,-0.0375 0.23075,-0.016 0.87971,-0.042 2.77651,-0.11123 0.29721,-0.0108 0.74583,-0.0275 0.99693,-0.037 0.45559,-0.0172 0.45654,-0.0171 0.45654,0.0678 0,0.0468 -0.0194,0.10449 -0.0431,0.12822 -0.0327,0.0327 -0.0319,0.0567 0.003,0.099 0.0255,0.0307 0.0346,0.0749 0.0202,0.0981 -0.0144,0.0232 -0.0233,0.22904 -0.02,0.45732 0.004,0.30326 0.0207,0.43114 0.0602,0.47475 0.0311,0.0344 0.054,0.13425 0.054,0.23547 0,0.13866 -0.02,0.19583 -0.0949,0.27068 -0.0751,0.0751 -0.0858,0.10584 -0.0513,0.14738 0.0342,0.0412 0.0314,0.0525 -0.0129,0.0525 -0.0311,0 -0.0667,0.0265 -0.0791,0.0589 -0.0373,0.0972 -0.0259,0.10864 0.0321,0.032 0.052,-0.0688 0.0548,-0.0669 0.0553,0.0395 2.8e-4,0.0615 -0.0156,0.13696 -0.0355,0.16771 -0.0309,0.0478 -0.0362,0.0464 -0.0367,-0.009 -10e-4,-0.13961 -0.18738,-0.0606 -0.73344,0.3114 -0.3041,0.20713 -0.59911,0.42 -0.65559,0.47301 -0.0565,0.053 -0.12356,0.10003 -0.14907,0.10447 -0.0255,0.004 -0.22248,0.12435 -0.43771,0.26646 l -0.39132,0.2584 -0.33166,0.0231 c -0.28467,0.0198 -0.3454,0.0135 -0.42859,-0.0448 -0.0625,-0.0438 -0.15649,-0.0663 -0.26464,-0.0633 l -0.1677,0.004 -0.0189,0.31628 c -0.0272,0.4562 -0.19503,0.73561 -0.58161,0.96848 -0.20331,0.12248 -0.23597,0.13036 -0.53476,0.12903 -0.26419,-9.7e-4 -0.3467,-0.0168 -0.48593,-0.0918 -0.21255,-0.11458 -0.37687,-0.26116 -0.34697,-0.30954 0.0129,-0.0209 0.004,-0.0258 -0.0194,-0.0111 -0.025,0.0154 -0.0709,-0.0205 -0.11149,-0.0873 -0.0379,-0.0624 -0.0815,-0.10099 -0.0968,-0.0857 -0.0153,0.0153 -0.0235,0.011 -0.0183,-0.009 0.005,-0.0205 -0.0123,-0.14208 -0.039,-0.2702 -0.0469,-0.22472 -0.0928,-0.2759 -0.1744,-0.19427 -0.0256,0.0257 -0.0704,0.0266 -0.1332,0.003 -0.0922,-0.035 -0.096,-0.03 -0.15384,0.20429 -0.0684,0.27715 -0.2191,0.51547 -0.42263,0.66834 -0.0783,0.0588 -0.15077,0.11623 -0.16102,0.12756 -0.0384,0.0425 -0.178,0.0579 -0.52477,0.0579 -0.33495,0 -0.36841,-0.007 -0.54039,-0.11547 -0.10084,-0.0635 -0.17915,-0.13478 -0.17402,-0.15839 0.005,-0.0236 -0.009,-0.0387 -0.0306,-0.0336 -0.022,0.005 -0.0848,-0.0485 -0.13976,-0.11906 -0.0549,-0.0706 -0.0747,-0.11548 -0.044,-0.0997 0.0332,0.017 0.0296,0.007 -0.009,-0.0244 -0.0356,-0.0291 -0.0551,-0.0625 -0.0435,-0.0742 0.0116,-0.0116 -0.0138,-0.0561 -0.0565,-0.0988 -0.0722,-0.0722 -0.0951,-0.19162 -0.0847,-0.44101 0.004,-0.0886 0.0215,-0.0836 -0.3843,-0.10733 -0.20399,-0.0119 -1.80375,-0.01 -1.91933,0.003 -0.0563,0.006 -0.0915,0.0322 -0.0888,0.0662 0.003,0.0455 -0.0209,0.0506 -0.12838,0.0263 -0.073,-0.0165 -0.14389,-0.023 -0.15754,-0.0146 -0.0136,0.008 -0.12778,0.023 -0.25362,0.0324 -0.18431,0.0138 -0.2288,0.006 -0.2288,-0.0378 0,-0.0838 -1.68676,-0.0721 -1.96592,0.0136 -0.10761,0.033 -0.19566,0.0747 -0.19566,0.0927 0,0.018 -0.0153,0.0232 -0.034,0.0117 -0.0187,-0.0116 -0.0455,0.0504 -0.0597,0.13756 -0.0141,0.0872 -0.0779,0.26756 -0.14165,0.4008 -0.0638,0.13323 -0.11194,0.25606 -0.10709,0.27297 0.005,0.0169 -0.008,0.0202 -0.0291,0.007 -0.0208,-0.0129 -0.10228,0.0283 -0.18099,0.0916 -0.30752,0.24713 -0.69093,0.3185 -1.01995,0.18985 z"
       id="S-Amphibious" />
  </g>
</svg>
