<?xml version="1.0" encoding="UTF-8" standalone="no"?>
<!-- Created with Inkscape (http://www.inkscape.org/) -->

<svg
   width="25.698103mm"
   height="7.6242838mm"
   viewBox="0 0 25.698103 7.6242838"
   version="1.1"
   id="svg3360"
   sodipodi:docname="inkporter-svg-5mt91dqe.svg"
   xmlns:inkscape="http://www.inkscape.org/namespaces/inkscape"
   xmlns:sodipodi="http://sodipodi.sourceforge.net/DTD/sodipodi-0.dtd"
   xmlns="http://www.w3.org/2000/svg"
   xmlns:svg="http://www.w3.org/2000/svg">
  <sodipodi:namedview
     id="namedview3362"
     pagecolor="#ffffff"
     bordercolor="#666666"
     borderopacity="1.0"
     inkscape:pageshadow="2"
     inkscape:pageopacity="0.0"
     inkscape:pagecheckerboard="0"
     inkscape:document-units="mm"
     showgrid="false"
     inkscape:zoom="0.64052329"
     inkscape:cx="397.33138"
     inkscape:cy="561.25984"
     inkscape:window-width="1920"
     inkscape:window-height="1017"
     inkscape:window-x="-8"
     inkscape:window-y="-8"
     inkscape:window-maximized="1"
     inkscape:current-layer="layer1" />
  <defs
     id="defs3357" />
  <g
     inkscape:label="Layer 1"
     inkscape:groupmode="layer"
     id="layer1"
     transform="translate(-31.349835,-137.45907)">
    <g
       id="S-Cavalry"
       transform="matrix(0.73316679,0,0,0.73316679,-287.6639,198.80992)">
      <path
         style="fill:#000000;stroke-width:0.011584"
         d="m 443.11405,-73.317587 c 0.0688,-0.06034 0.13476,-0.210045 0.13476,-0.305516 0,-0.05487 -0.0214,-0.09801 -0.10229,-0.205831 l -0.0418,-0.05567 0.0182,-0.05637 c 0.0161,-0.05017 0.0164,-0.06827 0.002,-0.164424 -0.0342,-0.224692 -0.0124,-0.447481 0.0762,-0.779922 l 0.0618,-0.231679 5e-4,-0.191136 c 5e-4,-0.175566 -0.002,-0.196751 -0.027,-0.260054 -0.0483,-0.120129 -0.10855,-0.170236 -0.39947,-0.332044 -0.0503,-0.02794 -0.11399,-0.0707 -0.14164,-0.09501 -0.0609,-0.05354 -0.12953,-0.186052 -0.13927,-0.268988 -0.007,-0.05503 -0.003,-0.0675 0.074,-0.220095 0.10316,-0.206484 0.16177,-0.355795 0.18851,-0.480149 0.0326,-0.15172 0.0577,-0.371681 0.0577,-0.506278 v -0.12171 l 0.0378,0.03299 c 0.0705,0.06155 0.20388,0.217657 0.35965,0.421062 0.0854,0.111495 0.20647,0.257452 0.26906,0.32435 0.15182,0.162239 0.2229,0.273836 0.40121,0.629869 0.15795,0.315406 0.19948,0.389523 0.21822,0.389523 0.006,0 0.0114,-0.01564 0.0114,-0.03475 0,-0.01912 0.004,-0.03475 0.009,-0.03475 0.015,0 0.0756,0.06917 0.13615,0.155411 0.0309,0.04407 0.11053,0.137894 0.17688,0.208511 0.0663,0.07062 0.17604,0.193106 0.24377,0.272194 0.23673,0.276449 0.39828,0.44214 0.41489,0.42553 0.003,-0.0037 -0.0299,-0.09161 -0.0747,-0.195354 -0.22757,-0.527346 -0.39506,-0.94445 -0.38252,-0.952633 0.002,-0.0012 0.028,-0.01741 0.0583,-0.03609 0.07,-0.04325 0.0715,-0.06193 0.004,-0.05435 -0.0678,0.0076 -0.1209,-0.01158 -0.20361,-0.07377 -0.12188,-0.09161 -0.22996,-0.26337 -0.30309,-0.481658 -0.0337,-0.100555 -0.0344,-0.106134 -0.014,-0.117369 0.0271,-0.015 0.085,-0.0763 0.085,-0.08996 0,-0.0057 -0.0248,-0.01042 -0.0551,-0.01049 -0.12889,-2.85e-4 -0.25365,-0.05776 -0.3614,-0.166372 -0.0983,-0.0991 -0.15761,-0.191431 -0.3045,-0.474069 -0.0702,-0.135078 -0.15058,-0.281144 -0.17859,-0.324587 -0.15714,-0.243722 -0.39932,-0.389509 -0.70933,-0.427029 -0.0983,-0.01189 -0.1175,-0.01813 -0.1635,-0.05311 -0.0759,-0.05768 -0.26326,-0.145743 -0.42281,-0.198703 -0.19773,-0.06563 -0.61649,-0.170187 -0.75296,-0.187998 -0.16576,-0.02164 -0.59025,-0.01854 -0.76651,0.0056 -0.0775,0.01062 -0.14557,0.0193 -0.15117,0.0193 -0.006,0 -0.0166,-0.0178 -0.0245,-0.03955 -0.008,-0.02175 -0.035,-0.05824 -0.0603,-0.08109 -0.0382,-0.0345 -0.0547,-0.04153 -0.0973,-0.04153 -0.0283,0 -0.0647,0.0051 -0.081,0.01131 -0.0282,0.0107 -0.0297,0.0093 -0.0297,-0.02686 0,-0.06252 -0.032,-0.151239 -0.0663,-0.18394 -0.0345,-0.03278 -0.1272,-0.06197 -0.1653,-0.052 -0.0277,0.0072 -0.0273,0.01119 -0.006,-0.0505 0.0208,-0.05882 0.0222,-0.112074 0.0114,-0.422002 -0.009,-0.255805 -0.0106,-0.242603 0.073,-0.562521 0.0854,-0.326715 0.0856,-0.494791 8.4e-4,-0.746469 -0.0584,-0.17359 -0.17558,-0.416515 -0.24833,-0.5151 -0.0795,-0.107678 -0.0802,-0.141457 -0.004,-0.234937 0.0784,-0.09716 0.11878,-0.182633 0.12464,-0.263618 0.005,-0.06918 -0.0173,-0.13383 -0.0505,-0.14658 -0.01,-0.0037 -0.0169,-0.02194 -0.0171,-0.04285 -5.1e-4,-0.08181 -0.08,-0.190557 -0.17144,-0.234659 -0.0669,-0.0323 -0.17683,-0.03479 -0.27324,-0.0062 -0.0452,0.01339 -0.11319,0.03276 -0.15113,0.04302 -0.0821,0.02223 -0.14716,0.08022 -0.16828,0.150115 -0.0147,0.04854 -0.0367,0.285745 -0.0351,0.378998 4.3e-4,0.0302 -0.007,0.07034 -0.0168,0.0892 -0.0224,0.04324 -0.0226,0.119774 -5e-4,0.203884 0.01,0.03864 0.0142,0.08593 0.0101,0.115804 -0.006,0.04536 -0.003,0.05408 0.0284,0.08584 0.0291,0.02912 0.0447,0.03536 0.0884,0.03536 0.0598,0 0.0615,0.0039 0.0348,0.0802 -0.01,0.02818 -0.0245,0.09855 -0.0325,0.156384 -0.012,0.08598 -0.0222,0.116764 -0.0557,0.16886 -0.0225,0.03504 -0.0527,0.08717 -0.0671,0.11584 -0.0145,0.02867 -0.0274,0.05357 -0.0289,0.05535 -0.002,0.0018 -0.0178,-0.0027 -0.0362,-0.0099 -0.0184,-0.0072 -0.0901,-0.02284 -0.15944,-0.0347 -0.0693,-0.01185 -0.13823,-0.02957 -0.15317,-0.03937 -0.015,-0.0098 -0.0456,-0.04668 -0.0683,-0.08195 -0.0225,-0.03528 -0.059,-0.07474 -0.081,-0.08769 -0.0329,-0.01939 -0.039,-0.02902 -0.0349,-0.05453 0.003,-0.01704 0.0108,-0.140453 0.0178,-0.274249 0.0307,-0.583659 0.19315,-1.69716 0.32329,-2.216388 0.0385,-0.153586 0.07,-0.285531 0.07,-0.293208 0,-0.02577 -0.0554,0.03779 -0.0907,0.10403 -0.044,0.08252 -0.0865,0.208722 -0.12437,0.368946 -0.0604,0.25573 -0.21204,1.284281 -0.27844,1.888925 -0.0433,0.394604 -0.0437,0.396751 -0.0704,0.396751 -0.0148,0 -0.0268,0.0052 -0.0268,0.01158 0,0.0064 -0.008,0.01158 -0.017,0.01158 -0.0245,0 -0.0367,0.0305 -0.0463,0.115839 -0.0172,0.154052 -0.0169,0.201807 0.002,0.230311 0.0179,0.02756 0.0178,0.02758 -0.023,0.01991 -0.0352,-0.0066 -0.042,-0.0042 -0.0488,0.01721 -0.0117,0.03678 0.0248,0.06636 0.10177,0.0825 0.0621,0.01304 0.0674,0.01236 0.0935,-0.01217 0.0227,-0.02129 0.0327,-0.02386 0.0553,-0.01421 0.0152,0.0065 0.0657,0.01673 0.11219,0.02278 0.0619,0.0081 0.0993,0.02053 0.14003,0.04664 0.0305,0.01959 0.0636,0.03563 0.0736,0.03563 0.01,0 0.0455,0.01844 0.079,0.041 0.0335,0.02255 0.0692,0.04565 0.0794,0.05134 0.0159,0.0089 0.0141,0.01488 -0.0138,0.04406 -0.0177,0.01854 -0.0725,0.05636 -0.12163,0.08401 -0.11457,0.06448 -0.23415,0.14964 -0.31674,0.225537 -0.039,0.03588 -0.0925,0.07076 -0.13321,0.08694 -0.14398,0.05719 -0.20786,0.09665 -0.29793,0.184023 -0.05,0.0485 -0.11208,0.118272 -0.13797,0.15504 -0.0261,0.03711 -0.0578,0.06879 -0.0713,0.0712 -0.0133,0.0024 -0.0594,0.012 -0.10241,0.02134 -0.0487,0.01059 -0.0782,0.01261 -0.0782,0.0054 0,-0.01693 0.0659,-0.12219 0.11213,-0.17919 0.0219,-0.02704 0.0367,-0.05441 0.0327,-0.06082 -0.004,-0.0064 -0.0447,-0.01197 -0.0905,-0.01236 -0.0467,-4.26e-4 -0.11126,-0.0098 -0.14701,-0.02148 l -0.0637,-0.02077 0.0551,-0.02445 c 0.095,-0.0422 0.0677,-0.06247 -0.11119,-0.08241 -0.061,-0.0068 -0.11922,-0.01237 -0.12941,-0.01237 -0.033,0 -0.006,-0.02281 0.0768,-0.06437 0.0444,-0.02234 0.0777,-0.04533 0.0742,-0.05106 -0.008,-0.01374 -0.0951,-0.03072 -0.27247,-0.05335 -0.0796,-0.01016 -0.14626,-0.01995 -0.14805,-0.02173 -0.002,-0.0019 0.0282,-0.0094 0.0666,-0.01699 0.0384,-0.0076 0.0698,-0.01832 0.0698,-0.02392 0,-0.01395 -0.11711,-0.05687 -0.20851,-0.07641 -0.11242,-0.02404 -0.3354,-0.02094 -0.47743,0.0066 -0.0656,0.01272 -0.12175,0.02316 -0.12494,0.02319 -0.003,3.4e-5 -0.004,-0.05901 -0.002,-0.131208 0.003,-0.110481 5e-4,-0.133765 -0.0155,-0.147048 -0.0276,-0.02286 -0.0508,-0.0035 -0.0773,0.06436 -0.0253,0.06462 -0.0544,0.09987 -0.11156,0.135221 -0.0324,0.02001 -0.0408,0.02137 -0.0493,0.008 -0.0193,-0.03045 -0.0105,-0.04958 0.0473,-0.103032 0.0676,-0.06249 0.0777,-0.107343 0.029,-0.129521 -0.0539,-0.02455 -0.25382,0.03988 -0.34903,0.112499 -0.0476,0.03632 -0.24171,0.272893 -0.27101,0.33033 -0.0266,0.05203 -0.0441,0.160077 -0.0376,0.23114 0.006,0.06215 -0.052,0.23195 -0.0946,0.278015 -0.0658,0.07131 -0.0694,0.08491 -0.072,0.271208 -0.002,0.129061 -0.0102,0.218035 -0.0322,0.340167 -0.0165,0.09097 -0.0298,0.177269 -0.0298,0.191783 0,0.01452 -0.0129,0.04396 -0.0288,0.06545 -0.0158,0.02149 -0.0318,0.05768 -0.0354,0.08044 -0.003,0.02276 -0.0171,0.08464 -0.0299,0.137517 -0.0369,0.152447 -0.0409,0.27987 -0.0123,0.393168 0.0281,0.111052 0.0667,0.182299 0.12957,0.239107 0.0831,0.0751 0.18886,0.07827 0.24137,0.0072 0.0177,-0.02383 0.0357,-0.03484 0.0573,-0.03487 0.0713,-8.8e-5 0.16846,-0.102114 0.23927,-0.251224 0.0333,-0.07013 0.034,-0.07066 0.092,-0.07836 0.0469,-0.0062 0.0666,-0.0162 0.0994,-0.05047 l 0.0409,-0.04271 0.0811,0.0088 c 0.0446,0.0048 0.12961,0.01264 0.1889,0.01738 l 0.10781,0.0086 0.0632,0.167968 c 0.0873,0.232215 0.11501,0.284899 0.19172,0.365119 0.0367,0.03836 0.0731,0.08527 0.081,0.104257 0.008,0.01899 0.0181,0.120538 0.0226,0.225663 0.009,0.217 0.0282,0.295195 0.10542,0.439754 0.082,0.153608 0.20374,0.280924 0.34832,0.364528 l 0.0548,0.03167 -0.0419,0.06565 c -0.039,0.061 -0.079,0.111567 -0.31987,0.404365 -0.0495,0.06025 -0.1011,0.131187 -0.11453,0.157642 -0.0134,0.02645 -0.0396,0.07019 -0.0581,0.0972 -0.0784,0.114449 -0.0877,0.229039 -0.0327,0.400961 0.0192,0.05973 0.0479,0.167967 0.0639,0.240506 0.0351,0.159499 0.0567,0.227607 0.0986,0.311443 0.0175,0.03505 0.043,0.101291 0.0567,0.147223 0.0324,0.108866 0.0627,0.142679 0.17795,0.19811 0.0524,0.02521 0.11569,0.06374 0.14069,0.08562 l 0.0454,0.03979 -0.0357,0.05133 c -0.0425,0.06098 -0.11522,0.132551 -0.2372,0.233316 -0.12238,0.101087 -0.1733,0.16849 -0.17992,0.238155 -0.004,0.04386 -1.4e-4,0.06116 0.0199,0.08666 0.0282,0.03569 0.0564,0.03922 0.16178,0.02028 0.0354,-0.0064 0.0951,-0.01465 0.13261,-0.01841 0.0551,-0.0055 0.0741,-0.01314 0.0985,-0.03963 0.0181,-0.01957 0.0606,-0.04287 0.10555,-0.05779 0.14981,-0.04973 0.23002,-0.120873 0.30495,-0.270472 0.0596,-0.119041 0.0761,-0.211609 0.0883,-0.49737 0.01,-0.228616 0.0128,-0.251041 0.042,-0.321079 0.0173,-0.04141 0.0464,-0.153487 0.0646,-0.249055 0.0403,-0.211168 0.0473,-0.234121 0.13669,-0.445984 0.16301,-0.386236 0.30732,-0.64141 0.3851,-0.680942 0.0337,-0.01714 0.30578,-0.04159 0.32493,-0.0292 0.008,0.0051 0.0535,0.01012 0.10124,0.01113 0.0478,10e-4 0.24848,0.0055 0.44599,0.01008 0.29766,0.0068 0.38706,0.005 0.52253,-0.01074 0.35595,-0.04136 0.69394,-0.156786 0.95807,-0.327192 0.0434,-0.02801 0.0832,-0.05212 0.0885,-0.05357 0.005,-0.0014 0.0289,0.03384 0.0526,0.07844 0.0576,0.108514 0.16649,0.27406 0.30296,0.460503 0.30294,0.413909 0.41206,0.627597 0.46151,0.90379 0.0404,0.226056 0.0134,0.428324 -0.0867,0.649278 -0.0513,0.113081 -0.24209,0.341867 -0.45404,0.544395 -0.19514,0.186451 -0.2608,0.267221 -0.27166,0.334169 -0.008,0.05128 0.009,0.08454 0.057,0.110894 0.0298,0.01632 0.0651,0.02034 0.17632,0.02011 0.20685,-4.27e-4 0.22865,-0.01614 0.30066,-0.216785 0.0109,-0.0302 0.0326,-0.06505 0.0484,-0.07746 0.0265,-0.02083 0.0323,-0.02128 0.0758,-0.0059 0.13752,0.04852 0.21742,-0.0061 0.26441,-0.180509 0.0356,-0.132477 0.14774,-0.379144 0.34638,-0.762361 0.14214,-0.27425 0.16904,-0.355663 0.16904,-0.511655 0,-0.107883 -0.003,-0.129162 -0.0312,-0.18824 -0.0171,-0.03664 -0.0284,-0.06661 -0.025,-0.06661 0.0152,0 0.17092,0.09218 0.27839,0.164746 0.13844,0.09348 0.19122,0.148206 0.2363,0.245057 0.0713,0.153177 0.0709,0.298289 -0.002,0.719636 -0.0423,0.244706 -0.0485,0.408986 -0.0188,0.49811 0.0106,0.03185 0.0242,0.110718 0.0301,0.175249 0.006,0.06736 0.0192,0.133458 0.0304,0.155206 0.0339,0.06554 0.16841,0.253644 0.19441,0.271854 0.043,0.03008 0.10623,0.02215 0.15334,-0.01921 z m -5.75264,-1.462022 c -0.11855,-0.09306 -0.23708,-0.280989 -0.26645,-0.42242 -0.021,-0.101137 -0.009,-0.239546 0.0267,-0.30883 0.0533,-0.103248 0.11706,-0.155137 0.32448,-0.264069 0.11665,-0.06126 0.12452,-0.06377 0.1244,-0.03967 -9e-5,0.01414 -0.0183,0.143013 -0.0407,0.286365 -0.0223,0.143351 -0.0457,0.340417 -0.0521,0.437922 -0.007,0.0975 -0.0166,0.212187 -0.0229,0.254847 -0.006,0.04266 -0.0113,0.08408 -0.0114,0.09205 -2.8e-4,0.02335 -0.0139,0.0174 -0.0821,-0.03619 z m -1.23053,-3.452272 c -0.0369,-0.0087 -0.069,-0.01773 -0.0713,-0.02009 -0.003,-0.0024 -0.006,-0.01954 -0.008,-0.03817 -0.003,-0.03014 0.003,-0.0378 0.0565,-0.0695 0.0333,-0.0196 0.0916,-0.063 0.12954,-0.09644 0.038,-0.03345 0.0715,-0.06082 0.0743,-0.06082 0.0137,0 0.0703,0.272908 0.0601,0.289427 -0.0104,0.01692 -0.16218,0.01414 -0.24101,-0.0045 z m 2.1291,-0.803847 c -0.075,-0.02634 -0.0917,-0.02795 -0.22045,-0.02123 -0.12964,0.0067 -0.14291,0.0055 -0.19046,-0.01883 -0.0602,-0.03074 -0.094,-0.08776 -0.10209,-0.172246 -0.004,-0.04957 -0.003,-0.05657 0.0163,-0.05652 0.0119,3.6e-5 0.0306,0.01564 0.0414,0.03475 0.0181,0.03179 0.0253,0.03484 0.0869,0.03664 0.15349,0.0045 0.16762,0.0012 0.21773,-0.05232 0.06,-0.06398 0.12773,-0.09457 0.17205,-0.07772 0.0467,0.01777 0.10752,0.01501 0.14998,-0.0068 0.0598,-0.03075 0.32601,-0.20826 0.34296,-0.228672 0.0255,-0.03061 0.0303,-0.0221 0.0261,0.04565 -0.003,0.03716 0.004,0.09522 0.0157,0.137325 0.0225,0.08311 0.0233,0.08061 -0.0632,0.201376 -0.0512,0.07147 -0.0519,0.07189 -0.1087,0.07189 -0.0926,0 -0.14642,0.02243 -0.2104,0.08761 -0.0349,0.03556 -0.0649,0.05679 -0.0754,0.05334 -0.01,-0.0032 -0.0539,-0.01856 -0.0985,-0.03424 z"
         id="path6139"
         sodipodi:nodetypes="ssscssscsssssssscssssssssssssssssssscsssssssssssssssssssssssssssssssssssssssssssssssssssssssssssssssssssssssssssssssscsssssssssssssssssssssssssssssssscssscsscsssssscsssssssssscssscssssssssssssssssssssssscssssssssssssssssssssscssscsssssssssssssssssssssssssss" />
      <path
         style="fill:#000000;stroke-width:0.0338131"
         d="m 448.05492,-73.504041 c 0.0468,-0.05209 0.19048,-0.208838 0.31945,-0.348313 0.43127,-0.466374 0.64174,-1.007289 0.55299,-1.421158 -0.0202,-0.09427 -0.0369,-0.273353 -0.037,-0.397967 -10e-5,-0.124615 -0.0165,-0.285299 -0.0364,-0.357079 -0.041,-0.147599 -0.0109,-0.146218 -0.47059,-0.02141 -0.13948,0.03785 -0.39814,0.0861 -0.57481,0.107239 -0.30226,0.03614 -0.32687,0.04511 -0.41668,0.151459 -0.0524,0.06216 -0.11599,0.113022 -0.1411,0.113022 -0.0257,0 10e-4,-0.04806 0.0617,-0.109893 l 0.10723,-0.109893 -0.19826,-0.01022 c -0.10904,-0.0057 -0.20548,-0.0029 -0.21431,0.0059 -0.009,0.0088 0.0185,0.06271 0.0606,0.119728 0.10016,0.135426 0.0567,0.175779 -0.0645,0.05978 -0.052,-0.04979 -0.11356,-0.09052 -0.13689,-0.09052 -0.0233,0 -0.0321,-0.01672 -0.0195,-0.03718 0.016,-0.02585 7e-4,-0.02539 -0.0494,0.0016 -0.0398,0.02133 -0.0883,0.02896 -0.10766,0.01696 -0.0536,-0.03316 -0.15919,0.0795 -0.3023,0.322774 -0.0711,0.120993 -0.21402,0.318889 -0.31743,0.43977 -0.28381,0.331762 -0.25842,0.377825 0.23025,0.41774 0.18221,0.0149 0.28203,0.0094 0.31421,-0.0173 0.0358,-0.02962 0.0567,-0.02962 0.0862,8e-6 0.0682,0.0682 0.15127,0.04252 0.19368,-0.05987 0.0225,-0.05446 0.062,-0.107075 0.0877,-0.116922 0.0513,-0.01967 0.24246,0.03634 0.3131,0.09177 0.0621,0.04873 0.18137,0.289441 0.1603,0.323542 -0.01,0.01539 -0.15845,0.03572 -0.33096,0.04515 -0.20435,0.01116 -0.35817,0.03871 -0.44142,0.07901 -0.11063,0.05355 -0.14692,0.05636 -0.2705,0.02096 -0.24587,-0.07044 -0.54343,-0.141001 -0.67509,-0.160077 -0.0978,-0.01415 -0.14591,-0.04677 -0.21134,-0.143049 -0.10853,-0.159666 -0.10657,-0.236088 0.0116,-0.473455 0.11112,-0.222994 0.28874,-0.681906 0.27079,-0.699624 -0.0116,-0.01154 -0.18169,0.02477 -0.62634,0.133827 -0.11463,0.0281 -0.30637,0.05111 -0.42607,0.05111 -0.28606,0 -0.4248,0.04962 -0.45301,0.161996 -0.0396,0.157675 0.14602,0.683332 0.24125,0.683332 0.024,0 0.0521,0.03199 0.0624,0.07112 0.0172,0.06554 0.0242,0.06713 0.0911,0.02034 0.0918,-0.06426 0.2868,-0.01797 0.37552,0.08917 0.069,0.08323 0.12079,0.35097 0.0763,0.394332 -0.0385,0.03764 -0.29539,-0.03187 -0.65512,-0.177302 -0.22432,-0.09068 -0.29254,-0.134089 -0.31074,-0.197756 -0.0128,-0.04486 -0.0567,-0.203299 -0.0974,-0.352078 -0.0408,-0.148778 -0.0962,-0.314196 -0.12337,-0.367596 -0.0942,-0.185693 0.007,-0.496221 0.18807,-0.58203 0.18435,-0.08693 0.55072,-0.318064 0.65373,-0.412408 0.0798,-0.07313 0.086,-0.09333 0.0523,-0.171929 -0.021,-0.04898 -0.0645,-0.128184 -0.0969,-0.175995 -0.0323,-0.04781 -0.077,-0.159089 -0.0992,-0.247289 -0.0353,-0.140316 -0.0309,-0.196228 0.0354,-0.447223 l 0.0758,-0.286854 -0.10266,-0.3619 c -0.0564,-0.199046 -0.11332,-0.435878 -0.12636,-0.526289 l -0.0237,-0.164384 -0.15621,0.01975 c -0.0859,0.01088 -0.30076,0.02984 -0.47743,0.0421 -0.17668,0.01229 -0.33644,0.03348 -0.35504,0.04709 -0.0601,0.04404 -0.23438,0.06222 -0.29345,0.03062 -0.0359,-0.01921 -0.0654,-0.01801 -0.0784,0.0034 -0.06,0.09718 -0.27297,-0.05483 -0.23674,-0.169011 0.0112,-0.03531 -0.003,-0.111064 -0.0335,-0.168331 -0.0297,-0.05727 -0.0427,-0.122695 -0.0292,-0.145397 0.0136,-0.0227 0.15486,-0.192959 0.31392,-0.378348 0.31421,-0.366207 0.44183,-0.539945 0.44183,-0.601463 0,-0.02171 0.0646,-0.105314 0.14358,-0.185779 0.1081,-0.110096 0.13245,-0.153186 0.0985,-0.174128 -0.0589,-0.03643 -0.0514,-0.06546 0.0512,-0.200112 0.0851,-0.111657 0.0918,-0.197005 0.0282,-0.361165 -0.0232,-0.05968 -0.0208,-0.06148 0.0206,-0.01523 0.0258,0.0288 0.0759,0.07445 0.11145,0.101431 0.0605,0.04587 0.0635,0.04302 0.047,-0.04392 -0.0249,-0.130998 0.0257,-0.115532 0.13389,0.041 0.0509,0.07369 0.11819,0.13455 0.14938,0.135254 0.0312,8.34e-4 0.0886,0.04178 0.12751,0.09127 0.0663,0.08436 0.0787,0.08754 0.19687,0.05096 0.10419,-0.03224 0.13255,-0.03037 0.16326,0.01091 0.0204,0.02747 0.0471,0.04004 0.0592,0.02793 0.0122,-0.01211 0.022,-0.0073 0.022,0.01066 0,0.01797 -0.0177,0.05038 -0.0394,0.072 -0.0298,0.02987 -0.016,0.04818 0.0579,0.07625 0.0534,0.02034 0.13714,0.08174 0.18604,0.136512 0.0488,0.05477 0.11118,0.09957 0.13842,0.09957 0.0272,0 0.10114,0.05325 0.16424,0.118346 0.0657,0.06782 0.14796,0.118345 0.1926,0.118345 0.0606,0 0.0779,0.01884 0.0779,0.08453 0,0.109967 0.0925,0.112236 0.134,0.0034 0.0496,-0.130259 0.10342,-0.140442 0.0667,-0.01261 -0.0443,0.154326 -0.04,0.157737 0.0539,0.04314 l 0.0832,-0.101442 1.3e-4,0.103139 c 10e-5,0.05671 -0.0172,0.120536 -0.0385,0.141811 -0.029,0.02905 -0.0207,0.03394 0.0338,0.01971 0.0947,-0.02477 0.0916,0.0052 -0.0125,0.117204 -0.0845,0.09101 -0.0846,0.09168 -0.0144,0.123178 0.0438,0.01967 0.0793,0.01967 0.0934,0 0.0376,-0.0522 0.15149,-0.06001 0.12506,-0.0086 -0.0125,0.02448 0.009,0.0086 0.0473,-0.03531 0.041,-0.04665 0.0701,-0.126624 0.0701,-0.192432 0,-0.06193 0.0133,-0.120814 0.0295,-0.130852 0.0162,-0.01 0.0707,-0.106032 0.12092,-0.213329 0.0502,-0.107293 0.13446,-0.286373 0.1871,-0.397959 0.0526,-0.111582 0.1132,-0.308022 0.13461,-0.436533 0.041,-0.24594 0.097,-0.384677 0.18498,-0.457664 0.0749,-0.06217 0.0657,-0.137101 -0.0169,-0.137101 -0.11506,0 -0.1901,-0.05817 -0.1831,-0.141944 0.003,-0.04282 -0.0204,-0.116353 -0.0533,-0.163426 -0.0442,-0.06322 -0.0509,-0.10142 -0.0259,-0.146135 0.0196,-0.03502 0.0245,-0.142426 0.0113,-0.254709 -0.0277,-0.239308 0.003,-0.272173 0.28569,-0.305511 0.11158,-0.01315 0.2122,-0.03328 0.22361,-0.04466 0.0227,-0.02278 0.14896,0.0487 0.30371,0.171998 0.097,0.07727 0.0995,0.08701 0.0986,0.382158 -4.2e-4,0.182332 -0.0157,0.312267 -0.0381,0.326475 -0.0489,0.03108 0.004,0.175762 0.0648,0.175762 0.058,0 0.28457,0.232081 0.37634,0.385449 0.28479,0.475972 0.29797,0.505026 0.27978,0.61711 -0.01,0.06162 -0.004,0.120823 0.0134,0.131558 0.0526,0.03253 0.0356,0.136587 -0.0377,0.229781 -0.0646,0.0821 -0.0677,0.116611 -0.0462,0.504288 l 0.0232,0.416164 0.0884,-8.33e-4 c 0.088,-8.33e-4 0.0884,3.81e-4 0.0872,0.26107 -6.9e-4,0.144127 0.0116,0.262052 0.0273,0.262052 0.0158,0 0.0191,0.01522 0.008,0.03382 -0.0457,0.07387 0.1512,0.01826 0.45647,-0.128911 0.18778,-0.09053 0.87058,-0.0772 1.10984,0.02166 0.099,0.04091 0.19644,0.06421 0.21656,0.05177 0.0217,-0.01349 0.0267,-0.0069 0.0124,0.01643 -0.0214,0.0346 0.0406,0.05616 0.12357,0.04303 0.0139,-0.0021 0.0253,0.01211 0.0253,0.03179 0,0.0197 0.014,0.02718 0.0311,0.01659 0.0171,-0.01055 0.0841,0.03037 0.14874,0.09099 0.21172,0.198329 0.28123,0.222662 0.57929,0.202845 0.22164,-0.01474 0.31064,-0.0042 0.5072,0.05971 0.34819,0.11332 0.43218,0.161215 0.65388,0.372834 0.10997,0.104988 0.26947,0.224528 0.35442,0.265656 0.1716,0.08306 0.20897,0.119909 0.23679,0.233391 0.0162,0.06585 0.009,0.07419 -0.0498,0.05562 -0.0682,-0.02166 -0.0683,-0.02091 -0.005,0.0862 0.0828,0.141434 0.38125,0.440064 0.43995,0.440064 0.0307,0 0.0456,-0.04204 0.0448,-0.126797 -6.9e-4,-0.118827 -0.004,-0.122674 -0.0507,-0.06116 -0.0582,0.07697 -0.0657,0.04456 -0.0127,-0.05459 0.0267,-0.04993 0.0267,-0.07926 0,-0.105977 -0.0551,-0.05508 -0.0446,-0.101225 0.0175,-0.07738 0.0399,0.01531 0.0489,0.0064 0.0338,-0.03294 -0.0114,-0.02962 -0.0209,-0.06404 -0.0212,-0.07646 -2.6e-4,-0.01241 -0.0139,-0.0016 -0.0302,0.02424 -0.024,0.03793 -0.0363,0.03444 -0.0645,-0.01826 -0.0317,-0.05928 -0.0245,-0.06389 0.0809,-0.05159 0.0723,0.0085 0.11574,0.03192 0.11574,0.06253 0,0.02697 0.0152,0.03963 0.0338,0.02813 0.0186,-0.01149 0.034,-8.33e-4 0.0342,0.02336 3.8e-4,0.03216 0.01,0.03042 0.0333,-0.0064 0.0242,-0.03764 0.0328,-0.01751 0.0333,0.07808 3.8e-4,0.0805 0.0137,0.120639 0.0358,0.107043 0.0194,-0.01195 0.026,-0.05091 0.0146,-0.08653 -0.0113,-0.03565 -0.007,-0.06478 0.0112,-0.06478 0.0461,0 0.0809,0.316282 0.0451,0.410308 -0.0168,0.04399 -0.032,0.09156 -0.0338,0.105694 -0.0152,0.116023 -0.17122,0.297541 -0.33396,0.3885 -0.15249,0.08524 -0.4827,0.03698 -0.69395,-0.101453 -0.12566,-0.08234 -0.14382,-0.07412 -0.0747,0.03382 l 0.0595,0.09299 -0.0932,-0.08453 c -0.11095,-0.10066 -0.33682,-0.425243 -0.37058,-0.532559 -0.0217,-0.06894 -0.0578,-0.09136 -0.12928,-0.08008 -0.0139,0.0021 -0.0253,-0.02809 -0.0253,-0.06735 0,-0.09556 -0.17943,-0.422147 -0.31893,-0.580506 l -0.11255,-0.127744 -0.0547,0.136931 c -0.032,0.07991 -0.0899,0.152974 -0.13931,0.175443 -0.0465,0.02116 -0.0845,0.05166 -0.0845,0.06773 0,0.01606 -0.0374,0.04345 -0.0832,0.06083 -0.0458,0.01739 -0.11341,0.0909 -0.15037,0.163372 -0.0372,0.07292 -0.21769,0.266044 -0.40418,0.432479 -0.47806,0.426646 -0.49341,0.49825 -0.2208,1.02953 0.0817,0.159082 0.14841,0.320293 0.14841,0.358249 0,0.07523 -0.0976,0.180937 -0.16721,0.180937 -0.0239,0 -0.21297,0.07116 -0.42,0.158128 -0.33042,0.138794 -0.40647,0.187074 -0.62191,0.394876 -0.16473,0.158866 -0.25656,0.276476 -0.27916,0.357521 -0.0251,0.08998 -0.0783,0.150949 -0.20882,0.239122 -0.15686,0.10601 -0.46693,0.46774 -0.46693,0.54473 -0.11202,0.09573 -0.49532,-0.08748 -0.39604,-0.196373 z m 1.70739,-1.621311 c 0.11329,-0.0864 0.11668,-0.09555 0.099,-0.2667 -0.0185,-0.179714 -0.10266,-0.387714 -0.15677,-0.387714 -0.0521,0 -0.10843,0.211806 -0.12817,0.481834 -0.022,0.299295 -0.003,0.31676 0.18593,0.17258 z m 3.43927,-1.533764 c -0.0338,-0.0373 -0.0693,-0.05997 -0.0788,-0.05037 -0.01,0.0097 0.0118,0.03963 0.0476,0.06676 0.0915,0.06918 0.10309,0.06306 0.0312,-0.01639 z m -1.92716,-0.676054 c 0.0337,-0.03718 0.0536,-0.06763 0.0443,-0.06763 -0.01,0 -0.0444,0.03042 -0.0781,0.06763 -0.0337,0.03718 -0.0536,0.06763 -0.0443,0.06763 0.01,0 0.0444,-0.03042 0.0781,-0.06763 z m 0.0109,-0.213943 c 0.0109,-0.05604 -0.12339,-0.27656 -0.15135,-0.248596 -0.008,0.008 0.003,0.08567 0.0249,0.172377 0.0385,0.15277 0.10396,0.192228 0.12641,0.07622 z m -7.43287,-1.138586 c 0,-0.01859 -0.022,-0.03382 -0.0487,-0.03382 -0.0268,0 -0.0582,0.01523 -0.0696,0.03382 -0.0115,0.0186 0.0109,0.03382 0.0487,0.03382 0.0383,0 0.0696,-0.01523 0.0696,-0.03382 z m 0.38237,-0.03734 c 0.13375,-0.02054 0.24821,-0.04206 0.25436,-0.04783 0.007,-0.0058 -0.005,-0.0422 -0.0265,-0.08099 -0.0491,-0.09163 -0.23557,-0.09327 -0.43268,-0.0037 -0.13862,0.06292 -0.16887,0.09972 -0.12116,0.147434 0.0295,0.0295 0.0408,0.029 0.32601,-0.01481 z m 2.43318,-0.217459 c 0.0694,-0.04716 0.12619,-0.09121 0.12619,-0.09787 0,-0.01461 -0.19666,0.03099 -0.27683,0.06418 -0.0313,0.01298 -0.0488,0.04516 -0.0386,0.07152 0.0249,0.06502 0.0433,0.06136 0.18926,-0.03784 z m 0.42082,-0.75958 c 0.0873,-0.100213 0.0959,-0.12508 0.056,-0.162323 -0.039,-0.03639 -0.0509,-0.03348 -0.0693,0.01689 -0.0122,0.03348 -0.0652,0.116332 -0.11794,0.184099 -0.0526,0.06776 -0.0958,0.133296 -0.0958,0.14562 0,0.03693 0.11688,-0.05799 0.227,-0.184302 z m 6.415,3.520257 c 0.0241,-0.03904 0.15444,-0.11776 0.15444,-0.0933 0,0.0078 -0.0399,0.04037 -0.0887,0.07232 -0.0488,0.03195 -0.0784,0.04141 -0.0657,0.02099 z"
         id="path1058"
         sodipodi:nodetypes="cssssssssccsssssssssssssssssssssssssssssssssssssssssscsscsssssssssssssssssscsssssssssssssssccssssssssssssssssssssssssssssscscsssssssssssssssssssssssscssssssscsssssssscssssscsssssssssssssccsssssssssssssssssssssssssssssssssssssssssssss" />
      <path
         id="path1058-1"
         style="fill:#000000;stroke-width:0.0338132"
         d="m 463.26768,-81.622611 c -0.009,1.48e-4 -0.0175,5.29e-4 -0.0264,0.001 -0.28119,0.0161 -0.34705,0.332444 -0.34104,0.379304 0.003,0.04833 -0.0306,0.146667 -0.0672,0.189135 -0.0352,0.04246 0.14933,0.0615 0.14933,0.0615 0,0 0.0633,0.155038 0.0703,0.190167 0.007,0.03368 0.11679,0.150897 0.11679,0.150897 0,0 -0.085,0.126079 -0.092,0.196368 -0.003,0.03515 0.002,0.09663 0.009,0.149347 l -0.0171,-0.0078 0.007,-0.02015 -0.0305,-0.01033 -0.006,0.01602 -0.96068,-0.330729 -0.0202,-0.02635 0.006,-0.06046 -0.0672,-0.02325 -0.0351,0.04392 -0.0481,0.0016 -0.16587,-0.05736 c -0.0252,-0.0088 -0.035,0.03531 -0.032,0.0646 0.004,0.03076 -10e-4,0.06458 0.0527,0.08216 0.0527,0.01758 0.75139,0.273886 0.75139,0.273886 l 0.0465,0.04651 0.11162,0.03979 c 0,0 -0.006,0.01766 -0.007,0.04548 -0.003,0.02781 0.0191,0.04392 0.0191,0.04392 l -0.016,0.04393 c 0,0 -0.0778,0.136239 -0.15246,0.212389 -0.0314,0.03205 -0.0899,0.08201 -0.14726,0.129709 0.0131,-0.08077 -0.0295,-0.06495 -0.0729,0.04857 -0.003,0.0073 -0.006,0.01283 -0.009,0.01912 -0.0405,0.03274 -0.0734,0.05891 -0.0734,0.05891 l 0.002,0.0026 c -0.0287,-1.1e-5 -0.0527,-0.02811 -0.0527,-0.08372 0,-0.06569 -0.0175,-0.08475 -0.078,-0.08475 -0.0447,0 -0.12655,-0.05052 -0.19225,-0.11834 -0.0631,-0.06509 -0.13713,-0.118337 -0.16433,-0.118337 -0.0272,0 -0.0897,-0.04445 -0.13848,-0.09922 -0.0489,-0.05477 -0.13261,-0.116602 -0.18603,-0.136943 -0.0739,-0.02807 -0.0877,-0.04609 -0.0579,-0.07596 0.0217,-0.02162 0.0393,-0.05438 0.0393,-0.07235 0,-0.01797 -0.01,-0.02243 -0.0217,-0.01033 -0.0122,0.01212 -0.039,-5.29e-4 -0.0594,-0.02791 -0.0307,-0.04128 -0.0591,-0.0431 -0.1633,-0.01085 -0.11816,0.03658 -0.1306,0.0332 -0.19687,-0.05116 -0.0389,-0.04949 -0.0964,-0.09063 -0.12764,-0.09147 -0.0312,-7.94e-4 -0.0984,-0.06118 -0.14936,-0.134874 -0.10819,-0.156533 -0.15872,-0.172339 -0.13382,-0.04134 0.0164,0.08694 0.0135,0.08979 -0.0471,0.04392 -0.0356,-0.02698 -0.0853,-0.07249 -0.11109,-0.101285 -0.0206,-0.02312 -0.0317,-0.03417 -0.0346,-0.03204 h -5.3e-4 c -0.003,0.0021 0.003,0.0177 0.0139,0.04754 0.0636,0.164161 0.0567,0.249047 -0.0284,0.360704 -0.10261,0.134652 -0.11007,0.164073 -0.0512,0.200504 0.034,0.02093 0.009,0.06405 -0.0987,0.174148 -0.079,0.08047 -0.14314,0.163809 -0.14314,0.185518 0,0.06152 -0.12764,0.235308 -0.44183,0.601515 -0.15907,0.185388 -0.30059,0.355571 -0.31419,0.378272 -0.0135,0.0227 -2.7e-4,0.08846 0.0294,0.145727 0.0305,0.05727 0.0443,0.132638 0.0331,0.16795 -0.0362,0.114181 0.17719,0.26616 0.2372,0.168981 0.013,-0.02141 0.0421,-0.02231 0.078,-0.0031 0.0591,0.0316 0.23342,0.01355 0.29353,-0.03049 0.0185,-0.0136 0.17833,-0.03525 0.35502,-0.04754 0.17666,-0.01225 0.39158,-0.03098 0.47749,-0.04186 l 0.15605,-0.01963 0.0238,0.16433 c 0.013,0.09041 0.0702,0.32702 0.1266,0.526066 l 0.10232,0.362251 -0.0755,0.286806 c -0.0663,0.250992 -0.071,0.306684 -0.0356,0.447 0.0222,0.0882 0.0669,0.199721 0.0992,0.247531 0.0324,0.04781 0.0761,0.12672 0.0971,0.175699 0.0337,0.0786 0.0271,0.09895 -0.0527,0.172083 -0.103,0.09434 -0.46934,0.325448 -0.65371,0.412377 -0.18105,0.08581 -0.28228,0.396184 -0.18809,0.581877 0.0272,0.0534 0.0827,0.219159 0.12351,0.367937 0.0407,0.148778 0.0849,0.307054 0.0977,0.351914 0.0182,0.06367 0.0863,0.107241 0.31059,0.197922 0.35973,0.145431 0.61675,0.214889 0.65524,0.17725 0.0445,-0.04336 -0.007,-0.31106 -0.0765,-0.39429 -0.0887,-0.107141 -0.2839,-0.15366 -0.37571,-0.0894 -0.0669,0.04679 -0.0737,0.04539 -0.0909,-0.02015 -0.0103,-0.03913 -0.0385,-0.07132 -0.0625,-0.07132 -0.0952,0 -0.28043,-0.525486 -0.24082,-0.683162 0.0282,-0.112376 0.16663,-0.162263 0.45267,-0.162263 0.11973,0 0.31171,-0.02307 0.42635,-0.05116 0.44463,-0.109056 0.61471,-0.145381 0.62632,-0.133842 0.018,0.01773 -0.15967,0.476705 -0.2708,0.699698 -0.11816,0.237369 -0.12038,0.31369 -0.0119,0.473358 0.0654,0.09628 0.11356,0.128993 0.21135,0.143143 0.13166,0.01908 0.42955,0.08976 0.67543,0.160197 0.12356,0.0354 0.15962,0.03237 0.27025,-0.02119 0.0833,-0.0403 0.23698,-0.06739 0.44132,-0.07855 0.17251,-0.0094 0.32126,-0.03009 0.33126,-0.04548 0.0212,-0.0341 -0.0986,-0.274765 -0.16074,-0.323493 -0.0706,-0.05543 -0.26132,-0.111138 -0.31263,-0.09147 -0.0257,0.0098 -0.0653,0.06233 -0.0878,0.116789 -0.0424,0.102392 -0.1256,0.128146 -0.19381,0.05994 -0.0294,-0.02963 -0.0505,-0.02962 -0.0863,0 -0.0322,0.0267 -0.132,0.03194 -0.31419,0.01705 -0.48868,-0.03992 -0.51377,-0.08579 -0.22997,-0.417546 0.10342,-0.120881 0.24619,-0.318773 0.31731,-0.439767 0.14309,-0.243274 0.24871,-0.356137 0.30229,-0.322977 0.0193,0.01199 0.0677,0.0043 0.1075,-0.01705 0.0501,-0.02699 0.0656,-0.02737 0.0496,-0.0016 -0.0127,0.02045 -0.004,0.03721 0.0196,0.03721 0.0233,0 0.0849,0.04064 0.13695,0.09043 0.1212,0.115998 0.16422,0.076 0.0641,-0.05943 -0.0421,-0.05702 -0.0695,-0.111091 -0.0605,-0.119891 0.009,-0.0088 0.10541,-0.01137 0.21445,-0.0057 l 0.1979,0.0098 -0.10694,0.11007 c -0.0607,0.06183 -0.0872,0.110072 -0.0615,0.110072 0.0251,0 0.0887,-0.05101 0.14108,-0.113173 0.0898,-0.106344 0.11427,-0.115271 0.41653,-0.151411 0.17664,-0.02114 0.43516,-0.06964 0.57463,-0.107487 0.45968,-0.124809 0.42978,-0.125886 0.47077,0.0217 0.0198,0.07178 0.0361,0.232468 0.0362,0.357084 10e-5,0.124614 0.0169,0.303639 0.0372,0.39791 0.0888,0.413869 -0.12168,0.954728 -0.55295,1.421101 -0.12896,0.139475 -0.27255,0.296209 -0.31935,0.3483 v 5.16e-4 c -0.0993,0.108892 0.28382,0.2921 0.39584,0.196371 0,-0.07699 0.31031,-0.438661 0.46715,-0.544671 0.13052,-0.08817 0.18367,-0.148765 0.20878,-0.238744 0.0225,-0.08105 0.11433,-0.198734 0.27906,-0.357601 0.21542,-0.207803 0.29176,-0.256013 0.62217,-0.394808 0.20703,-0.08697 0.39571,-0.158131 0.41963,-0.158131 0.0696,0 0.16742,-0.106154 0.16742,-0.181383 0,-0.03796 -0.0666,-0.199035 -0.14832,-0.358118 -0.2726,-0.531281 -0.25739,-0.602748 0.22066,-1.029394 0.18651,-0.166436 0.36693,-0.359613 0.40413,-0.432533 0.0369,-0.07247 0.10456,-0.145907 0.15036,-0.163298 0.0458,-0.01738 0.0832,-0.04492 0.0832,-0.06098 0,-0.01606 0.0382,-0.04653 0.0848,-0.0677 0.0494,-0.02246 0.10699,-0.09527 0.13901,-0.17518 l 0.0548,-0.136943 0.11266,0.12764 c 0.13949,0.158359 0.31885,0.484767 0.31885,0.580327 0,0.03926 0.0113,0.06928 0.0253,0.06718 0.0715,-0.01127 0.10747,0.01117 0.12917,0.0801 0.0338,0.107315 0.25958,0.432123 0.37052,0.532784 l 0.0935,0.08475 -0.0594,-0.09302 c -0.0691,-0.10794 -0.0512,-0.116446 0.0744,-0.03411 0.21124,0.138435 0.54152,0.186526 0.694,0.101288 0.16275,-0.09096 0.31864,-0.272069 0.33385,-0.388091 0.003,-0.01413 0.0172,-0.06195 0.0341,-0.105936 0.0358,-0.09403 0,-0.410311 -0.0455,-0.410311 -0.0183,0 -0.0222,0.02946 -0.0109,0.06511 0.0114,0.03562 0.005,0.07435 -0.0145,0.0863 -0.022,0.0136 -0.0358,-0.02647 -0.0362,-0.106968 0,-0.09559 -0.009,-0.11567 -0.0331,-0.07803 -0.0233,0.03682 -0.0332,0.03837 -0.0336,0.0062 -1.8e-4,-0.02418 -0.0156,-0.03474 -0.0341,-0.02325 -0.0185,0.01151 -0.0336,-0.0013 -0.0336,-0.02842 0,-0.03061 -0.0435,-0.05403 -0.11575,-0.06253 -0.10541,-0.0123 -0.11285,-0.0076 -0.0812,0.05168 0.0282,0.0527 0.0406,0.05654 0.0646,0.01861 0.0164,-0.02585 0.0297,-0.0367 0.0299,-0.02429 0,0.01241 0.0104,0.04686 0.0217,0.07648 0.0151,0.03934 0.006,0.04786 -0.0341,0.03256 -0.0621,-0.02384 -0.0728,0.02244 -0.0176,0.07751 0.0267,0.02672 0.0267,0.05601 0,0.105936 -0.053,0.09915 -0.0453,0.131747 0.0129,0.05478 0.0467,-0.06151 0.05,-0.05785 0.0506,0.06098 0,0.08476 -0.0143,0.127125 -0.045,0.127125 -0.0587,0 -0.35697,-0.29885 -0.43976,-0.440286 -0.0633,-0.107106 -0.0629,-0.107958 0.005,-0.0863 0.0588,0.01857 0.0658,0.01056 0.0496,-0.05529 -0.0278,-0.113483 -0.0651,-0.150519 -0.23667,-0.233577 -0.085,-0.04113 -0.24456,-0.160629 -0.35452,-0.265618 -0.22169,-0.211619 -0.30551,-0.259784 -0.6537,-0.373105 -0.19656,-0.06391 -0.28583,-0.07417 -0.50748,-0.05943 -0.29805,0.01982 -0.36755,-0.0048 -0.57927,-0.203086 -0.0646,-0.06062 -0.13174,-0.101502 -0.14883,-0.09095 -0.0172,0.01058 -0.031,0.0031 -0.031,-0.01654 0,-0.01969 -0.0113,-0.03362 -0.0253,-0.03152 -0.083,0.01312 -0.14491,-0.0088 -0.12351,-0.04341 0.0143,-0.02334 0.009,-0.02952 -0.0124,-0.01602 -0.0201,0.01244 -0.11753,-0.0113 -0.21651,-0.05219 -0.23926,-0.09886 -0.92223,-0.112242 -1.11,-0.0217 -0.30528,0.147172 -0.50202,0.20306 -0.45633,0.129191 0.0111,-0.0186 0.008,-0.03359 -0.008,-0.03359 -0.0125,0 -0.0206,-0.0847 -0.0238,-0.189137 0.0159,-0.0013 0.0289,-0.001 0.0289,-0.001 0,0 -0.0135,-0.03039 -0.032,-0.07441 8e-5,-0.01471 0,-0.02245 0,-0.03617 l -0.016,-0.0021 c -0.0509,-0.124572 -0.11973,-0.310629 -0.0868,-0.33383 0.0498,-0.03514 -0.026,-0.106982 -0.029,-0.142111 -0.003,-0.03368 -0.12909,-0.171135 -0.10128,-0.198956 0.0278,-0.02929 0,-0.09663 0,-0.09663 0,0 -0.0218,-0.06476 0.0207,-0.12919 0.0424,-0.06443 -0.038,-0.323649 -0.047,-0.423231 -0.009,-0.09958 -0.21694,-0.399449 -0.25943,-0.469738 -0.041,-0.07175 -0.10954,-0.163965 -0.28525,-0.316259 -0.1728,-0.149368 -0.49662,-0.04703 -0.49662,-0.04703 0,0 0.0321,-0.06906 0.0424,-0.118856 0.004,-0.0205 0.13642,-0.03359 0.13642,-0.03359 0,0 -0.0498,-0.03228 -0.0687,-0.142111 -0.034,-0.19151 -0.19598,-0.355473 -0.46302,-0.350882 z m -0.42892,1.538925 0.009,0.0217 c -0.007,0.02198 -0.014,0.04566 -0.016,0.05736 -10e-4,0.02927 0.004,0.05076 0.0145,0.04496 0.01,-0.0073 -0.004,-0.02747 0.006,-0.04651 0.005,-0.0088 0.008,-0.01472 0.0113,-0.01912 l 0.20103,0.47439 c 0,0 0.0249,0.05972 0.0439,0.104902 -0.1202,0.02035 -0.33578,0.04951 -0.36949,0.08785 -0.0383,0.04391 -0.0595,0.05962 -0.047,0.03514 0.0264,-0.05141 -0.0875,-0.04392 -0.12507,0.0083 -0.014,0.01966 -0.0497,0.01966 -0.0935,0 -0.0702,-0.0315 -0.0701,-0.03198 0.0145,-0.122991 0.10409,-0.112004 0.10708,-0.142076 0.0124,-0.117306 -0.0545,0.01423 -0.0631,0.0094 -0.0341,-0.01964 0.0188,-0.01866 0.0327,-0.07033 0.0362,-0.120923 0.0439,-0.03757 0.0873,-0.07748 0.12145,-0.114721 0.11271,-0.123007 0.19584,-0.272335 0.19584,-0.272335 l 0.015,0.0031 z m -2.11563,1.160134 c 0.0774,7.94e-4 0.13618,0.02394 0.16073,0.06976 0.0214,0.03879 0.0339,0.07533 0.0269,0.08113 -0.006,0.0058 -0.12102,0.02752 -0.25477,0.04806 -0.2852,0.04381 -0.29657,0.0445 -0.32607,0.01499 -0.0477,-0.04771 -0.0172,-0.08488 0.12144,-0.147796 0.0986,-0.04478 0.19442,-0.06681 0.27181,-0.06615 z m -0.49816,0.202573 c 0.0267,0 0.0486,0.015 0.0486,0.03359 0,0.0186 -0.0309,0.03359 -0.0693,0.03359 -0.0378,0 -0.0606,-0.01498 -0.0491,-0.03359 0.0114,-0.0186 0.043,-0.03359 0.0698,-0.03359 z m 7.3365,0.920875 c 0.0378,0.0013 0.15544,0.198609 0.14523,0.251145 -0.0225,0.116009 -0.0881,0.07681 -0.12661,-0.07596 -0.022,-0.08671 -0.0328,-0.164597 -0.0248,-0.172598 0.003,-0.0019 0.004,-0.0026 0.006,-0.0026 z m 0.1783,0.397391 c 0.009,0 -0.0103,0.03051 -0.0439,0.0677 -0.0337,0.03721 -0.068,0.0677 -0.0781,0.0677 -0.009,0 0.0103,-0.03052 0.0439,-0.0677 0.0337,-0.03721 0.068,-0.0677 0.078,-0.0677 z m 1.80919,0.69143 c 0.0135,-0.0016 0.0443,0.02008 0.0739,0.05271 0.0719,0.07945 0.0605,0.08521 -0.031,0.01602 -0.0358,-0.02713 -0.0575,-0.05696 -0.0475,-0.06667 0,-0.0013 0.003,-0.0018 0.005,-0.0021 z m 0.52502,0.432014 c -0.0251,-7.94e-4 -0.12774,0.06351 -0.14883,0.09767 -0.0127,0.02043 0.0169,0.01126 0.0656,-0.02067 0.0488,-0.03195 0.0889,-0.06455 0.0889,-0.07235 0,-0.0031 -0.003,-0.0045 -0.006,-0.0047 z m -3.94806,0.499711 c 0.0541,0 0.13806,0.207859 0.15658,0.387575 0.0177,0.171148 0.0145,0.180766 -0.0987,0.267165 -0.18894,0.144182 -0.20804,0.126696 -0.18603,-0.172598 0.0199,-0.270028 0.0761,-0.482142 0.12817,-0.482142 z" />
      <path
         style="fill:#000000;stroke-width:0.0194068"
         d="m 459.55588,-73.296002 c -0.0345,-0.05584 0.15003,-0.315196 0.33763,-0.474514 0.15222,-0.129299 0.15554,-0.133984 0.15554,-0.220255 0,-0.199173 -0.26914,-0.733382 -0.49762,-0.98763 -0.17866,-0.19885 -0.30739,-0.282878 -0.57434,-0.374931 -0.24507,-0.0845 -0.32263,-0.120009 -0.41423,-0.189614 -0.0756,-0.05747 -0.45763,-0.278723 -0.48123,-0.278723 -0.0105,0 -0.0124,0.117801 -0.005,0.286252 l 0.0126,0.286249 0.0885,0.172785 c 0.0559,0.109002 0.0848,0.187805 0.0783,0.213473 -0.005,0.02239 -0.15571,0.189152 -0.33345,0.370604 -0.30925,0.31567 -0.49201,0.515315 -0.65656,0.717204 -0.0751,0.09215 -0.0765,0.0928 -0.16912,0.08183 l -0.0934,-0.01105 -0.0126,0.07178 c -0.0259,0.147722 -0.0903,0.195056 -0.37101,0.27268 -0.18824,0.05206 -0.19738,0.04053 -0.14485,-0.18234 0.0447,-0.189769 0.0783,-0.251129 0.16229,-0.296965 0.21091,-0.115077 0.71805,-0.62685 0.80456,-0.811905 0.0259,-0.05532 0.0603,-0.171279 0.0766,-0.257705 l 0.0297,-0.157138 -0.13439,-0.363313 c -0.0739,-0.199822 -0.14999,-0.428811 -0.16905,-0.508864 -0.019,-0.08005 -0.0469,-0.176933 -0.0619,-0.215292 l -0.0273,-0.06974 -0.17681,0.06642 c -0.23617,0.08871 -0.44524,0.131236 -0.83629,0.170128 -0.42131,0.0419 -0.7726,0.01555 -1.15868,-0.08688 -0.17464,-0.04635 -0.18864,-0.04693 -0.25772,-0.01091 -0.0786,0.04101 -0.35278,-0.0137 -0.39551,-0.07893 -0.0159,-0.02441 -0.0715,-0.05848 -0.12334,-0.0757 -0.0856,-0.02844 -0.0996,-0.02853 -0.15273,-0.001 -0.0773,0.03997 -0.12277,0.03816 -0.18041,-0.0072 -0.0261,-0.02058 -0.10376,-0.05226 -0.17242,-0.0704 l -0.12485,-0.03297 -0.31156,0.0995 c -0.17136,0.05473 -0.32418,0.09964 -0.33962,0.0998 -0.0155,1.45e-4 -0.0406,0.0082 -0.0559,0.01786 -0.0226,0.01436 -0.011,0.04652 0.064,0.175531 0.0609,0.104827 0.0878,0.170564 0.0799,0.195437 -0.0112,0.03497 -0.004,0.03668 0.10155,0.02562 0.1042,-0.01089 0.11861,-0.0075 0.17694,0.04156 0.0701,0.05902 0.17212,0.244536 0.18154,0.330269 l 0.006,0.05497 -0.19406,-0.0052 -0.19407,-0.0053 -0.12013,-0.115277 c -0.0661,-0.06341 -0.14923,-0.127428 -0.18477,-0.142277 -0.10026,-0.04189 -0.13153,-0.09089 -0.18031,-0.282604 -0.0249,-0.09777 -0.0491,-0.181645 -0.0538,-0.186398 -0.0169,-0.01698 -0.1243,0.0357 -0.35253,0.173111 -0.17665,0.106354 -0.29328,0.196802 -0.49027,0.380259 -0.14219,0.132394 -0.27682,0.270331 -0.29921,0.30653 -0.039,0.06316 -0.0442,0.06529 -0.12744,0.0528 -0.055,-0.0083 -0.10286,-0.0044 -0.13077,0.01053 -0.0386,0.02072 -0.0437,0.03749 -0.0414,0.139389 0.002,0.06632 -0.007,0.123717 -0.0195,0.134256 -0.0967,0.08023 -0.4913,0.14104 -0.60521,0.09326 l -0.0633,-0.02655 0.0953,-0.148343 c 0.082,-0.127677 0.11301,-0.15826 0.22258,-0.219539 0.0915,-0.05116 0.15466,-0.106005 0.22452,-0.194867 0.0704,-0.0896 0.1361,-0.146429 0.23854,-0.206283 0.23709,-0.138557 0.63463,-0.481877 0.695,-0.600212 0.0494,-0.09669 0.23576,-0.232113 0.38758,-0.281565 l 0.12615,-0.04108 v -0.114691 c 0,-0.127799 0.032,-0.188273 0.15869,-0.299467 l 0.0719,-0.06317 0.17883,0.01174 c 0.16105,0.01058 0.18384,0.0078 0.22928,-0.02793 0.0978,-0.07694 0.0995,-0.10198 0.0195,-0.292442 l -0.0729,-0.174005 0.031,-0.09684 c 0.0203,-0.06337 0.0231,-0.09062 0.008,-0.07885 -0.0375,0.02954 -0.35884,0.04462 -0.37651,0.01769 -0.008,-0.01267 -0.0379,-0.08863 -0.0658,-0.168827 -0.1267,-0.364252 -0.29414,-0.705509 -0.3772,-0.768884 -0.035,-0.02667 -0.0696,-0.06332 -0.077,-0.08144 -0.0326,-0.08012 -0.0676,-0.296229 -0.0676,-0.417617 v -0.1324 l -0.10803,0.0135 c -0.1012,0.01265 -0.11174,0.01 -0.16669,-0.04228 -0.0746,-0.07093 -0.12048,-0.155852 -0.0932,-0.172685 0.011,-0.0068 0.12578,-0.01386 0.255,-0.01565 l 0.23494,-0.0032 0.0398,-0.05822 c 0.0638,-0.09331 0.46006,-0.47232 0.54579,-0.522072 0.0431,-0.02502 0.1002,-0.05179 0.12689,-0.05952 0.0415,-0.01201 0.0378,-0.0049 -0.0253,0.04828 -0.0406,0.03427 -0.0703,0.06575 -0.0661,0.06996 0.004,0.0042 0.0814,-0.02691 0.1715,-0.06914 0.0901,-0.04223 0.20448,-0.0859 0.25416,-0.09702 0.0497,-0.01113 0.13482,-0.03779 0.18925,-0.05923 0.13277,-0.05233 0.21575,-0.05113 0.10719,0.0017 l -0.0776,0.03767 0.13845,-0.0099 c 0.14742,-0.01057 0.33226,0.0152 0.36545,0.05094 0.0145,0.01564 0.007,0.01848 -0.0286,0.01021 -0.0268,-0.0063 -0.0602,-0.0043 -0.0743,0.0044 -0.0287,0.01778 0.22518,0.125787 0.35584,0.151301 l 0.0776,0.01514 -0.097,0.01007 -0.097,0.01008 0.13585,0.04839 0.13585,0.04839 -0.10675,0.0097 -0.10674,0.0097 0.10298,0.07041 0.10296,0.07041 -0.0695,0.01306 -0.0695,0.01306 0.0345,0.05975 c 0.019,0.03287 0.0801,0.09026 0.1358,0.127547 0.0557,0.03729 0.10637,0.08365 0.11253,0.103028 0.0107,0.03373 0.0138,0.03362 0.0753,-0.0025 0.0609,-0.03596 0.0637,-0.04242 0.0552,-0.130426 l -0.009,-0.09259 0.13654,-0.09078 0.13653,-0.09079 -0.0496,-0.10265 c -0.0273,-0.05646 -0.063,-0.170609 -0.0794,-0.253666 l -0.0298,-0.151018 -0.15308,-0.107268 c -0.14171,-0.09929 -0.38395,-0.325281 -0.38395,-0.358188 0,-0.0078 -0.0349,-0.05653 -0.0776,-0.108196 -0.0427,-0.05167 -0.0776,-0.10199 -0.0776,-0.111831 0,-0.0098 -0.0214,-0.06345 -0.0479,-0.11913 -0.0563,-0.118933 -0.13788,-0.50999 -0.15686,-0.751552 l -0.0134,-0.169808 h 0.0953 c 0.0908,0 0.0962,-0.003 0.11389,-0.06307 0.0103,-0.03469 0.0378,-0.0715 0.0613,-0.0818 0.0287,-0.0126 0.0467,-0.04241 0.0548,-0.09103 0.0138,-0.08212 0.13156,-0.337752 0.18045,-0.391952 0.0179,-0.01976 0.0561,-0.0482 0.0851,-0.06318 0.0473,-0.02448 0.0616,-0.02288 0.14137,0.01586 0.079,0.03835 0.0875,0.04871 0.0775,0.09409 l -0.0112,0.051 0.25801,0.01243 c 0.46125,0.02224 0.5907,0.06643 0.78198,0.26698 0.11105,0.116429 0.12856,0.167867 0.0752,0.221154 -0.029,0.02905 -0.0379,0.02472 -0.115,-0.0557 -0.17493,-0.182555 -0.37329,-0.254844 -0.7599,-0.276924 -0.2122,-0.01212 -0.22176,-0.01095 -0.26815,0.03261 -0.0264,0.02485 -0.048,0.06043 -0.048,0.07907 0,0.02169 -0.0205,0.03838 -0.0569,0.04638 -0.0731,0.01605 -0.10024,0.04987 -0.0958,0.119304 0.002,0.03061 -0.0117,0.09932 -0.0301,0.152685 -0.0291,0.08334 -0.0318,0.137498 -0.02,0.383837 l 0.0138,0.2868 0.11432,0.144999 c 0.0629,0.07975 0.11806,0.144999 0.12262,0.144999 0.005,0 0,-0.02838 -0.0117,-0.06306 -0.0482,-0.15148 -0.0596,-0.169812 -0.10644,-0.169812 -0.0537,0 -0.0588,-0.03151 -0.0152,-0.09363 0.0282,-0.04026 0.0282,-0.05068 0,-0.121152 -0.087,-0.217493 0.01,-0.287336 0.34504,-0.24988 0.19868,0.02217 0.34241,0.07726 0.40945,0.156942 0.0406,0.04824 0.0443,0.0638 0.0266,0.114263 -0.0148,0.04245 -0.0143,0.06586 0.002,0.08563 0.0147,0.01779 0.0183,0.06629 0.0107,0.140293 -0.0152,0.144778 0.0338,0.239232 0.12419,0.239232 0.0313,0 0.0707,0.0053 0.0875,0.01172 0.0277,0.0106 0.0277,0.0039 0.002,-0.07037 -0.0159,-0.04515 -0.029,-0.09643 -0.029,-0.113973 0,-0.04363 -0.11417,-0.314603 -0.14946,-0.354776 -0.0359,-0.04083 -0.0257,-0.100823 0.0185,-0.10934 0.0219,-0.0042 0.0413,0.01255 0.0559,0.04829 0.0575,0.141096 0.14191,0.291291 0.18383,0.327032 0.0657,0.05599 0.41528,0.702971 0.41528,0.768501 0,0.01834 0.0471,0.1148 0.10472,0.21434 0.0815,0.140777 0.1006,0.188752 0.0861,0.215976 -0.0145,0.02709 0.002,0.06994 0.0721,0.189634 0.0548,0.09357 0.10572,0.213866 0.1288,0.304622 0.0209,0.08249 0.0608,0.200819 0.0885,0.262951 l 0.0504,0.112968 -0.0403,0.09539 -0.0402,0.09539 0.14321,0.08926 c 0.18395,0.114655 0.22565,0.179549 0.22434,0.349176 0,0.111273 0.003,0.125784 0.0323,0.116789 0.0722,-0.02231 0.36805,-0.08726 0.45085,-0.09898 0.063,-0.0089 0.16138,0.0038 0.34931,0.04517 0.1439,0.03167 0.29656,0.0636 0.33926,0.07095 0.0427,0.0073 0.16931,0.03884 0.28139,0.06996 0.11208,0.03113 0.23435,0.05656 0.27171,0.05651 0.0373,-3.8e-5 0.16601,-0.03429 0.28589,-0.0761 0.323,-0.112647 0.48607,-0.144528 0.74266,-0.145183 0.43712,-0.0012 0.8428,0.130056 1.13379,0.366615 0.0542,0.04407 0.15095,0.115944 0.21498,0.159735 0.14774,0.10102 0.25179,0.208987 0.29016,0.301101 0.0504,0.120914 0.0313,0.344523 -0.0355,0.417207 -0.0162,0.0176 -0.02,-6.93e-4 -0.015,-0.07185 0.004,-0.0525 -0.003,-0.125158 -0.015,-0.161472 -0.0209,-0.06362 -0.15312,-0.236775 -0.16874,-0.221152 -0.004,0.0042 0.0114,0.05047 0.0345,0.102814 0.0883,0.199006 0.0359,0.416136 -0.13161,0.546061 -0.15758,0.122224 -0.14646,0.105872 -0.11403,0.167503 0.0417,0.0793 0.0379,0.08066 -0.0442,0.01568 -0.0407,-0.03226 -0.10715,-0.11969 -0.14918,-0.196363 -0.0478,-0.08716 -0.0994,-0.152809 -0.13971,-0.177734 -0.0352,-0.02174 -0.099,-0.08039 -0.1418,-0.130334 l -0.0778,-0.0908 -2e-5,0.05822 c -3e-5,0.09557 0.0372,0.20066 0.0825,0.232311 0.0366,0.02565 0.0376,0.02968 0.008,0.02968 -0.0538,0 -0.11169,-0.0373 -0.20803,-0.134155 -0.0487,-0.04897 -0.13449,-0.117923 -0.19068,-0.153244 -0.0843,-0.05298 -0.10728,-0.05997 -0.13143,-0.03993 -0.049,0.04068 -0.20068,0.02868 -0.31709,-0.02509 -0.0587,-0.02712 -0.1897,-0.112536 -0.29111,-0.189816 -0.27469,-0.209348 -0.40975,-0.271172 -0.33104,-0.151544 0.0982,0.149243 0.15983,0.300082 0.22552,0.551634 0.062,0.237637 0.0717,0.307511 0.0846,0.611365 l 0.0145,0.343063 0.16665,0.180919 0.16661,0.180921 0.2339,0.09545 c 0.30265,0.123517 0.32565,0.147617 0.36312,0.380242 0.0159,0.0991 0.0412,0.203759 0.0561,0.232569 0.0147,0.02881 0.0634,0.143229 0.10784,0.254262 0.0444,0.111033 0.14669,0.340346 0.22728,0.509583 0.14535,0.305306 0.14652,0.308987 0.1483,0.472062 0.002,0.197226 -0.0193,0.225376 -0.15652,0.206552 -0.0657,-0.009 -0.0936,-0.0039 -0.12298,0.02275 -0.0335,0.03028 -0.0365,0.05114 -0.0261,0.174723 0.0183,0.215492 0.0147,0.217381 -0.39666,0.221765 -0.1951,0.0021 -0.33536,-0.0042 -0.34217,-0.01516 z m -6.3302,-4.608042 c 0.0624,-0.06735 0.0627,-0.114458 0.002,-0.322193 -0.0554,-0.188589 -0.0772,-0.224761 -0.058,-0.09627 0.009,0.05957 0.005,0.105467 -0.0114,0.135849 -0.0152,0.0283 -0.0231,0.103373 -0.0202,0.195866 0.002,0.08249 -0.005,0.169817 -0.0172,0.194067 -0.0193,0.03996 -0.0178,0.03954 0.0167,-0.0044 0.0209,-0.02669 0.0607,-0.07299 0.0884,-0.102886 z m 1.6188,-1.250737 c -0.008,-0.07098 -0.0775,-0.08271 -0.12115,-0.0205 -0.0299,0.04258 -0.0292,0.04539 0.0126,0.05739 0.0939,0.02688 0.11497,0.01972 0.10846,-0.03688 z m 0.17822,-0.04367 c 0,-0.02007 -0.009,-0.04192 -0.0195,-0.04852 -0.0114,-0.007 -0.0195,0.01313 -0.0195,0.04852 0,0.0354 0.008,0.05553 0.0195,0.04852 0.0107,-0.0066 0.0195,-0.02843 0.0195,-0.04852 z m -0.41723,0.01941 c 0.007,-0.01067 0.003,-0.01941 -0.009,-0.01941 -0.0112,0 -0.0205,0.0087 -0.0205,0.01941 0,0.01067 0.004,0.01941 0.009,0.01941 0.005,0 0.0141,-0.0087 0.0205,-0.01941 z m 1.50567,-0.234915 c -0.0171,-0.04274 -0.0185,-0.04323 -0.0198,-0.006 0,0.02224 0.005,0.04625 0.0117,0.05337 0.0231,0.02318 0.0271,2.21e-4 0.008,-0.04731 z"
         id="path1309"
         sodipodi:nodetypes="sssssssscssssscsssssscssscssssssssscscsssssscccsssssssssscscsssssscsscssscssssssscsssscssssssssscssssscccccccccccssssscccsscsssssscsssssssscssssssssssscsscsssssssssssssssssssssscccsssssssssssssssssssssssscssssssssssscccsssssssssssssssssssssssssssssssssssscsss" />
    </g>
  </g>
</svg>
