<?xml version="1.0" encoding="UTF-8" standalone="no"?>
<!-- Created with Inkscape (http://www.inkscape.org/) -->

<svg
   width="23.980055mm"
   height="9.8810596mm"
   viewBox="0 0 23.980055 9.8810596"
   version="1.1"
   id="svg6745"
   sodipodi:docname="inkporter-svg-de2d1i4p.svg"
   xmlns:inkscape="http://www.inkscape.org/namespaces/inkscape"
   xmlns:sodipodi="http://sodipodi.sourceforge.net/DTD/sodipodi-0.dtd"
   xmlns="http://www.w3.org/2000/svg"
   xmlns:svg="http://www.w3.org/2000/svg">
  <sodipodi:namedview
     id="namedview6747"
     pagecolor="#ffffff"
     bordercolor="#666666"
     borderopacity="1.0"
     inkscape:pageshadow="2"
     inkscape:pageopacity="0.0"
     inkscape:pagecheckerboard="0"
     inkscape:document-units="mm"
     showgrid="false"
     inkscape:zoom="0.66368547"
     inkscape:cx="397.02542"
     inkscape:cy="561.25984"
     inkscape:window-width="1920"
     inkscape:window-height="1017"
     inkscape:window-x="-8"
     inkscape:window-y="-8"
     inkscape:window-maximized="1"
     inkscape:current-layer="layer1" />
  <defs
     id="defs6742" />
  <g
     inkscape:label="Layer 1"
     inkscape:groupmode="layer"
     id="layer1"
     transform="translate(-85.511566,-161.36171)">
    <path
       d="m 99.810616,163.25191 v -0.0268 l -0.121003,0.19332 h 0.07761 z m 2.338564,6.40962 -0.21167,0.27587 c 0.0476,0.003 0.0935,0.0123 0.13688,0.0265 l -0.0451,-0.0356 0.20743,-0.2667 z m -1.61078,0.2667 -0.0145,0.0183 c 0.0194,0.004 0.0385,0.009 0.0568,0.0148 z m -1.419581,-0.2667 0.06421,0.0497 0.03845,-0.0497 z m -3.009547,0 0.106539,0.0832 0.06526,-0.0832 z m -4.609395,0 0.03069,0.024 0.01905,-0.024 z m 12.508093,-2.34139 h 0.91687 v -0.0208 h -0.91687 z m 1.79387,2.70228 0.73907,-0.5267 -0.70414,0.31327 7e-4,0.0159 c 0,0.0699 -0.0123,0.13653 -0.0356,0.19756 m -1.91276,0.85513 c 0.34925,-0.0483 0.69991,-0.19932 1.0093,-0.35278 l 0.27093,-0.14569 c -0.22931,-0.0427 -0.41028,-0.22437 -0.4512,-0.45332 l -0.17075,0.12805 -0.29598,-0.39228 h -0.39158 v 0.43074 c 0.1076,0.10266 0.17427,0.24765 0.17427,0.40746 0,0.14534 -0.055,0.27763 -0.14499,0.37782 m -1.58891,0.0183 0.76517,-0.002 c -0.0716,-0.0734 -0.12241,-0.16687 -0.14569,-0.27023 l -0.54363,-0.42404 c 0.055,0.0875 0.0868,0.18979 0.0868,0.30057 0,0.15451 -0.0617,0.29421 -0.16263,0.39617 m -1.49013,0.003 0.68932,-7.1e-4 c -0.091,-0.091 -0.15028,-0.21166 -0.16263,-0.34607 l -0.44344,-0.34678 c 0.0526,0.0861 0.0826,0.18697 0.0826,0.29422 0,0.15592 -0.0635,0.29774 -0.1658,0.39934 m -1.456977,0.002 0.661807,-7.1e-4 c -0.08184,-0.0808 -0.139343,-0.18662 -0.159098,-0.30585 l -0.369359,-0.28752 c 0.02258,0.06 0.03422,0.12489 0.03422,0.19227 0,0.15698 -0.06421,0.2995 -0.16757,0.40181 m -1.657702,0.002 0.866069,-7e-4 c -0.07444,-0.0734 -0.128411,-0.16687 -0.153458,-0.27199 l -0.754945,-0.58914 c 0.125589,0.1143 0.212373,0.27587 0.212373,0.45826 0,0.15769 -0.06526,0.30092 -0.170039,0.40357 m -1.4986,7.1e-4 h 0.710494 c -0.09948,-0.0974 -0.163689,-0.23072 -0.170039,-0.37994 l -0.512939,-0.40076 c 0.08925,0.0998 0.143581,0.23248 0.143581,0.37642 0,0.15839 -0.06562,0.30197 -0.171097,0.40428 m -1.540228,0.001 h 0.754239 c -0.10407,-0.1009 -0.169334,-0.24166 -0.171097,-0.39758 l -0.642762,-0.50201 -0.01976,0.025 c 0.151342,0.10195 0.251178,0.2734 0.251178,0.4692 0,0.15945 -0.06597,0.30268 -0.171803,0.40534 m -1.550811,7e-4 0.76588,-7e-4 c -0.102305,-0.0984 -0.166863,-0.23601 -0.17145,-0.38841 l -0.499533,-0.39017 -0.03175,0.0402 c 0.06879,0.0931 0.109008,0.20814 0.109008,0.33303 0,0.15945 -0.06562,0.30338 -0.172155,0.40604 m -1.613606,0 h 0.829734 c -0.09807,-0.0949 -0.161925,-0.22507 -0.171098,-0.37006 l -0.637116,-0.49742 -0.03422,0.0441 c 0.113595,0.10266 0.184856,0.25153 0.184856,0.41734 0,0.15945 -0.06562,0.30338 -0.172156,0.40604 m -2.524477,-0.47096 c 0.464608,0.2025 1.271763,0.47096 1.689805,0.47096 h 0.05151 c -0.106892,-0.10266 -0.172509,-0.24659 -0.172509,-0.40604 0,-0.0215 0.0011,-0.0423 0.0032,-0.0632 l -0.535869,-0.4184 0.278342,-0.35665 h -0.880181 c 0.02752,0.0667 0.04304,0.14005 0.04304,0.2159 0,0.28257 -0.207081,0.51576 -0.477308,0.55738 m -1.474259,-1.37512 0.152753,0.15734 c 0.2413,0.24765 0.47625,0.48683 0.670631,0.68121 l -3.53e-4,-0.0208 c 0,-0.16757 0.07338,-0.31856 0.190147,-0.42193 v -0.13229 l -0.0635,7.1e-4 c -0.353836,0 -0.680861,-0.0974 -0.949678,-0.26423 m -0.557741,-0.57926 0.02434,0.025 -0.01341,-0.025 z m 2.512483,-4.01567 3.782483,0.13229 v -0.21908 h 0.28187 c 0.02928,-0.0702 0.06597,-0.13511 0.108302,-0.19473 v -0.17427 l 0.0046,-0.0212 0.279399,-0.0593 c 0.104423,-0.0564 0.220839,-0.0882 0.343253,-0.0882 0.02011,0 0.03951,7.1e-4 0.05962,0.002 l 0.272697,-0.0579 v -0.83043 h 0.08431 v 0.81244 l 0.05856,-0.0123 c 0.202847,-0.21449 0.563739,-0.35737 0.975078,-0.35737 0.154516,0 0.30233,0.0205 0.437091,0.0571 l 0.141111,-0.03 0.01729,0.0829 c 0.02011,0.008 0.03916,0.0159 0.05856,0.0247 v -0.11359 h 0.140405 c 0.05327,-0.139 0.255764,-0.24236 0.497064,-0.24236 0.134408,0 0.256822,0.0317 0.347839,0.0843 h 1.312686 v 0.15805 h 0.569383 v -0.83326 h 0.179917 v 0.83326 h 0.203553 l 0.280105,-0.44838 0.414157,-1.60761 0.0815,0.0208 -0.398986,1.5494 -0.0092,0.0374 -0.04269,0.16404 h 0.04092 v 0.28434 h 0.347486 v 0.37959 h 0.2226 l -0.21025,-0.0402 0.0543,-0.33972 1.96886,0.37994 h 0.14746 v 1.51835 h -1.53388 l 0.0159,0.0159 -0.64912,0.64911 -0.0159,-0.0162 v 0.0265 h 1.64535 v -0.042 h -0.19014 v -0.16898 h 0.19014 v -0.0843 h 2.6155 v 0.10513 h 1.772 v 0.19015 h 0.92781 0.0314 c 0.27588,0 0.53023,0.12982 0.73343,0.34819 h 0.61595 v 0.21343 l 0.0617,-0.20249 0.7567,0.23071 0.0152,0.0109 v 0.88618 h -0.53022 l 0.36689,0.45367 c 0.0674,0.0501 0.11077,0.12559 0.11077,0.21061 0,0.15169 -0.13758,0.27411 -0.30586,0.27411 -0.0427,0 -0.0833,-0.007 -0.11994,-0.0215 l -1.16276,0.51752 0.0307,0.0427 -1.99107,1.41852 -0.83432,0.44908 c 0,0 -0.39829,0.19932 -0.70662,0.28681 -0.1718,0.049 -0.31503,0.0931 -0.49353,0.11077 -0.21097,0.0219 -13.198125,0.0226 -13.198125,0.0226 0,0 -0.249414,0 -0.475897,-0.0459 -0.227895,-0.0452 -1.360311,-0.45191 -1.540228,-0.54187 -0.202141,-0.10089 -1.654528,-1.62842 -2.173111,-2.17522 h -0.956733 v -0.86502 h 1.117953 v -0.042 h -1.110192 c 0.07514,-0.88864 0.684742,-1.58185 1.425928,-1.58185 h 0.605719 l 0.0067,-0.19121 3.584928,0.12524 v -0.22931 h 0.316441 v 0.24025 l 2.161822,0.0755 v -0.60572 c -0.06914,-0.0963 -0.122061,-0.2092 -0.154163,-0.33232 h -0.236009 v -0.13405 l -3.782483,-0.13194 z m -0.140406,1.25236 h 0.08396 v 0.0843 h -0.08396 z"
       id="S-Churchill"
       style="stroke-width:0.352778" />
  </g>
</svg>
