<?xml version="1.0" encoding="UTF-8" standalone="no"?>
<!-- Created with Inkscape (http://www.inkscape.org/) -->

<svg
   width="14.359802mm"
   height="6.192265mm"
   viewBox="0 0 14.359802 6.192265"
   version="1.1"
   id="svg7426"
   sodipodi:docname="inkporter-svg-2gz7mzxi.svg"
   xmlns:inkscape="http://www.inkscape.org/namespaces/inkscape"
   xmlns:sodipodi="http://sodipodi.sourceforge.net/DTD/sodipodi-0.dtd"
   xmlns="http://www.w3.org/2000/svg"
   xmlns:svg="http://www.w3.org/2000/svg">
  <sodipodi:namedview
     id="namedview7428"
     pagecolor="#ffffff"
     bordercolor="#666666"
     borderopacity="1.0"
     inkscape:pageshadow="2"
     inkscape:pageopacity="0.0"
     inkscape:pagecheckerboard="0"
     inkscape:document-units="mm"
     showgrid="false"
     inkscape:zoom="0.64052329"
     inkscape:cx="313.80592"
     inkscape:cy="842.28007"
     inkscape:window-width="1904"
     inkscape:window-height="1041"
     inkscape:window-x="1914"
     inkscape:window-y="11"
     inkscape:window-maximized="0"
     inkscape:current-layer="layer1" />
  <defs
     id="defs7423">
    <clipPath
       clipPathUnits="userSpaceOnUse"
       id="clipPath180456-5-6">
      <path
         d="M 0,0 H 595.276 V 841.89 H 0 Z"
         id="path180454-2-9" />
    </clipPath>
  </defs>
  <g
     inkscape:label="Layer 1"
     inkscape:groupmode="layer"
     id="layer1"
     transform="translate(-68.825661,-183.61319)">
    <g
       id="S-Flamethrower"
       transform="matrix(0.05721694,0,0,0.05721694,73.33226,192.41726)">
      <path
         id="path22358"
         d="m 118.88378,-49.06033 c -0.72193,-0.93301 -0.71268,-1.69022 0.0454,-3.72494 0.6921,-1.85755 0.84304,-3.17462 1.19592,-10.435665 0.24197,-4.97852 0.58065,-8.785715 0.84484,-9.496932 0.73065,-1.966941 1.1828,-5.24266 1.71902,-12.453935 0.61191,-8.229161 0.63489,-10.695186 0.1205,-12.923749 -0.33625,-1.456731 -0.53213,-1.728031 -1.43449,-1.986819 -0.96538,-0.27687 -1.60027,-1.07315 -2.04735,-2.56779 -0.15428,-0.51575 -0.63886,-0.59356 -3.6962,-0.59356 -3.02781,0 -3.72718,-0.11 -5.0135,-0.78856 -1.55504,-0.82032 -2.16021,-2.08028 -1.27014,-2.64446 0.2495,-0.15815 2.46698,-0.28988 4.92772,-0.29274 2.46073,-0.003 4.55771,-0.14052 4.65994,-0.30594 0.10217,-0.16541 -0.0572,-0.50244 -0.35422,-0.74897 -0.60337,-0.50076 -4.90492,-6.48606 -5.53435,-7.70067 -0.50983,-0.9838 -0.0883,-2.37082 1.42207,-4.67989 1.36716,-2.09003 3.51578,-6.09188 5.63485,-10.49495 1.52326,-3.1651 1.80914,-3.53502 4.0562,-5.2487 1.77472,-1.35346 2.68355,-2.34287 3.41831,-3.72142 0.55047,-1.03278 1.39469,-2.24779 1.87606,-2.70001 l 0.87522,-0.82222 -1.02153,-0.42952 c -1.1466,-0.48211 -1.25081,-0.96259 -0.51485,-2.37375 0.27868,-0.53434 0.50762,-1.66107 0.50877,-2.50386 0.003,-1.83087 1.17647,-3.77695 2.77805,-4.60517 0.59571,-0.30804 1.91221,-0.55649 3.00329,-0.56677 3.40098,-0.032 5.30931,1.73684 5.54794,5.14253 0.0955,1.36251 0.32103,1.93088 1.0253,2.58358 0.74349,0.68904 0.83922,0.95579 0.54219,1.5108 -0.19839,0.37071 -0.66248,0.83551 -1.0313,1.03289 -0.81312,0.43517 -0.86103,1.11143 -0.12217,1.72461 0.30161,0.25031 0.9145,1.22835 1.36197,2.17342 0.60132,1.27 1.35042,2.10923 2.87127,3.21674 2.6951,1.96262 3.58524,3.06627 4.19305,5.19876 0.69756,2.44738 1.53979,8.4184 1.53979,10.91648 0,1.33708 0.29667,2.93493 0.82651,4.45141 0.75859,2.17128 0.79758,2.57323 0.4746,4.89239 -0.29197,2.09654 -1.2758,7.58318 -1.70027,9.48216 -0.0681,0.30456 0.21169,0.53727 0.73833,0.61414 1.14212,0.16671 1.98985,0.979864 2.31016,2.215909 0.30629,1.18206 -0.3528,0.932372 10.39502,3.937991 4.09636,1.145548 7.63593,2.238825 7.86569,2.429506 0.62885,0.521904 0.15707,1.314624 -0.78239,1.314624 -0.85945,0 -5.77666,-1.239191 -12.88186,-3.246371 -4.48153,-1.266009 -6.0446,-1.408527 -7.05624,-0.64337 -0.90523,0.684688 -2.17379,0.623684 -3.75091,-0.180373 -0.7318,-0.373095 -1.37458,-0.678353 -1.42841,-0.678353 -0.0538,0 -0.0986,0.953933 -0.0996,2.119851 -0.001,1.165918 -0.40377,4.790863 -0.89522,8.055434 -0.53504,3.554125 -0.92441,7.704664 -0.97048,10.344873 -0.0646,3.702331 -0.23027,4.925916 -1.03326,7.631464 -0.7776,2.620064 -0.98227,4.054827 -1.09525,7.678094 -0.15688,5.031231 -0.003,5.563731 1.88738,6.533191 1.87184,0.95993 2.85944,2.15668 2.728,3.30576 l -0.11076,0.96805 -5.34817,0.0934 c -3.46166,0.0605 -5.59753,-0.04 -6.05512,-0.28491 -0.68645,-0.36738 -0.70051,-0.53741 -0.4848,-5.85943 0.43883,-10.826209 0.46217,-32.532545 0.0365,-33.971879 l -0.40119,-1.356705 -0.26224,1.344983 c -0.14424,0.739743 -0.50189,1.808148 -0.79477,2.374232 -0.8086,1.562854 -1.43583,4.226071 -1.44064,6.116893 -0.005,1.929757 -0.86089,6.360789 -1.43485,7.427464 -0.21095,0.392019 -0.49189,1.246967 -0.62433,1.899881 -0.13243,0.652915 -0.63953,2.637095 -1.12687,4.40929 -0.48735,1.772196 -0.88647,3.649485 -0.88694,4.171752 -3.5e-4,0.522266 -0.21001,1.361728 -0.46565,1.865469 -0.76218,1.501967 -1.20929,4.97426 -1.02437,7.95557 0.0974,1.57139 0.0288,3.00714 -0.15669,3.27742 -0.59547,0.86758 -6.4878,1.38479 -7.07855,0.62133 z m 4.93535,-65.67229 c 0.35094,-0.22249 0.17979,-0.70911 -0.77358,-2.19945 -0.67331,-1.05256 -1.29583,-1.91376 -1.38337,-1.91376 -0.0876,0 -0.15917,0.84438 -0.15917,1.87639 0,1.6289 0.10063,1.91687 0.76315,2.18316 0.97711,0.39275 1.01599,0.39409 1.55297,0.0537 z" />
      <path
         id="path22626"
         d="m 76.749383,-49.755336 c -1.2569,-0.364412 -1.74631,-0.998669 -1.50683,-1.952811 0.21408,-0.85295 1.15481,-1.365699 3.86383,-2.105969 2.05972,-0.562832 4.42758,-2.542678 5.26681,-4.40371 0.64225,-1.424291 0.48651,-2.830661 -0.8594,-7.76061 -1.26409,-4.630141 -1.41655,-4.925964 -2.93289,-5.690501 -1.69877,-0.856509 -4.02917,-3.855882 -4.72552,-6.082016 -0.98832,-3.159499 -0.92161,-5.700685 0.269,-10.247521 0.59054,-2.255154 1.16497,-4.334972 1.27653,-4.621819 0.15691,-0.403442 -0.11318,-0.675055 -1.19258,-1.199489 -1.29997,-0.631572 -1.55276,-0.994412 -1.41192,-2.026497 0.0305,-0.223595 -0.46584,-0.857267 -1.10298,-1.408139 l -1.15847,-1.001597 -0.0166,-2.843995 c -0.009,-1.5642 -0.17214,-3.12788 -0.36224,-3.47486 -0.19008,-0.34696 -0.44105,-1.68416 -0.55772,-2.97153 l -0.2121,-2.34068 0.95399,-0.36008 c 0.78356,-0.29577 0.95266,-0.52454 0.94656,-1.28062 -0.0127,-1.56898 -0.57443,-3.57492 -1.54429,-5.51423 -0.7211,-1.4419 -0.96787,-2.40843 -1.09741,-4.29817 -0.14782,-2.15676 -0.24663,-2.47422 -0.85666,-2.75215 -0.405,-0.18454 -0.77484,-0.70253 -0.89624,-1.25526 -0.11553,-0.52598 -0.60363,-1.23454 -1.1066,-1.6064 -0.79756,-0.58967 -0.87847,-0.79211 -0.71154,-1.78017 0.17182,-1.01703 0.0932,-1.18742 -0.89603,-1.94194 -1.26586,-0.96552 -1.29597,-1.12337 -0.44274,-2.32161 0.44438,-0.62407 0.58895,-1.16445 0.47027,-1.75784 -0.22637,-1.13182 0.30986,-3.03773 1.09331,-3.88589 1.01875,-1.10291 3.59672,-1.90139 6.13884,-1.90139 3.67836,0 5.03885,0.85023 5.80945,3.63063 0.75691,2.73102 0.6654,2.60749 1.42032,1.91744 2.07274,-1.89464 4.54439,-2.11789 6.78144,-0.61254 0.80679,0.5429 1.5398,1.28994 1.62888,1.66007 0.0891,0.37015 2.60359,3.29519 5.58779,6.5001 2.9842,3.20492 5.628347,6.31188 5.875887,6.90435 0.27973,0.66946 0.38152,1.50614 0.26891,2.21037 -0.17573,1.09895 -0.10332,1.21004 2.40059,3.68034 3.01425,2.97383 3.3231,3.89925 1.54876,4.64061 -1.81352,0.75774 -2.22001,1.86685 -2.39066,6.52304 -0.1742,4.7532 -0.49729,5.858398 -2.454347,8.395806 -1.60096,2.075664 -5.14621,8.19927 -6.39308,11.042558 -0.47618,1.085821 -1.14013,2.275828 -1.47546,2.644465 l -0.60969,0.670245 0.70324,1.732683 c 0.38679,0.952971 0.69578,2.223139 0.68664,2.822591 -0.0237,1.556211 0.79333,6.63911 1.29972,8.085727 0.45971,1.313181 0.51119,2.864226 0.13578,4.090129 -0.19142,0.625109 -0.0653,0.903036 0.71365,1.572546 0.89317,0.767671 0.94213,0.920851 0.87375,2.733522 -0.0398,1.056159 -0.0718,3.508724 -0.0709,5.450147 l 9.5e-4,3.529869 -0.8402,0.341534 c -0.46212,0.187836 -4.18876,0.477403 -8.28145,0.643464 -8.53775,0.346435 -8.63809,0.346205 -9.90879,-0.02215 z" />
      <path
         d="m 38.909905,-45.718393 c -0.43656,-0.0719 -0.94258,-0.253828 -1.12448,-0.404291 -0.54012,-0.446773 -0.39515,-1.750509 0.25151,-2.261889 1.22538,-0.96901 2.83463,-2.78858 3.26111,-3.68733 0.42802,-0.90197 0.42428,-0.95744 -0.0998,-1.4815 l -0.54445,-0.54446 -1.6657,0.88998 c -3.23092,1.72626 -3.58473,1.86612 -5.75731,2.27589 -2.66974,0.50353 -3.73089,0.3406 -4.613535,-0.70835 -1.18925,-1.41335 -1.49413,-3.67303 -0.94885,-7.03262 l 0.26389,-1.62588 -0.92735,-0.92735 c -0.9331,-0.933103 -1.10894,-1.665693 -0.93387,-3.890683 0.0643,-0.81756 0.0481,-0.80045 -2.378592,2.51354 -2.49819,3.411583 -4.5987,5.477593 -5.99413,5.895673 -1.49528,0.448 -1.52888,0.43987 -2.72431,-0.65926 -0.82247,-0.75622 -1.06728,-1.1767 -1.06728,-1.83319 0,-0.95632 0.51767,-1.60405 1.47371,-1.84401 0.46607,-0.11697 0.65124,-0.35366 0.67307,-0.86029 0.0166,-0.384413 0.069,-1.413303 0.11642,-2.286423 0.0475,-0.87313 0.13741,-3.31391 0.19988,-5.42396 0.14203,-4.79737 0.53941,-8.84708 0.98657,-10.05416 0.18868,-0.50933 0.61919,-1.36762 0.95668,-1.90733 0.8956,-1.43221 1.1081,-2.82568 1.04062,-6.82392 -0.0666,-3.9452 0.0869,-5.03806 0.85291,-6.074184 l 0.51553,-0.69729 -0.81042,-0.0618 c -0.98363,-0.075 -1.50705,-0.47099 -1.50705,-1.140266 0,-0.2752 -0.12135,-0.707104 -0.26967,-0.959794 -0.14831,-0.252694 -0.48794,-1.173818 -0.75473,-2.046946 -0.35825,-1.172474 -0.66253,-1.675044 -1.16391,-1.922314 -0.37336,-0.18414 -0.93427,-0.86244 -1.24645,-1.50733 -0.48355,-0.99886 -0.51806,-1.26277 -0.23301,-1.78186 0.18403,-0.33513 0.36967,-0.8192 0.41254,-1.07569 0.25488,-1.52525 1.25246,-3.60851 2.16487,-4.52092 0.93267,-0.93267 1.201,-1.04441 3.11491,-1.29709 1.73976,-0.2297 2.43889,-0.19985 4.12955,0.17628 1.805272,0.40164 2.139232,0.57432 2.955932,1.52844 0.79916,0.93365 1.38241,2.4852 1.62208,4.31506 0.0191,0.14552 0.10661,0.44318 0.194555,0.66146 0.0879,0.21828 0.1955,0.68237 0.23901,1.03131 0.0435,0.34893 0.28213,0.76167 0.53025,0.91718 0.35572,0.22295 0.59867,0.14473 1.14877,-0.36985 1.15339,-1.07892 1.22582,-1.41133 0.51689,-2.37222 -0.35213,-0.47729 -0.71217,-1.41672 -0.8001,-2.08763 -0.0879,-0.67091 -0.40942,-2.01534 -0.71444,-2.98764 -0.52459,-1.6722 -0.5305,-1.80456 -0.10929,-2.44739 0.341,-0.52044 0.6673,-0.67959 1.3933,-0.67959 0.65512,0 1.25893,-0.24625 1.95437,-0.79706 1.18292,-0.93688 2.87398,-1.58419 4.13864,-1.58419 1.10042,0 2.69121,0.63282 2.88945,1.14944 0.0841,0.21907 0.35677,0.32437 0.64491,0.24902 0.35756,-0.0935 0.65276,0.12128 1.04025,0.75685 0.29756,0.48807 0.54146,1.05262 0.54201,1.25455 5.3e-4,0.20194 2.00221,2.46413 4.44816,5.02709 6.26478,6.56448 7.95892,8.616688 8.16207,9.887166 0.0911,0.569704 0.32738,1.097898 0.52507,1.173758 0.19769,0.0759 0.35944,0.4436 0.35944,0.817196 v 0.67927 l 0.59531,-0.55766 c 0.60862,-0.570146 1.80701,-1.12208 2.4363,-1.12208 0.49526,0 0.72027,0.73935 0.40455,1.32928 -0.14635,0.27346 -0.94959,0.98665 -1.78499,1.584864 -0.83538,0.59821 -1.52071,1.16952 -1.52293,1.26957 -0.002,0.10005 -0.0949,0.32477 -0.20586,0.49937 -0.12483,0.19639 0.0281,0.43636 0.40093,0.62927 0.82868,0.42872 1.77233,1.59418 1.78383,2.20314 0.009,0.45685 0.0529,0.46636 0.47254,0.10158 0.70963,-0.61678 3.12957,-0.81168 3.64748,-0.29377 0.22981,0.22982 0.35146,0.59083 0.27033,0.80225 -0.0811,0.21141 -0.14749,0.43419 -0.14749,0.49505 0,0.0608 -0.15875,0.11065 -0.35278,0.11065 -0.64305,0 -0.38628,0.90816 0.65135,2.30375 1.12005,1.50643 1.21418,1.80012 0.64685,2.01782 -0.36488,0.14002 -1.29753,-0.8645 -1.95291,-2.10341 -0.64055,-1.21087 -3.13733,-0.98377 -4.53345,0.41235 -0.30504,0.30505 -1.08728,0.55553 -2.10307,0.67343 -0.88955,0.10324 -1.67781,0.28552 -1.7517,0.40507 -0.0739,0.11955 0.16614,0.45373 0.53341,0.74262 0.36727,0.28889 0.90758,1.0674 1.20069,1.73002 0.29311,0.66262 0.64536,1.27426 0.78278,1.35919 0.33748,0.20857 1.32258,3.44826 1.32258,4.34954 0,1.03468 -1.90292,2.6617 -3.11305,2.6617 -0.31285,0 -0.83055,0.50703 -1.37393,1.34561 -1.05027,1.62083 -2.35879,2.61282 -4.50561,3.41568 -1.53715,0.57485 -2.0996,1.07891 -2.8906,2.59048 l -0.31653,0.6049 0.9728,-0.40646 c 0.53503,-0.22355 1.26265,-0.40646 1.61691,-0.40646 0.35428,0 1.56014,-0.46767 2.67968,-1.03927 1.11954,-0.5716 2.58384,-1.11832 3.25398,-1.21493 1.11258,-0.16038 1.26778,-0.11295 1.78595,0.54579 0.67933,0.86363 0.80454,3.1361 0.19181,3.4812 -0.48923,0.27555 -0.11652,2.449 0.59536,3.471823 0.66023,0.94861 1.04579,2.14694 0.95743,2.97569 -0.25605,2.40157 -1.32843,4.1841 -2.55416,4.24558 -1.98537,0.0996 -2.37156,-0.29347 -2.62577,-2.67258 -0.22689,-2.12351 -1.03877,-3.61795 -1.78186,-3.27991 -0.23817,0.10835 -0.79023,0.21185 -1.2268,0.23 -0.43655,0.0181 -1.15335,0.26449 -1.59286,0.54741 -0.7261,0.4674 -0.78543,0.61111 -0.64927,1.57274 0.0824,0.58209 0.36888,1.38947 0.63654,1.7942 0.26765,0.40472 0.41518,0.80733 0.32782,0.89468 -0.0874,0.0874 -0.059,0.35153 0.063,0.58706 0.122,0.23553 0.30086,1.46558 0.39746,2.73345 0.19492,2.55834 0.33586,2.26203 -1.93623,4.0704 -0.64132,0.51043 -1.57281,1.098017 -2.06996,1.305738 -0.99744,0.416753 -3.72711,0.676378 -4.96606,0.472332 z m -18.449297,-15.67302 c 1.50221,-1.831153 1.16645,-2.245883 -0.38792,-0.47916 -0.66966,0.76115 -1.48844,1.55481 -1.81952,1.7637 -0.33107,0.20888 -0.58598,0.59179 -0.56646,0.8509 0.0319,0.42425 0.1155,0.40997 0.83975,-0.14353 0.44235,-0.33805 1.31272,-1.23442 1.93415,-1.99191 z m 4.56674,-5.892043 c 0.949062,-1.34597 1.013382,-1.53193 0.60828,-1.75863 -0.35883,-0.20082 -0.60747,-0.0591 -1.19614,0.6816 -0.40872,0.51432 -0.74313,1.08129 -0.74313,1.25993 0,0.17865 -0.23813,0.62754 -0.52917,0.99754 -0.29104,0.37 -0.52489,0.9516 -0.51965,1.29245 0.009,0.60458 0.0255,0.60033 0.66402,-0.17402 0.35998,-0.43656 1.13208,-1.47105 1.71579,-2.29887 z m 2.255892,-2.97857 c 0.29227,-0.44606 0.34743,-0.7842 0.17747,-1.08791 -0.21426,-0.38286 -0.32336,-0.3329 -0.83159,0.38084 -0.55143,0.77441 -0.55692,1.3543 -0.0128,1.3543 0.13358,0 0.4337,-0.29125 0.66695,-0.64723 z m -1.04113,-5.44917 c 0.0726,-0.78195 0.40423,-1.99043 0.73689,-2.68552 0.56426,-1.17903 0.57503,-1.29075 0.16058,-1.66583 -0.41062,-0.3716 -0.50702,-0.15498 -1.273602,2.86195 -0.45615,1.79519 -0.90913,3.49225 -1.00664,3.77125 -0.14383,0.41156 -0.0426,0.37827 0.53672,-0.17643 0.550052,-0.52671 0.744302,-1.01012 0.846052,-2.10542 z m 26.988035,-10.69457 c 0.0816,-0.21274 0.37556,-0.45889 0.65316,-0.54699 0.2776,-0.0881 0.50472,-0.32275 0.50472,-0.52141 0,-0.19867 0.24682,-0.43956 0.54849,-0.5353 0.503,-0.15965 0.51397,-0.21222 0.13229,-0.63398 -0.22891,-0.25294 -0.41619,-0.69191 -0.41619,-0.9755 0,-0.54409 -0.68943,-1.69168 -1.0163,-1.69168 -0.527,0 -1.01892,1.59066 -1.04325,3.37344 -0.0242,1.77286 0.27159,2.48388 0.63708,1.53142 z m -1.66544,-3.47204 c -0.1953,-0.50892 -1.41001,-0.48963 -1.41001,0.0224 0,0.21828 0.0989,0.39687 0.21987,0.39687 0.12093,0 0.38521,0.30892 0.58727,0.68649 l 0.3674,0.68649 0.18959,-0.70888 c 0.10427,-0.38988 0.12491,-0.87739 0.0459,-1.08336 z M 34.388985,-102.8555 c 0.0892,-0.23247 -0.11158,-0.49435 -0.5226,-0.68162 -0.57244,-0.26081 -0.75061,-0.22076 -1.25155,0.28134 -0.44273,0.44376 -0.50256,0.63607 -0.24722,0.7946 0.49551,0.30762 1.85368,0.0427 2.02137,-0.39432 z m -2.80327,-9.22494 c 0.26377,-0.5789 0.23879,-0.66146 -0.20006,-0.66146 -0.53436,0 -0.81044,0.44864 -0.61055,0.99219 0.18856,0.51276 0.48058,0.39362 0.81061,-0.33073 z"
         id="path22115" />
      <path
         d="m 8.1966125,-50.65952 c 0.8118965,-0.503513 1.37069,-1.483205 1.504552,-2.63783 0.110708,-0.954483 -0.3812635,-5.600393 -0.7331375,-6.923962 -0.176075,-0.662291 -0.3487115,-1.678308 -0.3836535,-2.257813 -0.117978,-1.957198 -2.8729897,-7.694134 -4.6871027,-9.760302 -1.03999,-1.184488 -1.098724,-1.692167 -0.281343,-2.431891 0.331144,-0.299684 0.602087,-0.81678 0.602087,-1.149106 0,-0.640458 -0.764018,-3.459254 -1.279667,-4.721208 -0.169134,-0.413933 -0.335479,-2.581434 -0.369658,-4.81667 -0.03414,-2.235235 -0.151703,-4.341664 -0.261158,-4.68095 -0.177429,-0.549979 -0.01138,-0.6559 1.533076,-0.976607 6.0054547,-1.247219 8.4980452,-4.43286 8.1134362,-10.369321 -0.275244,-4.24847 -2.4921815,-8.31469 -5.7676992,-10.57889 -0.987072,-0.68233 -1.919586,-1.3275 -2.072244,-1.43373 -0.152658,-0.10623 0.09512,-0.6817 0.550522,-1.27881 2.3879027,-3.13071 2.1457237,-7.30255 -0.536744,-9.24571 -0.662402,-0.47985 -1.40462,-0.87245 -1.649382,-0.87245 -0.779641,0 -3.799272,-1.87092 -4.661288,-2.88808 -0.457348,-0.53965 -1.337899,-1.13804 -1.9567808,-1.32976 -0.61887,-0.19172 -1.463899,-0.72633 -1.87783,-1.18802 -0.865828,-0.96572 -2.996032,-2.12018 -3.912151,-2.12018 -0.343568,0 -0.946101,0.2106 -1.338971,0.46803 -0.647053,0.42397 -0.87046,0.42262 -2.373295,-0.0142 -1.482617,-0.43101 -1.76561,-0.43446 -2.661828,-0.0324 -1.52889,0.68579 -1.89823,1.08554 -2.810344,3.04174 -0.462924,0.99285 -0.870312,1.84283 -0.905287,1.88886 -0.03493,0.0461 -0.422863,-0.0529 -0.861949,-0.21985 -1.639939,-0.62351 -4.326491,-0.8707 -6.498691,-0.59795 -2.563727,0.32192 -3.322921,0.0551 -3.322921,-1.16777 0,-1.21567 -2.336885,-4.61014 -3.612501,-5.24739 -1.509343,-0.754 -4.916735,-0.70666 -7.067886,0.0982 -2.980774,1.11526 -4.441692,2.90686 -4.844142,5.94064 -0.120857,0.91106 -0.433568,1.74374 -0.768763,2.0471 -0.992363,0.89808 -0.60855,2.00466 0.789642,2.27662 0.508879,0.099 0.587102,0.31539 0.505283,1.39797 l -0.09683,1.28085 1.044565,-0.0704 c 0.860014,-0.0579 1.196266,0.109 1.903043,0.94455 0.472162,0.5582 1.093558,1.39776 1.380874,1.86572 0.287317,0.46795 0.693725,0.86978 0.903125,0.89294 0.2094,0.0231 0.891873,0.0715 1.516614,0.10729 0.62474,0.0358 1.214415,0.14374 1.310376,0.2397 0.284006,0.28401 -1.126463,4.21111 -1.813373,5.04889 -0.348097,0.42453 -0.890189,1.44968 -1.204653,2.2781 -0.576304,1.51817 -0.741388,1.66977 -3.786959,3.47782 -1.372194,0.81461 -1.527946,0.89608 -3.167327,1.65663 -2.46466,1.14341 -3.160934,1.62887 -3.160934,2.20387 0,0.32984 -0.186621,0.59971 -0.414704,0.59971 -0.228082,0 -0.583348,0.20321 -0.789471,0.45156 -0.267268,0.32205 -0.97426,0.45157 -2.464977,0.45157 -2.404321,0 -3.10897,0.28106 -3.376443,1.34674 -0.188601,0.751459 -0.227696,0.760535 -3.270822,0.759547 -4.637701,-0.0015 -17.195495,0.636625 -17.466063,0.887547 -0.130425,0.120967 -0.145023,0.796066 -0.03243,1.500219 l 0.204724,1.28028 9.515237,-0.191543 c 5.233383,-0.105348 9.72424,-0.253312 9.979675,-0.328802 0.318401,-0.09409 0.555039,0.170044 0.752607,0.840043 0.245399,0.832239 0.466894,1.008463 1.492333,1.187303 0.662299,0.115504 2.108756,0.217812 3.214352,0.227356 1.823283,0.01575 2.068194,-0.0564 2.634111,-0.775855 0.34317,-0.436247 0.623933,-0.978123 0.623933,-1.204154 0,-0.332721 1.080132,-0.410965 5.673141,-0.410965 5.11372,0 5.72227,0.05429 6.171359,0.550526 0.274026,0.302793 0.498217,0.692612 0.498217,0.866268 0,0.78434 0.786991,0.965298 1.722873,0.396153 0.926348,-0.563344 0.943529,-0.562906 1.339914,0.03408 0.378829,0.570562 0.520553,0.584473 2.507656,0.246131 1.158368,-0.197236 2.344588,-0.567932 2.636034,-0.823776 0.291458,-0.25584 0.952142,-0.511386 1.468189,-0.567879 0.851287,-0.0932 0.901339,-0.05373 0.539975,0.425757 -0.845006,1.1212 -2.52429,2.787027 -2.824954,2.802311 -0.173365,0.0089 -1.174796,1.194166 -2.225403,2.634116 -1.050606,1.439949 -2.363065,3.193396 -2.916557,3.896547 -0.668511,0.849251 -1.075592,1.758845 -1.212549,2.709376 -0.113438,0.787007 -0.401334,1.905061 -0.639851,2.484567 -0.238527,0.579505 -0.560091,2.58991 -0.714592,4.467565 -0.154491,1.877656 -0.344878,3.517442 -0.423079,3.643969 -0.218388,0.353348 -1.063907,7.504512 -1.063907,8.998171 0,1.240975 -0.141792,1.468692 -2.287345,3.673453 -1.258037,1.292754 -2.646592,2.537243 -3.085679,2.765529 -2.026039,1.05337 -2.785267,1.640037 -2.95019,2.279666 -0.221472,0.858965 -0.128184,0.951581 1.300147,1.290726 1.338867,0.317906 3.245016,0.153754 7.56517,-0.651491 1.705533,-0.317896 3.567195,-0.577994 4.137037,-0.577994 2.049909,0 3.14291,-1.785033 3.146267,-5.138331 0.0011,-1.538583 0.546858,-4.068482 1.196005,-5.548652 0.145217,-0.331146 0.348029,-1.00849 0.450681,-1.50521 0.102629,-0.496719 0.618631,-2.391686 1.146625,-4.211042 0.854075,-2.942954 1.101785,-3.443768 2.245121,-4.539283 0.706822,-0.67725 1.285129,-1.445248 1.285129,-1.706654 0,-0.518093 5.691596,-6.551882 6.180313,-6.551882 0.361159,0 3.478959,-2.03143 3.904585,-2.544075 0.6931,-0.834791 3.266567,-2.586945 3.47202,-2.363936 0.401494,0.435788 1.755734,5.607917 2.112729,8.068949 0.19215,1.324584 0.604204,3.221148 0.915664,4.214585 0.311472,0.993439 0.568056,2.419585 0.570195,3.169216 0.0046,1.581257 0.555642,2.506313 1.903657,3.195167 0.528074,0.269844 1.051596,0.641609 1.163396,0.826145 0.111845,0.184536 1.6964309,2.232082 3.5213739,4.550103 1.82494698,2.318021 3.581737,4.557255 3.903973,4.976076 0.526719,0.684596 0.542819,0.84369 0.159382,1.575488 -0.527335,1.006472 -0.649477,5.839473 -0.170192,6.735014 0.58683,1.096512 4.644767,1.419976 6.1446416,0.489799 z M 2.0096328,-95.20024 c -0.151167,-1.618843 -0.09273,-2.120262 0.297216,-2.55117 0.366893,-0.405412 0.435707,-0.846845 0.281934,-1.808497 -0.111845,-0.699693 -0.315864,-1.414363 -0.453286,-1.588153 -0.137423,-0.17378 -0.876376,-1.80613 -1.64212401,-3.62744 -0.76573701,-1.8213 -1.71977899,-3.71786 -2.12007899,-4.21457 -0.663664,-0.8235 -0.686578,-0.94908 -0.259905,-1.42431 0.363104,-0.40442 0.389022,-0.61624 0.115701,-0.94557 -0.285005,-0.34342 -0.18108,-0.48406 0.54464,-0.73705 0.78351997,-0.27314 1.05070998,-0.20121 2.11432199,0.56927 0.67055901,0.48576 1.60415501,0.88192 2.07829701,0.88192 1.413803,0 4.6467452,2.65655 5.5972597,4.59931 1.5879965,3.24576 1.7428955,7.261163 0.3742315,9.701145 -0.946326,1.687042 -3.5080612,3.032987 -5.9557212,3.129153 -0.752367,0.02956 -0.792008,-0.05132 -0.972486,-1.984038 z m -34.6238658,-6.0238 c -0.454436,-0.35746 -1.226294,-0.73779 -1.715238,-0.84518 -0.488945,-0.10739 -0.888995,-0.26713 -0.888995,-0.35498 0,-0.41282 2.007891,-3.80212 3.558547,-6.00677 l 1.724137,-2.45131 0.820634,0.70588 c 0.451353,0.38824 0.820647,0.83734 0.820647,0.99801 0,0.16068 0.485327,0.45232 1.078505,0.64809 1.093558,0.3609 3.11302,2.24505 3.127938,2.91836 0.0046,0.20224 -0.321746,1.11365 -0.724947,2.02535 -0.683622,1.54581 -0.817245,1.67109 -1.98063,1.85713 -0.686148,0.10971 -1.388998,0.42599 -1.561886,0.70282 -0.480298,0.76909 -3.189674,0.64351 -4.258712,-0.1974 z"
         id="path22774" />
    </g>
  </g>
</svg>
