<?xml version="1.0" encoding="UTF-8" standalone="no"?>
<!-- Created with Inkscape (http://www.inkscape.org/) -->

<svg
   width="31.798298mm"
   height="13.347614mm"
   viewBox="0 0 31.798298 13.347614"
   version="1.1"
   id="svg2362"
   sodipodi:docname="inkporter-svg-j07bb7sx.svg"
   xmlns:inkscape="http://www.inkscape.org/namespaces/inkscape"
   xmlns:sodipodi="http://sodipodi.sourceforge.net/DTD/sodipodi-0.dtd"
   xmlns="http://www.w3.org/2000/svg"
   xmlns:svg="http://www.w3.org/2000/svg">
  <sodipodi:namedview
     id="namedview2364"
     pagecolor="#ffffff"
     bordercolor="#666666"
     borderopacity="1.0"
     inkscape:pageshadow="2"
     inkscape:pageopacity="0.0"
     inkscape:pagecheckerboard="0"
     inkscape:document-units="mm"
     showgrid="false"
     inkscape:zoom="0.90583672"
     inkscape:cx="29.806696"
     inkscape:cy="397.97459"
     inkscape:window-width="3840"
     inkscape:window-height="2081"
     inkscape:window-x="2391"
     inkscape:window-y="-9"
     inkscape:window-maximized="1"
     inkscape:current-layer="layer1" />
  <defs
     id="defs2359" />
  <g
     inkscape:label="Layer 1"
     inkscape:groupmode="layer"
     id="layer1"
     transform="translate(34.810365,-27.974634)">
    <g
       id="S-Infantry4-4sx3"
       transform="matrix(1.2834291,0,0,1.2834291,-326.30727,-39.572898)">
      <g
         transform="matrix(0.29209109,0,0,-0.29209109,-18.826981,210.43633)"
         id="g5702-5-1-6-1">
        <path
           id="path30536-5-81-8-4-9"
           d="" />
        <path
           id="path26502-2-8-3-5-9"
           d="m 874.90759,515.91496 c -0.0156,0.14062 -0.0312,0.30468 -0.0234,0.39843 0.0195,0.1875 0.2461,0.52344 0.2461,0.52344 0,0 -0.29297,0.3125 -0.3125,0.40234 -0.0195,0.0937 -0.1836,0.50782 -0.1836,0.50782 0,0 -0.49609,0.0508 -0.39843,0.16406 0.0937,0.11328 0.1875,0.375 0.17578,0.50391 -0.0117,0.125 0.16015,0.96875 0.91406,1.01171 0.75,0.043 1.20703,-0.40625 1.30078,-0.93359 0.0508,-0.29297 0.1875,-0.37891 0.1875,-0.37891 0,0 -0.35547,-0.0351 -0.36719,-0.0898 -0.0234,-0.13281 -0.11328,-0.31641 -0.11328,-0.31641 0,0 0.86328,0.27344 1.32813,-0.125 0.46484,-0.40625 0.64844,-0.65234 0.75781,-0.84375 0.11328,-0.1875 0.67188,-0.98828 0.69531,-1.2539 0.0195,-0.26563 0.23438,-0.95703 0.1211,-1.12891 -0.11328,-0.17187 -0.0508,-0.34375 -0.0508,-0.34375 0,0 0.0703,-0.17969 0,-0.25781 -0.0742,-0.0742 0.25781,-0.44141 0.26562,-0.53125 0.008,-0.0937 0.21094,-0.28516 0.0781,-0.37891 -0.13282,-0.0937 0.35937,-1.1914 0.35937,-1.1914 0,0 -0.20703,0.008 -0.23828,-0.0664 -0.0273,-0.0703 0.49219,-1.21484 0.47266,-1.37891 -0.0234,-0.16406 -0.19532,-0.83203 -0.10547,-0.9375 0.0898,-0.10937 0.0312,-0.29687 0.11328,-0.29687 0.082,-0.008 0.21094,-0.13672 0.21094,-0.13672 0,0 1.04687,-1.31641 1.17968,-1.41016 0.13672,-0.0898 0.54297,-0.3125 0.54297,-0.3125 0,0 0.0703,-0.0508 0.082,-0.16796 0.0117,-0.11329 -0.10156,-0.42579 -0.125,-0.53125 -0.0273,-0.10938 -0.0898,-0.70704 -0.0976,-0.76563 -0.008,-0.0586 -0.5586,-0.26953 -0.73047,-0.30859 -0.16797,-0.0391 -0.39844,0.0351 -0.31641,0.17968 0.0781,0.14844 0.28125,0.375 0.27735,0.52344 0,0.15625 0.0664,0.46094 0.0234,0.52735 -0.0391,0.0664 -1.82031,1.28515 -1.82031,1.28515 l -0.0117,0.12891 c 0,0 -0.14453,0.0195 -0.23047,0.0937 -0.0898,0.0742 -0.58984,0.58203 -0.6289,0.73047 -0.0352,0.14843 -0.1875,0.40234 -0.30078,0.50781 -0.11329,0.10547 -0.70704,0.77734 -0.82813,0.8125 -0.11719,0.0352 -0.56641,-0.0273 -0.80078,-0.26953 -0.23438,-0.23828 -0.59766,-0.375 -0.625,-0.4375 -0.0312,-0.0586 -0.0937,-0.40235 -0.0547,-0.5625 0.0391,-0.16016 0.082,-0.17969 0.0781,-0.25 -0.004,-0.0703 -0.0469,-0.13281 0.004,-0.19922 0.0547,-0.0625 0.0859,-1.09766 0.11328,-1.38672 0.0234,-0.28906 -0.004,-0.90625 0.0352,-1.06641 0.0391,-0.15625 0.20313,-0.46093 0.21094,-0.52734 0.004,-0.0664 -0.0195,-0.24609 -0.0195,-0.24609 -0.0586,-0.35547 -0.0156,-0.3125 0,-0.35938 0.0156,-0.043 -0.21875,-0.16797 -0.33594,-0.16797 -0.11328,0.004 -0.53516,0.14063 -0.60547,0.16797 -0.0742,0.0312 -0.51172,-0.008 -0.71094,-0.0117 -0.19531,-0.008 -0.82422,0.22657 -0.9375,0.35547 -0.11718,0.13281 0.004,0.35938 0.23828,0.34375 0.23438,-0.0156 0.62891,-0.0156 0.70704,0.0156 0.0781,0.0312 0.51953,0.16406 0.48046,0.36718 -0.043,0.20704 -0.59765,2.4375 -0.57031,2.52344 0.0274,0.082 0.082,0.11328 0.082,0.11328 0,0 -0.26562,0.10157 -0.27343,0.1836 -0.004,0.082 -0.37891,1.16797 -0.14454,1.42187 0.23438,0.25 1.23829,1.64063 1.25391,1.73828 0.0156,0.0937 -0.13672,-0.0351 -0.0742,0.1875 0.0625,0.23047 0.35938,0.70703 0.31641,0.78516 -0.043,0.0781 -0.0937,-0.0195 -0.23047,-0.0312 -0.13672,-0.0117 -0.23828,0.0586 -0.25781,0.14062 -0.0195,0.082 -0.38282,0.94532 -0.38282,0.94532 l -0.53906,1.26562 c -0.008,-0.0117 -0.0195,-0.0273 -0.0312,-0.0508 -0.0273,-0.0508 0.0117,-0.10547 -0.0156,-0.125 -0.0234,-0.0156 -0.043,0.043 -0.0352,0.12109 0,0.0312 0.0195,0.0937 0.0391,0.15235 l -0.0234,0.0586 -0.0117,-0.0117 -0.0352,0.008 c 0,0 -0.22656,-0.39844 -0.52734,-0.72657 -0.30078,-0.32812 -0.8711,-0.73437 -0.8711,-0.73437 l -0.21093,0.36328 c 0,0 0.60937,0.48047 0.80859,0.68359 0.20312,0.20313 0.41016,0.56641 0.41016,0.56641 l 0.0391,0.11719 c 0,0 -0.0586,0.043 -0.0508,0.11718 0.008,0.0742 0.0195,0.1211 0.0195,0.1211 l -0.29688,0.10547 -0.12109,0.125 c 0,0 -1.86719,0.68359 -2.00781,0.73047 -0.14063,0.0469 -0.12891,0.13671 -0.14063,0.21875 -0.008,0.0781 0.0195,0.19531 0.0899,0.17187 l 0.4375,-0.15234 0.13281,0.004 0.0898,0.11719 0.17969,-0.0625 -0.0156,-0.16016 0.0547,-0.0703 2.5625,-0.88281 0.0156,0.043 0.082,-0.0274 -0.0195,-0.0547 z m 0,0" />
        <path
           d="m 866.55994,514.85636 c -0.0664,-0.0703 -0.24219,-0.23047 -0.42188,-0.16797 -0.22656,0.0781 -1.33203,0.57032 -1.48828,0.625 -0.16016,0.0586 -0.36328,0.0664 -0.42188,0.10547 -0.0625,0.0469 -0.0703,0.12891 -0.0703,0.12891 l -0.12109,0.10937 c -0.14844,-0.24218 -0.28516,-0.43359 -0.28516,-0.43359 l -0.3164,0.27734 c 0,0 0.13281,0.20703 0.27343,0.4336 l -0.0586,0.0469 0.28125,0.63281 0.14062,0.0508 c 0.0664,0.20703 0.10547,0.41406 0.10547,0.41406 v 0.12109 c 0,0 -0.0664,0.0195 -0.0859,0.0937 -0.0195,0.0742 -0.0195,0.125 -0.0195,0.125 h -0.3164 l -0.15632,0.0742 c 0,0 -1.98828,0.043 -2.13672,0.043 -0.14844,0 -0.16406,0.082 -0.19922,0.15625 -0.0352,0.0742 -0.0469,0.19531 0.0234,0.19531 h 0.46484 l 0.1211,0.0469 0.0547,0.13672 h 0.1875 l 0.0391,-0.15625 0.0703,-0.0469 h 2.6289 l 0.21875,0.33984 c 0,0 0.004,0.004 0.008,0.004 l 0.004,0.0156 -0.13672,0.28906 -0.5,0.0234 c 0,0 0.27344,0.1875 0.35547,0.66015 0.082,0.47266 0.47266,1.12891 1.41797,1.01172 0.94141,-0.12109 1.13281,-1.16406 1.13281,-1.16406 0,0 0.008,-0.21094 0.0469,-0.28125 0.0352,-0.0742 0.14453,-0.20703 0.14453,-0.20703 l -0.30078,-0.0859 -0.0547,-0.33594 c 0,0 0.54688,0.17188 1.34375,-0.22656 0.80078,-0.39844 1.08985,-0.58203 1.49219,-1.41016 0.39844,-0.82422 0.42578,-0.80468 0.42578,-0.80468 l -0.13672,-0.53516 0.1836,-0.24609 0.59765,-0.60157 0.12891,-0.34375 -0.47266,-0.26562 c 0,0 0.3086,-0.59766 0.3711,-0.72656 0.0625,-0.125 0.10156,-0.48047 0.10156,-0.48047 l -0.32813,-0.33594 c 0,0 0.19141,-0.79688 0.16407,-1.43359 -0.0274,-0.63672 -0.27344,-0.94532 -0.27344,-0.94532 0,0 -0.0352,-0.7539 -0.082,-0.88281 -0.043,-0.125 -0.10938,-0.24219 -0.10938,-0.24219 l 0.0547,-0.64453 0.0352,-0.0859 c 0,0 0.18359,-0.0312 0.23828,-0.19921 0.0547,-0.16016 0.58203,-2.64844 0.58203,-2.64844 l -0.50781,-0.22266 -0.0742,0.14844 c 0,0 -0.27344,-0.24609 -0.35547,-0.25391 -0.082,-0.0117 -1.01563,-0.13672 -1.0625,-0.0742 -0.13281,0.1875 -0.0156,0.36719 0.21875,0.41797 0.61719,0.13672 0.7539,0.42578 0.77344,0.58203 0.0117,0.10938 -0.75391,1.32422 -0.75391,1.32422 0,0 -0.41797,0.82032 -0.41016,0.92578 0.0117,0.11329 -0.71875,0.7461 -0.71875,1.08204 0,0.33593 -0.21484,1.41015 -0.21484,1.41015 0,0 -0.49219,-0.42578 -0.73828,-0.45312 -0.24219,-0.0312 -0.5625,-0.12891 -0.76172,-0.44922 -0.19922,-0.31641 0.13672,-0.46094 0.20703,-0.66016 0.0742,-0.19922 0.29297,-1.52734 0.375,-1.79687 0.082,-0.27344 0.37891,-1.13672 0.37891,-1.13672 l -0.50782,-0.3086 -0.15234,0.043 c 0,0 -0.0937,-0.11718 -0.16406,-0.17187 -0.0742,-0.0547 -0.65625,-0.32422 -0.65625,-0.32422 0,0 -0.64453,0 -0.69922,0.008 -0.0508,0.008 -0.082,0.39844 0.26562,0.42578 0.34375,0.0274 0.5,0.16407 0.5,0.16407 l 0.26172,0.76171 c 0,0 -0.17968,0.8086 -0.42578,1.1211 -0.24609,0.30469 -0.60937,1.09765 -0.60937,1.09765 l 0.0195,0.13672 c 0,0 -0.39844,0.33594 -0.41016,0.57032 -0.008,0.23437 -0.0351,0.48828 -0.0351,0.48828 l 0.0898,0.1914 c 0,0 0.625,1 0.65234,1.0625 0.0274,0.0664 0.21094,0.21094 0.23828,0.35547 0.0274,0.14453 0.26172,0.41797 0.31641,0.4375 0.0547,0.0195 0.25391,0.125 0.21875,0.21485 -0.0352,0.0937 0,0.1914 0,0.1914 0,0 0.125,0.45313 0.22656,0.58985 0.10157,0.13671 0.0547,0.18359 0.10157,0.32031 0.0312,0.0976 0.0391,0.17578 0.043,0.21094 l 0.17969,0.25 z m -2.05469,1.82031 c 0.0508,-0.0156 0.0898,-0.0351 0.10937,-0.0625 0.0664,-0.082 0.17969,-0.1875 0.17969,-0.1875 l 0.76172,-0.0351 c 0,0 -0.0469,0.40234 0.0117,0.55078 0.0547,0.14844 0.004,0.20312 -0.16016,0.19922 -0.0625,0 -0.13281,0.0117 -0.19531,0.0273 l -0.44531,0.008 v -0.17968 c 0,0 -0.0156,-0.0391 -0.0234,-0.10157 -0.008,-0.0586 0.043,-0.0937 0.0234,-0.12109 -0.0195,-0.0234 -0.0547,0.0273 -0.0742,0.0977 -0.0156,0.0742 -0.008,0.3164 -0.008,0.3164 l -0.0508,-0.125 -0.0391,-0.004 c 0,0 -0.0273,-0.16407 -0.0898,-0.38282"
           id="path26504-2-6-1-0-2" />
        <path
           d="m 856.42322,505.59464 c 0.34375,0.0274 0.5,0.16407 0.5,0.16407 l 0.26172,0.76171 c 0,0 -0.17969,0.8086 -0.42579,1.11719 -0.24609,0.3086 -0.60937,1.09766 -0.60937,1.09766 l 0.0195,0.13672 c 0,0 -0.40234,0.33593 -0.41016,0.57422 -0.008,0.23437 -0.0391,0.48828 -0.0391,0.48828 l 0.0937,0.1914 c 0,0 0.625,1 0.65235,1.0625 0.0273,0.0625 0.21093,0.21094 0.23828,0.35547 0.0273,0.14844 0.26172,0.41797 0.3164,0.4375 0.0547,0.0156 0.25391,0.125 0.21875,0.21485 -0.0351,0.0937 0,0.1914 0,0.1914 0,0 0.12891,0.45703 0.22657,0.58985 0.0976,0.13671 0.0547,0.18359 0.0976,0.32031 0.0469,0.13281 0.0469,0.23437 0.0469,0.23437 0,0 -0.51563,0.0547 -0.76172,-0.008 -0.2461,-0.0625 -0.48047,-0.0703 -0.60938,-0.0469 -0.125,0.0273 -0.0625,0.11718 -0.37109,0.0195 -0.30859,-0.10157 -0.44531,-0.0547 -0.44531,-0.0547 l -0.0625,0.125 c 0,0 -0.0547,0.0547 -0.32813,-0.125 -0.27344,-0.18359 -0.5625,-0.19922 -0.6914,-0.19141 -0.125,0.008 -0.55079,0.51953 -0.55079,0.5625 0,0.0469 0.31641,0.88282 0.31641,0.88282 l 0.0273,0.45703 -2.2539,-0.2461 -0.16016,0.40625 0.33203,0.0547 0.0195,0.28125 0.38282,0.0352 0.13672,-0.21485 3.67578,0.4961 c 0,0 -0.0977,0.53515 -0.0352,0.77343 0.0625,0.23438 0.28906,0.57032 0.28906,0.57032 0,0 -0.44531,-0.0899 -0.53515,0.0195 -0.0899,0.10937 -0.11719,0.3164 -0.11719,0.3164 l -0.19141,0.2461 c 0,0 -0.11718,0.0469 -0.1289,0.10937 -0.008,0.0625 0.0117,0.22657 0.0117,0.22657 l -0.13672,0.28906 -0.5,0.0195 c 0,0 0.27343,0.19141 0.35547,0.66406 0.082,0.47266 0.47265,1.12891 1.41406,1.00781 0.94531,-0.11718 1.13672,-1.16406 1.13672,-1.16406 0,0 0.008,-0.20703 0.0469,-0.28125 0.0352,-0.0703 0.14453,-0.20703 0.14453,-0.20703 l -0.30078,-0.082 -0.0547,-0.33594 c 0,0 0.54688,0.17188 1.34375,-0.22656 0.80079,-0.40234 1.08985,-0.58203 1.49219,-1.41016 0.39844,-0.82422 0.42578,-0.80468 0.42578,-0.80468 l -0.13672,-0.53516 0.1836,-0.24609 0.59765,-0.60157 0.12891,-0.34375 -0.47266,-0.26172 c 0,0 0.3086,-0.60156 0.3711,-0.73046 0.0625,-0.125 0.10156,-0.48047 0.10156,-0.48047 l -0.32812,-0.33594 c 0,0 0.1914,-0.79688 0.16406,-1.43359 -0.0274,-0.63672 -0.27344,-0.94532 -0.27344,-0.94532 0,0 -0.0352,-0.7539 -0.082,-0.88281 -0.043,-0.125 -0.10938,-0.24609 -0.10938,-0.24609 l 0.0547,-0.64063 0.0352,-0.0859 c 0,0 0.18359,-0.0351 0.23828,-0.19921 0.0547,-0.16407 0.58203,-2.64844 0.58203,-2.64844 l -0.50781,-0.21875 -0.0742,0.14453 c 0,0 -0.27344,-0.24609 -0.35547,-0.25781 -0.082,-0.004 -1.01562,-0.13282 -1.0625,-0.0703 -0.13281,0.1875 -0.0156,0.36719 0.21875,0.41797 0.61719,0.13672 0.75391,0.42969 0.77344,0.58203 0.0117,0.10547 -0.75391,1.32422 -0.75391,1.32422 0,0 -0.41797,0.81641 -0.41015,0.92578 0.008,0.11329 -0.71875,0.7461 -0.71875,1.08204 0,0.33593 -0.21485,1.40625 -0.21485,1.40625 0,0 -0.49219,-0.42579 -0.73828,-0.45313 -0.24609,-0.0273 -0.5625,-0.125 -0.76172,-0.44531 -0.19922,-0.31641 0.13672,-0.46485 0.20703,-0.66016 0.0742,-0.20312 0.29297,-1.52734 0.375,-1.80078 0.0781,-0.27344 0.37891,-1.13281 0.37891,-1.13281 l -0.50781,-0.3086 -0.15625,0.043 c 0,0 -0.0899,-0.11718 -0.16016,-0.17187 -0.0742,-0.0547 -0.65625,-0.32813 -0.65625,-0.32813 0,0 -0.64453,0 -0.69922,0.0117 -0.0508,0.008 -0.082,0.39844 0.26563,0.42578 m -1.2461,8.91016 0.10938,-0.0625 c 0,0 0.26172,0.043 0.62109,0.10937 0.35156,0.0625 0.625,0.1875 0.625,0.1875 l -0.42578,0.27344 -0.10937,0.16406 -0.89454,-0.082 c 0,0 0.10157,-0.38281 0.0742,-0.58984"
           id="path26506-7-0-7-4-3" />
        <path
           d="m 854.09509,507.14152 c 0.17969,0.0547 0.33203,0.0742 0.39063,0.0742 0.10156,0 0.11718,-0.0117 0.11718,-0.0117 l 0.29688,0.0273 0.0156,-0.60547 -0.0742,-0.11328 0.0898,-0.46094 c 0,0 0.0234,-0.88671 -0.004,-1.14453 -0.0273,-0.26172 -1.13672,-0.10547 -1.13672,-0.10547 0,0 -0.082,0.27344 0.0352,0.33985 0.0937,0.0547 0.39453,-0.0234 0.43359,0.23047 -0.0391,0.17968 -0.0664,0.3164 -0.0742,0.33203 -0.0274,0.043 -0.0352,0.1914 -0.0742,0.15625 -0.043,-0.0312 -0.10547,0.0469 -0.1875,0.0742 -0.0508,0.0195 -0.125,-0.0274 -0.17188,-0.0625 l -0.004,-0.0117 c 0,0 -1.30079,-0.90625 -1.76954,-1.04297 -0.28515,-0.082 -0.69531,-0.10938 -1,-0.10547 l 0.004,-0.0117 -0.73437,-0.0156 -0.11329,0.0742 -0.46093,-0.0859 c 0,0 -1.38282,-0.0274 -1.64063,0 -0.26172,0.0273 -0.082,0.10156 -0.082,0.10156 0,0 0.0117,0.24609 0.14063,0.33984 0.1289,0.10157 1.1914,0.27735 1.23437,0.30469 0.043,0.0274 0.19141,0.0312 0.15625,0.0742 -0.0312,0.0391 0.0469,0.10156 0.0781,0.18359 0.0273,0.0859 -0.10547,0.21875 -0.10547,0.21875 l -0.0312,0.0547 h -0.004 c -0.22656,0.40235 -0.92578,1.41016 -1,1.52735 -0.0703,0.11718 -0.32422,0.39453 -0.32422,0.39453 0,0 -0.14062,-0.17188 -0.36719,-0.15235 -0.22265,0.0195 -0.46875,0.15235 -0.5,0.13282 -0.0391,-0.0156 -0.17187,-0.125 -0.24609,-0.11329 -0.0703,0.008 -0.1875,0.17579 -0.1875,0.17579 l -0.28906,-0.0899 -0.89844,-0.23047 2.51563,1.74219 0.26171,0.20703 c 0,0 -0.44921,-0.0351 -0.9414,-0.20703 -0.4961,-0.17187 -0.92578,-0.39453 -1.58203,-0.39453 -0.65625,0 -1.92188,-0.14453 -1.92188,-0.14453 l -0.0351,0.13281 c 0,0 -0.95313,-0.21484 -1.125,-0.17969 -0.17188,0.0391 -0.6836,0.31641 -0.69922,0.35938 -0.0195,0.0469 -0.125,0.3164 0.0703,0.49609 0.19922,0.17969 0.90625,0.21485 0.97266,0.20703 0.0586,-0.008 0.11328,-0.0195 0.11328,-0.0195 l 0.10937,0.15235 0.51172,-0.14063 c 0,0 1.34766,0.27734 1.53906,0.375 0.1875,0.0977 0.32032,0.20703 0.36719,0.17969 0.043,-0.0274 0.125,-0.0899 0.125,-0.0899 0,0 0.56641,0.27735 0.64844,0.30469 0.0781,0.0274 0.20312,0.2461 0.20312,0.2461 0,0 -0.23437,0.20312 -0.29687,0.32812 -0.0625,0.12891 -0.10547,0.21484 -0.23047,0.29688 -0.125,0.082 -0.28906,0.4414 -0.29688,0.49609 -0.008,0.0547 -0.13671,0.008 -0.19921,0.0547 -0.0625,0.043 -0.25782,0.40234 -0.25782,0.53125 0,0.125 0.35547,0.47656 0.41407,0.54297 0.0508,0.0742 0.25781,0.27343 0.40234,0.28906 0.14453,0.0195 0.15234,0.10156 0.30469,0.15234 0.15234,0.0547 0.42187,0.12891 0.49609,0.12891 0.0703,0 0.008,-0.0742 0.22266,-0.0274 0.21484,0.043 0.33203,-0.0469 0.40625,-0.22656 0.0703,-0.17969 0.26562,-0.44922 0.30468,-0.51172 0.0352,-0.0625 0.0274,-0.1875 0.0274,-0.1875 0,0 0.0703,-0.15234 0.0703,-0.29687 0,-0.14453 0.0469,-0.40625 0.0469,-0.40625 0,0 0.35546,0.20703 0.52734,0.23437 0.17187,0.0274 0.60156,0.0547 0.68359,0.0352 0.082,-0.0156 0.15235,0.0547 0.0195,0.13672 -0.13671,0.082 -0.35156,0.20703 -0.35156,0.25 0,0.0469 0.10547,0.2539 0.23438,0.26172 0.125,0.008 0.23047,-0.0274 0.42187,0.082 0.1875,0.10937 0.47656,0.16797 0.47656,0.0859 0,-0.0781 -0.0469,-0.16797 -0.0469,-0.25 0,-0.0781 0.0352,-0.41407 0.10937,-0.4375 0.0703,-0.0274 0.91407,0 1.32813,-0.3086 0.41406,-0.30469 0.71094,-0.42969 0.87109,-0.57422 0.16407,-0.14453 0.58594,-1.21093 0.59375,-1.35547 0.0117,-0.14453 -0.13672,-0.5664 -0.13672,-0.5664 0,0 0.71875,-1.14844 0.88282,-1.40235 0.14453,-0.22265 0.35547,-0.7539 0.32812,-1.03515 m -3.38273,-0.27331 c -0.35938,0.0898 -0.65625,0.16016 -0.65625,0.16016 l 0.23828,-0.53516 c 0.10938,0.10156 0.25781,0.23047 0.41797,0.375"
           id="path26508-3-9-2-1-9" />
        <path
           d="m 851.32556,509.67667 c -0.17187,0.23829 -0.25391,0.65235 -0.53125,0.51563 -0.27344,-0.14453 -1.38672,-0.69141 -1.44922,-0.72266 -0.0664,-0.0312 -0.125,-0.0859 -0.1875,-0.16406 -0.0586,-0.0781 -0.26172,-0.25781 -0.55469,-0.27734 -0.29296,-0.0156 -0.53515,0.0273 -0.53515,0.0273 0,0 -0.11719,0.10938 -0.23438,0.0312 -0.12109,-0.0781 -0.41797,-0.26953 -0.41797,-0.26953 l 0.0195,-0.0273 -0.0547,-0.0352 -0.0469,0.0703 c 0,0 -0.082,-0.0547 -0.10156,-0.0664 -0.0234,-0.0117 -0.125,0.0273 -0.125,0.0273 l -0.0547,-0.0352 c 0,0 0.0195,-0.0703 -0.008,-0.0859 -0.0273,-0.0195 -0.13281,-0.0899 -0.13281,-0.0899 l 0.0391,-0.0586 -0.25781,-0.16797 -0.0312,0.0547 -0.0703,-0.0508 0.0234,-0.0352 -2.27343,-1.47656 h -0.0899 l -0.11719,0.10937 -0.15625,-0.10156 0.0312,-0.14453 -0.0781,-0.10938 c 0,0 -0.32422,-0.21093 -0.38672,-0.25 -0.0625,-0.043 0.0156,-0.13281 0.082,-0.17578 0.0703,-0.043 0.12891,-0.10547 0.25391,-0.0234 0.125,0.082 1.8164,1.12891 1.8164,1.12891 l 0.17188,0.0195 0.26562,0.17188 c 0,0 0.0274,-0.0391 0.082,-0.0899 0.0586,-0.0508 0.125,-0.0351 0.125,-0.0351 l 0.0664,-0.10157 c 0,0 0.16016,-0.38671 0.19531,-0.66796 0.0352,-0.28125 0.043,-1.0586 0.043,-1.0586 l 0.41407,-0.0586 c 0,0 0.0312,0.69922 -0.043,1.14062 -0.0742,0.4375 -0.25,0.85938 -0.25,0.85938 l 0.0312,0.0234 -0.0274,0.13281 c 0,0 0.125,-0.20703 0.1836,-0.26172 0.0547,-0.0508 0.11328,-0.0742 0.11328,-0.043 0.004,0.0352 -0.0625,0.0352 -0.0859,0.0937 -0.0273,0.0547 -0.0352,0.0937 -0.0352,0.0937 l -0.0976,0.15234 0.66797,0.41407 c 0,0 0.0664,-0.008 0.11718,0.0117 0.0547,0.0195 0.19922,0.12109 0.20704,0.125 0.0117,0.004 0.0469,0.0312 0.0469,0.0312 l -0.004,0.0625 0.0977,0.0586 0.0195,-0.0273 c 0,0 0.0899,-0.0312 0.0937,-0.0859 0.004,-0.0586 -0.0156,-0.11328 -0.0156,-0.11328 0,0 0.0625,0.008 0.0742,0.0781 0.0117,0.0742 -0.0586,0.13281 -0.0586,0.1875 0,0.0547 0.0664,0.0625 0.0664,0.0625 0,0 0.32812,0.1836 0.61328,0.15235 0.28516,-0.0352 0.53516,-0.11329 0.61719,-0.0781 0.082,0.0312 0.13672,0.17969 0.3125,0.1875 0.17187,0.008 0.66406,0.082 1.08984,0.21094 0.42578,0.1289 0.80859,0.26953 0.75,0.39453 -0.0586,0.12891 -0.21875,0.35937 -0.21875,0.35937"
           id="path26510-0-2-9-2-4" />
        <path
           d="m 911.10375,515.91496 c -0.0195,0.14062 -0.0312,0.30468 -0.0234,0.39843 0.0195,0.1875 0.24609,0.52344 0.24609,0.52344 0,0 -0.29297,0.3125 -0.3125,0.40234 -0.0195,0.0937 -0.1875,0.50782 -0.1875,0.50782 0,0 -0.49219,0.0508 -0.39844,0.16406 0.0977,0.11328 0.1875,0.375 0.17969,0.50391 -0.0156,0.125 0.16016,0.96875 0.91016,1.01171 0.7539,0.043 1.21093,-0.40625 1.30468,-0.93359 0.0508,-0.29297 0.1836,-0.37891 0.1836,-0.37891 0,0 -0.35156,-0.0351 -0.36328,-0.0898 -0.0274,-0.13281 -0.11328,-0.31641 -0.11328,-0.31641 0,0 0.86328,0.27344 1.32421,-0.125 0.46875,-0.40625 0.65235,-0.65234 0.76172,-0.84375 0.11328,-0.1875 0.66797,-0.98828 0.69141,-1.2539 0.0234,-0.26563 0.23828,-0.95703 0.125,-1.12891 -0.11328,-0.17187 -0.0547,-0.34375 -0.0547,-0.34375 0,0 0.0742,-0.17969 0,-0.25781 -0.0742,-0.0742 0.26172,-0.44141 0.26953,-0.53125 0.008,-0.0937 0.21094,-0.28516 0.0781,-0.37891 -0.13281,-0.0937 0.35937,-1.1914 0.35937,-1.1914 0,0 -0.20703,0.008 -0.23828,-0.0664 -0.0273,-0.0703 0.49219,-1.21484 0.47266,-1.37891 -0.0234,-0.16406 -0.19531,-0.83203 -0.10547,-0.9375 0.0898,-0.10937 0.0312,-0.29687 0.11328,-0.29687 0.082,-0.008 0.21094,-0.13672 0.21094,-0.13672 0,0 1.04297,-1.31641 1.17969,-1.41016 0.13671,-0.0898 0.54296,-0.3125 0.54296,-0.3125 0,0 0.0703,-0.0508 0.082,-0.16796 0.008,-0.11329 -0.10157,-0.42579 -0.125,-0.53125 -0.0274,-0.10938 -0.0937,-0.70704 -0.0977,-0.76563 -0.008,-0.0586 -0.55859,-0.26953 -0.73047,-0.30859 -0.17187,-0.0391 -0.39844,0.0351 -0.31641,0.17968 0.0781,0.14844 0.27735,0.375 0.27735,0.52344 0,0.15625 0.0664,0.46094 0.0234,0.52735 -0.0391,0.0664 -1.82422,1.28515 -1.82422,1.28515 l -0.0117,0.12891 c 0,0 -0.14063,0.0195 -0.22656,0.0937 -0.0899,0.0742 -0.59375,0.58203 -0.62891,0.73047 -0.0352,0.14843 -0.1875,0.40234 -0.30078,0.50781 -0.11328,0.10547 -0.70703,0.77734 -0.82813,0.8125 -0.11718,0.0352 -0.5664,-0.0273 -0.80078,-0.26953 -0.23437,-0.23828 -0.59765,-0.375 -0.6289,-0.4375 -0.0274,-0.0586 -0.0899,-0.40235 -0.0508,-0.5625 0.0352,-0.16016 0.0859,-0.17969 0.0781,-0.25 -0.004,-0.0703 -0.0469,-0.13281 0.008,-0.19922 0.0508,-0.0625 0.082,-1.09766 0.10547,-1.38672 0.0273,-0.28906 0,-0.90625 0.0352,-1.06641 0.0391,-0.15625 0.20703,-0.46093 0.21093,-0.52734 0.008,-0.0664 -0.0156,-0.24609 -0.0156,-0.24609 -0.0586,-0.35547 -0.0156,-0.3125 0,-0.35938 0.0156,-0.043 -0.21875,-0.16797 -0.33594,-0.16797 -0.11719,0.004 -0.53515,0.14063 -0.60937,0.16797 -0.0703,0.0312 -0.50782,-0.008 -0.70703,-0.0117 -0.19532,-0.008 -0.82422,0.22657 -0.9375,0.35547 -0.11719,0.13281 0,0.35938 0.23437,0.34375 0.23438,-0.0156 0.63281,-0.0156 0.71094,0.0156 0.0781,0.0312 0.51953,0.16406 0.47656,0.36718 -0.0391,0.20704 -0.59375,2.4375 -0.56641,2.52344 0.0274,0.082 0.082,0.11328 0.082,0.11328 0,0 -0.26563,0.10157 -0.27344,0.1836 -0.004,0.082 -0.37891,1.16797 -0.14453,1.42187 0.23047,0.25 1.23828,1.64063 1.2539,1.73828 0.0156,0.0937 -0.13672,-0.0351 -0.0742,0.1875 0.0586,0.23047 0.35938,0.70703 0.31641,0.78516 -0.043,0.0781 -0.0937,-0.0195 -0.23047,-0.0312 -0.14062,-0.0117 -0.23828,0.0586 -0.25781,0.14062 -0.0195,0.082 -0.38672,0.94532 -0.38672,0.94532 l -0.53516,1.26562 c -0.008,-0.0117 -0.0195,-0.0273 -0.0312,-0.0508 -0.0273,-0.0508 0.0117,-0.10547 -0.0156,-0.125 -0.0273,-0.0156 -0.043,0.043 -0.0391,0.12109 0.004,0.0312 0.0234,0.0937 0.043,0.15235 l -0.0234,0.0586 -0.0117,-0.0117 -0.0391,0.008 c 0,0 -0.22266,-0.39844 -0.52344,-0.72657 -0.30078,-0.32812 -0.87109,-0.73437 -0.87109,-0.73437 l -0.21094,0.36328 c 0,0 0.60937,0.48047 0.80859,0.68359 0.19922,0.20313 0.40625,0.56641 0.40625,0.56641 l 0.043,0.11719 c 0,0 -0.0586,0.043 -0.0508,0.11718 0.004,0.0742 0.0195,0.1211 0.0195,0.1211 l -0.29687,0.10547 -0.125,0.125 c 0,0 -1.86329,0.68359 -2.00391,0.73047 -0.14453,0.0469 -0.12891,0.13671 -0.14063,0.21875 -0.008,0.0781 0.0195,0.19531 0.0859,0.17187 l 0.44141,-0.15234 0.1289,0.004 0.0937,0.11719 0.17969,-0.0625 -0.0156,-0.16016 0.0547,-0.0703 2.5625,-0.88281 0.0156,0.043 0.082,-0.0274 -0.0195,-0.0547 z m 0,0"
           id="path26512-9-64-7-5-1" />
        <path
           d="m 902.7561,514.85636 c -0.0664,-0.0703 -0.24219,-0.23047 -0.42188,-0.16797 -0.22656,0.0781 -1.33203,0.57032 -1.49218,0.625 -0.15625,0.0586 -0.35938,0.0664 -0.42188,0.10547 -0.0586,0.0469 -0.0664,0.12891 -0.0664,0.12891 l -0.12109,0.10937 c -0.14844,-0.24218 -0.28516,-0.43359 -0.28516,-0.43359 l -0.3164,0.27734 c 0,0 0.13281,0.20703 0.26953,0.4336 l -0.0547,0.0469 0.28125,0.63281 0.14063,0.0508 c 0.0664,0.20703 0.10547,0.41406 0.10547,0.41406 v 0.12109 c 0,0 -0.0664,0.0195 -0.0859,0.0937 -0.0195,0.0742 -0.0195,0.125 -0.0195,0.125 h -0.32032 l -0.15241,0.0742 c 0,0 -1.98828,0.043 -2.13672,0.043 -0.14844,0 -0.16406,0.082 -0.19922,0.15625 -0.0351,0.0742 -0.0508,0.19531 0.0234,0.19531 h 0.46094 l 0.125,0.0469 0.0547,0.13672 h 0.18359 l 0.043,-0.15625 0.0703,-0.0469 h 2.625 l 0.22266,0.33984 c 0,0 0.004,0.004 0.008,0.004 l 0.004,0.0156 -0.13672,0.28906 -0.5,0.0234 c 0,0 0.27343,0.1875 0.35547,0.66015 0.082,0.47266 0.47265,1.12891 1.41796,1.01172 0.94141,-0.12109 1.13282,-1.16406 1.13282,-1.16406 0,0 0.008,-0.21094 0.0469,-0.28125 0.0352,-0.0742 0.14453,-0.20703 0.14453,-0.20703 l -0.30078,-0.0859 -0.0547,-0.33594 c 0,0 0.54688,0.17188 1.34375,-0.22656 0.80079,-0.39844 1.08985,-0.58203 1.49219,-1.41016 0.39844,-0.82422 0.42578,-0.80468 0.42578,-0.80468 l -0.13672,-0.53516 0.17969,-0.24609 0.60156,-0.60157 0.12891,-0.34375 -0.47266,-0.26562 c 0,0 0.3086,-0.59766 0.3711,-0.72656 0.0625,-0.125 0.10156,-0.48047 0.10156,-0.48047 l -0.32812,-0.33594 c 0,0 0.1914,-0.79688 0.16406,-1.43359 -0.0274,-0.63672 -0.27344,-0.94532 -0.27344,-0.94532 0,0 -0.0352,-0.7539 -0.082,-0.88281 -0.043,-0.125 -0.10938,-0.24219 -0.10938,-0.24219 l 0.0547,-0.64453 0.0352,-0.0859 c 0,0 0.18359,-0.0312 0.23828,-0.19921 0.0547,-0.16016 0.57812,-2.64844 0.57812,-2.64844 l -0.50781,-0.22266 -0.0703,0.14844 c 0,0 -0.27344,-0.24609 -0.35547,-0.25391 -0.082,-0.0117 -1.01562,-0.13672 -1.0625,-0.0742 -0.13281,0.1875 -0.0156,0.36719 0.21875,0.41797 0.61719,0.13672 0.75391,0.42578 0.76953,0.58203 0.0156,0.10938 -0.7539,1.32422 -0.7539,1.32422 0,0 -0.41797,0.82032 -0.40625,0.92578 0.0117,0.11329 -0.71875,0.7461 -0.71875,1.08204 0,0.33593 -0.21485,1.41015 -0.21485,1.41015 0,0 -0.49219,-0.42578 -0.73828,-0.45312 -0.24609,-0.0312 -0.5625,-0.12891 -0.76172,-0.44922 -0.19922,-0.31641 0.13672,-0.46094 0.20703,-0.66016 0.0742,-0.19922 0.29297,-1.52734 0.375,-1.79687 0.082,-0.27344 0.37891,-1.13672 0.37891,-1.13672 l -0.50781,-0.3086 -0.15235,0.043 c 0,0 -0.0937,-0.11718 -0.16406,-0.17187 -0.0742,-0.0547 -0.65625,-0.32422 -0.65625,-0.32422 0,0 -0.64453,0 -0.69922,0.008 -0.0547,0.008 -0.082,0.39844 0.26563,0.42578 0.34375,0.0274 0.5,0.16407 0.5,0.16407 l 0.26172,0.76171 c 0,0 -0.1836,0.8086 -0.42579,1.1211 -0.24609,0.30469 -0.60937,1.09765 -0.60937,1.09765 l 0.0195,0.13672 c 0,0 -0.40234,0.33594 -0.41016,0.57032 -0.008,0.23437 -0.0351,0.48828 -0.0351,0.48828 l 0.0898,0.1914 c 0,0 0.625,1 0.65235,1.0625 0.0273,0.0664 0.21093,0.21094 0.23828,0.35547 0.0273,0.14453 0.26172,0.41797 0.3164,0.4375 0.0547,0.0195 0.25391,0.125 0.21875,0.21485 -0.0351,0.0937 0,0.1914 0,0.1914 0,0 0.125,0.45313 0.22657,0.58985 0.10156,0.13671 0.0547,0.18359 0.10156,0.32031 0.0312,0.0976 0.0391,0.17578 0.043,0.21094 l 0.17968,0.25 z m -2.05469,1.82031 c 0.0508,-0.0156 0.0898,-0.0351 0.10938,-0.0625 0.0625,-0.082 0.17578,-0.1875 0.17578,-0.1875 l 0.76562,-0.0351 c 0,0 -0.0469,0.40234 0.008,0.55078 0.0586,0.14844 0.008,0.20312 -0.15625,0.19922 -0.0625,0 -0.13281,0.0117 -0.19531,0.0273 l -0.44531,0.008 v -0.17968 c 0,0 -0.0156,-0.0391 -0.0234,-0.10157 -0.008,-0.0586 0.043,-0.0937 0.0234,-0.12109 -0.0195,-0.0234 -0.0547,0.0273 -0.0742,0.0977 -0.0156,0.0742 -0.0117,0.3164 -0.0117,0.3164 l -0.0469,-0.125 -0.0391,-0.004 c 0,0 -0.0273,-0.16407 -0.0898,-0.38282"
           id="path26514-5-7-1-3-9" />
        <path
           d="m 892.61938,505.59464 c 0.34375,0.0274 0.5,0.16407 0.5,0.16407 l 0.26172,0.76171 c 0,0 -0.1836,0.8086 -0.42578,1.11719 -0.2461,0.3086 -0.60938,1.09766 -0.60938,1.09766 l 0.0195,0.13672 c 0,0 -0.40234,0.33593 -0.41015,0.57422 -0.008,0.23437 -0.0391,0.48828 -0.0391,0.48828 l 0.0937,0.1914 c 0,0 0.625,1 0.65235,1.0625 0.0273,0.0625 0.21094,0.21094 0.23828,0.35547 0.0234,0.14844 0.26172,0.41797 0.31641,0.4375 0.0547,0.0156 0.2539,0.125 0.21875,0.21485 -0.0352,0.0937 0,0.1914 0,0.1914 0,0 0.1289,0.45703 0.22656,0.58985 0.0976,0.13671 0.0547,0.18359 0.0976,0.32031 0.0469,0.13281 0.0469,0.23437 0.0469,0.23437 0,0 -0.51563,0.0547 -0.76172,-0.008 -0.24609,-0.0625 -0.48047,-0.0703 -0.60937,-0.0469 -0.125,0.0273 -0.0625,0.11718 -0.3711,0.0195 -0.30859,-0.10157 -0.44531,-0.0547 -0.44531,-0.0547 l -0.0625,0.125 c 0,0 -0.0586,0.0547 -0.32813,-0.125 -0.27343,-0.18359 -0.5625,-0.19922 -0.6914,-0.19141 -0.12891,0.008 -0.55469,0.51953 -0.55469,0.5625 0,0.0469 0.31641,0.88282 0.31641,0.88282 l 0.0273,0.45703 -2.25,-0.2461 -0.16406,0.40625 0.33594,0.0547 0.0195,0.28125 0.38281,0.0352 0.13281,-0.21485 3.67969,0.4961 c 0,0 -0.0977,0.53515 -0.0352,0.77343 0.0625,0.23438 0.28907,0.57032 0.28907,0.57032 0,0 -0.44532,-0.0899 -0.53516,0.0195 -0.0898,0.10937 -0.11719,0.3164 -0.11719,0.3164 l -0.1914,0.2461 c 0,0 -0.11719,0.0469 -0.12891,0.10937 -0.008,0.0625 0.0117,0.22657 0.0117,0.22657 l -0.13672,0.28906 -0.5,0.0195 c 0,0 0.27344,0.19141 0.35547,0.66406 0.082,0.47266 0.47265,1.12891 1.41406,1.00781 0.94531,-0.11718 1.13672,-1.16406 1.13672,-1.16406 0,0 0.008,-0.20703 0.0469,-0.28125 0.0352,-0.0703 0.14454,-0.20703 0.14454,-0.20703 l -0.30079,-0.082 -0.0547,-0.33594 c 0,0 0.54687,0.17188 1.34375,-0.22656 0.80078,-0.40234 1.08984,-0.58203 1.49218,-1.41016 0.39844,-0.82422 0.42579,-0.80468 0.42579,-0.80468 l -0.13672,-0.53516 0.17968,-0.24609 0.60157,-0.60157 0.1289,-0.34375 -0.47656,-0.26172 c 0,0 0.3125,-0.60156 0.375,-0.73046 0.0625,-0.125 0.10156,-0.48047 0.10156,-0.48047 l -0.33203,-0.33594 c 0,0 0.19531,-0.79688 0.16797,-1.43359 -0.0273,-0.63672 -0.27344,-0.94532 -0.27344,-0.94532 0,0 -0.0391,-0.7539 -0.082,-0.88281 -0.0469,-0.125 -0.10937,-0.24609 -0.10937,-0.24609 l 0.0547,-0.64063 0.0352,-0.0859 c 0,0 0.18359,-0.0351 0.23438,-0.19921 0.0586,-0.16407 0.58203,-2.64844 0.58203,-2.64844 l -0.50782,-0.21875 -0.0742,0.14453 c 0,0 -0.26954,-0.24609 -0.35157,-0.25781 -0.082,-0.004 -1.01562,-0.13282 -1.0625,-0.0703 -0.13281,0.1875 -0.0156,0.36719 0.21875,0.41797 0.61719,0.13672 0.75391,0.42969 0.76953,0.58203 0.0156,0.10547 -0.7539,1.32422 -0.7539,1.32422 0,0 -0.41406,0.81641 -0.40625,0.92578 0.008,0.11329 -0.71875,0.7461 -0.71875,1.08204 0,0.33593 -0.21875,1.40625 -0.21875,1.40625 0,0 -0.48828,-0.42579 -0.73438,-0.45313 -0.24609,-0.0273 -0.5625,-0.125 -0.76172,-0.44531 -0.19921,-0.31641 0.13672,-0.46485 0.20704,-0.66016 0.0742,-0.20312 0.29296,-1.52734 0.375,-1.80078 0.0781,-0.27344 0.3789,-1.13281 0.3789,-1.13281 l -0.50781,-0.3086 -0.15625,0.043 c 0,0 -0.0898,-0.11718 -0.16016,-0.17187 -0.0742,-0.0547 -0.65625,-0.32813 -0.65625,-0.32813 0,0 -0.64453,0 -0.69922,0.0117 -0.0547,0.008 -0.082,0.39844 0.26563,0.42578 m -1.24609,8.91016 0.10937,-0.0625 c 0,0 0.26172,0.043 0.61719,0.10937 0.35547,0.0625 0.625,0.1875 0.625,0.1875 l -0.42578,0.27344 -0.10547,0.16406 -0.89453,-0.082 c 0,0 0.10156,-0.38281 0.0742,-0.58984"
           id="path26516-0-8-6-1-3" />
        <path
           d="m 920.81079,513.96574 c -0.0469,-0.0117 -0.0899,-0.0195 -0.125,-0.0352 -0.20313,-0.0742 -0.40235,-0.10156 -0.51172,-0.0898 -0.10547,0.0117 -0.0625,0.0937 -0.3125,-0.0195 -0.25,-0.10938 -0.3711,-0.082 -0.3711,-0.082 l -0.0625,0.0977 c 0,0 -0.0508,0.043 -0.26562,-0.13672 -0.21094,-0.17578 -0.45703,-0.21484 -0.56641,-0.21875 -0.10547,-0.004 -0.51172,0.38672 -0.51562,0.42578 -0.004,0.0352 0.1914,0.76953 0.1914,0.76953 l -0.0195,0.38282 -1.875,-0.40625 -0.17187,0.33203 0.27734,0.0742 -0.008,0.23828 0.3164,0.0664 0.13282,-0.17187 3.05468,0.74219 c 0,0 -0.0195,0.0703 -0.043,0.16406 l -0.25782,0.86328 c 0.0508,0.19531 0.12891,0.48828 0.1836,0.57031 0.0703,0.10938 0.26172,0.29688 0.26172,0.29688 l -0.043,0.0976 c 0,0 -0.10547,-0.043 -0.0977,0.11719 0.008,0.16406 -0.0352,0.32813 -0.0352,0.32813 0,0 -0.32812,-0.0195 -0.44921,-0.0117 -0.11329,0.008 -0.13282,0.0586 -0.0391,0.18359 0.1836,0.23828 0.0977,0.39063 0.13282,0.73438 0.0351,0.35156 0.53906,0.91797 1.09375,0.90625 0.55468,-0.0117 0.96875,-0.35938 1.02343,-0.71485 0.0586,-0.35937 0.16407,-0.59375 0.23438,-0.67187 0.0742,-0.0742 -0.19531,-0.17969 -0.22266,-0.21094 -0.0273,-0.0312 -0.0156,-0.13281 -0.0156,-0.13281 0,0 0.0469,-0.13672 0.0742,-0.16016 0.0273,-0.0234 0.26953,-0.0508 0.36718,-0.0937 0.14453,-0.0547 0.77344,-0.41015 1,-0.63672 0.22266,-0.22265 0.55078,-0.65234 0.56641,-0.6875 0.0195,-0.0391 0.20312,-1.14453 0.22266,-1.23437 0.0156,-0.0899 0.0781,-0.44531 0.0625,-0.52735 -0.0195,-0.082 0.0625,-0.12109 0.0351,-0.21875 -0.0312,-0.0937 0.008,-0.375 0.008,-0.375 0,0 0.40235,-0.0547 0.50391,-0.23437 0.10547,-0.17578 0.75391,-1.09375 0.77734,-1.27734 0.0274,-0.1875 0.0234,-0.4961 -0.14062,-0.57813 -0.15625,-0.082 -0.9375,-0.30078 -0.9375,-0.30078 0,0 0.0234,-0.74609 -0.0117,-0.87109 -0.0391,-0.12891 0.0156,-0.5 0.0586,-0.59375 0.0391,-0.0937 0.31641,-0.61719 0.36719,-0.6836 0.0508,-0.0664 0.0508,-0.14062 0.0586,-0.16406 0.008,-0.0273 0.0391,-0.0234 0.10546,-0.0352 0.0664,-0.0117 1.02735,-0.91406 1.13672,-0.97265 0.11328,-0.0586 0.375,-0.13282 0.38282,-0.19922 0.004,-0.0703 0.0508,-0.1211 0.0976,-0.13672 0.0469,-0.0117 0.40235,-0.23047 0.41406,-0.29297 0.0117,-0.0625 -0.0117,-0.37891 -0.0625,-0.46094 -0.0469,-0.0859 -0.18359,-0.64453 -0.20312,-0.67578 -0.0156,-0.0273 -0.41406,-0.5039 -0.54688,-0.55469 -0.1289,-0.0586 -0.30078,-0.16015 -0.35937,-0.11718 -0.0547,0.0391 -0.082,0.23047 -0.0391,0.32031 0.043,0.0898 0.25,0.71094 0.26562,0.77344 0.0117,0.0703 -0.0976,0.35156 -0.14453,0.4375 -0.0508,0.0859 -1.69141,0.90625 -1.71484,0.96484 -0.0274,0.0547 -0.0117,0.10938 -0.0117,0.10938 0,0 -0.0469,0.0156 -0.17969,0.0781 -0.12891,0.0664 -0.64062,0.66406 -0.66797,0.73047 -0.0273,0.0703 -0.45703,0.48828 -0.45703,0.48828 l -0.53906,-0.30469 c 0,0 -0.1211,-0.69531 -0.19922,-0.78906 -0.0742,-0.0937 -0.23438,-0.22656 -0.23438,-0.22656 0,0 0.0664,-0.0274 0.082,-0.1211 0.0195,-0.0976 -0.004,-0.8164 -0.125,-1.20703 -0.1211,-0.39062 -0.33204,-1.10937 -0.31641,-1.25 0.0117,-0.14062 0.0586,-0.21484 0,-0.3125 -0.0625,-0.0976 -0.125,-0.28515 -0.13281,-0.44922 0,-0.16406 -0.0703,-0.55078 -0.0703,-0.55078 l -0.008,-0.40234 c 0,0 -0.87109,-0.0195 -1.46875,0.082 -0.59375,0.0977 -0.90234,0.27344 -0.90234,0.27344 0,0 0.11328,0.32031 0.34375,0.33984 0.23047,0.0274 0.79297,0.0781 0.94531,0.1211 0.14844,0.043 0.39844,0.40625 0.39063,0.48046 -0.008,0.0703 -0.125,0.0899 -0.0274,0.26954 0.0977,0.17968 0.10156,0.1914 0.0781,0.36328 -0.0234,0.17578 0.0234,0.89062 0.0351,1.03515 0.008,0.14453 0.0352,1.23438 0.0625,1.30078 0.0352,0.0703 0.11719,0.0781 0.11719,0.0781 0,0 -0.10156,0.21875 -0.10937,0.36719 -0.008,0.14843 0.125,0.68359 0.10156,0.80468 -0.0195,0.1211 0.004,0.33204 0.0195,0.46485 0.0117,0.1289 0.23047,1.24609 0.23047,1.24609 0,0 -0.16406,-0.0547 -0.14453,0.0977 0.0156,0.15234 0.0351,0.71484 0,0.74219 -0.0352,0.0273 -0.0352,0.0898 0,0.14062 0.0312,0.0547 0.17968,0.19922 0.14843,0.28516 -0.0273,0.0898 -0.11718,0.25 -0.11718,0.25 l -0.0391,-0.0195 z m -1.61719,0.64453 0.0937,-0.043 c 0,0 0.21875,0.0586 0.51172,0.14453 0.29297,0.0859 0.50781,0.21484 0.50781,0.21484 l -0.38281,0.19141 -0.10547,0.12891 -0.74219,-0.14844 c 0,0 0.12109,-0.30859 0.11719,-0.48828"
           id="path26518-4-5-7-6-6" />
      </g>
      <g
         id="g2162-7-7-8-5"
         transform="matrix(0.27319154,0,0,-0.27319154,-3.24166,211.77648)">
        <path
           style="fill:#000000;fill-opacity:1;fill-rule:evenodd;stroke:none"
           d="m 903.43519,575.12914 0.10156,-0.043 0.20703,-0.10156 0.14844,-0.0664 0.1875,-0.0742 0.16015,-0.0742 0.14063,-0.0625 0.125,0.004 0.0742,0.0234 0.0781,0.004 0.043,-0.004 0.0469,0.0117 0.0273,0.0234 0.0234,0.0469 0.082,-0.0625 c 0,0 0.0625,-0.0508 0.10156,-0.0703 0.0391,-0.0195 0.125,0.0156 0.14844,0.0312 0.0273,0.0195 0.125,0.11719 0.125,0.11719 l 0.12109,-0.10547 0.043,0.0195 0.17188,-0.12109 c 0,0 0.0547,0.0273 0.082,0.0586 0.0273,0.0312 0.0391,0.0703 0.043,0.0977 0.008,0.0273 -0.0508,0.0586 -0.0508,0.0586 l -0.38282,0.34766 -0.41797,0.38281 -0.0508,0.0508 -0.0742,-0.0195 -0.0312,0.0156 -0.004,0.0352 -0.0274,0.0156 h -0.0351 l -0.0234,-0.0195 -0.004,-0.0351 0.004,-0.0195 -0.0352,-0.0156 -0.0625,-0.0195 -0.0351,-0.0391 -0.0625,0.008 -0.0937,-0.008 -0.0664,0.0586 -0.11719,0.0664 -0.15234,0.11718 -0.13281,0.15235 -0.26953,0.30078 0.0195,0.37109 0.0664,0.33203 0.0664,0.35157 c -0.008,0.0156 0,0.44531 -0.0156,0.46875 -0.0195,0.0234 -0.0899,0.36328 -0.0899,0.36328 0,0 -0.0156,0.16406 -0.0234,0.22656 -0.008,0.0586 -0.082,0.1875 -0.0898,0.22266 -0.008,0.0351 -0.0156,0.125 -0.0469,0.1914 -0.0391,0.0625 -0.125,0.0937 -0.1836,0.125 -0.0547,0.0274 -0.38281,0.25 -0.38281,0.25 h -0.0586 l -0.0586,0.0664 -0.0703,0.008 -0.0937,0.10156 h -0.0742 l -0.0508,0.0508 -0.0898,0.043 -0.0899,0.0625 -0.0234,0.10547 0.0391,0.0977 0.0391,0.0312 0.0664,0.0195 0.0625,0.043 0.0469,0.0391 0.0352,0.0664 0.004,0.0664 -0.008,0.0781 0.008,0.0391 0.0274,0.0859 0.0234,0.0664 0.0117,0.11328 -0.004,0.10156 -0.0234,0.0898 -0.0156,0.10547 0.004,0.1211 0.0117,0.0586 0.0273,0.0625 c 0,0 0.082,0.0117 0.11328,0.0195 0.0274,0.0117 0.0586,0.043 0.0586,0.043 l -0.13672,0.10937 0.008,0.0312 0.0156,0.0586 c 0,0 -0.0117,0.0273 -0.0234,0.0351 -0.0117,0.004 -0.0703,0.0547 -0.0703,0.0547 l -0.008,0.10938 c 0,0 0,0.008 0.0469,0.0664 0.0508,0.0586 0.16406,0.2461 0.19922,0.3086 0.0312,0.0625 0.0351,0.14843 0,0.23437 -0.0391,0.082 -0.17969,0.16016 -0.28125,0.19531 -0.10156,0.0312 -0.34375,0.0312 -0.47266,0.0234 -0.1289,-0.0117 -0.57422,-0.17187 -0.80469,-0.33984 -0.22656,-0.16406 -0.47656,-0.53125 -0.49218,-0.56641 -0.0195,-0.043 -0.0195,-0.0976 -0.0117,-0.11328 0.008,-0.0156 0.0273,-0.0781 0.0391,-0.11328 0.0156,-0.0391 0.043,-0.0469 0.043,-0.0469 l 0.0586,-0.0391 0.0937,-0.0391 0.0664,-0.008 0.0469,-0.25 0.0117,-0.0312 0.0234,-0.0117 0.0508,-0.16797 0.0977,-0.25 0.0664,-0.10938 0.082,-0.20703 0.0195,-0.0976 -0.12891,-0.0508 c -0.0469,-0.0469 -0.0195,-0.0312 -0.0586,-0.008 -0.0391,0.0195 -0.13282,-0.0312 -0.16016,-0.0195 l -0.21484,-0.0469 -0.16797,-0.0352 -0.16797,-0.082 -0.25,-0.13281 -0.16797,-0.10157 -0.12109,-0.082 c -0.004,-0.0312 -0.11328,-0.0312 -0.1211,-0.0547 -0.008,-0.0274 -0.0312,-0.16797 -0.0625,-0.19922 -0.0273,-0.0312 -0.0742,-0.25 -0.11718,-0.28516 -0.0352,-0.0312 -0.0664,-0.26172 -0.11329,-0.31641 -0.0469,-0.0586 -0.0742,-0.1289 -0.10156,-0.18359 -0.0234,-0.0586 -0.0703,-0.25781 -0.11719,-0.33594 -0.0469,-0.0781 -0.0664,-0.35156 -0.11718,-0.40234 -0.0508,-0.0508 -0.0586,-0.30469 -0.10157,-0.36719 -0.043,-0.0664 -0.043,-0.29687 -0.0664,-0.33594 -0.0195,-0.0351 0.17578,-0.39062 0.16797,-0.43359 -0.008,-0.043 0.0937,-0.14062 0.10156,-0.16797 0.008,-0.0234 0.0742,-0.16015 0.11719,-0.18359 0.043,-0.0195 0.21484,-0.1836 0.21484,-0.1836 l 0.19922,-0.15625 c 0,0 -0.0742,-0.15234 -0.12109,-0.26953 -0.0469,-0.12109 -0.0195,-0.45703 0.0508,-0.55468 0.0742,-0.0937 0.0508,-0.13282 0.043,-0.22266 -0.004,-0.0898 -0.0195,-0.0937 -0.0312,-0.14844 -0.0156,-0.0508 -0.0156,-0.082 -0.0195,-0.10937 -0.004,-0.0312 -0.004,-0.125 -0.008,-0.1875 -0.004,-0.0625 -0.0898,-0.23047 -0.125,-0.3086 -0.0351,-0.082 -0.0312,-0.15234 -0.0273,-0.20703 0.008,-0.0508 -0.0469,-0.13672 -0.0625,-0.1914 -0.0195,-0.0547 -0.043,-0.1836 -0.0312,-0.21875 0.0117,-0.0312 0.0937,-0.12891 0.13281,-0.16797 0.0391,-0.0391 0.23828,-0.14063 0.24219,-0.17188 0.004,-0.0351 -0.0156,-0.19922 -0.0156,-0.26562 0,-0.0625 0.0156,-0.50782 0.0274,-0.55078 0.0156,-0.043 0.0664,-0.1875 0.10547,-0.26563 0.0391,-0.0781 0.19531,-0.66406 0.21093,-0.69922 0.0117,-0.0351 0.0312,-0.0898 0.0234,-0.13672 -0.004,-0.0469 -0.0664,-0.12109 -0.0781,-0.15234 -0.0156,-0.0273 -0.0391,-0.16016 -0.0391,-0.19922 0,-0.0352 0.0547,-0.0703 0.0586,-0.10937 0.004,-0.0391 -0.0156,-0.23829 -0.0156,-0.25391 0,-0.0195 -0.0234,-0.0273 -0.0351,-0.0664 -0.0117,-0.0391 0,-0.0859 0,-0.22265 0,-0.13672 0.0234,-0.71485 0.0508,-0.83985 0.0312,-0.125 0.0195,-0.26562 0.0117,-0.30859 -0.008,-0.043 -0.082,-0.12109 -0.125,-0.18359 -0.043,-0.0625 -0.004,-0.0703 0.0312,-0.125 0.0351,-0.0508 0.0703,-0.12891 0.0625,-0.15625 -0.008,-0.0274 -0.0274,-0.17579 -0.0274,-0.19532 0,-0.0156 0.043,-0.082 0.043,-0.10937 0,-0.0274 -0.043,-0.0547 -0.0469,-0.0742 -0.004,-0.0156 0.0234,-0.14453 0.0156,-0.16797 -0.004,-0.0195 -0.0234,-0.0703 -0.0156,-0.125 0.008,-0.0508 0.0234,-0.19922 0.0234,-0.26953 0,-0.0664 0.0234,-0.0703 0.0547,-0.10547 0.0273,-0.0352 0.0898,-0.14453 0.10547,-0.1875 0.0195,-0.043 0.0352,-0.16016 0.0625,-0.21094 0.0234,-0.0508 0,-0.11718 0.0586,-0.22265 0.0586,-0.10157 0.19922,-0.22266 0.33985,-0.29297 0.14453,-0.0664 0.35547,-0.0586 0.40625,-0.0469 0,0 0.15234,0.0469 0.18359,0.12891 0.0273,0.082 0.0234,0.24219 0.0312,0.28516 0.008,0.043 -0.0625,0.25 -0.082,0.28125 -0.0156,0.0312 -0.0781,0.10156 -0.10156,0.10937 -0.0274,0.004 -0.043,0.17578 -0.0508,0.19531 -0.004,0.0234 -0.11719,0.23438 -0.14844,0.31641 -0.0312,0.082 -0.0274,0.26562 -0.0352,0.30078 -0.008,0.0352 0.008,0.15625 0.008,0.20703 0,0.0469 0.0234,0.19531 0.0234,0.25 0,0.0547 0.0234,0.20703 0.0234,0.24219 0,0.0312 0.0547,0.35547 0.0547,0.39844 0,0.0391 0.125,0.45312 0.14062,0.49609 0.0195,0.043 0.0781,0.44141 0.082,0.5 0.004,0.0625 0.008,0.23438 0.0274,0.31641 0.0156,0.0781 -0.004,0.0586 0.082,0.10156 0.0859,0.043 0.043,0.15234 0.0195,0.18359 -0.0195,0.0352 0.0156,0.16016 0.0312,0.20703 0.0195,0.0469 0.19531,0.23438 0.27344,0.33204 0.0781,0.10156 0.16406,0.2539 0.18359,0.24218 0.0156,-0.0117 0.043,-0.0508 0.0547,-0.0859 0.0117,-0.0312 -0.0117,-0.0586 -0.0274,-0.0977 -0.0195,-0.0391 -0.0156,-0.19531 -0.008,-0.21484 0.0117,-0.0234 0.0859,-0.10547 0.0742,-0.12891 -0.0117,-0.0273 -0.043,-0.004 -0.043,-0.0234 0,-0.0195 -0.008,-0.28906 -0.0117,-0.3789 -0.004,-0.0899 0.0664,-0.78125 0.0703,-0.88282 0.008,-0.10547 0.0234,-0.11328 0.0586,-0.17968 0.0352,-0.0625 -0.0117,-0.13282 -0.0625,-0.17579 -0.0469,-0.043 0.0547,-0.13281 0.0937,-0.1914 0.0391,-0.0508 0.0117,-0.0625 -0.008,-0.10547 -0.0156,-0.0391 -0.0234,-0.15625 -0.0234,-0.19922 0,-0.0391 0.0352,-0.0937 -0.008,-0.11328 -0.043,-0.0234 -0.0859,-0.0977 -0.0937,-0.14063 -0.004,-0.0469 0.0195,-0.0469 -0.0234,-0.10156 -0.043,-0.0547 -0.0156,-0.17969 -0.0117,-0.21875 0.004,-0.0351 0.043,-0.0664 0.043,-0.0664 l 0.004,-0.20704 c 0,0 0.0703,-0.0547 0.16406,-0.10546 0.0898,-0.0547 0.3125,-0.0703 0.3125,-0.0703 l 0.125,0.0547 c 0,0 0.0664,-0.0859 0.36328,-0.23828 0.29687,-0.14844 0.59375,-0.11719 0.78125,-0.13281 0.18359,-0.0117 0.34766,0.14453 0.42187,0.1875 0.0703,0.0469 0.0547,0.082 0.0508,0.0976 -0.004,0.0156 -0.0234,0.0625 -0.0234,0.125 0,0.0664 -0.0508,0.17188 -0.082,0.1836 -0.0274,0.004 -0.31641,0.11718 -0.49219,0.15234 -0.17969,0.0352 -0.40625,0.26172 -0.41797,0.28906 -0.0156,0.0234 -0.0234,0.0664 -0.0625,0.0742 -0.0391,0.008 -0.0703,0.0547 -0.082,0.0781 -0.0117,0.0195 -0.0625,0.0547 -0.0625,0.0703 0,0.0156 -0.0273,0.11719 -0.0273,0.11719 0,0 -0.004,0.125 -0.0156,0.16015 -0.0156,0.0352 0.0234,0.0625 0.0469,0.11719 0.0195,0.0508 -0.0547,0.12891 -0.0547,0.12891 0,0 0,0.0351 0.008,0.0547 0.004,0.0234 0.0898,0.79297 0.10156,0.87891 0.0117,0.0859 0.0391,0.65625 0.0391,0.69531 0,0.0391 0.0156,0.0664 0.0508,0.0664 0.0351,0 0.0312,0.10547 0.0312,0.15625 0,0.0547 -0.0508,0.22266 -0.0547,0.25391 -0.008,0.0273 0.0547,0.0586 0.0859,0.17968 0.0273,0.11719 -0.0156,0.32813 -0.0312,0.38672 -0.0195,0.0547 -0.0195,0.0547 0.0312,0.125 0.0469,0.0703 0.0898,0.26563 0.0976,0.35156 0.008,0.0899 -0.0469,0.53125 -0.0117,0.54297 0.0352,0.0117 0.10157,0.0937 0.1211,0.125 0.0156,0.0312 0.0391,0.29297 0.0391,0.35938 0,0.0625 -0.0156,0.64453 -0.0273,0.7539 -0.0117,0.10938 -0.0547,0.54688 -0.0547,0.58594 z m 0,0"
           id="path10153-1-5-70-5-7-5" />
        <path
           style="fill:#000000;fill-opacity:1;fill-rule:nonzero;stroke:none;stroke-width:0.931375"
           d="m 896.46406,577.74229 c 0,0 -0.0328,-0.0328 -0.051,-0.0473 -0.0218,-0.0145 -0.16008,-0.12369 -0.21829,-0.14188 -0.0582,-0.0218 -0.0618,-0.0109 -0.0727,0.0182 -0.007,0.0291 -0.004,0.17099 0,0.18918 0.0109,0.0145 0.0764,0.1419 0.08,0.18919 0.004,0.0437 0.0655,0.0218 0.0655,0.0218 0,0 0.15645,-0.18191 0.19647,-0.22921 m -3.99109,0.62213 c 0,0 0.0218,-0.0582 0.0218,-0.08 0,-0.0254 -0.0291,-0.0291 -0.0401,-0.0727 -0.0109,-0.0437 0.007,-0.14917 0.004,-0.21466 -0.007,-0.0655 -0.0546,-0.0946 -0.0946,-0.14552 -0.0364,-0.0509 -0.004,-0.11643 0,-0.14189 0.007,-0.0218 0.007,-0.21102 0.007,-0.26559 0,-0.051 -0.0946,-0.0691 -0.16008,-0.091 -0.0655,-0.0218 -0.14189,-0.10913 -0.16008,-0.10913 h -0.41112 c -0.0218,0 -0.0254,0 -0.0618,0.0328 -0.0291,0.0291 -0.0655,0.0182 -0.0655,0.0182 0.0364,0.0218 0.91683,1.00415 0.96048,1.06963 m 2.55037,-12.15517 c 0.0546,-0.007 0.2765,-0.0218 0.42566,0.0509 0.14917,0.0727 0.2947,0.2001 0.35655,0.30924 0.0655,0.10551 0.0364,0.17464 0.0655,0.22921 0.0254,0.0546 0.0437,0.17827 0.0618,0.22192 0.0218,0.0437 0.0836,0.16372 0.11278,0.20011 0.0328,0.0364 0.0619,0.0437 0.0619,0.11278 0,0.0727 0.0109,0.2292 0.0218,0.28378 0.007,0.0546 -0.0145,0.10915 -0.0182,0.13097 -0.004,0.0218 0.0218,0.16008 0.0182,0.17463 -0.007,0.0182 -0.051,0.051 -0.051,0.0764 0,0.029 0.0437,0.10187 0.0437,0.12006 0,0.0182 -0.0145,0.17827 -0.0254,0.20374 -0.007,0.0291 0.0254,0.10914 0.0655,0.16371 0.0364,0.0546 0.0764,0.0655 0.0291,0.13098 -0.0437,0.0691 -0.12006,0.14553 -0.13098,0.19283 -0.007,0.0437 -0.0182,0.19282 0.0145,0.32743 0.0328,0.12734 0.0546,0.73855 0.0546,0.88044 0,0.14553 0.0145,0.19646 0,0.24013 -0.0145,0.04 -0.0364,0.0473 -0.0364,0.0655 0,0.0182 -0.0218,0.22557 -0.0182,0.26558 0.004,0.0437 0.0618,0.08 0.0618,0.12007 0,0.04 -0.0255,0.17827 -0.04,0.20738 -0.0145,0.0328 -0.08,0.10913 -0.0837,0.16007 -0.007,0.051 0.0109,0.10915 0.0255,0.14553 0.0145,0.0364 0.1819,0.65123 0.22192,0.73491 0.04,0.0836 0.0946,0.23648 0.10915,0.28015 0.0145,0.0473 0.0327,0.51298 0.0327,0.58211 0,0.0655 -0.0218,0.24011 -0.0182,0.27649 0.004,0.0364 0.21101,0.13826 0.25468,0.18191 0.0401,0.0401 0.12369,0.1419 0.13825,0.17463 0.0145,0.0364 -0.0145,0.17464 -0.0328,0.23285 -0.0145,0.0582 -0.0727,0.14552 -0.0655,0.2001 0.004,0.0546 0.007,0.13097 -0.0255,0.21829 -0.0401,0.0836 -0.13097,0.26195 -0.13461,0.32743 -0.004,0.0618 -0.004,0.16009 -0.007,0.19284 -0.007,0.0328 -0.007,0.0655 -0.0182,0.12005 -0.0145,0.0509 -0.0328,0.0582 -0.0364,0.1528 -0.007,0.0946 -0.0328,0.13462 0.0437,0.23649 0.08,0.0982 0.10551,0.45114 0.0546,0.57846 -0.051,0.12734 -0.12733,0.28743 -0.12733,0.28743 0,0 0.76402,-0.25468 0.82223,-0.25832 0.0582,-0.007 0.1528,0.0509 0.14553,0.11279 -0.0109,0.0582 -0.0727,0.89863 -0.0727,0.89863 l 0.34926,0.22921 c 0,0 0.0837,0.007 0.13098,0.0291 0.0437,0.0218 0.16372,0.23647 0.17463,0.26195 0.007,0.0291 0.0473,0.2583 0.0401,0.3056 -0.0109,0.0437 -0.0182,0.1528 -0.0401,0.19282 -0.0255,0.0401 -0.14189,0.2183 -0.18919,0.28742 -0.0437,0.0655 -0.14552,0.24375 -0.19645,0.29833 -0.0582,0.0546 -0.20738,0.20737 -0.25468,0.28742 -0.0509,0.08 -0.30197,0.37109 -0.32743,0.4293 -0.0291,0.0582 -0.0582,0.10551 -0.10915,0.16372 -0.0509,0.0582 -0.23648,0.23649 -0.27651,0.27287 -0.0401,0.0364 -0.10913,0.0982 -0.14188,0.13096 -0.0328,0.0328 -0.0401,0.0691 -0.051,0.0982 -0.007,0.0254 -0.12005,0.0254 -0.12369,0.0546 -0.007,0.0328 0.0291,0.11278 0.0218,0.16371 -0.0109,0.051 -0.0946,0.17827 -0.11279,0.21829 -0.0182,0.04 -0.0364,0.0691 -0.0509,0.13825 -0.0145,0.0655 -0.0873,0.18919 -0.16008,0.21466 -0.0727,0.0291 -0.15644,0.0182 -0.18191,0.0364 -0.0218,0.0218 -0.0473,0.0254 -0.1055,0.0291 -0.0619,0.004 -0.0837,-0.0218 -0.1419,-0.0291 -0.0582,-0.004 -0.23647,0.007 -0.26195,-0.007 -0.0291,-0.0145 -0.28377,-0.21465 -0.32379,-0.23648 -0.0401,-0.0218 -0.0145,-0.0401 -0.0618,0.007 -0.0509,0.0509 -0.0655,0.0401 -0.0727,0.0655 -0.0109,0.0291 0.007,0.20737 0.007,0.22557 0,0.0182 0.1819,0 0.21828,0.0145 0.0364,0.0145 0.17828,0.0473 0.17828,0.091 0,0.0473 -0.0291,0.16371 -0.0691,0.22556 -0.04,0.0655 -0.0254,0.38565 -0.0254,0.45114 0,0.0618 -0.0946,0.88408 -0.78584,1.08417 -0.34564,0.0982 -0.61122,0.0764 -0.85498,-0.12005 -0.2001,-0.16009 -0.28014,-0.49479 -0.34563,-0.59303 -0.0618,-0.0982 -0.10914,-0.16735 -0.17099,-0.2001 -0.0582,-0.0328 -0.12007,-0.091 -0.0764,-0.20374 0.0437,-0.11278 0.1819,-0.36745 0.27649,-0.42567 0.0946,-0.0582 0.11279,-0.0691 0.11279,-0.0691 0,0 0.0109,-0.0982 0.0401,-0.14916 0.0327,-0.0473 0.0546,-0.091 0.0691,-0.11279 0.0145,-0.0218 0.0218,-0.22193 0.0327,-0.27287 0.007,-0.0509 0.0582,-0.12369 0.0946,-0.13824 0.0364,-0.0218 0.14553,-0.0691 0.18192,-0.0836 0.0364,-0.0145 0.0582,-0.0291 0.0764,-0.0546 0.0182,-0.0254 0.004,-0.091 0.004,-0.091 l -0.0909,-0.004 -0.0473,-0.0546 h -0.0837 l -0.0946,-0.10914 -0.0764,-0.004 -0.0582,-0.0727 -0.0655,0.004 c 0,0 -0.34563,-0.23648 -0.40385,-0.26922 -0.0582,-0.0291 -0.11278,0 -0.14915,-0.0655 -0.0364,-0.0691 -0.08,-0.22921 -0.091,-0.26559 -0.007,-0.0364 -0.0836,-0.17099 -0.0946,-0.23648 -0.0109,-0.0618 -0.0218,-0.23285 -0.0218,-0.23285 0,0 -0.11279,-0.20009 -0.13097,-0.22556 -0.0218,-0.0182 -0.1419,-0.08 -0.14917,-0.0982 -0.0109,-0.0182 -0.10188,-0.091 -0.12007,-0.10915 -0.0182,-0.0182 0.0145,-0.0509 0.0145,-0.0509 l -0.0509,-0.04 -0.82951,-0.76038 c 0,0 -0.0109,0.0291 -0.0364,0.0328 -0.0254,0.004 -0.10914,-0.0946 -0.12734,-0.14189 -0.0182,-0.0473 -0.0145,-0.0328 -0.0145,-0.0328 h -0.51662 l -0.0327,0.04 -0.13826,0.0109 c 0,0 -0.007,0.08 -0.0328,0.12733 -0.0254,0.0437 -0.0327,0.11278 -0.0727,0.11278 -0.04,0 -0.0582,-0.0473 -0.0837,-0.04 -0.0182,0.007 -0.0291,0.0437 -0.0473,0.0364 -0.0182,-0.0109 -0.0691,-0.0582 -0.0691,-0.0982 0,-0.0328 -0.0218,-0.15644 -0.0218,-0.15644 l -0.08,-0.0691 h -0.38202 c 0,0 -0.0254,0 -0.0291,-0.04 -0.004,-0.0437 -0.004,-0.23648 0.0837,-0.26195 0.0836,-0.0291 0.13097,-0.0254 0.13097,-0.0254 h 1.00778 c 0,0 -0.0145,-0.10187 0,-0.12733 0.0145,-0.0218 0.091,-0.1237 0.12734,-0.15645 0.0364,-0.0328 0.091,-0.004 0.12369,0.0182 0.0364,0.0218 0.0655,0.0473 0.0837,0.0582 0.0182,0.0109 0.004,-0.0328 0.04,-0.0364 0.0364,-0.004 0.0982,0.0145 0.0982,0.0145 0,0 0.0145,-0.0182 0.08,-0.0328 0.0618,-0.0145 0.14553,0.0546 0.14553,0.0546 0,0 0.0509,-0.0691 0.0873,-0.08 0.0328,-0.0145 0.091,0.007 0.11642,-0.007 0.0218,-0.0109 0.1528,-0.0982 0.21101,-0.10551 0.0618,-0.0109 0.29106,-0.0182 0.32016,0 0.0255,0.0145 0.0182,-0.14189 0.0182,-0.14189 0,0 0.007,-0.73855 0.0582,-0.85497 0.0509,-0.11279 0.08,-0.12006 0.12369,-0.11642 0.0401,0.004 0.0145,0.0182 0.08,0.004 0.0618,-0.0109 0.18554,-0.007 0.21464,-0.0109 0.0255,-0.007 -0.0291,-0.27287 -0.0291,-0.31653 0,-0.04 -0.0437,-0.50207 -0.0582,-0.61485 -0.0145,-0.11279 -0.0291,-0.72764 -0.0291,-0.79313 0,-0.0691 0.0255,-0.34562 0.0437,-0.37837 0.0182,-0.0328 0.091,-0.11642 0.12734,-0.13097 0.0364,-0.0145 -0.0255,-0.4766 -0.0145,-0.57119 0.007,-0.0946 0.0546,-0.29834 0.10551,-0.3711 0.0473,-0.0727 0.0473,-0.0727 0.0291,-0.13098 -0.0182,-0.0618 -0.0619,-0.28377 -0.0291,-0.40748 0.0291,-0.13097 0.0946,-0.16007 0.0873,-0.19282 -0.004,-0.0328 -0.0582,-0.20737 -0.0582,-0.26195 0,-0.0546 -0.004,-0.16735 0.0328,-0.16735 0.0364,0 0.0546,-0.0291 0.0546,-0.0691 0,-0.04 0.0255,-0.64032 0.0401,-0.73127 0.0145,-0.091 0.10551,-0.90227 0.10915,-0.9241 0.004,-0.0254 0.004,-0.0582 0.004,-0.0582 0,0 -0.0764,-0.0836 -0.0546,-0.13824 0.0218,-0.0546 0.0655,-0.0873 0.051,-0.12006 -0.0145,-0.0364 -0.0182,-0.17099 -0.0182,-0.17099 0,0 -0.0254,-0.10552 -0.0254,-0.12007 0,-0.0182 -0.0546,-0.0546 -0.0691,-0.0764 -0.0145,-0.0254 -0.0437,-0.0727 -0.0873,-0.0836 -0.0401,-0.007 -0.0473,-0.0509 -0.0618,-0.0764 -0.0145,-0.0291 -0.25467,-0.26922 -0.44022,-0.3056 -0.18554,-0.0364 -0.49115,-0.1528 -0.5239,-0.16009 -0.0291,-0.0109 -0.0836,-0.12369 -0.0836,-0.19282 0,-0.0691 -0.0182,-0.11278 -0.0254,-0.13097 -0.004,-0.0182 -0.0218,-0.0546 0.0582,-0.10187 0.0764,-0.0437 0.24739,-0.21102 0.44021,-0.19647 0.19646,0.0109 0.50935,-0.0182 0.82224,0.13825 0.31287,0.16009 0.382,0.25104 0.382,0.25104 l 0.13098,-0.0619 c 0,0 0.23647,0.0182 0.33107,0.0728 0.0982,0.0582 0.17464,0.11642 0.17464,0.11642 l 0.004,0.21465 c 0,0 0.04,0.0364 0.0437,0.0727 0.007,0.0437 0.0327,0.17099 -0.0109,0.22556 -0.0473,0.0618 -0.0255,0.0618 -0.0291,0.10915 -0.004,0.0437 -0.051,0.1237 -0.0946,0.14917 -0.0473,0.0218 -0.0109,0.08 -0.0109,0.12005 0,0.0437 -0.007,0.171 -0.0255,0.21102 -0.0182,0.04 -0.0473,0.0546 -0.007,0.11278 0.0437,0.0582 0.14917,0.15645 0.0982,0.2001 -0.0509,0.0437 -0.10187,0.11642 -0.0655,0.18555 0.0364,0.0691 0.0546,0.0764 0.0618,0.18555 0.004,0.10915 0.08,0.83314 0.0764,0.92773 -0.004,0.0982 -0.0145,0.38201 -0.0145,0.4002 0,0.0218 -0.0328,-0.004 -0.0437,0.0254 -0.0145,0.0254 0.0655,0.11278 0.0764,0.13461 0.007,0.0218 0.0145,0.18555 -0.004,0.22556 -0.0182,0.04 -0.0473,0.0691 -0.0328,0.10552 0.0145,0.0364 0.0401,0.0764 0.0582,0.091 0.0182,0.0145 0.10914,-0.14916 0.18919,-0.25467 0.0836,-0.10551 0.27286,-0.29833 0.29105,-0.34927 0.0182,-0.0509 0.0546,-0.1819 0.0327,-0.21828 -0.0254,-0.0364 -0.0691,-0.14917 0.0218,-0.19283 0.091,-0.0473 0.0691,-0.0254 0.0873,-0.10914 0.0182,-0.0873 0.0218,-0.26923 0.0255,-0.33471 0.007,-0.0619 0.0691,-0.47661 0.0873,-0.5239 0.0182,-0.0437 0.14915,-0.48025 0.14915,-0.5239 0,-0.0473 0.0546,-0.38201 0.0546,-0.41839 0,-0.0364 0.0291,-0.19647 0.0291,-0.25832 0,-0.0546 0.0218,-0.21101 0.0218,-0.25831 0,-0.0546 0.0182,-0.1819 0.007,-0.21829 -0.007,-0.0364 -0.004,-0.23285 -0.0364,-0.31652 -0.0291,-0.0873 -0.1528,-0.30924 -0.15644,-0.33108 -0.007,-0.0254 -0.0218,-0.20737 -0.051,-0.21101 -0.0291,-0.004 -0.091,-0.08 -0.10915,-0.11278 -0.0182,-0.0328 -0.0946,-0.25104 -0.0873,-0.29469 0.0109,-0.0473 0.004,-0.21466 0.0364,-0.29833 0.0328,-0.0873 0.19282,-0.13826 0.19282,-0.13826"
           id="path23337-3-1-5-4-4-0" />
        <path
           d="m 876.55775,575.81382 c -0.0637,-0.0675 -0.23243,-0.22117 -0.40488,-0.16119 -0.21743,0.0749 -1.27834,0.54733 -1.42829,0.59981 -0.1537,0.0562 -0.34864,0.0637 -0.40487,0.10121 -0.06,0.045 -0.0675,0.12371 -0.0675,0.12371 l -0.11621,0.10497 c -0.14246,-0.23241 -0.27367,-0.41611 -0.27367,-0.41611 l -0.30364,0.26616 c 0,0 0.12745,0.19869 0.26241,0.41611 l -0.0562,0.045 0.26991,0.6073 0.13495,0.0488 c 0.0637,0.19869 0.10122,0.39737 0.10122,0.39737 v 0.11621 c 0,0 -0.0637,0.0187 -0.0824,0.0899 -0.0187,0.0712 -0.0187,0.11996 -0.0187,0.11996 h -0.30365 l -0.15001,0.0712 c 0,0 -1.90814,0.0413 -2.0506,0.0413 -0.14245,0 -0.15745,0.0787 -0.19119,0.14995 -0.0338,0.0712 -0.045,0.18744 0.0225,0.18744 h 0.4461 l 0.11622,0.045 0.0525,0.13121 h 0.17994 l 0.0375,-0.14995 0.0675,-0.045 h 2.52293 l 0.20994,0.32614 c 0,0 0.004,0.004 0.008,0.004 l 0.004,0.015 -0.13121,0.27741 -0.47984,0.0225 c 0,0 0.26242,0.17995 0.34114,0.63354 0.0787,0.45361 0.45361,1.08341 1.36081,0.97094 0.90347,-0.1162 1.08715,-1.11713 1.08715,-1.11713 0,0 0.008,-0.20244 0.045,-0.26992 0.0338,-0.0712 0.13871,-0.19868 0.13871,-0.19868 l -0.28866,-0.0824 -0.0525,-0.3224 c 0,0 0.52483,0.16495 1.28958,-0.21743 0.7685,-0.38238 1.04592,-0.55857 1.43205,-1.35332 0.38238,-0.79099 0.40861,-0.77224 0.40861,-0.77224 l -0.13121,-0.51359 0.1762,-0.23617 0.57356,-0.57732 0.12372,-0.3299 -0.45361,-0.25491 c 0,0 0.29616,-0.57357 0.35614,-0.69728 0.06,-0.11996 0.0975,-0.4611 0.0975,-0.4611 l -0.31491,-0.3224 c 0,0 0.1837,-0.76476 0.15746,-1.3758 -0.0263,-0.61106 -0.26242,-0.90722 -0.26242,-0.90722 0,0 -0.0338,-0.72351 -0.0787,-0.84723 -0.0413,-0.11996 -0.10497,-0.23242 -0.10497,-0.23242 l 0.0525,-0.61855 0.0338,-0.0824 c 0,0 0.17619,-0.0299 0.22868,-0.19118 0.0525,-0.15371 0.55857,-2.54169 0.55857,-2.54169 l -0.48734,-0.21368 -0.0712,0.14245 c 0,0 -0.26242,-0.23617 -0.34114,-0.24367 -0.0787,-0.0112 -0.9747,-0.13121 -1.01968,-0.0712 -0.12745,0.17994 -0.015,0.35239 0.20994,0.40112 0.59231,0.13121 0.72351,0.40862 0.74226,0.55857 0.0112,0.10497 -0.72352,1.27084 -0.72352,1.27084 0,0 -0.40112,0.78726 -0.39363,0.88847 0.0112,0.10872 -0.68978,0.71602 -0.68978,1.03842 0,0.32239 -0.20618,1.35331 -0.20618,1.35331 0,0 -0.47235,-0.40862 -0.70852,-0.43485 -0.23243,-0.0299 -0.53983,-0.12372 -0.73102,-0.43112 -0.19119,-0.30365 0.13121,-0.44236 0.19869,-0.63355 0.0712,-0.19119 0.28116,-1.46577 0.35988,-1.72444 0.0787,-0.26242 0.36364,-1.0909 0.36364,-1.0909 l -0.48735,-0.29616 -0.1462,0.0413 c 0,0 -0.0899,-0.11246 -0.15745,-0.16495 -0.0712,-0.0525 -0.6298,-0.31115 -0.6298,-0.31115 0,0 -0.61855,0 -0.67103,0.008 -0.0488,0.008 -0.0787,0.38238 0.25491,0.40862 0.3299,0.0263 0.47985,0.15745 0.47985,0.15745 l 0.25117,0.73101 c 0,0 -0.17244,0.77601 -0.40862,1.07591 -0.23617,0.29241 -0.58481,1.05341 -0.58481,1.05341 l 0.0187,0.13121 c 0,0 -0.38238,0.3224 -0.39363,0.54733 -0.008,0.22492 -0.0337,0.4686 -0.0337,0.4686 l 0.0862,0.18368 c 0,0 0.59981,0.9597 0.62605,1.01968 0.0263,0.0637 0.20244,0.20243 0.22868,0.34114 0.0263,0.1387 0.25117,0.40112 0.30365,0.41986 0.0525,0.0187 0.24368,0.11996 0.20993,0.20619 -0.0338,0.0899 0,0.18369 0,0.18369 0,0 0.11997,0.43486 0.21743,0.56607 0.0975,0.1312 0.0525,0.17619 0.0975,0.3074 0.0299,0.0937 0.0375,0.1687 0.0413,0.20244 l 0.17244,0.23992 z m -1.97187,1.74694 c 0.0488,-0.015 0.0862,-0.0337 0.10496,-0.06 0.0637,-0.0787 0.17245,-0.17994 0.17245,-0.17994 l 0.73101,-0.0337 c 0,0 -0.045,0.38612 0.0112,0.52858 0.0525,0.14246 0.004,0.19493 -0.1537,0.19119 -0.06,0 -0.12746,0.0112 -0.18744,0.0262 l -0.42736,0.008 v -0.17244 c 0,0 -0.015,-0.0375 -0.0225,-0.0975 -0.008,-0.0562 0.0413,-0.0899 0.0225,-0.11621 -0.0187,-0.0225 -0.0525,0.0262 -0.0712,0.0938 -0.015,0.0712 -0.008,0.30364 -0.008,0.30364 l -0.0488,-0.11996 -0.0375,-0.004 c 0,0 -0.0262,-0.15745 -0.0862,-0.36739"
           id="path26504-2-9-29-7-0-9"
           style="stroke-width:0.959692" />
        <path
           d="m 883.51022,577.92354 c -0.0198,0.14063 -0.0312,0.30468 -0.0227,0.39843 0.0198,0.18751 0.24605,0.52344 0.24605,0.52344 0,0 -0.29299,0.3125 -0.31252,0.40234 -0.0199,0.0937 -0.18737,0.50782 -0.18737,0.50782 0,0 -0.49221,0.0508 -0.39844,0.16407 0.0978,0.11327 0.18737,0.375 0.17971,0.50391 -0.017,0.12501 0.16016,0.96875 0.91015,1.01171 0.7539,0.043 1.21093,-0.40625 1.30468,-0.93359 0.0507,-0.29297 0.18368,-0.37891 0.18368,-0.37891 0,0 -0.35155,-0.0351 -0.36326,-0.0898 -0.0284,-0.1328 -0.11338,-0.31641 -0.11338,-0.31641 0,0 0.86329,0.27343 1.32423,-0.12501 0.46874,-0.40625 0.65234,-0.65234 0.7617,-0.84375 0.11338,-0.18751 0.66798,-0.98828 0.69142,-1.2539 0.0227,-0.26563 0.2384,-0.95703 0.12501,-1.12891 -0.11338,-0.17186 -0.0547,-0.34375 -0.0547,-0.34375 0,0 0.0743,-0.17969 0,-0.25781 -0.0743,-0.0742 0.26164,-0.44141 0.26958,-0.53125 0.009,-0.0937 0.21089,-0.28516 0.0782,-0.37891 -0.13294,-0.0937 0.35938,-1.1914 0.35938,-1.1914 0,0 -0.20693,0.008 -0.23839,-0.0664 -0.0284,-0.0703 0.4922,-1.21484 0.47267,-1.37891 -0.0227,-0.16407 -0.1953,-0.83203 -0.10545,-0.9375 0.0899,-0.10936 0.0312,-0.29687 0.11339,-0.29687 0.0819,-0.008 0.2109,-0.13671 0.2109,-0.13671 0,0 1.04295,-1.31641 1.17969,-1.41016 0.13663,-0.0898 0.54295,-0.3125 0.54295,-0.3125 0,0 0.0703,-0.0508 0.0819,-0.16795 0.009,-0.1133 -0.10148,-0.42579 -0.12501,-0.53125 -0.0283,-0.10939 -0.0938,-0.70704 -0.0978,-0.76563 -0.009,-0.0586 -0.55857,-0.26952 -0.73046,-0.30859 -0.17178,-0.0391 -0.39844,0.0351 -0.3164,0.17968 0.0782,0.14846 0.27722,0.37501 0.27722,0.52344 0,0.15625 0.0663,0.46094 0.0227,0.52735 -0.0391,0.0664 -1.82424,1.28516 -1.82424,1.28516 l -0.0113,0.12892 c 0,0 -0.1406,0.0195 -0.22649,0.0937 -0.0899,0.0742 -0.59375,0.58203 -0.62892,0.73047 -0.0352,0.14842 -0.18737,0.40234 -0.30079,0.50781 -0.11338,0.10547 -0.70702,0.77734 -0.82811,0.8125 -0.11707,0.0352 -0.56639,-0.0272 -0.80079,-0.26952 -0.23443,-0.23828 -0.59766,-0.375 -0.62889,-0.4375 -0.0284,-0.0586 -0.0899,-0.40235 -0.0507,-0.5625 0.0351,-0.16016 0.0859,-0.17969 0.0779,-0.24999 -0.003,-0.0703 -0.0468,-0.1328 0.009,-0.19922 0.0507,-0.0625 0.0819,-1.09766 0.10545,-1.38672 0.0283,-0.28906 0,-0.90625 0.0351,-1.06641 0.0391,-0.15624 0.20693,-0.46093 0.2109,-0.52734 0.009,-0.0664 -0.0142,-0.2461 -0.0142,-0.2461 -0.0587,-0.35547 -0.017,-0.3125 0,-0.35938 0.0142,-0.043 -0.21883,-0.16798 -0.33596,-0.16798 -0.11707,0.004 -0.53515,0.14063 -0.60936,0.16798 -0.0703,0.0312 -0.50783,-0.008 -0.70702,-0.0116 -0.19531,-0.008 -0.82423,0.22657 -0.9375,0.35547 -0.11707,0.1328 0,0.35938 0.23442,0.34375 0.23443,-0.0156 0.63281,-0.0156 0.71093,0.0156 0.078,0.0312 0.51954,0.16407 0.47656,0.36718 -0.0391,0.20704 -0.59374,2.4375 -0.56639,2.52344 0.0284,0.082 0.0819,0.11327 0.0819,0.11327 0,0 -0.2656,0.10156 -0.27354,0.1836 -0.003,0.082 -0.37891,1.16797 -0.14457,1.42187 0.23046,0.24999 1.23829,1.64063 1.25391,1.73828 0.017,0.0937 -0.13663,-0.0351 -0.0743,0.18751 0.0587,0.23048 0.35941,0.70703 0.31643,0.78516 -0.0431,0.0781 -0.0938,-0.0196 -0.23045,-0.0312 -0.1406,-0.0116 -0.2384,0.0586 -0.25767,0.14063 -0.0198,0.082 -0.3867,0.94532 -0.3867,0.94532 l -0.53519,1.26562 c -0.009,-0.0116 -0.0198,-0.0272 -0.0312,-0.0508 -0.0283,-0.0508 0.0113,-0.10548 -0.017,-0.12501 -0.0283,-0.0156 -0.0431,0.043 -0.0391,0.1211 0.003,0.0312 0.0227,0.0937 0.0431,0.15236 l -0.0227,0.0586 -0.0113,-0.0116 -0.0391,0.008 c 0,0 -0.2228,-0.39844 -0.52342,-0.72657 -0.30078,-0.32812 -0.87111,-0.73437 -0.87111,-0.73437 l -0.2109,0.36328 c 0,0 0.60936,0.48047 0.80858,0.68359 0.19928,0.20313 0.40626,0.56641 0.40626,0.56641 l 0.0431,0.11719 c 0,0 -0.0587,0.043 -0.0507,0.11718 0.003,0.0742 0.0198,0.1211 0.0198,0.1211 l -0.29687,0.10547 -0.12501,0.12501 c 0,0 -1.86329,0.68359 -2.00392,0.73047 -0.14457,0.0469 -0.12898,0.13672 -0.1406,0.21875 -0.009,0.0781 0.0198,0.19531 0.0859,0.17187 l 0.44141,-0.15234 0.12898,0.004 0.0938,0.11718 0.17972,-0.0625 -0.017,-0.16016 0.0547,-0.0703 2.56249,-0.88281 0.017,0.043 0.0819,-0.0275 -0.0198,-0.0547 z m 0,0"
           id="path26512-3-4-8-8-6"
           style="stroke-width:1" />
      </g>
    </g>
  </g>
</svg>
