<?xml version="1.0" encoding="UTF-8" standalone="no"?>
<!-- Created with Inkscape (http://www.inkscape.org/) -->

<svg
   width="12.549016mm"
   height="6.3003306mm"
   viewBox="0 0 12.549016 6.3003306"
   version="1.1"
   id="svg1"
   sodipodi:docname="inkporter-svg-z0ijwbjg.svg"
   xmlns:inkscape="http://www.inkscape.org/namespaces/inkscape"
   xmlns:sodipodi="http://sodipodi.sourceforge.net/DTD/sodipodi-0.dtd"
   xmlns="http://www.w3.org/2000/svg"
   xmlns:svg="http://www.w3.org/2000/svg">
  <sodipodi:namedview
     id="namedview1"
     pagecolor="#ffffff"
     bordercolor="#666666"
     borderopacity="1.0"
     inkscape:showpageshadow="2"
     inkscape:pageopacity="0.0"
     inkscape:pagecheckerboard="0"
     inkscape:deskcolor="#d1d1d1"
     inkscape:document-units="mm"
     inkscape:zoom="3.2729938"
     inkscape:cx="356.096"
     inkscape:cy="612.43623"
     inkscape:window-width="3840"
     inkscape:window-height="2066"
     inkscape:window-x="2869"
     inkscape:window-y="-11"
     inkscape:window-maximized="1"
     inkscape:current-layer="layer1" />
  <defs
     id="defs1" />
  <g
     inkscape:label="Layer 1"
     inkscape:groupmode="layer"
     id="layer1"
     transform="translate(-73.341342,-182.11053)">
    <g
       id="S-Infantrys4a"
       transform="matrix(1.038668,0,0,1.038668,-367.74425,249.34156)">
      <path
         id="path7635-8-3-2-6-1"
         style="fill:#000000;stroke-width:0.0249905"
         d="m 426.95622,-62.629289 c -0.2061,0.0023 -0.36182,0.115438 -0.3992,0.29038 -0.009,0.04403 -0.0285,0.09404 -0.0422,0.111043 -0.0365,0.04532 -0.006,0.101644 0.0605,0.111045 0.0476,0.0068 0.0594,0.02555 0.0661,0.107714 0.004,0.0548 0.0157,0.105108 0.025,0.112155 0.009,0.007 0.0413,0.05828 0.0716,0.113263 0.0511,0.09268 0.0633,0.09977 0.16269,0.09938 0.12531,-4.72e-4 0.14979,0.02306 0.13102,0.125481 -0.0329,0.179786 -0.14745,0.493038 -0.18432,0.504142 -0.004,0.0012 -0.009,0.0027 -0.0139,0.0044 -0.0177,-0.01252 -0.0278,-0.0211 -0.0278,-0.0211 0,0 -0.0207,-0.06113 -0.0772,-0.05608 -0.0579,0.0043 -0.19988,0.01499 -0.19988,0.01499 l 10e-4,0.005 c -0.008,-0.0038 -0.0166,-0.0039 -0.0261,-0.0017 l -0.002,-0.02221 c 0,0 -0.0391,0.0036 -0.0483,0.0039 -0.011,-6.59e-4 -0.0389,-0.03331 -0.0389,-0.03331 l -0.0261,0.0017 c 0,0 -0.007,0.02862 -0.0194,0.02887 -0.0133,0.0016 -0.0644,0.0061 -0.0644,0.0061 l 0.003,0.02832 -0.12383,0.01 -5.4e-4,-0.02554 -0.0344,0.0044 0.002,0.01721 -1.08879,0.08384 -0.0316,-0.01721 -0.0206,-0.06163 -0.0749,0.0061 -0.0167,0.05719 -0.0483,0.02332 c 0,0 -0.15581,0.01212 -0.18546,0.01388 -0.0303,0.0032 -0.0203,0.05017 -0.005,0.07829 0.0165,0.02875 0.0255,0.06202 0.0855,0.05719 0.0601,-0.0049 0.86004,-0.04886 0.86004,-0.04886 l 0.0644,0.0261 0.12712,-0.0094 c 0,0 0.002,0.01874 0.0117,0.04719 0.0109,0.02926 0.0372,0.03665 0.0372,0.03665 l 0.004,0.04886 c 0,0 -0.0175,0.167514 -0.0594,0.273724 -0.0418,0.106259 -0.18879,0.38255 -0.18879,0.38255 l 0.13492,0.100494 c 0,0 0.14603,-0.241013 0.2049,-0.411418 0.0339,-0.0985 0.0536,-0.200808 0.065,-0.269838 0.0161,0.01463 0.0359,0.01844 0.0705,0.01721 0.008,0.01243 0.0156,0.01819 0.0195,0.0111 0.003,-0.0035 0.002,-0.0076 5.4e-4,-0.01166 0.0108,-8.08e-4 0.0231,-0.002 0.0366,-0.0033 0.0656,-0.0065 0.14663,-0.01886 0.17989,-0.02721 0.037,-0.0093 0.0824,6.62e-4 0.11717,0.02499 0.0313,0.02192 0.0884,0.03942 0.12713,0.03942 0.0387,0 0.0976,0.01807 0.13105,0.03998 0.0705,0.04618 0.33237,0.06482 0.46416,0.03276 0.049,-0.01192 0.11553,-0.05016 0.14768,-0.08439 0.0245,0.01194 0.0686,0.02987 0.12383,0.04941 0.005,0.04379 -0.0282,0.07868 -0.10438,0.113263 -0.0584,0.02651 -0.13418,0.04858 -0.16824,0.04886 -0.10774,9.3e-4 -0.38959,0.123642 -0.46529,0.202656 -0.0905,0.09452 -0.0945,0.226469 -0.0122,0.409751 0.0309,0.06872 0.0603,0.147408 0.065,0.174897 0.005,0.02749 0.0314,0.137216 0.0594,0.243742 0.028,0.106528 0.0449,0.209358 0.0378,0.228197 -0.007,0.01884 0.004,0.05189 0.0261,0.07329 0.0352,0.03519 0.0259,0.04599 -0.0955,0.115486 -0.0738,0.04223 -0.15737,0.07662 -0.18597,0.07662 -0.0805,0 -0.1769,0.05234 -0.19379,0.105491 -0.0212,0.0668 -0.006,0.07575 0.18378,0.10938 0.0922,0.0163 0.18762,0.02461 0.21153,0.01832 0.024,-0.0063 0.14998,-0.01372 0.28041,-0.01666 0.13039,-0.003 0.24754,-0.01662 0.26039,-0.02998 0.0266,-0.02767 -0.0256,-0.551319 -0.0811,-0.816731 -0.0301,-0.143791 -0.0297,-0.172401 0,-0.197104 0.0451,-0.03746 0.30875,-0.01184 0.33703,0.03276 0.0113,0.01795 0.0209,0.160603 0.0211,0.317584 4.5e-4,0.347243 0.0171,0.376998 0.2132,0.376998 0.19635,0 0.37916,-0.04216 0.43807,-0.101051 0.029,-0.02897 0.12374,-0.08437 0.21042,-0.123261 0.0867,-0.03889 0.16504,-0.08323 0.17434,-0.09827 0.0264,-0.0428 0.0569,-0.03287 0.12548,0.04109 0.0436,0.04701 0.0633,0.09694 0.0633,0.158795 0,0.09517 0.0747,0.191683 0.12437,0.161013 0.0149,-0.0092 0.0547,-0.07206 0.0888,-0.13936 0.071,-0.14013 0.0806,-0.299763 0.0244,-0.407534 -0.0205,-0.03937 -0.0374,-0.101466 -0.0377,-0.137694 -2.9e-4,-0.03623 -0.0207,-0.09162 -0.045,-0.123258 -0.0426,-0.0554 -0.0509,-0.05683 -0.21543,-0.03054 -0.17025,0.0272 -0.28171,0.07041 -0.44807,0.17323 l -0.0877,0.05441 0.007,-0.06385 c 0.004,-0.03496 0.0142,-0.07081 0.0233,-0.07995 0.009,-0.0091 0.0167,-0.04244 0.0167,-0.07384 0,-0.03139 0.0181,-0.06742 0.0405,-0.07995 0.0224,-0.01253 0.0352,-0.03811 0.0283,-0.05719 -0.0188,-0.05278 0.027,-0.12215 0.0805,-0.12215 0.0262,0 0.0532,-0.0097 0.0605,-0.02165 0.007,-0.01197 0.0479,-0.0289 0.0894,-0.0372 0.0672,-0.01344 0.0755,-0.02508 0.0755,-0.104937 0,-0.04936 -0.012,-0.112049 -0.0266,-0.139362 -0.0205,-0.03842 -0.0149,-0.07361 0.025,-0.156015 0.0653,-0.134976 0.0659,-0.289674 10e-4,-0.416418 l -0.0427,-0.08384 -0.16659,-0.269283 c -0.0137,-0.006 -0.0247,-0.01306 -0.0366,-0.02276 -0.0324,-0.02643 -0.0731,-0.04831 -0.0905,-0.04831 -0.0176,0 -0.0391,-0.045 -0.0483,-0.102159 -0.0117,-0.07277 -0.0304,-0.106333 -0.0655,-0.115486 -0.0593,-0.01551 -0.0646,-0.07086 -0.01,-0.101605 0.0218,-0.01222 0.0428,-0.05493 0.0466,-0.09494 0.004,-0.04 0.021,-0.132716 0.0378,-0.20543 0.0168,-0.07271 0.0249,-0.146412 0.0183,-0.16379 -0.007,-0.01738 -0.0629,-0.05814 -0.12491,-0.09106 -0.0988,-0.05241 -0.11808,-0.05546 -0.15547,-0.02443 -0.0437,0.0363 -0.0435,0.07708 0.004,0.47416 l 0.0133,0.112712 -0.0711,-0.08773 c -0.039,-0.04811 -0.0961,-0.111373 -0.12715,-0.140471 -0.0684,-0.06418 -0.33613,-0.165322 -0.38644,-0.146023 -0.0525,0.02013 -0.16735,-0.08039 -0.12437,-0.108823 0.0263,-0.01739 0.0265,-0.04543 0.002,-0.144356 -0.0635,-0.259568 -0.15885,-0.344924 -0.38422,-0.343127 z" />
      <path
         style="fill:#000000;stroke-width:0.0288739"
         d="m 432.64062,-58.702092 c -0.0665,-0.06644 -0.0258,-0.149084 0.14499,-0.295016 0.23658,-0.202108 0.24984,-0.25278 0.1837,-0.701642 -0.0516,-0.35034 -0.0955,-0.478534 -0.28091,-0.820358 -0.0438,-0.08066 -0.0402,-0.1006 0.0884,-0.490857 0.1356,-0.411548 0.18921,-0.616386 0.1905,-0.727894 6.5e-4,-0.05222 -0.0217,-0.06419 -0.15089,-0.08127 -0.0834,-0.01101 -0.21333,-0.04018 -0.28881,-0.06482 -0.0755,-0.02464 -0.16184,-0.03836 -0.19193,-0.03049 -0.091,0.02379 -0.26808,-0.09654 -0.30871,-0.209725 -0.0455,-0.126645 -0.0495,-0.247117 -0.0108,-0.319511 0.037,-0.06919 0.0348,-0.06914 -0.14912,0.0033 -0.1732,0.06827 -0.32337,0.0655 -0.33694,-0.0062 -0.005,-0.02857 0.0156,-0.05592 0.052,-0.06744 0.0336,-0.01065 0.073,-0.05074 0.0876,-0.08909 0.0299,-0.07871 0.0635,-0.08791 0.11119,-0.03046 0.0272,0.03274 0.0757,0.02708 0.29227,-0.03412 0.15008,-0.0424 0.2597,-0.08867 0.2597,-0.109607 0,-0.01993 0.0422,-0.04031 0.0938,-0.04528 l 0.0938,-0.009 0.0164,-0.202118 c 0.0136,-0.167802 0.008,-0.212003 -0.0348,-0.260346 -0.0608,-0.06917 -0.16834,-0.397805 -0.16887,-0.5159 -5.4e-4,-0.125011 0.0614,-0.306644 0.11424,-0.334926 0.0257,-0.01375 0.11652,-0.02273 0.20184,-0.01995 l 0.15514,0.0051 0.0602,0.178434 c 0.0331,0.09814 0.0699,0.188008 0.0818,0.19971 0.0119,0.0117 0.0216,0.06995 0.0216,0.129434 0,0.10459 0.007,0.112431 0.22467,0.237744 0.24542,0.141558 0.45514,0.345597 0.48605,0.472894 0.0109,0.04461 0.0632,0.123963 0.11647,0.17634 0.0532,0.05237 0.0968,0.108055 0.0968,0.12373 0,0.01812 0.0206,0.01745 0.0567,-0.0018 0.049,-0.02622 0.0726,-0.01023 0.1734,0.117259 0.16636,0.21047 0.1923,0.360227 0.0716,0.413429 -0.0581,0.02561 -0.0582,0.02793 -0.007,0.178983 0.0586,0.173611 0.0412,0.259147 -0.0705,0.347098 -0.038,0.02988 -0.1247,0.170519 -0.19278,0.312539 -0.15836,0.330287 -0.41301,0.608667 -0.59983,0.655711 -0.0684,0.01723 -0.12442,0.04733 -0.12442,0.06688 0,0.01956 0.0789,0.104193 0.17537,0.188085 0.0965,0.08389 0.2094,0.206029 0.25099,0.271414 0.0416,0.06538 0.10538,0.151835 0.14173,0.192111 0.0363,0.04028 0.0742,0.113782 0.0841,0.163345 0.0151,0.0754 0.006,0.09803 -0.056,0.138596 -0.0407,0.02667 -0.0874,0.04017 -0.10387,0.03001 -0.0165,-0.01016 -0.0807,0.03659 -0.14285,0.103877 -0.10929,0.118361 -0.11293,0.1289 -0.1117,0.323796 6.8e-4,0.162894 -0.009,0.208854 -0.0516,0.240121 -0.0291,0.02127 -0.0708,0.03867 -0.0926,0.03867 -0.0219,0 -0.0811,0.03121 -0.13163,0.06935 -0.16224,0.122408 -0.43994,0.170416 -0.52039,0.08997 z"
         id="path10351-3-6-3-8-3" />
      <path
         id="path10339-8-9-9-8-5-2-5-5"
         style="fill:#000000;stroke-width:0.0285544"
         d="m 429.73788,-58.693866 c -0.0408,-0.0043 -0.14681,-1.28e-4 -0.23574,0.0091 -0.26154,0.02714 -0.41638,-0.08192 -0.29192,-0.205651 0.0292,-0.02913 0.0977,-0.0623 0.15195,-0.07371 0.0542,-0.01142 0.12146,-0.04338 0.14925,-0.07101 0.0487,-0.04852 0.14435,-0.09603 0.1589,-0.799887 0.009,-0.401024 0.0267,-0.82093 0.0372,-0.862812 0.0125,-0.04778 0.045,-0.08257 0.0879,-0.09336 0.0469,-0.01177 0.12083,-0.09906 0.2327,-0.274601 0.0903,-0.141562 0.22993,-0.357252 0.31037,-0.479314 l 0.14626,-0.221928 -0.11374,-0.09544 -0.11374,-0.09542 -0.0731,0.09334 c -0.0794,0.101461 -0.21778,0.172099 -0.33712,0.172099 -0.0884,0 -0.29748,-0.110202 -0.29748,-0.156811 0,-0.0423 -0.21883,-0.13804 -0.25892,-0.113267 -0.0319,0.01973 -0.1321,-0.09695 -0.1187,-0.138275 0.003,-0.01259 0.0142,-0.08435 0.0227,-0.159511 0.0116,-0.104515 0.003,-0.145656 -0.0309,-0.175 -0.0499,-0.04136 -0.29142,-0.04599 -0.67515,-0.01291 -0.20304,0.0175 -0.22111,0.01454 -0.25085,-0.041 -0.0293,-0.05473 -0.0246,-0.05987 0.0555,-0.05987 0.0515,0 0.0943,-0.01764 0.10407,-0.04284 0.0192,-0.05007 0.096,-0.05811 0.096,-0.01002 0,0.02367 0.0734,0.0275 0.26413,0.01381 0.14526,-0.01037 0.36693,-0.02604 0.49254,-0.03468 0.12566,-0.0086 0.26225,-0.02862 0.30354,-0.0444 0.0414,-0.01578 0.0926,-0.02625 0.11421,-0.02325 0.0216,0.003 0.0809,0.004 0.13193,0.002 l 0.0928,-0.0034 v -0.154257 c 0,-0.145723 -0.005,-0.155906 -0.0857,-0.184116 -0.0472,-0.01643 -0.0857,-0.0489 -0.0857,-0.07214 0,-0.02325 -0.0192,-0.0616 -0.043,-0.08524 -0.0237,-0.02362 -0.043,-0.08559 -0.043,-0.137672 4.4e-4,-0.452118 -0.002,-0.433083 0.0872,-0.515886 0.0593,-0.05468 0.11584,-0.07853 0.1859,-0.07853 0.21521,0 0.46397,0.211731 0.42772,0.364066 -0.007,0.03534 -0.0231,0.0959 -0.0327,0.134604 -0.019,0.07673 -0.007,0.08404 0.3385,0.216172 0.12822,0.04895 0.19993,0.102743 0.32836,0.246245 0.0904,0.100984 0.24466,0.268383 0.34282,0.371995 0.0981,0.103617 0.17847,0.206764 0.17847,0.229227 0,0.07234 0.14964,0.298877 0.2718,0.411482 0.0653,0.06019 0.14224,0.161586 0.17098,0.22532 l 0.0522,0.115889 -0.0976,0.0836 c -0.0537,0.04598 -0.12058,0.09152 -0.14878,0.101193 -0.0317,0.01084 -0.0455,0.03585 -0.0364,0.06528 0.0669,0.214486 0.17435,0.685643 0.16559,0.725831 -0.0169,0.07771 -0.0893,0.0588 -0.1092,-0.02855 -0.0255,-0.111892 -0.0965,-0.37586 -0.13128,-0.48838 l -0.0296,-0.09576 -0.11153,0.205637 c -0.16889,0.311269 -0.13135,0.512661 -0.22376,0.559691 -0.0459,0.02344 -0.0838,0.05059 -0.0838,0.0603 0,0.0098 0.0419,0.125578 0.0932,0.257469 0.0514,0.131882 0.0468,0.3346 0.0879,0.492383 0.041,0.157782 0.0911,0.340033 0.11141,0.405002 0.0472,0.151871 0.055,0.293252 0.069,0.385495 0.0178,0.115971 -0.21934,0.234157 -0.39828,0.188215 -0.0386,-0.01002 -0.12445,-0.01575 -0.15853,-0.01263 -0.034,0.0031 -0.0766,-0.0098 -0.0945,-0.02859 -0.0488,-0.05105 -0.0304,-0.180648 0.0346,-0.215765 0.19192,-0.103804 0.19639,-0.292879 0.15375,-0.383782 -0.0149,-0.03175 -0.0705,-0.200111 -0.12358,-0.374135 -0.0531,-0.174027 -0.13336,-0.373649 -0.17845,-0.44361 -0.0451,-0.06996 -0.0821,-0.160189 -0.0821,-0.200503 0,-0.04032 -0.013,-0.103221 -0.029,-0.139814 -0.0273,-0.06296 -0.0696,-0.05998 -0.19518,0.05059 -0.11048,0.09719 -0.14976,0.115376 -0.234,0.108127 l -0.10128,-0.0086 -0.006,0.185602 c -0.002,0.102091 -0.0132,0.213831 -0.0169,0.242713 -0.002,0.02888 0.003,0.164741 0.0149,0.301916 0.0126,0.158548 0.007,0.29723 -0.0125,0.380677 -0.0177,0.0722 -0.0291,0.160804 -0.0256,0.196902 0.002,0.03608 0.007,0.130611 0.009,0.210028 l -0.0175,0.112964 -0.12183,0.0365 c -0.0744,0.02227 -0.18076,-0.02057 -0.22149,-0.02478 z m 0.0612,-3.493471 c 0.0482,-0.04712 0.0853,-0.23498 0.0407,-0.207512 -0.0182,0.0113 -0.0331,0.0086 -0.0331,-0.0058 0,-0.0144 -0.0803,-0.02148 -0.17847,-0.0157 -0.29479,0.0173 -0.2784,0.0089 -0.2784,0.143011 v 0.120807 l 0.13564,0.01119 c 0.16665,0.01371 0.26738,-0.0011 0.31345,-0.04599 z"
         sodipodi:nodetypes="cssssccssscccsssscccsssssssssccsssscssccsssssscsscssscssssssssssssssscssccccccccscccsssscscc" />
      <path
         style="fill:#000000;stroke-width:0.0272869"
         d="m 435.33302,-58.669903 c 0.0794,-0.01913 0.11747,-0.08375 0.0426,-0.242309 0.002,-0.394452 0.0161,-0.558395 0.0666,-0.777118 0.0144,-0.06196 0.0263,-0.147654 0.0267,-0.19041 4.2e-4,-0.04275 0.0202,-0.119034 0.0443,-0.169509 0.0238,-0.05048 0.0383,-0.107462 0.0319,-0.126639 -0.006,-0.01918 0.0179,-0.05819 0.0543,-0.08669 0.0537,-0.04229 0.0629,-0.06803 0.0494,-0.139755 -0.0113,-0.05983 -0.004,-0.09834 0.0229,-0.120554 0.0216,-0.01795 0.0479,-0.08412 0.0585,-0.147036 0.0111,-0.06565 0.0523,-0.152247 0.0969,-0.203214 l 0.0777,-0.08881 0.046,0.224495 c 0.0135,0.06622 0.0751,0.177688 0.11063,0.258028 0.0386,0.08722 0.0575,0.173794 0.0468,0.214863 -0.0107,0.0398 9.4e-4,0.100405 0.0278,0.143803 0.0429,0.0705 0.0414,0.0842 -0.0241,0.227953 -0.0384,0.08412 -0.0879,0.244049 -0.11006,0.355402 -0.0222,0.111351 -0.0512,0.222965 -0.0643,0.248028 -0.0131,0.02506 -0.0676,0.240372 -0.0708,0.314149 -0.005,0.118159 8.8e-4,0.133502 0.10164,0.168487 0.0621,0.02173 0.14589,0.03813 0.18604,0.03649 0.0402,-0.0016 0.11384,0.01406 0.16368,0.03496 0.0499,0.02089 0.13854,0.03034 0.19704,0.02097 0.20215,-0.0323 -0.005,-0.147298 -0.118,-0.231051 -0.24033,-0.178152 -0.15164,-0.201073 -0.0521,-0.44068 0.0418,-0.100566 0.12891,-0.310886 0.19364,-0.467338 l 0.11769,-0.284465 -0.006,-0.444565 c -0.005,-0.367101 -0.0172,-0.473334 -0.0664,-0.609572 -0.16134,-0.44659 -0.16886,-0.320353 -0.13668,-0.371884 0.0246,-0.03941 0.0176,-0.08571 -0.0335,-0.221801 -0.0614,-0.163307 -0.0827,-0.297596 -0.0742,-0.465331 0.003,-0.05971 0.017,-0.07504 0.0685,-0.07504 0.0357,0 0.12107,-0.0249 0.18992,-0.05536 0.10594,-0.04687 0.12793,-0.07008 0.14313,-0.15113 0.0129,-0.0692 0.003,-0.127625 -0.0377,-0.210679 -0.0306,-0.06321 -0.10217,-0.210902 -0.15887,-0.328216 -0.0567,-0.117316 -0.11291,-0.219343 -0.12487,-0.226729 -0.0119,-0.0074 -0.0217,-0.05545 -0.0217,-0.106808 0,-0.07684 -0.0121,-0.09641 -0.0682,-0.110494 -0.081,-0.02034 -0.0806,-0.01219 -0.0264,-0.502372 0.0854,-0.774041 0.0846,-0.715607 0.0107,-0.705083 -0.0707,0.01 -0.0823,0.04556 -0.089,0.272708 -0.002,0.06986 -0.0112,0.122444 -0.0202,0.116867 -0.01,-0.0056 -0.0238,0.103037 -0.033,0.241367 -0.01,0.138328 -0.0315,0.315973 -0.0498,0.394763 -0.0327,0.141153 -0.0346,0.143257 -0.13443,0.143257 -0.0766,0 -0.11171,-0.01584 -0.14397,-0.06509 -0.0451,-0.06882 -0.0358,-0.103681 0.0216,-0.08161 0.0465,0.01786 0.0757,-0.215564 0.0441,-0.351899 -0.0447,-0.192581 -0.14495,-0.288388 -0.34718,-0.33191 -0.16431,-0.03536 -0.37042,0.107281 -0.458,0.316976 -0.0414,0.09923 -0.041,0.101329 0.04,0.177366 0.0653,0.06136 0.0786,0.0921 0.0657,0.151805 -0.0107,0.04957 -0.002,0.0894 0.0267,0.117919 0.0686,0.06847 0.0507,0.117081 -0.0593,0.162848 -0.12451,0.05178 -0.307,0.175108 -0.307,0.207466 0,0.01297 0.0169,0.02357 0.0374,0.02357 0.0555,0 0.0819,0.196851 0.0301,0.225791 -0.0576,0.03221 -0.0496,0.09283 0.0144,0.10956 0.0365,0.0096 0.0546,0.03723 0.0546,0.08343 0,0.03803 0.0133,0.07743 0.0298,0.08754 0.0327,0.02018 0.0136,0.165174 -0.0358,0.273787 -0.0227,0.04978 -0.0514,0.06579 -0.11818,0.06579 -0.0563,0 -0.0944,0.01606 -0.10529,0.0444 -0.0208,0.05447 0.0604,0.123568 0.12718,0.108157 0.0388,-0.009 0.0477,0.0077 0.0479,0.08876 7e-5,0.05487 0.017,0.132117 0.0377,0.17165 0.0206,0.03953 0.0282,0.08693 0.0169,0.105347 -0.0495,0.08012 0.0578,0.198734 0.13609,0.150368 0.0351,-0.02175 0.0362,0.07577 9.5e-4,0.11081 -0.0321,0.03217 -0.10784,0.35531 -0.12866,0.549483 -0.02,0.186887 0.004,0.307669 0.0891,0.431717 0.0704,0.103735 0.0794,0.216106 0.0222,0.277015 -0.0581,0.06182 -0.0965,0.37256 -0.0917,0.741648 0.003,0.20476 0.0236,0.496145 -0.0227,0.632304 -0.0784,0.230608 -0.0524,0.254451 0.0538,0.282452 0.096,0.02531 0.14377,0.03053 0.26784,0.01661 z"
         id="path2943-4-20-7-4-9-8-6"
         sodipodi:nodetypes="ccsscssscsscssccsssscsssssscsssscssscsssssssccssssssssscssssssssssssscscscscsscc" />
    </g>
  </g>
</svg>
