<?xml version="1.0" encoding="UTF-8" standalone="no"?>
<!-- Created with Inkscape (http://www.inkscape.org/) -->

<svg
   width="71.110535mm"
   height="5.9689918mm"
   viewBox="0 0 71.110535 5.9689918"
   version="1.1"
   id="svg1"
   sodipodi:docname="inkporter-svg-tcwrm7x9.svg"
   xmlns:inkscape="http://www.inkscape.org/namespaces/inkscape"
   xmlns:sodipodi="http://sodipodi.sourceforge.net/DTD/sodipodi-0.dtd"
   xmlns="http://www.w3.org/2000/svg"
   xmlns:svg="http://www.w3.org/2000/svg">
  <sodipodi:namedview
     id="namedview1"
     pagecolor="#ffffff"
     bordercolor="#666666"
     borderopacity="1.0"
     inkscape:showpageshadow="2"
     inkscape:pageopacity="0.0"
     inkscape:pagecheckerboard="0"
     inkscape:deskcolor="#d1d1d1"
     inkscape:document-units="mm"
     inkscape:zoom="1.6641134"
     inkscape:cx="396.90806"
     inkscape:cy="561.25984"
     inkscape:window-width="3840"
     inkscape:window-height="2081"
     inkscape:window-x="2391"
     inkscape:window-y="-9"
     inkscape:window-maximized="1"
     inkscape:current-layer="layer1" />
  <defs
     id="defs1" />
  <g
     inkscape:label="Layer 1"
     inkscape:groupmode="layer"
     id="layer1"
     transform="translate(-69.585401,-145.52083)">
    <g
       id="S-Infantry-MG5-4x4"
       transform="translate(-415.57154,203.32153)">
      <g
         id="S-Infantry-MG5-4"
         transform="translate(4.6561132,33.329009)">
        <g
           id="g20432"
           transform="translate(-18.036386,-36.402316)">
          <g
             id="g20675">
            <path
               style="fill:#000000;stroke-width:0.028598"
               d="m 519.37201,-48.920495 c -0.0726,-0.03764 -0.12913,-0.01206 -0.23061,-0.0062 -0.20547,0.01193 -0.3247,-0.02663 -0.33777,-0.109243 -0.01,-0.06258 0.0403,-0.106554 0.17801,-0.15591 0.19041,-0.06825 0.23383,-0.112196 0.20481,-0.606352 -0.0327,-0.555749 -0.0108,-0.924458 0.0621,-1.04549 0.0295,-0.04904 0.0536,-0.109877 0.0536,-0.135182 0,-0.02531 0.0312,-0.06646 0.0693,-0.09146 0.0381,-0.02499 0.0836,-0.08629 0.10101,-0.136224 0.0173,-0.04993 0.0795,-0.140023 0.13797,-0.200207 0.10405,-0.107074 0.10511,-0.11035 0.0492,-0.152414 -0.0397,-0.02984 -0.0915,-0.03767 -0.16916,-0.0256 -0.095,0.01476 -0.15188,-0.0024 -0.37528,-0.113285 -0.25166,-0.124891 -0.26399,-0.135384 -0.27844,-0.237026 -0.008,-0.05849 -0.0238,-0.132089 -0.0345,-0.163546 -0.0192,-0.05615 -0.0187,-0.05618 0.0254,-0.0022 0.0247,0.03026 0.0525,0.09573 0.0618,0.145499 0.0134,0.07131 0.0501,0.110562 0.1734,0.185288 0.127,0.07696 0.1983,0.09848 0.37895,0.114367 0.12238,0.01076 0.23755,0.02887 0.25592,0.04022 0.079,0.04886 0.0241,-0.0668 -0.0866,-0.181898 -0.11638,-0.121114 -0.12492,-0.124705 -0.28149,-0.118314 -0.1454,0.0059 -0.16625,-7.62e-4 -0.20959,-0.06687 -0.072,-0.109956 -0.0886,-0.23411 -0.0412,-0.308811 0.0549,-0.08644 0.0427,-0.242825 -0.0291,-0.376883 -0.066,-0.123097 -0.43631,-0.567154 -0.45632,-0.547151 -0.007,0.0071 0.007,0.07469 0.0317,0.150161 0.11783,0.362721 0.15839,0.524873 0.17738,0.709194 0.0113,0.110102 0.0111,0.191228 -3.5e-4,0.180281 -0.0266,-0.02514 -0.098,-0.354721 -0.0994,-0.458296 -8.4e-4,-0.07247 -0.0617,-0.218415 -0.2053,-0.493057 -0.0472,-0.0902 -0.0525,-0.124021 -0.0265,-0.165785 0.0279,-0.04478 0.01,-0.07847 -0.12554,-0.229859 -0.0871,-0.09756 -0.17839,-0.219512 -0.20293,-0.270996 -0.0258,-0.05428 -0.0578,-0.08546 -0.0759,-0.07423 -0.0194,0.012 -0.0232,0.0061 -0.01,-0.01544 0.0121,-0.01947 10e-5,-0.05843 -0.027,-0.08838 -0.0464,-0.05129 -0.0446,-0.05345 0.0415,-0.051 0.0683,0.0019 0.0859,0.01306 0.0733,0.04609 -0.0104,0.02694 0.0258,0.08791 0.095,0.160047 0.10725,0.11187 0.35197,0.391106 0.7483,0.85382 0.10224,0.119363 0.20058,0.217857 0.21854,0.218878 0.0485,0.0028 0.0757,-0.139606 0.0358,-0.187612 -0.0246,-0.02964 -0.0258,-0.0592 -0.004,-0.1066 0.0241,-0.0528 0.0201,-0.07171 -0.0203,-0.09697 -0.0276,-0.01726 -0.058,-0.06995 -0.0674,-0.117092 -0.009,-0.04714 -0.0572,-0.150837 -0.1062,-0.230437 -0.087,-0.14134 -0.0915,-0.203164 -0.0151,-0.203164 0.0209,0 0.0593,-0.03268 0.0855,-0.07263 0.12099,-0.184642 0.38056,-0.197881 0.55038,-0.02807 0.0884,0.08838 0.095,0.10808 0.095,0.283724 v 0.188747 h 0.0984 c 0.0541,0 0.10636,0.01286 0.11608,0.0286 0.0275,0.04466 0.20203,0.03361 0.31423,-0.01989 0.0894,-0.04263 0.12274,-0.04414 0.27591,-0.01251 0.18361,0.03792 0.2821,0.08412 0.2821,0.132311 0,0.01593 0.0451,0.09231 0.10009,0.169742 0.055,0.07743 0.10009,0.157436 0.10009,0.177789 0,0.02036 0.0391,0.06598 0.0871,0.10139 0.12473,0.09222 0.10684,0.188115 -0.0514,0.275128 -0.0668,0.03677 -0.12154,0.07947 -0.12154,0.09489 0,0.01542 0.0708,0.05933 0.15728,0.09759 0.17853,0.07895 0.19205,0.118824 0.10086,0.297567 -0.0675,0.132351 -0.10415,0.149416 -0.2081,0.09693 -0.0996,-0.0503 -0.0986,-0.03009 0.0105,0.203043 0.049,0.104779 0.0844,0.193768 0.0786,0.197753 -0.006,0.004 -0.0459,0.0294 -0.0892,0.05648 l -0.0787,0.04923 0.0184,0.249541 c 0.0258,0.349673 0.0205,0.43403 -0.0307,0.490598 -0.0246,0.02719 -0.0447,0.05752 -0.0447,0.06742 0,0.0099 0.0869,0.126351 0.19304,0.25879 0.31713,0.395598 0.53255,0.81509 0.57114,1.11214 0.0121,0.09305 0.005,0.110739 -0.0594,0.139896 -0.0596,0.02718 -0.0854,0.02482 -0.13878,-0.01269 -0.036,-0.02534 -0.11693,-0.08244 -0.17976,-0.126881 -0.12584,-0.089 -0.15254,-0.15055 -0.0917,-0.211386 0.0612,-0.06125 -0.27075,-0.600644 -0.44957,-0.730414 -0.072,-0.05227 -0.13094,-0.106721 -0.13094,-0.121014 0,-0.0143 -0.0595,-0.0946 -0.13216,-0.178458 -0.0727,-0.08386 -0.16467,-0.223255 -0.20442,-0.309765 -0.0397,-0.08651 -0.0767,-0.162556 -0.0821,-0.168993 -0.005,-0.0064 -0.0839,0.05852 -0.17449,0.144332 -0.0906,0.08582 -0.20664,0.173146 -0.25796,0.194061 -0.0627,0.02557 -0.0984,0.0626 -0.10897,0.113051 -0.009,0.04126 -0.0284,0.09832 -0.0439,0.126787 -0.0187,0.03444 -0.0173,0.125854 0.004,0.273141 0.0177,0.12176 0.0254,0.323676 0.017,0.448704 -0.008,0.125027 -0.0166,0.246625 -0.0181,0.270219 -8.4e-4,0.02359 -0.03,0.09234 -0.007,0.172169 0.0292,0.09983 0.0334,0.160174 0.0139,0.193243 -0.0308,0.05206 -0.11763,0.04578 -0.22338,0.05298 z"
               id="path10431"
               sodipodi:nodetypes="cssssssscsssscsssssssssssscsccsscsscsscsssscscssssscssssssscsssssssscssssscssssssscsscssccsscc" />
            <path
               id="path10421"
               style="fill:#000000;stroke-width:0.028598"
               d="m 516.02537,-48.914017 c 0.0701,0.0027 0.15285,-0.0097 0.1839,-0.02759 0.0311,-0.01784 0.10026,-0.02293 0.15374,-0.0113 0.146,0.03174 0.21786,-0.01215 0.24385,-0.148973 0.0117,-0.0632 0.01,-0.137779 -0.005,-0.165888 -0.0201,-0.03873 -0.0583,-0.08369 -0.0326,-0.108774 0.0413,-0.04134 0.0428,-0.33002 0.003,-0.546212 -0.0207,-0.111946 -0.021,-0.192263 -8.4e-4,-0.255484 0.0161,-0.05071 0.0364,-0.128036 0.0453,-0.171825 0.009,-0.0438 0.0447,-0.09306 0.0796,-0.10949 0.035,-0.01643 0.0893,-0.06951 0.12076,-0.117953 0.0417,-0.06405 0.0962,-0.09893 0.20019,-0.127859 0.27055,-0.07527 0.24633,-0.08371 0.38267,0.133367 0.0689,0.109716 0.1783,0.24965 0.24309,0.310964 0.19735,0.186783 0.28756,0.319341 0.45619,0.670476 0.10695,0.222664 0.18024,0.282165 0.15388,0.382874 -0.0504,0.192739 -0.0827,0.261375 0.0722,0.273642 0.074,0.0059 0.22598,0.02084 0.297,-0.01068 0.12975,-0.05758 0.11093,-0.16674 2e-4,-0.303176 -0.0461,-0.05681 -0.13997,-0.192056 -0.14257,-0.233055 -0.008,-0.127549 -0.15912,-0.531566 -0.26274,-0.703656 -0.0951,-0.157953 -0.0989,-0.175139 -0.0989,-0.447692 0,-0.187246 -0.0146,-0.318276 -0.0429,-0.386102 -0.053,-0.126916 -0.0549,-0.114997 0.0214,-0.134567 0.0473,-0.01211 0.0776,-0.05726 0.1144,-0.170015 0.0693,-0.212471 0.0655,-0.233211 -0.0662,-0.364847 -0.0639,-0.0639 -0.11144,-0.130376 -0.10566,-0.147729 0.006,-0.01736 0.0786,-0.05371 0.1616,-0.0808 0.21498,-0.07009 0.2265,-0.08847 0.15167,-0.242465 -0.0346,-0.0713 -0.082,-0.136919 -0.10518,-0.145824 -0.0233,-0.0089 -0.14221,0.03689 -0.26444,0.101749 -0.12225,0.06487 -0.19447,0.09509 -0.16051,0.06717 0.0592,-0.0487 0.0925,-0.167222 0.13627,-0.484712 0.0138,-0.09984 0.005,-0.133334 -0.0555,-0.204813 -0.0592,-0.0704 -0.10583,-0.09087 -0.26452,-0.116211 -0.53274,-0.08507 -0.69863,-0.09027 -0.92902,-0.02915 l -0.19303,0.05122 -8.4e-4,-0.10542 c 0,-0.05798 -0.0251,-0.15926 -0.055,-0.225065 -0.0708,-0.156062 -0.19121,-0.220275 -0.37905,-0.202224 -0.16412,0.01577 -0.26248,0.09335 -0.34174,0.269551 -0.0295,0.06559 -0.0696,0.125227 -0.0891,0.132511 -0.0323,0.0121 8.4e-4,0.03122 0.11286,0.06393 0.0187,0.0055 0.0328,0.05051 0.0313,0.100075 -8.4e-4,0.04957 0.0118,0.09897 0.0292,0.109779 0.0175,0.01081 0.0499,0.06265 0.0719,0.115204 0.0344,0.08184 0.0345,0.107045 0,0.175572 -0.0325,0.06494 -0.0335,0.106029 -0.007,0.218099 0.0185,0.07594 0.0517,0.15898 0.0736,0.184522 0.0221,0.02555 0.0778,0.153294 0.12402,0.283887 0.0462,0.130593 0.0946,0.244821 0.10757,0.253836 0.0393,0.02727 0.16808,0.212766 0.18947,0.272903 0.011,0.03098 0.0111,0.04741 0,0.03652 -0.0109,-0.0109 -0.0662,0.0161 -0.12305,0.05998 -0.0568,0.04389 -0.27055,0.193517 -0.47502,0.332505 -0.20448,0.138988 -0.44325,0.30661 -0.53061,0.372495 -0.0874,0.06589 -0.19198,0.128112 -0.23252,0.138284 -0.0428,0.01076 -0.0806,0.04503 -0.0903,0.0819 -0.0234,0.08976 -0.005,0.09493 0.0912,0.02613 0.0466,-0.03317 0.10088,-0.06032 0.12068,-0.06032 0.0473,0 0.26984,-0.129559 0.40768,-0.237263 0.0946,-0.07392 0.11482,-0.07993 0.15007,-0.04467 0.033,0.03307 0.0785,0.03553 0.24056,0.01313 0.10989,-0.01518 0.20697,-0.02044 0.21575,-0.01167 0.009,0.0088 0.0212,0.227173 0.0276,0.485342 0.007,0.258169 0.0234,0.487885 0.0337,0.585422 -0.007,0.167779 0.0418,0.198675 -0.0707,0.267963 -0.063,0.03878 -0.15965,0.08314 -0.21489,0.09855 -0.071,0.01981 -0.10476,0.04791 -0.1152,0.09592 -0.0179,0.08236 0.0324,0.111215 0.20529,0.117797 z m -0.29862,-1.778881 c -0.01,-0.0098 0.006,-0.01594 0.0356,-0.01373 0.0294,0.0023 0.15768,-0.06903 0.28511,-0.158327 l 0.2317,-0.16235 -0.0279,0.121044 c -0.0565,0.243693 -0.0464,0.235675 -0.28856,0.233276 -0.11997,-0.0013 -0.22613,-0.01015 -0.23589,-0.01991 z"
               sodipodi:nodetypes="csscscsssssssssssssssssssscsssssscssccssssscsccccssscssssccsssscccsssccscscccss" />
            <path
               id="path10405"
               style="fill:#000000;stroke-width:0.028598"
               d="m 530.2139,-52.731044 c -0.0381,-0.04325 -0.0774,-0.102515 -0.0873,-0.131689 -0.0139,-0.04115 -0.0365,-0.04932 -0.10084,-0.03646 -0.0457,0.0091 -0.0829,0.0097 -0.0829,0.0013 0,-0.0084 0.0451,-0.07429 0.10011,-0.146388 0.055,-0.07209 0.10008,-0.142811 0.10008,-0.157142 0,-0.04116 0.11155,-0.275159 0.13936,-0.292351 0.0138,-0.0085 0.0307,0.09105 0.0376,0.221303 0.0127,0.242083 -0.002,0.620091 -0.0243,0.620091 -0.007,0 -0.0436,-0.0354 -0.0817,-0.07864 z m 0.78854,3.600591 c 0.0687,-0.01906 0.0643,-0.127152 -0.003,-0.192838 -0.0587,-0.05717 -0.06,-0.132144 -0.0693,-0.206118 -0.0707,-0.563922 -0.11404,-0.78286 -0.1927,-0.973089 l -0.0866,-0.209433 0.0638,-0.214928 c 0.073,-0.245906 0.0642,-0.339718 -0.0473,-0.508251 -0.0413,-0.0624 -0.0622,-0.117771 -0.0463,-0.123041 0.0158,-0.0053 0.0523,-0.02682 0.0811,-0.04788 0.0486,-0.03557 0.0495,-0.05031 0.0127,-0.206303 -0.0543,-0.23013 -0.15603,-0.424958 -0.26907,-0.515159 -0.087,-0.06941 -0.0928,-0.08391 -0.0716,-0.178769 0.0324,-0.144831 0.0356,-0.318845 0.0116,-0.622572 -0.017,-0.214045 -0.0122,-0.278924 0.0256,-0.354719 0.0254,-0.05102 0.0463,-0.111244 0.0463,-0.133832 0,-0.02259 0.0643,-0.113264 0.143,-0.201501 0.0786,-0.08824 0.14299,-0.176085 0.14299,-0.195216 0,-0.01913 -0.0534,-0.07711 -0.11877,-0.128845 l -0.11876,-0.09406 -0.11732,0.129575 -0.1173,0.129575 -0.0574,-0.08765 c -0.0316,-0.04821 -0.0808,-0.09215 -0.10938,-0.09765 -0.0893,-0.0172 -0.21251,0.05339 -0.24967,0.14309 -0.0498,0.120108 -0.34049,0.395336 -0.41763,0.395336 -0.0376,0 -0.0699,0.02297 -0.0809,0.05751 -0.0222,0.06989 -0.16523,0.148773 -0.22688,0.125116 -0.0511,-0.01962 -0.0581,-0.05655 -0.0158,-0.08278 0.0354,-0.0219 -0.12542,-0.253094 -0.21856,-0.314123 -0.0362,-0.02371 -0.12317,-0.04311 -0.1933,-0.04311 -0.15194,0 -0.28317,0.09429 -0.32967,0.236869 -0.0417,0.127592 -0.0276,0.392263 0.0209,0.392277 0.0698,1.9e-5 0.3406,0.138338 0.35762,0.182702 0.011,0.02878 -0.0148,0.06596 -0.0748,0.107298 -0.0504,0.0348 -0.0965,0.06687 -0.10234,0.07129 -0.006,0.0044 -8.4e-4,0.0311 0.0109,0.05931 0.0311,0.0742 0.0442,0.169822 0.0524,0.380156 0.003,0.102238 0.0159,0.205191 0.0265,0.228784 0.0106,0.02359 0.0523,0.145503 0.0926,0.27091 0.0825,0.256642 0.13922,0.358245 0.20013,0.358245 0.0479,0 0.0407,0.02346 -0.11818,0.386074 -0.14869,0.339235 -0.15924,0.357474 -0.2069,0.357474 -0.0315,0 -0.035,0.0088 -0.0129,0.03094 0.0312,0.03116 -0.0427,0.213994 -0.39569,0.979741 -0.0786,0.170515 -0.13569,0.317252 -0.12686,0.326083 0.009,0.0088 0.0503,-0.0599 0.092,-0.152737 0.0418,-0.09284 0.18594,-0.394001 0.32032,-0.669257 0.19786,-0.405256 0.24641,-0.485503 0.2552,-0.421821 0.006,0.04325 0.0212,0.07864 0.0339,0.07864 0.0126,0 0.0106,0.06113 -0.005,0.135841 -0.0151,0.07471 -0.0269,0.14871 -0.026,0.164439 0.0447,0.866286 0.0984,0.854802 0.008,0.920843 -0.047,0.03407 -0.1395,0.07597 -0.20571,0.0931 -0.1005,0.02596 -0.12213,0.04567 -0.13088,0.118917 -0.01,0.08124 -0.001,0.0899 0.1108,0.116169 0.0667,0.01566 0.16966,0.01117 0.22885,-0.0099 0.0591,-0.02105 0.1439,-0.02804 0.18825,-0.01556 0.13391,0.03763 0.18619,-0.01705 0.18466,-0.24481 -8.4e-4,-0.114851 0.002,-0.409869 0.006,-0.655593 0.008,-0.496609 -0.0225,-0.371328 0.26914,-0.713908 0.0849,-0.09969 0.17173,-0.185407 0.19303,-0.190491 0.0213,-0.005 0.0387,-0.02117 0.0387,-0.03575 0,-0.05137 0.007,-0.07045 0.0637,-0.182241 0.055,-0.107929 0.0594,-0.110419 0.0994,-0.0572 0.023,0.03061 0.0875,0.145584 0.14335,0.255511 0.0559,0.109926 0.16219,0.267894 0.23629,0.351042 0.18451,0.207005 0.22902,0.302763 0.30224,0.650208 0.0265,0.125832 0.0714,0.29313 0.0999,0.371775 0.0284,0.07864 0.028,0.215155 0.0385,0.281922 0.004,0.07282 -0.0281,0.133815 0.0663,0.200322 0.12178,0.0068 0.14014,0.0154 0.2962,-0.006 z"
               sodipodi:nodetypes="ssssssscssscscscssssssssssssscccssssssssssssscccssssssscssssccsscsssssssscssssscccc" />
            <path
               id="path10381"
               style="fill:#000000;stroke-width:0.028598"
               d="m 522.15843,-49.050892 c 0.0661,0.0085 0.1567,0.0013 0.2013,-0.01602 0.0445,-0.01732 0.16861,-8.42e-4 0.20491,-8.42e-4 0.0363,0 0.0902,-0.0177 0.11982,-0.03933 0.048,-0.0351 0.0508,-0.0563 0.0252,-0.197196 -0.0175,-0.0965 -0.0186,-0.184035 -0.003,-0.225198 0.0142,-0.03704 0.0181,-0.202461 0.009,-0.367615 -0.0125,-0.216753 -0.008,-0.317038 0.0187,-0.360534 0.1201,-0.20144 0.21997,-0.33279 0.37816,-0.497405 0.0982,-0.102236 0.19866,-0.216102 0.22313,-0.253034 l 0.0445,-0.06715 0.0413,0.06715 c 0.0227,0.03693 0.0886,0.153577 0.14635,0.259211 0.0577,0.105636 0.20622,0.306899 0.32994,0.447252 0.14704,0.166801 0.23164,0.288475 0.24423,0.351297 0.0292,0.145169 0.13338,0.46425 0.1618,0.495053 0.0138,0.01494 0.0123,0.134666 0.009,0.191163 -0.009,0.131446 0.0863,0.152343 0.16708,0.122331 0.0327,-0.01216 0.0291,0.005 0.0732,0.04171 0.0522,0.04345 0.19457,0.01119 0.26754,0.01695 0.0444,0.0035 0.0817,-0.178552 -0.006,-0.23683 -0.18334,-0.122535 -0.21517,-0.137898 -0.27334,-0.491376 -0.0319,-0.193405 -0.0829,-0.374126 -0.14355,-0.507769 -0.093,-0.204935 -0.0936,-0.209085 -0.05,-0.336989 0.028,-0.08233 0.0372,-0.168209 0.0253,-0.235777 -0.0104,-0.05845 -0.0186,-0.144888 -0.0181,-0.192074 3.5e-4,-0.04719 8.4e-4,-0.130836 0.002,-0.185887 8.3e-4,-0.121584 -0.0105,-0.198522 -0.0399,-0.263548 -0.0151,-0.03347 0.007,-0.09351 0.0685,-0.188963 l 0.0907,-0.139904 0.26235,-0.01582 c 0.2119,-0.01278 0.29197,-0.03122 0.41636,-0.09593 0.26211,-0.136348 0.40861,-0.323626 0.34546,-0.441627 -0.0451,-0.08419 -0.11363,-0.067 -0.24434,0.06128 -0.13396,0.131481 -0.28237,0.169815 -0.42671,0.110219 -0.0472,-0.01948 -0.10301,-0.0389 -0.12405,-0.04317 -0.0631,-0.01276 -0.14764,-0.103177 -0.14764,-0.157801 0,-0.0281 -0.0129,-0.05903 -0.0286,-0.06875 -0.0157,-0.0097 -0.0287,-0.06518 -0.0288,-0.12323 -2.1e-4,-0.125336 -0.0503,-0.32004 -0.0824,-0.32004 -0.0125,0 -0.0376,-0.03286 -0.056,-0.073 -0.0183,-0.04015 -0.0718,-0.08646 -0.11898,-0.102891 -0.0471,-0.01644 -0.0857,-0.04043 -0.0857,-0.05334 0,-0.06234 0.04,-0.113933 0.0884,-0.113933 0.071,0 0.19761,-0.249222 0.19761,-0.388896 0,-0.13601 -0.0902,-0.279461 -0.2121,-0.337307 -0.12724,-0.06038 -0.18196,-0.05798 -0.31806,0.01387 -0.0623,0.0329 -0.13903,0.06237 -0.17048,0.0655 -0.0345,0.0034 -0.0529,0.02226 -0.0463,0.04743 0.0327,0.125555 0.0344,0.319752 0.003,0.412528 -0.0366,0.110996 -0.0285,0.108906 -0.21716,0.05633 -0.0635,-0.01769 -0.11454,0.03184 -0.34083,0.330462 -0.20852,0.275195 -0.25433,0.311336 -0.42935,0.338782 -0.1688,0.02647 -0.20649,0.01137 -0.27062,-0.108476 -0.0289,-0.05417 -0.0102,-0.2673 0.0696,-0.790445 0.0243,-0.158801 0.0556,-0.402874 0.0698,-0.542384 0.0141,-0.13951 0.0395,-0.258229 0.0563,-0.26382 0.0209,-0.0069 0.0196,-0.02763 -0.003,-0.06532 -0.044,-0.07041 -0.0779,-0.07056 -0.0779,-3.24e-4 0,0.03015 -0.0132,0.05922 -0.0294,0.06462 -0.0161,0.0054 -0.0514,0.173759 -0.0781,0.374156 -0.0309,0.230579 -0.061,0.364358 -0.0821,0.364358 -0.0184,0 -0.0394,0.05469 -0.0468,0.121541 -0.0372,0.337407 -0.0908,0.622912 -0.14248,0.758736 -0.0643,0.169192 -0.26229,0.43523 -0.32387,0.43523 -0.0221,0 -0.0862,0.06933 -0.14247,0.154079 -0.13648,0.205558 -0.13155,0.341638 0.016,0.439692 0.12395,0.08241 0.18598,0.212406 0.14125,0.29598 -0.0171,0.03214 -0.0236,0.0785 -0.0142,0.103009 0.009,0.02451 -0.009,0.114068 -0.0407,0.199024 -0.0759,0.202742 -0.0734,0.228572 0.0266,0.280277 0.20154,0.104224 0.2494,0.03219 0.28455,-0.428235 0.0152,-0.200293 0.0404,-0.324005 0.0838,-0.412893 0.0341,-0.0698 0.062,-0.143799 0.062,-0.164438 0,-0.02063 0.0117,-0.03753 0.026,-0.03753 0.0143,0 0.035,-0.107638 0.046,-0.239195 0.0109,-0.131557 0.0292,-0.25422 0.0406,-0.272584 0.0151,-0.02444 0.0629,-0.01722 0.17842,0.027 0.14139,0.05411 0.15637,0.06775 0.14423,0.131348 -0.01,0.05014 0.009,0.09426 0.0625,0.150349 0.0872,0.09104 0.0871,0.09151 -0.069,0.417571 -0.0603,0.125832 -0.13228,0.299564 -0.16006,0.386074 -0.0278,0.08651 -0.0724,0.195895 -0.0991,0.243083 -0.10193,0.180063 -0.14567,0.889286 -0.089,1.443285 0.0262,0.255766 0.0632,0.240674 -0.004,0.298655 -0.0432,0.03737 -0.0508,0.06112 -0.0975,0.07822 -0.0344,0.0126 -0.0369,0.0133 -0.11164,0.03859 -0.23241,0.07874 -0.22134,0.200468 0.0211,0.231629 z M 521.91728,-51.667 c -0.0106,-0.0531 -0.0518,-0.104409 -0.11514,-0.143569 -0.11814,-0.07301 -0.13765,-0.115007 -0.1055,-0.227089 0.0373,-0.130058 0.17348,-0.347456 0.21767,-0.347456 0.0217,0 0.0834,-0.06534 0.13721,-0.145213 0.16069,-0.23861 0.17265,-0.0895 0.0275,0.342978 -0.0489,0.146058 -0.0655,0.242064 -0.053,0.308441 0.0174,0.09264 -0.0326,0.294536 -0.0729,0.294536 -0.0106,0 -0.0268,-0.03718 -0.0358,-0.08263 z m 2.26057,-0.455081 c -0.008,-0.07285 -0.0296,-0.137359 -0.0476,-0.143337 -0.0242,-0.008 -0.0238,-0.02151 8.3e-4,-0.05167 0.0278,-0.03352 0.0486,-0.01157 0.11644,0.122906 0.0887,0.175834 0.0888,0.242232 2.2e-4,0.219088 -0.0417,-0.01092 -0.0592,-0.04731 -0.0704,-0.146983 z"
               sodipodi:nodetypes="csssscccsscssscssssssssssccsccssssssssssssssssssccssssssscsscscsssssccssssssssccsssssssccssssscsssscscsscc" />
            <path
               style="fill:#000000;stroke-width:0.028682"
               d="m 525.72024,-49.103572 c -0.0213,-0.01309 -0.0342,-0.04689 -0.0286,-0.07476 0.011,-0.05471 0.0508,-0.08399 0.17496,-0.128028 0.10182,-0.03606 0.19976,-0.252938 0.24652,-0.545631 0.0188,-0.118348 0.0461,-0.286101 0.0604,-0.372878 0.0301,-0.182178 0.16651,-0.655532 0.25867,-0.897633 0.0347,-0.09143 0.0562,-0.184796 0.0475,-0.207432 -0.008,-0.02269 0.004,-0.09461 0.0262,-0.160032 0.0555,-0.15685 0.053,-0.188101 -0.0154,-0.205991 -0.0314,-0.0085 -0.0574,-0.03559 -0.0574,-0.06073 0,-0.02505 -0.0126,-0.04576 -0.0278,-0.04576 -0.044,0 -0.23753,0.113575 -0.31636,0.185644 -0.13727,0.125363 -0.34232,0.183732 -0.30513,0.08681 0.008,-0.02373 0.005,-0.04303 -0.008,-0.04303 -0.0482,0 -0.47666,0.19376 -0.79293,0.358576 -0.23598,0.12298 -0.33028,0.158892 -0.36551,0.139185 -0.0412,-0.02316 -0.0343,-0.03908 0.0532,-0.121653 0.0614,-0.05791 0.11798,-0.08851 0.14481,-0.07825 0.0254,0.0098 0.0725,-0.01102 0.1115,-0.05047 0.0899,-0.08983 0.18456,-0.145193 0.67154,-0.392397 0.3828,-0.194334 0.41893,-0.219729 0.50574,-0.355421 0.0514,-0.08032 0.13566,-0.191057 0.18722,-0.245971 0.11002,-0.117246 0.18474,-0.361654 0.15926,-0.520961 -0.0197,-0.123743 0.0471,-0.351664 0.12947,-0.441199 0.0646,-0.07034 0.0694,-0.115411 0.014,-0.136559 -0.0221,-0.0085 -0.0497,-0.05791 -0.0611,-0.109657 -0.011,-0.05188 -0.0348,-0.116881 -0.0522,-0.144639 -0.0232,-0.03729 -0.0224,-0.0596 0.004,-0.08559 0.0427,-0.04275 0.0465,-0.138395 0.005,-0.138395 -0.0557,0 -0.0609,-0.08163 -0.008,-0.134327 0.0289,-0.029 0.0783,-0.08531 0.10978,-0.125136 0.1342,-0.169458 0.29129,-0.211613 0.48578,-0.130344 0.10782,0.04501 0.24589,0.249812 0.24519,0.363641 -4.5e-4,0.06892 -0.053,0.240923 -0.0923,0.301997 -0.0302,0.04698 0.0807,0.136502 0.14064,0.113452 0.0344,-0.01318 0.0774,0.0085 0.1373,0.06996 0.048,0.04896 0.17652,0.156134 0.28554,0.237996 0.2693,0.202215 0.31283,0.267411 0.32699,0.489654 0.011,0.170973 0.006,0.185831 -0.0646,0.236328 -0.18475,0.130693 -0.19595,0.145287 -0.21875,0.285198 -0.0212,0.129619 -0.0158,0.15217 0.0635,0.267646 l 0.0865,0.126088 -0.0813,0.06497 c -0.0752,0.06007 -0.0809,0.07843 -0.0756,0.246771 0.004,0.09999 0.0382,0.348256 0.078,0.551686 0.0397,0.203448 0.0649,0.382124 0.0557,0.397086 -0.01,0.01497 -0.0474,0.02137 -0.0846,0.01431 -0.0571,-0.01102 -0.0703,9.04e-4 -0.0846,0.07636 -0.01,0.04924 -0.003,0.125645 0.0137,0.169881 0.0169,0.04435 0.0306,0.147396 0.0306,0.22922 0,0.08173 0.0258,0.284246 0.0574,0.449815 0.0758,0.397754 0.0744,0.452366 -0.0122,0.4918 -0.0703,0.03211 -0.31885,0.01224 -0.34346,-0.02815 -0.008,-0.01102 9.4e-4,-0.07467 0.0193,-0.140683 0.0232,-0.08663 0.0236,-0.166284 9.4e-4,-0.286064 -0.0422,-0.229719 -0.2025,-0.66169 -0.28602,-0.771197 -0.0382,-0.05009 -0.093,-0.139637 -0.12203,-0.199221 l -0.0526,-0.108311 -0.0396,0.071 c -0.12448,0.222996 -0.17345,0.276949 -0.26728,0.294547 -0.12239,0.02297 -0.14334,0.0499 -0.20261,0.260377 -0.0267,0.09461 -0.0693,0.230162 -0.0945,0.301167 -0.0253,0.071 -0.0531,0.238768 -0.0618,0.372868 l -0.0158,0.243787 -0.32986,0.0066 c -0.18141,0.0038 -0.34724,-0.0047 -0.36852,-0.0178 z"
               id="path19831-6" />
          </g>
        </g>
        <g
           id="g20827">
          <path
             id="path13970"
             style="fill:#000000;stroke-width:0.0157972"
             d="m 490.73194,-89.654612 c 0.0277,7.98e-4 0.044,0.01165 0.0735,0.04189 0.031,0.03158 0.0464,0.06352 0.0464,0.0959 0,0.0359 0.006,0.04626 0.0229,0.03977 0.0706,-0.02712 0.28404,-0.06181 0.37702,-0.06127 0.087,4.9e-4 0.11873,0.008 0.16585,0.03922 0.0987,0.06545 0.19342,0.173053 0.24083,0.273582 0.0406,0.08598 0.0523,0.09814 0.1116,0.115918 0.0832,0.02492 0.17824,0.08321 0.25424,0.155876 0.10425,0.09973 0.12277,0.326877 0.0401,0.493849 l -0.0417,0.08414 0.0465,0.05288 c 0.0513,0.05856 0.0545,0.07062 0.029,0.118017 -0.0206,0.03857 0.004,0.06096 0.0513,0.04835 0.0375,-0.0098 0.0925,0.03736 0.0925,0.07926 0,0.04229 -0.1068,0.184629 -0.15116,0.201507 -0.0347,0.01322 -0.0353,0.01636 -0.0158,0.09031 0.0111,0.04213 0.0288,0.09257 0.0393,0.112062 0.0118,0.02195 0.0177,0.09377 0.0159,0.188825 -0.002,0.08437 -0.002,0.18895 -2.4e-4,0.232392 0.002,0.07659 3.7e-4,0.08116 -0.0786,0.150661 -0.0743,0.0655 -0.079,0.07358 -0.0546,0.09389 0.0208,0.01732 0.0243,0.0364 0.0163,0.0863 -0.006,0.03523 -0.007,0.1174 -0.006,0.182564 0.007,0.184708 0.005,0.33629 -0.0122,0.584498 -0.0114,0.170897 -0.0111,0.245484 0.004,0.293791 0.0126,0.04344 0.0149,0.103217 0.007,0.181669 -0.007,0.06431 -0.0111,0.14293 -0.009,0.174727 l 0.004,0.05782 -0.1812,10e-4 c -0.0997,6.04e-4 -0.18494,0.0048 -0.18947,0.0093 v 3.1e-5 c -0.005,0.0046 -0.0328,0.0082 -0.0627,0.0082 -0.0369,0 -0.052,-0.0063 -0.0469,-0.01974 0.0237,-0.06318 0.0271,-0.08928 0.0123,-0.09834 -0.0406,-0.02511 -0.016,-0.126532 0.0613,-0.252694 0.0427,-0.06977 0.0829,-0.148167 0.0892,-0.174232 0.0123,-0.05134 -0.004,-0.04575 -0.0313,0.01157 -0.0287,0.05732 -0.0853,0.07664 -0.16532,0.05634 -0.0896,-0.02274 -0.10403,-0.05887 -0.1273,-0.317857 -0.01,-0.111401 -0.0246,-0.219432 -0.0325,-0.240076 -0.0179,-0.04738 -0.0661,-0.07894 -0.18281,-0.119959 -0.0507,-0.01782 -0.11167,-0.04247 -0.13549,-0.0548 -0.0239,-0.01232 -0.061,-0.0224 -0.0824,-0.0224 -0.0215,0 -0.0591,-0.01677 -0.0837,-0.03727 -0.0246,-0.02051 -0.066,-0.04834 -0.092,-0.06186 -0.026,-0.01352 -0.0774,-0.05041 -0.11403,-0.08201 l -0.0666,-0.05745 0.007,-0.2352 c 0.005,-0.155936 0.0146,-0.253727 0.0298,-0.290151 0.0127,-0.03022 0.0195,-0.05842 0.0152,-0.06267 -0.005,-0.0042 0.004,-0.02934 0.0172,-0.05579 0.0137,-0.02645 0.0248,-0.07332 0.0248,-0.104159 0,-0.06965 -0.0347,-0.07444 -0.11999,-0.01657 -0.0646,0.04386 -0.10956,0.04899 -0.17546,0.02012 -0.0612,-0.02681 -0.17973,-0.140465 -0.17705,-0.16976 0.009,-0.09554 0.005,-0.100222 -0.087,-0.08951 -0.047,0.0055 -0.0951,0.0139 -0.10669,0.01866 -0.0421,0.01723 -0.076,0.12991 -0.17305,0.572896 -0.10137,0.463136 -0.1181,0.508536 -0.18766,0.508536 -0.0402,0 -0.0402,-0.03305 -2e-5,-0.107465 0.0312,-0.05787 0.20538,-0.840886 0.20538,-0.923738 0,-0.03152 -0.007,-0.043 -0.0296,-0.043 -0.0305,0 -0.15987,0.05255 -0.18069,0.07337 -0.007,0.0064 -0.0275,0.01407 -0.0469,0.01697 -0.0713,0.01065 -0.32734,0.118946 -0.32734,0.138411 0,0.02479 -0.0282,0.04824 -0.0751,0.06262 -0.0307,0.0094 -0.0355,0.0051 -0.0355,-0.03118 0,-0.04281 0.0447,-0.133814 0.0658,-0.133814 0.0158,0 0.46147,-0.174984 0.47135,-0.185061 0.007,-0.0073 -0.09,-0.0017 -0.35543,0.02064 -0.0522,0.0045 -0.13961,0.01495 -0.19435,0.02345 -0.0548,0.0086 -0.10625,0.0113 -0.11453,0.0063 -0.0176,-0.01087 -0.0196,-0.08729 -0.004,-0.110081 0.007,-0.0098 0.14914,-0.01581 0.36936,-0.01581 0.31852,0 0.36107,-0.003 0.38827,-0.02764 0.0169,-0.01521 0.0386,-0.02764 0.0484,-0.02764 0.01,0 0.0257,-0.01422 0.035,-0.03159 0.009,-0.01738 0.0314,-0.03159 0.0494,-0.03159 0.0192,0 0.0359,0.01291 0.0408,0.03159 0.007,0.02695 0.0215,0.03159 0.0986,0.03159 0.0496,0 0.0942,-0.0039 0.0989,-0.0087 0.005,-0.0048 9.3e-4,-0.03735 -0.007,-0.07244 -0.013,-0.05103 -0.0111,-0.0746 0.01,-0.117585 0.0193,-0.04049 0.0217,-0.06398 0.01,-0.09515 -0.009,-0.02276 -0.0132,-0.110948 -0.01,-0.195985 0.005,-0.130786 0.0123,-0.16726 0.0484,-0.236558 0.0353,-0.06754 0.0394,-0.08615 0.0229,-0.105978 -0.0259,-0.03132 -0.0577,-0.08492 -0.0699,-0.118172 -0.007,-0.02013 -0.0223,-0.02434 -0.0628,-0.01777 l -0.0531,0.0087 0.009,-0.140199 c 0.0125,-0.203385 0.0415,-0.293266 0.12092,-0.375617 0.0879,-0.09114 0.19596,-0.118992 0.32783,-0.08448 0.073,0.01911 0.0927,0.01943 0.11903,0.0019 0.0173,-0.01153 0.0584,-0.02439 0.0913,-0.0286 0.0128,-0.0016 0.0233,-0.0024 0.0325,-0.0022 z m 0.60961,2.220809 c -0.007,0 -0.0167,0.02352 -0.0222,0.05231 -0.006,0.02877 -0.0353,0.112302 -0.0664,0.185618 -0.0312,0.07332 -0.06,0.144491 -0.0641,0.158157 -0.009,0.02829 0.18545,0.203005 0.2289,0.206074 0.0146,10e-4 0.05,0.0028 0.0788,0.0039 0.0494,0.002 0.0506,9.3e-4 0.0198,-0.01959 -0.0212,-0.01404 -0.0328,-0.03907 -0.0331,-0.07109 -3e-4,-0.02717 -0.0111,-0.0632 -0.0237,-0.08007 -0.0128,-0.01687 -0.0231,-0.05545 -0.0231,-0.08574 0,-0.04156 -0.0116,-0.06504 -0.0472,-0.09571 -0.0448,-0.03861 -0.0465,-0.04402 -0.0314,-0.108241 0.0159,-0.06755 0.007,-0.145661 -0.0161,-0.145661 z m 0.8214,1.960896 c 0.007,0 0.0143,0.001 0.0198,0.0032 0.0111,0.0045 0.002,0.008 -0.0198,0.008 -0.0217,0 -0.0306,-0.0035 -0.0198,-0.008 0.006,-0.0022 0.0126,-0.0032 0.0198,-0.0032 z m -0.11057,0.0158 c 0.007,0 0.0143,10e-4 0.0198,0.0032 0.0111,0.0045 0.002,0.008 -0.0198,0.008 -0.0217,0 -0.0306,-0.0035 -0.0198,-0.008 0.006,-0.0022 0.0127,-0.0032 0.0198,-0.0032 z" />
          <path
             id="path13964"
             style="fill:#000000;stroke-width:0.0150789"
             d="m 485.79592,-90.577274 c 0.12465,6.98e-4 0.25504,0.09773 0.29533,0.219823 0.0183,0.05545 0.0126,0.301116 -0.009,0.355413 -0.006,0.0178 0.0115,0.02891 0.0794,0.04794 0.11794,0.0331 0.14586,0.05551 0.14647,0.117539 3.5e-4,0.04588 0.004,0.05065 0.0458,0.0513 0.0628,9.79e-4 0.12244,0.04448 0.16827,0.122692 0.0329,0.05617 0.0378,0.07948 0.0319,0.151702 -0.006,0.07667 -0.0133,0.09078 -0.0674,0.13889 -0.0352,0.03119 -0.064,0.0724 -0.0692,0.09872 -0.005,0.02486 -0.0192,0.08592 -0.0319,0.13568 -0.0126,0.04977 -0.0321,0.138837 -0.0432,0.197969 -0.0187,0.0999 -0.0183,0.108736 0.007,0.124548 0.015,0.0093 0.0272,0.03035 0.0272,0.04665 0,0.01727 0.0178,0.03884 0.0426,0.05165 0.0296,0.01526 0.0484,0.04197 0.0621,0.08709 0.0107,0.0358 0.0322,0.09024 0.0478,0.121015 0.0157,0.03076 0.0285,0.07561 0.0285,0.09967 0,0.02404 0.0237,0.09513 0.0528,0.157946 0.0673,0.145714 0.0674,0.171942 6.3e-4,0.199765 -0.0286,0.01193 -0.0616,0.01797 -0.0735,0.01343 -0.0162,-0.0062 -0.0197,0.0012 -0.0143,0.02984 0.005,0.03131 -0.002,0.04382 -0.0471,0.07019 -0.0418,0.02466 -0.0527,0.03958 -0.0473,0.06455 0.004,0.01786 0.0135,0.06981 0.0214,0.115418 0.007,0.04562 0.0322,0.130432 0.0543,0.188486 0.10257,0.270635 0.10014,0.25268 0.0679,0.498074 -0.0225,0.171089 -0.0251,0.226562 -0.0116,0.248448 0.0136,0.02186 0.013,0.03674 -0.004,0.0663 -0.0169,0.03171 -0.017,0.04217 -3.7e-4,0.06224 0.0111,0.01325 0.0212,0.03893 0.0226,0.05704 8.9e-4,0.01812 0.0106,0.07706 0.0196,0.130968 0.0163,0.09435 0.0593,0.388379 0.0728,0.497603 0.0151,0.122507 0.0428,0.204781 0.0955,0.284584 0.0308,0.04665 0.0639,0.09966 0.0735,0.117774 0.18314,0.268467 -0.23363,0.182419 -0.40353,0.0591 -0.0175,-0.02117 -0.0225,-0.125613 -0.0151,-0.318217 0.004,-0.09712 -0.12178,-0.490676 -0.17579,-0.551322 -0.0116,-0.01296 -0.0223,-0.05647 -0.0237,-0.09671 -0.002,-0.05281 -0.0126,-0.08398 -0.038,-0.112151 -0.10268,-0.11374 -0.12115,-0.142282 -0.13921,-0.21552 -0.0108,-0.04391 -0.0391,-0.121636 -0.0627,-0.172759 -0.0236,-0.05112 -0.0531,-0.136293 -0.0653,-0.189253 -0.0123,-0.05296 -0.0374,-0.136539 -0.0557,-0.185716 -0.0276,-0.07364 -0.0355,-0.08414 -0.0455,-0.05955 -0.006,0.01641 -0.0302,0.07736 -0.0523,0.135416 -0.0221,0.05805 -0.0599,0.146153 -0.0836,0.19579 -0.0238,0.04963 -0.0433,0.104684 -0.0433,0.122308 0,0.01762 -0.0169,0.05703 -0.0377,0.08759 -0.0207,0.03055 -0.0377,0.07229 -0.0377,0.09278 0,0.02047 -0.005,0.04904 -0.0134,0.06344 -0.0363,0.07137 -0.0453,0.112764 -0.0532,0.244826 -0.004,0.07879 -0.0218,0.218236 -0.038,0.309882 -0.0308,0.173988 -0.0366,0.325978 -0.0214,0.560922 0.01,0.148195 0.002,0.22217 -0.0526,0.22217 0,0 -0.4685,0.116867 -0.70347,0.09449 l -0.004,-0.104525 -0.004,-0.104525 0.07,-0.04438 c 0.0386,-0.0244 0.0786,-0.04438 0.0891,-0.04438 0.0106,0 0.049,-0.02884 0.0855,-0.06409 0.0365,-0.03525 0.0899,-0.08518 0.11846,-0.110941 0.0468,-0.04214 0.0539,-0.05958 0.0714,-0.173408 0.024,-0.156609 0.0156,-0.683666 -0.0114,-0.710651 -0.01,-0.0096 -0.0175,-0.04587 -0.0175,-0.08052 0,-0.03941 -0.01,-0.07053 -0.0242,-0.08308 -0.046,-0.03822 -0.0533,-0.08819 -0.0303,-0.208365 0.0121,-0.06298 0.0331,-0.178997 0.047,-0.257783 0.0137,-0.07879 0.042,-0.230312 0.0627,-0.336743 0.0342,-0.175772 0.0355,-0.195123 0.0136,-0.211104 -0.0209,-0.01534 -0.0218,-0.02902 -0.006,-0.106994 0.0175,-0.08696 0.017,-0.09004 -0.0182,-0.113093 -0.078,-0.05111 -0.13434,-0.110961 -0.16621,-0.176764 -0.0294,-0.06085 -0.0322,-0.08469 -0.0247,-0.206657 0.01,-0.148322 0.0577,-0.375073 0.088,-0.411518 0.0381,-0.0459 0.0981,-0.06602 0.14649,-0.04915 0.0366,0.01278 0.0533,0.01075 0.0857,-0.01048 0.0394,-0.02585 0.0402,-0.02886 0.035,-0.16622 -0.004,-0.07694 -0.0119,-0.146217 -0.0202,-0.153941 -0.01,-0.0086 -0.0904,-0.0074 -0.21249,0.0035 -0.26676,0.02366 -0.36006,0.02106 -0.39553,-0.01104 -0.0744,-0.0674 -0.10544,-0.332963 -0.0474,-0.406688 0.0176,-0.02251 0.0353,-0.07574 0.0418,-0.126433 0.0111,-0.08673 0.0107,-0.08836 -0.0543,-0.17426 -0.0669,-0.08857 -0.0851,-0.101095 -0.0987,-0.06786 -0.005,0.01309 -0.0161,0.009 -0.0352,-0.01357 -0.025,-0.02947 -0.0517,-0.03405 -0.29138,-0.04997 -0.14514,-0.0096 -0.3453,-0.02329 -0.44484,-0.03034 -0.12687,-0.009 -0.18691,-0.0078 -0.20093,0.0037 -0.0146,0.01217 -0.0231,0.01166 -0.0314,-0.0019 -0.007,-0.01161 -0.0614,-0.02056 -0.14587,-0.02404 -0.12274,-0.0051 -0.13488,-0.0083 -0.13927,-0.03709 -0.004,-0.02496 -0.0157,-0.03158 -0.0566,-0.03158 -0.0359,0 -0.0516,-0.0069 -0.0516,-0.02261 0,-0.01554 0.0156,-0.02261 0.0498,-0.02261 0.0273,0 0.0583,-0.0084 0.0685,-0.0187 0.015,-0.01494 0.0211,-0.01485 0.0306,4.69e-4 0.009,0.01391 0.0573,0.01852 0.17656,0.01672 0.13941,-0.0021 0.61908,0.01657 0.96902,0.03773 0.0526,0.0032 0.10311,0.01329 0.11233,0.02247 0.0229,0.02286 0.0595,0.02097 0.11074,-0.0058 0.0566,-0.02953 0.20005,-0.03009 0.22247,-8.89e-4 0.0111,0.0145 0.0724,0.02757 0.18262,0.039 0.2684,0.02779 0.40246,0.0265 0.37243,-0.0036 -0.0337,-0.03363 -0.0184,-0.07147 0.0801,-0.198999 0.11041,-0.143037 0.20653,-0.205365 0.31575,-0.204773 z m -0.8132,0.608044 c -0.0216,-0.0022 -0.0379,0.01113 -0.0379,0.0377 0,0.01584 -0.01,0.03675 -0.0213,0.04647 -0.0273,0.02264 -0.0448,0.148576 -0.0314,0.226977 0.005,0.03334 0.0181,0.06018 0.0278,0.05967 0.0286,-0.0015 0.16345,-0.04584 0.23224,-0.07631 0.0353,-0.01557 0.0689,-0.0283 0.0751,-0.0283 0.0341,0 0.21536,-0.08307 0.21083,-0.09663 -0.004,-0.0089 -0.0387,-0.02491 -0.0796,-0.03562 -0.22572,-0.05917 -0.30368,-0.08553 -0.33354,-0.112769 -0.0142,-0.013 -0.029,-0.01989 -0.042,-0.02121 z" />
          <path
             style="fill:#000000;stroke-width:0.028598"
             d="m 481.43737,-85.36071 c -0.0258,-0.01177 -0.0938,-0.01414 -0.15124,-0.0053 -0.2087,0.03228 -0.3569,-0.151391 -0.17824,-0.220887 0.0396,-0.01539 0.10579,-0.04736 0.14712,-0.07101 0.074,-0.04234 0.10085,-0.07857 0.0832,-0.250222 -0.01,-0.09587 -0.0381,-0.312646 -0.0629,-0.481715 -0.0353,-0.241263 -0.0381,-0.334738 -0.013,-0.434484 0.0176,-0.06989 0.0319,-0.170289 0.0319,-0.223095 0,-0.0528 0.0113,-0.108233 0.0252,-0.123176 0.0138,-0.01494 0.0401,-0.07388 0.0583,-0.130953 0.0182,-0.05708 0.0584,-0.126638 0.0892,-0.154571 0.0309,-0.02794 0.0561,-0.06611 0.0561,-0.08482 0,-0.01871 0.0258,-0.05735 0.0572,-0.08585 0.0484,-0.04386 0.20012,-0.284935 0.20012,-0.318121 0,-0.0059 -0.0249,-0.01071 -0.0551,-0.01071 -0.0858,0 -0.14966,-0.08263 -0.14124,-0.182634 0.0108,-0.127816 -0.0309,-0.178573 -0.16108,-0.196422 -0.0629,-0.0086 -0.13691,-0.02476 -0.16444,-0.03586 -0.0458,-0.01846 -0.05,0.0058 -0.05,0.284582 0,0.226321 -0.012,0.328063 -0.0468,0.395305 -0.0258,0.0498 -0.0457,0.142461 -0.0444,0.205915 8.3e-4,0.06345 0.005,0.218323 0.009,0.344153 0.008,0.269621 -0.0269,0.357655 -0.14033,0.357085 -0.21824,-0.0011 -0.24908,-0.06416 -0.15968,-0.326531 0.0262,-0.07685 0.0354,-0.144957 0.0211,-0.155235 -0.014,-0.01008 -0.0273,-0.05398 -0.0294,-0.09757 -0.005,-0.100076 -0.0493,-0.153648 -0.1853,-0.223016 -0.0858,-0.04378 -0.11183,-0.07631 -0.12739,-0.159256 -0.0244,-0.129963 0.056,-0.406392 0.13648,-0.469878 0.0313,-0.02468 0.11441,-0.185545 0.18464,-0.357474 0.10062,-0.246342 0.12425,-0.286672 0.11147,-0.190273 -0.0181,0.136958 -0.17584,0.518232 -0.23458,0.567178 -0.0209,0.01746 -0.0386,0.0432 -0.0391,0.0572 -5.9e-4,0.014 -0.0258,0.07692 -0.0562,0.139837 -0.0927,0.191832 -0.0549,0.357475 0.0815,0.357475 0.0829,0 0.17039,0.08146 0.19199,0.178772 l 0.0206,0.09291 0.0351,-0.100753 c 0.0193,-0.05542 0.0433,-0.168021 0.0533,-0.250233 0.0142,-0.116904 0.01,-0.149478 -0.0213,-0.149478 -0.0335,0 -0.0336,-0.02722 -8.4e-4,-0.178737 0.0477,-0.22202 0.0501,-0.369178 0.008,-0.462199 -0.0268,-0.05866 -0.0233,-0.08598 0.019,-0.150488 0.0498,-0.07597 0.10121,-0.495485 0.0607,-0.495485 -0.01,0 -0.0325,0.05875 -0.0505,0.130549 -0.0518,0.20567 -0.0853,0.109524 -0.0762,-0.218825 0.008,-0.269321 0.0131,-0.296953 0.0601,-0.28898 0.0488,0.0083 0.0506,-0.01389 0.0316,-0.36888 -0.015,-0.280871 -0.0119,-0.372508 0.0125,-0.357454 0.0206,0.01271 0.0328,-0.0017 0.0328,-0.03863 0,-0.07076 0.0177,-0.0738 0.0782,-0.01339 0.0303,0.03025 0.0352,0.05185 0.0148,0.06447 -0.0217,0.01341 -0.023,0.216339 -0.004,0.690905 0.0329,0.838306 0.0358,0.85781 0.12756,0.85781 0.12567,0 0.29568,-0.13379 0.29764,-0.234246 5.9e-4,-0.0266 0.0128,-0.05569 0.0274,-0.06464 0.0145,-0.009 0.0615,-0.12232 0.10434,-0.25192 0.0844,-0.254846 0.10198,-0.277432 0.21691,-0.278094 0.0699,-4.17e-4 0.0754,-0.0089 0.0684,-0.107681 -0.004,-0.05899 -0.017,-0.129165 -0.0284,-0.155962 -0.0125,-0.02897 -0.003,-0.07469 0.0238,-0.11278 0.04,-0.05708 0.0401,-0.06923 0.002,-0.111619 -0.0387,-0.04291 -0.034,-0.05632 0.0486,-0.137108 0.12105,-0.118338 0.26186,-0.14456 0.39235,-0.07306 0.12902,0.07069 0.20676,0.178899 0.20998,0.29227 0.003,0.0968 -0.0843,0.319707 -0.12485,0.319707 -0.0133,0 -0.0243,0.01286 -0.0243,0.0286 0,0.01573 0.0387,0.0286 0.0861,0.0286 0.14094,0 0.33749,0.108725 0.38766,0.214442 0.0445,0.09371 0.15961,0.227924 0.3038,0.35413 0.0422,0.03702 0.13745,0.07863 0.21141,0.09245 0.0997,0.01863 0.16917,0.05756 0.26863,0.150597 0.14515,0.135768 0.27716,0.183124 0.3708,0.133011 0.0369,-0.01973 0.0775,-0.02189 0.10892,-0.0058 0.0275,0.01416 0.0642,0.02062 0.0815,0.01434 0.0529,-0.01913 0.10496,0.07028 0.0857,0.147074 -0.0331,0.131913 -0.12218,0.162449 -0.37716,0.129285 -0.3096,-0.04027 -0.61599,-0.119435 -0.63292,-0.163531 -0.0208,-0.05426 -0.0565,-0.04424 -0.0734,0.02068 -0.008,0.03191 -0.0391,0.0572 -0.0693,0.0572 -0.0299,0 -0.0771,0.01661 -0.10491,0.03693 -0.047,0.03442 -0.0457,0.03951 0.0209,0.07516 0.0705,0.03772 0.11209,0.125532 0.12031,0.253915 0.003,0.03614 0.0348,0.13112 0.0723,0.211054 l 0.0681,0.145334 -0.112,0.09682 c -0.0863,0.0746 -0.10423,0.104591 -0.0781,0.130692 0.0186,0.01864 0.0339,0.07757 0.0339,0.130983 0,0.05341 0.0258,0.133403 0.0574,0.177761 0.0316,0.04436 0.0657,0.12356 0.0758,0.176002 0.0101,0.05244 0.0796,0.172835 0.1543,0.26754 0.24367,0.308679 0.55409,0.943029 0.57522,1.17549 0.01,0.108036 -0.0454,0.182312 -0.13556,0.182312 -0.0852,0 -0.22535,-0.176304 -0.20425,-0.256983 0.008,-0.0313 -0.008,-0.08602 -0.0352,-0.1216 -0.0276,-0.03557 -0.13526,-0.207258 -0.23927,-0.381514 -0.16917,-0.28343 -0.22131,-0.344707 -0.49455,-0.581317 -0.27844,-0.241109 -0.42926,-0.396194 -0.54238,-0.557684 l -0.0416,-0.05936 -0.12832,0.06807 c -0.11838,0.06281 -0.12831,0.07668 -0.12831,0.179387 0,0.123736 -0.0648,0.176506 -0.12291,0.100063 -0.0305,-0.04003 -0.05,-0.03356 -0.17022,0.05635 -0.0962,0.07195 -0.13584,0.121633 -0.13584,0.170335 0,0.03781 -0.0129,0.06876 -0.0286,0.06876 -0.0158,0 -0.0286,-0.03217 -0.0286,-0.0715 0,-0.03932 -0.0109,-0.07149 -0.0242,-0.07149 -0.0133,0 -0.0203,0.074 -0.0157,0.164439 0.0106,0.208195 0.0243,0.959072 0.0567,1.126209 l 0.0241,0.126473 -0.12594,0.02748 c -0.0693,0.01512 -0.14701,0.01786 -0.17276,0.0061 z"
             id="path10435-2"
             sodipodi:nodetypes="cssscsssssssssssssssccssscsssssssssscsssccssccsssssscssscscccssscssssssssssssscssscscsssssccsccssscsssssssssccscc" />
          <path
             style="fill:#000000;stroke-width:0.0253969"
             d="m 487.92871,-85.385127 c 0.0739,-0.01781 0.10933,-0.07795 0.0397,-0.225526 0.002,-0.36713 0.015,-0.519718 0.062,-0.723291 0.0134,-0.05767 0.0245,-0.137427 0.0249,-0.177221 3.9e-4,-0.03979 0.0188,-0.110789 0.0412,-0.157768 0.0222,-0.04698 0.0357,-0.100019 0.0297,-0.117868 -0.006,-0.01785 0.0167,-0.05416 0.0505,-0.08069 0.05,-0.03936 0.0585,-0.06332 0.046,-0.130075 -0.0105,-0.05569 -0.004,-0.09153 0.0213,-0.112204 0.0201,-0.01671 0.0446,-0.07829 0.0544,-0.136851 0.0103,-0.0611 0.0487,-0.141702 0.0902,-0.189139 l 0.0723,-0.08266 0.0428,0.208945 c 0.0126,0.06163 0.0699,0.165381 0.10297,0.240156 0.0359,0.08118 0.0535,0.161756 0.0436,0.199981 -0.01,0.03704 8.8e-4,0.09345 0.0259,0.133842 0.0399,0.06562 0.0385,0.07837 -0.0224,0.212164 -0.0357,0.07829 -0.0818,0.227145 -0.10244,0.330785 -0.0207,0.103639 -0.0476,0.207522 -0.0598,0.230849 -0.0122,0.02332 -0.0629,0.223723 -0.0659,0.292389 -0.005,0.109975 8.2e-4,0.124255 0.0946,0.156817 0.0578,0.02023 0.13578,0.03549 0.17315,0.03396 0.0374,-0.0015 0.10596,0.01309 0.15235,0.03254 0.0464,0.01944 0.12894,0.02824 0.18339,0.01952 0.18815,-0.03006 -0.005,-0.137096 -0.10983,-0.215048 -0.22368,-0.165812 -0.14114,-0.187145 -0.0485,-0.410156 0.0389,-0.0936 0.11998,-0.289353 0.18023,-0.434968 l 0.10954,-0.264762 -0.006,-0.413772 c -0.005,-0.341674 -0.016,-0.440549 -0.0618,-0.56735 -0.15016,-0.415658 -0.15716,-0.298164 -0.12721,-0.346126 0.0229,-0.03668 0.0164,-0.07977 -0.0312,-0.206438 -0.0571,-0.151996 -0.077,-0.276983 -0.0691,-0.4331 0.003,-0.05557 0.0158,-0.06984 0.0638,-0.06984 0.0332,0 0.11269,-0.02318 0.17677,-0.05153 0.0986,-0.04362 0.11907,-0.06523 0.13322,-0.140662 0.012,-0.06441 0.003,-0.118785 -0.0351,-0.196086 -0.0285,-0.05883 -0.0951,-0.196294 -0.14787,-0.305483 -0.0528,-0.10919 -0.10509,-0.20415 -0.11622,-0.211024 -0.0111,-0.0069 -0.0202,-0.05161 -0.0202,-0.09941 0,-0.07152 -0.0113,-0.08973 -0.0635,-0.102841 -0.0754,-0.01893 -0.075,-0.01135 -0.0246,-0.467575 0.0795,-0.720428 0.0787,-0.666041 0.01,-0.656246 -0.0658,0.0093 -0.0766,0.0424 -0.0828,0.253819 -0.002,0.06502 -0.0104,0.113963 -0.0188,0.108772 -0.009,-0.0052 -0.0222,0.0959 -0.0307,0.224649 -0.009,0.128747 -0.0293,0.294087 -0.0463,0.36742 -0.0304,0.131376 -0.0322,0.133334 -0.12512,0.133334 -0.0713,0 -0.10397,-0.01474 -0.134,-0.06058 -0.042,-0.06405 -0.0333,-0.0965 0.0201,-0.07596 0.0433,0.01662 0.0705,-0.200633 0.041,-0.327524 -0.0416,-0.179242 -0.13491,-0.268413 -0.32313,-0.308921 -0.15293,-0.03291 -0.34476,0.09985 -0.42628,0.295021 -0.0385,0.09236 -0.0382,0.09431 0.0372,0.165081 0.0608,0.05711 0.0732,0.08572 0.0611,0.14129 -0.01,0.04614 -0.002,0.08321 0.0249,0.109751 0.0638,0.06373 0.0472,0.108972 -0.0552,0.151569 -0.11588,0.04819 -0.28573,0.162979 -0.28573,0.193096 0,0.01207 0.0157,0.02194 0.0348,0.02194 0.0517,0 0.0762,0.183216 0.028,0.210152 -0.0536,0.02998 -0.0462,0.0864 0.0134,0.101971 0.034,0.0089 0.0508,0.03465 0.0508,0.07765 0,0.0354 0.0124,0.07207 0.0277,0.08148 0.0304,0.01878 0.0127,0.153733 -0.0333,0.254823 -0.0211,0.04633 -0.0478,0.06123 -0.10999,0.06123 -0.0524,0 -0.0879,0.01495 -0.098,0.04132 -0.0194,0.0507 0.0562,0.115009 0.11837,0.100666 0.0361,-0.0084 0.0444,0.0072 0.0446,0.08261 7e-5,0.05107 0.0158,0.122966 0.0351,0.159761 0.0192,0.03679 0.0262,0.08091 0.0157,0.09805 -0.0461,0.07457 0.0538,0.184969 0.12667,0.139953 0.0327,-0.02024 0.0337,0.07052 8.8e-4,0.103135 -0.0299,0.02994 -0.10037,0.330699 -0.11975,0.511423 -0.0186,0.173942 0.004,0.286358 0.0829,0.401814 0.0655,0.09655 0.0739,0.201138 0.0207,0.257828 -0.0541,0.05754 -0.0898,0.346755 -0.0853,0.690278 0.003,0.190577 0.022,0.46178 -0.0211,0.588508 -0.073,0.214635 -0.0488,0.236826 0.0501,0.262888 0.0894,0.02356 0.13381,0.02841 0.24929,0.01546 z"
             id="path2943-4"
             sodipodi:nodetypes="ccsscssscsscssccsssscsssssscsssscssscsssssssccssssssssscssssssssssssscscscscsscc" />
        </g>
      </g>
      <g
         id="g20985-8-7"
         transform="translate(43.818394,24.782905)">
        <path
           id="path13968-08-0"
           style="fill:#000000;stroke-width:0.0169309"
           d="m 479.74611,-80.175075 c 0.005,-0.0019 0.009,-0.004 0.014,-0.0057 0.006,-0.0021 0.0124,-0.0044 0.0191,-0.0062 0.0132,-0.0037 0.0272,-0.0065 0.0424,-0.0093 0.0151,-0.0028 0.0311,-0.005 0.0481,-0.0072 0.0169,-0.0021 0.0346,-0.0042 0.0532,-0.0062 0.0373,-0.0039 0.078,-0.008 0.12094,-0.01291 0.0214,-0.0024 0.0435,-0.0051 0.0661,-0.0083 0.0228,-0.0032 0.0461,-0.0071 0.0697,-0.01138 0.0236,-0.0043 0.0454,-0.0087 0.0651,-0.01291 0.0198,-0.0043 0.0372,-0.0083 0.0532,-0.01241 0.0161,-0.0041 0.0307,-0.0081 0.0434,-0.01188 0.0127,-0.0038 0.0235,-0.0075 0.0331,-0.01085 0.01,-0.0033 0.0175,-0.0061 0.0243,-0.0088 0.007,-0.0027 0.0122,-0.0053 0.0164,-0.0072 0.008,-0.0039 0.0124,-0.0062 0.0124,-0.0062 0.005,0.0042 0.14793,-0.0066 0.31988,-0.02429 0.35563,-0.0365 0.42921,-0.04028 0.49559,-0.02429 0.0326,0.0078 0.0566,0.0027 0.078,-0.01654 0.0169,-0.01535 0.0784,-0.0362 0.13695,-0.04651 0.0918,-0.01617 0.10871,-0.01503 0.12141,0.0078 0.0101,0.01683 0.0303,0.02344 0.0569,0.0186 0.023,-0.0042 0.12772,-0.01162 0.23255,-0.01654 0.10482,-0.0049 0.24992,-0.01199 0.32244,-0.01601 0.11364,-0.0063 0.13333,-0.0035 0.14264,0.0217 0.013,0.03524 0.0379,0.05395 0.0723,0.05426 0.0209,1.93e-4 0.0257,-0.02787 0.0249,-0.160713 0,-0.100558 -0.008,-0.16827 -0.0217,-0.180869 -0.0462,-0.04624 -0.0103,-0.133541 0.11832,-0.287322 0.0935,-0.112133 0.18958,-0.155035 0.32764,-0.146243 0.13523,0.0086 0.23439,0.07073 0.293,0.183451 0.0364,0.06985 0.0391,0.09037 0.031,0.2589 -0.006,0.127662 -0.0172,0.195866 -0.0362,0.224793 -0.0151,0.02286 -0.0225,0.04908 -0.0172,0.05788 0.0172,0.02804 0.14833,0.05546 0.2739,0.05736 0.11065,0.0016 0.12673,0.0065 0.17571,0.05271 0.11361,0.107249 0.13721,0.165902 0.14004,0.344683 0.003,0.121341 -0.005,0.178036 -0.0254,0.222208 -0.0349,0.07325 -0.055,0.287208 -0.0388,0.417028 0.008,0.07003 0.0233,0.107104 0.0522,0.133842 0.022,0.0204 0.0403,0.04434 0.0403,0.05323 0,0.0089 0.0228,0.04204 0.0506,0.07338 0.0641,0.07176 0.0854,0.141682 0.0966,0.316259 0.008,0.133144 0.007,0.140303 -0.0351,0.179835 -0.0243,0.02262 -0.0445,0.0578 -0.0445,0.07855 0,0.0235 -0.0124,0.041 -0.0336,0.04651 -0.0387,0.01011 -0.0401,0.02437 -0.0161,0.172082 0.0124,0.07728 0.0122,0.123981 0,0.165365 -0.0172,0.05174 -0.0132,0.0694 0.0367,0.171566 0.0521,0.106334 0.0567,0.129643 0.0682,0.350883 0.006,0.130368 0.0169,0.264268 0.0233,0.29714 0.0101,0.04982 -0.004,0.08893 -0.0739,0.236678 -0.0855,0.178268 -0.12676,0.240353 -0.17258,0.258381 -0.047,0.01844 -0.14126,-0.003 -0.27647,-0.02946 l -0.0785,-0.07596 c -2.1e-4,-0.0052 -0.0191,-0.04267 -0.0424,-0.0832 -0.0233,-0.04053 -0.0424,-0.08279 -0.0424,-0.09405 0,-0.03209 -0.091,-0.111424 -0.12766,-0.111104 -0.0353,2.65e-4 -0.10067,0.03701 -0.25164,0.141076 -0.10002,0.0689 -0.0734,0.07338 -0.0734,0.07338 l -0.18396,0.0098 c 0.006,-0.0056 -0.005,-0.02058 -0.0233,-0.03359 -0.0649,-0.04544 -0.0333,-0.20523 0.063,-0.319876 0.0167,-0.01974 0.0726,-0.06319 0.12507,-0.09612 0.12068,-0.07586 0.17145,-0.129418 0.16071,-0.170532 -0.006,-0.02215 0.0161,-0.05573 0.0713,-0.109037 l 0.0791,-0.07648 -0.0574,-0.179319 c -0.0317,-0.09856 -0.0609,-0.18271 -0.0646,-0.187068 -0.004,-0.0044 -0.17209,-0.01384 -0.37415,-0.02066 -0.20206,-0.0069 -0.39285,-0.02 -0.42426,-0.02945 l -0.0574,-0.01707 0.0145,0.07132 c 0.008,0.03926 0.0154,0.193103 0.0164,0.342096 0.003,0.262535 0.0251,0.452908 0.0806,0.671795 0.0259,0.102172 0.0124,0.23282 -0.0279,0.265099 -0.0384,0.03077 -0.52324,0.06866 -0.68728,0.05374 -0.0804,-0.0073 -0.0884,-0.01088 -0.0527,-0.02326 l 0.0424,-0.01498 -0.0424,-0.0078 c -0.0233,-0.0044 -0.0498,-0.01434 -0.0594,-0.02222 -0.0271,-0.02223 -0.0204,-0.137697 0.01,-0.152445 0.014,-0.007 0.0749,-0.03765 0.13538,-0.0677 0.11422,-0.0567 0.16005,-0.09429 0.21085,-0.173117 0.0536,-0.08314 0.0367,-0.280204 -0.0486,-0.57154 -0.0288,-0.09798 -0.061,-0.259482 -0.0956,-0.478007 -0.0164,-0.102494 -0.0164,-0.154233 0,-0.237196 0.0361,-0.188619 0.0884,-0.250365 0.25734,-0.30644 0.0924,-0.03067 0.35613,-0.07848 0.43307,-0.07855 0.0512,-5e-5 0.0544,-0.0039 0.0594,-0.07079 0.005,-0.06098 0.0119,-0.07304 0.0558,-0.08888 0.0474,-0.01715 0.0506,-0.02249 0.0419,-0.08578 -0.0119,-0.08477 0.005,-0.120086 0.0615,-0.134358 0.0361,-0.009 0.0423,-0.01828 0.0336,-0.04858 -0.006,-0.02053 -0.018,-0.07386 -0.0269,-0.118338 -0.0269,-0.134734 -0.043,-0.153178 -0.12195,-0.14056 -0.0374,0.0059 -0.0995,0.02654 -0.13798,0.04599 -0.18013,0.09079 -0.46307,0.150476 -0.59584,0.125574 -0.072,-0.01352 -0.12094,-0.0805 -0.14261,-0.194821 -0.0204,-0.10731 0.0106,-0.196921 0.093,-0.269235 0.0701,-0.06159 0.0957,-0.109453 0.0858,-0.158646 -0.0283,-0.139571 -0.007,-0.125156 -0.20569,-0.136428 -0.12621,-0.0071 -0.18936,-0.0045 -0.21238,0.0098 -0.0262,0.01625 -0.0358,0.01582 -0.0476,-0.0031 -0.0119,-0.01934 -0.0512,-0.02175 -0.20722,-0.01241 -0.32012,0.01921 -0.76441,0.06212 -0.81648,0.07906 -0.0321,0.01045 -0.0565,0.01048 -0.0703,-0.0011 -0.0119,-0.0096 -0.0521,-0.01376 -0.0904,-0.0088 -0.22101,0.02847 -0.20437,0.03001 -0.2217,-0.0155 -0.01,-0.02635 -0.023,-0.03776 -0.0387,-0.03359 z m 2.2651,0.06211 c -0.0393,-0.0027 -0.0399,0.0042 -0.0333,0.02956 0.006,0.02127 -0.003,0.04884 -0.0209,0.06888 -0.0433,0.04785 -0.0238,0.05477 0.044,0.01556 0.0321,-0.01857 0.0838,-0.04551 0.11506,-0.05986 0.0313,-0.01434 0.0541,-0.02847 0.0507,-0.03141 -0.004,-0.003 -0.0493,-0.01058 -0.10211,-0.01701 -0.023,-0.0027 -0.0404,-0.0048 -0.0535,-0.0057 z" />
        <path
           id="path14157-4-7"
           style="fill:#000000;stroke-width:0.0169309"
           d="m 487.48495,-81.221255 c 0.0894,0.0015 0.18987,0.02908 0.30076,0.08216 0.0554,0.02651 0.0589,0.03378 0.0579,0.106971 l -5e-4,0.07803 0.0786,0.01034 c 0.13441,0.01783 0.27236,0.126897 0.32039,0.253214 0.012,0.03148 0.0294,0.04444 0.0589,0.04444 0.0229,0 0.0456,0.0068 0.0506,0.01499 0.005,0.0081 0.0283,0.01064 0.0517,0.0062 0.0235,-0.0045 0.0533,7.65e-4 0.0662,0.01137 0.0127,0.01058 0.0343,0.01462 0.048,0.0093 0.0137,-0.0052 0.0587,0.0022 0.0997,0.01654 0.041,0.01427 0.10525,0.02622 0.14314,0.02635 0.0912,3.2e-4 0.36515,0.05926 0.42941,0.0925 0.0281,0.01448 0.10986,0.03521 0.18243,0.04599 0.0725,0.01082 0.14365,0.02877 0.15762,0.03979 0.0392,0.03095 0.0842,0.04317 0.0842,0.02274 0,-0.0101 0.0154,-0.01471 0.0341,-0.0098 0.0185,0.0049 0.034,0.004 0.0341,-0.0021 1.8e-4,-0.0062 0.005,-0.02746 0.01,-0.04702 0.006,-0.02159 -9.3e-4,-0.04663 -0.0191,-0.06408 -0.0271,-0.02705 -0.0261,-0.02799 0.0134,-0.01809 0.0355,0.0089 0.0548,-0.0047 0.12713,-0.08578 0.068,-0.0763 0.0931,-0.09357 0.12091,-0.08475 0.0378,0.01199 0.10348,0.08662 0.10335,0.117305 0,0.01034 -0.0387,0.05827 -0.0858,0.106453 -0.0673,0.069 -0.0842,0.09751 -0.0801,0.134358 0.003,0.02471 0.002,0.03718 -0.0109,0.04548 -0.002,0.0012 -0.004,0.0021 -0.006,0.0031 -0.008,0.0037 -0.0186,0.0067 -0.0336,0.0098 -0.0573,0.01208 -0.0827,0.02689 -0.0693,0.04031 0,0 -0.004,0.0023 -0.0124,0.0062 -0.004,0.002 -0.01,0.0045 -0.0165,0.0072 -0.007,0.0027 -0.0147,0.0055 -0.0243,0.0088 -0.01,0.0033 -0.0204,0.0071 -0.0331,0.01085 -0.0127,0.0038 -0.0274,0.0078 -0.0434,0.01188 -0.0161,0.0041 -0.0335,0.0081 -0.0532,0.0124 -0.0197,0.0043 -0.0414,0.0086 -0.0651,0.01292 -0.0237,0.0043 -0.0471,0.0082 -0.0697,0.01137 -0.0227,0.0032 -0.0447,0.0058 -0.0661,0.0083 -0.043,0.0049 -0.0837,0.009 -0.12094,0.01292 -0.0186,0.002 -0.0362,0.004 -0.0532,0.0062 -0.017,0.0022 -0.0329,0.0045 -0.0481,0.0072 -0.0151,0.0028 -0.0292,0.0056 -0.0424,0.0093 -0.007,0.0018 -0.0131,0.0041 -0.0191,0.0062 -0.005,0.0017 -0.009,0.0038 -0.0139,0.0057 -10e-4,2.78e-4 -0.003,6.19e-4 -0.004,10e-4 -9e-4,3.44e-4 -0.002,7.39e-4 -0.003,0.001 -0.0146,0.0044 -0.0373,0.0035 -0.0527,-0.0026 -0.0163,-0.0064 -0.0958,-0.01417 -0.17621,-0.01705 -0.0805,-0.0029 -0.17407,-0.01456 -0.20826,-0.02584 -0.0797,-0.02633 -0.0955,-0.0098 -0.0398,0.04186 0.0242,0.02243 0.0577,0.07772 0.0744,0.122473 0.0168,0.04475 0.036,0.08474 0.0424,0.0894 0.006,0.0046 0.0239,0.03511 0.0393,0.0677 0.0153,0.03259 0.0479,0.09762 0.0724,0.144179 0.0622,0.118814 0.0713,0.246205 0.0238,0.330729 -0.043,0.07655 -0.034,0.140489 0.0243,0.1788 0.0213,0.01387 0.0538,0.06112 0.0729,0.104902 0.0191,0.04379 0.0652,0.116256 0.10231,0.160714 0.0983,0.11784 0.11073,0.168412 0.0884,0.36432 l -0.0186,0.16433 0.078,0.152445 c 0.0811,0.158293 0.14293,0.340027 0.17777,0.520899 0.0311,0.161591 0.0864,0.270544 0.17881,0.353467 0.0452,0.04055 0.12263,0.115025 0.17258,0.165881 0.0896,0.0913 0.0906,0.09383 0.0811,0.174667 -0.0299,0.23517 -0.32184,0.02339 -0.54623,-0.06925 -0.0662,-0.0189 -0.0705,-0.02397 -0.0822,-0.100253 -0.007,-0.04422 -0.0141,-0.107455 -0.016,-0.140041 -0.005,-0.08502 -0.0245,-0.137555 -0.0698,-0.186037 -0.0217,-0.02336 -0.074,-0.116125 -0.11626,-0.206187 -0.0421,-0.09006 -0.0959,-0.183192 -0.11938,-0.206708 -0.0235,-0.02352 -0.0428,-0.04893 -0.0429,-0.05633 0,-0.0074 -0.0222,-0.02604 -0.0491,-0.04134 -0.0269,-0.0153 -0.0591,-0.04896 -0.0718,-0.07493 -0.0188,-0.03865 -0.0468,-0.05419 -0.15452,-0.08682 -0.16322,-0.04946 -0.1828,-0.07374 -0.37105,-0.457853 -0.11194,-0.228616 -0.14091,-0.275376 -0.17155,-0.275953 -0.0203,-3.83e-4 -0.0777,-0.0031 -0.12714,-0.0062 l -0.0899,-0.0057 -0.18087,0.167431 c -0.11896,0.109863 -0.20299,0.174056 -0.24545,0.187069 -0.1664,0.05097 -0.19905,0.244482 -0.0967,0.574124 0.0739,0.237932 0.13634,0.508887 0.14367,0.622702 0.004,0.05472 0.0146,0.128733 0.0243,0.164846 0.01,0.03611 0.0165,0.15638 0.015,0.267169 -0.30949,0.23654 -0.86247,0.112138 -0.86247,0.112138 l 0.0109,-0.09509 c 0,-0.0791 3.5e-4,-0.0793 0.0966,-0.131773 0.0531,-0.02897 0.1433,-0.09585 0.2005,-0.148312 0.0916,-0.08408 0.10152,-0.09961 0.0853,-0.130225 -0.0107,-0.0191 -0.0181,-0.05766 -0.0181,-0.08578 0,-0.04613 -0.0673,-0.269594 -0.11989,-0.399457 -0.0119,-0.02793 -0.0437,-0.06613 -0.0723,-0.08475 -0.0287,-0.01863 -0.0677,-0.05711 -0.0868,-0.08527 -0.0304,-0.0452 -0.0399,-0.0493 -0.0801,-0.03514 -0.0332,0.01165 -0.0529,0.0098 -0.0734,-0.0072 -0.0234,-0.01936 -0.0263,-0.04455 -0.0181,-0.150894 0.0187,-0.242687 0.0291,-0.295934 0.0687,-0.339513 0.0599,-0.06621 0.1079,-0.363699 0.076,-0.470258 -0.0162,-0.05406 -0.0136,-0.09588 0.015,-0.241845 0.0189,-0.09716 0.0386,-0.222662 0.0434,-0.278534 0.007,-0.09004 0.022,-0.161018 0.0775,-0.380858 0.008,-0.03259 0.0247,-0.104835 0.0362,-0.160713 0.0376,-0.181904 0.0957,-0.305689 0.17415,-0.370001 0.0575,-0.04708 0.0759,-0.0759 0.092,-0.146246 0.0281,-0.12128 0.0259,-0.134469 -0.0227,-0.152961 -0.0674,-0.02564 -0.0673,-0.05911 0.001,-0.190169 0.0895,-0.171215 0.13642,-0.228129 0.23514,-0.284739 0.0485,-0.02784 0.10181,-0.04386 0.16018,-0.04806 0.0123,-8.36e-4 0.0244,-0.0013 0.0372,-0.001 z" />
        <path
           style="fill:#000000;stroke-width:0.028598"
           d="m 490.44411,-76.72753 c 0.0992,-0.01291 0.11838,-0.06474 0.0902,-0.182836 -0.097,-0.406657 0.20742,-1.242487 0.48859,-1.591909 0.0506,-0.06292 0.12757,-0.17552 0.17099,-0.250232 0.0435,-0.07471 0.0854,-0.135841 0.0933,-0.135841 0.0631,0 0.18716,0.198605 0.20181,0.284883 0.01,0.05632 0.0522,0.135086 0.0946,0.175045 l 0.0772,0.07266 -0.007,0.667092 -0.007,0.667093 0.0728,0.02157 c 0.0401,0.01187 0.0963,0.01279 0.125,0.0021 0.0286,-0.01074 0.10046,0.0043 0.15951,0.0334 0.10627,0.05235 0.33649,0.07684 0.36842,0.03918 0.0349,-0.0412 -0.022,-0.127514 -0.11401,-0.172839 -0.0529,-0.02602 -0.1358,-0.08676 -0.18439,-0.134955 -0.0788,-0.0781 -0.0883,-0.107154 -0.0883,-0.266862 0,-0.09858 0.0137,-0.288722 0.0302,-0.422551 0.0219,-0.175644 0.0213,-0.382563 -0.002,-0.743931 -0.0178,-0.275333 -0.0352,-0.568189 -0.0389,-0.65079 -0.0129,-0.299436 -0.0587,-0.434465 -0.12412,-0.512128 -0.0361,-0.04289 -0.0745,-0.113402 -0.0854,-0.156705 -0.0109,-0.0433 -0.0438,-0.09379 -0.0734,-0.112199 -0.057,-0.03559 -0.0728,-0.147467 -0.025,-0.177 0.0158,-0.0097 0.0286,-0.08246 0.0286,-0.161653 0,-0.119929 -0.01,-0.146479 -0.0572,-0.158937 -0.0315,-0.0082 -0.0572,-0.02528 -0.0572,-0.03788 0,-0.01261 -0.007,-0.04007 -0.0141,-0.06101 -0.0283,-0.07706 0.0376,-0.115653 0.23438,-0.137258 0.24316,-0.02669 0.35327,-0.07632 0.40395,-0.182056 0.0509,-0.106188 0.005,-0.218554 -0.12926,-0.321511 -0.0823,-0.0628 -0.11841,-0.07283 -0.20953,-0.05826 -0.0606,0.0097 -0.1424,0.0054 -0.1819,-0.0097 -0.0654,-0.02486 -0.0694,-0.03573 -0.0448,-0.121381 0.0806,-0.281206 -0.0403,-0.480528 -0.29156,-0.480528 -0.0662,0 -0.12341,0.03541 -0.23894,0.147944 -0.0843,0.08211 -0.1454,0.164828 -0.13732,0.185887 0.008,0.02087 3.3e-4,0.03795 -0.0171,0.03795 -0.0174,0 -0.0317,-0.01108 -0.0317,-0.02462 0,-0.01354 -0.0611,-0.03188 -0.13584,-0.04077 -0.0747,-0.0089 -0.29897,-0.06216 -0.49836,-0.118375 -0.19937,-0.05622 -0.38598,-0.102291 -0.41467,-0.102378 -0.11709,-3.25e-4 -0.26668,-0.06074 -0.26865,-0.108428 -0.002,-0.04044 -0.005,-0.04142 -0.0214,-0.0058 -0.0107,0.02359 -0.0356,0.04289 -0.0552,0.04289 -0.0914,0 -0.0285,0.06166 0.10353,0.101455 0.1008,0.03039 0.1376,0.0535 0.11737,0.07373 -0.0202,0.02022 0.0244,0.04446 0.14249,0.07728 0.0946,0.02629 0.19171,0.04781 0.21584,0.04781 0.0328,0 0.0392,0.01849 0.0255,0.07308 -0.0215,0.08582 0.0566,0.183131 0.22141,0.275766 0.11379,0.06395 0.16761,0.152794 0.16761,0.276671 0,0.09599 -0.086,0.177663 -0.24309,0.230846 -0.20416,0.06912 -0.24117,0.111894 -0.24218,0.279876 -5.9e-4,0.08228 -0.0165,0.240594 -0.0356,0.351799 -0.0382,0.223042 -0.0185,0.29269 0.0876,0.308475 0.0338,0.005 0.0614,0.02111 0.0614,0.03575 0,0.04829 0.11041,0.02767 0.14931,-0.02789 0.0369,-0.05265 0.0415,-0.05179 0.13598,0.02534 0.0973,0.0794 0.0976,0.08056 0.0668,0.21893 -0.0171,0.07651 -0.0245,0.212782 -0.0165,0.302834 0.0115,0.130358 0.002,0.19114 -0.0486,0.298211 -0.0661,0.140638 -0.0657,0.206693 0.003,0.432307 0.0305,0.100734 0.0303,0.138271 -8.4e-4,0.214485 -0.11836,0.286029 -0.15165,0.428792 -0.17778,0.762435 -0.0154,0.197711 -0.01,0.486234 -0.0665,0.618583 -0.10115,0.235265 -0.0728,0.27011 0.0287,0.287801 0.0956,0.01667 0.13865,0.0099 0.21917,-0.0019 z"
           id="path10383-1-3-0"
           sodipodi:nodetypes="csssscscccssssssscscsscsscscsscsccssssssssccsssssssssscsssssscccssscc" />
        <path
           id="path10327-2-54-7"
           style="fill:#000000;stroke-width:0.028598"
           d="m 486.4747,-76.868771 c 0.0427,-0.07357 -0.0312,-0.188383 -0.17215,-0.267998 -0.1704,-0.09614 -0.0677,-0.07065 -0.10636,-0.590258 -0.0157,-0.212341 -0.0478,-0.43755 -0.0713,-0.500465 -0.0539,-0.144627 -0.0559,-0.268265 -0.006,-0.386417 0.0352,-0.08371 0.0315,-0.118018 -0.0389,-0.35361 -0.0471,-0.15789 -0.086,-0.373722 -0.0984,-0.546643 -0.0113,-0.157157 -0.0335,-0.301292 -0.0492,-0.320301 -0.0289,-0.03488 -0.0464,-0.4164 -0.0226,-0.493934 0.008,-0.02392 -0.0147,-0.05439 -0.0515,-0.07113 -0.0534,-0.02429 -0.0643,-0.05206 -0.0643,-0.162988 0,-0.1048 0.0217,-0.166576 0.1001,-0.285696 0.055,-0.08359 0.10008,-0.173725 0.10008,-0.200299 0,-0.02658 0.01,-0.0526 0.0215,-0.05785 0.0681,-0.03027 0.23594,-0.33803 0.23594,-0.432651 0,-0.145497 -0.27409,-0.288288 -0.55052,-0.28681 -0.10617,5.56e-4 -0.19303,-0.0022 -0.19303,-0.006 0,-0.0038 0.0254,-0.06315 0.0566,-0.131718 0.11155,-0.24584 0.0499,-0.482277 -0.15047,-0.577372 -0.17418,-0.08266 -0.31357,-0.0483 -0.52552,0.129553 l -0.11893,0.09981 0.0551,0.12317 c 0.0673,0.150218 0.0495,0.241007 -0.0412,0.210125 -0.0341,-0.01162 -0.38796,-0.01748 -0.7863,-0.01302 -0.64891,0.0073 -0.72987,0.003 -0.77805,-0.04055 -0.0495,-0.0448 -0.0574,-0.04499 -0.1,-0.0024 -0.0254,0.0254 -0.0761,0.04619 -0.11259,0.04619 -0.0755,0 -0.11471,0.06756 -0.0637,0.109739 0.0187,0.01547 0.24422,0.0325 0.5011,0.03783 0.40546,0.0084 0.47192,0.01634 0.50375,0.05993 0.0353,0.04829 0.0265,0.152177 -0.0274,0.325785 -0.0216,0.06959 0.056,0.210256 0.11609,0.210256 0.0207,0 0.0673,0.04156 0.10343,0.09236 0.0525,0.07384 0.0641,0.122904 0.0574,0.244672 -0.008,0.134404 0.003,0.170609 0.095,0.308009 0.0568,0.08564 0.11811,0.155701 0.13614,0.155701 0.0238,0 0.0234,0.0094 -8.3e-4,0.03432 -0.0189,0.01887 -0.0343,0.06151 -0.0343,0.09474 0,0.03323 -0.0386,0.09741 -0.0858,0.142621 -0.0472,0.04521 -0.0858,0.09656 -0.0858,0.114108 0,0.01756 0.0396,0.08583 0.0881,0.151727 0.0931,0.126535 0.0959,0.207705 0.0132,0.37762 -0.0191,0.03932 -0.0714,0.197658 -0.11613,0.351858 -0.0901,0.310431 -0.0837,0.374073 0.0599,0.597297 0.0626,0.09741 0.0648,0.112804 0.0282,0.200467 -0.0307,0.07332 -0.0361,0.196541 -0.0238,0.540941 0.02,0.563936 0.0986,0.588028 -0.0607,0.758539 -0.0944,0.100916 -0.12678,0.158528 -0.12678,0.22552 0,0.08615 0.0635,0.08413 0.17474,0.08413 0.14378,0 0.24796,-0.02796 0.28247,-0.118736 0.0164,-0.04324 -0.0102,-0.06763 0.0268,-0.06763 0.0329,0 -0.0309,0.01652 0,0 0.0486,-0.02598 0.0536,-0.04912 0.0374,-0.171665 -0.0104,-0.07794 -0.005,-0.196261 0.0125,-0.2631 0.0172,-0.06681 0.0374,-0.259297 0.0449,-0.427758 0.008,-0.168463 0.0274,-0.331698 0.0439,-0.362744 0.0166,-0.03105 0.0301,-0.08303 0.0301,-0.115527 0,-0.03249 0.0269,-0.08374 0.0596,-0.113889 0.0328,-0.03015 0.0968,-0.08989 0.14229,-0.132771 0.0512,-0.04825 0.11297,-0.163583 0.16206,-0.302586 0.0437,-0.123546 0.0858,-0.224576 0.0936,-0.224509 0.0329,3.26e-4 0.14559,0.198525 0.19581,0.344503 0.0298,0.08644 0.099,0.227616 0.15394,0.313719 0.16613,0.260424 0.21344,0.376693 0.23267,0.571841 0.0101,0.102579 0.0393,0.276311 0.0649,0.386073 0.0256,0.109761 -0.0144,0.346694 0.018,0.427635 -0.0106,0.135098 0.0324,0.151731 0.11915,0.153118 0.0509,8.15e-4 0.11949,0.0652 0.15083,0.07642 0.0357,0.01279 0.19249,-0.0012 0.19249,-0.0012 0.10076,-0.0054 0.12118,-0.01479 0.15342,-0.07042 z m -2.08676,-4.40532 c -0.0259,-0.07439 -0.0366,-0.0815 -0.0755,-0.05005 -0.0325,0.02631 -0.0394,0.02682 -0.0244,0.0018 0.0115,-0.01916 -0.005,-0.0923 -0.0372,-0.162518 -0.093,-0.204195 -0.0709,-0.224567 0.24887,-0.229361 0.13585,-0.0021 0.15008,0.0037 0.15015,0.06016 2e-5,0.03807 -0.0231,0.06976 -0.0592,0.08123 -0.0349,0.01107 -0.053,0.03503 -0.0442,0.0582 0.008,0.02166 0.003,0.04701 -0.0123,0.05632 -0.015,0.0093 -0.0417,0.07406 -0.0594,0.143905 -0.0176,0.06985 -0.0376,0.126994 -0.0443,0.126994 -0.007,0 -0.026,-0.03902 -0.0426,-0.08671 z"
           sodipodi:nodetypes="ccsccssscsssscssscsscssssssssssssccscsssssssscsssssssccsssssssssscssscccsscssscccscc" />
        <g
           id="g4562-3-9">
          <path
             id="path10339-8-9-62-6"
             style="fill:#000000;stroke-width:0.0228043"
             d="m 498.68579,-76.639803 c -0.0326,-0.0034 -0.11725,-1.02e-4 -0.18827,0.0073 -0.20888,0.02168 -0.33253,-0.06542 -0.23314,-0.164239 0.0234,-0.02327 0.078,-0.04976 0.12136,-0.05887 0.0433,-0.0091 0.097,-0.03464 0.11919,-0.05671 0.0389,-0.03875 0.11528,-0.07669 0.1269,-0.638812 0.007,-0.32027 0.0213,-0.655619 0.0297,-0.689067 0.01,-0.03816 0.0359,-0.06594 0.0702,-0.07456 0.0374,-0.0094 0.0965,-0.07911 0.18584,-0.219303 0.0721,-0.113056 0.18362,-0.285313 0.24787,-0.382794 l 0.11681,-0.177238 -0.0908,-0.07622 -0.0908,-0.07621 -0.0584,0.07454 c -0.0634,0.08103 -0.17393,0.137443 -0.26923,0.137443 -0.0706,0 -0.23758,-0.08801 -0.23758,-0.125233 0,-0.03379 -0.17477,-0.110243 -0.20678,-0.09046 -0.0255,0.01576 -0.1055,-0.07743 -0.0948,-0.11043 0.003,-0.01005 0.0114,-0.06737 0.0181,-0.12739 0.009,-0.08347 0.003,-0.116325 -0.0247,-0.13976 -0.0398,-0.03303 -0.23274,-0.03673 -0.53919,-0.01031 -0.16215,0.01398 -0.17659,0.01162 -0.20034,-0.03274 -0.0234,-0.04371 -0.0196,-0.04781 0.0443,-0.04781 0.0411,0 0.0753,-0.01409 0.0831,-0.03421 0.0154,-0.03998 0.0767,-0.04641 0.0767,-0.008 0,0.0189 0.0586,0.02196 0.21094,0.01103 0.11601,-0.0083 0.29304,-0.02079 0.39336,-0.0277 0.10035,-0.0069 0.20943,-0.02286 0.24241,-0.03546 0.033,-0.0126 0.074,-0.02096 0.0912,-0.01857 0.0172,0.0024 0.0646,0.0032 0.10537,0.0016 l 0.0741,-0.0027 v -0.123194 c 0,-0.116378 -0.004,-0.124511 -0.0684,-0.14704 -0.0377,-0.01312 -0.0684,-0.03905 -0.0684,-0.05761 0,-0.01857 -0.0154,-0.0492 -0.0343,-0.06807 -0.0189,-0.01887 -0.0343,-0.06835 -0.0343,-0.109949 3.5e-4,-0.361074 -0.002,-0.345873 0.0696,-0.412001 0.0474,-0.04367 0.0925,-0.06271 0.14846,-0.06271 0.17188,0 0.37055,0.169095 0.34159,0.290754 -0.006,0.02822 -0.0184,0.07659 -0.0262,0.107498 -0.0152,0.06128 -0.006,0.06712 0.27034,0.172641 0.1024,0.03909 0.15967,0.08205 0.26224,0.196659 0.0722,0.08065 0.19539,0.214338 0.27378,0.297085 0.0784,0.08275 0.14253,0.165128 0.14253,0.183067 0,0.05777 0.11951,0.238692 0.21707,0.328622 0.0521,0.04807 0.1136,0.129047 0.13655,0.179947 l 0.0417,0.09255 -0.0779,0.06676 c -0.0429,0.03672 -0.0963,0.07309 -0.11882,0.08082 -0.0253,0.0087 -0.0363,0.02863 -0.029,0.05213 0.0534,0.171295 0.13924,0.547574 0.13224,0.57967 -0.0135,0.06206 -0.0713,0.04696 -0.0872,-0.0228 -0.0204,-0.08936 -0.0771,-0.300172 -0.10484,-0.390034 l -0.0236,-0.07648 -0.0891,0.164227 c -0.13488,0.248589 -0.1049,0.409426 -0.1787,0.446985 -0.0367,0.01872 -0.0669,0.0404 -0.0669,0.04816 0,0.0078 0.0335,0.10029 0.0745,0.205622 0.041,0.105325 0.0374,0.267221 0.0702,0.393231 0.0328,0.126009 0.0728,0.27156 0.089,0.323446 0.0377,0.121288 0.0439,0.234199 0.0551,0.307867 0.0142,0.09262 -0.17518,0.187004 -0.31808,0.150314 -0.0308,-0.008 -0.0994,-0.01257 -0.12661,-0.01009 -0.0272,0.0025 -0.0611,-0.0078 -0.0755,-0.02283 -0.039,-0.04077 -0.0243,-0.144271 0.0276,-0.172317 0.15328,-0.0829 0.15685,-0.233901 0.1228,-0.306498 -0.0119,-0.02535 -0.0563,-0.159815 -0.0987,-0.298795 -0.0424,-0.138983 -0.1065,-0.298407 -0.14251,-0.35428 -0.036,-0.05587 -0.0655,-0.127931 -0.0655,-0.160127 0,-0.0322 -0.0104,-0.08244 -0.0232,-0.11166 -0.0218,-0.05028 -0.0556,-0.0479 -0.15587,0.0404 -0.0882,0.07762 -0.11961,0.09214 -0.18689,0.08635 l -0.0809,-0.0069 -0.005,0.148227 c -0.002,0.08153 -0.0105,0.170772 -0.0135,0.193838 -0.002,0.02306 0.003,0.131567 0.0119,0.241118 0.01,0.126621 0.006,0.237377 -0.01,0.30402 -0.0141,0.05766 -0.0233,0.128422 -0.0205,0.157252 0.002,0.02882 0.006,0.104309 0.007,0.167734 l -0.014,0.09022 -0.0973,0.02915 c -0.0594,0.01779 -0.14436,-0.01643 -0.17689,-0.01979 z m 0.0489,-2.789985 c 0.0385,-0.03763 0.0681,-0.187662 0.0325,-0.165725 -0.0145,0.009 -0.0264,0.0069 -0.0264,-0.0047 0,-0.0115 -0.0641,-0.01715 -0.14254,-0.01254 -0.23543,0.01381 -0.22233,0.0071 -0.22233,0.114212 v 0.09648 l 0.10832,0.0089 c 0.13309,0.01095 0.21354,-8.69e-4 0.25033,-0.03673 z"
             sodipodi:nodetypes="cssssccssscccsssscccsssssssssccsssscssccsssssscsscssscssssssssssssssscssccccccccscccsssscscc" />
          <path
             style="fill:#000000;stroke-width:0.028598"
             d="m 503.83243,-76.667661 c -0.0236,-0.01566 -0.0904,-0.02866 -0.14855,-0.0289 -0.21118,-8.22e-4 -0.32876,-0.205453 -0.14142,-0.246091 0.0415,-0.009 0.11191,-0.03019 0.15643,-0.04708 0.0797,-0.03022 0.0806,-0.03336 0.063,-0.20501 -0.01,-0.09587 -0.0381,-0.312646 -0.0629,-0.481715 -0.0353,-0.241263 -0.0381,-0.334738 -0.013,-0.434484 0.0176,-0.06989 0.0319,-0.170289 0.0319,-0.223095 0,-0.0528 0.0113,-0.108233 0.0252,-0.123176 0.0138,-0.01494 0.0401,-0.07388 0.0583,-0.130953 0.0182,-0.05708 0.0584,-0.126638 0.0892,-0.154571 0.0309,-0.02794 0.0561,-0.06611 0.0561,-0.08482 0,-0.01871 0.0258,-0.05735 0.0572,-0.08585 0.0484,-0.04386 0.20012,-0.284935 0.20012,-0.318121 0,-0.0059 -0.0249,-0.01071 -0.0551,-0.01071 -0.0858,0 -0.14966,-0.08263 -0.14124,-0.182634 0.0108,-0.127816 -0.0309,-0.178573 -0.16108,-0.196422 -0.0629,-0.0086 -0.13691,-0.02476 -0.16444,-0.03586 -0.0458,-0.01846 -0.05,0.0058 -0.05,0.284582 0,0.226321 -0.012,0.328063 -0.0468,0.395305 -0.0258,0.0498 -0.0457,0.142461 -0.0444,0.205915 8.3e-4,0.06345 0.005,0.218323 0.009,0.344153 0.008,0.269621 -0.0269,0.357655 -0.14033,0.357085 -0.21824,-0.0011 -0.24908,-0.06416 -0.15968,-0.326531 0.0262,-0.07685 0.0354,-0.144957 0.0211,-0.155235 -0.014,-0.01008 -0.0273,-0.05398 -0.0294,-0.09757 -0.005,-0.100076 -0.0493,-0.153648 -0.1853,-0.223016 -0.0858,-0.04378 -0.11183,-0.07631 -0.12739,-0.159256 -0.0244,-0.129963 0.056,-0.406392 0.13648,-0.469878 0.0313,-0.02468 0.11441,-0.185545 0.18464,-0.357474 0.10062,-0.246342 0.12425,-0.286672 0.11147,-0.190273 -0.0181,0.136958 -0.17584,0.518232 -0.23458,0.567178 -0.0209,0.01746 -0.0386,0.0432 -0.0391,0.0572 -5.9e-4,0.014 -0.0258,0.07692 -0.0562,0.139837 -0.0927,0.191832 -0.0549,0.357475 0.0815,0.357475 0.0829,0 0.17039,0.08146 0.19199,0.178772 l 0.0206,0.09291 0.0351,-0.100753 c 0.0193,-0.05542 0.0433,-0.168021 0.0533,-0.250233 0.0142,-0.116904 0.01,-0.149478 -0.0213,-0.149478 -0.0335,0 -0.0336,-0.02722 -8.4e-4,-0.178737 0.0477,-0.22202 0.0501,-0.369178 0.008,-0.462199 -0.0268,-0.05866 -0.0233,-0.08598 0.019,-0.150488 0.0498,-0.07597 0.10121,-0.495485 0.0607,-0.495485 -0.01,0 -0.0325,0.05875 -0.0505,0.130549 -0.0518,0.20567 -0.0853,0.109524 -0.0762,-0.218825 0.008,-0.269321 0.0131,-0.296953 0.0601,-0.28898 0.0488,0.0083 0.0506,-0.01389 0.0316,-0.36888 -0.015,-0.280871 -0.0119,-0.372508 0.0125,-0.357454 0.0206,0.01271 0.0328,-0.0017 0.0328,-0.03863 0,-0.07076 0.0177,-0.0738 0.0782,-0.01339 0.0303,0.03025 0.0352,0.05185 0.0148,0.06447 -0.0217,0.01341 -0.023,0.216339 -0.004,0.690905 0.0329,0.838306 0.0358,0.85781 0.12756,0.85781 0.12567,0 0.29568,-0.13379 0.29764,-0.234246 5.9e-4,-0.0266 0.0128,-0.05569 0.0274,-0.06464 0.0145,-0.009 0.0615,-0.12232 0.10434,-0.25192 0.0844,-0.254846 0.10198,-0.277432 0.21691,-0.278094 0.0699,-4.17e-4 0.0754,-0.0089 0.0684,-0.107681 -0.004,-0.05899 -0.017,-0.129165 -0.0284,-0.155962 -0.0125,-0.02897 -0.003,-0.07469 0.0238,-0.11278 0.04,-0.05708 0.0401,-0.06923 0.002,-0.111619 -0.0387,-0.04291 -0.034,-0.05632 0.0486,-0.137108 0.12105,-0.118338 0.26186,-0.14456 0.39235,-0.07306 0.12902,0.07069 0.20676,0.178899 0.20998,0.29227 0.003,0.0968 -0.0843,0.319707 -0.12485,0.319707 -0.0133,0 -0.0243,0.01286 -0.0243,0.0286 0,0.01573 0.0387,0.0286 0.0861,0.0286 0.14094,0 0.33749,0.108725 0.38766,0.214442 0.0445,0.09371 0.15961,0.227924 0.3038,0.35413 0.0422,0.03702 0.13745,0.07863 0.21141,0.09245 0.0997,0.01863 0.16917,0.05756 0.26863,0.150597 0.14515,0.135768 0.27716,0.183124 0.3708,0.133011 0.0369,-0.01973 0.0775,-0.02189 0.10892,-0.0058 0.0275,0.01416 0.0642,0.02062 0.0815,0.01434 0.0529,-0.01913 0.10496,0.07028 0.0857,0.147074 -0.0331,0.131913 -0.12218,0.162449 -0.37716,0.129285 -0.3096,-0.04027 -0.61599,-0.119435 -0.63292,-0.163531 -0.0208,-0.05426 -0.0565,-0.04424 -0.0734,0.02068 -0.008,0.03191 -0.0391,0.0572 -0.0693,0.0572 -0.0299,0 -0.0771,0.01661 -0.10491,0.03693 -0.047,0.03442 -0.0457,0.03951 0.0209,0.07516 0.0705,0.03772 0.11209,0.125532 0.12031,0.253915 0.003,0.03614 0.0348,0.13112 0.0723,0.211054 l 0.0681,0.145334 -0.112,0.09682 c -0.0863,0.0746 -0.10423,0.104591 -0.0781,0.130692 0.0186,0.01864 0.0339,0.07757 0.0339,0.130983 0,0.05341 0.0258,0.133403 0.0574,0.177761 0.0316,0.04436 0.0657,0.12356 0.0758,0.176002 0.0101,0.05244 0.0796,0.172835 0.1543,0.26754 0.24367,0.308679 0.55409,0.943029 0.57522,1.17549 0.01,0.108036 -0.0454,0.182312 -0.13556,0.182312 -0.0852,0 -0.22535,-0.176304 -0.20425,-0.256983 0.008,-0.0313 -0.008,-0.08602 -0.0352,-0.1216 -0.0276,-0.03557 -0.13526,-0.207258 -0.23927,-0.381514 -0.16917,-0.28343 -0.22131,-0.344707 -0.49455,-0.581317 -0.27844,-0.241109 -0.42926,-0.396194 -0.54238,-0.557684 l -0.0416,-0.05936 -0.12832,0.06807 c -0.11838,0.06281 -0.12831,0.07668 -0.12831,0.179387 0,0.123736 -0.0648,0.176506 -0.12291,0.100063 -0.0305,-0.04003 -0.05,-0.03356 -0.17022,0.05635 -0.0962,0.07195 -0.13584,0.121633 -0.13584,0.170335 0,0.03781 -0.0129,0.06876 -0.0286,0.06876 -0.0158,0 -0.0286,-0.03217 -0.0286,-0.0715 0,-0.03932 -0.0109,-0.07149 -0.0242,-0.07149 -0.0133,0 -0.0203,0.074 -0.0157,0.164439 0.0106,0.208195 0.044,0.980921 0.0498,1.151069 l 0.004,0.12869 -0.12869,0.0074 c -0.0708,0.0041 -0.14799,-0.0054 -0.17159,-0.02101 z"
             id="path10435-5-5" />
          <path
             id="path13970-5-8-0"
             style="fill:#000000;stroke-width:0.0169309"
             d="m 510.83075,-81.472026 c 0.0297,8.56e-4 0.0472,0.01249 0.0788,0.0449 0.0332,0.03385 0.0497,0.06808 0.0497,0.102779 0,0.03848 0.006,0.04958 0.0245,0.04262 0.0757,-0.02907 0.30442,-0.06625 0.40407,-0.06567 0.0933,5.26e-4 0.12725,0.0086 0.17776,0.04203 0.10579,0.07015 0.2073,0.185471 0.25811,0.293215 0.0435,0.09215 0.056,0.10518 0.11961,0.124237 0.0892,0.02671 0.19103,0.08918 0.27248,0.167062 0.11173,0.106891 0.13158,0.350335 0.043,0.529289 l -0.0447,0.09018 0.0498,0.05667 c 0.055,0.06276 0.0584,0.07569 0.0311,0.126486 -0.0221,0.04134 0.004,0.06534 0.055,0.05182 0.0402,-0.01046 0.0991,0.04004 0.0991,0.08495 0,0.04533 -0.11446,0.197879 -0.162,0.215968 -0.0372,0.01417 -0.0378,0.01753 -0.0169,0.09679 0.0119,0.04515 0.0309,0.09921 0.0421,0.120104 0.0126,0.02353 0.019,0.100497 0.017,0.202376 -0.002,0.09043 -0.002,0.202509 -2.5e-4,0.249069 0.002,0.08209 3.9e-4,0.08698 -0.0842,0.161473 -0.0796,0.0702 -0.0847,0.07886 -0.0585,0.100627 0.0223,0.01856 0.0261,0.03901 0.0175,0.09249 -0.006,0.03776 -0.008,0.125825 -0.006,0.195665 0.008,0.197964 0.005,0.360424 -0.0131,0.626444 -0.0122,0.183161 -0.0119,0.263101 0.004,0.314875 0.0135,0.04656 0.016,0.110624 0.007,0.194706 -0.007,0.06893 -0.0119,0.153187 -0.01,0.187266 l 0.004,0.06197 -0.19421,0.0011 c -0.10686,6.47e-4 -0.19821,0.0051 -0.20306,0.01 v 3.3e-5 c -0.005,0.0049 -0.0351,0.0088 -0.0672,0.0088 -0.0396,0 -0.0557,-0.0068 -0.0503,-0.02116 0.0254,-0.06771 0.029,-0.09569 0.0132,-0.105394 -0.0435,-0.02691 -0.0171,-0.135612 0.0657,-0.270828 0.0458,-0.07478 0.0888,-0.1588 0.0956,-0.186736 0.0132,-0.05502 -0.004,-0.04903 -0.0336,0.0124 -0.0307,0.06143 -0.0914,0.08214 -0.17718,0.06038 -0.096,-0.02437 -0.11149,-0.0631 -0.13643,-0.340668 -0.0107,-0.119396 -0.0264,-0.235179 -0.0348,-0.257305 -0.0192,-0.05078 -0.0708,-0.0846 -0.19593,-0.128568 -0.0543,-0.0191 -0.11969,-0.04552 -0.14522,-0.05873 -0.0256,-0.0132 -0.0654,-0.02401 -0.0883,-0.02401 -0.023,0 -0.0633,-0.01797 -0.0897,-0.03995 -0.0264,-0.02198 -0.0707,-0.05181 -0.0986,-0.0663 -0.0279,-0.01449 -0.083,-0.05403 -0.12221,-0.0879 l -0.0714,-0.06157 0.007,-0.252079 c 0.005,-0.167127 0.0156,-0.271935 0.0319,-0.310973 0.0136,-0.03239 0.0209,-0.06261 0.0163,-0.06717 -0.005,-0.0045 0.004,-0.03145 0.0184,-0.05979 0.0147,-0.02835 0.0266,-0.07858 0.0266,-0.111634 0,-0.07465 -0.0372,-0.07978 -0.1286,-0.01776 -0.0692,0.04701 -0.11743,0.05251 -0.18806,0.02156 -0.0656,-0.02873 -0.19262,-0.150545 -0.18975,-0.181942 0.01,-0.102399 0.005,-0.107415 -0.0932,-0.09593 -0.0504,0.0059 -0.10187,0.0149 -0.11435,0.02 -0.0451,0.01847 -0.0815,0.139233 -0.18547,0.61401 -0.10864,0.496372 -0.12657,0.54503 -0.20112,0.54503 -0.0431,0 -0.0431,-0.03542 -3e-5,-0.115177 0.0335,-0.06202 0.22012,-0.901231 0.22012,-0.990029 0,-0.03378 -0.008,-0.04609 -0.0317,-0.04609 -0.0327,0 -0.17134,0.05632 -0.19366,0.07864 -0.007,0.0069 -0.0295,0.01508 -0.0503,0.01819 -0.0764,0.01141 -0.35084,0.127481 -0.35084,0.148343 0,0.02657 -0.0302,0.0517 -0.0805,0.06712 -0.0329,0.0101 -0.038,0.0055 -0.038,-0.03342 0,-0.04588 0.0479,-0.143417 0.0705,-0.143417 0.0169,0 0.49459,-0.187542 0.50518,-0.198342 0.007,-0.0078 -0.0965,-0.0018 -0.38094,0.02212 -0.0559,0.0048 -0.14963,0.01602 -0.2083,0.02513 -0.0587,0.0092 -0.11387,0.01211 -0.12275,0.0067 -0.0189,-0.01165 -0.021,-0.09355 -0.004,-0.117981 0.007,-0.01046 0.15985,-0.01694 0.39587,-0.01694 0.34138,0 0.38698,-0.0032 0.41613,-0.02962 0.0181,-0.0163 0.0414,-0.02962 0.0519,-0.02962 0.0107,0 0.0275,-0.01524 0.0375,-0.03386 0.01,-0.01863 0.0337,-0.03386 0.0529,-0.03386 0.0206,0 0.0385,0.01384 0.0437,0.03386 0.007,0.02888 0.0231,0.03386 0.10567,0.03386 0.0532,0 0.10091,-0.0042 0.10602,-0.0093 0.005,-0.0051 10e-4,-0.04003 -0.008,-0.07764 -0.0139,-0.05469 -0.0119,-0.07995 0.0107,-0.126024 0.0207,-0.0434 0.0233,-0.06857 0.0107,-0.101982 -0.01,-0.02439 -0.0141,-0.11891 -0.0107,-0.21005 0.005,-0.140172 0.0132,-0.179263 0.0519,-0.253534 0.0378,-0.07239 0.0422,-0.09233 0.0245,-0.113584 -0.0278,-0.03357 -0.0618,-0.09101 -0.0749,-0.126652 -0.008,-0.02157 -0.0239,-0.02609 -0.0673,-0.01904 l -0.0569,0.0093 0.01,-0.150261 c 0.0134,-0.21798 0.0445,-0.314311 0.1296,-0.402572 0.0942,-0.09768 0.21002,-0.127532 0.35135,-0.09054 0.0782,0.02048 0.0994,0.02082 0.12757,0.002 0.0186,-0.01236 0.0626,-0.02614 0.0979,-0.03065 0.0137,-0.0017 0.025,-0.0026 0.0348,-0.0024 z m 0.65336,2.380183 c -0.007,0 -0.0179,0.02521 -0.0238,0.05606 -0.006,0.03084 -0.0378,0.120362 -0.0712,0.198939 -0.0334,0.07858 -0.0643,0.15486 -0.0687,0.169507 -0.01,0.03032 0.19876,0.217574 0.24533,0.220863 0.0156,0.0011 0.0536,0.003 0.0844,0.0042 0.053,0.0021 0.0542,9.97e-4 0.0212,-0.021 -0.0227,-0.01505 -0.0352,-0.04187 -0.0355,-0.07619 -3.2e-4,-0.02912 -0.0119,-0.06774 -0.0254,-0.08582 -0.0137,-0.01808 -0.0248,-0.05943 -0.0248,-0.09189 0,-0.04454 -0.0124,-0.06971 -0.0506,-0.102577 -0.048,-0.04138 -0.0498,-0.04718 -0.0336,-0.116009 0.017,-0.0724 0.007,-0.156114 -0.0173,-0.156114 z m 0.88035,2.101617 c 0.007,0 0.0153,0.0011 0.0212,0.0034 0.0119,0.0048 0.002,0.0086 -0.0212,0.0086 -0.0233,0 -0.0328,-0.0038 -0.0212,-0.0086 0.006,-0.0024 0.0135,-0.0034 0.0212,-0.0034 z m -0.11851,0.01693 c 0.007,0 0.0153,0.0011 0.0212,0.0034 0.0119,0.0048 0.002,0.0086 -0.0212,0.0086 -0.0233,0 -0.0328,-0.0038 -0.0212,-0.0086 0.006,-0.0024 0.0136,-0.0034 0.0212,-0.0034 z" />
          <path
             style="fill:#000000;stroke-width:0.028598"
             d="m 507.13073,-76.657049 c -0.0236,-0.01314 -0.12565,-0.03209 -0.22681,-0.04213 -0.20481,-0.02033 -0.31655,-0.07704 -0.31655,-0.160685 0,-0.06336 0.0565,-0.09894 0.20019,-0.126176 0.19874,-0.03766 0.19933,-0.03948 0.17031,-0.533636 -0.0327,-0.555749 -0.0108,-0.924458 0.0621,-1.04549 0.0295,-0.04904 0.0536,-0.109877 0.0536,-0.135182 0,-0.02531 0.0312,-0.06646 0.0693,-0.09146 0.0381,-0.02499 0.0836,-0.08629 0.10101,-0.136224 0.0173,-0.04993 0.0795,-0.140023 0.13797,-0.200207 0.10405,-0.107074 0.10511,-0.11035 0.0492,-0.152414 -0.0397,-0.02984 -0.0915,-0.03767 -0.16916,-0.0256 -0.095,0.01476 -0.15188,-0.0024 -0.37528,-0.113285 -0.25166,-0.124891 -0.26399,-0.135384 -0.27844,-0.237026 -0.008,-0.05849 -0.0238,-0.132089 -0.0345,-0.163546 -0.0192,-0.05615 -0.0187,-0.05618 0.0254,-0.0022 0.0247,0.03026 0.0525,0.09573 0.0618,0.145499 0.0134,0.07131 0.0501,0.110562 0.1734,0.185288 0.127,0.07696 0.1983,0.09848 0.37895,0.114367 0.12238,0.01076 0.23755,0.02887 0.25592,0.04022 0.079,0.04886 0.0241,-0.0668 -0.0866,-0.181898 -0.11638,-0.121114 -0.12492,-0.124705 -0.28149,-0.118314 -0.1454,0.0059 -0.16625,-7.62e-4 -0.20959,-0.06687 -0.072,-0.109956 -0.0886,-0.23411 -0.0412,-0.308811 0.0549,-0.08644 0.0427,-0.242825 -0.0291,-0.376883 -0.066,-0.123097 -0.43631,-0.567154 -0.45632,-0.547151 -0.007,0.0071 0.007,0.07469 0.0317,0.150161 0.11783,0.362721 0.15839,0.524873 0.17738,0.709194 0.0113,0.110102 0.0111,0.191228 -3.5e-4,0.180281 -0.0266,-0.02514 -0.098,-0.354721 -0.0994,-0.458296 -8.4e-4,-0.07247 -0.0617,-0.218415 -0.2053,-0.493057 -0.0472,-0.0902 -0.0525,-0.124021 -0.0265,-0.165785 0.0279,-0.04478 0.01,-0.07847 -0.12554,-0.229859 -0.0871,-0.09756 -0.17839,-0.219512 -0.20293,-0.270996 -0.0258,-0.05428 -0.0578,-0.08546 -0.0759,-0.07423 -0.0194,0.012 -0.0232,0.0061 -0.01,-0.01544 0.0121,-0.01947 1e-4,-0.05843 -0.027,-0.08838 -0.0464,-0.05129 -0.0446,-0.05345 0.0415,-0.051 0.0683,0.0019 0.0859,0.01306 0.0733,0.04609 -0.0104,0.02694 0.0258,0.08791 0.095,0.160047 0.10725,0.11187 0.35197,0.391106 0.7483,0.85382 0.10224,0.119363 0.20058,0.217857 0.21854,0.218878 0.0485,0.0028 0.0757,-0.139606 0.0358,-0.187612 -0.0246,-0.02964 -0.0258,-0.0592 -0.004,-0.1066 0.0241,-0.0528 0.0201,-0.07171 -0.0203,-0.09697 -0.0276,-0.01726 -0.058,-0.06995 -0.0674,-0.117092 -0.009,-0.04714 -0.0572,-0.150837 -0.1062,-0.230437 -0.087,-0.14134 -0.0915,-0.203164 -0.0151,-0.203164 0.0209,0 0.0593,-0.03268 0.0855,-0.07263 0.12099,-0.184642 0.38056,-0.197881 0.55038,-0.02807 0.0884,0.08838 0.095,0.10808 0.095,0.283724 v 0.188747 h 0.0984 c 0.0541,0 0.10636,0.01286 0.11608,0.0286 0.0275,0.04466 0.20203,0.03361 0.31423,-0.01989 0.0894,-0.04263 0.12274,-0.04414 0.27591,-0.01251 0.18361,0.03792 0.2821,0.08412 0.2821,0.132311 0,0.01593 0.0451,0.09231 0.10009,0.169742 0.055,0.07743 0.10009,0.157436 0.10009,0.177789 0,0.02036 0.0391,0.06598 0.0871,0.10139 0.12473,0.09222 0.10684,0.188115 -0.0514,0.275128 -0.0668,0.03677 -0.12154,0.07947 -0.12154,0.09489 0,0.01542 0.0708,0.05933 0.15728,0.09759 0.17853,0.07895 0.19205,0.118824 0.10086,0.297567 -0.0675,0.132351 -0.10415,0.149416 -0.2081,0.09693 -0.0996,-0.0503 -0.0986,-0.03009 0.0105,0.203043 0.049,0.104779 0.0844,0.193768 0.0786,0.197753 -0.006,0.004 -0.0459,0.0294 -0.0892,0.05648 l -0.0787,0.04923 0.0184,0.249541 c 0.0258,0.349673 0.0205,0.43403 -0.0307,0.490598 -0.0246,0.02719 -0.0447,0.05752 -0.0447,0.06742 0,0.0099 0.0869,0.126351 0.19304,0.25879 0.31713,0.395598 0.53255,0.81509 0.57114,1.11214 0.0121,0.09305 0.005,0.110739 -0.0594,0.139896 -0.0596,0.02718 -0.0854,0.02482 -0.13878,-0.01269 -0.036,-0.02534 -0.11693,-0.08244 -0.17976,-0.126881 -0.12584,-0.089 -0.15254,-0.15055 -0.0917,-0.211386 0.0612,-0.06125 -0.27075,-0.600644 -0.44957,-0.730414 -0.072,-0.05227 -0.13094,-0.106721 -0.13094,-0.121014 0,-0.0143 -0.0595,-0.0946 -0.13216,-0.178458 -0.0727,-0.08386 -0.16467,-0.223255 -0.20442,-0.309765 -0.0397,-0.08651 -0.0767,-0.162556 -0.0821,-0.168993 -0.005,-0.0064 -0.0839,0.05852 -0.17449,0.144332 -0.0906,0.08582 -0.20664,0.173146 -0.25796,0.194061 -0.0627,0.02557 -0.0984,0.0626 -0.10897,0.113051 -0.009,0.04126 -0.0284,0.09832 -0.0439,0.126787 -0.0187,0.03444 -0.0173,0.125854 0.004,0.273141 0.0177,0.12176 0.0254,0.323676 0.017,0.448704 -0.008,0.125027 -0.0166,0.246625 -0.0181,0.270219 -8.4e-4,0.02359 0.006,0.110393 0.0166,0.192888 0.0132,0.103156 0.008,0.163432 -0.0165,0.193036 -0.0386,0.0466 -0.15993,0.05582 -0.22891,0.01742 z"
             id="path10431-2-73-8" />
          <path
             id="path13964-5-1-1"
             style="fill:#000000;stroke-width:0.0140539"
             d="m 501.90851,-81.543488 c 0.11618,6.5e-4 0.23771,0.09109 0.27526,0.20488 0.0171,0.05168 0.0117,0.280646 -0.008,0.331252 -0.006,0.01659 0.0107,0.02694 0.074,0.04468 0.10992,0.03085 0.13595,0.05174 0.13651,0.109549 3.3e-4,0.04276 0.004,0.04721 0.0427,0.04781 0.0585,9.12e-4 0.11412,0.04146 0.15683,0.114351 0.0307,0.05235 0.0352,0.07408 0.0297,0.14139 -0.006,0.07146 -0.0124,0.08461 -0.0628,0.129448 -0.0328,0.02907 -0.0596,0.06748 -0.0645,0.09201 -0.005,0.02317 -0.0179,0.08008 -0.0297,0.126456 -0.0117,0.04639 -0.0299,0.129399 -0.0403,0.184512 -0.0174,0.09311 -0.0171,0.101344 0.007,0.116081 0.014,0.0087 0.0254,0.02829 0.0254,0.04348 0,0.0161 0.0166,0.0362 0.0397,0.04814 0.0276,0.01422 0.0451,0.03912 0.0579,0.08117 0.01,0.03337 0.03,0.08411 0.0446,0.112788 0.0146,0.02867 0.0266,0.07047 0.0266,0.09289 0,0.02241 0.0221,0.08866 0.0492,0.147209 0.0627,0.135808 0.0628,0.160253 5.8e-4,0.186185 -0.0267,0.01112 -0.0574,0.01675 -0.0685,0.01252 -0.0151,-0.0058 -0.0184,0.0011 -0.0133,0.02781 0.005,0.02918 -0.002,0.04084 -0.0439,0.06542 -0.0389,0.02298 -0.0491,0.03689 -0.0441,0.06016 0.004,0.01665 0.0126,0.06507 0.02,0.107572 0.007,0.04252 0.03,0.121566 0.0506,0.175673 0.0956,0.252238 0.0933,0.235503 0.0633,0.464216 -0.021,0.159459 -0.0234,0.211161 -0.0108,0.231559 0.0127,0.02037 0.0121,0.03424 -0.004,0.06179 -0.0157,0.02955 -0.0159,0.0393 -3.5e-4,0.05801 0.0103,0.01235 0.0198,0.03628 0.0211,0.05316 8.3e-4,0.01689 0.01,0.07182 0.0183,0.122065 0.0152,0.08794 0.0553,0.361978 0.0679,0.463777 0.0141,0.114179 0.0399,0.19086 0.089,0.265239 0.0287,0.04348 0.0596,0.09288 0.0685,0.109767 0.17069,0.250217 -0.21775,0.170019 -0.3761,0.05508 -0.0163,-0.01973 -0.021,-0.117074 -0.0141,-0.296585 0.004,-0.09052 -0.11351,-0.457321 -0.16384,-0.513844 -0.0108,-0.01208 -0.0208,-0.05263 -0.0221,-0.09014 -0.002,-0.04922 -0.0118,-0.07827 -0.0354,-0.104527 -0.0957,-0.106008 -0.11291,-0.13261 -0.12975,-0.200869 -0.0101,-0.04093 -0.0364,-0.113368 -0.0584,-0.161015 -0.022,-0.04765 -0.0495,-0.127028 -0.0609,-0.176388 -0.0115,-0.04936 -0.0349,-0.127258 -0.0519,-0.173092 -0.0257,-0.06863 -0.0331,-0.07842 -0.0424,-0.0555 -0.006,0.0153 -0.0281,0.0721 -0.0487,0.126211 -0.0206,0.0541 -0.0558,0.136218 -0.0779,0.182481 -0.0222,0.04626 -0.0404,0.09757 -0.0404,0.113993 0,0.01642 -0.0158,0.05315 -0.0351,0.08164 -0.0193,0.02847 -0.0351,0.06738 -0.0351,0.08647 0,0.01908 -0.005,0.04571 -0.0125,0.05913 -0.0338,0.06652 -0.0422,0.105099 -0.0496,0.228184 -0.004,0.07343 -0.0203,0.2034 -0.0354,0.288816 -0.0287,0.162161 -0.0341,0.303819 -0.0199,0.522792 0.009,0.138121 0.002,0.207067 -0.049,0.207067 0,0 -0.43665,0.108922 -0.65565,0.08807 l -0.004,-0.09742 -0.004,-0.09742 0.0652,-0.04136 c 0.036,-0.02274 0.0733,-0.04136 0.083,-0.04136 0.01,0 0.0457,-0.02688 0.0797,-0.05973 0.034,-0.03285 0.0838,-0.07939 0.11041,-0.103399 0.0436,-0.03928 0.0502,-0.05553 0.0665,-0.16162 0.0224,-0.145963 0.0145,-0.637192 -0.0106,-0.662342 -0.009,-0.0089 -0.0163,-0.04275 -0.0163,-0.07505 0,-0.03673 -0.009,-0.06573 -0.0226,-0.07743 -0.0429,-0.03562 -0.0497,-0.08219 -0.0282,-0.194201 0.0113,-0.0587 0.0308,-0.166829 0.0438,-0.240259 0.0128,-0.07343 0.0391,-0.214656 0.0584,-0.313852 0.0319,-0.163823 0.0331,-0.181859 0.0127,-0.196753 -0.0195,-0.0143 -0.0203,-0.02705 -0.006,-0.09972 0.0163,-0.08105 0.0158,-0.08392 -0.017,-0.105405 -0.0727,-0.04764 -0.12521,-0.103418 -0.15492,-0.164748 -0.0274,-0.05671 -0.03,-0.07893 -0.023,-0.192609 0.009,-0.138239 0.0538,-0.349576 0.082,-0.383543 0.0355,-0.04278 0.0914,-0.06153 0.13653,-0.04581 0.0341,0.01191 0.0497,0.01002 0.0799,-0.0098 0.0367,-0.02409 0.0375,-0.0269 0.0326,-0.154921 -0.004,-0.07171 -0.0111,-0.136277 -0.0188,-0.143476 -0.009,-0.008 -0.0842,-0.0069 -0.19804,0.0033 -0.24863,0.02205 -0.33559,0.01963 -0.36865,-0.01029 -0.0693,-0.06282 -0.0983,-0.310329 -0.0442,-0.379042 0.0164,-0.02098 0.0329,-0.07059 0.0389,-0.117839 0.0104,-0.08083 0.01,-0.08235 -0.0506,-0.162414 -0.0624,-0.08255 -0.0793,-0.09422 -0.092,-0.06325 -0.005,0.0122 -0.015,0.0084 -0.0328,-0.01265 -0.0233,-0.02747 -0.0482,-0.03173 -0.27157,-0.04657 -0.13528,-0.0089 -0.32183,-0.02171 -0.41461,-0.02828 -0.11824,-0.0084 -0.1742,-0.0073 -0.18727,0.0034 -0.0136,0.01134 -0.0215,0.01087 -0.0293,-0.0018 -0.007,-0.01082 -0.0572,-0.01916 -0.13596,-0.02241 -0.11439,-0.0048 -0.12571,-0.0077 -0.1298,-0.03457 -0.004,-0.02326 -0.0146,-0.02943 -0.0528,-0.02943 -0.0335,0 -0.0481,-0.0064 -0.0481,-0.02107 0,-0.01448 0.0145,-0.02107 0.0464,-0.02107 0.0254,0 0.0543,-0.0078 0.0639,-0.01743 0.014,-0.01392 0.0197,-0.01384 0.0285,4.37e-4 0.008,0.01296 0.0534,0.01726 0.16456,0.01558 0.12994,-0.002 0.577,0.01544 0.90315,0.03516 0.049,0.003 0.0961,0.01239 0.10469,0.02094 0.0213,0.02131 0.0555,0.01954 0.10322,-0.0054 0.0528,-0.02752 0.18645,-0.02804 0.20734,-8.29e-4 0.0104,0.01351 0.0675,0.0257 0.17021,0.03635 0.25015,0.0259 0.3751,0.0247 0.34711,-0.0034 -0.0314,-0.03134 -0.0171,-0.06661 0.0747,-0.185472 0.1029,-0.133313 0.19249,-0.191404 0.29428,-0.190852 z m -0.75792,0.56671 c -0.0201,-0.0021 -0.0353,0.01037 -0.0353,0.03514 0,0.01476 -0.009,0.03425 -0.0199,0.04331 -0.0254,0.0211 -0.0418,0.138476 -0.0293,0.211548 0.005,0.03107 0.0169,0.05609 0.0259,0.05561 0.0267,-0.0014 0.15234,-0.04272 0.21646,-0.07112 0.0329,-0.01451 0.0642,-0.02638 0.07,-0.02638 0.0318,0 0.20072,-0.07742 0.1965,-0.09006 -0.004,-0.0083 -0.0361,-0.02322 -0.0742,-0.0332 -0.21038,-0.05515 -0.28304,-0.07972 -0.31087,-0.105103 -0.0132,-0.01212 -0.027,-0.01854 -0.0391,-0.01977 z" />
        </g>
      </g>
    </g>
  </g>
</svg>
