<?xml version="1.0" encoding="UTF-8" standalone="no"?>
<!-- Created with Inkscape (http://www.inkscape.org/) -->

<svg
   width="7.1291242mm"
   height="10.602351mm"
   viewBox="0 0 7.1291242 10.602351"
   version="1.1"
   id="svg1"
   sodipodi:docname="inkporter-svg-z0ijwbjg.svg"
   xmlns:inkscape="http://www.inkscape.org/namespaces/inkscape"
   xmlns:sodipodi="http://sodipodi.sourceforge.net/DTD/sodipodi-0.dtd"
   xmlns="http://www.w3.org/2000/svg"
   xmlns:svg="http://www.w3.org/2000/svg">
  <sodipodi:namedview
     id="namedview1"
     pagecolor="#ffffff"
     bordercolor="#666666"
     borderopacity="1.0"
     inkscape:showpageshadow="2"
     inkscape:pageopacity="0.0"
     inkscape:pagecheckerboard="0"
     inkscape:deskcolor="#d1d1d1"
     inkscape:document-units="mm"
     inkscape:zoom="3.2729938"
     inkscape:cx="356.096"
     inkscape:cy="612.43623"
     inkscape:window-width="3840"
     inkscape:window-height="2066"
     inkscape:window-x="2869"
     inkscape:window-y="-11"
     inkscape:window-maximized="1"
     inkscape:current-layer="layer1" />
  <defs
     id="defs1" />
  <g
     inkscape:label="Layer 1"
     inkscape:groupmode="layer"
     id="layer1"
     transform="translate(-101.86457,-163.77708)">
    <g
       id="S-Infantry-Kom3a"
       transform="translate(-421.28615,283.55899)">
      <path
         id="path12334"
         style="fill:#000000;stroke-width:0.0170511"
         d="m 524.73131,-109.30401 5.8e-4,-0.0766 0.0446,-0.0393 c 0.0245,-0.0216 0.093,-0.0568 0.15212,-0.0783 l 0.10752,-0.0389 0.0335,-0.0477 0.0335,-0.0477 -0.0106,-0.1447 c -0.006,-0.0796 -0.0171,-0.17718 -0.025,-0.21685 -0.007,-0.0396 -0.0146,-0.11441 -0.0148,-0.16605 l -3.6e-4,-0.0939 -0.0503,-0.11799 -0.0503,-0.11798 0.006,-0.10066 0.006,-0.10068 0.0755,-0.16547 c 0.0414,-0.091 0.0753,-0.18416 0.0752,-0.20697 -4e-4,-0.0564 -0.0445,-0.14792 -0.0713,-0.14792 -0.0384,0 -0.0559,-0.0429 -0.10742,-0.26277 -0.0496,-0.21212 -0.1742,-0.76682 -0.18398,-0.81955 -0.003,-0.0149 -0.0308,-0.13665 -0.0623,-0.27058 -0.0314,-0.13394 -0.0826,-0.35311 -0.11361,-0.48704 -0.031,-0.13393 -0.0752,-0.32065 -0.0983,-0.4149 -0.023,-0.0943 -0.0446,-0.18437 -0.0478,-0.20025 -0.003,-0.0159 -0.0201,-0.0808 -0.0374,-0.14431 -0.0174,-0.0635 -0.0366,-0.1489 -0.0428,-0.18984 l -0.011,-0.0744 -0.0594,-0.0431 -0.0594,-0.0431 v -0.0448 c 0,-0.0246 -0.005,-0.0537 -0.0116,-0.0643 -0.0107,-0.0184 -0.0144,-0.1657 -0.008,-0.35012 l 0.002,-0.0812 -0.0778,-0.33371 c -0.0428,-0.18355 -0.0794,-0.34184 -0.0813,-0.35176 -0.002,-0.01 -0.01,-0.0485 -0.016,-0.0855 l -0.0125,-0.0674 -0.0142,0.01 -0.0142,0.01 0.008,-0.0255 c 0.005,-0.0139 -0.002,-0.0733 -0.0145,-0.13172 -0.0316,-0.14437 -0.21678,-0.95666 -0.23607,-1.03526 -0.008,-0.0348 -0.0485,-0.21737 -0.0885,-0.40587 -0.0402,-0.1885 -0.0836,-0.38738 -0.0965,-0.44193 -0.11109,-0.47096 -0.27648,-1.26401 -0.30659,-1.47016 -0.005,-0.0396 -0.0288,-0.1168 -0.0511,-0.17137 l -0.0407,-0.0992 -0.007,-0.13529 c -0.005,-0.0744 -0.002,-0.17984 0.005,-0.2343 l 0.0136,-0.099 0.0273,-0.006 0.0273,-0.006 0.0539,0.0603 c 0.0296,0.0332 0.0761,0.10981 0.10298,0.17027 l 0.0491,0.10993 0.003,0.15113 0.003,0.15113 0.16157,0.71254 c 0.0888,0.39187 0.24759,1.09404 0.35271,1.56033 0.10512,0.4663 0.22024,0.97364 0.25579,1.12743 0.0695,0.3002 0.23331,1.02325 0.2504,1.10485 l 0.0104,0.0496 h 0.0312 0.0312 l 0.0846,0.0857 c 0.0466,0.0472 0.11628,0.12066 0.155,0.16339 0.0388,0.0428 0.10797,0.10525 0.15389,0.13893 0.0459,0.0337 0.13788,0.12306 0.20436,0.19863 l 0.12088,0.13741 0.0886,0.0506 c 0.0488,0.0279 0.11404,0.0564 0.14506,0.0636 0.031,0.007 0.0792,0.0277 0.10722,0.0458 0.0555,0.0357 0.19969,0.0721 0.26348,0.0665 l 0.0403,-0.004 0.006,-0.0478 0.005,-0.0479 -0.0307,-0.0243 c -0.0637,-0.0503 -0.10921,-0.21211 -0.0678,-0.24076 0.008,-0.006 0.0161,-0.0415 0.0161,-0.0786 0,-0.0371 0.006,-0.0752 0.0146,-0.0846 0.0305,-0.0358 0.0821,-0.15502 0.0821,-0.18962 v -0.0361 l 0.023,-0.01 c 0.0127,-0.006 0.0305,-0.0336 0.0395,-0.0626 l 0.0164,-0.0527 h 0.0492 0.0493 v 0.0208 0.0208 l 0.0295,-0.0299 c 0.0162,-0.0163 0.0397,-0.0296 0.0524,-0.0292 0.028,6.5e-4 0.0807,0.0833 0.1378,0.21577 l 0.0428,0.0992 0.006,0.19484 0.006,0.19483 -0.0359,0.0991 -0.0359,0.0991 0.0362,0.0431 0.0362,0.0431 0.0586,-4.5e-4 c 0.0322,-2.7e-4 0.0778,0.008 0.10134,0.0181 0.0468,0.0204 0.12649,0.12604 0.12649,0.16776 0,0.0144 0.006,0.0339 0.0151,0.0434 0.008,0.009 0.0173,0.0572 0.0202,0.10635 l 0.006,0.0892 0.0775,0.0445 c 0.0428,0.0245 0.0934,0.0673 0.11282,0.0951 0.0194,0.0278 0.0615,0.0843 0.0935,0.12574 l 0.0582,0.0752 0.0625,-0.0131 0.0625,-0.0132 0.0619,-0.0729 0.0618,-0.0728 0.0367,0.0219 0.0366,0.0219 0.0884,-0.0252 c 0.0486,-0.0139 0.0968,-0.0219 0.10709,-0.0182 l 0.0187,0.007 v 0.0695 c 0,0.0382 -0.006,0.0907 -0.0161,0.11673 l -0.0161,0.0473 -0.0766,0.0371 c -0.0422,0.0204 -0.11998,0.06 -0.17297,0.088 l -0.0964,0.0509 0.005,0.13336 0.006,0.13337 -0.0595,0.0585 c -0.0327,0.0322 -0.0776,0.0663 -0.0998,0.0756 l -0.0402,0.0172 -0.0507,-0.0155 c -0.0279,-0.009 -0.0579,-0.0128 -0.0668,-0.009 l -0.0161,0.006 0.002,0.10912 0.002,0.10911 -0.0325,0.0194 c -0.0178,0.0107 -0.0686,0.0204 -0.11303,0.0217 l -0.0806,0.003 -0.0524,-0.0764 -0.0525,-0.0763 -0.0185,-0.0996 -0.0185,-0.0996 h -0.0211 -0.0211 l -0.0194,0.0586 c -0.0107,0.0322 -0.0261,0.0728 -0.0342,0.0899 -0.0247,0.0523 -0.0178,0.0695 0.0583,0.14435 0.0402,0.0395 0.0841,0.0957 0.0974,0.12462 l 0.0243,0.0527 0.0159,-0.0109 c 0.008,-0.006 0.0145,-0.004 0.0128,0.004 -0.002,0.008 0.005,0.0377 0.0157,0.0657 0.0267,0.0724 0.0234,0.10909 -0.0147,0.16325 l -0.0334,0.0475 h 0.0183 0.0184 l -0.0109,0.0386 -0.0109,0.0387 0.0204,0.0689 0.0204,0.069 0.0162,-0.0112 0.0162,-0.0112 -0.0108,0.0195 c -0.006,0.0107 5.8e-4,0.0912 0.0147,0.17866 0.0139,0.0874 0.0291,0.18748 0.0333,0.2222 0.019,0.15145 0.054,0.23362 0.21553,0.50509 0.0754,0.12665 0.19934,0.47814 0.21814,0.61844 l 0.0112,0.0841 0.0384,0.043 c 0.0693,0.0775 0.11197,0.21554 0.10562,0.3413 l -0.002,0.0496 -0.18938,-3.4e-4 -0.18938,-3.3e-4 -0.0726,-0.24636 c -0.0398,-0.13549 -0.0851,-0.26447 -0.10074,-0.28665 -0.0156,-0.0222 -0.0283,-0.0492 -0.0283,-0.06 0,-0.011 -0.0398,-0.078 -0.0886,-0.1491 -0.0488,-0.0712 -0.0886,-0.13932 -0.0886,-0.15156 0,-0.0206 -0.10749,-0.11725 -0.21359,-0.19222 -0.072,-0.0509 -0.13844,-0.14121 -0.19643,-0.26701 -0.0703,-0.1524 -0.13447,-0.32985 -0.14747,-0.40744 -0.006,-0.0337 -0.0167,-0.0658 -0.0246,-0.0712 -0.0191,-0.0133 -0.1892,0.11983 -0.19992,0.15647 -0.005,0.0159 -0.0372,0.0646 -0.0723,0.10822 -0.0352,0.0437 -0.064,0.0853 -0.0641,0.0928 -2.4e-4,0.007 -0.026,0.0454 -0.0575,0.0842 l -0.0573,0.0708 -0.0254,0.11216 -0.0254,0.11215 0.0177,0.0922 c 0.0183,0.0953 0.0388,0.36473 0.034,0.44389 -0.005,0.0812 -0.003,0.0976 0.023,0.24352 0.0143,0.0793 0.0262,0.18286 0.0262,0.22999 v 0.0857 h -0.41906 -0.41908 l 5.8e-4,-0.0767 z m 0.44531,-2.28978 -0.008,-0.0237 -7.9e-4,0.0345 c -5.7e-4,0.019 0.003,0.0297 0.008,0.0237 0.006,-0.006 0.006,-0.0215 7.9e-4,-0.0345 z m -0.0506,-0.25723 c -0.0226,-0.0774 -0.041,-0.15513 -0.041,-0.17258 v -0.0318 l 0.0888,-0.10433 0.0888,-0.10433 -0.01,-0.0335 c -0.0366,-0.12942 -0.0333,-0.28101 0.01,-0.41248 l 0.0317,-0.098 0.0406,-0.0397 0.0406,-0.0396 v -0.0388 -0.0389 l -0.0242,0.0105 -0.0242,0.0105 -0.12204,-0.12285 c -0.0672,-0.0675 -0.14321,-0.15861 -0.16907,-0.20234 l -0.0471,-0.0794 0.008,-0.0297 0.008,-0.0297 -0.0811,-0.086 c -0.0446,-0.0474 -0.0811,-0.0931 -0.0811,-0.10168 0,-0.009 -0.0352,-0.0742 -0.0782,-0.14582 -0.0429,-0.0717 -0.0827,-0.14437 -0.0882,-0.16173 -0.006,-0.0172 -0.0204,-0.0316 -0.033,-0.0316 h -0.023 l 0.0959,0.41939 c 0.0528,0.23068 0.11802,0.51275 0.14513,0.62684 0.0271,0.11411 0.0622,0.26427 0.0782,0.33371 0.0159,0.0695 0.0696,0.30205 0.11923,0.51687 0.0497,0.21483 0.0914,0.39748 0.0928,0.40587 7.9e-4,0.009 0.006,-0.006 0.008,-0.0311 l 0.006,-0.0463 z" />
      <path
         d="m 524.45885,-114.634 -0.37035,-1.69805 0.0284,0.11216 0.20942,0.0258 0.23614,0.0153 0.3306,-0.005 0.22475,-0.0124 0.317,0.007 0.25268,-0.0371 0.23745,0.005 0.12811,0.007 0.12541,0.0438 0.10799,0.0745 0.11084,0.12601 0.19061,0.117 0.12414,0.11448 0.17687,0.14303 0.15359,0.0759 0.11477,0.0599 0.072,0.11029 0.0344,0.22419 0.0755,-0.0858 0.0571,-0.28672 0.0308,-0.27493 -0.021,-0.29252 -0.0255,-0.22314 -0.0483,-0.1272 -0.10717,-0.12299 -0.0884,-0.0712 -0.0603,-0.083 -0.012,-0.0871 0.0246,-0.11015 0.0446,-0.0894 0.0352,-0.11268 0.0188,-0.14265 -0.0178,-0.12846 -0.0536,-0.10262 -0.0664,-0.0604 -0.13635,-0.15355 -0.0205,-0.0938 -0.10515,-0.007 -0.12935,-0.0345 -0.16967,-0.024 -0.22374,-0.0139 -0.18249,-0.0378 -0.14167,-0.0615 -0.11393,-0.0733 -0.11445,-0.0598 -0.11762,-0.021 -0.22374,-0.0143 -0.23513,-0.0409 -0.24681,-0.0681 -0.1515,-0.10211 -0.11341,-0.0864 -0.1641,-0.1164 -0.17805,-0.10383 -0.1787,-0.10274 -0.13979,-0.0753 -0.20458,-0.10475 -0.19187,-0.1046 -0.20064,-0.17099 -0.0358,-0.0627 1.04634,4.72083 0.005,0.11032 c 0,0 -0.0284,0.11924 0.0339,0.12712 0.15253,0.72698 0.80603,3.77753 0.84812,3.92302 l 0.0982,-0.0842 -0.77439,-3.54405 z"
         id="path159455-4-9-67"
         inkscape:transform-center-x="-1.948969"
         inkscape:transform-center-y="4.1298977" />
      <path
         d="m 529.88829,-115.80355 c 0.006,2.4e-4 0.0114,0.001 0.0177,0.003 0.0365,0.009 0.0401,0.0191 0.0505,0.13712 0.01,0.11746 0.0141,0.12796 0.0498,0.13694 0.0226,0.006 0.0426,0.025 0.0479,0.0466 0.009,0.0363 0.09,0.0867 0.13925,0.0867 0.0136,0 0.0326,0.0147 0.0422,0.0326 0.021,0.0392 0.0265,0.25853 0.008,0.32326 -0.01,0.0367 -0.007,0.0506 0.0168,0.068 0.029,0.0212 0.0283,0.0267 -0.0214,0.17617 -0.0294,0.088 -0.0586,0.21905 -0.0681,0.30502 -0.0256,0.23203 -0.0412,0.28047 -0.14696,0.46001 -0.11605,0.19687 -0.21557,0.32499 -0.44293,0.57036 l -0.16736,0.18064 -0.0269,0.15285 c -0.0148,0.0841 -0.0401,0.19395 -0.0563,0.24417 -0.0164,0.0513 -0.0229,0.0952 -0.0148,0.10024 0.008,0.005 0.01,0.0253 0.006,0.0454 -0.007,0.0314 4e-4,0.0404 0.0596,0.064 0.0378,0.0151 0.0969,0.0323 0.13145,0.0382 0.061,0.0104 0.0634,0.0133 0.0824,0.0978 0.0537,0.23778 0.0929,0.5123 0.0786,0.5494 -0.005,0.0121 -0.0223,0.022 -0.0392,0.022 -0.0232,0 -0.0288,0.008 -0.0223,0.0325 0.006,0.0208 -0.005,0.0465 -0.0278,0.0711 l -0.0363,0.0386 0.0415,0.13139 c 0.0564,0.17898 0.12223,0.47888 0.12223,0.55715 0,0.0616 -0.02,0.13509 -0.10525,0.38821 -0.0315,0.0939 -0.0361,0.12631 -0.0237,0.17468 0.0217,0.0853 0.038,0.31747 0.0366,0.51934 -9.3e-4,0.16739 6.8e-4,0.17746 0.049,0.26178 0.0276,0.0482 0.0879,0.12862 0.13377,0.17863 0.0917,0.0999 0.10758,0.13839 0.0934,0.22744 0,0 -0.10235,0.0567 -0.2683,0.053 -0.0203,-0.008 -0.0852,-0.0959 -0.0802,-0.10406 0,0 -0.10982,-0.0908 -0.17965,-0.15713 -0.0579,-0.055 -0.0684,-0.0745 -0.0684,-0.12704 0,-0.0341 0.008,-0.0886 0.0165,-0.12109 0.0124,-0.0447 0.0112,-0.0794 -0.007,-0.14293 -0.0128,-0.0461 -0.0424,-0.19109 -0.0655,-0.3221 -0.0587,-0.33202 -0.0737,-0.37281 -0.1526,-0.4182 -0.063,-0.0362 -0.0643,-0.0388 -0.0581,-0.11116 0.006,-0.0644 -3.8e-4,-0.0832 -0.0459,-0.14352 -0.0288,-0.0382 -0.0641,-0.11167 -0.0786,-0.16333 l -0.0265,-0.0939 -0.0306,0.0839 c -0.0167,0.0462 -0.0344,0.1018 -0.0395,0.12363 -0.005,0.0218 -0.0253,0.0576 -0.0455,0.0794 -0.0201,0.0218 -0.0478,0.0683 -0.0616,0.10322 -0.0138,0.0349 -0.046,0.0775 -0.0716,0.0946 -0.0255,0.0171 -0.0425,0.0375 -0.0377,0.0452 0.005,0.008 9.4e-4,0.0295 -0.008,0.0483 -0.0356,0.0763 -0.0501,0.17192 -0.0585,0.38359 -0.005,0.12228 -0.017,0.27235 -0.0268,0.33349 -0.01,0.0611 -0.0177,0.23051 -0.0173,0.37639 9.4e-4,0.28295 9.4e-4,0.28111 -0.0836,0.31103 -0.23011,0.0812 -0.52523,0.11409 -0.73184,-0.0157 0.0135,-0.0846 0.0232,-0.0955 0.13129,-0.14841 0.049,-0.0239 0.13458,-0.0871 0.19038,-0.14048 0.11733,-0.11216 0.1058,-0.0569 0.12515,-0.60364 0.006,-0.17385 0.016,-0.33372 0.0217,-0.35527 0.013,-0.0487 -0.0307,-0.19606 -0.10313,-0.34748 -0.03,-0.0625 -0.0544,-0.13644 -0.0544,-0.16432 0,-0.0279 0.0294,-0.14825 0.0655,-0.26749 0.12623,-0.41852 0.11881,-0.38494 0.0887,-0.40176 -0.0781,-0.0437 -0.0617,-0.14948 0.0863,-0.5565 l 0.08,-0.21988 -0.0238,-0.0831 c -0.0131,-0.0457 -0.0339,-0.14026 -0.0462,-0.21014 l -0.0223,-0.12704 -0.0203,0.0715 c -0.0112,0.0393 -0.0256,0.0786 -0.0321,0.0873 -0.007,0.009 -0.0211,0.05 -0.0325,0.0917 -0.0112,0.0417 -0.0261,0.0793 -0.033,0.0836 -0.007,0.004 -0.0244,0.0437 -0.039,0.0877 -0.0146,0.044 -0.0509,0.11187 -0.0806,0.1508 -0.0297,0.0389 -0.054,0.0765 -0.054,0.0835 0,0.007 -0.0466,0.0579 -0.10357,0.11324 -0.0569,0.0553 -0.13698,0.14603 -0.17776,0.20158 -0.0408,0.0556 -0.0838,0.10102 -0.0956,0.10102 -0.0238,0 -0.16294,0.1408 -0.16294,0.16492 0,0.008 -0.0112,0.0272 -0.0241,0.0419 -0.0351,0.0387 -0.17461,0.0103 -0.20933,-0.0427 -0.0539,-0.0824 0.0112,-0.20827 0.12136,-0.23585 0.0483,-0.012 0.0962,-0.0521 0.0962,-0.0804 0,-0.011 0.0179,-0.0414 0.0397,-0.0673 0.0218,-0.0259 0.0397,-0.0537 0.0397,-0.0616 0,-0.008 0.0205,-0.0426 0.0456,-0.0771 0.025,-0.0345 0.0506,-0.0913 0.0569,-0.12621 0.006,-0.0349 0.0281,-0.0957 0.0486,-0.13499 0.0204,-0.0393 0.0467,-0.0992 0.0582,-0.13303 0.0115,-0.0339 0.0298,-0.065 0.0408,-0.0692 0.0112,-0.004 0.02,-0.0197 0.02,-0.0345 0,-0.0148 0.006,-0.0337 0.0131,-0.042 0.007,-0.008 0.0265,-0.0579 0.043,-0.11036 0.0164,-0.0524 0.0424,-0.10967 0.0577,-0.12723 0.0153,-0.0176 0.0325,-0.064 0.0383,-0.10322 0.006,-0.0392 0.0235,-0.0999 0.0394,-0.1348 0.0159,-0.0349 0.041,-0.0975 0.056,-0.13896 0.0149,-0.0415 0.0331,-0.0754 0.0406,-0.0754 0.007,0 0.0314,-0.0272 0.0536,-0.0605 0.0306,-0.0461 0.0761,-0.0788 0.19171,-0.13731 0.13792,-0.0699 0.15515,-0.0837 0.19016,-0.15276 0.0212,-0.0418 0.0443,-0.0795 0.0512,-0.0838 0.0254,-0.0157 0.006,-0.14358 -0.0306,-0.19177 -0.0238,-0.0324 -0.0378,-0.0776 -0.0421,-0.13741 -0.006,-0.0821 -9.4e-4,-0.0981 0.0619,-0.20362 0.13086,-0.21941 0.2073,-0.25686 0.39176,-0.19202 0.12438,0.0437 0.14691,0.0703 0.15533,0.18371 0.005,0.0518 0.0112,0.11707 0.0158,0.14512 0.007,0.0382 6.7e-4,0.0592 -0.0236,0.0834 -0.0306,0.0306 -0.0313,0.0344 -0.006,0.031 0.0279,-0.004 0.0329,0.0528 0.0137,0.16064 -0.0116,0.0653 -0.0261,0.13111 -0.0322,0.14627 -0.0176,0.0438 0.0563,0.0645 0.12609,0.0354 0.0306,-0.0128 0.0766,-0.0232 0.10224,-0.0232 0.0379,0 0.0751,-0.0288 0.19899,-0.15387 0.0839,-0.0846 0.15237,-0.16234 0.15237,-0.17273 0,-0.0104 0.01,-0.0271 0.0219,-0.037 0.0242,-0.0201 0.1687,-0.26324 0.1687,-0.2839 0,-0.007 0.0339,-0.077 0.0755,-0.15527 0.0415,-0.0782 0.0887,-0.17434 0.1049,-0.21361 0.0163,-0.0393 0.0371,-0.0893 0.0465,-0.11109 0.032,-0.0753 0.0276,-0.14314 -0.0134,-0.20803 -0.0275,-0.0437 -0.0503,-0.0619 -0.0768,-0.0619 -0.0304,0 -0.0391,-0.01 -0.0453,-0.0516 -0.0143,-0.0984 -0.013,-0.51228 9.3e-4,-0.53417 0.007,-0.0106 0.0199,-0.0156 0.0364,-0.0149 z"
         id="path8486-3-5" />
    </g>
  </g>
</svg>
