<?xml version="1.0" encoding="UTF-8" standalone="no"?>
<!-- Created with Inkscape (http://www.inkscape.org/) -->

<svg
   width="13.446646mm"
   height="6.3780303mm"
   viewBox="0 0 13.446646 6.3780303"
   version="1.1"
   id="svg1"
   sodipodi:docname="inkporter-svg-z0ijwbjg.svg"
   xmlns:inkscape="http://www.inkscape.org/namespaces/inkscape"
   xmlns:sodipodi="http://sodipodi.sourceforge.net/DTD/sodipodi-0.dtd"
   xmlns="http://www.w3.org/2000/svg"
   xmlns:svg="http://www.w3.org/2000/svg">
  <sodipodi:namedview
     id="namedview1"
     pagecolor="#ffffff"
     bordercolor="#666666"
     borderopacity="1.0"
     inkscape:showpageshadow="2"
     inkscape:pageopacity="0.0"
     inkscape:pagecheckerboard="0"
     inkscape:deskcolor="#d1d1d1"
     inkscape:document-units="mm"
     inkscape:zoom="3.2729938"
     inkscape:cx="356.096"
     inkscape:cy="612.43623"
     inkscape:window-width="3840"
     inkscape:window-height="2066"
     inkscape:window-x="2869"
     inkscape:window-y="-11"
     inkscape:window-maximized="1"
     inkscape:current-layer="layer1" />
  <defs
     id="defs1" />
  <g
     inkscape:label="Layer 1"
     inkscape:groupmode="layer"
     id="layer1"
     transform="translate(-89.142236,-201.31774)">
    <g
       id="S-Infantrys4b-Pf"
       transform="matrix(1.029951,0,0,1.029951,-366.65053,268.31754)"
       inkscape:transform-center-x="-3.69653"
       inkscape:transform-center-y="-2.973283">
      <path
         d="m 445.52843,-63.218512 -1.32596,1.240979 -0.0157,-0.01938 0.0419,-0.03856 0.007,0.0028 0.0201,-0.02034 -0.0546,-0.0567 -0.0209,0.01857 0.0245,0.02637 -0.0414,0.03869 -0.006,-0.0028 -0.0425,0.03978 -0.008,-0.0035 -0.0291,0.02616 0.009,0.0035 -0.3516,0.328912 -0.0123,-0.0049 -0.0278,0.0267 0.012,0.0047 -0.0517,0.04809 0.0455,0.04795 -0.44071,0.411951 c -0.0227,0.0047 -0.0608,0.0093 -0.12485,0.04168 -0.061,0.0308 -0.18814,0.09336 -0.28725,0.142063 -0.0793,0.03833 -0.14031,0.06913 -0.14031,0.06913 l -0.021,0.01865 -0.002,0.0127 -0.0432,0.04057 -0.0242,0.07263 -0.0764,0.238508 c 0,0 -0.0171,0.05932 0.0356,0.11555 l 0.002,6.96e-4 c 0.0523,0.05723 0.11242,0.04519 0.11242,0.04519 l 0.24282,-0.06 0.0743,-0.01871 0.044,-0.04038 0.0152,-0.0075 0.0199,-0.01905 c 0,0 0.0346,-0.05904 0.0776,-0.134624 0.0555,-0.09649 0.12674,-0.219088 0.1616,-0.277456 0.0367,-0.0609 0.0469,-0.09997 0.0494,-0.121126 l 2.26936,-2.123304 z"
         id="path214"
         style="stroke-width:0.592799" />
      <path
         d="m 448.38376,-60.938779 0.11114,-1.812685 0.0247,0.0037 -0.004,0.05674 -0.007,0.0029 -7.9e-4,0.02863 0.0787,0.0041 0.003,-0.02769 -0.036,-0.002 0.003,-0.05653 0.006,-0.0025 0.004,-0.05804 0.008,-0.0032 0.003,-0.03901 -0.009,0.0037 0.03,-0.480531 0.0122,-0.0049 0.002,-0.03847 -0.012,0.0046 0.005,-0.07046 -0.0661,-0.0037 0.0372,-0.602124 c 0.0132,-0.01901 0.0379,-0.04853 0.0624,-0.115918 0.0231,-0.06434 0.0725,-0.197096 0.11122,-0.300543 0.0314,-0.08225 0.0545,-0.146622 0.0545,-0.146622 l 0.003,-0.02773 -0.008,-0.01041 0.003,-0.0592 -0.0324,-0.0694 -0.10829,-0.225827 c 0,0 -0.0283,-0.05481 -0.10519,-0.05955 l -0.003,8.85e-4 c -0.0773,-0.0059 -0.11272,0.04434 -0.11272,0.04434 l -0.13531,0.210382 -0.0411,0.06462 -0.004,0.05952 -0.005,0.01608 -10e-4,0.02746 c 0,0 0.0154,0.06665 0.0361,0.151109 0.0261,0.108259 0.0584,0.246279 0.0731,0.312648 0.0152,0.06939 0.0345,0.104872 0.0473,0.121912 l -0.19068,3.101934 z"
         id="path217"
         style="stroke-width:0.592799" />
      <path
         d="m 446.9057,-61.409364 1.15136,-1.404468 0.0179,0.01753 -0.0363,0.04375 -0.007,-0.0016 -0.0172,0.02283 0.0614,0.04932 0.0186,-0.02108 -0.028,-0.02264 0.0359,-0.04382 0.006,0.0015 0.0369,-0.04489 0.009,0.0024 0.0254,-0.02974 -0.01,-0.0025 0.30562,-0.372017 0.0129,0.0031 0.0238,-0.03015 -0.0124,-0.0033 0.045,-0.05443 -0.0514,-0.0416 0.3827,-0.466345 c 0.0219,-0.0076 0.0591,-0.0172 0.11835,-0.05769 0.0565,-0.03853 0.1742,-0.117294 0.26611,-0.178561 0.0736,-0.04837 0.13001,-0.08697 0.13001,-0.08697 l 0.0186,-0.0211 -5.3e-4,-0.01314 0.0374,-0.04603 0.0144,-0.07521 0.0445,-0.246464 c 0,0 0.009,-0.06101 -0.0505,-0.109842 l -0.002,-1.59e-4 c -0.0592,-0.05011 -0.11735,-0.03006 -0.11735,-0.03006 l -0.23284,0.09138 -0.0712,0.02834 -0.0383,0.04578 -0.0143,0.0094 -0.0176,0.02132 c 0,0 -0.0269,0.06288 -0.0588,0.143825 -0.0421,0.103042 -0.0969,0.233821 -0.12379,0.296265 -0.0289,0.06489 -0.0335,0.105228 -0.033,0.126571 l -1.97065,2.403105 z"
         id="path218"
         style="stroke-width:0.592799" />
      <g
         id="g242">
        <path
           style="fill:#000000;stroke-width:0.0288739"
           d="m 450.17792,-58.979779 c -0.0665,-0.06644 -0.0258,-0.149084 0.14499,-0.295016 0.23658,-0.202108 0.24984,-0.25278 0.1837,-0.701642 -0.0516,-0.35034 -0.0955,-0.478534 -0.28091,-0.820358 -0.0438,-0.08066 -0.0402,-0.1006 0.0884,-0.490857 0.1356,-0.411548 0.18921,-0.616386 0.1905,-0.727894 6.5e-4,-0.05222 -0.0217,-0.06419 -0.15089,-0.08127 -0.0834,-0.01101 -0.21333,-0.04018 -0.28881,-0.06482 -0.0755,-0.02464 -0.16184,-0.03836 -0.19193,-0.03049 -0.091,0.02379 -0.26808,-0.09654 -0.30871,-0.209725 -0.0455,-0.126645 -0.0495,-0.247117 -0.0108,-0.319511 0.037,-0.06919 0.0348,-0.06914 -0.14912,0.0033 -0.1732,0.06827 -0.32337,0.0655 -0.33694,-0.0062 -0.005,-0.02857 0.0156,-0.05592 0.052,-0.06744 0.0336,-0.01065 0.073,-0.05074 0.0876,-0.08909 0.0299,-0.07871 0.0635,-0.08791 0.11119,-0.03046 0.0272,0.03274 0.0757,0.02708 0.29227,-0.03412 0.15008,-0.0424 0.2597,-0.08867 0.2597,-0.109607 0,-0.01993 0.0422,-0.04031 0.0938,-0.04528 l 0.0938,-0.009 0.0164,-0.202118 c 0.0136,-0.167802 0.008,-0.212003 -0.0348,-0.260346 -0.0608,-0.06917 -0.16834,-0.397805 -0.16887,-0.5159 -5.4e-4,-0.125011 0.0614,-0.306644 0.11424,-0.334926 0.0257,-0.01375 0.11652,-0.02273 0.20184,-0.01995 l 0.15514,0.0051 0.0602,0.178434 c 0.0331,0.09814 0.0699,0.188008 0.0818,0.19971 0.0119,0.0117 0.0216,0.06995 0.0216,0.129434 0,0.10459 0.007,0.112431 0.22467,0.237744 0.24542,0.141558 0.45514,0.345597 0.48605,0.472894 0.0109,0.04461 0.0632,0.123963 0.11647,0.17634 0.0532,0.05237 0.0968,0.108055 0.0968,0.12373 0,0.01812 0.0206,0.01745 0.0567,-0.0018 0.049,-0.02622 0.0726,-0.01023 0.1734,0.117259 0.16636,0.21047 0.1923,0.360227 0.0716,0.413429 -0.0581,0.02561 -0.0582,0.02793 -0.007,0.178983 0.0586,0.173611 0.0412,0.259147 -0.0705,0.347098 -0.038,0.02988 -0.1247,0.170519 -0.19278,0.312539 -0.15836,0.330287 -0.41301,0.608667 -0.59983,0.655711 -0.0684,0.01723 -0.12442,0.04733 -0.12442,0.06688 0,0.01956 0.0789,0.104193 0.17537,0.188085 0.0965,0.08389 0.2094,0.206029 0.25099,0.271414 0.0416,0.06538 0.10538,0.151835 0.14173,0.192111 0.0363,0.04028 0.0742,0.113782 0.0841,0.163345 0.0151,0.0754 0.006,0.09803 -0.056,0.138596 -0.0407,0.02667 -0.0874,0.04017 -0.10387,0.03001 -0.0165,-0.01016 -0.0807,0.03659 -0.14285,0.103877 -0.10929,0.118361 -0.11293,0.1289 -0.1117,0.323796 6.8e-4,0.162894 -0.009,0.208854 -0.0516,0.240121 -0.0291,0.02127 -0.0708,0.03867 -0.0926,0.03867 -0.0219,0 -0.0811,0.03121 -0.13163,0.06935 -0.16224,0.122408 -0.43994,0.170416 -0.52039,0.08997 z"
           id="path234" />
        <path
           style="fill:#000000;stroke-width:0.0288739"
           d="m 446.05894,-58.962472 c 0.034,-0.03403 0.0206,-0.241011 -0.021,-0.321453 -0.0528,-0.10225 -0.1417,-0.459231 -0.12225,-0.49069 0.008,-0.0135 0.003,-0.182556 -0.0115,-0.375676 -0.0237,-0.312537 -0.0489,-0.442199 -0.14305,-0.736817 -0.0201,-0.06282 -0.0133,-0.102554 0.0299,-0.173243 0.0664,-0.108964 0.07,-0.182835 0.016,-0.329351 -0.11433,-0.310083 -0.16872,-0.534413 -0.17688,-0.729651 -0.0108,-0.257629 -0.0649,-0.652463 -0.10183,-0.743503 -0.0145,-0.03573 -0.0488,-0.06497 -0.0761,-0.06497 -0.0736,0 -0.0128,-0.04501 0.1168,-0.08649 0.0647,-0.02068 0.17706,-0.1006 0.26709,-0.189911 0.16119,-0.15991 0.1859,-0.232012 0.12498,-0.364689 -0.0397,-0.0864 -0.27429,-0.239919 -0.43493,-0.284584 -0.0696,-0.01935 -0.17851,-0.05853 -0.24203,-0.08706 -0.21149,-0.09499 -0.35723,-0.09711 -0.71464,-0.01039 l -0.0794,0.01926 0.014,-0.188608 c 0.0163,-0.219366 -0.0326,-0.368658 -0.14484,-0.442179 -0.0625,-0.04094 -0.0959,-0.04307 -0.23583,-0.01497 -0.24997,0.0502 -0.26172,0.06944 -0.25418,0.416132 0.005,0.232521 0.0202,0.327166 0.0717,0.446447 0.0612,0.141949 0.0623,0.155816 0.0185,0.222757 -0.0257,0.03926 -0.0703,0.08396 -0.099,0.09933 -0.0426,0.02279 -0.0534,0.06958 -0.0586,0.253662 -0.008,0.272038 0.0674,0.583758 0.21382,0.888139 0.0852,0.177137 0.0963,0.221876 0.0711,0.288037 -0.0164,0.04308 -0.0298,0.124459 -0.0298,0.180842 0,0.08276 -0.0223,0.122864 -0.1155,0.208088 -0.1275,0.116548 -0.14492,0.198669 -0.0587,0.276713 0.043,0.03894 0.05,0.06417 0.0287,0.103995 -0.0634,0.118385 -0.0931,0.441404 -0.0866,0.939391 0.008,0.590387 -0.005,0.642632 -0.19377,0.780589 -0.14347,0.104973 -0.18049,0.152543 -0.18049,0.231882 0,0.133811 0.25854,0.112031 0.41736,-0.03516 0.0421,-0.03898 0.1058,-0.07087 0.14164,-0.07087 0.0358,0 0.0904,-0.0185 0.12123,-0.04111 0.0602,-0.04417 0.0574,-0.01217 0.0788,-0.882861 0.008,-0.328564 0.0192,-0.408244 0.0707,-0.507225 0.0336,-0.06458 0.0816,-0.134434 0.10663,-0.155219 0.0251,-0.02078 0.0936,-0.117365 0.15226,-0.214623 0.14529,-0.240693 0.36692,-0.51548 0.3808,-0.472118 0.006,0.01948 0.0337,0.0679 0.0612,0.107608 0.0274,0.0397 0.0594,0.104667 0.0711,0.144368 0.0117,0.0397 0.057,0.150145 0.1006,0.245428 0.0436,0.09529 0.10328,0.249355 0.13261,0.342381 0.0293,0.09303 0.0691,0.175217 0.0885,0.182648 0.0381,0.01463 0.0706,0.139595 0.14102,0.543307 0.0249,0.142925 0.0587,0.298844 0.0751,0.346487 0.0163,0.04764 0.0419,0.151588 0.0566,0.230991 0.0766,0.411027 0.14601,0.534167 0.30103,0.534167 0.0505,0 0.10044,-0.0087 0.11102,-0.01925 z"
           id="path236" />
        <path
           id="path237"
           style="fill:#000000;stroke-width:0.0288739"
           d="m 449.02647,-58.954151 c 0.0808,-0.03261 0.0365,-0.168359 -0.10352,-0.316666 -0.16917,-0.179234 -0.19474,-0.265673 -0.23375,-0.790293 -0.0159,-0.214389 -0.0483,-0.441771 -0.072,-0.505293 -0.0544,-0.146023 -0.0563,-0.270853 -0.006,-0.390146 0.0355,-0.08452 0.0317,-0.119155 -0.0393,-0.357021 -0.0476,-0.159414 -0.0868,-0.377329 -0.0994,-0.551918 -0.0114,-0.158673 -0.0338,-0.304198 -0.0497,-0.323391 -0.0292,-0.03521 -0.0468,-0.420418 -0.0228,-0.498701 0.007,-0.02415 -0.0149,-0.05492 -0.052,-0.07181 -0.0539,-0.02452 -0.0649,-0.05256 -0.0649,-0.16456 0,-0.105811 0.0218,-0.168183 0.10107,-0.288452 0.0556,-0.0844 0.10106,-0.175402 0.10106,-0.202232 0,-0.02683 0.01,-0.05311 0.0216,-0.0584 0.0688,-0.03056 0.23821,-0.34129 0.23821,-0.436825 0,-0.1469 -0.27673,-0.29107 -0.55583,-0.289578 -0.1072,5.46e-4 -0.1949,-0.0022 -0.1949,-0.0061 0,-0.0039 0.0257,-0.06377 0.0571,-0.132989 0.11264,-0.248213 0.0505,-0.48693 -0.15191,-0.582943 -0.17586,-0.08346 -0.31659,-0.04876 -0.53059,0.130802 l -0.12008,0.10077 0.0557,0.124359 c 0.0679,0.151667 0.0499,0.243332 -0.0416,0.212153 -0.0345,-0.01174 -0.3917,-0.01765 -0.79388,-0.01315 -0.65518,0.0073 -0.73691,0.0031 -0.78555,-0.04094 -0.05,-0.04523 -0.058,-0.04543 -0.10094,-0.0025 -0.0257,0.02566 -0.0768,0.04664 -0.11368,0.04664 -0.0762,0 -0.11581,0.06821 -0.0643,0.110797 0.0189,0.01562 0.24658,0.03281 0.50593,0.03821 0.40937,0.0085 0.47647,0.0165 0.50862,0.06051 0.0356,0.04876 0.0268,0.153646 -0.0277,0.328929 -0.0219,0.07027 0.0565,0.212283 0.11722,0.212283 0.0209,0 0.0679,0.04196 0.10442,0.09325 0.0531,0.07455 0.0647,0.124089 0.058,0.247032 -0.007,0.135701 0.004,0.172255 0.0959,0.310981 0.0574,0.08646 0.11925,0.157204 0.13746,0.157204 0.024,0 0.0236,0.0095 -10e-4,0.03465 -0.0191,0.01906 -0.0346,0.06211 -0.0346,0.09566 0,0.03355 -0.039,0.09835 -0.0866,0.143997 -0.0477,0.04564 -0.0866,0.09749 -0.0866,0.115209 0,0.01772 0.04,0.08666 0.089,0.153192 0.0939,0.127755 0.0968,0.209708 0.0133,0.381263 -0.0193,0.0397 -0.0721,0.199565 -0.11726,0.355253 -0.0909,0.313426 -0.0845,0.377683 0.0605,0.603059 0.0632,0.09836 0.0654,0.113894 0.0285,0.202403 -0.0309,0.07403 -0.0365,0.198437 -0.0241,0.54616 0.0201,0.569377 0.008,0.632072 -0.15281,0.804227 -0.0953,0.10189 -0.128,0.160057 -0.128,0.227695 0,0.08698 0.005,0.09085 0.11739,0.09085 0.14517,0 0.22379,-0.04003 0.25863,-0.131688 0.0166,-0.04365 0.0497,-0.07043 0.0871,-0.07043 0.0332,0 0.0859,-0.01364 0.11701,-0.03032 0.049,-0.02624 0.0541,-0.0496 0.0377,-0.173322 -0.0105,-0.07869 -0.005,-0.198153 0.0126,-0.265638 0.0173,-0.06745 0.0378,-0.261798 0.0454,-0.431885 0.008,-0.170088 0.0276,-0.334898 0.0444,-0.366244 0.0168,-0.03135 0.0305,-0.08384 0.0305,-0.116641 0,-0.0328 0.027,-0.08455 0.0602,-0.114988 0.0331,-0.03044 0.0977,-0.09076 0.14366,-0.134053 0.0517,-0.04871 0.11407,-0.165162 0.16363,-0.305506 0.044,-0.124738 0.0866,-0.226741 0.0945,-0.226674 0.0332,3.27e-4 0.147,0.20044 0.1977,0.347826 0.03,0.08728 0.1,0.229812 0.15542,0.316746 0.16774,0.262938 0.2155,0.380328 0.23493,0.577359 0.0102,0.103569 0.0397,0.278977 0.0655,0.389799 0.0258,0.110819 0.053,0.270065 0.0604,0.353879 0.0126,0.142861 0.0204,0.155955 0.12523,0.20943 0.0615,0.03137 0.12628,0.08409 0.14398,0.11715 0.0177,0.03306 0.0863,0.0847 0.15254,0.114767 0.1246,0.05657 0.15311,0.06146 0.21424,0.03681 z m -2.16298,-4.688248 c -0.0262,-0.0751 -0.037,-0.08228 -0.0762,-0.05053 -0.0328,0.02656 -0.0397,0.02708 -0.0246,0.0018 0.0116,-0.01935 -0.005,-0.09319 -0.0376,-0.164086 -0.0939,-0.206165 -0.0716,-0.226733 0.25127,-0.231574 0.13716,-0.002 0.15152,0.0037 0.15159,0.06075 2e-5,0.03843 -0.0233,0.07043 -0.0598,0.08201 -0.0352,0.01117 -0.0535,0.03537 -0.0446,0.05877 0.008,0.02188 0.003,0.04746 -0.0124,0.05685 -0.0152,0.0094 -0.0421,0.07477 -0.0599,0.145294 -0.0178,0.07052 -0.0379,0.128219 -0.0448,0.128219 -0.007,0 -0.0262,-0.03939 -0.043,-0.08754 z" />
        <path
           style="fill:#000000;stroke-width:0.0288739"
           d="m 443.89743,-62.583055 c 0,-0.01588 -0.0137,-0.02887 -0.0306,-0.02887 -0.0168,0 -0.0225,0.01299 -0.0127,0.02887 0.01,0.01588 0.0236,0.02887 0.0306,0.02887 0.007,0 0.0127,-0.013 0.0127,-0.02887 z"
           id="path238" />
        <path
           style="fill:#000000;stroke-width:0.0288739"
           d="m 445.11013,-61.386493 c 0,-0.02476 -0.013,-0.03698 -0.0289,-0.02717 -0.0159,0.0098 -0.0289,0.03007 -0.0289,0.04501 0,0.01494 0.013,0.02717 0.0289,0.02717 0.0159,0 0.0289,-0.02025 0.0289,-0.04501 z"
           id="path239" />
        <path
           style="fill:#000000;stroke-width:0.0288739"
           d="m 445.30249,-61.377566 c -0.008,-0.01985 -0.0145,-0.0036 -0.0145,0.0361 0,0.0397 0.007,0.05595 0.0145,0.0361 0.008,-0.01985 0.008,-0.05233 0,-0.07219 z"
           id="path240" />
        <path
           id="path242"
           style="fill:#000000;stroke-width:0.028598"
           d="m 453.03987,-58.885824 c -0.0511,-0.01463 -0.0929,-0.03804 -0.0929,-0.05204 0,-0.07485 0.0482,-0.117758 0.18123,-0.161365 0.0812,-0.02662 0.18222,-0.07261 0.22448,-0.102219 l 0.0769,-0.05383 -0.0863,-0.249576 c -0.0475,-0.137267 -0.10336,-0.26888 -0.12421,-0.292473 -0.0209,-0.0236 -0.0532,-0.100354 -0.0719,-0.170581 -0.0187,-0.07023 -0.0586,-0.158829 -0.0885,-0.196893 -0.0872,-0.11086 -0.0696,-0.279914 0.0636,-0.611417 0.0649,-0.161546 0.15444,-0.366238 0.19895,-0.454874 0.0715,-0.142477 0.077,-0.171483 0.0473,-0.250234 -0.0185,-0.04899 -0.0422,-0.08908 -0.0528,-0.08908 -0.0105,0 -0.0278,-0.04571 -0.0382,-0.101596 -0.0105,-0.05588 -0.0376,-0.108731 -0.0604,-0.117452 -0.0227,-0.0087 -0.0413,-0.0322 -0.0413,-0.05219 0,-0.01998 -0.0186,-0.05173 -0.0412,-0.07053 -0.0227,-0.01881 -0.0459,-0.06864 -0.0518,-0.110743 l -0.0104,-0.07655 -0.0331,0.07785 c -0.0193,0.04548 -0.0642,0.08566 -0.10801,0.09664 -0.17556,0.04406 -0.55927,-0.0589 -0.61624,-0.165373 -0.0164,-0.03052 -0.0411,-0.165467 -0.0549,-0.299875 -0.0195,-0.189318 -0.0162,-0.267853 0.0148,-0.348581 0.0221,-0.05731 0.0548,-0.162118 0.0729,-0.232898 0.0181,-0.07078 0.0574,-0.179366 0.0872,-0.241306 0.0758,-0.157229 0.069,-0.208662 -0.0502,-0.381777 -0.11312,-0.164247 -0.1035,-0.228773 0.0292,-0.195482 0.0487,0.01223 0.0977,0.06628 0.15224,0.167789 0.0981,0.182642 0.16227,0.203522 0.23065,0.07499 0.0274,-0.05163 0.0843,-0.129792 0.12638,-0.173706 0.064,-0.06681 0.10007,-0.07985 0.22118,-0.07985 0.11754,0 0.16124,0.01477 0.23256,0.07865 0.0914,0.08182 0.20976,0.374959 0.18135,0.449019 -0.009,0.02314 0.0126,0.05463 0.0512,0.07495 0.0366,0.01928 0.10369,0.06594 0.14909,0.103707 0.0616,0.05129 0.10278,0.06422 0.16256,0.05109 0.0642,-0.0141 0.0891,-0.0038 0.12594,0.0525 0.0443,0.06769 0.0559,0.06983 0.33791,0.06286 0.34614,-0.0085 0.43387,0.03055 0.46681,0.207987 0.0109,0.05833 0.0511,0.147402 0.0894,0.197931 0.0824,0.108472 0.11356,0.288525 0.0656,0.378252 -0.0278,0.05186 -0.0257,0.07297 0.0111,0.113617 0.0915,0.101111 0.0328,0.180979 -0.15962,0.217071 -0.081,0.0152 -0.0973,0.03059 -0.0965,0.09128 5.8e-4,0.06205 -0.0298,0.09745 -0.12256,0.141806 -0.005,0.0024 0.006,0.05479 0.0244,0.116426 0.0289,0.09677 0.0256,0.131303 -0.0248,0.253018 -0.0611,0.147375 -0.12169,0.479259 -0.11483,0.628332 0.002,0.04785 -0.0107,0.114484 -0.0287,0.148068 -0.0425,0.0794 -0.0148,0.147259 0.0685,0.168185 0.0365,0.0092 0.12279,0.07664 0.19156,0.149893 0.11069,0.117896 0.37662,0.362885 0.68038,0.626775 0.0556,0.04831 0.11837,0.12011 0.13948,0.159538 0.0362,0.06766 0.0298,0.0814 -0.11389,0.244662 -0.16461,0.187006 -0.27375,0.2452 -0.38239,0.203894 -0.10253,-0.03899 -0.11017,-0.07488 -0.0413,-0.194466 0.0719,-0.125042 0.0601,-0.234558 -0.0343,-0.314525 -0.0319,-0.02713 -0.0992,-0.08892 -0.14941,-0.13732 -0.14825,-0.142982 -0.28438,-0.233345 -0.39795,-0.26416 -0.22397,-0.06077 -0.45113,-0.313402 -0.55445,-0.616632 l -0.0454,-0.133155 -0.0983,0.08626 c -0.0541,0.04744 -0.11021,0.08626 -0.12484,0.08626 -0.0395,0 -0.096,0.118675 -0.0663,0.139476 0.014,0.0098 0.0425,0.08859 0.0635,0.1751 0.0209,0.08651 0.0626,0.2315 0.0925,0.3222 0.0978,0.296779 0.16249,0.773513 0.11305,0.833086 -0.038,0.04575 -0.64727,0.05616 -0.79602,0.01358 z m -0.13344,-3.155594 0.10065,-0.04206 -0.0657,-0.09379 c -0.0361,-0.05158 -0.0685,-0.09865 -0.0718,-0.104604 -0.003,-0.0059 -0.0636,0.0037 -0.13396,0.02136 -0.16216,0.04084 -0.32748,-0.0069 -0.38282,-0.110632 -0.0352,-0.06607 -0.0367,-0.06173 -0.0193,0.0572 0.0262,0.179899 0.0728,0.265994 0.15604,0.289069 0.12442,0.03447 0.31285,0.02699 0.41706,-0.01654 z m -0.36062,-0.949723 c 0.0478,-0.08109 0.0555,-0.118826 0.0334,-0.164439 -0.0283,-0.05833 -0.0288,-0.05827 -0.0307,0.0051 -8.4e-4,0.0354 -5.9e-4,0.07256 5.8e-4,0.0826 8.4e-4,0.01004 -0.01,0.02613 -0.0248,0.03574 -0.0292,0.0188 -0.0762,0.14619 -0.0539,0.14619 0.008,0 0.0413,-0.04736 0.0755,-0.10524 z" />
      </g>
    </g>
  </g>
</svg>
