<?xml version="1.0" encoding="UTF-8" standalone="no"?>
<!-- Created with Inkscape (http://www.inkscape.org/) -->

<svg
   width="7.6386995mm"
   height="10.648272mm"
   viewBox="0 0 7.6386995 10.648272"
   version="1.1"
   id="svg1"
   sodipodi:docname="inkporter-svg-iknbq28b.svg"
   xmlns:inkscape="http://www.inkscape.org/namespaces/inkscape"
   xmlns:sodipodi="http://sodipodi.sourceforge.net/DTD/sodipodi-0.dtd"
   xmlns="http://www.w3.org/2000/svg"
   xmlns:svg="http://www.w3.org/2000/svg">
  <sodipodi:namedview
     id="namedview1"
     pagecolor="#ffffff"
     bordercolor="#666666"
     borderopacity="1.0"
     inkscape:showpageshadow="2"
     inkscape:pageopacity="0.0"
     inkscape:pagecheckerboard="0"
     inkscape:deskcolor="#d1d1d1"
     inkscape:document-units="mm"
     inkscape:zoom="1.0293026"
     inkscape:cx="447.87605"
     inkscape:cy="570.77479"
     inkscape:window-width="1920"
     inkscape:window-height="1017"
     inkscape:window-x="-8"
     inkscape:window-y="-8"
     inkscape:window-maximized="1"
     inkscape:current-layer="layer1" />
  <defs
     id="defs1" />
  <g
     inkscape:label="Layer 1"
     inkscape:groupmode="layer"
     id="layer1"
     transform="translate(-104.775,-213.7152)">
    <g
       id="S-InfantryHQ3a-Pf"
       transform="translate(-351.67733,307.43296)">
      <path
         d="m 464.02986,-88.617341 c -0.0477,0.249597 -0.0597,0.515731 -0.22613,0.723476 -0.15165,0.260272 -0.38731,0.463114 -0.56982,0.694578 -0.0208,0.163084 -0.0739,0.321931 -0.0954,0.482721 -0.008,0.198703 0.36131,0.07721 0.29883,0.335842 0.0424,0.215437 0.11357,0.444802 -0.0402,0.595419 -0.0493,0.112168 0.0805,0.264667 0.0788,0.393528 0.098,0.246961 0.0338,0.4967 -0.0465,0.737352 -0.0618,0.278321 0.0386,0.565732 0.013,0.850107 -0.0894,0.298523 0.32103,0.413526 0.27599,0.688596 -0.20916,0.0907 -0.48343,0.04774 -0.63537,-0.126994 -0.0211,-0.223491 0.0535,-0.448669 -6.5e-4,-0.67712 -0.035,-0.227465 -0.0214,-0.481886 -0.14194,-0.683067 -0.13241,-0.123256 -0.0881,-0.336619 -0.21341,-0.487675 -0.048,-0.19652 -0.0754,0.227317 -0.17125,0.253945 -0.1457,0.176692 -0.21554,0.39117 -0.20424,0.628226 -0.024,0.308003 -0.0519,0.615349 -0.0479,0.924745 -0.14208,0.215779 -0.54245,0.196608 -0.77195,0.102923 -0.0879,-0.206941 0.42352,-0.242028 0.38991,-0.51328 0.01,-0.282492 0.0332,-0.567485 0.031,-0.848416 -0.0879,-0.238154 -0.21761,-0.476738 -0.0728,-0.72578 0.0767,-0.182472 0.10186,-0.339662 0.0356,-0.505853 0.0381,-0.223493 0.15261,-0.433004 0.20387,-0.64855 -0.0411,-0.132581 -0.0648,-0.269514 -0.0882,-0.406078 -0.0942,0.3091 -0.21382,0.625656 -0.46557,0.842781 -0.15888,0.148107 -0.29512,0.405058 -0.49471,0.449019 -0.27797,-0.08646 -0.006,-0.299873 0.11304,-0.371975 0.14563,-0.19404 0.20883,-0.427466 0.30929,-0.645968 0.11552,-0.196553 0.17885,-0.426861 0.26005,-0.642599 0.0451,-0.291 0.39713,-0.305828 0.5197,-0.528036 0.11854,-0.205071 -0.1786,-0.465843 0.0713,-0.660417 0.12972,-0.276604 0.58642,-0.115904 0.51234,0.183488 -0.0378,0.149202 0.0143,0.290156 -0.0419,0.476549 0.25214,0.0711 0.45309,-0.175599 0.58372,-0.361221 0.17468,-0.237766 0.28876,-0.514859 0.41101,-0.782245 0.081,-0.446743 0.33498,-0.532516 0.22049,0.251979 z"
         id="path8486-3-50-2-4"
         sodipodi:nodetypes="csssscscssscscscssccscccsscccssccccc" />
      <path
         id="path12334-7-5-3-1"
         style="fill:#000000;stroke-width:0.0170511"
         d="m 458.731,-83.251367 c -0.0227,-0.20943 0.30533,-0.148965 0.36463,-0.318267 0.006,-0.212691 -0.0403,-0.439235 -0.0525,-0.652791 -0.097,-0.165356 -0.12868,-0.371662 -0.0226,-0.541212 0.22724,-0.327111 -0.16664,-0.576445 -0.14772,-0.931624 -0.1652,-0.77869 -0.36498,-1.550317 -0.53451,-2.327416 -0.22483,-0.09933 -0.11485,-0.395933 -0.13727,-0.59119 -0.043,-0.293211 -0.14088,-0.579615 -0.18673,-0.8738 -0.0792,-0.248534 -0.16459,-0.771287 -0.25658,-1.111351 -0.18485,-0.834277 -0.37128,-1.669306 -0.54039,-2.506229 -0.0965,-0.188149 -0.0707,-0.408811 -0.0458,-0.61202 0.15457,-0.01317 0.23094,0.241297 0.26149,0.374275 -0.0124,0.386256 0.13719,0.752737 0.203,1.129455 0.27595,1.227645 0.55748,2.454045 0.83296,3.68178 0.20798,0.04219 0.30374,0.323651 0.49784,0.422646 0.17712,0.164404 0.31028,0.392594 0.57168,0.434352 0.20568,0.179755 0.52911,0.08289 0.26325,-0.158937 0.0137,-0.210736 0.0808,-0.519335 0.243,-0.626481 0.1343,-0.02181 0.25697,0.08085 0.31522,0.29747 0.002,0.199471 0.0425,0.405073 -0.0598,0.58787 0.14292,0.142711 0.43752,0.139507 0.39567,0.4442 0.0827,0.12327 0.25423,0.373091 0.40898,0.3938 0.1317,-0.0306 0.15975,-0.211625 0.30353,-0.127652 0.21491,-0.159178 0.23214,0.209686 0.0614,0.246782 -0.19085,0.05853 -0.32643,0.154747 -0.26025,0.363736 0.007,0.233651 -0.35906,0.10534 -0.32954,0.266247 0.0798,0.175006 -0.22579,0.244819 -0.27621,0.09438 -0.0962,-0.0456 -0.0454,-0.367155 -0.14609,-0.232036 -0.18892,0.277436 0.33485,0.381521 0.17049,0.648756 -0.0255,0.02214 -0.0285,0.26151 0.0547,0.2403 -0.0347,0.376557 0.12388,0.737643 0.31598,1.055782 0.11984,0.288658 0.15844,0.592688 0.30603,0.861023 0.0845,0.227626 -0.17728,0.121843 -0.30176,0.144546 -0.16535,0.0047 -0.10833,-0.283812 -0.19276,-0.390882 -0.0954,-0.389814 -0.42262,-0.61988 -0.64888,-0.916645 -0.12343,-0.209007 -0.16896,-0.772183 -0.41899,-0.323959 -0.11197,0.162861 -0.25797,0.307382 -0.27197,0.513772 0.0479,0.324748 0.0347,0.66186 0.0936,0.987776 0.0677,0.213294 -0.19519,0.104493 -0.31841,0.130367 -0.17255,0 -0.3451,0 -0.51765,0 0.003,-0.02324 -0.004,-0.05788 0.003,-0.07682 z m 0.44531,-2.28978 c -0.0263,-0.09098 0.008,0.120728 0,0 z m -0.0506,-0.25723 c -0.15672,-0.194748 0.10263,-0.298313 0.1266,-0.44654 -0.0426,-0.194125 -0.0437,-0.453508 0.1229,-0.58978 -0.008,-0.106787 -0.25129,-0.174092 -0.31163,-0.341318 -0.0773,-0.154814 -0.11701,-0.274659 -0.24416,-0.41648 -0.097,-0.238466 -0.26365,-0.401044 -0.14839,-0.06656 0.15775,0.693711 0.32364,1.385543 0.48023,2.079519 0.0342,-0.07533 -0.0102,-0.145526 -0.0256,-0.21884 z" />
      <path
         d="m 458.45854,-88.581357 c -0.12345,-0.566017 -0.2469,-1.132033 -0.37035,-1.69805 -0.01,0.162278 0.16627,0.118257 0.27686,0.140489 0.36254,0.03235 0.72617,-0.01631 1.0888,-4.71e-4 0.22671,-0.03711 0.47014,-0.06013 0.69122,0.01 0.16439,0.06076 0.23627,0.241778 0.40195,0.304158 0.17536,0.137849 0.33245,0.305819 0.54719,0.385464 0.14708,0.05752 0.14868,0.233772 0.16916,0.36723 0.12811,-0.116689 0.10898,-0.311093 0.14349,-0.469716 0.0351,-0.241943 0.004,-0.492243 -0.0405,-0.729968 -0.0326,-0.196859 -0.30028,-0.250681 -0.30228,-0.454916 0.0435,-0.187824 0.16535,-0.369552 0.10709,-0.571135 -0.0424,-0.172057 -0.2646,-0.23909 -0.27854,-0.422575 -0.20922,-0.02275 -0.4143,-0.08384 -0.62791,-0.0794 -0.20729,-0.01611 -0.37611,-0.136316 -0.55254,-0.2324 -0.2688,-0.03824 -0.5438,-0.04554 -0.80277,-0.138634 -0.24328,-0.142239 -0.45575,-0.338726 -0.71238,-0.463154 -0.28286,-0.181055 -0.63517,-0.274452 -0.85019,-0.543606 -0.0273,-0.02011 0.0439,0.215188 0.0556,0.29593 0.32397,1.472053 0.65687,2.942923 0.97527,4.415715 0.001,0.261527 0.12457,0.499244 0.15541,0.772122 0.24161,1.123342 0.47641,2.248261 0.73072,3.368797 0.14755,-0.06042 0.0681,-0.196942 0.0481,-0.31352 -0.28332,-1.314336 -0.58229,-2.62543 -0.85337,-3.94235 z"
         id="path159455-4-9-67-0-0-6-2"
         inkscape:transform-center-x="-1.948969"
         inkscape:transform-center-y="4.1298977" />
      <path
         id="path5971-0-5-5-5"
         d="m 457.11897,-87.689819 0.0316,0.132795 c 0.0174,0.07305 0.0321,0.146732 0.0324,0.163771 4.5e-4,0.02447 -0.0142,0.03103 -0.07,0.03103 -0.0745,0 -0.0808,-0.0089 -0.0548,-0.07447 0.009,-0.02234 0.0261,-0.08848 0.0384,-0.146899 z m 0.60428,-0.625517 c -0.0888,0.0018 -0.18104,0.03679 -0.26499,0.106296 -0.0293,0.0242 -0.0671,0.04912 -0.0841,0.05523 -0.0202,0.0071 -0.031,0.02997 -0.031,0.06498 0,0.02979 -0.01,0.0547 -0.0222,0.05603 -0.0122,0.0018 -0.054,0.0035 -0.093,0.0062 -0.11607,0.0062 -0.19392,0.04965 -0.24107,0.135011 -0.0323,0.05833 -0.0557,0.07917 -0.0996,0.08812 -0.0777,0.01587 -0.10503,0.04184 -0.11826,0.112502 -0.006,0.03271 -0.0234,0.08422 -0.0386,0.1144 -0.0516,0.07766 -0.0398,0.07013 -0.0496,0.109443 -0.003,0.01108 -0.0129,0.0091 -0.0164,0.02358 -0.0607,0.258002 -0.0592,0.30349 0.0129,0.370548 0,0 0.0662,0.0789 0.23149,0.0789 v 0.0035 h 0.037 c 0.13599,0 0.15078,0.0027 0.14296,0.03103 -0.0215,0.07624 -0.0352,0.157787 -0.0319,0.190341 0.002,0.0195 -0.0129,0.06206 -0.0331,0.09479 -0.027,0.04388 -0.0457,0.05701 -0.0717,0.05018 -0.0384,-0.01002 -0.0989,0.06064 -0.0792,0.09251 0.006,0.0098 -0.0172,0.07704 -0.0516,0.149559 -0.0344,0.07252 -0.0626,0.141625 -0.0626,0.153585 0,0.01197 0.0292,0.04929 0.0649,0.08298 l 0.0649,0.06117 -0.0851,0.348101 c -0.0468,0.191466 -0.11219,0.451223 -0.14535,0.57721 -0.0815,0.309536 -0.2057,1.069191 -0.2057,1.123837 0,0.02429 0.008,0.04415 0.0176,0.04415 0.01,0 0.0389,0.02394 0.0649,0.0531 0.0261,0.02926 0.0575,0.0531 0.0698,0.0531 0.0123,0 0.0272,0.01489 0.033,0.03316 0.008,0.02624 0.0371,0.03635 0.13839,0.04858 0.0704,0.0089 0.15577,0.01551 0.18986,0.01551 l 0.062,1.95e-4 4.5e-4,0.08857 c 4.1e-4,0.04867 -0.0343,0.03669 -0.0258,0.06426 0.0133,0.0445 0.006,0.05895 -0.0621,0.12861 -0.0774,0.07881 -0.15487,0.113087 -0.25611,0.113282 -0.0795,2.04e-4 -0.12114,0.0383 -0.12363,0.113265 -0.002,0.0352 -0.002,0.06392 -2.1e-4,0.06392 7.5e-4,0 0.0669,0.008 0.14653,0.01817 0.11454,0.01436 0.17082,0.01268 0.27022,-0.008 0.0691,-0.01445 0.13719,-0.02172 0.15144,-0.01631 0.0142,0.0053 0.0259,0.0018 0.0259,-0.0092 0,-0.01179 0.0202,-0.01507 0.0528,-0.0089 0.0623,0.0125 0.14997,-0.03564 0.13519,-0.0742 -0.005,-0.01356 -0.003,-0.02846 0.004,-0.03325 0.008,-0.0044 0.0145,-0.0852 0.0152,-0.178851 7.4e-4,-0.09367 0.0463,-0.09962 0.0513,-0.104171 0.004,-0.0044 0.0506,-0.07968 0.1177,-0.08101 l 0.12181,-0.0027 c -0.0175,0.06856 0.008,0.0701 0.0183,0.124844 0.0108,0.0071 0.0357,0.108167 0.0352,0.137157 0.007,0.127228 -0.0314,0.07528 -0.0876,0.119979 -0.11575,0.0059 -0.0873,0.203477 -0.0933,0.219879 0.0205,0.0022 0.0203,0.0024 -0.002,0.0024 -0.0373,1.01e-4 0.0191,0.01694 0.0191,0.01694 v 0 c 0,0 0.20804,0.01067 0.32336,-0.0069 0.0491,-0.0075 0.0889,-0.02048 0.0952,-0.04551 0.005,-0.02089 0.0752,-0.0077 0.0973,-0.01622 0.0343,-0.01307 0.0217,-0.06167 0.0156,-0.149565 -0.004,-0.05674 -0.006,-0.144247 0.002,-0.166624 0.0105,-0.02748 0.007,-0.109152 -0.0114,-0.152712 -0.04,-0.09565 -0.023,-0.121583 0.0295,-0.158303 0.0349,-0.02447 0.0375,-0.120478 0.0375,-0.339059 -10e-6,-0.12885 -0.0111,-0.441444 -0.0245,-0.694632 -0.0135,-0.253205 -0.0268,-0.608894 -0.0295,-0.790449 -0.004,-0.259916 -0.011,-0.341708 -0.0331,-0.384653 -0.0208,-0.04016 -0.0252,-0.0797 -0.0169,-0.149665 0.009,-0.07819 0.006,-0.09714 -0.0175,-0.106173 -0.0205,-0.008 -0.0287,-0.03351 -0.0287,-0.08977 0,-0.07092 0.006,-0.08263 0.062,-0.117094 0.0341,-0.02101 0.062,-0.04628 0.062,-0.05603 0,-0.0098 0.0243,-0.07287 0.0538,-0.140268 0.0817,-0.186174 0.14627,-0.465142 0.13486,-0.582777 -0.008,-0.08422 -0.0182,-0.104923 -0.0736,-0.15323 -0.0377,-0.03289 -0.0564,-0.06064 -0.0454,-0.06747 0.0496,-0.03067 -0.006,-0.151129 -0.0697,-0.151129 -0.0164,0 -0.0385,-0.01888 -0.049,-0.04202 -0.0153,-0.03342 -0.029,-0.04025 -0.0668,-0.03298 l -0.0477,0.0091 0.0325,-0.05115 c 0.0179,-0.0281 0.0376,-0.05514 0.0436,-0.06002 0.084,-0.06738 0.0535,-0.330272 -0.0496,-0.429122 -0.0703,-0.06729 -0.15569,-0.100285 -0.24449,-0.09901 z"
         sodipodi:nodetypes="cssscsccscsccsscccccccscssssssscsssssscccccccscscssscccsccccccccsssscsccsssccccsssccscscscscscc" />
      <path
         d="m 463.72447,-89.639483 c 0.006,2.41e-4 0.0114,0.0011 0.0177,0.0028 0.0365,0.0091 0.0401,0.01908 0.0505,0.137123 0.01,0.117461 0.014,0.12796 0.0498,0.136937 0.0225,0.0057 0.0426,0.02503 0.0479,0.04656 0.009,0.03635 0.09,0.08672 0.13925,0.08672 0.0135,0 0.0326,0.01466 0.0422,0.03258 0.0209,0.03918 0.0265,0.258527 0.008,0.323255 -0.01,0.03669 -0.22947,-0.0384 -0.27045,-0.103296 -0.0275,-0.04366 -0.0503,-0.06194 -0.0768,-0.06194 -0.0304,0 -0.0391,-0.0099 -0.0453,-0.05161 -0.0143,-0.09843 -0.013,-0.512279 0,-0.534168 0.007,-0.01058 0.0198,-0.01564 0.0364,-0.01487 z"
         id="path32351-0-3-5"
         style="stroke-width:0.264583" />
      <path
         d="m 459.7583,-85.298662 0.61208,-1.3141 0.0173,0.01 -0.0194,0.041 h -0.006 l -0.009,0.021 0.0572,0.026 0.01,-0.02 -0.0261,-0.012 0.019,-0.041 h 0.005 l 0.0197,-0.042 h 0.007 l 0.0138,-0.028 h -0.008 l 0.16263,-0.3482 h 0.0106 l 0.0127,-0.028 h -0.0102 l 0.024,-0.051 -0.048,-0.022 0.20355,-0.4364 c 0.0155,-0.01 0.0423,-0.025 0.0801,-0.068 0.036,-0.041 0.11149,-0.1252 0.17039,-0.1908 0.0473,-0.052 0.0833,-0.093 0.0833,-0.093 l 0.01,-0.02 -0.003,-0.01 0.0198,-0.043 -0.004,-0.061 -0.0145,-0.1994 c 0,0 -0.005,-0.049 -0.0607,-0.075 h -0.002 c -0.0557,-0.027 -0.0967,0 -0.0967,0 l -0.16193,0.1168 -0.0494,0.036 -0.0205,0.043 -0.009,0.01 -0.009,0.02 c 0,0 -0.008,0.054 -0.0173,0.1228 -0.0123,0.088 -0.0286,0.2 -0.037,0.2536 -0.009,0.056 -0.005,0.088 -7e-4,0.1044 l -1.04775,2.2486 z"
         id="path211-4-4-2" />
    </g>
  </g>
</svg>
