<?xml version="1.0" encoding="UTF-8" standalone="no"?>
<!-- Created with Inkscape (http://www.inkscape.org/) -->

<svg
   width="24.491066mm"
   height="4.4270272mm"
   viewBox="0 0 24.491066 4.4270272"
   version="1.1"
   id="svg15601"
   inkscape:version="1.1.1 (3bf5ae0d25, 2021-09-20)"
   sodipodi:docname="inkporter-svg-qhxbqep5.svg"
   xmlns:inkscape="http://www.inkscape.org/namespaces/inkscape"
   xmlns:sodipodi="http://sodipodi.sourceforge.net/DTD/sodipodi-0.dtd"
   xmlns="http://www.w3.org/2000/svg"
   xmlns:svg="http://www.w3.org/2000/svg">
  <sodipodi:namedview
     id="namedview15603"
     pagecolor="#ffffff"
     bordercolor="#666666"
     borderopacity="1.0"
     inkscape:pageshadow="2"
     inkscape:pageopacity="0.0"
     inkscape:pagecheckerboard="0"
     inkscape:document-units="mm"
     showgrid="false"
     inkscape:zoom="0.90583674"
     inkscape:cx="2310.0189"
     inkscape:cy="442.13265"
     inkscape:window-width="1920"
     inkscape:window-height="1017"
     inkscape:window-x="-8"
     inkscape:window-y="-8"
     inkscape:window-maximized="1"
     inkscape:current-layer="layer1"
     inkscape:snap-nodes="true"
     inkscape:snap-bbox="true"
     inkscape:snap-others="true"
     inkscape:bbox-paths="true"
     inkscape:snap-global="true" />
  <defs
     id="defs15598">
    <clipPath
       clipPathUnits="userSpaceOnUse"
       id="clipPath48514-9-5-6-7-4">
      <path
         d="M 309.111,103.342 H 547.1 V 372.047 H 309.111 Z"
         id="path48512-3-2-8-8-0" />
    </clipPath>
    <clipPath
       clipPathUnits="userSpaceOnUse"
       id="clipPath48514-9-5-6-7-4-5">
      <path
         d="M 309.111,103.342 H 547.1 V 372.047 H 309.111 Z"
         id="path48512-3-2-8-8-0-2" />
    </clipPath>
    <clipPath
       clipPathUnits="userSpaceOnUse"
       id="clipPath48514-9-5-6-7-4-1">
      <path
         d="M 309.111,103.342 H 547.1 V 372.047 H 309.111 Z"
         id="path48512-3-2-8-8-0-4" />
    </clipPath>
    <clipPath
       clipPathUnits="userSpaceOnUse"
       id="clipEmfPath1">
      <path
         d="M 0,0 H 176.90268 V 3865.4117 H 0 Z"
         id="path21836" />
    </clipPath>
    <clipPath
       clipPathUnits="userSpaceOnUse"
       id="clipEmfPath2">
      <path
         d="M 0.58771654,0.58771654 H 176.90268 V 3865.4117 H 0.58771654 Z"
         id="path21839" />
    </clipPath>
    <clipPath
       clipPathUnits="userSpaceOnUse"
       id="clipEmfPath3">
      <path
         d="M 0.58789062,0.58789062 V 3865.4121 H 176.90234 V 0.58789062 Z"
         id="path21842" />
    </clipPath>
    <pattern
       id="EMFhbasepattern"
       patternUnits="userSpaceOnUse"
       width="6"
       height="6"
       x="0"
       y="0" />
    <clipPath
       clipPathUnits="userSpaceOnUse"
       id="clipEmfPath1-9">
      <path
         d="M 0,0 H 176.90268 V 593.00598 H 0 Z"
         id="path25878" />
    </clipPath>
    <clipPath
       clipPathUnits="userSpaceOnUse"
       id="clipEmfPath2-9">
      <path
         d="M 0.58771654,0.58771654 H 176.90268 V 593.00598 H 0.58771654 Z"
         id="path25881" />
    </clipPath>
    <clipPath
       clipPathUnits="userSpaceOnUse"
       id="clipEmfPath3-7">
      <path
         d="M 0.58789062,0.58789062 V 593.00586 H 176.90234 V 0.58789062 Z"
         id="path25884" />
    </clipPath>
    <pattern
       id="EMFhbasepattern-7"
       patternUnits="userSpaceOnUse"
       width="6"
       height="6"
       x="0"
       y="0" />
  </defs>
  <g
     inkscape:label="Layer 1"
     inkscape:groupmode="layer"
     id="layer1"
     transform="translate(-594.41962,-165.50361)">
    <g
       id="S-Infantry5-4x9"
       transform="translate(304.06279,104.56722)">
      <g
         id="S-Infantry5-4-3-2"
         transform="matrix(0.24689488,0,0,-0.24689488,99.393257,201.22256)">
        <path
           d="m 858.51963,550.48718 c -0.25,0 -1.16406,0.004 -1.16406,0.004 0,0 -0.21094,0.29297 -0.15625,0.46875 0.0547,0.17578 0.0586,0.375 0.0586,0.375 0,0 -0.49609,1.47656 -0.64063,1.67578 -0.14453,0.19922 -0.41406,0.61719 -0.41406,0.61719 0,0 -0.0859,0.1914 -0.0742,0.2539 0.0156,0.0586 -0.19922,0.28125 -0.23828,0.40235 -0.043,0.12109 -0.0312,0.3789 -0.0312,0.3789 0,0 -0.23047,0.3086 -0.26562,0.52735 -0.0312,0.22265 -0.20313,0.39062 -0.33203,0.48047 -0.13672,0.0898 -0.58594,0.33203 -0.65625,0.74218 -0.0703,0.41407 -0.16016,0.98828 -0.23047,1.11328 -0.0703,0.125 0.0586,0.58204 0.0351,0.66407 -0.0234,0.082 -0.0859,0.20312 -0.0781,0.3125 0.008,0.10937 0.12109,0.53906 0.12109,0.53906 l 0.11328,0.35156 c 0,0 -0.60937,-1.0039 -0.6875,-1.15625 -0.082,-0.15625 -0.33203,-0.1875 -0.41015,0 -0.0781,0.17969 -0.17969,0.39844 -0.26563,0.58203 -0.0898,0.1875 0.082,0.33203 0.082,0.33203 l 0.75389,0.97257 c 0,0 -0.41406,-0.11719 -0.57422,-0.24609 -0.16016,-0.12891 -0.6875,-0.043 -0.70703,0.13672 -0.0156,0.17968 0.0195,0.53906 0.0195,0.53906 0,0 -0.12891,0.1875 -0.0703,0.30078 0.0547,0.11719 0.36328,0.50391 0.36328,0.50391 0,0 0.0312,0.3164 0.12891,0.41796 0.0976,0.10157 0.5,0.58204 0.6914,0.89844 0.19141,0.3125 0.20313,0.39063 0.27735,0.40625 0.0703,0.0156 0.1914,0.0352 0.34375,0.11719 0.15625,0.0781 0.26953,0.16797 0.26953,0.16797 0,0 0.0586,0.2539 0.12109,0.28125 0.0117,0.004 0.0273,0.0156 0.0391,0.0273 l -0.55078,0.89844 c -0.0117,0.004 -0.0273,0.0117 -0.0391,0.0195 -0.21094,0.11328 -0.19531,0.17969 -0.10547,0.22266 0.0937,0.043 0.16797,0.39843 0.21875,0.55468 0.0508,0.15625 0.32422,0.94141 1.11719,0.875 0.78906,-0.0625 1.15234,-0.42968 1.23828,-0.78125 0.0859,-0.35546 0.0352,-0.64843 0.0469,-0.73828 0.0117,-0.0625 0.043,-0.15625 0.0625,-0.21093 0.0899,0.0781 0.16407,0.14453 0.16407,0.14453 l 0.12109,0.0234 c 0,0 1.21875,1.53516 1.39453,1.74219 0.17188,0.20313 1.4375,1.77735 1.4375,1.77735 l 0.23828,-0.15235 -0.46875,-0.57812 c 0,0 0,-0.16797 -0.0664,-0.26563 -0.0664,-0.0898 -1.17188,-1.51953 -1.17188,-1.51953 0,0 0.17578,-0.0117 0.15625,-0.1875 -0.0234,-0.17578 -0.0742,-0.77344 -0.26172,-1 -0.18359,-0.22266 -0.46875,-0.3125 -0.55078,-0.32422 -0.0781,-0.0156 -0.14844,-0.0312 -0.14844,-0.0312 l 0.0274,-0.32031 c 0,0 0.29687,-0.10938 0.48047,-0.25391 0.17578,-0.14062 1.08593,-0.96093 1.08593,-0.96093 0,0 0.64844,-0.69922 0.20313,-1.0586 -0.44141,-0.35937 -0.78906,-0.20312 -0.78906,-0.20312 l -0.49219,0.082 -0.0352,-0.38281 0.25,-0.10938 c 0,0 1.03516,-0.10937 1.21485,-0.41016 0.17578,-0.30468 0.5039,-0.74218 0.5039,-0.74218 l -0.18359,-0.0781 0.35937,-0.96875 c 0,0 -0.22265,-0.35156 -0.42578,-0.42969 -0.20703,-0.0742 -0.27734,-0.10937 -0.41406,-0.0898 -0.14062,0.0195 -0.29687,0.0312 -0.29687,0.0312 0,0 0.10156,-0.80469 0.14062,-1.14453 0.0352,-0.33984 -0.0312,-0.41406 -0.10937,-0.5 -0.0742,-0.0859 -0.21485,-0.25391 -0.21485,-0.25391 0,0 0.0547,-0.33984 0.004,-0.55859 -0.0547,-0.21484 -0.17188,-0.58594 -0.23047,-0.66016 -0.0508,-0.0742 -0.15234,-0.19531 -0.19141,-0.35547 -0.0391,-0.15625 -0.1875,-0.70312 -0.20312,-0.75 -0.0117,-0.0469 0.0508,-0.14453 0.0391,-0.28125 -0.008,-0.13671 -0.0547,-0.27343 -0.0898,-0.33203 -0.0352,-0.0586 0.0117,-0.35937 0.15234,-0.51953 0.13672,-0.16015 0.26563,-0.32422 0.26172,-0.49609 0,-0.16797 -0.0312,-0.21485 -0.14453,-0.25781 -0.11328,-0.043 -0.3125,-0.0391 -0.4336,0.0625 -0.12109,0.0976 -0.38281,0.39453 -0.38281,0.39453 0,0 -0.0547,-0.4961 0.0937,-0.66407 0.14453,-0.17187 0.1875,-0.28125 0.19141,-0.36328 0.008,-0.0781 0.33984,-0.58203 0.3789,-0.73047 0.0391,-0.15234 -0.004,-0.35156 -0.004,-0.35156 m -3.53906,13.2461 c 0.0117,0.0351 0.0117,0.0742 -0.0156,0.12109 -0.0508,0.0898 -0.1875,0.41797 -0.20312,0.51953 -0.0117,0.10156 -0.0391,0.14063 -0.0391,0.14063 0,0 -0.10156,-0.0234 -0.24609,0.0234 z m 1.94921,0.78125 c -0.0195,-0.0195 -0.0391,-0.0352 -0.0586,-0.0547 0.0469,0.004 0.0781,0.0117 0.0781,0.0117 0,0 -0.008,0.0156 -0.0195,0.043 m -0.0586,-0.0547 c -0.0781,-0.0117 -0.1875,-0.0234 -0.24219,-0.0195 -0.0898,0.008 -0.23437,0.0469 -0.23437,0.0469 l -0.14844,-0.57422 0.16406,-0.0547 c 0.0547,0.0586 0.16797,0.27734 0.2461,0.38281 0.0351,0.0469 0.125,0.13281 0.21484,0.21875 m 0.80469,-0.1211 c 0,0 0.17187,0.0274 0.22265,0.0547 0.0547,0.0234 0.19922,0.125 0.39063,0.28125 0.1875,0.15625 0.15625,0.41797 0.16406,0.625 0.004,0.21094 0.0508,0.1836 0.0508,0.1836 l -0.0351,0.10546 c 0,0 -0.33985,-0.45703 -0.40235,-0.51953 -0.0664,-0.0664 -0.39062,-0.73047 -0.39062,-0.73047 m -0.21485,-10.51171 c 0,0 0.082,0.22265 0.0899,0.33203 0.008,0.10937 0.10937,0.25781 0.1289,0.39062 0.0195,0.125 -0.14453,0.64453 -0.19531,0.87891 -0.0586,0.23047 0.082,0.51953 0.082,0.51953 l -0.29297,0.65625 c 0,0 0.0742,-0.64063 -0.0625,-1.06641 -0.14062,-0.42968 0.043,-0.67187 0.10938,-0.83593 0.0703,-0.16407 0.0742,-0.23438 0.0508,-0.32032 -0.0273,-0.0898 -0.10547,-0.32422 0.0898,-0.55468"
           id="path9755-8-2-2-9" />
        <path
           d="m 834.45713,563.9364 c 0,0 0.14453,0.0234 0.21484,-0.0117 0.0742,-0.0391 0.0625,-0.28906 0.0625,-0.28906 0,0 0.21485,0 0.3711,-0.0117 0.15625,-0.0117 0.2539,-0.33594 0.2539,-0.33594 0,0 0.35547,-0.15625 0.4336,-0.16797 -0.0234,0.008 -0.0391,0.0156 -0.0547,0.0312 -0.0899,0.10938 -0.11719,0.31641 -0.11719,0.31641 l -0.19141,0.24609 c 0,0 -0.11718,0.0469 -0.125,0.10938 -0.008,0.0625 0.008,0.22656 0.008,0.22656 l -0.13672,0.29297 -0.4961,0.0156 c 0,0 0.26954,0.1914 0.35157,0.66406 0.082,0.47265 0.47265,1.125 1.41797,1.00781 0.9414,-0.12109 1.13281,-1.16406 1.13281,-1.16406 0,0 0.0117,-0.20703 0.0469,-0.27735 0.0352,-0.0742 0.14453,-0.21093 0.14453,-0.21093 l -0.30078,-0.082 -0.0547,-0.33594 c 0,0 0.54687,0.17187 1.34375,-0.22656 0.80078,-0.39844 1.08984,-0.58204 1.49218,-1.40625 0.39844,-0.82813 0.42578,-0.8086 0.42578,-0.8086 l -0.13671,-0.53515 0.17968,-0.2461 0.60157,-0.59765 0.125,-0.34766 -0.47284,-0.26171 c 0,0 0.30859,-0.60156 0.375,-0.72656 0.0625,-0.12891 0.0977,-0.48047 0.0977,-0.48047 l -0.32422,-0.33594 c 0,0 0.1875,-0.79687 0.16015,-1.43359 -0.0273,-0.63672 -0.26953,-0.94531 -0.26953,-0.94531 0,0 -0.0391,-0.75391 -0.082,-0.88282 -0.0469,-0.125 -0.10937,-0.24218 -0.10937,-0.24218 l 0.0547,-0.64454 0.0352,-0.082 c 0,0 0.18359,-0.0391 0.23828,-0.20312 0.0508,-0.16016 0.57813,-2.64844 0.57813,-2.64844 l -0.50782,-0.21875 -0.0703,0.14453 c 0,0 -0.27344,-0.24219 -0.35547,-0.2539 -0.082,-0.008 -1.01953,-0.13282 -1.0625,-0.0703 -0.13281,0.1875 -0.0156,0.36719 0.21875,0.41797 0.61719,0.13672 0.75391,0.42578 0.76953,0.57813 0.0117,0.10937 -0.75,1.32812 -0.75,1.32812 0,0 -0.41797,0.81641 -0.41015,0.92578 0.008,0.10938 -0.71875,0.74219 -0.71875,1.07813 0,0.33594 -0.21485,1.41015 -0.21485,1.41015 0,0 -0.49218,-0.42968 -0.73828,-0.45703 -0.24609,-0.0234 -0.5625,-0.125 -0.76172,-0.44531 -0.19922,-0.31641 0.13672,-0.46094 0.21094,-0.66016 0.0703,-0.19921 0.28906,-1.52343 0.37109,-1.79687 0.082,-0.27344 0.38282,-1.13672 0.38282,-1.13672 l -0.51172,-0.30859 -0.15235,0.0469 c 0,0 -0.0898,-0.11719 -0.16406,-0.17187 -0.0742,-0.0547 -0.65234,-0.32813 -0.65234,-0.32813 0,0 -0.64453,0 -0.69922,0.008 -0.0586,0.0117 -0.082,0.40235 0.26172,0.42579 0.34375,0.0273 0.5,0.16406 0.5,0.16406 l 0.26172,0.76172 c 0,0 -0.17969,0.8125 -0.42578,1.11718 -0.2461,0.3125 -0.60938,1.10157 -0.60938,1.10157 l 0.0195,0.13672 c 0,0 -0.39844,0.33593 -0.41015,0.57031 -0.008,0.23437 -0.0352,0.49219 -0.0352,0.49219 l 0.0898,0.1875 c 0,0 0.62891,1 0.65625,1.0625 0.0274,0.0664 0.20703,0.20703 0.23438,0.35546 0.0273,0.14454 0.26172,0.41797 0.32031,0.4336 0.0508,0.0195 0.25,0.1289 0.21484,0.21875 -0.0391,0.0898 0,0.1914 0,0.1914 0,0 0.12891,0.45313 0.22657,0.58985 0.10156,0.13672 0.0547,0.18359 0.10156,0.3164 0.0312,0.0977 0.043,0.17579 0.043,0.21485 l 0.17969,0.25 -0.73438,1.0664 c -0.0859,-0.0156 -0.16406,-0.0312 -0.19531,-0.0391 -0.0937,-0.0234 -0.4961,0.0742 -0.82031,0.26563 -0.32813,0.1914 -2.01172,1.01172 -2.01172,1.01172 l -0.0508,0.17968 -1.08204,0.55469 -0.16796,0.12109 c 0,0 -0.35157,0.0234 -0.375,0.0859 -0.0274,0.0586 -0.4961,0.44531 -0.4961,0.44531 0,0 -2.39453,0.17969 -2.71875,0.27344 -0.32422,0.10156 -0.46875,0.29297 -0.46875,0.29297 l -1.19531,0.082 v 0.15625 h 0.33594 v 0.20703 h 0.20703 v -0.2539 z m 1.42578,-0.83594 c 0.0781,-0.0156 0.19531,-0.0391 0.32812,-0.0664 0.0391,0.0586 0.0664,0.10156 0.0664,0.10156 0,0 -0.23047,-0.0508 -0.39453,-0.0352 m -1.07813,-0.33203 c -0.17968,0.0859 -0.39843,0.19531 -0.45703,0.27735 -0.0625,0.0859 -0.21875,0.10937 -0.28125,0.12109 -0.0547,0.0117 -0.99609,0.13281 -0.99609,0.13281 0,0 0.20312,-0.17969 0.22656,-0.24219 0.0234,-0.0586 0.0742,-0.13281 0.14453,-0.16796 0.0742,-0.0352 0.64063,-0.21485 0.64063,-0.21485 l 0.89062,-0.27734 0.13282,0.21484 z m 0,0"
           id="path9757-5-8-8-3" />
        <path
           d="m 846.93369,556.75281 c 0.13281,0.33593 0.23047,0.39062 0.0898,0.54687 -0.13671,0.16016 -0.97656,1.03516 -1.1289,1.21485 -0.15625,0.18359 -0.39453,0.64453 -0.48828,0.83203 -0.0899,0.1914 -0.0742,0.44531 -0.20703,0.61328 -0.12891,0.17578 -4.82032,5.32031 -4.82032,5.32031 l -0.17968,-0.15625 0.42968,-0.45312 0.0274,-0.19922 1.17968,-1.38282 1.6875,-2.05859 0.13672,-0.16406 -0.0937,-0.0937 0.54688,-1.08985 0.32031,0.21485 0.33594,-0.22656 c 0,0 0.32422,-1.16407 0.40625,-1.26563 0.082,-0.0977 0.004,0.0898 0.20703,-0.14844 0.20312,-0.24218 1.05078,-1.67578 1.16797,-1.85547 0.12109,-0.18359 0.28515,0.0742 0.28515,0.0742 z m 0,0"
           id="path9759-7-8-2" />
        <path
           d="m 846.61338,551.42078 c 0.34375,0.0273 0.5,0.16796 0.5,0.16796 l 0.26172,0.76172 c 0,0 -0.17969,0.80469 -0.42578,1.11328 -0.2461,0.3086 -0.60938,1.10157 -0.60938,1.10157 l 0.0195,0.13281 c 0,0 -0.39844,0.33984 -0.40625,0.57422 -0.0117,0.23437 -0.0391,0.48828 -0.0391,0.48828 l 0.0898,0.19141 c 0,0 0.62891,1 0.65625,1.0625 0.0274,0.0625 0.20703,0.20703 0.23438,0.35546 0.0273,0.14454 0.26562,0.41797 0.3164,0.4336 0.0547,0.0195 0.25391,0.1289 0.21875,0.21875 -0.0391,0.0898 0,0.1914 0,0.1914 0,0 0.12891,0.45313 0.23047,0.58985 0.0977,0.13672 0.0508,0.17969 0.0977,0.3164 0.0469,0.13672 0.0469,0.23829 0.0469,0.23829 0,0 -0.51953,0.0547 -0.76562,-0.0117 -0.24609,-0.0625 -0.48047,-0.0703 -0.60547,-0.043 -0.12891,0.0273 -0.0664,0.11719 -0.375,0.0156 -0.30859,-0.0976 -0.44531,-0.0547 -0.44531,-0.0547 l -0.0625,0.1289 c 0,0 -0.0547,0.0547 -0.32422,-0.1289 -0.27344,-0.17969 -0.56641,-0.19922 -0.69141,-0.1875 -0.1289,0.008 -0.55468,0.51562 -0.55468,0.5625 0,0.0351 0.20703,0.58203 0.28515,0.79687 l 0.74219,0.0195 0.36328,-0.0937 c 0,-0.0117 0,-0.0234 -0.004,-0.0351 l 0.11329,-0.0625 c 0,0 0.26171,0.0469 0.61718,0.10937 0.35157,0.0625 0.625,0.19141 0.625,0.19141 l -0.32031,0.20312 0.0547,1.01953 v 0.0586 l -0.008,0.008 c -0.0234,0.14844 -0.0781,0.51953 -0.0274,0.70703 0.0664,0.23438 0.29297,0.57422 0.29297,0.57422 0,0 -0.44922,-0.0937 -0.53906,0.0156 -0.0899,0.10938 -0.11719,0.31641 -0.11719,0.31641 l -0.19141,0.24609 c 0,0 -0.11718,0.0469 -0.125,0.10938 -0.008,0.0625 0.008,0.22656 0.008,0.22656 l -0.13672,0.28906 -0.4961,0.0195 c 0,0 0.26954,0.1914 0.35157,0.66406 0.082,0.47265 0.47265,1.125 1.41797,1.00781 0.9414,-0.11719 1.13281,-1.16016 1.13281,-1.16016 0,0 0.0117,-0.21093 0.0469,-0.28515 0.0352,-0.0703 0.14453,-0.20703 0.14453,-0.20703 l -0.29687,-0.082 -0.0547,-0.33594 c 0,0 0.54297,0.17187 1.33985,-0.22656 0.80078,-0.39844 1.08984,-0.58204 1.48828,-1.40625 0.40234,-0.82813 0.42968,-0.8086 0.42968,-0.8086 l -0.13671,-0.53515 0.18359,-0.2461 0.59766,-0.59765 0.125,-0.34766 -0.46875,-0.26172 c 0,0 0.30468,-0.60156 0.37109,-0.72656 0.0625,-0.125 0.0977,-0.48047 0.0977,-0.48047 l -0.32422,-0.33594 c 0,0 0.1875,-0.80078 0.16015,-1.43359 -0.0273,-0.63672 -0.26953,-0.94531 -0.26953,-0.94531 0,0 -0.0351,-0.75391 -0.082,-0.88282 -0.0469,-0.125 -0.10937,-0.24218 -0.10937,-0.24218 l 0.0547,-0.64454 0.0352,-0.082 c 0,0 0.18359,-0.0391 0.23828,-0.20312 0.0508,-0.16406 0.57813,-2.64844 0.57813,-2.64844 l -0.50782,-0.21875 -0.0703,0.14453 c 0,0 -0.27344,-0.24219 -0.35547,-0.25 -0.082,-0.0117 -1.01562,-0.13672 -1.0625,-0.0742 -0.13281,0.1875 -0.0156,0.36719 0.21875,0.41407 0.61719,0.14062 0.75,0.42968 0.77344,0.58203 0.0117,0.10937 -0.75391,1.32812 -0.75391,1.32812 0,0 -0.41797,0.81641 -0.41015,0.92578 0.008,0.10938 -0.71875,0.74219 -0.71875,1.07813 0,0.33594 -0.21485,1.40625 -0.21485,1.40625 0,0 -0.49218,-0.42188 -0.73828,-0.45313 -0.24219,-0.0273 -0.5625,-0.125 -0.76172,-0.44531 -0.19922,-0.31641 0.13672,-0.46094 0.20703,-0.66016 0.0742,-0.19921 0.29297,-1.52734 0.375,-1.79687 0.082,-0.27344 0.38282,-1.13672 0.38282,-1.13672 l -0.51172,-0.30469 -0.15235,0.043 c 0,0 -0.0937,-0.12109 -0.16406,-0.17187 -0.0742,-0.0547 -0.65625,-0.32813 -0.65625,-0.32813 0,0 -0.64062,0 -0.69922,0.008 -0.0508,0.008 -0.082,0.39844 0.26563,0.42579"
           id="path9761-1-4-4-7" />
        <path
           d="m 817.60947,550.48718 c -0.24609,0 -1.16015,0.004 -1.16015,0.004 0,0 -0.21094,0.29297 -0.15625,0.46875 0.0508,0.17578 0.0547,0.375 0.0547,0.375 0,0 -0.49609,1.47656 -0.64062,1.67578 -0.14453,0.19922 -0.41406,0.61719 -0.41406,0.61719 0,0 -0.0859,0.1914 -0.0703,0.2539 0.0117,0.0586 -0.19922,0.28125 -0.24218,0.40235 -0.043,0.12109 -0.0312,0.3789 -0.0312,0.3789 0,0 -0.23047,0.3086 -0.26172,0.52735 -0.0352,0.22265 -0.20313,0.39062 -0.33594,0.48047 -0.13281,0.0898 -0.58203,0.33203 -0.65234,0.74218 -0.0742,0.41407 -0.16016,0.98828 -0.23047,1.11328 -0.0742,0.125 0.0586,0.58204 0.0351,0.66407 -0.0234,0.082 -0.0859,0.20312 -0.0781,0.3125 0.008,0.10937 0.11719,0.53906 0.11719,0.53906 l 0.11328,0.35156 c 0,0 -0.60547,-1.0039 -0.6875,-1.15625 -0.082,-0.15625 -0.33203,-0.1875 -0.41016,0 -0.0742,0.17969 -0.17578,0.39844 -0.26562,0.58203 -0.0859,0.1875 0.0859,0.33203 0.0859,0.33203 l 0.75,0.97266 c 0,0 -0.41406,-0.11719 -0.57422,-0.24609 -0.15625,-0.12891 -0.6875,-0.043 -0.70703,0.13672 -0.0156,0.17968 0.0195,0.53906 0.0195,0.53906 0,0 -0.125,0.1875 -0.0664,0.30078 0.0547,0.11719 0.36328,0.50391 0.36328,0.50391 0,0 0.0312,0.3164 0.12891,0.41796 0.0937,0.10157 0.5,0.58204 0.6875,0.89844 0.1914,0.3125 0.20703,0.39063 0.27734,0.40625 0.0703,0.0156 0.19141,0.0352 0.34766,0.11719 0.15234,0.0781 0.26953,0.16797 0.26953,0.16797 0,0 0.0586,0.2539 0.11718,0.28125 0.0156,0.004 0.0312,0.0156 0.043,0.0273 l -0.55468,0.89844 c -0.0117,0.004 -0.0234,0.0117 -0.0352,0.0195 -0.21094,0.11328 -0.19531,0.17969 -0.10547,0.22266 0.0937,0.043 0.16797,0.39843 0.21875,0.55468 0.0508,0.15625 0.32422,0.94141 1.11719,0.875 0.78906,-0.0625 1.15234,-0.42968 1.23828,-0.78125 0.082,-0.35546 0.0312,-0.64843 0.0469,-0.73828 0.008,-0.0625 0.043,-0.15625 0.0625,-0.21093 0.0859,0.0781 0.16016,0.14453 0.16016,0.14453 l 0.12109,0.0234 c 0,0 1.22266,1.53516 1.39454,1.74219 0.17578,0.20313 1.4375,1.77735 1.4375,1.77735 l 0.23828,-0.15235 -0.46875,-0.57812 c 0,0 0,-0.16797 -0.0664,-0.26563 -0.0664,-0.0898 -1.16797,-1.51953 -1.16797,-1.51953 0,0 0.17578,-0.0117 0.15235,-0.1875 -0.0234,-0.17578 -0.0703,-0.77344 -0.25782,-1 -0.18359,-0.22266 -0.46875,-0.3125 -0.55078,-0.32422 -0.0781,-0.0156 -0.15234,-0.0312 -0.15234,-0.0312 l 0.0273,-0.32031 c 0,0 0.30078,-0.10938 0.48047,-0.25391 0.17969,-0.14062 1.08594,-0.96093 1.08594,-0.96093 0,0 0.64844,-0.69922 0.20703,-1.0586 -0.44531,-0.35937 -0.78906,-0.20312 -0.78906,-0.20312 l -0.49219,0.082 -0.0391,-0.38281 0.2539,-0.10938 c 0,0 1.03516,-0.10937 1.21485,-0.41016 0.17578,-0.30468 0.5039,-0.74218 0.5039,-0.74218 l -0.1875,-0.0781 0.35938,-0.96875 c 0,0 -0.21875,-0.35156 -0.42578,-0.42969 -0.20313,-0.0742 -0.27344,-0.10937 -0.41407,-0.0898 -0.13671,0.0195 -0.29687,0.0312 -0.29687,0.0312 0,0 0.10547,-0.80469 0.14062,-1.14453 0.0352,-0.33984 -0.0312,-0.41406 -0.10546,-0.5 -0.0742,-0.0859 -0.21875,-0.25391 -0.21875,-0.25391 0,0 0.0586,-0.33984 0.004,-0.55859 -0.0547,-0.21484 -0.17187,-0.58594 -0.22656,-0.66016 -0.0547,-0.0742 -0.15234,-0.19531 -0.19141,-0.35547 -0.043,-0.15625 -0.1914,-0.70312 -0.20312,-0.75 -0.0117,-0.0469 0.0508,-0.14453 0.0391,-0.28125 -0.008,-0.13671 -0.0586,-0.27343 -0.0898,-0.33203 -0.0352,-0.0586 0.0117,-0.35937 0.15234,-0.51953 0.13672,-0.16015 0.26563,-0.32422 0.26172,-0.49609 0,-0.16797 -0.0352,-0.21485 -0.14844,-0.25781 -0.10937,-0.043 -0.30859,-0.0391 -0.43359,0.0625 -0.1211,0.0976 -0.37891,0.39453 -0.37891,0.39453 0,0 -0.0547,-0.4961 0.0937,-0.66407 0.14453,-0.17187 0.1875,-0.28125 0.19141,-0.36328 0.008,-0.0781 0.33984,-0.58203 0.3789,-0.73047 0.0391,-0.15234 -0.008,-0.35156 -0.008,-0.35156 m -3.53906,13.2461 c 0.0156,0.0351 0.0117,0.0742 -0.0117,0.12109 -0.0547,0.0898 -0.19141,0.41797 -0.20312,0.51953 -0.0117,0.10156 -0.0391,0.14063 -0.0391,0.14063 0,0 -0.10156,-0.0234 -0.25,0.0234 z m 1.95312,0.78125 c -0.0195,-0.0195 -0.0391,-0.0352 -0.0625,-0.0547 0.0469,0.004 0.082,0.0117 0.082,0.0117 0,0 -0.008,0.0156 -0.0195,0.043 m -0.0625,-0.0547 c -0.0742,-0.0117 -0.18359,-0.0234 -0.23828,-0.0195 -0.0898,0.008 -0.23828,0.0469 -0.23828,0.0469 l -0.14844,-0.57422 0.16407,-0.0547 c 0.0547,0.0586 0.17187,0.27734 0.25,0.38281 0.0312,0.0469 0.125,0.13281 0.21093,0.21875 m 0.8086,-0.1211 c 0,0 0.17187,0.0274 0.22265,0.0547 0.0508,0.0234 0.19922,0.125 0.38672,0.28125 0.19141,0.15625 0.16016,0.41797 0.16407,0.625 0.004,0.21094 0.0547,0.1836 0.0547,0.1836 l -0.0351,0.10546 c 0,0 -0.33985,-0.45703 -0.40235,-0.51953 -0.0664,-0.0664 -0.39062,-0.73047 -0.39062,-0.73047 m -0.21875,-10.51171 c 0,0 0.0859,0.22265 0.0937,0.33203 0.008,0.10937 0.10937,0.25781 0.125,0.39062 0.0195,0.125 -0.14063,0.64453 -0.19531,0.87891 -0.0547,0.23047 0.0859,0.51953 0.0859,0.51953 l -0.29297,0.65625 c 0,0 0.0742,-0.64063 -0.0625,-1.06641 -0.14062,-0.42968 0.043,-0.67187 0.10938,-0.83593 0.0664,-0.16407 0.0703,-0.23438 0.0469,-0.32032 -0.0273,-0.0898 -0.10156,-0.32422 0.0899,-0.55468"
           id="path9779-6-4-3-1" />
        <path
           d="m 786.91807,563.9364 c 0,0 0.14453,0.0234 0.21484,-0.0117 0.0742,-0.0391 0.0625,-0.28906 0.0625,-0.28906 0,0 0.21484,0 0.37109,-0.0117 0.15625,-0.0117 0.25391,-0.33594 0.25391,-0.33594 0,0 0.35547,-0.15625 0.43359,-0.16797 -0.0234,0.008 -0.043,0.0156 -0.0547,0.0312 -0.0899,0.10938 -0.11719,0.31641 -0.11719,0.31641 l -0.1875,0.24609 c 0,0 -0.1211,0.0469 -0.12891,0.10938 -0.008,0.0625 0.008,0.22656 0.008,0.22656 l -0.13281,0.29297 -0.5,0.0156 c 0,0 0.26953,0.1914 0.35156,0.66406 0.082,0.47265 0.47266,1.125 1.41797,1.00781 0.94141,-0.12109 1.13282,-1.16406 1.13282,-1.16406 0,0 0.0117,-0.20703 0.0469,-0.27735 0.0352,-0.0742 0.14453,-0.21093 0.14453,-0.21093 l -0.30078,-0.082 -0.0547,-0.33594 c 0,0 0.54688,0.17187 1.34766,-0.22656 0.79687,-0.39844 1.08984,-0.58204 1.48828,-1.40625 0.39844,-0.82813 0.42578,-0.8086 0.42578,-0.8086 l -0.13672,-0.53515 0.17969,-0.2461 0.60156,-0.59765 0.125,-0.34766 -0.47265,-0.26172 c 0,0 0.3125,-0.60156 0.375,-0.72656 0.0625,-0.12891 0.0976,-0.48047 0.0976,-0.48047 l -0.32422,-0.33594 c 0,0 0.1875,-0.79687 0.16407,-1.43359 -0.0274,-0.63672 -0.27344,-0.94531 -0.27344,-0.94531 0,0 -0.0391,-0.75391 -0.082,-0.88282 -0.0469,-0.125 -0.10938,-0.24218 -0.10938,-0.24218 l 0.0547,-0.64454 0.0352,-0.082 c 0,0 0.18359,-0.0391 0.23828,-0.20312 0.0547,-0.16016 0.58203,-2.64844 0.58203,-2.64844 l -0.51172,-0.21875 -0.0703,0.14453 c 0,0 -0.27344,-0.24219 -0.35547,-0.2539 -0.082,-0.008 -1.01563,-0.13282 -1.0625,-0.0703 -0.13281,0.1875 -0.0156,0.36719 0.21875,0.41797 0.61719,0.13672 0.75391,0.42578 0.76953,0.57813 0.0156,0.10937 -0.75,1.32812 -0.75,1.32812 0,0 -0.41797,0.81641 -0.41016,0.92578 0.008,0.10938 -0.71875,0.74219 -0.71875,1.07813 0,0.33594 -0.21484,1.41015 -0.21484,1.41015 0,0 -0.49219,-0.42968 -0.73828,-0.45703 -0.24609,-0.0234 -0.5625,-0.125 -0.76172,-0.44531 -0.19922,-0.31641 0.13672,-0.46094 0.21094,-0.66016 0.0703,-0.19921 0.28906,-1.52343 0.37109,-1.79687 0.082,-0.27344 0.38281,-1.13672 0.38281,-1.13672 l -0.51171,-0.30859 -0.15235,0.0469 c 0,0 -0.0898,-0.11719 -0.16406,-0.17187 -0.0742,-0.0547 -0.65234,-0.32813 -0.65234,-0.32813 0,0 -0.64454,0 -0.69922,0.008 -0.0547,0.0117 -0.082,0.40235 0.26172,0.42579 0.34375,0.0273 0.5,0.16406 0.5,0.16406 l 0.26171,0.76172 c 0,0 -0.17968,0.8125 -0.42578,1.11718 -0.24609,0.3125 -0.60937,1.10157 -0.60937,1.10157 l 0.0195,0.13672 c 0,0 -0.39844,0.33593 -0.41016,0.57031 -0.008,0.23437 -0.0351,0.49219 -0.0351,0.49219 l 0.0898,0.1875 c 0,0 0.62891,1 0.65625,1.0625 0.0273,0.0664 0.20703,0.20703 0.23438,0.35546 0.0273,0.14454 0.26171,0.41797 0.3164,0.4336 0.0547,0.0195 0.25781,0.1289 0.21875,0.21875 -0.0351,0.0898 0,0.1914 0,0.1914 0,0 0.12891,0.45313 0.22656,0.58985 0.10157,0.13672 0.0547,0.18359 0.10157,0.3164 0.0312,0.0977 0.043,0.17579 0.043,0.21485 l 0.17968,0.25 -0.73437,1.0664 c -0.0859,-0.0156 -0.16016,-0.0312 -0.19531,-0.0391 -0.0937,-0.0234 -0.49219,0.0742 -0.82032,0.26563 -0.32422,0.1914 -2.01172,1.01172 -2.01172,1.01172 l -0.0469,0.17968 -1.08594,0.55469 -0.16797,0.12109 c 0,0 -0.35156,0.0234 -0.375,0.0859 -0.0234,0.0586 -0.49609,0.44531 -0.49609,0.44531 0,0 -2.39453,0.17969 -2.71875,0.27344 -0.32422,0.10156 -0.46875,0.29297 -0.46875,0.29297 l -1.19531,0.082 v 0.15625 h 0.33984 v 0.20703 h 0.20313 v -0.2539 z m 1.42578,-0.83594 c 0.0781,-0.0156 0.19531,-0.0391 0.32812,-0.0664 0.0391,0.0586 0.0664,0.10156 0.0664,0.10156 0,0 -0.23047,-0.0508 -0.39453,-0.0352 m -1.07813,-0.33203 c -0.17969,0.0859 -0.39844,0.19531 -0.45703,0.27735 -0.0625,0.0859 -0.21875,0.10937 -0.28125,0.12109 -0.0547,0.0117 -0.99609,0.13281 -0.99609,0.13281 0,0 0.20312,-0.17969 0.22656,-0.24219 0.0273,-0.0586 0.0742,-0.13281 0.14453,-0.16796 0.0742,-0.0352 0.64063,-0.21485 0.64063,-0.21485 l 0.89453,-0.27734 0.1289,0.21484 z m 0,0"
           id="path9781-0-6-9-2" />
        <path
           d="m 806.02744,556.75281 c 0.12891,0.33593 0.23047,0.39062 0.0898,0.54687 -0.13671,0.16016 -0.97656,1.03516 -1.13281,1.21485 -0.15234,0.18359 -0.39062,0.64453 -0.48437,0.83203 -0.0937,0.1914 -0.0742,0.44531 -0.20703,0.61328 -0.13282,0.17578 -4.82032,5.32031 -4.82032,5.32031 l -0.17968,-0.15625 0.42968,-0.45312 0.0234,-0.19922 1.17969,-1.38282 1.6914,-2.05859 0.13672,-0.16406 -0.0937,-0.0937 0.54688,-1.08985 0.32031,0.21485 0.33203,-0.22656 c 0,0 0.32813,-1.16407 0.41016,-1.26563 0.082,-0.0977 0,0.0898 0.20703,-0.14844 0.20312,-0.24218 1.04687,-1.67578 1.16797,-1.85547 0.11719,-0.18359 0.28125,0.0742 0.28125,0.0742 z m 0,0"
           id="path9783-9-9-7-2" />
        <path
           d="m 805.70713,551.42078 c 0.34375,0.0273 0.5,0.16796 0.5,0.16796 l 0.26172,0.76172 c 0,0 -0.17969,0.80469 -0.42578,1.11328 -0.2461,0.3086 -0.60938,1.10157 -0.60938,1.10157 l 0.0156,0.13281 c 0,0 -0.39844,0.33984 -0.40625,0.57422 -0.0117,0.23437 -0.0352,0.48828 -0.0352,0.48828 l 0.0898,0.19141 c 0,0 0.625,1 0.65235,1.0625 0.0273,0.0625 0.21093,0.20703 0.23828,0.35546 0.0234,0.14454 0.26172,0.41797 0.3164,0.4336 0.0547,0.0195 0.25391,0.1289 0.21875,0.21875 -0.0391,0.0898 0,0.1914 0,0.1914 0,0 0.125,0.45313 0.22657,0.58985 0.0976,0.13672 0.0547,0.17969 0.0976,0.3164 0.0469,0.13672 0.0469,0.23829 0.0469,0.23829 0,0 -0.51563,0.0547 -0.76172,-0.0117 -0.24609,-0.0625 -0.48438,-0.0703 -0.60938,-0.043 -0.125,0.0273 -0.0625,0.11719 -0.37109,0.0156 -0.30859,-0.0976 -0.44531,-0.0547 -0.44531,-0.0547 l -0.0625,0.1289 c 0,0 -0.0547,0.0547 -0.32813,-0.1289 -0.27343,-0.17969 -0.5625,-0.19922 -0.6914,-0.1875 -0.125,0.008 -0.55469,0.51562 -0.55469,0.5625 0,0.0351 0.20703,0.58203 0.28906,0.79687 l 0.74219,0.0195 0.36328,-0.0937 c 0,-0.0117 -0.004,-0.0234 -0.004,-0.0351 l 0.10938,-0.0625 c 0,0 0.26562,0.0469 0.61719,0.10937 0.35547,0.0625 0.625,0.19141 0.625,0.19141 l -0.32032,0.20312 0.0547,1.01953 0.004,0.0156 v 0.043 l -0.0117,0.008 c -0.0234,0.14844 -0.0742,0.51953 -0.0234,0.70703 0.0625,0.23438 0.28906,0.57422 0.28906,0.57422 0,0 -0.44531,-0.0937 -0.53515,0.0156 -0.0899,0.10938 -0.11719,0.31641 -0.11719,0.31641 l -0.19141,0.24609 c 0,0 -0.11718,0.0469 -0.125,0.10938 -0.0117,0.0625 0.008,0.22656 0.008,0.22656 l -0.13672,0.28906 -0.5,0.0195 c 0,0 0.27344,0.1914 0.35547,0.66406 0.082,0.47265 0.46875,1.125 1.41406,1.00781 0.94531,-0.11719 1.13672,-1.16016 1.13672,-1.16016 0,0 0.008,-0.21093 0.043,-0.28515 0.0391,-0.0703 0.14843,-0.20703 0.14843,-0.20703 l -0.30078,-0.082 -0.0547,-0.33594 c 0,0 0.54687,0.17187 1.34375,-0.22656 0.80078,-0.39844 1.08984,-0.58204 1.48828,-1.40625 0.39843,-0.82813 0.42968,-0.8086 0.42968,-0.8086 l -0.14062,-0.53515 0.18359,-0.2461 0.59766,-0.59765 0.12891,-0.34766 -0.47266,-0.26172 c 0,0 0.30859,-0.60156 0.375,-0.72656 0.0586,-0.125 0.0977,-0.48047 0.0977,-0.48047 l -0.32813,-0.33594 c 0,0 0.19141,-0.80078 0.16406,-1.43359 -0.0273,-0.63672 -0.27343,-0.94531 -0.27343,-0.94531 0,0 -0.0352,-0.75391 -0.0781,-0.88282 -0.0469,-0.125 -0.10937,-0.24218 -0.10937,-0.24218 l 0.0508,-0.64454 0.0351,-0.082 c 0,0 0.1836,-0.0391 0.23828,-0.20312 0.0547,-0.16406 0.58204,-2.64844 0.58204,-2.64844 l -0.50782,-0.21875 -0.0742,0.14453 c 0,0 -0.27343,-0.24219 -0.35546,-0.25 -0.0781,-0.0117 -1.01563,-0.13672 -1.0586,-0.0742 -0.13672,0.1875 -0.0195,0.36719 0.21485,0.41407 0.61718,0.14062 0.7539,0.42968 0.77343,0.58203 0.0117,0.10937 -0.7539,1.32812 -0.7539,1.32812 0,0 -0.41797,0.81641 -0.40625,0.92578 0.008,0.10938 -0.71875,0.74219 -0.71875,1.07813 0,0.33594 -0.21875,1.40625 -0.21875,1.40625 0,0 -0.48828,-0.42188 -0.73438,-0.45313 -0.24609,-0.0273 -0.5625,-0.125 -0.76172,-0.44531 -0.19922,-0.31641 0.13672,-0.46094 0.20703,-0.66016 0.0742,-0.19921 0.28907,-1.52734 0.3711,-1.79687 0.082,-0.27344 0.38281,-1.13672 0.38281,-1.13672 l -0.50781,-0.30469 -0.15625,0.043 c 0,0 -0.0899,-0.12109 -0.16016,-0.17187 -0.0742,-0.0547 -0.65625,-0.32813 -0.65625,-0.32813 0,0 -0.64453,0 -0.69922,0.008 -0.0547,0.008 -0.082,0.39844 0.26563,0.42579"
           id="path9785-0-7-5-1" />
        <path
           d="m 798.96103,559.06921 c 0.0899,0.34766 0.17969,0.41407 0.0234,0.55469 -0.15234,0.13672 -1.09375,0.90234 -1.26953,1.06641 -0.17578,0.16015 -0.46875,0.58984 -0.58203,0.76562 -0.11719,0.17578 -0.13281,0.42969 -0.28516,0.58594 -0.14843,0.15234 -5.42968,4.69141 -5.42968,4.69141 l -0.16407,-0.17969 0.48438,-0.39844 0.0508,-0.19141 1.33984,-1.23046 1.92578,-1.83594 0.15625,-0.14453 -0.0781,-0.10547 0.67187,-1.01563 0.29297,0.25 0.35938,-0.17968 c 0,0 0.46484,-1.1211 0.55859,-1.20704 0.0937,-0.0937 -0.008,0.0899 0.22266,-0.125 0.23047,-0.21093 1.24609,-1.53125 1.38672,-1.69921 0.14062,-0.16407 0.27343,0.10937 0.27343,0.10937 z m 0,0"
           id="path9787-8-9-5" />
        <path
           d="m 796.3126,551.42078 c 0.34765,0.0273 0.5,0.16796 0.5,0.16796 l 0.26562,0.76172 c 0,0 -0.18359,0.80469 -0.42969,1.11328 -0.24609,0.3086 -0.60546,1.10157 -0.60546,1.10157 l 0.0156,0.13281 c 0,0 -0.39844,0.33984 -0.40625,0.57422 -0.0117,0.23437 -0.0352,0.48828 -0.0352,0.48828 l 0.0859,0.19141 c 0,0 0.62891,1 0.65625,1.0625 0.0274,0.0625 0.21094,0.20703 0.23438,0.35546 0.0273,0.14454 0.26562,0.41797 0.32031,0.4336 0.0547,0.0195 0.25391,0.1289 0.21484,0.21875 -0.0351,0.0898 0,0.1914 0,0.1914 0,0 0.12891,0.45313 0.22657,0.58985 0.10156,0.13672 0.0586,0.17969 0.10156,0.3164 0.043,0.13672 0.043,0.23829 0.043,0.23829 0,0 -0.65625,0.41015 -0.86719,0.55468 -0.32813,0.21485 -2.01563,2.79297 -2.01563,2.79297 l 0.0703,0.72656 1.46875,-1.6289 0.004,0.043 -0.0117,0.008 c -0.0234,0.14844 -0.0742,0.51953 -0.0234,0.70703 0.0625,0.23438 0.28906,0.57422 0.28906,0.57422 0,0 -0.44531,-0.0937 -0.53516,0.0156 -0.0937,0.10938 -0.11718,0.31641 -0.11718,0.31641 l -0.19141,0.24609 c 0,0 -0.11719,0.0469 -0.12891,0.10938 -0.008,0.0625 0.0117,0.22656 0.0117,0.22656 l -0.13672,0.28906 -0.5,0.0195 c 0,0 0.27344,0.1914 0.35547,0.66406 0.0781,0.47265 0.46875,1.125 1.41406,1.00781 0.94532,-0.11719 1.13282,-1.16016 1.13282,-1.16016 0,0 0.0117,-0.21093 0.0469,-0.28515 0.0352,-0.0703 0.14453,-0.20703 0.14453,-0.20703 l -0.29687,-0.082 -0.0547,-0.33594 c 0,0 0.54297,0.17187 1.33984,-0.22656 0.80079,-0.39844 1.09375,-0.58204 1.49219,-1.40625 0.39844,-0.82813 0.42578,-0.8086 0.42578,-0.8086 l -0.13672,-0.53515 0.1836,-0.2461 0.59765,-0.59765 0.125,-0.34766 -0.46875,-0.26172 c 0,0 0.30469,-0.60156 0.3711,-0.72656 0.0625,-0.125 0.0976,-0.48047 0.0976,-0.48047 l -0.32421,-0.33594 c 0,0 0.1914,-0.80078 0.16015,-1.43359 -0.0273,-0.63672 -0.26953,-0.94531 -0.26953,-0.94531 0,0 -0.0352,-0.75391 -0.082,-0.88282 -0.0469,-0.125 -0.10938,-0.24218 -0.10938,-0.24218 l 0.0547,-0.64454 0.0352,-0.082 c 0,0 0.18359,-0.0391 0.23828,-0.20312 0.0547,-0.16406 0.58203,-2.64844 0.58203,-2.64844 l -0.50781,-0.21875 -0.0742,0.14453 c 0,0 -0.27344,-0.24219 -0.35547,-0.25 -0.082,-0.0117 -1.01562,-0.13672 -1.0625,-0.0742 -0.13281,0.1875 -0.0156,0.36719 0.21875,0.41407 0.61719,0.14062 0.75391,0.42968 0.77344,0.58203 0.0117,0.10937 -0.75391,1.32812 -0.75391,1.32812 0,0 -0.41797,0.81641 -0.41015,0.92578 0.0117,0.10938 -0.71485,0.74219 -0.71485,1.07813 0,0.33594 -0.21875,1.40625 -0.21875,1.40625 0,0 -0.49219,-0.42188 -0.73437,-0.45313 -0.2461,-0.0273 -0.56641,-0.125 -0.76563,-0.44531 -0.19531,-0.31641 0.13672,-0.46094 0.21094,-0.66016 0.0703,-0.19921 0.28906,-1.52734 0.37109,-1.79687 0.082,-0.27344 0.38282,-1.13672 0.38282,-1.13672 l -0.51172,-0.30469 -0.15235,0.043 c 0,0 -0.0898,-0.12109 -0.16406,-0.17187 -0.0742,-0.0547 -0.65234,-0.32813 -0.65234,-0.32813 0,0 -0.64453,0 -0.69922,0.008 -0.0547,0.008 -0.082,0.39844 0.26172,0.42579"
           id="path9789-3-9-4-1" />
        <path
           d="m 786.48447,552.96765 c 0.17578,0.0547 0.33203,0.0742 0.38672,0.0742 0.10156,0 0.11719,-0.0117 0.11719,-0.0117 l 0.30078,0.0273 0.0117,-0.60156 -0.0742,-0.11719 0.0898,-0.46093 c 0,0 0.0234,-0.88672 -0.004,-1.14453 -0.0274,-0.26172 -1.13672,-0.10547 -1.13672,-0.10547 0,0 -0.082,0.27343 0.0351,0.34375 0.0937,0.0508 0.39454,-0.0274 0.4336,0.22656 -0.0352,0.17969 -0.0664,0.32031 -0.0742,0.33594 -0.0273,0.0391 -0.0312,0.1875 -0.0742,0.15625 -0.043,-0.0352 -0.10156,0.0469 -0.1875,0.0742 -0.0508,0.0156 -0.125,-0.0274 -0.17187,-0.0664 v -0.008 c 0,0 -1.30469,-0.91016 -1.76954,-1.04297 -0.28515,-0.082 -0.69921,-0.10938 -1,-0.10547 v -0.0156 l -0.73046,-0.0117 -0.11719,0.0742 -0.45703,-0.0859 c 0,0 -1.38282,-0.0312 -1.64063,0 -0.26172,0.0234 -0.082,0.0976 -0.082,0.0976 0,0 0.0117,0.2461 0.14063,0.34375 0.1289,0.0977 1.1914,0.27344 1.23437,0.30078 0.043,0.0312 0.1875,0.0352 0.15625,0.0742 -0.0352,0.043 0.0469,0.10157 0.0742,0.1875 0.0273,0.082 -0.10156,0.21875 -0.10156,0.21875 l -0.0312,0.0508 h -0.004 c -0.22656,0.40625 -0.92578,1.41016 -1,1.52735 -0.0703,0.11719 -0.32422,0.39453 -0.32422,0.39453 0,0 -0.14062,-0.17188 -0.36719,-0.15234 -0.22265,0.0195 -0.46484,0.15234 -0.5039,0.13671 -0.0352,-0.0195 -0.16797,-0.1289 -0.24219,-0.11718 -0.0703,0.008 -0.1875,0.17968 -0.1875,0.17968 l -0.28516,-0.0937 -0.89843,-0.23046 2.51172,1.74218 0.26171,0.20703 c 0,0 -0.44921,-0.0351 -0.9414,-0.20703 -0.4961,-0.17187 -0.92578,-0.39453 -1.58203,-0.39453 -0.65625,0 -1.92188,-0.14453 -1.92188,-0.14453 l -0.0351,0.13672 c 0,0 -0.94922,-0.21875 -1.1211,-0.17969 -0.17187,0.0312 -0.68359,0.3125 -0.69922,0.35547 -0.0195,0.0469 -0.1289,0.31641 0.0703,0.49609 0.19531,0.17969 0.90625,0.21485 0.96875,0.20704 0.0625,-0.008 0.11718,-0.0195 0.11718,-0.0195 l 0.10547,0.15235 0.51563,-0.14063 c 0,0 1.34375,0.27735 1.53515,0.375 0.1875,0.0977 0.32032,0.20703 0.36719,0.17969 0.0469,-0.0273 0.125,-0.0898 0.125,-0.0898 0,0 0.56641,0.27734 0.64844,0.30468 0.0781,0.0274 0.20703,0.24219 0.20703,0.24219 0,0 -0.23438,0.20703 -0.30078,0.33203 -0.0586,0.12891 -0.10547,0.21485 -0.23047,0.29688 -0.125,0.082 -0.28906,0.4375 -0.29688,0.49219 -0.008,0.0547 -0.13671,0.0117 -0.19921,0.0547 -0.0625,0.0469 -0.25782,0.40625 -0.25782,0.53125 0,0.125 0.35938,0.47657 0.41407,0.54688 0.0508,0.0742 0.25781,0.26953 0.40234,0.28906 0.14453,0.0156 0.15234,0.0977 0.30469,0.15234 0.15234,0.0547 0.42187,0.125 0.49609,0.125 0.0703,0 0.008,-0.0703 0.22266,-0.0273 0.21484,0.043 0.33203,-0.043 0.40625,-0.22266 0.0703,-0.18359 0.26562,-0.44921 0.30468,-0.51171 0.0352,-0.0664 0.0274,-0.19141 0.0274,-0.19141 0,0 0.0703,-0.14844 0.0703,-0.29297 0,-0.14453 0.043,-0.40625 0.043,-0.40625 0,0 0.35937,0.20703 0.53125,0.23438 0.16797,0.0273 0.60156,0.0547 0.68359,0.0351 0.0781,-0.0156 0.15235,0.0547 0.0156,0.13672 -0.13281,0.0781 -0.34766,0.20313 -0.34766,0.25 0,0.043 0.10547,0.25 0.23438,0.26172 0.125,0.008 0.23047,-0.0273 0.42187,0.0781 0.1875,0.10938 0.47266,0.17188 0.47266,0.0899 0,-0.0781 -0.043,-0.16797 -0.043,-0.25 0,-0.082 0.0352,-0.41406 0.10937,-0.44141 0.0703,-0.0273 0.91407,0 1.32422,-0.30469 0.41797,-0.30468 0.71094,-0.42968 0.875,-0.57421 0.16016,-0.14454 0.58203,-1.21094 0.58985,-1.35547 0.0117,-0.14453 -0.13282,-0.56641 -0.13282,-0.56641 0,0 0.71875,-1.14844 0.87891,-1.40234 0.14453,-0.22266 0.35938,-0.75391 0.33203,-1.03516 m -3.38281,-0.27344 c -0.35938,0.0899 -0.65625,0.16016 -0.65625,0.16016 l 0.23828,-0.53516 c 0.10938,0.10157 0.25781,0.23047 0.41797,0.375"
           id="path9791-2-2-9-5-1" />
        <path
           d="m 782.90635,556.16296 c -0.3125,0.1836 -0.35157,0.28907 -0.52735,0.17969 -0.17578,-0.11328 -1.17187,-0.80469 -1.375,-0.92969 -0.20312,-0.125 -0.69531,-0.28906 -0.89843,-0.34765 -0.20313,-0.0625 -0.44922,-0.008 -0.64063,-0.11328 -0.1875,-0.10157 -6.00391,-3.92579 -6.00391,-3.92579 l 0.125,-0.20703 0.51563,0.35938 0.19922,-0.0117 1.55078,0.94922 2.29687,1.34765 0.1836,0.11329 0.0781,-0.10547 1.16407,0.36718 -0.16407,0.35157 0.27344,0.29297 c 0,0 1.20313,0.13671 1.31641,0.20312 0.11328,0.0664 -0.0899,0.0156 0.17968,0.17969 0.26954,0.16406 1.81641,0.77734 2.01563,0.86719 0.19531,0.0859 -0.0312,0.28906 -0.0312,0.28906 z m 0,0"
           id="path9793-4-1-2-5" />
        <path
           style="fill:#000000;fill-opacity:1;fill-rule:evenodd;stroke:none"
           d="m 862.66906,561.58115 c 0.019,-0.0156 0.1563,-0.1211 0.2149,-0.14063 0.059,-0.0195 0.059,-0.008 0.07,0.0195 0.01,0.0273 0,0.16797 0,0.1836 -0.01,0.0156 -0.074,0.14453 -0.078,0.1875 0,0.0469 -0.062,0.0234 -0.062,0.0234 0,0 -0.1562,-0.17968 -0.1953,-0.22656 0,0 0.031,-0.0312 0.051,-0.0469 m -1.539,0.0742 c 0.023,0.043 0.1406,0.21875 0.1836,0.28516 0.047,0.0664 0.1406,0.24219 0.1953,0.29297 0.055,0.0547 0.2031,0.20312 0.25,0.28125 0.051,0.0781 0.2968,0.36719 0.3242,0.42578 0.027,0.0586 0.055,0.10156 0.1055,0.16016 0.051,0.0586 0.2304,0.23047 0.2734,0.26562 0.039,0.0391 0.1055,0.10156 0.1367,0.13281 0.031,0.0312 0.039,0.0664 0.051,0.0937 0.01,0.0234 0.1211,0.0234 0.125,0.0547 0,0.0352 -0.031,0.11328 -0.023,0.16016 0.01,0.0508 0.094,0.17578 0.1094,0.21484 0.02,0.043 0.039,0.0703 0.051,0.13672 0.016,0.0664 0.086,0.1875 0.1601,0.21484 0.066,0.0274 0.1524,0.0156 0.1758,0.0352 0.02,0.0195 0.051,0.0234 0.1055,0.0273 0.059,0.004 0.082,-0.0234 0.1406,-0.0273 0.059,-0.004 0.2305,0.004 0.2578,-0.008 0.027,-0.0156 0.2774,-0.21094 0.3164,-0.23438 0.043,-0.0234 0.016,-0.0391 0.062,0.008 0.047,0.0508 0.062,0.0391 0.074,0.0664 0.01,0.0234 -0.012,0.20313 -0.012,0.22266 0,0.0156 -0.1797,0 -0.2109,0.0117 -0.039,0.0156 -0.1758,0.043 -0.1758,0.0898 0,0.043 0.027,0.16016 0.066,0.22266 0.039,0.0625 0.027,0.3789 0.027,0.4414 0,0.0625 0.094,0.8711 0.7695,1.06641 0.3399,0.10156 0.6055,0.0781 0.8399,-0.11719 0.1992,-0.15625 0.2773,-0.48437 0.3398,-0.58203 0.062,-0.0977 0.1133,-0.16406 0.1719,-0.19531 0.055,-0.0352 0.1172,-0.0899 0.074,-0.20313 -0.043,-0.10937 -0.1797,-0.35937 -0.2695,-0.41797 -0.098,-0.0586 -0.1133,-0.0664 -0.1133,-0.0664 0,0 -0.01,-0.10156 -0.043,-0.14844 -0.031,-0.0508 -0.051,-0.0898 -0.062,-0.11328 -0.016,-0.0195 -0.023,-0.21875 -0.031,-0.26563 -0.012,-0.0508 -0.059,-0.12109 -0.098,-0.14062 -0.031,-0.0195 -0.1406,-0.0664 -0.1758,-0.0781 -0.035,-0.0156 -0.059,-0.0273 -0.078,-0.0547 -0.016,-0.0274 0,-0.0899 0,-0.0899 l 0.09,-0.004 0.051,-0.0547 h 0.082 l 0.09,-0.10547 0.078,-0.004 0.055,-0.0742 0.062,0.004 c 0,0 0.3438,-0.23047 0.3984,-0.26172 0.059,-0.0312 0.1133,0 0.1485,-0.0664 0.035,-0.0664 0.082,-0.22266 0.09,-0.25782 0.01,-0.0391 0.082,-0.17187 0.094,-0.23437 0.01,-0.0625 0.023,-0.23047 0.023,-0.23047 0,0 0.031,-0.16406 0.051,-0.18359 l 0.012,-0.10938 c 0,0 -0.016,-0.0586 -0.016,-0.082 0,-0.0234 0.023,-0.0273 0.035,-0.0703 0.012,-0.043 -0.01,-0.14844 0,-0.21094 0.01,-0.0625 0.055,-0.0898 0.094,-0.14062 0.039,-0.0508 0,-0.11329 0,-0.14063 0,-0.0234 0,-0.20703 0,-0.26172 0,-0.0508 0.09,-0.0664 0.1523,-0.0898 0.066,-0.0195 0.1406,-0.10547 0.1602,-0.10547 l 0.4023,-0.004 c 0.023,0 0.027,0.004 0.062,0.0352 0.031,0.0273 0.066,0.0195 0.066,0.0195 l 0.2305,0.082 c 0,0 0.01,0.0234 0.035,0.0273 0.027,0.004 0.1094,-0.0937 0.1289,-0.13672 0.016,-0.0469 0.012,-0.0312 0.012,-0.0312 h 0.5078 l 0.035,0.0391 0.1367,0.0117 c 0,0 0,0.0781 0.031,0.12109 0.027,0.0469 0.027,0.11328 0.07,0.11328 0.039,0 0.059,-0.0469 0.082,-0.0391 0.019,0.008 0.031,0.043 0.047,0.0352 0.019,-0.0117 0.066,-0.0586 0.066,-0.0937 0,-0.0352 0.023,-0.15625 0.023,-0.15625 l 0.078,-0.0664 h 0.379 c 0,0 0.023,0 0.023,-0.043 0,-0.0391 0,-0.41797 -0.082,-0.44531 -0.082,-0.0273 -0.125,-0.0234 -0.125,-0.0234 h -0.9922 c 0,0 0.016,0.0859 0,0.0625 -0.012,-0.0195 -0.09,-0.12109 -0.125,-0.15625 -0.035,-0.0273 -0.09,-0.004 -0.125,0.0195 -0.039,0.0234 -0.062,0.0508 -0.082,0.0586 -0.016,0.008 0,-0.0312 -0.039,-0.0352 -0.035,-0.004 -0.094,0.0117 -0.094,0.0117 0,0 -0.016,-0.0156 -0.078,-0.0312 -0.066,-0.0117 -0.1446,0.0547 -0.1446,0.0547 0,0 -0.051,-0.0664 -0.086,-0.082 -0.035,-0.0117 -0.094,0.008 -0.1172,-0.004 -0.02,-0.0117 -0.1484,-0.0977 -0.207,-0.10547 -0.059,-0.0117 -0.2891,-0.0195 -0.3125,0 -0.027,0.0156 -0.4062,0.0352 -0.4062,0.0352 0,0 -0.4649,0.0781 -0.5157,-0.0312 -0.047,-0.11328 0.094,-0.63672 0.094,-0.63672 0,0 0.078,-0.19922 0.1094,-0.4336 0.01,-0.0625 0.1523,-0.19531 0.125,-0.19921 -0.027,-0.008 0.1328,-0.10547 0.1328,-0.14844 0,-0.0391 0.047,-0.49219 0.059,-0.60547 0.012,-0.11328 0.027,-0.71484 0.027,-0.78125 0,-0.0664 -0.023,-0.33984 -0.039,-0.37109 -0.019,-0.0312 -0.09,-0.11329 -0.1289,-0.12891 -0.035,-0.0156 0.023,-0.46875 0.016,-0.5625 -0.01,-0.0937 -0.055,-0.29297 -0.1055,-0.36719 -0.047,-0.0703 -0.047,-0.0703 -0.027,-0.1289 0.016,-0.0586 0.062,-0.27735 0.027,-0.40235 -0.027,-0.125 -0.09,-0.15625 -0.086,-0.18359 0,-0.0312 0.059,-0.20703 0.059,-0.26172 0,-0.0547 0,-0.16406 -0.035,-0.16406 -0.031,0 -0.051,-0.0274 -0.051,-0.0664 0,-0.0391 -0.027,-0.63281 -0.039,-0.71875 -0.016,-0.0898 -0.1054,-0.89062 -0.1093,-0.91406 0,-0.0195 0,-0.0547 0,-0.0547 0,0 0.074,-0.082 0.055,-0.13672 -0.023,-0.0508 -0.062,-0.082 -0.051,-0.11719 0.012,-0.0391 0.019,-0.16796 0.019,-0.16796 0,0 0.023,-0.10157 0.023,-0.1211 0,-0.0156 0.055,-0.0547 0.07,-0.0742 0.012,-0.0234 0.043,-0.0703 0.086,-0.082 0.039,-0.008 0.047,-0.0469 0.059,-0.0742 0.016,-0.0273 0.25,-0.26172 0.4375,-0.29687 0.1797,-0.0391 0.4804,-0.15625 0.5117,-0.16406 0.031,-0.008 0.086,-0.1211 0.086,-0.1875 0,-0.0664 0.016,-0.10938 0.02,-0.12891 0,-0.0156 0.023,-0.0547 -0.055,-0.0977 -0.074,-0.0469 -0.2422,-0.21093 -0.4336,-0.19922 -0.1953,0.0156 -0.5039,-0.0156 -0.8125,0.14063 -0.3047,0.15625 -0.3711,0.24609 -0.3711,0.24609 l -0.1328,-0.0586 c 0,0 -0.2305,0.0195 -0.3242,0.0703 -0.094,0.0547 -0.1719,0.11328 -0.1719,0.11328 v 0.21485 c 0,0 -0.039,0.0312 -0.043,0.0703 0,0.0391 -0.031,0.16406 0.016,0.22266 0.043,0.0586 0.019,0.0586 0.023,0.10546 0,0.043 0.051,0.1211 0.094,0.14844 0.047,0.0195 0.012,0.0781 0.012,0.11719 0,0.043 0.01,0.16406 0.023,0.20703 0.019,0.0391 0.047,0.0547 0.01,0.10938 -0.043,0.0586 -0.1445,0.15234 -0.098,0.19531 0.051,0.0469 0.1016,0.11719 0.066,0.18359 -0.035,0.0664 -0.055,0.0781 -0.062,0.1836 0,0.10546 -0.078,0.82031 -0.074,0.91406 0.01,0.0976 0.016,0.3789 0.016,0.39453 0,0.0195 0.027,-0.004 0.043,0.0234 0.012,0.0273 -0.066,0.10937 -0.074,0.13281 -0.012,0.0234 -0.016,0.18359 0,0.22266 0.019,0.043 0.043,0.0703 0.031,0.10156 -0.012,0.0391 -0.039,0.0781 -0.059,0.0898 -0.019,0.0156 -0.1055,-0.14844 -0.1875,-0.25 -0.082,-0.10156 -0.2695,-0.29297 -0.2852,-0.33984 -0.019,-0.0547 -0.055,-0.17969 -0.031,-0.21875 0.023,-0.0312 0.066,-0.14453 -0.023,-0.19141 -0.09,-0.043 -0.066,-0.0234 -0.082,-0.10547 -0.023,-0.0859 -0.027,-0.26172 -0.027,-0.32812 0,-0.0625 -0.07,-0.47266 -0.086,-0.51563 -0.02,-0.0469 -0.1484,-0.47265 -0.1484,-0.51562 0,-0.0469 -0.055,-0.37891 -0.055,-0.41016 0,-0.0391 -0.027,-0.19531 -0.027,-0.2539 0,-0.0586 -0.019,-0.20704 -0.019,-0.25782 0,-0.0508 -0.02,-0.17968 -0.012,-0.21484 0.012,-0.0352 0.01,-0.22656 0.039,-0.3125 0.031,-0.0859 0.1485,-0.30469 0.1524,-0.32422 0.01,-0.0234 0.023,-0.20312 0.051,-0.20703 0.027,-0.004 0.09,-0.082 0.1054,-0.11328 0.019,-0.0274 0.098,-0.24219 0.086,-0.28906 -0.01,-0.043 0,-0.21094 -0.035,-0.29297 -0.031,-0.0859 -0.1836,-0.13282 -0.1836,-0.13282 -0.055,-0.0117 -0.2773,-0.0234 -0.4218,0.0469 -0.1485,0.0703 -0.293,0.19922 -0.3516,0.30469 -0.062,0.10547 -0.039,0.17578 -0.062,0.22656 -0.027,0.0547 -0.047,0.17187 -0.066,0.21875 -0.016,0.043 -0.078,0.16016 -0.1094,0.19531 -0.031,0.0352 -0.059,0.043 -0.059,0.11328 0,0.0703 -0.012,0.22266 -0.023,0.27344 -0.01,0.0586 0.016,0.10938 0.02,0.13281 0,0.0234 -0.023,0.15625 -0.02,0.17578 0.01,0.0156 0.051,0.0469 0.051,0.0742 0,0.0274 -0.043,0.0977 -0.043,0.11328 0,0.0195 0.016,0.17579 0.023,0.20313 0.012,0.0273 -0.023,0.10937 -0.062,0.16016 -0.035,0.0547 -0.074,0.0625 -0.031,0.1289 0.047,0.0664 0.1211,0.14453 0.1328,0.19141 0.01,0.043 0.016,0.1914 -0.016,0.32031 -0.031,0.12891 -0.055,0.72656 -0.055,0.86719 0,0.14453 -0.012,0.19531 0,0.23437 0.016,0.0391 0.039,0.0469 0.039,0.0664 0,0.0195 0.019,0.22266 0.016,0.26172 0,0.043 -0.062,0.0781 -0.062,0.11719 0,0.0391 0.027,0.17578 0.039,0.20312 0.016,0.0352 0.082,0.10938 0.086,0.16016 0.01,0.0469 -0.012,0.10547 -0.027,0.14062 -0.012,0.0352 -0.1797,0.64453 -0.2187,0.72266 -0.039,0.082 -0.094,0.23437 -0.1055,0.27734 -0.016,0.0469 -0.031,0.50781 -0.031,0.57031 0,0.0703 0.02,0.23829 0.016,0.27735 0,0.0351 -0.207,0.13672 -0.25,0.17578 -0.039,0.0391 -0.1211,0.14062 -0.1367,0.17578 -0.012,0.0352 0.016,0.16797 0.031,0.22656 0.019,0.0586 0.07,0.14063 0.066,0.19532 0,0.0547 -0.01,0.13281 0.027,0.21875 0.035,0.082 0.125,0.2539 0.1289,0.32031 0,0.0586 0,0.16015 0.012,0.1914 0,0.0312 0,0.0625 0.016,0.11329 0.016,0.0547 0.031,0.0586 0.035,0.15234 0,0.0937 0.031,0.13281 -0.043,0.23437 -0.078,0.0977 -0.1016,0.44532 -0.055,0.57032 0.051,0.125 0.125,0.28125 0.125,0.28125 0,0 -0.75,-0.25 -0.8086,-0.25391 -0.059,-0.008 -0.1484,0.0508 -0.1445,0.10938 0.012,0.0586 0.074,0.88671 0.074,0.88671 l -0.3438,0.22657 c 0,0 -0.086,0.004 -0.1289,0.0273 -0.047,0.0234 -0.1601,0.23047 -0.1719,0.25781 -0.01,0.0274 -0.047,0.25391 -0.039,0.30078 0.01,0.043 0.019,0.15235 0.039,0.1875"
           id="path4820-4-6-4-8" />
        <path
           d="m 861.92906,560.21324 c 0.1629,0.32241 0.139,0.43174 0.3492,0.43038 0.2105,0.004 1.4225,-0.0424 1.658,-0.0369 0.241,0.005 0.7438,0.1332 0.9463,0.18766 0.2028,0.0599 0.3821,0.24033 0.5959,0.25261 0.2171,0.0204 7.1789,-0.0693 7.1789,-0.0693 v -0.2381 l -0.6241,0.0202 -0.1671,-0.11184 -1.8173,-0.0367 -2.6598,-0.10596 -0.2134,-0.007 -0.01,-0.13228 -1.178,-0.31512 -0.052,0.38215 -0.3925,0.10063 c 0,0 -1.0855,-0.53086 -1.2159,-0.537 -0.1275,-0.004 0.064,0.0626 -0.2485,0.0562 -0.3159,-0.009 -1.9506,-0.32764 -2.1628,-0.3594 -0.2177,-0.0314 -0.1339,0.26244 -0.1339,0.26244 z m 0,0"
           id="path9759-2-8-7" />
      </g>
    </g>
  </g>
</svg>
