<?xml version="1.0" encoding="UTF-8" standalone="no"?>
<!-- Created with Inkscape (http://www.inkscape.org/) -->

<svg
   width="32.834187mm"
   height="10.69895mm"
   viewBox="0 0 32.834187 10.69895"
   version="1.1"
   id="svg6745"
   sodipodi:docname="inkporter-svg-5hwgz5am.svg"
   xmlns:inkscape="http://www.inkscape.org/namespaces/inkscape"
   xmlns:sodipodi="http://sodipodi.sourceforge.net/DTD/sodipodi-0.dtd"
   xmlns="http://www.w3.org/2000/svg"
   xmlns:svg="http://www.w3.org/2000/svg">
  <sodipodi:namedview
     id="namedview6747"
     pagecolor="#ffffff"
     bordercolor="#666666"
     borderopacity="1.0"
     inkscape:pageshadow="2"
     inkscape:pageopacity="0.0"
     inkscape:pagecheckerboard="0"
     inkscape:document-units="mm"
     showgrid="false"
     inkscape:zoom="0.66368547"
     inkscape:cx="397.02542"
     inkscape:cy="561.25984"
     inkscape:window-width="1920"
     inkscape:window-height="1017"
     inkscape:window-x="-8"
     inkscape:window-y="-8"
     inkscape:window-maximized="1"
     inkscape:current-layer="layer1" />
  <defs
     id="defs6742" />
  <g
     inkscape:label="Layer 1"
     inkscape:groupmode="layer"
     id="layer1"
     transform="translate(-92.054456,-130.1716)">
    <path
       d="m 122.79806,139.7245 0.0413,-0.0965 c 0.0634,-0.004 0.1254,-0.0138 0.18603,-0.0289 -0.073,0.0413 -0.14882,0.0841 -0.22737,0.1254 m -0.29352,-0.11024 0.0303,0.005 0.008,0.0413 z m -0.69453,0.58153 -0.24667,-0.30041 c -0.10749,-0.13229 -0.19431,-0.0413 -0.16261,0.0551 0.0234,0.0661 0.062,0.26045 0.0841,0.37207 -0.21498,0.0799 -0.42719,0.14745 -0.63252,0.19981 0.28387,-0.17914 0.47267,-0.49609 0.47267,-0.85576 0,-0.23426 -0.0799,-0.44924 -0.21222,-0.62011 h 0.47404 l -0.16398,0.35829 0.40514,-0.13643 c 0.0579,0.0565 0.12127,0.10749 0.18879,0.15158 l -0.0276,0.38723 0.28388,-0.19292 c 0.0248,0.0909 0.0551,0.24943 0.073,0.34175 -0.17501,0.0827 -0.35416,0.16399 -0.53605,0.23978 m -2.56178,0.4396 -0.88194,0.001 -0.073,-0.25218 c 0.18466,-0.18328 0.29903,-0.43684 0.29903,-0.71796 0,-0.0786 -0.01,-0.15434 -0.0262,-0.22738 l 0.17087,0.062 c -0.01,0.0538 -0.0138,0.10887 -0.0138,0.16537 0,0.3886 0.21911,0.72623 0.54019,0.89572 z m -1.21129,0.001 h -0.16813 c 0.0648,-0.0193 0.12541,-0.0441 0.18328,-0.0744 z m -0.75792,0.001 0.007,-0.003 0.007,0.003 z m -1.18925,0.001 -0.10749,-0.36793 c -0.0469,-0.16261 -0.16399,-0.11438 -0.17088,-0.0138 -0.005,0.073 -0.0468,0.27148 -0.0703,0.38172 l -0.83646,0.001 -0.0372,-0.12678 c 0.27561,-0.18052 0.45888,-0.49334 0.45888,-0.84749 0,-0.0744 -0.008,-0.14745 -0.0234,-0.21773 l 0.38309,-0.0772 0.31006,0.11024 c -0.011,0.0593 -0.0165,0.12127 -0.0165,0.18466 0,0.46026 0.3073,0.84887 0.72898,0.97152 z m -2.15939,0.003 c 0.0193,-0.005 0.0372,-0.011 0.0565,-0.0179 0.0193,0.007 0.0386,0.0124 0.0565,0.0179 z m -0.76894,0.001 -0.565,0.001 -0.10886,-0.37344 c -0.0469,-0.16261 -0.16399,-0.11438 -0.17088,-0.0138 -0.004,0.0744 -0.0469,0.27837 -0.0717,0.38723 l -0.7593,0.001 -0.0317,-0.10887 c 0.29766,-0.17639 0.49748,-0.50023 0.49748,-0.87092 0,-0.0882 -0.011,-0.17226 -0.0317,-0.25356 l 0.40101,-0.062 0.34864,0.11162 c -0.0138,0.0661 -0.0207,0.13367 -0.0207,0.20395 0,0.38447 0.21497,0.71933 0.53192,0.89159 z m -2.58107,0.004 c 0.0179,-0.005 0.0358,-0.01 0.0537,-0.0165 0.0179,0.007 0.0358,0.011 0.0537,0.0165 z m -0.65457,0.001 h -0.80064 l -0.11024,-0.37758 c -0.0482,-0.16261 -0.16261,-0.11438 -0.17088,-0.0138 -0.005,0.0744 -0.0496,0.28525 -0.073,0.39274 l -0.83096,0.001 c 0.44649,-0.10611 0.77859,-0.50712 0.77859,-0.9853 0,-0.0896 -0.0124,-0.17639 -0.0344,-0.26045 l 0.27285,-0.0661 0.38034,0.12126 c -0.0138,0.0662 -0.0207,0.13505 -0.0207,0.20533 0,0.4203 0.25631,0.77997 0.62011,0.93293 z m -2.54385,0.003 c 0.0152,-0.003 0.0303,-0.007 0.0455,-0.0124 0.0165,0.005 0.0303,0.01 0.0468,0.0124 z m -0.63941,10e-4 -0.0207,-0.0689 c 0.0634,0.0289 0.13092,0.0524 0.19982,0.0689 z m -0.35554,0 -0.74414,0.001 -0.11162,-0.3831 c -0.0469,-0.1626 -0.16399,-0.11437 -0.17088,-0.0138 -0.005,0.0758 -0.051,0.29077 -0.073,0.39688 l -0.67662,10e-4 c 0.45613,-0.0978 0.79788,-0.50437 0.79788,-0.98944 0,-0.0923 -0.0124,-0.18189 -0.0358,-0.26595 l 0.53605,-0.0717 0.25356,0.11437 c -0.0165,0.0717 -0.0248,0.14607 -0.0248,0.22324 0,0.2825 0.11576,0.53882 0.30317,0.7221 -0.0165,0.0896 -0.04,0.19844 -0.0537,0.26458 m -3.30179,-0.4892 0.003,-0.011 0.0193,0.0221 z m -0.30454,-0.17364 c -0.15021,-0.0896 -0.30041,-0.1819 -0.44786,-0.2756 l 0.0978,-0.3266 c 0.007,-0.0207 0.011,-0.04 0.011,-0.0565 0.14608,-0.003 0.25632,-0.0248 0.25632,-0.0248 l 0.17088,0.0813 c -0.006,0.0413 -0.008,0.0827 -0.008,0.1254 0,0.11851 0.0207,0.23151 0.0579,0.33762 -0.0496,0.051 -0.10198,0.10335 -0.1378,0.13918 m -0.72209,-0.45475 c -0.29215,-0.19293 -0.55949,-0.38172 -0.77722,-0.53744 0.11024,0.0441 0.23013,0.0689 0.35553,0.0689 0.0537,0 0.10474,-0.004 0.15572,-0.0124 0.0896,0.18052 0.2825,0.24804 0.46854,0.27009 -0.0524,0.0579 -0.13781,0.14607 -0.20257,0.21084 m 6.2618,-8.66372 h 0.0937 v 0.41479 h -0.0937 z m 16.39038,6.83506 c -0.0841,0.0675 -0.1626,0.0138 -0.18741,-0.12264 l 0.20946,-0.30179 -1.11069,-1.0349 h -0.31557 l -0.78412,-0.76247 v -0.75104 h -3.62562 l -0.29352,0.17364 v 0.23978 h -0.22875 v -0.42444 h -1.59991 v -0.0978 h -0.31557 v 0.11989 h -1.57923 v 0.37069 h -0.4892 v -2.89663 h -0.76206 v -0.33762 h -0.46853 v 0.33762 h -0.52228 v -0.19569 h -0.46853 v 0.19569 h -0.93569 v -0.22876 h -0.41479 v 0.22876 h -1.01561 c -0.12127,-0.25494 -0.42444,-0.43547 -0.77997,-0.43547 -0.22187,0 -0.42306,0.0703 -0.57327,0.18466 h -0.31281 l -0.37345,-0.25356 v -0.073 c 0,0 0.14194,0.0193 0.2949,-0.10749 0.15434,-0.12678 0.16812,-0.21497 0.16812,-0.21497 h 0.35416 v -0.44787 h 0.0469 v -0.0482 l -0.0469,-0.005 -0.16675,0.005 h -0.12126 v 0.0482 h -0.34176 l 0.14883,-0.24804 h 0.073 v -0.44924 h -0.46165 v 0.41479 l 0.0799,0.0606 v 0.17363 h -0.23427 l -0.0606,-0.0592 v -0.2012 h -0.69039 v 0.0675 h -0.14745 l -0.073,0.1006 h -0.2949 l -0.16123,0.0799 h -2.33715 v -0.12127 h 0.0331 v -0.25356 h -0.13367 v 0.25356 h 0.04 v 0.12127 h -0.3886 v -0.0799 h -0.0882 v 0.0648 l -0.42719,-0.0786 v 0.30179 l 0.42719,-0.0785 v 0.0441 h 0.0882 l 0.007,-0.0593 h 0.61598 v 0.17363 h 1.97611 v 0.11989 h -1.06523 l -0.10059,0.0675 0.11437,0.15434 h 1.78181 l 0.21359,0.04 h 0.44924 v 0.25493 l -0.17363,0.1695 v -0.23013 h -0.47818 v 0.2508 h -0.24115 l -0.38035,0.2825 -0.5333,0.011 -0.33762,0.14194 -0.50022,-0.0772 c 0,0 -1.41525,0.11988 -1.6881,0.13091 -0.27147,0.011 -0.23978,0.27285 -0.23978,0.27285 l -0.53467,0.78824 h -0.58981 l -0.10335,0.11024 h -1.871377 l -0.119888,0.12816 h -4.391809 l -0.100594,-0.10749 h -0.87919 l -0.103353,0.11025 c 0,0 -1.814876,-0.0152 -1.828655,0 -0.01379,0.0152 -0.186038,0.13229 -0.186038,0.13229 v 0.73036 c 0,0 0.172255,0.11713 0.186038,0.13091 0.01379,0.0152 1.828655,0 1.828655,0 l 0.103353,0.11162 h 0.87919 l 0.100594,-0.10886 h 4.391809 l 0.119888,0.12953 h 0.899867 v 0.83785 c 0,0.0772 0.19705,0.21773 0.40376,0.21773 0.2067,0 0.27147,0.0978 0.43408,0.0978 h 1.01286 l 0.0661,0.11989 c 0,0 -0.58843,0.011 -0.82821,0.011 -0.2384,0 -0.5333,0.0758 -0.66421,0.14194 -0.12954,0.0648 -0.84887,0.56637 -0.84887,0.56637 l 0.49334,0.74827 c -0.20533,0.51401 -0.24392,1.04456 0.47818,1.55994 0.77859,0.55535 2.44463,1.72944 3.35001,1.72944 0.86127,0 14.60996,-0.0221 15.63522,-0.0221 1.05971,0 2.72438,-0.83233 3.50021,-1.34634 0.52504,-0.34865 0.74277,-0.93293 0.59118,-1.43454 l 0.0965,-0.1378 c 0.17638,0.0317 0.19154,0.20119 0.11161,0.2632 -0.0978,0.0772 -0.0551,0.21773 0.17364,0.13092 0.22875,-0.0868 0.2949,-0.2825 0.31557,-0.50023 0.0221,-0.21773 -0.0537,-0.21773 -0.17363,-0.11989"
       id="S-ISU152"
       style="stroke-width:0.352778" />
  </g>
</svg>
