<?xml version="1.0" encoding="UTF-8" standalone="no"?>
<!-- Created with Inkscape (http://www.inkscape.org/) -->

<svg
   width="32.83419mm"
   height="10.699057mm"
   viewBox="0 0 32.83419 10.699057"
   version="1.1"
   id="svg19336"
   sodipodi:docname="inkporter-svg-u5nqeguw.svg"
   xmlns:inkscape="http://www.inkscape.org/namespaces/inkscape"
   xmlns:sodipodi="http://sodipodi.sourceforge.net/DTD/sodipodi-0.dtd"
   xmlns="http://www.w3.org/2000/svg"
   xmlns:svg="http://www.w3.org/2000/svg">
  <sodipodi:namedview
     id="namedview19338"
     pagecolor="#ffffff"
     bordercolor="#666666"
     borderopacity="1.0"
     inkscape:pageshadow="2"
     inkscape:pageopacity="0.0"
     inkscape:pagecheckerboard="0"
     inkscape:document-units="mm"
     showgrid="false"
     inkscape:zoom="0.45291836"
     inkscape:cx="569.63908"
     inkscape:cy="577.36675"
     inkscape:window-width="1920"
     inkscape:window-height="1017"
     inkscape:window-x="-8"
     inkscape:window-y="-8"
     inkscape:window-maximized="1"
     inkscape:current-layer="layer1" />
  <defs
     id="defs19333" />
  <g
     inkscape:label="Layer 1"
     inkscape:groupmode="layer"
     id="layer1"
     transform="translate(-62.17904,-90.230933)">
    <path
       d="m 92.923102,99.780737 0.04134,-0.09646 c 0.06339,-0.0041 0.125401,-0.01379 0.186033,-0.02893 -0.07303,0.04134 -0.148826,0.08406 -0.227375,0.125398 m -0.293522,-0.110243 0.0303,0.0055 0.0083,0.04134 z m -0.694531,0.581538 -0.24667,-0.300416 c -0.107488,-0.132292 -0.194303,-0.04134 -0.162609,0.05512 0.02342,0.0661 0.06201,0.26045 0.08406,0.37207 -0.214972,0.0799 -0.427189,0.14745 -0.63252,0.19981 0.283877,-0.17914 0.472669,-0.49609 0.472669,-0.855747 0,-0.234266 -0.07993,-0.449242 -0.212217,-0.620117 h 0.474045 l -0.163988,0.358289 0.405144,-0.136423 c 0.05788,0.0565 0.121267,0.107484 0.188792,0.151581 l -0.02755,0.38723 0.283877,-0.192927 c 0.0248,0.09095 0.05512,0.249428 0.07304,0.341744 -0.17501,0.0827 -0.354158,0.16399 -0.536057,0.23978 m -2.561773,0.43959 -0.881945,0.001 -0.07304,-0.25217 c 0.184658,-0.18328 0.299032,-0.43684 0.299032,-0.717952 0,-0.07855 -0.0096,-0.15434 -0.02618,-0.227376 l 0.170875,0.06201 c -0.0096,0.05375 -0.01379,0.108868 -0.01379,0.165365 0,0.388593 0.219107,0.726213 0.540191,0.895713 z m -1.211294,0.001 h -0.168124 c 0.06477,-0.0193 0.125402,-0.0441 0.183279,-0.0744 z m -0.757922,10e-4 0.0069,-0.003 0.0069,0.003 z m -1.189249,0.001 -0.107485,-0.36794 c -0.04686,-0.16261 -0.163989,-0.11437 -0.170878,-0.0138 -0.0055,0.073 -0.04685,0.27147 -0.07028,0.38172 l -0.836468,0.001 -0.03721,-0.12678 c 0.275608,-0.18052 0.458886,-0.49334 0.458886,-0.847484 0,-0.07442 -0.0083,-0.14745 -0.02342,-0.217731 l 0.383092,-0.07717 0.31006,0.110243 c -0.01101,0.05926 -0.01655,0.121268 -0.01655,0.184658 0,0.460254 0.307305,0.848864 0.728984,0.971504 z m -2.159385,0.003 c 0.0193,-0.005 0.03721,-0.011 0.0565,-0.0179 0.0193,0.007 0.03858,0.0124 0.0565,0.0179 z m -0.768946,0.001 -0.564995,10e-4 -0.108864,-0.37345 c -0.04686,-0.1626 -0.163988,-0.11437 -0.170878,-0.0138 -0.0041,0.0744 -0.04685,0.27837 -0.07166,0.38723 l -0.759302,10e-4 -0.03168,-0.10887 c 0.297656,-0.17638 0.497473,-0.50022 0.497473,-0.870903 0,-0.08819 -0.01101,-0.172255 -0.03172,-0.253559 l 0.40101,-0.06201 0.348643,0.111623 c -0.01379,0.06615 -0.02067,0.133667 -0.02067,0.203948 0,0.384471 0.214973,0.719331 0.531922,0.891591 z m -2.581063,0.004 c 0.01792,-0.006 0.03583,-0.01 0.05374,-0.0165 0.01792,0.007 0.03583,0.011 0.05374,0.0165 z m -0.654569,0.001 h -0.80064 l -0.110243,-0.37758 c -0.04823,-0.16261 -0.162609,-0.11438 -0.170878,-0.0138 -0.0055,0.0744 -0.04961,0.28526 -0.07304,0.39274 l -0.830957,10e-4 c 0.446486,-0.10611 0.778591,-0.50712 0.778591,-0.98529 0,-0.08957 -0.01238,-0.176389 -0.03443,-0.260449 l 0.272849,-0.06615 0.38034,0.121267 c -0.01379,0.06615 -0.02067,0.135047 -0.02067,0.205328 0,0.420294 0.256314,0.779964 0.620116,0.932924 z m -2.543859,0.003 c 0.01517,-0.003 0.0303,-0.007 0.04548,-0.0124 0.01655,0.006 0.0303,0.01 0.04685,0.0124 z m -0.63941,0.001 -0.02067,-0.0689 c 0.06339,0.0289 0.130913,0.0524 0.199814,0.0689 z m -0.355533,0 -0.744142,10e-4 -0.111619,-0.38309 c -0.04686,-0.16261 -0.163989,-0.11438 -0.170879,-0.0138 -0.0055,0.0758 -0.05099,0.29076 -0.07304,0.39687 l -0.676617,10e-4 c 0.456131,-0.0978 0.797884,-0.50436 0.797884,-0.989416 0,-0.09233 -0.01242,-0.1819 -0.03583,-0.265959 l 0.536056,-0.07166 0.253559,0.114377 c -0.01655,0.07166 -0.0248,0.146072 -0.0248,0.223242 0,0.282486 0.115754,0.538806 0.303167,0.722086 -0.01655,0.0896 -0.03996,0.19843 -0.05374,0.26458 m -3.301782,-0.48921 0.0028,-0.011 0.0193,0.022 z m -0.304546,-0.17363 c -0.150205,-0.08957 -0.300411,-0.181886 -0.447862,-0.275595 l 0.09784,-0.326594 c 0.0069,-0.02067 0.01101,-0.03996 0.01101,-0.0565 0.146075,-0.0028 0.256318,-0.0248 0.256318,-0.0248 l 0.170875,0.0813 c -0.0055,0.04134 -0.0083,0.08268 -0.0083,0.125402 0,0.118512 0.02067,0.231511 0.05788,0.337619 -0.04961,0.05099 -0.101977,0.103348 -0.137805,0.139168 m -0.72209,-0.454738 c -0.292146,-0.192927 -0.559485,-0.381716 -0.777216,-0.537436 0.110243,0.0441 0.230135,0.0689 0.355533,0.0689 0.05375,0 0.104733,-0.0041 0.15572,-0.01238 0.08957,0.180523 0.282497,0.248045 0.468535,0.270093 -0.05237,0.05788 -0.137806,0.146072 -0.202572,0.210842 m 6.261805,-8.663729 h 0.0937 v 0.414793 h -0.0937 z m 16.390383,6.83507 c -0.08406,0.06753 -0.162606,0.01379 -0.187413,-0.122643 l 0.209462,-0.301791 -1.110696,-1.034906 H 93.431567 L 92.647452,95.538819 V 94.787787 H 89.021835 L 88.72831,94.961421 V 95.2012 H 88.4996 v -0.424437 h -1.599904 v -0.09784 h -0.31557 v 0.119888 h -1.579231 v 0.370692 H 84.515691 V 92.27287 h -0.762056 v -0.337619 h -0.468532 v 0.337619 h -0.522276 v -0.195683 h -0.468535 v 0.195683 h -0.935687 v -0.22876 h -0.414789 v 0.228756 h -1.015615 c -0.121268,-0.254939 -0.424434,-0.435462 -0.779971,-0.435462 -0.221862,0 -0.423054,0.07028 -0.573264,0.184658 h -0.312811 l -0.373451,-0.253559 v -0.07304 c 0,0 0.14194,0.0193 0.294901,-0.107488 0.154341,-0.126777 0.16812,-0.214972 0.16812,-0.214972 h 0.354157 V 90.92822 h 0.04685 v -0.04823 l -0.04685,-0.0055 -0.166744,0.0055 h -0.121267 v 0.04823 h -0.341754 l 0.14883,-0.248045 h 0.07304 v -0.449242 h -0.461645 v 0.414789 l 0.07993,0.06064 v 0.173633 h -0.234269 l -0.06063,-0.05926 v -0.201196 h -0.690397 v 0.06753 h -0.14745 l -0.07304,0.100598 h -0.294901 l -0.16123,0.07993 H 73.917199 V 90.74632 h 0.03306 v -0.253559 h -0.133671 v 0.253559 h 0.03996 v 0.121268 H 73.46794 v -0.07993 h -0.08819 v 0.06477 l -0.427193,-0.07855 v 0.301791 l 0.427193,-0.07855 v 0.0441 h 0.08819 l 0.0069,-0.05926 h 0.615986 v 0.173634 h 1.976105 v 0.119888 h -1.065223 l -0.100598,0.06753 0.114378,0.154341 h 1.781803 l 0.213596,0.03996 h 0.449241 v 0.254935 l -0.173633,0.169499 v -0.230131 h -0.47818 v 0.250804 H 76.56716 l -0.380341,0.282497 -0.533301,0.01101 -0.337619,0.141937 -0.500228,-0.07717 c 0,0 -1.415242,0.119888 -1.688095,0.130913 -0.271473,0.01101 -0.239779,0.272852 -0.239779,0.272852 l -0.534677,0.78824 h -0.589802 l -0.103353,0.110243 H 69.788588 L 69.6687,93.771098 H 65.27687 L 65.176275,93.66361 h -0.879189 l -0.103353,0.110243 c 0,0 -1.814876,-0.01517 -1.828656,0 -0.01379,0.01517 -0.186037,0.132292 -0.186037,0.132292 v 0.730359 c 0,0 0.172254,0.117133 0.186037,0.130916 0.01379,0.01517 1.828656,0 1.828656,0 l 0.103353,0.111619 h 0.879189 l 0.100595,-0.108864 h 4.391809 l 0.119888,0.129537 h 0.899862 v 0.837847 c 0,0.07717 0.197058,0.217727 0.403765,0.217727 0.206703,0 0.271473,0.09784 0.434082,0.09784 h 1.012857 l 0.06615,0.119888 c 0,0 -0.588423,0.01101 -0.828203,0.01101 -0.2384,0 -0.533301,0.07579 -0.664213,0.14194 -0.129537,0.06477 -0.848872,0.566371 -0.848872,0.566371 l 0.493339,0.748277 c -0.205327,0.514007 -0.243914,1.044553 0.47818,1.559937 0.778591,0.55535 2.444637,1.729441 3.350009,1.729441 0.861275,0 14.60996,-0.0221 15.63522,-0.0221 1.059713,0 2.724383,-0.83234 3.500219,-1.346344 0.525032,-0.348643 0.742763,-0.932932 0.591178,-1.434539 l 0.09646,-0.137802 c 0.176389,0.03168 0.191548,0.201192 0.111619,0.263204 -0.09784,0.07717 -0.05512,0.217731 0.173634,0.130916 0.228755,-0.08682 0.294901,-0.282498 0.31557,-0.500229 0.02205,-0.217731 -0.05374,-0.217731 -0.173634,-0.119891"
       id="S-ISU152-127cm"
       style="stroke-width:0.352778" />
  </g>
</svg>
