<?xml version="1.0" encoding="UTF-8" standalone="no"?>
<!-- Created with Inkscape (http://www.inkscape.org/) -->

<svg
   width="32.253815mm"
   height="11.323334mm"
   viewBox="0 0 32.253815 11.323334"
   version="1.1"
   id="svg6745"
   sodipodi:docname="inkporter-svg-a_9jalm6.svg"
   xmlns:inkscape="http://www.inkscape.org/namespaces/inkscape"
   xmlns:sodipodi="http://sodipodi.sourceforge.net/DTD/sodipodi-0.dtd"
   xmlns="http://www.w3.org/2000/svg"
   xmlns:svg="http://www.w3.org/2000/svg">
  <sodipodi:namedview
     id="namedview6747"
     pagecolor="#ffffff"
     bordercolor="#666666"
     borderopacity="1.0"
     inkscape:pageshadow="2"
     inkscape:pageopacity="0.0"
     inkscape:pagecheckerboard="0"
     inkscape:document-units="mm"
     showgrid="false"
     inkscape:zoom="0.66368547"
     inkscape:cx="397.02542"
     inkscape:cy="561.25984"
     inkscape:window-width="1920"
     inkscape:window-height="1017"
     inkscape:window-x="-8"
     inkscape:window-y="-8"
     inkscape:window-maximized="1"
     inkscape:current-layer="layer1" />
  <defs
     id="defs6742" />
  <g
     inkscape:label="Layer 1"
     inkscape:groupmode="layer"
     id="layer1"
     transform="translate(4.3985382,-91.202646)">
    <path
       d="m -4.0898577,96.44746 h 0.4354619 v -0.501608 h -0.4354619 z m 0.6338994,0 h 0.4354582 V 95.945852 H -3.4559583 Z M 14.265611,93.805761 v 0.868162 l 0.114377,0.100598 v -0.361047 l 0.307305,-0.246669 h 0.05236 v -0.361044 z m -5.8938691,8.225509 c 0.088194,0.0441 0.1736337,0.0841 0.2549384,0.11713 -0.1047327,-0.0758 -0.1915478,-0.17501 -0.2549384,-0.28801 z M 14.265611,91.202646 v 1.285709 h 0.638034 v 0.103353 h 0.175009 v -0.474045 h 0.381716 v 0.474045 h 0.432703 v 0.431328 h -0.474045 v 0.155716 h -0.515383 v 0.113001 h 0.07304 v 0.238401 l 0.509873,0.636651 h 0.07579 v -0.237021 h 0.48507 v 0.225996 h 0.781349 l 0.350023,0.340378 v 0.474045 h 0.299032 l 0.216352,0.297656 0.854385,0.237021 0.227376,0.391365 c 0,0 0.24529,-0.195683 0.348643,-0.08268 0.103353,0.113001 0.17501,0.267342 0.124023,0.453376 -0.05236,0.184658 -0.257694,0.267338 -0.257694,0.267338 l 0.07166,0.359668 H 18.5582 l -0.133667,0.237024 v 0.09233 h 0.05236 v -0.113002 h 0.216352 v 0.113002 H 19.5683 v -0.15297 h 0.339 v 0.152965 h 0.771701 v -0.101978 h 0.267339 v 0.101978 h 0.61874 v -0.0193 h 0.514008 v -0.124023 h 0.278363 v 0.124023 h 0.730363 v -0.17501 h 0.350019 v 0.17501 h 0.854385 v -0.103353 h 0.165365 v 0.103353 h 0.576019 v 0.338998 h 0.195682 l 0.556726,-0.143316 0.214975,-0.176389 0.206707,0.340375 c 0,0 1.379414,1.008725 1.524109,1.225077 0.143316,0.216351 0.184658,0.463021 0,0.844737 -0.08819,0.180523 -0.354157,0.421682 -0.610471,0.624252 -0.03168,0.56362 -0.343133,1.01286 -0.644924,1.19063 -0.351398,0.2067 -2.363332,1.07762 -3.068887,1.07762 H 9.1186395 c -0.683507,0 -2.1704088,-1.05557 -2.7671007,-1.46347 C 5.9477741,100.7869 5.54263,100.12268 6.0607723,99.439178 l -0.534677,-0.547081 c 0,0 0.5760191,-0.453376 0.9880529,-0.453376 h 0.4010096 v -0.267338 h 0.1240225 v 0.267338 h 0.6476788 c 0,0 0.037204,-0.07442 0.093705,-0.172254 L 7.5848817,98.037712 v -0.741384 c 0,0 0.5360564,0.08268 0.6104713,0.54846 0.2480486,-0.06063 0.9026172,-0.228755 0.9026172,-0.228755 h 0.2259965 v -0.330729 c 0,0 -0.2990356,-0.143316 -0.4630208,-0.24667 C 8.6969607,96.93666 8.5426204,96.791965 8.5426204,96.791965 H 8.1195622 v -0.124022 l -10.4593105,-0.267339 -0.3803368,0.15434 h -0.3913646 l -0.184658,0.112999 h -0.9274175 l -0.175013,-0.184658 V 95.91691 l 0.1653646,-0.206706 H -3.26579 l 0.1240226,0.103353 h 0.4313273 l 0.3706918,0.165365 9.0605996,0.0303 1.3573689,-0.06201 v -0.143298 h 0.4533759 l 0.5760191,-0.370692 0.3403741,-0.350023 h 0.6793727 l 0.350022,0.112999 0.833713,-0.133668 v -0.340378 h 0.545705 v 0.257694 h 0.48369 v -0.32935 h 1.029395 l 0.257693,0.225997 h 0.338999 l 0.227375,-0.267339 0.0096,-0.803395 h -0.04134 v -0.348643 h -0.267338 v -0.216355 h -0.833713 v -0.186034 h -1.132748 v -0.237021 h -0.956356 v 0.10335 H 10.74468 v -0.391361 h 0.227379 v 0.124023 h 0.596688 v -0.351399 h 0.154341 v 0.351399 h 0.205327 v -0.07304 h 2.233799 v -0.09233 h 0.04134 m 4.378029,9.547042 0.129536,0.24392 h 0.307302 l 0.14745,-0.24805 0.130912,0.24805 h 0.256315 l 0.148829,-0.24805 0.130913,0.24805 h 0.275607 l 0.14883,-0.24805 0.130913,0.24805 h 0.37345 c -0.35964,-0.12677 -0.61733,-0.46853 -0.61733,-0.87091 0,-0.0358 0.0028,-0.0717 0.0055,-0.10749 h -1.329806 c 0.0041,0.0358 0.0069,0.0717 0.0069,0.10749 0,0.24253 -0.0937,0.46164 -0.24529,0.627 m -0.150205,0.24392 0.139181,-0.23427 c -0.09922,0.10473 -0.221866,0.18466 -0.361047,0.23427 z m -2.811198,0 0.148826,-0.24805 0.130916,0.24805 h 0.307301 l 0.148826,-0.24805 0.130916,0.24805 h 0.256314 l 0.147451,-0.24805 0.130912,0.24805 h 0.276987 l 0.07166,-0.11989 c -0.234265,-0.16674 -0.387226,-0.44098 -0.387226,-0.75103 0,-0.0358 0.0028,-0.0717 0.0069,-0.10749 h -1.041798 c 0.0041,0.0358 0.0055,0.0717 0.0055,0.10749 0,0.40238 -0.257694,0.74414 -0.615982,0.87092 z m -2.779505,0 0.14883,-0.24805 0.130913,0.24805 h 0.307301 l 0.14745,-0.24805 0.132292,0.24805 h 0.256314 l 0.147451,-0.24805 0.130915,0.24805 h 0.276984 l 0.04548,-0.0772 c -0.270098,-0.15986 -0.453376,-0.45475 -0.453376,-0.79375 0,-0.0358 0.0028,-0.0717 0.0069,-0.10749 h -1.073489 c 0.0041,0.0358 0.0069,0.0717 0.0069,0.10749 0,0.40238 -0.257693,0.74414 -0.617361,0.87092 z m 8.644435,-0.0496 0.02618,0.0496 h 0.305922 l 0.14883,-0.24805 0.132292,0.24805 h 0.254934 l 0.147451,-0.24805 0.132292,0.24805 h 0.276987 l 0.05374,-0.0909 c -0.25907,-0.16261 -0.431324,-0.45062 -0.431324,-0.77997 0,-0.0358 0.0028,-0.0717 0.0055,-0.10749 H 21.98122 c 0.0028,0.0358 0.0055,0.0717 0.0055,0.10749 0,0.35829 -0.203948,0.66835 -0.501604,0.82131 m 4.229199,-0.74414 0.03996,0.0345 0.08544,-0.0372 c -0.03171,0.001 -0.06339,0.003 -0.09509,0.003 z m -1.539269,0.49609 0.118509,0.0978 c 0.07855,-0.0248 0.158475,-0.051 0.23978,-0.0799 l 0.03721,-0.23565 0.186034,0.15572 c 0.09095,-0.0331 0.183282,-0.0675 0.274232,-0.10335 l 0.0441,-0.27837 0.212217,0.17777 0.180523,-0.073 0.02755,-0.18328 c -0.135047,-0.0303 -0.261824,-0.0854 -0.374826,-0.15847 h -0.752408 c 0.0055,0.0358 0.0069,0.0717 0.0069,0.10749 0,0.21635 -0.07441,0.41617 -0.199813,0.57326 m -0.139182,0.17777 0.0055,-0.0413 c -0.02755,0.0234 -0.05512,0.0441 -0.08544,0.062 z m -14.3178171,-0.007 0.067522,0.12678 h 0.2356451 l 0.14745,-0.24805 0.130916,0.24805 h 0.307301 l 0.148826,-0.24805 0.130916,0.24805 h 0.256315 l 0.14745,-0.24805 0.130912,0.24805 h 0.276987 l 0.02618,-0.0427 c -0.305925,-0.15021 -0.516766,-0.4644 -0.516766,-0.8282 0,-0.0358 0.0028,-0.0717 0.0069,-0.10749 H 10.09013 c 0.0041,0.0358 0.0069,0.0717 0.0069,0.10749 0,0.30592 -0.1502053,0.5774 -0.3789605,0.74414 m -2.0353619,-0.50712 0.2466692,-0.14745 v 0.2949 c 0.062011,0.0358 0.1240226,0.0717 0.1874132,0.10473 l 0.2108377,-0.12678 c -0.046852,-0.11024 -0.074415,-0.23289 -0.074415,-0.36242 0,-0.0358 0.00282,-0.0717 0.00688,-0.10749 H 7.6770942 l -0.2935216,-0.34451 c -0.1281572,0.0689 -0.2756077,0.10749 -0.4327031,0.10749 -0.06477,0 -0.1281572,-0.007 -0.1887926,-0.0193 l 0.1915477,0.13091 0.2342657,-0.14193 v 0.29627 l 0.1543402,0.10198 0.2163516,-0.12953 v 0.26596 z m 0,0"
       id="S-IS2"
       style="stroke-width:0.352778" />
  </g>
</svg>
