<?xml version="1.0" encoding="UTF-8" standalone="no"?>
<!-- Created with Inkscape (http://www.inkscape.org/) -->

<svg
   width="23.405857mm"
   height="9.0568552mm"
   viewBox="0 0 23.405857 9.0568552"
   version="1.1"
   id="svg6745"
   sodipodi:docname="inkporter-svg-de2d1i4p.svg"
   xmlns:inkscape="http://www.inkscape.org/namespaces/inkscape"
   xmlns:sodipodi="http://sodipodi.sourceforge.net/DTD/sodipodi-0.dtd"
   xmlns="http://www.w3.org/2000/svg"
   xmlns:svg="http://www.w3.org/2000/svg">
  <sodipodi:namedview
     id="namedview6747"
     pagecolor="#ffffff"
     bordercolor="#666666"
     borderopacity="1.0"
     inkscape:pageshadow="2"
     inkscape:pageopacity="0.0"
     inkscape:pagecheckerboard="0"
     inkscape:document-units="mm"
     showgrid="false"
     inkscape:zoom="0.66368547"
     inkscape:cx="397.02542"
     inkscape:cy="561.25984"
     inkscape:window-width="1920"
     inkscape:window-height="1017"
     inkscape:window-x="-8"
     inkscape:window-y="-8"
     inkscape:window-maximized="1"
     inkscape:current-layer="layer1" />
  <defs
     id="defs6742" />
  <g
     inkscape:label="Layer 1"
     inkscape:groupmode="layer"
     id="layer1"
     transform="translate(-123.25516,-98.397985)">
    <path
       d="m 146.60487,104.87242 c -0.0155,-0.0145 -0.03,-0.0261 -0.043,-0.0363 0.0159,-0.0289 0.0173,-0.0649 0.001,-0.0963 -0.0194,-0.0381 -0.0589,-0.0589 -0.0991,-0.0564 -0.0169,-0.0857 -0.0413,-0.1651 -0.0709,-0.23848 0.0272,-0.031 0.0342,-0.0765 0.0145,-0.11535 -0.0194,-0.0381 -0.0593,-0.0589 -0.0991,-0.0564 -0.0356,-0.0607 -0.0744,-0.11606 -0.11536,-0.16651 0.0208,-0.0303 0.025,-0.0706 0.007,-0.10548 -0.0261,-0.0511 -0.0885,-0.0713 -0.13935,-0.0452 -0.002,7.1e-4 -0.003,0.002 -0.005,0.003 -0.0205,-0.0194 -0.0409,-0.0374 -0.0614,-0.0543 0.0123,-0.0279 0.0127,-0.06 -0.002,-0.0889 -0.0258,-0.0512 -0.0882,-0.0713 -0.13935,-0.0455 -0.007,0.004 -0.0141,0.009 -0.0201,0.0141 -0.0399,-0.0258 -0.0765,-0.0473 -0.1083,-0.0646 l 0.75036,-0.41063 -0.60925,-1.17263 h -0.35666 v -0.061 h -0.10619 v 0.061 h -0.62618 v -0.061 h -0.10618 v 0.061 h -0.62019 v -0.061 h -0.10618 v 0.061 h -0.53728 v -0.061 h -0.10619 v 0.061 h -0.51999 v -0.061 h -0.10619 v 0.061 h -1.16346 v -0.061 c 0,-0.0413 -0.10619,-0.0473 -0.10619,-0.0473 v -0.0413 -0.16545 H 141.104 c -0.11677,0 -0.1457,0.19261 -0.15205,0.31503 h -0.14569 v -0.14923 h -0.80328 v -0.19438 l -0.57009,-0.0131 v -0.0529 h -0.20073 v 0.048 l -0.69109,-0.0159 v -0.0734 h -0.40746 v 0.0639 l -0.61983,-0.0145 v -0.0554 h -0.27763 v 0.049 l -0.29775,-0.007 c 0,0 -0.0843,-0.23954 -0.091,-0.2981 -0.006,-0.0582 0.0198,-0.11006 0.10371,-0.11006 h 1.34761 c 0.39547,0 0.54434,-0.38876 0.54434,-0.38876 l -0.0258,-0.3302 c 0,0 0.0388,0.006 0.084,-0.0131 0.0455,-0.0194 0.0713,-0.14252 0.0713,-0.14252 h 0.2981 v -0.0519 h 0.62194 v -0.0907 h -0.62829 v -0.0455 h -0.2981 v -0.19438 c 0,-0.103718 -0.18133,-0.161926 -0.18133,-0.161926 v 0.142526 l -0.16192,-0.07762 -0.16863,-0.738717 h -0.21379 c 0,0 0.0649,-0.103716 0.0843,-0.148872 0.0194,-0.04551 0.0325,-0.155575 -0.0261,-0.155575 h -0.68015 c -0.13617,0 -0.25259,0.220133 -0.25259,0.220133 h -0.14252 v 0.07796 h -0.2593 v -0.06491 h -0.19438 c -0.0324,0 -0.0776,-0.09066 -0.0776,-0.09066 0,0 0.0258,-0.09066 -0.17497,-0.09066 h -1.41888 v -0.110066 h -0.46002 v 0.135819 c 0,0 -0.0582,-0.08396 -0.12312,-0.08396 h -0.41451 c -0.0519,0 -0.0843,0.13582 -0.0843,0.13582 h -0.23989 v 0.123119 h -0.23953 v -0.07761 h -0.53128 v 0.05821 h -0.0388 l -0.0974,-0.621947 c 0,0 -0.0194,-0.129469 -0.22683,-0.129469 -0.20708,0 -0.22684,0.09701 -0.22684,0.09701 l -0.006,0.259291 -0.0519,0.07761 -0.0194,0.136172 h -0.39511 l -0.10372,0.08431 h -0.19438 v 0.110067 c 0,0 -0.34325,0.0194 -0.36301,0 -0.0194,-0.0194 0,-0.05821 0,-0.05821 0,0 -0.29139,0.0127 -0.45332,0.0388 -0.16192,0.02575 -0.6544,0.12312 -0.6544,0.12312 l 0.013,0.07126 c 0,0 -0.11677,0.07761 -0.16192,0.116416 -0.0455,0.03881 -0.16228,0.161925 -0.16228,0.161925 h -0.60254 l -0.17463,0.272345 h -5.61093 v -0.0194 h -0.22013 v 0.336899 h 0.22013 v -0.0187 l 5.37104,0.10301 v 0.69956 c 0,0.12312 0.0649,0.22683 0.14253,0.22683 h 0.69991 c 0,0 0.11006,0.12312 0.20708,0.22684 0.0974,0.10336 0.39546,0.28504 0.39546,0.28504 h -1.69757 v 0.25259 c 0,0 -0.14252,-0.10372 -0.27869,-0.10372 h -0.57644 l -0.39194,0.67028 -0.25611,0.036 c 0,0 -0.0131,-0.0649 -0.0325,-0.0843 -0.0194,-0.0194 -0.097,0.0649 -0.097,0.0649 l -0.18168,-0.078 h -0.11642 c 0,0 -0.0649,0.0586 -0.0907,0.12982 -0.0187,0.0515 -0.0102,0.13723 0.006,0.22719 l -0.0318,0.006 -0.36936,0.0649 h -1.01705 c -0.36936,0 -0.70627,0.30445 -0.70627,0.30445 l 0.22402,0.41557 c -0.0116,0.005 -0.0229,0.0109 -0.0339,0.0166 -0.003,-0.003 -0.006,-0.006 -0.01,-0.008 -0.0476,-0.0321 -0.11183,-0.0191 -0.14394,0.0286 -0.0166,0.0247 -0.0208,0.0543 -0.0141,0.0811 -0.09,0.0649 -0.16439,0.13688 -0.22578,0.21096 -0.0384,-0.006 -0.0783,0.0102 -0.10124,0.0448 -0.0219,0.0324 -0.0222,0.0727 -0.005,0.10512 -0.0829,0.13829 -0.12454,0.27023 -0.13653,0.36019 l -7.1e-4,0.004 c -0.0272,0.005 -0.0526,0.0198 -0.0691,0.0444 -0.0318,0.0476 -0.019,0.11183 0.0286,0.14358 0.006,0.004 0.0123,0.007 0.019,0.01 -0.006,0.11818 -3.6e-4,0.26846 0.0476,0.4311 -0.005,0.005 -0.009,0.01 -0.0131,0.0155 -0.0318,0.048 -0.019,0.11218 0.0286,0.14393 0.0162,0.0109 0.0346,0.0162 0.0529,0.0169 0.0473,0.0977 0.11218,0.19721 0.20073,0.29457 -0.002,0.002 -0.004,0.004 -0.006,0.007 -0.0321,0.0476 -0.0191,0.11183 0.0286,0.14358 0.0402,0.0272 0.0928,0.0215 0.127,-0.01 0.0646,0.0529 0.1457,0.1136 0.23918,0.17921 -7e-4,7.1e-4 -0.001,10e-4 -0.002,0.002 -0.0318,0.0476 -0.0191,0.11218 0.0286,0.14393 0.0476,0.0318 0.11184,0.0191 0.14359,-0.0286 0,0 3.5e-4,0 3.5e-4,-3.5e-4 0.0907,0.061 0.18873,0.12453 0.2921,0.19014 -0.006,0.006 -0.0113,0.0131 -0.0152,0.0208 -0.0272,0.0504 -0.008,0.11324 0.0427,0.14005 0.0504,0.0272 0.11325,0.008 0.14041,-0.0427 0.002,-0.004 0.003,-0.007 0.004,-0.0106 0.0893,0.055 0.18133,0.11077 0.27446,0.16651 -0.0187,0.0483 7.1e-4,0.10372 0.0473,0.12876 0.0444,0.0233 0.0977,0.0117 0.12841,-0.025 0.09,0.0526 0.17991,0.10407 0.26952,0.15487 -0.0194,0.0483 0,0.10442 0.0473,0.12947 0.0455,0.0243 0.1009,0.0106 0.13124,-0.0296 0.1016,0.0561 0.20108,0.11007 0.29668,0.16052 -0.0205,0.0529 0.006,0.11253 0.0589,0.13335 0.0459,0.018 0.097,7e-4 0.12347,-0.0388 0.13829,0.0702 0.26352,0.13018 0.3683,0.17568 -0.004,0.0113 -0.007,0.0233 -0.007,0.036 0,0.0575 0.0466,0.10371 0.10372,0.10371 0.0437,0 0.0808,-0.0268 0.096,-0.0649 0.0444,0.0141 0.0794,0.0219 0.10302,0.0219 h 0.22789 c 0.006,0.0508 0.0494,0.0907 0.10231,0.0907 0.0529,0 0.096,-0.0399 0.1023,-0.0907 h 0.35701 c 0.006,0.0508 0.0494,0.0907 0.10231,0.0907 0.0529,0 0.096,-0.0399 0.1023,-0.0907 h 0.32879 c 0.006,0.0508 0.0494,0.0907 0.10231,0.0907 0.0529,0 0.096,-0.0399 0.1023,-0.0907 h 0.35031 c 0.006,0.0508 0.0497,0.0907 0.10231,0.0907 0.0529,0 0.0959,-0.0399 0.1023,-0.0907 h 0.35701 c 0.006,0.0508 0.0494,0.0907 0.10231,0.0907 0.0529,0 0.096,-0.0399 0.10231,-0.0907 h 0.30726 c 0.006,0.0508 0.0494,0.0907 0.10231,0.0907 0.0529,0 0.096,-0.0399 0.10231,-0.0907 h 0.3503 c 0.006,0.0508 0.0494,0.0907 0.10231,0.0907 0.0529,0 0.096,-0.0399 0.10231,-0.0907 h 0.35701 c 0.006,0.0508 0.0494,0.0907 0.1023,0.0907 0.0529,0 0.096,-0.0399 0.10231,-0.0907 h 0.35454 c 0.007,0.0508 0.0497,0.0907 0.1023,0.0907 0.0529,0 0.096,-0.0399 0.10266,-0.0907 h 0.35031 c 0.006,0.0508 0.0494,0.0907 0.10231,0.0907 0.0526,0 0.0959,-0.0399 0.1023,-0.0907 h 0.32879 c 0.006,0.0508 0.0494,0.0907 0.10231,0.0907 0.005,0 0.009,-7.1e-4 0.0141,-0.001 0.005,7e-4 0.009,0.001 0.0138,0.001 0.0529,0 0.096,-0.0399 0.10265,-0.0907 h 0.32209 c 0.006,0.0508 0.0494,0.0907 0.10231,0.0907 0.0529,0 0.096,-0.0399 0.1023,-0.0907 h 0.35701 c 0.006,0.0508 0.0494,0.0907 0.10231,0.0907 0.0529,0 0.096,-0.0399 0.1023,-0.0907 h 0.31997 c 0.007,0.0508 0.0497,0.0907 0.10231,0.0907 0.0529,0 0.0959,-0.0399 0.10266,-0.0907 h 0.35031 c 0.006,0.0508 0.0494,0.0907 0.1023,0.0907 0.0526,0 0.096,-0.0399 0.10231,-0.0907 h 0.35665 c 0.007,0.0508 0.0497,0.0907 0.10231,0.0907 0.0529,0 0.096,-0.0399 0.10266,-0.0907 h 0.35031 c 0.006,0.0508 0.0494,0.0907 0.1023,0.0907 0.0526,0 0.096,-0.0399 0.10231,-0.0907 h 0.34396 c 0.006,0.0508 0.0494,0.0907 0.1023,0.0907 0.0526,0 0.096,-0.0399 0.10231,-0.0907 h 0.35031 c 0.006,0.0508 0.0494,0.0907 0.1023,0.0907 0.0529,0 0.096,-0.0399 0.10231,-0.0907 h 0.34607 c 0.006,0.0508 0.0494,0.0907 0.10231,0.0907 0.0529,0 0.0959,-0.0399 0.1023,-0.0907 h 0.35031 c 0.007,0.0508 0.0497,0.0907 0.10231,0.0907 0.0529,0 0.0959,-0.0399 0.10266,-0.0907 h 0.34148 c 0.006,0.0508 0.0498,0.0907 0.10231,0.0907 0.0529,0 0.096,-0.0399 0.10231,-0.0907 h 0.3503 c 0.007,0.0508 0.0497,0.0907 0.10266,0.0907 0.0526,0 0.0956,-0.0399 0.10231,-0.0907 h 0.31997 c 0.006,0.0508 0.0494,0.0907 0.1023,0.0907 0.0529,0 0.096,-0.0399 0.10231,-0.0907 h 0.35031 c 0.007,0.0508 0.0497,0.0907 0.1023,0.0907 0.0529,0 0.096,-0.0399 0.10266,-0.0907 h 0.37606 c 0.006,0.0508 0.0497,0.0907 0.10231,0.0907 0.0529,0 0.0959,-0.0399 0.1023,-0.0907 h 0.35031 c 0.007,0.0508 0.0497,0.0907 0.10266,0.0907 0.0526,0 0.0956,-0.0399 0.1023,-0.0907 h 0.0639 c 0.0963,0 0.19367,-0.004 0.29139,-0.0117 0,7.1e-4 0,0.001 3.5e-4,0.001 0.0106,0.0564 0.0649,0.0931 0.12101,0.0825 0.0504,-0.01 0.085,-0.0543 0.084,-0.10407 0.11677,-0.0141 0.23354,-0.0328 0.34995,-0.0547 0.0205,0.0399 0.0649,0.0635 0.11148,0.0547 0.0473,-0.009 0.0804,-0.049 0.0836,-0.0949 0.12418,-0.0279 0.2473,-0.0589 0.3683,-0.0928 0.0226,0.0462 0.0762,0.0699 0.12594,0.0529 0.0469,-0.0162 0.0748,-0.0624 0.0695,-0.11006 0.115,-0.0353 0.22754,-0.0723 0.3362,-0.11042 0.0254,0.0388 0.0741,0.0571 0.11994,0.0416 0.0469,-0.0159 0.0748,-0.0624 0.0695,-0.11007 0.13758,-0.0512 0.26776,-0.10336 0.38876,-0.15381 0.0293,0.0413 0.085,0.0564 0.13159,0.0328 0.0423,-0.0215 0.0628,-0.0681 0.054,-0.11254 0.12453,-0.0547 0.23495,-0.10619 0.32879,-0.15134 0.0307,0.0243 0.0741,0.0303 0.11148,0.0113 0.0363,-0.0187 0.0568,-0.0557 0.0561,-0.0938 0.10724,-0.0543 0.16863,-0.0882 0.1718,-0.09 0.0102,-0.006 0.0251,-0.0134 0.0427,-0.0229 0.0166,-0.008 0.036,-0.0187 0.0575,-0.0303 0.0307,0.0339 0.0808,0.0448 0.12347,0.0229 0.0473,-0.024 0.0674,-0.0787 0.0501,-0.12735 0.0952,-0.0642 0.20179,-0.14923 0.30092,-0.25965 0.0279,0.0127 0.0607,0.0134 0.0896,-0.002 0.0511,-0.0257 0.0713,-0.0882 0.0452,-0.13935 -0.003,-0.006 -0.007,-0.0123 -0.0116,-0.018 0.0194,-0.0289 0.0377,-0.0593 0.0554,-0.091 0.004,0.0353 0.009,0.0769 0.0109,0.0907 0.005,0.0257 0.19438,0.0864 0.19438,-0.0346 0,-0.12101 -0.0279,-0.46426 0,-0.49248 0.0282,-0.0279 0.0649,-0.0561 0.0952,-0.0864 0.03,-0.03 0.0864,-0.19862 -0.013,-0.28928 m -4.63268,2.3368 -0.0176,-0.0533 c 0.06,0.0201 0.12241,0.0349 0.18697,0.0438 -0.001,0.003 -0.003,0.007 -0.004,0.01 z m -0.58067,0 -0.0928,-0.28081 c -0.0318,-0.0748 -0.13406,-0.0691 -0.16863,-0.004 -0.0282,0.0529 -0.10266,0.22436 -0.12877,0.28504 h -0.1651 l -0.0639,-0.19367 c 0.25576,-0.18557 0.42263,-0.48648 0.42263,-0.82692 0,-0.007 -3.5e-4,-0.0138 -7.1e-4,-0.0205 l 0.0656,0.0279 c 0.002,0.33232 0.16334,0.62689 0.41134,0.81139 -0.0325,0.0713 -0.0716,0.16122 -0.0892,0.20179 z m -2.18123,0 -0.0441,-0.13264 c 0.0681,0.0388 0.14111,0.0695 0.21767,0.0921 -0.007,0.0159 -0.0131,0.03 -0.0176,0.0406 z m -0.55527,0 -0.0928,-0.28081 c -0.0314,-0.0748 -0.1337,-0.0691 -0.16828,-0.004 -0.0282,0.0529 -0.10301,0.22436 -0.12911,0.28504 h -0.16052 l -0.0695,-0.21061 c 0.24306,-0.18626 0.40005,-0.47978 0.40005,-0.80998 0,-0.0416 -0.003,-0.0829 -0.008,-0.12347 l 0.22296,0.0762 c -10e-4,0.0155 -10e-4,0.0314 -10e-4,0.0473 0,0.28505 0.11677,0.54258 0.30515,0.72779 -0.002,0.002 -0.004,0.005 -0.005,0.008 -0.0282,0.0529 -0.10266,0.22436 -0.12876,0.28504 z m -2.2091,0 -0.0448,-0.13582 c 0.0706,0.0409 0.14676,0.0734 0.22684,0.0963 -0.007,0.0155 -0.0127,0.0293 -0.0173,0.0395 z m 0.55492,0 -0.001,-0.004 c 0.0554,-0.005 0.10972,-0.0141 0.16228,-0.0275 0.004,10e-4 0.007,0.002 0.0102,0.002 -0.005,0.0113 -0.009,0.0212 -0.0127,0.0293 z m 0.54857,0 -0.003,-0.009 c 0.0656,-0.008 0.12912,-0.0233 0.1905,-0.0434 -0.009,0.0208 -0.0173,0.0392 -0.0229,0.0522 z m 4.96853,-0.0282 c 0.005,-0.001 0.01,-0.002 0.0148,-0.004 0.0152,0.004 0.0307,0.007 0.0459,0.0106 -0.0187,0.002 -0.0374,0.004 -0.0564,0.006 z m -2.76155,0.0282 -0.001,-0.004 c 0.0568,-0.005 0.11254,-0.0141 0.16651,-0.0279 0.004,10e-4 0.008,0.002 0.012,0.003 -0.005,0.0113 -0.009,0.0212 -0.0123,0.0289 z m 0.55527,0 -0.003,-0.009 c 0.0533,-0.007 0.10548,-0.018 0.15593,-0.0328 -0.007,0.0166 -0.0134,0.031 -0.0183,0.042 z m 4.15925,-0.82056 c -0.054,-0.061 -0.14887,-0.0226 -0.16086,0.0501 -0.01,0.0614 -0.0261,0.25859 -0.0307,0.31786 -0.049,0.0183 -0.0988,0.0363 -0.14957,0.0547 l -0.18415,-0.24412 c -0.054,-0.0607 -0.14923,-0.0222 -0.16087,0.0501 -0.0102,0.0617 -0.0265,0.26106 -0.031,0.31891 -0.054,0.0166 -0.10866,0.0328 -0.16405,0.0487 l -0.0564,-0.10195 c 0.16898,-0.18203 0.2727,-0.42615 0.2727,-0.69427 0,-0.024 -0.001,-0.048 -0.003,-0.0716 0.16264,-0.002 0.31927,-0.002 0.41452,0.001 0.17674,0.11571 0.38135,0.19156 0.60219,0.21519 0.004,0.0808 0.01,0.17075 0.0116,0.19862 -0.0603,0.0265 -0.12418,0.054 -0.1905,0.0815 z m 1.85773,-1.57092 -0.005,0.001 c -0.0141,-0.12594 -0.0455,-0.24624 -0.0914,-0.35948 0.0466,0.10442 0.0811,0.22296 0.0963,0.35807 m -1.12818,1.54446 -0.0363,-0.0356 c 0.0561,-0.008 0.11077,-0.0198 0.1644,-0.0346 l 7e-4,0.001 0.009,-0.004 c 0.008,-0.002 0.0159,-0.004 0.0236,-0.007 -0.0434,0.0222 -0.0977,0.049 -0.16122,0.0797 m -9.31122,-0.19544 c 0,0.007 -7e-4,0.0148 -7e-4,0.0219 0,0.28364 0.11571,0.54011 0.30268,0.72496 -0.002,0.004 -0.005,0.007 -0.007,0.0106 -0.0282,0.0529 -0.10266,0.22436 -0.12877,0.28504 h -0.17145 l -0.0928,-0.28081 c -0.0314,-0.0748 -0.13405,-0.0691 -0.16863,-0.004 -0.0282,0.0529 -0.10265,0.22436 -0.12876,0.28504 h -0.16475 l -0.0928,-0.28081 c -0.0318,-0.0748 -0.13405,-0.0691 -0.16863,-0.004 -0.0282,0.0529 -0.10265,0.22436 -0.12876,0.28504 h -0.13476 l -0.0497,-0.15099 c 0.29139,-0.17956 0.48613,-0.50165 0.48613,-0.8696 0,-0.0427 -0.003,-0.0847 -0.008,-0.12629 h 0.41628 z m -2.79894,0.84808 c 0.0723,0.0526 0.15134,0.0956 0.23636,0.12771 -0.012,0.0272 -0.0219,0.0508 -0.0289,0.0667 h -0.14323 z m 0.62548,0.19438 v -7e-4 c 0.0487,-0.001 0.0963,-0.006 0.14322,-0.0138 -0.002,0.005 -0.004,0.0102 -0.006,0.0145 z m 0.52705,0 v -7e-4 c 0.0614,-0.001 0.12171,-0.008 0.18027,-0.0194 -0.004,0.007 -0.006,0.0145 -0.009,0.0201 z m -1.74908,-1.17934 0.17745,0.0903 c -0.001,0.0226 -0.002,0.0455 -0.002,0.0684 0,0.26776 0.10301,0.51118 0.27164,0.69321 -0.0194,0.008 -0.0367,0.0222 -0.0473,0.0423 -0.0282,0.0529 -0.10266,0.22436 -0.12876,0.28504 h -0.1651 l -0.0924,-0.28081 c -0.0317,-0.0748 -0.13406,-0.0691 -0.16863,-0.004 -0.0282,0.0529 -0.10266,0.22436 -0.12876,0.28504 h -0.16934 l -0.0928,-0.28081 c -0.0314,-0.0748 -0.13405,-0.0691 -0.16827,-0.004 -0.0286,0.0529 -0.10301,0.22436 -0.12912,0.28504 h -0.17145 l -0.0328,-0.0991 c 0.34396,-0.16404 0.58173,-0.51506 0.58173,-0.92146 0,-0.054 -0.005,-0.10689 -0.0123,-0.15875 z m -1.48695,1.17934 h -0.0833 l -0.001,-0.004 c 0.0282,0.002 0.0561,0.004 0.0847,0.004 0.0279,0 0.0557,-10e-4 0.0832,-0.004 -7e-4,10e-4 -0.001,0.002 -0.002,0.004 z m -0.59514,0 -10e-4,-0.004 c 0.03,0.002 0.0603,0.004 0.091,0.004 0.0109,0 0.0219,-3.5e-4 0.0324,-7e-4 0,0 -3.5e-4,3.5e-4 -3.5e-4,7e-4 h -0.0321 z m -0.92745,-1.09608 c -0.002,0.025 -0.003,0.0501 -0.003,0.0755 0,0.40711 0.23848,0.75848 0.58314,0.92217 -0.0173,0.0402 -0.0332,0.0765 -0.0427,0.0984 h -0.17145 l -0.0928,-0.28081 c -0.0314,-0.0748 -0.1337,-0.0691 -0.16828,-0.004 -0.0282,0.0529 -0.10266,0.22436 -0.12876,0.28504 h -0.1651 l -0.0928,-0.28081 c -0.0314,-0.0748 -0.1337,-0.0691 -0.16828,-0.004 -0.0286,0.0529 -0.10301,0.22436 -0.12911,0.28504 h -0.14323 l -0.0819,-0.248 c 0.21661,-0.18697 0.35419,-0.46355 0.35419,-0.77259 0,-0.0448 -0.004,-0.0893 -0.009,-0.13264 h 0.32667 z m -3.28048,0.53481 0.0533,-0.31291 c 0.007,-0.0811 -0.0857,-0.12383 -0.14641,-0.0829 -0.0526,0.0353 -0.21166,0.16228 -0.25505,0.19685 -0.0381,-0.0222 -0.0762,-0.0445 -0.1143,-0.067 l 0.0494,-0.28893 c 0.001,-0.0134 -3.5e-4,-0.0258 -0.004,-0.037 h 0.71014 c -0.006,0.0434 -0.009,0.0878 -0.009,0.13264 0,0.11607 0.0198,0.22719 0.0554,0.33126 -0.0596,0.0423 -0.19262,0.14817 -0.23777,0.18451 -0.0335,-0.0184 -0.0674,-0.0374 -0.1016,-0.0565 m -1.53388,-0.95532 c 0.12876,0.0656 0.27305,0.10619 0.42545,0.115 -0.0511,0.0321 -0.10442,0.0663 -0.13653,0.0871 -0.10865,-0.0723 -0.20637,-0.14076 -0.28892,-0.20214 m 0.60748,0.40781 0.0621,-0.22331 0.28187,0.14887 c -0.0543,0.0399 -0.15205,0.11713 -0.20567,0.16017 -0.0469,-0.0289 -0.0928,-0.0575 -0.13829,-0.0857 m 1.37407,0.79093 0.0201,-0.11854 c 0.037,0.0529 0.0794,0.10231 0.12559,0.14747 -0.0131,0.0131 -0.024,0.024 -0.0307,0.031 -0.0374,-0.0191 -0.0758,-0.0392 -0.11501,-0.06 m 0.58456,0.28081 c 0.012,0.003 0.0243,0.006 0.0363,0.009 -3.5e-4,0.001 -7e-4,0.002 -7e-4,0.002 l 3.5e-4,0.002 c -0.0113,-0.004 -0.0233,-0.008 -0.036,-0.0134 m 0.96414,0.037 -0.005,-0.0166 c 0.0734,-0.013 0.14393,-0.0339 0.2106,-0.0617 -0.0137,0.0321 -0.0261,0.06 -0.0339,0.0783 z m -0.83326,0 c -0.018,0 -0.0466,-0.007 -0.0847,-0.0201 l 0.0282,7.1e-4 c 0.0639,0.0127 0.13018,0.0194 0.19791,0.0194 0.049,0 0.097,-0.004 0.14429,-0.0106 l 0.031,0.001 -0.002,-0.006 c 0.0264,-0.005 0.0529,-0.01 0.079,-0.0166 0.0187,0.005 0.0381,0.009 0.0575,0.0127 -0.003,0.007 -0.006,0.0134 -0.008,0.0191 h -0.30162 z"
       id="S-KV1s"
       style="stroke-width:0.352778" />
  </g>
</svg>
