<?xml version="1.0" encoding="UTF-8" standalone="no"?>
<!-- Created with Inkscape (http://www.inkscape.org/) -->

<svg
   width="27.646854mm"
   height="8.7058449mm"
   viewBox="0 0 27.646854 8.7058449"
   version="1.1"
   id="svg15601"
   inkscape:version="1.1.1 (3bf5ae0d25, 2021-09-20)"
   sodipodi:docname="inkporter-svg-qhxbqep5.svg"
   xmlns:inkscape="http://www.inkscape.org/namespaces/inkscape"
   xmlns:sodipodi="http://sodipodi.sourceforge.net/DTD/sodipodi-0.dtd"
   xmlns="http://www.w3.org/2000/svg"
   xmlns:svg="http://www.w3.org/2000/svg">
  <sodipodi:namedview
     id="namedview15603"
     pagecolor="#ffffff"
     bordercolor="#666666"
     borderopacity="1.0"
     inkscape:pageshadow="2"
     inkscape:pageopacity="0.0"
     inkscape:pagecheckerboard="0"
     inkscape:document-units="mm"
     showgrid="false"
     inkscape:zoom="0.90583674"
     inkscape:cx="2310.0189"
     inkscape:cy="442.13265"
     inkscape:window-width="1920"
     inkscape:window-height="1017"
     inkscape:window-x="-8"
     inkscape:window-y="-8"
     inkscape:window-maximized="1"
     inkscape:current-layer="layer1"
     inkscape:snap-nodes="true"
     inkscape:snap-bbox="true"
     inkscape:snap-others="true"
     inkscape:bbox-paths="true"
     inkscape:snap-global="true" />
  <defs
     id="defs15598">
    <clipPath
       clipPathUnits="userSpaceOnUse"
       id="clipPath48514-9-5-6-7-4">
      <path
         d="M 309.111,103.342 H 547.1 V 372.047 H 309.111 Z"
         id="path48512-3-2-8-8-0" />
    </clipPath>
    <clipPath
       clipPathUnits="userSpaceOnUse"
       id="clipPath48514-9-5-6-7-4-5">
      <path
         d="M 309.111,103.342 H 547.1 V 372.047 H 309.111 Z"
         id="path48512-3-2-8-8-0-2" />
    </clipPath>
    <clipPath
       clipPathUnits="userSpaceOnUse"
       id="clipPath48514-9-5-6-7-4-1">
      <path
         d="M 309.111,103.342 H 547.1 V 372.047 H 309.111 Z"
         id="path48512-3-2-8-8-0-4" />
    </clipPath>
    <clipPath
       clipPathUnits="userSpaceOnUse"
       id="clipEmfPath1">
      <path
         d="M 0,0 H 176.90268 V 3865.4117 H 0 Z"
         id="path21836" />
    </clipPath>
    <clipPath
       clipPathUnits="userSpaceOnUse"
       id="clipEmfPath2">
      <path
         d="M 0.58771654,0.58771654 H 176.90268 V 3865.4117 H 0.58771654 Z"
         id="path21839" />
    </clipPath>
    <clipPath
       clipPathUnits="userSpaceOnUse"
       id="clipEmfPath3">
      <path
         d="M 0.58789062,0.58789062 V 3865.4121 H 176.90234 V 0.58789062 Z"
         id="path21842" />
    </clipPath>
    <pattern
       id="EMFhbasepattern"
       patternUnits="userSpaceOnUse"
       width="6"
       height="6"
       x="0"
       y="0" />
    <clipPath
       clipPathUnits="userSpaceOnUse"
       id="clipEmfPath1-9">
      <path
         d="M 0,0 H 176.90268 V 593.00598 H 0 Z"
         id="path25878" />
    </clipPath>
    <clipPath
       clipPathUnits="userSpaceOnUse"
       id="clipEmfPath2-9">
      <path
         d="M 0.58771654,0.58771654 H 176.90268 V 593.00598 H 0.58771654 Z"
         id="path25881" />
    </clipPath>
    <clipPath
       clipPathUnits="userSpaceOnUse"
       id="clipEmfPath3-7">
      <path
         d="M 0.58789062,0.58789062 V 593.00586 H 176.90234 V 0.58789062 Z"
         id="path25884" />
    </clipPath>
    <pattern
       id="EMFhbasepattern-7"
       patternUnits="userSpaceOnUse"
       width="6"
       height="6"
       x="0"
       y="0" />
  </defs>
  <g
     inkscape:label="Layer 1"
     inkscape:groupmode="layer"
     id="layer1"
     transform="translate(-398.03766,-157.49048)">
    <g
       id="S-M3Scout-InfantryHQ"
       transform="matrix(0.96005958,0,0,0.96005958,326.89798,91.550416)">
      <path
         d="m 91.70349,70.54902 v 0 h 0.516862 l -0.257032,-0.119419 -0.25983,0.08163 z m 3.241116,-0.2519 v 0 0.11802 h 0.0961 v -0.11802 z m 0.0961,-0.239772 v 0 h -0.0961 v 0.114288 h 0.0961 z m -2.429904,0.888648 v 0 h 0.396043 l 0.09703,-0.201986 V 70.364293 H 92.78013 c -0.04945,-0.01959 -0.06297,-0.01166 -0.06997,0 h -0.07324 c -0.04945,-0.01959 -0.06251,-0.01166 -0.06997,0 h -0.07277 c -0.04991,-0.01959 -0.06297,-0.01166 -0.06997,0 h -0.120819 -0.227176 v 0.06717 l 0.180528,0.06484 v 0.146942 h -0.593365 v -0.153939 l 0.187992,-0.05784 v -0.07604 l -1.748374,-0.08397 -0.18426,0.03219 V 70.11939 h 0.18426 l 1.754439,0.03545 0.06531,-0.03312 h 0.09143 l 0.12455,0.0061 h 0.09983 L 92.42095,70.1059 c 0.05551,0.02612 0.07044,0.01539 0.07604,0 h 0.06717 c 0.05551,0.02612 0.06997,0.01539 0.07604,0 h 0.06671 c 0.05551,0.02612 0.07044,0.01539 0.0765,0 h 0.321406 v -0.07417 l 0.496337,0.0037 h 1.120023 l 0.05831,-0.06764 h 0.115221 l 0.02286,0.07137 0.122218,-4.67e-4 h 0.06064 v 0.132947 l 0.02006,0.125484 -0.02006,0.11802 -0.06064,0.01959 -0.09609,-4.66e-4 -0.405839,4.66e-4 c 0.06717,0.06484 0.08816,0.143677 0.05038,0.187059 -0.04105,0.04665 -0.105425,0.03825 -0.146476,0.02939 l -0.830804,-0.189858 v 0.351261 h -0.0919 l -0.06437,0.133413 h 0.630217 c 0,0 0.630217,0 1.903712,0.355926 l 2.451829,0.684796 h 1.247373 v -0.349395 l -0.106358,0.04152 -0.07744,-0.03265 -0.03265,-0.07744 -0.104958,0.104492 -0.06577,0.03359 0.05505,0.142744 -0.07184,0.08257 -0.07697,-0.06577 -0.01726,-0.139011 -0.09376,-0.0933 0.09376,-0.170732 -0.07137,-0.07137 0.171199,-0.172132 0.469281,-0.380182 0.03312,-0.143677 0.122685,0.0751 1.040724,-1.040255 0.11568,0.115688 -1.04258,1.04212 0.14974,0.07277 0.0494,0.137612 0.174,0.173998 -0.32047,0.320007 -0.132014,0.0033 v 0.19499 c 0,0 0,0.195456 0.466484,0.195456 h 1.83047 c 0,0 0.46648,0 0.46648,0.466481 V 74.7572 l 0.1838,0.01679 v 0.500535 h -1.50208 v 0.183327 h -0.1502 v -0.133413 h -0.23324 v 0.191724 c 0,0 0,0.19219 -0.0854,0.199654 0,0 0.0854,-0.0075 0,0 0,0 -0.0854,0.0075 -0.0854,0.43756 0,0.430563 -0.69785,1.127953 -1.55851,1.127953 -0.860192,0 -1.558049,-0.69739 -1.558049,-1.558049 0,-0.05691 0.0047,-0.112889 0.0061,-0.140878 0,0 0.0047,-0.02752 -1.319211,-0.02752 h -3.778503 v 0.190791 H 92.20729 v -0.22018 h -1.243174 v 0.39511 h -2.061384 c -0.09703,0.767363 -0.751968,1.360728 -1.545454,1.360728 -0.860659,0 -1.55805,-0.69739 -1.55805,-1.558049 0,-0.139012 0.01819,-0.273825 0.05225,-0.402574 H 85.623365 L 85.506278,75.08649 h -0.321873 c -0.0047,0.291551 -0.241171,0.526658 -0.533655,0.526658 -0.294817,0 -0.533655,-0.239305 -0.533655,-0.534122 0,-0.294817 0.238838,-0.534122 0.533655,-0.534122 0.06484,0 0.126883,0.01166 0.184727,0.03312 l 0.173997,-0.266827 0.174931,-0.05878 0.08817,0.175397 h 0.263096 v -0.321872 h 0.321873 l 0.307878,-0.262629 0.263095,-0.175398 -0.117087,-0.175397 0.234174,-0.02939 0.02939,-0.128749 -0.147875,-0.11802 h 0.280356 v -0.07231 c 0,0 0,-0.07277 1.307082,-0.273358 L 90.9198,72.424744 c 0,0 0.460884,-0.07091 0.767829,-0.422166 z"
         style="fill:#000000;fill-opacity:1;fill-rule:nonzero;stroke:none;stroke-width:0.466482"
         id="path162581-4-6" />
      <path
         d="m 95.609856,70.293528 0.02659,-0.105425 -0.0098,-0.04525 h -0.06484 l -0.04058,0.01773 -0.04945,-0.0033 -0.05551,-0.02892 -0.02659,-0.111023 -0.01446,-0.04385 -0.04711,-0.02612 0.04711,-0.163736 -0.187059,-0.03825 0.03825,-0.01913 0.03499,-0.02146 0.04058,-0.128749 0.02192,-0.06251 0.03639,-0.06577 c 0.0061,-0.02332 0.0061,-0.02332 0.04851,-0.05551 l 0.04945,-0.03638 c 0.01913,-0.01493 0.0807,-0.03405 0.0807,-0.03405 l 0.06111,-0.01166 0.06717,-0.0089 0.06437,0.0061 0.04991,0.0056 0.05831,0.01493 0.05085,0.02053 c 0.0089,0.0028 0.04572,0.03172 0.04572,0.03172 l 0.06997,0.07883 c 0.01446,0.01913 0.03219,0.05878 0.03219,0.05878 l 0.01166,0.04058 0.0089,0.0821 v 0.04058 l -0.0089,0.05318 -0.01306,0.04945 c 0,0.04945 0,0.04945 0.01306,0.06437 l -0.04665,0.01166 -0.01773,0.04478 0.08257,0.0793 0.125951,0.0056 0.221578,0.153473 0.105425,-0.02146 c 0.02566,-0.07184 0.02566,-0.07184 0.06018,-0.09843 0.03499,-0.02612 0.132014,-0.04338 0.164668,-0.03778 0.03219,0.0056 0.19359,0.0849 0.214115,0.09703 0.02146,0.0126 0.189392,0.18566 0.224378,0.226244 0.03545,0.04058 0.186592,0.359657 0.186592,0.359657 0,0 0.06624,0.102626 0.06111,0.17633 -0.0051,0.07417 -0.02426,0.07837 -0.04851,0.0919 l -0.08817,0.05178 -0.04711,0.02286 0.01586,0.08817 c 0.130149,0.03079 0.130149,0.03079 0.162336,0.06064 0.03265,0.03079 0.179129,0.25983 0.187525,0.307878 0.0089,0.04712 0.0089,0.04712 0.03499,0.339132 l -0.05365,0.06951 -0.01493,0.180995 c 0,0 -0.01353,0.05551 -0.04851,0.09843 -0.03452,0.04245 -0.199188,0.01959 -0.199188,0.01959 l -0.04618,-4.66e-4 -0.03732,0.431962 0.05738,0.0709 0.222512,-0.0019 0.06298,0.05365 0.158604,-0.03825 c 0.07883,-0.08117 0.07883,-0.08117 0.135746,-0.09656 0.05784,-0.01679 0.05784,-0.01679 0.157671,0.0084 l 0.06764,0.164668 -0.02379,0.04012 0.01539,0.09983 c 0.08957,0.139944 0.08957,0.139944 0.09656,0.165134 0.0075,0.02566 0.02799,0.133881 0.02659,0.164202 0,0.03032 0,0.03032 -0.03359,0.0891 -0.101694,0.07557 -0.101694,0.07557 -0.156272,0.04805 -0.05458,-0.02752 -0.0779,-0.06904 -0.08817,-0.123618 -0.0098,-0.05505 -0.0098,-0.05505 -0.01773,-0.164668 l -0.05505,-0.08397 -0.173998,0.02053 -0.09749,0.01679 -0.06577,0.08676 -0.135279,0.05598 -0.353594,0.168867 -0.181461,0.01446 -0.09703,-0.135746 -0.11942,-0.534588 -0.13388,-0.358725 -0.37925,-0.04152 -0.325138,-0.122219 0.03778,0.175864 -0.03732,0.116154 0.0807,0.404906 0.01633,0.397443 0.0051,0.04711 -0.233241,-0.01026 -0.0056,-0.04105 -0.0877,0.0047 -0.0765,0.05691 -0.356859,-0.01773 -0.03918,-0.09423 0.04198,-0.04618 0.210384,-0.02006 0.167,-0.171665 0.03592,-0.02892 -0.03172,-0.234641 -0.07277,-0.158603 -0.139478,-0.05551 -0.114288,-0.153472 -0.03639,-0.264029 c 0,0 -0.01306,-0.24537 -0.02286,-0.345197 -0.0098,-0.09936 0.105425,-0.146009 0.154872,-0.155338 0.04851,-0.0084 0.04851,-0.0084 0.742173,-0.01586 l -0.16187,-0.264495 0.08164,-0.0933 -0.128283,-0.187992 -0.158137,0.144609 -0.210384,-0.06997 -0.444557,-0.445024 0.02332,-0.139945 -0.234174,-0.140411 0.07044,-0.280822 0.257498,0.02332 0.06997,0.210384 0.140412,-0.02332 0.163735,0.280822 0.06904,-0.09563 v -0.05598 z"
         style="fill:#000000;fill-opacity:1;fill-rule:nonzero;stroke:none;stroke-width:0.466482"
         id="path162585-9-6" />
      <g
         id="S-Infantry3-0-0"
         transform="matrix(0.35277777,0,0,-0.35277777,-290.90744,165.95239)">
        <path
           d="m 1050.8928,261.62929 c 0,0 0.032,-0.031 0.051,-0.047 0.022,-0.016 0.16,-0.124 0.219,-0.144 0.059,-0.021 0.061,-0.008 0.07,0.02 0.01,0.027 0.01,0.171 0,0.189 -0.01,0.015 -0.074,0.143 -0.077,0.189 0,0.045 -0.064,0.023 -0.064,0.023 0,0 -0.159,-0.185 -0.199,-0.23 m 3.991,0.622 c 0,0 -0.02,-0.057 -0.02,-0.081 0,-0.025 0.028,-0.029 0.039,-0.073 0.011,-0.043 -0.01,-0.149 0,-0.214 0.01,-0.063 0.054,-0.093 0.093,-0.144 0.038,-0.053 0,-0.116 0,-0.141 0,-0.024 -0.01,-0.211 -0.01,-0.266 0,-0.053 0.093,-0.069 0.159,-0.093 0.065,-0.021 0.143,-0.108 0.161,-0.108 l 0.41,-0.002 c 0.023,0 0.027,0.002 0.064,0.036 0.028,0.027 0.064,0.017 0.064,0.017 -0.035,0.02 -0.916,1.002 -0.961,1.069 m -2.548,-12.155 c -0.055,-0.009 -0.278,-0.023 -0.428,0.05 -0.149,0.072 -0.295,0.2 -0.358,0.309 -0.063,0.108 -0.036,0.177 -0.063,0.23 -0.027,0.055 -0.045,0.177 -0.064,0.222 -0.018,0.045 -0.081,0.164 -0.113,0.201 -0.031,0.035 -0.059,0.041 -0.059,0.112 0,0.073 -0.014,0.228 -0.022,0.282 -0.01,0.055 0.012,0.11 0.017,0.131 0.01,0.024 -0.022,0.16 -0.017,0.178 0,0.017 0.05,0.049 0.05,0.076 0,0.028 -0.046,0.101 -0.046,0.118 0,0.018 0.018,0.177 0.027,0.205 0.01,0.028 -0.027,0.108 -0.064,0.163 -0.035,0.055 -0.077,0.063 -0.031,0.132 0.045,0.067 0.122,0.146 0.131,0.191 0.01,0.045 0.018,0.195 -0.013,0.327 -0.032,0.13 -0.054,0.738 -0.054,0.883 0,0.146 -0.014,0.195 0,0.237 0.012,0.041 0.036,0.049 0.036,0.067 0,0.019 0.022,0.228 0.018,0.267 0,0.042 -0.063,0.079 -0.063,0.118 0,0.042 0.026,0.177 0.04,0.209 0.014,0.033 0.082,0.11 0.086,0.159 0.01,0.051 -0.013,0.109 -0.027,0.146 -0.014,0.035 -0.182,0.653 -0.222,0.734 -0.041,0.083 -0.096,0.236 -0.11,0.282 -0.013,0.045 -0.031,0.513 -0.031,0.58 0,0.069 0.023,0.24 0.018,0.278 0,0.035 -0.213,0.139 -0.254,0.181 -0.041,0.041 -0.126,0.141 -0.14,0.177 -0.014,0.035 0.014,0.173 0.032,0.232 0.017,0.057 0.072,0.144 0.067,0.199 0,0.055 -0.01,0.132 0.027,0.218 0.037,0.085 0.128,0.262 0.132,0.327 0,0.063 0,0.163 0.01,0.195 0,0.031 0,0.063 0.017,0.118 0.014,0.053 0.032,0.059 0.037,0.153 0,0.095 0.031,0.136 -0.045,0.236 -0.078,0.101 -0.105,0.453 -0.054,0.581 0.049,0.126 0.125,0.285 0.125,0.285 0,0 -0.761,-0.253 -0.82,-0.257 -0.059,-0.006 -0.154,0.053 -0.146,0.112 0.01,0.059 0.073,0.899 0.073,0.899 l -0.348,0.23 c 0,0 -0.087,0.006 -0.132,0.028 -0.046,0.024 -0.164,0.236 -0.173,0.264 -0.01,0.027 -0.05,0.258 -0.041,0.303 0.01,0.045 0.019,0.155 0.041,0.195 0.023,0.041 0.141,0.218 0.187,0.287 0.045,0.067 0.144,0.244 0.198,0.299 0.055,0.053 0.205,0.205 0.254,0.285 0.05,0.081 0.3,0.372 0.327,0.431 0.027,0.059 0.059,0.105 0.109,0.164 0.05,0.059 0.236,0.236 0.277,0.271 0.041,0.038 0.109,0.101 0.14,0.132 0.033,0.032 0.041,0.069 0.051,0.097 0.01,0.025 0.122,0.025 0.126,0.057 0.01,0.033 -0.031,0.114 -0.022,0.163 0.01,0.051 0.094,0.177 0.113,0.219 0.019,0.041 0.036,0.068 0.05,0.135 0.014,0.069 0.087,0.191 0.16,0.219 0.071,0.027 0.157,0.018 0.181,0.035 0.022,0.02 0.049,0.024 0.108,0.028 0.059,0.004 0.081,-0.022 0.142,-0.028 0.058,-0.004 0.235,0.006 0.261,-0.008 0.028,-0.013 0.282,-0.214 0.323,-0.236 0.041,-0.023 0.014,-0.041 0.063,0.008 0.05,0.051 0.064,0.037 0.073,0.065 0.01,0.028 -0.01,0.209 -0.01,0.226 0,0.018 -0.182,0 -0.217,0.014 -0.037,0.014 -0.178,0.045 -0.178,0.091 0,0.045 0.028,0.163 0.068,0.226 0.041,0.065 0.027,0.386 0.027,0.449 0,0.065 0.094,0.885 0.785,1.084 0.346,0.1 0.612,0.079 0.853,-0.118 0.2,-0.161 0.282,-0.494 0.346,-0.592 0.063,-0.101 0.112,-0.17 0.171,-0.201 0.059,-0.032 0.123,-0.091 0.078,-0.205 -0.046,-0.112 -0.182,-0.366 -0.277,-0.425 -0.095,-0.059 -0.114,-0.069 -0.114,-0.069 0,0 -0.01,-0.1 -0.04,-0.149 -0.032,-0.049 -0.055,-0.091 -0.068,-0.115 -0.014,-0.021 -0.023,-0.222 -0.032,-0.271 -0.01,-0.049 -0.059,-0.122 -0.095,-0.14 -0.037,-0.019 -0.146,-0.069 -0.182,-0.082 -0.036,-0.014 -0.059,-0.028 -0.077,-0.054 -0.018,-0.027 0,-0.092 0,-0.092 l 0.091,-0.004 0.049,-0.055 h 0.082 l 0.095,-0.108 0.077,-0.004 0.059,-0.073 0.064,0.004 c 0,0 0.345,-0.236 0.403,-0.268 0.059,-0.031 0.113,0 0.151,-0.067 0.035,-0.069 0.08,-0.228 0.09,-0.264 0.01,-0.037 0.086,-0.173 0.095,-0.236 0.01,-0.063 0.023,-0.236 0.023,-0.236 0,0 0.112,-0.199 0.131,-0.222 0.019,-0.022 0.141,-0.081 0.15,-0.099 0.01,-0.019 0.099,-0.092 0.118,-0.11 0.018,-0.018 -0.014,-0.053 -0.014,-0.053 l 0.05,-0.037 0.831,-0.762 c 0,0 0.01,0.028 0.035,0.032 0.028,0.003 0.109,-0.095 0.128,-0.14 0.018,-0.047 0.014,-0.034 0.014,-0.034 h 0.516 l 0.033,0.042 0.14,0.009 c 0,0 0.01,0.081 0.031,0.126 0.028,0.046 0.033,0.115 0.073,0.115 0.041,0 0.059,-0.05 0.083,-0.042 0.021,0.01 0.031,0.046 0.049,0.038 0.018,-0.01 0.068,-0.059 0.068,-0.097 0,-0.035 0.022,-0.157 0.022,-0.157 l 0.082,-0.069 h 0.381 c 0,0 0.023,0 0.027,-0.041 0,-0.042 0,-0.237 -0.081,-0.262 -0.086,-0.028 -0.131,-0.024 -0.131,-0.024 h -1.008 c 0,0 0.014,-0.104 0,-0.128 -0.014,-0.021 -0.09,-0.126 -0.127,-0.157 -0.036,-0.032 -0.091,-0.006 -0.127,0.018 -0.036,0.023 -0.064,0.049 -0.081,0.059 -0.019,0.009 -0.01,-0.032 -0.042,-0.036 -0.036,-0.006 -0.095,0.012 -0.095,0.012 0,0 -0.018,-0.018 -0.081,-0.032 -0.064,-0.013 -0.145,0.056 -0.145,0.056 0,0 -0.051,-0.069 -0.087,-0.083 -0.035,-0.012 -0.095,0.01 -0.118,-0.004 -0.022,-0.014 -0.154,-0.1 -0.213,-0.108 -0.059,-0.01 -0.29,-0.018 -0.318,0 -0.026,0.017 -0.018,-0.142 -0.018,-0.142 0,0 -0.01,-0.738 -0.058,-0.852 -0.05,-0.114 -0.082,-0.122 -0.123,-0.118 -0.041,0.004 -0.018,0.017 -0.081,0.004 -0.064,-0.012 -0.187,-0.008 -0.214,-0.012 -0.027,-0.006 0.027,-0.274 0.027,-0.315 0,-0.039 0.045,-0.502 0.059,-0.616 0.014,-0.114 0.028,-0.726 0.028,-0.793 0,-0.069 -0.023,-0.346 -0.042,-0.378 -0.017,-0.031 -0.09,-0.118 -0.127,-0.132 -0.036,-0.014 0.023,-0.476 0.014,-0.571 -0.01,-0.094 -0.054,-0.299 -0.104,-0.371 -0.05,-0.073 -0.05,-0.073 -0.032,-0.132 0.018,-0.059 0.064,-0.282 0.032,-0.408 -0.032,-0.128 -0.096,-0.159 -0.091,-0.191 0.01,-0.031 0.059,-0.208 0.059,-0.263 0,-0.054 0,-0.168 -0.032,-0.168 -0.036,0 -0.054,-0.027 -0.054,-0.068 0,-0.04 -0.027,-0.64 -0.041,-0.731 -0.013,-0.09 -0.104,-0.903 -0.109,-0.925 -0.01,-0.023 -0.01,-0.059 -0.01,-0.059 0,0 0.078,-0.082 0.055,-0.136 -0.022,-0.055 -0.064,-0.086 -0.05,-0.122 0.014,-0.037 0.019,-0.169 0.019,-0.169 0,0 0.027,-0.104 0.027,-0.122 0,-0.017 0.054,-0.055 0.067,-0.077 0.014,-0.023 0.046,-0.072 0.087,-0.082 0.041,-0.008 0.049,-0.049 0.063,-0.077 0.014,-0.028 0.254,-0.268 0.441,-0.303 0.185,-0.037 0.49,-0.155 0.521,-0.163 0.032,-0.01 0.087,-0.122 0.087,-0.191 0,-0.069 0.018,-0.114 0.022,-0.132 0,-0.018 0.023,-0.055 -0.055,-0.1 -0.077,-0.046 -0.249,-0.213 -0.443,-0.199 -0.196,0.013 -0.509,-0.018 -0.822,0.139 -0.313,0.16 -0.381,0.25 -0.381,0.25 l -0.132,-0.059 c 0,0 -0.236,0.018 -0.33,0.073 -0.097,0.055 -0.174,0.114 -0.174,0.114 v 0.217 c 0,0 -0.042,0.033 -0.046,0.073 -0.01,0.041 -0.032,0.169 0.014,0.226 0.045,0.059 0.022,0.059 0.027,0.106 0,0.045 0.05,0.126 0.095,0.15 0.045,0.021 0.01,0.08 0.01,0.122 0,0.041 0.01,0.167 0.028,0.208 0.017,0.042 0.045,0.055 0,0.113 -0.041,0.059 -0.145,0.155 -0.096,0.2 0.05,0.046 0.1,0.118 0.064,0.185 -0.036,0.069 -0.054,0.079 -0.059,0.187 -0.01,0.108 -0.082,0.835 -0.077,0.929 0,0.097 0.013,0.382 0.013,0.4 0,0.019 0.032,-0.004 0.045,0.023 0.014,0.028 -0.067,0.114 -0.077,0.136 -0.01,0.024 -0.013,0.187 0,0.226 0.019,0.042 0.046,0.069 0.032,0.105 -0.013,0.037 -0.04,0.077 -0.059,0.09 -0.018,0.014 -0.109,-0.149 -0.19,-0.254 -0.083,-0.104 -0.273,-0.299 -0.291,-0.348 -0.018,-0.051 -0.055,-0.181 -0.032,-0.218 0.024,-0.036 0.069,-0.15 -0.023,-0.195 -0.09,-0.045 -0.067,-0.024 -0.085,-0.108 -0.019,-0.087 -0.024,-0.268 -0.028,-0.333 0,-0.063 -0.068,-0.48 -0.086,-0.526 -0.018,-0.045 -0.15,-0.48 -0.15,-0.525 0,-0.045 -0.054,-0.382 -0.054,-0.417 0,-0.038 -0.027,-0.197 -0.027,-0.256 0,-0.057 -0.023,-0.213 -0.023,-0.262 0,-0.051 -0.018,-0.181 -0.01,-0.218 0.01,-0.036 0.01,-0.231 0.036,-0.317 0.032,-0.087 0.154,-0.309 0.159,-0.331 0,-0.023 0.023,-0.204 0.05,-0.208 0.028,-0.006 0.091,-0.083 0.108,-0.115 0.019,-0.031 0.097,-0.249 0.087,-0.295 -0.01,-0.045 0,-0.212 -0.036,-0.299 -0.032,-0.086 -0.19,-0.136 -0.19,-0.136"
           style="fill:#000000;fill-opacity:1;fill-rule:nonzero;stroke:none"
           id="path159447-8-5" />
        <path
           d="m 1036.9846,259.13379 -0.102,-0.042 -0.213,-0.103 -0.151,-0.068 -0.191,-0.076 -0.16,-0.076 -0.145,-0.064 -0.128,0.006 -0.075,0.024 -0.077,0.005 -0.047,-0.008 -0.044,0.014 -0.027,0.026 -0.027,0.043 -0.081,-0.062 c 0,0 -0.063,-0.052 -0.103,-0.072 -0.04,-0.018 -0.126,0.017 -0.153,0.036 -0.028,0.018 -0.128,0.118 -0.128,0.118 l -0.121,-0.106 -0.044,0.019 -0.175,-0.124 c 0,0 -0.056,0.028 -0.083,0.059 -0.03,0.032 -0.04,0.071 -0.045,0.1 0,0.028 0.053,0.06 0.053,0.06 l 0.389,0.352 0.424,0.39 0.051,0.049 0.077,-0.018 0.031,0.014 v 0.035 l 0.03,0.018 h 0.036 l 0.022,-0.021 v -0.034 -0.02 l 0.034,-0.017 0.068,-0.02 0.033,-0.037 0.065,0.004 0.093,-0.008 0.069,0.063 0.12,0.068 0.152,0.119 0.136,0.153 0.273,0.307 -0.018,0.374 -0.067,0.339 -0.069,0.358 c 0.01,0.016 -10e-4,0.454 0.018,0.476 0.017,0.023 0.09,0.37 0.09,0.37 0,0 0.014,0.167 0.024,0.228 0.01,0.06 0.083,0.191 0.091,0.228 0.01,0.034 0.015,0.126 0.05,0.193 0.036,0.065 0.126,0.095 0.183,0.126 0.056,0.03 0.389,0.258 0.389,0.258 l 0.062,-0.004 0.057,0.071 0.073,0.004 0.093,0.104 h 0.078 l 0.049,0.053 0.095,0.044 0.09,0.063 0.024,0.108 -0.043,0.098 -0.035,0.031 -0.07,0.021 -0.063,0.045 -0.047,0.04 -0.037,0.065 v 0.068 l 0.01,0.081 -0.01,0.037 -0.028,0.091 -0.023,0.066 -0.01,0.115 v 0.102 l 0.024,0.091 0.017,0.107 -0.01,0.126 -0.01,0.058 -0.03,0.063 c 0,0 -0.083,0.012 -0.114,0.021 -0.03,0.01 -0.061,0.042 -0.061,0.042 l 0.14,0.113 -0.01,0.029 -0.018,0.06 c 0,0 0.013,0.029 0.026,0.036 0.011,0.008 0.073,0.056 0.073,0.056 l 0.01,0.113 c 0,0 0,0.008 -0.049,0.066 -0.049,0.058 -0.165,0.251 -0.198,0.314 -0.033,0.064 -0.038,0.151 0,0.238 0.037,0.085 0.18,0.161 0.284,0.199 0.103,0.033 0.349,0.033 0.481,0.021 0.13,-0.011 0.584,-0.173 0.816,-0.342 0.231,-0.168 0.485,-0.539 0.503,-0.579 0.017,-0.041 0.017,-0.098 0.01,-0.113 -0.01,-0.014 -0.027,-0.077 -0.041,-0.116 -0.016,-0.038 -0.043,-0.048 -0.043,-0.048 l -0.059,-0.037 -0.096,-0.042 -0.068,-0.006 -0.047,-0.255 -0.013,-0.03 -0.02,-0.015 -0.053,-0.168 -0.101,-0.255 -0.068,-0.111 -0.082,-0.209 -0.019,-0.102 0.13,-0.05 c 0.048,-0.048 0.022,-0.031 0.061,-0.007 0.039,0.02 0.135,-0.033 0.161,-0.02 l 0.222,-0.051 0.17,-0.033 0.17,-0.085 0.255,-0.136 0.169,-0.102 0.123,-0.083 c 0,-0.03 0.114,-0.03 0.123,-0.055 0.01,-0.026 0.03,-0.171 0.061,-0.203 0.03,-0.029 0.079,-0.252 0.119,-0.289 0.039,-0.034 0.07,-0.266 0.119,-0.323 0.048,-0.057 0.075,-0.13 0.102,-0.187 0.025,-0.057 0.071,-0.261 0.119,-0.339 0.047,-0.078 0.066,-0.357 0.119,-0.409 0.052,-0.053 0.058,-0.308 0.101,-0.373 0.046,-0.067 0.047,-0.301 0.069,-0.341 0.021,-0.037 -0.179,-0.397 -0.17,-0.442 0.01,-0.044 -0.094,-0.143 -0.102,-0.17 -0.01,-0.026 -0.076,-0.163 -0.12,-0.187 -0.043,-0.021 -0.22,-0.187 -0.22,-0.187 l -0.201,-0.158 c 0,0 0.074,-0.155 0.121,-0.276 0.049,-0.123 0.023,-0.463 -0.052,-0.56 -0.074,-0.096 -0.048,-0.137 -0.043,-0.228 0,-0.092 0.022,-0.097 0.034,-0.149 0.014,-0.053 0.014,-0.083 0.017,-0.113 0.01,-0.031 0.01,-0.128 0.01,-0.189 0,-0.063 0.091,-0.234 0.128,-0.315 0.033,-0.083 0.029,-0.157 0.025,-0.21 -0.01,-0.053 0.049,-0.138 0.065,-0.193 0.018,-0.057 0.044,-0.189 0.032,-0.223 -0.014,-0.035 -0.097,-0.131 -0.136,-0.172 -0.039,-0.04 -0.241,-0.14 -0.245,-0.174 0,-0.036 0.017,-0.202 0.017,-0.269 0,-0.063 -0.017,-0.516 -0.03,-0.559 -0.014,-0.045 -0.067,-0.193 -0.106,-0.272 -0.039,-0.079 -0.201,-0.675 -0.214,-0.708 -0.014,-0.037 -0.032,-0.092 -0.026,-0.142 0,-0.047 0.069,-0.121 0.083,-0.154 0.013,-0.029 0.039,-0.161 0.039,-0.2 0,-0.04 -0.057,-0.075 -0.061,-0.115 0,-0.038 0.018,-0.24 0.018,-0.258 0,-0.017 0.021,-0.025 0.034,-0.064 0.013,-0.041 0,-0.088 0,-0.229 0,-0.139 -0.023,-0.727 -0.052,-0.853 -0.031,-0.127 -0.022,-0.27 -0.014,-0.316 0.01,-0.043 0.084,-0.119 0.128,-0.183 0.043,-0.067 0,-0.074 -0.03,-0.128 -0.037,-0.053 -0.07,-0.13 -0.062,-0.157 0.01,-0.028 0.025,-0.181 0.025,-0.198 0,-0.017 -0.043,-0.087 -0.043,-0.114 0,-0.027 0.043,-0.057 0.048,-0.074 0,-0.018 -0.023,-0.148 -0.017,-0.171 0,-0.021 0.026,-0.074 0.017,-0.128 -0.01,-0.05 -0.023,-0.201 -0.023,-0.271 0,-0.068 -0.025,-0.073 -0.057,-0.109 -0.029,-0.035 -0.09,-0.149 -0.108,-0.193 -0.018,-0.043 -0.035,-0.161 -0.062,-0.214 -0.025,-0.051 0,-0.118 -0.06,-0.223 -0.061,-0.104 -0.203,-0.228 -0.346,-0.299 -0.145,-0.07 -0.359,-0.057 -0.413,-0.047 0,0 -0.152,0.047 -0.184,0.132 -0.03,0.083 -0.025,0.244 -0.034,0.288 -0.01,0.045 0.066,0.255 0.084,0.285 0.017,0.031 0.078,0.104 0.104,0.11 0.027,0.004 0.044,0.179 0.049,0.202 0,0.02 0.122,0.236 0.153,0.319 0.03,0.083 0.026,0.272 0.035,0.306 0.01,0.036 -0.01,0.161 -0.01,0.211 0,0.047 -0.021,0.198 -0.021,0.253 0,0.057 -0.027,0.21 -0.027,0.246 0,0.034 -0.052,0.36 -0.052,0.403 0,0.044 -0.128,0.464 -0.145,0.507 -0.018,0.044 -0.08,0.447 -0.084,0.507 0,0.063 -0.01,0.238 -0.026,0.322 -0.017,0.081 0.01,0.06 -0.083,0.104 -0.088,0.044 -0.044,0.155 -0.022,0.188 0.022,0.035 -0.013,0.161 -0.03,0.21 -0.019,0.048 -0.201,0.237 -0.281,0.337 -0.078,0.1 -0.166,0.258 -0.183,0.246 -0.018,-0.014 -0.046,-0.051 -0.057,-0.089 -0.014,-0.033 0.011,-0.061 0.029,-0.1 0.019,-0.037 0.014,-0.196 0.01,-0.218 -0.01,-0.021 -0.088,-0.105 -0.075,-0.131 0.012,-0.027 0.045,-0.004 0.045,-0.023 0,-0.018 0.01,-0.293 0.012,-0.386 0,-0.09 -0.07,-0.793 -0.074,-0.897 0,-0.104 -0.022,-0.113 -0.058,-0.18 -0.035,-0.064 0.014,-0.135 0.062,-0.178 0.048,-0.043 -0.053,-0.137 -0.093,-0.194 -0.039,-0.055 -0.012,-0.068 0,-0.109 0.019,-0.04 0.026,-0.162 0.026,-0.201 0,-0.039 -0.035,-0.096 0.01,-0.118 0.044,-0.022 0.088,-0.1 0.092,-0.144 0,-0.045 -0.018,-0.045 0.025,-0.102 0.046,-0.055 0.018,-0.179 0.014,-0.22 0,-0.038 -0.043,-0.069 -0.043,-0.069 v -0.209 c 0,0 -0.075,-0.057 -0.167,-0.11 -0.092,-0.053 -0.319,-0.071 -0.319,-0.071 l -0.128,0.057 c 0,0 -0.065,-0.087 -0.367,-0.242 -0.302,-0.152 -0.604,-0.12 -0.794,-0.134 -0.187,-0.014 -0.352,0.148 -0.428,0.191 -0.075,0.045 -0.056,0.081 -0.052,0.098 0,0.016 0.021,0.061 0.021,0.126 0,0.067 0.053,0.176 0.083,0.185 0.03,0.008 0.325,0.121 0.504,0.158 0.181,0.034 0.412,0.265 0.425,0.293 0.014,0.026 0.021,0.066 0.061,0.074 0.039,0.009 0.071,0.057 0.084,0.08 0.012,0.02 0.065,0.057 0.065,0.073 0,0.017 0.026,0.118 0.026,0.118 0,0 0.01,0.127 0.018,0.164 0.014,0.034 -0.027,0.064 -0.049,0.117 -0.021,0.052 0.054,0.132 0.054,0.132 0,0 0,0.034 -0.01,0.057 0,0.02 -0.093,0.805 -0.106,0.892 -0.012,0.088 -0.038,0.666 -0.038,0.706 0,0.039 -0.019,0.066 -0.053,0.066 -0.036,0 -0.032,0.11 -0.032,0.161 0,0.054 0.054,0.224 0.058,0.255 0,0.03 -0.058,0.06 -0.087,0.184 -0.032,0.121 0.013,0.336 0.029,0.393 0.018,0.057 0.018,0.057 -0.029,0.128 -0.049,0.069 -0.093,0.267 -0.102,0.358 -0.01,0.092 0.049,0.538 0.013,0.551 -0.034,0.014 -0.104,0.097 -0.122,0.128 -0.017,0.029 -0.039,0.298 -0.039,0.364 0,0.065 0.013,0.655 0.026,0.765 0.013,0.111 0.057,0.557 0.057,0.596 z"
           style="fill:#000000;fill-opacity:1;fill-rule:nonzero;stroke:none"
           id="path159451-0-1" />
        <path
           d="m 1048.5144,262.48939 0.848,4.853 -0.067,-0.321 -0.59,-0.098 -0.667,-0.071 -0.937,-0.024 -0.638,0.008 -0.897,-0.057 -0.72,0.075 -0.672,-0.041 -0.362,-0.035 -0.35,-0.139 -0.297,-0.224 -0.299,-0.37 -0.526,-0.354 -0.338,-0.339 -0.484,-0.426 -0.426,-0.233 -0.318,-0.183 -0.191,-0.321 -0.071,-0.639 -0.224,0.234 -0.197,0.805 -0.12,0.775 0.025,0.831 0.046,0.635 0.122,0.366 0.289,0.361 0.242,0.212 0.161,0.242 0.024,0.248 -0.083,0.309 -0.137,0.248 -0.113,0.315 -0.069,0.402 0.034,0.366 0.14,0.297 0.181,0.179 0.368,0.451 0.047,0.268 0.297,0.031 0.362,0.114 0.478,0.087 0.632,0.066 0.512,0.13 0.394,0.191 0.314,0.221 0.317,0.183 0.331,0.072 0.632,0.067 0.661,0.144 0.691,0.222 0.417,0.307 0.311,0.258 0.451,0.349 0.492,0.315 0.494,0.312 0.387,0.23 0.567,0.321 0.531,0.319 0.548,0.508 0.094,0.182 -2.405,-13.494 v -0.313 c 0,0 0.096,-0.334 -0.081,-0.364 -0.346,-2.077 -1.836,-10.794 -1.938,-11.211 l -0.288,0.227 1.774,10.129 z"
           style="fill:#000000;fill-opacity:1;fill-rule:nonzero;stroke:none"
           id="path159455-9-0" />
        <path
           d="m 1043.4437,261.40689 c 0,0 0.138,-0.22 0.157,-0.236 0.022,-0.016 0.118,-0.244 0.205,-0.189 0.053,0.033 0.071,0.378 0.081,0.405 0.01,0.028 0.01,0.173 0,0.189 -0.01,0.016 -0.075,0.145 -0.078,0.19 0,0.045 -0.064,0.023 -0.064,0.023 0,0 -0.26,-0.337 -0.301,-0.382 m 4.277,-1.542 c -0.05,-0.115 -0.336,-0.146 -0.377,-0.142 -0.041,0.004 0,-0.285 -0.063,-0.299 -0.064,-0.012 0.016,-0.252 -0.011,-0.256 -0.027,-0.006 0.027,-0.273 0.027,-0.314 0,-0.04 0.046,-0.502 0.059,-0.617 0.014,-0.114 0.028,-0.726 0.028,-0.793 0,-0.068 -0.023,-0.346 -0.041,-0.377 -0.018,-0.032 -0.091,-0.119 -0.127,-0.132 -0.037,-0.014 0.022,-0.477 0.014,-0.571 -0.01,-0.095 -0.055,-0.299 -0.105,-0.372 -0.05,-0.073 -0.05,-0.073 -0.031,-0.132 0.017,-0.059 0.064,-0.281 0.031,-0.407 -0.031,-0.128 -0.095,-0.16 -0.09,-0.191 0.01,-0.032 0.059,-0.209 0.059,-0.264 0,-0.053 0.01,-0.167 -0.033,-0.167 -0.035,0 -0.054,-0.028 -0.054,-0.069 0,-0.039 -0.026,-0.64 -0.04,-0.73 -0.014,-0.091 -0.104,-0.904 -0.109,-0.925 -0.01,-0.024 -0.01,-0.059 -0.01,-0.059 0,0 0.077,-0.083 0.055,-0.136 -0.023,-0.055 -0.064,-0.087 -0.05,-0.122 0.013,-0.037 0.018,-0.169 0.018,-0.169 0,0 0.027,-0.105 0.027,-0.122 0,-0.018 0.054,-0.056 0.068,-0.077 0.014,-0.024 0.045,-0.073 0.086,-0.083 0.042,-0.008 0.05,-0.049 0.063,-0.077 0.014,-0.027 0.254,-0.267 0.441,-0.303 0.185,-0.037 0.49,-0.155 0.522,-0.163 0.031,-0.01 0.086,-0.122 0.086,-0.191 0,-0.069 0.018,-0.114 0.022,-0.132 0,-0.017 0.024,-0.055 -0.054,-0.1 -0.078,-0.045 -0.249,-0.213 -0.444,-0.199 -0.196,0.014 -0.509,-0.017 -0.822,0.14 -0.313,0.159 -0.38,0.25 -0.38,0.25 l -0.132,-0.059 c 0,0 -0.237,0.018 -0.331,0.073 -0.096,0.055 -0.173,0.114 -0.173,0.114 v 0.216 c 0,0 -0.041,0.034 -0.045,0.073 0,0.041 -0.033,0.169 0.013,0.226 0.046,0.059 0.022,0.059 0.027,0.107 0,0.045 0.05,0.126 0.095,0.149 0.046,0.022 0.01,0.081 0.01,0.122 0,0.042 0.01,0.168 0.028,0.209 0.018,0.041 0.045,0.055 0.01,0.112 -0.042,0.059 -0.146,0.156 -0.097,0.201 0.051,0.045 0.101,0.118 0.064,0.185 -0.036,0.069 -0.054,0.079 -0.059,0.187 0,0.108 -0.081,0.834 -0.076,0.929 0,0.096 0.012,0.382 0.012,0.399 0,0.02 0.033,-0.004 0.046,0.024 0.013,0.027 -0.067,0.114 -0.077,0.136 -0.01,0.023 -0.014,0.187 0.01,0.226 0.018,0.041 0.045,0.069 0.031,0.104 -0.013,0.038 -0.04,0.077 -0.059,0.091 -0.017,0.014 -0.109,-0.15 -0.19,-0.254 -0.082,-0.104 -0.272,-0.299 -0.291,-0.348 -0.018,-0.052 -0.054,-0.181 -0.031,-0.219 0.023,-0.035 0.068,-0.149 -0.023,-0.195 -0.091,-0.045 -0.068,-0.023 -0.086,-0.108 -0.018,-0.087 -0.023,-0.268 -0.027,-0.333 0,-0.063 -0.068,-0.48 -0.087,-0.525 -0.018,-0.045 -0.149,-0.48 -0.149,-0.525 0,-0.046 -0.055,-0.382 -0.055,-0.418 0,-0.037 -0.027,-0.197 -0.027,-0.256 0,-0.057 -0.023,-0.212 -0.023,-0.261 0,-0.052 -0.017,-0.181 -0.01,-0.219 0.01,-0.035 0.01,-0.23 0.037,-0.317 0.031,-0.086 0.153,-0.309 0.158,-0.33 0,-0.024 0.023,-0.205 0.05,-0.209 0.028,-0.006 0.091,-0.082 0.109,-0.114 0.018,-0.031 0.096,-0.25 0.086,-0.295 -0.01,-0.045 0,-0.213 -0.035,-0.299 -0.033,-0.087 -0.191,-0.136 -0.191,-0.136 -0.055,-0.01 -0.278,-0.024 -0.427,0.049 -0.15,0.073 -0.295,0.201 -0.358,0.309 -0.063,0.108 -0.037,0.177 -0.063,0.23 -0.028,0.055 -0.046,0.177 -0.064,0.223 -0.019,0.045 -0.082,0.163 -0.113,0.2 -0.032,0.036 -0.059,0.042 -0.059,0.113 0,0.072 -0.014,0.228 -0.023,0.281 -0.01,0.055 0.013,0.11 0.018,0.132 0.01,0.023 -0.023,0.159 -0.018,0.177 0.01,0.018 0.05,0.049 0.05,0.077 0,0.027 -0.045,0.1 -0.045,0.118 0,0.018 0.018,0.177 0.026,0.205 0.01,0.027 -0.026,0.108 -0.064,0.163 -0.035,0.055 -0.076,0.063 -0.031,0.132 0.045,0.067 0.122,0.145 0.132,0.191 0.01,0.045 0.018,0.194 -0.014,0.326 -0.031,0.13 -0.054,0.738 -0.054,0.884 0,0.146 -0.014,0.195 0,0.236 0.013,0.041 0.036,0.049 0.036,0.067 0,0.02 0.022,0.228 0.018,0.268 0,0.041 -0.063,0.078 -0.063,0.118 0,0.041 0.027,0.177 0.04,0.208 0.014,0.034 0.082,0.111 0.086,0.16 0.01,0.051 -0.013,0.108 -0.027,0.145 -0.013,0.036 -0.182,0.654 -0.222,0.735 -0.04,0.082 -0.095,0.236 -0.109,0.281 -0.014,0.045 -0.032,0.514 -0.032,0.581 0,0.068 0.023,0.24 0.018,0.277 0,0.035 -0.213,0.14 -0.254,0.181 -0.04,0.041 -0.126,0.142 -0.14,0.177 -0.013,0.036 0.014,0.173 0.032,0.232 0.018,0.058 0.073,0.144 0.068,0.199 0,0.055 -0.01,0.132 0.026,0.219 0.038,0.084 0.128,0.261 0.132,0.326 l 0.058,0.5 v 0.362 l -0.015,0.252 c 0.026,0.133 0.052,0.473 0.052,0.473 l -0.142,0.094 -0.189,0.141 -0.299,0.173 -0.472,0.331 c 0,0 -0.231,0.232 -0.276,0.253 -0.045,0.024 -0.163,0.237 -0.173,0.264 -0.01,0.028 -0.049,0.259 -0.04,0.304 0.01,0.046 0.018,0.155 0.04,0.195 0.024,0.041 0.142,0.218 0.187,0.286 0.045,0.068 0.145,0.244 0.199,0.3 0.055,0.054 0.204,0.204 0.254,0.285 0.05,0.082 0.3,0.372 0.326,0.431 0.028,0.059 0.059,0.104 0.109,0.163 0.051,0.059 0.237,0.236 0.277,0.273 0.041,0.036 0.109,0.099 0.141,0.131 0.032,0.032 0.04,0.069 0.05,0.096 0.01,0.027 0.122,0.027 0.127,0.058 0.01,0.033 -0.032,0.113 -0.023,0.164 0.01,0.05 0.095,0.177 0.113,0.217 0.019,0.041 0.037,0.069 0.051,0.137 0.013,0.068 0.086,0.19 0.159,0.217 0.072,0.028 0.157,0.018 0.181,0.037 0.023,0.018 0.049,0.022 0.108,0.027 0.059,0.004 0.082,-0.022 0.142,-0.027 0.058,-0.005 0.235,0.005 0.262,-0.009 0.027,-0.014 0.281,-0.214 0.322,-0.236 0.042,-0.023 0.014,-0.042 0.063,0.009 0.051,0.05 0.064,0.036 0.073,0.063 0.01,0.028 -0.01,0.209 -0.01,0.227 0,0.018 -0.182,0 -0.217,0.014 -0.037,0.013 -0.177,0.045 -0.177,0.09 0,0.045 0.027,0.163 0.068,0.227 0.04,0.064 0.026,0.386 0.026,0.449 0,0.064 0.095,0.885 0.786,1.084 0.345,0.1 0.612,0.079 0.853,-0.117 0.199,-0.163 0.281,-0.495 0.345,-0.594 0.063,-0.1 0.112,-0.168 0.171,-0.201 0.059,-0.031 0.123,-0.09 0.078,-0.203 -0.045,-0.113 -0.182,-0.367 -0.277,-0.426 -0.095,-0.059 -0.114,-0.069 -0.114,-0.069 0,0 -0.01,-0.1 -0.04,-0.15 -0.032,-0.049 -0.054,-0.09 -0.068,-0.113 -0.014,-0.023 -0.023,-0.222 -0.031,-0.273 -0.01,-0.049 -0.059,-0.122 -0.096,-0.139 -0.036,-0.019 -0.145,-0.069 -0.182,-0.083 -0.035,-0.013 -0.059,-0.027 -0.077,-0.053 -0.017,-0.028 0,-0.092 0,-0.092 l 0.091,-0.005 0.049,-0.054 h 0.083 l 0.094,-0.109 0.077,-0.004 0.059,-0.073 0.064,0.005 c 0,0 0.345,-0.236 0.403,-0.267 0.06,-0.033 0.114,0 0.151,-0.068 0.035,-0.069 0.081,-0.228 0.091,-0.264 0.01,-0.036 0,-1.494 0.01,-1.558 0.01,-0.063 0.709,0.755 0.709,0.755 l 0.441,0.615 0.236,0.157 0.236,0.016 0.063,-0.299 -0.126,-0.504 -0.22,-0.394 -0.221,-0.362 -0.582,-1.228 z"
           id="path159459-6-0" />
      </g>
    </g>
  </g>
</svg>
