<?xml version="1.0" encoding="UTF-8" standalone="no"?>
<!-- Created with Inkscape (http://www.inkscape.org/) -->

<svg
   width="14.825517mm"
   height="5.2566867mm"
   viewBox="0 0 14.825517 5.2566867"
   version="1.1"
   id="svg12576"
   sodipodi:docname="inkporter-svg-a0l3ettz.svg"
   xmlns:inkscape="http://www.inkscape.org/namespaces/inkscape"
   xmlns:sodipodi="http://sodipodi.sourceforge.net/DTD/sodipodi-0.dtd"
   xmlns="http://www.w3.org/2000/svg"
   xmlns:svg="http://www.w3.org/2000/svg">
  <sodipodi:namedview
     id="namedview12578"
     pagecolor="#ffffff"
     bordercolor="#666666"
     borderopacity="1.0"
     inkscape:pageshadow="2"
     inkscape:pageopacity="0.0"
     inkscape:pagecheckerboard="0"
     inkscape:document-units="mm"
     showgrid="false"
     inkscape:zoom="0.66368547"
     inkscape:cx="397.02542"
     inkscape:cy="561.25984"
     inkscape:window-width="1920"
     inkscape:window-height="1017"
     inkscape:window-x="-8"
     inkscape:window-y="-8"
     inkscape:window-maximized="1"
     inkscape:current-layer="layer1" />
  <defs
     id="defs12573" />
  <g
     inkscape:label="Layer 1"
     inkscape:groupmode="layer"
     id="layer1"
     transform="translate(-171.80033,-141.16838)">
    <g
       id="S-Mortar"
       transform="matrix(0.06239013,0,0,-0.06239013,63.67189,251.34677)">
      <g
         id="g9905"
         transform="matrix(2.5911886,1.1493295,1.1493295,-2.5911886,1373.8968,1917.5269)">
        <path
           id="rect9021"
           style="fill:#000000;fill-opacity:1;stroke:none;stroke-width:3.77953;-inkscape-stroke:none;paint-order:markers fill stroke;stop-color:#000000"
           d="m 363.59375,418.4082 v 5.78907 h 1.19531 v 15.83789 l -4.52734,3.27539 -8.92578,-4.39844 -2.97461,3.49219 1.68164,6.85547 4.65625,1.42382 4.78711,-1.29297 5.30273,10.10547 v 27.73047 h -1.19531 v 5.78906 h 3.00781 v 7.59961 h 4.13867 v -7.59961 h 4.17188 v -5.78906 h -1.32617 v -38.0625 h 1.32617 V 443.375 h -1.32617 v -19.17773 h 1.32617 v -5.78907 z"
           transform="scale(0.26458333)" />
        <path
           style="fill:#000000;fill-opacity:1;stroke:none;stroke-width:0.264583px;stroke-linecap:butt;stroke-linejoin:miter;stroke-opacity:1"
           d="m 93.847681,131.73586 2.190464,-0.37649 2.532724,0.13691 1.026779,0.71874 1.471722,0.30804 -1.540172,2.32736 -5.715744,-2.6354 z"
           id="path9299" />
        <path
           style="fill:#000000;fill-opacity:1;stroke:none;stroke-width:0.264583px;stroke-linecap:butt;stroke-linejoin:miter;stroke-opacity:1"
           d="m 92.170609,117.05291 -1.129459,0.51339 -7.529719,9.13834 1.403266,0.85565 8.385368,-9.61751 z"
           id="path9659" />
        <path
           style="fill:#000000;fill-opacity:1;stroke:none;stroke-width:0.264583px;stroke-linecap:butt;stroke-linejoin:miter;stroke-opacity:1"
           d="m 82.227956,127.14958 2.755191,1.23213 0.496279,-1.04389 -0.667409,-0.77009 -1.882428,-0.0513 z"
           id="path9782" />
      </g>
      <path
         d="m 1791.0993,1685.7967 c 0,2.5087 1.088,7.194 3.5245,15.178 l 0.4005,1.3125 h -1.9625 -1.9625 v 2.3217 2.3217 l 1.5026,2.1102 1.5026,2.1102 -0.4207,1.0964 -0.4207,1.0964 1.2806,1.2806 1.2806,1.2806 -0.064,2.2404 c -0.035,1.2322 -0.2698,3.1786 -0.5216,4.3253 l -0.4579,2.0849 -2.0284,1.4698 c -1.1156,0.8083 -3.2096,1.9179 -4.6533,2.4657 l -2.625,0.9959 -3.9456,4.2126 -3.9456,4.2126 0.4644,-2.0625 0.4644,-2.0625 h -2.563 -2.5629 l -1.4559,1.125 c -1.5087,1.0809 -1.6204,0.9968 -0.1955,2.107 l 1.2603,0.982 -0.4085,3.0458 -0.4085,3.0457 0.8357,0.5165 0.8357,0.5165 v 3.6444 c 0,4.3462 0.5429,6.0171 1.9552,6.0171 0.5746,0 1.0448,0.3375 1.0448,0.75 0,1.5362 1.9078,0.6677 2.8125,-1.2804 1.0421,-2.244 1.136,-5.0695 0.2437,-7.3446 l -0.5881,-1.5 1.0687,-1.6365 c 0.941,-1.4409 3.359,-2.9501 10.8464,-6.7698 l 2.0082,-1.0245 1.9292,0.4842 c 2.2499,0.5647 2.269,0.6701 0.8483,4.6966 l -1.0809,3.0636 3.4545,3.4057 3.4545,3.4057 h 1.7887 c 2.3208,0 5.9769,-1.9053 6.8745,-3.5825 0.3876,-0.7243 0.8095,-2.9989 0.9374,-5.0547 l 0.2328,-3.7378 -1.7226,-0.2472 -1.7225,-0.2472 0.4323,-1.1266 c 0.2379,-0.6197 0.4324,-1.4529 0.4324,-1.8516 0,-0.3986 0.9281,-1.1465 2.0625,-1.6619 3.5146,-1.5969 6.9278,-3.8335 6.9327,-4.5429 0,-0.3725 1.0755,-2.9038 2.3842,-5.625 l 2.3795,-4.9476 0.097,-5.625 0.097,-5.625 0.8637,-1.5726 c 0.4751,-0.865 1.4219,-4.0712 2.1041,-7.125 0.6822,-3.0538 1.5418,-5.873 1.9101,-6.2649 0.3684,-0.3919 0.6698,-2.1397 0.6698,-3.8839 v -3.1715 l -1.2048,-1.2047 -1.2048,-1.2048 -7.2327,0.2137 -7.2328,0.2138 -1.2886,2.5818 c -0.7088,1.42 -1.8458,2.8937 -2.5268,3.2748 l -1.2382,0.6929 -0.6492,-1.0248 c -0.357,-0.5636 -0.6544,-1.7166 -0.6606,-2.5622 -0.01,-0.8457 -0.4165,-1.9425 -0.9115,-2.4375 l -0.9,-0.9 h -6.2251 -6.225 z"
         style="fill:#000000;stroke-width:0.198437"
         id="path10103" />
      <path
         d="m 1887.0012,1683.3753 c 0.3149,0.3148 0.5726,1.994 0.5726,3.7312 v 3.1587 l -1.7175,1.5543 c -0.9447,0.8548 -1.7174,2.0779 -1.7174,2.7177 0,0.6399 -0.6856,1.7504 -1.5232,2.4675 l -1.5233,1.3042 0.3207,3.361 0.3205,3.3612 2.7054,0.5742 c 3.5052,0.7443 5.7109,2.7341 5.7109,5.1522 0,1.0596 -1.1556,4.1234 -2.568,6.8085 -1.4123,2.6849 -2.6584,6.0689 -2.769,7.5199 l -0.2011,2.6383 -3.7153,1.6433 -3.7153,1.6435 -0.8899,2.302 -0.8899,2.3017 1.3917,4.4599 1.3918,4.4597 -0.5545,2.2089 c -0.305,1.215 -1.5292,2.9759 -2.7207,3.9131 l -2.166,1.7037 -3.5339,-0.034 -3.5337,-0.034 -2.9892,-2.5547 -2.9891,-2.5546 1.0394,-1.6643 1.0395,-1.6644 -0.7398,-0.4571 c -0.4069,-0.2516 -0.768,-2.105 -0.8025,-4.1189 l -0.064,-3.6614 1.6715,-1.2881 1.6718,-1.2882 0.022,-2.1467 c 0.011,-1.1809 0.026,-4.4193 0.033,-7.1965 l 0.011,-5.0494 -1.338,-2.0422 c -1.243,-1.8969 -6.0679,-4.6006 -10.4609,-5.8618 l -1.8725,-0.5376 -0.5059,-2.3226 -0.5062,-2.3226 2.1459,-7.2992 c 1.1802,-4.0146 2.1539,-7.7823 2.1639,-8.3726 l 0.017,-1.0736 h -3.0056 -3.0055 v -3.0055 -3.0056 h 11.8676 11.8674 l 1.8666,2.1467 c 1.0267,1.1806 2.4172,2.1467 3.0902,2.1467 0.6729,0 1.8333,0.2341 2.5785,0.52 l 1.3549,0.5199 -0.5332,-2.6667 -0.5334,-2.6668 h 3.8284 c 2.1057,0 4.0863,0.2576 4.4011,0.5725 z"
         style="fill:#000000;stroke-width:0.227206"
         id="path10174-7" />
      <path
         d="m 1907.7316,1682.591 -0.3992,0.8618 0.2935,0.3635 c 1.9437,2.3937 2.7113,3.1565 2.9962,2.9804 l 0.3395,-0.207 v 0.9189 c 0,0.5088 -0.255,1.1314 -0.5662,1.3903 l -0.5661,0.4697 v 1.6297 c 0,1.9999 -0.8918,5.9488 -1.9374,8.58 l -0.7806,1.9648 0.2231,2.6419 c 0.123,1.4529 0.3299,3.6077 0.4603,4.7883 l 0.2372,2.1464 -1.649,0.1119 -1.6488,0.1174 -0.6965,2.0766 c -1.1728,3.4953 -1.0279,4.9153 0.8714,8.5387 l 1.1903,2.2705 -0.034,1.2946 c -0.023,0.712 -0.034,2.9781 -0.023,5.0357 l 0.023,3.7419 0.4429,0.5313 0.4429,0.5313 -0.4994,0.3076 c -0.2747,0.1733 -1.1656,0.4194 -1.9799,0.548 l -1.4802,0.2349 -0.5436,1.3008 c -0.2987,0.7153 -0.5436,1.8003 -0.5436,2.4116 v 1.1107 l 1.1419,0.9607 c 0.6281,0.5257 2.0404,1.2444 3.1387,1.5906 l 1.9965,0.6292 -1.6172,7.9732 c -1.7715,8.7344 -1.8467,9.4621 -1.2008,11.618 l 0.4396,1.4675 0.8614,0.2181 0.8611,0.2181 1.276,-0.4195 1.2758,-0.4194 0.4378,-2.1626 c 0.2411,-1.189 0.8681,-4.1162 1.3942,-6.5031 0.5262,-2.3868 1.1387,-5.2743 1.3614,-6.4163 0.2226,-1.1414 0.6439,-2.648 0.9357,-3.3482 0.2914,-0.6997 0.5307,-1.7499 0.5307,-2.3343 0,-0.5839 0.2663,-2.3042 0.592,-3.8226 0.3249,-1.5189 0.6229,-3.2638 0.6605,-3.8784 l 0.069,-1.1174 1.214,-0.2461 c 1.4021,-0.2852 1.6167,-0.1566 1.6167,0.9893 0,0.4587 0.2572,1.0481 0.571,1.3081 l 0.571,0.4754 -1.3409,1.1761 -1.3407,1.1767 -0.2081,2.6346 c -0.1146,1.4496 -0.091,3.7235 0.05,5.0541 l 0.2583,2.4187 0.8754,0.8753 c 0.4815,0.4865 1.3572,0.9703 1.9459,1.0861 0.5887,0.1118 1.7764,0.369 2.6391,0.5704 l 1.5689,0.3635 1.7097,-0.5822 1.7098,-0.5828 0.9194,-1.2057 0.9195,-1.2058 0.2829,-1.6922 c 0.1556,-0.9307 0.6178,-2.5413 1.0272,-3.5793 l 0.7443,-1.8875 -0.2081,-1.6979 c -0.1146,-0.9339 -0.3635,-2.4238 -0.5525,-3.3108 l -0.3445,-1.6123 0.2735,-0.1678 c 0.1504,-0.096 1.9542,-0.2796 4.0081,-0.4194 2.054,-0.1398 4.0318,-0.4083 4.3951,-0.5906 l 0.6604,-0.3411 v -0.6952 c 0,-0.3802 0.2126,-0.8707 0.472,-1.085 0.6877,-0.5687 4.4667,-1.4255 8.6636,-1.9652 l 3.6626,-0.4753 2.6893,1.3668 c 1.4792,0.7516 3.1065,1.3662 3.6162,1.3662 0.5101,0 1.35,0.2741 1.8674,0.6163 l 0.9404,0.6157 3.3532,0.2406 3.3532,0.2348 -0.1773,-0.2907 c -0.098,-0.1623 0.1516,-0.2909 0.5537,-0.2909 0.4021,0 0.9511,-0.2628 1.2199,-0.5894 l 0.4894,-0.5895 -0.9849,-0.9132 -0.9848,-0.9133 -0.2539,-1.7997 c -0.1393,-0.9899 -0.505,-2.199 -0.8122,-2.6867 l -0.5587,-0.8863 -1.1934,0.1957 c -0.6564,0.1062 -1.6828,0.3187 -2.2809,0.4697 l -1.0873,0.2685 -0.3468,-0.6203 -0.3467,-0.619 h -0.7548 c -1.0642,0 -2.7411,-0.9284 -5.9255,-3.2812 -3.3924,-2.5066 -4.1886,-2.8209 -7.1019,-2.8019 h -2.3082 l -2.7871,0.9329 c -1.5329,0.5089 -3.285,0.986 -3.8935,1.0519 l -1.1066,0.1174 -0.1459,-1.5093 c -0.08,-0.83 -0.5419,-2.3847 -1.0258,-3.454 l -0.8795,-1.9439 0.4149,-0.4139 c 0.2282,-0.2293 0.6411,-0.4138 0.9174,-0.4138 0.2763,0 0.6164,-0.2964 0.7554,-0.6599 0.1387,-0.3636 0.5514,-0.9156 0.9159,-1.2271 0.3647,-0.3131 1.0099,-1.4636 1.4338,-2.5614 l 0.7706,-1.9954 v -1.9104 -1.9104 l -1.053,-1.0005 -1.053,-1.0011 0.2618,-1.5099 0.2616,-1.5095 -0.7285,-0.7902 -0.7285,-0.7903 0.2444,-2.0765 0.2444,-2.0776 -0.5902,-1.2841 -0.59,-1.2851 -0.1733,-3.6911 -0.1735,-3.6911 -0.4602,-0.5536 -0.4602,-0.5537 h -6.1394 -6.1393 l -0.2561,1.3651 c -0.141,0.7506 -0.1399,2.4909 0,3.8684 l 0.2578,2.5037 0.5802,0.6611 c 0.3189,0.3635 0.8223,0.6599 1.118,0.6599 h 0.5374 l -0.2454,1.2264 c -0.1354,0.6757 -0.4145,1.7718 -0.6202,2.4368 l -0.3741,1.2107 -2.5238,-0.2013 c -1.3881,-0.1119 -2.7537,-0.274 -3.0348,-0.3635 l -0.5112,-0.1622 0.2841,-0.6572 c 0.1567,-0.3635 0.3277,-3.332 0.3815,-6.6014 l 0.098,-5.9449 h -5.7205 -5.7205 l -0.3993,0.8618 z m 59.7422,46.5384 c -0.1253,0.123 -0.4513,0.1399 -0.7234,0.055 l -0.4955,-0.1957 0.7234,-0.055 c 0.3981,0 0.6208,0.073 0.4955,0.1957 z"
         style="fill:#000000;stroke-width:0.283071"
         id="path23238-5-0" />
    </g>
  </g>
</svg>
