<?xml version="1.0" encoding="UTF-8" standalone="no"?>
<!-- Created with Inkscape (http://www.inkscape.org/) -->

<svg
   width="17.99305mm"
   height="7.1919599mm"
   viewBox="0 0 17.99305 7.1919599"
   version="1.1"
   id="svg17164"
   sodipodi:docname="inkporter-svg-qaofyfpl.svg"
   xmlns:inkscape="http://www.inkscape.org/namespaces/inkscape"
   xmlns:sodipodi="http://sodipodi.sourceforge.net/DTD/sodipodi-0.dtd"
   xmlns="http://www.w3.org/2000/svg"
   xmlns:svg="http://www.w3.org/2000/svg">
  <sodipodi:namedview
     id="namedview17166"
     pagecolor="#ffffff"
     bordercolor="#666666"
     borderopacity="1.0"
     inkscape:pageshadow="2"
     inkscape:pageopacity="0.0"
     inkscape:pagecheckerboard="0"
     inkscape:document-units="mm"
     showgrid="false"
     inkscape:zoom="0.64052329"
     inkscape:cx="397.33138"
     inkscape:cy="561.25984"
     inkscape:window-width="1920"
     inkscape:window-height="1017"
     inkscape:window-x="-8"
     inkscape:window-y="-8"
     inkscape:window-maximized="1"
     inkscape:current-layer="layer1" />
  <defs
     id="defs17161" />
  <g
     inkscape:label="Layer 1"
     inkscape:groupmode="layer"
     id="layer1"
     transform="translate(-59.986796,-106.68303)">
    <path
       d="m 67.327602,108.28014 0.05652,-0.10611 -0.09511,-0.0372 -0.07303,-0.004 -0.05376,-0.13367 -0.05923,-0.0675 0.04547,-0.15709 -0.179141,-0.0372 0.0689,-0.0386 0.02611,-0.0593 0.01376,-0.0648 0.02081,-0.0606 0.03584,-0.0634 0.09507,-0.0882 c 0.01799,-0.0138 0.07578,-0.0331 0.07578,-0.0331 l 0.05927,-0.011 0.06615,-0.008 0.06202,0.006 0.103329,0.0207 c 0.05789,0.022 0.09236,0.0496 0.09236,0.0496 l 0.02893,-0.11851 h -1.977496 v 1.51309 h 0.394123 l 0.02187,-0.0606 0.112995,-0.11851 0.106116,-0.003 0.101953,0.0427 0.07031,-0.0799 -0.403789,-0.41066 0.08957,-0.0882 0.70418,0.71795 h 0.159879 l 0.128128,-0.0276 0.09511,-0.0565 0.01235,-0.17914 z m -0.73586,0.41754 0.12125,0.062 -0.08682,-0.0992 z m 9.128125,3.12678 c 0.0551,0.15847 0.08541,0.32797 0.08541,0.50436 0,0.84473 -0.684883,1.52824 -1.528234,1.52824 -0.789622,0 -1.441414,-0.59944 -1.519978,-1.36839 l -0.24391,-0.022 -0.270087,-0.23978 -0.749653,-0.0303 -0.0744,0.1502 h -0.884731 v 0.15021 h -2.007799 v -0.18052 h -2.112504 l -0.01517,0.15021 H 64.63076 l -0.179141,-0.0896 -1.230595,0.0482 c -0.04131,0.80753 -0.708307,1.4497 -1.526857,1.4497 -0.844726,0 -1.528233,-0.68351 -1.528233,-1.52825 0,-0.11299 0.01235,-0.22324 0.03581,-0.32935 l -0.214948,-0.11988 v -0.23978 l 0.148802,-0.20947 0.330729,-0.091 v -1.10794 h 0.148837 v -0.3831 h 0.450638 V 109.14 l 0.06615,-0.12678 0.202565,-0.0234 3.806119,-0.0593 0.05927,-1.76802 -0.118498,-0.0606 0.239783,-0.20947 0.447851,-0.0896 1.19888,-0.0909 1.050079,-0.0289 0.628367,0.0896 0.389996,0.15021 v 1.49793 h 0.19431 v -0.20119 l 8.749171,-0.008 v 3.04822 h -0.598064 v 0.54846 h -0.913659 z m 0,0"
       id="S-Softskin"
       style="stroke-width:0.352778" />
  </g>
</svg>
