<?xml version="1.0" encoding="UTF-8" standalone="no"?>
<!-- Created with Inkscape (http://www.inkscape.org/) -->

<svg
   width="30.013584mm"
   height="8.2049503mm"
   viewBox="0 0 30.013584 8.2049503"
   version="1.1"
   id="svg6745"
   sodipodi:docname="inkporter-svg-de2d1i4p.svg"
   xmlns:inkscape="http://www.inkscape.org/namespaces/inkscape"
   xmlns:sodipodi="http://sodipodi.sourceforge.net/DTD/sodipodi-0.dtd"
   xmlns="http://www.w3.org/2000/svg"
   xmlns:svg="http://www.w3.org/2000/svg">
  <sodipodi:namedview
     id="namedview6747"
     pagecolor="#ffffff"
     bordercolor="#666666"
     borderopacity="1.0"
     inkscape:pageshadow="2"
     inkscape:pageopacity="0.0"
     inkscape:pagecheckerboard="0"
     inkscape:document-units="mm"
     showgrid="false"
     inkscape:zoom="0.66368547"
     inkscape:cx="397.02542"
     inkscape:cy="561.25984"
     inkscape:window-width="1920"
     inkscape:window-height="1017"
     inkscape:window-x="-8"
     inkscape:window-y="-8"
     inkscape:window-maximized="1"
     inkscape:current-layer="layer1" />
  <defs
     id="defs6742" />
  <g
     inkscape:label="Layer 1"
     inkscape:groupmode="layer"
     id="layer1"
     transform="translate(-86.978536,-147.56711)">
    <path
       d="m 96.53952,154.52358 c 0.01658,-0.03 0.04198,-0.0515 0.07126,-0.0635 h -0.297392 l -0.102306,0.18415 c -0.0039,0.007 -0.0085,0.0138 -0.01305,0.0201 l 0.201789,0.11712 c 0.0032,-0.009 0.0063,-0.0176 0.01164,-0.0261 z m 0.180975,-0.0635 0.05539,0.0296 c 0.06985,0.0385 0.0949,0.1263 0.05644,0.19615 l -0.128764,0.23107 c -0.0049,0.01 -0.01094,0.0183 -0.01764,0.0257 l 0.206023,0.1136 c 0.0028,-0.01 0.0063,-0.019 0.01164,-0.0286 l 0.128764,-0.23142 c 0.02223,-0.0406 0.06138,-0.066 0.10407,-0.0723 -0.006,-0.0448 -0.0092,-0.0903 -0.0092,-0.13653 0,-0.0434 0.0025,-0.0854 0.0078,-0.12735 z m -0.808214,0.0356 0.134761,-0.24518 c -0.05927,0.0109 -0.122414,0.0176 -0.184856,0.0176 -0.02857,0 -0.05644,-0.001 -0.08467,-0.004 l -0.05891,0.10654 z m -0.479425,-0.2988 0.01058,-0.0187 c -0.04586,-0.0208 -0.08996,-0.0448 -0.131939,-0.0716 0.03246,0.0265 0.06597,0.0526 0.100895,0.0762 z m 19.922774,0.26599 0.01,0.0212 0.0649,-0.0332 c -0.0247,0.005 -0.0498,0.009 -0.0748,0.012 m -0.28928,0.17075 -0.0868,-0.18521 c -0.13688,-0.0275 -0.266,-0.079 -0.38136,-0.15064 l -0.69462,0.139 c 0.007,0.049 0.0113,0.0995 0.0113,0.15063 0,0.18204 -0.0483,0.35243 -0.13123,0.50024 l 0.055,0.1203 0.21132,-0.0896 -0.11536,-0.24694 c -0.0335,-0.0723 -0.003,-0.15804 0.0699,-0.19156 l 0.0413,-0.0194 c 0.0727,-0.0339 0.15805,-0.003 0.19227,0.0695 l 0.11112,0.24024 0.21061,-0.091 -0.115,-0.24553 c -0.0335,-0.0723 -0.002,-0.15805 0.0699,-0.19191 l 0.0416,-0.0194 c 0.072,-0.0335 0.15805,-0.002 0.19191,0.0699 l 0.11183,0.23989 z m -2.94287,0.6738 c 0,-0.0173 0.004,-0.0339 0.009,-0.0494 -0.15734,-0.17885 -0.25259,-0.4138 -0.25259,-0.67063 0,-0.0434 0.002,-0.0854 0.008,-0.12735 h -0.44838 c 0.005,0.042 0.008,0.084 0.008,0.12735 0,0.2212 -0.0713,0.42616 -0.19121,0.59338 0.0452,0.024 0.0755,0.072 0.0755,0.12664 v 0.24836 h 0.22789 v -0.24836 c 0,-0.0797 0.0649,-0.14428 0.14464,-0.14428 h 0.0459 c 0.0801,0 0.14393,0.0646 0.14393,0.14428 v 0.24836 h 0.22896 z m 0.33443,0.19791 v 0.0505 h 0.127 c -0.0437,-0.0141 -0.0861,-0.0311 -0.127,-0.0505 m -1.46015,0.0505 V 155.432 c -0.0705,0.0473 -0.14746,0.0861 -0.22895,0.11501 z m -1.12642,0 V 155.438 c -0.27622,-0.18238 -0.45896,-0.4953 -0.45896,-0.85055 0,-0.0434 0.003,-0.0854 0.008,-0.12735 h -1.23683 c 0.006,0.042 0.008,0.084 0.008,0.12735 0,0.2667 -0.10301,0.50977 -0.27093,0.6911 0.002,0.01 0.002,0.0191 0.002,0.0289 v 0.24836 h 0.22895 v -0.24836 c 0,-0.0797 0.0646,-0.14428 0.14464,-0.14428 h 0.0459 c 0.079,0 0.14393,0.0646 0.14393,0.14428 v 0.24836 h 0.2286 v -0.24836 c 0,-0.0797 0.0649,-0.14428 0.14464,-0.14428 h 0.0452 c 0.0801,0 0.14463,0.0646 0.14463,0.14428 v 0.24836 h 0.25824 v -0.24836 c 0,-0.0797 0.0649,-0.14428 0.14393,-0.14428 h 0.0466 c 0.0797,0 0.14393,0.0646 0.14393,0.14428 v 0.24836 z m -2.28247,0 v -0.0395 c -0.0328,0.0152 -0.067,0.0282 -0.1023,0.0395 z m -1.12642,0 v -0.2413 c 0,-0.0868 0.0649,-0.15134 0.14464,-0.15134 h 0.0459 c 0.0801,0 0.14394,0.0646 0.14394,0.14428 v 0.22543 0.0229 h 0.0649 c -0.0219,-0.007 -0.0434,-0.0148 -0.0649,-0.0229 v -0.22543 c 0,-0.0797 -0.0639,-0.14428 -0.14394,-0.14428 h -0.0459 c -0.0797,0 -0.14464,0.0646 -0.14464,0.14428 -0.18838,-0.17744 -0.3055,-0.43497 -0.3055,-0.72002 0,-0.0434 0.002,-0.0854 0.008,-0.12735 h -0.95709 c 0.005,0.042 0.008,0.084 0.008,0.12735 0,0.22543 -0.073,0.43392 -0.19755,0.6029 0.0367,0.0258 0.0607,0.0688 0.0607,0.11712 v 0.24836 h 0.22895 v -0.24836 c 0,-0.0797 0.0638,-0.14428 0.14393,-0.14428 h 0.0459 c 0.0797,0 0.14429,0.0646 0.14429,0.14428 v 0.24836 h 0.25788 v -0.24836 c 0,-0.0797 0.0653,-0.14428 0.14464,-0.14428 h 0.0462 c 0.0794,0 0.14429,0.0646 0.14429,0.14428 l -7.1e-4,0.24836 z m -1.71838,0 v -0.10971 c -0.0709,0.0452 -0.14781,0.0832 -0.2286,0.10971 z m -1.12642,0 v -0.13265 c -0.26388,-0.18415 -0.43674,-0.48965 -0.43674,-0.83573 0,-0.0434 0.002,-0.0854 0.008,-0.12735 h -0.98284 c 0.005,0.042 0.008,0.084 0.008,0.12735 0,0.21379 -0.066,0.4124 -0.1785,0.57609 l 0.0533,-3.5e-4 c 0.0797,0 0.14393,0.0646 0.14393,0.14428 v 0.24836 h 0.25823 v -0.24836 c 0,-0.0797 0.0649,-0.14428 0.14429,-0.14428 h 0.0462 c 0.0794,0 0.14464,0.0646 0.14464,0.14428 v 0.24836 h 0.22825 v -0.24836 c 0,-0.0797 0.0646,-0.14428 0.14429,-0.14428 h 0.0455 c 0.0797,0 0.14464,0.0646 0.14464,0.14428 v 0.24836 z m -1.71908,0 v -0.23178 c -0.0677,0.0649 -0.14464,0.11995 -0.22825,0.16405 v 0.0677 z m -1.12607,0 v -0.0434 c -0.0829,-0.0381 -0.15946,-0.0871 -0.2286,-0.14499 v 0.18838 z m -0.56303,-0.24836 c 0,-0.0797 0.0642,-0.14428 0.14428,-0.14428 -0.1083,-0.16369 -0.17427,-0.36195 -0.17427,-0.57574 0,-0.0434 0.002,-0.0854 0.007,-0.12735 h -1.033287 c 0.0056,0.042 0.0085,0.084 0.0085,0.12735 0,0.45297 -0.29598,0.83644 -0.705555,0.96838 h 0.626533 v -0.24836 c 0,-0.0797 0.06456,-0.14428 0.144286,-0.14428 h 0.04657 c 0.07902,0 0.143933,0.0646 0.143933,0.14428 v 0.24836 h 0.228248 v -0.24836 c 0,-0.0797 0.06491,-0.14428 0.144286,-0.14428 h 0.04657 c 0.07937,0 0.143581,0.0646 0.143581,0.14428 v 0.24836 h 0.228955 z m -5.166434,-2.67758 c -0.0088,0.0173 -0.01764,0.0349 -0.0254,0.0529 0.01058,-0.0155 0.02152,-0.0303 0.03281,-0.0452 z m 2.138892,2.58128 c 0.10795,0.0564 0.211667,0.10865 0.307269,0.15416 -0.09349,-0.079 -0.172861,-0.17463 -0.233539,-0.28258 l -0.05997,0.1076 c -0.0039,0.007 -0.0085,0.0141 -0.01376,0.0208 m 19.273312,-2.40454 0.01,0.0314 c 0.20461,0.64946 0.0212,1.2834 -0.60784,1.63336 -0.45049,0.25083 -2.56681,1.30069 -2.9411,1.30069 H 98.002842 c -0.409928,0 -2.387247,-1.18604 -2.713567,-1.41146 -0.358069,-0.2473 -0.648758,-0.67381 -0.623711,-1.06645 0.01164,-0.18591 0.07197,-0.5648 0.218369,-0.82268 l -0.325613,-0.32596 c 0,0 0.101952,-0.22896 0.381352,-0.45791 0.279753,-0.22895 0.687211,-0.20355 0.687211,-0.20355 v -0.15275 h -0.517877 c -0.07973,0 -0.144286,-0.0646 -0.144286,-0.14429 v -0.87277 h -1.220259 v -0.13723 h -3.956755 c -0.01976,0.0572 -0.07373,0.0988 -0.137231,0.0988 h -0.576439 c -0.06385,0 -0.117827,-0.0416 -0.136877,-0.0988 h -1.669698 c -0.159455,0 -0.288925,-0.12912 -0.288925,-0.28858 v -0.23671 c 0,-0.15946 0.12947,-0.28857 0.288925,-0.28857 h 1.669698 c 0.01905,-0.0571 0.07303,-0.0988 0.136877,-0.0988 h 0.576439 c 0.0635,0 0.117475,0.0416 0.137231,0.0988 h 4.173008 l 0.1143,-0.19368 h 1.526117 v -0.0254 h 0.567619 l 0.04269,-0.0254 0.178506,-0.12735 v -0.33055 l 0.3556,-0.38171 h 0.05115 v -0.2032 h 1.831622 v 0.12665 h 0.177094 v 0.0765 h 0.356658 v -0.1778 h 0.228953 v -0.17815 h 0.660757 v -0.35595 h 0.1277 v 0.17815 h 0.30515 v 0.1778 h 0.48331 v -0.20355 h 1.01741 l 0.46637,0.3817 h 2.58586 v -0.20355 h 0.22896 v 0.20355 h 0.76305 v -0.27975 h 0.20356 v 0.27975 h 0.73801 v -0.30515 h 0.12665 v 0.30515 h 0.0504 v 0.76306 h 0.15311 v 0.55951 h -0.15311 v 0.91581 h 0.10266 v -0.33056 h 0.3556 v -0.0769 h 0.22895 v 0.0769 h 0.94121 v -0.0769 h 0.22896 v 0.0769 h 1.14406 v -0.0769 h 0.2293 v 0.0769 h 0.40711 v 0.33056 h 0.25435 v -0.33056 h 0.3556 v -0.0769 h 0.22895 v 0.0769 h 0.94157 v -0.0769 h 0.22895 v 0.0769 h 1.14441 v -0.0769 h 0.22931 v 0.0769 h 0.40604 v 0.33056 h 0.15311 l 2.26377,2.00907 -0.4833,0.4579 z m -27.716342,-3.27766 h -0.1016 v 0.48225 h 0.1016 z m -0.183798,0 h -0.1016 v 0.48225 h 0.1016 z m -0.183797,0 h -0.1016 v 0.48225 h 0.1016 z m -0.18415,0 h -0.101247 v 0.48225 h 0.101247 z m -0.183092,0 h -0.1016 v 0.48225 h 0.1016 z m -0.183797,0 h -0.101953 v 0.48225 h 0.101953 z m -0.18415,0 h -0.1016 v 0.48225 h 0.1016 z m -0.183797,0 H 87.35107 v 0.48225 h 0.101247 z"
       id="S-SU152"
       style="stroke-width:0.352778" />
  </g>
</svg>
