<?xml version="1.0" encoding="UTF-8" standalone="no"?>
<!-- Created with Inkscape (http://www.inkscape.org/) -->

<svg
   width="19.234056mm"
   height="6.0533342mm"
   viewBox="0 0 19.234056 6.0533342"
   version="1.1"
   id="svg6745"
   sodipodi:docname="inkporter-svg-de2d1i4p.svg"
   xmlns:inkscape="http://www.inkscape.org/namespaces/inkscape"
   xmlns:sodipodi="http://sodipodi.sourceforge.net/DTD/sodipodi-0.dtd"
   xmlns="http://www.w3.org/2000/svg"
   xmlns:svg="http://www.w3.org/2000/svg">
  <sodipodi:namedview
     id="namedview6747"
     pagecolor="#ffffff"
     bordercolor="#666666"
     borderopacity="1.0"
     inkscape:pageshadow="2"
     inkscape:pageopacity="0.0"
     inkscape:pagecheckerboard="0"
     inkscape:document-units="mm"
     showgrid="false"
     inkscape:zoom="0.66368547"
     inkscape:cx="397.02542"
     inkscape:cy="561.25984"
     inkscape:window-width="1920"
     inkscape:window-height="1017"
     inkscape:window-x="-8"
     inkscape:window-y="-8"
     inkscape:window-maximized="1"
     inkscape:current-layer="layer1" />
  <defs
     id="defs6742" />
  <g
     inkscape:label="Layer 1"
     inkscape:groupmode="layer"
     id="layer1"
     transform="translate(-89.220011,-92.207961)">
    <path
       d="m 108.33105,95.771372 0.0617,-0.110772 -0.3496,-0.147814 v -0.275167 h -0.24589 l 0.13547,-0.171803 -0.26564,-0.248002 c 0.16404,-0.114653 0.27164,-0.3048 0.27164,-0.520348 0,-0.349955 -0.28399,-0.633588 -0.63394,-0.633588 -0.20109,0 -0.37995,0.09349 -0.49636,0.239536 v -0.28187 h -0.60502 v -0.03598 h -0.13405 v 0.03598 h -0.49671 v -0.09631 H 105.373 v 0.09631 h -0.50517 v -0.03598 h -0.13476 v 0.03598 h -0.60819 v 0.135114 h -0.19685 v -0.21343 h -1.27141 v 0.218722 h -2.35585 l -0.18345,-0.912989 h -0.132643 c 0,0 -0.176742,-0.320675 -0.563386,-0.320675 -0.386998,0 -0.591256,0.320675 -0.591256,0.320675 H 98.08391 l -0.05539,-0.09419 0.03316,-0.03316 -0.121355,-0.165805 0.03316,-0.02187 c 0,0 -0.02787,-0.0441 -0.110773,-0.17145 -0.0829,-0.127 -0.149225,-0.01094 -0.149225,-0.01094 H 97.52581 v -0.03881 h -0.524934 c 0,0 -0.02223,-0.104775 -0.160514,-0.104775 -0.137936,0 -0.14358,0.09384 -0.187677,0.09384 -0.0441,0 -0.01658,0.06068 -0.01658,0.06068 l -0.259644,0.386998 h -1.541992 c -0.546806,0 -0.878417,0.933802 -0.878417,0.933802 h -2.072216 l -0.299156,0.491773 h -2.364669 v 0.480836 h 2.072569 l -0.09419,0.154516 v 0.503061 h 0.110772 v -0.0441 h 1.975555 c -0.0254,0.04127 -0.0448,0.0762 -0.0448,0.0762 h -0.263525 c -0.07091,0 -0.136878,0.0063 -0.19932,0.01729 l -0.05009,-0.0021 c -0.20955,-0.01235 -0.558095,0.03669 -0.828675,0.262819 -0.270934,0.226131 -0.356659,0.578203 -0.356659,0.578203 l 0.632531,0.174978 c -0.08819,0.397933 0.123825,0.652638 0.437092,0.859719 0.493536,0.325967 1.952977,1.024819 2.531533,1.024819 h 10.163876 c 0.40993,0 2.58833,-0.703791 2.88467,-1.051983 0.42968,-0.504119 0.32102,-1.309511 -0.24342,-1.578328 l 0.01,-0.0194 z m -9.817809,1.967794 c 0.130175,-0.152047 0.218722,-0.340783 0.24765,-0.548569 h 0.690386 c 0.0515,0.366536 0.287514,0.673805 0.611713,0.824089 h -0.449083 c -0.02963,-0.164042 -0.100541,-0.279753 -0.18415,-0.279753 -0.0829,0 -0.154516,0.115711 -0.183444,0.279753 h -0.577145 c -0.02575,-0.145697 -0.08467,-0.253295 -0.155927,-0.27552 m -0.363714,0.27552 c 0.06279,-0.02928 0.122766,-0.06456 0.178858,-0.105128 -0.01094,0.0321 -0.02011,0.06738 -0.02646,0.105128 z m -2.3749,-0.103011 c 0.232128,-0.166864 0.394405,-0.424392 0.43568,-0.721078 h 0.426156 c 0.05115,0.366536 0.287514,0.673805 0.611364,0.824089 h -0.502709 c -0.02928,-0.164042 -0.100541,-0.279753 -0.183444,-0.279753 -0.08396,0 -0.154869,0.115711 -0.184503,0.279753 H 95.80038 c -0.0063,-0.03704 -0.01482,-0.07126 -0.02575,-0.103011 m -2.333625,-0.854781 0.21343,0.133703 h 0.4318 c 0.03634,0.261408 0.167217,0.49283 0.356659,0.658636 -0.04798,-0.01764 -0.08961,-0.03457 -0.122414,-0.04904 -0.06138,-0.02752 -0.184503,-0.08008 -0.340784,-0.14852 0.06526,-0.18803 0.05644,-0.354894 -0.02893,-0.394405 -0.08608,-0.04022 -0.221192,0.06279 -0.323497,0.236361 -0.165453,-0.07585 -0.339725,-0.159456 -0.502356,-0.244122 l 0.01552,-0.04974 c 0.111831,-0.02364 0.214136,-0.07338 0.300567,-0.142875 m 7.7276,0.833614 c -0.0138,0.03669 -0.0254,0.07867 -0.0335,0.124178 h -0.17075 c 0.073,-0.03387 0.14146,-0.0755 0.20426,-0.124178 m 0.98707,-0.08396 c -0.0339,0.05009 -0.0607,0.122767 -0.0762,0.208139 h -0.57714 c -0.0268,-0.1524 -0.09,-0.263525 -0.17745,-0.279047 h 0.006 c 0.12876,-0.151695 0.21625,-0.33902 0.24482,-0.545042 h 0.26882 c 0.0335,0.239889 0.1464,0.454378 0.31115,0.61595 m 2.75061,0.208139 h -0.56974 c -0.0296,-0.164042 -0.10089,-0.279753 -0.18379,-0.279753 -0.0836,0 -0.15487,0.115711 -0.18415,0.279753 l -0.57962,-0.01517 c 0.30762,-0.155222 0.53058,-0.454025 0.57997,-0.808919 h 0.32526 c 0.0511,0.366536 0.28751,0.673805 0.61207,0.824089 m 2.02247,-0.80645 c -0.0861,0.02963 -0.11359,0.185914 -0.0737,0.37218 -0.17744,0.06244 -0.35948,0.123473 -0.5341,0.178506 -0.0226,-0.04516 -0.0473,-0.08572 -0.073,-0.12065 0.0882,-0.131586 0.14852,-0.283633 0.17145,-0.447675 z m 0.46355,0.167922 c -0.0575,0.02399 -0.11818,0.04798 -0.17991,0.07197 -0.0272,-0.05433 -0.0579,-0.101953 -0.0896,-0.140406 0.084,0.03669 0.17463,0.06032 0.26952,0.06844"
       id="S-SU122"
       style="stroke-width:0.352778" />
  </g>
</svg>
