<?xml version="1.0" encoding="UTF-8" standalone="no"?>
<!-- Created with Inkscape (http://www.inkscape.org/) -->

<svg
   width="14.950743mm"
   height="6.7220402mm"
   viewBox="0 0 14.950743 6.7220402"
   version="1.1"
   id="svg6745"
   sodipodi:docname="inkporter-svg-de2d1i4p.svg"
   xmlns:inkscape="http://www.inkscape.org/namespaces/inkscape"
   xmlns:sodipodi="http://sodipodi.sourceforge.net/DTD/sodipodi-0.dtd"
   xmlns="http://www.w3.org/2000/svg"
   xmlns:svg="http://www.w3.org/2000/svg">
  <sodipodi:namedview
     id="namedview6747"
     pagecolor="#ffffff"
     bordercolor="#666666"
     borderopacity="1.0"
     inkscape:pageshadow="2"
     inkscape:pageopacity="0.0"
     inkscape:pagecheckerboard="0"
     inkscape:document-units="mm"
     showgrid="false"
     inkscape:zoom="0.66368547"
     inkscape:cx="397.02542"
     inkscape:cy="561.25984"
     inkscape:window-width="1920"
     inkscape:window-height="1017"
     inkscape:window-x="-8"
     inkscape:window-y="-8"
     inkscape:window-maximized="1"
     inkscape:current-layer="layer1" />
  <defs
     id="defs6742" />
  <g
     inkscape:label="Layer 1"
     inkscape:groupmode="layer"
     id="layer1"
     transform="translate(-133.93754,-169.71217)">
    <path
       d="m 148.13113,174.86728 c -0.004,-0.001 -0.005,-0.002 -0.007,-0.002 l -0.0236,-0.22719 c 0.0321,-0.003 0.055,-0.0317 0.0519,-0.0635 -0.004,-0.0229 -0.018,-0.0413 -0.0388,-0.0487 l -0.0314,-0.079 c 0.2667,-0.0663 0.80045,-0.19968 0.80574,-0.19968 0.007,0 -0.10442,-0.2413 -0.22719,-0.42439 -0.12312,-0.18344 -0.42474,-0.28292 -0.42474,-0.28292 l 0.47554,-0.47555 -0.59372,-0.23671 0.0649,-0.15769 -2.06693,-0.83044 -0.0695,0.14146 -0.072,-0.0138 h -0.25047 v -0.0536 h -0.0766 v -0.0811 c 0,-0.03 -0.009,-0.0787 -0.0533,-0.0787 h -0.81879 v -0.31785 h -0.3041 v -0.079 l -0.27834,-0.52176 v -0.16934 c 0,0 0.005,-0.0466 -0.037,-0.0466 -0.0416,0 -0.0395,0.0811 -0.0395,0.0811 0,0 -0.30621,-0.58667 -0.29669,-0.58667 0.009,0 -0.14146,0.0603 -0.14146,0.0603 l -0.0258,-0.0441 h -0.64487 v -0.0628 c 0,-0.0279 -0.037,-0.0857 -0.0649,-0.0857 h -0.58914 v -0.0279 h -0.0579 v 0.0254 h -0.14393 v -0.23178 h 0.0233 v -0.0349 h -0.51258 v 0.0441 h 0.0116 v 0.16722 h -0.12559 l -0.0183,0.0162 h -0.0649 v 0.0321 c -0.004,0 -0.009,0.001 -0.0233,0.005 -0.0349,0.009 -0.0674,0.15522 -0.0674,0.15522 h -0.15311 l -0.0508,0.0512 h -0.21343 l -0.0258,0.0325 -0.34078,0.0649 -0.009,-0.0279 -0.16721,0.0279 0.005,0.0349 -0.7119,0.15063 c 0,0 -0.0208,-0.11112 -0.0279,-0.13229 -0.007,-0.0208 -0.0208,-0.0416 -0.0441,-0.0416 -0.0233,0 -0.21131,0.0766 -0.19967,0.0582 0.0116,-0.0187 0.0395,-0.0699 0.0374,-0.11148 -0.004,-0.042 -0.0395,-0.0187 -0.0628,0.0325 -0.0233,0.0512 -0.079,0.0811 -0.14605,0.12277 -0.0674,0.042 -0.1718,0.20884 -0.1718,0.20884 l 0.0466,0.042 -0.0395,0.0833 c 0,0 -0.74471,0.0279 -0.79093,0.0279 -0.0466,0 -0.0744,0.0116 -0.0744,0.0349 v 0.0512 h -1.21074 l -0.3249,0.0533 -1.73955,-0.002 -0.0466,-0.0324 h -0.0832 v 0.31785 h 0.0903 l 0.0279,-0.0395 h 1.73284 l 0.34325,0.0487 1.20862,0.005 v 0.0466 c 0,0.0187 0.0279,0.037 0.0279,0.037 l 0.40358,0.0141 c 0,0 0.0833,0.002 0.13229,0.0162 0.0487,0.0137 0.0928,0.12276 0.0928,0.12276 H 138.767 v 0.42933 c 0,0.0229 -0.0811,0 -0.0811,0 v 0.0974 h -0.0212 c 0,0 -0.0416,-0.0765 -0.0649,-0.11853 -0.0229,-0.0416 -0.11112,-0.0579 -0.16474,-0.0557 -0.0533,0.002 -0.22719,0.0815 -0.22719,0.0815 0,0 -0.0233,-0.0162 -0.0649,-0.0303 -0.0416,-0.0138 -0.13441,-0.03 -0.15769,-0.03 -0.0233,0 -0.0279,0.0441 -0.0279,0.0441 0,0 -0.0117,0.005 -0.0395,0.0533 -0.0279,0.0487 -0.0395,0.139 -0.0395,0.139 l -0.83714,0.59619 c 0,0 -0.30162,0.16475 -0.33196,0.18344 -0.03,0.0183 -0.0624,0.0649 -0.0624,0.0649 l -1.85808,-0.042 -0.85126,0.81915 0.0603,0.0603 0.0254,-0.0141 c 0,0 0.32208,0.20426 0.47836,0.30515 l -0.0215,-10e-4 -0.0508,0.0512 c 0,0 0.0346,0.0674 0.0416,0.072 0.007,0.005 -0.005,0.0512 0.004,0.0557 0.007,0.005 -0.0349,-0.005 -0.0512,-0.007 -0.0162,-0.002 -0.0349,0.009 -0.0349,0.0325 0,0.0233 0,0.0416 0.004,0.0628 0.004,0.0208 0.037,0.0325 0.0441,0.03 0.007,-0.002 0.0279,0.005 0.0349,0.002 0.007,-0.002 -0.0395,0.10654 -0.0395,0.10654 l 0.0787,0.0928 -0.0462,0.0557 c 0,0 0.0233,0.0765 0.03,0.0836 0.007,0.007 0.12065,0.007 0.12065,0.007 0,0 -0.007,0.0441 0.01,0.0744 0.0162,0.03 0.0603,0.0138 0.0603,0.0138 0,0 0.0254,0.037 0.0325,0.0395 0.007,0.002 -0.0303,0.0349 -0.0349,0.0441 -0.005,0.009 -0.0137,0.0395 -0.004,0.0533 0.0116,0.0141 0.0511,0.0512 0.072,0.0512 0.0208,0 0.0649,-0.0512 0.0649,-0.0512 0,0 0.0187,0.0208 0.0258,0.0233 0.007,0.002 -0.004,0.0395 0.0138,0.0674 0.009,0.0159 0.03,0.012 0.0473,0.006 l 0.0832,0.0522 c -0.004,0.0127 -0.009,0.0286 -0.007,0.0466 0.004,0.037 0.0254,0.03 0.0554,0.0462 0.0187,0.01 0.0392,-0.0116 0.0536,-0.0293 l 0.0123,0.008 c -0.0169,0.0272 -0.009,0.0628 0.0183,0.0797 0.0226,0.0141 0.0508,0.0109 0.0695,-0.006 l 0.19756,0.12347 c -0.0169,0.0272 -0.009,0.0628 0.0183,0.0797 0.0258,0.0162 0.0589,0.01 0.0769,-0.0141 l 0.19932,0.12453 c -0.0169,0.0272 -0.009,0.0632 0.0183,0.0801 0.0236,0.0148 0.0536,0.0102 0.0723,-0.009 l 0.20144,0.12594 c -0.0169,0.0272 -0.009,0.0628 0.0183,0.0797 0.0187,0.012 0.0416,0.0113 0.0596,0.001 l 0.20038,0.12559 c -0.0169,0.0272 -0.008,0.0632 0.0187,0.0801 0.018,0.0113 0.0402,0.0113 0.0579,0.002 l 0.18098,0.11289 c -0.0169,0.0275 -0.009,0.0632 0.0183,0.0801 0.0226,0.0141 0.0504,0.0106 0.0692,-0.006 l 0.20778,0.10089 c -0.0138,0.0286 -0.004,0.0635 0.0272,0.0773 0.0286,0.0141 0.0635,0.002 0.0772,-0.0268 0,0 0,0 0,-3.6e-4 l 0.24589,0.0459 c -0.006,0.0314 0.0148,0.0617 0.0466,0.0674 0.0314,0.006 0.0617,-0.0148 0.0674,-0.0462 3.5e-4,-0.001 3.5e-4,-0.002 3.5e-4,-0.004 h 0.23671 c 0,0.0318 0.0261,0.0579 0.0579,0.0579 0.0321,0 0.0582,-0.0261 0.0582,-0.0579 h 0.2226 c 0,0.0318 0.0261,0.0579 0.0582,0.0579 0.0318,0 0.0579,-0.0261 0.0579,-0.0579 h 0.22966 c 0,0.0318 0.0258,0.0579 0.0579,0.0579 0.0321,0 0.0582,-0.0261 0.0582,-0.0579 h 0.22719 c 0,0.0318 0.0261,0.0579 0.0579,0.0579 0.0321,0 0.0582,-0.0261 0.0582,-0.0579 h 0.2226 c 0,0.0318 0.0261,0.0579 0.0579,0.0579 0.0321,0 0.0582,-0.0261 0.0582,-0.0579 h 0.22718 c 0,0.0318 0.0261,0.0579 0.0582,0.0579 0.0318,0 0.0579,-0.0261 0.0579,-0.0579 h 0.23424 c 0,0.0318 0.0261,0.0579 0.0579,0.0579 0.0321,0 0.0582,-0.0261 0.0582,-0.0579 h 0.22719 c 0,0.0318 0.0261,0.0579 0.0582,0.0579 0.0317,0 0.0579,-0.0261 0.0579,-0.0579 h 0.2226 c 0,0.0318 0.0261,0.0579 0.0582,0.0579 0.0318,0 0.0579,-0.0261 0.0579,-0.0579 h 0.22719 c 0,0.0318 0.0261,0.0579 0.0582,0.0579 0.0317,0 0.0579,-0.0261 0.0579,-0.0579 h 0.23424 c 0,0.0318 0.0261,0.0579 0.0582,0.0579 0.0317,0 0.0579,-0.0261 0.0579,-0.0579 h 0.22719 c 0,0.0318 0.0261,0.0579 0.0582,0.0579 0.0321,0 0.0579,-0.0261 0.0579,-0.0579 h 0.2226 c 0,0.0318 0.0261,0.0579 0.0582,0.0579 0.0321,0 0.0579,-0.0261 0.0579,-0.0579 h 0.22719 c 0,0.0318 0.0261,0.0579 0.0582,0.0579 0.0321,0 0.0579,-0.0261 0.0579,-0.0579 h 0.22507 c 0,0.0318 0.0261,0.0579 0.0579,0.0579 0.0321,0 0.0582,-0.0261 0.0582,-0.0579 h 0.22718 c 0,0.0318 0.0261,0.0579 0.0582,0.0579 0.0318,0 0.0579,-0.0261 0.0579,-0.0579 h 0.2226 c 0,0.0318 0.0261,0.0579 0.0582,0.0579 0.0317,0 0.0579,-0.0261 0.0579,-0.0579 h 0.22718 c 0,0.0318 0.0261,0.0579 0.0582,0.0579 0.0321,0 0.0579,-0.0261 0.0579,-0.0579 h 0.24377 c 0,0.0318 0.0257,0.0579 0.0579,0.0579 0.0321,0 0.0579,-0.0261 0.0579,-0.0579 h 0.22754 c 0,0.0318 0.0257,0.0579 0.0579,0.0579 0.0321,0 0.0579,-0.0261 0.0579,-0.0579 h 0.22296 c 0,0.0318 0.0258,0.0579 0.0579,0.0579 0.0321,0 0.0579,-0.0261 0.0579,-0.0579 h 0.22754 c 0,0.0318 0.0257,0.0579 0.0579,0.0579 0.0321,0 0.0582,-0.0261 0.0582,-0.0579 h 0.23178 c 0,0.0318 0.0261,0.0579 0.0582,0.0579 0.0247,0 0.0455,-0.0155 0.054,-0.0374 l 0.24977,-0.0459 c 0.006,0.0314 0.036,0.0526 0.0677,0.0466 0.0314,-0.006 0.0522,-0.036 0.0466,-0.0674 0,-0.005 -0.004,-0.0102 -0.005,-0.0148 l 0.19297,-0.0748 c 0.0113,0.03 0.0452,0.0448 0.0748,0.0332 0.03,-0.0117 0.0448,-0.0452 0.0332,-0.0752 l 0.22719,-0.0878 c 0.0116,0.03 0.0451,0.0448 0.0751,0.0332 0.0296,-0.0116 0.0448,-0.0452 0.0332,-0.0748 l 0.21202,-0.0822 c 0.0116,0.03 0.0452,0.0448 0.0748,0.0332 0.03,-0.0116 0.0448,-0.0452 0.0332,-0.0748 l 0.20778,-0.0804 c 0.0117,0.0296 0.0452,0.0448 0.0752,0.0332 0.0296,-0.0116 0.0448,-0.0452 0.0332,-0.0751 0,-0.001 0,-0.002 0,-0.004 l 0.20037,-0.0776 c 0.0113,0.03 0.0452,0.0448 0.0748,0.0332 0.03,-0.0113 0.0448,-0.0452 0.0332,-0.0748 l 0.22719,-0.0878 c 0.0116,0.0296 0.0452,0.0444 0.0751,0.0332 0.0265,-0.0106 0.0413,-0.0385 0.0356,-0.0656 l 0.18838,-0.0991 c 0.0148,0.0286 0.0501,0.0395 0.0783,0.0243 0.0265,-0.0138 0.0374,-0.0455 0.0265,-0.073 l 0.17851,-0.1584 c 0.0212,0.024 0.0579,0.0261 0.0818,0.005 0.0236,-0.0212 0.0261,-0.0579 0.005,-0.0819 -0.004,-0.005 -0.009,-0.008 -0.0145,-0.0116 l 0.091,-0.20884 c 0.0293,0.0131 0.0635,-3.6e-4 0.0762,-0.03 0.0127,-0.0293 0,-0.0635 -0.03,-0.0762 m -0.084,-0.24447 c 0,-0.004 0,-0.007 -3.6e-4,-0.0102 0,0.001 0,0.002 0.004,0.004 v 0.006 c 0,3.5e-4 -0.004,7e-4 -0.004,0.001 m -0.005,-0.067 c 0,-0.005 0,-0.01 -0.004,-0.0145 0.005,-3.5e-4 0.009,-7e-4 0.0127,-0.001 -0.004,0.005 -0.008,0.01 -0.0106,0.0155 m -4.98193,1.76248 c 0.013,0 0.0265,-7.1e-4 0.0395,-10e-4 0,0.003 -0.004,0.006 -0.004,0.008 h -0.0212 c -0.005,-0.003 -0.01,-0.005 -0.0155,-0.007 m -6.82202,-0.72955 c -0.0198,0.0152 -0.13829,0.11818 -0.16087,0.13723 v -3.5e-4 c 0.004,-0.0226 -0.005,-0.0466 -0.0261,-0.0596 -0.01,-0.006 -0.0208,-0.009 -0.0314,-0.009 l -0.005,-0.003 c 0.009,-0.043 0.0406,-0.1898 0.0487,-0.21026 0.01,-0.024 0.004,-0.031 -0.007,-0.037 -0.01,-0.006 -0.0473,-0.0296 -0.055,-0.0346 -0.008,-0.005 -0.0201,-0.007 -0.0416,0.01 -0.0197,0.0155 -0.13829,0.11818 -0.16086,0.13759 l -0.0145,-0.009 c -0.004,-0.0169 -0.0109,-0.0325 -0.0265,-0.042 -0.01,-0.006 -0.0205,-0.009 -0.0314,-0.009 l -0.005,-0.003 c 0.009,-0.0427 0.0409,-0.18945 0.049,-0.21026 0.01,-0.024 0.004,-0.031 -0.007,-0.037 -0.01,-0.006 -0.0469,-0.0296 -0.055,-0.0346 -0.008,-0.005 -0.0201,-0.007 -0.0416,0.01 -0.0198,0.0152 -0.13829,0.11783 -0.16051,0.13723 l -0.019,-0.0116 c -0.004,-0.013 -0.012,-0.0247 -0.0243,-0.0321 -0.01,-0.006 -0.0205,-0.009 -0.0314,-0.009 l -0.005,-0.003 c 0.008,-0.036 0.031,-0.14394 0.043,-0.1905 0.006,-3.5e-4 0.013,-0.001 0.0194,-0.001 l 0.0529,0.0487 c 0,0 0.12065,-0.0557 0.12771,-0.0582 0.007,-0.002 0.0441,0.0325 0.0508,0.042 0.007,0.009 0.0511,-0.0441 0.0582,-0.0466 0.007,-0.002 0.46849,0.0765 0.46849,0.0765 l 0.14711,0.0815 c -0.0201,0.0727 -0.0307,0.14887 -0.0307,0.22789 0,0.13441 0.0307,0.26141 0.0857,0.37465 -0.0321,0.0275 -0.0723,0.0621 -0.097,0.0833 -0.004,-0.013 -0.012,-0.0247 -0.0243,-0.0325 -0.01,-0.006 -0.0208,-0.009 -0.0314,-0.009 l -0.005,-0.003 c 0.009,-0.0427 0.0406,-0.18944 0.0487,-0.21025 0.01,-0.024 0.004,-0.0307 -0.007,-0.037 -0.01,-0.006 -0.0473,-0.0296 -0.055,-0.0346 -0.008,-0.005 -0.0201,-0.007 -0.0416,0.01 m 0.3122,0.46673 c 0.004,-0.0123 0.007,-0.0339 0.0123,-0.0586 0.0254,0.0303 0.0522,0.0586 0.0811,0.085 -0.0138,0.0152 -0.025,0.0272 -0.0303,0.0328 0,-0.0187 -0.0102,-0.0367 -0.0272,-0.0476 -0.01,-0.006 -0.0208,-0.009 -0.0314,-0.008 z m 0.29669,0.1725 -0.005,-0.002 c 0,-0.002 3.5e-4,-0.005 0,-0.007 0.007,0.004 0.0141,0.007 0.0215,0.0102 -0.006,-0.001 -0.0116,-0.001 -0.0173,-7.1e-4 m 0.0589,0.0332 c -0.004,-0.008 -0.009,-0.0152 -0.0159,-0.0208 0.0148,0.006 0.0303,0.0124 0.0459,0.018 0,0.003 -0.004,0.006 -0.004,0.008 z m 0.34325,0.0642 c -0.008,-0.008 -0.018,-0.0134 -0.0296,-0.0155 -0.0113,-0.002 -0.0226,-7.1e-4 -0.0325,0.004 l -0.005,-0.001 c -3.5e-4,-10e-4 0,-0.004 0,-0.005 0.0148,7e-4 0.03,0.001 0.0448,0.001 0.0169,0 0.0335,-7.1e-4 0.0501,-0.002 -0.004,0.008 -0.004,0.0145 -0.006,0.0187 z m 0.35948,0 h -0.0166 c -0.009,-0.006 -0.0198,-0.01 -0.0314,-0.01 -0.0113,0 -0.0222,0.004 -0.031,0.01 h -0.006 c -0.004,-0.006 -0.005,-0.0138 -0.008,-0.0229 0.036,-0.004 0.0713,-0.0102 0.10583,-0.0187 -0.006,0.019 -0.0106,0.0342 -0.013,0.0416 m 1.02764,0 h -0.0166 c -0.009,-0.006 -0.0197,-0.01 -0.0314,-0.01 -0.0113,0 -0.0222,0.004 -0.0311,0.01 h -0.006 c -0.0148,-0.0413 -0.066,-0.18238 -0.0699,-0.20426 -0.005,-0.0254 -0.0141,-0.0279 -0.0254,-0.0279 h -0.0653 c -0.009,0 -0.0208,0.005 -0.03,0.0303 -0.008,0.0233 -0.0547,0.17322 -0.0635,0.20179 h -0.0212 c -0.009,-0.006 -0.0198,-0.01 -0.0314,-0.01 -0.0116,0 -0.0222,0.004 -0.031,0.01 h -0.006 c -0.0148,-0.0413 -0.066,-0.18238 -0.0699,-0.20426 -0.005,-0.0254 -0.0141,-0.0279 -0.0257,-0.0279 h -0.0649 c -0.009,0 -0.0208,0.005 -0.03,0.0303 -0.008,0.0233 -0.0547,0.17322 -0.0635,0.20179 h -0.0236 c -0.009,-0.006 -0.0198,-0.01 -0.031,-0.01 -0.0116,0 -0.0226,0.004 -0.0314,0.01 h -0.006 c -0.008,-0.0219 -0.0258,-0.072 -0.0416,-0.11712 0.27235,-0.14464 0.45791,-0.43145 0.45791,-0.7613 0,-0.0247 0,-0.0487 -0.004,-0.0727 h 0.0282 c -0.004,0.024 -0.004,0.048 -0.004,0.0727 0,0.29987 0.1531,0.56374 0.38558,0.71791 -0.0173,0.054 -0.0437,0.1397 -0.0501,0.16051 m 0.34325,0 h -0.0212 c -0.009,-0.006 -0.0198,-0.01 -0.0314,-0.01 -0.0113,0 -0.0222,0.004 -0.031,0.01 h -0.006 c -0.005,-0.0145 -0.0145,-0.0406 -0.025,-0.0695 0.0406,0.0148 0.0822,0.0265 0.12488,0.0353 -0.005,0.0155 -0.008,0.0279 -0.0106,0.0342 m 0.32209,0 c -0.009,-0.006 -0.0198,-0.01 -0.031,-0.01 -0.0116,0 -0.0222,0.004 -0.0314,0.01 h -0.005 c -0.004,-0.005 -0.005,-0.012 -0.007,-0.0197 0.0134,-0.001 0.0265,-0.002 0.0395,-0.004 0.0229,0.003 0.0459,0.005 0.0695,0.006 -0.004,0.008 -0.005,0.0141 -0.006,0.018 z m 0.37147,0 h -0.0212 c -0.009,-0.006 -0.0197,-0.01 -0.0314,-0.01 -0.0113,0 -0.0222,0.004 -0.0311,0.01 h -0.006 c -0.004,-0.01 -0.008,-0.0236 -0.0145,-0.0406 0.0445,-0.0106 0.0879,-0.0247 0.12912,-0.0416 -0.0113,0.0367 -0.0215,0.0702 -0.0254,0.0822 m 1.00401,0 c -0.009,-0.006 -0.0198,-0.01 -0.031,-0.01 -0.0116,0 -0.0222,0.004 -0.0314,0.01 h -0.005 c -0.0152,-0.0413 -0.0663,-0.18238 -0.0702,-0.20426 -0.005,-0.0254 -0.0138,-0.0279 -0.0254,-0.0279 h -0.0649 c -0.01,0 -0.0208,0.005 -0.0303,0.0303 -0.008,0.0233 -0.0547,0.17322 -0.0635,0.20179 h -0.0212 c -0.009,-0.006 -0.0197,-0.01 -0.031,-0.01 -0.0116,0 -0.0226,0.004 -0.0314,0.01 h -0.005 c -0.0152,-0.0413 -0.0663,-0.18238 -0.0702,-0.20426 -0.005,-0.0254 -0.0138,-0.0279 -0.0254,-0.0279 h -0.0649 c -0.01,0 -0.0212,0.005 -0.0303,0.0303 -0.008,0.0233 -0.0547,0.17322 -0.0635,0.20179 h -0.0166 c -0.009,-0.006 -0.0198,-0.01 -0.0311,-0.01 -0.0116,0 -0.0222,0.004 -0.0314,0.01 h -0.005 c -0.012,-0.0321 -0.0455,-0.12488 -0.0614,-0.17462 0.22049,-0.15593 0.36477,-0.41311 0.36477,-0.7038 0,-0.0247 0,-0.0487 -0.004,-0.0727 h 0.0222 c -0.004,0.024 -0.004,0.048 -0.004,0.0727 0,0.3429 0.20038,0.63889 0.49036,0.77753 -0.0134,0.0434 -0.0268,0.0868 -0.0314,0.10089 z m 0.37147,0 h -0.0212 c -0.009,-0.006 -0.0198,-0.01 -0.0311,-0.01 -0.0116,0 -0.0222,0.004 -0.0314,0.01 h -0.005 c -0.004,-0.008 -0.007,-0.019 -0.0116,-0.0321 0.0346,0.006 0.0702,0.0109 0.10654,0.0131 -0.004,0.008 -0.005,0.0148 -0.006,0.019 m 0.25965,0 h -0.005 c -0.004,-0.005 -0.004,-0.0106 -0.006,-0.0176 0.006,3.6e-4 0.0123,7.1e-4 0.0187,7.1e-4 0.0265,0 0.0526,-0.001 0.0787,-0.004 -0.004,0.009 -0.005,0.0162 -0.007,0.0208 h -0.0166 c -0.009,-0.006 -0.0198,-0.01 -0.031,-0.01 -0.0116,0 -0.0222,0.004 -0.0314,0.01 m 0.42262,0 h -0.0215 c -0.009,-0.006 -0.0197,-0.01 -0.031,-0.01 -0.0116,0 -0.0222,0.004 -0.0314,0.01 h -0.005 c -0.005,-0.0145 -0.0152,-0.0413 -0.0257,-0.0709 0.0572,-0.0215 0.11148,-0.0487 0.16192,-0.0811 -0.0169,0.054 -0.0409,0.1323 -0.0469,0.15205 m 0.68404,0 h -0.0212 c -0.009,-0.006 -0.0198,-0.01 -0.0314,-0.01 -0.0113,0 -0.0222,0.004 -0.031,0.01 h -0.006 c -0.0148,-0.0413 -0.066,-0.18238 -0.0699,-0.20426 -0.005,-0.0254 -0.0138,-0.0279 -0.0254,-0.0279 h -0.0649 c -0.01,0 -0.0212,0.005 -0.0303,0.0303 -0.008,0.0233 -0.0547,0.17322 -0.0635,0.20179 h -0.0187 c -0.009,-0.006 -0.0198,-0.01 -0.0314,-0.01 -0.0116,0 -0.0222,0.004 -0.0314,0.01 h -0.005 c -0.0152,-0.0413 -0.066,-0.18238 -0.0702,-0.20426 -0.005,-0.0254 -0.0138,-0.0279 -0.0254,-0.0279 h -0.005 c 0.17921,-0.15769 0.29246,-0.38876 0.29246,-0.64629 0,-0.0247 0,-0.0487 -0.004,-0.0727 h 0.0155 c -0.004,0.0272 -0.004,0.055 -0.004,0.0833 0,0.26105 0.11641,0.49459 0.29986,0.65264 -0.004,0.004 -0.004,0.008 -0.006,0.0134 -0.008,0.0233 -0.0547,0.17322 -0.0635,0.20179 m 0.33866,0 h -0.0166 c -0.009,-0.006 -0.0197,-0.01 -0.031,-0.01 -0.0116,0 -0.0222,0.004 -0.0314,0.01 h -0.005 c -0.008,-0.0215 -0.0254,-0.0702 -0.0413,-0.115 0.0451,0.025 0.0924,0.0462 0.14181,0.0628 -0.007,0.024 -0.0134,0.0434 -0.0162,0.0522 m 0.25436,0 c 0,-0.002 0,-0.005 -0.004,-0.008 0.008,3.5e-4 0.0159,3.5e-4 0.0236,7.1e-4 -0.006,0.001 -0.0109,0.004 -0.0155,0.007 z m 0.41098,0 c -0.009,-0.006 -0.0198,-0.01 -0.031,-0.01 -0.0116,0 -0.0222,0.004 -0.0314,0.01 h -0.005 c 0,-0.004 -0.004,-0.007 -0.004,-0.0116 0.0409,-0.005 0.0808,-0.0116 0.11994,-0.0215 -0.005,0.0148 -0.008,0.0268 -0.0102,0.0332 z m 1.06292,0 h -0.0212 c -0.009,-0.006 -0.0198,-0.01 -0.0314,-0.01 -0.0116,0 -0.0222,0.004 -0.0314,0.01 h -0.005 c -0.0148,-0.0413 -0.066,-0.18238 -0.0699,-0.20426 -0.005,-0.0254 -0.0141,-0.0279 -0.0258,-0.0279 h -0.0649 c -0.009,0 -0.0208,0.005 -0.03,0.0303 -0.009,0.0233 -0.0547,0.17322 -0.0635,0.20179 h -0.0166 c -0.009,-0.006 -0.0198,-0.01 -0.0314,-0.01 -0.0116,0 -0.0222,0.004 -0.0314,0.01 h -0.005 c -0.0148,-0.0413 -0.066,-0.18238 -0.0699,-0.20426 -0.005,-0.0254 -0.0141,-0.0279 -0.0257,-0.0279 h -0.0649 c -0.009,0 -0.0208,0.005 -0.03,0.0303 -0.009,0.0233 -0.0547,0.17322 -0.0635,0.20179 h -0.0212 c -0.009,-0.006 -0.0198,-0.01 -0.0314,-0.01 -0.0116,0 -0.0222,0.004 -0.0314,0.01 h -0.005 c -0.008,-0.0215 -0.025,-0.0695 -0.0406,-0.11395 0.26529,-0.14675 0.44521,-0.42933 0.44521,-0.75388 0,-0.0282 0,-0.0561 -0.004,-0.0833 h 0.009 c -0.004,0.0261 -0.004,0.0526 -0.004,0.0797 0,0.30939 0.16334,0.58067 0.40852,0.73272 -0.0166,0.0526 -0.0374,0.1203 -0.043,0.13864 m 0.34784,0 h -0.0257 c -0.009,-0.006 -0.0198,-0.01 -0.0314,-0.01 -0.0116,0 -0.0222,0.004 -0.031,0.01 h -0.006 c -0.004,-0.0109 -0.0106,-0.0293 -0.018,-0.0501 0.0385,0.012 0.078,0.0215 0.11853,0.0282 -0.004,0.01 -0.005,0.0173 -0.007,0.0219 m 0.34114,0.0201 c -0.01,-0.0176 -0.0286,-0.0296 -0.0501,-0.0296 -0.0116,0 -0.0226,0.004 -0.0314,0.01 h -0.005 c 0,-0.005 -0.004,-0.01 -0.006,-0.0162 0.007,-7e-4 0.0138,-10e-4 0.0208,-0.002 0.03,0.004 0.0603,0.007 0.0914,0.008 0,0.0127 -0.004,0.0226 -0.004,0.0282 z m 0.26599,-0.0487 c 0,-0.002 -0.004,-0.005 -0.005,-0.008 0.0197,-0.005 0.0395,-0.0113 0.0589,-0.0176 0,0.002 0,0.004 0,0.005 l -0.009,0.004 c -0.004,0 -0.007,3.5e-4 -0.0113,0.001 -0.0116,0.002 -0.0215,0.007 -0.0293,0.0148 z m 0.32279,-0.13371 c -0.0109,0.004 -0.0198,0.0113 -0.0261,0.0201 l -0.005,0.002 c -0.005,-0.005 -0.0116,-0.0131 -0.0194,-0.0222 0.0402,-0.0275 0.0776,-0.0589 0.11253,-0.0928 0.004,0.0349 0.005,0.0656 0.005,0.0773 l -0.0349,0.0134 c -0.0106,-0.002 -0.0219,-10e-4 -0.0325,0.002 m 1.27812,-0.49847 c -0.0109,0.004 -0.0198,0.0113 -0.0258,0.0198 l -0.005,0.002 c -0.0289,-0.0332 -0.12735,-0.1464 -0.13899,-0.1651 -0.0134,-0.0222 -0.0229,-0.0212 -0.0339,-0.0169 -0.0106,0.004 -0.0519,0.0201 -0.0603,0.0236 -0.009,0.003 -0.018,0.0117 -0.0173,0.0388 3.5e-4,0.025 0.0116,0.18168 0.0134,0.21131 l -0.0145,0.006 c -0.008,-7.1e-4 -0.0162,3.5e-4 -0.0243,0.004 -0.0106,0.004 -0.0194,0.0113 -0.0257,0.0201 l -0.005,0.002 c -0.0289,-0.0328 -0.12771,-0.14605 -0.139,-0.1651 -0.0138,-0.0222 -0.0233,-0.0208 -0.0339,-0.0166 -0.0109,0.004 -0.0519,0.0201 -0.0607,0.0233 -0.008,0.004 -0.0176,0.012 -0.0173,0.0392 0,0.025 0.0117,0.18133 0.0138,0.21096 l -0.0155,0.006 c -0.0106,-0.002 -0.0219,-0.001 -0.0325,0.003 -0.0109,0.004 -0.0194,0.0109 -0.0258,0.0197 l -0.005,0.002 c -0.0286,-0.0332 -0.12735,-0.1464 -0.13899,-0.1651 -0.0134,-0.0222 -0.0229,-0.0212 -0.0339,-0.0169 -0.0106,0.004 -0.0519,0.0201 -0.0603,0.0236 -0.009,0.003 -0.018,0.0117 -0.0173,0.0388 3.5e-4,0.0251 0.0116,0.18168 0.0134,0.21096 l -0.0198,0.008 c -0.0102,-0.002 -0.0215,-10e-4 -0.0325,0.003 -0.0106,0.004 -0.0194,0.0113 -0.0257,0.0198 l -0.005,0.002 c -0.0222,-0.0254 -0.0847,-0.097 -0.11818,-0.13829 0.0857,-0.13371 0.13547,-0.29281 0.13547,-0.4632 0,-0.0272 0,-0.0536 -0.004,-0.0797 H 146.41 l 0.13158,-0.10513 c 0.14288,0.14747 0.33655,0.24448 0.5528,0.26318 0.004,0.0487 0.007,0.10019 0.008,0.11606 l -0.0349,0.0134 c -0.0106,-0.002 -0.0219,-0.001 -0.0324,0.003 m 0.30938,-0.11007 -0.005,0.002 c -0.007,-0.007 -0.0166,-0.0187 -0.0282,-0.0321 0.0303,-0.005 0.06,-0.0117 0.0889,-0.0194 0.004,0.0109 0.004,0.0201 0.005,0.0275 -0.0113,-0.003 -0.0236,-0.002 -0.0353,0.002 -0.0106,0.004 -0.0194,0.0113 -0.0258,0.0197 m 0.29281,-0.13158 -0.005,0.002 c -0.004,-0.003 -0.008,-0.008 -0.0141,-0.0127 0.0279,-0.0166 0.0547,-0.0349 0.0804,-0.0543 0.007,0.0141 0.0116,0.0254 0.0145,0.031 l -0.008,0.007 c -0.0145,-0.005 -0.0303,-0.004 -0.0448,0.004 -0.0102,0.006 -0.018,0.0134 -0.0233,0.0229 m 0.26952,-0.20603 -0.004,0.004 c -0.01,-0.005 -0.0243,-0.013 -0.042,-0.0226 0.0162,-0.0205 0.031,-0.0416 0.0452,-0.0635 0.0176,0.0152 0.0321,0.0279 0.0385,0.0332 l -0.005,0.0124 c -0.005,0.002 -0.0106,0.005 -0.0152,0.01 -0.008,0.007 -0.0141,0.0173 -0.0173,0.0275 m 0.1457,-0.31961 c -0.005,0.0106 -0.006,0.0219 -0.004,0.0325 l -0.004,0.005 c -0.01,-7e-4 -0.0254,-0.002 -0.0434,-0.003 0.007,-0.0222 0.0134,-0.0448 0.019,-0.0677 0.0219,0.004 0.0402,0.008 0.0494,0.01 -0.008,0.006 -0.0145,0.0134 -0.0187,0.0233"
       id="S-T70"
       style="stroke-width:0.352778" />
  </g>
</svg>
