<?xml version="1.0" encoding="UTF-8" standalone="no"?>
<!-- Created with Inkscape (http://www.inkscape.org/) -->

<svg
   width="27.092714mm"
   height="7.3610244mm"
   viewBox="0 0 27.092714 7.3610244"
   version="1.1"
   id="svg5"
   sodipodi:docname="inkporter-svg-nf37mc8h.svg"
   xmlns:inkscape="http://www.inkscape.org/namespaces/inkscape"
   xmlns:sodipodi="http://sodipodi.sourceforge.net/DTD/sodipodi-0.dtd"
   xmlns="http://www.w3.org/2000/svg"
   xmlns:svg="http://www.w3.org/2000/svg">
  <sodipodi:namedview
     id="namedview7"
     pagecolor="#ffffff"
     bordercolor="#666666"
     borderopacity="1.0"
     inkscape:pageshadow="2"
     inkscape:pageopacity="0.0"
     inkscape:pagecheckerboard="0"
     inkscape:document-units="mm"
     showgrid="false"
     inkscape:object-paths="true"
     inkscape:snap-smooth-nodes="true"
     inkscape:zoom="5.1241863"
     inkscape:cx="-87.818821"
     inkscape:cy="-454.02331"
     inkscape:window-width="1920"
     inkscape:window-height="1017"
     inkscape:window-x="-8"
     inkscape:window-y="-8"
     inkscape:window-maximized="1"
     inkscape:current-layer="layer1" />
  <defs
     id="defs2" />
  <g
     inkscape:label="Layer 1"
     inkscape:groupmode="layer"
     id="layer1"
     transform="translate(36.992732,125.27819)">
    <g
       id="S-Tachanka"
       transform="translate(-508.51395,-182.39724)">
      <path
         style="fill:#000000;stroke-width:0.0206093"
         d="m 497.01872,64.461051 c 0.17165,-0.02124 0.45444,-0.105375 0.59702,-0.177627 0.43466,-0.220235 0.78965,-0.642866 0.94068,-1.119905 0.0605,-0.190787 0.077,-0.651993 0.0315,-0.876465 -0.13303,-0.656542 -0.61927,-1.183168 -1.28118,-1.387612 -0.1235,-0.03814 -0.50941,-0.09199 -0.56906,-0.0794 -0.0315,0.0066 -0.0275,-0.06294 0.006,-0.0971 0.0122,-0.01256 0.20829,-0.02059 0.50318,-0.02061 l 0.48326,-1.6e-5 4e-5,-0.04674 4e-5,-0.04674 -0.47627,0.0016 c -0.26195,8.25e-4 -0.47921,-0.0014 -0.4828,-0.0049 -0.009,-0.0093 0.0353,-0.202304 0.1356,-0.586998 0.0479,-0.183452 0.0813,-0.348068 0.0747,-0.365814 -0.007,-0.01774 -0.0309,-0.03227 -0.0534,-0.03227 -0.0326,0 -0.0497,0.02801 -0.0831,0.136132 -0.0231,0.07487 -0.042,0.149065 -0.042,0.164874 0,0.02192 -0.0355,0.0288 -0.14941,0.02896 -0.0822,1.25e-4 -0.18188,0.0051 -0.22156,0.01107 -0.069,0.01038 -0.0748,0.0062 -0.13395,-0.09612 -0.11016,-0.190574 -0.35773,-0.273137 -0.556,-0.18543 -0.0541,0.02396 -0.10973,0.04354 -0.12354,0.04354 -0.0656,0 -0.11554,-0.133175 -0.0644,-0.171595 0.0161,-0.01213 0.0152,-0.02001 -0.004,-0.02739 -0.042,-0.01706 -0.11955,-0.08529 -0.10847,-0.09537 0.0109,-0.01002 1.10516,-0.07715 1.25201,-0.07681 0.0641,1.49e-4 0.0876,0.0085 0.0876,0.03111 0,0.017 0.0139,0.03091 0.0309,0.03091 0.0172,0 0.0309,-0.01832 0.0309,-0.04122 0,-0.03618 0.0137,-0.04122 0.11214,-0.04122 0.0616,0 0.11711,-0.0081 0.12319,-0.01789 0.006,-0.0098 0.0583,-0.02415 0.11591,-0.0318 0.0838,-0.01112 0.10344,-0.02094 0.0979,-0.04909 -0.005,-0.02461 -0.0285,-0.03573 -0.0786,-0.03699 -0.14702,-0.0037 -0.14377,-0.0014 -0.14377,-0.102596 0,-0.05176 -0.0105,-0.113706 -0.0233,-0.137674 -0.0203,-0.03788 -0.0264,-0.03948 -0.0464,-0.01224 -0.0285,0.03871 -0.48676,0.0704 -0.48676,0.03367 0,-0.02759 -0.26732,-0.0091 -0.28598,0.01982 -0.0118,0.01825 -0.78096,0.0785 -0.79702,0.06243 -0.004,-0.0039 -0.0136,-0.138924 -0.0215,-0.300127 -0.008,-0.161204 -0.0228,-0.293099 -0.0331,-0.293099 -0.0102,0 -0.0137,0.05333 -0.007,0.118503 0.0175,0.193199 0.0355,0.520341 0.0286,0.520955 -0.0962,0.0085 -0.95589,0.06028 -1.00887,0.06069 l -0.075,5.41e-4 -0.0147,-0.206092 c -0.008,-0.11335 -0.0238,-0.206093 -0.0349,-0.206093 -0.0126,0 -0.0146,0.05858 -0.006,0.157449 0.0108,0.115046 0.008,0.153571 -0.008,0.143049 -0.0295,-0.01825 -0.0306,0.01378 -0.002,0.04293 0.0155,0.01552 0.0121,0.03181 -0.0117,0.05565 -0.0393,0.03929 -0.0857,0.04399 -0.0971,0.0098 -0.005,-0.01511 -0.0285,-0.01871 -0.0638,-0.0098 -0.0472,0.01182 -0.0539,0.02201 -0.0431,0.06509 0.0125,0.04948 0.009,0.05106 -0.0953,0.05106 h -0.10812 l 0.0147,0.200838 c 0.008,0.11046 0.0164,0.201893 0.0182,0.203182 0.006,0.0044 0.72438,-0.02978 0.91299,-0.04347 l 0.1881,-0.01366 -0.01,0.05071 c -0.007,0.03874 -0.0383,0.06309 -0.13134,0.103198 -0.0812,0.03501 -0.12786,0.06882 -0.14029,0.10153 -0.0102,0.02697 -0.052,0.07174 -0.0927,0.09947 -0.0407,0.02774 -0.0716,0.05809 -0.0685,0.06744 0.007,0.02263 0.0272,0.01993 0.14725,-0.01993 l 0.10155,-0.03373 0.0602,0.075 c 0.0331,0.04124 0.0721,0.075 0.0869,0.075 0.0423,0 0.0557,-0.06444 0.0213,-0.102497 -0.0388,-0.04293 -0.0398,-0.07102 -0.004,-0.101323 0.0228,-0.01888 0.0306,-0.0085 0.041,0.05415 0.0198,0.11963 0.0157,0.200832 -0.0115,0.227985 -0.0139,0.01395 -0.0807,0.02473 -0.15322,0.02473 -0.0707,0 -0.15461,0.01021 -0.18651,0.02267 -0.0319,0.01246 -0.32379,0.03921 -0.64862,0.05944 -0.54516,0.03394 -0.59906,0.04073 -0.70071,0.08837 -0.15573,0.07297 -0.2378,0.153323 -0.25091,0.24564 -0.008,0.05968 -0.004,0.07803 0.0238,0.0852 0.0189,0.005 -0.0454,0.01021 -0.14321,0.01152 l -0.17777,0.0024 -0.009,-0.113703 c -0.006,-0.08407 -0.0256,-0.136167 -0.0719,-0.199886 -0.0719,-0.0992 -0.15442,-0.135989 -0.31023,-0.138248 -0.0939,-0.0013 -0.1082,-0.0071 -0.1082,-0.04279 0,-0.03573 0.0137,-0.04122 0.10304,-0.04122 h 0.10305 v -0.133961 c 0,-0.12854 -0.003,-0.13396 -0.0507,-0.13396 -0.0489,0 -0.0509,-0.0055 -0.0567,-0.159722 l -0.006,-0.159722 -0.73506,-0.0055 c -0.84776,-0.0063 -0.80034,-0.01696 -0.80034,0.180846 0,0.06653 -0.009,0.126699 -0.0206,0.133705 -0.0113,0.0071 -0.0206,0.07247 -0.0206,0.145481 v 0.132744 h 0.0928 c 0.0823,0 0.0927,0.0052 0.0932,0.04637 2.3e-4,0.02551 -0.0387,0.225821 -0.0864,0.445151 -0.10164,0.466224 -0.0562,0.419003 -0.4601,0.478604 -0.40761,0.06015 -0.37924,0.06551 -0.79141,-0.149255 -0.1995,-0.103941 -0.4017,-0.208276 -0.44936,-0.231855 l -0.0866,-0.04287 -0.002,-0.540994 -0.002,-0.540995 h -0.0515 -0.0515 v 0.330396 c 0,0.274673 0.005,0.332396 0.0309,0.342259 0.017,0.0065 0.0308,0.02014 0.0308,0.03027 0,0.01012 -0.0139,0.0184 -0.0308,0.0184 -0.0257,0 -0.0309,0.04057 -0.0309,0.241443 v 0.241443 l 0.12881,0.121432 c 0.12816,0.120826 0.24431,0.186215 0.45063,0.253698 0.068,0.02222 0.14904,0.07239 0.218,0.134831 0.0927,0.08388 0.12267,0.09944 0.19202,0.09944 0.0452,0 0.0822,0.0093 0.0822,0.02061 0,0.01134 -0.0371,0.02061 -0.0824,0.02061 -0.0778,0 -0.0825,0.0033 -0.0825,0.06183 v 0.06183 h 0.22671 0.2267 v 0.05152 0.05152 h -0.2061 -0.20609 v 0.102857 c 0,0.09316 -0.007,0.10706 -0.067,0.147436 -0.10446,0.06953 -0.30744,0.31469 -0.38075,0.459898 -0.14475,0.286654 -0.19182,0.665207 -0.1181,0.949679 0.056,0.216012 0.18414,0.450745 0.33128,0.606713 0.17806,0.188751 0.32508,0.283146 0.57352,0.368212 0.17866,0.06116 0.23167,0.07031 0.4122,0.07102 0.25149,0.001 0.41146,-0.03685 0.65001,-0.153796 0.24518,-0.1202 0.47087,-0.347491 0.58993,-0.594139 0.12076,-0.250144 0.14199,-0.344254 0.14176,-0.628583 -1.6e-4,-0.199902 -0.009,-0.272993 -0.0455,-0.381273 -0.1061,-0.314029 -0.30574,-0.583126 -0.55345,-0.745986 -0.11044,-0.07261 -0.13253,-0.0967 -0.13253,-0.144584 0,-0.03734 -0.0108,-0.05746 -0.0309,-0.05746 -0.0192,0 -0.0308,-0.01946 -0.0308,-0.05152 0,-0.04351 0.01,-0.05152 0.0618,-0.05152 0.055,0 0.0618,-0.0069 0.0618,-0.06183 0,-0.05954 -0.004,-0.06183 -0.0928,-0.06183 h -0.0928 v -0.0797 c 0,-0.06951 0.01,-0.08606 0.0772,-0.129464 0.14319,-0.09221 0.18121,-0.09998 0.48927,-0.09998 0.27509,0 0.29883,0.0031 0.32609,0.04197 0.0292,0.04169 0.19316,0.426396 0.32467,0.761796 0.21272,0.542493 0.44821,0.982554 0.55089,1.029452 0.0294,0.01344 0.26498,0.02162 0.62264,0.02162 0.57004,0 0.57567,-3.97e-4 0.61852,-0.04637 0.0566,-0.06077 0.15154,-0.237183 0.21829,-0.405893 0.12766,-0.32262 0.38634,-0.877847 0.44579,-0.956837 0.0279,-0.03692 0.0354,-0.03477 0.1769,0.04961 0.0813,0.04851 0.14785,0.09022 0.14785,0.09269 0,0.0025 -0.0234,0.05753 -0.0521,0.122342 -0.10861,0.245562 -0.14179,0.412161 -0.14179,0.711661 0,0.333375 0.039,0.497988 0.19283,0.814068 0.159,0.326712 0.43998,0.618265 0.77079,0.799812 0.15006,0.08235 0.46331,0.17592 0.6671,0.199269 0.20154,0.02309 0.20519,0.02308 0.40772,-0.0019 z m -6.29615,-0.586623 c 0,-0.271634 0.007,-0.401251 0.0215,-0.396417 0.0229,0.0077 0.30821,0.663269 0.30821,0.708434 0,0.0158 -0.0444,0.03577 -0.1082,0.04868 -0.13976,0.02826 -0.18705,0.03757 -0.2061,0.04051 -0.008,0.0013 -0.0155,-0.179229 -0.0155,-0.401209 z m -0.32465,0.361489 c -0.0595,-0.01312 -0.11228,-0.03035 -0.11718,-0.03829 -0.005,-0.0079 0.041,-0.128884 0.10209,-0.26877 0.0611,-0.139885 0.1272,-0.299395 0.14701,-0.354467 0.0198,-0.05507 0.048,-0.100127 0.0629,-0.100127 0.0212,0 0.0268,0.08303 0.0268,0.388141 0,0.213478 -0.006,0.394157 -0.0134,0.401506 -0.0138,0.0138 -0.0261,0.01215 -0.20825,-0.028 z m 6.47103,-0.56931 c 0.004,-0.369038 0.0125,-0.531314 0.0287,-0.536699 0.0229,-0.0077 0.0438,0.03527 0.15235,0.313442 0.0309,0.07935 0.0983,0.241643 0.1496,0.360663 0.1397,0.323908 0.139,0.302054 0.0109,0.33805 -0.12851,0.0361 -0.18805,0.0469 -0.27967,0.05072 l -0.0673,0.0028 z m -0.48136,0.473103 -0.11588,-0.03686 0.11747,-0.278226 c 0.0646,-0.153024 0.15737,-0.373663 0.20611,-0.49031 0.0493,-0.117907 0.0989,-0.208666 0.11176,-0.204385 0.0161,0.0054 0.0248,0.169146 0.0286,0.539654 l 0.006,0.531955 -0.11885,-0.01248 c -0.0654,-0.0069 -0.17101,-0.02907 -0.23475,-0.04934 z m -5.28461,-0.124452 c -0.0314,-0.07651 -0.0987,-0.238966 -0.14967,-0.36101 -0.0509,-0.122041 -0.0863,-0.228245 -0.0785,-0.236006 0.0139,-0.01391 0.56913,0.526452 0.56913,0.553897 0,0.01508 -0.24819,0.182232 -0.27058,0.182232 -0.007,0 -0.039,-0.0626 -0.0703,-0.139113 z m -1.00486,0.105144 c -0.0871,-0.04487 -0.19991,-0.131332 -0.19991,-0.153241 0,-0.0096 0.0858,-0.102535 0.19063,-0.206539 0.28261,-0.280336 0.36541,-0.355461 0.37793,-0.342932 0.007,0.0062 -0.0404,0.132205 -0.10345,0.280001 -0.0631,0.147795 -0.11476,0.273848 -0.11476,0.28012 0,0.01698 -0.0705,0.17656 -0.078,0.17656 -0.004,0 -0.0361,-0.01528 -0.0724,-0.03396 z m 7.27929,-0.266044 c -0.0425,-0.101368 -0.13402,-0.317988 -0.20331,-0.481377 -0.0843,-0.198847 -0.1191,-0.303914 -0.10524,-0.317765 0.0138,-0.01385 0.14355,0.102179 0.3923,0.350924 0.2044,0.204389 0.37162,0.378508 0.37162,0.386931 0,0.03287 -0.32717,0.262362 -0.35905,0.251852 -0.0104,-0.0034 -0.0539,-0.08919 -0.0963,-0.190565 z m -1.35021,0.143126 c -0.0441,-0.02961 -0.12412,-0.08709 -0.17784,-0.12772 l -0.0977,-0.07388 0.37528,-0.3768 c 0.22274,-0.223646 0.38282,-0.36925 0.39384,-0.358229 0.011,0.01102 0.006,0.05484 -0.0136,0.107792 -0.0258,0.07202 -0.25922,0.639828 -0.34367,0.836306 -0.0254,0.05893 -0.0386,0.0582 -0.13645,-0.0074 z m -4.8254,-0.437552 c -0.12758,-0.128575 -0.22704,-0.241756 -0.22101,-0.25151 0.006,-0.0098 0.0872,0.01479 0.18037,0.05454 0.0932,0.03975 0.25285,0.106132 0.35487,0.147512 0.10202,0.04138 0.18932,0.07795 0.19399,0.08125 0.015,0.01063 -0.041,0.116997 -0.10814,0.205431 l -0.0652,0.08589 -0.0514,-0.04466 c -0.0283,-0.02457 -0.15582,-0.149866 -0.2834,-0.278442 z m -1.54657,0.120907 c -0.0442,-0.07824 -0.0448,-0.08442 -0.0103,-0.09659 0.0203,-0.0071 0.18493,-0.07588 0.36589,-0.152726 0.18095,-0.07685 0.33731,-0.13459 0.34747,-0.128312 0.0101,0.0063 -0.11007,0.140484 -0.26717,0.298239 l -0.28565,0.286827 -0.0515,-0.06192 c -0.0283,-0.03406 -0.0727,-0.09954 -0.0987,-0.145515 z m 7.90653,-0.364247 c -0.20031,-0.200071 -0.36,-0.374697 -0.35486,-0.388059 0.009,-0.02414 0.2182,0.05277 0.69425,0.255533 0.11127,0.0474 0.22555,0.09501 0.25394,0.105803 l 0.0516,0.01963 -0.067,0.11845 c -0.0769,0.136012 -0.16375,0.248757 -0.19345,0.250924 -0.0112,8.25e-4 -0.18428,-0.162208 -0.38459,-0.362278 z m -1.99962,0.265871 c -0.0407,-0.05384 -0.0937,-0.137142 -0.11781,-0.185112 l -0.0439,-0.08722 0.0672,-0.02817 c 0.0369,-0.0155 0.18313,-0.07631 0.32482,-0.135125 0.14168,-0.05882 0.32475,-0.135445 0.40682,-0.170271 0.27114,-0.115063 0.25198,-0.07315 -0.15185,0.3322 -0.20257,0.203338 -0.37802,0.370132 -0.38986,0.370651 -0.0119,5.42e-4 -0.0548,-0.04311 -0.0954,-0.09695 z m -4.00489,-0.169467 c -0.0681,-0.0306 -0.21408,-0.09033 -0.3246,-0.13274 -0.11051,-0.04241 -0.20094,-0.08566 -0.20094,-0.09612 0,-0.01097 0.17116,-0.01901 0.40422,-0.01901 h 0.40423 l -0.0138,0.09789 c -0.007,0.05384 -0.0234,0.128394 -0.0352,0.165672 -0.0243,0.07723 -0.0279,0.077 -0.23405,-0.01569 z m -2.00988,0.0291 c -0.011,-0.02904 -0.026,-0.103222 -0.0332,-0.164875 l -0.0132,-0.112093 h 0.40471 c 0.2226,0 0.40472,0.0079 0.40472,0.01769 0,0.0097 -0.1136,0.06241 -0.25246,0.117085 -0.13885,0.05467 -0.29883,0.120813 -0.3555,0.146987 -0.12864,0.0594 -0.13067,0.05934 -0.15505,-0.0048 z m 8.35639,-0.413426 c -0.18072,-0.07505 -0.39352,-0.162468 -0.47287,-0.194261 -0.0793,-0.0318 -0.14426,-0.06545 -0.14426,-0.07478 0,-0.0093 0.2401,-0.01946 0.53357,-0.02249 l 0.53357,-0.0056 -0.0136,0.118858 c -0.0149,0.130581 -0.0693,0.314645 -0.0928,0.314645 -0.008,0 -0.16281,-0.0614 -0.34355,-0.136455 z m -2.60966,-0.0079 c -0.019,-0.07362 -0.0353,-0.168641 -0.036,-0.211149 l -0.002,-0.07729 h 0.52425 c 0.28838,0 0.52913,0.0078 0.535,0.01728 0.01,0.01556 -0.46382,0.225175 -0.75018,0.332148 -0.0623,0.02329 -0.12726,0.05157 -0.14426,0.06283 -0.062,0.04112 -0.0923,0.0117 -0.12741,-0.123822 z m -4.26239,0.003 c 0,-0.0098 0.0488,-0.03722 0.1082,-0.06101 0.0595,-0.02379 0.22345,-0.08999 0.36431,-0.147124 0.14088,-0.05713 0.25839,-0.103868 0.26118,-0.103868 0.0112,0 0.0481,0.140071 0.061,0.231855 l 0.0137,0.09789 h -0.40422 c -0.22232,0 -0.40422,-0.008 -0.40422,-0.01774 z m -1.52508,-0.04526 c 0,-0.0761 0.0402,-0.243088 0.0618,-0.256399 0.0241,-0.01488 0.71302,0.268615 0.73358,0.30187 0.006,0.0096 -0.17056,0.01753 -0.39226,0.01753 h -0.4031 z m 3.46286,-0.0555 c -0.1037,-0.09976 -0.25836,-0.383727 -0.41322,-0.75869 -0.0677,-0.163956 -0.12313,-0.303473 -0.12313,-0.310033 0,-0.0065 0.0467,0.03008 0.10384,0.08142 0.15146,0.136174 0.18434,0.139951 1.15728,0.132903 l 0.83386,-0.006 -0.0966,0.237007 c -0.13936,0.341906 -0.24332,0.551313 -0.3133,0.63101 l -0.0612,0.06971 h -0.50359 -0.5036 z m -1.98823,-0.02404 c -0.01,-0.01617 0.13615,-0.169637 0.47837,-0.502248 l 0.0803,-0.07804 0.086,0.122531 c 0.0473,0.06739 0.086,0.132765 0.086,0.145276 0,0.02392 -0.13335,0.08851 -0.39159,0.189688 -0.085,0.03331 -0.19166,0.07824 -0.237,0.09984 -0.0453,0.0216 -0.0842,0.03985 -0.0864,0.04056 -0.003,7.1e-4 -0.009,-0.0071 -0.0156,-0.0176 z m -1.31369,-0.271268 -0.0554,-0.02929 0.0679,-0.107582 c 0.1244,-0.197189 0.0886,-0.206885 0.40617,0.110059 0.15611,0.155805 0.27981,0.289764 0.27492,0.297689 -0.008,0.01349 -0.57183,-0.206607 -0.69351,-0.270879 z m 1.19926,0.148398 c 0,-0.01 0.0406,-0.114291 0.0901,-0.231855 0.0495,-0.117563 0.11581,-0.276351 0.14735,-0.352864 0.0316,-0.07651 0.0634,-0.139111 0.0708,-0.139111 0.0149,0 0.17375,0.102951 0.23728,0.153808 0.0391,0.03124 0.0301,0.0429 -0.23673,0.310291 -0.2629,0.263445 -0.30875,0.302013 -0.30875,0.259731 z m -0.7046,-0.25065 c -0.14522,-0.147815 -0.26402,-0.27591 -0.26402,-0.284655 0,-0.02678 0.22789,-0.188525 0.26561,-0.188525 0.009,0 0.0337,0.04405 0.0538,0.09789 0.0201,0.05385 0.0862,0.214775 0.14707,0.357631 0.0608,0.142854 0.11065,0.265737 0.11065,0.273073 0,0.04698 -0.0805,-0.01865 -0.31304,-0.255417 z m 0.56034,-0.177889 v -0.382384 l 0.14389,0.0081 c 0.0792,0.0045 0.15351,0.01775 0.16528,0.02952 0.0227,0.02273 -2.7e-4,0.105011 -0.0777,0.27741 -0.0821,0.182764 -0.1653,0.381058 -0.17906,0.426674 -0.0348,0.115434 -0.0524,-0.0047 -0.0524,-0.359351 z m -0.23363,0.189025 c -0.0398,-0.102014 -0.10539,-0.262294 -0.14569,-0.356175 l -0.0733,-0.170692 0.0524,-0.01994 c 0.0289,-0.01097 0.10751,-0.01994 0.17477,-0.01994 h 0.12231 v 0.377838 c 0,0.485438 -0.009,0.499134 -0.13059,0.188918 z m 6.7999,0.01388 c -0.0105,-0.01704 0.11791,-0.07611 0.52333,-0.240723 0.11902,-0.04832 0.26121,-0.107476 0.316,-0.131452 0.0548,-0.02398 0.10737,-0.04359 0.11685,-0.04359 0.0255,0 0.0796,0.178581 0.0951,0.314293 l 0.0136,0.118502 h -0.52716 c -0.28993,0 -0.53188,-0.0077 -0.53767,-0.01702 z m -2.03082,-0.06026 c 8.3e-4,-0.04251 0.017,-0.137566 0.036,-0.211245 0.0288,-0.11129 0.0416,-0.133373 0.0759,-0.130491 0.0845,0.0071 0.93772,0.371647 0.93772,0.400656 0,0.01027 -0.23172,0.01837 -0.52553,0.01837 h -0.52554 l 0.002,-0.07729 z m 2.311,-0.508468 0.37164,-0.37256 0.0748,0.08721 c 0.0412,0.04796 0.10102,0.133945 0.13299,0.191076 l 0.0581,0.103874 -0.0787,0.03228 c -0.21574,0.08845 -0.6895,0.285581 -0.78923,0.328373 -0.0785,0.03373 -0.11714,0.04142 -0.12706,0.02537 -0.008,-0.01355 0.13903,-0.176703 0.35739,-0.395608 z m -1.49482,0.17033 c -0.0888,-0.05489 -0.16616,-0.09981 -0.17204,-0.09981 -0.009,0 -0.37543,-0.221018 -0.39593,-0.239093 -0.0111,-0.0097 0.12799,-0.192275 0.14706,-0.193064 0.0153,-6.25e-4 0.53666,0.514019 0.63379,0.625778 l 0.0515,0.05929 -0.0515,-0.02665 c -0.0283,-0.01465 -0.12413,-0.07156 -0.21288,-0.126453 z m 0.98699,0.08772 c -0.006,-0.01021 0.0402,-0.137728 0.10335,-0.283376 0.0631,-0.145648 0.13634,-0.320459 0.16265,-0.388469 0.0264,-0.06801 0.0673,-0.168288 0.0911,-0.222839 l 0.0433,-0.09918 0.10361,0.05796 c 0.0569,0.03188 0.14284,0.09212 0.19082,0.133861 l 0.0872,0.0759 -0.37074,0.372354 c -0.20392,0.204796 -0.37727,0.372357 -0.38522,0.372357 -0.008,0 -0.0196,-0.0084 -0.0259,-0.01856 z m -0.93445,-0.358162 -0.37631,-0.376727 0.0983,-0.07437 c 0.13424,-0.101557 0.23614,-0.161256 0.27537,-0.161349 0.0217,-4e-5 0.0522,0.05031 0.0902,0.149341 0.0316,0.08218 0.11213,0.277364 0.17913,0.433742 0.12387,0.289115 0.16071,0.406086 0.12793,0.406086 -0.01,0 -0.18759,-0.169528 -0.39457,-0.376728 z m 0.74221,-0.248411 -0.006,-0.528981 0.057,4.59e-4 c 0.10605,9.08e-4 0.39708,0.0755 0.39708,0.101739 0,0.01002 -0.0656,0.174279 -0.14557,0.365021 -0.08,0.190741 -0.16968,0.405037 -0.19915,0.476211 -0.0294,0.07118 -0.0636,0.126053 -0.076,0.121949 -0.0152,-0.005 -0.0241,-0.178278 -0.0279,-0.536443 z m -1.3444,0.414477 c -0.13288,-0.04951 -0.13722,-0.05244 -0.11199,-0.07561 0.0111,-0.01015 0.0807,0.01711 0.1635,0.06404 0.1478,0.08371 0.14423,0.0845 -0.0515,0.01156 z m 0.98326,-0.283961 c -0.0516,-0.130352 -0.11765,-0.290597 -0.14692,-0.356097 -0.0293,-0.0655 -0.0532,-0.123464 -0.0532,-0.128808 0,-0.0054 0.0449,-0.0097 0.0998,-0.0097 h 0.0998 l 0.0457,0.293682 c 0.0662,0.425765 0.0707,0.459642 0.0591,0.448252 -0.006,-0.0057 -0.0526,-0.116957 -0.10423,-0.24731 z m 0.15993,-0.231496 c -0.0306,-0.201002 -0.0502,-0.379529 -0.0435,-0.396729 0.007,-0.01721 0.0355,-0.03127 0.0642,-0.03127 h 0.0522 v 0.405317 c 0,0.222923 -0.004,0.401451 -0.008,0.396728 -0.005,-0.0047 -0.0336,-0.173042 -0.0642,-0.374044 z m -1.5706,0.04601 c -0.0708,-0.03967 -0.12867,-0.08017 -0.1288,-0.08998 -1.5e-4,-0.0098 0.0331,-0.06314 0.0736,-0.118504 l 0.0739,-0.100658 h 0.2368 0.2368 l -0.15611,0.178092 c -0.0859,0.09795 -0.15613,0.186734 -0.15613,0.197298 0,0.02788 -0.0358,0.01472 -0.18008,-0.06625 z m -2.39815,-0.06504 c -0.0934,-0.03177 -0.20526,-0.121179 -0.27175,-0.217253 -0.0523,-0.07551 -0.0802,-0.175021 -0.10736,-0.381905 l -0.0128,-0.09745 0.39522,-0.0056 0.39522,-0.0056 0.005,-0.07775 c 0.006,-0.09497 0.0666,-0.165034 0.20412,-0.235034 0.0909,-0.04625 0.14363,-0.05382 0.55645,-0.07983 0.25083,-0.01579 0.50242,-0.02901 0.5591,-0.02934 l 0.10305,-6.26e-4 -0.007,0.149463 c -0.004,0.08221 0.004,0.276766 0.0174,0.432358 0.0242,0.275417 0.0236,0.285375 -0.0205,0.376681 -0.0461,0.0952 -0.11546,0.146859 -0.23695,0.17644 -0.10751,0.02616 -1.50017,0.02215 -1.57871,-0.0046 z m -0.42729,-0.91905 c -0.0366,-0.240289 -0.0393,-0.231859 0.0739,-0.231823 0.19086,6.1e-5 0.31429,0.119308 0.31429,0.303633 v 0.08791 h -0.18191 -0.18193 z m 3.07652,-0.338483 c -0.01,-0.0313 -0.004,-0.05304 0.0232,-0.07214 0.0469,-0.03424 0.0707,-0.03477 0.071,-0.0016 1.5e-4,0.01417 0.006,0.04663 0.0127,0.07214 0.0105,0.03921 0.004,0.04637 -0.0401,0.04637 -0.0358,0 -0.057,-0.01424 -0.0668,-0.0448 z m 0.18834,-0.03029 c -0.0175,-0.04526 -0.0167,-0.04555 0.1101,-0.05268 0.13289,-0.0074 0.16353,0.03111 0.0488,0.06152 -0.11491,0.03047 -0.14449,0.02883 -0.15896,-0.0088 z m -0.65091,-0.152837 c 0,-0.01067 0.0139,-0.01939 0.0309,-0.01939 0.0319,0 0.041,0.02432 0.0177,0.04753 -0.0165,0.01647 -0.0487,-0.0021 -0.0487,-0.02813 z m 1.14995,-0.02162 c -0.004,-0.01255 0.0279,-0.06124 0.0713,-0.108198 0.076,-0.08218 0.08,-0.08387 0.10894,-0.04536 0.048,0.06411 0.0352,0.101898 -0.0473,0.138346 -0.0942,0.04162 -0.12298,0.04491 -0.13288,0.01521 z m -0.10902,-0.198718 c -0.0135,-0.101333 -0.0115,-0.108199 0.0298,-0.108199 0.0242,0 0.0722,0.01448 0.10644,0.03219 0.0538,0.02778 0.0587,0.03697 0.036,0.06697 -0.0658,0.08749 -0.13022,0.147052 -0.14348,0.132814 -0.008,-0.0085 -0.021,-0.06428 -0.0289,-0.123791 z m -0.15755,0.06105 c 0.0309,-0.01031 0.0302,-0.101711 -8.2e-4,-0.11207 -0.0363,-0.01209 5e-5,-0.05718 0.046,-0.05718 0.0352,0 0.04,0.01499 0.04,0.12413 v 0.124131 l -0.0543,-0.0356 c -0.0299,-0.01958 -0.0438,-0.03912 -0.0309,-0.04341 z m -4.93517,-0.07215 c -0.007,-0.172987 -0.0719,-0.158932 0.72478,-0.158932 h 0.70963 l -0.004,0.128808 c -0.004,0.102244 -0.005,0.11068 -0.0115,0.04091 -0.0128,-0.142213 -0.0562,-0.158541 -0.35071,-0.132136 -0.13319,0.01194 -0.27462,0.03514 -0.3143,0.05158 -0.0396,0.01643 -0.11386,0.0366 -0.16487,0.04481 -0.13457,0.02167 -0.1677,0.04376 -0.10304,0.06872 0.0386,0.0149 0.0437,0.02291 0.0206,0.03196 -0.0317,0.01239 -0.47681,0.02773 -0.4937,0.01702 -0.005,-0.0033 -0.0111,-0.04501 -0.0133,-0.09274 z m 0.12604,0.02604 c 0.008,-0.01358 0.003,-0.03265 -0.0131,-0.04235 -0.0343,-0.02129 -0.0527,0.01645 -0.0228,0.04646 0.0137,0.01372 0.0256,0.01236 0.0359,-0.0041 z m 3.76088,0.01082 c 0,-0.017 0.008,-0.03091 0.0194,-0.03091 0.026,0 0.0446,0.03218 0.0281,0.04865 -0.0232,0.02321 -0.0475,0.01413 -0.0475,-0.01773 z m -0.77887,-0.407257 c -0.004,-0.09238 0.003,-0.159499 0.0137,-0.159499 0.0109,0 0.0335,-0.0053 0.0502,-0.01171 0.0215,-0.0083 0.0305,0.0023 0.0303,0.03606 -1.6e-4,0.02628 0.006,0.07096 0.0123,0.09929 0.007,0.02945 -0.004,0.01846 -0.0234,-0.02566 -0.0391,-0.08398 -0.0668,-0.0999 -0.0668,-0.03838 0,0.02146 0.0146,0.04463 0.0326,0.05151 0.0242,0.0093 0.0292,0.0282 0.019,0.07434 -0.0107,0.04835 -0.006,0.06184 0.0189,0.06184 0.0385,0 0.0438,0.05372 0.006,0.06903 -0.0724,0.02989 -0.0876,0.0046 -0.0936,-0.156839 z"
         id="path10592-2" />
      <path
         id="path25142"
         style="fill:#000000;fill-opacity:1;fill-rule:nonzero;stroke:none;stroke-width:0.466482"
         d="m 490.26108,57.119055 -0.0672,0.0088 -0.0615,0.01188 c 0,0 -0.0615,0.01918 -0.0806,0.03411 l -0.0491,0.03617 c -0.0425,0.03219 -0.0426,0.03249 -0.0486,0.05581 l -0.0367,0.06563 -0.0217,0.06253 -0.0408,0.128675 -0.0346,0.0217 -0.0387,0.01912 0.18707,0.03824 -0.047,0.163298 0.047,0.02636 0.0145,0.04393 0.0269,0.111104 0.0553,0.02894 0.0496,0.0031 0.0408,-0.01757 h 0.0646 l 0.01,0.04496 -0.0264,0.105418 -0.0196,0.131776 v 0.05581 l -0.16514,0.250771 -0.56241,-0.08082 -0.10274,0.09797 -0.1764,-0.134398 -0.22589,0.125475 0.0996,0.271573 0.27262,-0.01539 0.0595,0.128908 0.63138,0.02221 0.21315,-0.06056 0.20887,-0.06985 0.12816,0.188103 -0.0811,0.09353 0.16175,0.264583 c -0.26944,-0.06872 -0.34707,-0.09023 -0.60976,-0.07497 -0.0616,0.0036 -0.17009,0.0092 -0.2112,0.06022 -0.063,0.0781 -0.14848,0.312457 -0.14848,0.312457 l -0.0967,0.248449 0.0249,0.189685 0.0949,0.116296 -0.0137,0.174057 -0.0869,0.220195 -0.0457,0.0076 -0.22939,0.06841 -0.19345,-0.08495 -0.059,0.01973 -0.0118,0.101729 0.30275,0.189186 0.0945,-0.01233 0.079,0.03875 -0.0147,0.03856 0.19845,0.122647 0.0186,-0.04349 0.17978,-0.354762 0.12715,-0.393026 0.0889,-0.08293 0.053,-0.172234 0.5462,0.04238 0.37931,0.04134 h 0.40152 l 0.3669,-0.161232 0.0465,5.19e-4 c 0,0 0.16446,0.02281 0.19896,-0.01964 0.035,-0.04292 0.0486,-0.0987 0.0486,-0.0987 l 0.015,-0.180867 0.0537,-0.06925 c -0.026,-0.292012 -0.0261,-0.292393 -0.0351,-0.339515 -0.008,-0.04805 -0.15498,-0.276683 -0.18758,-0.307473 -0.0322,-0.02985 -0.0321,-0.03019 -0.16227,-0.06098 l -0.016,-0.08785 0.047,-0.02326 0.0884,-0.05168 c 0.0242,-0.01353 0.0436,-0.01781 0.0486,-0.09198 0.005,-0.07371 -0.061,-0.176218 -0.061,-0.176218 0,0 -0.15157,-0.319087 -0.18707,-0.359666 -0.035,-0.04059 -0.20277,-0.213744 -0.22427,-0.226343 -0.0205,-0.01213 -0.18174,-0.09104 -0.21394,-0.09664 -0.0327,-0.0056 -0.12985,0.01161 -0.16485,0.03772 -0.0345,0.02659 -0.0342,0.02634 -0.0599,0.09818 l -0.10542,0.02171 -0.2217,-0.153479 -0.12609,-0.0057 -0.0827,-0.07958 0.0181,-0.04444 0.0465,-0.01188 c -0.0131,-0.01492 -0.0129,-0.01463 -0.0129,-0.06408 l 0.0129,-0.04961 0.009,-0.05323 v -0.04082 l -0.009,-0.08165 -0.0119,-0.04082 c 0,0 -0.0175,-0.03978 -0.032,-0.05891 l -0.0703,-0.07855 c 0,0 -0.0365,-0.02924 -0.0455,-0.03204 l -0.0506,-0.02015 -0.0584,-0.01499 -0.0501,-0.0057 z"
         sodipodi:nodetypes="ccccccccccccccccccccccccccccccccccccccsscccccccccccccccccccccccccccccccccccccccccccccccccccccccccccccc" />
      <path
         id="path6139-6-0"
         style="fill:#000000;stroke-width:0.011584"
         d="m 480.95477,57.38275 c -0.0757,-0.0031 -0.23915,0.05428 -0.32245,0.117821 -0.0476,0.03632 -0.24201,0.272775 -0.2713,0.330214 -0.0266,0.05203 -0.0442,0.15993 -0.0377,0.230991 0.006,0.06215 -0.052,0.231955 -0.0946,0.278019 -0.0658,0.07131 -0.0692,0.08501 -0.0718,0.271301 -0.002,0.129061 -0.01,0.217901 -0.032,0.340032 -0.0165,0.09097 -0.03,0.177205 -0.03,0.19172 0,0.01452 -0.013,0.04414 -0.0289,0.06563 -0.0158,0.02149 -0.0315,0.05785 -0.0352,0.08061 -0.003,0.02276 -0.0172,0.08459 -0.0299,0.137462 -0.0369,0.152445 -0.041,0.279442 -0.0124,0.392739 0.0281,0.111051 0.0668,0.182454 0.1297,0.239263 0.0831,0.0751 0.18884,0.0783 0.24133,0.0072 0.0177,-0.02383 0.0358,-0.03459 0.0574,-0.03462 0.0713,-8.7e-5 0.16846,-0.102552 0.23926,-0.251663 0.0333,-0.07013 0.034,-0.07033 0.092,-0.07803 0.0469,-0.0062 0.0664,-0.01637 0.0992,-0.05064 l 0.0408,-0.04237 0.0811,0.0088 c 0.0446,0.0048 0.12985,0.01231 0.18915,0.01705 l 0.10747,0.0088 0.0635,0.167947 c 0.0873,0.232214 0.11502,0.284615 0.19175,0.364837 0.0367,0.03836 0.0727,0.0854 0.0806,0.104386 0.008,0.01899 0.0182,0.1207 0.0227,0.225824 0.009,0.217001 0.0282,0.295209 0.10541,0.439767 0.082,0.153609 0.20373,0.280715 0.3483,0.364321 l 0.0548,0.03204 -0.0419,0.06563 c -0.039,0.061 -0.079,0.11131 -0.31988,0.404109 -0.0495,0.06025 -0.10078,0.131159 -0.11422,0.157612 -0.0134,0.02645 -0.0399,0.07014 -0.0584,0.09715 -0.0784,0.114448 -0.0876,0.229087 -0.0325,0.401011 0.0192,0.05973 0.0481,0.168272 0.0641,0.24081 0.0351,0.159499 0.0563,0.227256 0.0982,0.311092 0.0175,0.03505 0.0431,0.101346 0.0568,0.147278 0.0324,0.108868 0.0625,0.142491 0.17777,0.197921 0.0524,0.02521 0.11608,0.0639 0.14108,0.08578 l 0.0455,0.03979 -0.0362,0.05116 c -0.0425,0.06098 -0.1152,0.132813 -0.23718,0.233577 -0.12239,0.101086 -0.17322,0.168563 -0.17983,0.238228 -0.004,0.04386 1e-4,0.06132 0.0201,0.08682 0.0282,0.03569 0.0564,0.03909 0.16177,0.02015 0.0354,-0.0064 0.0948,-0.01484 0.13229,-0.0186 0.0551,-0.0055 0.0743,-0.0133 0.0987,-0.03979 0.0181,-0.01957 0.0605,-0.04244 0.10541,-0.05736 0.14983,-0.04973 0.22997,-0.121185 0.3049,-0.270785 0.0596,-0.119042 0.0762,-0.211365 0.0884,-0.497126 0.01,-0.228616 0.0132,-0.251391 0.0424,-0.321429 0.0173,-0.04141 0.0464,-0.153511 0.0646,-0.249079 0.0403,-0.211169 0.047,-0.234106 0.13642,-0.445968 0.16301,-0.386236 0.3072,-0.641046 0.38499,-0.68058 0.0337,-0.01714 0.30589,-0.04184 0.32504,-0.02945 0.008,0.0051 0.0536,0.01036 0.10128,0.01137 0.0478,0.001 0.24847,0.0052 0.44599,0.0098 0.29765,0.0068 0.38695,0.0054 0.52244,-0.01033 0.35595,-0.04136 0.69395,-0.157223 0.95808,-0.327628 0.0434,-0.02801 0.0831,-0.05178 0.0883,-0.05323 0.005,-0.0014 0.029,0.03343 0.0527,0.07803 0.0576,0.108513 0.16634,0.27451 0.30282,0.460954 0.30294,0.413909 0.41253,0.627626 0.46198,0.903819 0.0404,0.226058 0.0133,0.428104 -0.0868,0.649058 -0.0513,0.11308 -0.24231,0.341624 -0.45424,0.544152 -0.19516,0.186452 -0.26096,0.267399 -0.27183,0.334346 -0.008,0.05128 0.009,0.08475 0.0574,0.111104 0.0298,0.01632 0.065,0.02038 0.17621,0.02015 0.20685,-4.26e-4 0.22876,-0.01639 0.30075,-0.21704 0.0109,-0.0302 0.0323,-0.0651 0.0481,-0.07752 0.0265,-0.02083 0.0325,-0.02106 0.076,-0.0057 0.13753,0.04852 0.21759,-0.0065 0.26458,-0.180867 0.0356,-0.132479 0.14759,-0.379013 0.34624,-0.762227 0.14213,-0.274251 0.16898,-0.355606 0.16898,-0.511599 0,-0.107881 -0.003,-0.129024 -0.031,-0.188102 -0.0171,-0.03664 -0.0287,-0.06666 -0.0253,-0.06666 0.0152,0 0.17106,0.09228 0.27853,0.164848 0.13843,0.09348 0.19108,0.148096 0.23617,0.244946 0.0713,0.153178 0.0714,0.298506 -0.002,0.719852 -0.0423,0.244708 -0.0488,0.408522 -0.0191,0.497644 0.0106,0.03185 0.0241,0.11117 0.03,0.1757 0.006,0.06736 0.0193,0.133281 0.0305,0.15503 0.0339,0.06554 0.1683,0.253608 0.19431,0.271819 0.043,0.03008 0.10636,0.02224 0.15346,-0.01912 0.0688,-0.06034 0.13489,-0.210452 0.13489,-0.305925 0,-0.05487 -0.0214,-0.09785 -0.10232,-0.205671 l -0.0419,-0.05581 0.0181,-0.05633 c 0.0161,-0.05017 0.0165,-0.06818 0.002,-0.164333 -0.0342,-0.224692 -0.0126,-0.447355 0.076,-0.779796 l 0.062,-0.23151 5.3e-4,-0.191204 c 5e-4,-0.175567 -0.002,-0.197146 -0.0269,-0.260448 -0.0483,-0.120131 -0.10854,-0.169955 -0.39945,-0.331764 -0.0503,-0.02794 -0.11395,-0.07077 -0.1416,-0.09508 -0.0609,-0.05354 -0.12978,-0.185782 -0.13952,-0.268719 -0.007,-0.05503 -0.003,-0.06755 0.0739,-0.220141 0.10314,-0.206483 0.16188,-0.356238 0.1886,-0.480592 0.0326,-0.15172 0.0579,-0.371313 0.0579,-0.505912 v -0.121955 l 0.0377,0.03307 c 0.0705,0.06155 0.20389,0.217758 0.35965,0.421162 0.0854,0.111495 0.20666,0.25763 0.26924,0.324529 0.15181,0.162238 0.2227,0.273387 0.401,0.629418 0.15796,0.315407 0.19934,0.389641 0.2181,0.389641 0.006,0 0.0113,-0.01551 0.0113,-0.03462 0,-0.01912 0.004,-0.03462 0.009,-0.03462 0.015,0 0.0754,0.06879 0.13592,0.15503 0.0309,0.04407 0.11038,0.138155 0.17671,0.208772 0.0663,0.07062 0.17619,0.193247 0.24392,0.272336 0.23672,0.276447 0.39836,0.441907 0.41497,0.425297 0.003,-0.0037 -0.0301,-0.09159 -0.0749,-0.195337 -0.22757,-0.527346 -0.39494,-0.944213 -0.3824,-0.952397 0.002,-0.0012 0.0281,-0.01749 0.0584,-0.03617 0.07,-0.04325 0.0716,-0.06184 0.004,-0.05426 -0.0678,0.0076 -0.12089,-0.01171 -0.2036,-0.0739 -0.12189,-0.09161 -0.23021,-0.263334 -0.30334,-0.481623 -0.0337,-0.100555 -0.0344,-0.106069 -0.014,-0.117306 0.0271,-0.015 0.0853,-0.07626 0.0853,-0.08992 0,-0.0057 -0.025,-0.01078 -0.0553,-0.01085 -0.12888,-2.83e-4 -0.25347,-0.05779 -0.36121,-0.166397 -0.0983,-0.0991 -0.15801,-0.191235 -0.30491,-0.473874 -0.0702,-0.135077 -0.15025,-0.281085 -0.17827,-0.324527 -0.15714,-0.243723 -0.3995,-0.389326 -0.70951,-0.426847 -0.0983,-0.01189 -0.11732,-0.01825 -0.1633,-0.05323 -0.0759,-0.05768 -0.26318,-0.145995 -0.42273,-0.198956 -0.19772,-0.06563 -0.61645,-0.170291 -0.75292,-0.1881 -0.16576,-0.02164 -0.5906,-0.01846 -0.76687,0.0057 -0.0775,0.01062 -0.14531,0.01964 -0.15089,0.01964 -0.006,0 -0.0169,-0.01804 -0.0248,-0.03979 -0.008,-0.02175 -0.0346,-0.05828 -0.0599,-0.08113 -0.0382,-0.0345 -0.0551,-0.04134 -0.0977,-0.04134 -0.0283,0 -0.0643,0.0052 -0.0806,0.01137 -0.0282,0.0107 -0.03,0.0093 -0.03,-0.02687 0,-0.06252 -0.0318,-0.151268 -0.0661,-0.183968 -0.0345,-0.03278 -0.12727,-0.06216 -0.16537,-0.05219 -0.0258,0.0067 -0.0264,0.0084 -0.009,-0.04082 h -1.46812 c -0.007,0.0065 -0.0148,0.01307 -0.0222,0.02067 -0.0349,0.03556 -0.065,0.0572 -0.0755,0.05374 -0.01,-0.0032 -0.0536,-0.01895 -0.0982,-0.03462 -0.075,-0.02634 -0.0919,-0.02791 -0.22066,-0.02119 -0.12962,0.0067 -0.14261,0.0057 -0.19015,-0.0186 -0.0602,-0.03074 -0.0942,-0.0876 -0.10232,-0.172083 -0.004,-0.04957 -0.003,-0.0569 0.0165,-0.05685 0.0119,3.8e-5 0.0305,0.01552 0.0413,0.03462 0.0125,0.02204 0.0206,0.03002 0.0444,0.03359 v -0.242879 c -8.8e-4,0.0012 -0.002,0.003 -0.003,0.0041 -0.0261,0.03711 -0.0578,0.06891 -0.0713,0.07131 -0.0133,0.0024 -0.0593,0.01185 -0.10232,0.02119 -0.0487,0.01059 -0.0785,0.01238 -0.0786,0.0052 0,-0.01693 0.0659,-0.121801 0.11216,-0.1788 0.0219,-0.02704 0.0371,-0.05457 0.0331,-0.06098 -0.004,-0.0064 -0.0446,-0.01201 -0.0904,-0.0124 -0.0467,-4.26e-4 -0.11152,-0.0095 -0.14729,-0.02119 l -0.0635,-0.02119 0.0548,-0.02429 c 0.095,-0.0422 0.0678,-0.06222 -0.1111,-0.08216 -0.061,-0.0068 -0.11901,-0.0124 -0.1292,-0.0124 -0.033,0 -0.006,-0.02303 0.0765,-0.0646 0.0444,-0.02234 0.0779,-0.04543 0.0744,-0.05116 -0.008,-0.01374 -0.095,-0.0306 -0.27233,-0.05323 -0.0796,-0.01016 -0.1465,-0.01992 -0.1483,-0.0217 -0.002,-0.0019 0.0283,-0.0095 0.0667,-0.01705 0.0384,-0.0076 0.0697,-0.01817 0.0697,-0.02377 0,-0.01395 -0.11684,-0.05694 -0.20826,-0.07648 -0.11242,-0.02404 -0.33546,-0.02082 -0.47749,0.0067 -0.0656,0.01272 -0.12187,0.02322 -0.12504,0.02325 -0.003,3.4e-5 -0.004,-0.05906 -0.002,-0.131258 0.003,-0.110482 4.7e-4,-0.133995 -0.0155,-0.147277 -0.0276,-0.02286 -0.0505,-0.0033 -0.077,0.06459 -0.0253,0.06462 -0.0545,0.09952 -0.11163,0.134874 -0.0324,0.02001 -0.0411,0.02164 -0.0496,0.0083 -0.0193,-0.03045 -0.0103,-0.0499 0.0476,-0.103351 0.0676,-0.06249 0.0776,-0.107014 0.0289,-0.129191 -0.007,-0.0031 -0.0155,-0.0047 -0.0263,-0.0052 z m 0.20929,1.860351 c 0.0137,0 0.0702,0.272868 0.0599,0.289388 -0.0104,0.01692 -0.16198,0.0145 -0.24079,-0.0041 -0.0369,-0.0087 -0.069,-0.01779 -0.0713,-0.02015 -0.003,-0.0024 -0.006,-0.01961 -0.008,-0.03824 -0.003,-0.03014 0.003,-0.03755 0.0568,-0.06925 0.0333,-0.0196 0.0913,-0.0632 0.1292,-0.09664 0.038,-0.03345 0.0716,-0.06098 0.0744,-0.06098 z m 1.25007,2.688207 c 0.008,-1.41e-4 0.009,0.0054 0.009,0.01447 -1.1e-4,0.01414 -0.0184,0.142936 -0.0408,0.286287 -0.0223,0.143351 -0.0458,0.340196 -0.0522,0.4377 -0.007,0.0975 -0.0164,0.212103 -0.0227,0.254765 -0.006,0.04266 -0.0113,0.08453 -0.0114,0.0925 -2.9e-4,0.02335 -0.014,0.0169 -0.0822,-0.03669 -0.11854,-0.09306 -0.23728,-0.280765 -0.26665,-0.422198 -0.021,-0.101135 -0.009,-0.239739 0.0269,-0.309026 0.0533,-0.103246 0.11711,-0.155133 0.32454,-0.264065 0.0729,-0.03829 0.10321,-0.05351 0.11575,-0.05374 z" />
      <path
         id="path6139-6-0-9"
         style="fill:#000000;stroke-width:0.011584"
         d="m 472.50622,57.38275 c -0.0757,-0.0031 -0.23915,0.05428 -0.32245,0.117821 -0.0476,0.03632 -0.24201,0.272775 -0.2713,0.330214 -0.0266,0.05203 -0.0442,0.15993 -0.0377,0.230991 0.006,0.06215 -0.052,0.231955 -0.0946,0.278019 -0.0658,0.07131 -0.0692,0.08501 -0.0718,0.271301 -0.002,0.129061 -0.01,0.217901 -0.032,0.340032 -0.0165,0.09097 -0.03,0.177205 -0.03,0.19172 0,0.01452 -0.013,0.04414 -0.0289,0.06563 -0.0158,0.02149 -0.0315,0.05785 -0.0352,0.08061 -0.003,0.02276 -0.0172,0.08459 -0.0299,0.137462 -0.0369,0.152445 -0.041,0.279442 -0.0124,0.392739 0.0281,0.111051 0.0668,0.182454 0.1297,0.239263 0.0831,0.0751 0.18884,0.0783 0.24133,0.0072 0.0177,-0.02383 0.0358,-0.03459 0.0574,-0.03462 0.0713,-8.7e-5 0.16846,-0.102552 0.23926,-0.251663 0.0333,-0.07013 0.034,-0.07033 0.092,-0.07803 0.0469,-0.0062 0.0664,-0.01637 0.0992,-0.05064 l 0.0408,-0.04237 0.0811,0.0088 c 0.0446,0.0048 0.12985,0.01231 0.18915,0.01705 l 0.10747,0.0088 0.0635,0.167947 c 0.0873,0.232214 0.11502,0.284615 0.19175,0.364837 0.0367,0.03836 0.0727,0.0854 0.0806,0.104386 0.008,0.01899 0.0182,0.1207 0.0227,0.225824 0.009,0.217001 0.0282,0.295209 0.10541,0.439767 0.082,0.153609 0.20373,0.280715 0.3483,0.364321 l 0.0548,0.03204 -0.0419,0.06563 c -0.039,0.061 -0.079,0.11131 -0.31988,0.404109 -0.0495,0.06025 -0.10078,0.131159 -0.11422,0.157612 -0.0134,0.02645 -0.0399,0.07014 -0.0584,0.09715 -0.0784,0.114448 -0.0876,0.229087 -0.0325,0.401011 0.0192,0.05973 0.0481,0.168272 0.0641,0.24081 0.0351,0.159499 0.0563,0.227256 0.0982,0.311092 0.0175,0.03505 0.0431,0.101346 0.0568,0.147278 0.0324,0.108868 0.0625,0.142491 0.17777,0.197921 0.0524,0.02521 0.11608,0.0639 0.14108,0.08578 l 0.0455,0.03979 -0.0362,0.05116 c -0.0425,0.06098 -0.1152,0.132813 -0.23718,0.233577 -0.12239,0.101086 -0.17322,0.168563 -0.17983,0.238228 -0.004,0.04386 1e-4,0.06132 0.0201,0.08682 0.0282,0.03569 0.0564,0.03909 0.16177,0.02015 0.0354,-0.0064 0.0948,-0.01484 0.13229,-0.0186 0.0551,-0.0055 0.0743,-0.0133 0.0987,-0.03979 0.0181,-0.01957 0.0605,-0.04244 0.10541,-0.05736 0.14983,-0.04973 0.22997,-0.121185 0.3049,-0.270785 0.0596,-0.119042 0.0762,-0.211365 0.0884,-0.497126 0.01,-0.228616 0.0132,-0.251391 0.0424,-0.321429 0.0173,-0.04141 0.0464,-0.153511 0.0646,-0.249079 0.0403,-0.211169 0.047,-0.234106 0.13642,-0.445968 0.16301,-0.386236 0.3072,-0.641046 0.38499,-0.68058 0.0337,-0.01714 0.30589,-0.04184 0.32504,-0.02945 0.008,0.0051 0.0536,0.01036 0.10128,0.01137 0.0478,0.001 0.24847,0.0052 0.44599,0.0098 0.29765,0.0068 0.38695,0.0054 0.52244,-0.01033 0.35595,-0.04136 0.69395,-0.157223 0.95808,-0.327628 0.0434,-0.02801 0.0831,-0.05178 0.0883,-0.05323 0.005,-0.0014 0.029,0.03343 0.0527,0.07803 0.0576,0.108513 0.16634,0.27451 0.30282,0.460954 0.30294,0.413909 0.41253,0.627626 0.46198,0.903819 0.0404,0.226058 0.0133,0.428104 -0.0868,0.649058 -0.0513,0.11308 -0.24231,0.341624 -0.45424,0.544152 -0.19516,0.186452 -0.26096,0.267399 -0.27183,0.334346 -0.008,0.05128 0.009,0.08475 0.0574,0.111104 0.0298,0.01632 0.065,0.02038 0.17621,0.02015 0.20685,-4.26e-4 0.22876,-0.01639 0.30075,-0.21704 0.0109,-0.0302 0.0323,-0.0651 0.0481,-0.07752 0.0265,-0.02083 0.0325,-0.02106 0.076,-0.0057 0.13753,0.04852 0.21759,-0.0065 0.26458,-0.180867 0.0356,-0.132479 0.14759,-0.379013 0.34624,-0.762227 0.14213,-0.274251 0.16898,-0.355606 0.16898,-0.511599 0,-0.107881 -0.003,-0.129024 -0.031,-0.188102 -0.0171,-0.03664 -0.0287,-0.06666 -0.0253,-0.06666 0.0152,0 0.17106,0.09228 0.27853,0.164848 0.13843,0.09348 0.19108,0.148096 0.23617,0.244946 0.0713,0.153178 0.0714,0.298506 -0.002,0.719852 -0.0423,0.244708 -0.0488,0.408522 -0.0191,0.497644 0.0106,0.03185 0.0241,0.11117 0.03,0.1757 0.006,0.06736 0.0193,0.133281 0.0305,0.15503 0.0339,0.06554 0.1683,0.253608 0.19431,0.271819 0.043,0.03008 0.10636,0.02224 0.15346,-0.01912 0.0688,-0.06034 0.13489,-0.210452 0.13489,-0.305925 0,-0.05487 -0.0214,-0.09785 -0.10232,-0.205671 l -0.0419,-0.05581 0.0181,-0.05633 c 0.0161,-0.05017 0.0165,-0.06818 0.002,-0.164333 -0.0342,-0.224692 -0.0126,-0.447355 0.076,-0.779796 l 0.062,-0.23151 5.3e-4,-0.191204 c 5e-4,-0.175567 -0.002,-0.197146 -0.0269,-0.260448 -0.0483,-0.120131 -0.10854,-0.169955 -0.39945,-0.331764 -0.0503,-0.02794 -0.11395,-0.07077 -0.1416,-0.09508 -0.0609,-0.05354 -0.12978,-0.185782 -0.13952,-0.268719 -0.007,-0.05503 -0.003,-0.06755 0.0739,-0.220141 0.10314,-0.206483 0.16188,-0.356238 0.1886,-0.480592 0.0326,-0.15172 0.0579,-0.371313 0.0579,-0.505912 v -0.121955 l 0.0377,0.03307 c 0.0705,0.06155 0.20389,0.217758 0.35965,0.421162 0.0854,0.111495 0.20666,0.25763 0.26924,0.324529 0.15181,0.162238 0.2227,0.273387 0.401,0.629418 0.15796,0.315407 0.19934,0.389641 0.2181,0.389641 0.006,0 0.0113,-0.01551 0.0113,-0.03462 0,-0.01912 0.004,-0.03462 0.009,-0.03462 0.015,0 0.0754,0.06879 0.13592,0.15503 0.0309,0.04407 0.11038,0.138155 0.17671,0.208772 0.0663,0.07062 0.17619,0.193247 0.24392,0.272336 0.23672,0.276447 0.39836,0.441907 0.41497,0.425297 0.003,-0.0037 -0.0301,-0.09159 -0.0749,-0.195337 -0.22757,-0.527346 -0.39494,-0.944213 -0.3824,-0.952397 0.002,-0.0012 0.0281,-0.01749 0.0584,-0.03617 0.07,-0.04325 0.0716,-0.06184 0.004,-0.05426 -0.0678,0.0076 -0.12089,-0.01171 -0.2036,-0.0739 -0.12189,-0.09161 -0.23021,-0.263334 -0.30334,-0.481623 -0.0337,-0.100555 -0.0344,-0.106069 -0.014,-0.117306 0.0271,-0.015 0.0853,-0.07626 0.0853,-0.08992 0,-0.0057 -0.025,-0.01078 -0.0553,-0.01085 -0.12888,-2.83e-4 -0.25347,-0.05779 -0.36121,-0.166397 -0.0983,-0.0991 -0.15801,-0.191235 -0.30491,-0.473874 -0.0702,-0.135077 -0.15025,-0.281085 -0.17827,-0.324527 -0.15714,-0.243723 -0.3995,-0.389326 -0.70951,-0.426847 -0.0983,-0.01189 -0.11732,-0.01825 -0.1633,-0.05323 -0.0759,-0.05768 -0.26318,-0.145995 -0.42273,-0.198956 -0.19772,-0.06563 -0.61645,-0.170291 -0.75292,-0.1881 -0.16576,-0.02164 -0.5906,-0.01846 -0.76687,0.0057 -0.0775,0.01062 -0.14531,0.01964 -0.15089,0.01964 -0.006,0 -0.0169,-0.01804 -0.0248,-0.03979 -0.008,-0.02175 -0.0346,-0.05828 -0.0599,-0.08113 -0.0382,-0.0345 -0.0551,-0.04134 -0.0977,-0.04134 -0.0283,0 -0.0643,0.0052 -0.0806,0.01137 -0.0282,0.0107 -0.03,0.0093 -0.03,-0.02687 0,-0.06252 -0.0318,-0.151268 -0.0661,-0.183968 -0.0345,-0.03278 -0.12727,-0.06216 -0.16537,-0.05219 -0.0258,0.0067 -0.0264,0.0084 -0.009,-0.04082 h -1.46812 c -0.007,0.0065 -0.0148,0.01307 -0.0222,0.02067 -0.0349,0.03556 -0.065,0.0572 -0.0755,0.05374 -0.01,-0.0032 -0.0536,-0.01895 -0.0982,-0.03462 -0.075,-0.02634 -0.0919,-0.02791 -0.22066,-0.02119 -0.12962,0.0067 -0.14261,0.0057 -0.19015,-0.0186 -0.0602,-0.03074 -0.0942,-0.0876 -0.10232,-0.172083 -0.004,-0.04957 -0.003,-0.0569 0.0165,-0.05685 0.0119,3.8e-5 0.0305,0.01552 0.0413,0.03462 0.0125,0.02204 0.0206,0.03002 0.0444,0.03359 v -0.242879 c -8.8e-4,0.0012 -0.002,0.003 -0.003,0.0041 -0.0261,0.03711 -0.0578,0.06891 -0.0713,0.07131 -0.0133,0.0024 -0.0593,0.01185 -0.10232,0.02119 -0.0487,0.01059 -0.0785,0.01238 -0.0786,0.0052 0,-0.01693 0.0659,-0.121801 0.11216,-0.1788 0.0219,-0.02704 0.0371,-0.05457 0.0331,-0.06098 -0.004,-0.0064 -0.0446,-0.01201 -0.0904,-0.0124 -0.0467,-4.26e-4 -0.11152,-0.0095 -0.14729,-0.02119 l -0.0635,-0.02119 0.0548,-0.02429 c 0.095,-0.0422 0.0678,-0.06222 -0.1111,-0.08216 -0.061,-0.0068 -0.11901,-0.0124 -0.1292,-0.0124 -0.033,0 -0.006,-0.02303 0.0765,-0.0646 0.0444,-0.02234 0.0779,-0.04543 0.0744,-0.05116 -0.008,-0.01374 -0.095,-0.0306 -0.27233,-0.05323 -0.0796,-0.01016 -0.1465,-0.01992 -0.1483,-0.0217 -0.002,-0.0019 0.0283,-0.0095 0.0667,-0.01705 0.0384,-0.0076 0.0697,-0.01817 0.0697,-0.02377 0,-0.01395 -0.11684,-0.05694 -0.20826,-0.07648 -0.11242,-0.02404 -0.33546,-0.02082 -0.47749,0.0067 -0.0656,0.01272 -0.12187,0.02322 -0.12504,0.02325 -0.003,3.4e-5 -0.004,-0.05906 -0.002,-0.131258 0.003,-0.110482 4.7e-4,-0.133995 -0.0155,-0.147277 -0.0276,-0.02286 -0.0505,-0.0033 -0.077,0.06459 -0.0253,0.06462 -0.0545,0.09952 -0.11163,0.134874 -0.0324,0.02001 -0.0411,0.02164 -0.0496,0.0083 -0.0193,-0.03045 -0.0103,-0.0499 0.0476,-0.103351 0.0676,-0.06249 0.0776,-0.107014 0.0289,-0.129191 -0.007,-0.0031 -0.0155,-0.0047 -0.0263,-0.0052 z m 0.20929,1.860351 c 0.0137,0 0.0702,0.272868 0.0599,0.289388 -0.0104,0.01692 -0.16198,0.0145 -0.24079,-0.0041 -0.0369,-0.0087 -0.069,-0.01779 -0.0713,-0.02015 -0.003,-0.0024 -0.006,-0.01961 -0.008,-0.03824 -0.003,-0.03014 0.003,-0.03755 0.0568,-0.06925 0.0333,-0.0196 0.0913,-0.0632 0.1292,-0.09664 0.038,-0.03345 0.0716,-0.06098 0.0744,-0.06098 z m 1.25007,2.688207 c 0.008,-1.41e-4 0.009,0.0054 0.009,0.01447 -1.1e-4,0.01414 -0.0184,0.142936 -0.0408,0.286287 -0.0223,0.143351 -0.0458,0.340196 -0.0522,0.4377 -0.007,0.0975 -0.0164,0.212103 -0.0227,0.254765 -0.006,0.04266 -0.0113,0.08453 -0.0114,0.0925 -2.9e-4,0.02335 -0.014,0.0169 -0.0822,-0.03669 -0.11854,-0.09306 -0.23728,-0.280765 -0.26665,-0.422198 -0.021,-0.101135 -0.009,-0.239739 0.0269,-0.309026 0.0533,-0.103246 0.11711,-0.155133 0.32454,-0.264065 0.0729,-0.03829 0.10321,-0.05351 0.11575,-0.05374 z" />
      <rect
         style="fill:#000000;stroke-width:0.784749;-inkscape-stroke:none;paint-order:markers fill stroke;stop-color:#000000"
         id="rect11204"
         width="15.8083"
         height="0.29263848"
         x="477.16684"
         y="34.228436"
         transform="rotate(3.174033)" />
      <rect
         style="fill:#000000;stroke-width:0.334257;-inkscape-stroke:none;paint-order:markers fill stroke;stop-color:#000000"
         id="rect11204-1"
         width="7.489676"
         height="0.11206039"
         x="484.85495"
         y="36.773502"
         transform="matrix(0.99899978,0.04471504,-0.06854186,0.99764824,0,0)" />
      <rect
         style="fill:#000000;stroke-width:0.500925;-inkscape-stroke:none;paint-order:markers fill stroke;stop-color:#000000"
         id="rect11204-1-1"
         width="16.666531"
         height="0.11309791"
         x="480.22125"
         y="49.192417"
         transform="matrix(0.99979809,0.02009423,-0.15124552,0.98849623,0,0)" />
    </g>
  </g>
</svg>
