<?xml version="1.0" encoding="UTF-8" standalone="no"?>
<!-- Created with Inkscape (http://www.inkscape.org/) -->

<svg
   width="14.08493mm"
   height="7.9242201mm"
   viewBox="0 0 14.08493 7.9242201"
   version="1.1"
   id="svg12094"
   inkscape:version="1.1.1 (3bf5ae0d25, 2021-09-20)"
   sodipodi:docname="S-Tractor.svg"
   xmlns:inkscape="http://www.inkscape.org/namespaces/inkscape"
   xmlns:sodipodi="http://sodipodi.sourceforge.net/DTD/sodipodi-0.dtd"
   xmlns="http://www.w3.org/2000/svg"
   xmlns:svg="http://www.w3.org/2000/svg">
  <sodipodi:namedview
     id="namedview12096"
     pagecolor="#ffffff"
     bordercolor="#666666"
     borderopacity="1.0"
     inkscape:pageshadow="2"
     inkscape:pageopacity="0.0"
     inkscape:pagecheckerboard="0"
     inkscape:document-units="mm"
     showgrid="false"
     inkscape:zoom="1.877186"
     inkscape:cx="-99.883551"
     inkscape:cy="-28.500106"
     inkscape:window-width="1920"
     inkscape:window-height="1017"
     inkscape:window-x="-8"
     inkscape:window-y="-8"
     inkscape:window-maximized="1"
     inkscape:current-layer="layer1" />
  <defs
     id="defs12091" />
  <g
     inkscape:label="Layer 1"
     inkscape:groupmode="layer"
     id="layer1"
     transform="translate(-172.7523,-179.41985)">
    <path
       d="m 175.16924,186.52457 c 0.41065,0.14469 0.96049,0.32522 1.3615,0.43684 -0.11576,-0.12678 -0.18604,-0.2949 -0.18604,-0.47956 0,-0.39274 0.31833,-0.70969 0.71107,-0.70969 0.0496,0 0.0978,0.004 0.14469,0.0138 l 0.15434,-0.15572 h -1.33256 c -0.0469,0.45889 -0.40101,0.82545 -0.853,0.89435 m 2.29029,0.54157 h 1.30501 c -0.13367,-0.0937 -0.23427,-0.23013 -0.27837,-0.38999 h -0.74689 c -0.0455,0.15986 -0.1447,0.29628 -0.27975,0.38999 m 2.11529,0 h 1.17822 c -0.18465,-0.12816 -0.30592,-0.34176 -0.30592,-0.58429 0,-0.39274 0.31833,-0.70969 0.71107,-0.70969 0.0496,0 0.0965,0.004 0.14331,0.0138 l 0.15572,-0.15572 h -2.41708 l 0.0579,0.1447 0.0717,-0.003 c 0.39274,0 0.70969,0.31695 0.70969,0.70969 0,0.24253 -0.12127,0.45613 -0.30455,0.58429 m 1.98713,0 h 1.30501 c -0.13367,-0.0937 -0.23427,-0.23014 -0.27837,-0.38999 h -0.74689 c -0.0455,0.15985 -0.14608,0.29628 -0.27975,0.38999 m 2.25034,-0.12403 c 0.33624,-0.10748 0.75516,-0.27147 1.10381,-0.42443 -0.53192,-0.0179 -0.97565,-0.38999 -1.10243,-0.88746 h -0.67111 l 0.0579,0.1447 0.0703,-0.003 c 0.39274,0 0.71107,0.31695 0.71107,0.70969 0,0.17502 -0.0634,0.33625 -0.1695,0.46027 m 2.25447,-2.39365 c 0.22049,0.36242 0.25494,0.82269 0.11438,1.22369 h 0.35829 v -0.35553 h 0.2825 v 0.35553 l 0.0152,0.2701 h -0.78273 c -0.0827,0.13643 -0.19017,0.26045 -0.32108,0.36242 -0.32109,0.25081 -1.99954,0.93983 -2.44602,0.93983 h -6.2687 c -0.37345,0 -2.21037,-0.63666 -2.49976,-0.77033 -0.36793,-0.17087 -0.69453,-0.67524 -0.66972,-1.10932 l -0.14608,-0.0551 v 0.36242 h -0.74 l -0.1006,-0.006 v -0.52917 h 0.1006 v -1.87275 h -0.21084 v -0.69315 h 0.21084 v -0.3514 h 0.31832 v -0.17639 h 0.14056 v -0.48232 l 0.54019,-1.82176 0.12403,-0.23289 0.27009,-0.15296 0.40652,-0.0331 h 2.93247 l 0.18604,0.0675 0.0634,0.13505 0.01,0.11438 0.14469,1.15066 h 8.27236 v 3.06338 h -0.30454 z m -9.33483,-4.79144 -1.22094,0.0758 v 1.51171 h 0.55673 l -0.0427,-0.0772 -0.008,-0.0909 -0.003,-0.11025 0.0193,-0.1254 0.0262,-0.10197 -0.073,-0.0427 -0.0854,0.0124 -0.0799,-0.13366 -0.0592,-0.0675 0.0455,-0.15847 -0.18052,-0.0372 0.0703,-0.0386 0.04,-0.12403 0.0207,-0.0606 0.0358,-0.0634 0.0937,-0.0882 c 0.0179,-0.0138 0.0772,-0.0317 0.0772,-0.0317 l 0.0593,-0.011 0.0648,-0.01 0.062,0.007 0.10473,0.0179 c 0.0579,0.0234 0.0923,0.051 0.0923,0.051 l 0.0675,0.0772 0.0427,0.0951 0.008,0.0786 -0.008,0.0909 c -0.0138,0.0951 0,0.10886 0,0.10886 l -0.062,0.0551 0.0786,0.0758 0.12264,0.006 0.13505,0.0951 z m -2.95038,1.51722 h 0.54157 l 0.339,-1.19889 h -0.52503 z m 0,0"
       id="path6492-3" />
  </g>
</svg>
