<?xml version="1.0" encoding="UTF-8" standalone="no"?>
<!-- Created with Inkscape (http://www.inkscape.org/) -->

<svg
   width="17.631702mm"
   height="6.5364699mm"
   viewBox="0 0 17.631702 6.5364699"
   version="1.1"
   id="svg6745"
   sodipodi:docname="inkporter-svg-c14s4eqd.svg"
   xmlns:inkscape="http://www.inkscape.org/namespaces/inkscape"
   xmlns:sodipodi="http://sodipodi.sourceforge.net/DTD/sodipodi-0.dtd"
   xmlns="http://www.w3.org/2000/svg"
   xmlns:svg="http://www.w3.org/2000/svg">
  <sodipodi:namedview
     id="namedview6747"
     pagecolor="#ffffff"
     bordercolor="#666666"
     borderopacity="1.0"
     inkscape:pageshadow="2"
     inkscape:pageopacity="0.0"
     inkscape:pagecheckerboard="0"
     inkscape:document-units="mm"
     showgrid="false"
     inkscape:zoom="0.66368547"
     inkscape:cx="397.02542"
     inkscape:cy="561.25984"
     inkscape:window-width="1920"
     inkscape:window-height="1017"
     inkscape:window-x="-8"
     inkscape:window-y="-8"
     inkscape:window-maximized="1"
     inkscape:current-layer="layer1" />
  <defs
     id="defs6742" />
  <g
     inkscape:label="Layer 1"
     inkscape:groupmode="layer"
     id="layer1"
     transform="translate(-61.680067,-133.04592)">
    <path
       d="m 78.846587,136.20851 -0.404989,-0.24553 h -0.583847 c 0,0 0.04621,-0.0864 0.05292,-0.13265 0.0067,-0.0466 -0.09948,-0.0797 -0.09948,-0.0797 h -0.962378 l -0.106539,-0.0667 0.130881,-0.2607 -0.07232,-0.0575 -0.05256,0.0624 c 0,0 -0.09102,0.11288 -0.140053,0.1725 l -0.217664,-0.13582 0.06809,-0.11324 c 0.01764,-0.03 0.02046,-0.10759 -0.02893,-0.14076 -0.01658,-0.0109 -0.06385,-0.0462 -0.109361,-0.0804 -0.04868,-0.036 -0.09454,-0.0702 -0.112183,-0.0822 -0.05009,-0.0332 -0.111478,-0.024 -0.143228,0.0212 -0.01446,0.0208 -0.05891,0.0889 -0.08996,0.13688 l -0.394053,-0.24554 -0.132644,0.14605 -0.305153,-0.19261 h -0.590903 v 0.0399 h -0.06632 v 0.14605 h -0.172508 v -0.0466 c 0,-0.0462 -0.02681,-0.0928 -0.07973,-0.0928 h -0.03316 v -0.0663 H 73.98144 v 0.0663 h -0.02646 c 0,0 -0.07303,0.0134 -0.07303,0.073 v 0.0663 h -0.152752 v -0.0466 c 0,-0.0462 -0.02646,-0.0928 -0.07973,-0.0928 h -0.03986 v -0.0663 h -0.218722 v 0.0663 h -0.02011 c 0,0 -0.07302,0.0134 -0.07302,0.073 v 0.0663 h -0.14605 v -0.0466 c 0,-0.0462 -0.02646,-0.0928 -0.07973,-0.0928 h -0.04621 v -0.0663 h -0.219075 v 0.0663 h -0.01341 c 0,0 -0.07303,0.0134 -0.07303,0.073 v 0.0663 H 72.54774 v -0.0466 c 0,-0.0462 -0.02646,-0.0928 -0.07973,-0.0928 h -0.02646 v -0.0663 h -0.219075 v 0.0663 h -0.03316 c 0,0 -0.07303,0.0134 -0.07303,0.073 v 0.0663 h -0.172509 v -0.0466 c 0,-0.0529 -0.03316,-0.0794 -0.08643,-0.0794 h -0.03316 v -0.0797 h -0.219075 v 0.0797 h -0.01976 c -0.08643,0 -0.05962,0.11924 -0.05962,0.11924 l -0.01411,0.01 0.0071,-0.0847 c 0,0 -0.0074,-0.14252 0.0321,-0.14499 0.136878,-0.008 0.442736,0 0.442736,0 v -0.0159 -0.46708 h 1.167694 c 0.06421,0 0,-0.83714 0,-0.83714 h -0.764822 v 0.32173 l -0.241653,-0.17709 v -0.32985 h -0.136877 v -0.14499 h -0.104775 v 0.16898 h -0.177095 l -0.0321,-0.0564 c 0,0 -0.0081,-0.20109 -0.0081,-0.22543 0,-0.024 -0.04833,-0.0642 -0.04833,-0.0642 l -0.08855,0.31397 h -0.09666 l -0.273756,-0.16898 H 68.89402 v 0.11253 h -0.209197 l -0.169333,0.024 -0.04833,-0.22542 -0.482952,0.121 0.02434,0.22543 -0.78105,0.13687 -0.805039,0.008 -0.01623,0.16086 c 0,0 -0.474839,0.0967 -0.515409,0.10478 -0.04022,0.008 -0.05609,0.25753 -0.05609,0.25753 l -0.06456,0.0646 h -0.941916 l -0.02434,0.0723 h -3.123847 v 0.19332 l 3.148189,0.0642 0.0321,0.0325 h 0.926042 c 0,0 0.04833,0.0963 0.104422,0.0963 h 0.3302 l 0.02434,0.0564 -0.01623,0.23354 c 0,0 0.177095,0.0243 0.209197,0.0402 0.03246,0.0162 0.16122,0.0967 0.185209,0.14499 0.0127,0.025 0.02716,0.0674 0.03739,0.11148 h -1.115483 l -0.05327,-0.18592 -0.404636,0.10619 0.03316,0.1591 -0.298802,0.0864 v 0.31856 h -0.14605 v 0.38488 h 0.139347 v 0.0596 H 63.647145 V 135.923 h -0.258939 v 0.0995 c 0,0 -0.02646,-0.0198 -0.05292,-0.0462 -0.02681,-0.0268 -0.199319,-0.0268 -0.199319,-0.0268 v 0.19932 h -0.404636 c -0.232481,0 -0.650523,0.43145 -0.650523,0.43145 l 0.427567,0.27446 c -0.204611,0.2794 -0.220133,0.55986 -0.195439,0.74965 0.0381,0.28928 0.200025,0.5715 0.422628,0.73625 0.319617,0.23636 1.722261,0.78105 2.320925,1.01353 0.09631,0.0374 0.165805,0.0642 0.200025,0.0783 0.255058,0.10301 0.552803,0.14993 0.721078,0.14993 h 9.551458 c 0.20955,0 0.339019,-0.01 0.466019,-0.0653 0.02716,-0.0116 0.166864,-0.0688 0.360539,-0.14781 0.650875,-0.26564 1.862314,-0.76024 2.022828,-0.8502 0.345016,-0.19367 0.553155,-0.47836 0.617714,-0.84596 0.05186,-0.29492 -0.03634,-0.54927 -0.118886,-0.71014 0.191558,-10e-4 0.422275,-0.002 0.433916,0.002 0.01976,0.007 -0.464608,-0.75671 -0.464608,-0.75671 m -15.762111,2.19392 c -0.01199,-0.006 -0.02399,-0.012 -0.03563,-0.018 0.0127,0.004 0.0254,0.008 0.0381,0.012 z m 0.343253,0.15981 c -0.05468,-0.0243 -0.107597,-0.048 -0.158045,-0.0716 l 0.02399,-0.0589 c 0.0187,0.001 0.0374,0.002 0.05645,0.002 0.04551,0 0.08996,-0.004 0.133703,-0.01 z m 1.40335,0.57609 c -0.05221,-0.0205 -0.107245,-0.042 -0.164747,-0.0649 l 0.09208,-0.22754 -0.189795,-0.0769 -0.09278,0.22931 c -0.05256,-0.0208 -0.106539,-0.0427 -0.160867,-0.0646 l 0.09278,-0.22966 -0.189795,-0.0769 -0.09278,0.23002 c -0.05256,-0.0215 -0.105128,-0.043 -0.157692,-0.0649 l 0.09243,-0.22895 -0.189795,-0.0765 -0.09172,0.22683 c -0.05503,-0.0229 -0.109361,-0.0462 -0.162983,-0.0691 l 0.09066,-0.22401 -0.07338,-0.0296 c 0.14358,-0.0452 0.272344,-0.12312 0.377825,-0.22542 l 0.227189,0.10724 0.758825,0.0176 c -0.01658,0.0699 -0.0254,0.14288 -0.0254,0.21802 0,0.17251 0.04586,0.33443 0.125589,0.47413 l -0.174273,-0.0702 z m 0.324908,0.12629 c -0.01764,-0.007 -0.03598,-0.0141 -0.05609,-0.0219 -0.02434,-0.009 -0.05045,-0.0194 -0.07832,-0.0303 l 0.08572,-0.21166 c 0.02928,0.0487 0.06279,0.0945 0.09984,0.13723 z m 0.1905,0.0744 0.02187,-0.0536 c 0.08149,0.0589 0.172509,0.10548 0.270934,0.13688 -0.0956,-0.0201 -0.196497,-0.0473 -0.292806,-0.0833 m 0.837142,0.12382 h -0.162278 c 0.05574,-0.005 0.110067,-0.0152 0.162278,-0.0293 z m 1.129594,0 h -0.177094 v -0.21554 h -0.204611 v 0.21554 h -0.173567 v -0.21554 H 66.55334 v 0.21554 h -0.164747 v -0.11218 c 0.2413,-0.13158 0.419805,-0.36336 0.479072,-0.63994 l 0.174272,0.0289 c 0.01799,0.21202 0.119592,0.4004 0.271286,0.53234 z m 0.204611,0 v -0.0614 c 0.07303,0.0317 0.152048,0.0529 0.234598,0.0614 z m 0.522111,0 h -0.122061 c 0.04163,-0.004 0.08255,-0.0116 0.122061,-0.0222 z m 0.759884,-0.21554 v 0.21554 h -0.177095 v -0.21554 h -0.204611 v 0.21554 H 68.24454 v -0.10865 c 0.153458,-0.0921 0.273402,-0.2346 0.336902,-0.40464 h 0.140406 c 0.04233,0.11395 0.110419,0.21555 0.19685,0.29775 z m 0.204611,0.21554 v -0.14428 c 0.109714,0.0787 0.239889,0.12982 0.381,0.14428 z m 0.548922,0 h -0.0035 c 0,0 0,0 0.0035,0 z m 0.378178,0 h -0.173567 v -0.0501 c 0.06209,-0.0243 0.120297,-0.0561 0.173567,-0.0942 z m 1.516591,-0.21554 v 0.21554 H 71.27102 v -0.21554 h -0.204611 v 0.21554 h -0.173567 v -0.21554 h -0.204611 v 0.21554 H 70.51784 v -0.21554 h -0.204612 v 0.21554 h -0.177094 v -0.21554 h -0.118886 c 0.152047,-0.14499 0.247297,-0.34961 0.247297,-0.57644 0,-0.12877 -0.03104,-0.25047 -0.08537,-0.35842 h 1.245658 c -0.05433,0.10795 -0.08502,0.22965 -0.08502,0.35842 0,0.22683 0.0949,0.43145 0.246944,0.57644 z m 0.348545,0.21554 h -0.143933 v -0.1591 c 0.04445,0.0342 0.09278,0.0635 0.143933,0.0878 z m 0.204611,0 v -0.007 c 0.01693,0.003 0.03422,0.005 0.05115,0.007 z m 0.555272,0 h -0.177094 v -0.0335 c 0.06279,-0.0201 0.122061,-0.0476 0.177094,-0.0818 z m 0.766586,0 h -0.173566 v -0.21554 h -0.204611 v 0.21554 H 72.76117 v -0.21554 h -0.07585 c 0.08255,-0.0787 0.148167,-0.17463 0.191206,-0.28258 l 0.129822,-0.006 c 0.06209,0.1598 0.173919,0.29456 0.316794,0.38523 z m 0.204611,0 v -0.0268 c 0.0448,0.0131 0.09102,0.0222 0.138642,0.0268 z m 0.532342,0 h -0.150636 v -0.0116 c 0.05221,-0.0109 0.102658,-0.0265 0.150636,-0.0469 z m 1.121833,0 h -0.157338 v -0.21554 h -0.204612 v 0.21554 H 74.64287 v -0.21554 h -0.204611 v 0.21554 h -0.173567 v -0.1852 c 0.140053,-0.11889 0.238125,-0.2854 0.269522,-0.47449 l 0.197203,-0.0557 c 0.06491,0.25224 0.230011,0.46461 0.450497,0.59196 z m 0.347134,0 h -0.142522 v -0.0353 c 0.05856,0.0173 0.119238,0.0293 0.18168,0.0353 -0.0127,0 -0.02575,0 -0.03916,0 m 0.584905,-4.35927 c 0.01446,-0.0208 0.04163,-0.0183 0.06103,-0.006 0.01658,0.0113 0.06385,0.0466 0.109361,0.0804 0.04868,0.0363 0.09454,0.0702 0.112183,0.0822 0.01729,0.0116 0.01517,0.0511 0.01094,0.06 l -0.06773,0.11289 -0.313972,-0.19579 c 0.03069,-0.0473 0.07408,-0.1143 0.08819,-0.13406 m 0.196497,4.15537 c -0.04339,0.0176 -0.08361,0.0339 -0.120297,0.049 0.0762,-0.0505 0.144639,-0.11184 0.2032,-0.18133 l 0.03598,0.0836 c -0.04163,0.0169 -0.08149,0.0332 -0.118887,0.0487 m 1.357842,-0.55915 -0.0956,-0.2212 -0.187677,0.0811 0.09454,0.21908 c -0.05292,0.0219 -0.106186,0.0441 -0.160514,0.0663 l -0.09349,-0.2166 -0.187678,0.0811 0.09207,0.21343 c -0.05292,0.0219 -0.10548,0.0434 -0.157691,0.0649 l -0.09102,-0.21061 -0.188031,0.0811 0.08961,0.20708 c -0.05609,0.0229 -0.110772,0.0455 -0.163689,0.067 l -0.08819,-0.2039 -0.01058,0.005 c 0.0635,-0.12806 0.09913,-0.27235 0.09913,-0.4251 0,-0.0804 -0.0099,-0.15875 -0.02858,-0.23354 l 0.603955,-0.0141 c 0.159456,0.14111 0.362656,0.23354 0.58667,0.2547 l 0.05009,0.11607 c -0.05221,0.0219 -0.106539,0.0448 -0.163336,0.0684 m 0.35172,-0.14852 -0.01693,-0.0392 c 0.07832,-0.009 0.154164,-0.0272 0.226131,-0.0533 -0.05327,0.0247 -0.124884,0.0561 -0.209197,0.0924"
       id="S-Valentine"
       style="stroke-width:0.352778" />
  </g>
</svg>
