<?xml version="1.0" encoding="UTF-8" standalone="no"?>
<!-- Created with Inkscape (http://www.inkscape.org/) -->

<svg
   width="11.0958mm"
   height="4.6417203mm"
   viewBox="0 0 11.0958 4.6417203"
   version="1.1"
   id="svg11631"
   sodipodi:docname="inkporter-svg-lvo7et53.svg"
   xmlns:inkscape="http://www.inkscape.org/namespaces/inkscape"
   xmlns:sodipodi="http://sodipodi.sourceforge.net/DTD/sodipodi-0.dtd"
   xmlns="http://www.w3.org/2000/svg"
   xmlns:svg="http://www.w3.org/2000/svg">
  <sodipodi:namedview
     id="namedview11633"
     pagecolor="#ffffff"
     bordercolor="#666666"
     borderopacity="1.0"
     inkscape:pageshadow="2"
     inkscape:pageopacity="0.0"
     inkscape:pagecheckerboard="0"
     inkscape:document-units="mm"
     showgrid="false"
     inkscape:zoom="3.6233469"
     inkscape:cx="36.982382"
     inkscape:cy="286.06149"
     inkscape:window-width="1920"
     inkscape:window-height="1017"
     inkscape:window-x="-8"
     inkscape:window-y="-8"
     inkscape:window-maximized="1"
     inkscape:current-layer="layer1" />
  <defs
     id="defs11628" />
  <g
     inkscape:label="Layer 1"
     inkscape:groupmode="layer"
     id="layer1"
     transform="translate(-14.406438,-66.512988)">
    <path
       d="m 18.253861,70.858314 c -0.03202,-0.45664 -0.0343,-0.436881 0.0549,-0.468928 0.177852,-0.06389 0.369645,-0.101177 0.614803,-0.11953 0.298747,-0.02239 0.448946,-0.04721 0.515693,-0.0853 0.03263,-0.01862 0.08461,-0.04861 0.115532,-0.06665 0.05032,-0.02937 0.06322,-0.03025 0.12284,-0.0087 0.03663,0.01327 0.170568,0.03025 0.29762,0.0378 0.127052,0.0075 0.329029,0.02374 0.448843,0.03603 0.216491,0.0222 0.218022,0.02267 0.24594,0.07668 0.03812,0.07368 0.05259,0.284033 0.02211,0.320776 -0.05204,0.0627 -0.1343,0.07746 -0.42889,0.07695 -0.157846,-2.7e-4 -0.330779,0.0083 -0.384298,0.01918 -0.05352,0.0108 -0.157018,0.02653 -0.229998,0.03496 -0.122006,0.01406 -0.268244,0.04347 -0.424611,0.08544 -0.03407,0.0091 -0.154919,0.06136 -0.26858,0.116049 -0.220745,0.106213 -0.339484,0.152508 -0.392207,0.152927 -0.03021,2.65e-4 -0.118915,0.03361 -0.192621,0.07251 -0.0169,0.0089 -0.04548,0.0162 -0.06351,0.0162 -0.02979,0 -0.03468,-0.02714 -0.05356,-0.296345 z m 0.457394,0.243269 c 0,-0.0097 0.01992,-0.01769 0.04422,-0.01769 0.02434,0 0.04422,-0.0078 0.04422,-0.01736 0,-0.0095 0.02188,-0.02281 0.04865,-0.02946 0.02676,-0.0067 0.07499,-0.02686 0.107182,-0.04482 0.09404,-0.05261 0.271815,-0.123692 0.348393,-0.139308 0.03891,-0.008 0.130482,-0.02709 0.203462,-0.04259 0.07298,-0.0155 0.204341,-0.03682 0.291918,-0.04738 0.155761,-0.0188 0.8593,-0.04921 0.874712,-0.03784 0.0042,0.0033 -0.0054,0.0189 -0.02141,0.03496 -0.0324,0.0324 -0.108117,0.04673 -0.446385,0.08446 -0.227159,0.02532 -0.385099,0.0503 -0.451395,0.07134 -0.01871,0.006 -0.08804,0.01769 -0.154016,0.02611 -0.106413,0.01359 -0.229816,0.03687 -0.571115,0.107913 -0.05352,0.01112 -0.138344,0.03133 -0.188493,0.04482 -0.108504,0.02923 -0.129971,0.03035 -0.129971,0.0069 z m -1.256142,-0.07607 c -0.0049,-0.0049 -0.148175,-0.0142 -0.318459,-0.02062 -0.170289,-0.0064 -0.401171,-0.01997 -0.513073,-0.03012 -0.111906,-0.01015 -0.354732,-0.02206 -0.539613,-0.02648 -0.184885,-0.0047 -0.343714,-0.01555 -0.352958,-0.02467 -0.01057,-0.01043 4.65e-4,-0.01666 0.02979,-0.01666 0.02565,0 0.06903,-0.0091 0.09642,-0.02025 0.08835,-0.03593 0.218641,-0.05219 0.633645,-0.07903 0.397643,-0.02569 0.545217,-0.02383 0.999609,0.01275 0.121634,0.0098 0.277373,0.02192 0.346084,0.0269 l 0.12493,0.0091 0.08997,-0.08089 c 0.04949,-0.0445 0.09406,-0.0809 0.09905,-0.0809 0.01145,0 0.01191,0.157535 4.65e-4,0.199036 -0.0097,0.03579 -0.04543,0.0398 -0.09246,0.01043 -0.02676,-0.01671 -0.04329,-0.01313 -0.08892,0.01941 -0.03081,0.02197 -0.109308,0.05105 -0.174398,0.06467 -0.140304,0.02937 -0.327787,0.04991 -0.340266,0.03733 z m -2.299985,-0.03114 c 0,-0.02588 0.1262,-0.28252 0.212632,-0.432403 0.03928,-0.06812 0.0784,-0.139769 0.08692,-0.15923 0.0531,-0.121164 0.214117,-0.234219 0.478899,-0.336248 0.0438,-0.01685 0.09554,-0.03719 0.115001,-0.04515 0.01946,-0.008 0.104659,-0.02416 0.189326,-0.03598 0.123077,-0.01722 0.191314,-0.0169 0.340345,0.0014 l 0.186403,0.02299 -0.0028,0.06973 c -0.0028,0.07377 0.01974,0.10127 0.08369,0.101749 0.01997,1.35e-4 0.04385,0.0074 0.05308,0.01611 0.03291,0.03095 0.197048,0.05916 0.423728,0.07274 0.291201,0.01745 0.58398,0.06835 0.68115,0.118418 0.02434,0.01252 0.06527,0.02285 0.09099,0.0229 0.04529,1.35e-4 0.06824,0.0276 0.06824,0.08179 0,0.02034 -0.0075,0.02169 -0.03593,0.0065 -0.04562,-0.02439 -0.215625,-0.01527 -0.224627,0.01206 -0.0042,0.01271 0.02928,0.02718 0.08707,0.0377 l 0.09386,0.01708 -0.07962,0.0023 c -0.141062,0.0042 -0.172472,0.0726 -0.03333,0.0726 h 0.07073 l -0.03179,0.0538 c -0.0175,0.0296 -0.0508,0.05858 -0.07404,0.06441 -0.02323,0.0058 -0.174585,6.6e-5 -0.336328,-0.0128 -0.537942,-0.04278 -1.4464,-0.02355 -1.636433,0.03463 -0.178048,0.0545 -0.250553,0.07225 -0.295163,0.07225 -0.02751,0 -0.05492,0.008 -0.06093,0.01769 -0.006,0.0097 -0.03049,0.01769 -0.05438,0.01769 -0.02388,0 -0.112544,0.02788 -0.197006,0.06192 -0.162385,0.06548 -0.199766,0.07356 -0.199766,0.04319 z m -0.734515,-0.01708 c -0.01089,-0.0176 0.03803,-0.08523 0.165969,-0.229528 0.03021,-0.03407 0.05504,-0.06847 0.05519,-0.07646 1.58e-4,-0.008 0.01024,-0.02481 0.02239,-0.03733 0.04908,-0.05063 0.150353,-0.16696 0.224864,-0.258307 0.203453,-0.24944 0.482939,-0.495594 0.63763,-0.561592 0.235123,-0.100311 0.662131,-0.143771 0.937684,-0.09543 0.07298,0.0128 0.198375,0.02765 0.278653,0.03305 0.08028,0.0054 0.145321,0.01476 0.144534,0.02081 -9.3e-4,0.0061 -0.01894,0.04292 -0.04035,0.08182 -0.03165,0.05752 -0.0471,0.0696 -0.08262,0.06455 -0.02402,-0.0033 -0.159136,-0.0099 -0.300235,-0.01434 -0.193646,-0.0061 -0.280389,-0.0014 -0.353844,0.01839 -0.104416,0.02844 -0.308465,0.101782 -0.364088,0.130864 -0.01866,0.0098 -0.06471,0.03258 -0.102266,0.05069 -0.03756,0.01811 -0.09727,0.06173 -0.132693,0.09695 -0.08509,0.08458 -0.07885,0.0754 -0.196797,0.289819 -0.08496,0.154449 -0.120233,0.200017 -0.164415,0.212371 -0.0506,0.01415 -0.07863,0.02616 -0.260499,0.111747 -0.08271,0.03891 -0.194172,0.0845 -0.24769,0.101308 -0.08283,0.02602 -0.141538,0.04792 -0.197816,0.07383 -0.0066,0.0033 -0.01727,-0.0028 -0.02365,-0.01317 z m -0.0074,-0.216258 c 0.04147,-0.218627 0.166923,-0.594216 0.254812,-0.762834 0.10369,-0.198928 0.219832,-0.338995 0.351543,-0.42396 0.0639,-0.04124 0.07559,-0.02858 0.05023,0.0544 -0.0545,0.178332 -0.02379,0.220796 0.09924,0.137204 0.03579,-0.02434 0.0753,-0.04422 0.08776,-0.04422 0.01247,0 0.03649,-0.007 0.05339,-0.01555 0.07925,-0.04008 0.167506,-0.07293 0.195862,-0.07293 0.01717,0 0.03882,-0.0063 0.04805,-0.01406 0.0093,-0.0077 0.06457,-0.02909 0.12296,-0.04746 0.05838,-0.01839 0.114113,-0.03882 0.123845,-0.04543 0.05558,-0.0378 0.227182,-0.07367 0.304775,-0.06375 0.246796,0.03156 0.301958,0.04482 0.535978,0.129142 0.06346,0.02285 0.148575,0.04156 0.189149,0.04156 0.04059,0 0.07869,0.008 0.0847,0.01769 0.01527,0.02467 -0.328959,0.02309 -0.392499,-0.0019 -0.09242,-0.03621 -0.408088,-0.04063 -0.598862,-0.0084 -0.304276,0.05143 -0.449965,0.09999 -0.540404,0.180101 -0.01536,0.01359 -0.03384,0.02476 -0.04105,0.02476 -0.04338,0 -0.375505,0.32431 -0.534502,0.521916 -0.04697,0.05839 -0.09454,0.114117 -0.105697,0.123845 -0.01117,0.0097 -0.05223,0.06148 -0.09126,0.115002 -0.03905,0.05352 -0.09185,0.116607 -0.117375,0.140196 -0.02551,0.0236 -0.04641,0.05345 -0.04641,0.06635 0,0.01289 -0.01089,0.02346 -0.02425,0.02346 -0.01899,0 -0.02113,-0.01638 -0.01001,-0.07519 z m 6.428097,-0.138102 c -0.03337,-0.0064 -0.04877,-0.01871 -0.04422,-0.03537 0.0037,-0.01406 0.0074,-0.05228 0.008,-0.08494 l 9.31e-4,-0.05938 0.107037,0.01466 c 0.224697,0.03081 0.56412,0.0033 0.832416,-0.06745 0.164847,-0.04347 1.260267,-0.124678 1.393393,-0.103286 0.14123,0.02267 0.156609,0.037 0.07388,0.06886 -0.04375,0.01685 -0.168156,0.03128 -0.334973,0.03896 -0.234369,0.01075 -0.369468,0.02751 -0.707691,0.08785 -0.109229,0.01946 -0.262743,0.05095 -0.344994,0.07072 -0.247737,0.05955 -0.823511,0.100158 -0.983788,0.06939 z M 20.78126,70.34968 c -0.04129,-0.10862 -0.02909,-0.125051 0.110579,-0.148989 0.179663,-0.03077 0.437789,-0.08541 0.6325,-0.133853 0.190132,-0.0473 0.334857,-0.06215 0.605783,-0.06215 0.400478,0 0.432585,-0.01252 0.376418,-0.146965 -0.03649,-0.08731 -0.03589,-0.08844 0.03952,-0.07565 0.19115,0.0324 0.301274,0.04017 0.399681,0.02816 l 0.108969,-0.01331 0.07771,0.08176 c 0.08377,0.08813 0.18403,0.234587 0.203891,0.297848 l 0.01229,0.03919 -0.403484,0.007 c -0.597587,0.01038 -0.938499,0.04208 -1.385406,0.128849 -0.0878,0.01704 -0.277373,0.0324 -0.455574,0.03691 l -0.305198,0.0077 z m -2.749955,-0.04617 c -0.048,-0.01936 -0.139563,-0.04259 -0.203457,-0.05166 -0.0639,-0.0091 -0.152005,-0.02448 -0.195791,-0.0343 -0.0438,-0.0098 -0.198296,-0.02635 -0.343356,-0.03673 -0.184844,-0.01322 -0.281609,-0.02802 -0.323472,-0.04951 l -0.05974,-0.03063 0.228098,-0.03221 c 0.125451,-0.01773 0.251112,-0.02718 0.279244,-0.02104 0.02811,0.0061 0.170568,0.02127 0.316527,0.03356 0.278038,0.02346 0.787904,0.01103 1.017301,-0.02476 0.06325,-0.0099 0.246364,-0.02062 0.406924,-0.02393 0.160556,-0.0033 0.323765,-0.01089 0.362687,-0.01694 0.03891,-0.0061 0.05883,-0.0057 0.04422,9.31e-4 -0.01462,0.0065 -0.05042,0.02984 -0.07962,0.05188 -0.07039,0.05321 -0.261938,0.09591 -0.430132,0.09589 -0.180496,-1.3e-5 -0.409326,0.04119 -0.693322,0.124809 -0.181711,0.05351 -0.225213,0.05548 -0.32613,0.0148 z m 5.359778,-0.209988 c -0.02444,-0.03873 -0.04445,-0.07695 -0.04445,-0.08495 0,-0.008 0.102155,-0.0141 0.22701,-0.01364 0.131078,4.65e-4 0.245093,-0.0074 0.269804,-0.01876 0.128099,-0.05886 0.180873,-0.07816 0.189656,-0.06938 0.02579,0.02579 -0.173896,0.141649 -0.353871,0.205291 -0.200315,0.07084 -0.233023,0.06873 -0.288147,-0.01862 z m -2.963662,0.01424 c -0.0438,-0.009 -0.19243,-0.02197 -0.330318,-0.02877 -0.137888,-0.0068 -0.257079,-0.01876 -0.264871,-0.02658 -0.02704,-0.02714 0.0384,-0.04823 0.135193,-0.04357 0.179184,0.0087 1.21071,-0.02355 1.30922,-0.04087 0.09115,-0.01606 0.227996,-0.0491 0.371539,-0.08976 0.08743,-0.02476 0.450948,-0.0082 0.557301,0.02541 l 0.08846,0.02793 -0.265383,0.0019 c -0.145959,9.31e-4 -0.301208,0.0097 -0.344994,0.01918 -0.0438,0.0094 -0.119423,0.02453 -0.168078,0.03342 -0.04866,0.0089 -0.140211,0.02881 -0.203462,0.04413 -0.06325,0.01536 -0.154803,0.03542 -0.203457,0.04454 -0.04866,0.0091 -0.116273,0.025 -0.15027,0.03519 -0.07404,0.02225 -0.419017,0.02076 -0.530881,-0.0023 z m -3.527938,-0.155168 c 0.01406,-0.04078 0.05514,-0.128398 0.09132,-0.194726 0.04971,-0.09114 0.07925,-0.125469 0.120932,-0.140541 0.05922,-0.02141 0.304309,-0.0503 0.568969,-0.06706 l 0.163652,-0.01038 v 0.06489 c 0,0.04324 0.0094,0.06853 0.02839,0.07579 0.02737,0.01047 0.263334,-0.01145 0.502371,-0.04673 0.253076,-0.03733 0.474653,-0.05375 0.583841,-0.04319 0.15632,0.01508 0.390908,0.07785 0.432576,0.115728 0.0093,0.0084 0.02928,0.01527 0.04454,0.01527 0.01527,0 0.05546,0.01866 0.08935,0.04147 0.03389,0.02281 0.08549,0.04768 0.114681,0.05526 0.03482,0.009 0.04394,0.01704 0.02653,0.02318 -0.01462,0.0052 -0.05356,0.02988 -0.08659,0.05494 -0.05711,0.04329 -0.0753,0.04622 -0.371535,0.05996 -0.538296,0.02495 -0.892343,0.04585 -0.978598,0.05783 -0.08082,0.01122 -0.08358,0.01005 -0.09399,-0.03882 -0.0059,-0.0277 -0.01573,-0.07028 -0.02188,-0.09461 -0.01089,-0.0431 -0.01131,-0.04292 -0.01704,0.0088 -0.01578,0.143404 -0.0081,0.137781 -0.169432,0.123682 -0.201181,-0.01759 -0.870434,-0.0182 -0.970941,-9.31e-4 l -0.08271,0.01424 0.02555,-0.07412 z m 2.696403,0.01959 c 0,-0.01289 0.0756,-0.05591 0.09829,-0.05591 0.0047,0 -0.0019,0.01592 -0.01392,0.03538 -0.02164,0.03463 -0.08436,0.0499 -0.08436,0.02053 z m 0.217165,-0.03524 c -0.01448,-0.0089 -0.01694,-0.0303 -0.0075,-0.06564 0.01159,-0.04343 0.02583,-0.05447 0.0835,-0.06468 0.250595,-0.0444 0.326996,-0.06831 0.450562,-0.140998 0.103955,-0.06115 0.247038,-0.214307 0.247038,-0.264432 0,-0.03775 9.31e-4,-0.03798 0.03537,-0.0068 0.01946,0.0176 0.03538,0.04245 0.03538,0.05522 0,0.01275 0.0134,0.05133 0.02984,0.08572 0.03915,0.08212 0.07374,0.08077 0.257125,-0.01001 0.234215,-0.115956 0.344827,-0.156781 0.425915,-0.157205 0.08018,-4e-4 0.312412,-0.05255 0.449849,-0.100981 0.101298,-0.0357 0.151568,-0.04347 0.243077,-0.03766 0.181991,0.01159 0.215201,0.05078 0.274636,0.324151 0.02918,0.134341 0.05468,0.225842 0.07176,0.257754 0.02453,0.04585 0.0042,0.04998 -0.115653,0.02346 -0.153881,-0.03407 -0.495189,-0.04923 -0.610377,-0.02709 -0.05352,0.01029 -0.137115,0.0263 -0.18577,0.03556 -0.04865,0.0093 -0.109937,0.02518 -0.136184,0.03533 -0.02625,0.01015 -0.192138,0.02257 -0.36864,0.02765 -0.176503,0.0051 -0.358042,0.01331 -0.403424,0.01829 -0.148757,0.01634 -0.754516,0.02602 -0.776495,0.01247 z m 3.639729,-0.02071 c -0.02434,-0.0078 -0.07265,-0.01494 -0.107386,-0.01592 -0.06861,-0.0019 -0.175688,-0.0807 -0.175688,-0.129258 0,-0.02486 0.08644,-0.09277 0.194613,-0.152895 0.196173,-0.109034 0.289167,-0.136305 0.557305,-0.163446 0.216481,-0.02192 0.40968,-0.05985 0.442197,-0.08684 0.02327,-0.01932 0.02811,-0.04946 0.02355,-0.146313 l -0.0057,-0.121997 0.08846,0.0089 c 0.203685,0.02048 0.305216,0.0665 0.385206,0.174627 0.0773,0.104496 0.07808,0.102736 -0.04357,0.09938 -0.129901,-0.0037 -0.290406,0.04119 -0.352442,0.0983 -0.02323,0.02141 -0.09004,0.0744 -0.148426,0.117775 -0.05838,0.04338 -0.148319,0.112744 -0.199855,0.154156 -0.105199,0.08454 -0.180017,0.120755 -0.322066,0.155906 -0.106349,0.0263 -0.266486,0.02998 -0.336151,0.0076 z m 0.601533,-0.03538 c 0,-0.0097 0.01243,-0.01769 0.0276,-0.01769 0.01517,0 0.02267,0.008 0.01666,0.01769 -0.006,0.0097 -0.01843,0.01769 -0.0276,0.01769 -0.0092,0 -0.01666,-0.008 -0.01666,-0.01769 z m 0.08439,-0.07076 c 0.0209,-0.01946 0.04287,-0.03538 0.04883,-0.03538 0.006,0 0.02281,-0.01192 0.03738,-0.02653 0.03044,-0.03044 0.0594,-0.03477 0.0594,-0.0088 0,0.0097 -0.0083,0.01769 -0.01848,0.01769 -0.01015,0 -0.03994,0.01992 -0.06617,0.04422 -0.02625,0.02434 -0.05923,0.04422 -0.07333,0.04422 -0.01825,0 -0.01471,-0.01019 0.01234,-0.03538 z m -4.45468,-0.08876 c -0.03426,-0.0083 -0.101908,-0.03244 -0.150385,-0.05357 -0.288125,-0.125642 -0.586192,-0.187534 -0.760437,-0.157898 -0.09731,0.01657 -0.245647,0.02002 -0.203462,0.0047 0.01462,-0.0053 0.05042,-0.01987 0.07962,-0.0324 0.116081,-0.04989 0.276479,-0.06482 0.468909,-0.04366 0.101457,0.01117 0.190658,0.02411 0.198226,0.02881 0.0155,0.0096 0.149608,0.04812 0.299859,0.08619 0.162273,0.0411 0.508627,0.05458 0.582058,0.02262 0.192324,-0.08368 0.251372,-0.09168 0.157256,-0.02132 -0.09461,0.07074 -0.155804,0.0984 -0.290373,0.131218 -0.167082,0.04077 -0.305826,0.05357 -0.381268,0.03524 z m 2.928379,-0.0161 c -0.08368,-0.02011 -0.158331,-0.06109 -0.163884,-0.08993 -0.0042,-0.02262 0.03807,-0.02644 0.293343,-0.02639 0.214074,1.8e-5 0.312976,-0.0067 0.349873,-0.02397 0.0283,-0.01317 0.0793,-0.03598 0.113358,-0.05061 0.03407,-0.01466 0.07575,-0.0337 0.09265,-0.04236 0.0169,-0.0087 0.05272,-0.01597 0.07961,-0.01629 0.0269,-3.3e-4 0.06435,-0.01224 0.08324,-0.02653 0.039,-0.02951 0.116039,-0.035 0.116039,-0.0083 0,0.0097 -0.01606,0.01769 -0.03575,0.01769 -0.01964,0 -0.06727,0.01992 -0.105804,0.04422 -0.03854,0.02434 -0.0733,0.04422 -0.07725,0.04422 -0.0037,0 -0.05387,0.031 -0.110929,0.06888 -0.147471,0.0979 -0.244576,0.12607 -0.427246,0.123924 -0.0848,-9.31e-4 -0.178071,-0.0075 -0.207265,-0.01457 z m 1.689608,-0.0014 c 0,-0.0097 0.0084,-0.01769 0.01876,-0.01769 0.01029,0 0.01382,0.008 0.0078,0.01769 -0.006,0.0097 -0.01443,0.01769 -0.01876,0.01769 -0.0042,0 -0.0078,-0.008 -0.0078,-0.01769 z m 0.04278,-0.0507 c 0.0068,-0.01103 0.02025,-0.02006 0.02984,-0.02006 0.0096,0 0.03896,-0.02076 0.0653,-0.04608 0.08396,-0.08079 0.220144,-0.130841 0.35604,-0.130841 0.09035,0 0.131395,0.0081 0.160551,0.0317 0.03863,0.03128 0.03668,0.03216 -0.143999,0.06322 -0.100744,0.01731 -0.226959,0.04763 -0.280477,0.06735 -0.12789,0.04711 -0.203579,0.06114 -0.187236,0.03472 z m -9.193254,-0.02211 c -0.0189,-0.05665 0.09758,-0.432683 0.182302,-0.588607 0.07838,-0.144265 0.283996,-0.343152 0.438915,-0.424561 0.148017,-0.07778 0.347057,-0.15247 0.40631,-0.15247 0.03975,0 0.04161,0.0047 0.03296,0.08404 -0.0051,0.04622 -0.02341,0.159672 -0.04078,0.252112 -0.04622,0.246164 -0.04482,0.273007 0.01489,0.279868 0.027,0.0033 0.117315,-0.01117 0.200721,-0.0317 0.17162,-0.04226 0.635353,-0.08796 0.900196,-0.08873 0.09731,-2.66e-4 0.276441,-0.01233 0.398076,-0.02676 0.310271,-0.03682 0.336211,-0.03579 0.335885,0.01327 -3.49e-4,0.05142 -0.0384,0.160337 -0.06879,0.196983 -0.01308,0.01573 -0.03738,0.02858 -0.054,0.02858 -0.01666,0 -0.03621,0.006 -0.04343,0.01327 -0.04841,0.04874 -0.7488,0.104105 -0.965202,0.0763 -0.123501,-0.01587 -0.291783,-0.05193 -0.35443,-0.07594 -0.09271,-0.03556 -0.205217,-0.05211 -0.287203,-0.04231 -0.05125,0.0061 -0.129007,0.01555 -0.172798,0.0209 -0.0438,0.0054 -0.09554,0.01666 -0.114996,0.02509 -0.01946,0.0084 -0.05927,0.02048 -0.08846,0.02681 -0.120447,0.02607 -0.45926,0.221466 -0.625835,0.360932 -0.05011,0.04194 -0.09044,0.06457 -0.09433,0.0529 z m 2.763611,-0.05017 c 0,-0.03752 0.05119,-0.209788 0.08444,-0.284178 0.06609,-0.147825 0.09248,-0.230282 0.09248,-0.288958 0,-0.0612 0.05891,-0.135495 0.107293,-0.135328 0.02607,6.6e-5 0.174557,-0.04585 0.237706,-0.07351 0.01946,-0.0085 0.09111,-0.02332 0.159229,-0.03281 0.06812,-0.0095 0.166556,-0.025 0.218762,-0.0344 l 0.09491,-0.01708 0.104608,0.09208 c 0.09169,0.08071 0.121471,0.09584 0.241234,0.122546 0.203737,0.04543 0.536424,0.04119 1.111626,-0.0141 0.07936,-0.0076 0.129869,-0.0054 0.136888,0.0059 0.0061,0.0099 0.0161,0.09655 0.0222,0.192547 0.01057,0.166495 0.0092,0.176675 -0.03072,0.220666 -0.04338,0.04784 -0.09798,0.08038 -0.218757,0.130417 -0.03891,0.0161 -0.08814,0.03779 -0.109365,0.04816 -0.06558,0.03202 -0.50697,-0.0135 -0.677934,-0.06993 -0.182851,-0.06032 -0.323862,-0.09284 -0.402614,-0.09284 -0.07202,0 -0.11037,-0.02244 -0.07536,-0.04403 0.02327,-0.01438 0.02355,-0.150562 2.84e-4,-0.150562 -0.0097,0 -0.01769,0.01178 -0.01769,0.02616 0,0.01438 -0.0128,0.05819 -0.02844,0.09731 -0.02495,0.06236 -0.03547,0.07113 -0.08525,0.07113 -0.05349,0 -0.206008,0.0371 -0.284363,0.06915 -0.08168,0.03342 -0.217752,0.07004 -0.293618,0.07903 -0.04473,0.0053 -0.143264,0.02984 -0.218985,0.05457 -0.15268,0.04984 -0.168548,0.05249 -0.168548,0.02811 z m -2.547675,-0.01219 c 0,-0.0085 0.02407,-0.02607 0.05347,-0.0391 0.02942,-0.01303 0.06358,-0.03286 0.07594,-0.04413 0.05214,-0.04747 0.292518,-0.170842 0.332874,-0.170842 0.01434,0 0.03361,-0.0067 0.04282,-0.01485 0.0093,-0.0081 0.08081,-0.02895 0.159039,-0.04627 0.165071,-0.03649 0.367285,-0.03007 0.521227,0.01657 0.220256,0.06673 0.332641,0.08498 0.52308,0.08492 0.209955,-7e-5 0.589762,-0.03393 0.662294,-0.05903 0.02434,-0.0084 0.07496,-0.02067 0.112507,-0.02723 0.06555,-0.0114 0.0678,-0.01019 0.05632,0.03025 -0.02639,0.09302 -0.04962,0.137455 -0.07756,0.148482 -0.01615,0.0064 -0.160705,0.02267 -0.321261,0.03621 -0.160556,0.01354 -0.331729,0.03458 -0.380383,0.04667 -0.153449,0.03817 -0.29998,0.02769 -0.504224,-0.03617 -0.102173,-0.03193 -0.217361,-0.06737 -0.255971,-0.07871 -0.09057,-0.02662 -0.468388,-0.02756 -0.52422,-0.0014 -0.03915,0.01843 -0.151745,0.06328 -0.237111,0.09447 -0.189,0.06906 -0.238846,0.08158 -0.238846,0.05999 z m 7.131599,-0.06557 c -0.04287,-0.01173 -0.08344,-0.03305 -0.09014,-0.0474 -0.0067,-0.01434 -0.02136,-0.04389 -0.03258,-0.06566 -0.03147,-0.0609 -0.02504,-0.07543 0.03347,-0.07543 0.03421,0 0.06833,0.01555 0.09335,0.04254 0.06443,0.06952 0.09019,0.06262 0.200767,-0.0538 0.106549,-0.11218 0.251098,-0.219371 0.359401,-0.266518 0.136454,-0.05941 0.347503,-0.129151 0.390805,-0.129151 0.02523,0 0.05182,-0.006 0.0591,-0.01327 0.0073,-0.0073 0.0544,-0.02351 0.104682,-0.03607 0.05028,-0.01252 0.123268,-0.03109 0.16219,-0.04119 0.115322,-0.03002 0.231813,-0.0051 0.343808,0.07343 0.105124,0.07374 0.142649,0.131772 0.176628,0.273146 0.01899,0.07894 0.01787,0.09038 -0.0108,0.111422 -0.01755,0.01289 -0.04787,0.01922 -0.06733,0.01401 -0.01946,-0.0052 -0.107037,-0.01443 -0.194614,-0.02053 -0.151717,-0.01057 -0.348206,0.01447 -0.486536,0.06196 -0.02434,0.0083 -0.092,0.02932 -0.150381,0.04657 -0.05839,0.01727 -0.14198,0.04722 -0.18577,0.06656 -0.0438,0.01936 -0.10748,0.04333 -0.141537,0.05332 -0.09197,0.027 -0.472983,0.03105 -0.564502,0.006 z m -1.778012,-0.104459 c -0.03877,-0.08877 -0.07097,-0.177443 -0.114461,-0.315294 -0.01099,-0.03477 -0.01992,-0.09456 -0.01992,-0.132912 v -0.06973 l 0.119423,-0.03291 c 0.06568,-0.01811 0.153537,-0.04385 0.195233,-0.05728 0.04171,-0.0134 0.08758,-0.02439 0.101968,-0.02439 0.01438,0 0.03998,-0.0078 0.05688,-0.01722 0.0169,-0.0095 0.09441,-0.03835 0.172258,-0.0642 0.161733,-0.05366 0.279667,-0.114243 0.348159,-0.178844 l 0.04739,-0.04469 0.04991,0.03538 c 0.07738,0.05486 0.325571,0.181125 0.356016,0.181125 0.01499,0 0.04036,-0.01187 0.05636,-0.02634 0.01601,-0.01448 0.05371,-0.03123 0.0838,-0.03728 0.05974,-0.01196 0.08502,0.0162 0.112288,0.125101 0.0074,0.02942 0.03002,0.09717 0.05031,0.150549 0.04198,0.110379 0.05122,0.245912 0.0148,0.217063 -0.01215,-0.0096 -0.06458,-0.03137 -0.116481,-0.04831 -0.108303,-0.03533 -0.253257,-0.0297 -0.454094,0.01769 -0.06811,0.01606 -0.152685,0.03323 -0.187934,0.03817 l -0.06409,0.0089 -0.0122,-0.08126 c -0.0073,-0.04879 -0.02141,-0.08126 -0.03528,-0.08126 -0.01727,0 -0.01983,0.01773 -0.01024,0.07028 0.0071,0.03868 0.0087,0.07448 0.0037,0.07962 -0.02518,0.02518 -0.03887,0.0023 -0.03938,-0.06586 -4.65e-4,-0.07096 -0.0019,-0.0732 -0.02732,-0.0398 -0.01475,0.0195 -0.02244,0.05268 -0.01713,0.07391 0.01112,0.0445 -0.03007,0.09416 -0.07808,0.09416 -0.01764,0 -0.05092,0.0101 -0.07393,0.02248 -0.04631,0.0249 -0.196001,0.12236 -0.209904,0.136683 -0.04096,0.04217 -0.216705,0.159294 -0.239061,0.159294 -0.01717,0 -0.04422,-0.03654 -0.06885,-0.09288 z m 2.899818,-0.01327 c -0.0069,-0.01117 0.0303,-0.0169 0.100684,-0.01559 0.08852,0.0019 0.100637,0.0049 0.05855,0.01559 -0.0787,0.02002 -0.146853,0.02002 -0.15923,0 z m 1.41095,-0.02583 c -0.0316,-0.01406 -0.0575,-0.0384 -0.0575,-0.0541 0,-0.01569 -0.04194,-0.07049 -0.09322,-0.121765 -0.07066,-0.07066 -0.116691,-0.100097 -0.190192,-0.121625 -0.103323,-0.03025 -0.20517,-0.04999 -0.291583,-0.05648 -0.03901,-0.0028 -0.05308,-0.01294 -0.05308,-0.03766 0,-0.05456 0.136604,-0.04115 0.459996,0.0451 0.07785,0.02076 0.167613,0.04982 0.199483,0.06455 0.03188,0.01476 0.08017,0.03626 0.107326,0.04787 0.07058,0.03011 0.338957,0.195749 0.338957,0.209187 0,0.01029 -0.05131,0.01792 -0.283074,0.04212 -0.04847,0.0051 -0.102108,-0.0019 -0.137116,-0.01722 z m -3.825935,-0.05923 c 0,-0.02793 0.135411,-0.06933 0.327307,-0.100107 0.107037,-0.01717 0.208023,-0.03826 0.224412,-0.04687 0.01638,-0.0086 0.0617,-0.01564 0.100684,-0.01564 0.039,0 0.07581,-0.008 0.08182,-0.01769 0.02169,-0.03505 0.311817,-0.0042 0.344999,0.03687 0.0049,0.006 0.03272,0.01946 0.06192,0.02984 l 0.05308,0.01894 -0.0575,0.0014 c -0.0316,9.3e-4 -0.0575,-0.0047 -0.0575,-0.01229 0,-0.02555 -0.258428,-0.05659 -0.32127,-0.03854 -0.0324,0.0093 -0.08481,0.0169 -0.116496,0.0169 -0.0317,0 -0.05762,0.008 -0.05762,0.01769 0,0.0097 -0.01792,0.01797 -0.0398,0.01829 -0.02188,3.35e-4 -0.05971,0.01201 -0.08404,0.02593 -0.02434,0.01392 -0.0721,0.02555 -0.106157,0.02593 -0.03407,3.35e-4 -0.117655,0.01243 -0.18577,0.02686 -0.14318,0.03035 -0.168069,0.03216 -0.168069,0.01257 z m 1.348145,-0.02462 c -0.01168,-0.01168 -0.02123,-0.0351 -0.02123,-0.05203 0,-0.01694 -0.0077,-0.03561 -0.01722,-0.04143 -0.01662,-0.01024 -0.04343,-0.09208 -0.0726,-0.221447 -0.0077,-0.03407 -0.03407,-0.117655 -0.05863,-0.18577 -0.06961,-0.192994 -0.07594,-0.180822 0.128179,-0.246508 0.0521,-0.01676 0.146289,-0.06578 0.209294,-0.108918 0.161254,-0.110398 0.242705,-0.142566 0.394813,-0.155924 0.07298,-0.0064 0.184443,-0.02365 0.24769,-0.03826 0.06325,-0.01462 0.134904,-0.03091 0.159229,-0.03617 0.02434,-0.0053 0.06016,-0.01657 0.07962,-0.02513 0.113698,-0.05002 0.162544,-0.06345 0.186012,-0.05115 0.06244,0.03272 0.21616,0.06938 0.290974,0.06938 0.07051,0 0.09204,0.0098 0.164749,0.07519 0.142641,0.128225 0.213591,0.216523 0.191635,0.238479 -0.0065,0.0065 -0.06927,9.31e-4 -0.139508,-0.01224 -0.142929,-0.0269 -0.161696,-0.02746 -0.348867,-0.01085 -0.138917,0.01238 -0.306166,0.05076 -0.400747,0.092 -0.03067,0.01336 -0.06801,0.0243 -0.08299,0.0243 -0.01499,0 -0.03216,0.008 -0.03817,0.01769 -0.006,0.0097 -0.02616,0.01769 -0.04478,0.01769 -0.04999,0 -0.225516,0.08614 -0.326744,0.160356 -0.104505,0.07662 -0.228266,0.207214 -0.362691,0.382734 -0.05352,0.06988 -0.101685,0.127536 -0.107038,0.128132 -0.0054,4.66e-4 -0.01927,-0.0085 -0.03095,-0.02015 z m 2.831219,-0.07447 c -0.0967,-0.06745 -0.231096,-0.140187 -0.349007,-0.18887 -0.131427,-0.05427 -0.176847,-0.0693 -0.210043,-0.06953 -0.02071,-1.35e-4 -0.06949,-0.01131 -0.108415,-0.02481 -0.03891,-0.0135 -0.116547,-0.03021 -0.1725,-0.03714 -0.05595,-0.0069 -0.101726,-0.01918 -0.101726,-0.02723 0,-0.0081 0.01517,-0.04096 0.03365,-0.07315 0.01853,-0.03216 0.03924,-0.08523 0.04603,-0.117878 l 0.01238,-0.05936 0.117608,0.01131 c 0.328042,0.03151 0.29512,0.01922 0.45225,0.168599 0.07867,0.07478 0.173086,0.162729 0.209811,0.195433 0.08109,0.07222 0.19433,0.238716 0.186566,0.274286 -0.0042,0.01894 -0.03528,0.0052 -0.116635,-0.05159 z m -9.145604,-0.306799 c 0.01787,-0.173086 0.05005,-0.364763 0.06634,-0.395208 0.0093,-0.01732 0.01685,-0.0549 0.01685,-0.0835 0,-0.06999 0.0582,-0.298863 0.09653,-0.379649 0.09689,-0.204183 0.440419,-0.355458 0.784231,-0.345343 l 0.171923,0.0051 0.01387,0.212306 c 0.01871,0.28651 0.02793,0.352554 0.05412,0.388408 0.02085,0.02853 0.02956,0.02756 0.135016,-0.01531 0.06199,-0.02518 0.119815,-0.0458 0.128491,-0.0458 0.0087,0 0.06105,-0.02057 0.11637,-0.04575 0.286788,-0.130449 0.327479,-0.14001 0.59598,-0.14001 0.217575,0 0.258572,0.0067 0.389227,0.06309 0.01946,0.0084 0.06325,0.02202 0.0973,0.03025 l 0.06192,0.01494 0.0052,0.118357 0.0052,0.118357 h -0.125819 c -0.0692,0 -0.142296,-0.0088 -0.162441,-0.0196 -0.02649,-0.0142 -0.0641,-0.01434 -0.135952,-4.65e-4 -0.224729,0.04292 -0.4286,0.07332 -0.612401,0.09138 -0.187246,0.01839 -0.318128,0.04082 -0.583841,0.100051 -0.183289,0.04087 -0.261128,0.06739 -0.464902,0.158568 -0.05135,0.02299 -0.09962,0.04175 -0.107252,0.04175 -0.0076,0 -0.04922,0.01759 -0.0924,0.03905 -0.04319,0.02146 -0.102396,0.04838 -0.13159,0.05978 -0.154091,0.06017 -0.302372,0.11347 -0.315666,0.11347 -0.0083,0 -0.01117,-0.03779 -0.0064,-0.08403 z m 6.778891,0.0037 c 0.08033,-0.07197 0.154598,-0.115155 0.33078,-0.192333 0.03552,-0.01555 0.0761,-0.0283 0.09016,-0.0283 0.01406,0 0.04869,-0.01145 0.07694,-0.02541 0.162218,-0.08031 0.566707,-0.136078 0.714831,-0.09856 0.0438,0.01108 0.109783,0.02658 0.146662,0.03444 0.03686,0.0079 0.07173,0.01894 0.07746,0.02467 0.03193,0.03193 -0.132461,0.259466 -0.187441,0.259466 -0.0075,0 -0.04785,-0.02476 -0.08961,-0.055 -0.150661,-0.109136 -0.310844,-0.128541 -0.522065,-0.06324 -0.04866,0.01503 -0.152155,0.04417 -0.229998,0.06475 -0.157531,0.04161 -0.380156,0.120764 -0.406036,0.144344 -0.0093,0.0084 -0.03314,0.01494 -0.05308,0.01452 -0.02918,-4.65e-4 -0.01918,-0.0161 0.05139,-0.07934 z m -6.304335,-0.007 c -0.009,-0.0056 0.04851,-0.03663 0.127848,-0.06899 0.07934,-0.03235 0.158075,-0.0662 0.174971,-0.0752 0.0169,-0.009 0.04515,-0.01634 0.06281,-0.01634 0.01764,0 0.03966,-0.0069 0.04889,-0.01541 0.03621,-0.03323 0.350534,-0.108429 0.453187,-0.108429 0.02984,0 0.09115,-0.01159 0.136245,-0.02574 0.0451,-0.01415 0.161603,-0.03454 0.258912,-0.04534 0.302721,-0.03356 0.402777,-0.04655 0.530765,-0.06887 0.169613,-0.0296 0.421758,0.0068 0.429815,0.062 0.0096,0.06599 -0.09339,0.117552 -0.279435,0.139857 -0.117719,0.0141 -0.196973,0.03296 -0.372247,0.08852 -0.130543,0.04138 -0.351748,0.0687 -0.91928,0.113531 -0.29687,0.02346 -0.630685,0.03388 -0.652482,0.02039 z m 2.718042,-0.02276 c -0.07541,-0.01001 -0.13711,-0.02504 -0.13711,-0.03351 0,-0.0276 0.23758,-0.165378 0.372126,-0.215769 0.126801,-0.04749 0.590353,-0.03025 0.6957,0.02588 0.02509,0.01336 0.04203,0.0088 0.07191,-0.01922 0.0215,-0.0202 0.0483,-0.03672 0.05956,-0.03672 0.01126,0 0.06251,-0.01871 0.113857,-0.04152 0.05135,-0.02285 0.121233,-0.05036 0.155291,-0.06113 0.113237,-0.03579 0.484125,-0.09347 0.663458,-0.103142 l 0.176921,-0.0095 -0.06088,0.05477 c -0.06757,0.06079 -0.232739,0.143501 -0.354886,0.177703 -0.0438,0.01224 -0.09554,0.02918 -0.114996,0.03756 -0.06811,0.02942 -0.297928,0.09486 -0.486536,0.138582 -0.15505,0.03593 -0.310872,0.05751 -0.538855,0.07458 -0.383846,0.02877 -0.472577,0.03039 -0.615562,0.01145 z m -0.373178,-0.139033 -0.08182,-0.07202 0.02625,-0.06283 c 0.01443,-0.03454 0.02625,-0.07619 0.02625,-0.09252 0,-0.01634 0.01,-0.03966 0.02211,-0.05182 0.01327,-0.01331 0.02211,-0.06942 0.02211,-0.140527 v -0.11839 l 0.07077,-0.01187 c 0.09869,-0.01657 0.216653,-0.04773 0.252712,-0.06673 0.09384,-0.04945 0.400078,-0.1074 0.567495,-0.1074 0.13752,0 0.196973,-0.02118 0.265531,-0.09457 l 0.04189,-0.04487 0.06574,0.08298 c 0.109197,0.137837 0.09665,0.13369 0.368487,0.121835 0.133508,-0.0058 0.314395,-0.02276 0.401971,-0.0377 0.197639,-0.03365 0.457455,-0.03663 0.481971,-0.0056 0.0096,0.01215 0.02192,0.0679 0.02742,0.123859 0.01387,0.141649 -0.0028,0.154793 -0.196224,0.154793 -0.137381,0 -0.226507,0.01234 -0.525482,0.07276 -0.09001,0.0182 -0.205095,0.05429 -0.300766,0.09433 -0.169861,0.07109 -0.171229,0.07135 -0.196988,0.03612 -0.01331,-0.0182 -0.02416,-0.0465 -0.02416,-0.06288 0,-0.01643 -0.01327,-0.04077 -0.02946,-0.05412 -0.02672,-0.02202 -0.02816,-0.01932 -0.01559,0.02881 0.02765,0.105869 0.02723,0.106353 -0.08761,0.103761 -0.05838,-0.0014 -0.178704,-0.0083 -0.267384,-0.01559 -0.140704,-0.0115 -0.1766,-0.0082 -0.281934,0.02579 -0.133471,0.0431 -0.274645,0.116221 -0.399584,0.206902 -0.0451,0.03272 -0.09771,0.0595 -0.116928,0.0595 -0.01922,0 -0.07176,-0.0324 -0.116766,-0.07202 z m 2.788457,-0.234634 c -0.07038,-0.04026 -0.131456,-0.08228 -0.135715,-0.09338 -0.0042,-0.01108 0.0037,-0.04189 0.01732,-0.06845 0.01378,-0.02653 0.01969,-0.0569 0.01322,-0.06744 -0.0065,-0.01052 -0.02155,-0.06093 -0.03342,-0.11198 -0.02332,-0.100316 -0.01573,-0.112861 0.06814,-0.112861 0.03207,0 0.156083,-0.04268 0.437314,-0.150534 0.03407,-0.01308 0.121635,-0.04473 0.194614,-0.07035 0.195307,-0.0686 0.406482,-0.178002 0.482887,-0.250167 0.0603,-0.05696 0.07379,-0.06215 0.132689,-0.05109 0.125921,0.02365 0.398234,0.02988 0.435862,0.01 0.02015,-0.01066 0.09175,-0.02118 0.159108,-0.02341 l 0.122482,-0.0042 0.05131,0.07226 c 0.07014,0.09878 0.0828,0.199362 0.031,0.246257 -0.03296,0.02979 -0.07203,0.03663 -0.253862,0.04436 -0.118208,0.005 -0.224478,0.01522 -0.236152,0.02267 -0.02742,0.01745 -0.06245,-0.04659 -0.0553,-0.101116 0.0055,-0.04189 -0.03402,-0.134034 -0.0575,-0.134034 -0.0072,0 -0.0089,0.01592 -0.0037,0.03537 0.0051,0.01946 0.01629,0.03538 0.0249,0.03538 0.0086,0 0.01559,0.0378 0.01555,0.08403 -6.5e-5,0.08383 -2.65e-4,0.08412 -0.08403,0.116872 -0.189666,0.07416 -0.522721,0.232512 -0.558171,0.265378 -0.01201,0.01112 -0.04955,0.03547 -0.08343,0.05407 -0.03389,0.01862 -0.141654,0.09025 -0.239498,0.15923 -0.216206,0.152405 -0.246396,0.170116 -0.286281,0.16791 -0.01718,-9.31e-4 -0.08879,-0.03468 -0.159174,-0.07493 z m 2.994107,0.04778 c -0.311445,-0.02755 -0.290369,-0.0216 -0.318827,-0.08973 -0.01438,-0.03444 -0.09128,-0.129337 -0.170847,-0.210858 -0.14177,-0.145247 -0.143595,-0.148221 -0.09084,-0.148221 0.04548,0 0.06321,-0.01443 0.114229,-0.09288 0.0425,-0.06538 0.07006,-0.0912 0.09305,-0.08718 0.01797,0.0033 0.0851,0.06138 0.149218,0.129417 0.08902,0.09447 0.148091,0.1388 0.249915,0.187534 0.07334,0.0351 0.162943,0.08324 0.199119,0.106977 0.06355,0.0417 0.06491,0.04473 0.04017,0.08984 -0.05989,0.109151 -0.106036,0.12918 -0.265177,0.115104 z m -2.449137,-0.131958 c 0.05284,-0.0398 0.111999,-0.07973 0.13146,-0.08872 0.01946,-0.009 0.05927,-0.03198 0.08846,-0.05111 0.09265,-0.06069 0.43825,-0.23037 0.548462,-0.269278 0.05838,-0.02062 0.173825,-0.04375 0.256534,-0.05143 0.391261,-0.03631 0.406919,-0.037 0.406919,-0.01876 0,0.03039 -0.09602,0.08943 -0.223542,0.137436 -0.153183,0.05766 -0.240801,0.07621 -0.449379,0.09519 -0.186859,0.01699 -0.278266,0.05192 -0.482975,0.184531 -0.121891,0.07896 -0.259132,0.1345 -0.332344,0.1345 -0.03193,0 -0.0209,-0.01415 0.05641,-0.07238 z m 2.55529,-0.217807 c -0.141365,-0.07177 -0.200032,-0.114159 -0.291919,-0.210942 -0.06325,-0.06662 -0.135723,-0.131982 -0.161049,-0.145257 -0.04301,-0.02253 -0.04972,-0.02034 -0.101731,0.03333 -0.03063,0.0316 -0.05568,0.06564 -0.05568,0.07564 0,0.01001 -0.02015,0.0371 -0.04473,0.06022 l -0.04473,0.04203 -0.112967,-0.03012 c -0.06213,-0.01657 -0.14245,-0.03012 -0.178476,-0.03012 -0.06298,0 -0.06498,-0.0019 -0.05183,-0.04865 0.01787,-0.06363 0.01871,-0.303522 0.0014,-0.351502 -0.01103,-0.03025 -0.0057,-0.03938 0.0276,-0.04731 0.371884,-0.08873 0.414344,-0.08832 0.505699,0.0049 0.08551,0.08724 0.166337,0.146476 0.269786,0.197728 0.08398,0.04161 0.25585,0.160337 0.300906,0.20787 0.04757,0.05019 0.08168,0.114889 0.104631,0.198523 0.03868,0.140891 0.02956,0.143283 -0.166695,0.04366 z m -7.451123,-0.03268 c -0.02197,-0.03551 -0.01489,-0.722069 0.0082,-0.802295 0.03393,-0.11765 0.110501,-0.203779 0.261822,-0.294516 0.208554,-0.12505 0.411374,-0.165085 0.613844,-0.121154 0.243543,0.05284 0.348784,0.06133 0.773023,0.06239 0.302033,9.31e-4 0.471614,0.0081 0.513072,0.02239 0.03407,0.01168 0.112581,0.03426 0.174497,0.05013 0.06192,0.01587 0.136217,0.04324 0.165113,0.06084 l 0.05253,0.03193 -0.05011,0.0169 -0.05011,0.0169 0.04254,0.01368 c 0.110235,0.03542 0.267025,0.259001 0.243175,0.346736 -0.02928,0.107675 -0.04157,0.112036 -0.352787,0.125223 -0.158056,0.0067 -0.380928,0.02514 -0.495268,0.04091 -0.199864,0.02765 -0.212501,0.02742 -0.327005,-0.0055 -0.166653,-0.04791 -0.351939,-0.0592 -0.456249,-0.02779 -0.04636,0.01396 -0.13921,0.02537 -0.20638,0.02537 -0.09388,0 -0.14541,0.01061 -0.222765,0.04594 -0.05535,0.02527 -0.128174,0.05829 -0.161831,0.07336 -0.08019,0.03589 -0.226544,0.129436 -0.384759,0.245922 -0.08845,0.06512 -0.131511,0.08738 -0.140602,0.07267 z m 0.223867,-0.04431 c 0,-0.01233 0.264154,-0.181455 0.307865,-0.197113 0.01071,-0.0037 0.05925,-0.02644 0.107903,-0.05024 0.119973,-0.05869 0.248598,-0.07733 0.591144,-0.08566 0.213549,-0.0052 0.297397,-0.0014 0.316891,0.0148 0.03253,0.02686 0.360913,0.02411 0.43392,-0.0037 0.02737,-0.01038 0.184099,-0.01899 0.353224,-0.01932 0.230203,-4.65e-4 0.314777,-0.0067 0.348267,-0.02593 0.09054,-0.05175 0.09676,-0.01233 0.01294,0.08206 -0.05336,0.06009 -0.06716,0.06564 -0.207544,0.0835 -0.08271,0.01052 -0.202136,0.02402 -0.265382,0.02993 -0.120378,0.01126 -0.136469,0.01527 -0.358112,0.08856 -0.149529,0.04945 -0.350687,0.06502 -0.421805,0.03263 -0.190238,-0.0866 -0.343635,-0.1163 -0.555843,-0.107624 -0.239722,0.0098 -0.327386,0.02919 -0.493258,0.10895 -0.129696,0.06238 -0.1702,0.07406 -0.1702,0.04906 z m 6.249765,-0.05196 c 0.01704,-0.0047 0.04492,-0.0047 0.06192,0 0.01703,0.0047 0.0033,0.0081 -0.03095,0.0081 -0.03407,0 -0.04799,-0.0037 -0.03095,-0.0081 z M 20.62204,67.95271 c 0.07731,-0.05939 0.322359,-0.17424 0.468849,-0.219734 0.276344,-0.08583 0.396595,-0.105567 0.504224,-0.08278 0.250804,0.0531 0.296019,0.06079 0.353848,0.06018 0.06792,-9.3e-4 0.181506,-0.0229 0.344994,-0.06745 0.05839,-0.01592 0.13402,-0.03533 0.168078,-0.04319 0.03407,-0.0078 0.08182,-0.02267 0.106153,-0.03295 0.118948,-0.05035 0.291099,-0.107936 0.299012,-0.100019 0.01154,0.01154 -0.08815,0.09278 -0.160603,0.130809 -0.03579,0.0188 -0.07956,0.04175 -0.0973,0.05099 -0.01773,0.0093 -0.06809,0.03054 -0.111874,0.04731 -0.0438,0.01676 -0.09554,0.037 -0.115001,0.04501 -0.01946,0.008 -0.09509,0.03402 -0.168073,0.0579 -0.14663,0.04794 -0.260956,0.0904 -0.351479,0.130538 -0.05082,0.02253 -0.08903,0.02337 -0.260495,0.0057 -0.203746,-0.02099 -0.528386,-0.0033 -0.665845,0.03593 -0.03175,0.0091 -0.125433,0.01638 -0.20821,0.01615 l -0.150497,-4e-4 0.04422,-0.03398 z M 20.442978,67.9199 c -0.03887,-0.01629 -0.1217,-0.117291 -0.1217,-0.14837 0,-0.01378 0.01513,-0.05644 0.03361,-0.09475 0.04324,-0.08969 0.06319,-0.249687 0.03896,-0.312938 -0.01587,-0.04147 -0.02872,-0.04865 -0.08688,-0.04865 -0.08674,0 -0.09749,-0.01168 -0.06327,-0.06883 0.03365,-0.05618 0.138274,-0.122216 0.300752,-0.189806 0.119787,-0.04983 0.12743,-0.05066 0.457972,-0.05 0.18488,4.01e-4 0.38392,0.0037 0.442303,0.0078 0.07151,0.0048 0.126359,-0.0019 0.168074,-0.02043 0.131748,-0.05871 0.16594,-0.06903 0.284214,-0.0858 0.08046,-0.0114 0.180636,-0.01126 0.293459,4.66e-4 0.201102,0.02085 0.291397,0.04464 0.38178,0.100474 0.03631,0.02244 0.07459,0.04077 0.0851,0.04077 0.04701,0 0.264674,0.241927 0.264674,0.294184 0,0.0121 -0.105915,0.05966 -0.132907,0.05966 -0.01569,0 -0.06982,0.01871 -0.120303,0.04161 -0.08892,0.04031 -0.123561,0.05144 -0.330631,0.106381 -0.05352,0.0142 -0.146257,0.03947 -0.206087,0.05618 -0.121909,0.03402 -0.303936,0.0297 -0.349728,-0.0083 -0.01764,-0.01462 -0.02802,-0.05149 -0.02802,-0.09926 0,-0.0418 -0.0051,-0.08927 -0.01131,-0.105473 -0.02118,-0.05522 -0.0398,0.01136 -0.02891,0.10336 l 0.01038,0.08756 -0.122193,-0.01154 c -0.143361,-0.01354 -0.404387,0.02732 -0.506751,0.07929 -0.0169,0.0086 -0.04222,0.01559 -0.05626,0.01559 -0.03938,0 -0.239698,0.09693 -0.383446,0.185551 -0.1287,0.07935 -0.157968,0.08834 -0.212865,0.06532 z m 4.062231,-0.428317 c -0.04858,-0.09394 -0.196438,-0.127471 -0.380109,-0.0862 -0.188833,0.0424 -0.228788,0.04543 -0.295619,0.02216 -0.03691,-0.01285 -0.112851,-0.02346 -0.168804,-0.02365 -0.05595,-1.35e-4 -0.101731,-0.0082 -0.101731,-0.01797 0,-0.0097 0.0079,-0.01769 0.01741,-0.01769 0.0096,0 0.05935,-0.02588 0.110574,-0.0575 0.09095,-0.05614 0.09817,-0.05754 0.305459,-0.0592 0.11677,-9.31e-4 0.277633,-0.0079 0.357483,-0.0155 0.140806,-0.01341 0.148789,-0.01206 0.265382,0.04394 0.06611,0.03175 0.125442,0.06587 0.131837,0.07582 0.03105,0.04828 -0.07328,0.163656 -0.158643,0.17546 -0.04974,0.0069 -0.06227,9.31e-4 -0.08326,-0.0397 z m -4.208577,-0.02746 c -0.01517,-0.03956 -0.01396,-0.04278 0.01578,-0.04278 0.01476,0 0.02653,0.01573 0.02653,0.03538 0,0.04217 -0.02718,0.04693 -0.04236,0.0074 z m 2.890891,-0.01085 c -0.148231,-0.01852 -0.194726,-0.04798 -0.194726,-0.123398 v -0.05059 l 0.06635,0.04319 c 0.03649,0.02379 0.107573,0.05646 0.157959,0.07264 0.05039,0.0162 0.09592,0.04063 0.101172,0.05435 0.0053,0.01369 0.0078,0.02388 0.0057,0.02262 -0.0023,-0.0014 -0.06353,-0.0097 -0.136445,-0.01885 z m 0.141425,-0.09576 c -0.177991,-0.06394 -0.395129,-0.185355 -0.486536,-0.272066 -0.04865,-0.04613 -0.138828,-0.110873 -0.200395,-0.143818 l -0.111938,-0.0599 0.113349,-0.106153 c 0.139419,-0.130566 0.332143,-0.220572 0.474471,-0.221587 0.03337,-2.65e-4 0.0965,-0.0088 0.140281,-0.01894 0.124637,-0.02895 0.826914,-0.02956 0.9023,-9.31e-4 0.237362,0.09067 0.420092,0.251823 0.525602,0.463529 0.07007,0.140583 0.10444,0.241662 0.08783,0.25827 -0.0069,0.0069 -0.05423,-0.01061 -0.105124,-0.03891 l -0.09254,-0.05149 -0.40515,0.0054 -0.405151,0.0054 -0.140318,0.08703 c -0.132656,0.08227 -0.237082,0.115337 -0.29668,0.09393 z m 0.698726,-0.437756 c -0.05774,-0.110943 -0.07399,-0.134946 -0.08435,-0.124585 -0.01038,0.01038 0.03863,0.131278 0.06019,0.148472 0.0061,0.0049 0.01792,0.04469 0.02625,0.08846 l 0.01517,0.07962 0.0059,-0.06812 c 0.0033,-0.03952 -0.0063,-0.0915 -0.02313,-0.123845 z"
       id="Sandbags" />
  </g>
</svg>
