<?xml version="1.0" encoding="UTF-8" standalone="no"?>
<!-- Created with Inkscape (http://www.inkscape.org/) -->

<svg
   width="8.6056213mm"
   height="7.9999995mm"
   viewBox="0 0 8.6056214 7.9999994"
   version="1.1"
   id="svg47190"
   inkscape:version="1.3.2 (091e20e, 2023-11-25, custom)"
   sodipodi:docname="SkullAndBones.svg"
   xml:space="preserve"
   xmlns:inkscape="http://www.inkscape.org/namespaces/inkscape"
   xmlns:sodipodi="http://sodipodi.sourceforge.net/DTD/sodipodi-0.dtd"
   xmlns:xlink="http://www.w3.org/1999/xlink"
   xmlns="http://www.w3.org/2000/svg"
   xmlns:svg="http://www.w3.org/2000/svg"><sodipodi:namedview
     id="namedview47192"
     pagecolor="#ffffff"
     bordercolor="#666666"
     borderopacity="1.0"
     inkscape:pageshadow="2"
     inkscape:pageopacity="0.0"
     inkscape:pagecheckerboard="0"
     inkscape:document-units="mm"
     showgrid="false"
     inkscape:zoom="14.493388"
     inkscape:cx="19.112163"
     inkscape:cy="16.524777"
     inkscape:window-width="1920"
     inkscape:window-height="1017"
     inkscape:window-x="-8"
     inkscape:window-y="-8"
     inkscape:window-maximized="1"
     inkscape:current-layer="layer1"
     inkscape:snap-bbox="true"
     inkscape:snap-bbox-midpoints="true"
     inkscape:snap-page="true"
     inkscape:showpageshadow="2"
     inkscape:deskcolor="#d1d1d1" /><defs
     id="defs47187"><linearGradient
       id="linearGradient67"
       inkscape:collect="always"><stop
         style="stop-color:#2f2f2f;stop-opacity:1;"
         offset="0.18808778"
         id="stop67" /><stop
         style="stop-color:#e4e4e4;stop-opacity:1;"
         offset="0.91222572"
         id="stop68" /></linearGradient><linearGradient
       id="linearGradient56"
       inkscape:collect="always"><stop
         style="stop-color:#1a1a1a;stop-opacity:1;"
         offset="0"
         id="stop55" /><stop
         style="stop-color:#c4c4c4;stop-opacity:1;"
         offset="1"
         id="stop56" /></linearGradient><clipPath
       clipPathUnits="userSpaceOnUse"
       id="clipPath63680-8"><path
         d="M 0,0 H 595.276 V 841.89 H 0 Z"
         id="path63678-4" /></clipPath><linearGradient
       inkscape:collect="always"
       xlink:href="#linearGradient56"
       id="linearGradient55"
       x1="289.20441"
       y1="73.831688"
       x2="289.20441"
       y2="86.530441"
       gradientUnits="userSpaceOnUse" /><linearGradient
       inkscape:collect="always"
       xlink:href="#linearGradient56"
       id="linearGradient57"
       gradientUnits="userSpaceOnUse"
       x1="303.9718"
       y1="84.468338"
       x2="304.2218"
       y2="98.443863" /><linearGradient
       inkscape:collect="always"
       xlink:href="#linearGradient67"
       id="linearGradient68"
       x1="278.70047"
       y1="121.02334"
       x2="352.60312"
       y2="39.082851"
       gradientUnits="userSpaceOnUse" /><linearGradient
       inkscape:collect="always"
       xlink:href="#linearGradient67"
       id="linearGradient69"
       gradientUnits="userSpaceOnUse"
       x1="263.12927"
       y1="120.09439"
       x2="279.7037"
       y2="68.398918" /><linearGradient
       inkscape:collect="always"
       xlink:href="#linearGradient67"
       id="linearGradient70"
       gradientUnits="userSpaceOnUse"
       x1="278.90701"
       y1="129.90442"
       x2="272.72839"
       y2="110.05496" /><linearGradient
       inkscape:collect="always"
       xlink:href="#linearGradient67"
       id="linearGradient71"
       gradientUnits="userSpaceOnUse"
       x1="278.90701"
       y1="129.90442"
       x2="272.72839"
       y2="110.05496"
       gradientTransform="matrix(-1,0,0,1,624.59937,-2.2672825)" /><linearGradient
       inkscape:collect="always"
       xlink:href="#linearGradient67"
       id="linearGradient72"
       gradientUnits="userSpaceOnUse"
       x1="263.12927"
       y1="120.09439"
       x2="279.7037"
       y2="68.398918"
       gradientTransform="matrix(-1,0,0,1,624.59937,-2.7964492)" /><linearGradient
       inkscape:collect="always"
       xlink:href="#linearGradient56"
       id="linearGradient73"
       gradientUnits="userSpaceOnUse"
       x1="289.20441"
       y1="73.831688"
       x2="289.20441"
       y2="86.530441" /></defs><g
     inkscape:label="Layer 1"
     inkscape:groupmode="layer"
     id="layer1"
     transform="translate(-87.211376,-76.723206)"><g
       id="g73"
       transform="matrix(0.06199615,0,0,0.06197198,72.150907,75.371587)"><path
         id="path24"
         style="fill:#f9f9f9;stroke-linecap:round"
         transform="translate(7.7418125)"
         d="m 305.39844,21.810547 c -27.85939,0.0712 -51.39595,19.992196 -56.69727,46.710937 -7.59174,2.767771 -13.06636,10.013619 -13.0664,18.503907 a 6.0006,6.0006 0 0 0 0,0.0078 c 0.004,2.921746 0.88108,5.527019 2.0371,7.947266 -1.15607,2.421004 -2.03326,5.027733 -2.0371,7.949223 a 6.0006,6.0006 0 0 0 0,0.008 c 3e-5,5.13213 1.99177,9.8423 5.24023,13.37305 -0.24851,1.23243 -0.43163,2.48894 -0.43164,3.78125 v 0.008 a 6.0006,6.0006 0 0 0 0,0.0156 c 0.0164,6.09834 3.1011,11.47534 7.73437,14.97657 1.61931,8.93238 9.46669,15.80891 18.83594,15.80859 9.86822,-1.1e-4 17.99625,-7.64406 18.98242,-17.26758 l 5.23828,-6.09179 c 1.31767,0.19037 2.6763,0.29504 4.07227,0.27539 4.00495,-0.0564 8.5064,-0.36857 12.67578,-1.01563 2.50327,-0.3885 5.0227,-0.81963 7.49024,-1.73828 l 7.71093,6.91992 c 1.2642,9.33223 9.26521,16.64833 18.91993,16.64844 9.36696,3.2e-4 17.2101,-6.87424 18.83007,-15.80274 4.63583,-3.5001 7.72566,-8.87817 7.74219,-14.98242 a 6.0006,6.0006 0 0 0 0,-0.0156 v -0.008 c -2e-5,-1.4551 -0.21607,-2.86139 -0.5293,-4.22852 3.29555,-3.52873 5.33784,-8.26391 5.33789,-13.44727 v -0.008 a 6.0006,6.0006 0 0 0 0,-0.008 c -0.004,-2.922716 -0.88281,-5.529228 -2.03906,-7.949221 1.15638,-2.419512 2.03533,-5.024153 2.03906,-7.947266 a 6.0006,6.0006 0 0 0 0,-0.002 6.0006,6.0006 0 0 0 0,-0.002 6.0006,6.0006 0 0 0 0,-0.002 6.0006,6.0006 0 0 0 0,-0.002 c -6e-5,-8.069743 -4.91967,-15.037119 -11.92968,-18.08789 -6.28308,-25.746626 -29.28953,-44.320117 -56.13086,-44.328125 a 6.0006,6.0006 0 0 0 -0.002,0 h -0.008 a 6.0006,6.0006 0 0 0 -0.0156,0 z" /><path
         id="path15"
         style="stroke-linecap:round"
         transform="translate(7.7418125)"
         d="m 305.40625,24.810547 c -27.0124,0.06904 -49.59187,19.819885 -53.95313,45.996094 -7.32994,1.789772 -12.81831,8.371992 -12.81835,16.21875 a 3.0003,3.0003 0 0 0 0,0.0039 c 0.004,2.934289 1.02526,5.570364 2.40234,7.951172 -1.3775,2.381625 -2.39848,5.018708 -2.40234,7.953117 a 3.0003,3.0003 0 0 0 0,0.004 c 3e-5,4.91754 2.22094,9.28774 5.62695,12.36133 -0.47913,1.53014 -0.81834,3.11857 -0.81836,4.79297 v 0.008 a 3.0003,3.0003 0 0 0 0,0.008 c 0.015,5.56475 3.05324,10.42058 7.56055,13.31445 0.87197,8.08858 7.70229,14.47881 16.00976,14.47852 8.66701,-9e-5 15.75703,-6.94568 16.11133,-15.5293 l 6.98437,-8.12304 c 1.68134,0.34234 3.39823,0.59311 5.15625,0.56836 3.87567,-0.0546 8.27305,-0.36206 12.25782,-0.98047 3.07926,-0.47789 5.97927,-1.00339 8.52539,-2.28906 l 9.98437,8.95898 c 0.55686,8.39646 7.54106,15.12491 16.07032,15.125 8.30692,2.9e-4 15.13252,-6.38938 16.0039,-14.47656 4.50853,-2.8935 7.55328,-7.74872 7.56836,-13.31641 a 3.0003,3.0003 0 0 0 0,-0.008 v -0.008 c -2e-5,-1.83679 -0.40926,-3.5592 -0.98047,-5.20704 3.48875,-3.06923 5.78901,-7.47617 5.78906,-12.46875 v -0.008 a 3.0003,3.0003 0 0 0 0,-0.004 c -0.004,-2.935311 -1.02663,-5.572094 -2.40429,-7.953125 1.37747,-2.380226 2.40054,-5.015724 2.40429,-7.951172 a 3.0003,3.0003 0 0 0 0,-0.002 3.0003,3.0003 0 0 0 0,-0.002 c -5e-5,-7.288011 -4.80913,-13.330159 -11.35742,-15.617187 C 353.8306,43.248646 331.51094,24.81833 305.42187,24.810547 h -0.008 a 3.0003,3.0003 0 0 0 -0.008,0 z" /><path
         style="color:#000000;fill:url(#linearGradient72);stroke-linecap:round;-inkscape-stroke:none"
         d="m 361.47005,72.249856 a 11.975576,11.975576 0 0 1 11.9755,11.975496 11.975576,11.975576 0 0 1 -3.04168,7.959721 11.975576,11.975576 0 0 1 3.04168,7.959197 11.975576,11.975576 0 0 1 -11.9755,11.97549 11.975576,11.975576 0 0 1 -11.66389,-9.41286 l -10.29291,-1.47639 -13.93713,-6.708629 4.57594,-6.867281 10.51512,1.168404 8.90644,-5.500439 a 11.975576,11.975576 0 0 1 11.89643,-11.072709 z"
         id="path5" /><path
         style="color:#000000;fill:#000000;stroke-linecap:round;-inkscape-stroke:none"
         d="m 361.46289,70.472656 c -6.82487,0.02568 -12.50958,5.094945 -13.49609,11.751953 l -7.71289,4.763672 -10.98047,-1.220703 -6.31055,9.46875 16.02734,7.714842 9.58399,1.375 c 1.82041,5.59002 6.91301,9.55516 12.89062,9.57227 h 0.002 0.004 c 7.57472,-5e-5 13.7519,-6.1792 13.75196,-13.75391 v -0.002 c -0.004,-2.901947 -1.08321,-5.625412 -2.77149,-7.957033 1.68855,-2.331847 2.76779,-5.05475 2.77149,-7.957031 v -0.002 -0.002 c -5e-5,-7.574716 -6.17724,-13.751905 -13.75196,-13.751953 h -0.004 z m 0.008,3.554688 h 0.002 c 5.65207,0.0011 10.19527,4.544927 10.19531,10.197265 -0.004,2.500237 -0.92481,4.912109 -2.58985,6.777344 l -1.05664,1.183594 1.05664,1.183594 c 1.66537,1.865606 2.58656,4.276563 2.58985,6.777339 -0.001,5.65075 -4.54288,10.19314 -10.19336,10.19532 -4.79025,-0.0137 -8.90657,-3.33633 -9.93164,-8.01563 l -0.26367,-1.20508 -11.24219,-1.611324 -11.84766,-5.703125 2.8418,-4.265625 10.04883,1.117187 10.19726,-6.298828 0.0684,-0.902344 c 0.40206,-5.318202 4.79237,-9.406576 10.125,-9.429687 z"
         id="path6" /><path
         style="color:#000000;fill:url(#linearGradient69);stroke-linecap:round;-inkscape-stroke:none"
         d="m 263.12932,75.046306 a 11.975576,11.975576 0 0 0 -11.9755,11.975496 11.975576,11.975576 0 0 0 3.04168,7.959721 11.975576,11.975576 0 0 0 -3.04168,7.959207 11.975576,11.975576 0 0 0 11.9755,11.97549 11.975576,11.975576 0 0 0 11.66389,-9.41286 l 10.29291,-1.47639 13.93713,-6.708639 -4.57594,-6.867281 -10.51512,1.168404 -8.90644,-5.500439 A 11.975576,11.975576 0 0 0 263.12932,75.046306 Z"
         id="path9" /><path
         style="color:#000000;fill:#000000;stroke-linecap:round;-inkscape-stroke:none"
         d="m 263.12891,73.267578 c -7.57472,4.8e-5 -13.75386,6.17919 -13.75391,13.753906 v 0.002 c 0.004,2.901812 1.08541,5.625406 2.77344,7.957032 -1.68857,2.331743 -2.76962,5.054834 -2.77344,7.957034 v 0.002 0.002 c 5e-5,7.57471 6.17919,13.7519 13.75391,13.75195 h 0.004 0.002 c 5.97761,-0.0171 11.07021,-3.9803 12.89062,-9.57031 l 9.58398,-1.375 16.02735,-7.71485 -6.31055,-9.46875 -10.98047,1.220703 -7.71484,-4.765625 c -0.9871,-6.65663 -6.66977,-11.726406 -13.49428,-11.75209 h -0.004 z m -0.002,3.556641 h 0.002 c 5.33263,0.02311 9.72098,4.111485 10.12304,9.429687 l 0.0684,0.902344 10.19922,6.298828 10.04883,-1.117187 2.8418,4.265625 -11.84766,5.703124 -11.24219,1.61133 -0.26367,1.20508 c -1.02479,4.67801 -5.13918,8.00009 -9.92773,8.01562 -5.65234,-3e-5 -10.19616,-4.54324 -10.19727,-10.19531 v -0.002 c 0.004,-2.50009 0.92491,-4.910272 2.58984,-6.775394 l 1.05664,-1.183594 -1.05664,-1.185547 c -1.66546,-1.865721 -2.58666,-4.276409 -2.58984,-6.777344 0.001,-5.651409 4.5439,-10.194204 10.19531,-10.195312 z"
         id="path10" /><path
         style="color:#000000;fill:url(#linearGradient70);stroke-linecap:round;-inkscape-stroke:none"
         d="m 289.40834,107.96368 -15.01717,3.18378 a 11.402528,11.402528 0 0 0 -7.02645,-2.45566 11.402528,11.402528 0 0 0 -11.40292,11.4024 11.402528,11.402528 0 0 0 7.45743,10.66757 11.402525,11.402525 0 0 0 -0.0687,0.95653 11.402525,11.402525 0 0 0 11.40292,11.4024 11.402525,11.402525 0 0 0 11.4024,-11.4024 11.402525,11.402525 0 0 0 -0.0956,-1.09141 l 14.33608,-16.65945 z"
         id="path7" /><path
         style="color:#000000;fill:#000000;stroke-linecap:round;-inkscape-stroke:none"
         d="m 289.68359,106.08789 8.30664,7.95117 -13.79882,16.03516 0.10742,0.79297 c 0.0391,0.28686 0.0631,0.57604 0.0762,0.86523 -0.008,5.32979 -4.28941,9.60932 -9.62109,9.60938 -5.33453,1.8e-4 -9.61956,-4.2835 -9.62305,-9.61719 0.009,-0.25412 0.0258,-0.50908 0.0547,-0.76172 l 0.1582,-1.38672 -1.30859,-0.48242 c -3.77775,-1.39306 -6.28243,-4.9739 -6.29493,-9 v -0.002 c 0,-6.6e-4 10e-6,-0.001 0,-0.002 0.002,-5.3348 4.28968,-9.61932 9.625,-9.61914 2.15057,0.01 4.23629,0.73889 5.92383,2.07227 l 0.6543,0.51758 15.83398,-3.35742 -1.2207,-0.17969 z m 0,0 -0.64453,0.13672 -14.40625,3.05469 c -2.15703,-1.45473 -4.64536,-2.35544 -7.26172,-2.36524 h -0.004 -0.002 c -7.25841,-2.5e-4 -13.18155,5.92127 -13.18164,13.17969 v 0.002 0.004 c 0.0135,5.02154 2.96485,9.4466 7.39063,11.64844 0.0164,7.24474 5.93126,13.15064 13.17969,13.15039 7.25818,-8e-5 13.1796,-5.9215 13.17968,-13.17969 v -0.0352 l -0.002,-0.0352 c -0.006,-0.14244 -0.0269,-0.28364 -0.0371,-0.42578 l 15.2832,-17.76172 z"
         id="path8" /><path
         style="color:#000000;fill:url(#linearGradient71);stroke-linecap:round;-inkscape-stroke:none"
         d="m 315.3291,91.676213 34.8791,17.203957 c 2.00153,-1.58147 4.47555,-2.44611 7.02645,-2.45566 6.29755,-2.2e-4 11.40285,5.10485 11.40292,11.4024 -0.0129,4.76471 -2.98697,9.01907 -7.45743,10.66757 0.0363,0.31774 0.0592,0.63686 0.0687,0.95653 -7e-5,6.29755 -5.10537,11.40262 -11.40292,11.4024 -6.29734,-7e-5 -11.40233,-5.10506 -11.4024,-11.4024 0.0144,-0.36512 0.0463,-0.72935 0.0956,-1.09141 L 304.34111,97.679973 Z"
         id="path3" /><path
         style="color:#000000;fill:#000000;stroke-linecap:round;-inkscape-stroke:none"
         d="m 315.28711,89.673828 -14.00391,7.650391 35.40821,31.767581 c -0.006,0.0965 -0.0216,0.1924 -0.0254,0.28906 v 0.0352 0.0351 c 8e-5,7.25819 5.9215,13.17961 13.17968,13.17969 7.24843,2.5e-4 13.16333,-5.90565 13.17969,-13.15039 4.42577,-2.20184 7.37703,-6.62691 7.39063,-11.64844 v -0.002 -0.004 c -9e-5,-7.25842 -5.92322,-13.17994 -13.18165,-13.17969 h -0.004 -0.002 c -2.5304,0.009 -4.92846,0.87773 -7.03907,2.24219 z m 0.084,4.005859 35.0586,17.291013 0.88086,-0.69531 c 1.68865,-1.33426 3.77566,-2.06334 5.92773,-2.07226 5.33481,0.002 9.62104,4.28771 9.62109,9.62304 -0.0125,4.02613 -2.51718,7.60695 -6.29492,9 l -1.30859,0.48242 0.1582,1.38672 c 0.0289,0.25323 0.0459,0.50876 0.0547,0.76367 -0.005,5.33277 -4.28918,9.61738 -9.62305,9.61719 -5.32888,-6e-5 -9.60884,-4.27762 -9.62109,-9.60351 0.013,-0.29193 0.0368,-0.58353 0.0762,-0.87305 l 0.12695,-0.93359 -33.02929,-29.630864 z"
         id="path4" /><path
         id="path72"
         style="opacity:1;fill:#1a1a1a;stroke:#000000;stroke-width:2.00723;stroke-linecap:round"
         d="m 358.01914,77.293388 a 46.794956,41.963261 0 0 1 -46.79496,41.963262 46.794956,41.963261 0 0 1 -46.79495,-41.963262 46.794956,41.963261 0 0 1 46.79495,-41.96326 46.794956,41.963261 0 0 1 46.79496,41.96326 z" /><path
         style="color:#000000;fill:url(#linearGradient68);stroke-linecap:round;-inkscape-stroke:none"
         d="m 313.16244,29.633057 a 50.188454,50.188454 0 0 0 -49.92822,46.551164 c 0.27818,0.116367 1.32102,0.78517 3.76773,4.979541 2.89152,4.95688 2.68494,4.750586 2.4784,6.609416 -0.20652,1.85883 -2.99518,5.576027 -1.75596,7.641394 1.23922,2.065365 5.47357,6.918958 5.47357,6.918958 0,0 -1.75547,-1.85848 -1.13585,-6.505547 0.61961,-4.647074 3.40786,-4.543853 5.06016,-2.581755 1.65228,1.962098 6.91859,5.886246 7.74474,8.777762 0.82615,2.89151 -1.0326,9.19106 0.10336,10.94662 1.13594,1.75556 10.63688,7.12558 17.96892,7.02231 7.33206,-0.10326 16.91962,-1.20899 19.91352,-3.47266 2.99388,-2.26368 6.71785,-4.08931 6.27972,-6.64507 -0.43813,-2.55577 -1.16841,-4.74648 -1.16841,-4.74648 0,0 -3.06683,-4.81924 -3.13986,-6.060615 -0.073,-1.241369 5.18438,-6.353344 7.95921,-6.718453 2.77482,-0.365108 9.71227,0.292387 9.85831,1.533757 0.14605,1.241369 -0.73031,4.162003 -3.067,5.841504 -2.33669,1.679507 -8.25169,5.184697 -8.25169,5.184697 0,0 13.50938,-2.26388 16.79536,-6.353101 3.28598,-4.089217 8.54355,-11.099089 9.78493,-15.626437 0.93373,-3.405355 3.14697,-8.789724 4.71548,-11.562085 a 50.188454,50.188454 0 0 0 -49.45642,-41.73492 z"
         id="path1" /><path
         style="color:#000000;fill:#000000;stroke-linecap:round;-inkscape-stroke:none"
         d="m 313.1582,27.8125 c -27.19357,0.0695 -49.76952,21.118077 -51.74023,48.240234 l -0.0957,1.306641 1.20898,0.505859 c -0.51882,-0.217032 0.52276,0.144203 2.89844,4.216797 1.44179,2.47163 2.08445,3.673141 2.25586,4.15625 0.1714,0.483109 0.0958,0.330982 -0.0156,1.333985 -0.0186,0.167662 -0.68039,1.717 -1.30078,3.267578 -0.62039,1.550578 -1.38475,3.548853 -0.20703,5.511718 0.76664,1.277728 2.12777,2.961538 3.35937,4.455078 1.23161,1.49354 2.30469,2.72461 2.30469,2.72461 l 0.0117,-0.01 c 0.001,0.001 0.0352,0.0625 0.0352,0.0625 l 2.69726,-2.44726 c 0,0 -0.0516,-0.0593 -0.0527,-0.0605 -0.002,-0.001 -0.13331,-0.0807 -0.39844,-0.84765 -0.26711,-0.77269 -0.52778,-2.091512 -0.25195,-4.160161 0.26227,-1.967026 0.83601,-2.257424 0.88672,-2.273437 0.0507,-0.01601 0.46346,0.01802 0.97461,0.625 1.0549,1.252709 2.7357,2.640127 4.30273,4.169922 1.56703,1.529796 2.89196,3.261496 3.08398,3.933596 0.21797,0.76289 0.0958,3.04561 -0.125,5.21484 -0.11039,1.08462 -0.21885,2.16791 -0.2207,3.18555 -0.002,1.01763 -0.005,1.99092 0.67188,3.03711 0.68298,1.05553 1.54498,1.58749 2.80078,2.39453 1.2558,0.80704 2.84585,1.67471 4.64062,2.48437 3.58954,1.61933 7.96043,3.03266 12.08203,2.97461 3.74638,-0.0528 8.03773,-0.3575 11.83789,-0.94726 3.80017,-0.58977 7.01925,-1.28467 9.14844,-2.89453 1.39505,-1.0548 3.08287,-2.07046 4.50586,-3.27539 0.7115,-0.60247 1.37318,-1.25803 1.86914,-2.09766 0.49597,-0.83963 0.7898,-1.93323 0.60156,-3.03125 -0.46579,-2.71713 -1.23632,-5.01563 -1.23632,-5.01563 l -0.0703,-0.21289 -0.12109,-0.18945 c 0,0 -0.74676,-1.17475 -1.49609,-2.48828 -0.37467,-0.65677 -0.7488,-1.34911 -1.01368,-1.906251 -0.19652,-0.413368 -0.22375,-0.540146 -0.25781,-0.589843 0.0821,-0.1307 0.1703,-0.274228 0.33789,-0.484375 0.4379,-0.549082 1.11991,-1.262219 1.88086,-1.94336 1.5219,-1.36228 3.62541,-2.52349 4.07031,-2.582031 1.05258,-0.138497 3.47935,-0.09192 5.44141,0.164062 0.89673,0.116992 1.66037,0.28346 2.20117,0.441407 -0.0539,0.348644 -0.043,0.592709 -0.28515,1.130859 -0.38484,0.855095 -1.01751,1.742803 -1.86719,2.353516 -2.12907,1.530281 -8.11719,5.095706 -8.11719,5.095706 l 1.23047,3.36328 c 0,0 3.46075,-0.57839 7.36133,-1.6875 3.90058,-1.10911 8.24916,-2.45365 10.55273,-5.320314 3.3284,-4.142005 8.65971,-10.955432 10.1211,-16.285157 0.86911,-3.169685 3.11055,-8.614677 4.54296,-11.146484 l 0.32032,-0.564453 -0.10938,-0.640625 C 360.1483,46.096664 338.48783,27.820056 313.16211,27.8125 h -0.002 z m 0.004,3.642578 h 0.006 c 23.40252,0.0098 43.35406,16.754282 47.52734,39.732422 -1.64832,3.080628 -3.61269,7.847573 -4.54883,11.261719 -1.02136,3.724962 -6.20371,10.930376 -9.44726,14.966797 -0.63819,0.794188 -2.66546,1.783406 -4.94922,2.708984 0.83753,-0.867525 1.52749,-1.801199 1.94922,-2.738281 0.60101,-1.335438 0.89374,-2.511653 0.75195,-3.716797 -0.11491,-0.976796 -0.73624,-1.469052 -1.16797,-1.75 -0.43172,-0.280948 -0.84419,-0.439161 -1.29297,-0.583985 -0.89755,-0.289647 -1.9382,-0.481036 -3.05664,-0.626953 -2.23687,-0.291832 -4.66643,-0.392626 -6.38867,-0.166015 -2.32992,0.306568 -4.24119,1.885145 -6.02344,3.480468 -0.89112,0.797662 -1.68478,1.616762 -2.29882,2.386719 -0.30703,0.384979 -0.57055,0.753863 -0.78907,1.152344 -0.21851,0.398481 -0.47661,0.782079 -0.42773,1.613281 0.0581,0.987419 0.36461,1.448929 0.69531,2.144529 0.3307,0.6956 0.73751,1.44327 1.13867,2.14649 0.7234,1.26806 1.29898,2.17125 1.43164,2.38086 0.0416,0.12673 0.66901,2.01777 1.06641,4.33593 0.0308,0.17986 0.0242,0.27028 -0.14844,0.5625 -0.17261,0.29222 -0.54697,0.71551 -1.08593,1.17188 -1.07793,0.91274 -2.75078,1.94151 -4.34961,3.15039 -0.86471,0.6538 -3.93468,1.64439 -7.50977,2.19922 -3.57509,0.55483 -7.7444,0.8538 -11.33008,0.9043 -3.21043,0.0452 -7.25528,-1.1736 -10.5332,-2.65235 -1.63896,-0.73937 -3.09569,-1.53815 -4.16992,-2.22851 -1.07424,-0.69036 -1.82596,-1.48831 -1.71094,-1.31055 0.10897,0.1684 -0.0892,-0.30314 -0.0879,-1.05078 10e-4,-0.74764 0.0941,-1.75111 0.20312,-2.82227 0.21806,-2.14231 0.61209,-4.45537 0.004,-6.58398 -0.63412,-2.219419 -2.35724,-3.895339 -4.04297,-5.541018 -1.68573,-1.645679 -3.46317,-3.20077 -4.06055,-3.910156 -1.14115,-1.355112 -2.94798,-2.35362 -4.85937,-1.75 -1.91139,0.603619 -3.04305,2.585582 -3.40039,5.265625 -0.008,0.06096 0.004,0.09991 -0.004,0.160156 -0.29683,-0.406135 -0.81508,-1.021889 -0.96484,-1.271485 -0.0615,-0.102499 -0.0509,-0.994136 0.46484,-2.283203 0.51576,-1.289066 1.35117,-2.527584 1.53907,-4.21875 0.0951,-0.855825 0.22467,-1.835455 -0.17188,-2.953125 -0.39655,-1.117669 -1.09519,-2.290145 -2.54492,-4.77539 -1.63154,-2.79693 -2.5811,-3.984718 -3.38477,-4.742188 2.23152,-24.846942 22.93388,-43.981816 47.97266,-44.048828 z"
         id="path2" /><circle
         style="fill:url(#linearGradient73);fill-opacity:1;stroke:none;stroke-width:0.280039;stroke-linecap:round;stroke-dasharray:none;stroke-opacity:1;paint-order:normal"
         id="circle46"
         cx="289.20441"
         cy="78.68531"
         r="9.2541389" /><circle
         style="fill:#1a1a1a;fill-opacity:1;stroke:#000000;stroke-width:0.233863;stroke-linecap:round;stroke-dasharray:none;stroke-opacity:1;paint-order:normal"
         id="path43"
         cx="289.20441"
         cy="78.68531"
         r="7.7282004" /><circle
         style="font-variation-settings:normal;opacity:1;vector-effect:none;fill:url(#linearGradient55);fill-opacity:1;stroke:none;stroke-width:0.280039;stroke-linecap:round;stroke-linejoin:miter;stroke-miterlimit:4;stroke-dasharray:none;stroke-dashoffset:0;stroke-opacity:1;-inkscape-stroke:none;paint-order:normal;stop-color:#000000;stop-opacity:1"
         id="circle47"
         cx="318.42938"
         cy="77.239555"
         r="9.9662428" /><circle
         style="fill:#1a1a1a;fill-opacity:1;stroke:#000000;stroke-width:0.233863;stroke-linecap:round;stroke-dasharray:none;stroke-opacity:1;paint-order:normal"
         id="circle43"
         cx="318.42938"
         cy="77.239555"
         r="7.7282004" /><path
         id="path56"
         style="font-variation-settings:normal;opacity:1;vector-effect:none;fill:url(#linearGradient57);fill-opacity:1;stroke:none;stroke-width:0.280039;stroke-linecap:round;stroke-linejoin:miter;stroke-miterlimit:4;stroke-dasharray:none;stroke-dashoffset:0;stroke-opacity:1;-inkscape-stroke:none;paint-order:normal;stop-color:#000000;stop-opacity:1"
         sodipodi:type="inkscape:offset"
         inkscape:radius="1"
         inkscape:original="M 303.97266 84.46875 C 303.24978 84.46875 301.5957 90.767578 301.5957 90.767578 C 301.5957 90.767578 299.22122 96.756378 300.25391 97.789062 C 301.28659 98.821748 308.51589 98.513647 309.44531 97.6875 C 310.37472 96.861353 307.48242 90.664062 307.48242 90.664062 C 307.48242 90.664063 304.69554 84.46875 303.97266 84.46875 z "
         d="m 303.97266,83.46875 c -0.40825,0 -0.65767,0.18812 -0.81055,0.324219 -0.15288,0.136098 -0.24545,0.262243 -0.33203,0.392578 -0.17316,0.260669 -0.30998,0.544377 -0.45117,0.86914 -0.28238,0.649527 -0.56114,1.453935 -0.81836,2.257813 -0.50788,1.587186 -0.90942,3.120184 -0.91993,3.160156 -0.0271,0.06832 -0.59376,1.496702 -1.06445,3.144531 -0.2409,0.843383 -0.45468,1.723087 -0.54297,2.529297 -0.0441,0.403105 -0.0594,0.787479 -0.01,1.171875 0.0496,0.384397 0.15574,0.810044 0.52343,1.177735 0.68826,0.688262 1.41503,0.70974 2.32618,0.822265 0.91115,0.112526 1.97697,0.143734 3.04101,0.117188 1.06405,-0.02655 2.11791,-0.111777 3.00196,-0.25 0.44202,-0.06911 0.84033,-0.151321 1.19335,-0.25586 0.35303,-0.104538 0.6548,-0.187293 1,-0.49414 0.44442,-0.395042 0.50252,-0.868299 0.51758,-1.248047 0.0151,-0.379748 -0.0357,-0.747718 -0.11523,-1.142578 -0.1591,-0.789721 -0.44688,-1.671433 -0.75977,-2.523438 -0.62316,-1.696876 -1.35129,-3.254463 -1.35742,-3.267578 l -0.002,-0.002 c -0.001,-0.0023 -0.70147,-1.563468 -1.50196,-3.138672 -0.40054,-0.788192 -0.82422,-1.578777 -1.21679,-2.207031 -0.19629,-0.314127 -0.38025,-0.584878 -0.58399,-0.822266 -0.10186,-0.118693 -0.20521,-0.230348 -0.35547,-0.34375 -0.15025,-0.113401 -0.35944,-0.271484 -0.76171,-0.271484 z" /><path
         style="fill:#1a1a1a;fill-opacity:1;stroke:#000000;stroke-width:0.264583px;stroke-linecap:butt;stroke-linejoin:miter;stroke-opacity:1"
         d="m 307.48293,90.664443 c 0,0 2.89151,6.196106 1.9621,7.022253 -0.92942,0.826147 -8.15821,1.135953 -9.19089,0.103268 -1.03269,-1.032684 1.34248,-7.022252 1.34248,-7.022252 0,0 1.6523,-6.299374 2.37518,-6.299374 0.72288,0 3.51113,6.196105 3.51113,6.196105 z"
         id="path44" /><path
         style="fill:#b3b3b3;stroke:none;stroke-width:0.264583px;stroke-linecap:butt;stroke-linejoin:miter;stroke-opacity:1"
         d="m 279.70372,65.157143 c 0,0 2.68498,-1.9621 6.81572,-2.168637 4.13073,-0.206537 9.91376,1.032684 11.97913,3.098052 2.06537,2.065369 2.68498,3.511127 2.37518,4.647079 -0.30981,1.135953 -1.44576,3.098053 -1.44576,3.098053 0,0 0.82615,-3.098053 -0.92942,-4.647079 -1.75556,-1.549026 -9.60396,-4.54381 -13.94123,-3.511126 -4.33728,1.032684 -4.85362,-0.516342 -4.85362,-0.516342 z"
         id="path45" /><path
         style="fill:#b3b3b3;stroke:none;stroke-width:0.264583px;stroke-linecap:butt;stroke-linejoin:miter;stroke-opacity:1"
         d="m 308.30907,68.461732 c 0.92942,-1.9621 2.06537,-4.853616 4.13074,-4.853616 2.06537,0 7.8484,0.206537 10.01704,1.34249 2.16863,1.135952 3.51112,3.304589 3.51112,3.304589 0,0 -2.47844,-2.168637 -6.1961,-2.271905 -3.71767,-0.103268 -5.67977,-0.826147 -6.71245,-0.413074 -1.03269,0.413074 -4.75035,2.891516 -4.75035,2.891516 z"
         id="path46" /><path
         id="path57"
         style="fill:#cccccc;stroke:none;stroke-width:0.465;stroke-linecap:butt;stroke-linejoin:miter;stroke-dasharray:none;stroke-opacity:1"
         d="m 317.81591,98.513607 0.58291,6.550503 0.12454,-0.0155 4.4452,-0.81856 -0.47594,-5.319568 z m -0.7767,0.297656 -4.75888,1.842267 0.29145,5.13405 5.03277,-0.62477 z m 6.26267,0.167949 0.45682,5.105118 1.7234,-0.3173 -0.6537,-4.65811 z m -29.96665,0.153479 -2.59261,0.972029 -0.60203,3.54501 3.62407,1.70894 0.20981,-5.982066 z m 1.42885,0.545703 -0.20774,5.936586 5.03949,0.36897 v -4.69635 l -0.58084,0.0134 z m -4.88807,0.751376 -1.49758,0.56172 -0.23255,1.71824 1.24334,0.58601 z m 21.61987,0.52762 -0.14728,0.0568 -5.07256,0.11782 0.0842,4.78834 5.41208,-0.0909 z m -6.02082,0.19327 -5.07876,0.11833 v 4.75217 l 5.16299,-0.0868 z m -17.44183,2.38951 -0.99736,7.36493 1.00769,0.31367 1.20665,-7.10499 z m 1.96835,0.92811 -1.187,6.99079 4.52065,1.40818 0.16536,0.0258 0.23358,-6.66522 z m 35.59215,0.092 -1.7632,0.32452 0.57877,6.46989 2.07481,-0.44958 z m -2.55385,0.47025 -4.3956,0.80926 -0.17415,0.0217 0.59221,6.65179 4.5589,-0.98805 z m -5.36402,0.92966 -5.0586,0.62735 0.39997,7.04608 1.07487,-0.0434 4.18218,-0.90641 z m -23.14742,0.45527 -0.231,6.60166 5.29839,0.82579 v -7.05641 z m 17.28938,0.21291 -5.44359,0.092 0.12609,7.17579 5.71748,-0.23048 z m -6.24458,0.10593 -5.17694,0.0879 v 7.1453 l 0.89038,0.13901 4.41317,-0.17776 z" /></g></g></svg>
