<?xml version="1.0" encoding="UTF-8" standalone="no"?>
<!-- Created with Inkscape (http://www.inkscape.org/) -->

<svg
   width="18.779161mm"
   height="7.9799657mm"
   viewBox="0 0 18.779161 7.9799657"
   version="1.1"
   id="svg15601"
   inkscape:version="1.1.1 (3bf5ae0d25, 2021-09-20)"
   sodipodi:docname="inkporter-svg-qhxbqep5.svg"
   xmlns:inkscape="http://www.inkscape.org/namespaces/inkscape"
   xmlns:sodipodi="http://sodipodi.sourceforge.net/DTD/sodipodi-0.dtd"
   xmlns="http://www.w3.org/2000/svg"
   xmlns:svg="http://www.w3.org/2000/svg">
  <sodipodi:namedview
     id="namedview15603"
     pagecolor="#ffffff"
     bordercolor="#666666"
     borderopacity="1.0"
     inkscape:pageshadow="2"
     inkscape:pageopacity="0.0"
     inkscape:pagecheckerboard="0"
     inkscape:document-units="mm"
     showgrid="false"
     inkscape:zoom="0.90583674"
     inkscape:cx="2310.0189"
     inkscape:cy="442.13265"
     inkscape:window-width="1920"
     inkscape:window-height="1017"
     inkscape:window-x="-8"
     inkscape:window-y="-8"
     inkscape:window-maximized="1"
     inkscape:current-layer="layer1"
     inkscape:snap-nodes="true"
     inkscape:snap-bbox="true"
     inkscape:snap-others="true"
     inkscape:bbox-paths="true"
     inkscape:snap-global="true" />
  <defs
     id="defs15598">
    <clipPath
       clipPathUnits="userSpaceOnUse"
       id="clipPath48514-9-5-6-7-4">
      <path
         d="M 309.111,103.342 H 547.1 V 372.047 H 309.111 Z"
         id="path48512-3-2-8-8-0" />
    </clipPath>
    <clipPath
       clipPathUnits="userSpaceOnUse"
       id="clipPath48514-9-5-6-7-4-5">
      <path
         d="M 309.111,103.342 H 547.1 V 372.047 H 309.111 Z"
         id="path48512-3-2-8-8-0-2" />
    </clipPath>
    <clipPath
       clipPathUnits="userSpaceOnUse"
       id="clipPath48514-9-5-6-7-4-1">
      <path
         d="M 309.111,103.342 H 547.1 V 372.047 H 309.111 Z"
         id="path48512-3-2-8-8-0-4" />
    </clipPath>
    <clipPath
       clipPathUnits="userSpaceOnUse"
       id="clipEmfPath1">
      <path
         d="M 0,0 H 176.90268 V 3865.4117 H 0 Z"
         id="path21836" />
    </clipPath>
    <clipPath
       clipPathUnits="userSpaceOnUse"
       id="clipEmfPath2">
      <path
         d="M 0.58771654,0.58771654 H 176.90268 V 3865.4117 H 0.58771654 Z"
         id="path21839" />
    </clipPath>
    <clipPath
       clipPathUnits="userSpaceOnUse"
       id="clipEmfPath3">
      <path
         d="M 0.58789062,0.58789062 V 3865.4121 H 176.90234 V 0.58789062 Z"
         id="path21842" />
    </clipPath>
    <pattern
       id="EMFhbasepattern"
       patternUnits="userSpaceOnUse"
       width="6"
       height="6"
       x="0"
       y="0" />
    <clipPath
       clipPathUnits="userSpaceOnUse"
       id="clipEmfPath1-9">
      <path
         d="M 0,0 H 176.90268 V 593.00598 H 0 Z"
         id="path25878" />
    </clipPath>
    <clipPath
       clipPathUnits="userSpaceOnUse"
       id="clipEmfPath2-9">
      <path
         d="M 0.58771654,0.58771654 H 176.90268 V 593.00598 H 0.58771654 Z"
         id="path25881" />
    </clipPath>
    <clipPath
       clipPathUnits="userSpaceOnUse"
       id="clipEmfPath3-7">
      <path
         d="M 0.58789062,0.58789062 V 593.00586 H 176.90234 V 0.58789062 Z"
         id="path25884" />
    </clipPath>
    <pattern
       id="EMFhbasepattern-7"
       patternUnits="userSpaceOnUse"
       width="6"
       height="6"
       x="0"
       y="0" />
  </defs>
  <g
     inkscape:label="Layer 1"
     inkscape:groupmode="layer"
     id="layer1"
     transform="translate(-474.77181,-89.465121)">
    <g
       id="U-S-M3-Scout"
       transform="matrix(0.4664819,0,0,-0.4664819,-53.58765,201.39179)">
      <path
         d="m 1148.9103,237.26316 v 0 h 1.108 l -0.551,0.256 -0.557,-0.175 z m 6.948,0.54 v 0 -0.253 h 0.206 v 0.253 z m 0.206,0.514 v 0 h -0.206 v -0.245 h 0.206 z m -5.209,-1.905 v 0 h 0.849 l 0.208,0.433 v 0.814 h -0.694 c -0.106,0.042 -0.135,0.025 -0.15,0 h -0.157 c -0.106,0.042 -0.134,0.025 -0.15,0 h -0.156 c -0.107,0.042 -0.135,0.025 -0.15,0 h -0.259 -0.487 v -0.144 l 0.387,-0.139 v -0.315 h -1.272 v 0.33 l 0.403,0.124 v 0.163 l -3.748,0.18 -0.395,-0.069 v 0.395 h 0.395 l 3.761,-0.076 0.14,0.071 h 0.196 l 0.267,-0.013 h 0.214 l 0.391,0.047 c 0.119,-0.056 0.151,-0.033 0.163,0 h 0.144 c 0.119,-0.056 0.15,-0.033 0.163,0 h 0.143 c 0.119,-0.056 0.151,-0.033 0.164,0 h 0.689 v 0.159 l 1.064,-0.008 h 2.401 l 0.125,0.145 h 0.247 l 0.049,-0.153 0.262,0.001 h 0.13 v -0.285 l 0.043,-0.269 -0.043,-0.253 -0.13,-0.042 -0.206,0.001 -0.87,-0.001 c 0.144,-0.139 0.189,-0.308 0.108,-0.401 -0.088,-0.1 -0.226,-0.082 -0.314,-0.063 l -1.781,0.407 v -0.753 h -0.197 l -0.138,-0.286 h 1.351 c 0,0 1.351,0 4.081,-0.763 l 5.256,-1.468 h 2.674 v 0.749 l -0.228,-0.089 -0.166,0.07 -0.07,0.166 -0.225,-0.224 -0.141,-0.072 0.118,-0.306 -0.154,-0.177 -0.165,0.141 -0.037,0.298 -0.201,0.2 0.201,0.366 -0.153,0.153 0.367,0.369 1.006,0.815 0.071,0.308 0.263,-0.161 2.231,2.23 0.248,-0.248 -2.235,-2.234 0.321,-0.156 0.106,-0.295 0.373,-0.373 -0.687,-0.686 -0.283,-0.007 v -0.418 c 0,0 0,-0.419 1,-0.419 h 3.924 c 0,0 1,0 1,-1 v -4.939 l 0.394,-0.036 v -1.073 h -3.22 v -0.393 h -0.322 v 0.286 h -0.5 v -0.411 c 0,0 0,-0.412 -0.183,-0.428 0,0 0.183,0.016 0,0 0,0 -0.183,-0.016 -0.183,-0.938 0,-0.923 -1.496,-2.418 -3.341,-2.418 -1.844,0 -3.34,1.495 -3.34,3.34 0,0.122 0.01,0.242 0.013,0.302 0,0 0.01,0.059 -2.828,0.059 h -8.1 v -0.409 h -0.91 v 0.472 h -2.665 v -0.847 h -4.419 c -0.208,-1.645 -1.612,-2.917 -3.313,-2.917 -1.845,0 -3.34,1.495 -3.34,3.34 0,0.298 0.039,0.587 0.112,0.863 h -0.489 l -0.251,0.502 h -0.69 c -0.01,-0.625 -0.517,-1.129 -1.144,-1.129 -0.632,0 -1.144,0.513 -1.144,1.145 0,0.632 0.512,1.145 1.144,1.145 0.139,0 0.272,-0.025 0.396,-0.071 l 0.373,0.572 0.375,0.126 0.189,-0.376 h 0.564 v 0.69 h 0.69 l 0.66,0.563 0.564,0.376 -0.251,0.376 0.502,0.063 0.063,0.276 -0.317,0.253 h 0.601 v 0.155 c 0,0 0,0.156 2.802,0.586 l 6.228,0.956 c 0,0 0.988,0.152 1.646,0.905 z"
         style="fill:#000000;fill-opacity:1;fill-rule:nonzero;stroke:none"
         id="path162581-0" />
      <path
         d="m 1157.2844,237.81086 0.057,0.226 -0.021,0.097 h -0.139 l -0.087,-0.038 -0.106,0.007 -0.119,0.062 -0.057,0.238 -0.031,0.094 -0.101,0.056 0.101,0.351 -0.401,0.082 0.082,0.041 0.075,0.046 0.087,0.276 0.047,0.134 0.078,0.141 c 0.013,0.05 0.013,0.05 0.104,0.119 l 0.106,0.078 c 0.041,0.032 0.173,0.073 0.173,0.073 l 0.131,0.025 0.144,0.019 0.138,-0.013 0.107,-0.012 0.125,-0.032 0.109,-0.044 c 0.019,-0.006 0.098,-0.068 0.098,-0.068 l 0.15,-0.169 c 0.031,-0.041 0.069,-0.126 0.069,-0.126 l 0.025,-0.087 0.019,-0.176 v -0.087 l -0.019,-0.114 -0.028,-0.106 c 0,-0.106 0,-0.106 0.028,-0.138 l -0.1,-0.025 -0.038,-0.096 0.177,-0.17 0.27,-0.012 0.475,-0.329 0.226,0.046 c 0.055,0.154 0.055,0.154 0.129,0.211 0.075,0.056 0.283,0.093 0.353,0.081 0.069,-0.012 0.415,-0.182 0.459,-0.208 0.046,-0.027 0.406,-0.398 0.481,-0.485 0.076,-0.087 0.4,-0.771 0.4,-0.771 0,0 0.142,-0.22 0.131,-0.378 -0.011,-0.159 -0.052,-0.168 -0.104,-0.197 l -0.189,-0.111 -0.101,-0.049 0.034,-0.189 c 0.279,-0.066 0.279,-0.066 0.348,-0.13 0.07,-0.066 0.384,-0.557 0.402,-0.66 0.019,-0.101 0.019,-0.101 0.075,-0.727 l -0.115,-0.149 -0.032,-0.388 c 0,0 -0.029,-0.119 -0.104,-0.211 -0.074,-0.091 -0.427,-0.042 -0.427,-0.042 l -0.099,0.001 -0.08,-0.926 0.123,-0.152 0.477,0.004 0.135,-0.115 0.34,0.082 c 0.169,0.174 0.169,0.174 0.291,0.207 0.124,0.036 0.124,0.036 0.338,-0.018 l 0.145,-0.353 -0.051,-0.086 0.033,-0.214 c 0.192,-0.3 0.192,-0.3 0.207,-0.354 0.016,-0.055 0.06,-0.287 0.057,-0.352 0,-0.065 0,-0.065 -0.072,-0.191 -0.218,-0.162 -0.218,-0.162 -0.335,-0.103 -0.117,0.059 -0.167,0.148 -0.189,0.265 -0.021,0.118 -0.021,0.118 -0.038,0.353 l -0.118,0.18 -0.373,-0.044 -0.209,-0.036 -0.141,-0.186 -0.29,-0.12 -0.758,-0.362 -0.389,-0.031 -0.208,0.291 -0.256,1.146 -0.287,0.769 -0.813,0.089 -0.697,0.262 0.081,-0.377 -0.08,-0.249 0.173,-0.868 0.035,-0.852 0.011,-0.101 -0.5,0.022 -0.012,0.088 -0.188,-0.01 -0.164,-0.122 -0.765,0.038 -0.084,0.202 0.09,0.099 0.451,0.043 0.358,0.368 0.077,0.062 -0.068,0.503 -0.156,0.34 -0.299,0.119 -0.245,0.329 -0.078,0.566 c 0,0 -0.028,0.526 -0.049,0.74 -0.021,0.213 0.226,0.313 0.332,0.333 0.104,0.018 0.104,0.018 1.591,0.034 l -0.347,0.567 0.175,0.2 -0.275,0.403 -0.339,-0.31 -0.451,0.15 -0.953,0.954 0.05,0.3 -0.502,0.301 0.151,0.602 0.552,-0.05 0.15,-0.451 0.301,0.05 0.351,-0.602 0.148,0.205 v 0.12 z"
         style="fill:#000000;fill-opacity:1;fill-rule:nonzero;stroke:none"
         id="path162585-4" />
    </g>
  </g>
</svg>
