<?xml version="1.0" encoding="UTF-8" standalone="no"?>
<!-- Created with Inkscape (http://www.inkscape.org/) -->

<svg
   width="18.028271mm"
   height="7.4023199mm"
   viewBox="0 0 18.028271 7.4023199"
   version="1.1"
   id="svg5570"
   sodipodi:docname="inkporter-svg-7qtb6ioa.svg"
   xmlns:inkscape="http://www.inkscape.org/namespaces/inkscape"
   xmlns:sodipodi="http://sodipodi.sourceforge.net/DTD/sodipodi-0.dtd"
   xmlns="http://www.w3.org/2000/svg"
   xmlns:svg="http://www.w3.org/2000/svg">
  <sodipodi:namedview
     id="namedview5572"
     pagecolor="#ffffff"
     bordercolor="#666666"
     borderopacity="1.0"
     inkscape:pageshadow="2"
     inkscape:pageopacity="0.0"
     inkscape:pagecheckerboard="0"
     inkscape:document-units="mm"
     showgrid="false"
     inkscape:zoom="1.2810466"
     inkscape:cx="526.13231"
     inkscape:cy="1810.6289"
     inkscape:window-width="2400"
     inkscape:window-height="1271"
     inkscape:window-x="-9"
     inkscape:window-y="-9"
     inkscape:window-maximized="1"
     inkscape:current-layer="layer1"
     inkscape:snap-bbox="true"
     inkscape:snap-nodes="false"
     inkscape:snap-others="false"
     inkscape:bbox-paths="true"
     inkscape:bbox-nodes="true" />
  <defs
     id="defs5567" />
  <g
     inkscape:label="Layer 1"
     inkscape:groupmode="layer"
     id="layer1"
     transform="translate(-128.33287,-506.23834)">
    <path
       d="m 137.98554,508.65028 0.86954,0.007 0.008,0.0689 -0.0978,0.1323 h 0.21773 v -0.17777 h 0.226 l -0.30869,-0.14333 -0.11989,-0.113 -0.0234,-0.12677 -0.22324,-0.0758 -0.0138,-0.0896 -0.45197,-0.18603 -0.0152,0.24529 -0.13229,0.0524 z m 1.5434,1.34771 0.12127,-0.0978 0.007,-0.22462 0.0524,-0.0303 0.13504,0.0675 0.35829,-0.36656 0.226,-0.0978 -0.17363,-0.0593 -0.0152,0.0524 -0.0813,-0.0221 0.0138,-0.0524 c -0.0965,-0.0386 -0.0965,-0.0386 -0.11989,-0.0455 -0.0221,-0.008 -0.0221,-0.008 0.0303,-0.13505 l -0.55397,-0.21773 z m 0.85439,-0.52641 0.64354,0.25633 0.32935,-0.0152 -0.0758,-0.0896 0.0606,-0.0992 0.0827,0.0455 0.0896,-0.13504 -0.56086,-0.17778 z m 2.36609,-0.73173 0.11162,0.006 0.008,0.43546 h 0.0675 l 0.44786,-0.71107 -0.007,-0.0744 0.0744,-0.113 0.0524,0.007 0.29077,-0.44786 -0.0593,-0.17364 -0.26871,0.008 0.0372,0.0524 0.0303,0.0827 0.0152,0.12816 -0.0372,0.12678 -0.113,0.11851 -0.11989,0.0593 -0.12816,0.0165 z m 0.64354,-0.0372 0.11989,-0.0152 0.18466,0.0234 0.13642,0.0799 0.1199,0.113 0.33072,-0.008 -0.74965,-0.39548 z m -1.97335,0.18879 0.0469,0.0262 0.0496,-0.0124 0.34038,-0.0799 v -0.0827 h 0.14607 l 0.3955,-0.22048 -0.0661,-0.11025 z m 1.05007,-0.44786 0.18465,-0.20395 -0.25356,0.1254 z m -0.83923,0.20946 -0.22737,-0.10335 -0.062,0.16674 -0.2894,-0.10335 -0.0275,0.062 -0.0689,-0.0276 -0.0275,0.10748 -0.0841,-0.0303 0.0345,-0.10474 -0.0827,-0.0344 -0.0345,-0.0772 -0.21636,-0.0758 -0.0138,0.0965 0.0275,0.0978 0.0772,0.0551 0.59393,0.18466 z m -0.9536,4.65639 c -0.1378,-0.0551 -0.24391,-0.17363 -0.2825,-0.31833 h -0.15021 c -0.0372,0.14194 -0.13918,0.2577 -0.27285,0.3142 z m 1.01286,-0.43959 c 0,-0.0165 0.001,-0.0331 0.003,-0.0496 l -0.11438,-0.0868 -0.0427,-0.19155 h -0.0758 l 0.007,0.1571 -0.0207,0.0482 c 0,0 -0.0221,0.0482 -0.073,0.0648 0,0 0.051,-0.0165 0,0 0,0 -0.0524,0.0165 -0.0524,0.0234 0.001,0.007 0.001,0.0207 0.001,0.0345 0,0.20119 -0.12541,0.37345 -0.30317,0.44097 l 0.49471,0.003 c 0,0 0.49472,0.003 0.40239,-0.0289 -0.0923,-0.0317 -0.226,-0.20809 -0.226,-0.41479 m 1.39733,0.45199 c -0.15709,-0.0469 -0.27974,-0.17225 -0.32108,-0.33073 h -0.14745 c -0.0413,0.15435 -0.15848,0.27699 -0.30868,0.3266 z m -3.75653,-1.52686 c -0.0275,0.42168 -0.37896,0.75516 -0.80753,0.75516 -0.0593,0 -0.11851,-0.005 -0.17363,-0.0179 l 1.0349,0.58291 c -0.0427,-0.0717 -0.0675,-0.15572 -0.0675,-0.24529 0,-0.26045 0.21084,-0.47129 0.47129,-0.47129 0.20808,0 0.38447,0.13367 0.44786,0.32108 h 0.16674 c 0.0634,-0.18741 0.23978,-0.32108 0.44787,-0.32108 0.10473,0 0.20119,0.0331 0.27974,0.091 l 0.14056,-0.0593 -0.32935,-0.57327 h -1.16169 z m 5.2834,0.60358 c -0.0758,0.0289 -0.1571,0.0441 -0.24254,0.0441 -0.35553,0 -0.6463,-0.27699 -0.66696,-0.62701 h -0.0207 l 0.0565,0.38585 -0.79926,0.13229 -0.0841,-0.24391 v 0.30592 h -0.17363 v -0.18741 l -0.22325,-0.38585 h -0.27422 l -0.007,0.0482 -0.0758,0.0207 -0.31419,0.55397 0.0951,0.0427 c 0.0785,-0.0565 0.17363,-0.0896 0.27836,-0.0896 0.21773,0 0.40239,0.14883 0.45613,0.35002 0.0331,0.001 0.0923,0 0.14745,-0.003 0.0537,-0.19982 0.2384,-0.34727 0.45613,-0.34727 0.26045,0 0.47129,0.21084 0.47129,0.47129 0,0.0854 -0.0221,0.16537 -0.062,0.23427 z m -16.28014,-0.88884 c 0,-0.27147 0.21911,-0.49058 0.49058,-0.49058 0.04,0 0.0799,0.004 0.11713,0.0138 l 0.18328,-0.22186 0.22324,0.0758 0.0138,-0.20808 0.062,-0.0524 0.19568,0.0372 -0.1254,0.0703 -0.0207,0.1254 0.14608,0.0207 0.0854,0.0978 h 0.383 l 0.091,-0.20955 -0.0772,-0.11438 0.11163,-0.14607 0.16398,-0.14607 0.30593,-0.55949 v -0.20257 h 0.10473 v 0.0841 l 0.19017,-0.0207 0.11851,0.0138 0.0234,0.01 c 0,0 0.0248,0.011 1.42489,-0.1695 l 2.68304,-0.34451 0.55949,-1.12586 0.0551,0.0524 c 0,0 0.0565,0.0551 0.40928,0.0551 l 1.5558,0.006 v -0.15434 c 0,0 0,-0.15434 -0.33073,-0.27698 l -1.15066,-0.42995 0.0207,-0.0634 c 0,0 0.0207,-0.062 0.35415,0.0551 l 1.11346,0.39412 0.0565,-0.0207 0.0992,0.0689 0.52228,0.1819 0.0772,-0.0358 0.0386,0.0841 0.9412,0.32936 0.0386,-0.11576 c 0,0 0.0386,-0.11575 -0.62288,-0.36242 l -1.80109,-0.66835 0.022,-0.0772 -0.0772,-0.0413 0.0703,-0.15297 0.0689,0.0207 0.0482,-0.0551 0.12126,0.0344 0.0772,-0.10748 0.0413,0.0207 -0.0138,0.0606 c 0,0 -0.0138,0.0606 0.31833,0.18328 l 1.64675,0.60496 0.11164,-0.0427 0.0276,0.0841 0.11851,0.0482 0.32246,-0.83096 0.36243,0.13918 -0.26459,0.76895 1.31465,0.47542 0.0275,0.0427 0.15297,0.062 -0.0413,0.0978 0.0772,0.0414 -0.062,0.12953 1.22232,-0.64768 0.007,-0.20808 0.0772,-0.11851 0.0937,-0.0841 -0.007,-0.062 -0.19154,-0.007 -0.0345,-0.72347 h 0.0689 l 0.0207,0.55948 0.0427,0.0289 0.1006,-0.0496 v -0.10473 h 0.26458 v 0.26183 l -0.0358,0.0965 0.0703,0.0344 h 0.40652 l 0.0772,-0.19706 -0.32384,-0.34864 h -0.10473 l -0.0896,-0.0482 -0.0207,-0.0909 0.0482,-0.0827 0.0689,-0.0455 h 0.0634 l -0.0207,-0.0758 -0.74138,-0.3142 0.0772,-0.18741 -0.0289,0.15296 0.98806,0.39688 0.11851,-0.11851 -0.0841,0.19154 -0.21222,-0.0868 -0.0482,0.0551 0.0276,0.0868 0.007,0.0772 0.34451,0.35416 0.10473,-0.0482 0.1254,-0.0344 0.15985,0.0207 0.12127,0.10473 0.1254,-0.0496 0.062,0.11851 0.27148,0.007 0.007,0.12816 0.0868,-0.0482 h 0.15985 v 0.062 h -0.1254 v 0.27836 l -0.12816,-0.10335 v 0.1943 h -0.33348 l -0.0978,0.0772 -0.1254,0.0717 -0.11438,0.0289 -0.0551,-0.0427 -0.0138,-0.0937 -0.15985,-0.0413 -0.091,-0.0551 -0.27424,0.40652 0.0207,0.0827 0.91777,0.48369 0.0138,0.0482 0.0758,-0.0414 0.17501,-0.36518 -0.0634,-0.0689 -0.0276,-0.11851 0.0634,-0.0978 0.14608,-0.0482 -0.091,0.38998 0.86266,0.007 0.21497,-0.43132 -0.0276,-0.11438 0.0345,-0.10473 0.12541,-0.0978 -0.062,-0.15985 0.0482,-0.11852 0.13918,-0.0551 -0.007,0.39688 -0.28525,0.43408 -0.0207,0.29903 -0.0565,0.11438 -0.0758,0.0551 -0.0703,0.0565 -0.0138,0.0758 -0.36518,0.0565 -0.0827,-0.007 -0.0841,-0.0413 -0.062,0.006 -0.18465,0.24392 h 0.17087 v 0.2191 h 0.16675 v 0.0772 h -0.15986 v 0.56637 h 0.0896 v 0.13918 h -1.36976 v 0.0455 c 0,0 0,0.0455 0.70555,0.0455 h 1.42627 v 0.90675 l 0.13229,-0.0965 0.062,0.0413 0.0841,-0.0276 0.19017,0.0896 0.0138,0.10749 -0.006,0.2508 -0.17777,0.29214 h -0.13229 l -0.11162,-0.0689 -0.0275,-0.13918 -0.18056,-0.1819 v 0.34176 h -0.48093 c -0.0179,0.10611 -0.0482,0.2577 -0.0813,0.34452 -0.0551,0.14744 -0.48782,0.45199 -0.70004,0.60908 -0.21222,0.15572 -0.96876,0.67248 -1.14377,0.70969 -0.17501,0.0372 -3.56912,0.0179 -3.74413,-0.0276 -0.17501,-0.0469 -1.00597,-0.57188 -1.00597,-0.57188 l -0.71934,-0.44374 -0.23013,-0.2756 -0.0413,-0.226 -0.23702,0.0854 h -0.12816 l -0.0427,0.0565 h -1.28571 v 0.16675 h -0.36242 v -0.15986 h -1.30776 v 0.31282 h -1.41387 c -0.10473,0.7028 -0.70969,1.243 -1.44143,1.243 -0.80477,0 -1.45658,-0.65182 -1.45658,-1.45659 0,-0.16261 0.0262,-0.31696 0.0744,-0.46164 l -0.25769,-0.0937 -0.0427,0.0427 0.0978,0.23013 -0.14883,-0.17501 -0.0937,-0.18052 c 0,0 -0.0951,-0.18052 -0.15709,-0.13643 0,0 0.062,-0.0441 0,0 0,0 -0.0634,0.0455 -0.062,0.0551 0.001,0.01 0.001,0.0276 0.001,0.0469 0,0.27148 -0.21911,0.49196 -0.49058,0.49196 -0.27147,0 -0.49058,-0.22048 -0.49058,-0.49196"
       id="U-S-T28E1" />
  </g>
</svg>
