<?xml version="1.0" encoding="UTF-8" standalone="no"?>
<!-- Created with Inkscape (http://www.inkscape.org/) -->

<svg
   width="21.96014mm"
   height="9.2235861mm"
   viewBox="0 0 21.96014 9.2235861"
   version="1.1"
   id="svg1"
   sodipodi:docname="inkporter-svg-d99oyvvw.svg"
   xmlns:inkscape="http://www.inkscape.org/namespaces/inkscape"
   xmlns:sodipodi="http://sodipodi.sourceforge.net/DTD/sodipodi-0.dtd"
   xmlns="http://www.w3.org/2000/svg"
   xmlns:svg="http://www.w3.org/2000/svg">
  <sodipodi:namedview
     id="namedview1"
     pagecolor="#ffffff"
     bordercolor="#666666"
     borderopacity="1.0"
     inkscape:showpageshadow="2"
     inkscape:pageopacity="0.0"
     inkscape:pagecheckerboard="0"
     inkscape:deskcolor="#d1d1d1"
     inkscape:document-units="mm"
     inkscape:zoom="0.72782688"
     inkscape:cx="397.07245"
     inkscape:cy="561.25984"
     inkscape:window-width="1920"
     inkscape:window-height="1017"
     inkscape:window-x="-8"
     inkscape:window-y="770"
     inkscape:window-maximized="1"
     inkscape:current-layer="layer1" />
  <defs
     id="defs1" />
  <g
     inkscape:label="Layer 1"
     inkscape:groupmode="layer"
     id="layer1"
     transform="translate(-109.2732,-234.68541)">
    <path
       id="U-S-M36B1"
       d="m 123.93455,234.68541 v 0.0563 h -0.12919 v 0.0486 h -0.30489 v 0.0398 h 0.0207 v 0.14315 h -0.14159 v 0.10748 h 0.14159 v 0.11989 h -0.0207 v 0.0403 h 0.28112 v 0.015 h 0.74001 c 0.0138,0.0799 0.0606,0.0927 0.11575,0.0734 0.0661,-0.0234 0.23048,-0.016 0.23048,-0.016 l 0.14883,0.13436 0.13332,0.0238 -0.0677,0.18913 0.0734,0.0253 0.0925,-0.26045 v 0.18191 h 0.31832 v 0.0785 h 0.0253 v 0.047 h -0.0253 v 0.39532 h -0.0842 v 0.0966 h -0.25222 c 0,-0.0882 -0.0992,-0.0951 -0.0992,-0.0951 0,0 -0.10335,-0.008 -0.10335,0.0817 0,0.0882 0.0646,0.11266 0.0646,0.11266 h -3.87366 v -0.3607 h -0.0786 v 0.3607 h -0.68058 l -0.21652,0.16123 c -0.01,-0.0262 -0.0343,-0.0455 -0.0646,-0.0455 -0.0386,0 -0.0692,0.0301 -0.0692,0.0687 0,0.022 0.011,0.0429 0.0289,0.0553 l -0.11162,0.0811 -0.12092,-0.20516 c 0,0 -0.0348,-0.0495 -0.0775,-0.0233 -0.0427,0.0262 -0.008,0.0786 -0.008,0.0786 l 0.11679,0.21755 -0.03,0.0238 -0.27698,0.10593 v -0.46147 h -0.10646 v 0.18449 c 0,0 -0.34726,-0.0356 -0.52503,0.22065 -0.0593,0.0854 -0.11816,0.14057 -0.17053,0.17777 v -2.07274 h -0.0413 v 2.10013 c -0.0813,0.0441 -0.13488,0.0424 -0.13488,0.0424 h -0.41909 c -0.0854,0 -0.10318,0.0788 -0.10594,0.10077 l -8.85269,0.14056 -5.2e-4,0.4036 8.84546,0.0909 v 0.001 c 0,0.13504 0.10594,0.12144 0.10594,0.12144 h 0.5612 v 0.32401 h 0.0413 v -0.32453 h 0.0713 c 0.113,0.29766 0.59531,0.41755 0.59531,0.41755 l 0.0362,-0.0992 h 0.15555 v 0.11472 h 0.004 v 0.0119 h -0.16537 v 0.0346 h -1.04438 v 0.16123 l -0.78962,0.0961 -0.12815,-0.0796 v 0.17776 l -0.21084,0.0661 v 0.62942 l -0.33642,0.2496 c -0.0179,-0.1695 -0.11851,-0.31678 -0.26045,-0.31678 -0.15572,0 -0.26044,0.17777 -0.26044,0.36794 0,0.0193 10e-5,0.037 0.003,0.0563 h -0.99788 v 0.11318 h 0.61185 l 0.1447,0.27543 -0.43409,0.34055 h -0.25734 l 0.015,-0.14625 0.17777,-0.0331 v -0.17777 l -0.30748,-0.0646 h -0.17621 v 0.38861 l -0.33745,0.0331 -0.22634,0.0646 -0.19431,0.1447 -0.0961,0.13074 0.20257,0.24701 c -0.21911,0.19293 -0.39033,0.46027 -0.39584,0.75655 -0.011,0.5319 0.0801,0.69005 0.56379,1.1007 0.45337,0.38447 1.29001,0.93845 1.84123,0.93845 0.30454,0 2.8329,0.008 2.8329,0.008 h 7.54476 c 0.41066,0.0455 0.89039,-0.065 1.24592,-0.26614 0.51952,-0.2949 1.55993,-0.66559 1.95543,-1.02112 0.38998,-0.34864 0.37191,-1.01407 0.2217,-1.21802 -0.15021,-0.20257 0.0413,-0.35553 0.0413,-0.35553 0.19293,-0.15158 0.19327,-0.30903 0.19327,-0.30903 v -0.15709 h 0.25631 l 0.31109,0.0858 -0.25476,-0.2868 -0.31316,0.002 v -0.19999 h 0.19844 v -0.40618 h -0.29197 l -0.14211,-0.601 h -0.34159 l -0.14211,-0.23564 h -0.19017 l 0.0114,0.18035 -0.41754,-0.0935 -0.0786,-0.1571 h -0.38034 v 0.10077 l -1.73788,-0.24701 v -0.22841 l -0.61753,-0.14625 h -1.06247 v 0.12971 h -0.17776 v -0.004 h 0.12505 c 0.004,-0.0296 0.005,-0.0784 0.007,-0.11937 l 0.11834,-0.0909 h -0.11266 c 0.004,-0.27706 0.23668,-0.25632 0.23668,-0.25632 0,0 1.6633,-0.0539 2.02158,-0.0677 0.35832,-0.0138 0.36949,-0.26975 0.36949,-0.26975 v -0.53227 h 0.15968 v 0.0403 h 0.2372 v -0.21394 h -0.032 v -0.0341 h 0.032 v -0.0791 h -0.2372 v 0.0791 h 0.0207 v 0.0341 h -0.0207 v 0.0181 h -0.15968 v -0.30179 h 0.11266 l 0.17363,-0.27853 c 0.0455,-0.0124 0.0791,-0.0521 0.0791,-0.10026 0,-0.0565 -0.0455,-0.10231 -0.10335,-0.10231 -0.0565,0 -0.10232,0.0459 -0.10232,0.10231 0,0.0276 0.0108,0.051 0.0269,0.0703 l -0.10077,0.17467 h -0.0858 v -0.13901 c 0,-0.20119 -0.20257,-0.17363 -0.20257,-0.17363 h -0.24546 v -0.0729 h -0.0718 v -0.33382 h 0.0145 v -0.12093 h -0.0605 v 0.45475 h -0.0687 v 0.0729 h -1.5353 v -0.0966 h -0.0868 v -0.39532 h -0.0289 v -0.047 h 0.0289 v -0.0785 h 0.11576 v -0.17209 l 0.22737,-0.21394 0.0191,-0.0605 h 0.68213 v -0.0687 h 0.12403 v 0.0191 h 0.0512 v 0.13643 l -0.03,0.0305 h -0.1819 c 0,0 -0.0858,-0.0153 -0.0858,0.0977 0,0.113 0.0884,0.11628 0.0884,0.11628 h 0.63251 c 0,0 0.0951,-3.5e-4 0.0951,-0.10646 0,-0.1061 -0.0868,-0.10903 -0.0868,-0.10903 h -0.17776 l -0.0357,-0.0331 v -0.13229 h 0.0548 v -0.0315 l 2.04535,-0.0372 v 0.0212 h 0.21756 v -0.15606 h -0.21756 v 0.0191 l -2.04535,-0.0238 v -0.0377 h -0.3235 v 0.0377 h -0.12402 v -0.0729 h -0.92914 v -0.0264 h 0.0165 v -0.0987 h -0.14572 v 0.0367 h -0.22325 v 0.0491 h -1.28157 v -0.0491 h -0.12299 v -0.0558 z m -0.32143,0.14469 h 0.16795 v 0.14315 h -0.16795 z m 0,0.25115 h 0.16795 v 0.11937 h -0.16795 z m 0.95343,0.17467 h 0.0837 c 0,0.022 -0.0188,0.0403 -0.0408,0.0403 -0.0234,0 -0.0429,-0.0182 -0.0429,-0.0403 z m 0.15038,0 h 0.077 c -0.006,0.0152 -0.0203,0.0263 -0.0382,0.0263 -0.0179,0 -0.0333,-0.0111 -0.0388,-0.0263 z m 0.28784,0 h 0.24288 v 0.0785 c -0.0413,-0.0152 -0.1354,-0.0468 -0.24288,-0.0785 z m 3.05149,3.20704 v 0.002 h 0.26562 v -0.002 z m -11.30215,0.96583 c 0.0937,0 0.19017,0.1185 0.19017,0.2067 0,0.0882 -0.0388,0.11731 -0.0388,0.11731 -0.0372,0.0276 -0.18707,0.0274 -0.18707,0.0274 h -0.14882 c -0.003,-0.0179 -0.004,-0.037 -0.004,-0.0563 0,-0.17639 0.0963,-0.29507 0.18862,-0.29507 z m 12.1481,2.87682 c 0.13367,0.24253 0.38584,0.41066 0.67799,0.42582 -0.0937,0.0482 -0.19826,0.0978 -0.25476,0.12402 -0.0565,0.0262 -0.11834,-0.0413 -0.11834,-0.0413 -0.062,-0.0661 -0.11317,-0.0429 -0.11317,-0.0429 l -0.0512,0.0264 0.0362,0.17105 -0.16846,0.0796 -0.11834,-0.12815 -0.10336,0.0496 0.0357,0.1695 -0.16692,0.0827 -0.11988,-0.12919 -0.10181,0.0506 0.0357,0.16846 c -0.0799,0.0372 -0.15985,0.0741 -0.23978,0.10853 0.0593,-0.11024 0.0925,-0.2353 0.0925,-0.36897 0,-0.15986 -0.048,-0.3104 -0.13074,-0.43305 h 0.47232 z m -4.96197,0.31265 h 0.46973 c -0.0841,0.12264 -0.13229,0.27268 -0.13229,0.43253 0,0.16261 0.0494,0.31418 0.13488,0.43821 h -0.10439 l -0.0429,0.1726 h -0.18345 l -0.0522,-0.1726 h -0.0935 c 0.0854,-0.12403 0.13488,-0.2756 0.13488,-0.43821 0,-0.15985 -0.048,-0.30989 -0.13074,-0.43253 z m -4.13567,0.0289 h 0.43253 c -0.0717,0.11713 -0.11265,0.25614 -0.11265,0.40359 0,0.16261 0.0494,0.31418 0.13487,0.43821 h -0.10748 l -0.0439,0.1726 h -0.18345 l -0.0522,-0.1726 h -0.0884 c 0.0841,-0.12403 0.13384,-0.2756 0.13384,-0.43821 0,-0.14745 -0.0415,-0.28646 -0.11317,-0.40359 z m -4.10776,0.11265 h 0.32918 c -0.0358,0.0909 -0.0548,0.18707 -0.0548,0.29042 0,0.0786 0.012,0.15468 0.0341,0.22634 l -0.0744,-0.0444 -0.13075,0.13229 c -0.0524,-0.0289 -0.10351,-0.0579 -0.1297,-0.0744 -0.0262,-0.0138 -0.003,-0.10852 -0.003,-0.10852 0.0234,-0.0937 -0.0248,-0.12402 -0.0248,-0.12402 l -0.0496,-0.0289 -0.13229,0.13332 c -0.051,-0.0345 -0.10076,-0.0673 -0.15038,-0.1018 l 0.0439,-0.17622 -0.0496,-0.032 c 0.14056,0 0.2732,-0.0328 0.39171,-0.092 z m -0.75086,0.015 c 0.0896,0.04 0.18587,0.0661 0.28784,0.0744 l -0.0894,0.0894 c -0.051,-0.04 -0.0992,-0.0783 -0.14469,-0.11679 z m 10.85567,0.10128 h 0.9002 c -0.0138,0.0565 -0.0207,0.11404 -0.0207,0.17467 0,0.24805 0.11714,0.46887 0.29766,0.61081 h -0.22738 l -0.0537,-0.1726 h -0.11472 l -0.0424,0.1726 h -0.18345 l -0.0522,-0.1726 h -0.11317 l -0.0439,0.1726 h -0.18345 l -0.0522,-0.1726 h -0.11472 l -0.0424,0.1726 h -0.23047 c 0.1805,-0.14194 0.29662,-0.36276 0.29662,-0.61081 0,-0.0606 -0.007,-0.11817 -0.0196,-0.17467 z m -4.14755,0.0274 h 0.88884 c -0.01,0.0482 -0.014,0.0976 -0.014,0.14728 0,0.24805 0.11422,0.46887 0.29611,0.61081 h -0.22841 l -0.0527,-0.1726 h -0.11266 l -0.0444,0.1726 h -0.18293 l -0.0527,-0.1726 h -0.11421 l -0.0429,0.1726 h -0.18293 l -0.0537,-0.1726 h -0.11317 l -0.0439,0.1726 h -0.22893 c 0.17915,-0.14194 0.29662,-0.36276 0.29662,-0.61081 0,-0.0496 -0.004,-0.099 -0.0139,-0.14728 z m -4.146,0.0429 0.0341,0.015 h 0.83819 c -0.003,0.0289 -0.006,0.059 -0.006,0.0894 0,0.2464 0.11556,0.46524 0.293,0.6072 l -0.23047,-5.2e-4 -0.0512,-0.16847 h -0.11421 l -0.0413,0.16847 h -0.18759 l -0.0491,-0.16847 h -0.11472 l -0.0424,0.16692 h -0.18604 l -0.0512,-0.16692 h -0.11317 l -0.0413,0.16537 h -0.21601 c 0.17501,-0.14194 0.28629,-0.35966 0.28629,-0.60358 0,-0.0358 -0.003,-0.07 -0.007,-0.10439 z m -1.48725,0.37672 c 0.0276,0.073 0.065,0.14073 0.0884,0.17105 0.0234,0.0289 0,0.0207 0,0.0207 h -5.2e-4 c -0.0248,-0.011 -0.0729,-0.0315 -0.0977,-0.0439 -0.0234,-0.011 -0.008,-0.0801 -0.008,-0.0801 z m 4.24832,0.18139 c 0.0441,0.0593 0.0949,0.11162 0.15141,0.15709 h -0.10335 z m 4.15995,0.008 c 0.0413,0.0565 0.091,0.1061 0.1447,0.14882 h -0.0977 z m -0.52348,0.0191 -0.0331,0.1297 h -0.0977 c 0.0482,-0.0386 0.0921,-0.0815 0.13074,-0.1297 z m -4.15892,0.007 -0.0315,0.12299 h -0.0935 c 0.0469,-0.0358 0.0878,-0.0789 0.12505,-0.12299 z" />
  </g>
</svg>
