<?xml version="1.0" encoding="UTF-8" standalone="no"?>
<!-- Created with Inkscape (http://www.inkscape.org/) -->

<svg
   width="7.2130299mm"
   height="5.9128098mm"
   viewBox="0 0 7.2130299 5.9128098"
   version="1.1"
   id="svg1"
   sodipodi:docname="inkporter-svg-u92kt6ll.svg"
   xmlns:inkscape="http://www.inkscape.org/namespaces/inkscape"
   xmlns:sodipodi="http://sodipodi.sourceforge.net/DTD/sodipodi-0.dtd"
   xmlns="http://www.w3.org/2000/svg"
   xmlns:svg="http://www.w3.org/2000/svg">
  <sodipodi:namedview
     id="namedview1"
     pagecolor="#ffffff"
     bordercolor="#666666"
     borderopacity="1.0"
     inkscape:showpageshadow="2"
     inkscape:pageopacity="0.0"
     inkscape:pagecheckerboard="0"
     inkscape:deskcolor="#d1d1d1"
     inkscape:document-units="mm"
     inkscape:zoom="3.2729938"
     inkscape:cx="356.096"
     inkscape:cy="612.43623"
     inkscape:window-width="3840"
     inkscape:window-height="2066"
     inkscape:window-x="2869"
     inkscape:window-y="-11"
     inkscape:window-maximized="1"
     inkscape:current-layer="layer1" />
  <defs
     id="defs1" />
  <g
     inkscape:label="Layer 1"
     inkscape:groupmode="layer"
     id="layer1"
     transform="translate(-123.99038,-155.31042)">
    <g
       id="U-S-InfantryHQ3b"
       transform="translate(-182.02319,-275.82127)">
      <path
         id="path117312-5-9-0"
         style="fill:#000000;stroke-width:0.0292891"
         d="m 310.20709,436.95039 0.0945,-0.0163 -0.003,-0.0673 -0.003,-0.0673 -0.1133,-0.071 c -0.0623,-0.0391 -0.13201,-0.0983 -0.15484,-0.1315 l -0.0415,-0.0604 0.0132,-0.19569 c 0.0151,-0.22446 0.0119,-0.20296 0.0466,-0.2999 0.0147,-0.041 0.0319,-0.15397 0.0381,-0.25102 0.006,-0.0971 0.0282,-0.27072 0.0486,-0.3859 l 0.0371,-0.20942 -0.0309,-0.0495 -0.0309,-0.0495 0.0618,-0.13778 c 0.034,-0.0758 0.0598,-0.18086 0.0573,-0.23351 -0.002,-0.0526 0.008,-0.10446 0.0239,-0.11517 l 0.0284,-0.0195 -0.007,-0.15606 -0.007,-0.15605 0.0432,-0.019 0.0431,-0.019 -0.003,-0.067 -0.003,-0.067 0.0535,-0.0371 0.0535,-0.0371 0.026,-0.14237 c 0.0286,-0.15632 0.0333,-0.29456 0.0124,-0.36163 l -0.0135,-0.0433 0.0916,-0.0133 c 0.0504,-0.007 0.11146,-0.0374 0.13571,-0.0669 0.0522,-0.0634 0.0555,-0.17456 0.0145,-0.48299 l -0.0304,-0.22781 -0.0541,-0.0908 c -0.0297,-0.05 -0.055,-0.0974 -0.056,-0.10564 -0.001,-0.008 -0.0575,-0.0755 -0.12556,-0.14955 l -0.12364,-0.13469 0.006,-0.0528 c 0.004,-0.0291 -0.0152,-0.0688 -0.0409,-0.0882 l -0.0468,-0.0352 -0.0869,0.0217 -0.0869,0.0217 -0.002,-0.0431 -0.002,-0.0432 -0.10606,0.005 -0.10606,0.005 0.0133,-0.0877 c 0.008,-0.0482 0.0399,-0.11703 0.0726,-0.15291 l 0.0594,-0.0653 -0.0235,-0.0767 c -0.0298,-0.0973 -0.0351,-0.18925 -0.0163,-0.28221 l 0.0148,-0.0732 -0.0592,-0.0539 -0.0592,-0.0539 -0.16699,-0.0129 -0.16698,-0.0129 -0.0751,0.0615 -0.0751,0.0615 -0.002,0.14301 c -10e-4,0.0787 -0.0155,0.16031 -0.0314,0.18141 l -0.0289,0.0384 0.022,0.0726 c 0.0121,0.04 0.0348,0.072 0.0506,0.0713 l 0.0287,-0.001 0.005,0.11565 0.005,0.11565 -0.10827,0.0356 c -0.0595,0.0196 -0.12399,0.0365 -0.1432,0.0374 -0.0192,0.001 -0.051,0.0262 -0.0706,0.0561 -0.039,0.0593 -0.18169,0.16323 -0.32761,0.23867 -0.0512,0.0264 -0.0923,0.0641 -0.0914,0.0836 9.2e-4,0.0195 -0.0365,0.10153 -0.083,0.18231 l -0.0847,0.1468 0.022,0.10444 0.022,0.10443 -0.0365,0.0795 c -0.0201,0.0437 -0.0433,0.12816 -0.0515,0.18757 l -0.015,0.10803 0.0784,0.0713 c 0.0431,0.0392 0.0636,0.072 0.0455,0.0728 -0.0807,0.004 0.0344,0.0458 0.13685,0.0499 l 0.0257,7.9e-4 -0.0132,0.0873 -0.0132,0.0873 0.0477,0.10068 c 0.0262,0.0553 0.0484,0.11424 0.0492,0.13086 7.8e-4,0.0166 -0.0315,0.0317 -0.0717,0.0336 -0.0827,0.004 -0.0925,0.0384 -0.0251,0.0892 0.0251,0.0189 0.0463,0.0496 0.0472,0.0683 8.8e-4,0.0187 -0.0737,0.11579 -0.16575,0.21588 -0.0921,0.10005 -0.16655,0.19885 -0.16558,0.21947 0.004,0.0789 0.0818,0.0273 0.21955,-0.14485 0.0787,-0.0983 0.16978,-0.18718 0.20247,-0.19739 l 0.0594,-0.0186 0.002,0.0387 c 0.001,0.0213 0.0173,0.0431 0.0362,0.0483 l 0.0344,0.01 -0.0538,0.18807 c -0.0296,0.10344 -0.0466,0.19852 -0.0379,0.21132 0.009,0.0128 0.003,0.0849 -0.0119,0.16024 l -0.0277,0.13699 0.0498,0.0453 0.0498,0.0453 -0.0591,0.0693 -0.0592,0.0693 0.0126,0.16166 c 0.007,0.0889 0.0147,0.18464 0.017,0.21276 0.002,0.0281 0.007,0.14336 0.009,0.25613 0.002,0.11278 0.0119,0.23109 0.0204,0.26294 0.009,0.0318 0.01,0.14169 0.001,0.24416 l -0.0138,0.18624 -0.0652,0.077 c -0.0359,0.0423 -0.11302,0.10434 -0.17139,0.13779 -0.0584,0.0335 -0.11768,0.0851 -0.1318,0.1149 l -0.0257,0.054 0.0231,0.0337 c 0.0127,0.0185 0.0834,0.0391 0.15711,0.0457 l 0.13398,0.012 0.0971,-0.0505 c 0.0534,-0.0279 0.14308,-0.0567 0.19918,-0.0642 l 0.10196,-0.0138 -0.0109,-0.14611 c -0.006,-0.0803 -0.0161,-0.19346 -0.0226,-0.25134 -0.007,-0.0579 0.003,-0.15308 0.0212,-0.21151 l 0.0328,-0.10625 0.0472,-0.0147 0.0473,-0.0147 0.0282,-0.16177 c 0.0155,-0.0889 0.0217,-0.2396 0.0138,-0.33473 -0.008,-0.0951 -10e-4,-0.24211 0.0154,-0.3266 l 0.0299,-0.15364 0.0629,-0.012 0.0629,-0.012 0.0273,-0.1004 0.0273,-0.1004 0.0217,0.0494 c 0.0119,0.0272 0.0154,0.0608 0.008,0.0749 -0.007,0.014 0.002,0.0849 0.0221,0.15763 l 0.0363,0.1322 -0.0207,0.11785 -0.0207,0.11786 0.0404,0.22568 c 0.0618,0.34549 0.0754,0.53523 0.0476,0.66519 -0.0139,0.0651 -0.024,0.17779 -0.0225,0.25029 l 0.002,0.13184 0.0869,0.006 c 0.0478,0.003 0.11435,0.0231 0.1479,0.0444 0.0604,0.0382 0.09,0.039 0.27372,0.007 z m -1.43428,-2.90198 c -0.0108,-0.0156 -0.005,-0.0291 0.0115,-0.0299 0.0171,-8e-4 0.0316,0.0117 0.0323,0.0278 7.6e-4,0.0161 -0.005,0.0296 -0.0115,0.0299 -0.007,3.3e-4 -0.0217,-0.0122 -0.0323,-0.0278 z m 0.0982,-0.86731 c 0.004,-0.002 0.0388,-0.0311 0.0772,-0.0649 l 0.0699,-0.0617 -0.0371,0.0529 -0.0371,0.0529 0.019,0.0606 0.019,0.0606 -0.0591,-0.0486 c -0.0325,-0.0267 -0.0557,-0.05 -0.0517,-0.0519 z" />
      <path
         id="path117308-0-8-9"
         style="fill:#000000;stroke-width:0.0292891"
         d="m 306.97773,436.9853 c -0.0373,-0.0373 -0.0191,-0.12161 0.0533,-0.24841 0.0401,-0.0701 0.073,-0.15258 0.0732,-0.18326 v -0.0558 l -0.0512,0.044 c -0.0282,0.0242 -0.0737,0.052 -0.10108,0.0616 l -0.0498,0.0176 -0.0667,-0.054 -0.0667,-0.054 0.0354,-0.15687 c 0.0195,-0.0863 0.0516,-0.21294 0.0714,-0.28148 l 0.0359,-0.12461 -0.1429,-0.14508 -0.1429,-0.14509 -0.0856,-0.0188 -0.0856,-0.0188 -0.0702,-0.15085 c -0.0386,-0.083 -0.0704,-0.16626 -0.0705,-0.18509 0,-0.0188 0.0224,-0.0738 0.0502,-0.12223 l 0.0505,-0.088 -0.0535,-0.0591 -0.0535,-0.0591 0.0221,-0.15549 c 0.0122,-0.0855 0.0248,-0.18843 0.028,-0.2287 0.003,-0.0403 0.0276,-0.14481 0.0541,-0.23231 0.0265,-0.0875 0.0482,-0.16898 0.0482,-0.18108 0,-0.0121 -0.025,-0.0299 -0.0556,-0.0396 l -0.0556,-0.0176 0.002,-0.10881 c 0.001,-0.0598 -0.0117,-0.17811 -0.0279,-0.26282 l -0.0295,-0.15401 0.0396,-0.0763 c 0.0218,-0.042 0.0396,-0.0781 0.0395,-0.0803 -7e-5,-0.002 -0.0452,-0.006 -0.10026,-0.009 -0.13678,-0.007 -0.21752,-0.0556 -0.23982,-0.14443 l -0.0187,-0.0746 0.0477,-0.14759 c 0.0262,-0.0812 0.0477,-0.18735 0.0477,-0.23596 v -0.0884 l 0.0657,-0.10597 c 0.0362,-0.0583 0.0675,-0.11586 0.0696,-0.12794 0.002,-0.0121 0.006,-0.0351 0.008,-0.0513 0.002,-0.0161 0.0179,-0.0293 0.0352,-0.0293 0.0407,0 0.25952,-0.23814 0.26055,-0.2836 10e-4,-0.0387 0.10401,-0.0799 0.14172,-0.0566 0.0134,0.008 0.065,-0.01 0.11468,-0.04 l 0.0904,-0.055 -0.0399,-0.11193 c -0.022,-0.0616 -0.0405,-0.15435 -0.0412,-0.2062 l -0.002,-0.0943 -0.0492,0.0189 -0.0492,0.0189 0.0492,-0.0702 c 0.027,-0.0386 0.0492,-0.11116 0.0492,-0.16115 v -0.0909 l 0.0678,-0.0637 0.0678,-0.0637 h 0.0803 c 0.10427,0 0.33729,0.0588 0.35656,0.09 0.008,0.0133 0.0199,0.12045 0.0261,0.23803 l 0.0111,0.2138 -0.0587,0.0959 -0.0587,0.0959 0.0163,0.0423 c 0.009,0.0233 0.0531,0.0511 0.098,0.0619 0.13828,0.0332 0.24117,0.0972 0.35024,0.21791 0.0575,0.0636 0.12069,0.11567 0.14048,0.11567 0.0198,0 0.0599,0.0264 0.089,0.0586 0.0292,0.0322 0.0441,0.0586 0.0333,0.0586 -0.0108,0 0.009,0.0556 0.0433,0.12364 0.0347,0.068 0.0741,0.16196 0.0875,0.20878 l 0.0244,0.0851 -0.0416,0.0593 -0.0416,0.0593 0.0238,0.0467 c 0.0131,0.0257 0.0315,0.097 0.041,0.15853 l 0.0172,0.1118 -0.0325,0.0713 c -0.0179,0.0392 -0.0487,0.0713 -0.0685,0.0713 -0.0401,0 -0.083,0.13371 -0.0566,0.17645 0.009,0.015 -0.0242,0.12315 -0.0744,0.24029 l -0.0913,0.21297 -0.092,0.0806 c -0.0506,0.0443 -0.0793,0.0807 -0.0638,0.081 0.0155,2.1e-4 0.0107,0.0115 -0.0105,0.025 l -0.0387,0.0246 0.0899,0.14184 c 0.0495,0.078 0.0899,0.15245 0.0899,0.1654 0,0.042 -0.0658,0.0249 -0.10378,-0.0271 l -0.037,-0.0506 -0.0412,0.10085 -0.0412,0.10086 0.0193,0.12714 0.0193,0.12715 -0.0563,0.0716 c -0.031,0.0394 -0.0817,0.0716 -0.11277,0.0716 h -0.0564 v 0.0993 c 0,0.0546 0.0261,0.15677 0.0579,0.22699 l 0.0579,0.12768 10e-4,0.13281 0.001,0.13282 -0.0621,0.17472 -0.0621,0.17472 v 0.17573 c 0,0.0967 0.009,0.24823 0.0202,0.33683 l 0.0206,0.16109 -0.0765,0.0805 -0.0765,0.0805 h -0.15502 c -0.0853,0 -0.16381,-0.009 -0.17455,-0.0195 z m 0.0152,-1.86245 c 0.0183,-0.0605 0.0257,-0.1176 0.0164,-0.12692 -0.0245,-0.0245 -0.13898,0.0972 -0.13898,0.14765 0,0.0234 0.0165,0.0786 0.0366,0.12276 l 0.0366,0.0802 0.008,-0.0568 c 0.005,-0.0312 0.0231,-0.10636 0.0414,-0.16684 z" />
      <path
         style="fill:#000000;stroke-width:0.00988633"
         d="m 312.70468,436.98971 c -0.0148,-0.005 -0.0388,-0.0181 -0.0532,-0.0294 l -0.0263,-0.0207 h -0.0534 c -0.0609,0 -0.10808,-0.017 -0.13675,-0.0491 l -0.0198,-0.0222 10e-4,-0.0558 c 8.1e-4,-0.0307 0.0112,-0.10246 0.0231,-0.15957 l 0.0218,-0.10381 0.007,-0.23233 c 0.008,-0.29003 0.008,-0.47266 -0.002,-0.54622 l -0.008,-0.0568 h -0.0173 c -0.009,0 -0.0503,0.0113 -0.0908,0.0251 l -0.0734,0.025 -0.12774,0.009 -0.12773,0.009 -0.0269,0.0257 -0.0268,0.0257 -0.0315,0.0797 -0.0315,0.0797 0.0101,0.12778 0.0101,0.12777 0.0248,0.0425 c 0.0137,0.0234 0.0409,0.0617 0.0606,0.0851 0.0197,0.0235 0.043,0.0564 0.0521,0.0731 l 0.0164,0.0304 v 0.0791 0.0791 l -0.0176,0.0354 -0.0176,0.0354 -0.0381,0.0215 -0.038,0.0215 h -0.046 c -0.0517,0 -0.10852,-0.0206 -0.14089,-0.051 l -0.0217,-0.0204 -0.008,0.0366 -0.008,0.0366 -0.0537,0.0631 c -0.0294,0.0348 -0.0724,0.0742 -0.0952,0.0874 -0.0448,0.0262 -0.15544,0.0552 -0.21006,0.0552 -0.0738,0 -0.18159,-0.0606 -0.27478,-0.15449 -0.0209,-0.0211 -0.0436,-0.0494 -0.0504,-0.063 -0.008,-0.0136 -0.0209,-0.0581 -0.031,-0.0989 l -0.0184,-0.0741 v -0.084 -0.084 l 0.0333,-0.0692 0.0333,-0.0692 -0.006,-0.053 -0.006,-0.053 -0.0497,-0.0861 c -0.0274,-0.0474 -0.0536,-0.0967 -0.0585,-0.10977 l -0.009,-0.0236 -0.008,0.0392 c -0.009,0.0466 -0.0312,0.11654 -0.048,0.14786 -0.007,0.0124 -0.0402,0.0527 -0.0745,0.0897 l -0.0624,0.0671 -0.006,0.028 -0.006,0.028 h -0.0298 -0.0298 l 0.006,-0.0489 c 0.008,-0.0664 0.0294,-0.10673 0.0834,-0.15493 l 0.0454,-0.0407 0.007,-0.0483 c 0.005,-0.0265 0.0145,-0.0655 0.0238,-0.0866 l 0.0169,-0.0383 -0.0179,0.007 c -0.0101,0.004 -0.0562,0.031 -0.10314,0.0607 l -0.0853,0.0538 h -0.0257 -0.0257 l -0.0101,-0.0191 c -0.0146,-0.0272 -0.0367,-0.14111 -0.0444,-0.22804 l -0.007,-0.0742 0.0129,-0.0175 c 0.0117,-0.0158 0.16525,-0.0853 0.27239,-0.12321 l 0.042,-0.0149 v -0.0374 -0.0373 l -0.0555,-0.0777 c -0.0306,-0.0427 -0.0941,-0.11992 -0.14137,-0.17157 -0.0472,-0.0517 -0.0964,-0.10954 -0.1092,-0.12853 -0.0129,-0.0191 -0.0366,-0.0472 -0.0528,-0.0625 l -0.0294,-0.0279 0.007,-0.071 c 0.003,-0.039 0.0101,-0.101 0.0153,-0.13781 0.008,-0.0612 0.0161,-0.0819 0.0643,-0.17044 0.009,-0.0163 0.047,-0.1 0.0847,-0.18595 0.0378,-0.086 0.0903,-0.19273 0.11693,-0.23726 0.0265,-0.0445 0.0585,-0.0995 0.0711,-0.12218 l 0.0227,-0.0412 0.0818,-0.0643 c 0.0449,-0.0354 0.10234,-0.0757 0.12749,-0.0898 0.0836,-0.0466 0.0953,-0.0576 0.16038,-0.15108 l 0.0647,-0.0928 -0.0122,-0.0294 -0.0121,-0.0294 0.007,-0.0474 0.007,-0.0474 -0.0199,-0.0776 -0.0199,-0.0776 v -0.0658 -0.0658 l 0.0164,-0.0486 c 0.009,-0.0267 0.0273,-0.0659 0.0404,-0.0871 0.0367,-0.0586 0.10572,-0.12064 0.16832,-0.1514 l 0.0565,-0.0277 h 0.0941 0.0942 l 0.0661,0.0325 0.0659,0.0325 0.041,0.0465 c 0.0225,0.0256 0.0583,0.0823 0.0795,0.12623 l 0.0387,0.0798 0.0297,0.0219 c 0.038,0.0281 0.0692,0.0893 0.07,0.13723 l 8.1e-4,0.0374 0.0131,-0.0297 c 0.008,-0.0163 0.0182,-0.0425 0.0244,-0.0582 l 0.0113,-0.0285 0.0444,0.006 c 0.0244,0.003 0.0681,0.0173 0.097,0.031 0.0289,0.0137 0.0566,0.0247 0.0614,0.0244 0.005,-2.7e-4 0.0229,-0.0125 0.0401,-0.0272 l 0.0311,-0.0269 0.0858,-0.17301 c 0.0472,-0.0952 0.10381,-0.21527 0.12578,-0.26692 0.0356,-0.0837 0.1028,-0.23088 0.20107,-0.44062 0.018,-0.0384 0.0418,-0.0955 0.0528,-0.12675 0.025,-0.0712 0.0538,-0.12126 0.0661,-0.11478 0.004,0.002 0.009,0.0214 0.008,0.0416 l -10e-4,0.0367 -0.0249,0.0425 c -0.0137,0.0234 -0.0469,0.096 -0.0738,0.16135 -0.0457,0.11133 -0.16626,0.37657 -0.21051,0.4634 -0.0112,0.0213 -0.03,0.0658 -0.0425,0.0989 -0.0125,0.033 -0.0461,0.10987 -0.0745,0.17056 l -0.0519,0.11043 0.0345,0.0345 0.0345,0.0345 0.028,0.0712 0.028,0.0712 0.0153,0.004 c 0.0397,0.0122 0.0608,0.0283 0.0663,0.05 l 0.006,0.0237 -0.0337,0.0363 c -0.0185,0.02 -0.0419,0.0462 -0.0519,0.0582 l -0.0182,0.0219 0.0162,0.0403 0.0162,0.0403 -0.007,0.0269 c -0.003,0.0147 -0.0121,0.0363 -0.0194,0.048 -0.008,0.0117 -0.0161,0.0431 -0.0197,0.07 l -0.007,0.0489 0.043,0.0536 c 0.0237,0.0294 0.0558,0.0736 0.0714,0.0981 0.0156,0.0245 0.069,0.0845 0.11862,0.13346 0.0496,0.049 0.10303,0.10785 0.11863,0.13085 l 0.0284,0.0419 8.1e-4,0.0725 8.2e-4,0.0725 -0.0281,0.037 -0.0281,0.037 -0.0535,0.0262 -0.0535,0.0262 -0.042,-0.0126 c -0.0231,-0.008 -0.0599,-0.0165 -0.0816,-0.0212 -0.0218,-0.004 -0.0596,-0.0131 -0.084,-0.0188 -0.0244,-0.006 -0.0479,-0.0101 -0.0519,-0.0101 -0.005,-2.7e-4 -0.008,0.0326 -0.008,0.0729 v 0.0733 l -0.0184,0.043 c -0.0101,0.0236 -0.0257,0.049 -0.0346,0.0564 -0.009,0.008 -0.0162,0.0173 -0.0162,0.022 0,0.0166 0.047,0.009 0.0738,-0.0126 l 0.0271,-0.0212 0.0283,0.0167 0.0283,0.0167 0.11646,-0.0354 c 0.0641,-0.0195 0.17312,-0.0531 0.24237,-0.0749 l 0.12591,-0.0394 0.0116,-0.0218 c 0.0129,-0.0245 0.0275,-0.0363 0.0452,-0.0365 0.0191,-2.7e-4 0.0622,0.052 0.0622,0.0756 v 0.0215 l -0.042,0.0154 c -0.0479,0.0175 -0.17291,0.0566 -0.25706,0.0804 l -0.0568,0.0161 v 0.0185 0.0185 l 0.0686,0.0361 c 0.0378,0.0199 0.0834,0.0504 0.10134,0.068 l 0.0327,0.0319 0.0324,0.0883 0.0324,0.0883 0.001,0.0494 c 10e-4,0.0673 -0.019,0.27769 -0.0326,0.32583 -0.006,0.0215 -0.0372,0.0893 -0.0693,0.15068 -0.0321,0.0614 -0.0583,0.12207 -0.0583,0.13488 0,0.0128 -0.0133,0.0429 -0.0294,0.0667 l -0.0295,0.0435 v 0.0277 c 0,0.0153 -0.0112,0.0509 -0.0244,0.0791 -0.0133,0.0282 -0.029,0.0825 -0.0348,0.1205 -0.0115,0.0749 -0.0215,0.10089 -0.0586,0.15134 l -0.024,0.0327 0.0175,0.0555 0.0175,0.0555 0.0534,0.0534 c 0.0587,0.0587 0.0731,0.0804 0.0731,0.10988 v 0.0197 l 0.0324,0.02 c 0.0177,0.0112 0.0427,0.031 0.0554,0.0445 l 0.023,0.0246 0.004,0.0497 0.005,0.0496 -0.0227,0.0144 c -0.0321,0.0203 -0.11688,0.0363 -0.22038,0.0414 l -0.089,0.004 z m -0.83221,-1.14497 c -0.003,-0.003 -0.0158,0.003 -0.0273,0.0144 l -0.0209,0.0209 0.007,0.0179 0.007,0.0179 0.0204,-0.0324 c 0.0112,-0.0178 0.0176,-0.0352 0.014,-0.0388 z m -0.90713,-0.76385 v -0.0346 l -0.008,0.0279 c -0.004,0.0153 -0.0135,0.034 -0.0198,0.0416 l -0.0115,0.0138 0.0128,0.0374 0.0129,0.0374 0.008,-0.0445 c 0.005,-0.0245 0.008,-0.0601 0.008,-0.0791 z m 0.0244,-0.12605 0.007,-0.0321 h -0.0146 -0.0146 l 8.1e-4,0.0568 8.2e-4,0.0568 0.008,-0.0247 c 0.004,-0.0136 0.0101,-0.0392 0.0137,-0.0568 z m 1.56923,-1.08743 0.0101,-0.0419 -0.0124,-0.0199 -0.0124,-0.0199 h -0.022 -0.022 l -0.0101,-0.02 -0.0112,-0.0199 0.009,-0.0165 0.009,-0.0165 -0.0256,-0.0401 c -0.014,-0.022 -0.0327,-0.0614 -0.0412,-0.0875 l -0.0157,-0.0474 -0.0218,0.0603 -0.0217,0.0603 0.0381,0.0373 0.0381,0.0373 0.008,0.0677 c 0.004,0.0373 0.0101,0.0758 0.0139,0.0856 0.003,0.0101 0.0221,0.0286 0.041,0.0417 l 0.0344,0.0237 0.002,-0.0212 c 10e-4,-0.0117 0.008,-0.0401 0.0125,-0.0631 z m -0.0521,-0.27935 c -0.0101,-0.0546 -0.0224,-0.0791 -0.0384,-0.0791 -0.0158,0 -0.009,0.0351 0.0172,0.0875 0.0143,0.0285 0.0272,0.0505 0.0288,0.0489 10e-4,-10e-4 -0.001,-0.0274 -0.008,-0.0573 z m 0.0827,-0.0362 -0.0101,-0.0182 v 0.0292 0.0292 l 0.0112,-0.0112 0.0112,-0.0112 -0.0101,-0.0182 z m -0.0145,-0.0397 c -0.003,-0.003 -0.007,-6.8e-4 -0.007,0.007 0,0.008 0.003,0.0101 0.007,0.007 0.003,-0.003 0.003,-0.009 0,-0.0131 z m -0.0313,-0.0765 c -0.0233,-0.0492 -0.0579,-0.0846 -0.0704,-0.072 -0.002,0.002 -0.008,0.0197 -0.0101,0.038 l -0.006,0.0336 0.0341,0.0122 c 0.0188,0.007 0.0421,0.0211 0.0519,0.032 0.0101,0.0112 0.0197,0.0179 0.0219,0.0156 0.002,-0.002 -0.008,-0.029 -0.022,-0.0594 z"
         id="path108633-1-4-5" />
    </g>
  </g>
</svg>
