<?xml version="1.0" encoding="UTF-8" standalone="no"?>
<!-- Created with Inkscape (http://www.inkscape.org/) -->

<svg
   width="19.843843mm"
   height="12.31531mm"
   viewBox="0 0 19.843843 12.31531"
   version="1.1"
   id="svg13154"
   sodipodi:docname="inkporter-svg-4zg4vxuo.svg"
   xmlns:inkscape="http://www.inkscape.org/namespaces/inkscape"
   xmlns:sodipodi="http://sodipodi.sourceforge.net/DTD/sodipodi-0.dtd"
   xmlns="http://www.w3.org/2000/svg"
   xmlns:svg="http://www.w3.org/2000/svg">
  <sodipodi:namedview
     id="namedview13156"
     pagecolor="#ffffff"
     bordercolor="#666666"
     borderopacity="1.0"
     inkscape:pageshadow="2"
     inkscape:pageopacity="0.0"
     inkscape:pagecheckerboard="0"
     inkscape:document-units="mm"
     showgrid="false"
     inkscape:zoom="1.2810466"
     inkscape:cx="329.80846"
     inkscape:cy="654.54295"
     inkscape:window-width="1920"
     inkscape:window-height="1017"
     inkscape:window-x="-8"
     inkscape:window-y="-8"
     inkscape:window-maximized="1"
     inkscape:current-layer="layer1" />
  <defs
     id="defs13151" />
  <g
     inkscape:label="Layer 1"
     inkscape:groupmode="layer"
     id="layer1"
     transform="translate(-61.643184,-144.20073)">
    <path
       d="m 81.412496,152.68289 -0.139181,-0.0537 v -1.61506 h -0.808909 v -1.65503 c 0.0055,0 0.0096,10e-4 0.01517,10e-4 0.139182,0 0.25218,-0.0675 0.25218,-0.14883 v -0.40928 h 0.180524 v -0.21083 h -0.180524 v -1.88792 h 0.180524 v -0.21084 h -0.180524 v -2.14285 c -0.0014,-0.0813 -0.112998,-0.14882 -0.25218,-0.14882 -0.139184,0 -0.252183,0.0675 -0.252183,0.1502 v 2.14147 h -0.08819 v -2.14285 c -0.0014,-0.0813 -0.114378,-0.14882 -0.25218,-0.14882 -0.140561,0 -0.252183,0.0675 -0.252183,0.1502 v 2.14147 h -0.08957 v -2.14285 c -0.0014,-0.0813 -0.112999,-0.14882 -0.252183,-0.14882 -0.139182,0 -0.25218,0.0675 -0.25218,0.1502 v 2.14147 h -0.08819 v -2.14285 c -0.0014,-0.0813 -0.112998,-0.14882 -0.252179,-0.14882 -0.139182,0 -0.252183,0.0675 -0.252183,0.1502 v 2.14147 h -0.08957 v -2.14285 c 0,-0.0813 -0.113001,-0.14882 -0.250804,-0.14882 -0.14056,0 -0.252179,0.0675 -0.252179,0.1502 v 2.14147 h -0.08957 v -2.14285 c -0.0014,-0.0813 -0.112998,-0.14882 -0.25218,-0.14882 -0.139185,0 -0.252183,0.0675 -0.252183,0.1502 v 2.14147 h -0.08819 v -2.14285 c -0.0014,-0.0813 -0.114378,-0.14882 -0.25218,-0.14882 -0.139181,0 -0.252183,0.0675 -0.252183,0.1502 v 2.14147 h -0.08957 v -2.14285 c 0,-0.0813 -0.112999,-0.14882 -0.250804,-0.14882 -0.140561,0 -0.253559,0.0675 -0.253559,0.1502 v 2.14147 H 75.89484 v 0.21084 h 0.180524 v 1.88792 H 75.89484 v 0.21084 h 0.180524 v 0.40927 c 0.0014,0.0827 0.114377,0.14883 0.252179,0.14883 0.0055,0 0.0096,-10e-4 0.01517,-10e-4 v 1.65502 h -1.686719 v -1.65502 c 0.0041,0 0.0096,10e-4 0.01517,10e-4 0.139181,0 0.252183,-0.0675 0.252183,-0.14883 V 148.802 h 0.18052 v -0.21084 h -0.18052 v -1.88792 h 0.18052 v -0.21084 h -0.18052 v -2.14285 c -0.0014,-0.0813 -0.114378,-0.14882 -0.252183,-0.14882 -0.140561,0 -0.25218,0.0675 -0.25218,0.1502 v 2.14147 h -0.08819 v -2.14285 c -0.0014,-0.0813 -0.114377,-0.14882 -0.253559,-0.14882 -0.139181,0 -0.252183,0.0675 -0.252183,0.1502 v 2.14147 h -0.08819 v -2.14285 c -0.0014,-0.0813 -0.112998,-0.14882 -0.25218,-0.14882 -0.139181,0 -0.252179,0.0675 -0.252179,0.1502 v 2.14147 h -0.08819 v -2.14285 c -0.0014,-0.0813 -0.114378,-0.14882 -0.252183,-0.14882 -0.139182,0 -0.25218,0.0675 -0.25218,0.1502 v 2.14147 h -0.08957 v -2.14285 c -0.0014,-0.0813 -0.112998,-0.14882 -0.252179,-0.14882 -0.139182,0 -0.25218,0.0675 -0.25218,0.1502 v 2.14147 h -0.08819 v -2.14285 c -0.0014,-0.0813 -0.113002,-0.14882 -0.252184,-0.14882 -0.139181,0 -0.252179,0.0675 -0.252179,0.1502 v 2.14147 h -0.08819 v -2.14285 c -0.0014,-0.0813 -0.114377,-0.14882 -0.253559,-0.14882 -0.139181,0 -0.252183,0.0675 -0.252183,0.1502 v 2.14147 h -0.08819 v -2.14285 c -0.0014,-0.0813 -0.112999,-0.14882 -0.25218,-0.14882 -0.139181,0 -0.25218,0.0675 -0.25218,0.1502 v 2.14147 h -0.180523 v 0.21084 h 0.180523 v 1.88792 h -0.180523 v 0.011 l -0.121267,-0.21222 h -2.659613 v -0.32246 h 1.339451 v -0.0923 l 0.108864,-0.004 v -0.3073 l -0.04547,0.004 h -0.06339 v -0.0372 h -0.165364 l -0.206707,-0.17225 v -0.0427 h -0.181899 v 0.21497 h -0.797917 v -0.0799 h -0.292145 v 0.1695 h -1.004588 v 0.0785 h -1.402842 v -0.0455 h -0.205327 v 0.15709 h 0.205327 v -0.0358 h 1.402842 v 0.0992 h 0.03306 l -0.03583,0.0482 h -0.165364 v 0.15571 h 0.570505 v -0.1502 h -0.139182 l -0.03447,-0.0538 h 0.775832 v 0.0262 h 0.0248 v 0.38998 h -0.235645 v 0.16261 h 0.06477 v 0.52641 l -0.14745,0.004 -0.08544,0.0648 -0.0096,0.11714 0.04272,0.11713 -0.04272,0.88608 -0.06477,0.0854 0.01101,0.79099 h -0.288011 v -0.0758 h -0.587044 v 0.0758 l -0.620116,0.0427 -0.897103,0.0951 -0.618741,0.15021 -0.438213,0.14883 -0.31006,0.15021 -0.24529,0.21359 v 0.15985 h -0.159854 v 0.77997 l 0.08544,0.0744 -0.202572,0.14883 v 0.10748 h 0.308681 v 0.75792 h -0.330729 v -0.17087 H 61.86367 v 0.0965 h -0.220486 v 0.53743 h 0.854382 l 0.152961,0.0179 c -0.08957,0.18742 -0.139181,0.39826 -0.139181,0.62012 0,0.79513 0.646299,1.44143 1.441429,1.44143 0.796505,0 1.441428,-0.6463 1.441428,-1.44143 0,-0.10611 -0.01101,-0.20808 -0.03168,-0.3073 l 0.08957,0.011 0.413409,-0.4396 h 0.195683 l 0.04961,0.56086 h 0.927417 l 0.09784,-0.41479 h 1.805228 l 0.146074,0.53744 h 0.268718 l 0.172254,0.0978 0.121268,-0.70831 0.09784,0.31695 h 0.87781 l 0.04961,-0.31695 h 2.440506 l 0.146071,0.31695 h 0.147451 v -0.38999 h 0.366582 c -0.128157,0.21497 -0.201193,0.46578 -0.201193,0.73588 0,0.79512 0.64492,1.44142 1.441426,1.44142 0.669727,0 1.231967,-0.45613 1.420759,-1.03628 h 0.191548 v 0.11713 h 0.140557 l 0.05237,-0.14883 0.05375,0.0744 0.08544,0.0317 0.08544,-0.0317 0.08131,-0.11437 c 0.150205,0.63528 0.72209,1.10794 1.402842,1.10794 0.796505,0 1.441429,-0.6463 1.441429,-1.44142 0,-0.2701 -0.07304,-0.5209 -0.201193,-0.73588 h 0.424434 l -0.0096,0.39274 h 0.159851 l 0.05375,-0.36242 h 0.224621 l 0.148826,0.0317 0.128157,0.17088 h 0.139182 l 0.09646,-0.78962 h -0.181899 v -0.17088 h 0.319705 v -0.53468 l 0.139181,-0.0317 0.07441,-0.0965 V 152.789 Z m -12.767525,-4.91684 h 0.06339 v 0.11576 h -0.06339 z m -0.501604,-0.26734 h 0.111619 l 0.157096,0.13229 h -0.268715 z m -1.911339,0.58016 h 0.115753 v 0.0482 H 65.87925 v -0.0524 h 0.139182 l 0.07441,-0.1006 h 0.07166 z m 6.937043,2.93522 -0.140561,-0.14056 h 1.311893 v 0.14056 z m -2.636188,-1.65503 v 0.0303 l -0.01654,-0.0289 c 0.0014,0 0.0014,0 0.0028,0 0.0055,0 0.0096,-10e-4 0.01379,-10e-4 m 0.31695,-0.55673 h 0.0096 v 0.40928 c 0.0014,0.0827 0.114377,0.14882 0.252183,0.14882 0.139181,0 0.253559,-0.0675 0.253559,-0.14882 v -0.40928 h 0.08819 v 0.40928 c 0.0014,0.0827 0.112998,0.14882 0.252179,0.14882 0.139182,0 0.252183,-0.0675 0.252183,-0.14882 v -0.40928 h 0.0882 v 0.40928 c 0.0014,0.0827 0.112998,0.14882 0.252179,0.14882 0.0689,0 0.130913,-0.0165 0.176389,-0.0427 v 1.23885 h -1.276064 l -0.348643,-0.61185 z m 2.634809,0.5581 c 0.139181,0 0.25218,-0.0675 0.25218,-0.14882 v -0.40928 h 0.08819 v 0.40928 c 0.0014,0.0827 0.114378,0.14882 0.252183,0.14882 0.139182,0 0.253559,-0.0675 0.253559,-0.14882 v -0.40928 h 0.0096 v 1.75424 h -1.624707 v -1.23885 c 0.0441,0.0262 0.106108,0.0427 0.175013,0.0427 0.139181,0 0.253559,-0.0675 0.253559,-0.14882 v -0.40928 h 0.08819 v 0.40928 c 0.0014,0.0827 0.112998,0.14882 0.25218,0.14882 m -1.464853,1.65365 h -0.56224 l -0.07999,-0.14056 h 0.782725 z m -1.004592,-0.45751 H 70.84983 v -0.29076 z m 0.179145,0.31695 0.07993,0.14056 h -0.424437 v -0.14056 z m 1.280198,0.13229 v 0.008 h -0.0096 z m 0.241156,0 0.0083,0.008 h -0.0083 z m 1.703257,-2.41432 h -0.08957 v -1.88791 h 0.08957 z m -0.593937,0 h -0.08819 v -1.88791 h 0.08819 z m -0.592554,0 h -0.08957 v -1.88791 h 0.08957 z m -1.18649,0 h -0.0882 v -1.88791 h 0.0882 z m -0.592557,0 h -0.08957 v -1.88791 h 0.08957 z m -0.682132,-1.88791 h 0.08819 v 1.88791 h -0.08819 z m -0.504359,2.09875 v 0.11851 l -0.06753,-0.11851 z m 0.265959,0.9095 v 1.30225 h -0.589798 v -2.34129 z m -2.444637,2.13872 -0.70969,-0.19982 -0.191548,0.10198 -0.01792,0.0758 -0.202572,-0.0234 -0.01792,-0.22186 -0.0096,-0.1254 0.372071,-0.35416 0.355533,0.24116 -0.04134,-0.062 0.130912,0.0689 0.165365,0.0868 0.180523,0.0579 -0.09095,0.0565 z m -0.665593,-0.75103 0.02755,0.001 0.07579,0.0386 0.01792,0.0827 z m 1.597145,-0.54157 -0.0689,0.062 -0.106108,-0.011 -0.165365,-0.20946 -0.168123,-0.0785 -0.07441,-0.0841 0.05374,-0.0882 c -0.0014,-0.0207 0.0028,-0.0221 0.02342,-0.0758 l 0.01792,-0.14056 c 0,-0.0207 0,-0.0193 -0.03721,-0.13505 l -0.06201,-0.0841 c 0,0 -0.03447,-0.0317 -0.09095,-0.0606 l -0.104733,-0.0289 -0.06339,-0.011 -0.06752,0.003 -0.06201,0.006 c 0,0 -0.06201,0.0138 -0.0813,0.0276 l -0.104733,0.0813 -0.0689,0.12264 -0.02893,0.0937 -0.09922,0.0634 0.181899,0.0537 -0.06063,0.15848 0.05512,0.0744 0.0689,0.14607 0.09095,-0.007 0.03859,0.0827 -0.0565,0.11851 -0.0303,0.10886 -0.0193,0.0909 0.02618,0.12954 0.0303,0.0799 0.0193,0.0744 -0.09922,-0.0303 -0.141936,-0.0441 -0.103353,-0.0606 -0.06339,-0.0413 -0.09784,-0.0289 -0.151586,-0.0565 -0.179144,-0.011 -0.283876,-0.1695 0.208082,0.26734 0.01792,0.0689 -0.191544,0.19155 -0.05099,-0.64768 0.06202,-1.10519 h 0.06477 v -0.0386 l 1.875511,-0.0165 h 0.143316 l 0.07993,0.10336 0.01655,0.19154 z m 0.705556,0.45613 -0.03721,-2.09048 -0.07579,-0.0744 -0.14883,-0.0648 -0.202572,-0.022 -0.321081,0.0537 -0.661458,0.12816 -0.598068,0.0965 -0.544326,0.0317 -0.14056,0.004 v -0.52366 h 2.836001 v 2.46118 z m 9.253526,0 -0.141936,-0.14056 h 1.311892 v 0.14056 z m -2.320618,-2.21175 h 0.01101 v 0.40928 c 0.0014,0.0827 0.113002,0.14882 0.252183,0.14882 0.139182,0 0.25218,-0.0675 0.25218,-0.14882 v -0.40928 h 0.08819 v 0.40928 c 0.0014,0.0827 0.112999,0.14882 0.252184,0.14882 0.139181,0 0.252179,-0.0675 0.252179,-0.14882 v -0.40928 h 0.08957 v 0.40928 c 0,0.0827 0.111619,0.14882 0.2508,0.14882 0.06891,0 0.130916,-0.0165 0.176389,-0.0427 v 1.23885 h -1.624707 z m 2.634809,0.5581 c 0.139185,0 0.252184,-0.0675 0.252184,-0.14882 v -0.40928 h 0.08957 v 0.40928 c 0,0.0827 0.113002,0.14882 0.252183,0.14882 0.139181,0 0.25218,-0.0675 0.25218,-0.14882 v -0.40928 h 0.0096 v 1.75424 h -1.624708 v -1.23885 c 0.04547,0.0262 0.107484,0.0427 0.176389,0.0427 0.139181,0 0.25218,-0.0675 0.25218,-0.14882 v -0.40928 h 0.08819 v 0.40928 c 0.0014,0.0827 0.112998,0.14882 0.25218,0.14882 m -1.010102,1.65365 h -0.0083 l 0.0083,-0.008 z m 0.241159,-0.008 0.0083,0.008 h -0.0083 z m 1.703254,-2.41432 h -0.0882 v -1.88791 h 0.0882 z m -0.592558,0 h -0.08957 v -1.88791 h 0.08957 z m -0.593933,0 h -0.08819 v -1.88791 h 0.08819 z m -1.185111,0 h -0.08957 v -1.88791 h 0.08957 z m -0.593937,0 h -0.08819 v -1.88791 h 0.08819 z m -0.682127,-1.88791 h 0.08957 v 1.88791 h -0.08957 z m 0.07855,4.16994 h 1.311892 l -0.141936,0.14056 h -1.169956 z m 0,0"
       id="U-S-T27" />
  </g>
</svg>
