<?xml version="1.0" encoding="UTF-8" standalone="no"?>
<!-- Created with Inkscape (http://www.inkscape.org/) -->

<svg
   width="20.800129mm"
   height="10.451036mm"
   viewBox="0 0 20.800129 10.451036"
   version="1.1"
   id="svg13154"
   sodipodi:docname="inkporter-svg-uwdxo_vu.svg"
   xmlns:inkscape="http://www.inkscape.org/namespaces/inkscape"
   xmlns:sodipodi="http://sodipodi.sourceforge.net/DTD/sodipodi-0.dtd"
   xmlns="http://www.w3.org/2000/svg"
   xmlns:svg="http://www.w3.org/2000/svg">
  <sodipodi:namedview
     id="namedview13156"
     pagecolor="#ffffff"
     bordercolor="#666666"
     borderopacity="1.0"
     inkscape:pageshadow="2"
     inkscape:pageopacity="0.0"
     inkscape:pagecheckerboard="0"
     inkscape:document-units="mm"
     showgrid="false"
     inkscape:zoom="0.90583672"
     inkscape:cx="177.73623"
     inkscape:cy="473.04331"
     inkscape:window-width="1920"
     inkscape:window-height="1017"
     inkscape:window-x="-8"
     inkscape:window-y="-8"
     inkscape:window-maximized="1"
     inkscape:current-layer="layer1" />
  <defs
     id="defs13151" />
  <g
     inkscape:label="Layer 1"
     inkscape:groupmode="layer"
     id="layer1"
     transform="translate(-3.5895463,-49.394792)">
    <path
       d="m 23.820547,56.774173 0.569129,-0.627006 -0.228755,-0.909507 v -0.228755 h -1.519975 l -0.133671,-0.111619 -0.65181,-0.01655 -0.363802,-0.100595 -0.985298,0.02893 -0.474045,0.199813 -0.376206,0.158475 -0.457507,0.01101 -0.08268,-0.02893 v -0.655945 h 2.224155 c 0,0 0.07993,-0.0303 0.115757,-0.100598 0.03583,-0.07028 0.0303,-0.117132 0.0303,-0.117132 l 0.194303,-0.04823 -0.08268,-0.48507 0.188792,-0.05926 -0.206706,-0.01101 -0.118512,-0.39412 0.08957,-0.07579 -0.14056,0.02342 -0.08268,-0.02342 c 0,0 -0.08957,-0.08819 -0.205328,-0.08819 h -1.83141 l -0.01517,-0.0055 v -0.592557 h 0.0303 v -0.0303 h 0.931552 l -0.04272,0.06339 h -0.16674 v 0.180523 h 0.686262 v -0.186037 h -0.198437 l -0.0441,-0.05788 h 0.03996 v -0.119888 h 1.686719 v 0.04272 h 0.243914 v -0.190168 h -0.243914 v 0.05512 H 20.51184 v -0.09371 h -1.20578 v -0.203948 h -0.279742 v -2.581067 h -0.0441 v 2.581067 h -0.02755 v 0.09646 H 17.995554 V 51.81325 h -0.219107 v 0.05237 l -0.246669,0.206707 h -0.199817 v 0.0441 h -0.07441 l -0.0565,-0.0055 v 0.370691 l 0.130912,0.0055 v 0.110243 h 1.169956 v 0.303166 c -0.256314,-0.05512 -0.519522,-0.103353 -0.746898,-0.141936 -1.444184,-0.24529 -2.836001,-0.224621 -3.074401,-0.181903 -0.173634,0.0303 -0.195683,0.2384 -0.176389,0.391365 H 14.1715 l 0.08268,0.0937 v 0.09233 l -0.08819,0.0014 c 0,0 -0.551216,-0.03583 -0.63941,0.104729 -0.0882,0.14194 -0.192924,0.170878 -0.304546,0.177768 -0.111619,0.0055 -0.304546,0.02755 -0.412034,0.09233 -0.104729,0.06477 -0.203948,0.129536 -0.31557,0.152961 -0.111619,0.02342 -0.163985,-0.0303 -0.228755,0.04134 -0.06477,0.07028 -0.169496,0.128157 -0.228752,0.146071 -0.05926,0.01655 -0.457511,0.09922 -0.545705,0.09922 -0.08544,0 -7.4606995,0.111622 -7.9016717,0.118512 v 0.338998 l 7.6894547,-0.01101 c 0,0 0.412034,0.210837 0.599447,0.221861 0.187413,0.01242 0.32935,-0.01792 0.381716,-0.04685 0.05099,-0.02755 0.09922,-0.01655 0.151585,0.04685 0.05374,0.06477 0.08406,0.09509 0.163985,0.106109 0.08131,0.01242 0.111623,0.03583 0.111623,0.07717 0,0.04134 0.05926,0.04686 0.135047,0.05237 0.07717,0.0069 0.09508,0.09922 0.100598,0.146072 0.0055,0.04823 -0.265963,0.248048 -0.265963,0.248048 h -0.08131 l -0.192923,-0.136426 h -0.376181 l -0.139182,0.124023 H 11.63731 v -0.09922 h -0.275608 v 0.111622 h -0.239776 l -0.01792,-0.08957 -0.245293,0.0069 -0.106109,0.117136 -0.198437,0.107484 c -0.03168,-0.0248 -0.06339,-0.05099 -0.09646,-0.07579 -0.141936,-0.104732 -0.312811,-0.21773 -0.403765,-0.21773 -0.1198876,0 -0.23151,0.09233 -0.2907661,0.190168 v 0.531925 l -0.070277,0.03721 C 9.5482036,55.656654 9.300155,55.343838 9.0686445,55.343838 c -0.1708749,0 -0.3693124,0.09646 -0.4258133,0.265963 v 0.835092 l -0.2191068,0.118509 c 0,0 -0.4809348,0.239779 -0.4809348,0.533301 v 0.505742 h 0.2521796 v 0.117133 l 0.075794,0.0028 c 0.00413,0.06752 0.012418,0.133671 0.026176,0.201193 l -0.049608,0.0303 0.041342,0.203951 0.074411,-0.01379 c 0.027552,0.06615 0.060635,0.130916 0.1005981,0.191548 l -0.056501,0.06339 0.1446953,0.163985 0.062011,-0.05099 c 0.012418,0.01101 0.026176,0.02205 0.038587,0.03305 0.022049,0.01517 0.048232,0.03583 0.081305,0.05926 l -0.055122,0.08544 0.1570955,0.101973 0.053742,-0.08268 c 0.041342,0.02755 0.088195,0.05788 0.1378056,0.08957 l -0.060635,0.09508 0.1570954,0.101978 0.063391,-0.09922 c 0.055122,0.03305 0.1143776,0.06752 0.175013,0.10335 l -0.062015,0.09509 0.157099,0.100594 0.068901,-0.104729 c 0.057877,0.03306 0.1185121,0.06477 0.179144,0.09784 l -0.052366,0.08131 0.1557196,0.101974 0.064766,-0.09922 c 0.060635,0.03171 0.1226467,0.06064 0.1860373,0.09095 l -0.04272,0.107488 0.175013,0.06752 0.03858,-0.09784 c 0.0565,0.0248 0.114377,0.04823 0.172254,0.07166 l -0.03996,0.09922 0.175013,0.06752 0.03859,-0.100676 c 0.0689,0.02343 0.136427,0.04685 0.202572,0.06615 l -0.02755,0.101974 0.1819,0.04961 0.02755,-0.104733 c 0.08819,0.02205 0.172254,0.03583 0.253559,0.0441 l -0.0083,0.09371 0.186034,0.01655 0.0096,-0.101974 h 0.300412 v 0.09921 h 0.187413 v -0.09922 h 0.235645 v 0.09922 h 0.186034 v -0.09922 h 0.270097 v 0.09922 H 12.7686 v -0.09922 h 0.235642 v 0.09922 h 0.186037 v -0.09922 h 0.270094 v 0.09922 h 0.187413 v -0.09922 h 0.276987 v 0.09922 h 0.187413 v -0.09922 h 0.270094 v 0.09922 h 0.187413 v -0.09922 h 0.234269 v 0.09922 h 0.187413 v -0.09922 h 0.270094 v 0.09922 h 0.187413 v -0.09922 h 0.235645 v 0.09922 h 0.187413 v -0.09922 h 0.270098 v 0.09922 h 0.186041 v -0.09922 h 0.23702 v 0.09922 h 0.186038 v -0.09922 h 0.270093 v 0.09922 h 0.187414 v -0.09922 h 0.265962 v 0.09922 h 0.186034 v -0.09922 h 0.270097 v 0.09922 h 0.187414 v -0.09922 h 0.235644 v 0.09922 h 0.186034 v -0.09922 h 0.270098 v 0.09922 h 0.186033 v -0.09922 h 0.314191 v 0.09922 h 0.187414 v -0.09922 h 0.268717 v 0.09922 h 0.187414 v -0.09922 h 0.235645 v 0.09922 h 0.187413 v -0.09922 h 0.268718 v 0.09922 h 0.187413 v -0.100598 c 0.04823,-0.0028 0.09922,-0.0096 0.151585,-0.0193 l 0.03583,0.101974 0.176389,-0.06063 -0.02893,-0.08544 c 0.04134,-0.01101 0.08406,-0.02342 0.128157,-0.03859 l 0.02893,0.08406 0.176389,-0.06063 -0.0303,-0.08819 c 0.04686,-0.01792 0.09509,-0.03721 0.143316,-0.05788 l 0.0441,0.08682 0.166744,-0.08544 -0.03996,-0.07855 c 0.06339,-0.0303 0.128157,-0.06063 0.192923,-0.09233 l 0.03306,0.06339 0.165364,-0.08544 -0.03168,-0.06339 c 0.07855,-0.04134 0.157095,-0.08406 0.234265,-0.126782 l 0.0303,0.05926 0.166744,-0.08544 -0.03306,-0.06477 c 0.05374,-0.03168 0.108863,-0.06201 0.16123,-0.09233 l 0.03306,0.06615 0.16674,-0.08544 -0.03858,-0.07579 0.15572,-0.09095 0.02755,0.05237 0.166744,-0.08406 -0.03306,-0.06339 c 0.05512,-0.03171 0.107485,-0.06201 0.155716,-0.08957 l 0.04823,0.05099 0.135047,-0.104729 -0.03306,-0.03721 c 0.05788,-0.03996 0.110243,-0.08268 0.159854,-0.128157 l 0.04272,0.03583 0.118512,-0.135046 -0.04134,-0.0303 c 0.04272,-0.05374 0.07855,-0.110243 0.110243,-0.170879 l 0.06477,0.02618 0.04134,-0.170875 -0.0372,-0.0248 c 0.02067,-0.06615 0.03306,-0.133671 0.03996,-0.203951 l 0.03858,-0.0055 0.0055,-0.07028 h 0.165364 c 0,0 -0.01379,-0.435462 -0.159854,-0.576022 -0.146071,-0.139182 -0.216351,-0.263204 -0.216351,-0.263204 m -3.425804,-4.288455 0.08957,0.119888 h 0.16812 v 0.06201 h -0.56224 v -0.05651 h 0.137806 l 0.08268,-0.125402 z M 17.33,52.375486 H 17.25559 V 52.234925 H 17.33 Z m 0.603582,-0.303167 h -0.32384 l 0.188793,-0.157099 h 0.135047 z M 9.8072893,55.320355 C 9.8252104,55.292803 9.920291,55.1605 10.053959,55.1605 c 0.09233,0 0.30179,0.150206 0.45751,0.271474 l -0.305925,0.165364 v -0.177765 c 0,0 -0.0096,-0.175013 -0.07442,-0.210841 -0.06477,-0.03583 -0.2370211,0.07442 -0.2659595,0.115757 -0.027552,0.04134 0,0.201193 0,0.201193 0,0 0.041339,0.05926 0.1129983,0.05237 0.07028,-0.0055 0.088194,0 0.088194,0 l 0.0069,0.09095 -0.2659629,0.144692 z m -1.0734887,3.119878 c -0.026176,-0.02067 -0.049611,-0.04272 -0.073039,-0.06752 0.067525,0.06615 0.1460747,0.125402 0.2315104,0.172254 -0.070277,-0.03858 -0.1226432,-0.07717 -0.1584713,-0.104729 m 0.2521797,-2.181437 -0.2990356,0.16261 v -0.803395 c 0.05788,-0.152965 0.2232448,-0.230135 0.3817161,-0.230135 0.2025721,0 0.4409722,0.290767 0.5856676,0.508498 L 9.136186,56.177492 c 0,-0.05236 -0.00282,-0.125399 -0.00282,-0.125399 l 0.052366,-0.04686 v -0.252179 l -0.086819,-0.07028 0.011007,-0.05237 0.093708,-0.01101 v -0.08819 l -0.2232448,-0.04134 v 0.146072 l -0.099219,0.05926 v 0.362422 l 0.1047326,0.04134 z m 1.5571826,3.166735 c -0.06477,-0.0248 -0.130913,-0.05099 -0.197059,-0.07855 v -0.271473 l -0.146071,0.206707 c -0.06615,-0.02893 -0.130916,-0.05926 -0.195682,-0.09095 l 0.05237,-0.241156 -0.1887922,0.173634 c -0.073036,-0.03721 -0.1446953,-0.07579 -0.2135963,-0.113002 l 0.049611,-0.235641 -0.1791476,0.165364 c -0.071656,-0.04134 -0.1419366,-0.0813 -0.2080825,-0.119891 l 0.034466,-0.159851 h -0.00688 c -0.023424,0 -0.044097,-0.0014 -0.064766,-0.0028 l -0.092329,0.08544 C 9.1293274,58.706157 9.0755855,58.673087 9.024595,58.640014 l 0.00688,-0.03305 c 0.078546,0.02755 0.16123,0.0441 0.2480451,0.05099 0.022049,0.0014 0.042718,0.0028 0.064766,0.0028 h 0.00413 c 0.1860373,-0.0014 0.3555364,-0.05375 0.5002282,-0.143316 l 0.2356447,0.151581 h 0.330729 c 0.01517,0.226 0.104733,0.432707 0.242535,0.593937 z m 0.367936,0.118508 c -0.07166,-0.01792 -0.144695,-0.03996 -0.219107,-0.06477 v -0.177768 c 0.07166,0.07579 0.155717,0.14056 0.24667,0.192927 z m 0.152961,0.03583 -0.0028,-0.02755 c 0.06339,0.0248 0.129536,0.0441 0.197062,0.05512 -0.06202,-0.0055 -0.126782,-0.01379 -0.194307,-0.02755 m 0.737253,0.03168 H 11.59316 c 0.07855,-0.01242 0.152964,-0.03168 0.223245,-0.05926 z m 1.302244,0 h -0.259017 l -0.09784,-0.256314 -0.06615,0.256314 H 12.38698 l -0.09784,-0.256314 -0.06615,0.256314 h -0.257693 l -0.04272,-0.110243 c 0.303167,-0.16123 0.515387,-0.47129 0.540191,-0.832337 H 12.7618 c 0.02067,0.300415 0.170878,0.564999 0.39412,0.738629 z m 0.456131,0 h -0.293522 l -0.06477,-0.170878 c 0.107488,0.07442 0.230131,0.129536 0.361047,0.158474 z m 0.4644,0 h -0.08406 c 0.0303,-0.0041 0.06063,-0.0096 0.08957,-0.01655 z m 1.336696,0 h -0.293522 l -0.09784,-0.256314 -0.06615,0.256314 h -0.259073 l -0.09646,-0.256314 -0.06615,0.256314 h -0.293522 l -0.02342,-0.06063 c 0.358288,-0.141937 0.615981,-0.480935 0.64492,-0.881945 h 0.250803 c 0.0193,0.283877 0.15572,0.537436 0.359668,0.71107 z m 0.424437,0 h -0.260448 l -0.08268,-0.213596 c 0.101974,0.08268 0.220486,0.144695 0.350022,0.183278 z m 0.87781,0 h -0.259073 l -0.01242,-0.03447 c 0.118508,-0.03721 0.228751,-0.09646 0.325215,-0.170875 z m 1.367014,0 h -0.292146 l -0.09922,-0.256314 -0.06477,0.256314 h -0.290766 l -0.09784,-0.256314 -0.06477,0.256314 H 16.82695 l -0.08544,-0.226 c 0.208086,-0.17363 0.345888,-0.428568 0.366561,-0.71658 h 0.299032 c 0.02755,0.399634 0.283877,0.735874 0.63941,0.87919 z m 0.163985,0 -0.0069,-0.01792 c 0.02893,0.0083 0.05926,0.01379 0.08957,0.01792 z m 0.305926,-6.520878 -2.574177,0.03859 v -0.425814 l -0.09509,0.04134 v 0.387227 l -1.225073,0.01792 V 52.96806 h -0.05788 c -0.01379,-0.103354 -0.02067,-0.319705 0.137805,-0.348644 0.231511,-0.03996 1.619194,-0.06339 3.060622,0.183279 0.304546,0.05099 0.552595,0.09922 0.753788,0.140561 z m 0.409278,6.520878 h -0.293525 c 0.115757,-0.0248 0.226,-0.06615 0.325219,-0.124022 z m 1.379414,0 h -0.259069 l -0.09784,-0.256314 -0.06477,0.256314 h -0.293522 l -0.09784,-0.256314 -0.06615,0.256314 h -0.336239 l -0.06339,-0.166744 c 0.250804,-0.170875 0.423058,-0.453372 0.445107,-0.775836 h 0.264583 c 0.02618,0.38172 0.260449,0.705556 0.591178,0.85852 z m 0.163989,0 -0.01379,-0.03447 c 0.04823,0.01517 0.09784,0.02755 0.148829,0.03447 z m 0.749653,-0.07992 -0.0096,-0.01101 c 0.05099,-0.02618 0.100598,-0.05512 0.147451,-0.08819 l 0.0041,0.05099 c -0.04823,0.01792 -0.09646,0.03443 -0.141937,0.04823 m 0.296277,-0.108867 -0.05926,-0.07166 c 0.06064,-0.0565 0.114378,-0.118512 0.159854,-0.187413 l 0.0441,0.197058 c -0.04823,0.02067 -0.09646,0.04272 -0.144696,0.06201 m 1.056954,-0.537432 -0.220486,-0.199817 0.06477,0.288011 c -0.07993,0.0441 -0.159854,0.0882 -0.239779,0.130913 l -0.224621,-0.202572 0.06477,0.286632 c -0.06752,0.03447 -0.135046,0.06753 -0.202568,0.100598 l -0.176389,-0.159854 c 0.08268,-0.136427 0.133668,-0.292143 0.146071,-0.460266 h 0.628386 l 0.121267,-0.0882 c 0.05374,0.01517 0.111619,0.02755 0.170875,0.03306 l 0.03721,0.173633 c -0.05512,0.03171 -0.111618,0.06477 -0.169499,0.09784 M 22.8752,58.70069 22.78701,58.62076 h 0.01517 c 0.08131,0 0.159854,-0.0097 0.235645,-0.02755 l 0.0014,0.0096 z m 0,0"
       id="U-S-M18"
       style="stroke-width:0.352778" />
  </g>
</svg>
