<?xml version="1.0" encoding="UTF-8" standalone="no"?>
<!-- Created with Inkscape (http://www.inkscape.org/) -->

<svg
   width="11.820729mm"
   height="6.0233974mm"
   viewBox="0 0 11.820729 6.0233974"
   version="1.1"
   id="svg1"
   sodipodi:docname="inkporter-svg-t88uw0ml.svg"
   xmlns:inkscape="http://www.inkscape.org/namespaces/inkscape"
   xmlns:sodipodi="http://sodipodi.sourceforge.net/DTD/sodipodi-0.dtd"
   xmlns="http://www.w3.org/2000/svg"
   xmlns:svg="http://www.w3.org/2000/svg">
  <sodipodi:namedview
     id="namedview1"
     pagecolor="#ffffff"
     bordercolor="#000000"
     borderopacity="0.25"
     inkscape:showpageshadow="2"
     inkscape:pageopacity="0.0"
     inkscape:pagecheckerboard="0"
     inkscape:deskcolor="#d1d1d1"
     inkscape:document-units="mm"
     inkscape:zoom="1.0476431"
     inkscape:cx="396.60453"
     inkscape:cy="561.25984"
     inkscape:window-width="2560"
     inkscape:window-height="1368"
     inkscape:window-x="0"
     inkscape:window-y="0"
     inkscape:window-maximized="1"
     inkscape:current-layer="layer1" />
  <defs
     id="defs1" />
  <g
     inkscape:label="Layer 1"
     inkscape:groupmode="layer"
     id="layer1"
     transform="translate(-38.893746,-116.94581)">
    <g
       id="U-S-Infantry5"
       transform="translate(-138.06203,-391.31796)">
      <path
         style="fill:#000000;stroke-width:0.0164492"
         d="m 185.0519,514.07301 c -0.1821,-0.006 -0.20078,-0.037 -0.14746,-0.24173 0.0138,-0.0534 0.02,-0.10856 0.0138,-0.12271 -0.0149,-0.0333 -0.0142,-0.0305 -0.029,-0.11114 -0.007,-0.0379 -0.0232,-0.0777 -0.0361,-0.0884 -0.0129,-0.0107 -0.0233,-0.042 -0.0233,-0.0697 0,-0.0277 -0.009,-0.0744 -0.0193,-0.10376 -0.0172,-0.0476 -0.0281,-0.0547 -0.0987,-0.0644 -0.0436,-0.006 -0.0802,-0.0195 -0.0811,-0.0299 -8e-4,-0.0105 -0.003,-0.27767 -0.006,-0.59379 -0.003,-0.42253 -0.009,-0.57647 -0.0229,-0.58121 -0.0114,-0.004 -0.0208,-0.0477 -0.0228,-0.10788 -0.002,-0.0558 -0.007,0.0207 -0.0123,0.16998 l -0.009,0.27141 h -0.0575 -0.0575 l -4.9e-4,-0.28785 c -2.7e-4,-0.15833 -0.002,-0.36744 -0.004,-0.4647 l -0.003,-0.17682 h -0.18318 -0.1832 l 0.009,-0.10709 c 0.005,-0.0589 0.0159,-0.11626 0.0249,-0.12748 0.009,-0.0112 0.0213,-0.0555 0.0276,-0.0985 0.0103,-0.0715 0.0151,-0.0782 0.0564,-0.0782 0.0248,0 0.0521,0.006 0.0607,0.0147 0.009,0.008 0.0471,0.0199 0.0855,0.0261 l 0.0699,0.0113 -0.008,-0.1413 c -0.004,-0.0777 -0.0192,-0.17273 -0.0326,-0.21116 -0.0274,-0.0787 -0.0343,-0.38965 -0.01,-0.4361 0.008,-0.0157 0.0239,-0.0934 0.0346,-0.17259 0.0107,-0.0792 0.0261,-0.14812 0.0342,-0.15313 0.008,-0.005 0.0147,-0.0239 0.0147,-0.0419 0,-0.0181 0.015,-0.0658 0.0333,-0.10595 0.0183,-0.0402 0.0377,-0.0953 0.0431,-0.12247 0.006,-0.0271 0.0163,-0.0493 0.0242,-0.0493 0.008,0 0.0144,-0.015 0.0144,-0.0335 0,-0.0428 0.10396,-0.14749 0.14653,-0.14749 0.0179,0 0.0363,-0.006 0.041,-0.0139 0.005,-0.008 0.0306,-0.0146 0.0575,-0.0153 0.0781,-0.002 0.11885,-0.0303 0.2211,-0.15234 0.029,-0.0346 0.029,-0.0385 0.002,-0.0894 -0.0171,-0.0318 -0.0504,-0.0611 -0.0827,-0.0727 -0.0498,-0.018 -0.0549,-0.0266 -0.0654,-0.11039 -0.0113,-0.0911 0.0175,-0.28615 0.0425,-0.28615 0.006,0 0.017,-0.0167 0.0225,-0.037 0.0145,-0.0529 0.0613,-0.10342 0.13507,-0.14573 0.0485,-0.0279 0.091,-0.0369 0.17606,-0.0373 0.0624,-2.8e-4 0.11709,0.007 0.12337,0.0171 0.006,0.01 0.0283,0.0229 0.0492,0.0295 0.051,0.0159 0.13175,0.13055 0.14382,0.20426 0.006,0.0328 0.0216,0.10806 0.036,0.16712 0.0324,0.13263 0.0205,0.19228 -0.0412,0.20764 -0.0605,0.0151 -0.0849,0.051 -0.0856,0.12569 -8.1e-4,0.11779 0.12844,0.24194 0.25223,0.24194 0.0147,0 0.0269,0.007 0.0269,0.0165 0,0.009 0.0105,0.0165 0.0232,0.0165 0.0128,0 0.0425,0.0241 0.066,0.0534 0.0235,0.0295 0.0494,0.0616 0.0575,0.0717 0.0352,0.0436 0.0805,0.1519 0.0916,0.21861 0.006,0.0398 0.0215,0.0953 0.033,0.12336 0.0115,0.0281 0.0259,0.0917 0.0319,0.1415 0.006,0.0497 0.0171,0.10527 0.0246,0.12336 0.007,0.018 0.0224,0.0847 0.0332,0.14805 0.0107,0.0633 0.0258,0.12994 0.0337,0.14804 0.008,0.0181 0.0224,0.0847 0.0325,0.14804 0.0101,0.0634 0.0224,0.13917 0.0275,0.16853 0.0106,0.0608 -0.033,0.25604 -0.0759,0.34013 -0.0216,0.0423 -0.0258,0.075 -0.0172,0.13176 0.006,0.0415 0.0145,0.0775 0.0181,0.08 0.004,0.002 0.0548,0.0179 0.11362,0.0341 0.20187,0.0558 0.23853,0.0674 0.24673,0.078 0.004,0.006 0.0526,0.0198 0.10692,0.0308 0.0542,0.0111 0.10611,0.0257 0.11515,0.0326 0.009,0.007 0.0564,0.0219 0.1052,0.0333 0.0488,0.0114 0.10802,0.0309 0.13159,0.0431 0.0236,0.0122 0.0521,0.0224 0.0634,0.0225 0.0113,5e-5 0.0205,0.006 0.0205,0.0135 0,0.0232 0.21944,0.0603 0.22674,0.0383 0.003,-0.0104 0.0242,-0.0189 0.046,-0.0189 0.0309,0 0.0398,0.009 0.0398,0.0392 0,0.0253 0.0116,0.0422 0.0329,0.0478 0.0436,0.0113 0.0451,0.0775 0.002,0.0775 -0.0171,0 -0.0357,0.0119 -0.0413,0.0265 -0.008,0.0209 -0.0232,0.024 -0.0716,0.015 -0.0338,-0.006 -0.0652,-0.0174 -0.0697,-0.0246 -0.004,-0.007 -0.0522,-0.0221 -0.10597,-0.0332 -0.0538,-0.0111 -0.10926,-0.0262 -0.12337,-0.0336 -0.0242,-0.0126 -0.14763,-0.0454 -0.31352,-0.0832 -0.0407,-0.009 -0.0888,-0.0233 -0.10692,-0.0311 -0.0504,-0.0218 -0.12194,-0.0352 -0.22965,-0.0434 -0.0539,-0.004 -0.10204,-0.0134 -0.10692,-0.0208 -0.0182,-0.0274 -0.15773,-0.034 -0.20485,-0.01 -0.0253,0.0131 -0.0526,0.0197 -0.0607,0.0147 -0.0216,-0.0134 -0.0175,0.0408 0.009,0.11621 0.0126,0.0362 0.0282,0.11761 0.0346,0.18094 0.006,0.0633 0.0174,0.12254 0.0241,0.13159 0.0155,0.0208 0.0344,0.17581 0.0419,0.34256 0.003,0.0707 0.0136,0.13817 0.0232,0.14972 0.01,0.0115 0.0242,0.13498 0.0324,0.27427 0.0167,0.28326 0.004,0.35069 -0.0692,0.36909 -0.0362,0.009 -0.0414,0.0219 -0.0547,0.13642 -0.0228,0.19525 -0.006,0.27293 0.0792,0.35831 0.0637,0.0641 0.079,0.0715 0.14889,0.0718 0.0975,4.9e-4 0.14412,0.0363 0.14412,0.11091 0,0.0366 -0.008,0.0539 -0.0243,0.0539 -0.0134,0 -0.037,0.0194 -0.0526,0.0431 -0.0271,0.0413 -0.0328,0.0427 -0.13609,0.0329 -0.0593,-0.006 -0.16335,-0.0145 -0.2312,-0.0197 -0.0679,-0.005 -0.13817,-0.0161 -0.15627,-0.0241 -0.018,-0.008 -0.0588,-0.0167 -0.0905,-0.0193 l -0.0575,-0.004 0.006,-0.1645 c 0.003,-0.0905 0.0136,-0.18817 0.0236,-0.21713 0.0135,-0.0392 0.0133,-0.0635 -0.002,-0.0953 -0.0107,-0.0235 -0.0195,-0.0902 -0.0195,-0.14828 0,-0.0887 -0.006,-0.10838 -0.0328,-0.12318 -0.0264,-0.0142 -0.0329,-0.0345 -0.033,-0.10339 -6e-5,-0.0472 -0.0112,-0.10697 -0.0247,-0.13289 -0.0278,-0.0534 -0.0329,-0.16785 -0.008,-0.18317 0.0207,-0.0128 0.0219,-0.23852 0.002,-0.23852 -0.008,0 -0.0219,-0.0315 -0.0302,-0.07 -0.009,-0.0421 -0.0483,-0.11361 -0.0986,-0.17991 -0.046,-0.0605 -0.0884,-0.12527 -0.0943,-0.14393 -0.0152,-0.0478 -0.12369,-0.0496 -0.12369,-0.002 0,0.0176 -0.008,0.0367 -0.0171,0.0425 -0.009,0.006 -0.0129,0.024 -0.008,0.0404 0.005,0.0164 4.9e-4,0.0806 -0.0104,0.14254 -0.027,0.15281 -0.0249,0.18198 0.0183,0.27653 0.0298,0.0652 0.0355,0.0999 0.0284,0.17271 -0.005,0.0501 -0.003,0.12075 0.003,0.15693 0.015,0.0837 -0.009,0.16754 -0.0517,0.17864 -0.0248,0.006 -0.0303,0.0178 -0.0229,0.0473 0.006,0.0213 0.0147,0.0828 0.0208,0.13671 0.006,0.0539 0.0165,0.10541 0.0233,0.11446 0.006,0.009 0.0213,0.0831 0.0324,0.16449 0.011,0.0814 0.0312,0.18312 0.0449,0.22599 0.0282,0.0886 0.0187,0.15379 -0.0239,0.16272 -0.0159,0.003 -0.0882,0.004 -0.16056,0.002 z"
         id="path273" />
      <path
         style="fill:#000000;stroke-width:0.0164492"
         d="m 181.01571,514.19154 c -0.0258,-0.0136 -0.0452,-0.0377 -0.0452,-0.056 0,-0.0177 -0.007,-0.0451 -0.0152,-0.0608 -0.008,-0.0158 -0.0192,-0.0415 -0.0241,-0.0574 -0.007,-0.0241 -0.0291,-0.0288 -0.13197,-0.0288 -0.0958,0 -0.12633,-0.006 -0.13784,-0.0263 -0.0115,-0.0205 -0.0217,-0.0225 -0.046,-0.009 -0.0469,0.0264 -0.21881,0.0578 -0.30269,0.0552 -0.10544,-0.003 -0.24756,-0.035 -0.27376,-0.0612 -0.0254,-0.0254 -0.0296,-0.0575 -0.008,-0.0575 0.008,0 0.019,-0.0172 0.0242,-0.0383 0.0105,-0.042 0.0716,-0.0769 0.13454,-0.0769 0.0221,0 0.0403,-0.006 0.0403,-0.0143 0,-0.008 0.0303,-0.0192 0.0674,-0.0251 0.0479,-0.008 0.07,-0.0202 0.0759,-0.0432 0.005,-0.0179 0.0153,-0.0324 0.0236,-0.0324 0.0134,0 0.0735,-0.0584 0.12172,-0.11836 0.0345,-0.0429 0.0406,-0.0853 0.03,-0.21152 -0.0101,-0.121 -0.0134,-0.12973 -0.0567,-0.14766 -0.0602,-0.0249 -0.081,-0.0885 -0.081,-0.24772 0,-0.0705 -0.007,-0.13274 -0.0165,-0.13833 -0.01,-0.006 -0.0168,-0.12053 -0.0175,-0.28472 -4.9e-4,-0.151 -0.007,-0.30787 -0.0149,-0.34857 -0.0578,-0.30848 -0.0733,-0.37834 -0.0842,-0.37834 -0.006,0 -0.0176,-0.0567 -0.0242,-0.12592 -0.0109,-0.1165 -0.0134,-0.12295 -0.0337,-0.0864 -0.012,0.0218 -0.0221,0.0584 -0.0225,0.0815 -2.7e-4,0.0231 -0.009,0.0506 -0.0197,0.0611 -0.0105,0.0105 -0.0275,0.0657 -0.0377,0.12255 -0.0159,0.0881 -0.0242,0.1042 -0.0559,0.10879 l -0.0373,0.006 0.0126,-0.28503 c 0.007,-0.15676 0.0109,-0.29983 0.009,-0.31793 -0.002,-0.018 -0.01,-0.0958 -0.0169,-0.17271 -0.007,-0.0769 -0.0191,-0.15636 -0.0262,-0.17657 -0.0129,-0.0365 -0.0132,-0.0365 -0.053,-0.006 -0.0221,0.0174 -0.0619,0.0363 -0.0886,0.0422 -0.0267,0.006 -0.0485,0.0175 -0.0485,0.0258 0,0.008 -0.013,0.0158 -0.0288,0.0165 -0.0172,8.1e-4 -0.0205,0.005 -0.008,0.01 0.0136,0.006 0.0205,0.0461 0.0205,0.12029 0,0.10589 -0.002,0.11255 -0.0414,0.12236 -0.0321,0.008 -0.0397,0.0186 -0.0338,0.047 0.004,0.0202 0.0122,0.17729 0.0181,0.34919 0.006,0.17189 0.0166,0.31993 0.0239,0.32897 0.007,0.009 0.0176,0.0794 0.0229,0.15628 0.0131,0.19191 0.0355,0.35645 0.0601,0.44136 0.0158,0.0545 0.0163,0.0855 0.002,0.1316 -0.0154,0.0497 -0.0144,0.0635 0.006,0.0786 0.041,0.0305 0.0328,0.18472 -0.0125,0.23286 -0.0363,0.0386 -0.037,0.0471 -0.037,0.44382 0,0.30436 0.005,0.40608 0.0201,0.41114 0.0149,0.005 0.0129,0.0178 -0.007,0.0487 -0.0269,0.041 -0.031,0.0418 -0.1736,0.0336 -0.0803,-0.004 -0.15414,-0.0163 -0.16401,-0.0262 -0.013,-0.013 -0.0101,-0.065 0.0101,-0.18704 0.0155,-0.093 0.0378,-0.22772 0.0497,-0.29938 0.0156,-0.0938 0.017,-0.14571 0.005,-0.1854 -0.0142,-0.0461 -0.011,-0.0662 0.0188,-0.12213 0.0434,-0.0813 0.0461,-0.14328 0.007,-0.15798 -0.0497,-0.0186 -0.0688,-0.0593 -0.0694,-0.1472 -8e-4,-0.12003 -0.0105,-0.13705 -0.0784,-0.13705 h -0.058 l 0.007,-0.13069 c 0.008,-0.1434 0.0279,-0.18172 0.0933,-0.1821 0.0237,-1.2e-4 0.0543,-0.007 0.0679,-0.0159 0.0217,-0.0137 0.0212,-0.0221 -0.003,-0.0696 -0.0207,-0.0399 -0.0309,-0.1172 -0.039,-0.2947 -0.0103,-0.22474 -0.009,-0.24176 0.0198,-0.2579 0.0264,-0.0147 0.0317,-0.0415 0.0366,-0.18474 0.006,-0.19868 -0.007,-0.31191 -0.0378,-0.31191 -0.0283,0 -0.0419,-0.0368 -0.0419,-0.11375 0,-0.034 -0.006,-0.0673 -0.0123,-0.0741 -0.006,-0.006 -0.0123,-0.021 -0.0123,-0.0315 0,-0.0105 -0.0167,-0.0216 -0.037,-0.0245 -0.0301,-0.004 -0.037,-0.0157 -0.037,-0.0611 0,-0.0794 0.0464,-0.20858 0.086,-0.23973 0.0277,-0.0218 0.0316,-0.0373 0.0223,-0.0872 -0.006,-0.0334 -0.0215,-0.0646 -0.0338,-0.0694 -0.0142,-0.006 -0.0224,-0.0353 -0.0224,-0.0824 0,-0.0813 0.0285,-0.10741 0.0812,-0.0745 0.0247,0.0155 0.0332,0.0131 0.047,-0.0125 0.009,-0.0172 0.0123,-0.0539 0.006,-0.0813 -0.009,-0.0435 -0.005,-0.0513 0.0321,-0.0605 0.0596,-0.015 0.0769,0.002 0.0769,0.0748 0,0.12274 0.0626,0.092 0.14124,-0.0694 0.15024,-0.30826 0.21613,-0.45717 0.228,-0.5153 0.011,-0.0542 0.13588,-0.20512 0.16948,-0.20496 0.0113,5e-5 0.0205,-0.006 0.0205,-0.0144 0,-0.008 0.0241,-0.0236 0.0534,-0.0349 0.12014,-0.0458 0.17044,-0.0728 0.20562,-0.1103 0.0204,-0.0217 0.037,-0.0456 0.037,-0.0532 0,-0.007 0.0183,-0.0258 0.0407,-0.0404 0.0403,-0.0265 0.0404,-0.0272 0.0123,-0.0832 -0.0156,-0.0311 -0.0431,-0.0588 -0.0613,-0.0616 -0.0308,-0.005 -0.0325,-0.0152 -0.0267,-0.16743 0.003,-0.0937 0.0157,-0.18068 0.0287,-0.20561 0.0124,-0.0238 0.0226,-0.0514 0.0226,-0.0613 5e-5,-0.01 0.0258,-0.0445 0.0572,-0.0769 0.0891,-0.0917 0.23844,-0.11288 0.41527,-0.0588 0.0876,0.0267 0.20201,0.20176 0.20201,0.30893 0,0.0306 0.01,0.0553 0.0247,0.0609 0.0436,0.0167 0.0261,0.0781 -0.0428,0.15013 -0.0394,0.0412 -0.0704,0.0915 -0.0753,0.12186 -0.004,0.0284 -0.0144,0.0682 -0.022,0.0883 -0.0188,0.0495 0.0318,0.0917 0.14429,0.12029 0.12183,0.031 0.20715,0.0755 0.25598,0.13348 0.0231,0.0275 0.0496,0.0499 0.0588,0.0499 0.0214,0 0.10045,0.13379 0.10045,0.17005 0,0.0151 0.006,0.0274 0.0142,0.0274 0.008,0 0.0237,0.0446 0.0353,0.0992 0.0115,0.0546 0.0274,0.1031 0.0352,0.10789 0.008,0.005 0.0141,0.0202 0.0141,0.0341 0,0.014 0.0185,0.0623 0.0411,0.1073 0.0332,0.0662 0.0411,0.1062 0.0411,0.20892 0,0.10853 -0.006,0.1349 -0.0398,0.18094 -0.047,0.0637 -0.137,0.13326 -0.17315,0.13386 -0.033,4.9e-4 -0.0797,0.10414 -0.0853,0.18921 -0.004,0.0636 0.0497,0.20838 0.0858,0.2307 0.0265,0.0163 0.0159,0.11261 -0.0179,0.16362 -0.0179,0.0271 -0.0328,0.0623 -0.0328,0.0781 -7e-5,0.0159 -0.007,0.0288 -0.0166,0.0288 -0.009,0 -0.0165,0.0204 -0.0165,0.0452 -1e-5,0.0249 -0.0177,0.0658 -0.0393,0.0909 -0.0231,0.0269 -0.0439,0.0778 -0.0503,0.12337 -0.006,0.0427 -0.0208,0.10728 -0.0329,0.14346 -0.0218,0.0656 -0.0446,0.16575 -0.0765,0.33722 -0.009,0.0497 -0.0256,0.10829 -0.0364,0.13008 -0.0255,0.0518 -0.0223,0.51599 0.003,0.52464 0.0225,0.007 0.0238,0.0691 0.002,0.0691 -0.009,0 -0.0164,0.0255 -0.0164,0.0567 0,0.0455 0.0114,0.0654 0.0575,0.10066 0.0316,0.0241 0.0575,0.0543 0.0575,0.0669 0,0.0126 0.009,0.0372 0.0198,0.0547 0.0164,0.0262 0.0143,0.038 -0.0123,0.0679 -0.0177,0.0199 -0.0563,0.0463 -0.0856,0.0587 -0.0294,0.0125 -0.054,0.0244 -0.0547,0.0265 -4.9e-4,0.002 -0.008,0.0631 -0.0174,0.13548 -0.0285,0.23117 -0.0341,0.3577 -0.0174,0.39316 0.009,0.019 0.0293,0.0931 0.0451,0.16479 l 0.0289,0.13026 -0.0478,0.0382 c -0.0378,0.0303 -0.0667,0.0379 -0.13828,0.0365 -0.0498,-8e-4 -0.11083,-0.0124 -0.13571,-0.0255 z m -0.0452,-0.72936 c 0,-0.0877 -0.006,-0.14804 -0.0165,-0.14804 -0.0178,0 -0.0233,0.2264 -0.006,0.27007 0.0187,0.0487 0.0229,0.0262 0.0229,-0.12203 z"
         id="path272" />
      <path
         style="fill:#000000;stroke-width:0.0164492"
         d="m 179.2122,514.15911 c 0.0181,-0.0102 0.0383,-0.0267 0.045,-0.0365 0.0192,-0.0285 0.0145,-0.10857 -0.008,-0.13361 -0.0113,-0.0126 -0.0306,-0.0348 -0.0427,-0.0493 -0.0122,-0.0145 -0.0304,-0.074 -0.0403,-0.13217 -0.01,-0.0582 -0.024,-0.10583 -0.0312,-0.10583 -0.007,0 -0.0131,-0.037 -0.0131,-0.0822 0,-0.0452 0.007,-0.0823 0.0165,-0.0823 0.009,0 0.0166,-0.0315 0.0167,-0.0699 2.6e-4,-0.084 0.009,-0.0985 0.0757,-0.12542 0.0708,-0.0286 0.094,-0.0849 0.0707,-0.17145 -0.0101,-0.0374 -0.0307,-0.0837 -0.0459,-0.10297 -0.0197,-0.0251 -0.0258,-0.0575 -0.0212,-0.11478 l 0.006,-0.0798 0.0551,0.0649 c 0.10829,0.1276 0.19313,0.20467 0.2253,0.20467 0.0284,0 0.0314,-0.008 0.0229,-0.06 -0.006,-0.033 -0.0248,-0.076 -0.0432,-0.0956 -0.0184,-0.0196 -0.0336,-0.0408 -0.0336,-0.0469 0,-0.006 -0.0117,-0.0242 -0.0258,-0.0401 -0.0967,-0.10759 -0.12943,-0.1686 -0.0904,-0.1686 0.008,0 0.0266,-0.0113 0.0403,-0.025 0.0202,-0.0202 0.0232,-0.0529 0.0155,-0.16861 -0.005,-0.079 -0.016,-0.15061 -0.0239,-0.1592 -0.008,-0.009 -0.0144,-0.0427 -0.0144,-0.0758 0,-0.0476 -0.0109,-0.0692 -0.0525,-0.10363 -0.0289,-0.0239 -0.0585,-0.0435 -0.0658,-0.0435 -0.007,0 -0.0133,-0.011 -0.0133,-0.0242 0,-0.0134 -0.0235,-0.0303 -0.053,-0.0379 -0.043,-0.0112 -0.0567,-0.026 -0.0723,-0.0786 -0.0105,-0.0357 -0.0311,-0.0871 -0.0456,-0.11422 -0.0145,-0.0271 -0.0264,-0.0614 -0.0264,-0.0762 -5e-5,-0.0147 -0.0112,-0.036 -0.0248,-0.0472 -0.0136,-0.0113 -0.0247,-0.0325 -0.0248,-0.0472 -5e-5,-0.0147 -0.0104,-0.0464 -0.0229,-0.0704 -0.0126,-0.024 -0.0316,-0.0703 -0.0423,-0.10281 -0.0107,-0.0325 -0.0258,-0.0592 -0.0336,-0.0592 -0.008,0 -0.0192,-0.0162 -0.0255,-0.036 -0.012,-0.0378 -0.11662,-0.14498 -0.14156,-0.14498 -0.008,0 -0.0219,-0.0194 -0.0309,-0.043 -0.0162,-0.0426 -0.0175,-0.0429 -0.13809,-0.0316 -0.13923,0.013 -0.19017,-0.004 -0.19017,-0.0639 0,-0.031 0.0112,-0.0408 0.0559,-0.0492 0.0477,-0.009 0.0574,-0.0187 0.0666,-0.0676 0.0118,-0.0633 -0.003,-0.16764 -0.0255,-0.18168 -0.008,-0.005 -0.0146,-0.0303 -0.0146,-0.0563 0,-0.0711 -0.0274,-0.12944 -0.0901,-0.19222 -0.065,-0.065 -0.12932,-0.0875 -0.25002,-0.0875 -0.10804,0 -0.16026,0.02 -0.22652,0.0867 -0.0692,0.0697 -0.0913,0.13882 -0.0913,0.28585 0,0.0747 -0.006,0.12092 -0.0175,0.12092 -0.01,0 -0.0152,0.0204 -0.0123,0.0452 0.004,0.0325 0.0157,0.0467 0.0425,0.0505 0.0245,0.003 0.0492,0.0287 0.0719,0.0732 l 0.0346,0.0679 -0.0443,0.0352 c -0.0243,0.0194 -0.09,0.0581 -0.14592,0.086 -0.17101,0.0854 -0.25191,0.18065 -0.28254,0.33281 -0.006,0.0317 -0.0214,0.0909 -0.0335,0.13159 -0.012,0.0407 -0.0262,0.0944 -0.0316,0.11926 -0.006,0.0249 -0.0195,0.0452 -0.0313,0.0452 -0.0357,0 -0.0567,-0.0652 -0.077,-0.23851 -0.0105,-0.0905 -0.0247,-0.1719 -0.0314,-0.18094 -0.006,-0.009 -0.0213,-0.0888 -0.0325,-0.17729 -0.0112,-0.0885 -0.0308,-0.18099 -0.0436,-0.20561 -0.0129,-0.0246 -0.0236,-0.067 -0.0239,-0.0941 -2.4e-4,-0.0271 -0.008,-0.0825 -0.0175,-0.12305 -0.0118,-0.0515 -0.0117,-0.0754 2.6e-4,-0.0795 0.0324,-0.0108 0.02,-0.0987 -0.0154,-0.10998 -0.018,-0.006 -0.0329,-0.0247 -0.0329,-0.0423 0,-0.0528 -0.079,-0.0423 -0.10056,0.0134 -0.0185,0.0478 -0.006,0.26259 0.0176,0.29198 0.007,0.009 0.0182,0.0786 0.0246,0.15462 0.006,0.076 0.0184,0.15613 0.0268,0.17808 0.0186,0.0489 0.0483,0.30826 0.0549,0.47881 0.003,0.0694 0.0105,0.14645 0.0173,0.17133 0.0106,0.0385 0.007,0.0452 -0.0206,0.0452 -0.0398,0 -0.0511,0.0261 -0.0638,0.14753 -0.009,0.0877 -0.007,0.0955 0.0417,0.14402 0.0283,0.0283 0.0514,0.0653 0.0514,0.0822 0,0.017 0.006,0.0379 0.0152,0.0464 0.008,0.009 0.0187,0.0712 0.0229,0.13899 0.004,0.0679 0.0156,0.16349 0.0254,0.21252 0.0147,0.0742 0.0133,0.0986 -0.009,0.14564 -0.0229,0.0483 -0.0238,0.0652 -0.006,0.11647 0.0116,0.033 0.035,0.0753 0.052,0.0939 0.0303,0.0333 0.0302,0.0353 -0.004,0.10555 -0.0264,0.0546 -0.0316,0.0855 -0.0221,0.13055 0.0165,0.0776 0.0164,0.14453 -1.3e-4,0.42444 -0.0108,0.18148 -0.009,0.23954 0.007,0.25907 0.0234,0.0282 0.10808,0.0341 0.12378,0.009 0.006,-0.009 0.0382,-0.0165 0.0724,-0.0165 0.0714,0 0.1426,-0.0503 0.12739,-0.09 -0.013,-0.034 0.006,-0.0319 0.0314,0.003 0.0171,0.0234 0.0466,0.0288 0.15807,0.0288 0.11704,0 0.14433,-0.006 0.18693,-0.0374 0.0274,-0.0206 0.0793,-0.0415 0.11515,-0.0465 0.0359,-0.005 0.0801,-0.0152 0.0981,-0.0227 0.0181,-0.007 0.0683,-0.0228 0.11166,-0.0339 0.0961,-0.0248 0.1433,-0.0788 0.1433,-0.164 0,-0.0501 0.007,-0.0635 0.037,-0.0716 0.0878,-0.0235 0.10748,0.006 0.0621,0.0956 -0.0207,0.0406 -0.0265,0.0736 -0.0184,0.10422 0.0115,0.0433 0.0162,0.045 0.14002,0.0496 0.12715,0.005 0.12851,0.004 0.18364,-0.0523 0.0305,-0.0315 0.0587,-0.0522 0.0625,-0.046 0.004,0.006 0.0116,0.0658 0.0173,0.13241 0.0138,0.16123 0.0374,0.18201 0.20664,0.18207 0.0679,3e-5 0.13817,-0.008 0.15626,-0.0186 z m -1.80027,-0.77702 c -0.0111,-0.0134 -0.0154,-0.0319 -0.01,-0.0413 0.0199,-0.0321 0.0581,-0.2 0.0581,-0.25493 0,-0.0337 0.01,-0.0587 0.0247,-0.0645 0.0299,-0.0114 0.0328,-0.0696 0.004,-0.0807 -0.0113,-0.004 -0.0304,-0.044 -0.0425,-0.0881 -0.0121,-0.0441 -0.0296,-0.0961 -0.0389,-0.11564 -0.0236,-0.049 -0.008,-0.0667 0.0722,-0.0802 0.0626,-0.0105 0.15646,-0.053 0.20553,-0.0928 0.0133,-0.0107 0.0243,-0.006 0.0347,0.0141 0.035,0.0683 0.0356,0.11783 0.002,0.19358 -0.0315,0.0712 -0.0321,0.0798 -0.008,0.1167 0.0244,0.0372 0.0239,0.0422 -0.008,0.074 -0.0379,0.0379 -0.0332,0.10602 0.012,0.17749 0.0198,0.0312 0.0208,0.0474 0.005,0.0855 -0.0107,0.0258 -0.016,0.0567 -0.0118,0.0684 0.004,0.0118 -0.0173,0.0557 -0.0477,0.0976 -0.0304,0.0419 -0.0553,0.0845 -0.0553,0.0946 0,0.0101 -0.006,0.0183 -0.0138,0.0183 -0.007,0 -0.0236,0.0296 -0.0355,0.0658 -0.0119,0.0362 -0.0261,0.0658 -0.0315,0.0658 -0.006,0 -0.0207,0.0241 -0.034,0.0534 -0.024,0.053 -0.0243,0.0521 -0.0428,-0.11476 -0.0102,-0.0925 -0.0277,-0.17917 -0.0388,-0.19256 z m 1.38333,0.22533 c -0.0166,-0.0777 -8.1e-4,-0.13071 0.0323,-0.11015 0.0194,0.012 0.0188,0.18802 -4.9e-4,0.18802 -0.008,0 -0.0226,-0.035 -0.0317,-0.0778 z m -1.45306,-1.42258 c 0.0118,-0.0118 0.0195,-0.0128 0.0195,-0.002 0,0.0219 -0.0195,0.0414 -0.0304,0.0304 -0.005,-0.005 2.5e-4,-0.0172 0.0109,-0.028 z"
         id="path271" />
      <path
         style="fill:#000000;stroke-width:0.0164492"
         d="m 188.67766,510.29461 c -0.0287,0.004 -0.0673,0.0432 -0.18862,0.18656 -0.0452,0.0535 -0.11211,0.13185 -0.14831,0.17415 -0.0361,0.0423 -0.086,0.10145 -0.11059,0.13125 -0.0434,0.0525 -0.0454,0.0533 -0.077,0.0248 -0.0313,-0.028 -0.0348,-0.0281 -0.0863,0.009 -0.0356,0.0254 -0.0713,0.0366 -0.10748,0.0336 -0.0415,-0.004 -0.0543,0.002 -0.0543,0.0227 0,0.037 -0.0373,0.0228 -0.0574,-0.0217 -0.009,-0.0198 -0.0219,-0.0362 -0.0289,-0.0362 -0.007,0 -0.0124,-0.007 -0.0124,-0.017 0,-0.0363 -0.0696,-0.16787 -0.11214,-0.21187 -0.0914,-0.0948 -0.20375,-0.12004 -0.34675,-0.0775 -0.0838,0.0249 -0.18294,0.10585 -0.18294,0.14935 0,0.0125 -0.009,0.0265 -0.0207,0.0305 -0.0151,0.005 -0.0201,0.0555 -0.0181,0.18913 0.003,0.19762 0.0261,0.28371 0.077,0.28371 0.0409,0 0.0661,0.0294 0.0884,0.10335 0.0184,0.0614 0.0178,0.0623 -0.0294,0.0713 -0.0264,0.005 -0.0476,0.0157 -0.0476,0.0227 0,0.007 -0.029,0.0178 -0.0641,0.0238 -0.12101,0.0204 -0.19947,0.14807 -0.19947,0.32453 0,0.11745 -0.022,0.24442 -0.0522,0.29972 -0.0358,0.0656 -0.0446,0.12939 -0.0289,0.21239 0.009,0.0467 0.023,0.0874 0.032,0.0904 0.009,0.003 0.0165,0.0179 0.0165,0.0331 0,0.0507 0.0956,0.14828 0.15658,0.15968 0.0399,0.008 0.0568,0.02 0.0568,0.0408 0,0.0164 0.008,0.0321 0.0165,0.0351 0.0218,0.008 0.0247,0.15519 0.004,0.18139 -0.01,0.0117 -0.0273,0.0637 -0.0393,0.11575 -0.012,0.052 -0.0271,0.0946 -0.0331,0.0946 -0.006,0 -0.0167,0.0231 -0.0227,0.0512 -0.01,0.0444 -0.0339,0.10834 -0.0899,0.23668 -0.008,0.0181 -0.0183,0.0489 -0.0243,0.0682 -0.005,0.0194 -0.0414,0.0682 -0.0806,0.10852 -0.13151,0.13532 -0.2899,0.40471 -0.2899,0.49351 0,0.0529 0.0581,0.17725 0.0827,0.17725 0.009,0 0.016,0.008 0.016,0.0165 0,0.007 0.0782,0.0268 0.0782,0.0268 l 0.17558,0.008 c -0.0679,-0.002 0.0715,-0.004 0.10125,-0.0263 0.0176,-0.0134 0.0413,-0.024 0.0532,-0.0243 0.0119,-2e-4 0.0457,-0.0193 0.0754,-0.0419 0.0296,-0.0226 0.0661,-0.0408 0.0811,-0.0408 0.0149,0 0.0274,-0.008 0.0274,-0.0165 0,-0.009 0.009,-0.0168 0.0207,-0.0171 0.0243,-6.1e-4 0.0687,-0.0582 0.0853,-0.11059 0.007,-0.0207 0.0253,-0.0372 0.0424,-0.0372 0.0167,0 0.0327,-0.007 0.0357,-0.016 0.003,-0.009 0.0294,-0.0204 0.0589,-0.0263 l 0.0532,-0.0109 v 0.18138 c 0,0.13048 0.005,0.18314 0.0202,0.18914 l 5.2e-4,-5.2e-4 c -0.0116,0.0792 0.18415,0.1247 0.18415,0.1247 l 0.39255,-0.0405 c 0.0286,0.002 0.0476,-0.0393 0.0641,-0.0393 0.0165,0 0.03,-0.008 0.03,-0.0165 0,-0.01 0.0113,-0.0165 0.0253,-0.0165 0.014,0 0.0589,-0.0327 0.0997,-0.0729 0.0614,-0.0605 0.0762,-0.0685 0.0842,-0.0455 0.032,0.0872 0.14031,0.13148 0.18551,0.077 0.0113,-0.0136 0.0299,-0.0243 0.0413,-0.0243 0.0114,0 0.025,-0.013 0.031,-0.0289 0.006,-0.0159 0.0213,-0.0477 0.0346,-0.0703 0.0133,-0.0226 0.0242,-0.0809 0.0243,-0.12971 3e-4,-0.0708 -0.0107,-0.10548 -0.0517,-0.17208 -0.0357,-0.0582 -0.0556,-0.11619 -0.0646,-0.19069 -0.007,-0.0589 -0.021,-0.10965 -0.031,-0.11265 -0.01,-0.003 -0.0176,-0.0163 -0.0176,-0.0289 0,-0.026 -0.0819,-0.0729 -0.12712,-0.0729 -0.0166,0 -0.047,0.0119 -0.0677,0.0264 -0.0506,0.0355 -0.0603,0.0196 -0.0284,-0.0444 0.0145,-0.0291 0.0264,-0.0704 0.0264,-0.0915 0,-0.0284 0.0154,-0.0446 0.0584,-0.0625 0.10512,-0.0439 0.10911,-0.0543 0.12351,-0.31523 0.007,-0.13119 0.0204,-0.24696 0.0294,-0.25786 0.0308,-0.0366 0.0316,-0.17622 0.002,-0.17622 -0.01,0 -0.0427,-0.0115 -0.0729,-0.0258 -0.0423,-0.0204 -0.0625,-0.0222 -0.0889,-0.008 -0.0228,0.013 -0.0346,0.013 -0.0346,0.002 0,-0.009 0.006,-0.0171 0.015,-0.0171 0.008,0 0.0279,-0.035 0.045,-0.078 0.0354,-0.0892 0.044,-0.34496 0.0129,-0.38396 -0.0101,-0.0127 -0.024,-0.0518 -0.03,-0.0868 -0.006,-0.035 -0.0189,-0.0757 -0.0269,-0.0904 -0.008,-0.0147 -0.022,-0.0746 -0.031,-0.13281 -0.009,-0.0581 -0.023,-0.11024 -0.03,-0.11524 -0.007,-0.005 -0.0312,-0.0369 -0.0537,-0.0708 -0.0225,-0.0338 -0.05,-0.0614 -0.0605,-0.0615 -0.0105,0 -0.0218,-0.009 -0.0248,-0.0176 -0.003,-0.01 -0.0478,-0.0209 -0.0997,-0.0269 -0.0519,-0.005 -0.0946,-0.0125 -0.0946,-0.0155 0,-0.003 0.037,-0.0429 0.0822,-0.0884 0.054,-0.0543 0.0827,-0.0964 0.0827,-0.12299 0,-0.0253 0.0406,-0.091 0.10852,-0.17518 0.13905,-0.1722 0.1418,-0.17506 0.1726,-0.20826 0.0144,-0.0155 0.0474,-0.0576 0.0739,-0.0935 0.0264,-0.0358 0.0593,-0.0774 0.0729,-0.0925 0.0875,-0.097 0.10459,-0.16524 0.0444,-0.17674 -0.004,-7.4e-4 -0.008,-5.3e-4 -0.0119,0 z m -0.32071,3.08044 c 0.002,-4e-4 0.003,-1.9e-4 0.004,10e-4 0.005,0.005 -4e-5,0.0183 -0.0114,0.0295 -0.016,0.0164 -0.0176,0.0148 -0.009,-0.009 0.005,-0.0122 0.011,-0.0205 0.016,-0.0217 z"
         id="path274" />
      <path
         style="fill:#000000;stroke-width:0.0164492"
         d="m 182.94697,508.2651 v 5.2e-4 c -0.1002,0.007 -0.19503,0.0576 -0.25528,0.14314 -0.0404,0.0573 -0.0488,0.087 -0.0548,0.19585 -0.004,0.0707 -0.0143,0.14515 -0.0243,0.16485 -0.0231,0.0472 -0.007,0.0839 0.0439,0.10335 0.0228,0.009 0.0418,0.0257 0.0419,0.0372 0,0.0116 0.01,0.0399 0.0217,0.0631 0.012,0.0239 0.0163,0.0557 0.0103,0.0739 -0.019,0.0507 -0.15108,0.16494 -0.21498,0.18604 -0.17177,0.0567 -0.26517,0.12925 -0.32607,0.25425 -0.0278,0.0572 -0.0507,0.1114 -0.0507,0.1204 0,0.009 -0.0144,0.0468 -0.0325,0.0842 -0.0181,0.0375 -0.0331,0.0791 -0.0331,0.0925 0,0.0134 -0.007,0.0286 -0.015,0.0336 -0.008,0.005 -0.0204,0.0393 -0.0264,0.076 -0.006,0.0367 -0.0357,0.11472 -0.0656,0.17312 -0.0449,0.0876 -0.053,0.1182 -0.045,0.1757 0.0193,0.145 0.0927,0.24238 0.18293,0.24236 h 0.0429 l -0.006,0.15245 c -0.003,0.0837 -0.0126,0.15619 -0.0186,0.16019 -0.0308,0.0206 -0.0454,0.28758 -0.0248,0.45269 0.009,0.0743 0.0167,0.0865 0.0739,0.11937 0.035,0.0201 0.0847,0.0367 0.11007,0.0367 h 0.046 l -0.005,0.31574 c -0.005,0.30042 0.008,0.40773 0.0465,0.40773 0.007,0 -0.001,0.0279 -0.0186,0.0615 -0.0171,0.0335 -0.031,0.0705 -0.031,0.0822 0,0.0112 -0.007,0.0212 -0.015,0.0212 -0.008,0 -0.0193,0.0276 -0.0253,0.0615 -0.006,0.0339 -0.0205,0.0721 -0.031,0.0847 -0.0229,0.0275 -0.0265,0.43465 -0.005,0.53847 0.013,0.0628 0.0112,0.0689 -0.0238,0.0801 -0.0607,0.0193 -0.0806,0.05 -0.0806,0.12402 0,0.0706 0.0303,0.11289 0.0822,0.11369 0.0161,4e-4 0.0254,0.0193 0.0274,0.0543 0.002,0.0294 0.008,0.0889 0.0145,0.13229 0.01,0.0654 0.005,0.0916 -0.0274,0.15555 -0.0216,0.0423 -0.0505,0.0901 -0.0641,0.10594 -0.0385,0.0445 -0.0944,0.10175 -0.12247,0.12505 -0.0165,0.0134 -0.0253,0.0483 -0.0253,0.0946 v 0.0729 l 0.0698,0.002 c 0.14666,0.004 0.25364,-0.004 0.32504,-0.0269 0.0408,-0.0127 0.0936,-0.027 0.11783,-0.032 l 0.0444,-0.009 v -0.35709 -0.3576 l 0.0455,-0.0331 c 0.15527,-0.11309 0.16607,-0.14804 0.18397,-0.59325 0.009,-0.23328 0.0163,-0.28673 0.0419,-0.32453 0.0231,-0.0342 0.0344,-0.0959 0.046,-0.25321 0.0163,-0.22051 0.0466,-0.31559 0.0718,-0.22479 0.007,0.0253 0.0156,0.0535 0.0186,0.0625 0.0165,0.0484 0.0364,0.19143 0.0372,0.26613 6e-4,0.047 0.008,0.0901 0.016,0.0951 0.0204,0.0126 0.0363,0.19695 0.0403,0.493 0.003,0.17533 0.009,0.24718 0.0238,0.25218 0.0271,0.009 0.0242,0.0544 -0.005,0.0935 -0.0425,0.0562 -0.0298,0.11949 0.0372,0.18449 l 0.0615,0.0594 0.005,0.32557 0.005,0.32556 0.17518,0.0977 0.21704,-0.0176 -0.015,-0.0946 c -0.004,-0.0272 -0.0153,-0.0804 -0.0341,-0.11731 -0.0189,-0.037 -0.0384,-0.10694 -0.0434,-0.15554 -0.005,-0.0486 -0.0158,-0.0884 -0.0238,-0.0884 -0.008,0 -0.014,-0.0268 -0.014,-0.0584 0,-0.0316 0.008,-0.0574 0.0165,-0.0574 0.01,0 0.0165,-0.0303 0.0165,-0.0672 0,-0.0626 0.0277,-0.11369 0.0615,-0.11369 0.008,0 0.0421,-0.0241 0.0754,-0.0538 0.0815,-0.0725 0.0821,-0.13505 0.003,-0.21445 l -0.0574,-0.0574 v -0.18397 c 0,-0.16773 0.002,-0.18267 0.0284,-0.17467 0.0591,0.0184 0.0676,-0.01 0.0796,-0.26717 0.008,-0.176 0.0186,-0.259 0.0341,-0.2744 0.0121,-0.0122 0.0222,-0.0435 0.0222,-0.0698 0,-0.0263 0.0109,-0.0843 0.0243,-0.12867 0.0135,-0.0444 0.0247,-0.13082 0.0248,-0.19172 3e-4,-0.10404 0.003,-0.11093 0.0408,-0.12093 0.0309,-0.008 0.0437,-0.0247 0.0517,-0.0703 0.006,-0.033 0.0208,-0.0747 0.0331,-0.0925 0.0124,-0.0183 0.0227,-0.0745 0.0227,-0.12919 0,-0.0946 0.0328,-0.18428 0.0961,-0.26148 0.0159,-0.0197 0.024,-0.073 0.0243,-0.1726 9e-4,-0.24659 -0.0148,-0.50369 -0.0341,-0.56379 -0.0102,-0.0317 -0.0378,-0.13903 -0.0615,-0.23823 -0.0237,-0.0993 -0.0499,-0.1884 -0.0569,-0.1974 -0.007,-0.009 -0.0198,-0.0428 -0.0258,-0.0744 -0.007,-0.0317 -0.026,-0.0831 -0.0429,-0.11472 -0.0169,-0.0316 -0.031,-0.0672 -0.031,-0.0791 0,-0.0199 -0.063,-0.14875 -0.0822,-0.16795 -0.005,-0.005 -0.0187,-0.0284 -0.0315,-0.0532 -0.0128,-0.0248 -0.0441,-0.0542 -0.0698,-0.0656 -0.0257,-0.0114 -0.0465,-0.026 -0.0465,-0.032 0,-0.006 -0.0242,-0.0162 -0.0537,-0.0222 -0.19565,-0.0416 -0.3701,-0.13525 -0.3483,-0.18655 0.006,-0.0149 0.0184,-0.0614 0.0274,-0.10335 0.0139,-0.0655 0.0231,-0.0778 0.063,-0.0858 0.0384,-0.008 0.0484,-0.0205 0.0584,-0.0718 0.0218,-0.11599 -0.0356,-0.33678 -0.11265,-0.43408 -0.0116,-0.0145 -0.0539,-0.0421 -0.094,-0.0615 -0.0576,-0.0278 -0.11972,-0.0386 -0.17984,-0.0341 z m -0.50539,2.07481 c 0.009,0.003 0.009,0.0187 0.006,0.0501 -0.006,0.0594 -0.0378,0.0743 -0.0842,0.0388 -0.0278,-0.0213 -0.0265,-0.0249 0.0191,-0.0574 0.0323,-0.0229 0.05,-0.0341 0.0589,-0.0315 z m 1.14721,1.60093 0.016,0.0548 h -0.001 c 0.0177,0.0596 0.0136,0.11208 -0.006,0.092 -0.007,-0.007 -0.0117,-0.0427 -0.0109,-0.0796 z m -0.006,0.38654 c 0.006,0.002 0.01,0.0361 0.007,0.078 h 5.1e-4 c -0.009,0.13516 -0.0156,0.14766 -0.0176,0.0325 -9.8e-4,-0.0603 0.004,-0.10945 0.0103,-0.11059 z"
         id="path194-6" />
    </g>
  </g>
</svg>
