<?xml version="1.0" encoding="UTF-8" standalone="no"?>
<!-- Created with Inkscape (http://www.inkscape.org/) -->

<svg
   width="20.219004mm"
   height="8.5807199mm"
   viewBox="0 0 20.219004 8.5807199"
   version="1.1"
   id="svg51155"
   sodipodi:docname="inkporter-svg-36syixvn.svg"
   xmlns:inkscape="http://www.inkscape.org/namespaces/inkscape"
   xmlns:sodipodi="http://sodipodi.sourceforge.net/DTD/sodipodi-0.dtd"
   xmlns="http://www.w3.org/2000/svg"
   xmlns:svg="http://www.w3.org/2000/svg">
  <sodipodi:namedview
     id="namedview51157"
     pagecolor="#ffffff"
     bordercolor="#666666"
     borderopacity="1.0"
     inkscape:pageshadow="2"
     inkscape:pageopacity="0.0"
     inkscape:pagecheckerboard="0"
     inkscape:document-units="mm"
     showgrid="false"
     inkscape:zoom="0.64052329"
     inkscape:cx="397.33138"
     inkscape:cy="561.25984"
     inkscape:window-width="3840"
     inkscape:window-height="2081"
     inkscape:window-x="2391"
     inkscape:window-y="-9"
     inkscape:window-maximized="1"
     inkscape:current-layer="layer1" />
  <defs
     id="defs51152" />
  <g
     inkscape:label="Layer 1"
     inkscape:groupmode="layer"
     id="layer1"
     transform="translate(-250.95309,-72.54135)">
    <path
       d="m 271.16581,76.14037 h -0.0937 v 0.0634 c 0,0 -0.10886,-0.0303 -0.15985,-0.005 -0.051,0.0248 -0.14056,0.0675 -0.14056,0.0675 0,0 -0.073,-0.226 -0.24115,-0.23702 -0.10887,-0.007 -0.19982,0.051 -0.25632,0.12402 l -0.0786,-0.13091 h -0.14745 v -0.64079 h -0.1378 v 0.62425 h -1.62471 v -0.11301 h -0.32522 v 0.0606 h -0.44786 v 0.0524 h -0.57189 c -10e-4,-0.0372 -0.004,-0.0703 -0.004,-0.0703 h -0.21911 c 0,0 -0.14057,-0.0772 -0.21774,-0.091 -0.0785,-0.0124 -0.16398,0.0744 -0.16398,0.0744 h -0.16812 v 0.0868 h -0.57051 l 0.11989,-0.19154 h -0.59256 l 1.6316,-1.87 v -0.31971 h -1.983 l 0.0923,-0.25218 h 0.0909 V 73.0264 l 0.81029,0.18741 c 0.04,0.008 0.10335,0.0165 0.14194,-0.0289 0.0372,-0.0427 0.0179,-0.12127 -0.0482,-0.18466 h 0.48921 l 0.0606,-0.0193 0.0193,-0.11576 -0.0193,-0.12402 v -0.13092 h -0.17914 l -0.022,-0.0689 h -0.113 l -0.0565,0.0661 h -1.09278 l -0.48507,-0.003 -0.001,0.0717 h -0.31419 c -0.006,0.0152 -0.0207,0.0262 -0.0744,0 h -0.0648 c -0.005,0.0152 -0.0207,0.0262 -0.0744,0 h -0.0648 c -0.007,0.0152 -0.0207,0.0262 -0.0744,0 l -0.17915,0.022 h -0.0978 l -0.12127,-0.005 h -0.0896 l -0.0634,0.0317 -1.7129,-0.0345 h -0.18052 v 0.18052 l 0.18052,-0.0317 1.33532,0.0648 c 0.37207,0.0193 0.37207,0.0565 0.37207,0.0565 v 0.0372 l -0.18328,0.0565 v 0.15158 h 0.57878 v -0.14469 l -0.17639,-0.0634 v -0.0661 h 0.34037 c 0.007,-0.0124 0.0193,-0.0193 0.0675,0 h 0.0716 c 0.007,-0.0124 0.0193,-0.0193 0.0689,0 h 0.0703 c 0.007,-0.0124 0.0193,-0.0193 0.0689,0 h 0.35002 v 0.26596 h 0.18466 v 0.10612 l -0.12265,0.32108 h -0.58291 l -0.0841,0.14745 h -3.9591 c 0,0 -0.4079,0.20808 -0.48507,0.21635 -0.0785,0.008 -0.3872,0.0524 -0.3872,0.0524 v -0.19155 c 0,0 -0.0207,0.006 -0.0524,0.0152 -0.011,-0.15158 -0.13091,-0.27009 -0.27698,-0.27009 -0.15297,0 -0.27699,0.13091 -0.27699,0.29076 0,0.10336 0.051,0.19431 0.12816,0.24667 -0.14194,0.14056 -0.30317,0.3142 -0.30317,0.3142 0,0 -0.41341,0.0193 -0.4644,10e-4 -0.0524,-0.0179 -0.0606,0.12126 -0.0606,0.12126 L 250.95309,74.68 v 0.42443 l 6.79786,0.10473 v 0.10336 l 0.10335,0.0524 h 0.3955 c 0,0 0.23151,0.31144 0.32659,0.37207 0.0937,0.0606 0.37759,0.0772 0.42995,0.0524 0.051,-0.0262 0.10198,0.0345 0.10198,0.0345 v 0.20809 h -0.12127 l -0.0606,-0.0606 h -0.38447 l -0.17225,-0.31281 -0.4644,0.15572 v 0.21635 h -0.15434 l -0.96049,0.74552 c -0.0207,-0.14332 -0.0772,-0.38723 -0.21636,-0.38172 -0.19843,0.01 -0.24529,0.12127 -0.24529,0.17777 v 0.12126 l -0.0813,-0.10748 v -0.0606 l 0.051,-0.0965 -0.051,-0.0951 h -0.13367 v 0.19981 c 0,0 -0.11989,0.0606 -0.12402,0.15159 -0.004,0.0909 0,0.17776 0,0.17776 h -0.14608 c 0,0 -0.0606,-0.091 -0.0482,-0.25631 0.0138,-0.16399 0.0606,-0.22876 0.0606,-0.22876 l -0.062,-0.0441 c 0,0 -0.11437,0.10059 -0.0965,0.33348 0.0138,0.18741 0.27836,0.53055 0.3831,0.6587 l -0.30593,0.23703 h -0.9536 c -0.61047,0 -0.92053,0.7717 -0.92053,0.7717 l 0.25631,-0.0441 -0.14882,0.4203 c 0,0 0.0331,0.0138 0.0372,0.0248 0.003,0.01 -0.0138,0.0882 -0.0138,0.0882 0,0 -0.0813,0.003 -0.0841,0.0124 -0.004,0.011 0.0234,0.37345 0.0234,0.37345 l 0.0868,0.0207 0.0537,0.0978 -0.04,0.0703 0.23564,0.3018 0.0606,-0.007 0.0565,0.0675 c 0,0 -0.0138,0.0551 -0.0165,0.0717 -0.003,0.0165 0.28525,0.23013 0.28525,0.23013 l 0.11438,-0.007 0.0207,0.0331 -0.0207,0.062 c 0,0 0.31281,0.25631 0.31695,0.2632 0.003,0.007 0.0565,-0.0469 0.0565,-0.0469 l 0.0331,0.051 v 0.0978 l 0.35691,0.20257 0.0469,-0.04 0.0469,0.04 v 0.10473 l 0.36656,0.1695 0.0427,-0.0469 0.0716,0.0344 0.0234,0.0868 0.22737,0.0551 h 11.02569 l 0.10473,-0.0345 0.22875,-0.12127 v -0.0496 l 0.0427,-0.0179 0.0675,0.0372 0.36655,-0.14883 v -0.0786 l 0.0606,-0.0207 0.0565,0.0413 0.34588,-0.14607 v -0.0772 l 0.0772,-0.0372 0.0648,0.0372 0.339,-0.16261 v -0.0882 l 0.0744,-0.0207 0.073,0.0207 0.31557,-0.16675 v -0.0606 l 0.0744,-0.0331 0.051,0.0331 c 0,0 0.32246,-0.19568 0.33211,-0.19982 0.01,-0.003 0.007,-0.10748 0.007,-0.10748 l 0.0579,-0.0482 h 0.10059 l 0.17088,-0.41616 c 0,0 -0.0634,-0.0441 -0.0772,-0.0372 -0.0138,0.007 0.0165,-0.10749 0.0165,-0.10749 h 0.091 l -0.0579,-0.45061 -0.113,-0.0138 -0.0207,-0.0579 0.0565,-0.0717 -0.2508,-0.31419 -0.0606,0.0469 -0.0455,-0.10749 h 0.73863 l 0.0427,-0.0703 0.0978,0.0841 0.2949,-0.46164 -0.12678,-0.0675 0.0703,-0.11576 -0.0303,-0.0482 c 0.0482,-0.0386 0.10749,-0.0868 0.10749,-0.0868 l -0.14608,-0.28801 c 0,0 0.11989,-0.13091 0.0923,-0.1819 -0.0262,-0.0524 -0.0923,-0.2508 -0.0923,-0.2508 l 0.14608,-0.16674 c 0,0 0.0138,-0.34865 0,-0.34865 m -16.89475,2.43224 c -0.0152,-0.004 -0.0262,-0.005 -0.0317,-0.007 -0.0165,-0.003 0.003,-0.0165 0.022,-0.0276 0.003,0.011 0.006,0.022 0.01,0.0345 m 1.57234,1.14928 c -0.073,0.11989 -0.11714,0.26045 -0.11714,0.41203 0,0.0868 0.0138,0.16812 0.04,0.24529 l -0.12816,0.10611 c 0,0 -0.20257,-0.16536 -0.21911,-0.1695 -0.0165,-0.004 0.0772,-0.22324 0.0772,-0.22324 l -0.0772,-0.0482 -0.21911,0.10197 -0.17087,-0.17639 c 0,0 0.0248,-0.0565 0.0469,-0.11161 0.0234,0.04 0.04,0.0758 0.0372,0.0854 -0.01,0.0262 0.11989,-0.23288 0.15434,-0.26871 0.0345,-0.0345 0.24115,0.16536 0.24115,0.16536 l 0.0593,-0.11851 z m 0.0896,0.94396 -0.0634,-0.0386 0.003,-0.0372 c 0.0179,0.0262 0.0386,0.051 0.0606,0.0758 m 0.74965,-3.80615 -0.0427,0.0331 h -0.18741 c 0,0 -0.004,-0.1695 -0.004,-0.27699 0,-0.10886 0.1943,-0.12677 0.1943,-0.0262 0,0.0992 0.0165,0.26596 0.0165,0.26596 z m 1.73771,3.86678 -0.0675,0.14469 h -0.0344 l -0.1006,-0.22737 h -0.073 l -0.0772,0.22324 h -0.25218 l -0.0813,-0.226 h -0.11713 l -0.0537,0.21635 h -0.27974 l -0.0841,-0.20263 h -0.0799 c 0,0 -0.0813,0.20671 -0.0841,0.21636 -10e-4,0.005 -0.11989,-0.007 -0.22462,-0.0179 0.2756,-0.11988 0.46853,-0.39687 0.46853,-0.71933 0,-0.0138 0,-0.0289 -0.001,-0.0427 h 0.87367 c -10e-4,0.0138 -10e-4,0.0289 -10e-4,0.0427 0,0.23702 0.10473,0.44924 0.2701,0.59255 m 0.44786,-6.84196 c 0,0.01 -0.001,0.0179 -0.003,0.0262 -0.0345,0.0138 -0.0675,0.0276 -0.0923,0.0427 -0.0179,0.011 -0.051,0.0386 -0.0896,0.0758 -0.0565,-0.0207 -0.0965,-0.0772 -0.0965,-0.14469 0,-0.0841 0.0634,-0.15296 0.14056,-0.15296 0.0772,0 0.14056,0.0689 0.14056,0.15296 m 0.57051,6.83645 c -0.0165,0.0593 -0.0372,0.13091 -0.0372,0.1378 0,0.011 -0.1819,0 -0.1819,0 0.0813,-0.0331 0.15572,-0.0799 0.21911,-0.1378 m 4.15754,-7.60815 h -0.50436 v -0.0372 l 0.25356,-0.0799 z m 2.66099,-0.24805 h 0.0923 v 0.11575 h -0.0923 z m 0,-0.23564 h 0.0923 v 0.11162 h -0.0923 z m -5.83048,8.24204 h -0.24942 l -0.0882,-0.23289 h -0.0965 c 0,0 -0.0675,0.24254 -0.0634,0.23978 0.003,-0.004 -0.26596,0 -0.26596,0 l -0.0675,-0.23013 h -0.0841 c 0.11851,-0.1378 0.19154,-0.31695 0.19154,-0.51401 0,-0.15158 -0.0441,-0.29214 -0.11713,-0.41203 h 0.44235 c -0.0744,0.11989 -0.11713,0.26045 -0.11713,0.41203 0,0.34038 0.21497,0.62839 0.51538,0.73725 m 1.90859,-0.73725 c 0,0.2136 0.0841,0.40514 0.22048,0.5457 l -0.0661,0.18466 h -0.2701 l -0.0868,-0.22324 h -0.10474 l -0.0703,0.226 h -0.2384 c 0.007,0 -0.10473,-0.21911 -0.10473,-0.21911 h -0.0799 l -0.0634,0.2136 h -0.27561 l -0.0551,-0.091 c 0.19568,-0.14331 0.32384,-0.37482 0.32384,-0.63665 0,-0.0138 0,-0.0289 -10e-4,-0.0427 h 0.87367 c -0.001,0.0138 -0.001,0.0289 -0.001,0.0427 m 0.53468,0.74414 c -0.0648,-0.001 -0.10887,-0.004 -0.10887,-0.004 l -0.0193,-0.051 c 0.0413,0.022 0.0841,0.04 0.12815,0.0551 m 0.66698,-0.0896 c -0.01,0.04 -0.0165,0.0758 -0.0165,0.0854 0,0.01 -0.0841,0.0124 -0.19568,0.0124 0.0758,-0.022 0.14745,-0.0551 0.21222,-0.0978 m 1.00597,0.0827 h -0.27699 l -0.0797,-0.21636 h -0.11163 l -0.0634,0.21222 h -0.26597 l -0.0703,-0.1943 c 0.1323,-0.14056 0.2136,-0.33073 0.2136,-0.53881 0,-0.15159 -0.0441,-0.29215 -0.11713,-0.41204 h 0.37344 c -0.0744,0.11989 -0.11713,0.26045 -0.11713,0.41204 0,0.34037 0.21498,0.62838 0.51539,0.73725 m 2.12907,-0.19017 c -0.0248,0.0689 -0.0703,0.18879 -0.0799,0.18603 -0.0138,-0.003 -0.25218,0.0138 -0.25218,0.0138 l -0.0565,-0.24667 h -0.12127 l -0.0648,0.25769 h -0.26872 l -0.0703,-0.25356 h -0.12127 l -0.0565,0.23978 h -0.27974 l -0.0427,-0.11024 c 0.19568,-0.14194 0.32246,-0.37207 0.32246,-0.6339 0,-0.0138 0,-0.0289 -0.001,-0.0427 h 0.87368 c -0.001,0.0138 -0.001,0.0289 -0.001,0.0427 0,0.2136 0.0841,0.40652 0.22048,0.54708 m 0.2949,0.19017 h -0.12264 l -0.0179,-0.0675 c 0.0441,0.0276 0.0909,0.0496 0.14056,0.0675 m 2.49425,-0.96462 -0.23427,0.12539 -0.16536,-0.16674 -0.0841,0.051 v 0.22738 c 0,0 -0.21084,0.10473 -0.22186,0.10473 -0.01,0 -0.1571,-0.15297 -0.1571,-0.15297 l -0.0813,0.0441 0.011,0.21635 -0.24942,0.11852 -0.15158,-0.14883 -0.0772,0.0413 -0.003,0.22324 -0.2384,0.10887 c 0,0 -0.0138,-0.007 -0.0303,-0.0138 0.13918,-0.14056 0.226,-0.33624 0.226,-0.55121 0,-0.15159 -0.0441,-0.29215 -0.11713,-0.41204 h 0.54432 l 0.25632,-0.2632 c 0.13918,0.24253 0.40101,0.40514 0.69866,0.40514 0.0234,0 0.0469,0 0.0703,-0.003 z m 0,0"
       id="U-S-M10" />
  </g>
</svg>
