<?xml version="1.0" encoding="UTF-8" standalone="no"?>
<!-- Created with Inkscape (http://www.inkscape.org/) -->

<svg
   width="34.504391mm"
   height="6.0716014mm"
   viewBox="0 0 34.504391 6.0716014"
   version="1.1"
   id="svg1"
   sodipodi:docname="inkporter-svg-n34prkee.svg"
   xmlns:inkscape="http://www.inkscape.org/namespaces/inkscape"
   xmlns:sodipodi="http://sodipodi.sourceforge.net/DTD/sodipodi-0.dtd"
   xmlns="http://www.w3.org/2000/svg"
   xmlns:svg="http://www.w3.org/2000/svg">
  <sodipodi:namedview
     id="namedview1"
     pagecolor="#ffffff"
     bordercolor="#666666"
     borderopacity="1.0"
     inkscape:showpageshadow="2"
     inkscape:pageopacity="0.0"
     inkscape:pagecheckerboard="0"
     inkscape:deskcolor="#d1d1d1"
     inkscape:document-units="mm"
     inkscape:zoom="4.1172106"
     inkscape:cx="497.42416"
     inkscape:cy="299.59604"
     inkscape:window-width="1920"
     inkscape:window-height="1017"
     inkscape:window-x="-8"
     inkscape:window-y="-8"
     inkscape:window-maximized="1"
     inkscape:current-layer="layer1" />
  <defs
     id="defs1" />
  <g
     inkscape:label="Layer 1"
     inkscape:groupmode="layer"
     id="layer1"
     transform="translate(-114.3,-76.199979)">
    <g
       id="U-S-Infantry5-LMG"
       transform="translate(-5.29166,-343.57358)">
      <g
         id="g3">
        <path
           style="fill:#000000;fill-opacity:1;fill-rule:nonzero;stroke:none;stroke-width:0.352778"
           d="m 127.50725,425.49556 0.0386,-0.0634 v -0.15709 l -0.0262,-0.12678 -0.062,-0.0896 0.006,-0.10749 0.0317,-0.0248 v -0.17777 l -0.10197,-0.0124 -0.17639,0.0124 -0.16537,0.0317 -0.10748,0.0565 -0.12678,0.0455 -0.0565,-0.0579 -0.0634,0.0386 -0.10749,0.1006 -0.15296,0.10197 -0.20809,0.0827 -0.59531,-0.0317 -0.15296,-0.0772 -0.30317,-0.16398 -0.15847,-0.1323 -0.0124,-0.051 -0.0193,-0.12678 -0.15159,-0.14608 -0.19706,-0.0565 -0.16123,0.0496 -0.10748,0.1378 -0.21911,-0.0234 0.007,-0.1006 -0.0579,-0.0703 -0.23978,-0.0689 -0.32935,-0.0138 -0.22186,0.0193 -0.0441,0.0827 h -0.0951 l -0.0579,-0.051 0.0193,-0.0951 -0.0317,-0.1199 -0.0565,-0.12677 -0.12127,-0.0951 -0.15158,-0.0248 -0.16399,0.0248 -0.10886,0.0703 -0.0937,0.15158 -0.0441,0.0951 -0.0386,0.0882 -0.0262,0.0441 0.13367,0.0138 0.007,0.0689 0.0758,0.0124 -0.005,0.12677 0.0441,0.0317 0.0937,0.12678 0.0758,-0.0193 0.12126,0.0455 v 0.17087 l -0.0193,0.1447 -0.14608,0.12126 -0.10059,-0.0138 -0.10887,-0.0882 -0.0937,-0.19017 -0.0317,-0.11989 -0.051,-0.10198 -0.10748,-0.0317 -0.13229,0.007 -0.0262,-0.0441 -0.0124,-0.17087 -0.0951,0.0179 -0.007,0.0262 -0.23427,0.006 -0.0193,0.0317 h -0.79651 l -0.008,0.0951 -1.25953,-0.005 v 0.14607 l 1.25401,-0.007 v 0.21497 l -0.54432,0.61461 -0.0579,0.007 v 0.10059 l 0.0758,-0.0193 0.0138,-0.0441 0.50023,-0.54433 0.0703,-0.007 v 0.56361 l -0.0138,0.051 -0.0248,0.051 -0.0579,0.051 -0.0813,0.0496 0.062,0.0193 0.0772,-0.0372 0.0496,-0.0386 0.0455,-0.0565 0.0248,-0.0827 v -0.56362 h 0.0703 l 0.82958,0.62701 0.006,0.0689 h 0.12678 v -0.113 l -0.10748,-0.007 -0.72761,-0.55673 0.0179,-0.0262 1.09554,0.41204 0.0951,0.0441 0.13367,0.10749 0.0951,0.0386 0.15848,-0.0262 0.15847,-0.0565 0.16399,-0.1006 0.10197,0.0179 0.15848,0.0703 0.35415,0.0689 2.57142,0.007 0.10198,-0.0565 0.22048,-0.0951 0.17226,-0.0317 0.15158,-0.10197 0.0441,-0.0689 0.0262,-0.0896 0.0689,-0.0758 0.17776,0.0193 0.0951,0.0758 0.0565,0.11989 0.0193,0.17776 z"
           id="path2-8" />
        <path
           style="fill:#000000;stroke-width:0.00772503"
           d="m 132.43974,425.84365 c -0.01,-0.002 -0.0227,-0.01 -0.0301,-0.0181 l -0.0135,-0.0148 -0.008,-0.0647 -0.008,-0.0647 0.0168,-0.0286 0.0168,-0.0286 v -0.0619 -0.0619 l -0.0149,-0.0362 c -0.008,-0.0198 -0.0188,-0.0556 -0.0234,-0.0793 l -0.008,-0.0431 0.003,-0.0882 0.003,-0.0883 -0.0289,-0.0396 -0.0289,-0.0396 v -0.0243 c 0,-0.0134 -0.007,-0.0373 -0.015,-0.0531 -0.0205,-0.0392 -0.0805,-0.12502 -0.0743,-0.10625 0.003,0.008 0.007,0.0301 0.01,0.0482 l 0.004,0.0331 -0.0173,0.0476 -0.0173,0.0475 0.004,0.0261 0.004,0.0261 0.0297,0.0337 c 0.0163,0.0186 0.0398,0.0524 0.0524,0.0751 l 0.0227,0.0413 -4.9e-4,0.043 -4.9e-4,0.0429 -0.0195,0.0428 -0.0195,0.0428 -0.0294,0.0183 -0.0295,0.0183 -0.0436,0.003 -0.0436,0.003 -0.0267,-0.0233 c -0.0256,-0.0224 -0.0336,-0.0368 -0.081,-0.1469 l -0.021,-0.049 -0.0431,0.004 c -0.0238,0.003 -0.0693,0.006 -0.10102,0.01 l -0.058,0.004 -0.0411,-0.008 -0.0411,-0.008 -0.11253,0.0552 -0.11255,0.0552 -0.0456,0.0406 -0.0456,0.0406 -0.0355,0.012 -0.0355,0.012 -0.0324,0.0298 c -0.0178,0.0164 -0.0567,0.0442 -0.0862,0.0619 l -0.0538,0.032 -0.0385,0.007 c -0.0213,0.004 -0.0543,0.005 -0.0732,0.003 -0.0426,-0.005 -0.11265,-0.0397 -0.14303,-0.0699 -0.0514,-0.0511 -0.0774,-0.0818 -0.0883,-0.10472 l -0.0116,-0.0241 -0.0267,-0.005 c -0.0147,-0.003 -0.0315,-0.0118 -0.0373,-0.0195 l -0.0106,-0.0143 0.004,-0.0305 c 0.008,-0.0483 0.0588,-0.14926 0.12028,-0.23661 0.0312,-0.0443 0.0834,-0.11924 0.11593,-0.16652 l 0.0592,-0.0859 -0.011,-0.0261 c -0.006,-0.0143 -0.0215,-0.067 -0.0344,-0.11708 l -0.0234,-0.0911 0.004,-0.0185 0.004,-0.0186 0.0289,-0.0201 c 0.0159,-0.011 0.058,-0.0372 0.0932,-0.0581 0.0354,-0.0209 0.0813,-0.0508 0.10197,-0.0666 l 0.0377,-0.0288 0.0171,-0.0431 c 0.01,-0.0238 0.0302,-0.0676 0.0461,-0.0972 l 0.029,-0.0541 -0.01,-0.0587 -0.01,-0.0587 -0.0392,0.0115 c -0.0215,0.006 -0.0549,0.0175 -0.074,0.0251 -0.0191,0.008 -0.0487,0.0158 -0.0657,0.0186 l -0.0308,0.004 -0.054,-0.0115 c -0.0298,-0.006 -0.0696,-0.0169 -0.0884,-0.0237 -0.0661,-0.0234 -0.11632,-0.0768 -0.11638,-0.12331 l -3e-5,-0.0226 -0.0288,-0.0416 -0.0288,-0.0416 3.6e-4,-0.0323 c 2.6e-4,-0.0178 7.9e-4,-0.0416 0.002,-0.0531 l 0.002,-0.0209 0.0269,-0.0261 0.0269,-0.0261 0.0125,-0.0535 0.0125,-0.0535 0.0225,-0.0366 c 0.0124,-0.0202 0.0264,-0.0523 0.0312,-0.0716 0.004,-0.0193 0.0117,-0.0367 0.015,-0.0388 0.008,-0.004 0.11261,-0.21942 0.12753,-0.26069 0.005,-0.0161 0.0231,-0.0481 0.0385,-0.0713 0.0262,-0.0395 0.0454,-0.0586 0.0908,-0.0903 0.0105,-0.007 0.053,-0.0646 0.0947,-0.12745 l 0.0759,-0.11434 0.0403,-0.0396 0.0403,-0.0396 -0.0321,-0.0106 c -0.0177,-0.005 -0.0409,-0.0143 -0.0515,-0.0193 -0.0107,-0.005 -0.0298,-0.0125 -0.0425,-0.0163 l -0.0232,-0.007 -0.003,-0.0153 c -0.002,-0.008 0.004,-0.0282 0.0118,-0.044 l 0.014,-0.0288 -0.0111,-0.091 -0.0111,-0.091 0.008,-0.0564 0.008,-0.0564 0.0253,-0.0515 0.0253,-0.0515 0.0355,-0.0349 c 0.0194,-0.0193 0.0565,-0.0461 0.0822,-0.0598 l 0.0469,-0.0248 0.0541,-0.008 0.054,-0.008 0.0525,0.008 0.0524,0.008 0.0473,0.024 0.0473,0.024 0.0488,0.0488 0.0488,0.0488 0.0187,0.0423 c 0.0106,0.0233 0.029,0.0865 0.0418,0.14039 l 0.0231,0.0981 0.0216,0.0222 0.0216,0.0222 0.0514,2.4e-4 0.0513,2.5e-4 0.043,0.0464 0.043,0.0463 0.004,0.0251 c 0.003,0.0137 0.004,0.0369 0.006,0.0515 l 0.003,0.0265 0.0714,0.0284 c 0.0757,0.0301 0.13495,0.067 0.19639,0.12198 l 0.0375,0.0336 0.0273,0.0476 c 0.015,0.0261 0.0463,0.0719 0.0695,0.10155 0.0232,0.0298 0.0421,0.06 0.0421,0.0672 0,0.0118 0.0494,0.11115 0.0972,0.1955 l 0.0175,0.0308 0.0141,-0.003 c 0.008,-0.002 0.0714,-0.0349 0.14158,-0.0742 l 0.12746,-0.0714 0.0308,-0.004 0.0308,-0.004 0.0877,-0.0459 c 0.0482,-0.0252 0.0957,-0.0533 0.10545,-0.0626 l 0.0177,-0.0166 -0.008,-0.0271 c -0.004,-0.0149 -0.005,-0.0319 -0.003,-0.0376 0.003,-0.005 0.0123,-0.0159 0.0225,-0.0225 l 0.0184,-0.012 0.0238,0.008 0.0238,0.008 0.004,0.0178 0.004,0.0178 0.0298,-0.008 c 0.0164,-0.004 0.0356,-0.005 0.0426,-0.003 0.0183,0.007 0.0157,0.0307 -0.005,0.0507 l -0.0181,0.0171 0.003,0.0176 0.003,0.0176 -0.0295,0.0226 c -0.0164,0.0125 -0.0573,0.037 -0.0914,0.0546 l -0.0617,0.032 -0.003,0.0202 -0.003,0.0202 -0.0188,0.004 c -0.0106,0.003 -0.0241,0.003 -0.0305,2.4e-4 -0.006,-0.003 -0.024,0.002 -0.0385,0.008 l -0.0269,0.0128 v 0.0203 c 0,0.0236 -0.0128,0.0387 -0.0327,0.0387 -0.0192,0 -0.0679,0.0255 -0.13333,0.0697 -0.0298,0.0202 -0.074,0.0476 -0.0985,0.0614 l -0.0443,0.0248 v 0.0554 c -1e-5,0.0304 -0.005,0.0871 -0.0115,0.12586 l -0.0115,0.0706 -0.0276,0.0647 c -0.0152,0.0355 -0.0296,0.0689 -0.0319,0.0742 l -0.004,0.01 h 0.0119 c 0.0155,0 0.0361,0.0294 0.0361,0.052 v 0.0177 l 0.0344,0.0167 0.0344,0.0167 0.01,0.0238 0.01,0.0239 -4.9e-4,0.0834 -4.8e-4,0.0834 -0.0265,0.0259 -0.0265,0.0259 -0.0144,0.0415 c -0.0341,0.0985 -0.0601,0.15941 -0.0748,0.17516 l -0.0157,0.0169 -0.0556,-3e-5 -0.0556,-3e-5 -0.0243,-0.0148 -0.0243,-0.0149 -0.0161,-0.0434 -0.0163,-0.0434 v -0.0344 c 0,-0.019 -0.003,-0.0344 -0.005,-0.0344 -0.003,0 -0.0118,0.0199 -0.019,0.0444 l -0.0131,0.0444 0.0186,0.027 c 0.0106,0.0149 0.0224,0.0444 0.027,0.0658 l 0.008,0.0385 0.0155,0.0119 0.0156,0.0119 0.007,0.0305 c 0.004,0.0167 0.007,0.10812 0.007,0.203 l 2.4e-4,0.17248 0.038,0.11721 c 0.0624,0.19316 0.0705,0.22057 0.0699,0.23879 -3.7e-4,0.01 -0.002,0.0488 -0.003,0.087 -0.002,0.0382 -0.003,0.0904 -0.004,0.11589 l -0.002,0.0463 0.0125,0.042 c 0.007,0.0231 0.0125,0.0587 0.0125,0.0792 v 0.0373 l -0.0163,0.0163 c -0.009,0.01 -0.0306,0.0227 -0.0482,0.0304 l -0.032,0.0141 -0.0696,0.004 c -0.13303,0.01 -0.16233,0.01 -0.17881,0.006 z m -0.59472,-0.93868 c 0.0296,-0.0161 0.068,-0.0318 0.0853,-0.0344 0.0374,-0.005 0.0501,-0.0118 0.0929,-0.0445 0.0178,-0.0136 0.0434,-0.0292 0.0568,-0.0349 l 0.0244,-0.0106 0.0193,0.004 c 0.0107,0.003 0.0336,0.0196 0.051,0.0376 l 0.0318,0.0327 -0.0259,-0.0425 c -0.0143,-0.0233 -0.0308,-0.0458 -0.0371,-0.0496 -0.006,-0.004 -0.0199,-0.0155 -0.0303,-0.026 l -0.0189,-0.0189 -0.0355,0.004 c -0.0756,0.01 -0.13641,0.0413 -0.23761,0.12633 -0.0337,0.0284 -0.10292,0.11444 -0.10292,0.12816 0,0.004 0.0164,-0.004 0.0363,-0.0185 0.0199,-0.0136 0.0605,-0.0383 0.0901,-0.0545 z"
           id="path105455-1-0-3-0-2-92" />
        <path
           style="fill:#211e1e;fill-opacity:1;fill-rule:nonzero;stroke:none;stroke-width:0.305547"
           d="m 130.72611,423.95395 c -0.0155,-0.0346 -0.0489,-0.0824 -0.0537,-0.111 -0.003,-0.0287 -0.0489,-0.15875 -0.0883,-0.18619 -0.0406,-0.0263 -0.0955,-0.10265 -0.11577,-0.15635 -0.019,-0.0537 -0.14442,-0.28407 -0.19932,-0.32585 -0.0561,-0.043 -0.38671,-0.18619 -0.38671,-0.18619 0,0 -0.0681,-0.12054 -0.0871,-0.13367 -0.0203,-0.0143 -0.15516,-0.0334 -0.15516,-0.0334 l 0.012,-0.0334 c 0,0 0.10264,0.0263 0.13487,0 0.0322,-0.0274 0.0358,-0.0561 0.0299,-0.12532 -0.006,-0.0692 0.003,-0.0895 0.0275,-0.19932 0.0239,-0.10861 -0.0394,-0.28168 -0.23155,-0.35687 -0.19217,-0.074 -0.39029,0.01 -0.48578,0.12174 -0.0955,0.111 -0.0931,0.11696 -0.14322,0.12771 -0.0489,0.012 -0.0728,0.0179 -0.031,0.0812 0.0417,0.0632 0.17425,0.16113 0.17425,0.16113 0,0 -0.003,0.0262 -0.012,0.0465 -0.009,0.0215 0.0263,0.0238 0.0358,0.0334 0.01,0.01 0.0191,0.0609 0.01,0.10145 -0.01,0.0406 -0.0275,0.0669 -0.012,0.0919 0.0167,0.025 0.0561,0.0465 0.0573,0.0514 0.003,0.006 -0.0275,0.0203 -0.10622,0.031 -0.0799,0.012 -0.26975,0.0812 -0.32107,0.13606 -0.0525,0.0561 -0.19813,0.30674 -0.21484,0.30912 -0.0155,8.7e-4 -0.13248,-0.0632 -0.15993,-0.0334 -0.0275,0.031 -0.0561,0.0215 -0.0561,0.0215 0,0 -0.31628,-0.0943 -0.32702,-0.0955 -0.01,-0.003 -0.0215,0.0132 -0.0609,0.003 -0.0406,-0.01 -0.26019,-0.0669 -0.26019,-0.0669 0,0 0.0155,-0.0669 0.0143,-0.0787 -0.003,-0.012 -0.0537,-0.025 -0.062,-0.0179 -0.007,0.009 -0.0215,0.0632 -0.0215,0.0632 l -0.0716,-0.0191 -0.0132,0.0525 0.0514,0.0203 -0.006,0.0442 0.38432,0.12891 c 0,0 0.0334,0.0203 0.0573,0.0358 0.0238,0.0155 0.31152,0.11338 0.31152,0.11338 0,0 -0.01,0.10026 0,0.1301 0.01,0.031 -0.0262,0.10623 0.012,0.14799 0.037,0.0417 0.19813,0.15875 0.19813,0.15875 0,0 -0.0991,0.0859 -0.13726,0.15158 -0.037,0.0644 -0.0669,0.18619 -0.0394,0.2208 0.0275,0.0334 0.0621,0.0454 0.0501,0.0883 -0.012,0.0417 0.012,0.14442 0.025,0.18858 0.0144,0.0442 0.0263,0.21364 0.0681,0.25303 0.0417,0.0406 0.0632,0.0238 0.0597,0.0811 -0.005,0.0573 0.0477,0.0919 0.0549,0.0979 0.009,0.006 -0.007,0.0704 0.009,0.11816 0.0155,0.0477 0.0215,0.0883 0.025,0.11697 0.005,0.0287 -0.0179,0.037 -0.006,0.0728 0.0119,0.037 0.009,0.0525 -0.0132,0.0752 -0.0215,0.0227 -0.0143,0.031 -0.0167,0.0442 -8.6e-4,0.0132 -0.18142,0.0859 -0.22558,0.14322 -0.043,0.0572 -0.0143,0.18619 -0.0143,0.18619 l 0.65884,-0.0227 c 0,0 0.0132,-0.0537 0.006,-0.148 -0.009,-0.0943 0.007,-0.10145 0.0215,-0.14801 0.0143,-0.0454 -0.012,-0.11696 -0.0358,-0.17902 -0.0239,-0.0632 -0.0274,-0.20409 -0.025,-0.26736 8.7e-4,-0.0632 0.007,-0.12652 0.007,-0.12652 0,0 0.0155,0.0382 0.0799,0.0489 0.0632,0.009 0.19216,-0.012 0.19216,-0.012 l 0.01,0.53471 c 0,0.0418 0.0203,0.0764 0.0514,0.074 0.0322,-8.7e-4 0.0501,-0.0334 0.0417,-0.0967 -0.007,-0.0632 -0.0179,-0.45116 -0.012,-0.4428 0.006,0.007 0.0681,0.074 0.0752,0.0895 0.009,0.0155 -0.0274,0.0132 0.005,0.0657 0.031,0.0514 0.0525,0.0346 0.0394,0.10861 -0.0143,0.0752 -0.0263,0.22678 -0.0573,0.26616 -0.0322,0.0406 -0.0501,0.0979 -0.0501,0.15517 0,0.0572 0.0167,0.0681 0.0167,0.0681 h 0.36881 c -0.003,-0.0287 -0.009,-0.0787 0.003,-0.0967 0.0155,-0.025 0.23752,-0.13726 0.25303,-0.17068 0.0167,-0.0322 0.0514,-0.0417 0.0334,-0.12054 -0.0167,-0.0776 0.0238,-0.15755 0.0322,-0.24111 0.009,-0.0847 0,-0.22199 0,-0.24945 0,-0.0262 0.0669,-0.012 0.0776,-0.0514 0.01,-0.0406 -0.003,-0.0621 0.0179,-0.0847 0.0191,-0.0227 0.0657,-0.0191 0.0752,-0.0549 0.01,-0.037 0.0215,-0.0597 0.0477,-0.0394 0.025,0.0215 0.12891,-0.13368 0.148,-0.21365 0.0203,-0.0812 0.0262,-0.11697 0,-0.13487 -0.025,-0.0167 -0.14203,-0.0632 -0.14203,-0.0644 0,-0.003 0.29361,-0.11338 0.30077,-0.13607 0.009,-0.0238 0.0322,-0.0442 0.0454,-0.0692 0.0143,-0.025 0.0644,-0.0979 0.0477,-0.13249"
           id="path8176-5-8-0" />
      </g>
      <g
         id="g4849-6-7-3-2-8"
         transform="translate(-199.52811,-43.459244)">
        <g
           id="ggg2-5-1-0-0-8"
           transform="translate(-73.095551,2.2522939)">
          <g
             id="g55250-4-6-5-4-6-2"
             transform="matrix(0.35277777,0,0,0.35277777,365.82211,213.58125)"
             style="fill:#000000">
            <path
               id="path101922-1-9-33-1-9-5-5"
               style="fill:#000000;stroke-width:0.110831"
               d="m 160.1061,718.09915 c 0.0284,-0.0762 0.0669,-0.48761 0.091,-0.91434 0.0527,-0.9324 0.31457,-1.98386 0.56172,-2.25695 l 0.18,-0.19871 v -0.52497 c 0,-0.2886 0.0581,-0.63363 0.12954,-0.76646 0.0709,-0.13266 0.18652,-0.46613 0.25654,-0.74069 l 0.12727,-0.49924 0.1766,-0.0337 0.1766,-0.0337 0.24293,0.64344 c 0.13351,0.35388 0.25313,0.82395 0.26532,1.04462 l 0.0227,0.40125 0.29092,0.34557 0.29092,0.34563 0.13153,0.58685 0.13152,0.58683 -0.1233,0.79336 c -0.0675,0.43634 -0.12303,0.84887 -0.12303,0.91673 v 0.1233 l 0.52203,-0.0337 0.52203,-0.0337 0.0896,-0.4343 0.0896,-0.43435 -0.10857,-0.58677 -0.10857,-0.58677 0.10942,-0.96185 0.10942,-0.9618 -0.17461,-0.19304 -0.17462,-0.19304 0.0729,-0.29024 0.0728,-0.29027 h 0.48668 0.48677 l 0.21458,-0.21458 c 0.27666,-0.27666 0.44906,-0.90768 0.44989,-1.64585 v -0.58575 l 0.17886,-0.27269 0.17859,-0.2727 -0.072,-0.38452 c -0.04,-0.21146 -0.11849,-0.41326 -0.17575,-0.44838 -0.0567,-0.0352 -0.23046,0.0198 -0.38549,0.12104 l -0.28204,0.18482 0.0598,-0.15534 c 0.0337,-0.0856 0.0142,-0.67774 -0.042,-1.31624 l -0.10177,-1.16096 -0.31051,-0.75393 c -0.17092,-0.41468 -0.47639,-0.94759 -0.67898,-1.18431 l -0.36839,-0.43036 -0.58816,-0.17093 -0.58813,-0.17093 -0.12728,-0.27949 -0.12727,-0.2795 h 0.15647 c 0.27354,0 0.37619,-0.94626 0.15959,-1.46988 l -0.13011,-0.31388 -0.31153,-0.16129 c -0.63451,-0.32811 -1.14264,-0.14372 -1.57462,0.57149 -0.16469,0.2727 -0.29936,0.54088 -0.29936,0.5961 0,0.0553 0.12472,0.33483 0.27694,0.62155 0.15251,0.28653 0.27695,0.61424 0.27695,0.72811 v 0.20665 l -0.37151,0.17716 c -0.41757,0.19899 -0.62413,0.50397 -1.15393,1.70337 -0.43225,0.97843 -0.70359,2.26732 -0.72859,3.46034 l -0.0198,0.85589 0.2933,0.29395 0.29327,0.29395 0.12388,-0.0768 c 0.0683,-0.0422 0.0955,-0.12331 0.0604,-0.18 -0.0351,-0.0567 -0.006,-0.10319 0.0632,-0.10319 h 0.12671 l -0.0227,-0.41564 c -0.0142,-0.22876 -0.0142,-0.59017 0,-0.80351 l 0.0227,-0.38792 0.20778,0.60959 0.20778,0.60956 -0.10205,0.44331 c -0.0561,0.24407 -0.10318,0.63953 -0.10488,0.87928 0,0.23981 -0.0975,0.71357 -0.21345,1.0529 -0.11594,0.33931 -0.24151,0.90973 -0.2795,1.26754 l -0.0689,0.65055 0.10488,0.12643 c 0.0578,0.0695 0.11736,0.47503 0.13181,0.90108 l 0.0283,0.77468 -0.17235,0.39926 -0.17234,0.39929 -0.34759,0.0692 -0.34761,0.0697 -0.068,0.17717 -0.068,0.17716 0.15363,0.14287 c 0.17377,0.16157 1.04672,0.39379 1.48077,0.39379 h 0.28686 z m 3.91283,-5.59692 c -0.0927,-0.10658 -0.1987,-0.35637 -0.23612,-0.5548 l -0.068,-0.36076 0.11962,-0.26249 c 0.10488,-0.22989 0.6893,-0.64579 1.20932,-0.86049 l 0.17263,-0.0711 -0.0884,0.82695 c -0.0876,0.81596 -0.22677,1.23282 -0.46508,1.39196 -0.20664,0.13833 -0.46768,0.0938 -0.64374,-0.10914 z" />
            <path
               style="fill:#000000;fill-opacity:1;fill-rule:nonzero;stroke:none"
               d="m 135.15234,711.35156 -0.26172,0.082 -2.35546,-0.84765 -0.30079,-0.34375 -0.0156,-0.20313 1.10937,0.16406 0.27735,0.10547 0.83984,0.0703 c 0,0 0.0234,0.15625 0.22266,0.2539 0.19922,0.0977 0.27734,-0.16015 0.27734,-0.16015 l 0.10156,0.22265 c 0,0 -0.0352,0.20703 -0.0352,0.28516 -0.004,0.0742 0.14062,0.37109 0.14062,0.37109 m -0.83203,0.25781 -0.0508,0.0703 c 0,0 -0.14062,0.0273 -0.18359,0.0273 -0.043,0 -0.15235,-0.0469 -0.19922,-0.043 -0.0508,0.004 -0.73438,-0.38672 -0.73438,-0.38672 l -0.125,-0.16015 z m 1.38672,1.03125 -0.0312,-0.27734 0.13281,-0.20703 0.22657,0.0859 0.0273,0.41797 0.14453,0.0195 0.21094,0.11718 0.0781,-0.043 c 0,0 0.41407,0.41796 0.51172,0.53906 0.10156,0.125 0.36719,0.125 0.36719,0.125 l -0.004,0.11719 z m -3.58203,4.91797 c -0.0312,0.082 -0.004,0.16016 -0.004,0.16016 l -0.0391,0.10937 c 0,0 1.14844,0.0547 1.51563,0.0195 0.3125,-0.0312 0.32812,-0.082 0.32812,-0.0977 l 0.043,0.125 c 0,0 0.65625,-0.0117 0.75391,-0.0312 0.0977,-0.0156 0.17187,-0.16797 0.10546,-0.37891 -0.0703,-0.21093 -0.0469,-0.24609 -0.10546,-0.41406 -0.0586,-0.17187 -0.16797,-0.64062 -0.0312,-0.96484 0.14062,-0.32422 0.23828,-0.5625 0.23828,-0.5625 0,0 0.15625,-0.0781 0.20703,-0.16797 0.0508,-0.0898 0.24219,-0.51563 0.25781,-0.59766 0.0195,-0.082 0.0273,-0.13281 0.0273,-0.13281 l 0.13282,-0.0703 c 0,0 0.44922,0.35547 0.59375,0.40234 0.14453,0.0469 0.39453,0.12109 0.39453,0.12109 l 0.0586,0.0703 c 0,0 -0.40625,0.82812 -0.46875,1.08593 -0.0664,0.25391 -0.1289,0.65625 0.0898,0.76954 0.21875,0.11328 0.57421,0.17187 0.83984,0.18359 0.26172,0.008 1.37891,-0.38672 1.37891,-0.38672 l -0.0117,-0.13281 c 0,0 0.53125,-0.15235 0.65625,-0.14063 0.125,0.008 0.4375,0.1875 0.48047,0.22266 0.0391,0.0391 0.17968,0.0508 0.1914,0.125 0.008,0.0781 -0.0742,0.125 -0.11719,0.13672 -0.043,0.0117 -0.39453,0.0977 -0.36718,0.32812 0.0273,0.23047 0.41406,0.32813 0.41406,0.32813 l 1.09766,-0.27344 c 0,0 0.28906,-0.31641 0.29687,-0.49219 0.004,-0.17578 0.0625,-0.45703 -0.16797,-0.57031 -0.23437,-0.11328 -0.40234,-0.34375 -0.40234,-0.34375 0,0 0.71875,-0.96484 0.75,-1.10156 0.0352,-0.14063 0.0352,-0.38281 -0.0273,-0.45313 -0.0586,-0.0742 -0.10937,-0.17187 -0.10937,-0.17187 l 0.0508,-0.14453 -0.27734,-0.14453 -0.10157,0.10937 c 0,0 -0.29687,0.043 -0.3789,0.0781 -0.0859,0.0312 -0.23438,0.0937 -0.23438,0.0937 l 0.043,-0.88282 -0.24219,-0.0976 c 0,0 -0.19921,-0.98438 -0.48828,-1.54688 -0.28515,-0.55859 -0.96484,-1.55859 -1.01172,-1.60937 -0.0469,-0.0508 -0.3125,-0.35157 -0.51562,-0.34766 -0.20313,0.008 -0.44531,-0.0156 -0.44531,-0.0156 l -0.0547,-0.0859 -0.23828,-0.10547 -0.082,-0.0703 c 0,0 -0.0781,-0.13672 -0.0703,-0.17188 0.008,-0.0312 0.0312,-0.1875 0.0312,-0.1875 l 0.14454,-0.0898 c 0,0 -0.0898,-0.15625 -0.12891,-0.29297 -0.0352,-0.13281 -0.31641,-1.14063 -1.08594,-0.99219 -0.77344,0.14844 -1.03125,0.65625 -1.0625,0.79297 -0.0312,0.13672 -0.0273,0.61328 -0.0352,0.66016 -0.0117,0.0508 -0.13672,0.24218 -0.13672,0.24218 l 0.42968,-0.0703 c 0,0 0.14844,0.19531 0.14454,0.25391 -0.004,0.0664 -0.0469,0.19531 -0.0469,0.19531 l -0.12109,0.0781 -0.10938,-0.16407 -0.28515,-0.0508 -0.0195,-0.19531 -0.19921,-0.0195 -0.1211,0.0625 h -0.21094 l -0.0703,0.0625 -0.3789,-0.0195 -0.29297,-0.10938 -4.07032,-0.26953 -0.0508,0.0273 -0.95312,-0.0469 c 0,0 0.0156,-0.22266 -0.10547,-0.24219 -0.11719,-0.0156 -0.16797,0.23828 -0.16797,0.23828 l -0.11719,-0.0117 -0.0234,0.31641 1.26562,0.10547 0.0664,0.0508 1.80078,0.17578 c 0,0 -0.008,0.23438 0.0391,0.27735 0.0469,0.0469 0.71875,0.5625 0.71875,0.5625 0,0 0.50781,0.67968 0.57813,0.8164 0.0742,0.13672 0.29296,0.375 0.29296,0.375 0,0 -0.0273,0.26172 0.004,0.33985 0.0312,0.0781 0.0586,0.26171 0.14063,0.28515 l 0.14062,0.0391 0.16406,0.13672 0.11719,-0.008 c 0,0 0.14063,0.17188 0.21875,0.16016 0.0742,-0.0117 0.73047,-0.0234 0.73047,-0.0234 0,0 -0.44141,1.08594 -0.45703,1.16797 -0.0195,0.0859 -0.33594,0.76953 -0.20703,0.89453 0.1289,0.12109 0.30859,0.16406 0.28515,0.44141 -0.0234,0.27734 -0.16015,0.92968 -0.26172,1.07812 -0.10156,0.15234 -0.44531,0.62891 -0.44531,0.62891 0,0 -0.40625,0.375 -0.55078,0.39843 -0.14844,0.0234 -0.55078,0.16797 -0.55078,0.16797"
               id="path53273-3-5-8-1-8-1" />
            <path
               style="fill:#000000;fill-opacity:1;fill-rule:nonzero;stroke:none"
               d="m 152.23828,708.87891 c 0,0 -0.18359,-0.125 -0.26172,-0.19922 -0.0781,-0.0742 -0.66797,-0.83594 -0.82422,-1.00782 -0.16015,-0.16796 -0.55468,-0.79296 -0.55468,-0.79296 l 0.26171,0.0469 0.0352,0.14844 c 0,0 0.14844,0.1914 0.17188,0.23047 0.0234,0.0391 0.33203,0.18359 0.40234,0.16797 0.0703,-0.0195 0.20703,0.15234 0.27344,0.1875 0.0625,0.0351 0.30859,0.25781 0.39062,0.25 l 0.39453,-0.0352 c 0,0 -0.0117,0.21484 -0.0703,0.38281 -0.0547,0.17188 -0.21875,0.6211 -0.21875,0.6211 m 1.875,8.98828 c 0.44141,0.0312 0.75,-0.0781 0.98438,-0.16016 0.23828,-0.082 0.52343,-0.21875 0.52343,-0.21875 l 0.0117,-0.41016 c 0,0 0.23828,0.0391 0.19531,-0.0977 -0.043,-0.14063 -0.0117,-0.91016 -0.0234,-1.0625 -0.0156,-0.14844 0.10547,-1.41406 0.10156,-1.56641 -0.004,-0.15234 -0.14844,-0.60937 -0.19922,-0.98047 -0.0547,-0.375 -0.19141,-0.61718 -0.26172,-0.84375 -0.0703,-0.23047 -0.0625,-1.03515 0.0273,-1.15625 0.0937,-0.12109 0.17968,-0.71093 0.16796,-0.85156 -0.0117,-0.14062 -0.20312,-0.69531 -0.11718,-0.84766 0.0898,-0.14843 -0.004,-0.48828 -0.004,-0.48828 l 0.19141,0.0977 0.35156,-0.87109 -0.80078,-0.375 c 0,0 0.22656,-0.10157 0.51172,-0.12891 0.28125,-0.0234 0.9375,-0.33594 1.04687,-0.67578 0.11328,-0.33594 0.0469,-0.60547 -0.125,-0.95703 -0.17578,-0.35157 -0.65625,-1.5 -0.6875,-1.60157 -0.0273,-0.0977 -0.23437,-0.25 -0.33594,-0.32421 -0.0977,-0.0742 -1.0039,-0.5 -1.09375,-0.58594 -0.0859,-0.082 -0.21093,-0.4375 -0.21093,-0.4375 l 0.14843,-0.0547 c 0,0 -0.10156,-0.19531 0.0234,-0.40234 0.125,-0.20313 0.35938,-1.11328 -0.34375,-1.45703 -0.70703,-0.33985 -1.36719,0.13671 -1.46094,0.21484 -0.0937,0.082 -0.27343,0.37109 -0.37109,0.40234 -0.10156,0.0274 -0.25,0.0625 -0.25,0.0625 0,0 0.14453,0.10938 0.21875,0.14453 0.0742,0.0352 0.28516,0.11719 0.28516,0.11719 0,0 -0.0625,0.11719 -0.0156,0.1836 0.0469,0.0664 0.0664,0.14843 0.008,0.29687 -0.0586,0.14844 -0.082,0.21094 0.004,0.24219 l 0.10156,0.043 c 0,0 0.008,0.27343 0.008,0.3164 0.008,0.0391 -0.0234,0.15235 0.0312,0.1875 0.0508,0.0391 0.1289,0.082 0.1289,0.082 0,0 -0.26172,0.3711 -0.33594,0.46875 -0.0742,0.0977 -0.1875,0.38672 -0.1875,0.38672 l 0.10157,0.0195 c 0,0 -0.19532,0.19922 -0.25,0.39844 -0.0508,0.19922 -0.125,0.99219 -0.15235,1.11719 -0.0312,0.125 -0.17187,0.47266 -0.17187,0.47266 0,0 -0.32031,-0.0625 -0.41797,-0.125 -0.0977,-0.0625 -0.14844,0.0625 -0.14844,0.0625 0,0 -0.35547,-0.19922 -0.42578,-0.20313 -0.0703,-0.004 -0.13672,0.0937 -0.13672,0.0937 l -0.73828,-0.16797 -0.0977,0.0508 -1.76562,-0.35156 c 0,0 0.0117,-0.12109 -0.0742,-0.15625 -0.0859,-0.0312 -0.125,0.0937 -0.125,0.0937 l -0.11328,-0.0195 -0.0195,0.125 1.68359,0.4375 c 0,0 -0.0195,0.11328 0.13672,0.14844 0.15234,0.0391 0.51563,0.19922 0.76172,0.43359 0.24609,0.23047 0.875,0.99219 0.92187,1.06641 0.0469,0.0781 0.64063,0.77734 0.67579,0.8164 0.0352,0.0391 0.19531,0.13672 0.19531,0.13672 l -0.35547,0.34766 0.15234,0.0859 c 0,0 -0.48828,1.80859 -0.4375,1.83593 0.0547,0.0274 0.0586,0.17969 0.0547,0.24219 -0.008,0.0586 -0.13672,1.53906 -0.20703,1.66797 -0.0703,0.12891 -0.20313,0.67187 -0.1875,0.86328 0.0195,0.19141 -0.19141,1.47656 -0.1875,1.52734 0.004,0.0508 0.0273,0.64063 0.004,0.82422 -0.0234,0.1875 -0.0859,0.39453 -0.0859,0.39453 l 0.125,0.15235 c 0,0 -0.19922,0.15234 -0.51953,0.22265 -0.32032,0.0703 -0.39453,0.17969 -0.38672,0.23829 0.004,0.0625 -0.0586,0.14843 -0.0586,0.14843 0,0 0.16407,0.13672 0.26954,0.14844 0.10156,0.0117 1.02343,-0.0508 1.09375,-0.0586 0.0703,-0.004 0.34375,-0.16407 0.34375,-0.16407 l 0.0508,0.12891 c 0,0 0.69922,-0.0625 0.74609,-0.0977 0.0469,-0.0352 0.0312,-0.69531 0.0312,-0.69531 l 0.10156,0.008 -0.0391,-0.74218 c 0,0 0.42188,-2.02344 0.41797,-2.17578 -0.004,-0.15235 0.32812,-1.11329 0.42578,-1.26172 0.0977,-0.15235 0.16406,-0.21875 0.16406,-0.21875 0,0 0.0547,1.08593 0.0664,1.17578 0.008,0.0898 0.0391,0.24219 0.10937,0.32812 0.0703,0.082 0.37891,0.35157 0.29688,0.55078 -0.0859,0.20313 -0.0859,1 -0.0469,1.06641 0.0352,0.0664 0.14454,0.8125 0.17969,0.97266 0.0352,0.16015 -0.0312,0.4414 -0.0312,0.4414 l 0.0937,0.15625 c 0,0 -0.17187,0.25782 -0.32812,0.29297 -0.16016,0.0352 -0.125,0.32813 -0.082,0.375 0.0469,0.0469 0.14062,0.0781 0.14062,0.0781"
               id="path53275-9-1-1-7-3-4" />
            <path
               id="path101920-4-0-4-4-5-4-1"
               style="fill:#000000;stroke-width:0.110831"
               d="m 142.41271,718.19475 c 0.0337,-0.16753 0.13181,-0.64607 0.21883,-1.06322 l 0.15846,-0.75838 -0.13011,-0.69137 -0.12983,-0.69137 -0.23782,-0.33384 -0.23783,-0.3338 0.12529,-0.12529 0.12529,-0.1253 -0.1131,-0.36861 -0.1131,-0.36868 0.0864,-0.23414 c 0.0476,-0.12869 0.1406,-0.81487 0.20665,-1.52473 0.0663,-0.70982 0.13153,-1.32505 0.1457,-1.36723 0.0142,-0.0422 -0.0227,-0.0856 -0.0811,-0.0964 -0.16328,-0.0303 -0.26504,-0.37259 -0.27383,-0.9229 l -0.006,-0.4991 -0.34594,-0.32641 -0.34585,-0.32638 0.0553,-0.67068 0.0558,-0.67065 0.37346,-0.98824 0.37344,-0.98827 0.41825,-0.21572 0.41825,-0.21515 -0.0198,-0.40339 -0.0198,-0.40337 -0.22819,-0.25512 -0.22819,-0.25512 0.12019,-0.0774 c 0.0658,-0.0425 0.20267,-0.23867 0.30376,-0.4356 0.20409,-0.39826 0.68267,-0.6946 1.12187,-0.6946 0.15845,0 0.42823,0.0726 0.59947,0.16129 l 0.3115,0.16129 0.14031,0.33835 0.14032,0.3384 -0.0632,0.31558 -0.0632,0.31558 0.12246,0.12246 0.12217,0.12245 -0.1423,0.17093 -0.14201,0.17093 0.49821,0.22025 0.49819,0.22026 0.40961,0.49986 0.40952,0.49986 h 0.22167 c 0.2537,0 0.66637,-0.19701 0.7888,-0.37681 l 0.083,-0.12189 0.10913,0.16611 c 0.15194,0.23187 0.13919,0.3291 -0.0538,0.40323 -0.0913,0.0351 -0.1664,0.13153 -0.1664,0.2143 0,0.0828 -0.0935,0.20069 -0.20806,0.26192 -0.11452,0.0612 -0.23273,0.24123 -0.26334,0.40017 l -0.0553,0.28887 0.22875,0.41738 0.22876,0.4174 -0.13918,0.33585 -0.13919,0.33585 -0.26957,0.12274 c -0.2829,0.12869 -0.34571,0.28922 -0.15874,0.40467 0.0609,0.0374 0.11083,0.17433 0.11083,0.30342 0,0.12954 0.0592,0.39878 0.13153,0.59899 l 0.13181,0.36405 -0.20239,0.22366 c -0.11112,0.12302 -0.3634,0.2537 -0.56035,0.29055 l -0.35808,0.0672 0.20552,0.65976 c 0.197,0.63309 0.42735,1.7303 0.48557,2.3135 0.0142,0.1525 0.0649,0.41624 0.10998,0.58635 l 0.0825,0.30914 -0.17943,0.19843 -0.17943,0.19842 v 0.62893 0.62898 l 0.21231,0.39617 c 0.11651,0.21798 0.29934,0.45983 0.40592,0.53773 l 0.19361,0.14145 -0.07,0.18198 -0.07,0.18227 h -0.48864 -0.48863 l -0.13777,-0.16639 c -0.076,-0.0913 -0.22535,-0.16612 -0.33179,-0.16612 h -0.19389 l -0.0717,-0.44705 -0.0717,-0.44705 0.11622,-0.21685 0.11622,-0.21685 -0.1851,-0.63828 -0.1851,-0.63825 -0.21855,-0.15363 -0.21855,-0.15364 0.0601,-0.4481 0.0601,-0.44813 -0.26929,-0.5057 c -0.14797,-0.27808 -0.30172,-0.68066 -0.34132,-0.89447 -0.04,-0.21374 -0.14741,-0.50415 -0.23925,-0.64523 l -0.16696,-0.25653 -0.15902,0.4227 -0.15931,0.42267 0.003,0.82809 0.003,0.82808 -0.12529,0.15109 c -0.14457,0.17433 -0.1457,0.18028 -0.27723,1.57329 l -0.0989,1.0529 0.11055,0.85654 0.11055,0.85658 -0.20267,0.22393 -0.20268,0.22394 h -0.54958 -0.54956 l 0.0604,-0.30475 z" />
            <path
               id="path101908-9-8-6-2-8-0-3-5"
               style="fill:#000000;stroke-width:0.108988"
               d="m 168.65769,718.21093 -0.19066,-0.0555 v -0.20265 -0.20265 l 0.32694,-0.23303 c 0.1798,-0.12796 0.32695,-0.27542 0.32695,-0.32762 0,-0.0521 -0.15554,-0.11011 -0.34582,-0.12851 -0.19011,-0.0195 -0.36427,-0.0903 -0.38676,-0.15917 -0.0223,-0.0688 0.0789,-0.25394 0.22495,-0.41169 0.14606,-0.15748 0.32494,-0.42933 0.39694,-0.60351 l 0.13129,-0.31667 -0.36441,-0.51162 c -0.20042,-0.28143 -0.48399,-0.7138 -0.63015,-0.96091 l -0.26592,-0.44923 -0.003,-1.54635 -0.003,-1.54634 -0.18983,-0.0497 c -0.26509,-0.0694 -0.63572,-0.71641 -0.63622,-1.11127 -2e-4,-0.18147 -0.0795,-0.44268 -0.1759,-0.58044 l -0.17533,-0.2506 0.0652,-0.3253 0.0649,-0.32527 -0.28709,-0.26621 c -0.15777,-0.14607 -0.32262,-0.26565 -0.36611,-0.26565 -0.0435,0 -0.11122,-0.20238 -0.15108,-0.44974 l -0.0719,-0.44976 0.19401,-0.27262 c 0.10704,-0.14998 0.27513,-0.39371 0.37375,-0.5421 0.37339,-0.56112 1.14528,-1.27258 1.5978,-1.47277 l 0.46978,-0.20767 -0.0454,-0.12823 c -0.0279,-0.0705 -0.1246,-0.12154 -0.22105,-0.11373 l -0.17561,0.014 -0.0708,-0.22271 c -0.0385,-0.12266 -0.0744,-0.46658 -0.0792,-0.76473 l -0.006,-0.54206 0.34972,-0.31231 0.34969,-0.31234 h 0.31998 c 0.17617,0 0.44266,0.0558 0.59248,0.12432 l 0.27262,0.12433 0.16976,0.35758 c 0.0934,0.19679 0.22635,0.37647 0.29573,0.39964 l 0.12627,0.0421 -0.1207,0.34579 -0.1207,0.3458 0.12962,0.0839 c 0.0714,0.0463 0.35042,0.13352 0.62014,0.19373 l 0.49049,0.10955 0.0675,0.55193 c 0.0368,0.30367 0.11987,0.65032 0.18426,0.77058 0.0644,0.12014 0.15219,0.4846 0.19512,0.80969 l 0.078,0.59103 0.16223,0.1193 0.16224,0.11932 -0.0875,0.31665 c -0.12154,0.44118 -0.0761,0.78424 0.17812,1.33934 l 0.2191,0.4777 -0.13046,0.5577 c -0.0716,0.30668 -0.18119,0.62103 -0.24251,0.69855 l -0.11206,0.14077 -0.33127,-0.0331 -0.33124,-0.0331 -0.1862,0.59942 c -0.1023,0.32963 -0.21826,0.96729 -0.25757,1.41684 -0.0739,0.84779 -0.12042,1.16966 -0.27457,1.90732 -0.0502,0.24001 -0.1745,0.89181 -0.27624,1.44895 l -0.18509,1.01301 0.12014,0.47772 c 0.13993,0.55483 0.0711,0.8204 -0.21185,0.8204 -0.11066,0 -0.24502,0.0786 -0.29904,0.17478 l -0.0981,0.17506 -0.47962,0.036 c -0.26398,0.0195 -0.56551,0.0111 -0.67043,-0.0195 z m -0.86909,-8.36379 -0.12627,-0.41164 0.11289,-0.18202 0.1129,-0.18202 -0.12711,-0.37548 -0.12739,-0.37543 -0.0998,0.1575 c -0.0549,0.0864 -0.0831,0.42456 -0.0624,0.75098 l 0.0368,0.59352 0.16669,0.2545 c 0.0917,0.13994 0.18314,0.23833 0.20293,0.21826 0.0195,-0.0195 -0.0195,-0.22133 -0.0903,-0.44789 z m -0.0845,-3.22488 v -0.21463 l -0.16363,0.0627 c -0.17477,0.0672 -0.20878,0.17617 -0.0906,0.29371 0.13771,0.1377 0.25423,0.0722 0.25423,-0.14188 z" />
          </g>
        </g>
      </g>
    </g>
  </g>
</svg>
