<?xml version="1.0" encoding="UTF-8" standalone="no"?>
<!-- Created with Inkscape (http://www.inkscape.org/) -->

<svg
   width="16.918711mm"
   height="10.61106mm"
   viewBox="0 0 16.918711 10.61106"
   version="1.1"
   id="svg26913"
   sodipodi:docname="inkporter-svg-4g1wei8f.svg"
   xmlns:inkscape="http://www.inkscape.org/namespaces/inkscape"
   xmlns:sodipodi="http://sodipodi.sourceforge.net/DTD/sodipodi-0.dtd"
   xmlns="http://www.w3.org/2000/svg"
   xmlns:svg="http://www.w3.org/2000/svg">
  <sodipodi:namedview
     id="namedview26915"
     pagecolor="#ffffff"
     bordercolor="#666666"
     borderopacity="1.0"
     inkscape:pageshadow="2"
     inkscape:pageopacity="0.0"
     inkscape:pagecheckerboard="0"
     inkscape:document-units="mm"
     showgrid="false"
     inkscape:zoom="0.32026164"
     inkscape:cx="-131.14277"
     inkscape:cy="1047.581"
     inkscape:window-width="1920"
     inkscape:window-height="1017"
     inkscape:window-x="-8"
     inkscape:window-y="-8"
     inkscape:window-maximized="1"
     inkscape:current-layer="layer1" />
  <defs
     id="defs26910" />
  <g
     inkscape:label="Layer 1"
     inkscape:groupmode="layer"
     id="layer1"
     transform="translate(69.59426,-404.05052)">
    <path
       d="m -63.83835,414.59729 -0.0683,-0.06 h -0.0929 -0.0929 l -0.0303,0.0365 c -0.033,0.0398 -0.13498,0.0495 -0.15635,0.0149 -0.007,-0.0119 -0.0522,-0.0288 -0.0998,-0.0378 l -0.0865,-0.0162 -0.0809,0.0499 c -0.10062,0.0622 -0.1371,0.0624 -0.25107,0.001 -0.10837,-0.0581 -0.16017,-0.0612 -0.20088,-0.0122 -0.0167,0.02 -0.0603,0.0365 -0.0972,0.0365 h -0.0669 l -0.0929,-0.0851 -0.0929,-0.0851 h -0.11142 -0.11142 l -0.054,-0.0379 c -0.0296,-0.0208 -0.054,-0.0581 -0.054,-0.0827 v -0.0448 l -0.0802,-0.0473 -0.0802,-0.0473 -0.0541,0.02 -0.0541,0.02 -0.0489,-0.0489 c -0.027,-0.0269 -0.0435,-0.0577 -0.0368,-0.0687 0.006,-0.0108 -0.0196,-0.0502 -0.0585,-0.0874 l -0.0707,-0.0677 -0.0526,0.0138 c -0.0693,0.0181 -0.16901,-0.021 -0.16901,-0.0663 0,-0.0198 -0.0356,-0.0697 -0.079,-0.11112 l -0.0791,-0.0753 -0.0729,0.0104 c -0.0926,0.0129 -0.18238,-0.0203 -0.18238,-0.0672 0,-0.0199 -0.0339,-0.0749 -0.0754,-0.12219 l -0.0754,-0.0859 h -0.0805 c -0.10909,0 -0.15753,-0.0215 -0.15753,-0.0701 0,-0.0223 -0.0178,-0.0661 -0.0395,-0.0971 l -0.0395,-0.0565 -0.0713,0.0142 -0.0713,0.0143 -0.0713,-0.0526 c -0.0392,-0.0289 -0.10103,-0.0956 -0.13738,-0.14811 -0.0363,-0.0525 -0.0913,-0.10495 -0.12186,-0.11661 l -0.0557,-0.0212 v -0.0586 c 0,-0.0323 -0.018,-0.1173 -0.0401,-0.18905 l -0.0401,-0.13046 -0.0608,-0.0523 -0.0608,-0.0523 0.014,-0.0862 c 0.007,-0.0473 0.0325,-0.12506 0.0549,-0.17259 l 0.041,-0.0864 -0.0496,-0.12759 c -0.0274,-0.0702 -0.0639,-0.16946 -0.0813,-0.22062 l -0.0316,-0.093 0.11306,-0.10155 c 0.13357,-0.11994 0.16326,-0.17331 0.17813,-0.32017 l 0.0111,-0.10961 h -0.16525 -0.16525 l -0.0437,-0.0319 -0.0438,-0.0319 0.008,-0.0453 0.008,-0.0453 0.0729,-0.0207 c 0.0401,-0.0113 0.12038,-0.0141 0.17836,-0.006 0.058,0.008 0.21318,0.007 0.34489,-0.002 l 0.23947,-0.017 0.0667,-0.10552 0.0667,-0.10553 0.0714,-0.0249 0.0714,-0.0249 -0.014,-0.0561 c -0.007,-0.0308 -0.0214,-0.11851 -0.0304,-0.19484 l -0.0163,-0.1388 h 0.21082 0.2108 l 0.079,0.033 c 0.0434,0.0182 0.11604,0.07 0.16136,0.11538 l 0.0824,0.0824 0.0121,-0.0361 c 0.006,-0.0199 0.0422,-0.0663 0.0792,-0.10321 l 0.0671,-0.0671 h 0.0796 0.0796 l 0.0677,0.0649 0.0677,0.0649 0.0582,-0.0265 0.0582,-0.0265 0.0159,-0.10604 c 0.0192,-0.12873 0.0963,-0.26251 0.15126,-0.26251 0.0222,0 0.0935,-0.0329 0.15878,-0.0729 0.0652,-0.0402 0.14152,-0.0729 0.16959,-0.0729 h 0.051 l -0.0104,0.0693 -0.0104,0.0693 0.0775,-0.0175 c 0.11226,-0.0253 0.12772,-0.0397 0.15634,-0.14608 l 0.0258,-0.0958 0.0539,-0.03 0.0539,-0.03 0.25408,0.002 0.25408,0.002 0.039,0.0482 0.039,0.0482 0.0561,-0.0455 0.0561,-0.0454 h 0.17823 c 0.098,0 0.18474,-0.0105 0.19269,-0.0234 l 0.0145,-0.0233 -0.14068,-0.0383 c -0.19337,-0.0527 -0.30124,-0.11032 -0.34352,-0.18377 l -0.0358,-0.0621 -0.0951,-0.0297 -0.0951,-0.0297 -0.11388,0.0147 -0.11389,0.0147 -0.10942,-0.0289 c -0.0602,-0.0159 -0.15866,-0.0343 -0.21884,-0.041 -0.0602,-0.006 -0.12404,-0.0239 -0.1419,-0.0385 l -0.0325,-0.0264 -1.8825,-0.0104 -1.88251,-0.0104 -0.0826,0.0392 -0.0826,0.0392 h -0.16952 c -0.0938,0 -0.18792,-0.006 -0.20909,-0.0148 l -0.0384,-0.0148 v -0.22793 -0.22795 l 0.058,-0.0146 c 0.0319,-0.008 0.14953,-0.007 0.26139,0.002 0.34024,0.0284 2.32133,0.002 3.69559,-0.0498 l 0.33115,-0.0125 0.07,-0.0341 0.07,-0.0341 0.2566,-0.0168 0.2566,-0.0169 0.0319,-0.0722 c 0.0327,-0.0738 0.0394,-0.0784 0.15177,-0.1029 l 0.0647,-0.0142 0.076,-0.1234 0.076,-0.12338 0.10249,-0.0427 c 0.0564,-0.0234 0.13531,-0.053 0.17544,-0.0657 l 0.0729,-0.0231 0.0269,-0.0827 c 0.0508,-0.15611 0.1847,-0.21341 0.29695,-0.12705 l 0.0564,0.0434 0.0136,0.10197 0.0136,0.10197 h 0.0791 0.0791 l 0.0392,-0.0599 c 0.0216,-0.033 0.0393,-0.0849 0.0394,-0.1155 7e-5,-0.0306 0.0164,-0.0869 0.0365,-0.12522 l 0.0363,-0.0696 v -0.21345 -0.21346 l 0.0333,-0.0128 0.0333,-0.0128 0.0151,0.12569 c 0.008,0.0691 0.0152,0.1624 0.0153,0.20728 l 1.8e-4,0.0816 0.0608,0.0722 c 0.0335,0.0397 0.0609,0.0924 0.0609,0.11702 0,0.0597 0.0249,0.1217 0.049,0.1217 0.0106,0 0.0137,-0.0218 0.006,-0.0486 l -0.0128,-0.0486 h 0.0588 c 0.0324,0 0.0702,0.0114 0.0843,0.0255 l 0.0255,0.0255 0.1678,-0.0434 0.16781,-0.0434 -0.0973,-0.0125 -0.0973,-0.0125 v -0.0851 -0.0851 h 0.0365 0.0365 l -0.003,0.0426 -0.003,0.0426 0.13103,0.004 c 0.0721,0.002 0.15019,0.005 0.17359,0.006 l 0.0426,0.002 0.0122,-0.12157 0.0122,-0.12158 h 0.0486 0.0486 l 0.007,0.12562 0.007,0.12561 0.0751,-0.0215 c 0.0413,-0.0119 0.0936,-0.0383 0.11621,-0.0587 l 0.0411,-0.0372 h 0.13632 c 0.075,0 0.16399,-0.0105 0.19781,-0.0233 l 0.0615,-0.0234 0.06,-0.11644 c 0.0723,-0.14026 0.20828,-0.29918 0.2558,-0.29897 0.0189,9e-5 0.11344,-0.0491 0.21,-0.10926 l 0.17556,-0.10942 h 0.42288 0.42287 l 0.0799,0.0729 c 0.0439,0.0401 0.10176,0.0729 0.12859,0.0729 0.0587,0 0.14551,-0.0437 0.18024,-0.0908 l 0.0253,-0.0342 0.0962,0.008 0.0962,0.008 0.0415,0.0851 c 0.0228,0.0468 0.0419,0.12666 0.0427,0.17745 l 10e-4,0.0923 -0.063,0.0584 c -0.0666,0.0617 -0.061,0.1095 0.0129,0.1095 h 0.0442 l 0.0279,-0.0674 0.028,-0.0674 -0.007,-0.36413 -0.007,-0.36414 -0.14589,-0.0206 c -0.1299,-0.0183 -0.3382,-0.0277 -0.83283,-0.0372 l -0.15197,-0.003 v -0.0715 c 0,-0.0393 -0.0109,-0.0782 -0.0243,-0.0866 -0.0306,-0.0189 -0.0317,-0.1164 -0.002,-0.14711 0.0125,-0.0127 0.0261,-0.0614 0.0304,-0.10821 l 0.008,-0.0851 0.21616,-0.007 0.21615,-0.007 0.0507,-0.0355 c 0.0279,-0.0196 0.0853,-0.0355 0.12775,-0.0355 h 0.0771 l 0.0129,0.0336 c 0.0122,0.0316 0.0443,0.0401 0.30509,0.0791 l 0.10612,0.0159 -0.0147,-0.42293 c -0.008,-0.23261 -0.0215,-0.69507 -0.0299,-1.02771 l -0.0152,-0.60478 0.0332,0.011 0.0332,0.011 0.0173,0.48435 c 0.009,0.2664 0.0245,0.72235 0.0331,1.01322 l 0.0157,0.52888 h 0.28763 0.28763 l 0.007,-0.0912 0.007,-0.0911 h 0.0365 0.0364 l 0.007,0.0547 0.007,0.0547 h 0.0591 0.0591 v -0.0365 -0.0365 h 0.0486 0.0486 v 0.0697 0.0697 l 1.44739,0.0181 1.4474,0.0181 0.0697,-0.0289 c 0.0384,-0.0159 0.10103,-0.0253 0.13921,-0.0209 l 0.0695,0.008 0.007,0.11915 0.007,0.11914 -0.16967,-0.0143 c -0.0933,-0.008 -0.36479,-0.005 -0.60329,0.007 -0.2385,0.0115 -0.6005,0.0287 -0.80445,0.0383 -0.20395,0.009 -0.37082,0.0256 -0.37082,0.0358 0,0.0104 0.0409,0.0282 0.0909,0.0399 l 0.0909,0.0215 0.0228,0.0646 0.0227,0.0646 -0.0315,0.0379 -0.0315,0.038 h -0.30827 -0.30826 l -0.0292,-0.0291 c -0.016,-0.0161 -0.0291,-0.0549 -0.0291,-0.0864 v -0.0571 l 0.0851,-0.0356 c 0.0468,-0.0196 0.0851,-0.0463 0.0851,-0.0595 0,-0.0371 -0.10456,-0.0283 -0.16476,0.0138 l -0.054,0.0379 -0.31567,-0.007 -0.31566,-0.007 -0.0159,0.14059 -0.0158,0.14059 -0.0601,0.0474 -0.0601,0.0473 0.0253,0.0674 c 0.0138,0.037 0.0578,0.14402 0.0975,0.23764 0.0397,0.0936 0.12881,0.30698 0.19797,0.47415 0.0692,0.16718 0.13314,0.31143 0.14217,0.32057 0.0195,0.0196 0.94521,0.26059 1.43281,0.37291 l 0.0547,0.0126 v 0.38715 0.38716 l -0.0304,0.0194 c -0.0168,0.0106 -0.17812,0.0202 -0.35865,0.0212 -0.18055,0.001 -0.45137,0.004 -0.60183,0.006 l -0.27354,0.004 1e-5,0.10332 2e-5,0.10332 -0.21278,0.004 c -0.11702,0.002 -0.31607,0.007 -0.4423,0.0122 l -0.22952,0.008 -0.0429,0.0729 -0.0428,0.0729 0.17934,-0.008 0.17934,-0.008 0.008,0.0687 0.008,0.0688 0.11576,0.004 0.11578,0.004 0.0363,-0.0702 0.0363,-0.0702 0.0922,-0.0276 0.0922,-0.0276 0.3777,0.0261 0.37768,0.0261 0.13703,0.0627 0.13703,0.0628 0.0155,0.0829 0.0155,0.0829 0.0485,0.0154 0.0486,0.0154 0.0267,-0.0267 c 0.0148,-0.0147 0.0857,-0.0267 0.15789,-0.0267 h 0.13114 l 0.0127,0.0486 0.0127,0.0486 h 0.16314 0.16314 l 0.0553,0.0589 0.0553,0.0589 0.12526,0.0159 c 0.0689,0.008 0.28391,0.0415 0.47783,0.0728 0.19391,0.0313 0.56594,0.0909 0.82672,0.13245 0.2608,0.0415 0.57264,0.0927 0.69301,0.11374 0.12036,0.021 0.36424,0.0636 0.54195,0.0945 0.17771,0.0309 0.3391,0.0696 0.35865,0.0858 l 0.0356,0.0296 v 0.26151 0.26153 l -0.0312,0.0259 c -0.0172,0.0143 -0.0965,0.0292 -0.17629,0.0334 l -0.14505,0.007 -0.008,0.0566 -0.008,0.0566 0.0627,0.0948 c 0.0345,0.0521 0.0627,0.10363 0.0627,0.11439 0,0.0108 -0.059,0.0778 -0.13099,0.14895 l -0.13097,0.12936 0.0336,0.0643 0.0336,0.0643 -0.0147,0.11205 -0.0148,0.11207 0.0559,0.052 c 0.0307,0.0286 0.0648,0.052 0.0756,0.052 0.0108,0 0.0197,0.0309 0.0197,0.0687 v 0.0687 l -0.0631,0.059 -0.0632,0.059 0.0142,0.0973 c 0.008,0.0535 0.0209,0.13171 0.029,0.17382 l 0.0147,0.0766 -0.0684,0.0329 c -0.0376,0.0181 -0.0932,0.0698 -0.12365,0.115 l -0.0553,0.0822 0.0139,0.0556 0.014,0.0556 -0.0523,0.0523 -0.0523,0.0523 -0.0739,-0.0162 -0.0739,-0.0162 -0.11826,0.12595 -0.11826,0.12597 -0.0434,-0.0138 -0.0435,-0.0138 -0.079,0.048 c -0.0434,0.0264 -0.079,0.0634 -0.079,0.0821 0,0.0187 -0.0262,0.0512 -0.0583,0.0722 l -0.0583,0.0382 -0.0845,-0.0137 -0.0845,-0.0137 -0.0457,0.0658 c -0.0252,0.0362 -0.0648,0.0867 -0.0882,0.11209 l -0.0426,0.0463 h -0.10565 -0.10565 l -0.0403,0.0445 c -0.0222,0.0245 -0.0403,0.0623 -0.0403,0.0843 0,0.0219 -0.0232,0.0522 -0.0516,0.0674 l -0.0516,0.0276 -0.0717,-0.0144 -0.0717,-0.0144 -0.0713,0.0368 -0.0713,0.0368 v 0.0451 c 0,0.0675 -0.0573,0.10228 -0.18028,0.10922 l -0.11046,0.006 -0.0469,0.0426 c -0.0258,0.0234 -0.0533,0.0677 -0.0611,0.0986 l -0.014,0.0561 -0.0507,0.0132 c -0.0279,0.007 -0.0876,0.007 -0.13268,-8e-5 -0.0452,-0.007 -0.10939,-0.006 -0.14283,0.002 l -0.0608,0.0153 -0.043,0.0728 c -0.0236,0.0401 -0.0634,0.0793 -0.0881,0.0872 l -0.0451,0.0142 -0.0409,-0.037 c -0.0225,-0.0204 -0.0969,-0.0444 -0.1652,-0.0536 l -0.12429,-0.0164 -0.0586,0.0383 -0.0586,0.0383 -0.0542,-0.0141 c -0.0298,-0.007 -0.0542,-0.0238 -0.0542,-0.0356 0,-0.0298 -0.23679,-0.0272 -0.25532,0.003 -0.008,0.0134 -0.052,0.0244 -0.0973,0.0244 -0.0453,0 -0.089,-0.011 -0.0973,-0.0244 -0.0253,-0.041 -0.14806,-0.0271 -0.21333,0.0244 -0.0735,0.0577 -0.12251,0.0616 -0.16304,0.0128 -0.0163,-0.0197 -0.0674,-0.0429 -0.11338,-0.0515 l -0.0837,-0.0156 -0.0416,0.0365 c -0.0229,0.02 -0.0643,0.0434 -0.0922,0.0519 l -0.0507,0.0154 -0.0423,-0.0468 c -0.0233,-0.0257 -0.0695,-0.0536 -0.1026,-0.0619 l -0.0602,-0.0151 -0.0629,0.0494 c -0.0784,0.0617 -0.10739,0.0619 -0.17783,6.2e-4 l -0.0561,-0.0486 h -0.0848 -0.0848 l -0.0289,0.0395 -0.0289,0.0395 -0.0995,0.002 -0.0995,0.002 -0.0465,-0.0421 c -0.0615,-0.0557 -0.14241,-0.0533 -0.21841,0.006 -0.034,0.0267 -0.087,0.0486 -0.11769,0.0486 h -0.0559 l -0.0155,-0.0486 -0.0155,-0.0486 h -0.0926 -0.0926 l -0.0303,0.0365 c -0.0382,0.046 -0.12512,0.0459 -0.27764,-2.7e-4 l -0.11959,-0.0363 -0.0436,0.0394 -0.0436,0.0394 -0.0678,-0.0135 c -0.0372,-0.007 -0.12629,-0.0259 -0.19778,-0.0409 l -0.12993,-0.0273 -0.0303,0.0413 -0.0302,0.0413 -0.0709,-0.0129 c -0.0389,-0.007 -0.13468,-0.0275 -0.2127,-0.0453 l -0.14188,-0.0324 -0.0235,0.0419 -0.0235,0.0419 h -0.0638 c -0.0351,0 -0.0829,-0.0174 -0.10633,-0.0385 -0.0234,-0.0212 -0.0861,-0.0443 -0.13949,-0.0515 l -0.0969,-0.013 -0.0441,0.0515 c -0.0505,0.0589 -0.13574,0.0674 -0.17701,0.0177 -0.0155,-0.0186 -0.079,-0.0415 -0.14108,-0.0508 l -0.11299,-0.017 -0.0413,0.0547 -0.0413,0.0547 -0.18299,-0.0313 -0.183,-0.0313 -0.0564,0.0395 c -0.0748,0.0524 -0.12598,0.0498 -0.17932,-0.009 -0.0556,-0.0614 -0.1115,-0.0615 -0.21218,-10e-5 -0.0936,0.057 -0.17178,0.0623 -0.21167,0.0143 l -0.0286,-0.0344 h -0.10744 -0.10742 l -0.0593,0.0466 c -0.0785,0.0618 -0.11732,0.0588 -0.18076,-0.0141 l -0.0529,-0.0609 h -0.0747 -0.0747 l -0.0797,0.0609 c -0.0438,0.0335 -0.0842,0.0604 -0.0896,0.06 -0.005,-5.4e-4 -0.0406,-0.0278 -0.078,-0.0608 z m 1.49071,-0.25998 c 0,-0.0132 -0.0173,-0.0175 -0.0385,-0.009 -0.0211,0.008 -0.0485,0.0148 -0.0608,0.0148 -0.0123,0 -0.0223,0.009 -0.0223,0.0209 0,0.0116 0.0274,0.0157 0.0608,0.009 0.0335,-0.006 0.0609,-0.0225 0.0609,-0.0357 z m 0.44029,-0.003 c 0.0215,-0.006 0.0454,-0.0436 0.0532,-0.0823 0.007,-0.0388 0.0349,-0.0961 0.0603,-0.12754 l 0.0462,-0.057 0.0261,0.0161 c 0.0144,0.009 0.0335,0.0597 0.0426,0.11314 l 0.0164,0.097 0.0647,0.0439 0.0647,0.0439 0.0557,-0.0256 0.0557,-0.0256 0.0126,-0.0608 c 0.007,-0.0335 0.0216,-0.0772 0.0327,-0.0973 l 0.02,-0.0365 -0.0827,-0.10197 c -0.10321,-0.12708 -0.19738,-0.32744 -0.21774,-0.46326 l -0.0155,-0.10353 h -0.0305 -0.0304 l -0.0141,0.10353 c -0.022,0.16037 -0.12176,0.35722 -0.25766,0.50829 -0.11821,0.1314 -0.14454,0.19493 -0.10521,0.25385 0.0258,0.0387 0.0851,0.0536 0.1273,0.0319 0.02,-0.0104 0.054,-0.024 0.0755,-0.0306 z m 0.87206,0.0336 c 0.043,-0.0272 0.0407,-0.0296 -0.0905,-0.0957 l -0.10332,-0.0521 v 0.0484 0.0484 l 0.0669,0.0363 c 0.08,0.0434 0.0816,0.0436 0.12696,0.0149 z m 0.98051,-0.0344 c 0.0294,-0.0318 0.0733,-0.0866 0.0973,-0.12159 0.024,-0.0351 0.0582,-0.0638 0.076,-0.0638 h 0.0323 l 0.0155,0.0965 0.0154,0.0965 0.0504,0.027 0.0504,0.0269 0.0832,-0.0395 0.0832,-0.0395 v -0.0671 c 0,-0.0369 0.0152,-0.088 0.0338,-0.11344 l 0.0338,-0.0463 0.0385,0.0319 c 0.0211,0.0176 0.0455,0.0694 0.0541,0.11524 l 0.0156,0.0833 0.047,0.0252 c 0.0259,0.0138 0.076,0.0217 0.11126,0.0176 l 0.0643,-0.007 0.0206,-0.0801 0.0206,-0.0801 -0.12268,-0.13764 -0.12267,-0.13763 -0.0494,-0.13216 c -0.0272,-0.0726 -0.0561,-0.18044 -0.0642,-0.23945 l -0.0148,-0.1073 -0.0632,0.007 -0.0633,0.007 -0.0163,0.10942 c -0.0476,0.31761 -0.25846,0.60467 -0.53714,0.73123 -0.0722,0.0328 -0.0847,0.0599 -0.0365,0.0794 0.0608,0.0246 0.0945,0.015 0.147,-0.0417 z m 2.25419,-0.0541 v -0.082 l -0.10978,0.0534 c -0.0603,0.0293 -0.10607,0.0644 -0.10155,0.078 0.0104,0.0311 0.11237,0.0571 0.16876,0.0431 l 0.0426,-0.0106 z m 0.41663,0.0152 c 0.009,-0.0465 0.0416,-0.10438 0.0716,-0.12863 l 0.0545,-0.0441 0.0223,0.0223 c 0.0123,0.0123 0.0284,0.0677 0.0359,0.12314 0.0155,0.11554 0.035,0.13438 0.11738,0.1137 l 0.059,-0.0148 0.0143,-0.0665 c 0.008,-0.0365 0.0236,-0.0899 0.0351,-0.11839 l 0.0208,-0.0519 -0.0686,-0.0657 c -0.15889,-0.15224 -0.28951,-0.53696 -0.25875,-0.7622 l 0.0144,-0.10493 -0.0632,0.007 -0.0632,0.007 -0.007,0.18237 c -0.009,0.23281 -0.0548,0.37499 -0.17614,0.55675 l -0.0971,0.1454 0.0336,0.0129 c 0.0185,0.007 0.0336,0.0392 0.0336,0.0714 0,0.0322 0.007,0.0933 0.0155,0.13578 l 0.0155,0.0772 0.087,-0.007 0.087,-0.007 z m 0.75868,0.0804 c 0.009,-0.009 -0.0286,-0.0417 -0.0835,-0.0729 -0.11779,-0.0669 -0.12101,-0.0675 -0.10622,-0.0202 0.006,0.02 0.0165,0.0529 0.0228,0.0729 l 0.0114,0.0365 h 0.0696 c 0.0383,0 0.077,-0.007 0.0859,-0.0162 z m -7.58637,-0.0309 0.0601,-0.0229 0.0162,-0.074 c 0.009,-0.0408 0.0166,-0.0824 0.0169,-0.0926 10e-4,-0.0413 0.0481,-0.10374 0.0778,-0.10374 0.0413,0 0.0881,0.10434 0.0881,0.1962 v 0.0723 l 0.0584,0.0266 0.0584,0.0266 0.0686,-0.0229 0.0685,-0.0229 0.0251,-0.10061 c 0.0138,-0.0554 0.0383,-0.1137 0.0544,-0.12971 l 0.0293,-0.029 0.0377,0.0313 c 0.0208,0.0172 0.0446,0.0746 0.0532,0.1275 l 0.0154,0.0961 0.0573,0.0261 0.0573,0.0261 0.0608,-0.0278 c 0.083,-0.0379 0.0768,-0.0594 -0.0351,-0.1223 -0.20782,-0.11679 -0.41126,-0.42798 -0.43391,-0.66369 l -0.0111,-0.11517 -0.0306,-0.0118 -0.0306,-0.0118 -0.0155,0.1167 c -0.008,0.0642 -0.0482,0.18208 -0.0881,0.26199 l -0.0726,0.1453 -0.1427,0.13127 c -0.0784,0.0722 -0.1687,0.15025 -0.20051,0.17344 l -0.0577,0.0422 0.0472,0.0368 c 0.0549,0.0429 0.0852,0.0454 0.16781,0.0139 z m 8.82815,-0.30537 0.0655,-0.0608 -0.0209,-0.0372 -0.0208,-0.0372 -0.0788,0.098 -0.0788,0.098 h 0.034 c 0.0187,0 0.0636,-0.0274 0.0997,-0.0608 z m -10.39268,-0.14188 c 0,-0.0178 -0.008,-0.0405 -0.0182,-0.0504 -0.0104,-0.009 -0.03,-0.0522 -0.0443,-0.0942 l -0.0261,-0.0762 -0.0408,0.0817 c -0.0518,0.10395 -0.0514,0.14079 0.002,0.15472 0.0832,0.0217 0.12766,0.0162 0.12766,-0.0156 z m 10.78621,-0.071 c 0.009,-0.0301 0.0151,-0.11763 0.0121,-0.19452 l -0.005,-0.13981 h 0.0456 c 0.0251,0 0.0822,0.0378 0.12688,0.0839 l 0.0813,0.0839 0.071,-0.0366 0.071,-0.0366 -0.0161,-0.12937 -0.0161,-0.12935 0.0278,-0.0172 0.0278,-0.0172 0.0901,0.069 c 0.14871,0.11376 0.24819,0.0921 0.24819,-0.0542 0,-0.0919 -0.0125,-0.10249 -0.18885,-0.16248 l -0.12807,-0.0435 -0.0711,0.0525 -0.0711,0.0525 -0.10705,-0.0147 -0.10706,-0.0147 -0.0828,0.0857 c -0.0456,0.0471 -0.11601,0.10631 -0.15657,0.13147 l -0.0738,0.0457 -0.0289,0.1381 -0.0289,0.13811 0.0601,0.0473 c 0.0331,0.026 0.0601,0.063 0.0601,0.082 v 0.0346 h 0.0713 0.0713 z m -11.04153,-0.16413 c 0.0385,-0.0401 0.0843,-0.0729 0.10177,-0.0729 0.0354,0 0.0378,-0.0123 0.0173,-0.0885 l -0.014,-0.052 -0.0752,-0.0151 -0.0752,-0.0151 -0.10103,-0.1054 -0.10093,-0.1054 -0.10734,-0.0172 c -0.059,-0.009 -0.13012,-0.032 -0.15795,-0.0503 l -0.0506,-0.0331 -0.0314,0.0891 c -0.0173,0.049 -0.0467,0.10661 -0.0654,0.12808 l -0.0341,0.039 0.0153,0.04 c 0.008,0.022 0.0388,0.0402 0.0674,0.0404 0.0286,1.9e-4 0.0679,0.0104 0.0873,0.0226 l 0.0352,0.0223 0.0812,-0.0713 0.0812,-0.0713 h 0.0585 c 0.0887,0 0.0956,0.0395 0.0276,0.15571 l -0.0619,0.10563 0.0437,0.0395 c 0.024,0.0217 0.0613,0.0395 0.0829,0.0395 0.0215,0 0.046,0.0109 0.0542,0.0243 0.0238,0.0386 0.0469,0.0294 0.12158,-0.0486 z m -0.78886,-0.48893 0.0275,-0.0513 -0.0238,-0.0237 c -0.0351,-0.0351 -0.12982,-0.0139 -0.16062,0.0358 l -0.0269,0.0433 0.0365,0.0232 c 0.0597,0.0381 0.1181,0.0273 0.1473,-0.0273 z m 12.91029,0.0303 c 0,-0.0115 -0.0274,-0.0157 -0.0609,-0.009 -0.0335,0.006 -0.0608,0.0158 -0.0608,0.0209 0,0.005 0.0274,0.009 0.0608,0.009 0.0335,0 0.0609,-0.009 0.0609,-0.0209 z m -12.15715,-2.76322 c -10e-4,-0.0363 -0.10444,-0.0293 -0.11687,0.008 l -0.0108,0.0322 0.0642,-0.008 c 0.0353,-0.004 0.0639,-0.0189 0.0635,-0.0323 z m 2.50378,-0.77667 c 0,-0.0257 -0.0466,-0.0365 -0.0606,-0.0139 l -0.0153,0.0248 h 0.0379 c 0.0208,0 0.0379,-0.005 0.0379,-0.0107 z m 5.02567,-0.0911 -0.0128,-0.0319 -0.002,0.0466 c -10e-4,0.0256 0.005,0.0399 0.0128,0.0319 0.008,-0.008 0.009,-0.029 0.002,-0.0466 z m 0.29949,0.0168 v -0.0365 h -0.0588 c -0.0324,0 -0.0761,0.006 -0.0973,0.0148 -0.0708,0.0272 -0.0394,0.0582 0.0588,0.0582 h 0.0973 z m 0.24315,-1.75143 c 0,-0.0232 -0.24792,-0.5579 -0.27311,-0.58897 -0.0135,-0.0168 -0.061,-0.0304 -0.10532,-0.0304 -0.0951,0 -0.0941,-0.002 -0.20863,0.27963 l -0.0892,0.21884 0.13754,0.0325 c 0.29093,0.0686 0.53872,0.1093 0.53872,0.0884 z m -0.73509,-0.53451 0.15152,-0.3042 v -0.10773 -0.10775 l -0.0304,-0.019 c -0.0168,-0.0105 -0.051,-0.0156 -0.0761,-0.0115 l -0.0457,0.007 0.0158,-0.0628 0.0158,-0.0629 h -0.0704 -0.0705 l -0.0345,-0.0519 -0.0345,-0.0519 -0.0536,0.0335 -0.0536,0.0335 v 0.35987 0.35984 l 0.0486,0.0953 c 0.0267,0.0524 0.0486,0.11765 0.0486,0.14492 0,0.0983 0.0399,0.0445 0.18889,-0.25459 z m 1.95089,-0.763 v -0.0459 l -0.0845,-0.0158 c -0.0464,-0.008 -0.0932,-0.0316 -0.10405,-0.0509 -0.0108,-0.0192 -0.0526,-0.0416 -0.0931,-0.0497 l -0.0735,-0.0147 -0.0292,0.0641 -0.0292,0.0641 -0.0728,0.0254 c -0.0401,0.014 -0.0728,0.0353 -0.0728,0.0473 v 0.022 h 0.27963 0.27964 z m -3.24008,-0.0818 c -0.005,-0.0168 -0.0248,-0.0304 -0.0426,-0.0304 -0.0178,0 -0.0369,0.0136 -0.0426,0.0304 l -0.0104,0.0304 h 0.0526 0.0527 z m 0,-0.24316 c -0.005,-0.0168 -0.0248,-0.0304 -0.0426,-0.0304 -0.0178,0 -0.0369,0.0136 -0.0426,0.0304 l -0.0104,0.0304 h 0.0526 0.0527 z"
       id="U-S-Chaffee" />
  </g>
</svg>
