<?xml version="1.0" encoding="UTF-8" standalone="no"?>
<!-- Created with Inkscape (http://www.inkscape.org/) -->

<svg
   width="17.34276mm"
   height="7.4357901mm"
   viewBox="0 0 17.34276 7.4357901"
   version="1.1"
   id="svg4964"
   sodipodi:docname="inkporter-svg-jtwk_lcr.svg"
   xmlns:inkscape="http://www.inkscape.org/namespaces/inkscape"
   xmlns:sodipodi="http://sodipodi.sourceforge.net/DTD/sodipodi-0.dtd"
   xmlns="http://www.w3.org/2000/svg"
   xmlns:svg="http://www.w3.org/2000/svg">
  <sodipodi:namedview
     id="namedview4966"
     pagecolor="#ffffff"
     bordercolor="#666666"
     borderopacity="1.0"
     inkscape:pageshadow="2"
     inkscape:pageopacity="0.0"
     inkscape:pagecheckerboard="0"
     inkscape:document-units="mm"
     showgrid="false"
     inkscape:zoom="0.64052329"
     inkscape:cx="135.04583"
     inkscape:cy="561.25984"
     inkscape:window-width="1920"
     inkscape:window-height="1017"
     inkscape:window-x="-8"
     inkscape:window-y="-8"
     inkscape:window-maximized="1"
     inkscape:current-layer="layer1" />
  <defs
     id="defs4961" />
  <g
     inkscape:label="Layer 1"
     inkscape:groupmode="layer"
     id="layer1"
     transform="translate(-77.661027,-140.85791)">
    <path
       d="m 84.212477,142.77975 v 0.95636 l 0.32797,-0.0386 0.44373,-0.91777 z m 3.50573,4.41248 1.02664,0.64492 c -0.0606,-0.0786 -0.0965,-0.17639 -0.0965,-0.28388 0,-0.25493 0.20532,-0.46164 0.45888,-0.46164 0.19844,0 0.36794,0.12678 0.43271,0.30317 l 0.18603,0.01 c 0.062,-0.18191 0.23289,-0.31282 0.43546,-0.31282 0.0882,0 0.1695,0.0248 0.23978,0.0675 l 0.18741,-0.0344 -0.32108,-0.59394 h -0.0758 l -0.051,-0.0579 -1.08727,-0.0207 -0.22876,-0.0482 c 0,0 -0.23013,-0.0496 -0.22737,-0.007 0,0 -0.003,-0.0427 0,0 0,0 0.001,0.0413 0.001,0.25218 0,0.21084 -0.34038,0.5526 -0.76068,0.5526 -0.04,0 -0.0799,-0.003 -0.11989,-0.01 m 1.56821,0.78549 0.35691,0.004 c 0,0 0.35691,0.004 0.28663,-0.022 -0.0703,-0.0262 -0.17914,-0.14883 -0.21635,-0.29766 h -0.0786 c 0,0 -0.0799,0 -0.0978,0.0717 -0.0179,0.0717 -0.11851,0.18879 -0.2508,0.24391 m 1.02526,0.011 1.07763,0.0124 c -0.2012,-0.0496 -0.34865,-0.23151 -0.34865,-0.44786 l -0.0551,-0.0593 -0.113,-0.10335 v -0.16397 h -0.11438 v 0.17087 l -0.0854,0.0965 -0.0262,0.0303 c 0,0 -0.0262,0.0289 -0.0262,0.12954 0,0.10059 -0.12816,0.27285 -0.30868,0.33486 m 1.28847,0.0152 0.44924,0.005 c 0,0 0.44924,0.004 0.34864,-0.003 -0.1006,-0.008 -0.26596,-0.15296 -0.31281,-0.34451 h -0.0689 c 0,0 -0.0703,0 -0.0896,0.0854 -0.0207,0.0841 -0.15572,0.21773 -0.32659,0.25631 m 1.32705,-0.21359 0.97014,-0.69729 c -0.062,0.0193 -0.13092,0.0289 -0.2012,0.0289 -0.35829,0 -0.65181,-0.27698 -0.68075,-0.62976 l 0.0262,0.37896 -0.78824,0.14331 -0.0661,-0.17363 v 0.22876 h -0.2049 v -0.16813 l -0.1819,-0.3886 h -0.37896 l -0.1695,0.30868 c 0,0 -0.1695,0.30868 -0.0827,0.32522 0,0 -0.0868,-0.0165 0,0 0,0 0.0868,0.0165 0.12127,-0.007 0.0358,-0.022 0.11989,-0.0482 0.20946,-0.0482 0.21498,0 0.3955,0.14745 0.44511,0.34864 h 0.0717 c 0,0 0.0703,0 0.0951,-0.1006 0.0262,-0.10059 0.20671,-0.24804 0.4203,-0.24804 0.25494,0 0.46027,0.2067 0.46027,0.46164 0,0.0868 -0.0234,0.16674 -0.0648,0.23702 m -2.89802,-5.55487 0.0179,0.11989 -0.001,0.10473 -0.01,0.0868 -0.0496,0.0923 h 0.67937 l 0.011,-0.1254 0.0565,-0.091 0.1254,-0.0593 0.0138,-0.11299 0.0965,0.011 -0.005,0.0772 h 0.12127 l 0.0276,-0.0744 0.0427,-0.0896 0.0537,-0.0965 0.0634,-0.11299 0.0703,-0.12127 0.0744,-0.10473 0.0978,-0.0965 0.0951,-0.0813 0.0758,-0.0427 0.0882,-0.0331 0.0758,-0.0344 0.04,-0.0758 0.0744,-0.0482 -0.005,-0.062 -0.0124,-0.0772 0.003,-0.073 0.0234,-0.0675 0.0413,-0.0703 0.10612,-0.0868 0.0772,-0.0234 0.0758,-0.008 0.0854,0.011 0.0703,0.0193 0.0703,0.0427 0.0661,0.0786 0.04,0.10198 0.0276,0.12126 0.0496,0.0593 -0.0951,0.0152 -0.0331,0.0703 0.005,0.10336 -0.0703,0.0593 -0.0524,0.0799 -0.0854,-0.022 -0.0813,0.10749 -0.006,0.10749 0.0427,0.11299 0.11851,0.0978 0.10335,0.0937 0.18604,-0.0345 0.15571,-0.0648 0.27286,-0.0923 0.0482,-0.11162 0.0537,-0.0744 0.0565,-0.0634 0.0827,-0.073 0.0854,-0.0482 0.011,0.091 -0.001,0.0827 -0.011,0.0923 -0.0262,0.0841 -0.0358,0.0813 -0.0648,0.0854 -0.0965,0.10198 -0.0772,0.0593 -0.0317,0.13229 -0.13504,-0.0772 0.073,-0.0496 -0.10335,0.022 -0.11713,0.0689 -0.1447,0.0868 -0.113,0.0482 -0.11162,-0.006 -0.0868,-0.0317 -0.12815,-0.0165 h -0.12816 l -0.10749,0.0703 -0.0648,0.0537 -0.0593,0.10335 h 0.68213 l 0.37896,-0.24391 0.27974,0.15572 -0.04,0.0882 h 1.06798 v 0.53744 h 0.10611 l 0.0496,0.29628 0.0661,0.0234 0.0662,0.13367 0.0909,0.0675 -0.006,0.12127 -0.0854,0.0675 -0.0179,0.0661 -0.11438,0.0786 h -0.14883 v 0.25907 h 0.71796 v 0.99357 h -0.0758 c 0,0 -0.0758,0 -0.0758,0.35278 v 1.41937 l -0.0427,-1.14239 -0.11438,0.0496 v 0.0965 l -0.0124,0.0606 -0.0358,0.0799 -0.0854,0.051 -0.007,0.4079 -0.0675,0.15572 c 0,0 -0.0675,0.15434 -0.3514,0.36518 l -1.32705,0.98254 -0.0786,0.0248 c 0,0 -0.0785,0.0234 -1.48965,0.0193 l -2.29581,-0.008 -0.11438,-0.073 -1.69086,-1.02113 -0.24391,-0.34726 -0.0634,-0.17914 -0.36793,0.0758 h -2.94901 v 0.34864 h -1.3491 c -0.0965,0.73036 -0.71795,1.2926 -1.47174,1.2926 -0.81993,0 -1.48415,-0.66835 -1.48415,-1.49104 0,-0.18741 0.0344,-0.36655 0.0978,-0.53192 l -0.25356,-0.0965 -0.0138,0.14883 0.0303,0.15847 -0.30178,-0.55122 -0.14883,0.12127 c 10e-4,0.28388 -0.2136,0.50023 -0.47818,0.50023 -0.26596,0 -0.48094,-0.21635 -0.48094,-0.48231 0,-0.26596 0.21498,-0.48094 0.48094,-0.48094 0.04,0 0.0786,0.004 0.11575,0.0138 l 0.19293,-0.27009 0.22737,0.0786 v -0.0606 l 0.006,-0.10335 0.0482,-0.0978 0.17087,0.007 0.091,0.0841 h -0.091 l -0.0909,0.0978 0.011,0.0675 0.15159,0.005 0.13918,0.0427 v 0.073 h 0.31832 l 0.10336,-0.2136 -0.091,-0.13367 0.10335,-0.12678 0.18052,-0.18328 0.27561,-0.55672 0.006,-0.23978 0.12816,0.007 0.14607,0.0482 0.0758,0.0262 c 0,0 0.0744,0.0248 1.47587,-0.13919 l 2.29168,-0.26871 v -0.96739 l -0.0455,-0.0868 h 0.94395 l 0.0992,-0.20533 0.11576,0.15158 h 3.14055 c 0.0152,-0.0344 0.0317,-0.0592 0.0317,-0.0592 0,0 0.13918,-0.29353 0.17087,-0.33073 0.0331,-0.0372 0.18742,-0.19706 0.20533,-0.20809 0.0207,-0.0124 0.16675,-0.0841 0.19706,-0.0896 0.0303,-0.005 0.11989,0.01 0.15159,0.0345 0.0317,0.0248 0.0317,0.0248 0.0551,0.091 l 0.0965,0.0193 0.20395,-0.14056 h 0.12402 l 0.0661,-0.0785 -0.0593,-0.0524 v -0.10473 l -0.007,-0.0868 c 0.004,-0.0648 0.004,-0.0634 0.007,-0.0744 0.011,-0.0386 0.0276,-0.0744 0.0413,-0.0923 0.0634,-0.073 0.0978,-0.0992 0.10474,-0.10197 l 0.10197,-0.0317 0.10335,-0.011 0.062,0.007 0.0565,0.011 c 0,0 0.0565,0.0179 0.073,0.0317 0.0854,0.0634 0.0854,0.0634 0.0896,0.0841 l 0.0344,0.0606 0.0207,0.0579 0.0124,0.062 0.0248,0.0565 0.0854,0.0345 -0.19017,0.0386 0.062,0.14745 -0.062,0.0276 -0.0372,0.14194 -0.0965,0.0303 -0.0965,-0.0165 z m 0,0"
       id="U-S-M4-Mortar" />
  </g>
</svg>
