<?xml version="1.0" encoding="UTF-8" standalone="no"?>
<!-- Created with Inkscape (http://www.inkscape.org/) -->

<svg
   width="30.475758mm"
   height="8.2897959mm"
   viewBox="0 0 30.475758 8.2897959"
   version="1.1"
   id="svg5"
   sodipodi:docname="inkporter-svg-f1cx9_9s.svg"
   xmlns:inkscape="http://www.inkscape.org/namespaces/inkscape"
   xmlns:sodipodi="http://sodipodi.sourceforge.net/DTD/sodipodi-0.dtd"
   xmlns="http://www.w3.org/2000/svg"
   xmlns:svg="http://www.w3.org/2000/svg">
  <sodipodi:namedview
     id="namedview7"
     pagecolor="#ffffff"
     bordercolor="#666666"
     borderopacity="1.0"
     inkscape:pageshadow="2"
     inkscape:pageopacity="0.0"
     inkscape:pagecheckerboard="0"
     inkscape:document-units="mm"
     showgrid="false"
     inkscape:zoom="3.6233469"
     inkscape:cx="318.49007"
     inkscape:cy="14.489366"
     inkscape:window-width="1920"
     inkscape:window-height="1017"
     inkscape:window-x="-8"
     inkscape:window-y="-8"
     inkscape:window-maximized="1"
     inkscape:current-layer="layer1" />
  <defs
     id="defs2" />
  <g
     inkscape:label="Layer 1"
     inkscape:groupmode="layer"
     id="layer1"
     transform="translate(-68.980313,10.053313)">
    <path
       d="m 90.371905,-1.8064668 c 0.01454,-0.02361 0.03622,-0.04295 0.048,-0.04295 0.01128,0 0.01003,0.01932 -0.005,0.04295 -0.01454,0.0236 -0.03622,0.04295 -0.048,0.04295 -0.01128,0 -0.01002,-0.01932 0.005,-0.04295 z m -2.446229,-0.03958 c -0.01792,-0.02896 -0.190631,-0.03958 -0.476829,-0.02929 -0.246806,0.0089 -0.448756,0.0033 -0.448756,-0.01258 0,-0.0466 -0.208128,-0.04996 -0.236642,-0.0036 -0.03409,0.05515 -0.235839,0.05503 -0.235839,-1.31e-4 0,-0.04675 -0.191584,-0.035 -0.314298,0.01932 -0.04663,0.02063 -0.09763,0.01495 -0.126699,-0.01412 -0.0643,-0.06423 -0.225073,-0.06185 -0.33835,0.005 -0.07269,0.04295 -0.09475,0.04295 -0.110418,0 -0.02294,-0.06352 -0.227041,-0.07317 -0.227041,-0.01078 0,0.02361 -0.04838,0.04295 -0.107411,0.04295 -0.05903,0 -0.107411,-0.01932 -0.107411,-0.04295 0,-0.0236 -0.05803,-0.04296 -0.128855,-0.04296 -0.07081,0 -0.128854,0.01932 -0.128854,0.04296 0,0.02361 -0.03873,0.04295 -0.08585,0.04295 -0.04725,0 -0.08585,-0.01932 -0.08585,-0.04295 0,-0.05996 -0.22961,-0.05388 -0.291211,0.0078 -0.0376,0.03766 -0.0757,0.03848 -0.148182,0.0033 -0.132515,-0.06447 -0.33375,-0.09339 -0.33375,-0.04795 0,0.06739 -0.127501,0.03836 -0.21477,-0.0489 -0.04725,-0.04725 -0.133782,-0.0859 -0.192299,-0.0859 -0.06405,0 -0.132528,-0.03987 -0.172095,-0.100279 -0.0361,-0.05515 -0.118566,-0.127635 -0.183225,-0.161073 -0.06467,-0.03345 -0.181582,-0.12408 -0.259891,-0.201412 -0.07834,-0.07734 -0.157669,-0.131156 -0.176381,-0.119593 -0.01868,0.01153 -0.07508,-0.02615 -0.125208,-0.0838 -0.05014,-0.05765 -0.16074,-0.133904 -0.245804,-0.169446 -0.0851,-0.03553 -0.143544,-0.08261 -0.129957,-0.104578 0.01354,-0.02198 -0.06266,-0.08226 -0.169451,-0.133946 -0.106784,-0.05169 -0.214645,-0.132288 -0.2397,-0.179103 -0.07533,-0.14084 -0.183186,-0.250133 -0.246731,-0.250133 -0.04136,0 -0.05327,-0.03459 -0.03848,-0.111722 0.02343,-0.122488 -0.182472,-0.40371 -0.295573,-0.40371 -0.0722,0 -0.218519,-0.07839 -0.342172,-0.18331 -0.07307,-0.06204 -0.08949,-0.06435 -0.08949,-0.01262 0,0.03479 0.01391,0.05471 0.03096,0.04419 0.04738,-0.02929 0.07784,0.134588 0.03722,0.200321 -0.02857,0.04626 -0.04675,0.04723 -0.08924,0.0047 -0.02932,-0.02932 -0.115933,-0.05333 -0.192537,-0.05333 -0.173762,0 -0.18434,-0.01793 -0.156478,-0.265156 0.01792,-0.158729 0.04174,-0.205405 0.114053,-0.223495 0.08008,-0.02001 0.09136,-0.05366 0.09136,-0.27098 0,-0.287668 0.101645,-0.363045 0.24158,-0.179122 0.12057,0.158443 0.212214,0.06011 0.370484,-0.397387 0.20304,-0.586892 0.208567,-0.596743 0.33444,-0.596743 0.282977,0 0.498036,-0.09199 0.490504,-0.209789 -0.01253,-0.189812 -0.0012,-0.212606 0.08786,-0.189231 0.06079,0.01589 0.08585,0.05859 0.08585,0.146313 0,0.09522 0.01993,0.123854 0.08598,0.123854 0.04725,0 0.08623,-0.02414 0.08661,-0.0537 0.0012,-0.100818 0.07319,-0.173585 0.134144,-0.135568 0.234874,0.146608 0.486756,0.09253 1.218213,-0.261516 0.327684,-0.158611 0.946253,-0.189627 1.290857,-0.06474 0.386929,0.140232 0.488699,0.142405 0.538469,0.01153 0.04888,-0.128433 0.0087,-0.194873 -0.05214,-0.08623 -0.103651,0.185136 -0.630364,-0.01548 -0.860062,-0.327564 -0.18325,-0.248977 -0.208404,-0.247069 -0.208404,0.0158 v 0.214763 H 84.380107 84.2083 v -0.193288 c 0,-0.106308 -0.0193,-0.193287 -0.04299,-0.193287 -0.02368,0 -0.04299,-0.02692 -0.04299,-0.05977 0,-0.09978 -0.163322,-0.111997 -1.230007,-0.09203 -0.563762,0.01053 -3.441124,0.03108 -6.394136,0.04562 l -5.369123,0.02642 -0.637132,0.127394 c -0.478534,0.09568 -0.729814,0.124318 -1.009395,0.115031 l -0.372252,-0.01228 -0.08222,-0.168278 c -0.08522,-0.174687 -0.05264,-0.468311 0.06818,-0.61393 0.06806,-0.08202 0.801669,-0.07074 1.216635,0.0187 0.423952,0.09139 2.656211,0.08804 6.87247,-0.01028 1.488318,-0.03471 3.247245,-0.07349 3.908715,-0.08614 0.661471,-0.01266 1.453953,-0.03161 1.761069,-0.04215 0.307117,-0.01053 0.708196,-0.01964 0.89127,-0.02026 l 0.332885,-0.0012 v -0.107426 c 0,-0.111472 0.06517,-0.147609 0.09688,-0.0537 0.01003,0.02953 0.03158,-0.06484 0.04813,-0.209707 l 0.02996,-0.2634 0.132664,-0.02655 c 0.07295,-0.01458 0.26221,-0.02655 0.420531,-0.02655 h 0.287866 l -0.01955,-0.132753 -0.01943,-0.13275 -0.177108,0.02112 c -0.09738,0.01165 -0.322068,0.05346 -0.499252,0.09304 -0.446262,0.09967 -0.449157,0.0996 -0.46471,-0.0098 -0.0075,-0.05316 -0.02996,-0.09665 -0.04964,-0.09665 -0.01968,0 -0.03171,-0.08139 -0.02657,-0.180871 l 0.0087,-0.180872 0.147706,-0.0068 c 0.297127,-0.01376 1.01016,-0.151786 1.131245,-0.218994 0.07382,-0.04099 0.111421,-0.04799 0.09237,-0.0172 -0.02356,0.03819 0.0062,0.04553 0.111798,0.02785 0.07909,-0.01319 0.327445,-0.05439 0.551867,-0.09153 0.224434,-0.03712 0.414615,-0.0859 0.422636,-0.108363 0.03985,-0.111584 0.165038,-0.163284 0.510005,-0.210552 0.20759,-0.02846 0.454747,-0.06873 0.549236,-0.08952 0.0945,-0.02079 0.328786,-0.03828 0.520634,-0.03884 l 0.348815,-8.18e-4 0.02945,0.2603856 c 0.02682,0.236746 0.03797,0.259079 0.123704,0.24596 0.05891,-0.009 0.08748,-0.03819 0.0762,-0.07783 -0.01003,-0.03488 -0.01654,-0.111459 -0.01466,-0.170191 0.0012,-0.05873 -0.01491,-0.140874 -0.03722,-0.18255 -0.03597,-0.06722 -0.01855,-0.07576 0.154248,-0.07576 0.164186,0 0.194792,0.01311 0.194792,0.08337 0,0.122877 0.04863,0.134208 0.278691,0.06498 0.114054,-0.03435 0.291362,-0.06243 0.39391,-0.06243 0.102522,0 0.186459,-0.01596 0.186459,-0.03549 0,-0.06646 0.549372,-0.04994 0.575178,0.01727 0.01291,0.03365 0.05427,0.06117 0.09175,0.06117 0.0376,0 0.05891,-0.01516 0.0475,-0.0337 -0.03108,-0.05021 0.191647,-0.03381 0.327169,0.02406 0.07645,0.03264 0.118189,0.08296 0.118189,0.142494 0,0.05062 0.05578,0.155537 0.123829,0.233144 0.06818,0.0776 0.131725,0.164595 0.141288,0.193308 0.04023,0.120632 1.82054,0.206778 1.933929,0.09357 0.03484,-0.03479 0.05853,-0.180491 0.06279,-0.386579 0.0087,-0.4200546 0.0037,-0.3951686 0.07909,-0.3951686 0.07332,0 0.08197,0.05152 0.06681,0.3958836 -0.01128,0.250072 0.0658,0.506128 0.151816,0.506128 0.02607,0 0.0841,0.04073 0.129105,0.09052 l 0.08184,0.09052 0.622818,-0.03043 c 0.342548,-0.01674 0.641694,-0.03329 0.664767,-0.03685 0.05076,-0.0078 0.104277,0.401867 0.127213,0.973206 l 0.01692,0.421227 -0.09826,0.03737 c -0.05402,0.02054 -0.337521,0.09835 -0.629949,0.172882 -0.292428,0.07454 -0.608994,0.161703 -0.703495,0.1937 -0.0945,0.03198 -0.249125,0.06969 -0.343614,0.08375 -0.0945,0.01409 -0.326443,0.05287 -0.515445,0.08623 -0.18899,0.03337 -0.585231,0.102034 -0.880528,0.1526 -0.608029,0.104114 -0.644051,0.117011 -0.692441,0.247837 -0.04599,0.124256 0.169312,0.135834 0.278678,0.01499 0.119944,-0.132513 2.947272,-0.175856 3.613757,-0.0554 0.637394,0.115193 1.569685,0.233306 1.600266,0.202726 0.01366,-0.01364 -0.03535,-0.02479 -0.108664,-0.02479 -0.07344,0 -0.145423,-0.01932 -0.160025,-0.04295 -0.01454,-0.02361 -0.09438,-0.04296 -0.177334,-0.04296 -0.131813,0 -0.149058,-0.01216 -0.137039,-0.09664 0.01128,-0.08124 0.03685,-0.09479 0.158597,-0.08503 0.07971,0.0064 0.167658,-0.0072 0.195532,-0.03043 0.03359,-0.02785 0.08623,-0.02389 0.155789,0.01165 0.05777,0.02956 0.188965,0.05679 0.291449,0.06053 0.102524,0.0036 0.209495,0.02602 0.237795,0.04952 0.02833,0.02349 0.288894,0.08614 0.579065,0.139215 0.543858,0.09948 0.605898,0.09791 1.242127,-0.0314 l 0.140636,-0.02859 -0.02758,0.235038 -0.02757,0.235041 0.09989,-0.0042 c 0.07419,-0.0029 0.111421,0.02929 0.144597,0.124894 0.02457,0.07088 0.08823,0.176983 0.141439,0.235805 0.07908,0.08737 0.09676,0.156994 0.09676,0.380494 v 0.273549 l -0.103024,-0.02586 c -0.09676,-0.02427 -0.102146,-0.01597 -0.08823,0.134109 0.01002,0.102861 -0.0087,0.186635 -0.05264,0.234625 -0.05289,0.05841 -0.06154,0.128682 -0.03973,0.322978 0.07633,0.681649 0.08322,0.667733 -0.289218,0.592707 l -0.164889,-0.0332 0.0087,0.123616 c 0.01542,0.227708 0.0012,0.27395 -0.08422,0.27395 -0.09663,0 -0.220736,0.15556 -0.189378,0.237292 0.02144,0.05604 -0.113051,0.123253 -0.288078,0.143917 -0.02507,0.0029 -0.03171,0.02769 -0.01479,0.05496 0.01893,0.03051 0.01128,0.03794 -0.01843,0.01928 -0.02694,-0.01666 -0.09012,0.0079 -0.14021,0.05463 -0.05014,0.04671 -0.11656,0.07522 -0.14753,0.0633 -0.06693,-0.02569 -0.208629,0.04463 -0.325615,0.161617 -0.04637,0.04633 -0.102272,0.07306 -0.124331,0.05942 -0.04888,-0.03023 -0.300361,0.09431 -0.300361,0.148732 0,0.03676 -0.142466,0.101081 -0.23624,0.106633 -0.08962,0.0053 -0.320214,0.121273 -0.301476,0.151586 0.01128,0.01743 -0.02932,0.05398 -0.08924,0.08125 -0.07683,0.035 -0.100141,0.03562 -0.07934,0.002 0.04324,-0.06997 -0.163987,0.04702 -0.221539,0.12507 -0.02607,0.03524 -0.09362,0.06916 -0.150338,0.07531 -0.05665,0.0061 -0.11681,0.01282 -0.133592,0.01479 -0.01679,0.002 -0.06693,0.04269 -0.111547,0.09048 -0.08598,0.09227 -0.582022,0.148515 -0.758077,0.08596 -0.04624,-0.01642 -0.138431,-0.0093 -0.204933,0.01581 -0.08585,0.03239 -0.142491,0.03219 -0.195181,-8.16e-4 -0.08284,-0.05167 -0.218731,-0.05136 -0.302956,8.16e-4 -0.03046,0.01882 -0.10741,0.01993 -0.171054,0.0025 -0.174163,-0.04777 -0.266019,-0.05195 -0.266019,-0.01215 0,0.01969 -0.03861,0.03578 -0.08586,0.03578 -0.04725,0 -0.08585,-0.01691 -0.08585,-0.03758 0,-0.05185 -0.224184,-0.04863 -0.289382,0.0042 -0.0292,0.02365 -0.08723,0.02827 -0.128868,0.01028 -0.130923,-0.05668 -0.191471,-0.05824 -0.273326,-0.0072 -0.06067,0.0379 -0.09187,0.03716 -0.132051,-0.0029 -0.06316,-0.06315 -0.250203,-0.07036 -0.250203,-0.0097 0,0.05695 -0.159073,0.05535 -0.194491,-0.002 -0.02908,-0.04707 -0.201612,-0.03557 -0.334565,0.02235 -0.04612,0.02009 -0.09801,0.01409 -0.126712,-0.01466 -0.06442,-0.06448 -0.25855,-0.06211 -0.324626,0.0042 -0.04149,0.04152 -0.07044,0.04152 -0.136864,0 -0.107535,-0.06715 -0.225511,-0.06715 -0.292665,0 -0.04149,0.04152 -0.07044,0.04152 -0.136864,0 -0.10177,-0.06357 -0.284983,-0.06901 -0.32173,-0.0095 -0.01779,0.0288 -0.05327,0.0288 -0.10716,0 -0.108539,-0.05812 -0.272387,-0.05438 -0.334376,0.0076 -0.03898,0.03893 -0.07508,0.03761 -0.155827,-0.0057 -0.06267,-0.03349 -0.154197,-0.04463 -0.226376,-0.02748 -0.06668,0.01584 -0.14055,0.02699 -0.164174,0.02479 -0.235251,-0.02206 -1.692011,-0.008 -1.74598,0.01678 -0.0396,0.01821 -0.08322,0.01253 -0.09889,-0.01282 z m 5.88962,-0.117926 c -0.0158,-0.01573 -0.04149,-0.01573 -0.05727,0 -0.0158,0.01577 -0.0025,0.02863 0.0287,0.02863 0.03146,0 0.04437,-0.01291 0.02857,-0.02863 z m 0.916324,0.0097 c 0,-0.01041 -0.02231,-0.03272 -0.04964,-0.04958 -0.03071,-0.01898 -0.03798,-0.01178 -0.01893,0.01896 0.03058,0.04951 0.06855,0.06648 0.06855,0.03063 z m 0.415216,-0.0097 c -0.0158,-0.01573 -0.04149,-0.01573 -0.05727,0 -0.01579,0.01577 -0.0025,0.02863 0.02858,0.02863 0.03146,0 0.04437,-0.01291 0.02857,-0.02863 z m -1.060169,-0.13244 c -0.0012,-0.08575 -0.07344,-0.146538 -0.09776,-0.08297 -0.01354,0.03508 -0.01291,0.07539 0.0012,0.0895 0.0361,0.03611 0.09738,0.03198 0.09663,-0.0065 z m -5.814983,-0.127965 c -0.04362,-0.04367 -0.07971,0.02206 -0.04387,0.08004 0.02708,0.04379 0.03722,0.04382 0.05176,1.65e-4 0.01003,-0.02985 0.0062,-0.06593 -0.0075,-0.08021 z m 1.112294,0.07427 c 0.01454,-0.02361 0.0062,-0.04295 -0.01893,-0.04295 -0.02507,0 -0.0455,0.01932 -0.0455,0.04295 0,0.02361 0.0087,0.04295 0.01893,0.04295 0.01003,0 0.03083,-0.01932 0.04549,-0.04295 z m 0.214772,0 c 0.01454,-0.02361 0.0062,-0.04295 -0.01893,-0.04295 -0.02507,0 -0.04549,0.01932 -0.04549,0.04295 0,0.02361 0.0087,0.04295 0.01893,0.04295 0.01003,0 0.03083,-0.01932 0.0455,-0.04295 z m 0.405327,-0.236241 c 0.08197,0 0.112423,0.03018 0.140824,0.139598 0.04375,0.168973 0.148357,0.182574 0.207515,0.02699 0.03108,-0.08176 0.02782,-0.130576 -0.01128,-0.178191 -0.03008,-0.03606 -0.09588,-0.162908 -0.146302,-0.28187 -0.138242,-0.326097 -0.263525,-0.32455 -0.427987,0.0053 l -0.124582,0.249925 0.08034,0.169096 0.08034,0.169096 0.0485,-0.14997 c 0.03785,-0.117024 0.07144,-0.149965 0.153119,-0.149965 z m 0.04574,0.21223 c 0,-0.03683 -0.0193,-0.05503 -0.04299,-0.04043 -0.02356,0.01458 -0.04299,0.04473 -0.04299,0.06696 0,0.02223 0.0193,0.04043 0.04299,0.04043 0.02356,0 0.04299,-0.03014 0.04299,-0.06696 z m 0.515433,0 c 0,-0.03683 -0.0193,-0.05503 -0.04299,-0.04043 -0.02356,0.01458 -0.04299,0.04473 -0.04299,0.06696 0,0.02223 0.0193,0.04043 0.04299,0.04043 0.02356,0 0.04299,-0.03014 0.04299,-0.06696 z m 1.129026,-0.01821 c 0.01893,-0.07245 0.01003,-0.07863 -0.05941,-0.04145 -0.09513,0.05091 -0.108414,0.126602 -0.02231,0.126602 0.03271,0 0.06944,-0.03832 0.08172,-0.08515 z m 0.202513,0.02074 c 0,-0.03546 -0.0193,-0.06444 -0.04299,-0.06444 -0.02356,0 -0.04299,0.029 -0.04299,0.06444 0,0.03546 0.0193,0.06442 0.04299,0.06442 0.02356,0 0.04299,-0.029 0.04299,-0.06442 z m 0.264153,-0.06444 c 0.03246,-0.0933 0.07245,-0.128861 0.144684,-0.128861 0.07595,0 0.106533,0.03079 0.128066,0.128861 0.03246,0.148078 0.08937,0.167402 0.128616,0.04373 0.0183,-0.05777 -0.01366,-0.137132 -0.09976,-0.246981 -0.06981,-0.08901 -0.149761,-0.234331 -0.177786,-0.32292 -0.05528,-0.174488 -0.199041,-0.225575 -0.241855,-0.0859 -0.01266,0.04135 -0.05928,0.155654 -0.10365,0.254024 -0.06329,0.140339 -0.06856,0.183482 -0.02469,0.200334 0.03083,0.01178 0.06793,0.08113 0.08247,0.154029 0.03359,0.168222 0.106032,0.169851 0.163948,0.0036 z m 0.208328,0.112637 c 0,-0.0089 -0.02895,-0.04027 -0.06442,-0.06969 -0.05277,-0.04379 -0.06442,-0.04085 -0.06442,0.01621 0,0.03836 0.02895,0.06969 0.06442,0.06969 0.03547,0 0.06442,-0.0072 0.06442,-0.01622 z m 0.42953,-0.0029 c 0,-0.01041 -0.0193,-0.03088 -0.04299,-0.04548 -0.02369,-0.01458 -0.04299,-0.0061 -0.04299,0.01895 0,0.02504 0.0193,0.04548 0.04299,0.04548 0.02356,0 0.04299,-0.0085 0.04299,-0.01895 z m 1.088857,-0.109918 c 0.02005,-0.100229 0.04863,-0.12886 0.128855,-0.12886 0.08021,0 0.10879,0.02863 0.128855,0.12886 0.01804,0.09019 0.05089,0.128858 0.10929,0.128858 0.0579,0 0.09225,-0.03953 0.111923,-0.128858 0.02206,-0.100342 0.05151,-0.12886 0.133342,-0.12886 0.08234,0 0.110544,0.02785 0.130822,0.12886 0.02795,0.139767 0.08836,0.168664 0.129332,0.06186 0.01529,-0.03991 -0.01905,-0.113715 -0.08498,-0.18255 -0.122826,-0.128175 -0.244098,-0.387751 -0.244098,-0.522232 0,-0.204029 -0.229937,-0.10874 -0.314913,0.130499 -0.04249,0.119781 -0.143719,0.291251 -0.224847,0.381044 -0.156065,0.172748 -0.185795,0.260231 -0.08848,0.260231 0.03247,0 0.07069,-0.05798 0.08485,-0.128858 z m 0.614934,0.05726 c -0.0158,-0.01577 -0.02857,-0.0029 -0.02857,0.02863 0,0.0315 0.01291,0.04438 0.02857,0.02863 0.0158,-0.01577 0.0158,-0.04152 0,-0.05726 z m 0.472481,0.04296 c -0.0158,-0.01573 -0.04149,-0.01573 -0.05727,0 -0.0158,0.01577 -0.0025,0.02863 0.02857,0.02863 0.03146,0 0.04437,-0.01291 0.0287,-0.02863 z m -10.014653,-0.135468 c -0.03409,-0.03414 -0.108037,0.04335 -0.08172,0.08578 0.01779,0.02888 0.03998,0.02447 0.06279,-0.0124 0.01943,-0.03137 0.02795,-0.06436 0.01893,-0.07332 z m 0.171292,0.07822 c 0.01454,-0.02361 0.0062,-0.04296 -0.01893,-0.04296 -0.02507,0 -0.04549,0.01932 -0.04549,0.04296 0,0.02361 0.0087,0.04295 0.01893,0.04295 0.01002,0 0.03083,-0.01932 0.04549,-0.04295 z m 0.322922,-0.109743 c 0.06266,-0.189984 0.172934,-0.183547 0.229409,0.0134 0.05126,0.178813 0.08773,0.17593 0.1453,-0.01153 0.0559,-0.182075 -0.08949,-0.599464 -0.194719,-0.559081 -0.03247,0.0124 -0.114554,0.02262 -0.18266,0.02262 -0.134018,0 -0.330014,0.318153 -0.250052,0.405902 0.02043,0.02246 0.03722,0.08205 0.03722,0.132439 0,0.204316 0.147718,0.201718 0.215548,-0.0036 z m 0.758053,0.124055 c -0.0158,-0.01577 -0.04149,-0.01577 -0.05727,0 -0.01579,0.01577 -0.0025,0.02863 0.02857,0.02863 0.03146,0 0.04437,-0.01291 0.0287,-0.02863 z m 1.131094,-0.01434 c 0,-0.02361 -0.0193,-0.04295 -0.04299,-0.04295 -0.02356,0 -0.04299,0.01932 -0.04299,0.04295 0,0.02361 0.0193,0.04295 0.04299,0.04295 0.02356,0 0.04299,-0.01932 0.04299,-0.04295 z m 0.316291,-0.08881 c 0.0366,-0.182748 0.255817,-0.171959 0.277174,0.01364 0.0168,0.146053 0.125547,0.156182 0.160978,0.01499 0.04512,-0.179858 -0.191634,-0.626077 -0.332497,-0.626625 -0.14719,-8.17e-4 -0.349241,0.395271 -0.307718,0.602871 0.03496,0.174878 0.166744,0.171697 0.202063,-0.0049 z m 0.15619,0.08881 c 0,-0.02361 -0.0087,-0.04295 -0.01893,-0.04295 -0.01003,0 -0.03083,0.01932 -0.04549,0.04295 -0.01454,0.02361 -0.0062,0.04295 0.01893,0.04295 0.02507,0 0.04549,-0.01932 0.04549,-0.04295 z m -1.861286,-0.07159 c -0.0158,-0.01577 -0.0287,-0.0029 -0.0287,0.02863 0,0.03148 0.01291,0.04438 0.0287,0.02863 0.0158,-0.01577 0.0158,-0.04152 0,-0.05727 z m -2.325595,-0.126807 c -0.03822,-0.03823 -0.08021,-0.05887 -0.09325,-0.04581 -0.03823,0.03823 0.0272,0.115357 0.09788,0.115357 0.05615,0 0.05553,-0.0095 -0.005,-0.06955 z m 3.413726,0.02658 c 0.05553,-0.03589 0.05439,-0.04174 -0.0087,-0.04229 -0.03998,-3.27e-4 -0.0846,0.01867 -0.09914,0.04229 -0.03359,0.05436 0.02331,0.05436 0.10741,0 z m -2.25502,-0.04296 c 0.01454,-0.02361 0.01692,-0.04295 0.005,-0.04295 -0.01128,0 -0.03347,0.01932 -0.048,0.04295 -0.01454,0.02361 -0.01692,0.04296 -0.005,0.04296 0.01128,0 0.03347,-0.01932 0.048,-0.04296 z m 11.389678,0.01434 c -0.0158,-0.01577 -0.04149,-0.01577 -0.05727,0 -0.0158,0.01577 -0.0025,0.02864 0.02857,0.02864 0.03146,0 0.04437,-0.01291 0.02857,-0.02864 z m -0.194969,-0.08949 c 0.05339,-0.06814 0.05188,-0.06965 -0.01617,-0.01621 -0.04136,0.03243 -0.0752,0.06625 -0.0752,0.07516 0,0.03537 0.03535,0.01258 0.09136,-0.05894 z m 0.445535,-0.01078 c 0.04725,-0.0203 0.06655,-0.03828 0.04299,-0.03994 -0.112048,-0.0079 -0.04299,-0.280138 0.08234,-0.324135 0.0831,-0.02917 0.130322,-0.02953 0.140298,-8.15e-4 0.07508,0.214521 0.292941,0.171124 0.25687,-0.05117 -0.02043,-0.125544 -0.0087,-0.152996 0.08335,-0.194921 0.14768,-0.06729 0.129833,-0.262648 -0.02594,-0.284197 -0.05903,-0.0082 -0.130698,-0.03398 -0.159186,-0.05739 -0.03572,-0.02936 -0.117437,-0.0069 -0.263726,0.07279 l -0.211913,0.115332 -0.02432,0.264204 c -0.01341,0.145317 -0.0371,0.327025 -0.05252,0.403806 -0.02932,0.145265 -0.01128,0.15829 0.1319,0.09664 z m -12.993266,-0.042947 c 0,-0.0236 -0.0087,-0.04295 -0.01893,-0.04295 -0.01002,0 -0.03083,0.01932 -0.04549,0.04295 -0.01454,0.02361 -0.0062,0.04295 0.01893,0.04295 0.02507,0 0.0455,-0.01932 0.0455,-0.04295 z m 3.822812,0 c 0,-0.0236 -0.0087,-0.04295 -0.01893,-0.04295 -0.01003,0 -0.03083,0.01932 -0.04549,0.04295 -0.01454,0.02361 -0.0062,0.04295 0.01893,0.04295 0.02507,0 0.04549,-0.01932 0.04549,-0.04295 z m 8.826828,-0.0859 c 0.01454,-0.02361 0.01692,-0.04295 0.005,-0.04295 -0.01128,0 -0.03346,0.01932 -0.048,0.04295 -0.01454,0.02361 -0.01692,0.04295 -0.005,0.04295 0.01128,0 0.03347,-0.01932 0.048,-0.04295 z m 0.544786,-0.05227 c -0.03083,-0.03083 -0.05089,-0.03337 -0.05089,-0.0064 0,0.05733 0.05076,0.108125 0.07946,0.07946 0.01253,-0.01215 -8.15e-4,-0.04507 -0.0287,-0.07302 z m -13.31254,-0.0075 c 0.185581,-0.14088 0.04336,-0.409761 -0.261896,-0.495226 -0.215248,-0.06026 -0.202425,-0.06627 -0.24079,0.112862 -0.03246,0.151795 0.03948,0.167246 0.22867,0.04908 0.13729,-0.08574 0.256495,0.04326 0.184992,0.200218 -0.08836,0.193765 -0.05553,0.242769 0.08899,0.13306 z m -0.2255,-0.16004 c 0,-0.02361 -0.0193,-0.03101 -0.04299,-0.01642 -0.02368,0.01458 -0.04299,0.04587 -0.04299,0.0695 0,0.02361 0.0193,0.031 0.04299,0.01642 0.02368,-0.01458 0.04299,-0.04587 0.04299,-0.0695 z m 14.053472,-0.09014 c -0.03083,-0.03083 -0.05076,-0.03337 -0.05076,-0.0064 0,0.05733 0.05076,0.108124 0.07946,0.07946 0.01253,-0.01215 -8.27e-4,-0.04506 -0.0287,-0.07302 z m 0.222141,-0.05869 c 0.08773,-0.03365 0.03936,-0.14678 -0.06279,-0.14678 -0.08987,0 -0.09287,0.0058 -0.05527,0.103865 0.02957,0.07699 0.02932,0.07693 0.118063,0.04292 z m -14.683672,-0.103828 c 0.01454,-0.0236 0.01692,-0.04296 0.005,-0.04296 -0.01128,0 -0.03347,0.01932 -0.048,0.04296 -0.01466,0.02361 -0.01692,0.04295 -0.005,0.04295 0.01128,0 0.03347,-0.01932 0.048,-0.04295 z m -0.128855,-0.128855 c 0.01454,-0.02361 -0.0037,-0.04295 -0.04048,-0.04295 -0.03685,0 -0.06693,0.01932 -0.06693,0.04295 0,0.02361 0.01817,0.04295 0.04048,0.04295 0.02219,0 0.05239,-0.01932 0.06693,-0.04295 z m -1.846985,-1.073824 c 0.01466,-0.02361 0.0062,-0.04296 -0.01893,-0.04296 -0.02507,0 -0.0455,0.01932 -0.0455,0.04296 0,0.02361 0.0087,0.04295 0.01893,0.04295 0.01003,0 0.03083,-0.01932 0.04549,-0.04295 z m 0.628307,-0.418792 c 0.05339,-0.06812 0.05188,-0.06965 -0.01617,-0.01621 -0.07156,0.05611 -0.09425,0.09139 -0.05891,0.09139 0.0087,0 0.04274,-0.03381 0.0752,-0.07516 z m 0.276611,-0.187235 c 0.01605,-0.02593 -0.02156,-0.01397 -0.08348,0.02663 -0.06191,0.04059 -0.112674,0.08194 -0.112674,0.09187 0,0.03108 0.16554,-0.06893 0.196183,-0.118515 z m -0.325051,-0.01982 c 0,-0.01178 -0.03861,-8.18e-4 -0.08585,0.0245 -0.04725,0.02528 -0.08585,0.05564 -0.08585,0.06746 0,0.01178 0.03861,8.17e-4 0.08585,-0.0245 0.04725,-0.02528 0.08585,-0.05564 0.08585,-0.06746 z m 0.193288,-0.104365 c 0.01454,-0.02361 0.01692,-0.04295 0.005,-0.04295 -0.01128,0 -0.03347,0.01932 -0.048,0.04295 -0.01466,0.02361 -0.01692,0.04295 -0.005,0.04295 0.01128,0 0.03347,-0.01932 0.048,-0.04295 z m 15.856791,-0.02863 c -0.0158,-0.01577 -0.04149,-0.01577 -0.05727,0 -0.0158,0.01573 -0.0025,0.02863 0.0287,0.02863 0.03146,0 0.04437,-0.01291 0.02857,-0.02863 z m -15.596461,-0.362152 c 0.01316,-0.02124 0.0037,-0.03864 -0.02156,-0.03864 -0.02507,0 -0.04549,-0.02528 -0.04549,-0.05622 0,-0.03092 -0.0277,-0.09374 -0.06167,-0.139595 l -0.06166,-0.08338 -0.06718,0.159694 c -0.03697,0.08783 -0.06718,0.207983 -0.06718,0.267006 v 0.10731 l 0.150462,-0.08877 c 0.08272,-0.04883 0.161216,-0.106158 0.174352,-0.12741 z m 0.212089,0.09023 c 0.01466,-0.02361 0.01692,-0.04296 0.005,-0.04296 -0.01128,0 -0.03346,0.01932 -0.048,0.04296 -0.01466,0.02361 -0.01692,0.04295 -0.005,0.04295 0.01128,0 0.03347,-0.01932 0.048,-0.04295 z m 0.193288,-0.515432 c 0,-0.02361 -0.0193,-0.04295 -0.04299,-0.04295 -0.02368,0 -0.04299,0.01932 -0.04299,0.04295 0,0.02361 0.0193,0.04295 0.04299,0.04295 0.02368,0 0.04299,-0.01932 0.04299,-0.04295 z m 0.987926,0.03104 c 0,-0.100305 -0.174112,-0.142874 -0.285094,-0.0697 l -0.122952,0.08107 0.204029,3.22e-4 c 0.112174,1.63e-4 0.20403,-0.005 0.20403,-0.01166 z m -0.773155,-0.09545 c 0,-0.03546 -0.0075,-0.06444 -0.01692,-0.06444 -0.0087,0 -0.02807,0.029 -0.04161,0.06444 -0.01366,0.03546 -0.0062,0.06444 0.01692,0.06444 0.02293,0 0.04161,-0.029 0.04161,-0.06444 z m 1.073817,0 c 0.04474,-0.05383 0.03848,-0.06444 -0.03772,-0.06444 -0.05239,0 -0.09111,0.02741 -0.09111,0.06444 0,0.03546 0.01692,0.06444 0.03772,0.06444 0.02068,0 0.06179,-0.029 0.09111,-0.06444 z m 14.117192,-0.307828 c -0.01567,-0.01577 -0.04149,-0.01577 -0.05728,0 -0.01579,0.01573 -0.0025,0.02863 0.02858,0.02863 0.03146,0 0.04437,-0.01291 0.0287,-0.02863 z m -0.512751,-0.08323 c -0.01429,-0.01425 -0.05126,-0.01581 -0.08234,-0.0033 -0.03422,0.01372 -0.02406,0.02389 0.02594,0.02593 0.04524,0.002 0.07069,-0.0083 0.0564,-0.02255 z m -0.346308,-0.04563 c -0.0158,-0.01573 -0.04149,-0.01573 -0.05727,0 -0.0158,0.01577 -0.0025,0.02863 0.02857,0.02863 0.03146,0 0.04437,-0.01291 0.0287,-0.02863 z m 2.161972,-0.05131 c 0,-0.02034 -0.04838,-0.02777 -0.107411,-0.01646 -0.05903,0.01128 -0.107409,0.02794 -0.107409,0.037 0,0.009 0.04838,0.01646 0.107409,0.01646 0.05903,0 0.107411,-0.01667 0.107411,-0.037 z m -29.259207,-0.907381 c 0.03948,-4.09e-4 0.05227,-0.05493 0.04299,-0.183138 -0.01253,-0.17126 -0.02118,-0.18255 -0.142065,-0.18255 h -0.128867 l -0.01329,0.209711 -0.01329,0.209715 0.09926,-0.02659 c 0.05452,-0.01462 0.124456,-0.02683 0.155388,-0.02716 z m 0.601148,-0.199173 c 0.01003,-0.06834 -0.01429,-0.09641 -0.09563,-0.111972 -0.131261,-0.02508 -0.153621,-0.0065 -0.153621,0.12728 0,0.140458 0.229034,0.12639 0.249262,-0.01531 z m 14.105423,-0.392016 c -0.01253,-0.06498 -0.03096,-0.09332 -0.04111,-0.06302 -0.0183,0.05465 0.01441,0.181133 0.04688,0.181133 0.0087,0 0.0062,-0.05316 -0.0062,-0.118127 z m 0.02194,-0.451009 c -0.01003,-0.05316 -0.01855,-0.0097 -0.01855,0.09664 0,0.106308 0.0087,0.149803 0.01855,0.09665 0.01003,-0.05316 0.01003,-0.140134 0,-0.19329 z m -0.0012,-0.232661 c -0.0158,-0.01573 -0.02857,-0.0029 -0.02857,0.02863 0,0.0315 0.01291,0.04438 0.02857,0.02863 0.0158,-0.01573 0.0158,-0.04152 0,-0.05726 z m 1.33154,0 c -0.0158,-0.01573 -0.04149,-0.01573 -0.05727,0 -0.01579,0.01577 -0.0025,0.02863 0.02857,0.02863 0.03146,0 0.04437,-0.01291 0.0287,-0.02863 z m 0.100266,-0.357939 c 0,-0.10647 -0.01679,-0.127995 -0.09663,-0.123879 -0.0727,0.0036 -0.07809,0.0099 -0.02144,0.02463 0.04549,0.0119 0.0752,0.06072 0.0752,0.12388 0,0.05733 0.01002,0.104227 0.02143,0.104227 0.01128,0 0.02156,-0.05798 0.02156,-0.128856 z m -0.23624,-0.04295 c 0.01454,-0.02361 0.0062,-0.04296 -0.01893,-0.04296 -0.02507,0 -0.0455,0.01932 -0.0455,0.04296 0,0.02361 0.0087,0.04295 0.01893,0.04295 0.01002,0 0.03083,-0.01933 0.04549,-0.04295 z m 1.338696,-0.715883 c -0.01579,-0.01577 -0.04149,-0.01577 -0.05727,0 -0.0158,0.01573 -0.0025,0.02863 0.02857,0.02863 0.03146,0 0.04437,-0.01291 0.02857,-0.02863 z"
       id="U-S-S-Pershing" />
  </g>
</svg>
