<?xml version="1.0" encoding="UTF-8" standalone="no"?>
<!-- Created with Inkscape (http://www.inkscape.org/) -->

<svg
   width="29.765635mm"
   height="6.2287183mm"
   viewBox="0 0 29.765635 6.2287183"
   version="1.1"
   id="svg5570"
   sodipodi:docname="inkporter-svg-zgdocm6i.svg"
   xmlns:inkscape="http://www.inkscape.org/namespaces/inkscape"
   xmlns:sodipodi="http://sodipodi.sourceforge.net/DTD/sodipodi-0.dtd"
   xmlns="http://www.w3.org/2000/svg"
   xmlns:svg="http://www.w3.org/2000/svg">
  <sodipodi:namedview
     id="namedview5572"
     pagecolor="#ffffff"
     bordercolor="#666666"
     borderopacity="1.0"
     inkscape:pageshadow="2"
     inkscape:pageopacity="0.0"
     inkscape:pagecheckerboard="0"
     inkscape:document-units="mm"
     showgrid="false"
     inkscape:zoom="1.2810466"
     inkscape:cx="526.13231"
     inkscape:cy="1810.6289"
     inkscape:window-width="2400"
     inkscape:window-height="1271"
     inkscape:window-x="-9"
     inkscape:window-y="-9"
     inkscape:window-maximized="1"
     inkscape:current-layer="layer1"
     inkscape:snap-bbox="true"
     inkscape:snap-nodes="false"
     inkscape:snap-others="false"
     inkscape:bbox-paths="true"
     inkscape:bbox-nodes="true" />
  <defs
     id="defs5567" />
  <g
     inkscape:label="Layer 1"
     inkscape:groupmode="layer"
     id="layer1"
     transform="translate(-161.08659,-471.3008)">
    <g
       id="U-S-3-inch"
       transform="matrix(0.35277777,0,0,0.35277777,4.75505,299.96239)">
      <path
         style="fill:#000000;fill-opacity:1;fill-rule:nonzero;stroke:none"
         d="m 499.03125,491.82812 -0.26953,0.51954 -0.25391,0.5 -0.004,0.30078 0.43359,-0.17969 0.49609,-0.51563 0.15625,-0.44531 -0.14453,-0.32422 -0.35547,0.0156 z m -0.67188,-0.2539 -0.16015,-0.30469 -0.1875,-0.0391 -0.008,-0.59766 0.33593,-0.0312 0.42188,-0.42578 0.0625,-0.35547 0.38281,-0.4414 0.62109,-0.23438 0.76563,0.0898 0.37109,0.37891 0.17578,0.47266 -0.004,0.3164 -0.0234,0.22657 0.0898,0.26562 0.73829,0.55469 0.33984,-0.0703 0.19141,-0.3125 0.52734,-0.125 0.6875,0.3125 0.71875,0.72656 0.59766,1.15234 0.19531,0.5625 -0.17188,0.24219 -0.26562,0.21875 -0.15235,0.0742 0.0508,0.28125 0.51953,0.19531 0.60156,0.98438 0.11328,1.08984 -0.17187,0.22266 -0.0469,0.57812 -0.15625,0.31641 -0.63672,0.0625 h -0.14844 l -0.12109,1.38281 0.18359,0.22656 0.71094,-0.004 0.20703,0.16796 0.50391,-0.12109 0.4375,-0.30859 0.50391,0.0273 0.21875,0.52734 -0.0781,0.12891 0.0508,0.32031 0.3086,0.53125 0.0859,0.52344 -0.0664,0.44922 -0.54297,-0.008 -0.34766,-0.40235 0.008,-0.52343 -0.0351,-0.12891 -0.69141,0.043 -0.32031,-0.0625 -0.21094,0.27734 -0.43359,0.17969 -1.13281,0.54297 -0.58204,0.043 -0.30859,-0.4336 -0.38281,-1.71093 -0.42969,-1.15235 -1.21875,-0.13281 -1.03906,-0.39063 0.12109,0.5625 -0.12109,0.3711 0.26172,1.29687 0.0508,1.27735 0.0156,0.14843 -0.74609,-0.0312 -0.0156,-0.13281 -0.28515,0.0156 -0.2461,0.18359 -1.14062,-0.0586 -0.125,-0.30078 0.13281,-0.14844 0.67578,-0.0625 0.53125,-0.55078 0.11719,-0.0937 -0.10156,-0.75 -0.23438,-0.51172 -0.44531,-0.17578 -0.36719,-0.49219 -0.11718,-0.84766 -0.0742,-1.10547 0.49609,-0.49609 2.38281,-0.0508 0.0469,-0.5625 -0.78125,-1.36328 -0.54297,-0.10156 -0.51172,0.38281 -0.67969,0.23437 -0.65625,-0.0117 -0.40625,-0.28906 0.0117,-0.59765 0.46875,-1.15625 z m 0,0"
         id="path18634-4" />
      <path
         style="fill:#000000;fill-opacity:1;fill-rule:nonzero;stroke:none"
         d="m 499.03125,491.82812 -0.26953,0.51954 -0.25391,0.5 -0.004,0.30078 0.43359,-0.17969 0.49609,-0.51563 0.15625,-0.44531 -0.14453,-0.32422 -0.35547,0.0156 z m -0.67188,-0.2539 -0.16015,-0.30469 -0.1875,-0.0391 -0.008,-0.59766 0.33593,-0.0312 0.42188,-0.42578 0.0625,-0.35547 0.38281,-0.4414 0.62109,-0.23438 0.76563,0.0898 0.37109,0.37891 0.17578,0.47266 -0.004,0.3164 -0.0234,0.22657 0.0898,0.26562 0.73829,0.55469 0.33984,-0.0703 0.19141,-0.3125 0.52734,-0.125 0.6875,0.3125 0.71875,0.72656 0.59766,1.15234 0.19531,0.5625 -0.17188,0.24219 -0.26562,0.21875 -0.15235,0.0742 0.0508,0.28125 0.51953,0.19531 0.60156,0.98438 0.11328,1.08984 -0.17187,0.22266 -0.0469,0.57812 -0.15625,0.31641 -0.63672,0.0625 h -0.14844 l -0.12109,1.38281 0.18359,0.22656 0.71094,-0.004 0.20703,0.16796 0.50391,-0.12109 0.4375,-0.30859 0.50391,0.0273 0.21875,0.52734 -0.0781,0.12891 0.0508,0.32031 0.3086,0.53125 0.0859,0.52344 -0.0664,0.44922 -0.54297,-0.008 -0.34766,-0.40235 0.008,-0.52343 -0.0351,-0.12891 -0.69141,0.043 -0.32031,-0.0625 -0.21094,0.27734 -0.43359,0.17969 -1.13281,0.54297 -0.58204,0.043 -0.30859,-0.4336 -0.38281,-1.71093 -0.42969,-1.15235 -1.21875,-0.13281 -1.03906,-0.39063 0.12109,0.5625 -0.12109,0.3711 0.26172,1.29687 0.0508,1.27735 0.0156,0.14843 -0.74609,-0.0312 -0.0156,-0.13281 -0.28515,0.0156 -0.2461,0.18359 -1.14062,-0.0586 -0.125,-0.30078 0.13281,-0.14844 0.67578,-0.0625 0.53125,-0.55078 0.11719,-0.0937 -0.10156,-0.75 -0.23438,-0.51172 -0.44531,-0.17578 -0.36719,-0.49219 -0.11718,-0.84766 -0.0742,-1.10547 0.49609,-0.49609 2.38281,-0.0508 0.0469,-0.5625 -0.78125,-1.36328 -0.54297,-0.10156 -0.51172,0.38281 -0.67969,0.23437 -0.65625,-0.0117 -0.40625,-0.28906 0.0117,-0.59765 0.46875,-1.15625 z m 0,0"
         id="path18636-9" />
      <path
         style="fill:#000000;fill-opacity:1;fill-rule:nonzero;stroke:none"
         d="m 509.91016,494.29687 -0.20704,-0.30859 -1.13671,-0.0742 0.59375,0.28906 0.42968,0.0547 z m 0.33984,0.5625 -0.10156,-0.21875 z m -2.55078,-4.72265 0.1875,-0.0469 0.17578,-0.17187 0.0664,-0.3086 0.0703,-0.19921 0.11719,-0.21094 c 0,0 0.0195,-0.0781 0.15625,-0.17969 l 0.16015,-0.11719 c 0.0586,-0.0469 0.25781,-0.10937 0.25781,-0.10937 l 0.19532,-0.0352 0.21484,-0.0312 0.20703,0.0234 0.15625,0.0156 0.1875,0.0469 0.16406,0.0664 c 0.0312,0.008 0.14454,0.10156 0.14454,0.10156 l 0.22656,0.2539 c 0.0469,0.0625 0.10156,0.1875 0.10156,0.1875 l 0.0391,0.13282 0.0274,0.25781 v 0.13281 l -0.0274,0.17188 -0.043,0.15625 c -0.004,0.16015 0.043,0.20703 0.043,0.20703 l -0.15234,0.0351 -0.0547,0.14844 0.26563,0.25 0.40234,0.0195 0.71094,0.49219 0.33984,-0.0703 0.19141,-0.3125 0.52734,-0.125 0.6875,0.3125 0.71485,0.72656 0.60156,1.15234 0.19531,0.56641 -0.17578,0.23828 -0.26172,0.22266 -0.15234,0.0703 0.0508,0.28125 0.52344,0.19531 0.60156,0.98828 0.10937,1.08594 -0.17187,0.22266 -0.0469,0.57812 -0.15625,0.31641 -0.64062,0.0625 h -0.14844 l -0.11719,1.38281 0.1836,0.22656 0.71093,-0.004 0.20313,0.17187 0.50781,-0.125 0.4375,-0.30859 0.50391,0.0273 0.21484,0.53125 -0.0742,0.125 0.0469,0.32032 0.3125,0.53125 0.082,0.52734 -0.0625,0.44531 -0.54297,-0.008 -0.34766,-0.39844 0.008,-0.52734 -0.0352,-0.12891 -0.69531,0.043 -0.31641,-0.0625 -0.21094,0.27734 -0.43359,0.17969 -1.13281,0.54297 -0.58203,0.0469 -0.3086,-0.4375 -0.38281,-1.71094 -0.42969,-1.14844 -1.21484,-0.13281 -1.04297,-0.39453 0.12109,0.5625 -0.12109,0.375 0.25781,1.29687 0.0547,1.27344 0.0156,0.14844 -0.75,-0.0312 -0.0156,-0.13282 -0.28125,0.0156 -0.24609,0.18359 -1.14063,-0.0586 -0.1289,-0.30078 0.13671,-0.14844 0.67579,-0.0625 0.53515,-0.55078 0.0117,-0.84375 -0.23437,-0.51172 -0.44532,-0.17578 -0.36718,-0.49219 -0.11329,-0.84765 -0.0781,-1.10547 0.49609,-0.4961 2.37891,-0.0508 -0.30469,-0.5039 -0.42969,-0.10938 -0.52343,-0.15234 -0.54297,-0.26172 -0.42969,-0.20313 -0.25,-0.11718 -0.082,-0.33594 -0.25,-0.11719 h -0.21094 l -0.21094,0.0117 -0.26171,0.0312 -0.16797,-0.0898 -0.20313,-0.15235 -0.19531,-0.16797 -0.20703,-0.0351 -0.23828,-0.043 -0.13282,-0.043 -0.23046,-0.0781 0.39843,-0.0976 0.29688,-0.0508 0.28125,-0.0274 0.20312,-0.0664 0.51563,0.0391 0.18359,0.0742 0.3125,0.0898 0.32422,0.0859 1.375,0.0742 -0.0898,-0.14453 -0.16797,-0.21875 -0.20703,-0.375 -0.0274,-0.29688 -0.008,-0.36719 0.0664,-0.42187 0.082,-0.33594 -0.0274,-0.14453 h -0.21093 l -0.12891,0.0547 -0.16016,-0.008 -0.17578,-0.0937 -0.0859,-0.35547 -0.0469,-0.14063 -0.14844,-0.0859 0.14844,-0.52343 -0.59766,-0.1211 z m 0,0"
         id="path18638-5" />
      <path
         style="fill:#000000;fill-opacity:1;fill-rule:nonzero;stroke:none"
         d="m 509.91016,494.29687 -0.20704,-0.30859 -1.13671,-0.0742 0.59375,0.28906 0.42968,0.0547 z m 0.33984,0.5625 -0.10156,-0.21875 z m -2.55078,-4.72265 0.1875,-0.0469 0.17578,-0.17187 0.0664,-0.3086 0.0703,-0.19921 0.11719,-0.21094 c 0,0 0.0195,-0.0781 0.15625,-0.17969 l 0.16015,-0.11719 c 0.0586,-0.0469 0.25781,-0.10937 0.25781,-0.10937 l 0.19532,-0.0352 0.21484,-0.0312 0.20703,0.0234 0.15625,0.0156 0.1875,0.0469 0.16406,0.0664 c 0.0312,0.008 0.14454,0.10156 0.14454,0.10156 l 0.22656,0.2539 c 0.0469,0.0625 0.10156,0.1875 0.10156,0.1875 l 0.0391,0.13282 0.0274,0.25781 v 0.13281 l -0.0274,0.17188 -0.043,0.15625 c -0.004,0.16015 0.043,0.20703 0.043,0.20703 l -0.15234,0.0351 -0.0547,0.14844 0.26563,0.25 0.40234,0.0195 0.71094,0.49219 0.33984,-0.0703 0.19141,-0.3125 0.52734,-0.125 0.6875,0.3125 0.71485,0.72656 0.60156,1.15234 0.19531,0.56641 -0.17578,0.23828 -0.26172,0.22266 -0.15234,0.0703 0.0508,0.28125 0.52344,0.19531 0.60156,0.98828 0.10937,1.08594 -0.17187,0.22266 -0.0469,0.57812 -0.15625,0.31641 -0.64062,0.0625 h -0.14844 l -0.11719,1.38281 0.1836,0.22656 0.71093,-0.004 0.20313,0.17187 0.50781,-0.125 0.4375,-0.30859 0.50391,0.0273 0.21484,0.53125 -0.0742,0.125 0.0469,0.32032 0.3125,0.53125 0.082,0.52734 -0.0625,0.44531 -0.54297,-0.008 -0.34766,-0.39844 0.008,-0.52734 -0.0352,-0.12891 -0.69531,0.043 -0.31641,-0.0625 -0.21094,0.27734 -0.43359,0.17969 -1.13281,0.54297 -0.58203,0.0469 -0.3086,-0.4375 -0.38281,-1.71094 -0.42969,-1.14844 -1.21484,-0.13281 -1.04297,-0.39453 0.12109,0.5625 -0.12109,0.375 0.25781,1.29687 0.0547,1.27344 0.0156,0.14844 -0.75,-0.0312 -0.0156,-0.13282 -0.28125,0.0156 -0.24609,0.18359 -1.14063,-0.0586 -0.1289,-0.30078 0.13671,-0.14844 0.67579,-0.0625 0.53515,-0.55078 0.0117,-0.84375 -0.23437,-0.51172 -0.44532,-0.17578 -0.36718,-0.49219 -0.11329,-0.84765 -0.0781,-1.10547 0.49609,-0.4961 2.37891,-0.0508 -0.30469,-0.5039 -0.42969,-0.10938 -0.52343,-0.15234 -0.54297,-0.26172 -0.42969,-0.20313 -0.25,-0.11718 -0.082,-0.33594 -0.25,-0.11719 h -0.21094 l -0.21094,0.0117 -0.26171,0.0312 -0.16797,-0.0898 -0.20313,-0.15235 -0.19531,-0.16797 -0.20703,-0.0351 -0.23828,-0.043 -0.13282,-0.043 -0.23046,-0.0781 0.39843,-0.0976 0.29688,-0.0508 0.28125,-0.0274 0.20312,-0.0664 0.51563,0.0391 0.18359,0.0742 0.3125,0.0898 0.32422,0.0859 1.375,0.0742 -0.0898,-0.14453 -0.16797,-0.21875 -0.20703,-0.375 -0.0274,-0.29688 -0.008,-0.36719 0.0664,-0.42187 0.082,-0.33594 -0.0274,-0.14453 h -0.21093 l -0.12891,0.0547 -0.16016,-0.008 -0.17578,-0.0937 -0.0859,-0.35547 -0.0469,-0.14063 -0.14844,-0.0859 0.14844,-0.52343 -0.59766,-0.1211 z m 0,0"
         id="path18640-7" />
      <path
         style="fill:#000000;fill-opacity:1;fill-rule:nonzero;stroke:none"
         d="m 490.96094,494.44141 -0.20703,-0.3086 -1.13672,-0.0703 0.59375,0.28516 0.43359,0.0547 z m 0.33984,0.5625 -0.10156,-0.21485 z m -2.55078,-4.71875 0.1875,-0.0469 0.17969,-0.17187 0.0625,-0.3125 0.0703,-0.19922 0.12109,-0.21094 c 0,0 0.0156,-0.0742 0.15235,-0.17578 l 0.16015,-0.1211 c 0.0586,-0.0469 0.25782,-0.10546 0.25782,-0.10546 l 0.19531,-0.0391 0.21484,-0.0273 0.20703,0.0195 0.15625,0.0195 0.19141,0.043 0.16406,0.0664 c 0.0234,0.0117 0.14453,0.10547 0.14453,0.10547 l 0.22266,0.2539 c 0.0469,0.0586 0.10156,0.1836 0.10156,0.1836 l 0.0391,0.13281 0.0312,0.26172 v 0.13281 l -0.0312,0.16797 -0.043,0.15625 c -0.004,0.16015 0.043,0.20703 0.043,0.20703 l -0.15234,0.0391 -0.0547,0.14453 0.26563,0.25391 0.40234,0.0195 0.71094,0.49219 0.33984,-0.0703 0.19141,-0.31641 0.52734,-0.12109 0.6875,0.3125 0.71875,0.72656 0.59766,1.14844 0.19531,0.5664 -0.17187,0.24219 -0.26563,0.21875 -0.15234,0.0703 0.0508,0.28516 0.52344,0.19531 0.60156,0.98438 0.10937,1.08984 -0.17187,0.21875 -0.0469,0.58203 -0.15625,0.31641 -0.63671,0.0625 -0.15235,-0.004 -0.11719,1.38672 0.1836,0.22656 0.71484,-0.008 0.20313,0.17187 0.50781,-0.12109 0.43359,-0.3125 0.50391,0.0312 0.21875,0.52734 -0.0781,0.12891 0.0508,0.32031 0.30859,0.52735 0.082,0.52734 -0.0625,0.44922 -0.54297,-0.0117 -0.35156,-0.39844 0.0117,-0.52343 -0.0352,-0.13282 -0.6914,0.043 -0.31641,-0.0586 -0.21484,0.27734 -0.4336,0.17969 -1.13281,0.54297 -0.58203,0.043 -0.3086,-0.4375 -0.38281,-1.71094 -0.42969,-1.14844 -1.21484,-0.13281 -1.04297,-0.39063 0.1211,0.5625 -0.1211,0.3711 0.25781,1.29687 0.0547,1.27344 0.0156,0.15234 -0.7461,-0.0312 -0.0195,-0.13281 -0.27734,0.0156 -0.2461,0.18359 -1.14453,-0.0586 -0.125,-0.30078 0.13282,-0.15235 0.67578,-0.0586 0.53515,-0.55469 0.0117,-0.84375 -0.23437,-0.50781 -0.44532,-0.17578 -0.36718,-0.4961 -0.11328,-0.84375 -0.0781,-1.10547 0.5,-0.49609 2.37891,-0.0547 -0.3086,-0.5 -0.42578,-0.11328 -0.52734,-0.14844 -0.54297,-0.26562 -0.42969,-0.20313 -0.25,-0.11718 -0.082,-0.33203 -0.25,-0.11719 h -0.20703 l -0.21484,0.0117 -0.26172,0.0312 -0.16407,-0.0937 -0.20703,-0.14844 -0.19531,-0.16797 -0.20703,-0.0352 -0.23828,-0.0469 -0.13281,-0.0391 -0.23047,-0.082 0.39843,-0.0937 0.29688,-0.0547 0.28125,-0.0234 0.20312,-0.0664 0.51954,0.0352 0.17968,0.0781 0.3125,0.0859 0.32813,0.0859 1.375,0.0781 -0.0899,-0.14844 -0.17187,-0.21485 -0.20313,-0.375 -0.0312,-0.30078 -0.008,-0.36328 0.0664,-0.42187 0.082,-0.33985 -0.0273,-0.14062 h -0.20704 l -0.13281,0.0547 -0.16015,-0.0117 -0.17579,-0.0899 -0.0859,-0.35937 -0.0469,-0.13672 -0.14844,-0.0859 0.14844,-0.52734 -0.59765,-0.1211 z m 0,0"
         id="path18642-0" />
      <path
         style="fill:#000000;fill-opacity:1;fill-rule:nonzero;stroke:none"
         d="m 490.96094,494.44141 -0.20703,-0.3086 -1.13672,-0.0703 0.59375,0.28516 0.43359,0.0547 z m 0.33984,0.5625 -0.10156,-0.21485 z m -2.55078,-4.71875 0.1875,-0.0469 0.17969,-0.17187 0.0625,-0.3125 0.0703,-0.19922 0.12109,-0.21094 c 0,0 0.0156,-0.0742 0.15235,-0.17578 l 0.16015,-0.1211 c 0.0586,-0.0469 0.25782,-0.10546 0.25782,-0.10546 l 0.19531,-0.0391 0.21484,-0.0273 0.20703,0.0195 0.15625,0.0195 0.19141,0.043 0.16406,0.0664 c 0.0234,0.0117 0.14453,0.10547 0.14453,0.10547 l 0.22266,0.2539 c 0.0469,0.0586 0.10156,0.1836 0.10156,0.1836 l 0.0391,0.13281 0.0312,0.26172 v 0.13281 l -0.0312,0.16797 -0.043,0.15625 c -0.004,0.16015 0.043,0.20703 0.043,0.20703 l -0.15234,0.0391 -0.0547,0.14453 0.26563,0.25391 0.40234,0.0195 0.71094,0.49219 0.33984,-0.0703 0.19141,-0.31641 0.52734,-0.12109 0.6875,0.3125 0.71875,0.72656 0.59766,1.14844 0.19531,0.5664 -0.17187,0.24219 -0.26563,0.21875 -0.15234,0.0703 0.0508,0.28516 0.52344,0.19531 0.60156,0.98438 0.10937,1.08984 -0.17187,0.21875 -0.0469,0.58203 -0.15625,0.31641 -0.63671,0.0625 -0.15235,-0.004 -0.11719,1.38672 0.1836,0.22656 0.71484,-0.008 0.20313,0.17187 0.50781,-0.12109 0.43359,-0.3125 0.50391,0.0312 0.21875,0.52734 -0.0781,0.12891 0.0508,0.32031 0.30859,0.52735 0.082,0.52734 -0.0625,0.44922 -0.54297,-0.0117 -0.35156,-0.39844 0.0117,-0.52343 -0.0352,-0.13282 -0.6914,0.043 -0.31641,-0.0586 -0.21484,0.27734 -0.4336,0.17969 -1.13281,0.54297 -0.58203,0.043 -0.3086,-0.4375 -0.38281,-1.71094 -0.42969,-1.14844 -1.21484,-0.13281 -1.04297,-0.39063 0.1211,0.5625 -0.1211,0.3711 0.25781,1.29687 0.0547,1.27344 0.0156,0.15234 -0.7461,-0.0312 -0.0195,-0.13281 -0.27734,0.0156 -0.2461,0.18359 -1.14453,-0.0586 -0.125,-0.30078 0.13282,-0.15235 0.67578,-0.0586 0.53515,-0.55469 0.0117,-0.84375 -0.23437,-0.50781 -0.44532,-0.17578 -0.36718,-0.4961 -0.11328,-0.84375 -0.0781,-1.10547 0.5,-0.49609 2.37891,-0.0547 -0.3086,-0.5 -0.42578,-0.11328 -0.52734,-0.14844 -0.54297,-0.26562 -0.42969,-0.20313 -0.25,-0.11718 -0.082,-0.33203 -0.25,-0.11719 h -0.20703 l -0.21484,0.0117 -0.26172,0.0312 -0.16407,-0.0937 -0.20703,-0.14844 -0.19531,-0.16797 -0.20703,-0.0352 -0.23828,-0.0469 -0.13281,-0.0391 -0.23047,-0.082 0.39843,-0.0937 0.29688,-0.0547 0.28125,-0.0234 0.20312,-0.0664 0.51954,0.0352 0.17968,0.0781 0.3125,0.0859 0.32813,0.0859 1.375,0.0781 -0.0899,-0.14844 -0.17187,-0.21485 -0.20313,-0.375 -0.0312,-0.30078 -0.008,-0.36328 0.0664,-0.42187 0.082,-0.33985 -0.0273,-0.14062 h -0.20704 l -0.13281,0.0547 -0.16015,-0.0117 -0.17579,-0.0899 -0.0859,-0.35937 -0.0469,-0.13672 -0.14844,-0.0859 0.14844,-0.52734 -0.59765,-0.1211 z m 0,0"
         id="path18644-4" />
      <path
         style="fill:#000000;fill-opacity:1;fill-rule:nonzero;stroke:none"
         d="m 519.93359,494.29687 -0.21093,-0.30859 -1.13672,-0.0742 0.59375,0.28906 0.43359,0.0547 z m 0.33594,0.5625 -0.10156,-0.21875 z m -2.55078,-4.72265 0.1875,-0.0469 0.17969,-0.17187 0.0625,-0.3086 0.0742,-0.19921 0.11718,-0.21094 c 0,0 0.0156,-0.0781 0.15235,-0.17969 l 0.16015,-0.11719 c 0.0586,-0.0469 0.25782,-0.10937 0.25782,-0.10937 l 0.19531,-0.0352 0.21484,-0.0312 0.20703,0.0234 0.16016,0.0156 0.1875,0.0469 0.16406,0.0664 c 0.0274,0.008 0.14453,0.10156 0.14453,0.10156 l 0.22266,0.2539 c 0.0508,0.0625 0.10547,0.1875 0.10547,0.1875 l 0.0352,0.13282 0.0312,0.25781 v 0.13281 l -0.0312,0.17188 -0.043,0.15625 c -0.004,0.16015 0.043,0.20703 0.043,0.20703 l -0.14843,0.0351 -0.0547,0.14844 0.26172,0.25 0.40625,0.0195 0.71094,0.49219 0.33593,-0.0703 0.19141,-0.3125 0.52734,-0.125 0.69141,0.3125 0.71484,0.72656 0.59766,1.15234 0.19531,0.56641 -0.17187,0.23828 -0.26563,0.22266 -0.15234,0.0703 0.0508,0.28125 0.52344,0.19531 0.60156,0.98828 0.10937,1.08594 -0.17187,0.22266 -0.0469,0.57812 -0.15625,0.31641 -0.63671,0.0625 h -0.14844 l -0.1211,1.38281 0.1875,0.22656 0.71094,-0.004 0.20313,0.17187 0.50781,-0.125 0.43359,-0.30859 0.50391,0.0273 0.21875,0.53125 -0.0781,0.125 0.0508,0.32032 0.30859,0.53125 0.082,0.52734 -0.0586,0.44531 -0.54297,-0.008 -0.35156,-0.39844 0.008,-0.52734 -0.0312,-0.12891 -0.69531,0.043 -0.31641,-0.0625 -0.21484,0.27734 -0.42969,0.17969 -1.13281,0.54297 -0.58594,0.0469 -0.3086,-0.4375 -0.38281,-1.71094 -0.42969,-1.14844 -1.21484,-0.13281 -1.04297,-0.39453 0.1211,0.5625 -0.11719,0.375 0.25781,1.29687 0.0508,1.27344 0.0195,0.14844 -0.75,-0.0312 -0.0156,-0.13282 -0.28125,0.0156 -0.2461,0.18359 -1.14453,-0.0586 -0.125,-0.30078 0.13282,-0.14844 0.67968,-0.0625 0.53125,-0.55078 0.0156,-0.84375 -0.23438,-0.51172 -0.44922,-0.17578 -0.36328,-0.49219 -0.11718,-0.84765 -0.0742,-1.10547 0.49609,-0.4961 2.37891,-0.0508 -0.3086,-0.5039 -0.42578,-0.10938 -0.52734,-0.15234 -0.54297,-0.26172 -0.42969,-0.20313 -0.25,-0.11718 -0.082,-0.33594 -0.25,-0.11719 h -0.20703 l -0.21484,0.0117 -0.26172,0.0312 -0.16407,-0.0898 -0.20703,-0.15235 -0.19531,-0.16797 -0.20703,-0.0351 -0.23438,-0.043 -0.13281,-0.043 -0.23437,-0.0781 0.40234,-0.0976 0.29688,-0.0508 0.27734,-0.0274 0.20312,-0.0664 0.51954,0.0391 0.17968,0.0742 0.31641,0.0898 0.32422,0.0859 1.375,0.0742 -0.0898,-0.14453 -0.16796,-0.21875 -0.20704,-0.375 -0.0273,-0.29688 -0.0117,-0.36719 0.0664,-0.42187 0.082,-0.33594 -0.0273,-0.14453 h -0.20704 l -0.13281,0.0547 -0.16015,-0.008 -0.17579,-0.0937 -0.0859,-0.35547 -0.043,-0.14063 -0.15235,-0.0859 0.15235,-0.52343 -0.60156,-0.1211 z m 0,0"
         id="path18646-0" />
      <path
         style="fill:#000000;fill-opacity:1;fill-rule:nonzero;stroke:none"
         d="m 519.93359,494.29687 -0.21093,-0.30859 -1.13672,-0.0742 0.59375,0.28906 0.43359,0.0547 z m 0.33594,0.5625 -0.10156,-0.21875 z m -2.55078,-4.72265 0.1875,-0.0469 0.17969,-0.17187 0.0625,-0.3086 0.0742,-0.19921 0.11718,-0.21094 c 0,0 0.0156,-0.0781 0.15235,-0.17969 l 0.16015,-0.11719 c 0.0586,-0.0469 0.25782,-0.10937 0.25782,-0.10937 l 0.19531,-0.0352 0.21484,-0.0312 0.20703,0.0234 0.16016,0.0156 0.1875,0.0469 0.16406,0.0664 c 0.0274,0.008 0.14453,0.10156 0.14453,0.10156 l 0.22266,0.2539 c 0.0508,0.0625 0.10547,0.1875 0.10547,0.1875 l 0.0352,0.13282 0.0312,0.25781 v 0.13281 l -0.0312,0.17188 -0.043,0.15625 c -0.004,0.16015 0.043,0.20703 0.043,0.20703 l -0.14843,0.0351 -0.0547,0.14844 0.26172,0.25 0.40625,0.0195 0.71094,0.49219 0.33593,-0.0703 0.19141,-0.3125 0.52734,-0.125 0.69141,0.3125 0.71484,0.72656 0.59766,1.15234 0.19531,0.56641 -0.17187,0.23828 -0.26563,0.22266 -0.15234,0.0703 0.0508,0.28125 0.52344,0.19531 0.60156,0.98828 0.10937,1.08594 -0.17187,0.22266 -0.0469,0.57812 -0.15625,0.31641 -0.63671,0.0625 h -0.14844 l -0.1211,1.38281 0.1875,0.22656 0.71094,-0.004 0.20313,0.17187 0.50781,-0.125 0.43359,-0.30859 0.50391,0.0273 0.21875,0.53125 -0.0781,0.125 0.0508,0.32032 0.30859,0.53125 0.082,0.52734 -0.0586,0.44531 -0.54297,-0.008 -0.35156,-0.39844 0.008,-0.52734 -0.0312,-0.12891 -0.69531,0.043 -0.31641,-0.0625 -0.21484,0.27734 -0.42969,0.17969 -1.13281,0.54297 -0.58594,0.0469 -0.3086,-0.4375 -0.38281,-1.71094 -0.42969,-1.14844 -1.21484,-0.13281 -1.04297,-0.39453 0.1211,0.5625 -0.11719,0.375 0.25781,1.29687 0.0508,1.27344 0.0195,0.14844 -0.75,-0.0312 -0.0156,-0.13282 -0.28125,0.0156 -0.2461,0.18359 -1.14453,-0.0586 -0.125,-0.30078 0.13282,-0.14844 0.67968,-0.0625 0.53125,-0.55078 0.0156,-0.84375 -0.23438,-0.51172 -0.44922,-0.17578 -0.36328,-0.49219 -0.11718,-0.84765 -0.0742,-1.10547 0.49609,-0.4961 2.37891,-0.0508 -0.3086,-0.5039 -0.42578,-0.10938 -0.52734,-0.15234 -0.54297,-0.26172 -0.42969,-0.20313 -0.25,-0.11718 -0.082,-0.33594 -0.25,-0.11719 h -0.20703 l -0.21484,0.0117 -0.26172,0.0312 -0.16407,-0.0898 -0.20703,-0.15235 -0.19531,-0.16797 -0.20703,-0.0351 -0.23438,-0.043 -0.13281,-0.043 -0.23437,-0.0781 0.40234,-0.0976 0.29688,-0.0508 0.27734,-0.0274 0.20312,-0.0664 0.51954,0.0391 0.17968,0.0742 0.31641,0.0898 0.32422,0.0859 1.375,0.0742 -0.0898,-0.14453 -0.16796,-0.21875 -0.20704,-0.375 -0.0273,-0.29688 -0.0117,-0.36719 0.0664,-0.42187 0.082,-0.33594 -0.0273,-0.14453 h -0.20704 l -0.13281,0.0547 -0.16015,-0.008 -0.17579,-0.0937 -0.0859,-0.35547 -0.043,-0.14063 -0.15235,-0.0859 0.15235,-0.52343 -0.60156,-0.1211 z m 0,0"
         id="path18648-0" />
      <path
         style="fill:#000000;fill-opacity:1;fill-rule:nonzero;stroke:none"
         d="m 496.66406,499.14453 4.07422,0.60156 0.0273,-0.21484 -4.0664,-0.64453 z m -16.18359,-4.9375 1.48828,1.84375 2.06641,-0.38281 c -0.0625,-0.12891 -1.04297,-1.26953 -1.07422,-1.46094 z m 5.79297,1.04297 -2.98047,-1.04297 c 0.0312,0.16797 0.9414,1.29688 1,1.41406 z m 0.63672,-1.44922 c -0.004,-0.0742 -0.008,-0.14844 -0.0195,-0.21875 h -1.39843 v 0.21875 z m -6.42969,0.35938 1.63281,-0.15235 v -0.38672 h -1.63281 z m 6.89844,2.03125 0.1875,0.67578 -2.51954,0.5625 3.37891,0.5 0.125,-0.78125 -0.29297,-0.0469 0.0312,-0.19531 0.28906,0.0469 0.0195,-0.10546 0.21093,0.0351 -0.0195,0.10156 0.30078,0.0469 -0.0312,0.19922 -0.30078,-0.0469 -0.12109,0.77735 7.71094,1.13672 0.0351,-0.26172 -0.33984,-0.0508 0.043,-0.26172 0.33593,0.0508 0.0156,-0.12891 0.32031,0.0469 -0.0234,0.13281 4.07032,0.64453 0.0195,-0.14062 0.3164,0.043 -0.0195,0.14844 0.34375,0.0547 -0.043,0.26172 -0.33984,-0.0547 -0.0273,0.21094 2.8125,0.41406 -0.14453,-0.0352 0.10546,-0.6289 1.46094,0.26562 0.10156,-0.64062 0.25391,0.0391 -0.10156,0.64844 0.23437,0.0391 -0.0859,0.58203 0.39062,0.0586 0.16016,-0.98829 0.4414,0.0899 -0.0547,0.25 -0.17579,-0.0352 -0.11718,0.71875 0.875,0.12891 0.33984,-0.25391 0.79688,-0.1289 1.75,-2.14844 h -0.83204 v -0.27735 h 2.66797 v 0.27735 h -1.61718 l -1.71875,2.10937 0.42187,-0.0664 -1.38281,1.78515 v 1.34375 h -1.49219 v -0.68359 l -2.08594,-1.16797 -23.64453,-2.79297 c -0.6875,1.89063 -2.5,3.23828 -4.6289,3.23828 -2.72266,0 -4.92579,-2.20312 -4.92579,-4.92578 0,-0.79687 0.1875,-1.54687 0.52344,-2.21484 l 0.14453,-1.08594 -12.12109,-0.0859 v 0.33985 h -0.36719 v -2.09375 h 0.33985 v 0.32422 h 2.04296 v -0.59766 h -0.73046 l -0.34375,-0.33984 h -17.20313 v -1.59375 h 16.37109 l -0.33984,-0.33985 v -1.41797 h 12.71094 l 1.19531,-2.21875 h 0.41016 l -0.81641,1.56641 v 0.65234 h 1.90625 l 0.81641,-0.8164 h 0.72265 v 0.70703 h 0.41016 v 1.28125 h -0.32813 v 0.47656 h 2.96875 v -0.33984 h 0.20313 v 0.33984 h 0.34375 l 0.32422,-0.53125 h 3.01172 l 0.41015,-0.41016 h 0.13282 v -1.42968 h 0.30078 v 1.42968 h 2.49218 v -0.46093 h 0.38282 v 0.46093 h 0.3789 l 0.50391,0.50391 v 2.83594 l -0.64453,0.32422 h 5.15625 l 0.21875,0.24609 v 0.87109 l -0.21875,0.19141 h -1.19531 l 0.008,2.19922 h -0.79688 v -0.11719 z m -0.16016,-2.60938 c 0.008,0.0703 0.0117,0.14453 0.0195,0.21875 h 0.46094 v 0.40625 H 487.207 c -0.0156,0.0937 -0.0117,1.18359 -0.0312,1.25391 l 0.10938,0.39843 2.89843,-0.54296 0.0156,-1.73438 z m 0,0"
         id="path18650-9" />
    </g>
  </g>
</svg>
