<?xml version="1.0" encoding="UTF-8" standalone="no"?>
<!-- Created with Inkscape (http://www.inkscape.org/) -->

<svg
   width="16.35092mm"
   height="12.47891mm"
   viewBox="0 0 16.35092 12.47891"
   version="1.1"
   id="svg13154"
   sodipodi:docname="inkporter-svg-4zg4vxuo.svg"
   xmlns:inkscape="http://www.inkscape.org/namespaces/inkscape"
   xmlns:sodipodi="http://sodipodi.sourceforge.net/DTD/sodipodi-0.dtd"
   xmlns="http://www.w3.org/2000/svg"
   xmlns:svg="http://www.w3.org/2000/svg">
  <sodipodi:namedview
     id="namedview13156"
     pagecolor="#ffffff"
     bordercolor="#666666"
     borderopacity="1.0"
     inkscape:pageshadow="2"
     inkscape:pageopacity="0.0"
     inkscape:pagecheckerboard="0"
     inkscape:document-units="mm"
     showgrid="false"
     inkscape:zoom="1.2810466"
     inkscape:cx="329.80846"
     inkscape:cy="654.54295"
     inkscape:window-width="1920"
     inkscape:window-height="1017"
     inkscape:window-x="-8"
     inkscape:window-y="-8"
     inkscape:window-maximized="1"
     inkscape:current-layer="layer1" />
  <defs
     id="defs13151" />
  <g
     inkscape:label="Layer 1"
     inkscape:groupmode="layer"
     id="layer1"
     transform="translate(-71.13469,-181.70908)">
    <path
       d="m 73.38904,194.17123 c -0.0146,-0.01 -0.0905,-0.0385 -0.16865,-0.0645 -0.15732,-0.0524 -0.1743,-0.0632 -0.54141,-0.34429 -0.14157,-0.10841 -0.44113,-0.33597 -0.66568,-0.50569 -0.39745,-0.30041 -0.46339,-0.3572 -0.6077,-0.5234 -0.14724,-0.16958 -0.27104,-0.47214 -0.27091,-0.66212 3.3e-4,-0.49563 0.21141,-0.83162 0.64407,-1.0252 l 0.16354,-0.0732 0.25739,-0.0188 0.25739,-0.0188 0.11539,-0.0771 c 0.19366,-0.12943 0.18492,-0.11842 0.1629,-0.20518 -0.0339,-0.13337 0.0538,-0.1985 0.17437,-0.12957 0.069,0.0394 0.071,0.036 0.071,-0.12426 v -0.15089 l 0.22633,-5.3e-4 c 0.24792,-5.8e-4 0.28846,-0.0139 0.28846,-0.0946 v -0.0469 h -0.22189 -0.22189 v -0.071 -0.071 h 0.22261 c 0.20052,0 0.22778,-0.004 0.27467,-0.0385 0.0427,-0.0315 0.0855,-0.0404 0.23709,-0.0488 0.22878,-0.0128 0.26486,-0.0346 0.23593,-0.14305 -0.0379,-0.14205 0.0436,-0.20237 0.17723,-0.13127 0.045,0.0239 0.0839,0.0412 0.0864,0.0384 0.003,-0.003 0.0296,-0.15691 0.0601,-0.34241 0.0306,-0.1855 0.0597,-0.35736 0.0647,-0.3819 l 0.009,-0.0446 0.55722,-0.088 0.55725,-0.088 0.01,-0.0486 c 0.0155,-0.0774 0.0802,-0.0972 0.3615,-0.11005 0.21208,-0.01 0.25296,-0.007 0.25296,0.0136 0,0.02 0.0218,0.0232 0.10546,0.0156 0.087,-0.008 0.1167,-0.003 0.16965,0.0283 0.0353,0.0208 0.0888,0.0379 0.11892,0.0379 0.0301,0 0.0636,0.0116 0.0744,0.0259 0.0452,0.0594 0.15934,0.015 0.2115,-0.0822 0.0259,-0.0484 0.0609,-0.11121 0.0777,-0.13959 0.0286,-0.0485 0.0286,-0.0554 4.8e-4,-0.11423 -0.0316,-0.0664 -0.0687,-0.0861 -0.0537,-0.0284 0.008,0.0316 -0.10598,0.12704 -0.14948,0.12489 -0.0293,-0.002 -0.10724,-0.13919 -0.12824,-0.22669 l -0.0221,-0.0922 h -0.29112 -0.29112 v 0.0627 0.0627 l -0.18196,-0.005 -0.18195,-0.005 -0.005,-0.0644 -0.005,-0.0644 -1.53011,-0.0133 c -0.84155,-0.007 -1.71383,-0.0183 -1.93838,-0.0243 l -0.40828,-0.011 v -0.12427 -0.12426 l 1.93821,-0.005 1.93821,-0.005 0.005,-0.0576 c 0.004,-0.0465 0.0142,-0.0586 0.05,-0.0628 0.0405,-0.005 0.23285,-0.36912 0.34501,-0.65352 0.011,-0.0281 0.031,-0.0424 0.0587,-0.0424 0.0341,0 0.0504,-0.0193 0.087,-0.10207 0.0756,-0.1713 0.62701,-1.3886 0.69746,-1.53993 0.15882,-0.34117 0.67635,-1.50151 0.71651,-1.60649 l 0.0441,-0.11538 -1.01441,-0.0555 c -0.55792,-0.0305 -1.11707,-0.0615 -1.24255,-0.0688 l -0.22814,-0.0133 0.0116,-0.31285 c 0.0149,-0.39821 0.0171,-0.41035 0.0777,-0.41096 0.0261,-2.6e-4 0.58478,0.0289 1.24155,0.0647 0.65677,0.0359 1.19912,0.0602 1.20521,0.0541 0.006,-0.006 0.0149,-0.0503 0.0195,-0.0982 l 0.009,-0.0871 -0.13965,-0.0111 c -0.0768,-0.006 -0.43918,-0.0272 -0.8053,-0.0468 -1.22399,-0.0656 -1.54754,-0.0854 -1.55728,-0.0951 -0.0126,-0.0125 0.0202,-0.73407 0.0341,-0.74779 0.006,-0.006 0.56846,0.0208 1.25055,0.0589 0.68211,0.0381 1.24242,0.0676 1.24518,0.0655 0.003,-0.002 0.01,-0.0448 0.0159,-0.095 l 0.0108,-0.0912 h 0.0862 0.0862 v 0.0965 0.0966 l 0.0755,0.009 c 0.0415,0.005 0.68654,0.0416 1.43343,0.0808 0.74688,0.0393 1.39591,0.0751 1.44229,0.0796 l 0.0843,0.008 v -0.0968 -0.0968 h 0.10011 0.10012 l -0.01,0.0963 -0.01,0.0963 0.0651,0.01 c 0.0358,0.005 0.1909,0.0148 0.34459,0.0212 l 0.27944,0.0117 0.0338,-0.0417 c 0.031,-0.0383 0.0497,-0.0423 0.2267,-0.0483 0.39937,-0.0137 0.49723,0.0831 0.30045,0.29718 -0.0844,0.0918 -0.0976,0.11637 -0.10825,0.20155 l -0.0121,0.097 0.0664,0.0868 c 0.12633,0.16491 0.13942,0.26778 0.0393,0.30804 -0.0312,0.0125 -0.0332,0.0164 -0.009,0.0172 0.0993,0.004 0.0786,0.14874 -0.0391,0.27377 -0.11235,0.11942 -0.13047,0.20407 -0.0644,0.30045 0.0249,0.0363 0.0652,0.095 0.0897,0.13056 0.126,0.18344 -0.01,0.26597 -0.34734,0.21121 -0.0922,-0.0149 -0.17305,-0.0272 -0.17987,-0.0272 -0.007,-3e-5 -0.0348,-0.0232 -0.0621,-0.0515 l -0.0497,-0.0515 -0.32839,-0.0183 c -0.26959,-0.015 -0.33078,-0.014 -0.34166,0.005 -0.0165,0.0295 -0.1524,0.0148 -0.18744,-0.0202 -0.0159,-0.0158 -0.0707,-0.0237 -0.16448,-0.0237 h -0.14073 v 0.0435 c 0,0.0681 -0.0377,0.13382 -0.0832,0.14526 l -0.0416,0.0104 0.005,0.55274 0.005,0.55274 0.0976,0.009 0.0976,0.009 0.01,0.21302 c 0.009,0.19485 0.0142,0.22285 0.0668,0.3284 0.0505,0.1016 0.0572,0.13128 0.055,0.24851 -0.003,0.161 0.0301,0.41509 0.0635,0.48816 0.0134,0.0293 0.0291,0.0752 0.035,0.10208 l 0.0108,0.0488 h 0.24697 0.24698 l 0.0355,0.0499 c 0.0196,0.0274 0.0409,0.0715 0.0475,0.0978 0.008,0.0325 0.0271,0.0512 0.0589,0.0583 0.0978,0.0217 0.1207,0.0309 0.22252,0.0901 0.18274,0.10627 0.24928,0.0715 0.29483,-0.15407 0.0103,-0.0509 0.15392,-0.0787 0.16602,-0.0321 0.008,0.0297 0.037,0.11276 0.0675,0.19125 0.0132,0.0339 0.0371,0.075 0.0532,0.0915 0.0358,0.0365 0.0416,0.10208 0.0775,0.87413 0.0205,0.44025 0.0222,0.58943 0.007,0.60798 -0.0155,0.0187 -0.0765,0.0246 -0.25318,0.0246 -0.27055,0 -0.38721,0.0397 -0.45513,0.15477 -0.0548,0.0929 -0.0529,0.0937 0.20014,0.0937 0.25446,0 0.30041,0.0136 0.33279,0.0988 l 0.016,0.0419 0.40473,-8.2e-4 c 0.32732,-6.8e-4 0.45704,0.007 0.67831,0.0386 0.21871,0.0315 0.28481,0.0353 0.32946,0.0192 0.0909,-0.0329 0.1581,-0.0249 0.20423,0.0242 0.0229,0.0244 0.0563,0.0444 0.074,0.0444 0.0262,0 0.0324,0.0142 0.0324,0.0744 0,0.0668 0.003,0.071 0.0239,0.0417 0.0289,-0.0396 0.16637,-0.0291 0.19874,0.0151 0.0164,0.0224 0.0241,0.0231 0.045,0.004 0.0386,-0.0357 0.17813,-0.0157 0.18932,0.0271 0.0112,0.0429 -0.026,0.0363 0.73056,0.12974 0.66937,0.0827 0.67634,0.083 0.67634,0.0277 0,-0.0486 0.0177,-0.0536 0.14848,-0.0414 l 0.11779,0.011 v 0.0581 c 0,0.0666 -0.006,0.0643 0.26375,0.0974 0.18315,0.0224 0.26134,0.002 0.29664,-0.0787 0.0273,-0.0623 0.12604,-0.0616 0.15349,10e-4 0.0454,0.10385 0.12324,0.18299 0.18109,0.18422 0.13723,0.003 0.33564,0.0438 0.33905,0.0699 0.002,0.0146 0.009,0.0705 0.0155,0.12426 0.007,0.0537 0.0232,0.16952 0.0371,0.25739 0.0342,0.21744 0.0958,0.66126 0.10193,0.7332 l 0.005,0.0587 -0.31952,0.003 -0.31952,0.004 -0.005,0.15452 -0.005,0.15451 0.0584,0.0301 c 0.077,0.0397 0.34926,0.28174 0.40024,0.35567 0.0779,0.11302 0.19955,0.48068 0.19955,0.60318 0,0.46587 -0.21661,0.85166 -0.60354,1.0749 -0.17584,0.10146 -0.22021,0.12323 -0.49968,0.24511 -0.15964,0.0696 -0.31422,0.1375 -0.34351,0.15083 -0.0292,0.0133 -0.25296,0.11193 -0.49704,0.21911 -0.24408,0.10718 -0.53565,0.23649 -0.64792,0.28736 -0.12141,0.055 -0.2788,0.10967 -0.3884,0.1349 l -0.18425,0.0424 -5.45178,-2.7e-4 c -3.48786,-2e-4 -5.46137,-0.007 -5.47842,-0.0175 z m 0.89638,-0.44379 0.0184,-0.0976 0.0557,-0.005 c 0.06,-0.006 0.0535,-0.0174 0.0871,0.15633 l 0.0103,0.0533 h 0.12083 0.12084 l 0.0153,-0.10207 0.0153,-0.10207 0.056,-0.005 c 0.0603,-0.006 0.0538,-0.0175 0.0873,0.15633 l 0.0103,0.0533 h 0.12176 0.12176 l 0.0113,-0.0843 c 0.0162,-0.12108 0.0203,-0.1287 0.0703,-0.1287 h 0.0451 l -0.0525,-0.0932 c -0.059,-0.10457 -0.10754,-0.27178 -0.10754,-0.37 0,-0.0847 -0.008,-0.0866 -0.37277,-0.0866 -0.38824,0 -0.36645,-0.009 -0.37659,0.14943 -0.0115,0.17885 -0.0866,0.33613 -0.22409,0.46885 -0.13023,0.12575 -0.12559,0.14774 0.0296,0.14087 l 0.11776,-0.005 z m 1.15999,0.0553 c -0.0444,-0.0282 -0.10099,-0.073 -0.12574,-0.0997 l -0.045,-0.0485 0.015,0.0775 c 0.008,0.0427 0.0153,0.0875 0.0158,0.0997 4.8e-4,0.0153 0.0349,0.0222 0.11075,0.0222 h 0.10998 z m 0.96773,0.0201 c 0.005,-0.0171 0.0141,-0.065 0.0205,-0.10651 l 0.0117,-0.0754 h 0.0586 0.0586 l 0.0153,0.10207 0.0153,0.10207 h 0.12426 0.12425 l 0.0153,-0.10207 0.0153,-0.10207 h 0.0581 0.0581 l 0.0153,0.10207 0.0153,0.10207 h 0.12353 0.12354 l 0.0119,-0.0582 c 0.0103,-0.0501 0.004,-0.0673 -0.0495,-0.12426 -0.16041,-0.17295 -0.22218,-0.46043 -0.14927,-0.6947 l 0.0337,-0.10809 h -0.29103 c -0.16007,0 -0.29104,0.003 -0.29104,0.007 0,0.004 0.0108,0.0376 0.024,0.0754 0.10758,0.30838 -0.0135,0.66012 -0.29148,0.84738 l -0.0959,0.0646 h 0.11838 c 0.0976,0 0.11993,-0.005 0.12716,-0.0311 z m 2.15282,-0.071 0.0153,-0.10207 0.0578,-0.006 c 0.064,-0.006 0.0669,-0.002 0.084,0.12539 l 0.0113,0.0843 h 0.12161 0.12162 l 0.0117,-0.0754 c 0.0209,-0.13402 0.0247,-0.1401 0.0861,-0.13414 l 0.0561,0.006 0.0153,0.10207 0.0153,0.10207 h 0.12226 c 0.0672,0 0.12223,-0.002 0.12223,-0.006 0,-0.003 0.008,-0.0502 0.0183,-0.1046 l 0.0183,-0.099 -0.0645,-0.12339 c -0.0472,-0.0905 -0.0695,-0.16162 -0.0833,-0.26689 -0.0229,-0.17422 0.004,-0.16327 -0.39138,-0.16359 -0.35494,-2.7e-4 -0.36718,0.004 -0.36718,0.12427 0,0.13699 -0.0634,0.3027 -0.1631,0.42646 -0.0743,0.0922 -0.086,0.11658 -0.0763,0.16052 l 0.0114,0.0518 h 0.12083 0.12083 z m 1.09328,0.0665 c -0.0718,-0.0438 -0.075,-0.0438 -0.075,7e-5 0,0.0292 0.0118,0.0355 0.0666,0.0354 l 0.0666,-7e-5 z m 1.05131,-0.0709 c 0.0175,-0.0915 0.0221,-0.098 0.0738,-0.10301 l 0.0552,-0.005 0.0213,0.10823 0.0213,0.10824 0.11846,-0.005 0.11844,-0.005 0.0184,-0.0976 0.0184,-0.0976 0.0558,-0.005 c 0.0599,-0.006 0.0535,-0.0174 0.0871,0.15633 l 0.0103,0.0533 h 0.11453 c 0.15793,0 0.1644,-0.0273 0.0371,-0.15677 -0.2056,-0.20904 -0.2752,-0.49953 -0.18259,-0.76203 l 0.0265,-0.0753 h -0.29132 -0.29133 l 0.0243,0.0689 c 0.1044,0.29589 0.005,0.62399 -0.25401,0.84072 -0.0794,0.0664 -0.0583,0.0871 0.0824,0.0808 l 0.11739,-0.005 z m 1.69613,0.0799 c 0,-0.0331 -0.0167,-0.033 -0.0611,5.3e-4 l -0.0345,0.0261 h 0.0478 c 0.0306,0 0.0478,-0.01 0.0478,-0.0266 z m 0.4335,-0.0266 c 0.006,-0.0293 0.015,-0.0772 0.0205,-0.10651 0.009,-0.0462 0.018,-0.0533 0.0681,-0.0533 h 0.0579 l 0.0162,0.10208 0.0162,0.10206 0.11838,0.005 c 0.13113,0.006 0.12566,0.0107 0.14815,-0.13391 l 0.0117,-0.0754 h 0.0586 0.0586 l 0.0153,0.10207 0.0153,0.10207 0.11377,0.005 c 0.17006,0.008 0.1947,-0.0703 0.0728,-0.23132 -0.0859,-0.11335 -0.14216,-0.27154 -0.14216,-0.39922 0,-0.12458 -0.0138,-0.12925 -0.38166,-0.12925 -0.36941,0 -0.38166,0.004 -0.38166,0.13208 0,0.1171 -0.0376,0.2375 -0.11019,0.3519 -0.0488,0.077 -0.0525,0.0933 -0.0414,0.18195 l 0.0122,0.0974 h 0.12157 0.12157 z m 2.00648,-0.14486 c 0.0249,-0.0113 0.0452,-0.0308 0.0452,-0.0433 0,-0.0452 -0.0306,-0.0401 -0.0686,0.0114 -0.0434,0.0586 -0.0412,0.0615 0.0235,0.032 z m 0.36575,-0.16632 c 0.0371,-0.0192 0.0512,-0.0374 0.0449,-0.0581 -0.0425,-0.14034 -0.0421,-0.17704 0.002,-0.19697 0.0621,-0.0283 0.0663,-0.0264 0.10882,0.0491 0.0608,0.1081 0.0724,0.11227 0.17243,0.0616 0.0487,-0.0246 0.0901,-0.0464 0.0922,-0.0484 0.002,-0.002 -0.008,-0.0471 -0.0217,-0.10013 -0.0274,-0.10392 -0.0234,-0.1159 0.0444,-0.13145 0.0384,-0.009 0.0515,0.002 0.0976,0.0779 l 0.0532,0.0881 0.1,-0.0453 0.1,-0.0453 -0.0256,-0.0984 c -0.0178,-0.0684 -0.02,-0.10407 -0.007,-0.11694 0.0129,-0.0129 -0.007,-0.0332 -0.0653,-0.0666 -0.0462,-0.0264 -0.1197,-0.0799 -0.16344,-0.11876 l -0.0796,-0.0707 -0.11232,0.0953 -0.11231,0.0953 h -0.26447 -0.26448 l 0.028,0.0754 c 0.0293,0.0793 0.041,0.30416 0.0205,0.39521 -0.01,0.0437 -8.8e-4,0.0688 0.0488,0.13717 0.066,0.0911 0.0694,0.0914 0.20399,0.0218 z M 72.8415,193.35027 c 0.0131,-0.0239 0.02,-0.0934 0.0174,-0.17308 -0.003,-0.0817 0.006,-0.1674 0.023,-0.22189 0.0151,-0.0488 0.0274,-0.0947 0.0276,-0.10207 1.3e-4,-0.007 -0.0997,-0.0133 -0.2217,-0.0133 -0.20548,0 -0.22189,0.002 -0.22189,0.0334 0,0.045 -0.0698,0.062 -0.10901,0.0264 -0.028,-0.0253 -0.0327,-0.0231 -0.0584,0.0264 -0.0365,0.0704 -0.0408,0.0609 0.0609,0.13395 0.10844,0.0779 0.0994,0.078 0.18066,-0.001 0.11955,-0.11675 0.19912,-0.0403 0.11229,0.10785 l -0.0443,0.0756 0.0399,0.0354 c 0.12778,0.11362 0.16381,0.12715 0.19349,0.0727 z m 13.45092,-0.3513 c 0.096,-0.0436 0.0946,-0.0449 -0.0661,-0.0592 l -0.13007,-0.0116 0.0381,0.0535 c 0.0447,0.0629 0.0552,0.064 0.15815,0.0173 z M 72.20689,192.7662 c -0.0148,-0.024 -0.031,-0.018 -0.0845,0.0317 -0.0387,0.036 -0.0449,0.0501 -0.0266,0.0614 0.0265,0.0164 0.12694,-0.0675 0.11118,-0.093 z m 4.36107,-5.01768 c 0.006,-0.007 0.0198,-0.0454 0.0315,-0.0862 0.041,-0.14452 0.29748,-0.41411 0.39388,-0.41411 0.0444,0 0.1236,0.0632 0.1236,0.0987 0,0.0118 -0.0341,0.0476 -0.0758,0.0796 -0.10964,0.0842 -0.19876,0.20135 -0.15958,0.20984 0.0165,0.004 0.0332,-0.004 0.0372,-0.0178 0.0358,-0.11836 0.29574,-0.27929 0.5187,-0.32129 0.088,-0.0166 0.10297,-0.026 0.13816,-0.0872 0.0844,-0.14666 0.45118,-0.38487 0.68029,-0.44181 0.0725,-0.018 0.088,-0.0307 0.12434,-0.10129 0.0228,-0.0444 0.0565,-0.0896 0.0748,-0.10035 0.0184,-0.0108 0.0519,-0.0376 0.0746,-0.0596 l 0.0412,-0.0399 h 0.27651 c 0.23396,0 0.27813,0.004 0.28712,0.0277 0.0113,0.0295 0.11029,-0.0678 0.1118,-0.10993 4.1e-4,-0.0111 0.0125,-0.0428 0.0268,-0.0704 0.0405,-0.0782 0.0403,-1.81152 -3.4e-4,-1.89706 -0.0447,-0.0943 -0.0286,-0.19447 0.0324,-0.20148 l 0.0492,-0.006 -0.0403,-0.0565 c -0.0364,-0.051 -0.0401,-0.0758 -0.0389,-0.25555 l 0.002,-0.19908 -0.0724,-0.009 c -0.0398,-0.005 -0.16824,-0.0135 -0.2854,-0.019 -0.36277,-0.0171 -0.84627,-0.0436 -0.97315,-0.0533 -0.1113,-0.009 -0.12027,-0.007 -0.11082,0.0231 0.0108,0.0343 -0.0657,0.24263 -0.10588,0.28774 -0.0132,0.0147 -0.0789,0.1465 -0.1464,0.2929 -0.0675,0.14639 -0.26065,0.56572 -0.42936,0.93184 -0.16871,0.36612 -0.3968,0.86138 -0.50689,1.10058 -0.11008,0.2392 -0.23692,0.51353 -0.28186,0.60962 -0.0857,0.18309 -0.093,0.20694 -0.064,0.20694 0.0392,0 -0.008,0.11573 -0.24066,0.59272 -0.0233,0.0478 -0.0393,0.0917 -0.0358,0.0976 0.009,0.0147 0.53112,0.003 0.5441,-0.0126 z m 4.03522,-1.55563 c -0.0176,-0.14374 -0.0345,-0.21698 -0.0529,-0.23036 -0.0147,-0.0108 -0.0432,-0.0833 -0.0631,-0.16116 -0.0596,-0.2326 -0.0677,-0.21775 -0.0682,0.12618 l -4.9e-4,0.32129 0.0504,0.0751 c 0.12636,0.18815 0.16851,0.14702 0.13423,-0.13101 z m -0.87694,-1.99785 c 0,-0.01 -0.004,-0.0177 -0.008,-0.0177 -0.005,0 -0.0128,0.008 -0.0188,0.0177 -0.006,0.01 -0.003,0.0177 0.008,0.0177 0.0104,0 0.0188,-0.008 0.0188,-0.0177 z m 2.08393,-1.14717 0.0584,-0.0466 -0.0578,-0.0578 -0.0578,-0.0578 -0.32191,-0.0131 c -0.17706,-0.007 -0.32442,-0.0101 -0.32751,-0.007 -0.003,0.004 -0.0109,0.0485 -0.0175,0.0997 l -0.0119,0.0932 0.0761,0.002 c 0.0419,0.001 0.16393,0.008 0.27132,0.0147 0.33818,0.0216 0.32528,0.0225 0.38868,-0.0281 z m -0.91234,-0.1025 v -0.0958 l -0.11983,-0.0104 c -0.0659,-0.006 -0.20368,-0.0148 -0.3062,-0.0203 -0.10252,-0.006 -0.68962,-0.0376 -1.30469,-0.0713 -0.61506,-0.0338 -1.16025,-0.0614 -1.21153,-0.0614 h -0.0932 v 0.0951 0.0951 l 0.15533,0.0112 c 0.0855,0.006 0.39497,0.024 0.68785,0.0397 0.29291,0.0157 0.84408,0.0467 1.22485,0.0689 0.38077,0.0222 0.75421,0.0414 0.82987,0.0427 l 0.13758,0.002 z"
       id="U-S-Calliope" />
  </g>
</svg>
