<?xml version="1.0" encoding="UTF-8" standalone="no"?>
<!-- Created with Inkscape (http://www.inkscape.org/) -->

<svg
   width="19.782301mm"
   height="7.4588699mm"
   viewBox="0 0 19.782301 7.4588699"
   version="1.1"
   id="svg4964"
   sodipodi:docname="inkporter-svg-jxlpd5_n.svg"
   xmlns:inkscape="http://www.inkscape.org/namespaces/inkscape"
   xmlns:sodipodi="http://sodipodi.sourceforge.net/DTD/sodipodi-0.dtd"
   xmlns="http://www.w3.org/2000/svg"
   xmlns:svg="http://www.w3.org/2000/svg">
  <sodipodi:namedview
     id="namedview4966"
     pagecolor="#ffffff"
     bordercolor="#666666"
     borderopacity="1.0"
     inkscape:pageshadow="2"
     inkscape:pageopacity="0.0"
     inkscape:pagecheckerboard="0"
     inkscape:document-units="mm"
     showgrid="false"
     inkscape:zoom="0.32026164"
     inkscape:cx="65.571386"
     inkscape:cy="847.74435"
     inkscape:window-width="1920"
     inkscape:window-height="1017"
     inkscape:window-x="-8"
     inkscape:window-y="-8"
     inkscape:window-maximized="1"
     inkscape:current-layer="layer1" />
  <defs
     id="defs4961" />
  <g
     inkscape:label="Layer 1"
     inkscape:groupmode="layer"
     id="layer1"
     transform="translate(-48.91755,-109.68965)">
    <path
       id="U-S-M15"
       d="m 60.94604,109.68983 c -0.0454,0 -0.17002,0.15621 -0.17002,0.21291 0,0.0185 -0.014,0.0336 -0.031,0.0336 -0.017,0 -0.0305,0.0221 -0.0305,0.0486 0,0.0415 -0.23222,0.45453 -0.31263,0.55602 -0.0195,0.0247 -0.24598,-0.0388 -0.786,-0.22066 -0.4173,-0.14044 -0.7779,-0.24826 -0.801,-0.23926 -0.0771,0.0296 -0.0435,0.0892 0.0734,0.13023 0.0635,0.0222 0.15745,0.058 0.20825,0.0796 0.0509,0.0216 0.1687,0.0671 0.26199,0.10129 0.0932,0.0342 0.31504,0.11718 0.493,0.18449 0.17796,0.0674 0.34904,0.1315 0.38034,0.14211 0.0542,0.0185 0.0542,0.0238 -0.008,0.12866 -0.0355,0.0602 -0.0646,0.13661 -0.0646,0.16952 0,0.0772 -0.0366,0.0754 -0.29509,-0.014 -0.30996,-0.10715 -0.31353,-0.1089 -0.33433,-0.1824 -0.0181,-0.0643 -0.0205,-0.0649 -0.062,-0.0109 -0.0401,0.0519 -0.0513,0.0524 -0.14623,0.009 -0.0564,-0.026 -0.18531,-0.0705 -0.28681,-0.0992 -0.10149,-0.0288 -0.20539,-0.0632 -0.23101,-0.0765 -0.0256,-0.0134 -0.15089,-0.0557 -0.27802,-0.0941 -0.12711,-0.0383 -0.24498,-0.0796 -0.26199,-0.0915 -0.017,-0.0119 -0.11883,-0.0461 -0.22635,-0.076 -0.1664,-0.0463 -0.19931,-0.0478 -0.2222,-0.0109 -0.0408,0.0659 0.0109,0.0962 0.4408,0.25786 0.21611,0.0813 0.39325,0.16386 0.39325,0.18347 0,0.0196 0.0863,0.0794 0.19224,0.13279 l 0.19275,0.0971 -0.8568,0.002 c -0.71125,0.002 -0.87204,-0.006 -0.94774,-0.0455 -0.0875,-0.0453 -0.0927,-0.0443 -0.12506,0.0269 -0.0428,0.094 -0.16465,0.11266 -0.74052,0.11266 -0.23492,0 -0.42685,0.0115 -0.42685,0.0258 0,0.0144 0.0276,0.0515 0.0615,0.0822 0.0566,0.051 0.0615,0.0946 0.0615,0.50797 v 0.45268 l -0.30903,0.0393 c -0.17013,0.0217 -0.36785,0.0377 -0.43924,0.0367 -0.0714,-0.002 -0.16483,0.01 -0.20724,0.0258 -0.0985,0.0368 -1.1729,0.16367 -1.35599,0.15968 -0.0762,-0.001 -0.16608,0.009 -0.19998,0.0238 -0.0339,0.0149 -0.33197,0.0571 -0.66249,0.0935 -0.33051,0.0364 -0.64971,0.0761 -0.709,0.0879 -0.0593,0.0119 -0.20132,0.0169 -0.31575,0.0119 -0.15732,-0.007 -0.20826,-0.0198 -0.20826,-0.0537 0,-0.0291 -0.0321,-0.0449 -0.0925,-0.0449 -0.0856,0 -0.0931,0.009 -0.0961,0.11575 -0.002,0.0635 -0.001,0.12663 5.3e-4,0.14004 0.002,0.0134 -0.0105,0.0514 -0.0284,0.0847 -0.0242,0.0457 -0.0523,0.056 -0.10853,0.0419 -0.087,-0.0219 -0.0988,0.009 -0.0243,0.0641 0.0469,0.0342 0.0446,0.0487 -0.0243,0.17312 -0.0638,0.11533 -0.0872,0.13356 -0.15864,0.12557 -0.0462,-0.006 -0.0842,0.005 -0.0842,0.0233 0,0.0183 0.0211,0.0331 0.0465,0.0331 0.0732,0 0.055,0.044 -0.0775,0.18862 -0.14425,0.15761 -0.16914,0.21786 -0.12453,0.30128 0.0405,0.0757 0.002,0.10419 -0.10491,0.0775 -0.0516,-0.0129 -0.0786,-0.007 -0.0786,0.0176 0,0.0205 0.0287,0.0447 0.0636,0.0538 0.0392,0.0103 0.0567,0.0335 0.046,0.0615 -0.009,0.0246 -0.0171,0.0572 -0.0171,0.0729 0,0.0499 -0.26876,0.0332 -0.28834,-0.0181 -0.01,-0.0255 -0.0532,-0.046 -0.0961,-0.046 -0.0429,0 -0.0775,-0.014 -0.0775,-0.031 0,-0.017 -0.0253,-0.0305 -0.0558,-0.0305 -0.0305,0 -0.0715,-0.0162 -0.091,-0.0357 -0.0453,-0.0453 0.006,-0.14936 0.0734,-0.14936 0.0735,0 0.0317,-0.0735 -0.06,-0.10594 -0.0672,-0.0237 -0.0954,-0.0162 -0.15761,0.0424 -0.0418,0.0392 -0.0847,0.11162 -0.0956,0.16123 -0.0193,0.0871 -0.0223,0.0887 -0.093,0.0424 -0.0709,-0.0465 -0.0766,-0.0438 -0.17466,0.0868 -0.0937,0.12539 -0.11131,0.1343 -0.23979,0.13332 -0.5149,-0.005 -0.71141,0.66532 -0.28009,0.956 0.12322,0.083 0.35889,0.0952 0.49403,0.0253 0.12433,-0.0643 0.24263,-0.21645 0.26615,-0.3416 0.0188,-0.10049 0.14422,-0.22945 0.22272,-0.22945 0.0408,0 0.073,0.0895 0.0475,0.13076 -0.012,0.0189 -0.005,0.0238 0.0155,0.0109 0.0195,-0.0117 0.0357,-0.008 0.0357,0.01 0,0.0583 0.15423,0.3827 0.17312,0.36381 0.0102,-0.0102 0.004,-0.0607 -0.0139,-0.11213 -0.0239,-0.0676 -0.0231,-0.099 0.002,-0.11473 0.0192,-0.012 0.04,-0.005 0.047,0.0145 0.007,0.02 0.0321,0.0367 0.0563,0.0367 0.0242,0 0.0688,0.0152 0.0992,0.0341 0.0508,0.0318 0.052,0.0498 0.0145,0.22376 -0.0519,0.2401 -0.0265,0.55303 0.0677,0.82835 0.38242,1.11832 1.79149,1.46873 2.65565,0.66043 0.21637,-0.20241 0.3258,-0.3715 0.44129,-0.68368 l 0.0796,-0.21601 0.79116,-0.008 c 0.68627,-0.007 0.78943,-0.0143 0.77412,-0.0543 -0.0103,-0.0253 -0.01,-0.0943 0.002,-0.15346 l 0.0207,-0.1075 h 0.70744 0.70694 v 0.0925 0.092 h 0.21395 c 0.21021,0 0.21423,-8.5e-4 0.22325,-0.0842 l 0.0103,-0.0847 0.60566,-0.0129 v 0.0739 h 0.17415 c 0.35279,0 0.37621,-0.032 0.37621,-0.032 l 0.0238,-0.0315 h 0.14263 l 0.10282,-0.0367 c 0.0823,-0.004 0.11253,-0.009 0.17002,-0.014 l 0.0388,0.20775 0.25633,0.30697 0.80357,0.49504 c 0,0 0.92723,0.58685 1.12292,0.63926 0.19431,0.051 3.98391,0.0718 4.17959,0.0305 0.19569,-0.0413 1.04024,-0.6177 1.27588,-0.79272 0.23704,-0.17502 0.72091,-0.51504 0.7829,-0.67903 0.0372,-0.0978 0.0707,-0.26614 0.0915,-0.38602 h 0.53561 v -0.38034 l 0.20153,0.20256 0.031,0.15555 0.12404,0.0775 h 0.14727 l 0.19844,-0.32661 0.007,-0.27955 -0.0155,-0.11989 -0.21344,-0.10078 -0.0925,0.03 -0.0703,-0.0455 -0.14727,0.10903 v -0.19068 h 0.01 c -0.004,-0.004 -0.007,-0.0125 -0.01,-0.0191 v -0.58756 h -0.0202 v -0.18809 h -0.55086 c -0.52242,0 -0.55242,-0.003 -0.56743,-0.0605 -0.0145,-0.0558 -0.0476,-0.0618 -0.40462,-0.0698 l -0.3886,-0.008 0.0785,-0.11523 c 0.0943,-0.13885 0.2196,-0.52512 0.17521,-0.54002 -0.0196,-0.007 -0.0183,-0.042 0.004,-0.1013 l 0.0346,-0.0909 h 0.43667 0.4372 l 0.0341,-0.0972 c 0.0186,-0.0534 0.0336,-0.12917 0.0336,-0.16846 0,-0.0704 0.16573,-0.40206 0.29043,-0.58137 0.083,-0.11938 0.26459,-0.534 0.26459,-0.60459 0,-0.0643 -0.0368,-0.0938 -0.0801,-0.0641 -0.0169,0.0116 -0.0845,0.14563 -0.14986,0.29816 -0.0654,0.15256 -0.18492,0.4095 -0.26565,0.57052 l -0.14673,0.29247 -0.37468,0.008 -0.37465,0.008 0.0196,-0.0703 c 0.0109,-0.0387 0.0427,-0.13594 0.0703,-0.21653 l 0.0501,-0.14677 h 0.3328 0.33279 v -0.90897 -0.909 l -1.00923,-0.004 c -0.55512,-0.002 -1.04039,-9.3e-4 -1.07849,0.002 -0.0503,0.004 -0.0692,-0.0113 -0.0692,-0.0548 0,-0.0331 -0.0251,-0.0664 -0.0558,-0.0744 -0.0413,-0.0108 -0.0553,0.002 -0.0543,0.0501 l 0.002,0.0651 -2.10322,0.008 -2.10323,0.008 v 0.37258 c 0,0.34309 -0.005,0.3714 -0.0543,0.35142 -0.0297,-0.012 -0.13706,-0.0498 -0.23876,-0.0837 -0.10168,-0.0338 -0.18984,-0.0664 -0.19585,-0.0724 -0.0157,-0.0151 0.18095,-0.33237 0.22326,-0.36017 0.0188,-0.0124 0.0248,-0.0225 0.0129,-0.0228 -0.0119,-2.1e-4 0.046,-0.11845 0.1292,-0.26249 0.0983,-0.17116 0.13641,-0.26202 0.1085,-0.26202 z m -0.57359,1.08625 c 0.009,0.005 0.14555,0.0552 0.30229,0.11266 0.24966,0.0914 0.28527,0.11345 0.28527,0.17724 0,0.04 -0.013,0.0729 -0.0289,0.0729 h -5.3e-4 c -0.0159,0 -0.0338,0.0467 -0.0388,0.10388 l -0.009,0.10384 -0.33123,-0.11057 c -0.26599,-0.0888 -0.33176,-0.12199 -0.33176,-0.16898 0,-0.0648 0.12522,-0.30393 0.15245,-0.29094 z m -1.25783,0.1788 c 0.0108,-6e-4 0.0665,0.0191 0.12351,0.0439 0.0572,0.0249 0.0828,0.0454 0.0574,0.0455 -0.0444,8e-5 -0.22095,-0.0874 -0.18087,-0.0894 z m 0.53901,0.23048 c 0.14134,-0.008 0.46763,0.12227 0.48006,0.2067 0.0112,0.0769 0.0863,0.11326 0.0863,0.0419 0,-0.0681 0.017,-0.0646 0.39944,0.0796 0.25741,0.0971 0.34057,0.14195 0.34057,0.18346 0,0.0301 -0.014,0.0629 -0.031,0.0734 -0.017,0.0105 -0.0305,0.0732 -0.0305,0.13901 0,0.0658 0.0135,0.12801 0.0305,0.13849 0.0185,0.0115 0.031,0.22068 0.031,0.524 0,0.30335 -0.0125,0.51261 -0.031,0.52401 -0.017,0.0105 -0.0305,0.0727 -0.0305,0.13848 0,0.0658 0.0135,0.12801 0.0305,0.13851 0.017,0.0104 0.031,0.0467 0.031,0.0801 0,0.0334 0.0207,0.0683 0.046,0.0786 0.0254,0.01 0.0465,0.0297 0.0465,0.0449 l 5e-4,5e-4 c 0,0.0152 -0.0552,0.0274 -0.12298,0.0274 h -0.1235 v -0.74879 c 0,-0.50999 -0.0112,-0.76002 -0.0346,-0.78344 -0.0189,-0.0189 -0.0502,-0.0668 -0.0698,-0.10644 -0.0295,-0.0594 -0.0639,-0.0731 -0.19688,-0.0811 -0.0886,-0.005 -0.16123,-0.0221 -0.16123,-0.0383 0,-0.0161 -0.0762,-0.0294 -0.16949,-0.0294 -0.0932,0 -0.1695,0.014 -0.1695,0.031 0,0.0173 -0.0864,0.0305 -0.19793,0.0305 -0.13901,0 -0.21249,0.0146 -0.24649,0.0486 -0.0444,0.044 -0.0486,0.0205 -0.0486,-0.25839 0,-0.28861 0.004,-0.3075 0.0667,-0.32401 0.0577,-0.0151 0.0613,-0.0243 0.0253,-0.0677 -0.0357,-0.0422 -0.0352,-0.0549 0.002,-0.0791 0.0112,-0.007 0.0273,-0.0113 0.0476,-0.0124 z m -2.64533,0.0439 -0.15039,0.31057 c -0.0826,0.17061 -0.17925,0.3769 -0.21444,0.4589 -0.0606,0.14083 -0.0715,0.15015 -0.20463,0.16846 l 10e-4,-0.001 c -0.0775,0.0103 -0.17396,0.0191 -0.21447,0.0191 h -0.0739 l 0.008,-0.46974 0.008,-0.47027 0.42014,-0.008 z m -5.79189,2.22055 c 0.009,0 -0.017,0.0351 -0.0569,0.0775 -0.0398,0.0424 -0.0798,0.077 -0.0878,0.077 -0.009,0 0.017,-0.0346 0.0569,-0.077 0.0398,-0.0424 0.0798,-0.0775 0.0878,-0.0775 z m -0.70178,1.14308 c 0.0322,-4e-4 0.0741,0.001 0.12766,0.004 l 0.19894,0.009 -0.0651,0.14107 -0.0651,0.14161 -0.13074,-0.0481 c -0.085,-0.031 -0.128,-0.0644 -0.123,-0.0951 0.004,-0.0261 -0.004,-0.0654 -0.0181,-0.0878 -0.0294,-0.0466 -0.021,-0.0634 0.0754,-0.0646 z m 10.33685,0.65317 0.50178,0.0692 h 1.29657 l 0.36792,0.6408 -0.15554,0.0661 c -0.0882,-0.0648 -0.19707,-0.10387 -0.3142,-0.10387 -0.23151,0 -0.42838,0.15057 -0.49868,0.35864 h -0.18757 c -0.0703,-0.20807 -0.2658,-0.35864 -0.49868,-0.35864 -0.29078,0 -0.52658,0.23601 -0.52658,0.52813 0,0.0992 0.0276,0.19296 0.076,0.27287 l -1.15653,-0.65061 c 0.0634,0.0137 0.12822,0.0207 0.19431,0.0207 0.47959,0 0.87093,-0.37343 0.90123,-0.84336 z m 4.86016,0.0222 h 0.0222 c 0.0248,0.39137 0.34883,0.70125 0.7457,0.70125 0.0951,0 0.18616,-0.0175 0.27027,-0.0506 l -1.09709,0.78806 c 0.0441,-0.0772 0.0687,-0.16674 0.0687,-0.26046 0,-0.29215 -0.23579,-0.5276 -0.52657,-0.5276 -0.24252,0 -0.44786,0.16536 -0.5085,0.38859 -0.062,0.003 -0.12677,0.004 -0.16537,0.004 -0.0592,-0.22601 -0.26424,-0.39275 -0.50951,-0.39275 -0.11438,0 -0.22222,0.0375 -0.30903,0.10231 l -0.10594,-0.0496 0.34986,-0.61597 0.0858,-0.0248 0.007,-0.0537 h 0.30747 l 0.24805,0.43151 v 0.20929 h 0.19431 v -0.34158 l 0.0935,0.2713 0.89143,-0.14729 z m -2.48254,0.81132 h 0.0853 l 0.046,0.21394 0.12764,0.0977 c -9.5e-4,0.0179 -5e-4,0.0354 -5e-4,0.0548 l -5.3e-4,5e-4 c 0,0.23014 0.14748,0.42699 0.2522,0.46149 0.10334,0.0361 -0.44908,0.0331 -0.44908,0.0331 l -0.55293,-0.003 c 0.19704,-0.0758 0.33899,-0.26736 0.33899,-0.49197 0,-0.0166 -10e-4,-0.0318 -10e-4,-0.0398 -10e-4,-0.007 0.0568,-0.0248 0.0568,-0.0248 0.0579,-0.0179 0.0811,-0.0728 0.0811,-0.0728 l 0.0232,-0.0538 z m -1.35599,0.50022 h 0.16693 c 0.0427,0.16261 0.16142,0.29495 0.31573,0.35554 l -0.78857,-0.004 c 0.14883,-0.062 0.26321,-0.19156 0.30591,-0.35142 z m 2.64843,5.3e-4 h 0.16537 c 0.0469,0.17777 0.18327,0.3181 0.35967,0.37052 l -0.86818,-0.004 c 0.16812,-0.0565 0.29763,-0.19277 0.34314,-0.36639 z" />
  </g>
</svg>
