<?xml version="1.0" encoding="UTF-8" standalone="no"?>
<!-- Created with Inkscape (http://www.inkscape.org/) -->

<svg
   width="22.80599mm"
   height="8.6995497mm"
   viewBox="0 0 22.80599 8.6995497"
   version="1.1"
   id="svg4964"
   sodipodi:docname="inkporter-svg-jxlpd5_n.svg"
   xmlns:inkscape="http://www.inkscape.org/namespaces/inkscape"
   xmlns:sodipodi="http://sodipodi.sourceforge.net/DTD/sodipodi-0.dtd"
   xmlns="http://www.w3.org/2000/svg"
   xmlns:svg="http://www.w3.org/2000/svg">
  <sodipodi:namedview
     id="namedview4966"
     pagecolor="#ffffff"
     bordercolor="#666666"
     borderopacity="1.0"
     inkscape:pageshadow="2"
     inkscape:pageopacity="0.0"
     inkscape:pagecheckerboard="0"
     inkscape:document-units="mm"
     showgrid="false"
     inkscape:zoom="0.32026164"
     inkscape:cx="65.571386"
     inkscape:cy="847.74435"
     inkscape:window-width="1920"
     inkscape:window-height="1017"
     inkscape:window-x="-8"
     inkscape:window-y="-8"
     inkscape:window-maximized="1"
     inkscape:current-layer="layer1" />
  <defs
     id="defs4961" />
  <g
     inkscape:label="Layer 1"
     inkscape:groupmode="layer"
     id="layer1"
     transform="translate(57.55278,-115.99016)">
    <path
       d="m -38.50642,120.42452 v 0.13229 l 0.14745,0.0207 z m -0.60633,-2.19109 h 0.43821 v -0.10748 h -0.43821 z m -5.3027,-1.64399 v -0.0207 h -0.10748 z m -0.14331,0.22461 -0.0441,0.0124 h 0.18741 v -0.16398 z m -9.19565,2.76848 0.19568,-0.0648 h 1.20303 l -0.0455,-0.0689 0.062,-0.12953 -0.0289,-0.0441 v -0.11989 l -1.54478,0.23289 z m -0.97841,0.31971 0.15434,-0.0496 -0.003,-0.0551 -0.15158,-0.051 z m -0.0717,-0.0124 v -0.12402 h -0.0634 v -0.0675 l -0.17914,-0.062 z m 19.62051,3.46577 -0.24115,-0.22462 -0.0951,-0.26045 -3.48919,-4.04868 h -0.0909 l 10e-4,0.0675 -0.051,0.11162 h 0.0565 l 0.0551,0.12126 v 1.10519 h 0.0455 v 0.18742 h 0.47818 l -0.51676,-0.53744 v -0.10334 l 0.7028,0.73725 0.27836,0.0854 v 0.0868 c 0,0 0.24804,0.0758 0.51676,0.32935 0.26872,0.25356 0.36105,0.74965 0.36105,0.74965 l 0.57878,0.34451 v 0.0923 h -1.36978 l 1.79283,0.98943 0.0868,-0.13091 0.30593,0.23289 -0.0868,0.17501 0.0978,0.0992 0.5209,-0.10335 -0.011,-0.091 z m -17.09456,1.10932 v -0.10749 c -0.20395,-0.16123 -0.33624,-0.41203 -0.33624,-0.69315 0,-0.04 0.004,-0.0785 0.008,-0.11713 h -1.0666 c 0.004,0.0386 0.007,0.0772 0.007,0.11713 0,0.35416 -0.20808,0.66008 -0.50987,0.80064 h 0.32383 v -0.22049 h 0.21636 v 0.22049 h 0.30868 v -0.22049 h 0.21635 v 0.22049 h 0.30868 v -0.22049 h 0.21497 v 0.22049 z m 1.07073,0 v -0.0882 c -0.0469,0.0345 -0.0965,0.0634 -0.14882,0.0882 z m 1.05007,0 v -0.0427 c -0.25769,-0.15434 -0.42995,-0.43684 -0.42995,-0.75792 0,-0.19568 0.0634,-0.37483 0.17088,-0.5209 h -0.59945 c 0.10749,0.14607 0.1695,0.32522 0.1695,0.5209 0,0.22186 -0.0813,0.42444 -0.21635,0.58015 h 0.0717 v 0.22049 h 0.30868 v -0.22049 h 0.21635 v 0.22049 z m 0.94947,0 v -0.0689 c -0.0386,0.0262 -0.0786,0.0496 -0.12127,0.0689 z m 1.78869,-0.0978 v 0.0978 h 0.16261 c -0.0579,-0.0262 -0.113,-0.0593 -0.16261,-0.0978 m -0.21635,-0.12265 h 0.0854 c -0.13505,-0.15571 -0.21773,-0.35829 -0.21773,-0.58015 0,-0.04 0.004,-0.0785 0.008,-0.11713 h -1.0666 c 0.004,0.0386 0.007,0.0772 0.007,0.11713 0,0.22186 -0.0813,0.42444 -0.21636,0.58015 h 0.0427 v 0.22049 h 0.30868 v -0.22049 h 0.21635 v 0.22049 h 0.30868 v -0.22049 h 0.21636 v 0.22049 h 0.3073 z m 2.35782,0.13781 v 0.0827 h 0.14194 c -0.0496,-0.0221 -0.0978,-0.051 -0.14194,-0.0827 m -0.21635,-0.13781 h 0.0648 c -0.13505,-0.15571 -0.21635,-0.35829 -0.21635,-0.58015 0,-0.17226 0.0482,-0.33349 0.13504,-0.46991 h -0.62425 c 0.0854,0.13642 0.13505,0.29765 0.13505,0.46991 0,0.27699 -0.12678,0.52503 -0.32659,0.68626 v 0.11438 h 0.30868 v -0.22049 h 0.21497 v 0.22049 h 0.30868 z m 2.60863,0 h 0.21635 v 0.22049 h 0.42995 c -0.30041,-0.14056 -0.50988,-0.44648 -0.50988,-0.80064 0,-0.04 0.003,-0.0785 0.008,-0.11713 h -1.14515 c 0.006,0.0386 0.007,0.0772 0.007,0.11713 0,0.29352 -0.14332,0.55397 -0.36381,0.7152 v 0.0854 h 0.30869 v -0.22049 h 0.21635 v 0.22049 h 0.30868 v -0.22049 h 0.21497 v 0.22049 h 0.30868 z m 2.77537,-0.91502 0.18328,-0.11437 0.12677,0.20533 c 0.11163,-0.073 0.21498,-0.14194 0.30455,-0.20533 l -0.11989,-0.0427 c -0.0427,0.007 -0.0868,0.01 -0.13091,0.01 -0.17501,0 -0.33762,-0.051 -0.47542,-0.13781 l -0.96325,0.0537 c 0.12678,0.15434 0.20395,0.3514 0.20395,0.56638 0,0.20257 -0.0689,0.38998 -0.18466,0.54019 0.0951,-0.0317 0.18603,-0.0813 0.28112,-0.13367 l -0.11576,-0.18604 0.18328,-0.11438 0.12127,0.19431 c 0.0882,-0.0496 0.17777,-0.10198 0.26734,-0.15434 l -0.12678,-0.20257 0.18328,-0.11438 0.12816,0.20533 c 0.0896,-0.0537 0.17777,-0.10887 0.2632,-0.16261 z m -16.29944,-0.04 0.0234,-0.0303 c -0.0221,0 -0.0427,-10e-4 -0.0648,-0.003 z m 1.04455,0.71658 -0.0303,0.04 0.0744,0.0524 c -0.0166,-0.0303 -0.0317,-0.0606 -0.0441,-0.0923 m -0.20671,-0.0854 0.14194,-0.18053 0.17225,0.12954 -0.17087,-0.1323 c -0.004,-0.022 -0.006,-0.0482 -0.006,-0.073 0,-0.18604 0.0579,-0.35829 0.15434,-0.50023 l -0.50987,-0.051 -0.0358,0.0193 c -0.0827,0.0496 -0.17501,0.0868 -0.27147,0.10749 l -0.14332,0.1819 c 0.0799,0.062 0.16123,0.1254 0.24529,0.18879 l 0.15297,-0.19706 0.17087,0.13367 -0.15021,0.19155 c 0.0827,0.062 0.16675,0.12402 0.24943,0.1819 m 16.33113,-0.61873 c -0.65457,0.49471 -2.19383,1.38768 -2.51216,1.38768 h -12.92048 c -0.33487,0 -2.0023,-1.29122 -2.40055,-1.66467 -0.28939,-0.21772 -0.47818,-0.56361 -0.47818,-0.9536 0,-0.45337 0.25218,-0.84749 0.62563,-1.04731 l -0.21084,-0.29214 c 0,0 0.0882,-0.1695 0.48645,-0.31557 0.39825,-0.14745 0.7276,-0.10887 0.7276,-0.10887 v -0.38447 h 0.34589 v -0.0455 h 0.22462 v 0.0455 h 0.45475 l -0.27147,-0.27285 10e-4,-0.062 c 0.003,-0.073 0.008,-0.18879 0.0179,-0.23978 0.0138,-0.0772 0.11989,-0.19844 0.11989,-0.19844 l 0.0675,0.0537 c 0,0 -0.0345,0.0386 -0.0772,0.13505 -0.0234,0.0496 -0.0289,0.12127 -0.0317,0.17915 l 0.21359,0.073 0.0634,-0.1943 v -0.01 h -0.0482 l -0.004,-0.18741 c 0,0 0.14332,0.0138 0.14332,0.0717 0,0.0579 -0.0524,0.0868 -0.0524,0.0868 v 0.0427 c 0.0138,0.003 0.0303,0.007 0.0427,0.0138 0.0345,0.0207 0.0813,0.0827 0.0813,0.14469 0,0.0372 -0.0124,0.0758 -0.0234,0.10198 l 0.0703,0.0248 -0.004,-0.0841 0.44097,-0.17777 -0.35829,0.0538 -0.0331,-0.21222 2.47496,-0.39825 h 0.0937 l 0.0634,-0.11575 0.54019,-0.0538 v -0.11989 h -1.39733 v -0.17639 h 2.24345 v -0.0772 h 0.2632 v 0.0772 h 0.23289 v -0.25218 h 2.3592 v 0.25218 h 0.14194 l 0.27836,-0.16398 v -0.24805 h 0.15985 l -0.14607,-0.0744 -2.26963,-0.0496 v 0.12264 h -0.71382 v -0.1378 l -2.06981,-0.0441 -0.90951,-0.12264 -4.30775,-0.0441 v -0.62287 h 4.29535 l 0.91502,-0.10198 h 5.04637 l 0.26183,-0.0882 h 1.91961 l -0.28112,-0.007 0.3073,-0.16399 -0.27837,-0.43132 0.0469,-0.0345 0.32246,0.4768 v 0.15985 h 0.16674 l 0.23427,-0.25769 h -0.23427 v 0.0331 h -0.12678 v -0.14056 l 0.12678,0.005 h 0.36518 v -0.31557 h 0.13092 v 0.0854 h 0.0427 v 0.13091 h -0.0427 v 0.0744 h 0.4327 v 0.0992 h -0.0248 v 0.12127 h -0.4079 v 0.16399 h 1.65916 l 0.2756,-0.0813 h 2.91318 l 0.0275,-0.0524 c 0,0 0.0276,-0.19706 0.15709,-0.19706 h 0.8158 c 0.1571,0 0.13643,0.1502 0.13643,0.1502 h 0.52365 l 0.12265,0.10474 h 0.0675 v -0.24116 h 0.0882 v 0.32384 h 0.062 v 0.47404 h 0.10611 v 0.27285 h -0.0482 v 0.18466 h 0.10472 v 0.0813 h -0.10472 v 0.0165 h -0.0579 v 0.0455 h -0.18328 v 0.0951 l -0.1571,0.12265 h -0.28939 v 0.10748 h 0.0965 v 0.0441 h 0.062 v 0.0234 h 0.12265 v 0.0648 h 0.0868 v 0.15159 h -0.0868 v 0.0648 h -0.12264 v 0.0248 h -0.062 v 0.0441 h -0.0965 v 0.0551 h -0.60909 v -0.0551 h -0.42995 l 10e-4,0.0524 0.10611,-0.005 3.54845,4.11758 0.20257,0.13505 0.20395,0.22461 0.011,0.15021 0.0193,-0.005 0.24392,-0.0496 0.0221,0.0896 -0.23703,0.0675 -1.12723,1.26228 h -0.24805 l -0.11162,-0.2825 -1.15893,-0.92604 -1.1355,-0.0152 z m -5.14008,-7.31187 v 0.0248 h 0.0937 v 0.0441 h 0.0854 v 0.091 h -0.24254 v -0.0606 h -0.0207 v -0.0992 z m 0,0"
       id="U-S-M12" />
  </g>
</svg>
