<?xml version="1.0" encoding="UTF-8" standalone="no"?>
<!-- Created with Inkscape (http://www.inkscape.org/) -->

<svg
   width="14.563269mm"
   height="4.1911201mm"
   viewBox="0 0 14.563269 4.1911201"
   version="1.1"
   id="svg5570"
   sodipodi:docname="inkporter-svg-u35bujyx.svg"
   xmlns:inkscape="http://www.inkscape.org/namespaces/inkscape"
   xmlns:sodipodi="http://sodipodi.sourceforge.net/DTD/sodipodi-0.dtd"
   xmlns="http://www.w3.org/2000/svg"
   xmlns:svg="http://www.w3.org/2000/svg">
  <sodipodi:namedview
     id="namedview5572"
     pagecolor="#ffffff"
     bordercolor="#666666"
     borderopacity="1.0"
     inkscape:pageshadow="2"
     inkscape:pageopacity="0.0"
     inkscape:pagecheckerboard="0"
     inkscape:document-units="mm"
     showgrid="false"
     inkscape:zoom="1.2810466"
     inkscape:cx="533.15782"
     inkscape:cy="1820.7769"
     inkscape:window-width="2400"
     inkscape:window-height="1271"
     inkscape:window-x="-9"
     inkscape:window-y="-9"
     inkscape:window-maximized="1"
     inkscape:current-layer="layer1"
     inkscape:snap-bbox="true"
     inkscape:snap-nodes="false"
     inkscape:snap-others="false"
     inkscape:bbox-paths="true"
     inkscape:bbox-nodes="true" />
  <defs
     id="defs5567" />
  <g
     inkscape:label="Layer 1"
     inkscape:groupmode="layer"
     id="layer1"
     transform="translate(-210.75014,-472.8599)">
    <path
       d="m 225.19611,476.39386 -0.0152,-0.0965 0.0234,-0.0386 -0.0661,-0.15848 c 0,0 -0.0965,-0.0248 -0.15158,-0.008 -0.0551,0.0152 -0.13092,0.0923 -0.13092,0.0923 l -0.15296,0.0372 -0.062,-0.051 -0.2136,0.001 -0.0565,-0.0689 0.0372,-0.41617 h 0.0441 c 0,0 0.15847,0.0221 0.19155,-0.0193 0.0344,-0.0413 0.0469,-0.0951 0.0469,-0.0951 l 0.0152,-0.17501 0.051,-0.0661 c 0,0 -0.0248,-0.28249 -0.0331,-0.32797 -0.008,-0.0455 -0.15021,-0.26734 -0.18052,-0.29628 -0.0317,-0.0289 -0.1571,-0.0593 -0.1571,-0.0593 l -0.0152,-0.0854 0.0455,-0.0207 c 0,0 0.0606,-0.0372 0.0841,-0.051 0.0248,-0.0138 0.0427,-0.0165 0.0469,-0.0882 0.005,-0.0717 -0.0579,-0.17088 -0.0579,-0.17088 0,0 -0.14607,-0.3073 -0.18052,-0.34726 -0.0331,-0.0386 -0.19568,-0.20671 -0.21635,-0.21773 -0.0207,-0.0124 -0.17639,-0.0882 -0.20671,-0.0937 -0.0317,-0.005 -0.1254,0.011 -0.15985,0.0358 -0.0331,0.0262 -0.0579,0.0951 -0.0579,0.0951 l -0.10197,0.0207 -0.2136,-0.14745 h -0.12954 l 0.008,-0.005 -0.0799,-0.0772 0.0165,-0.0427 0.0455,-0.0124 c 0,0 -0.0138,-0.0138 -0.0166,-0.0331 -0.003,-0.0193 0.001,-0.022 0.004,-0.0289 0.003,-0.005 0.0124,-0.0469 0.0124,-0.0469 l 0.008,-0.051 v -0.04 c 0,0 -0.001,-0.0276 -0.003,-0.0482 0,-0.0193 0,-0.0179 -0.006,-0.0303 -0.004,-0.0124 -0.011,-0.04 -0.011,-0.04 0,0 -0.0165,-0.0372 -0.0317,-0.0565 -0.0124,-0.0179 -0.0386,-0.0482 -0.0386,-0.0482 l -0.0289,-0.0276 c 0,0 -0.0345,-0.0276 -0.0441,-0.0317 -0.008,-0.003 -0.0482,-0.0193 -0.0482,-0.0193 l -0.0565,-0.0138 -0.0482,-0.006 -0.062,-0.005 -0.0648,0.008 -0.0593,0.011 c 0,0 -0.0593,0.0179 -0.0786,0.0331 -0.0179,0.0138 -0.007,0.004 -0.0469,0.0345 -0.0413,0.0317 -0.0469,0.0538 -0.0469,0.0538 l -0.0344,0.0634 -0.0221,0.0606 -0.0138,0.0648 -0.005,0.0289 -0.0193,0.0303 -0.0345,0.022 -0.0275,0.0124 c 0,0 -0.0248,10e-4 -0.0289,10e-4 -0.004,0 0.007,0.004 0.0193,0.004 l 0.18052,0.0358 -0.0634,0.15572 0.0179,0.003 0.0455,0.0262 0.0138,0.0413 0.0262,0.10749 0.0289,0.0248 0.0248,0.003 0.0482,0.004 0.0386,-0.0179 h 0.0634 l 0.0193,0.0331 -0.011,0.011 -0.0248,0.10197 -0.0207,0.12679 0.003,0.11024 0.008,0.0896 0.062,0.113 0.0524,0.0648 0.0303,0.051 0.0248,0.0482 0.18879,0.2756 -0.0786,0.091 0.15572,0.25494 c 0,0 -0.66835,0.007 -0.71658,0.0152 -0.0469,0.01 -0.15847,0.0537 -0.14883,0.15021 0.01,0.0965 0.022,0.33348 0.022,0.33348 l 0.0358,0.25494 0.11024,0.14745 0.13367,0.0537 0.0703,0.15297 0.0303,0.22737 -0.0331,0.0276 -0.16123,0.16537 -0.20395,0.0193 -0.04,0.0441 0.0372,0.0909 0.34451,0.0179 0.0744,-0.0551 0.0841,-0.004 0.005,0.04 0.226,0.01 -0.005,-0.0455 -0.0165,-0.38447 -0.0772,-0.38998 0.0358,-0.113 -0.0372,-0.1695 0.3142,0.11851 0.36655,0.04 0.12954,0.34588 0.11438,0.51539 0.0937,0.13229 0.17502,-0.0138 0.34175,-0.16399 0.13091,-0.0538 0.0634,-0.0841 0.0937,-0.0165 0.16812,-0.0193 0.0537,0.0813 c 0,0 0.007,0.10611 0.0165,0.15847 0.01,0.0537 0.0331,0.0937 0.0854,0.11989 0.0524,0.0262 0.1502,-0.0469 0.1502,-0.0469 0,0 0.0317,-0.0565 0.0331,-0.0854 0.001,-0.0289 -0.0179,-0.13367 -0.0248,-0.15848 -0.008,-0.0248 -0.0937,-0.15985 -0.0937,-0.15985 m -3.35139,0.40239 0.0193,-0.13505 -0.0262,-0.15847 -0.0923,-0.15985 -0.0152,-0.0965 0.0234,-0.0386 -0.0648,-0.15986 -0.15296,-0.008 -0.13092,0.0937 -0.15296,0.0372 -0.062,-0.0524 -0.21359,0.003 -0.0551,-0.0689 0.0344,-0.41755 0.0455,10e-4 0.19155,-0.0193 0.0469,-0.0951 0.0152,-0.17501 0.0524,-0.0661 -0.0345,-0.32798 -0.18052,-0.29765 -0.1571,-0.0579 -0.0152,-0.0854 0.0455,-0.0221 0.0799,-0.0661 0.0524,-0.073 -0.0593,-0.1695 -0.18053,-0.34726 -0.21635,-0.21911 -0.20671,-0.0937 -0.15847,0.0372 -0.0579,0.0951 -0.10197,0.0207 -0.21498,-0.14883 h -0.12953 l 0.008,-0.006 -0.0799,-0.0758 0.0179,-0.0441 0.0455,-0.011 c 0,0 -0.0152,-0.0138 -0.0179,-0.0331 -0.003,-0.0207 0.001,-0.0234 0.004,-0.0289 0.003,-0.005 0.0138,-0.0482 0.0138,-0.0482 l 0.007,-0.051 v -0.0386 c 0,0 -0.001,-0.0289 -0.003,-0.0482 -0.001,-0.0193 -0.001,-0.0179 -0.004,-0.0317 -0.005,-0.0124 -0.0124,-0.0386 -0.0124,-0.0386 0,0 -0.0165,-0.0386 -0.0317,-0.0565 -0.0138,-0.0179 -0.0386,-0.0482 -0.0386,-0.0482 l -0.0289,-0.0276 c 0,0 -0.0345,-0.0289 -0.0427,-0.0317 -0.008,-0.003 -0.0496,-0.0193 -0.0496,-0.0193 l -0.0565,-0.0138 -0.0482,-0.007 -0.062,-0.006 -0.0648,0.008 -0.0593,0.0124 c 0,0 -0.0593,0.0179 -0.0772,0.0317 -0.0193,0.0138 -0.008,0.004 -0.0482,0.0358 -0.0413,0.0303 -0.0469,0.0537 -0.0469,0.0537 l -0.0358,0.0634 -0.0207,0.0606 -0.0138,0.0648 -0.006,0.0276 -0.0207,0.0317 -0.033,0.0207 -0.0262,0.0124 c 0,0 -0.0262,0.001 -0.0303,0.001 -0.004,0 0.007,0.004 0.0193,0.004 l 0.18052,0.0372 -0.0648,0.15572 0.0193,0.003 0.0455,0.0248 0.0138,0.0427 0.0262,0.10748 0.0276,0.0248 0.0262,0.003 0.0482,0.003 0.04,-0.0165 h 0.0606 l 0.0207,0.0317 -0.011,0.0124 -0.0248,0.1006 -0.0207,0.12678 0.004,0.11024 0.008,0.091 0.062,0.113 0.0496,0.0648 0.0317,0.051 0.0262,0.0469 0.18878,0.27698 -0.0799,0.0896 0.15709,0.25631 -0.71795,0.0152 -0.14883,0.15021 0.0221,0.33211 0.0358,0.25493 0.11024,0.14883 0.13367,0.0537 0.0717,0.15296 0.0289,0.226 -0.0345,0.0276 -0.15985,0.16674 -0.20395,0.0193 -0.04,0.0441 0.0372,0.091 0.34451,0.0179 0.0744,-0.0551 0.0841,-0.004 0.005,0.0386 0.22462,0.01 -0.004,-0.0455 -0.0165,-0.38309 -0.0772,-0.39137 0.0358,-0.11162 -0.0372,-0.1695 0.31419,0.11714 0.36656,0.0413 0.12954,0.34589 0.11437,0.51538 0.0937,0.13091 0.17501,-0.0138 0.34176,-0.1626 0.13091,-0.0538 0.0634,-0.0841 0.0951,0.0179 0.20947,-0.0124 0.011,0.04 -0.003,0.1571 0.10473,0.12126 z m -3.17775,-0.0951 0.0386,-0.0634 v -0.15709 l -0.0262,-0.12678 -0.062,-0.0896 0.006,-0.10749 0.0317,-0.0248 v -0.17777 l -0.10197,-0.0124 -0.17639,0.0124 -0.16537,0.0317 -0.10748,0.0565 -0.12678,0.0455 -0.0565,-0.0579 -0.0634,0.0386 -0.10749,0.1006 -0.15296,0.10197 -0.20809,0.0827 -0.59531,-0.0317 -0.15296,-0.0772 -0.30317,-0.16398 -0.15847,-0.1323 -0.0124,-0.051 -0.0193,-0.12678 -0.15159,-0.14608 -0.19706,-0.0565 -0.16123,0.0496 -0.10748,0.1378 -0.21911,-0.0234 0.007,-0.1006 -0.0579,-0.0703 -0.23978,-0.0689 -0.32935,-0.0138 -0.22186,0.0193 -0.0441,0.0827 h -0.0951 l -0.0579,-0.051 0.0193,-0.0951 -0.0317,-0.1199 -0.0565,-0.12677 -0.12127,-0.0951 -0.15158,-0.0248 -0.16399,0.0248 -0.10886,0.0703 -0.0937,0.15158 -0.0441,0.0951 -0.0386,0.0882 -0.0262,0.0441 0.13367,0.0138 0.007,0.0689 0.0758,0.0124 -0.005,0.12677 0.0441,0.0317 0.0937,0.12678 0.0758,-0.0193 0.12126,0.0455 v 0.17087 l -0.0193,0.1447 -0.14608,0.12126 -0.10059,-0.0138 -0.10887,-0.0882 -0.0937,-0.19017 -0.0317,-0.11989 -0.051,-0.10198 -0.10748,-0.0317 -0.13229,0.007 -0.0262,-0.0441 -0.0124,-0.17087 -0.0951,0.0179 -0.007,0.0262 -0.23427,0.006 -0.0193,0.0317 h -0.79651 l -0.008,0.0951 -1.25953,-0.005 v 0.14607 l 1.25401,-0.007 v 0.21497 l -0.54432,0.61461 -0.0579,0.007 v 0.10059 l 0.0758,-0.0193 0.0138,-0.0441 0.50023,-0.54433 0.0703,-0.007 v 0.56361 l -0.0138,0.051 -0.0248,0.051 -0.0579,0.051 -0.0813,0.0496 0.062,0.0193 0.0772,-0.0372 0.0496,-0.0386 0.0455,-0.0565 0.0248,-0.0827 v -0.56362 h 0.0703 l 0.82958,0.62701 0.006,0.0689 h 0.12678 v -0.113 l -0.10748,-0.007 -0.72761,-0.55673 0.0179,-0.0262 1.09554,0.41204 0.0951,0.0441 0.13367,0.10749 0.0951,0.0386 0.15848,-0.0262 0.15847,-0.0565 0.16399,-0.1006 0.10197,0.0179 0.15848,0.0703 0.35415,0.0689 2.57142,0.007 0.10198,-0.0565 0.22048,-0.0951 0.17226,-0.0317 0.15158,-0.10197 0.0441,-0.0689 0.0262,-0.0896 0.0689,-0.0758 0.17776,0.0193 0.0951,0.0758 0.0565,0.11989 0.0193,0.17776 z m 0,0"
       id="U-S-LMG" />
  </g>
</svg>
