<?xml version="1.0" encoding="UTF-8" standalone="no"?>
<!-- Created with Inkscape (http://www.inkscape.org/) -->

<svg
   width="16.831188mm"
   height="9.3120956mm"
   viewBox="0 0 16.831188 9.3120956"
   version="1.1"
   id="svg5"
   sodipodi:docname="inkporter-svg-k37qmrfs.svg"
   xmlns:inkscape="http://www.inkscape.org/namespaces/inkscape"
   xmlns:sodipodi="http://sodipodi.sourceforge.net/DTD/sodipodi-0.dtd"
   xmlns="http://www.w3.org/2000/svg"
   xmlns:svg="http://www.w3.org/2000/svg">
  <sodipodi:namedview
     id="namedview7"
     pagecolor="#ffffff"
     bordercolor="#666666"
     borderopacity="1.0"
     inkscape:pageshadow="2"
     inkscape:pageopacity="0.0"
     inkscape:pagecheckerboard="0"
     inkscape:document-units="mm"
     showgrid="false"
     inkscape:zoom="0.90583672"
     inkscape:cx="211.95873"
     inkscape:cy="309.65846"
     inkscape:window-width="1920"
     inkscape:window-height="1017"
     inkscape:window-x="-8"
     inkscape:window-y="-8"
     inkscape:window-maximized="1"
     inkscape:current-layer="layer1" />
  <defs
     id="defs2" />
  <g
     inkscape:label="Layer 1"
     inkscape:groupmode="layer"
     id="layer1"
     transform="translate(-80.08683,-10.824575)">
    <path
       d="m 82.436,20.08387 c -0.0158,-0.0412 -0.0321,-0.0436 -0.0828,-0.0121 -0.0897,0.056 -0.23727,0.009 -0.28214,-0.0891 -0.0282,-0.062 -0.0487,-0.0741 -0.0808,-0.0475 -0.0507,0.042 -0.24227,-0.0439 -0.27231,-0.12216 -0.0107,-0.0268 -0.0463,-0.0489 -0.08,-0.0489 -0.086,0 -0.26883,-0.16189 -0.26883,-0.23806 0,-0.0427 -0.0167,-0.057 -0.051,-0.0439 -0.0634,0.0244 -0.28637,-0.14114 -0.28637,-0.21251 0,-0.0324 -0.0189,-0.0451 -0.0497,-0.0334 -0.0659,0.0252 -0.25389,-0.13549 -0.25389,-0.21723 0,-0.0397 -0.0235,-0.0644 -0.0612,-0.0644 -0.0846,0 -0.24243,-0.17289 -0.24243,-0.26554 0,-0.0611 -0.0136,-0.072 -0.0675,-0.0549 -0.0479,0.0152 -0.0732,0.003 -0.0869,-0.0399 -0.0107,-0.0337 -0.0413,-0.11235 -0.0685,-0.17456 -0.0377,-0.0864 -0.0401,-0.1243 -0.0107,-0.16022 0.0313,-0.0377 0.0248,-0.047 -0.0325,-0.047 -0.0648,0 -0.0716,-0.0187 -0.0716,-0.20011 0,-0.17272 0.009,-0.20315 0.0698,-0.22227 0.0658,-0.0209 0.0663,-0.0246 0.0107,-0.0658 -0.0542,-0.0397 -0.0553,-0.0565 -0.0121,-0.18609 0.0259,-0.0784 0.0669,-0.14845 0.091,-0.15576 0.15197,-0.0459 0.14961,-0.0432 0.10847,-0.12015 -0.034,-0.0634 -0.0286,-0.0831 0.0362,-0.13562 0.0623,-0.0505 0.0685,-0.0705 0.0341,-0.11181 -0.023,-0.0277 -0.0612,-0.0503 -0.0847,-0.0503 -0.0236,0 -0.0515,-0.0227 -0.0621,-0.0503 -0.0205,-0.0536 0.0885,-0.11732 0.46486,-0.27221 0.17275,-0.0711 0.25325,-0.0822 0.59513,-0.0822 0.45351,0 0.48799,-0.022 0.35092,-0.224 -0.0458,-0.0675 -0.0832,-0.13578 -0.0832,-0.15174 0,-0.016 -0.0607,-0.029 -0.13491,-0.029 -0.12148,0 -0.13493,-0.008 -0.13493,-0.0843 0,-0.071 0.0158,-0.0843 0.10014,-0.0843 0.0728,0 0.095,-0.0134 0.0818,-0.0481 -0.0107,-0.0272 0.0107,-0.0638 0.0494,-0.0843 0.0965,-0.0515 0.10604,-0.047 0.10604,0.052 0,0.075 0.0107,0.0852 0.0758,0.0679 0.0417,-0.0107 0.0954,-0.0205 0.1192,-0.0208 0.0325,-3.7e-4 0.0345,-0.0169 0.008,-0.0656 -0.0471,-0.0881 -0.0434,-0.27082 0.007,-0.36967 0.0444,-0.0861 0.25272,-0.21502 0.30004,-0.18577 0.0659,0.0407 0.0243,0.14327 -0.0717,0.17671 -0.10766,0.0374 -0.15828,0.1523 -0.12014,0.27234 l 0.022,0.0694 0.094,-0.0695 c 0.0699,-0.0517 0.0899,-0.0903 0.0783,-0.15124 -0.0134,-0.0686 -0.003,-0.0818 0.0674,-0.0818 0.12377,0 0.27684,-0.0862 0.63995,-0.36018 0.17998,-0.13584 0.33963,-0.24698 0.35477,-0.24698 0.0152,0 0.0844,-0.0387 0.15402,-0.0859 0.0695,-0.0473 0.14252,-0.0761 0.16213,-0.0639 0.0196,0.0121 0.15587,0.0268 0.30279,0.0328 0.2213,0.009 0.27285,8.2e-4 0.30045,-0.0458 0.0285,-0.0482 0.038,-0.0493 0.0652,-0.007 0.026,0.0397 0.0482,0.0412 0.12028,0.008 0.10752,-0.049 0.27592,-0.0526 0.30441,-0.007 0.0381,0.0618 0.17273,0.0348 0.25298,-0.0506 0.0659,-0.0701 0.11048,-0.0843 0.26448,-0.0843 0.18317,0 0.22131,-0.0341 0.0583,-0.0519 -0.0463,-0.005 -0.13141,-0.0428 -0.18896,-0.0838 -0.0577,-0.0411 -0.18307,-0.084 -0.2794,-0.0958 -0.14773,-0.018 -0.1764,-0.033 -0.18552,-0.0972 -0.007,-0.048 -0.0341,-0.076 -0.0742,-0.076 -0.0349,0 -0.0758,-0.0223 -0.0911,-0.0495 -0.0236,-0.042 -0.29732,-0.053 -1.82315,-0.0729 l -1.79546,-0.0233 v -0.26441 -0.26439 l 0.14335,8e-4 c 0.0788,3.8e-4 0.89093,-0.0176 1.8046,-0.04 1.56725,-0.0383 1.66126,-0.0442 1.66126,-0.10188 0,-0.0428 0.0254,-0.0612 0.0843,-0.0612 0.0617,0 0.0843,-0.018 0.0843,-0.0675 0,-0.0611 0.0227,-0.0675 0.24457,-0.0683 0.21736,-7.9e-4 0.26329,-0.0134 0.4132,-0.10967 0.138,-0.089 0.16686,-0.12417 0.15874,-0.19358 -0.0215,-0.18424 0.25237,-0.31492 0.37017,-0.17661 0.0722,0.0848 0.13915,0.26805 0.11329,0.31 -0.0137,0.0221 0.0203,0.0375 0.0895,0.04 0.0613,0.003 0.14661,0.008 0.18938,0.0121 0.0601,0.007 0.0725,-0.004 0.0548,-0.0465 -0.0597,-0.14089 -0.0545,-0.21198 0.0209,-0.29235 0.0941,-0.10014 0.16283,-0.10336 0.33486,-0.0156 0.17172,0.0877 0.32022,0.0593 0.46625,-0.089 0.0932,-0.0945 0.13571,-0.11289 0.26141,-0.11289 0.0826,0 0.15017,0.0152 0.15017,0.0337 0,0.0753 0.20079,0.0314 0.30901,-0.0674 0.0609,-0.0557 0.14156,-0.10121 0.17916,-0.10108 0.0644,8e-5 0.0678,-0.0174 0.0576,-0.30357 -0.0107,-0.28813 -0.007,-0.30366 0.0591,-0.30366 0.064,0 0.0699,0.0199 0.0699,0.23612 v 0.23611 h 0.13494 c 0.13168,0 0.13492,-0.003 0.13492,-0.11799 0,-0.0824 -0.0153,-0.11799 -0.0506,-0.11799 -0.0375,0 -0.0506,-0.0393 -0.0506,-0.1518 0,-0.13942 0.007,-0.15178 0.0843,-0.15178 0.0674,0 0.0843,0.0169 0.0843,0.0843 0,0.0465 0.0152,0.0843 0.0337,0.0843 0.0185,0 0.0337,0.0742 0.0337,0.16504 0,0.11934 0.0148,0.17071 0.0533,0.18552 0.0294,0.0107 0.26462,0.0204 0.52283,0.0204 h 0.46949 v -0.20239 -0.20238 h -0.14804 c -0.14285,0 -0.14883,-0.004 -0.17049,-0.11961 -0.0121,-0.0658 -0.0121,-0.18707 3e-5,-0.26946 0.0266,-0.17745 0.0283,-0.17642 -0.32276,-0.19249 -0.13934,-0.007 -0.27289,-0.0236 -0.29677,-0.0384 -0.052,-0.0321 -0.14137,-0.003 -0.14137,0.0456 0,0.0192 0.0341,0.035 0.0759,0.0353 0.1192,8e-4 0.16665,0.0485 0.15449,0.15493 l -0.0107,0.0976 h -0.32043 -0.32045 v -0.11812 c 0,-0.1086 0.009,-0.11894 0.10967,-0.1286 0.10497,-0.0107 0.14179,-0.0499 0.0811,-0.0875 -0.0157,-0.009 -0.47112,-0.0216 -1.01193,-0.0264 l -0.98332,-0.009 v -0.0883 -0.0885 l 1.00351,-0.0263 c 0.55191,-0.0145 1.10974,-0.0303 1.2396,-0.0353 0.12994,-0.005 0.34,-0.0107 0.46696,-0.0121 0.20084,-0.003 0.23314,-0.0121 0.24848,-0.0711 0.0176,-0.0674 0.14471,-0.0974 0.14471,-0.0344 0,0.0205 0.22502,0.0325 0.59028,0.0317 0.39852,-8.2e-4 0.59029,-0.0134 0.59029,-0.0379 0,-0.0248 0.0561,-0.0277 0.1771,-0.009 0.0974,0.015 0.23993,0.0267 0.31674,0.026 0.13356,-8.2e-4 0.1405,0.004 0.15868,0.11585 0.0107,0.0644 0.0107,0.16109 -4e-4,0.21481 -0.0161,0.0803 -0.0367,0.0977 -0.11545,0.0977 -0.0714,0 -0.091,0.0134 -0.0765,0.0506 0.0215,0.0561 -0.0391,0.0702 -0.0722,0.0169 -0.0622,-0.10068 -0.0843,0.005 -0.0843,0.40477 0,0.36729 0.008,0.4385 0.0506,0.4385 0.0337,0 0.0506,0.0337 0.0506,0.10122 0,0.0557 -0.0152,0.10121 -0.0337,0.10121 -0.0185,0 -0.0337,0.0228 -0.0337,0.0506 0,0.0278 0.0152,0.0506 0.0337,0.0506 0.0185,0 0.0337,0.0532 0.0337,0.11813 0,0.0648 -0.0152,0.118 -0.0337,0.118 -0.0185,0 -0.0337,0.0303 -0.0337,0.0674 0,0.0575 0.0226,0.0674 0.15179,0.0674 h 0.15178 v 0.35417 0.35417 h 0.1282 c 0.0705,0 0.1426,0.014 0.16022,0.0309 0.0176,0.0169 0.0699,0.036 0.11639,0.0421 0.0772,0.0107 0.0843,0.0255 0.0843,0.17994 v 0.16866 l -0.24454,0.009 -0.24457,0.009 v 0.13182 c 0,0.0725 -0.0168,0.16859 -0.0372,0.21351 -0.0391,0.0858 -0.25384,0.2251 -0.34687,0.2251 -0.0443,0 -0.0537,0.0364 -0.0506,0.19394 10e-4,0.10672 0.0107,0.16868 0.0188,0.13781 0.008,-0.0309 0.0352,-0.0639 0.06,-0.0734 0.0248,-0.009 0.29717,-3.9e-4 0.60525,0.0203 0.53168,0.0357 0.56014,0.0412 0.56014,0.10739 0,0.12685 0.39612,0.23463 0.49588,0.13487 0.0589,-0.0589 0.12471,-0.0557 0.46545,0.0219 0.0928,0.0211 0.48359,0.0404 0.86851,0.0429 0.56295,0.003 0.69985,-0.004 0.69992,-0.0404 3e-5,-0.0248 0.0191,-0.0383 0.0423,-0.0301 0.0448,0.0158 0.0489,0.0667 0.014,0.17626 -0.0205,0.0643 -0.005,0.0675 0.30696,0.0682 0.18065,3.7e-4 0.37286,0.0121 0.42712,0.0274 0.087,0.0236 0.0936,0.0204 0.0549,-0.026 -0.024,-0.029 -0.0866,-0.0528 -0.13882,-0.0528 -0.0522,0 -0.10363,-0.0138 -0.1141,-0.0307 -0.0279,-0.0451 0.0561,-0.0662 0.12416,-0.0313 0.0321,0.0165 0.18259,0.0456 0.33435,0.0647 0.15174,0.0189 0.30402,0.0497 0.33839,0.0681 0.0471,0.0252 0.0674,0.0207 0.0824,-0.0185 0.0275,-0.072 0.14671,-0.0665 0.15168,0.007 0.001,0.0325 0.003,0.067 0.003,0.0766 -8e-4,0.009 0.17087,0.13115 0.38146,0.26984 0.35324,0.23274 0.38307,0.26065 0.38534,0.36054 0.003,0.0991 -0.009,0.11181 -0.14091,0.14944 -0.0788,0.0227 -0.14805,0.0443 -0.15376,0.0483 -0.005,0.004 0.0134,0.0638 0.0421,0.13289 0.0633,0.15155 0.0654,0.18506 0.0121,0.18506 -0.10202,0 -0.32996,0.1141 -0.3293,0.1648 3.8e-4,0.0299 0.0383,0.18268 0.0843,0.33943 0.046,0.15673 0.0836,0.30301 0.0836,0.32504 0,0.0222 -0.0438,0.0464 -0.0973,0.0544 -0.0963,0.0141 -0.0985,0.0107 -0.20494,-0.32504 -0.0592,-0.18665 -0.11437,-0.3605 -0.12269,-0.38634 -0.008,-0.0258 -0.0203,-0.0411 -0.0266,-0.0337 -0.0165,0.0192 -0.32426,0.85919 -0.32426,0.88525 0,0.0121 0.0283,0.0219 0.0628,0.0219 0.0435,0 0.0808,0.0469 0.12081,0.15185 0.041,0.10739 0.0819,0.15786 0.13952,0.17232 0.0847,0.0213 0.11839,0.14809 0.0393,0.14805 -0.0297,-3e-5 -0.0388,0.0499 -0.0305,0.16846 0.009,0.13048 -4.1e-4,0.17314 -0.0421,0.18915 -0.0349,0.0134 -0.0538,0.0616 -0.0538,0.13679 0,0.14635 -0.0797,0.30384 -0.16828,0.3319 -0.0373,0.0121 -0.0678,0.0506 -0.0678,0.0861 0,0.0762 -0.23819,0.21083 -0.31849,0.18001 -0.0327,-0.0121 -0.0526,-10e-4 -0.0526,0.029 0,0.0575 -0.25177,0.16533 -0.32257,0.13816 -0.0295,-0.0107 -0.0485,0.003 -0.0485,0.0348 0,0.065 -0.26094,0.19731 -0.33979,0.17228 -0.0372,-0.0121 -0.0626,0.005 -0.074,0.0485 -0.02,0.0766 -0.24401,0.18149 -0.32956,0.15433 -0.0385,-0.0121 -0.0636,0.003 -0.0753,0.0481 -0.0188,0.072 -0.2466,0.18428 -0.31808,0.15684 -0.0242,-0.009 -0.0439,-4e-5 -0.0439,0.0205 0,0.0205 -0.0266,0.0576 -0.0591,0.0822 -0.0765,0.058 -0.31183,0.0616 -0.31253,0.005 -3.8e-4,-0.0314 -0.007,-0.0321 -0.0256,-0.003 -0.0338,0.0532 -5.73655,0.0573 -5.80054,0.004 -0.0289,-0.0239 -0.0424,-0.024 -0.0424,-3.9e-4 0,0.0235 -0.70024,0.0353 -2.15877,0.0362 -1.6099,8.2e-4 -2.15879,-0.008 -2.15879,-0.0374 0,-0.0286 -0.0107,-0.0282 -0.0404,10e-4 -0.0542,0.0544 -0.35366,0.0529 -0.37569,-10e-4 -0.0136,-0.0337 -0.0176,-0.0337 -0.0196,0 -0.004,0.0654 -0.36084,0.0568 -0.3862,-0.009 z m 1.10176,-0.41448 c 0.0243,-0.12336 0.0397,-0.1438 0.10215,-0.13492 0.056,0.008 0.0811,0.0446 0.10524,0.15382 0.0255,0.11504 0.0462,0.14335 0.10524,0.14335 0.0599,0 0.0776,-0.0255 0.0955,-0.13716 0.0188,-0.11746 0.0328,-0.13564 0.0971,-0.12645 0.0553,0.008 0.0834,0.044 0.10645,0.13716 0.025,0.10094 0.0471,0.12645 0.10967,0.12645 0.10309,0 0.0989,-0.0397 -0.0222,-0.2069 -0.062,-0.0856 -0.10873,-0.20063 -0.12202,-0.29986 -0.0193,-0.14543 -0.0311,-0.16293 -0.12283,-0.18128 -0.13007,-0.026 -0.3597,-0.026 -0.48985,3e-5 -0.0901,0.018 -0.10605,0.04 -0.1409,0.19394 -0.0702,0.31046 -0.04,0.50433 0.0758,0.48761 0.0553,-0.008 0.0788,-0.0443 0.10067,-0.15579 z m 2.16185,0.0274 c 0.0184,-0.11531 0.0337,-0.13492 0.1051,-0.13492 0.0713,0 0.0867,0.0196 0.10511,0.13492 0.0193,0.12108 0.0316,0.13492 0.11853,0.13492 0.11746,0 0.11934,-0.0248 0.0172,-0.2288 -0.13061,-0.2607 -0.14201,-0.47375 -0.0387,-0.7241 0.022,-0.0532 -8e-4,-0.0591 -0.23307,-0.0591 h -0.25747 l 0.0514,0.0995 c 0.0819,0.15838 0.0666,0.46643 -0.0329,0.66214 -0.0989,0.1945 -0.0889,0.25026 0.0452,0.25026 0.0882,0 0.10014,-0.0134 0.11947,-0.13492 z m 0.0208,-0.30357 c 0,-0.0185 0.0152,-0.0337 0.0337,-0.0337 0.0185,0 0.0338,0.0152 0.0338,0.0337 0,0.0185 -0.0152,0.0337 -0.0338,0.0337 -0.0185,0 -0.0337,-0.0152 -0.0337,-0.0337 z m 1.76697,0.30357 c 0.0181,-0.11356 0.0342,-0.13492 0.10188,-0.13492 0.0854,0 0.12122,0.0557 0.12122,0.18828 0,0.067 0.0171,0.0816 0.0952,0.0816 0.082,0 0.0996,-0.0176 0.12645,-0.12645 0.023,-0.0928 0.0512,-0.12927 0.10592,-0.13713 0.0583,-0.008 0.0793,0.0107 0.0956,0.0843 0.0373,0.16937 0.0455,0.17928 0.14911,0.17928 0.12685,0 0.13142,-0.0552 0.0185,-0.22148 -0.0459,-0.0678 -0.0933,-0.19594 -0.10511,-0.28477 -0.0193,-0.14598 -0.0311,-0.16344 -0.12296,-0.18179 -0.129,-0.0258 -0.42455,-0.0255 -0.52163,4e-4 -0.0572,0.0153 -0.0795,0.0538 -0.0965,0.16744 -0.0121,0.0811 -0.0663,0.21715 -0.12027,0.30224 -0.10994,0.1733 -0.10256,0.21781 0.0358,0.21781 0.0846,0 0.0972,-0.0146 0.11652,-0.13492 z m 2.23264,0.008 c 0.0256,-0.10417 0.0462,-0.12645 0.11558,-0.12645 0.0707,0 0.0871,0.0191 0.10121,0.11799 0.0149,0.1043 0.0295,0.11934 0.12646,0.1286 0.10497,0.0107 0.14735,-0.0338 0.0754,-0.0784 -0.0188,-0.0121 -0.0667,-0.0847 -0.10645,-0.16222 -0.0911,-0.17793 -0.0996,-0.46635 -0.0185,-0.62691 0.0319,-0.0631 0.058,-0.12001 0.058,-0.12645 0,-0.007 -0.10658,-0.0121 -0.23699,-0.0121 h -0.23697 l 0.0549,0.10631 c 0.0881,0.17017 0.0548,0.52312 -0.0656,0.69693 -0.10255,0.14806 -0.0952,0.20868 0.0255,0.20868 0.0603,0 0.0829,-0.0267 0.10765,-0.12645 z m 0.0819,-0.27829 c 0,-0.0185 0.0161,-0.0337 0.0357,-0.0337 0.0196,0 0.0263,0.0152 0.0149,0.0337 -0.0121,0.0185 -0.0275,0.0337 -0.0357,0.0337 -0.008,0 -0.0149,-0.0152 -0.0149,-0.0337 z m 1.72028,0.26986 c 0.0142,-0.0989 0.0305,-0.118 0.10121,-0.118 0.0707,0 0.0871,0.0191 0.10121,0.118 0.0149,0.1043 0.0297,0.11933 0.12645,0.1286 0.0926,0.009 0.10968,-4.1e-4 0.10968,-0.0612 0,-0.1094 0.0623,-0.20229 0.13571,-0.20229 0.0507,0 0.0709,0.0309 0.0875,0.13491 0.0193,0.12108 0.0315,0.13493 0.11853,0.13493 0.0533,0 0.0969,-0.005 0.0969,-0.0134 0,-0.007 -0.0376,-0.0795 -0.0835,-0.16023 -0.0459,-0.0807 -0.0932,-0.21106 -0.10497,-0.28961 -0.0195,-0.129 -0.0334,-0.14609 -0.14422,-0.17688 -0.13671,-0.038 -0.34853,-0.04 -0.47693,-0.004 -0.0652,0.0181 -0.0929,0.0578 -0.12229,0.1757 -0.0208,0.0838 -0.0625,0.20008 -0.0928,0.25835 -0.0827,0.15992 -0.0721,0.21698 0.038,0.20432 0.0776,-0.009 0.0956,-0.0301 0.10967,-0.12873 z m 2.40791,-0.16623 c -0.0439,-0.1 -0.0298,-0.21314 0.0313,-0.25113 0.0499,-0.031 0.0726,-0.024 0.12377,0.0383 0.0345,0.042 0.068,0.0925 0.0746,0.11236 0.008,0.0246 0.0419,0.0223 0.10591,-0.007 0.0788,-0.0358 0.0902,-0.0568 0.071,-0.12913 -0.0385,-0.14539 -0.0341,-0.1768 0.0301,-0.21666 0.0522,-0.0325 0.075,-0.0216 0.14615,0.0693 0.0746,0.0954 0.0934,0.10349 0.16575,0.0705 0.0448,-0.0204 0.0811,-0.046 0.0804,-0.0571 -0.001,-0.0391 -0.1035,-0.15463 -0.12685,-0.14465 -0.0461,0.0196 -0.14848,-0.0228 -0.12941,-0.0537 0.0107,-0.0172 -0.0396,-0.0784 -0.11141,-0.13615 -0.11236,-0.0903 -0.13642,-0.098 -0.17179,-0.0554 -0.0305,0.0366 -0.11786,0.0495 -0.33694,0.0495 h -0.29581 l 0.0652,0.12645 c 0.0479,0.0928 0.0635,0.18522 0.0587,0.34676 -0.003,0.12122 0.0107,0.25352 0.0329,0.29414 0.0346,0.0644 0.0503,0.069 0.12457,0.0352 0.0591,-0.0269 0.0779,-0.0549 0.0616,-0.0917 z M 81.81599,19.3338 c 0.0289,-0.0325 0.0588,-0.13494 0.0667,-0.22769 0.008,-0.0928 0.0261,-0.19522 0.0407,-0.2277 0.022,-0.0493 0.009,-0.0591 -0.0784,-0.0591 -0.0671,0 -0.10483,0.0169 -0.10483,0.047 0,0.0705 -0.0773,0.0863 -0.17036,0.0349 -0.10296,-0.0571 -0.1333,-0.0591 -0.1333,-0.008 0,0.0218 -0.0255,0.0678 -0.0568,0.10229 -0.052,0.0574 -0.0522,0.0674 -0.003,0.11638 0.0491,0.0491 0.0636,0.046 0.1696,-0.0348 0.11088,-0.0846 0.11839,-0.0858 0.17064,-0.0281 0.0505,0.0558 0.0499,0.0683 -0.009,0.16477 -0.0467,0.0767 -0.0536,0.11424 -0.0259,0.14197 0.051,0.051 0.0722,0.0477 0.1337,-0.0215 z m 0.26152,-3.15131 c 0,-0.0377 -0.17342,-0.0345 -0.23477,0.004 -0.0421,0.0267 -0.04,0.0414 0.0142,0.10121 l 0.0634,0.0701 0.0785,-0.0738 c 0.0432,-0.0405 0.0785,-0.0865 0.0785,-0.10176 z m 14.56592,-0.15844 c 0.0329,-0.0209 0.0138,-0.0466 -0.0731,-0.098 l -0.118,-0.0697 0.0344,0.0985 c 0.035,0.10068 0.0776,0.11934 0.15678,0.0691 z M 82.61715,15.6598 c 0,-0.0369 -0.0165,-0.0354 -0.0823,0.008 -0.0493,0.0322 -0.0746,0.0738 -0.0632,0.10336 0.0162,0.0423 0.0283,0.0411 0.0823,-0.008 0.0348,-0.0315 0.0632,-0.078 0.0632,-0.10337 z m 13.70946,0.12766 c 0.0107,-0.0166 -0.003,-0.0387 -0.0301,-0.0489 -0.0325,-0.0121 -0.0426,-0.003 -0.0299,0.0302 0.0217,0.0566 0.0341,0.0605 0.0599,0.0187 z m -0.25079,-0.12162 c 0,-0.0278 -0.0223,-0.0506 -0.0495,-0.0506 -0.0302,0 -0.042,0.0199 -0.0301,0.0506 0.0107,0.0278 0.0329,0.0506 0.0495,0.0506 0.0165,0 0.0301,-0.0228 0.0301,-0.0506 z m -0.40478,-0.0992 c 0,-0.0246 -0.0341,-0.0538 -0.0758,-0.065 -0.10565,-0.0283 -0.12645,-0.0263 -0.12645,0.0121 0,0.0185 0.0212,0.0337 0.047,0.0337 0.0258,0 0.0561,0.0238 0.0673,0.0527 0.0228,0.0595 0.0882,0.0344 0.0882,-0.034 z m -12.78148,-0.14529 0.0818,-0.0928 -0.10122,0.0843 c -0.0557,0.0464 -0.10752,0.0882 -0.11517,0.0928 -0.007,0.005 8.2e-4,0.008 0.0195,0.008 0.0184,0 0.0703,-0.0417 0.11531,-0.0928 z m 13.10966,0.0387 c -0.0107,-0.0107 -0.0403,-0.0121 -0.0647,-0.003 -0.0268,0.0107 -0.0189,0.0188 0.0204,0.0204 0.0356,0.001 0.0556,-0.007 0.0443,-0.0177 z m 0.11034,-0.0491 c 0,-0.0174 -0.0121,-0.0318 -0.0281,-0.0318 -0.0154,0 -0.0281,0.0222 -0.0281,0.0491 0,0.027 0.0121,0.0414 0.0281,0.0317 0.0154,-0.009 0.0281,-0.0317 0.0281,-0.0491 z m -2.3692,-0.18985 c -0.0322,-0.008 -0.0929,-0.009 -0.13492,-8.1e-4 -0.042,0.008 -0.0156,0.0149 0.0587,0.0153 0.0742,3.8e-4 0.1086,-0.007 0.0763,-0.0146 z m 0.62363,8e-4 c -0.0231,-0.009 -0.0612,-0.009 -0.0843,0 -0.0231,0.009 -0.004,0.017 0.0421,0.017 0.0465,0 0.0654,-0.007 0.0422,-0.017 z m -7.88568,-2.27018 c 0.058,-0.064 0.0571,-0.0676 -0.0294,-0.10698 -0.10886,-0.0495 -0.1726,-0.003 -0.13925,0.10242 0.0282,0.0887 0.0909,0.0905 0.16866,0.005 z m -0.82534,-0.0107 c 0,-0.0157 0.0152,-0.0192 0.0337,-0.007 0.0411,0.0254 0.0431,-0.0172 0.004,-0.0792 -0.0427,-0.0674 -0.15407,-0.0324 -0.16618,0.0524 -0.008,0.0565 0.005,0.0724 0.0591,0.0685 0.0383,-0.003 0.0695,-0.0181 0.0695,-0.0337 z m 5.09337,-0.12578 c 0,-0.037 -0.0152,-0.0675 -0.0337,-0.0675 -0.0185,0 -0.0337,-0.0532 -0.0337,-0.11799 0,-0.065 0.0152,-0.11799 0.0337,-0.11799 0.0185,0 0.0337,-0.0228 0.0337,-0.0506 0,-0.0278 -0.0152,-0.0506 -0.0337,-0.0506 -0.0185,0 -0.0337,-0.0456 -0.0337,-0.10121 0,-0.0674 0.0169,-0.10121 0.0506,-0.10121 0.0424,0 0.0506,-0.0711 0.0506,-0.4385 v -0.43851 h -0.11867 c -0.11262,0 -0.11745,0.005 -0.0956,0.0928 0.0211,0.0848 0.0181,0.0886 -0.035,0.045 -0.0502,-0.0413 -0.0566,-0.0413 -0.0478,0 0.007,0.0317 -0.0192,0.0478 -0.0767,0.0478 -0.0564,0 -0.1644,0.0654 -0.30675,0.18553 l -0.21971,0.18552 0.007,0.30832 c 0.005,0.22148 0.0227,0.33049 0.0622,0.38698 0.0303,0.0432 0.0552,0.098 0.0552,0.12175 0,0.0267 0.0447,0.0431 0.11799,0.0431 0.0648,0 0.11799,0.0134 0.11799,0.0286 0,0.0537 0.15172,0.10176 0.32887,0.10404 0.15536,10e-4 0.1771,-0.005 0.1771,-0.0651 z M 89.95566,11.6379 c -0.0408,-0.066 -0.0858,-0.0391 -0.0785,0.0473 0.005,0.0721 0.0137,0.0775 0.0542,0.0369 0.026,-0.026 0.0369,-0.0639 0.0244,-0.0842 z m 0.22015,-0.11987 0.12913,-0.11665 -0.17445,0.0172 c -0.096,0.009 -0.17935,0.022 -0.18533,0.0279 -0.0142,0.0142 0.0651,0.18825 0.0858,0.18825 0.008,0 0.0738,-0.0525 0.14492,-0.11665 z m -1.52079,-0.0519 c 0,-0.0185 -0.0291,-0.0337 -0.0647,-0.0337 -0.10055,0 -0.17142,-0.0364 -0.17142,-0.0879 0,-0.0625 -0.0552,-0.0601 -0.0796,0.003 -0.0107,0.0295 -0.0619,0.0506 -0.12162,0.0506 -0.0685,0 -0.10229,0.0168 -0.10229,0.0506 0,0.0408 0.0525,0.0506 0.26984,0.0506 0.15742,0 0.26984,-0.0141 0.26984,-0.0337 z m 2.38577,-0.2565 c -0.0107,-0.0107 -0.0403,-0.0121 -0.0647,-0.003 -0.0268,0.0107 -0.0189,0.0188 0.0204,0.0204 0.0356,0.001 0.0554,-0.007 0.0443,-0.0177 z m 3.92193,3.99859 c 0,-0.0196 0.0152,-0.0263 0.0337,-0.0149 0.0185,0.0121 0.0338,0.0275 0.0338,0.0357 0,0.008 -0.0152,0.0149 -0.0338,0.0149 -0.0185,0 -0.0337,-0.0161 -0.0337,-0.0357 z m -8.36529,-2.49409 c 0,-0.0185 0.0142,-0.0337 0.0318,-0.0337 0.0175,0 0.0411,0.0152 0.0526,0.0337 0.0121,0.0185 -0.003,0.0337 -0.0317,0.0337 -0.029,0 -0.0526,-0.0152 -0.0526,-0.0337 z"
       id="U-S-M4-105" />
  </g>
</svg>
