<?xml version="1.0" encoding="UTF-8" standalone="no"?>
<!-- Created with Inkscape (http://www.inkscape.org/) -->

<svg
   width="18.300699mm"
   height="6.8912802mm"
   viewBox="0 0 18.300699 6.8912802"
   version="1.1"
   id="svg4964"
   sodipodi:docname="inkporter-svg-pzo_74fk.svg"
   xmlns:inkscape="http://www.inkscape.org/namespaces/inkscape"
   xmlns:sodipodi="http://sodipodi.sourceforge.net/DTD/sodipodi-0.dtd"
   xmlns="http://www.w3.org/2000/svg"
   xmlns:svg="http://www.w3.org/2000/svg">
  <sodipodi:namedview
     id="namedview4966"
     pagecolor="#ffffff"
     bordercolor="#666666"
     borderopacity="1.0"
     inkscape:pageshadow="2"
     inkscape:pageopacity="0.0"
     inkscape:pagecheckerboard="0"
     inkscape:document-units="mm"
     showgrid="false"
     inkscape:zoom="0.64052329"
     inkscape:cx="135.04583"
     inkscape:cy="561.25984"
     inkscape:window-width="1920"
     inkscape:window-height="1017"
     inkscape:window-x="-8"
     inkscape:window-y="-8"
     inkscape:window-maximized="1"
     inkscape:current-layer="layer1" />
  <defs
     id="defs4961" />
  <g
     inkscape:label="Layer 1"
     inkscape:groupmode="layer"
     id="layer1"
     transform="translate(-54.04993,-173.76298)">
    <path
       d="m 64.21447,174.32468 h 0.49885 l -0.24805,-0.11576 -0.2508,0.0799 z m 3.12952,-0.12954 h 0.0923 v -0.113 h -0.0923 z m 0.0923,-0.34451 h -0.0923 v 0.10887 h 0.0923 z m 2.5728,6.27697 1.01561,-0.72623 c -0.0675,0.0207 -0.1378,0.0317 -0.21084,0.0317 -0.37482,0 -0.6835,-0.28801 -0.71382,-0.65594 l 0.0289,0.39412 -0.82407,0.14882 -0.0703,-0.18052 v 0.2384 H 69.0196 v -0.17501 l -0.1888,-0.40514 h -0.39687 l -0.35415,0.64216 0.18052,0.0344 c 0.0744,-0.0455 0.16261,-0.073 0.25631,-0.073 0.22462,0 0.41341,0.15434 0.46578,0.36243 h 0.14745 c 0.0537,-0.20809 0.24253,-0.36243 0.46716,-0.36243 0.26458,0 0.47955,0.21498 0.47955,0.48094 0,0.0896 -0.0234,0.17363 -0.0675,0.24529 m -1.38631,0.22324 0.93844,0.01 c -0.21083,-0.0152 -0.38447,-0.16674 -0.43132,-0.36518 h -0.14607 c -0.0427,0.17639 -0.18328,0.31557 -0.36105,0.35554 m -1.34772,-0.0152 1.12586,0.0124 c -0.21084,-0.051 -0.36518,-0.24115 -0.36518,-0.46578 l -0.0565,-0.062 -0.11714,-0.10748 v -0.17087 H 67.7408 v 0.17777 l -0.0882,0.10059 -0.0551,0.062 c 0,0.20946 -0.13505,0.3886 -0.32246,0.45337 m -1.07211,-0.011 0.74689,0.008 c -0.14882,-0.0551 -0.26183,-0.1819 -0.29903,-0.33762 h -0.16812 c -0.0358,0.14883 -0.14056,0.27009 -0.27974,0.32935 m -1.63849,-0.81718 1.07211,0.66973 c -0.0634,-0.0813 -0.10059,-0.18466 -0.10059,-0.2949 0,-0.26596 0.21497,-0.48094 0.47955,-0.48094 0.20809,0 0.38448,0.13092 0.452,0.31557 l 0.1943,0.011 c 0.0648,-0.19017 0.24392,-0.32659 0.45613,-0.32659 0.091,0 0.17639,0.0262 0.24943,0.0703 l 0.19706,-0.0372 -0.33624,-0.61736 h -0.0799 l -0.0524,-0.0593 -1.13688,-0.022 -0.47955,-0.10197 0.006,0.0868 c 0,0.4396 -0.35691,0.79513 -0.79513,0.79513 -0.0427,0 -0.0854,-0.003 -0.1254,-0.008 m -3.66556,-4.59576 v 0.99495 l 0.31143,-0.0372 0.49472,-0.95774 z m -0.72347,4.03352 -0.007,0.20671 -0.006,0.15296 -0.19017,0.004 -1.22094,0.0221 c -0.11025,0.74828 -0.75241,1.32292 -1.531,1.32292 -0.85714,0 -1.55305,-0.69591 -1.55305,-1.55305 0,-0.1943 0.0372,-0.38171 0.10197,-0.55397 l -0.26458,-0.0992 -0.0138,0.15434 0.0331,0.16399 -0.31695,-0.57327 -0.15434,0.12679 c 0,0.29627 -0.22462,0.52089 -0.50161,0.52089 -0.27698,0 -0.5016,-0.22462 -0.5016,-0.5016 0,-0.27837 0.22462,-0.50299 0.5016,-0.50299 0.0414,0 0.0827,0.006 0.12265,0.0152 l 0.19981,-0.28112 0.2384,0.0827 v -0.0634 l 0.006,-0.10886 0.051,-0.1006 0.17777,0.005 0.0951,0.0896 h -0.0951 l -0.0951,0.1006 0.0124,0.0703 0.15848,0.007 0.14607,0.0441 v 0.0758 h 0.33211 l 0.10749,-0.22186 -0.0951,-0.13918 0.10749,-0.13367 0.19016,-0.1888 0.28801,-0.58015 0.007,-0.24942 0.1323,0.005 0.15296,0.051 0.1571,0.0537 3.85988,-0.452 v -1.00594 l -0.0455,-0.0909 h 0.98667 l 0.10335,-0.21497 0.11989,0.15847 h 3.47266 l 0.12127,-0.25218 v -0.36518 h -0.31282 c -0.0482,-0.0193 -0.0606,-0.011 -0.0675,0 h -0.0703 c -0.0482,-0.0193 -0.0606,-0.011 -0.0675,0 h -0.0703 c -0.0482,-0.0193 -0.0606,-0.011 -0.0675,0 h -0.33624 v 0.0648 l 0.17363,0.062 v 0.14194 h -0.57188 v -0.14883 l 0.18052,-0.0551 v -0.073 l -1.68672,-0.0827 -0.17914,0.0317 v -0.17776 h 0.17914 l 1.69361,0.0344 0.062,-0.0317 h 0.0882 l 0.11989,0.005 h 0.0978 l 0.17638,-0.0207 c 0.0537,0.0248 0.0675,0.0138 0.073,0 h 0.0648 c 0.0537,0.0248 0.0675,0.0138 0.073,0 h 0.0648 c 0.0524,0.0248 0.0675,0.0138 0.073,0 h 0.31143 v -0.0717 l 0.47956,0.003 h 1.08176 l 0.0551,-0.0648 h 0.11162 l 0.022,0.0689 h 0.17777 v 0.12677 l 0.0179,0.12265 -0.0179,0.113 -0.0593,0.0207 -0.0923,-0.001 h -0.39274 c 0.0648,0.062 0.0854,0.13918 0.0482,0.18052 -0.0386,0.0455 -0.10198,0.0372 -0.14056,0.0289 l -0.80202,-0.18328 v 0.339 h -0.0882 l -0.0896,0.18466 h 0.19431 l 5.79878,-0.001 v 0.2577 h 0.0937 v 0.43821 h 0.0923 v 0.24116 h -0.0923 v 1.70188 h -0.0937 v 0.58567 l 0.12127,-0.0799 0.19843,0.0138 0.0923,0.04 0.04,0.0923 0.0262,0.23977 -0.0262,0.13367 -0.1323,0.10611 -0.0138,0.17226 -0.13229,-0.0524 -0.12127,-0.0537 -0.0661,-0.226 -0.14056,-0.11989 v 0.27285 l -0.008,0.42444 -0.13918,0.32246 -1.68396,1.24299 -0.16674,0.051 -3.87367,-0.0138 -0.11851,-0.0758 -1.77078,-1.06384 -0.25356,-0.36105 -0.0661,-0.18741 -0.38585,0.0799 h -1.4373 l -0.0138,0.2136 h -0.30592 l -0.04,-0.2136 z m 0,0"
       id="U-S-M3" />
  </g>
</svg>
