<?xml version="1.0" encoding="UTF-8" standalone="no"?>
<!-- Created with Inkscape (http://www.inkscape.org/) -->

<svg
   width="16.3361mm"
   height="7.1297498mm"
   viewBox="0 0 16.3361 7.1297498"
   version="1.1"
   id="svg4964"
   sodipodi:docname="inkporter-svg-jtwk_lcr.svg"
   xmlns:inkscape="http://www.inkscape.org/namespaces/inkscape"
   xmlns:sodipodi="http://sodipodi.sourceforge.net/DTD/sodipodi-0.dtd"
   xmlns="http://www.w3.org/2000/svg"
   xmlns:svg="http://www.w3.org/2000/svg">
  <sodipodi:namedview
     id="namedview4966"
     pagecolor="#ffffff"
     bordercolor="#666666"
     borderopacity="1.0"
     inkscape:pageshadow="2"
     inkscape:pageopacity="0.0"
     inkscape:pagecheckerboard="0"
     inkscape:document-units="mm"
     showgrid="false"
     inkscape:zoom="0.64052329"
     inkscape:cx="135.04583"
     inkscape:cy="561.25984"
     inkscape:window-width="1920"
     inkscape:window-height="1017"
     inkscape:window-x="-8"
     inkscape:window-y="-8"
     inkscape:window-maximized="1"
     inkscape:current-layer="layer1" />
  <defs
     id="defs4961" />
  <g
     inkscape:label="Layer 1"
     inkscape:groupmode="layer"
     id="layer1"
     transform="translate(-77.03648,-107.33924)">
    <path
       id="U-S-M3-030"
       d="m 83.31973,107.34008 v 0.0837 l -0.0357,0.0677 h -1.23195 c -0.35277,0 -0.35296,0.0884 -0.35296,0.0884 v 0.0878 h 1.23455 c 0.35277,0 0.35295,0.0429 0.35295,0.0429 v 0.0414 l -0.0594,0.0842 0.0164,0.0754 0.0511,0.0677 v 0.19172 h -0.10644 v 0.74723 l -0.0372,0.0729 h -0.96739 l 0.0465,0.0842 v 0.94515 l -3.78272,0.42426 -0.15555,-0.0496 -0.14883,-0.0486 -0.13073,-0.006 -0.006,0.23461 -0.28265,0.54414 -0.18603,0.17934 -0.10441,0.12401 0.092,0.13073 -0.10441,0.20828 h -0.28318 l -0.0718,0.64542 0.22686,0.0827 c -0.0648,0.16121 -0.10078,0.33658 -0.10078,0.51986 0,0.80618 0.68212,1.45936 1.52135,1.45936 0.77171,0 1.40957,-0.55158 1.50741,-1.26402 h 1.38078 v -0.34158 h 3.02205 l 0.3793,-0.0744 0.063,0.17518 0.24959,0.33898 1.73376,0.99891 0.11678,0.0718 3.79667,0.0124 0.16277,-0.047 1.64952,-1.16737 0.13745,-0.30281 0.007,-0.39997 0.0868,-0.0507 0.0372,-0.0775 0.0124,-0.0594 v -0.0951 l 0.11835,-0.048 0.0429,1.11826 v -1.73271 h 0.15554 v -0.97305 l -0.0135,0.003 v -1.61229 h -0.7276 v -0.003 h -6.24975 v -0.69556 h 0.83508 v 0 h -0.83508 v -0.0729 h -2.59882 l 0.10025,-0.0249 0.12557,-0.0579 0.10078,-0.0842 0.0161,-0.0677 0.10234,-0.008 0.0341,-0.0842 -0.0341,-0.0842 h 0.15968 v -0.0837 l 0.076,0.0589 0.0249,0.0677 0.0424,0.0842 0.11731,0.008 0.008,-0.1085 -0.0925,-0.11888 v -0.14314 l -0.20103,-0.0594 v -0.1085 h -0.26199 v 0.0672 h -0.64649 v -0.0837 z m -1.00097,1.73683 h 0.7896 l -0.45318,0.89709 -0.33642,0.0388 z m 4.4881,3.49591 0.47128,0.0966 1.1131,0.019 0.0527,0.0568 h 0.077 l 0.32813,0.5793 -0.19171,0.0367 c -0.0703,-0.0427 -0.1559,-0.0661 -0.24546,-0.0661 -0.20669,0 -0.38171,0.12814 -0.44648,0.30592 l -0.18966,-0.0103 c -0.0661,-0.17227 -0.23976,-0.29612 -0.44235,-0.29612 -0.26043,0 -0.47131,0.20118 -0.47131,0.45061 0,0.10472 0.0372,0.20119 0.0992,0.27699 l -1.05108,-0.62992 c 0.04,0.007 0.0813,0.0103 0.12401,0.0103 0.42995,0 0.77825,-0.33383 0.77825,-0.74724 z m -9.76738,0.0682 -0.003,0.03 0.014,0.0249 z m 14.29525,0.0682 c 0.0303,0.34451 0.33213,0.616 0.69869,0.616 0.073,0 0.14192,-0.0106 0.20669,-0.03 l -0.99478,0.68213 c 0.0427,-0.0675 0.0677,-0.14608 0.0677,-0.23151 0,-0.24943 -0.21219,-0.45062 -0.47127,-0.45062 -0.2205,0 -0.40534,0.14433 -0.45633,0.34002 H 90.2392 c -0.051,-0.19569 -0.2353,-0.34002 -0.45577,-0.34002 -0.0923,0 -0.17812,0.0246 -0.25117,0.0687 l -0.17775,-0.0315 0.3488,-0.60359 h 0.38706 l 0.18603,0.38034 v 0.16383 h 0.21084 v -0.22326 l 0.0693,0.16796 0.80615,-0.13901 z m -2.31198,0.71832 h 0.11832 v 0.15967 l 0.11422,0.10181 0.0568,0.0568 c 0,0.21219 0.15277,0.38965 0.35812,0.43926 l -1.10382,-0.0124 c 0.18465,-0.062 0.31679,-0.22844 0.31679,-0.42685 l 0.0537,-0.0568 0.0858,-0.0951 z m -1.23145,0.42426 h 0.1638 c 0.0358,0.14745 0.14745,0.26593 0.29353,0.31832 l -0.73173,-0.008 c 0.13502,-0.0551 0.23855,-0.16949 0.2744,-0.31006 z m 2.44946,0 h 0.14314 c 0.0469,0.1888 0.21635,0.32951 0.42166,0.34467 l -0.91879,-0.0103 c 0.17484,-0.0372 0.3125,-0.16785 0.35399,-0.33435 z" />
  </g>
</svg>
