<?xml version="1.0" encoding="UTF-8" standalone="no"?>
<!-- Created with Inkscape (http://www.inkscape.org/) -->

<svg
   width="16.59025mm"
   height="7.7418551mm"
   viewBox="0 0 16.59025 7.7418551"
   version="1.1"
   id="svg13154"
   sodipodi:docname="inkporter-svg-uwdxo_vu.svg"
   xmlns:inkscape="http://www.inkscape.org/namespaces/inkscape"
   xmlns:sodipodi="http://sodipodi.sourceforge.net/DTD/sodipodi-0.dtd"
   xmlns="http://www.w3.org/2000/svg"
   xmlns:svg="http://www.w3.org/2000/svg">
  <sodipodi:namedview
     id="namedview13156"
     pagecolor="#ffffff"
     bordercolor="#666666"
     borderopacity="1.0"
     inkscape:pageshadow="2"
     inkscape:pageopacity="0.0"
     inkscape:pagecheckerboard="0"
     inkscape:document-units="mm"
     showgrid="false"
     inkscape:zoom="0.90583672"
     inkscape:cx="177.73623"
     inkscape:cy="473.04331"
     inkscape:window-width="1920"
     inkscape:window-height="1017"
     inkscape:window-x="-8"
     inkscape:window-y="-8"
     inkscape:window-maximized="1"
     inkscape:current-layer="layer1" />
  <defs
     id="defs13151" />
  <g
     inkscape:label="Layer 1"
     inkscape:groupmode="layer"
     id="layer1"
     transform="translate(-26.554168,-52.059005)">
    <path
       d="m 35.406732,52.606086 -0.195686,-0.162609 h -0.139171 v 0.162609 z m 0.366571,0.16812 h -0.07856 v 0.144695 h 0.07856 z m -3.337623,0.384471 h -0.172255 v 0.06477 h 0.580154 v -0.05926 h -0.14194 l -0.08544,-0.130912 h -0.08819 z m 1.051447,0.474045 v 0.410658 h 1.200255 v -0.410658 z m 2.796046,0 v 0.409279 h 0.263207 l 0.359657,1.03215 h 0.23428 l 0.06198,-0.157095 h 0.350026 v -0.538812 h 0.04685 v -2.319239 h 0.06202 v 2.319239 h 0.06202 v 0.600823 h 0.157092 v 0.126781 h 0.239783 l 0.296262,0.08406 0.1778,-0.256318 h 0.756532 l 1.218177,0.125402 0.157092,0.288011 0.0937,-0.110243 h 0.208103 l 0.172262,0.188793 h 0.567725 v -0.235645 l 0.157127,-0.147451 h 0.16122 l 0.125412,0.177765 v 0.237025 l -0.110243,0.108863 h 0.219111 v 0.366561 h -0.172262 l 0.25079,0.540191 v 0.538812 l -0.312808,0.04685 0.04685,0.146071 h 0.125412 l 0.140547,-0.06201 0.427178,0.265963 h 0.254953 l 0.06339,0.445106 -0.256328,0.01655 h -0.661459 l 0.108868,0.187413 -0.187396,0.01655 -0.254952,-0.235645 v -0.241155 h -0.208069 c 0.05098,0.15985 0.07715,0.330729 0.07715,0.508494 0,0.93569 -0.755156,1.694987 -1.688077,1.694987 -0.790998,0 -1.453833,-0.545704 -1.638512,-1.282954 h -0.731731 c -0.183268,0.73725 -0.846103,1.282954 -1.637101,1.282954 -0.932921,0 -1.688112,-0.759297 -1.688112,-1.694987 0,-0.02755 0,-0.05237 0,-0.07855 h -0.41342 l -0.365161,0.01517 -0.06202,0.177768 h -0.209444 l -0.23428,-0.130912 v 0.209462 h -0.318325 v 0.125402 h -0.15572 l -0.0937,-0.157099 h -0.254938 v 0.173633 l -0.234266,0.125402 h -0.22462 l -0.296277,-0.376205 h -0.157099 v 0.234269 H 31.10587 c -0.148827,0.784101 -0.835089,1.376659 -1.659157,1.376659 -0.846116,0 -1.546157,-0.624251 -1.668804,-1.438674 h -0.103353 l -0.511285,-0.953632 h -0.135047 l -0.01517,0.220486 -0.108864,0.162609 -0.162609,-0.110243 0.130912,-0.08406 v -0.21911 l -0.16123,0.187413 h -0.157095 l 0.07855,-0.55397 0.16123,-0.283877 -0.0055,-0.01517 0.431327,-0.260448 -0.268718,-0.378961 0.363802,-0.140558 -0.06752,-0.475424 0.224621,-0.267339 0.07855,0.140558 -0.172254,0.14194 0.03168,0.209462 h 0.311436 V 55.33046 l 0.350023,0.14194 -0.140561,0.140561 0.108867,0.179144 h 0.271473 l 0.389985,-0.237025 v -0.303166 h 0.110243 V 55.1582 h 0.239776 v 0.184658 l 0.04686,-0.02755 h 0.170875 l 0.621496,-0.649058 0.45751,-0.03721 v -0.140557 h 0.40652 v 0.108863 l 0.146072,-0.01242 v -0.111618 h 0.172254 v 0.09784 l 0.272852,-0.0041 0.283877,-0.522276 h 1.619194 v -0.412034 h -0.1819 v -0.253559 h 0.617344 v -0.314191 h -0.03175 v -0.03168 h -0.960473 l 0.04272,0.06752 h 0.170878 v 0.186037 h -0.708314 v -0.191547 h 0.205327 l 0.04548,-0.06201 h -0.04272 v -0.124026 h -1.740464 v 0.04547 h -0.252148 v -0.197058 h 0.252179 v 0.05788 h 1.740465 v -0.09784 h 1.247108 v -0.212217 h 0.362444 v 0.100598 h 0.990812 v -0.268718 h 0.225989 v 0.05374 l 0.256328,0.214976 h 0.205317 v 0.04547 h 0.07856 l 0.05786,-0.0055 v 0.384471 l -0.136419,0.0055 v 0.114378 H 34.03141 v 0.228752 h 2.384002 v 0.253559 z m -0.237032,0.409279 v -0.409279 h -1.121727 v 0.410658 z m 0,0"
       id="U-S-M20"
       style="stroke-width:0.352778" />
  </g>
</svg>
