<?xml version="1.0" encoding="UTF-8" standalone="no"?>
<!-- Created with Inkscape (http://www.inkscape.org/) -->

<svg
   width="20.44718mm"
   height="10.331581mm"
   viewBox="0 0 20.44718 10.331581"
   version="1.1"
   id="svg1"
   sodipodi:docname="inkporter-svg-pua1lwgf.svg"
   xmlns:inkscape="http://www.inkscape.org/namespaces/inkscape"
   xmlns:sodipodi="http://sodipodi.sourceforge.net/DTD/sodipodi-0.dtd"
   xmlns="http://www.w3.org/2000/svg"
   xmlns:svg="http://www.w3.org/2000/svg">
  <sodipodi:namedview
     id="namedview1"
     pagecolor="#ffffff"
     bordercolor="#666666"
     borderopacity="1.0"
     inkscape:showpageshadow="2"
     inkscape:pageopacity="0.0"
     inkscape:pagecheckerboard="0"
     inkscape:deskcolor="#d1d1d1"
     inkscape:document-units="mm"
     inkscape:zoom="1.3425154"
     inkscape:cx="534.81694"
     inkscape:cy="448.03954"
     inkscape:window-width="3200"
     inkscape:window-height="1720"
     inkscape:window-x="2391"
     inkscape:window-y="-1763"
     inkscape:window-maximized="1"
     inkscape:current-layer="layer1" />
  <defs
     id="defs1" />
  <g
     inkscape:label="Layer 1"
     inkscape:groupmode="layer"
     id="layer1"
     transform="translate(-94.77641,-206.71665)">
    <path
       d="m 114.84752,213.73153 -0.63924,-0.55421 0.11501,-0.60325 h 0.32808 v -0.73519 l -0.32808,-0.17886 -1.20826,-0.11395 0.0162,-0.57079 h 0.13124 l -0.0162,-0.29563 -3.0039,-0.42298 -0.0653,0.78282 h -0.70061 v -0.37607 h -0.1644 v -0.40675 l -0.0988,-0.16369 -0.17815,-0.048 v -0.24516 l -0.14393,7.1e-4 v -0.19297 l -0.0568,-0.0727 c 0,0 -0.16192,-1.41041 -0.16192,-1.43475 0,-0.0243 -0.42157,-0.51082 -0.42157,-0.51082 l -0.10548,-0.86713 c 0,0 -1.96533,-0.0124 -1.97768,0 -0.012,0.012 0,0.29175 0,0.29175 l -0.17815,0.20249 h -1.29716 v 0.13794 h 1.23225 c -0.0325,0 -0.61595,0.64029 -0.61595,0.64029 0,0 -0.51082,0.0406 -0.6163,0.15416 -0.10513,0.11325 -0.21872,0.25118 -0.21872,0.25118 h -0.24307 l -0.0974,0.0649 h -0.89146 l -0.0487,0.0889 h -2.90195 v 0.22719 h 2.91818 l 0.0406,0.0568 h 0.76976 l -0.073,0.0889 h -1.29682 c 0,0 -0.0487,0.15416 0,0.15416 0.0487,0 1.2566,0.0162 1.2566,0.0162 l 0.1457,0.12947 -0.60467,0.60502 h -0.33866 v -0.34361 h -0.60396 v 0.34361 h -0.52176 v 0.19614 h -0.14746 v -0.1464 h -0.52246 v 0.1464 h -0.4893 l -0.27764,0.3743 h 0.32667 l -0.37535,0.67098 c 0,0 -0.0815,0 -0.29493,0.0325 -0.10795,0.0162 -0.18485,0.078 -0.23636,0.16299 h -5.18985 v 0.375 h 5.12141 c 0.0229,0.17498 0.10866,0.31044 0.10866,0.31044 l -0.48895,0.37606 h -0.53834 v 0.35878 l -0.28187,0.17498 c 0.013,-0.0353 0.0198,-0.0773 0.0198,-0.12101 0,-0.13934 -0.0737,-0.25259 -0.17886,-0.25188 v -0.0469 h -0.32667 v 0.41981 h -0.53023 v 0.31785 c -0.11818,-10e-4 -0.18944,-0.002 -0.2092,-0.004 -0.33478,-0.0317 -0.50094,0.0624 -0.81456,0.18838 -0.31362,0.12524 -0.77294,0.61595 -0.77294,0.61595 v 0.68968 h 0.39335 c -0.002,0.22296 0.0444,0.48155 0.14217,0.66323 0.17815,0.33408 2.09656,1.71344 2.67229,1.71344 h 12.20364 c 0.40711,0 2.64055,-1.10349 2.9584,-1.30211 0.38241,-0.23918 0.55457,-0.59972 0.56127,-0.9906 h 0.40781 z m -17.4558,2.14031 -0.0875,-0.0635 c 0.0395,0.006 0.0808,0.0102 0.12101,0.012 z m 0.88512,0.43603 -0.0737,0.11218 c -0.0822,-0.0522 -0.16969,-0.10795 -0.25612,-0.16616 l 0.10196,-0.15698 -0.15417,-0.0991 -0.10019,0.15416 c -0.085,-0.0575 -0.16968,-0.11571 -0.25294,-0.17392 l 0.096,-0.14746 -0.0289,-0.0198 c 0.16863,-0.0229 0.32385,-0.0857 0.4572,-0.17886 l 0.054,0.0632 h 0.2212 c -0.0607,0.11571 -0.096,0.24695 -0.096,0.38735 0,0.078 0.0113,0.15417 0.0318,0.22543 m 2.77495,0.31856 v 0.1912 h -0.30586 v -0.1912 h -0.18344 v 0.1912 h -0.30657 v -0.1912 h -0.18344 v 0.1912 h -0.62618 c 0.2674,-0.13723 0.44979,-0.41451 0.44979,-0.73519 l -0.002,-0.0529 h 1.0735 l -7.1e-4,0.0529 c 0,0.20814 0.0769,0.39829 0.20462,0.54399 z m 0.18415,0.1912 v -0.12523 c 0.054,0.049 0.11501,0.091 0.17992,0.12523 z m 1.95862,0 v -0.1912 h -0.18344 v 0.1912 h -0.30657 v -0.1912 h -0.18344 v 0.1912 l -0.30586,-0.0275 c 0.24095,-0.14393 0.40182,-0.40675 0.40182,-0.70767 0,-0.14041 -0.0342,-0.27164 -0.096,-0.38735 h 0.57397 c -0.0607,0.11571 -0.096,0.24694 -0.096,0.38735 0,0.32067 0.18274,0.59796 0.4498,0.73519 z m 2.87726,0 h -0.30621 v -0.1912 h -0.18309 v 0.1912 h -0.30586 v -0.1912 h -0.18415 v 0.1912 h -0.30586 v -0.1912 h -0.18345 v 0.1912 h -0.30691 v -0.0582 c 0.21413,-0.14922 0.35383,-0.39687 0.35383,-0.67698 l -0.001,-0.0529 h 1.07351 l -0.002,0.0529 c 0,0.2794 0.13864,0.52529 0.35137,0.67522 z m 0.98002,0 h -0.13018 c 0.0452,-0.024 0.09,-0.0522 0.13018,-0.0833 z m 0.67345,0 v -0.1912 h -0.18415 v 0.1912 h -0.30586 v -0.1912 h -0.0695 c 0.12771,-0.1457 0.20461,-0.33585 0.20461,-0.54399 0,-0.1404 -0.0342,-0.27164 -0.0949,-0.38735 h 0.51152 c -0.0617,0.11571 -0.097,0.24695 -0.097,0.38735 0,0.32068 0.18344,0.59796 0.45085,0.73519 z m 1.3469,0 h -0.18097 c 0.066,-0.0342 0.12594,-0.0762 0.18097,-0.12523 z m 1.46932,-0.1912 v 0.1912 h -0.30691 v -0.1912 h -0.1831 v 0.1912 h -0.30621 v -0.1912 h -0.18415 v 0.1912 h -0.30586 v -0.1912 h -0.11888 c 0.1277,-0.1457 0.20567,-0.33585 0.20567,-0.54399 l -0.003,-0.0529 h 1.0735 l -7.1e-4,0.0529 c 0,0.20814 0.0773,0.39829 0.20461,0.54399 z m 0.18309,0.1912 v -0.0882 c 0.043,0.0324 0.0875,0.0624 0.13653,0.0882 z m 2.66312,-0.87983 -0.079,-0.16898 -0.16616,0.078 0.0797,0.17145 -0.27587,0.13371 -0.0815,-0.17569 -0.16616,0.078 0.0815,0.17463 -0.27764,0.12876 -0.0815,-0.17498 -0.16616,0.078 0.0804,0.17216 c -0.0967,0.0437 -0.19086,0.0843 -0.28081,0.12277 l -0.0635,-0.13723 c 0.0455,-0.10266 0.0709,-0.21661 0.0709,-0.33585 0,-0.1404 -0.0342,-0.27164 -0.0956,-0.38735 h 0.55069 l 0.36689,-0.46249 c 0.14217,0.28363 0.42298,0.48648 0.75388,0.51752 l 0.0229,0.0515 z"
       id="U-S-M3-Lee-Long"
       style="stroke-width:0.352778"
       sodipodi:nodetypes="ccccccccccccccccccccccsccsccccccsccccccccccccscccccccccccccccccccccccccccsccccccccccccssccccccccccccccccccccscccccccccccccccccccccccccccccccsccsccccccccccccccccccccccccccccccccccsccscccccccccccccccccccccccccccccccccccccccccccscccccc" />
  </g>
</svg>
