<?xml version="1.0" encoding="UTF-8" standalone="no"?>
<!-- Created with Inkscape (http://www.inkscape.org/) -->

<svg
   width="7.9664636mm"
   height="5.1925464mm"
   viewBox="0 0 7.9664636 5.1925464"
   version="1.1"
   id="svg1"
   sodipodi:docname="inkporter-svg-wi08174w.svg"
   xmlns:inkscape="http://www.inkscape.org/namespaces/inkscape"
   xmlns:sodipodi="http://sodipodi.sourceforge.net/DTD/sodipodi-0.dtd"
   xmlns="http://www.w3.org/2000/svg"
   xmlns:svg="http://www.w3.org/2000/svg">
  <sodipodi:namedview
     id="namedview1"
     pagecolor="#ffffff"
     bordercolor="#666666"
     borderopacity="1.0"
     inkscape:showpageshadow="2"
     inkscape:pageopacity="0.0"
     inkscape:pagecheckerboard="0"
     inkscape:deskcolor="#d1d1d1"
     inkscape:document-units="mm"
     inkscape:zoom="1.6641134"
     inkscape:cx="396.6076"
     inkscape:cy="561.25984"
     inkscape:window-width="3200"
     inkscape:window-height="1721"
     inkscape:window-x="2391"
     inkscape:window-y="-9"
     inkscape:window-maximized="1"
     inkscape:current-layer="layer1" />
  <defs
     id="defs1" />
  <g
     inkscape:label="Layer 1"
     inkscape:groupmode="layer"
     id="layer1"
     transform="translate(-76.993757,-136.26042)">
    <g
       id="U-S-Bazooka"
       transform="matrix(-1,0,0,1,500.73508,-345.95139)">
      <path
         id="path12429-7-2"
         style="fill:#000000;stroke-width:0.00645075"
         d="m 422.37351,487.07282 c -0.0672,-0.0111 -0.21563,-0.0212 -0.32966,-0.0224 -0.11402,-6.6e-4 -0.22268,-0.003 -0.24145,-0.006 -0.0494,-0.005 -0.0247,-0.30257 0.047,-0.5647 0.0579,-0.21172 -0.009,-0.26521 -0.0553,-0.34587 -0.0153,-0.0269 -0.0185,-0.0858 -0.007,-0.14376 0.0259,-0.13239 0.0237,-0.13856 -0.0554,-0.14612 -0.0378,-0.004 -0.11668,-0.03 -0.17531,-0.0586 -0.12842,-0.0628 -0.25441,-0.0969 -0.3712,-0.10068 -0.0811,-0.003 -0.0886,0.004 -0.11767,0.0932 -0.0355,0.10965 -0.12077,0.47289 -0.1708,0.72703 -0.048,0.24397 -0.19037,0.63075 -0.26153,0.71065 -0.0595,0.0667 -0.10753,0.0841 -0.27251,0.0985 -0.1806,0.0157 -0.73162,-0.1582 -0.80737,-0.25488 -0.0764,-0.0976 -0.24376,-0.16447 -0.36486,-0.14591 -0.0572,0.009 -0.12375,0.023 -0.14786,0.0316 -0.054,0.0192 -0.0946,0.12008 -0.0833,0.20663 0.0102,0.0759 -0.0699,0.21579 -0.14025,0.24548 -0.0804,0.0339 -0.16663,-0.051 -0.2217,-0.21833 -0.0265,-0.0804 -0.046,-0.16001 -0.0434,-0.17688 0.003,-0.0169 0.007,-0.0612 0.01,-0.0987 0.003,-0.0374 0.0307,-0.10795 0.0621,-0.15678 0.0314,-0.0488 0.0647,-0.1342 0.0738,-0.18972 0.0205,-0.12458 0.0836,-0.22161 0.15003,-0.23067 0.0276,-0.004 0.0974,0.0136 0.15527,0.0388 0.19086,0.0827 0.30887,0.11049 0.54827,0.12893 0.13017,0.01 0.2871,0.022 0.34876,0.0268 0.0693,0.005 0.14183,0.032 0.18997,0.07 0.0429,0.0338 0.0882,0.0601 0.10078,0.0583 0.0281,-0.004 0.0315,0.009 -0.0359,-0.14262 -0.0309,-0.0701 -0.0793,-0.25356 -0.10717,-0.40788 -0.0284,-0.15424 -0.0718,-0.3475 -0.0975,-0.42931 -0.0258,-0.0819 -0.0528,-0.18948 -0.06,-0.23923 -0.0129,-0.0884 -0.0151,-0.0902 -0.10379,-0.0778 -0.14818,0.021 -0.16269,0.004 -0.17683,-0.20288 -0.008,-0.11078 -0.0236,-0.19082 -0.0407,-0.20365 -0.0347,-0.0259 -0.0287,-0.15656 0.0173,-0.20751 0.0266,-0.0294 0.20911,-0.1615 0.12821,-0.2308 -0.0524,-0.0449 -0.10183,-0.10783 -0.1099,-0.14 -0.008,-0.0322 -0.0368,-0.0643 -0.0637,-0.0713 -0.0671,-0.0176 -0.0655,-0.11516 0.002,-0.13284 0.0416,-0.0109 0.0485,-0.0264 0.0371,-0.0836 -0.0138,-0.0691 0.0985,-0.0412 0.16408,-0.23455 0.0183,-0.0539 0.0352,-0.11832 0.0377,-0.14318 0.006,-0.0642 0.10068,-0.25353 0.1555,-0.31189 0.0439,-0.0466 0.0438,-0.05 9e-4,-0.0631 -0.025,-0.008 -0.11677,-0.009 -0.20384,-0.003 -0.13313,0.009 -0.16254,0.0192 -0.18473,0.0623 -0.0345,0.0667 -0.0628,0.0668 -0.13031,5.5e-4 -0.42064,-0.0759 -0.3834,-0.0126 -0.20929,-0.44694 0.0935,0.002 0.15155,0.0148 0.15303,0.033 0.001,0.0181 0.0568,0.0308 0.14329,0.0326 0.0775,0.002 0.18165,0.007 0.23146,0.012 0.0859,0.008 0.0906,0.005 0.0928,-0.0614 0.002,-0.0662 0.01,-0.0714 0.12734,-0.0879 0.17995,-0.0251 0.28448,-0.002 0.30814,0.0693 0.0132,0.0391 0.0347,0.0556 0.066,0.05 0.0256,-0.004 0.11831,-0.006 0.20605,-0.002 0.10521,0.004 0.17324,-0.004 0.19993,-0.0233 0.0574,-0.0426 0.0483,-0.0616 -0.0348,-0.0729 -0.0991,-0.0135 -0.13939,-0.0579 -0.11118,-0.12271 0.0121,-0.0279 0.0187,-0.0924 0.0146,-0.14339 -0.01,-0.12372 0.0463,-0.25494 0.14185,-0.33063 0.10539,-0.0835 0.35942,-0.10764 0.48217,-0.0452 0.0885,0.0446 0.18123,0.15409 0.21323,0.2519 0.0107,0.0328 0.0366,0.0712 0.0575,0.0852 0.0598,0.0404 0.0377,0.11387 -0.0387,0.12903 -0.0523,0.0103 -0.0633,0.0227 -0.0495,0.0563 0.01,0.0237 0.0112,0.0875 0.004,0.14191 l -0.0139,0.099 0.17436,0.003 c 0.0958,10e-4 0.33914,-9.4e-4 0.54054,-0.006 0.20139,-0.005 0.48197,-0.006 0.6235,-0.003 0.14152,0.003 0.41651,8.2e-4 0.61109,-0.005 l 0.35379,-0.0111 0.022,0.184 c 0.0174,0.13993 0.0136,0.19192 -0.0118,0.21701 -0.0404,0.0394 -0.13479,0.0232 -0.13861,-0.0239 -10e-4,-0.0183 -0.0132,-0.0387 -0.0259,-0.0453 -0.0127,-0.006 -0.30755,-0.0104 -0.65506,-0.009 -0.3475,0.002 -0.6732,0.002 -0.72379,-5e-5 -0.0784,-0.003 -0.0913,0.004 -0.0881,0.0442 0.002,0.026 0.0298,0.0895 0.0617,0.1411 0.0318,0.0516 0.0113,0.20526 0.019,0.27051 0.0135,0.11457 0.0112,0.12037 -0.0684,0.16891 -0.0603,0.0368 -0.12393,0.0503 -0.23678,0.0504 -0.13734,8e-5 -0.35128,-0.0585 -0.47297,0.0224 -0.16276,0.10803 -0.1466,0.14764 -0.19738,0.24584 -0.0327,0.0632 -0.0358,0.24543 -0.0325,0.28232 0.004,0.0486 0.0146,0.0713 0.0232,0.11143 0.0132,0.0611 0.011,0.0544 0.0697,0.12935 0,0 0.0348,0.0478 0.0801,0.0607 0.0569,0.0163 0.11472,0.044 0.15291,0.0582 0.0382,0.0141 0.13179,0.0354 0.20807,0.0475 0.17744,0.0279 0.56431,0.1557 0.62553,0.20659 0.0905,0.0752 0.11727,0.15492 0.11942,0.35566 0.003,0.26265 -0.0429,0.50192 -0.114,0.59706 -0.0744,0.0996 -0.0441,0.20437 -0.0619,0.37548 -0.0137,0.13179 -0.0124,0.13515 0.0807,0.21952 0.0985,0.0892 0.11355,0.096 0.25814,0.11725 0.13657,0.02 0.26299,0.18036 0.17833,0.22612 -0.0683,0.0369 -0.27655,0.0531 -0.40691,0.0316 z m -0.60639,-3.74403 c -10e-4,-0.0134 -0.0266,-0.0221 -0.0566,-0.0196 -0.0442,0.004 -0.0473,0.009 -0.0163,0.0255 0.0496,0.0266 0.0753,0.0245 0.0729,-0.006 z"
         sodipodi:nodetypes="cccsscssscsssssscssssssscssssscssccsssscssscsccsccssscsccccsssscscscsccssscccscssssssscsssssscsssssssccscss" />
      <path
         style="fill:#000000;stroke-width:0.0102233"
         d="m 418.1586,487.22843 c 0.0394,-0.0134 0.0984,-0.0386 0.13126,-0.0559 0.0328,-0.0173 0.11224,-0.0478 0.17647,-0.0679 l 0.1168,-0.0365 0.027,-0.025 0.027,-0.025 0.0726,-0.0215 c 0.10236,-0.0303 0.12115,-0.056 0.0836,-0.11428 -0.0141,-0.0218 -0.0457,-0.2034 -0.0707,-0.40429 l -0.0119,-0.0954 -0.0198,-0.0145 -0.0198,-0.0145 h -0.0574 -0.0574 l -0.0561,-0.0338 c -0.0308,-0.0186 -0.10998,-0.0786 -0.17582,-0.13344 l -0.11971,-0.0997 -0.0215,-0.0421 -0.0215,-0.0421 0.005,-0.0399 c 0.003,-0.0219 0.0175,-0.0573 0.0322,-0.0787 l 0.0269,-0.0388 0.0397,-0.0179 0.0397,-0.0179 0.0102,-0.0269 c 0.005,-0.0148 0.0121,-0.0522 0.0143,-0.0831 l 0.004,-0.0562 0.0411,-0.0716 c 0.1177,-0.20492 0.14875,-0.2568 0.16133,-0.26952 l 0.0138,-0.0139 0.0575,-0.003 0.0575,-0.003 0.0189,-0.0172 0.0189,-0.0172 0.007,-0.11145 0.007,-0.11145 0.0324,-0.003 0.0324,-0.003 -0.003,-0.0441 -0.003,-0.0441 0.02,-0.0282 c 0.0111,-0.0154 0.0228,-0.0393 0.0261,-0.053 l 0.006,-0.025 -0.026,-0.0299 -0.026,-0.0299 0.006,-0.0212 c 0.004,-0.0117 0.008,-0.0265 0.0111,-0.0329 0.006,-0.017 -0.0531,-0.0808 -0.0895,-0.0959 l -0.0313,-0.013 -0.0331,0.0321 -0.0332,0.0321 h -0.0267 -0.0267 l -0.0265,0.0315 c -0.0145,0.0173 -0.0444,0.0622 -0.0664,0.0997 -0.0487,0.0835 -0.0629,0.0966 -0.13204,0.1228 -0.0299,0.0113 -0.0656,0.028 -0.0792,0.0368 l -0.0249,0.0163 v 0.0283 c 0,0.0156 0.009,0.0457 0.0198,0.0671 l 0.0198,0.0389 -0.0116,0.0272 c -0.006,0.015 -0.0124,0.0284 -0.0132,0.0299 -9.1e-4,0.002 -0.0263,-0.008 -0.0567,-0.0225 -0.077,-0.0351 -0.16247,-0.0465 -0.34806,-0.0466 l -0.15992,-7e-5 -0.0154,-0.0384 -0.0154,-0.0383 0.021,-0.0358 c 0.0116,-0.0197 0.039,-0.0576 0.061,-0.0843 0.0486,-0.0592 0.0692,-0.0973 0.0693,-0.12832 4e-5,-0.0129 0.0145,-0.0613 0.0322,-0.10734 l 0.0321,-0.0838 0.0338,-0.0307 c 0.0434,-0.0393 0.0537,-0.0686 0.0481,-0.13801 l -0.005,-0.0562 0.0849,-0.0951 0.0848,-0.0952 0.0894,0.007 0.0895,0.007 0.0309,-0.033 0.0309,-0.033 v -0.0251 c 0,-0.0138 0.01,-0.0461 0.0213,-0.0718 0.0117,-0.0257 0.0239,-0.0634 0.027,-0.0837 0.003,-0.0204 0.0125,-0.0449 0.0209,-0.0546 0.0229,-0.0264 0.0184,-0.0647 -0.0122,-0.10099 l -0.0273,-0.0326 0.003,-0.0208 0.003,-0.0208 0.057,-0.0189 0.057,-0.0189 0.0387,-0.0396 0.0387,-0.0396 -0.007,-0.0219 c -0.004,-0.0121 -0.0324,-0.0388 -0.0633,-0.0593 l -0.0563,-0.0374 -0.0343,-0.0681 c -0.0641,-0.12726 -0.15301,-0.19349 -0.28764,-0.21424 l -0.0733,-0.0112 -0.0768,0.0107 c -0.13687,0.019 -0.24015,0.0699 -0.31907,0.15726 l -0.0443,0.0491 -0.0223,0.0583 -0.0223,0.0583 4.2e-4,0.0562 4.2e-4,0.0562 0.0218,0.0614 0.0218,0.0614 0.005,0.0793 0.005,0.0793 -0.0525,0.0501 -0.0525,0.0501 -0.0451,0.0126 c -0.0249,0.007 -0.0475,0.0166 -0.0505,0.0215 -0.003,0.005 -0.0138,0.009 -0.024,0.009 h -0.0185 l -0.026,-0.0393 c -0.0302,-0.0456 -0.16476,-0.1503 -0.21625,-0.16822 l -0.0353,-0.0123 0.0275,-0.0615 c 0.0346,-0.0774 0.0797,-0.15426 0.10601,-0.18053 l 0.0202,-0.0202 -0.005,-0.0152 c -0.007,-0.0201 0.0213,-0.0752 0.0397,-0.0752 0.0202,0 0.0297,-0.0189 0.032,-0.0634 l 0.002,-0.0382 0.0403,-0.0642 c 0.0222,-0.0353 0.0433,-0.076 0.0468,-0.0904 l 0.006,-0.0262 -0.016,-0.0228 c -0.009,-0.0125 -0.0134,-0.0294 -0.0103,-0.0374 0.0165,-0.0428 -0.0587,-0.0598 -0.0947,-0.0214 l -0.0229,0.0244 -0.0187,-0.005 c -0.0102,-0.003 -0.0283,2e-4 -0.0402,0.006 l -0.0215,0.0115 v 0.0348 c 0,0.0191 0.005,0.0377 0.0102,0.0411 0.028,0.0173 -0.0461,0.18006 -0.13505,0.29679 -0.0256,0.0335 -0.0775,0.12083 -0.11546,0.19393 -0.0846,0.16294 -0.073,0.14648 -0.19874,0.28152 l -0.10407,0.1117 -0.0808,0.0421 -0.0808,0.0421 -0.076,0.0783 c -0.0418,0.0431 -0.11778,0.13116 -0.16887,0.19582 -0.0511,0.0646 -0.0973,0.12285 -0.10267,0.12931 -0.11904,0.14305 -0.18492,0.29466 -0.22068,0.50784 l -0.0168,0.10044 -0.0349,0.0734 c -0.0192,0.0404 -0.0467,0.11942 -0.0612,0.1756 l -0.0262,0.10215 -0.002,0.11756 -0.002,0.11758 0.019,0.028 c 0.0233,0.0344 0.13776,0.11727 0.18296,0.13252 0.0182,0.006 0.0346,0.0123 0.0361,0.0134 0.004,0.003 -0.0487,0.13484 -0.0984,0.24558 -0.0227,0.0504 -0.0441,0.10349 -0.0476,0.11807 l -0.006,0.0265 0.0251,0.0299 0.0251,0.0299 0.0981,0.0407 c 0.0539,0.0224 0.10761,0.0478 0.11917,0.0565 l 0.021,0.0158 -0.0113,0.0503 c -0.006,0.0276 -0.0297,0.089 -0.0521,0.13627 -0.059,0.12419 -0.0723,0.21067 -0.0491,0.31897 l 0.0113,0.0524 0.0321,0.0366 c 0.0177,0.0201 0.0495,0.0443 0.0706,0.0539 l 0.0385,0.0172 0.0647,0.002 0.0647,0.002 0.036,-0.0399 0.036,-0.0399 0.007,-0.05 c 0.0104,-0.0695 0.0207,-0.0843 0.0735,-0.10696 0.0635,-0.0272 0.0717,-0.026 0.16624,0.0263 0.35058,0.19392 0.41436,0.22332 0.53542,0.2467 l 0.0839,0.0163 0.12523,-0.006 0.12522,-0.006 0.0383,-0.0199 c 0.0211,-0.011 0.0643,-0.045 0.0959,-0.0755 l 0.0575,-0.0555 0.0205,-0.055 0.0205,-0.055 0.0574,-0.014 c 0.0315,-0.007 0.0643,-0.0114 0.0728,-0.008 l 0.0154,0.005 v 0.0444 c 0,0.0245 0.005,0.0718 0.0111,0.1051 l 0.0112,0.0606 0.0238,0.0313 0.0238,0.0314 0.0404,0.0121 c 0.0564,0.0169 0.0789,0.0151 0.16076,-0.0129 z m -0.18279,-0.8074 c -0.0203,-0.0249 -0.037,-0.0549 -0.037,-0.0669 v -0.0217 l 0.0477,-0.051 0.0477,-0.051 0.008,0.008 c 0.005,0.005 0.0159,0.0517 0.025,0.10445 l 0.0164,0.096 -0.0184,0.0135 c -0.0309,0.0226 -0.0513,0.0154 -0.09,-0.0317 z m -0.52902,-0.24875 c -0.0527,-0.0826 -0.0907,-0.16106 -0.0907,-0.18717 v -0.019 l 0.0639,-0.0294 c 0.0351,-0.0162 0.093,-0.0425 0.12848,-0.0583 l 0.0645,-0.0289 0.0354,0.0354 0.0354,0.0354 -0.0159,0.0452 c -0.0139,0.0393 -0.16266,0.27309 -0.1754,0.27559 -9.1e-4,1.9e-4 -0.0215,-0.0307 -0.0456,-0.0687 z m -1.12479,-0.0999 0.007,-0.0713 0.0226,0.0358 c 0.0294,0.0466 0.0285,0.0655 -0.005,0.0914 -0.0347,0.0273 -0.0343,0.0283 -0.0255,-0.0559 z m 2.31198,-1.15815 c 0,-0.005 0.007,-0.0172 0.0161,-0.0282 0.009,-0.0109 0.0142,-0.0152 0.0118,-0.01 -0.003,0.005 -0.007,0.0183 -0.0107,0.0281 -0.006,0.0184 -0.0172,0.0243 -0.0172,0.01 z"
         id="path12067-2-1-9" />
    </g>
  </g>
</svg>
