<?xml version="1.0" encoding="UTF-8" standalone="no"?>
<!-- Created with Inkscape (http://www.inkscape.org/) -->

<svg
   width="29.766991mm"
   height="6.2295699mm"
   viewBox="0 0 29.766991 6.2295699"
   version="1.1"
   id="svg79628"
   sodipodi:docname="inkporter-svg-ngslot45.svg"
   xmlns:inkscape="http://www.inkscape.org/namespaces/inkscape"
   xmlns:sodipodi="http://sodipodi.sourceforge.net/DTD/sodipodi-0.dtd"
   xmlns="http://www.w3.org/2000/svg"
   xmlns:svg="http://www.w3.org/2000/svg">
  <sodipodi:namedview
     id="namedview79630"
     pagecolor="#ffffff"
     bordercolor="#666666"
     borderopacity="1.0"
     inkscape:pageshadow="2"
     inkscape:pageopacity="0.0"
     inkscape:pagecheckerboard="0"
     inkscape:document-units="mm"
     showgrid="false"
     inkscape:zoom="0.64052329"
     inkscape:cx="135.04583"
     inkscape:cy="561.25984"
     inkscape:window-width="1920"
     inkscape:window-height="1017"
     inkscape:window-x="-8"
     inkscape:window-y="-8"
     inkscape:window-maximized="1"
     inkscape:current-layer="layer1" />
  <defs
     id="defs79625" />
  <g
     inkscape:label="Layer 1"
     inkscape:groupmode="layer"
     id="layer1"
     transform="translate(-43.77297,-119.56811)">
    <path
       id="U-S-3inch"
       d="m 54.33408,119.57023 -0.42167,0.7829 h -4.48397 v 0.50022 l 0.11988,0.11988 h -5.77535 v 0.56224 h 6.06888 l 0.12145,0.11989 h 0.25733 v 0.21084 h -0.72035 v -0.11472 h -0.11991 v 0.73898 h 0.12919 v -0.11988 l 4.27622,0.03 -0.0511,0.38344 c -0.11856,0.23564 -0.18449,0.50022 -0.18449,0.78134 0,0.96049 0.77737,1.73736 1.73789,1.73736 0.75102,0 1.39043,-0.47506 1.63295,-1.14205 l 3.36209,0.39688 -0.004,0.29093 -0.18859,0.19585 -0.23823,0.0206 -0.047,0.0537 0.0439,0.10594 0.40359,0.0206 0.0868,-0.0646 0.0982,-0.006 0.007,0.047 0.26355,0.0109 -0.005,-0.0537 -0.019,-0.44907 -0.0254,-0.12764 0.92192,0.10903 0.0956,0.4253 0.10853,0.15398 0.20566,-0.0151 0.39947,-0.19171 0.15296,-0.0631 0.076,-0.0982 0.11163,0.0206 0.24392,-0.0151 0.0124,0.047 -0.004,0.18449 0.12404,0.14055 0.19171,0.004 0.0156,-0.11265 0.1819,0.009 0.0868,-0.0651 0.10078,-0.005 0.005,0.0465 0.26305,0.0114 -0.005,-0.0527 -0.006,-0.14677 0.98755,0.11679 0.10026,0.14057 0.20515,-0.0156 0.0982,-0.047 0.66662,0.37362 v 0.24082 h 0.52657 v -0.47387 l 0.11422,-0.1478 0.29816,0.0156 0.0868,-0.0646 0.0992,-0.005 0.005,0.047 0.26458,0.0109 -0.005,-0.0522 -0.019,-0.44958 -0.091,-0.45734 0.006,-0.018 v 0 l 0.18603,-0.22841 h 0.0294 l 0.14623,0.0553 0.42842,0.047 0.15192,0.40513 0.13488,0.60359 0.10904,0.15452 0.20516,-0.0164 0.39944,-0.19172 0.15298,-0.0636 0.0744,-0.0977 0.11163,0.0222 0.24545,-0.0151 0.0124,0.0455 -0.003,0.18603 0.12248,0.14057 0.19172,0.003 0.0222,-0.15711 -0.0289,-0.18603 -0.11007,-0.18709 -0.0164,-0.11316 0.0259,-0.0439 -0.0754,-0.18759 -0.17777,-0.01 -0.15452,0.10853 -0.17931,0.0444 -0.0713,-0.061 h -0.25114 l -0.0646,-0.0796 0.0413,-0.48784 h 0.0522 l 0.22635,-0.0222 0.0548,-0.1116 0.0164,-0.20412 0.0604,-0.0786 -0.0382,-0.3829 -0.21238,-0.34883 -0.18449,-0.0687 -0.018,-0.0992 0.0538,-0.0249 0.0925,-0.0786 0.062,-0.0842 -0.0692,-0.19997 -0.21188,-0.40619 -0.25217,-0.2563 -0.24289,-0.11059 -0.18603,0.0444 -0.0672,0.11006 -0.11988,0.0249 -0.25114,-0.17362 -0.14161,-0.007 -0.0941,-0.0884 0.0196,-0.0527 0.0537,-0.0124 c 0,0 -0.0164,-0.0164 -0.0156,-0.0729 l 0.0156,-0.0548 0.01,-0.061 v -0.0465 l -0.01,-0.0909 -0.014,-0.047 c 0,0 -0.019,-0.0442 -0.0357,-0.0661 l -0.0801,-0.0894 c 0,0 -0.0402,-0.0332 -0.0512,-0.0362 l -0.0579,-0.0233 -0.0661,-0.0164 -0.0548,-0.006 -0.0734,-0.008 -0.0755,0.0109 -0.0692,0.0124 c 0,0 -0.0697,0.0222 -0.0904,0.0388 l -0.0568,0.0413 c -0.0481,0.0358 -0.0548,0.0636 -0.0548,0.0636 l -0.0413,0.0744 -0.0249,0.0703 -0.0238,0.10851 -0.062,0.061 -0.0661,0.0161 0.0227,0.005 0.21085,0.0429 -0.0522,0.18446 0.0522,0.0305 0.0164,0.0496 0.0305,0.12557 0.0615,0.0331 0.0568,0.003 0.0455,-0.0196 h 0.0744 l 0.01,0.0511 -0.0289,0.11835 -0.0233,0.14883 0.003,0.1297 0.01,0.10491 0.0729,0.13229 0.0594,0.077 0.0315,0.0512 -0.48475,-0.0265 -0.11472,-0.0305 -0.11007,-0.0315 -0.0646,-0.0265 -0.1819,-0.0135 -0.0718,0.0233 -0.0992,0.01 -0.10491,0.018 -0.14055,0.0341 0.0816,0.0279 0.0465,0.0151 0.0842,0.0151 0.0729,0.0124 0.0692,0.0594 0.0713,0.0538 0.0594,0.0315 0.0925,-0.0108 0.0744,-0.004 h 0.0739 l 0.0884,0.0413 0.0289,0.11885 0.0883,0.0414 0.15142,0.0713 0.19171,0.0925 0.1845,0.0537 0.15139,0.0388 0.1075,0.17777 -0.83923,0.0175 -0.17465,0.17518 0.0274,0.38966 0.0403,0.29919 0.1292,0.17364 0.15711,0.062 0.0816,0.17775 -0.19222,0.23566 -0.28112,0.0455 -0.029,0.0217 -0.0403,-0.0693 -0.0175,-0.11317 0.0274,-0.0455 -0.077,-0.18603 -0.17778,-0.01 -0.1266,0.0894 -0.0206,-0.004 -0.004,0.0212 -0.004,0.003 -0.17777,0.0424 -0.0491,-0.0398 0.0233,-0.14626 -0.0899,-0.014 -0.0222,0.14108 h -0.18603 l -0.0646,-0.0796 0.0429,-0.48783 h 0.0522 l 0.22479,-0.0222 0.0548,-0.1116 0.0164,-0.20413 0.061,-0.0786 -0.0403,-0.38447 -0.21238,-0.34726 -0.18293,-0.0687 -0.018,-0.0992 0.0537,-0.0265 0.0936,-0.077 0.061,-0.0853 -0.0692,-0.19844 -0.21085,-0.40669 -0.2532,-0.2563 -0.24289,-0.11007 -0.18603,0.0439 -0.0672,0.11006 -0.11988,0.0249 -0.26046,-0.19531 -0.032,-0.0941 0.008,-0.0796 v -0.11163 l -0.062,-0.1669 -0.13076,-0.13385 -0.27025,-0.0315 -0.21912,0.0827 -0.13486,0.15555 -0.0222,0.12557 -0.14883,0.15036 -0.11885,0.0109 0.003,0.21085 0.0661,0.014 0.0563,0.10748 -0.22222,0.33901 -0.16536,0.40772 -0.004,0.21082 0.14314,0.10234 0.23151,0.004 0.23979,-0.0827 0.18087,-0.13539 0.19119,0.0356 0.27596,0.48112 -0.0164,0.19844 -0.84077,0.018 -0.17468,0.17465 0.0259,0.39016 0.0413,0.29921 0.10128,0.13592 -0.58031,-0.092 0.008,-0.0465 -0.11318,-0.0164 -0.005,0.0455 -0.11885,-0.018 -0.0151,0.0925 0.11988,0.0175 -0.0124,0.0925 -0.3116,-0.046 0.0265,-0.31213 h 0.0537 l 0.22479,-0.0217 0.0548,-0.11163 0.0164,-0.20566 0.061,-0.077 -0.0387,-0.38446 -0.21241,-0.34727 -0.18447,-0.0687 -0.018,-0.10078 0.0537,-0.0249 0.0941,-0.077 0.0605,-0.0858 -0.0687,-0.19947 -0.21082,-0.40513 -0.25374,-0.25633 -0.24236,-0.11057 -0.18605,0.0429 -0.0677,0.11163 -0.11989,0.0249 -0.25063,-0.17362 -0.14211,-0.007 -0.0935,-0.0899 0.019,-0.0511 0.0538,-0.0135 c 0,0 -0.0161,-0.0169 -0.0151,-0.0734 l 0.0151,-0.0548 0.0109,-0.0594 v -0.0465 l -0.0109,-0.0925 -0.014,-0.047 c 0,0 -0.019,-0.0439 -0.0356,-0.0646 l -0.0786,-0.0899 c 0,0 -0.0431,-0.0332 -0.0512,-0.0372 l -0.0579,-0.0233 -0.0672,-0.0151 -0.0553,-0.007 -0.0729,-0.007 -0.076,0.01 -0.0687,0.014 c 0,0 -0.0703,0.0206 -0.0909,0.0372 l -0.0569,0.0424 c -0.0487,0.0358 -0.0537,0.062 -0.0537,0.062 l -0.0424,0.0744 -0.0249,0.0703 -0.0222,0.11057 -0.0636,0.0605 -0.0661,0.0164 0.0222,0.005 0.21082,0.0429 -0.0522,0.18605 0.0522,0.0305 0.0164,0.048 0.0305,0.12663 0.062,0.032 0.0563,0.004 0.047,-0.019 h 0.0729 l 0.01,0.0496 -0.029,0.11989 -0.0119,0.0765 h -1.10072 l 0.22738,-0.11419 v -1.00045 l -0.17777,-0.17777 h -0.13383 v -0.1628 h -0.13488 v 0.1628 h -0.87953 v -0.50437 h -0.10594 v 0.50437 h -0.0465 l -0.1447,0.1447 h -1.06246 l -0.11472,0.18757 h -0.12091 v -0.11989 h -0.0718 v 0.11989 h -1.04748 v -0.16794 h 0.11575 v -0.45217 h -0.1447 v -0.24961 h -0.25477 l -0.28834,0.28837 H 54.1895 v -0.23048 l 0.28784,-0.55242 z m 16.3127,1.07331 -0.076,0.0108 -0.0687,0.0124 c 0,0 -0.0702,0.0222 -0.0909,0.0388 l -0.0569,0.0414 c -0.0487,0.0358 -0.0537,0.0636 -0.0537,0.0636 l -0.0408,0.0744 -0.0265,0.0703 -0.0222,0.1085 -0.0636,0.061 -0.0661,0.0161 0.0233,0.005 0.21238,0.0429 -0.0537,0.18447 0.0537,0.0305 0.0151,0.0496 0.0305,0.12558 0.062,0.0331 0.0563,0.003 0.0471,-0.0196 h 0.0729 l 0.0103,0.0512 -0.0289,0.11835 -0.0238,0.14882 0.004,0.1297 0.01,0.10491 0.0734,0.13229 0.0589,0.077 0.0321,0.0512 -0.48522,-0.0265 -0.11422,-0.0305 -0.11163,-0.0315 -0.0636,-0.0265 -0.18346,-0.0135 -0.0713,0.0233 -0.0982,0.01 -0.10438,0.018 -0.14211,0.0341 0.0827,0.0279 0.047,0.0151 0.0827,0.0151 0.0729,0.0124 0.0687,0.0594 0.0734,0.0538 0.0579,0.0315 0.092,-0.0109 0.076,-0.004 h 0.0729 l 0.0884,0.0413 0.0289,0.11885 0.0884,0.0413 0.1514,0.0713 0.19172,0.0925 0.18605,0.0537 0.14986,0.0388 0.10904,0.17778 -0.83924,0.0175 -0.17518,0.17518 0.0265,0.38965 0.0414,0.29919 0.12813,0.17365 0.15865,0.062 0.0827,0.18034 -0.006,0.29765 -0.18759,0.19431 -0.23977,0.0222 -0.0465,0.0527 0.0439,0.10594 0.40359,0.0206 0.0868,-0.0646 0.0992,-0.005 0.006,0.047 0.26458,0.0109 -0.007,-0.0522 -0.0175,-0.44958 -0.0909,-0.45733 0.0408,-0.13229 -0.0424,-0.19844 0.36792,0.13901 0.42842,0.047 0.15192,0.40513 0.13486,0.60359 0.10853,0.15452 0.20722,-0.0164 0.39947,-0.19171 0.1514,-0.0636 0.076,-0.0977 0.11163,0.0222 0.24548,-0.0151 0.0108,0.0455 -0.003,0.18603 0.12401,0.14058 0.19172,0.003 0.0206,-0.15711 -0.0289,-0.18603 -0.10904,-0.18708 -0.018,-0.11317 0.0279,-0.0439 -0.077,-0.18759 -0.17775,-0.01 -0.15298,0.10854 -0.17931,0.0444 -0.0718,-0.061 h -0.25061 l -0.0661,-0.0796 0.0424,-0.48783 h 0.0527 l 0.22479,-0.0222 0.0548,-0.1116 0.0164,-0.20413 0.0605,-0.0786 -0.0382,-0.38291 -0.21241,-0.34882 -0.18446,-0.0687 -0.018,-0.0992 0.0537,-0.0249 0.0935,-0.0786 0.061,-0.0842 -0.0692,-0.19997 -0.21085,-0.40619 -0.25218,-0.2563 -0.24391,-0.1106 -0.18603,0.0445 -0.0672,0.11007 -0.11885,0.0249 -0.25064,-0.17362 -0.14314,-0.007 -0.0925,-0.0884 0.019,-0.0527 0.0527,-0.0124 c 0,0 -0.0164,-0.0164 -0.0156,-0.0729 l 0.0156,-0.0548 0.0109,-0.061 v -0.0465 l -0.0109,-0.0909 -0.0124,-0.047 c 0,0 -0.0193,-0.0442 -0.0372,-0.0661 l -0.0786,-0.0894 c 0,0 -0.0412,-0.0332 -0.0512,-0.0362 l -0.0579,-0.0233 -0.0661,-0.0164 -0.0563,-0.006 z m -7.01146,1.04282 0.0512,0.11473 -0.0553,0.15711 -0.17467,0.1819 -0.15296,0.063 v -0.10594 l 0.0894,-0.17621 0.0951,-0.18346 0.0212,-0.045 z m -4.9227,0.66974 h 0.49352 c 0.003,0.0146 0.003,0.0302 0.004,0.0455 l -0.0682,0.0161 0.0455,0.0161 h -0.4749 z m 0.60928,0 h 0.16793 -0.003 l -0.0992,0.008 -0.0636,0.0119 c 0,-0.007 0,-0.014 -0.003,-0.0206 z m 0.44389,0 h 0.60719 v 0.0967 l -0.34104,-0.019 -0.11579,-0.0305 -0.11006,-0.03 z m -2.82101,0.014 h 0.57618 v 0.13642 l -0.57618,0.0538 z m 9.90843,0.10334 0.401,0.0265 0.0729,0.10851 -0.11316,-0.0135 -0.15142,-0.0196 z m 3.53415,0 0.40103,0.0265 0.0744,0.10851 -0.11266,-0.0135 -0.15296,-0.0196 z m -10.21901,0.0522 0.2031,0.0124 v 0.0853 z m -0.67696,0.0185 0.005,0.004 0.0734,0.0522 0.0579,0.0331 0.092,-0.0109 0.076,-0.004 h 0.0729 l 0.0884,0.0413 0.029,0.11732 0.0878,0.0413 0.15192,0.0718 0.14264,0.0698 v 0.008 l -1.02217,0.19122 -0.0388,-0.14058 c 0.007,-0.0249 0.005,-0.40923 0.0109,-0.44233 h 0.17365 z m -2.54661,0.0326 h 0.87487 c 0.0111,0.0675 0.35732,0.46971 0.3793,0.51519 l -0.72913,0.13542 z m 0.99218,0 1.05162,0.36793 -0.69866,0.13073 c -0.0206,-0.0413 -0.34195,-0.43937 -0.35296,-0.49866 z m 2.71145,0.4718 0.10441,0.0279 0.10903,0.17624 -0.83923,0.019 -0.17674,0.17518 0.005,0.0687 -0.0418,-0.007 -0.007,0.0372 -0.10181,-0.0164 -0.0114,0.0687 0.10338,0.0164 -0.0439,0.27545 -1.19216,-0.17623 0.88884,-0.19844 -0.0661,-0.23821 0.9896,-0.18605 v 0.0414 h 0.28112 z m -0.78753,0.60616 0.013,0.18241 0.01,0.0734 -0.0615,-0.009 z m 3.97494,0.24442 0.3664,0.13746 0.42995,0.047 0.15192,0.40669 0.0331,0.1478 -0.61494,-0.0904 0.0103,-0.0744 0.11991,0.019 0.0151,-0.092 -0.12145,-0.0196 0.007,-0.0522 -0.11163,-0.0156 -0.007,0.0496 -0.25993,-0.0413 -0.0185,-0.093 0.0429,-0.13076 z m -3.24321,0.0434 0.31679,0.11885 -0.30078,-0.0444 z m 6.70296,0.032 h 0.0971 l -0.077,0.094 z m -6.02962,0.13952 0.12301,0.0135 0.003,0.005 z m 1.40094,0.11369 0.78963,0.12507 0.014,0.0305 0.0274,0.06 -0.84388,-0.12454 z m 1.20769,0.19121 0.22686,0.0362 -0.0103,0.0754 -0.2,-0.0294 z m 3.09283,0.17209 v 0.047 0.0641 l -0.10232,0.0164 z m -0.003,0.16483 v 0.0408 l -0.15296,0.15708 z m -3.70417,0.15349 0.14367,0.0169 -0.0703,0.0729 -0.0372,0.004 -0.007,-0.0434 z" />
  </g>
</svg>
