<?xml version="1.0" encoding="UTF-8" standalone="no"?>
<!-- Created with Inkscape (http://www.inkscape.org/) -->

<svg
   width="17.371603mm"
   height="7.3808837mm"
   viewBox="0 0 17.371603 7.3808837"
   version="1.1"
   id="svg5570"
   sodipodi:docname="inkporter-svg-zgdocm6i.svg"
   xmlns:inkscape="http://www.inkscape.org/namespaces/inkscape"
   xmlns:sodipodi="http://sodipodi.sourceforge.net/DTD/sodipodi-0.dtd"
   xmlns="http://www.w3.org/2000/svg"
   xmlns:svg="http://www.w3.org/2000/svg">
  <sodipodi:namedview
     id="namedview5572"
     pagecolor="#ffffff"
     bordercolor="#666666"
     borderopacity="1.0"
     inkscape:pageshadow="2"
     inkscape:pageopacity="0.0"
     inkscape:pagecheckerboard="0"
     inkscape:document-units="mm"
     showgrid="false"
     inkscape:zoom="1.2810466"
     inkscape:cx="526.13231"
     inkscape:cy="1810.6289"
     inkscape:window-width="2400"
     inkscape:window-height="1271"
     inkscape:window-x="-9"
     inkscape:window-y="-9"
     inkscape:window-maximized="1"
     inkscape:current-layer="layer1"
     inkscape:snap-bbox="true"
     inkscape:snap-nodes="false"
     inkscape:snap-others="false"
     inkscape:bbox-paths="true"
     inkscape:bbox-nodes="true" />
  <defs
     id="defs5567" />
  <g
     inkscape:label="Layer 1"
     inkscape:groupmode="layer"
     id="layer1"
     transform="translate(-145.90136,-454.2293)">
    <g
       id="U-S-M3A1"
       transform="matrix(0.35277777,0,0,0.35277777,11.211912,328.75204)">
      <path
         style="fill:#000000;fill-opacity:1;fill-rule:nonzero;stroke:none"
         d="m 401.68359,358.95312 h 1.35547 l -0.67187,-0.3125 -0.6836,0.21485 z m 8.5,-0.66015 v 0.30859 h 0.25391 v -0.30859 z m 0.25391,-0.62891 h -0.25391 v 0.30078 h 0.25391 z m -6.375,2.33203 h 1.03906 l 0.25391,-0.53125 v -0.99609 h -0.84766 c -0.1289,-0.0508 -0.16406,-0.0312 -0.18359,0 h -0.19141 c -0.1289,-0.0508 -0.16406,-0.0312 -0.18359,0 h -0.19141 c -0.1289,-0.0508 -0.16406,-0.0312 -0.18359,0 h -0.91016 v 0.17578 l 0.47266,0.17188 v 0.38281 h -1.55469 v -0.40235 l 0.49219,-0.15234 v -0.0977 c 0,0 0,-0.10156 -1,-0.14843 l -3.58594,-0.17188 -0.48437,0.082 v -0.48047 h 0.48437 l 4.60156,0.0937 0.17188,-0.0898 H 402.5 l 0.32812,0.0156 h 0.26172 l 0.47657,-0.0547 c 0.14453,0.0664 0.18359,0.0391 0.19921,0 h 0.17579 c 0.14453,0.0664 0.18359,0.0391 0.19921,0 h 0.17579 c 0.14453,0.0664 0.18359,0.0391 0.19921,0 h 0.84375 l 0.004,-0.19531 1.30078,0.008 h 2.9375 l 0.15235,-0.17578 h 0.30078 l 0.0625,0.1875 h 0.47656 v 0.34765 l 0.0547,0.32813 -0.0547,0.30859 -0.15625,0.0547 -0.25391,-0.004 -1.0625,0.004 c 0.17578,0.16797 0.23047,0.375 0.12891,0.48828 -0.10547,0.12109 -0.27344,0.10156 -0.38281,0.0781 l -2.17969,-0.5 0.004,0.92187 h -0.24219 l -0.16797,0.35156 h 1.65234 c 0,0 1.65235,0 5.50391,1.07422 l 5.91797,1.65235 h 3.26953 v -0.91407 l -0.27734,0.10547 -0.20313,-0.0859 -0.0859,-0.19921 -0.27734,0.27343 -0.17188,0.0859 0.14454,0.375 -0.1875,0.21875 -0.20313,-0.17578 -0.043,-0.36328 -0.24609,-0.2461 0.24609,-0.44531 -0.1875,-0.1875 0.44922,-0.45312 1.23047,-0.9961 0.0859,-0.375 0.32031,0.19532 2.73047,-2.72657 0.30078,0.30469 -2.73047,2.73047 0.39063,0.19141 0.1289,0.35937 0.45703,0.45703 -0.83984,0.83985 -0.34766,0.008 v 0.51172 c 0,0 0,0.51172 1,0.51172 h 4.2461 c 0,0 2,0 2,2 v 5.26562 l 0.48437,0.043 v 1.3125 h -3.9375 v 0.48047 h -0.39453 v -0.34766 h -0.61328 v 0.5 c 0,0 0,0.50391 -0.22266,0.52344 0,0 0.22266,-0.0195 0,0 0,0 -0.22265,0.0195 -0.22265,1.14844 0,1.1289 -1.83203,2.95703 -4.08985,2.95703 -2.2539,0 -4.08593,-1.82813 -4.08593,-4.08594 0,-0.14844 0.008,-0.29687 0.0195,-0.36719 0,0 0.008,-0.0742 -4.64063,-0.0742 H 404.125 v 0.5 h -1.11328 V 372.0042 H 399.75 v 1.03515 h -5.40625 c -0.25391,2.01172 -1.96875,3.56641 -4.05078,3.56641 -2.25781,0 -4.08594,-1.82813 -4.08594,-4.08594 0,-0.36328 0.0469,-0.71875 0.13672,-1.05469 h -0.59766 l -0.30859,-0.61328 h -0.84375 c -0.008,0.76563 -0.62891,1.37891 -1.39844,1.37891 -0.77344,0 -1.39844,-0.625 -1.39844,-1.39844 0,-0.77344 0.625,-1.40234 1.39844,-1.40234 0.17188,0 0.33203,0.0312 0.48438,0.0859 l 0.45703,-0.69531 0.45703,-0.15625 0.23047,0.46094 h 0.6914 v -0.84375 h 0.84375 l 0.8086,-0.69141 0.6875,-0.45703 -0.30469,-0.46094 0.61328,-0.0781 0.0781,-0.33594 -0.39063,-0.30859 h 0.73828 v -0.19141 c 0,0 0,-0.1914 3.95313,-0.79687 l 7.3125,-1.1211 c 0,0 0.98828,-0.15234 1.64453,-0.90625 z m 0,0"
         id="path21655" />
      <path
         style="fill:#000000;fill-opacity:1;fill-rule:nonzero;stroke:none"
         d="m 411.92969,358.28516 0.0664,-0.27735 -0.0234,-0.12109 h -0.16797 l -0.10938,0.0469 -0.1289,-0.008 -0.14454,-0.0742 -0.0703,-0.29297 -0.0391,-0.11328 -0.12109,-0.0703 0.12109,-0.42969 -0.48828,-0.0976 0.0976,-0.0508 0.0937,-0.0586 0.10547,-0.33594 0.0586,-0.16406 0.0937,-0.17187 c 0.0156,-0.0625 0.0156,-0.0625 0.1289,-0.14844 l 0.12891,-0.0937 c 0.0508,-0.0391 0.21094,-0.0899 0.21094,-0.0899 l 0.16015,-0.0312 0.17578,-0.0195 0.16797,0.0156 0.13282,0.0117 0.15234,0.0391 0.13281,0.0547 c 0.0234,0.008 0.1211,0.0859 0.1211,0.0859 l 0.18359,0.20313 c 0.0391,0.0508 0.082,0.15625 0.082,0.15625 l 0.0312,0.10547 0.0234,0.21484 v 0.10547 l -0.0234,0.14063 -0.0352,0.1289 c -0.004,0.13281 -0.004,0.13281 0.0352,0.16797 l -0.12109,0.0312 -0.0469,0.11719 0.21485,0.21094 0.33203,0.0156 0.58203,0.39844 0.27734,-0.0547 c 0.0664,-0.1875 0.0664,-0.1875 0.15625,-0.25781 0.0937,-0.0703 0.34766,-0.11328 0.42969,-0.0977 0.0859,0.0156 0.50781,0.22266 0.5625,0.25391 0.0586,0.0312 0.49609,0.48437 0.58984,0.59375 0.0937,0.10547 0.48828,0.9414 0.48828,0.9414 0,0 0.17579,0.26954 0.16016,0.46094 -0.0117,0.19531 -0.0625,0.20703 -0.12891,0.24219 l -0.23046,0.13672 -0.1211,0.0586 0.043,0.23047 c 0.33984,0.082 0.33984,0.082 0.42578,0.16016 0.082,0.082 0.46485,0.68359 0.48828,0.80859 0.0234,0.12109 0.0234,0.12109 0.0937,0.88672 l -0.14062,0.18359 -0.0391,0.47266 c 0,0 -0.0352,0.14844 -0.12891,0.26172 -0.0898,0.10937 -0.51953,0.0508 -0.51953,0.0508 l -0.125,-0.004 -0.0937,1.13282 0.14844,0.1875 0.58203,-0.004 0.16797,0.14062 0.41406,-0.10156 c 0.20703,-0.21094 0.20703,-0.21094 0.35547,-0.2539 0.15234,-0.043 0.15234,-0.043 0.41406,0.0234 l 0.17578,0.42969 -0.0625,0.10547 0.043,0.26172 c 0.23437,0.36719 0.23437,0.36719 0.25,0.43359 0.0234,0.0664 0.0742,0.35156 0.0703,0.4336 -0.004,0.0781 -0.004,0.0781 -0.0859,0.23046 -0.26562,0.19922 -0.26562,0.19922 -0.41015,0.12891 -0.14453,-0.0742 -0.20313,-0.18359 -0.23047,-0.32812 -0.0273,-0.14454 -0.0273,-0.14454 -0.0469,-0.42969 l -0.14453,-0.21875 -0.45703,0.0508 -0.2539,0.043 -0.17579,0.23047 -0.35156,0.14453 -0.92969,0.44531 -0.47265,0.0391 -0.25781,-0.35937 -0.3125,-1.39844 -0.35157,-0.94141 -0.99218,-0.10937 -0.85547,-0.32031 0.10156,0.46093 -0.0977,0.30469 0.21094,1.0625 0.043,1.03906 0.0156,0.125 -0.61328,-0.0273 -0.0156,-0.10547 -0.23047,0.0117 -0.19922,0.14844 -0.93359,-0.0469 -0.10547,-0.24609 0.10937,-0.12109 0.55078,-0.0547 0.44141,-0.44922 0.0937,-0.0742 -0.0859,-0.61719 -0.1875,-0.41406 -0.36718,-0.14844 -0.30079,-0.39843 -0.0937,-0.69532 c 0,0 -0.0351,-0.64453 -0.0625,-0.90625 -0.0234,-0.25781 0.27735,-0.38281 0.40625,-0.40625 0.12891,-0.0195 0.12891,-0.0195 1.94532,-0.0391 l -0.42188,-0.69531 0.21485,-0.2461 -0.33594,-0.49218 -0.41797,0.3789 -0.55078,-0.18359 -1.16406,-1.16406 0.0586,-0.36719 -0.61328,-0.37109 0.1875,-0.73438 0.67187,0.0586 0.1875,0.55469 0.36719,-0.0625 0.42969,0.73828 0.17969,-0.25 -0.004,-0.14843 z m 0,0"
         id="path21657" />
    </g>
  </g>
</svg>
