<?xml version="1.0" encoding="UTF-8" standalone="no"?>
<!-- Created with Inkscape (http://www.inkscape.org/) -->

<svg
   width="17.542391mm"
   height="5.7961998mm"
   viewBox="0 0 17.542391 5.7961998"
   version="1.1"
   id="svg4377"
   sodipodi:docname="inkporter-svg-xillalpw.svg"
   xmlns:inkscape="http://www.inkscape.org/namespaces/inkscape"
   xmlns:sodipodi="http://sodipodi.sourceforge.net/DTD/sodipodi-0.dtd"
   xmlns="http://www.w3.org/2000/svg"
   xmlns:svg="http://www.w3.org/2000/svg">
  <sodipodi:namedview
     id="namedview4379"
     pagecolor="#ffffff"
     bordercolor="#666666"
     borderopacity="1.0"
     inkscape:pageshadow="2"
     inkscape:pageopacity="0.0"
     inkscape:pagecheckerboard="0"
     inkscape:document-units="mm"
     showgrid="false"
     inkscape:zoom="2.6547419"
     inkscape:cx="521.89632"
     inkscape:cy="496.28177"
     inkscape:window-width="1920"
     inkscape:window-height="1017"
     inkscape:window-x="-8"
     inkscape:window-y="-8"
     inkscape:window-maximized="1"
     inkscape:current-layer="layer1" />
  <defs
     id="defs4374" />
  <g
     inkscape:label="Layer 1"
     inkscape:groupmode="layer"
     id="layer1"
     transform="translate(-147.10397,-121.08445)">
    <path
       d="m 162.40126,126.37737 0.9729,-0.69591 c -0.0634,0.0193 -0.13092,0.0303 -0.2012,0.0303 -0.35967,0 -0.65457,-0.27698 -0.68351,-0.62976 l 0.0262,0.37759 -0.78824,0.14332 -0.0675,-0.17363 v 0.22737 h -0.20671 v -0.16536 l -0.1819,-0.39 h -0.37896 l -0.17088,0.30868 c 0,0 -0.16949,0.3073 -0.0827,0.32384 0,0 -0.0868,-0.0165 0,0 0,0 0.0868,0.0165 0.12265,-0.005 0.0344,-0.022 0.11851,-0.0482 0.20946,-0.0482 0.21497,0 0.3955,0.14745 0.44648,0.34726 h 0.0703 c 0,0 0.0717,0 0.0965,-0.0992 0.0262,-0.10059 0.2067,-0.24804 0.42168,-0.24804 0.25494,0 0.46026,0.2067 0.46026,0.46164 0,0.0854 -0.0234,0.16537 -0.0648,0.23565 m -1.3298,0.21359 0.45062,0.004 c 0,0 0.44923,0.005 0.34864,-0.003 -0.10198,-0.007 -0.26734,-0.15158 -0.31282,-0.34313 h -0.0703 c 0,0 -0.0689,0 -0.0896,0.0841 -0.0207,0.0854 -0.15572,0.21911 -0.32659,0.25769 m -1.29122,-0.0152 1.079,0.0124 c -0.20119,-0.0496 -0.34864,-0.23151 -0.34864,-0.44649 l -0.0551,-0.0592 -0.11299,-0.10336 v -0.16398 h -0.11438 v 0.1695 l -0.0854,0.0978 -0.0262,0.0289 c 0,0 -0.0262,0.0303 -0.0262,0.13091 0,0.1006 -0.12954,0.27147 -0.31006,0.33349 m -1.02664,-0.011 0.35691,0.004 c 0,0 0.35829,0.004 0.28664,-0.022 -0.0703,-0.0276 -0.17915,-0.14745 -0.21636,-0.29766 h -0.0785 c 0,0 -0.0813,0 -0.0978,0.0703 -0.0179,0.0717 -0.11851,0.18879 -0.2508,0.24529 m -1.57234,-0.7841 1.02939,0.64354 c -0.0606,-0.0786 -0.0978,-0.17639 -0.0978,-0.2825 0,-0.25493 0.20671,-0.46164 0.46165,-0.46164 0.19843,0 0.36793,0.1254 0.43132,0.30179 l 0.18741,0.01 c 0.062,-0.18053 0.23427,-0.31144 0.43684,-0.31144 0.0882,0 0.1695,0.0248 0.23978,0.0675 l 0.18741,-0.0358 -0.32108,-0.59117 h -0.0758 l -0.0524,-0.0579 -1.08864,-0.0207 -0.23014,-0.0482 c 0,0 -0.22875,-0.0496 -0.22738,-0.008 0,0 -10e-4,-0.0413 0,0 0,0 0.003,0.0427 0.003,0.25356 0,0.20946 -0.34176,0.55121 -0.76206,0.55121 -0.0413,0 -0.0813,-0.003 -0.12126,-0.01 m -3.51262,-4.40421 v 0.9536 l 0.29903,-0.0344 0.47405,-0.91915 z m -0.70005,4.21542 v -0.15021 l -0.006,0.14607 -0.1819,0.004 z m 11.07116,-1.01148 v 0.26054 l -0.008,0.4079 -0.0675,0.15434 c 0,0 -0.0661,0.15434 -0.35002,0.3638 l -1.33118,0.98116 -0.0786,0.0248 c 0,0 -0.0799,0.0248 -1.49104,0.0193 l -2.3027,-0.007 -0.11438,-0.073 -1.69499,-1.01975 -0.24529,-0.34589 -0.062,-0.17915 -0.36931,0.0758 h -1.37942 l -0.0124,0.20533 h -0.29353 l -0.0387,-0.20534 h -1.22508 l -0.007,0.19844 v 0.15021 h -0.18741 l -1.16996,0.022 c -0.10611,0.71658 -0.72209,1.26641 -1.46761,1.26641 -0.82131,0 -1.48828,-0.66559 -1.48828,-1.4869 0,-0.18741 0.0345,-0.36656 0.0978,-0.53192 l -0.25493,-0.0965 -0.0124,0.14882 0.0303,0.15848 -0.30317,-0.54984 -0.14745,0.12127 c 0,0.2825 -0.21497,0.49885 -0.48093,0.49885 -0.26596,0 -0.48094,-0.21635 -0.48094,-0.48094 0,-0.26596 0.21498,-0.48093 0.48094,-0.48093 0.04,0 0.0799,0.004 0.11713,0.0138 l 0.19293,-0.27009 0.22737,0.0785 v -0.0606 l 0.005,-0.10335 0.0496,-0.0965 0.1695,0.005 0.091,0.0854 h -0.091 l -0.091,0.0978 0.0124,0.0661 0.15159,0.006 0.13918,0.0427 v 0.073 h 0.31833 l 0.10335,-0.21222 -0.0909,-0.13366 0.10335,-0.12816 0.18191,-0.1819 0.2756,-0.55535 0.007,-0.23978 0.12678,0.007 0.14607,0.0482 0.0758,0.0248 c 0,0 0.0758,0.0262 1.47725,-0.13781 l 2.29857,-0.27009 v -0.96325 l -0.0441,-0.0868 h 0.94534 l 0.10059,-0.20533 0.0565,0.0758 c 0,0 0.0579,0.0758 1.11622,0.0758 l 4.5134,9e-5 3.91776,-0.001 v 0.24667 h 0.0896 v 0.42031 h 0.0896 v 0.23013 h -0.0441 c 0,0 -0.0455,0 -0.0455,0.35278 v 1.27881 h -0.0896 v 0.56224 l 0.11576,-0.0772 0.19017,0.0138 0.0896,0.0372 0.0386,0.0896 0.0248,0.22875 -0.0248,0.12954 -0.12815,0.10197 -0.0124,0.16399 -0.12678,-0.0496 -0.11713,-0.051 -0.0634,-0.21773 z"
       id="U-S-M5" />
  </g>
</svg>
