<?xml version="1.0" encoding="UTF-8" standalone="no"?>
<!-- Created with Inkscape (http://www.inkscape.org/) -->

<svg
   width="11.471521mm"
   height="7.507503mm"
   viewBox="0 0 11.471521 7.507503"
   version="1.1"
   id="svg5570"
   sodipodi:docname="inkporter-svg-zgdocm6i.svg"
   xmlns:inkscape="http://www.inkscape.org/namespaces/inkscape"
   xmlns:sodipodi="http://sodipodi.sourceforge.net/DTD/sodipodi-0.dtd"
   xmlns="http://www.w3.org/2000/svg"
   xmlns:svg="http://www.w3.org/2000/svg">
  <sodipodi:namedview
     id="namedview5572"
     pagecolor="#ffffff"
     bordercolor="#666666"
     borderopacity="1.0"
     inkscape:pageshadow="2"
     inkscape:pageopacity="0.0"
     inkscape:pagecheckerboard="0"
     inkscape:document-units="mm"
     showgrid="false"
     inkscape:zoom="1.2810466"
     inkscape:cx="526.13231"
     inkscape:cy="1810.6289"
     inkscape:window-width="2400"
     inkscape:window-height="1271"
     inkscape:window-x="-9"
     inkscape:window-y="-9"
     inkscape:window-maximized="1"
     inkscape:current-layer="layer1"
     inkscape:snap-bbox="true"
     inkscape:snap-nodes="false"
     inkscape:snap-others="false"
     inkscape:bbox-paths="true"
     inkscape:bbox-nodes="true" />
  <defs
     id="defs5567" />
  <g
     inkscape:label="Layer 1"
     inkscape:groupmode="layer"
     id="layer1"
     transform="translate(-110.39222,-457.10718)">
    <path
       id="U-S-Jeep-05"
       d="m 117.6787,457.10718 -0.0754,0.0703 0.15814,0.13486 0.40409,0.416 0.019,0.0372 c 0,0 -0.0274,0.0151 -0.0398,0.0212 -0.0124,0.01 -0.0249,0.036 -0.0222,0.061 0.003,0.023 0.0424,0.061 0.0424,0.061 0,0 0.0101,0.0386 0.0249,0.0656 0.0154,0.028 0.0858,0.0362 0.0858,0.0362 l 0.10438,0.0992 0.003,0.0517 0.0527,0.0661 c 0,0 -0.0101,0.0609 -0.003,0.0729 0.006,0.0111 0.0579,-0.01 0.0579,-0.01 l 0.41341,0.4563 -0.0827,0.0941 h -0.0744 v 0.0506 h 0.0894 l 0.0925,-0.0724 0.0305,-0.0299 v 1.90788 c -0.35978,0.006 -0.50471,0.004 -0.52347,-0.0156 -0.008,-0.008 -0.0161,-0.0143 -0.0269,-0.0185 -0.0349,-0.0673 -0.1724,-0.29366 -0.22016,-0.33745 -0.0482,-0.0441 -0.23804,-0.23288 -0.31522,-0.23979 -0.0772,-0.007 -0.11989,0.047 -0.11989,0.047 l -0.11059,0.0703 c -0.11713,-0.0606 -0.11713,-0.0604 -0.14883,-0.0811 -0.0317,-0.0233 -0.0317,-0.0233 -0.13229,-0.15299 l -0.062,-0.047 v -0.0579 c 0.0689,-0.0482 0.0692,-0.0482 0.0568,0 -0.0124,0.0468 0.0289,-0.0481 0.0289,-0.0481 v -0.1106 c -0.01,-0.11022 -0.0103,-0.11004 -0.018,-0.13486 -0.008,-0.0249 -0.029,-0.0894 -0.0636,-0.13488 -0.0193,-0.0262 -0.048,-0.0459 -0.077,-0.061 -0.004,-0.004 -0.01,-0.0109 -0.01,-0.0109 l -0.029,-0.0289 c 0,0 -0.0348,-0.0303 -0.0444,-0.0331 -0.008,-0.003 -0.0496,-0.0206 -0.0496,-0.0206 l -0.0579,-0.014 -0.0496,-0.007 -0.062,-0.006 -0.0661,0.0103 -0.0604,0.0109 c 0,0 -0.0606,0.0193 -0.0786,0.0346 -0.0193,0.0138 -0.008,0.004 -0.0496,0.0357 -0.0413,0.0317 -0.0414,0.0315 -0.047,0.0563 l -0.0357,0.0661 -0.0222,0.062 -0.0135,0.0677 -0.007,0.029 -0.019,0.0331 -0.0346,0.0222 -0.0274,0.0124 c -0.0262,0 -0.0265,0 -0.0305,0 -0.004,0 0.008,0.004 0.0206,0.004 l 0.15711,0.0331 -0.007,0.007 0.0259,0.0151 -0.0589,0.1447 0.0206,0.003 0.0455,0.0265 0.0151,0.0439 0.0249,0.11163 0.029,0.0264 0.0265,0.004 0.048,0.003 0.0398,-0.019 h 0.007 l 0.047,0.0868 0.0537,0.019 0.01,0.0222 -0.0289,0.11163 -0.0579,0.0811 -0.0289,0.15864 -0.27028,-0.0164 -0.14882,-0.0827 -0.14883,-0.0651 -0.092,-0.0935 c 0,0 -0.061,-0.0939 -0.0982,-0.11729 -0.0372,-0.0233 -0.0372,-0.023 -0.17777,-0.0465 l -0.0284,-0.0703 -0.0569,-0.094 -0.0108,0.0852 c -0.13055,-0.1262 -0.17034,-0.14581 -0.18706,-0.10231 -0.006,0.0161 0.0464,0.0793 0.17364,0.20878 l -0.0393,0.31263 0.0687,0.029 0.17259,0.0109 -0.41032,0.41031 c -0.22556,0.22567 -0.41463,0.40545 -0.42063,0.39947 -0.006,-0.006 -0.0114,-0.10184 -0.0135,-0.21291 -0.003,-0.19074 0,-0.21643 0.0584,-0.46045 0.034,-0.14209 0.062,-0.26165 0.062,-0.26665 0,-0.005 0.0185,-0.004 0.0413,0 l 0.0414,0.009 0.0574,-0.24339 c 0.0316,-0.13393 0.0744,-0.31546 0.0951,-0.40307 0.0318,-0.13427 0.0434,-0.16147 0.0734,-0.17518 0.0514,-0.0236 0.0442,-0.0722 -0.019,-0.13023 l -0.0542,-0.0496 0.0491,-0.21395 c 0.0268,-0.11771 0.0497,-0.21992 0.0506,-0.22891 0,-0.008 -0.0148,-0.0151 -0.0351,-0.0151 -0.003,0 -0.005,0 -0.007,0 -0.0312,0.005 -0.0469,0.07 -0.25733,0.96481 -0.12481,0.53073 -0.23173,0.98353 -0.23773,1.00613 -0.0209,0.0788 -0.0377,0.0401 -0.0377,-0.0863 0,-0.11816 0.003,-0.12713 0.0305,-0.12713 0.0292,0 0.0303,-0.008 0.0265,-0.22789 -0.004,-0.20328 -0.007,-0.22807 -0.0305,-0.23307 -0.0212,-0.004 -0.0265,0.006 -0.0265,0.0563 0,0.0516 -0.006,0.0634 -0.0372,0.0755 l -0.0372,0.0145 v 0.27337 0.27336 h -1.57046 -1.5699 l -0.005,-0.0388 c -0.004,-0.0379 -0.007,-0.0388 -0.10904,-0.0388 -0.10245,0 -0.10461,0 -0.10954,0.0408 -0.004,0.0392 -0.008,0.0413 -0.0858,0.0413 h -0.0817 v 0.27492 c 0,0.26244 0.003,0.2752 0.03,0.28319 0.0369,0.01 0.0392,0.0496 0.008,0.15142 -0.0298,0.0983 -0.0298,0.3828 0,0.48109 0.041,0.13515 0.0332,0.16677 -0.0682,0.27546 -0.0499,0.0535 -0.12102,0.14293 -0.15761,0.19844 l -0.0667,0.10075 h -0.2899 c -0.15957,0 -0.29208,-0.005 -0.29507,-0.0124 -0.003,-0.007 -0.0442,-0.0161 -0.0915,-0.0212 l -0.0858,-0.008 v 0.20103 0.20101 h 0.0837 c 0.0711,0 0.0845,-0.005 0.0915,-0.03 0.005,-0.019 0.0204,-0.03 0.0419,-0.03 0.0281,0 0.0348,0.009 0.0408,0.0558 0.004,0.0309 0.003,0.0585 -0.006,0.0615 -0.0395,0.0156 -0.0583,0.0552 -0.0543,0.11266 0.004,0.0576 0.008,0.0613 0.0569,0.0703 0.056,0.01 0.17174,0.0639 0.18655,0.0879 0.005,0.008 0.0483,0.0214 0.0966,0.0315 l 0.0878,0.0175 0.0103,0.0692 c 0.0167,0.11205 0.0812,0.30157 0.13745,0.40515 0.19108,0.35177 0.52049,0.59301 0.91004,0.66662 h -0.003 c 0.66651,0.12594 1.3321,-0.30239 1.49241,-0.96065 0.0177,-0.0722 0.0401,-0.13613 0.0481,-0.14213 0.009,-0.006 0.0365,-0.007 0.062,-0.003 0.0342,0.006 0.0488,0.003 0.0558,-0.0156 0.005,-0.013 0.0257,-0.0238 0.046,-0.0238 0.0291,0 0.0373,0.009 0.0413,0.0413 0.004,0.0342 0.0116,0.0413 0.0496,0.0413 0.0417,0 0.0451,-0.004 0.0501,-0.0667 0.003,-0.0468 0.0151,-0.0764 0.0403,-0.0997 0.0196,-0.0183 0.04,-0.049 0.045,-0.0687 l 0.009,-0.0362 1.0542,-0.018 c 0.57973,-0.0101 1.06421,-0.022 1.07641,-0.0269 0.0153,-0.006 0.0222,0.003 0.0222,0.0238 v 0.032 l 0.3478,-0.008 c 0.19129,-0.005 0.4772,-0.0116 0.63561,-0.0164 0.2563,-0.007 0.28784,-0.005 0.28784,0.0161 0,0.013 0.0164,0.0402 0.0367,0.0605 0.0354,0.036 0.0443,0.0365 0.24339,0.0367 0.26842,0 0.27014,0 0.28162,0.0873 0.0283,0.21249 0.11734,0.45228 0.22791,0.61392 0.0691,0.10102 0.23926,0.26598 0.3519,0.34107 0.22399,0.14915 0.50673,0.22477 0.78083,0.20878 0.18386,-0.0106 0.30742,-0.0409 0.46562,-0.11422 0.16433,-0.0761 0.27858,-0.15607 0.39687,-0.27905 0.21498,-0.2235 0.30681,-0.42535 0.36743,-0.80563 0.0119,-0.0742 0.013,-0.0742 0.0749,-0.0832 0.0617,-0.008 0.11237,-0.0489 0.13176,-0.10594 0.006,-0.019 0.0365,-0.0267 0.12817,-0.0357 0.10292,-0.009 0.12342,-0.0154 0.14314,-0.0455 0.0265,-0.0405 0.0159,-0.0895 -0.0238,-0.11057 -0.023,-0.0122 -0.0246,-0.0217 -0.0108,-0.0657 0.0156,-0.0498 0.0188,-0.0515 0.11422,-0.0605 0.0538,-0.005 0.16158,-0.01 0.23976,-0.01 0.0782,0 0.16754,-0.005 0.19844,-0.01 l 0.0558,-0.009 v -0.17518 -0.17569 l 0.0827,-0.0775 c 0.0994,-0.0939 0.10758,-0.13592 0.0274,-0.13592 h -0.0543 l 0.0506,-0.0346 c 0.071,-0.0478 0.0939,-0.10383 0.091,-0.22273 -0.003,-0.0551 0.003,-0.10403 0.0124,-0.10904 0.0182,-0.0116 0.019,-0.20592 0,-0.22531 -0.008,-0.008 -0.0209,-0.41164 -0.031,-0.8971 -0.019,-0.97912 -0.0159,-0.95197 -0.11988,-1.02217 -0.0489,-0.033 -0.0634,-0.035 -0.21704,-0.0289 -0.18582,0.007 -0.24421,0.0278 -0.29303,0.10544 -0.0286,0.0451 -0.0308,0.0687 -0.0259,0.40719 l 0.005,0.35914 -0.10178,0.005 -0.10181,0.005 0.005,-0.20619 0.005,-0.20669 -0.0413,-0.005 c -0.0225,-0.003 -0.0408,0.003 -0.0408,0.0109 0,0.008 -0.0127,0.0161 -0.0279,0.0161 -0.0151,0 -0.0402,0.0138 -0.0558,0.031 -0.023,0.0257 -0.0291,0.0606 -0.0341,0.19325 l -0.006,0.16177 -0.1819,0.009 c -0.0999,0.005 -0.6191,0.0177 -1.15393,0.0289 -0.2291,0.005 -0.2749,0.005 -0.40928,0.007 v -1.83163 c 0.0932,0.10279 0.2518,0.27937 0.24495,0.28628 -0.008,0.01 -0.0402,0.0632 -0.0429,0.0992 -0.003,0.036 0.0977,0.10612 0.0977,0.12403 0,0.018 -0.14314,0.16227 -0.14314,0.16227 l 0.11988,0.13952 0.15865,-0.23874 c 0,0 0.0921,-0.0119 0.10181,0 0.008,0 0.11557,0.11753 0.21341,0.23874 0.0978,0.11991 0.14367,0.25339 0.13542,0.25889 -0.0101,0 -0.11994,-0.0301 -0.1323,-0.0331 -0.0124,0 -0.0404,-0.01 -0.0858,-0.0537 -0.0455,-0.046 -0.13073,-0.0801 -0.13073,-0.0801 l -0.0398,-0.0408 -0.0594,0.0718 0.0527,0.0279 c 0,0 0.0797,0.0661 0.12247,0.0961 0.0427,0.03 0.10491,0.048 0.10491,0.048 0,0 0.0233,0.0428 0.0357,0.0548 0.0124,0.0119 0.0438,-0.0298 0.0672,-0.01 0.0249,0.022 0.1283,0.0729 0.13796,0.076 0.01,0 0.0346,0.061 0.047,0.12401 0.0111,0.063 0.0729,0.11731 0.0729,0.11731 l 0.27852,-0.26871 c 0,0 -0.13523,-0.16854 -0.17518,-0.21394 -0.04,-0.045 -0.15298,-0.12655 -0.16124,-0.13076 -0.01,0 -0.20825,-0.24958 -0.20825,-0.24958 0,0 -0.019,-0.0427 -0.019,-0.0667 0,-0.023 0.0372,-0.0692 0.0372,-0.0692 l -0.31835,-0.30179 0.0151,-0.045 -0.0341,-0.0909 c 0,0 0.11435,-0.10772 0.17777,-0.24961 0.0648,-0.1433 0.0372,-0.39532 0.0372,-0.39532 l -0.30903,0.0109 c 0,0 0.003,0.11846 -0.0164,0.23564 -0.018,0.11851 -0.12816,0.21085 -0.12816,0.21085 l -0.0729,-0.0687 h -0.0522 c 0,0 0.0276,-0.0299 0.0372,-0.0279 0.008,0 -0.23307,-0.20153 -0.23307,-0.20153 l -0.0305,0.0103 -0.1292,-0.14211 c 0,0 0.0275,-0.0453 0.0372,-0.0543 0.01,-0.01 0.0728,0 0.0728,0 l 0.004,0.0481 h 0.0661 c 0,0 0.0465,0.0411 0.0672,0.0661 0.022,0.023 0.15037,0.0729 0.15037,0.0729 l 0.0398,0.0393 0.0279,-0.0661 -0.0496,-0.01 c 0,0 -0.0978,-0.11192 -0.12816,-0.12713 -0.0303,-0.0151 -0.0884,-0.018 -0.0925,-0.0279 -0.003,-0.0101 -0.0302,-0.0407 -0.048,-0.0357 -0.018,0.0101 -0.26873,-0.0124 -0.26873,-0.0124 l -0.69866,-0.72348 0.0496,-0.0729 -0.0222,-0.0279 -0.0703,0.0548 -0.12817,-0.12401 z m -1.63761,3.52433 0.0336,0.0517 0.15605,0.18756 0.12663,0.11732 -0.076,0.0408 -0.0677,0.0346 -0.31679,0.31107 -0.0801,0.0636 -0.0164,0.0305 0.005,0.11163 -0.0233,0.0289 -0.0455,0.0522 -0.0656,0.0486 c 0.0349,-0.098 0.0688,-0.18631 0.078,-0.19637 0.0351,-0.0378 0.0354,-0.0571 0.004,-0.0889 -0.0159,-0.0159 -0.0372,-0.0214 -0.0605,-0.0156 -0.0225,0.006 -0.044,0 -0.0584,-0.014 -0.0301,-0.0299 -0.0449,-0.029 -0.0806,0.007 -0.0251,0.0249 -0.0267,0.0359 -0.0124,0.0672 0.0119,0.0262 0.008,0.0815 -0.0156,0.23201 l -0.0563,-0.0315 -0.0672,-0.0682 v -0.10697 l 0.16743,-0.19172 c 0.0919,-0.10549 0.18589,-0.19981 0.20878,-0.20981 0.023,-0.01 0.0451,-0.0318 0.0491,-0.0481 0.0101,-0.0385 -0.0274,-0.0915 -0.0646,-0.0915 -0.0161,0 -0.0289,-0.004 -0.0289,-0.0103 0,-0.006 0.0723,-0.0832 0.16073,-0.17262 0.0783,-0.0787 0.11973,-0.11917 0.1478,-0.13901 z m 5.03275,0.0977 c 0.10173,0 0.1049,0 0.1049,0.0372 0,0.0365 -0.003,0.0372 -0.1049,0.0372 -0.10171,0 -0.10438,0 -0.10438,-0.0372 0,-0.0365 0.003,-0.0372 0.10438,-0.0372 z m -0.41392,0.014 c 0.0996,0 0.0997,0.008 0.0997,0.0274 0,0.0431 -0.0183,0.044 -0.94204,0.0625 v 0 c -0.31838,0.006 -0.56743,0.0127 -0.79066,0.0185 v -0.0718 c 0.0637,-0.003 0.10941,-0.003 0.17828,-0.005 0.4073,-0.009 0.92403,-0.0204 1.14826,-0.0265 0.15251,-0.004 0.24773,-0.006 0.30748,-0.006 z m -1.70069,0.0388 v 0.0713 c -0.0549,0.003 -0.1837,0.004 -0.21547,0.005 -0.2544,0.008 -0.28668,0.007 -0.29663,-0.0146 0,-0.01 -0.003,-0.0193 -0.003,-0.0289 0,-0.005 0.003,-0.009 0.006,-0.0114 0.006,-0.005 0.23154,-0.014 0.50901,-0.0217 z m 2.10429,0.0966 h 0.11007 l 0.0103,0.13695 c 0.005,0.0753 0.01,0.18661 0.01,0.24702 v 0.10956 h -0.0449 -0.0449 v -0.20928 -0.20932 h -0.0749 c -0.0698,0 -0.0744,-0.003 -0.0744,-0.0377 0,-0.0365 0.003,-0.0372 0.10957,-0.0372 z m -0.31163,0.008 0.005,0.0336 c 0.003,0.0185 -0.004,0.0358 -0.0151,0.0398 v 0 c -0.0108,0.003 -0.17965,0.01 -0.37515,0.0135 -0.27085,0.005 -0.35891,0.003 -0.36692,-0.0114 -0.006,-0.01 -0.0238,-0.0246 -0.0393,-0.0336 -0.0439,-0.0238 0.0557,-0.0327 0.44752,-0.0377 z m -0.84386,0.0222 -0.0233,0.0351 c -0.0228,0.0347 -0.0277,0.036 -0.3633,0.045 v 0 c -0.10412,0.003 -0.31316,0.007 -0.4961,0.0109 v -0.0754 c 0.28046,-0.006 0.59172,-0.0132 0.67594,-0.014 z m -0.9488,0.0161 v 0.0754 c -0.12276,0.003 -0.21687,0.005 -0.32863,0.007 l -0.20672,0.004 c 0.007,-0.01 0.0185,-0.0312 0.0243,-0.0692 2.4e-4,-0.003 0,-0.003 0,-0.005 l 0.34364,-0.008 c 0.071,-0.003 0.0964,-0.003 0.1669,-0.004 z m -3.283,0.0739 c 0.0439,0 -0.0106,0.0863 -0.17102,0.27077 l -0.18244,0.21085 -0.003,0.0594 -0.0527,-0.0336 c -0.0662,-0.003 -0.066,-0.003 -0.0687,0.0124 -0.003,0.0138 -0.008,0.008 -0.008,0.0496 0,0.0413 0.008,0.0616 0.0164,0.0961 0.008,0.0358 0.0455,0.13229 0.0455,0.13229 l 0.0553,0.0972 -0.003,0.0496 -0.0393,-0.0424 c -0.068,-0.0727 -0.13279,-0.24074 -0.13279,-0.3452 0,-0.0238 0.51827,-0.55705 0.54155,-0.55705 z m 0.84648,0.0542 0.19532,0.0109 0.15039,-0.0109 c 0.0249,0.12816 0.0249,0.12816 0.0455,0.16952 0.0206,0.0413 0.0206,0.0411 0.0744,0.12247 l 0.006,0.11161 -0.0119,0.0589 -0.0579,-0.0175 z m -0.88315,0.44289 c 0.0106,-0.004 0.0185,0.008 0.0185,0.0294 v 0 c 0,0.0196 -0.0198,0.0927 -0.0439,0.16227 -0.005,0.014 -0.007,0.0212 -0.0114,0.032 l -0.0206,-0.003 c 0.0161,-0.12417 0.039,-0.2141 0.0568,-0.22066 z m 5.47201,0.45267 h 0.045 0.0444 l 0.008,0.13229 c 0.008,0.12968 0.009,0.13364 0.063,0.18346 l 0.0563,0.0506 h -0.11266 -0.11264 l 0.004,-0.18294 z m -4.83434,0.0589 c 0.0119,0 0.0204,0 0.0274,0 l -0.006,0.0377 h -0.10541 c 0.0175,-0.0135 0.054,-0.0387 0.0842,-0.0387 z m 5.26275,0.38137 -0.0103,0.0341 c -0.006,0.0185 -0.0233,0.0595 -0.0388,0.0904 l -0.0284,0.0558 h -0.17261 c -0.19243,0 -0.19145,0 -0.18344,-0.10697 l 0.005,-0.0651 0.21447,-0.004 z m -1.00409,0.50385 c 0.009,-3e-5 0.0241,0.003 0.047,0.007 0.0357,0.006 0.10694,0.0132 0.15864,0.0135 0.0893,0 0.0972,0.004 0.14986,0.0584 0.0504,0.0524 0.0541,0.0622 0.0413,0.10441 -0.008,0.0254 -0.0225,0.0484 -0.0315,0.0527 -0.01,0.004 -0.0845,0.0116 -0.16693,0.0175 l -0.14986,0.0103 -0.0243,-0.10234 c -0.0132,-0.0564 -0.0281,-0.11726 -0.0331,-0.13486 -0.006,-0.019 -0.006,-0.0262 0.009,-0.0264 z" />
  </g>
</svg>
