<?xml version="1.0" encoding="UTF-8" standalone="no"?>
<!-- Created with Inkscape (http://www.inkscape.org/) -->

<svg
   width="7.1859002mm"
   height="5.95187mm"
   viewBox="0 0 7.1859002 5.95187"
   version="1.1"
   id="svg1"
   sodipodi:docname="inkporter-svg-u92kt6ll.svg"
   xmlns:inkscape="http://www.inkscape.org/namespaces/inkscape"
   xmlns:sodipodi="http://sodipodi.sourceforge.net/DTD/sodipodi-0.dtd"
   xmlns="http://www.w3.org/2000/svg"
   xmlns:svg="http://www.w3.org/2000/svg">
  <sodipodi:namedview
     id="namedview1"
     pagecolor="#ffffff"
     bordercolor="#666666"
     borderopacity="1.0"
     inkscape:showpageshadow="2"
     inkscape:pageopacity="0.0"
     inkscape:pagecheckerboard="0"
     inkscape:deskcolor="#d1d1d1"
     inkscape:document-units="mm"
     inkscape:zoom="3.2729938"
     inkscape:cx="356.096"
     inkscape:cy="612.43623"
     inkscape:window-width="3840"
     inkscape:window-height="2066"
     inkscape:window-x="2869"
     inkscape:window-y="-11"
     inkscape:window-maximized="1"
     inkscape:current-layer="layer1" />
  <defs
     id="defs1" />
  <g
     inkscape:label="Layer 1"
     inkscape:groupmode="layer"
     id="layer1"
     transform="translate(-121.70834,-164.82265)">
    <g
       id="U-S-InfantryHQ3a"
       transform="translate(-182.42007,-266.23012)">
      <path
         id="path101932-6-2-1"
         style="fill:#000000;stroke-width:0.0390987"
         d="m 307.36729,436.96642 c -0.0484,-0.0196 -0.088,-0.0619 -0.088,-0.0943 v -0.059 l 0.14662,-0.0774 0.14663,-0.0773 -0.0662,-10e-4 c -0.0364,-6.6e-4 -0.0778,-0.0207 -0.0923,-0.044 l -0.0262,-0.0422 0.0973,-0.10429 0.0973,-0.1043 0.026,-0.14671 0.0261,-0.14672 -0.0737,-0.16608 c -0.0405,-0.0913 -0.10287,-0.19022 -0.13865,-0.21972 -0.0358,-0.0296 -0.0651,-0.092 -0.0651,-0.13881 0,-0.0468 -0.0216,-0.10668 -0.0479,-0.13306 l -0.0479,-0.0479 -0.028,-0.30204 c -0.0154,-0.1661 -0.0403,-0.45326 -0.0553,-0.63811 l -0.0273,-0.3361 -0.0685,-0.0428 -0.0685,-0.0428 -0.14406,0.0442 -0.14409,0.0442 -0.12008,-0.0453 c -0.066,-0.0249 -0.13586,-0.0356 -0.15515,-0.0236 -0.0547,0.0338 -0.14897,-0.064 -0.14897,-0.15467 v -0.0819 l 0.17892,-0.18165 0.1789,-0.18164 -0.0449,-0.16695 -0.0449,-0.16693 0.18362,-0.35654 c 0.10096,-0.1961 0.22637,-0.41371 0.27858,-0.48361 l 0.0949,-0.12706 h 0.0714 c 0.0392,0 0.0926,-0.0255 0.1186,-0.0567 l 0.0471,-0.0567 -0.0263,-0.083 -0.0263,-0.0828 -0.054,0.0207 c -0.0297,0.0119 -0.0782,-0.004 -0.10776,-0.0331 l -0.0539,-0.0538 -0.007,-0.23832 -0.007,-0.23832 0.0956,-0.0956 c 0.0526,-0.0526 0.14428,-0.10775 0.20377,-0.12272 l 0.10823,-0.0272 0.0999,0.0561 c 0.12072,0.0677 0.27545,0.32878 0.27633,0.4662 0,0.0548 -0.0187,0.11908 -0.0424,0.1428 l -0.043,0.043 0.0882,0.11928 0.0882,0.11928 0.0638,-0.0342 c 0.035,-0.0188 0.20728,-0.1836 0.38261,-0.36622 0.17532,-0.18263 0.35504,-0.34356 0.39936,-0.35762 l 0.0806,-0.0256 v 0.047 c 0,0.0259 -0.15082,0.21128 -0.33516,0.4121 l -0.33514,0.3651 0.0956,0.12816 c 0.139,0.18621 0.18228,0.28113 0.26599,0.5832 l 0.075,0.27046 -0.0589,0.11383 c -0.0324,0.0626 -0.0958,0.13972 -0.14102,0.17138 l -0.0821,0.0576 0.0266,0.0837 0.0266,0.0837 0.0548,-0.0455 c 0.0836,-0.0694 0.15914,-0.0187 0.18827,0.12603 l 0.0262,0.13043 -0.0682,0.22811 -0.0682,0.22811 -0.12845,-0.015 c -0.0707,-0.008 -0.12869,-0.005 -0.12898,0.007 0,0.0119 -0.0329,0.20623 -0.0726,0.43202 l -0.0721,0.41054 0.0281,0.23459 0.0281,0.23458 -0.0342,0.0669 c -0.0517,0.10108 -0.18866,0.92387 -0.18912,1.13662 v 0.18695 l -0.0684,0.0212 c -0.0377,0.0119 -0.0989,0.0376 -0.13632,0.0575 -0.0843,0.0451 -0.2941,0.0429 -0.41107,-0.004 z m -0.33862,-3.19748 0.0817,-0.0987 -0.0552,-0.11073 c -0.0304,-0.0609 -0.0802,-0.11074 -0.11061,-0.11074 -0.059,0 -0.32724,0.34023 -0.32889,0.41706 -0.002,0.12547 0.28486,0.058 0.41308,-0.0969 z"
         sodipodi:nodetypes="csccccscccccsssscsscccccscscccccsscscccccccccsscscscccssscsscsscsscccsscccccscccsccccccccssccc" />
      <path
         id="path117312-5-9"
         style="fill:#000000;stroke-width:0.0292891"
         d="m 309.59695,436.97723 -0.0952,-0.0118 v -0.0674 -0.0674 l 0.10983,-0.0763 c 0.0604,-0.042 0.12723,-0.10436 0.14847,-0.13864 l 0.0386,-0.0623 -0.0224,-0.19485 c -0.0257,-0.2235 -0.0214,-0.20218 -0.0607,-0.29737 -0.0166,-0.0403 -0.0391,-0.1523 -0.0499,-0.24895 -0.0108,-0.0967 -0.0409,-0.26909 -0.0667,-0.38318 l -0.0469,-0.20744 0.0285,-0.0509 0.0285,-0.0509 -0.0682,-0.13472 c -0.0375,-0.0741 -0.0682,-0.17785 -0.0682,-0.23055 0,-0.0527 -0.0132,-0.10396 -0.0293,-0.11392 l -0.0293,-0.0181 v -0.15623 -0.15623 l -0.044,-0.0169 -0.044,-0.0169 v -0.0671 -0.0671 l -0.0552,-0.0345 -0.0552,-0.0345 -0.0327,-0.14098 c -0.0359,-0.15481 -0.0471,-0.29267 -0.0294,-0.36065 l 0.0114,-0.0439 -0.0921,-0.009 c -0.0507,-0.005 -0.1131,-0.0321 -0.13871,-0.0604 -0.0551,-0.0609 -0.0637,-0.17176 -0.0372,-0.48178 l 0.0196,-0.22898 0.0498,-0.0932 c 0.0273,-0.0513 0.0503,-0.0999 0.051,-0.10816 0.001,-0.008 0.0539,-0.0781 0.11838,-0.1553 l 0.11716,-0.14036 -0.008,-0.0525 c -0.005,-0.0289 0.0119,-0.0694 0.0367,-0.09 l 0.0451,-0.0374 0.0878,0.0176 0.0878,0.0176 v -0.0432 -0.0432 h 0.10618 0.10617 l -0.0174,-0.087 c -0.01,-0.0478 -0.0454,-0.11502 -0.0797,-0.14932 l -0.0624,-0.0624 0.0199,-0.0777 c 0.0252,-0.0986 0.0262,-0.19069 0.003,-0.28266 l -0.0182,-0.0724 0.0566,-0.0566 0.0566,-0.0566 0.1662,-0.0208 0.16618,-0.0208 0.0779,0.0579 0.0779,0.0579 0.009,0.14275 c 0.005,0.0785 0.023,0.1594 0.0399,0.17973 l 0.0307,0.037 -0.0185,0.0736 c -0.0102,0.0405 -0.0314,0.0736 -0.0472,0.0736 h -0.0287 v 0.11578 0.11578 l 0.10983,0.0305 c 0.0604,0.0168 0.12557,0.0306 0.1448,0.0306 0.0192,9e-5 0.0522,0.0238 0.0732,0.0527 0.0418,0.0574 0.18917,0.15449 0.33848,0.22298 0.0524,0.024 0.0952,0.0597 0.0952,0.0792 0,0.0195 0.0412,0.0997 0.0915,0.1782 l 0.0915,0.14265 -0.0171,0.10536 -0.0171,0.10536 0.0402,0.0777 c 0.0221,0.0427 0.0493,0.12598 0.0603,0.18494 l 0.0201,0.1072 -0.0749,0.0749 c -0.0412,0.0412 -0.0601,0.0749 -0.042,0.0749 0.0808,0 -0.0322,0.0474 -0.13435,0.0563 l -0.0256,0.002 0.0173,0.0866 0.0173,0.0866 -0.0429,0.10281 c -0.0236,0.0565 -0.043,0.1164 -0.043,0.13303 0,0.0166 0.033,0.0302 0.0732,0.0302 0.0828,0 0.0942,0.034 0.0293,0.0879 -0.0242,0.0201 -0.0439,0.0517 -0.0439,0.0704 0,0.0187 0.0791,0.11219 0.17573,0.20784 0.0967,0.0956 0.17573,0.19079 0.17573,0.21143 0,0.079 -0.0804,0.0311 -0.22613,-0.13435 -0.0832,-0.0945 -0.1784,-0.17898 -0.21154,-0.18764 l -0.0602,-0.0158 v 0.0387 c 0,0.0213 -0.0152,0.0439 -0.0339,0.05 l -0.0339,0.0113 0.0626,0.18533 c 0.0344,0.10193 0.0559,0.19611 0.0478,0.2093 -0.008,0.0132 10e-4,0.085 0.0194,0.1595 l 0.0341,0.13554 -0.0476,0.0476 -0.0476,0.0476 0.0623,0.0664 0.0624,0.0664 -0.005,0.16208 c -0.003,0.0891 -0.006,0.18513 -0.007,0.21332 -10e-4,0.0282 0,0.14352 0.003,0.25628 0.003,0.11276 -10e-4,0.23139 -0.008,0.26361 -0.007,0.0322 -0.003,0.14199 0.01,0.24396 l 0.0226,0.18538 0.0688,0.0738 c 0.0378,0.0406 0.1178,0.0989 0.17768,0.12957 0.0599,0.0307 0.12156,0.0795 0.13707,0.10856 l 0.0282,0.0527 -0.0215,0.0348 c -0.0118,0.0191 -0.0815,0.043 -0.15478,0.0531 l -0.13327,0.0183 -0.0994,-0.0459 c -0.0547,-0.0253 -0.14559,-0.0499 -0.20198,-0.0547 l -0.1025,-0.009 0.004,-0.14646 c 0.002,-0.0805 0.007,-0.194 0.0107,-0.25212 0.004,-0.0581 -0.0103,-0.15276 -0.0311,-0.21028 l -0.0378,-0.10458 -0.0478,-0.0125 -0.0479,-0.0125 -0.0358,-0.16026 c -0.0197,-0.0881 -0.033,-0.23831 -0.0296,-0.3337 0.004,-0.0954 -0.0104,-0.24189 -0.0308,-0.32552 l -0.0371,-0.15206 -0.0634,-0.009 -0.0634,-0.009 -0.032,-0.099 -0.032,-0.099 -0.0193,0.0504 c -0.0106,0.0277 -0.0125,0.0615 -0.004,0.0752 0.008,0.0136 0.002,0.0849 -0.0147,0.1585 l -0.03,0.13376 0.0262,0.11675 0.0262,0.11675 -0.0297,0.22734 c -0.0455,0.34801 -0.0501,0.53818 -0.0162,0.66669 0.017,0.0644 0.0324,0.17646 0.0343,0.24895 l 0.004,0.1318 -0.0865,0.01 c -0.0476,0.005 -0.11313,0.0285 -0.14564,0.0513 -0.0585,0.041 -0.0881,0.0432 -0.27308,0.0202 z m 1.29604,-2.9663 c 0.01,-0.0161 0.004,-0.0293 -0.0129,-0.0293 -0.0171,0 -0.031,0.0132 -0.031,0.0293 0,0.0161 0.006,0.0293 0.0129,0.0293 0.007,0 0.0211,-0.0132 0.031,-0.0293 z m -0.13894,-0.86172 c -0.004,-0.002 -0.0402,-0.0292 -0.0802,-0.0612 l -0.0727,-0.0583 0.0396,0.0511 0.0396,0.0511 -0.0161,0.0614 -0.0161,0.0614 0.0567,-0.0513 c 0.0312,-0.0282 0.0533,-0.0526 0.0492,-0.0543 z" />
      <path
         id="path117308-0-8"
         style="fill:#000000;stroke-width:0.0292891"
         d="m 305.09257,436.9853 c -0.0373,-0.0373 -0.0191,-0.12161 0.0533,-0.24841 0.0401,-0.0701 0.073,-0.15258 0.0732,-0.18326 v -0.0558 l -0.0512,0.044 c -0.0282,0.0242 -0.0737,0.052 -0.10108,0.0616 l -0.0498,0.0176 -0.0667,-0.054 -0.0667,-0.054 0.0354,-0.15687 c 0.0195,-0.0863 0.0516,-0.21294 0.0714,-0.28148 l 0.0359,-0.12461 -0.1429,-0.14508 -0.1429,-0.14509 -0.0856,-0.0188 -0.0856,-0.0188 -0.0702,-0.15085 c -0.0386,-0.083 -0.0704,-0.16626 -0.0705,-0.18509 0,-0.0188 0.0224,-0.0738 0.0502,-0.12223 l 0.0505,-0.088 -0.0535,-0.0591 -0.0535,-0.0591 0.0221,-0.15549 c 0.0122,-0.0855 0.0248,-0.18843 0.028,-0.2287 0.003,-0.0403 0.0276,-0.14481 0.0541,-0.23231 0.0265,-0.0875 0.0482,-0.16898 0.0482,-0.18108 0,-0.0121 -0.025,-0.0299 -0.0556,-0.0396 l -0.0556,-0.0176 0.002,-0.10881 c 0.001,-0.0598 -0.0117,-0.17811 -0.0279,-0.26282 l -0.0295,-0.15401 0.0396,-0.0763 c 0.0218,-0.042 0.0396,-0.0781 0.0395,-0.0803 -7e-5,-0.002 -0.0452,-0.006 -0.10026,-0.009 -0.13678,-0.007 -0.21752,-0.0556 -0.23982,-0.14443 l -0.0187,-0.0746 0.0477,-0.14759 c 0.0262,-0.0812 0.0477,-0.18735 0.0477,-0.23596 v -0.0884 l 0.0657,-0.10597 c 0.0362,-0.0583 0.0675,-0.11586 0.0696,-0.12794 0.002,-0.0121 0.006,-0.0351 0.008,-0.0513 0.002,-0.0161 0.0179,-0.0293 0.0352,-0.0293 0.0407,0 0.25952,-0.23814 0.26055,-0.2836 10e-4,-0.0387 0.10401,-0.0799 0.14172,-0.0566 0.0134,0.008 0.065,-0.01 0.11468,-0.04 l 0.0904,-0.055 -0.0399,-0.11193 c -0.022,-0.0616 -0.0405,-0.15435 -0.0412,-0.2062 l -0.002,-0.0943 -0.0492,0.0189 -0.0492,0.0189 0.0492,-0.0702 c 0.027,-0.0386 0.0492,-0.11116 0.0492,-0.16115 v -0.0909 l 0.0678,-0.0637 0.0678,-0.0637 h 0.0803 c 0.10427,0 0.33729,0.0588 0.35656,0.09 0.008,0.0133 0.0199,0.12045 0.0261,0.23803 l 0.0111,0.2138 -0.0587,0.0959 -0.0587,0.0959 0.0163,0.0423 c 0.009,0.0233 0.0531,0.0511 0.098,0.0619 0.13828,0.0332 0.24117,0.0972 0.35024,0.21791 0.0575,0.0636 0.12069,0.11567 0.14048,0.11567 0.0198,0 0.0599,0.0264 0.089,0.0586 0.0292,0.0322 0.0441,0.0586 0.0333,0.0586 -0.0108,0 0.009,0.0556 0.0433,0.12364 0.0347,0.068 0.0741,0.16196 0.0875,0.20878 l 0.0244,0.0851 -0.0416,0.0593 -0.0416,0.0593 0.0238,0.0467 c 0.0131,0.0257 0.0315,0.097 0.041,0.15853 l 0.0172,0.1118 -0.0325,0.0713 c -0.0179,0.0392 -0.0487,0.0713 -0.0685,0.0713 -0.0401,0 -0.083,0.13371 -0.0566,0.17645 0.009,0.015 -0.0242,0.12315 -0.0744,0.24029 l -0.0913,0.21297 -0.092,0.0806 c -0.0506,0.0443 -0.0793,0.0807 -0.0638,0.081 0.0155,2.1e-4 0.0107,0.0115 -0.0105,0.025 l -0.0387,0.0246 0.0899,0.14184 c 0.0495,0.078 0.0899,0.15245 0.0899,0.1654 0,0.042 -0.0658,0.0249 -0.10378,-0.0271 l -0.037,-0.0506 -0.0412,0.10085 -0.0412,0.10086 0.0193,0.12714 0.0193,0.12715 -0.0563,0.0716 c -0.031,0.0394 -0.0817,0.0716 -0.11277,0.0716 h -0.0564 v 0.0993 c 0,0.0546 0.0261,0.15677 0.0579,0.22699 l 0.0579,0.12768 10e-4,0.13281 10e-4,0.13282 -0.0621,0.17472 -0.0621,0.17472 v 0.17573 c 0,0.0967 0.009,0.24823 0.0202,0.33683 l 0.0206,0.16109 -0.0765,0.0805 -0.0765,0.0805 h -0.15502 c -0.0853,0 -0.16381,-0.009 -0.17455,-0.0195 z m 0.0152,-1.86245 c 0.0183,-0.0605 0.0257,-0.1176 0.0164,-0.12692 -0.0245,-0.0245 -0.13898,0.0972 -0.13898,0.14765 0,0.0234 0.0165,0.0786 0.0366,0.12276 l 0.0366,0.0802 0.008,-0.0568 c 0.005,-0.0312 0.0231,-0.10636 0.0414,-0.16684 z" />
    </g>
  </g>
</svg>
