<?xml version="1.0" encoding="UTF-8" standalone="no"?>
<!-- Created with Inkscape (http://www.inkscape.org/) -->

<svg
   width="21.347313mm"
   height="8.5353689mm"
   viewBox="0 0 21.347313 8.5353689"
   version="1.1"
   id="svg7020"
   sodipodi:docname="inkporter-svg-z7tdctoa.svg"
   xmlns:inkscape="http://www.inkscape.org/namespaces/inkscape"
   xmlns:sodipodi="http://sodipodi.sourceforge.net/DTD/sodipodi-0.dtd"
   xmlns="http://www.w3.org/2000/svg"
   xmlns:svg="http://www.w3.org/2000/svg">
  <sodipodi:namedview
     id="namedview7022"
     pagecolor="#ffffff"
     bordercolor="#666666"
     borderopacity="1.0"
     inkscape:pageshadow="2"
     inkscape:pageopacity="0.0"
     inkscape:pagecheckerboard="0"
     inkscape:document-units="mm"
     showgrid="false"
     inkscape:zoom="2.5620932"
     inkscape:cx="154.95143"
     inkscape:cy="441.63109"
     inkscape:window-width="3840"
     inkscape:window-height="2081"
     inkscape:window-x="2391"
     inkscape:window-y="-9"
     inkscape:window-maximized="1"
     inkscape:current-layer="layer1" />
  <defs
     id="defs7017" />
  <g
     inkscape:label="Layer 1"
     inkscape:groupmode="layer"
     id="layer1"
     transform="translate(-31.630573,-74.35745)">
    <g
       id="U-S-M17">
      <g
         id="g7783">
        <path
           d="m 35.365481,82.875916 -0.136984,-0.017 -0.09846,-0.02646 -0.09839,-0.02646 -0.135925,-0.0616 -0.135926,-0.0616 -0.158467,-0.115252 -0.158468,-0.115253 -0.112642,-0.137548 -0.112677,-0.137555 -0.08844,-0.17097 -0.08841,-0.170967 -0.02575,-0.112116 -0.02575,-0.112117 -0.02293,-0.165904 -0.02258,-0.165911 0.0254,-0.192321 0.0254,-0.192327 0.03104,-0.08746 0.03104,-0.08746 v -0.0084 -0.0084 h -0.06579 -0.06572 l -0.01446,0.04537 -0.01446,0.04537 0.0046,0.08357 0.0046,0.08356 -0.0046,0.02935 -0.0046,0.02935 -0.02258,-0.01383 -0.02187,-0.01383 v -0.123486 -0.12348 l 0.02328,-0.04336 0.02364,-0.04337 h -0.03457 -0.03457 v -0.03362 -0.03362 h 0.02258 0.02187 v -0.02925 -0.02921 l -0.07394,-0.07166 -0.07398,-0.07167 h -0.07176 -0.07179 v 0.08969 0.0897 h -0.112183 -0.112113 v 0.06727 0.06727 l -0.02787,0.0014 -0.02787,0.0014 -0.36576,-0.0028 -0.365725,-0.0028 0.006,0.214404 0.006,0.214404 h 0.0127 0.0127 l 0.03852,0.06513 0.03852,0.06513 v 0.05572 0.05573 l -0.03944,0.04677 -0.03941,0.04676 -0.09818,0.0051 -0.09811,0.0051 -0.04209,-0.05189 -0.04216,-0.05188 v -0.04054 -0.04054 l 0.01411,-0.03601 0.01411,-0.03606 0.03104,0.02575 0.03104,0.02575 v 0.0285 0.0285 l 0.0314,0.0121 0.0314,0.01203 0.03944,-0.02879 0.03941,-0.02879 -0.07084,-0.06309 -0.07077,-0.06309 v -0.234361 -0.234354 l -0.05045,0.01355 -0.05048,0.01355 -0.07288,2.86e-4 -0.07285,2.9e-4 v 0.03673 0.03673 l -0.115782,-0.01372 -0.115782,-0.01372 -0.102834,-0.05108 -0.10287,-0.05108 -0.05087,-0.100912 -0.05094,-0.100905 0.006,-0.45969 0.0064,-0.459687 0.134514,-0.01817 0.13462,-0.01813 0.08449,-0.0032 0.0846,-0.0032 0.04748,0.04748 0.04752,0.04748 -0.01446,0.03646 -0.01446,0.03646 -0.04346,-0.02339 -0.04392,-0.02335 h -0.03493 -0.03493 v 0.100905 0.100908 h 0.02258 0.02258 v -0.0224 -0.0224 h 0.0654 0.06537 l 0.0074,0.02057 0.0071,0.02057 0.08192,0.01514 0.08188,0.01513 0.03493,-0.119913 0.03493,-0.119916 0.08512,-0.08151 0.08509,-0.08151 0.07652,-0.03857 0.07645,-0.03857 0.125342,-0.01104 0.125271,-0.01104 0.144956,0.07545 0.145027,0.07545 0.06276,0.101632 0.06286,0.101635 0.01693,0.0999 0.01693,0.0999 0.285327,0.0063 0.285326,0.0062 v -0.03172 -0.03171 l 0.05655,-0.01087 0.05659,-0.01086 0.01376,0.0218 0.0134,0.0218 0.0194,-0.03041 0.0194,-0.03041 v -0.01422 -0.01425 l -0.06163,-0.012 -0.0617,-0.01199 -0.04875,0.0454 -0.04886,0.0454 -0.02364,-0.01446 -0.02328,-0.01446 0.0071,-0.08731 0.0071,-0.08731 0.03895,-0.03893 0.03898,-0.03893 0.126471,-0.09819 0.126471,-0.09819 0.01834,-0.0326 0.01834,-0.0326 h 0.03104 0.03069 l 0.06794,-0.03897 0.06795,-0.03897 0.02858,-0.05631 0.02857,-0.05632 0.0085,-0.01683 0.0085,-0.01683 h -0.02999 -0.02999 l -0.03245,-0.05045 -0.03246,-0.05046 -0.114864,-0.224871 -0.114865,-0.224871 -0.02963,-0.138395 -0.02963,-0.138405 0.01305,-0.0344 0.01305,-0.03436 0.03457,0.01323 0.03457,0.01326 v 0.0718 0.0718 l 0.02787,0.03362 0.02787,0.03362 0.09483,0.06037 0.09479,0.06038 h 0.01235 0.01164 v -0.0375 -0.03749 l 0.03895,-0.04426 0.03944,-0.04431 -0.02787,-0.0098 -0.02787,-0.0098 v -0.04458 -0.04457 l 0.03535,-0.03552 0.03542,-0.03553 0.07997,0.02029 0.07997,0.02032 0.02434,0.03916 0.02434,0.03915 -0.02822,0.04504 -0.02787,0.04503 0.03538,0.08399 0.03538,0.08398 0.02963,-0.05491 0.02999,-0.05491 0.04163,-0.01637 0.04166,-0.01637 0.05888,-0.0014 0.05895,-0.0014 0.02681,-0.0326 0.02716,-0.0326 0.09931,-0.01492 0.09927,-0.01485 0.02822,0.02332 0.02822,0.02332 0.63373,-0.0758 0.633695,-0.0758 0.03493,-0.03468 0.03457,-0.03468 h 0.108656 0.10862 l 0.0071,0.01961 0.0071,0.01962 0.403613,-0.05157 0.403684,-0.05157 0.22419,-0.02801 0.22419,-0.02801 0.03351,-0.02695 0.03351,-0.02695 0.109679,-0.0158 0.109714,-0.0158 0.01693,0.02752 0.01693,0.02755 0.03387,-0.01298 0.03351,-0.01298 -0.0049,-0.07114 -0.0049,-0.07113 0.08886,-0.05606 0.08879,-0.05606 0.08587,0.01372 0.0859,0.01372 0.04505,-0.08839 0.04512,-0.08839 0.05016,-0.03514 0.05013,-0.03514 h 0.05105 0.05105 v -0.219846 -0.219954 l -0.03281,-0.04354 -0.03281,-0.04354 v -0.01683 -0.01633 h 0.513151 0.513186 l 0.04999,-0.123331 0.05006,-0.123334 h 0.02011 0.02011 l 0.08876,0.05606 0.08883,0.05606 h 1.110439 1.110439 v 0.392416 0.392419 h 0.01975 0.01976 l 0.02822,-0.06809 0.02822,-0.06809 0.07486,-0.07484 0.07479,-0.07483 0.08467,-0.04153 0.08467,-0.04153 0.15113,3.42e-4 0.15113,3.39e-4 0.128764,0.08856 0.128905,0.08857 0.05249,0.09518 0.05246,0.09517 h 0.927594 0.927629 l 0.01446,-0.0224 0.01376,-0.0224 h 0.09959 0.09959 v 0.0224 0.0224 h 0.315277 0.315207 l -0.01446,-0.02258 -0.01411,-0.02258 0.03722,-0.01429 0.03715,-0.01429 -0.0053,-0.26023 -0.0049,-0.260234 0.0046,-0.01958 0.0046,-0.01958 0.03493,0.02914 0.03493,0.02921 0.06572,-0.07688 0.06572,-0.07688 v -0.02872 -0.02872 l -0.03493,-0.01348 -0.03493,-0.01348 -0.0254,0.0254 -0.0254,0.0254 H 46.564014 46.456452 V 76.81089 76.77618 L 46.282638,76.69703 46.10886,76.61788 45.991208,76.55799 45.873522,76.4981 V 76.44765 76.3972 h 0.02505 0.02505 l -0.02787,-0.03362 -0.02787,-0.03362 H 45.758521 45.649195 V 76.2739 76.21784 h 0.04166 0.04212 l -0.0071,-0.06204 -0.0071,-0.06204 0.01658,-0.02716 0.01658,-0.02716 0.481048,-0.0061 0.481118,-0.0061 0.006,-0.162574 0.006,-0.162574 h 0.0551 0.05507 v -0.05676 -0.05677 l 0.03492,-0.0133 0.03457,-0.0133 -0.04551,-0.03189 -0.04561,-0.03189 -0.02822,0.004 -0.02822,0.0041 -0.07288,-0.0028 -0.07288,-0.0028 v -0.04694 -0.04695 l 0.04491,-0.01175 0.0448,-0.01175 v -0.08468 -0.08468 l 0.03761,-0.01457 0.0381,-0.01457 0.275872,0.0036 0.275802,0.0036 0.129081,-0.11818 0.129082,-0.118181 0.137264,-0.06437 0.1373,-0.06437 0.17209,-0.01933 0.172053,-0.01933 0.0439,0.01147 0.0439,0.01146 V 74.584307 74.35745 h 0.30187 0.30191 l 0.006,0.207423 0.006,0.207419 0.0474,0.0068 0.0474,0.0068 0.0613,0.156433 0.0614,0.156439 -0.0226,0.02741 -0.0226,0.02741 -0.007,0.06727 -0.007,0.06727 0.37771,0.01326 0.37765,0.01327 0.0148,0.02402 0.0145,0.02402 1.13891,-0.0041 1.13894,-0.004 -0.006,0.0897 -0.006,0.08969 -0.12336,-0.0071 -0.1233,-0.0071 -0.87266,-0.004 -0.87267,-0.0041 -0.01,0.02801 -0.01,0.02805 h 0.0564 0.0563 l 0.0349,0.03521 0.0349,0.03524 v 0.02755 0.02755 l -0.0268,0.02688 -0.0268,0.02692 h -0.25068 -0.25062 l -0.0272,-0.0326 -0.0272,-0.0326 0.007,-0.03964 0.007,-0.03965 0.0895,-0.02759 0.0896,-0.02759 -0.15702,0.0157 -0.15699,0.0157 -0.18499,-2.86e-4 -0.18496,-2.85e-4 v 0.03937 0.03938 l 0.0394,-0.0036 0.0394,-0.0036 0.0385,0.0036 0.0385,0.0036 0.0183,0.07083 0.0183,0.07084 0.138,0.03776 0.13801,0.03777 0.0198,-0.0133 0.0198,-0.0133 0.0152,-0.04112 0.0152,-0.04112 0.0279,0.0092 0.0279,0.0092 0.007,0.04874 0.007,0.04875 0.0376,0.01972 0.0376,0.01969 0.0784,0.01528 0.0785,0.01528 0.0616,0.02378 0.0617,0.02378 v 0.03179 0.03178 l 0.0505,0.06903 0.0504,0.06904 0.44845,-0.0083 0.44845,-0.0083 0.007,0.08408 0.007,0.08409 h -0.40361 -0.40358 l 0.20497,0.297113 0.20496,0.29712 0.14122,0.201725 0.14128,0.201722 v 0.129025 0.129035 h 0.0983 0.0983 l 0.0116,-0.04485 0.0116,-0.04484 h 0.39455 0.39448 v 0.03358 0.03362 h 0.42421 0.42425 l 0.0354,0.01362 0.0354,0.01362 v 0.0387 0.0387 l -0.0169,0.01683 -0.0166,0.01683 -0.008,0.05981 -0.008,0.0598 -0.0141,1.143621 -0.0141,1.143617 -0.56384,0.006 -0.56392,0.006 -0.008,0.08932 -0.009,0.08931 h 0.018 0.018 l 0.13332,-0.06727 0.13321,-0.06727 h 0.0296 0.03 l 0.076,0.05606 0.076,0.05606 h 0.0628 0.063 v 0.336363 0.336356 h -0.15699 -0.15699 v 0.06876 0.06876 l -0.0616,-0.0071 -0.0617,-0.0071 -0.007,-0.06167 -0.007,-0.06166 h -0.031 -0.031 l -0.0145,0.0224 -0.0141,0.02237 h -0.0758 -0.0758 l 0.0145,0.08409 0.0145,0.08409 0.004,0.03362 0.005,0.03358 -0.0325,0.231493 -0.0321,0.2315 0.0212,0.178629 0.0212,0.178633 -0.0451,-0.0065 -0.045,-0.0065 -0.0155,-0.0897 -0.0155,-0.08969 v -0.134543 -0.134549 l 0.0321,-0.195259 0.0318,-0.19527 -0.008,-0.04018 -0.008,-0.04018 -0.0131,-0.06167 -0.013,-0.06167 h -0.0668 -0.0669 v -0.04484 -0.04485 h -0.24528 -0.24536 l -0.0155,0.02561 -0.0155,0.02561 -0.004,0.09633 -0.005,0.09632 -0.0314,0.03758 -0.0314,0.03763 -0.005,0.03669 -0.005,0.03669 -0.004,0.03974 -0.005,0.03973 -0.0569,0.02589 -0.0569,0.02589 0.0131,0.03309 0.013,0.03309 -0.0494,0.05258 -0.0494,0.05257 h -0.0408 -0.0408 v 0.03006 0.03013 l -0.0408,0.03714 -0.0412,0.03714 h -0.0346 -0.0349 l -0.0116,0.04613 -0.0116,0.04613 -0.0676,0.02547 -0.0676,0.0255 -0.0109,0.04063 -0.0109,0.04063 -0.0694,0.01386 -0.0694,0.01387 v 0.03288 0.03281 l -0.0504,0.04211 -0.0504,0.04211 -0.0279,0.0011 -0.0279,0.0011 v 0.02558 0.02558 l -0.0394,0.02981 -0.0394,0.02981 -0.0368,3.39e-4 -0.0367,0.0011 -0.0116,0.04431 -0.0116,0.0443 -0.0639,0.0285 -0.0639,0.02843 -0.0408,0.05056 -0.0407,0.05055 h -0.0545 -0.0544 v 0.03987 0.03987 l -0.0452,0.03862 -0.0451,0.03861 h -0.0332 -0.0335 v 0.02822 0.02822 l -0.0504,0.03334 -0.0505,0.03334 -0.0243,3.39e-4 -0.025,3.42e-4 -0.0394,0.03267 -0.0394,0.03263 -0.9882,0.0055 -0.98817,0.0055 -0.02716,-0.02275 -0.02716,-0.02275 -0.01305,0.02124 -0.01305,0.02124 -1.194188,-3.38e-4 -1.194118,-3.43e-4 -0.04487,-0.02445 -0.0448,-0.02441 -0.02081,0.006 -0.02081,0.006 -0.06361,-0.02639 -0.06368,-0.02639 v -0.01866 -0.01866 l -0.08054,-0.03826 -0.08064,-0.03825 -0.02258,-0.04978 -0.02258,-0.0498 -0.03761,0.0099 -0.03764,0.0099 -0.05644,-0.05183 -0.05641,-0.05182 -0.06392,-0.03358 -0.06406,-0.03366 -0.01094,-0.0405 -0.01094,-0.0405 -0.03246,0.01245 -0.03246,0.01245 -0.06724,-0.06724 -0.06724,-0.06724 h -0.02857 -0.02858 l -0.03722,-0.04099 -0.03718,-0.04104 v -0.02625 -0.02625 h -0.04166 -0.04166 l -0.05352,-0.05304 -0.05355,-0.05303 -0.05168,-0.01612 -0.05179,-0.01612 -0.02117,-0.05549 -0.02117,-0.05549 -0.02222,0.01355 -0.02187,0.01355 -0.05673,-0.03718 -0.05669,-0.03714 v -0.03348 -0.03348 l -0.03175,0.01224 -0.03245,0.01224 -0.05895,-0.05468 -0.05898,-0.05467 h -0.02117 -0.02117 l -0.04512,-0.03862 -0.04508,-0.03861 v -0.03987 -0.03987 h -0.04078 -0.04075 l -0.05091,-0.05416 -0.05091,-0.05415 0.01411,-0.04309 0.01376,-0.0431 -0.05644,-0.06087 -0.05637,-0.06087 v -0.076 -0.07601 l -0.01834,-0.01125 -0.01834,-0.01125 -0.211631,0.05432 -0.211596,0.05433 -0.409258,3.39e-4 -0.409222,3.39e-4 v 0.0582 0.0582 l -0.335668,-0.01619 -0.335633,-0.01619 -0.01446,0.09254 -0.01482,0.09254 h -0.185913 -0.185914 l -0.01411,-0.06447 -0.01446,-0.06447 -0.206269,-0.01559 -0.20627,-0.01559 -0.05041,-0.01203 -0.05048,-0.0121 v -0.04242 -0.04243 h -0.09666 -0.09677 l -0.06442,0.06728 -0.06445,0.06727 h -0.231674 -0.231246 v 0.07849 0.07849 h -0.771278 -0.771313 l -0.0254,0.148043 -0.0254,0.148047 -0.05599,0.148798 -0.05599,0.148791 -0.09807,0.15724 -0.098,0.157244 -0.133879,0.128531 -0.133844,0.128524 -0.1651,0.09748 -0.165135,0.09748 -0.145768,0.04936 -0.145768,0.04938 -0.134549,0.01118 -0.13455,0.01118 -0.100859,0.0068 -0.10093,0.0068 -0.137089,-0.017 z m 10.126697,-0.322873 0.02787,-0.03337 0.01975,0.01228 0.01976,0.01228 v -0.01369 -0.01369 l -0.03246,-0.06271 -0.03245,-0.06271 h -0.09267 -0.09267 l -0.03457,0.05331 -0.03493,0.05331 0.0088,0.0049 0.0085,0.0049 0.06724,0.03866 0.06728,0.03866 0.03679,3.42e-4 0.03672,3.39e-4 0.02787,-0.03337 z m 1.31893,-0.01288 0.09663,-0.02713 0.06036,0.03002 0.06032,0.02999 0.02222,0.01118 0.02222,0.01118 -0.05006,-0.06368 -0.05009,-0.06368 -0.03387,-0.113111 -0.03351,-0.113104 v -0.05898 -0.05898 l -0.06727,-0.04974 -0.06728,-0.04973 v -0.03295 -0.03295 h -0.03351 -0.03387 v 0.02462 0.02466 l -0.06869,0.06419 -0.06876,0.0642 -0.01023,0.11552 -0.01094,0.115514 -0.03493,0.06682 -0.03457,0.06681 0.0071,0.0036 0.0071,0.0036 0.06728,0.03951 0.06724,0.03951 0.04484,-0.0098 0.04491,-0.0098 z m 1.157924,0.02582 0.0127,-0.02046 0.0848,-0.01432 0.0848,-0.01436 0.0654,0.03394 0.0654,0.03394 0.007,-0.0078 0.007,-0.0078 -0.0582,-0.08571 -0.0582,-0.08571 -0.0906,-0.0025 -0.0906,-0.0025 -0.0664,0.09657 -0.0664,0.09657 h 0.0448 0.0448 z m 1.402433,-0.300432 0.0198,-0.04909 0.055,-0.05055 0.0551,-0.05054 0.0711,-0.01425 0.0712,-0.01425 0.0363,-0.05856 0.0363,-0.05856 0.0526,-0.05184 0.0526,-0.05184 0.0471,-0.0091 0.0471,-0.0091 0.0557,-0.03646 0.0557,-0.03647 -0.0194,-0.01877 -0.0194,-0.01877 -0.153,-0.03524 -0.153,-0.03524 -0.0937,-0.06471 -0.0936,-0.06471 -0.0965,-0.103406 -0.0965,-0.103403 h -0.0219 -0.0226 l -0.0553,0.0362 -0.0552,0.03619 v 0.02681 0.02681 l -0.03,0.0413 -0.03,0.0413 -0.0682,-0.02378 -0.0683,-0.02378 -0.0229,0.02293 -0.0229,0.02293 -0.0293,-0.01781 -0.0293,-0.01781 h -0.0584 -0.0583 l -0.0236,0.01457 -0.024,0.01457 -0.0417,-0.03055 -0.0417,-0.03055 -0.0272,0.03691 -0.0272,0.03691 -0.0279,-0.02752 -0.0279,-0.02745 -0.0279,0.02304 -0.0272,0.02304 -0.0296,-0.0314 -0.0296,-0.0314 -0.0314,0.03133 -0.0314,0.03133 -0.0459,-0.04032 -0.046,-0.04032 0.013,0.03566 0.0131,0.03566 -0.0148,0.02388 -0.0145,0.02388 -0.0986,0.0071 -0.0986,0.0071 -0.0268,-0.0905 -0.0268,-0.0905 -0.0727,-0.155554 -0.0727,-0.15555 -0.0486,-0.07273 -0.0485,-0.07273 -0.104948,-1.13e-4 -0.104952,-1.06e-4 -0.0071,0.05045 -0.0071,0.05045 -0.08456,0.007 -0.08456,0.007 0.01235,0.01993 0.01235,0.01993 -0.127282,0.248204 -0.127247,0.248211 0.0088,0.0084 0.0088,0.0084 0.275096,0.03534 0.275093,0.03534 0.10118,0.05934 0.10132,0.05933 0.0325,0.06334 0.0328,0.06334 0.0499,0.03499 0.05,0.035 0.0792,-0.0014 0.079,-0.0014 0.0673,-0.104559 0.0673,-0.10456 0.12333,-0.06453 0.12333,-0.06453 0.16813,0.0094 0.16824,0.0093 0.0935,0.05916 0.0935,0.05915 0.0555,0.07372 0.0556,0.07372 0.0335,0.100913 0.0339,0.100905 -0.01,0.107861 -0.01,0.107862 0.047,-0.02508 0.0469,-0.02512 0.0198,-0.04909 z m -5.022252,-0.389097 0.0556,-0.06794 0.08752,-0.06341 0.08749,-0.06342 0.170357,-0.0094 0.170356,-0.0094 0.123402,0.0646 0.123331,0.0646 0.06724,0.1053 0.06728,0.105294 0.08611,3.39e-4 0.08608,3.42e-4 0.05969,-0.07113 0.05962,-0.07113 0.06678,-0.06351 0.06675,-0.0635 0.09017,-0.03168 0.09024,-0.03168 0.229835,-0.02685 0.229835,-0.02685 v -0.02004 -0.02004 L 46.254813,81.355059 46.1427,81.133183 v -0.03593 -0.03592 h -0.0678 -0.06773 l -0.0254,-0.05606 -0.0254,-0.05607 H 45.839177 45.72202 l -0.03807,0.05816 -0.03806,0.05815 -0.103434,0.04575 -0.103434,0.04574 -0.526839,-0.01633 -0.526768,-0.01626 -0.06936,-0.0065 -0.06936,-0.0065 -0.02434,0.05154 -0.02399,0.05154 0.03351,0.03372 0.03351,0.03373 -0.01411,0.03772 -0.01446,0.03772 -0.05337,-0.01341 -0.05331,-0.01341 -0.05729,0.07509 -0.05725,0.07509 0.02399,0.02413 0.02434,0.02413 -0.01341,0.03436 -0.01305,0.03436 -0.06865,-0.02399 -0.06869,-0.02392 -0.05281,0.03464 -0.05281,0.03464 0.01094,0.05741 0.01129,0.05741 h -0.04036 -0.04029 l -0.03542,-0.03175 -0.03538,-0.03178 -0.06166,0.01196 -0.06163,0.01196 v 0.02046 0.0205 l 0.03351,0.01288 0.03351,0.01288 v 0.03037 0.03037 l 0.04911,0.04572 0.04907,0.04573 h 0.04875 0.04886 l 0.05955,0.04682 0.05948,0.04683 0.03351,0.06497 0.03351,0.06496 0.06128,0.01288 0.06128,0.01288 0.055,0.03023 0.05503,0.03023 0.03493,-0.139605 0.03492,-0.139615 0.05553,-0.06794 z m 4.874862,-0.798008 -0.006,-0.05045 -0.005,-0.03924 -0.005,-0.03924 h -0.0541 -0.0541 l 0.0258,0.07287 0.0258,0.07288 0.0226,0.01651 0.0226,0.01651 0.0131,2.89e-4 0.013,2.82e-4 -0.006,-0.05046 z m -0.65962,-0.08409 v -0.0224 h 0.0449 0.0448 v 0.02261 0.02261 l 0.0455,-0.02822 0.0455,-0.02822 0.0187,0.03041 0.0187,0.03041 0.0138,-0.02177 0.0134,-0.02173 h 0.0902 0.0903 v 0.01937 0.01937 h 0.0198 0.0198 l 0.013,-0.03358 0.0131,-0.03362 h -0.33694 -0.33701 l 0.0145,0.02254 0.0141,0.02251 0.0546,-0.01372 0.0547,-0.01372 v 0.02487 0.02487 h 0.0219 0.0226 z m -2.221906,-0.48211 v -0.04486 l -0.0194,0.04486 -0.0194,0.04485 v 0.03362 0.03362 l 0.02222,-0.03362 0.02187,-0.03362 v -0.04485 z m 3.455216,-0.01118 0.0339,-0.02173 h -0.0226 -0.0219 l -0.0335,0.02173 -0.0335,0.02173 h 0.0222 0.0226 z m -8.050146,-2.63441 0.03351,-0.02201 0.110737,-0.0041 0.110702,-0.004 0.04988,0.03267 0.04981,0.03267 0.119733,-0.0069 0.119768,-0.0069 0.0056,-0.36999 0.0056,-0.369997 -0.08851,-0.07315 -0.08844,-0.07314 -0.845961,0.0059 -0.845926,0.0059 -0.09363,0.213025 -0.09366,0.213029 -0.09313,0.211285 -0.09306,0.211293 v 0.0073 0.0073 h 0.144427 0.144427 l 0.01164,-0.01944 0.01235,-0.01944 -0.04434,-0.04009 -0.04434,-0.0401 v -0.05258 -0.05258 h 0.03493 0.03493 l 0.08798,0.09531 0.08802,0.0953 0.05122,0.0059 0.05126,0.0059 0.145768,0.01655 0.145733,0.01655 h 0.370028 0.369958 z m -1.753024,-0.441368 0.160902,-0.351285 v -0.0075 -0.0075 h -0.397933 -0.398039 l -0.006,0.229845 -0.0063,0.229845 h 0.199144 0.199107 l 0.04032,0.04431 0.03986,0.0443 -0.01164,0.103414 -0.01164,0.103402 0.01588,-0.01877 0.01588,-0.01873 0.160832,-0.351275 z m -0.764081,0.295529 0.02787,-2.89e-4 v -0.04485 -0.04485 h -0.02117 -0.02117 l -0.0629,0.05785 -0.06297,0.05785 0.05609,-0.0127 0.05609,-0.01273 0.02787,-2.9e-4 z m 0.252236,-0.03394 0.05267,-0.05606 h -0.09359 -0.09356 v 0.05606 0.05606 h 0.04078 0.04078 z m 8.301672,-0.209021 0.0737,-0.06326 0.0516,-0.03496 0.0515,-0.03489 -0.10485,-0.0157 -0.10488,-0.0157 -0.031,-0.01178 -0.031,-0.01182 v 0.08472 0.08472 l -0.0372,0.04099 -0.03718,0.04103 h 0.04752 0.0476 z m 0.21946,0.01764 v -0.04563 l -0.0394,0.02247 -0.0394,0.02247 -0.0335,0.02286 -0.0335,0.02286 0.0729,2.9e-4 0.0729,2.85e-4 v -0.04564 z m 0.397443,0.0011 -0.0569,-0.04485 h -0.0113 -0.0113 l 0.0116,0.04485 0.0116,0.04484 h 0.0564 0.0565 z m 0.10234,-0.112127 -0.0116,-0.04484 h -0.0421 -0.0421 v 0.01432 0.01432 l 0.0394,0.02981 0.0394,0.02981 0.0145,3.42e-4 0.0145,0.0011 -0.0116,-0.04485 z m -0.550293,-0.263465 0.01,-0.02798 -0.0371,-0.01422 -0.0372,-0.01425 -0.0236,0.02342 -0.0233,0.02342 0.0155,0.02561 0.0155,0.02561 0.0349,-0.0068 0.0349,-0.0069 z m 0.928793,-0.417993 0.0823,-0.03231 0.025,-0.04674 0.0251,-0.04675 h -0.0349 -0.0349 l -0.11151,0.08327 -0.11155,0.08327 v 0.01781 0.01782 l 0.0394,-0.02205 0.0394,-0.02205 z m -2.429585,-0.0417 -0.0071,-0.05045 -0.05045,-0.0072 -0.05045,-0.0072 v -0.03048 -0.03041 l 0.03941,-0.01027 0.03895,-0.01027 -0.212972,-0.0014 -0.213007,-0.0014 0.07846,0.04296 0.07849,0.04296 0.03387,0.0011 0.03422,0.0011 0.100506,0.05507 0.100648,0.05506 0.01834,0.0014 0.01835,0.0014 -0.0071,-0.05045 z m -0.578979,-0.526167 v -0.02886 h -0.04491 -0.0448 v 0.03224 0.03224 l 0.0448,-0.0036 0.04491,-0.0036 z m 0.980793,-0.829719 0.0074,-0.02314 -0.04434,-0.01164 -0.04438,-0.01164 -0.0127,0.01249 -0.0127,0.01249 v 0.02978 0.02977 l 0.04928,-0.0075 0.04925,-0.0075 z"
           id="sasdfa" />
        <path
           d="m 41.062862,77.604974 0.02659,-0.105425 -0.0098,-0.04525 h -0.06484 l -0.04058,0.01773 -0.04945,-0.0033 -0.05551,-0.02892 -0.02659,-0.111023 -0.01446,-0.04385 -0.04711,-0.02612 0.04711,-0.163736 -0.187059,-0.03825 0.03825,-0.01913 0.03499,-0.02146 0.04058,-0.128749 0.02192,-0.06251 0.03639,-0.06577 c 0.0061,-0.02332 0.0061,-0.02332 0.04851,-0.05551 l 0.04945,-0.03638 c 0.01913,-0.01493 0.0807,-0.03405 0.0807,-0.03405 l 0.06111,-0.01166 0.06717,-0.0089 0.06437,0.0061 0.04991,0.0056 0.05831,0.01493 0.05085,0.02053 c 0.0089,0.0028 0.04572,0.03172 0.04572,0.03172 l 0.06997,0.07883 c 0.01446,0.01913 0.03219,0.05878 0.03219,0.05878 l 0.01166,0.04058 0.0089,0.0821 v 0.04058 l -0.0089,0.05318 -0.01306,0.04945 c 0,0.04945 0,0.04945 0.01306,0.06437 l -0.04665,0.01166 -0.01773,0.04478 0.08257,0.0793 0.125951,0.0056 0.221578,0.153473 0.105425,-0.02146 c 0.02566,-0.07184 0.02566,-0.07184 0.06018,-0.09843 0.03499,-0.02612 0.132014,-0.04338 0.164668,-0.03778 0.03219,0.0056 0.19359,0.0849 0.214115,0.09703 0.02146,0.0126 0.189392,0.18566 0.224378,0.226244 0.03545,0.04058 0.186592,0.359657 0.186592,0.359657 0,0 0.06624,0.102626 0.06111,0.17633 -0.0051,0.07417 -0.02426,0.07837 -0.04851,0.0919 l -0.08817,0.05178 -0.04711,0.02286 0.01586,0.08817 c 0.130149,0.03079 0.130149,0.03079 0.162336,0.06064 0.03265,0.03079 0.179129,0.25983 0.187525,0.307878 0.0089,0.04712 0.0089,0.04712 0.03499,0.339132 l -0.05365,0.06951 -0.01493,0.180995 c 0,0 -0.01353,0.05551 -0.04851,0.09843 -0.03452,0.04245 -0.199188,0.01959 -0.199188,0.01959 l -0.04618,-4.66e-4 -0.03732,0.431962 0.05738,0.0709 0.222512,-0.0019 0.06298,0.05365 0.158604,-0.03825 c 0.07883,-0.08117 0.07883,-0.08117 0.135746,-0.09656 0.05784,-0.01679 0.05784,-0.01679 0.157671,0.0084 l 0.06764,0.164668 -0.02379,0.04012 0.01539,0.09983 c 0.08957,0.139944 0.08957,0.139944 0.09656,0.165134 0.0075,0.02566 0.02799,0.133881 0.02659,0.164202 0,0.03032 0,0.03032 -0.03359,0.0891 -0.101694,0.07557 -0.101694,0.07557 -0.156272,0.04805 -0.05458,-0.02752 -0.0779,-0.06904 -0.08817,-0.123618 -0.0098,-0.05505 -0.0098,-0.05505 -0.01773,-0.164668 l -0.05505,-0.08397 -0.173998,0.02053 -0.09749,0.01679 -0.06577,0.08676 -0.135279,0.05598 -0.353594,0.168867 -0.181461,0.01446 -0.09703,-0.135746 -0.11942,-0.534588 -0.13388,-0.358725 -0.37925,-0.04152 -0.325138,-0.122219 0.03778,0.175864 -0.03732,0.116154 0.0807,0.404906 0.01633,0.397443 0.0051,0.04711 -0.233241,-0.01026 -0.0056,-0.04105 -0.0877,0.0047 -0.0765,0.05691 -0.356859,-0.01773 -0.03918,-0.09423 0.04198,-0.04618 0.210384,-0.02006 0.167,-0.171665 0.03592,-0.02892 -0.03172,-0.234641 -0.07277,-0.158603 -0.139478,-0.05551 -0.114288,-0.153472 -0.03639,-0.264029 c 0,0 -0.01306,-0.24537 -0.02286,-0.345197 -0.0098,-0.09936 0.105425,-0.146009 0.154872,-0.155338 0.04851,-0.0084 0.04851,-0.0084 0.742173,-0.01586 l -0.16187,-0.264495 0.08164,-0.0933 -0.128283,-0.187992 -0.158137,0.144609 -0.210384,-0.06997 -0.444557,-0.445024 0.02332,-0.139945 -0.234174,-0.140411 0.07044,-0.280822 0.257498,0.02332 0.06997,0.210384 0.140412,-0.02332 0.163735,0.280822 0.06904,-0.09563 v -0.05598 z"
           style="fill:#000000;fill-opacity:1;fill-rule:nonzero;stroke:none;stroke-width:0.466482"
           id="path162585-4" />
        <path
           d="m 46.595571,76.109363 -0.08688,-0.06537 -0.02078,-0.04137 0.05047,-0.04071 0.04272,-0.01167 0.03642,-0.03361 0.02505,-0.05736 -0.049,-0.103111 -0.01627,-0.04321 0.02027,-0.04991 -0.139463,-0.09787 0.121589,-0.147208 -0.04178,0.0091 -0.04071,0.0053 -0.112415,-0.07474 -0.05631,-0.03489 -0.06962,-0.02835 c -0.01939,-0.01432 -0.01939,-0.01432 -0.07261,-0.01275 l -0.06133,0.0027 c -0.02426,3.89e-4 -0.08419,0.02416 -0.08419,0.02416 l -0.05489,0.02929 -0.05787,0.03524 -0.04627,0.04516 -0.03533,0.03569 -0.03601,0.04823 -0.02669,0.0479 c -0.0052,0.0078 -0.01567,0.05339 -0.01567,0.05339 l -0.005,0.105287 c 7.55e-4,0.02397 0.01185,0.06596 0.01185,0.06596 l 0.0164,0.03891 0.04461,0.06949 0.02548,0.03159 0.04031,0.03581 0.04121,0.03029 c 0.03104,0.03849 0.03104,0.03849 0.03025,0.0583 l 0.04363,-0.02021 0.04191,0.02372 -0.01449,0.113563 -0.09452,0.08343 -0.07612,0.258566 -0.09553,0.04948 c -0.06507,-0.03981 -0.06507,-0.03981 -0.108637,-0.03883 -0.04363,0.0016 -0.129991,0.04911 -0.151892,0.07397 -0.02154,0.02457 -0.09738,0.18762 -0.105746,0.209947 -0.0088,0.02328 -0.03086,0.263413 -0.03261,0.316967 -0.0021,0.05384 0.08055,0.39709 0.08055,0.39709 0,0 0.01287,0.121467 0.06313,0.175616 0.05053,0.05453 0.06808,0.04577 0.09545,0.04108 l 0.101136,-0.01505 0.05102,-0.01178 0.04301,0.07859 c -0.08197,0.105673 -0.08197,0.105673 -0.08829,0.149115 -0.0061,0.04446 0.02369,0.314702 0.04732,0.357372 0.02265,0.04227 0.02265,0.04227 0.185671,0.285939 l 0.0854,0.02042 0.12525,0.131509 c 0,0 0.04538,0.03471 0.09955,0.04616 0.05352,0.01137 0.167342,-0.109802 0.167342,-0.109802 l 0.03565,-0.02935 0.300234,0.312799 -1.52e-4,0.09121 -0.174391,0.138214 -0.01534,0.0813 -0.147467,0.0698 c -0.112318,-0.01369 -0.112318,-0.01369 -0.166282,0.01006 -0.05556,0.02324 -0.05556,0.02324 -0.117453,0.105524 l 0.05073,0.170638 0.0437,0.01629 0.05069,0.08737 c 0.01814,0.165161 0.01814,0.165161 0.02851,0.189156 0.01027,0.02468 0.06226,0.121782 0.08239,0.144504 0.01904,0.0236 0.01904,0.0236 0.08208,0.04827 0.126598,-0.005 0.126598,-0.005 0.151804,-0.06071 0.02521,-0.05569 0.01729,-0.102645 -0.009,-0.151574 -0.02693,-0.049 -0.02693,-0.049 -0.08958,-0.139305 l -0.0099,-0.09992 0.148324,-0.09326 0.08642,-0.04814 0.105661,0.02624 0.140442,-0.04135 0.381244,-0.09054 0.150323,-0.102666 -0.0097,-0.166576 -0.242661,-0.491082 -0.120998,-0.363273 0.269132,-0.270411 0.176351,-0.299253 0.081,0.160606 0.10197,0.06698 0.191385,0.365832 0.236804,0.319612 0.02561,0.03987 0.175108,-0.154415 -0.02141,-0.03547 0.07121,-0.0514 0.09527,-0.0037 0.26664,-0.237836 -0.02866,-0.09794 -0.06167,-0.0096 -0.176352,0.116465 -0.237759,-0.02878 -0.04612,4e-5 -0.122617,-0.202552 -0.04293,-0.169138 0.07372,-0.130772 -0.0074,-0.191208 -0.137433,-0.22836 c 0,0 -0.143877,-0.199189 -0.19892,-0.283044 -0.05475,-0.08349 -0.173725,-0.04746 -0.21807,-0.02368 -0.04303,0.02392 -0.04303,0.02392 -0.587646,0.45359 l -0.04005,-0.307498 -0.12212,-0.02137 -0.01817,-0.226864 0.213875,0.01328 0.11983,-0.186542 0.06665,-0.625488 -0.10601,-0.09429 0.09413,-0.256307 -0.231129,-0.174362 -0.18579,0.179809 0.07762,0.207684 -0.123933,0.07 0.04885,0.321378 -0.113776,-0.03109 -0.03514,-0.04357 z"
           style="fill:#000000;fill-opacity:1;fill-rule:nonzero;stroke:none;stroke-width:0.466482"
           id="path162585-48" />
      </g>
    </g>
  </g>
</svg>
