<?xml version="1.0" encoding="UTF-8" standalone="no"?>
<!-- Created with Inkscape (http://www.inkscape.org/) -->

<svg
   width="21.999578mm"
   height="9.0827093mm"
   viewBox="0 0 21.999578 9.0827093"
   version="1.1"
   id="svg13154"
   sodipodi:docname="inkporter-svg-uwdxo_vu.svg"
   xmlns:inkscape="http://www.inkscape.org/namespaces/inkscape"
   xmlns:sodipodi="http://sodipodi.sourceforge.net/DTD/sodipodi-0.dtd"
   xmlns="http://www.w3.org/2000/svg"
   xmlns:svg="http://www.w3.org/2000/svg">
  <sodipodi:namedview
     id="namedview13156"
     pagecolor="#ffffff"
     bordercolor="#666666"
     borderopacity="1.0"
     inkscape:pageshadow="2"
     inkscape:pageopacity="0.0"
     inkscape:pagecheckerboard="0"
     inkscape:document-units="mm"
     showgrid="false"
     inkscape:zoom="0.90583672"
     inkscape:cx="177.73623"
     inkscape:cy="473.04331"
     inkscape:window-width="1920"
     inkscape:window-height="1017"
     inkscape:window-x="-8"
     inkscape:window-y="-8"
     inkscape:window-maximized="1"
     inkscape:current-layer="layer1" />
  <defs
     id="defs13151" />
  <g
     inkscape:label="Layer 1"
     inkscape:groupmode="layer"
     id="layer1"
     transform="translate(-66.695487,-50.37106)">
    <path
       d="m 66.695746,53.364137 8.845627,0.09095 v 0.0014 c 0,0.135047 0.106109,0.121268 0.106109,0.121268 h 0.56086 v 0.649054 h -0.327974 l -0.140557,-0.307301 -0.487828,0.18052 -0.01242,0.208086 h -0.195682 l -0.199817,0.15434 -0.07993,-0.02755 -0.03858,0.03172 -0.03721,-0.04823 -0.101978,0.08268 0.04134,0.04272 -0.04134,0.03306 c 0,0 0.0041,0.03996 0.0083,0.07854 l -0.500228,0.385851 c -0.03858,-0.0083 -0.08819,-0.0303 -0.08819,-0.08957 v -0.110243 c 0,0 0.01655,-0.132292 -0.219107,-0.132292 -0.235645,0 -0.217731,0.194303 -0.217731,0.194303 l -0.0014,0.25218 h -0.0441 c 0.01242,-0.02893 0.02205,-0.06063 0.02205,-0.09922 0,-0.0689 -0.02618,-0.112998 -0.0565,-0.141937 v -0.104732 c 0.0248,-0.01517 0.03858,-0.03583 0.03858,-0.06201 0,-0.06063 -0.03858,-0.09784 -0.100595,-0.104729 -0.06201,-0.0069 -0.07993,0.0193 -0.07993,0.0193 v 0.165365 c 0.02342,0.0028 0.0441,0.0041 0.06339,0.0028 v 0.03858 c -0.01242,-0.0041 -0.02067,-0.0055 -0.02067,-0.0055 h -0.08406 c 0,0 -0.09371,0.07028 -0.09371,0.206703 0,0.03171 0.0055,0.06064 0.01379,0.08544 H 73.07467 c -0.0248,-0.0441 -0.04272,-0.08544 -0.04961,-0.122643 -0.03721,-0.187413 -0.0041,-0.271476 0.05788,-0.352778 l -0.09233,-0.05375 c 0,0 -0.08819,0.132291 -0.08819,0.293521 0,0.07717 0.0248,0.172255 0.08819,0.286632 v 0.02343 h 0.01379 c 0.06615,0.112998 0.16812,0.246669 0.321084,0.40652 l -0.03721,0.02893 -0.09922,-0.04134 -0.04686,0.03583 -0.0372,-0.06339 -0.103353,0.08819 0.03583,0.05512 -0.03583,0.02755 0.01792,0.10473 -0.03168,0.0248 h -0.930173 c -0.8723,0.126781 -0.94947,0.766191 -0.94947,0.766191 l 0.369313,-0.08268 -0.04547,0.07304 -0.09233,-0.0014 -0.133671,0.366557 0.07304,0.06477 -0.02067,0.07028 -0.08819,0.03583 v 0.389985 l 0.119888,0.04547 0.02893,0.0565 -0.0028,-0.0041 -0.04134,0.07855 0.219107,0.323836 0.100598,-0.02342 0.07166,0.05512 -0.01101,0.05512 0.301791,0.246669 0.05788,-0.03171 0.05926,0.04548 -0.01379,0.07441 0.301791,0.24667 0.07304,-0.04134 0.05512,0.04272 -0.01379,0.07166 0.301787,0.246669 0.07028,-0.03997 0.05926,0.04686 -0.0055,0.0937 0.343129,0.186037 0.08131,-0.0689 0.04685,0.0193 0.175013,0.07579 0.03858,0.07166 h 0.389985 l 0.02205,-0.05512 h 0.209462 l 0.03168,0.0565 h 0.389982 l 0.02205,-0.0565 h 0.09371 l 0.03168,0.0565 h 0.389985 l 0.02205,-0.0565 h 0.07579 l 0.0303,0.0565 h 0.389985 l 0.02205,-0.0565 h 0.09508 l 0.0303,0.0565 h 0.391364 l 0.02067,-0.0565 h 0.07166 l 0.03168,0.0565 h 0.389985 l 0.02205,-0.0565 h 0.09508 l 0.0303,0.0565 h 0.389982 l 0.02205,-0.0565 h 0.07442 l 0.03168,0.0565 h 0.389982 l 0.02205,-0.0565 h 0.09509 l 0.0303,0.0565 h 0.389985 l 0.02205,-0.0565 h 0.06064 l 0.03168,0.0565 h 0.389986 l 0.02229,-0.05655 h 0.09508 l 0.0303,0.0565 h 0.389985 l 0.02205,-0.0565 h 0.07579 l 0.0303,0.0565 h 0.391361 l 0.02067,-0.0565 h 0.09508 l 0.03168,0.0565 h 0.389985 l 0.02205,-0.0565 h 0.06339 l 0.0303,0.0565 h 0.389981 l 0.02205,-0.0565 h 0.09509 l 0.03168,0.0565 h 0.389986 l 0.02205,-0.0565 h 0.07442 l 0.03168,0.0565 h 0.389985 l 0.02205,-0.0565 h 0.0937 l 0.03168,0.0565 h 0.389985 l 0.02205,-0.0565 h 0.06063 l 0.03168,0.0565 h 0.389985 l 0.02205,-0.0565 h 0.09371 l 0.03168,0.0565 h 0.389986 l 0.02205,-0.0565 h 0.07579 l 0.0303,0.0565 h 0.389985 l 0.02205,-0.0565 h 0.09508 l 0.03034,0.0565 h 0.389995 l 0.02187,-0.0565 h 0.130916 l 0.03316,0.03305 0.374826,-0.106108 0.0067,-0.07442 0.0744,-0.03168 0.06339,0.04685 0.352778,-0.163986 -0.0042,-0.06201 0.08819,-0.03858 0.05098,0.03721 0.352778,-0.163989 -0.0042,-0.0689 0.04685,-0.02342 0.06064,0.0441 0.354154,-0.163989 -0.0056,-0.08544 0.177765,-0.09095 -0.110243,0.06064 0.07165,0.05374 0.354153,-0.165365 -0.0067,-0.103353 0.08682,-0.0441 0.0035,-0.0014 0.05098,0.03858 0.352778,-0.165365 -0.0067,-0.114377 0.08269,-0.09508 0.09786,0.0041 0.173637,-0.350023 -0.08132,-0.07303 0.0067,-0.09646 0.12125,-0.07166 -0.04272,-0.388606 -0.119874,-0.0193 -0.03457,-0.06615 0.04685,-0.100598 -0.252166,-0.297656 -0.104739,0.04823 -0.09924,-0.0441 0.03175,-0.06201 0.80892,0.0041 0.03584,-0.05926 0.112995,0.05237 0.0992,-0.177768 h 0.04272 l 0.146085,-0.250804 v -0.05099 l -0.06752,-0.03168 h -0.06202 l 0.05098,-0.08544 -0.04685,-0.08819 0.148837,-0.08131 -0.158468,-0.326594 h 0.09507 c 0.0194,-0.230132 -0.06752,-0.358289 -0.112995,-0.4079 l 0.152964,-0.152961 v -0.361004 h -0.08682 v 0.216351 h -0.04135 V 54.46379 h -0.117122 l -0.121285,0.07442 c 0,0 -0.01376,-0.08819 -0.08407,-0.180523 -0.07165,-0.09233 -0.281093,-0.04685 -0.281093,-0.04685 l -0.336268,-0.676617 -0.0194,0.0097 -0.133667,-0.257693 -0.07027,0.03443 0.12954,0.260449 -0.02081,0.0097 0.08957,0.179144 -0.673841,0.348643 -0.0042,-0.0069 h -0.05239 l -0.03316,0.07028 -1.070716,0.0014 v -0.13505 h -0.265959 v 0.136426 h -0.05235 v -0.05788 h -0.432717 v 0.05926 l -0.635283,0.0014 v -0.07579 h -0.173637 c -0.03582,-0.05237 -0.125391,-0.08957 -0.230124,-0.08957 -0.106108,0 -0.195682,0.03721 -0.23151,0.08957 h -0.137802 v 0.07717 h -0.479559 v -0.04548 h -0.148827 v 0.04686 h -0.14883 c 0,0 0.04685,-0.06063 0.04685,-0.344512 0,-0.283873 0.237024,-0.261824 0.237024,-0.261824 0,0 1.663287,-0.05375 2.021569,-0.06753 0.358316,-0.01379 0.369323,-0.270094 0.369323,-0.270094 v -0.531926 h 0.159843 v 0.03996 h 0.237032 V 52.64077 h -0.03175 v -0.03454 h 0.03175 v -0.07855 h -0.237032 v 0.07855 h 0.02081 v 0.03447 h -0.02081 v 0.01792 h -0.159843 v -0.301791 h 0.112994 l 0.173638,-0.278363 c 0.04547,-0.01242 0.07856,-0.05237 0.07856,-0.100598 0,-0.0565 -0.04547,-0.101974 -0.103364,-0.101974 -0.05652,0 -0.101988,0.04547 -0.101988,0.101974 0,0.02755 0.0095,0.05099 0.02611,0.07028 l -0.100577,0.17501 h -0.08544 V 52.08397 c 0,-0.201193 -0.202565,-0.173634 -0.202565,-0.173634 H 85.034352 V 51.8373 h -0.07169 v -0.333505 h 0.01376 v -0.121268 h -0.06061 v 0.454752 h -0.06893 v 0.07304 h -1.535025 v -0.09646 h -0.08681 V 51.41836 h -0.02893 v -0.04685 h 0.02893 V 51.29296 H 83.3408 v -0.172255 l 0.227375,-0.213596 0.0193,-0.06063 H 84.2696 v -0.0689 h 0.124037 v 0.0193 h 0.05098 v 0.136426 l -0.03034,0.0303 h -0.181892 c 0,0 -0.08545,-0.01517 -0.08545,0.09784 0,0.113002 0.0882,0.115757 0.0882,0.115757 h 0.63253 c 0,0 0.09507,0 0.09507,-0.106108 0,-0.106109 -0.08682,-0.108868 -0.08682,-0.108868 H 84.69815 l -0.03584,-0.03306 V 50.79687 h 0.05514 v -0.03168 l 2.044983,-0.03721 v 0.02067 h 0.217734 v -0.15571 h -0.217734 v 0.0193 L 84.71745,50.58882 V 50.55023 H 84.3936 v 0.03859 h -0.124036 v -0.07304 h -0.928783 v -0.02621 h 0.01654 v -0.09922 h -0.146074 v 0.03721 h -0.223242 v 0.04823 H 81.706431 V 50.42756 H 81.58379 v -0.0565 h -0.227376 v 0.0565 h -0.129536 v 0.04823 h -0.304546 v 0.03996 h 0.02067 v 0.143316 h -0.14194 v 0.107488 h 0.14194 v 0.119888 h -0.02067 v 0.03996 h 0.281121 v 0.01517 h 0.740004 c 0.01379,0.07993 0.06064,0.09233 0.115757,0.07304 0.06615,-0.02342 0.230131,-0.01655 0.230131,-0.01655 l 0.14883,0.135047 0.133668,0.02342 -0.06752,0.188793 0.07304,0.02618 0.09233,-0.260449 v 0.1819 h 0.318325 v 0.07856 h 0.02618 v 0.04685 h -0.02618 v 0.395499 h -0.08406 v 0.09646 h -0.252179 c 0,-0.08819 -0.09922,-0.09508 -0.09922,-0.09508 0,0 -0.103353,-0.0083 -0.103353,0.0813 0,0.0882 0.06477,0.112999 0.06477,0.112999 H 78.6403 v -0.361044 h -0.07855 v 0.361044 h -0.680751 l -0.216352,0.16123 c -0.0096,-0.02618 -0.03447,-0.04547 -0.06477,-0.04547 -0.03858,0 -0.0689,0.0303 -0.0689,0.0689 0,0.02205 0.01101,0.04272 0.02893,0.05512 l -0.111619,0.08131 -0.121267,-0.205328 c 0,0 -0.03447,-0.04961 -0.07717,-0.02342 -0.04272,0.02618 -0.0083,0.07855 -0.0083,0.07855 l 0.117132,0.21773 -0.0303,0.02342 -0.276984,0.106108 V 52.066045 H 76.94533 v 0.184658 c 0,0 -0.347264,-0.03583 -0.525032,0.220486 -0.05926,0.08544 -0.118508,0.140557 -0.170875,0.177765 v -2.07257 h -0.04134 v 2.100132 c -0.08131,0.0441 -0.135047,0.04272 -0.135047,0.04272 h -0.418923 c -0.08544,0 -0.103354,0.07855 -0.106109,0.100598 l -8.852517,0.140561 z M 82.42743,50.941545 h 0.242534 v 0.07855 c -0.04134,-0.01517 -0.13505,-0.04686 -0.242534,-0.07855 m -0.288012,0 h 0.07717 c -0.0055,0.01517 -0.02067,0.02618 -0.03858,0.02618 -0.01792,0 -0.03306,-0.01101 -0.03859,-0.02618 m -0.150205,0 h 0.08406 c 0,0.02205 -0.0193,0.03996 -0.04134,0.03996 -0.02343,0 -0.04272,-0.01792 -0.04272,-0.03996 m -0.953604,-0.17501 h 0.168123 v 0.119888 h -0.168123 z m 0.168123,-0.107488 h -0.168123 v -0.143316 h 0.168123 z m 7.380763,4.106552 -0.05235,0.05099 0.01094,-0.02205 v -0.09646 h 0.04135 z m -14.902098,0.4644 h 0.168123 l -0.09233,0.07028 -0.07579,-0.06615 z m -1.208539,3.316937 0.169499,-0.117133 0.01379,0.01101 -0.07855,0.186037 z m -0.234266,-0.421679 -0.07717,0.183279 -0.104729,-0.07993 0.152961,-0.106108 v 0.0014 z m -0.230131,0.06753 -0.0813,-0.06477 c 0.03721,-0.02067 0.06615,-0.05374 0.06615,-0.05374 l 0.04961,0.01101 c 0,0 0.02893,-0.07855 0.106108,-0.07855 0.03447,0 0.04961,0.02343 0.05788,0.04961 z m 0.892969,0.680749 0.169499,-0.115754 0.01379,0.01101 -0.07855,0.186034 z m 0.464397,0.226 -0.304546,-0.103354 -0.0083,-0.0055 0.07028,-0.168123 c 0.05788,0.110243 0.140561,0.205327 0.242535,0.276987 m 1.529623,0.112998 0.05512,-0.169499 h 0.01792 l 0.0441,0.169499 z m -0.363802,0 -0.05926,-0.225997 h -0.101974 c 0.122647,-0.13505 0.198437,-0.314194 0.199817,-0.509876 l 0.220486,-0.06477 0.02755,-0.03168 v 0.05236 h 0.08957 v -0.05236 h 0.0813 v 0.05236 h 0.08819 v -0.05236 h 0.08268 v 0.05236 h 0.08819 v -0.04134 l 0.01379,0.01238 0.2384,0.07304 c 0.0014,0.29628 0.170879,0.551215 0.417548,0.676617 l -0.0193,0.05926 h -0.303166 l -0.05926,-0.225996 h -0.103354 l -0.07304,0.225996 h -0.289391 l -0.05925,-0.225996 h -0.101977 l -0.07441,0.225996 z m 0.887458,0 0.05512,-0.169499 h 0.01792 l 0.0441,0.169499 z m 11.127648,-0.749653 -0.02328,-0.203948 0.01517,-0.0069 0.128165,0.155716 z m -0.489197,0.226 -0.02469,-0.203951 0.01658,-0.0069 0.128165,0.155719 z m -0.450603,0.208083 -0.02469,-0.203948 0.01658,-0.0069 0.128129,0.155719 z m -1.517233,-0.8723 c -0.02755,0.03997 -0.05237,0.0813 -0.07304,0.125402 l -0.07166,-0.02893 0.05375,-0.09646 z m -5.232411,1.18787 0.05512,-0.169499 h 0.01792 l 0.0441,0.169499 z m -0.06063,0 h -0.288008 l -0.03306,-0.124023 c 0.188789,-0.139181 0.311435,-0.361047 0.312815,-0.61185 l 0.220486,-0.06477 0.02755,-0.03168 v 0.05236 h 0.08957 v -0.05236 h 0.0813 v 0.05236 h 0.08819 v -0.05236 h 0.08268 v 0.05236 h 0.08819 v -0.04134 l 0.01379,0.01238 0.238404,0.07304 c 0.0014,0.198438 0.07717,0.377585 0.202569,0.512632 l -0.07304,0.223241 h -0.275608 l -0.05926,-0.225996 h -0.10335 l -0.07304,0.225996 h -0.304546 l -0.05926,-0.225996 h -0.101974 z m 0.599447,0 0.05512,-0.169499 h 0.01792 l 0.0441,0.169499 z m 1.547537,0 0.05512,-0.169499 h 0.01792 l 0.0441,0.169499 z m -0.06063,0 h -0.208086 c 0.08819,-0.02205 0.170879,-0.06063 0.243914,-0.111619 z m -0.975653,0 0.05512,-0.169499 h 0.01242 c 0.0028,0.0014 0.0055,0.0041 0.0069,0.0069 l 0.04272,0.162609 z m 0.14883,-0.106109 c 0.07166,0.04823 0.151582,0.08406 0.237021,0.106109 h -0.209462 z m -1.72255,0.106109 0.01517,-0.04823 c 0.02618,-0.01238 0.05237,-0.02755 0.07717,-0.04272 l 0.02343,0.09095 z m -0.06063,0 h -0.06063 c 0.02342,-0.0055 0.04548,-0.01238 0.06752,-0.0193 z m -0.479559,0 0.0028,-0.0083 c 0.01242,0.0028 0.0248,0.0055 0.03583,0.0083 z m 0.850251,-1.18787 h 0.09646 l 0.04823,0.106112 -0.0689,0.02343 c -0.02205,-0.04547 -0.04685,-0.08957 -0.07579,-0.129537 m 1.127234,0 h 0.09233 c -0.02893,0.03997 -0.05374,0.0813 -0.07441,0.125402 l -0.07028,-0.02893 z m 1.478636,0.446486 c 0,-0.166744 -0.05374,-0.321084 -0.144695,-0.446486 h 0.523656 c -0.09095,0.125402 -0.144695,0.279742 -0.144695,0.446486 0,0.319705 0.195682,0.593933 0.474045,0.708311 l -0.01101,0.03306 h -0.288007 l -0.05926,-0.225996 h -0.103354 l -0.07304,0.225996 h -0.304546 l -0.05926,-0.225996 h -0.0096 c 0.124026,-0.136427 0.199817,-0.31695 0.199817,-0.515387 m 0.232889,0.741383 0.05512,-0.169499 h 0.01792 l 0.0441,0.169499 z m 1.584742,0 0.05375,-0.169499 h 0.01792 l 0.04547,0.169499 z m -0.06063,0 h -0.285256 l -0.0303,-0.115753 c 0.195679,-0.137806 0.323839,-0.363802 0.325215,-0.62012 l 0.220486,-0.06477 0.02755,-0.03168 v 0.05236 h 0.08957 v -0.05236 h 0.0813 v 0.05236 h 0.08819 v -0.05236 h 0.0813 v 0.05236 h 0.08957 v -0.04134 l 0.01379,0.01238 0.237021,0.07303 c 0.0014,0.197062 0.07717,0.374827 0.199817,0.509877 h -0.02893 l -0.07304,0.225997 H 83.782069 L 83.722809,58.98652 H 83.62081 l -0.07442,0.225997 H 83.243223 L 83.183963,58.98652 H 83.08061 Z m 0.599447,0 0.05512,-0.169499 h 0.01655 l 0.04548,0.169499 z m 0.496094,0 0.05512,-0.169499 h 0.01792 l 0.0441,0.169499 z m -1.557186,0 0.01379,-0.03996 c 0.02893,-0.01242 0.0565,-0.02755 0.08268,-0.04272 l 0.02067,0.08268 z m -0.05925,0 h -0.04548 c 0.01654,-0.0041 0.03447,-0.0083 0.04961,-0.01379 z m -0.479559,0 0.0055,-0.01379 c 0.01517,0.0055 0.03168,0.0096 0.04823,0.01379 z m 0.86541,-1.18787 h 0.09646 l 0.04823,0.106112 -0.07028,0.02342 c -0.02067,-0.04547 -0.04547,-0.08957 -0.07441,-0.129537 m 2.364719,1.041799 -0.05652,0.02755 -0.03581,0.01101 c 0.02611,-0.0193 0.05098,-0.03858 0.0744,-0.06063 z m -0.715222,0.146071 h -0.242535 l -0.03581,-0.136426 c 0.08128,0.06339 0.176389,0.110243 0.278342,0.136426 m -7.223665,0 0.05512,-0.169499 h 0.01792 l 0.0441,0.169499 z m -1.339451,0 0.01101,-0.03443 c 0.03447,0.01379 0.07028,0.02618 0.106108,0.03443 z m 0.8723,-0.169499 0.04547,0.169499 h -0.117133 l 0.05512,-0.169499 z m -0.373451,0.169499 c 0.106109,-0.02755 0.205327,-0.07717 0.288011,-0.144692 l -0.04685,0.144692 z m -2.101508,0 0.0565,-0.169499 h 0.01655 l 0.04548,0.169499 z m -0.361047,0 c 0.146075,-0.03721 0.275608,-0.117133 0.374827,-0.22462 l -0.07304,0.22462 z m 0.431328,-1.18787 h 0.09646 l 0.04823,0.106112 -0.06891,0.02342 c -0.02205,-0.04547 -0.04685,-0.08957 -0.07579,-0.129537 m 1.127234,0 h 0.09233 c -0.02893,0.03997 -0.05374,0.08131 -0.07442,0.125402 l -0.07028,-0.02893 z m 1.478636,0.446487 c 0,-0.166744 -0.05375,-0.321085 -0.144695,-0.446487 h 0.514008 c -0.08957,0.125402 -0.144692,0.279743 -0.144692,0.446487 0,0.325215 0.202572,0.602202 0.487825,0.713824 l -0.0096,0.02755 h -0.260453 l -0.05925,-0.225996 H 77.31222 l -0.07304,0.225996 h -0.30455 l -0.05925,-0.225996 h -0.04272 c 0.124022,-0.136427 0.199816,-0.31695 0.199816,-0.515387 m 8.65547,-4.187857 -0.152964,0.0014 v -0.07992 h 0.152964 z m 0.259045,3.74137 0.237031,-0.228751 c 0.16122,0.228751 0.427179,0.377581 0.727604,0.377581 0.01517,0 0.03175,-0.0014 0.04685,-0.0028 l 0.0095,0.07855 -0.230117,0.133671 -0.01235,0.0055 -0.16951,-0.206703 -0.0937,0.04272 0.03316,0.270097 -0.25908,0.119888 -0.16951,-0.206706 -0.0937,0.04272 0.03175,0.271473 -0.21911,0.100595 -0.169475,-0.206703 -0.09373,0.04272 0.03175,0.271473 -0.257669,0.118512 -0.03584,-0.04272 c 0.135044,-0.137802 0.217735,-0.326594 0.217735,-0.534677 0,-0.166744 -0.05376,-0.321084 -0.14471,-0.446486 z m 1.074878,0.192927 -0.0067,-0.05099 c 0.03316,-0.0028 0.06615,-0.0097 0.09786,-0.01655 l 0.0067,0.0097 z m -0.08689,-3.935659 -0.01235,-0.0248 0.673876,-0.348643 0.183268,0.370691 z m -13.751429,3.74275 c -0.08957,0.125402 -0.144692,0.279742 -0.144692,0.446486 0,0.07579 0.01242,0.148827 0.03168,0.217731 l -0.217731,0.151582 -0.228755,-0.172255 0.101977,-0.24529 -0.08131,-0.06339 -0.223241,0.15434 -0.203951,-0.155716 -0.01101,-0.0083 0.07166,-0.170879 c 0.01242,0.03447 0.0303,0.07442 0.0565,0.07579 0.04685,0.0041 0.07028,-0.107488 0.07028,-0.107488 l 0.03996,-0.02618 c -0.01792,-0.103354 0.0248,-0.08957 0.0565,-0.125402 l 0.03996,0.0055 c 0.03447,0.0248 0.07304,0.08406 0.07304,0.08406 l 0.05374,-0.01379 c 0,0 0.09922,0.09922 0.124026,0.07028 0.01379,-0.01517 0.01242,-0.06891 0.0083,-0.117137 z m 0.07993,-2.79466 c 0.02618,0.04134 0.05375,0.06339 0.05375,0.06339 h 0.06201 c 0,0 0.01242,-0.0055 0.03168,-0.01655 v 0.115757 h -0.06339 v 0.106108 c -0.0496,-0.05098 -0.150196,-0.158468 -0.225986,-0.268711 z m 0.30455,0 v 0.16261 h -0.07855 v -0.16261 z m 0.33486,-0.31006 v 0.235645 h -0.220486 v -0.235645 c 0,0 0,-0.09646 0.104733,-0.09646 0.104729,0 0.115753,0.09646 0.115753,0.09646 m 2.346801,-1.342206 h 0.07166 c 0.113002,0.297656 0.595313,0.417544 0.595313,0.417544 l 0.03583,-0.09922 h 0.155716 v 0.114378 h 0.128157 v 0.191548 h -0.177765 v 0.106108 h -0.552595 v -0.0813 h -0.256314 z m 0,0"
       id="U-S-M36"
       style="stroke-width:0.352778" />
  </g>
</svg>
