<?xml version="1.0" encoding="UTF-8" standalone="no"?>
<!-- Created with Inkscape (http://www.inkscape.org/) -->

<svg
   width="20.9877mm"
   height="4.4348898mm"
   viewBox="0 0 20.9877 4.4348898"
   version="1.1"
   id="svg4964"
   sodipodi:docname="inkporter-svg-jtwk_lcr.svg"
   xmlns:inkscape="http://www.inkscape.org/namespaces/inkscape"
   xmlns:sodipodi="http://sodipodi.sourceforge.net/DTD/sodipodi-0.dtd"
   xmlns="http://www.w3.org/2000/svg"
   xmlns:svg="http://www.w3.org/2000/svg">
  <sodipodi:namedview
     id="namedview4966"
     pagecolor="#ffffff"
     bordercolor="#666666"
     borderopacity="1.0"
     inkscape:pageshadow="2"
     inkscape:pageopacity="0.0"
     inkscape:pagecheckerboard="0"
     inkscape:document-units="mm"
     showgrid="false"
     inkscape:zoom="0.64052329"
     inkscape:cx="135.04583"
     inkscape:cy="561.25984"
     inkscape:window-width="1920"
     inkscape:window-height="1017"
     inkscape:window-x="-8"
     inkscape:window-y="-8"
     inkscape:window-maximized="1"
     inkscape:current-layer="layer1" />
  <defs
     id="defs4961" />
  <g
     inkscape:label="Layer 1"
     inkscape:groupmode="layer"
     id="layer1"
     transform="translate(-74.18626,-88.65877)">
    <path
       d="m 91.88199,89.13232 0.0634,-0.0152 0.0593,-0.0593 0.022,-0.10335 0.0234,-0.0675 0.0386,-0.0703 c 0.007,-0.0248 0.007,-0.0248 0.0524,-0.0593 l 0.0538,-0.04 c 0.0193,-0.0152 0.0868,-0.0358 0.0868,-0.0358 l 0.0648,-0.0124 0.073,-0.01 0.0689,0.006 0.0537,0.007 0.0634,0.0152 0.0551,0.022 c 0.008,0.004 0.0482,0.0358 0.0482,0.0358 l 0.0758,0.0841 c 0.0152,0.0207 0.0345,0.0634 0.0345,0.0634 l 0.022,0.13092 -0.01,0.10197 -0.0138,0.0524 c -0.003,0.0537 -0.003,0.0537 0.0138,0.0689 l -0.0496,0.0124 -0.0193,0.0496 0.0882,0.0854 0.13505,0.006 0.23978,0.16536 0.113,-0.0234 0.0648,-0.10611 0.17639,-0.04 0.23151,0.10473 0.24115,0.24253 0.20119,0.38723 0.0661,0.19017 -0.0593,0.0799 -0.0896,0.0744 -0.0496,0.0234 0.0165,0.0951 0.17501,0.0661 0.20119,0.33073 0.0386,0.36518 -0.0579,0.0744 -0.0165,0.1943 -0.051,0.10611 -0.21635,0.022 -0.0482,-0.001 -0.0413,0.46578 0.062,0.0758 0.23978,-0.003 0.0675,0.0593 0.17087,-0.0427 0.14608,-0.10335 0.17087,0.01 0.0717,0.17639 -0.008,0.15158 0.10335,0.17776 0.0289,0.17639 -0.022,0.15021 -0.18328,-0.003 -0.11576,-0.13367 0.003,-0.17639 -0.24529,-0.0303 -0.10611,-0.0207 -0.0717,0.0937 -0.14469,0.0606 -0.38034,0.1819 -0.19568,0.0152 -0.10473,-0.14607 -0.12816,-0.57464 -0.1447,-0.38585 -0.4079,-0.0455 -0.35002,-0.13229 0.0413,0.19017 -0.0413,0.1254 0.0882,0.43546 0.0179,0.42719 0.005,0.051 -0.25218,-0.011 -0.10059,-0.04 -0.0827,0.062 -0.3831,-0.0193 -0.0413,-0.10198 0.0441,-0.0496 0.22738,-0.0207 0.17915,-0.18604 0.005,-0.2825 -0.0799,-0.17087 -0.15021,-0.0593 -0.12127,-0.16536 -0.04,-0.28388 -0.0248,-0.37207 0.16674,-0.16674 0.79927,-0.0165 -0.10336,-0.1695 -0.14469,-0.0372 -0.17501,-0.051 -0.18328,-0.0882 -0.14331,-0.0689 -0.0854,-0.0386 -0.0276,-0.11162 -0.0841,-0.04 h -0.0689 l -0.073,0.004 -0.0868,0.011 -0.0551,-0.0317 -0.0689,-0.0496 -0.0648,-0.0565 -0.0717,-0.0124 -0.0786,-0.0152 -0.0455,-0.0138 -0.0772,-0.0262 0.13504,-0.0331 0.0992,-0.0179 0.0937,-0.007 0.0675,-0.0234 0.17502,0.0138 0.0606,0.0248 0.10611,0.0289 0.10748,0.0289 0.46303,0.0248 -0.0317,-0.0482 -0.0565,-0.073 -0.0675,-0.1254 -0.011,-0.1006 -0.003,-0.12264 0.022,-0.14194 0.0289,-0.113 -0.011,-0.0482 h -0.0689 l -0.0978,0.0152 -0.0592,-0.0303 -0.0289,-0.12127 -0.0152,-0.0455 -0.051,-0.0289 0.051,-0.17639 -0.20119,-0.04 z m 0.74276,1.39596 -0.0703,-0.10336 -0.38172,-0.0234 0.19982,0.0951 0.14469,0.0193 z m -11.04222,0.10886 c 0,0.0303 0.0248,0.0565 0.0565,0.0565 0.0303,0 0.0565,-0.0262 0.0565,-0.0565 0,-0.0303 -0.0262,-0.0551 -0.0565,-0.0551 -0.0317,0 -0.0565,0.0248 -0.0565,0.0551 m 0.10887,-0.13643 c 0,0.0317 0.0248,0.0565 0.0551,0.0565 0.0303,0 0.0565,-0.0248 0.0565,-0.0565 0,-0.0303 -0.0262,-0.0551 -0.0565,-0.0551 -0.0303,0 -0.0551,0.0248 -0.0551,0.0551 m 0,0.26183 c 0,0.0317 0.0248,0.0565 0.0551,0.0565 0.0303,0 0.0565,-0.0248 0.0565,-0.0565 0,-0.0303 -0.0262,-0.0565 -0.0565,-0.0565 -0.0303,0 -0.0551,0.0262 -0.0551,0.0565 m 0.12677,-0.1254 c 0,0.0303 0.0262,0.0565 0.0565,0.0565 0.0303,0 0.0565,-0.0262 0.0565,-0.0565 0,-0.0303 -0.0262,-0.0551 -0.0565,-0.0551 -0.0303,0 -0.0565,0.0248 -0.0565,0.0551 m 0.10887,0.1254 c 0,0.0317 0.0248,0.0565 0.0551,0.0565 0.0317,0 0.0565,-0.0248 0.0565,-0.0565 0,-0.0303 -0.0248,-0.0565 -0.0565,-0.0565 -0.0303,0 -0.0551,0.0262 -0.0551,0.0565 m 0.12678,-0.1254 c 0,0.0303 0.0262,0.0565 0.0565,0.0565 0.0303,0 0.0565,-0.0262 0.0565,-0.0565 0,-0.0303 -0.0262,-0.0551 -0.0565,-0.0551 -0.0303,0 -0.0565,0.0248 -0.0565,0.0551 m 0.10887,0.1254 c 0,0.0317 0.0248,0.0565 0.0551,0.0565 0.0317,0 0.0565,-0.0248 0.0565,-0.0565 0,-0.0303 -0.0248,-0.0565 -0.0565,-0.0565 -0.0303,0 -0.0551,0.0262 -0.0551,0.0565 m 3.44509,-1.06247 -0.091,0.17502 -0.0854,0.16812 -0.001,0.10059 0.14607,-0.0606 0.16537,-0.17363 0.0537,-0.15021 -0.0482,-0.10749 -0.11989,0.004 z m 3.65318,0.82821 -0.0717,-0.10336 -0.38172,-0.0234 0.2012,0.0951 0.14469,0.0193 z m -6.56773,-0.062 -0.0813,-0.006 -0.0138,0.062 0.0482,0.0234 c 0.0496,-0.006 0.0606,-0.0234 0.0606,-0.0455 z m 0.19292,0.0909 -0.0262,-0.0372 c 0,0 -0.0262,-0.0372 -0.0275,-0.0124 -0.003,0.0248 0.0234,0.0496 0.0537,0.0496 m -0.15158,-0.17225 0.007,-0.0221 c 0,0 0.005,-0.0248 -0.007,-0.011 -0.0124,0.0124 -0.008,0.0248 0,0.0331 m -0.24392,-0.0124 0.10198,0.005 c 0.005,-0.0579 -0.0193,-0.0827 -0.0496,-0.0827 -0.0317,0 -0.0565,0.0248 -0.0565,0.0551 z m -0.23977,-0.0221 0.0648,0.0124 0.0234,10e-4 c 0,0 0.0221,0 0.0234,-0.0221 0,-0.022 -0.0248,-0.0468 -0.0565,-0.0468 -0.0303,0 -0.0551,0.0248 -0.0551,0.0551 m -0.16123,-0.051 0.0675,0.0207 c -0.01,-0.0152 -0.0276,-0.0248 -0.0469,-0.0248 z m -0.49609,0.0179 0.0386,-0.007 c 0,0 0.0358,-0.007 0.0124,-0.011 -0.0248,-0.004 -0.04,0.004 -0.051,0.0179 m 0.0703,0.0841 -0.0703,-0.0138 c 0.01,0.011 0.0289,0.0193 0.0455,0.0193 z m 0.35554,0.14056 -0.0331,0.004 c 0,0 -0.0331,0.004 -0.01,0.008 0.022,0.003 0.0331,-0.003 0.0427,-0.0124 m 0.25218,0.13918 -0.008,-0.0331 c 0,0 -0.008,-0.0331 -0.011,-0.0138 -10e-4,0.0207 0.005,0.0358 0.0193,0.0469 m 0.19568,0.1006 -0.0496,-0.0248 c 0,0 -0.051,-0.0234 -0.0551,0.007 -0.004,0.0303 0.022,0.0551 0.0524,0.0551 0.0234,0 0.0455,-0.0165 0.0524,-0.0372 m -0.2701,1.1355 -0.0303,-0.21911 -0.0262,-0.37207 0.16674,-0.16674 0.79927,-0.0179 -0.10336,-0.16812 -0.14331,-0.0372 -0.17639,-0.051 -0.0455,-0.022 h -2.09875 c 0.14607,0.21359 0.23565,0.47129 0.24253,0.74827 l 0.62012,0.0868 0.022,0.11024 z m 1.46624,0.20533 -0.0551,-0.14883 -0.4079,-0.0441 -0.35002,-0.1323 0.04,0.18879 z m 1.70325,0.55535 0.051,0.0896 0.13643,-0.0634 z m -3.21083,-3.49609 0.062,-0.0165 0.0606,-0.0579 0.022,-0.10335 0.0234,-0.0675 0.0386,-0.0703 c 0.007,-0.0262 0.007,-0.0262 0.0524,-0.0606 l 0.0524,-0.0386 c 0.0221,-0.0165 0.0868,-0.0372 0.0868,-0.0372 l 0.0661,-0.0124 0.073,-0.01 0.0689,0.007 0.0524,0.007 0.0634,0.0152 0.0551,0.022 c 0.01,0.003 0.0482,0.0345 0.0482,0.0345 l 0.0772,0.0854 c 0.0152,0.0193 0.0331,0.062 0.0331,0.062 l 0.0221,0.13229 -0.008,0.1006 -0.0152,0.0537 c -0.001,0.0537 -0.001,0.0537 0.0152,0.0689 l -0.051,0.0124 -0.0193,0.0496 0.0896,0.0841 0.13505,0.007 0.2384,0.16398 0.11438,-0.022 0.0648,-0.10611 0.17639,-0.0413 0.23014,0.10473 0.24253,0.24391 0.19982,0.38723 0.0661,0.18879 -0.0593,0.0813 -0.0882,0.0744 -0.0496,0.0248 0.0165,0.0937 0.17501,0.0661 0.20119,0.33073 0.0386,0.36518 -0.0593,0.0744 -0.0152,0.19431 -0.0524,0.10611 -0.2136,0.022 -0.051,-10e-4 -0.0372,0.42582 0.60082,0.0841 0.0827,-0.0593 0.1695,0.01 0.0358,0.0909 0.33073,0.0469 0.0248,-0.062 -0.0786,-0.17088 -0.15021,-0.0606 -0.12264,-0.16537 -0.0386,-0.28387 -0.0248,-0.3707 0.16674,-0.16674 0.79789,-0.0179 0.0165,-0.18879 -0.2632,-0.45613 -0.18053,-0.0358 -0.17225,0.12953 -0.22738,0.0772 -0.22048,-0.003 -0.13643,-0.0978 0.003,-0.20119 0.15848,-0.38723 0.21359,-0.32246 -0.0551,-0.10198 -0.0634,-0.0138 -0.003,-0.2012 0.113,-0.011 0.14194,-0.14194 0.0207,-0.11851 0.12816,-0.14883 0.20808,-0.0786 0.2577,0.0303 0.12402,0.12678 0.0606,0.15847 -0.003,0.10749 -0.007,0.0758 0.0303,0.0882 0.24667,0.18603 0.11438,-0.022 0.0648,-0.10611 0.17639,-0.0413 0.23151,0.10473 0.24115,0.24391 0.19982,0.38723 0.0661,0.1888 -0.0579,0.0813 -0.0882,0.073 -0.0524,0.0248 0.0179,0.0951 0.17501,0.0661 0.20257,0.32935 0.0372,0.36656 -0.0579,0.0744 -0.0165,0.19431 -0.0524,0.1061 -0.21359,0.0207 h -0.051 l -0.0386,0.4644 0.062,0.0772 0.2384,-0.003 0.0675,0.0579 0.17087,-0.0413 0.14608,-0.10473 0.1695,0.01 0.073,0.17776 -0.01,0.15021 0.10473,0.17777 0.0152,0.0923 0.21498,-0.0207 0.17914,-0.18604 0.005,-0.28249 -0.0799,-0.17088 -0.14883,-0.0593 -0.12264,-0.16537 -0.04,-0.28388 -0.0248,-0.37207 0.16674,-0.16674 0.79926,-0.0165 -0.10335,-0.1695 -0.14332,-0.0372 -0.17638,-0.051 -0.1819,-0.0882 -0.1447,-0.0689 -0.0841,-0.0386 -0.0276,-0.11163 -0.0854,-0.04 h -0.0675 l -0.073,0.004 -0.0882,0.011 -0.0551,-0.0317 -0.0689,-0.0496 -0.0648,-0.0565 -0.0703,-0.0124 -0.0799,-0.0152 -0.0441,-0.0138 -0.0772,-0.0262 0.13367,-0.0331 0.0992,-0.0179 0.0937,-0.007 0.0689,-0.0234 0.17363,0.0138 0.062,0.0248 0.10473,0.0289 0.10887,0.0289 0.46164,0.0248 -0.0303,-0.0482 -0.0565,-0.073 -0.0689,-0.1254 -0.011,-0.1006 -0.003,-0.12264 0.022,-0.14194 0.0289,-0.113 -0.01,-0.0482 h -0.0689 l -0.0978,0.0152 -0.0606,-0.0303 -0.0289,-0.12126 -0.0152,-0.0455 -0.0496,-0.0289 0.0496,-0.17639 -0.2012,-0.04 0.1006,-0.0799 0.022,-0.10335 0.0234,-0.0675 0.04,-0.0703 c 0.006,-0.0248 0.006,-0.0248 0.051,-0.0593 l 0.0537,-0.04 c 0.0207,-0.0152 0.0868,-0.0358 0.0868,-0.0358 l 0.0661,-0.0124 0.073,-0.01 0.0675,0.005 0.0551,0.007 0.062,0.0152 0.0551,0.0221 c 0.01,0.004 0.0482,0.0358 0.0482,0.0358 l 0.0758,0.0841 c 0.0152,0.0207 0.0345,0.0634 0.0345,0.0634 l 0.0221,0.13092 -0.008,0.10197 -0.0152,0.0524 c -0.001,0.0537 -0.001,0.0537 0.0152,0.0689 l -0.051,0.0124 -0.0193,0.0496 0.0882,0.0854 0.13642,0.006 0.2384,0.16536 0.113,-0.0234 0.0661,-0.10611 0.17639,-0.04 0.23013,0.10473 0.24116,0.24253 0.20119,0.38723 0.0661,0.19017 -0.0579,0.0799 -0.0896,0.0744 -0.051,0.0234 0.0165,0.0951 0.17501,0.0662 0.20258,0.33073 0.0372,0.36518 -0.0579,0.0744 -0.0152,0.19431 -0.0524,0.1061 -0.21498,0.0221 -0.0496,-10e-4 -0.04,0.46578 0.062,0.0758 0.2384,-0.003 0.0675,0.0593 0.17087,-0.0427 0.14607,-0.10335 0.17088,0.01 0.0717,0.17639 -0.008,0.15158 0.10335,0.17777 0.0289,0.17638 -0.022,0.15021 -0.1819,-0.003 -0.11713,-0.13367 0.003,-0.17639 -0.24529,-0.0303 -0.10611,-0.0207 -0.0717,0.0937 -0.14469,0.0606 -0.38034,0.18191 -0.1943,0.0152 -0.10473,-0.14607 -0.12816,-0.57464 -0.1447,-0.38585 -0.40927,-0.0455 -0.34865,-0.13229 0.04,0.19017 -0.04,0.1254 0.0868,0.43546 0.0179,0.42719 0.005,0.051 -0.25218,-0.011 -0.0992,-0.04 -0.0827,0.062 -0.36656,-0.0179 -0.011,0.0827 -0.18191,-0.004 -0.11851,-0.13367 0.003,-0.17501 -0.24392,-0.0303 -0.10611,-0.0207 -0.0716,0.0937 -0.1447,0.0593 -0.38034,0.18191 -0.19568,0.0152 -0.10473,-0.14608 -0.12816,-0.57464 -0.14331,-0.38585 -0.40928,-0.0441 -0.35002,-0.13229 0.0413,0.19017 -0.04,0.12402 0.0716,0.35967 0.33762,0.0275 -0.31695,0.17777 0.001,0.0455 0.19843,0.3583 -0.11437,0.004 -0.0689,-0.0593 -0.2508,-0.01 -0.0992,-0.04 -0.0827,0.0606 -0.17226,-0.008 -0.0165,0.10749 -0.18191,-0.003 -0.11713,-0.13504 0.003,-0.17639 -0.24391,-0.0289 -0.10749,-0.0207 -0.0703,0.0923 -0.14607,0.062 -0.38034,0.1819 -0.19568,0.0152 -0.10335,-0.14607 -0.10749,-0.48232 -0.87919,-0.12264 0.0427,0.21635 0.0179,0.42857 0.006,0.051 -0.2508,-0.0124 -0.1006,-0.0386 -0.0827,0.0606 -0.3831,-0.0179 -0.0413,-0.10198 0.0441,-0.0496 0.22737,-0.0207 0.17777,-0.18603 0.007,-0.2825 -0.0482,-0.10198 -1.7818,-0.24942 c -0.16537,0.57602 -0.69591,0.9977 -1.32705,0.9977 -0.76068,0 -1.37942,-0.61736 -1.37942,-1.37942 0,-0.35002 0.13091,-0.66973 0.34589,-0.91364 h -1.18236 v -0.1254 c 0,0 0,-0.1254 -1.05833,-0.1254 h -1.9389 v -0.113 c 0,0 0,-0.113 1.41111,-0.113 h 2.77812 v -0.0717 h 0.84888 l 0.001,-0.82406 0.15847,0.008 v 0.4079 c 0,0 0,0.4079 0.70556,0.4079 h 1.45796 v 0.0717 h 1.13413 l -0.062,-0.113 -0.01,-0.1006 -0.003,-0.12264 0.022,-0.14194 0.0276,-0.113 -0.01,-0.0496 h -0.0691 l -0.0978,0.0165 -0.0606,-0.0317 -0.0276,-0.11989 -0.0165,-0.0469 -0.0496,-0.0276 0.0496,-0.17639 -0.2012,-0.0413 z m 0,0"
       id="U-S-37mm" />
  </g>
</svg>
