<?xml version="1.0" encoding="UTF-8" standalone="no"?>
<!-- Created with Inkscape (http://www.inkscape.org/) -->

<svg
   width="31.338587mm"
   height="6.142879mm"
   viewBox="0 0 31.338586 6.142879"
   version="1.1"
   id="svg5570"
   sodipodi:docname="U-S-Infantry5-4x2.svg"
   inkscape:version="1.1.1 (3bf5ae0d25, 2021-09-20)"
   xmlns:inkscape="http://www.inkscape.org/namespaces/inkscape"
   xmlns:sodipodi="http://sodipodi.sourceforge.net/DTD/sodipodi-0.dtd"
   xmlns="http://www.w3.org/2000/svg"
   xmlns:svg="http://www.w3.org/2000/svg">
  <sodipodi:namedview
     id="namedview5572"
     pagecolor="#ffffff"
     bordercolor="#666666"
     borderopacity="1.0"
     inkscape:pageshadow="2"
     inkscape:pageopacity="0.0"
     inkscape:pagecheckerboard="0"
     inkscape:document-units="mm"
     showgrid="false"
     inkscape:zoom="5.1241864"
     inkscape:cx="81.671502"
     inkscape:cy="41.665151"
     inkscape:window-width="1920"
     inkscape:window-height="1017"
     inkscape:window-x="-8"
     inkscape:window-y="-8"
     inkscape:window-maximized="1"
     inkscape:current-layer="layer1"
     inkscape:snap-bbox="true"
     inkscape:snap-nodes="false"
     inkscape:snap-others="false"
     inkscape:bbox-paths="true"
     inkscape:bbox-nodes="true" />
  <defs
     id="defs5567" />
  <g
     inkscape:label="Layer 1"
     inkscape:groupmode="layer"
     id="layer1"
     transform="translate(-165.54444,-458.65683)">
    <g
       id="g4849-6-7"
       transform="translate(-172.35006,-4.5046968)">
      <g
         id="ggg2-5-1"
         transform="translate(-73.095551,2.2522939)">
        <g
           id="g55275-0-6-5"
           transform="matrix(0.35277777,0,0,0.35277777,399.25054,213.59358)"
           style="fill:#000000">
          <path
             id="path101908-9-8-6-2"
             style="fill:#000000;stroke-width:0.108988"
             d="m 85.744675,717.94282 -0.190666,-0.0555 v -0.20265 -0.20265 l 0.326947,-0.23303 c 0.179795,-0.12796 0.326948,-0.27542 0.326948,-0.32762 0,-0.0521 -0.155544,-0.11011 -0.345818,-0.12851 -0.190109,-0.0195 -0.364273,-0.0903 -0.386769,-0.15917 -0.0223,-0.0688 0.07889,-0.25394 0.224953,-0.41169 0.146066,-0.15748 0.32494,-0.42933 0.396942,-0.60351 l 0.131292,-0.31667 -0.364412,-0.51162 c -0.200422,-0.28143 -0.483995,-0.7138 -0.630145,-0.96091 l -0.265928,-0.44923 -0.0028,-1.54635 -0.0028,-1.54634 -0.18983,-0.0497 c -0.265092,-0.0694 -0.63572,-0.71641 -0.636222,-1.11127 -1.94e-4,-0.18147 -0.07945,-0.44268 -0.175891,-0.58044 l -0.175335,-0.2506 0.06523,-0.3253 0.06495,-0.32527 -0.287086,-0.26621 c -0.157774,-0.14607 -0.322626,-0.26565 -0.366112,-0.26565 -0.04348,0 -0.111221,-0.20238 -0.151083,-0.44974 l -0.07191,-0.44976 0.194011,-0.27262 c 0.10704,-0.14998 0.275127,-0.39371 0.37375,-0.5421 0.373387,-0.56112 1.145277,-1.27258 1.597801,-1.47277 l 0.469779,-0.20767 -0.04544,-0.12823 c -0.02788,-0.0705 -0.124602,-0.12154 -0.221049,-0.11373 l -0.175614,0.014 -0.0708,-0.22271 c -0.03847,-0.12266 -0.07443,-0.46658 -0.07916,-0.76473 l -0.0056,-0.54206 0.34972,-0.31231 0.349694,-0.31234 h 0.319979 c 0.17617,0 0.442657,0.0558 0.592485,0.12432 l 0.272618,0.12433 0.16976,0.35758 c 0.09338,0.19679 0.226345,0.37647 0.295727,0.39964 l 0.126274,0.0421 -0.120699,0.34579 -0.120699,0.3458 0.129619,0.0839 c 0.07136,0.0463 0.350418,0.13352 0.620137,0.19373 l 0.490491,0.10955 0.06746,0.55193 c 0.0368,0.30367 0.119863,0.65032 0.184254,0.77058 0.06439,0.12014 0.152199,0.4846 0.195126,0.80969 l 0.07805,0.59103 0.162233,0.1193 0.162232,0.11932 -0.08753,0.31665 c -0.121534,0.44118 -0.0761,0.78424 0.178123,1.33934 l 0.219098,0.4777 -0.130455,0.5577 c -0.07164,0.30668 -0.181189,0.62103 -0.242514,0.69855 l -0.112058,0.14077 -0.331267,-0.0331 -0.33124,-0.0331 -0.186207,0.59942 c -0.102301,0.32963 -0.218261,0.96729 -0.257565,1.41684 -0.07387,0.84779 -0.120421,1.16966 -0.27457,1.90732 -0.05017,0.24001 -0.174498,0.89181 -0.276243,1.44895 l -0.18509,1.01301 0.120142,0.47772 c 0.139932,0.55483 0.07108,0.8204 -0.211851,0.8204 -0.110665,0 -0.245023,0.0786 -0.299045,0.17478 l -0.09812,0.17506 -0.47962,0.036 c -0.263978,0.0195 -0.565502,0.0111 -0.670424,-0.0195 z m -0.869091,-8.36379 -0.126273,-0.41164 0.112894,-0.18202 0.112894,-0.18202 -0.127111,-0.37548 -0.127389,-0.37543 -0.09979,0.1575 c -0.05491,0.0864 -0.08307,0.42456 -0.06244,0.75098 l 0.0368,0.59352 0.166694,0.2545 c 0.09171,0.13994 0.183139,0.23833 0.20293,0.21826 0.01951,-0.0195 -0.01951,-0.22133 -0.09031,-0.44789 z m -0.08446,-3.22488 v -0.21463 l -0.163628,0.0627 c -0.174776,0.0672 -0.208784,0.17617 -0.0906,0.29371 0.137703,0.1377 0.254222,0.0722 0.254222,-0.14188 z" />
          <path
             style="fill:#000000;fill-opacity:1;fill-rule:nonzero;stroke:none"
             d="m 100.97656,713.46875 c 0,0 -0.0742,-0.0781 -0.32031,-0.25391 -0.24609,-0.17578 -0.33594,-0.45312 -0.39062,-0.51953 -0.0547,-0.0625 -0.382818,-1.11719 -0.437505,-1.25 -0.05859,-0.13672 -0.167969,-1.04687 -0.160156,-1.27734 0.0078,-0.23047 -0.128907,-1.11719 -0.128907,-1.11719 0,0 0.09375,0.0312 0.167969,0.0312 0.07031,0 0.136719,-0.0156 0.136719,-0.0156 l 0.26172,0.29296 -0.351564,0.55079 0.265624,0.25781 0.10156,0.0156 0.32032,-0.41406 c 0,0 0.23047,0.23047 0.20703,0.27734 -0.0234,0.0469 -0.0469,0.19141 -0.0469,0.19141 l 0.125,0.35156 c 0.0352,0.0899 0.32032,0.17578 0.32032,0.17578 l 0.29687,0.6875 c 0,0 -0.0508,0.32422 -0.0508,0.42969 0,0.10156 -0.20703,0.74219 -0.25391,0.94141 -0.0469,0.19922 -0.0625,0.5039 -0.0625,0.64453 m 0.20703,-3.72656 -0.43359,-0.42188 0.83203,-0.2539 z m 2.63282,8.04297 c 0.17578,0.082 0.93359,0.25781 1.17968,0.19921 0.2461,-0.0547 0.48829,-0.23046 0.48829,-0.23046 l 0.14843,0.0391 0.47266,-0.11719 -0.008,-0.26562 c 0,0 0.0859,-0.1836 0.0625,-0.25391 -0.0234,-0.0703 0.0664,-0.0781 -0.0312,-0.23828 -0.0937,-0.16016 -0.32813,-0.625 -0.39844,-0.81641 -0.0703,-0.1914 -0.16797,-0.50781 -0.16797,-0.50781 0,0 0.28906,-0.12891 0.18359,-0.33594 -0.10546,-0.20703 -0.54296,-0.82422 -0.58984,-0.85547 -0.0508,-0.0312 -0.0977,-0.18359 -0.13672,-0.21484 -0.0391,-0.0312 -0.23047,-0.19141 -0.22265,-0.30078 0.008,-0.11328 0.19921,-0.39453 0.16015,-0.52735 -0.0391,-0.13671 0.0859,-1.62109 0.0859,-1.70703 0,-0.0898 0.0742,-1.07812 0.0625,-1.14062 -0.004,-0.0664 0.25781,-0.67969 0.25781,-0.67969 0,0 0.50391,0.0156 0.63672,-0.13672 0.13672,-0.14844 0.26563,-0.35156 0.25,-0.63672 -0.0195,-0.28906 0.0234,-0.71875 -0.043,-0.83593 -0.0625,-0.1211 -0.21094,-0.1875 -0.28515,-0.14454 -0.0703,0.0391 -0.1836,-0.28906 -0.34375,-0.21875 -0.16016,0.0742 -0.19141,0.13672 -0.19141,0.13672 l -0.20703,-0.16015 -0.21485,-0.0156 c 0,0 -0.12109,-0.38281 -0.15234,-0.40625 -0.0312,-0.0234 -0.0703,-0.16797 -0.0391,-0.26953 0.0312,-0.10547 -0.42969,-0.96094 -0.58985,-1.21484 -0.16015,-0.25391 -0.55078,-0.80469 -0.64062,-0.91797 -0.0859,-0.10938 -0.62109,-0.46094 -0.95703,-0.58985 -0.33594,-0.125 -0.70313,-0.28515 -0.70313,-0.28515 l -0.1875,-0.17578 c 0,0 0.15625,-0.0234 0.0937,-0.0977 -0.0625,-0.0703 -0.18359,-0.46875 -0.20703,-0.58984 -0.0234,-0.1211 -0.17578,-1.08594 -1.07812,-1.01953 -0.902348,0.0625 -1.117191,0.5 -1.187504,0.64453 -0.07031,0.14453 -0.222656,0.60547 -0.265625,0.6875 -0.03906,0.0781 -0.132812,0.22265 -0.132812,0.22265 l 0.492187,0.17578 c 0,0 0.04297,0.11719 0.0078,0.19922 -0.03125,0.0781 -0.08594,0.25391 0.02734,0.26172 0.109376,0.008 0.148438,0.0586 0.148438,0.0586 l 0.0078,0.17578 0.09766,0.16015 c 0,0 0.07813,0.29297 0.175781,0.29297 0.09375,0 0.230475,-0.0976 0.351565,-0.0391 0.11719,0.0547 0.17578,0.0937 0.17578,0.0937 0,0 -0.0742,0.0508 -0.0273,0.14453 0.0508,0.0977 0.16797,0.32031 0.16797,0.32031 0,0 -0.0781,0.66016 -0.0781,0.74219 0,0.0781 0.0703,0.55859 0.0703,0.91406 0,0.36328 0.008,0.41797 0.008,0.41797 0,0 -0.11719,0 -0.0859,0.13281 0.0312,0.13672 0.008,0.21094 0.008,0.21094 0,0 -0.4375,0.0781 -0.45312,0.0469 -0.01564,-0.0312 -0.320319,-0.29688 -0.378913,-0.26563 -0.05469,0.0352 -0.125,0.0352 -0.125,0.0352 0,0 -0.238281,-0.13672 -0.320312,-0.15235 -0.07813,-0.0156 -0.117188,-0.0312 -0.117188,-0.0312 l -0.871093,-0.85546 0.05469,-0.10547 -0.121094,-0.11719 -0.07031,0.0625 -0.128906,0.082 0.863281,0.90234 c 0,0 -0.02344,0.13282 0.03906,0.20704 0.06641,0.0703 0.152343,0.23828 0.152343,0.23828 0,0 0.03906,0.16797 0.05469,0.21484 0.01563,0.0469 -0.03906,0.21484 0,0.29688 0.04297,0.0781 0.242187,0.27734 0.242187,0.27734 0,0 0.230469,0.79687 0.269532,1.62109 0.03906,0.82032 0.597653,2.51172 0.839843,2.65625 0.23828,0.14453 0.5586,0.44532 0.5586,0.44532 0,0 0.0469,0.67187 0.0703,0.88671 0.0234,0.21485 0.0469,0.52735 0,0.73438 -0.0469,0.20703 -0.0977,0.35937 -0.0234,0.39062 0.0703,0.0312 0.22266,0.0937 0.22266,0.0937 0,0 0.1914,0.57032 0.17578,0.69532 -0.0156,0.1289 -0.53516,0.80468 -0.6211,0.83984 -0.0898,0.0312 -0.71093,0.0937 -0.800779,0.16016 -0.08594,0.0625 -0.09375,0.14843 -0.09375,0.14843 l -0.0625,0.0977 c 0,0 -0.02734,0.0391 0.117188,0.10156 0.144531,0.0664 0.871091,0.17578 1.109381,0.15235 0.23828,-0.0234 0.55859,-0.0937 0.55859,-0.0937 l 0.0977,0.0469 0.77343,0.008 v -0.16015 c 0,0 0.10157,-0.22266 0.0547,-0.30078 -0.0469,-0.082 -0.12891,-0.48047 -0.10547,-0.64844 0.0273,-0.16797 0.15235,-0.93359 0.15235,-0.93359 0,0 0.29687,-0.0781 0.25,-0.26172 -0.0508,-0.1836 -0.0742,-0.64844 -0.0352,-0.77344 0.043,-0.12891 0.12891,-0.3125 0.12891,-0.3125 0,0 0.80468,1.00391 0.89453,1.10156 0.0859,0.0937 0.49218,0.59766 0.5664,0.60547 0.0703,0.008 0.34375,0.0312 0.34375,0.0312 0,0 0.15625,0.32031 0.11719,0.375 -0.0391,0.0547 -0.19141,0.40625 -0.18359,0.45703 0.008,0.0469 -0.33203,0.31641 -0.48438,0.32422 -0.15234,0.008 -0.38281,0.008 -0.36719,0.14453 0.0156,0.13672 0.008,0.2461 0.008,0.2461"
             id="path53255-7-0-7" />
          <path
             style="fill:#000000;fill-opacity:1;fill-rule:nonzero;stroke:none"
             d="m 89.984375,707.51172 0.359375,-0.0742 0.01563,0.0898 0.367187,0.17969 c 0,0 0.429688,0.0469 0.796876,-0.0117 0.363281,-0.0586 0.90625,-0.11719 0.984374,-0.125 0.08203,-0.008 0.07422,0.19141 0.09766,0.37891 0.01953,0.1914 0.04297,0.41797 0.07031,0.60156 0.03125,0.18359 -0.195312,0.59766 -0.195312,0.59766 0,0 -1.03125,-0.38672 -1.324219,-0.51953 -0.292969,-0.12891 -1.074219,-1.01563 -1.171875,-1.11719 m 2.144531,8.8125 c -0.101562,0.1875 -0.601562,0.74609 -0.664062,0.75 -0.06641,0.008 -0.242188,-0.0781 -0.398438,0.0312 -0.152344,0.10937 -0.21875,0.0937 -0.210937,0.25 0.0078,0.15234 0.183593,0.39062 0.308593,0.48047 0.125,0.0859 0.328126,0.16015 0.328126,0.16015 l 0.5625,-0.0117 0.08984,-0.0234 0.226563,0.0351 c 0,0 0.109375,-0.10937 0.167968,-0.24218 0.05859,-0.12891 0.09375,-0.30469 0.136719,-0.48047 0.04687,-0.17578 0.207031,-0.58594 0.207031,-0.58594 l 0.101563,-0.30859 0.328125,-0.38672 c 0,0 0.316406,0.0742 0.359375,-0.10157 0.04297,-0.17578 0.195313,-1.17578 0.195313,-1.27343 0,-0.0937 0.08203,-0.26172 0.08203,-0.26172 0,0 0.59375,0.84765 0.722656,1.00781 0.132813,0.16406 0.207031,0.41016 0.324219,0.48438 0.117187,0.0742 0.378906,0.10937 0.378906,0.10937 0,0 0.07422,0.53516 0.02734,0.62891 -0.04297,0.0937 -0.04297,0.21093 -0.238282,0.48437 -0.199218,0.26953 -0.382812,0.33985 -0.507812,0.33985 -0.121094,0 -0.253906,0.0156 -0.28125,0.14062 -0.03125,0.125 -0.04297,0.18359 -0.04297,0.18359 0,0 0.398438,0.23438 0.515625,0.23438 0.117188,0 0.578125,-0.0664 0.660156,-0.0742 0.07813,-0.008 0.269532,-0.0937 0.269532,-0.0937 l 0.101562,0.0352 0.09375,-0.0586 0.05469,0.082 c 0,0 0.480468,-0.0312 0.582031,-0.082 0.105469,-0.0508 0.08984,-0.30859 0.08984,-0.30859 l -0.148438,-0.48828 c 0,0 0.105469,-0.0859 0,-0.23438 -0.101562,-0.14453 -0.355469,-0.69531 -0.355469,-0.72265 0,-0.0312 -0.01562,-0.60938 -0.01562,-0.60938 0,0 0.203124,-0.36328 0.09375,-0.48828 -0.109376,-0.125 -0.496094,-0.65625 -0.523438,-0.78125 -0.03125,-0.125 -0.464844,-0.94531 -0.433594,-1.11328 0.03125,-0.16797 -0.386718,-0.91406 -0.386718,-0.91406 0,0 -0.08984,-0.46875 0.07812,-0.7461 0.167969,-0.27734 0.359376,-0.0234 0.457032,0.082 0.09375,0.10157 0.296875,0.19532 0.480468,-0.0664 0.183594,-0.26172 0.3125,-0.65625 0.269532,-0.88672 -0.04297,-0.22266 -0.03516,-0.33594 -0.03516,-0.33594 l 0.02734,-0.63281 c 0,0 -0.144531,-0.0508 -0.1875,-0.0508 -0.04687,0 -0.242187,-0.0547 -0.242187,-0.0547 0,0 -0.03906,-0.48828 -0.06641,-0.52344 -0.02734,-0.0391 -0.01563,-0.46093 -0.01563,-0.46093 0,0 0.308594,-0.375 0.449219,-0.53516 0.136719,-0.16016 0.339844,-0.51172 0.339844,-0.51172 0,0 0.859375,-0.21875 1.046875,-0.35937 0.191406,-0.13672 0.191406,-0.51172 0.117188,-0.60547 -0.07422,-0.0937 -0.523438,-0.92969 -0.578126,-0.98047 -0.05078,-0.0508 -0.34375,-0.41016 -0.34375,-0.41016 0,0 -0.640624,-0.83203 -0.699218,-0.85547 -0.05859,-0.0195 -0.382813,-0.2539 -0.558594,-0.28515 -0.171875,-0.0274 -0.410156,-0.0781 -0.460938,-0.0859 -0.05078,-0.008 -0.167968,-0.125 -0.203124,-0.15234 -0.03516,-0.0312 -0.05859,-0.19141 -0.05859,-0.19141 0,0 -0.132813,-0.14063 -0.05859,-0.31641 0.07422,-0.17578 0.09375,-0.28906 0.09375,-0.28906 l 0.148438,-0.0234 c 0,0 -0.05078,-0.23437 -0.06641,-0.38281 -0.01563,-0.14453 0.195313,-1.05078 -0.570312,-1.32031 -0.769531,-0.26953 -1.359375,0.16797 -1.484375,0.4375 -0.125,0.26953 -0.402344,0.54687 -0.402344,0.54687 0,0 0.175781,0.10157 0.269531,0.11328 0.09766,0.004 0.167969,0.0859 0.167969,0.0859 0,0 0.101562,0.35156 0.05078,0.42969 -0.05078,0.082 -0.117187,0.24219 0,0.26562 0.117188,0.0195 0.148438,0.0664 0.148438,0.0664 l 0.09375,0.45313 0.140625,0.0586 c 0,0 -0.308594,0.18359 -0.320313,0.26172 -0.01563,0.082 -0.140625,0.30859 -0.140625,0.30859 0,0 -0.06641,0.22656 -0.328125,0.46094 -0.265625,0.23437 -0.441406,0.97266 -0.492187,1.25 -0.05078,0.27734 -0.191406,0.78906 -0.191406,0.78906 l -0.917969,0.12891 -2.960938,0.42578 -0.02344,0.082 -0.964844,0.11719 c 0,0 -0.04297,-0.23438 -0.101562,-0.21875 -0.05859,0.0117 -0.05469,0.23828 -0.05469,0.23828 l -0.246094,0.0508 0.0078,0.10938 0.136719,0.0156 0.02344,0.0937 1.214844,-0.16797 0.06641,0.0664 1.738281,-0.21094 c 0,0 0.921875,1.14063 1.367188,1.35156 0.445312,0.21485 1.644531,0.67969 1.644531,0.67969 0,0 -0.04297,0.66797 0.0078,0.99609 0.05078,0.32813 0.367187,1.14063 0.367187,1.14063 0,0 0.05859,0.46875 -0.01563,0.57812 -0.07422,0.10938 -0.714844,0.91407 -0.6875,1.15625 0.03125,0.23829 0.03516,0.89844 -0.03516,1.08204 -0.07422,0.18359 -0.175782,0.39453 -0.175782,0.5039 0,0.10938 -0.02344,0.39453 -0.05078,0.45313 -0.03125,0.0586 -0.125,0.1289 -0.02344,0.2539 0.101562,0.125 0.132812,0.27344 0.117187,0.36719 -0.01563,0.0937 -0.109375,0.36719 -0.109375,0.36719"
             id="path53257-2-1-9" />
          <path
             style="fill:#000000;fill-opacity:1;fill-rule:nonzero;stroke:none"
             d="m 109.51563,709.00391 c 0,0 -0.1836,-0.125 -0.26172,-0.19922 -0.0781,-0.0742 -0.66797,-0.83985 -0.82422,-1.00782 C 108.26953,707.62891 107.87891,707 107.87891,707 l 0.25781,0.0469 0.0352,0.15235 c 0,0 0.14843,0.1914 0.17187,0.22656 0.0234,0.0391 0.33203,0.18359 0.40234,0.16797 0.0703,-0.0156 0.21094,0.15625 0.27344,0.19141 0.0625,0.0351 0.3086,0.25781 0.39063,0.25 L 109.80469,708 c 0,0 -0.0117,0.21484 -0.0664,0.38281 -0.0586,0.16797 -0.22265,0.6211 -0.22265,0.6211 m 1.875,8.98828 c 0.4414,0.0312 0.75,-0.0781 0.98437,-0.16016 0.23828,-0.0859 0.52344,-0.22266 0.52344,-0.22266 l 0.0117,-0.41015 c 0,0 0.23828,0.043 0.19531,-0.0977 -0.043,-0.14062 -0.0117,-0.90625 -0.0234,-1.05859 -0.0117,-0.15235 0.10547,-1.41797 0.10156,-1.57031 -0.004,-0.15235 -0.14453,-0.60938 -0.19921,-0.98047 -0.0547,-0.3711 -0.19141,-0.61328 -0.26172,-0.84375 -0.0703,-0.22657 -0.0625,-1.03516 0.0273,-1.15235 0.0937,-0.12109 0.17969,-0.71093 0.16797,-0.85156 -0.0117,-0.14453 -0.20313,-0.69531 -0.11719,-0.84766 0.0898,-0.14843 -0.004,-0.48828 -0.004,-0.48828 l 0.19531,0.0937 0.34765,-0.86718 -0.80078,-0.375 c 0,0 0.22657,-0.10157 0.51172,-0.12891 0.28125,-0.0273 0.9375,-0.33984 1.04688,-0.67578 0.11328,-0.33594 0.0469,-0.60547 -0.125,-0.95703 -0.17578,-0.35157 -0.65625,-1.50391 -0.6875,-1.60157 -0.0273,-0.0977 -0.23438,-0.2539 -0.33203,-0.32421 -0.10157,-0.0742 -1.00391,-0.5 -1.09766,-0.58594 -0.0859,-0.082 -0.21094,-0.44141 -0.21094,-0.44141 l 0.14844,-0.0508 c 0,0 -0.0977,-0.19531 0.0234,-0.40234 0.125,-0.20313 0.35937,-1.11328 -0.34375,-1.45703 -0.70703,-0.34375 -1.36719,0.13281 -1.46094,0.21484 -0.0937,0.0781 -0.27344,0.37109 -0.37109,0.39844 -0.10157,0.0312 -0.25,0.0625 -0.25,0.0625 0,0 0.14453,0.11328 0.21875,0.14453 0.0742,0.0352 0.28515,0.11719 0.28515,0.11719 0,0 -0.0625,0.11718 -0.0156,0.1875 0.0469,0.0664 0.0664,0.14453 0.008,0.29296 -0.0586,0.14844 -0.082,0.21094 0.004,0.2461 l 0.10546,0.0391 c 0,0 0.004,0.27734 0.008,0.31641 0.004,0.0391 -0.0273,0.15625 0.0273,0.1914 0.0508,0.0352 0.12891,0.0781 0.12891,0.0781 0,0 -0.26172,0.37109 -0.33594,0.47265 -0.0742,0.0977 -0.1875,0.38282 -0.1875,0.38282 l 0.10156,0.0195 c 0,0 -0.19531,0.20312 -0.24609,0.40234 -0.0547,0.19531 -0.125,0.98828 -0.15625,1.11328 -0.0312,0.125 -0.17188,0.47657 -0.17188,0.47657 0,0 -0.32031,-0.0625 -0.41797,-0.125 -0.0977,-0.0625 -0.14843,0.0625 -0.14843,0.0625 0,0 -0.35547,-0.20313 -0.42578,-0.20704 -0.0742,-0.004 -0.13282,0.0937 -0.13282,0.0937 l -0.74218,-0.16406 -0.0937,0.0469 -1.76954,-0.35157 c 0,0 0.0117,-0.12109 -0.0742,-0.15234 -0.082,-0.0352 -0.1211,0.0898 -0.1211,0.0898 l -0.11719,-0.0195 -0.0195,0.125 1.6836,0.4375 c 0,0 -0.0195,0.11719 0.13672,0.15235 0.15625,0.0351 0.51562,0.19922 0.76171,0.42968 0.2461,0.23438 0.875,0.99219 0.92188,1.07032 0.0469,0.0742 0.64062,0.77734 0.67578,0.8164 0.0352,0.0352 0.19531,0.13282 0.19531,0.13282 l -0.35547,0.34765 0.15235,0.0899 c 0,0 -0.48828,1.80859 -0.4375,1.83593 0.0547,0.0234 0.0586,0.17578 0.0547,0.23828 -0.008,0.0625 -0.13672,1.54297 -0.20704,1.67188 -0.0703,0.12891 -0.20312,0.67187 -0.1875,0.86328 0.0195,0.19141 -0.1914,1.47656 -0.1875,1.52344 0.004,0.0508 0.0273,0.64062 0.004,0.82812 -0.0234,0.1836 -0.0859,0.39453 -0.0859,0.39453 l 0.125,0.15235 c 0,0 -0.19922,0.15234 -0.51953,0.21875 -0.32031,0.0703 -0.39453,0.17969 -0.38672,0.23828 0.004,0.0625 -0.0586,0.14844 -0.0586,0.14844 0,0 0.16406,0.14062 0.26953,0.14843 0.10156,0.0117 1.02344,-0.0508 1.09375,-0.0547 0.0742,-0.008 0.34375,-0.16407 0.34375,-0.16407 l 0.0508,0.125 c 0,0 0.69922,-0.0625 0.7461,-0.0977 0.0469,-0.0352 0.0312,-0.69531 0.0312,-0.69531 l 0.10156,0.0117 -0.0352,-0.74218 c 0,0 0.41797,-2.02735 0.41406,-2.17969 -0.004,-0.15234 0.32422,-1.10938 0.42579,-1.26172 0.0977,-0.15234 0.16406,-0.21875 0.16406,-0.21875 0,0 0.0547,1.08594 0.0625,1.17969 0.0117,0.0898 0.043,0.23828 0.11328,0.32422 0.0703,0.0859 0.37891,0.35156 0.29687,0.55468 -0.0859,0.20313 -0.0859,0.9961 -0.0469,1.0625 0.0352,0.0703 0.14453,0.81641 0.17969,0.97657 0.0352,0.16015 -0.0312,0.4414 -0.0312,0.4414 l 0.0937,0.15235 c 0,0 -0.16797,0.26172 -0.32813,0.29687 -0.16015,0.0352 -0.125,0.32422 -0.0781,0.375 0.043,0.0469 0.13672,0.0781 0.13672,0.0781"
             id="path53259-2-4-6" />
        </g>
        <g
           id="g55250-4-6-5"
           transform="matrix(0.35277777,0,0,0.35277777,365.82211,213.58125)"
           style="fill:#000000">
          <path
             id="path101922-1-9-33-1"
             style="fill:#000000;stroke-width:0.110831"
             d="m 160.1061,718.09915 c 0.0284,-0.0762 0.0669,-0.48761 0.091,-0.91434 0.0527,-0.9324 0.31457,-1.98386 0.56172,-2.25695 l 0.18,-0.19871 v -0.52497 c 0,-0.2886 0.0581,-0.63363 0.12954,-0.76646 0.0709,-0.13266 0.18652,-0.46613 0.25654,-0.74069 l 0.12727,-0.49924 0.1766,-0.0337 0.1766,-0.0337 0.24293,0.64344 c 0.13351,0.35388 0.25313,0.82395 0.26532,1.04462 l 0.0227,0.40125 0.29092,0.34557 0.29092,0.34563 0.13153,0.58685 0.13152,0.58683 -0.1233,0.79336 c -0.0675,0.43634 -0.12303,0.84887 -0.12303,0.91673 v 0.1233 l 0.52203,-0.0337 0.52203,-0.0337 0.0896,-0.4343 0.0896,-0.43435 -0.10857,-0.58677 -0.10857,-0.58677 0.10942,-0.96185 0.10942,-0.9618 -0.17461,-0.19304 -0.17462,-0.19304 0.0729,-0.29024 0.0728,-0.29027 h 0.48668 0.48677 l 0.21458,-0.21458 c 0.27666,-0.27666 0.44906,-0.90768 0.44989,-1.64585 v -0.58575 l 0.17886,-0.27269 0.17859,-0.2727 -0.072,-0.38452 c -0.04,-0.21146 -0.11849,-0.41326 -0.17575,-0.44838 -0.0567,-0.0352 -0.23046,0.0198 -0.38549,0.12104 l -0.28204,0.18482 0.0598,-0.15534 c 0.0337,-0.0856 0.0142,-0.67774 -0.042,-1.31624 l -0.10177,-1.16096 -0.31051,-0.75393 c -0.17092,-0.41468 -0.47639,-0.94759 -0.67898,-1.18431 l -0.36839,-0.43036 -0.58816,-0.17093 -0.58813,-0.17093 -0.12728,-0.27949 -0.12727,-0.2795 h 0.15647 c 0.27354,0 0.37619,-0.94626 0.15959,-1.46988 l -0.13011,-0.31388 -0.31153,-0.16129 c -0.63451,-0.32811 -1.14264,-0.14372 -1.57462,0.57149 -0.16469,0.2727 -0.29936,0.54088 -0.29936,0.5961 0,0.0553 0.12472,0.33483 0.27694,0.62155 0.15251,0.28653 0.27695,0.61424 0.27695,0.72811 v 0.20665 l -0.37151,0.17716 c -0.41757,0.19899 -0.62413,0.50397 -1.15393,1.70337 -0.43225,0.97843 -0.70359,2.26732 -0.72859,3.46034 l -0.0198,0.85589 0.2933,0.29395 0.29327,0.29395 0.12388,-0.0768 c 0.0683,-0.0422 0.0955,-0.12331 0.0604,-0.18 -0.0351,-0.0567 -0.006,-0.10319 0.0632,-0.10319 h 0.12671 l -0.0227,-0.41564 c -0.0142,-0.22876 -0.0142,-0.59017 0,-0.80351 l 0.0227,-0.38792 0.20778,0.60959 0.20778,0.60956 -0.10205,0.44331 c -0.0561,0.24407 -0.10318,0.63953 -0.10488,0.87928 0,0.23981 -0.0975,0.71357 -0.21345,1.0529 -0.11594,0.33931 -0.24151,0.90973 -0.2795,1.26754 l -0.0689,0.65055 0.10488,0.12643 c 0.0578,0.0695 0.11736,0.47503 0.13181,0.90108 l 0.0283,0.77468 -0.17235,0.39926 -0.17234,0.39929 -0.34759,0.0692 -0.34761,0.0697 -0.068,0.17717 -0.068,0.17716 0.15363,0.14287 c 0.17377,0.16157 1.04672,0.39379 1.48077,0.39379 h 0.28686 z m 3.91283,-5.59692 c -0.0927,-0.10658 -0.1987,-0.35637 -0.23612,-0.5548 l -0.068,-0.36076 0.11962,-0.26249 c 0.10488,-0.22989 0.6893,-0.64579 1.20932,-0.86049 l 0.17263,-0.0711 -0.0884,0.82695 c -0.0876,0.81596 -0.22677,1.23282 -0.46508,1.39196 -0.20664,0.13833 -0.46768,0.0938 -0.64374,-0.10914 z" />
          <path
             style="fill:#000000;fill-opacity:1;fill-rule:nonzero;stroke:none"
             d="m 135.15234,711.35156 -0.26172,0.082 -2.35546,-0.84765 -0.30079,-0.34375 -0.0156,-0.20313 1.10937,0.16406 0.27735,0.10547 0.83984,0.0703 c 0,0 0.0234,0.15625 0.22266,0.2539 0.19922,0.0977 0.27734,-0.16015 0.27734,-0.16015 l 0.10156,0.22265 c 0,0 -0.0352,0.20703 -0.0352,0.28516 -0.004,0.0742 0.14062,0.37109 0.14062,0.37109 m -0.83203,0.25781 -0.0508,0.0703 c 0,0 -0.14062,0.0273 -0.18359,0.0273 -0.043,0 -0.15235,-0.0469 -0.19922,-0.043 -0.0508,0.004 -0.73438,-0.38672 -0.73438,-0.38672 l -0.125,-0.16015 z m 1.38672,1.03125 -0.0312,-0.27734 0.13281,-0.20703 0.22657,0.0859 0.0273,0.41797 0.14453,0.0195 0.21094,0.11718 0.0781,-0.043 c 0,0 0.41407,0.41796 0.51172,0.53906 0.10156,0.125 0.36719,0.125 0.36719,0.125 l -0.004,0.11719 z m -3.58203,4.91797 c -0.0312,0.082 -0.004,0.16016 -0.004,0.16016 l -0.0391,0.10937 c 0,0 1.14844,0.0547 1.51563,0.0195 0.3125,-0.0312 0.32812,-0.082 0.32812,-0.0977 l 0.043,0.125 c 0,0 0.65625,-0.0117 0.75391,-0.0312 0.0977,-0.0156 0.17187,-0.16797 0.10546,-0.37891 -0.0703,-0.21093 -0.0469,-0.24609 -0.10546,-0.41406 -0.0586,-0.17187 -0.16797,-0.64062 -0.0312,-0.96484 0.14062,-0.32422 0.23828,-0.5625 0.23828,-0.5625 0,0 0.15625,-0.0781 0.20703,-0.16797 0.0508,-0.0898 0.24219,-0.51563 0.25781,-0.59766 0.0195,-0.082 0.0273,-0.13281 0.0273,-0.13281 l 0.13282,-0.0703 c 0,0 0.44922,0.35547 0.59375,0.40234 0.14453,0.0469 0.39453,0.12109 0.39453,0.12109 l 0.0586,0.0703 c 0,0 -0.40625,0.82812 -0.46875,1.08593 -0.0664,0.25391 -0.1289,0.65625 0.0898,0.76954 0.21875,0.11328 0.57421,0.17187 0.83984,0.18359 0.26172,0.008 1.37891,-0.38672 1.37891,-0.38672 l -0.0117,-0.13281 c 0,0 0.53125,-0.15235 0.65625,-0.14063 0.125,0.008 0.4375,0.1875 0.48047,0.22266 0.0391,0.0391 0.17968,0.0508 0.1914,0.125 0.008,0.0781 -0.0742,0.125 -0.11719,0.13672 -0.043,0.0117 -0.39453,0.0977 -0.36718,0.32812 0.0273,0.23047 0.41406,0.32813 0.41406,0.32813 l 1.09766,-0.27344 c 0,0 0.28906,-0.31641 0.29687,-0.49219 0.004,-0.17578 0.0625,-0.45703 -0.16797,-0.57031 -0.23437,-0.11328 -0.40234,-0.34375 -0.40234,-0.34375 0,0 0.71875,-0.96484 0.75,-1.10156 0.0352,-0.14063 0.0352,-0.38281 -0.0273,-0.45313 -0.0586,-0.0742 -0.10937,-0.17187 -0.10937,-0.17187 l 0.0508,-0.14453 -0.27734,-0.14453 -0.10157,0.10937 c 0,0 -0.29687,0.043 -0.3789,0.0781 -0.0859,0.0312 -0.23438,0.0937 -0.23438,0.0937 l 0.043,-0.88282 -0.24219,-0.0976 c 0,0 -0.19921,-0.98438 -0.48828,-1.54688 -0.28515,-0.55859 -0.96484,-1.55859 -1.01172,-1.60937 -0.0469,-0.0508 -0.3125,-0.35157 -0.51562,-0.34766 -0.20313,0.008 -0.44531,-0.0156 -0.44531,-0.0156 l -0.0547,-0.0859 -0.23828,-0.10547 -0.082,-0.0703 c 0,0 -0.0781,-0.13672 -0.0703,-0.17188 0.008,-0.0312 0.0312,-0.1875 0.0312,-0.1875 l 0.14454,-0.0898 c 0,0 -0.0898,-0.15625 -0.12891,-0.29297 -0.0352,-0.13281 -0.31641,-1.14063 -1.08594,-0.99219 -0.77344,0.14844 -1.03125,0.65625 -1.0625,0.79297 -0.0312,0.13672 -0.0273,0.61328 -0.0352,0.66016 -0.0117,0.0508 -0.13672,0.24218 -0.13672,0.24218 l 0.42968,-0.0703 c 0,0 0.14844,0.19531 0.14454,0.25391 -0.004,0.0664 -0.0469,0.19531 -0.0469,0.19531 l -0.12109,0.0781 -0.10938,-0.16407 -0.28515,-0.0508 -0.0195,-0.19531 -0.19921,-0.0195 -0.1211,0.0625 h -0.21094 l -0.0703,0.0625 -0.3789,-0.0195 -0.29297,-0.10938 -4.07032,-0.26953 -0.0508,0.0273 -0.95312,-0.0469 c 0,0 0.0156,-0.22266 -0.10547,-0.24219 -0.11719,-0.0156 -0.16797,0.23828 -0.16797,0.23828 l -0.11719,-0.0117 -0.0234,0.31641 1.26562,0.10547 0.0664,0.0508 1.80078,0.17578 c 0,0 -0.008,0.23438 0.0391,0.27735 0.0469,0.0469 0.71875,0.5625 0.71875,0.5625 0,0 0.50781,0.67968 0.57813,0.8164 0.0742,0.13672 0.29296,0.375 0.29296,0.375 0,0 -0.0273,0.26172 0.004,0.33985 0.0312,0.0781 0.0586,0.26171 0.14063,0.28515 l 0.14062,0.0391 0.16406,0.13672 0.11719,-0.008 c 0,0 0.14063,0.17188 0.21875,0.16016 0.0742,-0.0117 0.73047,-0.0234 0.73047,-0.0234 0,0 -0.44141,1.08594 -0.45703,1.16797 -0.0195,0.0859 -0.33594,0.76953 -0.20703,0.89453 0.1289,0.12109 0.30859,0.16406 0.28515,0.44141 -0.0234,0.27734 -0.16015,0.92968 -0.26172,1.07812 -0.10156,0.15234 -0.44531,0.62891 -0.44531,0.62891 0,0 -0.40625,0.375 -0.55078,0.39843 -0.14844,0.0234 -0.55078,0.16797 -0.55078,0.16797"
             id="path53273-3-5-8" />
          <path
             style="fill:#000000;fill-opacity:1;fill-rule:nonzero;stroke:none"
             d="m 152.23828,708.87891 c 0,0 -0.18359,-0.125 -0.26172,-0.19922 -0.0781,-0.0742 -0.66797,-0.83594 -0.82422,-1.00782 -0.16015,-0.16796 -0.55468,-0.79296 -0.55468,-0.79296 l 0.26171,0.0469 0.0352,0.14844 c 0,0 0.14844,0.1914 0.17188,0.23047 0.0234,0.0391 0.33203,0.18359 0.40234,0.16797 0.0703,-0.0195 0.20703,0.15234 0.27344,0.1875 0.0625,0.0351 0.30859,0.25781 0.39062,0.25 l 0.39453,-0.0352 c 0,0 -0.0117,0.21484 -0.0703,0.38281 -0.0547,0.17188 -0.21875,0.6211 -0.21875,0.6211 m 1.875,8.98828 c 0.44141,0.0312 0.75,-0.0781 0.98438,-0.16016 0.23828,-0.082 0.52343,-0.21875 0.52343,-0.21875 l 0.0117,-0.41016 c 0,0 0.23828,0.0391 0.19531,-0.0977 -0.043,-0.14063 -0.0117,-0.91016 -0.0234,-1.0625 -0.0156,-0.14844 0.10547,-1.41406 0.10156,-1.56641 -0.004,-0.15234 -0.14844,-0.60937 -0.19922,-0.98047 -0.0547,-0.375 -0.19141,-0.61718 -0.26172,-0.84375 -0.0703,-0.23047 -0.0625,-1.03515 0.0273,-1.15625 0.0937,-0.12109 0.17968,-0.71093 0.16796,-0.85156 -0.0117,-0.14062 -0.20312,-0.69531 -0.11718,-0.84766 0.0898,-0.14843 -0.004,-0.48828 -0.004,-0.48828 l 0.19141,0.0977 0.35156,-0.87109 -0.80078,-0.375 c 0,0 0.22656,-0.10157 0.51172,-0.12891 0.28125,-0.0234 0.9375,-0.33594 1.04687,-0.67578 0.11328,-0.33594 0.0469,-0.60547 -0.125,-0.95703 -0.17578,-0.35157 -0.65625,-1.5 -0.6875,-1.60157 -0.0273,-0.0977 -0.23437,-0.25 -0.33594,-0.32421 -0.0977,-0.0742 -1.0039,-0.5 -1.09375,-0.58594 -0.0859,-0.082 -0.21093,-0.4375 -0.21093,-0.4375 l 0.14843,-0.0547 c 0,0 -0.10156,-0.19531 0.0234,-0.40234 0.125,-0.20313 0.35938,-1.11328 -0.34375,-1.45703 -0.70703,-0.33985 -1.36719,0.13671 -1.46094,0.21484 -0.0937,0.082 -0.27343,0.37109 -0.37109,0.40234 -0.10156,0.0274 -0.25,0.0625 -0.25,0.0625 0,0 0.14453,0.10938 0.21875,0.14453 0.0742,0.0352 0.28516,0.11719 0.28516,0.11719 0,0 -0.0625,0.11719 -0.0156,0.1836 0.0469,0.0664 0.0664,0.14843 0.008,0.29687 -0.0586,0.14844 -0.082,0.21094 0.004,0.24219 l 0.10156,0.043 c 0,0 0.008,0.27343 0.008,0.3164 0.008,0.0391 -0.0234,0.15235 0.0312,0.1875 0.0508,0.0391 0.1289,0.082 0.1289,0.082 0,0 -0.26172,0.3711 -0.33594,0.46875 -0.0742,0.0977 -0.1875,0.38672 -0.1875,0.38672 l 0.10157,0.0195 c 0,0 -0.19532,0.19922 -0.25,0.39844 -0.0508,0.19922 -0.125,0.99219 -0.15235,1.11719 -0.0312,0.125 -0.17187,0.47266 -0.17187,0.47266 0,0 -0.32031,-0.0625 -0.41797,-0.125 -0.0977,-0.0625 -0.14844,0.0625 -0.14844,0.0625 0,0 -0.35547,-0.19922 -0.42578,-0.20313 -0.0703,-0.004 -0.13672,0.0937 -0.13672,0.0937 l -0.73828,-0.16797 -0.0977,0.0508 -1.76562,-0.35156 c 0,0 0.0117,-0.12109 -0.0742,-0.15625 -0.0859,-0.0312 -0.125,0.0937 -0.125,0.0937 l -0.11328,-0.0195 -0.0195,0.125 1.68359,0.4375 c 0,0 -0.0195,0.11328 0.13672,0.14844 0.15234,0.0391 0.51563,0.19922 0.76172,0.43359 0.24609,0.23047 0.875,0.99219 0.92187,1.06641 0.0469,0.0781 0.64063,0.77734 0.67579,0.8164 0.0352,0.0391 0.19531,0.13672 0.19531,0.13672 l -0.35547,0.34766 0.15234,0.0859 c 0,0 -0.48828,1.80859 -0.4375,1.83593 0.0547,0.0274 0.0586,0.17969 0.0547,0.24219 -0.008,0.0586 -0.13672,1.53906 -0.20703,1.66797 -0.0703,0.12891 -0.20313,0.67187 -0.1875,0.86328 0.0195,0.19141 -0.19141,1.47656 -0.1875,1.52734 0.004,0.0508 0.0273,0.64063 0.004,0.82422 -0.0234,0.1875 -0.0859,0.39453 -0.0859,0.39453 l 0.125,0.15235 c 0,0 -0.19922,0.15234 -0.51953,0.22265 -0.32032,0.0703 -0.39453,0.17969 -0.38672,0.23829 0.004,0.0625 -0.0586,0.14843 -0.0586,0.14843 0,0 0.16407,0.13672 0.26954,0.14844 0.10156,0.0117 1.02343,-0.0508 1.09375,-0.0586 0.0703,-0.004 0.34375,-0.16407 0.34375,-0.16407 l 0.0508,0.12891 c 0,0 0.69922,-0.0625 0.74609,-0.0977 0.0469,-0.0352 0.0312,-0.69531 0.0312,-0.69531 l 0.10156,0.008 -0.0391,-0.74218 c 0,0 0.42188,-2.02344 0.41797,-2.17578 -0.004,-0.15235 0.32812,-1.11329 0.42578,-1.26172 0.0977,-0.15235 0.16406,-0.21875 0.16406,-0.21875 0,0 0.0547,1.08593 0.0664,1.17578 0.008,0.0898 0.0391,0.24219 0.10937,0.32812 0.0703,0.082 0.37891,0.35157 0.29688,0.55078 -0.0859,0.20313 -0.0859,1 -0.0469,1.06641 0.0352,0.0664 0.14454,0.8125 0.17969,0.97266 0.0352,0.16015 -0.0312,0.4414 -0.0312,0.4414 l 0.0937,0.15625 c 0,0 -0.17187,0.25782 -0.32812,0.29297 -0.16016,0.0352 -0.125,0.32813 -0.082,0.375 0.0469,0.0469 0.14062,0.0781 0.14062,0.0781"
             id="path53275-9-1-1" />
          <path
             id="path101920-4-0-4-4"
             style="fill:#000000;stroke-width:0.110831"
             d="m 142.41271,718.19475 c 0.0337,-0.16753 0.13181,-0.64607 0.21883,-1.06322 l 0.15846,-0.75838 -0.13011,-0.69137 -0.12983,-0.69137 -0.23782,-0.33384 -0.23783,-0.3338 0.12529,-0.12529 0.12529,-0.1253 -0.1131,-0.36861 -0.1131,-0.36868 0.0864,-0.23414 c 0.0476,-0.12869 0.1406,-0.81487 0.20665,-1.52473 0.0663,-0.70982 0.13153,-1.32505 0.1457,-1.36723 0.0142,-0.0422 -0.0227,-0.0856 -0.0811,-0.0964 -0.16328,-0.0303 -0.26504,-0.37259 -0.27383,-0.9229 l -0.006,-0.4991 -0.34594,-0.32641 -0.34585,-0.32638 0.0553,-0.67068 0.0558,-0.67065 0.37346,-0.98824 0.37344,-0.98827 0.41825,-0.21572 0.41825,-0.21515 -0.0198,-0.40339 -0.0198,-0.40337 -0.22819,-0.25512 -0.22819,-0.25512 0.12019,-0.0774 c 0.0658,-0.0425 0.20267,-0.23867 0.30376,-0.4356 0.20409,-0.39826 0.68267,-0.6946 1.12187,-0.6946 0.15845,0 0.42823,0.0726 0.59947,0.16129 l 0.3115,0.16129 0.14031,0.33835 0.14032,0.3384 -0.0632,0.31558 -0.0632,0.31558 0.12246,0.12246 0.12217,0.12245 -0.1423,0.17093 -0.14201,0.17093 0.49821,0.22025 0.49819,0.22026 0.40961,0.49986 0.40952,0.49986 h 0.22167 c 0.2537,0 0.66637,-0.19701 0.7888,-0.37681 l 0.083,-0.12189 0.10913,0.16611 c 0.15194,0.23187 0.13919,0.3291 -0.0538,0.40323 -0.0913,0.0351 -0.1664,0.13153 -0.1664,0.2143 0,0.0828 -0.0935,0.20069 -0.20806,0.26192 -0.11452,0.0612 -0.23273,0.24123 -0.26334,0.40017 l -0.0553,0.28887 0.22875,0.41738 0.22876,0.4174 -0.13918,0.33585 -0.13919,0.33585 -0.26957,0.12274 c -0.2829,0.12869 -0.34571,0.28922 -0.15874,0.40467 0.0609,0.0374 0.11083,0.17433 0.11083,0.30342 0,0.12954 0.0592,0.39878 0.13153,0.59899 l 0.13181,0.36405 -0.20239,0.22366 c -0.11112,0.12302 -0.3634,0.2537 -0.56035,0.29055 l -0.35808,0.0672 0.20552,0.65976 c 0.197,0.63309 0.42735,1.7303 0.48557,2.3135 0.0142,0.1525 0.0649,0.41624 0.10998,0.58635 l 0.0825,0.30914 -0.17943,0.19843 -0.17943,0.19842 v 0.62893 0.62898 l 0.21231,0.39617 c 0.11651,0.21798 0.29934,0.45983 0.40592,0.53773 l 0.19361,0.14145 -0.07,0.18198 -0.07,0.18227 h -0.48864 -0.48863 l -0.13777,-0.16639 c -0.076,-0.0913 -0.22535,-0.16612 -0.33179,-0.16612 h -0.19389 l -0.0717,-0.44705 -0.0717,-0.44705 0.11622,-0.21685 0.11622,-0.21685 -0.1851,-0.63828 -0.1851,-0.63825 -0.21855,-0.15363 -0.21855,-0.15364 0.0601,-0.4481 0.0601,-0.44813 -0.26929,-0.5057 c -0.14797,-0.27808 -0.30172,-0.68066 -0.34132,-0.89447 -0.04,-0.21374 -0.14741,-0.50415 -0.23925,-0.64523 l -0.16696,-0.25653 -0.15902,0.4227 -0.15931,0.42267 0.003,0.82809 0.003,0.82808 -0.12529,0.15109 c -0.14457,0.17433 -0.1457,0.18028 -0.27723,1.57329 l -0.0989,1.0529 0.11055,0.85654 0.11055,0.85658 -0.20267,0.22393 -0.20268,0.22394 h -0.54958 -0.54956 l 0.0604,-0.30475 z" />
        </g>
        <path
           style="fill:#000000;stroke-width:0.00772503"
           d="m 441.23064,466.88568 c -0.01,-0.002 -0.0227,-0.01 -0.0301,-0.0181 l -0.0135,-0.0148 -0.008,-0.0647 -0.008,-0.0647 0.0168,-0.0286 0.0168,-0.0286 v -0.0619 -0.0619 l -0.0149,-0.0362 c -0.008,-0.0198 -0.0188,-0.0556 -0.0234,-0.0793 l -0.008,-0.0431 0.003,-0.0882 0.003,-0.0883 -0.0289,-0.0396 -0.0289,-0.0396 v -0.0243 c 0,-0.0134 -0.007,-0.0373 -0.015,-0.0531 -0.0205,-0.0392 -0.0805,-0.12502 -0.0743,-0.10625 0.003,0.008 0.007,0.0301 0.01,0.0482 l 0.004,0.0331 -0.0173,0.0476 -0.0173,0.0475 0.004,0.0261 0.004,0.0261 0.0297,0.0337 c 0.0163,0.0186 0.0398,0.0524 0.0524,0.0751 l 0.0227,0.0413 -4.9e-4,0.043 -4.9e-4,0.0429 -0.0195,0.0428 -0.0195,0.0428 -0.0294,0.0183 -0.0295,0.0183 -0.0436,0.003 -0.0436,0.003 -0.0267,-0.0233 c -0.0256,-0.0224 -0.0336,-0.0368 -0.081,-0.1469 l -0.021,-0.049 -0.0431,0.004 c -0.0238,0.003 -0.0693,0.006 -0.10102,0.01 l -0.058,0.004 -0.0411,-0.008 -0.0411,-0.008 -0.11253,0.0552 -0.11255,0.0552 -0.0456,0.0406 -0.0456,0.0406 -0.0355,0.012 -0.0355,0.012 -0.0324,0.0298 c -0.0178,0.0164 -0.0567,0.0442 -0.0862,0.0619 l -0.0538,0.032 -0.0385,0.007 c -0.0213,0.004 -0.0543,0.005 -0.0732,0.003 -0.0426,-0.005 -0.11265,-0.0397 -0.14303,-0.0699 -0.0514,-0.0511 -0.0774,-0.0818 -0.0883,-0.10472 l -0.0116,-0.0241 -0.0267,-0.005 c -0.0147,-0.003 -0.0315,-0.0118 -0.0373,-0.0195 l -0.0106,-0.0143 0.004,-0.0305 c 0.008,-0.0483 0.0588,-0.14926 0.12028,-0.23661 0.0312,-0.0443 0.0834,-0.11924 0.11593,-0.16652 l 0.0592,-0.0859 -0.011,-0.0261 c -0.006,-0.0143 -0.0215,-0.067 -0.0344,-0.11708 l -0.0234,-0.0911 0.004,-0.0185 0.004,-0.0186 0.0289,-0.0201 c 0.0159,-0.011 0.058,-0.0372 0.0932,-0.0581 0.0354,-0.0209 0.0813,-0.0508 0.10197,-0.0666 l 0.0377,-0.0288 0.0171,-0.0431 c 0.01,-0.0238 0.0302,-0.0676 0.0461,-0.0972 l 0.029,-0.0541 -0.01,-0.0587 -0.01,-0.0587 -0.0392,0.0115 c -0.0215,0.006 -0.0549,0.0175 -0.074,0.0251 -0.0191,0.008 -0.0487,0.0158 -0.0657,0.0186 l -0.0308,0.004 -0.054,-0.0115 c -0.0298,-0.006 -0.0696,-0.0169 -0.0884,-0.0237 -0.0661,-0.0234 -0.11632,-0.0768 -0.11638,-0.12331 l -3e-5,-0.0226 -0.0288,-0.0416 -0.0288,-0.0416 3.6e-4,-0.0323 c 2.6e-4,-0.0178 7.9e-4,-0.0416 0.002,-0.0531 l 0.002,-0.0209 0.0269,-0.0261 0.0269,-0.0261 0.0125,-0.0535 0.0125,-0.0535 0.0225,-0.0366 c 0.0124,-0.0202 0.0264,-0.0523 0.0312,-0.0716 0.004,-0.0193 0.0117,-0.0367 0.015,-0.0388 0.008,-0.004 0.11261,-0.21942 0.12753,-0.26069 0.005,-0.0161 0.0231,-0.0481 0.0385,-0.0713 0.0262,-0.0395 0.0454,-0.0586 0.0908,-0.0903 0.0105,-0.007 0.053,-0.0646 0.0947,-0.12745 l 0.0759,-0.11434 0.0403,-0.0396 0.0403,-0.0396 -0.0321,-0.0106 c -0.0177,-0.005 -0.0409,-0.0143 -0.0515,-0.0193 -0.0107,-0.005 -0.0298,-0.0125 -0.0425,-0.0163 l -0.0232,-0.007 -0.003,-0.0153 c -0.002,-0.008 0.004,-0.0282 0.0118,-0.044 l 0.014,-0.0288 -0.0111,-0.091 -0.0111,-0.091 0.008,-0.0564 0.008,-0.0564 0.0253,-0.0515 0.0253,-0.0515 0.0355,-0.0349 c 0.0194,-0.0193 0.0565,-0.0461 0.0822,-0.0598 l 0.0469,-0.0248 0.0541,-0.008 0.054,-0.008 0.0525,0.008 0.0524,0.008 0.0473,0.024 0.0473,0.024 0.0488,0.0488 0.0488,0.0488 0.0187,0.0423 c 0.0106,0.0233 0.029,0.0865 0.0418,0.14039 l 0.0231,0.0981 0.0216,0.0222 0.0216,0.0222 0.0514,2.4e-4 0.0513,2.5e-4 0.043,0.0464 0.043,0.0463 0.004,0.0251 c 0.003,0.0137 0.004,0.0369 0.006,0.0515 l 0.003,0.0265 0.0714,0.0284 c 0.0757,0.0301 0.13495,0.067 0.19639,0.12198 l 0.0375,0.0336 0.0273,0.0476 c 0.015,0.0261 0.0463,0.0719 0.0695,0.10155 0.0232,0.0298 0.0421,0.06 0.0421,0.0672 0,0.0118 0.0494,0.11115 0.0972,0.1955 l 0.0175,0.0308 0.0141,-0.003 c 0.008,-0.002 0.0714,-0.0349 0.14158,-0.0742 l 0.12746,-0.0714 0.0308,-0.004 0.0308,-0.004 0.0877,-0.0459 c 0.0482,-0.0252 0.0957,-0.0533 0.10545,-0.0626 l 0.0177,-0.0166 -0.008,-0.0271 c -0.004,-0.0149 -0.005,-0.0319 -0.003,-0.0376 0.003,-0.005 0.0123,-0.0159 0.0225,-0.0225 l 0.0184,-0.012 0.0238,0.008 0.0238,0.008 0.004,0.0178 0.004,0.0178 0.0298,-0.008 c 0.0164,-0.004 0.0356,-0.005 0.0426,-0.003 0.0183,0.007 0.0157,0.0307 -0.005,0.0507 l -0.0181,0.0171 0.003,0.0176 0.003,0.0176 -0.0295,0.0226 c -0.0164,0.0125 -0.0573,0.037 -0.0914,0.0546 l -0.0617,0.032 -0.003,0.0202 -0.003,0.0202 -0.0188,0.004 c -0.0106,0.003 -0.0241,0.003 -0.0305,2.4e-4 -0.006,-0.003 -0.024,0.002 -0.0385,0.008 l -0.0269,0.0128 v 0.0203 c 0,0.0236 -0.0128,0.0387 -0.0327,0.0387 -0.0192,0 -0.0679,0.0255 -0.13333,0.0697 -0.0298,0.0202 -0.074,0.0476 -0.0985,0.0614 l -0.0443,0.0248 v 0.0554 c -10e-6,0.0304 -0.005,0.0871 -0.0115,0.12586 l -0.0115,0.0706 -0.0276,0.0647 c -0.0152,0.0355 -0.0296,0.0689 -0.0319,0.0742 l -0.004,0.01 h 0.0119 c 0.0155,0 0.0361,0.0294 0.0361,0.052 v 0.0177 l 0.0344,0.0167 0.0344,0.0167 0.01,0.0238 0.01,0.0239 -4.9e-4,0.0834 -4.8e-4,0.0834 -0.0265,0.0259 -0.0265,0.0259 -0.0144,0.0415 c -0.0341,0.0985 -0.0601,0.15941 -0.0748,0.17516 l -0.0157,0.0169 -0.0556,-3e-5 -0.0556,-3e-5 -0.0243,-0.0148 -0.0243,-0.0149 -0.0161,-0.0434 -0.0163,-0.0434 v -0.0344 c 0,-0.019 -0.003,-0.0344 -0.005,-0.0344 -0.003,0 -0.0118,0.0199 -0.019,0.0444 l -0.0131,0.0444 0.0186,0.027 c 0.0106,0.0149 0.0224,0.0444 0.027,0.0658 l 0.008,0.0385 0.0155,0.0119 0.0156,0.0119 0.007,0.0305 c 0.004,0.0167 0.007,0.10812 0.007,0.203 l 2.4e-4,0.17248 0.038,0.11721 c 0.0624,0.19316 0.0705,0.22057 0.0699,0.23879 -3.7e-4,0.01 -0.002,0.0488 -0.003,0.087 -0.002,0.0382 -0.003,0.0904 -0.004,0.11589 l -0.002,0.0463 0.0125,0.042 c 0.007,0.0231 0.0125,0.0587 0.0125,0.0792 v 0.0373 l -0.0163,0.0163 c -0.009,0.01 -0.0306,0.0227 -0.0482,0.0304 l -0.032,0.0141 -0.0696,0.004 c -0.13303,0.01 -0.16233,0.01 -0.17881,0.006 z m -0.59472,-0.93868 c 0.0296,-0.0161 0.068,-0.0318 0.0853,-0.0344 0.0374,-0.005 0.0501,-0.0118 0.0929,-0.0445 0.0178,-0.0136 0.0434,-0.0292 0.0568,-0.0349 l 0.0244,-0.0106 0.0193,0.004 c 0.0107,0.003 0.0336,0.0196 0.051,0.0376 l 0.0318,0.0327 -0.0259,-0.0425 c -0.0143,-0.0233 -0.0308,-0.0458 -0.0371,-0.0496 -0.006,-0.004 -0.0199,-0.0155 -0.0303,-0.026 l -0.0189,-0.0189 -0.0355,0.004 c -0.0756,0.01 -0.13641,0.0413 -0.23761,0.12633 -0.0337,0.0284 -0.10292,0.11444 -0.10292,0.12816 0,0.004 0.0164,-0.004 0.0363,-0.0185 0.0199,-0.0136 0.0605,-0.0383 0.0901,-0.0545 z"
           id="path105455-1-0-3-0-2" />
      </g>
    </g>
  </g>
</svg>
