<?xml version="1.0" encoding="UTF-8" standalone="no"?>
<!-- Created with Inkscape (http://www.inkscape.org/) -->

<svg
   width="19.33893mm"
   height="10.331336mm"
   viewBox="0 0 19.33893 10.331336"
   version="1.1"
   id="svg2173"
   sodipodi:docname="inkporter-svg-w3vzx49k.svg"
   xmlns:inkscape="http://www.inkscape.org/namespaces/inkscape"
   xmlns:sodipodi="http://sodipodi.sourceforge.net/DTD/sodipodi-0.dtd"
   xmlns="http://www.w3.org/2000/svg"
   xmlns:svg="http://www.w3.org/2000/svg">
  <sodipodi:namedview
     id="namedview2175"
     pagecolor="#ffffff"
     bordercolor="#666666"
     borderopacity="1.0"
     inkscape:pageshadow="2"
     inkscape:pageopacity="0.0"
     inkscape:pagecheckerboard="0"
     inkscape:document-units="mm"
     showgrid="false"
     inkscape:zoom="0.64052329"
     inkscape:cx="397.33138"
     inkscape:cy="561.25984"
     inkscape:window-width="1482"
     inkscape:window-height="979"
     inkscape:window-x="4041"
     inkscape:window-y="526"
     inkscape:window-maximized="0"
     inkscape:current-layer="layer1" />
  <defs
     id="defs2170" />
  <g
     inkscape:label="Layer 1"
     inkscape:groupmode="layer"
     id="layer1"
     transform="translate(-125.37887,-76.506511)">
    <path
       d="m 144.34173,83.521342 -0.63924,-0.554214 0.11501,-0.60325 h 0.32808 V 81.62869 l -0.32808,-0.178859 -1.20826,-0.113947 0.0162,-0.570794 h 0.13124 l -0.0162,-0.295628 -3.0039,-0.422981 -0.0653,0.782814 h -0.70061 v -0.376061 h -0.1644 v -0.406753 l -0.0988,-0.163689 -0.17815,-0.04798 v -0.245181 l -0.14393,7.06e-4 v -0.19297 l -0.0568,-0.07267 c 0,0 -0.16192,-1.410406 -0.16192,-1.434747 0,-0.02434 -0.42157,-0.510822 -0.42157,-0.510822 L 137.63962,76.512 c 0,0 -1.96533,-0.01235 -1.97768,0 -0.012,0.01199 0,0.291747 0,0.291747 l -0.17815,0.202494 h -1.29716 v 0.137937 h 1.23225 c -0.0325,0 -0.61595,0.640291 -0.61595,0.640291 0,0 -0.51082,0.04057 -0.6163,0.154164 -0.10513,0.113242 -0.21872,0.251178 -0.21872,0.251178 h -0.24307 l -0.0974,0.06491 h -0.89146 l -0.0487,0.0889 h -2.90195 v 0.227189 h 2.91818 l 0.0406,0.0568 h 0.76976 l -0.073,0.0889 h -1.29682 c 0,0 -0.0487,0.154164 0,0.154164 0.0487,0 1.2566,0.01623 1.2566,0.01623 l 0.1457,0.129469 -0.60467,0.605014 h -0.33866 v -0.343606 h -0.60396 v 0.343606 h -0.52176 v 0.196144 h -0.14746 v -0.146402 h -0.52246 v 0.146402 h -0.4893 l -0.27764,0.374298 h 0.32667 l -0.37535,0.670983 c 0,0 -0.0815,0 -0.29493,0.03246 -0.10795,0.01623 -0.18485,0.07796 -0.23636,0.162983 h -3.01131 v 0.375003 h 2.94287 c 0.0229,0.174977 0.10866,0.310444 0.10866,0.310444 l -0.48895,0.376061 h -0.53834 v 0.358775 l -0.28187,0.174978 c 0.013,-0.03528 0.0198,-0.07726 0.0198,-0.121003 0,-0.139347 -0.0737,-0.252589 -0.17886,-0.251883 v -0.04692 h -0.32667 v 0.419806 h -0.53023 v 0.317853 c -0.11818,-0.0011 -0.18944,-0.0025 -0.2092,-0.0042 -0.33478,-0.03175 -0.50094,0.06244 -0.81456,0.188384 -0.31362,0.125236 -0.77294,0.61595 -0.77294,0.61595 v 0.68968 h 0.39335 c -0.002,0.222956 0.0444,0.481542 0.14217,0.663222 0.17815,0.334081 2.09656,1.713442 2.67229,1.713442 h 12.20364 c 0.40711,0 2.64055,-1.103489 2.9584,-1.302103 0.38241,-0.239183 0.55457,-0.599722 0.56127,-0.9906 h 0.40781 z m -17.4558,2.140303 -0.0875,-0.0635 c 0.0395,0.006 0.0808,0.01023 0.12101,0.01199 z m 0.88512,0.436033 -0.0737,0.112184 c -0.0822,-0.05221 -0.16969,-0.10795 -0.25612,-0.166159 l 0.10196,-0.156986 -0.15417,-0.09913 -0.10019,0.154164 c -0.085,-0.0575 -0.16968,-0.115712 -0.25294,-0.17392 l 0.096,-0.147461 -0.0289,-0.01976 c 0.16863,-0.02293 0.32385,-0.08572 0.4572,-0.178858 l 0.054,0.06315 h 0.2212 c -0.0607,0.115711 -0.096,0.246945 -0.096,0.38735 0,0.07796 0.0113,0.154164 0.0318,0.225425 m 2.77495,0.318559 v 0.191205 h -0.30586 v -0.191205 h -0.18344 v 0.191205 h -0.30657 v -0.191205 h -0.18344 v 0.191205 h -0.62618 c 0.2674,-0.13723 0.44979,-0.414514 0.44979,-0.735189 l -0.002,-0.05292 h 1.0735 l -7.1e-4,0.05292 c 0,0.208139 0.0769,0.398286 0.20462,0.543984 z m 0.18415,0.191205 v -0.125236 c 0.054,0.04904 0.11501,0.09102 0.17992,0.125236 z m 1.95862,0 v -0.191205 h -0.18344 v 0.191205 h -0.30657 v -0.191205 h -0.18344 v 0.191205 l -0.30586,-0.02752 c 0.24095,-0.143934 0.40182,-0.406753 0.40182,-0.707673 0,-0.140405 -0.0342,-0.271639 -0.096,-0.38735 h 0.57397 c -0.0607,0.115711 -0.096,0.246945 -0.096,0.38735 0,0.320675 0.18274,0.597959 0.4498,0.735189 z m 2.87726,0 h -0.30621 v -0.191205 h -0.18309 v 0.191205 h -0.30586 v -0.191205 h -0.18415 v 0.191205 H 134.281 v -0.191205 h -0.18345 v 0.191205 h -0.30691 v -0.05821 c 0.21413,-0.149225 0.35383,-0.396875 0.35383,-0.676981 l -0.001,-0.05292 h 1.07351 l -0.002,0.05292 c 0,0.2794 0.13864,0.525286 0.35137,0.675217 z m 0.98002,0 h -0.13018 c 0.0452,-0.02399 0.09,-0.05221 0.13018,-0.08326 z m 0.67345,0 v -0.191205 h -0.18415 v 0.191205 h -0.30586 v -0.191205 h -0.0695 c 0.12771,-0.145698 0.20461,-0.335845 0.20461,-0.543984 0,-0.140405 -0.0342,-0.271639 -0.0949,-0.38735 h 0.51152 c -0.0617,0.115711 -0.097,0.246945 -0.097,0.38735 0,0.320675 0.18344,0.597959 0.45085,0.735189 z m 1.3469,0 h -0.18097 c 0.066,-0.03422 0.12594,-0.0762 0.18097,-0.125236 z m 1.46932,-0.191205 v 0.191205 h -0.30691 v -0.191205 h -0.1831 v 0.191205 h -0.30621 v -0.191205 h -0.18415 v 0.191205 h -0.30586 v -0.191205 h -0.11888 c 0.1277,-0.145698 0.20567,-0.335845 0.20567,-0.543984 l -0.003,-0.05292 h 1.0735 l -7.1e-4,0.05292 c 0,0.208139 0.0773,0.398286 0.20461,0.543984 z m 0.18309,0.191205 v -0.08819 c 0.043,0.03245 0.0875,0.06244 0.13653,0.08819 z m 2.66312,-0.879828 -0.079,-0.16898 -0.16616,0.07796 0.0797,0.17145 -0.27587,0.133703 -0.0815,-0.175684 -0.16616,0.07796 0.0815,0.174625 -0.27764,0.128764 -0.0815,-0.174978 -0.16616,0.07796 0.0804,0.172156 c -0.0967,0.04374 -0.19086,0.08431 -0.28081,0.122766 l -0.0635,-0.13723 c 0.0455,-0.102659 0.0709,-0.216606 0.0709,-0.335845 0,-0.140405 -0.0342,-0.271639 -0.0956,-0.38735 h 0.55069 l 0.36689,-0.462491 c 0.14217,0.283633 0.42298,0.48648 0.75388,0.517525 l 0.0229,0.05151 z"
       id="U-S-M3-Lee"
       style="stroke-width:0.352778" />
  </g>
</svg>
