<?xml version="1.0" encoding="UTF-8" standalone="no"?>
<!-- Created with Inkscape (http://www.inkscape.org/) -->

<svg
   width="11.471458mm"
   height="7.9045415mm"
   viewBox="0 0 11.471458 7.9045415"
   version="1.1"
   id="svg5570"
   sodipodi:docname="inkporter-svg-zgdocm6i.svg"
   xmlns:inkscape="http://www.inkscape.org/namespaces/inkscape"
   xmlns:sodipodi="http://sodipodi.sourceforge.net/DTD/sodipodi-0.dtd"
   xmlns="http://www.w3.org/2000/svg"
   xmlns:svg="http://www.w3.org/2000/svg">
  <sodipodi:namedview
     id="namedview5572"
     pagecolor="#ffffff"
     bordercolor="#666666"
     borderopacity="1.0"
     inkscape:pageshadow="2"
     inkscape:pageopacity="0.0"
     inkscape:pagecheckerboard="0"
     inkscape:document-units="mm"
     showgrid="false"
     inkscape:zoom="1.2810466"
     inkscape:cx="526.13231"
     inkscape:cy="1810.6289"
     inkscape:window-width="2400"
     inkscape:window-height="1271"
     inkscape:window-x="-9"
     inkscape:window-y="-9"
     inkscape:window-maximized="1"
     inkscape:current-layer="layer1"
     inkscape:snap-bbox="true"
     inkscape:snap-nodes="false"
     inkscape:snap-others="false"
     inkscape:bbox-paths="true"
     inkscape:bbox-nodes="true" />
  <defs
     id="defs5567" />
  <g
     inkscape:label="Layer 1"
     inkscape:groupmode="layer"
     id="layer1"
     transform="translate(-107.44558,-438.86174)">
    <path
       id="U-S-Jeep-AA"
       d="m 118.66515,438.86174 -0.12713,0.1669 -0.12817,0.12404 -0.0703,-0.0548 -0.0222,0.0279 0.0496,0.0729 -0.69866,0.72348 c 0,0 -0.25072,0.0225 -0.26871,0.0124 -0.0177,-0.005 -0.0451,0.0257 -0.0481,0.0356 -0.004,0.01 -0.0622,0.0127 -0.0925,0.0279 -0.0303,0.0151 -0.12816,0.12713 -0.12816,0.12713 l -0.0496,0.0103 0.0279,0.0661 0.0398,-0.0393 c 0,0 0.12837,-0.0499 0.15038,-0.0729 0.0206,-0.0251 0.0672,-0.0661 0.0672,-0.0661 h 0.0661 l 0.004,-0.0481 c 0,3e-5 0.0628,-0.01 0.0729,0 0.01,0.009 0.0372,0.0543 0.0372,0.0543 l -0.1292,0.14211 -0.0305,-0.0103 c 0,0 -0.24106,0.20153 -0.23307,0.20153 0.01,-0.003 0.0372,0.0279 0.0372,0.0279 h -0.0522 l -0.0734,0.0687 c 0,0 -0.11018,-0.0923 -0.12817,-0.21082 -0.0193,-0.11719 -0.0161,-0.23567 -0.0161,-0.23567 l -0.309,-0.0108 c 0,0 -0.0276,0.25201 0.0372,0.39534 0.0634,0.14189 0.17777,0.24958 0.17777,0.24958 l -0.0341,0.091 0.0151,0.045 -0.31832,0.30179 c 0,0 0.0372,0.0462 0.0372,0.0692 0,0.0241 -0.0191,0.0667 -0.0191,0.0667 0,0 -0.19826,0.24959 -0.20826,0.24959 -0.003,0 -0.0217,0.0159 -0.0336,0.0243 l -0.21291,-0.37981 -0.0169,0.108 v 0.076 c -0.12136,0.0746 -0.12107,0.0749 -0.14676,0.1106 -0.0257,0.0357 -0.0465,0.1452 -0.0465,0.1452 l -0.0506,0.12145 -0.11316,0.11625 -0.10697,0.13229 -0.24392,0.11732 -0.0863,-0.13592 -0.0842,-0.0537 -0.0687,-0.0925 v -0.0243 l 0.0429,-0.0377 0.0109,-0.0982 0.006,-0.003 0.0444,0.003 0.0434,-0.0212 0.0228,-0.0135 0.0169,-0.0352 -0.019,-0.11264 -0.003,-0.0465 0.0325,-0.0414 0.018,-0.0109 -0.10956,-0.11163 0.0185,-0.0238 -0.009,-0.004 0.13279,-0.0899 c 0.009,-0.003 0.0169,-0.009 0.0185,-0.0108 0,0 0,0 0,0 -0.004,0.003 -0.004,0.003 -0.0284,0.0103 h -0.0305 l -0.0403,-0.007 -0.03,-0.0233 -0.0175,-0.0244 -0.0383,-0.0574 -0.0439,-0.0491 -0.0579,-0.048 c -0.0145,-0.0209 -0.0143,-0.0209 -0.0646,-0.0346 -0.0504,-0.0138 -0.0363,-0.008 -0.0594,-0.0145 -0.0225,-0.007 -0.0858,-0.003 -0.0858,-0.003 l -0.0605,0.0124 -0.0646,0.0161 -0.0553,0.0289 -0.0434,0.0249 -0.0486,0.0346 c 0,0 -0.0322,0.0317 -0.0382,0.0377 -0.008,0.006 -0.0284,0.0475 -0.0284,0.0475 l -0.0161,0.0372 c 0,0 -0.003,0.01 -0.005,0.0146 -0.0212,0.0249 -0.0406,0.0532 -0.0486,0.0847 -0.0151,0.0551 -0.0103,0.12335 -0.008,0.14936 0.003,0.0259 0.003,0.0259 0.0341,0.13176 l 0.0418,0.10232 c 0,0 0.0736,0.0723 0.0445,0.0336 -0.0296,-0.04 -0.0293,-0.0399 0.0527,-0.0212 l 0.0217,0.0537 -0.0398,0.0667 c -0.0444,0.15788 -0.0445,0.15759 -0.0651,0.19119 -0.0217,0.0311 -0.0212,0.0311 -0.10697,0.13126 h -0.004 c 0.008,-0.0167 0.0169,-0.0367 0.0169,-0.0367 v -0.11059 c -0.0101,-0.11023 -0.0103,-0.11004 -0.018,-0.13486 -0.008,-0.0249 -0.029,-0.0894 -0.0636,-0.13489 -0.0193,-0.0262 -0.048,-0.0459 -0.077,-0.061 -0.004,-0.004 -0.01,-0.0109 -0.01,-0.0109 l -0.029,-0.029 c 0,0 -0.0348,-0.0303 -0.0444,-0.0331 -0.008,-0.003 -0.0496,-0.0206 -0.0496,-0.0206 l -0.0579,-0.014 -0.0496,-0.007 -0.062,-0.006 -0.0661,0.0103 -0.0605,0.0109 c 0,0 -0.0605,0.0193 -0.0786,0.0346 -0.0193,0.0138 -0.008,0.004 -0.0496,0.0356 -0.0413,0.0317 -0.0414,0.0315 -0.047,0.0563 l -0.0357,0.0661 -0.0222,0.062 -0.0135,0.0677 -0.007,0.0289 -0.0185,0.0331 -0.0346,0.0222 -0.0274,0.0124 h -0.0305 c -0.004,0 0.008,0.004 0.0201,0.004 l 0.15708,0.0336 -0.007,0.007 0.0259,0.0151 -0.0589,0.14467 0.0206,0.003 0.0455,0.0265 0.0151,0.0439 0.0249,0.11163 0.0289,0.0265 0.0269,0.004 0.048,0.003 0.0398,-0.019 h 0.007 l 0.047,0.0868 0.03,0.0108 c -0.0148,0.0462 -0.0318,0.13206 -0.0455,0.21238 l -0.008,0.0109 -0.0289,0.15865 -0.27027,-0.0164 -0.14883,-0.0827 -0.14882,-0.0651 -0.092,-0.0935 c 0,0 -0.061,-0.0939 -0.0982,-0.11729 -0.0372,-0.0233 -0.0372,-0.023 -0.17777,-0.0465 l -0.0284,-0.0703 -0.0568,-0.0941 -0.0109,0.0853 c -0.13054,-0.1262 -0.17036,-0.14583 -0.18708,-0.10234 -0.006,0.0161 0.0464,0.0793 0.17364,0.20879 l -0.0393,0.31265 0.0687,0.0289 0.17261,0.0109 -0.41031,0.41032 c -0.22556,0.22569 -0.41466,0.40544 -0.42066,0.39947 -0.006,-0.006 -0.0114,-0.10184 -0.0135,-0.21291 -0.003,-0.19074 -2e-5,-0.21643 0.0584,-0.46043 0.034,-0.14211 0.062,-0.26165 0.062,-0.26665 0,-0.005 0.0185,-0.004 0.0413,0 l 0.0413,0.009 0.0574,-0.24339 c 0.0316,-0.13393 0.0744,-0.31546 0.0951,-0.40307 0.0318,-0.13427 0.0434,-0.16147 0.0734,-0.1752 0.0514,-0.0236 0.0446,-0.0722 -0.0185,-0.1302 l -0.0542,-0.0496 0.0491,-0.21395 c 0.0268,-0.11771 0.0497,-0.21994 0.0506,-0.22894 0,-0.008 -0.0148,-0.0151 -0.0351,-0.0151 h -0.007 c -0.0312,0.005 -0.0469,0.07 -0.25736,0.9648 -0.1248,0.53073 -0.23172,0.98354 -0.2377,1.00613 -0.0209,0.0788 -0.0377,0.0401 -0.0377,-0.0863 0,-0.11817 0.003,-0.12711 0.0305,-0.12711 0.0292,0 0.0307,-0.008 0.0269,-0.22791 -0.004,-0.20328 -0.007,-0.22805 -0.0305,-0.23305 -0.0212,-0.004 -0.0269,0.006 -0.0269,0.0563 0,0.0516 -0.006,0.0633 -0.0372,0.0754 l -0.0372,0.0146 v 0.27337 0.27336 h -1.57044 -1.56993 l -0.005,-0.0388 c -0.004,-0.0379 -0.007,-0.0393 -0.10904,-0.0393 -0.10244,0 -0.10461,2e-5 -0.10956,0.0408 -0.004,0.0392 -0.008,0.0413 -0.0858,0.0413 h -0.0816 v 0.27493 c 0,0.26244 0.003,0.27519 0.03,0.28318 0.0369,0.0101 0.0389,0.0496 0.008,0.15142 -0.0298,0.0983 -0.0298,0.38283 0,0.4811 0.041,0.13514 0.0332,0.16676 -0.0682,0.27545 -0.0499,0.0535 -0.12102,0.14293 -0.15761,0.19844 l -0.0667,0.10075 h -0.2899 c -0.15957,0 -0.29207,-0.005 -0.29506,-0.0124 -0.003,-0.007 -0.0442,-0.0161 -0.0915,-0.0212 l -0.0858,-0.008 v 0.201 0.20103 h 0.0837 c 0.0711,0 0.0845,-0.005 0.0915,-0.03 0.005,-0.019 0.0204,-0.03 0.0419,-0.03 0.0281,0 0.0348,0.009 0.0408,0.0558 0.004,0.0309 0.003,0.0585 -0.006,0.0615 -0.0395,0.0156 -0.0583,0.0552 -0.0543,0.11266 0.004,0.0576 0.008,0.0613 0.0568,0.0703 0.056,0.01 0.17174,0.0638 0.18655,0.0878 0.005,0.008 0.0483,0.0214 0.0966,0.0315 l 0.0879,0.0175 0.0103,0.0692 c 0.0167,0.11205 0.0812,0.30157 0.13747,0.40516 0.19106,0.35176 0.52046,0.59301 0.91001,0.66662 h -0.003 c 0.66651,0.12594 1.33209,-0.30242 1.4924,-0.96068 0.0177,-0.0722 0.0401,-0.1361 0.0481,-0.14211 0.009,-0.006 0.0365,-0.007 0.062,-0.003 0.0342,0.006 0.0488,0.003 0.0558,-0.0156 0.005,-0.013 0.0257,-0.0238 0.046,-0.0238 0.0291,0 0.0373,0.008 0.0413,0.0408 0.004,0.0342 0.0116,0.0413 0.0496,0.0413 0.0417,0 0.0451,-0.004 0.0501,-0.0667 0.003,-0.0468 0.0151,-0.0764 0.0403,-0.0997 0.0196,-0.0183 0.04,-0.049 0.045,-0.0687 l 0.009,-0.0362 1.05421,-0.0175 c 0.57973,-0.0101 1.06421,-0.022 1.07643,-0.0269 0.0153,-0.006 0.0222,0.003 0.0222,0.0238 v 0.032 l 0.34779,-0.008 c 0.19129,-0.005 0.4772,-0.0116 0.63561,-0.0164 0.2563,-0.007 0.28784,-0.005 0.28784,0.0161 0,0.013 0.0164,0.0407 0.0367,0.061 0.0354,0.036 0.0443,0.0365 0.24339,0.0367 0.26842,0 0.27016,0 0.28165,0.0868 0.0283,0.21252 0.11731,0.45228 0.22788,0.61394 0.0691,0.10102 0.23929,0.26596 0.35192,0.34105 0.224,0.14915 0.50673,0.22529 0.78082,0.20929 0.18388,-0.0106 0.30742,-0.0414 0.46561,-0.11473 0.16433,-0.0761 0.27858,-0.15605 0.39687,-0.27903 0.21498,-0.22352 0.30682,-0.42537 0.36743,-0.80565 0.0119,-0.0742 0.013,-0.0742 0.0749,-0.0832 0.0617,-0.008 0.1124,-0.0489 0.13176,-0.10594 0.006,-0.019 0.0365,-0.0267 0.12817,-0.0357 0.10292,-0.009 0.12343,-0.0154 0.14314,-0.0455 0.0265,-0.0405 0.0159,-0.0895 -0.0238,-0.11057 -0.023,-0.0122 -0.0246,-0.0217 -0.0109,-0.0657 0.0156,-0.0498 0.0188,-0.0515 0.11419,-0.0605 0.0538,-0.005 0.16161,-0.01 0.23979,-0.01 0.0782,0 0.16754,-0.005 0.19844,-0.0103 l 0.0558,-0.009 v -0.17518 -0.17569 l 0.0827,-0.0775 c 0.0994,-0.0939 0.10758,-0.13592 0.0274,-0.13592 h -0.0543 l 0.0506,-0.0346 c 0.071,-0.0478 0.0939,-0.10383 0.091,-0.22273 -0.003,-0.0551 0.003,-0.10404 0.0124,-0.10904 0.0183,-0.0116 0.019,-0.20592 0,-0.22531 -0.008,-0.008 -0.0209,-0.41164 -0.031,-0.8971 -0.0191,-0.97912 -0.0159,-0.95197 -0.11988,-1.02217 -0.0489,-0.033 -0.0634,-0.035 -0.21706,-0.0289 -0.18582,0.007 -0.24419,0.0278 -0.293,0.10544 -0.0286,0.0451 -0.0308,0.0687 -0.0259,0.40719 l 0.005,0.35914 -0.10179,0.005 -0.10181,0.005 0.005,-0.20619 0.005,-0.20669 -0.0414,-0.005 c -0.0225,-0.003 -0.0408,0.003 -0.0408,0.0109 0,0.008 -0.0127,0.0161 -0.0279,0.0161 -0.0151,0 -0.0402,0.0138 -0.0558,0.031 -0.023,0.0257 -0.0291,0.0606 -0.0341,0.19325 l -0.006,0.16176 -0.1819,0.009 c 0,3e-5 -0.003,0 -0.003,0 0.004,-0.0243 0.009,-0.0458 0.0151,-0.0801 0.0225,-0.0433 0.0222,-0.0432 -0.0161,-0.1452 -0.0377,-0.10041 -0.0379,-0.1002 -0.1106,-0.0739 l -0.0418,-0.0414 -0.0992,0.16899 v -2.09238 l 0.0305,0.03 0.0925,0.0723 h 0.0894 v -0.0506 h -0.0744 l -0.0827,-0.0941 0.41342,-0.4563 c 0,0 0.0519,0.0209 0.0579,0.01 0.007,-0.0119 -0.003,-0.0729 -0.003,-0.0729 l 0.0527,-0.0661 0.003,-0.0517 0.10438,-0.0992 c 0,0 0.0704,-0.008 0.0858,-0.0362 0.0148,-0.027 0.0249,-0.0656 0.0249,-0.0656 0,0 0.0394,-0.038 0.0424,-0.061 0.003,-0.0249 -0.01,-0.051 -0.0222,-0.061 -0.0124,-0.006 -0.0398,-0.0212 -0.0398,-0.0212 l 0.019,-0.0372 0.40412,-0.41597 0.15812,-0.13489 z m -1.46296,1.88566 v 1.57665 c -0.008,-0.0156 -0.0108,-0.0132 -0.0169,-0.0222 -0.008,-0.0132 -0.008,-0.0138 -0.0687,0.014 l -0.0729,0.10282 -0.0517,0.12507 -0.0424,0.0532 -0.0279,0.0228 -0.076,0.0444 -0.10437,-0.0274 -0.062,-0.0315 -0.0326,-0.018 -0.0377,-0.10488 -0.0264,-0.0222 -0.0982,-0.0284 -0.41082,-0.16952 -0.0755,-0.006 -0.0858,-0.009 0.0734,-0.15607 0.062,-0.19482 0.19431,0.18759 c 0,0 0.0617,-0.0543 0.0729,-0.11731 0.0124,-0.063 0.0369,-0.12401 0.047,-0.12401 0.01,-0.003 0.11309,-0.054 0.13798,-0.076 0.0233,-0.0198 0.0548,0.0217 0.0672,0.01 0.0124,-0.0119 0.0357,-0.0548 0.0357,-0.0548 0,0 0.0622,-0.018 0.10488,-0.0481 0.0428,-0.03 0.12247,-0.0961 0.12247,-0.0961 l 0.0527,-0.0279 -0.0594,-0.0713 -0.0398,0.0408 c 0,0 -0.0852,0.0341 -0.13073,0.0801 -0.0454,0.0436 -0.0734,0.0532 -0.0858,0.0532 -0.0124,0.003 -0.12218,0.0331 -0.13229,0.0331 -0.008,-0.006 0.0376,-0.13899 0.13539,-0.25889 0.0978,-0.12121 0.20542,-0.23824 0.21341,-0.23824 0.01,-0.0119 0.10181,0 0.10181,0 l 0.15864,0.23824 0.11989,-0.13902 c 0,0 -0.14314,-0.14478 -0.14314,-0.16277 0,-0.018 0.10067,-0.088 0.0977,-0.12403 -0.003,-0.036 -0.0349,-0.0891 -0.0429,-0.0992 -0.004,-0.004 0.0576,-0.0762 0.12661,-0.15399 z m -2.79,1.23145 c 0.005,0 0.004,0.009 0,0.0233 l -0.032,-0.006 c 0.0151,-0.0101 0.0265,-0.0169 0.031,-0.0169 z m 1.37199,0.38912 -0.17571,0.48112 c -0.0728,-0.003 -0.11059,-0.007 -0.11935,-0.0164 -0.008,-0.008 -0.0161,-0.0145 -0.0269,-0.0185 0.0188,-0.0955 0.0188,-0.0955 0.0228,-0.14161 0.004,-0.0461 0.004,-0.0461 -0.0212,-0.17415 l 0.14314,-0.0465 z m -2.68925,0.41548 0.0331,0.0506 0.15608,0.18759 0.1266,0.11732 -0.076,0.0408 -0.0677,0.0346 -0.31676,0.3111 -0.0801,0.0636 -0.0164,0.0305 0.005,0.11162 -0.0233,0.0289 -0.0455,0.0522 -0.0656,0.0486 c 0.0349,-0.098 0.0688,-0.18632 0.078,-0.19637 0.0351,-0.0378 0.0355,-0.0571 0.004,-0.0889 -0.0159,-0.0159 -0.0372,-0.0214 -0.0605,-0.0156 -0.0225,0.006 -0.044,6e-5 -0.0584,-0.014 -0.0301,-0.0299 -0.0449,-0.0293 -0.0806,0.007 -0.0251,0.0249 -0.0267,0.0364 -0.0124,0.0677 0.0119,0.0262 0.008,0.081 -0.0161,0.23151 l -0.0563,-0.031 -0.0672,-0.0682 v -0.10697 l 0.16743,-0.19171 c 0.0919,-0.10549 0.18587,-0.19982 0.20876,-0.20982 0.023,-0.0101 0.0451,-0.0323 0.0491,-0.0486 0.0101,-0.0385 -0.0274,-0.0915 -0.0646,-0.0915 -0.0161,0 -0.0284,-0.004 -0.0284,-0.0103 0,-0.006 0.0723,-0.0832 0.16073,-0.17261 0.0774,-0.0778 0.11869,-0.11788 0.14674,-0.13799 z m 5.03227,0.0967 c 0.10173,0 0.10491,0 0.10491,0.0372 0,0.0365 -0.003,0.0372 -0.10491,0.0372 -0.10171,0 -0.1044,0 -0.1044,-0.0372 0,-0.0365 0.003,-0.0372 0.1044,-0.0372 z m -0.41291,0.0135 v 0 c 0.0996,0 0.0998,0.008 0.0998,0.0274 0,0.0254 -0.0114,0.0361 -0.20878,0.0445 0.005,-0.018 0.0103,-0.04 0.0164,-0.0713 0.0358,0 0.07,0 0.0935,0 z m -2.15696,0.0558 -0.0254,0.0206 -0.0114,-0.0175 c 0.008,0 0.0167,-0.003 0.0367,-0.003 z m 2.55952,0.0801 v 0 h 0.10904 l 0.0103,0.13695 c 0.005,0.0753 0.01,0.18661 0.01,0.24702 v 0.10956 h -0.0444 -0.045 v -0.20931 -0.20929 h -0.0749 c -0.0698,0 -0.0744,-0.003 -0.0744,-0.0377 0,-0.0363 0.003,-0.0372 0.10851,-0.0372 z m -0.3116,0.008 0.005,0.0336 c 0.003,0.0185 -0.004,0.0358 -0.0151,0.0398 -0.009,0.003 -0.1305,0.007 -0.27597,0.0109 0.0367,-0.0409 0.0516,-0.061 0.061,-0.0817 z m -5.07772,0.11213 h 0.003 c 0.0439,0 -0.0106,0.0863 -0.17106,0.27078 l -0.18243,0.21085 -0.003,0.0594 -0.0527,-0.0336 c -0.0662,-0.003 -0.066,-0.003 -0.0687,0.0124 -0.003,0.0138 -0.008,0.008 -0.008,0.0496 0,0.0413 0.008,0.0616 0.0164,0.0961 0.008,0.0358 0.0455,0.13229 0.0455,0.13229 l 0.0553,0.0972 -0.003,0.0496 -0.0393,-0.0424 c -0.068,-0.0727 -0.13279,-0.24074 -0.13279,-0.3452 0,-0.0238 0.51829,-0.55708 0.54157,-0.55708 z m 0.84852,0.0543 0.19534,0.0109 0.15036,-0.0109 c 0.0249,0.12816 0.0249,0.12814 0.0455,0.16949 0.0206,0.0413 0.0206,0.0411 0.0744,0.12248 l 0.006,0.11163 -0.0119,0.0589 -0.0579,-0.0175 z m -0.88366,0.44286 v 0 c 0.0106,-0.004 0.0185,0.008 0.0185,0.0294 0,0.0196 -0.0198,0.0927 -0.0439,0.16227 -0.005,0.014 -0.007,0.0212 -0.0114,0.032 l -0.0206,-0.003 c 0.0161,-0.12417 0.0391,-0.2141 0.0569,-0.22066 z m 5.47251,0.45268 h 0.045 0.0444 l 0.008,0.13229 c 0.008,0.1297 0.009,0.13364 0.0631,0.18346 l 0.0563,0.0506 h -0.11311 -0.11213 l 0.004,-0.18293 z m -4.8338,0.0579 v 0 h 0.0274 l -0.006,0.0377 h -0.10541 c 0.0175,-0.0135 0.054,-0.0388 0.0842,-0.0388 z m 5.26222,0.3824 -0.0103,0.0341 c -0.006,0.0185 -0.0233,0.0595 -0.0388,0.0904 l -0.0284,0.0558 h -0.17259 c -0.19243,0 -0.19148,0 -0.18346,-0.10697 l 0.005,-0.0651 0.21447,-0.004 z m -1.00407,0.50384 c 0.009,-2e-5 0.0241,0.003 0.047,0.007 0.0357,0.006 0.10694,0.0138 0.15864,0.014 0.0893,0 0.0972,0.004 0.14986,0.0584 0.0504,0.0524 0.0541,0.0622 0.0414,0.1044 -0.008,0.0254 -0.0225,0.0484 -0.0315,0.0527 -0.0101,0.004 -0.0845,0.0111 -0.1669,0.0169 l -0.14986,0.0103 -0.0243,-0.10232 c -0.0132,-0.0564 -0.0281,-0.11729 -0.0331,-0.13488 -0.006,-0.019 -0.006,-0.0262 0.009,-0.0265 z" />
  </g>
</svg>
