<?xml version="1.0" encoding="UTF-8" standalone="no"?>
<!-- Created with Inkscape (http://www.inkscape.org/) -->

<svg
   width="24.366402mm"
   height="8.6434498mm"
   viewBox="0 0 24.366402 8.6434498"
   version="1.1"
   id="svg8905"
   sodipodi:docname="inkporter-svg-ogq307qc.svg"
   xmlns:inkscape="http://www.inkscape.org/namespaces/inkscape"
   xmlns:sodipodi="http://sodipodi.sourceforge.net/DTD/sodipodi-0.dtd"
   xmlns="http://www.w3.org/2000/svg"
   xmlns:svg="http://www.w3.org/2000/svg">
  <sodipodi:namedview
     id="namedview8907"
     pagecolor="#ffffff"
     bordercolor="#666666"
     borderopacity="1.0"
     inkscape:pageshadow="2"
     inkscape:pageopacity="0.0"
     inkscape:pagecheckerboard="0"
     inkscape:document-units="mm"
     showgrid="false"
     inkscape:zoom="0.64052329"
     inkscape:cx="397.33138"
     inkscape:cy="561.25984"
     inkscape:window-width="1920"
     inkscape:window-height="1017"
     inkscape:window-x="-8"
     inkscape:window-y="-8"
     inkscape:window-maximized="1"
     inkscape:current-layer="layer1" />
  <defs
     id="defs8902" />
  <g
     inkscape:label="Layer 1"
     inkscape:groupmode="layer"
     id="layer1"
     transform="translate(-38.62487,-169.16923)">
    <path
       id="U-S-P47"
       d="m 61.35808,169.16923 c -0.3388,0.0103 -0.49377,0.19225 -0.6811,0.45064 -0.19981,0.27699 -1.7141,2.83496 -1.7141,2.83496 l -4.99401,-0.0827 -0.0274,-0.43977 -0.0372,-0.38446 -0.0925,-0.40103 -0.008,1.2237 -1.83811,-0.0305 c 0,0 -0.13817,-0.15124 -0.94155,-0.5674 -0.80891,-0.41892 -1.61213,-0.56087 -2.01591,-0.6036 -0.41342,-0.0441 -0.91517,-0.0114 -1.00201,0.0755 -0.10059,0.1006 -0.99475,0.89451 -0.99475,0.89451 0,0 -2.62776,0.0429 -3.02051,0.0429 -0.31004,0 -0.63286,0.0632 -0.93327,0.13899 v -0.11989 c -0.30178,0.0358 -2.34386,0.2744 -2.69388,0.35296 -0.11991,0.0276 -0.34867,0.11282 -0.38034,0.26302 v 0.99788 H 39.8072 v -0.32814 c 0,0 0.0455,-0.0167 0.0455,-0.0842 0,-0.0689 -0.16846,-3.25044 -0.25943,-3.25044 -0.091,0 -0.14467,3.16638 -0.14467,3.24218 0,0.0758 0.0372,0.0925 0.0372,0.0925 v 0.2744 c -0.2453,-0.0151 -0.86093,-0.0279 -0.86093,0.22841 0,0.27009 0.65559,0.25908 0.86093,0.24805 v 0.23977 c 0,0 -0.0372,0.0167 -0.0372,0.0925 0,0.0758 0.0537,3.24271 0.14467,3.24271 0.0909,0 0.25943,-3.18206 0.25943,-3.25096 0,-0.0675 -0.0455,-0.0842 -0.0455,-0.0842 v -0.34984 h 0.17624 v 0.36484 c 0,0 -0.0156,0.57912 -0.0156,1.09863 0,0.41478 0.55984,0.4985 0.86712,0.54673 0.15574,0.0249 0.3166,0.0455 0.46818,0.0703 0.60635,0.1006 3.29629,0.27731 4.20854,0.29247 0.91364,0.0138 1.7062,-0.0428 2.49857,-0.0718 0.79235,-0.0289 4.54493,-0.47834 5.18157,-0.56378 0.55261,-0.0758 1.12827,-0.0893 1.27022,-0.092 v -0.0992 l 0.68524,-0.0305 c 0,0 0.0563,0.0387 0.14727,0.0718 0.3321,0.12401 0.73313,0.0907 1.06659,-0.018 v -0.24648 l 0.54985,-0.13489 h 0.89866 v -0.15708 c 0,0 0.51932,-0.11319 1.20147,-0.25789 l 0.15037,0.2522 c -0.0882,0.0758 -0.14468,0.18878 -0.14468,0.31419 0,0.22874 0.18465,0.41341 0.41341,0.41341 0.22736,0 0.41185,-0.18467 0.41185,-0.41341 0,-0.22876 -0.18449,-0.41187 -0.41185,-0.41187 -0.0413,0 -0.0801,0.005 -0.11731,0.0164 l -0.1323,-0.20669 c 0.50023,-0.10472 1.06919,-0.22204 1.57769,-0.31988 1.29535,-0.2508 1.98456,-0.4508 2.17609,-0.86146 0.19293,-0.41479 -0.14314,-2.14146 -0.43667,-3.0303 v 0 c -0.2949,-0.89159 -0.69024,-1.47037 -1.06921,-1.48415 -0.0243,0 -0.0477,0 -0.0703,0 z m -12.94392,2.06759 c 0.32951,-0.006 1.05886,0.0151 1.74617,0.25993 1.10241,0.39274 1.69756,0.86145 1.69756,0.86145 0,0 -0.57594,0.0881 -1.34823,0.13383 -0.0387,-0.0368 -0.13513,-0.12279 -0.15971,-0.13539 -0.0298,-0.0161 -0.12694,-0.0262 -0.16742,-0.0109 -0.0417,0.0151 -0.0416,0.0148 -0.0858,0.0765 l -0.10851,-0.009 -0.16796,-0.20931 -0.12816,-0.0377 0.0103,-0.003 -0.0574,-0.0987 0.0294,-0.0372 h 0.0486 c -0.0103,-0.0175 -0.0103,-0.0177 -0.007,-0.0383 0.003,-0.0209 0.007,-0.022 0.0119,-0.0265 0.005,-0.006 0.0279,-0.0439 0.0279,-0.0439 l 0.0222,-0.0476 0.0119,-0.0398 c 0.005,-0.0286 0.005,-0.0288 0.0109,-0.0486 0.003,-0.0206 0.003,-0.0188 0.003,-0.0315 0,-0.0145 0,-0.0434 0,-0.0434 0,0 -0.005,-0.0418 -0.014,-0.0646 -0.008,-0.0225 -0.0243,-0.0589 -0.0243,-0.0589 l -0.0206,-0.0362 c 0,0 -0.0273,-0.0378 -0.0341,-0.0429 -0.008,-0.007 -0.0424,-0.0346 -0.0424,-0.0346 l -0.0527,-0.031 -0.046,-0.0201 -0.0605,-0.0206 -0.0666,-0.0114 -0.062,-0.005 c 0,0 -0.0644,1.1e-4 -0.0858,0.009 -0.0225,0.008 -0.008,0.003 -0.0574,0.0206 -0.0498,0.0198 -0.0625,0.0387 -0.0625,0.0387 l -0.0542,0.0527 -0.0377,0.0553 -0.0331,0.0589 -0.013,0.0265 -0.0295,0.0259 -0.0398,0.0103 -0.0305,0.006 c -0.0251,-0.007 -0.0251,-0.007 -0.0289,-0.009 0.003,0 0.009,0.007 0.0185,0.01 l 0.16745,0.0899 -0.10853,0.13436 0.0169,0.008 0.0377,0.0388 0.003,0.0465 -0.006,0.11266 0.0201,0.0336 0.0249,0.0103 0.0465,0.0169 0.0444,-0.004 0.061,0.018 0.0103,0.0362 -0.0124,0.008 -0.0568,0.0935 -0.0569,0.12092 -0.0135,0.0532 c -0.25779,-0.0124 -0.51491,-0.0343 -0.76121,-0.0703 l -0.0455,-1.19475 c 0.0295,-0.003 0.0687,-0.003 0.11575,-0.004 z m -0.26459,0.0853 0.0414,1.08829 c -0.34314,-0.0593 -0.66146,-0.14711 -0.92604,-0.27387 z" />
  </g>
</svg>
