<?xml version="1.0" encoding="UTF-8" standalone="no"?>
<!-- Created with Inkscape (http://www.inkscape.org/) -->

<svg
   width="25.0005mm"
   height="6.68576mm"
   viewBox="0 0 25.0005 6.68576"
   version="1.1"
   id="svg5570"
   sodipodi:docname="inkporter-svg-7qtb6ioa.svg"
   xmlns:inkscape="http://www.inkscape.org/namespaces/inkscape"
   xmlns:sodipodi="http://sodipodi.sourceforge.net/DTD/sodipodi-0.dtd"
   xmlns="http://www.w3.org/2000/svg"
   xmlns:svg="http://www.w3.org/2000/svg">
  <sodipodi:namedview
     id="namedview5572"
     pagecolor="#ffffff"
     bordercolor="#666666"
     borderopacity="1.0"
     inkscape:pageshadow="2"
     inkscape:pageopacity="0.0"
     inkscape:pagecheckerboard="0"
     inkscape:document-units="mm"
     showgrid="false"
     inkscape:zoom="1.2810466"
     inkscape:cx="526.13231"
     inkscape:cy="1810.6289"
     inkscape:window-width="2400"
     inkscape:window-height="1271"
     inkscape:window-x="-9"
     inkscape:window-y="-9"
     inkscape:window-maximized="1"
     inkscape:current-layer="layer1"
     inkscape:snap-bbox="true"
     inkscape:snap-nodes="false"
     inkscape:snap-others="false"
     inkscape:bbox-paths="true"
     inkscape:bbox-nodes="true" />
  <defs
     id="defs5567" />
  <g
     inkscape:label="Layer 1"
     inkscape:groupmode="layer"
     id="layer1"
     transform="translate(-179.16595,-405.18702)">
    <path
       d="m 204.16234,407.43598 c -0.0345,-1.11346 -1.30638,-2.24896 -1.98162,-2.24896 -0.78686,0 -0.81166,0.5209 -2.16076,2.26274 -0.48232,0.62425 -0.50437,0.47542 -1.34221,0.43132 -0.40101,-0.022 -5.09874,-0.40789 -5.09874,-0.40789 v -0.53468 c 0,0 -0.11163,-0.83923 -0.11852,-0.91364 -0.008,-0.073 -0.0593,-0.0441 -0.0593,-0.0661 0,-0.0221 -0.0372,1.47726 -0.0372,1.47726 l -2.24896,-0.0524 -0.022,-0.0813 h -0.0593 l -0.008,0.0289 -0.91916,-0.0248 v -0.0344 c 0,-0.0248 -0.11988,0 -0.11988,0 v 0.0317 l -0.79651,-0.0207 v -0.011 l -0.0758,-0.006 c 0,-0.01 10e-4,-0.0152 10e-4,-0.0193 0.0152,-0.0593 -0.0496,-0.10336 -0.0689,-0.10336 -0.0193,0 -0.12402,0.13367 -0.12402,0.13367 l -1.35874,0.81166 h -1.644 c 0,0 -0.95774,-0.12677 -2.11529,-0.11988 -1.15755,0.008 -2.56729,0.20808 -2.56729,0.20808 v 0.19291 c 0,0 -0.75792,0.20808 -1.03215,0.30454 -0.27423,0.0965 -1.03904,0.49748 -1.03904,0.58567 0,0.0896 0.57878,0.39412 1.01699,0.61598 0.43822,0.22325 1.45521,0.43133 1.45521,0.43133 v 0.94258 c 0,0 0.56362,0.62287 1.9954,0.62287 1.43316,0 2.1084,-0.31833 2.1084,-0.31833 0,0 0.13367,0.0372 0.30455,0.051 0.1695,0.0152 0.99356,0.0303 0.99356,0.0303 l 0.0372,-0.0813 0.11851,0.0593 c 0,0 1.41111,-0.008 2.67202,-0.11989 1.26228,-0.11025 3.4506,-0.38585 3.4506,-0.38585 l 0.0303,-0.073 c 0,0 0.18603,-0.0152 0.26734,-0.0372 0.0813,-0.022 0.14056,0.0289 0.18465,0.0221 0.0455,-0.008 0.50574,-0.24529 0.50574,-0.24529 l -0.0234,-0.14883 c 0,0 7.77351,-1.07073 8.61687,-1.25401 1.12861,-0.24391 1.29811,-0.72761 1.26228,-1.93615 m -15.14464,1.05283 h -0.24804 c -0.40377,0 -0.84474,-0.21635 -1.04869,-0.33073 0.26734,-0.17088 1.01975,-0.65044 1.08865,-0.7028 0.0841,-0.0648 0.20257,-0.0937 0.21222,-0.0786 0.008,0.0124 -0.001,0.86127 -0.004,1.11208 m 0.95498,-0.0386 -0.65594,-0.0275 -0.0772,-0.0813 v -0.61322 c 0,0 0.0345,-0.0441 0.0648,-0.0799 h 0.66835 z m 0.0138,-0.90124 -0.73726,-0.004 -0.0634,-0.0992 0.003,-0.11852 0.79789,0.0207 z m 0.73587,0.40653 0.04,-0.001 c -0.01,-0.0152 -0.01,-0.0152 -0.008,-0.0317 0.001,-0.0179 0.006,-0.0193 0.008,-0.0234 0.004,-0.004 0.0207,-0.0372 0.0207,-0.0372 l 0.0165,-0.0413 0.007,-0.0331 c 0.004,-0.0248 0.004,-0.0248 0.007,-0.0413 0.003,-0.0165 0.003,-0.0152 10e-4,-0.0276 -10e-4,-0.011 -0.003,-0.0344 -0.003,-0.0344 0,0 -0.006,-0.0317 -0.0138,-0.051 h 0.0193 c 0,0 0.062,0.0868 0.10335,0.14331 l -0.0758,0.31693 -0.0992,-0.0234 0.007,-0.003 -0.0524,-0.0786 z m -0.61599,-0.60359 0.90951,0.0234 -0.0234,0.0978 -0.14469,0.0717 h -0.1006 c -0.007,-0.01 -0.0193,-0.0234 -0.0221,-0.0248 -0.007,-0.004 -0.0386,-0.0262 -0.0386,-0.0262 l -0.0441,-0.0221 -0.0386,-0.0138 -0.051,-0.0166 -0.0551,-0.005 -0.0524,-10e-4 c 0,0 -0.0524,0.005 -0.0703,0.0138 -0.0179,0.008 -0.007,10e-4 -0.0469,0.0207 -0.04,0.0179 -0.0482,0.0358 -0.0482,0.0358 l -0.0358,0.04 h -0.13781 z m 0,0.28113 h 0.0868 l -0.008,0.0179 -0.0262,0.0799 0.0717,0.0496 -0.0827,0.11851 0.0165,0.006 0.0317,0.0303 0.004,0.0386 0.001,0.0951 0.0179,0.0262 0.0207,0.007 0.04,0.011 0.0357,-0.007 0.0524,0.0124 0.01,0.0289 -0.011,0.008 -0.04,0.0813 -0.04,0.10198 -0.0179,0.0937 -0.003,0.0165 -0.15985,-0.01 z m 0,0"
       id="U-S-Warhawk" />
  </g>
</svg>
