<?xml version="1.0" encoding="UTF-8" standalone="no"?>
<svg
   class="svg-icon"
   style="overflow:hidden;fill:currentColor"
   viewBox="0 0 15.0018 15.000003"
   version="1.1"
   id="svg1"
   sodipodi:docname="update.svg"
   width="15.0018"
   height="15.000003"
   inkscape:version="1.4 (e7c3feb100, 2024-10-09)"
   xmlns:inkscape="http://www.inkscape.org/namespaces/inkscape"
   xmlns:sodipodi="http://sodipodi.sourceforge.net/DTD/sodipodi-0.dtd"
   xmlns="http://www.w3.org/2000/svg"
   xmlns:svg="http://www.w3.org/2000/svg">
  <defs
     id="defs1" />
  <sodipodi:namedview
     id="namedview1"
     pagecolor="#ffffff"
     bordercolor="#000000"
     borderopacity="0.25"
     inkscape:showpageshadow="2"
     inkscape:pageopacity="0.0"
     inkscape:pagecheckerboard="0"
     inkscape:deskcolor="#d1d1d1"
     inkscape:zoom="14.033786"
     inkscape:cx="10.795376"
     inkscape:cy="18.740488"
     inkscape:window-width="2560"
     inkscape:window-height="1368"
     inkscape:window-x="0"
     inkscape:window-y="0"
     inkscape:window-maximized="1"
     inkscape:current-layer="svg1" />
  <path
     d="m 10.96604,5.19231 a 0.57692298,0.57692298 0 0 0 0.57693,0.57692 h 2.88191 A 0.57692298,0.57692298 0 0 0 15.0018,5.19231 V 2.307692 a 0.576925,0.576925 0 0 0 -1.15385,0 v 1.20649 C 12.48678,1.357392 10.07993,0 7.5,0 3.364723,0 0,3.364543 0,7.5 0,11.63545 3.364723,15 7.5,15 a 7.4940492,7.4940492 0 0 0 7.45168,-6.64183 l 0.008,-0.0761 A 0.57692298,0.57692298 0 0 0 14.44965,7.64421 c -0.30757,-0.0281 -0.60217,0.19273 -0.63714,0.50986 l -0.008,0.0744 A 6.3403835,6.3403835 0 0 1 7.5,13.84615 c -3.499219,0 -6.346154,-2.84693 -6.346154,-6.34615 0,-3.49922 2.846935,-6.346154 6.346154,-6.346154 2.37151,0 4.57211,1.355048 5.65042,3.461534 h -1.60745 a 0.57692298,0.57692298 0 0 0 -0.57693,0.57693 z"
     id="path1"
     style="stroke-width:0.0180288" />
</svg>
