<?xml version="1.0" encoding="UTF-8" standalone="no"?>
<!-- Created with Inkscape (http://www.inkscape.org/) -->

<svg
   width="22.42635mm"
   height="10.629405mm"
   viewBox="0 0 22.42635 10.629405"
   version="1.1"
   id="svg5"
   sodipodi:docname="inkporter-svg-tafrv0cz.svg"
   xmlns:inkscape="http://www.inkscape.org/namespaces/inkscape"
   xmlns:sodipodi="http://sodipodi.sourceforge.net/DTD/sodipodi-0.dtd"
   xmlns="http://www.w3.org/2000/svg"
   xmlns:svg="http://www.w3.org/2000/svg">
  <sodipodi:namedview
     id="namedview7"
     pagecolor="#ffffff"
     bordercolor="#666666"
     borderopacity="1.0"
     inkscape:pageshadow="2"
     inkscape:pageopacity="0.0"
     inkscape:pagecheckerboard="0"
     inkscape:document-units="mm"
     showgrid="false"
     inkscape:zoom="0.32026164"
     inkscape:cx="193.59171"
     inkscape:cy="326.29571"
     inkscape:window-width="1920"
     inkscape:window-height="1017"
     inkscape:window-x="-8"
     inkscape:window-y="-8"
     inkscape:window-maximized="1"
     inkscape:current-layer="layer1" />
  <defs
     id="defs2" />
  <g
     inkscape:label="Layer 1"
     inkscape:groupmode="layer"
     id="layer1"
     transform="translate(126.01527,52.181517)">
    <path
       d="m -120.30145,-41.60911 c 0,-0.0683 -0.0448,-0.0749 -0.10426,-0.0154 l -0.0425,0.0425 -0.13877,-0.0502 c -0.0763,-0.0276 -0.1479,-0.0789 -0.15907,-0.11421 -0.014,-0.044 -0.0498,-0.0584 -0.11472,-0.0459 -0.0678,0.013 -0.12582,-0.0134 -0.20642,-0.094 -0.0616,-0.0616 -0.13106,-0.10577 -0.1543,-0.098 -0.0643,0.0214 -0.31517,-0.19452 -0.31517,-0.27128 0,-0.0439 -0.0303,-0.0679 -0.0869,-0.0687 -0.0917,-8.3e-4 -0.29915,-0.15979 -0.29915,-0.2285 0,-0.0222 -0.0267,-0.0405 -0.0595,-0.0405 -0.10829,0 -0.28792,-0.16362 -0.28792,-0.26227 v -0.0934 l -0.0642,0.0246 c -0.0906,0.0348 -0.28319,-0.15868 -0.28319,-0.28461 0,-0.0654 -0.0292,-0.11245 -0.0853,-0.13752 -0.0469,-0.0209 -0.11825,-0.0949 -0.15843,-0.16438 l -0.0731,-0.12627 0.0451,-0.0545 0.0451,-0.0545 -0.0797,-0.0427 -0.0797,-0.0427 v -0.19524 -0.19524 l 0.0828,-0.0217 0.0828,-0.0217 -0.07,-0.0512 -0.07,-0.0512 0.0471,-0.15719 c 0.026,-0.0865 0.0722,-0.16496 0.10287,-0.17445 0.0308,-0.0101 0.0826,-0.0257 0.11535,-0.0361 l 0.0596,-0.0188 -0.0454,-0.0848 -0.0454,-0.0848 0.0866,-0.0701 0.0866,-0.0701 h -0.0599 c -0.10186,0 -0.0561,-0.15698 0.075,-0.25696 0.22534,-0.17188 0.82544,-0.32201 1.28715,-0.32201 0.0972,0 0.15525,-0.0203 0.17026,-0.0594 0.0351,-0.0914 -0.13407,-0.32125 -0.24612,-0.33448 -0.11358,-0.0134 -0.15934,-0.17079 -0.0606,-0.20867 0.0333,-0.0129 0.0606,-0.0629 0.0606,-0.11145 0,-0.073 0.0635,-0.13509 0.13825,-0.13509 0.009,0 0.0161,0.0521 0.0161,0.11573 v 0.11573 h 0.1544 c 0.16778,0 0.18138,-0.0189 0.0953,-0.13281 -0.0313,-0.0412 -0.0566,-0.14048 -0.0566,-0.22059 v -0.14568 l 0.11976,-0.13643 c 0.14145,-0.1611 0.22759,-0.17622 0.22759,-0.04 0,0.059 -0.0219,0.0965 -0.0566,0.0965 -0.13709,0 -0.17616,0.25256 -0.0605,0.39134 l 0.0759,0.0911 8.3e-4,-0.0648 c 7.8e-4,-0.0357 0.0248,-0.0883 0.0534,-0.11699 0.0287,-0.0287 0.0504,-0.0951 0.0483,-0.1475 l -0.004,-0.0953 0.0964,-0.0129 c 0.0531,-0.008 0.11296,-0.0289 0.13315,-0.0483 0.0202,-0.0194 0.0972,-0.0354 0.1713,-0.0354 h 0.13461 l 0.35434,-0.33772 c 0.41859,-0.39898 0.66797,-0.59647 0.71586,-0.56687 0.0571,0.0353 0.0392,0.12612 -0.0329,0.16815 l -0.0676,0.0393 0.17369,3.9e-4 c 0.28378,8.4e-4 0.32968,-0.0242 0.36949,-0.20364 l 0.0358,-0.16133 h 0.17975 c 0.0988,0 0.17,-0.0158 0.15811,-0.0348 -0.0388,-0.0627 0.43689,0.005 0.6267,0.0886 0.19101,0.0845 0.3857,0.10628 0.4222,0.0471 0.0266,-0.0431 -0.0521,-0.27462 -0.0934,-0.27462 -0.0169,0 -0.0407,0.026 -0.053,0.0579 -0.0566,0.14769 -0.24929,-0.0137 -0.33682,-0.28225 -0.0608,-0.18657 -0.0851,-0.19894 -0.39223,-0.19962 l -0.26053,-7.8e-4 v -0.0523 -0.0523 l -3.47782,-0.0285 c -2.50342,-0.0205 -3.48965,-0.0168 -3.52009,0.0137 -0.0246,0.0246 -0.19259,0.0422 -0.40121,0.0422 h -0.35896 v -0.29331 -0.29332 l 0.35703,0.0273 c 0.46644,0.0358 2.44145,0.043 5.19134,0.0189 l 2.20971,-0.0193 v -0.0869 -0.0869 h 0.2316 0.23157 v -0.0929 c 0,-0.0513 0.0113,-0.1214 0.024,-0.15583 0.0566,-0.14749 0.48215,-0.25795 0.61288,-0.15906 0.18429,0.13939 0.41969,0.0391 0.32471,-0.13843 l -0.0417,-0.0779 0.0471,-0.11384 c 0.0889,-0.21441 0.27885,-0.2463 0.46684,-0.0784 l 0.12279,0.10967 0.18705,-0.0711 c 0.12834,-0.0488 0.28992,-0.0711 0.51473,-0.0711 h 0.32766 v -0.0493 c 0,-0.0343 -0.0475,-0.0448 -0.15688,-0.0343 l -0.15689,0.015 -0.0213,-0.0814 -0.0213,-0.0816 h -0.11131 c -0.0613,0 -0.14604,-0.0348 -0.1885,-0.0771 -0.0425,-0.0425 -0.10325,-0.0772 -0.13508,-0.0772 -0.074,0 -0.0888,-0.12379 -0.0424,-0.35703 l 0.0212,-0.10614 h -0.82887 -0.82888 v -0.11573 -0.11573 h 0.82984 0.82984 v -0.0553 -0.0553 l 0.36354,0.0182 c 0.2288,0.0113 0.37267,0.004 0.38824,-0.0219 0.0136,-0.0219 0.0748,-0.04 0.13597,-0.04 0.0611,0 0.1219,-0.0174 0.13509,-0.0386 0.0431,-0.0698 0.21228,-0.0451 0.21228,0.0309 0,0.0874 0.0727,0.16211 0.15773,0.16211 0.0635,0 0.10514,0.11635 0.12393,0.34632 0.0113,0.1369 -0.11611,0.15539 -0.14971,0.0217 l -0.0251,-0.10023 -0.0823,0.0253 c -0.11409,0.0351 -0.11939,0.0442 -0.0638,0.11119 l 0.0488,0.0589 -0.0529,0.0642 -0.053,0.0642 0.0483,0.0163 c 0.0953,0.0322 0.0456,0.087 -0.0787,0.087 -0.0698,0 -0.19306,0.0337 -0.27391,0.075 l -0.14695,0.075 0.18685,0.0113 0.18686,0.0114 0.0209,0.11586 0.0209,0.11585 0.027,-0.0964 c 0.0445,-0.15951 0.0342,-0.23151 -0.0299,-0.20695 -0.0319,0.0126 -0.0579,0.003 -0.0579,-0.0222 0,-0.0305 0.088,-0.0408 0.27983,-0.0331 l 0.27982,0.0113 0.0381,0.0869 c 0.0209,0.0478 0.0687,0.0869 0.10614,0.0869 h 0.0681 v -0.2872 c 0,-0.15796 0.0174,-0.29793 0.0386,-0.31106 0.0212,-0.0131 0.0386,-0.0923 0.0386,-0.17596 0,-0.10943 0.0163,-0.15211 0.0579,-0.15211 h 0.0579 v 0.21228 c 0,0.11674 -0.0174,0.21228 -0.0386,0.21228 -0.0212,0 -0.0386,0.0439 -0.0386,0.0973 v 0.0974 l 0.094,-0.0616 c 0.0518,-0.0339 0.12557,-0.0576 0.16404,-0.0527 0.0993,0.0126 0.28016,-0.0686 0.30669,-0.1377 l 0.0224,-0.0585 h 0.59314 0.59314 l 0.0588,0.11371 0.0589,0.11371 0.18253,0.0113 0.18252,0.0113 0.0434,0.0875 c 0.0721,0.14538 0.0935,0.14449 0.0935,-0.004 v -0.14152 h -0.19298 -0.19298 v -0.0773 -0.0772 h 0.19298 0.19298 v -0.23159 c 0,-0.12865 -0.0171,-0.23158 -0.0386,-0.23158 -0.056,0 -0.0475,-0.14496 0.0101,-0.1642 l 0.0483,-0.0163 -0.0476,-0.0577 -0.0476,-0.0577 -0.24085,0.0495 -0.24084,0.0497 -0.062,-0.0561 c -0.0714,-0.0645 -0.4433,-0.0775 -0.48082,-0.0168 -0.0134,0.0216 -0.0407,0.0291 -0.0608,0.0166 -0.0202,-0.0126 -0.0272,-0.0376 -0.016,-0.056 0.0113,-0.0183 -0.0275,-0.0388 -0.0862,-0.0456 l -0.10678,-0.0126 -0.0126,-0.16928 c -0.006,-0.0932 0.006,-0.18795 0.0294,-0.21079 0.0542,-0.0542 2.08639,-0.0488 2.12046,0.006 0.0132,0.0212 0.32392,0.0477 0.69919,0.0599 0.37151,0.0126 1.06191,0.0339 1.53425,0.0487 l 0.85879,0.0267 v 0.0905 0.0905 h -1.02283 c -0.56257,0 -1.02283,0.0147 -1.02283,0.033 0,0.0181 -0.21598,0.0339 -0.47994,0.0352 -0.26398,8.3e-4 -0.51582,0.0136 -0.55968,0.0275 l -0.0797,0.0253 v 0.16247 0.16246 l -0.15268,-0.0145 -0.15268,-0.0145 -0.0267,0.1064 -0.0267,0.1064 0.071,0.0519 0.071,0.0519 h -0.0653 c -0.0359,0 -0.0652,0.0174 -0.0652,0.0386 0,0.0212 0.0174,0.0386 0.0386,0.0386 0.0212,0 0.0386,0.0348 0.0386,0.0772 0,0.0425 -0.0174,0.0772 -0.0386,0.0772 -0.0224,0 -0.0386,0.12701 -0.0386,0.30383 v 0.30382 l 0.50454,0.0279 c 0.2775,0.0152 0.51067,0.0218 0.51813,0.0144 0.008,-0.008 0.0261,-0.28756 0.0415,-0.62241 0.0256,-0.56102 0.0519,-0.70538 0.11106,-0.60977 0.0126,0.02 0.0241,0.30694 0.0258,0.63749 l 0.004,0.60097 0.0829,2.9e-4 c 0.0456,1.4e-4 0.13271,0.0262 0.19351,0.0579 0.0608,0.0316 0.17371,0.0576 0.25088,0.0574 l 0.14033,-3e-4 0.0869,-0.12757 c 0.0478,-0.0701 0.0869,-0.14495 0.0869,-0.1662 0,-0.0596 0.20914,-0.24607 0.27597,-0.24607 0.0891,0 0.17863,0.11964 0.19263,0.2576 l 0.0126,0.12254 -0.10022,0.0788 c -0.0551,0.0434 -0.12203,0.13151 -0.14869,0.19592 l -0.0485,0.11711 h -0.21021 -0.21024 l 0.0824,0.11573 0.0824,0.11586 h 0.13246 c 0.0853,0 0.12903,-0.0172 0.12279,-0.0483 -0.006,-0.0316 0.05,-0.0519 0.16403,-0.0591 l 0.1737,-0.0113 0.0483,0.10539 c 0.0944,0.20613 0.0777,0.21766 -0.38599,0.26521 l -0.26053,0.0267 v 0.10363 c 0,0.14006 -0.0659,0.19621 -0.23047,0.19621 h -0.13785 l -0.40446,0.35301 c -0.8421,0.735 -0.90571,0.80491 -0.73252,0.80491 0.0497,0 0.0771,0.0257 0.0771,0.0722 v 0.0722 l 0.24124,0.0266 c 0.13269,0.0146 0.27797,0.0356 0.32284,0.0464 0.10628,0.0258 0.12975,-0.0334 0.19036,-0.4808 0.0553,-0.40907 0.0499,-0.39833 0.20959,-0.41089 0.0654,-0.005 0.15875,-0.0466 0.20723,-0.0922 0.0921,-0.0866 0.23017,-0.10237 0.50286,-0.0572 l 0.1495,0.0247 -0.0189,0.2649 -0.019,0.26492 0.0944,0.0237 c 0.0519,0.0131 0.19293,0.009 0.31332,-0.009 0.47773,-0.07 0.69129,-0.0387 0.90702,0.1327 0.17484,0.13895 1.06803,0.37268 1.06803,0.27949 0,-0.0824 0.23925,-0.16763 0.41524,-0.14779 l 0.17088,0.0192 0.15064,0.1471 c 0.0828,0.0808 0.16058,0.17839 0.17272,0.21663 0.0126,0.0383 0.0436,0.0696 0.0701,0.0696 0.0265,0 0.11649,0.033 0.20005,0.0732 0.0836,0.0403 0.28225,0.11207 0.44145,0.15939 0.34307,0.10211 0.36789,0.12001 0.31126,0.2259 l -0.0432,0.0808 0.26165,0.1665 c 0.1439,0.0915 0.40494,0.25055 0.58007,0.35334 0.17513,0.10274 0.31844,0.19367 0.31844,0.202 0,0.0292 -0.13371,0.22501 -0.17281,0.25308 -0.0217,0.0156 -0.0794,0.0286 -0.12807,0.029 l -0.0886,7.7e-4 0.0253,0.13509 c 0.0174,0.0925 0.0113,0.13509 -0.0203,0.13509 -0.0269,0 -0.0405,0.0425 -0.0332,0.10274 l 0.0126,0.10275 -0.17368,0.0569 c -0.0956,0.0313 -0.18,0.0623 -0.18772,0.0688 -0.008,0.006 0.0237,0.13882 0.0698,0.29384 0.0461,0.15504 0.0924,0.31125 0.10274,0.34713 l 0.0189,0.0652 -0.16592,0.0126 -0.1659,0.0126 -0.0113,0.20264 c -0.009,0.14577 -0.0274,0.20264 -0.0676,0.20264 -0.0381,0 -0.056,0.0429 -0.056,0.13509 0,0.0743 -0.0174,0.1351 -0.0386,0.1351 -0.0212,0 -0.0386,0.085 -0.0386,0.18886 0,0.13226 -0.0174,0.19551 -0.0579,0.21107 -0.0366,0.014 -0.0579,0.0732 -0.0579,0.16043 0,0.18292 -0.0971,0.36597 -0.19399,0.36597 h -0.0761 v 0.0959 0.0959 l -0.14474,0.0644 c -0.0797,0.0354 -0.15994,0.061 -0.17851,0.0569 -0.0185,-0.004 -0.062,0.0166 -0.0964,0.0463 -0.0345,0.0296 -0.12178,0.0824 -0.19394,0.11737 l -0.13123,0.0634 -0.0521,-0.0432 -0.0521,-0.0432 v 0.0743 c 0,0.0993 -0.30433,0.25187 -0.39799,0.19945 l -0.0652,-0.0364 v 0.0773 c 0,0.0548 -0.0519,0.10035 -0.17912,0.15652 l -0.17911,0.0792 -0.0525,-0.0435 -0.0524,-0.0436 v 0.0743 c 0,0.0494 -0.0563,0.10161 -0.16883,0.15625 l -0.16884,0.0821 -0.0434,-0.0434 -0.0434,-0.0434 v 0.0634 c 0,0.15544 -0.39858,0.26139 -0.43657,0.11611 l -0.0177,-0.0676 -0.004,0.0676 -0.004,0.0676 h -0.20457 c -0.11245,0 -0.22758,-0.0217 -0.2557,-0.0483 l -0.0512,-0.0483 -0.0177,0.0483 c -0.0231,0.0629 -0.40418,0.0644 -0.46671,10e-4 l -0.0464,-0.0464 v 0.0464 c 0,0.0303 -0.0712,0.0463 -0.20455,0.0463 -0.11245,0 -0.22541,-0.0209 -0.25089,-0.0463 l -0.0464,-0.0464 v 0.0464 c 0,0.0309 -0.0771,0.0463 -0.23158,0.0463 -0.15438,0 -0.23159,-0.0155 -0.23159,-0.0463 v -0.0464 l -0.0464,0.0464 c -0.0619,0.0619 -0.45544,0.0619 -0.45544,0 v -0.0464 l -0.0464,0.0464 c -0.0255,0.0255 -0.13489,0.0463 -0.24316,0.0463 -0.10829,0 -0.21769,-0.0209 -0.24316,-0.0463 l -0.0463,-0.0464 v 0.0464 c 0,0.0594 -0.39229,0.0632 -0.4511,0.004 l -0.042,-0.042 -0.026,0.042 c -0.0352,0.0569 -0.41903,0.0534 -0.47682,-0.004 l -0.0464,-0.0464 v 0.0464 c 0,0.0303 -0.0712,0.0463 -0.20458,0.0463 -0.11245,0 -0.22541,-0.0209 -0.25087,-0.0463 l -0.0464,-0.0464 v 0.0464 c 0,0.0594 -0.39228,0.0632 -0.45109,0.004 l -0.042,-0.042 -0.026,0.042 c -0.0142,0.0231 -0.10829,0.042 -0.20892,0.042 -0.10061,0 -0.20187,-0.0189 -0.22496,-0.042 l -0.042,-0.042 -0.026,0.042 c -0.0352,0.0569 -0.41903,0.0534 -0.47682,-0.004 l -0.0464,-0.0464 v 0.0464 c 0,0.0619 -0.39353,0.0619 -0.45545,0 -0.0329,-0.0329 -0.0463,-0.0337 -0.0463,-0.003 0,0.031 -0.21818,0.0436 -0.75265,0.0436 -0.53448,0 -0.75265,-0.0126 -0.75265,-0.0436 0,-0.031 -0.0134,-0.0303 -0.0464,0.003 -0.0595,0.0595 -0.45545,0.0621 -0.45545,0.004 0,-0.0305 -0.0145,-0.0313 -0.0485,-0.004 -0.0713,0.0594 -1.46584,0.0551 -1.50374,-0.004 l -0.029,-0.0456 -7.7e-4,0.0483 c -3.9e-4,0.0326 -0.0691,0.0483 -0.21288,0.0483 -0.13123,0 -0.21228,-0.0165 -0.21228,-0.0434 0,-0.0309 -0.0142,-0.0315 -0.0495,-0.003 -0.062,0.0514 -0.80178,0.0532 -0.86344,10e-4 -0.0295,-0.0243 -0.0538,-0.0235 -0.0701,0.004 -0.033,0.0535 -0.34067,0.0522 -0.39436,-0.001 l -0.042,-0.042 -0.026,0.042 c -0.0142,0.0231 -0.1117,0.042 -0.21663,0.042 h -0.19072 z m 0.25491,-0.24043 c -0.0393,-0.0393 -0.0716,0.0199 -0.0395,0.072 l 0.0303,0.0489 0.0163,-0.0488 c 0.009,-0.0269 0.006,-0.0593 -0.006,-0.072 z m 2.33112,0.0884 c 0,-0.009 -0.02,-0.0295 -0.0446,-0.0446 -0.0276,-0.017 -0.0342,-0.0101 -0.017,0.017 0.0275,0.0445 0.0615,0.0598 0.0615,0.0275 z m 4.63169,-0.0542 c 0,-0.0517 -0.1386,-0.16329 -0.16725,-0.13463 -0.0143,0.0142 0.003,0.0577 0.0381,0.0966 0.0674,0.0746 0.12919,0.0928 0.12919,0.0381 z m 2.04567,0.0175 c 0,-0.009 -0.027,-0.0256 -0.0599,-0.0381 -0.0344,-0.0132 -0.0498,-0.006 -0.0363,0.0151 0.0227,0.0367 0.0962,0.0542 0.0962,0.023 z m 2.58603,-0.0395 c 0,-0.0301 0.0199,-0.0613 0.0442,-0.0693 0.0258,-0.009 -0.006,-0.0725 -0.0775,-0.15341 -0.0669,-0.0763 -0.15601,-0.21609 -0.19786,-0.31071 l -0.0762,-0.17204 -0.35408,-0.0251 c -0.19474,-0.0139 -0.42735,-0.0251 -0.51691,-0.0251 h -0.16282 l -0.0237,0.14475 c -0.0134,0.0813 -0.0914,0.23356 -0.17803,0.34737 l -0.15428,0.20263 h 0.10841 0.10842 l 0.0358,-0.14432 c 0.0498,-0.20107 0.15191,-0.21235 0.19672,-0.0217 l 0.0344,0.14674 0.14431,0.0126 c 0.0794,0.006 0.14064,-10e-4 0.13615,-0.0193 -0.004,-0.0173 0.006,-0.0888 0.0221,-0.15891 0.0408,-0.17271 0.14647,-0.15055 0.19384,0.0407 0.0205,0.0831 0.065,0.15319 0.10539,0.16599 0.0717,0.0228 0.19897,-0.0271 0.18761,-0.0735 -0.004,-0.0144 0.005,-0.0789 0.0194,-0.14342 0.0329,-0.14974 0.13428,-0.13744 0.18201,0.0221 0.0656,0.21924 0.10539,0.28949 0.16393,0.28949 0.0323,0 0.0587,-0.0246 0.0587,-0.0547 z m -11.14767,-0.0709 c 0.0618,-0.0494 0.12178,-0.22297 0.0763,-0.22067 -0.0574,0.003 -0.19902,0.15059 -0.19902,0.20755 0,0.0737 0.0413,0.0782 0.12278,0.0131 z m 1.11529,-0.2907 c 0.0413,-0.008 0.0775,0.039 0.11295,0.14634 0.0586,0.17765 0.0832,0.20261 0.16782,0.17017 0.0935,-0.0359 0.0924,-0.17546 -0.003,-0.35965 -0.0483,-0.0934 -0.0879,-0.20193 -0.0879,-0.24124 v -0.0715 l -0.51141,4e-5 -0.51142,3e-5 -0.0777,0.16764 -0.0777,0.16764 0.0679,-0.0178 c 0.0373,-0.0101 0.0693,-0.003 0.071,0.0158 0.031,0.35195 0.20686,0.44274 0.28892,0.14925 0.0475,-0.16995 0.18345,-0.22278 0.19866,-0.0773 0.0216,0.20614 0.0348,0.23248 0.12702,0.25154 l 0.0964,0.0199 0.0386,-0.15468 c 0.0221,-0.0884 0.0647,-0.15964 0.0995,-0.16623 z m 2.34401,0.30579 0.0504,-0.032 -0.12606,-0.2027 -0.12594,-0.20269 -0.0156,-0.24546 c -0.009,-0.13502 0.003,-0.29836 0.0253,-0.36301 l 0.041,-0.1175 h -0.11384 c -0.12797,0 -0.1264,-0.005 -0.0724,0.2298 0.0534,0.23171 -0.0141,0.50877 -0.18153,0.74478 l -0.13003,0.18334 h 0.0903 0.0903 l 0.0509,-0.15439 c 0.0439,-0.13312 0.15438,-0.21933 0.15438,-0.12052 0,0.0187 0.0264,0.0968 0.0584,0.17369 0.0584,0.13987 0.10968,0.16664 0.20428,0.10665 z m 2.08539,-7.8e-4 c 0.0282,-0.0179 0.0488,-0.0441 0.0454,-0.058 -0.0227,-0.0924 0.0527,-0.25558 0.11799,-0.25558 h 0.0738 l 0.0243,0.15201 c 0.0134,0.0836 0.0508,0.16216 0.0831,0.17456 0.0818,0.0314 0.2023,-0.0126 0.2023,-0.0739 0,-0.028 0.0238,-0.0968 0.053,-0.15294 l 0.0529,-0.10212 -0.0493,-0.14357 -0.0493,-0.14359 -0.51967,-0.0114 -0.51968,-0.0113 -0.0216,0.10715 c -0.0113,0.059 -0.0746,0.18536 -0.13941,0.28089 -0.14822,0.21842 -0.14766,0.23158 0.0101,0.23158 h 0.12892 l 0.0509,-0.15438 c 0.0683,-0.20711 0.17888,-0.21205 0.2161,-0.0101 0.0347,0.18819 0.118,0.24661 0.24071,0.16877 z m 2.61311,-0.0915 c -8.3e-4,-0.0478 -0.0432,-0.1706 -0.0934,-0.27298 l -0.0913,-0.18612 0.0178,-0.30599 0.0178,-0.30599 h -0.0734 -0.0735 l 0.0315,0.0869 c 0.0474,0.13043 0.0358,0.48887 -0.0219,0.68511 l -0.0512,0.17369 0.0417,0.10615 0.0417,0.10615 h 0.1282 0.12818 l -0.003,-0.0869 z m 4.75531,-0.60437 c -0.0113,-0.21063 0.0434,-0.2361 0.18504,-0.086 l 0.10741,0.11384 0.0914,-0.0416 c 0.12203,-0.0556 0.0981,-0.10375 -0.10514,-0.21127 -0.0935,-0.0494 -0.20631,-0.12405 -0.25074,-0.16577 -0.0449,-0.0421 -0.13458,-0.0759 -0.20171,-0.0759 h -0.1209 l 0.0415,0.11913 c 0.0235,0.0672 0.0309,0.20918 0.0173,0.32576 -0.0147,0.12543 -0.009,0.21621 0.015,0.23095 0.0217,0.0134 0.0295,0.0401 0.0175,0.0595 -0.0126,0.0193 0.031,0.005 0.0954,-0.0316 l 0.11724,-0.0668 -0.009,-0.17016 z m -14.44577,0.0703 -0.0275,-0.0864 -0.0384,0.0688 -0.0386,0.0688 0.0516,0.0319 c 0.0702,0.0434 0.0853,0.0195 0.0527,-0.0831 z m -0.21715,-0.21173 c 0.0669,-0.0334 0.12178,-0.0779 0.12178,-0.0988 0,-0.0209 0.0174,-0.0272 0.0386,-0.0142 0.0212,0.0131 0.0386,-10e-4 0.0386,-0.0332 0,-0.0314 0.009,-0.0801 0.0194,-0.10842 l 0.0194,-0.0514 -0.16594,-0.0101 -0.16597,-0.0101 -0.0644,0.14224 -0.0644,0.14223 0.042,0.0505 c 0.0513,0.0618 0.0349,0.0627 0.18096,-0.0101 z m 3.10769,-0.26736 c 0.0136,-0.0353 7e-5,-0.0579 -0.0345,-0.0579 -0.0311,0 -0.0566,0.0261 -0.0566,0.0579 0,0.0319 0.0155,0.0579 0.0344,0.0579 0.0189,0 0.0444,-0.0261 0.0566,-0.0579 z m 3.72999,0 c 0,-0.0319 -0.0255,-0.0579 -0.0566,-0.0579 -0.0345,0 -0.048,0.0226 -0.0344,0.0579 0.0126,0.0319 0.0377,0.0579 0.0566,0.0579 0.0189,0 0.0344,-0.0261 0.0344,-0.0579 z m 1.02928,0.0321 c -0.0141,-0.0141 -0.0373,-0.0141 -0.0514,0 -0.0141,0.0141 -0.003,0.0257 0.0257,0.0257 0.0282,0 0.0398,-0.0113 0.0257,-0.0257 z m -5.82824,-0.0772 c -0.0141,-0.0141 -0.0257,-0.003 -0.0257,0.0257 0,0.0282 0.0113,0.0398 0.0257,0.0257 0.0141,-0.0141 0.0141,-0.0373 0,-0.0514 z m 9.52715,0.0257 c 0.0131,-0.0212 0.006,-0.0386 -0.017,-0.0386 -0.0224,0 -0.0408,0.0174 -0.0408,0.0386 0,0.0212 0.008,0.0386 0.017,0.0386 0.009,0 0.0277,-0.0174 0.0408,-0.0386 z m 1.06144,0 c 0,-0.0212 -0.0174,-0.0386 -0.0386,-0.0386 -0.0212,0 -0.0386,0.0174 -0.0386,0.0386 0,0.0212 0.0174,0.0386 0.0386,0.0386 0.0212,0 0.0386,-0.0174 0.0386,-0.0386 z m -13.17461,-0.10287 c -0.0141,-0.0141 -0.0257,-0.003 -0.0257,0.0257 0,0.0282 0.0113,0.0398 0.0257,0.0257 0.0141,-0.0141 0.0141,-0.0373 0,-0.0516 z m 0.95824,-2.90723 c 0.0135,-0.0219 -0.001,-0.0282 -0.0363,-0.0151 -0.0669,0.0256 -0.0792,0.0533 -0.0236,0.0533 0.0199,0 0.0469,-0.0172 0.0599,-0.0382 z m 16.94587,-0.16412 c -0.073,-0.0408 -0.11825,-0.0165 -0.0812,0.0436 0.0134,0.0217 0.0518,0.029 0.0854,0.0161 l 0.0609,-0.0233 z m -0.17502,-0.085 c 0,-0.009 -0.02,-0.0295 -0.0446,-0.0446 -0.0276,-0.017 -0.0342,-0.0101 -0.017,0.017 0.0275,0.0445 0.0615,0.0598 0.0615,0.0275 z m -0.13946,-0.0531 c 0.0113,-0.0173 -0.0293,-0.0603 -0.0886,-0.0954 l -0.10816,-0.0639 0.0183,0.0954 c 0.0177,0.0927 0.13486,0.13455 0.17853,0.0639 z m -0.41376,-0.30298 c -0.0141,-0.0141 -0.0373,-0.0141 -0.0514,0 -0.0141,0.0141 -0.003,0.0257 0.0257,0.0257 0.0282,0 0.0398,-0.0113 0.0257,-0.0257 z m -15.48051,-0.11876 c -0.0269,-0.0268 -0.1,0.0276 -0.1,0.0743 0,0.0256 0.0222,0.0227 0.0589,-0.008 0.0324,-0.0268 0.0509,-0.0567 0.0412,-0.0664 z m 1.86019,-1.08504 c -0.0483,-0.0188 -0.0588,-0.004 -0.0886,0.12955 l -0.026,0.11573 0.0749,-0.11573 c 0.0412,-0.0637 0.059,-0.12191 0.0397,-0.12947 z m 9.07096,-0.7081 c 0.0255,-0.0255 0.0464,-0.0603 0.0464,-0.0772 0,-0.0534 -0.2972,-0.0334 -0.34426,0.0233 l -0.0449,0.0542 0.0498,0.0199 c 0.0924,0.0371 0.24636,0.0265 0.29301,-0.0202 z m -7.23641,-1.38701 c 0.11257,-0.0586 0.10867,-0.0524 0.0811,-0.1243 -0.0309,-0.0806 -0.23122,-0.0847 -0.26161,-0.006 -0.0542,0.14134 0.035,0.20552 0.18052,0.12986 z m 7.39209,-0.1532 c 0.0279,-0.0446 0.0364,-0.0734 0.0189,-0.0638 -0.0175,0.0101 -0.0633,0.0286 -0.10174,0.0424 -0.0385,0.0137 -0.0591,0.0425 -0.046,0.0638 0.0366,0.0591 0.073,0.0472 0.12881,-0.0424 z m -5.64102,-0.19619 c -0.0126,-0.0308 -0.0214,-0.0216 -0.0233,0.0233 -10e-4,0.0407 0.008,0.0635 0.0203,0.0507 0.0129,-0.0129 0.0142,-0.0461 0.004,-0.074 z m 5.82747,-0.0918 c 0.0127,-0.0333 0.004,-0.0797 -0.0194,-0.10312 l -0.0427,-0.0427 -0.0976,0.0444 c -0.0537,0.0245 -0.0976,0.0709 -0.0976,0.10312 0,0.0812 0.22599,0.0797 0.25721,-10e-4 z m -5.59411,-0.04 c -0.0129,-0.0129 -0.0461,-0.0143 -0.074,-0.004 -0.0308,0.0126 -0.0217,0.0214 0.0233,0.0233 0.0407,10e-4 0.0634,-0.008 0.0507,-0.0203 z m -1.06063,-0.15664 c -0.0266,-0.0113 -0.07,-0.0113 -0.0964,0 -0.0265,0.0113 -0.005,0.0194 0.0483,0.0194 0.0531,0 0.0748,-0.009 0.0483,-0.0194 z m 0.029,-0.20603 c 0,-0.0875 -0.04,-0.099 -0.10804,-0.0309 -0.0681,0.0681 -0.0566,0.10803 0.0309,0.10803 0.0514,0 0.0771,-0.0257 0.0771,-0.0772 z m 0.30879,0.004 c 0,-0.0189 -0.0261,-0.0444 -0.0579,-0.0566 -0.0353,-0.0136 -0.0579,-6e-5 -0.0579,0.0344 0,0.0313 0.026,0.0566 0.0579,0.0566 0.0319,0 0.0579,-0.0155 0.0579,-0.0344 z m 0.22238,-0.18504 c -0.0369,-0.0101 -0.1064,-0.0101 -0.1544,-7.7e-4 -0.048,0.009 -0.0178,0.0172 0.0671,0.0175 0.085,3.9e-4 0.12418,-0.008 0.0872,-0.0168 z m 0.35657,-0.10627 c 0,-0.009 -0.0174,-0.0277 -0.0386,-0.0408 -0.0212,-0.0131 -0.0386,-0.006 -0.0386,0.017 0,0.0224 0.0174,0.0408 0.0386,0.0408 0.0212,0 0.0386,-0.008 0.0386,-0.017 z m 1.83338,-0.75493 c 0.0131,-0.0212 0.006,-0.0386 -0.017,-0.0386 -0.0224,0 -0.0408,0.0174 -0.0408,0.0386 0,0.0212 0.008,0.0386 0.017,0.0386 0.009,0 0.0277,-0.0174 0.0408,-0.0386 z m -7.77739,4.86327 c 0,-0.0282 0.0113,-0.0398 0.0257,-0.0257 0.0141,0.0141 0.0141,0.0373 0,0.0514 -0.0141,0.0141 -0.0257,0.003 -0.0257,-0.0257 z m 11.6693,-2.88191 c 0.0141,-0.0141 0.0373,-0.0141 0.0516,0 0.0141,0.0141 0.003,0.0257 -0.0257,0.0257 -0.0282,0 -0.0398,-0.0113 -0.0257,-0.0257 z"
       id="US-M4-E8" />
  </g>
</svg>
