<?xml version="1.0" encoding="UTF-8" standalone="no"?>
<!-- Created with Inkscape (http://www.inkscape.org/) -->

<svg
   width="6.0795312mm"
   height="5.2916684mm"
   viewBox="0 0 6.0795311 5.2916684"
   version="1.1"
   id="svg1"
   inkscape:version="1.3.2 (091e20e, 2023-11-25, custom)"
   sodipodi:docname="viewListBF.svg"
   xmlns:inkscape="http://www.inkscape.org/namespaces/inkscape"
   xmlns:sodipodi="http://sodipodi.sourceforge.net/DTD/sodipodi-0.dtd"
   xmlns="http://www.w3.org/2000/svg"
   xmlns:svg="http://www.w3.org/2000/svg">
  <sodipodi:namedview
     id="namedview1"
     pagecolor="#ffffff"
     bordercolor="#666666"
     borderopacity="1.0"
     inkscape:showpageshadow="2"
     inkscape:pageopacity="0.0"
     inkscape:pagecheckerboard="0"
     inkscape:deskcolor="#d1d1d1"
     inkscape:document-units="mm"
     inkscape:zoom="26.183951"
     inkscape:cx="3.7618463"
     inkscape:cy="9.967938"
     inkscape:window-width="3840"
     inkscape:window-height="2081"
     inkscape:window-x="2391"
     inkscape:window-y="-9"
     inkscape:window-maximized="1"
     inkscape:current-layer="layer1" />
  <defs
     id="defs1" />
  <g
     inkscape:label="Layer 1"
     inkscape:groupmode="layer"
     id="layer1">
    <path
       id="path1"
       style="stroke-width:0.0103353"
       d="M 0.66145833,0 C 0.29662333,0 0,0.29662333 0,0.66145833 V 4.6302083 c 0,0.364835 0.29662333,0.6614584 0.66145833,0.6614584 H 1.1327474 a 0.20002,0.20002 0 0 1 0,-5.168e-4 V 4.7955729 H 0.66145833 c -0.0909504,0 -0.16536458,-0.074414 -0.16536458,-0.1653646 V 0.66145833 c 0,-0.0909504 0.0744142,-0.16536458 0.16536458,-0.16536458 H 2.3151042 V 1.3229167 c 0,0.1829342 0.1477949,0.3307291 0.3307291,0.3307291 H 3.4726562 V 2.2396566 C 3.609486,2.4023225 3.681429,2.6209278 3.681429,2.8613241 c 0,0.2269707 -0.066123,0.4392219 -0.2030883,0.6035807 a 0.20002,0.20002 0 0 1 -0.00155,0 c -0.00127,0.00149 -0.00283,0.00268 -0.00413,0.00413 v 0.1788005 c 0.077041,0.058984 0.1445972,0.1288574 0.195337,0.2134236 0.088011,0.1466849 0.1209227,0.3212453 0.1209228,0.5115967 0,0.3384726 -0.1276309,0.639083 -0.3767212,0.8361247 -0.037994,0.030511 -0.078662,0.057431 -0.1204061,0.082682 h 0.015503 c 0.364835,0 0.6614583,-0.2966234 0.6614583,-0.6614584 V 1.5968018 c 0,-0.1756997 -0.069247,-0.3441653 -0.1932699,-0.4681885 L 2.8401367,0.19326986 C 2.7161134,0.06924662 2.5476479,0 2.3719482,0 Z m 0.24494629,0.65008952 c -0.13526189,0 -0.25166422,0.11640153 -0.25166422,0.25166422 V 1.8867065 c 0,0.1352607 0.11639833,0.2516643 0.25166422,0.2516643 H 1.1327474 V 2.0603394 A 0.20002,0.20002 0 0 1 1.3322184,1.8613851 H 2.1430216 V 0.90175374 c 0,-0.13526588 -0.1163978,-0.25166422 -0.2516642,-0.25166422 z M 1.1508341,1.1461833 H 1.6469279 V 1.642277 H 1.1508341 Z M 0.91053874,2.3254395 c -0.13525853,1e-7 -0.25218099,0.1164035 -0.25218099,0.2516642 v 0.9849528 c 0,0.1352607 0.11692246,0.2516642 0.25218099,0.2516642 H 1.1327474 V 2.3254395 Z M 1.9394165,2.6075928 v 0.2139404 h 0.9074382 v 0.2118734 c 0.00935,-0.033917 0.014469,-0.074856 0.014469,-0.127124 0,-0.1309916 -0.024127,-0.1668313 -0.091984,-0.2072225 a 0.20002,0.20002 0 0 1 -0.00568,-0.00362 c -0.068006,-0.043126 -0.235645,-0.08785 -0.4904093,-0.08785 z M 0.89400228,4.0509155 c -0.1352625,0 -0.25166423,0.1169186 -0.25166423,0.252181 V 4.6302083 H 1.1327474 V 4.0509155 Z m 1.04541422,0 v 0.4960938 h 0.8909017 v 0.083199 h 0.026872 c 0.066736,-0.071211 0.099736,-0.155283 0.099736,-0.2883545 0,-0.1230703 -0.031576,-0.1916867 -0.107487,-0.2578654 a 0.20002,0.20002 0 0 1 -0.00362,-0.00413 c -0.010254,-0.00944 -0.026574,-0.019054 -0.045992,-0.028939 z" />
    <path
       d="m 1.3325247,2.0606256 h 0.9231551 q 0.6018609,0 0.9141045,0.1810108 0.3122437,0.1810108 0.3122437,0.619962 0,0.285092 -0.1583845,0.4751534 -0.1583844,0.1855361 -0.4570523,0.2398393 v 0.022626 q 0.2036372,0.036202 0.3665469,0.1221823 0.167435,0.08598 0.2624657,0.2443646 0.095031,0.1583845 0.095031,0.4072743 0,0.4389512 -0.3031931,0.6787905 Q 2.9887735,5.2916684 2.4683675,5.2916684 H 1.3325247 Z M 1.739799,3.4363077 h 0.5973356 q 0.4117996,0 0.5656588,-0.1312328 0.1583844,-0.1357581 0.1583844,-0.3982238 0,-0.2669909 -0.1900613,-0.3801226 Q 2.6855804,2.4090714 2.2737809,2.4090714 H 1.739799 Z m 0,0.3393953 v 1.1720449 h 0.6516389 q 0.4299006,0 0.5973356,-0.167435 0.167435,-0.167435 0.167435,-0.4389512 0,-0.2534151 -0.1764855,-0.4072743 Q 2.8077627,3.775703 2.359761,3.775703 Z M 4.6812227,5.2916684 H 4.2739484 V 2.0606256 H 6.0795311 V 2.418122 H 4.6812227 V 3.5630153 H 5.993551 V 3.9205116 H 4.6812227 Z"
       id="text1"
       style="font-size:4.52527px;line-height:1.25;stroke-width:0.113131"
       aria-label="BF" />
  </g>
</svg>
