<?xml version="1.0" encoding="UTF-8" standalone="no"?>
<!-- Created with Inkscape (http://www.inkscape.org/) -->

<svg
   width="3.9687514mm"
   height="5.2916684mm"
   viewBox="0 0 3.9687514 5.2916684"
   version="1.1"
   id="svg1"
   inkscape:version="1.3.2 (091e20e, 2023-11-25, custom)"
   sodipodi:docname="viewList.svg"
   xmlns:inkscape="http://www.inkscape.org/namespaces/inkscape"
   xmlns:sodipodi="http://sodipodi.sourceforge.net/DTD/sodipodi-0.dtd"
   xmlns="http://www.w3.org/2000/svg"
   xmlns:svg="http://www.w3.org/2000/svg">
  <sodipodi:namedview
     id="namedview1"
     pagecolor="#ffffff"
     bordercolor="#666666"
     borderopacity="1.0"
     inkscape:showpageshadow="2"
     inkscape:pageopacity="0.0"
     inkscape:pagecheckerboard="0"
     inkscape:deskcolor="#d1d1d1"
     inkscape:document-units="mm"
     inkscape:zoom="26.183951"
     inkscape:cx="3.7618464"
     inkscape:cy="9.9488425"
     inkscape:window-width="3840"
     inkscape:window-height="2066"
     inkscape:window-x="2869"
     inkscape:window-y="-11"
     inkscape:window-maximized="1"
     inkscape:current-layer="layer1" />
  <defs
     id="defs1" />
  <g
     inkscape:label="Layer 1"
     inkscape:groupmode="layer"
     id="layer1">
    <g
       id="g4"
       transform="scale(0.01033529)">
      <path
         d="m 320,464 c 8.8,0 16,-7.2 16,-16 V 160 h -80 c -17.7,0 -32,-14.3 -32,-32 V 48 H 64 c -8.8,0 -16,7.2 -16,16 v 384 c 0,8.8 7.2,16 16,16 z M 0,64 C 0,28.7 28.7,0 64,0 h 165.5 c 17,0 33.3,6.7 45.3,18.7 l 90.5,90.5 c 12,12 18.7,28.3 18.7,45.3 V 448 c 0,35.3 -28.7,64 -64,64 H 64 C 28.7,512 0,483.3 0,448 Z"
         id="path1" />
      <path
         style="color:#000000;fill:#000000;stroke-linecap:round;-inkscape-stroke:none;paint-order:stroke markers fill"
         d="m 87.714844,62.884766 c -13.087409,0 -24.373047,11.28556 -24.373047,24.373046 v 95.285158 c 0,13.0873 11.285251,24.37305 24.373047,24.37305 H 183 c 13.08823,0 24.37305,-11.28544 24.37305,-24.37305 V 87.257812 C 207.37305,74.170017 196.08784,62.884766 183,62.884766 Z M 111.3418,110.88477 h 48.03125 v 48.03125 H 111.3418 Z"
         id="rect1" />
      <path
         style="color:#000000;fill:#000000;stroke-linecap:round;-inkscape-stroke:none;paint-order:stroke markers fill"
         d="m 88.087891,224.98437 c -13.087083,10e-6 -24.373047,11.28575 -24.373047,24.37305 v 95.28516 c 0,13.0873 11.285964,24.37304 24.373047,24.37304 H 299.06836 c 13.08684,0 24.37305,-11.28543 24.37305,-24.37304 v -95.28516 c 0,-13.08761 -11.28621,-24.37304 -24.37305,-24.37305 z m 23.626949,48 h 163.72657 v 48.03125 H 111.71484 Z"
         id="rect2" />
      <path
         id="rect3"
         style="color:#000000;fill:#000000;stroke-linecap:round;-inkscape-stroke:none;paint-order:stroke markers fill"
         d="m 86.509965,391.96884 c -13.087467,0 -24.373189,11.28572 -24.373189,24.37319 v 31.65801 h 48.000174 v -8.03155 h 163.72644 v 8.03155 h 47.99965 v -31.65801 c 0,-13.08747 -11.2852,-24.37319 -24.37267,-24.37319 z" />
    </g>
  </g>
</svg>
