<?xml version="1.0" encoding="UTF-8" standalone="no"?>
<!-- Created with Inkscape (http://www.inkscape.org/) -->

<svg
   width="6.2229295mm"
   height="5.5903015mm"
   viewBox="0 0 6.2229296 5.5903014"
   version="1.1"
   id="svg47190"
   inkscape:version="1.1.1 (3bf5ae0d25, 2021-09-20)"
   sodipodi:docname="volkSu.svg"
   xmlns:inkscape="http://www.inkscape.org/namespaces/inkscape"
   xmlns:sodipodi="http://sodipodi.sourceforge.net/DTD/sodipodi-0.dtd"
   xmlns="http://www.w3.org/2000/svg"
   xmlns:svg="http://www.w3.org/2000/svg">
  <sodipodi:namedview
     id="namedview47192"
     pagecolor="#ffffff"
     bordercolor="#666666"
     borderopacity="1.0"
     inkscape:pageshadow="2"
     inkscape:pageopacity="0.0"
     inkscape:pagecheckerboard="0"
     inkscape:document-units="mm"
     showgrid="false"
     inkscape:zoom="22.627417"
     inkscape:cx="14.959728"
     inkscape:cy="7.7118833"
     inkscape:window-width="1920"
     inkscape:window-height="1017"
     inkscape:window-x="-8"
     inkscape:window-y="-8"
     inkscape:window-maximized="1"
     inkscape:current-layer="layer1"
     inkscape:snap-bbox="true"
     inkscape:snap-bbox-midpoints="true"
     inkscape:snap-page="true"
     inkscape:snap-nodes="true"
     inkscape:snap-others="true" />
  <defs
     id="defs47187">
    <clipPath
       clipPathUnits="userSpaceOnUse"
       id="clipPath63680-8">
      <path
         d="M 0,0 H 595.276 V 841.89 H 0 Z"
         id="path63678-4" />
    </clipPath>
  </defs>
  <g
     inkscape:label="Layer 1"
     inkscape:groupmode="layer"
     id="layer1"
     transform="translate(-95.643883,-82.826408)">
    <g
       transform="matrix(0.01238547,0,0,0.01238547,86.37603,76.630162)"
       id="g5025">
      <g
         id="g4299"
         transform="translate(1.9492421e-6)">
        <g
           id="g31631"
           transform="matrix(5.4254366,0,0,5.4254366,1570.8142,1953.9589)">
          <g
             id="g1754"
             transform="matrix(0.59575884,0,0,0.6012812,-441.4489,-296.08972)">
            <path
               id="path4260"
               style="fill:#000000;stroke-width:0.122352;paint-order:markers stroke fill;stop-color:#000000"
               sodipodi:type="inkscape:offset"
               inkscape:radius="0.2"
               inkscape:original="M 12.011719 10.796875 L 11.916016 10.826172 C 11.850536 10.845452 11.784152 10.893775 11.699219 10.980469 C 11.54263 11.140306 11.472648 11.323485 11.359375 11.876953 C 11.314675 12.095355 11.251757 12.33644 11.220703 12.414062 C 11.174913 12.528526 11.169913 12.566496 11.189453 12.609375 C 11.223773 12.684695 11.295832 12.67718 11.341797 12.59375 C 11.362497 12.55617 11.407546 12.480477 11.441406 12.425781 C 11.516746 12.304094 11.5442 12.318357 11.601562 12.507812 C 11.670372 12.73506 11.72831 12.739386 11.835938 12.525391 C 11.899767 12.398487 11.932458 12.354445 11.966797 12.353516 C 11.973697 12.353339 12.00327 12.407102 12.03125 12.474609 C 12.08495 12.604179 12.156456 12.671593 12.216797 12.648438 C 12.247987 12.636468 12.251953 12.652888 12.251953 12.769531 C 12.251953 12.844141 12.265993 12.939267 12.283203 12.980469 C 12.316893 13.061109 12.413589 13.138461 12.451172 13.115234 C 12.466312 13.105834 12.474609 13.150537 12.474609 13.246094 C 12.474609 13.457976 12.543574 13.611328 12.640625 13.611328 C 12.680255 13.611328 12.704537 13.586631 12.748047 13.5 C 12.825397 13.346006 12.820899 13.260068 12.724609 13.087891 C 12.660939 12.974046 12.635102 12.94826 12.601562 12.957031 C 12.563932 12.966831 12.560343 12.955081 12.564453 12.863281 C 12.569453 12.752638 12.49649 12.531711 12.439453 12.484375 C 12.413073 12.462485 12.398561 12.464154 12.363281 12.496094 C 12.339201 12.517884 12.318359 12.529204 12.318359 12.521484 C 12.318359 12.484304 12.392456 12.330078 12.410156 12.330078 C 12.421236 12.330078 12.46834 12.407761 12.513672 12.501953 C 12.613392 12.709166 12.652937 12.725628 12.707031 12.583984 C 12.755941 12.455907 12.740514 12.380924 12.582031 11.972656 C 12.416766 11.546908 12.409307 11.404815 12.550781 11.345703 C 12.592491 11.328273 12.666806 11.314453 12.714844 11.314453 C 12.793234 11.314453 12.803786 11.3074 12.816406 11.25 C 12.847626 11.10784 12.73776 10.975766 12.496094 10.863281 C 12.332806 10.787271 12.221696 10.788074 12.298828 10.865234 C 12.316018 10.882424 12.315584 10.902284 12.298828 10.933594 C 12.253048 11.019134 12.207965 11.011854 12.107422 10.902344 L 12.011719 10.796875 z M 17.169922 11.455078 C 17.072692 11.462578 16.279267 11.46868 15.408203 11.46875 L 13.824219 11.46875 L 13.798828 11.550781 C 13.754908 11.686559 13.695459 11.79395 13.46875 12.142578 C 13.149749 12.633132 13.072834 12.808592 13.068359 13.058594 C 13.066859 13.140674 13.060641 13.164026 13.050781 13.128906 C 13.038771 13.086046 13.031639 13.080599 13.011719 13.105469 C 12.929069 13.20865 12.883364 13.41306 12.935547 13.445312 C 12.971437 13.467493 13.023703 13.433297 13.044922 13.373047 C 13.066372 13.312147 13.068826 13.313038 13.103516 13.423828 C 13.116866 13.466458 13.206642 13.501953 13.304688 13.501953 L 13.380859 13.501953 L 13.308594 13.564453 C 13.243354 13.622743 13.238584 13.639761 13.240234 13.753906 L 13.240234 13.878906 L 13.203125 13.794922 C 13.155445 13.688562 13.103093 13.641241 13.078125 13.681641 C 13.045625 13.734231 13.043169 14.082948 13.074219 14.173828 C 13.126089 14.325499 13.201641 14.33396 13.300781 14.201172 C 13.342881 14.144792 13.342421 14.139411 13.306641 14.064453 C 13.251491 13.948809 13.261872 13.921341 13.326172 14.011719 C 13.357142 14.055239 13.421843 14.113166 13.470703 14.140625 C 13.536953 14.177855 13.556432 14.199402 13.544922 14.226562 C 13.536422 14.246593 13.523668 14.315938 13.517578 14.380859 L 13.505859 14.5 L 13.439453 14.396484 C 13.375723 14.298514 13.366922 14.292685 13.292969 14.304688 C 13.14811 14.328197 13.029901 14.453397 13.009766 14.603516 C 12.994276 14.718998 12.970118 14.721506 12.955078 14.609375 C 12.941858 14.510815 12.893698 14.402035 12.861328 14.398438 C 12.849178 14.397037 12.810514 14.445923 12.777344 14.507812 C 12.713024 14.627821 12.695879 14.761157 12.724609 14.900391 L 12.742188 14.986328 L 12.691406 14.939453 C 12.631126 14.883293 12.592427 14.881611 12.564453 14.931641 C 12.550333 14.956861 12.548711 14.919279 12.556641 14.820312 C 12.566971 14.69165 12.561126 14.659667 12.509766 14.554688 C 12.443946 14.420155 12.394856 14.386759 12.347656 14.445312 C 12.318936 14.480932 12.317944 14.480078 12.333984 14.429688 C 12.367124 14.325575 12.349554 14.215023 12.277344 14.068359 C 12.205374 13.922173 12.175354 13.896913 12.125 13.947266 C 12.10438 13.967886 12.097656 13.94194 12.097656 13.826172 C 12.097656 13.711574 12.085189 13.651687 12.042969 13.568359 C 11.978129 13.440394 11.954295 13.421326 11.90625 13.460938 C 11.87377 13.487718 11.870253 13.479767 11.882812 13.373047 C 11.890413 13.308327 11.888053 13.239109 11.876953 13.21875 C 11.865823 13.19839 11.83667 13.1339 11.8125 13.076172 C 11.76316 12.958357 11.739005 12.949793 11.660156 13.021484 C 11.613786 13.063654 11.606731 13.063747 11.619141 13.029297 C 11.678751 12.863928 11.662016 12.715213 11.566406 12.564453 C 11.499956 12.459671 11.49886 12.457316 11.453125 12.498047 C 11.337921 12.600657 11.31108 12.846258 11.396484 13.015625 C 11.439444 13.100825 11.455802 13.115284 11.515625 13.115234 L 11.583984 13.115234 L 11.574219 13.238281 C 11.559399 13.401746 11.624843 13.558783 11.722656 13.595703 C 11.785726 13.619513 11.789063 13.628115 11.789062 13.742188 C 11.789062 13.940207 11.890938 14.101823 12.003906 14.080078 C 12.024626 14.076078 12.027958 14.097179 12.017578 14.162109 C 12.000308 14.270117 12.042873 14.454683 12.101562 14.529297 C 12.148623 14.589127 12.225554 14.601071 12.273438 14.556641 C 12.297928 14.533921 12.301249 14.535916 12.287109 14.572266 C 12.249159 14.669866 12.246613 14.849749 12.283203 14.943359 C 12.338743 15.085274 12.373007 15.122902 12.423828 15.095703 C 12.463868 15.074273 12.467397 15.082312 12.466797 15.232422 C 12.466112 15.401686 12.519766 15.553112 12.599609 15.599609 C 12.652039 15.630139 12.746086 15.628886 12.777344 15.597656 C 12.793804 15.581196 12.796183 15.559336 12.783203 15.535156 C 12.772183 15.514556 12.765098 15.391002 12.767578 15.261719 C 12.771778 15.040287 12.775054 15.029894 12.808594 15.074219 C 12.872644 15.158779 12.948506 15.047542 12.974609 14.833984 L 12.990234 14.705078 L 13.007812 14.802734 C 13.050062 15.041355 13.23982 15.142105 13.447266 15.037109 C 13.578267 14.970809 13.623047 14.917186 13.623047 14.824219 L 13.623047 14.740234 L 13.695312 14.783203 C 13.788282 14.839883 13.82777 14.837664 14.011719 14.771484 C 14.248724 14.686204 14.289061 14.620182 14.230469 14.408203 C 14.221969 14.377513 14.224075 14.36201 14.234375 14.375 C 14.277735 14.42982 14.367429 14.472656 14.4375 14.472656 C 14.51243 14.472656 14.662109 14.398596 14.662109 14.361328 C 14.662109 14.350588 14.707221 14.298229 14.763672 14.244141 C 14.857172 14.154551 14.865113 14.139825 14.853516 14.068359 C 14.841896 13.996749 14.844229 13.990782 14.880859 14.013672 C 14.914369 14.034602 14.945151 14.0216 15.0625 13.9375 C 15.228498 13.818535 15.291031 13.754322 15.322266 13.671875 C 15.348866 13.601675 15.335934 13.553933 15.271484 13.482422 L 15.224609 13.431641 L 15.337891 13.447266 C 15.447256 13.461776 15.451968 13.459929 15.507812 13.386719 C 15.644538 13.207464 15.668822 13.038214 15.574219 12.925781 L 15.515625 12.857422 L 15.615234 12.871094 C 15.728299 12.888044 15.762228 12.867299 15.832031 12.730469 C 15.972139 12.455835 15.861688 12.331471 15.476562 12.330078 C 15.361149 12.32966 15.322978 12.337954 15.292969 12.371094 C 15.255919 12.412034 15.254875 12.413068 15.203125 12.361328 C 15.154995 12.313198 15.131575 12.308594 14.947266 12.308594 L 14.744141 12.308594 L 14.757812 12.375 C 14.769932 12.43559 14.766846 12.440452 14.728516 12.419922 C 14.655636 12.380922 14.606006 12.393449 14.527344 12.474609 C 14.428704 12.576384 14.419504 12.712185 14.505859 12.804688 C 14.590789 12.895668 14.712893 12.949219 14.837891 12.949219 C 14.948703 12.949219 14.948736 12.950022 14.949219 13.021484 C 14.949486 13.060984 14.968748 13.133895 14.992188 13.185547 C 15.015638 13.237197 15.028271 13.28125 15.019531 13.28125 C 15.010831 13.28125 14.966585 13.254989 14.921875 13.224609 C 14.825665 13.159229 14.819883 13.159691 14.767578 13.207031 C 14.729048 13.241901 14.728516 13.239034 14.728516 13.152344 C 14.728516 13.071484 14.715759 13.049206 14.615234 12.955078 C 14.458686 12.808485 14.394435 12.769205 14.335938 12.783203 C 14.271038 12.798733 14.271245 12.792221 14.359375 12.667969 C 14.400345 12.610209 14.446938 12.525992 14.460938 12.482422 C 14.474937 12.438852 14.515774 12.37527 14.552734 12.339844 L 14.619141 12.275391 L 15.806641 12.263672 C 17.095219 12.251232 17.06222 12.253367 17.216797 12.123047 L 17.285156 12.066406 L 17.275391 12.162109 C 17.267591 12.231119 17.273192 12.259247 17.294922 12.265625 C 17.311492 12.270525 18.219219 12.269772 19.314453 12.263672 L 21.306641 12.251953 L 21.697266 11.890625 C 22.04174 11.571243 22.084339 11.524954 22.048828 11.503906 C 22.020818 11.487306 21.331309 11.477086 19.792969 11.472656 C 17.677894 11.466556 17.57721 11.468119 17.576172 11.505859 C 17.575573 11.527589 17.548915 11.60542 17.515625 11.677734 L 17.455078 11.808594 L 17.455078 11.669922 C 17.455825 11.547936 17.450834 11.525843 17.402344 11.486328 C 17.353304 11.446378 17.326851 11.442978 17.169922 11.455078 z M 4.0351562 11.466797 C 2.8494108 11.468897 1.8757393 11.473866 1.8710938 11.478516 C 1.8536147 11.495996 2.0815479 11.774551 2.2636719 11.957031 C 2.3759481 12.069527 2.4969138 12.167425 2.5625 12.199219 L 2.6738281 12.251953 L 4.7148438 12.257812 L 6.7558594 12.263672 L 6.7207031 12.214844 C 6.5739287 12.01397 6.5612065 11.962074 6.6875 12.076172 C 6.737693 12.121522 6.8333392 12.184147 6.9003906 12.214844 L 7.0214844 12.269531 L 8.1621094 12.265625 L 9.3027344 12.261719 L 9.4355469 12.466797 C 9.5994373 12.71992 9.8850968 13.078086 9.9941406 13.167969 C 10.089282 13.246389 10.076607 13.254406 9.953125 13.191406 L 9.8652344 13.146484 L 9.7988281 13.193359 C 9.7326151 13.240509 9.7064541 13.220652 9.7675781 13.169922 C 9.7858081 13.154792 9.8007813 13.12082 9.8007812 13.09375 C 9.8007812 12.99688 9.5946163 12.771484 9.5058594 12.771484 C 9.4836374 12.771484 9.4767 12.757866 9.484375 12.728516 C 9.503268 12.656266 9.4725919 12.577264 9.3886719 12.484375 C 9.3172019 12.405265 9.2984587 12.396484 9.203125 12.396484 C 9.110269 12.396484 9.0978556 12.392069 9.1074219 12.355469 C 9.1242119 12.291259 9.0824213 12.280085 8.8808594 12.296875 C 8.7018876 12.311785 8.6953125 12.314538 8.6953125 12.367188 C 8.6953125 12.426687 8.7308773 12.508063 8.7695312 12.535156 C 8.7829033 12.544556 8.8268855 12.546152 8.8671875 12.539062 C 8.9371555 12.526853 8.9409056 12.527719 8.9160156 12.574219 C 8.8901516 12.622549 8.8956114 12.764677 8.9277344 12.849609 C 8.9369244 12.873919 8.9085392 12.850448 8.8632812 12.798828 C 8.8007193 12.727428 8.7633823 12.705078 8.7128906 12.705078 C 8.6763646 12.705078 8.651809 12.698523 8.65625 12.689453 C 8.66069 12.680353 8.6780445 12.643935 8.6953125 12.609375 C 8.7225295 12.554915 8.7211917 12.539271 8.6933594 12.490234 C 8.6397314 12.395754 8.5520589 12.344942 8.4199219 12.333984 C 8.2749194 12.321964 8.1855748 12.354757 8.109375 12.445312 C 8.046258 12.520323 8.0381796 12.610902 8.0878906 12.707031 C 8.1289746 12.786481 8.2428339 12.861214 8.3242188 12.861328 L 8.3828125 12.861328 L 8.3476562 12.931641 C 8.3280903 12.970861 8.3060402 13.055728 8.3007812 13.119141 L 8.2929688 13.234375 L 8.234375 13.195312 C 8.189522 13.165952 8.1263386 13.158203 7.9394531 13.158203 C 7.7069283 13.158203 7.7011913 13.160464 7.7011719 13.208984 C 7.7011498 13.283404 7.7710622 13.339869 7.8984375 13.367188 C 8.0391495 13.397367 8.3417969 13.398361 8.3417969 13.369141 C 8.3417969 13.357351 8.3782531 13.373197 8.4238281 13.404297 C 8.4883461 13.448317 8.5248995 13.457759 8.5898438 13.449219 L 8.6738281 13.439453 L 8.6289062 13.511719 C 8.5416993 13.652822 8.5823315 13.753354 8.7753906 13.880859 C 8.9308291 13.983517 8.9831318 13.998461 9.0683594 13.96875 L 9.1328125 13.947266 L 9.1210938 14.03125 C 9.1149137 14.07736 9.1223065 14.149692 9.1367188 14.193359 C 9.1700428 14.294331 9.3200372 14.429392 9.4589844 14.480469 C 9.577632 14.524079 9.5618868 14.530904 9.65625 14.396484 C 9.684644 14.356034 9.686439 14.361664 9.6875 14.464844 C 9.68967 14.67623 9.863109 14.826172 10.101562 14.826172 C 10.206352 14.826172 10.219145 14.821923 10.259766 14.757812 L 10.304688 14.6875 L 10.328125 14.775391 C 10.358435 14.887952 10.418521 14.965786 10.511719 15.011719 C 10.610829 15.060569 10.678672 15.056677 10.794922 14.998047 L 10.894531 14.949219 L 10.894531 14.728516 C 10.894524 14.453887 10.878811 14.394566 10.789062 14.339844 C 10.749892 14.315964 10.728771 14.296925 10.744141 14.296875 C 10.759511 14.296831 10.792326 14.264109 10.816406 14.224609 C 10.874256 14.129739 10.879169 13.804977 10.824219 13.726562 L 10.789062 13.675781 L 10.736328 13.724609 L 10.683594 13.773438 L 10.683594 13.695312 C 10.683594 13.594064 10.616106 13.53691 10.451172 13.5 C 10.359392 13.47946 10.316364 13.478507 10.273438 13.498047 C 10.197498 13.532647 10.197266 13.533077 10.197266 13.460938 C 10.197266 13.426118 10.177534 13.369915 10.152344 13.337891 C 10.092394 13.261671 10.104934 13.265935 10.246094 13.359375 C 10.367402 13.439685 10.578643 13.512559 10.744141 13.53125 L 10.837891 13.541016 L 10.837891 13.277344 C 10.837891 12.746395 10.720511 12.421952 10.40625 12.087891 C 10.304978 11.980237 10.290638 11.951888 10.28125 11.849609 C 10.26798 11.705051 10.186894 11.578403 10.072266 11.521484 C 9.9909506 11.481114 9.9151022 11.478516 8.2207031 11.478516 L 6.453125 11.478516 L 6.4550781 11.611328 C 6.4572781 11.718836 6.4537108 11.737249 6.4335938 11.703125 C 6.3905648 11.630135 6.2827556 11.511175 6.2363281 11.486328 C 6.2050351 11.469578 5.5457363 11.464067 4.0351562 11.466797 z M 6.8632812 12.318359 C 3.592672 12.321759 2.7501721 12.332181 2.7675781 12.363281 C 2.8140861 12.446381 3.1788238 12.816654 3.2890625 12.892578 C 3.5289859 13.05782 3.404276 13.048707 5.5136719 13.041016 C 6.552524 13.037216 7.4059017 13.031594 7.4101562 13.027344 C 7.4241592 13.013344 7.3010834 12.698893 7.2304688 12.566406 C 7.1923948 12.494976 7.1282457 12.409241 7.0859375 12.376953 C 7.0206115 12.327103 6.9867536 12.318229 6.8632812 12.318359 z M 8.0097656 12.330078 C 7.9976126 12.330078 7.9882813 12.339363 7.9882812 12.351562 C 7.9882812 12.363713 7.9976086 12.375 8.0097656 12.375 C 8.0219186 12.375 8.0332031 12.363762 8.0332031 12.351562 C 8.0332031 12.339412 8.0219226 12.330078 8.0097656 12.330078 z M 15.898438 12.330078 C 15.885568 12.330078 15.881112 12.339363 15.888672 12.351562 C 15.896172 12.363713 15.906749 12.375 15.912109 12.375 C 15.917509 12.375 15.921875 12.363762 15.921875 12.351562 C 15.921875 12.339412 15.911308 12.330078 15.898438 12.330078 z M 16.789062 12.330078 L 16.689453 12.544922 C 16.564087 12.813527 16.542684 12.919276 16.601562 12.994141 L 16.644531 13.048828 L 18.552734 13.041016 L 20.460938 13.035156 L 20.539062 12.962891 C 20.581602 12.923241 20.697873 12.82333 20.796875 12.742188 C 20.997386 12.577848 21.113281 12.455871 21.113281 12.408203 C 21.113281 12.390823 21.093823 12.366096 21.070312 12.353516 C 21.041702 12.338206 20.326929 12.330078 18.908203 12.330078 L 16.789062 12.330078 z M 7.5449219 12.333984 C 7.2460171 12.341084 7.236375 12.341862 7.2363281 12.388672 C 7.236306 12.415132 7.2628989 12.457232 7.2949219 12.482422 C 7.3588239 12.532692 7.4686604 12.541545 7.7753906 12.515625 C 7.9201186 12.503395 7.9433594 12.494044 7.9433594 12.458984 C 7.9433594 12.436464 7.9237205 12.398327 7.8984375 12.373047 C 7.8554945 12.330107 7.8322074 12.327164 7.5449219 12.333984 z M 16.660156 12.359375 C 16.600176 12.314745 16.037549 12.32802 16.007812 12.375 C 15.978483 12.42135 15.982888 12.455546 16.023438 12.496094 C 16.053988 12.526644 16.103988 12.531231 16.353516 12.525391 L 16.648438 12.517578 L 16.675781 12.455078 C 16.698881 12.399558 16.697256 12.386975 16.660156 12.359375 z M 12.837891 12.484375 C 12.817931 12.500935 12.781169 12.556046 12.755859 12.605469 C 12.688649 12.736708 12.692015 12.905287 12.765625 13.064453 C 12.797945 13.134333 12.830561 13.191406 12.837891 13.191406 C 12.845191 13.191406 12.874827 13.164289 12.904297 13.130859 C 12.989947 13.033749 13.032897 12.899348 13.021484 12.761719 C 13.014184 12.673929 13.019706 12.639021 13.041016 12.630859 C 13.077606 12.616819 13.078609 12.52387 13.042969 12.488281 C 13.000919 12.446231 12.981329 12.457928 12.980469 12.523438 L 12.980469 12.583984 L 12.927734 12.519531 C 12.881654 12.463161 12.869491 12.458145 12.837891 12.484375 z M 10.865234 12.490234 C 10.830134 12.525324 10.831148 12.572266 10.867188 12.572266 C 10.888668 12.572266 10.893549 12.609513 10.886719 12.716797 C 10.875609 12.891322 10.891719 12.981978 10.949219 13.076172 C 10.998659 13.157232 11.035818 13.164962 11.087891 13.107422 C 11.160481 13.027202 11.21887 12.859319 11.203125 12.775391 C 11.167115 12.583414 11.039119 12.440974 10.960938 12.505859 C 10.932968 12.529079 10.927734 12.527717 10.927734 12.498047 C 10.927734 12.455617 10.902094 12.453334 10.865234 12.490234 z M 11.888672 12.505859 C 11.779475 12.608444 11.764357 12.882023 11.857422 13.064453 C 11.901922 13.151673 11.973169 13.175266 12.027344 13.121094 C 12.058764 13.089674 12.060393 13.107549 12.033203 13.224609 C 12.005513 13.344034 12.041791 13.499143 12.119141 13.591797 C 12.170921 13.653817 12.187414 13.661442 12.214844 13.638672 C 12.243534 13.614862 12.248702 13.633377 12.257812 13.775391 C 12.270482 13.97285 12.324666 14.083278 12.414062 14.09375 C 12.471343 14.10045 12.474609 14.106031 12.474609 14.230469 C 12.474609 14.377383 12.500799 14.463029 12.568359 14.535156 C 12.624789 14.595396 12.675757 14.596989 12.724609 14.542969 C 12.744709 14.520759 12.771396 14.447415 12.785156 14.378906 C 12.805946 14.275406 12.805524 14.241971 12.777344 14.181641 C 12.758684 14.141711 12.727824 14.071137 12.708984 14.025391 C 12.670164 13.931121 12.622463 13.903654 12.572266 13.945312 C 12.542276 13.970202 12.538271 13.964793 12.550781 13.908203 C 12.558681 13.872663 12.569599 13.831436 12.574219 13.816406 C 12.583819 13.785216 12.465564 13.485095 12.429688 13.449219 C 12.412838 13.432369 12.394927 13.431901 12.367188 13.449219 C 12.331188 13.471699 12.329771 13.463395 12.337891 13.335938 C 12.347971 13.177566 12.302496 13.056755 12.212891 12.998047 C 12.160621 12.963797 12.155841 12.963985 12.113281 13.015625 L 12.070312 13.070312 L 12.089844 13.003906 C 12.126164 12.880376 12.111517 12.723316 12.054688 12.611328 C 11.978647 12.461496 11.953235 12.445205 11.888672 12.505859 z M 7.5917969 12.587891 C 7.3331856 12.600891 7.3242188 12.603574 7.3242188 12.652344 C 7.3242188 12.680664 7.3510776 12.7235 7.3847656 12.75 C 7.4401186 12.79354 7.46738 12.795322 7.7402344 12.789062 L 8.0351562 12.783203 L 8.0273438 12.705078 C 8.0179137 12.593417 7.9339585 12.570687 7.5917969 12.587891 z M 16.236328 12.599609 L 15.910156 12.605469 L 15.910156 12.683594 C 15.910156 12.752224 15.917688 12.763705 15.986328 12.787109 C 16.094895 12.824129 16.290248 12.822903 16.423828 12.783203 C 16.5538 12.744603 16.655496 12.64565 16.597656 12.613281 C 16.579416 12.603071 16.416084 12.596249 16.236328 12.599609 z M 7.7441406 12.871094 L 7.4765625 12.886719 L 7.484375 12.943359 C 7.492725 13.012729 7.5818542 13.082431 7.6933594 13.105469 C 7.800966 13.127699 8.0195343 13.109452 8.1132812 13.070312 C 8.1761323 13.044052 8.1842268 13.032451 8.1679688 12.988281 C 8.1576528 12.960261 8.11663 12.919074 8.078125 12.896484 C 8.015708 12.859864 7.981077 12.856864 7.7441406 12.871094 z M 16.390625 12.873047 C 16.310115 12.852837 15.851111 12.882426 15.816406 12.910156 C 15.801216 12.922306 15.789062 12.960534 15.789062 12.996094 C 15.789062 13.047904 15.801825 13.066777 15.859375 13.091797 C 15.946325 13.129587 16.079785 13.133463 16.228516 13.101562 C 16.362549 13.072812 16.451172 13.008881 16.451172 12.939453 C 16.451172 12.902183 16.434135 12.883957 16.390625 12.873047 z M 11.275391 12.984375 C 11.224871 12.952945 11.182678 13.008409 11.134766 13.167969 C 11.093186 13.306448 11.114202 13.452748 11.195312 13.583984 C 11.249253 13.671254 11.274076 13.668309 11.341797 13.568359 C 11.409247 13.468809 11.441238 13.337406 11.423828 13.234375 C 11.408338 13.142655 11.337198 13.022819 11.275391 12.984375 z M 5.40625 13.082031 C 4.3688406 13.082031 3.5232926 13.088586 3.5273438 13.097656 C 3.5431207 13.133156 4.140302 13.696854 4.265625 13.794922 L 4.3964844 13.898438 L 6.5351562 13.898438 C 7.7109974 13.898445 8.6738281 13.893972 8.6738281 13.888672 C 8.6738281 13.883372 8.572699 13.826296 8.4492188 13.761719 C 8.2284245 13.646254 8.2259357 13.644978 8.3007812 13.632812 C 8.4005783 13.616592 8.4296875 13.596102 8.4296875 13.544922 C 8.4296875 13.480732 8.3603855 13.457031 8.1738281 13.457031 C 8.0253233 13.457031 8.0091568 13.461284 8.0332031 13.490234 C 8.0483331 13.508464 8.0548831 13.523437 8.0488281 13.523438 C 8.0427781 13.523438 7.8707759 13.424265 7.6660156 13.302734 L 7.2929688 13.082031 L 5.40625 13.082031 z M 16.457031 13.082031 L 16.392578 13.1875 C 16.317398 13.308443 16.162261 13.418287 15.904297 13.537109 C 15.809837 13.580619 15.659458 13.651445 15.568359 13.693359 C 15.477259 13.735269 15.384602 13.785391 15.363281 13.804688 C 15.256264 13.901537 15.20517 13.898437 17.443359 13.898438 L 19.5625 13.898438 L 19.966797 13.507812 C 20.190027 13.292995 20.376808 13.109629 20.380859 13.099609 C 20.384959 13.089589 19.504677 13.082031 18.423828 13.082031 L 16.457031 13.082031 z M 10.896484 13.115234 L 10.876953 13.214844 C 10.853553 13.337251 10.885829 13.441592 10.943359 13.429688 C 10.972849 13.423588 10.980252 13.402313 10.976562 13.339844 C 10.973862 13.294864 10.954654 13.227127 10.933594 13.1875 L 10.896484 13.115234 z M 15.976562 13.154297 C 15.791339 13.161797 15.709015 13.174282 15.667969 13.201172 C 15.602239 13.244242 15.592671 13.33357 15.650391 13.367188 C 15.701381 13.396888 15.93227 13.396838 16.039062 13.367188 C 16.145141 13.337727 16.263374 13.229808 16.244141 13.179688 C 16.232111 13.148338 16.196365 13.145377 15.976562 13.154297 z M 11.015625 13.439453 C 10.908741 13.459283 10.86647 13.821607 10.949219 14.003906 C 10.983509 14.079446 11.002523 14.097656 11.048828 14.097656 C 11.096048 14.097656 11.115026 14.078289 11.154297 13.992188 C 11.225427 13.836239 11.2169 13.710231 11.125 13.558594 C 11.07878 13.482334 11.03625 13.435627 11.015625 13.439453 z M 15.710938 13.451172 C 15.57543 13.455472 15.549414 13.463682 15.505859 13.513672 C 15.478509 13.545062 15.457031 13.584013 15.457031 13.601562 C 15.457031 13.655442 15.613584 13.639376 15.746094 13.572266 C 15.91882 13.484776 15.906756 13.444929 15.710938 13.451172 z M 11.466797 13.457031 C 11.347092 13.556111 11.311077 13.843932 11.394531 14.021484 C 11.453751 14.14746 11.470244 14.156921 11.53125 14.099609 L 11.582031 14.054688 L 11.572266 14.183594 C 11.560896 14.340819 11.595645 14.457617 11.671875 14.517578 C 11.741795 14.572578 11.771709 14.573064 11.818359 14.521484 C 11.838369 14.499374 11.865043 14.429971 11.876953 14.367188 C 11.895203 14.270957 11.891156 14.234778 11.853516 14.136719 C 11.828966 14.072739 11.790348 13.996867 11.767578 13.966797 C 11.726168 13.912137 11.726284 13.911468 11.677734 13.955078 L 11.628906 13.998047 L 11.644531 13.882812 C 11.662341 13.751988 11.617568 13.561444 11.548828 13.476562 C 11.511348 13.430272 11.501927 13.427951 11.466797 13.457031 z M 12.886719 13.460938 C 12.838379 13.420938 12.808438 13.443637 12.755859 13.5625 C 12.698989 13.691059 12.69624 13.905663 12.75 14.011719 C 12.79324 14.096969 12.847878 14.164062 12.873047 14.164062 C 12.882247 14.164062 12.915796 14.111982 12.947266 14.048828 C 13.041766 13.859191 13.010939 13.563733 12.886719 13.460938 z M 11.257812 13.921875 C 11.246942 13.921875 11.210364 13.9733 11.177734 14.037109 C 11.083274 14.221819 11.101113 14.451806 11.220703 14.601562 C 11.238713 14.624123 11.252009 14.622503 11.292969 14.595703 L 11.345703 14.5625 L 11.34375 14.710938 C 11.343491 14.792917 11.354198 14.887703 11.367188 14.921875 C 11.402487 15.014715 11.396974 15.021055 11.333984 14.953125 C 11.302504 14.919175 11.265313 14.893978 11.251953 14.898438 C 11.167793 14.926488 11.094269 15.165073 11.115234 15.341797 C 11.121334 15.393197 11.131789 15.474823 11.136719 15.523438 C 11.141619 15.572048 11.145654 15.612834 11.146484 15.615234 C 11.153084 15.633454 11.289389 15.564131 11.333984 15.519531 C 11.411464 15.442051 11.4432 15.328653 11.429688 15.179688 C 11.419137 15.063334 11.420394 15.054371 11.458984 15.064453 C 11.512794 15.078523 11.559887 15.038252 11.613281 14.933594 C 11.676361 14.809944 11.668248 14.689588 11.585938 14.535156 C 11.526647 14.423912 11.509432 14.405806 11.46875 14.416016 C 11.4233 14.427426 11.419927 14.421842 11.429688 14.320312 C 11.435387 14.261183 11.428693 14.177075 11.414062 14.132812 C 11.386442 14.049122 11.292162 13.921875 11.257812 13.921875 z M 12.958984 14.164062 C 12.932504 14.164062 12.887494 14.3148 12.902344 14.353516 C 12.922174 14.405186 13.003906 14.351839 13.003906 14.287109 C 13.003906 14.221819 12.982874 14.164062 12.958984 14.164062 z M 10.982422 14.289062 C 10.982422 14.202782 10.939971 14.206009 10.931641 14.292969 C 10.926541 14.346769 10.931944 14.364482 10.953125 14.357422 C 10.969185 14.352022 10.982422 14.321473 10.982422 14.289062 z M 11.033203 14.408203 C 11.022663 14.408203 10.997406 14.445024 10.978516 14.490234 C 10.926846 14.613903 10.945046 15.017509 11.003906 15.060547 C 11.057406 15.099667 11.097102 15.06772 11.166016 14.929688 C 11.219356 14.822888 11.224357 14.759771 11.185547 14.660156 C 11.145977 14.558598 11.054721 14.408203 11.033203 14.408203 z M 12.027344 14.583984 C 12.004204 14.583984 12.013264 14.644223 12.052734 14.748047 C 12.076384 14.810247 12.142578 14.826361 12.142578 14.769531 C 12.142578 14.722411 12.056567 14.583984 12.027344 14.583984 z M 11.876953 14.642578 C 11.877359 14.558128 11.83288 14.575507 11.78125 14.679688 C 11.74954 14.743657 11.745545 14.768766 11.765625 14.792969 C 11.799305 14.833549 11.846951 14.814776 11.863281 14.753906 C 11.870381 14.727406 11.876783 14.677016 11.876953 14.642578 z M 11.912109 14.710938 C 11.828279 14.980766 11.724313 15.467203 11.75 15.46875 C 11.753 15.468926 11.79514 15.48248 11.84375 15.5 C 11.952042 15.53901 12.005049 15.541326 12.095703 15.509766 C 12.215325 15.468066 12.24133 15.361219 12.166016 15.220703 C 12.142306 15.176463 12.102525 15.060937 12.078125 14.962891 C 12.018675 14.724017 11.943513 14.609851 11.912109 14.710938 z M 12.166016 14.871094 C 12.130906 14.871094 12.137151 15.059884 12.175781 15.152344 C 12.242491 15.312004 12.341797 15.369489 12.341797 15.248047 C 12.341797 15.174047 12.278893 15.003906 12.251953 15.003906 C 12.242353 15.003906 12.225601 14.97396 12.212891 14.9375 C 12.200181 14.90104 12.178806 14.871094 12.166016 14.871094 z M 11.720703 14.896484 C 11.643933 14.907464 11.568811 15.054455 11.568359 15.193359 C 11.567802 15.364017 11.656444 15.415321 11.720703 15.28125 C 11.737993 15.24518 11.755979 15.142148 11.761719 15.052734 C 11.772029 14.892086 11.772223 14.889114 11.720703 14.896484 z M 11.455078 15.404297 C 11.444338 15.421257 11.435737 15.443165 11.435547 15.453125 C 11.435012 15.481695 11.530896 15.460407 11.541016 15.429688 C 11.554206 15.389617 11.478508 15.367287 11.455078 15.404297 z M 12.826172 15.404297 C 12.815432 15.421257 12.804877 15.448804 12.804688 15.464844 C 12.80418 15.508694 12.903399 15.485133 12.912109 15.439453 C 12.921409 15.390483 12.852612 15.362537 12.826172 15.404297 z M 11.039062 15.408203 C 11.017833 15.371733 11.016245 15.371592 11.015625 15.414062 C 11.014878 15.465212 11.042888 15.506123 11.054688 15.470703 C 11.058888 15.458243 11.051703 15.429933 11.039062 15.408203 z M 12.363281 15.421875 C 12.363281 15.453495 12.376583 15.46875 12.408203 15.46875 C 12.439823 15.46875 12.452366 15.456207 12.447266 15.429688 C 12.436176 15.372087 12.363281 15.365255 12.363281 15.421875 z M 12.384766 15.515625 C 12.384766 15.529345 12.331164 15.593349 12.263672 15.658203 C 12.159315 15.758473 12.142652 15.781999 12.162109 15.818359 C 12.183979 15.859219 12.173679 15.861863 11.912109 15.876953 C 11.76156 15.885653 11.625715 15.888413 11.609375 15.882812 C 11.583225 15.873812 11.685112 15.79485 11.755859 15.769531 C 11.785519 15.758911 11.703305 15.66933 11.628906 15.630859 C 11.450466 15.538579 11.197836 15.69258 11.259766 15.855469 C 11.291576 15.939129 11.263122 15.964888 10.998047 16.091797 C 10.74061 16.215058 10.611591 16.323473 10.578125 16.445312 C 10.565585 16.490973 10.51634 16.57289 10.46875 16.626953 C 10.357227 16.753651 10.251755 16.951026 10.208984 17.115234 C 10.167364 17.275013 10.167241 17.536129 10.207031 17.705078 C 10.223431 17.774748 10.230369 17.856587 10.224609 17.886719 C 10.208179 17.972689 10.260989 18.226622 10.318359 18.339844 C 10.390509 18.48222 10.539901 18.640742 10.722656 18.771484 C 10.808656 18.833004 10.897046 18.918591 10.923828 18.964844 C 10.991378 19.081507 11.109379 19.151306 11.326172 19.203125 C 11.635096 19.276965 11.731234 19.309803 11.800781 19.367188 C 11.837241 19.397268 11.876522 19.421525 11.888672 19.421875 C 11.900822 19.422226 12.005637 19.3871 12.121094 19.34375 C 12.850429 19.069967 13.210845 18.798458 13.455078 18.339844 C 13.573566 18.117351 13.645314 17.735437 13.644531 17.337891 C 13.644251 17.195273 13.636098 17.164971 13.554688 17.015625 C 13.406802 16.744298 13.268156 16.553945 13.070312 16.345703 C 12.856836 16.121008 12.663054 15.961408 12.583984 15.949219 C 12.534424 15.941619 12.53777 15.936545 12.625 15.890625 C 12.745834 15.827015 12.739242 15.783155 12.601562 15.714844 C 12.525322 15.677014 12.487984 15.639119 12.458984 15.576172 C 12.420524 15.492682 12.384766 15.46498 12.384766 15.515625 z "
               d="m 11.953125,10.605469 -0.0957,0.0293 c -0.116454,0.03471 -0.205812,0.108139 -0.300781,0.205078 -0.0946,0.09656 -0.171858,0.216686 -0.230469,0.371094 -0.05861,0.154407 -0.10472,0.344585 -0.16211,0.625 -0.04059,0.198332 -0.102906,0.420648 -0.121093,0.474609 -0.01117,-0.0013 -0.02141,0.0077 -0.0332,0.0078 -0.02828,-0.01887 -0.04507,-0.04917 -0.07617,-0.05273 -0.09454,-0.01083 -0.114339,0.02876 -0.146485,0.05859 -0.07023,-0.126457 -0.126422,-0.258293 -0.234375,-0.373047 -0.04786,-0.05088 -0.06519,-0.07385 -0.06641,-0.07617 -0.0012,-0.0023 -0.0019,6.16e-4 -0.0059,-0.04297 -0.01908,-0.207823 -0.131536,-0.397466 -0.31836,-0.490234 -0.03065,-0.01522 -0.08869,-0.03511 -0.148437,-0.04297 -0.059751,-0.0079 -0.1346363,-0.01076 -0.2578126,-0.01367 -0.2463527,-0.0058 -0.6878545,-0.0059 -1.5351563,-0.0059 H 6.453125 a 0.20002,0.20002 0 0 0 -0.1074219,0.04492 c -0.00742,-0.0045 -0.00706,-0.0091 -0.015625,-0.01367 -4.889e-4,-2.62e-4 -0.026802,-0.01294 -0.035156,-0.01563 -0.00835,-0.0027 -0.014188,-0.0046 -0.019531,-0.0059 -0.010686,-0.0024 -0.018268,-0.0029 -0.025391,-0.0039 -0.014244,-0.002 -0.026499,-0.0028 -0.041016,-0.0039 -0.029034,-0.0021 -0.064938,-0.0044 -0.1113282,-0.0059 -0.09278,-0.0029 -0.2267148,-0.0043 -0.40625,-0.0059 -0.3590703,-0.0031 -0.9006641,-0.0033 -1.65625,-0.002 -0.5930551,0.001 -1.1327986,0.0018 -1.5253906,0.0039 -0.196296,0.001 -0.3556848,0.0027 -0.4667968,0.0039 -0.055556,5.79e-4 -0.100236,0.0013 -0.1308594,0.002 -0.015312,3.05e-4 -0.027065,-3.83e-4 -0.037109,0 -0.00502,1.91e-4 -0.00924,0.0015 -0.015625,0.002 -0.00319,2.31e-4 -0.00565,-0.0011 -0.013672,0 -0.00401,5.38e-4 -0.019377,0.0039 -0.019531,0.0039 -7.71e-5,1.8e-5 -0.025343,0.0078 -0.025391,0.0078 -4.76e-5,1.8e-5 0.070313,0.1875 0.070313,0.1875 l -0.140625,-0.140625 c -2.732e-4,2.73e-4 -0.046721,0.06991 -0.046875,0.07031 -1.544e-4,3.99e-4 -0.013634,0.05807 -0.013672,0.05859 -3.79e-5,5.23e-4 6.839e-4,0.02837 0.00195,0.03906 0.00127,0.01069 0.00209,0.02001 0.00391,0.02734 0.00726,0.02935 0.015184,0.04232 0.021484,0.05469 0.0126,0.02473 0.023493,0.04088 0.037109,0.06055 0.027233,0.03933 0.062585,0.08483 0.1035156,0.134765 0.081862,0.09988 0.1876195,0.216726 0.2851563,0.314453 0.1220322,0.122271 0.2278258,0.221267 0.3515625,0.28125 a 0.20002,0.20002 0 0 0 0.00195,0.002 l 0.1074219,0.05078 c 0.00453,0.01376 0.00971,0.0292 0.00977,0.0293 0.035124,0.06276 0.063767,0.09146 0.109375,0.142578 0.045608,0.05112 0.1009456,0.109848 0.1582031,0.167968 0.1145152,0.11624 0.2191104,0.219492 0.3144531,0.285157 0.047373,0.03263 0.1029436,0.06639 0.1679688,0.0957 6.259e-4,0.0087 0.00195,0.02734 0.00195,0.02734 H 3.34375 c 2.465e-4,5.54e-4 0.013485,0.02301 0.017578,0.0293 0.00409,0.0063 0.00693,0.0099 0.00977,0.01367 0.00568,0.0075 0.00923,0.01244 0.013672,0.01758 0.00888,0.01028 0.01896,0.02039 0.029297,0.03125 0.020674,0.02172 0.047191,0.0476 0.078125,0.07813 0.061869,0.06106 0.1423119,0.1392 0.2265625,0.21875 0.1685012,0.159102 0.3361213,0.316133 0.4238281,0.384766 l 0.1289063,0.101563 a 0.20002,0.20002 0 0 0 0.125,0.04297 h 2.1386718 c 0.5881746,4e-6 1.1235708,-1.71e-4 1.5117188,-0.002 0.194074,-8.91e-4 0.3515287,-0.0027 0.4609375,-0.0039 0.054704,-5.87e-4 0.096846,-0.0013 0.1269531,-0.002 0.015054,-3.31e-4 0.026835,4.53e-4 0.037109,0 0.00514,-2.27e-4 0.00991,-0.0013 0.017578,-0.002 0.00383,-3.39e-4 0.017111,-0.0019 0.017578,-0.002 1.655e-4,-3e-5 0.014035,-0.0034 0.023438,-0.0059 0.05304,0.0329 0.1022179,0.06868 0.1601562,0.08594 0.016214,0.0048 0.031689,-0.0042 0.048828,-0.002 0.00494,0.02919 -0.00261,0.06021 0.00781,0.0918 0.036333,0.110091 0.1018178,0.180183 0.1777344,0.248047 0.075917,0.06786 0.1644438,0.126869 0.265625,0.164063 0.026732,0.0098 0.046445,0.01933 0.082031,0.0293 0.025075,0.007 0.075114,3.48e-4 0.1210938,-0.0059 0.1032669,0.188609 0.2759618,0.333985 0.507812,0.333985 0.03734,0 0.08063,-0.0094 0.123047,-0.01758 0.05198,0.07609 0.116687,0.142918 0.199219,0.183594 0.06768,0.03336 0.148196,0.05695 0.232422,0.05274 0.07418,-0.0037 0.138372,-0.03092 0.201172,-0.06055 0.01157,0.01388 0.0081,0.02356 0.0293,0.03906 0.0018,0.0013 0.0059,0.0026 0.0078,0.0039 -0.01193,0.01119 -0.03308,0.0311 -0.0332,0.03125 -1.57e-4,2e-4 -0.02134,0.03488 -0.02148,0.03516 -1.41e-4,2.77e-4 -0.0092,0.01826 -0.01172,0.02539 -0.0099,0.02852 -0.0087,0.04051 -0.0098,0.05078 -0.0022,0.02054 -0.0018,0.0311 -0.002,0.04297 -9.18e-4,0.06285 0.0025,0.108474 0.04883,0.175782 0.01157,0.01683 0.02782,0.03615 0.05664,0.05664 0.0081,0.0058 0.01827,0.0095 0.03125,0.01563 0.0024,0.0091 0.0039,0.01944 0.0039,0.01953 a 0.20002,0.20002 0 0 0 0.002,0.0039 c 2.07e-4,5.69e-4 0.05619,0.08163 0.05664,0.08203 4.37e-4,3.88e-4 0.05953,0.03632 0.06445,0.03906 -1.24e-4,0.0069 -0.0022,0.01264 -0.002,0.01953 -0.01333,0.0073 -0.05442,0.03446 -0.166016,0.08789 -0.275161,0.131748 -0.46713,0.261253 -0.527343,0.480469 0.0067,-0.02437 -0.03981,0.07135 -0.06641,0.101563 -0.138266,0.157081 -0.249601,0.366323 -0.302734,0.570312 -0.054994,0.211122 -0.054258,0.471751 -0.0039,0.685547 0.0056,0.02396 0.01147,0.05637 0.01367,0.08008 0.0022,0.0237 -0.0042,0.05181 0.002,0.01953 -0.02245,0.117454 6.63e-4,0.194474 0.02148,0.294922 0.02082,0.100448 0.04705,0.196842 0.0918,0.285157 0.09541,0.188277 0.261817,0.358662 0.464844,0.503906 0.03368,0.02409 0.07255,0.05604 0.101562,0.08398 0.02901,0.02795 0.05058,0.06002 0.04297,0.04687 0.100826,0.174133 0.288968,0.27654 0.529297,0.333985 0.305009,0.0729 0.365883,0.09941 0.394531,0.123046 0.02507,0.02068 0.04891,0.03898 0.07422,0.05469 0.01266,0.0079 0.02644,0.01374 0.04297,0.02148 0.0083,0.0039 0.01615,0.0094 0.0293,0.01367 0.0066,0.0022 0.01366,0.0038 0.02344,0.0059 0.0098,0.0021 0.0383,0.0039 0.03906,0.0039 7.6e-4,2.2e-5 0.03506,-6.1e-4 0.04297,-0.002 0.0079,-0.0013 0.01264,-0.0027 0.01758,-0.0039 0.0099,-0.0023 0.01862,-0.0052 0.02734,-0.0078 0.01745,-0.0051 0.036,-0.01194 0.05859,-0.01953 0.04519,-0.01518 0.102377,-0.03421 0.162109,-0.05664 0.749769,-0.281454 1.172243,-0.595896 1.439453,-1.097656 0.147376,-0.276738 0.213722,-0.673842 0.212891,-1.095703 -2.95e-4,-0.150185 -0.02912,-0.263568 -0.113281,-0.417969 -0.154213,-0.282935 -0.307999,-0.494353 -0.515625,-0.712891 -0.111266,-0.117113 -0.2162,-0.21778 -0.310547,-0.294922 -0.01224,-0.01001 -0.02608,-0.01204 -0.03711,-0.02148 0.01773,-0.0382 0.04761,-0.06501 0.04101,-0.113281 -0.0021,-0.01551 -0.01339,-0.01607 -0.01758,-0.0293 0.01014,-0.008 0.01674,8.33e-4 0.02734,-0.0098 0.01711,-0.01711 -5.02e-4,-0.04657 0.0098,-0.07031 0.02832,-0.0093 0.05595,-0.01788 0.08399,-0.03906 0.03703,-0.02798 0.08299,-0.07541 0.09766,-0.152344 0.01981,-0.104326 -0.04338,-0.196714 -0.119141,-0.246093 0.01555,-0.01345 0.04169,-0.01917 0.05274,-0.0332 0.01125,0.0074 0.0173,0.02095 0.0293,0.02734 0.141536,0.07538 0.3162,0.06547 0.464843,-0.0098 0.07669,-0.03881 0.144624,-0.07816 0.201172,-0.146485 0.01488,-0.01798 0.01053,-0.04336 0.02149,-0.06445 0.0249,0.0048 0.04268,0.02054 0.06836,0.01953 0.08908,-0.0035 0.156359,-0.03006 0.251953,-0.06445 0.130573,-0.04698 0.246113,-0.09257 0.322266,-0.21875 0.01422,-0.02356 0.01161,-0.0481 0.01953,-0.07226 0.0058,1.64e-4 0.0097,0.0039 0.01563,0.0039 0.103358,0 0.162663,-0.02988 0.228516,-0.0625 0.03293,-0.01631 0.06333,-0.03265 0.0957,-0.05859 0.03237,-0.02594 0.09961,-0.04626 0.09961,-0.189453 0,-3.35e-4 -0.004,0.03948 -0.0039,0.03906 8.7e-5,-4.16e-4 -0.0038,0.01741 -0.0059,0.02344 -0.0042,0.01206 -0.0072,0.01859 -0.0098,0.02344 -0.0051,0.0097 -0.0072,0.01278 -0.0078,0.01367 -0.0012,0.0018 0.0034,-0.0043 0.0098,-0.01172 0.01276,-0.01475 0.03443,-0.0374 0.05859,-0.06055 0.04866,-0.04662 0.08659,-0.07742 0.123047,-0.148438 0.0088,-0.01706 0.0013,-0.0306 0.0059,-0.04883 0.05283,-0.02415 0.09208,-0.05141 0.148438,-0.0918 0.03418,-0.0245 0.03545,-0.04733 0.06445,-0.07031 0.04015,0.02045 0.08103,0.0405 0.111328,0.04492 0.04356,0.0064 0.09345,0.01069 0.160156,0.01367 0.266833,0.01192 0.808732,0.0098 1.927734,0.0098 H 19.5625 a 0.20002,0.20002 0 0 0 0.138672,-0.05469 l 0.404297,-0.390625 c 0.11202,-0.107798 0.215027,-0.208388 0.291015,-0.283203 0.03799,-0.03741 0.06878,-0.06836 0.0918,-0.0918 0.01151,-0.01172 0.02098,-0.02033 0.0293,-0.0293 0.0042,-0.0045 0.0085,-0.0096 0.01367,-0.01563 0.0026,-0.003 0.0052,-0.0055 0.0098,-0.01172 0.0023,-0.0031 0.0077,-0.01343 0.0078,-0.01367 3.5e-5,-5.6e-5 0.0025,-0.0051 0.0039,-0.0078 a 0.20002,0.20002 0 0 0 0.04492,-0.01758 l 0.07813,-0.07227 c 0.03216,-0.02997 0.151921,-0.134106 0.248047,-0.212891 0.104407,-0.08557 0.188391,-0.159521 0.251953,-0.226562 0.03178,-0.03352 0.05825,-0.06443 0.08203,-0.09961 0.01751,-0.02591 0.03072,-0.07076 0.04102,-0.11914 h 0.0098 a 0.20002,0.20002 0 0 0 0.134765,-0.05273 l 0.390625,-0.361329 c 0.172756,-0.160171 0.268519,-0.248779 0.330078,-0.316406 0.03078,-0.03381 0.05685,-0.05437 0.08203,-0.125 0.01259,-0.03531 0.02157,-0.09742 -0.002,-0.15625 -0.02352,-0.05883 -0.06794,-0.09212 -0.09375,-0.107422 -4.38e-4,-2.59e-4 -0.02993,-0.0145 -0.03906,-0.01758 -0.0091,-0.0031 -0.01592,-0.0065 -0.02148,-0.0078 -0.01113,-0.0026 -0.01821,-0.0029 -0.02539,-0.0039 -0.01436,-0.002 -0.02823,-0.0028 -0.04297,-0.0039 -0.02948,-0.0023 -0.06554,-0.0041 -0.113281,-0.0059 -0.09549,-0.0035 -0.233127,-0.0072 -0.417969,-0.0098 -0.369684,-0.0052 -0.927738,-0.0075 -1.697265,-0.0098 -1.057596,-0.0031 -1.610267,-0.0044 -1.904297,0 -0.147015,0.0022 -0.225052,0.0039 -0.28711,0.01172 -0.03052,0.0038 -0.0585,0.0062 -0.107421,0.03125 -4.58e-4,-2.97e-4 -0.0015,2.97e-4 -0.002,0 -0.0394,-0.02533 -0.08672,-0.05555 -0.138672,-0.0625 -0.06571,-0.0088 -0.118464,-0.0043 -0.199219,0.002 -0.01117,8.62e-4 -0.257479,0.0073 -0.576172,0.0098 -0.318693,0.0025 -0.734852,0.0039 -1.169922,0.0039 h -1.583984 a 0.20002,0.20002 0 0 0 -0.191407,0.140625 l -0.02539,0.08203 c -0.03702,0.113651 -0.08302,0.197139 -0.306641,0.541015 -0.07849,0.120704 -0.108274,0.189478 -0.162109,0.28125 -0.01182,-0.0089 -0.01678,-0.01836 -0.03516,-0.02734 -0.02931,-0.01432 -0.09113,-0.0067 -0.146485,0.002 -0.0036,-0.0015 -0.002,-0.0024 -0.0059,-0.0039 -0.01524,-0.006 -0.03414,0.0021 -0.05273,0 -0.02564,-0.101791 -0.06146,-0.20599 -0.13086,-0.384765 -0.07747,-0.19958 -0.108825,-0.32428 -0.113281,-0.375 0.02339,-0.0046 0.05386,-0.01172 0.06055,-0.01172 0.04519,0 0.09877,0.01309 0.183594,-0.04102 0.04241,-0.02705 0.07488,-0.07271 0.08984,-0.105468 0.01497,-0.03276 0.01921,-0.055 0.02344,-0.07422 0.02894,-0.131762 -0.01692,-0.275275 -0.09961,-0.375 -0.08269,-0.09973 -0.19456,-0.172342 -0.332031,-0.236328 -0.09762,-0.04544 -0.169696,-0.07516 -0.27539,-0.07422 -0.02642,2.36e-4 -0.057,-1.42e-4 -0.101563,0.01953 -0.01256,0.0055 -0.02099,0.03178 -0.03516,0.04297 l -0.0078,-0.0078 a 0.20002,0.20002 0 0 0 -0.207031,-0.05664 z m -1.035156,1.716797 c -5.13e-4,4.4e-5 0.02682,0.0026 0.04492,0.0039 -0.04641,0.0079 -0.09417,-0.0034 -0.128907,0.02539 -0.0039,0.0032 -0.0067,0.0037 0.0059,-0.0039 0.0063,-0.0038 0.01633,-0.01096 0.03711,-0.01758 0.01039,-0.0033 0.04173,-0.0079 0.04102,-0.0078 z m -2.1894534,0.537109 c 0.00524,0.02049 0.0038,0.03961 0.011719,0.06055 -0.0015,-0.004 -0.00361,-0.0085 -0.00586,-0.01758 -0.00225,-0.0091 -0.00587,-0.04376 -0.00586,-0.04297 z m 3.4394534,0.402344 c 2.69e-4,-2.7e-4 -0.0013,0.0033 -0.0098,0.0098 -0.0042,0.0032 -0.0091,0.006 -0.01953,0.01172 -0.0089,0.0049 -0.03472,0.01478 -0.04297,0.01758 -0.0024,-0.002 -0.0013,-0.0038 -0.0039,-0.0059 -0.0013,-0.001 -0.0045,-9.34e-4 -0.0059,-0.002 -2.9e-5,-0.0032 6.7e-5,-0.0066 0,-0.0098 0.02641,-0.01344 0.06285,-0.0023 0.08203,-0.02148 z m -2.2480471,0.0059 c -0.00488,0.01254 -0.00795,0.03297 -0.011719,0.03906 -0.014392,0.02327 -0.018624,0.02169 -0.013672,0.01758 0.022048,-0.0183 0.011421,-0.03979 0.025391,-0.05664 z m 2.6367191,0.01758 c -0.0057,0.0035 -0.01316,0.0067 -0.01953,0.0098 -0.0022,-0.0016 -0.0055,-0.0023 -0.0078,-0.0039 -1.2e-5,-0.0013 1.8e-5,-0.0026 0,-0.0039 0.01075,-0.0046 0.01634,0.0048 0.02734,-0.002 z m -0.04297,0.478516 c 0.0013,6.78e-4 0.0026,0.0013 0.0039,0.002 -2.51e-4,0.0066 -0.0038,0.01291 -0.0039,0.01953 -0.02158,0.009 -0.05345,-0.0065 -0.06836,0.0059 -0.0031,0.0026 -0.0058,3.37e-4 0.02344,-0.01367 0.0073,-0.0035 0.01645,-0.0078 0.03125,-0.01172 0.004,-0.0011 0.0077,-8.94e-4 0.01367,-0.002 z m -0.484375,0.01172 c 0.0012,0.0012 0.0026,0.0027 0.0039,0.0039 -0.01327,0.01047 -0.03956,0.01807 -0.04883,0.02734 0.0064,-0.0064 0.01792,-0.01766 0.04492,-0.03125 z m 0.3125,0.01758 c -7.74e-4,6.42e-4 -0.0061,0.0045 -0.0078,0.0059 -7.82e-4,-7.25e-4 -0.0012,-0.0012 -0.002,-0.002 0.002,-0.0016 0.008,-0.0025 0.0098,-0.0039 z m 2.433594,0.390625 c 0.032,0.01999 0.08607,0.009 0.138671,0.0098 -6.43e-4,3.69e-4 -0.0059,0.002 -0.0059,0.002 4.3e-4,-1.22e-4 -0.03759,0.0059 -0.03711,0.0059 4.83e-4,-4.1e-5 -0.02062,6.37e-4 -0.0293,0 -0.01735,-0.0013 -0.02997,-0.0051 -0.03906,-0.0078 -0.03638,-0.0108 -0.03238,-0.01291 -0.02734,-0.0098 z m -3.988282,0.298828 c 0,0.0033 -0.0013,0.0098 -0.002,0.0098 6.8e-4,-1.49e-4 -0.03162,0.0039 -0.04101,0.0039 0.02579,-7.4e-5 0.02679,-0.0093 0.04297,-0.01367 z M 14.078125,14.5 c 0.01576,0.01993 0.03589,0.02665 0.05273,0.04297 -0.0096,-0.0053 -0.01975,-0.0099 -0.01953,-0.0098 0.001,7.59e-4 -0.02744,-0.02594 -0.0332,-0.0332 z m -1.667969,0.203125 c 0.0034,-0.0032 0.0059,-0.0036 -0.0078,0.0059 -0.0034,0.0024 -0.0082,0.0057 -0.01563,0.0098 -0.0074,0.0041 -0.03573,0.01385 -0.03516,0.01367 1.26e-4,-3.9e-5 -0.01155,0.0014 -0.01758,0.002 -4.69e-4,-0.0031 -0.0014,-0.005 -0.002,-0.0078 0.02543,-0.01201 0.05603,-0.0029 0.07813,-0.02344 z m 0.111328,0.03906 c -9e-5,1.6e-5 0.0148,-3.56e-4 0.02539,0 -0.06218,0.02766 -0.134011,0.05202 -0.15625,0.0918 0.0019,-0.0034 0.0045,-0.0083 0.0098,-0.01563 0.0053,-0.0073 0.02999,-0.03185 0.0293,-0.03125 -3.46e-4,2.99e-4 0.03352,-0.02361 0.0332,-0.02344 -3.22e-4,1.76e-4 0.05889,-0.02154 0.05859,-0.02148 z m 0.13086,0.455078 c 0.01621,0.02069 0.06128,0.02241 0.08984,0.04101 -0.0033,0.0019 -0.0066,0.0038 -0.0098,0.0059 -0.0031,-6.26e-4 -0.0099,-0.002 -0.0098,-0.002 6.36e-4,2.24e-4 -0.02475,-0.01062 -0.0332,-0.01563 -0.0085,-0.005 -0.01462,-0.0098 -0.01953,-0.01367 -0.0098,-0.0077 -0.01458,-0.01243 -0.01758,-0.01563 z M 11.074219,15.875 c 0.0035,0.01772 -0.0084,0.0337 -0.002,0.05078 0.0032,0.0085 -0.0054,-0.0076 0,-0.04492 4.16e-4,-0.0029 0.0013,-0.003 0.002,-0.0059 z"
               transform="matrix(6.6091378,0,0,6.5484373,485.09329,-2.8449645e-6)" />
            <path
               id="rect3623-6"
               style="fill:#000000;stroke-width:45.0537;paint-order:markers stroke fill;stop-color:#000000"
               d="m 486.57527,82.014998 77.65737,76.944122 77.65737,-76.944122 h -14.88347 l -62.78681,62.210142 -62.7868,-62.210142 z" />
            <path
               id="path3012"
               style="fill:#000000;stroke-width:0.999998"
               d="m 564.27781,70.838515 c -4.43292,1.102881 -3.39335,8.213246 -5.34425,11.344617 1.15005,2.873049 1.86625,-4.128973 2.90933,-0.325117 0.90602,3.364843 1.39134,-1.581329 2.4796,-1.018904 0.84911,2.393585 1.67107,2.745767 2.45345,0.120446 0.97014,-1.50658 1.40273,3.891605 2.26784,1.378885 1.0817,-2.202273 -4.91348,-8.739741 0.52632,-8.302509 1.31714,-2.347497 -4.65623,-3.977239 -2.9276,-2.806555 -0.93729,2.247548 -1.7143,-0.544431 -2.36469,-0.390863 z m -66.78844,4.374146 c 1.40672,1.697106 3.8708,5.527988 6.94506,5.03918 8.40761,0 16.81523,0 25.22285,0 -2.18822,-2.146316 -1.87869,-6.290775 -5.88035,-5.039219 -8.76252,1.3e-5 -17.52504,2.6e-5 -26.28756,3.9e-5 z m 30.32201,0 c -0.45756,2.925791 2.76683,5.710441 5.72524,5.039213 4.36509,0 8.73018,0 13.09528,0 2.31646,3.520747 5.29742,8.279654 10.00398,8.313431 0.33041,-4.036614 -0.41007,-7.446497 -3.5713,-10.027387 0.0549,-3.869858 -2.93143,-3.45544 -5.66587,-3.325257 -6.52911,0 -13.05823,0 -19.58733,0 z m 48.72948,0 c -1.45977,4.681151 -6.24626,7.179497 -4.7851,12.726279 2.18355,1.908956 7.07629,-3.130636 8.73511,-5.832522 0.44798,-2.888248 3.54111,-1.561697 5.53201,-1.854517 3.91638,-0.155715 7.91978,0.321109 11.77823,-0.255782 2.63529,-1.129501 4.32539,-6.066512 0.0705,-4.783411 -7.11026,-1.3e-5 -14.22053,-3.3e-5 -21.33079,-4.6e-5 z m 24.86172,0 c -0.69572,3.118379 -4.74118,5.950912 0.433,5.039226 7.9794,0 15.95881,0 23.93821,0 1.73404,-1.594479 3.46807,-3.188952 5.20211,-4.783431 -1.40853,-0.621184 -3.46037,-0.0678 -5.10615,-0.255782 -8.15573,-6e-6 -16.31145,-6e-6 -24.46717,-1.3e-5 z m -58.72064,5.461299 c -0.34156,3.715511 5.43053,-1.228042 0.69659,1.9e-5 -0.2322,-6e-6 -0.46439,-1.3e-5 -0.69659,-1.9e-5 z m 39.91299,0 c 0.78924,3.26063 5.14164,-0.04559 1.85856,-5.9e-5 -0.61952,1.9e-5 -1.23904,3.9e-5 -1.85856,5.9e-5 z m -44.53423,0.07675 c -0.28089,0.233355 0.30454,0.183245 0,0 z m 52.17605,0 c -0.30455,0.183245 0.28088,0.233355 0,0 z m -86.87402,0.08952 c 2.04945,2.263035 4.24077,5.292388 7.73916,4.450861 7.64379,0 15.28756,0 22.93135,0 -0.98833,-2.633002 -1.54761,-5.444102 -4.96381,-4.450875 -8.5689,7e-6 -17.1378,7e-6 -25.7067,1.4e-5 z m 29.57331,0 c 0.0439,2.050066 3.20362,0.775387 4.62148,1.010358 -0.027,-1.962842 -3.3286,-0.609745 -4.62148,-1.010358 z m 6.80276,0 c -3.46488,1.328147 0.51591,5.396685 2.53003,2.097484 1.18365,-1.32435 -1.1842,-2.568743 -2.53003,-2.097484 z m 46.80613,0 c -2.53859,1.645327 1.46167,3.914348 2.59462,3.312592 2.25605,-3.178035 -0.0337,-3.435513 -2.59462,-3.312592 z m 4.53087,0 c -1.14073,2.064715 2.7901,0.691613 3.95,1.087106 1.42971,-2.008301 -2.92057,-0.723164 -3.95,-1.087106 z m 5.04721,0 c -1.47139,2.807878 -2.84835,5.403908 1.33664,4.450874 7.61797,0 15.23594,0 22.85391,0 0.62667,-1.008171 6.3184,-4.435499 3.45926,-4.450888 -9.2166,7e-6 -18.43321,7e-6 -27.64981,1.4e-5 z m -49.74925,0.332529 c -4.72255,-0.05401 -1.4636,6.664856 0.87504,2.57034 1.29772,-0.556394 -0.21792,-2.174624 -0.87504,-2.57034 z m 35.45957,0 c -4.1821,2.691107 3.95356,5.82198 2.43961,1.342967 -0.81311,-0.413069 -1.59288,-1.073819 -2.43961,-1.342967 z m -24.65518,0.51163 c -1.13174,0.59412 0.48151,0.995965 0,0 z m 3.89836,0 c -2.3527,1.467275 0.31753,7.1505 1.01974,2.398031 0.08,-0.870726 -0.60389,-1.690715 -1.01974,-2.398031 z m 2.94313,0 c -2.12384,1.301698 0.0158,7.232775 1.09715,2.685887 0.0546,-0.957473 -0.42607,-2.058396 -1.09715,-2.685887 z m 3.11095,0 c -2.77523,1.872329 0.77166,7.057401 1.00687,2.007999 -0.37821,-0.61275 -0.46624,-1.558914 -1.00687,-2.007999 z m 3.02058,0 c -1.4054,1.347648 -1.28387,3.091576 -0.16781,4.617172 1.3063,-1.268229 1.7218,-3.055049 0.16781,-4.617172 z m 0.81323,0 c -0.18015,2.160918 1.13405,0.214631 0,0 z m -13.16664,0.07675 c -1.73487,0.92758 -0.13476,6.462083 0.97796,3.228105 0.79786,-0.949 0.005,-2.834727 -0.97796,-3.228105 z m -24.26793,0.754609 c -0.0119,2.162851 3.11375,0.795308 4.57055,1.176689 0.56614,-2.059837 -3.19459,-0.852803 -4.57055,-1.176689 z m 56.95218,0 c -1.61496,1.767673 4.19906,1.782714 4.37596,0.166292 -1.27292,-0.38607 -2.98269,-0.05649 -4.37596,-0.166292 z m -47.46445,0.767392 c -3.67634,-0.359077 -3.97678,5.08978 -0.94164,4.735123 2.74571,-1.518812 3.07491,-2.770369 0.94164,-4.735123 z m 42.09453,0 c -2.53524,1.853784 -0.35929,4.881827 2.05242,4.783431 2.31261,-2.741405 1.11717,-3.861319 -2.05242,-4.783431 z m -36.96987,0.409278 c -4.53017,0.820885 -0.56226,7.012007 1.30373,2.609185 1.15788,-0.671306 -0.84148,-2.182777 -1.30373,-2.609185 z m 31.8452,0 c -3.9853,2.13534 2.31607,6.836575 2.43972,1.931212 -0.77826,-0.628925 -1.52663,-1.58442 -2.43972,-1.931212 z m -45.45073,0.677868 c -0.1142,1.873979 3.70171,1.668869 4.53086,0.920887 -0.42499,-1.814016 -3.20278,-0.541818 -4.53086,-0.920887 z m 55.36444,0 c -1.9314,1.901738 3.27194,1.9256 3.85962,0.498729 0.53587,-1.061463 -3.26849,-0.232431 -3.85962,-0.498729 z m -21.26026,0.422046 c -2.38763,0.620818 -0.27892,6.61531 0.64394,3.416641 1.13741,-1.218906 -0.24311,-2.190603 -0.64394,-3.416641 z m -9.24246,0.166265 c -1.07753,1.422033 -1.09714,3.077301 0.0904,4.361358 1.44814,-1.120497 1.46045,-3.375006 -0.0904,-4.361358 z m 3.2013,0 c -2.69517,1.890685 0.94338,6.995938 1.00684,1.841761 -0.38087,-0.496208 -0.45722,-1.625099 -1.00684,-1.841761 z m 2.85277,0 c -1.1211,1.327853 -1.20846,3.303235 0.1678,4.361358 1.41256,-1.177953 1.39488,-3.500513 -0.1678,-4.361358 z m 5.79591,0.754603 c -2.03881,2.902189 0.72152,3.233075 0,0 z m -62.76099,0.08952 c 1.97624,1.662524 3.73135,3.875247 5.84113,5.205497 9.36508,0 18.73016,0 28.09523,0 -2.72906,-1.287226 -6.36135,-3.784728 -9.13937,-5.205458 -8.26566,-1.3e-5 -16.53133,-2.6e-5 -24.79699,-3.9e-5 z m 85.36372,0 c -0.99552,3.028646 -8.10157,3.950725 -7.31901,5.205471 9.24244,0 18.48487,0 27.72731,0 1.82009,-1.735166 3.64018,-3.470332 5.46028,-5.205497 -8.62286,6e-6 -17.24572,1.9e-5 -25.86858,2.6e-5 z m -36.7246,0.243012 c -0.65649,2.546642 1.41634,2.62576 0,0 z m -21.07954,0.166265 c -0.35188,1.504386 2.68347,1.477858 4.11781,1.342928 -0.45765,-2.108754 -2.51769,-1.033566 -4.11781,-1.342928 z m 14.27677,0 c -2.51528,1.314442 -2.18783,4.587004 0.72308,4.374134 1.71174,-2.026598 2.16498,-3.240763 -0.72308,-4.374134 z m 27.39178,0 c -4.16673,1.215999 0.42199,7.378288 2.27187,2.698631 -0.0304,-1.110556 -1.52111,-2.119408 -2.27187,-2.698631 z m 11.34655,0 c -2.66273,1.81615 2.40241,1.901188 3.08065,0.5288 1.58639,-1.076334 -2.90944,-0.274269 -3.08065,-0.5288 z m -43.94045,0.08952 c -1.96612,1.192039 -5.26379,2.988694 -1.52517,4.783339 1.83909,1.903539 5.15922,-3.258011 1.93866,-4.49579 -0.16867,-0.02987 -0.16909,-0.419689 -0.41349,-0.287549 z m 37.97673,0 c -2.61403,1.759395 -2.00241,3.775155 0.58089,5.550816 4.20933,-2.807453 3.1231,-3.15693 -0.58089,-5.550816 z m -25.11988,1.675477 c -1.91391,1.334519 0.0386,6.891765 1.02807,2.866074 0.44682,-0.833046 -0.52422,-2.163525 -1.02807,-2.866074 z m 3.09803,0 c -1.20723,1.418719 -1.31058,3.043249 -0.16781,4.540411 1.47618,-0.638577 1.44696,-3.26879 0.16781,-4.540411 z m 2.94313,0 c -2.85641,2.408509 1.38367,7.13764 1.00685,1.688233 -0.41421,-0.503123 -0.48927,-1.260862 -1.00685,-1.688233 z m 2.94313,0 c -2.18752,1.764699 0.52687,7.237326 1.17465,2.321329 -0.34513,-0.686924 -0.5,-1.920696 -1.17465,-2.321329 z m 3.02058,0 c -1.15009,1.517345 -1.18064,3.44176 0.16781,4.706689 1.232,-1.566851 1.1813,-3.459107 -0.16781,-4.706689 z m -31.83229,0.166265 c 1.58127,2.565684 4.59311,-0.206898 0.63871,-2.6e-5 -0.2129,6e-6 -0.42581,1.9e-5 -0.63871,2.6e-5 z m 49.90415,0 c -3.08777,2.811801 5.15439,-0.583093 0.34826,1.3e-5 l -0.29049,-1.3e-5 z m -34.78833,0.179034 c -3.66442,1.378905 -0.69559,5.802623 1.43282,3.862563 1.22633,-2.256218 1.84615,-3.530623 -1.43282,-3.862563 z m 21.59587,0 c -4.99572,-0.179512 -0.40093,7.742479 2.10405,2.94167 -0.40876,-0.958233 -1.1183,-2.513978 -2.10405,-2.94167 z m -27.22396,0.831344 c -3.18839,1.895439 -2.97489,4.883176 0.67122,5.806597 2.03175,-2.984823 3.19454,-3.633662 -0.67122,-5.806597 z m 32.92951,0 c -5.04551,0.659048 -0.762,8.773806 1.81015,4.186147 2.53645,-1.222861 -1.06021,-2.986958 -1.81015,-4.186147 z m -8.89393,0.345299 c -0.75699,1.674704 -0.0435,6.084487 1.51029,3.018391 -0.58994,-0.848665 -0.72418,-2.476305 -1.51029,-3.018391 z m -15.29654,0.166265 c -2.01541,1.412275 -0.74063,5.724401 0.42599,2.941695 -0.11845,-0.865068 0.31209,-2.563569 -0.42599,-2.941695 z m 3.11094,1.509205 c -1.07802,1.502415 -1.2487,3.028882 -0.0903,4.540418 1.61515,-1.051044 1.62046,-3.241771 0.0903,-4.540418 z m 3.11094,0 c -2.78241,2.121163 0.91834,6.686164 1.00683,2.110254 -0.20198,-0.674358 -0.59451,-1.529748 -1.00683,-2.110254 z m 3.02058,0 c -2.45472,1.118087 0.0593,7.281581 1.0843,2.609159 -0.0204,-0.935018 -0.62367,-1.823032 -1.0843,-2.609159 z m 2.85278,0 c -2.51466,1.982926 0.8584,7.189726 1.17466,2.097497 -0.43349,-0.593439 -0.57838,-1.776453 -1.17466,-2.097497 z m -17.55553,0.754609 c -3.14556,2.121779 -1.75141,5.620845 1.67808,5.077541 1.76414,-3.072056 2.13985,-4.033497 -1.67808,-5.077541 z m 26.21711,0 c -4.41765,-0.34467 -2.6212,6.776729 0.4647,4.706559 3.34595,-0.594618 0.84676,-3.23853 -0.29692,-4.706637 z m -6.38969,0.920874 c -1.14446,2.014561 0.92039,1.190126 0,0 z m -13.19246,0.255782 c -0.72823,0.844166 0.51821,1.387634 0,0 z m -2.68496,0.588312 c -3.57172,2.37464 -0.10278,6.528927 2.27186,3.91998 -0.31165,-1.84979 0.59747,-4.113107 -2.27186,-3.91998 z m 18.56238,0 c -4.03111,0.04141 -2.60583,7.709597 1.54846,3.99046 0.55403,-1.014929 -0.93325,-3.011135 -1.54846,-3.99046 z m -3.35621,0.588311 c -1.14626,1.501295 -1.32477,3.103462 -0.0903,4.617146 1.14527,-0.52967 0.9502,-3.808662 0.0903,-4.617146 z m -12.09523,0.07675 c -0.84075,0.740851 -0.59874,6.329616 0.69301,3.586546 1.00117,-1.238591 0.0835,-2.495635 -0.69301,-3.586546 z m 3.09803,0 c -2.01992,0.654346 -0.52901,6.299986 0.60419,3.507788 0.95651,-1.1624 0.11359,-2.437204 -0.60419,-3.507788 z m 5.88626,0.0131 c -1.03433,1.455659 -1.191,3.105433 0,4.527629 1.50453,-0.773115 1.4124,-3.536025 0,-4.527629 z m -2.4397,1.163716 c 0.392,2.284102 1.5175,1.351179 0,0 z m -1.08431,0.0131 c -1.52768,1.672216 0.42267,2.121248 0,0 z m 0.50342,0.575542 c -0.34703,1.679845 -1.0318,3.395738 -1.18758,5.051998 1.58661,0.92526 4.01466,0.42181 2.46624,-1.840081 -0.46537,-1.007392 -0.3495,-2.568015 -1.27866,-3.211917 z m 1.41993,1.342941 c -0.20192,2.688577 2.37215,4.188997 0.72297,0.80589 -0.55323,0.02111 -0.17346,-0.9139 -0.72297,-0.80589 z m -5.87335,0.08952 c -1.56312,1.39208 -0.51183,4.061047 -0.73126,4.615357 2.20385,-0.25996 2.4722,-3.492202 0.73126,-4.615357 z m 2.94312,0 c -2.11726,2.348066 0.21248,4.966897 0.41334,0.588311 0.0277,-0.288327 -0.0163,-0.679073 -0.41334,-0.588311 z m 6.04117,0 c -2.10037,1.952783 -0.35174,5.842837 1.17472,4.374087 -0.89837,-0.66458 0.77941,-3.436416 -1.17472,-4.374087 z m -10.53331,3.197477 c 0.41384,1.2654 -0.0958,0.11192 0,0 z m 3.09803,0 c -0.99833,0.94194 1.03328,0.3815 0,0 z m 5.92499,0 c -0.67647,0.7911 1.11942,0.5782 0,0 z m 3.07222,0 c -0.90044,1.23811 1.0855,0.43336 0,0 z m -2.93023,0.69065 c -0.3983,1.50096 -3.24387,1.7996 -0.33715,2.74386 -1.34417,-0.7223 -7.78878,0.83572 -4.00017,-1.02128 -1.33099,-2.02755 -4.0389,-0.19635 -3.09401,0.80023 0.68811,1.20452 -4.70095,1.62561 -4.63843,4.17816 -2.35496,2.35366 -3.27492,5.10247 -2.22835,8.51303 -0.39204,3.32427 1.39484,5.04651 4.21637,6.91254 1.33924,3.0494 4.70091,1.52461 6.58369,3.59601 3.49475,-1.22057 7.76326,-2.84884 9.40988,-5.71914 2.11417,-2.46044 2.13411,-5.61082 2.18851,-8.76977 -1.27007,-2.90276 -3.55019,-5.95201 -6.60317,-8.06176 -2.83015,-0.33668 2.90888,-0.69322 -0.81417,-1.88128 l -0.46361,-0.57055 -0.21961,-0.72002 z m -1.89754,4.24625 c -0.3789,2.05359 2.20329,2.4071 0.7824,0.54072 1.85351,0.82712 3.28846,3.59292 4.75746,3.47714 0.42442,-1.22832 -2.77549,-3.3737 0.28244,-1.37691 1.3489,2.16471 0.0871,5.59244 2.31649,6.91216 -0.33792,-3.57264 0.41719,-2.06225 0.2562,0.65527 -1.02341,2.22451 -2.39526,2.82839 -2.99424,5.34123 1.25027,1.13489 -3.26639,0.92773 -4.00992,2.19784 -1.52017,-1.12871 -0.35417,3.85619 -2.39025,-0.17054 -1.24166,-0.38464 -3.54992,3.25406 -3.18851,0.99925 1.975,-0.8481 -2.74496,-2.00651 -1.92866,-1.34768 -2.34137,1.15203 -5.00265,-3.94559 -3.71672,-3.08052 3.46546,3.32541 -0.23495,-1.71579 -0.42589,-3.25447 -3.03558,-1.26493 0.67291,-7.47174 -0.57411,-1.8601 1.28817,1.00139 1.10996,-3.23969 1.991,-4.09645 -1.51212,-1.99763 2.61865,-4.9991 0.72289,-1.7778 1.02101,1.4597 1.53717,-1.52721 2.81405,-0.25578 0.21777,-2.05648 3.78429,-3.32628 1.29104,-0.91134 2.20188,0.43192 0.74879,-2.84337 2.73706,-0.45057 1.13918,0.22256 0.81927,-0.99188 1.27727,-1.54145 z" />
            <path
               id="path3012-9"
               style="fill:#ffffff;stroke-width:0.999998"
               d="m 564.27781,70.838513 c -4.43292,1.102881 -3.39335,8.213246 -5.34425,11.344617 1.15005,2.873049 1.86625,-4.128973 2.90933,-0.325117 0.90602,3.364843 1.39134,-1.581329 2.4796,-1.018904 0.84911,2.393585 1.67107,2.745767 2.45345,0.120446 0.97014,-1.50658 1.40273,3.891605 2.26784,1.378885 1.0817,-2.202273 -4.91348,-8.739741 0.52632,-8.302509 1.31714,-2.347497 -4.65623,-3.977239 -2.9276,-2.806555 -0.93729,2.247548 -1.7143,-0.544431 -2.36469,-0.390863 z m -66.78844,4.374146 c 1.40672,1.697106 3.8708,5.527988 6.94506,5.03918 8.40761,0 16.81523,0 25.22285,0 -2.18822,-2.146316 -1.87869,-6.290775 -5.88035,-5.039219 -8.76252,1.3e-5 -17.52504,2.6e-5 -26.28756,3.9e-5 z m 30.32201,0 c -0.45756,2.925791 2.76683,5.710441 5.72524,5.039213 4.36509,0 8.73018,0 13.09528,0 2.31646,3.520747 5.29742,8.279654 10.00398,8.313431 0.33041,-4.036614 -0.41007,-7.446497 -3.5713,-10.027387 0.0549,-3.869858 -2.93143,-3.45544 -5.66587,-3.325257 -6.52911,0 -13.05823,0 -19.58733,0 z m 48.72948,0 c -1.45977,4.681151 -6.24626,7.179497 -4.7851,12.726279 2.18355,1.908956 7.07629,-3.130636 8.73511,-5.832522 0.44798,-2.888248 3.54111,-1.561697 5.53201,-1.854517 3.91638,-0.155715 7.91978,0.321109 11.77823,-0.255782 2.63529,-1.129501 4.32539,-6.066512 0.0705,-4.783411 -7.11026,-1.3e-5 -14.22053,-3.3e-5 -21.33079,-4.6e-5 z m 24.86172,0 c -0.69572,3.118379 -4.74118,5.950912 0.433,5.039226 7.9794,0 15.95881,0 23.93821,0 1.73404,-1.594479 3.46807,-3.188952 5.20211,-4.783431 -1.40853,-0.621184 -3.46037,-0.0678 -5.10615,-0.255782 -8.15573,-6e-6 -16.31145,-6e-6 -24.46717,-1.3e-5 z m -58.72064,5.461299 c -0.34156,3.715511 5.43053,-1.228042 0.69659,1.9e-5 -0.2322,-6e-6 -0.46439,-1.3e-5 -0.69659,-1.9e-5 z m 39.91299,0 c 0.78924,3.26063 5.14164,-0.04559 1.85856,-5.9e-5 -0.61952,1.9e-5 -1.23904,3.9e-5 -1.85856,5.9e-5 z m -44.53423,0.07675 c -0.28089,0.233355 0.30454,0.183245 0,0 z m 52.17605,0 c -0.30455,0.183245 0.28088,0.233355 0,0 z m -86.87402,0.08952 c 2.04945,2.263035 4.24077,5.292388 7.73916,4.450861 7.64379,0 15.28756,0 22.93135,0 -0.98833,-2.633002 -1.54761,-5.444102 -4.96381,-4.450875 -8.5689,7e-6 -17.1378,7e-6 -25.7067,1.4e-5 z m 29.57331,0 c 0.0439,2.050066 3.20362,0.775387 4.62148,1.010358 -0.027,-1.962842 -3.3286,-0.609745 -4.62148,-1.010358 z m 6.80276,0 c -3.46488,1.328147 0.51591,5.396685 2.53003,2.097484 1.18365,-1.32435 -1.1842,-2.568743 -2.53003,-2.097484 z m 46.80613,0 c -2.53859,1.645327 1.46167,3.914348 2.59462,3.312592 2.25605,-3.178035 -0.0337,-3.435513 -2.59462,-3.312592 z m 4.53087,0 c -1.14073,2.064715 2.7901,0.691613 3.95,1.087106 1.42971,-2.008301 -2.92057,-0.723164 -3.95,-1.087106 z m 5.04721,0 c -1.47139,2.807878 -2.84835,5.403908 1.33664,4.450874 7.61797,0 15.23594,0 22.85391,0 0.62667,-1.008171 6.3184,-4.435499 3.45926,-4.450888 -9.2166,7e-6 -18.43321,7e-6 -27.64981,1.4e-5 z m -49.74925,0.332529 c -4.72255,-0.05401 -1.4636,6.664856 0.87504,2.57034 1.29772,-0.556394 -0.21792,-2.174624 -0.87504,-2.57034 z m 35.45957,0 c -4.1821,2.691107 3.95356,5.82198 2.43961,1.342967 -0.81311,-0.413069 -1.59288,-1.073819 -2.43961,-1.342967 z m -24.65518,0.51163 c -1.13174,0.59412 0.48151,0.995965 0,0 z m 3.89836,0 c -2.3527,1.467275 0.31753,7.1505 1.01974,2.398031 0.08,-0.870726 -0.60389,-1.690715 -1.01974,-2.398031 z m 2.94313,0 c -2.12384,1.301698 0.0158,7.232775 1.09715,2.685887 0.0546,-0.957473 -0.42607,-2.058396 -1.09715,-2.685887 z m 3.11095,0 c -2.77523,1.872329 0.77166,7.057401 1.00687,2.007999 -0.37821,-0.61275 -0.46624,-1.558914 -1.00687,-2.007999 z m 3.02058,0 c -1.4054,1.347648 -1.28387,3.091576 -0.16781,4.617172 1.3063,-1.268229 1.7218,-3.055049 0.16781,-4.617172 z m 0.81323,0 c -0.18015,2.160918 1.13405,0.214631 0,0 z m -13.16664,0.07675 c -1.73487,0.92758 -0.13476,6.462083 0.97796,3.228105 0.79786,-0.949 0.005,-2.834727 -0.97796,-3.228105 z m -24.26793,0.754609 c -0.0119,2.162851 3.11375,0.795308 4.57055,1.176689 0.56614,-2.059837 -3.19459,-0.852803 -4.57055,-1.176689 z m 56.95218,0 c -1.61496,1.767673 4.19906,1.782714 4.37596,0.166292 -1.27292,-0.38607 -2.98269,-0.05649 -4.37596,-0.166292 z m -47.46445,0.767392 c -3.67634,-0.359077 -3.97678,5.08978 -0.94164,4.735123 2.74571,-1.518812 3.07491,-2.770369 0.94164,-4.735123 z m 42.09453,0 c -2.53524,1.853784 -0.35929,4.881827 2.05242,4.783431 2.31261,-2.741405 1.11717,-3.861319 -2.05242,-4.783431 z m -36.96987,0.409278 c -4.53017,0.820885 -0.56226,7.012007 1.30373,2.609185 1.15788,-0.671306 -0.84148,-2.182777 -1.30373,-2.609185 z m 31.8452,0 c -3.9853,2.13534 2.31607,6.836575 2.43972,1.931212 -0.77826,-0.628925 -1.52663,-1.58442 -2.43972,-1.931212 z m -45.45073,0.677868 c -0.1142,1.873979 3.70171,1.668869 4.53086,0.920887 -0.42499,-1.814016 -3.20278,-0.541818 -4.53086,-0.920887 z m 55.36444,0 c -1.9314,1.901738 3.27194,1.9256 3.85962,0.498729 0.53587,-1.061463 -3.26849,-0.232431 -3.85962,-0.498729 z m -21.26026,0.422046 c -2.38763,0.620818 -0.27892,6.61531 0.64394,3.416641 1.13741,-1.218906 -0.24311,-2.190603 -0.64394,-3.416641 z m -9.24246,0.166265 c -1.07753,1.422033 -1.09714,3.077301 0.0904,4.361358 1.44814,-1.120497 1.46045,-3.375006 -0.0904,-4.361358 z m 3.2013,0 c -2.69517,1.890685 0.94338,6.995938 1.00684,1.841761 -0.38087,-0.496208 -0.45722,-1.625099 -1.00684,-1.841761 z m 2.85277,0 c -1.1211,1.327853 -1.20846,3.303235 0.1678,4.361358 1.41256,-1.177953 1.39488,-3.500513 -0.1678,-4.361358 z m 5.79591,0.754603 c -2.03881,2.902189 0.72152,3.233075 0,0 z m -62.76099,0.08952 c 1.97624,1.662524 3.73135,3.875247 5.84113,5.205497 9.36508,0 18.73016,0 28.09523,0 -2.72906,-1.287226 -6.36135,-3.784728 -9.13937,-5.205458 -8.26566,-1.3e-5 -16.53133,-2.6e-5 -24.79699,-3.9e-5 z m 85.36372,0 c -0.99552,3.028646 -8.10157,3.950725 -7.31901,5.205471 9.24244,0 18.48487,0 27.72731,0 1.82009,-1.735166 3.64018,-3.470332 5.46028,-5.205497 -8.62286,6e-6 -17.24572,1.9e-5 -25.86858,2.6e-5 z m -36.7246,0.243012 c -0.65649,2.546642 1.41634,2.62576 0,0 z m -21.07954,0.166265 c -0.35188,1.504386 2.68347,1.477858 4.11781,1.342928 -0.45765,-2.108754 -2.51769,-1.033566 -4.11781,-1.342928 z m 14.27677,0 c -2.51528,1.314442 -2.18783,4.587004 0.72308,4.374134 1.71174,-2.026598 2.16498,-3.240763 -0.72308,-4.374134 z m 27.39178,0 c -4.16673,1.215999 0.42199,7.378288 2.27187,2.698631 -0.0304,-1.110556 -1.52111,-2.119408 -2.27187,-2.698631 z m 11.34655,0 c -2.66273,1.81615 2.40241,1.901188 3.08065,0.5288 1.58639,-1.076334 -2.90944,-0.274269 -3.08065,-0.5288 z m -43.94045,0.08952 c -1.96612,1.192039 -5.26379,2.988694 -1.52517,4.783339 1.83909,1.903539 5.15922,-3.258011 1.93866,-4.49579 -0.16867,-0.02987 -0.16909,-0.419689 -0.41349,-0.287549 z m 37.97673,0 c -2.61403,1.759395 -2.00241,3.775155 0.58089,5.550816 4.20933,-2.807453 3.1231,-3.15693 -0.58089,-5.550816 z m -25.11988,1.675477 c -1.91391,1.334519 0.0386,6.891765 1.02807,2.866074 0.44682,-0.833046 -0.52422,-2.163525 -1.02807,-2.866074 z m 3.09803,0 c -1.20723,1.418719 -1.31058,3.043249 -0.16781,4.540411 1.47618,-0.638577 1.44696,-3.26879 0.16781,-4.540411 z m 2.94313,0 c -2.85641,2.408509 1.38367,7.13764 1.00685,1.688233 -0.41421,-0.503123 -0.48927,-1.260862 -1.00685,-1.688233 z m 2.94313,0 c -2.18752,1.764699 0.52687,7.237326 1.17465,2.321329 -0.34513,-0.686924 -0.5,-1.920696 -1.17465,-2.321329 z m 3.02058,0 c -1.15009,1.517345 -1.18064,3.44176 0.16781,4.706689 1.232,-1.566851 1.1813,-3.459107 -0.16781,-4.706689 z m -31.83229,0.166265 c 1.58127,2.565684 4.59311,-0.206898 0.63871,-2.6e-5 -0.2129,6e-6 -0.42581,1.9e-5 -0.63871,2.6e-5 z m 49.90415,0 c -3.08777,2.811801 5.15439,-0.583093 0.34826,1.3e-5 l -0.29049,-1.3e-5 z m -34.78833,0.179034 c -3.66442,1.378905 -0.69559,5.802623 1.43282,3.862563 1.22633,-2.256218 1.84615,-3.530623 -1.43282,-3.862563 z m 21.59587,0 c -4.99572,-0.179512 -0.40093,7.742479 2.10405,2.94167 -0.40876,-0.958233 -1.1183,-2.513978 -2.10405,-2.94167 z m -27.22396,0.831344 c -3.18839,1.895439 -2.97489,4.883176 0.67122,5.806597 2.03175,-2.984823 3.19454,-3.633662 -0.67122,-5.806597 z m 32.92951,0 c -5.04551,0.659048 -0.762,8.773806 1.81015,4.186147 2.53645,-1.222861 -1.06021,-2.986958 -1.81015,-4.186147 z m -8.89393,0.345299 c -0.75699,1.674704 -0.0435,6.084487 1.51029,3.018391 -0.58994,-0.848665 -0.72418,-2.476305 -1.51029,-3.018391 z m -15.29654,0.166265 c -2.01541,1.412275 -0.74063,5.724401 0.42599,2.941695 -0.11845,-0.865068 0.31209,-2.563569 -0.42599,-2.941695 z m 3.11094,1.509205 c -1.07802,1.502415 -1.2487,3.028882 -0.0903,4.540418 1.61515,-1.051044 1.62046,-3.241771 0.0903,-4.540418 z m 3.11094,0 c -2.78241,2.121163 0.91834,6.686164 1.00683,2.110254 -0.20198,-0.674358 -0.59451,-1.529748 -1.00683,-2.110254 z m 3.02058,0 c -2.45472,1.118087 0.0593,7.281581 1.0843,2.609159 -0.0204,-0.935018 -0.62367,-1.823032 -1.0843,-2.609159 z m 2.85278,0 c -2.51466,1.982926 0.8584,7.189726 1.17466,2.097497 -0.43349,-0.593439 -0.57838,-1.776453 -1.17466,-2.097497 z m -17.55553,0.754609 c -3.14556,2.121779 -1.75141,5.620845 1.67808,5.077541 1.76414,-3.072056 2.13985,-4.033497 -1.67808,-5.077541 z m 26.21711,0 c -4.41765,-0.34467 -2.6212,6.776729 0.4647,4.706559 3.34595,-0.594618 0.84676,-3.23853 -0.29692,-4.706637 z m -6.38969,0.920874 c -1.14446,2.014561 0.92039,1.190126 0,0 z m -13.19246,0.255782 c -0.72823,0.844166 0.51821,1.387634 0,0 z m -2.68496,0.588312 c -3.57172,2.37464 -0.10278,6.528929 2.27186,3.91998 -0.31165,-1.84979 0.59747,-4.113107 -2.27186,-3.91998 z m 18.56238,0 c -4.03111,0.04141 -2.60583,7.709599 1.54846,3.99046 0.55403,-1.014929 -0.93325,-3.011135 -1.54846,-3.99046 z m -3.35621,0.588311 c -1.14626,1.501295 -1.32477,3.103462 -0.0903,4.617146 1.14527,-0.52967 0.9502,-3.808662 0.0903,-4.617146 z m -12.09523,0.07675 c -0.84075,0.740851 -0.59874,6.329618 0.69301,3.586546 1.00117,-1.238591 0.0835,-2.495635 -0.69301,-3.586546 z m 3.09803,0 c -2.01992,0.654346 -0.52901,6.299988 0.60419,3.507788 0.95651,-1.1624 0.11359,-2.437204 -0.60419,-3.507788 z m 5.88626,0.0131 c -1.03433,1.455659 -1.191,3.105433 0,4.527629 1.50453,-0.773115 1.4124,-3.536025 0,-4.527629 z m -2.4397,1.163716 c 0.392,2.284102 1.5175,1.351179 0,0 z m -1.08431,0.0131 c -1.52768,1.672216 0.42267,2.121248 0,0 z m 0.50342,0.575542 c -0.34703,1.679845 -1.0318,3.395738 -1.18758,5.052 1.58661,0.92526 4.01466,0.42181 2.46624,-1.840083 -0.46537,-1.007392 -0.3495,-2.568015 -1.27866,-3.211917 z m 1.41993,1.342941 c -0.20192,2.688579 2.37215,4.188999 0.72297,0.80589 -0.55323,0.02111 -0.17346,-0.9139 -0.72297,-0.80589 z m -5.87335,0.08952 c -1.56312,1.39208 -0.51183,4.061049 -0.73126,4.615359 2.20385,-0.25996 2.4722,-3.492204 0.73126,-4.615359 z m 2.94312,0 c -2.11726,2.348066 0.21248,4.966899 0.41334,0.588311 0.0277,-0.288327 -0.0163,-0.679073 -0.41334,-0.588311 z m 6.04117,0 c -2.10037,1.952783 -0.35174,5.842839 1.17472,4.374089 -0.89837,-0.66458 0.77941,-3.436418 -1.17472,-4.374089 z m -10.53331,3.197479 c 0.41384,1.2654 -0.0958,0.11192 0,0 z m 3.09803,0 c -0.99833,0.94194 1.03328,0.3815 0,0 z m 5.92499,0 c -0.67647,0.7911 1.11942,0.5782 0,0 z m 3.07222,0 c -0.90044,1.23811 1.0855,0.43336 0,0 z m -2.93023,0.69065 c -0.3983,1.50096 -3.24387,1.7996 -0.33715,2.74386 -1.34417,-0.7223 -7.78878,0.83572 -4.00017,-1.02128 -1.33099,-2.02755 -4.0389,-0.19635 -3.09401,0.80023 0.68811,1.20452 -4.70095,1.62561 -4.63843,4.17816 -2.35496,2.35366 -3.27492,5.10247 -2.22835,8.51303 -0.39204,3.32427 1.39484,5.04651 4.21637,6.91254 1.33924,3.0494 4.70091,1.52461 6.58369,3.59601 3.49475,-1.22057 7.76326,-2.84884 9.40988,-5.71914 2.11417,-2.46044 2.13411,-5.61082 2.18851,-8.76977 -1.27007,-2.90276 -3.55019,-5.95201 -6.60317,-8.06176 -2.83015,-0.33668 2.90888,-0.69322 -0.81417,-1.88128 l -0.46361,-0.57055 -0.21961,-0.72002 z m -1.89754,4.24625 c -0.3789,2.05359 2.20329,2.4071 0.7824,0.54072 1.85351,0.82712 3.28846,3.59292 4.75746,3.47714 0.42442,-1.22832 -2.77549,-3.3737 0.28244,-1.37691 1.3489,2.16471 0.0871,5.59244 2.31649,6.91216 -0.33792,-3.57264 0.41719,-2.06225 0.2562,0.65527 -1.02341,2.22451 -2.39526,2.82839 -2.99424,5.34123 1.25027,1.13489 -3.26639,0.92773 -4.00992,2.19784 -1.52017,-1.12871 -0.35417,3.85619 -2.39025,-0.17054 -1.24166,-0.38464 -3.54992,3.25406 -3.18851,0.99925 1.975,-0.8481 -2.74496,-2.00651 -1.92866,-1.34768 -2.34137,1.15203 -5.00265,-3.94559 -3.71672,-3.08052 3.46546,3.32541 -0.23495,-1.71579 -0.42589,-3.25447 -3.03558,-1.26493 0.67291,-7.47174 -0.57411,-1.8601 1.28817,1.00139 1.10996,-3.23969 1.991,-4.09645 -1.51212,-1.99763 2.61865,-4.9991 0.72289,-1.7778 1.02101,1.4597 1.53717,-1.52721 2.81405,-0.25578 0.21777,-2.05648 3.78429,-3.32628 1.29104,-0.91134 2.20188,0.43192 0.74879,-2.84337 2.73706,-0.45057 1.13918,0.22256 0.81927,-0.99188 1.27727,-1.54145 z" />
          </g>
        </g>
      </g>
    </g>
  </g>
</svg>
