<?xml version="1.0" encoding="UTF-8" standalone="no"?>
<!-- Created with Inkscape (http://www.inkscape.org/) -->

<svg
   width="7.9961739mm"
   height="8mm"
   viewBox="0 0 7.996174 7.9999999"
   version="1.1"
   id="svg47190"
   inkscape:version="1.1.1 (3bf5ae0d25, 2021-09-20)"
   sodipodi:docname="15th.svg"
   xmlns:inkscape="http://www.inkscape.org/namespaces/inkscape"
   xmlns:sodipodi="http://sodipodi.sourceforge.net/DTD/sodipodi-0.dtd"
   xmlns="http://www.w3.org/2000/svg"
   xmlns:svg="http://www.w3.org/2000/svg">
  <sodipodi:namedview
     id="namedview47192"
     pagecolor="#ffffff"
     bordercolor="#666666"
     borderopacity="1.0"
     inkscape:pageshadow="2"
     inkscape:pageopacity="0.0"
     inkscape:pagecheckerboard="0"
     inkscape:document-units="mm"
     showgrid="false"
     inkscape:zoom="16"
     inkscape:cx="31.59375"
     inkscape:cy="10.15625"
     inkscape:window-width="1920"
     inkscape:window-height="1017"
     inkscape:window-x="-8"
     inkscape:window-y="-8"
     inkscape:window-maximized="1"
     inkscape:current-layer="g31631"
     inkscape:snap-bbox="true"
     inkscape:snap-bbox-midpoints="true"
     inkscape:snap-page="true" />
  <defs
     id="defs47187">
    <clipPath
       clipPathUnits="userSpaceOnUse"
       id="clipPath63680-8">
      <path
         d="M 0,0 H 595.276 V 841.89 H 0 Z"
         id="path63678-4" />
    </clipPath>
  </defs>
  <g
     inkscape:label="Layer 1"
     inkscape:groupmode="layer"
     id="layer1"
     transform="translate(-95.587164,-80.934645)">
    <g
       inkscape:label="Capa 1"
       id="layer1-5"
       transform="matrix(0.01238547,0,0,0.01238547,86.37603,76.630162)">
      <g
         id="g4299"
         transform="translate(1.9492421e-6)">
        <g
           id="g31631"
           transform="matrix(5.4254363,0,0,5.4254363,1570.8141,1953.9589)">
          <path
             style="fill:#ffffff;stroke-width:0.264583;fill-opacity:1"
             d="m -87.239468,-177.31266 c 35.10444,-3.41599 59.52749,-36.42057 52.61204,-71.09831 -5.9111,-29.64137 -33.86627,-50.33687 -64.02951,-47.4017 -37.963362,3.69419 -62.707392,41.69874 -50.769642,77.97747 8.62707,26.2176 34.68662,43.1986 62.187112,40.52254 z"
             id="path31389" />
          <circle
             style="fill:#ffff00;stroke-width:0.218138;stroke-linejoin:round;paint-order:markers fill stroke;stop-color:#000000"
             id="path31188"
             cx="-92.941582"
             cy="-236.48468"
             r="54.622372" />
          <path
             style="fill:#000000;stroke-width:0.264583"
             d="m -126.3739,-243.61822 c -0.097,-0.097 -0.25576,-0.097 -0.35278,0 -0.097,0.097 -0.0176,0.17639 0.17639,0.17639 0.19403,0 0.2734,-0.0794 0.17639,-0.17639 z"
             id="path31393" />
          <path
             style="fill:#ff0000;stroke-width:0.264583"
             d="m -80.724758,-187.51643 c -0.15642,-0.29229 -0.24436,-1.34795 -0.19542,-2.34593 0.0489,-0.99798 -0.009,-2.00186 -0.12938,-2.23084 -0.12009,-0.22899 -0.28207,-0.62269 -0.35994,-0.8749 -0.16173,-0.52378 -0.78437,-0.37899 -1.59075,0.36991 -0.65413,0.6075 -0.95212,0.39643 -0.95212,-0.67442 0,-0.84211 0.37639,-1.39559 1.45521,-2.13986 l 0.52916,-0.36507 -0.49207,-0.83726 c -0.36051,-0.6134 -0.41357,-0.91577 -0.19844,-1.13089 0.1615,-0.1615 0.29364,-0.38889 0.29364,-0.50531 0,-0.33145 -0.9163,-0.24786 -1.28102,0.11685 -0.5018,0.50181 -0.82868,-0.224 -0.54553,-1.2113 0.32942,-1.14863 0.72739,-1.46166 2.76227,-2.1727 2.16472,-0.75641 3.03147,-0.46366 3.52734,1.19139 0.71514,2.38693 3.3357,2.28755 4.53417,-0.17195 0.92415,-1.89654 1.0118,-2.14444 1.58704,-4.48869 0.68106,-2.77549 0.2485,-3.64775 -1.47433,-2.973 -1.08914,0.42656 -4.61202,-0.0404 -4.61202,-0.61131 0,-0.11534 -0.12609,-0.2097 -0.2802,-0.2097 -0.15411,0 -0.22854,0.0893 -0.1654,0.19843 0.0631,0.10914 0.0258,0.43657 -0.0829,0.72761 -0.21631,0.57908 0.23265,1.67407 0.92042,2.24487 0.55134,0.45758 0.0904,0.78806 -1.10711,0.79379 -1.11884,0.005 -2.09107,-0.459 -2.60577,-1.24451 l -0.41792,-0.63784 -0.63737,1.27904 c -0.50024,1.00385 -2.23837,2.64467 -2.23837,2.11305 0,-0.0614 -0.47625,-0.0246 -1.05833,0.0818 -1.2417,0.22706 -1.28402,0.0915 -0.38494,-1.23339 0.54229,-0.79911 0.65819,-1.25213 0.59531,-2.32686 l -0.0781,-1.33455 -1.39227,-0.0106 c -1.5964,-0.0121 -2.3604,-0.5665 -2.49437,-1.81 -0.0683,-0.63436 0.0274,-0.77979 0.57044,-0.86697 1.93723,-0.31096 2.56334,-1.4485 1.89192,-3.43731 -0.74267,-2.19988 -0.42739,-6.63327 0.67626,-9.50934 0.2913,-0.75913 -4.1856,-0.36087 -6.01845,0.53539 -1.84641,0.90289 -2.65758,1.37003 -2.86042,1.64725 -0.0895,0.1223 -0.39286,0.34939 -0.67418,0.50464 -0.96409,0.53204 -1.08306,1.04019 -0.59573,2.54459 0.7553,2.33165 1.21043,2.69296 3.46092,2.74747 2.61327,0.0633 3.59942,0.67819 3.59942,2.24434 0,0.46524 -0.11346,0.54775 -0.58401,0.4247 -0.39039,-0.10209 -0.87465,0.069 -1.46067,0.51594 l -0.87666,0.66866 0.53463,0.75082 c 0.29405,0.41295 0.53463,0.86668 0.53463,1.0083 0,0.14162 0.15853,0.38906 0.35229,0.54987 0.3469,0.2879 0.39023,2.91731 0.057,3.45655 -0.0816,0.13209 -0.49561,-0.10703 -0.91994,-0.53137 -0.45311,-0.45311 -1.05291,-0.77152 -1.45333,-0.77152 -0.82485,0 -0.82424,-0.007 -0.10506,1.21187 0.8308,1.4081 0.81575,3.29225 -0.0335,4.19675 -0.53994,0.57504 -0.68429,0.62354 -0.86971,0.29223 -0.44548,-0.79604 -2.62561,-2.09524 -2.85145,-1.69926 -0.89848,1.57538 -1.4576,2.3043 -2.09734,2.73426 l -0.74247,0.49901 0.72559,0.61055 c 1.22369,1.02967 1.47647,2.00079 0.90333,3.47036 -0.56635,1.45214 -0.56183,1.4347 -0.6052,2.33673 -0.0359,0.7473 -1.708482,2.6275 -2.114252,2.37673 -0.13337,-0.0824 -0.18831,-0.55191 -0.12209,-1.0433 0.13095,-0.9717 -0.46862,-1.49035 -1.10873,-0.9591 -0.24657,0.20463 -0.55077,0.0614 -1.15709,-0.54496 -0.45242,-0.45241 -0.82258,-0.71627 -0.82258,-0.58636 0,0.12992 -0.50601,0.52603 -1.12447,0.88025 -1.12681,0.64537 -1.25144,0.68915 -2.12322,0.74581 -0.25826,0.0168 -0.57742,0.31418 -0.70923,0.66088 -0.6246,1.64282 -3.29798,2.21981 -4.6033,0.99352 -0.76131,-0.71521 -1.01026,-0.7102 -1.47991,0.0298 l -0.37784,0.59531 -0.16281,-0.66145 c -0.0895,-0.36381 -2.6e-4,-1.31631 0.19818,-2.11667 0.41539,-1.67452 0.42602,-1.75116 0.37012,-2.66776 -0.0448,-0.73461 -0.41192,-0.80477 -1.62918,-0.31136 -1.48127,0.60041 -0.96606,-1.55234 0.52943,-2.21215 1.17688,-0.51924 1.19671,-0.55657 0.66704,-1.25595 -0.32304,-0.42652 -0.32176,-0.57413 0.009,-1.07945 0.48306,-0.73725 0.25641,-0.97986 -0.60826,-0.65112 -0.79006,0.30038 -0.96673,0.1911 -0.7556,-0.46738 0.30801,-0.96062 1.33292,-1.81694 2.27471,-1.90055 0.50932,-0.0452 1.01812,-0.1702 1.13067,-0.27776 0.78896,-0.754 3.04915,0.96974 2.6467,2.01851 -0.21679,0.56494 1.08987,1.66122 1.98002,1.66122 1.33197,0 3.28565,-2.59171 4.50805,-5.98029 1.09564,-3.03718 0.69147,-4.0424 -2.61787,-6.51099 -2.23817,-1.66956 -3.41423,-3.31256 -3.41423,-4.76983 0,-1.36966 -1.53905,-1.04251 -2.1211,0.45088 -0.18612,0.47755 -0.26222,0.41882 -0.67369,-0.51998 -0.59867,-1.3659 -0.61492,-3.27963 -0.0349,-4.10776 l 0.44711,-0.63833 -1.11364,-0.43541 c -1.50596,-0.58881 -2.17958,-1.85116 -1.93536,-3.62686 0.20553,-1.49436 0.61696,-2.27659 0.86401,-1.64268 0.62833,1.61227 3.10505,2.80788 2.81528,1.35905 -0.20278,-1.01394 1.01886,-3.50557 2.00414,-4.08759 l 0.73884,-0.43644 0.14173,0.87337 c 0.0779,0.48036 0.4324,1.30171 0.78767,1.82523 l 0.64595,0.95185 0.63519,-0.57346 c 1.11445,-1.00615 2.46883,-1.9467 3.08259,-2.14073 0.32742,-0.1035 0.59531,-0.29923 0.59531,-0.43495 0,-0.13571 0.18199,-0.24675 0.40443,-0.24675 0.22243,0 1.1436,-0.37314 2.04705,-0.8292 1.523812,-0.76921 4.653602,-2.04173 4.956862,-2.01537 0.83529,0.0726 3.89638,-1.02487 3.65839,-1.31163 -0.15598,-0.18794 -0.42112,-0.34171 -0.58921,-0.34171 -0.27815,0 -2.87925,-1.76284 -4.74883,-3.21842 -0.85892,-0.66871 -3.18795,-4.01603 -3.804472,-5.46785 -0.27003,-0.63586 -0.45741,-0.83404 -0.54288,-0.57415 -0.0718,0.21828 -0.59055,1.34365 -1.1528,2.50082 -0.56226,1.15718 -1.02229,2.23775 -1.02229,2.40128 0,0.49635 -1.29539,1.54974 -2.02612,1.6476 -0.57032,0.0764 -0.65492,0.0112 -0.49913,-0.3846 0.10317,-0.26211 0.25588,-1.12014 0.33935,-1.90674 0.1833,-1.72741 -0.22797,-1.6662 -0.72468,0.10785 -0.21965,0.78451 -0.74427,1.61762 -1.50382,2.38806 -1.3979,1.41797 -1.68479,1.47313 -1.4923,0.28697 0.18327,-1.12936 -0.59625,-2.01416 -1.77451,-2.01416 -0.92822,0 -1.22482,0.50196 -0.78367,1.32625 0.45681,0.85355 -0.12768,2.09883 -1.07395,2.28808 -0.56888,0.11378 -0.76715,0.33572 -0.89136,0.99778 -0.17765,0.94698 -1.2843,2.1171 -2.21453,2.34153 -0.50076,0.12082 -0.58129,0.058 -0.46302,-0.36098 0.0787,-0.27898 0.20016,-0.7156 0.26983,-0.97026 0.0939,-0.3432 -0.15219,-0.5805 -0.95083,-0.91698 l -1.0775,-0.45396 0.17575,-1.04024 c 0.38507,-2.27921 -1.48259,-1.08034 -2.36881,1.52056 -0.79259,2.32613 -2.83985,3.64169 -3.94592,2.53562 -0.53336,-0.53337 -1.23481,-0.11373 -1.97508,1.18159 l -0.53934,0.94372 -0.43688,-1.04561 c -0.35348,-0.84599 -0.38144,-1.23071 -0.14643,-2.01507 0.50629,-1.68986 0.38018,-2.76662 -0.3637,-3.10556 -0.37921,-0.17278 -0.72256,-0.60766 -0.8169,-1.03466 -0.0895,-0.40513 -0.1844,-0.83284 -0.21088,-0.95047 -0.0265,-0.11763 -0.56932,0.16367 -1.20631,0.6251 l -1.15817,0.83898 0.14549,-1.08476 c 0.16999,-1.26736 2.20847,-4.3011 3.31733,-4.93698 l 0.71589,-0.41052 -0.8599,0.0978 c -0.94098,0.10703 -1.00368,8e-4 -0.56614,-0.95954 0.31516,-0.6917 1.24705,-1.23225 2.12436,-1.23225 0.29762,0 0.84386,-0.23813 1.21385,-0.52917 1.40499,-1.10517 2.62264,-0.49028 3.51861,1.77683 0.95624,2.4196 1.66919,2.43168 4.16433,0.0705 0.76617,-0.72502 1.49185,-1.31821 1.61264,-1.31821 0.12078,0 0.43511,-0.23813 0.6985,-0.52917 0.26339,-0.29104 0.62297,-0.52917 0.79907,-0.52917 0.1761,0 0.60414,-0.21638 0.95118,-0.48086 0.34705,-0.26448 1.04771,-0.64781 1.55704,-0.85184 1.61658,-0.64761 5.57638,-3.49277 5.27932,-3.79325 -0.0795,-0.0805 -0.7344,0.0328 -1.45521,0.25182 -0.72081,0.21897 -1.99487,0.44339 -2.83124,0.49872 -0.83636,0.0553 -1.92419,0.23376 -2.41739,0.39653 -1.09981,0.36298 -2.29909,0.17418 -2.7421,-0.43168 -0.48761,-0.66685 -0.42962,-0.76395 0.67363,-1.12806 1.21291,-0.4003 2.33879,-1.20504 1.98865,-1.42143 -0.13936,-0.0861 -0.55451,-2.7e-4 -0.92254,0.19054 -0.82462,0.42782 -3.58859,0.35299 -4.47159,-0.12106 l -0.64216,-0.34475 0.86729,-0.35486 c 1.10628,-0.45265 1.58356,-1.41355 1.16185,-2.33911 -0.42425,-0.93113 -1.07677,-1.11944 -1.59997,-0.46172 -0.88775,1.11598 -2.67813,1.33158 -2.67813,0.3225 0,-0.2974 -1.28155,-0.0494 -1.7825,0.34496 -0.40567,0.31934 -1.6332,0.0335 -2.25239,-0.52453 -0.65469,-0.58999 -0.58052,-0.79656 0.36015,-1.00317 l 0.82317,-0.1808 -0.1566,-0.97928 c -0.1629,-1.01879 0.34407,-2.13674 0.97266,-2.1448 0.72706,-0.009 1.09374,-0.46274 0.72933,-0.90182 -0.43966,-0.52977 -1.65454,-0.53073 -3.43251,-0.003 -1.03976,0.30877 -1.59118,0.34598 -2.16469,0.14606 -0.42324,-0.14755 -0.76953,-0.21029 -0.76953,-0.13943 0,0.0709 -0.2542,-0.10799 -0.56488,-0.39743 -0.43526,-0.40551 -0.52746,-0.71338 -0.40181,-1.34165 0.19825,-0.99125 -0.64188,-1.447 -2.14692,-1.16465 -1.66908,0.31312 -0.2751,-1.29431 2.22127,-2.5614 1.51542,-0.7692 1.70105,-0.9456 1.56509,-1.4873 -0.17565,-0.69986 0.51214,-1.93518 1.07747,-1.93518 0.79372,0 0.30316,-0.48945 -0.82418,-0.82231 -1.43049,-0.42237 -1.48758,-0.66812 -0.27308,-1.17557 1.70153,-0.71094 5.28522,-0.52172 5.94242,0.31377 0.34983,0.44474 0.54837,0.55452 0.54837,0.30322 0,-0.21666 -0.28565,-0.70215 -0.63477,-1.07886 l -0.63478,-0.68493 0.7211,-0.15838 c 0.93038,-0.20434 1.96922,0.19744 2.51122,0.97125 0.23577,0.33661 0.51567,0.61787 0.62201,0.62502 2.15182,0.14475 2.35252,1.78876 0.53611,4.39155 -1.18365,1.69609 -1.07446,2.38886 0.44886,2.84801 0.43773,0.13194 1.71861,0.51619 2.84639,0.85388 1.12779,0.3377 2.05052,0.70573 2.05052,0.81784 0,0.11211 0.14883,0.20415 0.33073,0.20452 0.1819,2.7e-4 1.01439,0.41293 1.84997,0.91678 l 1.51923,0.91611 0.59743,-0.63186 c 1.12235,-1.18701 2.94317,-1.9485 4.35139,-1.8198 0.70022,0.064 1.45172,0.12641 1.67,0.1387 0.21829,0.0123 0.54571,0.13977 0.72761,0.28327 0.1819,0.1435 0.33073,0.17223 0.33073,0.0638 0,-0.1084 0.14883,-0.0819 0.33073,0.0588 0.85983,0.66532 1.22561,0.60286 0.83655,-0.14285 -0.38366,-0.73539 -0.49811,-2.59076 -0.20665,-3.35028 0.14268,-0.37181 0.27949,-0.32699 0.94341,0.30909 1.325222,1.26964 4.354512,0.74166 5.768872,-1.00546 0.21143,-0.26116 3.13648,-1.86497 3.31853,-1.81955 0.0908,0.0227 0.23461,-0.0283 0.3195,-0.11314 0.48393,-0.48393 -2.31853,0.31295 -2.89202,0.82235 -0.61581,0.54699 -2.86843,0.76225 -3.1602,0.30198 -0.99483,-1.56935 1.5582,-4.15532 4.13399,-4.18733 0.61082,-0.008 0.70228,-0.069 0.39687,-0.26634 -0.674,-0.43557 -1.89472,-0.28576 -4.14837,0.5091 -1.1902,0.41979 -2.22912,0.69813 -2.30871,0.61854 -0.0796,-0.0796 -0.32618,0.006 -0.54798,0.18997 -0.2218,0.18408 -0.40327,0.246 -0.40327,0.1376 0,-0.1084 -0.15978,-0.0645 -0.355082,0.0976 -0.19528,0.16207 -0.42549,0.22426 -0.51156,0.13819 -0.0861,-0.0861 -0.31324,-0.0586 -0.50482,0.061 -0.92703,0.57882 -3.82916,0.58669 -4.91149,0.0133 -2.51204,-1.33076 -1.78473,-6.77788 0.99276,-7.43522 1.24122,-0.29376 1.50157,0.16799 0.95373,1.69149 -0.5251,1.46028 -0.42584,2.90045 0.23788,3.45129 0.8194,0.68004 4.750722,0.25406 7.204822,-0.78067 1.67255,-0.7052 3.22468,-1.02344 4.25444,-0.87231 0.96787,0.14206 1.13208,-0.29155 0.28259,-0.74618 -0.57668,-0.30863 -0.70967,-0.2918 -3.12679,0.39574 -1.68797,0.48014 -3.4347,0.18569 -3.49118,-0.58851 -0.0182,-0.24904 -0.0523,-0.75047 -0.076,-1.11427 -0.0236,-0.3638 -0.13722,-0.86116 -0.25247,-1.10524 -0.44762,-0.94795 -0.0657,-1.65649 1.2875,-2.38867 2.50718,-1.35655 3.96966,-2.05718 4.29948,-2.05976 0.1819,-0.001 0.33073,-0.17949 0.33073,-0.3957 0,-1.22526 4.69241,-2.7385 7.32782,-2.36312 0.84465,0.1203 1.65479,0.23564 1.80031,0.25629 0.39786,0.0565 1.25732,0.38612 1.85065,0.70984 0.29026,0.15836 1.12448,0.26378 1.85382,0.23428 0.72934,-0.0295 1.84628,0.12989 2.48209,0.35421 0.6358,0.22433 1.4387,0.40787 1.7842,0.40787 0.34551,0 0.6282,0.0654 0.6282,0.14543 0,0.37652 -0.81212,1.63848 -1.41961,2.20597 l -0.67614,0.6316 0.64188,0.50491 c 0.6876,0.54086 1.18541,1.93249 1.18781,3.32046 10e-4,0.65226 0.28452,1.15066 1.19402,2.09987 1.37734,1.43747 1.23335,1.75751 -0.71743,1.59451 -1.33766,-0.11177 -1.44486,0.47832 -0.20721,1.14069 1.15736,0.6194 1.45188,1.7482 1.45188,5.56457 v 3.58196 l -0.79375,-0.10947 c -0.43656,-0.0602 -0.92407,-0.21281 -1.08336,-0.3391 -0.20572,-0.1631 -0.26961,0.36387 -0.22056,1.81918 0.0639,1.89639 -0.44465,4.41473 -1.00462,4.9747 -0.10264,0.10264 -0.26393,0.86993 -0.35841,1.70508 l -0.1718,1.51846 -0.72594,-0.75962 c -0.89623,-0.93782 -1.06551,-0.94811 -1.06551,-0.0647 0,0.66448 -1.42182,3.79164 -1.84942,4.06762 -0.3288,0.21221 -1.061,2.59227 -1.061,3.44883 0,0.92582 -0.12106,0.95069 -1.25677,0.25824 -2.86842,-1.74891 1.28321,3.93042 5.23543,7.16195 2.41862,1.97758 5.54634,5.364 5.54634,6.00509 0,0.42018 2.44307,2.12782 3.65693,2.5561 1.08706,0.38354 4.60831,0.43858 4.96922,0.0777 0.10631,-0.10631 0.41157,-0.19329 0.67836,-0.19329 0.26679,0 0.48507,-0.11907 0.48507,-0.26459 0,-0.14552 0.15716,-0.26458 0.34925,-0.26458 0.79573,0 2.53307,-1.87859 3.07372,-3.32361 0.96206,-2.57136 0.74709,-4.90522 -0.97334,-10.56702 -0.0884,-0.29104 -1.13364,-2.49369 -2.32266,-4.89479 -3.69874,-7.46919 -3.89389,-8.58695 -2.48659,-14.24213 0.83671,-3.36225 0.84523,-4.25511 0.049,-5.1386 -0.6027,-0.66879 -3.20175,-0.63116 -4.56858,0.0661 -1.21885,0.62181 -1.50026,0.66477 -1.08617,0.16583 0.16585,-0.19984 0.22867,-0.55325 0.1396,-0.78536 -0.2398,-0.62491 0.66569,-2.76883 1.42002,-3.36219 1.30809,-1.02894 4.26713,-0.52371 4.82532,0.82389 0.43042,1.03911 0.58795,0.9866 1.29652,-0.43216 1.61866,-3.24105 0.47182,-5.49174 -3.22224,-6.32372 l -1.31403,-0.29594 0.68738,-0.8169 c 2.26779,-2.69512 9.23502,-0.91032 9.81354,2.51395 0.29171,1.72658 0.078,3.30022 -0.67989,5.00687 l -0.73437,1.65364 0.51258,0.0331 c 0.28191,0.0182 0.60187,0.0547 0.71101,0.0811 0.10914,0.0264 0.61045,0.14555 1.11402,0.26476 4.31709,1.02203 4.76624,7.94833 0.72503,11.1807 -0.60666,0.48524 -0.73335,0.10999 -0.30721,-0.90991 1.30883,-3.13247 -0.004,-5.35433 -3.07285,-5.19916 -4.31598,0.21825 -4.35996,7.72561 -0.0931,15.89099 0.92474,1.76967 1.7336,3.49608 1.79746,3.83646 0.20475,1.0914 0.50066,2.19877 0.66028,2.47096 0.0853,0.14552 0.19155,0.56224 0.23604,0.92604 0.0445,0.36381 0.17766,0.95912 0.29592,1.32292 0.49897,1.53491 0.35046,6.93144 -0.23975,8.71154 -1.66284,5.01525 -5.34124,7.69359 -10.11587,7.36562 -1.86803,-0.12831 -5.11597,-1.17927 -6.01947,-1.94776 -0.35454,-0.30156 -0.3894,-0.10639 -0.29938,1.67626 0.056,1.10966 -0.0389,2.64655 -0.21092,3.41531 -0.57718,2.5791 0.46539,3.69465 3.71935,3.97973 l 1.74946,0.15327 1.7565,-1.34629 c 0.96608,-0.74046 2.17312,-1.42444 2.68232,-1.51997 1.96693,-0.369 4.0052,0.55129 2.73117,1.23313 -0.60219,0.32228 -1.58168,1.24243 -2.31328,2.17312 l -0.37564,0.47785 1.33072,-0.17653 c 1.58885,-0.21077 2.20479,0.0626 2.98481,1.32468 0.42173,0.68239 0.81843,0.96723 1.53397,1.10147 l 0.96514,0.18106 -1.04731,0.91016 c -1.32884,1.15483 -2.23646,1.62742 -3.27785,1.70678 -0.57392,0.0437 -0.78294,0.17303 -0.6864,0.42461 0.0763,0.19896 0.14064,0.97708 0.14287,1.72917 0.006,1.87548 0.23315,2.15681 1.84803,2.2843 0.21828,0.0172 -0.0198,0.25948 -0.52917,0.53833 -1.21777,0.6667 -2.76451,0.66909 -3.69614,0.006 l -0.73512,-0.52345 -0.18152,1.36834 c -0.0998,0.75258 -0.59094,2.42848 -1.09135,3.72421 -0.89803,2.3253 -0.94629,2.83352 -0.26906,2.83352 1.25863,0 2.73953,2.4682 2.27699,3.79503 -0.1499,0.43002 -0.27255,1.42484 -0.27255,2.21071 0,1.38332 -0.56073,2.99009 -1.04349,2.99009 -0.12988,0 -0.40463,0.0647 -0.61056,0.14368 -0.27283,0.1047 -0.37442,-0.0772 -0.37442,-0.67028 0,-1.16867 -0.40413,-1.478 -1.39483,-1.06764 -0.85812,0.35544 -2.13295,-0.14705 -2.13295,-0.84073 0,-0.16836 -0.42867,0.19469 -0.9526,0.80679 -0.8859,1.03498 -2.27282,1.99715 -2.6407,1.83198 -0.0876,-0.0393 -0.41627,0.46428 -0.73038,1.11912 -0.38293,0.79832 -0.87623,1.34305 -1.49715,1.65324 -0.97531,0.48722 -3.175,0.63733 -3.175,0.21667 0,-0.58616 -1.08098,-0.57765 -1.55868,0.0123 l -0.48555,0.59963 z"
             id="path31391" />
        </g>
      </g>
    </g>
  </g>
</svg>
