<?xml version="1.0" encoding="UTF-8" standalone="no"?>
<!-- Created with Inkscape (http://www.inkscape.org/) -->

<svg
   width="7.9961739mm"
   height="8mm"
   viewBox="0 0 7.996174 7.9999999"
   version="1.1"
   id="svg47190"
   inkscape:version="1.1.1 (3bf5ae0d25, 2021-09-20)"
   sodipodi:docname="30th.svg"
   xmlns:inkscape="http://www.inkscape.org/namespaces/inkscape"
   xmlns:sodipodi="http://sodipodi.sourceforge.net/DTD/sodipodi-0.dtd"
   xmlns="http://www.w3.org/2000/svg"
   xmlns:svg="http://www.w3.org/2000/svg">
  <sodipodi:namedview
     id="namedview47192"
     pagecolor="#ffffff"
     bordercolor="#666666"
     borderopacity="1.0"
     inkscape:pageshadow="2"
     inkscape:pageopacity="0.0"
     inkscape:pagecheckerboard="0"
     inkscape:document-units="mm"
     showgrid="false"
     inkscape:zoom="16.000001"
     inkscape:cx="7.8437497"
     inkscape:cy="19.968749"
     inkscape:window-width="1920"
     inkscape:window-height="1017"
     inkscape:window-x="-8"
     inkscape:window-y="-8"
     inkscape:window-maximized="1"
     inkscape:current-layer="g4299"
     inkscape:snap-bbox="true"
     inkscape:snap-bbox-midpoints="true"
     inkscape:snap-page="true"
     inkscape:snap-bbox-edge-midpoints="false"
     inkscape:snap-nodes="false"
     inkscape:bbox-nodes="true" />
  <defs
     id="defs47187">
    <clipPath
       clipPathUnits="userSpaceOnUse"
       id="clipPath63680-8">
      <path
         d="M 0,0 H 595.276 V 841.89 H 0 Z"
         id="path63678-4" />
    </clipPath>
  </defs>
  <g
     inkscape:label="Layer 1"
     inkscape:groupmode="layer"
     id="layer1"
     transform="translate(-95.587164,-80.934645)">
    <g
       inkscape:label="Capa 1"
       id="layer1-5"
       transform="matrix(0.01238547,0,0,0.01238547,86.37603,76.630162)">
      <g
         id="g4299"
         transform="translate(1.9492421e-6)">
        <g
           id="g8075"
           transform="matrix(2.5527209,0,0,2.5527209,861.03364,350.42558)">
          <ellipse
             transform="matrix(5.1666668,0,0,5.6923077,-286.83399,-603.46257)"
             id="path4184-1"
             style="opacity:1;fill:#d40000;fill-opacity:1;stroke:none;stroke-width:0.784972;stroke-linecap:round;stroke-linejoin:miter;stroke-miterlimit:4;stroke-dasharray:none;stroke-opacity:1"
             cx="71.135277"
             cy="128.17772"
             rx="15.099469"
             ry="21.810345" />
          <path
             id="path2220"
             d="M 80.65625,-0.125 C 57.875526,-0.125 37.579329,14.79401 23.3125,37.78125 9.0456698,60.768489 0.46875,92.011455 0.46875,126.375 c -10e-9,34.36355 8.5769206,65.60651 22.84375,88.59375 14.266828,22.98723 34.563028,37.9375 57.34375,37.9375 22.78073,1e-5 43.20192,-14.95026 57.46875,-37.9375 C 152.39184,191.9815 160.99999,160.73855 161,126.375 160.99999,92.011453 152.39183,60.768491 138.125,37.78125 123.85818,14.794008 103.43697,-0.125 80.65625,-0.125 Z m 0,12.40625 c 13.021738,0 25.32979,6.009921 35.9375,16.78125 v 0.46875 0.84375 58.53125 h -72.625 V 34.5625 29.8125 C 54.739997,18.567951 67.334053,12.28125 80.65625,12.28125 Z m 49.6875,35.125 c 11.88317,20.370241 19.375,48.216616 19.375,78.96875 0,30.75214 -7.49184,58.62976 -19.375,79 z m -100.15625,1.25 V 204.125 c -11.456401,-20.25128 -18.59375,-47.63486 -18.59375,-77.75 0,-30.115133 7.137348,-57.467474 18.59375,-77.71875 z m 17.96875,53.6875 h 11.125 l -5.1875,14.375 z m 27.25,0 h 9.0625 l -4.53125,12.75 z m 25.125,0 h 9.09375 l -4.1875,13.0625 z m -33.15625,0.625 8.4375,23.78125 -8.09375,22.875 -9.1875,-22.21875 z m 25.09375,0.15625 9.125,24.25 -8.03125,24.96875 h -0.40625 l -9.0625,-25.5625 z m 24.125,3.03125 V 145.125 l -6.75,-17.96875 z m -72.625,6.5 6.1875,14.9375 -6.1875,17.125 z m 10.625,25.625 5.84375,14.0625 H 49.5 Z m 25.34375,0.125 4.96875,13.9375 H 75 Z m 26.0625,0.75 4.96875,13.1875 h -9.1875 z M 43.96875,165.75 h 72.625 v 56.03125 1.9375 C 105.98739,234.48626 93.675533,240.5 80.65625,240.5 c -13.322198,-1e-5 -25.916253,-6.2867 -36.6875,-17.53125 z"
             style="opacity:1;fill:#0000ca;fill-opacity:1;stroke:none;stroke-width:2.25139;stroke-linecap:round;stroke-linejoin:miter;stroke-miterlimit:4;stroke-dasharray:none;stroke-opacity:1" />
        </g>
      </g>
    </g>
  </g>
</svg>
