<?xml version="1.0" encoding="UTF-8" standalone="no"?>
<!-- Created with Inkscape (http://www.inkscape.org/) -->

<svg
   width="7.9961739mm"
   height="8mm"
   viewBox="0 0 7.996174 7.9999999"
   version="1.1"
   id="svg47190"
   inkscape:version="1.1.1 (3bf5ae0d25, 2021-09-20)"
   sodipodi:docname="4thAm.svg"
   xmlns:inkscape="http://www.inkscape.org/namespaces/inkscape"
   xmlns:sodipodi="http://sodipodi.sourceforge.net/DTD/sodipodi-0.dtd"
   xmlns="http://www.w3.org/2000/svg"
   xmlns:svg="http://www.w3.org/2000/svg">
  <sodipodi:namedview
     id="namedview47192"
     pagecolor="#ffffff"
     bordercolor="#666666"
     borderopacity="1.0"
     inkscape:pageshadow="2"
     inkscape:pageopacity="0.0"
     inkscape:pagecheckerboard="0"
     inkscape:document-units="mm"
     showgrid="false"
     inkscape:zoom="16.000001"
     inkscape:cx="0.90624996"
     inkscape:cy="23.156249"
     inkscape:window-width="1920"
     inkscape:window-height="1017"
     inkscape:window-x="-8"
     inkscape:window-y="-8"
     inkscape:window-maximized="1"
     inkscape:current-layer="g31631"
     inkscape:snap-bbox="true"
     inkscape:snap-bbox-midpoints="true"
     inkscape:snap-page="true"
     inkscape:snap-bbox-edge-midpoints="false"
     inkscape:snap-nodes="false"
     inkscape:bbox-nodes="true" />
  <defs
     id="defs47187">
    <clipPath
       clipPathUnits="userSpaceOnUse"
       id="clipPath63680-8">
      <path
         d="M 0,0 H 595.276 V 841.89 H 0 Z"
         id="path63678-4" />
    </clipPath>
  </defs>
  <g
     inkscape:label="Layer 1"
     inkscape:groupmode="layer"
     id="layer1"
     transform="translate(-95.587164,-80.934645)">
    <g
       inkscape:label="Capa 1"
       id="layer1-5"
       transform="matrix(0.01238547,0,0,0.01238547,86.37603,76.630162)">
      <g
         id="g4299"
         transform="translate(1.9492421e-6)">
        <g
           id="g31631"
           transform="matrix(5.4254363,0,0,5.4254363,1570.8141,1953.9589)">
          <g
             id="g998"
             transform="translate(-202.6676,48.310355)">
            <g
               id="g8110"
               transform="matrix(0.49931317,0,0,0.49931317,50.311168,-344.69138)">
              <g
                 id="g8093">
                <path
                   sodipodi:type="star"
                   style="opacity:1;fill:#e5d07c;fill-opacity:1;stroke:none;stroke-width:1.11497;stroke-linecap:butt;stroke-linejoin:round;stroke-miterlimit:4;stroke-dasharray:none;stroke-opacity:1"
                   id="path5178"
                   sodipodi:sides="4"
                   sodipodi:cx="18.067638"
                   sodipodi:cy="84.315651"
                   sodipodi:r1="88.119362"
                   sodipodi:r2="62.309799"
                   sodipodi:arg1="0"
                   sodipodi:arg2="0.78539816"
                   inkscape:flatsided="true"
                   inkscape:rounded="0"
                   inkscape:randomized="0"
                   transform="matrix(1.3453238,0,0,1.3453238,94.717712,6.3851253)"
                   d="M 106.187,84.315651 18.067638,172.43501 -70.051723,84.315651 18.067638,-3.8037109 Z" />
                <path
                   style="opacity:1;fill:#7f6911;fill-opacity:1;stroke:none;stroke-width:1.26459;stroke-linecap:butt;stroke-linejoin:round;stroke-miterlimit:4;stroke-dasharray:none;stroke-opacity:1"
                   d="m 118.95046,14.474331 c -0.16911,0.02141 -0.32589,0.09992 -0.44447,0.222572 L 14.055676,119.30572 c -0.277778,0.29034 -0.277778,0.74833 0,1.03867 L 118.50599,224.95321 c 0.2899,0.2782 0.7472,0.2782 1.0371,0 L 223.99341,120.34439 c 0.27777,-0.29034 0.27777,-0.74833 0,-1.03867 L 119.54309,14.696903 c -0.15504,-0.158183 -0.37196,-0.239652 -0.59263,-0.222572 z m 0.0741,1.817671 L 222.43776,119.82506 119.02454,223.3952 15.648358,119.82506 Z"
                   id="path5176" />
                <g
                   id="g3218"
                   transform="translate(0.3704879,1.0316722)">
                  <g
                     id="g3196">
                    <path
                       style="fill:#007a00;fill-opacity:1;fill-rule:evenodd;stroke:none;stroke-width:1px;stroke-linecap:butt;stroke-linejoin:miter;stroke-opacity:1"
                       d="m 97.311671,85.10809 c 13.682799,-8.399867 31.327809,-8.716844 43.425729,0.475464 l -0.15849,-12.362069 13.47149,-9.82626 c -5.07162,-8.664014 -12.36207,-12.731874 -20.92043,-13.154509 1.21508,-11.675287 -7.87157,-21.131742 -13.47148,-25.992042 -4.75464,4.543324 -14.10544,12.890362 -14.26393,25.516578 -8.030061,0.105659 -15.743146,5.124447 -20.761934,12.679045 l 13.94695,11.41114 z"
                       id="path2220"
                       sodipodi:nodetypes="cccccccccc" />
                    <rect
                       style="opacity:1;fill:#007a00;fill-opacity:1;stroke:none;stroke-width:3;stroke-linecap:butt;stroke-linejoin:round;stroke-miterlimit:4;stroke-dasharray:none;stroke-opacity:1"
                       id="rect3194"
                       width="6.973475"
                       height="43.425728"
                       x="115.85477"
                       y="78.293106" />
                  </g>
                  <g
                     transform="matrix(1,0,0,-1,-0.1011733,237.57061)"
                     id="g3200">
                    <path
                       style="fill:#007a00;fill-opacity:1;fill-rule:evenodd;stroke:none;stroke-width:1px;stroke-linecap:butt;stroke-linejoin:miter;stroke-opacity:1"
                       d="m 97.311671,85.10809 c 13.682799,-8.399867 31.327809,-8.716844 43.425729,0.475464 l -0.15849,-12.362069 13.47149,-9.82626 c -5.07162,-8.664014 -12.36207,-12.731874 -20.92043,-13.154509 1.21508,-11.675287 -7.87157,-21.131742 -13.47148,-25.992042 -4.75464,4.543324 -14.10544,12.890362 -14.26393,25.516578 -8.030061,0.105659 -15.743146,5.124447 -20.761934,12.679045 l 13.94695,11.41114 z"
                       id="path3202"
                       sodipodi:nodetypes="cccccccccc" />
                    <rect
                       style="opacity:1;fill:#007a00;fill-opacity:1;stroke:none;stroke-width:3;stroke-linecap:butt;stroke-linejoin:round;stroke-miterlimit:4;stroke-dasharray:none;stroke-opacity:1"
                       id="rect3204"
                       width="6.973475"
                       height="43.425728"
                       x="115.85477"
                       y="78.293106" />
                  </g>
                  <g
                     transform="rotate(90,118.76484,118.73472)"
                     id="g3206">
                    <path
                       style="fill:#007a00;fill-opacity:1;fill-rule:evenodd;stroke:none;stroke-width:1px;stroke-linecap:butt;stroke-linejoin:miter;stroke-opacity:1"
                       d="m 97.311671,85.10809 c 13.682799,-8.399867 31.327809,-8.716844 43.425729,0.475464 l -0.15849,-12.362069 13.47149,-9.82626 c -5.07162,-8.664014 -12.36207,-12.731874 -20.92043,-13.154509 1.21508,-11.675287 -7.87157,-21.131742 -13.47148,-25.992042 -4.75464,4.543324 -14.10544,12.890362 -14.26393,25.516578 -8.030061,0.105659 -15.743146,5.124447 -20.761934,12.679045 l 13.94695,11.41114 z"
                       id="path3208"
                       sodipodi:nodetypes="cccccccccc" />
                    <rect
                       style="opacity:1;fill:#007a00;fill-opacity:1;stroke:none;stroke-width:3;stroke-linecap:butt;stroke-linejoin:round;stroke-miterlimit:4;stroke-dasharray:none;stroke-opacity:1"
                       id="rect3210"
                       width="6.973475"
                       height="43.425728"
                       x="115.85477"
                       y="78.293106" />
                  </g>
                  <g
                     transform="matrix(0,1,1,0,-0.191464,-0.4783896)"
                     id="g3212">
                    <path
                       style="fill:#007a00;fill-opacity:1;fill-rule:evenodd;stroke:none;stroke-width:1px;stroke-linecap:butt;stroke-linejoin:miter;stroke-opacity:1"
                       d="m 97.311671,85.10809 c 13.682799,-8.399867 31.327809,-8.716844 43.425729,0.475464 l -0.15849,-12.362069 13.47149,-9.82626 c -5.07162,-8.664014 -12.36207,-12.731874 -20.92043,-13.154509 1.21508,-11.675287 -7.87157,-21.131742 -13.47148,-25.992042 -4.75464,4.543324 -14.10544,12.890362 -14.26393,25.516578 -8.030061,0.105659 -15.743146,5.124447 -20.761934,12.679045 l 13.94695,11.41114 z"
                       id="path3214"
                       sodipodi:nodetypes="cccccccccc" />
                    <rect
                       style="opacity:1;fill:#007a00;fill-opacity:1;stroke:none;stroke-width:3;stroke-linecap:butt;stroke-linejoin:round;stroke-miterlimit:4;stroke-dasharray:none;stroke-opacity:1"
                       id="rect3216"
                       width="6.973475"
                       height="43.425728"
                       x="115.85477"
                       y="78.293106" />
                  </g>
                </g>
              </g>
              <ellipse
                 transform="matrix(1.2631579,0,0,1.2203391,-30.179245,-24.962805)"
                 id="path3232"
                 style="opacity:1;fill:#007a00;fill-opacity:1;stroke:none;stroke-width:3;stroke-linecap:butt;stroke-linejoin:round;stroke-miterlimit:4;stroke-dasharray:none;stroke-opacity:1"
                 cx="118.11966"
                 cy="118.63898"
                 rx="12.77575"
                 ry="13.224022" />
              <ellipse
                 transform="matrix(1.5185185,0,0,1.9230769,-61.448501,-109.52026)"
                 id="path3234"
                 style="opacity:1;fill:#e5d07c;fill-opacity:1;stroke:none;stroke-width:3;stroke-linecap:butt;stroke-linejoin:round;stroke-miterlimit:4;stroke-dasharray:none;stroke-opacity:1"
                 cx="118.8481"
                 cy="119.25536"
                 rx="4.5387535"
                 ry="3.6422095" />
            </g>
            <path
               style="fill:#7f6911;fill-opacity:1;stroke:none;stroke-width:0.164954;stroke-linecap:butt;stroke-linejoin:round;stroke-miterlimit:4;stroke-dasharray:none;stroke-opacity:1"
               d="m 109.73824,-344.40008 c -0.0878,0.003 -0.17081,0.0409 -0.23091,0.10496 l -59.196902,59.1969 c -0.124136,0.12892 -0.124136,0.3329 0,0.46182 l 59.196902,59.19689 c 0.12891,0.12415 0.3329,0.12415 0.46182,0 l 59.19688,-59.19689 c 0.12416,-0.12892 0.12416,-0.3329 0,-0.46182 l -59.19688,-59.1969 c -0.0601,-0.0641 -0.14311,-0.10182 -0.23091,-0.10496 z m 0,0.79769 58.73508,58.73508 -58.73508,58.73508 -58.714093,-58.73508 z"
               id="path5180" />
          </g>
        </g>
      </g>
    </g>
  </g>
</svg>
