<?xml version="1.0" encoding="UTF-8" standalone="no"?>
<!-- Created with Inkscape (http://www.inkscape.org/) -->

<svg
   width="7.9961739mm"
   height="8mm"
   viewBox="0 0 7.996174 7.9999999"
   version="1.1"
   id="svg47190"
   inkscape:version="1.1.1 (3bf5ae0d25, 2021-09-20)"
   sodipodi:docname="80thAm.svg"
   xmlns:inkscape="http://www.inkscape.org/namespaces/inkscape"
   xmlns:sodipodi="http://sodipodi.sourceforge.net/DTD/sodipodi-0.dtd"
   xmlns="http://www.w3.org/2000/svg"
   xmlns:svg="http://www.w3.org/2000/svg">
  <sodipodi:namedview
     id="namedview47192"
     pagecolor="#ffffff"
     bordercolor="#666666"
     borderopacity="1.0"
     inkscape:pageshadow="2"
     inkscape:pageopacity="0.0"
     inkscape:pagecheckerboard="0"
     inkscape:document-units="mm"
     showgrid="false"
     inkscape:zoom="11.313709"
     inkscape:cx="-2.1655144"
     inkscape:cy="14.363106"
     inkscape:window-width="1920"
     inkscape:window-height="1017"
     inkscape:window-x="-8"
     inkscape:window-y="-8"
     inkscape:window-maximized="1"
     inkscape:current-layer="g4299"
     inkscape:snap-bbox="true"
     inkscape:snap-bbox-midpoints="true"
     inkscape:snap-page="true"
     inkscape:snap-bbox-edge-midpoints="true"
     inkscape:snap-nodes="false"
     inkscape:bbox-nodes="true"
     inkscape:bbox-paths="true"
     inkscape:snap-object-midpoints="false" />
  <defs
     id="defs47187">
    <clipPath
       clipPathUnits="userSpaceOnUse"
       id="clipPath63680-8">
      <path
         d="M 0,0 H 595.276 V 841.89 H 0 Z"
         id="path63678-4" />
    </clipPath>
  </defs>
  <g
     inkscape:label="Layer 1"
     inkscape:groupmode="layer"
     id="layer1"
     transform="translate(-95.587164,-80.934645)">
    <g
       inkscape:label="Capa 1"
       id="layer1-5"
       transform="matrix(0.01238547,0,0,0.01238547,86.37603,76.630162)">
      <g
         id="g4299"
         transform="translate(1.9492421e-6)">
        <g
           id="g3854"
           transform="matrix(1.9110005,0,0,1.9110005,791.32539,347.54297)">
          <path
             d="m 0,0 v 148.9377 c 3.958604,79.94892 67.99903,150.3838 139.49887,186.78573 L 144,338 l 4.50113,-2.27657 C 220.00096,299.32149 284.04139,228.88662 288,148.9377 V 0 Z"
             fill="#2b2c7c"
             id="path2" />
          <path
             style="color:#000000;fill:#a8a7a6;-inkscape-stroke:none"
             d="M 19.021484,21.048828 V 151.69922 l 0.01172,0.20898 c 3.435426,70.23612 59.022007,132.12006 121.072266,164.09961 l 3.89453,2.00586 3.89453,-2.00586 C 209.94478,284.02826 265.53137,222.14432 268.9668,151.9082 l 0.0117,-0.20898 V 21.048828 Z m 17,17 H 251.97852 V 151.17578 C 248.98475,211.3388 200.05638,268.44316 144,298.75391 87.943615,268.44316 39.01525,211.3388 36.021484,151.17578 Z"
             id="path4" />
          <path
             id="path3261"
             d="m 144.34961,41.435547 c -4.38622,0 -7.94336,3.555188 -7.94336,7.941406 0,0.08919 0.005,0.17714 0.008,0.265625 -0.52004,-0.107104 -1.05957,-0.164062 -1.61133,-0.164062 -4.38622,0 -7.9414,3.555188 -7.9414,7.941406 0,4.386218 3.55518,7.943359 7.9414,7.943359 0.31402,0 0.62324,-0.02119 0.92774,-0.05664 v 26.115234 h -20.87305 c 0.002,-0.07815 0.006,-0.155673 0.006,-0.234375 0,-4.38622 -3.55519,-7.943359 -7.9414,-7.943359 -4.38622,0 -7.943364,3.557139 -7.943364,7.943359 0,0.307703 0.01868,0.609615 0.05273,0.908203 -0.05133,-9.78e-4 -0.102737,-0.0039 -0.154297,-0.0039 -4.386218,0 -7.941406,3.557139 -7.941406,7.943367 0,4.35081 3.498607,7.88268 7.835937,7.93945 -0.0369,0.31053 -0.05664,0.6268 -0.05664,0.94727 0,4.3862 3.55519,7.9414 7.94141,7.9414 4.38622,0 7.94141,-3.55519 7.94141,-7.9414 0,-0.1677 -0.007,-0.33489 -0.0176,-0.5 h 21.15039 v 27.19335 H 84.185547 c 0.0023,-0.0781 0.0059,-0.15567 0.0059,-0.23437 0,-4.38622 -3.555188,-7.94141 -7.941406,-7.94141 -4.386218,0 -7.941406,3.55519 -7.941406,7.94141 0,0.30786 0.01864,0.61142 0.05273,0.91016 -0.05158,-9.9e-4 -0.102484,-0.004 -0.154297,-0.004 -4.386218,0 -7.941406,3.55519 -7.941406,7.94141 0,4.35081 3.498607,7.88268 7.835937,7.93945 -0.03696,0.31079 -0.05859,0.62652 -0.05859,0.94726 0,4.38621 3.555186,7.94141 7.941406,7.94141 4.38622,0 7.943359,-3.5552 7.943359,-7.94141 0,-0.16817 -0.0073,-0.33442 -0.01758,-0.5 h 51.820316 v 90.5625 c -0.3045,-0.0354 -0.61372,-0.0566 -0.92774,-0.0566 -4.38622,0 -7.9414,3.55714 -7.9414,7.94336 0,4.38622 3.55518,7.94141 7.9414,7.94141 0.89193,0 1.7485,-0.14878 2.54883,-0.41992 -0.0112,0.17267 -0.0195,0.34598 -0.0195,0.52148 0,4.38622 3.55519,7.94141 7.94141,7.94141 4.38622,0 7.9414,-3.55519 7.9414,-7.94141 0,-0.0518 -0.003,-0.10272 -0.004,-0.1543 0.29874,0.0341 0.60229,0.0527 0.91015,0.0527 4.38622,0 7.94141,-3.55519 7.94141,-7.94141 0,-4.38622 -3.55519,-7.94336 -7.94141,-7.94336 -0.47497,0 -0.93858,0.0451 -1.39062,0.125 v -90.63086 h 50.83008 c -0.0103,0.16562 -0.0176,0.33179 -0.0176,0.5 0,4.38621 3.55518,7.94141 7.94141,7.94141 4.38621,0 7.9414,-3.5552 7.9414,-7.94141 0,-0.32409 -0.0209,-0.6431 -0.0586,-0.95703 0.14118,0.007 0.28273,0.0117 0.42578,0.0117 4.38622,0 7.94141,-3.55518 7.94141,-7.9414 0,-4.38622 -3.55519,-7.94141 -7.94141,-7.94141 -0.0518,0 -0.10272,0.003 -0.1543,0.004 0.0341,-0.29874 0.0527,-0.6023 0.0527,-0.91016 0,-4.38622 -3.55519,-7.94141 -7.94141,-7.94141 -4.38622,0 -7.94141,3.55519 -7.94141,7.94141 0,0.0787 0.004,0.15622 0.006,0.23437 h -51.08398 v -27.19335 h 20.1582 c -0.0102,0.16508 -0.0176,0.33233 -0.0176,0.5 0,4.3862 3.55714,7.9414 7.94336,7.9414 4.38622,0 7.94141,-3.55519 7.94141,-7.9414 0,-0.32383 -0.0209,-0.64336 -0.0586,-0.95704 0.14056,0.007 0.28336,0.0117 0.42578,0.0117 4.38622,0 7.9414,-3.55518 7.9414,-7.9414 0,-4.386228 -3.55518,-7.943367 -7.9414,-7.943367 -0.0516,0 -0.10297,0.0029 -0.1543,0.0039 0.0341,-0.298588 0.0527,-0.6005 0.0527,-0.908203 0,-4.38622 -3.55713,-7.943359 -7.94336,-7.943359 -4.38622,0 -7.9414,3.557139 -7.9414,7.943359 0,0.0787 0.004,0.156223 0.006,0.234375 H 152.73047 V 65.347656 c 0.15467,0.009 0.30987,0.01563 0.4668,0.01563 4.38622,0 7.9414,-3.557141 7.9414,-7.943359 0,-4.386218 -3.55518,-7.941406 -7.9414,-7.941406 -0.30787,0 -0.61142,0.01864 -0.91016,0.05273 9.9e-4,-0.05158 0.004,-0.102484 0.004,-0.154297 0,-4.386218 -3.55519,-7.941406 -7.94141,-7.941406 z"
             style="fill:#a8a7a6;fill-opacity:1" />
        </g>
      </g>
    </g>
  </g>
</svg>
