<?xml version="1.0" encoding="UTF-8" standalone="no"?>
<!-- Created with Inkscape (http://www.inkscape.org/) -->

<svg
   width="7.9961739mm"
   height="8mm"
   viewBox="0 0 7.996174 7.9999999"
   version="1.1"
   id="svg47190"
   inkscape:version="1.1.1 (3bf5ae0d25, 2021-09-20)"
   sodipodi:docname="8thAm.svg"
   xmlns:inkscape="http://www.inkscape.org/namespaces/inkscape"
   xmlns:sodipodi="http://sodipodi.sourceforge.net/DTD/sodipodi-0.dtd"
   xmlns="http://www.w3.org/2000/svg"
   xmlns:svg="http://www.w3.org/2000/svg">
  <sodipodi:namedview
     id="namedview47192"
     pagecolor="#ffffff"
     bordercolor="#666666"
     borderopacity="1.0"
     inkscape:pageshadow="2"
     inkscape:pageopacity="0.0"
     inkscape:pagecheckerboard="0"
     inkscape:document-units="mm"
     showgrid="false"
     inkscape:zoom="11.313709"
     inkscape:cx="9.9436887"
     inkscape:cy="19.666406"
     inkscape:window-width="1920"
     inkscape:window-height="1017"
     inkscape:window-x="-8"
     inkscape:window-y="-8"
     inkscape:window-maximized="1"
     inkscape:current-layer="g31631"
     inkscape:snap-bbox="true"
     inkscape:snap-bbox-midpoints="true"
     inkscape:snap-page="true"
     inkscape:snap-bbox-edge-midpoints="false"
     inkscape:snap-nodes="false"
     inkscape:bbox-nodes="true" />
  <defs
     id="defs47187">
    <clipPath
       clipPathUnits="userSpaceOnUse"
       id="clipPath63680-8">
      <path
         d="M 0,0 H 595.276 V 841.89 H 0 Z"
         id="path63678-4" />
    </clipPath>
  </defs>
  <g
     inkscape:label="Layer 1"
     inkscape:groupmode="layer"
     id="layer1"
     transform="translate(-95.587164,-80.934645)">
    <g
       inkscape:label="Capa 1"
       id="layer1-5"
       transform="matrix(0.01238547,0,0,0.01238547,86.37603,76.630162)">
      <g
         id="g4299"
         transform="translate(1.9492421e-6)">
        <g
           id="g31631"
           transform="matrix(5.4254363,0,0,5.4254363,1570.8141,1953.9589)">
          <g
             id="g16806"
             transform="matrix(0.28960664,0,0,0.28960664,-136.23248,-295.93224)">
            <path
               sodipodi:nodetypes="ccccccccc"
               id="path2220"
               d="M 0.54376658,30.450928 C 47.398322,10.331565 98.603009,-0.27188357 150.07958,-0.54376679 202.64368,-0.18125561 250.31388,10.512821 299.61538,29.907162 l 10e-6,190.590188 c -3.17198,43.4107 -24.01636,75.13041 -46.22016,106.57824 -25.73829,36.52299 -59.90495,60.81124 -103.31565,83.46818 C 106.397,390.78692 70.870912,366.13616 43.501326,325.17241 19.303713,293.54332 2.1750662,260.28294 -0.54376658,219.6817 Z"
               style="opacity:1;fill:#2b2c7c;fill-opacity:1;fill-rule:evenodd;stroke:none;stroke-width:1px;stroke-linecap:butt;stroke-linejoin:miter;stroke-opacity:1" />
            <path
               id="path12909"
               d="m 149.34375,28.75 -19.9375,37.21875 14.5625,-0.09375 v 231.75 L 129.28125,312.5 H 129 v 55.3125 l 0.375,-0.40625 h 0.0312 l 20.03125,-21.9375 20.46875,22.46875 h -0.0312 l 0.0312,0.0312 h 0.15625 V 312.5 H 169.75 L 154.96875,297.5625 V 65.84375 L 169.625,65.75 Z"
               style="opacity:1;fill:#f4c220;fill-opacity:1;stroke:none;stroke-width:4;stroke-linecap:butt;stroke-linejoin:round;stroke-miterlimit:4;stroke-dasharray:none;stroke-opacity:1" />
            <path
               id="path5132"
               d="m 149.25,70.15625 c -28.06488,0 -50.843748,22.878789 -50.84375,51.09375 0,20.15503 11.62919,37.61373 28.5,45.9375 -24.88642,9.14085 -42.624998,32.72852 -42.625,60.375 0,35.56886 29.36207,64.43751 65.53125,64.4375 36.16918,0 65.53126,-28.86864 65.53125,-64.4375 0,-27.89046 -18.04878,-51.66173 -43.28125,-60.625 16.61415,-8.41482 28.03126,-25.72178 28.03125,-45.6875 0,-28.214959 -22.77886,-51.093749 -50.84375,-51.09375 z m 0.15625,9.21875 c 20.03562,2e-6 36.28125,19.206216 36.28125,42.84375 0,23.63753 -16.24563,42.8125 -36.28125,42.8125 -9.81918,0 -18.71386,-4.61227 -25.25,-12.09375 -0.24695,-0.28267 -0.50991,-0.55297 -0.75,-0.84375 -0.28628,-0.34101 -0.56745,-0.67912 -0.84375,-1.03125 -0.0227,-0.0293 -0.0399,-0.0643 -0.0625,-0.0937 -5.8398,-7.48522 -9.40625,-17.43744 -9.40625,-28.34375 0,-0.0632 -2.4e-4,-0.1244 0,-0.1875 -3.2e-4,-0.0737 0,-0.14494 0,-0.21875 0,-0.58274 0.0429,-1.1729 0.0625,-1.75 0.77459,-22.831896 16.70832,-41.09375 36.25,-41.09375 z M 149,171.84375 c 1.72592,0 3.41268,0.0939 5.09375,0.28125 0.0412,0.005 0.0838,-0.005 0.125,0 1.4568,0.16549 2.89549,0.41881 4.3125,0.71875 0.87842,0.18593 1.76358,0.38927 2.625,0.625 0.0507,0.0139 0.10565,0.0172 0.15625,0.0312 0.20164,0.0559 0.39309,0.12888 0.59375,0.1875 0.66539,0.19437 1.31456,0.40158 1.96875,0.625 0.72575,0.24786 1.44507,0.49851 2.15625,0.78125 0.0524,0.0208 0.1039,0.0415 0.15625,0.0625 0.096,0.0386 0.18549,0.0858 0.28125,0.125 0.67719,0.2773 1.33704,0.56679 2,0.875 0.43874,0.20397 0.88026,0.40778 1.3125,0.625 0.19982,0.10024 0.39535,0.20947 0.59375,0.3125 0.21738,0.11306 0.44061,0.22737 0.65625,0.34375 0.60839,0.32835 1.21832,0.67689 1.8125,1.03125 0.66122,0.39434 1.32594,0.79308 1.96875,1.21875 0.32499,0.21521 0.64863,0.43321 0.96875,0.65625 0.40012,0.27869 0.79518,0.55306 1.1875,0.84375 0.2328,0.1725 0.45751,0.35459 0.6875,0.53125 0.42607,0.32733 0.83379,0.65864 1.25,1 0.65271,0.53497 1.27866,1.08773 1.90625,1.65625 0.55943,0.50678 1.1176,1.02997 1.65625,1.5625 0.70266,0.69468 1.39673,1.38819 2.0625,2.125 0.24735,0.27347 0.47666,0.56465 0.71875,0.84375 0.81604,0.9416 1.58962,1.90303 2.34375,2.90625 0.50453,0.67118 0.99319,1.36513 1.46875,2.0625 0.40311,0.59113 0.80589,1.2033 1.1875,1.8125 0.0719,0.11484 0.14758,0.22828 0.21875,0.34375 0.35015,0.56818 0.70021,1.1357 1.03125,1.71875 0.0575,0.10121 0.0994,0.21085 0.15625,0.3125 0.10487,0.1874 0.20963,0.37362 0.3125,0.5625 0.34365,0.63101 0.67906,1.25919 1,1.90625 0.33277,0.67091 0.66105,1.34381 0.96875,2.03125 0.0512,0.11438 0.10576,0.22892 0.15625,0.34375 0.2067,0.47003 0.39899,0.96015 0.59375,1.4375 0.0175,0.0429 0.0451,0.082 0.0625,0.125 0.24516,0.60549 0.46198,1.22698 0.6875,1.84375 0.042,0.11478 0.0837,0.22859 0.125,0.34375 0.14112,0.39364 0.27326,0.78948 0.40625,1.1875 0.23937,0.71568 0.47483,1.42698 0.6875,2.15625 0.0371,0.12726 0.0888,0.24734 0.125,0.375 0.0381,0.13388 0.0566,0.27193 0.0937,0.40625 0.19952,0.72136 0.38961,1.45393 0.5625,2.1875 0.15588,0.6614 0.30374,1.3292 0.4375,2 0.0434,0.21857 0.084,0.43672 0.125,0.65625 0.0469,0.24994 0.0812,0.49884 0.125,0.75 0.11273,0.64913 0.22086,1.31175 0.3125,1.96875 0.12547,0.89585 0.227,1.80922 0.3125,2.71875 0.0646,0.6872 0.11497,1.36805 0.15625,2.0625 0.0707,1.18854 0.12439,2.38586 0.125,3.59375 -4.9e-4,0.9567 -0.0178,1.89905 -0.0625,2.84375 -0.12831,2.77518 -0.4782,5.50461 -0.96875,8.15625 -0.33264,1.79807 -0.73013,3.55158 -1.21875,5.28125 -0.005,0.0192 0.005,0.0433 0,0.0625 -6.33822,22.34835 -25.34436,38.59375 -47.78125,38.59375 -17.29149,-1e-5 -32.51213,-9.66084 -41.5,-24.3125 -2.67451,-4.35988 -4.82772,-9.15615 -6.28125,-14.28125 -0.005,-0.0194 0.005,-0.0431 0,-0.0625 -0.24571,-0.86978 -0.4807,-1.73733 -0.6875,-2.625 -0.1983,-0.84442 -0.36921,-1.7029 -0.53125,-2.5625 -0.006,-0.032 -0.02533,-0.0617 -0.03125,-0.0937 -0.07957,-0.42599 -0.148255,-0.85173 -0.21875,-1.28125 -0.07628,-0.46996 -0.153446,-0.93224 -0.21875,-1.40625 -0.122332,-0.87705 -0.228575,-1.76609 -0.3125,-2.65625 -0.0028,-0.0306 0.0028,-0.0631 0,-0.0937 -0.08353,-0.901 -0.144285,-1.80544 -0.1875,-2.71875 -9.61e-4,-0.0208 9.4e-4,-0.0417 0,-0.0625 -0.04229,-0.91373 -0.06155,-1.82505 -0.0625,-2.75 0,-0.0104 -5e-6,-0.0208 0,-0.0312 -5e-6,-0.0105 0,-0.0207 0,-0.0312 0,-0.87265 0.02568,-1.73103 0.0625,-2.59375 0.0032,-0.0729 -0.0034,-0.14593 0,-0.21875 0.02787,-0.60232 0.07952,-1.21544 0.125,-1.8125 0.01753,-0.22796 0.01118,-0.46034 0.03125,-0.6875 0.07309,-0.835 0.17436,-1.64507 0.28125,-2.46875 0.217558,-1.67645 0.491044,-3.34456 0.84375,-4.96875 0.0118,-0.0543 0.0505,-0.10198 0.0625,-0.15625 0.14785,-0.67173 0.29856,-1.33814 0.46875,-2 0.0544,-0.21085 0.1309,-0.41519 0.1875,-0.625 0.19883,-0.73894 0.39886,-1.46187 0.625,-2.1875 0.22944,-0.73621 0.46188,-1.46574 0.71875,-2.1875 0.0522,-0.14656 0.10296,-0.29155 0.15625,-0.4375 0.184,-0.50418 0.39661,-1.00332 0.59375,-1.5 0.13667,-0.34404 0.26338,-0.69092 0.40625,-1.03125 0.24727,-0.58954 0.51566,-1.17192 0.78125,-1.75 0.34353,-0.74772 0.68912,-1.49107 1.0625,-2.21875 0.27633,-0.53866 0.55152,-1.06654 0.84375,-1.59375 0.10054,-0.18137 0.2101,-0.35127 0.3125,-0.53125 0.80111,-1.4081 1.65167,-2.7748 2.5625,-4.09375 0.42407,-0.6147 0.86576,-1.21838 1.3125,-1.8125 0.0138,-0.0183 0.0175,-0.0442 0.0312,-0.0625 0.0809,-0.10728 0.16839,-0.2059 0.25,-0.3125 0.4151,-0.54163 0.84769,-1.07026 1.28125,-1.59375 0.005,-0.006 -0.005,-0.0252 0,-0.0312 0.5052,-0.60943 1.03306,-1.19732 1.5625,-1.78125 0.0354,-0.0391 0.0583,-0.0861 0.0937,-0.125 0.36237,-0.39732 0.75172,-0.7712 1.125,-1.15625 0.17069,-0.17608 0.32707,-0.35778 0.5,-0.53125 0.2348,-0.23558 0.47988,-0.4568 0.71875,-0.6875 0.34598,-0.33428 0.70815,-0.67615 1.0625,-1 0.51228,-0.46762 1.03323,-0.92971 1.5625,-1.375 0.59483,-0.50045 1.19703,-0.99741 1.8125,-1.46875 0.54122,-0.41448 1.0997,-0.79621 1.65625,-1.1875 0.18254,-0.12837 0.3471,-0.28043 0.53125,-0.40625 0.29932,-0.20445 0.60276,-0.39609 0.90625,-0.59375 0.48196,-0.31403 0.97654,-0.60968 1.46875,-0.90625 0.13635,-0.0821 0.26913,-0.16925 0.40625,-0.25 0.50456,-0.29733 1.01652,-0.59634 1.53125,-0.875 0.25801,-0.13956 0.52076,-0.27145 0.78125,-0.40625 0.44274,-0.22936 0.89401,-0.44086 1.34375,-0.65625 0.37275,-0.17833 0.74759,-0.36267 1.125,-0.53125 0.13704,-0.0612 0.26861,-0.12756 0.40625,-0.1875 0.63721,-0.27746 1.28777,-0.53203 1.9375,-0.78125 0.73486,-0.28188 1.46872,-0.53643 2.21875,-0.78125 0.59341,-0.19386 1.17885,-0.39242 1.78125,-0.5625 0.0731,-0.0206 0.14552,-0.0422 0.21875,-0.0625 0.36155,-0.10014 0.72913,-0.18981 1.09375,-0.28125 0.46909,-0.11759 0.93225,-0.24075 1.40625,-0.34375 0.71293,-0.15512 1.43279,-0.2848 2.15625,-0.40625 0.0522,-0.009 0.10403,-0.0227 0.15625,-0.0312 0.77679,-0.12761 1.55573,-0.22461 2.34375,-0.3125 0.0618,-0.007 0.12563,0.007 0.1875,0 1.621,-0.17401 3.27503,-0.28125 4.9375,-0.28125 z"
               style="opacity:1;fill:#ffffff;fill-opacity:1;stroke:none;stroke-width:4;stroke-linecap:butt;stroke-linejoin:round;stroke-miterlimit:4;stroke-dasharray:none;stroke-opacity:1" />
            <path
               id="path13890"
               d="M 151.09375,12.375 C 104.41224,12.62841 57.994045,22.527144 15.5,41.28125 L 14.46875,41.75 v 1.125 l -1,175.46875 v 0.0625 0.0625 C 15.9466,256.49982 31.58239,287.66366 53.5,317.125 c 0.01749,0.0235 0.045,0.039 0.0625,0.0625 24.888003,38.25013 57.25329,61.32952 96.8125,79.71875 l 0.78125,0.375 0.78125,-0.40625 c 39.28604,-21.07408 70.4195,-43.80556 93.84375,-77.96875 20.05324,-29.19132 39.10416,-58.95419 42,-99.6875 v -0.0625 -0.0625 V 42.375 41.1875 L 286.6875,40.75 C 242.05277,22.703477 198.78339,12.712814 151.125,12.375 Z m 0.0312,3.5 c 46.79753,0.331712 89.22383,10.077541 133.15625,27.71875 v 175.375 0.125 c -2.85795,39.70652 -21.41742,68.7462 -41.40625,97.84375 -22.85865,33.33828 -53.15432,55.5874 -91.8125,76.40625 -38.86641,-18.17372 -70.301094,-40.70784 -94.625,-78.125 l -0.0312,-0.0625 L 56.375,315.125 C 34.683777,285.98401 19.420852,255.51989 16.96875,218.34375 v -0.125 l 1,-174.1875 C 59.730481,25.773972 105.31013,16.123705 151.125,15.875 Z"
               style="opacity:1;fill:#000000;fill-opacity:1;fill-rule:evenodd;stroke:none;stroke-width:3.5;stroke-linecap:butt;stroke-linejoin:miter;stroke-miterlimit:4;stroke-dasharray:none;stroke-opacity:1" />
          </g>
        </g>
      </g>
    </g>
  </g>
</svg>
