<?xml version="1.0" encoding="UTF-8" standalone="no"?>
<!-- Created with Inkscape (http://www.inkscape.org/) -->

<svg
   width="7.7619867mm"
   height="8mm"
   viewBox="0 0 7.7619869 7.9999998"
   version="1.1"
   id="svg47190"
   inkscape:version="1.1.1 (3bf5ae0d25, 2021-09-20)"
   sodipodi:docname="99thAm.svg"
   xmlns:inkscape="http://www.inkscape.org/namespaces/inkscape"
   xmlns:sodipodi="http://sodipodi.sourceforge.net/DTD/sodipodi-0.dtd"
   xmlns="http://www.w3.org/2000/svg"
   xmlns:svg="http://www.w3.org/2000/svg">
  <sodipodi:namedview
     id="namedview47192"
     pagecolor="#ffffff"
     bordercolor="#666666"
     borderopacity="1.0"
     inkscape:pageshadow="2"
     inkscape:pageopacity="0.0"
     inkscape:pagecheckerboard="0"
     inkscape:document-units="mm"
     showgrid="false"
     inkscape:zoom="8.0000004"
     inkscape:cx="-7.8124996"
     inkscape:cy="35.812498"
     inkscape:window-width="1920"
     inkscape:window-height="1017"
     inkscape:window-x="-8"
     inkscape:window-y="-8"
     inkscape:window-maximized="1"
     inkscape:current-layer="layer1"
     inkscape:snap-bbox="true"
     inkscape:snap-bbox-midpoints="true"
     inkscape:snap-page="true"
     inkscape:snap-bbox-edge-midpoints="true"
     inkscape:snap-nodes="true"
     inkscape:bbox-nodes="false"
     inkscape:bbox-paths="true"
     inkscape:snap-others="true"
     inkscape:snap-object-midpoints="true" />
  <defs
     id="defs47187">
    <clipPath
       clipPathUnits="userSpaceOnUse"
       id="clipPath63680-8">
      <path
         d="M 0,0 H 595.276 V 841.89 H 0 Z"
         id="path63678-4" />
    </clipPath>
  </defs>
  <g
     inkscape:label="Layer 1"
     inkscape:groupmode="layer"
     id="layer1"
     transform="translate(-103.19592,-78.104962)">
    <g
       id="g916"
       transform="matrix(0.02869616,0,0,0.02869616,103.8102,77.815154)">
      <g
         id="g1967">
        <path
           style="fill:#004f00;stroke-width:0.264583"
           d="M 68.770576,264.95043 C 44.032036,251.78799 22.779381,240.35046 21.542454,239.53368 14.200714,234.68572 7.8662841,227.49061 3.8866751,219.47893 c -1.883633,-3.79209 -2.796952,-6.35227 -3.966174,-11.11782 -0.418976,-1.70768 -0.463728,-6.4597 -0.594219,-63.0978 l -0.141119,-61.251038 -0.954075,-1.984375 c -2.314036,-4.812956 -7.439305,-9.784127 -15.5676231,-15.099569 -1.972649,-1.289994 -3.782015,-2.498209 -4.020813,-2.684917 -0.387546,-0.303012 1.237834,-3.209639 15.1332131,-27.062387 8.562066,-14.697603 15.641245,-26.704421 15.731511,-26.681817 0.09027,0.0226 1.8528209,1.226587 3.9167849,2.675519 10.44071,7.329515 14.649352,9.535113 20.571798,10.780938 4.178067,0.878883 9.586936,0.772378 14.730507,-0.290055 2.196396,-0.453679 5.183135,-1.309808 12.768069,-3.659887 6.050706,-1.874721 17.458192,-4.779601 24.4043,-6.214479 15.302165,-3.161011 25.084515,-4.177516 33.539445,-3.485155 11.42328,0.935434 26.1368,4.05934 45.64062,9.690207 10.61597,3.06489 12.1596,3.473108 14.87653,3.934149 7.49145,1.271237 13.92036,0.545496 20.34727,-2.296945 3.27495,-1.448414 6.0467,-3.168032 12.40539,-7.696414 2.76259,-1.967395 5.10573,-3.495477 5.20698,-3.395737 0.10125,0.09974 7.15528,12.20082 15.67562,26.89129 l 15.49154,26.709945 -0.85894,0.526992 c -11.17969,6.85901 -16.90846,12.100456 -19.34287,17.697441 l -0.83068,1.909839 -0.15228,60.986455 c -0.10648,42.64131 -0.23937,61.3844 -0.44179,62.30937 -0.15923,0.72761 -0.42188,1.91823 -0.58367,2.64584 -1.30219,5.85628 -4.97661,13.09836 -9.46404,18.65312 -3.25401,4.02796 -8.74457,8.899 -13.03843,11.56724 -0.94589,0.58779 -21.00792,11.3373 -44.58229,23.88781 -23.57438,12.5505 -43.57687,23.20977 -44.45,23.68726 l -1.5875,0.86818 z"
           id="path920" />
        <g
           id="g1658">
          <path
             style="fill:#fefefe;stroke-width:0.264583"
             d="M 180.02786,143.8081 V 127.27165 H 163.4914 146.95495 v 16.53645 16.53646 h 16.53645 16.53646 z"
             id="path1150" />
          <path
             style="fill:#fefefe;stroke-width:0.264583"
             d="M 113.61745,143.8081 V 127.27165 H 97.080991 80.544534 v 16.53645 16.53646 h 16.536457 16.536459 z"
             id="path1148" />
          <path
             style="fill:#fefefe;stroke-width:0.264583"
             d="M 14.134121,177.01331 V 160.34456 H 30.670578 47.207036 V 143.8081 127.27165 H 30.670578 14.134121 V 110.6029 93.934147 h 16.536457 16.536458 v 16.670733 16.67074 l 16.602603,-0.0681 16.602603,-0.0681 0.06813,-16.6026 0.06814,-16.602603 h 16.534468 16.53447 v 16.670733 16.67074 l 16.6026,-0.0681 16.60261,-0.0681 0.0681,-16.6026 0.0681,-16.602603 h 16.53447 16.53447 v 16.668753 16.66875 h 16.66875 16.66875 v 16.53645 16.53646 H 196.69655 180.0278 v 16.66875 16.66875 H 163.35905 146.6903 V 177.01345 160.3447 h -16.53645 -16.53646 v 16.66875 16.66875 l -16.602603,4e-5 -16.602604,4e-5 0.07005,-16.66879 0.07005,-16.66879 H 63.879687 47.207036 v 16.66875 16.66875 H 30.670578 14.134121 Z"
             id="path1146" />
          <path
             style="fill:#002cfd;stroke-width:0.264583"
             d="M 47.207036,177.0153 V 160.34456 H 30.670578 14.134121 V 143.8081 127.27165 H 30.670578 47.207036 V 110.6029 93.934147 h 16.670736 16.670739 l -0.06814,16.602603 -0.06813,16.6026 -16.602603,0.0681 -16.602603,0.0681 v 16.53447 16.53447 h 16.66875 16.668749 V 143.8081 127.27165 H 97.080991 113.61745 V 110.6029 93.934147 h 16.67074 16.67073 l -0.0681,16.602603 -0.0681,16.6026 -16.60261,0.0681 -16.6026,0.0681 v 16.53447 16.53447 h 16.53646 16.53645 v 16.66875 16.66875 H 130.15391 113.61745 V 177.01331 160.34456 H 97.082979 80.548511 l -0.06814,16.6026 -0.06813,16.60261 -16.602603,0.0681 -16.602603,0.0681 z m 132.820824,-0.002 V 160.34456 H 163.4914 146.95495 V 143.8081 127.27165 h 16.53645 16.53646 V 110.6029 93.934147 h 16.66875 16.66875 v 16.668753 16.66875 h -16.66875 -16.66875 v 16.53645 16.53646 h 16.66875 16.66875 v 16.66875 16.66875 h -16.66875 -16.66875 z"
             id="path922" />
        </g>
        <path
           style="fill:#000000;stroke-width:0.264583"
           d="M 82.925784,257.62615 C 66.263649,248.56311 48.06373,238.66622 42.481517,235.63306 31.275209,229.54398 30.416597,228.94209 26.231066,224.24143 21.776044,219.23812 18.070647,212.96545 16.150047,207.17581 14.856264,203.2757 14.360511,200.66808 14.200856,196.9232 l -0.138178,-3.24114 h 99.651342 99.65134 l -0.007,0.85989 c -0.0136,1.71279 -0.52751,6.1989 -0.94718,8.26823 -2.16733,10.68668 -9.17008,21.00839 -19.5679,28.84211 -1.93966,1.46134 -78.45623,42.46816 -79.22364,42.4576 -0.21958,-0.003 -14.031892,-7.42071 -30.694026,-16.48374 z M 14.133898,93.735709 c -0.0016,-1.435441 -0.673679,-6.558229 -1.1021,-8.40052 C 10.736553,75.465196 5.6888776,67.823511 -2.8721904,61.258107 L -3.5622059,60.72894 5.0126397,46.309149 c 4.7161659,-7.930885 8.6178993,-14.537161 8.6705193,-14.680612 0.05279,-0.143916 0.382837,-0.05473 0.736338,0.198969 5.475695,3.929793 11.122991,5.809874 20.879667,6.951199 8.061293,0.943002 13.146608,0.105987 27.915162,-4.594681 8.858239,-2.81948 9.802011,-3.070076 16.612174,-4.410948 3.232573,-0.636472 8.437252,-1.693604 11.56595,-2.349182 9.73665,-2.04019 12.14148,-2.328333 20.6375,-2.472756 10.61916,-0.180515 13.09223,0.1311 31.22083,3.93392 8.75611,1.836762 12.18071,2.732801 22.17834,5.802924 9.60163,2.948515 16.80007,4.477261 21.08266,4.477364 1.16505,2.9e-5 3.66537,-0.178183 5.55625,-0.396028 9.24089,-1.064628 15.07044,-2.88607 19.66162,-6.143267 0.91936,-0.652244 1.7059,-1.144358 1.74785,-1.093587 0.31637,0.382914 17.36769,29.393501 17.30224,29.437511 -5.93084,3.988104 -9.75428,8.453165 -13.16084,15.369381 -2.75207,5.587433 -3.91994,9.64393 -4.17052,14.485937 l -0.16088,3.108854 h -99.57669 c -54.767178,0 -99.57679,-0.0893 -99.576912,-0.198438 z"
           id="path918" />
      </g>
    </g>
  </g>
</svg>
