<?xml version="1.0" encoding="UTF-8" standalone="no"?>
<!-- Created with Inkscape (http://www.inkscape.org/) -->

<svg
   width="9.0826387mm"
   height="8mm"
   viewBox="0 0 9.0826391 7.9999999"
   version="1.1"
   id="svg47190"
   inkscape:version="1.1.1 (3bf5ae0d25, 2021-09-20)"
   sodipodi:docname="AArmoured.svg"
   xmlns:inkscape="http://www.inkscape.org/namespaces/inkscape"
   xmlns:sodipodi="http://sodipodi.sourceforge.net/DTD/sodipodi-0.dtd"
   xmlns="http://www.w3.org/2000/svg"
   xmlns:svg="http://www.w3.org/2000/svg">
  <sodipodi:namedview
     id="namedview47192"
     pagecolor="#ffffff"
     bordercolor="#666666"
     borderopacity="1.0"
     inkscape:pageshadow="2"
     inkscape:pageopacity="0.0"
     inkscape:pagecheckerboard="0"
     inkscape:document-units="mm"
     showgrid="false"
     inkscape:zoom="5.6568543"
     inkscape:cx="2.5632621"
     inkscape:cy="12.993087"
     inkscape:window-width="1920"
     inkscape:window-height="1017"
     inkscape:window-x="-8"
     inkscape:window-y="-8"
     inkscape:window-maximized="1"
     inkscape:current-layer="text33941"
     inkscape:snap-bbox="true"
     inkscape:snap-bbox-midpoints="true"
     inkscape:snap-page="true" />
  <defs
     id="defs47187">
    <clipPath
       clipPathUnits="userSpaceOnUse"
       id="clipPath63680-8">
      <path
         d="M 0,0 H 595.276 V 841.89 H 0 Z"
         id="path63678-4" />
    </clipPath>
    <path
       d="m 43.622,64.985 c -0.388,-1.786 -0.773,-3.577 -1.16,-5.36 -2.712,0.78 -5.421,1.6 -8.125,2.459 -0.378,2.018 -0.756,4.039 -1.133,6.057 -2.437,0.785 -4.867,1.605 -7.295,2.452 2.894,-12.522 5.791,-24.999 8.697,-37.428 2.61,-0.828 5.226,-1.618 7.845,-2.372 2.896,10.676 5.797,21.396 8.702,32.165 -2.515,0.641 -5.026,1.315 -7.531,2.027 z m -5.198,-24.05 c -0.847,4.395 -1.692,8.796 -2.537,13.199 1.692,-0.529 3.386,-1.042 5.083,-1.539 -0.849,-3.889 -1.698,-7.778 -2.546,-11.66 z m 15.339,21.369 c 0,-11.51 0,-23.018 0,-34.527 2.41,-0.59 4.822,-1.151 7.237,-1.68 0,11.507 0,23.017 0,34.526 -2.415,0.529 -4.828,1.089 -7.237,1.681 z m 30.558,-22.41 c -0.623,0.631 -1.474,1.204 -2.556,1.721 0.861,0.301 1.49,0.639 1.885,1.01 0.266,0.248 0.652,0.802 1.16,1.665 0.504,0.862 0.844,1.535 1.015,2.019 1.177,3.179 2.355,6.367 3.532,9.563 -2.736,0.317 -5.471,0.677 -8.201,1.077 -1.295,-3.332 -2.588,-6.652 -3.88,-9.965 -0.491,-1.288 -0.929,-2.104 -1.313,-2.45 -0.522,-0.447 -1.115,-0.616 -1.774,-0.504 -0.214,0.038 -0.428,0.074 -0.642,0.111 0,4.675 0,9.349 0,14.021 -2.422,0.419 -4.841,0.871 -7.26,1.353 0,-11.508 0,-23.016 0,-34.525 4.02,-0.802 8.043,-1.519 12.071,-2.147 2.242,-0.349 3.957,-0.309 5.142,0.094 1.186,0.402 2.142,1.327 2.869,2.764 0.727,1.438 1.091,3.258 1.091,5.455 0,1.914 -0.279,3.599 -0.837,5.061 -0.559,1.457 -1.325,2.681 -2.302,3.677 z m -4.865,-9.352 c -0.482,-0.522 -1.388,-0.684 -2.715,-0.467 -1.065,0.172 -2.13,0.35 -3.194,0.534 0,2.337 0,4.674 0,7.01 1.022,-0.176 2.043,-0.349 3.066,-0.514 0.331,-0.053 0.974,-0.314 1.927,-0.777 0.482,-0.215 0.875,-0.636 1.18,-1.262 0.307,-0.627 0.459,-1.316 0.459,-2.069 0,-1.113 -0.241,-1.933 -0.723,-2.455 z m 29.089,5.402 c 1.691,0.514 2.934,1.493 3.73,2.916 0.798,1.421 1.197,3.234 1.197,5.428 0,1.79 -0.285,3.405 -0.854,4.851 -0.568,1.445 -1.347,2.602 -2.334,3.476 -0.611,0.543 -1.534,0.958 -2.767,1.258 -1.641,0.4 -2.729,0.625 -3.265,0.66 -4.193,0.266 -8.384,0.625 -12.57,1.077 0,-11.509 0,-23.017 0,-34.526 4.544,-0.491 9.09,-0.872 13.641,-1.145 2.275,-0.134 4.022,0.613 5.24,2.212 1.219,1.602 1.829,3.625 1.829,6.063 0,2.044 -0.437,3.813 -1.305,5.308 -0.578,0.997 -1.427,1.801 -2.542,2.422 z m -3.969,-8.1 c -0.445,-0.536 -1.222,-0.772 -2.328,-0.692 -1.073,0.076 -2.147,0.157 -3.221,0.245 0,2.187 0,4.373 0,6.557 1.058,-0.086 2.115,-0.168 3.172,-0.242 1.141,-0.08 1.932,-0.418 2.377,-1.019 0.446,-0.601 0.67,-1.444 0.67,-2.532 0,-1.005 -0.224,-1.779 -0.67,-2.317 z m 0.83,13.147 c -0.509,-0.588 -1.403,-0.845 -2.68,-0.758 -1.232,0.085 -2.466,0.179 -3.699,0.28 0,2.324 0,4.648 0,6.974 1.238,-0.104 2.479,-0.196 3.717,-0.282 1.254,-0.086 2.139,-0.463 2.654,-1.144 0.515,-0.68 0.772,-1.568 0.772,-2.662 0.001,-1.018 -0.254,-1.82 -0.764,-2.408 z m 33.949,5.908 c -0.926,2.53 -2.266,4.462 -4.015,5.818 -1.75,1.356 -3.933,1.99 -6.547,1.926 -2.654,-0.061 -4.854,-0.696 -6.595,-1.939 -1.74,-1.242 -3.151,-3.19 -4.234,-5.862 -1.08,-2.671 -1.621,-6.021 -1.621,-10.058 0,-5.64 1.07,-10.061 3.212,-13.225 2.144,-3.161 5.127,-4.739 8.95,-4.652 3.92,0.087 6.938,1.776 9.06,4.979 2.12,3.206 3.18,7.606 3.18,13.167 0,4.04 -0.463,7.321 -1.39,9.846 z m -7.227,-17.568 c -0.894,-1.536 -2.106,-2.325 -3.638,-2.358 -1.469,-0.034 -2.646,0.715 -3.536,2.229 -0.889,1.517 -1.333,4.042 -1.333,7.563 0,3.491 0.441,6.002 1.326,7.537 0.883,1.534 2.086,2.311 3.607,2.346 1.563,0.035 2.773,-0.67 3.631,-2.136 0.855,-1.463 1.284,-4.125 1.284,-7.995 0.001,-3.254 -0.447,-5.653 -1.341,-7.186 z m 30.739,10.965 c -0.622,0.46 -1.474,0.792 -2.557,1.007 0.862,0.542 1.492,1.057 1.887,1.539 0.265,0.321 0.651,0.983 1.156,1.988 0.507,1.002 0.845,1.771 1.015,2.3 1.176,3.51 2.353,7.026 3.527,10.549 -2.729,-0.445 -5.46,-0.85 -8.194,-1.214 -1.295,-3.692 -2.59,-7.375 -3.885,-11.05 -0.493,-1.425 -0.931,-2.365 -1.314,-2.817 -0.524,-0.593 -1.118,-0.928 -1.782,-1 -0.214,-0.022 -0.427,-0.045 -0.643,-0.069 0,4.673 0,9.348 0,14.022 -2.43,-0.259 -4.86,-0.485 -7.292,-0.681 0,-11.508 0,-23.017 0,-34.526 4.041,0.324 8.08,0.736 12.115,1.234 2.244,0.278 3.959,0.799 5.146,1.531 1.185,0.734 2.139,1.924 2.865,3.565 0.727,1.642 1.09,3.563 1.09,5.759 0,1.915 -0.279,3.524 -0.836,4.828 -0.556,1.303 -1.322,2.315 -2.298,3.035 z M 158,29.585 c -0.482,-0.656 -1.389,-1.07 -2.72,-1.227 -1.066,-0.125 -2.135,-0.244 -3.203,-0.358 0,2.337 0,4.675 0,7.009 1.025,0.11 2.051,0.225 3.075,0.345 0.332,0.04 0.975,-0.042 1.93,-0.237 0.483,-0.08 0.877,-0.391 1.183,-0.933 0.305,-0.541 0.459,-1.188 0.459,-1.939 0,-1.116 -0.243,-2.003 -0.724,-2.66 z m 27.82,31.603 c -2.913,-6.996 -5.83,-13.948 -8.753,-20.853 0,6.332 0,12.663 0,18.994 -2.264,-0.443 -4.531,-0.862 -6.801,-1.251 0,-11.507 0,-23.016 0,-34.524 2.253,0.386 4.503,0.801 6.755,1.241 2.936,6.941 5.871,13.931 8.799,20.964 0,-6.365 0,-12.731 0,-19.097 2.27,0.517 4.536,1.063 6.8,1.637 0,11.508 0,23.018 0,34.526 -2.264,-0.575 -4.53,-1.12 -6.8,-1.637 z m 31.098,1.057 c 0,2.61 0,5.225 0,7.837 -6.487,-2.235 -13.002,-4.24 -19.538,-6.009 0,-11.509 0,-23.018 0,-34.528 6.418,1.74 12.814,3.703 19.186,5.89 0,2.463 0,4.926 0,7.388 -3.984,-1.369 -7.978,-2.649 -11.98,-3.84 0,1.822 0,3.642 0,5.464 3.716,1.107 7.423,2.291 11.124,3.548 0,2.349 0,4.699 0,7.048 -3.701,-1.258 -7.408,-2.44 -11.124,-3.547 0,2.262 0,4.523 0,6.784 4.12,1.228 8.232,2.55 12.332,3.965 z"
       id="XMLID_6_" />
  </defs>
  <g
     inkscape:label="Layer 1"
     inkscape:groupmode="layer"
     id="layer1"
     transform="translate(-103.62543,-83.435919)">
    <g
       inkscape:label="Capa 1"
       id="layer1-5"
       transform="matrix(0.01238547,0,0,0.01238547,86.37603,76.630162)">
      <g
         id="g4299"
         transform="translate(1.9492421e-6)">
        <g
           id="g31631"
           transform="matrix(5.4254363,0,0,5.4254363,1570.8141,1953.9589)">
          <g
             aria-label="W"
             id="text33941"
             style="font-size:157.498px;line-height:1.25;stroke-width:3.93745">
            <g
               transform="matrix(0.16157297,0,0,0.16157297,-32.701193,-309.63571)"
               id="layer1-1">
              <g
                 transform="matrix(0.9481,0,0,0.9425,7.442,325.6)"
                 id="g4364">
                <g
                   transform="matrix(0.9999,0,0,0.9991,747.5,79.92)"
                   id="g3851">
                  <path
                     d="M -530.6,333.7 -318.5,455.1 -101.6,332.9 -311.2,-56.32 Z"
                     id="path3841"
                     style="fill:#fdcb02;fill-opacity:1;stroke:none" />
                  <path
                     d="M -528.6,333.7 -318.3,455 v 220 h -414.3 z"
                     id="path3821"
                     style="fill:#0f5eff;fill-opacity:1;stroke:none" />
                  <path
                     d="M -104.1,330.5 -318.3,455 V 671.8 H 99.8 Z"
                     id="path3821-4"
                     style="fill:#e01029;fill-opacity:1;stroke:none" />
                  <path
                     d="M 465.3,1059 H -484.8 L -9.749,236.4 Z"
                     transform="matrix(0.8848,0,0,0.9062,-306.4,-281.6)"
                     id="path3819"
                     style="fill:none;stroke:#294f3f;stroke-width:27.2667;stroke-linecap:butt;stroke-linejoin:miter;stroke-miterlimit:4;stroke-opacity:1" />
                </g>
                <g
                   transform="matrix(0.9999,0,0,0.9991,626.1,-556.7)"
                   id="g4264">
                  <path
                     d="m -179.6,1157 h 40 c 4,0 7.2,3 7.2,7 v 0 c 0,4 -3.2,8 -7.2,8 h -40 c -4.1,0 -7.3,-4 -7.3,-8 v 0 c 0,-4 3.2,-7 7.3,-7 z"
                     id="rect3813"
                     style="fill:none;stroke:#000000;stroke-width:5.4816;stroke-miterlimit:4;stroke-opacity:1" />
                  <path
                     d="m -111.9,1157 h 39.96 c 4.02,0 7.26,3 7.26,7 v 0 c 0,4 -3.24,8 -7.26,8 h -39.96 c -4.1,0 -7.3,-4 -7.3,-8 v 0 c 0,-4 3.2,-7 7.3,-7 z"
                     id="rect3813-0"
                     style="fill:none;stroke:#000000;stroke-width:5.4816;stroke-miterlimit:4;stroke-opacity:1" />
                  <path
                     d="m -620.9,972.1 h 40 c 4,0 7.2,3.2 7.2,7.3 v 0 c 0,4 -3.2,7.2 -7.2,7.2 h -40 c -4.1,0 -7.3,-3.2 -7.3,-7.2 v 0 c 0,-4.1 3.2,-7.3 7.3,-7.3 z"
                     transform="matrix(0.866,-0.5,0.5,0.866,0,0)"
                     id="rect3813-0-9"
                     style="fill:none;stroke:#000000;stroke-width:5.4813;stroke-miterlimit:4;stroke-opacity:1" />
                  <path
                     d="m 469.2,901.6 h 40 c 4,0 7.2,3.2 7.2,7.3 v 0 c 0,4 -3.2,7.2 -7.2,7.2 h -40 c -4.1,0 -7.3,-3.2 -7.3,-7.2 v 0 c 0,-4.1 3.2,-7.3 7.3,-7.3 z"
                     transform="matrix(0.866,0.5,-0.5,0.866,0,0)"
                     id="rect3813-0-9-8-2"
                     style="fill:none;stroke:#000000;stroke-width:5.4808;stroke-miterlimit:4;stroke-opacity:1" />
                  <path
                     d="m -1110,-397.7 h 40 c 4,0 8,3.2 8,7.3 v 0 c 0,4 -4,7.2 -8,7.2 h -40 c -4,0 -7,-3.2 -7,-7.2 v 0 c 0,-4.1 3,-7.3 7,-7.3 z"
                     transform="rotate(-90.000728)"
                     id="rect3813-0-9-45"
                     style="fill:none;stroke:#000000;stroke-width:5.4813;stroke-miterlimit:4;stroke-opacity:1" />
                  <path
                     d="m -1106,-4.059 h 40 c 4,0 8,3.2375 8,7.259 v 0 c 0,4.021 -4,7.26 -8,7.26 h -40 c -4,0 -7,-3.239 -7,-7.26 v 0 c 0,-4.0215 3,-7.259 7,-7.259 z"
                     transform="rotate(-90.000728)"
                     id="rect3813-0-9-45-5"
                     style="fill:none;stroke:#000000;stroke-width:5.4813;stroke-miterlimit:4;stroke-opacity:1" />
                  <path
                     d="m -247.2,1157 h 40 c 4,0 7.2,3 7.2,7 v 0 c 0,4 -3.2,8 -7.2,8 h -40 c -4.1,0 -7.3,-4 -7.3,-8 v 0 c 0,-4 3.2,-7 7.3,-7 z"
                     id="rect3813-1"
                     style="fill:none;stroke:#000000;stroke-width:5.4816;stroke-miterlimit:4;stroke-opacity:1" />
                  <path
                     d="m -314.9,1010 h 40 c 4,0 7.2,3 7.2,7 v 0 c 0,4 -3.2,8 -7.2,8 h -40 c -4.1,0 -7.3,-4 -7.3,-8 v 0 c 0,-4 3.2,-7 7.3,-7 z"
                     id="rect3813-1-7"
                     style="fill:none;stroke:#000000;stroke-width:5.4816;stroke-miterlimit:4;stroke-opacity:1" />
                  <path
                     d="m -314.9,1157 h 40 c 4,0 7.2,3 7.2,7 v 0 c 0,4 -3.2,8 -7.2,8 h -40 c -4.1,0 -7.3,-4 -7.3,-8 v 0 c 0,-4 3.2,-7 7.3,-7 z"
                     id="rect3813-1-7-1"
                     style="fill:none;stroke:#000000;stroke-width:5.4816;stroke-miterlimit:4;stroke-opacity:1" />
                  <path
                     d="m -247.2,1010 h 40 c 4,0 7.2,3 7.2,7 v 0 c 0,4 -3.2,8 -7.2,8 h -40 c -4.1,0 -7.3,-4 -7.3,-8 v 0 c 0,-4 3.2,-7 7.3,-7 z"
                     id="rect3813-1-7-15"
                     style="fill:none;stroke:#000000;stroke-width:5.4816;stroke-miterlimit:4;stroke-opacity:1" />
                  <path
                     d="m -111.9,1010 h 39.96 c 4.02,0 7.26,3 7.26,7 v 0 c 0,4 -3.24,8 -7.26,8 h -39.96 c -4.1,0 -7.3,-4 -7.3,-8 v 0 c 0,-4 3.2,-7 7.3,-7 z"
                     id="rect3813-1-7-15-7"
                     style="fill:none;stroke:#000000;stroke-width:5.4816;stroke-miterlimit:4;stroke-opacity:1" />
                  <path
                     d="m -284.3,1165 h 40 c 4,0 7.2,3 7.2,7 v 0 c 0,4 -3.2,8 -7.2,8 h -40 c -4.1,0 -7.3,-4 -7.3,-8 v 0 c 0,-4 3.2,-7 7.3,-7 z"
                     transform="matrix(-0.866,-0.5,-0.5,0.866,0,0)"
                     id="rect3813-0-9-6"
                     style="fill:none;stroke:#000000;stroke-width:5.481;stroke-miterlimit:4;stroke-opacity:1" />
                  <path
                     d="m 804.7,707 h 40 c 4,0 7.2,3.2 7.2,7.3 v 0 c 0,4 -3.2,7.2 -7.2,7.2 h -40 c -4.1,0 -7.3,-3.2 -7.3,-7.2 v 0 c 0,-4.1 3.2,-7.3 7.3,-7.3 z"
                     transform="matrix(-0.866,0.5,0.5,0.866,0,0)"
                     id="rect3813-0-9-8-2-1"
                     style="fill:none;stroke:#000000;stroke-width:5.4805;stroke-miterlimit:4;stroke-opacity:1" />
                  <path
                     d="m -179.6,1010 h 40 c 4,0 7.2,3 7.2,7 v 0 c 0,4 -3.2,8 -7.2,8 h -40 c -4.1,0 -7.3,-4 -7.3,-8 v 0 c 0,-4 3.2,-7 7.3,-7 z"
                     id="rect3813-1-7-15-7-4"
                     style="fill:none;stroke:#000000;stroke-width:5.4816;stroke-miterlimit:4;stroke-opacity:1" />
                </g>
                <path
                   d="m 259.2,534.7 h 34 m -10,41.6 17,-29.4 m 16,-0.5 17,29.3 m -12,-41 h 37 m -25,-42.4 -17,28.9 m -32,-29.1 18,30.5 m 20,10.6 c 0,7.3 -6,13.4 -14,13.4 -7,0 -13,-6.1 -13,-13.4 0,-7.4 6,-13.5 13,-13.5 8,0 14,6.1 14,13.5 z m 36,0 c 0,27.5 -22,49.9 -50,49.9 -27,0 -50,-22.4 -50,-49.9 0,-27.7 23,-50.1 50,-50.1 28,0 50,22.4 50,50.1 z"
                   id="path4123-2"
                   style="fill:none;stroke:#000000;stroke-width:5.997;stroke-linecap:butt;stroke-linejoin:miter;stroke-miterlimit:4;stroke-dasharray:none;stroke-opacity:1" />
                <path
                   d="m 273.1,446.1 -11.5,32.7 285.2,106.2 9,-16.5 c 0,0 12,0.2 16,-10.3 2,-10 -6,-18.4 -6,-18.4 l 2,-14.9 z"
                   id="path3811"
                   style="fill:#000000;fill-opacity:1;stroke:none" />
                <path
                   d="M 539,336.1 553.1,360.4 471,456.3 466,436.1 365.1,552.2 356.8,521.4 247,625.7 362.3,467.6 374.1,503.9 478,375.5 l 7,23.9 z"
                   id="path2999"
                   style="fill:#e01029;fill-opacity:1;stroke:none" />
                <path
                   d="m 405,210.5 v 27.9 h 13.5 V 312 H 405 v 27.9 h 55 V 312 H 446.5 V 238.4 H 460 v -27.9 z"
                   id="rect3001"
                   style="fill:#000000;fill-opacity:1;stroke:none" />
                <path
                   d="m 506.4,534.7 h 34 m -10,41.6 17,-29.4 m 16,-0.5 17,29.3 m -12,-41 h 37 m -25,-42.4 -17,28.9 m -32,-29.1 18,30.5 m 20,10.6 c 0,7.3 -6,13.4 -14,13.4 -7,0 -13,-6.1 -13,-13.4 0,-7.4 6,-13.5 13,-13.5 8,0 14,6.1 14,13.5 z m 36,0 c 0,27.5 -22,49.9 -50,49.9 -27,0 -50,-22.4 -50,-49.9 0,-27.7 23,-50.1 50,-50.1 28,0 50,22.4 50,50.1 z"
                   id="path4123"
                   style="fill:none;stroke:#000000;stroke-width:5.997;stroke-linecap:butt;stroke-linejoin:miter;stroke-miterlimit:4;stroke-dasharray:none;stroke-opacity:1" />
              </g>
            </g>
          </g>
        </g>
      </g>
    </g>
  </g>
</svg>
