<?xml version="1.0" encoding="UTF-8" standalone="no"?>
<!-- Created with Inkscape (http://www.inkscape.org/) -->

<svg
   width="15.089827mm"
   height="8mm"
   viewBox="0 0 15.089827 7.9999999"
   version="1.1"
   id="svg47190"
   inkscape:version="1.1.1 (3bf5ae0d25, 2021-09-20)"
   sodipodi:docname="ARangers.svg"
   xmlns:inkscape="http://www.inkscape.org/namespaces/inkscape"
   xmlns:sodipodi="http://sodipodi.sourceforge.net/DTD/sodipodi-0.dtd"
   xmlns="http://www.w3.org/2000/svg"
   xmlns:svg="http://www.w3.org/2000/svg">
  <sodipodi:namedview
     id="namedview47192"
     pagecolor="#ffffff"
     bordercolor="#666666"
     borderopacity="1.0"
     inkscape:pageshadow="2"
     inkscape:pageopacity="0.0"
     inkscape:pagecheckerboard="0"
     inkscape:document-units="mm"
     showgrid="false"
     inkscape:zoom="8"
     inkscape:cx="43.6875"
     inkscape:cy="1.1875"
     inkscape:window-width="1920"
     inkscape:window-height="1017"
     inkscape:window-x="-8"
     inkscape:window-y="-8"
     inkscape:window-maximized="1"
     inkscape:current-layer="g4299"
     inkscape:snap-bbox="true"
     inkscape:snap-bbox-midpoints="true"
     inkscape:snap-page="true" />
  <defs
     id="defs47187">
    <clipPath
       clipPathUnits="userSpaceOnUse"
       id="clipPath63680-8">
      <path
         d="M 0,0 H 595.276 V 841.89 H 0 Z"
         id="path63678-4" />
    </clipPath>
    <path
       d="m 43.622,64.985 c -0.388,-1.786 -0.773,-3.577 -1.16,-5.36 -2.712,0.78 -5.421,1.6 -8.125,2.459 -0.378,2.018 -0.756,4.039 -1.133,6.057 -2.437,0.785 -4.867,1.605 -7.295,2.452 2.894,-12.522 5.791,-24.999 8.697,-37.428 2.61,-0.828 5.226,-1.618 7.845,-2.372 2.896,10.676 5.797,21.396 8.702,32.165 -2.515,0.641 -5.026,1.315 -7.531,2.027 z m -5.198,-24.05 c -0.847,4.395 -1.692,8.796 -2.537,13.199 1.692,-0.529 3.386,-1.042 5.083,-1.539 -0.849,-3.889 -1.698,-7.778 -2.546,-11.66 z m 15.339,21.369 c 0,-11.51 0,-23.018 0,-34.527 2.41,-0.59 4.822,-1.151 7.237,-1.68 0,11.507 0,23.017 0,34.526 -2.415,0.529 -4.828,1.089 -7.237,1.681 z m 30.558,-22.41 c -0.623,0.631 -1.474,1.204 -2.556,1.721 0.861,0.301 1.49,0.639 1.885,1.01 0.266,0.248 0.652,0.802 1.16,1.665 0.504,0.862 0.844,1.535 1.015,2.019 1.177,3.179 2.355,6.367 3.532,9.563 -2.736,0.317 -5.471,0.677 -8.201,1.077 -1.295,-3.332 -2.588,-6.652 -3.88,-9.965 -0.491,-1.288 -0.929,-2.104 -1.313,-2.45 -0.522,-0.447 -1.115,-0.616 -1.774,-0.504 -0.214,0.038 -0.428,0.074 -0.642,0.111 0,4.675 0,9.349 0,14.021 -2.422,0.419 -4.841,0.871 -7.26,1.353 0,-11.508 0,-23.016 0,-34.525 4.02,-0.802 8.043,-1.519 12.071,-2.147 2.242,-0.349 3.957,-0.309 5.142,0.094 1.186,0.402 2.142,1.327 2.869,2.764 0.727,1.438 1.091,3.258 1.091,5.455 0,1.914 -0.279,3.599 -0.837,5.061 -0.559,1.457 -1.325,2.681 -2.302,3.677 z m -4.865,-9.352 c -0.482,-0.522 -1.388,-0.684 -2.715,-0.467 -1.065,0.172 -2.13,0.35 -3.194,0.534 0,2.337 0,4.674 0,7.01 1.022,-0.176 2.043,-0.349 3.066,-0.514 0.331,-0.053 0.974,-0.314 1.927,-0.777 0.482,-0.215 0.875,-0.636 1.18,-1.262 0.307,-0.627 0.459,-1.316 0.459,-2.069 0,-1.113 -0.241,-1.933 -0.723,-2.455 z m 29.089,5.402 c 1.691,0.514 2.934,1.493 3.73,2.916 0.798,1.421 1.197,3.234 1.197,5.428 0,1.79 -0.285,3.405 -0.854,4.851 -0.568,1.445 -1.347,2.602 -2.334,3.476 -0.611,0.543 -1.534,0.958 -2.767,1.258 -1.641,0.4 -2.729,0.625 -3.265,0.66 -4.193,0.266 -8.384,0.625 -12.57,1.077 0,-11.509 0,-23.017 0,-34.526 4.544,-0.491 9.09,-0.872 13.641,-1.145 2.275,-0.134 4.022,0.613 5.24,2.212 1.219,1.602 1.829,3.625 1.829,6.063 0,2.044 -0.437,3.813 -1.305,5.308 -0.578,0.997 -1.427,1.801 -2.542,2.422 z m -3.969,-8.1 c -0.445,-0.536 -1.222,-0.772 -2.328,-0.692 -1.073,0.076 -2.147,0.157 -3.221,0.245 0,2.187 0,4.373 0,6.557 1.058,-0.086 2.115,-0.168 3.172,-0.242 1.141,-0.08 1.932,-0.418 2.377,-1.019 0.446,-0.601 0.67,-1.444 0.67,-2.532 0,-1.005 -0.224,-1.779 -0.67,-2.317 z m 0.83,13.147 c -0.509,-0.588 -1.403,-0.845 -2.68,-0.758 -1.232,0.085 -2.466,0.179 -3.699,0.28 0,2.324 0,4.648 0,6.974 1.238,-0.104 2.479,-0.196 3.717,-0.282 1.254,-0.086 2.139,-0.463 2.654,-1.144 0.515,-0.68 0.772,-1.568 0.772,-2.662 0.001,-1.018 -0.254,-1.82 -0.764,-2.408 z m 33.949,5.908 c -0.926,2.53 -2.266,4.462 -4.015,5.818 -1.75,1.356 -3.933,1.99 -6.547,1.926 -2.654,-0.061 -4.854,-0.696 -6.595,-1.939 -1.74,-1.242 -3.151,-3.19 -4.234,-5.862 -1.08,-2.671 -1.621,-6.021 -1.621,-10.058 0,-5.64 1.07,-10.061 3.212,-13.225 2.144,-3.161 5.127,-4.739 8.95,-4.652 3.92,0.087 6.938,1.776 9.06,4.979 2.12,3.206 3.18,7.606 3.18,13.167 0,4.04 -0.463,7.321 -1.39,9.846 z m -7.227,-17.568 c -0.894,-1.536 -2.106,-2.325 -3.638,-2.358 -1.469,-0.034 -2.646,0.715 -3.536,2.229 -0.889,1.517 -1.333,4.042 -1.333,7.563 0,3.491 0.441,6.002 1.326,7.537 0.883,1.534 2.086,2.311 3.607,2.346 1.563,0.035 2.773,-0.67 3.631,-2.136 0.855,-1.463 1.284,-4.125 1.284,-7.995 0.001,-3.254 -0.447,-5.653 -1.341,-7.186 z m 30.739,10.965 c -0.622,0.46 -1.474,0.792 -2.557,1.007 0.862,0.542 1.492,1.057 1.887,1.539 0.265,0.321 0.651,0.983 1.156,1.988 0.507,1.002 0.845,1.771 1.015,2.3 1.176,3.51 2.353,7.026 3.527,10.549 -2.729,-0.445 -5.46,-0.85 -8.194,-1.214 -1.295,-3.692 -2.59,-7.375 -3.885,-11.05 -0.493,-1.425 -0.931,-2.365 -1.314,-2.817 -0.524,-0.593 -1.118,-0.928 -1.782,-1 -0.214,-0.022 -0.427,-0.045 -0.643,-0.069 0,4.673 0,9.348 0,14.022 -2.43,-0.259 -4.86,-0.485 -7.292,-0.681 0,-11.508 0,-23.017 0,-34.526 4.041,0.324 8.08,0.736 12.115,1.234 2.244,0.278 3.959,0.799 5.146,1.531 1.185,0.734 2.139,1.924 2.865,3.565 0.727,1.642 1.09,3.563 1.09,5.759 0,1.915 -0.279,3.524 -0.836,4.828 -0.556,1.303 -1.322,2.315 -2.298,3.035 z M 158,29.585 c -0.482,-0.656 -1.389,-1.07 -2.72,-1.227 -1.066,-0.125 -2.135,-0.244 -3.203,-0.358 0,2.337 0,4.675 0,7.009 1.025,0.11 2.051,0.225 3.075,0.345 0.332,0.04 0.975,-0.042 1.93,-0.237 0.483,-0.08 0.877,-0.391 1.183,-0.933 0.305,-0.541 0.459,-1.188 0.459,-1.939 0,-1.116 -0.243,-2.003 -0.724,-2.66 z m 27.82,31.603 c -2.913,-6.996 -5.83,-13.948 -8.753,-20.853 0,6.332 0,12.663 0,18.994 -2.264,-0.443 -4.531,-0.862 -6.801,-1.251 0,-11.507 0,-23.016 0,-34.524 2.253,0.386 4.503,0.801 6.755,1.241 2.936,6.941 5.871,13.931 8.799,20.964 0,-6.365 0,-12.731 0,-19.097 2.27,0.517 4.536,1.063 6.8,1.637 0,11.508 0,23.018 0,34.526 -2.264,-0.575 -4.53,-1.12 -6.8,-1.637 z m 31.098,1.057 c 0,2.61 0,5.225 0,7.837 -6.487,-2.235 -13.002,-4.24 -19.538,-6.009 0,-11.509 0,-23.018 0,-34.528 6.418,1.74 12.814,3.703 19.186,5.89 0,2.463 0,4.926 0,7.388 -3.984,-1.369 -7.978,-2.649 -11.98,-3.84 0,1.822 0,3.642 0,5.464 3.716,1.107 7.423,2.291 11.124,3.548 0,2.349 0,4.699 0,7.048 -3.701,-1.258 -7.408,-2.44 -11.124,-3.547 0,2.262 0,4.523 0,6.784 4.12,1.228 8.232,2.55 12.332,3.965 z"
       id="XMLID_6_" />
  </defs>
  <g
     inkscape:label="Layer 1"
     inkscape:groupmode="layer"
     id="layer1"
     transform="translate(-101.17575,-83.701382)">
    <g
       inkscape:label="Capa 1"
       id="layer1-5"
       transform="matrix(0.01238547,0,0,0.01238547,86.37603,76.630162)">
      <g
         id="g4299"
         transform="translate(1.9492421e-6)">
        <g
           id="g31631"
           transform="matrix(5.3650584,0,0,5.3650584,1400.2742,2538.9503)">
          <g
             aria-label="W"
             id="text33941"
             style="font-size:157.498px;line-height:1.25;stroke-width:3.93745">
            <rect
               style="font-size:157.498px;line-height:1.25;fill:#fbc904;fill-opacity:1;stroke-width:85.8648;-inkscape-stroke:none;paint-order:markers fill stroke;stop-color:#000000"
               id="rect14124-3"
               width="128.51488"
               height="128.51488"
               x="-348.97"
               y="-434.16345"
               transform="matrix(0.88351495,0.46840297,-0.88351495,0.46840297,0,0)" />
            <rect
               style="fill:#0101fc;fill-opacity:1;stroke-width:73.7584;-inkscape-stroke:none;paint-order:markers fill stroke;stop-color:#000000"
               id="rect14124"
               width="110.39504"
               height="110.39504"
               x="-339.9101"
               y="-425.10355"
               transform="matrix(0.88351495,0.46840297,-0.88351495,0.46840297,0,0)" />
            <g
               aria-label="RANGERS"
               id="text19039"
               style="font-weight:bold;font-size:29.313px;-inkscape-font-specification:'sans-serif Bold';text-align:center;text-anchor:middle;fill:#fbc904;stroke-width:21.641">
              <path
                 d="m 6.7391012,-307.84905 q 1.7318716,0 2.476147,-0.64408 0.7585883,-0.64409 0.7585883,-2.11833 0,-1.45992 -0.7585883,-2.08969 -0.7442754,-0.62977 -2.476147,-0.62977 H 4.4203971 v 5.48187 z m -2.3187041,3.80726 v 8.08683 h -5.5105004 v -21.36929 h 8.416037 q 4.2223313,0 6.1832113,1.41699 1.975192,1.41698 1.975192,4.47996 0,2.11833 -1.030535,3.47806 -1.016222,1.35973 -3.077293,2.00382 1.130726,0.25763 2.018132,1.17366 0.901718,0.90172 1.817749,2.7481 l 2.991415,6.0687 H 12.33548 l -2.6049643,-5.31011 q -0.7872143,-1.60306 -1.6030546,-2.18989 -0.8015274,-0.58683 -2.1469482,-0.58683 z"
                 id="path32092" />
              <path
                 d="m 34.449047,-299.84809 h -8.616419 l -1.359734,3.89313 h -5.539126 l 7.915082,-21.36929 h 6.569662 l 7.915082,21.36929 h -5.539126 z m -7.242372,-3.9647 h 5.854012 l -2.91985,-8.50191 z"
                 id="path32094" />
              <path
                 d="m 44.167564,-317.32425 h 6.154585 l 7.771953,14.6565 v -14.6565 h 5.22424 v 21.36929 h -6.154585 l -7.771952,-14.6565 v 14.6565 h -5.224241 z"
                 id="path32096" />
              <path
                 d="m 87.908057,-297.5437 q -2.06107,1.00191 -4.279583,1.50287 -2.218513,0.50095 -4.580156,0.50095 -5.338745,0 -8.458976,-2.9771 -3.120232,-2.99142 -3.120232,-8.10115 0,-5.16699 3.177484,-8.12978 3.177483,-2.96279 8.702297,-2.96279 2.132635,0 4.079201,0.40077 1.96088,0.40076 3.692751,1.18797 v 4.42272 q -1.789123,-1.01623 -3.563934,-1.51718 -1.760498,-0.50095 -3.535308,-0.50095 -3.291987,0 -5.081111,1.84637 -1.77481,1.83206 -1.77481,5.25287 0,3.39218 1.717558,5.23855 1.717559,1.84638 4.880729,1.84638 0.858779,0 1.588742,-0.10019 0.744275,-0.11451 1.331108,-0.34352 v -4.15076 h -3.363552 v -3.69275 h 8.587792 z"
                 id="path32098" />
              <path
                 d="m 92.760162,-317.32425 h 14.871198 v 4.16508 h -9.360697 v 3.97901 h 8.802487 v 4.16508 h -8.802487 v 4.89504 h 9.675577 v 4.16508 H 92.760162 Z"
                 id="path32100" />
              <path
                 d="m 120.61323,-307.84905 q 1.73187,0 2.47615,-0.64408 0.75859,-0.64409 0.75859,-2.11833 0,-1.45992 -0.75859,-2.08969 -0.74428,-0.62977 -2.47615,-0.62977 h -2.3187 v 5.48187 z m -2.3187,3.80726 v 8.08683 h -5.5105 v -21.36929 h 8.41603 q 4.22234,0 6.18321,1.41699 1.9752,1.41698 1.9752,4.47996 0,2.11833 -1.03054,3.47806 -1.01622,1.35973 -3.07729,2.00382 1.13073,0.25763 2.01813,1.17366 0.90172,0.90172 1.81775,2.7481 l 2.99141,6.0687 h -5.86832 l -2.60496,-5.31011 q -0.78722,-1.60306 -1.60306,-2.18989 -0.80153,-0.58683 -2.14695,-0.58683 z"
                 id="path32102" />
              <path
                 d="m 150.2268,-316.65154 v 4.52291 q -1.7605,-0.78722 -3.43512,-1.18798 -1.67462,-0.40076 -3.16317,-0.40076 -1.97519,0 -2.91985,0.54389 -0.94465,0.54389 -0.94465,1.68893 0,0.85878 0.62977,1.34542 0.64408,0.47233 2.3187,0.81584 l 2.34733,0.47233 q 3.56394,0.71565 5.0668,2.17558 1.50286,1.45992 1.50286,4.15076 0,3.53531 -2.10401,5.26718 -2.08969,1.71756 -6.3979,1.71756 -2.03245,0 -4.0792,-0.38645 -2.04676,-0.38645 -4.09352,-1.14504 v -4.65172 q 2.04676,1.08779 3.95039,1.64599 1.91794,0.5439 3.69275,0.5439 1.80343,0 2.7624,-0.60115 0.95897,-0.60114 0.95897,-1.71756 0,-1.00191 -0.65839,-1.5458 -0.64409,-0.54389 -2.59065,-0.97328 l -2.13264,-0.47233 q -3.20611,-0.68703 -4.69466,-2.18989 -1.47424,-1.50286 -1.47424,-4.05057 0,-3.1918 2.06107,-4.90936 2.06107,-1.71756 5.92558,-1.71756 1.7605,0 3.62119,0.27195 1.86069,0.25763 3.85019,0.78721 z"
                 id="path32104" />
            </g>
          </g>
        </g>
      </g>
    </g>
  </g>
</svg>
