<?xml version="1.0" encoding="UTF-8" standalone="no"?>
<!-- Created with Inkscape (http://www.inkscape.org/) -->

<svg
   width="17.090019mm"
   height="7.0172mm"
   viewBox="0 0 17.090019 7.0172"
   version="1.1"
   id="svg1"
   sodipodi:docname="inkporter-svg-gkgs15q2.svg"
   xmlns:inkscape="http://www.inkscape.org/namespaces/inkscape"
   xmlns:sodipodi="http://sodipodi.sourceforge.net/DTD/sodipodi-0.dtd"
   xmlns="http://www.w3.org/2000/svg"
   xmlns:svg="http://www.w3.org/2000/svg">
  <sodipodi:namedview
     id="namedview1"
     pagecolor="#ffffff"
     bordercolor="#000000"
     borderopacity="0.25"
     inkscape:showpageshadow="2"
     inkscape:pageopacity="0.0"
     inkscape:pagecheckerboard="0"
     inkscape:deskcolor="#d1d1d1"
     inkscape:document-units="mm"
     inkscape:zoom="1.0476431"
     inkscape:cx="397.08179"
     inkscape:cy="561.25984"
     inkscape:window-width="2560"
     inkscape:window-height="1368"
     inkscape:window-x="0"
     inkscape:window-y="0"
     inkscape:window-maximized="1"
     inkscape:current-layer="layer1" />
  <defs
     id="defs1" />
  <g
     inkscape:label="Layer 1"
     inkscape:groupmode="layer"
     id="layer1"
     transform="translate(-213.03519,-90.75208)">
    <path
       id="AU-Sentinel-25pdr"
       d="m 230.0443,93.89088 -6.24755,-1.0721 -0.41722,0.5266 0.0165,-0.2895 c 0.005,-0.086 0.13044,-0.2789 0.13044,-0.2789 l 0.31415,-0.1429 1.14478,-0.2851 c 0,0 -0.0296,-0.6628 0.009,-0.6653 l -0.30252,-0.1153 -0.45543,-0.071 -0.28006,0.025 -0.0962,-0.1588 -0.2333,-0.1721 -0.44547,-0.1541 -0.0189,-0.1412 -0.82581,-0.029 -0.20948,-0.1151 -0.62358,0.018 -0.0327,0.1196 -0.36251,-0.034 -0.48295,0.121 -0.14419,0.1344 -0.69576,-0.015 -0.22596,0.1441 -0.0162,0.1609 c 0,0 -0.16794,0.061 -0.16584,-0.072 -0.0402,0.01 -0.62233,0.036 -0.62233,0.036 l -0.37027,0.096 -0.32886,0.389 0.2103,0.3246 -3.48239,0.065 -0.0147,0.4072 2.98848,0.01 0.0321,0.033 h 0.67471 c 0,0 0.0644,0.057 0.10443,0.096 l 0.13147,0.1286 c 0.12455,0.1916 0.53927,0.1829 0.60246,0.1791 v 0 c 0,0 -0.38985,0.2345 -0.35775,0.2505 0.0325,0.016 -0.63918,-0.465 -0.73209,-0.3585 -0.0184,0.021 -0.94306,0.1956 -0.93286,0.24 l -0.67832,-0.049 -0.75669,0.3158 -0.20382,0.1637 -0.095,0.2409 0.018,0.1554 0.62166,-0.021 -0.11968,0.1982 v 0 l -1.69473,0.1122 v -0.2321 h -0.25894 v 0.1 c 0,0 -0.0265,-0.02 -0.0529,-0.046 -0.0268,-0.027 -0.19931,-0.027 -0.19931,-0.027 v 0.1993 c -0.32857,-0.013 -0.64936,0.2934 -0.64936,0.2934 l 0.18581,0.3175 c -0.20461,0.2794 -0.38418,0.6549 -0.35949,0.8447 0.0381,0.2893 0.20003,0.5715 0.42263,0.7362 0.31962,0.2364 1.72226,0.7811 2.32093,1.0136 0.0963,0.037 0.1658,0.064 0.20002,0.078 0.25506,0.103 0.55281,0.1499 0.72108,0.1499 h 9.55146 c 0.20955,0 0.33902,-0.01 0.46602,-0.065 0.0272,-0.012 0.16686,-0.069 0.36054,-0.1478 0.65087,-0.2656 1.86231,-0.7602 2.02282,-0.8502 0.34502,-0.1937 0.55316,-0.4784 0.61772,-0.846 0.0519,-0.2949 -0.21015,-0.8158 -0.29274,-0.9767 -0.10206,-0.3647 0.39722,-0.3159 0.40886,-0.3159 0.0198,0.01 0.2884,-0.2831 0.2884,-0.2831 z m -16.23495,2.6926 c -0.012,-0.01 -0.024,-0.012 -0.0356,-0.018 0.0127,0 0.0254,0.01 0.0381,0.012 z m 0.34325,0.1598 c -0.0547,-0.024 -0.10759,-0.048 -0.15804,-0.072 l 0.024,-0.059 c 0.0187,0.001 0.0374,0 0.0564,0 0.0455,0 0.09,0 0.1337,-0.01 z m 1.40335,0.5761 c -0.0522,-0.02 -0.10724,-0.042 -0.16474,-0.065 l 0.0921,-0.2275 -0.18979,-0.077 -0.0928,0.2293 c -0.0526,-0.021 -0.10654,-0.043 -0.16087,-0.065 l 0.0928,-0.2297 -0.1898,-0.077 -0.0928,0.23 c -0.0526,-0.022 -0.10512,-0.043 -0.15769,-0.065 l 0.0924,-0.2289 -0.18979,-0.077 -0.0917,0.2268 c -0.055,-0.023 -0.10936,-0.046 -0.16298,-0.069 l 0.0907,-0.224 -0.0734,-0.03 c 0.14358,-0.045 0.27234,-0.1231 0.37782,-0.2254 l 0.22719,0.1072 0.75883,0.018 c -0.0166,0.07 -0.0254,0.1429 -0.0254,0.218 0,0.1726 0.0459,0.3345 0.12558,0.4742 l -0.17427,-0.07 z m 0.32491,0.1263 c -0.0176,-0.01 -0.036,-0.014 -0.0561,-0.022 -0.0243,-0.01 -0.0504,-0.019 -0.0783,-0.03 l 0.0857,-0.2117 c 0.0293,0.049 0.0628,0.094 0.0998,0.1373 z m 0.1905,0.074 0.0219,-0.054 c 0.0815,0.059 0.17251,0.1055 0.27094,0.1369 -0.0956,-0.02 -0.1965,-0.047 -0.29281,-0.083 m 0.83714,0.1238 h -0.16227 c 0.0557,-0.01 0.11007,-0.015 0.16228,-0.029 z m 1.1296,0 h -0.1771 v -0.2155 h -0.20461 v 0.2155 h -0.17357 v -0.2155 h -0.20461 v 0.2155 h -0.16474 v -0.1122 c 0.2413,-0.1316 0.4198,-0.3633 0.47907,-0.6399 l 0.17427,0.029 c 0.018,0.212 0.11959,0.4004 0.27129,0.5323 z m 0.20461,0 v -0.061 c 0.073,0.032 0.15205,0.053 0.2346,0.061 z m 0.52211,0 h -0.12206 c 0.0416,0 0.0826,-0.012 0.12206,-0.022 z m 0.75988,-0.2155 v 0.2155 h -0.17709 v -0.2155 h -0.20461 v 0.2155 h -0.17357 v -0.1087 c 0.15346,-0.092 0.2734,-0.2345 0.3369,-0.4046 h 0.14041 c 0.0423,0.114 0.11042,0.2156 0.19685,0.2978 z m 0.20461,0.2155 v -0.1443 c 0.10972,0.079 0.23989,0.1298 0.381,0.1443 z m 0.54893,0 h -0.002 z m 0.37817,0 h -0.17356 v -0.05 c 0.0621,-0.024 0.12029,-0.056 0.17356,-0.094 z m 1.51659,-0.2155 v 0.2155 h -0.17709 v -0.2155 h -0.20461 v 0.2155 h -0.17357 v -0.2155 h -0.20461 v 0.2155 h -0.17039 v -0.2155 h -0.20461 v 0.2155 h -0.1771 v -0.2155 h -0.11888 c 0.15205,-0.145 0.2473,-0.3496 0.2473,-0.5765 0,-0.1288 -0.031,-0.2504 -0.0854,-0.3584 h 1.24566 c -0.0543,0.1079 -0.085,0.2296 -0.085,0.3584 0,0.2268 0.0949,0.4315 0.24695,0.5765 z m 0.34855,0.2155 h -0.14393 v -0.1591 c 0.0444,0.034 0.0928,0.063 0.14393,0.088 z m 0.20461,0 v -0.01 c 0.0169,0 0.0342,0 0.0512,0.01 z m 0.55527,0 h -0.17709 v -0.034 c 0.0628,-0.02 0.12206,-0.048 0.17709,-0.082 z m 0.76659,0 h -0.17357 v -0.2155 h -0.20461 v 0.2155 h -0.1838 v -0.2155 h -0.0758 c 0.0825,-0.079 0.14816,-0.1747 0.1912,-0.2826 l 0.12982,-0.01 c 0.0621,0.1598 0.17392,0.2945 0.3168,0.3852 z m 0.20461,0 v -0.027 c 0.0448,0.013 0.091,0.022 0.13864,0.027 z m 0.53234,0 h -0.15063 v -0.012 c 0.0522,-0.011 0.10265,-0.026 0.15063,-0.047 z m 1.12183,0 h -0.15733 v -0.2155 h -0.20462 v 0.2155 h -0.17709 v -0.2155 h -0.20461 v 0.2155 h -0.17357 v -0.1852 c 0.14006,-0.1189 0.23813,-0.2854 0.26952,-0.4745 l 0.19721,-0.056 c 0.0649,0.2522 0.23001,0.4646 0.45049,0.592 z m 0.34714,0 h -0.14252 v -0.035 c 0.0586,0.017 0.11923,0.029 0.18168,0.035 h -0.0392 m 0.78138,-0.2089 c -0.0434,0.018 -0.0836,0.034 -0.1203,0.049 0.0762,-0.051 0.14464,-0.1118 0.2032,-0.1813 l 0.036,0.084 c -0.0416,0.017 -0.0815,0.033 -0.11889,0.049 m 1.35784,-0.5591 -0.0956,-0.2212 -0.18768,0.081 0.0945,0.219 c -0.0529,0.022 -0.10619,0.044 -0.16052,0.066 l -0.0935,-0.2166 -0.18768,0.081 0.0921,0.2135 c -0.0529,0.022 -0.10548,0.043 -0.15769,0.065 l -0.091,-0.2106 -0.18804,0.081 0.0896,0.207 c -0.0561,0.023 -0.11077,0.045 -0.16369,0.067 l -0.0882,-0.2039 -0.0106,0.01 c 0.0635,-0.128 0.0991,-0.2723 0.0991,-0.4251 0,-0.08 -0.01,-0.1587 -0.0286,-0.2335 l 0.60395,-0.014 c 0.15946,0.1411 0.36266,0.2335 0.58667,0.2547 l 0.0501,0.1161 c -0.0522,0.022 -0.10654,0.045 -0.16334,0.068 m 0.35172,-0.1486 -0.0169,-0.039 c 0.0783,-0.01 0.15416,-0.027 0.22613,-0.053 -0.0533,0.025 -0.12488,0.056 -0.2092,0.092" />
  </g>
</svg>
