<?xml version="1.0" encoding="UTF-8" standalone="no"?>
<!-- Created with Inkscape (http://www.inkscape.org/) -->

<svg
   width="7.7605515mm"
   height="8.0000019mm"
   viewBox="0 0 7.7605515 8.0000019"
   version="1.1"
   id="svg47190"
   inkscape:version="1.3.2 (091e20e, 2023-11-25, custom)"
   sodipodi:docname="ANZAC.svg"
   xmlns:inkscape="http://www.inkscape.org/namespaces/inkscape"
   xmlns:sodipodi="http://sodipodi.sourceforge.net/DTD/sodipodi-0.dtd"
   xmlns="http://www.w3.org/2000/svg"
   xmlns:svg="http://www.w3.org/2000/svg">
  <sodipodi:namedview
     id="namedview47192"
     pagecolor="#ffffff"
     bordercolor="#666666"
     borderopacity="1.0"
     inkscape:pageshadow="2"
     inkscape:pageopacity="0.0"
     inkscape:pagecheckerboard="0"
     inkscape:document-units="mm"
     showgrid="false"
     inkscape:zoom="40.993492"
     inkscape:cx="12.245846"
     inkscape:cy="15.843978"
     inkscape:window-width="3840"
     inkscape:window-height="2066"
     inkscape:window-x="2869"
     inkscape:window-y="-11"
     inkscape:window-maximized="1"
     inkscape:current-layer="g90"
     inkscape:showpageshadow="2"
     inkscape:deskcolor="#d1d1d1" />
  <defs
     id="defs47187">
    <clipPath
       clipPathUnits="userSpaceOnUse"
       id="clipPath63680-8">
      <path
         d="M 0,0 H 595.276 V 841.89 H 0 Z"
         id="path63678-4" />
    </clipPath>
    <clipPath
       clipPathUnits="userSpaceOnUse"
       id="clipPath13">
      <rect
         style="fill:#000000;stroke-width:29.7638;stroke-linejoin:round;paint-order:stroke fill markers"
         id="rect13"
         width="63"
         height="63"
         x="2.2737368e-13"
         y="170.01469"
         rx="11.8125" />
    </clipPath>
    <clipPath
       id="c">
      <path
         d="M 0,0 V 1.5 H 7 V 3 H 6 Z M 6,0 H 3 V 3.5 H 0 V 3 Z"
         id="path1" />
    </clipPath>
    <inkscape:path-effect
       effect="fillet_chamfer"
       id="path-effect7-4"
       is_visible="true"
       lpeversion="1"
       nodesatellites_param="F,0,0,1,0,2.3456528,0,1 @ F,0,0,1,0,0,0,1 @ F,0,0,1,0,0,0,1 @ F,0,0,1,0,0,0,1"
       radius="0"
       unit="px"
       method="auto"
       mode="F"
       chamfer_steps="1"
       flexible="false"
       use_knot_distance="true"
       apply_no_radius="true"
       apply_with_radius="true"
       only_selected="false"
       hide_knots="false" />
    <inkscape:path-effect
       effect="fillet_chamfer"
       id="path-effect30"
       is_visible="true"
       lpeversion="1"
       nodesatellites_param="F,0,0,1,0,2.3456528,0,1 @ F,0,0,1,0,0,0,1 @ F,0,0,1,0,0,0,1 @ F,0,0,1,0,0,0,1"
       radius="0"
       unit="px"
       method="auto"
       mode="F"
       chamfer_steps="1"
       flexible="false"
       use_knot_distance="true"
       apply_no_radius="true"
       apply_with_radius="true"
       only_selected="false"
       hide_knots="false" />
    <inkscape:path-effect
       effect="fillet_chamfer"
       id="path-effect7"
       is_visible="true"
       lpeversion="1"
       nodesatellites_param="F,0,0,1,0,2.3456528,0,1 @ F,0,0,1,0,0,0,1 @ F,0,0,1,0,0,0,1 @ F,0,0,1,0,0,0,1"
       radius="0"
       unit="px"
       method="auto"
       mode="F"
       chamfer_steps="1"
       flexible="false"
       use_knot_distance="true"
       apply_no_radius="true"
       apply_with_radius="true"
       only_selected="false"
       hide_knots="false" />
    <inkscape:path-effect
       effect="fillet_chamfer"
       id="path-effect9"
       is_visible="true"
       lpeversion="1"
       nodesatellites_param="F,0,0,1,0,0.52916667,0,1 @ F,0,0,1,0,0,0,1 @ F,0,0,1,0,0,0,1 @ F,0,0,1,0,0.52916667,0,1"
       radius="2"
       unit="px"
       method="auto"
       mode="F"
       chamfer_steps="1"
       flexible="false"
       use_knot_distance="true"
       apply_no_radius="true"
       apply_with_radius="true"
       only_selected="false"
       hide_knots="false" />
    <inkscape:path-effect
       effect="fillet_chamfer"
       id="path-effect9-7"
       is_visible="true"
       lpeversion="1"
       nodesatellites_param="F,0,0,1,0,0.52916667,0,1 @ F,0,0,1,0,0,0,1 @ F,0,0,1,0,0,0,1 @ F,0,0,1,0,0.52916667,0,1"
       radius="2"
       unit="px"
       method="auto"
       mode="F"
       chamfer_steps="1"
       flexible="false"
       use_knot_distance="true"
       apply_no_radius="true"
       apply_with_radius="true"
       only_selected="false"
       hide_knots="false" />
    <inkscape:path-effect
       effect="fillet_chamfer"
       id="path-effect17"
       is_visible="true"
       lpeversion="1"
       nodesatellites_param="F,0,0,1,0,2.3456528,0,1 @ F,0,0,1,0,0,0,1 @ F,0,0,1,0,0,0,1 @ F,0,0,1,0,0,0,1"
       radius="0"
       unit="px"
       method="auto"
       mode="F"
       chamfer_steps="1"
       flexible="false"
       use_knot_distance="true"
       apply_no_radius="true"
       apply_with_radius="true"
       only_selected="false"
       hide_knots="false" />
    <inkscape:path-effect
       effect="fillet_chamfer"
       id="path-effect19"
       is_visible="true"
       lpeversion="1"
       nodesatellites_param="F,0,0,1,0,0.52916667,0,1 @ F,0,0,1,0,0,0,1 @ F,0,0,1,0,0,0,1 @ F,0,0,1,0,0.52916667,0,1"
       radius="2"
       unit="px"
       method="auto"
       mode="F"
       chamfer_steps="1"
       flexible="false"
       use_knot_distance="true"
       apply_no_radius="true"
       apply_with_radius="true"
       only_selected="false"
       hide_knots="false" />
    <inkscape:path-effect
       effect="fillet_chamfer"
       id="path-effect32"
       is_visible="true"
       lpeversion="1"
       nodesatellites_param="F,0,0,1,0,0.52916667,0,1 @ F,0,0,1,0,0,0,1 @ F,0,0,1,0,0,0,1 @ F,0,0,1,0,0.52916667,0,1"
       radius="2"
       unit="px"
       method="auto"
       mode="F"
       chamfer_steps="1"
       flexible="false"
       use_knot_distance="true"
       apply_no_radius="true"
       apply_with_radius="true"
       only_selected="false"
       hide_knots="false" />
    <inkscape:path-effect
       effect="fillet_chamfer"
       id="path-effect33"
       is_visible="true"
       lpeversion="1"
       nodesatellites_param="F,0,0,1,0,0.26458333,0,1 @ F,0,0,1,0,0.26458333,0,1 @ F,0,0,1,0,0.26458333,0,1 @ F,0,0,1,0,0.26458333,0,1 @ F,0,0,1,0,0.26458333,0,1 @ F,0,0,1,0,0.26458333,0,1 @ F,0,0,1,0,0.26458333,0,1 @ F,0,0,1,0,0.26458333,0,1 @ F,0,0,1,0,0.26458333,0,1 @ F,0,0,1,0,0.26458333,0,1"
       radius="1"
       unit="px"
       method="auto"
       mode="F"
       chamfer_steps="1"
       flexible="false"
       use_knot_distance="true"
       apply_no_radius="true"
       apply_with_radius="true"
       only_selected="false"
       hide_knots="false" />
    <inkscape:path-effect
       effect="fillet_chamfer"
       id="path-effect33-5"
       is_visible="true"
       lpeversion="1"
       nodesatellites_param="F,0,0,1,0,0.26458333,0,1 @ F,0,0,1,0,0.26458333,0,1 @ F,0,0,1,0,0.26458333,0,1 @ F,0,0,1,0,0.26458333,0,1 @ F,0,0,1,0,0.26458333,0,1 @ F,0,0,1,0,0.26458333,0,1 @ F,0,0,1,0,0.26458333,0,1 @ F,0,0,1,0,0.26458333,0,1 @ F,0,0,1,0,0.26458333,0,1 @ F,0,0,1,0,0.26458333,0,1"
       radius="1"
       unit="px"
       method="auto"
       mode="F"
       chamfer_steps="1"
       flexible="false"
       use_knot_distance="true"
       apply_no_radius="true"
       apply_with_radius="true"
       only_selected="false"
       hide_knots="false" />
    <inkscape:path-effect
       effect="fillet_chamfer"
       id="path-effect33-1"
       is_visible="true"
       lpeversion="1"
       nodesatellites_param="F,0,0,1,0,0.26458333,0,1 @ F,0,0,1,0,0.26458333,0,1 @ F,0,0,1,0,0.26458333,0,1 @ F,0,0,1,0,0.26458333,0,1 @ F,0,0,1,0,0.26458333,0,1 @ F,0,0,1,0,0.26458333,0,1 @ F,0,0,1,0,0.26458333,0,1 @ F,0,0,1,0,0.26458333,0,1 @ F,0,0,1,0,0.26458333,0,1 @ F,0,0,1,0,0.26458333,0,1"
       radius="1"
       unit="px"
       method="auto"
       mode="F"
       chamfer_steps="1"
       flexible="false"
       use_knot_distance="true"
       apply_no_radius="true"
       apply_with_radius="true"
       only_selected="false"
       hide_knots="false" />
    <inkscape:path-effect
       effect="fillet_chamfer"
       id="path-effect33-4"
       is_visible="true"
       lpeversion="1"
       nodesatellites_param="F,0,0,1,0,0.26458333,0,1 @ F,0,0,1,0,0.26458333,0,1 @ F,0,0,1,0,0.26458333,0,1 @ F,0,0,1,0,0.26458333,0,1 @ F,0,0,1,0,0.26458333,0,1 @ F,0,0,1,0,0.26458333,0,1 @ F,0,0,1,0,0.26458333,0,1 @ F,0,0,1,0,0.26458333,0,1 @ F,0,0,1,0,0.26458333,0,1 @ F,0,0,1,0,0.26458333,0,1"
       radius="1"
       unit="px"
       method="auto"
       mode="F"
       chamfer_steps="1"
       flexible="false"
       use_knot_distance="true"
       apply_no_radius="true"
       apply_with_radius="true"
       only_selected="false"
       hide_knots="false" />
  </defs>
  <g
     inkscape:label="Layer 1"
     inkscape:groupmode="layer"
     id="layer1"
     transform="translate(-86.412414,-76.730771)">
    <g
       id="g90"
       transform="matrix(0.13130491,0,0,0.13130491,78.14636,64.514433)">
      <path
         id="path25"
         style="fill:#92753e;stroke-width:2.44242;paint-order:markers stroke fill"
         d="m 118.7107,100.98727 c 0.87592,-3e-5 1.74587,0.39679 2.36524,1.07736 0.61936,0.68057 0.98049,1.63651 0.98047,2.59898 v 7.36475 c -6e-5,0.60684 -0.44774,1.09877 -1,1.09883 H 95.579844 c -0.552262,-6e-5 -0.999945,-0.49199 -1,-1.09883 v -9.94227 c 5.5e-5,-0.60684 0.447738,-1.09876 1,-1.09882 z"
         sodipodi:nodetypes="cscccccccc" />
      <path
         id="path24"
         style="fill:#92753e;stroke-width:0.264583px"
         transform="matrix(-1,0,0,1,185.00953,0)"
         d="m 69.451172,110.65039 a 1.0001,1.0001 0 0 0 -1.458985,0.89258 l 0.0293,7.92773 a 1.0001,1.0001 0 0 0 1.472657,0.87696 c 0,0 3.677733,-2.0126 3.677734,-6.33985 v -0.82812 a 1.0001,1.0001 0 0 0 -0.541016,-0.88867 z" />
      <path
         id="path14"
         style="fill:#92753e;stroke-width:0.264583px"
         d="m 69.451172,110.65039 a 1.0001,1.0001 0 0 0 -1.458985,0.89258 l 0.0293,7.92773 a 1.0001,1.0001 0 0 0 1.472657,0.87696 c 0,0 3.677733,-2.0126 3.677734,-6.33985 v -0.82812 a 1.0001,1.0001 0 0 0 -0.541016,-0.88867 z" />
      <path
         id="path11-2"
         style="fill:#92753e;stroke-width:2.33;paint-order:markers stroke fill"
         d="m 69.644531,93.136719 c -0.875913,-1.9e-5 -1.74587,0.361105 -2.365234,0.980468 -0.619364,0.619364 -0.980488,1.489322 -0.980469,2.365235 v 6.702368 c 5.5e-5,0.55226 0.447738,0.99995 1,1 h 25.476563 c 0.552262,-5e-5 0.999945,-0.44774 1,-1 v -9.048071 c -5.5e-5,-0.552262 -0.447738,-0.999945 -1,-1 z"
         sodipodi:nodetypes="cscccccccc"
         transform="matrix(1,0,0,1.098827,-3.3457031,-1.3538762)" />
      <path
         id="rect6-8"
         transform="matrix(1,0,0,1.098827,-3.3457031,-1.3538762)"
         d="M 69.643558,94.136223 H 92.775391 V 104.25976 H 67.297905 v -7.777884 a 2.3456528,2.3456528 135 0 1 2.345653,-2.345653 z"
         style="fill:#050c5b;fill-opacity:1;stroke:none;stroke-width:2.33;paint-order:markers stroke fill" />
      <path
         id="path11-0"
         style="fill:#92753e;stroke-width:2.33;paint-order:markers stroke fill"
         transform="matrix(1,0,0,1.098827,0,-9.3032028)"
         d="m 69.644531,93.136719 c -0.875913,-1.9e-5 -1.74587,0.361105 -2.365234,0.980468 -0.619364,0.619364 -0.980488,1.489322 -0.980469,2.365235 v 7.777348 a 1.0001,1.0001 0 0 0 1,1 h 25.476563 a 1.0001,1.0001 0 0 0 1,-1 V 94.136719 a 1.0001,1.0001 0 0 0 -1,-1 z" />
      <path
         style="fill:#050c5b;fill-opacity:1;stroke:none;stroke-width:0.264583px;stroke-linecap:butt;stroke-linejoin:miter;stroke-opacity:1"
         d="m 69.0223,119.46717 -0.02993,-7.92748 3.179506,1.63973 c 0,0 0,0.4972 0,0.82884 -10e-7,3.77018 -3.149574,5.45891 -3.149574,5.45891 z"
         id="path13-3"
         sodipodi:nodetypes="cccscc" />
      <path
         id="path9-8"
         style="fill:#92753e;stroke-width:2.52057;paint-order:markers stroke fill"
         d="m 64.736884,110.53923 c -0.935082,0.003 -1.783057,0.73026 -1.782833,1.52929 v 0.63086 c -2.41e-4,0.79905 0.84774,1.52655 1.782833,1.5293 0.0015,0 0.003,0 0.0046,0 h 8.480853 c 0.646294,-6e-5 1.170204,-0.44774 1.170269,-1 v -1.68945 c -6.5e-5,-0.55226 -0.523975,-0.99994 -1.170269,-1 h -8.480853 c -0.0015,0 -0.003,0 -0.0046,0 z"
         sodipodi:nodetypes="cccsccccccc" />
      <path
         id="path26"
         transform="matrix(-1,0,0,1.098827,188.35524,-1.3538762)"
         d="M 69.643558,94.136223 H 92.775391 V 104.25976 H 67.297905 v -7.777884 a 2.3456528,2.3456528 135 0 1 2.345653,-2.345653 z"
         style="fill:#050c5b;fill-opacity:1;stroke:none;stroke-width:2.33;paint-order:markers stroke fill" />
      <path
         id="path15"
         style="fill:#92753e;stroke-width:2.33;paint-order:markers stroke fill"
         transform="matrix(-1,0,0,1.098827,185.55078,-9.3032028)"
         d="m 69.644531,93.136719 c -0.875913,-1.9e-5 -1.74587,0.361105 -2.365234,0.980468 -0.619364,0.619364 -0.980488,1.489322 -0.980469,2.365235 v 7.777348 a 1.0001,1.0001 0 0 0 1,1 h 25.476563 a 1.0001,1.0001 0 0 0 1,-1 V 94.136719 a 1.0001,1.0001 0 0 0 -1,-1 z" />
      <path
         id="rect6"
         transform="matrix(1,0,0,1.098827,0,-9.3032028)"
         d="M 69.643558,94.136223 H 92.775391 V 104.25976 H 67.297905 v -7.777884 a 2.3456528,2.3456528 135 0 1 2.345653,-2.345653 z"
         style="fill:#050c5b;fill-opacity:1;stroke:none;stroke-width:2.33;paint-order:markers stroke fill" />
      <g
         id="g17">
        <path
           id="path9-85"
           style="fill:#92753e;stroke-width:2.33;paint-order:markers stroke fill"
           transform="matrix(1.1702694,0,0,1,-11.28866,0)"
           d="m 67.822266,104.25977 c -0.799031,0.003 -1.523629,0.73026 -1.523438,1.52929 v 0.63086 c -2.06e-4,0.79905 0.724398,1.52655 1.523438,1.5293 a 1.0001,1.0001 0 0 0 0.0039,0 h 4.345703 a 1.0001,1.0001 0 0 0 1,-1 v -1.68945 a 1.0001,1.0001 0 0 0 -1,-1 h -4.345703 a 1.0001,1.0001 0 0 0 -0.0039,0 z" />
        <path
           id="rect8"
           transform="matrix(1.2053603,0,0,1,-13.820319,0)"
           d="m 67.827072,105.26023 4.344803,0 v 1.68887 h -4.344803 a 0.52916667,0.52916667 45 0 1 -0.529167,-0.52917 v -0.63053 a 0.52916667,0.52916667 135 0 1 0.529167,-0.52917 z"
           style="fill:#050c5b;fill-opacity:1;stroke:none;stroke-width:2.33;paint-order:markers stroke fill" />
      </g>
      <path
         id="rect8-5"
         transform="matrix(1.2053603,0,0,1,-17.165098,6.2794557)"
         d="m 67.827072,105.26023 h 7.832219 v 1.68887 h -7.832219 a 0.52916667,0.52916667 45 0 1 -0.529167,-0.52917 v -0.63053 a 0.52916667,0.52916667 135 0 1 0.529167,-0.52917 z"
         style="fill:#050c5b;fill-opacity:1;stroke:none;stroke-width:2.33;paint-order:markers stroke fill" />
      <path
         id="path16"
         transform="matrix(-1,0,0,1.098827,185.55078,-9.3032028)"
         d="M 69.643558,94.136223 H 92.775391 V 104.25976 H 67.297905 v -7.777884 a 2.3456528,2.3456528 135 0 1 2.345653,-2.345653 z"
         style="fill:#050c5b;fill-opacity:1;stroke:none;stroke-width:2.33;paint-order:markers stroke fill" />
      <g
         id="g18"
         transform="matrix(-1,0,0,1,185.55078,0)">
        <path
           id="path17"
           style="fill:#92753e;stroke-width:2.33;paint-order:markers stroke fill"
           transform="matrix(1.1702694,0,0,1,-11.28866,0)"
           d="m 67.822266,104.25977 c -0.799031,0.003 -1.523629,0.73026 -1.523438,1.52929 v 0.63086 c -2.06e-4,0.79905 0.724398,1.52655 1.523438,1.5293 a 1.0001,1.0001 0 0 0 0.0039,0 h 4.345703 a 1.0001,1.0001 0 0 0 1,-1 v -1.68945 a 1.0001,1.0001 0 0 0 -1,-1 h -4.345703 a 1.0001,1.0001 0 0 0 -0.0039,0 z" />
        <path
           id="path18"
           transform="matrix(1.2053603,0,0,1,-13.820319,0)"
           d="m 67.827072,105.26023 4.344803,0 v 1.68887 h -4.344803 a 0.52916667,0.52916667 45 0 1 -0.529167,-0.52917 v -0.63053 a 0.52916667,0.52916667 135 0 1 0.529167,-0.52917 z"
           style="fill:#050c5b;fill-opacity:1;stroke:none;stroke-width:2.33;paint-order:markers stroke fill" />
      </g>
      <path
         style="fill:#050c5b;fill-opacity:1;stroke:none;stroke-width:0.264583px;stroke-linecap:butt;stroke-linejoin:miter;stroke-opacity:1"
         d="m 115.98723,119.46717 0.0299,-7.92748 -3.1795,1.63973 c 0,0 0,0.4972 0,0.82884 0,3.77018 3.14957,5.45891 3.14957,5.45891 z"
         id="path27"
         sodipodi:nodetypes="cccscc" />
      <path
         id="path28"
         style="fill:#92753e;stroke-width:2.52057;paint-order:markers stroke fill"
         d="m 120.27265,110.53923 c 0.93508,0.003 1.78306,0.73026 1.78283,1.52929 v 0.63086 c 2.4e-4,0.79905 -0.84774,1.52655 -1.78283,1.5293 -0.001,0 -0.003,0 -0.005,0 h -8.48085 c -0.6463,-6e-5 -1.17021,-0.44774 -1.17027,-1 v -1.68945 c 6e-5,-0.55226 0.52397,-0.99994 1.17027,-1 h 8.48085 c 10e-4,0 0.003,0 0.005,0 z"
         sodipodi:nodetypes="cccsccccccc" />
      <path
         id="path29"
         transform="matrix(-1.2053603,0,0,1,202.17463,6.2794557)"
         d="m 67.827072,105.26023 h 7.832219 v 1.68887 h -7.832219 a 0.52916667,0.52916667 45 0 1 -0.529167,-0.52917 v -0.63053 a 0.52916667,0.52916667 135 0 1 0.529167,-0.52917 z"
         style="fill:#050c5b;fill-opacity:1;stroke:none;stroke-width:2.33;paint-order:markers stroke fill" />
      <path
         id="path6-7"
         style="fill:#92753e;stroke-width:2.33;paint-order:markers stroke fill"
         d="m 73.171875,104.25977 a 1.0001,1.0001 0 0 0 -1,1 v 28.33203 c 2.17e-4,2.88171 0.796589,5.76024 2.277344,8.23242 1.480755,2.47218 3.641112,4.53047 6.18164,5.89062 l 11.449219,6.13086 a 1.0001,1.0001 0 0 0 0.472656,0.11914 H 92.775391 93 a 1.0001,1.0001 0 0 0 0.472656,-0.11914 l 11.449224,-6.13086 c 2.54014,-1.36043 4.70126,-3.42041 6.18164,-5.89257 1.48038,-2.47216 2.27537,-5.34896 2.27539,-8.23047 v -28.33203 a 1.0001,1.0001 0 0 0 -1,-1 H 92.775391 Z" />
      <path
         id="rect2"
         style="fill:#f1f1f1;fill-opacity:1;stroke:none;stroke-width:2.33;paint-order:markers stroke fill"
         d="m 73.172795,105.26024 v 28.33109 a 15.02187,15.02187 0 0 0 7.930265,13.2426 l 11.448913,6.13089 h 0.223759 0.223759 l 11.448909,-6.13089 a 15.02187,15.02187 0 0 0 7.93027,-13.2426 V 105.26024 H 92.775732 Z" />
      <path
         style="fill:#634c29;fill-opacity:1;stroke:none;stroke-width:0.264583px;stroke-linecap:butt;stroke-linejoin:miter;stroke-opacity:1"
         d="m 87.799798,118.92414 c 0,0 1.543354,1.85774 3.143872,3.22961 1.600517,1.37188 2.772325,2.54368 3.401099,4.2871 0.628775,1.74342 0.657355,3.88697 0.514451,4.80155 -0.142902,0.91459 -0.371549,1.91491 0.342969,2.74375 0.714515,0.82884 1.514774,1.85774 3.601164,2.42936 2.086387,0.57161 4.515747,1.0289 6.945097,1.11464 2.42936,0.0857 3.51542,0.0286 3.94413,0.22865 0.42871,0.20006 0.65736,0.65735 0.22865,0.91458 -0.42871,0.25722 -6.85936,-0.0858 -8.45988,-0.17149 -1.600513,-0.0857 -5.859032,-1.25755 -7.45955,-2.54368 -1.600517,-1.28613 -1.600517,-3.60116 -1.600517,-3.60116 l -1.714839,0.85742 c 0,0 -0.314388,2.34361 -0.171484,2.91523 0.142904,0.57161 -0.02858,1.68626 -1.000323,1.65768 -0.971744,-0.0286 -2.686582,-0.17149 -3.544002,0.1429 -0.857422,0.31439 -1.603985,0.44402 -1.603985,0.44402 0,0 -0.441493,-0.54507 -1.813363,-0.63081 -1.371872,-0.0857 -2.670333,0.0725 -2.670333,0.0725 0,0 -0.342969,0.51445 -1.028904,0.40013 -0.685937,-0.11433 -0.685937,-1.05749 -0.428712,-1.31471 0.257228,-0.25723 1.257551,-0.62878 1.886326,-0.68594 0.628774,-0.0572 4.172775,0.25723 4.572904,0.25723 0.40013,0 0.543034,0.48587 0.628775,-0.48588 0.08574,-0.97174 0.228645,-2.31503 0.02858,-2.82948 -0.200065,-0.51445 -1.543354,-1.37187 -1.657678,-2.48652 -0.114321,-1.11464 -0.743095,-4.05845 0.314389,-4.83013 1.057484,-0.77168 1.543354,-0.94316 1.543354,-0.94316 0,0 -0.514451,0.22864 -1.314709,-0.20007 -0.800259,-0.42871 -1.295383,-0.95095 -1.171808,-1.60051 0.06857,-0.36045 0.543033,-0.82884 0.142904,-0.91458 -0.40013,-0.0857 -1.571937,0.80025 -1.571937,0.80025 0,0 -0.91458,-0.1429 -1.429033,0.0858 -0.514451,0.22864 -1.914904,1.3147 -2.029228,1.74341 -0.114321,0.42872 0.05716,1.05749 -0.142904,1.28614 -0.200062,0.22864 -1.486193,0.0286 -1.457613,-0.42871 0.02858,-0.4573 0.685938,-2.05781 1.028904,-2.45794 0.342968,-0.40013 1.943486,-1.57194 2.343615,-1.60052 0.40013,-0.0286 0.600194,0.17149 0.685935,-0.20006 0.08574,-0.37155 0.257228,-1.42904 -0.428709,-1.42904 -0.685935,0 -0.91458,0 -1.657679,0.0572 -0.743098,0.0572 -0.743098,0.71452 -1.000323,1.31471 -0.257225,0.6002 -0.342969,0.94317 -0.886,0.82885 -0.543033,-0.11433 -0.771678,-0.17149 -0.800258,-0.85743 -0.02858,-0.68593 0.828839,-1.80058 1.286129,-2.0578 0.45729,-0.25723 1.800582,-0.77168 2.515097,-0.68594 0.714518,0.0857 0.971743,0.25723 0.971743,0.25723 0,0 -0.314386,-0.31439 0.142904,-1.08607 0.45729,-0.77168 1.31471,-1.25755 1.31471,-1.25755 0,0 -0.685935,-0.77168 -0.600194,-1.54335 0.08574,-0.77168 0.400129,-1.02891 0.400129,-1.02891 0,0 -0.971741,-0.0572 -1.429033,-0.0572 -0.45729,0 -0.743096,0.7431 -1.028904,0.68594 -0.285805,-0.0572 -1.429033,-0.62566 -1.286129,-1.34174 0.142904,-0.71607 1.343292,-1.66987 1.657678,-1.66987 0.314389,0 0.543034,-0.9611 0.914583,-0.90394 0.371549,0.0572 -0.371549,-1.08607 -0.285808,-1.54336 0.08574,-0.45729 0.02858,-1.772 0.571613,-1.68626 0.543034,0.0857 1.000324,1.08607 0.971743,1.45762 -0.02858,0.37154 0.314386,0.68593 0.314386,0.48587 0,-0.20007 -0.257225,-0.6002 -0.05716,-1.20039 0.200064,-0.60019 0.714518,-1.11465 0.914582,-0.97174 0.200065,0.1429 0.800259,0.97174 0.743096,1.34329 -0.05716,0.37155 -0.228645,2.28645 -0.228645,2.28645 0,0 0.344241,0.23963 0.628774,0.73246 0.284536,0.49282 1.314712,3.49748 1.371873,3.98335 0.05716,0.48587 1.086064,2.37219 1.943486,3.4011 z"
         id="path32"
         sodipodi:nodetypes="cssssscssssccssscccsscssssscsscccssssssssssssccscscscsscscssssscsscc" />
      <path
         id="path33"
         transform="translate(0,0.01834042)"
         inkscape:transform-center-x="1.2411659e-06"
         inkscape:transform-center-y="-0.1338603"
         d="m 98.634643,113.42849 0.560309,1.13531 a 0.50326747,0.50326747 36.000002 0 0 0.378929,0.2753 l 1.252889,0.18206 a 0.1305797,0.1305797 72.000002 0 1 0.0724,0.22273 l -0.9066,0.88371 a 0.50326747,0.50326747 108 0 0 -0.144738,0.44546 l 0.214018,1.24783 a 0.1305797,0.1305797 144 0 1 -0.189463,0.13765 l -1.120618,-0.58914 a 0.50326747,0.50326747 1.5496486e-6 0 0 -0.468382,0 l -1.120619,0.58914 a 0.1305797,0.1305797 36.000002 0 1 -0.189464,-0.13765 l 0.214019,-1.24783 a 0.50326747,0.50326747 72.000002 0 0 -0.144738,-0.44546 l -0.906599,-0.88371 a 0.1305797,0.1305797 108 0 1 0.07237,-0.22273 l 1.252889,-0.18206 a 0.50326747,0.50326747 144 0 0 0.378929,-0.2753 l 0.560309,-1.13531 a 0.1305797,0.1305797 1.5496468e-6 0 1 0.234191,0 z"
         style="fill:#634c29;fill-opacity:1;stroke:none;stroke-width:2.33;paint-order:markers stroke fill" />
      <path
         id="path33-8"
         transform="translate(4.3568253,-6.1242801)"
         inkscape:transform-center-x="1.2411659e-06"
         inkscape:transform-center-y="-0.1338603"
         d="m 98.634643,113.42849 0.560309,1.13531 a 0.50326747,0.50326747 36.000002 0 0 0.378929,0.2753 l 1.252889,0.18206 a 0.1305797,0.1305797 72.000002 0 1 0.0724,0.22273 l -0.9066,0.88371 a 0.50326747,0.50326747 108 0 0 -0.144738,0.44546 l 0.214018,1.24783 a 0.1305797,0.1305797 144 0 1 -0.189463,0.13765 l -1.120618,-0.58914 a 0.50326747,0.50326747 1.5496486e-6 0 0 -0.468382,0 l -1.120619,0.58914 a 0.1305797,0.1305797 36.000002 0 1 -0.189464,-0.13765 l 0.214019,-1.24783 a 0.50326747,0.50326747 72.000002 0 0 -0.144738,-0.44546 l -0.906599,-0.88371 a 0.1305797,0.1305797 108 0 1 0.07237,-0.22273 l 1.252889,-0.18206 a 0.50326747,0.50326747 144 0 0 0.378929,-0.2753 l 0.560309,-1.13531 a 0.1305797,0.1305797 1.5496468e-6 0 1 0.234191,0 z"
         style="fill:#634c29;fill-opacity:1;stroke:none;stroke-width:2.33;paint-order:markers stroke fill" />
      <path
         id="path33-88"
         transform="translate(9.098102,-0.74808766)"
         inkscape:transform-center-x="1.2411659e-06"
         inkscape:transform-center-y="-0.1338603"
         d="m 98.634643,113.42849 0.560309,1.13531 a 0.50326747,0.50326747 36.000002 0 0 0.378929,0.2753 l 1.252889,0.18206 a 0.1305797,0.1305797 72.000002 0 1 0.0724,0.22273 l -0.9066,0.88371 a 0.50326747,0.50326747 108 0 0 -0.144738,0.44546 l 0.214018,1.24783 a 0.1305797,0.1305797 144 0 1 -0.189463,0.13765 l -1.120618,-0.58914 a 0.50326747,0.50326747 1.5496486e-6 0 0 -0.468382,0 l -1.120619,0.58914 a 0.1305797,0.1305797 36.000002 0 1 -0.189464,-0.13765 l 0.214019,-1.24783 a 0.50326747,0.50326747 72.000002 0 0 -0.144738,-0.44546 l -0.906599,-0.88371 a 0.1305797,0.1305797 108 0 1 0.07237,-0.22273 l 1.252889,-0.18206 a 0.50326747,0.50326747 144 0 0 0.378929,-0.2753 l 0.560309,-1.13531 a 0.1305797,0.1305797 1.5496468e-6 0 1 0.234191,0 z"
         style="fill:#634c29;fill-opacity:1;stroke:none;stroke-width:2.33;paint-order:markers stroke fill" />
      <path
         id="path33-5"
         transform="translate(4.5628315,6.5387531)"
         inkscape:transform-center-x="1.2411659e-06"
         inkscape:transform-center-y="-0.1338603"
         d="m 98.634643,113.42849 0.560309,1.13531 a 0.50326747,0.50326747 36.000002 0 0 0.378929,0.2753 l 1.252889,0.18206 a 0.1305797,0.1305797 72.000002 0 1 0.0724,0.22273 l -0.9066,0.88371 a 0.50326747,0.50326747 108 0 0 -0.144738,0.44546 l 0.214018,1.24783 a 0.1305797,0.1305797 144 0 1 -0.189463,0.13765 l -1.120618,-0.58914 a 0.50326747,0.50326747 1.5496486e-6 0 0 -0.468382,0 l -1.120619,0.58914 a 0.1305797,0.1305797 36.000002 0 1 -0.189464,-0.13765 l 0.214019,-1.24783 a 0.50326747,0.50326747 72.000002 0 0 -0.144738,-0.44546 l -0.906599,-0.88371 a 0.1305797,0.1305797 108 0 1 0.07237,-0.22273 l 1.252889,-0.18206 a 0.50326747,0.50326747 144 0 0 0.378929,-0.2753 l 0.560309,-1.13531 a 0.1305797,0.1305797 1.5496468e-6 0 1 0.234191,0 z"
         style="fill:#634c29;fill-opacity:1;stroke:none;stroke-width:2.33;paint-order:markers stroke fill" />
      <path
         style="font-size:11.5389px;line-height:1.25;font-family:Calibri;-inkscape-font-specification:Calibri;fill:#d1a359;stroke-width:0.288473"
         d="m 59.864595,135.41576 q 0.04507,0.12395 0.04507,0.20283 0.0056,0.0732 -0.03944,0.11268 -0.04507,0.0394 -0.152124,0.0507 -0.101416,0.0113 -0.276077,0.0113 -0.174662,0 -0.281712,-0.0113 -0.101416,-0.006 -0.157758,-0.0225 -0.05071,-0.0225 -0.07888,-0.0563 -0.02254,-0.0338 -0.04507,-0.0845 l -0.6254,-1.77478 H 55.22199 l -0.597228,1.75224 q -0.0169,0.0507 -0.04507,0.0902 -0.02817,0.0338 -0.08451,0.062 -0.05071,0.0225 -0.152124,0.0338 -0.09578,0.0113 -0.253541,0.0113 -0.163392,0 -0.270443,-0.0169 -0.101416,-0.0113 -0.14649,-0.0507 -0.03944,-0.0394 -0.03944,-0.11268 0.0056,-0.0789 0.05071,-0.20284 l 2.445255,-6.77234 q 0.02254,-0.062 0.05634,-0.10142 0.03944,-0.0394 0.107051,-0.062 0.07325,-0.0225 0.180295,-0.0282 0.112685,-0.0113 0.281711,-0.0113 0.180296,0 0.298615,0.0113 0.118318,0.006 0.191563,0.0282 0.07325,0.0225 0.112685,0.0676 0.03944,0.0394 0.06198,0.10141 z m -3.138266,-5.97792 h -0.0056 l -1.256433,3.63408 h 2.535403 z m 9.865535,5.92157 q 0,0.11269 -0.03944,0.19157 -0.03381,0.0789 -0.09578,0.12959 -0.05634,0.0507 -0.129587,0.0732 -0.07325,0.0225 -0.14649,0.0225 h -0.309883 q -0.14649,0 -0.259174,-0.0282 -0.10705,-0.0338 -0.208467,-0.11269 -0.09578,-0.0845 -0.197198,-0.22537 -0.09578,-0.14085 -0.2141,-0.36059 l -2.298766,-4.14679 q -0.180295,-0.32115 -0.366224,-0.67047 -0.180296,-0.35496 -0.338054,-0.68738 h -0.01127 q 0.01127,0.40567 0.0169,0.82823 0.0056,0.42257 0.0056,0.8395 v 4.40034 q 0,0.0394 -0.02254,0.0789 -0.02254,0.0338 -0.07888,0.0563 -0.05071,0.0169 -0.140856,0.0282 -0.08451,0.0169 -0.219734,0.0169 -0.135222,0 -0.22537,-0.0169 -0.08451,-0.0113 -0.135221,-0.0282 -0.05071,-0.0225 -0.07325,-0.0563 -0.02254,-0.0394 -0.02254,-0.0789 v -6.72727 q 0,-0.22537 0.123953,-0.32115 0.123953,-0.0958 0.270443,-0.0958 h 0.462007 q 0.163392,0 0.270443,0.0282 0.112684,0.0282 0.197198,0.0958 0.09015,0.062 0.169027,0.18029 0.08451,0.11269 0.180295,0.28735 l 1.769148,3.20024 q 0.163392,0.29298 0.315517,0.57469 0.152124,0.27608 0.292979,0.54652 0.140856,0.27044 0.276078,0.53525 0.140855,0.25918 0.276077,0.52399 h 0.0056 q -0.01127,-0.44511 -0.0169,-0.92402 0,-0.48454 0,-0.92965 v -3.95522 q 0,-0.0394 0.02254,-0.0733 0.02254,-0.0338 0.07325,-0.0563 0.05634,-0.0282 0.140856,-0.0394 0.09015,-0.0113 0.231003,-0.0113 0.123953,0 0.214101,0.0113 0.09015,0.0113 0.140856,0.0394 0.05071,0.0225 0.07325,0.0563 0.02254,0.0338 0.02254,0.0733 z m 6.130041,-0.006 q 0,0.10705 -0.01127,0.18593 -0.01127,0.0732 -0.03944,0.12395 -0.02254,0.0507 -0.06198,0.0733 -0.0338,0.0225 -0.08451,0.0225 h -4.304551 q -0.14649,0 -0.236638,-0.0901 -0.09015,-0.0901 -0.09015,-0.28735 v -0.20846 q 0,-0.0732 0.0056,-0.13523 0.01127,-0.062 0.03944,-0.12958 0.02817,-0.0733 0.07888,-0.15776 0.05071,-0.0901 0.123953,-0.20847 l 3.363634,-5.26237 h -3.324195 q -0.05634,0 -0.09578,-0.0225 -0.03944,-0.0225 -0.06761,-0.0676 -0.02254,-0.0507 -0.03381,-0.12395 -0.01127,-0.0789 -0.01127,-0.18029 0,-0.11269 0.01127,-0.19157 0.01127,-0.0789 0.03381,-0.12958 0.02817,-0.0507 0.06761,-0.0733 0.03944,-0.0225 0.09578,-0.0225 h 4.056645 q 0.152124,0 0.236638,0.0901 0.09015,0.0845 0.09015,0.26481 v 0.21973 q 0,0.0901 -0.01127,0.1634 -0.01127,0.0676 -0.03944,0.14085 -0.02817,0.0733 -0.07888,0.15776 -0.04507,0.0845 -0.123953,0.1972 l -3.346732,5.23983 h 3.560833 q 0.09578,0 0.14649,0.0958 0.05071,0.0958 0.05071,0.31552 z m 6.608951,0.062 q 0.04507,0.12395 0.04507,0.20283 0.0056,0.0732 -0.03944,0.11268 -0.04507,0.0394 -0.152124,0.0507 -0.101416,0.0113 -0.276078,0.0113 -0.174661,0 -0.281711,-0.0113 -0.101416,-0.006 -0.157758,-0.0225 -0.05071,-0.0225 -0.07888,-0.0563 -0.02254,-0.0338 -0.04507,-0.0845 l -0.6254,-1.77478 h -3.031215 l -0.597228,1.75224 q -0.0169,0.0507 -0.04507,0.0902 -0.02817,0.0338 -0.08451,0.062 -0.05071,0.0225 -0.152124,0.0338 -0.09578,0.0113 -0.253541,0.0113 -0.163392,0 -0.270443,-0.0169 -0.101416,-0.0113 -0.14649,-0.0507 -0.03944,-0.0394 -0.03944,-0.11268 0.0056,-0.0789 0.05071,-0.20284 l 2.445255,-6.77234 q 0.02254,-0.062 0.05634,-0.10142 0.03944,-0.0394 0.107051,-0.062 0.07325,-0.0225 0.180295,-0.0282 0.112685,-0.0113 0.281711,-0.0113 0.180296,0 0.298615,0.0113 0.118318,0.006 0.191563,0.0282 0.07325,0.0225 0.112685,0.0676 0.03944,0.0394 0.06198,0.10141 z m -3.138266,-5.97792 h -0.0056 l -1.256433,3.63408 h 2.535403 z m 9.138718,5.29054 q 0,0.0902 -0.0056,0.15776 -0.0056,0.0676 -0.02254,0.11832 -0.01127,0.0507 -0.03381,0.0901 -0.02254,0.0394 -0.07888,0.0958 -0.05634,0.0563 -0.236638,0.17466 -0.180295,0.11268 -0.450738,0.22537 -0.264809,0.10705 -0.614131,0.18029 -0.343688,0.0789 -0.754987,0.0789 -0.709913,0 -1.284604,-0.23663 -0.569057,-0.23664 -0.974722,-0.69865 -0.40003,-0.46201 -0.619765,-1.13811 -0.2141,-0.68174 -0.2141,-1.56632 0,-0.90711 0.231003,-1.61702 0.236638,-0.70992 0.659205,-1.20009 0.422567,-0.49582 1.008527,-0.75499 0.591594,-0.25917 1.307141,-0.25917 0.315517,0 0.614131,0.062 0.298614,0.0563 0.552154,0.14649 0.25354,0.0901 0.450738,0.20847 0.197198,0.11832 0.270443,0.1972 0.07888,0.0732 0.101416,0.11268 0.02254,0.0394 0.03381,0.0958 0.0169,0.0507 0.02254,0.12396 0.01127,0.0732 0.01127,0.17466 0,0.11268 -0.01127,0.19156 -0.01127,0.0789 -0.03381,0.13522 -0.02254,0.0507 -0.05634,0.0789 -0.02817,0.0225 -0.07325,0.0225 -0.07888,0 -0.219735,-0.10705 -0.140856,-0.11269 -0.366225,-0.24227 -0.219735,-0.13523 -0.540886,-0.24228 -0.315516,-0.11268 -0.76062,-0.11268 -0.484544,0 -0.884574,0.1972 -0.394396,0.19156 -0.676108,0.56906 -0.281711,0.37749 -0.43947,0.92401 -0.152124,0.54088 -0.152124,1.23953 0,0.69301 0.14649,1.22826 0.152124,0.52962 0.428201,0.89021 0.281712,0.35496 0.687376,0.54088 0.405665,0.1803 0.91838,0.1803 0.433835,0 0.754986,-0.10705 0.326786,-0.10705 0.552155,-0.23664 0.231003,-0.13522 0.377493,-0.24227 0.14649,-0.10705 0.231003,-0.10705 0.03944,0 0.06761,0.0169 0.02817,0.0169 0.04507,0.0676 0.0169,0.0451 0.02254,0.12959 0.01127,0.0845 0.01127,0.2141 z"
         id="text34"
         transform="scale(1.3298595,0.75195912)"
         aria-label="ANZAC" />
    </g>
  </g>
</svg>
