<?xml version="1.0" encoding="UTF-8" standalone="no"?>
<!-- Created with Inkscape (http://www.inkscape.org/) -->

<svg
   width="22.709999mm"
   height="6.5568728mm"
   viewBox="0 0 22.709999 6.5568728"
   version="1.1"
   id="svg71253"
   sodipodi:docname="inkporter-svg-ggcrfhff.svg"
   xmlns:inkscape="http://www.inkscape.org/namespaces/inkscape"
   xmlns:sodipodi="http://sodipodi.sourceforge.net/DTD/sodipodi-0.dtd"
   xmlns="http://www.w3.org/2000/svg"
   xmlns:svg="http://www.w3.org/2000/svg">
  <sodipodi:namedview
     id="namedview71255"
     pagecolor="#ffffff"
     bordercolor="#666666"
     borderopacity="1.0"
     inkscape:pageshadow="2"
     inkscape:pageopacity="0.0"
     inkscape:pagecheckerboard="0"
     inkscape:document-units="mm"
     showgrid="false"
     inkscape:zoom="0.64052329"
     inkscape:cx="397.33138"
     inkscape:cy="561.25984"
     inkscape:window-width="2400"
     inkscape:window-height="1271"
     inkscape:window-x="-9"
     inkscape:window-y="-9"
     inkscape:window-maximized="1"
     inkscape:current-layer="layer1" />
  <defs
     id="defs71250" />
  <g
     inkscape:label="Layer 1"
     inkscape:groupmode="layer"
     id="layer1"
     transform="translate(-12.2959,49.042023)">
    <g
       id="B-25pdr"
       transform="translate(-662.13255,-645.18294)">
      <path
         style="fill:#000000;fill-opacity:1;fill-rule:nonzero;stroke:none;stroke-width:0.352778"
         d="m 697.00003,601.71743 -0.0179,-0.11162 0.0262,-0.0455 -0.0482,-0.20119 c 0,0 -0.13366,-0.01 -0.20257,0.007 -0.0703,0.0165 -0.15296,0.10886 -0.15296,0.10886 l -0.17777,0.0427 -0.0703,-0.0606 -0.24943,0.003 -0.0648,-0.0799 0.0413,-0.48369 0.0455,-0.0841 0.0331,-0.11713 0.15021,-0.04 0.0978,-0.0909 -0.0331,-0.19017 -0.0717,-0.23564 -0.1378,-0.2949 -0.13091,-0.0785 -0.0455,-0.12402 v -0.0717 l -0.0978,-0.18328 0.1571,-0.15021 0.0717,-0.15709 -0.34038,-0.42582 v -0.0978 l -0.37896,-0.26183 -0.16398,0.0841 -0.19018,0.17776 h -0.0524 l -0.1571,-0.0923 -0.26596,-0.0138 v -0.0262 l -0.008,-0.008 0.0221,-0.073 0.0703,-0.0372 -0.0179,-0.0648 -0.0276,-0.0661 -0.0179,-0.0689 -0.0358,-0.0978 -0.062,-0.0813 -0.0841,-0.0606 -0.11575,-0.0358 -0.0896,-0.007 -0.12127,0.0124 -0.0813,0.0413 -0.062,0.0524 -0.0537,0.0606 c -0.001,10e-4 -0.0344,0.0565 -0.0427,0.0689 -10e-4,0.004 0.005,-0.004 -0.0193,0.0482 -0.01,0.0179 -0.0152,0.0482 -0.0152,0.0482 l -0.0221,0.0758 -0.0193,0.0716 0.091,0.0234 0.005,0.003 0.003,0.004 0.01,0.01 c 0,0 0.011,0.004 0.007,0.004 -0.005,0 -0.0372,-0.004 -0.0221,-0.004 l 0.0152,0.0165 -0.0744,0.18053 0.0234,0.003 0.051,0.0303 0.0165,0.0482 0.0303,0.1254 0.033,0.0289 0.0289,0.003 0.0193,10e-4 0.01,0.0289 0.0937,0.004 0.0841,0.0551 -0.011,0.0703 0.003,0.12678 0.011,0.10473 0.0717,0.13092 0.0593,0.0758 0.0358,0.0579 0.0289,0.0565 0.0799,0.13229 -0.0785,0.0593 0.3073,0.52917 -0.83096,0.0193 -0.17363,0.17363 0.0262,0.38585 0.04,0.29628 0.16261,0.27698 0.17088,0.0785 0.0331,0.0565 0.0344,0.26183 -0.04,0.0317 -0.18603,0.1943 -0.21635,0.0193 c -0.007,-0.0386 -0.0152,-0.0772 -0.0207,-0.10198 -0.01,-0.0427 -0.10749,-0.18465 -0.10749,-0.18465 l -0.0179,-0.11162 0.0262,-0.0455 -0.0482,-0.20119 c 0,0 -0.13367,-0.01 -0.20257,0.007 -0.0689,0.0165 -0.15297,0.10886 -0.15297,0.10886 l -0.17638,0.0427 -0.0717,-0.0606 -0.24943,0.003 -0.0634,-0.0799 0.0413,-0.48369 0.0441,-0.0841 0.0331,-0.11713 0.1502,-0.04 0.0978,-0.091 -0.0331,-0.19017 -0.0717,-0.23564 -0.1378,-0.2949 -0.13092,-0.0786 -0.0455,-0.12402 v -0.0717 l -0.0978,-0.18328 0.15709,-0.15021 0.0717,-0.15709 -0.34037,-0.42581 v -0.0978 l -0.37896,-0.26183 -0.16399,0.0841 -0.19017,0.17776 h -0.0524 l -0.1571,-0.0923 -0.26596,-0.0138 v -0.0262 l -0.008,-0.008 0.0221,-0.073 0.0703,-0.0372 -0.0179,-0.0648 -0.0276,-0.0661 -0.0193,-0.0689 -0.0345,-0.0978 -0.0606,-0.0813 -0.0841,-0.0606 -0.11575,-0.0358 -0.0896,-0.007 -0.12264,0.0124 -0.0813,0.0413 -0.062,0.0524 -0.0537,0.0606 c -10e-4,10e-4 -0.0344,0.0565 -0.0427,0.0689 -10e-4,0.004 0.007,-0.004 -0.0193,0.0482 -0.011,0.0179 -0.0152,0.0482 -0.0152,0.0482 l -0.022,0.0758 -0.0193,0.0716 0.091,0.0234 0.005,0.003 0.003,0.004 0.01,0.01 c 0,0 0.011,0.004 0.007,0.004 -0.004,0 -0.0358,-0.004 -0.022,-0.004 l 0.0165,0.0165 -0.0758,0.18053 0.0234,0.003 0.0524,0.0303 0.0165,0.0482 0.0289,0.1254 0.0331,0.0289 0.0289,0.003 0.0193,0.001 0.01,0.0289 0.0951,0.004 0.0827,0.0551 -0.011,0.0703 0.003,0.12678 0.011,0.10473 0.0717,0.13092 0.0593,0.0758 0.0358,0.0579 0.0289,0.0565 0.0799,0.13229 -0.0785,0.0593 0.3073,0.52917 -0.83096,0.0193 -0.17363,0.17363 0.0262,0.38585 0.0413,0.29628 0.16261,0.27698 0.1695,0.0785 0.0331,0.0565 0.0344,0.26183 -0.04,0.0317 -0.18603,0.1943 -0.23703,0.022 -0.0427,0.0482 c 0.003,-0.0193 0.004,-0.0386 0.004,-0.0551 10e-4,-0.0551 -0.0193,-0.14056 -0.0289,-0.18327 -0.01,-0.0427 -0.10886,-0.18466 -0.10886,-0.18466 l -0.0179,-0.11163 0.0276,-0.0455 -0.0482,-0.20119 c 0,0 -0.13367,-0.01 -0.20396,0.007 -0.0689,0.0166 -0.15158,0.10887 -0.15158,0.10887 l -0.17776,0.0427 -0.0703,-0.0606 -0.24942,0.003 -0.0648,-0.0799 0.0413,-0.48369 0.0441,-0.0841 0.0331,-0.11713 0.15159,-0.04 0.0978,-0.0909 -0.0331,-0.19018 -0.0716,-0.23564 -0.13781,-0.2949 -0.13091,-0.0786 -0.0455,-0.12402 v -0.0717 l -0.0992,-0.18328 0.15848,-0.1502 0.0717,-0.15848 -0.34038,-0.42443 v -0.0978 l -0.38034,-0.26182 -0.1626,0.0841 -0.19017,0.17776 h -0.0524 l -0.15709,-0.0923 -0.26734,-0.0138 v -0.0262 l -0.007,-0.008 0.0207,-0.073 0.0689,-0.0207 -0.0207,-0.0854 -0.0221,-0.062 -0.0193,-0.0689 -0.0345,-0.0978 -0.062,-0.0799 -0.0841,-0.062 -0.11576,-0.0358 -0.0896,-0.007 -0.12265,0.0124 -0.0799,0.0413 -0.0634,0.0524 -0.0524,0.0593 c -0.003,0.003 -0.0358,0.0579 -0.0427,0.0716 -10e-4,0.003 0.006,-0.005 -0.0207,0.0455 -0.01,0.0193 -0.0152,0.0496 -0.0152,0.0496 l -0.004,0.0427 -0.01,0.0317 -0.0345,0.0262 -0.11437,0.0331 0.21359,0.0372 0.006,0.003 10e-4,0.004 10e-4,10e-4 -0.0358,10e-4 -0.26183,0.0138 v 0.20946 h 0.0593 l 0.0716,0.13092 -0.21497,0.34588 -0.15158,0.38034 v 0.22187 l 0.11162,0.0923 h 0.26182 l 0.23565,-0.0661 0.21635,-0.0717 0.16261,-0.0262 0.12402,0.0165 0.0248,0.04 -0.0785,0.0579 0.3073,0.53054 -0.83095,0.0193 -0.17363,0.17363 0.0248,0.38585 0.0413,0.29628 0.16261,0.27699 0.17087,0.0785 0.0317,0.0565 0.0358,0.26182 -0.04,0.0331 -0.0868,0.0882 c -0.0317,-0.0565 -0.0827,-0.12953 -0.0827,-0.12953 l -0.0179,-0.113 0.0276,-0.0441 -0.0482,-0.20119 c 0,0 -0.13367,-0.01 -0.20395,0.007 -0.0689,0.0165 -0.15296,0.10749 -0.15296,0.10749 l -0.17639,0.0427 -0.0717,-0.0593 -0.24804,10e-4 -0.0648,-0.0785 0.0413,-0.48507 0.0441,-0.0827 0.0331,-0.11851 0.15159,-0.0386 0.0978,-0.0923 -0.0331,-0.18879 -0.0717,-0.23564 -0.1378,-0.2949 -0.13091,-0.0786 -0.0455,-0.12402 v -0.0717 l -0.0992,-0.18466 0.15848,-0.1502 0.0717,-0.1571 -0.34175,-0.42581 v -0.0978 l -0.37896,-0.26183 -0.16261,0.0854 -0.19017,0.17639 h -0.0537 l -0.15709,-0.091 -0.27424,-0.0496 0.0221,-0.073 0.19293,-0.0551 -0.16537,-0.0427 -0.001,-0.0689 -0.0193,-0.0703 -0.0358,-0.0965 -0.0606,-0.0813 -0.0854,-0.0606 -0.11576,-0.0358 -0.0882,-0.008 -0.12265,0.0138 -0.0799,0.0413 -0.0634,0.051 -0.0538,0.0606 -0.0413,0.0703 c -0.003,0.003 0.006,-0.004 -0.0207,0.0469 -0.01,0.0193 -0.0152,0.0496 -0.0152,0.0496 l -0.004,0.0427 -0.0441,0.0565 -0.11438,0.0331 0.23151,0.0717 -0.0524,0.18328 0.0524,0.0289 0.0166,0.0496 0.062,0.15434 0.0579,0.0331 0.0951,0.003 0.0868,0.0579 -0.0138,0.0675 0.003,0.12816 0.01,0.10473 0.073,0.13091 0.0579,0.0744 0.0358,0.0593 0.0303,0.0565 0.0786,0.13091 -0.15572,-0.0358 -0.15158,-0.0303 -0.12127,-0.0262 -0.15572,-0.0289 -0.12815,-0.0234 -0.15434,-0.0193 -0.18328,-0.0165 -0.16675,-0.0124 -0.15709,0.003 -0.0785,0.0289 0.0386,0.0661 0.0427,0.0358 0.0827,0.0593 0.0882,0.0455 0.10749,0.04 0.12127,0.0386 0.13366,0.04 0.1447,0.0579 0.0427,0.0882 0.0524,0.0689 0.0689,0.0234 0.0689,0.0124 0.24529,-0.005 0.0165,0.0648 0.35554,-0.008 0.073,0.12402 -0.83234,0.0179 -0.17226,0.17363 0.0248,0.38723 0.0413,0.2949 0.16261,0.27837 0.17087,0.0785 0.0317,0.0565 -0.004,0.29353 -0.18741,0.19292 -0.23565,0.0234 -0.0468,0.051 0.0441,0.10473 0.39963,0.0207 0.0854,-0.0634 0.0978,-0.006 0.007,0.0455 0.26183,0.0124 -0.007,-0.0537 -0.0179,-0.44511 -0.0496,-0.31143 0.0193,-0.18328 -0.0606,-0.28526 0.3638,0.13643 0.42444,0.0469 0.15159,0.40239 0.13229,0.59807 0.10886,0.15296 0.20395,-0.0166 0.39136,-0.1378 0.1695,-0.0661 0.0593,-0.14607 0.12127,-0.0165 0.20257,-0.0331 0.0427,0.10197 c 0,0 -0.003,0.0234 -0.006,0.0524 l -0.0551,0.005 -0.0468,0.051 0.0441,0.10611 0.0854,0.004 c 0.0262,0.0372 0.0648,0.0896 0.0965,0.10473 0.0441,0.0193 0.19016,0.003 0.19016,0.003 0,0 0.01,-0.0455 0.0165,-0.0923 h 0.011 l 0.0854,-0.0634 0.0992,-0.005 0.005,0.0468 0.26183,0.011 -0.007,-0.0537 -0.0179,-0.44511 -0.0496,-0.31144 0.0193,-0.18328 -0.0606,-0.28525 0.36518,0.13643 0.42443,0.0468 0.15021,0.40239 0.13367,0.59806 0.10749,0.15297 0.20394,-0.0165 0.39137,-0.13781 0.1695,-0.0661 0.0606,-0.14469 0.11989,-0.0179 0.20257,-0.0331 0.0427,0.10197 c 0,0 -0.0193,0.15986 -0.003,0.18328 0.0152,0.0248 0.0785,0.11989 0.12127,0.14056 0.0441,0.0193 0.19017,0.003 0.19017,0.003 0,0 0.01,-0.0469 0.0165,-0.0951 l 0.0413,0.10198 0.39963,0.0193 0.0868,-0.0634 0.0978,-0.005 0.006,0.0468 0.26182,0.011 -0.006,-0.0524 -0.0193,-0.44648 -0.0496,-0.31144 0.0207,-0.18328 -0.062,-0.28525 0.36518,0.1378 0.42444,0.0455 0.15021,0.40238 0.13367,0.59807 0.10886,0.15296 0.20257,-0.0165 0.39136,-0.13781 0.17088,-0.0661 0.0593,-0.1447 0.12127,-0.0179 0.20257,-0.0331 0.0427,0.10197 c 0,0 -0.0207,0.15985 -0.004,0.18328 0.0165,0.0248 0.0785,0.11989 0.12264,0.14056 0.0427,0.0193 0.19017,0.003 0.19017,0.003 0,0 0.007,-0.0358 0.0138,-0.0772 l 0.37482,0.0179 0.0868,-0.0634 0.0978,-0.005 0.005,0.0468 0.26183,0.011 -0.005,-0.0524 -0.0193,-0.44648 -0.0482,-0.31144 0.0193,-0.18328 -0.062,-0.28525 0.36517,0.1378 0.42444,0.0455 0.15021,0.40238 0.13367,0.59807 0.10748,0.15296 0.20395,-0.0165 0.39137,-0.13781 0.16949,-0.0661 0.0606,-0.1447 0.11989,-0.0179 0.20257,-0.0331 0.0427,0.10197 c 0,0 -0.0193,0.15985 -0.003,0.18328 0.0165,0.0248 0.0786,0.11989 0.12126,0.14056 0.0441,0.0193 0.19017,0.003 0.19017,0.003 0,0 0.0221,-0.10198 0.0234,-0.1571 0,-0.0537 -0.0207,-0.14055 -0.0303,-0.18328 -0.01,-0.0427 -0.10749,-0.18465 -0.10749,-0.18465 m -10.10515,-2.68304 0.17915,-0.34864 0.004,0.003 0.0289,0.003 0.0193,10e-4 0.008,0.0289 0.0951,0.004 0.0537,0.0344 -0.0165,0.007 -0.051,0.12402 -0.15158,0.17639 -0.15021,0.0661 z m 0.79651,-0.61874 h -10e-4 l -0.005,-0.005 z m 3.47541,0.0854 h -10e-4 l -0.007,-0.006 z m 3.40651,0 h -0.003 l -0.005,-0.006 z m 0,0"
         id="path33756-8" />
      <path
         style="fill:#000000;fill-opacity:1;fill-rule:nonzero;stroke:none;stroke-width:0.352778"
         d="m 690.49156,600.80654 -0.0551,-0.11024 3.51675,-0.49609 c 0,0 -0.0193,-0.12816 -0.0275,-0.15572 -0.01,-0.0276 -3.4699,0.45889 -3.4699,0.45889 l -0.10198,-0.0634 -0.34864,0.12815 -0.17363,0.008 0.008,0.0841 -0.20119,0.008 0.008,0.2577 -2.64307,-0.94672 -5.04087,-0.4079 c 0.0413,-0.10473 0.0661,-0.22461 0.0661,-0.22461 l 0.11851,0.16536 0.22049,-0.75379 -0.16537,-0.0179 v -0.32935 l -0.11437,-0.10198 h 0.17914 v -0.073 h 0.1006 v 0.34864 h 0.35829 v 0.0827 h 0.15572 v 0.35829 h 0.42168 v -0.49605 h 0.12953 v -0.2384 h -0.12953 v -0.78962 h -0.93569 v 0.0455 h -0.1006 v -0.0358 h -0.5209 c 0,-0.0978 0.004,-0.24529 0.006,-0.31281 0.0868,-0.003 0.15709,-0.073 0.15709,-0.16123 0,-0.0551 -0.0276,-0.10335 -0.0703,-0.13229 h 0.1254 v -0.073 h -0.1378 v -0.21221 h -0.18328 v 0.21221 h -0.11024 v 0.073 h 0.1254 c -0.0427,0.0289 -0.0703,0.0772 -0.0703,0.13229 0,0.003 0,0.004 0,0.005 l -0.16123,0.11714 -0.0965,-0.0441 c 0,0 -0.14608,-0.0275 -0.18329,-0.0275 -0.0372,0 -0.0455,0.0551 -0.0455,0.0827 0,0.0276 -0.24805,-0.0276 -0.24805,-0.0276 0,0 -0.0551,-0.0179 -0.10059,-0.0551 -0.0469,-0.0372 -0.13781,0.18328 -0.13781,0.18328 l -0.34864,-0.0179 -0.20257,-0.0909 c 0,0 0.35829,-0.97428 0.35829,-1.00184 0,-0.0275 -0.0648,-0.0179 -0.0648,-0.0179 l -0.17501,0.42857 c -0.0648,-0.005 -0.19844,-0.0152 -0.21911,-0.0152 -0.0262,0 0.10473,0.16399 0.14056,0.21085 l -0.0496,0.11988 -0.11024,-0.0372 c 0,0 -0.18328,0.33072 -0.18328,0.35829 0,0.0276 -0.29352,0.14607 -0.29352,0.14607 l -0.0648,0.23013 0.01,0.01 h -0.79927 v -0.0372 h -0.12816 v 0.0372 h -0.1378 v 0.0317 l -3.91363,0.0455 -0.005,0.49196 3.91914,0.091 v 0.0276 h 0.1378 v 0.0165 h -1.95544 v -0.0551 H 676.346 v 0.062 c -0.0152,-10e-4 -0.0303,-0.003 -0.0455,-0.003 -0.16537,0 -0.30455,0.0675 -0.35553,0.16123 h -0.32384 v 0.15572 h 0.32384 c 0.051,0.0937 0.19016,0.16123 0.35553,0.16123 0.0152,0 0.0303,-10e-4 0.0455,-0.003 v 0.062 h 0.18327 v -0.0551 h 2.78777 l -0.55672,1.35185 c 0,0 0.29765,0.11713 0.46577,0.20119 -0.0234,0.10749 -0.0372,0.21911 -0.0372,0.33349 0,0.6022 0.34589,1.1231 0.84887,1.37666 h -2.02709 v 0.15434 h -0.59532 v 0.40652 c 0.0689,-0.12954 0.15985,-0.20808 0.25907,-0.20808 0.0882,0 0.1695,0.0606 0.23427,0.16398 0.14056,-0.10335 0.31557,-0.16398 0.50436,-0.16398 0.26045,0 0.49196,0.11575 0.64768,0.29765 0.20257,-0.1819 0.5085,-0.29765 0.85025,-0.29765 0.30868,0 0.58704,0.0937 0.78686,0.24666 0.20119,-0.15296 0.47956,-0.24666 0.78824,-0.24666 0.30868,0 0.58704,0.0951 0.78824,0.24666 0.15296,-0.15158 0.36517,-0.24666 0.59944,-0.24666 0.22876,0 0.43546,0.0896 0.58705,0.23426 0.0703,-0.14469 0.16674,-0.23426 0.27285,-0.23426 0.0992,0 0.19017,0.0785 0.25907,0.20808 v -0.40652 h -0.58429 v -0.15434 h -1.98299 c 0.18052,-0.0909 0.34175,-0.21635 0.47266,-0.36794 l 0.0937,0.0166 3.23977,-0.98254 c 0,0 0.0744,0.01 0.11988,0.0468 0.0455,0.0358 0.22049,-0.0193 0.22049,-0.0193 l 0.008,-0.2012 h 0.7717 v 0.22049 h 0.43132 v -0.14745 l 2.50666,0.65181 0.70693,0.54157 -0.14745,0.11989 0.0923,0.18328 c 0,0 0.24666,0.12816 0.42167,-0.073 0.17502,-0.20257 -0.0648,-0.45062 -0.0648,-0.45062 l -0.17364,0.0923 -0.0276,-0.26596 c 0,0 0.22876,-0.01 0.29352,-0.0923 0.0648,-0.0827 0.0923,-0.29352 0.0923,-0.29352 l 0.45889,0.0648 0.0551,-0.11162 -0.44097,-0.091 z m -11.87869,-2.52456 h 0.90124 l -0.007,0.0165 h -0.89435 z m 6.32519,2.33164 -2.89112,0.86403 c 0.14332,-0.23427 0.226,-0.50987 0.226,-0.80615 0,-0.0882 -0.007,-0.17639 -0.022,-0.26045 0.7469,0.0207 2.64997,0.0744 2.68717,0.0744 0.0455,0 0,0.12816 0,0.12816"
         id="path33758-7" />
    </g>
  </g>
</svg>
