<?xml version="1.0" encoding="UTF-8" standalone="no"?>
<!-- Created with Inkscape (http://www.inkscape.org/) -->

<svg
   width="19.784245mm"
   height="5.5578151mm"
   viewBox="0 0 19.784245 5.5578151"
   version="1.1"
   id="svg1"
   xml:space="preserve"
   sodipodi:docname="inkporter-svg-w7hhp8wm.svg"
   xmlns:inkscape="http://www.inkscape.org/namespaces/inkscape"
   xmlns:sodipodi="http://sodipodi.sourceforge.net/DTD/sodipodi-0.dtd"
   xmlns="http://www.w3.org/2000/svg"
   xmlns:svg="http://www.w3.org/2000/svg"><sodipodi:namedview
     id="namedview1"
     pagecolor="#ffffff"
     bordercolor="#000000"
     borderopacity="0.25"
     inkscape:showpageshadow="2"
     inkscape:pageopacity="0.0"
     inkscape:pagecheckerboard="0"
     inkscape:deskcolor="#d1d1d1"
     inkscape:document-units="mm"
     inkscape:zoom="1.1506941"
     inkscape:cx="329.36643"
     inkscape:cy="583.12632"
     inkscape:window-width="2560"
     inkscape:window-height="1368"
     inkscape:window-x="0"
     inkscape:window-y="0"
     inkscape:window-maximized="1"
     inkscape:current-layer="layer1" /><defs
     id="defs1" /><g
     inkscape:label="Layer 1"
     inkscape:groupmode="layer"
     id="layer1"
     transform="translate(1.058324,-64.55832)"><g
       id="B-2pdr"
       transform="translate(-570.17192,-624.88549)"><path
         style="fill:#000000;stroke-width:0.0372764"
         d="m 575.31982,689.44585 c -0.0936,0.0721 -0.0319,0.24593 -0.0495,0.35988 -0.002,0.23896 0.0121,0.4792 -0.005,0.71738 -0.0891,0.0945 -0.24373,0.0379 -0.36141,0.0469 -0.12859,-0.0125 -0.26541,-0.0439 -0.39186,-0.005 -0.13376,0.0277 -0.0178,-0.18056 0.009,-0.24651 0.0402,-0.1302 0.11536,-0.2516 0.13862,-0.38557 -0.11364,-0.0379 -0.11069,0.15079 -0.2032,0.18063 -0.0885,0.096 -0.17219,0.1969 -0.21909,0.32089 -0.0891,0.17337 -0.11091,0.37675 -0.21856,0.54028 -0.0728,0.0282 -0.0836,0.0723 -0.0639,0.12843 -0.0602,0.0827 -0.10928,9.1e-4 -0.0373,-0.0499 -0.0901,0.011 -0.13038,0.18149 -0.0303,0.21988 0.0378,0.13483 -0.0945,0.20442 -0.0966,0.32089 -0.0525,0.0496 0.005,0.19534 -0.0986,0.1834 -0.21423,0.003 -0.42928,-9e-4 -0.64178,0.029 -0.18284,0.0215 -0.36669,0.0226 -0.55071,0.0268 -0.5943,0.0241 -1.18995,2.5e-4 -1.78413,0.0272 -0.45629,0.003 -0.91307,0.009 -1.36906,-0.009 -0.10528,-0.018 -0.26622,-0.023 -0.22674,0.13067 -0.0276,0.12554 0.0558,0.24538 0.18766,0.18601 0.14611,-0.0127 0.29152,-0.0356 0.43894,-0.0288 0.3946,0.004 0.78998,-0.005 1.184,0.0169 0.497,0.0257 0.99574,-2.2e-4 1.49299,0.0231 0.24469,0.0179 0.49059,0.0178 0.73541,0.0314 0.11723,0.0448 0.0198,0.14184 -0.0699,0.10765 -0.34936,0.0135 -0.69959,0.006 -1.04803,-0.0194 -0.11631,0.007 -0.19779,0.11497 -0.32153,0.10668 -0.0681,0.15631 0.1795,0.0905 0.22136,0.20089 0.12762,0.0729 0.27366,-0.003 0.41114,0.0146 0.24397,5.9e-4 0.48885,-0.0113 0.73232,0.005 0.0853,0.0781 0.1346,0.1979 0.20873,0.28982 0.0654,0.072 -0.0774,0.22122 0.0128,0.23964 0.05,-0.10422 0.0944,-0.25028 0.22501,-0.27577 0.0875,-0.003 0.2059,0.0559 0.17511,0.13752 0.0816,0.0918 0.17325,0.18071 0.28104,0.22058 0.0733,0.11613 0.24003,0.0481 0.35624,0.0664 0.10349,0.0176 0.26606,-0.0357 0.33894,0.0268 -0.12888,0.046 -0.28378,0.0293 -0.40593,0.10338 -0.18298,0.0418 -0.37162,0.0331 -0.55709,0.0561 -0.12981,0.006 -0.28582,0.0152 -0.39672,0.0343 -0.0358,-0.005 -0.13193,-0.0342 -0.20639,-0.0244 -0.063,-0.017 -0.0985,0.017 -0.14027,0.0568 -0.0989,0.0292 -0.24397,-0.0395 -0.29743,0.0791 -0.0864,0.003 -0.13222,-0.15928 -0.24899,-0.099 -0.11602,-0.006 -0.31461,-0.10876 -0.35517,0.0633 0.005,0.0826 0.0483,0.1753 0.005,0.25809 0.0902,0.0404 -0.10595,0.0578 -0.003,0.0888 -0.0324,0.0828 -0.10344,0.0474 -0.0778,-0.0145 -0.081,-0.063 -0.29152,-0.086 -0.31201,0.0495 -0.0449,0.10041 -0.15873,-0.009 -0.22789,0.0895 -0.11595,0.021 -0.1796,0.1235 -0.28588,0.19112 0.0488,0.0847 0.20748,0.0326 0.29957,0.0489 0.075,2.7e-4 0.15011,5.6e-4 0.22517,8.4e-4 0.041,0.0931 0.13257,-0.067 0.20025,0.0277 -0.0157,0.0485 -0.011,0.1653 0.0247,0.056 0.0388,-0.15101 0.24214,-0.0613 0.35662,-0.0864 0.0818,2.2e-4 0.31858,0.0235 0.17597,-0.10598 -0.0589,-0.0401 -0.0659,-0.11142 0.0367,-0.0797 l 0.0453,-0.0136 c -0.0118,-0.0818 0.18112,-0.10078 0.25872,-0.16818 0.095,-0.0439 0.16564,-0.0838 0.26633,-0.0335 0.0906,-0.004 0.1868,0.004 0.27492,-0.009 0.0682,-0.0737 0.16494,-0.0866 0.26125,-0.0807 0.20258,-0.0175 0.40636,-0.0309 0.60765,-0.058 0.14361,0.0393 0.29436,0.0226 0.44172,0.0281 0.0422,0.098 0.0911,0.17301 0.18942,0.21453 0.0269,0.0528 0.0913,0.0234 0.13876,0.0312 0.1092,-0.008 0.20846,0.002 0.29108,0.0684 0.2987,0.0135 0.5981,0.0115 0.89684,0.0258 0.5069,0.007 1.01415,0.01 1.52032,0.039 0.0558,-0.009 0.12483,0.0454 0.16943,-0.003 0.0743,-0.0378 -0.026,-0.18976 0.10068,-0.11819 0.11414,0.0269 0.23638,0.0182 0.34884,0.0577 0.24915,0.009 0.49472,0.0642 0.74346,0.0794 0.2083,0.0366 0.42064,0.0366 0.62689,0.0754 0.12652,0.0193 0.23586,0.0859 0.36938,0.057 0.11526,-0.0259 0.19625,0.0287 0.23311,0.12809 0.0118,-0.0304 -0.056,-0.14734 0.0598,-0.12566 0.12977,-0.0451 0.0114,0.19981 0.0883,0.0887 0.0398,-0.1645 0.25394,-0.064 0.37523,-0.0893 0.10729,0.0218 0.0696,-0.1544 0.11175,-0.20774 -0.0904,-0.0278 0.0589,-0.13281 0.0246,-0.0125 0.0529,-0.0753 0.1363,0.0291 0.16641,-0.0739 0.13114,-0.009 0.27033,0.0349 0.40348,0.0559 0.13452,0.0428 0.1932,-0.16859 0.0413,-0.17051 -0.14344,-0.002 -0.28835,-0.0294 -0.42931,-0.013 -0.005,-0.0721 -0.0345,-0.19404 -0.14041,-0.16778 -0.0545,-0.003 -0.11126,-0.01 -0.12528,0.0563 -0.0603,0.0393 -0.13866,-0.0352 -0.20193,0.009 -0.082,-0.0452 -0.09,-0.0814 0.0152,-0.0779 0.15789,-0.013 0.31362,-0.0504 0.47226,-0.0631 0.2572,-0.0398 0.51773,-0.0479 0.77496,-0.088 0.14347,-0.019 0.28685,-0.0386 0.43043,-0.0556 0.11564,-0.0137 0.23782,-0.0269 0.35629,-0.0395 0.13003,-0.0253 0.26965,-0.0225 0.38976,-0.0832 0.14389,-0.004 0.039,-0.25877 -0.0795,-0.16594 -0.13421,-0.0415 -0.27952,0.0255 -0.4178,0.0281 -0.13414,0.014 -0.26782,0.033 -0.40094,0.0513 -0.34079,0.0308 -0.67736,0.097 -1.01847,0.12689 -0.31576,0.0487 -0.63424,0.0753 -0.94988,0.12518 -0.14056,0.0141 -0.28002,0.0461 -0.41968,0.0598 -0.0888,-0.0795 -0.20473,0.0526 -0.3198,0.0296 -0.0817,0.0618 -0.27629,-0.0294 -0.29655,0.0712 0.0471,0.0801 0.0469,0.22685 -0.0795,0.15771 -0.30185,-0.0355 -0.60428,-0.0679 -0.90597,-0.10362 -0.11875,-0.0432 -0.30203,0.0208 -0.37323,-0.10133 -0.11196,-0.0191 -0.20376,0.0524 -0.31452,0.0111 -0.11998,-0.024 -0.25598,9.1e-4 -0.36227,-0.0688 -0.0289,-0.0894 -0.24521,-0.0105 -0.21534,-0.002 0.0629,-0.0105 0.12234,0.0127 0.0268,0.0324 -0.0526,0.0194 -0.21532,0.0328 -0.10761,-0.0479 0.0397,-0.10016 -0.13131,-0.0635 -0.15964,1.5e-4 -0.23332,-0.0447 -0.47197,-0.0722 -0.70902,-0.0959 -0.13517,-0.006 -0.24082,-0.10243 -0.37981,-0.10035 -0.10067,-0.0361 -0.25975,-0.003 -0.32463,-0.0789 0.20399,-0.0217 0.41175,-0.006 0.61717,-0.01 0.12863,-0.0167 0.23248,0.0854 0.36154,0.0708 0.13963,0.005 0.28262,-0.0196 0.40841,0.0448 0.11743,0.0371 0.19742,-0.0217 0.15971,-0.14719 0.008,-0.14933 0.21726,-0.0634 0.31685,-0.0872 0.0994,0.0135 0.24206,-9.1e-4 0.17797,-0.13787 -0.0278,-0.29464 -0.0357,-0.59324 0.007,-0.88689 0.0345,-0.13402 -0.0856,-0.18503 -0.19585,-0.16351 -0.004,-0.0492 -0.13093,-0.10974 -0.0678,-0.0239 -0.073,0.0758 -0.0959,-0.1241 -0.10128,-0.18437 -0.0358,-0.11339 0.0494,-0.35056 -0.13923,-0.33098 -0.0473,-0.0137 -0.12138,0.006 -0.0797,0.0477 -0.12031,0.0144 -0.21464,0.0825 -0.34612,0.0616 -0.11333,0.008 -0.23352,0.0672 -0.31127,-0.05 -0.0848,-0.0935 -0.0546,-0.26492 -0.0622,-0.38813 0.0409,-0.17849 -0.21089,-0.094 -0.31018,-0.099 -0.0974,-0.0112 -0.31245,0.0985 -0.27116,-0.0835 -0.0415,-0.0951 -0.02,-0.1938 0.10431,-0.16844 0.14551,0.0324 0.0352,-0.11542 0.075,-0.19777 -0.0362,-0.0848 -0.23488,0.0592 -0.26014,-0.0747 0.0734,-0.0755 -0.0206,-0.14038 -0.0182,-0.21477 3e-4,-0.28118 0.0195,-0.56394 -0.005,-0.84379 9.1e-4,-0.007 -0.0284,-0.004 -0.0209,-0.005 z"
         id="path150-9" /><g
         id="g704"
         transform="translate(-107.12711,91.966643)"><path
           id="path680"
           style="fill:#000000;stroke-width:0.0239398"
           d="m 688.9796,597.74919 c -0.0878,0.002 -0.17858,0.0252 -0.26081,0.0718 -0.0198,0.0112 -0.0736,0.039 -0.11969,0.062 -0.0861,0.0428 -0.16142,0.10334 -0.12859,0.10334 0.0102,0 0.005,0.013 -0.0103,0.0287 -0.0714,0.0714 0.008,0.21069 0.11877,0.21069 0.0307,0 0.0453,0.0287 0.0576,0.11372 0.009,0.0626 0.0199,0.13238 0.024,0.15519 0.005,0.0284 -0.0204,0.0534 -0.0809,0.0793 -0.0485,0.0208 -0.11879,0.0534 -0.15607,0.0722 -0.0373,0.0189 -0.0809,0.0344 -0.0969,0.0344 -0.016,0 -0.0676,0.0404 -0.11475,0.0898 -0.0865,0.0907 -0.18745,0.35655 -0.18745,0.4938 0,0.0337 -0.0267,0.12172 -0.0592,0.1954 -0.0326,0.0737 -0.0627,0.1575 -0.0669,0.18624 -0.004,0.0287 -0.0206,0.0757 -0.0365,0.1045 -0.0389,0.0705 -0.0363,0.12992 0.008,0.19377 0.0205,0.0293 0.0306,0.0532 0.0226,0.0532 -0.008,0 -0.006,0.0135 0.004,0.0299 0.0255,0.0409 0.0268,0.16159 0.002,0.16159 -0.0112,0 -0.0143,0.01 -0.007,0.0217 0.0301,0.0487 -0.0341,0.13539 -0.14425,0.1948 -0.091,0.0491 -0.11814,0.0773 -0.12194,0.12676 -0.004,0.0543 0.005,0.0638 0.0595,0.064 0.12389,6.8e-4 0.13654,0.0258 0.10352,0.20493 -0.0163,0.0886 -0.0452,0.19116 -0.0643,0.22794 -0.019,0.0368 -0.0368,0.12403 -0.0394,0.19386 -0.003,0.0722 -0.0284,0.17865 -0.0597,0.2467 -0.0693,0.15114 -0.0688,0.20936 0.003,0.36302 0.0469,0.1006 0.0538,0.14041 0.0373,0.21387 -0.0112,0.0496 -0.0115,0.10718 -6.7e-4,0.12778 0.0242,0.0466 -0.0295,0.26446 -0.0738,0.29925 -0.0589,0.0462 -0.16132,0.19735 -0.17754,0.26194 -0.0247,0.0987 0.0227,0.13461 0.17787,0.13452 0.14634,-9e-5 0.27536,-0.0586 0.29995,-0.13611 0.008,-0.0241 0.038,-0.0544 0.0674,-0.0676 0.073,-0.0324 0.10761,-0.18281 0.0676,-0.29354 -0.0236,-0.0652 -0.0237,-0.10388 -2.5e-4,-0.18745 0.0165,-0.0588 0.0439,-0.1053 0.0623,-0.1053 0.018,0 0.0328,-0.009 0.0328,-0.0199 0,-0.0109 0.0266,-0.0342 0.0592,-0.0516 0.0886,-0.0475 0.11138,-0.15514 0.10712,-0.50731 -0.004,-0.35603 0.008,-0.4033 0.14373,-0.58223 0.0502,-0.0658 0.10775,-0.15206 0.12789,-0.19156 0.0202,-0.0395 0.0694,-0.10304 0.10959,-0.14121 l 0.073,-0.0694 0.14584,0.14106 c 0.0802,0.0776 0.18007,0.19443 0.22195,0.2597 0.0714,0.11122 0.0767,0.13453 0.0837,0.37126 0.008,0.24153 0.0534,0.43212 0.10464,0.43212 0.0112,0 0.0203,0.0298 0.0203,0.0662 0,0.0364 0.0269,0.1059 0.0598,0.15435 0.0329,0.0484 0.0598,0.10671 0.0598,0.12951 0,0.0228 0.01,0.0746 0.0223,0.11503 0.0532,0.17568 0.0641,0.24501 0.048,0.30519 -0.0216,0.0804 0.0188,0.28131 0.0678,0.33688 0.0204,0.0231 0.0557,0.0419 0.0785,0.0419 0.0246,0 0.0478,0.0249 0.0569,0.0608 0.008,0.0335 0.0391,0.0705 0.0684,0.0823 h 6e-5 c 0.0709,0.0285 0.21572,0.0297 0.2877,0.002 0.11295,-0.043 0.10028,-0.15511 -0.0349,-0.30911 -0.0407,-0.0463 -0.0886,-0.11931 -0.10652,-0.16216 -0.0179,-0.0428 -0.0432,-0.0845 -0.0562,-0.0925 -0.0144,-0.009 -0.0184,-0.1008 -0.0104,-0.23505 0.008,-0.12124 0.0169,-0.32142 0.0215,-0.44491 0.005,-0.12347 0.0199,-0.23607 0.034,-0.25019 0.0533,-0.0533 0.0294,-0.22694 -0.0456,-0.33034 -0.0392,-0.0541 -0.078,-0.13748 -0.0863,-0.1853 -0.0125,-0.0725 -0.14659,-0.56003 -0.19335,-0.70314 -0.0176,-0.0537 0.0548,-0.0831 0.11372,-0.0464 0.0546,0.0341 0.19118,0.0109 0.23121,-0.0393 0.0465,-0.0583 0.0356,-0.16258 -0.0323,-0.31122 -0.0506,-0.11056 -0.0592,-0.15633 -0.0462,-0.24383 0.0364,-0.24536 -0.009,-0.54221 -0.0989,-0.64839 -0.0182,-0.0214 -0.0373,-0.12016 -0.044,-0.22742 -0.0113,-0.1803 -0.016,-0.19342 -0.0979,-0.26971 -0.0789,-0.0735 -0.0948,-0.0788 -0.19147,-0.0644 -0.058,0.009 -0.11471,0.0101 -0.12606,0.003 -0.0114,-0.007 -0.009,-0.0502 0.005,-0.0961 0.0196,-0.0626 0.0411,-0.0851 0.0864,-0.0904 0.0493,-0.005 0.0618,-0.0219 0.0681,-0.0879 0.004,-0.0444 -0.004,-0.0924 -0.018,-0.10656 -0.0141,-0.0141 -0.0258,-0.0561 -0.0258,-0.0934 0,-0.0426 -0.0156,-0.0737 -0.0419,-0.0837 -0.023,-0.009 -0.0898,-0.0461 -0.14831,-0.083 -0.0705,-0.0445 -0.15541,-0.0661 -0.24324,-0.0649 z m 0.50063,1.72218 c 0.003,-1.9e-4 0.005,0.008 0.007,0.0231 0.002,0.0198 0.002,0.0501 -6.8e-4,0.0676 -0.002,0.0174 0.008,0.0465 0.0231,0.0646 0.0321,0.0387 0.0716,0.29874 0.0454,0.29874 -0.01,0 -0.0346,0.006 -0.0549,0.0141 -0.0519,0.0199 -0.076,-0.0922 -0.0389,-0.18179 0.0162,-0.0392 0.0212,-0.0898 0.0111,-0.11324 -0.0305,-0.0705 -0.0332,-0.1097 -0.0104,-0.14874 0.01,-0.0162 0.0151,-0.0243 0.0186,-0.0244 z"
           sodipodi:nodetypes="scssssssssscccssscsccssssscssscsccsssscssccsscsssscssssccsssscssssssscssssscscsssssssssscsssssssssc" /><path
           id="path681"
           style="fill:#000000;stroke-width:0.0239398"
           d="m 690.98792,597.89668 c -0.0322,0.002 -0.0678,0.0148 -0.12134,0.0433 -0.0585,0.0311 -0.11267,0.0502 -0.12045,0.0424 -0.008,-0.008 -0.0141,1.8e-4 -0.0141,0.0177 0,0.0176 -0.006,0.0261 -0.013,0.0189 -0.008,-0.008 -0.0461,0.02 -0.0865,0.0604 -0.0523,0.0523 -0.0748,0.0989 -0.078,0.16155 -0.003,0.056 -0.0281,0.11614 -0.0694,0.16523 l -0.065,0.0773 0.0138,0.32692 c 0.0182,0.43086 0.0509,0.51041 0.23412,0.56816 0.0966,0.0305 0.15167,0.0351 0.22125,0.0187 0.0731,-0.0173 0.11023,-0.013 0.17624,0.0206 0.0459,0.0234 0.10764,0.0427 0.13699,0.0427 0.0672,0 0.0756,0.0143 0.10651,0.18188 0.0139,0.0752 0.0576,0.22939 0.0969,0.34255 0.0394,0.11316 0.074,0.21651 0.0772,0.22967 0.0181,0.0762 0.0975,0.18476 0.14944,0.20452 0.0926,0.0352 0.12079,0.0286 0.2091,-0.0489 0.045,-0.0395 0.0874,-0.0718 0.0942,-0.0718 0.0589,0 0.11013,0.44178 0.0641,0.55291 -0.013,0.0315 -0.0225,0.10046 -0.028,0.19946 l -0.002,-6.8e-4 c -0.0655,0.22962 -0.0682,0.25651 -0.042,0.40071 0.0156,0.085 0.0209,0.18754 0.0119,0.22785 -0.01,0.045 0.002,0.11187 0.0314,0.17319 0.0519,0.1089 0.0661,0.27652 0.0287,0.33685 -0.0401,0.0644 -0.25681,0.15559 -0.33105,0.13914 -0.0666,-0.0148 -0.20222,0.0476 -0.2134,0.0982 -0.0202,0.091 0.2557,0.20674 0.47244,0.19829 0.0756,-0.003 0.1674,0.006 0.204,0.0199 0.0366,0.0139 0.0979,0.0206 0.1363,0.015 0.01,-0.002 0.0177,-0.003 0.0248,-0.004 0.0415,0.0803 0.29755,0.13777 0.49072,0.10151 0.0744,-0.014 0.16646,-0.0185 0.2047,-0.0101 0.0383,0.008 0.0999,0.006 0.137,-0.005 0.0205,-0.006 0.0348,-0.0107 0.0448,-0.019 0.0401,-0.0126 0.0498,-0.0333 0.0603,-0.0992 0.009,-0.0588 0.002,-0.13074 -0.0226,-0.19699 -0.007,-0.0194 -0.014,-0.049 -0.0205,-0.0837 -0.003,-0.0331 -0.006,-0.0622 -0.0102,-0.0822 -0.002,-0.01 -0.004,-0.0192 -0.007,-0.0289 -0.005,-0.0417 -0.009,-0.0848 -0.0109,-0.12507 -0.0151,-0.30095 -0.0248,-0.36109 -0.0771,-0.47478 -0.19016,-0.41405 -0.2517,-0.80412 -0.18521,-1.17342 0.0499,-0.27722 0.0269,-0.43532 -0.0928,-0.63946 -0.0429,-0.0732 -0.085,-0.15938 -0.0936,-0.19151 -0.0223,-0.0842 -0.0418,-0.10724 -0.1356,-0.16015 -0.0676,-0.0381 -0.0825,-0.0597 -0.0767,-0.11133 0.004,-0.0352 -0.0137,-0.10405 -0.039,-0.15295 -0.0253,-0.0489 -0.0579,-0.11853 -0.0724,-0.15476 -0.0145,-0.0362 -0.0571,-0.0847 -0.0946,-0.10773 -0.11543,-0.0708 -0.20658,-0.15752 -0.26441,-0.25132 -0.0305,-0.0494 -0.0629,-0.0898 -0.0721,-0.0898 -0.009,0 -0.0748,-0.0374 -0.1457,-0.083 -0.12398,-0.0799 -0.17269,-0.0912 -0.23243,-0.0539 -0.0324,0.0202 -0.1039,-0.002 -0.1039,-0.0327 0,-0.0115 0.0269,-0.0277 0.0598,-0.0359 0.0329,-0.008 0.0598,-0.03 0.0598,-0.0483 0,-0.0183 0.01,-0.0333 0.0217,-0.0333 0.0409,0 -0.004,-0.0998 -0.0559,-0.12331 -0.0284,-0.0129 -0.0619,-0.0467 -0.0745,-0.0751 -0.013,-0.0294 -0.0592,-0.0618 -0.10674,-0.0751 -0.0461,-0.013 -0.098,-0.0374 -0.1154,-0.0544 -0.0173,-0.0171 -0.0605,-0.0373 -0.0958,-0.045 -0.0353,-0.008 -0.0934,-0.0231 -0.12923,-0.0344 -0.0125,-0.004 -0.0244,-0.006 -0.0364,-0.007 -0.005,-2.5e-4 -0.009,-2.5e-4 -0.0136,-1.9e-4 z m 0.50142,1.90691 c 0.005,6.8e-4 0.009,0.005 0.009,0.0126 0,0.0129 0.007,0.0405 0.0145,0.0613 0.01,0.0248 0.002,0.0379 -0.0239,0.0379 -0.0422,0 -0.0536,-0.0837 -0.0146,-0.10773 0.003,-0.002 0.006,-0.003 0.009,-0.004 0.002,-4.9e-4 0.004,-4.9e-4 0.006,-1.7e-4 z m 0.0546,0.28358 c 0.0182,-0.003 0.0491,0.0368 0.0602,0.0915 0.002,0.007 0.01,0.0237 0.019,0.038 0.009,0.0143 6.8e-4,0.0259 -0.0184,0.0259 -0.032,0 -0.0449,-0.024 -0.0377,-0.0698 0.002,-0.01 -0.006,-0.018 -0.0171,-0.018 -0.0109,0 -0.0199,-0.0161 -0.0199,-0.0358 0,-0.0208 0.005,-0.0305 0.0139,-0.0316 z m 0.87291,1.84108 c 0.0468,0.0461 0.0746,0.0765 0.0917,0.11082 -0.003,0.0541 0.096,0.0575 0.12643,0.1023 0.008,0.0134 0.0521,0.0243 0.0974,0.0243 0.0271,0 0.0452,6.8e-4 0.0574,0.005 0.0131,0.0589 0.0151,0.11306 0.002,0.14438 -0.008,0.019 -0.0293,0.0419 -0.057,0.0651 -0.005,0.003 -0.01,0.007 -0.0152,0.0106 l -0.007,0.007 c -0.074,0.0555 -0.1782,0.1071 -0.22813,0.10353 -0.0363,-0.003 -0.089,0.0195 -0.1307,0.0485 0.004,-0.021 0.008,-0.0462 0.0128,-0.0769 0.0155,-0.0969 0.0261,-0.22381 0.0235,-0.28189 -0.005,-0.11359 0.005,-0.20855 0.0273,-0.26218 z" /><path
           d="m 684.27698,597.78106 c 0.0678,7e-4 0.13211,0.0115 0.1639,0.0313 0.0184,0.0115 0.0547,0.0241 0.0804,0.0283 0.0576,0.009 0.1426,0.095 0.18049,0.18261 0.0223,0.0517 0.0207,0.0757 -0.008,0.11731 -0.0322,0.046 -0.0322,0.0523 -1.8e-4,0.0523 0.02,0 0.0537,0.006 0.0747,0.0147 0.0239,0.009 0.0642,-0.0134 0.10695,-0.06 0.0641,-0.0697 0.0828,-0.0754 0.27861,-0.0851 0.11546,-0.006 0.30936,-0.0343 0.43092,-0.0635 0.33703,-0.0811 0.33946,-0.0805 0.48259,0.11354 0.0721,0.0978 0.12315,0.19317 0.12334,0.23072 1.8e-4,0.0352 0.0171,0.11854 0.0372,0.18522 0.0202,0.0667 0.0369,0.14682 0.037,0.17809 1.8e-4,0.0312 0.0243,0.0985 0.0536,0.14942 0.0376,0.0654 0.0484,0.11238 0.0363,0.16 -0.0219,0.0872 -0.15096,0.16644 -0.26255,0.16111 -0.0475,-0.002 -0.13362,0.005 -0.19131,0.0142 -0.0979,0.017 -0.10391,0.0228 -0.0902,0.0842 0.007,0.0361 0.0359,0.0935 0.0616,0.12748 0.0916,0.12041 0.21582,0.38703 0.28223,0.6057 0.037,0.12191 0.099,0.28465 0.13767,0.36166 0.0386,0.077 0.092,0.23923 0.11845,0.36046 0.0265,0.12124 0.068,0.26382 0.0922,0.31686 0.0346,0.0755 0.0453,0.17134 0.0497,0.44217 0.01,0.61665 0.0411,0.87524 0.12135,1.00238 0.0713,0.11295 0.0995,0.27641 0.0542,0.31328 -0.017,0.0138 -0.0529,0.0305 -0.0802,0.0372 -0.0272,0.007 -0.0949,0.0134 -0.1505,0.015 -0.16115,0.005 -0.18723,-0.0524 -0.21966,-0.47874 -0.0138,-0.18267 -0.11576,-0.504 -0.16477,-0.51973 -0.11148,-0.0359 -0.23632,-0.29696 -0.26511,-0.55456 -0.0182,-0.16305 -0.042,-0.22516 -0.19866,-0.51864 -0.0979,-0.18337 -0.18654,-0.34224 -0.19701,-0.35302 -0.0106,-0.0109 -0.0328,0.13369 -0.0497,0.32105 -0.0168,0.18736 -0.0465,0.43127 -0.066,0.54197 -0.0252,0.14352 -0.0282,0.22013 -0.0102,0.26708 0.0354,0.0931 0.031,0.22443 -0.008,0.25728 -0.0382,0.0317 -0.0349,0.16138 0.007,0.32141 0.0156,0.0578 0.0332,0.18798 0.0392,0.28912 0.0108,0.18189 0.0101,0.18412 -0.057,0.20976 -0.0373,0.0143 -0.10064,0.0212 -0.1406,0.0153 -0.0399,-0.006 -0.13442,0.006 -0.20992,0.0254 -0.21641,0.0568 -0.52007,0.002 -0.52007,-0.0943 0,-0.0533 0.12268,-0.14649 0.19298,-0.14649 0.0785,0 0.27649,-0.14016 0.3024,-0.21402 0.0243,-0.0691 -0.0275,-0.23476 -0.1041,-0.33286 -0.0431,-0.0552 -0.0703,-0.11989 -0.0703,-0.16743 0,-0.0426 -0.0284,-0.14469 -0.0628,-0.22685 -0.0587,-0.13939 -0.0619,-0.16707 -0.0472,-0.41295 0.008,-0.14494 0.0194,-0.37464 0.0238,-0.51047 0.005,-0.13583 0.0185,-0.2803 0.0312,-0.32106 0.0127,-0.0407 0.0144,-0.0963 0.003,-0.12348 -0.0318,-0.0811 -0.0253,-0.19538 0.0142,-0.25193 0.0266,-0.0378 0.0308,-0.0693 0.0145,-0.11045 -0.0415,-0.10603 -0.1992,-0.19494 -0.20032,-0.11302 -1.8e-4,0.017 -0.0614,0.0573 -0.13582,0.0894 -0.0745,0.0323 -0.13545,0.0681 -0.13545,0.0796 0,0.043 -0.14975,0.0964 -0.27041,0.0964 -0.0924,0 -0.13771,-0.0131 -0.17489,-0.0501 -0.0449,-0.0449 -0.087,-0.166 -0.0744,-0.21377 0.007,-0.0311 -0.0799,-0.0536 -0.21663,-0.0553 -0.12769,-0.002 -0.13107,-0.003 -0.12347,-0.0683 0.006,-0.0562 0.031,-0.0755 0.15599,-0.12401 0.0815,-0.0316 0.19112,-0.0644 0.24359,-0.0729 0.0794,-0.0128 0.10136,-0.0297 0.13128,-0.10142 0.0197,-0.0474 0.0332,-0.13182 0.0299,-0.18779 -0.007,-0.11575 0.0298,-0.20239 0.11692,-0.27614 l 0.0602,-0.0509 -0.0808,-0.10964 c -0.0444,-0.0603 -0.0925,-0.14299 -0.10684,-0.18373 -0.0149,-0.0424 -0.0408,-0.0707 -0.0604,-0.0664 -0.0189,0.005 -0.06,0.002 -0.0914,-0.006 -0.0652,-0.0164 -0.0757,-0.10615 -0.0312,-0.26641 0.0268,-0.0965 0.18197,-0.28823 0.21031,-0.25989 0.009,0.009 0.0578,-2.6e-4 0.10843,-0.0205 0.0468,-0.0187 0.11853,-0.0274 0.18647,-0.0265 z m 1.51342,0.67017 c -0.0185,-5.1e-4 -0.0628,0.0194 -0.10607,0.0488 -0.0496,0.0337 -0.11067,0.0676 -0.13594,0.0757 -0.0435,0.0138 -0.0429,0.0206 0.0141,0.13428 0.0331,0.0659 0.0602,0.13202 0.0602,0.14703 0,0.0543 0.32218,0.0113 0.35868,-0.0477 0.0155,-0.025 -0.14288,-0.33062 -0.18469,-0.35646 -0.002,-7e-4 -0.003,-0.002 -0.006,-0.002 z"
           style="fill:#000000;stroke-width:0.00653426"
           id="path693" /><path
           d="m 694.78125,599.2821 c 0.17091,-0.004 0.35291,0.0958 0.43531,0.28844 0.0342,0.0799 0.0716,0.10715 0.19938,0.14508 0.0865,0.0257 0.17629,0.0625 0.19961,0.0819 0.0233,0.0193 0.0871,0.0575 0.14167,0.0847 0.0647,0.0323 0.1029,0.0763 0.10983,0.12624 0.006,0.0421 0.0438,0.17833 0.0843,0.30267 0.0405,0.12435 0.0736,0.25777 0.0736,0.29646 0,0.082 -0.13848,0.25893 -0.20267,0.25893 -0.055,0 -0.11147,0.14187 -0.0871,0.2187 0.01,0.0316 0.0521,0.0977 0.0935,0.14694 0.0556,0.066 0.0847,0.15403 0.11115,0.33548 0.0328,0.22492 0.0311,0.25133 -0.0201,0.30789 -0.0598,0.0661 -0.0566,0.0884 0.0781,0.54185 0.0336,0.11323 0.031,0.13498 -0.0264,0.2156 -0.023,0.0323 -0.0465,0.0841 -0.0636,0.13491 h -0.61745 c -0.005,-0.0297 -0.009,-0.0583 -0.0141,-0.0953 -0.0205,-0.15904 -0.0559,-0.31861 -0.0785,-0.35457 -0.0585,-0.0929 -0.18812,-0.16195 -0.34368,-0.18327 -0.17064,-0.0234 -0.21989,0.0287 -0.21464,0.22732 0.004,0.13995 -0.009,0.30413 -0.028,0.40581 h -0.78994 c -0.01,-0.0159 -0.0191,-0.0305 -0.0278,-0.0405 -0.043,-0.0494 -0.0417,-0.062 0.0144,-0.13719 0.034,-0.0455 0.0951,-0.0906 0.13569,-0.10007 0.0798,-0.0187 0.11621,-0.12912 0.0635,-0.19267 -0.0167,-0.0201 -0.0404,-0.24667 -0.0526,-0.50337 -0.0246,-0.51637 -0.0196,-0.53489 0.16256,-0.61105 0.0792,-0.0331 0.12829,-0.0344 0.23948,-0.006 0.081,0.0204 0.15102,0.0238 0.16639,0.008 0.028,-0.0286 -0.005,-0.39503 -0.0387,-0.42861 -0.0108,-0.0108 -0.0666,0.0303 -0.1242,0.0913 -0.10387,0.11013 -0.21507,0.14033 -0.34009,0.0923 -0.11705,-0.0449 -0.0154,-0.44089 0.17848,-0.69502 0.0623,-0.0817 0.0781,-0.14256 0.0877,-0.33691 0.009,-0.17726 0.0248,-0.24685 0.0633,-0.27521 0.0284,-0.0209 0.0756,-0.0862 0.10499,-0.14521 0.0674,-0.13545 0.19363,-0.20205 0.32656,-0.20541 z m -0.28856,3.05541 c -0.0168,0 -0.0306,0.0337 -0.0306,0.0748 0,0.0411 0.0138,0.0833 0.0306,0.0937 0.0179,0.0111 0.0307,-0.0201 0.0307,-0.0748 0,-0.0516 -0.0138,-0.0937 -0.0307,-0.0937 z"
           style="fill:#000000;stroke-width:0.00810815"
           id="path694" /></g></g></g></svg>
