<?xml version="1.0" encoding="UTF-8" standalone="no"?>
<!-- Created with Inkscape (http://www.inkscape.org/) -->

<svg
   width="11.627766mm"
   height="5.2274299mm"
   viewBox="0 0 11.627766 5.2274299"
   version="1.1"
   id="svg3713"
   sodipodi:docname="inkporter-svg-c7tu52na.svg"
   xmlns:inkscape="http://www.inkscape.org/namespaces/inkscape"
   xmlns:sodipodi="http://sodipodi.sourceforge.net/DTD/sodipodi-0.dtd"
   xmlns="http://www.w3.org/2000/svg"
   xmlns:svg="http://www.w3.org/2000/svg">
  <sodipodi:namedview
     id="namedview3715"
     pagecolor="#ffffff"
     bordercolor="#666666"
     borderopacity="1.0"
     inkscape:pageshadow="2"
     inkscape:pageopacity="0.0"
     inkscape:pagecheckerboard="0"
     inkscape:document-units="mm"
     showgrid="false"
     inkscape:zoom="0.93859299"
     inkscape:cx="542.30109"
     inkscape:cy="437.35677"
     inkscape:window-width="1920"
     inkscape:window-height="1017"
     inkscape:window-x="-8"
     inkscape:window-y="-8"
     inkscape:window-maximized="1"
     inkscape:current-layer="layer1" />
  <defs
     id="defs3710" />
  <g
     inkscape:label="Layer 1"
     inkscape:groupmode="layer"
     id="layer1"
     transform="translate(-123.85716,-121.13756)">
    <g
       id="B-3inch"
       transform="matrix(0.11582381,0,0,0.11582381,71.18816,44.75203)">
      <path
         d="m 462.89342,675.06979 c 0.26331,-0.003 0.52377,0.27406 1.19478,0.99994 0.59798,0.64688 1.56554,1.3693 2.15024,1.60557 0.70318,0.28417 1.09183,0.62008 1.14773,0.99219 0.0596,0.39624 0.27469,0.56277 0.72761,0.56277 0.50464,0 0.64286,0.13822 0.64286,0.64286 0,0.4618 0.16499,0.66691 0.58549,0.7276 0.42008,0.0607 0.63503,0.32703 0.76015,0.94258 0.0959,0.47186 0.72935,1.50765 1.40769,2.30166 0.67831,0.79399 1.48548,2.01539 1.79369,2.71405 0.64553,1.46335 3.72795,5.43716 6.3505,8.18708 1.26061,1.32186 1.80248,2.0928 1.80248,2.56421 0,0.37073 0.11906,0.74776 0.26458,0.83767 0.14552,0.0899 0.26458,0.43929 0.26458,0.77668 0,0.94713 0.49385,1.17859 1.98438,0.9302 0.7276,-0.12126 1.94799,-0.22717 2.71198,-0.23617 1.21504,-0.0138 1.38906,0.0501 1.38906,0.51004 0,0.3248 -0.40031,0.77877 -1.04696,1.187 -1.05494,0.66598 -1.88042,1.72704 -1.3436,1.72704 0.41235,0 0.32954,0.55814 -0.16381,1.10329 -0.53784,0.59428 -0.58774,0.59525 -1.70428,0.0212 -0.75536,-0.38841 -1.63754,-0.46303 -5.47357,-0.46303 -3.76812,0 -4.61645,-0.0696 -4.8178,-0.39481 -0.13642,-0.22031 -0.14359,-0.49511 -0.0164,-0.62216 0.31229,-0.31229 4.46058,-2.03806 5.43843,-2.2624 0.66207,-0.15187 0.79375,-0.31176 0.79375,-0.96481 0,-0.63494 -0.12501,-0.8001 -0.66146,-0.87227 -0.48495,-0.0653 -1.12043,-0.727 -2.38125,-2.48047 -1.98958,-2.76696 -4.17438,-5.55996 -5.21829,-6.67092 -0.40005,-0.42574 -1.03625,-1.19964 -1.41439,-1.71979 -1.05225,-1.44743 -3.13576,-3.50348 -3.3905,-3.34605 -0.12488,0.0772 -0.30004,0.50665 -0.38963,0.95446 -0.12028,0.60137 -0.0279,0.95901 0.35346,1.3684 0.58597,0.62894 0.48112,1.00353 -0.28059,1.00353 -0.73406,0 -1.20983,1.12964 -0.82838,1.96684 0.20251,0.44439 0.21232,0.91628 0.032,1.52132 -0.14375,0.48245 -0.33404,2.33606 -0.42323,4.11914 -0.14732,2.94328 -0.11637,3.29309 0.33845,3.79564 0.4925,0.54417 0.49147,0.56107 -0.0512,1.00047 -0.30358,0.24582 -0.6687,0.80044 -0.81182,1.23195 -0.31324,0.94448 -1.33072,1.21481 -1.85777,0.49403 -0.43119,-0.58963 -0.45262,-2.53945 -0.0325,-2.95953 0.50861,-0.50858 0.16301,-0.57645 -1.6459,-0.32192 -1.39335,0.19603 -1.82099,0.37772 -2.31097,0.98028 -0.37584,0.46226 -0.55007,0.95184 -0.46506,1.30588 0.0969,0.40336 -0.054,0.69022 -0.52351,0.99788 -0.3683,0.2413 -0.66317,0.69246 -0.66818,1.02163 -0.0103,0.69522 -0.84478,1.77972 -1.36943,1.77972 -0.72204,0 -1.00303,-0.64606 -1.00303,-2.30835 0,-1.53496 0.0543,-1.69403 0.65217,-1.92136 0.37208,-0.14147 0.94237,-0.79187 1.32911,-1.51513 0.37261,-0.69684 1.21385,-2.10005 1.86915,-3.1187 1.48103,-2.30232 2.76415,-4.75221 2.76415,-5.27666 0,-0.88869 1.31077,-3.33063 1.90998,-3.55844 0.827,-0.31443 1.47497,-1.51246 1.04851,-1.93892 -0.17168,-0.17166 -0.31265,-0.6192 -0.31265,-0.99475 0,-0.51573 0.19425,-0.7566 0.79375,-0.98288 0.89516,-0.3379 1.0633,-0.87439 0.27389,-0.87439 -0.28599,0 -0.95046,-0.37854 -1.4769,-0.84077 -0.7362,-0.64635 -0.92853,-0.99017 -0.83304,-1.48984 0.0838,-0.43849 -0.13317,-1.01473 -0.66765,-1.773 -0.90313,-1.28127 -0.83921,-1.99316 0.24289,-2.70216 0.2495,-0.16349 0.40838,-0.26411 0.56636,-0.26509 z m 3.99563,7.33547 c -0.15409,0 -0.20669,0.11906 -0.11679,0.26458 0.0899,0.14552 0.2164,0.26459 0.28062,0.26459 0.0642,0 0.11626,-0.11907 0.11626,-0.26459 0,-0.14552 -0.12597,-0.26458 -0.28009,-0.26458 z m -3.78995,12.73307 c -0.0607,-0.0257 -0.14144,0.22876 -0.22116,0.77203 -0.065,0.44299 -0.019,0.86707 0.10231,0.94208 0.12126,0.0749 0.22014,-0.28774 0.22014,-0.80563 0,-0.57695 -0.0405,-0.88284 -0.10129,-0.90848 z"
         style="fill:#000000;stroke-width:0.0700042"
         id="path25001" />
      <path
         d="m 544.38779,671.94225 c 1.47563,-0.0373 3.04694,0.82753 3.75843,2.49031 0.29522,0.68995 0.61844,0.92509 1.72135,1.25262 0.74676,0.22177 1.5221,0.53988 1.72339,0.70694 0.20132,0.16705 0.75197,0.49633 1.2232,0.73173 0.55832,0.27892 0.88839,0.65881 0.94826,1.08987 0.0505,0.3638 0.37793,1.53966 0.72761,2.61326 0.34964,1.0736 0.63561,2.22547 0.63561,2.55955 0,0.70798 -1.19558,2.23552 -1.74977,2.23552 -0.47472,0 -0.96242,1.22492 -0.7519,1.88825 0.0865,0.2726 0.45006,0.8436 0.8077,1.26865 0.47966,0.57005 0.73131,1.32983 0.95964,2.89648 0.28305,1.94185 0.26829,2.1699 -0.17362,2.65824 -0.51609,0.57026 -0.4886,0.76338 0.67437,4.67826 0.29041,0.97758 0.26771,1.16535 -0.22788,1.86137 -0.19857,0.27889 -0.40122,0.72646 -0.5488,1.1648 h -5.33096 c -0.0405,-0.25678 -0.0808,-0.5034 -0.12195,-0.8227 -0.17711,-1.37313 -0.48228,-2.75084 -0.67799,-3.06131 -0.50535,-0.80168 -1.62417,-1.39824 -2.96728,-1.58231 -1.47325,-0.20196 -1.89849,0.24815 -1.85311,1.96265 0.032,1.20828 -0.0783,2.62581 -0.24183,3.50367 h -6.82027 c -0.0824,-0.13753 -0.16497,-0.2635 -0.23977,-0.34933 -0.37166,-0.4264 -0.3602,-0.53517 0.12454,-1.18443 0.29353,-0.39318 0.82082,-0.78182 1.1715,-0.86403 0.68916,-0.16153 1.00338,-1.11474 0.54829,-1.66346 -0.14422,-0.17388 -0.3488,-2.12966 -0.45423,-4.34599 -0.21209,-4.45823 -0.16957,-4.61809 1.40353,-5.27564 0.68395,-0.28593 1.10763,-0.29702 2.06756,-0.0553 0.69948,0.17616 1.30395,0.20543 1.43661,0.0698 0.24141,-0.24688 -0.0445,-3.41066 -0.33433,-3.70054 -0.0931,-0.0931 -0.57544,0.26175 -1.0723,0.78857 -0.89678,0.95088 -1.85682,1.21158 -2.93624,0.79737 -1.01063,-0.3878 -0.13253,-3.80656 1.54099,-6.00067 0.53787,-0.70519 0.67439,-1.23084 0.75705,-2.90886 0.0754,-1.53037 0.21391,-2.13121 0.54673,-2.37609 0.24501,-0.18026 0.65292,-0.74432 0.90641,-1.25367 0.58206,-1.16946 1.67177,-1.74453 2.81946,-1.77353 z m -2.49132,26.3798 c -0.14552,0 -0.26458,0.29073 -0.26458,0.64596 0,0.3552 0.11906,0.71934 0.26458,0.80925 0.15436,0.0954 0.26458,-0.17375 0.26458,-0.64595 0,-0.44517 -0.11906,-0.80926 -0.26458,-0.80926 z"
         style="fill:#000000;stroke-width:0.0700042"
         id="path25035" />
      <g
         id="g25162"
         transform="translate(-10.102788,2.0579754)">
        <path
           id="path24692"
           style="fill:#000000;stroke-width:0.264583"
           d="m 510.31746,688.22479 c 0.44339,-0.002 0.95327,0.004 1.52859,0.0176 4.5939,0.10993 4.59309,0.10972 4.35374,3.53984 -0.41748,5.98271 -0.64872,7.97271 -0.97203,8.36228 -0.25665,0.30925 -0.61871,0.37249 -1.43144,0.25062 -0.59822,-0.0897 -2.21651,-0.16601 -3.59616,-0.17001 -1.37966,-0.004 -2.63724,-0.0894 -2.79467,-0.19017 -0.15741,-0.10074 -0.36023,-0.83777 -0.45113,-1.63814 -0.0909,-0.80036 -0.23693,-1.88516 -0.32453,-2.41019 -0.115,-0.68939 -0.005,-1.25728 0.39739,-2.04536 0.34799,-0.6821 0.61845,-1.86187 0.72192,-3.14657 0.0911,-1.13038 0.26791,-2.18608 0.39275,-2.3456 0.11267,-0.14394 0.84542,-0.21883 2.17557,-0.22427 z"
           sodipodi:nodetypes="scssssssscssss" />
        <path
           d="m 518.88178,667.04683 c 0.26379,-0.0103 0.56676,-0.006 0.93276,0.008 1.79985,0.0689 2.39768,0.23159 4.69069,1.27587 0.75496,0.34383 1.49056,0.62529 1.63452,0.62529 0.63725,0 1.35805,1.41639 1.35805,2.66806 0,1.2011 0.0718,1.33167 1.25161,2.27944 3.23337,2.59749 3.32671,2.74214 4.83071,7.48792 1.49884,4.72958 3.2979,8.36403 5.68132,11.4763 0.52194,0.68159 0.84235,1.47534 0.95962,2.37971 0.0968,0.74645 0.30861,1.99258 0.47077,2.76882 0.19749,0.94533 0.20802,1.57278 0.0326,1.90066 -0.0639,0.11935 -0.12028,0.31628 -0.16587,0.53639 h -2.76934 c -0.0664,-0.18249 -0.12999,-0.34335 -0.17933,-0.43614 -0.14677,-0.27596 -0.22924,-0.83759 -0.18344,-1.24799 0.10676,-0.95718 -0.47746,-2.33643 -1.16686,-2.75487 -0.29533,-0.17925 -1.13554,-1.21293 -1.86706,-2.297 -0.73155,-1.08408 -1.64468,-2.30648 -2.02936,-2.71664 -0.38465,-0.41016 -1.34254,-1.65986 -2.12904,-2.77709 -0.78653,-1.11723 -1.57518,-2.08129 -1.75237,-2.14199 -0.17719,-0.0607 -1.11059,0.49625 -2.07428,1.23764 -0.96369,0.74142 -1.94609,1.4673 -2.18281,1.61282 -0.39542,0.24307 -0.39611,0.38301 -0.0124,1.71979 0.86177,3.00242 0.89903,3.49221 0.35915,4.72118 -0.35656,0.81168 -0.43104,1.28727 -0.25321,1.61954 0.13846,0.25871 0.25133,0.93212 0.25114,1.49653 -10e-5,0.44225 0.008,1.25188 0.0151,1.96422 h -2.4877 c -0.035,-0.55391 -0.65937,-0.65096 -1.61594,-0.19482 -0.17476,0.0833 -0.33954,0.14701 -0.50538,0.19482 h -1.79731 c -0.7242,-0.1201 -1.42238,-0.32994 -1.56838,-0.47594 -0.4409,-0.4409 0.19339,-1.31042 1.19735,-1.64176 1.33215,-0.43963 1.86801,-1.16753 1.82107,-2.47272 -0.022,-0.61071 -0.0439,-1.83779 -0.0491,-2.72695 -0.014,-2.37284 -0.50043,-5.416 -0.9834,-6.15313 -0.40743,-0.62179 -0.3896,-0.67106 0.53123,-1.46399 1.08217,-0.93183 2.28566,-2.6317 2.28566,-3.22821 0,-0.34041 -0.12258,-0.32864 -0.82423,0.078 -0.4536,0.26289 -0.94427,0.73478 -1.08987,1.04852 -0.1456,0.31372 -0.66813,0.78764 -1.16118,1.05315 -0.49303,0.26553 -0.96398,0.6962 -1.04696,0.95758 -0.22643,0.71345 -1.11122,1.15932 -3.03186,1.52754 -2.545,0.48795 -4.64023,0.16791 -5.59551,-0.85473 -0.40923,-0.43807 -0.74414,-0.96007 -0.74414,-1.15962 0,-0.19952 -0.3016,-0.56062 -0.67077,-0.80253 -0.89062,-0.58357 -0.74478,-0.86262 0.74829,-1.42936 1.20346,-0.45683 2.10582,-0.44045 2.7373,0.0506 0.18833,0.14647 0.97991,-0.0905 2.11667,-0.63355 2.27388,-1.08635 2.59736,-1.65846 2.34715,-4.15015 -0.24718,-2.46126 -0.39643,-2.63657 -1.51982,-1.77974 -0.50245,0.38325 -1.07009,0.69712 -1.26141,0.69712 -0.19134,0 -0.97692,-0.47482 -1.74564,-1.05521 -1.28712,-0.97179 -2.43975,-1.5974 -3.61167,-1.96011 -0.4641,-0.14362 -0.66741,-1.21801 -0.23047,-1.21801 0.12787,0 0.37615,-0.38693 0.55139,-0.8599 1.06524,-2.87512 1.70159,-3.37344 4.30826,-3.37344 1.19645,0 1.5357,0.11933 2.28822,0.80667 0.48596,0.44386 0.90337,0.77131 0.92761,0.72763 0.0241,-0.0437 0.21457,-0.41667 0.42269,-0.82892 0.20815,-0.41224 0.91361,-1.06299 1.56787,-1.44642 0.75478,-0.4423 1.19618,-0.6074 1.98747,-0.6387 z"
           style="fill:#000000;stroke-width:0.0700042"
           id="path25052" />
      </g>
      <path
         d="m 470.32908,659.49766 c 1.19962,0 3.02191,0.89866 3.45196,1.70222 0.18799,0.35127 0.62432,0.70919 0.96946,0.79582 0.34515,0.0866 0.62736,0.32147 0.62736,0.52141 0,0.50271 0.59785,0.68472 2.24792,0.68472 1.1479,0 1.65257,0.1601 2.71198,0.85989 1.52821,1.00949 4.55163,4.51186 4.5956,5.32371 0.0471,0.87117 -0.0659,1.60827 -0.26976,1.7539 -0.10184,0.0728 -0.52438,0.58348 -0.93846,1.1348 -0.84275,1.12217 -0.80398,1.31505 0.70022,3.49541 1.09498,1.58715 1.81592,3.91705 1.63039,5.27047 -0.17899,1.30585 0.57272,6.26943 1.12139,7.40368 0.20439,0.42254 0.37155,0.97205 0.37155,1.2211 0,0.24908 0.22207,0.73716 0.493,1.08418 0.27093,0.34706 0.87532,1.28583 1.34305,2.08619 0.46773,0.80037 1.13866,1.85939 1.4914,2.35387 0.43051,0.60343 0.6413,1.25896 0.6413,1.99366 0,0.60201 0.2481,1.79938 0.55086,2.66083 0.52457,1.49244 0.52835,1.58229 0.0817,1.90892 -0.0481,0.0351 -0.0968,0.0584 -0.14676,0.0904 h -3.43543 c -0.0238,-0.007 -0.048,-0.0119 -0.0749,-0.0119 -0.5315,0 -0.74356,-0.85566 -0.42169,-1.70222 0.43365,-1.14059 0.34377,-1.38232 -1.01545,-2.71973 -0.70797,-0.69663 -1.8959,-2.27862 -2.63961,-3.51555 -1.97345,-3.2821 -1.83756,-3.13036 -2.2836,-2.54661 -0.83896,1.09802 -1.66856,-0.57513 -1.16168,-2.34249 0.26668,-0.92983 -0.16637,-2.51923 -0.68624,-2.51923 -0.18937,0 -0.49409,0.361 -0.67697,0.80253 -0.40563,0.97925 -2.53132,2.90163 -3.2086,2.90163 -0.44847,0 -0.49197,0.24662 -0.49197,2.79519 0,1.53755 -0.11464,3.01041 -0.25527,3.27319 -0.30403,0.56806 -0.33128,1.72318 -0.11472,4.85138 0.0188,0.2699 0.0308,0.50678 0.0403,0.73379 h -2.05156 v -0.20825 l -2.64273,-0.18756 c -1.45376,-0.10309 -2.71463,-0.30253 -2.80139,-0.44289 -0.27818,-0.45008 0.68012,-1.56723 1.48157,-1.72754 1.23721,-0.24744 1.44724,-0.72896 1.47071,-3.37344 0.0119,-1.32369 0.11975,-3.59209 0.24029,-5.04053 0.27313,-3.28181 1.27275,-5.61956 3.58119,-8.3757 1.93109,-2.30563 2.08367,-3.24535 0.72811,-4.48344 -0.46898,-0.42836 -1.07683,-0.77878 -1.35081,-0.77878 -0.274,0 -0.8518,-0.29765 -1.28418,-0.66146 -0.9348,-0.78658 -1.12368,-0.7948 -3.53568,-0.15295 -1.02534,0.27286 -2.66205,0.58134 -3.63699,0.68575 -1.65724,0.17748 -1.80639,0.14911 -2.29391,-0.43614 -0.66389,-0.79696 -0.70678,-2.00081 -0.0765,-2.15699 0.35127,-0.0871 0.26829,-0.18929 -0.34417,-0.42373 -0.44402,-0.17002 -1.00028,-0.63659 -1.2366,-1.03664 -0.52951,-0.89649 -0.9089,-3.88094 -0.52348,-4.11911 0.31853,-0.19688 2.74254,0.96819 3.22564,1.55027 0.45098,0.54345 3.96941,0.5529 5.01261,0.0135 1.13313,-0.58597 1.27564,-1.61472 0.36277,-2.61794 -0.40801,-0.44842 -0.95044,-0.97446 -1.2051,-1.16891 -0.53917,-0.41169 -0.60835,-1.39324 -0.13229,-1.87637 0.26691,-0.27088 0.0116,-0.29988 -1.32292,-0.15089 -1.40472,0.15679 -1.65364,0.12189 -1.65364,-0.23101 0,-0.22849 0.12578,-0.49284 0.27905,-0.58756 0.15328,-0.0947 0.5579,-0.80391 0.89916,-1.57562 0.73586,-1.66388 2.16739,-2.78122 3.56259,-2.78122 z"
         style="fill:#000000;stroke-width:0.0700042"
         id="path25069" />
    </g>
  </g>
</svg>
