<?xml version="1.0" encoding="UTF-8" standalone="no"?>
<!-- Created with Inkscape (http://www.inkscape.org/) -->

<svg
   width="23.690029mm"
   height="7.9493074mm"
   viewBox="0 0 23.690029 7.9493074"
   version="1.1"
   id="svg26913"
   sodipodi:docname="inkporter-svg-zot27x9c.svg"
   xmlns:inkscape="http://www.inkscape.org/namespaces/inkscape"
   xmlns:sodipodi="http://sodipodi.sourceforge.net/DTD/sodipodi-0.dtd"
   xmlns="http://www.w3.org/2000/svg"
   xmlns:svg="http://www.w3.org/2000/svg">
  <sodipodi:namedview
     id="namedview26915"
     pagecolor="#ffffff"
     bordercolor="#666666"
     borderopacity="1.0"
     inkscape:pageshadow="2"
     inkscape:pageopacity="0.0"
     inkscape:pagecheckerboard="0"
     inkscape:document-units="mm"
     showgrid="false"
     inkscape:zoom="0.45291836"
     inkscape:cx="114.81098"
     inkscape:cy="1266.2326"
     inkscape:window-width="1920"
     inkscape:window-height="1017"
     inkscape:window-x="-8"
     inkscape:window-y="-8"
     inkscape:window-maximized="1"
     inkscape:current-layer="layer1" />
  <defs
     id="defs26910" />
  <g
     inkscape:label="Layer 1"
     inkscape:groupmode="layer"
     id="layer1"
     transform="translate(-52.594484,-401.66373)">
    <path
       d="m 56.89705,409.55995 c -0.0984,-0.0899 -0.64978,-0.25246 -0.71635,-0.21133 l -0.0628,0.0389 0.0436,-0.0704 0.0436,-0.0705 h -0.11216 c -0.0616,0 -0.17173,-0.0417 -0.24456,-0.0928 -0.0728,-0.051 -0.15449,-0.0864 -0.18152,-0.0787 -0.027,0.008 -0.11132,-0.0205 -0.18726,-0.0624 -0.0759,-0.0422 -0.21791,-0.0823 -0.31544,-0.0894 -0.0976,-0.007 -0.17282,-0.0366 -0.16728,-0.0657 0.006,-0.0292 -0.0437,-0.0619 -0.10946,-0.0728 -0.0658,-0.0109 -0.17567,-0.0469 -0.24428,-0.0801 -0.0686,-0.0332 -0.32938,-0.13119 -0.57945,-0.21784 -0.25008,-0.0867 -0.51445,-0.21371 -0.58748,-0.28233 -0.16055,-0.15082 -0.38094,-0.5802 -0.40565,-0.79028 l -0.018,-0.15268 -0.14071,-0.0199 -0.1407,-0.0199 -0.0614,-0.16127 c -0.0337,-0.0888 -0.0537,-0.25002 -0.0443,-0.35849 0.0103,-0.10846 -0.003,-0.217 -0.027,-0.24119 -0.0876,-0.0876 -0.0407,-0.27676 0.10869,-0.43792 l 0.15268,-0.16467 v -0.26018 -0.26018 h 0.27484 0.27483 v -0.0916 c 0,-0.0505 -0.003,-0.10913 -0.005,-0.13058 -0.003,-0.0215 0.0315,-0.0622 0.0764,-0.0907 l 0.0815,-0.0516 -0.11195,-8.4e-4 -0.11198,-8.3e-4 0.0254,-0.0764 c 0.014,-0.0421 0.0782,-0.0843 0.14251,-0.0941 0.0644,-0.0103 0.17892,-0.031 0.25449,-0.0469 l 0.13742,-0.0293 0.004,-0.28894 c 0.003,-0.15891 0.0229,-0.33279 0.0458,-0.38639 l 0.0416,-0.0975 0.13541,0.0108 0.13539,0.0108 0.12376,-0.14234 c 0.0682,-0.0783 0.16515,-0.14575 0.21577,-0.14995 0.0506,-0.004 0.11623,-0.0111 0.14582,-0.0152 0.0296,-0.004 0.18667,-0.16565 0.34907,-0.35881 l 0.29526,-0.35116 h 0.11471 0.11469 l 0.032,-0.12216 0.0319,-0.12214 h 0.20663 0.20663 v -0.51912 -0.51913 h 0.0916 0.0916 v 0.45107 0.45107 l 0.0824,0.15875 c 0.0453,0.0873 0.0966,0.14448 0.11405,0.12705 0.0174,-0.0174 0.16587,-0.0332 0.32988,-0.0352 0.16402,-0.002 0.70286,-0.0834 1.19743,-0.18116 0.49456,-0.0978 0.91464,-0.17777 0.9335,-0.17777 0.0188,0 0.007,-0.0522 -0.0279,-0.11611 l -0.0621,-0.11613 0.0663,-0.19053 c 0.0712,-0.20428 0.21319,-0.31011 0.41599,-0.31011 h 0.12617 v 0.30538 c 0,0.16793 0.0248,0.30536 0.055,0.30536 0.0303,0 0.37652,-0.055 0.76949,-0.12215 0.39296,-0.0671 0.73413,-0.12215 0.75818,-0.12215 0.024,0 0.0896,-0.0963 0.14562,-0.21375 0.0901,-0.189 0.28713,-0.30012 0.28713,-0.16196 0,0.0285 0.10993,0.10139 0.2443,0.16196 0.13435,0.0606 0.24429,0.12676 0.24429,0.14704 0,0.0204 0.39825,0.0419 0.88501,0.0479 0.48676,0.006 0.91054,0.0268 0.94174,0.0461 0.0313,0.0192 0.12428,0.15594 0.20687,0.30369 l 0.15012,0.26861 -0.0914,0.0914 c -0.10781,0.10781 -0.0546,0.22525 0.10211,0.22525 0.061,0 0.32027,0.0684 0.57636,0.152 l 0.46561,0.15199 4.77922,-0.006 c 4.772,-0.006 5.11715,-0.0108 5.8298,-0.0882 l 0.37876,-0.0412 0.0377,0.15036 c 0.0208,0.0828 0.029,0.25767 0.0182,0.38884 l -0.0195,0.23846 -0.27484,0.0375 c -0.15116,0.0206 -0.34277,0.012 -0.42581,-0.0189 -0.21049,-0.0788 -0.55105,-0.099 -0.59045,-0.0353 l -0.0328,0.0532 -0.0869,-0.0721 -0.0869,-0.0721 -4.86993,0.0381 c -2.67847,0.021 -5.00735,0.0622 -5.17531,0.0915 -0.16795,0.0293 -0.25726,0.057 -0.19848,0.0615 0.0587,0.004 0.10688,0.0357 0.10688,0.0693 v 0.0611 h 0.35991 0.35989 l 0.0334,0.0869 0.0334,0.0869 0.1252,-0.0327 c 0.0688,-0.0181 0.11014,-0.0571 0.0917,-0.0869 l -0.0334,-0.0541 h 0.27844 0.27843 v 0.0845 0.0845 l 0.32064,0.0363 c 0.17634,0.02 0.69166,0.0542 1.14513,0.0761 0.45346,0.0218 0.87945,0.0688 0.94663,0.10453 0.0672,0.0357 0.49317,0.0802 0.94664,0.0989 l 0.82449,0.034 -0.019,0.0876 c -0.0105,0.0482 -0.003,0.15129 0.0164,0.22903 l 0.0355,0.14135 h 0.45886 0.45885 l 0.0439,0.10688 0.0439,0.10688 h 0.42649 0.42648 l 0.0193,0.27224 c 0.0217,0.30538 0.0975,0.43012 0.26142,0.43012 0.0611,0 0.12804,0.0274 0.1488,0.0611 0.0208,0.0335 0.0877,0.0611 0.14887,0.0611 h 0.1111 l 0.0612,0.24113 0.0612,0.24111 -0.0877,0.12534 c -0.0483,0.0689 -0.12276,0.12531 -0.16552,0.12531 h -0.0777 l 0.005,0.13742 0.005,0.1374 -0.15721,-0.0183 -0.15719,-0.0182 -0.0781,0.26252 c -0.12301,0.41302 -0.18024,0.53735 -0.24737,0.53735 -0.0343,0 -0.0623,0.0369 -0.0623,0.0822 0,0.0833 -0.22431,0.31834 -0.29651,0.31062 -0.0817,-0.009 -0.3753,0.12456 -0.3753,0.17029 0,0.0262 -0.0298,0.0477 -0.0664,0.0477 -0.0859,0 -0.85426,0.35533 -0.9624,0.44508 -0.0793,0.0658 -0.19613,0.10412 -0.36056,0.11834 -0.0421,0.003 -0.0764,0.0295 -0.0764,0.0575 0,0.028 -0.0402,0.0509 -0.0895,0.0509 -0.0491,0 -0.11833,0.054 -0.15362,0.11988 l -0.0641,0.11986 -0.0883,-0.0338 c -0.0485,-0.0186 -0.17608,0.0103 -0.28328,0.0634 l -0.19495,0.0973 h -6.02464 -6.02467 z m 3.61791,-0.41912 c 0.038,-0.0126 0.12663,0.0386 0.1968,0.11387 l 0.12757,0.13695 -0.002,-0.0878 c -7e-4,-0.0483 -0.0552,-0.15656 -0.12079,-0.24054 -0.0657,-0.084 -0.12222,-0.19391 -0.12562,-0.24428 l -0.006,-0.0916 -0.0344,0.0916 c -0.0189,0.0504 -0.0856,0.16468 -0.14807,0.25399 l -0.11365,0.16241 0.0432,0.11244 0.0432,0.11242 0.0351,-0.14816 c 0.0192,-0.0814 0.0662,-0.15853 0.10426,-0.17123 z m -2.11856,0.13978 c 0,-0.0484 0.025,-0.10345 0.0555,-0.12235 0.0868,-0.0536 0.24982,0.0305 0.24982,0.12889 v 0.0886 l 0.0621,-0.0384 c 0.0341,-0.0211 0.0463,-0.064 0.0268,-0.0952 -0.0193,-0.0313 0.0103,-0.057 0.0645,-0.057 h 0.0995 l -0.091,-0.091 c -0.0501,-0.0501 -0.11037,-0.1793 -0.13407,-0.28725 l -0.0431,-0.19625 -0.11044,0.21525 c -0.0608,0.11839 -0.15351,0.25101 -0.20617,0.29471 -0.10683,0.0886 -0.12909,0.24774 -0.0346,0.24774 0.0336,0 0.0612,-0.0397 0.0612,-0.088 z m 4.61822,-0.15628 c 0.0441,0 0.11292,0.0613 0.15301,0.13615 l 0.0728,0.13616 0.0608,-0.13616 c 0.0773,-0.17343 0.18293,-0.17301 0.3129,8.3e-4 l 0.10253,0.13742 -0.0329,-0.10919 -0.0329,-0.10919 0.0895,-0.0343 0.0895,-0.0344 -0.0612,-0.11435 c -0.0758,-0.14169 -0.096,-0.58981 -0.035,-0.77427 l 0.0455,-0.13742 h -0.69622 -0.69621 l 0.027,0.32593 0.0271,0.32591 -0.0926,0.17907 -0.0926,0.17907 0.0842,0.11511 0.0842,0.11513 0.0388,-0.10098 c 0.0213,-0.0555 0.0934,-0.10098 0.16008,-0.10098 h 0.12133 l 0.0352,0.13455 0.0352,0.13455 0.06,-0.13455 c 0.033,-0.074 0.0961,-0.13455 0.14018,-0.13455 z m 2.5501,0.0546 c 0.0524,0.0435 0.12236,0.0696 0.15542,0.0581 l 0.0601,-0.021 -0.11607,-0.15268 -0.11608,-0.15269 -0.0957,0.12214 c -0.0527,0.0671 -0.12455,0.17712 -0.15984,0.24429 l -0.0641,0.12216 0.12049,-0.14968 0.12048,-0.14966 z m 1.9659,-0.0546 c 0.0546,0 0.11359,0.0546 0.13106,0.12146 0.0175,0.0668 0.0563,0.10634 0.0862,0.0878 0.0298,-0.0185 -0.0203,-0.13496 -0.11135,-0.25887 -0.0911,-0.12389 -0.17521,-0.23821 -0.1868,-0.25404 -0.0379,-0.0518 -0.13591,0.14914 -0.10882,0.22332 0.0145,0.0399 -8.4e-4,0.0815 -0.0346,0.0927 l -0.0611,0.0205 0.0444,0.11551 0.0443,0.1155 0.0487,-0.13194 c 0.0269,-0.0725 0.0935,-0.13194 0.1481,-0.13194 z m -11.05005,-0.44571 c -0.0438,-0.12738 -0.0748,-0.31373 -0.0687,-0.4141 l 0.0109,-0.18248 -0.59821,0.015 c -0.32902,0.009 -0.61807,-0.005 -0.64231,-0.0292 -0.0678,-0.0677 -0.32798,0.20671 -0.32798,0.34579 v 0.12318 l 0.078,-0.10661 0.0779,-0.10661 0.10528,0.0404 c 0.0579,0.0222 0.10526,0.0967 0.10526,0.16547 v 0.12507 l 0.10687,-0.0932 c 0.14398,-0.12541 0.25957,-0.0723 0.25957,0.11926 v 0.15707 l 0.11988,-0.10849 0.11987,-0.10848 0.0939,0.036 c 0.0516,0.0199 0.0939,0.0815 0.0939,0.13704 v 0.10098 l 0.0839,-0.0696 c 0.11749,-0.0975 0.28257,-0.0184 0.28257,0.13535 v 0.1287 l 0.0897,-0.0897 0.0897,-0.0897 z m 13.25626,0.0528 c 0.0528,-0.0203 0.13352,-0.005 0.17965,0.0328 l 0.0838,0.0696 v -0.12311 c 0,-0.14909 0.16692,-0.22572 0.28259,-0.12972 l 0.0839,0.0696 v -0.061 c 0,-0.0335 -0.0172,-0.1468 -0.0381,-0.25177 l -0.038,-0.19085 h -0.32708 -0.32708 l 0.0233,0.19849 c 0.0129,0.10916 -0.0127,0.28555 -0.0571,0.39198 -0.0443,0.10643 -0.0622,0.21211 -0.0399,0.23482 0.0223,0.0226 0.0491,-0.014 0.0593,-0.0814 0.0104,-0.0676 0.0619,-0.13931 0.11463,-0.15953 z m 0.95741,-0.30948 c -0.0193,-0.0505 -0.0788,-0.0916 -0.13191,-0.0916 h -0.0967 l 0.11855,0.0897 c 0.14923,0.11287 0.15269,0.11293 0.1101,0.002 z m -4.66366,-4.04838 c 0,-0.0264 -0.055,-0.0522 -0.12215,-0.0573 -0.0672,-0.005 -0.12215,0.0166 -0.12215,0.0481 0,0.0315 0.055,0.0573 0.12215,0.0573 0.0671,0 0.12215,-0.0216 0.12215,-0.048 z m -11.39984,-0.46793 0.0339,-0.0885 -0.0885,0.0338 c -0.0966,0.037 -0.12175,0.14304 -0.0339,0.14304 0.0299,0 0.0699,-0.0398 0.0884,-0.0885 z m 21.33545,-0.35048 -0.0321,-0.0801 -0.005,0.11705 c -0.003,0.0644 0.0118,0.10047 0.0321,0.0801 0.0204,-0.0204 0.0225,-0.0729 0.005,-0.11707 z m -21.21382,5.35807 c 0,-0.0488 0.0232,-0.0746 0.0518,-0.0569 0.0286,0.0176 0.0361,0.0576 0.0168,0.089 -0.0494,0.0799 -0.0687,0.0708 -0.0687,-0.0321 z"
       id="B-Archer" />
  </g>
</svg>
