<?xml version="1.0" encoding="UTF-8" standalone="no"?>
<!-- Created with Inkscape (http://www.inkscape.org/) -->

<svg
   width="25.370838mm"
   height="9.7424698mm"
   viewBox="0 0 25.370838 9.7424698"
   version="1.1"
   id="svg5570"
   sodipodi:docname="inkporter-svg-o_ueb23s.svg"
   xmlns:inkscape="http://www.inkscape.org/namespaces/inkscape"
   xmlns:sodipodi="http://sodipodi.sourceforge.net/DTD/sodipodi-0.dtd"
   xmlns="http://www.w3.org/2000/svg"
   xmlns:svg="http://www.w3.org/2000/svg">
  <sodipodi:namedview
     id="namedview5572"
     pagecolor="#ffffff"
     bordercolor="#666666"
     borderopacity="1.0"
     inkscape:pageshadow="2"
     inkscape:pageopacity="0.0"
     inkscape:pagecheckerboard="0"
     inkscape:document-units="mm"
     showgrid="false"
     inkscape:zoom="1.2810466"
     inkscape:cx="1051.484"
     inkscape:cy="1475.7465"
     inkscape:window-width="2400"
     inkscape:window-height="1271"
     inkscape:window-x="-9"
     inkscape:window-y="-9"
     inkscape:window-maximized="1"
     inkscape:current-layer="layer1"
     inkscape:snap-bbox="true"
     inkscape:snap-nodes="false"
     inkscape:snap-others="false"
     inkscape:bbox-paths="true"
     inkscape:bbox-nodes="true" />
  <defs
     id="defs5567" />
  <g
     inkscape:label="Layer 1"
     inkscape:groupmode="layer"
     id="layer1"
     transform="translate(-286.3348,-356.68602)">
    <path
       d="m 291.41764,366.41106 c -0.0286,-0.007 -0.0415,-0.0277 -0.0345,-0.0544 0.009,-0.033 -0.0231,-0.0556 -0.14025,-0.0999 -0.0833,-0.0315 -0.18938,-0.0789 -0.23581,-0.10529 -0.0953,-0.0543 -0.12525,-0.0344 -0.12593,0.0835 -5.5e-4,0.0939 -0.0289,0.10169 -0.16208,0.0446 -0.0919,-0.0394 -0.114,-0.06 -0.10429,-0.0971 0.01,-0.0366 -0.0243,-0.0705 -0.15214,-0.15216 -0.0904,-0.0578 -0.17282,-0.11732 -0.18305,-0.1323 -0.0247,-0.0362 -0.0673,0.0283 -0.0678,0.10291 -4.7e-4,0.0725 -0.0665,0.0731 -0.1911,0.002 -0.0519,-0.0298 -0.0988,-0.0574 -0.10411,-0.0614 -0.006,-0.004 0.003,-0.0233 0.0197,-0.0428 0.0241,-0.0291 10e-4,-0.0568 -0.12662,-0.15376 -0.0858,-0.0651 -0.17602,-0.13861 -0.20041,-0.16345 -0.061,-0.0621 -0.0811,-0.0571 -0.11679,0.0292 -0.039,0.0941 -0.0641,0.0923 -0.18323,-0.0129 -0.0738,-0.0652 -0.0901,-0.0928 -0.0694,-0.11777 0.0207,-0.0249 -0.003,-0.0675 -0.10187,-0.18082 -0.0709,-0.0815 -0.14128,-0.1703 -0.1564,-0.19728 -0.0347,-0.0619 -0.064,-0.0585 -0.0998,0.0116 -0.0524,0.10263 -0.071,0.10289 -0.16917,0.002 -0.0747,-0.0764 -0.0896,-0.10542 -0.0678,-0.13166 0.0273,-0.0329 -0.0357,-0.14533 -0.19078,-0.34015 l -0.0491,-0.0617 -0.0258,0.0679 c -0.0142,0.0374 -0.0349,0.0679 -0.0462,0.0679 -0.0112,0 -0.0644,-0.0451 -0.11819,-0.10018 -0.0789,-0.0808 -0.0909,-0.10448 -0.0618,-0.12242 0.0347,-0.0215 -0.0158,-0.1126 -0.18378,-0.33148 -0.0377,-0.0491 -0.0881,-0.0362 -0.0881,0.0225 0,0.0619 -0.061,0.0391 -0.15621,-0.0584 -0.0708,-0.0725 -0.0851,-0.10085 -0.0625,-0.12346 0.0226,-0.0226 0.007,-0.061 -0.0681,-0.16693 -0.0536,-0.0757 -0.10835,-0.15936 -0.12171,-0.18598 -0.0228,-0.0455 -0.0572,-0.0488 -0.57643,-0.055 l -0.55217,-0.007 -0.007,-0.59499 c -0.006,-0.45147 2.8e-4,-0.60993 0.0247,-0.65696 0.0177,-0.0341 0.0323,-0.0915 0.0323,-0.12754 3.8e-4,-0.15169 0.16773,-0.57989 0.3022,-0.77311 0.19771,-0.2841 0.41422,-0.4756 0.70199,-0.62089 0.18762,-0.0947 0.55996,-0.18881 0.74967,-0.18942 0.11814,-3.8e-4 0.1834,-0.0231 0.18518,-0.0644 5.6e-4,-0.0121 0.047,-0.0366 0.10325,-0.0543 0.0809,-0.0256 0.36092,-0.0294 1.34184,-0.0185 0.68175,0.008 1.48778,0.0209 1.79115,0.0294 l 0.5516,0.0156 v -0.0652 c 0,-0.0397 -0.0137,-0.0652 -0.0351,-0.0652 -0.0366,0 -0.16325,-0.20432 -0.16325,-0.26343 0,-0.0449 0.0139,-0.0437 0.34707,0.0295 0.1568,0.0345 0.30183,0.0628 0.32228,0.0631 0.0205,2.8e-4 0.0635,0.006 0.0956,0.0124 0.061,0.0125 0.0618,0.0237 0.0152,0.21122 -0.015,0.0605 -0.009,0.0661 0.0791,0.0783 0.14332,0.0197 2.00522,-5.6e-4 2.18818,-0.024 0.18302,-0.0233 0.21363,-0.0585 0.0898,-0.10326 -0.0475,-0.0172 -0.10979,-0.0641 -0.1384,-0.10428 -0.0373,-0.0524 -0.0725,-0.073 -0.12468,-0.073 h -0.0727 v -0.30989 -0.30989 H 294.64 c -0.0607,0 -0.0872,0.0126 -0.0959,0.0457 -0.009,0.0356 -0.0292,0.0432 -0.0896,0.0344 -0.0443,-0.006 -0.0777,-0.0262 -0.0777,-0.0457 0,-0.0242 -0.0328,-0.0344 -0.11052,-0.0344 h -0.11052 l -0.007,0.19213 -0.007,0.19214 -0.31609,0.007 -0.31609,0.007 v -0.0849 c 0,-0.0579 -0.0138,-0.0901 -0.0433,-0.10147 -0.0238,-0.009 -0.44496,-0.0143 -0.93586,-0.0114 l -0.89257,0.005 v -0.54283 -0.54282 l 0.90488,-0.0124 c 0.88752,-0.0121 0.9072,-0.0135 1.02617,-0.0709 0.15371,-0.0741 0.35621,-0.0666 0.49372,0.0184 0.0873,0.0539 0.0915,0.0628 0.0915,0.19089 0,0.13012 0.002,0.13431 0.0682,0.1339 0.0483,-2.8e-4 0.0843,-0.0235 0.12353,-0.0796 0.0521,-0.0745 0.0645,-0.0793 0.21073,-0.0801 l 0.15536,-10e-4 0.0124,-0.17354 c 0.0105,-0.146 0.0193,-0.17299 0.0559,-0.17007 0.028,0.002 0.0674,-0.039 0.11037,-0.11552 0.0591,-0.10512 0.0814,-0.12285 0.19202,-0.15234 0.0959,-0.0256 0.12692,-0.0457 0.13273,-0.0864 0.0122,-0.0853 0.0818,-0.12861 0.29144,-0.18143 0.25424,-0.0641 0.34457,-0.0637 0.40984,0.002 0.0408,0.0408 0.07,0.0485 0.13624,0.0361 0.0756,-0.0142 0.086,-0.0262 0.10032,-0.11582 0.0121,-0.0757 0.0309,-0.10565 0.0772,-0.12328 0.0507,-0.0192 0.0593,-0.0362 0.0502,-0.0983 -0.006,-0.0413 -0.003,-0.0796 0.006,-0.0852 0.009,-0.006 0.19395,-0.0117 0.41088,-0.0137 l 0.39441,-0.003 0.0152,0.0741 c 0.0318,0.15532 0.0261,0.15231 0.21284,0.11224 0.093,-0.02 0.26836,-0.0353 0.38962,-0.0341 0.19443,0.002 0.22461,-0.004 0.25551,-0.0478 0.0192,-0.0275 0.0567,-0.05 0.0832,-0.05 0.0379,0 0.0481,-0.0172 0.0478,-0.0806 -1.8e-4,-0.0443 -0.0104,-0.0963 -0.0225,-0.1155 -0.0348,-0.055 -0.003,-0.10142 0.07,-0.10142 0.0592,0 0.0674,-0.0102 0.0728,-0.0918 0.003,-0.0505 0.0182,-0.10626 0.0329,-0.12396 0.069,-0.0832 0.19418,0.005 0.19418,0.1371 v 0.0786 h 0.20065 c 0.1798,0 0.202,-0.005 0.21362,-0.0496 0.0123,-0.047 0.0338,-0.0496 0.40905,-0.0496 0.37524,0 0.39677,0.003 0.40905,0.0496 0.0115,0.0439 0.0338,0.0496 0.19458,0.0496 h 0.18162 l 0.008,-0.1049 c 0.006,-0.0887 0.0181,-0.10855 0.075,-0.12848 0.0875,-0.0306 0.16809,0.0364 0.16809,0.13983 0,0.0398 0.0158,0.0881 0.0351,0.10744 0.0273,0.0273 0.0292,0.0507 0.009,0.10505 -0.0145,0.0384 -0.0188,0.11012 -0.01,0.15926 l 0.0168,0.0893 0.14781,0.008 c 0.10192,0.006 0.15148,-0.001 0.15965,-0.0226 0.006,-0.0171 0.0276,-0.031 0.0469,-0.031 0.0484,0 0.0584,-0.0536 0.0637,-0.34032 0.003,-0.19399 -0.003,-0.25126 -0.0304,-0.26173 -0.046,-0.0177 -0.19671,-0.28571 -0.17782,-0.31627 0.008,-0.013 0.1423,-0.0237 0.2983,-0.0237 0.33411,0 0.33591,0.002 0.18447,0.22902 l -0.0992,0.1485 v 0.28228 c 0,0.17166 0.01,0.28228 0.0248,0.28228 0.0136,0 0.0248,0.0174 0.0248,0.0388 0,0.0288 0.0207,0.0367 0.0806,0.031 0.0787,-0.008 0.0807,-0.0108 0.0881,-0.1396 0.007,-0.12837 0.009,-0.1315 0.0744,-0.1193 0.0367,0.007 0.13364,0.0199 0.21531,0.029 0.19976,0.0222 0.33494,0.092 0.33494,0.17306 0,0.0519 0.0117,0.0615 0.0749,0.0615 0.0412,0 0.11805,0.0272 0.17081,0.0606 0.0528,0.0333 0.1016,0.0549 0.1085,0.048 0.007,-0.007 0.17267,0.0101 0.36839,0.0377 0.36652,0.0517 0.72971,0.10097 1.13135,0.15326 0.12655,0.0165 0.23593,0.0394 0.24307,0.051 0.04,0.0647 0.0781,0.28467 0.0564,0.32531 -0.0131,0.0246 -0.022,0.16988 -0.0196,0.32282 0.002,0.15295 0.004,0.4538 0.003,0.66857 l -0.002,0.39049 -0.0641,0.0244 c -0.0377,0.0143 -0.31143,0.0213 -0.66469,0.0168 -0.33034,-0.004 -0.62014,-0.003 -0.64401,0.003 -0.0545,0.0136 -0.0594,0.14234 -0.006,0.16275 0.0217,0.008 0.0337,0.0371 0.0288,0.0695 -0.007,0.0437 -0.0388,0.0641 -0.15491,0.0979 -0.0806,0.0235 -0.13676,0.0436 -0.12486,0.0447 0.0119,0.001 0.008,0.0187 -0.009,0.0392 -0.017,0.0205 -0.0211,0.0375 -0.009,0.038 0.0119,4.6e-4 -5.6e-4,0.0184 -0.028,0.0399 -0.0468,0.037 -0.044,0.0382 0.0496,0.0223 0.3094,-0.0526 0.43385,-0.0921 0.43385,-0.13768 0,-0.0287 -0.0209,-0.0488 -0.0558,-0.0538 -0.048,-0.007 -0.0558,-0.0228 -0.0558,-0.11551 v -0.10759 l 0.79952,0.008 c 0.43973,0.004 0.79951,5e-5 0.79951,-0.0102 -10e-6,-0.0295 0.30095,-0.0216 0.73132,0.0191 0.21817,0.0206 0.5138,0.0483 0.65697,0.0614 0.14316,0.0131 0.30772,0.0309 0.36566,0.0395 l 0.10537,0.0157 v -0.18589 c 0,-0.14724 0.008,-0.18925 0.0394,-0.20122 0.0217,-0.008 0.0496,-0.009 0.062,-0.001 0.046,0.0285 0.0237,-0.0466 -0.0557,-0.18732 -0.059,-0.10444 -0.0733,-0.17112 -0.0596,-0.27688 0.0322,-0.24779 0.084,-0.30453 0.37813,-0.41446 0.13428,-0.0502 0.15563,-0.0672 0.17037,-0.13545 0.0416,-0.19274 0.19146,-0.37554 0.36709,-0.4477 0.13821,-0.0568 0.37249,-0.0511 0.50328,0.0122 0.13359,0.0647 0.28776,0.23726 0.32603,0.365 0.0576,0.19242 0.03,0.36943 -0.0867,0.5561 -0.0575,0.092 -0.0576,0.0929 -0.008,0.12372 0.033,0.0206 0.0497,0.0578 0.0497,0.11039 0,0.0436 0.0102,0.0856 0.0226,0.0933 0.0124,0.008 0.0304,0.0613 0.0399,0.11922 0.01,0.0579 0.0395,0.17009 0.0666,0.24936 0.0271,0.0793 0.0437,0.16572 0.0368,0.19211 -0.007,0.0264 -0.002,0.0542 0.01,0.0619 0.0124,0.008 0.0227,0.0383 0.0228,0.0682 5.6e-4,0.0943 0.0344,0.12595 0.0944,0.0885 0.0437,-0.0273 0.072,-0.0251 0.18129,0.0142 0.10183,0.0366 0.21458,0.0482 0.5279,0.054 0.61226,0.0115 0.8315,0.0611 1.23406,0.2795 0.19509,0.10584 0.28447,0.12677 0.86066,0.20149 0.1526,0.0198 0.19106,0.0175 0.22507,-0.0132 0.053,-0.0479 0.12332,-0.0472 0.19375,0.002 0.0379,0.0266 0.0513,0.0544 0.0413,0.0859 -0.0115,0.0362 5.6e-4,0.0501 0.0548,0.0622 0.1434,0.032 0.1609,0.042 0.20755,0.1185 0.0293,0.048 0.0478,0.1236 0.0479,0.19525 0,0.095 -0.014,0.133 -0.0755,0.20296 -0.0416,0.0473 -0.10012,0.0896 -0.13015,0.0938 -0.0823,0.0117 -0.0704,0.0838 0.0124,0.0752 0.0728,-0.008 0.0628,-0.0288 0.1551,0.32825 0.051,0.19739 0.0498,0.20523 -0.0362,0.22411 -0.0534,0.0117 -0.0752,0.0315 -0.0772,0.0701 -0.006,0.10452 0.006,0.15325 0.0437,0.17777 0.0943,0.062 0.12637,0.10711 0.15332,0.2155 0.0435,0.17493 0.0359,0.25702 -0.0309,0.33471 -0.0544,0.0632 -0.0786,0.0707 -0.26651,0.0826 -0.11368,0.007 -0.21002,0.006 -0.21407,-0.003 -0.004,-0.009 -0.0292,-0.0109 -0.0558,-0.004 -0.0267,0.007 -0.0484,1.8e-4 -0.0484,-0.015 0,-0.0583 -0.16198,-0.0286 -0.24885,0.0457 -0.0472,0.0403 -0.0937,0.0738 -0.10332,0.0744 -0.01,5.6e-4 -0.0565,-0.0254 -0.10411,-0.0578 -0.1148,-0.0779 -0.19223,-0.0607 -0.27685,0.0614 -0.0368,0.0531 -0.0772,0.0966 -0.0898,0.0966 -0.0126,0 -0.016,0.0111 -0.008,0.0248 0.008,0.0136 0.0407,0.0248 0.0717,0.0248 0.031,0 0.0627,0.006 0.0705,0.0142 0.0202,0.0202 -0.0877,0.25729 -0.11745,0.2578 -0.0136,1.8e-4 -0.0583,-0.0218 -0.0992,-0.0488 -0.0924,-0.0612 -0.11157,-0.0618 -0.11157,-0.004 0,0.0439 -0.24173,0.25466 -0.32227,0.281 -0.026,0.009 -0.0129,0.0248 0.0434,0.054 0.0443,0.023 0.0806,0.0457 0.0806,0.0505 0,0.004 -0.0447,0.0574 -0.0993,0.11713 l -0.0993,0.10849 -0.0566,-0.0708 c -0.0508,-0.0635 -0.06,-0.0667 -0.0895,-0.0312 -0.0466,0.0561 -0.28437,0.18857 -0.34,0.18937 -0.0372,5.6e-4 -0.03,0.0144 0.0357,0.0689 l 0.0822,0.0682 -0.0994,0.0799 c -0.0994,0.0798 -0.17665,0.10322 -0.17665,0.0534 0,-0.0145 -0.0836,0.0189 -0.18585,0.0744 -0.10221,0.0554 -0.20261,0.10081 -0.22312,0.10081 -0.0572,0 -0.0444,0.0374 0.0256,0.0749 0.0812,0.0435 0.0704,0.0881 -0.0435,0.18026 -0.0749,0.0606 -0.099,0.0689 -0.12854,0.0444 -0.0374,-0.031 -0.07,-0.0171 -0.34328,0.14581 -0.10127,0.0604 -0.11713,0.11322 -0.0496,0.16524 0.0406,0.0313 0.0394,0.0366 -0.0186,0.0824 -0.10013,0.0792 -0.19937,0.11397 -0.2218,0.0777 -0.0143,-0.0231 -0.0577,-0.0141 -0.17744,0.0366 -0.0872,0.037 -0.18581,0.0747 -0.21912,0.0838 l -0.0606,0.0166 0.0544,0.0544 c 0.075,0.075 0.0692,0.0954 -0.0438,0.15304 -0.11444,0.0584 -0.17453,0.0639 -0.17453,0.0161 0,-0.0273 -0.0354,-0.0241 -0.17973,0.0164 -0.0989,0.0277 -0.20484,0.0498 -0.23552,0.049 -0.0638,-0.002 -0.0735,0.0469 -0.0186,0.0925 0.0644,0.0534 0.041,0.0932 -0.0788,0.13402 -0.14301,0.0487 -0.15673,0.0489 -0.15673,0.002 0,-0.0455 0.007,-0.0455 -0.23342,3.8e-4 -0.10793,0.0206 -0.2167,0.031 -0.24171,0.0231 -0.0556,-0.0177 -0.0579,0.017 -0.007,0.11453 0.0427,0.0826 0.0446,0.0809 -0.13386,0.11963 -0.0967,0.021 -0.10953,0.0184 -0.12065,-0.0241 -0.011,-0.0419 -0.0362,-0.0476 -0.21408,-0.0479 -0.1109,-1.9e-4 -0.22799,-0.007 -0.26021,-0.016 -0.0565,-0.0151 -0.058,-0.012 -0.0412,0.0871 l 0.0174,0.10278 h -0.13853 c -0.0986,0 -0.13853,-0.01 -0.13853,-0.0329 0,-0.0217 -0.07,-0.0458 -0.20453,-0.0706 -0.11249,-0.0207 -0.22534,-0.0466 -0.25077,-0.0576 -0.0468,-0.0202 -0.0464,-5.6e-4 0.003,0.13009 0.008,0.0226 -0.029,0.031 -0.13976,0.031 -0.11127,0 -0.15139,-0.009 -0.15139,-0.0338 0,-0.0229 -0.0613,-0.0437 -0.19054,-0.0645 -0.1048,-0.0169 -0.20645,-0.0369 -0.22591,-0.0443 -0.028,-0.0107 -0.0318,0.003 -0.0182,0.0645 l 0.0172,0.0781 h -0.13832 c -0.10186,0 -0.13832,-0.009 -0.13832,-0.0346 0,-0.0244 -0.0621,-0.0439 -0.21183,-0.0661 -0.11651,-0.0173 -0.21757,-0.0408 -0.22458,-0.0521 -0.0321,-0.052 -0.0537,-0.0128 -0.0329,0.0598 0.0127,0.0443 0.023,0.0833 0.023,0.0868 0,0.003 -0.0681,0.006 -0.15139,0.006 -0.11609,0 -0.14844,-0.008 -0.1387,-0.0331 0.009,-0.0245 -0.0398,-0.0414 -0.18948,-0.0653 -0.1112,-0.0177 -0.22276,-0.0428 -0.24791,-0.0558 -0.0464,-0.024 -0.0461,-0.005 0.002,0.12317 0.009,0.0227 -0.0288,0.031 -0.13898,0.031 -0.11422,0 -0.1476,-0.008 -0.13812,-0.0326 0.009,-0.0239 -0.0425,-0.0413 -0.19291,-0.0652 -0.11297,-0.0179 -0.2211,-0.0451 -0.24028,-0.0604 -0.0293,-0.0233 -0.0321,-0.0127 -0.0175,0.0652 l 0.0174,0.093 h -0.1491 c -0.11166,0 -0.14601,-0.008 -0.1368,-0.0321 0.009,-0.0228 -0.0382,-0.0407 -0.16238,-0.062 -0.22611,-0.0388 -0.21837,-0.04 -0.20461,0.032 0.0115,0.0601 0.008,0.062 -0.12593,0.062 -0.12697,0 -0.20593,-0.032 -0.13628,-0.0552 0.0162,-0.006 -0.0702,-0.0245 -0.19198,-0.0423 -0.12182,-0.0178 -0.23544,-0.0436 -0.25248,-0.0573 -0.0383,-0.0307 -0.0407,0.002 -0.007,0.0912 l 0.0242,0.0636 h -0.14814 c -0.10657,0 -0.14813,-0.009 -0.14813,-0.0329 0,-0.0216 -0.07,-0.0458 -0.20453,-0.0705 -0.11249,-0.0207 -0.22533,-0.0466 -0.25077,-0.0576 -0.0468,-0.0202 -0.0464,-5.6e-4 0.003,0.13009 0.008,0.0227 -0.029,0.031 -0.13975,0.031 -0.10928,0 -0.1514,-0.009 -0.1514,-0.0329 0,-0.0219 -0.0709,-0.0453 -0.21169,-0.0698 l -0.2117,-0.0369 0.0153,0.0698 0.0153,0.0698 h -0.14994 c -0.11227,0 -0.14685,-0.008 -0.13766,-0.032 0.009,-0.0231 -0.0487,-0.0429 -0.20531,-0.0709 -0.11967,-0.0214 -0.23839,-0.0477 -0.26383,-0.0585 -0.0468,-0.0199 -0.0464,-1.9e-4 0.003,0.1304 0.008,0.0226 -0.029,0.031 -0.13975,0.031 -0.11127,0 -0.1514,-0.009 -0.1514,-0.0338 0,-0.0229 -0.0616,-0.0437 -0.19213,-0.0646 -0.10567,-0.017 -0.21312,-0.042 -0.23877,-0.0556 -0.0428,-0.0227 -0.0453,-0.0173 -0.0299,0.0646 l 0.0168,0.0894 h -0.13748 c -0.099,0 -0.13747,-0.009 -0.13747,-0.0336 0,-0.023 -0.0704,-0.0451 -0.22421,-0.0703 l -0.2242,-0.0368 0.0154,0.0703 0.0154,0.0703 h -0.14994 c -0.11181,0 -0.14683,-0.008 -0.13773,-0.0318 0.009,-0.0229 -0.0505,-0.0423 -0.21235,-0.0693 l -0.22456,-0.0375 0.0152,0.0693 0.0152,0.0693 h -0.13832 c -0.0984,0 -0.13833,-0.01 -0.13833,-0.0329 0,-0.0215 -0.0706,-0.0463 -0.20452,-0.0718 -0.11249,-0.0214 -0.22987,-0.047 -0.26085,-0.0569 -0.0526,-0.0168 -0.0546,-0.0136 -0.031,0.0486 0.0404,0.10637 0.0333,0.11298 -0.12263,0.11298 -0.11307,0 -0.14498,-0.008 -0.1353,-0.0331 0.009,-0.0245 -0.0421,-0.0416 -0.20022,-0.0661 -0.11709,-0.0182 -0.21863,-0.0424 -0.22564,-0.0538 -0.0329,-0.0533 -0.0603,-0.0134 -0.0454,0.0661 l 0.0163,0.0868 h -0.13911 c -0.1009,0 -0.1391,-0.009 -0.1391,-0.0338 0,-0.0229 -0.0616,-0.0437 -0.19214,-0.0646 -0.10567,-0.0169 -0.21312,-0.042 -0.23876,-0.0556 -0.0428,-0.0227 -0.0453,-0.0173 -0.0299,0.0646 l 0.0168,0.0894 h -0.14987 c -0.10322,0 -0.14794,-0.009 -0.14367,-0.0296 0.004,-0.0183 -0.0557,-0.0416 -0.15495,-0.0608 -0.2335,-0.0451 -0.24303,-0.044 -0.22918,0.0285 0.0115,0.0602 0.008,0.062 -0.12739,0.062 -0.098,0 -0.13924,-0.01 -0.13924,-0.0323 0,-0.0211 -0.0665,-0.0431 -0.19214,-0.0635 -0.10567,-0.0171 -0.2133,-0.0373 -0.23917,-0.0449 -0.0411,-0.012 -0.0451,-0.004 -0.0316,0.0635 l 0.0154,0.0772 h -0.15077 c -0.1194,0 -0.148,-0.007 -0.13741,-0.0349 0.01,-0.026 -0.0312,-0.0449 -0.16153,-0.0744 -0.0962,-0.0217 -0.18891,-0.0395 -0.20602,-0.0395 -0.0171,0 -0.045,-0.0167 -0.062,-0.0372 -0.0323,-0.039 -0.0765,-0.0505 -0.0714,-0.0186 0.002,0.0102 0.002,0.0604 0,0.11156 -0.003,0.0909 -0.005,0.0929 -0.0959,0.0901 -0.0511,-0.002 -0.11353,-0.008 -0.13865,-0.0147 z m 2.14768,-0.46891 c 0.009,-0.009 -0.012,-0.0695 -0.0455,-0.13553 -0.0335,-0.0661 -0.0609,-0.15389 -0.0609,-0.19518 0,-0.0656 -0.0149,-0.0817 -0.11776,-0.12801 -0.0648,-0.0291 -0.16445,-0.0744 -0.22152,-0.10072 -0.1252,-0.0577 -0.19232,-0.16254 -0.2154,-0.33657 -0.0145,-0.10904 -0.008,-0.14713 0.0457,-0.25225 0.0345,-0.0681 0.0627,-0.13263 0.0627,-0.14341 0,-0.0108 -0.0502,-0.0156 -0.11156,-0.0107 -0.0614,0.005 -0.11156,0.014 -0.11156,0.0202 0,0.006 -0.0122,0.09 -0.0271,0.18606 l -0.0271,0.17471 0.0739,0.0779 c 0.12858,0.13559 0.16526,0.23277 0.1651,0.43741 -9e-5,0.14249 -0.013,0.21165 -0.0553,0.29596 -0.0303,0.0605 -0.0552,0.1135 -0.0552,0.11775 0,0.0151 0.6861,0.008 0.7013,-0.008 z m 1.67298,-0.028 c -0.0675,-0.0768 -0.14308,-0.24995 -0.14308,-0.32781 0,-0.0665 -0.0143,-0.082 -0.11776,-0.12754 -0.0648,-0.0285 -0.15901,-0.073 -0.20944,-0.0988 -0.0504,-0.0258 -0.095,-0.047 -0.0992,-0.047 -0.004,1e-5 -0.007,0.092 -0.007,0.20452 0,0.16758 -0.0101,0.22154 -0.0558,0.29888 -0.0306,0.0519 -0.0558,0.1049 -0.0558,0.11776 0,0.0136 0.15232,0.0234 0.36332,0.0234 0.34401,0 0.36129,-0.002 0.32517,-0.0434 z m 1.64187,0.0293 c 0,-0.008 -0.0275,-0.0502 -0.0612,-0.0943 -0.0761,-0.0998 -0.13713,-0.24291 -0.13713,-0.32164 0,-0.0479 -0.0242,-0.0701 -0.12235,-0.11236 -0.0673,-0.029 -0.13915,-0.0526 -0.15967,-0.0526 -0.0205,0 -0.0442,-0.0111 -0.0526,-0.0248 -0.0361,-0.0585 -0.049,-0.0142 -0.0416,0.14275 0.007,0.14694 -10e-4,0.18505 -0.0661,0.30856 -0.0499,0.0948 -0.0647,0.14478 -0.0452,0.15273 0.0415,0.017 0.68591,0.0185 0.68591,0.002 z m 1.54794,-0.008 c 0.008,-0.0123 -0.0196,-0.0859 -0.0605,-0.16365 -0.0409,-0.0777 -0.0743,-0.17426 -0.0743,-0.21453 0,-0.0655 -0.0149,-0.0796 -0.14254,-0.13417 -0.0784,-0.0335 -0.16192,-0.072 -0.1856,-0.0854 -0.0237,-0.0134 -0.046,-0.0245 -0.0496,-0.0245 -0.003,0 -0.003,0.053 0.002,0.11785 0.005,0.0689 -0.009,0.16419 -0.0333,0.22934 -0.0228,0.0613 -0.046,0.1533 -0.0515,0.20443 l -0.0101,0.093 h 0.29598 c 0.16279,0 0.3022,-0.0101 0.3098,-0.0224 z m 1.69969,0.009 c 0,-0.007 -0.023,-0.0381 -0.0512,-0.0682 -0.0651,-0.0695 -0.11592,-0.17741 -0.14054,-0.29812 -0.0204,-0.10008 -0.0426,-0.1183 -0.26688,-0.21903 -0.0682,-0.0306 -0.13232,-0.06 -0.14254,-0.0652 -0.0102,-0.005 -0.0186,0.0727 -0.0186,0.17323 0,0.13074 -0.0134,0.20911 -0.0472,0.27534 -0.047,0.0922 -0.047,0.0928 0.006,0.15354 0.0512,0.0585 0.0658,0.061 0.35709,0.0614 0.16703,2.9e-4 0.30368,-0.006 0.30368,-0.013 z m 1.52641,-0.0194 c 0.007,-0.0181 -0.0213,-0.0973 -0.0628,-0.17605 -0.0414,-0.0788 -0.0754,-0.17458 -0.0754,-0.21288 0,-0.0576 -0.0185,-0.0786 -0.10699,-0.12144 -0.0589,-0.0285 -0.12512,-0.0518 -0.14728,-0.0518 -0.0221,0 -0.0472,-0.0111 -0.0556,-0.0248 -0.0388,-0.0627 -0.062,-0.0113 -0.062,0.13734 0,0.11212 -0.015,0.19151 -0.0486,0.25742 -0.0409,0.0802 -0.0439,0.10551 -0.0186,0.15995 0.0296,0.0638 0.0335,0.0647 0.2973,0.0649 0.19903,1.9e-4 0.2705,-0.008 0.27988,-0.0326 z m 1.63824,-0.005 c 0.008,-0.021 -0.003,-0.0574 -0.0242,-0.081 -0.0581,-0.0642 -0.13956,-0.25617 -0.14018,-0.33026 -4.7e-4,-0.0552 -0.0205,-0.0732 -0.13069,-0.11807 -0.0716,-0.0291 -0.15898,-0.0679 -0.1942,-0.0863 l -0.064,-0.0333 v 0.17881 c 0,0.1464 -0.0117,0.19968 -0.0644,0.29397 -0.0602,0.10777 -0.0613,0.11516 -0.0167,0.11516 0.0262,0 0.0616,0.0223 0.0786,0.0496 0.0277,0.0444 0.0578,0.0496 0.28608,0.0496 0.20665,0 0.2579,-0.007 0.26975,-0.0381 z m 1.67972,0.017 c 0.007,-0.0116 -0.0154,-0.059 -0.0503,-0.10536 -0.075,-0.0999 -0.10685,-0.17455 -0.12925,-0.30314 -0.0156,-0.0896 -0.0262,-0.099 -0.19007,-0.1689 -0.0954,-0.0407 -0.20002,-0.0984 -0.23239,-0.12821 l -0.0589,-0.0542 0.0197,0.062 c 0.0337,0.10584 0.0191,0.38381 -0.0247,0.46843 -0.0274,0.053 -0.0353,0.10617 -0.0244,0.16443 l 0.0162,0.0861 h 0.33045 c 0.18175,0 0.33633,-0.01 0.3435,-0.0211 z m -13.09979,-0.0155 c 0,-0.006 -0.022,-0.0479 -0.0489,-0.0922 -0.0269,-0.0442 -0.0559,-0.12742 -0.0646,-0.18493 -0.0161,-0.10728 -0.0575,-0.14205 -0.23194,-0.19488 -0.18624,-0.0564 -0.29002,-0.18541 -0.31406,-0.39042 -0.013,-0.1107 -0.006,-0.14812 0.0509,-0.25381 l 0.0661,-0.12395 -0.0935,-0.008 c -0.067,-0.006 -0.13734,-0.0425 -0.24864,-0.12995 l -0.15519,-0.12196 -0.0503,0.0541 c -0.0277,0.0298 -0.0504,0.069 -0.0504,0.0874 0,0.0183 -0.0167,0.0397 -0.0372,0.0476 -0.0205,0.008 -0.0372,0.0289 -0.0372,0.0468 0,0.0178 -0.0139,0.0371 -0.031,0.0428 -0.0215,0.007 -0.0289,0.0592 -0.0243,0.16911 0.009,0.2128 -0.0491,0.38936 -0.16893,0.51406 -0.0522,0.0543 -0.10954,0.10415 -0.12745,0.11076 -0.11952,0.0441 0.46393,0.2859 0.87232,0.36152 0.37815,0.07 0.69415,0.10011 0.69415,0.0661 z m 14.42022,-0.23816 c 0.1204,-0.0421 0.29141,-0.11033 0.38004,-0.15178 0.0886,-0.0414 0.21907,-0.10192 0.28988,-0.13439 0.0708,-0.0324 0.13435,-0.0681 0.14121,-0.0792 0.007,-0.0111 -0.0381,-0.0692 -0.0999,-0.12909 -0.11074,-0.10731 -0.20724,-0.26107 -0.20724,-0.33021 0,-0.024 -0.0537,-0.0455 -0.16733,-0.0669 -0.092,-0.0173 -0.20082,-0.0455 -0.24172,-0.0626 -0.0711,-0.0296 -0.18593,-0.15654 -0.18593,-0.20535 0,-0.0389 -0.0702,-0.0532 -0.25968,-0.0532 -0.12241,0 -0.18495,0.0101 -0.19263,0.031 -0.006,0.0171 -0.009,0.11841 -0.005,0.22525 0.006,0.16577 0.0139,0.19965 0.0588,0.23107 0.0289,0.0202 0.0857,0.0946 0.12621,0.16522 0.0614,0.10704 0.0737,0.15594 0.0739,0.29412 9e-5,0.0912 -0.011,0.19527 -0.0247,0.2314 -0.0512,0.13469 0.009,0.14132 0.31429,0.0347 z m -14.39543,-0.58055 c 0,-0.0205 -0.0111,-0.0372 -0.0248,-0.0372 -0.0136,0 -0.0248,0.0167 -0.0248,0.0372 0,0.0205 0.0111,0.0372 0.0248,0.0372 0.0136,0 0.0248,-0.0167 0.0248,-0.0372 z m 1.75374,-0.0434 c 0.0525,-0.0565 0.0807,-0.20649 0.0486,-0.25843 -0.01,-0.0156 -0.011,-0.0489 -0.003,-0.074 0.013,-0.0408 0.0102,-0.0404 -0.0258,0.004 -0.0222,0.0272 -0.0581,0.11094 -0.0798,0.18593 -0.0217,0.075 -0.0447,0.1503 -0.0511,0.16734 -0.0195,0.0516 0.0559,0.0347 0.11114,-0.0248 z m 0.88631,-0.0496 c -0.0132,-0.0893 -0.002,-0.13089 0.0703,-0.2727 l 0.0859,-0.16734 h -0.14352 c -0.10026,0 -0.14755,0.0105 -0.15687,0.0348 -0.007,0.0191 -0.006,0.0421 0.003,0.0509 0.009,0.009 0.0179,0.0936 0.0201,0.18816 0.003,0.14801 0.0121,0.17883 0.0627,0.22095 0.0323,0.0269 0.0622,0.0493 0.0665,0.0498 0.004,4.7e-4 5.6e-4,-0.0466 -0.008,-0.10453 z m 0.7499,0.0248 c 0.0525,-0.0565 0.0807,-0.20648 0.0486,-0.25842 -0.01,-0.0156 -0.0103,-0.0489 -0.002,-0.074 0.013,-0.0368 0.01,-0.0398 -0.0165,-0.0154 -0.0378,0.035 -0.14779,0.3573 -0.13143,0.38501 0.0185,0.0314 0.0468,0.021 0.10077,-0.0372 z m 3.2578,-0.16329 c 0.005,-0.0591 0.002,-0.11186 -0.006,-0.11718 -0.0454,-0.028 -0.18954,0.26141 -0.1567,0.31454 0.008,0.0124 0.0454,-0.003 0.0838,-0.0336 0.053,-0.0426 0.0721,-0.0822 0.0792,-0.16374 z m 0.84305,0.0965 c -0.007,-0.0986 0.006,-0.15205 0.0682,-0.27346 0.0422,-0.083 0.0767,-0.15612 0.0767,-0.16253 0,-0.006 -0.0602,-0.0116 -0.1337,-0.0116 -0.15879,0 -0.16616,0.0114 -0.14751,0.22771 0.007,0.0861 0.0142,0.17263 0.0152,0.19228 10e-4,0.0196 0.0304,0.0611 0.0657,0.0922 0.0352,0.031 0.064,0.0568 0.064,0.0572 0,4.7e-4 -0.004,-0.0544 -0.008,-0.12178 z m 4.85928,-0.0234 c -0.007,-0.12277 0.004,-0.17015 0.0669,-0.29754 l 0.0752,-0.15151 h -0.14749 c -0.16291,0 -0.15565,-0.01 -0.14809,0.19833 0.008,0.22584 0.0134,0.24511 0.0874,0.32233 0.0392,0.0409 0.0719,0.0743 0.0728,0.0744 0.001,3e-5 -0.002,-0.0657 -0.007,-0.14598 z m -8.10251,0.0158 c -0.008,-0.0807 0.007,-0.14016 0.0624,-0.25411 l 0.0728,-0.14875 -0.11163,-0.008 c -0.0614,-0.004 -0.11707,-0.002 -0.12371,0.004 -0.019,0.019 -0.0246,0.16614 -0.007,0.17717 0.009,0.006 0.0181,0.0627 0.0205,0.12719 0.003,0.0684 0.0214,0.13598 0.0451,0.16218 0.0224,0.0247 0.0431,0.0449 0.0462,0.0449 0.003,0 10e-4,-0.0474 -0.005,-0.10536 z m 0.73753,0.0496 c 0.0563,-0.049 0.064,-0.0746 0.0635,-0.21069 -3.8e-4,-0.0852 -0.009,-0.15495 -0.0189,-0.15495 -0.0205,0 -0.11694,0.24614 -0.13824,0.35264 -0.0167,0.0834 0.009,0.0869 0.0937,0.013 z m 3.2391,3e-5 c 0.0487,-0.0524 0.0645,-0.13324 0.0585,-0.29896 -0.004,-0.10611 -0.0423,-0.0593 -0.10338,0.12569 -0.0303,0.0919 -0.0603,0.18102 -0.0666,0.19806 -0.019,0.0515 0.0561,0.0348 0.11141,-0.0248 z m 1.59855,-0.0155 c 0.0587,-0.0622 0.0666,-0.0892 0.0619,-0.21062 -0.003,-0.0791 -0.0161,-0.13601 -0.0302,-0.13169 -0.0271,0.008 -0.13406,0.30054 -0.13547,0.37024 -10e-4,0.0615 0.0264,0.054 0.10378,-0.0279 z m 1.60235,-0.009 c 0.0579,-0.0493 0.0656,-0.0738 0.0656,-0.21073 4e-5,-0.0852 -0.007,-0.15494 -0.0158,-0.15494 -0.0336,0 -0.1449,0.29924 -0.14531,0.39046 -1.9e-4,0.0442 0.0208,0.0387 0.0955,-0.0248 z m 1.6557,-0.008 c 0.0599,-0.0646 0.0952,-0.24851 0.0528,-0.27472 -0.0118,-0.007 -0.01,-0.0273 0.004,-0.0444 0.0142,-0.0171 0.0185,-0.0383 0.01,-0.0472 -0.0279,-0.0279 -0.0842,0.0773 -0.13034,0.24359 -0.0563,0.20298 -0.0399,0.23453 0.0637,0.12275 z m -7.23001,-0.0543 c 5e-5,-0.0511 0.0285,-0.14875 0.0631,-0.21692 l 0.063,-0.12396 -0.0693,-0.0157 c -0.1645,-0.0371 -0.1611,-0.0412 -0.1529,0.183 0.007,0.18774 0.0288,0.2631 0.0774,0.26556 0.0102,5.6e-4 0.0186,-0.0409 0.0187,-0.092 z m 3.30545,-0.26031 0.0654,-0.14255 h -0.1086 c -0.12572,0 -0.13598,0.0154 -0.12371,0.18623 0.0137,0.18957 0.0233,0.24654 0.0484,0.28585 0.017,0.0265 0.0271,0.006 0.0381,-0.0754 0.008,-0.0614 0.0444,-0.17571 0.0804,-0.25411 z m 1.61075,-0.0171 c 0.0367,-0.0741 0.0667,-0.13828 0.0667,-0.14254 0,-0.004 -0.0558,-0.008 -0.12395,-0.008 -0.0815,0 -0.12467,0.0106 -0.12602,0.031 -10e-4,0.0171 -0.005,0.0561 -0.008,0.0867 -0.0106,0.096 0.0296,0.32927 0.0641,0.37104 0.0286,0.0346 0.0348,0.0238 0.0468,-0.0819 0.008,-0.067 0.0439,-0.18246 0.0806,-0.25659 z m -13.21986,0.006 c 0.0249,-0.0399 0.0235,-0.0625 -0.008,-0.12097 -0.14342,-0.26801 -0.16719,-0.32464 -0.16719,-0.39835 0,-0.082 -5.6e-4,-0.0826 -0.11854,-0.0826 -0.11844,0 -0.11858,9e-5 -0.15031,0.10757 -0.0174,0.0592 -0.0283,0.14006 -0.024,0.17974 0.007,0.0625 -5.6e-4,0.0721 -0.0542,0.0721 -0.0587,0 -0.063,-0.01 -0.082,-0.18426 -0.011,-0.10136 -0.0347,-0.19618 -0.0527,-0.21073 -0.018,-0.0145 -0.0449,-0.0488 -0.0598,-0.076 -0.0266,-0.0486 -0.0271,-0.0485 -0.0279,0.004 -10e-4,0.0641 -0.0602,0.063 -0.10775,-0.002 -0.0432,-0.059 -0.12639,-0.0412 -0.13644,0.0292 -0.01,0.07 -0.10364,0.0782 -0.10364,0.009 0,-0.0606 -0.0544,-0.10508 -0.0965,-0.079 -0.0237,0.0147 0.095,0.14761 0.4249,0.47581 0.25179,0.25051 0.50624,0.49256 0.56545,0.53789 l 0.10766,0.0824 0.03,-0.14739 c 0.0166,-0.0811 0.0439,-0.16948 0.0607,-0.19648 z m 18.79227,-0.12212 c 0.16649,-0.13081 0.1889,-0.16284 0.0568,-0.0812 l -0.0899,0.0556 -0.0408,-0.054 c -0.0331,-0.0438 -0.0561,-0.051 -0.12221,-0.0377 -0.0617,0.0124 -0.0777,0.0259 -0.0659,0.0563 0.009,0.022 0.0217,0.0707 0.0293,0.10819 0.008,0.0375 0.03,0.0682 0.05,0.0682 0.0199,0 0.10217,-0.0519 0.18283,-0.11522 z m -1.32923,-0.17608 c 0.062,-0.0719 0.0668,-0.20192 0.0101,-0.27029 -0.0149,-0.018 -0.0207,-0.0496 -0.0128,-0.0703 0.008,-0.0206 0.005,-0.0375 -0.006,-0.0375 -0.0247,0 -0.077,0.24717 -0.077,0.3636 0,0.1003 0.0104,0.10205 0.086,0.0145 z m -16.84697,-0.0745 c 0.0376,-0.0375 0.0637,-0.0822 0.058,-0.0992 -0.006,-0.017 0.007,-0.0376 0.029,-0.0459 0.0216,-0.008 0.0393,-0.0253 0.0393,-0.0378 0,-0.0464 -0.36914,0.18495 -0.3711,0.2326 -4.7e-4,0.0102 0.0392,0.0186 0.0879,0.0186 0.0637,0 0.10789,-0.0192 0.15697,-0.0683 z m 18.83946,-0.29968 0.066,-0.0581 -0.0992,0.0564 c -0.12278,0.0699 -0.26137,0.18676 -0.24311,0.20502 0.0127,0.0128 0.12334,-0.0687 0.27629,-0.20337 z m 2.6151,-1.15425 c 0.0156,-0.0405 -0.003,-0.0644 -0.0493,-0.0644 -0.0182,0 -0.0331,0.0223 -0.0331,0.0496 0,0.0564 0.0622,0.0675 0.0824,0.0148 z m -0.16178,-1.59122 c 0.0103,-0.0725 -0.0569,-0.12586 -0.10656,-0.0846 -0.0391,0.0324 -0.0495,0.10339 -0.0196,0.13327 0.035,0.035 0.11884,0.003 0.12618,-0.0487 z m -4.22344,-1.36498 c -0.006,-0.0634 -0.02,-0.1275 -0.0311,-0.14255 -0.0112,-0.015 -0.0224,-0.0602 -0.0249,-0.10033 -0.003,-0.0402 -0.0166,-0.0804 -0.0312,-0.0894 -0.0146,-0.009 -0.0244,-0.032 -0.0218,-0.051 0.0138,-0.0986 -0.004,-0.1425 -0.0692,-0.16506 -0.0375,-0.0131 -0.10597,-0.0591 -0.15215,-0.10232 -0.0462,-0.0432 -0.088,-0.0745 -0.0929,-0.0696 -0.0168,0.0168 0.07,0.27766 0.11926,0.35822 0.028,0.0458 0.0698,0.0806 0.0968,0.0806 0.0266,0 0.0476,0.0171 0.0476,0.0387 0,0.0213 -0.0111,0.0318 -0.0248,0.0233 -0.0489,-0.0302 -0.0233,0.0456 0.0638,0.18888 0.0487,0.0802 0.0982,0.14579 0.10998,0.14579 0.0118,0 0.0166,-0.0519 0.0106,-0.1152 z m -0.24635,-0.35583 c -0.008,-0.0136 0.002,-0.0248 0.0219,-0.0248 0.0205,0 0.0441,0.0111 0.0525,0.0248 0.008,0.0136 -0.002,0.0248 -0.0219,0.0248 -0.0205,0 -0.0441,-0.0111 -0.0525,-0.0248 z m -6.12328,-2.65743 c -0.002,-0.0299 -0.0171,-0.0587 -0.0331,-0.064 -0.0358,-0.012 -0.0367,0.008 -0.003,0.0705 0.0332,0.0619 0.0413,0.0605 0.0364,-0.006 z m 0.2602,-0.0478 c 0,-0.012 -0.0167,-0.0218 -0.0372,-0.0218 -0.0214,0 -0.0372,0.0224 -0.0372,0.0526 0,0.044 0.006,0.0475 0.0372,0.0217 0.0205,-0.0169 0.0372,-0.0407 0.0372,-0.0526 z"
       id="B-AVRE"
       style="stroke-width:0.0936984" />
  </g>
</svg>
