<?xml version="1.0" encoding="UTF-8" standalone="no"?>
<!-- Created with Inkscape (http://www.inkscape.org/) -->

<svg
   width="13.94839mm"
   height="3.5941401mm"
   viewBox="0 0 13.94839 3.5941401"
   version="1.1"
   id="svg19336"
   sodipodi:docname="inkporter-svg-aga9wtur.svg"
   xmlns:inkscape="http://www.inkscape.org/namespaces/inkscape"
   xmlns:sodipodi="http://sodipodi.sourceforge.net/DTD/sodipodi-0.dtd"
   xmlns="http://www.w3.org/2000/svg"
   xmlns:svg="http://www.w3.org/2000/svg">
  <sodipodi:namedview
     id="namedview19338"
     pagecolor="#ffffff"
     bordercolor="#666666"
     borderopacity="1.0"
     inkscape:pageshadow="2"
     inkscape:pageopacity="0.0"
     inkscape:pagecheckerboard="0"
     inkscape:document-units="mm"
     showgrid="false"
     inkscape:zoom="0.45291836"
     inkscape:cx="569.63908"
     inkscape:cy="577.36675"
     inkscape:window-width="1920"
     inkscape:window-height="1017"
     inkscape:window-x="-8"
     inkscape:window-y="-8"
     inkscape:window-maximized="1"
     inkscape:current-layer="layer1" />
  <defs
     id="defs19333" />
  <g
     inkscape:label="Layer 1"
     inkscape:groupmode="layer"
     id="layer1"
     transform="translate(-179.37745,-92.25502)">
    <g
       id="B-Boys"
       transform="translate(-306.90716,-454.01228)">
      <path
         id="rect25553-3"
         d="m 490.09215,548.65283 -0.46922,0.11832 0.0625,0.24805 h -3.21373 v -0.11523 h -0.18709 v 0.36071 h 0.18709 v -0.12351 h 2.55177 l -0.45939,0.65577 0.0558,0.0393 0.42582,-0.6072 v 0.16899 h 1.95027 v -0.28837 h -0.28112 v -0.0904 h -0.5302 z" />
      <path
         id="path78381-2-9-9"
         d="m 491.64605,548.23796 -0.0811,0.004 -0.0801,0.0279 -0.0713,0.0512 -0.0429,0.0532 -0.0414,0.0579 -0.0206,0.0734 -0.01,0.0687 0.004,0.076 -0.0249,0.0341 -0.0837,0.0429 0.17468,-0.014 0.0279,0.0372 -0.007,0.13951 0.0579,0.003 0.0455,0.091 0.018,0.018 -0.0124,0.11422 0.0249,0.0635 -0.062,0.10747 -0.10181,0.0811 -0.108,-0.005 -0.11266,-0.0249 -0.11472,-0.032 -0.11989,-0.0703 -0.11419,-0.019 -0.076,-0.076 h -0.11266 l -0.15193,0.0444 -0.0506,0.0755 -0.005,0.0827 0.10594,0.0114 v 0.0563 l -0.12144,-0.003 -0.009,-0.0185 v 0.41498 l 0.83973,0.007 0.15142,0.0496 0.0703,-0.0124 0.16949,-0.0687 0.10181,-0.0636 0.15192,-0.077 0.0755,0.0135 0.18344,0.0444 0.17621,0.0315 0.18346,0.076 2.71767,0.007 0.1638,-0.007 0.12661,-0.0827 0.1447,-0.0884 0.1974,-0.0387 0.21498,-0.0936 -0.014,-0.13383 0.0315,0.0636 0.0388,-0.0124 0.10747,-0.0563 h 0.12663 l 0.0636,0.0507 0.0868,0.0816 0.0579,0.0563 v 0.12145 l 0.0249,0.12507 0.076,0.014 0.0315,-0.0265 0.0315,-0.10747 0.006,-0.12663 -0.0249,-0.12557 -0.062,-0.12661 -0.0388,-0.0635 0.032,-0.0249 v -0.0951 l -0.0196,-0.13901 -0.0506,-0.0124 h -0.19584 l -0.30851,0.0884 -0.0775,-0.0249 h -0.0744 l -0.0899,-0.007 -0.13229,0.019 -0.0951,0.0693 -0.11988,0.10179 -0.21497,0.0951 -0.18862,0.0124 -0.20982,0.006 -0.22735,-0.0249 -0.22016,-0.076 -0.25374,-0.17106 -0.20825,-0.063 0.006,-0.0569 0.0388,-0.0811 0.0259,-0.15295 -0.22841,-0.11317 -0.27697,-0.0827 -0.21497,-0.007 -0.0951,0.0579 -0.0703,0.1075 -0.15711,0.0883 h -0.0703 l 0.0124,-0.0444 0.019,-0.1447 -0.0124,-0.0951 -0.13229,-0.0388 -0.22736,-0.0315 -0.1266,-0.0315 -0.12713,-0.0951 -0.11266,-0.0305 -0.11473,0.0496 0.0124,0.13898 -0.003,0.0496 -0.13382,0.005 -0.006,-0.018 -0.0135,-0.0506 -0.0305,-0.0537 -0.0357,-0.0481 -0.0636,-0.0403 -0.0646,-0.0249 z m 0.42376,0.26046 v 0.0357 l -0.0992,0.11835 -0.0265,-0.0372 0.0151,-0.0424 z m -1.48931,0.86402 0.12244,0.0124 0.0703,0.0439 0.0372,0.076 0.12661,0.0755 0.1447,0.11885 -0.51779,-0.0164 z" />
      <path
         d="m 497.70582,547.06545 -0.0482,-0.0207 -0.0248,-0.0303 -0.0234,-0.1006 -0.0138,-0.04 -0.0427,-0.0234 0.0427,-0.14745 -0.18879,-0.0579 0.0937,-0.0276 0.0358,-0.0455 0.003,-0.0344 c 0,0 0.006,-0.0248 0.0124,-0.0413 0.022,-0.0413 0.0152,-0.0345 0.0165,-0.0372 l 0.0345,-0.0565 0.0441,-0.0496 0.0496,-0.0413 0.0661,-0.0344 0.0978,-0.01 0.073,0.007 0.0937,0.0275 0.0675,0.0496 0.0496,0.0661 0.0289,0.0785 0.0152,0.0565 0.001,0.0551 0.13367,0.0358 -0.15572,0.0441 -0.0179,0.0593 0.22325,0.04 0.12677,0.0744 h 0.0427 l 0.15296,-0.14331 0.13229,-0.0689 0.3073,0.21222 v 0.0786 l 0.27561,0.34451 -0.0579,0.12678 -0.12678,0.12265 0.0786,0.14882 v 0.0579 l 0.0372,0.1006 0.1061,0.0634 0.11163,0.2384 0.0579,0.19017 0.0262,0.15434 -0.0786,0.0744 -0.12264,0.0317 -0.0262,0.0951 -0.0358,0.0675 -0.0331,0.39136 0.0524,0.0648 0.2012,-10e-4 0.0565,0.0482 0.14332,-0.0345 c 0,0 0.0675,-0.0744 0.12402,-0.0882 0.0551,-0.0138 0.16399,-0.005 0.16399,-0.005 l 0.04,0.16261 -0.022,0.0372 0.0152,0.091 c 0,0 0.0799,0.11437 0.0868,0.14882 0.008,0.0345 0.0248,0.10473 0.0248,0.14883 -10e-4,0.0455 -0.0193,0.12678 -0.0193,0.12678 0,0 -0.11851,0.0138 -0.15296,-10e-4 -0.0358,-0.0165 -0.0854,-0.0937 -0.0992,-0.11438 -0.0124,-0.0193 0.003,-0.14745 0.003,-0.14745 l -0.0345,-0.0841 -0.16399,0.0275 -0.0978,0.0138 -0.0482,0.1185 -0.13781,0.0524 -0.31695,0.11162 -0.16398,0.0124 -0.0882,-0.12265 -0.10748,-0.48369 -0.12265,-0.32522 -0.34313,-0.0386 -0.2949,-0.11162 0.0496,0.23151 -0.0165,0.14882 0.04,0.25219 0.0152,0.36104 0.006,0.0427 -0.21222,-0.01 -0.005,-0.0372 -0.0786,0.004 -0.0703,0.0524 -0.32246,-0.0165 -0.0358,-0.0854 0.0372,-0.0413 0.19154,-0.0193 0.15021,-0.15572 0.0331,-0.0262 -0.0275,-0.21222 -0.0262,-0.0455 -0.13918,-0.0634 -0.13092,-0.22462 -0.033,-0.2384 -0.0207,-0.31419 0.13918,-0.14056 0.67386,-0.0152 -0.24943,-0.42857 0.0634,-0.0482 -0.0648,-0.10749 -0.0234,-0.0441 -0.0289,-0.0482 -0.0482,-0.0606 -0.0579,-0.10611 -0.007,-0.0841 -0.003,-0.10335 0.01,-0.0551 -0.0689,-0.0469 z m 0,0"
         id="path78385-5-1" />
    </g>
  </g>
</svg>
