<?xml version="1.0" encoding="UTF-8" standalone="no"?>
<!-- Created with Inkscape (http://www.inkscape.org/) -->

<svg
   width="21.003281mm"
   height="7.96243mm"
   viewBox="0 0 21.003281 7.96243"
   version="1.1"
   id="svg26913"
   sodipodi:docname="inkporter-svg-5953xn1e.svg"
   xmlns:inkscape="http://www.inkscape.org/namespaces/inkscape"
   xmlns:sodipodi="http://sodipodi.sourceforge.net/DTD/sodipodi-0.dtd"
   xmlns="http://www.w3.org/2000/svg"
   xmlns:svg="http://www.w3.org/2000/svg">
  <sodipodi:namedview
     id="namedview26915"
     pagecolor="#ffffff"
     bordercolor="#666666"
     borderopacity="1.0"
     inkscape:pageshadow="2"
     inkscape:pageopacity="0.0"
     inkscape:pagecheckerboard="0"
     inkscape:document-units="mm"
     showgrid="false"
     inkscape:zoom="0.32026164"
     inkscape:cx="-131.14277"
     inkscape:cy="1047.581"
     inkscape:window-width="1920"
     inkscape:window-height="1017"
     inkscape:window-x="-8"
     inkscape:window-y="-8"
     inkscape:window-maximized="1"
     inkscape:current-layer="layer1" />
  <defs
     id="defs26910" />
  <g
     inkscape:label="Layer 1"
     inkscape:groupmode="layer"
     id="layer1"
     transform="translate(-40.90571,-325.49317)">
    <path
       d="m 44.3734,333.36682 c -0.04,-0.0482 -0.12233,-0.0877 -0.1829,-0.0877 -0.0606,0 -0.12506,-0.0389 -0.14332,-0.0865 -0.0183,-0.0476 -0.0922,-0.0865 -0.16419,-0.0865 -0.072,0 -0.16329,-0.0389 -0.20278,-0.0865 -0.0395,-0.0476 -0.11737,-0.0865 -0.17306,-0.0865 -0.0557,0 -0.13356,-0.0389 -0.17306,-0.0865 -0.0395,-0.0476 -0.10179,-0.0865 -0.13844,-0.0865 -0.0367,0 -0.12966,-0.0441 -0.20669,-0.0981 -0.077,-0.054 -0.18981,-0.10177 -0.2506,-0.10625 -0.0608,-0.005 -0.13402,-0.0501 -0.16272,-0.10139 -0.0287,-0.0513 -0.0856,-0.0804 -0.12641,-0.0648 -0.0408,0.0157 -0.12045,-0.0226 -0.17695,-0.085 -0.0565,-0.0624 -0.13366,-0.10165 -0.17144,-0.0872 -0.0378,0.0145 -0.12114,-0.0197 -0.18521,-0.076 -0.0641,-0.0563 -0.16584,-0.13042 -0.22616,-0.16472 -0.0603,-0.0343 -0.16699,-0.16409 -0.23704,-0.28843 l -0.12738,-0.22606 0.0311,-0.15864 0.0311,-0.15863 h -0.0958 c -0.1364,0 -0.38014,-0.1714 -0.38014,-0.26732 0,-0.0446 0.13405,-0.26012 0.29788,-0.47905 l 0.29787,-0.39805 0.20688,-0.0371 c 0.44309,-0.0795 1.19384,-0.26752 1.31731,-0.32989 0.1482,-0.0749 0.1714,-0.16145 0.0432,-0.16145 -0.0476,0 -0.0865,-0.0389 -0.0865,-0.0865 v -0.0865 h 0.19806 0.19807 l 0.0216,-0.15863 0.0216,-0.15863 0.0629,0.14692 0.0629,0.14693 0.40904,-0.0565 0.40904,-0.0565 0.036,-0.19188 0.036,-0.19187 0.13054,-0.0327 0.13054,-0.0327 -0.007,-0.093 -0.007,-0.093 0.43264,-0.10211 c 0.23795,-0.0562 0.44999,-0.10317 0.4712,-0.10447 0.0212,-10e-4 0.0947,0.0885 0.16334,0.19953 l 0.12478,0.20191 h 0.48562 0.48562 v -0.0577 c 0,-0.0317 -0.0649,-0.0577 -0.14421,-0.0577 h -0.14421 v -0.0899 c 0,-0.0495 -0.0217,-0.0765 -0.0483,-0.0601 -0.0578,0.0358 -0.0471,-0.26148 0.0129,-0.35863 l 0.0422,-0.0682 h -0.22261 c -0.12244,0 -0.24753,-0.0249 -0.278,-0.0554 l -0.0554,-0.0554 -2.55505,-0.007 -2.55505,-0.007 0.0175,-0.22884 0.0175,-0.22884 2.03341,0.005 2.03341,0.005 v -0.059 -0.0591 h 0.41349 c 0.44652,0 1.14402,-0.10208 1.14402,-0.16744 0,-0.0221 -0.0305,-0.0707 -0.0677,-0.10788 l -0.0677,-0.0677 0.0677,-0.14849 c 0.0372,-0.0817 0.0677,-0.30303 0.0677,-0.49189 v -0.3434 h 0.0577 0.0577 v 0.29484 0.29485 l 0.21619,-0.0406 c 0.11891,-0.0223 0.23341,-0.0684 0.25447,-0.10249 0.0211,-0.034 0.12765,-0.0586 0.23689,-0.0545 l 0.19863,0.007 -0.0276,-0.14422 -0.0276,-0.14422 0.18638,0.0329 c 0.10251,0.018 0.21627,0.008 0.2528,-0.0223 0.0365,-0.0303 0.24363,-0.0616 0.46024,-0.0694 l 0.39382,-0.0143 0.0421,0.0682 0.0421,0.0682 0.18507,-0.037 0.18506,-0.037 0.11789,-0.16557 c 0.11713,-0.1645 0.30139,-0.21827 0.36962,-0.10787 0.0196,0.0317 0.13795,0.0577 0.26298,0.0577 0.12505,0 0.22734,0.0259 0.22734,0.0577 0,0.0317 -0.0779,0.0577 -0.17305,0.0577 -0.0952,0 -0.17307,0.0195 -0.1731,0.0432 -2e-5,0.0344 0.24836,0.0443 0.46843,0.0186 0.0196,-0.002 0.0326,-0.0496 0.0288,-0.10512 -0.004,-0.0555 0.0169,-0.11393 0.046,-0.1298 0.0291,-0.0159 0.0572,0.0296 0.0625,0.10093 0.0138,0.18699 0.0653,0.2147 0.21574,0.11611 0.073,-0.0478 0.2361,-0.0991 0.36234,-0.11385 0.12623,-0.0148 0.27149,-0.0455 0.32279,-0.0682 l 0.0933,-0.0414 0.17629,0.17629 c 0.26763,0.26764 0.2854,0.24814 0.29947,-0.32846 l 0.005,-0.18748 h 0.0835 0.0834 l -0.006,0.21632 c -0.003,0.11897 0.004,0.26824 0.0157,0.33169 l 0.0212,0.11537 0.49033,0.0288 0.49032,0.0288 -0.0191,0.19038 c -0.0105,0.10471 0.0128,0.22878 0.0517,0.27571 l 0.0708,0.0853 -0.0662,0.14522 -0.0662,0.14522 v 0.4884 0.48839 l 0.0668,0.10695 0.0668,0.10694 -0.0474,0.10859 c -0.026,0.0597 -0.0496,0.13455 -0.0524,0.16628 l -0.005,0.0577 -0.41822,0.0169 -0.41822,0.017 v 0.0541 0.0541 l 0.90855,-0.007 c 0.4997,-0.004 0.86154,-0.0184 0.80409,-0.0327 l -0.10446,-0.0259 0.0392,-0.18257 c 0.0561,-0.26167 0.078,-0.28297 0.26314,-0.2558 l 0.16622,0.0244 v -0.0698 -0.0698 l 0.17633,0.0138 c 0.097,0.008 0.20601,0.0435 0.24228,0.0798 0.0363,0.0363 0.17882,0.0659 0.31678,0.0659 h 0.25083 l 0.0793,0.18748 0.0793,0.18748 -0.12536,0.0374 c -0.0689,0.0205 0.0823,0.0367 0.33612,0.0358 0.25381,-10e-4 0.49162,-0.0255 0.52845,-0.0546 l 0.067,-0.053 0.0374,0.0605 c 0.0424,0.0687 0.52878,0.0834 0.56967,0.0172 0.0324,-0.0524 0.36918,-0.0484 0.42265,0.005 0.0568,0.0568 0.41097,0.0461 0.44783,-0.0136 l 0.032,-0.0517 0.21445,0.0484 c 0.11794,0.0266 0.62654,0.0491 1.13021,0.0501 l 0.91577,0.002 0.1958,0.12101 c 0.10769,0.0666 0.22223,0.10467 0.25454,0.0847 l 0.0587,-0.0363 v 0.0899 0.0899 h 0.43445 0.43445 l 0.0379,0.10095 c 0.0208,0.0555 0.11089,0.16977 0.20008,0.25389 l 0.16218,0.15294 -0.002,0.30854 c -0.002,0.33128 -0.0531,0.43215 -0.30053,0.59319 -0.087,0.0566 -0.14553,0.12333 -0.13011,0.14826 0.0154,0.0249 -0.0141,0.0615 -0.0655,0.0812 l -0.0935,0.0359 -0.0648,-0.0806 c -0.0356,-0.0443 -0.14265,-0.0982 -0.23783,-0.11959 l -0.17306,-0.039 0.12979,0.093 c 0.0714,0.0511 0.12979,0.13866 0.12979,0.19443 v 0.10142 l -0.20189,0.0963 c -0.11105,0.0529 -0.2019,0.12698 -0.2019,0.16451 0,0.0375 -0.0171,0.0511 -0.0381,0.0301 -0.0209,-0.0209 -0.0736,0.0127 -0.11704,0.0746 l -0.0789,0.11273 0.0342,0.13635 0.0342,0.13635 -0.0902,0.0749 c -0.0497,0.0412 -0.0902,0.11785 -0.0902,0.17036 0,0.1151 -0.32559,0.41225 -0.48543,0.44303 -0.063,0.0121 -0.13652,0.0615 -0.16349,0.10966 -0.0269,0.0482 -0.0978,0.0876 -0.15742,0.0876 -0.0596,0 -0.14873,0.0403 -0.19803,0.0896 -0.0493,0.0493 -0.14246,0.0998 -0.20702,0.11225 -0.0646,0.0124 -0.15661,0.0619 -0.20457,0.1098 -0.048,0.048 -0.12123,0.0741 -0.16282,0.0582 -0.0416,-0.0159 -0.1089,0.0111 -0.1496,0.0601 -0.0407,0.049 -0.13253,0.0892 -0.20408,0.0892 -0.0715,0 -0.1624,0.0389 -0.2019,0.0865 -0.0395,0.0476 -0.12417,0.0865 -0.18818,0.0865 -0.064,0 -0.14958,0.0455 -0.19017,0.10095 l -0.0738,0.10095 -6.65928,0.0156 -6.65929,0.0156 z m 1.72959,-0.25455 c 0,-0.0563 0.0164,-0.11874 0.0364,-0.13877 0.0657,-0.0657 0.252,0.0764 0.252,0.19228 0,0.17259 0.10518,0.13518 0.12596,-0.0448 l 0.0183,-0.15814 0.10152,-0.0192 0.10152,-0.0192 0.0355,0.1774 c 0.0376,0.1881 0.12548,0.24716 0.11373,0.0765 -0.004,-0.0555 -0.0919,-0.21619 -0.19567,-0.35704 -0.10379,-0.14084 -0.20377,-0.31607 -0.22216,-0.38937 -0.0432,-0.17219 -0.17185,-0.17175 -0.21513,5.7e-4 -0.0185,0.0737 -0.0962,0.22622 -0.17269,0.33891 l -0.13905,0.2049 0.0288,0.15074 c 0.0312,0.16336 0.13099,0.15212 0.13099,-0.0148 z m 3.00207,-0.12027 c 0.0639,0.0342 0.10417,0.0816 0.0895,0.10529 -0.0146,0.0237 -0.004,0.0801 0.0241,0.12529 l 0.0508,0.0822 0.0319,-0.0993 c 0.0176,-0.0547 0.0441,-0.13827 0.059,-0.18586 0.0441,-0.14114 0.14631,-0.0991 0.22727,0.0935 l 0.0757,0.17999 0.0643,-0.18432 0.0643,-0.18432 0.0705,0.0436 c 0.0388,0.024 0.0128,-0.0374 -0.0577,-0.13654 -0.0705,-0.0991 -0.16675,-0.27224 -0.21379,-0.38483 l -0.0855,-0.2047 -0.18051,0.0197 -0.18052,0.0198 -0.10777,0.22156 c -0.0593,0.12187 -0.16146,0.27872 -0.22708,0.34857 l -0.1193,0.12699 0.062,0.0383 c 0.0341,0.0211 0.0641,0.0952 0.0667,0.16473 l 0.005,0.12638 0.0826,-0.18907 0.0826,-0.18907 0.11618,0.0622 z m 0.97678,0.0896 c -0.0776,-0.0776 -0.1353,0.001 -0.0891,0.12137 l 0.0391,0.10182 0.0521,-0.0844 0.0522,-0.0844 z m 1.63336,0.0821 0.0302,-0.11545 -0.0523,0.0323 c -0.0288,0.0178 -0.0523,0.0697 -0.0523,0.11545 0,0.1194 0.0392,0.10237 0.0744,-0.0323 z m 0.55393,-0.23067 c 0.0649,0 0.14151,0.1069 0.15888,0.22161 0.0228,0.15073 0.0676,0.13042 0.10689,-0.0485 l 0.0398,-0.18125 0.0858,0.0329 c 0.0472,0.0181 0.0966,0.0329 0.10989,0.0329 0.0133,0 0.0241,0.0504 0.0241,0.11196 0,0.1714 0.0985,0.19394 0.13915,0.0318 0.0199,-0.0791 0.0629,-0.14382 0.0956,-0.14382 0.0327,0 -0.008,-0.0892 -0.0916,-0.19814 -0.0831,-0.10899 -0.17053,-0.27067 -0.19424,-0.35932 l -0.0431,-0.16116 -0.17944,-0.007 c -0.0987,-0.004 -0.20213,0.008 -0.22986,0.0276 -0.0912,0.063 -0.4218,0.69823 -0.3634,0.69823 0.0314,0 0.0742,0.0681 0.095,0.15125 l 0.038,0.15125 0.0757,-0.18009 c 0.0417,-0.099 0.1014,-0.18009 0.13279,-0.18009 z m 1.04453,0.29183 c 0,-0.0299 -0.0259,-0.0703 -0.0577,-0.0899 l -0.0577,-0.0356 v 0.0899 c 0,0.0495 0.0259,0.0899 0.0577,0.0899 0.0317,0 0.0577,-0.0244 0.0577,-0.0543 z m 1.61519,-0.0495 c 0,-0.0571 0.0291,-0.13295 0.0647,-0.16855 0.0975,-0.0975 0.22371,-0.0217 0.22371,0.13435 0,0.19103 0.10355,0.1741 0.12596,-0.0206 l 0.0183,-0.15864 h 0.11537 0.11537 l 0.0183,0.15864 c 0.0241,0.20939 0.10282,0.20224 0.14591,-0.0133 l 0.0344,-0.17189 0.0993,0.0381 0.0993,0.0381 -0.17831,-0.22676 c -0.0981,-0.12471 -0.19491,-0.28275 -0.2152,-0.35121 -0.0203,-0.0685 -0.0733,-0.13843 -0.11778,-0.15551 l -0.0809,-0.031 -0.064,0.19391 c -0.0352,0.10665 -0.16654,0.3104 -0.29187,0.45278 -0.22516,0.2558 -0.28239,0.38539 -0.17019,0.38539 0.0317,0 0.0577,-0.0467 0.0577,-0.10384 z m 1.21139,0.0207 c 0,-0.0457 -0.0259,-0.0992 -0.0577,-0.11878 l -0.0577,-0.0356 v 0.11878 c 0,0.0653 0.0259,0.11877 0.0577,0.11877 0.0317,0 0.0577,-0.0374 0.0577,-0.0831 z m 1.86621,-0.29335 c -0.0178,-0.0464 -0.0545,-0.0707 -0.0815,-0.054 -0.027,0.0167 -0.0346,0.0683 -0.0167,0.11471 0.0178,0.0464 0.0545,0.0707 0.0815,0.054 0.027,-0.0167 0.0346,-0.0683 0.0167,-0.1147 z m -14.15319,-0.11045 c 0,-0.014 -0.0259,-0.0415 -0.0577,-0.0611 -0.0317,-0.0196 -0.0577,-0.008 -0.0577,0.0254 0,0.0336 0.0259,0.0611 0.0577,0.0611 0.0317,0 0.0577,-0.0115 0.0577,-0.0254 z m 14.49921,-0.14762 -0.0346,-0.17306 h 0.11555 c 0.0636,0 0.15889,0.0584 0.21188,0.1298 l 0.0963,0.12979 -0.0298,-0.18563 -0.0298,-0.18562 0.0991,-0.0609 0.0991,-0.0609 -0.25958,0.0119 c -0.34939,0.016 -0.40345,0.0401 -0.46755,0.20865 l -0.0549,0.14442 0.0971,0.1073 c 0.14068,0.15544 0.19666,0.13201 0.1571,-0.0657 z m -14.78115,-0.13193 0.093,-0.12831 -0.0443,-0.11975 -0.0443,-0.11975 -0.35775,-0.13043 -0.35775,-0.13045 -0.0474,0.0486 c -0.0261,0.0267 -0.064,0.12649 -0.0844,0.22167 l -0.0369,0.17306 0.11926,-0.13602 0.11925,-0.13602 0.0913,0.035 0.0913,0.035 -0.038,0.1731 c -0.0433,0.19718 0.0244,0.22814 0.12981,0.0593 l 0.071,-0.11375 0.0924,0.0355 0.0924,0.0355 -0.0242,0.16484 c -0.0289,0.19686 0.01,0.20624 0.13537,0.0329 z m 15.56856,-0.003 c 0,-0.0109 -0.0557,-0.0693 -0.12376,-0.12979 l -0.12377,-0.10989 0.0681,0.12979 c 0.0562,0.10716 0.17942,0.1826 0.17942,0.10989 z m 1.70171,-2.11446 0.0356,-0.0577 h -0.0933 -0.0933 l 0.0356,0.0577 c 0.0196,0.0317 0.0456,0.0577 0.0577,0.0577 0.0121,0 0.0381,-0.0259 0.0577,-0.0577 z m -17.13254,-0.86528 0.11537,-0.0496 -0.28843,-0.003 -0.28842,-0.003 0.0865,0.0559 c 0.10364,0.067 0.21909,0.067 0.37496,0 z m 17.19023,-0.23074 c 0.0196,-0.0317 0.01,-0.0577 -0.022,-0.0577 -0.0317,0 -0.0737,0.0259 -0.0933,0.0577 -0.0196,0.0317 -0.01,0.0577 0.022,0.0577 0.0317,0 0.0737,-0.0259 0.0933,-0.0577 z m -6.18675,-1.07654 c -0.0397,-0.016 -0.10456,-0.016 -0.14422,0 -0.0397,0.016 -0.007,0.0291 0.0721,0.0291 0.0793,0 0.11177,-0.0131 0.0721,-0.0291 z"
       id="B-Centaur" />
  </g>
</svg>
