<?xml version="1.0" encoding="UTF-8" standalone="no"?>
<!-- Created with Inkscape (http://www.inkscape.org/) -->

<svg
   width="24.26128mm"
   height="8.6627655mm"
   viewBox="0 0 24.26128 8.6627655"
   version="1.1"
   id="svg26913"
   sodipodi:docname="inkporter-svg-zot27x9c.svg"
   xmlns:inkscape="http://www.inkscape.org/namespaces/inkscape"
   xmlns:sodipodi="http://sodipodi.sourceforge.net/DTD/sodipodi-0.dtd"
   xmlns="http://www.w3.org/2000/svg"
   xmlns:svg="http://www.w3.org/2000/svg">
  <sodipodi:namedview
     id="namedview26915"
     pagecolor="#ffffff"
     bordercolor="#666666"
     borderopacity="1.0"
     inkscape:pageshadow="2"
     inkscape:pageopacity="0.0"
     inkscape:pagecheckerboard="0"
     inkscape:document-units="mm"
     showgrid="false"
     inkscape:zoom="0.45291836"
     inkscape:cx="114.81098"
     inkscape:cy="1266.2326"
     inkscape:window-width="1920"
     inkscape:window-height="1017"
     inkscape:window-x="-8"
     inkscape:window-y="-8"
     inkscape:window-maximized="1"
     inkscape:current-layer="layer1" />
  <defs
     id="defs26910" />
  <g
     inkscape:label="Layer 1"
     inkscape:groupmode="layer"
     id="layer1"
     transform="translate(-23.3937,-475.66027)">
    <path
       d="m 29.61401,484.27414 c 0.0285,-0.0546 -0.16566,-0.23034 -0.28553,-0.25846 -0.0502,-0.0118 -0.11014,-0.0521 -0.13339,-0.0898 l -0.0423,-0.0684 -0.17028,0.0325 c -0.254,0.008 0.38585,-0.13126 -0.29258,-0.14431 -0.0647,0 -0.15373,-0.0434 -0.19773,-0.0964 -0.0439,-0.053 -0.10347,-0.0819 -0.13219,-0.0641 -0.0287,0.0177 -0.0962,-0.0117 -0.14989,-0.0655 -0.0537,-0.0538 -0.15806,-0.0977 -0.23181,-0.0977 -0.0738,0 -0.13411,-0.0292 -0.13411,-0.0647 0,-0.0356 -0.036,-0.0647 -0.0799,-0.0647 -0.14068,0 -0.7622,-0.35365 -0.73955,-0.42082 0.012,-0.0356 -0.0136,-0.14945 -0.0569,-0.25298 l -0.0787,-0.18822 0.0597,-0.23258 c 0.0329,-0.12793 0.0849,-0.29086 0.11558,-0.36206 0.10521,-0.24412 0.15284,-0.38848 0.14335,-0.43467 -0.005,-0.0255 0.0266,-0.0332 0.0706,-0.0172 l 0.0802,0.0291 0.18222,-0.25794 c 0.10021,-0.14188 0.21506,-0.25795 0.25516,-0.25795 0.0402,0 0.0163,0.0442 -0.0528,0.0981 l -0.12566,0.0981 0.17803,-0.0762 0.17804,-0.0762 v -0.21416 -0.21417 l 0.0973,0.0373 c 0.0535,0.0206 0.17002,0.019 0.25897,-0.003 l 0.1617,-0.0406 v -0.0958 c 0,-0.0528 0.0292,-0.0959 0.0647,-0.0959 0.0356,0 0.0647,0.0367 0.0647,0.0816 0,0.0448 0.0583,0.11791 0.12948,0.16239 0.0713,0.0445 0.12943,0.0587 0.12936,0.0318 -6e-5,-0.027 0.17332,-0.0393 0.38528,-0.0273 l 0.3854,0.0218 -0.0314,-0.216 -0.0314,-0.216 0.0858,-0.16185 0.0858,-0.16185 0.13721,0.0193 c 0.14998,0.0211 0.25515,-0.0829 0.14973,-0.14811 -0.0851,-0.0525 -0.086,-0.35672 -9.8e-4,-0.35672 0.0356,0 0.0574,0.0364 0.0485,0.081 l -0.0162,0.0809 0.22165,-0.0109 0.22164,-0.0109 -0.0921,0.0583 -0.0922,0.0583 0.10575,9.8e-4 0.10575,9.8e-4 0.0361,0.13807 0.0361,0.13809 0.34369,-0.0428 c 0.64715,-0.0804 0.70486,-0.0833 0.73313,-0.0376 0.0403,0.0651 0.35509,-0.004 0.35509,-0.078 0,-0.0337 -0.0801,-0.0551 -0.17803,-0.0474 -0.0979,0.008 -0.23652,0.01 -0.30799,0.004 l -0.12994,-0.01 0.0218,-0.27515 0.0218,-0.27514 0.509,0.021 0.50902,0.021 0.0372,-0.21521 c 0.0205,-0.11837 0.0441,-0.28805 0.0523,-0.37707 l 0.0152,-0.16185 -2.88095,-0.0404 c -4.18754,-0.0587 -5.34984,-0.0596 -5.86683,-0.005 l -0.461,0.0487 0.008,-0.32544 0.008,-0.32544 0.46612,-0.004 0.46613,-0.004 -0.0348,0.0564 -0.0349,0.0565 2.48206,-0.0329 c 1.36513,-0.0181 3.26036,-0.0357 4.21163,-0.0393 l 1.72959,-0.007 0.0382,-0.20662 c 0.021,-0.11363 0.0587,-0.3517 0.0838,-0.52903 l 0.0456,-0.3224 0.25364,-0.0195 0.25364,-0.0195 0.0847,-0.12089 0.0847,-0.1209 0.22909,0.0517 c 0.24177,0.0545 0.50393,0.0182 0.45382,-0.0629 -0.0163,-0.0264 0.0404,-0.0346 0.1259,-0.0183 l 0.15559,0.0297 -0.0354,-0.13533 -0.0354,-0.13531 0.80039,0.0386 c 0.8827,0.0426 0.84423,0.0431 1.14027,-0.0143 l 0.21041,-0.0408 v 0.10445 c 0,0.1205 0.0567,0.1289 0.28482,0.0422 l 0.16378,-0.0622 0.0385,0.0622 c 0.0212,0.0343 0.0822,0.0622 0.13585,0.0622 h 0.0974 l -0.0202,-0.12655 c -0.0111,-0.0696 0.009,-0.13514 0.0445,-0.14566 0.0356,-0.0109 0.0743,0.0481 0.086,0.13032 l 0.0212,0.14944 0.0922,-0.0765 0.0922,-0.0765 v -0.28347 c 0,-0.37933 0.11715,-0.36361 0.14212,0.019 l 0.0197,0.30247 0.09,0.0296 c 0.0495,0.0163 0.0743,0.004 0.0552,-0.0273 l -0.0348,-0.0569 0.29211,-0.0173 0.29212,-0.0173 -0.0398,0.10369 -0.0398,0.10368 0.0804,-0.0268 c 0.0442,-0.0147 0.11915,0.012 0.16652,0.0593 0.11541,0.11543 0.24852,0.10887 0.29589,-0.0146 l 0.0386,-0.10074 c -0.0386,0.10074 0.19883,0.18948 0.19883,0.18948 l 0.0936,-0.0137 c 0.0515,-0.008 0.11042,-0.0306 0.13097,-0.0511 0.0206,-0.0206 0.14521,-0.01 0.27702,0.0235 l 0.23966,0.0608 -0.008,0.48179 -0.008,0.48181 h 0.19101 0.19102 l -0.0283,0.0809 c -0.0156,0.0445 -0.0728,0.0731 -0.12725,0.0636 l -0.099,-0.0173 0.0601,0.30861 c 0.0331,0.16974 0.10662,0.39303 0.16354,0.49623 0.0569,0.10314 0.0709,0.16755 0.0313,0.14301 l -0.0721,-0.0446 -0.0404,0.16082 c -0.0222,0.0884 -0.0226,0.18959 -7.4e-4,0.22477 0.0218,0.0351 0.01,0.0823 -0.0262,0.10456 -0.0362,0.0224 -0.0658,0.10531 -0.0658,0.1843 0,0.079 -0.0618,0.19659 -0.13742,0.26129 l -0.13741,0.11766 -0.21866,-0.0256 -0.21866,-0.0256 v 0.20734 0.20735 l 0.32374,0.0224 0.32375,0.0224 9.8e-4,-0.097 9.7e-4,-0.0972 0.0557,0.0879 0.0557,0.0878 0.13511,-0.0429 c 0.0743,-0.0236 0.18917,-0.0139 0.25524,0.0214 l 0.12012,0.0643 -0.028,-0.19018 -0.0279,-0.19018 h 0.19774 c 0.1088,0 0.213,-0.0247 0.23163,-0.0548 0.0467,-0.0755 0.41605,-0.0799 0.46201,-0.005 0.0206,0.0332 0.18024,0.0604 0.35491,0.0604 h 0.31761 l 0.0583,0.1133 c 0.0321,0.0623 0.0429,0.157 0.0242,0.21041 l -0.0342,0.097 0.0991,-0.0817 0.0991,-0.0818 0.3235,0.0746 0.32352,0.0746 0.19957,-0.0996 0.19958,-0.0996 0.84849,-0.003 0.8485,-0.003 0.0302,0.0788 0.0303,0.0788 0.4842,0.0137 0.48419,0.0137 v -0.1319 c 0,-0.19594 0.16574,-0.48036 0.35049,-0.60141 l 0.16288,-0.10673 h 0.26468 0.26467 l 0.20874,0.14566 0.20876,0.14567 -0.002,0.23454 -0.002,0.23453 -0.0705,-0.0271 c -0.0388,-0.0149 -0.10586,0.0154 -0.1489,0.0674 l -0.0783,0.0944 0.0195,0.40514 0.0195,0.40515 0.0862,0.0285 0.0862,0.0285 -0.0214,-0.14681 -0.0214,-0.1468 0.0809,-0.0276 0.081,-0.0276 v 0.21641 0.21642 l -0.14567,0.0907 -0.14566,0.0907 0.097,-0.11803 0.0972,-0.11804 -0.0972,0.0317 c -0.0534,0.0174 -0.1063,0.10957 -0.11759,0.20475 l -0.0205,0.17305 h 0.16616 0.16615 v 0.20429 0.20429 l -0.17781,0.2327 c -0.0978,0.12799 -0.17063,0.25456 -0.16185,0.28127 0.009,0.0267 -0.0205,0.0412 -0.065,0.0324 -0.0445,-0.009 -0.0813,0.0327 -0.0817,0.0925 -4.9e-4,0.0598 -0.027,0.13264 -0.059,0.16185 l -0.0581,0.0531 0.0528,-0.0909 0.0528,-0.091 -0.0782,0.0484 -0.0782,0.0484 0.10086,0.1539 0.10085,0.15391 -0.0863,-0.0331 -0.0863,-0.0331 -0.23264,0.21309 c -0.26356,0.24142 -0.28991,0.30267 -0.16728,0.38881 l 0.0865,0.0607 -0.0972,-0.0292 c -0.0534,-0.0161 -0.0899,-0.062 -0.0809,-0.10205 0.02,-0.0902 -0.0911,-0.0964 -0.14567,-0.008 -0.022,0.0356 -0.1039,0.0648 -0.18185,0.0649 -0.078,1.3e-4 -0.23982,0.06 -0.35956,0.13298 -0.11974,0.073 -0.2336,0.11684 -0.25301,0.0974 -0.0194,-0.0194 -0.073,-0.004 -0.11921,0.0344 -0.14808,0.12289 -0.56056,0.31448 -0.61056,0.28358 -0.0267,-0.0164 -0.0651,0.0136 -0.0855,0.0668 -0.0205,0.0532 -0.10358,0.0977 -0.18482,0.0988 -0.0813,0.001 -0.20152,0.0429 -0.26729,0.0927 -0.0658,0.0498 -0.16046,0.075 -0.2104,0.0557 -0.0499,-0.0191 -0.0908,-0.01 -0.0908,0.0214 v 0.0562 l -7.05671,0.0129 -7.05669,0.0129 v -0.0661 -0.0661 l -0.0809,0.0506 c -0.10576,0.066 -0.24963,0.0871 -0.22099,0.0323 z m 1.93598,-0.49523 c -0.0208,-0.036 0.0204,-0.0146 0.0917,0.0478 0.0713,0.0623 0.16676,0.11329 0.21228,0.11329 h 0.0828 l -0.0369,-0.0962 -0.0369,-0.0962 0.12442,0.0777 c 0.0684,0.0428 0.13505,0.13698 0.14806,0.20946 l 0.0236,0.13177 0.0532,-0.11983 0.0532,-0.11984 -0.0614,-0.042 c -0.0337,-0.0232 -0.12662,-0.14937 -0.20632,-0.28057 l -0.14493,-0.23856 -0.12306,0.01 -0.12306,0.01 -0.1099,0.2437 -0.10989,0.2437 -0.0719,-0.0354 c -0.0395,-0.0195 -0.0257,0.003 0.0309,0.0503 0.0566,0.0471 0.0914,0.12942 0.0776,0.18284 -0.0138,0.0534 0.0174,0.0246 0.0695,-0.064 0.0521,-0.0886 0.0778,-0.19054 0.057,-0.22659 z m 2.5599,0.20231 -0.0293,-0.15295 0.13498,-0.084 0.13499,-0.0841 -0.0972,0.11874 -0.0972,0.11873 0.14575,-0.0375 0.14576,-0.0375 -0.0363,0.0588 c -0.0199,0.0323 -0.008,0.0587 0.0269,0.0587 0.0347,0 0.0742,-0.033 0.0876,-0.0733 l 0.0245,-0.0733 0.1395,0.0443 0.13951,0.0443 -0.0335,0.0873 c -0.0184,0.048 -0.002,0.10652 0.0359,0.13011 l 0.0693,0.0429 -0.0191,-0.11724 c -0.0109,-0.0645 -0.0994,-0.23741 -0.19766,-0.38429 l -0.17851,-0.26705 H 34.3472 c -0.0873,0 -0.15859,0.0283 -0.15859,0.0629 0,0.0346 -0.0575,0.14346 -0.12758,0.242 -0.0702,0.0986 -0.10651,0.20014 -0.0809,0.22579 0.0257,0.0257 0.0503,0.0733 0.0547,0.10597 0.0145,0.1063 0.0237,0.12409 0.0642,0.12409 0.022,0 0.0268,-0.0689 0.0109,-0.15294 z m 0.40259,0.0882 c 0,-0.0356 -0.0309,-0.0647 -0.0685,-0.0647 -0.0378,0 -0.0506,0.0292 -0.0285,0.0647 0.022,0.0356 0.0529,0.0647 0.0686,0.0647 0.0157,0 0.0285,-0.0292 0.0285,-0.0647 z m 2.26591,-0.093 c 0,-0.047 0.0437,-0.12164 0.0972,-0.16598 l 0.0972,-0.0806 0.0405,0.20217 c 0.0483,0.24155 0.15374,0.26919 0.15374,0.0404 v -0.16185 h 0.0939 c 0.0517,0 0.12044,0.0474 0.15288,0.10542 0.0324,0.058 0.0735,0.0799 0.0912,0.0485 0.0177,-0.0312 -0.0439,-0.17341 -0.13671,-0.31584 l -0.16892,-0.25896 h -0.16185 -0.16185 l 0.009,0.11261 c 0.004,0.0619 -0.0139,0.0985 -0.0418,0.0813 -0.0619,-0.0382 -0.14036,0.13091 -0.17592,0.37908 l -0.0264,0.18454 0.0691,-0.0426 c 0.038,-0.0235 0.0691,-0.0811 0.0691,-0.12805 z m 2.62614,-0.0166 -0.0371,-0.0965 0.12527,-0.0327 0.12527,-0.0327 -0.0382,-0.10695 c -0.021,-0.0588 -0.0168,-0.0877 0.01,-0.0643 0.046,0.0412 0.0827,0.1772 0.10195,0.37818 l 0.01,0.0972 0.0714,-0.14828 0.0715,-0.14829 0.10227,0.0226 c 0.0562,0.0124 0.095,0.0573 0.0861,0.0998 -0.009,0.0424 0.013,0.077 0.0485,0.077 0.0932,0 0.0796,-0.10129 -0.0255,-0.18844 -0.0496,-0.0411 -0.12656,-0.16273 -0.17107,-0.27018 l -0.0809,-0.19537 -0.12283,0.0195 c -0.0676,0.0109 -0.12725,0.0486 -0.13264,0.0842 -0.005,0.0356 -0.0754,0.13542 -0.15548,0.22181 l -0.14563,0.15706 0.0587,0.10957 c 0.0322,0.0603 0.0379,0.13264 0.0124,0.16083 -0.0255,0.0282 -0.008,0.029 0.0391,0.002 l 0.0853,-0.0493 -0.0371,-0.0965 z m 2.7164,-0.13998 c 0.0582,-0.0582 0.21576,0.13398 0.18199,0.22199 l -0.0355,0.0924 h 0.0755 c 0.0416,0 0.0602,-0.0248 0.0413,-0.0552 -0.0187,-0.0303 0.009,-0.11047 0.0609,-0.17803 l 0.0951,-0.12283 0.095,0.12283 c 0.0522,0.0676 0.0769,0.15217 0.0547,0.18804 l -0.0403,0.0652 0.0782,-0.0484 0.0782,-0.0483 -0.10919,-0.17205 c -0.06,-0.0947 -0.16387,-0.23247 -0.23071,-0.30632 -0.0668,-0.0739 -0.10183,-0.15397 -0.0778,-0.17804 0.024,-0.024 -0.0165,-0.0437 -0.0901,-0.0437 h -0.13387 l -0.13588,0.23029 c -0.13869,0.23506 -0.1722,0.42396 -0.0898,0.50633 0.0253,0.0254 0.0704,-0.0197 0.1001,-0.1001 0.0297,-0.0804 0.0666,-0.15868 0.0818,-0.17397 z m -12.75531,-0.0741 c 0.022,-0.0356 0.009,-0.0647 -0.0285,-0.0647 -0.0378,0 -0.0685,0.0292 -0.0685,0.0647 0,0.0356 0.0128,0.0647 0.0285,0.0647 0.0157,0 0.0466,-0.0292 0.0685,-0.0647 z m 15.44064,-0.24814 -0.0794,-0.0264 0.0882,-0.0559 0.0882,-0.0559 -0.0771,-9.8e-4 c -0.12794,-0.002 -0.1603,0.11707 -0.0744,0.27282 l 0.0811,0.14701 0.0264,-0.12703 0.0264,-0.12701 -0.0794,-0.0264 z m 0.38838,-0.0109 v -0.12948 h -0.0977 -0.0977 l 0.0808,0.12948 c 0.0445,0.0713 0.0884,0.12948 0.0977,0.12948 0.01,0 0.0168,-0.0583 0.0168,-0.12948 z m -16.08525,-0.004 c 0.0235,-0.0381 0.0834,-0.0535 0.1333,-0.0344 0.0498,0.0191 0.0905,0.004 0.0905,-0.0322 v -0.067 l -0.17304,0.0204 c -0.0952,0.0113 -0.18501,0.0569 -0.19962,0.1014 -0.0324,0.0986 0.0892,0.10826 0.1488,0.0118 z m -0.3588,-0.12889 c 0,-0.0335 -0.0292,-0.0609 -0.0647,-0.0609 -0.0356,0 -0.0647,0.0455 -0.0647,0.10097 v 0.10096 l 0.0647,-0.04 c 0.0356,-0.022 0.0647,-0.0675 0.0647,-0.10096 z m -0.32622,-0.24519 c -0.0424,-0.0141 -0.10249,0.0143 -0.13346,0.0631 -0.10238,0.16156 -0.0604,0.20795 0.0762,0.0843 l 0.13445,-0.12168 z m -0.54396,-0.30335 c -0.14128,-0.10684 -0.29515,-0.12546 -0.29515,-0.0357 0,0.0721 0.1173,0.12359 0.29133,0.1277 l 0.12949,0.003 -0.12567,-0.0951 z m -3.98535,-4.72399 v -0.0971 h -0.12947 c -0.12898,0 -0.1684,0.069 -0.0863,0.15105 0.0789,0.0789 0.21579,0.0446 0.21579,-0.054 z m 0.30213,0 c 0,-0.0534 -0.0389,-0.0971 -0.0863,-0.0971 -0.0919,0 -0.11463,0.0796 -0.0432,0.15105 0.0724,0.0723 0.12948,0.0484 0.12948,-0.054 z m 21.35725,5.60609 -0.0363,-0.0586 0.12957,0.0338 c 0.15118,0.0395 0.17028,0.0836 0.0363,0.0836 -0.0513,0 -0.10962,-0.0264 -0.12957,-0.0588 z M 33.7882,476.38619 c 0.0468,-0.0187 0.10259,-0.0164 0.12409,0.005 0.0215,0.0215 -0.0168,0.0368 -0.085,0.034 l -0.12409,-0.005 z"
       id="B-Challenger"
       sodipodi:nodetypes="csscccsssssssscsssscssscccccsscsssssscccccsssscccccccccssssscccccsscsscccccccsscsscccccssscccsscsscsscssscccsscsscccccsssccssscccccsscssscscssscccccccccccsscccsssscsscccccccccccccsscccccccsscccccccccccccccsscccccssssscccccccccsscssssssssscssscccccsccssscccsscccsscccccssssssccccccccssscccsccsscssssssscssssssscsscsssscccssscsssccccssscccssssscssscssscccsscssscsscccsssscssssssssscccccscccccccccssscssscssssssscssssscssssccsscsssssssscsssssscs"
       style="stroke-width:0.244688" />
  </g>
</svg>
