<?xml version="1.0" encoding="UTF-8" standalone="no"?>
<!-- Created with Inkscape (http://www.inkscape.org/) -->

<svg
   width="25.667339mm"
   height="10.57654mm"
   viewBox="0 0 25.667339 10.57654"
   version="1.1"
   id="svg5570"
   sodipodi:docname="inkporter-svg-6ka1phie.svg"
   xmlns:inkscape="http://www.inkscape.org/namespaces/inkscape"
   xmlns:sodipodi="http://sodipodi.sourceforge.net/DTD/sodipodi-0.dtd"
   xmlns="http://www.w3.org/2000/svg"
   xmlns:svg="http://www.w3.org/2000/svg">
  <sodipodi:namedview
     id="namedview5572"
     pagecolor="#ffffff"
     bordercolor="#666666"
     borderopacity="1.0"
     inkscape:pageshadow="2"
     inkscape:pageopacity="0.0"
     inkscape:pagecheckerboard="0"
     inkscape:document-units="mm"
     showgrid="false"
     inkscape:zoom="0.32026164"
     inkscape:cx="1339.5297"
     inkscape:cy="1250.54"
     inkscape:window-width="3840"
     inkscape:window-height="2081"
     inkscape:window-x="2391"
     inkscape:window-y="-9"
     inkscape:window-maximized="1"
     inkscape:current-layer="layer1" />
  <defs
     id="defs5567" />
  <g
     inkscape:label="Layer 1"
     inkscape:groupmode="layer"
     id="layer1"
     transform="translate(-245.42905,-346.40444)">
    <path
       style="fill:#000000;fill-opacity:1;fill-rule:nonzero;stroke:none;stroke-width:0.352778"
       d="m 260.73544,348.42679 v -0.0289 l -0.12954,0.20671 h 0.0827 z m 2.50251,6.85987 -0.22599,0.29628 c 0.051,0.003 0.0992,0.0124 0.14607,0.0276 l -0.0482,-0.0386 0.22186,-0.28526 z m -1.72392,0.28526 -0.0152,0.0207 c 0.0207,0.004 0.0413,0.01 0.0606,0.0165 z m -1.51998,-0.28526 0.0689,0.0538 0.0414,-0.0538 z m -3.22047,0 0.113,0.0896 0.0703,-0.0896 z m -4.93476,0 0.0331,0.0262 0.0207,-0.0262 z m 13.38902,-2.50527 h 0.98117 v -0.0221 h -0.98117 z m 1.91961,2.8925 0.79099,-0.56362 -0.75378,0.33487 10e-4,0.0165 c 0,0.0758 -0.0138,0.14745 -0.0386,0.21222 m -2.04776,0.91502 c 0.37482,-0.0524 0.74965,-0.2136 1.08176,-0.37758 l 0.28938,-0.15572 c -0.24529,-0.0455 -0.43959,-0.23978 -0.48369,-0.48507 l -0.1819,0.13642 -0.31695,-0.4203 h -0.41892 v 0.46165 c 0.11438,0.11024 0.18603,0.26458 0.18603,0.43683 0,0.15434 -0.0593,0.29628 -0.15571,0.40377 m -1.7005,0.0193 0.81993,-0.003 c -0.0772,-0.0785 -0.13091,-0.17777 -0.1571,-0.28801 l -0.58153,-0.45475 c 0.0593,0.0937 0.0937,0.20395 0.0937,0.32246 0,0.16399 -0.0661,0.31419 -0.17501,0.42306 m -1.59439,0.004 0.73725,-10e-4 c -0.0965,-0.0978 -0.15985,-0.22599 -0.17363,-0.36931 l -0.47405,-0.37207 c 0.0551,0.0923 0.0882,0.19982 0.0882,0.31557 0,0.16674 -0.0689,0.31833 -0.17776,0.42719 m -1.55994,0.003 0.70831,-10e-4 c -0.0868,-0.0868 -0.14883,-0.19981 -0.1695,-0.32659 l -0.39549,-0.30868 c 0.0234,0.0648 0.0358,0.13367 0.0358,0.2067 0,0.16675 -0.0689,0.31971 -0.17914,0.42995 m -1.77354,10e-4 0.92604,-10e-4 c -0.0785,-0.0785 -0.13642,-0.17776 -0.16398,-0.29077 l -0.80753,-0.63114 c 0.13367,0.12265 0.22737,0.29628 0.22737,0.49196 0,0.16812 -0.0703,0.32109 -0.1819,0.43133 m -1.60403,0.001 h 0.76067 c -0.10748,-0.10473 -0.17638,-0.24804 -0.18327,-0.40652 l -0.54846,-0.42995 c 0.0951,0.10749 0.15434,0.24943 0.15434,0.40377 0,0.1695 -0.0703,0.32246 -0.18328,0.4327 m -1.64951,0 h 0.80753 c -0.11163,-0.10748 -0.18053,-0.25769 -0.18328,-0.42581 l -0.68764,-0.53606 -0.0207,0.0262 c 0.16123,0.10886 0.26872,0.29214 0.26872,0.50298 0,0.1695 -0.0717,0.32384 -0.18466,0.4327 m -1.65916,0.001 0.81994,-0.001 c -0.11025,-0.10473 -0.17915,-0.25218 -0.18466,-0.41479 l -0.53468,-0.41754 -0.0331,0.0427 c 0.073,0.0992 0.11575,0.22324 0.11575,0.35691 0,0.1695 -0.0703,0.32384 -0.18328,0.43408 m -1.72806,0 h 0.88884 c -0.10474,-0.10197 -0.17364,-0.24115 -0.18328,-0.39687 l -0.68213,-0.53192 -0.0372,0.0469 c 0.12265,0.11024 0.19844,0.2701 0.19844,0.44786 0,0.1695 -0.0703,0.32384 -0.18466,0.43408 m -2.70233,-0.50436 c 0.49747,0.21635 1.3615,0.50436 1.80936,0.50436 h 0.0551 c -0.11437,-0.11024 -0.18465,-0.26458 -0.18465,-0.43408 0,-0.0234 0.001,-0.0455 0.004,-0.0689 l -0.57465,-0.44649 0.29766,-0.38309 h -0.9412 c 0.0289,0.0717 0.0455,0.15021 0.0455,0.23151 0,0.30317 -0.22186,0.55259 -0.51125,0.59669 m -1.57785,-1.47174 0.16399,0.16812 c 0.25907,0.26596 0.50987,0.52089 0.71795,0.72898 v -0.022 c 0,-0.17915 0.0786,-0.34038 0.20257,-0.45062 v -0.14194 h -0.0675 c -0.37896,0 -0.72898,-0.10473 -1.01699,-0.28249 m -0.59669,-0.62012 0.0262,0.0276 -0.0138,-0.0276 z m 2.68993,-4.2981 4.04867,0.14194 v -0.23427 h 0.3018 c 0.0317,-0.0758 0.0703,-0.14469 0.11575,-0.20946 v -0.18604 l 0.006,-0.022 0.29766,-0.0648 c 0.113,-0.0606 0.23702,-0.0937 0.36793,-0.0937 0.0207,0 0.0427,0.001 0.0634,0.003 l 0.29215,-0.062 v -0.88883 h 0.091 v 0.86954 l 0.062,-0.0138 c 0.21773,-0.22875 0.60358,-0.38171 1.04455,-0.38171 0.16537,0 0.32246,0.0221 0.46716,0.0606 l 0.15158,-0.0317 0.0179,0.0882 c 0.0207,0.008 0.0427,0.0179 0.062,0.0262 v -0.12126 h 0.1502 c 0.0579,-0.14883 0.27423,-0.25907 0.5333,-0.25907 0.14332,0 0.27423,0.0345 0.37207,0.0896 h 1.4056 v 0.1695 h 0.60909 v -0.89159 h 0.19155 v 0.89159 h 0.21773 l 0.30041,-0.47956 0.44373,-1.72117 0.0868,0.0221 -0.42719,1.65915 -0.01,0.04 -0.0455,0.17501 h 0.0441 v 0.30455 h 0.37207 v 0.40652 h 0.23702 l -0.22462,-0.0427 0.0579,-0.3638 2.10702,0.40652 h 0.15847 v 1.6247 h -1.64124 l 0.0165,0.0179 -0.69453,0.69453 -0.0165,-0.0165 v 0.0276 h 1.76113 v -0.0455 h -0.20395 V 351.134 h 0.20395 v -0.0896 h 2.79879 v 0.1116 h 1.89619 v 0.20395 h 1.02801 c 0.2949,0 0.56638,0.13919 0.78411,0.37207 h 0.66007 v 0.22876 l 0.0661,-0.21635 0.80891,0.24667 0.0165,0.011 v 0.94947 h -0.56775 l 0.39274,0.48507 c 0.073,0.0537 0.11851,0.13505 0.11851,0.226 0,0.16261 -0.14745,0.29352 -0.32659,0.29352 -0.0455,0 -0.0896,-0.008 -0.12954,-0.0234 l -1.24299,0.55397 0.0317,0.0455 -2.13045,1.5186 -0.89297,0.48094 c 0,0 -0.42719,0.21359 -0.75654,0.30592 -0.18466,0.0537 -0.33762,0.1006 -0.52779,0.11989 -0.226,0.0234 -14.12765,0.0234 -14.12765,0.0234 0,0 -0.26734,0 -0.50987,-0.0482 -0.24391,-0.0496 -1.45521,-0.48369 -1.64814,-0.58015 -0.21635,-0.10887 -1.77077,-1.74322 -2.32612,-2.32888 h -1.02389 v -0.92605 h 1.19614 v -0.0441 h -1.18787 c 0.0799,-0.95223 0.73312,-1.69362 1.52687,-1.69362 h 0.64767 l 0.007,-0.20532 3.83784,0.13505 v -0.2453 h 0.339 v 0.25632 l 2.31372,0.0813 v -0.64905 c -0.0744,-0.10198 -0.13091,-0.22324 -0.16536,-0.35553 h -0.25218 v -0.14332 l -4.04868,-0.14194 z m -0.15021,1.34083 h 0.0896 v 0.0896 h -0.0896 z m 0,0"
       id="B-Churchill" />
  </g>
</svg>
