<?xml version="1.0" encoding="UTF-8" standalone="no"?>
<!-- Created with Inkscape (http://www.inkscape.org/) -->

<svg
   width="26.768158mm"
   height="9.8763103mm"
   viewBox="0 0 26.768158 9.8763103"
   version="1.1"
   id="svg5570"
   sodipodi:docname="inkporter-svg-o_ueb23s.svg"
   xmlns:inkscape="http://www.inkscape.org/namespaces/inkscape"
   xmlns:sodipodi="http://sodipodi.sourceforge.net/DTD/sodipodi-0.dtd"
   xmlns="http://www.w3.org/2000/svg"
   xmlns:svg="http://www.w3.org/2000/svg">
  <sodipodi:namedview
     id="namedview5572"
     pagecolor="#ffffff"
     bordercolor="#666666"
     borderopacity="1.0"
     inkscape:pageshadow="2"
     inkscape:pageopacity="0.0"
     inkscape:pagecheckerboard="0"
     inkscape:document-units="mm"
     showgrid="false"
     inkscape:zoom="1.2810466"
     inkscape:cx="1051.484"
     inkscape:cy="1475.7465"
     inkscape:window-width="2400"
     inkscape:window-height="1271"
     inkscape:window-x="-9"
     inkscape:window-y="-9"
     inkscape:window-maximized="1"
     inkscape:current-layer="layer1"
     inkscape:snap-bbox="true"
     inkscape:snap-nodes="false"
     inkscape:snap-others="false"
     inkscape:bbox-paths="true"
     inkscape:bbox-nodes="true" />
  <defs
     id="defs5567" />
  <g
     inkscape:label="Layer 1"
     inkscape:groupmode="layer"
     id="layer1"
     transform="translate(-274.38789,-379.56358)">
    <path
       d="m 279.49746,389.36616 c -0.012,-0.046 -0.086,-0.0911 -0.20314,-0.12393 -0.10132,-0.0283 -0.1937,-0.0669 -0.20529,-0.0856 -0.042,-0.068 -0.0954,-0.0318 -0.0954,0.0647 0,0.10928 -0.0587,0.12431 -0.21228,0.0544 -0.0537,-0.0244 -0.089,-0.0668 -0.0784,-0.094 0.0106,-0.0276 -0.0478,-0.0895 -0.13152,-0.1394 -0.0828,-0.0494 -0.17258,-0.11686 -0.19952,-0.14996 -0.0418,-0.0514 -0.0527,-0.0418 -0.0741,0.0653 -0.0138,0.069 -0.0335,0.12549 -0.0437,0.12549 -0.0636,0 -0.24649,-0.14459 -0.23169,-0.18318 0.01,-0.0257 -0.0531,-0.0959 -0.13984,-0.15604 -0.0868,-0.0602 -0.17572,-0.14288 -0.19766,-0.18388 -0.0317,-0.0594 -0.0514,-0.065 -0.0964,-0.0276 -0.0311,0.0258 -0.0565,0.0714 -0.0565,0.10131 0,0.03 -0.0147,0.0545 -0.0326,0.0545 -0.0528,0 -0.2203,-0.19479 -0.19193,-0.22315 0.0143,-0.0143 -0.0424,-0.10009 -0.1259,-0.1907 -0.0835,-0.0906 -0.16192,-0.1901 -0.17422,-0.2211 -0.0191,-0.0481 -0.0285,-0.0477 -0.0643,0.003 -0.023,0.0326 -0.0486,0.077 -0.0569,0.0988 -0.008,0.0217 -0.0624,-0.004 -0.12031,-0.0573 -0.0579,-0.0533 -0.0963,-0.12032 -0.0853,-0.14899 0.011,-0.0287 -0.0389,-0.12936 -0.111,-0.22376 -0.1121,-0.14686 -0.13695,-0.16241 -0.17223,-0.10778 -0.0369,0.0571 -0.0519,0.054 -0.14174,-0.0292 -0.0553,-0.0512 -0.0914,-0.11696 -0.0801,-0.14615 0.0112,-0.0291 -0.0373,-0.12473 -0.10764,-0.21234 -0.10873,-0.1353 -0.13467,-0.15021 -0.17213,-0.099 -0.0381,0.0521 -0.0599,0.0439 -0.15897,-0.0595 -0.0632,-0.0659 -0.10388,-0.13085 -0.0905,-0.14426 0.0219,-0.0219 -0.14128,-0.43652 -0.19163,-0.48687 -0.0113,-0.0113 -0.036,0.004 -0.0549,0.035 -0.0291,0.047 -0.0443,0.0472 -0.0992,0.002 -0.0357,-0.0296 -0.0908,-0.10401 -0.12253,-0.16535 -0.0564,-0.10904 -0.0651,-0.1115 -0.39243,-0.1115 h -0.33468 v -0.4905 c 0,-0.31109 -0.0153,-0.49561 -0.042,-0.50449 -0.0291,-0.01 -0.0281,-0.0499 0.004,-0.13167 0.025,-0.0647 0.0791,-0.24816 0.12027,-0.40762 0.0806,-0.31216 0.2756,-0.66903 0.46414,-0.84916 0.0645,-0.0616 0.13967,-0.1921 0.16708,-0.28999 0.0528,-0.18829 0.11209,-0.23798 0.22519,-0.18849 0.038,0.0167 0.0806,0.0281 0.0945,0.0254 0.014,-0.003 0.21839,-0.0357 0.45429,-0.0735 0.23589,-0.0378 0.44668,-0.0913 0.4684,-0.11899 0.032,-0.0407 0.21667,-0.0396 0.96782,0.006 0.51057,0.031 1.07941,0.0641 1.26409,0.0735 0.18468,0.009 0.48688,0.0397 0.67156,0.067 0.37428,0.0556 4.11842,0.0807 4.17122,0.0279 0.0166,-0.0165 -0.0159,-0.0787 -0.072,-0.13826 -0.0562,-0.0595 -0.12949,-0.17488 -0.16299,-0.25635 -0.0543,-0.13194 -0.0763,-0.14814 -0.20119,-0.14814 -0.13398,0 -0.14028,-0.006 -0.14028,-0.13826 v -0.13826 l -1.96527,-0.003 c -1.0809,-0.002 -2.13415,-0.004 -2.34055,-0.007 -0.2064,-0.003 -0.53082,0.009 -0.72092,0.0261 -0.24161,0.0211 -0.34565,0.0173 -0.34565,-0.0127 0,-0.0654 -0.10813,-0.0517 -0.44936,0.0573 -0.1711,0.0546 -0.34544,0.0884 -0.38742,0.0751 -0.19513,-0.0619 -0.20201,-0.6701 -0.008,-0.74438 0.029,-0.0111 0.19857,0.0234 0.37689,0.0768 0.3334,0.0998 0.46824,0.1192 0.4684,0.0674 4e-5,-0.0163 0.72443,-0.0329 1.60974,-0.0369 2.05717,-0.009 2.81449,-0.0403 2.81449,-0.11543 0,-0.0557 0.10201,-0.0699 0.40391,-0.056 0.0809,0.004 0.16981,-0.007 0.19751,-0.0248 0.0277,-0.0173 0.15935,-0.026 0.29253,-0.0193 l 0.24215,0.0122 0.0464,-0.19313 c 0.0255,-0.10622 0.0986,-0.28462 0.16245,-0.39644 0.0935,-0.16374 0.14501,-0.21133 0.26455,-0.24453 0.0816,-0.0226 0.179,-0.0414 0.21634,-0.0414 0.0421,-1.4e-4 0.0598,-0.0214 0.0466,-0.0557 -0.0147,-0.0382 0.0194,-0.0637 0.10988,-0.0819 0.28945,-0.0584 0.26943,-0.0168 0.26943,-0.55979 0,-0.36032 0.0126,-0.49023 0.0463,-0.479 0.0325,0.0109 0.0439,0.15573 0.0386,0.48721 -0.004,0.25948 0.008,0.49502 0.0266,0.52345 0.0454,0.0685 0.2295,0.022 0.2975,-0.075 0.0663,-0.0947 0.52834,-0.19388 0.90301,-0.19388 h 0.27971 l -0.10675,-0.0989 c -0.0587,-0.0544 -0.0958,-0.11663 -0.0824,-0.13826 0.0134,-0.0217 0.15513,-0.0393 0.31503,-0.0393 0.28963,0 0.29103,4.5e-4 0.37617,0.13826 0.047,0.076 0.0933,0.13826 0.10295,0.13826 0.01,0 0.035,-0.0461 0.0564,-0.10237 0.0362,-0.0953 0.0546,-0.10179 0.26567,-0.094 0.31462,0.0116 0.3255,0.009 0.3255,-0.0801 0,-0.0673 0.0263,-0.079 0.17776,-0.079 0.0978,0 0.17777,0.0177 0.17777,0.0395 0,0.0217 0.0544,0.0395 0.12083,0.0395 0.0705,0 0.11068,0.0165 0.0964,0.0395 -0.0159,0.0257 0.18252,0.0395 0.56623,0.0395 0.49281,0 0.59447,-0.01 0.61376,-0.0602 0.0162,-0.0423 0.0529,-0.0528 0.12274,-0.0352 0.0616,0.0154 0.0996,0.008 0.0996,-0.0188 0,-0.0256 0.074,-0.0438 0.17777,-0.0438 0.12534,0 0.17776,0.0161 0.17776,0.0549 0,0.0314 0.0591,0.0659 0.13826,0.0807 0.0828,0.0155 0.13826,0.049 0.13826,0.0834 0,0.07 0.16208,0.0771 0.22912,0.0101 0.0512,-0.0513 0.0665,-0.49057 0.0177,-0.51223 -0.0315,-0.014 -0.16789,-0.24625 -0.16789,-0.2859 0,-0.0129 0.14221,-0.0235 0.31603,-0.0235 0.17381,0 0.31602,0.0102 0.31602,0.0225 0,0.0124 -0.0533,0.10002 -0.11851,0.19475 -0.0964,0.14005 -0.1185,0.21277 -0.1185,0.38904 0,0.26328 0.0266,0.34176 0.11615,0.34176 0.0375,0 0.12893,0.0603 0.20316,0.13405 0.11693,0.11612 0.24849,0.1695 0.98428,0.39938 0.46712,0.14594 0.86709,0.282 0.88881,0.30236 0.0221,0.0207 0.0482,0.35934 0.0593,0.76846 l 0.0198,0.73146 -0.87103,-0.0278 -0.87102,-0.0278 -0.0468,0.15605 c -0.0747,0.24931 -0.20696,0.34485 -0.51532,0.37224 -0.19292,0.0171 -0.10729,0.025 0.31949,0.0296 0.66248,0.007 0.71255,-0.0137 0.71778,-0.29798 0.002,-0.1045 0.019,-0.14666 0.0563,-0.13883 0.0294,0.006 0.0783,-0.009 0.10863,-0.0345 0.0407,-0.0338 0.069,-0.0342 0.1083,-0.002 0.037,0.0307 0.26933,0.0379 0.76044,0.0237 0.92665,-0.0268 1.40798,-0.0203 1.45729,0.0198 0.0611,0.0496 1.53021,0.11845 1.96467,0.092 0.26666,-0.0162 0.40111,-0.009 0.4398,0.0228 0.0435,0.0361 0.0608,0.0331 0.0789,-0.014 0.0137,-0.0357 0.072,-0.0602 0.14288,-0.0602 0.1274,0 0.14936,0.0336 0.0724,0.11061 -0.0369,0.0369 -0.006,0.0474 0.13827,0.0474 0.15932,0 0.18566,0.0112 0.18566,0.079 0,0.0438 0.0263,0.079 0.0593,0.079 0.0364,0 0.0593,-0.037 0.0593,-0.0959 0,-0.0914 0.01,-0.0951 0.20739,-0.08 0.11407,0.009 0.38515,0.0245 0.60242,0.0351 0.527,0.0257 1.08199,0.20201 1.24178,0.39455 0.0721,0.0869 0.20008,0.0801 0.20008,-0.0105 0,-0.13737 0.13683,-0.21131 0.41298,-0.22314 0.20805,-0.009 0.28592,-0.0315 0.39452,-0.11431 0.12053,-0.0919 0.17076,-0.1032 0.46036,-0.1032 0.27734,0 0.35035,0.0148 0.4973,0.10094 0.26763,0.15684 0.368,0.34914 0.368,0.70502 0,0.27098 -0.0101,0.30708 -0.12839,0.46146 -0.16944,0.22104 -0.38772,0.33245 -0.65133,0.33245 -0.17649,0 -0.20379,0.01 -0.18566,0.0669 0.0244,0.0769 -0.0835,0.15663 -0.3086,0.228 l -0.14813,0.047 v 0.32516 c 0,0.22474 -0.0179,0.34884 -0.058,0.40184 -0.0405,0.0535 -0.0584,0.18119 -0.0593,0.42233 -7.4e-4,0.19011 -0.0146,0.34506 -0.0308,0.34436 -0.0163,-7.5e-4 -0.10939,-0.0807 -0.20687,-0.17776 -0.14632,-0.14569 -0.20145,-0.17568 -0.31602,-0.17189 -0.0763,0.003 -0.10768,0.0126 -0.0697,0.0226 0.0818,0.0214 0.0799,0.009 0.0258,0.16438 -0.049,0.14067 -0.0788,0.14972 -0.20985,0.0638 -0.0856,-0.0561 -0.0939,-0.0548 -0.11247,0.0161 -0.0111,0.0421 -0.094,0.13023 -0.18428,0.19566 -0.14737,0.10675 -0.15595,0.12158 -0.0837,0.14453 0.10497,0.0333 0.10162,0.0657 -0.0184,0.17853 -0.0952,0.0895 -0.1011,0.0902 -0.15249,0.02 -0.0517,-0.0707 -0.0564,-0.0703 -0.14212,0.01 -0.0488,0.0455 -0.14072,0.10418 -0.20433,0.13052 -0.10724,0.0444 -0.11109,0.0529 -0.0529,0.1173 0.058,0.0642 0.0545,0.0752 -0.048,0.14705 -0.061,0.0427 -0.13258,0.07 -0.15912,0.0606 -0.0266,-0.009 -0.13677,0.0327 -0.24496,0.0935 -0.17566,0.0987 -0.1906,0.11733 -0.13957,0.17371 0.0505,0.0557 0.0454,0.0734 -0.0432,0.15036 -0.0552,0.048 -0.11969,0.0752 -0.14338,0.0606 -0.0331,-0.0204 -0.3636,0.11992 -0.50642,0.21499 -0.0109,0.007 0.0159,0.0396 0.0593,0.0718 0.0775,0.0577 0.0768,0.0604 -0.0378,0.15288 -0.0784,0.0633 -0.13171,0.0817 -0.16235,0.0563 -0.03,-0.025 -0.11133,-0.009 -0.23876,0.0465 -0.2376,0.10376 -0.23813,0.10423 -0.18067,0.16168 0.0709,0.0709 0.0581,0.0957 -0.0791,0.15247 -0.0876,0.0363 -0.13015,0.039 -0.14014,0.009 -0.01,-0.0299 -0.0829,-0.0252 -0.23962,0.0156 -0.26722,0.0695 -0.27045,0.0719 -0.20631,0.14918 0.0425,0.0512 0.0277,0.0695 -0.0989,0.12239 -0.11182,0.0467 -0.15601,0.0506 -0.17768,0.0155 -0.0214,-0.0346 -0.0776,-0.0363 -0.21747,-0.006 -0.10375,0.0221 -0.21462,0.0303 -0.24638,0.0181 -0.046,-0.0177 -0.0524,0.002 -0.0315,0.0969 0.0242,0.11018 0.0166,0.12102 -0.10157,0.14465 -0.0702,0.0141 -0.1378,0.01 -0.15011,-0.009 -0.0123,-0.019 -0.13545,-0.0455 -0.27366,-0.0586 -0.25098,-0.0241 -0.25128,-0.024 -0.23262,0.0736 0.0173,0.0903 0.007,0.0977 -0.13386,0.0977 -0.0839,0 -0.15253,-0.0158 -0.15253,-0.035 0,-0.0192 -0.0844,-0.0477 -0.18764,-0.0632 -0.1032,-0.0155 -0.21932,-0.0451 -0.25804,-0.0658 -0.0612,-0.0327 -0.0671,-0.0245 -0.0451,0.0632 0.0236,0.0942 0.0159,0.10083 -0.11724,0.10083 -0.0784,0 -0.14254,-0.0153 -0.14254,-0.034 0,-0.0187 -0.1069,-0.0512 -0.23756,-0.0723 -0.2213,-0.0356 -0.23598,-0.0333 -0.21459,0.034 0.0197,0.0621 -5e-5,0.0723 -0.14006,0.0723 -0.0897,0 -0.15341,-0.0155 -0.14167,-0.0345 0.0118,-0.019 -0.0675,-0.0463 -0.17592,-0.0607 -0.10849,-0.0143 -0.22574,-0.0371 -0.26057,-0.0504 -0.0502,-0.0192 -0.0578,-0.006 -0.0364,0.0607 0.0246,0.0776 0.0128,0.0849 -0.13603,0.0849 -0.0897,0 -0.1534,-0.0155 -0.14168,-0.0345 0.0118,-0.019 -0.0674,-0.0463 -0.1759,-0.0607 -0.10849,-0.0143 -0.2224,-0.0358 -0.25314,-0.0476 -0.0406,-0.0156 -0.05,8.9e-4 -0.0344,0.0607 0.0188,0.072 0.004,0.0822 -0.12139,0.0822 -0.0786,0 -0.14287,-0.0153 -0.14287,-0.0341 0,-0.0187 -0.10798,-0.0514 -0.23997,-0.0727 -0.22353,-0.036 -0.23867,-0.0337 -0.22096,0.034 0.016,0.0612 -0.004,0.0727 -0.13202,0.0727 -0.0831,0 -0.15694,-0.0162 -0.16419,-0.0359 -0.007,-0.0198 -0.0978,-0.0485 -0.20131,-0.0638 -0.16353,-0.0242 -0.18494,-0.0195 -0.16366,0.0359 0.0201,0.0525 -0.004,0.0638 -0.14008,0.0638 -0.0905,0 -0.15497,-0.0155 -0.14324,-0.0345 0.0118,-0.019 -0.0674,-0.0463 -0.17591,-0.0607 -0.10849,-0.0144 -0.2224,-0.0358 -0.25314,-0.0476 -0.0406,-0.0156 -0.05,8.9e-4 -0.0344,0.0607 0.0188,0.072 0.004,0.0822 -0.12139,0.0822 -0.0786,0 -0.14287,-0.0161 -0.14287,-0.0358 0,-0.0197 -0.0933,-0.0483 -0.20739,-0.0636 -0.11407,-0.0153 -0.23256,-0.0481 -0.26333,-0.0728 -0.0465,-0.0374 -0.0514,-0.0267 -0.0289,0.0636 0.0257,0.10306 0.0199,0.10864 -0.11196,0.10864 -0.0765,0 -0.13902,-0.0143 -0.13902,-0.032 0,-0.0175 -0.10674,-0.0496 -0.23721,-0.0712 -0.22002,-0.0364 -0.23557,-0.034 -0.2146,0.032 0.0189,0.0595 -5.9e-4,0.0712 -0.11832,0.0712 -0.0775,0 -0.14092,-0.0158 -0.14092,-0.0349 0,-0.0192 -0.0975,-0.0471 -0.21665,-0.062 -0.11915,-0.0149 -0.22685,-0.0436 -0.23935,-0.0638 -0.0468,-0.0758 -0.0976,-0.033 -0.0738,0.062 0.023,0.0917 0.0145,0.0987 -0.11776,0.0987 -0.0784,0 -0.14255,-0.0161 -0.14255,-0.0358 0,-0.0197 -0.0933,-0.0483 -0.20739,-0.0637 -0.11406,-0.0153 -0.23073,-0.0468 -0.25925,-0.0699 -0.0413,-0.0334 -0.0464,-0.0205 -0.0253,0.0636 0.025,0.0999 0.0188,0.10566 -0.11602,0.10566 -0.0784,0 -0.14254,-0.0153 -0.14254,-0.0341 0,-0.0187 -0.1069,-0.0512 -0.23756,-0.0723 -0.2213,-0.0357 -0.23598,-0.0333 -0.2146,0.034 0.0193,0.0609 6e-4,0.0723 -0.11798,0.0723 -0.0775,0 -0.14092,-0.0144 -0.14092,-0.032 0,-0.0176 -0.10395,-0.0492 -0.23101,-0.0702 -0.21208,-0.0351 -0.22951,-0.0324 -0.21266,0.032 0.0151,0.0577 -0.007,0.0701 -0.12451,0.0701 -0.0786,0 -0.14287,-0.0161 -0.14287,-0.0358 0,-0.0197 -0.0933,-0.0483 -0.20739,-0.0637 -0.11406,-0.0153 -0.23256,-0.0481 -0.26332,-0.0728 -0.0465,-0.0374 -0.0513,-0.0267 -0.0289,0.0637 0.0262,0.10518 0.0219,0.10864 -0.13404,0.10864 -0.0886,0 -0.15149,-0.0155 -0.13976,-0.0345 0.0118,-0.019 -0.0674,-0.0463 -0.17591,-0.0607 -0.10849,-0.0143 -0.22655,-0.0374 -0.26237,-0.0512 -0.0515,-0.0198 -0.0604,-0.007 -0.0427,0.0607 0.0201,0.0771 0.007,0.0856 -0.13191,0.0856 -0.0848,0 -0.15431,-0.0158 -0.15431,-0.035 0,-0.0192 -0.0823,-0.0473 -0.18282,-0.0625 -0.10054,-0.0151 -0.21006,-0.0379 -0.24336,-0.0506 -0.0463,-0.0178 -0.0553,-0.004 -0.0381,0.0625 0.0201,0.0768 0.007,0.0856 -0.12862,0.0856 -0.0831,0 -0.15694,-0.0162 -0.16419,-0.0359 -0.007,-0.0198 -0.0976,-0.0485 -0.20081,-0.0637 -0.1578,-0.0234 -0.18764,-0.0177 -0.18764,0.0359 0,0.0465 -0.0373,0.0637 -0.13825,0.0637 -0.076,0 -0.13826,-0.0153 -0.13826,-0.034 0,-0.0187 -0.10666,-0.0512 -0.23702,-0.0722 -0.21718,-0.0349 -0.23702,-0.0321 -0.23702,0.0341 0,0.0562 -0.0307,0.0722 -0.13826,0.0722 -0.076,0 -0.13826,-0.0163 -0.13826,-0.0363 0,-0.02 -0.0845,-0.0544 -0.18773,-0.0765 -0.10325,-0.0221 -0.21879,-0.0522 -0.25677,-0.0668 -0.0548,-0.021 -0.0691,-0.005 -0.0691,0.0765 0,0.0907 -0.016,0.10298 -0.13366,0.10298 -0.0963,0 -0.13894,-0.0202 -0.15257,-0.0724 z m 2.26137,-0.43329 c 0,-0.0174 -0.0197,-0.0513 -0.0438,-0.0753 -0.0241,-0.0241 -0.0559,-0.10309 -0.0707,-0.17561 -0.0229,-0.11183 -0.0609,-0.14811 -0.25017,-0.23887 -0.12275,-0.0588 -0.24147,-0.14114 -0.2638,-0.18287 -0.0811,-0.1515 -0.0936,-0.38453 -0.0274,-0.51238 0.0855,-0.16526 0.0851,-0.16592 -0.0918,-0.16592 h -0.15515 l 0.0177,0.21655 c 0.0117,0.14329 0.0508,0.26544 0.11565,0.36104 0.11483,0.16923 0.1299,0.41526 0.0388,0.63333 -0.0326,0.078 -0.0593,0.14853 -0.0593,0.15675 0,0.008 0.17776,0.015 0.39503,0.015 0.21726,0 0.39502,-0.0142 0.39502,-0.0316 z m 1.60019,-0.1889 c -0.0796,-0.19577 -0.11186,-0.23082 -0.28784,-0.31235 -0.10903,-0.0505 -0.21456,-0.12103 -0.23453,-0.15672 -0.0241,-0.043 -0.0307,0.0136 -0.0195,0.16775 0.0119,0.16394 -0.002,0.26892 -0.0467,0.35551 -0.0349,0.0676 -0.0635,0.13266 -0.0635,0.14459 0,0.012 0.16689,0.0217 0.37086,0.0217 h 0.37087 z m 1.75756,0.20171 c 0,-0.0103 -0.0355,-0.077 -0.0789,-0.14814 -0.0434,-0.0711 -0.0795,-0.16489 -0.0803,-0.20834 -9e-4,-0.0574 -0.0633,-0.10681 -0.2273,-0.18058 l -0.22583,-0.10158 -0.003,0.22008 c -0.002,0.14267 -0.0274,0.2583 -0.0737,0.32872 l -0.0714,0.10863 h 0.37983 c 0.20889,0 0.37981,-0.009 0.37981,-0.0188 z m 1.57968,-0.10959 c -0.043,-0.0706 -0.0783,-0.16468 -0.0784,-0.20904 -1.2e-4,-0.0585 -0.0601,-0.11005 -0.21829,-0.18764 -0.11998,-0.0588 -0.22219,-0.10688 -0.22714,-0.10675 -0.005,1.2e-4 -0.0111,0.0792 -0.0138,0.17578 -0.003,0.0994 -0.0406,0.23633 -0.0875,0.31578 l -0.0827,0.14025 h 0.39312 0.39311 z m 1.68587,0.0198 c -0.0301,-0.0597 -0.0662,-0.15674 -0.0803,-0.21556 -0.019,-0.0794 -0.0739,-0.12812 -0.21293,-0.18921 -0.10303,-0.0453 -0.21398,-0.11711 -0.24657,-0.15968 -0.0544,-0.071 -0.0581,-0.0579 -0.0459,0.15845 0.009,0.15947 -0.007,0.27659 -0.0494,0.36157 -0.0345,0.0692 -0.0627,0.13186 -0.0627,0.13938 0,0.007 0.16934,0.0136 0.3763,0.0136 h 0.37629 z m 1.62856,-0.038 c -0.0411,-0.0807 -0.0748,-0.1746 -0.0748,-0.20881 0,-0.0369 -0.0884,-0.10305 -0.21726,-0.16259 l -0.21728,-0.10038 v 0.16258 c 0,0.0894 -0.0336,0.22855 -0.0748,0.3092 l -0.0748,0.14661 h 0.36676 0.36676 z m 1.65912,0 c -0.0411,-0.0807 -0.0749,-0.17397 -0.075,-0.20739 -1.5e-4,-0.0337 -0.10131,-0.11354 -0.22715,-0.17929 l -0.22681,-0.11851 -0.003,0.19751 c -0.002,0.10864 -0.0331,0.2553 -0.0701,0.3259 l -0.0674,0.12839 h 0.37203 0.37203 l -0.0748,-0.14661 z m 1.74798,0.046 c -0.0435,-0.0553 -0.0905,-0.15238 -0.10441,-0.21564 -0.0201,-0.0913 -0.069,-0.13503 -0.23693,-0.21194 -0.3149,-0.14416 -0.42713,-0.44471 -0.27554,-0.73786 l 0.0602,-0.11654 h -0.13927 -0.13927 v 0.19575 c 0,0.14311 0.0263,0.23449 0.0977,0.33975 0.14465,0.21314 0.16291,0.37882 0.0697,0.63197 l -0.0792,0.21513 h 0.41309 0.4131 z m -13.50611,-0.13357 c -0.0548,-0.17145 -0.082,-0.2022 -0.22743,-0.25776 -0.24091,-0.092 -0.34287,-0.21882 -0.36553,-0.45463 -0.0123,-0.12825 -0.002,-0.22 0.031,-0.25901 0.0579,-0.0698 0.0596,-0.0674 -0.10926,-0.15325 -0.0706,-0.0359 -0.12838,-0.0806 -0.12838,-0.0992 0,-0.0186 -0.0311,-0.0448 -0.0692,-0.0583 -0.038,-0.0134 -0.0903,-0.0344 -0.11619,-0.0466 -0.0266,-0.0126 -0.0761,0.0339 -0.11375,0.10673 -0.0367,0.0709 -0.091,0.15334 -0.12083,0.18311 -0.0298,0.0298 -0.0541,0.12281 -0.0541,0.20675 0,0.20153 -0.0448,0.31029 -0.19319,0.46915 -0.0676,0.0723 -0.12284,0.13673 -0.12284,0.14312 0,0.0288 0.68854,0.29613 0.76438,0.29681 0.0467,4.5e-4 0.17382,0.0255 0.28245,0.0557 0.10863,0.0302 0.28921,0.0565 0.40127,0.0585 l 0.20376,0.004 -0.0623,-0.19469 z m 14.67627,0.0385 c 0.0377,-0.0207 0.18204,-0.076 0.3207,-0.12293 0.13866,-0.0469 0.38278,-0.14735 0.5425,-0.2232 l 0.29037,-0.1379 -0.18696,-0.17251 c -0.13098,-0.12085 -0.25605,-0.19246 -0.41766,-0.23914 -0.18797,-0.0543 -0.24878,-0.094 -0.32851,-0.21448 -0.0828,-0.12517 -0.11862,-0.14724 -0.23347,-0.14398 -0.0746,0.002 -0.13565,0.0164 -0.13565,0.0318 0,0.0154 -0.0355,0.0187 -0.0787,0.007 -0.0725,-0.019 -0.0778,-0.004 -0.0673,0.19342 0.007,0.13839 0.0436,0.266 0.10239,0.36117 0.1104,0.17863 0.14702,0.41321 0.09,0.57671 -0.0446,0.12805 -0.0182,0.14971 0.10229,0.0837 z M 282.7569,388.0032 c -0.013,-0.11513 0.003,-0.21307 0.0468,-0.29896 l 0.066,-0.12773 -0.13079,0.0126 -0.13078,0.0126 0.0141,0.19547 c 0.0114,0.15806 0.0949,0.37732 0.14361,0.37732 0.005,0 0.002,-0.0771 -0.009,-0.17121 z m 4.98064,-0.005 c -0.018,-0.13113 -0.007,-0.20314 0.0429,-0.27916 0.0791,-0.12078 0.0274,-0.21993 -0.0976,-0.18723 -0.0854,0.0223 -0.0881,0.0321 -0.0778,0.28468 0.005,0.13777 0.0932,0.34978 0.14764,0.35719 0.005,7.4e-4 -0.002,-0.0783 -0.0152,-0.17548 z m -7.58579,-0.19 c -0.0126,-0.22518 -0.0385,-0.22174 -0.10861,0.0144 -0.0809,0.27254 -0.0787,0.28956 0.0277,0.20931 0.0702,-0.0529 0.0878,-0.10145 0.0809,-0.22378 z m 1.73129,0.0217 -0.0181,-0.14874 -0.0718,0.15801 c -0.10084,0.22198 -0.0965,0.27339 0.017,0.19903 0.075,-0.0492 0.0878,-0.0854 0.0728,-0.2083 z m 9.23354,-0.18289 c 0.0477,-0.0575 0.04,-0.0646 -0.0697,-0.0646 -0.12261,0 -0.12334,9e-4 -0.12334,0.20936 0,0.11515 0.0222,0.23176 0.0494,0.25912 0.0396,0.0398 0.0534,0.0111 0.0697,-0.14475 0.0111,-0.10698 0.0445,-0.22357 0.074,-0.25912 z m -7.54381,0.14138 -0.004,-0.18625 -0.0748,0.15802 c -0.0411,0.0869 -0.0752,0.18974 -0.0759,0.22853 -8.9e-4,0.0584 0.0126,0.0632 0.078,0.0282 0.0626,-0.0336 0.0783,-0.0807 0.0758,-0.22853 z m 0.88902,-0.13384 c 0.0198,-0.0454 0.004,-0.0794 -0.0506,-0.10863 -0.12514,-0.0669 -0.13219,-0.0561 -0.11961,0.18461 0.016,0.30467 0.0856,0.40198 0.11776,0.16439 0.0129,-0.0959 0.0365,-0.20401 0.0524,-0.24037 z m 0.7733,0.16107 c 0,-0.0605 -0.0161,-0.12001 -0.0357,-0.13217 -0.0401,-0.0248 -0.1678,0.31426 -0.13186,0.35019 0.0464,0.0464 0.16763,-0.11129 0.16763,-0.21802 z m 0.82166,0.10823 c 0,-0.0729 0.0289,-0.18847 0.0643,-0.25677 l 0.0642,-0.12419 h -0.11952 c -0.118,0 -0.11953,0.003 -0.11953,0.20937 0,0.11515 0.0213,0.2307 0.0474,0.25677 0.0641,0.0641 0.0632,0.0652 0.0632,-0.0852 z m 0.7607,0.0819 c 0.0393,-0.0307 0.0607,-0.1088 0.0593,-0.216 -8.9e-4,-0.0923 -0.008,-0.16789 -0.0142,-0.16789 -0.006,0 -0.0356,0.0578 -0.0643,0.12838 -0.1226,0.29977 -0.11784,0.36281 0.0192,0.25551 z m 1.6892,3e-5 c 0.0577,-0.0696 0.0816,-0.2299 0.048,-0.32296 -0.0225,-0.0624 -0.0406,-0.0399 -0.0936,0.11567 -0.0362,0.10613 -0.0658,0.20758 -0.0658,0.22543 0,0.0493 0.0641,0.0389 0.11133,-0.0182 z m 0.94754,-0.33195 c 0.0664,-0.12143 0.0615,-0.13098 -0.0677,-0.13098 -0.11442,0 -0.11485,8.9e-4 -0.0983,0.20739 0.0232,0.28996 0.0627,0.36078 0.0935,0.16789 0.0139,-0.0869 0.0465,-0.19684 0.0725,-0.2443 z m 0.68185,0.34167 c 0.053,-0.0283 0.0764,-0.0829 0.0764,-0.17777 0,-0.18961 -0.0599,-0.17108 -0.13215,0.0409 -0.065,0.19073 -0.0614,0.19956 0.0557,0.13687 z m 1.66826,-0.0154 c 0.0515,-0.039 0.0684,-0.0983 0.0614,-0.21601 -0.005,-0.0892 -0.0159,-0.16218 -0.0236,-0.16218 -0.008,0 -0.0377,0.0577 -0.0666,0.12838 -0.12501,0.30567 -0.11858,0.36155 0.0288,0.24981 z m 1.76591,-0.19086 c 0,-0.15889 -0.003,-0.16205 -0.0597,-0.0801 -0.0329,0.0469 -0.071,0.14178 -0.0848,0.21082 -0.0238,0.11875 -0.0205,0.12307 0.0597,0.0801 0.066,-0.0354 0.0848,-0.082 0.0848,-0.21082 z m -16.0768,-0.2285 c 0.0314,-0.0587 0.0179,-0.12079 -0.0591,-0.27284 -0.10502,-0.20727 -0.12461,-0.35582 -0.0623,-0.4723 0.0311,-0.0581 -0.002,-0.098 -0.19558,-0.23442 -0.26774,-0.1888 -0.30569,-0.19772 -0.32307,-0.0758 -0.0168,0.11785 -0.14946,0.14279 -0.17805,0.0334 -0.0287,-0.10976 -0.12209,-0.1054 -0.13798,0.006 -0.008,0.0584 -0.0397,0.0889 -0.0916,0.0889 -0.044,0 -0.0963,-0.0393 -0.118,-0.0889 -0.0483,-0.11003 -0.10008,-0.11405 -0.12732,-0.01 -0.0121,0.0464 -0.0539,0.079 -0.10135,0.079 -0.0595,0 0.0475,0.1302 0.40951,0.4978 0.26961,0.27379 0.57879,0.56912 0.68707,0.65629 l 0.19687,0.15849 0.0301,-0.14511 c 0.0166,-0.0798 0.0485,-0.17929 0.0708,-0.22106 z m 19.86908,-0.51145 0.17776,-0.15751 -0.40828,0.2168 c -0.22456,0.11924 -0.41449,0.2168 -0.42209,0.2168 -0.008,0 -0.058,0.0169 -0.11208,0.0374 -0.0912,0.0347 -0.0953,0.0471 -0.0565,0.17353 l 0.0418,0.13617 0.30082,-0.23281 c 0.16545,-0.12806 0.38081,-0.30371 0.47858,-0.39034 z m -19.23243,0.11175 c 0.1091,-0.12581 0.0608,-0.13323 -0.11035,-0.0169 -0.13457,0.0914 -0.14061,0.10227 -0.057,0.10227 0.0513,0 0.12672,-0.0384 0.16743,-0.0854 z m -2.17371,-0.75558 c -0.0323,-0.0323 -0.0439,-0.0278 -0.0439,0.0166 0,0.0785 0.0531,0.13164 0.0727,0.0727 0.008,-0.025 -0.004,-0.0652 -0.0288,-0.0894 z m 24.10754,-1.74415 c -0.012,-0.0313 -0.0669,-0.0864 -0.12184,-0.12241 -0.091,-0.0596 -0.10561,-0.0599 -0.16222,-0.004 -0.077,0.077 -0.0477,0.10963 0.10949,0.12199 0.0668,0.005 0.13297,0.021 0.14701,0.0351 0.041,0.041 0.051,0.0297 0.0275,-0.0314 z m -0.43352,-1.13301 c 0.0866,-0.17355 0.0484,-0.20635 -0.20926,-0.17981 -0.16303,0.0168 -0.24046,0.0459 -0.29245,0.11005 -0.0847,0.10443 -0.0545,0.1425 0.12997,0.16418 0.29903,0.0351 0.3083,0.0328 0.37174,-0.0944 z m -5.38862,-0.24736 c 0,-0.03 -0.04,-0.0653 -0.0889,-0.0784 -0.14428,-0.0387 -0.50366,-0.0283 -0.50366,0.0146 0,0.0217 0.0267,0.0395 0.0593,0.0395 0.0326,0 0.0593,0.0177 0.0593,0.0395 0,0.0219 0.10534,0.0395 0.23701,0.0395 0.17547,0 0.23702,-0.0142 0.23702,-0.0546 z m -17.16599,-0.9755 c 0.0565,-0.0548 -0.0234,-0.1149 -0.18837,-0.14168 -0.15426,-0.025 -0.21868,0.0393 -0.16899,0.16882 0.0192,0.05 0.0559,0.0577 0.17211,0.0365 0.0813,-0.015 0.16461,-0.0436 0.18525,-0.0635 z m 13.11148,-2.58437 c 0.0125,-0.0326 0.005,-0.0593 -0.0155,-0.0593 -0.021,0 -0.0382,0.0267 -0.0382,0.0593 0,0.0326 0.007,0.0593 0.0155,0.0593 0.009,0 0.0258,-0.0267 0.0382,-0.0593 z"
       id="B-Churchill-75" />
  </g>
</svg>
