<?xml version="1.0" encoding="UTF-8" standalone="no"?>
<!-- Created with Inkscape (http://www.inkscape.org/) -->

<svg
   width="25.369053mm"
   height="9.7472296mm"
   viewBox="0 0 25.369053 9.7472296"
   version="1.1"
   id="svg5570"
   sodipodi:docname="inkporter-svg-o_ueb23s.svg"
   xmlns:inkscape="http://www.inkscape.org/namespaces/inkscape"
   xmlns:sodipodi="http://sodipodi.sourceforge.net/DTD/sodipodi-0.dtd"
   xmlns="http://www.w3.org/2000/svg"
   xmlns:svg="http://www.w3.org/2000/svg">
  <sodipodi:namedview
     id="namedview5572"
     pagecolor="#ffffff"
     bordercolor="#666666"
     borderopacity="1.0"
     inkscape:pageshadow="2"
     inkscape:pageopacity="0.0"
     inkscape:pagecheckerboard="0"
     inkscape:document-units="mm"
     showgrid="false"
     inkscape:zoom="1.2810466"
     inkscape:cx="1051.484"
     inkscape:cy="1475.7465"
     inkscape:window-width="2400"
     inkscape:window-height="1271"
     inkscape:window-x="-9"
     inkscape:window-y="-9"
     inkscape:window-maximized="1"
     inkscape:current-layer="layer1"
     inkscape:snap-bbox="true"
     inkscape:snap-nodes="false"
     inkscape:snap-others="false"
     inkscape:bbox-paths="true"
     inkscape:bbox-nodes="true" />
  <defs
     id="defs5567" />
  <g
     inkscape:label="Layer 1"
     inkscape:groupmode="layer"
     id="layer1"
     transform="translate(-303.27041,-339.64219)">
    <path
       d="m 308.38586,349.35343 c -0.0281,-0.0178 -0.0513,-0.0478 -0.0513,-0.0666 -3e-5,-0.0188 -0.0806,-0.0655 -0.17898,-0.10392 -0.0984,-0.0384 -0.19531,-0.0859 -0.21535,-0.10552 -0.0662,-0.0648 -0.11936,-0.0371 -0.12796,0.0668 -0.004,0.0564 -0.0148,0.10879 -0.0226,0.11655 -0.0309,0.0309 -0.20874,-0.0778 -0.19342,-0.11823 0.009,-0.0237 -0.0657,-0.0942 -0.16611,-0.15658 -0.10038,-0.0623 -0.19631,-0.13575 -0.21318,-0.16308 -0.05,-0.0811 -0.0943,-0.0566 -0.0755,0.0417 0.01,0.0503 -0.002,0.10309 -0.0244,0.11734 -0.0497,0.0307 -0.20691,-0.0695 -0.16882,-0.10757 0.0145,-0.0144 -0.0159,-0.0557 -0.0674,-0.0917 -0.0515,-0.036 -0.15771,-0.12339 -0.23606,-0.19413 -0.13932,-0.1258 -0.22207,-0.13479 -0.22207,-0.0242 0,0.0707 -0.0194,0.0695 -0.13794,-0.008 -0.0559,-0.0366 -0.08,-0.0738 -0.0571,-0.0881 0.0232,-0.0144 -0.0429,-0.12365 -0.15854,-0.26201 l -0.19835,-0.2374 -0.0626,0.0954 -0.0626,0.0954 -0.0864,-0.0919 c -0.0587,-0.0624 -0.0712,-0.097 -0.0389,-0.10776 0.0308,-0.0103 -0.004,-0.0859 -0.10132,-0.21517 -0.15268,-0.20452 -0.20917,-0.24281 -0.20917,-0.14178 0,0.0827 -0.0506,0.0711 -0.14961,-0.0343 -0.0586,-0.0623 -0.071,-0.0969 -0.0387,-0.10762 0.0308,-0.0103 -0.005,-0.0864 -0.10228,-0.21647 -0.13437,-0.17999 -0.15474,-0.19386 -0.1979,-0.13483 -0.0448,0.0612 -0.0546,0.0596 -0.14156,-0.022 -0.0514,-0.0483 -0.0847,-0.11058 -0.074,-0.13846 0.0107,-0.0279 -0.0155,-0.12963 -0.0582,-0.22613 l -0.0777,-0.17546 h -0.5969 -0.5969 l -0.004,-0.50841 c -0.005,-0.58936 -8.6e-4,-0.64918 0.0461,-0.69835 0.0193,-0.0201 0.0351,-0.0827 0.0351,-0.13918 0,-0.1945 0.12729,-0.66879 0.2184,-0.81381 0.0502,-0.0799 0.14916,-0.20941 0.21989,-0.28778 0.0707,-0.0783 0.15106,-0.2176 0.17852,-0.30941 0.0482,-0.1611 0.0545,-0.1662 0.17888,-0.146 0.0709,0.0115 0.27918,-0.011 0.46281,-0.05 0.18363,-0.039 0.43599,-0.0829 0.56079,-0.0974 0.23164,-0.027 0.32946,-0.0829 0.32946,-0.18808 0,-0.0368 0.0217,-0.0507 0.0576,-0.037 0.0317,0.0121 0.0576,0.0461 0.0576,0.0755 0,0.0751 0.18004,0.0677 0.22304,-0.009 0.0284,-0.0507 0.081,-0.0592 0.27789,-0.045 0.13712,0.01 0.24941,0.0371 0.25788,0.0625 0.0182,0.0546 0.20046,0.0607 0.20046,0.007 0,-0.0634 0.44666,-0.0467 0.51251,0.0192 0.064,0.064 0.33163,0.0795 0.33163,0.0192 0,-0.0219 0.11511,-0.0383 0.2686,-0.0383 0.20458,0 0.2686,0.0128 0.2686,0.0537 0,0.08 0.68404,0.1064 2.39816,0.0925 l 1.45807,-0.0119 0.0116,-0.22315 c 0.009,-0.16708 -0.01,-0.27071 -0.074,-0.41248 -0.083,-0.18377 -0.0904,-0.18934 -0.24873,-0.18934 -0.13999,0 -0.16491,-0.0123 -0.17542,-0.0863 l -0.0123,-0.0863 -1.28542,-0.0234 c -2.36663,-0.0431 -3.48534,-0.0388 -3.57015,0.0139 -0.0632,0.0392 -0.0835,0.038 -0.11118,-0.006 -0.0288,-0.0463 -0.0647,-0.0446 -0.24472,0.012 -0.28557,0.0898 -0.44705,0.0906 -0.51146,0.003 -0.0731,-0.0999 -0.0674,-0.45726 0.009,-0.53312 0.0774,-0.0774 0.32235,-0.0778 0.50646,-8.7e-4 0.0783,0.0326 0.18292,0.0492 0.23266,0.0367 0.0498,-0.0125 0.11039,-0.009 0.13475,0.009 0.0733,0.0519 4.05733,-0.01 4.09044,-0.0633 0.0201,-0.0325 0.13269,-0.0385 0.39866,-0.0213 0.3219,0.0208 0.3707,0.016 0.3707,-0.0365 0,-0.0468 0.0427,-0.0604 0.19005,-0.0604 0.17704,0 0.194,-0.009 0.2476,-0.12471 0.0317,-0.0686 0.0627,-0.18514 0.0689,-0.259 0.01,-0.11279 0.0309,-0.1406 0.13318,-0.17366 0.067,-0.0216 0.15331,-0.067 0.19185,-0.1008 0.04,-0.0351 0.24318,-0.0898 0.47297,-0.12742 0.40688,-0.0667 0.49882,-0.10272 0.49882,-0.19583 0,-0.0281 0.0604,-0.0624 0.13429,-0.0763 0.0946,-0.0177 0.1343,-0.0457 0.1343,-0.0945 0,-0.0591 0.04,-0.0712 0.27166,-0.0821 0.28968,-0.0136 0.38064,0.0124 0.38064,0.10864 0,0.047 0.027,0.0548 0.12471,0.0361 0.0686,-0.0132 0.28442,-0.0347 0.47963,-0.048 0.34329,-0.0233 0.37349,-0.0365 0.3578,-0.15749 -0.003,-0.0277 0.0361,-0.048 0.0941,-0.048 0.11898,0 0.21839,-0.0869 0.18851,-0.16477 -0.0132,-0.0345 0.009,-0.0632 0.0577,-0.076 0.0547,-0.0143 0.0789,-0.0519 0.0789,-0.12282 0,-0.0841 0.0153,-0.10001 0.0863,-0.0899 0.0618,0.009 0.0898,0.0422 0.0985,0.11778 0.0116,0.10052 0.0219,0.10552 0.21837,0.10552 0.11341,0 0.21689,-0.0173 0.22993,-0.0383 0.0314,-0.0509 0.7866,-0.0509 0.7866,0 0,0.0211 0.0938,0.0383 0.20848,0.0383 0.19893,0 0.20906,-0.005 0.22064,-0.10552 0.0161,-0.1403 0.15238,-0.14738 0.1846,-0.01 0.0164,0.0705 0.0526,0.1 0.13602,0.11114 0.11212,0.015 0.11235,0.0155 0.0178,0.0401 -0.13299,0.0345 -0.15235,0.15578 -0.0248,0.15578 0.0691,0 0.10073,0.0242 0.1127,0.0863 0.009,0.0474 0.019,-0.0561 0.0218,-0.23022 0.003,-0.1741 -0.008,-0.31666 -0.0235,-0.3168 -0.0386,-2.9e-4 -0.16308,-0.22217 -0.16308,-0.29065 0,-0.0418 0.0623,-0.0545 0.26859,-0.0545 0.14773,0 0.2686,0.0158 0.2686,0.0352 0,0.0494 -0.12822,0.28819 -0.16308,0.30368 -0.0486,0.0216 -0.0332,0.60056 0.0172,0.65103 0.0254,0.0254 0.0823,0.0461 0.12659,0.0461 0.07,0 0.0784,-0.0182 0.0642,-0.13988 l -0.0164,-0.13988 0.20271,0.0269 c 0.23841,0.0316 0.42093,0.11674 0.42093,0.19631 0,0.0311 0.0279,0.0565 0.0619,0.0565 0.034,0 0.13172,0.0389 0.21703,0.0863 0.11602,0.0646 0.15937,0.0738 0.17199,0.0369 0.0197,-0.0577 0.3451,-0.0353 0.71936,0.0494 0.32003,0.0724 1.03395,0.14626 1.12737,0.11661 0.12325,-0.0391 0.29889,0.16545 0.19641,0.22878 -0.0235,0.0145 -0.0384,0.31239 -0.0384,0.76557 0,0.66144 -0.007,0.74456 -0.0649,0.76677 -0.0357,0.0137 -0.32493,0.0234 -0.64271,0.0216 -0.31778,-0.002 -0.6857,-0.003 -0.8176,-0.002 l -0.23981,0.002 v 0.14901 c 0,0.11673 -0.0166,0.15335 -0.0767,0.16907 -0.0571,0.0149 -0.0784,0.0555 -0.0831,0.15796 -0.003,0.0758 -0.008,0.1674 -0.01,0.20346 -0.002,0.0438 0.0368,0.0738 0.11708,0.0902 0.11998,0.0245 0.12024,0.0242 0.10114,-0.11816 -0.0125,-0.0934 -0.002,-0.15338 0.0306,-0.17348 0.0274,-0.0169 0.5689,-0.0277 1.20346,-0.024 1.23665,0.007 1.4799,-0.009 1.4799,-0.0943 0,-0.0399 0.0369,-0.0486 0.14389,-0.034 0.40971,0.056 1.58963,0.0954 1.66401,0.0556 0.0798,-0.0427 0.37764,-0.0313 0.74375,0.0286 0.15581,0.0254 0.19185,0.0458 0.19185,0.1081 0,0.0504 0.0297,0.0809 0.0863,0.089 0.0542,0.008 0.0863,-0.008 0.0863,-0.0414 0,-0.0441 0.0939,-0.0507 0.5276,-0.0377 0.59133,0.0179 0.91801,0.0777 1.19767,0.21948 0.16207,0.0822 0.26283,0.0999 0.69033,0.12149 0.45872,0.0232 0.60597,0.0579 0.43341,0.10213 -0.037,0.009 -2.8e-4,0.012 0.0814,0.006 0.11684,-0.009 0.16689,0.009 0.23462,0.0814 0.0607,0.0654 0.12729,0.0929 0.22559,0.0929 h 0.13949 v 0.47963 0.47964 h -0.11042 c -0.0607,0 -0.1319,0.0259 -0.15818,0.0576 -0.0262,0.0317 -0.0715,0.0576 -0.10062,0.0576 -0.0733,0 -0.0661,0.0496 0.0239,0.16396 0.0422,0.0537 0.0769,0.12073 0.077,0.14906 1.1e-4,0.0283 0.0519,0.0809 0.1151,0.11687 0.0944,0.0538 0.11487,0.0901 0.11487,0.20439 0,0.26882 -0.31527,0.45467 -0.53669,0.31639 -0.0639,-0.0399 -0.11803,-0.0255 -0.36035,0.0959 -0.15682,0.0786 -0.3203,0.1429 -0.36327,0.1429 -0.0986,0 -0.14533,0.0699 -0.0668,0.0999 0.0531,0.0203 0.0531,0.0342 -3e-4,0.13747 -0.0568,0.10986 -0.0625,0.11196 -0.13238,0.0487 -0.0697,-0.0631 -0.0778,-0.0609 -0.1795,0.0474 -0.0585,0.0624 -0.1558,0.14556 -0.2161,0.18485 -0.10048,0.0654 -0.10411,0.0755 -0.0435,0.11979 0.0621,0.0454 0.0615,0.0543 -0.0106,0.14596 l -0.0768,0.0976 -0.0591,-0.0859 -0.0591,-0.0859 -0.0577,0.0792 c -0.0317,0.0435 -0.12816,0.11105 -0.21438,0.14993 -0.14318,0.0646 -0.15169,0.0763 -0.0984,0.13515 0.0525,0.058 0.0509,0.0712 -0.0163,0.13201 -0.041,0.0371 -0.0927,0.0564 -0.11488,0.0427 -0.0222,-0.0137 -0.11539,0.0191 -0.20724,0.073 -0.0918,0.0539 -0.19568,0.0979 -0.23075,0.0979 -0.0883,0 -0.0799,0.0654 0.015,0.11621 0.0777,0.0417 0.0775,0.0432 -0.0188,0.11895 -0.0537,0.0422 -0.11305,0.0673 -0.1319,0.0556 -0.0384,-0.0237 -0.50363,0.20546 -0.50363,0.24814 0,0.015 0.0257,0.0486 0.0571,0.0747 0.0495,0.041 0.0438,0.0579 -0.0422,0.12556 -0.0748,0.0588 -0.10657,0.0664 -0.1287,0.0306 -0.0224,-0.0363 -0.0667,-0.0286 -0.18656,0.0326 -0.0864,0.0441 -0.19238,0.0802 -0.23542,0.0802 -0.0942,0 -0.0984,0.0293 -0.0172,0.11892 0.0565,0.0625 0.0525,0.0718 -0.0545,0.12716 -0.0806,0.0417 -0.11993,0.0466 -0.13004,0.0163 -0.0106,-0.0318 -0.0708,-0.0295 -0.22364,0.009 -0.11503,0.0285 -0.23307,0.047 -0.26231,0.0412 -0.0347,-0.007 -0.0447,0.0104 -0.0288,0.0499 0.0134,0.0333 0.034,0.0842 0.0459,0.11326 0.0246,0.0604 -0.17224,0.127 -0.20968,0.0709 -0.0132,-0.0197 -0.13249,-0.0173 -0.28351,0.006 -0.24772,0.0381 -0.26012,0.0449 -0.24941,0.13745 0.009,0.0775 -0.008,0.10002 -0.0803,0.11032 -0.0504,0.007 -0.10217,-0.003 -0.11512,-0.0242 -0.0129,-0.0204 -0.15013,-0.0442 -0.30487,-0.0527 l -0.28136,-0.0157 0.0214,0.10695 c 0.0195,0.0973 0.0113,0.10695 -0.0896,0.10695 -0.061,0 -0.11672,-0.017 -0.12375,-0.0377 -0.007,-0.0207 -0.0991,-0.054 -0.20464,-0.0741 -0.10552,-0.0201 -0.22462,-0.0491 -0.26468,-0.0646 -0.0627,-0.0242 -0.0701,-0.0138 -0.0533,0.0741 0.0175,0.0914 0.008,0.10221 -0.0902,0.10221 -0.0603,0 -0.10979,-0.0165 -0.10979,-0.0366 0,-0.0202 -0.0648,-0.0474 -0.14389,-0.0605 -0.0791,-0.0132 -0.19137,-0.039 -0.24941,-0.0573 -0.0955,-0.0302 -0.10552,-0.0245 -0.10552,0.0605 0,0.0792 -0.0184,0.0939 -0.11737,0.0939 -0.0646,0 -0.10739,-0.0162 -0.0952,-0.0359 0.0122,-0.0197 -0.0602,-0.048 -0.1608,-0.0628 -0.10066,-0.0148 -0.22186,-0.0414 -0.26935,-0.059 -0.075,-0.028 -0.0863,-0.0196 -0.0863,0.0628 0,0.0803 -0.0181,0.095 -0.11737,0.095 -0.0646,0 -0.1074,-0.0162 -0.0952,-0.0359 0.0122,-0.0197 -0.0602,-0.048 -0.16081,-0.0628 -0.10065,-0.0148 -0.22393,-0.0422 -0.27396,-0.0609 -0.0828,-0.0309 -0.0893,-0.0253 -0.0725,0.0628 0.0163,0.0852 0.005,0.0967 -0.0913,0.0967 -0.0604,0 -0.10979,-0.0156 -0.10979,-0.0345 0,-0.019 -0.0907,-0.0512 -0.20145,-0.0716 -0.1108,-0.0204 -0.23425,-0.0508 -0.27434,-0.0677 -0.064,-0.0268 -0.0698,-0.0181 -0.0472,0.0716 0.0235,0.0938 0.0161,0.10223 -0.0902,0.10223 -0.0637,0 -0.11585,-0.0165 -0.11585,-0.0366 0,-0.0202 -0.0648,-0.0475 -0.14389,-0.0609 -0.0791,-0.0133 -0.1741,-0.0326 -0.21103,-0.0427 -0.0482,-0.0133 -0.0672,0.004 -0.0672,0.0609 0,0.0629 -0.0243,0.0793 -0.11738,0.0793 -0.0646,0 -0.10739,-0.0162 -0.0952,-0.0359 0.0122,-0.0197 -0.0602,-0.048 -0.16082,-0.0628 -0.10065,-0.0148 -0.22393,-0.0422 -0.27396,-0.0609 -0.0828,-0.0309 -0.0893,-0.0253 -0.0725,0.0628 0.0163,0.0852 0.005,0.0967 -0.0913,0.0967 -0.0603,0 -0.10979,-0.0156 -0.10979,-0.0345 0,-0.019 -0.0907,-0.0513 -0.20145,-0.0716 -0.11079,-0.0204 -0.23165,-0.0499 -0.26859,-0.0654 -0.054,-0.0229 -0.0672,-0.009 -0.0672,0.0716 0,0.086 -0.0164,0.10003 -0.11737,0.10003 -0.0646,0 -0.10788,-0.0154 -0.0963,-0.0342 0.0116,-0.0188 -0.0435,-0.0453 -0.12245,-0.0589 -0.0789,-0.0136 -0.19103,-0.0341 -0.24906,-0.0456 -0.088,-0.0175 -0.10553,-0.008 -0.10553,0.0589 0,0.0634 -0.0241,0.0798 -0.11737,0.0798 -0.0646,0 -0.10783,-0.0154 -0.0962,-0.0343 0.0117,-0.0189 -0.078,-0.052 -0.19918,-0.0737 -0.12122,-0.0216 -0.25316,-0.0522 -0.29321,-0.0679 -0.0628,-0.0246 -0.0701,-0.0144 -0.0533,0.0737 0.0174,0.0909 0.008,0.10221 -0.087,0.10221 -0.0586,0 -0.11236,-0.017 -0.11939,-0.0377 -0.007,-0.0207 -0.0991,-0.054 -0.20464,-0.0741 -0.10552,-0.0201 -0.22462,-0.0491 -0.26468,-0.0646 -0.0627,-0.0242 -0.0701,-0.0138 -0.0532,0.0741 0.0175,0.0914 0.008,0.1022 -0.0903,0.1022 -0.0603,0 -0.10979,-0.0164 -0.10979,-0.0366 0,-0.0202 -0.0648,-0.0473 -0.14389,-0.0605 -0.0791,-0.0132 -0.19137,-0.039 -0.24941,-0.0573 -0.0955,-0.0302 -0.10552,-0.0245 -0.10552,0.0605 0,0.0792 -0.0184,0.0939 -0.11737,0.0939 -0.0646,0 -0.10788,-0.0154 -0.0963,-0.0342 0.0116,-0.0188 -0.0435,-0.0453 -0.12244,-0.0589 -0.0789,-0.0136 -0.19356,-0.0346 -0.25467,-0.0468 -0.0986,-0.0197 -0.10872,-0.0131 -0.0899,0.0589 0.0178,0.0683 0.004,0.081 -0.0871,0.081 -0.0596,0 -0.11408,-0.017 -0.12112,-0.0377 -0.007,-0.0207 -0.0991,-0.0548 -0.20464,-0.0758 -0.10552,-0.021 -0.23159,-0.0495 -0.28017,-0.0633 -0.0799,-0.0227 -0.0859,-0.0154 -0.063,0.0758 0.0232,0.0923 0.0154,0.10092 -0.0907,0.10092 -0.0638,0 -0.12182,-0.017 -0.12886,-0.0376 -0.007,-0.0207 -0.0991,-0.054 -0.20465,-0.0741 -0.10551,-0.0201 -0.22465,-0.0491 -0.26474,-0.0646 -0.0636,-0.0246 -0.0696,-0.0151 -0.0472,0.0741 0.0235,0.0934 0.0158,0.10224 -0.087,0.10224 -0.062,0 -0.11841,-0.017 -0.12544,-0.0377 -0.007,-0.0207 -0.0991,-0.054 -0.20464,-0.0741 -0.10553,-0.0201 -0.22466,-0.0491 -0.26475,-0.0646 -0.0635,-0.0246 -0.0696,-0.0151 -0.0473,0.0741 0.0236,0.0938 0.0161,0.10224 -0.0902,0.10224 -0.0637,0 -0.11584,-0.0159 -0.11584,-0.0353 0,-0.0194 -0.0518,-0.0454 -0.11511,-0.0576 -0.0633,-0.0122 -0.16943,-0.0328 -0.23582,-0.0457 -0.10869,-0.0211 -0.11859,-0.0154 -0.0995,0.0576 0.018,0.0687 0.004,0.081 -0.0903,0.081 -0.0613,0 -0.11152,-0.0156 -0.11152,-0.0345 0,-0.019 -0.0906,-0.0513 -0.20145,-0.0716 -0.11079,-0.0204 -0.23421,-0.0508 -0.27426,-0.0676 -0.0631,-0.0265 -0.0702,-0.017 -0.0533,0.0716 0.0181,0.0946 0.01,0.10221 -0.11171,0.10221 -0.0722,0 -0.12133,-0.016 -0.10922,-0.0356 0.0239,-0.0386 -0.0342,-0.0614 -0.25773,-0.101 -0.0794,-0.014 -0.15377,-0.0409 -0.16533,-0.0596 -0.0116,-0.0187 -0.0516,-0.034 -0.0889,-0.034 -0.0535,0 -0.0642,0.0242 -0.0509,0.11511 0.0136,0.0929 0.003,0.115 -0.0546,0.11452 -0.0393,-2.8e-4 -0.0946,-0.0152 -0.12274,-0.0331 z m 1.20236,-0.23494 c 0.0131,-0.0211 0.005,-0.0383 -0.0169,-0.0383 -0.0223,0 -0.0406,0.0172 -0.0406,0.0383 0,0.0211 0.008,0.0384 0.0169,0.0384 0.009,0 0.0276,-0.0172 0.0406,-0.0384 z m 0.67149,0 c 0,-0.0211 -0.008,-0.0383 -0.017,-0.0383 -0.009,0 -0.0276,0.0172 -0.0406,0.0383 -0.0131,0.0211 -0.005,0.0384 0.0169,0.0384 0.0223,0 0.0406,-0.0172 0.0406,-0.0384 z m 1.45807,0 c 0,-0.0211 -0.008,-0.0383 -0.0169,-0.0383 -0.009,0 -0.0276,0.0172 -0.0406,0.0383 -0.0131,0.0211 -0.005,0.0384 0.0169,0.0384 0.0223,0 0.0406,-0.0172 0.0406,-0.0384 z m 0.76742,0.0215 c 0,-0.009 -0.0173,-0.0276 -0.0383,-0.0406 -0.0211,-0.0131 -0.0384,-0.005 -0.0384,0.0169 0,0.0223 0.0172,0.0406 0.0384,0.0406 0.0211,0 0.0383,-0.008 0.0383,-0.0169 z m 0.67149,-0.0215 c 0.0131,-0.0211 0.005,-0.0383 -0.0169,-0.0383 -0.0223,0 -0.0406,0.0172 -0.0406,0.0383 0,0.0211 0.008,0.0384 0.0169,0.0384 0.009,0 0.0276,-0.0172 0.0406,-0.0384 z m 0.70985,0 c 0,-0.0211 -0.008,-0.0383 -0.017,-0.0383 -0.009,0 -0.0276,0.0172 -0.0406,0.0383 -0.0131,0.0211 -0.005,0.0384 0.0169,0.0384 0.0223,0 0.0406,-0.0172 0.0406,-0.0384 z m 2.16766,4.4e-4 c 0.0134,-0.0217 -0.002,-0.0281 -0.0361,-0.0151 -0.0665,0.0255 -0.0786,0.053 -0.0235,0.053 0.0198,0 0.0467,-0.0171 0.0596,-0.0379 z m 2.09148,-4.4e-4 c 0,-0.0211 -0.008,-0.0383 -0.0169,-0.0383 -0.009,0 -0.0276,0.0172 -0.0406,0.0383 -0.0131,0.0211 -0.005,0.0384 0.0169,0.0384 0.0223,0 0.0406,-0.0172 0.0406,-0.0384 z m 2.16794,0 c 0.0131,-0.0211 0.005,-0.0383 -0.0169,-0.0383 -0.0223,0 -0.0406,0.0172 -0.0406,0.0383 0,0.0211 0.008,0.0384 0.0169,0.0384 0.009,0 0.0276,-0.0172 0.0406,-0.0384 z m 0.70985,0 c 0,-0.0211 -0.008,-0.0383 -0.0169,-0.0383 -0.009,0 -0.0276,0.0172 -0.0406,0.0383 -0.0131,0.0211 -0.005,0.0384 0.017,0.0384 0.0223,0 0.0406,-0.0172 0.0406,-0.0384 z m 0.72904,0 c 0,-0.0211 -0.008,-0.0383 -0.0169,-0.0383 -0.009,0 -0.0276,0.0172 -0.0406,0.0383 -0.0131,0.0211 -0.005,0.0384 0.0169,0.0384 0.0223,0 0.0406,-0.0172 0.0406,-0.0384 z m -11.17536,-0.18735 c 0.005,-0.003 -0.0249,-0.069 -0.0672,-0.14782 -0.0423,-0.0789 -0.0768,-0.17401 -0.0768,-0.21152 0,-0.0455 -0.0683,-0.0984 -0.20574,-0.1592 -0.11316,-0.05 -0.23403,-0.13136 -0.2686,-0.18071 -0.0854,-0.12186 -0.079,-0.3509 0.0146,-0.53464 l 0.0775,-0.15195 h -0.19464 -0.19465 l 0.008,0.23981 c 0.006,0.18349 0.0293,0.26769 0.0978,0.35842 0.13069,0.17283 0.15259,0.41985 0.054,0.60896 -0.0435,0.0836 -0.0792,0.16292 -0.0792,0.17626 0,0.019 0.79429,0.0212 0.83464,0.003 z m 1.65945,0.004 c 0,-0.0164 -0.0286,-0.0706 -0.0635,-0.1205 -0.0349,-0.0499 -0.0741,-0.14436 -0.087,-0.20998 -0.0192,-0.0977 -0.0607,-0.13711 -0.22914,-0.21768 -0.11312,-0.0541 -0.22938,-0.13078 -0.25835,-0.17041 -0.0682,-0.0933 -0.0654,-0.39488 0.005,-0.51782 0.0807,-0.14108 0.0727,-0.15348 -0.0979,-0.15348 h -0.15549 l 0.009,0.22991 c 0.006,0.17251 0.0314,0.26246 0.10102,0.36024 0.15908,0.22358 0.15374,0.4304 -0.0197,0.76093 -0.008,0.0151 0.14662,0.033 0.34332,0.04 0.1967,0.007 0.37921,0.0163 0.40559,0.0207 0.0264,0.004 0.048,-0.005 0.048,-0.0219 z m 1.60459,-0.0271 c 0.009,-0.009 -0.0188,-0.0597 -0.061,-0.11334 -0.0422,-0.0537 -0.0878,-0.15626 -0.10123,-0.22792 -0.0209,-0.11136 -0.0522,-0.14223 -0.21511,-0.21233 -0.31155,-0.13403 -0.42079,-0.4027 -0.27167,-0.66819 0.0442,-0.0788 0.0805,-0.15245 0.0805,-0.16363 0,-0.0112 -0.0648,-0.015 -0.14389,-0.009 l -0.14389,0.0119 0.012,0.22615 c 0.009,0.16237 0.0383,0.26498 0.10552,0.36383 0.12097,0.17802 0.12963,0.50151 0.0183,0.68405 l -0.075,0.12292 0.23816,0.0127 c 0.24848,0.0133 0.5303,-7.3e-4 0.55734,-0.0278 z m 1.42305,0.0202 c 0.20199,-0.002 0.20566,-0.003 0.14075,-0.0753 -0.0366,-0.0405 -0.0885,-0.14758 -0.11515,-0.23796 -0.0267,-0.0904 -0.0727,-0.17675 -0.10238,-0.19192 -0.0296,-0.0152 -0.12726,-0.0613 -0.21695,-0.10256 l -0.16308,-0.075 v 0.20087 c 0,0.15098 -0.0238,0.23597 -0.0959,0.34222 -0.0527,0.0777 -0.0959,0.14492 -0.0959,0.14928 0,0.004 0.0993,0.004 0.22063,-2e-5 0.12135,-0.004 0.31396,-0.009 0.42803,-0.01 z m 1.79334,-0.0135 c 0.01,-0.01 -0.0176,-0.0759 -0.0608,-0.14689 -0.0433,-0.071 -0.0787,-0.17375 -0.0788,-0.22839 -1.5e-4,-0.0952 -0.1158,-0.18604 -0.24176,-0.1898 -0.0254,-7.3e-4 -0.0955,-0.0417 -0.15585,-0.0911 -0.1836,-0.15018 -0.18168,-0.38861 0.006,-0.76367 0.009,-0.0171 -0.0596,-0.0258 -0.15146,-0.0192 l -0.16707,0.012 v 0.23022 c 0,0.18929 0.0188,0.25683 0.10552,0.37987 0.13301,0.18864 0.14532,0.47527 0.0287,0.66666 -0.0422,0.0691 -0.0766,0.14007 -0.0766,0.15772 0,0.0326 0.75922,0.0254 0.79206,-0.008 z m 1.55902,0.0139 c 0.0635,-0.002 0.0639,-0.009 0.006,-0.097 -0.0342,-0.0522 -0.0835,-0.16727 -0.10967,-0.2557 -0.0416,-0.14108 -0.0718,-0.17151 -0.24565,-0.24825 l -0.19819,-0.0875 v 0.18157 c 0,0.10582 -0.032,0.24438 -0.0767,0.33209 -0.0422,0.0828 -0.0768,0.16101 -0.0768,0.17382 0,0.0128 0.14246,0.0187 0.31656,0.0132 0.17412,-0.005 0.34718,-0.0111 0.3846,-0.0122 z m 1.67782,0.0138 c 0,-0.006 -0.0332,-0.0686 -0.0739,-0.13843 -0.0407,-0.0698 -0.0851,-0.18813 -0.0987,-0.26296 -0.0222,-0.12164 -0.0489,-0.14674 -0.25222,-0.23659 l -0.22742,-0.10051 -2.9e-4,0.23658 c -1.5e-4,0.17003 -0.0214,0.26858 -0.0752,0.35036 -0.0412,0.0626 -0.0599,0.123 -0.0414,0.13429 0.0348,0.0212 0.76919,0.0377 0.76919,0.0172 z m 1.444,-0.0159 h 0.24821 l -0.0931,-0.12471 c -0.0513,-0.0686 -0.10458,-0.18894 -0.1186,-0.26747 -0.0222,-0.12425 -0.0487,-0.15306 -0.2048,-0.22209 -0.27007,-0.11947 -0.31643,-0.17582 -0.31643,-0.38462 0,-0.0997 0.0252,-0.24157 0.056,-0.31533 0.0661,-0.15827 0.0504,-0.18223 -0.11999,-0.18223 -0.10519,0 -0.12901,0.0153 -0.13419,0.0863 -0.0176,0.24051 0.0173,0.42531 0.10436,0.5536 0.12486,0.18399 0.13395,0.56488 0.0171,0.71351 -0.0423,0.0537 -0.0767,0.10675 -0.0767,0.11797 0,0.025 0.26834,0.0548 0.33889,0.0375 0.0281,-0.007 0.1628,-0.0125 0.29932,-0.0125 z m -12.89823,-0.0672 c -0.0351,-0.0841 -0.1039,-0.28414 -0.11624,-0.33785 -0.005,-0.0222 -0.0808,-0.0641 -0.1682,-0.0929 -0.23999,-0.0792 -0.34806,-0.20679 -0.34806,-0.41093 0,-0.0931 0.0263,-0.22029 0.0585,-0.28255 0.0577,-0.11151 0.0571,-0.1132 -0.0424,-0.1132 -0.0556,0 -0.16638,-0.0518 -0.24632,-0.11511 -0.0799,-0.0633 -0.16876,-0.11487 -0.19738,-0.11457 -0.0692,7.3e-4 -0.28449,0.38152 -0.27094,0.47908 0.0185,0.13339 -0.10843,0.3983 -0.24473,0.51064 l -0.13134,0.10826 0.23993,0.10833 c 0.13197,0.0596 0.27447,0.12348 0.31668,0.14199 0.15617,0.0685 0.73609,0.17961 0.95378,0.18274 0.19975,0.003 0.22162,-0.004 0.19672,-0.0639 z m 14.40877,-0.17749 c 0.64949,-0.22941 1.10433,-0.4844 0.86403,-0.4844 -0.0678,0 -0.28577,-0.21814 -0.32741,-0.32766 -0.0218,-0.0575 -0.0777,-0.0934 -0.17275,-0.11119 -0.21223,-0.0398 -0.30611,-0.0935 -0.37888,-0.21673 -0.0612,-0.10358 -0.0829,-0.11183 -0.29413,-0.11183 -0.25216,0 -0.24187,-0.0137 -0.22938,0.3055 0.006,0.15756 0.0312,0.23685 0.10069,0.31949 0.077,0.0915 0.0925,0.15177 0.0925,0.35892 0,0.13694 -0.0178,0.28238 -0.0397,0.32321 -0.0519,0.097 -0.0422,0.0956 0.38506,-0.0553 z m -3.65393,-0.68585 c -0.0301,-0.13496 -0.0229,-0.19285 0.0422,-0.33574 l 0.0786,-0.17267 -0.11726,-0.0123 c -0.0645,-0.007 -0.12706,-0.003 -0.13904,0.009 -0.012,0.0119 -0.0202,0.12392 -0.0182,0.24877 0.003,0.17701 0.0226,0.24884 0.0899,0.32626 0.0474,0.0546 0.0894,0.0993 0.0933,0.0993 0.003,0 -0.009,-0.0734 -0.0295,-0.16307 z m -10.66802,0.0502 c 0.0662,-0.0552 0.0847,-0.10836 0.0801,-0.22894 -0.003,-0.0864 -0.0215,-0.15704 -0.0402,-0.15704 -0.0364,0 -0.12328,0.187 -0.16597,0.35705 -0.0303,0.1207 0.006,0.12904 0.12613,0.0289 z m 1.76909,-0.2187 c -0.004,-0.092 -0.0215,-0.16728 -0.0372,-0.16728 -0.0368,0 -0.18486,0.39382 -0.16217,0.43124 0.009,0.0156 0.0602,3e-4 0.1126,-0.0342 0.0804,-0.0527 0.0941,-0.0888 0.0868,-0.22981 z m 4.04185,0.14681 c -0.009,-0.0982 0.0124,-0.19327 0.0661,-0.28894 0.0441,-0.0784 0.0801,-0.15933 0.0801,-0.1798 0,-0.0552 -0.25761,-0.0452 -0.27712,0.0107 -0.0397,0.11399 0.005,0.46027 0.0688,0.53065 0.0367,0.0405 0.0687,0.0737 0.0713,0.0737 0.003,0 -0.002,-0.0659 -0.009,-0.14635 z m -2.45586,0.0409 c 0.0548,-0.0642 0.0737,-0.3637 0.0259,-0.41145 -0.0306,-0.0307 -0.19134,0.40134 -0.16511,0.44379 0.0323,0.0523 0.0754,0.0423 0.13921,-0.0324 z m 3.25602,-0.12471 c 0.004,-0.0317 0.005,-0.11799 0.002,-0.19185 -0.005,-0.12752 -0.009,-0.13048 -0.0628,-0.0587 -0.0737,0.0975 -0.1432,0.35539 -0.11017,0.40884 0.0305,0.0493 0.15997,-0.0704 0.17136,-0.15825 z m 2.42931,0.0776 c -0.0152,-0.0761 0.004,-0.17212 0.0585,-0.28736 0.0447,-0.0952 0.0814,-0.18193 0.0814,-0.19271 0,-0.0107 -0.0604,-0.0196 -0.13429,-0.0196 -0.12997,0 -0.16153,0.045 -0.13963,0.19907 0.002,0.0145 0.007,0.0836 0.0113,0.15348 0.006,0.10519 0.0859,0.26137 0.13337,0.26137 0.007,0 0.002,-0.0514 -0.0106,-0.11426 z m -4.07949,0.017 c 0.0483,-0.0437 0.0604,-0.10041 0.0468,-0.22063 -0.0238,-0.21148 -0.0363,-0.21882 -0.10263,-0.0601 -0.13127,0.31416 -0.10836,0.4293 0.0558,0.28069 z m 3.23183,0.005 c 0.0496,-0.0377 0.0659,-0.0987 0.0609,-0.22901 -0.003,-0.0977 -0.0188,-0.17766 -0.0334,-0.17766 -0.0358,0 -0.18677,0.41357 -0.16053,0.43981 0.0306,0.0306 0.058,0.0237 0.13304,-0.0331 z m 1.58338,7.1e-4 c 0.0711,-0.0498 0.0821,-0.12191 0.0564,-0.36903 -0.003,-0.0317 -0.0475,0.0287 -0.0984,0.1343 -0.13379,0.27776 -0.12106,0.34894 0.042,0.23473 z m 1.67447,-0.17926 c 0.003,-0.0516 0.002,-0.12776 -8.7e-4,-0.16922 -0.004,-0.0659 -0.0122,-0.0683 -0.0596,-0.0192 -0.0654,0.0677 -0.14376,0.34145 -0.11238,0.3922 0.0352,0.057 0.1681,-0.0996 0.173,-0.20379 z m -14.0117,0.0719 c 0,-0.0671 0.0197,-0.17643 0.0437,-0.24298 0.0385,-0.10646 0.0316,-0.14178 -0.0576,-0.29388 -0.11567,-0.19738 -0.12529,-0.29624 -0.0441,-0.45328 0.0544,-0.1053 0.0524,-0.11447 -0.0422,-0.18888 -0.0862,-0.0678 -0.10671,-0.0709 -0.15426,-0.0234 -0.0302,0.0301 -0.0775,0.0461 -0.10516,0.0356 -0.0276,-0.0106 -0.0725,0.008 -0.0995,0.04 -0.0271,0.0326 -0.0892,0.0593 -0.13817,0.0593 -0.0489,0 -0.0976,0.0139 -0.10808,0.0309 -0.0232,0.0376 -0.28477,0.0298 -0.3813,-0.0113 -0.0383,-0.0164 -0.0866,-0.0129 -0.1071,0.008 -0.0242,0.0242 0.16581,0.23479 0.54158,0.59984 0.31843,0.30936 0.59542,0.56246 0.61552,0.56246 0.0201,0 0.0365,-0.0549 0.0365,-0.12198 z m 15.62496,0.0548 c 0.0519,-0.0597 0.0634,-0.33459 0.0158,-0.38212 -0.0185,-0.0185 -0.13908,0.32687 -0.13908,0.39854 0,0.0705 0.0538,0.0633 0.12325,-0.0164 z m 3.60719,-0.73002 c 0.24737,-0.20291 0.44311,-0.37558 0.435,-0.3837 -0.008,-0.008 -0.0551,0.0112 -0.10442,0.0428 -0.15786,0.10143 -0.73696,0.41147 -0.88853,0.47572 -0.11831,0.0501 -0.14245,0.0774 -0.12523,0.14158 0.0118,0.0437 0.0216,0.11956 0.0219,0.16858 l 5.8e-4,0.0891 0.10552,-0.0826 c 0.058,-0.0454 0.30791,-0.24862 0.55527,-0.45154 z m -1.70201,0.0969 c 0.0381,-0.0712 0.0396,-0.20371 0.003,-0.29737 -0.004,-0.0106 -0.004,-0.0365 -1.2e-4,-0.0576 0.005,-0.0256 -0.006,-0.0256 -0.0314,0 -0.0534,0.0529 -0.10171,0.44126 -0.0549,0.44126 0.0203,0 0.0576,-0.0389 0.0829,-0.0863 z m -16.83947,-0.0672 c 0.0487,-0.0422 0.0751,-0.0767 0.0587,-0.0767 -0.0164,0 -0.009,-0.0259 0.018,-0.0576 0.0388,-0.0468 0.0371,-0.0576 -0.009,-0.0576 -0.0556,0 -0.37498,0.21266 -0.37498,0.24966 0,0.0524 0.22983,0.009 0.30697,-0.0578 z m -1.04369,-4.91908 c 0.0713,-0.0713 0.0547,-0.14506 -0.0402,-0.18039 -0.10378,-0.0386 -0.16838,-0.0186 -0.19914,0.0616 -0.0486,0.1266 0.13869,0.21952 0.23943,0.11879 z m -0.28239,-0.16953 c 0.0293,-0.11686 0.01,-0.1482 -0.0728,-0.11653 -0.0745,0.0286 -0.0796,0.21699 -0.006,0.21699 0.0293,0 0.0648,-0.0452 0.0786,-0.10046 z m 12.03146,-2.33608 c 0,-0.0596 -0.0217,-0.0959 -0.0576,-0.0959 -0.068,0 -0.0709,0.0185 -0.0178,0.11763 0.0534,0.0998 0.0754,0.0934 0.0754,-0.0217 z m 0.23023,-0.0406 c 0,-0.0304 -0.0172,-0.0553 -0.0383,-0.0553 -0.0211,0 -0.0384,0.0356 -0.0384,0.079 0,0.0435 0.0172,0.0683 0.0384,0.0553 0.0211,-0.0131 0.0383,-0.0486 0.0383,-0.079 z"
       id="B-Churchill-L75"
       style="stroke-width:0.865718" />
  </g>
</svg>
