<?xml version="1.0" encoding="UTF-8" standalone="no"?>
<!-- Created with Inkscape (http://www.inkscape.org/) -->

<svg
   width="24.674471mm"
   height="9.8991899mm"
   viewBox="0 0 24.674471 9.8991899"
   version="1.1"
   id="svg26913"
   sodipodi:docname="inkporter-svg-5953xn1e.svg"
   xmlns:inkscape="http://www.inkscape.org/namespaces/inkscape"
   xmlns:sodipodi="http://sodipodi.sourceforge.net/DTD/sodipodi-0.dtd"
   xmlns="http://www.w3.org/2000/svg"
   xmlns:svg="http://www.w3.org/2000/svg">
  <sodipodi:namedview
     id="namedview26915"
     pagecolor="#ffffff"
     bordercolor="#666666"
     borderopacity="1.0"
     inkscape:pageshadow="2"
     inkscape:pageopacity="0.0"
     inkscape:pagecheckerboard="0"
     inkscape:document-units="mm"
     showgrid="false"
     inkscape:zoom="0.32026164"
     inkscape:cx="-131.14277"
     inkscape:cy="1047.581"
     inkscape:window-width="1920"
     inkscape:window-height="1017"
     inkscape:window-x="-8"
     inkscape:window-y="-8"
     inkscape:window-maximized="1"
     inkscape:current-layer="layer1" />
  <defs
     id="defs26910" />
  <g
     inkscape:label="Layer 1"
     inkscape:groupmode="layer"
     id="layer1"
     transform="translate(-63.66833,-361.03371)">
    <path
       id="B-Comet"
       d="m 76.9599,361.03395 -0.0251,0.0999 -0.0252,0.0999 -0.38932,0.0264 c -0.66211,0.0446 -0.81879,0.0494 -1.9341,0.0589 l -1.08239,0.009 v 0.1051 0.1051 h 1.06942 1.06943 l 0.0279,0.0451 c 0.0153,0.0249 -0.0119,0.0876 -0.0606,0.13933 -0.10462,0.11134 -0.11558,0.2585 -0.022,0.29442 0.086,0.033 0.41157,0.033 0.49751,0 0.0947,-0.0364 0.0822,-0.18355 -0.0253,-0.29811 l -0.0919,-0.0978 0.0411,-0.0412 0.0412,-0.0411 0.14506,0.0416 c 0.0798,0.0229 0.27096,0.0416 0.42471,0.0416 h 0.27953 l 0.0255,0.0666 c 0.0141,0.0365 0.0256,0.19735 0.0256,0.35731 v 0.29079 h 0.1261 0.1261 v 0.16526 0.16519 l -0.0946,0.0134 -0.0946,0.0133 -0.0403,0.1366 c -0.0484,0.1642 -0.0971,0.16931 -0.30006,0.0316 -0.0852,-0.0579 -0.20891,-0.1051 -0.27504,-0.1051 h -0.12027 v 0.17823 c 0,0.098 -0.0331,0.25874 -0.0735,0.35713 l -0.0735,0.1789 h -0.11311 -0.11299 l -0.0131,0.15732 -0.0131,0.15722 -0.0735,0.0139 -0.0735,0.014 v -0.0871 -0.0872 h -0.42035 -0.42034 v 0.0502 c 0,0.0277 0.0494,0.10168 0.10969,0.1647 l 0.10969,0.11452 -0.0293,0.0475 -0.0293,0.0476 -0.0567,-0.0471 c -0.0312,-0.026 -0.10804,-0.0411 -0.17069,-0.0336 l -0.11381,0.0134 -0.0463,0.0841 c -0.0748,0.13612 -0.11618,0.14459 -0.244,0.0501 l -0.12102,-0.0894 -0.0542,0.0407 c -0.0298,0.0224 -0.16252,0.11287 -0.29482,0.20106 l -0.24046,0.16033 -4.0016,0.0591 c -2.20087,0.0325 -4.16711,0.0596 -4.3694,0.0604 l -0.36782,0.001 v -0.063 c 0,-0.0348 -0.0284,-0.063 -0.063,-0.063 -0.0346,0 -0.063,0.0284 -0.063,0.063 0,0.0789 -0.0124,0.0781 -0.29425,-0.021 l -0.23119,-0.0813 -0.23235,-0.001 -0.23233,-10e-4 -0.0934,0.0654 -0.0934,0.0654 v 0.26846 0.26847 l 0.0934,0.0654 0.0934,0.0654 0.23233,-0.001 0.23235,-10e-4 0.23119,-0.0813 c 0.28193,-0.0992 0.29425,-0.10003 0.29425,-0.021 0,0.0348 0.0284,0.063 0.063,0.063 0.0348,0 0.063,-0.0284 0.063,-0.063 v -0.063 l 0.36782,10e-4 c 0.20229,0 2.16097,0.0276 4.35266,0.06 l 3.98493,0.0588 0.16616,0.15014 c 0.0914,0.0826 0.19925,0.1505 0.23965,0.15082 h 0.0734 l -0.063,0.0408 c -0.0346,0.0224 -0.2061,0.0411 -0.38095,0.0413 h -0.31789 l -0.11299,0.11791 c -0.11901,0.12422 -0.14891,0.28094 -0.0603,0.31665 0.0289,0.0118 -0.23594,0.0226 -0.58851,0.0245 l -0.64102,0.004 v -0.16814 -0.16814 h -0.42035 -0.42034 v 0.0502 c 0,0.0277 0.0508,0.10333 0.11299,0.16816 l 0.11299,0.11788 h -0.13399 -0.13398 v 0.0792 0.0792 l -0.084,0.022 -0.0841,0.022 v 0.19311 0.19308 h -0.19966 c -0.10981,0 -0.29999,0.0124 -0.42265,0.0272 l -0.22306,0.0267 -0.0236,-0.0901 c -0.0305,-0.11652 -0.0979,-0.11688 -0.0979,0 v 0.0896 l -0.16814,-0.0225 -0.16813,-0.0226 v 0.0906 0.0907 l 0.35827,-0.015 0.35828,-0.0148 0.0683,0.0569 0.0683,0.0569 0.31954,0.0245 0.31953,0.0245 -1.24003,0.007 -1.24003,0.007 -0.22158,0.10309 c -0.12189,0.0568 -0.32523,0.20123 -0.45188,0.32101 l -0.23029,0.21772 v 0.28547 c 0,0.31596 0.0389,0.45446 0.15976,0.57058 l 0.0808,0.0775 0.0236,0.23881 c 0.0299,0.30343 0.13065,0.5156 0.34596,0.72799 l 0.17043,0.16812 1.31573,0.62971 c 0.72363,0.34637 1.32469,0.64429 1.33567,0.66205 0.0106,0.0178 3.71199,0 0,0 l 13.4715,0.0118 v 0 0 l 1.31334,-0.54138 c 0.72234,-0.29771 1.40465,-0.60289 1.51621,-0.67823 0.3569,-0.24093 0.55571,-0.63953 0.51748,-1.03746 l -0.019,-0.19787 0.0602,-0.023 c 0.0331,-0.0127 0.11535,-0.0231 0.18276,-0.0231 h 0.12266 v -0.20772 c 0,-0.11417 -0.0159,-0.21755 -0.0355,-0.22962 -0.0196,-0.0121 -0.0465,-0.4478 -0.06,-0.9682 -0.0133,-0.52043 -0.0363,-0.96566 -0.0509,-0.9894 l -0.0267,-0.0431 -2.80335,-0.006 c -1.54184,-0.004 -2.76081,-0.014 -2.70878,-0.0239 0.10356,-0.0199 0.11605,-0.0765 0.0536,-0.24079 l -0.041,-0.10781 H 81.95345 81.2368 l -0.0411,0.10781 c -0.0594,0.15608 -0.0508,0.21975 0.0325,0.24153 0.0405,0.0106 -0.15343,0.0186 -0.43087,0.0178 l -0.50441,-10e-4 0.18916,-0.0252 0.18915,-0.0252 0.0126,-0.21961 0.0127,-0.21963 0.63882,-0.0118 0.6389,-0.0118 0.0118,-0.87977 c 0.006,-0.48388 -0.004,-0.89438 -0.021,-0.91221 -0.0179,-0.0179 -0.28771,-0.0437 -0.59982,-0.0574 -0.31211,-0.0138 -0.64787,-0.0348 -0.74612,-0.0468 l -0.17865,-0.0217 3.2e-4,-0.11299 c 1.5e-4,-0.0621 0.0379,-0.16972 0.0838,-0.23908 0.0459,-0.0694 0.0838,-0.14974 0.0838,-0.17864 l 3.2e-4,-0.0525 h -0.12832 -0.12832 l 0.0324,-0.36782 c 0.044,-0.50029 0.0424,-0.63763 -0.007,-0.64883 l -0.0421,-0.009 -0.0287,0.2293 c -0.0158,0.12615 -0.041,0.35708 -0.0558,0.51313 l -0.0271,0.28374 H 80.10103 79.9782 l 3.2e-4,0.0525 c 1.5e-4,0.0289 0.0379,0.10934 0.0838,0.17866 0.0459,0.0693 0.0837,0.16659 0.0838,0.21608 l 3.2e-4,0.09 -0.15764,0.0196 c -0.0867,0.0106 -0.26639,0.0106 -0.39933,-0.001 l -0.2417,-0.0209 v -0.26739 -0.2674 h -0.0446 -0.0447 l 0.0133,-0.40984 0.0132,-0.40983 -0.0421,-0.021 -0.0421,-0.021 -0.0361,0.43084 c -0.0198,0.23699 -0.049,0.43086 -0.0648,0.43086 -0.0158,0 -0.0469,-0.0614 -0.069,-0.13661 l -0.0403,-0.13662 -0.76713,-0.0118 -0.76714,-0.0118 v -0.16715 -0.16725 h 0.12611 c 0.0693,0 0.1261,-0.019 0.1261,-0.0422 0,-0.0383 0.58834,-0.34147 0.76714,-0.3953 l 0.0735,-0.0222 v -0.0853 -0.0854 h 0.35729 0.3573 v -0.0841 -0.0841 h 0.063 0.063 v -0.10509 -0.1051 h -0.063 -0.063 v -0.084 -0.0841 h -0.14713 -0.14712 v -0.063 -0.063 h -0.25221 -0.25221 v 0.063 0.063 h -0.65154 -0.65154 v -0.063 -0.063 h -0.1005 z m 2.04565,0.20978 h 0.0655 c 0.036,0 0.0655,0.0188 0.0655,0.0421 0,0.0231 -0.0179,0.0421 -0.0396,0.0421 -0.0218,0 -0.0512,-0.0189 -0.0655,-0.0421 z m -1.67646,0.13077 c 0.0419,0 0.0838,0.002 0.11558,0.007 0.0636,0.009 0.0118,0.0174 -0.11558,0.0174 -0.12716,0 -0.17917,-0.008 -0.11558,-0.0174 0.0317,-0.004 0.0736,-0.007 0.11558,-0.007 z m 1.72342,0.16347 c 0.0462,0 0.0841,0.0189 0.0841,0.0421 0,0.0231 -0.0378,0.0421 -0.0841,0.0421 -0.0462,0 -0.0841,-0.0188 -0.0841,-0.0421 0,-0.0231 0.0378,-0.0421 0.0841,-0.0421 z m -3.21565,0.0421 c 0.0346,0 0.063,0.0253 0.063,0.0566 0,0.0311 0.0378,0.0909 0.0841,0.13267 0.0462,0.042 0.0841,0.092 0.0841,0.11158 0,0.0196 -0.10404,0.0356 -0.2312,0.0356 -0.24936,0 -0.27801,-0.0286 -0.14711,-0.14712 0.0462,-0.0419 0.084,-0.10156 0.084,-0.13267 0,-0.0311 0.0284,-0.0566 0.063,-0.0566 z m 2.09205,0.21017 h 0.16001 c 0.088,0 0.17131,0.0181 0.18513,0.0406 l 0.0252,0.0407 -0.29589,0.14902 -0.29588,0.149 v -0.10263 -0.1025 l 0.11075,-0.0871 z m 2.25986,1.30307 c 0.0224,0 0.0406,0.0284 0.0406,0.063 0,0.0348 -0.007,0.063 -0.0165,0.063 -0.009,0 -0.0275,-0.0284 -0.0408,-0.063 -0.0133,-0.0348 -0.006,-0.063 0.0165,-0.063 z m 0.20755,0 c 0.0224,0 0.0298,0.0284 0.0165,0.063 -0.0133,0.0348 -0.0316,0.063 -0.0407,0.063 -0.009,0 -0.0165,-0.0284 -0.0165,-0.063 0,-0.0348 0.0184,-0.063 0.0407,-0.063 z m -16.28718,1.63936 c 0.0346,0 0.063,0.0284 0.063,0.063 0,0.0348 -0.0284,0.063 -0.063,0.063 -0.0346,0 -0.063,-0.0284 -0.063,-0.063 0,-0.0348 0.0284,-0.063 0.063,-0.063 z m 4.21539,3.9933 h 0.0699 c 0.0384,0 0.13468,0.0441 0.21395,0.098 l 0.14416,0.098 -0.12159,0.11652 -0.12159,0.11653 -0.064,-0.0988 c -0.0351,-0.0543 -0.0768,-0.15086 -0.0925,-0.21444 z m 0.5586,0.27553 0.0721,0.0451 0.072,0.0451 0.013,0.17439 0.013,0.17437 -0.0549,-10e-4 c -0.0791,-0.002 -0.31376,-0.1091 -0.34268,-0.1559 -0.0134,-0.0219 0.0322,-0.0941 0.10156,-0.16066 z m 0.29121,0.1821 0.1261,0.0745 c 0.15082,0.0891 0.15751,0.12221 0.0316,0.15598 -0.1488,0.0398 -0.15763,0.0342 -0.15763,-0.10203 z m 0.66837,0.37478 c 0.0124,-10e-4 0.0206,10e-4 0.0237,0.006 0.0122,0.0197 0.11476,0.0692 0.22782,0.10981 l 0.20574,0.074 0.0505,0.16895 c 0.0611,0.20393 0.14236,0.34035 0.31084,0.52191 0.0697,0.0751 0.11836,0.13489 0.10804,0.13283 -0.0106,-0.002 -0.37601,-0.17916 -0.81261,-0.39359 l -0.79381,-0.38981 0.14868,-0.0279 c 0.0818,-0.0153 0.23504,-0.0739 0.34062,-0.12995 0.0792,-0.0421 0.1532,-0.0694 0.19039,-0.0721 z m 16.23496,0.16797 c 0.14637,0 0.16566,0.0153 0.40606,0.10463 l 0.26428,0.0981 -0.80646,0.33366 c -0.44352,0.18353 -0.8272,0.34134 -0.85268,0.35072 -0.0254,0.009 0.0325,-0.0688 0.12873,-0.17379 0.196,-0.21368 0.28415,-0.36667 0.32758,-0.5683 l 0.0294,-0.13661 0.30139,-0.005 c 0.0899,-10e-4 0.15285,-0.004 0.20164,-0.004 z m -13.06814,0.008 h 0.1144 0.11441 l 0.0525,0.1756 c 0.12021,0.40121 0.40237,0.69677 0.82239,0.86146 v 0 l 0.1261,0.0494 -1.11392,0.001 -1.11392,10e-4 0.16279,-0.0581 c 0.33337,-0.11884 0.70593,-0.51854 0.78834,-0.84572 z m 2.94244,0 h 0.30359 0.3036 l 0.0525,0.1756 c 0.1202,0.40121 0.40235,0.69677 0.82238,0.86146 v 0 l 0.12611,0.0494 -1.30309,0.001 -1.30307,10e-4 0.1628,-0.0581 c 0.33336,-0.11884 0.70592,-0.51854 0.78832,-0.84572 z m 3.32074,0 h 0.3036 0.30361 l 0.0525,0.1756 c 0.12021,0.40121 0.40235,0.69677 0.8224,0.86146 v 0 l 0.12609,0.0494 -1.30308,0.001 -1.30307,10e-4 0.1628,-0.0581 c 0.33336,-0.11884 0.70593,-0.51854 0.78831,-0.84572 z m 3.32076,0 h 0.13545 0.13546 l 0.0525,0.1756 c 0.1202,0.40121 0.40235,0.69677 0.82239,0.86146 v 0 l 0.1261,0.0494 -1.13494,0.001 -1.13494,10e-4 0.16279,-0.0581 c 0.33336,-0.11884 0.70593,-0.51854 0.78834,-0.84572 z" />
  </g>
</svg>
