<?xml version="1.0" encoding="UTF-8" standalone="no"?>
<!-- Created with Inkscape (http://www.inkscape.org/) -->

<svg
   width="19.725456mm"
   height="10.648133mm"
   viewBox="0 0 19.725456 10.648133"
   version="1.1"
   id="svg5570"
   sodipodi:docname="inkporter-svg-ab4vzwf8.svg"
   xmlns:inkscape="http://www.inkscape.org/namespaces/inkscape"
   xmlns:sodipodi="http://sodipodi.sourceforge.net/DTD/sodipodi-0.dtd"
   xmlns="http://www.w3.org/2000/svg"
   xmlns:svg="http://www.w3.org/2000/svg">
  <sodipodi:namedview
     id="namedview5572"
     pagecolor="#ffffff"
     bordercolor="#666666"
     borderopacity="1.0"
     inkscape:pageshadow="2"
     inkscape:pageopacity="0.0"
     inkscape:pagecheckerboard="0"
     inkscape:document-units="mm"
     showgrid="false"
     inkscape:zoom="10.248373"
     inkscape:cx="992.2551"
     inkscape:cy="1148.9141"
     inkscape:window-width="3840"
     inkscape:window-height="2081"
     inkscape:window-x="2391"
     inkscape:window-y="-9"
     inkscape:window-maximized="1"
     inkscape:current-layer="layer1" />
  <defs
     id="defs5567" />
  <g
     inkscape:label="Layer 1"
     inkscape:groupmode="layer"
     id="layer1"
     transform="translate(-253.62221,-293.73491)">
    <path
       d="m 265.09788,304.38157 c -0.0162,-0.0162 -0.11467,-0.0281 -0.19815,-0.0239 -0.0819,0.004 -0.21662,0.004 -0.30564,6.6e-4 -0.0234,-7.3e-4 -0.0964,0.003 -0.16235,0.009 -0.0709,0.006 -0.12779,0.005 -0.13928,-0.004 -0.0118,-0.009 -0.11993,-0.0118 -0.25938,-0.009 -0.29556,0.008 -0.28665,0.008 -0.71188,0.004 -0.21305,-0.001 -0.35571,-0.009 -0.36755,-0.0187 -0.0134,-0.0105 -0.0324,-0.0105 -0.0619,10e-4 -0.0382,0.0155 -0.1278,0.0156 -0.61518,7.1e-4 -0.0256,-7.1e-4 -0.087,0.004 -0.13654,0.009 -0.0618,0.008 -0.10159,0.005 -0.12648,-0.008 -0.0279,-0.0148 -0.0481,-0.0154 -0.0863,-0.003 -0.0656,0.0228 -0.17705,0.0221 -0.24243,-10e-4 -0.0384,-0.0139 -0.0551,-0.0143 -0.0629,-0.001 -0.008,0.0118 -0.10047,0.017 -0.29301,0.0164 -0.2509,-7.3e-4 -0.28012,-0.004 -0.26309,-0.0245 0.0163,-0.0201 0.0146,-0.0217 -0.0118,-0.0118 -0.11165,0.0449 -0.29704,0.0547 -0.31165,0.0166 -0.005,-0.0132 -0.0212,-0.0233 -0.0363,-0.0233 -0.0151,0 -0.0361,0.0105 -0.0467,0.0233 -0.0134,0.0162 -0.0492,0.0233 -0.11849,0.0233 -0.0738,0 -0.10139,-0.005 -0.10811,-0.0233 -0.0118,-0.0292 -0.0887,-0.0304 -0.11231,-0.003 -0.0138,0.0165 -0.0762,0.0214 -0.28166,0.0214 -0.21001,0 -0.26564,-0.004 -0.27215,-0.0214 -0.0105,-0.0281 -0.058,-0.0272 -0.0819,0.001 -0.015,0.0182 -0.0473,0.021 -0.16052,0.0143 -0.1173,-0.006 -0.65932,-0.0207 -0.79941,-0.0205 -0.0212,5e-5 -0.16364,0.004 -0.31634,0.008 -0.20714,0.005 -0.28692,0.003 -0.31414,-0.0118 -0.0288,-0.0155 -0.051,-0.0156 -0.10562,-7.3e-4 -0.10561,0.0284 -0.23415,0.0242 -0.25213,-0.008 -0.0132,-0.0224 -0.0209,-0.0236 -0.0556,-0.008 -0.0224,0.0105 -0.0862,0.0187 -0.14152,0.0187 -0.0902,0 -0.10432,-0.004 -0.13655,-0.0418 -0.0345,-0.0402 -0.0374,-0.0408 -0.0747,-0.0164 -0.0347,0.0226 -0.0464,0.0231 -0.11244,0.003 -0.0753,-0.0226 -0.16237,-0.0967 -0.16237,-0.13795 0,-0.0181 -0.008,-0.0199 -0.0391,-0.008 -0.0285,0.0105 -0.061,0.008 -0.11992,-0.0118 -0.0655,-0.0216 -0.0819,-0.0343 -0.0862,-0.0655 -0.009,-0.0618 -0.0281,-0.0734 -0.13347,-0.0802 -0.10719,-0.006 -0.1706,-0.0437 -0.158,-0.0918 0.005,-0.022 -0.005,-0.0262 -0.0686,-0.0267 -0.0414,-3.6e-4 -0.0945,-0.0105 -0.11808,-0.0239 -0.0235,-0.0132 -0.0582,-0.0304 -0.0774,-0.0393 -0.0223,-0.0105 -0.0348,-0.0295 -0.0348,-0.054 0,-0.0435 -0.04,-0.0625 -0.12071,-0.0576 -0.0583,0.004 -0.20427,-0.0685 -0.20427,-0.10098 0,-0.0118 -0.0166,-0.0207 -0.0393,-0.0207 -0.0449,0 -0.17746,-0.0632 -0.20685,-0.0986 -0.0105,-0.0132 -0.0152,-0.0311 -0.009,-0.0399 0.006,-0.0105 -0.0118,-0.0161 -0.0501,-0.0161 -0.0609,0 -0.21355,-0.0706 -0.25149,-0.11625 -0.0105,-0.0132 -0.0293,-0.023 -0.0417,-0.023 -0.0461,0 -0.22103,-0.0989 -0.23088,-0.13054 -0.0147,-0.0469 -0.0344,-0.0547 -0.14168,-0.0549 -0.072,-1.7e-4 -0.0995,-0.006 -0.10615,-0.0234 -0.005,-0.0132 -0.0191,-0.0232 -0.0312,-0.0232 -0.0118,0 -0.0325,-0.0244 -0.045,-0.0542 -0.0205,-0.0492 -0.0686,-0.0762 -0.0686,-0.0387 0,0.032 -0.0636,0.0135 -0.14623,-0.0426 -0.047,-0.032 -0.083,-0.065 -0.0801,-0.0734 0.0118,-0.034 -0.0235,-0.0697 -0.0693,-0.0697 -0.0495,0 -0.0889,-0.0166 -0.14066,-0.0593 -0.0623,-0.0512 -0.0729,-0.0657 -0.0646,-0.0878 0.0132,-0.0331 -0.029,-0.11599 -0.0585,-0.11599 -0.0247,0 -0.12163,-0.0968 -0.12163,-0.12136 0,-0.006 0.0105,-0.0255 0.0228,-0.042 0.0132,-0.0165 0.023,-0.0412 0.0232,-0.055 4.8e-4,-0.0234 -0.12109,-0.13955 -0.32986,-0.31538 -0.10352,-0.0871 -0.10575,-0.10325 -0.0363,-0.25557 0.0374,-0.0819 0.2299,-0.54525 0.29215,-0.70301 0.0165,-0.042 0.0505,-0.12004 0.0756,-0.17349 0.0528,-0.11297 0.0309,-0.10351 0.40138,-0.17448 0.23448,-0.045 0.5047,-0.0849 1.11426,-0.1649 0.27829,-0.0365 0.84513,-0.0812 1.05623,-0.0831 l 0.0889,-7.2e-4 v -0.11612 -0.11612 h 0.14636 0.14634 l 0.004,-0.11218 0.004,-0.11205 0.0812,-0.0216 c 0.0753,-0.0201 0.0825,-0.0261 0.0975,-0.082 0.0118,-0.0436 0.0278,-0.0647 0.058,-0.0761 0.0229,-0.009 0.0892,-0.04 0.14716,-0.0697 0.1707,-0.0874 0.51443,-0.17621 0.68226,-0.17621 0.19285,0 0.5629,0.10601 0.80412,0.23024 l 0.13703,0.0706 0.0526,-0.0573 c 0.029,-0.0315 0.0523,-0.0697 0.0521,-0.0847 -2.7e-4,-0.0164 -0.0328,-0.0459 -0.0812,-0.0738 -0.078,-0.0449 -0.0808,-0.049 -0.0856,-0.12109 -0.003,-0.0411 0.003,-0.0838 0.0118,-0.0952 0.0118,-0.015 0.0105,-0.0351 -0.009,-0.0762 l -0.0266,-0.0558 -0.15575,-0.003 c -0.0857,-10e-4 -0.25675,-0.004 -0.38016,-0.006 -0.12347,-0.003 -0.84769,-0.009 -1.60949,-0.0141 -0.7618,-0.005 -1.60011,-0.0132 -1.86292,-0.0171 -0.44411,-0.006 -0.47927,-0.005 -0.49794,0.0199 -0.0183,0.0248 -0.0473,0.0269 -0.31144,0.0226 -0.21907,-0.004 -0.29972,-0.0105 -0.32517,-0.0267 -0.0445,-0.0289 -0.0579,-0.12201 -0.0468,-0.32262 0.008,-0.1441 0.0118,-0.15859 0.0495,-0.19103 0.0393,-0.0339 0.0516,-0.0352 0.33294,-0.0352 0.27854,0 0.2926,0.001 0.30196,0.0309 0.009,0.0271 0.0244,0.0312 0.12872,0.0329 0.0655,10e-4 0.13328,0.004 0.15085,0.005 0.0175,0.003 0.59909,0.008 1.29224,0.0138 0.69315,0.005 1.34128,0.0144 1.4403,0.0196 l 0.18005,0.009 0.006,-0.066 0.006,-0.066 -0.19019,0.009 -0.19022,0.009 v -0.077 c 0,-0.0764 4.2e-4,-0.077 0.0503,-0.0779 0.0276,-4.6e-4 0.41672,-0.006 0.86459,-0.0133 0.44786,-0.006 0.82218,-0.0171 0.83182,-0.0232 0.0118,-0.008 0.0176,-0.0979 0.0176,-0.28659 0,-0.20286 0.005,-0.28004 0.0194,-0.29194 0.0105,-0.009 0.0925,-0.023 0.18184,-0.0313 0.15105,-0.0141 0.26255,-0.0497 0.26283,-0.0839 6e-5,-0.006 0.0427,-0.0118 0.095,-0.0118 0.14005,0 0.2301,-0.0626 0.2301,-0.16002 0,-0.0409 0.0177,-0.049 0.40063,-0.18002 0.23489,-0.0804 0.31829,-0.0655 0.39849,0.0714 0.0426,0.0728 0.0694,0.0813 0.15807,0.0505 0.0559,-0.0196 0.0543,-0.0157 0.0307,-0.0674 -0.0118,-0.026 -0.0376,-0.0449 -0.0756,-0.055 -0.0647,-0.0173 -0.083,-0.0545 -0.0551,-0.11075 0.0178,-0.0354 0.0229,-0.0362 0.28257,-0.0404 0.14552,-0.003 0.28221,0.003 0.30378,0.0105 0.0257,0.009 0.0427,0.0312 0.0496,0.0623 0.0132,0.0584 0.0299,0.0593 0.18882,0.009 0.0665,-0.0207 0.18358,-0.0562 0.26019,-0.0788 0.25528,-0.0751 0.23988,-0.0678 0.23988,-0.11205 0,-0.0221 -0.0132,-0.0547 -0.0283,-0.0723 -0.0155,-0.0175 -0.0371,-0.0632 -0.048,-0.10159 -0.0105,-0.0383 -0.0261,-0.0857 -0.0338,-0.10523 -0.018,-0.0459 -0.0178,-0.10719 3.5e-4,-0.11834 0.008,-0.005 0.0479,-0.0133 0.089,-0.0188 0.0412,-0.005 0.0799,-0.0177 0.0862,-0.0269 0.006,-0.009 0.0118,-0.33035 0.0118,-0.71338 3.5e-4,-0.85267 0.0118,-1.18389 0.0412,-1.18389 0.0169,0 0.0214,0.17058 0.0247,0.95499 l 0.004,0.955 0.0517,0.0105 c 0.0835,0.017 0.0872,0.0285 0.0559,0.17781 -0.0194,0.0924 -0.0398,0.1472 -0.0648,0.17415 -0.0201,0.0216 -0.0344,0.0536 -0.0319,0.0711 0.004,0.0303 0.0157,0.032 0.24172,0.0361 0.23296,0.004 0.23795,0.004 0.28289,-0.0341 0.0252,-0.0211 0.071,-0.0434 0.1019,-0.0491 0.031,-0.005 0.36209,-0.006 0.73589,-0.003 0.66414,0.008 0.68054,0.009 0.72093,0.0408 0.0916,0.0729 0.1093,0.0768 0.39197,0.0821 l 0.27221,0.005 0.0105,-0.20893 c 0.0118,-0.24611 0.0348,-1.40211 0.0499,-2.51869 l 0.0105,-0.79313 h 0.0372 0.0372 l -0.009,0.66159 c -0.005,0.36389 -0.0157,0.95061 -0.0239,1.30385 -0.0358,1.56795 -0.0358,1.55947 -0.005,1.5693 0.0807,0.0256 0.22133,0.28598 0.22133,0.40988 0,0.0689 0.0274,0.15649 0.049,0.15649 0.008,0 0.0476,-0.0132 0.0875,-0.0292 0.16187,-0.065 0.52454,-0.19085 0.57156,-0.19837 0.0828,-0.0133 0.12425,0.006 0.2251,0.1093 0.078,0.0794 0.1127,0.10247 0.18505,0.12411 0.049,0.0147 0.089,0.0336 0.089,0.0422 0,0.009 0.0166,0.0379 0.0371,0.065 0.0205,0.027 0.056,0.0943 0.079,0.14945 0.0368,0.0883 0.0407,0.11258 0.0316,0.20427 -0.009,0.10007 0.0118,0.22946 0.0386,0.22946 0.006,0 0.0105,0.009 0.009,0.0193 -7.3e-4,0.0105 0.0105,0.0604 0.0267,0.11061 0.0499,0.16086 0.0325,0.18502 -0.26732,0.373 -0.0135,0.008 -0.0526,0.0334 -0.0869,0.0551 -0.0936,0.0597 -0.25435,0.12412 -0.33299,0.13347 -0.0691,0.008 -0.0712,0.006 -0.16235,-0.0866 -0.0509,-0.0522 -0.10139,-0.0915 -0.11231,-0.0872 -0.0105,0.004 -0.0946,0.0626 -0.186,0.12962 -0.0913,0.0672 -0.18348,0.13171 -0.20476,0.14353 -0.0304,0.0169 -0.15467,0.0224 -0.58422,0.0262 l -0.54552,0.005 v 0.10746 0.10746 h 2.16416 2.16417 l 0.017,0.058 c 0.009,0.032 0.0291,0.12228 0.044,0.20073 l 0.027,0.14271 1.47888,0.004 c 0.8134,0.003 1.4871,7.1e-4 1.49712,-0.004 0.0105,-0.004 0.0942,-0.0808 0.18714,-0.17024 0.44868,-0.43161 0.51615,-0.48526 0.63398,-0.5041 0.0559,-0.009 0.0682,-0.004 0.14855,0.0617 0.0856,0.0697 0.0895,0.0711 0.16947,0.0618 0.22295,-0.0262 0.47938,0.12504 0.59382,0.35036 0.0649,0.12753 0.0829,0.284 0.0527,0.45686 -0.0285,0.16379 -0.0703,0.24464 -0.17607,0.34029 -0.0513,0.0464 -0.0989,0.0844 -0.10574,0.0844 -0.006,0 -0.0526,0.0192 -0.1018,0.0426 -0.0816,0.0389 -0.10509,0.0426 -0.26905,0.0426 h -0.17965 l -0.0944,0.19345 c -0.0519,0.10641 -0.0986,0.21409 -0.10392,0.23934 -0.005,0.0253 -0.0229,0.0753 -0.0394,0.1114 -0.0518,0.11362 -0.0473,0.11886 0.11493,0.13786 l 0.0906,0.0105 -0.009,0.17213 c -0.005,0.0946 -0.0137,0.24001 -0.0187,0.32302 l -0.009,0.15087 h -0.0587 c -0.0698,0 -0.0774,0.0139 -0.0774,0.14062 v 0.0917 l -0.1106,-0.004 c -0.11835,-0.004 -0.14328,0.0105 -0.0961,0.0579 0.0166,0.0165 0.0316,0.0664 0.0394,0.1295 0.0105,0.0889 0.008,0.10798 -0.017,0.14262 -0.0188,0.0255 -0.0247,0.0477 -0.0164,0.0611 0.006,0.0118 0.008,0.0285 0.003,0.0374 -0.005,0.009 -0.0146,0.0635 -0.02,0.12137 -0.008,0.0829 -0.018,0.11402 -0.049,0.14702 -0.0215,0.0231 -0.0541,0.0715 -0.0722,0.10758 -0.022,0.0441 -0.043,0.0658 -0.0636,0.0658 -0.0202,0 -0.0307,0.0105 -0.0307,0.0306 0,0.0168 -0.017,0.0417 -0.0377,0.0554 -0.0207,0.0137 -0.0399,0.0393 -0.0426,0.0569 -0.003,0.02 -0.0285,0.0436 -0.0667,0.0619 -0.0709,0.034 -0.073,0.0353 -0.16204,0.0945 -0.0402,0.0267 -0.0913,0.0457 -0.13055,0.0482 -0.07,0.005 -0.18614,0.0567 -0.23037,0.10313 -0.02,0.0209 -0.0496,0.0292 -0.10522,0.0292 -0.0426,0 -0.0981,0.0105 -0.12334,0.0238 -0.0336,0.0173 -0.0537,0.0194 -0.0756,0.008 -0.0536,-0.0286 -0.0782,-0.0194 -0.0782,0.0293 0,0.0385 -0.008,0.0468 -0.0503,0.056 -0.0276,0.005 -0.0692,0.0205 -0.092,0.0321 -0.0377,0.0193 -0.0439,0.0184 -0.0639,-0.0105 -0.0263,-0.0378 -0.0962,-0.0282 -0.10733,0.0147 -0.006,0.0274 -0.16645,0.0949 -0.22191,0.094 -0.0274,-4.1e-4 -0.0275,-0.001 -0.003,-0.0163 0.0363,-0.0212 0.0345,-0.0442 -0.003,-0.0344 -0.0182,0.005 -0.0318,0.0238 -0.0348,0.0482 -0.004,0.0339 -0.0207,0.0467 -0.10339,0.0789 l -0.0986,0.0386 -0.0296,-0.0365 c -0.0248,-0.0307 -0.0352,-0.0339 -0.0655,-0.0201 -0.0214,0.009 -0.0398,0.035 -0.0452,0.0619 -0.008,0.0411 -0.0178,0.0472 -0.0989,0.0642 -0.0495,0.0105 -0.11375,0.0165 -0.14308,0.0139 -0.0435,-0.004 -0.0568,0.003 -0.0724,0.0328 -0.024,0.0471 -0.1674,0.0904 -0.21109,0.0636 -0.0224,-0.0137 -0.0304,-0.009 -0.045,0.0223 -0.0105,0.024 -0.0306,0.039 -0.051,0.039 -0.0183,0 -0.0467,0.0105 -0.0632,0.0226 -0.0413,0.0313 -0.14076,0.0306 -0.15855,-10e-4 -0.0118,-0.0211 -0.0197,-0.022 -0.051,-0.005 -0.0203,0.0105 -0.0426,0.029 -0.0495,0.0404 -0.006,0.0118 -0.026,0.021 -0.0426,0.021 -0.0165,0 -0.0302,0.0105 -0.0302,0.0233 0,0.0189 -0.0257,0.0232 -0.13927,0.0232 -0.1135,0 -0.13928,-0.004 -0.13928,-0.0232 0,-0.0132 -0.0105,-0.0233 -0.0238,-0.0233 -0.0132,0 -0.0276,0.0105 -0.0325,0.0233 -0.006,0.0178 -0.0366,0.0232 -0.12937,0.0232 -0.0927,0 -0.12255,-0.005 -0.12937,-0.0232 -0.005,-0.0137 -0.0285,-0.0233 -0.0563,-0.0233 -0.0278,0 -0.051,0.009 -0.0563,0.0233 -0.006,0.0173 -0.0344,0.0232 -0.1089,0.0232 -0.0682,0 -0.10746,-0.008 -0.12321,-0.0232 -0.0132,-0.0132 -0.0366,-0.0233 -0.0531,-0.0233 -0.0164,0 -0.0299,0.0105 -0.0299,0.0233 0,0.0187 -0.024,0.0232 -0.12386,0.0232 -0.0998,0 -0.12386,-0.004 -0.12386,-0.0232 0,-0.0132 -0.0105,-0.0233 -0.0238,-0.0233 -0.0132,0 -0.0276,0.0105 -0.0326,0.0233 -0.006,0.018 -0.0384,0.0232 -0.14488,0.0232 -0.10654,0 -0.1379,-0.005 -0.14489,-0.0232 -0.005,-0.0132 -0.0231,-0.0233 -0.0404,-0.0233 -0.0177,0 -0.0315,0.0105 -0.0315,0.0233 0,0.0187 -0.024,0.0232 -0.12385,0.0232 -0.0722,0 -0.12386,-0.006 -0.12386,-0.0155 0,-0.009 -0.0209,-0.0155 -0.0464,-0.0155 -0.0256,0 -0.0464,0.006 -0.0464,0.0155 0,0.0258 -0.19985,0.019 -0.22661,-0.008 -0.0132,-0.0132 -0.0402,-0.0233 -0.0609,-0.0233 -0.0395,0 -0.0512,0.023 -0.0183,0.0362 0.0105,0.004 -0.0409,0.008 -0.1148,0.009 -0.0944,7.2e-4 -0.13604,-0.004 -0.14059,-0.0181 -0.004,-0.0105 -0.0315,-0.0193 -0.0629,-0.0193 -0.0311,0 -0.0599,0.009 -0.0641,0.0193 -0.0118,0.0297 -0.19246,0.0261 -0.20399,-0.004 -0.009,-0.024 -0.0613,-0.0306 -0.10627,-0.0134 -0.0206,0.008 -0.0216,0.0131 -0.005,0.0229 0.0118,0.008 -0.0455,0.0133 -0.13798,0.0134 -0.10222,1.6e-4 -0.15864,-0.005 -0.15864,-0.0163 0,-0.009 0.0133,-0.0118 0.031,-0.006 0.0177,0.005 0.031,0.003 0.031,-0.006 0,-0.009 -0.0244,-0.0165 -0.0542,-0.0165 -0.0377,0 -0.0542,0.006 -0.0542,0.0233 0,0.0185 -0.0224,0.0233 -0.10877,0.0233 -0.0824,0 -0.111,-0.005 -0.11769,-0.0233 -0.005,-0.0132 -0.0247,-0.0233 -0.044,-0.0233 -0.0193,0 -0.0439,0.0105 -0.0545,0.0233 -0.0189,0.0229 -0.0642,0.0312 -0.0805,0.015 z m 2.37975,-0.24627 c 0.005,-0.0208 0.005,-0.0446 1.7e-4,-0.0528 -0.0143,-0.0233 0.0385,-0.0673 0.0707,-0.059 0.0185,0.005 0.0286,-7.2e-4 0.0286,-0.0157 0,-0.0132 -0.0143,-0.0269 -0.0317,-0.0315 -0.0454,-0.0118 -0.0312,-0.0574 0.0198,-0.0633 0.0335,-0.004 0.0485,0.005 0.0733,0.0464 0.0171,0.0282 0.0313,0.0766 0.0313,0.10759 3e-5,0.0435 0.009,0.0623 0.04,0.0824 0.0439,0.0288 0.0838,0.0223 0.0838,-0.0137 0,-0.0132 0.0118,-0.0293 0.0251,-0.0368 0.0435,-0.0243 -0.004,-0.12242 -0.11099,-0.22741 -0.18979,-0.18713 -0.26352,-0.33486 -0.35007,-0.70133 -0.0156,-0.066 -0.0164,-0.0668 -0.0723,-0.0587 -0.0311,0.004 -0.0778,0.008 -0.10392,0.009 -0.0458,5.9e-4 -0.0481,0.004 -0.074,0.11205 -0.0339,0.141 -0.12202,0.33774 -0.19642,0.43793 -0.0316,0.0426 -0.1051,0.12268 -0.16345,0.17798 -0.0582,0.0552 -0.10366,0.10759 -0.10068,0.11612 0.005,0.0168 0.0146,0.10247 0.016,0.15862 7.3e-4,0.0313 0.009,0.0348 0.0783,0.0348 0.0819,0 0.10549,-0.0285 0.0503,-0.0606 -0.0148,-0.009 -0.0188,-0.016 -0.009,-0.0162 0.0105,-2.3e-4 0.0229,-0.0148 0.0285,-0.0324 0.008,-0.0262 0.0184,-0.0301 0.0567,-0.0216 0.0396,0.009 0.0458,0.005 0.0411,-0.0184 -0.003,-0.0157 -0.021,-0.0308 -0.0402,-0.0336 -0.0192,-0.003 -0.0347,-0.0105 -0.0347,-0.0174 0,-0.0163 0.12189,-0.0473 0.13067,-0.0332 0.004,0.005 0.0147,0.0568 0.0246,0.1131 0.0156,0.0899 0.0225,0.10351 0.0569,0.11217 0.0215,0.005 0.0405,0.008 0.0424,0.005 0.001,-0.003 0.0134,-0.0324 0.0258,-0.0665 0.0132,-0.0341 0.0306,-0.0619 0.0402,-0.0619 0.009,0 0.0221,-0.005 0.028,-0.0105 0.005,-0.005 0.0212,-0.006 0.0344,-10e-4 0.0159,0.005 0.0214,0.003 0.0165,-0.0132 -0.004,-0.0118 -0.0223,-0.024 -0.0408,-0.0267 -0.0203,-0.003 -0.0336,-0.016 -0.0336,-0.0331 0,-0.0214 0.0105,-0.0275 0.0467,-0.0257 0.0656,0.004 0.1148,0.0844 0.10159,0.16755 -0.008,0.0518 -0.005,0.0613 0.0256,0.0734 0.0193,0.008 0.0576,0.0144 0.085,0.0151 0.0405,7.3e-4 0.0518,-0.006 0.0595,-0.0369 z m -3.01039,-0.003 c 0.0105,-0.0133 0.0227,-0.0496 0.0258,-0.0806 0.006,-0.0627 0.0279,-0.0964 0.061,-0.0964 0.0118,0 0.0201,-0.0118 0.0174,-0.027 -0.003,-0.0173 0.006,-0.0286 0.0263,-0.0313 0.0391,-0.005 0.0697,0.0567 0.0697,0.14151 0,0.0668 0.0343,0.11808 0.0785,0.11808 0.0489,0 0.0915,-0.0739 0.0926,-0.16071 10e-4,-0.10379 0.0132,-0.12491 0.0686,-0.12885 0.0431,-0.003 0.049,0.003 0.0812,0.0868 0.0192,0.0496 0.0348,0.11192 0.0348,0.13865 0,0.0628 0.0231,0.0613 0.0881,-0.005 0.0476,-0.0491 0.0588,-0.0534 0.11769,-0.046 0.0472,0.005 0.0563,0.004 0.0331,-0.005 -0.0521,-0.0233 -0.21122,-0.13842 -0.27646,-0.19998 -0.15962,-0.15062 -0.28359,-0.36882 -0.32865,-0.57845 l -0.026,-0.12111 h -0.1043 -0.10431 l -0.0105,0.0645 c -0.0352,0.20843 -0.14118,0.41741 -0.2963,0.58437 l -0.11505,0.12386 0.0105,0.0942 0.0105,0.0943 0.0559,-0.005 c 0.0435,-0.004 0.0563,-0.0118 0.0574,-0.0357 0.005,-0.10627 0.004,-0.10444 0.0449,-0.0968 0.0444,0.008 0.0454,0.006 0.0197,-0.0345 -0.0279,-0.0448 0.003,-0.0686 0.0719,-0.0556 0.0587,0.0105 0.0595,0.0118 0.0847,0.15215 0.008,0.0416 0.008,0.0734 -2.3e-4,0.0734 -0.0244,0 0.04,0.0593 0.0659,0.0606 0.0139,7.2e-4 0.0343,-0.009 0.0453,-0.0229 z m 0.97415,0.003 c 0,-0.0249 -0.0837,-0.0636 -0.1068,-0.0494 -0.0239,0.0148 0.0312,0.0678 0.072,0.0693 0.02,7.1e-4 0.0348,-0.008 0.0348,-0.0201 z m 1.03507,-0.0132 c 0.006,-0.0188 0.009,-0.0468 0.005,-0.0623 -0.006,-0.0266 -0.009,-0.0265 -0.0558,0.003 -0.0266,0.0168 -0.058,0.0449 -0.0697,0.0622 -0.0202,0.0302 -0.0184,0.0316 0.043,0.0316 0.0522,0 0.0666,-0.006 0.077,-0.0343 z m 1.64225,0.0188 c 0,-0.009 -0.009,-0.0156 -0.0193,-0.0157 -0.0105,-1e-4 -0.0367,-0.005 -0.058,-0.0105 -0.0348,-0.009 -0.0366,-0.008 -0.0174,0.0156 0.0229,0.028 0.0949,0.0358 0.0949,0.0105 z m -4.31415,-0.0362 c 0.0118,-0.0185 0.0165,-0.0875 0.005,-0.0875 -0.0207,0 -0.17984,0.0821 -0.17984,0.0929 0,0.0341 0.15171,0.0294 0.17382,-0.005 z m -1.634,-0.0446 c 10e-4,-0.0317 0.0175,-0.0892 0.0362,-0.12766 0.0276,-0.0572 0.0414,-0.07 0.0751,-0.0697 0.0634,3.6e-4 0.0906,0.0224 0.0651,0.053 -0.0172,0.0209 -0.016,0.0297 0.008,0.0563 0.0166,0.0185 0.0271,0.0504 0.0252,0.077 -0.004,0.0423 2.2e-4,0.0455 0.0509,0.0455 0.038,0 0.0545,-0.006 0.0545,-0.0233 0,-0.0131 0.0105,-0.0232 0.0233,-0.0232 0.0142,0 0.0233,-0.0144 0.0233,-0.0371 0,-0.0276 -0.0176,-0.0475 -0.0679,-0.077 -0.0831,-0.0488 -0.3043,-0.26316 -0.33705,-0.32682 -0.0132,-0.0256 -0.0417,-0.0812 -0.0636,-0.12385 -0.0218,-0.0426 -0.0576,-0.13968 -0.0796,-0.21584 -0.022,-0.0761 -0.0464,-0.14493 -0.0544,-0.15283 -0.008,-0.008 -0.0576,-0.009 -0.11427,-0.004 l -0.1,0.0105 -0.0187,0.0957 c -0.0363,0.18613 -0.1537,0.40694 -0.29382,0.55283 -0.0819,0.0853 -0.0849,0.0911 -0.0516,0.0994 0.0234,0.005 0.0357,0.0206 0.036,0.0435 2.9e-4,0.0189 0.0105,0.0473 0.022,0.0628 0.0137,0.0179 0.0184,0.048 0.0131,0.0812 -0.008,0.0486 -0.005,0.0528 0.0308,0.0528 0.0512,0 0.0884,-0.0147 0.0884,-0.0348 0,-0.009 0.009,-0.0238 0.0219,-0.0332 0.0118,-0.009 0.0321,-0.0486 0.0448,-0.0869 0.0307,-0.0936 0.0769,-0.10299 0.1106,-0.0223 0.0132,0.0313 0.0239,0.0802 0.0239,0.10838 0,0.0615 0.0131,0.0715 0.0749,0.0591 0.0363,-0.008 0.0495,-0.02 0.0572,-0.055 0.006,-0.03 0.024,-0.051 0.0512,-0.0613 0.038,-0.0146 0.039,-0.0172 0.0141,-0.0356 -0.0407,-0.0299 -0.0326,-0.0551 0.0175,-0.0551 0.0356,0 0.0497,0.0105 0.0697,0.0526 0.0137,0.029 0.0249,0.0765 0.0249,0.10576 0,0.0661 0.0105,0.0764 0.0692,0.0706 0.0425,-0.004 0.0472,-0.0105 0.0492,-0.0623 z m -1.28325,0.0405 c -0.005,-0.005 -0.0185,-0.005 -0.0297,-10e-4 -0.0118,0.005 -0.009,0.009 0.009,0.009 0.0163,6.8e-4 0.0254,-0.003 0.0203,-0.008 z m 0.35004,-0.0177 c 0.004,-0.0148 0.0118,-0.0606 0.0178,-0.1017 0.0105,-0.0743 0.0105,-0.0746 -0.0258,-0.0559 -0.0954,0.0499 -0.1211,0.0778 -0.1211,0.13154 0,0.0514 0.003,0.0531 0.0609,0.0531 0.0449,0 0.0628,-0.006 0.0683,-0.027 z m 1.54802,0.009 c -0.004,-0.006 -0.032,-0.0118 -0.0618,-0.0118 -0.0298,0 -0.0508,0.005 -0.0466,0.0118 0.004,0.006 0.032,0.0118 0.0618,0.0118 0.0298,0 0.0508,-0.005 0.0466,-0.0118 z m -4.21526,-0.0201 c 0,-0.0138 0.0142,-0.0233 0.0348,-0.0233 0.0248,0 0.0358,-0.0105 0.038,-0.0348 0.0118,-0.12347 0.0227,-0.14904 0.0696,-0.15933 0.0254,-0.005 0.0517,-0.004 0.0582,0.003 0.0187,0.0208 0.0471,0.11467 0.0471,0.15587 0,0.0482 0.0339,0.0817 0.083,0.0817 0.0324,0 0.0396,-0.008 0.0437,-0.0503 0.004,-0.0436 0.0105,-0.0503 0.0473,-0.0497 0.0233,3.6e-4 0.0426,-0.008 0.0426,-0.0183 0,-0.0105 0.009,-0.0219 0.0193,-0.0257 0.0105,-0.004 1.7e-4,-0.004 -0.0233,-10e-4 -0.0287,0.004 -0.0426,-0.001 -0.0426,-0.0162 0,-0.0118 -0.004,-0.0325 -0.009,-0.0461 -0.008,-0.0203 0.004,-0.0245 0.0683,-0.0245 h 0.0778 l 0.0166,0.0782 c 0.009,0.043 0.0168,0.087 0.0168,0.0977 0,0.0142 0.0184,0.0172 0.0657,0.0105 0.0629,-0.008 0.066,-0.0118 0.0706,-0.0668 0.004,-0.0512 0.009,-0.0581 0.0464,-0.0593 0.0229,-6.7e-4 0.0329,-0.005 0.0223,-0.009 -0.0105,-0.004 -0.0193,-0.0247 -0.0193,-0.0453 0,-0.0308 0.008,-0.0374 0.0441,-0.0374 0.0243,0 0.0591,0.0132 0.0774,0.0289 0.0278,0.0242 0.0333,0.0458 0.0333,0.13154 v 0.10261 h 0.0613 c 0.0738,0 0.0867,-0.0192 0.0966,-0.1433 0.006,-0.0884 0.006,-0.0898 -0.0639,-0.1625 -0.17586,-0.18172 -0.27308,-0.35095 -0.32349,-0.56291 l -0.026,-0.10903 -0.0679,0.009 c -0.0374,0.005 -0.10431,0.009 -0.1489,0.009 h -0.081 l -0.009,0.0604 c -0.026,0.16256 -0.19188,0.44759 -0.35102,0.60314 l -0.12137,0.11861 0.0151,0.0694 c 0.008,0.0381 0.0181,0.078 0.0219,0.0887 0.009,0.0275 0.0697,0.0242 0.0697,-0.004 z m 1.37723,-0.0118 c -7e-5,-0.0243 -0.0187,-0.0454 -0.0613,-0.0698 l -0.0613,-0.0351 10e-4,0.0698 10e-4,0.0698 h 0.06 c 0.0518,0 0.0599,-0.005 0.0599,-0.0348 z m 9.80883,-0.27137 c 0.004,-0.0468 0.0118,-0.0652 0.029,-0.0652 0.0185,0 0.0221,-0.0105 0.0153,-0.0445 -0.0118,-0.0606 0.0198,-0.10234 0.0683,-0.0894 0.0259,0.006 0.0476,0.0336 0.0711,0.0874 0.0297,0.0679 0.0395,0.0775 0.0796,0.0775 0.0343,0 0.048,-0.009 0.055,-0.0348 0.0141,-0.0523 0.0118,-0.11847 -0.005,-0.15032 -0.0118,-0.0224 -0.008,-0.0335 0.0228,-0.0531 0.0208,-0.0137 0.0468,-0.0246 0.0577,-0.0243 0.0306,7.3e-4 0.0847,0.0514 0.11704,0.10956 0.0221,0.0398 0.0409,0.0536 0.0782,0.0572 0.0485,0.005 0.0491,0.004 0.0514,-0.0658 0.004,-0.10693 0.004,-0.10798 0.0286,-0.1274 0.0283,-0.0219 0.0146,-0.0375 -0.051,-0.0588 -0.0582,-0.0188 -0.0739,-0.0727 -0.0339,-0.11691 0.0244,-0.0269 0.0242,-0.0311 -0.003,-0.0669 -0.0486,-0.065 -0.0764,-0.0752 -0.13576,-0.0504 -0.0485,0.0202 -0.0551,0.0196 -0.0797,-0.008 -0.0215,-0.0238 -0.0481,-0.0297 -0.13277,-0.0297 h -0.10588 v 0.0449 c 0,0.11389 -0.12124,0.40054 -0.23439,0.55392 -0.0551,0.0748 -0.057,0.081 -0.0285,0.09 0.0169,0.005 0.0307,0.0188 0.0307,0.0299 0,0.0146 0.0141,0.0173 0.0503,0.0105 0.0461,-0.009 0.0507,-0.0156 0.0551,-0.0755 z m -13.01158,-0.0582 c 0.0132,-0.0156 0.009,-0.0321 -0.0179,-0.0679 -0.0399,-0.0541 -0.0678,-0.06 -0.0898,-0.0189 -0.0164,0.0306 -0.005,0.097 0.0184,0.11283 0.0201,0.0133 0.0684,-7.2e-4 0.0893,-0.026 z m -0.26039,-0.16675 c 0.0214,-0.0198 0.0503,-0.0534 0.0642,-0.0746 0.0242,-0.037 0.023,-0.0431 -0.0289,-0.14841 -0.0298,-0.0604 -0.0542,-0.1156 -0.0542,-0.12268 -5e-5,-0.006 -0.006,-0.038 -0.0156,-0.0686 l -0.0155,-0.0558 -0.11637,0.008 c -0.2555,0.0164 -0.50363,-0.0622 -0.71142,-0.22535 -0.008,-0.006 -0.0418,-0.0284 -0.0738,-0.048 -0.0321,-0.0197 -0.0678,-0.0452 -0.0793,-0.0565 -0.0118,-0.0118 -0.0627,-0.0316 -0.11402,-0.0449 -0.11362,-0.0294 -0.12045,-0.0297 -0.0984,-0.003 0.0159,0.0192 0.0141,0.083 -0.005,0.21345 -0.005,0.0389 -0.004,0.0407 0.051,0.0349 0.0816,-0.009 0.0999,-0.009 0.13469,-0.004 0.027,0.004 0.0304,-0.003 0.0263,-0.053 -0.005,-0.0659 0.008,-0.0718 0.0558,-0.0265 0.042,0.0391 0.042,0.0391 -0.003,0.15845 l -0.0369,0.0979 0.0461,0.0265 c 0.0393,0.0224 0.0553,0.0238 0.10746,0.008 0.048,-0.0144 0.0631,-0.0275 0.0698,-0.0609 0.006,-0.0311 0.0154,-0.0402 0.0339,-0.0338 0.0207,0.006 0.0217,0.005 0.005,-0.0118 -0.0431,-0.0463 0.004,-0.0623 0.0811,-0.0274 0.0371,0.0169 0.0393,0.0233 0.0294,0.089 -0.005,0.039 -0.0201,0.0854 -0.0317,0.10339 -0.0235,0.036 -0.0148,0.0764 0.0193,0.0894 0.0265,0.0105 0.0684,-0.004 0.0684,-0.0232 0,-0.008 0.0105,-0.0138 0.0221,-0.0138 0.0118,0 0.0266,-0.0139 0.032,-0.0309 0.005,-0.017 0.0205,-0.031 0.0335,-0.031 0.0131,0 0.0269,-0.0132 0.031,-0.0281 0.005,-0.0215 0.0189,-0.0268 0.0565,-0.022 0.0887,0.0105 0.0885,0.0105 0.0553,0.10562 -0.017,0.0485 -0.0273,0.0975 -0.0229,0.10916 0.004,0.0118 -10e-4,0.0211 -0.0137,0.0211 -0.0318,0 -0.0466,0.0323 -0.0218,0.0479 0.0496,0.0313 0.10129,0.0141 0.16669,-0.0556 0.0748,-0.0799 0.14774,-0.0958 0.16944,-0.0372 0.0118,0.0335 2.9e-4,0.15577 -0.0202,0.20356 -0.0178,0.0415 0.0558,0.0352 0.10339,-0.009 z m -1.47089,-0.74797 c 0.0156,-0.0141 0.0283,-0.0343 0.0283,-0.0448 0,-0.0448 -0.0819,-0.0344 -0.12333,0.0156 -0.0187,0.0224 -0.0185,0.0281 5.2e-4,0.0402 0.0333,0.021 0.0628,0.0176 0.0945,-0.0105 z m 17.26172,-1.83535 c 0.005,-0.0192 0.038,-0.0906 0.071,-0.15862 0.054,-0.111 0.0574,-0.12543 0.0345,-0.1393 -0.14609,-0.0883 -0.22684,-0.1897 -0.27715,-0.3482 -0.0148,-0.0468 -0.0297,-0.0898 -0.0328,-0.0955 -0.006,-0.0118 -0.0935,0.0286 -0.1068,0.0501 -0.005,0.008 0.0159,0.0636 0.0466,0.12359 0.054,0.10589 0.0556,0.11455 0.0591,0.30005 0.004,0.21017 0.0146,0.23688 0.11166,0.2796 0.0666,0.0293 0.0817,0.0274 0.094,-0.0118 z m -0.31761,-0.86678 0.0845,-0.0504 0.0105,-0.094 c 0.0214,-0.19353 0.11205,-0.32512 0.31088,-0.45121 0.0624,-0.0397 0.07,-0.0495 0.0504,-0.0657 -0.0503,-0.0417 -0.10666,4e-4 -0.38882,0.29026 l -0.28028,0.28803 0.0403,0.0668 c 0.0221,0.0367 0.051,0.0668 0.0643,0.0668 0.0133,0 0.0619,-0.0227 0.10851,-0.0504 z m -13.69683,-1.41241 c 0,-0.0205 -0.0353,-0.0229 -0.25795,-0.0193 -0.1895,0.003 -0.25964,0.009 -0.26438,0.0236 -0.005,0.015 0.0533,0.0193 0.25795,0.0193 0.22656,0 0.26438,-0.004 0.26438,-0.0235 z m 0.72737,3.5e-4 c 0,-0.0196 -0.0358,-0.0233 -0.22827,-0.0235 -0.12557,-1.1e-4 -0.25439,-0.004 -0.2863,-0.009 -0.0467,-0.008 -0.058,-0.005 -0.058,0.015 0,0.0267 0.0572,0.0322 0.3985,0.0384 0.14581,0.003 0.17411,-6.9e-4 0.17411,-0.0201 z"
       id="B-Crusaider" />
  </g>
</svg>
