<?xml version="1.0" encoding="UTF-8" standalone="no"?>
<!-- Created with Inkscape (http://www.inkscape.org/) -->

<svg
   width="20.927706mm"
   height="7.9640498mm"
   viewBox="0 0 20.927706 7.9640498"
   version="1.1"
   id="svg26913"
   sodipodi:docname="inkporter-svg-5953xn1e.svg"
   xmlns:inkscape="http://www.inkscape.org/namespaces/inkscape"
   xmlns:sodipodi="http://sodipodi.sourceforge.net/DTD/sodipodi-0.dtd"
   xmlns="http://www.w3.org/2000/svg"
   xmlns:svg="http://www.w3.org/2000/svg">
  <sodipodi:namedview
     id="namedview26915"
     pagecolor="#ffffff"
     bordercolor="#666666"
     borderopacity="1.0"
     inkscape:pageshadow="2"
     inkscape:pageopacity="0.0"
     inkscape:pagecheckerboard="0"
     inkscape:document-units="mm"
     showgrid="false"
     inkscape:zoom="0.32026164"
     inkscape:cx="-131.14277"
     inkscape:cy="1047.581"
     inkscape:window-width="1920"
     inkscape:window-height="1017"
     inkscape:window-x="-8"
     inkscape:window-y="-8"
     inkscape:window-maximized="1"
     inkscape:current-layer="layer1" />
  <defs
     id="defs26910" />
  <g
     inkscape:label="Layer 1"
     inkscape:groupmode="layer"
     id="layer1"
     transform="translate(-2.3879837,-346.52264)">
    <path
       id="B-Cromwell-CS"
       d="m 13.49524,346.52565 c -0.0979,0 -0.10046,0.007 -0.0765,0.18913 0.0138,0.10403 0.008,0.24627 -0.013,0.31628 -0.0265,0.0905 -0.0238,0.13274 0.009,0.14623 0.0254,0.0103 0.008,0.0201 -0.0398,0.0222 -0.0487,0.003 -0.16084,-0.0661 -0.25733,-0.15608 -0.18783,-0.1751 -0.25101,-0.1909 -0.38706,-0.0956 -0.0673,0.0476 -0.13706,0.0571 -0.26615,0.0377 -0.14959,-0.0225 -0.18211,-0.0148 -0.22582,0.0553 -0.0346,0.0553 -0.0931,0.0822 -0.18087,0.0822 -0.12176,0 -0.1297,-0.009 -0.1297,-0.13952 0,-0.0766 -0.018,-0.13954 -0.0398,-0.13954 -0.022,0 -0.0398,0.063 -0.0398,0.13954 v 0.13952 h -0.2589 c -0.28162,0 -0.3579,-0.0674 -0.0987,-0.0873 0.22166,-0.0169 0.18137,-0.0911 -0.0522,-0.0961 -0.10509,-0.003 -0.21201,-0.0243 -0.2372,-0.0496 -0.11401,-0.11401 -0.33401,-0.0241 -0.4005,0.16328 -0.0161,0.0456 -0.0667,0.0698 -0.14573,0.0698 -0.0664,0 -0.12041,0.0156 -0.12041,0.0351 0,0.0749 -0.11872,0.0762 -0.21289,0.003 -0.0811,-0.0638 -0.162,-0.0775 -0.46148,-0.0775 -0.28615,0 -0.36854,0.0127 -0.38653,0.0599 -0.0169,0.0438 -0.0858,0.06 -0.26046,0.06 h -0.2377 l 0.0274,0.12506 0.0274,0.12505 -0.16537,-0.0222 c -0.13054,-0.0175 -0.18036,-0.006 -0.23616,0.0537 -0.0701,0.0752 -0.37928,0.15761 -0.47387,0.1261 -0.0326,-0.0109 -0.0491,-0.10917 -0.0491,-0.29197 0,-0.15706 -0.0172,-0.27543 -0.0398,-0.27543 -0.0238,0 -0.0398,0.15386 -0.0398,0.38137 0,0.29385 -0.014,0.39428 -0.0625,0.44339 v 0.27181 c -0.0371,-0.013 -0.0716,-0.0233 -0.10178,-0.0315 -0.0944,-0.0262 -0.15211,-0.0312 -0.15711,-0.0108 -0.007,0.027 -0.12846,0.005 -0.32658,-0.0584 -0.17769,-0.0573 -0.33181,-0.0881 -0.35142,-0.0687 -0.0478,0.0468 -1.15151,-0.22733 -1.13792,-0.28268 0.007,-0.0269 -0.24854,-0.10625 -0.68005,-0.21238 l -0.68988,-0.17002 -0.0806,0.37931 -0.0801,0.38034 0.6749,0.17827 c 0.52462,0.13933 0.67837,0.16674 0.68885,0.12404 0.0106,-0.0431 0.25963,0.005 1.16427,0.22788 l 1.07743,0.26459 v 0.22582 c 0.0201,0.01 0.0183,0.0288 0,0.0625 v 0.0429 h -0.0254 c -0.0368,0.059 -0.0368,0.0994 0,0.18034 0.0262,0.0574 0.0476,0.13962 0.0476,0.18243 0,0.0641 0.0277,0.0775 0.15917,0.0775 0.11507,0 0.15918,0.0169 0.15918,0.06 0,0.0499 -0.086,0.0588 -0.54727,0.0568 -0.34292,-0.003 -0.51808,-0.0156 -0.46818,-0.0372 0.0438,-0.0188 0.0574,-0.0347 0.0299,-0.0367 -0.0274,-0.003 -0.0496,-0.0206 -0.0496,-0.0424 0,-0.0217 -0.0529,-0.0898 -0.11729,-0.15142 l -0.11678,-0.11213 -0.44236,0.0873 c -0.24331,0.0479 -0.45432,0.0988 -0.46871,0.11316 -0.0145,0.0145 -0.005,0.0616 0.0222,0.10438 0.0428,0.0685 0.0379,0.0781 -0.0414,0.0791 -0.14425,0.003 -0.21997,0.0887 -0.24958,0.28575 l -0.0274,0.18397 -0.22479,0.0222 c -0.12372,0.0122 -0.31769,0.0329 -0.43098,0.0465 -0.2023,0.0243 -0.20643,0.0227 -0.21913,-0.0852 -0.0183,-0.15552 -0.11264,-0.17508 -0.11264,-0.0233 0,0.10033 -0.0191,0.12382 -0.11834,0.1457 -0.0652,0.0143 -0.15465,0.0145 -0.19897,0 -0.0665,-0.0212 -0.0806,-0.008 -0.0806,0.0765 0,0.0756 0.0206,0.10232 0.0796,0.10232 0.0438,0 0.0796,0.008 0.0796,0.0164 0,0.009 0.0109,0.0452 0.0244,0.0801 0.0182,0.0476 0.007,0.0568 -0.0439,0.0372 -0.0379,-0.0146 -0.0817,-0.004 -0.0987,0.0233 -0.0169,0.0272 -0.17158,0.0817 -0.34414,0.12095 -1.1389,0.25886 -1.24955,0.28879 -1.24955,0.33588 0,0.0276 -0.11703,0.19881 -0.26046,0.38084 -0.31506,0.3999 -0.31826,0.45943 -0.03,0.59791 l 0.20724,0.0992 0.003,0.20309 c 0,0.14875 0.0225,0.22146 0.0791,0.27284 0.0426,0.0385 0.0829,0.10856 0.0899,0.15555 0.007,0.051 0.068,0.11311 0.15089,0.15452 0.0764,0.0381 0.16651,0.10599 0.2,0.15039 0.0335,0.0444 0.11703,0.0876 0.18603,0.0966 0.0689,0.009 0.16428,0.0547 0.21188,0.10232 0.0517,0.0516 0.11726,0.0785 0.16227,0.0667 0.0491,-0.013 0.10004,0.0143 0.14573,0.077 0.041,0.0562 0.12139,0.10261 0.19378,0.11163 0.0682,0.009 0.17037,0.0618 0.22686,0.11832 0.0664,0.0664 0.1267,0.0936 0.17002,0.077 0.0433,-0.0167 0.0896,0.005 0.13126,0.0599 0.0366,0.0485 0.12189,0.0918 0.19687,0.10078 0.0767,0.009 0.15682,0.0513 0.19122,0.10025 0.0375,0.0536 0.10242,0.0842 0.17674,0.0842 0.0714,0 0.11679,0.0206 0.11679,0.0532 0,0.06 0.18674,0.15809 0.23926,0.12558 0.0188,-0.0117 0.0822,0.0238 0.14107,0.0786 v 0 l 0.10748,0.0992 h 6.48179 c 4.56369,0 6.49004,-0.0114 6.50864,-0.0413 0.0145,-0.0233 0.0649,-0.0397 0.11213,-0.0357 0.1464,0.0114 0.17984,2.1e-4 0.25993,-0.0858 0.0427,-0.0459 0.13515,-0.087 0.20516,-0.092 0.0706,-0.005 0.14353,-0.0388 0.16433,-0.076 0.022,-0.0393 0.0864,-0.0672 0.15555,-0.0672 0.0686,0 0.14634,-0.0333 0.18603,-0.0796 0.0375,-0.0438 0.11705,-0.0796 0.17674,-0.0796 0.0608,0 0.15605,-0.0441 0.21651,-0.10025 0.0656,-0.0607 0.13567,-0.0914 0.17777,-0.078 0.0422,0.0135 0.112,-0.0177 0.1783,-0.0791 0.06,-0.0556 0.14708,-0.10077 0.19378,-0.10077 0.0467,0 0.13314,-0.0552 0.19222,-0.12248 0.0591,-0.0673 0.12581,-0.11126 0.1478,-0.0977 0.0542,0.0335 0.20862,-0.0529 0.17933,-0.10025 -0.013,-0.0209 -0.006,-0.0377 0.0161,-0.0377 0.0619,0 0.2861,-0.2028 0.28009,-0.2532 -0.0111,-0.091 0.006,-0.13455 0.0853,-0.22636 0.0536,-0.0622 0.074,-0.12774 0.0604,-0.19534 -0.0114,-0.0559 0.003,-0.1407 0.0284,-0.18809 0.0599,-0.10583 0.31218,-0.30962 0.46974,-0.37931 0.14671,-0.065 0.14891,-0.167 0.007,-0.2894 -0.0602,-0.0518 -0.0992,-0.10438 -0.0868,-0.11678 0.0349,-0.0351 0.28818,0.0672 0.36068,0.14573 0.0811,0.0878 0.17946,0.0541 0.21137,-0.0729 0.0135,-0.0531 0.0487,-0.0966 0.0785,-0.0966 0.0299,0 0.11875,-0.072 0.19793,-0.15968 0.13899,-0.15338 0.14418,-0.17066 0.14418,-0.45889 v -0.29922 l -0.17931,-0.17931 c -0.0986,-0.0985 -0.17881,-0.20368 -0.17881,-0.23357 0,-0.0837 -0.0941,-0.10285 -0.5054,-0.10285 h -0.37928 l 0.0156,-0.15914 c 0.0111,-0.11687 0,-0.15918 -0.0403,-0.15918 -0.0352,0 -0.0479,0.028 -0.0351,0.077 0.0119,0.0461 -0.004,0.0862 -0.0388,0.0997 -0.0647,0.0249 -0.29705,-0.0948 -0.26974,-0.13901 0.0339,-0.0549 -0.32382,-0.0797 -1.16583,-0.0801 -0.47231,0 -0.87742,-0.0124 -0.90073,-0.0269 -0.0604,-0.0376 -0.38584,-0.0391 -0.40875,-0.003 -0.0236,0.0384 -0.38873,0.0417 -0.42632,0.004 -0.0411,-0.0415 -0.38262,-0.0476 -0.40722,-0.008 -0.0348,0.0563 -0.5646,0.0428 -0.5855,-0.0151 -0.0138,-0.0382 -0.0361,-0.0396 -0.0946,-0.005 -0.0454,0.0267 -0.26308,0.0447 -0.53279,0.0439 -0.25083,0 -0.40693,-0.009 -0.34674,-0.018 0.12449,-0.019 0.13467,-0.0727 0.0517,-0.2713 -0.0575,-0.13769 -0.0584,-0.13798 -0.31678,-0.13798 -0.21863,0 -0.26641,-0.0124 -0.30229,-0.0796 -0.0338,-0.0632 -0.0834,-0.0796 -0.24032,-0.0796 -0.14584,0 -0.19738,0.0148 -0.19738,0.0574 0,0.0403 -0.0561,0.0618 -0.18656,0.0698 -0.19854,0.013 -0.18571,-0.003 -0.26511,0.31832 -0.0233,0.0942 -0.0135,0.1084 0.0832,0.123 0.0603,0.009 -0.29816,0.0199 -0.79634,0.0228 -0.78124,0.005 -0.90588,-0.003 -0.90588,-0.0537 0,-0.0492 0.073,-0.0594 0.41807,-0.0594 0.41703,0 0.41804,0 0.41804,-0.0977 0,-0.0535 0.018,-0.10792 0.0398,-0.12142 0.0526,-0.0324 0.0512,-0.19177 -0.003,-0.24495 -0.027,-0.0275 -0.0347,-0.24683 -0.0217,-0.6351 0.0109,-0.32621 0.0206,-0.63829 0.0227,-0.693 0.003,-0.0547 -0.0106,-0.21577 -0.0274,-0.35811 l -0.031,-0.2589 -0.47749,-0.0196 c -0.54557,-0.0228 -0.51086,0.008 -0.50488,-0.44804 0.003,-0.21993 0,-0.22892 -0.0982,-0.22892 z m 2.53371,2.71145 c 0.0251,0 0.0506,0.003 0.0698,0.008 0.0383,0.0103 0.007,0.018 -0.0698,0.018 -0.0767,0 -0.10756,-0.008 -0.0693,-0.018 0.019,-0.005 0.044,-0.008 0.0693,-0.008 z m 5.90198,0.55555 c -0.0135,-0.003 -0.032,0.009 -0.0507,0.0382 -0.0306,0.0488 -0.0373,0.0493 -0.0377,0.003 0,-0.031 -0.0122,-0.0451 -0.0265,-0.031 -0.014,0.014 -0.003,0.0542 0.0268,0.0889 0.0479,0.0576 0.0556,0.0574 0.0889,-0.003 0.0289,-0.0517 0.0212,-0.0922 0,-0.0961 z m 0.37049,0.48315 c 0.0114,0.003 0.018,0.0119 0.0169,0.0284 0,0.0127 -0.0457,0.0552 -0.0997,0.0946 -0.0982,0.0715 -0.0979,0.0714 -0.0548,-0.0233 0.0279,-0.0613 0.10327,-0.10808 0.13745,-0.0997 z m -17.21133,0.23461 0.36843,0.004 -0.25889,0.0537 c -0.14235,0.0294 -0.27678,0.0522 -0.29869,0.0512 -0.0934,-0.005 -0.1788,-0.0417 -0.1788,-0.076 0,-0.0204 0.16539,-0.0346 0.36795,-0.0326 z m 17.1023,0.8532 c 0.0251,-0.003 0.0481,0.009 0.0496,0.0387 0,0.022 -0.0276,0.0452 -0.0641,0.0532 -0.0415,0.009 -0.0598,-0.006 -0.0486,-0.0398 0.0103,-0.031 0.0378,-0.0491 0.063,-0.0522 z m -17.84334,1.59213 c 0.0715,-0.003 0.1788,0.0349 0.35449,0.10284 0.30495,0.1179 0.35528,0.15063 0.3819,0.25011 0.0243,0.0911 0.009,0.1428 -0.0718,0.24908 -0.10835,0.1419 -0.20063,0.18108 -0.15142,0.0641 0.0723,-0.17209 0.0665,-0.24212 -0.0238,-0.29041 -0.0809,-0.0433 -0.1011,-0.035 -0.19378,0.0785 -0.12417,0.15219 -0.1683,0.12874 -0.1106,-0.0594 0.0365,-0.11888 0.032,-0.14584 -0.0341,-0.19584 -0.10668,-0.0807 -0.12227,-0.0763 -0.20207,0.0589 -0.10903,0.18434 -0.17563,0.15693 -0.11522,-0.0475 0.0421,-0.14263 0.0745,-0.20812 0.16639,-0.21034 z m 16.47753,0.33745 c 0.0328,0 0.06,0.018 0.06,0.0398 0,0.022 -0.027,0.0403 -0.06,0.0403 -0.0328,0 -0.0594,-0.0185 -0.0594,-0.0403 0,-0.022 0.0265,-0.0398 0.0594,-0.0398 z m -13.02141,0 c 0.0246,0 0.094,0.11377 0.15451,0.2527 0.0605,0.13891 0.17182,0.31261 0.24752,0.386 0.0926,0.0897 0.13798,0.16987 0.13798,0.24496 0,0.16203 -0.11134,0.14671 -0.12713,-0.0175 -0.01,-0.10162 -0.0328,-0.13253 -0.10747,-0.14314 -0.10597,-0.0151 -0.16251,0.0483 -0.16331,0.18294 0,0.0528 -0.0246,0.0894 -0.0599,0.0894 -0.0352,0 -0.0602,-0.0366 -0.0605,-0.0894 0,-0.13465 -0.0574,-0.19794 -0.1633,-0.18294 -0.0746,0.0106 -0.0975,0.0415 -0.10747,0.14314 -0.0167,0.17256 -0.11041,0.16619 -0.13901,-0.01 -0.0185,-0.11401 0.003,-0.17584 0.11369,-0.34157 0.0748,-0.11123 0.15713,-0.27213 0.18293,-0.35812 0.0259,-0.086 0.067,-0.15658 0.0915,-0.15658 z m 2.95174,0 h 0.20929 l 0.0646,0.19378 c 0.0353,0.10639 0.12755,0.26742 0.20516,0.35811 0.14009,0.16386 0.14038,0.16487 0.0429,0.16487 -0.0808,0 -0.10306,0.0249 -0.12454,0.13951 -0.0143,0.0766 -0.0421,0.13901 -0.062,0.13901 -0.0201,0 -0.0481,-0.0624 -0.0625,-0.13901 -0.0225,-0.11954 -0.0415,-0.13951 -0.13642,-0.13951 -0.0952,0 -0.11457,0.0198 -0.13748,0.1421 -0.0324,0.17243 -0.11623,0.16225 -0.13383,-0.0161 -0.0108,-0.10993 -0.0275,-0.12607 -0.12766,-0.12607 -0.10004,0 -0.11888,0.0185 -0.14158,0.13952 -0.0345,0.18343 -0.123,0.17959 -0.1447,-0.007 -0.0135,-0.11631 0.01,-0.18605 0.11422,-0.34158 0.0722,-0.10742 0.15248,-0.2654 0.17828,-0.35139 0.0468,-0.15618 0.0471,-0.15658 0.2563,-0.15658 z m 3.11714,0 h 0.23304 l 0.0698,0.18137 c 0.0382,0.0999 0.12994,0.26154 0.20413,0.35864 0.0856,0.11235 0.11467,0.17622 0.0796,0.17622 -0.0607,0 -0.10388,0.0841 -0.10388,0.20256 0,0.13401 -0.11311,0.0864 -0.1266,-0.0532 -0.01,-0.10165 -0.0328,-0.13202 -0.1075,-0.14263 -0.10594,-0.0151 -0.16248,0.0478 -0.1633,0.18243 0,0.14375 -0.11333,0.10872 -0.12764,-0.0398 -0.01,-0.10165 -0.0328,-0.13202 -0.10747,-0.14263 -0.10594,-0.0151 -0.16198,0.0478 -0.1628,0.18243 0,0.0528 -0.0246,0.0899 -0.0599,0.0899 -0.0402,0 -0.0599,-0.0406 -0.0599,-0.1235 0,-0.0907 -0.0214,-0.12838 -0.0816,-0.14418 -0.0819,-0.0214 -0.082,-0.0217 -0.003,-0.10593 0.0848,-0.0906 0.28239,-0.48985 0.28318,-0.57206 0,-0.0341 0.0741,-0.0496 0.23411,-0.0496 z m 3.00498,0 c 0.0679,0 0.10181,0.0413 0.15451,0.18965 0.0371,0.10454 0.13216,0.26612 0.21135,0.35862 0.14391,0.16809 0.14393,0.16796 0.0439,0.16796 -0.0833,0 -0.10223,0.0214 -0.11266,0.1266 -0.0175,0.1783 -0.10152,0.18796 -0.13382,0.0156 -0.023,-0.12218 -0.0423,-0.14211 -0.13745,-0.14211 -0.0948,0 -0.11404,0.0201 -0.13645,0.13954 -0.0143,0.0766 -0.0426,0.13952 -0.0625,0.13952 -0.0201,0 -0.0481,-0.0629 -0.0625,-0.13952 -0.0209,-0.11157 -0.0441,-0.13954 -0.11782,-0.13954 -0.0893,0 -0.0877,-0.007 0.0594,-0.22891 0.0835,-0.12592 0.16413,-0.28692 0.17931,-0.35812 0.0209,-0.0981 0.0487,-0.12919 0.11473,-0.12919 z m 2.73936,0 0.34573,0.003 c 0.25389,0.003 0.32068,0.0119 0.25268,0.0393 -0.0792,0.0317 -0.0905,0.0607 -0.0796,0.20256 0.0145,0.19151 -0.0513,0.2431 -0.11938,0.0935 -0.0978,-0.21473 -0.30811,-0.15629 -0.24392,0.0677 0.0193,0.0677 0.0257,0.1383 0.014,0.15708 v 0 c -0.0371,0.06 -0.077,0.0372 -0.14936,-0.0853 -0.0388,-0.0657 -0.0893,-0.11938 -0.11263,-0.11938 -0.0284,0 -0.0293,-0.0159 -0.003,-0.0496 0.0222,-0.0274 0.0525,-0.10811 0.0677,-0.17931 z m 0.73276,0.0806 c 0.008,0.003 0.0199,0.006 0.0357,0.0119 0.0374,0.0145 0.0848,0.0264 0.10491,0.0264 0.0198,-2e-5 0.036,0.0262 0.0362,0.0573 0,0.10432 -0.0702,0.10197 -0.14004,-0.005 -0.0483,-0.0739 -0.0604,-0.0952 -0.0367,-0.091 z M 5.2508,353.74897 c 0.0364,0.003 0.0707,0.0854 0.0393,0.11679 -0.0427,0.0427 -0.0904,0.0251 -0.0904,-0.0336 0,-0.0315 0.0161,-0.067 0.0357,-0.0791 0.005,-0.003 0.0103,-0.005 0.0156,-0.004 z m 14.13454,0.0439 0.0341,0.092 c 0.0185,0.0505 0.0236,0.10774 0.0114,0.12764 -0.0122,0.0198 -0.038,0.0362 -0.0574,0.0362 -0.0665,0 -0.0832,-0.0782 -0.0356,-0.16693 z m -1.95545,0.26821 c 0.008,-0.003 0.0289,0.01 0.0667,0.0331 0.0469,0.0293 0.0852,0.085 0.0852,0.12351 0,0.0386 -0.0265,0.0703 -0.0594,0.0703 -0.0328,0 -0.0599,-0.0257 -0.0599,-0.0568 0,-0.0311 -0.0116,-0.0862 -0.0259,-0.12301 -0.0114,-0.0297 -0.0151,-0.0451 -0.007,-0.047 z m -6.0048,0.004 c 0.0116,-2.1e-4 0.0322,0.0143 0.0625,0.0419 0.0424,0.0383 0.0671,0.0947 0.0553,0.12558 -0.0318,0.083 -0.0798,0.0679 -0.10697,-0.0336 -0.0246,-0.0919 -0.0302,-0.13345 -0.0109,-0.13385 z m 4.93924,0.003 c 0.0265,0.003 0.0274,0.0403 0.007,0.12041 -0.0289,0.1153 -0.094,0.13274 -0.13126,0.0356 -0.0154,-0.04 0.003,-0.0862 0.0481,-0.11885 0.0349,-0.0254 0.0601,-0.038 0.076,-0.0372 z m -1.68,0.0729 c 0.0257,0.004 0.0539,0.0322 0.0636,0.0822 0.008,0.0393 -0.0124,0.0667 -0.0496,0.0667 -0.0369,0 -0.0625,-0.0343 -0.0625,-0.0832 0,-0.0485 0.023,-0.0694 0.0486,-0.0656 z m -1.57096,0 c 0.0257,-0.004 0.0491,0.0172 0.0491,0.0656 0,0.0489 -0.0257,0.0827 -0.0625,0.0827 -0.0371,0 -0.0576,-0.0269 -0.0496,-0.0661 0.01,-0.0499 0.0374,-0.0784 0.0631,-0.0822 z m -5.99808,0.0687 c 0.0222,0 0.029,0.018 0.0156,0.0398 -0.0135,0.022 -0.0427,0.0398 -0.0646,0.0398 -0.0222,0 -0.0285,-0.018 -0.0151,-0.0398 0.0135,-0.022 0.0422,-0.0398 0.0641,-0.0398 z m 2.78482,0 c 0.0206,0 0.0377,0.018 0.0377,0.0398 0,0.022 -0.0284,0.0398 -0.0625,0.0398 -0.0345,0 -0.0507,-0.018 -0.0372,-0.0398 0.0135,-0.022 0.0414,-0.0398 0.062,-0.0398 z" />
  </g>
</svg>
