<?xml version="1.0" encoding="UTF-8" standalone="no"?>
<!-- Created with Inkscape (http://www.inkscape.org/) -->

<svg
   width="11.04963mm"
   height="5.3545198mm"
   viewBox="0 0 11.04963 5.3545198"
   version="1.1"
   id="svg5570"
   sodipodi:docname="inkporter-svg-6ka1phie.svg"
   xmlns:inkscape="http://www.inkscape.org/namespaces/inkscape"
   xmlns:sodipodi="http://sodipodi.sourceforge.net/DTD/sodipodi-0.dtd"
   xmlns="http://www.w3.org/2000/svg"
   xmlns:svg="http://www.w3.org/2000/svg">
  <sodipodi:namedview
     id="namedview5572"
     pagecolor="#ffffff"
     bordercolor="#666666"
     borderopacity="1.0"
     inkscape:pageshadow="2"
     inkscape:pageopacity="0.0"
     inkscape:pagecheckerboard="0"
     inkscape:document-units="mm"
     showgrid="false"
     inkscape:zoom="0.32026164"
     inkscape:cx="1339.5297"
     inkscape:cy="1250.54"
     inkscape:window-width="3840"
     inkscape:window-height="2081"
     inkscape:window-x="2391"
     inkscape:window-y="-9"
     inkscape:window-maximized="1"
     inkscape:current-layer="layer1" />
  <defs
     id="defs5567" />
  <g
     inkscape:label="Layer 1"
     inkscape:groupmode="layer"
     id="layer1"
     transform="translate(-256.98277,-333.76715)">
    <path
       d="m 258.23067,339.0712 c -0.42684,-0.11754 -0.75615,-0.38947 -0.94104,-0.77702 -0.0914,-0.19168 -0.11443,-0.28603 -0.12754,-0.52536 -0.0119,-0.2128 -0.0336,-0.31654 -0.0807,-0.38354 -0.0819,-0.11646 -0.0819,-0.11693 0.0238,-0.2693 l 0.0883,-0.12752 -0.10536,-0.12777 -0.10536,-0.12776 v -0.5685 -0.56846 l 0.53385,-0.003 c 0.69845,-0.004 0.70947,-0.007 0.85519,-0.22378 l 0.11921,-0.17651 0.44909,-8.8e-4 0.44913,-8.7e-4 v -0.53632 -0.53633 l 0.75415,-0.16655 0.75415,-0.16658 0.89822,-0.009 0.8982,-0.009 0.50837,0.49105 0.50837,0.49105 h 1.89895 1.89897 l 0.26188,0.26342 0.2619,0.26345 v 0.29759 0.29761 l -0.58344,0.87101 c -0.58207,0.869 -0.58348,0.87155 -0.60517,1.10024 -0.0664,0.70113 -0.70838,1.2791 -1.42068,1.2791 -0.51199,0 -1.04068,-0.32375 -1.27106,-0.77837 l -0.0865,-0.17068 -2.05853,1.2e-4 -2.05853,1.1e-4 -0.1016,0.18912 c -0.11682,0.21726 -0.38161,0.48231 -0.58615,0.58664 -0.3202,0.16335 -0.71363,0.21042 -1.03019,0.12329 z"
       id="B-Dingo" />
  </g>
</svg>
