<?xml version="1.0" encoding="UTF-8" standalone="no"?>
<!-- Created with Inkscape (http://www.inkscape.org/) -->

<svg
   width="28.940018mm"
   height="9.1960211mm"
   viewBox="0 0 28.940018 9.1960211"
   version="1.1"
   id="svg3698"
   sodipodi:docname="inkporter-svg-b964m62_.svg"
   xmlns:inkscape="http://www.inkscape.org/namespaces/inkscape"
   xmlns:sodipodi="http://sodipodi.sourceforge.net/DTD/sodipodi-0.dtd"
   xmlns="http://www.w3.org/2000/svg"
   xmlns:svg="http://www.w3.org/2000/svg">
  <sodipodi:namedview
     id="namedview3700"
     pagecolor="#ffffff"
     bordercolor="#666666"
     borderopacity="1.0"
     inkscape:pageshadow="2"
     inkscape:pageopacity="0.0"
     inkscape:pagecheckerboard="0"
     inkscape:document-units="mm"
     showgrid="false"
     inkscape:zoom="1.3273709"
     inkscape:cx="562.76658"
     inkscape:cy="539.03546"
     inkscape:window-width="1920"
     inkscape:window-height="1017"
     inkscape:window-x="-8"
     inkscape:window-y="-8"
     inkscape:window-maximized="1"
     inkscape:current-layer="layer1" />
  <defs
     id="defs3695" />
  <g
     inkscape:label="Layer 1"
     inkscape:groupmode="layer"
     id="layer1"
     transform="translate(-149.57764,-136.92548)">
    <path
       d="m 170.71834,146.05675 c 0.72226,-0.15769 1.27786,-0.85257 1.24369,-1.597 -0.015,-0.36504 0.54644,-0.20072 0.74283,-0.0629 0.37405,0.18173 0.83953,0.16581 1.24225,0.11766 0.98225,-0.17307 1.80313,-0.78385 2.70217,-1.18267 0.44871,-0.25128 0.99922,-0.38069 1.24038,-0.88049 0.2117,-0.60894 0.32542,0.17055 0.62567,-0.18141 0.0312,-0.23157 -0.26296,-0.24779 -0.16739,-0.70389 -0.0812,-0.27836 0.0872,-0.77949 -0.12088,-0.91145 -0.0805,-0.19659 -0.36122,-0.33422 -0.60704,-0.57699 -0.0751,-0.32315 -0.60783,-0.14477 -0.8847,-0.18685 -0.82692,0.009 -1.65384,0.0183 -2.48076,0.0274 0.006,-0.41984 -0.64854,-0.007 -0.41665,-0.6243 0,-0.68818 0,-1.37635 0,-2.06452 -0.47154,-0.058 -0.19592,0.54125 -0.27548,0.82806 -0.007,0.54542 -0.0143,1.09084 -0.0215,1.63626 -0.78474,0.0266 -1.56873,0.0876 -2.35427,0.0772 0,-0.84445 0,-1.6889 0,-2.53334 -0.50085,-0.13917 -0.22548,0.49787 -0.29457,0.79048 0,0.57917 0,1.15834 0,1.73752 -0.77814,0.12096 -1.57177,0.0715 -2.35659,0.1189 0,-0.8823 0,-1.7646 0,-2.6469 -0.50085,-0.13917 -0.2255,0.49787 -0.29457,0.79048 0,0.61431 0,1.22861 0,1.84291 -0.76459,0.0648 -1.53048,0.0906 -2.29768,0.0767 0,-0.90336 0,-1.80673 0,-2.71008 -0.50086,-0.13917 -0.2255,0.49787 -0.29458,0.79047 0,0.65951 0,1.31902 0,1.97853 -0.82577,-0.016 -1.64979,0.0436 -2.47442,0.0772 0,-0.94454 0,-1.88909 0,-2.83363 -0.44149,-0.21512 -0.26271,0.41848 -0.29457,0.66608 0,0.71221 0,1.42441 0,2.13662 -0.46659,0.15538 -0.98487,0.0317 -1.47287,0.0715 0.0906,-0.46812 -0.16488,-0.59021 -0.11783,-1.0148 0,-0.66328 0,-1.32657 0,-1.98986 0.31073,0.1217 1.00332,-0.20877 0.34432,-0.16882 -0.50687,-0.12015 -0.55634,0.20307 -0.49933,0.62954 -0.008,0.63251 -0.0161,1.26502 -0.0241,1.89753 -0.50693,-0.0716 -0.80211,-0.55611 -1.2054,-0.82982 -0.0923,-0.39706 -0.36627,-0.4353 -0.66738,-0.54715 -0.25644,-0.18439 -0.41243,0.49146 -0.62766,0.65998 -0.27491,0.2524 -0.39249,0.44123 -0.244,0.80426 -0.27258,0.0853 -0.27604,0.3172 -0.67758,0.36368 -1.06489,0.16772 -2.13541,0.29567 -3.20356,0.44038 -0.30307,0.4449 -0.35373,-0.41655 -0.53744,-0.0871 0.0385,0.50903 -0.48712,0.10815 -0.7664,0.26182 -0.42161,0.0194 -0.88599,0.26688 -1.24308,-0.0575 -0.33891,-0.16421 -0.67863,-0.10839 -0.69494,0.30097 -0.22533,0.2125 -0.68569,0.0748 -1.00093,0.1671 -0.53004,0.27636 -0.21983,-0.28315 -0.56385,-0.37349 -0.0467,0.28492 -0.19316,0.68933 -0.0112,0.95024 0.16408,-0.2633 0.24358,0.45638 0.5376,0.5419 0.80543,0.66016 1.63505,1.2891 2.47091,1.91002 0.10838,0.65868 0.18949,0.13407 0.60119,0.31585 0.34723,0.12481 0.69897,0.23386 1.0609,0.3073 -0.0102,0.35852 0.24192,0.69064 0.41651,0.98313 0.39613,0.34416 0.87975,0.58811 1.41552,0.50448 0.46191,-0.0129 0.90152,-0.28109 1.1695,-0.65679 0.27841,-0.22059 0.26342,-0.60214 0.38063,-0.91117 2.32516,0.0817 4.65154,0.11147 6.97764,0.15283 0.37175,0.0435 0.48514,-0.69671 0.48513,-0.0997 0.0286,0.74497 0.67046,1.39995 1.38368,1.5204 0.46495,0.0397 0.93049,-0.0192 1.30346,-0.31629 0.29568,-0.25924 0.53178,-0.55646 0.62349,-0.94579 0.35295,-0.0271 0.2413,0.55852 0.53434,0.69964 0.39818,0.45942 1.10277,0.71158 1.69134,0.51953 z m 7.43759,-4.29677 c 0.0812,-0.30405 -0.0169,0.74806 -0.002,0.0138 z m -18.26245,-2.61042 c -0.28039,0.0157 -0.85357,-0.24818 -0.39968,-0.34195 0.31086,-0.19894 0.55192,0.15742 0.83474,0.37753 0.1006,0.15315 -0.40236,-0.0588 -0.43506,-0.0356 z m -1.04176,-0.25002 c -0.002,-0.14902 0.39117,-0.88191 0.45503,-0.44329 0.052,0.32534 -0.11738,0.66441 -0.45503,0.44329 z m 0.56078,-0.37029 c 0.0597,-0.4038 0.30545,0.53253 0.003,0.0222 z m 0.13322,-0.21604 c 0.27688,-0.0451 0.1305,0.39786 0,0 z"
       id="B-DUKW" />
  </g>
</svg>
