<?xml version="1.0" encoding="UTF-8" standalone="no"?>
<!-- Created with Inkscape (http://www.inkscape.org/) -->

<svg
   width="16.613371mm"
   height="8.3453703mm"
   viewBox="0 0 16.613371 8.3453703"
   version="1.1"
   id="svg1"
   xml:space="preserve"
   sodipodi:docname="inkporter-svg-fua_ntp3.svg"
   xmlns:inkscape="http://www.inkscape.org/namespaces/inkscape"
   xmlns:sodipodi="http://sodipodi.sourceforge.net/DTD/sodipodi-0.dtd"
   xmlns="http://www.w3.org/2000/svg"
   xmlns:svg="http://www.w3.org/2000/svg"><sodipodi:namedview
     id="namedview1"
     pagecolor="#ffffff"
     bordercolor="#666666"
     borderopacity="1.0"
     inkscape:showpageshadow="2"
     inkscape:pageopacity="0.0"
     inkscape:pagecheckerboard="0"
     inkscape:deskcolor="#d1d1d1"
     inkscape:document-units="mm"
     inkscape:zoom="1.0293026"
     inkscape:cx="365.78163"
     inkscape:cy="281.25839"
     inkscape:window-width="1920"
     inkscape:window-height="1017"
     inkscape:window-x="-8"
     inkscape:window-y="-8"
     inkscape:window-maximized="1"
     inkscape:current-layer="layer1" /><defs
     id="defs1"><clipPath
       clipPathUnits="userSpaceOnUse"
       id="clipPath1544"><path
         d="M 0,0 H 595.276 V 841.89 H 0 Z"
         transform="translate(-172.36663,-750.91612)"
         id="path1544" /></clipPath></defs><g
     inkscape:label="Layer 1"
     inkscape:groupmode="layer"
     id="layer1"
     transform="translate(-138.37707,-61.11874)"><path
       id=" B-Grant"
       d="m 149.54786,61.44123 h 0.084 v 0.2473 c 0.15275,0.0526 0.31009,0.1083 0.39335,0.14428 0.1965,0.0857 0.43391,0.15593 0.43391,0.36548 v 0.72884 l -0.78493,0.30974 v 0.21061 l 0.15382,0.0409 0.0843,0.14076 v 0.3496 h 0.14111 v 0.3235 h 0.60254 l 0.0557,-0.6731 2.58022,0.36406 0.0141,0.2533 h -0.11253 l -0.0138,0.49036 1.03752,0.0981 0.28187,0.15381 v 0.63148 h -0.28187 l -0.0988,0.51823 0.54892,0.47589 0.32315,0.87983 h -0.34996 c -0.006,0.33585 -0.15416,0.64523 -0.48225,0.85055 -0.27305,0.17074 -2.19216,1.11936 -2.54176,1.11936 h -10.48385 c -0.49424,0 -2.14207,-1.18533 -2.29517,-1.47249 -0.0836,-0.15628 -0.12453,-0.37853 -0.12206,-0.56974 h -0.33832 v -0.59196 c 0,0 0.39511,-0.42227 0.66428,-0.52987 0.26952,-0.10795 0.4124,-0.18839 0.70027,-0.16157 0.0162,0.001 0.0776,0.003 0.17921,0.004 V 65.8693 h 0.45543 v -0.36125 h 0.28046 v 0.0413 c 0.091,-0.001 0.15417,0.096 0.15417,0.2159 0,0.0377 -0.006,0.0734 -0.0173,0.10407 l 0.24271,-0.15064 V 65.41 h 0.46214 l 0.42016,-0.32279 c 0,0 -0.0741,-0.11642 -0.0935,-0.266 h -2.52871 v -0.32279 h 2.58763 c 0.0437,-0.0727 0.11042,-0.12559 0.20249,-0.1397 0.18344,-0.0282 0.25329,-0.0282 0.25329,-0.0282 l 0.32244,-0.57573 h -0.2801 l 0.23812,-0.32174 h 0.42051 v -0.12629 h 0.44909 v 0.12629 h 0.12629 v -0.16862 h 0.44839 v -0.29528 h 0.51893 v 0.29528 h 0.38065 l -0.072,-0.25224 0.0268,-0.0254 -0.0131,-0.12982 -0.0981,-0.042 v -0.23813 h -0.51929 v -0.0699 h -2.24367 v -0.16792 h 2.24367 v -0.0702 h 0.81068 l 0.0589,-0.0984 h 0.15416 c 0,0 0.043,-0.15381 0.1972,-0.22401 0.11183,-0.0508 0.42898,-0.0794 0.59514,-0.0921 l 0.31574,-0.30127 h 0.36512 v -0.0981 h 0.15416 v -0.14005 h 1.24778 v -0.19615 h 0.2667 v 0.19615 h 0.57503 v 0.14005 h 0.15416 v 0.0981 h 0.0423 l 0.16793,0.055 v -0.16686 h 0.084 m -6.50311,7.71666 v 0.1076 h 0.15487 c -0.0564,-0.0293 -0.10865,-0.0653 -0.15487,-0.1076 m -0.15804,-0.0561 h 0.10266 c -0.10937,-0.12524 -0.17604,-0.28857 -0.17604,-0.46778 l 0.001,-0.0455 h -0.92251 l 0.002,0.0455 c 0,0.27516 -0.15734,0.51364 -0.38664,0.63147 h 0.53798 v -0.16369 h 0.15769 v 0.16369 h 0.26318 v -0.16369 h 0.15769 v 0.16369 h 0.26282 z m 1.68275,0 h 0.15804 v 0.16369 h 0.21837 c -0.2293,-0.11783 -0.38594,-0.35631 -0.38594,-0.63147 0,-0.1203 0.0296,-0.23319 0.0818,-0.33267 h -0.49319 c 0.0529,0.0995 0.0825,0.21237 0.0825,0.33267 0,0.25858 -0.13829,0.48436 -0.34537,0.60854 l 0.26282,0.0229 v -0.16369 h 0.15805 v 0.16369 h 0.26282 z m 2.6296,0.16369 v -0.0512 c -0.18274,-0.12877 -0.30197,-0.34044 -0.30197,-0.58032 l 0.001,-0.0455 h -0.9218 l 0.001,0.0455 c 0,0.24059 -0.1203,0.45332 -0.30375,0.58173 v 0.0497 h 0.26318 v -0.16369 h 0.15769 v 0.16369 h 0.26282 v -0.16369 h 0.15804 v 0.16369 h 0.26247 v -0.16369 h 0.15769 v 0.16369 z m 0.84138,0 v -0.0713 c -0.0346,0.0268 -0.0723,0.0508 -0.11183,0.0713 z m 0.42086,-0.16369 h 0.15769 v 0.16369 h 0.35737 c -0.22966,-0.11783 -0.387,-0.35631 -0.387,-0.63147 0,-0.1203 0.03,-0.23319 0.0825,-0.33267 h -0.43921 c 0.0526,0.0995 0.0822,0.21237 0.0822,0.33267 0,0.17921 -0.0663,0.34254 -0.17604,0.46778 h 0.0596 v 0.16369 h 0.26282 z m 1.3148,0.16369 v -0.1076 c -0.0466,0.0423 -0.0984,0.0783 -0.15487,0.1076 z m 1.41993,-0.0759 v 0.0759 h 0.11713 c -0.0416,-0.0215 -0.0804,-0.0473 -0.11713,-0.0759 m -0.15769,-0.0878 h 0.0649 c -0.11006,-0.12524 -0.17603,-0.28857 -0.17603,-0.46778 l 0.001,-0.0455 h -0.92216 l 0.002,0.0455 c 0,0.17921 -0.0667,0.34254 -0.17674,0.46778 h 0.10266 v 0.16369 h 0.26282 v -0.16369 h 0.15804 v 0.16369 h 0.26282 v -0.16369 h 0.15769 v 0.16369 h 0.26317 z m 1.15429,-3.5e-4 -0.037,0.0152 z m 1.52612,-0.70873 -0.0201,-0.0437 c -0.28434,-0.0272 -0.52599,-0.20143 -0.64805,-0.4452 l -0.31468,0.39758 h -0.47343 c 0.0529,0.0995 0.0826,0.21237 0.0826,0.33267 0,0.10265 -0.0219,0.20073 -0.0614,0.28892 l 0.0547,0.11712 c 0.0773,-0.0324 0.15804,-0.0677 0.24095,-0.10477 l -0.0691,-0.14817 0.14323,-0.0667 0.0699,0.15028 0.23883,-0.11042 -0.0706,-0.15064 0.14323,-0.0667 0.0698,0.15028 0.23707,-0.11394 -0.0688,-0.14747 0.14287,-0.067 0.0677,0.14534 z m -13.976,0.0603 0.0286,-0.0444 0.0349,7.1e-4 c 0.0413,0 0.0822,-0.003 0.12206,-0.008 l 0.0258,0.0166 -0.0829,0.127 c 0.0713,0.0501 0.14394,0.10019 0.21696,0.14887 l 0.0861,-0.13229 0.13264,0.0857 -0.0875,0.13476 c 0.0748,0.0497 0.14888,0.0974 0.22049,0.14287 l 0.0628,-0.0967 c -0.0173,-0.0614 -0.0272,-0.12665 -0.0272,-0.19367 0,-0.1203 0.03,-0.23319 0.0826,-0.33267 h -0.18979 l -0.0462,-0.0543 c -0.115,0.0801 -0.24871,0.13441 -0.3937,0.15381 -0.0399,0.005 -0.0808,0.008 -0.12206,0.008 l -0.0349,-7.1e-4 c -0.0349,-0.001 -0.0698,-0.005 -0.10407,-0.01 z" /></g></svg>
