<?xml version="1.0" encoding="UTF-8" standalone="no"?>
<!-- Created with Inkscape (http://www.inkscape.org/) -->

<svg
   width="12.34936mm"
   height="7.00488mm"
   viewBox="0 0 12.34936 7.00488"
   version="1.1"
   id="svg1"
   xml:space="preserve"
   sodipodi:docname="inkporter-svg-fua_ntp3.svg"
   xmlns:inkscape="http://www.inkscape.org/namespaces/inkscape"
   xmlns:sodipodi="http://sodipodi.sourceforge.net/DTD/sodipodi-0.dtd"
   xmlns="http://www.w3.org/2000/svg"
   xmlns:svg="http://www.w3.org/2000/svg"><sodipodi:namedview
     id="namedview1"
     pagecolor="#ffffff"
     bordercolor="#666666"
     borderopacity="1.0"
     inkscape:showpageshadow="2"
     inkscape:pageopacity="0.0"
     inkscape:pagecheckerboard="0"
     inkscape:deskcolor="#d1d1d1"
     inkscape:document-units="mm"
     inkscape:zoom="1.0293026"
     inkscape:cx="365.78163"
     inkscape:cy="281.25839"
     inkscape:window-width="1920"
     inkscape:window-height="1017"
     inkscape:window-x="-8"
     inkscape:window-y="-8"
     inkscape:window-maximized="1"
     inkscape:current-layer="layer1" /><defs
     id="defs1"><clipPath
       clipPathUnits="userSpaceOnUse"
       id="clipPath1544"><path
         d="M 0,0 H 595.276 V 841.89 H 0 Z"
         transform="translate(-172.36663,-750.91612)"
         id="path1544" /></clipPath></defs><g
     inkscape:label="Layer 1"
     inkscape:groupmode="layer"
     id="layer1"
     transform="translate(-150.54792,-96.57291)"><path
       id="B-Honey"
       d="m 159.9735,102.4743 c 0.0275,0.11324 0.0773,0.21766 0.14393,0.30903 l 0.31115,-0.30903 z m 0.34184,0.50518 c 0.0402,0.0289 0.0829,0.0543 0.12806,0.0765 h 0.16616 l 0.002,0.0628 c 0.0282,0.007 0.0561,0.0134 0.085,0.0169 v -0.53481 z m 0.6604,0.15628 c 0.14111,-0.0215 0.27058,-0.0762 0.38135,-0.15628 l -0.38135,-0.37853 z m 0.57926,-0.35243 c 0.0808,-0.10971 0.13582,-0.23883 0.15805,-0.37817 h -0.26529 c 0,0.043 -0.0265,0.0691 -0.0589,0.0691 h -0.14499 z m 0.15805,-0.65546 c -0.0222,-0.1397 -0.0773,-0.26846 -0.15805,-0.37888 l -0.29421,0.29245 h 0.12805 c 0.0325,0 0.0589,0.0258 0.0589,0.0589 v 0.0275 z m -0.35596,-0.57467 c -0.0705,-0.0508 -0.14922,-0.0914 -0.23353,-0.1203 l -0.0254,0.0713 -0.12242,0.36372 v 0.0639 z m -0.0914,-0.52282 c 1.35432,0.54892 0.92993,2.54741 -0.46425,2.54741 h -7.89517 c -0.21449,0 -0.52811,-0.11218 -0.6731,-0.18345 -0.15134,-0.0755 -1.21214,-0.89852 -1.37971,-1.12077 -0.19967,-0.26423 -0.24271,-0.72143 -0.0727,-1.02976 h -0.23284 c 0,0 0.0702,-0.22542 0.20991,-0.39828 0.14005,-0.17357 0.43638,-0.3295 0.61136,-0.36372 0.018,-0.004 0.048,-0.008 0.0875,-0.012 v -0.54258 l 0.0173,-7e-4 c 0.1337,0 0.24659,0.0878 0.28363,0.20849 h 0.0483 v 0.30656 c 0.12559,-0.009 0.26564,-0.0176 0.40181,-0.0254 v -0.15522 c 0,-0.0215 0.0173,-0.0399 0.0399,-0.0399 h 0.35701 c 0.0226,0 0.0392,0.0183 0.0392,0.0399 v 0.13053 l 0.26246,-0.0141 v -0.26035 h 1.16981 l 0.0653,-0.41557 h -0.27446 v -0.17322 h 0.30127 l 0.0483,-0.31221 0.25118,-0.28292 h -0.10654 v -0.13265 h -0.14005 v 0.0758 l -0.2473,-0.0758 h -0.26741 l -0.121,-0.17674 v -0.11324 l 0.0963,-0.13194 h -0.82621 v -0.0476 h -2.02635 v -0.139 h 2.02635 v -0.0473 h 0.90876 v -0.0565 l 0.0953,-0.13264 h 0.15169 l 0.13371,-0.28328 h 0.21625 v 0.15099 h 0.20884 v -0.23354 h 0.12206 l 0.0113,-0.0748 0.81316,-0.24589 h 0.73095 v 0.16052 h -0.1337 v -0.28293 h 0.2861 v 0.0751 h 1.5815 v -0.27093 h 0.11395 v -0.0565 l -1.4986,-3.5e-4 v -0.15099 h 1.4986 v -0.0945 h 0.77505 v -0.0755 h 0.2473 v 0.0755 h 0.0381 v 0.15099 h 0.1591 l 0.0826,-3.6e-4 c 0.0215,0 0.0392,0.018 0.0392,0.0399 v 0.20002 c 0,0.0222 -0.0176,0.0395 -0.0392,0.0395 h -0.079 c -0.0219,0 -0.0395,-0.0173 -0.0395,-0.0395 v -0.12559 h -0.12312 v 0.0755 h -0.1404 c 0.002,0.008 0.004,0.0183 0.004,0.0289 v 0.13264 c 0,0.054 -0.0441,0.0981 -0.0988,0.0981 h -0.2286 v 0.0836 c 0,0.0536 -0.0441,0.0981 -0.0988,0.0981 h -0.36089 c -0.0123,0 -0.024,-0.002 -0.0349,-0.006 v 0.47555 h -0.14076 v 0.22613 h 0.1023 v 0.36583 h -0.1023 v 0.3436 h 0.17674 v 0.13829 h 0.0526 v 0.10196 h 0.10478 v -0.0667 h 0.0875 v -0.12171 h 0.24447 v 0.12171 h 0.0702 V 98.8353 h 0.10407 v -0.0695 h 0.10477 v 0.0695 h 0.0875 v 0.0695 h 0.10513 v 0.10407 h 0.24412 v -0.32949 h 0.1397 v 0.10371 h 0.0875 v -0.0864 h 0.57608 v 0.37359 c 0.68721,-7e-4 1.27494,0.001 1.36243,0.008 0.22719,0.0173 0.45473,0.0864 0.68122,0.24235 0.22789,0.15628 0.24482,0.27729 0.24482,0.27729 v 0.242 h 0.26741 c 0.0554,0 0.0995,0.0444 0.0995,0.0988 v 0.30621 c 0,0.0543 -0.0441,0.0981 -0.0995,0.0981 h -0.26741 v 0.13935 l -0.94297,-0.30656 v 0.27411 h 0.28187 l 0.46849,0.44767 -0.0688,0.0702 -0.43956,-0.41945 h -0.39299 z m -0.64276,2.35091 h 0.1704 c -0.0582,-0.009 -0.11607,-0.0152 -0.17145,-0.0265 z m -0.36371,0 h 0.16933 l 0.004,-0.0804 c -0.0628,-0.024 -0.12347,-0.0543 -0.18027,-0.0885 z m -1.44357,0 h 0.17004 l 0.0134,-0.32526 h 0.16651 l 0.0134,0.32526 h 0.15875 l 0.0134,-0.32526 h 0.16651 l 0.0141,0.32526 h 0.17004 l 0.0134,-0.32526 h 0.1658 l 0.0141,0.32526 h 0.17004 l 0.0131,-0.29986 c -0.17286,-0.15804 -0.29492,-0.36901 -0.34007,-0.60713 h -0.75354 c 0.0236,0.0713 0.0371,0.1464 0.0371,0.22542 0,0.19791 -0.0822,0.37677 -0.21343,0.50518 z m -0.3115,0 h 0.11712 l 0.002,-0.0459 c -0.0374,0.0187 -0.078,0.0339 -0.11924,0.0459 m -0.41663,0 h 0.0222 l -0.0222,-0.007 z m -0.36371,0 h 0.17004 l 0.004,-0.10019 c -0.0734,-0.0512 -0.13688,-0.115 -0.18697,-0.18909 z m -0.72778,0 h 0.16968 l 0.0134,-0.32526 h 0.16721 l 0.0134,0.32526 h 0.17004 l 0.0134,-0.32526 h 0.1457 c -0.0614,-0.10477 -0.0967,-0.22648 -0.0967,-0.35631 0,-0.0268 0.001,-0.0526 0.005,-0.0787 h -0.0483 c -0.0515,0.0624 -0.12912,0.10195 -0.21661,0.10195 -0.0875,0 -0.1651,-0.0395 -0.21661,-0.10195 h -0.0416 c 0.003,0.0261 0.004,0.0519 0.004,0.0787 0,0.12983 -0.0339,0.25154 -0.0956,0.35631 z m -0.36372,0 h 0.17004 l 0.005,-0.12559 c -0.0526,0.042 -0.11218,0.0762 -0.17674,0.1016 z m -0.75106,0 h 0.17004 l 0.002,-0.043 c -0.0663,-0.0314 -0.12629,-0.0727 -0.17886,-0.12206 z m -0.36407,0 h 0.17004 l 0.0134,-0.32526 h 0.0448 c -0.0614,-0.10477 -0.0967,-0.22648 -0.0967,-0.35631 0,-0.13299 0.0363,-0.25752 0.10124,-0.36406 h -0.41063 c 0.0646,0.10654 0.1016,0.23107 0.1016,0.36406 0,0.12983 -0.0356,0.25154 -0.0974,0.35631 h 0.15946 z m -0.36407,0 h 0.16969 l 0.0141,-0.31256 c -0.0494,0.079 -0.11289,0.14781 -0.18873,0.20285 z m -0.22965,0 h 0.036 z m -0.49813,0 h 0.10337 c -0.036,-0.0106 -0.0713,-0.0233 -0.10513,-0.0392 z m -1.10348,0 h 0.18168 l 0.0137,-0.32526 h 0.16581 l 0.0148,0.32526 h 0.16933 l 0.0141,-0.32526 h 0.16581 l 0.0141,0.32526 h 0.17004 l 0.007,-0.16333 c -0.1397,-0.12947 -0.22719,-0.31362 -0.22719,-0.51824 0,-0.0268 0.002,-0.0526 0.004,-0.0787 h -0.0476 c -0.0515,0.0624 -0.12982,0.10195 -0.21696,0.10195 -0.0875,0 -0.16545,-0.0395 -0.2159,-0.10195 h -0.0423 c 0.003,0.0261 0.005,0.0519 0.005,0.0787 0,0.18274 -0.0698,0.3489 -0.18415,0.47484 z m -0.34185,0 h 0.14817 l 0.002,-0.0624 c -0.0473,0.0265 -0.0974,0.0473 -0.15029,0.0624 m -0.78775,-0.24871 0.0596,0.0413 c -0.0166,-0.0176 -0.0328,-0.0374 -0.0476,-0.0575 z m -0.28928,-0.21731 0.12983,0.0995 0.0741,-0.0836 c -0.025,-0.0727 -0.0392,-0.15064 -0.0392,-0.23143 z m -0.28575,-0.22472 0.12806,0.1016 0.26141,-0.29351 0.0751,0.0607 c 0.0162,-0.0801 0.0462,-0.15593 0.0875,-0.22366 h -0.36583 l 0.0497,0.0392 z m -0.28927,-0.23777 c 0.043,0.0363 0.0882,0.0737 0.1344,0.11218 l 0.20426,-0.2293 c -0.066,0.0222 -0.13617,0.0349 -0.2099,0.0349 -0.0219,0 -0.0434,-10e-4 -0.0649,-0.003 z m -0.18451,-0.16263 0.0349,0.0317 c -0.006,-0.0159 -0.0212,-0.0236 -0.0349,-0.0317" /></g></svg>
