<?xml version="1.0" encoding="UTF-8" standalone="no"?>
<!-- Created with Inkscape (http://www.inkscape.org/) -->

<svg
   width="10.947491mm"
   height="6.5768394mm"
   viewBox="0 0 10.947491 6.5768394"
   version="1.1"
   id="svg1"
   xml:space="preserve"
   sodipodi:docname="inkporter-svg-dpjczvfn.svg"
   xmlns:inkscape="http://www.inkscape.org/namespaces/inkscape"
   xmlns:sodipodi="http://sodipodi.sourceforge.net/DTD/sodipodi-0.dtd"
   xmlns="http://www.w3.org/2000/svg"
   xmlns:svg="http://www.w3.org/2000/svg"><sodipodi:namedview
     id="namedview1"
     pagecolor="#ffffff"
     bordercolor="#666666"
     borderopacity="1.0"
     inkscape:showpageshadow="2"
     inkscape:pageopacity="0.0"
     inkscape:pagecheckerboard="0"
     inkscape:deskcolor="#d1d1d1"
     inkscape:document-units="mm"
     inkscape:zoom="1.6641134"
     inkscape:cx="396.6076"
     inkscape:cy="561.25984"
     inkscape:window-width="3840"
     inkscape:window-height="2081"
     inkscape:window-x="2391"
     inkscape:window-y="-9"
     inkscape:window-maximized="1"
     inkscape:current-layer="layer1" /><defs
     id="defs1" /><g
     inkscape:label="Layer 1"
     inkscape:groupmode="layer"
     id="layer1"
     transform="translate(-29.254809,-57.331321)"><path
       style="fill:#000000;stroke-width:0.0618617"
       d="m 31.78021,63.88442 c -0.42351,-0.0769 -0.79292,-0.33221 -1.00119,-0.69212 -0.13067,-0.22579 -0.19925,-0.47804 -0.19925,-0.73292 0,-0.11026 0.0313,-0.32093 0.0578,-0.38802 0.0105,-0.0267 -0.0113,-0.0286 -0.3242,-0.0286 H 29.9779 l -0.36189,-0.54887 c -0.19905,-0.30188 -0.36159,-0.55415 -0.3612,-0.56059 3.7e-4,-0.008 0.28397,-0.22351 0.63015,-0.48238 l 0.62943,-0.47063 v -0.13087 -0.13086 h 0.0617 c 0.0339,0 0.0895,0.0149 0.12346,0.0332 0.0356,0.0191 0.0709,0.0278 0.0834,0.0205 0.0119,-0.008 0.21778,-0.15989 0.45759,-0.33979 l 0.436,-0.32712 v -0.15073 -0.15073 l 0.21687,-0.009 c 0.11928,-0.005 0.39364,-0.0133 0.60968,-0.0177 l 0.39282,-0.009 0.12236,0.12325 0.12235,0.12325 h 0.10407 c 0.0572,0 0.10158,-0.008 0.0986,-0.0153 -0.003,-0.009 -0.0706,-0.0747 -0.15027,-0.1473 l -0.14483,-0.13208 h -0.1778 -0.1778 l -0.005,-0.14323 -0.005,-0.14323 -0.29871,-0.005 c -0.25056,-0.004 -0.29871,-0.009 -0.29871,-0.0287 0,-0.021 -0.14019,-0.0242 -1.09662,-0.0242 h -1.09663 v -0.0737 -0.0737 h 1.09663 c 0.96387,0 1.09662,-0.003 1.09662,-0.0245 0,-0.0209 0.0445,-0.0245 0.30281,-0.0245 0.25824,0 0.30281,-0.004 0.30281,-0.0245 0,-0.0197 0.0255,-0.0245 0.13092,-0.0245 h 0.13094 v -0.22207 -0.22207 l 0.0368,0.0114 c 0.0899,0.028 0.17935,0.0803 0.22438,0.13163 0.0464,0.0531 0.0539,0.0555 0.15978,0.0554 0.0972,-1.2e-4 0.23655,-0.0258 0.45059,-0.083 0.0558,-0.0149 0.0614,-0.0215 0.0614,-0.0728 0,-0.045 0.009,-0.0581 0.0368,-0.0649 0.0203,-0.005 0.11785,-0.0254 0.21687,-0.0461 l 0.18005,-0.0375 0.005,-0.0524 0.005,-0.0524 h 0.13788 0.13786 l 0.0222,-0.0533 c 0.0122,-0.0293 0.0353,-0.0641 0.0512,-0.0772 0.0261,-0.0216 0.0328,-0.0195 0.0675,0.0208 0.0234,0.0274 0.0426,0.0764 0.0494,0.12584 0.009,0.0542 0.0196,0.0837 0.0374,0.0891 0.0146,0.005 0.26916,0.0524 0.56564,0.1068 l 0.53904,0.0988 0.38006,-0.0982 c 0.28385,-0.0734 0.40635,-0.0978 0.48392,-0.0966 l 0.10388,0.002 -0.31099,0.10366 c -0.17103,0.0571 -0.32571,0.10835 -0.34372,0.11406 -0.0202,0.007 0.16065,0.0562 0.47104,0.12982 0.27707,0.0657 0.50824,0.12387 0.51369,0.12933 0.005,0.005 0.0421,0.17036 0.0813,0.36642 0.0391,0.1961 0.0756,0.3768 0.0809,0.40155 l 0.0103,0.045 h -0.46588 -0.46587 l -0.0103,0.0368 c -0.0271,0.10127 -0.0792,0.0942 0.684,0.0942 h 0.69433 l 0.0107,-0.0489 c 0.007,-0.0268 0.0158,-0.0521 0.0222,-0.0559 0.0118,-0.009 1.34531,0.29654 1.35827,0.3095 0.004,0.004 -7.5e-4,0.0494 -0.0113,0.10055 -0.0103,0.0512 -0.0187,0.16465 -0.0187,0.25203 v 0.15888 l 0.1437,0.12288 c 0.16195,0.13851 0.13219,0.072 0.24154,0.54005 0.0246,0.10581 0.0534,0.19231 0.0634,0.19231 0.0103,0 0.0771,-0.0226 0.14875,-0.0501 0.0717,-0.0276 0.13241,-0.0441 0.13508,-0.0368 0.003,0.009 0.0632,0.14222 0.1347,0.29977 l 0.12986,0.28643 -0.22696,0.11354 -0.22695,0.11355 0.002,0.19744 c 0.002,0.23598 -0.0249,0.34538 -0.11193,0.44714 -0.0632,0.0739 -0.17109,0.11856 -0.2863,0.11856 -0.0329,0 -0.0634,0.004 -0.0679,0.009 -0.005,0.005 0.002,0.0542 0.0133,0.11049 0.0118,0.0563 0.0216,0.18425 0.0219,0.28437 0.002,0.88822 -0.8166,1.56097 -1.70928,1.40529 -0.66348,-0.11569 -1.15359,-0.65938 -1.19857,-1.32954 l -0.0103,-0.1514 h -1.4519 -1.4519 l -0.009,0.16777 c -0.0117,0.20542 -0.056,0.36746 -0.15179,0.55271 -0.28993,0.56138 -0.93063,0.87469 -1.55645,0.76112 z m 1.53641,-5.79029 c 0.0885,-0.0344 0.0947,-0.0402 0.0947,-0.09 0,-0.0531 -3.7e-4,-0.0534 -0.0818,-0.0534 -0.045,0 -0.0819,0.007 -0.0819,0.0142 0,0.0262 -0.0826,0.0973 -0.15218,0.13092 l -0.0688,0.0335 0.0976,7.6e-4 c 0.0637,5.5e-4 0.13044,-0.0119 0.19233,-0.0359 z"
       id="B-Humber" /></g></svg>
