<?xml version="1.0" encoding="UTF-8" standalone="no"?>
<!-- Created with Inkscape (http://www.inkscape.org/) -->

<svg
   width="25.290823mm"
   height="7.0913458mm"
   viewBox="0 0 25.290823 7.0913458"
   version="1.1"
   id="svg1"
   xml:space="preserve"
   sodipodi:docname="inkporter-svg-dpjczvfn.svg"
   xmlns:inkscape="http://www.inkscape.org/namespaces/inkscape"
   xmlns:sodipodi="http://sodipodi.sourceforge.net/DTD/sodipodi-0.dtd"
   xmlns="http://www.w3.org/2000/svg"
   xmlns:svg="http://www.w3.org/2000/svg"><sodipodi:namedview
     id="namedview1"
     pagecolor="#ffffff"
     bordercolor="#666666"
     borderopacity="1.0"
     inkscape:showpageshadow="2"
     inkscape:pageopacity="0.0"
     inkscape:pagecheckerboard="0"
     inkscape:deskcolor="#d1d1d1"
     inkscape:document-units="mm"
     inkscape:zoom="1.6641134"
     inkscape:cx="396.6076"
     inkscape:cy="561.25984"
     inkscape:window-width="3840"
     inkscape:window-height="2081"
     inkscape:window-x="2391"
     inkscape:window-y="-9"
     inkscape:window-maximized="1"
     inkscape:current-layer="layer1" /><defs
     id="defs1" /><g
     inkscape:label="Layer 1"
     inkscape:groupmode="layer"
     id="layer1"
     transform="translate(-19.314577,-44.97917)"><path
       d="M 28.57992,52.0587 C 28.3367,52.0384 28.18731,52.0102 27.93997,51.93762 l -0.1696,-0.0497 -0.0979,-0.23694 c -0.0538,-0.13031 -0.0947,-0.23954 -0.0909,-0.24273 0.004,-0.003 0.0389,-0.0235 0.078,-0.0451 0.0667,-0.037 -4.7e-4,-0.0384 -1.10129,-0.0239 l -1.17234,0.0154 -0.10981,0.0918 c -0.19776,0.16534 -0.4112,0.22599 -0.57548,0.16353 -0.0512,-0.0195 -0.0607,-0.038 -0.0607,-0.11774 0,-0.0867 0.006,-0.0964 0.077,-0.11565 l 0.077,-0.021 -0.10658,-0.0154 c -0.0586,-0.008 -0.26112,-0.0374 -0.44999,-0.0643 -0.65955,-0.0938 -1.17905,-0.22214 -1.50392,-0.37151 -0.23345,-0.10734 -0.86991,-0.4497 -1.36762,-0.73568 l -0.37291,-0.21427 -0.26655,-0.0387 c -1.00982,-0.14659 -1.51044,-0.39744 -1.39566,-0.69934 0.0853,-0.22434 0.60234,-0.47516 1.34226,-0.65113 0.13026,-0.031 0.41113,-0.11024 0.62415,-0.17613 0.48933,-0.15135 1.03295,-0.28824 1.55206,-0.39083 0.76604,-0.15138 0.94059,-0.16721 2.75,-0.24938 0.61222,-0.0278 1.15577,-0.0561 1.20787,-0.0628 0.0892,-0.0116 0.12235,-0.0436 0.56342,-0.54311 0.44097,-0.49945 0.47352,-0.53083 0.55064,-0.53083 0.094,0 0.0947,10e-4 0.0447,0.0981 -0.0205,0.0396 -0.0322,0.0772 -0.026,0.0834 0.006,0.006 0.5452,0.0175 1.19778,0.0252 0.90383,0.0106 1.1865,0.0208 1.1865,0.0426 0,0.0206 0.11116,0.033 0.3967,0.0444 0.77057,0.0307 1.48087,0.10296 2.11215,0.21493 0.10983,0.0195 0.20295,0.0322 0.20694,0.0282 0.007,-0.007 0.10216,-1.60628 0.10242,-1.72688 2.7e-4,-0.10363 0.0669,-0.0828 0.0757,0.0237 0.007,0.0838 0.014,0.091 0.12577,0.12694 0.114,0.0367 0.28925,0.0264 4.70122,-0.27716 2.52054,-0.17341 4.60074,-0.31579 4.62267,-0.31641 0.0263,-9.6e-4 0.0424,0.0211 0.0474,0.064 0.006,0.0557 0.0195,0.0661 0.0904,0.0715 0.61357,0.0473 1.07325,0.37862 1.36335,0.98261 0.17852,0.37167 0.34188,0.98658 0.34188,1.2869 0,0.10209 0.009,0.13119 0.0473,0.15167 0.0455,0.0244 0.0474,0.0496 0.0474,0.6403 0,0.56986 -0.003,0.61494 -0.0415,0.61495 -0.0372,2e-5 -0.0415,0.0296 -0.0415,0.29013 0,0.26301 -0.006,0.30238 -0.0616,0.42145 -0.1418,0.30233 -0.26611,0.37676 -1.03969,0.62253 -0.57072,0.18132 -1.94455,0.58426 -1.99205,0.58426 -0.0181,0 -0.0627,-0.0373 -0.0991,-0.0829 l -0.0661,-0.0829 h -0.27135 -0.27135 l 9e-5,0.0888 c 1.7e-4,0.12774 0.0393,0.24454 0.10774,0.32203 l 0.0596,0.0674 0.0854,-0.0405 c 0.15509,-0.0736 0.34037,-0.0151 0.43646,0.13785 0.0663,0.10553 0.0521,0.30011 -0.0281,0.386 -0.11813,0.12645 -0.25725,0.1587 -0.40974,0.095 -0.15259,-0.0638 -0.22782,-0.25494 -0.17471,-0.44398 0.0151,-0.0537 0.008,-0.0662 -0.0497,-0.0902 -0.037,-0.0153 -0.0908,-0.0698 -0.11969,-0.12119 -0.0504,-0.0896 -0.0573,-0.0934 -0.17529,-0.0943 -0.0675,-4.8e-4 -0.93813,-0.0208 -1.93463,-0.0452 l -1.8118,-0.0442 -2.81837,0.19894 c -1.55009,0.10942 -2.82561,0.19902 -2.83448,0.19912 -0.009,9e-5 -0.0992,0.11768 -0.20065,0.2613 l -0.18451,0.26112 -0.22567,0.0687 c -0.43286,0.13169 -0.55905,0.16573 -0.82959,0.22375 -0.1498,0.0321 -0.3523,0.0649 -0.44999,0.0728 -0.0977,0.008 -0.22026,0.0179 -0.27237,0.0221 -0.0521,0.004 -0.19215,-3.6e-4 -0.3112,-0.0103 z m 10.78023,-4.02778 c 0.25894,-0.0479 0.28787,-0.0739 0.5884,-0.5299 1.00614,-1.52657 1.93513,-2.38104 2.5887,-2.38104 0.11205,0 0.12596,-0.005 0.12596,-0.0496 0,-0.0453 -0.01,-0.0484 -0.1125,-0.0358 -0.0619,0.008 -2.09482,0.14749 -4.51766,0.31098 -2.42285,0.1635 -4.43921,0.30257 -4.48082,0.30906 -0.0444,0.007 -0.0811,0.0291 -0.089,0.0538 -0.007,0.0231 0.10741,0.38631 0.2561,0.81035 l 0.26942,0.76837 2.16423,0.34873 c 1.19032,0.19181 2.27081,0.3639 2.40106,0.38243 0.29284,0.0417 0.62151,0.0468 0.80607,0.0127 z m -5.44152,-0.78533 c -0.006,-0.0163 -0.12641,-0.36265 -0.26827,-0.76972 -0.25316,-0.72647 -0.25911,-0.74011 -0.32236,-0.74011 -0.0354,0 -0.0706,0.01 -0.0781,0.0221 -0.008,0.0122 -0.006,0.33547 0.002,0.71842 l 0.016,0.69628 0.28642,0.0484 c 0.35586,0.0601 0.37695,0.0615 0.36403,0.0246 z"
       id="B-Hurricane" /></g></svg>
