<?xml version="1.0" encoding="UTF-8" standalone="no"?>
<!-- Created with Inkscape (http://www.inkscape.org/) -->

<svg
   width="11.472119mm"
   height="5.7090597mm"
   viewBox="0 0 11.472119 5.7090597"
   version="1.1"
   id="svg71253"
   sodipodi:docname="inkporter-svg-ggcrfhff.svg"
   xmlns:inkscape="http://www.inkscape.org/namespaces/inkscape"
   xmlns:sodipodi="http://sodipodi.sourceforge.net/DTD/sodipodi-0.dtd"
   xmlns="http://www.w3.org/2000/svg"
   xmlns:svg="http://www.w3.org/2000/svg">
  <sodipodi:namedview
     id="namedview71255"
     pagecolor="#ffffff"
     bordercolor="#666666"
     borderopacity="1.0"
     inkscape:pageshadow="2"
     inkscape:pageopacity="0.0"
     inkscape:pagecheckerboard="0"
     inkscape:document-units="mm"
     showgrid="false"
     inkscape:zoom="0.64052329"
     inkscape:cx="397.33138"
     inkscape:cy="561.25984"
     inkscape:window-width="2400"
     inkscape:window-height="1271"
     inkscape:window-x="-9"
     inkscape:window-y="-9"
     inkscape:window-maximized="1"
     inkscape:current-layer="layer1" />
  <defs
     id="defs71250" />
  <g
     inkscape:label="Layer 1"
     inkscape:groupmode="layer"
     id="layer1"
     transform="translate(-10.25543,-233.01054)">
    <g
       id="B-InfantryHQ"
       transform="translate(-734.89961,-699.30874)">
      <path
         id="B-InfantryMG3-0"
         d="m 751.23967,932.31928 c -0.25143,0.0121 -0.44585,0.36716 -0.45786,0.3819 -0.0124,0.0152 -0.0824,0.0538 -0.0424,0.0951 0.0399,0.04 0.20928,0.0636 0.20928,0.0636 0,0 -0.008,0.0465 -0.0263,0.0837 -0.0165,0.0369 0.0594,0.029 0.0594,0.029 l -0.001,0.0651 0.0191,0.0217 -0.006,0.0248 c 0,0 0.0198,0.022 0.0248,0.0372 0.004,0.0152 -0.006,0.0703 0.004,0.0951 0.011,0.0248 0.0372,0.0372 0.0372,0.0372 0,0 -0.0595,0.0692 -0.0883,0.10231 -0.0303,0.0344 -0.0896,0.21363 -0.0786,0.26871 0.01,0.0537 -0.006,0.0951 -0.0165,0.14471 -0.009,0.0482 0.006,0.12247 0.006,0.12247 l -0.0537,0.0305 c 0,0 0.0137,0.0414 0.0217,0.0537 0.009,0.0111 -0.005,0.0589 -0.01,0.0961 -0.005,0.0358 0.0448,0.18637 0.0398,0.20569 -0.006,0.0179 -0.0331,0.062 -0.0579,0.0951 -0.0234,0.0345 -0.0675,0.0686 -0.0755,0.0879 -0.008,0.0179 -0.062,0.0484 -0.091,0.0677 -0.0276,0.0182 -0.0169,0.0254 -0.0403,0.0263 -0.0221,10e-4 -0.11419,0.0248 -0.11419,0.0248 l -0.0481,-0.0346 -0.0486,0.0305 -0.0589,-0.008 0.0124,0.0496 c 3e-5,0 -0.98253,0.50551 -1.05833,0.55243 -0.0758,0.0469 -0.0372,0.0884 -0.0372,0.0884 0,0 -0.0208,0.008 -0.0553,0.0331 -0.0345,0.0248 0.0165,0.0455 0.0165,0.0455 l 0.0672,-0.0264 0.0346,0.0155 0.13798,-0.0729 c 0,0 0.0142,0.0523 0.0222,0.0687 0.008,0.0166 0.1652,0.069 0.21341,0.0842 0.0482,0.0153 0.3016,0.0121 0.39119,0.0191 0.0882,0.007 0.28111,-0.10764 0.35141,-0.15865 0.0717,-0.052 0.0883,-0.0506 0.0883,-0.0506 l 0.0207,0.0315 0.14883,-0.0801 0.003,-0.0424 c 0,0 0.0921,-0.12279 0.13073,-0.18759 0.0386,-0.0634 -0.0796,-0.10594 -0.0796,-0.10594 l 0.0274,-0.0429 0.0579,0.0233 0.0935,-0.0687 c 0,0 0.029,-0.0441 0.10338,-0.0341 0.0755,0.011 0.0262,0.085 0.008,0.092 -0.0193,0.01 -0.027,0.0305 -0.032,0.0636 -0.005,0.0317 -0.0331,0.12835 -0.0455,0.14623 -0.0128,0.0193 -0.0204,0.062 -0.0134,0.1075 0.007,0.0455 -0.073,0.23958 -0.0951,0.29197 -0.0234,0.051 -0.15893,0.46456 -0.15192,0.601 0.007,0.13642 0.12441,0.25223 0.20979,0.33073 0.0882,0.0799 0.11808,0.19402 0.11006,0.2408 -0.008,0.0468 -0.011,0.0443 0.0538,0.1049 0.0647,0.0607 0.11575,0.0414 0.11575,0.0414 0,0 -0.004,0.0372 0.0315,0.0661 0.0358,0.029 0.0785,0.0937 0.0992,0.11576 0.0207,0.0221 0.0499,0.11044 0.0579,0.12144 0.007,0.0124 0.0281,0.0343 0.0181,0.0522 -0.008,0.0193 -0.008,0.062 -0.008,0.062 0,0 10e-4,0.0884 -0.0703,0.15451 -0.073,0.0648 -0.12107,0.0685 -0.18447,0.0961 -0.0643,0.0289 -0.0703,0.0635 -0.0703,0.0635 0,0 -0.0126,0.13256 0.0315,0.14055 0.0441,0.008 0.27167,-0.0109 0.33229,-0.0232 0.0606,-0.0124 0.23151,-0.15039 0.23151,-0.15039 l 0.0362,0.0109 0.062,-0.0331 c 0,0 0.01,0.0706 0.007,0.0982 -10e-4,0.0289 0.016,0.10716 0.015,0.12507 -0.003,0.0165 -0.0496,0.23974 -0.062,0.27284 -0.0124,0.0317 0.004,0.10231 0.047,0.11472 0.0441,0.011 0.13661,0.0148 0.24961,0.0109 l 10e-4,-10e-4 c 0,0 0.073,0.0112 0.15708,-0.0191 0.0855,-0.0303 0.0269,-0.18745 0.0258,-0.22325 -10e-4,-0.0344 -0.0894,-0.32814 -0.0894,-0.32814 l 0.014,-0.047 v -0.0811 c 0,0 0.012,-0.0553 0.015,-0.0925 0.004,-0.0369 -0.0416,-0.008 -0.0346,-0.0465 0.007,-0.0386 0.0512,-0.23048 0.0512,-0.23048 l 0.0744,-0.0424 -0.0124,-0.0703 c 0,0 -0.0127,-0.0665 -0.0403,-0.11057 -0.0278,-0.0427 -0.0248,-0.14883 -0.0248,-0.14883 0,0 3.4e-4,-0.11168 -0.0258,-0.17777 -0.0247,-0.0648 -2.9e-4,-0.106 0.007,-0.13489 0.007,-0.0275 -0.0372,-0.10491 -0.0372,-0.10491 l -0.007,-0.10334 c 0,0 0.0426,-0.12367 0.0357,-0.14986 -0.007,-0.0248 -0.005,-0.0775 0.0222,-0.12298 0.029,-0.0455 0.10441,-0.37208 0.10441,-0.37208 0,0 0.021,-0.0437 0.0527,-0.063 0.0317,-0.0207 0.0109,-0.14055 0.0109,-0.14055 l 0.0429,0.0207 c 0,0 0.0386,0.17881 0.0579,0.22842 0.0179,0.0508 0.0429,0.0548 0.0439,-0.003 0.003,-0.0593 -0.0191,-0.2186 -0.0191,-0.2186 0,0 0.0522,10e-4 0.14314,-0.0196 0.0909,-0.0193 0.16796,-0.092 0.16796,-0.092 l -0.0615,-0.38034 0.008,-0.0786 -0.0439,-0.0951 c 0,0 -0.003,-0.0773 -0.0155,-0.11732 -0.0124,-0.0413 -0.0951,-0.0248 -0.0951,-0.0248 l -0.0563,-0.0522 -0.20928,-0.15296 0.23976,-0.11059 c 0,0 -0.006,-0.15145 -0.006,-0.20516 0,-0.0537 -0.0537,-0.26871 -0.0537,-0.26871 0,0 0.0744,-0.0305 0.14467,-0.0512 0.0689,-0.0206 0.12406,-0.0606 0.21085,-0.0992 0.0882,-0.0386 0.25222,-0.0871 0.26871,-0.0951 0.0152,-0.008 0.0234,-0.022 0.0372,-0.015 0.0138,0.007 0.19016,-0.0181 0.19016,-0.0181 l 0.0677,-0.008 0.20669,0.007 c 0,0 0.0634,-0.0191 0.11576,-0.0522 0.0523,-0.0345 -0.014,-0.076 -0.014,-0.076 l 0.0455,-0.0424 v -0.0858 l 0.0413,-0.0233 c 0,0 0.0856,-0.006 0.12557,-0.0263 0.0394,-0.0193 0.0323,-0.063 0.005,-0.063 -0.0276,0 -0.2808,0.006 -0.37312,-0.008 -0.0923,-0.0138 -0.13229,0.0387 -0.13229,0.0387 l -0.0263,-0.0139 c 0,0 -0.1886,0.0318 -0.24649,0.0139 -0.0579,-0.018 -0.14623,0.0289 -0.14623,0.0289 0,0 -0.0457,-0.0126 -0.11319,0.007 -0.0675,0.0182 -0.12509,0.0235 -0.1664,0.0155 -0.0413,-0.01 -0.15295,0.0465 -0.15295,0.0465 l -0.19016,-0.007 c -2e-5,0 -0.32948,-0.0315 -0.35711,-0.0315 -0.0275,0 -0.14054,0.0563 -0.14054,0.0563 l -0.1819,-0.0155 -0.0661,-0.1101 c 0,0 0.15415,-0.0165 0.19275,-0.0372 0.0386,-0.0207 -0.002,-0.0744 -0.10438,-0.31006 -0.102,-0.23564 -0.17364,-0.34139 -0.43823,-0.35139 -0.008,-3.5e-4 -0.0167,-4e-4 -0.0248,0 z m 3.41995,0.26871 c -0.27149,-0.004 -0.44786,0.42153 -0.47956,0.44495 -0.0317,0.0248 -0.0292,0.062 -0.014,0.0744 0.0165,0.0138 0.19947,0.091 0.19947,0.091 0,0 0.0264,0.0512 0.076,0.17518 0.0496,0.12258 0.0925,0.1447 0.0925,0.1447 l -0.0992,0.0579 c 0,0 -0.0292,0.006 -0.0372,0.006 -0.01,0 -0.0606,0.0315 -0.0992,0.0563 -0.0372,0.0235 -0.0468,0.0388 -0.062,0.0512 -0.0165,0.0137 -0.0347,0.0699 -0.0387,0.092 -0.004,0.022 -0.20399,0.2539 -0.26458,0.35449 -0.0606,0.0992 -0.15401,0.24236 -0.15401,0.24236 0,0 -0.0865,0.0633 -0.0785,0.0786 0.01,0.0152 -2.9e-4,0.0784 -0.008,0.13488 -0.01,0.0565 0.0181,0.18497 0.0191,0.20566 0.003,0.0221 0.0966,0.11176 0.14211,0.11576 0.0441,0.004 0.16142,0.0369 0.25374,0.0672 0.091,0.0302 0.14467,0.004 0.14467,0.004 0,0 -0.37912,0.25895 -0.41082,0.30025 -0.0304,0.04 -0.0109,0.036 0.047,0.13385 0.0592,0.0978 0.0481,0.12385 0.0729,0.18034 0.0248,0.0565 0.0619,0.0319 0.0729,0.0279 0.0124,-0.004 0.0843,-0.11319 0.0843,-0.11319 l 0.0801,-0.0109 c 0,0 0.10056,-0.009 0.19018,-0.0403 0.0896,-0.0331 0.34001,-0.19947 0.34001,-0.19947 0,0 0.0416,0.12542 0.0496,0.14883 0.01,0.0248 0.061,0.0894 0.061,0.0894 0,0 0.0217,0.10596 0.0424,0.14726 0.0193,0.0413 0.0785,0.11732 0.0785,0.11732 0,0 -0.0315,0.18484 -0.0522,0.23304 -0.0193,0.0469 -0.0403,0.12923 -0.0899,0.22842 -0.0482,0.0965 -0.0119,0.24987 -0.0109,0.25786 0.003,0.008 0.0715,0.19309 0.0786,0.21238 0.007,0.0207 0.0402,0.20225 0.0636,0.24495 0.0221,0.0442 -0.007,0.083 0,0.13539 0.007,0.0524 0.12919,0.0718 0.12919,0.0718 0,0 0.0208,0.0711 0.047,0.11109 0.0276,0.0387 0.047,0.10666 0.047,0.13695 0,0.0304 -0.0114,0.10181 -0.0114,0.10181 l 0.0181,0.0522 -0.003,0.0455 -0.0263,0.014 -0.17465,0.11576 -0.20413,0.17362 0.0966,0.1266 c 0,0 0.15552,-0.0122 0.22582,-0.0356 0.0702,-0.0234 0.14211,-0.0687 0.14211,-0.0687 0,0 0.0441,0.04 0.0744,0.0248 0.0303,-0.0165 0.22582,-0.0413 0.22582,-0.0413 0,0 -0.003,-0.0787 -0.006,-0.10491 0,-0.011 -10e-4,-0.0329 -10e-4,-0.0563 0.01,-0.0468 0.0247,-0.13105 0.0207,-0.15865 l -5e-4,-0.001 c 0,0 -0.0174,-0.0939 -0.0274,-0.15451 -0.008,-0.0607 0.0466,-0.16264 0.0496,-0.21082 0.003,-0.0483 -0.0222,-0.14058 -0.0222,-0.14058 0,0 0.0219,-0.0506 0.0356,-0.063 0.0124,-0.0124 0.0258,-0.0937 0.0248,-0.12401 -0.003,-0.0303 -0.10165,-0.15843 -0.11266,-0.18605 -0.0107,-0.0289 0.01,-0.10748 0.01,-0.10748 0,0 0.0219,0.04 0.0605,0.0661 0.0373,0.0262 0.0785,0.12919 0.0785,0.12919 0,0 0.0279,0.0417 0.0651,0.0527 0.0358,0.0112 0.1447,-0.004 0.1447,-0.004 l 0.22169,0.14624 0.0811,0.077 c 0,0 -0.0325,0.2027 -0.0315,0.26202 0.003,0.0579 -0.1075,0.14015 -0.1075,0.17465 0,0.0344 0.0136,0.10507 0.14314,0.0941 0.12954,-0.011 0.23876,-0.0786 0.23876,-0.0786 0,0 0.0372,-0.0885 0.0537,-0.15192 0.0151,-0.0634 0.0548,-0.10853 0.0548,-0.10853 l 0.0388,-0.004 c 0,0 0.0606,-0.12144 0.0744,-0.15864 0.0124,-0.0373 -0.007,-0.081 -0.0232,-0.091 -0.0151,-0.011 -0.0537,-0.0439 -0.0537,-0.0439 l -0.0429,-0.0413 c 0,0 -0.1075,-0.0884 -0.15711,-0.11318 -0.0482,-0.0234 -0.17518,-0.21498 -0.17518,-0.21498 0,0 0.003,-0.0217 0.006,-0.0754 0.003,-0.0538 -0.0646,-0.1283 -0.0894,-0.13229 -0.0248,-0.004 -0.14624,-0.13642 -0.14624,-0.13642 0,0 -0.0153,-0.10078 -0.0388,-0.11319 -0.0218,-0.0138 -0.0288,-0.066 -0.0248,-0.1266 0.005,-0.0607 -0.0439,-0.18603 -0.0439,-0.18603 0,0 0.0811,-0.12401 0.11007,-0.20672 0.0289,-0.0827 0.0801,-0.11316 0.0801,-0.11316 0,0 0.0139,0.0427 0.0139,0.0579 0,0.0151 0.0291,0.0592 0.0331,0.0289 0.005,-0.0303 0.0124,-0.20826 0.0124,-0.20826 l 0.11576,-0.0341 0.22325,-0.0775 c 0,0 -0.005,-0.0466 -0.005,-0.0687 0,-0.0221 -0.0646,-0.30075 -0.0646,-0.30075 l -0.0103,-0.1292 -0.0424,-0.23047 c 0,0 -0.073,-0.0595 -0.1075,-0.0605 -0.0331,-0.003 -0.11885,-0.0109 -0.11885,-0.0109 l 0.004,-0.0398 c 0,0 0.17378,-0.061 0.24548,-0.10234 0.0703,-0.04 0.11573,-0.20791 0.0909,-0.31263 -0.0248,-0.10335 -0.32245,-0.37465 -0.32245,-0.37465 l 0.37053,-0.29766 -0.014,-0.0486 0.0537,-0.0398 -0.0124,-0.0165 0.0925,-0.0842 -0.0429,-0.0522 -0.0837,0.0563 -0.0594,-0.0718 -0.0827,0.0413 0.0429,0.091 -0.11163,0.0801 -0.25633,0.17365 -0.0791,-0.0207 c 0,0 -0.0234,-0.0401 -0.11575,-0.10488 -0.0924,-0.0647 -0.14573,-0.0481 -0.14573,-0.0481 0,0 -0.13402,-0.008 -0.16434,-0.008 -0.0289,0 -0.0868,0.015 -0.0868,0.015 h -0.11678 c 0,0 -0.10078,0.007 -0.13798,-0.007 -0.0385,-0.0124 -0.0346,-0.0233 -0.0346,-0.0233 0,0 0.0541,-0.0218 0.0899,-0.048 0.0357,-0.0262 0.0276,-0.0687 0.004,-0.10594 -0.022,-0.0372 -0.13361,-0.31017 -0.14883,-0.33229 -0.0165,-0.022 -0.12126,-0.19243 -0.39272,-0.19843 z m -7.08382,0.13332 c -0.17214,-2.9e-4 -0.28707,0.10724 -0.30385,0.14213 -0.0193,0.0386 -0.16692,0.24787 -0.20412,0.30435 -0.0372,0.0565 0.0414,0.0815 0.0827,0.10078 0.04,0.0207 0.10747,0.0372 0.10747,0.0372 l 0.10234,0.24907 c 0,0 0.0703,0.10917 0.0703,0.13126 0,0.0207 -0.10491,0.10182 -0.10491,0.10182 l 0.0455,0.008 c 0,0 -0.002,0.0992 0.003,0.16949 0.005,0.0703 -0.0124,0.18087 -0.0124,0.18087 l 0.0124,0.0605 0.0424,0.0661 c 0,0 0.0265,0.006 -0.0961,0.0263 -0.12271,0.0193 -0.0692,0.0424 -0.0692,0.0424 l -0.0522,0.16846 -0.65733,0.27543 -0.71107,0.3266 -0.46562,0.21085 -0.0279,-0.0331 -0.0744,0.0341 0.003,0.0744 c 0,0 -0.0387,0.0154 -0.0925,0.0471 -0.0551,0.0331 0.032,0.0636 0.032,0.0636 l 0.16536,-0.0718 0.0398,0.0315 0.71003,-0.2894 0.0315,0.0181 c 0,0 0.0222,0.0829 0.0429,0.12557 0.0207,0.0441 0.10194,0.11435 0.12814,0.12814 0.0262,0.0151 0.11422,0.0341 0.11422,0.0341 0,0 0.13782,0.0279 0.17362,0.0444 0.0358,0.0166 0.18465,0.008 0.27286,0 0.0882,-0.01 0.36952,-0.18502 0.39841,-0.21394 0.0276,-0.0289 0.28218,-0.26302 0.28218,-0.26302 0,0 0.0303,0.0429 0.008,0.0842 -0.0216,0.0413 -0.0165,0.0992 -0.0165,0.0992 0,0 -0.0293,0.006 -0.0527,0.0341 -0.0244,0.0275 -0.001,0.0982 -0.001,0.0982 0,-2e-5 -0.057,0.048 -0.062,0.0811 -0.005,0.0331 -0.0162,0.0719 -0.03,0.0884 -0.0124,0.0166 -0.0262,0.0203 -0.0362,0.0589 -0.008,0.0372 -0.007,0.0901 -0.19019,0.42635 -0.18322,0.33623 0.0141,0.4418 0.0403,0.48731 0.0248,0.0454 0.21772,0.21651 0.32244,0.34467 0.10475,0.12941 0.26718,0.12557 0.30438,0.12557 0.0372,0 0.12113,0.11417 0.13901,0.14727 0.0197,0.0317 0.003,0.0443 0.0207,0.0553 0.0193,0.0111 0.11578,0.11007 0.11578,0.11007 0,0 0.0248,0.0786 -0.0372,0.1447 -0.0606,0.0675 -0.0853,0.17933 -0.0853,0.17933 0,0 -0.0205,0.12428 0.0718,0.13229 0.0909,0.01 0.18759,-0.0455 0.18759,-0.0455 l 0.11163,-0.0951 -0.007,0.0341 -0.10751,0.15296 -0.1819,0.0842 c 0,0 -0.0689,0.0401 -0.0579,0.0801 0.011,0.0386 0.1116,0.0672 0.1116,0.0672 l 0.35968,-0.0176 0.16536,-0.11316 0.0522,0.0134 0.17778,-0.15142 -0.0471,-0.0801 c 0,0 -0.007,-0.0538 -0.0248,-0.11576 -0.0165,-0.062 -0.0992,-0.1447 -0.0992,-0.1447 l -0.007,-0.062 0.0331,-0.0703 -0.0811,-0.0522 c 0,0 -0.006,-0.0222 -0.0196,-0.12557 -0.0124,-0.10335 0.004,-0.0701 0.0279,-0.12248 0.0248,-0.0524 -0.061,-0.11313 -0.11885,-0.18343 -0.058,-0.0703 -0.055,-0.2436 -0.062,-0.28631 -0.005,-0.044 -0.0563,-0.0785 -0.0563,-0.0785 l 0.029,-0.11731 c 0,0 0.12938,-0.13642 0.14726,-0.16124 0.0192,-0.0262 0.0729,-0.16134 0.0853,-0.19584 0.0137,-0.0344 0.10334,-0.215 0.10334,-0.23151 0,-0.0165 0.0734,-0.13918 0.0744,-0.16537 10e-4,-0.0248 0.0372,-0.17052 0.0372,-0.17052 0,0 0.0899,0.16946 0.12298,0.22735 0.0344,0.0581 0.0563,0.01 0.0563,-0.008 0,-0.0179 -0.11576,-0.29044 -0.11576,-0.29044 l 0.0687,-0.0692 -0.0289,-0.11832 c 0,0 -0.003,-0.14192 -0.008,-0.18193 -0.006,-0.0398 0.0165,-0.0356 0.0165,-0.0356 l -0.01,-0.0496 c -0.004,-0.003 -10e-4,-0.006 -10e-4,-0.006 l 10e-4,0.006 c 0.004,0.003 0.0135,0.007 0.0357,0.01 0.0469,0.006 0.0607,-0.0109 0.076,-0.0646 0.0138,-0.0534 -0.10387,-0.0636 -0.10387,-0.0636 0,0 0.006,-0.13105 0.0114,-0.17106 0.006,-0.0385 -0.0499,-0.077 -0.0899,-0.10178 -0.0386,-0.0262 -0.13361,-0.0389 -0.17362,-0.0439 -0.0397,-0.006 -0.0424,-0.0579 -0.0424,-0.0579 l 0.0878,-0.0124 c 0,0 0.12142,-0.0359 0.14213,-0.0429 0.0193,-0.008 0.0378,-0.0277 0.0387,-0.0553 10e-4,-0.0275 -0.0222,-0.20928 -0.0222,-0.20928 0,0 0.1021,0.0193 0.11729,-0.11576 0.0152,-0.13647 -0.13126,-0.12144 -0.13126,-0.12144 l 0.0305,-0.0563 -0.007,-0.0646 c 0,0 -0.13468,-0.1846 -0.16227,-0.20669 -0.0276,-0.022 -0.22318,-0.0807 -0.23977,-0.0816 -0.0165,-10e-4 -0.52639,-0.0633 -0.49609,-0.0853 0.0303,-0.022 -0.0605,-0.19132 -0.0853,-0.25064 -0.0262,-0.0606 -0.19309,-0.3348 -0.38602,-0.35139 -0.012,-10e-4 -0.0237,-0.002 -0.0351,-0.002 z m 6.80477,1.63092 c 0,0 0.0279,0.0634 0.0289,0.11163 0.003,0.0468 0.0388,0.11162 0.0388,0.11162 l -0.003,0.0403 c 0,0 -0.0962,0.0343 -0.13745,0.015 -0.0427,-0.0193 -0.0708,-0.0646 -0.0708,-0.0646 l -0.015,-0.0403 h 5e-4 c -0.0138,-0.0206 -0.0279,-0.0344 0.0134,-0.0424 0.04,-0.01 0.14471,-0.13126 0.14471,-0.13126 z m -3.65043,0.53589 c 0,0 0.0357,0.0124 0.0388,0.0331 0.004,0.0221 -1.6e-4,0.072 -0.0388,0.10231 -0.0386,0.0301 -0.0537,0.0331 -0.0537,0.0331 l -0.12973,0.003 -0.50435,-0.0672 0.28112,-0.014 0.0703,0.0258 0.0842,-0.0398 0.062,0.0207 z m -3.57913,0.0584 c 0.0167,-8.2e-4 0.0315,0.003 0.044,0.0181 0.0235,0.0303 1.3e-4,0.0439 0.0718,0.0439 0.0703,0 0.20154,0.0232 0.20154,0.0232 0,0 -0.1478,0.19982 -0.2553,0.26872 -0.10747,0.0703 -0.26424,0.16676 -0.36483,0.17777 -0.1006,0.0109 -0.13661,0.0388 -0.26199,-0.007 -0.12682,-0.0441 -0.19431,-0.10232 -0.19431,-0.10232 0,0 -0.0784,-0.13226 -0.0884,-0.15298 -0.01,-0.0207 -0.048,-0.0563 -0.048,-0.0563 l -0.0222,-0.0289 0.38447,-0.14779 c 0,0 0.12025,0.0608 0.18915,0.0537 0.0675,-0.006 0.25077,-0.0777 0.28937,-0.0827 0.0199,-0.002 0.0381,-0.007 0.0548,-0.008 z m 7.42799,0.0465 c 0,0 0.006,0.0484 0.0305,0.0594 0.0248,0.0113 0.12404,0.0196 0.12404,0.0196 l -0.005,0.10853 c 0,0 -0.14351,0.10605 -0.20412,0.12814 -0.0606,0.022 -0.30438,0.0729 -0.30438,0.0729 0,0 0.12422,-0.16931 0.15452,-0.20101 0.0317,-0.0331 0.12374,-0.0701 0.13075,-0.0894 0.007,-0.0193 0.008,-0.0677 0.008,-0.0677 z m -4.82608,0.10232 0.68215,0.11006 c -0.0276,0.0193 -0.18468,0.16293 -0.31834,0.16693 -0.13367,0.003 -0.33584,-0.04 -0.41445,-0.0579 -0.0771,-0.0179 -0.18912,-0.0852 -0.18912,-0.0852 z m 1.65108,0.75911 c 0,0 0.0181,0.0123 0.0305,0.0481 0.0123,0.0344 0.0274,0.14211 0.0274,0.14211 l -0.0816,-0.10335 c 0,0 0.01,-0.051 0.0238,-0.0868 z"
         style="stroke-width:0.264583" />
    </g>
  </g>
</svg>
