<?xml version="1.0" encoding="UTF-8" standalone="no"?>
<!-- Created with Inkscape (http://www.inkscape.org/) -->

<svg
   width="9.9396191mm"
   height="6.1304321mm"
   viewBox="0 0 9.9396191 6.1304321"
   version="1.1"
   id="svg1"
   xml:space="preserve"
   sodipodi:docname="inkporter-svg-7eeud2yq.svg"
   xmlns:inkscape="http://www.inkscape.org/namespaces/inkscape"
   xmlns:sodipodi="http://sodipodi.sourceforge.net/DTD/sodipodi-0.dtd"
   xmlns="http://www.w3.org/2000/svg"
   xmlns:svg="http://www.w3.org/2000/svg"><sodipodi:namedview
     id="namedview1"
     pagecolor="#ffffff"
     bordercolor="#666666"
     borderopacity="1.0"
     inkscape:showpageshadow="2"
     inkscape:pageopacity="0.0"
     inkscape:pagecheckerboard="0"
     inkscape:deskcolor="#d1d1d1"
     inkscape:document-units="mm"
     inkscape:zoom="3.2729938"
     inkscape:cx="539.71993"
     inkscape:cy="727.92682"
     inkscape:window-width="3840"
     inkscape:window-height="2066"
     inkscape:window-x="2869"
     inkscape:window-y="-11"
     inkscape:window-maximized="1"
     inkscape:current-layer="layer1" /><defs
     id="defs1" /><g
     inkscape:label="Layer 1"
     inkscape:groupmode="layer"
     id="layer1"
     transform="translate(-127.52916,-201.6125)"><g
       id="B-Infantry-MGs3"
       transform="translate(-340.05705,-394.75833)"><path
         style="fill:#000000;stroke-width:0.0336333"
         d="m 474.16428,602.4994 c -0.0356,-0.009 -0.08,-0.0299 -0.08,-0.0374 0,-0.003 -0.004,-0.007 -0.0114,-0.007 -0.0175,0 -0.063,-0.0276 -0.10931,-0.0668 -0.0584,-0.0492 -0.0627,-0.0537 -0.0947,-0.10074 -0.0156,-0.0229 -0.031,-0.0436 -0.0342,-0.046 -0.009,-0.007 -0.0318,-0.0545 -0.0439,-0.0935 -0.0183,-0.0588 -0.0524,-0.10237 -0.0801,-0.10237 -0.0274,0 -0.0802,-0.0238 -0.0802,-0.0362 0,-0.004 -0.006,-0.008 -0.0129,-0.008 -0.014,0 -0.0582,-0.0434 -0.0582,-0.0571 0,-0.004 -0.007,-0.0154 -0.0143,-0.024 -0.008,-0.009 -0.0173,-0.0299 -0.0212,-0.0471 -0.006,-0.026 -0.003,-0.0374 0.0149,-0.0655 0.012,-0.0187 0.0361,-0.0437 0.0534,-0.0555 0.0173,-0.0118 0.0524,-0.0497 0.0781,-0.0841 0.0737,-0.0987 0.0935,-0.11784 0.14034,-0.13477 0.009,-0.003 0.0156,-0.0145 0.0156,-0.0253 0,-0.0196 0.0332,-0.0583 0.0501,-0.0583 0.008,0 0.0672,-0.061 0.14151,-0.14496 0.0131,-0.0148 0.0219,-0.0358 0.0219,-0.052 0,-0.0436 0.051,-0.12336 0.0788,-0.12336 0.026,0 0.0935,-0.0389 0.12627,-0.0727 0.0182,-0.0188 0.0357,-0.0341 0.0388,-0.0341 0.003,0 0.0175,-0.0119 0.0319,-0.0268 0.0144,-0.0147 0.0299,-0.0268 0.0344,-0.0268 0.004,0 0.0102,-0.006 0.0134,-0.0134 0.002,-0.007 0.0129,-0.0134 0.0222,-0.0134 0.009,0 0.0194,-0.006 0.0222,-0.0134 0.002,-0.007 0.0114,-0.0133 0.0188,-0.0133 0.008,0 0.0137,-0.003 0.0137,-0.008 0,-0.004 0.007,-0.0103 0.0163,-0.0135 0.0147,-0.004 0.0158,-0.0142 0.0122,-0.10271 -0.003,-0.0782 -10e-4,-0.10363 0.0102,-0.12844 0.015,-0.0316 0.0118,-0.10306 -0.004,-0.10306 -0.004,0 -0.008,-0.003 -0.008,-0.008 0,-0.004 -0.0115,-0.0257 -0.0255,-0.0467 -0.014,-0.0211 -0.0282,-0.0533 -0.0315,-0.0716 -0.003,-0.0184 -0.009,-0.0334 -0.0123,-0.0334 -0.003,-5e-5 -0.0142,-0.0181 -0.0238,-0.04 -0.009,-0.022 -0.0208,-0.04 -0.025,-0.04 -0.003,0 -0.0116,-0.0119 -0.0167,-0.0268 -0.004,-0.0147 -0.0129,-0.0266 -0.0173,-0.0266 -0.004,0 -0.008,-0.003 -0.008,-0.009 0,-0.009 -0.032,-0.0446 -0.0404,-0.0446 -0.004,0 -0.0215,-0.0171 -0.0707,-0.073 -0.0147,-0.0166 -0.0337,-0.0329 -0.0422,-0.0362 -0.009,-0.003 -0.0156,-0.0103 -0.0156,-0.0152 0,-0.006 -0.0304,-0.009 -0.0783,-0.009 -0.0489,0 -0.0823,-0.003 -0.0889,-0.0102 -0.006,-0.006 -0.0103,-0.036 -0.0114,-0.069 -1.7e-4,-0.0336 -0.006,-0.0676 -0.013,-0.0805 -0.007,-0.0122 -0.0128,-0.032 -0.0129,-0.0439 -1.6e-4,-0.0118 -0.007,-0.0361 -0.0156,-0.0537 l -0.0154,-0.0321 -0.038,0.0398 c -0.0209,0.0218 -0.038,0.0429 -0.038,0.047 0,0.0139 -0.0418,0.007 -0.0565,-0.009 -0.0164,-0.0181 -0.0196,-0.0509 -0.006,-0.0593 0.004,-0.003 0.009,-0.0128 0.009,-0.0217 0,-0.0271 0.0421,-0.10966 0.0752,-0.14738 0.0252,-0.0286 0.0312,-0.0429 0.0314,-0.0737 9e-5,-0.0209 0.006,-0.0525 0.0136,-0.0701 0.007,-0.0175 0.0134,-0.0453 0.0134,-0.0617 0,-0.0196 0.0138,-0.0524 0.04,-0.0956 0.022,-0.0362 0.04,-0.0757 0.04,-0.0874 0,-0.0117 0.0119,-0.0345 0.0268,-0.0506 0.0147,-0.016 0.0268,-0.0363 0.0268,-0.0452 0,-0.0167 0.0402,-0.0769 0.0652,-0.0975 0.008,-0.007 0.0148,-0.0205 0.0148,-0.0307 0,-0.0204 0.0582,-0.14489 0.0716,-0.15318 0.004,-0.002 0.008,-0.0119 0.009,-0.0203 7e-5,-0.008 0.0177,-0.0333 0.0392,-0.0557 0.0215,-0.0223 0.0406,-0.0484 0.0421,-0.0578 0.002,-0.0152 -0.003,-0.0177 -0.0533,-0.0216 -0.0518,-0.004 -0.0605,-0.008 -0.10887,-0.0489 -0.0334,-0.0283 -0.0526,-0.0514 -0.0527,-0.0634 -10e-5,-0.0102 -0.006,-0.024 -0.0136,-0.03 -0.0223,-0.0186 -0.0172,-0.0968 0.009,-0.14771 0.0126,-0.0241 0.0302,-0.0516 0.0388,-0.0614 0.009,-0.0102 0.0182,-0.0393 0.0215,-0.0686 0.003,-0.028 0.009,-0.06 0.0138,-0.0712 0.004,-0.0114 0.0102,-0.0263 0.0135,-0.0338 0.002,-0.007 0.0122,-0.0242 0.0207,-0.0372 0.0858,-0.13238 0.16389,-0.21488 0.24023,-0.25351 0.0259,-0.0131 0.0515,-0.0292 0.0568,-0.0356 0.006,-0.007 0.0144,-0.0117 0.0198,-0.0118 0.006,-3e-5 0.0207,-0.006 0.0337,-0.0124 0.0129,-0.007 0.0451,-0.0153 0.0712,-0.0188 0.0261,-0.003 0.0516,-0.009 0.0565,-0.013 0.0165,-0.0123 0.23945,-0.0272 0.32044,-0.0214 0.0796,0.006 0.0802,0.006 0.0925,-0.0172 0.009,-0.0162 0.0103,-0.0328 0.004,-0.0568 -0.0159,-0.0734 -0.009,-0.16358 0.0181,-0.23854 0.0143,-0.0391 0.0349,-0.0857 0.0459,-0.10351 0.0294,-0.0476 0.10625,-0.11997 0.14864,-0.14012 0.0581,-0.0275 0.19802,-0.0722 0.22561,-0.072 0.0553,5.5e-4 0.22392,0.0483 0.24508,0.0694 0.006,0.006 0.0144,0.0103 0.0192,0.0103 0.004,0 0.0272,0.019 0.0497,0.0422 0.0836,0.0865 0.0928,0.0913 0.17837,0.0913 0.0793,0 0.0977,0.007 0.0977,0.0382 0,0.0362 -0.0993,0.10351 -0.1535,0.10397 l -0.0245,2e-4 v 0.0672 c 0,0.0723 0.0186,0.12763 0.0589,0.17593 0.0281,0.0336 0.0265,0.0599 -0.006,0.0914 -0.0146,0.0144 -0.0265,0.0352 -0.0267,0.0466 -1.4e-4,0.0114 -0.004,0.028 -0.009,0.0371 -0.004,0.009 -0.0102,0.0459 -0.0128,0.0818 -0.003,0.053 -0.008,0.0681 -0.0232,0.0809 -0.0102,0.009 -0.0242,0.0156 -0.0301,0.0156 -0.006,0 -0.0198,0.009 -0.0307,0.0213 -0.0114,0.0117 -0.0312,0.0235 -0.0451,0.0263 l -0.0251,0.004 0.0323,0.0347 c 0.0408,0.0435 0.0631,0.11261 0.0724,0.22428 0.003,0.0465 0.0116,0.0961 0.0171,0.11023 0.0204,0.0523 0.0291,0.11001 0.0283,0.18901 l -10e-4,0.0812 0.044,0.006 c 0.0243,0.003 0.0466,0.0102 0.0495,0.0145 0.008,0.0131 0.0605,0.0102 0.0913,-0.004 0.0202,-0.0102 0.0498,-0.013 0.11217,-0.0114 0.0587,10e-4 0.0883,-0.001 0.096,-0.009 0.006,-0.006 0.0217,-0.0114 0.0349,-0.0114 0.013,0 0.0409,-0.006 0.0616,-0.0133 0.0208,-0.007 0.0504,-0.0134 0.0656,-0.0135 0.0153,-3e-5 0.0418,-0.003 0.059,-0.009 0.0338,-0.009 0.0889,-0.0544 0.0889,-0.0728 0,-0.006 0.0166,-0.0282 0.037,-0.0489 0.0302,-0.0309 0.0351,-0.0402 0.0263,-0.0507 -0.0232,-0.028 0.0126,-0.0769 0.0565,-0.0769 0.007,0 0.0242,-0.0103 0.0387,-0.0222 0.0259,-0.0217 0.0299,-0.0222 0.16754,-0.022 0.13158,2.7e-4 0.14409,0.001 0.18559,0.0222 0.0707,0.0348 0.22172,0.0301 0.24624,-0.008 0.003,-0.004 0.0251,-0.009 0.0483,-0.0102 0.0398,-5.4e-4 0.0441,10e-4 0.0719,0.0379 0.0307,0.04 0.0364,0.0712 0.0208,0.11217 l -0.009,0.0227 h -0.16722 -0.16723 l -0.0205,0.0516 c -0.0134,0.0337 -0.0325,0.0618 -0.0555,0.0813 -0.0226,0.0193 -0.0351,0.0372 -0.0351,0.0512 0,0.0397 -0.0341,0.0897 -0.0867,0.12762 -0.0455,0.0327 -0.0557,0.0364 -0.0893,0.0328 -0.0314,-0.003 -0.0403,-10e-4 -0.0511,0.0146 -0.007,0.0102 -0.0131,0.0275 -0.0131,0.0383 0,0.0198 -0.0376,0.0565 -0.0579,0.0565 -0.006,0 -0.0161,0.006 -0.0221,0.0134 -0.006,0.007 -0.0205,0.0134 -0.0319,0.0134 -0.0251,0 -0.0354,0.0173 -0.0438,0.0731 -0.003,0.0231 -0.0118,0.0467 -0.0187,0.0523 -0.007,0.006 -0.0124,0.0148 -0.0124,0.0205 0,0.0218 -0.0666,0.0401 -0.13356,0.0365 -0.0416,-0.002 -0.0778,10e-4 -0.10135,0.009 -0.0255,0.009 -0.0782,0.0129 -0.17447,0.0129 -0.14462,2e-4 -0.19363,-0.007 -0.33402,-0.0505 -0.0589,-0.0181 -0.0755,-0.0203 -0.094,-0.0117 -0.0187,0.009 -0.0347,0.007 -0.0928,-0.0126 -0.0387,-0.0126 -0.075,-0.023 -0.0809,-0.023 -0.006,0 -0.0199,-0.0114 -0.0314,-0.0245 -0.0345,-0.0406 -0.0685,-0.0632 -0.0878,-0.0582 -0.0103,0.002 -0.0308,0.0212 -0.0465,0.0413 -0.0157,0.0203 -0.0328,0.0412 -0.0377,0.0468 -0.004,0.006 -0.02,0.0287 -0.0335,0.0516 -0.0158,0.0269 -0.034,0.0449 -0.0511,0.0509 -0.0147,0.004 -0.0266,0.0127 -0.0266,0.0166 0,0.003 -0.0114,0.0103 -0.0245,0.0128 -0.0306,0.007 -0.0824,0.0904 -0.082,0.13232 2.9e-4,0.0403 0.0161,0.0558 0.064,0.063 0.0231,0.003 0.0444,0.0103 0.0473,0.0147 0.002,0.004 0.0144,0.008 0.0256,0.008 0.0179,0 0.0295,0.007 0.0739,0.0443 0.006,0.004 0.0174,0.009 0.0256,0.009 0.0206,0 0.0737,0.0332 0.10761,0.0673 0.0302,0.0303 0.032,0.0597 0.004,0.0813 -0.0115,0.009 -0.008,0.0154 0.0231,0.0435 0.0393,0.0353 0.0689,0.0978 0.0598,0.1263 -0.007,0.0214 -0.0548,0.0731 -0.0681,0.0731 -0.006,0 -0.0155,0.006 -0.0227,0.0134 -0.007,0.007 -0.029,0.0134 -0.0479,0.0134 -0.0191,0 -0.0449,0.004 -0.0574,0.0102 -0.0175,0.008 -0.0254,0.008 -0.0333,0 -0.006,-0.006 -0.0194,-0.0102 -0.0304,-0.0102 -0.0114,0 -0.0224,-0.003 -0.0254,-0.009 -0.003,-0.004 -0.009,-0.009 -0.0139,-0.009 -0.0126,0 -0.0102,0.0425 0.003,0.0647 0.0146,0.0231 0.0263,0.11342 0.0166,0.12702 -0.0149,0.0207 -0.0523,0.0396 -0.0788,0.0396 -0.0155,0 -0.033,0.006 -0.0391,0.0133 -0.006,0.007 -0.0166,0.0134 -0.0234,0.0134 -0.0135,0 -0.0169,0.0316 -0.004,0.0393 0.004,0.002 0.0102,0.0459 0.0141,0.0963 0.003,0.0504 0.0114,0.0971 0.0167,0.10384 0.0143,0.0171 0.0139,0.17724 -2.7e-4,0.18604 -0.008,0.004 -0.0123,0.0962 -0.017,0.33373 -0.003,0.17993 -0.0102,0.32925 -0.0139,0.3318 -0.004,0.002 -0.008,0.0419 -0.008,0.0876 0,0.11409 -0.006,0.13549 -0.0473,0.17576 l -0.0356,0.0345 3e-4,0.0752 c 1.9e-4,0.0485 0.006,0.0856 0.014,0.10432 0.008,0.0159 0.0163,0.0434 0.0196,0.061 0.003,0.0175 0.0146,0.0425 0.0252,0.0554 0.0103,0.0128 0.051,0.0675 0.0898,0.12155 l 0.0707,0.0982 h 0.0393 c 0.0397,0 0.091,0.0185 0.11989,0.0429 0.0125,0.0103 0.0156,0.0276 0.0156,0.0865 0,0.0822 -10e-4,0.0837 -0.0667,0.10442 -0.0671,0.0211 -0.638,0.0214 -0.65547,2.9e-4 -0.008,-0.0103 -0.0124,-0.0527 -0.0139,-0.14863 -10e-4,-0.0739 -0.007,-0.15949 -0.0115,-0.19012 -0.007,-0.0383 -0.007,-0.0611 -2.4e-4,-0.0729 0.0117,-0.022 0.0119,-0.0806 2.8e-4,-0.0806 -0.004,0 -0.009,-0.004 -0.009,-0.0114 -2e-5,-0.006 -0.007,-0.0231 -0.0144,-0.0378 -0.009,-0.0169 -0.0153,-0.054 -0.0167,-0.10237 -0.002,-0.0831 -0.009,-0.10681 -0.0276,-0.10681 -0.0152,0 -0.0567,-0.0877 -0.0567,-0.11957 0,-0.0125 -0.003,-0.0227 -0.008,-0.0227 -0.004,0 -0.009,-0.0114 -0.0114,-0.0245 -0.002,-0.0205 -0.007,-0.024 -0.025,-0.0213 -0.0122,10e-4 -0.0368,0.0147 -0.0546,0.029 -0.0215,0.0171 -0.0428,0.0257 -0.063,0.0257 -0.0167,0 -0.0381,0.006 -0.0477,0.013 -0.009,0.007 -0.0282,0.0132 -0.0417,0.0134 -0.0135,1.7e-4 -0.0245,0.003 -0.0245,0.009 0,0.004 -0.007,0.0102 -0.0158,0.0134 -0.0163,0.004 -0.10874,0.0894 -0.10874,0.0991 0,0.008 -0.0386,0.0388 -0.0489,0.0392 -0.0125,2.9e-4 -0.0328,0.0348 -0.0265,0.045 0.006,0.009 -0.009,0.0417 -0.0287,0.0608 -0.0129,0.0128 -0.008,0.0582 0.008,0.0782 0.004,0.006 0.004,0.0306 7e-5,0.0617 -0.004,0.03 -0.004,0.063 -2.8e-4,0.0788 0.004,0.0149 0.008,0.0489 0.008,0.0753 0,0.0452 0.002,0.0504 0.0385,0.0846 0.037,0.0351 0.0951,0.13832 0.0951,0.16911 0,0.0243 -0.033,0.0817 -0.0552,0.0957 -0.0299,0.0192 -0.0446,0.0225 -0.0694,0.0162 z"
         id="path14-1" /><path
         style="fill:#000000;stroke-width:0.0364"
         d="m 468.60646,602.40256 c 0.0101,-0.006 0.0308,-0.007 0.0468,-0.005 0.0159,0.003 0.0461,0.003 0.067,-3.6e-4 0.0564,-0.009 0.0676,-0.0326 0.0729,-0.15543 0.002,-0.0568 0.008,-0.11087 0.0136,-0.12022 0.005,-0.009 0.006,-0.0318 0.003,-0.0499 -0.005,-0.0265 -0.002,-0.0394 0.0188,-0.0657 0.0232,-0.0304 0.0251,-0.0401 0.0251,-0.13029 0,-0.10749 0.006,-0.1174 0.0655,-0.1174 0.0256,0 0.073,-0.0275 0.0908,-0.0527 0.004,-0.005 0.007,-0.0368 0.007,-0.0697 1.5e-4,-0.0587 7.3e-4,-0.06 0.0337,-0.0757 0.0184,-0.008 0.0426,-0.0307 0.0538,-0.0486 0.0111,-0.018 0.0372,-0.0498 0.0579,-0.0709 0.0208,-0.021 0.0378,-0.0425 0.0378,-0.0481 0,-0.005 0.007,-0.0101 0.0145,-0.0101 0.007,0 0.0144,-0.007 0.0144,-0.0145 0,-0.007 0.004,-0.0145 0.008,-0.0145 0.0119,0 0.0384,-0.0789 0.0529,-0.15654 0.0125,-0.0674 0.0256,-0.0857 0.0754,-0.10469 0.0142,-0.005 0.038,-0.0258 0.0527,-0.0454 0.0148,-0.0193 0.0319,-0.0407 0.0382,-0.0472 0.007,-0.007 0.0191,-0.0325 0.0285,-0.0578 0.0156,-0.0423 0.0485,-0.0954 0.0784,-0.12606 0.007,-0.007 0.0124,-0.0207 0.0124,-0.0303 0,-0.0101 0.007,-0.0201 0.0145,-0.0231 0.007,-0.003 0.0145,-0.0165 0.0145,-0.0299 0,-0.0135 0.005,-0.0244 0.009,-0.0244 0.005,0 0.0121,-0.0218 0.0157,-0.0484 0.004,-0.0266 0.0101,-0.0507 0.0148,-0.0536 0.005,-0.003 0.008,-0.0134 0.008,-0.0234 0,-0.0101 0.0106,-0.0297 0.0235,-0.0437 0.0359,-0.0388 0.061,-0.0931 0.0737,-0.16029 0.0212,-0.11126 0.0388,-0.16585 0.0488,-0.15125 0.0212,0.0309 0.0455,0.0966 0.0518,0.14003 0.004,0.0256 0.017,0.0604 0.0296,0.0773 0.0126,0.0168 0.023,0.0372 0.023,0.0452 0,0.007 0.004,0.0168 0.008,0.0196 0.005,0.003 0.0248,0.0378 0.0451,0.0776 0.0203,0.0399 0.0404,0.0727 0.0449,0.0727 0.005,0 0.007,0.007 0.007,0.0147 0,0.007 0.0139,0.043 0.0309,0.078 0.0311,0.0638 0.1035,0.14563 0.1935,0.21869 0.0249,0.0203 0.0454,0.0415 0.0454,0.0474 0,0.006 0.007,0.0183 0.0155,0.0279 0.0144,0.0158 0.0144,0.0184 0,0.0327 -0.0237,0.0237 -0.0193,0.0728 0.008,0.0995 0.015,0.0142 0.0239,0.0334 0.0239,0.0512 0,0.0157 0.005,0.038 0.0116,0.0495 0.007,0.0115 0.0122,0.0509 0.0128,0.0874 7.4e-4,0.0581 0.004,0.0687 0.0244,0.0851 0.0129,0.0102 0.0406,0.0334 0.0615,0.0515 0.021,0.018 0.0415,0.0329 0.0458,0.0329 0.005,0 0.007,0.0171 0.007,0.038 0,0.0209 0.004,0.0404 0.008,0.0434 0.005,0.003 0.0118,0.0228 0.0153,0.044 0.004,0.0211 0.0101,0.0384 0.0144,0.0384 0.005,0 0.007,0.0154 0.007,0.0342 0,0.0188 0.007,0.042 0.0154,0.0514 0.0101,0.011 0.0154,0.0347 0.0154,0.0678 0,0.0452 0.0192,0.10047 0.0404,0.11655 0.004,0.003 0.0101,0.0455 0.0136,0.0949 0.008,0.10705 0.0275,0.13923 0.0896,0.14917 0.0458,0.007 0.0972,0.048 0.0972,0.077 0,0.0314 0.0451,0.0916 0.075,0.1 0.0631,0.0177 0.20288,-0.002 0.27409,-0.0372 0.009,-0.005 0.0227,-0.008 0.03,-0.008 0.0289,0 0.0749,-0.0531 0.0801,-0.0925 0.0104,-0.0771 -0.0282,-0.1407 -0.17262,-0.28434 -0.0305,-0.0303 -0.0553,-0.0591 -0.0553,-0.0641 0,-0.005 -0.007,-0.0219 -0.0144,-0.0377 -0.008,-0.0179 -0.0148,-0.0593 -0.0154,-0.10982 -3.8e-4,-0.0446 -0.006,-0.0867 -0.0111,-0.0935 -0.006,-0.007 -0.009,-0.036 -0.008,-0.0647 0.002,-0.0471 -0.002,-0.0549 -0.0274,-0.0783 -0.032,-0.0285 -0.0369,-0.0525 -0.0147,-0.071 0.007,-0.007 0.0145,-0.0162 0.0145,-0.0211 0,-0.005 0.005,-0.0151 0.012,-0.0225 0.007,-0.007 0.0174,-0.0199 0.0241,-0.0277 0.0147,-0.0175 0.0165,-0.1623 0.002,-0.1886 -0.007,-0.012 -0.007,-0.02 0,-0.024 0.0128,-0.007 0.0128,-0.16855 4e-5,-0.16855 -0.005,0 -0.0101,-0.007 -0.0101,-0.015 0,-0.0161 -0.028,-0.0775 -0.0569,-0.12467 -0.0101,-0.0158 -0.0145,-0.0332 -0.0107,-0.0385 0.0114,-0.0157 0.018,-0.0655 0.0125,-0.0939 -0.003,-0.0146 -0.022,-0.0439 -0.0425,-0.065 -0.0313,-0.0322 -0.0374,-0.0453 -0.0378,-0.0795 -1.8e-4,-0.0225 -0.007,-0.0582 -0.0143,-0.0794 -0.007,-0.0212 -0.0139,-0.0579 -0.014,-0.0815 -7e-5,-0.0237 -0.006,-0.0605 -0.0136,-0.0818 -0.007,-0.0214 -0.0188,-0.0583 -0.0253,-0.0822 -0.0174,-0.0634 -0.0467,-0.15176 -0.0576,-0.1736 -0.005,-0.0105 -0.0138,-0.0273 -0.0188,-0.0375 -0.007,-0.0145 -0.003,-0.0264 0.0197,-0.055 0.022,-0.0276 0.0276,-0.0424 0.0229,-0.061 -0.007,-0.0314 -0.0421,-0.0871 -0.0536,-0.0871 -0.005,0 -0.008,-0.008 -0.008,-0.0184 0,-0.0101 -0.006,-0.0308 -0.0136,-0.0457 -0.0236,-0.0474 -0.033,-0.0743 -0.0392,-0.11154 -0.003,-0.0199 -0.0101,-0.0362 -0.0151,-0.0362 -0.005,0 -0.009,-0.0237 -0.009,-0.0527 0,-0.029 -0.006,-0.067 -0.0134,-0.0843 -0.0376,-0.0891 -0.0449,-0.15514 -0.0389,-0.35146 0.005,-0.15767 0.003,-0.19888 -0.009,-0.23851 -0.0133,-0.0423 -0.0134,-0.0503 -7.3e-4,-0.0695 0.007,-0.0118 0.0141,-0.0305 0.0141,-0.0411 0,-0.0108 0.005,-0.0195 0.0101,-0.0195 0.005,0 0.0101,-0.0191 0.0101,-0.0426 0,-0.0675 0.014,-0.0753 0.12835,-0.0713 0.0647,0.002 0.0976,0.007 0.10027,0.015 0.002,0.007 0.0188,0.0145 0.0371,0.0179 0.0181,0.004 0.0355,0.0101 0.0384,0.0148 0.007,0.011 0.20361,0.0111 0.21043,1.5e-4 0.003,-0.005 0.0184,-0.011 0.0345,-0.0142 0.0162,-0.003 0.0391,-0.0158 0.0507,-0.028 0.0118,-0.0122 0.0395,-0.0337 0.0617,-0.0481 0.0222,-0.0143 0.0533,-0.0387 0.069,-0.0541 0.0158,-0.0154 0.0442,-0.0399 0.0632,-0.0544 0.019,-0.0145 0.0344,-0.0323 0.0344,-0.0397 0,-0.007 0.007,-0.0134 0.0141,-0.0134 0.015,0 0.063,-0.0468 0.063,-0.0614 0,-0.005 0.012,-0.0207 0.0264,-0.0352 0.0398,-0.0397 0.0602,-0.0693 0.0602,-0.087 0,-0.008 0.0101,-0.0307 0.0221,-0.0486 0.0121,-0.018 0.0253,-0.0391 0.0293,-0.047 0.0117,-0.0238 0.0291,-0.0514 0.0537,-0.0858 0.019,-0.0265 0.0212,-0.0356 0.0121,-0.0502 -0.0201,-0.0321 -0.007,-0.0569 0.0345,-0.0703 0.0454,-0.0145 0.16617,-0.15619 0.16617,-0.19514 0,-0.0136 -0.0337,-0.0772 -0.0477,-0.0897 -0.003,-0.003 -0.0109,-0.0149 -0.0179,-0.0272 -0.0111,-0.0199 -0.0101,-0.0261 0.012,-0.0547 0.0202,-0.0264 0.0247,-0.043 0.0247,-0.0903 0,-0.0432 -0.004,-0.0602 -0.0154,-0.0666 -0.0114,-0.007 -0.0162,-0.0262 -0.0181,-0.0773 -0.002,-0.0453 -0.009,-0.0822 -0.0224,-0.10852 l -0.0198,-0.0398 0.0258,-0.0481 c 0.0142,-0.0264 0.0378,-0.0616 0.0524,-0.0781 0.0146,-0.0164 0.0264,-0.0334 0.0264,-0.0377 0,-0.005 0.0101,-0.0238 0.0224,-0.0436 0.0332,-0.0531 0.0364,-0.0755 0.0144,-0.10323 -0.016,-0.0204 -0.027,-0.0241 -0.0695,-0.0241 -0.0447,0 -0.0528,0.003 -0.0715,0.0285 -0.0115,0.0157 -0.0211,0.0388 -0.0211,0.0513 0,0.0126 -0.0171,0.0468 -0.038,0.0759 -0.0209,0.0292 -0.0409,0.0645 -0.0444,0.0786 -0.004,0.0141 -0.0101,0.0256 -0.0144,0.0256 -0.005,0 -0.0202,0.0134 -0.0351,0.0296 -0.0149,0.0163 -0.0367,0.0394 -0.0483,0.0512 -0.0117,0.0119 -0.0257,0.0322 -0.0313,0.0451 -0.0107,0.025 -0.0308,0.0587 -0.0395,0.0667 -0.0208,0.0187 -0.0477,0.0803 -0.0477,0.10891 0,0.0189 -0.005,0.0371 -0.0101,0.0404 -0.0167,0.0104 -0.0104,0.0396 0.0145,0.0666 0.0295,0.0318 0.0304,0.0508 0.004,0.0794 -0.0225,0.024 -0.0556,0.1103 -0.0561,0.14646 -3.5e-4,0.0224 -0.0146,0.042 -0.0737,0.10129 -0.041,0.0412 -0.10615,0.13044 -0.11819,0.16213 -0.005,0.0144 -0.0285,0.0382 -0.0512,0.053 -0.0227,0.0149 -0.0565,0.0414 -0.075,0.059 -0.0582,0.0557 -0.063,0.056 -0.10882,0.007 -0.0225,-0.024 -0.0442,-0.0439 -0.0482,-0.0439 -0.005,0 -0.0266,-0.0141 -0.05,-0.0313 -0.0392,-0.0288 -0.0425,-0.0347 -0.043,-0.0746 -1.7e-4,-0.0238 -0.007,-0.0557 -0.0148,-0.071 -0.007,-0.0151 -0.0145,-0.0317 -0.0145,-0.0367 0,-0.0243 -0.0808,-0.11289 -0.10354,-0.11351 -0.007,-1.8e-4 -0.0122,-0.004 -0.0123,-0.007 -1.4e-4,-0.004 -0.0174,-0.0178 -0.0385,-0.0308 -0.0211,-0.013 -0.0383,-0.027 -0.0383,-0.0313 0,-0.005 -0.005,-0.007 -0.0109,-0.007 -0.006,0 -0.0376,-0.0167 -0.0699,-0.0373 -0.0324,-0.0205 -0.0735,-0.0404 -0.0914,-0.0444 -0.0178,-0.004 -0.0469,-0.0157 -0.0646,-0.0261 -0.0391,-0.0231 -0.14357,-0.0557 -0.17852,-0.0558 -0.0139,-4e-5 -0.0395,-0.006 -0.0566,-0.0132 l -0.0311,-0.0132 0.0261,-0.0181 c 0.0264,-0.0183 0.0397,-0.031 0.08,-0.0757 0.0162,-0.0179 0.0316,-0.0244 0.0584,-0.0244 0.0257,0 0.0426,-0.007 0.0574,-0.0224 0.0195,-0.0207 0.0209,-0.0318 0.0207,-0.1517 -1.8e-4,-0.0927 -0.005,-0.14579 -0.0168,-0.18719 -0.0176,-0.0613 -0.0669,-0.15889 -0.0806,-0.15889 -0.005,0 -0.008,-0.005 -0.008,-0.009 0,-0.0158 -0.0852,-0.09 -0.13499,-0.11777 -0.0258,-0.0144 -0.07,-0.0288 -0.098,-0.0322 -0.0282,-0.004 -0.0692,-0.0127 -0.0915,-0.0208 -0.0551,-0.0199 -0.23526,-0.0138 -0.27911,0.009 -0.0364,0.0195 -0.0802,0.10412 -0.0802,0.15504 0,0.0185 -0.005,0.0365 -0.0101,0.0397 -0.0214,0.0132 -0.0378,0.0771 -0.0441,0.171 -0.004,0.0542 -0.0105,0.10639 -0.0154,0.11594 -0.005,0.009 -0.0132,0.0433 -0.0182,0.0751 -0.007,0.0485 -0.006,0.0677 0.0102,0.12088 0.0221,0.0713 0.0251,0.12878 0.007,0.14595 -0.007,0.007 -0.0377,0.0118 -0.0699,0.0119 -0.0321,1.2e-4 -0.0756,0.005 -0.0968,0.0105 -0.0212,0.006 -0.058,0.0136 -0.0818,0.0176 -0.0239,0.005 -0.0555,0.0124 -0.0704,0.0184 -0.0149,0.006 -0.0465,0.011 -0.0702,0.011 -0.0482,0 -0.11701,0.0305 -0.12635,0.0558 -0.008,0.0231 -0.0461,0.0569 -0.0722,0.065 -0.0253,0.007 -0.10048,0.0661 -0.12622,0.0982 -0.0101,0.012 -0.0227,0.022 -0.0289,0.0222 -0.006,1.8e-4 -0.0309,0.0198 -0.0547,0.0434 -0.0238,0.0236 -0.0564,0.0489 -0.0723,0.0564 -0.11807,0.0555 -0.1185,0.0556 -0.28574,0.0831 -0.0301,0.005 -0.0742,0.0199 -0.0981,0.0333 -0.0408,0.0228 -0.0522,0.0243 -0.1785,0.0243 h -0.13493 l -0.031,0.0385 -0.031,0.0385 h -0.0697 c -0.0735,0 -0.086,0.007 -0.17555,0.0885 -0.0538,0.0494 -0.069,0.17904 -0.0281,0.23988 0.0251,0.0374 0.0742,0.0493 0.10172,0.0245 0.008,-0.007 0.0279,-0.0174 0.0424,-0.021 0.0146,-0.004 0.0264,-0.0104 0.0264,-0.0152 0,-0.005 0.0198,-0.008 0.0443,-0.008 0.0411,0 0.0961,0.0212 0.11177,0.043 0.004,0.005 0.0573,0.0104 0.11936,0.0116 0.0633,0.002 0.11708,0.007 0.12279,0.0122 0.0128,0.0128 0.32612,0.0139 0.33906,0.002 0.005,-0.005 0.0482,-0.0106 0.0958,-0.0127 0.12466,-0.005 0.25924,-0.0327 0.3249,-0.0661 0.0285,-0.0145 0.046,-0.009 0.0555,0.0155 0.005,0.0133 0.0136,0.024 0.019,0.024 0.005,0 0.0101,0.0107 0.0101,0.0241 0,0.0133 0.005,0.0241 0.0101,0.0241 0.006,0 0.0101,0.0332 0.0101,0.0795 1.8e-4,0.0439 0.007,0.0967 0.0143,0.11798 0.007,0.0212 0.0139,0.046 0.014,0.0551 7e-5,0.009 0.009,0.0341 0.0206,0.0557 0.0188,0.0362 0.0202,0.0506 0.0164,0.18871 -0.002,0.0899 -0.008,0.15218 -0.0141,0.15614 -0.0148,0.009 -0.0397,0.0673 -0.0509,0.11734 -0.007,0.0301 -0.007,0.0617 0.002,0.10376 l 0.0109,0.0604 -0.0382,0.0367 c -0.0287,0.0276 -0.0424,0.0514 -0.0547,0.0959 -0.0192,0.0687 -0.0209,0.10458 -0.006,0.10968 0.007,0.002 0.002,0.0224 -0.0145,0.0569 -0.0349,0.0737 -0.0415,0.13112 -0.0206,0.17548 0.015,0.0317 0.0153,0.0382 0.002,0.0663 -0.0285,0.062 -0.0379,0.10485 -0.0315,0.14509 0.0138,0.0877 0.0167,0.26797 0.005,0.29684 -0.009,0.0227 -0.009,0.0332 3.8e-4,0.0516 0.0106,0.0198 0.009,0.0294 -0.0101,0.0694 -0.0122,0.0254 -0.0241,0.0698 -0.0267,0.0986 -0.006,0.0691 -0.0337,0.11626 -0.0682,0.11626 -0.0348,0 -0.0438,0.0112 -0.10546,0.13173 -0.005,0.0101 -0.0184,0.0381 -0.0301,0.0633 -0.0116,0.0251 -0.024,0.046 -0.0277,0.0461 -0.004,1.8e-4 -0.0229,0.023 -0.0429,0.0505 -0.0736,0.10147 -0.13584,0.18512 -0.14125,0.18981 -0.003,0.003 -0.0138,0.0222 -0.0238,0.0434 -0.0101,0.0212 -0.0227,0.0472 -0.0281,0.0578 -0.0101,0.0187 -0.0221,0.12282 -0.031,0.26003 -0.002,0.0371 -0.009,0.0854 -0.015,0.10734 -0.0118,0.0444 -0.005,0.0804 0.0156,0.0804 0.011,0 0.0107,0.006 -0.002,0.0358 -0.0101,0.0236 -0.0131,0.0499 -0.009,0.0772 0.0107,0.078 -0.0487,0.17481 -0.11632,0.18966 -0.0395,0.008 -0.0551,0.0277 -0.0791,0.0966 -0.0296,0.0845 -0.027,0.12151 0.0101,0.1424 0.0163,0.009 0.0484,0.0168 0.0716,0.0168 0.0231,0 0.0447,0.005 0.048,0.0101 0.008,0.0133 0.29332,0.0122 0.31636,-0.002 z"
         id="path18-66" /><path
         style="fill:#000000;stroke-width:0.0304785"
         d="m 472.4445,602.35197 c -0.027,-0.0213 0.004,-0.065 0.008,-0.0677 0.004,-0.002 0.008,-0.0136 0.008,-0.0242 0,-0.0105 0.005,-0.0246 0.0121,-0.0312 0.0152,-0.0152 0.0157,-0.0567 6.4e-4,-0.0689 -0.0191,-0.0159 -0.037,-0.13822 -0.0228,-0.15624 0.004,-0.005 0.0103,-0.0199 0.0131,-0.032 0.002,-0.0121 0.009,-0.0221 0.0132,-0.0221 0.004,0 0.007,-0.005 0.007,-0.0112 0,-0.006 0.0125,-0.0172 0.0279,-0.0245 0.0153,-0.007 0.03,-0.0168 0.0327,-0.021 0.002,-0.004 0.0119,-0.007 0.0205,-0.007 0.008,0 0.0156,-0.004 0.0156,-0.008 0,-0.004 0.008,-0.008 0.0181,-0.008 0.0248,-3.6e-4 0.0451,-0.031 0.0559,-0.0847 0.007,-0.0336 0.007,-0.0473 -1.8e-4,-0.0542 -0.005,-0.005 -0.009,-0.021 -0.009,-0.0352 0,-0.0768 -0.12065,-0.21283 -0.18883,-0.21283 -0.0196,0 -0.0454,-0.0113 -0.0732,-0.0323 -0.0233,-0.0175 -0.0605,-0.0694 -0.0605,-0.0844 0,-0.0135 -0.0635,-0.11936 -0.0743,-0.12399 -0.003,-0.002 -0.007,-0.008 -0.007,-0.0145 0,-0.007 -0.009,-0.0216 -0.0201,-0.0334 -0.0111,-0.0119 -0.0205,-0.0273 -0.0207,-0.034 -3.7e-4,-0.007 -0.007,-0.0231 -0.0161,-0.0363 -0.008,-0.0133 -0.0177,-0.0297 -0.0204,-0.0363 -0.0148,-0.0369 -0.0226,-0.0546 -0.0325,-0.0739 -0.006,-0.0117 -0.0111,-0.0272 -0.0111,-0.0343 0,-0.007 -0.004,-0.0129 -0.008,-0.0129 -0.004,0 -0.008,-0.007 -0.008,-0.0167 0,-0.009 -0.005,-0.0221 -0.0121,-0.0288 -0.007,-0.007 -0.0121,-0.0207 -0.0121,-0.0312 0,-0.0105 -0.004,-0.0214 -0.008,-0.0242 -0.004,-0.002 -0.008,-0.019 -0.008,-0.0361 0,-0.0173 -0.004,-0.0326 -0.0103,-0.0344 -0.0167,-0.005 -0.0191,-0.16824 -0.003,-0.2003 0.008,-0.0164 0.013,-0.0466 0.013,-0.0808 0,-0.0301 0.004,-0.0569 0.008,-0.0597 0.004,-0.002 0.008,-0.0222 0.008,-0.0433 0,-0.0212 0.005,-0.0454 0.0118,-0.054 0.007,-0.008 0.0119,-0.0254 0.0121,-0.0373 1.5e-4,-0.0119 0.004,-0.0239 0.008,-0.0266 0.004,-0.002 0.008,-0.0147 0.008,-0.0267 1.4e-4,-0.0119 0.006,-0.0288 0.0121,-0.0373 0.007,-0.008 0.0118,-0.0238 0.0118,-0.0337 0,-0.0103 0.004,-0.0205 0.008,-0.0231 0.004,-0.002 0.008,-0.012 0.008,-0.0207 0,-0.008 0.009,-0.0329 0.0194,-0.054 0.0296,-0.0583 0.0451,-0.0959 0.0451,-0.10955 0,-0.007 0.004,-0.0146 0.008,-0.0174 0.004,-0.002 0.008,-0.0175 0.008,-0.0327 0,-0.0152 0.003,-0.0278 0.007,-0.0278 0.004,0 0.009,-0.0145 0.0128,-0.0322 0.003,-0.0177 0.008,-0.0343 0.0127,-0.0367 0.004,-0.002 0.007,-0.0168 0.007,-0.0318 0,-0.0149 0.003,-0.0292 0.007,-0.0316 0.004,-0.002 0.009,-0.0189 0.0121,-0.0367 0.002,-0.0178 0.009,-0.0324 0.0132,-0.0324 0.004,0 0.007,-0.0126 0.007,-0.0278 0,-0.0152 0.003,-0.0297 0.007,-0.0321 0.004,-0.002 0.009,-0.0217 0.0129,-0.0428 0.003,-0.0211 0.008,-0.0421 0.0121,-0.0465 0.003,-0.004 0.008,-0.0244 0.0105,-0.0444 0.002,-0.02 0.006,-0.0435 0.007,-0.0524 0.005,-0.0238 -0.0201,-0.0376 -0.0695,-0.0376 -0.0237,0 -0.0531,-0.005 -0.0652,-0.0115 -0.0121,-0.007 -0.0282,-0.0117 -0.0354,-0.0117 -0.0174,-3.7e-4 -0.0445,-0.0371 -0.0328,-0.0444 0.005,-0.003 0.002,-0.009 -0.008,-0.0171 -0.015,-0.0105 -0.0168,-0.02 -0.0168,-0.091 0,-0.0605 -0.002,-0.0816 -0.0121,-0.0892 -0.008,-0.007 -0.0121,-0.0256 -0.0121,-0.0609 0,-0.028 -0.004,-0.0532 -0.008,-0.0559 -0.004,-0.002 -0.008,-0.0117 -0.008,-0.0198 0,-0.008 -0.006,-0.0169 -0.0125,-0.0195 -0.007,-0.002 -0.0175,-0.0167 -0.0237,-0.0311 -0.006,-0.0144 -0.0278,-0.0434 -0.048,-0.0643 -0.0293,-0.0303 -0.0368,-0.0436 -0.0368,-0.0661 0,-0.0154 -0.004,-0.0303 -0.008,-0.033 -0.004,-0.002 -0.008,-0.0106 -0.008,-0.0174 0,-0.018 -0.0247,-0.0673 -0.0337,-0.0673 -0.004,0 -0.0195,-0.009 -0.0342,-0.0202 -0.0145,-0.0111 -0.0305,-0.0202 -0.0353,-0.0202 -0.005,0 -0.0117,-0.004 -0.0153,-0.0103 -0.003,-0.006 -0.0223,-0.0182 -0.0416,-0.0283 -0.0194,-0.0103 -0.0448,-0.0232 -0.0564,-0.0294 -0.0117,-0.007 -0.0431,-0.0212 -0.0698,-0.0332 -0.0265,-0.012 -0.0566,-0.0257 -0.0666,-0.0304 -0.0264,-0.0121 -0.0715,-0.0596 -0.0861,-0.0903 -0.007,-0.0146 -0.0253,-0.0342 -0.0408,-0.0433 -0.0154,-0.009 -0.0283,-0.0203 -0.0283,-0.0247 0,-0.004 -0.0141,-0.0117 -0.0312,-0.0164 -0.0419,-0.0112 -0.0791,0.004 -0.12853,0.0549 -0.0526,0.0535 -0.0787,0.0681 -0.1346,0.0751 -0.11091,0.0139 -0.14443,0.0258 -0.20641,0.0733 -0.016,0.0121 -0.0348,0.0221 -0.0419,0.0221 -0.007,0 -0.0151,0.004 -0.0178,0.008 -0.007,0.0118 -0.054,0.009 -0.0716,-0.004 -0.021,-0.0159 -0.0614,-0.0984 -0.0614,-0.12542 0,-0.0172 0.0117,-0.0327 0.0503,-0.0674 0.0296,-0.0267 0.0578,-0.0452 0.0685,-0.0452 0.0103,0 0.0182,-0.004 0.0182,-0.008 0,-0.004 0.007,-0.008 0.014,-0.008 0.007,-1.9e-4 0.0359,-0.0131 0.0624,-0.0287 0.0265,-0.0155 0.0647,-0.0355 0.0847,-0.0441 0.0583,-0.0255 0.10793,-0.0488 0.12096,-0.0567 0.007,-0.004 0.0174,-0.009 0.0239,-0.0127 0.0222,-0.0103 0.0499,-0.0387 0.0614,-0.0629 0.0227,-0.0474 0.1421,-0.15735 0.17092,-0.15735 0.004,0 0.0184,-0.005 0.0311,-0.012 0.0127,-0.007 0.0349,-0.0139 0.0494,-0.0161 0.0144,-0.002 0.0389,-0.006 0.0544,-0.008 l 0.0283,-0.004 v -0.0435 c 0,-0.0239 -0.003,-0.0455 -0.007,-0.0478 -0.004,-0.002 -0.007,-0.0203 -0.007,-0.0397 -5.6e-4,-0.028 0.004,-0.0407 0.0218,-0.0607 0.0124,-0.0139 0.0259,-0.0253 0.03,-0.0253 0.004,0 0.0173,-0.009 0.0292,-0.0201 0.0119,-0.0111 0.0269,-0.0201 0.0332,-0.0201 0.007,0 0.016,-0.005 0.0215,-0.0121 0.005,-0.007 0.0169,-0.0121 0.0251,-0.0121 0.008,0 0.0151,-0.004 0.0151,-0.008 0,-0.004 0.003,-0.008 0.007,-0.008 0.004,0 0.0318,-0.0164 0.062,-0.0362 0.0303,-0.02 0.0625,-0.0386 0.0714,-0.0413 0.009,-0.002 0.0212,-0.0103 0.0273,-0.0162 0.006,-0.006 0.0163,-0.011 0.0225,-0.011 0.007,0 0.0115,-0.004 0.0115,-0.008 0,-0.004 0.007,-0.008 0.0151,-0.008 0.008,0 0.0196,-0.005 0.0251,-0.0121 0.005,-0.007 0.0169,-0.0121 0.0251,-0.0121 0.008,0 0.0151,-0.004 0.0151,-0.008 0,-0.004 0.005,-0.008 0.0111,-0.008 0.006,0 0.0156,-0.005 0.0212,-0.0121 0.005,-0.007 0.0166,-0.0121 0.0245,-0.0121 0.007,0 0.0156,-0.003 0.0172,-0.007 0.002,-0.004 0.031,-0.0207 0.0655,-0.0379 0.0346,-0.0173 0.0668,-0.0361 0.0716,-0.0418 0.004,-0.006 0.0128,-0.0108 0.0178,-0.011 0.005,-3.7e-4 0.0254,-0.013 0.0453,-0.0282 0.02,-0.0152 0.0491,-0.0363 0.0645,-0.0467 0.0624,-0.0424 0.0765,-0.0834 0.0381,-0.11141 -0.0121,-0.009 -0.0219,-0.0212 -0.0219,-0.0274 0,-0.007 -0.003,-0.0114 -0.007,-0.0114 -0.0117,0 -0.027,-0.0553 -0.0214,-0.0775 0.007,-0.0249 0.0574,-0.0757 0.0761,-0.0757 0.007,0 0.0173,-0.003 0.0215,-0.007 0.004,-0.004 0.0221,-0.009 0.0399,-0.0122 0.0756,-0.0116 0.10374,-0.0295 0.11217,-0.0715 0.005,-0.0271 0.10997,-0.13227 0.15066,-0.15168 0.0151,-0.007 0.0468,-0.0226 0.0706,-0.0343 0.0237,-0.0117 0.0516,-0.0212 0.062,-0.0212 0.0105,0 0.0391,-0.005 0.0637,-0.0116 0.0336,-0.009 0.055,-0.009 0.0871,-0.004 0.0233,0.004 0.0688,0.0103 0.10123,0.0127 l 0.0588,0.004 0.0387,-0.0414 c 0.0213,-0.0228 0.0424,-0.0414 0.0468,-0.0414 0.004,0 0.0189,-0.005 0.032,-0.0118 0.0496,-0.0247 0.13993,0.0288 0.13993,0.0829 0,0.0137 0.003,0.0333 0.007,0.0435 0.004,0.0103 0.009,0.0279 0.0119,0.0393 0.004,0.0186 0.0289,0.0309 0.0289,0.0141 0,-0.004 0.002,-0.006 0.006,-0.005 0.0276,0.007 0.11919,-0.0348 0.1297,-0.0598 0.002,-0.003 0.007,-0.007 0.0135,-0.007 0.006,0 0.012,-0.002 0.0135,-0.006 0.003,-0.007 0.0599,-0.0504 0.0655,-0.0504 0.004,0 0.079,-0.0664 0.11181,-0.0988 0.0123,-0.0121 0.0238,-0.0222 0.0253,-0.0222 0.002,0 0.0352,-0.0309 0.0744,-0.0685 0.0392,-0.0378 0.0757,-0.0685 0.081,-0.0685 0.005,0 0.014,-0.005 0.0195,-0.0121 0.014,-0.0169 0.0798,-0.0159 0.10506,0.002 0.0283,0.0195 0.0476,0.0442 0.0479,0.0609 1.6e-4,0.007 0.003,0.0205 0.007,0.0283 0.0103,0.0205 0.0299,0.0877 0.0418,0.14303 0.006,0.0265 0.0154,0.0586 0.0216,0.0711 0.007,0.0135 0.009,0.0323 0.006,0.046 -0.006,0.0265 -0.0657,0.0885 -0.0857,0.0885 -0.007,0 -0.0154,0.005 -0.018,0.0121 -0.002,0.007 -0.012,0.0121 -0.021,0.0121 -0.009,0 -0.0164,0.004 -0.0164,0.008 0,0.004 -0.006,0.008 -0.0136,0.008 -0.007,0 -0.0192,0.004 -0.0262,0.0107 -0.007,0.006 -0.0291,0.0157 -0.049,0.0219 -0.02,0.006 -0.0454,0.0158 -0.0564,0.0216 -0.0111,0.006 -0.0317,0.0103 -0.0459,0.0104 -0.0141,4e-5 -0.028,0.004 -0.0307,0.008 -0.002,0.004 -0.012,0.008 -0.0207,0.008 -0.008,0 -0.0156,0.002 -0.0156,0.007 0,0.003 -0.0117,0.012 -0.0262,0.0189 -0.0544,0.0259 -0.11529,0.0596 -0.12556,0.0693 -0.006,0.006 -0.0131,0.0103 -0.0162,0.0103 -0.0158,3e-5 -0.0536,0.0432 -0.0515,0.0592 0.002,0.0103 -0.007,0.0269 -0.0182,0.0393 -0.0112,0.012 -0.0205,0.0232 -0.0205,0.0251 0,0.002 -0.02,0.0241 -0.0444,0.0495 l -0.0443,0.0462 0.005,0.0457 c 0.002,0.0251 0.008,0.0517 0.012,0.0593 0.0118,0.023 0.007,0.0456 -0.009,0.0509 -0.009,0.002 -0.0161,0.008 -0.0161,0.0127 0,0.004 -0.005,0.007 -0.0121,0.007 -0.007,0 -0.0121,0.002 -0.0121,0.007 0,0.0171 -0.0646,0.0338 -0.13048,0.0338 -0.0688,0 -0.12364,0.0158 -0.11761,0.0339 0.002,0.004 0.0164,0.0129 0.0332,0.0186 0.0168,0.006 0.0369,0.0164 0.0448,0.0232 0.008,0.007 0.0283,0.0129 0.0473,0.0129 0.0182,0 0.0354,0.004 0.0381,0.008 0.002,0.004 0.0184,0.008 0.0348,0.008 0.0164,3e-5 0.0401,0.005 0.0529,0.0121 0.0127,0.007 0.0315,0.012 0.0419,0.012 0.0103,0 0.021,0.004 0.0238,0.008 0.002,0.004 0.0116,0.008 0.0196,0.008 0.008,0 0.0191,0.005 0.0247,0.0121 0.005,0.007 0.0154,0.0121 0.0219,0.0121 0.007,0 0.0266,0.0127 0.0448,0.0282 0.0181,0.0155 0.041,0.0283 0.0507,0.0283 0.009,0 0.0222,0.005 0.0278,0.0121 0.005,0.007 0.015,0.0121 0.0212,0.0121 0.006,0 0.0111,0.004 0.0111,0.008 0,0.004 0.004,0.008 0.0106,0.008 0.009,0 0.0863,0.0698 0.10735,0.0979 0.0322,0.043 0.0513,0.0826 0.0513,0.1059 0,0.0147 0.004,0.0313 0.0103,0.0369 0.007,0.007 0.0103,0.0518 0.0103,0.16422 0,0.11614 -0.002,0.15498 -0.0103,0.15752 -0.0117,0.004 -0.0141,0.0752 -0.003,0.0871 0.0119,0.0127 0.0195,0.11406 0.009,0.12053 -0.005,0.003 -0.0125,0.0143 -0.0165,0.0251 -0.004,0.0117 -0.0139,0.0193 -0.0237,0.0193 -0.0155,0 -0.0163,0.005 -0.0163,0.11087 -7e-5,0.0679 -0.004,0.12215 -0.0103,0.13998 -0.0104,0.0301 -0.056,0.0879 -0.0691,0.0879 -0.004,0 -0.0134,0.009 -0.0206,0.0202 -0.007,0.0111 -0.017,0.0202 -0.0217,0.0202 -0.0148,0 -0.0275,0.0195 -0.0291,0.0444 -6.5e-4,0.0133 -0.004,0.18134 -0.007,0.37343 -0.002,0.19209 -0.008,0.35835 -0.0126,0.36946 -0.004,0.0111 -0.007,0.0627 -0.007,0.1145 0,0.0519 -0.004,0.10695 -0.008,0.12245 -0.004,0.0155 -0.0103,0.0463 -0.013,0.0685 -0.002,0.0221 -0.008,0.0438 -0.012,0.048 -0.0103,0.0106 -0.009,0.14743 6.4e-4,0.15363 0.0106,0.007 0.0106,0.10082 0,0.10082 -0.004,0 -0.008,0.007 -0.008,0.0145 0,0.007 -0.012,0.027 -0.0268,0.0424 -0.0471,0.049 -0.11859,0.11257 -0.12667,0.11257 -0.004,0 -0.007,0.004 -0.007,0.008 0,0.004 -0.005,0.008 -0.0121,0.008 -0.007,0 -0.0121,0.004 -0.0121,0.008 0,0.004 -0.0251,0.008 -0.0588,0.008 -0.0351,0 -0.0628,0.004 -0.0685,0.009 -0.007,0.007 -0.009,0.0406 -0.009,0.10031 0,0.0517 -0.003,0.0928 -0.008,0.0957 -0.004,0.002 -0.008,0.0258 -0.008,0.0512 0,0.0255 -0.004,0.0504 -0.009,0.0553 -0.0175,0.0175 -0.0389,0.23694 -0.025,0.25468 0.004,0.005 0.0103,0.0347 0.0131,0.0652 0.003,0.0306 0.009,0.0624 0.0134,0.0705 0.0136,0.0254 0.0103,0.22467 -0.004,0.25979 -0.007,0.0186 -0.0136,0.0598 -0.0148,0.10547 -0.002,0.0583 -0.005,0.0802 -0.0177,0.0983 -0.0357,0.0531 -0.0381,0.0623 -0.037,0.14426 5.6e-4,0.0457 0.004,0.0818 0.009,0.0833 0.0116,0.004 0.0103,0.0396 -0.002,0.044 -0.007,0.002 -0.004,0.006 0.006,0.0103 0.0247,0.0103 0.0263,0.0157 0.0273,0.10393 6.4e-4,0.0656 -0.002,0.0887 -0.0145,0.11409 -0.0158,0.0327 -0.0748,0.0869 -0.11758,0.10819 -0.0133,0.007 -0.029,0.0166 -0.0349,0.0221 -0.006,0.006 -0.0192,0.0103 -0.0297,0.0103 -0.0105,0 -0.0214,0.004 -0.0242,0.008 -0.002,0.004 -0.012,0.008 -0.0207,0.008 -0.008,0 -0.0156,0.002 -0.0156,0.007 0,0.0226 -0.49071,0.0994 -0.63704,-0.0154 z m 0.28561,-1.47978 c 0.0106,-0.004 0.0128,-0.0205 0.0128,-0.0973 0,-0.0674 -0.003,-0.0955 -0.011,-0.10345 -0.0122,-0.0121 -0.0293,-0.002 -0.0293,0.0181 0,0.006 -0.005,0.0129 -0.012,0.0154 -0.007,0.002 -0.009,0.008 -0.007,0.0139 0.003,0.005 0.007,0.035 0.007,0.0665 6.5e-4,0.0315 0.005,0.0651 0.0106,0.0746 0.0103,0.0193 0.0103,0.0193 0.0283,0.0126 z m -0.65262,-2.63802 c 0.009,-0.0271 0.019,-0.052 0.0223,-0.0553 0.003,-0.003 0.006,-0.0112 0.006,-0.0177 0,-0.0208 0.0558,-0.0883 0.084,-0.10164 0.015,-0.007 0.0444,-0.013 0.065,-0.013 0.0751,0 0.13592,-0.0288 0.15042,-0.071 0.004,-0.014 0.0709,-0.0895 0.11803,-0.13486 0.0456,-0.0439 0.0523,-0.0664 0.0278,-0.0927 -0.0123,-0.0134 -0.0187,-0.0144 -0.044,-0.007 -0.0163,0.004 -0.0317,0.0117 -0.0343,0.0159 -0.002,0.004 -0.0115,0.007 -0.0199,0.007 -0.008,0 -0.0161,0.003 -0.0177,0.007 -0.005,0.0121 -0.0947,0.0741 -0.10717,0.0741 -0.007,0 -0.0124,0.003 -0.0124,0.007 0,0.004 -0.007,0.009 -0.0141,0.012 -0.007,0.002 -0.0251,0.0119 -0.0384,0.0205 -0.0133,0.008 -0.032,0.0158 -0.0413,0.0163 -0.009,3.7e-4 -0.0217,0.006 -0.0272,0.0127 -0.005,0.007 -0.0143,0.0121 -0.0195,0.0121 -0.005,0 -0.0167,0.007 -0.0252,0.0145 -0.0183,0.017 -0.066,0.0419 -0.0806,0.0419 -0.005,0 -0.012,0.005 -0.0146,0.0121 -0.002,0.007 -0.012,0.0121 -0.021,0.0121 -0.009,0 -0.0164,0.004 -0.0164,0.008 0,0.004 -0.007,0.008 -0.0152,0.008 -0.008,0 -0.0171,0.004 -0.0192,0.0105 -0.002,0.006 -0.0199,0.0154 -0.0392,0.0216 -0.0193,0.006 -0.0408,0.0159 -0.0478,0.0218 -0.007,0.006 -0.0174,0.0107 -0.023,0.0107 -0.006,0 -0.0175,0.009 -0.0261,0.0202 -0.009,0.0111 -0.0204,0.0201 -0.0257,0.0201 -0.005,0 -0.014,0.004 -0.0191,0.009 -0.007,0.007 -0.002,0.0132 0.0199,0.0249 0.016,0.008 0.0338,0.0205 0.0398,0.0262 0.006,0.006 0.0243,0.0189 0.041,0.0291 0.0168,0.0103 0.0323,0.0206 0.0345,0.0232 0.002,0.002 0.0192,0.0114 0.0378,0.0195 0.0186,0.008 0.0356,0.0195 0.0379,0.0254 0.002,0.007 0.0109,0.008 0.0265,0.004 0.0187,-0.005 0.0252,-0.0143 0.0389,-0.0552 z"
         id="path2-3-5"
         sodipodi:nodetypes="ssssssssssssssscsssssssssssssssssssssssscscssssssssssssssssssssssssssssssssssssssssssssssssssssssssssssssssssssscsssssssssssssssssssssssssscsssssssssssssssscsssssssssssssssssscssssssssssssssssssssssscsssssssssssssssssssssssssssssssssscsssssssssssssssssssssssssssssssssssssssssssssssssssssssssssssssssssssssssssssssssssssssssssss" /></g></g></svg>
