<?xml version="1.0" encoding="UTF-8" standalone="no"?>
<!-- Created with Inkscape (http://www.inkscape.org/) -->

<svg
   width="10.337133mm"
   height="5.7764516mm"
   viewBox="0 0 10.337133 5.7764516"
   version="1.1"
   id="svg1"
   xml:space="preserve"
   sodipodi:docname="inkporter-svg-gnz8a10a.svg"
   xmlns:inkscape="http://www.inkscape.org/namespaces/inkscape"
   xmlns:sodipodi="http://sodipodi.sourceforge.net/DTD/sodipodi-0.dtd"
   xmlns="http://www.w3.org/2000/svg"
   xmlns:svg="http://www.w3.org/2000/svg"><sodipodi:namedview
     id="namedview1"
     pagecolor="#ffffff"
     bordercolor="#666666"
     borderopacity="1.0"
     inkscape:showpageshadow="2"
     inkscape:pageopacity="0.0"
     inkscape:pagecheckerboard="0"
     inkscape:deskcolor="#d1d1d1"
     inkscape:document-units="mm"
     inkscape:zoom="0.81824846"
     inkscape:cx="391.69032"
     inkscape:cy="819.43326"
     inkscape:window-width="3840"
     inkscape:window-height="2066"
     inkscape:window-x="2869"
     inkscape:window-y="-11"
     inkscape:window-maximized="1"
     inkscape:current-layer="layer1" /><defs
     id="defs1" /><g
     inkscape:label="Layer 1"
     inkscape:groupmode="layer"
     id="layer1"
     transform="translate(-198.43751,-200.55415)"><g
       id="B-Infantry-MG3"
       transform="translate(-269.1487,-396.11288)"><path
         style="fill:#000000;stroke-width:0.0364"
         d="m 468.60646,602.40256 c 0.0101,-0.006 0.0308,-0.007 0.0468,-0.005 0.0159,0.003 0.0461,0.003 0.067,-3.6e-4 0.0564,-0.009 0.0676,-0.0326 0.0729,-0.15543 0.002,-0.0568 0.008,-0.11087 0.0136,-0.12022 0.005,-0.009 0.006,-0.0318 0.003,-0.0499 -0.005,-0.0265 -0.002,-0.0394 0.0188,-0.0657 0.0232,-0.0304 0.0251,-0.0401 0.0251,-0.13029 0,-0.10749 0.006,-0.1174 0.0655,-0.1174 0.0256,0 0.073,-0.0275 0.0908,-0.0527 0.004,-0.005 0.007,-0.0368 0.007,-0.0697 1.5e-4,-0.0587 7.3e-4,-0.06 0.0337,-0.0757 0.0184,-0.008 0.0426,-0.0307 0.0538,-0.0486 0.0111,-0.018 0.0372,-0.0498 0.0579,-0.0709 0.0208,-0.021 0.0378,-0.0425 0.0378,-0.0481 0,-0.005 0.007,-0.0101 0.0145,-0.0101 0.007,0 0.0144,-0.007 0.0144,-0.0145 0,-0.007 0.004,-0.0145 0.008,-0.0145 0.0119,0 0.0384,-0.0789 0.0529,-0.15654 0.0125,-0.0674 0.0256,-0.0857 0.0754,-0.10469 0.0142,-0.005 0.038,-0.0258 0.0527,-0.0454 0.0148,-0.0193 0.0319,-0.0407 0.0382,-0.0472 0.007,-0.007 0.0191,-0.0325 0.0285,-0.0578 0.0156,-0.0423 0.0485,-0.0954 0.0784,-0.12606 0.007,-0.007 0.0124,-0.0207 0.0124,-0.0303 0,-0.0101 0.007,-0.0201 0.0145,-0.0231 0.007,-0.003 0.0145,-0.0165 0.0145,-0.0299 0,-0.0135 0.005,-0.0244 0.009,-0.0244 0.005,0 0.0121,-0.0218 0.0157,-0.0484 0.004,-0.0266 0.0101,-0.0507 0.0148,-0.0536 0.005,-0.003 0.008,-0.0134 0.008,-0.0234 0,-0.0101 0.0106,-0.0297 0.0235,-0.0437 0.0359,-0.0388 0.061,-0.0931 0.0737,-0.16029 0.0212,-0.11126 0.0388,-0.16585 0.0488,-0.15125 0.0212,0.0309 0.0455,0.0966 0.0518,0.14003 0.004,0.0256 0.017,0.0604 0.0296,0.0773 0.0126,0.0168 0.023,0.0372 0.023,0.0452 0,0.007 0.004,0.0168 0.008,0.0196 0.005,0.003 0.0248,0.0378 0.0451,0.0776 0.0203,0.0399 0.0404,0.0727 0.0449,0.0727 0.005,0 0.007,0.007 0.007,0.0147 0,0.007 0.0139,0.043 0.0309,0.078 0.0311,0.0638 0.1035,0.14563 0.1935,0.21869 0.0249,0.0203 0.0454,0.0415 0.0454,0.0474 0,0.006 0.007,0.0183 0.0155,0.0279 0.0144,0.0158 0.0144,0.0184 0,0.0327 -0.0237,0.0237 -0.0193,0.0728 0.008,0.0995 0.015,0.0142 0.0239,0.0334 0.0239,0.0512 0,0.0157 0.005,0.038 0.0116,0.0495 0.007,0.0115 0.0122,0.0509 0.0128,0.0874 7.4e-4,0.0581 0.004,0.0687 0.0244,0.0851 0.0129,0.0102 0.0406,0.0334 0.0615,0.0515 0.021,0.018 0.0415,0.0329 0.0458,0.0329 0.005,0 0.007,0.0171 0.007,0.038 0,0.0209 0.004,0.0404 0.008,0.0434 0.005,0.003 0.0118,0.0228 0.0153,0.044 0.004,0.0211 0.0101,0.0384 0.0144,0.0384 0.005,0 0.007,0.0154 0.007,0.0342 0,0.0188 0.007,0.042 0.0154,0.0514 0.0101,0.011 0.0154,0.0347 0.0154,0.0678 0,0.0452 0.0192,0.10047 0.0404,0.11655 0.004,0.003 0.0101,0.0455 0.0136,0.0949 0.008,0.10705 0.0275,0.13923 0.0896,0.14917 0.0458,0.007 0.0972,0.048 0.0972,0.077 0,0.0314 0.0451,0.0916 0.075,0.1 0.0631,0.0177 0.20288,-0.002 0.27409,-0.0372 0.009,-0.005 0.0227,-0.008 0.03,-0.008 0.0289,0 0.0749,-0.0531 0.0801,-0.0925 0.0104,-0.0771 -0.0282,-0.1407 -0.17262,-0.28434 -0.0305,-0.0303 -0.0553,-0.0591 -0.0553,-0.0641 0,-0.005 -0.007,-0.0219 -0.0144,-0.0377 -0.008,-0.0179 -0.0148,-0.0593 -0.0154,-0.10982 -3.8e-4,-0.0446 -0.006,-0.0867 -0.0111,-0.0935 -0.006,-0.007 -0.009,-0.036 -0.008,-0.0647 0.002,-0.0471 -0.002,-0.0549 -0.0274,-0.0783 -0.032,-0.0285 -0.0369,-0.0525 -0.0147,-0.071 0.007,-0.007 0.0145,-0.0162 0.0145,-0.0211 0,-0.005 0.005,-0.0151 0.012,-0.0225 0.007,-0.007 0.0174,-0.0199 0.0241,-0.0277 0.0147,-0.0175 0.0165,-0.1623 0.002,-0.1886 -0.007,-0.012 -0.007,-0.02 0,-0.024 0.0128,-0.007 0.0128,-0.16855 4e-5,-0.16855 -0.005,0 -0.0101,-0.007 -0.0101,-0.015 0,-0.0161 -0.028,-0.0775 -0.0569,-0.12467 -0.0101,-0.0158 -0.0145,-0.0332 -0.0107,-0.0385 0.0114,-0.0157 0.018,-0.0655 0.0125,-0.0939 -0.003,-0.0146 -0.022,-0.0439 -0.0425,-0.065 -0.0313,-0.0322 -0.0374,-0.0453 -0.0378,-0.0795 -1.8e-4,-0.0225 -0.007,-0.0582 -0.0143,-0.0794 -0.007,-0.0212 -0.0139,-0.0579 -0.014,-0.0815 -7e-5,-0.0237 -0.006,-0.0605 -0.0136,-0.0818 -0.007,-0.0214 -0.0188,-0.0583 -0.0253,-0.0822 -0.0174,-0.0634 -0.0467,-0.15176 -0.0576,-0.1736 -0.005,-0.0105 -0.0138,-0.0273 -0.0188,-0.0375 -0.007,-0.0145 -0.003,-0.0264 0.0197,-0.055 0.022,-0.0276 0.0276,-0.0424 0.0229,-0.061 -0.007,-0.0314 -0.0421,-0.0871 -0.0536,-0.0871 -0.005,0 -0.008,-0.008 -0.008,-0.0184 0,-0.0101 -0.006,-0.0308 -0.0136,-0.0457 -0.0236,-0.0474 -0.033,-0.0743 -0.0392,-0.11154 -0.003,-0.0199 -0.0101,-0.0362 -0.0151,-0.0362 -0.005,0 -0.009,-0.0237 -0.009,-0.0527 0,-0.029 -0.006,-0.067 -0.0134,-0.0843 -0.0376,-0.0891 -0.0449,-0.15514 -0.0389,-0.35146 0.005,-0.15767 0.003,-0.19888 -0.009,-0.23851 -0.0133,-0.0423 -0.0134,-0.0503 -7.3e-4,-0.0695 0.007,-0.0118 0.0141,-0.0305 0.0141,-0.0411 0,-0.0108 0.005,-0.0195 0.0101,-0.0195 0.005,0 0.0101,-0.0191 0.0101,-0.0426 0,-0.0675 0.014,-0.0753 0.12835,-0.0713 0.0647,0.002 0.0976,0.007 0.10027,0.015 0.002,0.007 0.0188,0.0145 0.0371,0.0179 0.0181,0.004 0.0355,0.0101 0.0384,0.0148 0.007,0.011 0.20361,0.0111 0.21043,1.5e-4 0.003,-0.005 0.0184,-0.011 0.0345,-0.0142 0.0162,-0.003 0.0391,-0.0158 0.0507,-0.028 0.0118,-0.0122 0.0395,-0.0337 0.0617,-0.0481 0.0222,-0.0143 0.0533,-0.0387 0.069,-0.0541 0.0158,-0.0154 0.0442,-0.0399 0.0632,-0.0544 0.019,-0.0145 0.0344,-0.0323 0.0344,-0.0397 0,-0.007 0.007,-0.0134 0.0141,-0.0134 0.015,0 0.063,-0.0468 0.063,-0.0614 0,-0.005 0.012,-0.0207 0.0264,-0.0352 0.0398,-0.0397 0.0602,-0.0693 0.0602,-0.087 0,-0.008 0.0101,-0.0307 0.0221,-0.0486 0.0121,-0.018 0.0253,-0.0391 0.0293,-0.047 0.0117,-0.0238 0.0291,-0.0514 0.0537,-0.0858 0.019,-0.0265 0.0212,-0.0356 0.0121,-0.0502 -0.0201,-0.0321 -0.007,-0.0569 0.0345,-0.0703 0.0454,-0.0145 0.16617,-0.15619 0.16617,-0.19514 0,-0.0136 -0.0337,-0.0772 -0.0477,-0.0897 -0.003,-0.003 -0.0109,-0.0149 -0.0179,-0.0272 -0.0111,-0.0199 -0.0101,-0.0261 0.012,-0.0547 0.0202,-0.0264 0.0247,-0.043 0.0247,-0.0903 0,-0.0432 -0.004,-0.0602 -0.0154,-0.0666 -0.0114,-0.007 -0.0162,-0.0262 -0.0181,-0.0773 -0.002,-0.0453 -0.009,-0.0822 -0.0224,-0.10852 l -0.0198,-0.0398 0.0258,-0.0481 c 0.0142,-0.0264 0.0378,-0.0616 0.0524,-0.0781 0.0146,-0.0164 0.0264,-0.0334 0.0264,-0.0377 0,-0.005 0.0101,-0.0238 0.0224,-0.0436 0.0332,-0.0531 0.0364,-0.0755 0.0144,-0.10323 -0.016,-0.0204 -0.027,-0.0241 -0.0695,-0.0241 -0.0447,0 -0.0528,0.003 -0.0715,0.0285 -0.0115,0.0157 -0.0211,0.0388 -0.0211,0.0513 0,0.0126 -0.0171,0.0468 -0.038,0.0759 -0.0209,0.0292 -0.0409,0.0645 -0.0444,0.0786 -0.004,0.0141 -0.0101,0.0256 -0.0144,0.0256 -0.005,0 -0.0202,0.0134 -0.0351,0.0296 -0.0149,0.0163 -0.0367,0.0394 -0.0483,0.0512 -0.0117,0.0119 -0.0257,0.0322 -0.0313,0.0451 -0.0107,0.025 -0.0308,0.0587 -0.0395,0.0667 -0.0208,0.0187 -0.0477,0.0803 -0.0477,0.10891 0,0.0189 -0.005,0.0371 -0.0101,0.0404 -0.0167,0.0104 -0.0104,0.0396 0.0145,0.0666 0.0295,0.0318 0.0304,0.0508 0.004,0.0794 -0.0225,0.024 -0.0556,0.1103 -0.0561,0.14646 -3.5e-4,0.0224 -0.0146,0.042 -0.0737,0.10129 -0.041,0.0412 -0.10615,0.13044 -0.11819,0.16213 -0.005,0.0144 -0.0285,0.0382 -0.0512,0.053 -0.0227,0.0149 -0.0565,0.0414 -0.075,0.059 -0.0582,0.0557 -0.063,0.056 -0.10882,0.007 -0.0225,-0.024 -0.0442,-0.0439 -0.0482,-0.0439 -0.005,0 -0.0266,-0.0141 -0.05,-0.0313 -0.0392,-0.0288 -0.0425,-0.0347 -0.043,-0.0746 -1.7e-4,-0.0238 -0.007,-0.0557 -0.0148,-0.071 -0.007,-0.0151 -0.0145,-0.0317 -0.0145,-0.0367 0,-0.0243 -0.0808,-0.11289 -0.10354,-0.11351 -0.007,-1.8e-4 -0.0122,-0.004 -0.0123,-0.007 -1.4e-4,-0.004 -0.0174,-0.0178 -0.0385,-0.0308 -0.0211,-0.013 -0.0383,-0.027 -0.0383,-0.0313 0,-0.005 -0.005,-0.007 -0.0109,-0.007 -0.006,0 -0.0376,-0.0167 -0.0699,-0.0373 -0.0324,-0.0205 -0.0735,-0.0404 -0.0914,-0.0444 -0.0178,-0.004 -0.0469,-0.0157 -0.0646,-0.0261 -0.0391,-0.0231 -0.14357,-0.0557 -0.17852,-0.0558 -0.0139,-4e-5 -0.0395,-0.006 -0.0566,-0.0132 l -0.0311,-0.0132 0.0261,-0.0181 c 0.0264,-0.0183 0.0397,-0.031 0.08,-0.0757 0.0162,-0.0179 0.0316,-0.0244 0.0584,-0.0244 0.0257,0 0.0426,-0.007 0.0574,-0.0224 0.0195,-0.0207 0.0209,-0.0318 0.0207,-0.1517 -1.8e-4,-0.0927 -0.005,-0.14579 -0.0168,-0.18719 -0.0176,-0.0613 -0.0669,-0.15889 -0.0806,-0.15889 -0.005,0 -0.008,-0.005 -0.008,-0.009 0,-0.0158 -0.0852,-0.09 -0.13499,-0.11777 -0.0258,-0.0144 -0.07,-0.0288 -0.098,-0.0322 -0.0282,-0.004 -0.0692,-0.0127 -0.0915,-0.0208 -0.0551,-0.0199 -0.23526,-0.0138 -0.27911,0.009 -0.0364,0.0195 -0.0802,0.10412 -0.0802,0.15504 0,0.0185 -0.005,0.0365 -0.0101,0.0397 -0.0214,0.0132 -0.0378,0.0771 -0.0441,0.171 -0.004,0.0542 -0.0105,0.10639 -0.0154,0.11594 -0.005,0.009 -0.0132,0.0433 -0.0182,0.0751 -0.007,0.0485 -0.006,0.0677 0.0102,0.12088 0.0221,0.0713 0.0251,0.12878 0.007,0.14595 -0.007,0.007 -0.0377,0.0118 -0.0699,0.0119 -0.0321,1.2e-4 -0.0756,0.005 -0.0968,0.0105 -0.0212,0.006 -0.058,0.0136 -0.0818,0.0176 -0.0239,0.005 -0.0555,0.0124 -0.0704,0.0184 -0.0149,0.006 -0.0465,0.011 -0.0702,0.011 -0.0482,0 -0.11701,0.0305 -0.12635,0.0558 -0.008,0.0231 -0.0461,0.0569 -0.0722,0.065 -0.0253,0.007 -0.10048,0.0661 -0.12622,0.0982 -0.0101,0.012 -0.0227,0.022 -0.0289,0.0222 -0.006,1.8e-4 -0.0309,0.0198 -0.0547,0.0434 -0.0238,0.0236 -0.0564,0.0489 -0.0723,0.0564 -0.11807,0.0555 -0.1185,0.0556 -0.28574,0.0831 -0.0301,0.005 -0.0742,0.0199 -0.0981,0.0333 -0.0408,0.0228 -0.0522,0.0243 -0.1785,0.0243 h -0.13493 l -0.031,0.0385 -0.031,0.0385 h -0.0697 c -0.0735,0 -0.086,0.007 -0.17555,0.0885 -0.0538,0.0494 -0.069,0.17904 -0.0281,0.23988 0.0251,0.0374 0.0742,0.0493 0.10172,0.0245 0.008,-0.007 0.0279,-0.0174 0.0424,-0.021 0.0146,-0.004 0.0264,-0.0104 0.0264,-0.0152 0,-0.005 0.0198,-0.008 0.0443,-0.008 0.0411,0 0.0961,0.0212 0.11177,0.043 0.004,0.005 0.0573,0.0104 0.11936,0.0116 0.0633,0.002 0.11708,0.007 0.12279,0.0122 0.0128,0.0128 0.32612,0.0139 0.33906,0.002 0.005,-0.005 0.0482,-0.0106 0.0958,-0.0127 0.12466,-0.005 0.25924,-0.0327 0.3249,-0.0661 0.0285,-0.0145 0.046,-0.009 0.0555,0.0155 0.005,0.0133 0.0136,0.024 0.019,0.024 0.005,0 0.0101,0.0107 0.0101,0.0241 0,0.0133 0.005,0.0241 0.0101,0.0241 0.006,0 0.0101,0.0332 0.0101,0.0795 1.8e-4,0.0439 0.007,0.0967 0.0143,0.11798 0.007,0.0212 0.0139,0.046 0.014,0.0551 7e-5,0.009 0.009,0.0341 0.0206,0.0557 0.0188,0.0362 0.0202,0.0506 0.0164,0.18871 -0.002,0.0899 -0.008,0.15218 -0.0141,0.15614 -0.0148,0.009 -0.0397,0.0673 -0.0509,0.11734 -0.007,0.0301 -0.007,0.0617 0.002,0.10376 l 0.0109,0.0604 -0.0382,0.0367 c -0.0287,0.0276 -0.0424,0.0514 -0.0547,0.0959 -0.0192,0.0687 -0.0209,0.10458 -0.006,0.10968 0.007,0.002 0.002,0.0224 -0.0145,0.0569 -0.0349,0.0737 -0.0415,0.13112 -0.0206,0.17548 0.015,0.0317 0.0153,0.0382 0.002,0.0663 -0.0285,0.062 -0.0379,0.10485 -0.0315,0.14509 0.0138,0.0877 0.0167,0.26797 0.005,0.29684 -0.009,0.0227 -0.009,0.0332 3.8e-4,0.0516 0.0106,0.0198 0.009,0.0294 -0.0101,0.0694 -0.0122,0.0254 -0.0241,0.0698 -0.0267,0.0986 -0.006,0.0691 -0.0337,0.11626 -0.0682,0.11626 -0.0348,0 -0.0438,0.0112 -0.10546,0.13173 -0.005,0.0101 -0.0184,0.0381 -0.0301,0.0633 -0.0116,0.0251 -0.024,0.046 -0.0277,0.0461 -0.004,1.8e-4 -0.0229,0.023 -0.0429,0.0505 -0.0736,0.10147 -0.13584,0.18512 -0.14125,0.18981 -0.003,0.003 -0.0138,0.0222 -0.0238,0.0434 -0.0101,0.0212 -0.0227,0.0472 -0.0281,0.0578 -0.0101,0.0187 -0.0221,0.12282 -0.031,0.26003 -0.002,0.0371 -0.009,0.0854 -0.015,0.10734 -0.0118,0.0444 -0.005,0.0804 0.0156,0.0804 0.011,0 0.0107,0.006 -0.002,0.0358 -0.0101,0.0236 -0.0131,0.0499 -0.009,0.0772 0.0107,0.078 -0.0487,0.17481 -0.11632,0.18966 -0.0395,0.008 -0.0551,0.0277 -0.0791,0.0966 -0.0296,0.0845 -0.027,0.12151 0.0101,0.1424 0.0163,0.009 0.0484,0.0168 0.0716,0.0168 0.0231,0 0.0447,0.005 0.048,0.0101 0.008,0.0133 0.29332,0.0122 0.31636,-0.002 z"
         id="path252" /><path
         style="fill:#000000;stroke-width:0.0306803"
         d="m 471.79997,602.43891 c 0.009,-0.004 0.0737,-0.007 0.14381,-0.008 0.1012,-4.5e-4 0.13342,-0.003 0.15581,-0.0141 0.0357,-0.017 0.0487,-0.0472 0.0418,-0.0978 -0.0178,-0.13218 -0.0167,-0.29043 0.002,-0.31296 0.007,-0.008 0.009,-0.0297 0.008,-0.0593 -0.002,-0.0366 -0.006,-0.0484 -0.0187,-0.0555 -0.009,-0.004 -0.0177,-0.009 -0.0193,-0.0107 -0.002,-7.8e-4 0.004,-0.0182 0.0141,-0.0383 0.0164,-0.0347 0.0296,-0.0783 0.0393,-0.12917 0.002,-0.0126 0.0129,-0.0323 0.0234,-0.0435 0.0105,-0.0113 0.0212,-0.0284 0.0238,-0.0378 0.007,-0.0277 0.0221,-0.0559 0.0441,-0.0864 0.0355,-0.0491 0.0713,-0.13001 0.10235,-0.23135 0.008,-0.0268 0.0179,-0.0521 0.0213,-0.0564 0.004,-0.004 0.006,-0.0191 0.006,-0.0329 0,-0.0139 0.005,-0.0324 0.012,-0.041 0.006,-0.008 0.0122,-0.0285 0.0124,-0.0441 3e-4,-0.0157 0.005,-0.0355 0.0124,-0.0441 0.006,-0.008 0.012,-0.029 0.012,-0.0451 0,-0.0161 0.003,-0.0328 0.007,-0.037 0.004,-0.004 0.0131,-0.0296 0.0206,-0.0564 0.007,-0.0268 0.0188,-0.0657 0.0254,-0.0864 0.006,-0.0207 0.0119,-0.0464 0.0119,-0.0573 0,-0.0107 0.003,-0.0231 0.007,-0.0273 0.004,-0.004 0.011,-0.0278 0.0157,-0.0524 0.0232,-0.12231 0.0509,-0.23931 0.0581,-0.24667 0.004,-0.004 0.008,-0.0157 0.008,-0.0249 5e-5,-0.009 0.0133,0.0107 0.0296,0.0442 0.0162,0.0335 0.0326,0.0621 0.0364,0.0637 0.004,10e-4 0.007,0.006 0.007,0.0111 0,0.004 0.0146,0.0298 0.0325,0.0561 0.0179,0.0262 0.0325,0.0525 0.0325,0.0586 0,0.006 0.007,0.017 0.0148,0.0245 0.008,0.007 0.029,0.0412 0.0461,0.0751 0.0172,0.0339 0.0361,0.0636 0.0419,0.0659 0.005,0.002 0.0106,0.007 0.0106,0.0117 0,0.008 0.001,0.0106 0.0403,0.0567 0.0136,0.0162 0.0247,0.0339 0.0247,0.0394 0,0.009 0.007,0.0185 0.0497,0.0648 0.007,0.008 0.0146,0.0185 0.0163,0.0236 0.004,0.0128 0.0594,0.0766 0.11057,0.12789 0.0235,0.0236 0.0427,0.0502 0.0427,0.0594 0,0.009 0.004,0.0166 0.008,0.0166 0.004,0 0.0219,0.0146 0.0378,0.0325 0.016,0.0179 0.0333,0.0325 0.0384,0.0325 0.004,0 0.0248,0.0146 0.044,0.0325 0.0191,0.0179 0.0381,0.0325 0.0422,0.0325 0.004,0 0.007,0.0265 0.007,0.0588 1.6e-4,0.0356 0.004,0.0668 0.012,0.0791 0.006,0.0111 0.0117,0.0269 0.0119,0.035 1.5e-4,0.008 0.009,0.0264 0.0198,0.0406 0.0163,0.0217 0.0203,0.039 0.0247,0.10703 0.008,0.13763 0.006,0.23301 -0.007,0.32473 -0.0203,0.12938 -0.006,0.20425 0.0417,0.22716 0.0324,0.0154 0.0725,0.009 0.13659,-0.0203 0.0514,-0.0238 0.17464,-0.14907 0.17524,-0.17808 1.5e-4,-0.007 0.005,-0.0198 0.0122,-0.0285 0.009,-0.0119 0.012,-0.0403 0.012,-0.11531 0,-0.0953 7.8e-4,-0.10047 0.0203,-0.11983 0.0182,-0.0181 0.0203,-0.0269 0.0203,-0.0824 0,-0.0568 -0.0124,-0.10026 -0.0334,-0.1173 -0.002,-0.002 -0.007,-0.0123 -0.0107,-0.0223 -0.003,-0.0105 -0.009,-0.0182 -0.0132,-0.0182 -0.004,0 -0.007,-0.007 -0.007,-0.0167 0,-0.009 -0.009,-0.0331 -0.0203,-0.0531 -0.0111,-0.0201 -0.0203,-0.0492 -0.0203,-0.0648 0,-0.0282 -0.0246,-0.0869 -0.0405,-0.0968 -0.004,-0.003 -0.008,-0.0145 -0.008,-0.026 0,-0.0115 -0.004,-0.0351 -0.009,-0.0525 -0.007,-0.0241 -0.007,-0.0339 0,-0.0412 0.013,-0.013 0.012,-0.073 -10e-4,-0.10541 -0.006,-0.0147 -0.018,-0.0485 -0.026,-0.0754 -0.008,-0.0268 -0.0176,-0.0521 -0.0211,-0.0564 -0.004,-0.004 -0.006,-0.0139 -0.006,-0.0213 0,-0.007 -0.005,-0.0182 -0.0122,-0.0238 -0.007,-0.005 -0.0122,-0.0234 -0.0122,-0.0411 0,-0.017 -0.003,-0.0331 -0.007,-0.0356 -0.004,-0.002 -0.009,-0.0191 -0.0129,-0.037 -0.003,-0.0179 -0.008,-0.0325 -0.0129,-0.0325 -0.004,0 -0.007,-0.006 -0.007,-0.0136 0,-0.0379 -0.0297,-0.10298 -0.0564,-0.12336 -0.0154,-0.0118 -0.0369,-0.0295 -0.0476,-0.0394 -0.0107,-0.009 -0.0265,-0.0202 -0.035,-0.0229 -0.0106,-0.003 -0.0154,-0.0125 -0.0154,-0.0294 0,-0.0279 -0.0187,-0.072 -0.0456,-0.10825 -0.0166,-0.0224 -0.0184,-0.0348 -0.0207,-0.15221 -0.002,-0.0703 -0.002,-0.12785 -2e-5,-0.12785 0.006,4e-5 0.0258,0.024 0.0258,0.0317 0,0.009 0.0463,0.0982 0.0576,0.10995 0.004,0.004 0.007,0.0128 0.007,0.0191 0,0.006 0.0201,0.0343 0.0447,0.0622 0.0292,0.0333 0.0447,0.058 0.0447,0.0717 0,0.031 0.008,0.0464 0.0244,0.0464 0.0128,0 0.0149,0.009 0.0174,0.0797 0.002,0.0759 0.004,0.0808 0.0263,0.10152 0.0269,0.0249 0.0561,0.0277 0.0995,0.009 0.0161,-0.007 0.051,-0.0122 0.0777,-0.0122 0.054,0 0.0917,-0.0168 0.099,-0.044 0.008,-0.0307 0.004,-0.12155 -0.007,-0.17516 -0.006,-0.029 -0.0119,-0.0802 -0.0122,-0.11365 -3e-4,-0.0402 -0.004,-0.0662 -0.0125,-0.0767 -0.006,-0.008 -0.012,-0.0326 -0.012,-0.0532 0,-0.0206 -0.003,-0.0409 -0.007,-0.0452 -0.004,-0.004 -0.009,-0.0453 -0.0113,-0.0911 -0.002,-0.0518 -0.008,-0.0884 -0.015,-0.0964 -0.008,-0.009 -0.0108,-0.0574 -0.011,-0.20477 -1.4e-4,-0.16977 0.002,-0.19406 0.0141,-0.21183 0.0177,-0.0249 0.0197,-0.13142 0.003,-0.16298 -0.006,-0.0113 -0.0132,-0.0458 -0.016,-0.0765 -0.003,-0.0307 -0.009,-0.0596 -0.0136,-0.0641 -0.004,-0.004 -0.008,-0.0165 -0.008,-0.0265 0,-0.0105 -0.003,-0.0203 -0.007,-0.0228 -0.004,-0.002 -0.009,-0.0257 -0.0127,-0.0512 -0.003,-0.0256 -0.009,-0.0666 -0.014,-0.0912 -0.004,-0.0246 -0.009,-0.0802 -0.009,-0.12365 -7.5e-4,-0.0499 -0.004,-0.0827 -0.0109,-0.0889 -0.005,-0.005 -0.009,-0.0258 -0.009,-0.0453 0,-0.0194 -0.004,-0.0434 -0.009,-0.0532 -0.005,-0.009 -0.0124,-0.047 -0.0153,-0.0827 -0.003,-0.0357 -0.0116,-0.0942 -0.0191,-0.12988 -0.007,-0.0357 -0.0157,-0.0877 -0.0181,-0.11544 -0.002,-0.0284 -0.009,-0.0546 -0.0154,-0.0599 -0.006,-0.005 -0.0112,-0.0248 -0.0112,-0.047 0,-0.0207 -0.004,-0.0503 -0.008,-0.0659 -0.004,-0.0156 -0.0105,-0.046 -0.0126,-0.0678 -0.002,-0.0216 -0.007,-0.0455 -0.012,-0.0527 -0.004,-0.007 -0.0115,-0.0591 -0.0165,-0.11483 -0.0181,-0.20242 -0.0211,-0.22628 -0.0302,-0.23723 -0.008,-0.0105 -0.0208,-0.064 -0.0313,-0.13618 -0.002,-0.0157 -0.006,-0.0338 -0.009,-0.0406 -0.004,-0.012 -0.0209,-0.11257 -0.0329,-0.207 -0.003,-0.0268 -0.0106,-0.0568 -0.016,-0.0664 -0.005,-0.009 -0.009,-0.0288 -0.009,-0.0421 0,-0.0135 -0.004,-0.0267 -0.008,-0.0294 -0.004,-0.003 -0.008,-0.0319 -0.008,-0.0649 0,-0.033 0.004,-0.0622 0.008,-0.0649 0.004,-0.003 0.008,-0.0244 0.008,-0.0479 0,-0.0449 -6e-4,-0.0456 -0.0635,-0.0751 -10e-4,-6e-4 -0.007,-0.0312 -0.0132,-0.0678 -0.0123,-0.0768 -0.0292,-0.10068 -0.0714,-0.10068 -0.0429,0 -0.063,0.0235 -0.063,0.0737 0,0.0233 0.003,0.0442 0.007,0.0467 0.0125,0.007 0.0163,0.11313 0.006,0.17208 -0.007,0.0459 -0.007,0.0658 6e-4,0.0974 0.009,0.0346 0.0161,0.0891 0.0321,0.24672 0.002,0.0201 0.007,0.0438 0.0107,0.0528 0.004,0.009 0.009,0.0354 0.012,0.0589 0.004,0.0413 0.004,0.0427 -0.0151,0.0427 -0.011,0 -0.0224,-0.004 -0.0251,-0.008 -0.003,-0.004 -0.0207,-0.008 -0.0399,-0.008 -0.0266,0 -0.0422,-0.005 -0.0656,-0.0244 -0.0169,-0.0133 -0.0393,-0.0244 -0.0498,-0.0244 -0.0105,0 -0.0191,-0.003 -0.0191,-0.007 0,-0.004 -0.0144,-0.009 -0.0318,-0.0113 -0.0185,-0.002 -0.0415,-0.0131 -0.0546,-0.0254 -0.0126,-0.0117 -0.0266,-0.0211 -0.0311,-0.0211 -0.0117,0 -0.0253,-0.0241 -0.0325,-0.0571 -0.003,-0.0154 -0.009,-0.0301 -0.0126,-0.0323 -0.004,-0.002 -0.009,-0.0141 -0.012,-0.0264 -0.004,-0.0182 -0.003,-0.0223 0.009,-0.0223 0.008,-3e-5 0.0255,-0.005 0.0384,-0.0122 0.0128,-0.007 0.0269,-0.0121 0.0313,-0.0121 0.004,0 0.0213,-0.0105 0.0376,-0.023 0.0163,-0.0126 0.036,-0.0253 0.044,-0.0282 0.008,-0.003 0.0168,-0.0117 0.0198,-0.0197 0.003,-0.008 0.007,-0.0162 0.0105,-0.0185 0.0382,-0.0321 0.0459,-0.1106 0.017,-0.17328 -0.0197,-0.0426 -0.0695,-0.10277 -0.0851,-0.10277 -0.005,0 -0.0202,-0.0109 -0.0331,-0.0244 -0.0128,-0.0134 -0.0282,-0.0244 -0.0341,-0.0244 -0.005,0 -0.0107,-0.004 -0.0107,-0.009 0,-0.005 -0.008,-0.0207 -0.0191,-0.0345 -0.0105,-0.0138 -0.0217,-0.0334 -0.0249,-0.0434 -0.003,-0.0105 -0.009,-0.0182 -0.0134,-0.0182 -0.004,0 -0.007,-0.004 -0.007,-0.0107 0,-0.0171 -0.0748,-0.0809 -0.12246,-0.10435 -0.0983,-0.0484 -0.0998,-0.0489 -0.2042,-0.0459 -0.0694,0.002 -0.0992,0.005 -0.10151,0.0128 -0.002,0.005 -0.008,0.0105 -0.0139,0.0105 -0.048,0 -0.143,0.0767 -0.17487,0.14142 -0.0161,0.0326 -0.0568,0.0614 -0.0876,0.0617 -0.026,3e-4 -0.0851,0.0605 -0.10341,0.10537 -0.002,0.007 -0.008,0.0185 -0.0125,0.0263 -0.004,0.007 -0.007,0.0325 -0.007,0.0549 0,0.037 0.004,0.0513 0.0258,0.0893 0.004,0.007 0.009,0.0168 0.0118,0.0224 0.005,0.0122 0.0597,0.0668 0.0658,0.0668 0.002,0 0.0256,0.0146 0.0518,0.0325 0.0262,0.0179 0.0503,0.0326 0.0537,0.0328 0.0118,4.6e-4 0.0322,0.0366 0.05,0.0885 0.0242,0.0702 0.0301,0.0801 0.0717,0.12136 l 0.0359,0.0355 -0.023,0.0151 c -0.0126,0.008 -0.0287,0.0151 -0.0356,0.0152 -0.021,9e-5 -0.0796,0.0316 -0.1115,0.0601 -0.0165,0.0148 -0.047,0.0331 -0.0676,0.0409 -0.0207,0.007 -0.0496,0.0251 -0.0642,0.0386 -0.0147,0.0135 -0.0399,0.0332 -0.056,0.0438 -0.0161,0.0107 -0.0362,0.0313 -0.0449,0.0459 -0.008,0.0146 -0.0201,0.0311 -0.0256,0.0367 -0.005,0.005 -0.0185,0.0312 -0.0288,0.0567 -0.0182,0.0451 -0.0189,0.0558 -0.0209,0.3105 -0.002,0.24439 -0.006,0.30993 -0.0258,0.41805 -0.029,0.15761 -0.0353,0.19742 -0.0449,0.28412 -0.005,0.0536 -0.0134,0.14854 -0.0166,0.21105 -0.003,0.0625 -0.009,0.11814 -0.0139,0.12361 -0.009,0.0121 -0.026,0.19845 -0.0195,0.22412 0.002,0.0105 0.0191,0.0265 0.0371,0.0366 0.0383,0.0215 0.0551,0.0653 0.0437,0.11415 -0.004,0.016 -0.004,0.0803 -4.5e-4,0.14279 0.009,0.16276 0.008,0.2228 -0.002,0.33282 -0.0107,0.11154 -0.004,0.37471 0.009,0.40535 0.007,0.0148 0.006,0.0297 -10e-4,0.0589 -0.005,0.0214 -0.0131,0.0847 -0.0166,0.14051 -0.006,0.10445 -0.0149,0.15758 -0.031,0.19738 -0.005,0.0129 -0.009,0.0678 -0.009,0.12622 0,0.059 -0.003,0.10691 -0.008,0.11159 -0.004,0.004 -0.0105,0.0974 -0.0129,0.22852 -0.004,0.19191 -0.003,0.22366 0.008,0.2463 0.0149,0.03 0.0172,0.0891 0.004,0.10235 -0.005,0.005 -0.0108,0.0509 -0.0131,0.10511 -0.002,0.0529 -0.007,0.10225 -0.0112,0.10975 -0.004,0.007 -0.007,0.0206 -0.007,0.0291 0,0.008 -0.009,0.0242 -0.021,0.035 -0.0261,0.0244 -0.04,0.0512 -0.0472,0.0905 -0.003,0.0166 -0.0134,0.0403 -0.0234,0.0529 -0.009,0.0125 -0.0219,0.0297 -0.0266,0.0383 -0.005,0.009 -0.025,0.0193 -0.0528,0.0256 -0.11158,0.0251 -0.12791,0.0331 -0.14888,0.072 -0.009,0.018 -0.0131,0.04 -0.0113,0.0739 0.002,0.0422 0.004,0.0493 0.0228,0.0575 0.0254,0.0117 0.3467,0.0216 0.36933,0.0115 z m 1.68978,-2.31993 c -0.006,-0.0123 -0.0137,-0.0324 -0.0166,-0.0447 -0.003,-0.0123 -0.009,-0.0223 -0.0133,-0.0223 -0.004,0 -0.008,-0.005 -0.008,-0.0129 0,-0.007 -0.008,-0.0244 -0.0183,-0.0385 -0.0105,-0.0141 -0.0245,-0.0393 -0.032,-0.0561 l -0.0139,-0.0306 h 0.0326 c 0.0421,0 0.0779,0.036 0.0839,0.0847 0.0169,0.13739 0.0126,0.17363 -0.0144,0.12024 z m -0.32199,-1.08976 c 0,-0.004 -0.005,-0.008 -0.0122,-0.008 -0.0183,0 -0.0149,-0.035 0.004,-0.0471 0.0199,-0.0124 0.0288,-0.008 0.0342,0.0165 0.002,0.0105 0.006,0.0248 0.009,0.0326 0.004,0.0113 0.002,0.0142 -0.0151,0.0142 -0.0117,0 -0.0211,-0.004 -0.0211,-0.008 z"
         id="path20-9-8" /><path
         style="fill:#000000;stroke-width:0.0324424"
         d="m 474.42362,602.43019 c -0.0189,-0.007 -0.0614,-0.0159 -0.0945,-0.0207 -0.0707,-0.01 -0.15605,-0.0289 -0.18025,-0.0395 -0.0355,-0.0157 -0.0914,-0.0581 -0.10545,-0.0801 -0.0301,-0.0467 -0.039,-0.0528 -0.0766,-0.0528 -0.0418,0 -0.10544,-0.0245 -0.10544,-0.0406 0,-0.005 -0.005,-0.011 -0.0115,-0.011 -0.0227,0 -0.04,-0.0307 -0.04,-0.0712 0,-0.037 0.011,-0.0715 0.0398,-0.12755 0.007,-0.0125 0.0118,-0.0438 0.0118,-0.0695 0,-0.0377 0.004,-0.0532 0.0243,-0.0802 0.0134,-0.0185 0.0308,-0.0388 0.0386,-0.0453 0.008,-0.007 0.0143,-0.0203 0.0143,-0.0309 0,-0.0183 0.0765,-0.10754 0.0923,-0.10754 0.004,0 0.0121,-0.013 0.0178,-0.0288 0.005,-0.0159 0.0393,-0.0593 0.0746,-0.0966 0.0448,-0.0472 0.0748,-0.0891 0.0995,-0.13854 0.0194,-0.039 0.0388,-0.0709 0.043,-0.0709 0.004,0 0.008,-0.004 0.008,-0.009 0,-0.01 0.0353,-0.0625 0.045,-0.0669 0.003,-10e-4 0.007,-0.007 0.007,-0.0111 0,-0.009 0.0248,-0.0323 0.1588,-0.15217 0.0425,-0.038 0.10589,-0.0983 0.14089,-0.13391 0.035,-0.0356 0.0671,-0.0648 0.0714,-0.0648 0.004,0 0.0206,-0.01 0.0364,-0.0219 0.0157,-0.0121 0.0435,-0.0243 0.0616,-0.0271 0.0341,-0.005 0.0716,-0.0249 0.0716,-0.0372 0,-0.003 -0.005,-0.0127 -0.0129,-0.0199 -0.007,-0.007 -0.0128,-0.0224 -0.0128,-0.0338 0,-0.0115 -0.005,-0.0258 -0.0129,-0.0317 -0.007,-0.005 -0.0129,-0.0191 -0.0129,-0.0294 0,-0.01 -0.005,-0.0263 -0.0126,-0.0355 -0.007,-0.009 -0.0127,-0.0352 -0.0129,-0.0577 -1.7e-4,-0.0225 -0.007,-0.0549 -0.0132,-0.0718 -0.007,-0.0169 -0.0129,-0.053 -0.0129,-0.0802 0,-0.0334 -0.004,-0.0528 -0.0129,-0.0601 -0.007,-0.005 -0.0129,-0.0175 -0.0129,-0.0258 0,-0.009 -0.005,-0.0199 -0.0128,-0.0258 -0.007,-0.005 -0.0129,-0.0237 -0.0129,-0.0397 0,-0.0281 -0.001,-0.029 -0.0346,-0.029 -0.0229,0 -0.0364,-0.004 -0.0396,-0.0128 -0.002,-0.007 -0.0143,-0.0129 -0.0258,-0.0129 -0.0114,0 -0.0231,-0.005 -0.0258,-0.0128 -0.002,-0.007 -0.0118,-0.0128 -0.0201,-0.0128 -0.009,0 -0.02,-0.005 -0.0259,-0.0129 -0.005,-0.007 -0.0183,-0.0128 -0.0277,-0.0128 -0.01,0 -0.0342,-0.0115 -0.0551,-0.0258 -0.021,-0.0142 -0.0419,-0.0258 -0.0462,-0.0258 -0.004,0 -0.008,-0.003 -0.008,-0.008 0,-0.012 -0.0554,-0.0436 -0.0764,-0.0436 -0.01,0 -0.0208,-0.005 -0.0235,-0.0129 -0.002,-0.007 -0.01,-0.0129 -0.0169,-0.0129 -0.007,0 -0.012,-0.003 -0.012,-0.008 0,-0.004 -0.009,-0.011 -0.0193,-0.0138 -0.0253,-0.008 -0.0572,-0.0462 -0.0577,-0.0694 -1.7e-4,-0.01 0.0153,-0.0371 0.0343,-0.0601 0.019,-0.023 0.0444,-0.0611 0.0564,-0.0846 0.0304,-0.0601 0.0429,-0.0815 0.0539,-0.0926 0.005,-0.005 0.01,-0.0158 0.01,-0.0235 0,-0.008 0.0115,-0.0291 0.0255,-0.0477 0.0141,-0.0186 0.028,-0.0464 0.031,-0.0617 0.003,-0.0154 0.009,-0.0301 0.0131,-0.0327 0.004,-0.002 0.008,-0.015 0.008,-0.0278 4e-5,-0.0127 0.005,-0.0331 0.0115,-0.0451 0.007,-0.0121 0.0138,-0.0315 0.0168,-0.0431 0.003,-0.0115 0.0129,-0.0292 0.0222,-0.0392 0.009,-0.01 0.0272,-0.0379 0.0399,-0.0622 0.0126,-0.0243 0.0338,-0.0556 0.047,-0.0697 0.0214,-0.0229 0.0294,-0.0256 0.0747,-0.0256 0.0459,0 0.0562,-0.003 0.1083,-0.0387 0.0316,-0.0213 0.0607,-0.0387 0.0647,-0.0387 0.0126,0 0.0526,-0.0389 0.0526,-0.0511 0,-0.0112 0.0377,-0.0968 0.065,-0.14765 0.007,-0.0125 0.0123,-0.0365 0.0123,-0.0532 0,-0.0167 0.003,-0.0327 0.009,-0.0357 0.004,-0.003 0.009,-0.0163 0.009,-0.0297 0,-0.0238 -0.0126,-0.0348 -0.0402,-0.0348 -0.008,0 -0.0297,-0.0112 -0.05,-0.0249 -0.0203,-0.0137 -0.0448,-0.0273 -0.0545,-0.0305 -0.01,-0.003 -0.0201,-0.0137 -0.0233,-0.0236 -0.003,-0.01 -0.0159,-0.0275 -0.0283,-0.039 -0.0307,-0.0285 -0.0427,-0.074 -0.0313,-0.11897 0.004,-0.0194 0.0127,-0.0406 0.0175,-0.0472 0.0214,-0.0298 0.0385,-0.0678 0.0387,-0.0862 1.6e-4,-0.0111 0.005,-0.0276 0.0129,-0.0368 0.0164,-0.0216 0.0159,-0.0383 -0.001,-0.0578 -0.0132,-0.0146 -0.0132,-0.0168 0,-0.0314 0.008,-0.009 0.0142,-0.0237 0.0142,-0.0334 0,-0.01 0.005,-0.02 0.0128,-0.0226 0.007,-0.002 0.0129,-0.0123 0.0129,-0.0213 0,-0.009 0.005,-0.0212 0.0129,-0.0271 0.007,-0.005 0.0129,-0.0214 0.0129,-0.0344 0,-0.013 0.005,-0.0284 0.0129,-0.0344 0.007,-0.005 0.0128,-0.0171 0.0128,-0.0248 0,-0.008 0.011,-0.0259 0.0236,-0.0402 0.013,-0.0143 0.0313,-0.0403 0.0406,-0.0579 0.0204,-0.0382 0.0659,-0.0816 0.10798,-0.10293 0.0514,-0.026 0.24924,-0.0142 0.32986,0.02 0.01,0.004 0.0365,0.01 0.0601,0.0128 0.0236,0.003 0.0615,0.0115 0.0841,0.0189 0.0443,0.0143 0.11861,0.011 0.13946,-0.007 0.01,-0.008 0.0686,-0.008 0.16265,-2e-4 0.004,2.9e-4 0.0356,-0.002 0.0685,-0.005 0.0455,-0.004 0.0606,-0.01 0.0627,-0.0207 0.002,-0.0114 -0.008,-0.0152 -0.0514,-0.0199 -0.0298,-0.003 -0.066,-0.0112 -0.0805,-0.0177 -0.031,-0.0141 -0.0504,-0.0495 -0.0388,-0.0711 0.0156,-0.0289 0.0766,-0.0689 0.12662,-0.0829 0.0209,-0.005 0.0458,-0.052 0.0458,-0.0846 0,-0.0119 0.005,-0.0325 0.0123,-0.0459 0.007,-0.0134 0.0228,-0.0466 0.0358,-0.0739 0.0406,-0.0856 0.14042,-0.17126 0.25031,-0.21486 0.0289,-0.0114 0.0644,-0.0145 0.16738,-0.0144 0.12269,1.3e-4 0.13283,0.001 0.16506,0.0208 0.0189,0.0113 0.0514,0.0297 0.0722,0.0406 0.0417,0.0221 0.13348,0.12273 0.15186,0.16673 0.007,0.0154 0.0153,0.0302 0.0197,0.033 0.004,0.002 0.011,0.0203 0.0137,0.0392 0.005,0.0311 0.009,0.0343 0.0313,0.0343 0.0413,0 0.11307,0.0262 0.13391,0.0487 0.0238,0.0259 0.0244,0.0456 0.002,0.0738 -0.01,0.012 -0.0171,0.0259 -0.0171,0.0309 0,0.009 -0.0738,0.0347 -0.13508,0.048 -0.017,0.003 -0.0353,0.0165 -0.0472,0.0333 -0.0174,0.0243 -0.0192,0.0359 -0.0174,0.1072 0.002,0.0812 -0.005,0.11316 -0.0279,0.11316 -0.007,0 -0.0169,0.009 -0.0225,0.0191 -0.005,0.011 -0.0145,0.0239 -0.0197,0.0298 -0.0248,0.028 -0.0309,0.0369 -0.0309,0.0452 0,0.004 -0.0115,0.0192 -0.0258,0.0318 -0.0142,0.0126 -0.0258,0.0316 -0.0258,0.0423 0,0.011 -0.0113,0.0288 -0.026,0.0412 -0.0253,0.0212 -0.0294,0.0219 -0.13449,0.02 -0.0777,-10e-4 -0.10941,-0.004 -0.11196,-0.0126 -0.003,-0.0113 -0.045,-0.0153 -0.045,-0.004 7e-5,0.01 0.0331,0.0617 0.0544,0.0847 0.0298,0.0321 0.0791,0.13083 0.0915,0.18309 0.007,0.0257 0.0115,0.0682 0.012,0.0945 0.001,0.0414 -0.003,0.0534 -0.0291,0.0906 -0.0165,0.0236 -0.0323,0.0448 -0.0352,0.0472 -0.009,0.008 -0.0321,0.0794 -0.0379,0.11587 -0.003,0.0189 -0.0168,0.067 -0.0307,0.10699 -0.0145,0.042 -0.0251,0.0904 -0.0251,0.11473 0,0.0424 -0.0242,0.12593 -0.0364,0.12593 -0.003,0 -0.007,0.004 -0.007,0.011 0,0.007 -0.008,0.0176 -0.0171,0.0257 -0.024,0.0205 -0.022,0.0287 0.0175,0.0675 0.019,0.0188 0.0426,0.0513 0.0524,0.0723 l 0.0179,0.0381 h 0.0703 c 0.0419,0 0.0744,-0.004 0.0803,-0.01 0.012,-0.012 0.11505,-0.025 0.22095,-0.0279 0.10501,-0.002 0.21007,-0.0129 0.23605,-0.0225 0.0118,-0.004 0.0582,-0.0122 0.10303,-0.0175 0.14261,-0.0166 0.30994,-0.034 0.42035,-0.0439 0.0951,-0.009 0.10874,-0.0118 0.12247,-0.0292 0.0111,-0.0141 0.0281,-0.0212 0.0603,-0.0252 0.0488,-0.007 0.082,0.002 0.10776,0.0286 0.01,0.01 0.0332,0.0179 0.0618,0.0207 0.0521,0.005 0.0684,0.0203 0.0684,0.064 0,0.0498 -0.0254,0.0656 -0.12017,0.0748 -0.0321,0.003 -0.05,0.009 -0.0558,0.0193 -0.0293,0.0502 -0.0551,0.0601 -0.17784,0.0672 -0.0881,0.005 -0.14337,0.0133 -0.29426,0.0428 -0.0614,0.0121 -0.13283,0.0243 -0.1588,0.0272 -0.0621,0.007 -0.0945,0.0257 -0.0945,0.0547 0,0.0398 -0.0194,0.0556 -0.068,0.0556 -0.0374,0 -0.0467,-0.003 -0.0646,-0.0244 -0.0115,-0.0134 -0.0224,-0.0287 -0.0242,-0.0341 -0.002,-0.007 -0.0185,-0.005 -0.0542,0.004 -0.028,0.008 -0.0605,0.0156 -0.0723,0.0168 -0.0138,0.001 -0.0223,0.009 -0.024,0.0195 -0.009,0.0577 -0.015,0.0634 -0.10973,0.0994 -0.024,0.009 -0.0546,0.0281 -0.0681,0.0423 -0.0232,0.0242 -0.0286,0.0257 -0.0907,0.0257 -0.042,0 -0.0751,-0.004 -0.0907,-0.0128 -0.0135,-0.007 -0.0331,-0.0128 -0.0435,-0.0128 -0.01,-3e-5 -0.022,-0.004 -0.0258,-0.011 -0.009,-0.014 -0.0367,-0.0292 -0.0807,-0.0444 -0.0424,-0.0146 -0.074,-0.004 -0.0817,0.0266 -0.008,0.0288 0.0248,0.0912 0.0663,0.12931 0.0564,0.0517 0.0737,0.0711 0.13221,0.14639 0.106,0.13654 0.21035,0.31015 0.21035,0.34984 0,0.01 0.007,0.0309 0.0137,0.046 0.008,0.0152 0.0116,0.036 0.009,0.0463 -0.002,0.01 -0.0128,0.0478 -0.0226,0.0832 -0.0116,0.0417 -0.0205,0.10962 -0.0253,0.19313 -0.009,0.14374 -0.0319,0.35329 -0.0414,0.36807 -0.005,0.009 -0.0188,0.0591 -0.0366,0.14266 -0.004,0.0212 -0.0116,0.0695 -0.0158,0.10731 -0.004,0.0378 -0.012,0.0795 -0.0172,0.0928 -0.0177,0.0444 -0.0119,0.13759 0.0119,0.19125 0.0118,0.0267 0.0214,0.0568 0.0214,0.0669 0,0.021 0.0236,0.0484 0.0779,0.0906 0.021,0.0163 0.0537,0.0529 0.0729,0.0815 0.0192,0.0286 0.0443,0.0568 0.0558,0.0626 0.0114,0.005 0.0477,0.011 0.0804,0.011 0.10369,2.3e-4 0.13522,0.0225 0.15235,0.10775 0.009,0.0434 0.008,0.0501 -0.008,0.0711 -0.0253,0.0338 -0.089,0.048 -0.21281,0.0472 -0.11362,-5.1e-4 -0.24312,-0.0149 -0.25658,-0.0285 -0.004,-0.004 -0.0208,-0.009 -0.0356,-0.009 -0.0204,0 -0.0293,0.005 -0.0368,0.0216 -0.0137,0.0302 -0.044,0.0397 -0.1431,0.0446 -0.0776,0.004 -0.089,0.002 -0.11777,-0.0145 -0.0329,-0.0194 -0.0328,-0.0191 -0.0459,-0.11189 -0.005,-0.0377 -0.008,-0.13685 -0.004,-0.21459 0.003,-0.084 -0.009,-0.18977 -0.021,-0.19457 -0.01,-0.003 -0.0122,-0.0254 -0.0122,-0.0995 v -0.0948 l -0.0289,-0.0353 c -0.0159,-0.0193 -0.039,-0.0554 -0.0515,-0.08 -0.0216,-0.0428 -0.0226,-0.0507 -0.0226,-0.18135 0,-0.10127 0.003,-0.14445 0.0127,-0.167 0.007,-0.0167 0.0136,-0.051 0.0146,-0.0761 0.001,-0.0394 -0.002,-0.052 -0.0276,-0.0908 -0.0163,-0.0248 -0.0323,-0.045 -0.0357,-0.045 -0.0152,0 -0.05,-0.0434 -0.0756,-0.0942 -0.0154,-0.0305 -0.0459,-0.0734 -0.0677,-0.0951 -0.0219,-0.0217 -0.0493,-0.0522 -0.0612,-0.0674 -0.0355,-0.046 -0.0876,-0.10369 -0.0939,-0.10369 -0.0119,0 -0.0348,0.0669 -0.0348,0.10127 0,0.0195 -0.005,0.052 -0.012,0.0722 -0.007,0.0202 -0.0141,0.0672 -0.0166,0.10446 -0.002,0.0372 -0.009,0.0717 -0.0137,0.0768 -0.005,0.005 -0.009,0.0146 -0.009,0.0211 0,0.007 -0.005,0.0242 -0.0121,0.0391 -0.007,0.0148 -0.0145,0.0379 -0.0175,0.0512 -0.007,0.029 -0.10643,0.13014 -0.14508,0.14673 -0.0149,0.007 -0.0366,0.0209 -0.0482,0.032 -0.0232,0.0223 -0.0478,0.0386 -0.0712,0.0469 -0.009,0.003 -0.015,0.011 -0.015,0.0166 0,0.01 -0.0602,0.0641 -0.0714,0.0641 -0.002,0 -0.0227,0.0174 -0.0449,0.0387 -0.0222,0.0212 -0.0453,0.0386 -0.0512,0.0386 -0.005,0 -0.0131,0.005 -0.0158,0.0129 -0.002,0.007 -0.01,0.0128 -0.0161,0.0128 -0.007,0 -0.0239,0.0115 -0.0394,0.0258 -0.0155,0.0142 -0.0327,0.0258 -0.0383,0.0258 -0.005,0 -0.0244,0.0125 -0.0416,0.0279 -0.0656,0.0582 -0.0777,0.0677 -0.098,0.0769 -0.0115,0.006 -0.0209,0.0128 -0.0209,0.0167 0,0.004 -0.005,0.008 -0.012,0.008 -0.007,0 -0.0142,0.005 -0.0169,0.0128 -0.002,0.007 -0.01,0.0129 -0.017,0.0129 -0.007,0 -0.0169,0.005 -0.0227,0.0128 -0.005,0.007 -0.0195,0.0129 -0.0301,0.0129 -0.011,0 -0.0242,0.005 -0.03,0.0128 -0.005,0.007 -0.0209,0.0129 -0.0333,0.013 -0.016,3e-5 -0.0324,0.0114 -0.0569,0.0397 -0.0189,0.0217 -0.0469,0.0532 -0.0623,0.0697 -0.0154,0.0166 -0.0279,0.0335 -0.0279,0.0376 0,0.004 -0.005,0.008 -0.0129,0.008 -0.008,0 -0.0128,0.008 -0.0128,0.0204 0,0.0112 -0.005,0.0253 -0.0129,0.0311 -0.0146,0.0122 -0.018,0.0936 -0.004,0.11814 0.0244,0.0457 0.0436,0.0959 0.0436,0.11427 0,0.0249 0.0308,0.0601 0.0796,0.0909 0.0423,0.0267 0.0622,0.0487 0.0792,0.0873 0.0113,0.0256 0.0111,0.0334 -0.001,0.0711 -0.0198,0.0605 -0.0527,0.0724 -0.1276,0.0461 z m 0.23949,-2.98068 c 0.008,-0.0203 0.0268,-0.0529 0.0385,-0.0647 0.005,-0.005 0.01,-0.015 0.01,-0.0216 0,-0.007 -0.0213,0.01 -0.0472,0.0373 -0.026,0.0272 -0.0472,0.0528 -0.0472,0.0568 0,0.0141 0.041,0.008 0.0464,-0.008 z"
         id="path15-1-0" /></g></g></svg>
