<?xml version="1.0" encoding="UTF-8" standalone="no"?>
<!-- Created with Inkscape (http://www.inkscape.org/) -->

<svg
   width="12.844453mm"
   height="5.6025801mm"
   viewBox="0 0 12.844453 5.6025801"
   version="1.1"
   id="svg1"
   xml:space="preserve"
   sodipodi:docname="inkporter-svg-ybegu37d.svg"
   xmlns:inkscape="http://www.inkscape.org/namespaces/inkscape"
   xmlns:sodipodi="http://sodipodi.sourceforge.net/DTD/sodipodi-0.dtd"
   xmlns="http://www.w3.org/2000/svg"
   xmlns:svg="http://www.w3.org/2000/svg"><sodipodi:namedview
     id="namedview1"
     pagecolor="#ffffff"
     bordercolor="#666666"
     borderopacity="1.0"
     inkscape:showpageshadow="2"
     inkscape:pageopacity="0.0"
     inkscape:pagecheckerboard="0"
     inkscape:deskcolor="#d1d1d1"
     inkscape:document-units="mm"
     inkscape:zoom="3.2729938"
     inkscape:cx="539.71993"
     inkscape:cy="727.92682"
     inkscape:window-width="3840"
     inkscape:window-height="2066"
     inkscape:window-x="2869"
     inkscape:window-y="-11"
     inkscape:window-maximized="1"
     inkscape:current-layer="layer1" /><defs
     id="defs1" /><g
     inkscape:label="Layer 1"
     inkscape:groupmode="layer"
     id="layer1"
     transform="translate(-150.54791,-201.49135)"><g
       id="B-Infantry-MGs4"
       transform="translate(-368.10825,-356.50651)"><path
         d="m 523.27768,558.07496 c -0.0877,-0.006 -0.29832,0.0649 -0.36354,0.12201 -0.0346,0.0304 -0.0601,0.0327 -0.0862,0.008 -0.0492,-0.0466 -0.1322,0.0356 -0.16956,0.16788 -0.0251,0.0886 -0.0181,0.1053 0.0655,0.15572 0.0983,0.0593 0.11405,0.11411 0.0491,0.17095 -0.0295,0.0258 -0.0291,0.0477 0.002,0.0902 0,0 0.0348,0.0663 0.034,0.17253 -0.031,0.0433 0.0692,0.1083 0.15128,0.0981 0.0689,-0.008 0.0793,0.002 0.0746,0.0728 -0.004,0.0503 0.0199,0.10095 0.0591,0.12919 0.0594,0.0427 0.0614,0.0617 0.0258,0.23909 -0.0213,0.10593 -0.0445,0.26708 -0.0517,0.35813 -0.0109,0.13581 -0.0229,0.16485 -0.0682,0.16185 -0.0304,-0.002 -0.0545,-0.0148 -0.0536,-0.0288 0.004,-0.0593 -0.27505,-0.28439 -0.36989,-0.29846 -0.11051,-0.0168 -0.52228,-0.30711 -0.5467,-0.38596 -0.008,-0.0273 -0.0308,-0.0505 -0.0497,-0.0517 -0.019,-9.4e-4 -0.0265,0.0125 -0.017,0.0306 0.01,0.018 0.009,0.0323 -9.4e-4,0.0316 -0.0101,-6.7e-4 -0.0294,-0.0369 -0.0428,-0.0807 -0.0209,-0.0681 -0.0413,-0.0791 -0.14343,-0.0767 -0.15418,0.004 -0.16827,0.0475 -0.0563,0.17524 0.0499,0.057 0.0901,0.11513 0.0892,0.12912 -9.3e-4,0.014 0.0226,0.0356 0.0523,0.048 0.0684,0.0285 0.37877,0.23172 0.41612,0.27243 0.0175,0.0192 0.0139,0.0295 -0.009,0.028 -0.0772,-0.005 -0.0654,0.32881 0.0211,0.5948 0.045,0.13851 0.08,0.28354 0.0777,0.32231 -0.002,0.0387 0.005,0.0656 0.0165,0.0597 0.0112,-0.006 0.0561,0.0863 0.0996,0.20521 0.0537,0.14664 0.12086,0.257 0.20921,0.3435 0.15663,0.15335 0.26777,0.17065 0.41282,0.064 0.0563,-0.0414 0.10194,-0.0673 0.1013,-0.0576 -6.4e-4,0.01 -0.0427,0.0948 -0.0937,0.18911 -0.0509,0.0942 -0.0911,0.20251 -0.0894,0.24061 9.4e-4,0.0381 -0.0103,0.1122 -0.026,0.16477 -0.016,0.0525 -0.0173,0.13298 -0.004,0.17874 0.014,0.0457 0.0159,0.0915 0.005,0.10173 -0.0116,0.0101 -0.0273,0.0498 -0.0348,0.0881 -0.008,0.0383 -0.0228,0.1064 -0.0341,0.15137 -0.0147,0.059 -2.2e-4,0.10348 0.0523,0.15947 0.0833,0.0893 0.0859,0.14425 0.0135,0.28874 -0.0768,0.15348 -0.2225,0.26108 -0.36169,0.26716 -0.12304,0.005 -0.25013,0.0797 -0.25471,0.14906 -0.002,0.0213 0.0491,0.0646 0.11249,0.0959 0.14083,0.0696 0.28681,0.0838 0.45855,0.0446 0.10197,-0.0234 0.13238,-0.0214 0.14038,0.009 0.0119,0.0453 0.25023,0.068 0.31928,0.0306 0.0355,-0.0194 0.0432,-0.0642 0.0337,-0.19535 -0.026,-0.35613 -0.0114,-0.57092 0.0418,-0.61786 0.028,-0.0245 0.0491,-0.0751 0.0469,-0.11227 -0.002,-0.0372 0.008,-0.0845 0.023,-0.10546 0.015,-0.0208 0.0264,-0.12882 0.0255,-0.24002 -0.002,-0.18929 0.003,-0.20402 0.0759,-0.23154 0.0427,-0.016 0.0893,-0.0655 0.10356,-0.10962 l 0.0258,-0.0803 0.0634,0.10888 c 0.0349,0.0599 0.083,0.18487 0.10697,0.27774 0.024,0.0928 0.0761,0.19814 0.11605,0.23403 0.0428,0.0385 0.0703,0.0982 0.0672,0.14555 -0.005,0.0695 0.01,0.0826 0.10917,0.0977 0.1338,0.0204 0.1816,0.0889 0.14385,0.20596 -0.0274,0.0853 -0.039,0.0922 -0.19308,0.11538 -0.16664,0.0251 -0.1601,0.26201 0.008,0.27637 0.0332,0.002 0.11361,-0.002 0.17857,-0.009 0.089,-0.0109 0.13001,-9.4e-4 0.16597,0.0399 0.0281,0.0321 0.0997,0.058 0.17372,0.0629 l 0.12585,0.008 -0.0126,-0.15083 c -0.007,-0.083 -0.0263,-0.19474 -0.0431,-0.24843 -0.0169,-0.0538 -0.0253,-0.13297 -0.0187,-0.1761 0.007,-0.0431 -0.007,-0.10215 -0.0287,-0.13115 -0.0224,-0.0288 -0.0428,-0.0948 -0.0455,-0.14623 -0.002,-0.0515 -0.0376,-0.15421 -0.0778,-0.22839 -0.0403,-0.0742 -0.10833,-0.22817 -0.1513,-0.34216 -0.0429,-0.11398 -0.0991,-0.2269 -0.1246,-0.25088 -0.0356,-0.0335 -0.0389,-0.0707 -0.014,-0.15937 0.0178,-0.0637 0.06,-0.25396 0.0937,-0.42285 0.0531,-0.26578 0.073,-0.31568 0.14769,-0.37056 0.0475,-0.0349 0.0887,-0.0704 0.0914,-0.079 0.004,-0.008 0.0247,-0.0522 0.0489,-0.0969 0.0355,-0.0659 0.0362,-0.0996 0.003,-0.17731 -0.0355,-0.0845 -0.0342,-0.099 0.008,-0.12241 0.0421,-0.0227 0.0435,-0.0367 0.0103,-0.0991 -0.0217,-0.0405 -0.0708,-0.0747 -0.111,-0.0774 -0.0478,-0.003 -0.0804,-0.032 -0.0968,-0.0857 -0.0136,-0.0445 -0.0389,-0.0818 -0.056,-0.0829 -0.0173,-9.5e-4 -0.0219,-0.0226 -0.0102,-0.0479 0.0122,-0.0262 -1.1e-4,-0.0556 -0.0279,-0.0685 -0.027,-0.0124 -0.0403,-0.0352 -0.0294,-0.0504 0.0109,-0.0152 -0.0324,-0.11803 -0.096,-0.22851 -0.0636,-0.11043 -0.1148,-0.21455 -0.11369,-0.23133 9.4e-4,-0.0168 -0.0461,-0.0978 -0.10483,-0.18001 -0.1075,-0.15045 -0.34526,-0.31893 -0.46088,-0.32658 -0.10218,-0.007 -0.10035,-0.0609 0.002,-0.0744 0.0919,-0.0123 0.133,-0.0826 0.0732,-0.12526 -0.0156,-0.0109 -0.017,-0.0691 -0.003,-0.12885 0.0217,-0.0941 0.0167,-0.10923 -0.0386,-0.11288 -0.0398,-0.003 -0.0609,-0.0236 -0.0559,-0.0557 0.008,-0.0595 -0.22293,-0.21629 -0.33054,-0.22341 z m -0.80676,2.001 c 0.003,2.2e-4 0.005,3.1e-4 0.008,5e-4 0.0257,0.006 0.0572,0.0293 0.0931,0.0745 0.0291,0.0368 0.0916,0.0695 0.13898,0.0726 0.058,0.004 0.0899,0.0256 0.0978,0.0664 l 0.0285,0.14606 c 0.0103,0.004 0.0196,0.008 0.0295,0.0181 0.0257,0.0243 0.0453,0.0643 0.0437,0.0891 -0.002,0.0247 0.015,0.0421 0.0371,0.0389 0.0439,-0.007 0.22037,0.14742 0.2334,0.18454 l 0.0325,0.0925 c 0.006,0.0168 0.0197,0.0252 0.004,0.0557 -0.015,0.0294 -0.0592,0.12998 -0.0982,0.22325 -0.039,0.0933 -0.10412,0.19208 -0.14468,0.21952 -0.0406,0.0275 -0.0829,0.0496 -0.0939,0.0492 -0.0409,-0.003 -0.19278,-0.25846 -0.19252,-0.25708 l 9.5e-4,6e-5 c 6e-5,4e-5 -0.0493,-0.10448 -0.075,-0.18025 -0.13398,-0.34179 -0.1131,-0.34779 -0.1131,-0.34779 l -0.0556,-0.18609 c -0.0656,-0.21947 -0.045,-0.3663 0.0267,-0.36051 z"
         style="fill:#000000;stroke-width:0.0316219"
         id="path6329-3-7-1-5" /><path
         style="fill:#000000;stroke-width:0.0200503"
         d="m 529.04947,563.43799 c 0,-0.003 -0.009,-0.006 -0.0209,-0.006 -0.0115,0 -0.0224,-0.002 -0.0242,-0.006 -0.002,-0.003 -0.0121,-0.006 -0.0229,-0.006 -0.0136,0 -0.024,-0.004 -0.0339,-0.0133 -0.008,-0.007 -0.0163,-0.0133 -0.0189,-0.0133 -0.007,0 -0.0383,-0.0293 -0.0383,-0.0356 0,-0.003 -0.004,-0.008 -0.008,-0.0121 -0.004,-0.004 -0.008,-0.0135 -0.008,-0.0219 0,-0.008 -0.002,-0.0152 -0.006,-0.0152 -0.003,0 -0.006,-0.0236 -0.006,-0.0599 0,-0.0407 -0.002,-0.0621 -0.007,-0.0665 -0.006,-0.006 -0.005,-0.008 10e-4,-0.0114 0.006,-0.004 0.007,-0.006 10e-4,-0.0114 -0.004,-0.004 -0.007,-0.0157 -0.007,-0.0267 0,-0.0111 -0.002,-0.0202 -0.006,-0.0202 -0.003,0 -0.007,-0.009 -0.009,-0.021 -0.002,-0.0116 -0.008,-0.025 -0.0133,-0.03 -0.006,-0.005 -0.01,-0.0122 -0.01,-0.0162 0,-0.004 -0.002,-0.007 -0.005,-0.007 -0.002,0 -0.006,-0.007 -0.008,-0.0159 -0.002,-0.009 -0.006,-0.0159 -0.0101,-0.0159 -0.0152,0 -0.0252,-0.0208 -0.0252,-0.0528 0,-0.0173 -0.002,-0.0328 -0.005,-0.0345 -0.002,-0.002 -0.006,-0.0167 -0.008,-0.0335 -0.002,-0.0167 -0.006,-0.0345 -0.008,-0.0396 -0.007,-0.0122 -0.007,-0.0677 2e-4,-0.0677 0.003,0 0.006,-0.006 0.006,-0.0133 0,-0.013 -6.1e-4,-0.0133 -0.0421,-0.0133 -0.0232,0 -0.0436,0.002 -0.0454,0.006 -0.002,0.003 -0.0135,0.006 -0.0259,0.006 -0.0219,0 -0.023,6.1e-4 -0.0342,0.0256 -0.0128,0.0283 -0.0157,0.073 -0.005,0.0766 0.009,0.003 0.009,0.11111 -2.1e-4,0.11415 -0.004,10e-4 -0.006,0.0151 -0.006,0.0385 0,0.02 -0.002,0.0379 -0.006,0.0396 -0.003,0.002 -0.006,0.0274 -0.006,0.0583 0,0.0316 -0.002,0.0565 -0.006,0.0584 -0.003,0.002 -0.004,0.005 -0.003,0.007 10e-4,0.002 2.2e-4,0.0299 -0.002,0.062 -0.006,0.0787 -0.0172,0.10288 -0.0487,0.10325 -0.008,8e-5 -0.0157,0.002 -0.0175,0.006 -0.002,0.003 -0.0158,0.006 -0.0311,0.006 -0.0153,0 -0.0301,0.002 -0.0329,0.005 -0.003,0.003 -0.0325,0.007 -0.066,0.0103 -0.0335,0.003 -0.0729,0.008 -0.0874,0.0106 -0.0146,0.003 -0.0349,0.007 -0.0451,0.009 -0.0102,0.002 -0.0261,0.007 -0.0353,0.0108 -0.009,0.004 -0.02,0.008 -0.0242,0.008 -0.004,0 -0.01,0.002 -0.0129,0.006 -0.003,0.003 -0.0399,0.006 -0.0885,0.006 -0.0815,6.1e-4 -0.0834,4.3e-4 -0.10428,-0.0134 -0.0117,-0.008 -0.0231,-0.0141 -0.0253,-0.0141 -0.002,-4e-5 -0.0172,-0.0122 -0.0331,-0.0271 -0.016,-0.0149 -0.0345,-0.0291 -0.0411,-0.0316 -0.007,-0.002 -0.0121,-0.009 -0.0122,-0.014 -4e-5,-0.005 -0.005,-0.0154 -0.0105,-0.0227 -0.006,-0.007 -0.0104,-0.0152 -0.0105,-0.0177 -5e-5,-0.002 -0.007,-0.0112 -0.0152,-0.0195 -0.008,-0.008 -0.0232,-0.0277 -0.0331,-0.0432 -0.0178,-0.0277 -0.018,-0.0287 -0.0167,-0.0826 6.2e-4,-0.0339 -6.1e-4,-0.0546 -0.004,-0.0546 -0.003,0 -0.006,-0.004 -0.006,-0.008 0,-0.004 -0.008,-0.021 -0.0186,-0.0369 -0.0102,-0.016 -0.0185,-0.0357 -0.0184,-0.0439 1.9e-4,-0.0148 0.0104,-0.0334 0.0184,-0.0334 0.008,0 0.0398,-0.0366 0.0401,-0.0462 2e-4,-0.006 0.001,-0.0143 0.002,-0.0202 10e-4,-0.006 0.002,-0.0312 0.004,-0.0565 l 10e-4,-0.0459 -0.0245,-0.0238 c -0.0255,-0.0248 -0.0418,-0.0514 -0.0418,-0.0683 0,-0.006 -0.002,-0.01 -0.006,-0.01 -0.003,0 -0.006,-0.006 -0.006,-0.0124 0,-0.007 -0.004,-0.02 -0.008,-0.0294 -0.006,-0.0113 -0.008,-0.027 -0.007,-0.0472 l 0.002,-0.0303 -0.0371,-0.002 c -0.0406,-0.003 -0.0438,-0.004 -0.073,-0.0312 -0.0212,-0.0195 -0.0358,-0.0438 -0.0358,-0.0595 0,-0.005 -0.002,-0.0109 -0.006,-0.0128 -0.007,-0.004 -0.007,-0.0806 0,-0.0849 0.003,-0.002 0.006,-0.0146 0.006,-0.0284 0,-0.0138 0.002,-0.0274 0.005,-0.0302 0.002,-0.003 0.006,-0.0146 0.008,-0.0262 0.004,-0.0293 0.0146,-0.0774 0.0199,-0.0902 0.002,-0.006 0.006,-0.0237 0.007,-0.0398 10e-4,-0.016 0.005,-0.0459 0.008,-0.0663 0.003,-0.0204 0.007,-0.0572 0.0105,-0.0817 0.003,-0.0245 0.008,-0.0471 0.0111,-0.0502 0.003,-0.003 0.006,-0.009 0.006,-0.0133 0,-0.004 0.008,-0.0158 0.0186,-0.0257 0.0221,-0.0215 0.0229,-0.0292 0.006,-0.0482 -0.007,-0.008 -0.0133,-0.0161 -0.0133,-0.0182 0,-0.002 -0.008,-0.017 -0.0186,-0.0329 -0.0102,-0.0159 -0.0186,-0.0326 -0.0186,-0.0369 0,-0.004 -0.002,-0.009 -0.005,-0.0108 -0.002,-10e-4 -0.006,-0.009 -0.008,-0.0175 -10e-4,-0.008 -0.007,-0.0302 -0.0117,-0.0491 -0.007,-0.0288 -0.009,-0.0693 -0.0104,-0.24403 l -10e-4,-0.20955 -0.0185,-0.0345 c -0.0101,-0.0189 -0.0235,-0.0435 -0.0298,-0.0545 -0.006,-0.011 -0.0113,-0.0246 -0.0113,-0.0302 0,-0.006 -0.002,-0.0116 -0.006,-0.0134 -0.007,-0.004 -0.007,-0.0276 0,-0.0318 0.003,-0.002 0.006,-0.0115 0.006,-0.0216 0,-0.01 0.002,-0.0183 0.005,-0.0183 0.002,0 0.006,-0.007 0.007,-0.0146 0.006,-0.0272 0.0144,-0.06 0.0197,-0.0705 0.003,-0.006 0.008,-0.0152 0.0106,-0.021 0.003,-0.006 0.006,-0.0164 0.006,-0.0235 0,-0.007 0.002,-0.0145 0.006,-0.0163 0.003,-0.002 0.006,-0.009 0.006,-0.0154 0,-0.007 0.006,-0.0234 0.0133,-0.0371 0.007,-0.0137 0.0133,-0.0284 0.0133,-0.0326 0,-0.004 0.002,-0.008 0.004,-0.008 0.002,0 0.007,-0.007 0.0113,-0.0163 0.004,-0.009 0.0129,-0.022 0.0198,-0.029 0.007,-0.007 0.0127,-0.014 0.0127,-0.0157 0,-0.002 0.007,-0.011 0.016,-0.0207 0.0194,-0.0214 0.0674,-0.0457 0.0899,-0.0457 0.016,0 0.036,-0.0113 0.0635,-0.0358 0.007,-0.007 0.0164,-0.0119 0.0201,-0.0119 0.004,0 0.007,-0.002 0.007,-0.005 0,-0.003 0.006,-0.007 0.0133,-0.009 0.007,-0.002 0.0133,-0.006 0.0133,-0.008 0,-0.002 0.004,-0.005 0.0101,-0.005 0.006,0 0.0109,-0.002 0.0119,-0.004 10e-4,-0.002 0.0153,-0.0109 0.0319,-0.0192 0.0165,-0.008 0.0398,-0.025 0.0516,-0.037 0.0366,-0.0374 0.0589,-0.0635 0.0591,-0.0693 2.1e-4,-0.009 0.0168,-0.0261 0.0317,-0.0334 0.007,-0.004 0.0275,-0.007 0.0451,-0.008 l 0.0318,-10e-4 0.004,-0.0212 c 0.002,-0.0117 0.006,-0.0308 0.008,-0.0424 0.002,-0.0117 0.007,-0.027 0.0111,-0.034 0.0143,-0.0264 0.0712,-0.0694 0.0917,-0.0694 0.007,0 0.0148,-0.002 0.0176,-0.005 0.003,-0.002 0.0504,-0.006 0.10584,-0.008 0.0554,-0.001 0.11451,-0.006 0.13128,-0.009 l 0.0305,-0.006 -0.0135,-0.0125 c -0.007,-0.007 -0.0155,-0.0125 -0.0179,-0.0125 -0.002,0 -0.0109,-0.008 -0.0189,-0.0181 -0.008,-0.01 -0.0237,-0.028 -0.0351,-0.0402 -0.0224,-0.024 -0.0238,-0.0315 -0.0208,-0.10557 10e-4,-0.0401 0.009,-0.0602 0.0402,-0.10666 0.0363,-0.0545 0.15059,-0.16445 0.17081,-0.16445 0.004,0 0.007,-0.002 0.007,-0.006 0,-0.003 0.004,-0.006 0.008,-0.006 0.004,0 0.008,-0.002 0.008,-0.006 0,-0.003 0.005,-0.006 0.0106,-0.006 0.006,0 0.0106,-0.002 0.0106,-0.004 0,-0.006 0.0376,-0.0222 0.0492,-0.0222 0.005,0 0.01,-0.002 0.0118,-0.006 0.002,-0.003 0.0137,-0.006 0.0264,-0.006 0.0127,0 0.0239,-0.002 0.0249,-0.005 0.002,-0.007 0.0636,-0.0161 0.10881,-0.0162 0.0457,-3e-5 0.11908,0.009 0.12611,0.0163 0.003,0.002 0.0128,0.005 0.0222,0.005 0.009,0 0.0187,0.002 0.0205,0.006 0.002,0.003 0.008,0.006 0.0142,0.006 0.0274,0 0.10859,0.0749 0.13401,0.12364 0.009,0.0181 0.0197,0.0376 0.0229,0.0435 0.0136,0.0251 0.0298,0.0652 0.0343,0.0849 0.0107,0.0473 0.0107,0.0487 -0.002,0.0696 -0.0126,0.02 -0.013,0.0236 -0.0138,0.13383 -6.1e-4,0.12337 4.4e-4,0.13075 0.0318,0.17058 0.008,0.0102 0.0161,0.0281 0.018,0.0398 0.003,0.0187 10e-4,0.0236 -0.0137,0.0411 -0.0106,0.0123 -0.0217,0.0199 -0.0293,0.0199 -0.007,0 -0.0138,0.002 -0.0156,0.006 -0.002,0.003 -0.008,0.006 -0.0149,0.006 -0.0116,2e-4 -0.0355,0.0165 -0.0355,0.0242 0,0.002 -0.005,0.009 -0.0112,0.016 -0.0162,0.0172 -0.009,0.0233 0.0291,0.0233 0.0279,0 0.0351,0.002 0.0448,0.0123 0.006,0.007 0.0115,0.0145 0.0115,0.0173 0,0.0111 0.0229,0.0185 0.0547,0.0176 0.0182,-4.3e-4 0.0387,6.2e-4 0.0454,0.003 0.022,0.007 0.0478,0.0318 0.0636,0.0614 0.006,0.01 0.014,0.0203 0.0193,0.0234 0.0194,0.0111 0.0344,0.0262 0.0344,0.0347 0,0.005 0.002,0.0111 0.006,0.0142 0.007,0.007 -0.0144,0.0562 -0.0317,0.0746 -0.0139,0.0147 -0.0139,0.0254 -2e-4,0.0401 0.0162,0.0174 0.0263,0.0404 0.0263,0.0601 0,0.01 0.002,0.0189 0.006,0.0207 0.003,0.002 0.006,0.0115 0.006,0.0216 0,0.01 0.002,0.0182 0.006,0.0182 0.003,0 0.006,0.004 0.006,0.01 0,0.006 0.003,0.0124 0.006,0.0157 0.009,0.009 0.0202,0.0438 0.0202,0.0636 4e-5,0.01 0.002,0.0214 0.005,0.0265 0.0218,0.0403 0.0321,0.0722 0.0321,0.0988 0,0.0175 0.002,0.0308 0.007,0.0333 0.008,0.005 0.0423,0.002 0.0489,-0.004 0.003,-0.002 0.0177,-0.005 0.0331,-0.005 0.0155,0 0.0281,-0.002 0.0281,-0.006 0,-0.003 0.0186,-0.006 0.0451,-0.006 0.0265,0 0.0451,0.002 0.0451,0.006 0,0.003 0.004,0.006 0.008,0.006 0.009,0 0.04,0.0429 0.04,0.0549 0,0.004 0.002,0.009 0.004,0.01 0.007,0.003 0.0326,0.0516 0.0326,0.0627 0,0.006 0.002,0.0116 0.006,0.0134 0.003,0.002 0.006,0.008 0.006,0.0138 0,0.006 0.006,0.017 0.0133,0.0248 0.0247,0.0267 0.0142,0.0885 -0.0202,0.11849 -0.0157,0.0137 -0.0277,0.0172 -0.0833,0.0238 -0.0131,10e-4 -0.0314,0.006 -0.0406,0.0104 -0.009,0.004 -0.0194,0.008 -0.0226,0.008 -0.011,0 -0.006,0.009 0.0179,0.03 0.02,0.018 0.0296,0.0224 0.0622,0.0282 0.0211,0.004 0.0427,0.009 0.0477,0.0127 0.007,0.004 0.0141,0.004 0.027,-6.2e-4 0.0216,-0.008 0.0603,-0.008 0.0648,-10e-4 0.002,0.003 0.006,0.006 0.0103,0.006 0.004,0 0.0209,0.008 0.0379,0.0186 0.017,0.0102 0.0376,0.0186 0.0458,0.0186 0.008,0 0.0191,0.002 0.0242,0.005 0.005,0.002 0.0152,0.007 0.0225,0.0108 0.007,0.003 0.0209,0.0128 0.0302,0.021 0.009,0.008 0.0254,0.0206 0.0358,0.0277 0.0104,0.007 0.0189,0.0146 0.0189,0.0168 2e-5,0.002 0.008,0.004 0.0167,0.004 0.028,0 0.0594,0.0116 0.0775,0.0285 0.009,0.009 0.0172,0.0181 0.0172,0.0207 0,0.002 0.003,0.008 0.007,0.0114 0.004,0.004 0.0114,0.0133 0.0173,0.0214 0.006,0.008 0.0136,0.0179 0.0172,0.0217 0.004,0.004 0.007,0.009 0.007,0.0107 0,0.002 0.004,0.008 0.009,0.0123 0.0117,0.0108 0.0384,0.0516 0.0384,0.0589 0,0.003 0.002,0.006 0.004,0.006 0.006,4e-5 0.0225,0.0307 0.0225,0.04 0,0.0178 0.0385,0.0714 0.0513,0.0714 0.004,0 0.007,0.002 0.007,0.006 0,0.003 0.003,0.006 0.007,0.006 0.004,0 0.0357,0.0143 0.0703,0.0318 0.0347,0.0175 0.0658,0.0318 0.0692,0.0318 0.004,4e-5 0.007,0.002 0.008,0.004 0.004,0.008 0.0819,0.0437 0.099,0.0449 0.01,6.1e-4 0.0188,0.003 0.0202,0.006 10e-4,0.002 0.008,0.004 0.0151,0.004 0.0127,0 0.0464,0.0153 0.0496,0.0226 10e-4,0.002 0.005,0.004 0.009,0.004 0.004,0 0.007,0.002 0.007,0.006 0,0.003 0.003,0.006 0.007,0.006 0.004,2e-5 0.0154,0.008 0.0261,0.0185 0.0208,0.0197 0.043,0.0329 0.11849,0.0702 0.0263,0.013 0.0525,0.0262 0.0583,0.0293 0.006,0.003 0.0226,0.0119 0.0371,0.0193 0.0146,0.007 0.028,0.0156 0.0298,0.0181 0.004,0.006 0.0525,0.007 0.0569,4.4e-4 0.006,-0.007 0.0316,-0.018 0.0449,-0.018 0.0143,2e-5 0.0456,0.0181 0.058,0.0336 0.006,0.007 0.009,0.021 0.009,0.0383 8e-5,0.0224 0.002,0.0291 0.0147,0.0406 0.008,0.008 0.0229,0.0154 0.033,0.0176 0.0101,0.002 0.0221,0.006 0.0265,0.008 0.004,0.002 0.0261,0.009 0.0479,0.0155 0.0964,0.0275 0.11701,0.0514 0.0884,0.10259 -0.0403,0.0719 -0.0686,0.1065 -0.0927,0.11305 -0.0122,0.003 -0.0487,-0.012 -0.0487,-0.0204 0,-0.002 -0.002,-0.004 -0.006,-0.004 -0.003,0 -0.0115,-0.006 -0.0188,-0.0133 -0.007,-0.007 -0.0151,-0.0133 -0.0173,-0.0133 -0.002,0 -0.009,-0.004 -0.0143,-0.009 -0.006,-0.005 -0.0186,-0.0136 -0.0288,-0.0188 -0.0102,-0.005 -0.0258,-0.0138 -0.0345,-0.0194 -0.009,-0.006 -0.0211,-0.0102 -0.0275,-0.0104 -0.006,-2e-4 -0.0131,-0.003 -0.0149,-0.006 -0.002,-0.003 -0.008,-0.006 -0.0128,-0.006 -0.01,0 -0.0435,-0.0149 -0.0483,-0.0213 -0.001,-0.002 -0.0187,-0.0129 -0.0385,-0.0241 -0.0197,-0.0112 -0.0358,-0.0224 -0.0358,-0.0246 0,-0.002 -0.004,-0.004 -0.008,-0.004 -0.007,0 -0.0331,-0.0114 -0.0684,-0.0305 -0.006,-0.003 -0.025,-0.0123 -0.0424,-0.0203 -0.0175,-0.008 -0.033,-0.016 -0.0345,-0.0177 -0.005,-0.006 -0.0487,-0.0269 -0.0557,-0.0269 -0.004,0 -0.008,-0.002 -0.009,-0.004 -10e-4,-0.002 -0.0122,-0.008 -0.0249,-0.013 -0.0197,-0.008 -0.0242,-0.008 -0.0305,-10e-4 -0.004,0.004 -0.007,0.01 -0.007,0.0131 0,0.003 -0.002,0.006 -0.005,0.006 -0.002,0 -0.006,0.005 -0.008,0.0106 -0.002,0.006 -0.006,0.0106 -0.0103,0.0106 -0.004,0 -0.01,0.004 -0.0135,0.008 -0.004,0.004 -0.0144,0.008 -0.0241,0.008 -0.0167,0 -0.0508,-0.0141 -0.0546,-0.0226 -0.002,-0.006 -0.0262,-0.005 -0.0301,10e-4 -0.002,0.003 -0.0138,0.006 -0.0265,0.006 -0.0128,0 -0.0247,-0.002 -0.0266,-0.006 -0.002,-0.003 -0.009,-0.006 -0.0155,-0.006 -0.007,0 -0.0286,-0.008 -0.0485,-0.0186 -0.0199,-0.0102 -0.0404,-0.0186 -0.0455,-0.0186 -0.005,0 -0.0107,-0.002 -0.0125,-0.006 -0.002,-0.003 -0.008,-0.006 -0.0136,-0.006 -0.006,0 -0.0103,-0.002 -0.0103,-0.006 0,-0.003 -0.004,-0.006 -0.008,-0.006 -0.005,0 -0.016,-0.004 -0.0252,-0.009 -0.0307,-0.016 -0.0351,-0.0178 -0.0433,-0.0178 -0.004,0 -0.0122,-0.002 -0.0173,-0.005 -0.005,-0.002 -0.0187,-0.009 -0.0304,-0.0146 -0.0117,-0.006 -0.022,-0.0117 -0.023,-0.0138 -0.001,-0.002 -0.006,-0.004 -0.012,-0.004 -0.006,0 -0.0144,-0.002 -0.0194,-0.005 -0.005,-0.002 -0.0163,-0.008 -0.0251,-0.0114 -0.0379,-0.0159 -0.0486,-0.0204 -0.0637,-0.0264 -0.009,-0.004 -0.02,-0.009 -0.0251,-0.0112 -0.005,-0.002 -0.0129,-0.005 -0.0173,-0.005 -0.004,0 -0.0127,-0.003 -0.0183,-0.006 -0.008,-0.005 -0.0131,-0.005 -0.0242,10e-4 -0.008,0.004 -0.024,0.007 -0.0361,0.007 -0.0302,-10e-4 -0.0513,-0.0251 -0.0513,-0.0582 0,-0.0125 0.002,-0.0227 0.006,-0.0227 0.003,0 0.006,-0.007 0.006,-0.0156 0,-0.009 0.002,-0.0171 0.006,-0.0189 0.0112,-0.007 -4.4e-4,-0.0349 -0.0142,-0.0343 -0.007,2.2e-4 -0.0315,0.0385 -0.0395,0.0613 -0.01,0.0273 -0.0299,0.0499 -0.045,0.0499 -0.007,0 -0.0135,0.002 -0.0154,0.006 -0.002,0.003 -0.0182,0.006 -0.0364,0.006 -0.0182,0 -0.0353,0.002 -0.0382,0.005 -0.003,0.002 -0.0308,0.008 -0.0624,0.0117 -0.0662,0.008 -0.10458,0.003 -0.12915,-0.0174 -0.0212,-0.0174 -0.0846,-0.0803 -0.0872,-0.0866 -0.003,-0.007 -0.04,-0.0344 -0.047,-0.0344 -0.009,0 -0.006,0.0183 0.008,0.0446 0.007,0.0137 0.0133,0.0327 0.0133,0.0422 0,0.009 0.002,0.0195 0.005,0.0223 0.002,0.003 0.006,0.0241 0.008,0.0474 0.001,0.0234 0.004,0.0576 0.006,0.0762 0.002,0.0216 10e-4,0.0358 -0.002,0.0395 -0.003,0.003 -0.006,0.0218 -0.006,0.0414 0,0.0237 -0.002,0.0365 -0.007,0.038 -0.005,0.002 -0.005,0.004 -2.2e-4,0.009 0.007,0.008 -0.008,0.0559 -0.0273,0.0822 -0.006,0.009 -0.0146,0.0225 -0.0186,0.0305 -0.004,0.008 -0.009,0.0146 -0.0113,0.0146 -0.002,0 -0.0119,0.008 -0.0215,0.0186 -0.01,0.0102 -0.0218,0.0186 -0.0269,0.0186 -0.005,0 -0.009,0.002 -0.009,0.006 0,0.003 -0.004,0.006 -0.009,0.006 -0.005,0 -0.0139,0.006 -0.0202,0.0119 -0.0109,0.0113 -0.0229,0.0194 -0.0441,0.0298 -0.0294,0.0144 -0.0476,0.0252 -0.0567,0.0336 -0.006,0.006 -0.0134,0.01 -0.0172,0.01 -0.004,0 -0.007,0.002 -0.007,0.004 0,0.002 -0.0118,0.009 -0.0262,0.0143 -0.0158,0.006 -0.0284,0.015 -0.0318,0.0224 -0.003,0.007 -0.009,0.0188 -0.0123,0.0268 -0.004,0.008 -0.009,0.0175 -0.0119,0.021 -0.003,0.004 -0.008,0.01 -0.0119,0.0144 -0.009,0.0107 -0.008,0.0286 0.001,0.0383 0.004,0.004 0.008,0.016 0.008,0.0258 0,0.01 0.002,0.0194 0.006,0.0211 0.003,0.002 0.006,0.0103 0.006,0.0189 0,0.009 0.002,0.0156 0.004,0.0157 0.002,10e-6 0.007,0.006 0.01,0.0119 0.003,0.007 0.0122,0.0234 0.0199,0.0374 0.008,0.014 0.014,0.03 0.014,0.0355 0,0.006 0.002,0.0115 0.006,0.0133 0.003,0.002 0.006,0.007 0.006,0.0126 0,0.005 0.006,0.0217 0.0133,0.0368 0.007,0.0151 0.0133,0.0299 0.0133,0.0328 0,0.003 0.002,0.006 0.006,0.006 0.003,0 0.006,0.004 0.006,0.0101 0,0.006 0.002,0.0109 0.004,0.0119 0.007,0.003 0.0226,0.037 0.0226,0.05 0,0.0124 0.002,0.0173 0.0151,0.0432 0.004,0.007 0.006,0.02 0.006,0.0299 0,0.0112 0.003,0.0192 0.008,0.0211 0.0136,0.005 0.0101,0.0374 -0.006,0.049 -0.007,0.006 -0.0133,0.0144 -0.0133,0.0198 0,0.006 -0.005,0.0111 -0.0106,0.0126 -0.006,10e-4 -0.0106,0.005 -0.0106,0.007 0,0.002 -0.006,0.005 -0.0133,0.005 -0.007,0 -0.0133,0.002 -0.0133,0.004 0,0.006 -0.0376,0.0222 -0.0492,0.0222 -0.005,0 -0.01,0.002 -0.0118,0.006 -0.002,0.003 -0.0114,0.006 -0.0212,0.006 -0.01,0 -0.0194,0.002 -0.0212,0.006 -0.002,0.003 -0.0247,0.006 -0.0507,0.006 -0.0281,0 -0.0474,-0.002 -0.0474,-0.006 z m 1.18831,-1.51723 c 0,-0.003 -0.004,-0.006 -0.008,-0.006 -0.004,0 -0.008,0.002 -0.008,0.006 0,0.003 0.004,0.006 0.008,0.006 0.004,0 0.008,-0.002 0.008,-0.006 z m -0.0708,-0.0398 c -0.003,-0.007 -0.008,-0.0132 -0.0101,-0.0133 -0.002,-2e-5 -0.004,-0.004 -0.004,-0.008 0,-0.006 -0.006,-0.008 -0.0238,-0.008 -0.0132,0 -0.0238,-0.002 -0.0238,-0.006 0,-0.003 -0.007,-0.006 -0.0156,-0.006 -0.009,0 -0.0171,-0.002 -0.0189,-0.006 -0.002,-0.003 -0.009,-0.006 -0.0165,-0.006 -0.017,0 -0.0133,0.006 0.0121,0.0178 0.0112,0.006 0.0245,0.012 0.0296,0.0146 0.005,0.002 0.0129,0.005 0.0173,0.005 0.004,0 0.008,0.002 0.008,0.006 0,0.003 0.006,0.006 0.0119,0.006 0.007,8e-5 0.0165,0.004 0.0223,0.008 0.0149,0.0113 0.0187,0.01 0.0117,-0.006 z"
         id="path2-7" /><path
         d="m 525.36287,557.99802 c -0.003,4e-5 -0.006,0 -0.01,0 -0.0358,0.008 -0.0944,0.0574 -0.15151,0.13456 -0.0543,0.0733 -0.11745,0.13371 -0.1405,0.13407 -0.0231,0 -0.0419,0.0385 -0.0419,0.0846 0,0.0461 -0.0161,0.0838 -0.0359,0.0838 -0.0197,0 -0.031,0.0336 -0.0252,0.0748 0.007,0.0486 0.0459,0.0862 0.1113,0.10756 0.0553,0.0181 0.10508,0.0354 0.11059,0.0386 0.0321,0.0184 -0.0424,0.18002 -0.0887,0.19229 -0.0305,0.008 -0.014,0.0164 0.0368,0.0187 0.10449,0.004 0.11642,0.055 0.039,0.16543 -0.0292,0.0418 -0.091,0.19163 -0.13716,0.33299 -0.0462,0.1414 -0.10523,0.2874 -0.13121,0.32448 -0.0294,0.0421 -0.0472,0.15382 -0.0472,0.297 0,0.20089 0.0125,0.24702 0.0998,0.36964 0.13976,0.19634 0.21355,0.27813 0.26719,0.29601 0.0293,0.01 0.001,0.042 -0.0765,0.0879 -0.0687,0.0405 -0.12273,0.0988 -0.12263,0.13225 3.3e-4,0.11201 0.0709,0.31485 0.11543,0.33195 0.0245,0.009 0.0535,0.062 0.0644,0.11683 0.011,0.0549 0.067,0.14282 0.1246,0.19542 0.11243,0.10266 0.12127,0.15651 0.14234,0.86665 0.007,0.22773 0.0146,0.2511 0.11536,0.34529 0.0851,0.0795 0.1081,0.12811 0.1081,0.22842 0,0.15477 -0.12222,0.35077 -0.22824,0.36606 -0.0889,0.0128 -0.18962,0.15172 -0.16205,0.22359 0.0269,0.07 0.43158,0.0717 0.48934,0.003 0.0221,-0.0266 0.1032,-0.0531 0.18012,-0.0587 l 0.13985,-0.0102 -0.007,-0.1341 c -0.0133,-0.2556 -0.0389,-0.49326 -0.0586,-0.54464 -0.0109,-0.0282 0.005,-0.0792 0.0355,-0.11276 0.0335,-0.037 0.0477,-0.0901 0.036,-0.13466 -0.0106,-0.0405 -0.004,-0.10106 0.0135,-0.13468 0.0241,-0.045 0.0136,-0.0988 -0.0397,-0.20318 -0.0685,-0.13426 -0.0703,-0.15905 -0.0338,-0.45647 0.034,-0.27638 0.0876,-0.47018 0.12074,-0.43615 0.0219,0.0224 0.15802,0.41685 0.18901,0.5476 0.0553,0.23344 0.13445,0.41169 0.21724,0.48947 0.0441,0.0414 0.0802,0.0924 0.0802,0.1132 0,0.0207 0.0504,0.0929 0.1119,0.16007 0.0803,0.0877 0.13113,0.11709 0.18011,0.10431 0.0879,-0.023 0.14378,0.12493 0.14378,0.38046 0,0.23299 0.0419,0.31127 0.16636,0.31127 0.10421,0 0.2359,-0.13025 0.2359,-0.23329 0,-0.0312 -0.0528,-0.20632 -0.11733,-0.38924 -0.0645,-0.18292 -0.1177,-0.37793 -0.11811,-0.43329 -3.2e-4,-0.0554 -0.0302,-0.13841 -0.0663,-0.1845 -0.0361,-0.0461 -0.0659,-0.10313 -0.0663,-0.12676 -3.3e-4,-0.0237 -0.0238,-0.0518 -0.052,-0.0627 -0.033,-0.0128 -0.0439,-0.0429 -0.0308,-0.0844 0.0118,-0.0374 -0.005,-0.10293 -0.0399,-0.15524 -0.0332,-0.0498 -0.0561,-0.11075 -0.0509,-0.13544 0.005,-0.0246 -0.0151,-0.16047 -0.0453,-0.3017 -0.033,-0.15487 -0.0505,-0.36324 -0.0441,-0.52499 l 0.0107,-0.26815 0.0699,0.10881 c 0.0762,0.11855 0.11445,0.11181 0.11445,-0.0204 0,-0.0823 0.002,-0.0828 0.053,-0.0197 0.0396,0.0486 0.0487,0.0514 0.0362,0.0108 -0.0103,-0.0334 0.0187,-0.0806 0.0756,-0.12268 0.0848,-0.0627 0.0917,-0.0846 0.0838,-0.26412 -0.0107,-0.24279 -0.0178,-0.27958 -0.0539,-0.27958 -0.0526,0 0.0755,-0.16036 0.14201,-0.17776 0.0823,-0.0214 0.0884,-0.13093 0.007,-0.12084 -0.0323,0.004 -0.0872,-0.005 -0.12217,-0.02 -0.0448,-0.0194 -0.0762,-0.0102 -0.10659,0.0316 -0.0398,0.0545 -0.0508,0.0505 -0.14502,-0.0531 -0.0561,-0.0617 -0.12562,-0.18203 -0.15458,-0.26744 -0.029,-0.0854 -0.0822,-0.182 -0.11831,-0.21471 -0.0361,-0.0325 -0.0657,-0.0738 -0.0657,-0.0913 0,-0.0337 -0.13135,-0.14794 -0.24866,-0.21632 -0.0384,-0.0224 -0.13469,-0.0412 -0.21396,-0.0419 -0.14352,0 -0.3419,-0.0777 -0.3419,-0.13194 0,-0.0158 0.0453,-0.0376 0.10056,-0.0486 0.1043,-0.0211 0.14154,-0.12661 0.062,-0.17579 -0.027,-0.0168 -0.0211,-0.0366 0.0195,-0.0663 0.0521,-0.0381 0.0431,-0.0498 -0.0871,-0.11391 -0.0798,-0.0393 -0.19789,-0.10158 -0.26242,-0.13841 -0.0775,-0.0442 -0.15428,-0.0615 -0.22627,-0.0507 -0.0599,0.009 -0.10894,0.003 -0.10894,-0.0151 0,-0.0233 -0.009,-0.034 -0.0253,-0.0338 z m 0.0756,2.9661 c 10e-4,7e-5 0.002,0 0.003,0 0.0113,0.005 0.0139,0.041 0.0136,0.12082 -6.3e-4,0.21267 -0.0544,0.28118 -0.0745,0.095 -0.0104,-0.0961 -2e-4,-0.16342 0.0296,-0.19561 0.0127,-0.0138 0.022,-0.0214 0.0287,-0.021 z"
         style="fill:#000000;stroke-width:0.0335218"
         id="path6312-4-9-4" /><path
         style="fill:#000000;stroke-width:0.0324574"
         d="m 522.03788,563.50814 c 0.0208,-0.0229 0.0319,-0.059 0.0321,-0.10359 10e-5,-0.0221 0.003,-0.0545 0.007,-0.072 0.007,-0.0325 -0.002,-0.0903 -0.0275,-0.16997 -0.007,-0.0212 -0.0171,-0.0666 -0.0229,-0.10086 -0.006,-0.0343 -0.014,-0.0624 -0.0182,-0.0624 -0.005,0 -0.007,-0.006 -0.007,-0.0134 0,-0.007 -0.007,-0.0314 -0.0177,-0.0536 -0.009,-0.0222 -0.0236,-0.0538 -0.0304,-0.0703 -0.007,-0.0164 -0.0163,-0.0369 -0.021,-0.0452 -0.005,-0.008 -0.0109,-0.0542 -0.0131,-0.10169 -0.002,-0.0476 -0.009,-0.0996 -0.0169,-0.11545 -0.007,-0.0159 -0.0121,-0.0404 -0.0121,-0.0543 0,-0.0139 -0.0155,-0.055 -0.0344,-0.0911 -0.019,-0.0363 -0.0345,-0.07 -0.0345,-0.0745 0,-0.03 -0.11535,-0.25215 -0.17002,-0.32742 -0.0177,-0.0245 -0.0395,-0.056 -0.0484,-0.0703 -0.008,-0.0142 -0.0324,-0.0417 -0.0524,-0.0612 -0.0199,-0.0196 -0.0391,-0.0436 -0.0422,-0.0536 -0.003,-0.009 -0.009,-0.0181 -0.0137,-0.0181 -0.0122,0 -0.009,-0.0666 0.002,-0.0709 0.015,-0.005 0.0273,-0.1606 0.0374,-0.47233 l 0.006,-0.16961 0.0312,-2.6e-4 c 0.0171,-1.5e-4 0.0387,-0.006 0.0479,-0.0128 0.008,-0.007 0.0273,-0.0125 0.0406,-0.0125 0.0474,0 0.0738,-0.10639 0.0456,-0.18464 -0.0139,-0.0384 -0.0164,-0.073 -0.006,-0.073 0.005,0 0.0117,-0.009 0.0171,-0.0218 0.0142,-0.0312 -9.1e-4,-0.094 -0.0335,-0.13206 -0.0142,-0.0169 -0.0294,-0.0355 -0.034,-0.0413 -0.005,-0.006 -0.008,-0.0232 -0.008,-0.0386 -4e-5,-0.0155 -0.006,-0.0393 -0.0128,-0.0529 -0.007,-0.0135 -0.0128,-0.0343 -0.0128,-0.0459 0,-0.0272 -0.0222,-0.0754 -0.053,-0.11535 -0.0133,-0.0173 -0.0242,-0.0387 -0.0242,-0.0476 0,-0.008 -0.006,-0.0239 -0.0127,-0.0332 -0.007,-0.008 -0.0127,-0.0236 -0.0128,-0.0319 -1.7e-4,-0.008 -0.0121,-0.0276 -0.0263,-0.0431 -0.0364,-0.0387 -0.0949,-0.12313 -0.11798,-0.17065 -0.0188,-0.0384 -0.0663,-0.0932 -0.0809,-0.0932 -0.003,0 -0.007,-0.0135 -0.007,-0.0301 0,-0.028 9.1e-4,-0.03 0.0278,-0.0302 0.0211,-9e-5 0.0379,-0.009 0.0689,-0.0386 0.0225,-0.0212 0.0448,-0.0386 0.0493,-0.0386 0.005,0 0.008,-0.006 0.008,-0.012 0,-0.007 0.006,-0.0142 0.0128,-0.0169 0.009,-0.003 0.0128,-0.0219 0.0128,-0.0858 0,-0.064 0.002,-0.0819 0.0128,-0.0859 0.0163,-0.007 0.0165,-0.0317 2.6e-4,-0.0532 -0.007,-0.008 -0.0127,-0.0266 -0.0129,-0.0387 -1.6e-4,-0.0121 -0.006,-0.0294 -0.0128,-0.0387 -0.007,-0.008 -0.0127,-0.0347 -0.0128,-0.0568 -1.7e-4,-0.0221 -0.006,-0.0452 -0.0117,-0.0516 -0.007,-0.007 -0.0141,-0.0219 -0.0173,-0.0349 -0.003,-0.0129 -0.009,-0.0235 -0.0143,-0.0235 -0.005,0 -0.008,-0.007 -0.008,-0.0164 0,-0.008 -0.006,-0.0224 -0.0128,-0.0295 -0.007,-0.007 -0.0128,-0.0222 -0.0128,-0.0335 0,-0.0184 -0.049,-0.075 -0.0652,-0.075 -0.003,0 -0.0259,-0.0205 -0.0507,-0.0459 -0.0248,-0.0252 -0.0627,-0.0544 -0.084,-0.0647 -0.0214,-0.009 -0.048,-0.0263 -0.059,-0.0356 -0.0645,-0.0531 -0.0896,-0.0616 -0.18473,-0.0627 -0.0638,-5.3e-4 -0.0912,0.002 -0.11161,0.0134 -0.0394,0.021 -0.14428,0.0934 -0.14762,0.102 -0.005,0.009 -0.0421,0.008 -0.0487,-9.1e-4 -0.003,-0.005 -0.012,-0.008 -0.0199,-0.008 -0.007,-2e-5 -0.0244,-0.006 -0.0364,-0.0115 -0.0121,-0.007 -0.0424,-0.0139 -0.0675,-0.0168 -0.0631,-0.007 -0.0759,-0.0195 -0.0482,-0.0452 0.0382,-0.0353 0.0257,-0.0616 -0.0489,-0.10169 -0.0383,-0.0204 -0.0584,-0.0538 -0.0584,-0.0964 3e-5,-0.0339 -0.0171,-0.0955 -0.0414,-0.14896 -0.0272,-0.0599 -0.18145,-0.19753 -0.22142,-0.19753 -0.0109,0 -0.0217,-0.003 -0.0242,-0.007 -0.002,-0.005 -0.032,-0.0141 -0.0658,-0.0223 -0.0529,-0.0129 -0.0689,-0.0134 -0.11832,-0.005 -0.0637,0.012 -0.22391,0.084 -0.23192,0.10443 -9.1e-4,0.005 -0.0162,0.022 -0.0321,0.0394 -0.0161,0.0175 -0.0291,0.035 -0.0292,0.0391 -3e-5,0.005 -0.0117,0.0219 -0.0259,0.0399 -0.0142,0.0178 -0.0259,0.0402 -0.0259,0.0496 0,0.0226 -0.0471,0.0447 -0.0957,0.045 -0.0473,2.8e-4 -0.0759,0.0225 -0.0759,0.0589 0,0.0324 0.0226,0.0489 0.0919,0.0667 0.0579,0.0149 0.1055,0.044 0.1056,0.0646 4e-5,0.007 0.006,0.0202 0.0129,0.0272 0.0161,0.016 0.0175,0.10737 0.002,0.14845 -0.008,0.0227 -0.007,0.0327 0.002,0.0521 0.007,0.0131 0.0171,0.0271 0.0232,0.0308 0.006,0.003 0.0109,0.0197 0.0109,0.0355 0,0.0157 0.006,0.0334 0.0129,0.0392 0.007,0.006 0.0128,0.02 0.0128,0.0313 0,0.0114 0.006,0.023 0.0128,0.0257 0.007,0.002 0.0128,0.0128 0.0128,0.0224 0,0.009 0.0143,0.0314 0.0319,0.0485 l 0.0318,0.031 0.13996,9.1e-4 c 0.077,2.7e-4 0.14245,0.003 0.14548,0.007 0.003,0.003 0.007,0.0347 0.009,0.0707 0.002,0.0441 0.007,0.0666 0.0161,0.0699 0.007,0.003 0.0117,0.0195 0.0117,0.0496 0,0.0294 0.005,0.0489 0.0127,0.0559 0.009,0.008 0.0121,0.0299 0.009,0.11054 -9.1e-4,0.0551 -0.006,0.11162 -0.008,0.12578 -0.003,0.0163 5.4e-4,0.0419 0.0111,0.07 0.0218,0.0587 0.0124,0.0743 -0.0259,0.0431 -0.0664,-0.0542 -0.0944,-0.0692 -0.12453,-0.0673 -0.0293,0.002 -0.11628,-0.0323 -0.12733,-0.0501 -0.003,-0.005 -0.0119,-0.008 -0.0199,-0.008 -0.0127,-3e-5 -0.12056,-0.0513 -0.14334,-0.068 -0.005,-0.003 -0.0338,-0.0151 -0.0643,-0.0261 -0.0306,-0.0109 -0.0616,-0.0245 -0.0686,-0.0304 -0.007,-0.007 -0.0439,-0.0236 -0.0814,-0.0391 -0.0378,-0.0155 -0.0706,-0.0308 -0.073,-0.034 -0.005,-0.007 -0.0203,-0.0149 -0.1132,-0.0615 -0.0968,-0.0487 -0.17206,-0.082 -0.19831,-0.0881 -0.013,-0.003 -0.0306,-0.0124 -0.0387,-0.0212 -0.007,-0.008 -0.0258,-0.0278 -0.0392,-0.0428 -0.0304,-0.0338 -0.0577,-0.0407 -0.11299,-0.0291 -0.0239,0.006 -0.0618,0.007 -0.0844,0.005 -0.0463,-0.006 -0.07,0.008 -0.0772,0.047 -0.005,0.0236 0.008,0.0624 0.021,0.0624 0.003,0 0.0257,0.007 0.0482,0.0178 0.0314,0.0137 0.0478,0.0285 0.0696,0.063 0.0266,0.0421 0.057,0.0655 0.10222,0.0781 0.0109,0.003 0.0194,0.008 0.0194,0.0126 0,0.003 0.0135,0.009 0.03,0.0127 0.0165,0.003 0.0301,0.008 0.0301,0.0139 0,0.005 0.009,0.007 0.0223,0.007 0.014,0 0.0306,0.009 0.0448,0.0259 0.0124,0.0142 0.0286,0.026 0.0358,0.0261 0.007,1.6e-4 0.0207,0.006 0.0298,0.0128 0.008,0.007 0.0232,0.0125 0.0309,0.0125 0.007,0 0.0303,0.0116 0.0497,0.0258 0.0196,0.0142 0.0391,0.0259 0.0435,0.0259 0.0114,0 0.0639,0.0285 0.0714,0.0387 0.003,0.005 0.007,0.0283 0.007,0.0523 2e-4,0.0604 0.0171,0.0748 0.0865,0.0733 0.029,-5.4e-4 0.0596,-0.006 0.0685,-0.009 0.0122,-0.007 0.026,-0.003 0.0572,0.0134 0.0227,0.0121 0.0448,0.0257 0.0494,0.0301 0.005,0.005 0.0165,0.007 0.0266,0.007 0.009,0 0.0346,0.0116 0.0541,0.0259 0.0196,0.0142 0.0405,0.0258 0.0463,0.026 0.0197,2.6e-4 0.0487,0.0396 0.0597,0.0812 0.007,0.0225 0.016,0.0429 0.0218,0.0452 0.006,0.002 0.0109,0.008 0.0109,0.0144 0,0.0149 0.0542,0.0652 0.0703,0.0652 0.0197,0 0.0258,0.0229 0.0195,0.0731 -0.008,0.0745 0.007,0.11222 0.0746,0.17741 0.0575,0.0551 0.0622,0.0577 0.12148,0.0677 0.0383,0.007 0.10802,0.008 0.18351,0.007 0.11769,-0.005 0.12266,-0.003 0.14613,0.0157 0.0134,0.0109 0.032,0.0201 0.0415,0.0203 0.009,2.4e-4 0.0257,0.002 0.0359,0.006 0.0165,0.005 0.0176,0.007 0.009,0.0307 -0.005,0.0142 -0.0201,0.0372 -0.0337,0.051 -0.0141,0.0143 -0.0246,0.0346 -0.0246,0.047 0,0.012 -0.005,0.0271 -0.0109,0.0338 -0.006,0.007 -0.0163,0.0186 -0.0233,0.0266 -0.007,0.008 -0.0131,0.0371 -0.0144,0.0731 -9e-4,0.0478 -0.007,0.0637 -0.024,0.0874 -0.0122,0.0159 -0.0221,0.0344 -0.0222,0.0412 -3e-5,0.007 -0.006,0.0235 -0.0134,0.0375 -0.007,0.014 -0.0155,0.042 -0.0183,0.0626 -0.002,0.0204 -0.008,0.0391 -0.0124,0.0416 -0.026,0.0162 0.0117,0.0637 0.0741,0.0942 0.019,0.008 0.0373,0.0204 0.0407,0.0252 0.007,0.011 -9e-4,0.0603 -0.0161,0.0894 -0.007,0.0123 -0.0117,0.032 -0.0117,0.0442 -1e-5,0.0122 -0.005,0.0261 -0.008,0.0311 -0.006,0.006 -0.0124,0.03 -0.0167,0.0555 -0.005,0.0253 -0.0115,0.0636 -0.0163,0.0848 -0.0155,0.0685 -0.0117,0.17625 0.007,0.21187 0.008,0.0174 0.0199,0.0338 0.0236,0.0365 0.003,0.002 0.0144,0.0204 0.0237,0.0393 0.0205,0.0417 0.0741,0.11594 0.0835,0.11594 0.003,0 0.007,0.007 0.007,0.0151 0,0.008 0.0174,0.0344 0.0385,0.058 0.0212,0.0235 0.0386,0.0461 0.0387,0.0503 1.7e-4,0.009 0.0523,0.0765 0.0664,0.0854 0.007,0.003 0.0109,0.0117 0.0109,0.0175 0,0.006 0.0116,0.0233 0.0258,0.0387 0.0142,0.0155 0.0259,0.0318 0.0259,0.0363 0,0.005 0.006,0.007 0.0128,0.007 0.007,0 0.0128,0.006 0.0128,0.0128 0,0.007 0.006,0.0128 0.0128,0.0128 0.007,0 0.0129,0.005 0.0129,0.0109 1e-5,0.009 0.0156,0.0273 0.0644,0.0732 0.009,0.008 0.0277,0.0284 0.0409,0.0434 0.0129,0.0149 0.0294,0.0273 0.0365,0.0273 0.007,0 0.0128,0.006 0.0128,0.0128 0,0.007 0.003,0.0128 0.007,0.0128 0.005,0 0.0131,0.0109 0.0194,0.0235 0.007,0.0129 0.0188,0.0249 0.0277,0.0267 0.008,9.1e-4 0.0218,0.008 0.0285,0.0151 0.007,0.007 0.0296,0.012 0.0543,0.012 0.0385,0 0.0422,9.1e-4 0.0422,0.0198 0,0.0128 0.0135,0.0313 0.0386,0.0528 0.0379,0.0323 0.0387,0.034 0.0387,0.0847 0,0.0359 0.005,0.0566 0.014,0.0673 0.0129,0.0143 0.0128,0.0177 -5.3e-4,0.0459 -0.009,0.022 -0.0145,0.0537 -0.0146,0.11292 -1.4e-4,0.0667 -0.003,0.089 -0.0182,0.11694 -0.0182,0.035 -0.059,0.0794 -0.10812,0.11759 -0.0149,0.0116 -0.0271,0.0256 -0.0271,0.0311 0,0.006 -0.006,0.0149 -0.0128,0.0208 -0.0218,0.0181 -0.0164,0.0939 0.008,0.12238 0.0209,0.0236 0.0585,0.0319 0.0688,0.015 0.003,-0.005 0.0126,-0.008 0.0214,-0.008 0.008,0 0.0217,-0.006 0.0286,-0.0124 0.0218,-0.0218 0.0555,-0.0251 0.0811,-0.008 0.0412,0.0271 0.30047,0.0469 0.36975,0.0284 0.0547,-0.0147 0.20081,-0.0155 0.20558,-9.2e-4 0.002,0.007 0.0358,0.0109 0.12605,0.0109 0.10582,0 0.12432,-0.002 0.13608,-0.015 z m -0.5928,-0.24094 c 0.007,-0.007 0.0149,-0.0214 0.0177,-0.0296 0.003,-0.008 0.0129,-0.015 0.022,-0.015 0.0238,0 0.0142,0.029 -0.019,0.0569 -0.0279,0.0236 -0.0436,0.0143 -0.0206,-0.0123 z m -1.17003,-4.23536 c 0,-0.005 0.0151,-0.008 0.0339,-0.008 0.0186,0 0.0362,0.003 0.0391,0.008 0.003,0.006 -0.009,0.008 -0.0338,0.008 -0.0216,0 -0.0391,-0.003 -0.0391,-0.008 z"
         id="path16-1-1" /></g></g></svg>
