<?xml version="1.0" encoding="UTF-8" standalone="no"?>
<!-- Created with Inkscape (http://www.inkscape.org/) -->

<svg
   width="8.2150536mm"
   height="5.8667102mm"
   viewBox="0 0 8.2150536 5.8667102"
   version="1.1"
   id="svg1"
   xml:space="preserve"
   sodipodi:docname="inkporter-svg-94zmiw3s.svg"
   xmlns:inkscape="http://www.inkscape.org/namespaces/inkscape"
   xmlns:sodipodi="http://sodipodi.sourceforge.net/DTD/sodipodi-0.dtd"
   xmlns="http://www.w3.org/2000/svg"
   xmlns:svg="http://www.w3.org/2000/svg"><sodipodi:namedview
     id="namedview1"
     pagecolor="#ffffff"
     bordercolor="#666666"
     borderopacity="1.0"
     inkscape:showpageshadow="2"
     inkscape:pageopacity="0.0"
     inkscape:pagecheckerboard="0"
     inkscape:deskcolor="#d1d1d1"
     inkscape:document-units="mm"
     inkscape:zoom="0.81824846"
     inkscape:cx="391.69032"
     inkscape:cy="819.43326"
     inkscape:window-width="3840"
     inkscape:window-height="2066"
     inkscape:window-x="2869"
     inkscape:window-y="-11"
     inkscape:window-maximized="1"
     inkscape:current-layer="layer1" /><defs
     id="defs1" /><g
     inkscape:label="Layer 1"
     inkscape:groupmode="layer"
     id="layer1"
     transform="translate(58.472925,-185.4729)"><g
       id="B-InfantryHQ3a"
       transform="matrix(-1,0,0,1,419.0529,-411.16165)"><path
         style="fill:#000000;stroke-width:0.0336333"
         d="m 474.16428,602.4994 c -0.0356,-0.009 -0.08,-0.0299 -0.08,-0.0374 0,-0.003 -0.004,-0.007 -0.0114,-0.007 -0.0175,0 -0.063,-0.0276 -0.10931,-0.0668 -0.0584,-0.0492 -0.0627,-0.0537 -0.0947,-0.10074 -0.0156,-0.0229 -0.031,-0.0436 -0.0342,-0.046 -0.009,-0.007 -0.0318,-0.0545 -0.0439,-0.0935 -0.0183,-0.0588 -0.0524,-0.10237 -0.0801,-0.10237 -0.0274,0 -0.0802,-0.0238 -0.0802,-0.0362 0,-0.004 -0.006,-0.008 -0.0129,-0.008 -0.014,0 -0.0582,-0.0434 -0.0582,-0.0571 0,-0.004 -0.007,-0.0154 -0.0143,-0.024 -0.008,-0.009 -0.0173,-0.0299 -0.0212,-0.0471 -0.006,-0.026 -0.003,-0.0374 0.0149,-0.0655 0.012,-0.0187 0.0361,-0.0437 0.0534,-0.0555 0.0173,-0.0118 0.0524,-0.0497 0.0781,-0.0841 0.0737,-0.0987 0.0935,-0.11784 0.14034,-0.13477 0.009,-0.003 0.0156,-0.0145 0.0156,-0.0253 0,-0.0196 0.0332,-0.0583 0.0501,-0.0583 0.008,0 0.0672,-0.061 0.14151,-0.14496 0.0131,-0.0148 0.0219,-0.0358 0.0219,-0.052 0,-0.0436 0.051,-0.12336 0.0788,-0.12336 0.026,0 0.0935,-0.0389 0.12627,-0.0727 0.0182,-0.0188 0.0357,-0.0341 0.0388,-0.0341 0.003,0 0.0175,-0.0119 0.0319,-0.0268 0.0144,-0.0147 0.0299,-0.0268 0.0344,-0.0268 0.004,0 0.0102,-0.006 0.0134,-0.0134 0.002,-0.007 0.0129,-0.0134 0.0222,-0.0134 0.009,0 0.0194,-0.006 0.0222,-0.0134 0.002,-0.007 0.0114,-0.0133 0.0188,-0.0133 0.008,0 0.0137,-0.003 0.0137,-0.008 0,-0.004 0.007,-0.0103 0.0163,-0.0135 0.0147,-0.004 0.0158,-0.0142 0.0122,-0.10271 -0.003,-0.0782 -10e-4,-0.10363 0.0102,-0.12844 0.015,-0.0316 0.0118,-0.10306 -0.004,-0.10306 -0.004,0 -0.008,-0.003 -0.008,-0.008 0,-0.004 -0.0115,-0.0257 -0.0255,-0.0467 -0.014,-0.0211 -0.0282,-0.0533 -0.0315,-0.0716 -0.003,-0.0184 -0.009,-0.0334 -0.0123,-0.0334 -0.003,-5e-5 -0.0142,-0.0181 -0.0238,-0.04 -0.009,-0.022 -0.0208,-0.04 -0.025,-0.04 -0.003,0 -0.0116,-0.0119 -0.0167,-0.0268 -0.004,-0.0147 -0.0129,-0.0266 -0.0173,-0.0266 -0.004,0 -0.008,-0.003 -0.008,-0.009 0,-0.009 -0.032,-0.0446 -0.0404,-0.0446 -0.004,0 -0.0215,-0.0171 -0.0707,-0.073 -0.0147,-0.0166 -0.0337,-0.0329 -0.0422,-0.0362 -0.009,-0.003 -0.0156,-0.0103 -0.0156,-0.0152 0,-0.006 -0.0304,-0.009 -0.0783,-0.009 -0.0489,0 -0.0823,-0.003 -0.0889,-0.0102 -0.006,-0.006 -0.0103,-0.036 -0.0114,-0.069 -1.7e-4,-0.0336 -0.006,-0.0676 -0.013,-0.0805 -0.007,-0.0122 -0.0128,-0.032 -0.0129,-0.0439 -1.6e-4,-0.0118 -0.007,-0.0361 -0.0156,-0.0537 l -0.0154,-0.0321 -0.038,0.0398 c -0.0209,0.0218 -0.038,0.0429 -0.038,0.047 0,0.0139 -0.0418,0.007 -0.0565,-0.009 -0.0164,-0.0181 -0.0196,-0.0509 -0.006,-0.0593 0.004,-0.003 0.009,-0.0128 0.009,-0.0217 0,-0.0271 0.0421,-0.10966 0.0752,-0.14738 0.0252,-0.0286 0.0312,-0.0429 0.0314,-0.0737 9e-5,-0.0209 0.006,-0.0525 0.0136,-0.0701 0.007,-0.0175 0.0134,-0.0453 0.0134,-0.0617 0,-0.0196 0.0138,-0.0524 0.04,-0.0956 0.022,-0.0362 0.04,-0.0757 0.04,-0.0874 0,-0.0117 0.0119,-0.0345 0.0268,-0.0506 0.0147,-0.016 0.0268,-0.0363 0.0268,-0.0452 0,-0.0167 0.0402,-0.0769 0.0652,-0.0975 0.008,-0.007 0.0148,-0.0205 0.0148,-0.0307 0,-0.0204 0.0582,-0.14489 0.0716,-0.15318 0.004,-0.002 0.008,-0.0119 0.009,-0.0203 7e-5,-0.008 0.0177,-0.0333 0.0392,-0.0557 0.0215,-0.0223 0.0406,-0.0484 0.0421,-0.0578 0.002,-0.0152 -0.003,-0.0177 -0.0533,-0.0216 -0.0518,-0.004 -0.0605,-0.008 -0.10887,-0.0489 -0.0334,-0.0283 -0.0526,-0.0514 -0.0527,-0.0634 -10e-5,-0.0102 -0.006,-0.024 -0.0136,-0.03 -0.0223,-0.0186 -0.0172,-0.0968 0.009,-0.14771 0.0126,-0.0241 0.0302,-0.0516 0.0388,-0.0614 0.009,-0.0102 0.0182,-0.0393 0.0215,-0.0686 0.003,-0.028 0.009,-0.06 0.0138,-0.0712 0.004,-0.0114 0.0102,-0.0263 0.0135,-0.0338 0.002,-0.007 0.0122,-0.0242 0.0207,-0.0372 0.0858,-0.13238 0.16389,-0.21488 0.24023,-0.25351 0.0259,-0.0131 0.0515,-0.0292 0.0568,-0.0356 0.006,-0.007 0.0144,-0.0117 0.0198,-0.0118 0.006,-3e-5 0.0207,-0.006 0.0337,-0.0124 0.0129,-0.007 0.0451,-0.0153 0.0712,-0.0188 0.0261,-0.003 0.0516,-0.009 0.0565,-0.013 0.0165,-0.0123 0.23945,-0.0272 0.32044,-0.0214 0.0796,0.006 0.0802,0.006 0.0925,-0.0172 0.009,-0.0162 0.0103,-0.0328 0.004,-0.0568 -0.0159,-0.0734 -0.009,-0.16358 0.0181,-0.23854 0.0143,-0.0391 0.0349,-0.0857 0.0459,-0.10351 0.0294,-0.0476 0.10625,-0.11997 0.14864,-0.14012 0.0581,-0.0275 0.19802,-0.0722 0.22561,-0.072 0.0553,5.5e-4 0.22392,0.0483 0.24508,0.0694 0.006,0.006 0.0144,0.0103 0.0192,0.0103 0.004,0 0.0272,0.019 0.0497,0.0422 0.0836,0.0865 0.0928,0.0913 0.17837,0.0913 0.0793,0 0.0977,0.007 0.0977,0.0382 0,0.0362 -0.0993,0.10351 -0.1535,0.10397 l -0.0245,2e-4 v 0.0672 c 0,0.0723 0.0186,0.12763 0.0589,0.17593 0.0281,0.0336 0.0265,0.0599 -0.006,0.0914 -0.0146,0.0144 -0.0265,0.0352 -0.0267,0.0466 -1.4e-4,0.0114 -0.004,0.028 -0.009,0.0371 -0.004,0.009 -0.0102,0.0459 -0.0128,0.0818 -0.003,0.053 -0.008,0.0681 -0.0232,0.0809 -0.0102,0.009 -0.0242,0.0156 -0.0301,0.0156 -0.006,0 -0.0198,0.009 -0.0307,0.0213 -0.0114,0.0117 -0.0312,0.0235 -0.0451,0.0263 l -0.0251,0.004 0.0323,0.0347 c 0.0408,0.0435 0.0631,0.11261 0.0724,0.22428 0.003,0.0465 0.0116,0.0961 0.0171,0.11023 0.0204,0.0523 0.0291,0.11001 0.0283,0.18901 l -10e-4,0.0812 0.044,0.006 c 0.0243,0.003 0.0466,0.0102 0.0495,0.0145 0.008,0.0131 0.0605,0.0102 0.0913,-0.004 0.0202,-0.0102 0.0498,-0.013 0.11217,-0.0114 0.0587,10e-4 0.0883,-0.001 0.096,-0.009 0.006,-0.006 0.0217,-0.0114 0.0349,-0.0114 0.013,0 0.0409,-0.006 0.0616,-0.0133 0.0208,-0.007 0.0504,-0.0134 0.0656,-0.0135 0.0153,-3e-5 0.0418,-0.003 0.059,-0.009 0.0338,-0.009 0.0889,-0.0544 0.0889,-0.0728 0,-0.006 0.0166,-0.0282 0.037,-0.0489 0.0302,-0.0309 0.0351,-0.0402 0.0263,-0.0507 -0.0232,-0.028 0.0126,-0.0769 0.0565,-0.0769 0.007,0 0.0242,-0.0103 0.0387,-0.0222 0.0259,-0.0217 0.0299,-0.0222 0.16754,-0.022 0.13158,2.7e-4 0.14409,0.001 0.18559,0.0222 0.0707,0.0348 0.22172,0.0301 0.24624,-0.008 0.003,-0.004 0.0251,-0.009 0.0483,-0.0102 0.0398,-5.4e-4 0.0441,10e-4 0.0719,0.0379 0.0307,0.04 0.0364,0.0712 0.0208,0.11217 l -0.009,0.0227 h -0.16722 -0.16723 l -0.0205,0.0516 c -0.0134,0.0337 -0.0325,0.0618 -0.0555,0.0813 -0.0226,0.0193 -0.0351,0.0372 -0.0351,0.0512 0,0.0397 -0.0341,0.0897 -0.0867,0.12762 -0.0455,0.0327 -0.0557,0.0364 -0.0893,0.0328 -0.0314,-0.003 -0.0403,-10e-4 -0.0511,0.0146 -0.007,0.0102 -0.0131,0.0275 -0.0131,0.0383 0,0.0198 -0.0376,0.0565 -0.0579,0.0565 -0.006,0 -0.0161,0.006 -0.0221,0.0134 -0.006,0.007 -0.0205,0.0134 -0.0319,0.0134 -0.0251,0 -0.0354,0.0173 -0.0438,0.0731 -0.003,0.0231 -0.0118,0.0467 -0.0187,0.0523 -0.007,0.006 -0.0124,0.0148 -0.0124,0.0205 0,0.0218 -0.0666,0.0401 -0.13356,0.0365 -0.0416,-0.002 -0.0778,10e-4 -0.10135,0.009 -0.0255,0.009 -0.0782,0.0129 -0.17447,0.0129 -0.14462,2e-4 -0.19363,-0.007 -0.33402,-0.0505 -0.0589,-0.0181 -0.0755,-0.0203 -0.094,-0.0117 -0.0187,0.009 -0.0347,0.007 -0.0928,-0.0126 -0.0387,-0.0126 -0.075,-0.023 -0.0809,-0.023 -0.006,0 -0.0199,-0.0114 -0.0314,-0.0245 -0.0345,-0.0406 -0.0685,-0.0632 -0.0878,-0.0582 -0.0103,0.002 -0.0308,0.0212 -0.0465,0.0413 -0.0157,0.0203 -0.0328,0.0412 -0.0377,0.0468 -0.004,0.006 -0.02,0.0287 -0.0335,0.0516 -0.0158,0.0269 -0.034,0.0449 -0.0511,0.0509 -0.0147,0.004 -0.0266,0.0127 -0.0266,0.0166 0,0.003 -0.0114,0.0103 -0.0245,0.0128 -0.0306,0.007 -0.0824,0.0904 -0.082,0.13232 2.9e-4,0.0403 0.0161,0.0558 0.064,0.063 0.0231,0.003 0.0444,0.0103 0.0473,0.0147 0.002,0.004 0.0144,0.008 0.0256,0.008 0.0179,0 0.0295,0.007 0.0739,0.0443 0.006,0.004 0.0174,0.009 0.0256,0.009 0.0206,0 0.0737,0.0332 0.10761,0.0673 0.0302,0.0303 0.032,0.0597 0.004,0.0813 -0.0115,0.009 -0.008,0.0154 0.0231,0.0435 0.0393,0.0353 0.0689,0.0978 0.0598,0.1263 -0.007,0.0214 -0.0548,0.0731 -0.0681,0.0731 -0.006,0 -0.0155,0.006 -0.0227,0.0134 -0.007,0.007 -0.029,0.0134 -0.0479,0.0134 -0.0191,0 -0.0449,0.004 -0.0574,0.0102 -0.0175,0.008 -0.0254,0.008 -0.0333,0 -0.006,-0.006 -0.0194,-0.0102 -0.0304,-0.0102 -0.0114,0 -0.0224,-0.003 -0.0254,-0.009 -0.003,-0.004 -0.009,-0.009 -0.0139,-0.009 -0.0126,0 -0.0102,0.0425 0.003,0.0647 0.0146,0.0231 0.0263,0.11342 0.0166,0.12702 -0.0149,0.0207 -0.0523,0.0396 -0.0788,0.0396 -0.0155,0 -0.033,0.006 -0.0391,0.0133 -0.006,0.007 -0.0166,0.0134 -0.0234,0.0134 -0.0135,0 -0.0169,0.0316 -0.004,0.0393 0.004,0.002 0.0102,0.0459 0.0141,0.0963 0.003,0.0504 0.0114,0.0971 0.0167,0.10384 0.0143,0.0171 0.0139,0.17724 -2.7e-4,0.18604 -0.008,0.004 -0.0123,0.0962 -0.017,0.33373 -0.003,0.17993 -0.0102,0.32925 -0.0139,0.3318 -0.004,0.002 -0.008,0.0419 -0.008,0.0876 0,0.11409 -0.006,0.13549 -0.0473,0.17576 l -0.0356,0.0345 3e-4,0.0752 c 1.9e-4,0.0485 0.006,0.0856 0.014,0.10432 0.008,0.0159 0.0163,0.0434 0.0196,0.061 0.003,0.0175 0.0146,0.0425 0.0252,0.0554 0.0103,0.0128 0.051,0.0675 0.0898,0.12155 l 0.0707,0.0982 h 0.0393 c 0.0397,0 0.091,0.0185 0.11989,0.0429 0.0125,0.0103 0.0156,0.0276 0.0156,0.0865 0,0.0822 -10e-4,0.0837 -0.0667,0.10442 -0.0671,0.0211 -0.638,0.0214 -0.65547,2.9e-4 -0.008,-0.0103 -0.0124,-0.0527 -0.0139,-0.14863 -10e-4,-0.0739 -0.007,-0.15949 -0.0115,-0.19012 -0.007,-0.0383 -0.007,-0.0611 -2.4e-4,-0.0729 0.0117,-0.022 0.0119,-0.0806 2.8e-4,-0.0806 -0.004,0 -0.009,-0.004 -0.009,-0.0114 -2e-5,-0.006 -0.007,-0.0231 -0.0144,-0.0378 -0.009,-0.0169 -0.0153,-0.054 -0.0167,-0.10237 -0.002,-0.0831 -0.009,-0.10681 -0.0276,-0.10681 -0.0152,0 -0.0567,-0.0877 -0.0567,-0.11957 0,-0.0125 -0.003,-0.0227 -0.008,-0.0227 -0.004,0 -0.009,-0.0114 -0.0114,-0.0245 -0.002,-0.0205 -0.007,-0.024 -0.025,-0.0213 -0.0122,10e-4 -0.0368,0.0147 -0.0546,0.029 -0.0215,0.0171 -0.0428,0.0257 -0.063,0.0257 -0.0167,0 -0.0381,0.006 -0.0477,0.013 -0.009,0.007 -0.0282,0.0132 -0.0417,0.0134 -0.0135,1.7e-4 -0.0245,0.003 -0.0245,0.009 0,0.004 -0.007,0.0102 -0.0158,0.0134 -0.0163,0.004 -0.10874,0.0894 -0.10874,0.0991 0,0.008 -0.0386,0.0388 -0.0489,0.0392 -0.0125,2.9e-4 -0.0328,0.0348 -0.0265,0.045 0.006,0.009 -0.009,0.0417 -0.0287,0.0608 -0.0129,0.0128 -0.008,0.0582 0.008,0.0782 0.004,0.006 0.004,0.0306 7e-5,0.0617 -0.004,0.03 -0.004,0.063 -2.8e-4,0.0788 0.004,0.0149 0.008,0.0489 0.008,0.0753 0,0.0452 0.002,0.0504 0.0385,0.0846 0.037,0.0351 0.0951,0.13832 0.0951,0.16911 0,0.0243 -0.033,0.0817 -0.0552,0.0957 -0.0299,0.0192 -0.0446,0.0225 -0.0694,0.0162 z"
         id="path14-1-3" /><path
         style="fill:#000000;stroke-width:0.0306803"
         d="m 472.89134,602.49543 c -0.002,-0.004 -0.0154,-0.008 -0.0279,-0.008 -0.0126,0 -0.0274,-0.005 -0.033,-0.0122 -0.007,-0.008 -0.0257,-0.0122 -0.0608,-0.0122 -0.0342,0 -0.054,-0.004 -0.0605,-0.0117 -0.0105,-0.0126 -0.008,-0.15685 0.003,-0.188 0.004,-0.0129 6e-4,-0.0221 -0.0169,-0.0379 -0.0722,-0.0658 -0.0839,-0.0776 -0.0839,-0.0849 0,-0.004 -0.0109,-0.0231 -0.0244,-0.0416 -0.0134,-0.0185 -0.0244,-0.0372 -0.0244,-0.0414 0,-0.0139 -0.0408,-0.0854 -0.0545,-0.0959 -0.007,-0.005 -0.0265,-0.0105 -0.0423,-0.0105 -0.0222,-1e-5 -0.0374,-0.007 -0.0655,-0.0325 -0.0201,-0.0179 -0.0403,-0.0326 -0.0447,-0.0326 -0.0123,-1.3e-4 -0.0285,-0.0403 -0.0285,-0.0705 0,-0.0147 0.004,-0.0268 0.008,-0.0268 0.004,0 0.008,-0.009 0.008,-0.0206 0,-0.0273 0.021,-0.0763 0.0425,-0.0991 0.0238,-0.0253 0.0403,-0.0707 0.0448,-0.12337 0.003,-0.0375 0.0172,-0.0739 0.0346,-0.0897 0.0148,-0.0136 0.0325,-0.0513 0.0325,-0.0695 0,-0.0117 0.006,-0.0313 0.0131,-0.0435 0.0121,-0.0204 0.0121,-0.0242 0,-0.0475 -0.0105,-0.0194 -0.0131,-0.0496 -0.0131,-0.13026 0,-0.0943 0.002,-0.10958 0.0203,-0.15081 0.0195,-0.0441 0.0203,-0.0522 0.0203,-0.21565 0,-0.10445 -0.003,-0.17169 -0.008,-0.17477 -0.004,-0.003 -0.008,-0.0482 -0.008,-0.10844 0,-0.0695 -0.003,-0.10661 -0.009,-0.11313 -0.005,-0.005 -0.0123,-0.0289 -0.0154,-0.0524 -0.0106,-0.0788 -0.0307,-0.17368 -0.0443,-0.20977 -0.007,-0.0198 -0.0153,-0.0513 -0.0174,-0.0703 -0.005,-0.0471 -0.0257,-0.0463 -0.0454,10e-4 -0.008,0.0198 -0.0236,0.0455 -0.0345,0.0572 -0.0108,0.0117 -0.0198,0.0244 -0.0198,0.0283 0,0.004 -0.003,0.008 -0.006,0.009 -0.004,10e-4 -0.0147,0.0164 -0.025,0.0331 -0.0105,0.0167 -0.0218,0.0305 -0.0261,0.0305 -0.004,0 -0.007,0.005 -0.007,0.0122 0,0.007 -0.004,0.0122 -0.008,0.0122 -0.004,0 -0.0105,0.0105 -0.0129,0.0223 -0.006,0.0271 -0.0296,0.0782 -0.038,0.0819 -0.003,10e-4 -0.006,0.007 -0.006,0.0132 0,0.005 -0.005,0.0151 -0.0122,0.0206 -0.007,0.005 -0.0122,0.0161 -0.0123,0.0233 -6e-5,0.0143 -0.0551,0.071 -0.0912,0.0942 -0.0218,0.0139 -0.0223,0.0163 -0.0223,0.0903 0,0.10267 1.5e-4,0.10257 -0.14919,0.0954 -0.1375,-0.006 -0.1353,-0.004 -0.13406,-0.11621 7.9e-4,-0.0803 0.009,-0.19557 0.0223,-0.30057 0.004,-0.0334 0.0121,-0.12845 0.0178,-0.21104 0.007,-0.10131 0.0139,-0.15435 0.0212,-0.163 0.0146,-0.0171 0.0139,-0.0625 -0.002,-0.0777 -0.007,-0.007 -0.0122,-0.0226 -0.0122,-0.0353 0,-0.0127 0.005,-0.0287 0.0122,-0.0353 0.007,-0.007 0.0122,-0.0248 0.0122,-0.0403 0,-0.0153 -0.005,-0.0325 -0.0122,-0.038 -0.007,-0.006 -0.0122,-0.0244 -0.0122,-0.0493 0,-0.0285 -0.005,-0.0475 -0.0203,-0.0691 -0.0229,-0.0337 -0.0241,-0.0416 -0.0109,-0.0739 0.0118,-0.0288 0.0225,-0.0931 0.0297,-0.17873 0.003,-0.0366 0.0105,-0.0711 0.0158,-0.0767 0.005,-0.005 0.0105,-0.0197 0.0105,-0.0313 0,-0.0117 0.004,-0.025 0.008,-0.0297 0.004,-0.004 0.0117,-0.0789 0.0158,-0.17819 0.004,-0.0932 0.009,-0.19945 0.0128,-0.23603 l 0.005,-0.0665 -0.0409,-0.039 c -0.0226,-0.0214 -0.0472,-0.0516 -0.055,-0.067 -0.0182,-0.0363 -0.0185,-0.11836 -7.6e-4,-0.15274 0.007,-0.0141 0.0132,-0.0306 0.0132,-0.0368 0,-0.0166 0.0243,-0.0625 0.0331,-0.0625 0.004,0 0.007,-0.0105 0.007,-0.0233 0,-0.0129 0.004,-0.0275 0.011,-0.0326 0.006,-0.004 0.0154,-0.032 0.0209,-0.0599 0.005,-0.0278 0.015,-0.0626 0.0213,-0.0772 0.006,-0.0147 0.0117,-0.0334 0.0117,-0.0416 0,-0.008 0.005,-0.0195 0.0122,-0.0251 0.007,-0.005 0.0122,-0.0182 0.0122,-0.0282 0,-0.009 0.008,-0.0345 0.0193,-0.0545 0.0106,-0.0201 0.0219,-0.0479 0.025,-0.062 0.003,-0.0141 0.009,-0.0276 0.0131,-0.0303 0.004,-0.002 0.007,-0.0151 0.007,-0.0279 0,-0.0128 0.004,-0.0336 0.009,-0.0461 0.005,-0.0126 0.0123,-0.063 0.0154,-0.11213 0.003,-0.0491 0.0118,-0.12218 0.0193,-0.16235 0.007,-0.0403 0.0167,-0.11325 0.0203,-0.16235 0.004,-0.0491 0.0107,-0.12869 0.0159,-0.17683 0.008,-0.0757 0.007,-0.09 -0.003,-0.10532 -0.0222,-0.0316 -0.0157,-0.057 0.0233,-0.0902 0.029,-0.0247 0.0366,-0.0369 0.0401,-0.0645 0.0113,-0.0885 0.0172,-0.10635 0.0389,-0.11848 0.0309,-0.0173 0.0855,-4.7e-4 0.0973,0.0301 0.009,0.0241 0.003,0.0801 -0.0105,0.0964 -0.009,0.0117 -0.005,0.0698 0.008,0.12441 0.0105,0.0379 0.004,0.16235 -0.007,0.16235 -0.003,0 -0.0105,0.0521 -0.0156,0.11569 -0.005,0.0636 -0.0115,0.13484 -0.0141,0.15828 -0.004,0.039 -0.003,0.0427 0.0119,0.0427 0.009,0 0.0185,-0.003 0.0209,-0.007 0.004,-0.008 0.0758,-0.019 0.11835,-0.0183 0.15529,0.002 0.17573,-7.4e-4 0.22525,-0.0372 0.0196,-0.0144 0.0264,-0.0257 0.0264,-0.0436 0,-0.0132 0.005,-0.0373 0.0122,-0.0534 0.0276,-0.0662 0.015,-0.0836 -0.0608,-0.084 -0.0201,-8e-5 -0.047,-0.005 -0.0598,-0.0123 -0.0128,-0.006 -0.0282,-0.0121 -0.034,-0.0121 -0.006,0 -0.021,-0.009 -0.0334,-0.021 -0.0124,-0.0115 -0.0263,-0.0234 -0.0309,-0.0264 -0.004,-0.003 -0.0149,-0.0186 -0.0231,-0.0347 -0.0139,-0.0274 -0.014,-0.0312 -10e-4,-0.0609 0.015,-0.036 0.0546,-0.0804 0.0872,-0.0974 0.039,-0.0204 0.0551,-0.044 0.0551,-0.0813 0,-0.0189 0.004,-0.0393 0.0105,-0.0452 0.005,-0.006 0.0169,-0.0253 0.0248,-0.0432 0.0464,-0.10525 0.0923,-0.15439 0.19757,-0.21201 0.009,-0.005 0.0299,-0.0123 0.0447,-0.0154 0.0148,-0.003 0.0312,-0.009 0.0366,-0.0136 0.0128,-0.0105 0.15009,-0.004 0.20143,0.009 0.0223,0.005 0.0522,0.0191 0.0664,0.0295 0.0142,0.0105 0.0297,0.0189 0.0345,0.0189 0.0157,0 0.096,0.0876 0.11483,0.12537 0.0143,0.0287 0.0275,0.0415 0.0593,0.0573 0.0224,0.0111 0.0489,0.0203 0.0586,0.0203 0.0113,0 0.0317,0.0153 0.0552,0.0415 0.0309,0.0344 0.0373,0.0469 0.0373,0.0732 0,0.037 -0.0294,0.0887 -0.0627,0.11037 -0.0122,0.008 -0.0286,0.0207 -0.0364,0.0285 -0.007,0.007 -0.0243,0.0165 -0.0367,0.0195 -0.054,0.0132 -0.0828,0.0434 -0.0831,0.0871 -2.9e-4,0.0348 -0.022,0.13945 -0.0334,0.16137 -0.004,0.007 -0.007,0.0248 -0.007,0.038 0,0.0131 -0.005,0.0294 -0.0122,0.0361 -0.007,0.007 -0.0122,0.0144 -0.0122,0.0171 0,0.002 -0.0155,0.0194 -0.0345,0.037 -0.0294,0.0273 -0.0319,0.032 -0.0172,0.0322 0.009,6e-5 0.0219,0.005 0.0274,0.0123 0.005,0.007 0.0171,0.0122 0.0256,0.0122 0.0226,0 0.0531,0.0217 0.10831,0.077 0.0268,0.0269 0.0651,0.0559 0.0852,0.0647 0.0201,0.008 0.0502,0.0243 0.0668,0.0345 0.0166,0.0105 0.0336,0.0186 0.0377,0.0186 0.0115,0 0.0578,0.0558 0.0578,0.0697 0,0.007 0.009,0.0221 0.0203,0.0341 0.0111,0.012 0.0203,0.0302 0.0203,0.0403 0,0.0105 0.003,0.0184 0.007,0.0184 0.0147,0 0.047,0.16947 0.0549,0.28807 0.002,0.0401 0.009,0.0803 0.0151,0.0893 0.011,0.0175 0.0244,0.0684 0.021,0.0806 -7.8e-4,0.004 0.002,0.025 0.007,0.0463 0.007,0.0285 0.0197,0.0493 0.0482,0.0783 0.0242,0.0245 0.0412,0.0501 0.0448,0.0674 0.003,0.0153 0.0146,0.0455 0.0253,0.067 0.0107,0.0217 0.0194,0.0445 0.0194,0.0509 0,0.006 0.003,0.018 0.007,0.0256 0.004,0.007 0.0137,0.0415 0.0211,0.075 0.007,0.0334 0.0182,0.0719 0.0237,0.0852 0.0139,0.0331 0.0294,0.091 0.0345,0.12789 0.002,0.0167 0.007,0.0325 0.0115,0.035 0.004,0.002 0.007,0.0107 0.007,0.0182 3e-5,0.007 0.005,0.0242 0.0122,0.037 0.006,0.0128 0.0121,0.034 0.0121,0.047 0,0.013 0.005,0.0368 0.0122,0.0529 0.007,0.016 0.0122,0.0379 0.0122,0.0486 0,0.0107 0.007,0.042 0.0168,0.0695 0.009,0.0274 0.0159,0.063 0.0147,0.0789 -0.002,0.0273 0.0105,0.0842 0.025,0.11331 0.0299,0.0603 0.0328,0.0768 0.0328,0.18745 0,0.062 -0.003,0.11486 -0.007,0.11726 -0.004,0.002 -0.009,0.0153 -0.012,0.0287 -0.007,0.0387 -0.0434,0.0888 -0.0677,0.0948 -0.0328,0.008 -0.0514,-0.0194 -0.0515,-0.077 -1.5e-4,-0.0511 -0.002,-0.0563 -0.0344,-0.0766 -0.0123,-0.007 -0.0223,-0.0179 -0.0223,-0.0223 0,-0.004 -0.009,-0.0225 -0.0203,-0.0402 -0.0111,-0.0177 -0.0203,-0.0416 -0.0203,-0.0532 0,-0.0116 -0.005,-0.0266 -0.0122,-0.0332 -0.007,-0.007 -0.0122,-0.0208 -0.0122,-0.0314 0,-0.0106 -0.003,-0.0212 -0.007,-0.0238 -0.004,-0.002 -0.009,-0.0191 -0.0129,-0.0368 -0.004,-0.0279 -0.008,-0.0328 -0.0311,-0.0374 -0.0192,-0.004 -0.0323,-0.0153 -0.0521,-0.0458 -0.0145,-0.0223 -0.0264,-0.0436 -0.0264,-0.0473 0,-0.004 -0.0126,-0.0201 -0.0282,-0.0365 -0.0154,-0.0164 -0.0306,-0.0377 -0.0335,-0.0473 -0.003,-0.009 -0.0159,-0.0307 -0.0287,-0.047 -0.0128,-0.0163 -0.0232,-0.032 -0.0232,-0.0351 0,-0.003 -0.004,-0.0106 -0.0105,-0.0168 -0.005,-0.006 -0.0157,-0.0178 -0.0223,-0.0258 -0.011,-0.0129 -0.0126,-0.005 -0.0163,0.0742 -0.003,0.0605 -0.007,0.0895 -0.0142,0.0918 -0.0137,0.004 -0.0129,0.0602 0.002,0.15959 0.006,0.0443 0.0122,0.0977 0.0122,0.11871 0,0.021 0.005,0.0538 0.0122,0.0727 0.007,0.0218 0.0122,0.0642 0.0122,0.11478 v 0.0803 l -0.0264,0.0161 c -0.0145,0.008 -0.04,0.0161 -0.0568,0.0161 l -0.0305,3e-5 v 0.0559 c 0,0.0397 -0.003,0.0587 -0.0122,0.0659 -0.007,0.005 -0.0122,0.0222 -0.0122,0.0371 0,0.0148 -0.004,0.0292 -0.008,0.0319 -0.004,0.003 -0.008,0.0167 -0.008,0.0309 -7e-5,0.0142 -0.005,0.046 -0.0121,0.0705 -0.006,0.0246 -0.012,0.0647 -0.0122,0.0893 -9e-5,0.0246 -0.005,0.0552 -0.0123,0.0679 -0.006,0.0128 -0.0121,0.0315 -0.0121,0.0417 0,0.0105 -0.005,0.0289 -0.0121,0.0417 -0.007,0.0128 -0.0122,0.0291 -0.0122,0.0363 -4e-5,0.007 -0.009,0.0228 -0.0204,0.0349 -0.0111,0.012 -0.0203,0.0249 -0.0203,0.0285 0,0.004 -0.0109,0.0189 -0.0242,0.0341 -0.0133,0.0151 -0.0243,0.0337 -0.0244,0.0413 -6e-5,0.007 -0.004,0.016 -0.008,0.0188 -0.004,0.003 -0.008,0.0148 -0.008,0.0269 3e-5,0.0253 -0.0203,0.0921 -0.0388,0.12737 -0.007,0.0134 -0.0218,0.0427 -0.0328,0.0649 -0.011,0.0223 -0.0342,0.069 -0.0515,0.10383 -0.0172,0.0348 -0.0313,0.0683 -0.0313,0.0745 0,0.006 -0.005,0.0166 -0.0117,0.0229 -0.008,0.008 -0.0132,0.0396 -0.0166,0.10005 -0.009,0.17542 -0.008,0.2246 0.006,0.2548 0.009,0.0194 0.0145,0.0533 0.016,0.10673 l 0.002,0.0783 -0.0358,0.0318 -0.0358,0.0318 0.0105,0.0359 c 0.005,0.0198 0.0127,0.0583 0.0157,0.0856 0.003,0.0272 0.009,0.0548 0.015,0.0614 0.006,0.007 0.009,0.0361 0.008,0.0765 -7.8e-4,0.0496 0.001,0.0694 0.0125,0.0846 0.007,0.0109 0.0139,0.0309 0.014,0.0443 9e-5,0.0266 0.0173,0.0893 0.0328,0.11952 0.0128,0.025 0.0406,0.0467 0.0604,0.0472 0.0615,10e-4 0.10487,0.13337 0.0583,0.17708 -0.0178,0.0167 -0.0263,0.0177 -0.15781,0.0177 -0.084,0 -0.141,0.003 -0.14404,0.008 -0.002,0.004 -0.0138,0.008 -0.0244,0.008 -0.0106,0 -0.0216,-0.004 -0.0244,-0.008 z m -0.8077,-2.31145 c 0.0146,-0.0302 0.0345,-0.0658 0.0442,-0.0791 0.009,-0.0135 0.0239,-0.0378 0.0314,-0.0541 0.007,-0.0164 0.0165,-0.031 0.0198,-0.0325 0.003,-10e-4 0.0126,-0.0145 0.0207,-0.0291 l 0.0147,-0.0264 h -0.0203 c -0.0111,0 -0.0226,-0.004 -0.0253,-0.008 -0.002,-0.004 -0.0167,-0.008 -0.0309,-0.008 -0.0142,-3e-5 -0.0356,-0.005 -0.0475,-0.0113 -0.0363,-0.0189 -0.0393,-0.007 -0.0393,0.15504 0,0.0818 0.001,0.14855 0.003,0.14855 10e-4,0 0.0149,-0.0247 0.0295,-0.0548 z m 0.25977,-1.06292 c 0,-0.021 -4.4e-4,-0.0212 -0.012,-0.006 -0.0153,0.0203 -0.0153,0.0279 -2.9e-4,0.0279 0.007,0 0.0122,-0.007 0.0122,-0.0219 z m -0.11127,-0.0586 c 0.0277,-0.0129 0.0586,-0.0326 0.0689,-0.0434 l 0.0185,-0.0197 -0.0327,-0.0559 c -0.018,-0.0308 -0.0327,-0.0601 -0.0327,-0.0652 0,-0.004 -0.005,-0.0138 -0.0122,-0.0194 -0.007,-0.005 -0.0122,-0.017 -0.0122,-0.0253 0,-0.009 -0.005,-0.0152 -0.0147,-0.0152 -0.008,0 -0.0217,-0.005 -0.0305,-0.012 -0.008,-0.006 -0.0253,-0.012 -0.0369,-0.0122 -0.0208,-2.9e-4 -0.0212,7.5e-4 -0.0264,0.0741 -0.003,0.0409 -0.005,0.10662 -0.005,0.14611 v 0.0718 h 0.0328 c 0.0192,0 0.0537,-0.009 0.0832,-0.0236 z"
         id="path22-7-3" /><path
         d="m 470.90827,596.92382 c 0.2563,-0.006 0.34486,0.30059 0.41235,0.39431 0.0675,0.095 0.0469,0.095 0.0249,0.11575 -0.022,0.0193 -0.1478,0.077 -0.1478,0.077 0,0 -0.033,0.073 -0.0496,0.0951 -0.018,0.022 -0.0455,0.11732 -0.0455,0.11732 0,0 0.0471,0.0425 0.12557,0.0935 0.0772,0.0482 0.12261,0.16798 0.15711,0.20929 0.0344,0.04 0.14449,0.18917 0.2217,0.24288 0.079,0.051 0.0734,0.10853 0.0734,0.10853 0,0 0.0214,0.0281 0.0315,0.0331 0.0108,0.006 0.0264,0.18756 0.0264,0.18756 l 0.0164,0.0439 c 0,0 0.038,0.0307 0.0299,0.13126 -0.007,0.10059 -0.0747,0.24505 -0.0827,0.26715 -0.007,0.022 -0.0894,0.036 -0.11009,0.047 -0.0196,0.0124 -0.0164,0.0246 -0.0164,0.0728 0,0.0483 -0.0651,0.0718 -0.0651,0.0718 0,0 -0.0606,0.32489 -0.11988,0.5302 -0.0606,0.20535 -0.26046,0.36693 -0.26046,0.36693 l 0.0124,0.0754 c 0,0 0.007,0.1574 0.018,0.19741 0.01,0.0413 -0.0233,0.35933 -0.0233,0.44751 0,0.0868 -0.0225,0.13251 -0.0444,0.2 -0.0236,0.0675 -0.0354,0.20926 -0.0274,0.27956 0.007,0.0702 -0.19275,0.1478 -0.19275,0.1478 0,0 -0.0772,0.16928 -0.0853,0.19687 -0.007,0.0276 -0.0416,0.16264 -0.0346,0.19844 0.008,0.0345 0.008,0.0894 0.018,0.13901 0.01,0.051 0.0344,0.0636 0.062,0.10078 0.0276,0.0372 0.0455,0.13385 0.0455,0.13385 0,0 -0.0829,0.10094 -0.19999,0.0909 -0.11714,-0.01 -0.19857,-0.091 -0.23305,-0.15295 -0.0344,-0.062 -0.0177,-0.21498 -0.0177,-0.21498 l -0.0164,-0.0388 c 0,0 -0.018,-0.17481 -0.018,-0.18862 0,-0.0124 0.0543,-0.14018 0.0739,-0.17828 -0.004,0.003 -0.0375,0.0254 -0.11526,0.0915 -0.0827,0.0703 -0.062,0.0825 -0.062,0.13486 0,0.0524 -0.0185,0.26461 -0.0156,0.27699 0.003,0.0124 0.0581,0.15571 0.0651,0.1819 0.007,0.0276 0.0948,0.19037 0.0879,0.20825 -0.008,0.018 -0.0605,0.0349 -0.11007,0.0429 -0.0496,0.007 -0.19569,-0.008 -0.23979,-0.0249 -0.0455,-0.018 -0.14314,-0.0262 -0.16793,-0.0362 -0.0251,-0.01 0.005,-0.0577 0.008,-0.10181 0.003,-0.0455 1.3e-4,-0.21095 -0.0109,-0.24545 -0.009,-0.0344 -0.0151,-0.1764 -0.0151,-0.19431 0,-0.018 -0.005,-0.0577 -0.0103,-0.0853 -0.005,-0.0275 0.008,-0.14158 0.008,-0.14158 0,0 -0.003,-0.0156 -0.0331,-0.0403 -0.0303,-0.0249 -0.055,-0.0482 -0.062,-0.0703 -0.008,-0.0233 0.0243,-0.0994 0.0274,-0.16277 0.003,-0.062 0.003,-0.16918 0.0249,-0.19947 0.0217,-0.0303 0.007,-0.12031 -0.003,-0.1478 -0.01,-0.0276 -0.0981,-0.30422 -0.0951,-0.46405 0.003,-0.16121 -0.0373,-0.19606 -0.0594,-0.25117 -0.0236,-0.0551 -0.0481,-0.39688 -0.0481,-0.39688 l -0.0175,0.0842 c 0,0 -0.044,0.0565 -0.047,0.008 -0.003,-0.0482 0.01,-0.20259 0.01,-0.20259 0,0 -0.19701,-0.0803 -0.24392,-0.0982 -0.0483,-0.0164 -0.0302,-0.14431 -0.0151,-0.19119 0.0151,-0.0469 0.0768,-0.35274 0.0868,-0.39275 0.01,-0.0396 0.0696,-0.0486 0.0796,-0.0496 0.01,-0.003 0.10118,-0.0303 0.0982,-0.0455 -0.003,-0.0138 -0.0333,-0.1175 0.007,-0.17259 0.04,-0.0551 0.11316,-0.31678 0.11316,-0.31678 l -0.0455,-0.0884 0.0703,-0.46405 c 0,0 -0.0103,-0.20553 -0.0103,-0.29094 0,-0.0843 0.0951,-0.0925 0.0951,-0.0925 l 0.0372,-0.0589 h 0.15452 c 0.051,0 0.29072,-0.01 0.30591,-0.0124 0.0138,-0.003 0.0376,-0.0127 0.0346,-0.0403 -0.003,-0.0275 0.0427,-0.0851 0.0579,-0.10438 0.0151,-0.0206 0.10181,-0.25524 0.12663,-0.28834 0.0249,-0.0331 0.11282,-0.19291 0.37052,-0.1969 z m 0.48937,2.38384 c 0,0 -0.0494,-0.003 -0.0646,0.0124 -0.0148,0.0151 -0.013,0.0524 -0.018,0.0703 -0.004,0.0164 -0.1075,0.11316 -0.1075,0.11316 0,0 -0.0198,0.0773 -0.0249,0.10491 -0.004,0.0276 -0.0453,0.11819 -0.077,0.14161 -0.0336,0.022 -0.0279,0.10231 -0.0279,0.10231 0,0 -0.01,0.0606 0.018,0.0827 0.0262,0.0233 0.007,0.0977 0.007,0.0977 l 0.0754,-0.0579 c 0.0413,-0.0441 0.12951,-0.20659 0.1447,-0.27959 0.0151,-0.0716 0.0594,-0.3297 0.0594,-0.3297 z m -0.91779,1.13171 c -0.0278,0.0758 -0.0372,0.0975 -0.0249,0.22841 0.0124,0.12954 0.0305,0.2744 0.0305,0.2744 0,0 0.0429,-0.12277 0.0553,-0.17518 0.0124,-0.0524 -0.007,-0.21463 -0.0156,-0.24495 -0.007,-0.0303 -0.0455,-0.0827 -0.0455,-0.0827 z"
         style="fill:#000000;fill-opacity:1;fill-rule:nonzero;stroke:none;stroke-width:0.352777"
         id="path8610-7-7" /></g></g></svg>
