<?xml version="1.0" encoding="UTF-8" standalone="no"?>
<!-- Created with Inkscape (http://www.inkscape.org/) -->

<svg
   width="14.610836mm"
   height="6.0570416mm"
   viewBox="0 0 14.610836 6.0570416"
   version="1.1"
   id="svg1"
   xml:space="preserve"
   sodipodi:docname="inkporter-svg-ybegu37d.svg"
   xmlns:inkscape="http://www.inkscape.org/namespaces/inkscape"
   xmlns:sodipodi="http://sodipodi.sourceforge.net/DTD/sodipodi-0.dtd"
   xmlns="http://www.w3.org/2000/svg"
   xmlns:svg="http://www.w3.org/2000/svg"><sodipodi:namedview
     id="namedview1"
     pagecolor="#ffffff"
     bordercolor="#666666"
     borderopacity="1.0"
     inkscape:showpageshadow="2"
     inkscape:pageopacity="0.0"
     inkscape:pagecheckerboard="0"
     inkscape:deskcolor="#d1d1d1"
     inkscape:document-units="mm"
     inkscape:zoom="3.2729938"
     inkscape:cx="539.71993"
     inkscape:cy="727.92682"
     inkscape:window-width="3840"
     inkscape:window-height="2066"
     inkscape:window-x="2869"
     inkscape:window-y="-11"
     inkscape:window-maximized="1"
     inkscape:current-layer="layer1" /><defs
     id="defs1" /><g
     inkscape:label="Layer 1"
     inkscape:groupmode="layer"
     id="layer1"
     transform="translate(-164.34575,-194.20416)"><g
       id="B-Infantry-MGs5"
       transform="translate(-370.01548,-363.19183)"><path
         d="m 541.19387,557.85061 c -0.003,4e-5 -0.006,0 -0.01,0 -0.0358,0.008 -0.0944,0.0574 -0.15151,0.13456 -0.0543,0.0733 -0.11745,0.13371 -0.1405,0.13407 -0.0231,0 -0.0419,0.0385 -0.0419,0.0846 0,0.0461 -0.0161,0.0838 -0.0359,0.0838 -0.0197,0 -0.031,0.0336 -0.0252,0.0748 0.007,0.0486 0.0459,0.0862 0.1113,0.10756 0.0553,0.0181 0.10508,0.0354 0.11059,0.0386 0.0321,0.0184 -0.0424,0.18002 -0.0887,0.19229 -0.0305,0.008 -0.014,0.0164 0.0368,0.0187 0.10449,0.004 0.11642,0.055 0.039,0.16543 -0.0292,0.0418 -0.091,0.19163 -0.13716,0.33299 -0.0462,0.1414 -0.10523,0.2874 -0.13121,0.32448 -0.0294,0.0421 -0.0472,0.15382 -0.0472,0.297 0,0.20089 0.0125,0.24702 0.0998,0.36964 0.13976,0.19634 0.21355,0.27813 0.26719,0.29601 0.0293,0.01 10e-4,0.042 -0.0765,0.0879 -0.0687,0.0405 -0.12273,0.0988 -0.12263,0.13225 3.3e-4,0.11201 0.0709,0.31485 0.11543,0.33195 0.0245,0.009 0.0535,0.062 0.0644,0.11683 0.011,0.0549 0.067,0.14282 0.1246,0.19542 0.11243,0.10266 0.12127,0.15651 0.14234,0.86665 0.007,0.22773 0.0146,0.2511 0.11536,0.34529 0.0851,0.0795 0.1081,0.12811 0.1081,0.22842 0,0.15477 -0.12222,0.35077 -0.22824,0.36606 -0.0889,0.0128 -0.18962,0.15172 -0.16205,0.22359 0.0269,0.07 0.43158,0.0717 0.48934,0.003 0.0221,-0.0266 0.1032,-0.0531 0.18012,-0.0587 l 0.13985,-0.0102 -0.007,-0.1341 c -0.0133,-0.2556 -0.0389,-0.49326 -0.0586,-0.54464 -0.0109,-0.0282 0.005,-0.0792 0.0355,-0.11276 0.0335,-0.037 0.0477,-0.0901 0.036,-0.13466 -0.0106,-0.0405 -0.004,-0.10106 0.0135,-0.13468 0.0241,-0.045 0.0136,-0.0988 -0.0397,-0.20318 -0.0685,-0.13426 -0.0703,-0.15905 -0.0338,-0.45647 0.034,-0.27638 0.0876,-0.47018 0.12074,-0.43615 0.0219,0.0224 0.15802,0.41685 0.18901,0.5476 0.0553,0.23344 0.13445,0.41169 0.21724,0.48947 0.0441,0.0414 0.0802,0.0924 0.0802,0.1132 0,0.0207 0.0504,0.0929 0.1119,0.16007 0.0803,0.0877 0.13113,0.11709 0.18011,0.10431 0.0879,-0.023 0.14378,0.12493 0.14378,0.38046 0,0.23299 0.0419,0.31127 0.16636,0.31127 0.10421,0 0.2359,-0.13025 0.2359,-0.23329 0,-0.0312 -0.0528,-0.20632 -0.11733,-0.38924 -0.0645,-0.18292 -0.1177,-0.37793 -0.11811,-0.43329 -3.2e-4,-0.0554 -0.0302,-0.13841 -0.0663,-0.1845 -0.0361,-0.0461 -0.0659,-0.10313 -0.0663,-0.12676 -3.3e-4,-0.0237 -0.0238,-0.0518 -0.052,-0.0627 -0.033,-0.0128 -0.0439,-0.0429 -0.0308,-0.0844 0.0118,-0.0374 -0.005,-0.10293 -0.0399,-0.15524 -0.0332,-0.0498 -0.0561,-0.11075 -0.0509,-0.13544 0.005,-0.0246 -0.0151,-0.16047 -0.0453,-0.3017 -0.033,-0.15487 -0.0505,-0.36324 -0.0441,-0.52499 l 0.0107,-0.26815 0.0699,0.10881 c 0.0762,0.11855 0.11445,0.11181 0.11445,-0.0204 0,-0.0823 0.002,-0.0828 0.053,-0.0197 0.0396,0.0486 0.0487,0.0514 0.0362,0.0108 -0.0103,-0.0334 0.0187,-0.0806 0.0756,-0.12268 0.0848,-0.0627 0.0917,-0.0846 0.0838,-0.26412 -0.0107,-0.24279 -0.0178,-0.27958 -0.0539,-0.27958 -0.0526,0 0.0755,-0.16036 0.14201,-0.17776 0.0823,-0.0214 0.0884,-0.13093 0.007,-0.12084 -0.0323,0.004 -0.0872,-0.005 -0.12217,-0.02 -0.0448,-0.0194 -0.0762,-0.0102 -0.10659,0.0316 -0.0398,0.0545 -0.0508,0.0505 -0.14502,-0.0531 -0.0561,-0.0617 -0.12562,-0.18203 -0.15458,-0.26744 -0.029,-0.0854 -0.0822,-0.182 -0.11831,-0.21471 -0.0361,-0.0325 -0.0657,-0.0738 -0.0657,-0.0913 0,-0.0337 -0.13135,-0.14794 -0.24866,-0.21632 -0.0384,-0.0224 -0.13469,-0.0412 -0.21396,-0.0419 -0.14352,0 -0.3419,-0.0777 -0.3419,-0.13194 0,-0.0158 0.0453,-0.0376 0.10056,-0.0486 0.1043,-0.0211 0.14154,-0.12661 0.062,-0.17579 -0.027,-0.0168 -0.0211,-0.0366 0.0195,-0.0663 0.0521,-0.0381 0.0431,-0.0498 -0.0871,-0.11391 -0.0798,-0.0393 -0.19789,-0.10158 -0.26242,-0.13841 -0.0775,-0.0442 -0.15428,-0.0615 -0.22627,-0.0507 -0.0599,0.009 -0.10894,0.003 -0.10894,-0.0151 0,-0.0233 -0.009,-0.034 -0.0253,-0.0338 z m 0.0756,2.9661 c 0.001,7e-5 0.002,0 0.003,0 0.0113,0.005 0.0139,0.041 0.0136,0.12082 -6.3e-4,0.21267 -0.0544,0.28118 -0.0745,0.095 -0.0104,-0.0961 -2e-4,-0.16342 0.0296,-0.19561 0.0127,-0.0138 0.022,-0.0214 0.0287,-0.021 z"
         style="fill:#000000;stroke-width:0.0335218"
         id="path243" /><path
         d="m 544.20799,557.86338 c -0.2563,-0.006 -0.34486,0.30059 -0.41235,0.39431 -0.0675,0.095 -0.0469,0.095 -0.0249,0.11575 0.022,0.0193 0.1478,0.077 0.1478,0.077 0,0 0.033,0.073 0.0496,0.0951 0.018,0.022 0.0455,0.11732 0.0455,0.11732 0,0 -0.0471,0.0425 -0.12557,0.0935 -0.0772,0.0482 -0.12261,0.16798 -0.15711,0.20929 -0.0344,0.04 -0.14449,0.18917 -0.2217,0.24288 -0.079,0.051 -0.0734,0.10853 -0.0734,0.10853 0,0 -0.0214,0.0281 -0.0315,0.0331 -0.0108,0.006 -0.0264,0.18756 -0.0264,0.18756 l -0.0164,0.0439 c 0,0 -0.038,0.0307 -0.0299,0.13126 0.007,0.10059 0.0747,0.24505 0.0827,0.26715 0.007,0.022 0.0894,0.036 0.11009,0.047 0.0196,0.0124 0.0164,0.0246 0.0164,0.0728 0,0.0483 0.0651,0.0718 0.0651,0.0718 0,0 0.0606,0.32489 0.11988,0.5302 0.0606,0.20535 0.26046,0.36693 0.26046,0.36693 l -0.0124,0.0754 c 0,0 -0.007,0.1574 -0.018,0.19741 -0.01,0.0413 0.0233,0.35933 0.0233,0.44751 0,0.0868 0.0225,0.13251 0.0444,0.2 0.0236,0.0675 0.0354,0.20926 0.0274,0.27956 -0.007,0.0702 0.19275,0.1478 0.19275,0.1478 0,0 0.0772,0.16928 0.0853,0.19687 0.007,0.0276 0.0416,0.16264 0.0346,0.19844 -0.008,0.0345 -0.008,0.0894 -0.018,0.13901 -0.01,0.051 -0.0344,0.0636 -0.062,0.10078 -0.0276,0.0372 -0.0455,0.13385 -0.0455,0.13385 0,0 0.0829,0.10094 0.19999,0.0909 0.11714,-0.01 0.19857,-0.091 0.23305,-0.15295 0.0344,-0.062 0.0177,-0.21498 0.0177,-0.21498 l 0.0164,-0.0388 c 0,0 0.018,-0.17481 0.018,-0.18862 0,-0.0124 -0.0543,-0.14018 -0.0739,-0.17828 0.004,0.003 0.0375,0.0254 0.11526,0.0915 0.0827,0.0703 0.062,0.0825 0.062,0.13486 0,0.0524 0.0185,0.26461 0.0156,0.27699 -0.003,0.0124 -0.0581,0.15571 -0.0651,0.1819 -0.007,0.0276 -0.0948,0.19037 -0.0879,0.20825 0.008,0.018 0.0605,0.0349 0.11007,0.0429 0.0496,0.007 0.19569,-0.008 0.23979,-0.0249 0.0455,-0.018 0.14314,-0.0262 0.16793,-0.0362 0.0251,-0.01 -0.005,-0.0577 -0.008,-0.10181 -0.003,-0.0455 -1.3e-4,-0.21095 0.0109,-0.24545 0.009,-0.0344 0.0151,-0.1764 0.0151,-0.19431 0,-0.018 0.005,-0.0577 0.0103,-0.0853 0.005,-0.0275 -0.008,-0.14158 -0.008,-0.14158 0,0 0.003,-0.0156 0.0331,-0.0403 0.0303,-0.0249 0.055,-0.0482 0.062,-0.0703 0.008,-0.0233 -0.0243,-0.0994 -0.0274,-0.16277 -0.003,-0.062 -0.003,-0.16918 -0.0249,-0.19947 -0.0217,-0.0303 -0.007,-0.12031 0.003,-0.1478 0.01,-0.0276 0.0981,-0.30422 0.0951,-0.46405 -0.003,-0.16121 0.0373,-0.19606 0.0594,-0.25117 0.0236,-0.0551 0.0481,-0.39688 0.0481,-0.39688 l 0.0175,0.0842 c 0,0 0.044,0.0565 0.047,0.008 0.003,-0.0482 -0.01,-0.20259 -0.01,-0.20259 0,0 0.19701,-0.0803 0.24392,-0.0982 0.0483,-0.0164 0.0302,-0.14431 0.0151,-0.19119 -0.0151,-0.0469 -0.0768,-0.35274 -0.0868,-0.39275 -0.01,-0.0396 -0.0696,-0.0486 -0.0796,-0.0496 -0.01,-0.003 -0.10118,-0.0303 -0.0982,-0.0455 0.003,-0.0138 0.0333,-0.1175 -0.007,-0.17259 -0.04,-0.0551 -0.11316,-0.31678 -0.11316,-0.31678 l 0.0455,-0.0884 -0.0703,-0.46405 c 0,0 0.0103,-0.20553 0.0103,-0.29094 0,-0.0843 -0.0951,-0.0925 -0.0951,-0.0925 l -0.0372,-0.0589 h -0.15452 c -0.051,0 -0.29072,-0.01 -0.30591,-0.0124 -0.0138,-0.003 -0.0376,-0.0127 -0.0346,-0.0403 0.003,-0.0275 -0.0427,-0.0851 -0.0579,-0.10438 -0.0151,-0.0206 -0.10181,-0.25524 -0.12663,-0.28834 -0.0249,-0.0331 -0.11282,-0.19291 -0.37052,-0.1969 z m -0.48937,2.38384 c 0,0 0.0494,-0.003 0.0646,0.0124 0.0148,0.0151 0.013,0.0524 0.018,0.0703 0.004,0.0164 0.1075,0.11316 0.1075,0.11316 0,0 0.0198,0.0773 0.0249,0.10491 0.004,0.0276 0.0453,0.11819 0.077,0.14161 0.0336,0.022 0.0279,0.10231 0.0279,0.10231 0,0 0.01,0.0606 -0.018,0.0827 -0.0262,0.0233 -0.007,0.0977 -0.007,0.0977 l -0.0754,-0.0579 c -0.0413,-0.0441 -0.12951,-0.20659 -0.1447,-0.27959 -0.0151,-0.0716 -0.0594,-0.3297 -0.0594,-0.3297 z m 0.91779,1.13171 c 0.0278,0.0758 0.0372,0.0975 0.0249,0.22841 -0.0124,0.12954 -0.0305,0.2744 -0.0305,0.2744 0,0 -0.0429,-0.12277 -0.0553,-0.17518 -0.0124,-0.0524 0.007,-0.21463 0.0156,-0.24495 0.007,-0.0303 0.0455,-0.0827 0.0455,-0.0827 z"
         style="fill:#000000;fill-opacity:1;fill-rule:nonzero;stroke:none;stroke-width:0.352777"
         id="path247" /><path
         style="fill:#000000;stroke-width:0.0304785"
         d="m 547.12549,563.37713 c -0.027,-0.0213 0.004,-0.065 0.008,-0.0677 0.004,-0.002 0.008,-0.0136 0.008,-0.0242 0,-0.0105 0.005,-0.0246 0.0121,-0.0312 0.0152,-0.0152 0.0157,-0.0567 6.4e-4,-0.0689 -0.0191,-0.0159 -0.037,-0.13822 -0.0228,-0.15624 0.004,-0.005 0.0103,-0.0199 0.0131,-0.032 0.002,-0.0121 0.009,-0.0221 0.0132,-0.0221 0.004,0 0.007,-0.005 0.007,-0.0112 0,-0.006 0.0125,-0.0172 0.0279,-0.0245 0.0153,-0.007 0.03,-0.0168 0.0327,-0.021 0.002,-0.004 0.0119,-0.007 0.0205,-0.007 0.008,0 0.0156,-0.004 0.0156,-0.008 0,-0.004 0.008,-0.008 0.0181,-0.008 0.0248,-3.6e-4 0.0451,-0.031 0.0559,-0.0847 0.007,-0.0336 0.007,-0.0473 -1.8e-4,-0.0542 -0.005,-0.005 -0.009,-0.021 -0.009,-0.0352 0,-0.0768 -0.12065,-0.21283 -0.18883,-0.21283 -0.0196,0 -0.0454,-0.0113 -0.0732,-0.0323 -0.0233,-0.0175 -0.0605,-0.0694 -0.0605,-0.0844 0,-0.0135 -0.0635,-0.11936 -0.0743,-0.12399 -0.003,-0.002 -0.007,-0.008 -0.007,-0.0145 0,-0.007 -0.009,-0.0216 -0.0201,-0.0334 -0.0111,-0.0119 -0.0205,-0.0273 -0.0207,-0.034 -3.7e-4,-0.007 -0.007,-0.0231 -0.0161,-0.0363 -0.008,-0.0133 -0.0177,-0.0297 -0.0204,-0.0363 -0.0148,-0.0369 -0.0226,-0.0546 -0.0325,-0.0739 -0.006,-0.0117 -0.0111,-0.0272 -0.0111,-0.0343 0,-0.007 -0.004,-0.0129 -0.008,-0.0129 -0.004,0 -0.008,-0.007 -0.008,-0.0167 0,-0.009 -0.005,-0.0221 -0.0121,-0.0288 -0.007,-0.007 -0.0121,-0.0207 -0.0121,-0.0312 0,-0.0105 -0.004,-0.0214 -0.008,-0.0242 -0.004,-0.002 -0.008,-0.019 -0.008,-0.0361 0,-0.0173 -0.004,-0.0326 -0.0103,-0.0344 -0.0167,-0.005 -0.0191,-0.16824 -0.003,-0.2003 0.008,-0.0164 0.013,-0.0466 0.013,-0.0808 0,-0.0301 0.004,-0.0569 0.008,-0.0597 0.004,-0.002 0.008,-0.0222 0.008,-0.0433 0,-0.0212 0.005,-0.0454 0.0118,-0.054 0.007,-0.008 0.0119,-0.0254 0.0121,-0.0373 1.5e-4,-0.0119 0.004,-0.0239 0.008,-0.0266 0.004,-0.002 0.008,-0.0147 0.008,-0.0267 1.4e-4,-0.0119 0.006,-0.0288 0.0121,-0.0373 0.007,-0.008 0.0118,-0.0238 0.0118,-0.0337 0,-0.0103 0.004,-0.0205 0.008,-0.0231 0.004,-0.002 0.008,-0.012 0.008,-0.0207 0,-0.008 0.009,-0.0329 0.0194,-0.054 0.0296,-0.0583 0.0451,-0.0959 0.0451,-0.10955 0,-0.007 0.004,-0.0146 0.008,-0.0174 0.004,-0.002 0.008,-0.0175 0.008,-0.0327 0,-0.0152 0.003,-0.0278 0.007,-0.0278 0.004,0 0.009,-0.0145 0.0128,-0.0322 0.003,-0.0177 0.008,-0.0343 0.0127,-0.0367 0.004,-0.002 0.007,-0.0168 0.007,-0.0318 0,-0.0149 0.003,-0.0292 0.007,-0.0316 0.004,-0.002 0.009,-0.0189 0.0121,-0.0367 0.002,-0.0178 0.009,-0.0324 0.0132,-0.0324 0.004,0 0.007,-0.0126 0.007,-0.0278 0,-0.0152 0.003,-0.0297 0.007,-0.0321 0.004,-0.002 0.009,-0.0217 0.0129,-0.0428 0.003,-0.0211 0.008,-0.0421 0.0121,-0.0465 0.003,-0.004 0.008,-0.0244 0.0105,-0.0444 0.002,-0.02 0.006,-0.0435 0.007,-0.0524 0.005,-0.0238 -0.0201,-0.0376 -0.0695,-0.0376 -0.0237,0 -0.0531,-0.005 -0.0652,-0.0115 -0.0121,-0.007 -0.0282,-0.0117 -0.0354,-0.0117 -0.0174,-3.7e-4 -0.0445,-0.0371 -0.0328,-0.0444 0.005,-0.003 0.002,-0.009 -0.008,-0.0171 -0.015,-0.0105 -0.0168,-0.02 -0.0168,-0.091 0,-0.0605 -0.002,-0.0816 -0.0121,-0.0892 -0.008,-0.007 -0.0121,-0.0256 -0.0121,-0.0609 0,-0.028 -0.004,-0.0532 -0.008,-0.0559 -0.004,-0.002 -0.008,-0.0117 -0.008,-0.0198 0,-0.008 -0.006,-0.0169 -0.0125,-0.0195 -0.007,-0.002 -0.0175,-0.0167 -0.0237,-0.0311 -0.006,-0.0144 -0.0278,-0.0434 -0.048,-0.0643 -0.0293,-0.0303 -0.0368,-0.0436 -0.0368,-0.0661 0,-0.0154 -0.004,-0.0303 -0.008,-0.033 -0.004,-0.002 -0.008,-0.0106 -0.008,-0.0174 0,-0.018 -0.0247,-0.0673 -0.0337,-0.0673 -0.004,0 -0.0195,-0.009 -0.0342,-0.0202 -0.0145,-0.0111 -0.0305,-0.0202 -0.0353,-0.0202 -0.005,0 -0.0117,-0.004 -0.0153,-0.0103 -0.003,-0.006 -0.0223,-0.0182 -0.0416,-0.0283 -0.0194,-0.0103 -0.0448,-0.0232 -0.0564,-0.0294 -0.0117,-0.007 -0.0431,-0.0212 -0.0698,-0.0332 -0.0265,-0.012 -0.0566,-0.0257 -0.0666,-0.0304 -0.0264,-0.0121 -0.0715,-0.0596 -0.0861,-0.0903 -0.007,-0.0146 -0.0253,-0.0342 -0.0408,-0.0433 -0.0154,-0.009 -0.0283,-0.0203 -0.0283,-0.0247 0,-0.004 -0.0141,-0.0117 -0.0312,-0.0164 -0.0419,-0.0112 -0.0791,0.004 -0.12853,0.0549 -0.0526,0.0535 -0.0787,0.0681 -0.1346,0.0751 -0.11091,0.0139 -0.14443,0.0258 -0.20641,0.0733 -0.016,0.0121 -0.0348,0.0221 -0.0419,0.0221 -0.007,0 -0.0151,0.004 -0.0178,0.008 -0.007,0.0118 -0.054,0.009 -0.0716,-0.004 -0.021,-0.0159 -0.0614,-0.0984 -0.0614,-0.12542 0,-0.0172 0.0117,-0.0327 0.0503,-0.0674 0.0296,-0.0267 0.0578,-0.0452 0.0685,-0.0452 0.0103,0 0.0182,-0.004 0.0182,-0.008 0,-0.004 0.007,-0.008 0.014,-0.008 0.007,-1.9e-4 0.0359,-0.0131 0.0624,-0.0287 0.0265,-0.0155 0.0647,-0.0355 0.0847,-0.0441 0.0583,-0.0255 0.10793,-0.0488 0.12096,-0.0567 0.007,-0.004 0.0174,-0.009 0.0239,-0.0127 0.0222,-0.0103 0.0499,-0.0387 0.0614,-0.0629 0.0227,-0.0474 0.1421,-0.15735 0.17092,-0.15735 0.004,0 0.0184,-0.005 0.0311,-0.012 0.0127,-0.007 0.0349,-0.0139 0.0494,-0.0161 0.0144,-0.002 0.0389,-0.006 0.0544,-0.008 l 0.0283,-0.004 v -0.0435 c 0,-0.0239 -0.003,-0.0455 -0.007,-0.0478 -0.004,-0.002 -0.007,-0.0203 -0.007,-0.0397 -5.6e-4,-0.028 0.004,-0.0407 0.0218,-0.0607 0.0124,-0.0139 0.0259,-0.0253 0.03,-0.0253 0.004,0 0.0173,-0.009 0.0292,-0.0201 0.0119,-0.0111 0.0269,-0.0201 0.0332,-0.0201 0.007,0 0.016,-0.005 0.0215,-0.0121 0.005,-0.007 0.0169,-0.0121 0.0251,-0.0121 0.008,0 0.0151,-0.004 0.0151,-0.008 0,-0.004 0.003,-0.008 0.007,-0.008 0.004,0 0.0318,-0.0164 0.062,-0.0362 0.0303,-0.02 0.0625,-0.0386 0.0714,-0.0413 0.009,-0.002 0.0212,-0.0103 0.0273,-0.0162 0.006,-0.006 0.0163,-0.011 0.0225,-0.011 0.007,0 0.0115,-0.004 0.0115,-0.008 0,-0.004 0.007,-0.008 0.0151,-0.008 0.008,0 0.0196,-0.005 0.0251,-0.0121 0.005,-0.007 0.0169,-0.0121 0.0251,-0.0121 0.008,0 0.0151,-0.004 0.0151,-0.008 0,-0.004 0.005,-0.008 0.0111,-0.008 0.006,0 0.0156,-0.005 0.0212,-0.0121 0.005,-0.007 0.0166,-0.0121 0.0245,-0.0121 0.007,0 0.0156,-0.003 0.0172,-0.007 0.002,-0.004 0.031,-0.0207 0.0655,-0.0379 0.0346,-0.0173 0.0668,-0.0361 0.0716,-0.0418 0.004,-0.006 0.0128,-0.0108 0.0178,-0.011 0.005,-3.7e-4 0.0254,-0.013 0.0453,-0.0282 0.02,-0.0152 0.0491,-0.0363 0.0645,-0.0467 0.0624,-0.0424 0.0765,-0.0834 0.0381,-0.11141 -0.0121,-0.009 -0.0219,-0.0212 -0.0219,-0.0274 0,-0.007 -0.003,-0.0114 -0.007,-0.0114 -0.0117,0 -0.027,-0.0553 -0.0214,-0.0775 0.007,-0.0249 0.0574,-0.0757 0.0761,-0.0757 0.007,0 0.0173,-0.003 0.0215,-0.007 0.004,-0.004 0.0221,-0.009 0.0399,-0.0122 0.0756,-0.0116 0.10374,-0.0295 0.11217,-0.0715 0.005,-0.0271 0.10997,-0.13227 0.15066,-0.15168 0.0151,-0.007 0.0468,-0.0226 0.0706,-0.0343 0.0237,-0.0117 0.0516,-0.0212 0.062,-0.0212 0.0105,0 0.0391,-0.005 0.0637,-0.0116 0.0336,-0.009 0.055,-0.009 0.0871,-0.004 0.0233,0.004 0.0688,0.0103 0.10123,0.0127 l 0.0588,0.004 0.0387,-0.0414 c 0.0213,-0.0228 0.0424,-0.0414 0.0468,-0.0414 0.004,0 0.0189,-0.005 0.032,-0.0118 0.0496,-0.0247 0.13993,0.0288 0.13993,0.0829 0,0.0137 0.003,0.0333 0.007,0.0435 0.004,0.0103 0.009,0.0279 0.0119,0.0393 0.004,0.0186 0.0289,0.0309 0.0289,0.0141 0,-0.004 0.002,-0.006 0.006,-0.005 0.0276,0.007 0.11919,-0.0348 0.1297,-0.0598 0.002,-0.003 0.007,-0.007 0.0135,-0.007 0.006,0 0.012,-0.002 0.0135,-0.006 0.003,-0.007 0.0599,-0.0504 0.0655,-0.0504 0.004,0 0.079,-0.0664 0.11181,-0.0988 0.0123,-0.0121 0.0238,-0.0222 0.0253,-0.0222 0.002,0 0.0352,-0.0309 0.0744,-0.0685 0.0392,-0.0378 0.0757,-0.0685 0.081,-0.0685 0.005,0 0.014,-0.005 0.0195,-0.0121 0.014,-0.0169 0.0798,-0.0159 0.10506,0.002 0.0283,0.0195 0.0476,0.0442 0.0479,0.0609 1.6e-4,0.007 0.003,0.0205 0.007,0.0283 0.0103,0.0205 0.0299,0.0877 0.0418,0.14303 0.006,0.0265 0.0154,0.0586 0.0216,0.0711 0.007,0.0135 0.009,0.0323 0.006,0.046 -0.006,0.0265 -0.0657,0.0885 -0.0857,0.0885 -0.007,0 -0.0154,0.005 -0.018,0.0121 -0.002,0.007 -0.012,0.0121 -0.021,0.0121 -0.009,0 -0.0164,0.004 -0.0164,0.008 0,0.004 -0.006,0.008 -0.0136,0.008 -0.007,0 -0.0192,0.004 -0.0262,0.0107 -0.007,0.006 -0.0291,0.0157 -0.049,0.0219 -0.02,0.006 -0.0454,0.0158 -0.0564,0.0216 -0.0111,0.006 -0.0317,0.0103 -0.0459,0.0104 -0.0141,4e-5 -0.028,0.004 -0.0307,0.008 -0.002,0.004 -0.012,0.008 -0.0207,0.008 -0.008,0 -0.0156,0.002 -0.0156,0.007 0,0.003 -0.0117,0.012 -0.0262,0.0189 -0.0544,0.0259 -0.11529,0.0596 -0.12556,0.0693 -0.006,0.006 -0.0131,0.0103 -0.0162,0.0103 -0.0158,3e-5 -0.0536,0.0432 -0.0515,0.0592 0.002,0.0103 -0.007,0.0269 -0.0182,0.0393 -0.0112,0.012 -0.0205,0.0232 -0.0205,0.0251 0,0.002 -0.02,0.0241 -0.0444,0.0495 l -0.0443,0.0462 0.005,0.0457 c 0.002,0.0251 0.008,0.0517 0.012,0.0593 0.0118,0.023 0.007,0.0456 -0.009,0.0509 -0.009,0.002 -0.0161,0.008 -0.0161,0.0127 0,0.004 -0.005,0.007 -0.0121,0.007 -0.007,0 -0.0121,0.002 -0.0121,0.007 0,0.0171 -0.0646,0.0338 -0.13048,0.0338 -0.0688,0 -0.12364,0.0158 -0.11761,0.0339 0.002,0.004 0.0164,0.0129 0.0332,0.0186 0.0168,0.006 0.0369,0.0164 0.0448,0.0232 0.008,0.007 0.0283,0.0129 0.0473,0.0129 0.0182,0 0.0354,0.004 0.0381,0.008 0.002,0.004 0.0184,0.008 0.0348,0.008 0.0164,3e-5 0.0401,0.005 0.0529,0.0121 0.0127,0.007 0.0315,0.012 0.0419,0.012 0.0103,0 0.021,0.004 0.0238,0.008 0.002,0.004 0.0116,0.008 0.0196,0.008 0.008,0 0.0191,0.005 0.0247,0.0121 0.005,0.007 0.0154,0.0121 0.0219,0.0121 0.007,0 0.0266,0.0127 0.0448,0.0282 0.0181,0.0155 0.041,0.0283 0.0507,0.0283 0.009,0 0.0222,0.005 0.0278,0.0121 0.005,0.007 0.015,0.0121 0.0212,0.0121 0.006,0 0.0111,0.004 0.0111,0.008 0,0.004 0.004,0.008 0.0106,0.008 0.009,0 0.0863,0.0698 0.10735,0.0979 0.0322,0.043 0.0513,0.0826 0.0513,0.1059 0,0.0147 0.004,0.0313 0.0103,0.0369 0.007,0.007 0.0103,0.0518 0.0103,0.16422 0,0.11614 -0.002,0.15498 -0.0103,0.15752 -0.0117,0.004 -0.0141,0.0752 -0.003,0.0871 0.0119,0.0127 0.0195,0.11406 0.009,0.12053 -0.005,0.003 -0.0125,0.0143 -0.0165,0.0251 -0.004,0.0117 -0.0139,0.0193 -0.0237,0.0193 -0.0155,0 -0.0163,0.005 -0.0163,0.11087 -7e-5,0.0679 -0.004,0.12215 -0.0103,0.13998 -0.0104,0.0301 -0.056,0.0879 -0.0691,0.0879 -0.004,0 -0.0134,0.009 -0.0206,0.0202 -0.007,0.0111 -0.017,0.0202 -0.0217,0.0202 -0.0148,0 -0.0275,0.0195 -0.0291,0.0444 -6.5e-4,0.0133 -0.004,0.18134 -0.007,0.37343 -0.002,0.19209 -0.008,0.35835 -0.0126,0.36946 -0.004,0.0111 -0.007,0.0627 -0.007,0.1145 0,0.0519 -0.004,0.10695 -0.008,0.12245 -0.004,0.0155 -0.0103,0.0463 -0.013,0.0685 -0.002,0.0221 -0.008,0.0438 -0.012,0.048 -0.0103,0.0106 -0.009,0.14743 6.4e-4,0.15363 0.0106,0.007 0.0106,0.10082 0,0.10082 -0.004,0 -0.008,0.007 -0.008,0.0145 0,0.007 -0.012,0.027 -0.0268,0.0424 -0.0471,0.049 -0.11859,0.11257 -0.12667,0.11257 -0.004,0 -0.007,0.004 -0.007,0.008 0,0.004 -0.005,0.008 -0.0121,0.008 -0.007,0 -0.0121,0.004 -0.0121,0.008 0,0.004 -0.0251,0.008 -0.0588,0.008 -0.0351,0 -0.0628,0.004 -0.0685,0.009 -0.007,0.007 -0.009,0.0406 -0.009,0.10031 0,0.0517 -0.003,0.0928 -0.008,0.0957 -0.004,0.002 -0.008,0.0258 -0.008,0.0512 0,0.0255 -0.004,0.0504 -0.009,0.0553 -0.0175,0.0175 -0.0389,0.23694 -0.025,0.25468 0.004,0.005 0.0103,0.0347 0.0131,0.0652 0.003,0.0306 0.009,0.0624 0.0134,0.0705 0.0136,0.0254 0.0103,0.22467 -0.004,0.25979 -0.007,0.0186 -0.0136,0.0598 -0.0148,0.10547 -0.002,0.0583 -0.005,0.0802 -0.0177,0.0983 -0.0357,0.0531 -0.0381,0.0623 -0.037,0.14426 5.6e-4,0.0457 0.004,0.0818 0.009,0.0833 0.0116,0.004 0.0103,0.0396 -0.002,0.044 -0.007,0.002 -0.004,0.006 0.006,0.0103 0.0247,0.0103 0.0263,0.0157 0.0273,0.10393 6.4e-4,0.0656 -0.002,0.0887 -0.0145,0.11409 -0.0158,0.0327 -0.0748,0.0869 -0.11758,0.10819 -0.0133,0.007 -0.029,0.0166 -0.0349,0.0221 -0.006,0.006 -0.0192,0.0103 -0.0297,0.0103 -0.0105,0 -0.0214,0.004 -0.0242,0.008 -0.002,0.004 -0.012,0.008 -0.0207,0.008 -0.008,0 -0.0156,0.002 -0.0156,0.007 0,0.0226 -0.49071,0.0994 -0.63704,-0.0154 z m 0.28561,-1.47978 c 0.0106,-0.004 0.0128,-0.0205 0.0128,-0.0973 0,-0.0674 -0.003,-0.0955 -0.011,-0.10345 -0.0122,-0.0121 -0.0293,-0.002 -0.0293,0.0181 0,0.006 -0.005,0.0129 -0.012,0.0154 -0.007,0.002 -0.009,0.008 -0.007,0.0139 0.003,0.005 0.007,0.035 0.007,0.0665 6.5e-4,0.0315 0.005,0.0651 0.0106,0.0746 0.0103,0.0193 0.0103,0.0193 0.0283,0.0126 z m -0.65262,-2.63802 c 0.009,-0.0271 0.019,-0.052 0.0223,-0.0553 0.003,-0.003 0.006,-0.0112 0.006,-0.0177 0,-0.0208 0.0558,-0.0883 0.084,-0.10164 0.015,-0.007 0.0444,-0.013 0.065,-0.013 0.0751,0 0.13592,-0.0288 0.15042,-0.071 0.004,-0.014 0.0709,-0.0895 0.11803,-0.13486 0.0456,-0.0439 0.0523,-0.0664 0.0278,-0.0927 -0.0123,-0.0134 -0.0187,-0.0144 -0.044,-0.007 -0.0163,0.004 -0.0317,0.0117 -0.0343,0.0159 -0.002,0.004 -0.0115,0.007 -0.0199,0.007 -0.008,0 -0.0161,0.003 -0.0177,0.007 -0.005,0.0121 -0.0947,0.0741 -0.10717,0.0741 -0.007,0 -0.0124,0.003 -0.0124,0.007 0,0.004 -0.007,0.009 -0.0141,0.012 -0.007,0.002 -0.0251,0.0119 -0.0384,0.0205 -0.0133,0.008 -0.032,0.0158 -0.0413,0.0163 -0.009,3.7e-4 -0.0217,0.006 -0.0272,0.0127 -0.005,0.007 -0.0143,0.0121 -0.0195,0.0121 -0.005,0 -0.0167,0.007 -0.0252,0.0145 -0.0183,0.017 -0.066,0.0419 -0.0806,0.0419 -0.005,0 -0.012,0.005 -0.0146,0.0121 -0.002,0.007 -0.012,0.0121 -0.021,0.0121 -0.009,0 -0.0164,0.004 -0.0164,0.008 0,0.004 -0.007,0.008 -0.0152,0.008 -0.008,0 -0.0171,0.004 -0.0192,0.0105 -0.002,0.006 -0.0199,0.0154 -0.0392,0.0216 -0.0193,0.006 -0.0408,0.0159 -0.0478,0.0218 -0.007,0.006 -0.0174,0.0107 -0.023,0.0107 -0.006,0 -0.0175,0.009 -0.0261,0.0202 -0.009,0.0111 -0.0204,0.0201 -0.0257,0.0201 -0.005,0 -0.014,0.004 -0.0191,0.009 -0.007,0.007 -0.002,0.0132 0.0199,0.0249 0.016,0.008 0.0338,0.0205 0.0398,0.0262 0.006,0.006 0.0243,0.0189 0.041,0.0291 0.0168,0.0103 0.0323,0.0206 0.0345,0.0232 0.002,0.002 0.0192,0.0114 0.0378,0.0195 0.0186,0.008 0.0356,0.0195 0.0379,0.0254 0.002,0.007 0.0109,0.008 0.0265,0.004 0.0187,-0.005 0.0252,-0.0143 0.0389,-0.0552 z"
         id="path2-3"
         sodipodi:nodetypes="ssssssssssssssscsssssssssssssssssssssssscscssssssssssssssssssssssssssssssssssssssssssssssssssssssssssssssssssssscsssssssssssssssssssssssssscsssssssssssssssscsssssssssssssssssscssssssssssssssssssssssscsssssssssssssssssssssssssssssssssscsssssssssssssssssssssssssssssssssssssssssssssssssssssssssssssssssssssssssssssssssssssssssssss" /><path
         style="fill:#000000;stroke-width:0.0340104"
         d="m 540.15612,563.44348 c 0.0234,-0.0119 0.0436,-0.0693 0.0367,-0.10398 -0.006,-0.0321 0.009,-0.11089 0.0261,-0.12969 0.0166,-0.0189 0.0159,-0.0752 -10e-4,-0.0893 -0.007,-0.006 -0.0136,-0.0177 -0.0138,-0.0258 -1.7e-4,-0.008 -0.008,-0.0309 -0.0177,-0.0507 -0.009,-0.0198 -0.0175,-0.0541 -0.0177,-0.0762 -2.9e-4,-0.0408 -0.0242,-0.11728 -0.0365,-0.11728 -0.003,0 -0.009,-0.0146 -0.0129,-0.0326 -0.003,-0.018 -0.009,-0.0391 -0.0137,-0.0472 -0.0248,-0.0479 -0.0501,-0.1522 -0.0591,-0.24409 -0.003,-0.0322 -0.0115,-0.0694 -0.0176,-0.0829 -0.007,-0.0135 -0.0146,-0.0418 -0.0181,-0.063 -0.003,-0.0212 -0.016,-0.0592 -0.0279,-0.0844 -0.0117,-0.0252 -0.0215,-0.0538 -0.0215,-0.0636 0,-0.009 -0.006,-0.0256 -0.0132,-0.0351 -0.007,-0.009 -0.0134,-0.025 -0.0135,-0.0341 -1.7e-4,-0.009 -0.006,-0.0294 -0.0123,-0.045 -0.007,-0.0157 -0.0195,-0.0526 -0.0286,-0.0823 -0.009,-0.0297 -0.0302,-0.0844 -0.0471,-0.1215 -0.0169,-0.0371 -0.034,-0.0755 -0.038,-0.0854 -0.0242,-0.06 -0.0505,-0.1125 -0.0564,-0.1125 -0.003,0 -0.007,-0.007 -0.007,-0.0144 0,-0.008 -0.006,-0.0251 -0.0123,-0.0382 -0.0308,-0.0594 -0.0402,-0.0892 -0.031,-0.0983 0.005,-0.005 0.0115,-0.045 0.014,-0.0889 0.002,-0.0438 0.009,-0.0853 0.0149,-0.0922 0.007,-0.008 0.0115,-0.0817 0.013,-0.20921 0.002,-0.15444 0.006,-0.19661 0.0146,-0.19661 0.007,0 0.0172,-0.007 0.0237,-0.0145 0.009,-0.0115 0.0214,-0.0131 0.0508,-0.009 0.0312,0.005 0.0421,10e-4 0.0565,-0.0126 0.0104,-0.0104 0.0178,-0.0212 0.0178,-0.0252 0,-0.003 0.0116,-0.006 0.0259,-0.003 0.0143,0.002 0.0287,-5.5e-4 0.032,-0.006 0.003,-0.006 0.0235,-0.0104 0.0449,-0.0104 0.0235,0 0.0433,-0.006 0.0501,-0.0135 0.006,-0.007 0.0161,-0.0135 0.022,-0.0135 0.0351,0 0.0395,-0.0926 0.0104,-0.20698 -0.008,-0.0321 -0.0189,-0.0847 -0.0235,-0.11697 -0.005,-0.0322 -0.0205,-0.0955 -0.0353,-0.1406 -0.0149,-0.0451 -0.0271,-0.0905 -0.0271,-0.10075 0,-0.0104 -0.003,-0.0211 -0.009,-0.0242 -0.005,-0.003 -0.009,-0.0136 -0.009,-0.0234 0,-0.018 -0.0328,-0.0897 -0.0449,-0.0981 -0.003,-0.002 -0.0154,-0.0287 -0.0265,-0.0584 -0.0115,-0.0296 -0.0231,-0.058 -0.0271,-0.063 -0.003,-0.005 -0.0104,-0.021 -0.0135,-0.0356 -0.003,-0.0145 -0.0152,-0.0388 -0.026,-0.0539 -0.0189,-0.0264 -0.0351,-0.0809 -0.0497,-0.16707 -0.003,-0.0223 -0.0115,-0.0486 -0.0162,-0.0585 -0.0214,-0.041 -0.0383,-0.0821 -0.0409,-0.099 -0.002,-0.0158 0.003,-0.0183 0.0439,-0.0207 0.0267,-10e-4 0.0511,-0.008 0.0573,-0.0158 0.006,-0.007 0.0163,-0.013 0.0233,-0.013 0.007,0 0.0124,-0.003 0.0124,-0.008 0,-0.005 0.009,-0.0115 0.0203,-0.0146 0.0219,-0.007 0.0359,-0.0203 0.0675,-0.0647 0.0249,-0.035 0.0275,-0.10721 0.006,-0.14938 -0.008,-0.0157 -0.0203,-0.0392 -0.0271,-0.0523 -0.007,-0.0131 -0.0123,-0.0374 -0.0124,-0.054 -1.7e-4,-0.0166 -0.006,-0.0402 -0.0131,-0.0526 -0.007,-0.0123 -0.013,-0.0366 -0.0132,-0.054 -2e-4,-0.0173 -0.006,-0.0419 -0.0124,-0.0546 -0.007,-0.0127 -0.0146,-0.0332 -0.0176,-0.0454 -0.003,-0.0122 -0.0219,-0.0404 -0.0417,-0.0624 -0.0199,-0.0221 -0.0363,-0.0425 -0.0363,-0.0455 -5.5e-4,-0.0221 -0.0879,-0.0891 -0.11625,-0.0891 -0.0104,0 -0.0189,-0.005 -0.0189,-0.0104 0,-0.0123 -0.0367,-0.0435 -0.0517,-0.0439 -0.006,-1.7e-4 -0.0115,-0.003 -0.0115,-0.008 0,-0.005 -0.0121,-0.0115 -0.0271,-0.0142 -0.0149,-0.003 -0.0269,-0.009 -0.0269,-0.0143 0,-0.005 -0.005,-0.008 -0.0115,-0.008 -0.006,-1.8e-4 -0.0275,-0.008 -0.0472,-0.0177 -0.0198,-0.009 -0.053,-0.0175 -0.0738,-0.0177 -0.0208,-1.7e-4 -0.0471,-0.005 -0.0585,-0.009 -0.0293,-0.0132 -0.25323,0.0115 -0.29512,0.0326 -0.0174,0.009 -0.0335,0.0185 -0.036,0.0219 -0.002,0.003 -0.0182,0.0104 -0.0349,0.0164 -0.0357,0.0122 -0.15087,-0.002 -0.17054,-0.0226 -0.007,-0.007 -0.0227,-0.012 -0.036,-0.0121 -0.0132,-1.7e-4 -0.032,-0.006 -0.0416,-0.0135 -0.009,-0.007 -0.0249,-0.0132 -0.0341,-0.0132 -0.0299,0 -0.0869,-0.0446 -0.0876,-0.0685 -1.6e-4,-0.006 0.019,-0.0172 0.0425,-0.026 0.062,-0.0231 0.0826,-0.0514 0.0829,-0.114 3e-4,-0.0495 -5.5e-4,-0.0512 -0.0266,-0.0569 -0.0147,-0.003 -0.0292,-0.009 -0.032,-0.0143 -0.002,-0.005 -0.0188,-0.008 -0.0355,-0.008 -0.0447,0 -0.074,-0.014 -0.0888,-0.0424 -0.007,-0.0138 -0.0296,-0.0433 -0.0497,-0.0656 -0.0202,-0.0222 -0.0367,-0.0435 -0.0368,-0.0472 -7e-5,-0.003 -0.005,-0.007 -0.0104,-0.007 -0.006,0 -0.0389,-0.0189 -0.0734,-0.0419 l -0.0625,-0.0419 -0.11788,-0.001 -0.11788,-10e-4 -0.0709,0.035 c -0.0485,0.0238 -0.0872,0.0517 -0.12224,0.0876 -0.0458,0.047 -0.0543,0.062 -0.0799,0.14046 -0.0222,0.0682 -0.0287,0.10341 -0.0286,0.15725 1.1e-4,0.0535 -0.003,0.0721 -0.0145,0.081 -0.008,0.007 -0.0309,0.0267 -0.0506,0.0453 -0.0292,0.0275 -0.0348,0.0378 -0.03,0.0564 0.0144,0.0571 0.0768,0.0853 0.18865,0.0853 0.091,0 0.0974,0.002 0.13006,0.0614 0.0142,0.0253 0.0355,0.0532 0.0947,0.12394 0.0142,0.0168 0.031,0.0306 0.0375,0.0306 0.0213,0 0.0697,0.0702 0.064,0.0929 -0.007,0.028 0.008,0.11703 0.0203,0.12116 0.006,10e-4 0.0104,0.007 0.0104,0.0115 0,0.005 0.005,0.0191 0.0104,0.0329 0.006,0.0139 0.0155,0.0537 0.0215,0.0883 0.0145,0.0839 0.0299,0.14207 0.0403,0.15252 0.005,0.005 0.008,0.0195 0.008,0.0327 0,0.0132 0.006,0.0291 0.0135,0.0352 0.007,0.006 0.0135,0.0178 0.0135,0.0259 3e-5,0.008 0.0121,0.0389 0.0269,0.0686 0.0149,0.0297 0.0268,0.0621 0.0266,0.072 -2.9e-4,0.0235 -0.0298,0.0585 -0.0493,0.0585 -0.0157,0 -0.0473,0.0127 -0.12758,0.0511 -0.0426,0.0205 -0.0496,0.0214 -0.081,0.0104 -0.0189,-0.007 -0.0381,-0.0149 -0.0428,-0.0188 -0.005,-0.003 -0.0198,-0.007 -0.0335,-0.007 -0.019,0 -0.0374,0.0132 -0.0769,0.0556 -0.0287,0.0306 -0.0609,0.0651 -0.0718,0.0765 -0.0121,0.0128 -0.0303,0.0208 -0.0469,0.0208 -0.0149,0 -0.0624,0.0183 -0.10571,0.0405 -0.0433,0.0222 -0.0852,0.0404 -0.0933,0.0404 -0.0192,0 -0.0959,0.0549 -0.11458,0.0821 -0.008,0.0119 -0.0216,0.0265 -0.0302,0.0327 -0.0314,0.0228 -0.0287,0.0901 0.005,0.11227 0.0184,0.0123 0.17935,0.007 0.20337,-0.007 0.0123,-0.007 0.0312,-0.013 0.0418,-0.0132 0.0104,-1.7e-4 0.0217,-0.007 0.0245,-0.0138 0.002,-0.007 0.0131,-0.0135 0.0229,-0.0135 0.009,0 0.02,-0.003 0.0229,-0.008 0.002,-0.005 0.0183,-0.0115 0.0343,-0.0142 0.016,-0.003 0.0461,-0.0121 0.0668,-0.0197 0.0363,-0.0132 0.0389,-0.013 0.0675,0.007 0.0163,0.0115 0.0312,0.0241 0.0328,0.028 0.001,0.003 0.008,0.007 0.0147,0.007 0.007,0 0.0142,0.006 0.0169,0.0135 0.003,0.0104 0.0219,0.0135 0.0807,0.0135 h 0.0755 l 0.016,0.0427 c 0.009,0.0235 0.0199,0.0478 0.0248,0.054 0.0115,0.0146 0.10744,0.0148 0.12201,2.3e-4 0.007,-0.007 0.0531,-0.0122 0.13204,-0.0145 0.0887,-0.002 0.1238,-0.007 0.13138,-0.016 0.006,-0.007 0.0277,-0.0124 0.0537,-0.0124 0.0238,0 0.0458,-0.003 0.0489,-0.009 0.003,-0.005 0.018,-0.009 0.033,-0.009 0.0243,0 0.0268,0.002 0.0215,0.0203 -0.003,0.0115 -0.008,0.0446 -0.0104,0.0743 -0.006,0.0628 -0.0248,0.10755 -0.0595,0.13909 -0.0136,0.0123 -0.0248,0.0287 -0.0248,0.0363 0,0.008 -0.0182,0.0348 -0.0404,0.0602 -0.0223,0.0254 -0.0405,0.0506 -0.0405,0.0556 0,0.005 -0.0104,0.0202 -0.0223,0.0334 -0.0428,0.0463 -0.0408,0.1102 0.006,0.16846 0.0241,0.0303 0.0264,0.0385 0.0208,0.072 -0.003,0.0208 -0.0119,0.0458 -0.0186,0.0556 -0.007,0.009 -0.0123,0.0264 -0.0123,0.037 0,0.0104 -0.0121,0.0419 -0.0271,0.0698 -0.0149,0.0279 -0.0272,0.0598 -0.0273,0.071 -1.8e-4,0.0115 -0.006,0.0283 -0.0135,0.0379 -0.007,0.009 -0.0132,0.0264 -0.0132,0.0372 0,0.0104 -0.006,0.0313 -0.0135,0.0456 -0.0173,0.0332 -0.0173,0.0792 -6e-5,0.0965 0.008,0.008 0.0135,0.0299 0.0135,0.0529 0,0.0217 0.006,0.0472 0.0132,0.0569 0.007,0.009 0.0133,0.0279 0.0135,0.0405 1.7e-4,0.0127 0.006,0.0309 0.0135,0.0404 0.007,0.009 0.0134,0.0279 0.0135,0.0405 1.8e-4,0.0127 0.006,0.0309 0.0135,0.0405 0.007,0.009 0.0133,0.0298 0.0135,0.045 1.7e-4,0.0152 0.006,0.0353 0.0135,0.045 0.007,0.009 0.0134,0.0281 0.0135,0.0411 1.8e-4,0.013 0.007,0.0287 0.0138,0.0349 0.007,0.006 0.0135,0.0204 0.0135,0.0314 0,0.0115 0.006,0.0253 0.0135,0.0314 0.007,0.006 0.0135,0.0226 0.0135,0.0365 0,0.0139 0.006,0.0313 0.0135,0.0388 0.007,0.007 0.0135,0.0196 0.0135,0.0271 0,0.007 0.006,0.019 0.0123,0.0258 0.007,0.007 0.0151,0.0212 0.0185,0.0321 0.003,0.0104 0.0104,0.0198 0.0147,0.0198 0.005,0 0.008,0.008 0.008,0.0174 0,0.009 0.006,0.0235 0.0135,0.0309 0.007,0.007 0.0135,0.0214 0.0135,0.0311 0,0.009 0.006,0.0226 0.0135,0.0287 0.007,0.006 0.0135,0.0168 0.0135,0.0236 0,0.007 0.003,0.0124 0.008,0.0124 0.009,0 0.0283,0.0313 0.0459,0.0743 0.006,0.0136 0.0139,0.0248 0.0183,0.0248 0.005,0 0.008,0.007 0.008,0.0144 0,0.0177 0.0351,0.048 0.0563,0.0484 0.0211,3e-4 0.0478,0.0282 0.055,0.0575 0.003,0.013 0.0104,0.0238 0.0149,0.0238 0.0142,0 0.0104,0.0685 -0.005,0.081 -0.0176,0.0146 -0.0173,0.0618 5.5e-4,0.0818 0.013,0.0143 0.0119,0.0188 -0.0135,0.0538 -0.0152,0.021 -0.0276,0.0436 -0.0276,0.0503 0,0.007 -0.003,0.0121 -0.008,0.0121 -0.005,0 -0.0115,0.0152 -0.0142,0.0337 -0.006,0.036 -0.0159,0.0621 -0.0501,0.13164 -0.0201,0.041 -0.0254,0.0451 -0.0789,0.0623 -0.0336,0.0104 -0.0699,0.0303 -0.0877,0.0471 -0.029,0.0273 -0.0304,0.0317 -0.0304,0.0922 0,0.0582 0.002,0.0651 0.0242,0.0824 0.0142,0.0115 0.03,0.0165 0.0382,0.013 0.03,-0.0127 0.0618,-0.0212 0.13109,-0.0353 0.14871,-0.0303 0.1624,-0.0336 0.1801,-0.0447 0.0104,-0.006 0.0312,-0.0142 0.0472,-0.0177 0.016,-0.003 0.0291,-0.0104 0.0291,-0.0147 0,-0.005 0.005,-0.008 0.0104,-0.008 0.006,0 0.0174,-0.006 0.0257,-0.0137 0.009,-0.008 0.0377,-0.0152 0.0682,-0.0172 0.0519,-0.003 0.1165,-0.0234 0.15179,-0.0472 0.009,-0.007 0.0284,-0.012 0.0413,-0.012 0.013,0 0.0364,-0.007 0.0521,-0.0142 0.0269,-0.0135 0.0284,-0.0168 0.0284,-0.0658 0,-0.0314 -0.005,-0.0584 -0.0132,-0.0691 -0.008,-0.0104 -0.0134,-0.0374 -0.0135,-0.0636 -1.8e-4,-0.0297 -0.005,-0.0501 -0.0138,-0.0573 -0.007,-0.006 -0.0135,-0.0183 -0.0135,-0.0271 0,-0.009 -0.006,-0.0208 -0.0135,-0.0269 -0.009,-0.008 -0.0135,-0.0284 -0.0135,-0.0679 0,-0.0385 -0.005,-0.0611 -0.0135,-0.0702 -0.0142,-0.0142 -0.0187,-0.0508 -0.006,-0.0508 0.0128,0 0.0288,0.0212 0.0288,0.0381 0,0.009 0.006,0.0188 0.0135,0.0217 0.007,0.002 0.0135,0.0127 0.0135,0.0218 0,0.009 0.0365,0.0534 0.081,0.0986 0.047,0.0476 0.081,0.0895 0.081,0.0997 0,0.009 0.006,0.0324 0.0135,0.0501 0.007,0.0177 0.0135,0.0539 0.0135,0.0803 0,0.0439 -0.002,0.0499 -0.0303,0.071 -0.0167,0.0127 -0.0413,0.0407 -0.0549,0.0621 -0.0158,0.025 -0.0424,0.0492 -0.074,0.0674 -0.0455,0.0261 -0.0558,0.0283 -0.1318,0.0285 -0.0861,7e-5 -0.11493,0.0104 -0.14527,0.0502 -0.0183,0.0242 -0.0169,0.0937 0.002,0.11757 0.0626,0.0778 0.31832,0.0936 0.532,0.0329 0.0407,-0.0115 0.0542,-0.0119 0.0833,-0.002 0.0191,0.006 0.0347,0.0144 0.0347,0.018 0,0.023 0.20234,0.0447 0.23955,0.0257 z"
         id="path13-7-8" /><path
         style="fill:#000000;stroke-width:0.0297871"
         d="m 537.02702,563.44903 c 0.002,-0.004 0.0127,-0.008 0.0222,-0.008 0.01,-2e-5 0.0275,-0.006 0.0399,-0.012 0.0124,-0.006 0.0306,-0.012 0.0404,-0.012 0.01,0 0.0223,-0.006 0.0276,-0.0121 0.006,-0.006 0.0163,-0.012 0.0241,-0.012 0.008,0 0.0165,-0.004 0.0193,-0.008 0.002,-0.005 0.0146,-0.008 0.0265,-0.008 0.012,0 0.0285,-0.006 0.037,-0.012 0.008,-0.006 0.0204,-0.012 0.0265,-0.012 0.006,-1.5e-4 0.0169,-0.005 0.0236,-0.0109 0.0214,-0.0182 0.0958,-0.0366 0.19443,-0.0482 0.0877,-0.0108 0.15296,-0.0296 0.15296,-0.0452 0,-0.004 0.005,-0.006 0.0108,-0.006 0.006,0 0.0228,-0.0108 0.0375,-0.0235 0.0147,-0.013 0.0296,-0.0236 0.0331,-0.0236 0.004,-6e-5 0.0123,-0.006 0.0193,-0.0129 0.0196,-0.0196 0.0878,-0.0108 0.11612,0.016 0.0122,0.0108 0.0281,0.0204 0.0355,0.0204 0.007,0 0.02,0.008 0.028,0.0193 0.008,0.0108 0.0217,0.0212 0.0306,0.0235 0.008,0.002 0.0358,0.0228 0.0595,0.0453 0.0453,0.0429 0.0862,0.0696 0.10636,0.0696 0.006,0 0.012,0.004 0.012,0.008 0,0.01 0.12338,0.0108 0.1274,0.002 0.002,-0.004 0.0146,-0.0143 0.029,-0.0245 l 0.0264,-0.0186 0.0187,-0.14463 c -0.007,-0.007 -0.0124,-0.019 -0.0124,-0.0272 0,-0.008 -0.008,-0.0314 -0.0197,-0.0518 -0.0108,-0.0204 -0.0198,-0.0434 -0.0198,-0.0511 0,-0.007 -0.006,-0.0194 -0.012,-0.0259 -0.006,-0.006 -0.012,-0.0157 -0.012,-0.0202 0,-0.005 -0.004,-0.008 -0.007,-0.008 -0.005,0 -0.0193,-0.01 -0.0335,-0.0225 -0.0306,-0.0266 -0.071,-0.0484 -0.0897,-0.0484 -0.007,0 -0.0245,-0.008 -0.0378,-0.0179 -0.0134,-0.01 -0.0387,-0.0247 -0.056,-0.0329 -0.0189,-0.008 -0.0364,-0.0246 -0.0434,-0.039 -0.0158,-0.0324 -0.12119,-0.1072 -0.15108,-0.1072 -0.0125,0 -0.0354,0.006 -0.051,0.012 -0.0155,0.006 -0.0369,0.0121 -0.0473,0.0121 -0.0108,0 -0.0363,0.008 -0.0573,0.0194 l -0.0384,0.0194 -0.0495,-0.0201 c -0.0534,-0.0217 -0.0906,-0.0213 -0.14511,10e-4 -0.0149,0.006 -0.04,0.0108 -0.0559,0.0108 -0.0159,0 -0.0423,0.004 -0.0585,0.008 -0.0243,0.007 -0.0342,0.006 -0.0553,-0.005 -0.0142,-0.007 -0.0354,-0.0128 -0.0472,-0.0128 -0.0152,0 -0.0228,-0.005 -0.0258,-0.0164 -0.005,-0.0186 0.0127,-0.0394 0.049,-0.0582 0.03,-0.0155 0.0401,-0.0342 0.0401,-0.0747 0,-0.0364 0.0123,-0.0411 0.0523,-0.0202 0.0442,0.0231 0.16098,0.006 0.21877,-0.0317 0.0284,-0.0187 0.0411,-0.0612 0.025,-0.0842 -0.0108,-0.0148 -0.0124,-0.0459 -0.0124,-0.18772 0,-0.0935 0.002,-0.17343 0.007,-0.17754 0.01,-0.0108 0.018,-0.0688 0.0108,-0.0793 -0.004,-0.005 -0.014,-0.0129 -0.0237,-0.0181 -0.0136,-0.007 -0.0177,-0.0163 -0.0177,-0.0388 0,-0.0412 -0.023,-0.0795 -0.0595,-0.0991 -0.084,-0.045 -0.14806,-0.10732 -0.11046,-0.10732 0.0204,0 0.0569,-0.0259 0.0713,-0.0506 0.0147,-0.025 0.0259,-0.0906 0.033,-0.19335 0.002,-0.0323 0.01,-0.0659 0.0152,-0.0747 0.006,-0.008 0.0109,-0.0231 0.0109,-0.0319 10e-6,-0.008 0.007,-0.0355 0.0169,-0.0594 0.0242,-0.0623 0.0396,-0.14897 0.0436,-0.24579 0.005,-0.11708 -0.0123,-0.1746 -0.0701,-0.236 -0.0258,-0.0273 -0.0596,-0.0528 -0.0889,-0.0667 -0.026,-0.0125 -0.049,-0.0245 -0.0512,-0.0267 -0.002,-0.002 -0.019,-0.0139 -0.0375,-0.0258 -0.0405,-0.0263 -0.0424,-0.0372 -0.007,-0.0372 0.0342,0 0.0837,-0.0507 0.0837,-0.0858 0,-0.0125 0.006,-0.0271 0.012,-0.0325 0.006,-0.006 0.012,-0.0135 0.012,-0.018 0,-0.005 0.008,-0.0197 0.0198,-0.034 0.0108,-0.0142 0.0198,-0.03 0.0198,-0.035 0,-0.005 0.006,-0.0208 0.0123,-0.0351 0.01,-0.0205 0.0121,-0.0472 0.01,-0.12729 -0.004,-0.10696 -0.0125,-0.14536 -0.0438,-0.17871 -0.01,-0.01 -0.0172,-0.0222 -0.0172,-0.027 0,-0.0147 -0.0774,-0.0854 -0.11299,-0.1031 -0.0951,-0.0476 -0.22168,-0.0532 -0.30911,-0.0139 -0.0747,0.0336 -0.11286,0.0543 -0.13507,0.0735 -0.0108,0.01 -0.0249,0.0178 -0.0301,0.0178 -0.006,0 -0.0259,0.0145 -0.046,0.0322 -0.0299,0.0264 -0.0366,0.037 -0.0366,0.0587 0,0.0146 0.004,0.0349 0.008,0.0452 0.007,0.0152 0.006,0.0245 -0.008,0.0488 -0.01,0.0166 -0.0188,0.0482 -0.021,0.0703 -0.002,0.0222 -0.008,0.0508 -0.0145,0.0638 -0.0164,0.0377 -0.0266,0.0758 -0.0324,0.11997 -0.006,0.0445 -0.0172,0.0542 -0.053,0.0452 -0.0121,-0.004 -0.0294,1.5e-4 -0.0436,0.007 -0.03,0.0155 -0.0462,0.0157 -0.075,6e-4 -0.0124,-0.006 -0.031,-0.012 -0.0411,-0.012 -0.0188,0 -0.0225,-0.002 -0.0513,-0.0413 -0.0196,-0.0261 -0.033,-0.027 -0.0787,-0.005 -0.0249,0.0122 -0.0538,0.018 -0.10033,0.0201 -0.0471,0.002 -0.0725,0.007 -0.0906,0.0183 -0.0307,0.0187 -0.0555,0.0193 -0.11864,0.004 -0.0366,-0.01 -0.0629,-0.0108 -0.10757,-0.007 -0.0741,0.007 -0.13497,0.006 -0.1411,-0.002 -0.002,-0.004 -0.0169,-0.0125 -0.0318,-0.0195 -0.0249,-0.012 -0.0296,-0.012 -0.059,-1.4e-4 -0.0177,0.007 -0.041,0.0189 -0.0517,0.0265 -0.017,0.012 -0.0514,0.015 -0.24825,0.0223 -0.12571,0.005 -0.2587,0.01 -0.29555,0.012 -0.34918,0.0175 -0.47275,0.0194 -0.50494,0.008 -0.0613,-0.0217 -0.12046,-0.007 -0.13019,0.0317 -0.004,0.0148 -0.012,0.0205 -0.0336,0.0241 -0.0158,0.002 -0.0429,0.008 -0.0603,0.014 -0.029,0.008 -0.0317,0.0121 -0.034,0.0396 -0.005,0.0484 0.0108,0.0583 0.0923,0.0615 0.0597,0.002 0.0728,0.006 0.096,0.0231 0.0444,0.0336 0.13759,0.05 0.16426,0.0289 0.01,-0.007 0.07,-0.01 0.25478,-0.007 l 0.24235,0.002 v 0.0189 c 0,0.0283 0.0344,0.0516 0.0765,0.0516 0.0495,0 0.0654,-0.0108 0.0654,-0.0436 v -0.0273 h 0.10612 0.10612 l 0.008,0.033 c 0.005,0.0182 0.017,0.0439 0.027,0.0571 0.01,0.0134 0.0205,0.0322 0.0235,0.0419 0.002,0.01 0.008,0.0177 0.0128,0.0177 0.005,0 0.007,0.006 0.007,0.0121 0,0.006 0.002,0.0121 0.007,0.0121 0.005,0 0.01,0.008 0.0125,0.0177 0.006,0.021 0.0252,0.0672 0.0358,0.0866 0.005,0.007 0.007,0.0191 0.007,0.0259 0,0.007 0.006,0.0142 0.012,0.0167 0.006,0.002 0.012,0.0131 0.012,0.0236 0,0.0108 0.006,0.0212 0.012,0.0236 0.006,0.002 0.012,0.01 0.012,0.0155 0,0.006 0.004,0.0108 0.006,0.0108 0.004,0 0.01,0.0108 0.0139,0.0252 0.008,0.0289 0.0432,0.0523 0.0785,0.0531 0.013,2.9e-4 0.0361,0.005 0.0512,0.01 0.10829,0.0334 0.2149,0.0473 0.30928,0.0407 l 0.0611,-0.005 1.2e-4,0.0267 c 6e-5,0.0148 0.002,0.0317 0.007,0.0378 0.005,0.006 0.004,0.0202 -10e-4,0.0335 -0.007,0.0216 -0.01,0.0225 -0.0571,0.0225 -0.0373,0 -0.052,0.004 -0.0606,0.0139 -0.0234,0.0283 -0.0383,0.0744 -0.0384,0.11853 -5e-5,0.0248 -0.006,0.061 -0.0124,0.0803 -0.007,0.0194 -0.0134,0.0619 -0.0147,0.0946 -0.002,0.0605 -0.0172,0.16244 -0.0254,0.1757 -0.002,0.005 -0.007,0.0274 -0.0108,0.0518 -0.004,0.0245 -0.01,0.0605 -0.0145,0.08 -0.0108,0.046 -0.0108,0.13168 -10e-4,0.13793 0.018,0.0108 -0.006,0.0592 -0.0291,0.0592 -0.006,0 -0.0157,0.008 -0.0228,0.0196 -0.012,0.0183 -0.012,0.0216 0.002,0.0482 l 0.0149,0.0287 -0.0266,0.0266 c -0.0147,0.0147 -0.0312,0.0266 -0.0367,0.0266 -0.0108,0 -0.0648,0.0508 -0.11443,0.10672 -0.0152,0.0172 -0.0347,0.0369 -0.0434,0.044 -0.0288,0.0234 -0.11792,0.12677 -0.13427,0.15571 -0.008,0.0158 -0.0313,0.0516 -0.0497,0.0797 -0.0381,0.0579 -0.0391,0.0826 -0.005,0.11841 0.024,0.0249 0.0248,0.0485 0.004,0.078 -0.0186,0.0252 -0.0465,0.11769 -0.0465,0.1541 0,0.0462 0.0272,0.10094 0.064,0.12834 0.019,0.0141 0.0388,0.0293 0.044,0.0335 0.006,0.004 0.0258,0.007 0.0457,0.007 0.0199,0 0.0461,0.006 0.0584,0.012 0.0193,0.01 0.0242,0.01 0.0371,2.9e-4 0.008,-0.006 0.0261,-0.0108 0.04,-0.012 0.0139,-1.5e-4 0.0273,-0.004 0.03,-0.008 0.002,-0.005 0.0108,-0.008 0.0182,-0.008 0.007,-2e-5 0.0235,-0.006 0.0359,-0.012 0.0124,-0.006 0.0287,-0.0121 0.0363,-0.0121 0.007,0 0.0199,-0.007 0.0275,-0.0152 0.007,-0.008 0.0249,-0.0208 0.0387,-0.0278 0.0137,-0.007 0.0302,-0.0155 0.0367,-0.019 0.0382,-0.0208 0.0495,-0.0247 0.0728,-0.0247 0.0142,-2e-5 0.0359,-0.006 0.0483,-0.012 0.0259,-0.0135 0.14302,-0.0165 0.15082,-0.004 0.013,0.0209 0.19309,-0.002 0.19309,-0.0246 0,-0.004 0.006,-0.007 0.0142,-0.007 0.008,0 0.0183,-0.005 0.0232,-0.01 0.007,-0.007 0.008,0.005 0.008,0.0476 -3.2e-4,0.0417 0.004,0.0603 0.0123,0.0707 0.007,0.007 0.0128,0.0183 0.0128,0.0235 0,0.0159 0.0911,0.0453 0.11588,0.0373 0.01,-0.004 0.0231,0.001 0.0359,0.0109 0.0108,0.008 0.0237,0.0159 0.028,0.0159 0.005,0 0.0178,0.006 0.0302,0.012 0.0124,0.006 0.0392,0.012 0.0595,0.012 0.0204,2e-5 0.0391,0.004 0.0418,0.008 0.002,0.005 0.0275,0.008 0.0552,0.008 0.0277,0 0.0525,-0.004 0.0552,-0.008 z m -1.00848,-2.47419 c -0.006,-0.0108 -0.0469,-0.0297 -0.075,-0.0359 -0.013,-0.004 -0.0257,-0.008 -0.0282,-0.0125 -0.002,-0.004 -0.012,-0.007 -0.0204,-0.007 -0.0109,0 -0.0151,-0.005 -0.0132,-0.0138 0.005,-0.021 0.14064,-0.0243 0.17756,-0.004 0.0324,0.0175 0.0325,0.0288 3.1e-4,0.0581 -0.0272,0.0248 -0.0341,0.0275 -0.0413,0.0158 z"
         id="path19-5-6"
         sodipodi:nodetypes="csssssssscssssscssssssssssccssssssssssssssscssssssssssssssssssssssssssssssssssssssssssssssssssscssssssssssssssssssssssscssscccssssssssssssssssssccsssscssssssssscsssssssssssssccsssssssssssssssssssssssccsssssssss" /></g></g></svg>
