<?xml version="1.0" encoding="UTF-8" standalone="no"?>
<!-- Created with Inkscape (http://www.inkscape.org/) -->

<svg
   width="17.871159mm"
   height="5.6084213mm"
   viewBox="0 0 17.871159 5.6084213"
   version="1.1"
   id="svg1"
   sodipodi:docname="inkporter-svg-ykj1i7kt.svg"
   xmlns:inkscape="http://www.inkscape.org/namespaces/inkscape"
   xmlns:sodipodi="http://sodipodi.sourceforge.net/DTD/sodipodi-0.dtd"
   xmlns="http://www.w3.org/2000/svg"
   xmlns:svg="http://www.w3.org/2000/svg">
  <sodipodi:namedview
     id="namedview1"
     pagecolor="#ffffff"
     bordercolor="#666666"
     borderopacity="1.0"
     inkscape:showpageshadow="2"
     inkscape:pageopacity="0.0"
     inkscape:pagecheckerboard="0"
     inkscape:deskcolor="#d1d1d1"
     inkscape:document-units="mm"
     inkscape:zoom="0.72782688"
     inkscape:cx="396.38547"
     inkscape:cy="561.25984"
     inkscape:window-width="1920"
     inkscape:window-height="1017"
     inkscape:window-x="-8"
     inkscape:window-y="-8"
     inkscape:window-maximized="1"
     inkscape:current-layer="layer1" />
  <defs
     id="defs1" />
  <g
     inkscape:label="Layer 1"
     inkscape:groupmode="layer"
     id="layer1"
     transform="translate(-110.33125,-92.07501)">
    <g
       id="B-Infantry-MG5-2inch"
       transform="translate(-403.00956,-465.83806)">
      <path
         d="m 516.27268,560.57918 c -0.0686,-0.006 -0.21797,0.0401 -0.2787,0.0974 -0.0582,0.0549 -0.0621,0.0536 -0.13991,-0.0474 l -0.08,-0.10405 0.0106,0.091 c 0.007,0.0585 -0.0109,0.11447 -0.0493,0.15657 -0.0329,0.036 -0.055,0.086 -0.0489,0.11114 0.006,0.025 -0.0242,0.0727 -0.0671,0.10566 -0.10056,0.0773 -0.10714,0.14075 -0.0229,0.22169 l 0.0675,0.065 -0.17443,0.14387 c -0.13337,0.11004 -0.17323,0.16343 -0.16949,0.22678 0.003,0.0483 -0.0309,0.1287 -0.081,0.19266 -0.0472,0.0604 -0.0924,0.16072 -0.10055,0.22301 -0.008,0.0623 -0.044,0.17468 -0.0797,0.24969 -0.11221,0.23585 -0.13945,0.39719 -0.0871,0.51574 0.0418,0.0945 0.0753,0.11537 0.28585,0.17834 0.13116,0.039 0.2626,0.0884 0.29215,0.10938 0.0295,0.0211 0.0808,0.0414 0.11399,0.0458 0.0331,0.004 0.0755,0.0278 0.0942,0.0519 0.026,0.0336 0.0552,0.0374 0.12451,0.0163 0.0499,-0.0154 0.11902,-0.0241 0.15364,-0.0195 0.0923,0.0121 0.11805,-0.0401 0.0775,-0.1573 -0.0197,-0.057 -0.0264,-0.1109 -0.0148,-0.1198 l 0.19863,-0.039 c 0.007,-0.002 0.0139,-0.002 0.0206,-0.002 0.0201,-3.9e-4 0.0376,0.008 0.0431,0.0202 0.008,0.0166 0.0788,0.0558 0.15867,0.0874 0.12089,0.048 0.14349,0.0706 0.13494,0.13603 -0.008,0.064 -0.036,0.0816 -0.14877,0.0951 l -0.13852,0.0165 c 0,0 -0.0861,0.023 -0.12594,0.0477 -0.0355,0.0196 -0.0846,0.0329 -0.109,0.0297 -0.0244,-0.003 -0.0632,0.0259 -0.0862,0.0648 0,0 0.0219,0.007 0.16601,0.0579 0.0329,0.0134 0.17076,0.002 0.30638,-0.0247 0.13564,-0.027 0.25807,-0.0397 0.2721,-0.0283 0.014,0.0119 0.0358,0.009 0.0483,-0.007 0.0197,-0.0243 0.17642,-0.0492 0.41679,-0.0663 0.0376,-0.003 0.13957,-0.0172 0.22671,-0.0321 0.0872,-0.0151 0.20348,-0.0145 0.25851,10e-4 0.0719,0.0203 0.12219,0.0119 0.17895,-0.0324 0.10926,0.0244 0.21808,-0.0505 0.32623,-0.0792 0.0335,-0.009 0.0552,-0.0292 0.0478,-0.0453 -0.0117,-0.0257 0.19301,-0.0857 0.43329,-0.12692 0.0559,-0.01 0.0795,-0.0351 0.0787,-0.0849 -10e-4,-0.0541 -0.0392,-0.0864 -0.15941,-0.13426 -0.0955,-0.038 -0.1813,-0.0543 -0.21621,-0.0412 -0.0334,0.0126 -0.0765,0.006 -0.10218,-0.0134 -0.0361,-0.0299 -0.0332,-0.0355 0.0161,-0.0294 0.033,0.004 0.0538,-0.007 0.0459,-0.0246 -0.0232,-0.0514 0.0658,-0.0872 0.22941,-0.0922 0.084,-0.003 0.17341,-0.0174 0.19866,-0.0327 0.0624,-0.0382 0.0759,-0.18678 0.0251,-0.27608 -0.0371,-0.0654 -0.084,-0.0793 -0.44445,-0.13131 l -0.40284,-0.0587 -0.0379,-0.11453 c -0.0209,-0.063 -0.0588,-0.12986 -0.0842,-0.1485 -0.23888,-0.17478 -0.41849,-0.33 -0.51208,-0.44244 -0.0616,-0.074 -0.13979,-0.14363 -0.17376,-0.15483 -0.0368,-0.0119 -0.0621,-0.0544 -0.0626,-0.10469 -10e-4,-0.11307 -0.0394,-0.13887 -0.24722,-0.16665 -0.10906,-0.0143 -0.16688,-0.0354 -0.15152,-0.0541 0.0136,-0.0168 10e-4,-0.0336 -0.027,-0.0373 -0.0583,-0.008 -0.36655,-0.21719 -0.39459,-0.26827 -0.003,-0.005 -0.009,-0.009 -0.0173,-0.0124 -0.004,-5.2e-4 -0.01,-10e-4 -0.0157,-0.002 z m 1.05799,1.48681 c 0.003,4.2e-4 0.005,6.5e-4 0.007,9.1e-4 0.0188,0.01 0.0324,0.0308 0.0301,0.0482 -0.002,0.0172 -0.021,0.0348 -0.0415,0.0388 -0.0206,0.004 -0.034,-0.0177 -0.03,-0.0482 0.003,-0.0228 0.0141,-0.0384 0.0276,-0.0409 0.003,3.9e-4 0.004,5.2e-4 0.007,9.1e-4 z m -1.77247,0.42974 c 0.0224,0.003 0.0535,0.0276 0.0959,0.0738 0.0478,0.0522 0.10026,0.0967 0.11657,0.0988 0.0164,0.002 0.0173,0.0268 0.002,0.0544 -0.015,0.0279 -0.008,0.0665 0.0152,0.086 0.0328,0.0275 0.0275,0.0334 -0.0239,0.027 -0.0897,-0.0117 -0.26216,-0.19285 -0.25264,-0.26565 0.006,-0.0497 0.0198,-0.0744 0.0422,-0.0745 10e-4,1.3e-4 0.003,3.9e-4 0.004,5.2e-4 z"
         style="fill:#000000;stroke-width:0.0335218"
         id="path6401-8-6" />
      <path
         d="m 523.91113,558.0727 c -0.0877,-0.006 -0.29832,0.0649 -0.36354,0.12201 -0.0346,0.0304 -0.0601,0.0327 -0.0862,0.008 -0.0492,-0.0466 -0.1322,0.0356 -0.16956,0.16788 -0.0251,0.0886 -0.0181,0.1053 0.0655,0.15572 0.0983,0.0593 0.11405,0.11411 0.0491,0.17095 -0.0295,0.0258 -0.0291,0.0477 0.002,0.0902 0,0 0.0348,0.0663 0.034,0.17253 -0.031,0.0433 0.0692,0.1083 0.15128,0.0981 0.0689,-0.008 0.0793,0.002 0.0746,0.0728 -0.004,0.0503 0.0199,0.10095 0.0591,0.12919 0.0594,0.0427 0.0614,0.0617 0.0258,0.23909 -0.0213,0.10593 -0.0445,0.26708 -0.0517,0.35813 -0.0109,0.13581 -0.0229,0.16485 -0.0682,0.16185 -0.0304,-0.002 -0.0545,-0.0148 -0.0536,-0.0288 0.004,-0.0593 -0.27505,-0.28439 -0.36989,-0.29846 -0.11051,-0.0168 -0.52228,-0.30711 -0.5467,-0.38596 -0.008,-0.0273 -0.0308,-0.0505 -0.0497,-0.0517 -0.019,-9.4e-4 -0.0265,0.0125 -0.017,0.0306 0.01,0.018 0.009,0.0323 -9.4e-4,0.0316 -0.0101,-6.7e-4 -0.0294,-0.0369 -0.0428,-0.0807 -0.0209,-0.0681 -0.0413,-0.0791 -0.14343,-0.0767 -0.15418,0.004 -0.16827,0.0475 -0.0563,0.17524 0.0499,0.057 0.0901,0.11513 0.0892,0.12912 -9.3e-4,0.014 0.0226,0.0356 0.0523,0.048 0.0684,0.0285 0.37877,0.23172 0.41612,0.27243 0.0175,0.0192 0.0139,0.0295 -0.009,0.028 -0.0772,-0.005 -0.0654,0.32881 0.0211,0.5948 0.045,0.13851 0.08,0.28354 0.0777,0.32231 -0.002,0.0387 0.005,0.0656 0.0165,0.0597 0.0112,-0.006 0.0561,0.0863 0.0996,0.20521 0.0537,0.14664 0.12086,0.257 0.20921,0.3435 0.15663,0.15335 0.26777,0.17065 0.41282,0.064 0.0563,-0.0414 0.10194,-0.0673 0.1013,-0.0576 -6.4e-4,0.01 -0.0427,0.0948 -0.0937,0.18911 -0.0509,0.0942 -0.0911,0.20251 -0.0894,0.24061 9.4e-4,0.0381 -0.0103,0.1122 -0.026,0.16477 -0.016,0.0525 -0.0173,0.13298 -0.004,0.17874 0.014,0.0457 0.0159,0.0915 0.005,0.10173 -0.0116,0.0101 -0.0273,0.0498 -0.0348,0.0881 -0.008,0.0383 -0.0228,0.1064 -0.0341,0.15137 -0.0147,0.059 -2.2e-4,0.10348 0.0523,0.15947 0.0833,0.0893 0.0859,0.14425 0.0135,0.28874 -0.0768,0.15348 -0.2225,0.26108 -0.36169,0.26716 -0.12304,0.005 -0.25013,0.0797 -0.25471,0.14906 -0.002,0.0213 0.0491,0.0646 0.11249,0.0959 0.14083,0.0696 0.28681,0.0838 0.45855,0.0446 0.10197,-0.0234 0.13238,-0.0214 0.14038,0.009 0.0119,0.0453 0.25023,0.068 0.31928,0.0306 0.0355,-0.0194 0.0432,-0.0642 0.0337,-0.19535 -0.026,-0.35613 -0.0114,-0.57092 0.0418,-0.61786 0.028,-0.0245 0.0491,-0.0751 0.0469,-0.11227 -0.002,-0.0372 0.008,-0.0845 0.023,-0.10546 0.015,-0.0208 0.0264,-0.12882 0.0255,-0.24002 -0.002,-0.18929 0.003,-0.20402 0.0759,-0.23154 0.0427,-0.016 0.0893,-0.0655 0.10356,-0.10962 l 0.0258,-0.0803 0.0634,0.10888 c 0.0349,0.0599 0.083,0.18487 0.10697,0.27774 0.024,0.0928 0.0761,0.19814 0.11605,0.23403 0.0428,0.0385 0.0703,0.0982 0.0672,0.14555 -0.005,0.0695 0.01,0.0826 0.10917,0.0977 0.1338,0.0204 0.1816,0.0889 0.14385,0.20596 -0.0274,0.0853 -0.039,0.0922 -0.19308,0.11538 -0.16664,0.0251 -0.1601,0.26201 0.008,0.27637 0.0332,0.002 0.11361,-0.002 0.17857,-0.009 0.089,-0.0109 0.13001,-9.4e-4 0.16597,0.0399 0.0281,0.0321 0.0997,0.058 0.17372,0.0629 l 0.12585,0.008 -0.0126,-0.15083 c -0.007,-0.083 -0.0263,-0.19474 -0.0431,-0.24843 -0.0169,-0.0538 -0.0253,-0.13297 -0.0187,-0.1761 0.007,-0.0431 -0.007,-0.10215 -0.0287,-0.13115 -0.0224,-0.0288 -0.0428,-0.0948 -0.0455,-0.14623 -0.002,-0.0515 -0.0376,-0.15421 -0.0778,-0.22839 -0.0403,-0.0742 -0.10833,-0.22817 -0.1513,-0.34216 -0.0429,-0.11398 -0.0991,-0.2269 -0.1246,-0.25088 -0.0356,-0.0335 -0.0389,-0.0707 -0.014,-0.15937 0.0178,-0.0637 0.06,-0.25396 0.0937,-0.42285 0.0531,-0.26578 0.073,-0.31568 0.14769,-0.37056 0.0475,-0.0349 0.0887,-0.0704 0.0914,-0.079 0.004,-0.008 0.0247,-0.0522 0.0489,-0.0969 0.0355,-0.0659 0.0362,-0.0996 0.003,-0.17731 -0.0355,-0.0845 -0.0342,-0.099 0.008,-0.12241 0.0421,-0.0227 0.0435,-0.0367 0.0103,-0.0991 -0.0217,-0.0405 -0.0708,-0.0747 -0.111,-0.0774 -0.0478,-0.003 -0.0804,-0.032 -0.0968,-0.0857 -0.0136,-0.0445 -0.0389,-0.0818 -0.056,-0.0829 -0.0173,-9.5e-4 -0.0219,-0.0226 -0.0102,-0.0479 0.0122,-0.0262 -1.1e-4,-0.0556 -0.0279,-0.0685 -0.027,-0.0124 -0.0403,-0.0352 -0.0294,-0.0504 0.0109,-0.0152 -0.0324,-0.11803 -0.096,-0.22851 -0.0636,-0.11043 -0.1148,-0.21455 -0.11369,-0.23133 9.4e-4,-0.0168 -0.0461,-0.0978 -0.10483,-0.18001 -0.1075,-0.15045 -0.34526,-0.31893 -0.46088,-0.32658 -0.10218,-0.007 -0.10035,-0.0609 0.002,-0.0744 0.0919,-0.0123 0.133,-0.0826 0.0732,-0.12526 -0.0156,-0.0109 -0.017,-0.0691 -0.003,-0.12885 0.0217,-0.0941 0.0167,-0.10923 -0.0386,-0.11288 -0.0398,-0.003 -0.0609,-0.0236 -0.0559,-0.0557 0.008,-0.0595 -0.22293,-0.21629 -0.33054,-0.22341 z m -0.80676,2.001 c 0.003,2.2e-4 0.005,3.1e-4 0.008,5e-4 0.0257,0.006 0.0572,0.0293 0.0931,0.0745 0.0291,0.0368 0.0916,0.0695 0.13898,0.0726 0.058,0.004 0.0899,0.0256 0.0978,0.0664 l 0.0285,0.14606 c 0.0103,0.004 0.0196,0.008 0.0295,0.0181 0.0257,0.0243 0.0453,0.0643 0.0437,0.0891 -0.002,0.0247 0.015,0.0421 0.0371,0.0389 0.0439,-0.007 0.22037,0.14742 0.2334,0.18454 l 0.0325,0.0925 c 0.006,0.0168 0.0197,0.0252 0.004,0.0557 -0.015,0.0294 -0.0592,0.12998 -0.0982,0.22325 -0.039,0.0933 -0.10412,0.19208 -0.14468,0.21952 -0.0406,0.0275 -0.0829,0.0496 -0.0939,0.0492 -0.0409,-0.003 -0.19278,-0.25846 -0.19252,-0.25708 l 9.5e-4,6e-5 c 6e-5,4e-5 -0.0493,-0.10448 -0.075,-0.18025 -0.13398,-0.34179 -0.1131,-0.34779 -0.1131,-0.34779 l -0.0556,-0.18609 c -0.0656,-0.21947 -0.045,-0.3663 0.0267,-0.36051 z"
         style="fill:#000000;stroke-width:0.0316219"
         id="path6329-3-7-7" />
      <path
         d="m 526.12588,558.1648 c 0.0307,-0.003 0.0672,-0.003 0.11194,-0.004 0.13987,-0.003 0.21692,0.01 0.22713,0.0367 0.009,0.0223 0.0857,0.0956 0.17143,0.1629 0.10999,0.0862 0.13691,0.12 0.0911,0.11445 -0.0628,-0.008 -0.063,-0.005 -0.008,0.0916 0.0314,0.0548 0.0833,0.10601 0.11523,0.11388 0.12179,0.03 0.30712,0.20282 0.53716,0.50103 0.13117,0.17002 0.25156,0.32218 0.2676,0.33807 0.016,0.0159 0.0829,0.0984 0.14844,0.18337 0.071,0.0921 0.14176,0.15259 0.17509,0.14976 0.0694,-0.006 0.14555,0.10246 0.11048,0.15728 -0.0139,0.0217 -0.0221,0.11667 -0.0184,0.21119 0.006,0.15809 -0.0279,0.27728 -0.0694,0.24224 -0.0423,-0.0357 -0.16067,0.36869 -0.14555,0.4971 0.006,0.0427 0.0143,0.13362 0.0191,0.20218 0.0359,0.45857 0.0606,0.59432 0.12472,0.67923 0.0367,0.0486 0.12328,0.16122 0.19231,0.25021 0.069,0.089 0.12297,0.17421 0.11985,0.18933 -0.003,0.015 0.0196,0.0428 0.0501,0.0615 0.0371,0.0226 0.045,0.0421 0.0235,0.058 -0.023,0.017 -0.0161,0.0649 0.0241,0.16613 0.0309,0.0782 0.0513,0.17292 0.0451,0.21045 -0.006,0.0375 0.0161,0.11903 0.0478,0.18125 0.0324,0.0622 0.0634,0.16603 0.0688,0.23079 0.009,0.11063 0.002,0.12124 -0.11845,0.17472 -0.0707,0.0313 -0.22235,0.0666 -0.33713,0.0786 -0.18185,0.0194 -0.21384,0.0141 -0.24891,-0.0402 -0.0321,-0.0493 -0.0303,-0.0748 0.008,-0.12531 0.0265,-0.0349 0.0706,-0.0726 0.0979,-0.0839 0.071,-0.0294 0.14093,-0.216 0.12176,-0.32485 -0.036,-0.20485 -0.0719,-0.25374 -0.17585,-0.24029 -0.0742,0.0103 -0.10132,-0.002 -0.1149,-0.0487 -0.01,-0.0337 -0.0763,-0.11494 -0.14777,-0.18061 -0.0767,-0.0705 -0.1486,-0.17356 -0.17546,-0.25163 -0.025,-0.0728 -0.0781,-0.19295 -0.11789,-0.26719 -0.0399,-0.0742 -0.0876,-0.18097 -0.10612,-0.23724 -0.0336,-0.10185 -0.0341,-0.1012 -0.11991,0.16696 -0.0565,0.17645 -0.0793,0.30514 -0.0665,0.37361 0.0109,0.0574 0.008,0.1141 -0.007,0.12598 -0.0144,0.012 -0.0573,0.097 -0.0955,0.18927 -0.0719,0.1743 -0.0694,0.24865 0.0158,0.46579 0.0696,0.17751 0.0289,0.29352 -0.10757,0.30508 -0.0569,0.005 -0.11928,-0.005 -0.13856,-0.0208 -0.0243,-0.0204 -0.0766,-0.0148 -0.17001,0.0194 -0.13465,0.0485 -0.37397,0.0523 -0.46211,0.007 -0.0338,-0.0174 -0.0395,-0.0456 -0.0229,-0.11473 0.0184,-0.0764 0.0435,-0.0965 0.15006,-0.1203 0.0744,-0.0168 0.15909,-0.0632 0.2024,-0.1112 0.1321,-0.14661 0.18582,-0.42599 0.0874,-0.45449 -0.0467,-0.0135 -0.0735,-0.24173 -0.0345,-0.28858 0.0108,-0.0128 0.005,-0.097 -0.0129,-0.18716 -0.0187,-0.0915 -0.0222,-0.20312 -0.008,-0.25303 0.014,-0.0491 0.0273,-0.14948 0.0294,-0.22293 0.004,-0.1321 0.003,-0.13351 -0.0944,-0.12577 -0.054,0.005 -0.11318,-10e-4 -0.13147,-0.0122 -0.0898,-0.0547 -0.33215,-0.37804 -0.35864,-0.47862 -0.007,-0.0252 -0.0757,-0.17467 -0.1533,-0.33191 -0.0967,-0.19577 -0.14799,-0.34299 -0.16293,-0.46702 -0.0223,-0.18055 -0.0224,-0.18147 -0.18722,-0.27324 -0.0909,-0.0507 -0.20627,-0.12409 -0.25633,-0.16318 -0.084,-0.0656 -0.0867,-0.073 -0.0343,-0.0969 0.0311,-0.0144 0.0662,-0.032 0.0778,-0.0397 0.0117,-0.008 0.0485,0.009 0.082,0.0371 0.0963,0.0806 0.45145,0.22156 0.53954,0.2141 0.0441,-0.004 0.12954,0.0292 0.18989,0.0729 0.10791,0.0785 0.31512,0.14988 0.34209,0.11793 0.007,-0.009 0.0108,-0.10458 0.007,-0.21246 -0.003,-0.10788 -0.002,-0.24237 0.003,-0.29895 0.007,-0.071 -0.0166,-0.14888 -0.0744,-0.25122 -0.0708,-0.12533 -0.0942,-0.14469 -0.15068,-0.12532 -0.0866,0.0298 -0.17671,-0.0808 -0.19841,-0.24351 -0.0109,-0.0809 -0.0396,-0.1347 -0.0907,-0.16935 -0.0926,-0.0629 -0.10205,-0.14199 -0.0259,-0.22283 0.0317,-0.0339 0.0559,-0.0795 0.054,-0.10133 -0.002,-0.022 0.0357,-0.0728 0.0833,-0.11317 0.055,-0.0466 0.0945,-0.065 0.18633,-0.0725 z m -0.39587,1.9401 c -0.0292,-5.4e-4 0.0287,0.20277 0.11678,0.39266 l 0.19284,0.38586 c 7.6e-4,0.009 0.0446,0.0819 0.0971,0.16171 0.0526,0.0798 0.1061,0.13648 0.11401,0.14282 l 0.0985,0.0786 c 0.0267,0.0214 0.0834,0.0322 0.12278,0.0288 0.0717,-0.006 0.12893,-0.12191 0.16072,-0.32537 0.007,-0.0447 0.0237,-0.0899 0.0371,-0.1006 0.0134,-0.0112 -10e-4,-0.0489 -0.0316,-0.0864 l -0.11257,-0.14116 c -0.0128,-0.0161 -0.0532,-0.0423 -0.09,-0.0577 -0.064,-5.9e-4 -0.11818,-0.0389 -0.11818,-0.0389 l -0.0984,-0.0881 c -0.0541,-0.0484 -0.11893,-0.12518 -0.14404,-0.17043 -0.0251,-0.0453 -0.0704,-0.0802 -0.10072,-0.0777 -0.0609,0.005 -0.18675,-0.0452 -0.22642,-0.0906 -0.008,-0.009 -0.0139,-0.0133 -0.018,-0.0132 z"
         style="fill:#000000;stroke-width:0.031242"
         id="path6346-9-3-9" />
      <path
         d="m 513.60689,561.53329 -0.26608,0.15572 0.66603,1.18115 -0.0325,0.11931 -0.14285,0.005 -0.011,0.28718 -0.24905,-0.005 v 0.14286 l 2.02725,0.0171 0.009,-0.16218 -0.20701,-0.0301 -0.81366,-0.0259 0.0845,-0.60682 h -0.12653 l -0.0601,0.1964 -0.19064,-0.005 -0.0998,-0.21417 v -0.35451 l -0.19631,-0.005 z"
         id="path25"
         style="stroke-width:1.56982" />
      <path
         d="m 529.61447,557.91379 c -0.2563,-0.006 -0.34486,0.30059 -0.41235,0.39431 -0.0675,0.095 -0.0469,0.095 -0.0249,0.11575 0.022,0.0193 0.1478,0.077 0.1478,0.077 0,0 0.033,0.073 0.0496,0.0951 0.018,0.022 0.0455,0.11732 0.0455,0.11732 0,0 -0.0471,0.0425 -0.12557,0.0935 -0.0772,0.0482 -0.12261,0.16798 -0.15711,0.20929 -0.0344,0.04 -0.14449,0.18917 -0.2217,0.24288 -0.079,0.051 -0.0734,0.10853 -0.0734,0.10853 0,0 -0.0214,0.0281 -0.0315,0.0331 -0.0108,0.006 -0.0264,0.18756 -0.0264,0.18756 l -0.0164,0.0439 c 0,0 -0.038,0.0307 -0.0299,0.13126 0.007,0.10059 0.0747,0.24505 0.0827,0.26715 0.007,0.022 0.0894,0.036 0.11009,0.047 0.0196,0.0124 0.0164,0.0246 0.0164,0.0728 0,0.0483 0.0651,0.0718 0.0651,0.0718 0,0 0.0606,0.32489 0.11988,0.5302 0.0606,0.20535 0.26046,0.36693 0.26046,0.36693 l -0.0124,0.0754 c 0,0 -0.007,0.1574 -0.018,0.19741 -0.01,0.0413 0.0233,0.35933 0.0233,0.44751 0,0.0868 0.0225,0.13251 0.0444,0.2 0.0236,0.0675 0.0354,0.20926 0.0274,0.27956 -0.007,0.0702 0.19275,0.1478 0.19275,0.1478 0,0 0.0772,0.16928 0.0853,0.19687 0.007,0.0276 0.0416,0.16264 0.0346,0.19844 -0.008,0.0345 -0.008,0.0894 -0.018,0.13901 -0.01,0.051 -0.0344,0.0636 -0.062,0.10078 -0.0276,0.0372 -0.0455,0.13385 -0.0455,0.13385 0,0 0.0829,0.10094 0.19999,0.0909 0.11714,-0.01 0.19857,-0.091 0.23305,-0.15295 0.0344,-0.062 0.0177,-0.21498 0.0177,-0.21498 l 0.0164,-0.0388 c 0,0 0.018,-0.17481 0.018,-0.18862 0,-0.0124 -0.0543,-0.14018 -0.0739,-0.17828 0.004,0.003 0.0375,0.0254 0.11526,0.0915 0.0827,0.0703 0.062,0.0825 0.062,0.13486 0,0.0524 0.0185,0.26461 0.0156,0.27699 -0.003,0.0124 -0.0581,0.15571 -0.0651,0.1819 -0.007,0.0276 -0.0948,0.19037 -0.0879,0.20825 0.008,0.018 0.0605,0.0349 0.11007,0.0429 0.0496,0.007 0.19569,-0.008 0.23979,-0.0249 0.0455,-0.018 0.14314,-0.0262 0.16793,-0.0362 0.0251,-0.01 -0.005,-0.0577 -0.008,-0.10181 -0.003,-0.0455 -1.3e-4,-0.21095 0.0109,-0.24545 0.009,-0.0344 0.0151,-0.1764 0.0151,-0.19431 0,-0.018 0.005,-0.0577 0.0103,-0.0853 0.005,-0.0275 -0.008,-0.14158 -0.008,-0.14158 0,0 0.003,-0.0156 0.0331,-0.0403 0.0303,-0.0249 0.055,-0.0482 0.062,-0.0703 0.008,-0.0233 -0.0243,-0.0994 -0.0274,-0.16277 -0.003,-0.062 -0.003,-0.16918 -0.0249,-0.19947 -0.0217,-0.0303 -0.007,-0.12031 0.003,-0.1478 0.01,-0.0276 0.0981,-0.30422 0.0951,-0.46405 -0.003,-0.16121 0.0373,-0.19606 0.0594,-0.25117 0.0236,-0.0551 0.0481,-0.39688 0.0481,-0.39688 l 0.0175,0.0842 c 0,0 0.044,0.0565 0.047,0.008 0.003,-0.0482 -0.01,-0.20259 -0.01,-0.20259 0,0 0.19701,-0.0803 0.24392,-0.0982 0.0483,-0.0164 0.0302,-0.14431 0.0151,-0.19119 -0.0151,-0.0469 -0.0768,-0.35274 -0.0868,-0.39275 -0.01,-0.0396 -0.0696,-0.0486 -0.0796,-0.0496 -0.01,-0.003 -0.10118,-0.0303 -0.0982,-0.0455 0.003,-0.0138 0.0333,-0.1175 -0.007,-0.17259 -0.04,-0.0551 -0.11316,-0.31678 -0.11316,-0.31678 l 0.0455,-0.0884 -0.0703,-0.46405 c 0,0 0.0103,-0.20553 0.0103,-0.29094 0,-0.0843 -0.0951,-0.0925 -0.0951,-0.0925 l -0.0372,-0.0589 h -0.15452 c -0.051,0 -0.29072,-0.01 -0.30591,-0.0124 -0.0138,-0.003 -0.0376,-0.0127 -0.0346,-0.0403 0.003,-0.0275 -0.0427,-0.0851 -0.0579,-0.10438 -0.0151,-0.0206 -0.10181,-0.25524 -0.12663,-0.28834 -0.0249,-0.0331 -0.11282,-0.19291 -0.37052,-0.1969 z m -0.48937,2.38384 c 0,0 0.0494,-0.003 0.0646,0.0124 0.0148,0.0151 0.013,0.0524 0.018,0.0703 0.004,0.0164 0.1075,0.11316 0.1075,0.11316 0,0 0.0198,0.0773 0.0249,0.10491 0.004,0.0276 0.0453,0.11819 0.077,0.14161 0.0336,0.022 0.0279,0.10231 0.0279,0.10231 0,0 0.01,0.0606 -0.018,0.0827 -0.0262,0.0233 -0.007,0.0977 -0.007,0.0977 l -0.0754,-0.0579 c -0.0413,-0.0441 -0.12951,-0.20659 -0.1447,-0.27959 -0.0151,-0.0716 -0.0594,-0.3297 -0.0594,-0.3297 z m 0.91779,1.13171 c 0.0278,0.0758 0.0372,0.0975 0.0249,0.22841 -0.0124,0.12954 -0.0305,0.2744 -0.0305,0.2744 0,0 -0.0429,-0.12277 -0.0553,-0.17518 -0.0124,-0.0524 0.007,-0.21463 0.0156,-0.24495 0.007,-0.0303 0.0455,-0.0827 0.0455,-0.0827 z"
         style="fill:#000000;fill-opacity:1;fill-rule:nonzero;stroke:none;stroke-width:0.352777"
         id="path8610-3" />
      <path
         d="m 520.51712,559.82859 c -0.017,0.001 -0.0354,0.0185 -0.0533,0.0517 -0.0423,0.0787 -0.15441,0.10232 -0.25916,0.0547 -0.0565,-0.0257 -0.0623,-0.0164 -0.0502,0.0788 0.008,0.0594 6.3e-4,0.12831 -0.0152,0.15322 -0.0187,0.0296 -0.0144,0.0579 0.0122,0.0813 0.0642,0.0564 -0.20682,0.16353 -0.53893,0.21291 -0.27304,0.0407 -0.28747,0.0469 -0.34203,0.15105 -0.0663,0.12647 -0.0606,0.37111 0.0115,0.49048 0.1151,0.19059 0.11363,0.19947 -0.0244,0.152 -0.0689,-0.0235 -0.13599,-0.0308 -0.14916,-0.0158 -0.0487,0.056 -0.0122,0.37095 0.0739,0.63684 0.17368,0.5364 0.44214,0.84713 0.66342,0.76789 0.0554,-0.0197 0.11715,-0.0516 0.13728,-0.0706 0.0546,-0.0516 0.15803,0.0281 0.16441,0.12661 0.003,0.0458 -0.0334,0.14484 -0.0808,0.22012 -0.0474,0.0752 -0.0938,0.17784 -0.10297,0.22794 -0.0159,0.0865 -0.009,0.0918 0.13327,0.10386 0.22341,0.0188 0.33141,-0.0369 0.34509,-0.17794 0.006,-0.0637 0.0492,-0.15904 0.0956,-0.21188 0.0464,-0.0528 0.0831,-0.11635 0.0815,-0.14119 -0.002,-0.0249 -0.0671,-0.13097 -0.14554,-0.23573 l -0.14268,-0.19041 0.13261,-0.0191 c 0.0729,-0.0104 0.14083,-0.0123 0.15098,-0.003 l 0.10757,0.22181 0.0922,0.0404 c 0.054,0.0235 0.11146,0.0882 0.13874,0.15584 0.0464,0.11501 0.15458,0.19519 0.2101,0.15569 0.0397,-0.0283 0.0802,0.035 0.11218,0.17539 0.0221,0.0972 0.0424,0.11777 0.11901,0.12164 0.0507,0.003 0.093,0.0164 0.094,0.0306 6.3e-4,0.0141 0.0688,0.0113 0.15074,-0.007 0.14268,-0.0313 0.14928,-0.0291 0.15442,0.0505 0.003,0.0456 -0.0188,0.10322 -0.0484,0.1279 -0.0489,0.0408 -0.0464,0.0468 0.0274,0.065 0.0643,0.0159 0.0946,10e-4 0.14533,-0.0719 l 0.0641,-0.092 0.14045,0.1083 h 7e-5 c 0.108,0.0833 0.15948,0.10255 0.22274,0.0832 0.11282,-0.0344 0.11267,-0.0317 0.008,-0.16674 -0.0514,-0.0661 -0.0943,-0.13457 -0.0955,-0.15215 -10e-4,-0.0177 -0.0381,-0.0762 -0.0821,-0.13029 -0.0632,-0.0777 -0.0863,-0.1566 -0.1102,-0.37598 -0.0271,-0.24945 -0.0243,-0.27829 0.0302,-0.28389 0.05,-0.006 0.0471,-0.0117 -0.0173,-0.0376 -0.0892,-0.0361 -0.11021,-0.14583 -0.0347,-0.1806 0.0387,-0.0177 0.0465,-0.0648 0.0321,-0.19416 -0.018,-0.16132 -0.12418,-0.34467 -0.2895,-0.49973 -0.0247,-0.0231 -0.0367,-0.0578 -0.0265,-0.0769 0.0101,-0.0191 -0.0152,-0.0622 -0.0563,-0.0957 -0.0624,-0.0511 -0.10046,-0.16004 -0.0926,-0.26498 0.005,-0.0647 -0.12294,-0.25864 -0.20202,-0.3066 -0.0497,-0.0301 -0.13268,-0.0855 -0.18458,-0.12317 -0.0878,-0.0637 -0.0895,-0.0688 -0.0248,-0.074 0.098,-0.006 0.12042,-0.0456 0.0529,-0.0885 -0.0316,-0.02 -0.0616,-0.066 -0.0665,-0.10184 -0.0118,-0.0843 -0.10462,-0.27333 -0.13341,-0.27147 -0.0122,6.3e-4 -0.053,-0.0437 -0.0905,-0.0988 -0.0643,-0.0945 -0.0775,-0.0987 -0.22873,-0.0742 -0.0882,0.0143 -0.176,0.0114 -0.19486,-0.004 -0.006,-0.004 -0.0113,-0.007 -0.0173,-0.008 -10e-4,-2e-5 -0.003,1.6e-4 -0.003,2e-4 z m -0.74758,1.11897 c 0.006,-3.4e-4 0.0119,-6.3e-4 0.0182,0.002 0.0284,0.009 0.0805,0.0142 0.11578,0.012 0.0803,-0.005 0.0907,0.0895 0.0137,0.12365 -0.0315,0.0139 -0.0679,0.046 -0.0811,0.0714 -0.0366,0.0705 -0.11033,0.0601 -0.13666,-0.0192 -0.0274,-0.0826 0.0102,-0.18001 0.0643,-0.18931 0.002,-1.2e-4 0.004,-2.4e-4 0.006,-3.6e-4 z m -0.25583,0.59342 c 0.049,-0.003 -0.0166,0.0991 -0.009,0.18692 l 0.0262,0.31756 c 0,0 0.10675,0.11901 0.12177,0.27667 0.005,0.0742 0.0277,0.0994 0.11121,0.12257 0.0578,0.016 0.0966,0.0453 0.0862,0.0649 -0.0105,0.0198 -0.0379,0.0369 -0.061,0.0384 -0.10101,-0.0254 -0.35699,-0.24152 -0.40864,-0.54328 0,0 -0.0847,-0.30676 -0.0418,-0.39334 -5.6e-4,-0.0138 0.0252,-0.0267 0.0569,-0.0287 0.0318,-0.002 0.0743,-0.016 0.0943,-0.0308 0.009,-0.006 0.0167,-0.01 0.0237,-0.0105 z"
         style="fill:#000000;stroke-width:0.0335218"
         id="path6418-92" />
    </g>
  </g>
</svg>
