<?xml version="1.0" encoding="UTF-8" standalone="no"?>
<!-- Created with Inkscape (http://www.inkscape.org/) -->

<svg
   width="34.859135mm"
   height="6.3637018mm"
   viewBox="0 0 34.859135 6.3637018"
   version="1.1"
   id="svg71253"
   sodipodi:docname="inkporter-svg-z1vyzl63.svg"
   xmlns:inkscape="http://www.inkscape.org/namespaces/inkscape"
   xmlns:sodipodi="http://sodipodi.sourceforge.net/DTD/sodipodi-0.dtd"
   xmlns="http://www.w3.org/2000/svg"
   xmlns:svg="http://www.w3.org/2000/svg">
  <sodipodi:namedview
     id="namedview71255"
     pagecolor="#ffffff"
     bordercolor="#666666"
     borderopacity="1.0"
     inkscape:pageshadow="2"
     inkscape:pageopacity="0.0"
     inkscape:pagecheckerboard="0"
     inkscape:document-units="mm"
     showgrid="false"
     inkscape:zoom="0.32026164"
     inkscape:cx="95.234632"
     inkscape:cy="282.58145"
     inkscape:window-width="2400"
     inkscape:window-height="1271"
     inkscape:window-x="-9"
     inkscape:window-y="-9"
     inkscape:window-maximized="1"
     inkscape:current-layer="layer1" />
  <defs
     id="defs71250" />
  <g
     inkscape:label="Layer 1"
     inkscape:groupmode="layer"
     id="layer1"
     transform="translate(-45.987566,-143.47789)">
    <g
       id="B-Infantry-MG5-4"
       transform="translate(-687.74955,-578.30054)">
      <path
         id="path34104-4"
         style="fill:#000000;fill-opacity:1;fill-rule:nonzero;stroke:none;stroke-width:0.352777"
         d="m 735.94525,721.7792 c -0.27244,0.0147 -0.48252,0.40981 -0.49456,0.42582 -0.0124,0.0165 -0.0911,0.0589 -0.047,0.10438 0.0427,0.0455 0.22738,0.0718 0.22738,0.0718 0,0 -0.01,0.0522 -0.029,0.0935 -0.0179,0.0417 0.0636,0.032 0.0636,0.032 l -10e-4,0.0729 0.0207,0.0248 -0.006,0.0274 c 0,0 0.0213,0.0249 0.0263,0.0414 0.005,0.0179 -0.006,0.0773 0.005,0.1049 0.0111,0.0289 0.0398,0.0413 0.0398,0.0413 0,0 -0.065,0.0772 -0.0967,0.11576 -0.0317,0.0372 -0.0947,0.23706 -0.0837,0.29765 0.011,0.0607 -0.006,0.10613 -0.0165,0.16124 -0.0105,0.0537 0.006,0.13798 0.006,0.13798 l -0.0579,0.0331 c 0,0 0.0152,0.0466 0.0232,0.0605 0.01,0.0124 -0.006,0.0646 -0.0109,0.10594 -0.005,0.0413 0.0485,0.20823 0.0444,0.22892 -0.007,0.0221 -0.0358,0.0703 -0.062,0.1075 -0.0262,0.0372 -0.0727,0.077 -0.0827,0.0977 -0.01,0.0207 -0.0679,0.0537 -0.0982,0.0744 -0.0303,0.0203 -0.0191,0.0295 -0.0439,0.0305 -0.0235,10e-4 -0.12248,0.0274 -0.12248,0.0274 l -0.0537,-0.0388 -0.0527,0.0331 -0.063,-0.01 0.0134,0.0563 c 0,0 -1.06074,0.56359 -1.14205,0.61598 -0.0841,0.0523 -0.0403,0.0982 -0.0403,0.0982 0,0 -0.0233,0.01 -0.0605,0.0372 -0.0372,0.029 0.0165,0.0507 0.0165,0.0507 l 0.0744,-0.03 0.0372,0.0165 0.14726,-0.0801 c 0,0 0.0148,0.0581 0.0248,0.076 0.01,0.0193 0.1778,0.0786 0.23151,0.0951 0.0524,0.0167 0.32517,0.0127 0.42167,0.0207 0.0951,0.007 0.30329,-0.11882 0.3819,-0.17671 0.0758,-0.0595 0.092,-0.0563 0.092,-0.0563 l 0.0238,0.0357 0.16124,-0.091 0.004,-0.0465 c 0,0 0.0995,-0.13655 0.13954,-0.20826 0.0428,-0.0716 -0.0853,-0.11834 -0.0853,-0.11834 l 0.03,-0.0485 0.062,0.0263 0.10075,-0.077 c 0,0 0.0314,-0.0482 0.11266,-0.0372 0.081,0.0111 0.0276,0.0934 0.008,0.10334 -0.0207,0.01 -0.0296,0.0329 -0.0346,0.0687 -0.005,0.0358 -0.0358,0.14312 -0.0496,0.16383 -0.0128,0.0207 -0.0214,0.0689 -0.0134,0.11989 0.007,0.0496 -0.0786,0.26625 -0.10335,0.32554 -0.0248,0.0579 -0.17134,0.51676 -0.16433,0.66974 0.008,0.15158 0.13367,0.28077 0.22738,0.36896 0.0937,0.0882 0.12886,0.21503 0.11885,0.26874 -0.01,0.0523 -0.011,0.0482 0.0579,0.11575 0.0689,0.0675 0.12507,0.047 0.12507,0.047 0,0 -0.004,0.0412 0.0346,0.0729 0.0386,0.0317 0.0841,0.10491 0.10747,0.1297 0.022,0.0248 0.0535,0.12248 0.0605,0.13489 0.008,0.0138 0.0307,0.0372 0.0207,0.0579 -0.008,0.0207 -0.008,0.0703 -0.008,0.0703 0,0 0.001,0.0966 -0.0775,0.17103 -0.0786,0.0731 -0.12954,0.0759 -0.19844,0.10903 -0.0698,0.0317 -0.0755,0.0687 -0.0755,0.0687 0,0 -0.0124,0.1491 0.0331,0.15711 0.0469,0.01 0.29332,-0.0126 0.35812,-0.0264 0.0661,-0.0124 0.25064,-0.16642 0.25064,-0.16642 l 0.0388,0.0109 0.0677,-0.0357 c 0,0 0.009,0.0768 0.008,0.10853 -0.003,0.0317 0.0165,0.1216 0.0155,0.13951 -0.003,0.0193 -0.0523,0.26858 -0.0661,0.30438 -0.0138,0.0358 0.004,0.11419 0.0507,0.1266 0.0468,0.0138 0.14642,0.018 0.26768,0.0139 l 10e-4,10e-4 c 0,0 0.08,0.0109 0.17105,-0.0222 0.0923,-0.0344 0.0294,-0.20807 0.0284,-0.24805 -0.003,-0.04 -0.0977,-0.36639 -0.0977,-0.36639 l 0.0155,-0.0527 v -0.0894 c 0,0 0.0125,-0.062 0.0165,-0.10335 0.004,-0.0414 -0.0452,-0.01 -0.0372,-0.0527 0.007,-0.0441 0.0563,-0.25733 0.0563,-0.25733 l 0.0786,-0.047 -0.014,-0.0786 c 0,0 -0.0126,-0.0732 -0.0429,-0.12145 -0.0302,-0.0496 -0.0258,-0.16795 -0.0258,-0.16795 0,0 -3.2e-4,-0.12248 -0.0279,-0.19688 -0.0288,-0.073 2.4e-4,-0.11869 0.007,-0.15039 0.008,-0.0317 -0.0413,-0.11729 -0.0413,-0.11729 l -0.007,-0.11422 c 0,0 0.0467,-0.13904 0.0387,-0.16793 -0.007,-0.0276 -0.005,-0.0854 0.0248,-0.13645 0.0303,-0.051 0.11316,-0.41494 0.11316,-0.41494 0,0 0.0218,-0.0485 0.0563,-0.0718 0.0331,-0.022 0.0124,-0.15555 0.0124,-0.15555 l 0.0455,0.0222 c 0,0 0.0413,0.19981 0.062,0.2563 0.0193,0.0566 0.0471,0.062 0.0481,-0.004 10e-4,-0.0661 -0.0207,-0.24392 -0.0207,-0.24392 0,0 0.0567,10e-4 0.15449,-0.0207 0.0978,-0.0221 0.1819,-0.10335 0.1819,-0.10335 l -0.0677,-0.42426 0.0103,-0.0884 -0.047,-0.1049 c 0,0 -0.004,-0.0867 -0.0176,-0.13073 -0.0124,-0.0455 -0.10335,-0.0264 -0.10335,-0.0264 l -0.0594,-0.0605 -0.22739,-0.16793 0.2589,-0.12404 c 0,0 -0.006,-0.16962 -0.006,-0.22892 0,-0.0606 -0.0584,-0.30025 -0.0584,-0.30025 0,0 0.0803,-0.0348 0.15607,-0.0568 0.0744,-0.022 0.13523,-0.0674 0.22892,-0.11006 0.0937,-0.0441 0.27133,-0.0959 0.28784,-0.10594 0.0179,-0.01 0.0272,-0.0246 0.0424,-0.0165 0.0138,0.007 0.2041,-0.0207 0.2041,-0.0207 l 0.0729,-0.0103 0.22326,0.008 c 0,0 0.0691,-0.0208 0.12557,-0.0594 0.0565,-0.0373 -0.015,-0.0842 -0.015,-0.0842 l 0.0496,-0.047 v -0.0951 l 0.0455,-0.0258 c 0,0 0.0908,-0.006 0.13488,-0.029 0.0426,-0.022 0.0344,-0.0718 0.004,-0.0718 -0.0289,0 -0.30334,0.007 -0.40256,-0.008 -0.0992,-0.0152 -0.14314,0.0424 -0.14314,0.0424 l -0.0279,-0.015 c 0,0 -0.205,0.0357 -0.26562,0.015 -0.062,-0.0207 -0.15864,0.032 -0.15864,0.032 0,0 -0.0485,-0.0126 -0.12145,0.007 -0.073,0.0219 -0.13483,0.0281 -0.18034,0.0181 -0.0441,-0.01 -0.16536,0.0522 -0.16536,0.0522 l -0.20669,-0.007 c 0,0 -0.3542,-0.0356 -0.3845,-0.0356 -0.0303,-3e-5 -0.15139,0.063 -0.15139,0.063 l -0.19741,-0.0165 -0.0713,-0.12401 c 0,0 0.16645,-0.0193 0.20775,-0.0414 0.0414,-0.0234 -10e-4,-0.0825 -0.11163,-0.34571 -0.11162,-0.26183 -0.18724,-0.3802 -0.47386,-0.39118 -0.009,-3.5e-4 -0.0176,-4.8e-4 -0.0264,0 z m 4.40799,0.27077 c -0.18566,8e-5 -0.30925,0.12018 -0.32864,0.16021 -0.0207,0.0413 -0.17912,0.27559 -0.21913,0.33898 -0.0413,0.062 0.0443,0.0906 0.0884,0.11266 0.0441,0.0221 0.11679,0.0403 0.11679,0.0403 l 0.10903,0.278 c 0,0 0.077,0.12131 0.077,0.1447 -2e-5,0.0248 -0.11422,0.11576 -0.11422,0.11576 l 0.0496,0.008 c 0,0 -0.003,0.11012 0.004,0.18862 0.005,0.0785 -0.0155,0.20153 -0.0155,0.20153 l 0.0155,0.0672 0.0465,0.0744 c 0,0 0.0277,0.007 -0.10594,0.029 -0.13229,0.022 -0.0744,0.048 -0.0744,0.048 l -0.0563,0.18759 -0.71003,0.30594 -0.76896,0.3638 -0.50125,0.23564 -0.0305,-0.0357 -0.0812,0.0383 0.004,0.0827 c 0,0 -0.0429,0.0155 -0.10078,0.0527 -0.0593,0.0358 0.0341,0.0703 0.0341,0.0703 l 0.17931,-0.0811 0.0429,0.0372 0.76584,-0.324 0.0346,0.0207 c 0,0 0.0236,0.0908 0.047,0.13901 0.0207,0.0482 0.11036,0.12716 0.13798,0.14367 0.0289,0.0166 0.12401,0.0382 0.12401,0.0382 0,0 0.14848,0.0307 0.18706,0.0486 0.0386,0.0179 0.19997,0.01 0.29509,0 0.0951,-0.011 0.39809,-0.20563 0.42839,-0.23873 0.0317,-0.0317 0.30747,-0.292 0.30747,-0.292 0,0 0.0312,0.047 0.008,0.0925 -0.0249,0.0468 -0.0176,0.11163 -0.0176,0.11163 0,0 -0.0306,0.008 -0.0568,0.0383 -0.0264,0.0303 -0.003,0.10903 -0.003,0.10903 0,0 -0.0601,0.0537 -0.0661,0.0909 -0.007,0.0358 -0.0182,0.0798 -0.032,0.0977 -0.0152,0.0179 -0.0282,0.0224 -0.0382,0.0651 -0.011,0.0427 -0.008,0.10165 -0.20672,0.47646 -0.19706,0.37484 0.0149,0.49197 0.0424,0.54158 0.029,0.051 0.23583,0.2427 0.3488,0.38603 0.11301,0.14316 0.28919,0.13901 0.3292,0.13901 0.0399,0 0.13123,0.12697 0.15192,0.16277 0.019,0.0372 0.001,0.0512 0.0217,0.0635 0.0193,0.0124 0.12557,0.12248 0.12557,0.12248 0,0 0.0262,0.0868 -0.0413,0.16124 -0.0661,0.0744 -0.0925,0.19999 -0.0925,0.19999 0,0 -0.0218,0.13727 0.076,0.14727 0.10059,0.011 0.20412,-0.0496 0.20412,-0.0496 l 0.12092,-0.10747 -0.007,0.0387 -0.11729,0.17055 -0.19587,0.094 c 0,0 -0.0754,0.0438 -0.0631,0.0879 0.0124,0.0441 0.12095,0.076 0.12095,0.076 l 0.38756,-0.0191 0.1788,-0.12711 0.0574,0.016 0.19275,-0.16796 -0.0511,-0.0899 c 0,0 -0.008,-0.0603 -0.0258,-0.1292 -0.0193,-0.0675 -0.10747,-0.16124 -0.10747,-0.16124 l -0.008,-0.0677 0.0357,-0.0786 -0.0879,-0.0594 c 0,0 -0.006,-0.0246 -0.0196,-0.13901 -0.0152,-0.11441 0.004,-0.0787 0.029,-0.13798 0.0276,-0.0579 -0.0662,-0.12369 -0.12817,-0.2036 -0.0621,-0.0786 -0.0611,-0.27167 -0.0661,-0.31988 -0.007,-0.0482 -0.0605,-0.0868 -0.0605,-0.0868 l 0.0305,-0.13076 c 0,0 0.13745,-0.15195 0.15814,-0.18087 0.0207,-0.0275 0.0788,-0.17893 0.0941,-0.21754 0.0137,-0.0386 0.11007,-0.23997 0.11007,-0.25786 0,-0.0179 0.0781,-0.15534 0.0811,-0.18293 10e-4,-0.029 0.0403,-0.19328 0.0403,-0.19328 0,0 0.0961,0.19047 0.13332,0.25527 0.0358,0.0644 0.061,0.009 0.061,-0.0103 0,-0.0207 -0.12557,-0.32247 -0.12557,-0.32247 l 0.0744,-0.077 -0.0331,-0.13385 c 0,0 -0.002,-0.1569 -0.007,-0.201 -0.007,-0.044 0.0181,-0.0403 0.0181,-0.0403 l -0.0108,-0.0563 c 0.003,0.004 0.0134,0.008 0.0382,0.0109 0.051,0.007 0.0651,-0.0109 0.0816,-0.0729 0.0165,-0.0589 -0.11163,-0.0687 -0.11163,-0.0687 0,0 0.007,-0.14607 0.0124,-0.19015 0.007,-0.044 -0.0539,-0.0869 -0.0966,-0.11576 -0.0427,-0.0275 -0.14488,-0.0411 -0.18759,-0.0481 -0.0429,-0.006 -0.0465,-0.0651 -0.0465,-0.0651 l 0.0951,-0.0139 c 0,0 0.13087,-0.0401 0.15296,-0.0481 0.022,-0.008 0.0394,-0.0301 0.0424,-0.0605 10e-4,-0.0303 -0.0248,-0.23408 -0.0248,-0.23408 0,0 0.11165,0.022 0.12816,-0.12816 0.0152,-0.15156 -0.1416,-0.13539 -0.1416,-0.13539 l 0.0331,-0.063 -0.008,-0.0718 c 0,0 -0.14591,-0.20707 -0.17621,-0.23048 -0.0303,-0.0249 -0.23998,-0.09 -0.25789,-0.0909 -0.0179,-0.003 -0.56912,-0.0703 -0.53742,-0.0951 0.0331,-0.0248 -0.0644,-0.21363 -0.092,-0.28112 -0.0275,-0.0661 -0.20841,-0.3719 -0.4165,-0.39119 -0.0129,-10e-4 -0.0254,-0.002 -0.0377,-0.002 z m 2.95333,0.029 c -0.29353,-0.004 -0.48522,0.4699 -0.51832,0.49609 -0.0345,0.0262 -0.0315,0.0675 -0.015,0.0827 0.0165,0.0138 0.216,0.10232 0.216,0.10232 0,0 0.0293,0.055 0.0817,0.19275 0.0537,0.13782 0.0992,0.16279 0.0992,0.16279 l -0.10644,0.0646 c 0,0 -0.0313,0.004 -0.0413,0.004 -0.01,0 -0.0659,0.0374 -0.10594,0.0636 -0.0413,0.0276 -0.0507,0.0441 -0.0672,0.0579 -0.0179,0.0152 -0.0373,0.0784 -0.0413,0.10181 -0.005,0.0248 -0.22045,0.28369 -0.28524,0.39532 -0.0661,0.11025 -0.16849,0.27027 -0.16849,0.27027 0,0 -0.0937,0.0705 -0.0837,0.0884 0.009,0.0165 -3.1e-4,0.0865 -0.0103,0.14986 -0.01,0.062 0.0196,0.20553 0.0207,0.22892 0.004,0.0248 0.10478,0.12417 0.15296,0.12816 0.0482,0.005 0.1752,0.0415 0.2744,0.076 0.0992,0.0343 0.1571,0.004 0.1571,0.004 0,0 -0.40941,0.28935 -0.44389,0.33485 -0.0331,0.0455 -0.0108,0.0414 0.0512,0.14883 0.0633,0.1102 0.051,0.13954 0.0786,0.20153 0.0262,0.0634 0.0661,0.0365 0.0786,0.0315 0.0124,-0.004 0.0894,-0.12557 0.0894,-0.12557 l 0.0883,-0.0124 c 0,0 0.10867,-0.01 0.20516,-0.0455 0.0965,-0.0372 0.36796,-0.22323 0.36796,-0.22323 0,0 0.0437,0.14087 0.0537,0.16846 0.01,0.0261 0.0651,0.0977 0.0651,0.0977 0,0 0.0244,0.11856 0.0465,0.16536 0.0207,0.0455 0.0842,0.13076 0.0842,0.13076 0,0 -0.0341,0.20572 -0.0548,0.2594 -0.022,0.0537 -0.0445,0.14436 -0.0982,0.25323 -0.0523,0.10885 -0.0139,0.27834 -0.0108,0.28834 0.001,0.01 0.0772,0.21598 0.0842,0.23667 0.007,0.0221 0.0438,0.22622 0.0672,0.2744 0.0248,0.0482 -0.007,0.0911 0,0.15039 0.008,0.0578 0.14057,0.0796 0.14057,0.0796 0,0 0.0222,0.0803 0.0512,0.12298 0.029,0.0441 0.0512,0.11985 0.0512,0.15295 0,0.0345 -0.0124,0.11422 -0.0124,0.11422 l 0.0191,0.0579 -0.003,0.0512 -0.03,0.0165 -0.18759,0.12816 -0.2217,0.19428 0.10594,0.14058 c 0,0 0.16812,-0.0155 0.24392,-0.0403 0.0757,-0.0276 0.15296,-0.077 0.15296,-0.077 0,0 0.048,0.0443 0.0811,0.0263 0.0317,-0.0166 0.2439,-0.0455 0.2439,-0.0455 0,0 -0.005,-0.0869 -0.006,-0.11576 -9.8e-4,-0.0124 -10e-4,-0.0374 -10e-4,-0.0636 0.01,-0.0524 0.0257,-0.14592 0.0207,-0.17621 l 5e-4,5.3e-4 c 0,0 -0.0189,-0.10512 -0.0289,-0.17261 -0.01,-0.0675 0.0512,-0.18029 0.0522,-0.23408 0.003,-0.0537 -0.0233,-0.15711 -0.0233,-0.15711 0,0 0.0236,-0.0565 0.0388,-0.0703 0.0151,-0.0152 0.0284,-0.10451 0.0274,-0.13902 -0.003,-0.0331 -0.10903,-0.17639 -0.12144,-0.20669 -0.0127,-0.0317 0.008,-0.11991 0.008,-0.11991 0,0 0.0247,0.044 0.0661,0.0729 0.0413,0.0289 0.0852,0.1447 0.0852,0.1447 0,0 0.0303,0.047 0.0703,0.0594 0.0386,0.0129 0.15708,-0.005 0.15708,-0.005 l 0.23823,0.16278 0.0884,0.0868 c 0,0 -0.0356,0.22563 -0.0346,0.29043 0.003,0.0647 -0.11576,0.15724 -0.11576,0.19584 0,0.0386 0.014,0.11592 0.15452,0.10491 0.14055,-0.0124 0.25633,-0.0868 0.25633,-0.0868 0,0 0.0429,-0.10059 0.0594,-0.16949 0.0166,-0.0717 0.0589,-0.12144 0.0589,-0.12144 l 0.0429,-0.006 c 0,0 0.0648,-0.13491 0.0785,-0.17621 0.0152,-0.0414 -0.007,-0.0894 -0.0232,-0.10179 -0.0166,-0.0124 -0.0584,-0.0486 -0.0584,-0.0486 l -0.0465,-0.0465 c 0,0 -0.11578,-0.098 -0.16949,-0.12557 -0.0524,-0.0262 -0.18913,-0.23979 -0.18913,-0.23979 0,0 0.003,-0.0236 0.006,-0.0842 0.003,-0.0606 -0.0701,-0.1433 -0.0976,-0.14729 -0.0262,-0.006 -0.15711,-0.15296 -0.15711,-0.15296 0,0 -0.0169,-0.11179 -0.0403,-0.12557 -0.0246,-0.0152 -0.0314,-0.0731 -0.0274,-0.14057 0.006,-0.0675 -0.0481,-0.20773 -0.0481,-0.20773 0,0 0.0866,-0.13819 0.11835,-0.23048 0.0317,-0.0923 0.0868,-0.1266 0.0868,-0.1266 0,0 0.015,0.0495 0.015,0.0661 0,0.0165 0.0322,0.066 0.0362,0.0315 0.005,-0.0344 0.0124,-0.23255 0.0124,-0.23255 l 0.12507,-0.0388 0.24289,-0.0842 c 0,0 -0.007,-0.0538 -0.007,-0.0786 0,-0.0234 -0.0703,-0.33332 -0.0703,-0.33332 l -0.01,-0.14624 -0.047,-0.25632 c 0,0 -0.08,-0.0642 -0.11575,-0.0672 -0.0358,-0.002 -0.12817,-0.0124 -0.12817,-0.0124 l 0.004,-0.0429 c 0,0 0.18738,-0.0673 0.26458,-0.11419 0.0772,-0.0455 0.12682,-0.2317 0.0992,-0.34883 -0.0262,-0.11576 -0.3488,-0.41907 -0.3488,-0.41907 l 0.401,-0.3292 -0.015,-0.0548 0.0579,-0.0444 -0.0124,-0.0191 0.0992,-0.0936 -0.0455,-0.0584 -0.0925,0.062 -0.0635,-0.0796 -0.0894,0.047 0.0455,0.10179 -0.11988,0.0894 -0.277,0.19328 -0.0842,-0.0248 c 0,0 -0.0274,-0.0428 -0.1266,-0.11575 -0.0978,-0.0731 -0.15708,-0.0527 -0.15708,-0.0527 0,0 -0.14505,-0.01 -0.17675,-0.01 -0.0317,0 -0.0951,0.0165 -0.0951,0.0165 h -0.12504 c 0,0 -0.10909,0.007 -0.15039,-0.007 -0.0398,-0.0151 -0.0357,-0.0274 -0.0357,-0.0274 0,0 0.058,-0.0233 0.0967,-0.0522 0.0391,-0.0289 0.0291,-0.0789 0.006,-0.11885 -0.0248,-0.0427 -0.14576,-0.34713 -0.16224,-0.37052 -0.0165,-0.0248 -0.1311,-0.21667 -0.42323,-0.22066 z m 3.1414,0.0604 c -0.27699,-0.005 -0.3709,0.32229 -0.44389,0.42426 -0.0717,0.10192 -0.0507,0.10192 -0.0258,0.12404 0.0234,0.0221 0.15814,0.0827 0.15814,0.0827 0,0 0.0344,0.0786 0.0537,0.10335 0.0193,0.0234 0.0486,0.12557 0.0486,0.12557 0,0 -0.0511,0.0457 -0.13385,0.10078 -0.0841,0.0524 -0.13245,0.18156 -0.17105,0.22426 -0.0372,0.0441 -0.15553,0.2055 -0.23821,0.26202 -0.0836,0.0565 -0.0785,0.11832 -0.0785,0.11832 0,0 -0.0236,0.0296 -0.0346,0.0346 -0.011,0.006 -0.0274,0.20154 -0.0274,0.20154 l -0.0181,0.048 c 0,0 -0.0411,0.0331 -0.0331,0.14058 0.008,0.10747 0.0819,0.26302 0.0899,0.28784 0.008,0.0234 0.0963,0.0374 0.11835,0.0511 0.0209,0.0138 0.0176,0.026 0.0176,0.077 0,0.0524 0.0708,0.0785 0.0708,0.0785 0,0 0.0644,0.35002 0.1292,0.57052 0.0648,0.22048 0.28009,0.39428 0.28009,0.39428 l -0.014,0.0812 c 0,0 -0.009,0.16968 -0.0196,0.21238 -0.011,0.0441 0.0248,0.38703 0.0248,0.48215 0,0.0937 0.0238,0.14195 0.0486,0.21498 0.0233,0.0716 0.037,0.22635 0.03,0.30075 -0.008,0.0757 0.20669,0.15811 0.20669,0.15811 0,0 0.0829,0.18365 0.091,0.21395 0.008,0.0289 0.0452,0.17327 0.0372,0.21187 -0.008,0.0372 -0.008,0.0967 -0.0176,0.15039 -0.011,0.0537 -0.0388,0.0675 -0.0677,0.10748 -0.0303,0.0399 -0.048,0.1447 -0.048,0.1447 0,0 0.0882,0.10866 0.21497,0.0977 0.12679,-0.011 0.21241,-0.0977 0.24961,-0.1638 0.0386,-0.0675 0.0191,-0.23151 0.0191,-0.23151 l 0.0191,-0.0429 c 0,0 0.0181,-0.18878 0.0181,-0.20256 0,-0.0138 -0.058,-0.15277 -0.0801,-0.19278 0.002,0.002 0.0393,0.0254 0.12454,0.0987 0.0895,0.0758 0.0672,0.0896 0.0672,0.1447 0,0.0565 0.0196,0.2854 0.0165,0.29919 -0.003,0.0138 -0.0623,0.16645 -0.0703,0.19534 -0.008,0.0303 -0.10152,0.20534 -0.0935,0.22326 0.008,0.0193 0.0646,0.039 0.11834,0.047 0.0537,0.007 0.20966,-0.008 0.25787,-0.0274 0.0482,-0.0193 0.15414,-0.0262 0.18034,-0.0372 0.0264,-0.011 -0.005,-0.0624 -0.008,-0.11057 -0.003,-0.0482 -1.5e-4,-0.22585 0.0109,-0.26305 0.01,-0.0386 0.0165,-0.19153 0.0165,-0.21082 0,-0.018 0.006,-0.0621 0.01,-0.091 0.006,-0.0303 -0.008,-0.15296 -0.008,-0.15296 0,0 0.004,-0.0167 0.0357,-0.0429 0.0317,-0.0276 0.0597,-0.0521 0.0677,-0.0755 0.008,-0.0248 -0.0275,-0.10769 -0.0305,-0.17518 -0.003,-0.0675 -0.003,-0.18328 -0.0263,-0.21498 -0.0246,-0.0331 -0.008,-0.12975 0.003,-0.15864 0.011,-0.0303 0.10533,-0.32798 0.10234,-0.50022 -0.003,-0.17222 0.0396,-0.20942 0.063,-0.26871 0.0248,-0.0593 0.0527,-0.42842 0.0527,-0.42842 l 0.0176,0.091 c 0,0 0.0487,0.0594 0.0527,0.01 10e-4,-0.0524 -0.0114,-0.21757 -0.0114,-0.21757 0,0 0.21254,-0.0866 0.26356,-0.10593 0.051,-0.0179 0.0317,-0.15571 0.0165,-0.2067 -0.0165,-0.051 -0.0841,-0.37899 -0.0951,-0.42169 -0.01,-0.0437 -0.0748,-0.0527 -0.0858,-0.0537 -0.011,-0.003 -0.10739,-0.0334 -0.10437,-0.0486 0.003,-0.0165 0.0344,-0.12674 -0.008,-0.18603 -0.0428,-0.0593 -0.12091,-0.34158 -0.12091,-0.34158 l 0.0481,-0.0936 -0.0744,-0.50022 c 0,0 0.0108,-0.22085 0.0108,-0.31316 0,-0.0912 -0.10334,-0.0992 -0.10334,-0.0992 l -0.0398,-0.0646 h -0.16693 c -0.0537,0 -0.31295,-0.009 -0.32814,-0.0124 -0.0165,-0.004 -0.0402,-0.014 -0.0372,-0.0429 10e-4,-0.0303 -0.0455,-0.0922 -0.062,-0.11419 -0.0165,-0.0207 -0.10996,-0.27403 -0.13745,-0.30853 -0.0262,-0.0358 -0.12144,-0.20638 -0.39843,-0.21239 z m -3.44218,1.90479 c 0,0 0.0285,0.0703 0.0315,0.12404 10e-4,0.0537 0.0413,0.12504 0.0413,0.12504 l -0.004,0.0444 c 0,0 -0.10332,0.0386 -0.14883,0.0165 -0.0469,-0.022 -0.0755,-0.0734 -0.0755,-0.0734 l -0.0165,-0.0424 h -5.1e-4 c -0.0151,-0.0248 -0.0286,-0.0386 0.0155,-0.0486 0.0427,-0.01 0.15708,-0.14573 0.15708,-0.14573 z m -1.10328,0.39378 10e-4,0.007 c -0.004,-0.004 -10e-4,-0.007 -10e-4,-0.007 z m -2.00917,0.0935 c 0.0177,-10e-4 0.0334,0.002 0.0465,0.0196 0.0261,0.0344 10e-4,0.0496 0.0785,0.0496 0.0772,0 0.21654,0.0264 0.21654,0.0264 0,0 -0.15865,0.22201 -0.2744,0.29921 -0.11576,0.0786 -0.28544,0.18603 -0.39431,0.19844 -0.10885,0.0123 -0.14727,0.0424 -0.28369,-0.007 -0.13639,-0.0496 -0.20825,-0.11422 -0.20825,-0.11422 0,0 -0.0856,-0.14764 -0.0966,-0.17106 -0.0111,-0.0234 -0.0522,-0.0635 -0.0522,-0.0635 l -0.0233,-0.0315 0.41598,-0.16433 c 0,0 0.12819,0.0674 0.20259,0.0594 0.073,-0.006 0.27149,-0.087 0.3142,-0.091 0.0207,-0.003 0.0406,-0.009 0.0584,-0.01 z m -4.49998,0.1111 c 0,0 0.0373,0.0124 0.0413,0.0372 0.004,0.0248 -6e-5,0.0782 -0.0413,0.11263 -0.0414,0.0332 -0.0579,0.0372 -0.0579,0.0372 l -0.14055,10e-4 -0.54417,-0.0744 0.30335,-0.0145 0.0755,0.0289 0.0925,-0.0439 0.0646,0.0217 z m 10.53682,0.0625 c 0.0159,-8e-5 0.049,0.002 0.0615,0.0129 0.0149,0.0165 0.0131,0.0561 0.0181,0.0755 0.006,0.0193 0.11576,0.12142 0.11576,0.12142 0,0 0.0223,0.0829 0.0263,0.11318 0.005,0.029 0.0493,0.12817 0.0837,0.15296 0.0363,0.0234 0.0305,0.11007 0.0305,0.11007 0,0 0.01,0.065 -0.0191,0.0884 -0.0301,0.0248 -0.008,0.10594 -0.008,0.10594 l -0.0812,-0.062 h -5e-4 c -0.0455,-0.0496 -0.13904,-0.22328 -0.15555,-0.30178 -0.0152,-0.0786 -0.0646,-0.35555 -0.0646,-0.35555 l -0.0155,-0.0605 c 0,0 0.004,-4.8e-4 0.009,-5e-4 z m -2.71198,0.0527 c 0,0 0.008,0.0537 0.0341,0.0661 0.0262,0.0121 0.13383,0.0217 0.13383,0.0217 l -0.006,0.11989 c 0,0 -0.15404,0.11887 -0.22013,0.14367 -0.0648,0.0248 -0.3297,0.0827 -0.3297,0.0827 0,0 0.13396,-0.18862 0.16846,-0.22582 0.0331,-0.0358 0.132,-0.0772 0.13901,-0.0992 0.009,-0.0207 0.01,-0.0744 0.01,-0.0744 z m -8.88008,0.1142 0.73586,0.123 c -0.029,0.022 -0.19844,0.18148 -0.34314,0.18447 -0.1447,0.004 -0.36393,-0.0429 -0.44802,-0.0635 -0.0854,-0.0207 -0.20412,-0.0951 -0.20412,-0.0951 z m 1.78284,0.84645 c 0,0 0.0196,0.0136 0.032,0.0522 0.0138,0.04 0.03,0.15968 0.03,0.15968 l -0.0878,-0.11575 c 0,0 0.0106,-0.0561 0.0258,-0.0961 z m 10.78744,0.20516 c 0.0286,0.0799 0.0403,0.10475 0.0279,0.24392 -0.0138,0.14057 -0.0336,0.29612 -0.0336,0.29612 0,0 -0.0451,-0.13213 -0.0589,-0.18862 -0.0137,-0.0565 0.009,-0.23135 0.0165,-0.26305 0.008,-0.0317 0.048,-0.0884 0.048,-0.0884 z" />
      <path
         id="path78389-6"
         style="fill:#000000;fill-opacity:1;fill-rule:nonzero;stroke:none;stroke-width:0.352777"
         d="m 754.00831,722.00365 c -0.26459,-0.01 -0.47284,0.38066 -0.48525,0.39584 -0.0109,0.0164 -0.0824,0.0565 -0.0424,0.0992 0.04,0.0414 0.21085,0.0646 0.21085,0.0646 0,0 -0.008,0.0498 -0.0265,0.0884 -0.018,0.0389 0.0594,0.0289 0.0594,0.0289 v 0.0672 l 0.019,0.0233 -0.006,0.0265 c 0,0 0.0193,0.0236 0.0233,0.0388 0.005,0.0151 -0.005,0.0715 0.005,0.0977 0.0111,0.0262 0.0372,0.0372 0.0372,0.0372 0,0 -0.0596,0.0717 -0.0899,0.10747 -0.029,0.0344 -0.088,0.22051 -0.077,0.27699 0.01,0.0551 -0.006,0.0994 -0.0164,0.15039 -0.0103,0.051 0.005,0.12661 0.005,0.12661 l -0.0538,0.0315 c 0,0 0.0138,0.0429 0.0217,0.0553 0.008,0.0138 -0.005,0.0622 -0.0108,0.10078 -0.004,0.0372 0.0453,0.19256 0.0413,0.21187 -0.006,0.0193 -0.0331,0.0647 -0.0579,0.0992 -0.0249,0.0345 -0.0675,0.0716 -0.0775,0.0909 -0.008,0.0193 -0.062,0.0514 -0.091,0.0692 -0.0276,0.019 -0.0164,0.0279 -0.0398,0.029 -0.022,0.003 -0.11419,0.0259 -0.11419,0.0259 l -0.0496,-0.0372 -0.0486,0.032 -0.0589,-0.008 0.0124,0.0511 c 0,0 -0.98526,0.52388 -1.06246,0.57206 -0.0771,0.0497 -0.0362,0.091 -0.0362,0.091 0,0 -0.0217,0.01 -0.0563,0.0357 -0.0344,0.0262 0.0156,0.047 0.0156,0.047 l 0.0687,-0.0279 0.0346,0.0156 0.13745,-0.076 c 0,0 0.0137,0.055 0.0238,0.0729 0.008,0.0164 0.16523,0.0716 0.21341,0.0868 0.0496,0.0153 0.30316,0.0127 0.39275,0.0196 0.0882,0.007 0.28239,-0.11051 0.35399,-0.16433 0.0716,-0.0554 0.0868,-0.0522 0.0868,-0.0522 l 0.0206,0.0331 0.15039,-0.0842 0.004,-0.0439 c 0,0 0.092,-0.12666 0.1292,-0.19275 0.0386,-0.0661 -0.0796,-0.1106 -0.0796,-0.1106 l 0.0274,-0.0455 0.0579,0.0249 0.0951,-0.0718 c 0,0 0.0291,-0.0451 0.10491,-0.0341 0.0745,0.01 0.0259,0.0871 0.007,0.0951 -0.0193,0.01 -0.0275,0.0315 -0.0315,0.0646 -0.006,0.0344 -0.0331,0.13226 -0.0455,0.15295 -0.0127,0.018 -0.0209,0.0637 -0.014,0.1106 0.007,0.0482 -0.0732,0.24799 -0.0966,0.30178 -0.022,0.0551 -0.15843,0.48215 -0.15142,0.62272 0.007,0.14055 0.12404,0.26197 0.21085,0.34468 0.0882,0.0813 0.11805,0.19947 0.11006,0.24908 -0.01,0.0482 -0.0111,0.0441 0.0537,0.10747 0.0647,0.062 0.11732,0.0429 0.11732,0.0429 0,0 -0.006,0.0384 0.0315,0.0687 0.0358,0.0289 0.0785,0.0965 0.0992,0.11988 0.0206,0.022 0.0519,0.11319 0.0569,0.1256 0.008,0.0124 0.0287,0.0358 0.0206,0.0537 -0.01,0.0193 -0.0103,0.0646 -0.0103,0.0646 0,0 0.003,0.0911 -0.0713,0.15864 -0.0731,0.0689 -0.1202,0.0715 -0.185,0.10182 -0.0649,0.029 -0.0687,0.0636 -0.0687,0.0636 0,0 -0.0122,0.13928 0.0305,0.14729 0.0441,0.008 0.27274,-0.0124 0.33332,-0.0249 0.0607,-0.0124 0.23152,-0.15555 0.23152,-0.15555 l 0.0372,0.0109 0.062,-0.0331 c 0,0 0.009,0.0719 0.008,0.10078 -0.003,0.0303 0.0145,0.11128 0.0135,0.12919 -0.003,0.018 -0.0496,0.24956 -0.062,0.28266 -0.0124,0.0331 0.005,0.10734 0.0485,0.11835 0.0427,0.0124 0.13507,0.0164 0.24807,0.0124 h 0.003 c 0,0 0.0748,0.01 0.1602,-0.0206 0.0841,-0.0317 0.0278,-0.19275 0.0249,-0.22995 -0.003,-0.0372 -0.0899,-0.34054 -0.0899,-0.34054 l 0.014,-0.0481 v -0.0842 c 0,0 0.0119,-0.0579 0.0151,-0.0951 0.004,-0.0396 -0.0411,-0.01 -0.0341,-0.0496 0.007,-0.04 0.0522,-0.23979 0.0522,-0.23979 l 0.0729,-0.0424 -0.0124,-0.0734 c 0,0 -0.0122,-0.0687 -0.0398,-0.11419 -0.0278,-0.0455 -0.0249,-0.15452 -0.0249,-0.15452 0,0 -1.6e-4,-0.11544 -0.0265,-0.18293 -0.0251,-0.0675 0,-0.11063 0.008,-0.13952 0.006,-0.0303 -0.0388,-0.11007 -0.0388,-0.11007 l -0.007,-0.10593 c 0,0 0.0426,-0.12989 0.0356,-0.15608 -0.007,-0.0262 -0.006,-0.0797 0.0233,-0.12661 0.0275,-0.0469 0.10491,-0.38602 0.10491,-0.38602 0,0 0.0204,-0.0436 0.0506,-0.0656 0.0317,-0.0206 0.0124,-0.1447 0.0124,-0.1447 l 0.0429,0.0206 c 0,0 0.0386,0.18428 0.0579,0.23669 0.018,0.0521 0.0429,0.0575 0.0439,-0.003 0.003,-0.0606 -0.0175,-0.22736 -0.0175,-0.22736 -2e-5,0 0.0506,0.003 0.14158,-0.019 0.0909,-0.0206 0.16949,-0.0951 0.16949,-0.0951 l -0.063,-0.39428 0.01,-0.0827 -0.0439,-0.0977 c 0,0 -0.003,-0.08 -0.0154,-0.12141 -0.0124,-0.0427 -0.0961,-0.0249 -0.0961,-0.0249 l -0.0553,-0.0548 -0.21085,-0.15711 0.23979,-0.11576 c 0,0 -0.006,-0.15729 -0.006,-0.21238 0,-0.0565 -0.0537,-0.27802 -0.0537,-0.27802 0,0 0.0758,-0.0322 0.1447,-0.0543 0.0703,-0.0193 0.12557,-0.0618 0.21238,-0.10179 0.0882,-0.0399 0.25352,-0.0897 0.26871,-0.0977 0.0167,-0.01 0.0249,-0.0236 0.0388,-0.0164 0.0138,0.007 0.19018,-0.018 0.19018,-0.018 l 0.0687,-0.008 0.20672,0.005 c 0,0 0.0649,-0.0175 0.11729,-0.0532 0.0523,-0.0344 -0.014,-0.0786 -0.014,-0.0786 l 0.0455,-0.0444 v -0.0878 l 0.0413,-0.0249 c 0,0 0.0856,-0.006 0.12557,-0.0249 0.0405,-0.022 0.0333,-0.0677 0.006,-0.0677 -0.0275,0 -0.28233,0.006 -0.37465,-0.008 -0.0923,-0.0138 -0.13229,0.0398 -0.13229,0.0398 l -0.0265,-0.014 c 0,0 -0.19015,0.0333 -0.24804,0.014 -0.0579,-0.0193 -0.14574,0.029 -0.14574,0.029 0,0 -0.0457,-0.0116 -0.11316,0.008 -0.0689,0.0183 -0.12655,0.0236 -0.16796,0.0156 -0.0413,-0.008 -0.15295,0.048 -0.15295,0.048 l -0.19172,-0.006 c 0,0 -0.33052,-0.0341 -0.35811,-0.0341 -0.0276,0 -0.14057,0.0594 -0.14057,0.0594 l -0.18344,-0.0156 -0.0661,-0.11575 c 0,0 0.15415,-0.0164 0.19275,-0.0372 0.0386,-0.022 0,-0.077 -0.1044,-0.32091 -0.10197,-0.2453 -0.17381,-0.35436 -0.43977,-0.36537 z m 4.07109,0.25374 c -0.17328,0 -0.28837,0.10977 -0.30644,0.14729 -0.0193,0.04 -0.16643,0.25643 -0.20363,0.31573 -0.0386,0.0578 0.0412,0.0842 0.0811,0.1049 0.0413,0.0206 0.11007,0.0367 0.11007,0.0367 l 0.10075,0.2594 c 0,0 0.0718,0.11149 0.0718,0.13488 0,0.022 -0.10645,0.1075 -0.10645,0.1075 l 0.0455,0.007 c 0,0 -0.003,0.10168 0.004,0.17468 0.006,0.0744 -0.014,0.18756 -0.014,0.18756 l 0.014,0.062 0.0429,0.0703 c 0,0 0.0265,0.006 -0.0977,0.0265 -0.12258,0.0206 -0.0692,0.0455 -0.0692,0.0455 l -0.0522,0.17365 -0.66043,0.28525 -0.71366,0.33745 -0.46715,0.2191 -0.0274,-0.0331 -0.076,0.0346 0.004,0.077 c 0,0 -0.0403,0.0151 -0.0941,0.0496 -0.0537,0.0331 0.032,0.0646 0.032,0.0646 l 0.1664,-0.0754 0.0403,0.0341 0.71263,-0.29869 0.0315,0.0175 c 0,0 0.0222,0.0842 0.0429,0.1297 0.0206,0.0441 0.10297,0.11711 0.12917,0.13229 0.0262,0.0151 0.11472,0.0357 0.11472,0.0357 0,0 0.13915,0.029 0.17365,0.0455 0.0358,0.0164 0.18568,0.0101 0.27387,0 0.0882,-0.01 0.37057,-0.1914 0.39947,-0.22169 0.0276,-0.0303 0.28577,-0.27131 0.28577,-0.27131 0,0 0.0287,0.0441 0.007,0.0868 -0.0217,0.0428 -0.0164,0.10335 -0.0164,0.10335 0,0 -0.0288,0.007 -0.0522,0.0341 -0.0249,0.029 -0.003,0.10235 -0.003,0.10235 0,0 -0.055,0.0506 -0.062,0.0837 -0.006,0.033 -0.0164,0.0746 -0.029,0.0925 -0.0138,0.0164 -0.0257,0.0209 -0.0356,0.0594 -0.01,0.04 -0.008,0.0951 -0.19171,0.44236 -0.18326,0.34864 0.0135,0.45744 0.0398,0.50435 0.0262,0.0469 0.21926,0.22582 0.32401,0.35811 0.10472,0.13253 0.26871,0.12973 0.30591,0.12973 0.0372,0 0.12126,0.11829 0.14057,0.15139 0.0177,0.0331 0.003,0.0469 0.0206,0.0579 0.018,0.0124 0.11575,0.1142 0.11575,0.1142 0,0 0.0249,0.0815 -0.0372,0.15039 -0.062,0.0703 -0.0868,0.18603 -0.0868,0.18603 0,0 -0.0204,0.12641 0.0718,0.13641 0.0923,0.01 0.18862,-0.047 0.18862,-0.047 l 0.11317,-0.0992 -0.007,0.0362 -0.1085,0.15814 -0.18193,0.0868 c 0,0 -0.0703,0.0414 -0.0579,0.0827 0.0111,0.0414 0.11163,0.0718 0.11163,0.0718 l 0.35968,-0.019 0.16639,-0.11886 0.0527,0.0156 0.1788,-0.15711 -0.0465,-0.0827 c 0,0 -0.008,-0.0565 -0.0249,-0.11988 -0.0164,-0.0634 -0.0992,-0.14986 -0.0992,-0.14986 l -0.008,-0.0636 0.0346,-0.0729 -0.0827,-0.0538 c 0,2e-5 -0.005,-0.0236 -0.019,-0.1297 -0.0124,-0.10745 0.004,-0.0731 0.0289,-0.12816 0.0249,-0.0551 -0.062,-0.11576 -0.11988,-0.19016 -0.058,-0.073 -0.056,-0.25215 -0.062,-0.29766 -0.006,-0.0441 -0.0568,-0.0796 -0.0568,-0.0796 l 0.0289,-0.12298 c 0,0 0.12798,-0.13917 0.14727,-0.16537 0.0193,-0.0276 0.073,-0.16782 0.0868,-0.20362 0.0124,-0.0344 0.10234,-0.22222 0.10234,-0.23873 0,-0.018 0.0724,-0.14589 0.0754,-0.17209 0.003,-0.0262 0.0372,-0.17777 0.0372,-0.17777 0,0 0.0895,0.17661 0.12403,0.2372 0.0331,0.0589 0.0568,0.009 0.0568,-0.0103 0,-0.0193 -0.11729,-0.30022 -0.11729,-0.30022 l 0.0703,-0.0718 -0.03,-0.12247 c 0,0 -0.003,-0.14629 -0.008,-0.18759 -0.006,-0.0416 0.018,-0.0388 0.018,-0.0388 l -0.0114,-0.0506 c 0.004,0.003 0.0138,0.007 0.0372,0.0109 0.0468,0.004 0.0592,-0.0122 0.0744,-0.0687 0.0151,-0.0548 -0.10334,-0.0651 -0.10334,-0.0651 0,0 0.006,-0.13491 0.0114,-0.17621 0.006,-0.0414 -0.0499,-0.0813 -0.0899,-0.1075 -0.0386,-0.0249 -0.13501,-0.0379 -0.17362,-0.0439 -0.0401,-0.006 -0.0439,-0.061 -0.0439,-0.061 l 0.0884,-0.0124 c 0,0 0.12243,-0.0375 0.14314,-0.0455 0.0206,-0.007 0.0378,-0.0274 0.0388,-0.0563 0,-0.0276 -0.0222,-0.21654 -0.0222,-0.21654 0,0 0.10313,0.0196 0.11832,-0.12091 0.0151,-0.1406 -0.13229,-0.12557 -0.13229,-0.12557 l 0.0305,-0.0579 -0.007,-0.0677 c 0,0 -0.13491,-0.19132 -0.1638,-0.21344 -0.0276,-0.022 -0.22188,-0.0832 -0.23979,-0.0842 -0.0164,-0.003 -0.52758,-0.0644 -0.49866,-0.0878 0.0303,-0.022 -0.0596,-0.19847 -0.0858,-0.26046 -0.0262,-0.062 -0.19259,-0.34591 -0.38553,-0.3638 -0.0122,0 -0.0241,-0.003 -0.0356,-0.003 z m 2.74246,0.0259 c -0.27147,-0.004 -0.44942,0.43667 -0.48112,0.46146 -0.0238,0.0185 -0.0286,0.0446 -0.0228,0.062 1.1e-4,0 0,0 0,0 0,0.003 0.003,0.005 0.003,0.007 1.8e-4,0 0,0 0,0 0.003,0.003 0.003,0.004 0.005,0.005 2.7e-4,2.4e-4 2.7e-4,0 0,0 0.0151,0.0138 0.19947,0.0951 0.19947,0.0951 0,0 0.003,0.003 0.005,0.009 0,0 6e-5,0 0,0.003 0.003,0.007 0.008,0.0161 0.0145,0.03 0.005,0.0106 0.0111,0.0251 0.0175,0.0403 0.003,0.006 0.004,0.009 0.007,0.0156 1.9e-4,0 0,0 0,0 0.01,0.0228 0.0204,0.0495 0.0326,0.0811 1.5e-4,0 0,0 0,0 0.003,0.006 0.004,0.0106 0.007,0.0161 0.004,0.009 0.007,0.018 0.0109,0.0259 2.1e-4,0 0,0 0,0.003 0.006,0.0122 0.0114,0.0233 0.0164,0.0331 1.9e-4,0 0,0 0,0 0.005,0.01 0.0103,0.018 0.0151,0.0254 0.0238,0.0372 0.0393,0.0471 0.0408,0.0481 l -0.0987,0.0599 c 0,0 -0.0302,0.004 -0.0383,0.004 -0.008,0 -0.0606,0.0332 -0.0992,0.0595 -0.0386,0.0233 -0.0468,0.0399 -0.062,0.0537 -0.0164,0.0124 -0.0348,0.0714 -0.0388,0.0935 -0.004,0.022 -0.20553,0.26302 -0.26615,0.36639 -0.0606,0.10472 -0.15554,0.25217 -0.15554,0.25217 0,0 -0.0865,0.0652 -0.0785,0.0817 0,0.003 0.003,0.005 0.003,0.008 2.4e-4,0 0,0.003 0,0.004 0.003,0.0257 -0.005,0.0787 -0.0114,0.12713 -0.007,0.0434 0.006,0.12917 0.0145,0.17881 5e-5,0 0,0 0,0.003 0.003,0.0154 0.005,0.0278 0.006,0.0331 2e-5,0 0,0 0,0.003 0,0.003 0.003,0.006 0.004,0.01 2.1e-4,0 0,0 0,0 0.003,0.005 0.006,0.01 0.0109,0.0151 0.029,0.0357 0.0917,0.0903 0.12507,0.0941 0.0455,0.004 0.16245,0.037 0.25477,0.0687 0.0344,0.0116 0.0639,0.0148 0.0868,0.0151 0.007,3e-5 0.0146,0 0.0206,0 0.006,0 0.0119,-0.003 0.0164,-0.003 0.0116,-0.003 0.0175,-0.004 0.0196,-0.005 -0.005,0.003 -0.21331,0.15023 -0.33229,0.24235 -0.0199,0.0154 -0.0378,0.0295 -0.0512,0.0408 -0.007,0.006 -0.0124,0.0109 -0.0169,0.0151 -0.005,0.004 -0.008,0.008 -0.01,0.0103 -0.0138,0.0188 -0.0169,0.0289 -0.0119,0.0424 0.007,0.0172 0.0275,0.0412 0.0604,0.0972 0.007,0.0124 0.0132,0.0236 0.0185,0.0341 0,0 0,0 0,0 0.005,0.0103 0.009,0.0198 0.013,0.0284 0,0 0,0 0,0 0.0222,0.0525 0.0201,0.0792 0.0388,0.12248 0.003,0.004 0.003,0.007 0.005,0.01 0,0 0,0 0,0 0.003,0.003 0.003,0.006 0.004,0.008 0,0 0,0 0,0 0.003,0.003 0.003,0.005 0.005,0.007 0,0 0,0 0,0 0.003,0.003 0.003,0.003 0.005,0.004 0,0 0,0 0,0 0.003,0.003 0.003,0.003 0.005,0.004 0,0 0,0 0,0 0.003,0 0.003,0.003 0.005,0.003 0,0 0,0 0,0 0.003,0 0.003,0 0.005,0.003 0,0 0,0 0,0 0.003,0 0.004,0 0.005,0 0.014,0 0.0265,-0.006 0.0326,-0.008 0.0111,-0.004 0.0827,-0.11729 0.0827,-0.11729 l 0.0816,-0.0109 c 0,0 0.0249,-0.003 0.061,-0.009 0,0 0,0 0,0 0.009,-0.003 0.0193,-0.003 0.0294,-0.006 0.0103,-0.003 0.0212,-0.005 0.0321,-0.007 0.0111,-0.003 0.0227,-0.006 0.0341,-0.009 0.0114,-0.003 0.0225,-0.007 0.0336,-0.0114 0,0 0,0 0,0 0.006,-0.003 0.0119,-0.005 0.0185,-0.008 0.0201,-0.01 0.0453,-0.023 0.0723,-0.0388 0,0 0,0 0,0 0.018,-0.0106 0.0373,-0.0222 0.0563,-0.0341 0.0573,-0.0355 0.11541,-0.074 0.15299,-0.0992 0,0 0,0 0,0 0.0246,-0.0167 0.0399,-0.0271 0.0403,-0.0274 2.6e-4,0 0.0396,0.13031 0.0496,0.15502 0,0 0,0 0,0 0.003,0.006 0.007,0.0148 0.0124,0.0243 0,0 0,0 0,0 0.0183,0.0294 0.0471,0.0672 0.0471,0.0672 0,0 0.0169,0.0847 0.0351,0.13435 0.003,0.007 0.005,0.0132 0.008,0.0185 0.01,0.0214 0.0293,0.0522 0.0465,0.0775 0.009,0.0127 0.0169,0.0238 0.0227,0.032 0.003,0.003 0.009,0.013 0.009,0.013 0,0 0,0 0,0 -2.6e-4,0.003 -0.0321,0.18987 -0.0527,0.23927 -0.01,0.0249 -0.0193,0.0585 -0.0331,0.0987 0,0 0,0 0,0 -0.0138,0.04 -0.0316,0.0863 -0.0563,0.13641 -0.003,0.006 -0.006,0.0135 -0.008,0.0201 -0.0367,0.10131 -0.005,0.24003 -0.003,0.24752 0.003,0.01 0.071,0.20085 0.0781,0.22016 0.006,0.0206 0.036,0.18778 0.0589,0.24493 0,0 0,0 0,0 0.003,0.003 0.003,0.007 0.004,0.01 0.0222,0.0455 -0.007,0.0853 0,0.13902 0,0.0103 0.007,0.0196 0.0151,0.0274 0.003,0.003 0.005,0.005 0.008,0.007 0,0 0,0 0,0 0.003,0.003 0.006,0.005 0.009,0.007 0,0 0,0 0,0 0.003,0.003 0.007,0.004 0.0103,0.006 0,0 0,0 0,0 0.004,0.003 0.008,0.004 0.013,0.006 0.003,0.003 0.007,0.003 0.01,0.004 0,0 0,0 0,0 0.008,0.003 0.0156,0.005 0.0227,0.007 0,0 0,0 0,0 0.0193,0.006 0.0322,0.008 0.0357,0.008 0,5e-5 0.003,0 0.003,0 0,0 0.0156,0.0566 0.0372,0.0977 0,0 0,0 0,0 0.003,0.006 0.006,0.0111 0.009,0.0161 0,0 0,0 0,0 0.007,0.0103 0.0132,0.0222 0.019,0.0352 0.0116,0.0257 0.0206,0.054 0.0254,0.077 0,0 0,0 0,0 1.6e-4,0 0,0 0,0.003 0.003,0.0103 0.003,0.0198 0.003,0.0269 0,0.0317 -0.0108,0.10594 -0.0108,0.10594 0,0 0,0 0,0 l 0.005,0.013 0.013,0.0403 -0.003,0.0486 -0.0274,0.0151 -0.17518,0.11835 -0.20516,0.18086 0.0977,0.13073 c 0,0 0,0 0,0 0,-2e-5 0.01,0 0.0254,-0.003 0.0156,-0.003 0.0373,-0.004 0.061,-0.007 0.0116,-0.003 0.0243,-0.003 0.0367,-0.005 0,0 0,0 0,0 0.0124,-0.003 0.0251,-0.004 0.0372,-0.007 0.0246,-0.005 0.0475,-0.01 0.0651,-0.0156 0.0175,-0.006 0.0351,-0.014 0.0517,-0.0217 0,0 0,0 0,0 0.008,-0.004 0.0167,-0.008 0.0243,-0.0119 0.008,-0.004 0.0151,-0.008 0.0217,-0.0114 0.0132,-0.007 0.0246,-0.0143 0.0325,-0.019 0.008,-0.005 0.0124,-0.008 0.0124,-0.008 0,0 0.003,0.003 0.007,0.006 0,0 0,0 0,0 0.003,0.003 0.005,0.004 0.008,0.006 0,0 0,0 0,0 0.0156,0.0106 0.0395,0.0228 0.0584,0.0124 0.003,0 0.005,-0.003 0.007,-0.003 0,0 0,0 0,0 0.009,-0.003 0.0241,-0.007 0.0408,-0.0103 0.0111,-0.003 0.0238,-0.005 0.0367,-0.007 0.0127,-0.003 0.0262,-0.005 0.0393,-0.007 0.0262,-0.004 0.0515,-0.008 0.0703,-0.0109 0,0 0,0 0,0 0.0183,-0.003 0.0305,-0.004 0.0305,-0.004 0,0 0,0 0,0 0,0 0,-0.0813 -0.004,-0.10747 0,-0.0111 0,-0.0345 0,-0.0579 0.009,-0.0496 0.0251,-0.13645 0.019,-0.16537 v 0 c 0,0 2e-5,0 0,0 0,0 -0.005,-0.0241 -0.01,-0.0548 -0.006,-0.032 -0.0127,-0.0722 -0.0175,-0.10388 0,-0.004 0,-0.009 0,-0.013 0,0 0,0 0,0 -3e-5,-0.004 2.1e-4,-0.008 0,-0.0119 2e-5,0 -3e-5,0 0,0 0,-0.004 0,-0.008 0.003,-0.0124 0.008,-0.052 0.0368,-0.11641 0.0455,-0.15914 0,-0.003 0.003,-0.007 0.003,-0.01 0,-0.003 0,-0.007 0,-0.01 0,-0.006 -5e-5,-0.014 0,-0.0217 0,-0.007 0,-0.0145 -0.003,-0.0222 -5e-5,0 3e-5,0 0,0 -2.6e-4,-0.003 0,-0.004 0,-0.006 -0.003,-0.0143 -0.004,-0.0286 -0.007,-0.0418 -0.004,-0.0196 -0.007,-0.0339 -0.009,-0.0434 0,-0.004 -0.003,-0.01 -0.003,-0.01 0,0 0,0 0,0 0,0 0.022,-0.0519 0.0357,-0.0657 0.0103,-0.009 0.0212,-0.0599 0.0243,-0.0976 0,-0.006 0,-0.0114 0,-0.0164 0,0 0,0 0,0 0,0 0,0 0,0 1.1e-4,-0.005 -2.1e-4,-0.009 0,-0.013 -3e-5,0 3e-5,0 0,0 -8e-5,-0.003 0,-0.004 0,-0.006 -1.1e-4,0 0,0 0,-0.003 -0.009,-0.029 -0.0579,-0.0998 -0.0878,-0.14676 -2.4e-4,0 0,0 0,0 -0.005,-0.008 -0.01,-0.0154 -0.0135,-0.0217 -2.4e-4,0 -2.7e-4,0 0,0 -0.004,-0.007 -0.006,-0.0119 -0.008,-0.0156 -0.003,-0.003 -0.003,-0.007 -0.003,-0.0119 -6e-5,0 2e-5,0 0,0 0,-0.004 0,-0.01 0,-0.0151 0,0 -3e-5,0 0,0 0,0 0,0 0,0 5e-5,-0.005 0,-0.0108 0,-0.0164 0.003,-0.0309 0.0114,-0.063 0.0114,-0.063 0,0 0.003,0.003 0.004,0.006 0.007,0.0116 0.0265,0.0404 0.0569,0.062 0.0281,0.0201 0.0566,0.0817 0.0703,0.11422 0,0 0,0.003 0,0.003 1.1e-4,0 0,0 0,0 0,0.003 0,0 0,0.003 0.003,0.008 0.006,0.0145 0.006,0.0145 0,0 0.0303,0.0427 0.0661,0.0537 0.0358,0.0124 0.14626,-0.004 0.14626,-0.004 l 0.22169,0.15036 0.0811,0.0811 c 0,0.003 -0.0249,0.16028 -0.0305,0.24029 -2e-5,0 0,0 0,0 0,0.0111 -0.003,0.0206 -0.003,0.0279 0.003,0.0606 -0.1075,0.1461 -0.1075,0.1819 0,0.009 0.003,0.0204 0.005,0.032 0,0.003 0.003,0.007 0.003,0.0103 0,0.003 0.003,0.005 0.004,0.007 2.6e-4,0 2.6e-4,0 0,0.003 0.003,0.003 0.003,0.005 0.005,0.007 2.1e-4,0 2.7e-4,0 0,0 0.003,0.003 0.004,0.005 0.006,0.007 0.0196,0.0214 0.0548,0.0371 0.12041,0.032 0.13092,-0.0124 0.23876,-0.0811 0.23876,-0.0811 0,0 0.0383,-0.0923 0.0548,-0.15711 8e-5,0 -8e-5,0 0,0 0.003,-0.008 0.004,-0.0153 0.007,-0.0227 0.0177,-0.0533 0.0486,-0.0894 0.0486,-0.0894 l 0.0388,-0.004 c 0,0 0.0606,-0.12676 0.0744,-0.16536 0.003,-0.009 0.004,-0.0199 0.004,-0.0294 0,0 0,0 0,0 0,0 5e-5,-0.003 0,-0.003 -2.4e-4,-0.004 0,-0.008 -0.003,-0.0124 0,-0.003 0,-0.004 -0.003,-0.006 0,-0.003 0,-0.005 -0.003,-0.007 0,-0.004 -0.003,-0.008 -0.004,-0.0114 -1.6e-4,0 0,0 0,0 -0.003,-0.003 -0.003,-0.007 -0.005,-0.01 -2.1e-4,0 0,0 0,0 -0.004,-0.006 -0.008,-0.0111 -0.0119,-0.014 -0.0164,-0.0124 -0.0548,-0.0454 -0.0548,-0.0454 l -0.0413,-0.0429 c 0,0 -0.10906,-0.092 -0.15864,-0.11679 -0.009,-0.005 -0.0212,-0.0148 -0.0341,-0.0289 -2.4e-4,-2.6e-4 0,0 0,0 -0.004,-0.004 -0.008,-0.009 -0.013,-0.0145 -2.4e-4,-2.6e-4 0,0 0,0 -0.009,-0.0109 -0.0188,-0.0227 -0.0284,-0.0351 -2.1e-4,0 0,0 0,0 -0.01,-0.0124 -0.0193,-0.0254 -0.0284,-0.0382 -2.1e-4,0 -2.6e-4,0 0,0 -0.009,-0.013 -0.0182,-0.0254 -0.0265,-0.0372 -2.3e-4,0 0,0 0,0 -0.0241,-0.0355 -0.0411,-0.0619 -0.0418,-0.063 0,0 0.003,-0.022 0.004,-0.077 1.9e-4,-0.004 -5e-5,-0.008 0,-0.0124 -1.3e-4,-0.003 0,-0.003 0,-0.004 0,-0.003 0,-0.005 -0.003,-0.007 -0.003,-0.007 -0.004,-0.0146 -0.007,-0.0217 -1.6e-4,0 0,0 0,0 -0.003,-0.003 -0.003,-0.007 -0.005,-0.0103 0,0 0,0 0,0 0,0 0,0 0,0 -0.003,-0.003 -0.004,-0.007 -0.006,-0.0103 -1.8e-4,0 0,0 0,0 -0.004,-0.007 -0.009,-0.0138 -0.0135,-0.0201 -2.4e-4,0 0,0 0,0 -0.005,-0.006 -0.01,-0.0122 -0.0145,-0.0175 -2.7e-4,0 -2.7e-4,0 0,0 -0.0154,-0.0172 -0.0305,-0.029 -0.0398,-0.0305 -0.0246,-0.004 -0.14346,-0.13851 -0.14573,-0.14108 0,0 0,0 0,0 -5e-5,0 -0.003,-0.007 -0.004,-0.0169 -0.003,-0.01 -0.004,-0.0222 -0.007,-0.0357 -8e-5,0 0,0 0,0 -0.003,-0.007 -0.003,-0.0132 -0.005,-0.0196 -1.1e-4,0 0,0 0,0 -0.004,-0.013 -0.008,-0.0249 -0.0135,-0.0331 -2.2e-4,0 0,0 0,0 -0.003,-0.004 -0.006,-0.008 -0.008,-0.009 -0.003,-0.003 -0.005,-0.003 -0.007,-0.005 -2.1e-4,-2.7e-4 0,0 0,0 -0.003,-0.003 -0.004,-0.006 -0.006,-0.009 0,0 0,0 0,0 0,0 0,0 0,0 -0.003,-0.008 -0.006,-0.0175 -0.008,-0.0284 -0.004,-0.023 -0.005,-0.0522 -0.003,-0.0832 0,-0.0161 -0.003,-0.0368 -0.006,-0.0584 -0.003,-0.0103 -0.004,-0.0206 -0.007,-0.031 -8e-5,0 0,0 0,0 -0.003,-0.0103 -0.006,-0.0206 -0.008,-0.0305 -1.3e-4,0 0,0 0,0 -0.006,-0.0199 -0.0114,-0.038 -0.0161,-0.0512 -2.4e-4,0 0,0 0,0 -0.004,-0.0127 -0.007,-0.0193 -0.007,-0.0201 0,0 0.0817,-0.12803 0.1106,-0.21344 0.0303,-0.0854 0.0811,-0.11729 0.0811,-0.11729 0,0 0.003,0.0106 0.006,0.0233 1.6e-4,0 0,0 0,0 0.003,0.006 0.003,0.013 0.005,0.019 0,0.003 1.9e-4,0.003 0,0.005 0,0.004 0.003,0.008 0.003,0.0109 0,0.004 0.003,0.01 0.005,0.0161 0,0 0,0 0,0 0,0.003 0.003,0.005 0.004,0.008 1.9e-4,0 0,0 0,0 0.003,0.003 0.003,0.005 0.005,0.007 2.4e-4,0 0,0 0,0 0.003,0.003 0.003,0.003 0.005,0.005 0.006,0.005 0.0114,0.005 0.013,-0.008 0.005,-0.0317 0.0124,-0.21497 0.0124,-0.21497 l 0.11679,-0.0372 0.22482,-0.077 c 0,0 -0.007,-0.0514 -0.007,-0.0734 0,-1.6e-4 0,0 0,0 0,0 0,-0.004 0,-0.005 0,-0.009 -0.004,-0.0267 -0.009,-0.0527 -0.006,-0.0298 -0.0137,-0.0674 -0.0217,-0.10437 -1.1e-4,0 0,0 0,0 -0.0161,-0.0742 -0.0318,-0.14468 -0.032,-0.14574 l -0.01,-0.13488 -0.0429,-0.23821 c 0,0 0,0 0,0 v 0 c 0,0 -0.0744,-0.0606 -0.1075,-0.0636 -0.0343,0 -0.11843,-0.0109 -0.11936,-0.0109 l 0.004,-0.0393 c 0,0 0.17325,-0.0632 0.24495,-0.10594 0.073,-0.0427 0.11729,-0.21516 0.0925,-0.32401 -8e-5,0 0,0 0,0 0,-0.003 -0.003,-0.006 -0.003,-0.009 0,0 0,0 0,0 -1e-4,-2.6e-4 1.1e-4,0 0,0 0,-0.003 -0.003,-0.007 -0.004,-0.0103 0,0 0,0 0,0 0,0 0,0 0,0 -0.0106,-0.0238 -0.0294,-0.0524 -0.0527,-0.0832 -2.1e-4,0 0,0 0,0 -0.0156,-0.0204 -0.0332,-0.0416 -0.0517,-0.063 -2.6e-4,-2.6e-4 0,0 0,0 -0.009,-0.0106 -0.0191,-0.0212 -0.0284,-0.0315 -2.6e-4,0 -2.6e-4,0 0,0 -0.01,-0.0106 -0.019,-0.0209 -0.0284,-0.031 -2.7e-4,0 -2.7e-4,0 0,0 -0.0193,-0.0206 -0.0386,-0.0398 -0.0563,-0.0579 0,0 -2.4e-4,0 0,0 -0.0535,-0.0545 -0.0945,-0.0935 -0.0951,-0.094 l 0.37155,-0.30647 v -0.003 l -0.004,-0.018 -0.008,-0.0315 0.0527,-0.0414 v 0 l -0.0103,-0.0169 0.092,-0.0868 v 0 l -0.0424,-0.0537 -0.0858,0.0579 -0.0589,-0.0744 -0.0827,0.0444 v 0 0 l 0.0388,0.0847 0.004,0.008 -0.11266,0.0827 -0.2563,0.18034 -0.0786,-0.0233 c 0,0 -0.003,-0.003 -0.005,-0.006 -1.6e-4,-1.9e-4 0,0 0,0 -0.0114,-0.0143 -0.0424,-0.0496 -0.11162,-0.10025 -0.0924,-0.0675 -0.14624,-0.0496 -0.14624,-0.0496 0,0 -0.13491,-0.008 -0.16383,-0.008 -0.0289,0 -0.0883,0.0151 -0.0883,0.0151 h -0.11679 c 0,0 -0.10094,0.007 -0.13954,-0.007 -0.0185,-0.007 -0.0268,-0.0122 -0.0305,-0.0164 -2.7e-4,0 0,0 0,0 0,0 0,-0.003 -0.003,-0.003 0,0 0,0 0,0 0,0 0,0 0,0 -1.3e-4,0 8e-5,0 0,0 -5e-5,0 0,-0.003 0,-0.003 0,0 0.0536,-0.022 0.0894,-0.048 0.0228,-0.0175 0.0273,-0.0425 0.0217,-0.0682 0,-0.005 -0.003,-0.009 -0.004,-0.014 -1.1e-4,0 0,0 0,0 -0.003,-0.005 -0.004,-0.009 -0.006,-0.014 0,0 0,0 0,0 0,0 0,0 0,0 -0.003,-0.005 -0.005,-0.009 -0.007,-0.0135 -1.6e-4,-2.7e-4 0,0 0,-0.003 -0.003,-0.005 -0.006,-0.0127 -0.0114,-0.0233 -1.3e-4,0 0,0 0,0 -0.009,-0.0193 -0.022,-0.05 -0.0351,-0.0811 -0.0101,-0.0238 -0.0198,-0.0464 -0.0305,-0.0718 -0.0164,-0.0388 -0.0325,-0.0768 -0.0455,-0.10697 -1.9e-4,0 0,0 0,0 -0.006,-0.0148 -0.0114,-0.0274 -0.0161,-0.0372 -2.4e-4,0 0,0 0,0 -0.005,-0.01 -0.008,-0.0169 -0.01,-0.0196 -0.004,-0.006 -0.014,-0.0209 -0.03,-0.0403 -2.1e-4,-2.7e-4 0,0 0,0 -0.004,-0.005 -0.008,-0.009 -0.013,-0.0145 -2.3e-4,-2.4e-4 0,0 0,0 -0.0546,-0.0604 -0.16277,-0.14555 -0.35036,-0.1483 z m 5.80636,0 c -0.27147,-0.004 -0.4494,0.43667 -0.48112,0.46146 -0.0159,0.0124 -0.0228,0.0283 -0.0243,0.0424 -3e-5,0 5e-5,0 0,0 -2.4e-4,0.003 0,0.006 0,0.009 0,0.0106 0.005,0.0193 0.0109,0.0249 0.0151,0.0138 0.19946,0.0951 0.19946,0.0951 0,0 0.0279,0.0512 0.0775,0.17931 0.0486,0.12568 0.0899,0.14997 0.0915,0.15092 l -0.0987,0.0599 c 0,0 -0.0282,0.004 -0.0382,0.004 -0.008,0 -0.0607,0.0332 -0.0992,0.0594 -0.0386,0.0233 -0.0468,0.0399 -0.062,0.0537 -0.0164,0.0124 -0.0348,0.0714 -0.0388,0.0935 -0.004,0.022 -0.20553,0.26302 -0.26615,0.3664 -0.0606,0.10472 -0.15398,0.25217 -0.15398,0.25217 0,0 -0.0781,0.0578 -0.0796,0.0786 0,0 0,0 0,0 8e-5,0 0,0.003 0,0.003 1.3e-4,0 -1.6e-4,0 0,0 0,0.003 0.003,0.004 0.003,0.007 8e-5,0 -5e-5,0 0,0 0,0.003 0,0.007 0,0.0109 0,0 -2e-5,0 0,0.003 1.1e-4,0.009 0,0.0198 -0.003,0.032 -5e-5,0 5e-5,0 0,0.003 0,0.0124 -0.003,0.0259 -0.005,0.0398 -6e-5,0 5e-5,0 0,0 -0.003,0.014 -0.005,0.0287 -0.007,0.0429 0,0.004 0,0.008 0,0.0119 -2e-5,0 3e-5,0 0,0 0,0.004 0,0.008 0,0.0124 0,0 0,0 0,0 -1.3e-4,0.009 -8e-5,0.0188 0,0.0289 1.1e-4,0.003 0,0.004 0,0.006 0.003,0.0193 0.003,0.0398 0.006,0.0594 3e-5,0 -5e-5,0 0,0 0.003,0.0212 0.007,0.0411 0.009,0.0574 0.003,0.009 0.003,0.0124 0.003,0.0185 0,0.005 0.003,0.0135 0.003,0.0161 6e-5,0 0,0 0,0.003 0,0 0,0 0,0 2.2e-4,0 0,0.003 0,0.003 0.01,0.0273 0.0973,0.11152 0.14055,0.11628 0.0441,0.004 0.16142,0.037 0.25374,0.0687 0.0862,0.0291 0.13705,0.009 0.14366,0.006 -0.004,0.003 -0.14819,0.10427 -0.26561,0.19171 -0.0594,0.0443 -0.11179,0.085 -0.13438,0.10647 -0.005,0.004 -0.008,0.008 -0.01,0.0103 0,0 0,0 0,0 -0.01,0.0132 -0.0138,0.0217 -0.014,0.0305 -2e-5,0.003 1.6e-4,0.003 0,0.005 0,0 0,0 0,0 0,0.003 0,0.003 0.003,0.005 0,0 0,0 0,0 0.005,0.0135 0.0183,0.0305 0.0398,0.0641 0.006,0.01 0.0127,0.0204 0.0201,0.0331 0.007,0.0124 0.0138,0.0235 0.019,0.0341 0,0 0,0 0,0 0.005,0.0103 0.01,0.0198 0.0135,0.0284 0,0 0,0 0,0 0.007,0.0177 0.0122,0.0321 0.0161,0.0455 0.004,0.0132 0.006,0.0249 0.01,0.0372 0,0 0,0 0,0 0.003,0.0122 0.007,0.0249 0.0135,0.0393 0.003,0.004 0.003,0.007 0.005,0.01 0,0 0,0 0,0 0.003,0.003 0.003,0.006 0.005,0.008 0,0 0,0 0,0 0,0.003 0.003,0.004 0.004,0.005 0,0 0,0 0.003,0.003 0.023,0.0254 0.05,0.008 0.0589,0.005 0.003,0 0.004,-0.003 0.007,-0.007 0.003,-0.003 0.007,-0.008 0.0109,-0.014 0.0249,-0.0336 0.0651,-0.0966 0.0651,-0.0966 l 0.0817,-0.0108 c 0,0 0.1002,-0.01 0.19122,-0.0429 0.0896,-0.0344 0.34208,-0.20825 0.34208,-0.20825 0,0 0.01,0.0329 0.0206,0.0687 0.0111,0.0358 0.0236,0.0744 0.0285,0.0868 0,0 0,0 0,0 0,0.003 0.003,0.007 0.005,0.0108 0.003,0.004 0.005,0.008 0.008,0.0135 0,0 0,0 0,0 0.0183,0.0294 0.0475,0.0672 0.0475,0.0672 0,0 0.005,0.0276 0.0135,0.0605 0.006,0.0246 0.0135,0.0521 0.0212,0.0734 0,0 0,0 0,0 0.003,0.007 0.005,0.0135 0.007,0.0185 0.003,0.005 0.006,0.0114 0.009,0.0175 0.003,0.006 0.007,0.013 0.0114,0.0196 0.0249,0.0405 0.0579,0.0852 0.0579,0.0852 0,0 -0.003,0.0119 -0.005,0.0305 0,0 0,0 0,0 -0.003,0.0185 -0.008,0.0436 -0.013,0.0703 0,0 0,0 0,0 -0.003,0.0132 -0.006,0.0274 -0.008,0.0408 -0.003,0.0135 -0.006,0.0265 -0.009,0.0388 0,0 0,0 0,0 -0.003,0.0124 -0.006,0.0235 -0.009,0.0336 -0.003,0.01 -0.006,0.018 -0.008,0.0243 0,0 0,0 0,0 -0.005,0.0124 -0.01,0.0269 -0.0151,0.0434 -0.0109,0.0331 -0.0241,0.0735 -0.0424,0.11938 0,0 0,0 0,0 -0.005,0.0114 -0.01,0.023 -0.0151,0.0351 -0.005,0.0122 -0.0109,0.0241 -0.0169,0.0367 0,0 0,0 0,0 -0.0122,0.0254 -0.0196,0.0541 -0.0233,0.0832 -0.009,0.0731 0.004,0.14782 0.01,0.17415 0,0.005 0.003,0.009 0.003,0.01 0.003,0.005 0.0193,0.055 0.0377,0.10646 0.0183,0.0513 0.0372,0.10425 0.0408,0.1142 0.003,0.006 0.006,0.0217 0.01,0.0429 0,0.004 0.003,0.009 0.003,0.013 0.006,0.0308 0.0143,0.0683 0.0227,0.10438 0,0 0,0 0,0 0,0.003 0.003,0.005 0.003,0.007 0.007,0.0308 0.0145,0.0589 0.0217,0.0765 0,0 0,0 0,0 0.003,0.004 0.003,0.007 0.005,0.01 0.003,0.006 0.005,0.0111 0.006,0.0164 0,0.003 0,0.006 0.003,0.008 0,0 0,0 0,0 0,0.008 0,0.0161 0,0.0243 0,0.006 0,0.0108 -0.003,0.0164 0,0 0,0 0,0 -0.003,0.0111 -0.004,0.0222 -0.006,0.0341 0,0 0,0 0,0 -0.003,0.0119 -0.003,0.0244 0,0.0377 0,0.003 0,0.007 0.003,0.01 0.003,0.006 0.007,0.0122 0.0119,0.0175 0.0114,0.0116 0.0287,0.0204 0.046,0.0274 0.003,0 0.005,0.003 0.007,0.003 0,0 0,0 0,0 0.003,0 0.003,0.003 0.005,0.003 0.0262,0.009 0.0474,0.0124 0.0527,0.0135 0,10e-5 0.004,0 0.004,0 0,0 0.003,0.005 0.004,0.0124 0.005,0.0151 0.0137,0.042 0.0254,0.0672 0.003,0.006 0.006,0.0122 0.009,0.018 0,0 0,0 0,0 0.003,0.006 0.007,0.0111 0.01,0.0161 0,0 0,0 0,0 0,0.003 0.003,0.004 0.004,0.006 0.0212,0.0364 0.0383,0.0905 0.0424,0.12301 0,0.005 0,0.009 0,0.013 0,0.0317 -0.0114,0.10594 -0.0114,0.10594 v 0 l 0.0175,0.0532 -0.003,0.0486 -0.0274,0.0151 -0.17518,0.11835 -0.20516,0.18087 0.0977,0.13073 c 0,0 0.01,0 0.0254,-0.003 0,0 0,0 0,0 0.0159,-0.003 0.0377,-0.004 0.0615,-0.007 0.0119,-0.003 0.0243,-0.003 0.0367,-0.005 0,0 0,0 0,0 0.0124,-0.003 0.0251,-0.005 0.0372,-0.007 0.0119,-0.003 0.0238,-0.005 0.0346,-0.007 0,0 0,0 0,0 0.0106,-0.003 0.0204,-0.005 0.029,-0.008 0,0 0,0 0,0 0.009,-0.003 0.0177,-0.007 0.0264,-0.0103 0.009,-0.004 0.0177,-0.007 0.0259,-0.0114 0.008,-0.004 0.0161,-0.008 0.0238,-0.0119 0.008,-0.004 0.0151,-0.008 0.0217,-0.0114 0,0 0,0 0,0 0.0132,-0.007 0.0246,-0.0143 0.0326,-0.0191 0.007,-0.004 0.0124,-0.008 0.0124,-0.008 0,0 0.0111,0.0103 0.0259,0.0185 0.004,0.003 0.007,0.004 0.0114,0.006 0,0 0,0 0,0 0.004,0.003 0.008,0.003 0.0119,0.004 0,0 0,0 0,0 0.003,0 0.004,0 0.006,0 0.003,8e-5 0.004,0 0.006,0 0.003,-2.1e-4 0.004,0 0.006,0 0,0 0,0 0,0 0.003,0 0.004,-0.003 0.006,-0.003 0.003,0 0.005,-0.003 0.007,-0.003 0,0 0,0 0,0 0.003,0 0.007,-0.003 0.0108,-0.003 0.008,-0.003 0.0183,-0.005 0.0295,-0.007 0.0225,-0.005 0.0498,-0.01 0.076,-0.014 0,0 0,0 0,0 0.0262,-0.004 0.0516,-0.008 0.0703,-0.0109 0.0188,-0.003 0.031,-0.004 0.031,-0.004 0,0 0,-0.0813 -0.004,-0.10748 0,-0.0111 0,-0.0345 0,-0.0579 0.005,-0.0249 0.0109,-0.0589 0.0151,-0.0904 0.003,-0.0159 0.004,-0.0309 0.005,-0.0439 0,-0.006 0,-0.013 0,-0.018 -1.1e-4,-0.005 0,-0.009 0,-0.013 h 0.003 c 0,0 -0.018,-0.0963 -0.0259,-0.15967 -0.01,-0.062 0.0466,-0.16796 0.0496,-0.21754 0.003,-0.0496 -0.0238,-0.14627 -0.0238,-0.14627 0,0 0.0238,-0.0523 0.0362,-0.0661 0.0138,-0.0124 0.0278,-0.0964 0.0249,-0.12817 -1.9e-4,-0.004 -0.003,-0.01 -0.006,-0.0169 -0.003,-0.006 -0.006,-0.0138 -0.0109,-0.0217 -2.7e-4,0 0,0 0,-0.003 -0.005,-0.008 -0.01,-0.0172 -0.0156,-0.0265 0,0 0,0 0,-0.003 -0.006,-0.01 -0.0119,-0.019 -0.018,-0.0289 0,0 0,0 0,0 -0.013,-0.0201 -0.0259,-0.04 -0.0367,-0.0568 0,0 0,0 0,0 -0.005,-0.008 -0.009,-0.0153 -0.013,-0.0217 -0.004,-0.006 -0.006,-0.0114 -0.008,-0.0151 -0.0111,-0.0287 0.007,-0.10859 0.008,-0.11007 0,0 0,0.003 0.003,0.005 0,0 0,0 0,0 0.003,0.004 0.006,0.009 0.0114,0.0156 0.003,0.003 0.004,0.005 0.006,0.007 0,0 0.003,0.003 0.003,0.004 0,0 0,0 0,0 0.003,0.003 0.006,0.007 0.01,0.0108 0,0 0,0 0,0 0.003,0.003 0.007,0.007 0.0109,0.0103 0,0 0,0 0,0 0.004,0.003 0.008,0.007 0.0119,0.01 0,0 0,0 0,0 0.003,0.003 0.005,0.004 0.007,0.006 0.0164,0.0164 0.0328,0.0444 0.0455,0.0703 2.7e-4,0 0,0 0,0.003 0.0143,0.0296 0.0238,0.0558 0.0238,0.0558 0,0 0.003,0.003 0.006,0.007 0.003,0.003 0.006,0.007 0.0108,0.0124 0,0.003 0.003,0.003 0.004,0.004 0,0 0,0 0,0 0.003,0.003 0.006,0.006 0.009,0.008 0,0 0,0 0,0 0.003,0.003 0.007,0.005 0.0103,0.008 0.008,0.006 0.0169,0.0111 0.0265,0.014 0.0358,0.0124 0.14626,-0.004 0.14626,-0.004 l 0.22219,0.14933 v 0 l 0.0791,0.0801 c 0,0 -0.0331,0.20966 -0.032,0.27027 0.003,0.0606 -0.1075,0.14611 -0.1075,0.1819 0,0.014 0.003,0.0323 0.0114,0.0496 0,0 0,0 0,0.003 0,0.003 0.003,0.005 0.004,0.007 0,0 0,0 0,0 0.003,0.003 0.004,0.006 0.006,0.008 0,0 0,0 0,0 0.0196,0.0212 0.0556,0.036 0.12041,0.031 0.13092,-0.0124 0.23977,-0.0811 0.23977,-0.0811 0,0 0.0371,-0.0923 0.0538,-0.1571 0.0151,-0.0661 0.0563,-0.11317 0.0563,-0.11317 l 0.0372,-0.004 c 0,0 0.0606,-0.12676 0.0744,-0.16537 0.0106,-0.0285 0,-0.0621 -0.0114,-0.0811 -0.003,-0.003 -0.003,-0.005 -0.005,-0.007 0,0 0,0 0,0 -0.003,-0.003 -0.003,-0.003 -0.005,-0.005 -2.7e-4,-2.2e-4 0,0 0,0 -0.008,-0.006 -0.0209,-0.0167 -0.032,-0.0265 0,0 0,0 0,0 -0.0109,-0.009 -0.0188,-0.0161 -0.0196,-0.0169 v 0 l -0.0413,-0.0413 c 0,0 -0.003,-0.003 -0.003,-0.003 0,0 -0.007,-0.005 -0.0164,-0.0135 0,-2.4e-4 0,0 0,0 -0.0106,-0.009 -0.0257,-0.0209 -0.0419,-0.0336 0,0 0,0 0,0 -0.0334,-0.0262 -0.0729,-0.0553 -0.0977,-0.0677 -0.003,-0.003 -0.006,-0.003 -0.009,-0.006 0,0 0,0 0,0 -0.003,-0.003 -0.007,-0.006 -0.0103,-0.009 0,0 0,0 0,0 0,0 0,0 0,0 -0.004,-0.004 -0.007,-0.007 -0.0114,-0.0119 -0.0311,-0.034 -0.0701,-0.0878 -0.0992,-0.13023 -0.008,-0.0114 -0.0145,-0.022 -0.0206,-0.031 0,0 0,0 0,0 0,0 0,0 0,0 -0.0124,-0.0188 -0.0196,-0.0301 -0.0201,-0.031 0,0 0.003,-0.022 0.004,-0.077 0,-0.0217 -0.008,-0.0463 -0.0217,-0.0687 -0.004,-0.007 -0.008,-0.0138 -0.013,-0.0201 0,0 0,0 0,0 -0.005,-0.006 -0.009,-0.0122 -0.014,-0.0175 0,0 0,0 0,0 -0.005,-0.005 -0.01,-0.0103 -0.014,-0.0145 0,0 0,0 0,0 -0.01,-0.009 -0.019,-0.014 -0.0254,-0.0151 0,-1.9e-4 -0.003,0 -0.004,-0.003 0,-2.4e-4 0,0 -0.003,0 -0.0111,-0.006 -0.0297,-0.0233 -0.0501,-0.0434 0,0 0,0 0,0 -0.008,-0.008 -0.0164,-0.0161 -0.0243,-0.0243 0,0 0,0 0,-0.003 -0.0164,-0.0172 -0.0317,-0.0336 -0.0434,-0.0465 0,0 0,0 0,0 -0.0111,-0.0124 -0.0175,-0.0199 -0.018,-0.0206 0,0 -0.0138,-0.0947 -0.0356,-0.11472 -0.003,-0.003 -0.003,-0.003 -0.004,-0.004 0,0 -0.003,0 -0.003,-0.003 0,0 0,0 0,0 0,0 -0.003,-0.003 -0.003,-0.003 -2.7e-4,0 0,0 0,0 -0.003,-0.003 -0.003,-0.006 -0.005,-0.009 -0.0111,-0.0236 -0.0143,-0.0661 -0.0114,-0.11263 0.004,-0.0634 -0.0439,-0.19431 -0.0439,-0.19431 0,0 0.0801,-0.12804 0.10904,-0.21344 0.0298,-0.0839 0.0789,-0.11568 0.0806,-0.11679 0,0.003 0.013,0.0442 0.013,0.0589 0,0.01 0.0122,0.0322 0.0222,0.0382 0,0 0,0 0,0 0,1.9e-4 0,0 0,0 0.006,0.003 0.0101,0.003 0.0119,-0.009 0.004,-0.0317 0.0114,-0.21497 0.0114,-0.21497 l 0.11679,-0.0372 0.22479,-0.077 c 0,0 -0.007,-0.0514 -0.007,-0.0734 0,-0.022 -0.0646,-0.31006 -0.0646,-0.31006 l -0.01,-0.13489 -0.0429,-0.2382 c 0,0 0,0 0,0 0,0 -0.005,-0.004 -0.0109,-0.009 0,0 0,0 -0.003,0 -0.0225,-0.0172 -0.0703,-0.0515 -0.0951,-0.0537 -0.0341,0 -0.11702,-0.0106 -0.11885,-0.0109 l 0.005,-0.0393 c 0,0 0.17233,-0.0632 0.24392,-0.10594 0.0412,-0.0241 0.0728,-0.0897 0.0884,-0.16177 0.003,-0.008 0.003,-0.0156 0.005,-0.0233 0.005,-0.0327 0.007,-0.0659 0.005,-0.0966 -10e-5,-0.003 0,-0.003 0,-0.004 0,-0.0132 -0.003,-0.0262 -0.006,-0.0382 -8e-5,0 5e-5,0 0,0 -0.0108,-0.0474 -0.0741,-0.12698 -0.14161,-0.20204 -2.4e-4,0 -2.6e-4,0 0,0 -0.0863,-0.0959 -0.17901,-0.18275 -0.18087,-0.18449 l 0.37156,-0.30697 v -0.003 l -0.0119,-0.0496 0.0522,-0.0413 v 0 0 l -0.0109,-0.0169 0.092,-0.0868 v 0 0 l -0.0429,-0.0537 -0.0853,0.0579 -0.0589,-0.0744 -0.0827,0.0444 v 0 0 l 0.0418,0.0925 -0.11213,0.0827 -0.2563,0.18034 -0.0785,-0.0233 c 0,0 -0.0251,-0.04 -0.11732,-0.1075 -0.0924,-0.0675 -0.14624,-0.0496 -0.14624,-0.0496 0,0 -0.13491,-0.008 -0.1638,-0.008 -0.0289,0 -0.0884,0.0151 -0.0884,0.0151 h -0.11679 c 0,0 -0.10094,0.007 -0.13954,-0.007 -0.0185,-0.007 -0.0268,-0.0122 -0.0305,-0.0164 -2.6e-4,0 0,0 0,0 0,-0.003 -0.003,-0.003 -0.003,-0.004 -8e-5,0 -8e-5,0 0,-0.003 0,0 0,0 0,0 0,0 0.0541,-0.022 0.0899,-0.048 0.0114,-0.009 0.018,-0.0198 0.0212,-0.0315 0,-0.003 0,-0.004 0.003,-0.006 0.003,-0.009 0,-0.0188 0,-0.029 -0.003,-0.0151 -0.009,-0.0304 -0.0175,-0.0449 -1.6e-4,-2.7e-4 0,0 0,-0.003 -0.022,-0.0372 -0.13465,-0.32112 -0.14986,-0.34311 -0.0164,-0.0233 -0.12145,-0.20116 -0.39428,-0.20516 z m -2.88563,0.0568 c -0.2563,-0.006 -0.34486,0.30059 -0.41235,0.39431 -0.0675,0.095 -0.0469,0.095 -0.0249,0.11575 0.022,0.0193 0.14779,0.077 0.14779,0.077 0,0 0.033,0.073 0.0496,0.0951 0.018,0.022 0.0455,0.11732 0.0455,0.11732 0,0 -0.0471,0.0425 -0.12558,0.0935 -0.0772,0.0482 -0.1226,0.16798 -0.15711,0.20928 -0.0344,0.04 -0.14448,0.18918 -0.22169,0.24289 -0.079,0.051 -0.0734,0.10853 -0.0734,0.10853 0,0 -0.0214,0.0281 -0.0315,0.0331 -0.0108,0.006 -0.0265,0.18757 -0.0265,0.18757 l -0.0164,0.0439 c 0,0 -0.038,0.0307 -0.0299,0.13126 0.007,0.1006 0.0747,0.24506 0.0827,0.26715 0.007,0.022 0.0894,0.036 0.11009,0.0471 0.0196,0.0124 0.0164,0.0246 0.0164,0.0728 0,0.0483 0.0651,0.0718 0.0651,0.0718 0,0 0.0606,0.32488 0.11988,0.5302 0.0606,0.20534 0.26046,0.36692 0.26046,0.36692 l -0.0124,0.0754 c 0,0 -0.007,0.1574 -0.018,0.1974 -0.01,0.0414 0.0233,0.35933 0.0233,0.44752 0,0.0868 0.0225,0.1325 0.0444,0.2 0.0236,0.0675 0.0354,0.20926 0.0274,0.27956 -0.007,0.0702 0.19275,0.14779 0.19275,0.14779 0,0 0.0772,0.16928 0.0853,0.19688 0.007,0.0276 0.0416,0.16264 0.0346,0.19844 -0.008,0.0345 -0.008,0.0894 -0.018,0.13901 -0.01,0.051 -0.0344,0.0636 -0.062,0.10078 -0.0276,0.0372 -0.0455,0.13385 -0.0455,0.13385 0,0 0.0829,0.10094 0.19999,0.0909 0.11714,-0.01 0.19857,-0.091 0.23305,-0.15296 0.0344,-0.062 0.0177,-0.21497 0.0177,-0.21497 l 0.0164,-0.0388 c 0,0 0.018,-0.17481 0.018,-0.18862 0,-0.0124 -0.0543,-0.14018 -0.0739,-0.17828 0.004,0.003 0.0375,0.0254 0.11526,0.0915 0.0827,0.0702 0.062,0.0825 0.062,0.13485 0,0.0524 0.0185,0.26461 0.0156,0.277 -0.003,0.0124 -0.0581,0.1557 -0.0651,0.1819 -0.007,0.0276 -0.0948,0.19036 -0.0879,0.20825 0.008,0.018 0.0605,0.0349 0.11007,0.0429 0.0496,0.007 0.19569,-0.008 0.23979,-0.0249 0.0455,-0.018 0.14314,-0.0262 0.16793,-0.0362 0.0251,-0.01 -0.005,-0.0577 -0.008,-0.10181 -0.003,-0.0455 -1.3e-4,-0.21095 0.0109,-0.24546 0.009,-0.0344 0.0151,-0.17639 0.0151,-0.19431 0,-0.018 0.005,-0.0577 0.0103,-0.0853 0.005,-0.0275 -0.008,-0.14158 -0.008,-0.14158 0,0 0.003,-0.0156 0.0331,-0.0403 0.0303,-0.0249 0.055,-0.0482 0.062,-0.0703 0.008,-0.0233 -0.0243,-0.0994 -0.0274,-0.16277 -0.003,-0.062 -0.003,-0.16917 -0.0249,-0.19947 -0.0217,-0.0303 -0.007,-0.1203 0.003,-0.14779 0.01,-0.0276 0.0981,-0.30422 0.0951,-0.46406 -0.003,-0.16121 0.0373,-0.19605 0.0594,-0.25116 0.0236,-0.0551 0.0481,-0.39688 0.0481,-0.39688 l 0.0175,0.0842 c 0,0 0.044,0.0565 0.047,0.008 0.003,-0.0482 -0.01,-0.2026 -0.01,-0.2026 0,0 0.19701,-0.0803 0.24392,-0.0982 0.0483,-0.0164 0.0302,-0.14431 0.0151,-0.19119 -0.0151,-0.0469 -0.0768,-0.35274 -0.0868,-0.39275 -0.01,-0.0396 -0.0696,-0.0486 -0.0796,-0.0496 -0.01,-0.003 -0.10117,-0.0303 -0.0982,-0.0455 0.003,-0.0138 0.0333,-0.1175 -0.007,-0.17259 -0.04,-0.0551 -0.11316,-0.31678 -0.11316,-0.31678 l 0.0455,-0.0884 -0.0703,-0.46406 c 0,0 0.0103,-0.20552 0.0103,-0.29093 0,-0.0843 -0.0951,-0.0925 -0.0951,-0.0925 l -0.0372,-0.0589 h -0.15452 c -0.051,0 -0.29072,-0.01 -0.30591,-0.0124 -0.0138,-0.003 -0.0376,-0.0127 -0.0346,-0.0403 0.003,-0.0275 -0.0427,-0.0851 -0.0579,-0.10438 -0.0151,-0.0206 -0.10181,-0.25525 -0.12663,-0.28834 -0.0249,-0.0331 -0.11282,-0.19291 -0.37052,-0.19691 z m -3.19823,1.7694 c 0,0 0.0259,0.0662 0.0289,0.11575 0.003,0.0496 0.0383,0.11732 0.0383,0.11732 l -0.003,0.0398 c 0,0 -0.0243,0.009 -0.0537,0.0156 -0.0148,0.003 -0.031,0.006 -0.046,0.007 -0.0151,0 -0.0291,0 -0.0398,-0.006 -0.0427,-0.0206 -0.0703,-0.0687 -0.0703,-0.0687 l -0.0151,-0.0403 c -0.0138,-0.0222 -0.0274,-0.0355 0.014,-0.0455 0.04,-0.008 0.14626,-0.13488 0.14626,-0.13488 z m 5.80583,0 c 0,0 0.0254,0.0662 0.0284,0.11575 0,0.006 0.003,0.0124 0.003,0.019 0.009,0.0462 0.0362,0.0982 0.0362,0.0982 l -0.003,0.0398 c 0,0 -0.0238,0.009 -0.0532,0.0156 -0.0148,0.003 -0.0309,0.006 -0.046,0.007 -0.0151,0 -0.0291,0 -0.0398,-0.006 -0.0427,-0.0206 -0.0703,-0.0687 -0.0703,-0.0687 l -0.0151,-0.0403 c -0.0138,-0.0222 -0.0273,-0.0355 0.014,-0.0455 0.0399,-0.008 0.14623,-0.13488 0.14623,-0.13488 z m -8.69868,0.45373 c 0.0164,0 0.0312,0.003 0.0429,0.019 0.0249,0.0317 0,0.0455 0.0729,0.0455 0.0716,0 0.201,0.0233 0.201,0.0233 0,0 -0.14726,0.20682 -0.25476,0.27852 -0.10748,0.0731 -0.2644,0.17349 -0.36637,0.1845 -0.1006,0.0109 -0.13679,0.0401 -0.26355,-0.007 -0.12682,-0.0455 -0.19431,-0.10644 -0.19431,-0.10644 0,0 -0.0779,-0.13605 -0.0879,-0.15814 -0.0111,-0.022 -0.0496,-0.0594 -0.0496,-0.0594 l -0.0222,-0.029 0.38706,-0.15349 c 0,0 0.12022,0.0629 0.18912,0.0569 0.0675,-0.007 0.25183,-0.0818 0.29044,-0.0858 0.0198,-0.003 0.0388,-0.008 0.0553,-0.009 z m -4.18115,0.10232 c 0,0 0.0342,0.0122 0.0372,0.0357 0.004,0.022 -2e-5,0.0732 -0.0372,0.10488 -0.0386,0.0304 -0.0548,0.0341 -0.0548,0.0341 h -0.13126 l -0.50538,-0.0703 0.28215,-0.0119 0.0703,0.0259 0.0858,-0.0408 0.0605,0.0206 z m 9.78286,0.0584 c 0,0 0.0494,-0.003 0.0646,0.0124 0.0148,0.0151 0.013,0.0524 0.018,0.0703 0.004,0.0164 0.1075,0.11316 0.1075,0.11316 0,0 0.0199,0.0773 0.0249,0.10491 0.004,0.0276 0.0453,0.11819 0.077,0.1416 0.0336,0.022 0.0279,0.10232 0.0279,0.10232 0,0 0.01,0.0606 -0.018,0.0827 -0.0262,0.0233 -0.007,0.0977 -0.007,0.0977 l -0.0754,-0.0579 c -0.0413,-0.0441 -0.12951,-0.20658 -0.1447,-0.27958 -0.0151,-0.0716 -0.0594,-0.3297 -0.0594,-0.3297 z m -2.51251,0.0496 c 0,0 0.006,0.0439 0.0269,0.0584 0,0 0,0 0,0 0,0 0.003,0.003 0.004,0.003 0,0 0,0 0,0 0.003,0 0.005,0.003 0.008,0.003 0.003,0 0.003,0 0.004,0 0,0 0,0 0,0 0,2.4e-4 0.003,0 0.003,0 0.0137,0.003 0.0321,0.006 0.0501,0.009 0.003,2.3e-4 0.003,0 0.005,0 0,0 0,0 0,0 0.003,0 0.003,0 0.006,0 0.0236,0.003 0.0456,0.006 0.046,0.006 l -0.004,0.1111 c 0,0 -0.009,0.007 -0.0233,0.018 -0.0145,0.0106 -0.0344,0.0251 -0.0563,0.0403 -0.0217,0.0151 -0.0462,0.0314 -0.0682,0.045 -0.022,0.0135 -0.0423,0.0246 -0.0574,0.0305 -0.0303,0.0111 -0.10679,0.0305 -0.17569,0.047 -0.0689,0.0164 -0.13022,0.0305 -0.13022,0.0305 0,0 0.12435,-0.17643 0.15605,-0.21082 0.004,-0.004 0.009,-0.009 0.014,-0.013 0.005,-0.004 0.0116,-0.008 0.018,-0.0124 0.013,-0.008 0.0281,-0.0172 0.0419,-0.0254 0.0138,-0.008 0.0267,-0.0156 0.0367,-0.0228 0,0 0,0 0,0 0.005,-0.003 0.009,-0.007 0.0119,-0.0103 0,0 0,0 0,0 0.003,-0.003 0.005,-0.006 0.006,-0.009 0,-0.003 0.003,-0.006 0.003,-0.009 0,-0.003 0.003,-0.007 0.003,-0.0103 0.004,-0.022 0.006,-0.0496 0.006,-0.0496 z m 5.80586,0 c 0,0 0.006,0.0379 0.0238,0.0548 0,0 0.003,0.003 0.004,0.004 0,0 0,0 0,0 0,2.4e-4 0,0 0,0 0,0 0.003,0 0.003,0.003 0.0249,0.0106 0.12404,0.0206 0.12404,0.0206 l -0.004,0.11109 c 0,0 -0.01,0.008 -0.0238,0.018 -0.0143,0.0106 -0.0346,0.0251 -0.0563,0.0403 -0.0217,0.0151 -0.0457,0.0314 -0.0677,0.0449 -0.0109,0.007 -0.022,0.013 -0.0315,0.018 -0.01,0.005 -0.0185,0.01 -0.0259,0.0124 -0.0303,0.0111 -0.10678,0.0305 -0.17568,0.047 -0.0689,0.0164 -0.13023,0.0305 -0.13023,0.0305 0,0 0.12435,-0.17643 0.15605,-0.21082 0.004,-0.004 0.009,-0.009 0.0145,-0.013 0.006,-0.004 0.0117,-0.008 0.018,-0.0124 0.0329,-0.0212 0.0755,-0.0425 0.092,-0.0584 0.003,-0.003 0.005,-0.006 0.006,-0.009 0.005,-0.0193 0.008,-0.0687 0.008,-0.0687 z m -14.05859,0.10644 0.68472,0.11266 c -0.0275,0.0206 -0.18465,0.1696 -0.31832,0.17262 -0.13504,0.004 -0.33893,-0.0387 -0.41754,-0.0595 -0.0786,-0.0193 -0.18862,-0.0883 -0.18862,-0.0883 z m 1.65934,0.78653 c 0,0 0.0161,0.0114 0.0284,0.0486 0.0124,0.0372 0.0279,0.14882 0.0279,0.14882 l -0.0811,-0.10903 c 0,0 0.01,-0.0526 0.0249,-0.0884 z m 10.02369,0.18912 c 0.0278,0.0758 0.0372,0.0975 0.0249,0.22842 -0.0124,0.12954 -0.0305,0.2744 -0.0305,0.2744 0,0 -0.0429,-0.12277 -0.0553,-0.17518 -0.0124,-0.0524 0.007,-0.21463 0.0156,-0.24496 0.007,-0.0303 0.0455,-0.0827 0.0455,-0.0827 z" />
    </g>
  </g>
</svg>
