<?xml version="1.0" encoding="UTF-8" standalone="no"?>
<!-- Created with Inkscape (http://www.inkscape.org/) -->

<svg
   width="11.41068mm"
   height="5.8123965mm"
   viewBox="0 0 11.41068 5.8123965"
   version="1.1"
   id="svg1"
   xml:space="preserve"
   sodipodi:docname="inkporter-svg-w7hhp8wm.svg"
   xmlns:inkscape="http://www.inkscape.org/namespaces/inkscape"
   xmlns:sodipodi="http://sodipodi.sourceforge.net/DTD/sodipodi-0.dtd"
   xmlns="http://www.w3.org/2000/svg"
   xmlns:svg="http://www.w3.org/2000/svg"><sodipodi:namedview
     id="namedview1"
     pagecolor="#ffffff"
     bordercolor="#000000"
     borderopacity="0.25"
     inkscape:showpageshadow="2"
     inkscape:pageopacity="0.0"
     inkscape:pagecheckerboard="0"
     inkscape:deskcolor="#d1d1d1"
     inkscape:document-units="mm"
     inkscape:zoom="1.1506941"
     inkscape:cx="329.36643"
     inkscape:cy="583.12632"
     inkscape:window-width="2560"
     inkscape:window-height="1368"
     inkscape:window-x="0"
     inkscape:window-y="0"
     inkscape:window-maximized="1"
     inkscape:current-layer="layer1" /><defs
     id="defs1" /><g
     inkscape:label="Layer 1"
     inkscape:groupmode="layer"
     id="layer1"
     transform="translate(-121.23021,-111.6648)"><g
       id="B-IP-Carrier"
       transform="translate(-455.67767,-459.817)"><g
         id="g627"><circle
           style="fill:#000000;fill-opacity:1;stroke:none;stroke-width:0.053;stroke-linecap:round;stroke-linejoin:round;stroke-dasharray:none;stroke-opacity:1"
           id="path356"
           cx="579.3703"
           cy="575.97449"
           r="1.3197134" /><circle
           style="fill:#000000;fill-opacity:1;stroke:none;stroke-width:0.053;stroke-linecap:round;stroke-linejoin:round;stroke-dasharray:none;stroke-opacity:1"
           id="path359"
           cx="585.87231"
           cy="575.97449"
           r="1.3036194" /><path
           style="fill:#000000;fill-opacity:1;stroke:none;stroke-width:0.053;stroke-linecap:round;stroke-linejoin:round;stroke-dasharray:none;stroke-opacity:1"
           d="M 579.37029,575.97447 H 580.69 l 0.46673,-0.11269 3.05787,0.0161 0.35409,0.0966 h 1.30363 l 1.06794,-0.74761 0.55753,-0.041 0.0161,0.33798 0.80467,0.0483 -0.28969,-0.65984 0.28969,-1.6577 -2.86472,0.0322 c 0,0 -2.4946,-0.90125 -2.62334,-0.90125 -0.12875,0 -3.58897,0.0322 -3.58897,0.0322 l -2.33365,2.63943 0.38626,0.8047 h 0.5102 l 0.24289,-0.42261 0.32549,0.005 z"
           id="path364" /><path
           style="fill:#000000;fill-opacity:1;stroke:none;stroke-width:0.053;stroke-linecap:round;stroke-linejoin:round;stroke-dasharray:none;stroke-opacity:1"
           d="m 580.70482,572.59545 -0.0156,-0.19106 0.0254,-0.16491 -0.0809,-0.20064 c 0,0 -0.0161,-0.0388 0.1424,-0.11326 0.15856,-0.0744 0.19092,-0.13915 0.23945,-0.14561 0.0486,-0.006 0.18446,0.01 0.26535,0.0712 0.0809,0.0615 0.15211,0.24595 0.13591,0.30419 -0.0161,0.0583 -0.12943,0.14237 -0.12943,0.14237 l 0.019,0.10105 z"
           id="path370" /><path
           style="fill:#000000;fill-opacity:1;stroke:none;stroke-width:0.053;stroke-linecap:round;stroke-linejoin:round;stroke-dasharray:none;stroke-opacity:1"
           d="m 582.08925,572.39169 c 0,0 0.0394,-0.0357 0.0556,-0.11337 0.0161,-0.0777 -0.0193,-0.24919 -0.0193,-0.24919 l -0.0356,-0.13914 c 0,0 0.0615,-0.006 0.0582,-0.11327 -0.003,-0.10679 -0.0324,-0.18767 -0.0906,-0.20709 -0.0583,-0.0193 -0.23299,-0.10678 -0.26212,-0.0841 -0.0291,0.0228 -0.0777,0.11002 -0.0777,0.11002 0,0 -0.0291,-0.0228 -0.0744,0.0161 -0.0453,0.0388 -0.22654,0.13591 -0.233,0.18444 -0.006,0.0485 -0.0259,0.1424 0.0228,0.14562 0.0485,0.003 0.0809,0.0259 0.0874,0.0518 0.006,0.0259 -0.0323,0.12621 -0.0259,0.17799 0.006,0.0517 0.19092,0.32681 0.19092,0.32681 z"
           id="path627" /></g></g></g></svg>
