<?xml version="1.0" encoding="UTF-8" standalone="no"?>
<!-- Created with Inkscape (http://www.inkscape.org/) -->

<svg
   width="13.996931mm"
   height="7.3994899mm"
   viewBox="0 0 13.996931 7.3994899"
   version="1.1"
   id="svg26913"
   sodipodi:docname="inkporter-svg-zot27x9c.svg"
   xmlns:inkscape="http://www.inkscape.org/namespaces/inkscape"
   xmlns:sodipodi="http://sodipodi.sourceforge.net/DTD/sodipodi-0.dtd"
   xmlns="http://www.w3.org/2000/svg"
   xmlns:svg="http://www.w3.org/2000/svg">
  <sodipodi:namedview
     id="namedview26915"
     pagecolor="#ffffff"
     bordercolor="#666666"
     borderopacity="1.0"
     inkscape:pageshadow="2"
     inkscape:pageopacity="0.0"
     inkscape:pagecheckerboard="0"
     inkscape:document-units="mm"
     showgrid="false"
     inkscape:zoom="0.45291836"
     inkscape:cx="114.81098"
     inkscape:cy="1266.2326"
     inkscape:window-width="1920"
     inkscape:window-height="1017"
     inkscape:window-x="-8"
     inkscape:window-y="-8"
     inkscape:window-maximized="1"
     inkscape:current-layer="layer1" />
  <defs
     id="defs26910" />
  <g
     inkscape:label="Layer 1"
     inkscape:groupmode="layer"
     id="layer1"
     transform="translate(-110.4206,-442.60953)">
    <path
       d="m 112.5998,449.96252 c -0.0209,-0.0252 -0.0492,-0.0388 -0.0628,-0.0303 -0.0319,0.0196 -0.18301,-0.0483 -0.18301,-0.0823 0,-0.0141 -0.029,-0.0257 -0.0644,-0.0257 -0.0355,0 -0.10311,-0.0414 -0.15047,-0.0921 -0.0473,-0.0506 -0.0988,-0.0921 -0.11442,-0.0921 -0.0466,0 -0.16188,-0.13808 -0.16188,-0.19384 0,-0.0284 -0.0157,-0.0518 -0.035,-0.0518 -0.0516,0 -0.11642,-0.0974 -0.11754,-0.17651 -5.3e-4,-0.038 -0.0146,-0.0691 -0.0312,-0.0691 -0.0167,0 -0.0513,-0.0502 -0.0769,-0.1117 l -0.0466,-0.11172 0.0327,-0.0394 0.0327,-0.0394 -0.0523,-0.0292 -0.0523,-0.0292 0.017,-0.12669 c 0.009,-0.0697 0.005,-0.13413 -0.009,-0.14324 -0.0303,-0.0187 -0.003,-0.19562 0.0375,-0.24819 0.0148,-0.019 0.0192,-0.0546 0.009,-0.0791 -0.009,-0.0245 -0.003,-0.0813 0.0139,-0.12605 l 0.031,-0.0814 -0.15883,-0.12112 -0.15883,-0.12112 -0.0478,0.0256 -0.0478,0.0257 -0.0579,-0.0424 -0.0579,-0.0424 0.0806,-0.12172 0.0806,-0.12171 -0.10501,-0.0648 c -0.0577,-0.0357 -0.11407,-0.0935 -0.12516,-0.12846 l -0.0201,-0.0636 0.0612,-0.0808 0.0612,-0.0808 0.11094,0.003 0.11094,0.003 v -0.038 -0.038 l 0.13047,-0.0238 c 0.0718,-0.0131 0.14228,-0.0212 0.1567,-0.0183 0.0268,0.006 0.17526,-0.11185 0.41613,-0.32953 l 0.13534,-0.12233 -0.0204,-0.44773 -0.0204,-0.44773 h 0.10445 0.10448 l 0.0114,0.14233 0.0113,0.14233 -0.0543,0.0339 -0.0543,0.0338 v 0.18928 0.18929 l 0.0691,-0.019 0.0691,-0.0189 -0.0538,-0.0113 -0.0537,-0.0112 v -0.0745 -0.0745 h 0.0634 c 0.0349,0 0.0867,-0.0123 0.11513,-0.0273 l 0.0517,-0.0272 0.16254,0.0336 0.16255,0.0336 0.38599,-0.19822 c 0.21229,-0.10901 0.40418,-0.2242 0.42645,-0.25597 l 0.0405,-0.0577 0.0457,0.0175 c 0.025,0.009 0.0944,0.004 0.15408,-0.0124 l 0.10836,-0.0299 -0.0194,-0.0527 c -0.0108,-0.0289 -0.0341,-0.0625 -0.0521,-0.0744 l -0.0327,-0.0217 0.0345,-0.0345 0.0345,-0.0345 0.22604,0.0167 c 0.12434,0.009 0.26749,0.0208 0.31815,0.0257 l 0.0921,0.009 0.0347,-0.0444 0.0346,-0.0444 0.20325,-0.0129 0.20326,-0.0129 2.3e-4,0.042 2.4e-4,0.042 0.23001,0.003 0.23002,0.003 v -0.0872 l 2e-5,-0.0871 h 0.0767 0.0768 v -0.19956 -0.19953 h -2.45591 -2.45593 v 0.0307 0.0307 h -0.18419 -0.18419 v -0.19954 -0.19954 h 0.18419 0.18419 v 0.0307 0.0307 h 1.888 1.88798 v -0.0307 c 0,-0.0169 0.0464,-0.0307 0.10322,-0.0307 0.0568,0 0.17766,-0.0148 0.26861,-0.0329 0.0909,-0.0181 0.30004,-0.0312 0.46468,-0.0292 l 0.29931,0.003 v -0.25916 -0.25917 l 0.0485,-0.0187 c 0.0267,-0.0104 0.0888,-0.0187 0.13814,-0.0187 h 0.0896 v -0.0444 c 0,-0.0489 0.11416,-0.13989 0.17567,-0.13989 0.0216,0 0.0658,0.0265 0.098,0.0588 l 0.0588,0.0588 0.1278,-0.0171 0.12782,-0.0171 -0.0143,-0.0494 c -0.008,-0.0271 -0.0242,-0.0736 -0.0364,-0.10311 l -0.0221,-0.0537 h 0.0355 c 0.0195,0 0.0499,0.0414 0.0675,0.0918 l 0.032,0.0919 0.0508,-0.0624 0.0508,-0.0624 0.13816,-0.006 0.13815,-0.006 0.019,-0.0922 0.019,-0.0921 0.003,0.0959 0.003,0.0959 0.0959,0.0192 c 0.0528,0.0105 0.11944,0.0192 0.14817,0.0192 h 0.0522 l -0.0142,-0.097 -0.0142,-0.097 0.0472,0.0181 c 0.0259,0.0104 0.13243,0.035 0.23669,0.0553 0.10426,0.0206 0.21014,0.0579 0.23531,0.0831 l 0.0458,0.0458 0.035,-0.035 c 0.043,-0.043 0.17608,-0.0461 0.17608,-0.004 0,0.0168 0.0346,0.0307 0.0768,0.0307 h 0.0768 v -0.046 -0.046 h 0.0615 0.0615 v 0.046 c 0,0.0253 0.0207,0.046 0.046,0.046 0.0254,0 0.0459,-0.0212 0.0459,-0.0473 v -0.0473 l 0.20722,0.005 c 0.11398,0.003 0.26938,-0.0104 0.34536,-0.0287 0.076,-0.0187 0.16382,-0.0342 0.1952,-0.0345 l 0.0571,-5.3e-4 -0.0185,0.0738 -0.0185,0.0738 0.0997,0.035 0.0997,0.035 0.0536,-0.066 0.0538,-0.066 -5.3e-4,-0.14241 -5.5e-4,-0.14242 -0.06,-0.0767 c -0.0772,-0.0987 -0.0772,-0.15349 0,-0.15349 h 0.0615 v -0.23024 c 0,-0.12664 0.0122,-0.23025 0.0271,-0.23025 0.0148,0 0.0367,0.10364 0.0487,0.23025 l 0.0216,0.23024 h 0.0588 c 0.0738,0 0.0741,-0.002 -0.0176,0.15803 -0.0966,0.16917 -0.0967,0.26489 -2.6e-4,0.40697 0.0422,0.0622 0.0768,0.13228 0.0768,0.15572 0,0.0235 0.0277,0.0514 0.0615,0.0621 l 0.0615,0.0195 v 0.62728 0.62724 h 0.0768 0.0768 v 0.046 0.046 h -0.0911 -0.0911 l 0.0162,0.0424 0.0163,0.0424 0.15444,0.0206 0.15444,0.0206 0.0428,-0.0356 c 0.0588,-0.0488 0.13574,-0.0134 0.13574,0.0625 v 0.0624 h 0.0614 0.0615 v 0.0587 0.0587 l 0.11512,0.018 c 0.12184,0.0191 0.8665,0.11014 0.90113,0.11014 0.0113,0 0.0274,-0.0267 0.0359,-0.0594 l 0.0155,-0.0594 0.0605,0.0159 0.0605,0.0159 0.0167,-0.0639 0.0167,-0.0639 h 0.0642 0.0643 v 0.0401 0.04 l 0.13047,0.008 c 0.0718,0.004 0.18227,0.0302 0.24559,0.058 l 0.11511,0.0505 v 0.0549 0.0549 l 0.0691,0.0139 c 0.038,0.008 0.11397,0.0214 0.16885,0.0306 l 0.0998,0.0166 v -0.0477 -0.0477 l 0.0844,0.0162 c 0.0464,0.008 0.1604,0.0245 0.25327,0.0348 0.0929,0.0104 0.20682,0.0259 0.25327,0.0348 l 0.0844,0.0162 v -0.0971 c 0,-0.0533 0.0118,-0.0925 0.0262,-0.0868 0.38257,0.14925 1.0471,0.44791 1.04739,0.47071 2.3e-4,0.0169 -0.0548,0.0622 -0.12212,0.10062 -0.0674,0.0384 -0.17327,0.11446 -0.23536,0.16885 l -0.11287,0.0988 0.10513,0.0153 0.10513,0.0153 0.009,0.0691 0.009,0.0691 h -0.12712 -0.12712 l 0.0517,0.0517 0.0517,0.0517 -0.0471,0.0344 -0.0472,0.0345 0.0623,0.0388 0.0623,0.0388 -0.0131,0.0685 -0.0131,0.0685 0.0424,0.0396 c 0.0234,0.0217 0.0378,0.0625 0.0322,0.0905 l -0.0104,0.051 -0.0991,-0.008 -0.099,-0.008 v 0.0302 c 0,0.0166 0.0222,0.0858 0.0495,0.15377 l 0.0494,0.1236 -0.0517,0.0789 -0.0517,0.0789 -0.0278,0.35842 c -0.0152,0.19714 -0.0281,0.36879 -0.0285,0.38146 -2.7e-4,0.0126 -0.17341,0.0231 -0.38447,0.0231 h -0.38373 l -0.003,0.0844 c -0.009,0.23194 -0.0952,0.57245 -0.15283,0.60807 -0.0152,0.009 -0.0279,0.0421 -0.0279,0.0723 0,0.0303 -0.0345,0.0924 -0.0767,0.13791 -0.0422,0.0455 -0.0768,0.094 -0.0768,0.10786 0,0.0138 -0.0724,0.0904 -0.16117,0.17017 -0.16698,0.15034 -0.35247,0.25819 -0.58102,0.33778 l -0.13273,0.0462 -0.32415,5.4e-4 -0.32415,5.2e-4 -0.0596,-0.045 c -0.0328,-0.0247 -0.0896,-0.0455 -0.12646,-0.046 -0.0367,-5.3e-4 -0.0876,-0.0217 -0.11294,-0.0471 -0.0253,-0.0254 -0.0667,-0.0459 -0.0919,-0.0459 -0.0253,0 -0.0874,-0.0414 -0.13797,-0.0921 -0.0507,-0.0507 -0.10593,-0.092 -0.12283,-0.092 -0.0532,0 -0.34765,-0.39643 -0.32351,-0.43549 0.0104,-0.016 -0.002,-0.0455 -0.0264,-0.0653 -0.0244,-0.02 -0.063,-0.0838 -0.0859,-0.14177 l -0.0415,-0.10542 0.0367,-0.0123 c 0.0525,-0.0174 0.0455,-0.0686 -0.009,-0.0686 -0.0253,0 -0.046,-0.0139 -0.046,-0.0307 v -0.0308 h -1.47221 -1.47219 l -0.11309,0.0768 -0.11309,0.0768 h -0.28407 -0.28408 l -0.0177,-0.0461 c -0.009,-0.0253 -0.0354,-0.0461 -0.0571,-0.0462 -0.0216,-1e-4 -0.0773,-0.02 -0.12376,-0.0443 l -0.0844,-0.044 v 0.0903 0.0903 h -0.10563 c -0.0581,0 -0.11418,-0.0139 -0.12462,-0.0307 -0.0104,-0.0169 -0.0531,-0.0307 -0.0949,-0.0307 h -0.0759 l -0.0278,-0.0691 c -0.0152,-0.038 -0.0287,-0.0518 -0.0296,-0.0307 -0.002,0.0495 -0.10124,0.0497 -0.15059,2.3e-4 l -0.0382,-0.0382 -0.0217,0.0345 c -0.0119,0.019 -0.0839,0.041 -0.15988,0.0489 -0.076,0.008 -0.27285,0.0324 -0.43747,0.0545 l -0.29932,0.0402 v 0.055 c 0,0.0719 -0.0641,0.21143 -0.0971,0.21143 -0.0142,0 -0.0257,0.0201 -0.0257,0.0446 0,0.0768 -0.0694,0.20099 -0.11238,0.20099 -0.0226,0 -0.0411,0.0144 -0.0411,0.0319 0,0.0522 -0.13113,0.21365 -0.17353,0.21365 -0.0216,0 -0.0522,0.0243 -0.068,0.054 -0.0353,0.0659 -0.37616,0.25302 -0.46095,0.25302 -0.0337,0 -0.0698,0.0139 -0.0803,0.0307 l -0.019,0.0307 h -0.37817 -0.37816 z m -1.34175,-2.73213 c 0.003,-0.0167 -0.0182,-0.035 -0.0477,-0.0406 l -0.0538,-0.0104 v 0.0505 0.0505 l 0.0477,-0.0104 c 0.0262,-0.005 0.0504,-0.0236 0.0538,-0.0402 z"
       id="B-Matador" />
  </g>
</svg>
