<?xml version="1.0" encoding="UTF-8" standalone="no"?>
<!-- Created with Inkscape (http://www.inkscape.org/) -->

<svg
   width="24.260212mm"
   height="5.9107013mm"
   viewBox="0 0 24.260212 5.9107013"
   version="1.1"
   id="svg79628"
   sodipodi:docname="inkporter-svg-k0fcoolf.svg"
   xmlns:inkscape="http://www.inkscape.org/namespaces/inkscape"
   xmlns:sodipodi="http://sodipodi.sourceforge.net/DTD/sodipodi-0.dtd"
   xmlns="http://www.w3.org/2000/svg"
   xmlns:svg="http://www.w3.org/2000/svg">
  <sodipodi:namedview
     id="namedview79630"
     pagecolor="#ffffff"
     bordercolor="#666666"
     borderopacity="1.0"
     inkscape:pageshadow="2"
     inkscape:pageopacity="0.0"
     inkscape:pagecheckerboard="0"
     inkscape:document-units="mm"
     showgrid="false"
     inkscape:zoom="0.64052329"
     inkscape:cx="135.04583"
     inkscape:cy="561.25984"
     inkscape:window-width="1920"
     inkscape:window-height="1017"
     inkscape:window-x="-8"
     inkscape:window-y="-8"
     inkscape:window-maximized="1"
     inkscape:current-layer="layer1" />
  <defs
     id="defs79625" />
  <g
     inkscape:label="Layer 1"
     inkscape:groupmode="layer"
     id="layer1"
     transform="translate(-52.309395,-81.72476)">
    <g
       id="B-Mattress"
       transform="translate(-619.56316,-497.93379)">
      <g
         id="dd"
         transform="translate(0.26399702,-9.3462941)">
        <path
           style="fill:#000000;fill-opacity:1;fill-rule:nonzero;stroke:none;stroke-width:0.352778"
           d="m 692.17188,594.37907 -0.0179,-0.11162 0.0262,-0.0455 -0.0482,-0.20119 c 0,0 -0.13366,-0.01 -0.20257,0.007 -0.0703,0.0165 -0.15296,0.10886 -0.15296,0.10886 l -0.17777,0.0427 -0.0703,-0.0606 -0.24943,0.003 -0.0648,-0.0799 0.0413,-0.48369 0.0455,-0.0841 0.0331,-0.11713 0.15021,-0.04 0.0978,-0.0909 -0.0331,-0.19017 -0.0717,-0.23564 -0.1378,-0.2949 -0.13091,-0.0785 -0.0455,-0.12402 v -0.0717 l -0.0978,-0.18328 0.1571,-0.15021 0.0717,-0.15709 -0.34038,-0.42582 v -0.0978 l -0.37896,-0.26183 -0.16398,0.0841 -0.19018,0.17776 h -0.0524 l -0.1571,-0.0923 -0.26596,-0.0138 v -0.0262 l -0.008,-0.008 0.0221,-0.073 0.0703,-0.0372 -0.0179,-0.0648 -0.0276,-0.0661 -0.0179,-0.0689 -0.0358,-0.0978 -0.062,-0.0813 -0.0841,-0.0606 -0.11575,-0.0358 -0.0896,-0.007 -0.12127,0.0124 -0.0813,0.0413 -0.062,0.0524 -0.0537,0.0606 c -10e-4,10e-4 -0.0344,0.0565 -0.0427,0.0689 -10e-4,0.004 0.005,-0.004 -0.0193,0.0482 -0.01,0.0179 -0.0152,0.0482 -0.0152,0.0482 l -0.0221,0.0758 -0.0193,0.0716 0.091,0.0234 0.005,0.003 0.003,0.004 0.01,0.01 c 0,0 0.011,0.004 0.007,0.004 -0.005,0 -0.0372,-0.004 -0.0221,-0.004 l 0.0152,0.0165 -0.0744,0.18053 0.0234,0.003 0.051,0.0303 0.0165,0.0482 0.0303,0.1254 0.033,0.0289 0.0289,0.003 0.0193,10e-4 0.01,0.0289 0.0937,0.004 0.0841,0.0551 -0.011,0.0703 0.003,0.12678 0.011,0.10473 0.0717,0.13092 0.0593,0.0758 0.0358,0.0579 0.0289,0.0565 0.0799,0.13229 -0.0785,0.0593 0.3073,0.52917 -0.83096,0.0193 -0.17363,0.17363 0.0262,0.38585 0.04,0.29628 0.16261,0.27698 0.17088,0.0785 0.0331,0.0565 0.0344,0.26183 -0.04,0.0317 -0.18603,0.1943 -0.21635,0.0193 c -0.007,-0.0386 -0.0152,-0.0772 -0.0207,-0.10198 -0.01,-0.0427 -0.10749,-0.18465 -0.10749,-0.18465 l -0.0179,-0.11162 0.0262,-0.0455 -0.0482,-0.20119 c 0,0 -0.13367,-0.01 -0.20257,0.007 -0.0689,0.0165 -0.15297,0.10886 -0.15297,0.10886 l -0.17638,0.0427 -0.0717,-0.0606 -0.24943,0.003 -0.0634,-0.0799 0.0413,-0.48369 0.0441,-0.0841 0.0331,-0.11713 0.1502,-0.04 0.0978,-0.091 -0.0331,-0.19017 -0.0717,-0.23564 -0.1378,-0.2949 -0.13092,-0.0786 -0.0455,-0.12402 v -0.0717 l -0.0978,-0.18328 0.15709,-0.15021 0.0717,-0.15709 -0.34037,-0.42581 v -0.0978 l -0.37896,-0.26183 -0.16399,0.0841 -0.19017,0.17776 h -0.0524 l -0.1571,-0.0923 -0.26596,-0.0138 v -0.0262 l -0.008,-0.008 0.0221,-0.073 0.0703,-0.0372 -0.0179,-0.0648 -0.0276,-0.0661 -0.0193,-0.0689 -0.0345,-0.0978 -0.0606,-0.0813 -0.0841,-0.0606 -0.11575,-0.0358 -0.0896,-0.007 -0.12264,0.0124 -0.0813,0.0413 -0.062,0.0524 -0.0537,0.0606 c -0.001,10e-4 -0.0344,0.0565 -0.0427,0.0689 -10e-4,0.004 0.007,-0.004 -0.0193,0.0482 -0.011,0.0179 -0.0152,0.0482 -0.0152,0.0482 l -0.022,0.0758 -0.0193,0.0716 0.091,0.0234 0.005,0.003 0.003,0.004 0.01,0.01 c 0,0 0.011,0.004 0.007,0.004 -0.004,0 -0.0358,-0.004 -0.022,-0.004 l 0.0165,0.0165 -0.0758,0.18053 0.0234,0.003 0.0524,0.0303 0.0165,0.0482 0.0289,0.1254 0.0331,0.0289 0.0289,0.003 0.0193,10e-4 0.01,0.0289 0.0951,0.004 0.0827,0.0551 -0.011,0.0703 0.003,0.12678 0.011,0.10473 0.0717,0.13092 0.0593,0.0758 0.0358,0.0579 0.0289,0.0565 0.0799,0.13229 -0.0785,0.0593 0.3073,0.52917 -0.83096,0.0193 -0.17363,0.17363 0.0262,0.38585 0.0413,0.29628 0.16261,0.27698 0.1695,0.0785 0.0331,0.0565 0.0344,0.26183 -0.04,0.0317 -0.18603,0.1943 -0.23703,0.022 -0.0427,0.0482 c 0.003,-0.0193 0.004,-0.0386 0.004,-0.0551 10e-4,-0.0551 -0.0193,-0.14056 -0.0289,-0.18327 -0.01,-0.0427 -0.10886,-0.18466 -0.10886,-0.18466 l -0.0179,-0.11163 0.0276,-0.0455 -0.0482,-0.20119 c 0,0 -0.13367,-0.01 -0.20396,0.007 -0.0689,0.0166 -0.15158,0.10887 -0.15158,0.10887 l -0.17776,0.0427 -0.0703,-0.0606 -0.24942,0.003 -0.0648,-0.0799 0.0413,-0.48369 0.0441,-0.0841 0.0331,-0.11713 0.15159,-0.04 0.0978,-0.0909 -0.0331,-0.19018 -0.0716,-0.23564 -0.13781,-0.2949 -0.13091,-0.0786 -0.0455,-0.12402 v -0.0717 l -0.0992,-0.18328 0.15848,-0.1502 0.0717,-0.15848 -0.34038,-0.42443 v -0.0978 l -0.38034,-0.26182 -0.1626,0.0841 -0.19017,0.17776 h -0.0524 l -0.15709,-0.0923 -0.26734,-0.0138 v -0.0262 l -0.007,-0.008 0.0207,-0.073 0.0689,-0.0207 -0.0207,-0.0854 -0.0221,-0.062 -0.0193,-0.0689 -0.0345,-0.0978 -0.062,-0.0799 -0.0841,-0.062 -0.11576,-0.0358 -0.0896,-0.007 -0.12265,0.0124 -0.0799,0.0413 -0.0634,0.0524 -0.0524,0.0593 c -0.003,0.003 -0.0358,0.0579 -0.0427,0.0716 -0.001,0.003 0.006,-0.005 -0.0207,0.0455 -0.01,0.0193 -0.0152,0.0496 -0.0152,0.0496 l -0.004,0.0427 -0.01,0.0317 -0.0345,0.0262 -0.11437,0.0331 0.21359,0.0372 0.006,0.003 10e-4,0.004 10e-4,10e-4 -0.0358,10e-4 -0.26183,0.0138 v 0.20946 h 0.0593 l 0.0716,0.13092 -0.21497,0.34588 -0.15158,0.38034 v 0.22187 l 0.11162,0.0923 h 0.26182 l 0.23565,-0.0661 0.21635,-0.0717 0.16261,-0.0262 0.12402,0.0165 0.0248,0.04 -0.0785,0.0579 0.3073,0.53054 -0.83095,0.0193 -0.17363,0.17363 0.0248,0.38585 0.0413,0.29628 0.16261,0.27699 0.17087,0.0785 0.0317,0.0565 0.0358,0.26182 -0.04,0.0331 -0.0868,0.0882 c -0.0317,-0.0565 -0.0827,-0.12953 -0.0827,-0.12953 l -0.0179,-0.113 0.0276,-0.0441 -0.0482,-0.20119 c 0,0 -0.13367,-0.01 -0.20395,0.007 -0.0689,0.0165 -0.15296,0.10749 -0.15296,0.10749 l -0.17639,0.0427 -0.0717,-0.0593 -0.24804,10e-4 -0.0648,-0.0785 0.0413,-0.48507 0.0441,-0.0827 0.0331,-0.11851 0.15159,-0.0386 0.0978,-0.0923 -0.0331,-0.18879 -0.0717,-0.23564 -0.1378,-0.2949 -0.13091,-0.0786 -0.0455,-0.12402 v -0.0717 l -0.0992,-0.18466 0.15848,-0.1502 0.0717,-0.1571 -0.34175,-0.42581 v -0.0978 l -0.37896,-0.26183 -0.16261,0.0854 -0.19017,0.17639 h -0.0537 l -0.15709,-0.091 -0.27424,-0.0496 0.0221,-0.073 0.19293,-0.0551 -0.16537,-0.0427 -10e-4,-0.0689 -0.0193,-0.0703 -0.0358,-0.0965 -0.0606,-0.0813 -0.0854,-0.0606 -0.11576,-0.0358 -0.0882,-0.008 -0.12265,0.0138 -0.0799,0.0413 -0.0634,0.051 -0.0538,0.0606 -0.0413,0.0703 c -0.003,0.003 0.006,-0.004 -0.0207,0.0469 -0.01,0.0193 -0.0152,0.0496 -0.0152,0.0496 l -0.004,0.0427 -0.0441,0.0565 -0.11438,0.0331 0.23151,0.0717 -0.0524,0.18328 0.0524,0.0289 0.0166,0.0496 0.062,0.15434 0.0579,0.0331 0.0951,0.003 0.0868,0.0579 -0.0138,0.0675 0.003,0.12816 0.01,0.10473 0.073,0.13091 0.0579,0.0744 0.0358,0.0593 0.0303,0.0565 0.0786,0.13091 -0.15572,-0.0358 -0.15158,-0.0303 -0.12127,-0.0262 -0.15572,-0.0289 -0.12815,-0.0234 -0.15434,-0.0193 -0.18328,-0.0165 -0.16675,-0.0124 -0.15709,0.003 -0.0785,0.0289 0.0386,0.0661 0.0427,0.0358 0.0827,0.0593 0.0882,0.0455 0.10749,0.04 0.12127,0.0386 0.13366,0.04 0.1447,0.0579 0.0427,0.0882 0.0524,0.0689 0.0689,0.0234 0.0689,0.0124 0.24529,-0.005 0.0165,0.0648 0.35554,-0.008 0.073,0.12402 -0.83234,0.0179 -0.17226,0.17363 0.0248,0.38723 0.0413,0.2949 0.16261,0.27837 0.17087,0.0785 0.0317,0.0565 -0.004,0.29353 -0.18741,0.19292 -0.23565,0.0234 -0.0468,0.051 0.0441,0.10473 0.39963,0.0207 0.0854,-0.0634 0.0978,-0.006 0.007,0.0455 0.26183,0.0124 -0.007,-0.0537 -0.0179,-0.44511 -0.0496,-0.31143 0.0193,-0.18328 -0.0606,-0.28526 0.3638,0.13643 0.42444,0.0469 0.15159,0.40239 0.13229,0.59807 0.10886,0.15296 0.20395,-0.0166 0.39136,-0.1378 0.1695,-0.0661 0.0593,-0.14607 0.12127,-0.0165 0.20257,-0.0331 0.0427,0.10197 c 0,0 -0.003,0.0234 -0.006,0.0524 l -0.0551,0.005 -0.0468,0.051 0.0441,0.10611 0.0854,0.004 c 0.0262,0.0372 0.0648,0.0896 0.0965,0.10473 0.0441,0.0193 0.19016,0.003 0.19016,0.003 0,0 0.01,-0.0455 0.0165,-0.0923 h 0.011 l 0.0854,-0.0634 0.0992,-0.005 0.005,0.0468 0.26183,0.011 -0.007,-0.0537 -0.0179,-0.44511 -0.0496,-0.31144 0.0193,-0.18328 -0.0606,-0.28525 0.36518,0.13643 0.42443,0.0468 0.15021,0.40239 0.13367,0.59806 0.10749,0.15297 0.20394,-0.0165 0.39137,-0.13781 0.1695,-0.0661 0.0606,-0.14469 0.11989,-0.0179 0.20257,-0.0331 0.0427,0.10197 c 0,0 -0.0193,0.15986 -0.003,0.18328 0.0152,0.0248 0.0785,0.11989 0.12127,0.14056 0.0441,0.0193 0.19017,0.003 0.19017,0.003 0,0 0.01,-0.0469 0.0165,-0.0951 l 0.0413,0.10198 0.39963,0.0193 0.0868,-0.0634 0.0978,-0.005 0.006,0.0468 0.26182,0.011 -0.006,-0.0524 -0.0193,-0.44648 -0.0496,-0.31144 0.0207,-0.18328 -0.062,-0.28525 0.36518,0.1378 0.42444,0.0455 0.15021,0.40238 0.13367,0.59807 0.10886,0.15296 0.20257,-0.0165 0.39136,-0.13781 0.17088,-0.0661 0.0593,-0.1447 0.12127,-0.0179 0.20257,-0.0331 0.0427,0.10197 c 0,0 -0.0207,0.15985 -0.004,0.18328 0.0165,0.0248 0.0785,0.11989 0.12264,0.14056 0.0427,0.0193 0.19017,0.003 0.19017,0.003 0,0 0.007,-0.0358 0.0138,-0.0772 l 0.37482,0.0179 0.0868,-0.0634 0.0978,-0.005 0.005,0.0468 0.26183,0.011 -0.005,-0.0524 -0.0193,-0.44648 -0.0482,-0.31144 0.0193,-0.18328 -0.062,-0.28525 0.36517,0.1378 0.42444,0.0455 0.15021,0.40238 0.13367,0.59807 0.10748,0.15296 0.20395,-0.0165 0.39137,-0.13781 0.16949,-0.0661 0.0606,-0.1447 0.11989,-0.0179 0.20257,-0.0331 0.0427,0.10197 c 0,0 -0.0193,0.15985 -0.003,0.18328 0.0165,0.0248 0.0786,0.11989 0.12126,0.14056 0.0441,0.0193 0.19017,0.003 0.19017,0.003 0,0 0.0221,-0.10198 0.0234,-0.1571 0,-0.0537 -0.0207,-0.14055 -0.0303,-0.18328 -0.01,-0.0427 -0.10749,-0.18465 -0.10749,-0.18465 m -10.10515,-2.68304 0.17915,-0.34864 0.004,0.003 0.0289,0.003 0.0193,10e-4 0.008,0.0289 0.0951,0.004 0.0537,0.0344 -0.0165,0.007 -0.051,0.12402 -0.15158,0.17639 -0.15021,0.0661 z m 0.79651,-0.61874 h -10e-4 l -0.005,-0.005 z m 3.47541,0.0854 h -10e-4 l -0.007,-0.006 z m 3.40651,0 h -0.003 l -0.005,-0.006 z m 0,0"
           id="path33756-5-9" />
        <path
           d="m 692.68678,591.40511 -0.0607,-0.0261 -0.0312,-0.0382 -0.0295,-0.12667 -0.0174,-0.0504 -0.0538,-0.0295 0.0538,-0.18566 -0.23772,-0.0729 0.11798,-0.0348 0.0451,-0.0573 0.004,-0.0433 c 0,0 0.008,-0.0312 0.0156,-0.052 0.0277,-0.052 0.0191,-0.0434 0.0208,-0.0468 l 0.0434,-0.0711 0.0555,-0.0625 0.0625,-0.052 0.0832,-0.0433 0.12314,-0.0126 0.0919,0.009 0.11799,0.0346 0.085,0.0625 0.0625,0.0832 0.0364,0.0988 0.0191,0.0711 0.001,0.0694 0.16832,0.0451 -0.19608,0.0555 -0.0225,0.0747 0.28111,0.0504 0.15963,0.0937 h 0.0538 l 0.1926,-0.18045 0.16658,-0.0868 0.38694,0.26722 v 0.099 l 0.34704,0.4338 -0.0729,0.15964 -0.15964,0.15444 0.099,0.18739 v 0.0729 l 0.0468,0.12667 0.1336,0.0798 0.14056,0.30019 0.0729,0.23946 0.033,0.19434 -0.099,0.0937 -0.15443,0.0399 -0.033,0.11974 -0.0451,0.085 -0.0417,0.49278 0.066,0.0816 0.25335,-10e-4 0.0711,0.0607 0.18047,-0.0434 c 0,0 0.085,-0.0937 0.15616,-0.11106 0.0694,-0.0174 0.20649,-0.006 0.20649,-0.006 l 0.0504,0.20475 -0.0277,0.0468 0.0191,0.11459 c 0,0 0.10061,0.14401 0.1093,0.18738 0.0101,0.0435 0.0312,0.13188 0.0312,0.18741 -0.001,0.0573 -0.0243,0.15963 -0.0243,0.15963 0,0 -0.14923,0.0174 -0.19261,-10e-4 -0.0451,-0.0208 -0.10753,-0.11799 -0.12491,-0.14403 -0.0156,-0.0243 0.004,-0.18566 0.004,-0.18566 l -0.0434,-0.1059 -0.20649,0.0346 -0.12315,0.0174 -0.0607,0.14922 -0.17353,0.066 -0.39909,0.14055 -0.20648,0.0156 -0.11106,-0.15444 -0.13533,-0.60905 -0.15444,-0.4095 -0.43206,-0.0486 -0.37133,-0.14055 0.0625,0.29151 -0.0208,0.18739 0.0504,0.31755 0.0191,0.45461 0.008,0.0538 -0.26722,-0.0126 -0.006,-0.0468 -0.099,0.005 -0.0885,0.066 -0.40603,-0.0208 -0.0451,-0.10753 0.0468,-0.052 0.24119,-0.0243 0.18914,-0.19608 0.0417,-0.033 -0.0346,-0.26722 -0.033,-0.0573 -0.17525,-0.0798 -0.16485,-0.28284 -0.0416,-0.30018 -0.0261,-0.39562 0.17525,-0.17699 0.8485,-0.0191 -0.31407,-0.53964 0.0798,-0.0607 -0.0816,-0.13535 -0.0295,-0.0555 -0.0364,-0.0607 -0.0607,-0.0763 -0.0729,-0.13361 -0.009,-0.1059 -0.004,-0.13013 0.0126,-0.0694 -0.0868,-0.0591 z m 0,0"
           id="path78385-5-9"
           style="stroke-width:1.25917" />
      </g>
      <path
         d="m 671.88207,585.47999 c -0.0276,-0.0447 0.007,-0.13807 0.0759,-0.20747 0.0694,-0.0694 0.12617,-0.15564 0.12617,-0.19167 0,-0.036 0.0669,-0.083 0.14859,-0.10437 l 0.14859,-0.0389 0.36614,-0.87823 c 0.20138,-0.48302 0.39194,-0.96252 0.42346,-1.06554 l 0.0573,-0.18732 -0.14124,-0.15608 c -0.0777,-0.0858 -0.11642,-0.18091 -0.0861,-0.21125 0.0817,-0.0817 0.88261,-0.0238 0.99848,0.0722 l 0.0999,0.0828 0.0503,-0.13114 c 0.0624,-0.16269 -0.0614,-0.31681 -0.44073,-0.54833 -0.49407,-0.30159 -0.6307,-0.57574 -0.33389,-0.66995 l 0.16131,-0.0512 -0.0835,-0.15594 -0.0835,-0.15595 h 0.15944 c 0.18395,0 0.29099,-0.12629 0.17028,-0.2009 -0.13599,-0.084 -0.0923,-0.20252 0.0746,-0.20252 0.18164,0 0.28733,-0.1268 0.16744,-0.20089 -0.13922,-0.086 -0.0906,-0.20252 0.0844,-0.20252 h 0.16644 l -0.0253,-0.18153 -0.0253,-0.18154 0.18798,-0.0266 0.18798,-0.0266 0.29612,0.19241 c 0.16286,0.10583 0.42318,0.25497 0.5785,0.33142 0.15531,0.0765 0.35288,0.18338 0.43904,0.23762 0.74183,0.46704 1.02103,0.62306 1.11497,0.62306 0.0602,0 0.17995,0.0533 0.26609,0.11846 0.0861,0.0652 0.20444,0.11961 0.26289,0.12102 0.0584,0.002 0.22473,0.12056 0.36951,0.26479 0.14478,0.14422 0.3588,0.3264 0.47559,0.40485 l 0.21235,0.14263 -0.0515,0.13976 c -0.0283,0.0769 -0.22662,0.42401 -0.44067,0.77143 -0.21405,0.34743 -0.38999,0.65603 -0.39098,0.6858 -9.2e-4,0.0298 -0.0645,0.1343 -0.14119,0.23229 l -0.13941,0.17818 -0.38866,-0.19835 c -0.21377,-0.10909 -0.40438,-0.19834 -0.42358,-0.19834 -0.0674,0 -0.0341,0.41559 0.0452,0.56368 0.0874,0.16322 1.17837,0.85498 1.42261,0.90202 l 0.15128,0.0291 v 0.16026 0.16026 l -0.54461,0.0238 -0.5446,0.0239 v -0.27917 -0.27918 l -0.38239,-0.21372 -0.38239,-0.21373 -0.13481,0.16649 c -0.0741,0.0916 -0.18989,0.16648 -0.25721,0.16648 -0.0673,0 -0.18858,0.083 -0.26946,0.18443 -0.0809,0.10144 -0.23682,0.24667 -0.34654,0.32274 l -0.19948,0.13829 h -0.38265 -0.38265 l -0.2761,-0.24241 -0.27608,-0.24241 -0.0546,-0.36419 -0.0546,-0.3642 0.12951,-0.25962 0.12952,-0.25962 -0.084,-0.028 c -0.12803,-0.0427 -0.10016,-0.30412 0.0453,-0.42484 l 0.12931,-0.10731 -0.18257,-0.14784 c -0.20574,-0.16659 -0.24942,-0.13764 -0.3953,0.26203 -0.0567,0.15531 -0.14796,0.39131 -0.20282,0.52443 -0.0549,0.13313 -0.18233,0.45189 -0.28327,0.70836 l -0.18353,0.46632 0.13137,0.14515 c 0.0722,0.0798 0.13136,0.18769 0.13136,0.23966 v 0.0945 h -0.56001 -0.56002 z"
         id="path84376" />
    </g>
  </g>
</svg>
