<?xml version="1.0" encoding="UTF-8" standalone="no"?>
<!-- Created with Inkscape (http://www.inkscape.org/) -->

<svg
   width="13.582711mm"
   height="3.7894194mm"
   viewBox="0 0 13.582711 3.7894194"
   version="1.1"
   id="svg3713"
   sodipodi:docname="inkporter-svg-n9rwet7z.svg"
   xmlns:inkscape="http://www.inkscape.org/namespaces/inkscape"
   xmlns:sodipodi="http://sodipodi.sourceforge.net/DTD/sodipodi-0.dtd"
   xmlns="http://www.w3.org/2000/svg"
   xmlns:svg="http://www.w3.org/2000/svg">
  <sodipodi:namedview
     id="namedview3715"
     pagecolor="#ffffff"
     bordercolor="#666666"
     borderopacity="1.0"
     inkscape:pageshadow="2"
     inkscape:pageopacity="0.0"
     inkscape:pagecheckerboard="0"
     inkscape:document-units="mm"
     showgrid="false"
     inkscape:zoom="2.6547419"
     inkscape:cx="460.68509"
     inkscape:cy="539.97717"
     inkscape:window-width="1920"
     inkscape:window-height="1017"
     inkscape:window-x="-8"
     inkscape:window-y="-8"
     inkscape:window-maximized="1"
     inkscape:current-layer="layer1" />
  <defs
     id="defs3710" />
  <g
     inkscape:label="Layer 1"
     inkscape:groupmode="layer"
     id="layer1"
     transform="translate(-113.19714,-147.10471)">
    <g
       id="B-MG"
       transform="matrix(-0.03711588,0,0,0.03711588,116.291,141.70789)">
      <path
         style="fill:#000000;stroke-width:0.264583"
         d="m -176.7509,247.37907 c -0.60019,-0.28633 -1.61779,-1.66264 -2.01182,-2.72098 -0.68024,-1.82708 -0.0348,-8.54976 0.96313,-10.03119 0.28998,-0.43047 0.33198,-0.6986 0.14093,-0.89966 -0.19104,-0.20108 -0.35938,-0.0736 -0.56492,0.42808 -0.16103,0.39299 -0.2954,0.81729 -0.29861,0.9429 -0.003,0.12563 -0.20155,0.41434 -0.44076,0.64162 -0.38827,0.36891 -0.90441,1.82102 -2.2709,6.38885 -0.72975,2.43944 -1.93117,3.4393 -4.06699,3.38469 -2.42286,-0.0619 -4.90872,-2.31012 -5.5687,-5.03628 -0.14617,-0.60381 -0.17383,-2.15811 -0.0636,-3.57715 0.1672,-2.15365 0.31718,-2.72727 1.05787,-4.04647 0.53454,-0.95203 0.87295,-1.92557 0.88911,-2.55778 0.0245,-0.9578 -0.0228,-1.02197 -0.76739,-1.04101 l -0.7935,-0.0201 0.0532,-1.91749 c 0.0695,-2.50591 0.66407,-4.7053 1.5801,-5.84466 0.85236,-1.06019 2.49043,-1.9252 3.59237,-1.89703 1.0631,0.0272 2.49909,0.59621 2.79229,1.10652 0.20135,0.35041 0.28035,0.28555 0.44111,-0.36215 0.27859,-1.12234 0.35248,-3.03429 0.11735,-3.04288 -0.10908,-0.004 -0.79167,-0.58718 -1.51689,-1.29597 -0.72521,-0.7088 -1.74313,-1.65621 -2.26204,-2.10535 -0.5217,-0.45159 -0.9373,-1.05704 -0.9297,-1.35439 0.007,-0.29579 -0.15423,-0.79111 -0.35952,-1.10077 -0.2053,-0.30966 -0.2962,-0.63622 -0.20201,-0.72573 0.0942,-0.0895 0.0476,-0.16588 -0.10351,-0.16975 -0.15112,-0.004 -0.33699,-0.47202 -0.41303,-1.04033 -0.16979,-1.26903 -0.73192,-1.56752 -1.32873,-0.70556 -0.48001,0.69327 -1.28528,0.65414 -2.45704,-0.11945 -0.74696,-0.49309 -0.73284,-0.63355 0.17746,-1.76504 2.23469,-2.77766 2.5753,-3.31535 2.68494,-4.23844 0.0729,-0.61397 0.30136,-1.07665 0.60865,-1.23284 0.89988,-0.45739 2.38003,-2.11444 3.46475,-3.87884 0.58958,-0.95903 1.17531,-1.74105 1.30161,-1.73782 0.1263,0.003 0.24066,-0.14272 0.25415,-0.32433 0.0139,-0.18161 0.5425,-0.73382 1.17557,-1.22714 0.63307,-0.4933 1.56254,-1.38196 2.06548,-1.9748 0.69324,-0.81715 1.14399,-1.10084 1.86333,-1.17271 0.52188,-0.0522 1.0792,0.0125 1.2385,0.14372 0.39148,0.3224 1.01195,-0.41476 0.81544,-0.9688 -0.0973,-0.27431 0.0859,-0.60903 0.50437,-0.92116 0.36147,-0.26967 0.92775,-0.90403 1.25843,-1.40969 0.57094,-0.8731 0.57891,-0.94534 0.15825,-1.43476 -0.49401,-0.57473 -1.22119,-0.54919 -3.36847,0.1183 -1.18624,0.36874 -1.28835,0.36248 -1.78372,-0.10945 -0.28899,-0.27529 -0.52338,-0.58131 -0.52086,-0.68004 0.003,-0.0988 0.67749,-0.50964 1.49993,-0.91315 l 1.49536,-0.7336 -1.35851,-0.43202 c -1.71576,-0.54561 -2.63974,-1.64088 -2.38167,-2.82321 0.0968,-0.44327 0.75922,-1.62474 1.47217,-2.6255 0.71294,-1.00074 2.0467,-3.1946 2.9639,-4.87523 1.61764,-2.96407 1.6531,-3.06955 1.18268,-3.51766 -0.64713,-0.61645 -0.60165,-0.96873 0.21172,-1.64023 0.37452,-0.30918 1.09944,-1.17561 1.61095,-1.9254 1.81141,-2.65518 3.27351,-3.58869 6.21018,-3.96508 6.2666,-0.80317 12.03062,-0.41835 13.55807,0.90518 0.26023,0.2255 0.69912,-0.0462 1.86768,-1.15658 1.42027,-1.34946 1.49913,-1.48542 1.12323,-1.93656 -0.22235,-0.26686 -0.59034,-0.87704 -0.81773,-1.35595 -0.22741,-0.47891 -0.55666,-0.8744 -0.73168,-0.87887 -0.17502,-0.005 -1.118,-0.33742 -2.09551,-0.73987 -2.7721,-1.14116 -2.97222,-2.39807 -0.54974,-3.45152 0.75868,-0.32993 1.51691,-0.5975 1.68496,-0.59464 0.16806,0.003 0.61514,-0.49304 0.99351,-1.10203 3.7318,-6.00632 8.63254,-8.0094 14.2285,-5.81558 2.61711,1.02595 4.22744,2.23787 5.43409,4.08946 0.87843,1.34795 1.89714,4.19738 1.87067,5.23251 -0.007,0.29335 0.46201,0.69706 1.29476,1.11338 1.59434,0.79705 2.15161,1.40697 2.01618,2.20668 -0.14451,0.8533 -1.16558,1.24738 -3.11461,1.20211 -2.51099,-0.0582 -3.06907,0.88125 -1.94738,3.2786 0.59546,1.27265 0.47157,1.98096 -0.34287,1.96014 -0.42065,-0.0109 -0.5417,0.15851 -0.55758,0.77975 -0.0152,0.61245 -0.13887,0.79047 -0.53997,0.78021 -0.6361,-0.0161 -1.01102,0.60293 -1.28217,2.11759 -0.1135,0.634 -0.33891,1.31153 -0.5009,1.50563 -0.46386,0.5558 -1.3334,0.75913 -1.90331,0.44505 -0.28708,-0.15822 -0.0328,0.22989 0.56505,0.86244 1.08097,1.14373 2.61532,4.14517 2.59168,5.06979 -0.0191,0.74101 0.27239,0.88537 0.94551,0.46854 0.33686,-0.20861 0.80319,-0.30046 1.03631,-0.2041 0.2665,0.10988 0.74406,-0.1058 1.28591,-0.58124 0.47413,-0.41605 1.35306,-1.05104 1.95317,-1.4111 0.96984,-0.58192 1.26525,-0.63146 2.6581,-0.44576 1.38886,0.18517 1.57523,0.28028 1.63951,0.83679 0.0398,0.34534 -0.0599,0.75368 -0.22171,0.90745 -0.50677,0.4815 -0.33737,0.60589 0.79004,0.5801 0.90642,-0.0208 1.1851,-0.16317 1.63538,-0.8357 0.55746,-0.83258 1.55662,-1.0898 1.53889,-0.39616 -0.007,0.2936 0.22985,0.23485 0.96941,-0.2399 0.53864,-0.34575 1.06014,-0.62659 1.15889,-0.62407 0.0988,0.003 0.6367,0.43897 1.19545,0.96984 l 1.01592,0.96524 -0.78428,0.56253 c -0.43136,0.30939 -1.46705,1.22191 -2.30154,2.02781 -0.83449,0.80592 -1.81672,1.53233 -2.18275,1.61427 -0.36601,0.082 -0.8898,0.30676 -1.16398,0.49964 -0.44399,0.31232 -0.46575,0.46201 -0.199,1.36856 0.16473,0.55984 0.42307,1.18143 0.57406,1.38134 0.20327,0.26912 0.16347,0.42196 -0.15326,0.58878 -0.35504,0.18694 -0.42092,0.63134 -0.38703,2.61118 0.0398,2.32385 0.0255,2.38572 -0.55255,2.3788 -0.53034,-0.007 -0.54495,0.0228 -0.13743,0.27429 0.25079,0.15475 0.45155,0.45406 0.44616,0.66503 -0.005,0.21099 0.0953,0.38629 0.22384,0.38958 0.37209,0.009 0.51025,1.03056 0.16993,1.25581 -0.16981,0.11239 -1.60549,0.10985 -3.1904,-0.006 -2.27625,-0.16594 -2.89576,-0.29378 -2.9487,-0.60874 -0.0369,-0.21929 -0.13925,-0.66735 -0.22755,-0.99568 -0.12523,-0.46572 -0.027,-0.64254 0.44675,-0.80415 0.52838,-0.18024 0.54861,-0.23141 0.1554,-0.39396 -0.24841,-0.10249 -0.37965,-0.2965 -0.29183,-0.43079 0.0879,-0.1343 0.0544,-0.31299 -0.0742,-0.39709 -0.12861,-0.0841 -0.29183,-0.96 -0.3627,-1.94643 -0.21943,-3.05437 -0.2927,-3.29349 -0.91354,-2.98137 -0.29604,0.14883 -0.60158,0.20398 -0.67895,0.12254 -0.28122,-0.29599 -1.143,0.36964 -1.15638,0.89317 -0.01,0.39048 -0.13934,0.49488 -0.47292,0.38166 -0.54599,-0.18538 -0.87712,0.0114 -1.34376,0.79834 -0.45606,0.76911 -0.45452,1.4298 0.005,2.07048 0.20635,0.28785 0.37282,0.76477 0.3699,1.05983 -0.002,0.2951 0.18025,0.81636 0.40705,1.15845 0.35934,0.54199 0.36516,0.81937 0.0452,2.15756 l -0.36712,1.53562 0.81444,0.90084 c 0.62682,0.69331 0.77909,1.06522 0.66102,1.61448 -0.0843,0.39251 -0.0402,0.78777 0.0983,0.87832 0.13852,0.0905 0.24494,0.43314 0.23656,0.76129 -0.011,0.42145 0.25324,0.73322 0.89919,1.06177 0.83248,0.42337 0.91232,0.56631 0.89061,1.59365 -0.017,0.78331 0.18866,1.46437 0.67091,2.22652 0.38213,0.60391 1.24409,1.96584 1.91548,3.02652 0.67138,1.06066 1.30418,1.93138 1.40621,1.9349 0.32521,0.0113 1.05652,1.60761 0.90472,1.97486 -0.0803,0.19432 0.1928,0.65353 0.60693,1.02049 0.41415,0.36696 0.94727,0.98093 1.18474,1.36439 0.39576,0.63905 0.39548,0.77811 -0.003,1.66799 -0.42261,0.94308 -0.41341,1.01411 0.32383,2.48678 0.4174,0.83378 0.98951,1.66833 1.27138,1.85453 0.28187,0.18622 1.60778,0.65544 2.94647,1.04271 5.19816,1.50384 5.44254,1.75112 5.6554,5.72266 0.0703,1.31191 0.19797,2.84742 0.28368,3.41224 0.16919,1.11488 -0.11553,1.47699 -1.14629,1.45804 -0.55467,-0.0102 -0.57017,0.0966 -0.92254,6.36329 -0.27872,4.95589 -0.28671,6.42058 -0.0359,6.5846 0.23867,0.15606 0.16769,0.35804 -0.27296,0.77673 -0.32969,0.31324 -0.53228,0.74409 -0.45387,0.96515 0.17539,0.49452 -0.28888,1.35178 -1.14522,2.11461 -0.57917,0.51594 -0.92167,0.57195 -3.14894,0.51501 -1.61254,-0.0412 -2.49651,-0.16519 -2.4918,-0.34943 0.005,-0.1886 -0.86858,-0.28939 -2.57294,-0.29672 -1.41914,-0.006 -2.75713,-0.0805 -2.97332,-0.16514 -0.21606,-0.0849 -0.72879,-0.23698 -1.13916,-0.33833 -0.7436,-0.1837 -0.74544,-0.1898 -0.54828,-1.82265 0.2872,-2.37871 0.29078,-2.5129 0.20415,-7.67218 -0.061,-3.64701 -0.15575,-4.68541 -0.41905,-4.59202 -0.24601,0.0872 -0.37107,-0.37055 -0.45153,-1.65294 -0.0612,-0.97551 -0.20182,-2.2977 -0.31246,-2.93824 l -0.20121,-1.16461 1.86634,-1.68546 c 1.74266,-1.57377 1.84301,-1.72315 1.51425,-2.254 -0.35705,-0.57655 -1.87415,-2.44571 -2.8949,-3.56673 -0.3076,-0.33781 -0.62986,-0.85804 -0.71613,-1.15605 -0.13416,-0.46351 -0.38096,-0.54758 -1.7071,-0.58149 -2.11399,-0.054 -2.2693,-0.24368 -2.93117,-3.57943 -0.0796,-0.40106 -0.54911,-1.11654 -1.04341,-1.59001 -0.49429,-0.47344 -1.36786,-1.76995 -1.94124,-2.88111 -0.5734,-1.11115 -1.82637,-2.89201 -2.78441,-3.95747 -1.80996,-2.01291 -2.8062,-3.71138 -2.78659,-4.7508 0.007,-0.33316 -0.0949,-0.7838 -0.22483,-1.00139 -0.26255,-0.43965 -0.20358,-0.53446 -0.82992,1.33419 -0.29013,0.86561 -0.4234,0.96478 -1.38689,1.03186 -0.58626,0.0408 -1.40175,-0.0772 -1.81221,-0.26227 -0.71537,-0.32255 -1.05679,-0.26894 -1.06796,0.16771 -0.003,0.1119 0.4651,0.48387 1.03992,0.82655 1.79067,1.06753 2.67899,3.02594 2.37054,5.22615 -0.12563,0.89592 -0.071,1.66076 0.16117,2.25381 0.44148,1.12818 2.479,3.52502 3.64437,4.2871 1.26673,0.82836 3.30837,4.63878 3.19733,5.96734 -0.0924,1.10607 0.0576,1.39914 2.55248,4.98773 2.02104,2.90694 2.22572,3.38779 2.18132,5.1247 -0.0252,0.98328 0.23723,1.87862 1.12688,3.84557 l 1.15966,2.56389 -0.61835,1.34192 c -0.34011,0.73804 -0.98246,1.81837 -1.42746,2.40076 -0.44499,0.58237 -0.75206,1.2196 -0.6824,1.41604 0.0746,0.21019 -0.14601,0.453 -0.53587,0.58993 -0.36442,0.12799 -0.66563,0.35226 -0.66936,0.49838 -0.004,0.14616 -0.64106,0.61729 -1.41629,1.04701 -1.39745,0.77463 -1.43204,0.77919 -4.04988,0.53447 -1.45221,-0.13581 -3.69337,-0.31264 -4.98034,-0.39304 -1.40783,-0.0879 -2.68384,-0.32025 -3.20316,-0.58316 -0.47475,-0.24033 -1.0243,-0.38275 -1.22123,-0.31647 -0.84418,0.28415 -3.8558,0.21415 -4.59111,-0.10668 -1.05356,-0.45971 -2.45455,-2.17799 -2.43392,-2.98515 0.0114,-0.46062 -0.27719,-0.85366 -0.99828,-1.35783 -1.21774,-0.8514 -3.33894,-1.58985 -4.00936,-1.39578 -0.26598,0.077 -0.48068,0.0257 -0.47711,-0.11405 0.0136,-0.51635 -0.81258,-0.56837 -1.62496,-0.10233 -0.91162,0.52295 -3.49802,3.92901 -3.52566,4.64294 -0.0271,0.70196 -1.07907,2.69787 -1.68467,3.19657 -1.75379,1.44419 -3.39848,2.24873 -4.80338,2.34966 -0.8021,0.0577 -1.64914,0.0137 -1.88231,-0.0975 z m 63.70705,-18.58145 c -0.061,-0.19978 -0.18403,-0.0826 -0.28659,0.2723 -0.12631,0.43701 -0.0946,0.54116 0.10676,0.3499 0.15759,-0.14978 0.23859,-0.42974 0.17986,-0.62218 z m -60.53943,-7.65372 c -0.70737,-0.82298 -2.6068,-1.86457 -3.43899,-1.88584 -0.96818,-0.0248 -1.92316,-0.39598 -2.45286,-0.95351 -0.35501,-0.37364 -0.41693,-0.27666 -0.60962,0.95476 -0.11794,0.75384 -0.28365,1.62437 -0.36818,1.9345 -0.12725,0.46683 0.0192,0.62752 0.8511,0.9337 0.55264,0.20342 1.95517,0.4652 3.11674,0.58177 2.01786,0.2025 2.13873,0.18307 2.71335,-0.43652 0.55551,-0.59898 0.56989,-0.68514 0.18847,-1.12889 z m 46.13588,-32.37881 c -0.71451,-0.32889 -0.91781,-0.3341 -0.92573,-0.0237 -0.004,0.14548 0.32076,0.2645 0.72108,0.26451 0.64495,-7e-5 0.66825,-0.0274 0.20467,-0.24082 z m 4.09969,0.10487 c 0.004,-0.14546 -0.1788,-0.26925 -0.40559,-0.27505 -0.22679,-0.006 -0.34183,0.11037 -0.25564,0.25814 0.0862,0.14778 0.2687,0.27153 0.4056,0.27504 0.1369,0.003 0.25192,-0.11266 0.25563,-0.25813 z"
         id="path17624"
         sodipodi:nodetypes="cssssssssssssscssssscssssssssssssssssssssssssssscssssssssssssscscccsssscsssscssssscssssssssssscsscssscccssssscsscsssssscsscsscssssccsscssssssssssssssssscccscssscssssssssscssscssscscsssccssssssssssssssssssccsccssssssssssssssssssssss" />
      <path
         style="fill:#000000;stroke-width:0.504876"
         d="m -0.64523677,246.18757 c -1.08718063,-0.22032 -1.12006103,-0.44226 -1.35626793,-9.1551 -0.2374957,-8.76031 -0.6478802,-15.75006 -0.9419919,-16.04418 -0.1114006,-0.11139 -20.5968794,6.71305 -32.4337754,10.80485 -0.555364,0.19198 -1.009751,0.68986 -1.009751,1.10637 0,0.50008 -0.685937,0.85281 -2.019506,1.03849 -1.110729,0.15455 -2.879609,0.69555 -3.930845,1.20206 -2.290806,1.10371 -2.897041,0.71251 -1.815673,-1.17165 0.777548,-1.35481 0.759792,-1.41217 -0.69565,-2.24748 -2.054627,-1.17918 -1.132746,-2.3613 1.559843,-2.00016 1.255847,0.16849 2.65262,-0.0805 4.145483,-0.73898 2.081019,-0.91785 9.336749,-3.45552 11.086811,-3.87755 0.41652,-0.10038 4.846812,-1.58715 9.845088,-3.30379 10.434772,-3.58374 13.7990603,-4.64758 14.0536042,-4.44387 0.5467842,0.43757 1.8154904,-1.43907 2.0962187,-3.10069 0.2332157,-1.38037 0.6793493,-2.08592 1.57785123,-2.4953 1.65836427,-0.7556 1.57134237,-0.78888 2.46738097,0.94385 0.9768113,1.88897 2.1075416,1.9381 2.9035849,0.12613 0.335501,-0.76362 0.8044264,-1.52739 1.0420548,-1.69728 0.2376325,-0.16982 0.4126519,-0.4539 0.3889329,-0.63108 -0.023732,-0.17729 -0.021809,-0.37903 0.00398,-0.44844 0.026012,-0.0695 0.1291846,-1.7166 0.2292554,-3.66035 0.1000692,-1.9438 0.2846884,-5.29466 0.410282,-7.44635 0.1255977,-2.15173 0.030894,-4.03426 -0.2104743,-4.18344 -0.5767808,-0.35646 -3.8279177,1.74731 -5.93822027,3.84259 -1.2337889,1.22501 -1.5895755,1.93803 -1.3500976,2.70577 0.1788364,0.57332 0.4899635,1.72399 0.6913791,2.55704 0.2875042,1.18911 0.6047867,1.48068 1.47631487,1.35667 1.7142832,-0.24395 1.3200443,0.64216 -0.95580677,2.14824 -2.70423193,1.78958 -7.29309823,2.23938 -7.68180203,0.75296 -0.2192671,-0.83845 -0.1144911,-0.88728 0.8357177,-0.3891 l 1.0864143,0.56962 -1.0097527,-1.13766 c -1.0312982,-1.16191 -1.0870592,-3.03076 -0.1085952,-3.63971 0.3853559,-0.23984 0.3609891,-0.95198 -0.08332,-2.43494 -0.484437,-1.61742 -0.4912828,-2.26048 -0.029828,-2.81652 0.328893,-0.39626 0.3808374,-0.72051 0.1154263,-0.72051 -0.4197001,0 -0.5729833,-1.02554 -0.6919265,-4.62932 -0.036594,-1.10899 -1.430835,-1.6231 -1.79911,-0.66338 -0.158036,0.41184 -0.717423,0.7488 -1.243081,0.7488 -1.143394,0 -1.331158,-2.07683 -0.282566,-3.12544 0.811234,-0.81123 0.884315,-2.30763 0.126227,-2.58446 -0.300822,-0.10993 -3.386878,-0.15209 -6.857904,-0.0941 -9.30414,0.15573 -9.990579,0.011 -10.568375,-2.21197 -0.472069,-1.81703 -0.317109,-7.46255 0.254247,-9.26274 0.23495,-0.74027 0.695374,-0.90351 2.162596,-0.76674 1.025255,0.0956 2.085999,0.30704 2.357212,0.47 0.271215,0.16293 1.061101,0.26498 1.755307,0.22673 1.139821,-0.0627 1.277305,-0.30674 1.418072,-2.51655 0.120293,-1.88834 -0.05261,-2.60884 -0.757316,-3.1558 -0.870151,-0.67537 -0.857016,-0.75634 0.278712,-1.71819 0.655546,-0.55517 0.940964,-1.00942 0.634262,-1.00942 -0.582041,0 -0.510775,-1.73611 0.0962,-2.34308 0.192278,-0.19228 0.349596,-2.81085 0.349596,-5.81909 0,-3.30974 0.19936,-5.4695 0.504875,-5.4695 0.4349,0 0.692302,7.86949 0.611461,18.69417 l -0.01698,2.28567 11.188745,0.0766 c 6.15380803,0.0423 11.7567576,0.29282 12.4510002,0.55691 0.6942392,0.26414 3.8196931,0.51822 6.9454428,0.56464 5.608013,0.0832 5.689438,0.068 6.155753,-1.15856 0.536386,-1.41079 2.290183,-2.17338 3.221253,-1.40066 0.94997,0.78842 46.460337,0.78879 47.72276,4e-4 0.775528,-0.48431 1.318657,-0.43752 2.737763,0.23588 1.975802,0.93759 2.385032,1.6527 2.385032,4.16781 v 1.72578 l 2.650595,0.007 c 3.229617,0.01 5.003593,0.83652 5.633505,2.62769 0.655898,1.86507 -1.153423,3.38318 -4.059989,3.40658 -1.654278,0.0133 -2.141582,0.22612 -2.350892,1.02655 -0.296993,1.13573 -1.822538,1.33796 -2.856073,0.37866 -0.4585,-0.42557 -0.570913,-0.43694 -0.345173,-0.0348 0.184142,0.32792 0.103806,0.73893 -0.178416,0.91333 -0.719236,0.44453 -0.642775,5.98444 0.09274,6.71995 0.333227,0.33322 0.390014,0.60934 0.126129,0.61359 -0.263806,0.003 -0.138915,0.22796 0.277681,0.49715 0.550306,0.35562 0.576658,0.49151 0.09637,0.49715 -0.363492,0.003 -0.519392,0.23665 -0.346471,0.51646 0.381695,0.6176 -0.814341,1.91326 -1.542184,1.67067 -0.297696,-0.0992 -0.474206,-1.46917 -0.411788,-3.19607 0.06011,-1.6623 -0.100946,-3.02237 -0.357996,-3.02237 -0.434973,0 -0.741696,4.87488 -0.524162,8.33049 0.05247,0.83303 0.568795,2.82099 1.147455,4.41766 0.948772,2.61798 1.194777,2.90304 2.505152,2.90304 0.799191,0 1.468472,0.17039 1.487305,0.37865 0.01909,0.20825 0.09217,1.51462 0.16315,2.90304 0.09294,1.82038 0.590031,3.26635 1.782209,5.18484 2.925989,4.70857 2.753472,8.88363 -0.507304,12.27746 -1.60756,1.67313 -1.993358,2.42581 -1.874459,3.65684 0.140253,1.45105 0.0036,1.58761 -2.122218,2.13774 -2.222799,0.57495 -6.691216,1.6067 -11.989662,2.76839 -1.457192,0.31949 -2.53267,0.76987 -2.389937,1.00081 0.142734,0.23096 0.01717,0.5692 -0.27724,0.75165 -0.351606,0.21733 -0.170213,0.95303 0.525839,2.13277 0.844835,1.43188 0.927288,1.88933 0.402325,2.23198 -1.283147,0.83751 -3.095798,1.06768 -3.993372,0.50713 -0.707027,-0.44155 -1.082654,-0.39357 -1.692323,0.21612 -0.708207,0.70819 -0.812928,0.70713 -1.088605,-0.0109 -0.167731,-0.43715 -0.1767,-1.12903 -0.02004,-1.53752 0.156662,-0.40849 -0.01139,-1.03327 -0.37271,-1.38844 -2.038715,-2.00156 -10.756098,-9.83065 -14.445686,-12.97369 -2.360295,-2.01067 -6.314615,-5.39128 -8.787378,-7.51247 l -4.495931,-3.85672 -3.834531,0.1513 c -3.833623,0.15133 -3.835106,0.15191 -6.257829,2.57007 l -2.423288,2.41868 -0.304201,8.85269 -0.30419,8.85267 -2.0757715,3.4551 -2.075768,3.4551 -3.5272036,0.0674 c -1.9399628,0.037 -4.02858967,-0.0343 -4.64139517,-0.15837 z M 49.189537,230.42239 c 0,-0.73577 -0.255239,-0.89575 -1.083567,-0.67913 -0.940493,0.24595 -1.050672,0.11139 -0.834568,-1.01913 0.209138,-1.09401 -0.03951,-1.44996 -1.553194,-2.22389 -0.991208,-0.50678 -2.897597,-1.54622 -4.236419,-2.30985 -2.946124,-1.68039 -3.536548,-1.7791 -1.574339,-0.26321 0.801072,0.61887 1.710267,1.35724 2.020434,1.64086 0.310166,0.28359 1.218942,1.06397 2.019506,1.73416 0.800562,0.67019 2.201859,1.86299 3.113995,2.65061 1.962083,1.69429 2.128152,1.73094 2.128152,0.46958 z m 28.331303,-6.58095 c 0.03208,-0.43287 0.09407,-1.12783 0.137776,-1.54433 0.07784,-0.74158 -1.659348,-4.81165 -1.906402,-4.46661 -0.06888,0.0964 -0.02691,2.09561 0.0933,4.4428 0.194139,3.7876 0.297392,4.16006 0.917937,3.31141 0.384558,-0.52592 0.725422,-1.31039 0.757443,-1.74327 z m -31.913956,-4.07415 c -1.151539,-3.0306 -1.29717,-9.32052 -0.272566,-11.77273 1.160371,-2.77717 3.525369,-4.37789 6.468206,-4.37789 2.150343,0 2.744557,0.22376 3.911549,1.47305 0.91479,0.97927 1.601644,1.3336 2.049096,1.05706 1.254886,-0.77557 9.550265,-1.18198 10.362719,-0.50771 0.408484,0.33901 0.64161,0.78 0.518035,0.97991 -0.123652,0.19994 0.106098,0.36353 0.510441,0.36353 0.896145,0 0.896526,0.0571 -0.02213,-3.36584 -0.999017,-3.72193 -0.979783,-11.4265 0.03606,-14.41833 0.436309,-1.28512 0.670634,-2.65624 0.520728,-3.04691 -0.228831,-0.59631 -4.012342,-0.71032 -23.5716,-0.71032 H 22.818243 l 0.341888,1.38843 c 0.188033,0.76362 0.470122,2.03099 0.626845,2.81639 0.166852,0.83612 0.781944,1.65443 1.48404,1.97434 0.673514,0.30687 1.218459,1.0087 1.243297,1.60124 0.189503,4.52077 0.02591,8.67028 -0.35009,8.88052 -0.248299,0.13892 -0.519246,-1.04257 -0.602107,-2.62536 -0.118978,-2.27261 -0.305053,-2.81856 -0.884784,-2.5961 -1.321683,0.50718 -0.490019,10.77512 0.872738,10.77512 0.261107,0 0.345643,0.20887 0.187862,0.46417 -0.157789,0.25528 0.112797,0.86386 0.601296,1.35234 0.488495,0.48851 0.798038,0.90441 0.687874,0.92423 -0.390179,0.0702 0.527451,2.30801 0.946438,2.30801 0.234103,0 2.093146,0.94515 4.131206,2.10033 5.942857,3.36843 7.996481,4.40601 8.004734,4.04443 0.004,-0.18624 0.174638,-0.085 0.378658,0.22522 0.352116,0.53529 5.050394,3.14937 5.749843,3.19917 0.18166,0.0134 -0.102476,-1.11491 -0.631097,-2.5063 z m 3.850242,-4.39568 0.12899,-6.45031 2.073636,-0.41007 c 1.140489,-0.22556 2.073636,-0.63733 2.073636,-0.91506 0,-0.27772 0.283997,-0.33891 0.631097,-0.13587 0.347101,0.20296 0.19828,-0.12441 -0.330689,-0.72753 -1.054566,-1.20229 -3.142512,-1.41818 -4.346372,-0.44937 -1.928498,1.55198 -2.752398,3.62989 -2.746179,6.92602 0.0057,3.01424 1.556533,9.44288 2.137807,8.86163 0.137009,-0.13703 0.307069,-3.15168 0.378034,-6.69935 z M 15.718042,199.8301 c 0.787263,-2.41846 0.551788,-6.4454 -0.384931,-6.58275 -0.63221,-0.0928 -0.767396,0.36955 -0.687302,2.35015 0.05624,1.3909 -0.122791,2.46554 -0.410782,2.46554 -0.341195,0 -0.339412,0.20927 0.0053,0.6311 0.28372,0.34709 0.442001,1.28443 0.351741,2.08298 -0.19423,1.71835 0.428868,1.19424 1.125896,-0.94702 z m -16.09275807,-7.24761 c 1.57474717,-1.34818 3.60373337,-2.8752 4.50886137,-3.39339 0.9051272,-0.51817 1.5623696,-1.17588 1.4605439,-1.46154 -0.2831822,-0.79441 -5.36095407,-0.39433 -6.7778135,0.53401 -0.9494922,0.62214 -1.3431019,0.6724 -1.6300194,0.20815 -0.2703707,-0.43745 -0.4767552,-0.45265 -0.7235993,-0.0532 -0.1899411,0.30733 -0.7863243,0.55877 -1.3253012,0.55877 -1.1721658,0 -1.2148536,0.48003 -0.2484031,2.79306 0.4023545,0.96296 0.6017304,1.75084 0.4430559,1.75084 -0.1586672,0 -0.0057,0.3408 0.3400218,0.75732 0.3456814,0.41652 0.73223,0.7573 0.8589953,0.7573 0.1267621,0 1.5189101,-1.10307 3.09365823,-2.45126 z"
         id="path17754" />
      <path
         d="m -74.746561,244.99191 c -0.885847,-0.28107 -1.719231,-0.59254 -1.851836,-0.69261 -0.270088,-0.20383 0.02589,-2.07121 0.40518,-2.55642 0.134858,-0.17253 0.282219,-0.5494 0.32745,-0.83748 0.04522,-0.28807 0.257994,-1.62927 0.518855,-2.97183 l 0.43662,-2.44803 -0.305541,0.48762 c -0.193971,0.30955 -1.319612,1.47333 -2.028468,1.79843 -1.541521,0.70699 -4.011373,0.66112 -5.633727,-0.10461 -0.593255,-0.28005 -1.836678,-0.54121 -2.931605,-0.61587 -1.045802,-0.0709 -2.195529,-0.28626 -2.555011,-0.47777 -0.599804,-0.31948 -0.645107,-0.48525 -0.550358,-2.01298 0.09004,-1.45165 0.03038,-1.70985 -0.465921,-2.01641 -0.31304,-0.1934 -0.700001,-0.49972 -0.85989,-0.68076 -0.159912,-0.18098 -1.439598,-0.74451 -2.843825,-1.25213 -1.404192,-0.50768 -2.586937,-1.0186 -2.628296,-1.13546 -0.04137,-0.11688 -0.905514,-0.26407 -1.920412,-0.3269 -1.77832,-0.11025 -1.91186,-0.0729 -3.682624,1.03079 -1.01056,0.62987 -2.51836,1.71773 -3.35061,2.41743 l -1.51324,1.27221 0.0329,1.8133 c 0.0362,1.9941 -0.23981,2.68571 -1.48295,3.7104 -0.57514,0.47422 -1.12199,0.62033 -2.42861,0.64877 l -1.68633,0.0367 -0.47726,-1.16003 c -1.0655,-2.58988 -1.2653,-8.42785 -0.35044,-10.24074 0.22961,-0.45492 1.14259,-1.55758 2.02893,-2.45029 1.31084,-1.32029 2.44339,-2.90056 2.47793,-3.45743 0.005,-0.0546 -0.38126,-0.12375 -0.85475,-0.15325 -0.54202,-0.0336 -1.09879,-0.30272 -1.50282,-0.72721 l -0.6419,-0.67376 1.43621,-3.54106 1.4362,-3.54108 1.28952,0.25036 c 0.7092,0.13774 1.49973,0.38024 1.75674,0.53874 0.25689,0.15878 1.59223,0.64249 2.96735,1.07504 1.98717,0.62503 2.668324,0.9709 3.319354,1.68521 0.4505,0.49432 1.04828,1.04809 1.32837,1.23065 0.28008,0.18258 1.177826,0.77115 1.994949,1.30805 2.280985,1.49869 3.430011,1.84991 5.684686,1.73761 1.064592,-0.053 2.068687,-0.1676 2.23132,-0.25468 0.505107,-0.2705 2.470637,0.53364 3.446813,1.41029 0.880914,0.79099 0.947025,0.81014 1.227825,0.35552 0.163215,-0.26423 0.229052,-0.55706 0.146405,-0.65072 -0.317346,-0.35931 0.603698,-0.96425 1.186143,-0.77905 0.32351,0.10303 0.669386,0.0724 0.768524,-0.0678 0.09913,-0.14017 0.463308,-0.23733 0.809263,-0.21585 0.345961,0.0216 0.711979,-0.0783 0.813371,-0.22169 0.101379,-0.14339 0.437881,-0.68102 0.608607,-0.62465 0.170728,0.0564 0.350011,-0.0134 0.398401,-0.15507 0.05079,-0.1488 -0.956736,-0.43256 -2.385943,-0.67198 -2.547714,-0.4268 -3.543859,-0.87617 -4.844516,-2.18542 -0.389217,-0.39178 -1.819179,-1.40634 -3.177691,-2.25458 -1.358514,-0.84824 -2.459639,-1.65355 -2.446938,-1.78961 0.02953,-0.31538 -2.252301,-3.6797 -2.894283,-4.26747 -0.266626,-0.24411 -0.77848,-0.67899 -1.137453,-0.96642 l -0.652676,-0.5226 0.04006,0.7599 c 0.05358,1.01633 -1.010819,2.6473 -2.600589,3.9849 -1.3966,1.17508 -1.775732,1.19941 -1.04388,0.067 0.31198,-0.48275 0.54085,-1.48507 0.68215,-2.98751 0.23132,-2.45888 0.35894,-2.12087 -1.644682,-4.35416 -0.80222,-0.89418 -0.82724,-1.80041 -0.10246,-3.71267 0.3571,-0.94201 0.634092,-1.79568 0.615592,-1.89707 -0.322212,-1.76969 -0.15631,-2.21419 1.43783,-3.85279 0.95183,-0.97836 1.886157,-2.27054 2.339958,-3.23617 0.917479,-1.95222 1.171036,-2.23301 1.950756,-2.16023 0.333386,0.031 1.01039,-0.22386 1.504491,-0.56659 1.078213,-0.74791 3.240309,-0.78411 4.136885,-0.0693 0.894243,0.71299 1.916847,0.391 2.611925,-0.82233 0.585874,-1.02273 0.58741,-1.04371 0.105957,-1.44794 -0.279541,-0.23473 -0.460603,-0.7094 -0.42325,-1.10968 0.03921,-0.41998 -0.198451,-1.00265 -0.594691,-1.45808 -0.362988,-0.41719 -0.902128,-1.15275 -1.198079,-1.63461 -0.295956,-0.48184 -0.665083,-0.81307 -0.820279,-0.73609 -0.155204,0.0771 -0.5603,-0.0443 -0.900334,-0.26876 -0.480617,-0.31797 -0.668727,-0.34187 -0.845702,-0.10751 -0.309524,0.41002 -1.125676,-0.69713 -1.410701,-1.9137 -0.340802,-1.45459 -0.159227,-2.27723 0.627289,-2.84187 0.391794,-0.28127 1.429393,-1.67086 2.305773,-3.08797 1.719057,-2.77972 1.679031,-2.59728 1.385508,-6.31624 -0.117831,-1.49293 0.119,-2.0269 1.283158,-2.89297 0.408016,-0.30355 1.102479,-0.82299 1.543252,-1.15434 0.440764,-0.33133 1.209085,-1.25194 1.707366,-2.04577 1.001495,-1.59552 3.61106,-3.64327 4.533181,-3.55722 0.304971,0.0289 1.157921,0.36208 1.895085,0.74217 0.737266,0.37975 1.860957,0.87975 2.497024,1.11124 1.002782,0.36479 1.254187,0.62251 1.89177,1.93639 0.491183,1.01251 0.886257,1.50497 1.190212,1.48358 0.250247,-0.0176 1.007717,-0.0315 1.683296,-0.0309 0.675572,6.3e-4 1.334095,-0.008 1.463373,-0.0197 0.551025,-0.0488 0.724513,0.11494 0.336364,0.31732 -0.793911,0.414 0.72162,0.36452 1.8098,-0.0591 0.562692,-0.21904 1.326192,-0.44286 1.696656,-0.49733 0.370474,-0.0546 1.137882,-0.58955 1.705366,-1.18904 1.276015,-1.34796 2.049058,-1.72221 2.671553,-1.29337 0.342338,0.23585 0.540435,0.21455 0.806861,-0.0865 0.288207,-0.32569 0.229824,-0.61977 -0.317472,-1.59913 -0.640292,-1.1458 -0.730774,-1.20567 -2.001191,-1.32425 -1.569088,-0.1465 -2.975086,-0.9036 -3.147277,-1.69404 -0.130067,-0.59767 0.596182,-1.18637 2.272558,-1.84212 0.66043,-0.25834 0.92128,-0.59961 1.322401,-1.73008 1.124818,-3.17007 4.156262,-6.09027 6.929875,-6.67559 0.757033,-0.15976 1.575122,-0.37465 1.817969,-0.47752 0.242851,-0.10286 1.85017,-0.0277 3.571815,0.167 2.923596,0.33078 3.241387,0.42092 4.813374,1.36762 1.625827,0.97909 3.554322,3.11033 4.485933,4.9576 0.816643,1.61928 1.571449,2.45412 3.028085,3.34912 2.524654,1.55127 1.941078,2.5193 -2.108313,3.49728 -1.621446,0.39159 -1.688505,0.44174 -2.020086,1.51006 -0.298195,0.96074 -0.265788,1.30865 0.248217,2.66483 0.639498,1.68729 0.489297,2.30641 -0.573664,2.36455 -0.364754,0.02 -0.591402,0.22117 -0.62232,0.5525 -0.02673,0.28664 -0.387692,0.78129 -0.802173,1.09917 -0.648772,0.49769 -0.709815,0.642 -0.439072,1.03803 0.266951,0.39048 0.24166,0.50346 -0.16739,0.74772 -0.26502,0.15826 -0.504625,0.53172 -0.532446,0.82988 -0.145345,1.55738 -1.248773,2.06674 -3.943385,1.82037 -2.45123,-0.22375 -2.990308,-0.12328 -3.428759,0.64146 -0.50647,0.88339 -0.529178,1.69442 -0.08593,3.06912 0.453443,1.40635 2.602997,4.48639 4.041834,5.79147 l 1.007936,0.91421 1.53941,-0.45657 c 0.846677,-0.2511 1.977968,-0.49549 2.513973,-0.54305 0.733625,-0.0651 1.309016,-0.40793 2.327398,-1.38668 1.161801,-1.11658 1.472228,-1.28124 2.198259,-1.16601 0.464994,0.0737 0.910706,0.2437 0.990395,0.37804 0.254778,0.42856 2.079874,-0.18063 2.702171,-0.90195 0.330518,-0.3831 0.61087,-0.79678 0.622991,-0.91921 0.02565,-0.25708 1.818484,-1.91975 2.200403,-2.04043 0.140851,-0.0445 0.878565,-0.69081 1.639363,-1.43626 0.98905,-0.96907 1.693388,-1.41757 2.471407,-1.57369 0.638351,-0.12809 1.356516,-0.51844 1.737415,-0.94433 0.751075,-0.83979 0.897116,-0.86118 1.436815,-0.21038 0.267863,0.32302 0.326014,0.71794 0.178406,1.21177 -0.209304,0.70022 -0.178333,0.73347 0.701899,0.75277 0.785947,0.0173 0.930811,-0.0762 0.988714,-0.63779 l 0.06783,-0.65801 0.45371,0.70666 c 0.249536,0.38867 0.420879,1.08683 0.380769,1.55146 -0.06526,0.75641 0.02257,0.8721 0.83998,1.10582 0.979724,0.28005 1.278803,0.72952 1.38951,2.08742 0.06288,0.77148 0.01647,0.83788 -0.448201,0.6412 -0.307768,-0.13029 -0.529418,-0.10082 -0.545587,0.0725 -0.01502,0.16052 -0.292216,0.59113 -0.616125,0.95689 -0.361164,0.40787 -0.780116,1.46931 -1.083359,2.74479 -0.271974,1.14384 -0.684193,2.32792 -0.916084,2.63129 -0.458586,0.59992 -2.627884,1.12631 -4.181998,1.01474 -0.508133,-0.0365 -1.217779,-0.0879 -1.576965,-0.11436 -0.359188,-0.0265 -1.004193,0.15573 -1.433308,0.4047 -0.610455,0.35416 -0.758249,0.59526 -0.679255,1.108 0.06641,0.43106 -0.01124,0.64488 -0.226855,0.62477 -0.234812,-0.0223 -0.313708,0.29578 -0.278105,1.12071 0.04898,1.1341 0.03462,1.15525 -0.959358,1.41283 -0.65951,0.17091 -2.474899,1.4454 -5.240279,3.67894 -2.327157,1.87959 -4.363117,3.4051 -4.524375,3.39007 -0.161222,-0.0154 -1.181641,0.31252 -2.267534,0.72795 -1.784001,0.68248 -2.112476,0.72569 -3.407214,0.44823 -0.788077,-0.16888 -2.803057,-1.00119 -4.477722,-1.84957 -1.674661,-0.84839 -3.504918,-1.65911 -4.067265,-1.80155 -0.562454,-0.14201 -1.567155,-0.67242 -2.232929,-1.17772 -0.665759,-0.50532 -1.251705,-0.92259 -1.302096,-0.9273 -0.280278,-0.0262 -1.973312,2.58148 -2.023216,3.1162 -0.03253,0.34878 -0.497338,1.11075 -1.032864,1.69331 -0.764689,0.83181 -1.170948,1.05955 -1.89272,1.06104 -0.505481,0.001 -1.02954,0.1614 -1.164612,0.35634 -0.135074,0.19497 -0.417515,0.33842 -0.627655,0.31881 -0.210115,-0.0197 -0.392149,0.0724 -0.404465,0.20438 -0.01235,0.13203 0.603923,0.25569 1.369442,0.27483 0.765522,0.0191 2.033806,0.20342 2.8184,0.40967 0.784648,0.20603 3.363781,0.68781 5.731509,1.07025 2.485828,0.40154 4.671647,0.89039 5.172718,1.15689 0.477259,0.25386 1.11994,0.48581 1.428175,0.51544 0.308156,0.0303 0.883489,0.26256 1.278275,0.51785 0.394816,0.25517 0.917749,0.48261 1.162086,0.50541 0.632489,0.0592 1.805108,0.78306 1.778201,1.09789 -0.01245,0.14603 0.457281,1.52901 1.043924,3.07335 0.586642,1.54434 1.03879,3.10616 1.004769,3.47074 -0.03394,0.3646 -0.431333,1.02121 -0.882905,1.45915 -1.837654,1.78218 -3.393964,4.69996 -3.596197,6.74215 -0.0945,0.95433 -0.282238,1.28533 -1.125653,1.98477 -0.604558,0.50136 -1.168084,1.28038 -1.399199,1.93431 -0.212838,0.60219 -0.902786,1.9274 -1.533234,2.94493 -1.302874,2.10284 -2.335807,2.81598 -4.232028,2.92191 -1.017755,0.0568 -1.27862,-0.0198 -1.536296,-0.45133 -0.300812,-0.50372 -0.32749,-0.50529 -0.864852,-0.0509 -0.304958,0.25788 -1.261541,1.5555 -2.125744,2.8836 -1.290715,1.98358 -1.467545,1.60337 -1.570325,2.70472 -0.121822,1.30544 -0.08073,1.39575 1.559039,3.42577 1.650664,2.04351 1.716223,2.0916 3.295367,2.41733 2.736984,0.56453 4.643999,1.35853 6.376953,2.65488 0.512305,0.38326 0.922401,0.79397 0.911328,0.91268 -0.01111,0.11873 0.03052,0.39659 0.09244,0.61747 0.239686,0.85487 -4.866846,2.37874 -8.62807,2.57475 -0.807772,0.0421 -2.490904,-0.009 -3.740308,-0.11304 -1.809685,-0.15095 -2.390344,-0.29854 -2.85536,-0.72549 -0.710263,-0.65211 -2.85065,-2.1762 -3.08716,-2.19827 -0.09391,-0.009 -0.185665,0.37133 -0.203883,0.84462 -0.06046,1.57558 0.02823,1.53211 -2.582722,1.2658 -1.339174,-0.13656 -3.159683,-0.47812 -4.045604,-0.75895 z m -10.792526,-54.81457 c 0.103064,-0.13653 0.06192,-0.25993 -0.09159,-0.27427 -0.153414,-0.0146 -0.290054,0.0925 -0.303571,0.23739 -0.01353,0.14491 0.0277,0.26834 0.09159,0.2743 0.06406,0.005 0.200502,-0.10088 0.303575,-0.23742 z m 17.058217,-25.68873 c -0.160067,-0.193 -2.036259,0.29417 -2.353442,0.61112 -0.237794,0.23761 0.09013,0.20887 1.036715,-0.0909 0.76149,-0.24115 1.354018,-0.47524 1.316727,-0.52021 z"
         style="fill:#000000;stroke-width:0.0700042"
         id="path18014"
         sodipodi:nodetypes="ccssscsssccsssssssscscscsssccccccssssssssssssscscscssssscssssssssscssssssscccssssssscsccssssscsssssssssscsssssscscssscssscsssscscsssssssscssssscssssssscssscssscscsscscscssscscsscssssssssssssssssscccsccscscsssss" />
      <path
         d="m -231.37365,154.42687 c -0.0539,-0.005 -0.10777,-0.0132 -0.16166,-0.017 -0.47958,0.017 -0.97532,0.30176 -1.68391,0.79212 -1.9749,1.37946 -7.46392,3.34654 -8.83988,3.16603 -1.26092,-0.16166 -3.169,3.6933 -2.52992,5.11209 0.21554,0.47689 -0.0539,1.05616 -0.59813,1.30133 -1.81054,0.81637 -1.35791,3.01812 0.68704,3.3382 1.46299,0.1886 0.92683,0.59543 -1.94795,1.34713 -7.44776,1.94526 -12.75734,7.36396 -17.74173,18.10627 -1.25823,2.71528 -2.5407,4.90491 -2.84649,4.86476 -0.30446,-0.0269 -1.80516,1.80516 -3.33173,4.10283 -1.52765,2.29551 -3.28216,4.1171 -3.8986,4.04247 -0.61699,-0.0808 -1.19626,0.16166 -1.28517,0.52808 -0.74631,3.03266 -1.19356,4.42021 -1.89676,5.8999 -0.59274,1.24744 -0.0808,2.72633 1.86713,5.42059 1.47645,2.03956 3.41821,4.05083 4.31459,4.47032 1.99645,0.93222 2.12847,7.97637 0.16166,8.44949 -0.66549,0.16165 -1.3148,1.09387 -1.44413,2.07189 -0.13471,0.98071 -2.09614,3.41067 -4.37387,5.40119 -6.08688,5.32333 -7.40545,10.56475 -3.33011,13.23288 2.8508,1.86443 4.50778,1.91023 7.38525,0.21554 1.82132,-1.08309 2.71339,-2.38712 2.9707,-4.34639 0.28559,-2.17696 0.57387,-2.52991 1.30133,-1.58423 2.93674,3.82397 15.30692,-0.78672 14.5501,-5.42355 -0.16165,-0.8945 0.72207,-2.69157 1.9291,-3.9867 1.20703,-1.29594 2.30359,-3.20214 2.441,-4.23404 0.16166,-1.10465 0.82175,-1.80246 1.6462,-1.692 0.7975,0.10777 1.41987,-0.50383 1.44412,-1.40371 0.10777,-3.55966 0.50652,-3.80457 5.26055,-3.18031 3.0421,0.39875 6.01603,0.13471 8.38267,-0.76787 l 3.66716,-1.38485 -1.02382,2.87236 c -0.5631,1.57884 -1.76205,3.94171 -2.66193,5.24843 -0.89989,1.30671 -1.44682,2.61882 -1.21512,2.91977 0.24249,0.29637 -0.82983,2.15541 -2.36017,4.12223 -3.27057,4.20871 -3.76982,8.33928 -1.10465,9.20711 0.96185,0.31253 1.96951,1.05345 2.23893,1.6435 0.30446,0.66548 2.98983,1.30672 7.06598,1.68661 7.86618,0.73823 9.424,0.55771 10.39609,-1.23667 0.99149,-1.82941 -1.18278,-6.1925 -2.88259,-5.78405 -1.49262,0.35564 -4.50939,-3.34169 -4.26152,-5.22984 0.1886,-1.39832 7.43401,-12.1452 10.45024,-15.48824 1.50071,-1.66506 2.76567,-2.14195 4.91811,-1.85905 3.69654,0.48497 8.59848,-3.25925 10.93737,-8.35626 0.92144,-2.00723 2.12578,-3.59172 2.6781,-3.51952 1.09926,0.16166 4.45847,-10.06496 3.97485,-12.09024 -0.21554,-0.87564 -1.18817,-1.20703 -3.15741,-1.07501 -1.57076,0.10777 -4.46089,0.24248 -6.42582,0.29637 -3.43654,0.10777 -3.53676,0.017 -2.66732,-1.96951 2.35478,-5.38152 2.59457,-7.37501 1.16931,-9.68858 -1.33366,-2.17427 -2.64038,-2.79422 -12.06303,-5.71696 -2.74869,-0.85408 -9.57246,-4.82381 -9.4857,-5.52081 0.0269,-0.30715 0.90527,-0.67626 1.9237,-0.8002 1.01844,-0.10777 1.90754,-0.66009 1.97759,-1.18278 0.0808,-0.5173 -0.62506,-1.48454 -1.54111,-2.14194 -0.91605,-0.65471 -1.55998,-1.98567 -1.43335,-2.95292 0.13471,-0.98879 -0.37451,-1.84018 -1.15315,-1.94256 -0.75978,-0.10777 -2.33593,-1.33097 -3.50146,-2.73683 -1.42258,-1.71356 -2.15272,-2.47603 -2.89311,-2.54608 z m 8.74828,31.19608 c 0.16165,0.017 0.39336,0.0539 0.64931,0.0808 0.9861,0.13471 2.68349,0.68973 3.7876,1.16661 l 2.00723,0.86217 -2.74573,1.91562 c -1.50879,1.05346 -2.3467,1.39832 -1.85904,0.76517 0.58735,-0.76248 0.24248,-1.79438 -1.04268,-3.07793 -1.50071,-1.5007 -1.74049,-1.82671 -0.79211,-1.72163 z m 15.58308,12.11988 c 0.1886,0.0269 0.30715,0.24248 0.24249,0.64123 -0.0808,0.57119 0.76786,1.16931 1.87521,1.32289 2.96126,0.38797 4.17314,1.6893 2.97096,3.1337 -0.55502,0.66817 -1.13698,2.13385 -1.29325,3.26518 -0.16165,1.13159 -1.05345,3.16576 -1.99914,4.52043 -1.57345,2.26319 -4.25047,2.9513 -5.44241,1.39833 -0.27213,-0.34756 0.017,-1.3633 0.66278,-2.24702 0.63585,-0.88372 1.33905,-3.80673 1.56537,-6.49345 0.24249,-2.68349 0.72206,-5.12314 1.10465,-5.41466 0.10777,-0.0808 0.1886,-0.10777 0.24248,-0.10777 0.017,-10e-4 0.0269,0.005 0.0539,0.007 z"
         style="fill:#000000;stroke-width:0.903166"
         id="path6473-5-1" />
    </g>
  </g>
</svg>
