<?xml version="1.0" encoding="UTF-8" standalone="no"?>
<!-- Created with Inkscape (http://www.inkscape.org/) -->

<svg
   width="12.88426mm"
   height="6.5045819mm"
   viewBox="0 0 12.88426 6.5045819"
   version="1.1"
   id="svg1"
   xml:space="preserve"
   sodipodi:docname="inkporter-svg-w7hhp8wm.svg"
   xmlns:inkscape="http://www.inkscape.org/namespaces/inkscape"
   xmlns:sodipodi="http://sodipodi.sourceforge.net/DTD/sodipodi-0.dtd"
   xmlns="http://www.w3.org/2000/svg"
   xmlns:svg="http://www.w3.org/2000/svg"><sodipodi:namedview
     id="namedview1"
     pagecolor="#ffffff"
     bordercolor="#000000"
     borderopacity="0.25"
     inkscape:showpageshadow="2"
     inkscape:pageopacity="0.0"
     inkscape:pagecheckerboard="0"
     inkscape:deskcolor="#d1d1d1"
     inkscape:document-units="mm"
     inkscape:zoom="1.1506941"
     inkscape:cx="329.36643"
     inkscape:cy="583.12632"
     inkscape:window-width="2560"
     inkscape:window-height="1368"
     inkscape:window-x="0"
     inkscape:window-y="0"
     inkscape:window-maximized="1"
     inkscape:current-layer="layer1" /><defs
     id="defs1" /><g
     inkscape:label="Layer 1"
     inkscape:groupmode="layer"
     id="layer1"
     transform="translate(-107.94999,-111.38958)"><g
       id="B-MH-Boys"
       transform="translate(-455.67767,-459.817)"><path
         style="fill:#000000;fill-opacity:1;stroke:none;stroke-width:0.053;stroke-linecap:round;stroke-linejoin:round;stroke-dasharray:none;stroke-opacity:1"
         d="m 563.62766,576.05411 1.24738,0.11054 2.36844,0.17367 0.23686,-0.0159 -0.0159,0.41052 9.04748,-0.17369 v -0.88422 l -0.78949,-0.22105 0.47369,-0.15791 -0.0474,-0.22106 -0.56843,-0.18947 -0.17367,-0.56843 c 0,0 0.36317,-0.7579 0.17367,-1.13686 -0.18946,-0.37893 -0.61579,-0.63156 -1.05791,-0.63156 -0.44209,0 -0.77369,0.0789 -0.77369,0.0789 l -0.0632,-0.20527 0.71054,0.0632 -0.12631,-0.93157 -0.96316,-0.34737 -1.61055,0.0159 -1.2474,0.12634 -0.28419,0.29998 0.0947,0.11055 h -0.56843 v 0.079 l -1.5158,-0.0947 v 0.1737 l 1.97371,0.17367 -0.26842,0.23686 0.0159,0.23683 -0.48948,-0.0159 -0.42632,0.71051 -0.26842,0.23686 -3.91584,0.58423 -0.34737,0.18946 z"
         id="path658" /><circle
         style="fill:#000000;fill-opacity:1;stroke:none;stroke-width:0.053;stroke-linecap:round;stroke-linejoin:round;stroke-dasharray:none;stroke-opacity:1"
         id="path678"
         cx="566.03387"
         cy="576.46674"
         r="1.231439" /><circle
         style="fill:#000000;fill-opacity:1;stroke:none;stroke-width:0.053;stroke-linecap:round;stroke-linejoin:round;stroke-dasharray:none;stroke-opacity:1"
         id="path679"
         cx="573.66205"
         cy="576.4458"
         r="1.2653612" /></g></g></svg>
