<?xml version="1.0" encoding="UTF-8" standalone="no"?>
<!-- Created with Inkscape (http://www.inkscape.org/) -->

<svg
   width="16.128841mm"
   height="6.9882898mm"
   viewBox="0 0 16.128841 6.9882898"
   version="1.1"
   id="svg26913"
   sodipodi:docname="inkporter-svg-ge8gdmk0.svg"
   xmlns:inkscape="http://www.inkscape.org/namespaces/inkscape"
   xmlns:sodipodi="http://sodipodi.sourceforge.net/DTD/sodipodi-0.dtd"
   xmlns="http://www.w3.org/2000/svg"
   xmlns:svg="http://www.w3.org/2000/svg">
  <sodipodi:namedview
     id="namedview26915"
     pagecolor="#ffffff"
     bordercolor="#666666"
     borderopacity="1.0"
     inkscape:pageshadow="2"
     inkscape:pageopacity="0.0"
     inkscape:pagecheckerboard="0"
     inkscape:document-units="mm"
     showgrid="false"
     inkscape:zoom="2.5620932"
     inkscape:cx="273.99472"
     inkscape:cy="275.7511"
     inkscape:window-width="1920"
     inkscape:window-height="1017"
     inkscape:window-x="-8"
     inkscape:window-y="-8"
     inkscape:window-maximized="1"
     inkscape:current-layer="layer1" />
  <defs
     id="defs26910" />
  <g
     inkscape:label="Layer 1"
     inkscape:groupmode="layer"
     id="layer1"
     transform="translate(-74.343788,-63.52707)">
    <path
       d="m 76.47859,70.46936 c -0.0785,-0.0222 -0.21273,-0.0892 -0.29835,-0.14876 -0.0856,-0.0596 -0.28382,-0.18867 -0.44045,-0.28678 -0.15663,-0.0981 -0.28478,-0.19272 -0.28478,-0.21024 0,-0.0175 -0.0734,-0.0643 -0.16319,-0.10411 -0.20988,-0.0929 -0.7747,-0.6381 -0.87983,-0.84928 -0.0446,-0.0895 -0.0747,-0.21155 -0.067,-0.27122 0.0613,-0.47769 0.0926,-0.60436 0.16231,-0.65691 0.10274,-0.0774 0.10144,-0.17865 -0.005,-0.29489 l -0.0836,-0.0924 0.5176,-0.33196 0.51761,-0.33196 v -0.10876 c 0,-0.11798 0.086,-0.14916 0.12107,-0.0439 l 0.0217,0.0649 0.19451,-0.12021 0.19451,-0.12022 -0.0281,-0.10738 -0.0281,-0.10737 h 0.37763 0.37763 l 0.10121,-0.11184 0.1012,-0.11182 0.0985,0.0258 0.0985,0.0258 0.12991,-0.25638 c 0.1581,-0.31199 0.23131,-0.37608 0.52993,-0.46388 l 0.23226,-0.0683 0.0173,-0.11636 0.0173,-0.11635 h 0.26425 c 0.14534,0 0.27933,0.0244 0.29776,0.0542 0.0184,0.0298 0.14871,0.0542 0.28948,0.0542 h 0.25596 l 0.12055,-0.0844 0.12056,-0.0845 V 64.9073 64.72052 h -0.78655 -0.78653 v -0.0814 -0.0814 h 0.78653 0.78655 V 64.0424 63.52707 h 0.0542 0.0542 v 0.50927 0.50924 l 0.24767,-0.0156 c 0.13621,-0.008 0.26234,-0.0302 0.28026,-0.0482 0.018,-0.018 0.0773,-0.0326 0.13203,-0.0326 h 0.0994 v -0.37971 -0.37972 h 0.0543 0.0542 v 0.37972 0.37971 h 0.12476 c 0.0687,0 0.15406,-0.0293 0.18985,-0.0651 l 0.0651,-0.0651 0.065,0.0651 0.0651,0.0651 h 0.58584 0.58584 v -0.0543 c 0,-0.0706 0.20049,-0.0706 0.24409,0 0.0184,0.0299 0.10267,0.0543 0.18718,0.0543 h 0.15365 l 0.0329,0.13129 c 0.0181,0.0722 0.0181,0.16986 5e-5,0.21698 l -0.0328,0.0857 h -0.40102 -0.40102 v 0.0534 0.0534 l -0.32547,-0.034 -0.32547,-0.034 v 0.11622 0.11621 l 1.96634,0.0135 c 3.42673,0.0236 3.59312,0.0295 4.27173,0.14927 0.16409,0.029 0.67417,0.067 1.13351,0.0846 l 0.83516,0.0319 0.0715,0.0715 c 0.0393,0.0394 0.19437,0.10091 0.34465,0.13695 0.15028,0.036 0.27325,0.0899 0.27325,0.11958 0,0.0298 0.0537,0.12948 0.11939,0.22168 l 0.11938,0.16767 0.0229,0.47808 0.0229,0.47807 h -0.16937 -0.16936 v 0.18543 0.18544 l 0.22104,0.23004 0.22104,0.23007 -0.0261,0.0998 c -0.0143,0.0549 -0.005,0.0998 0.0218,0.0998 0.0263,0 0.0458,0.14651 0.0434,0.32557 l -0.005,0.32556 -0.10266,0.13051 c -0.0565,0.0717 -0.10265,0.15455 -0.10265,0.18395 0,0.0294 -0.0305,0.0686 -0.0679,0.087 -0.0374,0.0184 -0.14103,0.0811 -0.23054,0.13924 -0.20023,0.1301 -0.82753,0.45994 -1.66071,0.87323 l -0.63008,0.31254 -5.52662,-0.004 c -3.03963,-0.002 -5.59082,-0.021 -5.66929,-0.0432 z m 0.90209,-0.32443 c 0.0189,-0.0596 0.0694,-0.10849 0.11213,-0.10849 h 0.0777 v 0.10849 0.10849 h 0.13561 0.13561 v -0.10849 -0.10849 h 0.0864 c 0.0475,0 0.0992,0.0488 0.11481,0.10849 l 0.0284,0.10849 h 0.12296 0.12296 l 0.0284,-0.10849 c 0.0156,-0.0596 0.0672,-0.10849 0.11482,-0.10849 h 0.0864 v 0.10849 0.10849 h 0.11793 0.11795 l -0.11145,-0.12205 c -0.0613,-0.0671 -0.14431,-0.21531 -0.18446,-0.32928 l -0.073,-0.20722 -0.16401,-0.0336 c -0.21041,-0.043 -0.33394,-0.0417 -0.58048,0.005 l -0.19948,0.0385 -0.0357,0.1623 c -0.0196,0.0893 -0.0968,0.23496 -0.17149,0.32376 l -0.13583,0.16143 h 0.10965 0.10965 z m 2.41385,0 v -0.10849 h 0.0751 c 0.0413,0 0.0878,0.0488 0.10342,0.10849 l 0.0284,0.10849 h 0.10452 c 0.16548,0 0.17221,-0.0431 0.0513,-0.32917 l -0.11356,-0.2688 0.0577,-0.21633 0.0577,-0.21634 h -0.17949 -0.17949 l 0.0572,0.1641 0.0572,0.16409 -0.0369,0.19665 -0.0369,0.19666 -0.15458,0.15457 -0.15457,0.15457 h 0.13144 0.13145 z m 1.89856,0 v -0.10849 h 0.0751 c 0.0413,0 0.0878,0.0488 0.10341,0.10849 L 81.9,70.25342 h 0.11865 0.11864 l 0.0284,-0.10849 c 0.0156,-0.0596 0.0593,-0.10849 0.0971,-0.10849 0.0378,0 0.0815,0.0488 0.0971,0.10849 l 0.0284,0.10849 h 0.11528 c 0.15421,0 0.19553,-0.12952 0.0896,-0.28078 -0.0474,-0.0678 -0.0862,-0.1656 -0.0862,-0.21757 0,-0.052 -0.0531,-0.12288 -0.11777,-0.15754 -0.13296,-0.0712 -0.56334,-0.0747 -0.74854,-0.006 l -0.12258,0.0453 -0.0739,0.21346 c -0.0406,0.11742 -0.0606,0.25619 -0.0444,0.3084 l 0.0296,0.0949 h 0.13196 0.13196 z m 2.42525,0 c 0.0156,-0.0596 0.0621,-0.10849 0.10341,-0.10849 h 0.0751 v 0.10849 0.10849 h 0.11126 0.11124 l -0.1495,-0.19601 -0.14951,-0.19601 -0.003,-0.19727 c -8.2e-4,-0.10848 0.0177,-0.25217 0.0419,-0.3193 l 0.044,-0.12205 h -0.24967 -0.24966 l 0.0562,0.10492 c 0.0729,0.13624 0.0715,0.3775 -0.004,0.59284 -0.0745,0.21375 -0.0325,0.33288 0.11742,0.33288 h 0.11527 l 0.0283,-0.10849 z m 1.37182,0.0205 v -0.088 l -0.0949,0.0727 c -0.0522,0.04 -0.1051,0.0795 -0.11753,0.088 -0.0124,0.008 0.0303,0.0153 0.0949,0.0153 h 0.11752 z m 0.48821,-0.0205 v -0.10849 h 0.10849 0.10848 v 0.10849 0.10849 h 0.13561 0.13561 v -0.10849 -0.10849 h 0.0777 c 0.0427,0 0.0932,0.0488 0.11214,0.10849 l 0.0345,0.10849 h 0.13677 0.13678 l -0.1433,-0.17031 c -0.0788,-0.0937 -0.15716,-0.23958 -0.17408,-0.32423 l -0.0308,-0.15393 -0.19689,-0.039 c -0.19805,-0.0393 -0.27733,-0.0377 -0.57658,0.011 l -0.16274,0.0265 -0.0909,0.21649 -0.0909,0.21648 h 0.0737 c 0.0405,0 0.0892,0.0488 0.1081,0.10849 l 0.0345,0.10848 h 0.13196 0.13196 z m -9.26492,-0.28209 c -0.0586,-0.0586 -0.17356,-0.0159 -0.17356,0.0643 0,0.0639 0.18488,0.098 0.20952,0.0386 0.0108,-0.026 -0.005,-0.0724 -0.0359,-0.103 z m 2.63358,0.1058 c -0.0124,-0.0374 -0.0552,-0.0679 -0.0949,-0.0679 -0.0398,0 -0.0825,0.0306 -0.0949,0.0679 l -0.0226,0.0679 h 0.11754 0.11752 z m 1.42389,-0.0135 c 0,-0.0448 -0.0352,-0.0814 -0.0781,-0.0814 -0.0906,0 -0.15181,0.0774 -0.10118,0.12805 0.0648,0.0649 0.17934,0.035 0.17934,-0.0467 z m 2.59343,-0.006 c -0.0483,-0.0483 -0.11454,-0.0713 -0.14724,-0.0511 -0.1077,0.0666 -0.062,0.13881 0.0878,0.13881 h 0.14723 z m 1.52914,0.006 c 0,-0.0448 -0.0352,-0.0814 -0.0781,-0.0814 -0.0906,0 -0.15181,0.0774 -0.10119,0.12805 0.0649,0.0649 0.17934,0.035 0.17934,-0.0467 z m 2.64442,0.0135 c -0.0337,-0.10135 -0.18514,-0.11242 -0.22204,-0.0162 l -0.0322,0.084 h 0.13842 0.13843 z m 0.55597,-0.0135 c 0,-0.0448 -0.0218,-0.0814 -0.0484,-0.0814 -0.0267,0 -0.0625,0.0366 -0.0797,0.0814 l -0.0312,0.0814 h 0.0797 c 0.0438,0 0.0797,-0.0366 0.0797,-0.0814 z M 76.08447,69.77999 c -0.0552,-0.0552 -0.10064,0.0279 -0.0554,0.10107 l 0.0424,0.0688 0.0229,-0.0686 c 0.0125,-0.0376 0.008,-0.0833 -0.01,-0.10129 z m 1.05211,-0.0213 c 0,-0.0262 -0.0366,-0.0476 -0.0814,-0.0476 h -0.0814 v 0.11513 0.11513 l 0.0814,-0.0676 c 0.0448,-0.0372 0.0814,-0.089 0.0814,-0.11512 z m 1.74756,-0.004 c -0.0353,-0.0353 -0.0774,-0.051 -0.0935,-0.0348 -0.016,0.0162 -0.0133,0.071 0.006,0.12207 l 0.0356,0.0928 0.0579,-0.0579 0.0579,-0.0579 -0.0641,-0.0642 z m 2.25688,0.0463 0.0175,-0.0902 -0.0853,0.0327 c -0.10029,0.0385 -0.11724,0.20354 -0.0175,0.17034 0.0373,-0.0124 0.0756,-0.0632 0.0853,-0.11283 z m 1.82002,-0.0473 c -0.0147,-0.0238 -0.0628,-0.0433 -0.10682,-0.0433 h -0.08 l 0.062,0.11581 0.062,0.11582 0.0448,-0.0726 c 0.0247,-0.0399 0.0328,-0.092 0.0181,-0.11581 z m 2.31324,0.091 c 0.0377,-0.0455 0.0564,-0.0949 0.0415,-0.10978 -0.0492,-0.0492 -0.20534,0.0398 -0.20534,0.11689 0,0.0995 0.0781,0.0961 0.16382,-0.007 z m 1.80072,-0.09 c -0.0827,-0.0826 -0.13306,-0.0323 -0.0872,0.0872 l 0.0356,0.0928 0.0579,-0.0579 0.0579,-0.0579 z m 1.35586,-0.0598 -0.0156,-0.14726 h 0.0834 c 0.0459,0 0.0835,0.0245 0.0835,0.0543 0,0.0298 0.0639,0.0542 0.14193,0.0542 h 0.14194 l -0.0262,-0.13689 c -0.0338,-0.17699 0.0467,-0.22438 0.17866,-0.10503 l 0.10405,0.0942 0.0768,-0.0638 0.0768,-0.0637 -0.0278,-0.10649 c -0.0152,-0.0585 -0.0485,-0.10649 -0.0738,-0.10649 -0.0253,0 -0.13196,-0.0754 -0.23698,-0.16765 l -0.19093,-0.16765 -0.22755,0.19477 -0.22754,0.19477 h -0.1486 -0.14859 l 0.0533,0.19308 c 0.0293,0.10621 0.0437,0.22197 0.0319,0.25724 -0.0249,0.0748 0.16723,0.19619 0.28572,0.18045 l 0.0814,-0.0108 z m -8.83198,-0.0162 c 0.0465,-0.12124 0.0429,-0.13117 -0.0484,-0.13117 h -0.0814 v 0.10849 c 0,0.12934 0.0833,0.14389 0.12982,0.0227 z m 4.04699,-0.0227 c 0,-0.1144 -0.0789,-0.14597 -0.13562,-0.0543 -0.0395,0.064 0.0117,0.16273 0.0845,0.16273 0.0281,0 0.0511,-0.0488 0.0511,-0.10848 z m 4.13827,0 0.0283,-0.10849 h -0.0763 -0.0763 v 0.10849 c 0,0.0596 0.0216,0.10849 0.0479,0.10849 0.0263,0 0.0607,-0.0488 0.0763,-0.10849 z m -11.84093,-0.0152 c 0.0448,-0.0364 0.10975,-0.14542 0.14446,-0.24238 l 0.0631,-0.17629 h -0.1309 c -0.072,0 -0.13089,0.0245 -0.13089,0.0542 0,0.0298 -0.0488,0.0542 -0.1085,0.0542 -0.0596,0 -0.10848,-0.0244 -0.10848,-0.0542 0,-0.10259 -0.0912,-0.0541 -0.15286,0.0814 l -0.0618,0.13559 h 0.0499 c 0.0274,0 0.0652,-0.0248 0.084,-0.0551 0.0505,-0.0817 0.14749,-8.2e-4 0.11146,0.0926 -0.0639,0.16662 0.0863,0.23526 0.24058,0.10993 z m 0.53406,-0.0632 0.0188,-0.0967 -0.073,0.0243 c -0.0402,0.0134 -0.0815,0.0679 -0.0917,0.12098 l -0.0188,0.0967 0.073,-0.0243 c 0.0401,-0.0134 0.0815,-0.0679 0.0917,-0.12099 z m 4.01286,0.0424 c -0.01,-0.0497 -0.0481,-0.1006 -0.0854,-0.11302 l -0.0678,-0.0226 v 0.113 0.11302 h 0.0854 0.0853 z m 4.13213,0.0122 c 0,-0.043 -0.0244,-0.0933 -0.0542,-0.1117 l -0.0542,-0.0336 v 0.11169 c 0,0.0614 0.0244,0.11169 0.0542,0.11169 0.0298,0 0.0542,-0.0352 0.0542,-0.0781 z M 79.44027,69.3338 c 0.0175,-0.0283 -0.0177,-0.0781 -0.0781,-0.1104 l -0.11001,-0.0589 v 0.0743 c 0,0.13367 0.12521,0.19691 0.18817,0.095 z m 3.95678,-0.0942 -0.10252,-0.075 -0.0208,0.0623 c -0.0253,0.0759 0.10279,0.16358 0.17435,0.11935 l 0.0514,-0.0318 z m 4.20864,0.0341 c 0,-0.0281 -0.0488,-0.0511 -0.10849,-0.0511 -0.11967,0 -0.14773,0.0853 -0.0407,0.12377 0.082,0.0294 0.14916,-0.004 0.14916,-0.0727 z m -6.83477,-0.0239 c 0,-0.0913 -0.01,-0.095 -0.13116,-0.0484 -0.1212,0.0465 -0.10665,0.12981 0.0227,0.12981 h 0.10847 z m 4.12257,0.005 v -0.0763 l -0.1085,0.0283 c -0.0596,0.0156 -0.10849,0.05 -0.10849,0.0763 0,0.0263 0.0488,0.0479 0.10849,0.0479 h 0.1085 z m -8.13662,-0.0322 c 0,-0.0298 -0.0245,-0.0542 -0.0542,-0.0542 -0.0298,0 -0.0542,0.0244 -0.0542,0.0542 0,0.0298 0.0244,0.0542 0.0542,0.0542 0.0298,0 0.0542,-0.0244 0.0542,-0.0542 z m 12.84115,0.0215 c -0.0181,-0.0181 -0.0649,-0.02 -0.10397,-0.005 l -0.0712,0.0285 0.10396,0.005 c 0.0571,0.003 0.0892,-0.0105 0.0712,-0.0285 z m 0.0147,-0.31982 v -0.0814 H 89.48291 89.3531 l -0.0312,0.0814 -0.0312,0.0814 h 0.16103 0.16103 z m -0.4464,-0.17966 c 0.0118,-0.0355 -0.0182,-0.0796 -0.0668,-0.0982 -0.11316,-0.0435 -0.14948,-0.005 -0.10525,0.10968 0.038,0.099 0.13739,0.0924 0.172,-0.0115 z m 0.8285,-0.17145 -0.0775,-0.0479 -0.065,0.0887 c -0.0357,0.0488 -0.0531,0.11918 -0.0389,0.15639 l 0.0259,0.0677 0.11645,-0.10849 0.11645,-0.10849 z m -0.0255,-0.36503 c -0.0168,-0.15704 -0.1059,-0.22322 -0.16716,-0.12409 -0.0206,0.0333 0.005,0.10781 0.0577,0.16559 0.12253,0.13541 0.12811,0.13329 0.10948,-0.0415 z m -9.86296,-3.05323 0.12206,-6.1e-4 V 65.086 c 0,-0.0647 -0.24736,-0.3656 -0.30055,-0.3656 -0.0137,0 -0.0249,0.0365 -0.0249,0.0814 0,0.0448 0.0366,0.0814 0.0814,0.0814 h 0.0814 v 0.10849 0.10848 h -0.27442 -0.27443 l 0.0373,0.0602 0.0373,0.0602 0.19651,-0.0326 c 0.10808,-0.0179 0.25145,-0.0328 0.31857,-0.0331 z m 0.58632,-0.06 c 0.0202,-0.0328 0.006,-0.11626 -0.0308,-0.18574 l -0.0677,-0.12632 -0.12865,0.15288 c -0.0707,0.0841 -0.12864,0.16768 -0.12864,0.18574 0,0.0585 0.31788,0.0347 0.35578,-0.0266 z m -0.73549,-0.14126 c -0.0448,-0.0162 -0.12354,-0.0814 -0.17509,-0.14489 l -0.0937,-0.11551 -8.3e-4,0.11827 -8.2e-4,0.11827 -0.12205,0.0236 c -0.0671,0.013 0.0123,0.0249 0.1763,0.0266 0.16408,0.002 0.26173,-0.0101 0.21696,-0.0263 z M 79.6193,64.78479 c 0.0118,-0.0355 -0.0171,-0.0644 -0.0644,-0.0644 -0.0473,0 -0.0859,0.0386 -0.0859,0.0859 0,0.0958 0.11678,0.0791 0.15031,-0.0215 z m 2.88736,-0.22715 c 0,-0.0299 -0.0244,-0.0543 -0.0542,-0.0543 -0.0298,0 -0.0542,0.0244 -0.0542,0.0543 0,0.0298 0.0245,0.0542 0.0542,0.0542 0.0298,0 0.0542,-0.0244 0.0542,-0.0542 z"
       id="B-RAM-Kangaroo" />
  </g>
</svg>
