<?xml version="1.0" encoding="UTF-8" standalone="no"?>
<!-- Created with Inkscape (http://www.inkscape.org/) -->

<svg
   width="19.374577mm"
   height="10.006483mm"
   viewBox="0 0 19.374577 10.006483"
   version="1.1"
   id="svg13154"
   sodipodi:docname="inkporter-svg-rjtgnzi9.svg"
   xmlns:inkscape="http://www.inkscape.org/namespaces/inkscape"
   xmlns:sodipodi="http://sodipodi.sourceforge.net/DTD/sodipodi-0.dtd"
   xmlns="http://www.w3.org/2000/svg"
   xmlns:svg="http://www.w3.org/2000/svg">
  <sodipodi:namedview
     id="namedview13156"
     pagecolor="#ffffff"
     bordercolor="#666666"
     borderopacity="1.0"
     inkscape:pageshadow="2"
     inkscape:pageopacity="0.0"
     inkscape:pagecheckerboard="0"
     inkscape:document-units="mm"
     showgrid="false"
     inkscape:zoom="0.90583672"
     inkscape:cx="177.73623"
     inkscape:cy="473.04331"
     inkscape:window-width="1920"
     inkscape:window-height="1017"
     inkscape:window-x="-8"
     inkscape:window-y="-8"
     inkscape:window-maximized="1"
     inkscape:current-layer="layer1" />
  <defs
     id="defs13151" />
  <g
     inkscape:label="Layer 1"
     inkscape:groupmode="layer"
     id="layer1"
     transform="translate(-35.03722,-142.77854)">
    <path
       d="m 37.80221,152.72055 c -0.0299,-0.0535 -0.0479,-0.0553 -0.1172,-0.0121 -0.10046,0.0627 -0.282,-0.005 -0.31097,-0.11547 -0.0135,-0.0518 -0.0473,-0.0664 -0.12682,-0.0547 -0.0753,0.0111 -0.14535,-0.0152 -0.22947,-0.086 -0.0666,-0.056 -0.14608,-0.1019 -0.17661,-0.1019 -0.0655,0 -0.3073,-0.23971 -0.3073,-0.30468 0,-0.0247 -0.0328,-0.0424 -0.0728,-0.0394 -0.085,0.006 -0.3157,-0.16496 -0.31889,-0.23686 -10e-4,-0.0271 -0.0332,-0.0498 -0.0711,-0.0505 -0.0901,-0.002 -0.28556,-0.17475 -0.28556,-0.2529 0,-0.0335 -0.0322,-0.061 -0.0714,-0.061 -0.10785,0 -0.29758,-0.216 -0.27284,-0.31062 0.0161,-0.0615 -10e-4,-0.0815 -0.0775,-0.0909 -0.0748,-0.009 -0.11105,-0.0495 -0.15243,-0.1696 -0.0298,-0.0867 -0.0451,-0.18715 -0.0338,-0.22331 0.0133,-0.0427 -0.008,-0.0747 -0.0599,-0.0913 -0.068,-0.0216 -0.0804,-0.0587 -0.0804,-0.2395 0,-0.18773 0.01,-0.21398 0.0788,-0.21398 0.0921,0 0.10554,-0.071 0.0197,-0.10393 -0.0765,-0.0293 -0.0746,-0.0972 0.007,-0.26893 0.048,-0.10061 0.0919,-0.13919 0.1583,-0.13919 0.0788,0 0.0883,-0.0143 0.0668,-0.10006 -0.0171,-0.0681 -0.003,-0.12475 0.045,-0.17749 0.11347,-0.12538 0.0451,-0.12383 -0.10813,0.002 -0.11815,0.0974 -0.14541,0.10636 -0.16534,0.0544 -0.0856,-0.22304 0.67799,-0.72465 1.10312,-0.72465 0.0881,0 0.0943,-0.0144 0.0943,-0.21663 0,-0.20482 0.006,-0.21664 0.0985,-0.21664 0.0542,0 0.0985,0.0155 0.0985,0.0344 0,0.0189 0.0716,0.0458 0.15906,0.0598 0.17703,0.0283 0.23411,0.1106 0.15954,0.23001 -0.0266,0.0425 -0.0382,0.0875 -0.0259,0.0998 0.0124,0.0123 0.0224,0.004 0.0224,-0.0186 0,-0.0226 0.0487,-0.0517 0.10832,-0.0647 0.0596,-0.013 0.19392,-0.0782 0.29855,-0.14481 0.27962,-0.17802 0.21147,-0.22961 -0.322,-0.24377 -0.40133,-0.0107 -0.42022,-0.015 -0.43226,-0.0998 -0.0122,-0.0862 -0.003,-0.0886 0.33977,-0.0886 h 0.35235 l -0.064,-0.17795 c -0.061,-0.16951 -0.0603,-0.18472 0.0147,-0.32128 0.0433,-0.0788 0.11838,-0.16916 0.16686,-0.20072 0.0784,-0.0511 0.0909,-0.0503 0.11279,0.007 0.0161,0.0419 -0.0112,0.0924 -0.0783,0.14521 -0.0732,0.0575 -0.10258,0.11716 -0.10169,0.20612 10e-4,0.11371 0.0952,0.30073 0.13086,0.26014 0.058,-0.066 0.12271,-0.23006 0.12326,-0.31224 4.4e-4,-0.0755 0.0236,-0.10115 0.0991,-0.10995 0.0542,-0.006 0.13698,-0.0308 0.18406,-0.0543 0.0518,-0.0259 0.12946,-0.0302 0.19694,-0.0108 0.0612,0.0176 0.17594,0.0274 0.25489,0.0217 0.0789,-0.006 0.15533,0.009 0.16972,0.0322 0.0144,0.0233 0.052,0.0424 0.0834,0.0424 0.0446,0 0.0517,-0.0344 0.0323,-0.15564 -0.0185,-0.11585 -0.009,-0.17195 0.0389,-0.21945 0.0351,-0.0351 0.0638,-0.0939 0.0638,-0.13063 0,-0.19794 0.41483,-0.55257 0.52155,-0.44585 0.0251,0.0251 0.0808,0.0237 0.16004,-0.004 0.0737,-0.0257 0.12637,-0.0277 0.13388,-0.005 0.007,0.0204 0.0831,0.0303 0.16957,0.0221 0.13763,-0.0131 0.15721,-0.0273 0.15721,-0.11387 0,-0.0972 0.004,-0.0984 0.22649,-0.0723 0.15121,0.0177 0.24821,0.052 0.29188,0.10301 0.0892,0.10423 0.27503,0.097 0.44344,-0.0173 0.0804,-0.0546 0.22929,-0.10514 0.35638,-0.12102 0.14893,-0.0186 0.23011,-0.0495 0.25564,-0.0972 0.052,-0.0971 -0.0231,-0.16169 -0.1566,-0.13498 -0.0893,0.0178 -0.12571,-0.002 -0.21556,-0.1203 -0.10647,-0.13958 -0.11254,-0.14178 -0.39101,-0.14178 -0.17377,0 -0.30184,-0.019 -0.33208,-0.0493 -0.0543,-0.0543 -1.55679,-0.098 -3.60132,-0.10462 -1.25115,-0.004 -1.20341,0.006 -1.15427,-0.25544 l 0.0249,-0.13298 1.48597,-0.0257 c 1.50998,-0.0261 3.03506,-0.0811 3.44554,-0.12446 l 0.22648,-0.0239 v -0.21299 c 0,-0.11714 -0.0133,-0.21307 -0.0296,-0.21316 -0.14596,-0.001 -1.99503,-0.16002 -2.00781,-0.1728 -0.026,-0.026 -0.0167,-0.61286 0.0104,-0.65672 0.0154,-0.0249 0.71575,-0.0378 1.93772,-0.0357 l 1.91365,0.003 0.0522,-0.14988 c 0.0287,-0.0824 0.0525,-0.31384 0.0528,-0.51422 l 5.6e-4,-0.36435 h 0.11816 0.11817 v 0.37419 c 0,0.2058 0.0143,0.37419 0.0319,0.37419 0.0176,0 0.0663,-0.026 0.10832,-0.0578 0.0844,-0.0639 0.63138,-0.0856 0.65415,-0.0259 0.0215,0.0565 0.41686,0.24135 0.51599,0.24135 0.0506,0 0.11043,-0.0185 0.13306,-0.0412 0.0251,-0.0251 0.3315,-0.0443 0.7858,-0.0493 0.67484,-0.007 0.74974,-0.0149 0.79916,-0.0814 0.0455,-0.0611 0.0865,-0.0691 0.24666,-0.0478 0.28405,0.0377 0.30933,0.0543 0.30933,0.20411 0,0.1163 -0.0128,0.13364 -0.0985,0.13364 -0.0542,0 -0.0985,0.0177 -0.0985,0.0394 0,0.0217 0.0501,0.0394 0.11129,0.0394 0.12862,0 0.28259,0.1428 0.28259,0.26208 0,0.0964 0.14713,0.17119 0.33665,0.17119 0.12486,0 0.136,-0.01 0.136,-0.11817 0,-0.065 0.0177,-0.11816 0.0394,-0.11816 0.0456,0 0.0539,-0.10516 0.01,-0.12473 -0.0358,-0.0159 -0.16739,-0.261 -0.16739,-0.31173 0,-0.0199 0.0531,-0.0362 0.11816,-0.0362 h 0.11816 v -0.41358 c 0,-0.24945 0.0156,-0.41357 0.0394,-0.41357 0.0237,0 0.0394,0.16412 0.0394,0.41357 v 0.41358 h 0.11816 c 0.065,0 0.11817,0.0163 0.11817,0.0362 0,0.0507 -0.13162,0.29582 -0.16741,0.31173 -0.044,0.0196 -0.0357,0.12473 0.01,0.12473 0.0217,0 0.0394,0.0532 0.0394,0.11816 0,0.0932 0.0172,0.11817 0.0814,0.11817 0.12573,0 0.23374,0.0734 0.23374,0.15894 0,0.0745 0.0312,0.0774 0.82715,0.0774 h 0.82715 v 0.82716 0.82715 h -0.81768 c -0.77501,0 -0.82024,0.004 -0.86687,0.0788 -0.0398,0.0638 -0.0919,0.0788 -0.27337,0.0788 -0.17436,0 -0.21368,0.0105 -0.17692,0.0473 0.026,0.026 0.0473,0.11915 0.0473,0.20702 0,0.14177 0.0142,0.16602 0.12578,0.21543 0.0846,0.0375 0.1304,0.0419 0.13985,0.0135 0.009,-0.0277 0.12135,-0.0349 0.32718,-0.0208 l 0.31311,0.0214 v -0.16318 c 0,-0.0897 0.0133,-0.16257 0.0296,-0.16182 0.0162,5.6e-4 0.19792,0.0419 0.40373,0.0914 0.27688,0.0666 0.37037,0.10468 0.35953,0.14635 -0.008,0.031 -0.0225,0.0838 -0.0321,0.1174 -0.0146,0.0513 0.0787,0.0721 0.57989,0.12955 0.40084,0.0459 0.61291,0.0555 0.64469,0.0292 0.0448,-0.0372 0.26296,-0.0235 0.93703,0.0586 0.13236,0.0161 0.23273,0.0494 0.24495,0.0812 0.0302,0.0787 0.0928,0.0659 0.12163,-0.0248 0.0197,-0.0623 0.0596,-0.0788 0.19001,-0.0788 0.0907,0 0.22692,0.0198 0.3026,0.0441 0.0757,0.0243 0.23046,0.041 0.34394,0.0372 0.16994,-0.006 0.22277,0.009 0.29944,0.0861 0.0512,0.0512 0.10015,0.11259 0.10876,0.13641 0.009,0.0238 0.11611,0.0557 0.23887,0.0708 0.21129,0.0261 0.2239,0.0227 0.23633,-0.0615 0.0131,-0.0889 0.0132,-0.0889 0.14598,0.0231 0.12339,0.10413 0.13641,0.10724 0.1829,0.0437 0.0487,-0.0666 0.0965,-0.0666 0.344,5.6e-4 0.0379,0.0103 0.0689,0.042 0.0689,0.0705 0,0.0285 0.0503,0.1026 0.11185,0.16474 0.0686,0.0693 0.16225,0.255 0.24212,0.48 0.10863,0.30602 0.12382,0.38804 0.0914,0.49361 -0.0214,0.0696 -0.0252,0.1615 -0.009,0.20413 0.0429,0.10967 0.0426,0.32468 -4.5e-4,0.35127 -0.0199,0.0123 -0.063,-0.005 -0.0957,-0.0371 -0.0327,-0.0327 -0.0961,-0.0594 -0.14102,-0.0594 -0.078,0 -0.0816,0.0208 -0.0816,0.47266 v 0.47265 h -0.17403 c -0.0957,0 -0.20308,0.0112 -0.23859,0.0248 -0.0545,0.0209 -0.0504,0.0318 0.0263,0.0699 0.0748,0.0371 0.093,0.0817 0.10282,0.25138 0.009,0.15367 -0.003,0.21197 -0.0463,0.2286 -0.0404,0.0155 -0.0525,0.0605 -0.0396,0.14727 0.0226,0.15212 -0.10677,0.38096 -0.21545,0.38096 -0.0556,0 -0.0697,0.0222 -0.0568,0.0896 0.0141,0.0738 -0.0116,0.10227 -0.14497,0.16113 -0.0892,0.0393 -0.18795,0.0616 -0.21953,0.0495 -0.0335,-0.0129 -0.0574,0.001 -0.0574,0.0331 0,0.0913 -0.22712,0.22893 -0.33371,0.20218 -0.0758,-0.019 -0.0965,-0.007 -0.10666,0.0631 -0.0182,0.12521 -0.25458,0.25626 -0.35223,0.19527 -0.0628,-0.0392 -0.0739,-0.0346 -0.0739,0.0302 0,0.0723 -0.14688,0.20451 -0.27572,0.2481 -0.0325,0.011 -0.0928,0.003 -0.13398,-0.0187 -0.0611,-0.0315 -0.0704,-0.0269 -0.0504,0.0252 0.0173,0.045 -0.0208,0.0938 -0.1285,0.16512 -0.0841,0.0557 -0.17668,0.10502 -0.20562,0.10962 -0.0289,0.005 -0.13062,0.0653 -0.22595,0.13487 -0.20377,0.14875 -0.27074,0.15745 -0.3139,0.0408 l -0.0317,-0.0857 -0.0224,0.0857 c -0.0203,0.0776 -0.0482,0.0857 -0.29394,0.0857 -0.15867,0 -0.29118,-0.0196 -0.3188,-0.0473 -0.0341,-0.0341 -0.0473,-0.0348 -0.0473,-0.002 0,0.0602 -3.02904,0.062 -3.10182,0.002 -0.0344,-0.0284 -0.0493,-0.0274 -0.0493,0.003 0,0.0278 -0.0878,0.0442 -0.23632,0.0442 -0.14849,0 -0.23633,-0.0164 -0.23633,-0.0442 0,-0.0315 -0.0146,-0.0322 -0.0504,-0.002 -0.0666,0.0553 -0.93538,0.0553 -1.00202,0 -0.035,-0.0291 -0.0504,-0.0292 -0.0504,-4.5e-4 0,0.0276 -0.25075,0.0415 -0.74837,0.0415 -0.49762,0 -0.74838,-0.0139 -0.74838,-0.0415 0,-0.0288 -0.0155,-0.0287 -0.0505,4.5e-4 -0.0739,0.0613 -3.10055,0.0585 -3.10055,-0.003 0,-0.0327 -0.013,-0.0321 -0.0473,0.002 -0.0649,0.0649 -0.50397,0.0632 -0.50477,-0.002 -4.4e-4,-0.038 -0.008,-0.0384 -0.0308,-0.002 -0.0207,0.0324 -0.16725,0.0476 -0.4609,0.0476 -0.29365,0 -0.44027,-0.0151 -0.4609,-0.0476 -0.0233,-0.0367 -0.0304,-0.0363 -0.0309,0.002 -5.6e-4,0.0622 -0.3603,0.0677 -0.42155,0.006 -0.0309,-0.0309 -0.0502,-0.0309 -0.0693,0 -0.0358,0.0579 -0.34884,0.0546 -0.40781,-0.005 -0.0368,-0.0368 -0.0473,-0.0368 -0.0473,0 0,0.076 -0.3819,0.0617 -0.42531,-0.0159 z m 4.32443,-0.33824 c 1.6e-4,-0.0366 -0.0177,-0.0777 -0.0397,-0.0913 -0.17252,-0.10663 -0.25347,-0.6336 -0.1393,-0.90684 l 0.0571,-0.1366 h -0.31411 -0.3141 l 0.0601,0.11621 c 0.0363,0.0703 0.0601,0.22064 0.0601,0.38058 0,0.21086 -0.0199,0.29834 -0.0984,0.43223 -0.1155,0.19708 -0.096,0.29202 0.0602,0.29202 0.0934,0 0.1184,-0.0233 0.15851,-0.14771 0.066,-0.20467 0.0762,-0.21681 0.13881,-0.16485 0.0303,0.0252 0.0454,0.0615 0.0336,0.0807 -0.0118,0.0192 -0.002,0.0349 0.0229,0.0349 0.0244,0 0.0386,0.0399 0.0315,0.0886 -0.0181,0.12407 0.0718,0.18628 0.1899,0.13154 0.0509,-0.0236 0.0928,-0.0729 0.0929,-0.10952 z m 7.32651,3e-4 c 0,-0.0368 -0.018,-0.0781 -0.0399,-0.0917 -0.065,-0.0402 -0.19639,-0.32375 -0.19639,-0.42383 0,-0.0509 -0.0222,-0.1228 -0.0493,-0.15982 -0.0595,-0.0813 -0.3809,-0.12653 -0.63207,-0.0889 -0.17525,0.0263 -0.17707,0.0281 -0.20447,0.2109 -0.0152,0.10141 -0.0614,0.25057 -0.10268,0.33145 -0.11117,0.21792 -0.10007,0.30775 0.038,0.30775 0.10037,0 0.11861,-0.0199 0.16267,-0.17725 0.0533,-0.1902 0.0807,-0.21078 0.15755,-0.11816 0.027,0.0325 0.0345,0.0591 0.0167,0.0591 -0.0178,0 -0.0111,0.0213 0.0149,0.0473 0.026,0.026 0.0473,0.0792 0.0473,0.11816 0,0.054 0.0311,0.0709 0.1303,0.0709 0.12078,0 0.133,-0.012 0.1674,-0.16473 0.0204,-0.0906 0.0562,-0.17081 0.0796,-0.17826 0.0462,-0.0147 0.1348,0.15086 0.1348,0.25188 0,0.0345 0.0301,0.0848 0.067,0.11171 0.0824,0.0602 0.20873,-0.005 0.20873,-0.10653 z m -9.41377,0.0397 c 0,-0.0204 -0.0557,-0.10644 -0.12383,-0.1912 -0.0912,-0.11349 -0.12893,-0.20709 -0.14316,-0.35517 -0.0226,-0.23519 -0.0819,-0.27388 -0.41994,-0.27388 -0.42062,0 -0.43469,0.009 -0.48821,0.32844 -0.0261,0.15514 -0.0395,0.31753 -0.0299,0.36086 0.01,0.0433 0.0187,0.0921 0.0204,0.10832 0.002,0.0162 0.0562,0.0296 0.12118,0.0296 0.065,0 0.11479,-0.0133 0.11066,-0.0296 -0.004,-0.0163 0.006,-0.0881 0.0233,-0.15975 0.0441,-0.18634 0.15094,-0.15332 0.19855,0.0614 0.0324,0.14625 0.0505,0.16731 0.14323,0.16731 0.0956,0 0.10877,-0.0176 0.13271,-0.17724 0.0146,-0.0975 0.0388,-0.17697 0.0537,-0.17665 0.0647,0.002 0.13342,0.073 0.10863,0.11316 -0.0149,0.0241 -0.008,0.0438 0.0147,0.0438 0.023,0 0.0417,0.0428 0.0417,0.0952 0,0.0523 0.0222,0.10264 0.0493,0.11175 0.0694,0.0234 0.18709,-0.012 0.18709,-0.0563 z m 4.11783,0.0555 c 0.0226,-0.0159 0.0581,-0.0998 0.0788,-0.1865 0.0506,-0.21182 0.14452,-0.20837 0.19232,0.007 0.038,0.17105 0.10888,0.2208 0.25888,0.18158 0.10554,-0.0276 0.0993,-0.11353 -0.0185,-0.25348 -0.0559,-0.0664 -0.11772,-0.21468 -0.1454,-0.34869 l -0.0481,-0.2331 -0.18253,-0.0391 c -0.10039,-0.0216 -0.21663,-0.0321 -0.25832,-0.0235 -0.0417,0.009 -0.14004,0.0258 -0.21855,0.0384 -0.13661,0.0217 -0.14383,0.0309 -0.16798,0.21292 -0.0151,0.11367 -0.0747,0.2649 -0.14819,0.37584 -0.13577,0.20497 -0.11744,0.27432 0.0668,0.25264 0.0905,-0.0107 0.11751,-0.0406 0.15376,-0.17049 0.0258,-0.0923 0.0679,-0.15755 0.10178,-0.15755 0.0349,0 0.0727,0.0624 0.0955,0.15755 0.0371,0.15507 0.0817,0.21544 0.15932,0.21544 0.0217,0 0.0579,-0.013 0.0805,-0.0289 z m 2.16253,-0.1865 c 0.0252,-0.0903 0.0681,-0.15755 0.10052,-0.15755 0.0324,0 0.0753,0.0673 0.10053,0.15755 0.04,0.14337 0.057,0.15866 0.18836,0.16978 0.15791,0.0134 0.19641,-0.0579 0.0824,-0.15247 -0.20132,-0.16709 -0.28117,-0.62655 -0.1595,-0.91777 l 0.0599,-0.14332 h -0.2717 -0.27169 l 0.0531,0.12801 c 0.1148,0.27647 0.0924,0.60146 -0.0565,0.82122 -0.15339,0.22637 -0.15221,0.28009 0.006,0.26445 0.10823,-0.0107 0.1305,-0.0331 0.16866,-0.1699 z m 4.5635,0.0368 c 0.0345,-0.0133 0.0499,-0.053 0.038,-0.0985 -0.027,-0.10331 -0.0679,-0.0958 -0.12174,0.0222 -0.045,0.0988 -0.0243,0.11767 0.0837,0.0762 z m 0.46987,-0.23216 c 0.0274,-0.0489 0.0263,-0.11602 -0.003,-0.21278 -0.0598,-0.19492 -0.003,-0.22841 0.14856,-0.0871 0.13578,0.12684 0.12079,0.12773 0.35058,-0.0209 0.007,-0.005 -0.006,-0.0758 -0.0288,-0.15844 -0.0556,-0.20134 -0.002,-0.23942 0.14391,-0.10283 0.11858,0.11077 0.23873,0.1172 0.30119,0.0161 0.0627,-0.10147 -0.0281,-0.26471 -0.19353,-0.348 l -0.1692,-0.0852 -0.0893,0.095 c -0.0842,0.0896 -0.11472,0.095 -0.53638,0.095 h -0.4471 l 0.0616,0.11911 c 0.0338,0.0655 0.0628,0.21993 0.0643,0.34316 0.002,0.18884 0.0191,0.23977 0.10682,0.32405 0.12066,0.11585 0.23368,0.1247 0.29073,0.0227 z m -14.22845,-0.40552 c 0,-0.0934 0.0257,-0.23123 0.0571,-0.30635 0.0552,-0.13206 0.0542,-0.1366 -0.0306,-0.1366 -0.0482,0 -0.12927,0.0291 -0.18009,0.0647 -0.086,0.0602 -0.10044,0.0599 -0.20843,-0.004 -0.0638,-0.0377 -0.11978,-0.0624 -0.12433,-0.0549 -0.005,0.008 -0.0402,0.0838 -0.0793,0.16942 -0.0659,0.14462 -0.0663,0.15916 -0.006,0.20353 0.0535,0.0392 0.0909,0.0304 0.20706,-0.0484 0.0976,-0.0662 0.15033,-0.0822 0.16936,-0.0514 0.032,0.0517 0.004,0.19064 -0.0526,0.26321 -0.0272,0.0348 -0.0185,0.0728 0.0286,0.12485 0.0631,0.0698 0.0729,0.0705 0.1433,0.0102 0.0527,-0.0452 0.0755,-0.11585 0.0755,-0.23443 z m 15.47954,-0.34215 c 0,-0.01 -0.0177,-0.0283 -0.0394,-0.0417 -0.0217,-0.0134 -0.0394,-0.006 -0.0394,0.0174 0,0.023 0.0177,0.0417 0.0394,0.0417 0.0217,0 0.0394,-0.008 0.0394,-0.0174 z m -15.87342,-2.73972 c 0,-0.0217 -0.0177,-0.0394 -0.0394,-0.0394 -0.0217,0 -0.0394,0.0177 -0.0394,0.0394 0,0.0217 0.0177,0.0394 0.0394,0.0394 0.0217,0 0.0394,-0.0177 0.0394,-0.0394 z m 1.28659,-1.04111 c -0.0377,-0.0982 -0.14881,-0.12341 -0.20498,-0.0466 -0.0368,0.0503 -0.0386,0.0956 -0.007,0.1789 l 0.0421,0.11153 0.0972,-0.0901 c 0.0606,-0.0562 0.088,-0.11409 0.0728,-0.15369 z m 14.50805,-0.23762 c 0,-0.01 -0.033,-0.036 -0.0733,-0.0576 -0.0527,-0.0282 -0.0942,-0.0235 -0.1477,0.017 -0.0688,0.0521 -0.0632,0.0564 0.0733,0.0576 0.0812,5.6e-4 0.14771,-0.007 0.14771,-0.017 z m -8.46845,-3.42229 c 0,-0.0465 -0.50398,-0.30128 -0.59591,-0.30128 -0.0188,0 -0.0343,0.0599 -0.0343,0.13316 v 0.13316 l 0.30526,0.0385 c 0.16789,0.0212 0.30969,0.041 0.3151,0.0441 0.006,0.003 0.01,-0.0184 0.01,-0.0477 z m -0.88945,-0.0495 c 0.0369,-0.0142 0.0623,-0.0703 0.0623,-0.13786 0,-0.0933 -0.0168,-0.11395 -0.0924,-0.11395 -0.11258,0 -0.24093,0.1321 -0.20905,0.21517 0.0239,0.0624 0.12972,0.0786 0.23912,0.0366 z m 2.85886,-0.0155 c 0,-0.0217 -0.0266,-0.0394 -0.0591,-0.0394 -0.0325,0 -0.0591,0.0177 -0.0591,0.0394 0,0.0217 0.0266,0.0394 0.0591,0.0394 0.0325,0 0.0591,-0.0177 0.0591,-0.0394 z m 1.18165,-0.0591 c 0,-0.0325 -0.0261,-0.0591 -0.0579,-0.0591 -0.0353,0 -0.049,0.0231 -0.0352,0.0591 0.0125,0.0325 0.0385,0.0591 0.0578,0.0591 0.0193,0 0.0352,-0.0266 0.0352,-0.0591 z m 0.17179,0 c 0.0138,-0.036 8e-5,-0.0591 -0.0352,-0.0591 -0.0318,0 -0.0578,0.0266 -0.0578,0.0591 0,0.0325 0.0159,0.0591 0.0352,0.0591 0.0194,0 0.0453,-0.0266 0.0578,-0.0591 z"
       id="B-Sherman-Tulip" />
  </g>
</svg>
