<?xml version="1.0" encoding="UTF-8" standalone="no"?>
<!-- Created with Inkscape (http://www.inkscape.org/) -->

<svg
   width="24.3626mm"
   height="6.426537mm"
   viewBox="0 0 24.3626 6.426537"
   version="1.1"
   id="svg79628"
   sodipodi:docname="inkporter-svg-0xl01yk3.svg"
   xmlns:inkscape="http://www.inkscape.org/namespaces/inkscape"
   xmlns:sodipodi="http://sodipodi.sourceforge.net/DTD/sodipodi-0.dtd"
   xmlns="http://www.w3.org/2000/svg"
   xmlns:svg="http://www.w3.org/2000/svg">
  <sodipodi:namedview
     id="namedview79630"
     pagecolor="#ffffff"
     bordercolor="#666666"
     borderopacity="1.0"
     inkscape:pageshadow="2"
     inkscape:pageopacity="0.0"
     inkscape:pagecheckerboard="0"
     inkscape:document-units="mm"
     showgrid="false"
     inkscape:zoom="0.64052329"
     inkscape:cx="135.04583"
     inkscape:cy="561.25984"
     inkscape:window-width="1920"
     inkscape:window-height="1017"
     inkscape:window-x="-8"
     inkscape:window-y="-8"
     inkscape:window-maximized="1"
     inkscape:current-layer="layer1" />
  <defs
     id="defs79625" />
  <g
     inkscape:label="Layer 1"
     inkscape:groupmode="layer"
     id="layer1"
     transform="translate(-109.26237,-113.68659)">
    <path
       d="m 114.49033,119.88367 0.34477,-0.22833 2.01506,-7.6e-4 c 1.83966,-7.7e-4 8.6587,-0.34529 10.45406,-0.52829 0.41084,-0.0419 1.7759,-0.0722 3.03346,-0.0673 l 2.28647,0.009 0.32105,-0.16602 c 0.17657,-0.0913 0.40176,-0.28127 0.50041,-0.4221 l 0.17936,-0.25603 -0.002,-1.55461 -0.002,-1.55462 -0.22064,-0.48605 -0.22063,-0.48605 -0.38019,-0.23179 c -0.44784,-0.27305 -1.01126,-0.29849 -1.4609,-0.066 -0.44223,0.22868 -1.39193,1.28924 -1.73706,1.93982 l -0.28474,0.53672 -0.51735,-0.005 c -0.91905,-0.008 -4.83344,-0.30863 -4.90166,-0.37685 -0.0364,-0.0364 -0.002,-0.33027 0.0747,-0.65312 0.0775,-0.32287 0.11648,-0.61137 0.0867,-0.64114 -0.0298,-0.0298 -0.12092,0.26073 -0.20258,0.64552 l -0.14847,0.69964 -1.33311,-0.0789 -1.33309,-0.0789 -0.73475,-0.35049 -0.73475,-0.35049 -0.87418,-0.0487 -0.87416,-0.0487 -0.47276,0.34535 -0.47275,0.34534 -2.80254,0.0455 -2.80255,0.0455 -0.6626,0.26136 c -0.71641,0.28257 -1.34854,0.74687 -1.34854,0.99049 0,0.23462 0.62091,0.70255 1.23088,0.92762 0.30273,0.1117 0.64092,0.27992 0.75154,0.37382 l 0.20111,0.17072 v 0.60775 0.60775 l 0.25542,0.1789 0.25541,0.1789 1.09493,-7.7e-4 1.09493,-7.6e-4 z"
       id="B-Typhoon" />
  </g>
</svg>
