<?xml version="1.0" encoding="UTF-8" standalone="no"?>
<!-- Created with Inkscape (http://www.inkscape.org/) -->

<svg
   width="12.95329mm"
   height="8.92206mm"
   viewBox="0 0 12.95329 8.92206"
   version="1.1"
   id="svg71253"
   sodipodi:docname="inkporter-svg-ggcrfhff.svg"
   xmlns:inkscape="http://www.inkscape.org/namespaces/inkscape"
   xmlns:sodipodi="http://sodipodi.sourceforge.net/DTD/sodipodi-0.dtd"
   xmlns="http://www.w3.org/2000/svg"
   xmlns:svg="http://www.w3.org/2000/svg">
  <sodipodi:namedview
     id="namedview71255"
     pagecolor="#ffffff"
     bordercolor="#666666"
     borderopacity="1.0"
     inkscape:pageshadow="2"
     inkscape:pageopacity="0.0"
     inkscape:pagecheckerboard="0"
     inkscape:document-units="mm"
     showgrid="false"
     inkscape:zoom="0.64052329"
     inkscape:cx="397.33138"
     inkscape:cy="561.25984"
     inkscape:window-width="2400"
     inkscape:window-height="1271"
     inkscape:window-x="-9"
     inkscape:window-y="-9"
     inkscape:window-maximized="1"
     inkscape:current-layer="layer1" />
  <defs
     id="defs71250" />
  <g
     inkscape:label="Layer 1"
     inkscape:groupmode="layer"
     id="layer1"
     transform="translate(-20.24432,-253.25113)">
    <path
       d="m 33.19761,259.62864 -0.48094,-0.42443 v -0.19844 h -0.19706 l -0.113,-1.83693 -1.49792,0.0276 -0.40239,-0.0482 -0.0455,-0.005 -3.3128,-0.39825 -0.79237,0.0565 -0.011,0.11024 h -0.51125 l 0.003,-10e-4 v -1.93752 l 0.0303,-0.0303 c 0,0 0.32109,0.35002 0.31144,0.35967 -0.008,0.008 -0.04,0.0634 -0.0427,0.0992 -0.003,0.0358 0.0978,0.10611 0.0978,0.12402 0,0.0179 -0.14331,0.16261 -0.14331,0.16261 l 0.11989,0.13918 0.15847,-0.2384 c 0,0 0.0923,-0.0124 0.10198,-0.005 0.008,0.005 0.11575,0.11713 0.21359,0.2384 0.0978,0.11989 0.14332,0.25356 0.13505,0.25907 -0.01,0.005 -0.11989,-0.0303 -0.13229,-0.0331 -0.0124,-0.003 -0.04,-0.01 -0.0854,-0.0538 -0.0455,-0.0455 -0.13091,-0.0799 -0.13091,-0.0799 l -0.04,-0.0413 -0.0592,0.0717 0.0524,0.0276 c 0,0 0.0799,0.0661 0.12265,0.0965 0.0427,0.0303 0.10473,0.0482 0.10473,0.0482 0,0 0.0234,0.0427 0.0358,0.0551 0.0124,0.0124 0.0441,-0.0303 0.0675,-0.01 0.0248,0.0221 0.12816,0.073 0.1378,0.0758 0.01,0.003 0.0345,0.0606 0.0469,0.12402 0.011,0.0634 0.073,0.11714 0.073,0.11714 l 0.27836,-0.26872 c 0,0 -0.13505,-0.16812 -0.17501,-0.21359 -0.04,-0.0455 -0.15297,-0.12678 -0.16123,-0.13092 -0.01,-0.003 -0.20809,-0.24942 -0.20809,-0.24942 0,0 -0.0193,-0.0427 -0.0193,-0.0675 0,-0.0234 0.0372,-0.0689 0.0372,-0.0689 l -0.31832,-0.30179 0.0152,-0.0455 -0.0345,-0.091 c 0,0 0.11438,-0.10749 0.17777,-0.24943 0.0648,-0.14332 0.0372,-0.3955 0.0372,-0.3955 l -0.30868,0.011 c 0,0 0.003,0.11851 -0.0165,0.23564 -0.0179,0.11852 -0.12816,0.21085 -0.12816,0.21085 l -0.073,-0.0689 -0.0524,-0.003 c 0,0 0.0276,-0.0303 0.0372,-0.0276 0.008,0.004 -0.23289,-0.2012 -0.23289,-0.2012 l -0.0303,0.008 -0.12953,-0.14194 c 0,0 0.0275,-0.0455 0.0372,-0.0538 0.01,-0.01 0.073,-0.004 0.073,-0.004 l 0.004,0.0482 0.0661,0.004 c 0,0 0.0468,0.0413 0.0675,0.0661 0.0221,0.0234 0.1502,0.073 0.1502,0.073 l 0.04,0.0386 0.0276,-0.0661 -0.0496,-0.01 c 0,0 -0.0978,-0.11162 -0.12816,-0.12678 -0.0303,-0.0152 -0.0882,-0.0179 -0.0923,-0.0276 -0.003,-0.008 -0.0303,-0.0413 -0.0482,-0.0358 -0.0179,0.007 -0.26872,-0.0124 -0.26872,-0.0124 l -0.69866,-0.72347 0.0496,-0.073 -0.0221,-0.0276 -0.0703,0.0551 -0.12816,-0.12402 -0.12953,-0.1695 -0.0758,0.0703 0.15848,0.13505 0.40376,0.41617 0.0193,0.0372 c 0,0 -0.0276,0.0152 -0.04,0.0207 -0.0124,0.007 -0.0248,0.0358 -0.0221,0.0606 0.003,0.0234 0.0427,0.0606 0.0427,0.0606 0,0 0.01,0.0386 0.0248,0.0661 0.0152,0.0276 0.0854,0.0358 0.0854,0.0358 l 0.10473,0.0992 0.003,0.0524 0.0524,0.0661 c 0,0 -0.01,0.0606 -0.003,0.073 0.006,0.011 0.0579,-0.01 0.0579,-0.01 l 0.4134,0.45613 -0.0827,0.0937 h -0.0744 v 0.051 h 0.0896 v 1.87413 l -0.52365,-0.004 v 0.0937 l -0.16675,-0.14608 -0.18328,-0.0124 -0.0937,0.0827 -0.11713,-0.011 -0.20533,-0.23564 -0.13092,-0.19155 -0.0138,-0.17088 0.19017,-0.0551 -0.16261,-0.0427 -10e-4,-0.0675 -0.0193,-0.0689 -0.0345,-0.0951 -0.0606,-0.0799 -0.0841,-0.0606 -0.113,-0.0358 -0.0896,-0.007 -0.11989,0.0124 -0.0799,0.04 -0.11437,0.11162 -0.0413,0.0703 c -0.003,0.003 0.005,-0.005 -0.0358,0.0937 l -0.0469,0.0992 -0.11299,0.0331 0.23289,0.0469 -0.0372,0.14745 0.0675,0.0786 0.0909,0.15434 0.0772,0.0551 -0.0413,0.0675 -0.062,0.13091 -0.0331,0.11852 -0.0207,0.10059 0.0289,0.14194 0.0234,0.0606 h -0.15572 l -0.0799,0.0248 -0.11162,-0.0648 -0.0689,-0.0441 -0.10887,-0.0331 -0.16674,-0.0606 -0.17363,-0.0193 -0.0703,0.0193 -0.0303,0.0854 -1.05282,-0.38723 -0.2825,0.73587 h 0.36793 v 0.23564 l -0.0193,0.0207 h -1.27331 v 0.004 c -0.051,-0.007 -0.23977,-0.022 -0.23977,-0.022 0,0.003 0.01,0.0937 0.01,0.0937 l 0.23013,-0.0124 h 0.58705 c 0.008,0.0152 0.0234,0.0358 0.0248,0.0579 0.003,0.0386 0.007,0.0413 0.0193,0.0661 0.008,0.0165 0.0538,0.008 0.0868,0.005 v 0.0124 h 0.40928 v 0.0441 h 0.16536 v 0.003 h -0.34037 v 0.81993 l -0.678,0.0854 -0.19706,0.14194 -0.14194,0.25356 0.14194,0.226 0.14056,0.113 -0.0854,0.14193 -0.0276,0.3955 0.19706,0.36794 0.38723,0.19292 -0.0303,0.0827 3.04409,1.13826 5.89387,0.0854 2.11391,-0.85714 -0.0317,-0.0799 0.10197,-0.0248 0.25494,-0.1695 0.1695,-0.31144 0.0841,-0.36793 v -0.42306 l 0.19844,-0.19844 z m -8.04637,1.55856 c -0.0124,0.0551 -0.0303,0.10886 -0.0537,0.15985 l -0.18742,-0.17501 0.14608,0.011 z m 2.26825,0.0524 c -0.0138,0.0524 -0.0317,0.10059 -0.11713,0.16261 l -0.32797,-0.17088 z m -0.21911,0.3638 c -0.10886,0.10059 -0.24804,0.16812 -0.40101,0.19017 l -0.0317,-0.41617 z m -0.62838,0.18741 c -0.16123,-0.0262 -0.3073,-0.10473 -0.41617,-0.21773 l 0.3831,-0.20671 z m -1.66743,0.0841 c 0.24667,-0.14331 0.42582,-0.38998 0.4768,-0.68075 l 0.35003,0.011 0.23013,0.007 0.37345,0.007 -0.31144,0.16949 c -0.0276,-0.0551 -0.0482,-0.11437 -0.0923,-0.17638 l -0.19981,-0.007 c 0.0455,0.29214 0.22186,0.54157 0.46577,0.68626 z m -0.38309,-0.73174 0.0276,0.003 0.4203,0.39136 c -0.11024,0.11851 -0.25907,0.20257 -0.42581,0.23013 z m -0.65595,0.38861 0.43133,-0.33211 0.0193,0.57051 c -0.17776,-0.0234 -0.33486,-0.11024 -0.45061,-0.2384 m -0.19293,-0.452 0.37207,0.0276 -0.30454,0.23565 c -0.0386,-0.0813 -0.062,-0.1695 -0.0675,-0.26321 m -0.22738,-0.0165 c 0.007,0.22462 0.091,0.42994 0.226,0.59117 l -1.92236,-0.71933 z m -1.6688,-3.11437 v 0.0372 h -0.28939 c 0.007,-0.0124 0.0179,-0.0317 0.0276,-0.0455 h 0.24254 c 0.006,0.003 0.0124,0.006 0.0193,0.008 m 6.13365,3.3004 -0.27836,0.0703 0.0179,-0.0758 z m 0.87368,0.0124 c 0.0441,0.28387 0.21222,0.52641 0.44648,0.67248 l -2.0643,-0.0289 c 0.14056,-0.0772 0.25907,-0.18879 0.34589,-0.32246 z m 0.46164,0.0124 -0.14607,0.21498 c -0.0386,-0.0675 -0.0675,-0.14056 -0.0841,-0.21911 z m 0.3762,0.57326 c -0.14055,-0.0248 -0.27147,-0.0854 -0.37344,-0.17638 l 0.31419,-0.38999 z m 0.28388,-0.49195 0.40377,0.26182 c -0.113,0.12127 -0.26734,0.20395 -0.43822,0.23013 z m 0.57189,-0.062 c -0.011,0.0469 -0.0248,0.0923 -0.0441,0.13505 l -0.20946,-0.13505 z m 1.1231,0.0207 -1.14377,0.46302 c 0.12815,-0.13505 0.21773,-0.30593 0.2508,-0.4961 l 0.70969,-0.04 z m 0,0"
       id="B-Universal" />
  </g>
</svg>
