<?xml version="1.0" encoding="UTF-8" standalone="no"?>
<!-- Created with Inkscape (http://www.inkscape.org/) -->

<svg
   width="13.61045mm"
   height="6.37187mm"
   viewBox="0 0 13.61045 6.37187"
   version="1.1"
   id="svg26913"
   sodipodi:docname="inkporter-svg-b_z1d2r4.svg"
   xmlns:inkscape="http://www.inkscape.org/namespaces/inkscape"
   xmlns:sodipodi="http://sodipodi.sourceforge.net/DTD/sodipodi-0.dtd"
   xmlns="http://www.w3.org/2000/svg"
   xmlns:svg="http://www.w3.org/2000/svg">
  <sodipodi:namedview
     id="namedview26915"
     pagecolor="#ffffff"
     bordercolor="#666666"
     borderopacity="1.0"
     inkscape:pageshadow="2"
     inkscape:pageopacity="0.0"
     inkscape:pagecheckerboard="0"
     inkscape:document-units="mm"
     showgrid="false"
     inkscape:zoom="1.2810466"
     inkscape:cx="-27.321411"
     inkscape:cy="1218.9252"
     inkscape:window-width="1920"
     inkscape:window-height="1017"
     inkscape:window-x="-8"
     inkscape:window-y="-8"
     inkscape:window-maximized="1"
     inkscape:current-layer="layer1" />
  <defs
     id="defs26910" />
  <g
     inkscape:label="Layer 1"
     inkscape:groupmode="layer"
     id="layer1"
     transform="translate(16.51246,-307.65203)">
    <path
       id="B-Wasp"
       d="m -12.81868,307.65203 -0.11991,0.0124 -0.0801,0.0403 -0.11419,0.11163 -0.0413,0.0703 c -0.003,0.003 0.005,-0.005 -0.0357,0.0936 l -0.047,0.0992 -0.11316,0.0331 0.23305,0.047 -0.0372,0.14726 0.0677,0.0786 0.0909,0.15451 0.077,0.0548 -0.0413,0.0677 -0.062,0.13073 -0.0331,0.11885 -0.0206,0.10028 0.0289,0.14211 0.0233,0.0604 h -0.15553 l -0.0801,0.0249 -0.11163,-0.0646 -0.0687,-0.0439 -0.10904,-0.0331 -0.16639,-0.061 -0.17365,-0.019 -0.0703,0.019 -0.0305,0.0858 -1.05267,-0.38756 -0.28266,0.73586 h 0.36793 v 0.2191 h -1.53583 v 0.74879 h 1.19579 v 0.36021 l -0.678,0.0852 -0.19687,0.1421 -0.14211,0.25374 0.14211,0.22582 0.14057,0.11319 -0.0858,0.14158 -0.0274,0.39584 0.1969,0.36793 0.38757,0.19278 -0.0305,0.0827 3.04424,1.13842 5.8937,0.0853 2.1141,-0.85733 -0.032,-0.0796 0.10231,-0.0249 0.25477,-0.16949 0.16949,-0.31163 0.0842,-0.36793 v -0.42323 l 0.19844,-0.19843 0.22529,-0.11213 -0.48109,-0.42426 v -0.19844 h -0.1969 l -0.014,-0.22532 a 1.1411421,1.1411421 0 0 0 0.20463,0.0196 1.1411421,1.1411421 0 0 0 1.14101,-1.14152 1.1411421,1.1411421 0 0 0 -1.14101,-1.14101 1.1411421,1.1411421 0 0 0 -1.03662,0.66455 l -0.76533,0.014 -0.40206,-0.048 -0.0455,-0.005 -3.31298,-0.3979 -0.79221,0.0563 -0.0114,0.11006 h -0.51109 0.003 v -0.31316 l -0.0925,0.009 v 0.30232 l -0.52398,-0.004 v 0.0935 l -0.1664,-0.14573 -0.18346,-0.0124 -0.0935,0.0827 -0.11732,-0.0114 -0.20516,-0.23564 -0.13123,-0.19121 -0.0135,-0.17106 0.19015,-0.0553 -0.16277,-0.0424 v -0.0677 l -0.019,-0.0687 -0.0346,-0.0951 -0.0605,-0.0801 -0.0842,-0.0605 -0.11319,-0.0356 z m 3.08301,0.67283 h -0.0103 c 0.003,0 0.005,0.004 0.005,0.004 z m -5.26894,4.46072 1.69653,0.12814 c 0.007,0.22463 0.0908,0.42995 0.22585,0.59118 z m 1.92392,0.14467 0.37208,0.0279 -0.30491,0.23564 c -0.0386,-0.0813 -0.0617,-0.16984 -0.0672,-0.26356 z m 0.84854,0.0636 0.0279,0.003 0.42013,0.39119 c -0.11023,0.1185 -0.25908,0.2024 -0.42582,0.22997 z m 0.38859,0.029 0.14624,0.0109 0.0951,0.004 c -0.0124,0.0551 -0.0303,0.10869 -0.0537,0.15968 z m 0.47131,0.0217 0.35036,0.0114 0.22995,0.007 0.37362,0.007 -0.3116,0.16949 c -0.0276,-0.0551 -0.0484,-0.11419 -0.0925,-0.17621 l -0.19947,-0.007 c 0.0455,0.29212 0.22169,0.54155 0.46558,0.68625 l -1.29241,-0.0164 c 0.24668,-0.1433 0.42548,-0.39031 0.47647,-0.68109 z m -1.08419,0.006 0.019,0.57049 c -0.17777,-0.0233 -0.33488,-0.11007 -0.45064,-0.23823 z m 2.67735,0.0315 0.44495,0.008 c -0.0138,0.0524 -0.0314,0.10075 -0.11679,0.16277 z m 4.44315,0.01 0.18293,0.0729 -1.14361,0.46302 c 0.12816,-0.13504 0.21757,-0.30591 0.25064,-0.49609 z m -3.76772,0.003 0.26043,0.006 -0.27853,0.0703 z m 1.13429,0.018 c 0.0441,0.28387 0.21222,0.52625 0.44649,0.67233 l -2.06449,-0.029 c 0.14057,-0.0772 0.25889,-0.1888 0.34573,-0.32247 z m 0.23098,0.008 0.23048,0.004 -0.14623,0.21497 c -0.0386,-0.0675 -0.0676,-0.14054 -0.0842,-0.2191 z m 0.54727,0.0109 0.0594,0.56636 c -0.14054,-0.0249 -0.27167,-0.0852 -0.37362,-0.17621 z m 0.66146,0.0124 h 0.25373 c -0.0111,0.0469 -0.0246,0.0921 -0.0439,0.13489 z m -0.31832,0.062 0.40409,0.26199 c -0.113,0.12126 -0.26733,0.20378 -0.4382,0.22995 z m -3.36672,0.0114 0.0331,0.42426 c -0.16124,-0.0262 -0.30713,-0.10454 -0.416,-0.21755 z m 0.22892,0.0108 0.43254,0.22585 c -0.10888,0.10057 -0.24805,0.16812 -0.40103,0.19016 z" />
  </g>
</svg>
