<?xml version="1.0" encoding="UTF-8" standalone="no"?>
<!-- Created with Inkscape (http://www.inkscape.org/) -->

<svg
   width="8.3085728mm"
   height="6.0554419mm"
   viewBox="0 0 8.3085729 6.0554418"
   version="1.1"
   id="svg47190"
   inkscape:version="1.1.1 (3bf5ae0d25, 2021-09-20)"
   sodipodi:docname="Canadian.svg"
   xmlns:inkscape="http://www.inkscape.org/namespaces/inkscape"
   xmlns:sodipodi="http://sodipodi.sourceforge.net/DTD/sodipodi-0.dtd"
   xmlns="http://www.w3.org/2000/svg"
   xmlns:svg="http://www.w3.org/2000/svg">
  <sodipodi:namedview
     id="namedview47192"
     pagecolor="#ffffff"
     bordercolor="#666666"
     borderopacity="1.0"
     inkscape:pageshadow="2"
     inkscape:pageopacity="0.0"
     inkscape:pagecheckerboard="0"
     inkscape:document-units="mm"
     showgrid="false"
     inkscape:zoom="11.313709"
     inkscape:cx="23.643883"
     inkscape:cy="19.578019"
     inkscape:window-width="1920"
     inkscape:window-height="1017"
     inkscape:window-x="-8"
     inkscape:window-y="-8"
     inkscape:window-maximized="1"
     inkscape:current-layer="g4299"
     inkscape:snap-bbox="true"
     inkscape:snap-bbox-midpoints="true"
     inkscape:snap-page="true" />
  <defs
     id="defs47187">
    <clipPath
       clipPathUnits="userSpaceOnUse"
       id="clipPath63680-8">
      <path
         d="M 0,0 H 595.276 V 841.89 H 0 Z"
         id="path63678-4" />
    </clipPath>
  </defs>
  <g
     inkscape:label="Layer 1"
     inkscape:groupmode="layer"
     id="layer1"
     transform="translate(-86.473426,-77.834363)">
    <g
       inkscape:label="Capa 1"
       id="layer1-5"
       transform="matrix(0.01238547,0,0,0.01238547,86.37603,76.630162)">
      <g
         id="g4299"
         transform="translate(1.9492421e-6)">
        <g
           id="g30463"
           transform="matrix(0.26607408,0,0,0.26607408,344.20199,276.88549)">
          <rect
             style="fill:#df0a15;fill-opacity:1;stroke-width:18.2472;stroke-linejoin:round;paint-order:markers fill stroke;stop-color:#000000"
             id="rect28359"
             width="2521.2236"
             height="1837.5145"
             x="-1264.0775"
             y="-675.22003" />
          <path
             d="m -75.067158,847.35017 -13.800042,-22.32778 31.902706,-76.35156 31.902705,-76.35318 v -14.144 -14.14641 l -101.471321,11.55305 -101.47132,11.55306 -117.49332,-21.34356 -117.49333,-21.34356 -53.40613,-24.10728 -53.40612,-24.1097 -7.12125,-4.26306 -7.12125,-4.27114 42.39807,-42.39564 42.39564,-42.39807 46.44394,-14.73986 46.44394,-14.73985 -12.96277,-12.96035 -12.96035,-12.96277 44.48681,-23.80854 44.48519,-23.80854 -57.40921,-57.40921 -57.41162,-57.41163 h -20.73398 -20.73639 l 11.69757,-30.48169 11.69839,-30.48249 -31.48609,-26.13062 -31.48609,-26.12981 8.50675,-23.49689 8.50674,-23.49608 -17.90243,-34.906224 -17.90162,-34.906225 132.94045,6.305776 132.94046,6.305776 32.044,7.242357 32.04319,7.242358 6.79021,-59.1095865 6.79829,-59.1079715 19.90962,12.304741 19.90801,12.302319 v -42.237396 -42.238204 l 12.91998,-33.66929 12.91998,-33.66687 18.49748,11.43113 18.49748,11.43356 13.62322,-54.27973 13.624836,-54.27973 h 17.606922 17.606922 l 15.275965,-48.066 15.276772,-48.0652 21.471127,48.0652 21.471127,48.066 H 39.97329 55.755493 l 13.372928,53.27936 13.372928,53.2826 26.327621,-5.21579 26.32682,-5.21579 6.72562,69.83345 6.72563,69.833439 18.24073,-11.272887 18.23911,-11.275309 14.15691,64.4610185 14.15934,64.4618255 21.916,-13.546518 21.91519,-13.54329 136.13614,-5.805189 136.13614,-5.797116 -20.18333,37.711125 -20.18252,37.712741 13.36001,13.36001 13.35758,13.35839 -35.51904,39.2468 -35.51984,39.25083 12.97165,12.97165 12.97084,12.97085 -78.69221,69.09306 -78.69463,69.09386 45.07621,24.12505 45.07701,24.12262 -12.96277,12.96196 -12.96035,12.96116 46.44394,14.73985 46.44394,14.73985 40.61614,40.61614 40.61453,40.61695 v 10.68107 10.68106 h -32.044 -32.0432 v 16.54762 16.54519 L 332.75911,642.16861 177.88166,665.73978 100.52812,655.65054 23.17538,645.56049 9.4673819,718.63321 -4.2414239,791.70512 -32.751444,830.69597 -61.263887,869.68844 Z"
             style="fill:#f7d314;stroke-width:5.65212"
             id="path28162" />
        </g>
      </g>
    </g>
  </g>
</svg>
