<?xml version="1.0" encoding="UTF-8" standalone="no"?>
<!-- Created with Inkscape (http://www.inkscape.org/) -->

<svg
   width="6.0004864mm"
   height="5.2916665mm"
   viewBox="0 0 6.0004863 5.2916665"
   version="1.1"
   id="svg1"
   inkscape:version="1.3.2 (091e20e, 2023-11-25, custom)"
   sodipodi:docname="editList.svg"
   xmlns:inkscape="http://www.inkscape.org/namespaces/inkscape"
   xmlns:sodipodi="http://sodipodi.sourceforge.net/DTD/sodipodi-0.dtd"
   xmlns="http://www.w3.org/2000/svg"
   xmlns:svg="http://www.w3.org/2000/svg">
  <sodipodi:namedview
     id="namedview1"
     pagecolor="#ffffff"
     bordercolor="#666666"
     borderopacity="1.0"
     inkscape:showpageshadow="2"
     inkscape:pageopacity="0.0"
     inkscape:pagecheckerboard="0"
     inkscape:deskcolor="#d1d1d1"
     inkscape:document-units="mm"
     inkscape:zoom="26.183951"
     inkscape:cx="16.594135"
     inkscape:cy="1.9286624"
     inkscape:window-width="3840"
     inkscape:window-height="2066"
     inkscape:window-x="2869"
     inkscape:window-y="-11"
     inkscape:window-maximized="1"
     inkscape:current-layer="layer1" />
  <defs
     id="defs1" />
  <g
     inkscape:label="Layer 1"
     inkscape:groupmode="layer"
     id="layer1">
    <path
       id="path1"
       style="stroke-width:0.0103353"
       d="M 0.66145833,0 C 0.29662333,0 0,0.29662333 0,0.66145833 V 4.6302083 c 0,0.364835 0.29662333,0.6614584 0.66145833,0.6614584 H 3.3072917 c 0.364835,0 0.6614583,-0.2966234 0.6614583,-0.6614584 V 3.481958 L 3.7465413,3.7046834 a 0.30003001,0.30003001 0 0 1 -0.00207,0 C 3.6656136,3.7822629 3.5731807,3.8438028 3.4726562,3.887618 v 0.7425903 c 0,0.09095 -0.074414,0.1653646 -0.1653645,0.1653646 H 0.66145833 c -0.0909504,0 -0.16536458,-0.074414 -0.16536458,-0.1653646 V 0.66145833 c 0,-0.0909504 0.0744142,-0.16536458 0.16536458,-0.16536458 H 2.3151042 V 1.3229167 c 0,0.1829342 0.1477949,0.3307291 0.3307291,0.3307291 H 2.8990479 L 3.5997803,0.95291341 2.8401367,0.19326986 C 2.7161134,0.06924662 2.5476479,0 2.3719482,0 Z m 0.24494629,0.65008952 c -0.13526189,0 -0.25166422,0.11640153 -0.25166422,0.25166422 V 1.8867065 c 0,0.1352607 0.11639833,0.2516643 0.25166422,0.2516643 H 1.8913574 c 0.1352704,0 0.2516642,-0.1164004 0.2516642,-0.2516643 V 0.90175374 c 0,-0.13526588 -0.1163978,-0.25166422 -0.2516642,-0.25166422 z M 1.1508341,1.1461833 H 1.6469279 V 1.642277 H 1.1508341 Z M 0.91053874,2.3254395 c -0.13525853,1e-7 -0.25218099,0.1164035 -0.25218099,0.2516642 v 0.9849528 c 0,0.1352607 0.11692246,0.2516642 0.25218099,0.2516642 H 1.7575155 C 1.7389375,3.7215785 1.7428904,3.6245529 1.7740519,3.5310506 L 1.8448486,3.317627 H 1.1544515 V 2.8215332 H 2.0102132 L 2.0825602,2.6034587 C 2.1167093,2.4984975 2.1697388,2.4056443 2.2350057,2.3254395 Z m -0.0165365,1.725476 c -0.1352625,0 -0.25166423,0.1169186 -0.25166423,0.252181 V 4.6302083 H 1.1384318 v -0.083199 h 1.6918864 v 0.083199 H 3.3264119 V 4.3030965 c 0,-0.1352624 -0.1164017,-0.252181 -0.2516642,-0.252181 H 3.0003337 L 2.473234,4.2281657 C 2.2765122,4.2937252 2.0551004,4.243927 1.9068604,4.0932902 a 0.30003001,0.30003001 0 0 1 -0.00207,0 c -0.013149,-0.013402 -0.024559,-0.027872 -0.036173,-0.042375 z" />
    <path
       d="m 5.6336814,0.1715235 c -0.2287,-0.228698 -0.59838,-0.228698 -0.82707,0 l -0.31433,0.313286 1.02235,1.022358 0.31433,-0.314331 c 0.2287,-0.22869895 0.2287,-0.598376 0,-0.827075 z m -3.12451,2.2974331 c -0.0637,0.0637 -0.11278,0.142024 -0.14098,0.2287 l -0.30911,0.927328 c -0.0303,0.08981 -0.006,0.189016 0.0606,0.256894 0.0668,0.06788 0.16604,0.09085 0.2569,0.06057 l 0.92733,-0.30911 c 0.0856,-0.02819 0.16395,-0.07728 0.2287,-0.140978 l 1.74709,-1.7481381 -1.0234,-1.023403 z"
       style="stroke-width:0.0104429"
       id="path1-6"
       sodipodi:nodetypes="ccccccccccccccccc" />
  </g>
</svg>
