<?xml version="1.0" encoding="UTF-8" standalone="no"?>
<!-- Created with Inkscape (http://www.inkscape.org/) -->

<svg
   width="24.485891mm"
   height="7.7840433mm"
   viewBox="0 0 24.485891 7.7840433"
   version="1.1"
   id="svg19608"
   sodipodi:docname="inkporter-svg-0fpb18n4.svg"
   xmlns:inkscape="http://www.inkscape.org/namespaces/inkscape"
   xmlns:sodipodi="http://sodipodi.sourceforge.net/DTD/sodipodi-0.dtd"
   xmlns="http://www.w3.org/2000/svg"
   xmlns:svg="http://www.w3.org/2000/svg">
  <sodipodi:namedview
     id="namedview19610"
     pagecolor="#ffffff"
     bordercolor="#666666"
     borderopacity="1.0"
     inkscape:pageshadow="2"
     inkscape:pageopacity="0.0"
     inkscape:pagecheckerboard="0"
     inkscape:document-units="mm"
     showgrid="false"
     inkscape:zoom="3.7543719"
     inkscape:cx="395.13933"
     inkscape:cy="508.07433"
     inkscape:window-width="1920"
     inkscape:window-height="1017"
     inkscape:window-x="-8"
     inkscape:window-y="-8"
     inkscape:window-maximized="1"
     inkscape:current-layer="layer1" />
  <defs
     id="defs19605" />
  <g
     inkscape:label="Layer 1"
     inkscape:groupmode="layer"
     id="layer1"
     transform="translate(-99.779869,-120.48919)">
    <g
       id="F-76mm"
       transform="matrix(0.35277777,0,0,-0.35277777,150.6503,610.52261)">
      <path
         id="rect19739"
         d="m 1033.5731,1226.7667 -118.39392,39.8074 0.36639,1.0373 -7.74999,2.7375 -0.40786,-1.1547 -22.87466,7.6914 -3.00237,-8.5 22.63072,-8.382 -0.76158,-2.1561 -3.50139,1.2368 -4.41525,-12.5 122.01351,-43.0978 1.6778,4.75 4.5,-1.5895 2.839,8.0373 2.4867,-0.9203 z"
         transform="matrix(0.19087068,-0.01912395,0.01912395,0.19087068,-330.40273,1162.2665)" />
      <path
         id="path20480"
         d="m -163.04102,-725.2168 a 0.51153685,0.51153685 0 0 0 -0.60937,0.39063 l -0.30469,1.4082 a 11.317753,11.317753 0 0 0 -9.03125,9.91797 11.317753,11.317753 0 0 0 10.13281,12.39062 11.317753,11.317753 0 0 0 9.29883,-3.57031 l 38.31641,3.61719 1.02148,-1.05469 -0.20508,-1.32226 -1.60351,0.1289 -0.60156,0.71094 -34.42383,-6.14453 a 11.317753,11.317753 0 0 0 0.58789,-2.49805 11.317753,11.317753 0 0 0 -10.13281,-12.39062 11.317753,11.317753 0 0 0 -1.31055,0.041 l 0.17773,-0.81836 a 0.51153685,0.51153685 0 0 0 -0.39062,-0.60742 z m 2.75,3.12696 a 9.8340234,9.8340234 0 0 1 1.66016,0.34765 l -0.99414,3.01758 z m -0.88476,0.008 -0.9336,2.5 -0.25,-1.91016 0.11329,-0.52734 a 9.8340234,9.8340234 0 0 1 1.07031,-0.0625 z m -3.16406,0.43945 -0.70899,3.27735 -1.5332,-2.3418 a 9.8340234,9.8340234 0 0 1 2.24219,-0.93555 z m 6.23828,0.084 a 9.8340234,9.8340234 0 0 1 3.26172,1.97461 l -3.68164,3.82031 -0.85938,-1.72266 -0.0234,-0.11719 z m -8.91602,1.20898 1.80274,2.75586 -0.50977,2.35156 -3.91211,-2.35937 a 9.8340234,9.8340234 0 0 1 2.61914,-2.74805 z m 4.30469,0.48438 0.18555,1.40429 -0.93946,2.51172 -0.0703,-0.10742 z m 8.27148,0.67578 a 9.8340234,9.8340234 0 0 1 2.07813,3.19531 l -5.29297,1.96289 -0.59961,-1.19922 z m -15.49804,2.06054 4.08984,2.46485 -0.3457,1.60156 -5.00977,-0.4707 a 9.8340234,9.8340234 0 0 1 1.26563,-3.59571 z m 17.78125,1.65821 a 9.8340234,9.8340234 0 0 1 0.48242,3.77539 l -5.05274,-0.47657 -0.67578,-1.35351 z m -11.625,0.55078 0.15234,0.25781 a 3.0212647,3.0212647 0 0 0 -0.26953,0.28906 z m -7.45899,1.94726 4.92578,0.46289 -0.39648,1.83594 -3.9668,1.47071 a 9.8340234,9.8340234 0 0 1 -0.5625,-3.76954 z m 14.8086,1.39258 4.68554,0.44141 a 9.8340234,9.8340234 0 0 1 -0.57031,2.16797 l -3.08789,-0.55078 z m -7.89453,0.6211 a 3.0212647,3.0212647 0 0 0 0.50976,0.68945 l -1.25195,1.29883 0.40429,-1.86328 z m -2.5254,0.93554 -0.75,3.46289 a 0.51153685,0.51153685 0 0 0 0.0332,0.1836 l -0.85352,0.88672 a 9.8340234,9.8340234 0 0 1 -2.05273,-3.18946 z m 3.45118,0.13086 a 3.0212647,3.0212647 0 0 0 0.74414,0.37305 l -2.09766,6.36523 a 9.8340234,9.8340234 0 0 1 -3.31055,-1.89843 l 0.86524,-0.89844 0.91211,0.19726 a 0.51153685,0.51153685 0 0 0 0.60742,-0.39062 l 0.38672,-1.7832 z m 1.29296,0.50196 a 3.0212647,3.0212647 0 0 0 0.13086,0.0312 3.0212647,3.0212647 0 0 0 0.5254,-0.0176 l -0.13868,0.9707 0.42774,0.32031 0.71094,5.41992 a 9.8340234,9.8340234 0 0 1 -2.00391,0.11524 9.8340234,9.8340234 0 0 1 -1.75391,-0.46094 z m 1.57227,1.77539 3.47266,2.60351 0.0879,0.008 0.65429,1.00196 a 9.8340234,9.8340234 0 0 1 -3.56835,1.30468 z m 4.27539,2.67968 0.96875,0.0918 a 9.8340234,9.8340234 0 0 1 -0.5918,0.48437 z"
         transform="matrix(0.75000002,0,0,-0.75000002,1.331573e-6,841.89002)" />
      <path
         style="fill:#000000;stroke-width:0.0751702"
         d="m -108.93082,1367.1123 c 0.13436,0.058 0.2443,0.1574 0.2443,0.2199 0,0.063 0.0676,0.15 0.15034,0.1942 0.11999,0.064 0.15034,0.057 0.15034,-0.035 0,-0.1367 0.007,-0.1377 0.26845,-0.038 0.19942,0.076 0.20212,0.086 0.14985,0.545 -0.0732,0.6431 -0.0764,0.5048 0.0469,2.0088 0.0541,0.6595 0.10827,0.9575 0.18176,0.9997 0.12012,0.069 0.14211,0.4717 0.0296,0.5412 -0.13263,0.082 -0.0809,0.1713 0.14478,0.2499 0.27762,0.097 0.40344,0.2932 0.61075,0.9529 0.0909,0.2894 0.23167,0.684 0.31277,0.8768 l 0.14744,0.3507 0.25978,-0.1533 c 0.17972,-0.106 0.3363,-0.1408 0.50798,-0.113 l 0.24819,0.04 0.37309,-0.7866 0.37311,-0.7866 0.10608,-0.1813 c 0.0368,-0.023 0.14076,-0.2438 0.23101,-0.4913 0.15066,-0.4133 0.55089,-0.8981 0.74134,-0.8981 0.065,0 0.21872,-0.2968 0.64234,-1.2402 0.27852,-0.6203 0.33848,-0.8317 0.38311,-1.3507 0.0212,-0.2467 0.0745,-0.492 0.11856,-0.5449 0.0966,-0.1165 0.28707,-0.1277 0.28707,-0.017 0,0.044 0.0338,0.059 0.0752,0.033 0.0414,-0.025 0.0752,-0.1084 0.0752,-0.184 0,-0.1562 0.38607,-0.262 0.70961,-0.1944 0.10584,0.022 0.27699,0.058 0.38035,0.079 0.10449,0.022 0.18792,0.092 0.18792,0.1575 0,0.1813 -0.24173,0.5502 -0.39186,0.5978 -0.16177,0.051 -0.51017,0.624 -0.51017,0.8386 0,0.085 -0.0506,0.2508 -0.11228,0.3692 -0.0617,0.1185 -0.1125,0.2837 -0.11276,0.3672 -4.8e-4,0.22 -0.2969,1.2558 -0.39186,1.3703 -0.0496,0.06 -0.0631,0.2655 -0.035,0.534 0.0479,0.4588 -0.0168,0.6123 -0.25797,0.6123 -0.10508,0 -0.12122,0.052 -0.0897,0.2868 0.0329,0.2451 0.0113,0.3046 -0.14891,0.4096 -0.21695,0.1421 -0.46737,0.6369 -0.54167,1.0701 -0.0283,0.1654 -0.1442,0.54 -0.25743,0.8324 -0.1735,0.448 -0.19089,0.5543 -0.11068,0.6765 0.0524,0.08 0.10849,0.2464 0.12477,0.3704 l 0.0297,0.2256 -0.0503,0.3376 c -0.0547,0.1319 -0.0706,0.3107 -0.0385,0.4323 0.0728,0.2766 0.0792,0.632 0.0139,0.7718 l -0.0867,0.2279 -0.13611,0.2653 c -0.0749,0.146 -0.18364,0.2836 -0.24173,0.3059 -0.10025,0.039 -0.97395,1.3752 -0.92495,1.4151 l -0.0887,0.062 -0.38002,0.1819 c -0.46307,0.2216 -1.02127,0.3958 -1.27448,0.3977 -0.12347,0 -0.2162,0.062 -0.27038,0.1793 0,0 -0.16749,0.057 -0.29361,0.6478 -0.12937,0.6135 -0.46521,0.9063 -1.03095,0.8987 -0.34974,-0.01 -0.83037,-0.1898 -0.94837,-0.3652 l -0.2234,-0.5125 c -0.0179,-0.1638 -0.1083,-0.3668 -0.2136,-0.4792 -0.19605,-0.2094 -0.15816,-0.2985 0.16949,-0.3988 0.12045,-0.036 0.14985,-0.093 0.12271,-0.2351 -0.0197,-0.1026 0.003,-0.2318 0.0473,-0.2868 0.062,-0.075 0.0453,-0.1784 -0.0664,-0.4094 -0.0822,-0.1701 -0.14941,-0.4586 -0.14941,-0.6413 l 0.0752,-0.4792 -4.7e-4,-0.1805 c -2.9e-4,-0.099 -0.0214,-0.3533 -0.0467,-0.5643 l -0.0461,-0.3838 0.0184,-0.1721 v -0.2681 c 0,-0.1474 0.0328,-0.3294 0.073,-0.4044 l 0.20764,-0.2894 0.0825,-0.2367 c 0.0455,-0.1302 0.15091,-0.3237 0.2345,-0.43 0.0836,-0.1062 0.13561,-0.2197 0.11557,-0.2521 l 0.24912,-0.3862 c 0.13769,-0.2175 0.14144,-0.2622 0.0449,-0.5357 -0.0578,-0.1641 -0.10526,-0.3661 -0.10526,-0.4489 0,-0.1307 -0.27796,-1.0717 -0.45067,-1.5257 l 0.0223,-0.2341 -0.0616,-0.2193 c -0.0702,-0.2501 -0.069,-0.2891 0.0362,-1.1589 0.13855,-1.1467 0.19121,-1.7633 0.16588,-1.9422 -0.0232,-0.1641 -0.53804,-0.7346 -0.89294,-0.9894 -0.0864,-0.062 -0.17687,-0.2015 -0.20116,-0.3098 -0.0403,-0.1801 -0.02,-0.2011 0.23673,-0.2435 0.42903,-0.071 0.70789,-0.053 0.97622,0.064 z"
         id="path3390-4-3"
         sodipodi:nodetypes="cssssssssssscssccccsssssssssssssscsssssssssccsccssccscccsccsssssccccccsccssccssccsssssscc" />
      <path
         style="fill:#000000;stroke-width:0.0751702"
         d="m -93.681206,1367.0847 c 0.30605,0.073 0.40687,0.1406 0.40687,0.2719 0,0.06 0.0635,0.1082 0.14113,0.1082 0.0776,0 0.17539,0.043 0.21725,0.094 0.0778,0.096 0.0823,1.2193 0.005,1.2965 -0.0234,0.023 -0.0139,0.2022 0.0214,0.3973 0.16373,0.8803 0.13083,0.7845 0.13083,0.7845 l 0.0519,0.3069 c 0.0285,0.1688 0.0976,0.3526 0.15365,0.4087 0.0684,0.069 0.0885,0.2053 0.0612,0.4178 -0.0229,0.1784 0.005,0.4633 0.0641,0.6543 0.095,0.307 0.0919,0.3591 -0.0333,0.5637 -0.0958,0.1566 -0.12281,0.2945 -0.0884,0.451 0.0627,0.2855 0.0625,0.3388 -0.003,0.5413 l -0.0533,0.1655 0.15362,1.6526 c 0.0438,0.082 0.0797,0.3234 0.0797,0.5368 0,0.3246 0.0245,0.3942 0.15034,0.4271 0.18732,0.049 0.18724,0.1165 -7.4e-4,0.6632 -0.1843,0.5357 -0.12041,0.647 0.26572,0.4629 0.14652,-0.07 0.27804,-0.1271 0.29228,-0.1271 0.0142,0 0.14623,0.1776 0.29331,0.3947 0.32847,0.4847 0.87842,1.7665 0.87842,2.0474 0,0.2512 -0.37205,0.7729 -0.92234,1.2934 l -0.46233,0.4576 -0.19091,0.2392 c -0.105,0.1317 -0.31757,0.3759 -0.4724,0.5429 -0.24788,0.2673 -0.31069,0.2982 -0.52619,0.2588 -0.28363,-0.052 -0.32642,-0.027 -0.59791,0.3367 -0.18568,0.2494 -0.1929,0.2843 -0.0893,0.4323 0.062,0.089 0.16263,0.1609 0.22359,0.1609 0.18119,0 0.19876,0.1869 0.0432,0.459 -0.0802,0.1403 -0.16512,0.3735 -0.18861,0.5183 l -0.18216,0.4688 c -0.41589,0.3631 -1.284992,0.3074 -1.631662,-0.1046 -0.1459,-0.1734 -0.18969,-0.3099 -0.18969,-0.5911 0,-0.2011 -0.0361,-0.388 -0.0803,-0.4152 -0.0442,-0.027 -0.0632,-0.094 -0.0425,-0.1483 0,0 0.23479,0.1055 0.5951,-0.8822 0.13973,-0.2791 0.22073,-0.5074 0.17998,-0.5074 -0.0408,0 -0.19675,-0.1328 -0.34667,-0.2952 l -0.27257,-0.2953 -0.0521,-0.077 -0.1593,-0.4743 c -0.0876,-0.2609 -0.16438,-0.4849 -0.17058,-0.4978 l -0.071,-0.3502 c -0.0268,-0.1252 -0.0554,-0.2355 -0.0636,-0.2451 l -0.0236,-0.166 c 0.0311,-0.028 0.011,-0.1126 -0.0448,-0.1889 0,0 -0.88758,-0.1629 -1.33694,-0.1834 -0.44674,-0.013 -0.49843,-0.17 -0.17428,-0.5288 l 0.27655,-0.3061 c 0,0 -0.10568,0.028 -0.0927,-0.284 0,-0.074 0.10148,-0.2446 0.2255,-0.3805 0.12404,-0.1357 0.22552,-0.2912 0.22552,-0.3456 0,-0.111 0.44859,-0.3534 0.54438,-0.2942 0.034,0.021 0.15886,0.066 0.27739,0.1001 l 0.21552,0.062 -0.21797,-0.323 c -0.11988,-0.1776 -0.21858,-0.3519 -0.21933,-0.3872 -7.5e-4,-0.035 -0.2928,-0.2334 -0.64899,-0.4401 -0.35619,-0.2068 -0.83344,-0.5503 -1.06057,-0.7635 -0.36251,-0.3404 -0.40874,-0.4164 -0.37855,-0.6221 l 0.0344,-0.2343 -0.0152,-0.1467 c 0.0654,0 0.22299,-0.2163 0.36965,-0.5075 0.14059,-0.2792 0.51231,-0.8874 0.82603,-1.3516 0.70333,-1.0408 0.74926,-1.1853 0.45382,-1.4279 -0.11997,-0.099 -0.37759,-0.2618 -0.57249,-0.3628 -0.43935,-0.2276 -0.59169,-0.4644 -0.39249,-0.61 0.18898,-0.1383 1.08539,-0.1301 1.35841,0.012 0.25511,0.133 0.45516,0.1453 0.49348,0.03 0.0191,-0.057 0.13149,-0.063 0.36332,-0.017 l 0.33573,0.066 0.022,0.4966 c 0.0157,0.3542 -0.009,0.5275 -0.0853,0.6041 -0.059,0.059 -0.12678,0.2462 -0.15054,0.416 -0.0576,0.4119 -0.31874,1.0398 -0.78068,1.8771 -0.20919,0.3792 -0.36136,0.7084 -0.33813,0.7317 0.0232,0.023 0.12386,0.043 0.22363,0.043 0.0998,0 0.46892,0.1014 0.82032,0.2255 0.35141,0.124 0.6478,0.2255 0.65862,0.2255 0.0108,0 0.081,-0.2114 0.15596,-0.4698 0.0749,-0.2584 0.2537,-0.8081 0.39725,-1.2215 0.208232,-0.5998 0.258502,-0.8535 0.248612,-1.2552 -0.007,-0.2769 0.0218,-0.7167 0.0636,-0.9772 0.0418,-0.2606 0.09,-0.9099 0.10724,-1.443 0.0358,-1.1107 -0.0321,-1.3695 -0.455632,-1.7364 -0.28181,-0.2441 -0.39022,-0.6727 -0.18962,-0.7497 0.14149,-0.054 0.678772,-0.037 0.962972,0.031 z"
         id="path2436-3-4"
         sodipodi:nodetypes="sssssccsssssscccsscssssccsssssssccsssccssccsccccccsccsssscscsssccssssssscccssssssssssssssss" />
      <path
         style="fill:#000000;stroke-width:0.0751702"
         d="m -75.804118,1367.2498 c 0.12403,0.064 0.30162,0.1886 0.39464,0.2757 0.093,0.087 0.16913,0.1188 0.16913,0.07 0,-0.1334 0.13252,-0.1061 0.30068,0.062 0.22317,0.2232 0.19489,0.7057 -0.0815,1.3907 -0.0333,0.083 -0.13186,0.4209 -0.21885,0.7517 -0.087,0.3307 -0.22034,0.7366 -0.29634,0.902 -0.16869,0.3671 -0.30536,0.7763 -0.30536,0.9142 l -0.10622,0.8891 c 0.0238,0.095 -0.0101,0.2757 -0.0753,0.4019 -0.082,0.1587 -0.0984,0.2828 -0.053,0.4027 0.0361,0.095 0.0901,0.3594 0.12007,0.5868 0.0299,0.2274 0.10367,0.6296 0.16377,0.8938 0.0716,0.3149 0.0913,0.624 0.0572,0.8971 -0.0496,0.3961 -0.0415,0.4252 0.16201,0.5874 l 0.21407,0.1707 -0.17092,0.304 c -0.0948,0.1687 -0.13394,0.3041 -0.0879,0.3041 0.11823,0 0.6539,0.562 0.62326,0.6539 l -0.22678,0.4326 c -0.13438,0.1235 -0.24431,0.2637 -0.24431,0.3115 0,0.048 -0.0527,0.1308 -0.11721,0.1843 l -0.19655,0.1383 -0.35051,0.3263 c -0.19278,0.1794 -0.42534,0.3781 -0.51679,0.4414 -0.13727,0.095 -0.7748,1.3198 -0.77274,1.4844 l -0.0871,0.1074 -0.48883,0.3278 c -0.26886,0.1803 -0.54969,0.3278 -0.62408,0.3278 -0.14387,0 -0.3307,0.1738 -0.26137,0.2431 0.0227,0.023 -0.0114,0.1675 -0.0758,0.3218 -0.0644,0.1542 -0.11715,0.4131 -0.11715,0.5753 0,0.3694 -0.22939,0.6179 -0.68668,0.7437 -0.27069,0.074 -0.41362,0.069 -0.81671,-0.03 0,0 -0.43421,-0.064 -0.5582,-0.3858 -0.0226,-0.084 -0.0415,-0.2437 -0.0421,-0.3544 -4.6e-4,-0.1107 -0.0518,-0.2521 -0.11377,-0.3141 -0.14155,-0.1416 -0.14283,-0.1987 -0.004,-0.1987 0.157649,0 0.197899,-0.1039 0.14423,-0.3722 -0.24286,-0.4386 -0.0358,-0.2044 0.247179,-0.6788 0.13343,-0.2451 0.16721,-0.263 0.46234,-0.2442 0.28195,0.018 0.32686,0 0.39228,-0.174 0.0407,-0.1069 0.0739,-0.2916 0.0739,-0.4105 0,-0.1189 0.0338,-0.2371 0.0752,-0.2626 0.13628,-0.084 0.0831,-0.2511 -0.0674,-0.2118 -0.11803,0.031 -0.1518,-0.017 -0.19594,-0.2784 l -0.0533,-0.3157 -0.0602,-0.4087 c -0.022,-0.4706 -0.007,-0.539 0.15703,-0.6914 0.10129,-0.094 0.12729,-0.163 0.0742,-0.1959 -0.0449,-0.028 -0.30972,0.1555 -0.58823,0.4075 -0.575929,0.5209 -1.934799,1.2732 -2.064889,1.1431 -0.0528,-0.053 0.008,-0.2308 0.19021,-0.5637 l 0.46918,-0.7751 c 0.0943,-0.118 0.19193,-0.333 0.21705,-0.4777 0.0489,-0.2817 0.47334,-0.6765 0.727319,-0.6765 l 0.33059,-0.2394 0.32461,-0.3678 0.3246,-0.3677 0.0931,-0.075 0.24903,-0.2414 c 0.13696,-0.1328 0.24902,-0.283 0.24902,-0.3339 0,-0.051 0.11644,-0.1885 0.25875,-0.3058 l 0.25877,-0.2133 -0.0772,-0.5627 c -0.0425,-0.3095 -0.1454,-0.857 -0.22868,-1.2167 l -0.15142,-0.6541 -0.0584,-0.1577 c 0.0805,0 0.15896,-2.2474 0.10224,-2.9273 -0.0437,-0.5252 -0.0766,-0.6334 -0.22041,-0.7277 l -0.43912,-0.2401 c -0.0574,-0.057 -0.21775,-0.1276 -0.35625,-0.156 -0.18258,-0.037 -0.27159,-0.1076 -0.32364,-0.2557 -0.0961,-0.2731 -0.0159,-0.3379 0.49195,-0.3975 0.30311,-0.036 0.49075,-0.017 0.67552,0.065 0.36921,0.1655 0.66926,0.2219 0.66926,0.1259 0,-0.049 0.12715,-0.072 0.31947,-0.058 0.31482,0.023 0.3198,0.028 0.34176,0.3257 0.0123,0.1664 -0.0264,0.4183 -0.0859,0.5599 -0.0907,0.2156 -0.092,0.2823 -0.008,0.4115 0.0889,0.137 0.28268,1.4683 0.29322,2.0147 0.003,0.1137 0.0293,0.2067 0.0603,0.2067 0.031,0 0.0564,0.097 0.0564,0.2163 0,0.119 0.0462,0.2548 0.10286,0.3017 0.0839,0.07 0.11029,0.02 0.14313,-0.2718 0.0315,-0.2802 0.0904,-0.399 0.27298,-0.5514 0.12799,-0.1069 0.23272,-0.2357 0.23272,-0.2864 0,-0.051 0.0797,-0.1666 0.17715,-0.2576 0.24028,-0.2246 0.91863,-1.5286 0.97093,-1.8665 0.0374,-0.2422 0.0114,-0.3017 -0.23346,-0.5316 -0.15162,-0.1423 -0.36816,-0.316 -0.48119,-0.3859 -0.24142,-0.1494 -0.35581,-0.4841 -0.19929,-0.5832 0.17114,-0.1084 0.91372,-0.076 1.15651,0.05 z"
         id="path1670-3-0"
         sodipodi:nodetypes="cssssssccsssssscssccsccssccssssssccsssccssssssccssssccscccccssscssccsccssssssscscssssssssssscc" />
      <path
         style="fill:#000000;stroke-width:0.0751702"
         d="m -87.030956,1367.2431 c -0.0485,0.1264 -0.44312,0.1551 -0.5158,0.038 -0.072,-0.1166 -0.84593,-0.089 -1.09369,0.04 -0.36984,0.1912 -0.26496,0.6362 0.15031,0.6377 0.10544,3e-4 0.36675,0.1011 0.58071,0.2238 0.3832,0.2198 0.38977,0.2296 0.43887,0.657 0.0681,0.5862 0.10377,1.0399 0.10377,1.0399 0.0383,0.039 0.0391,0.2758 0.004,1.4237 -0.0107,0.357 0.042,0.6513 0.18242,1.0191 0.0821,0.215 0.12177,0.4916 0.10712,0.7475 l -0.0232,0.4063 -0.0188,0.1206 c 0,0 0.0564,0.438 0.0564,0.9744 v 0.9754 l -0.2443,-0.046 c -0.38898,-0.072 -0.39525,-0.071 -0.38271,0.087 0.0213,0.2686 0.16853,1.3872 0.21548,1.6374 0.0374,0.199 0.01,0.2773 -0.14855,0.4263 l -0.19427,0.1825 -0.10549,0.2908 c 0,0 0.0695,0.5825 0.211,0.5825 0.14356,0 0.21088,0.1963 0.0991,0.289 l -0.20939,0.5152 c -0.06,0.06 0.0226,0.2338 0.30194,0.6352 l 0.38451,0.5526 0.0952,0.1225 c 0.009,0.015 0.0851,0.235 0.17,0.4881 l 0.15436,0.4602 -0.17309,0.2163 c -0.0952,0.119 -0.17327,0.2773 -0.17347,0.3518 -2e-4,0.082 -0.0871,0.1657 -0.21986,0.212 -0.26245,0.091 -0.33656,0.2455 -0.22149,0.4605 0.0466,0.087 0.10766,0.3534 0.13579,0.5919 l 0.0511,0.4336 c 0,0 0.0618,0.1731 0.37601,0.2797 0.41788,0.2116 0.59621,0.2218 1.00627,0.058 0.3643,-0.1457 0.42028,-0.238 0.51995,-0.8569 0.0421,-0.2615 0.10595,-0.5048 0.14187,-0.5407 0,0 -0.38692,-0.1003 -0.14342,-0.6472 0.0379,-0.071 0.24584,-0.2919 0.46187,-0.4909 l 0.39278,-0.3619 0.13913,-0.1055 c -0.0155,-0.014 0.0606,-0.1314 0.16912,-0.2604 0.1085,-0.1289 0.20086,-0.291 0.20523,-0.3602 0.004,-0.069 0.0151,-0.5317 0.0238,-1.0278 0.0203,-1.1568 0.19937,-1.9582 0.45159,-2.0216 0.0956,-0.024 0.26446,-0.1624 0.37525,-0.3076 0.11079,-0.1453 0.23335,-0.2642 0.27235,-0.2642 0,0 0.19349,-0.124 0.20344,-0.3153 0.009,-0.3618 -0.10873,-0.6159 -0.35318,-0.7603 -0.28472,-0.1682 -0.35839,-0.1613 -0.64962,0.061 -0.24754,0.1888 -0.37343,0.2413 -0.30215,0.126 0.0611,-0.099 -0.13876,-0.8478 -0.32014,-1.1997 -0.0913,-0.1772 -0.14894,-0.3497 -0.12808,-0.3834 l 0.0543,-0.1978 c -0.0195,-0.02 0.005,-0.1722 0.0556,-0.3394 0.0717,-0.2394 0.0713,-0.3586 -0.003,-0.5616 -0.0697,-0.1929 -0.0721,-0.3007 -0.009,-0.4294 0.13176,-0.2698 0.26534,-0.9501 0.21321,-1.0859 -0.026,-0.068 0.008,-0.2662 0.0743,-0.4411 l 0.12144,-0.318 0.0513,-0.1268 0.0418,-0.2275 c 0.0754,-0.4108 0.18252,-1.9419 0.18848,-2.6933 l 0.006,-0.7369 -0.3947,0.023 c -0.23762,0.014 -0.3947,0.058 -0.3947,0.1104 0,0.1532 -0.0859,0.1819 -0.30039,0.1004 -0.37363,-0.1421 -0.7152,0.2473 -0.50579,0.5765 0.0308,0.048 0.1514,0.1119 0.26803,0.1412 0.11661,0.029 0.22889,0.097 0.24951,0.1509 0.0517,0.1347 -0.10896,1.1977 -0.24523,1.6228 -0.0702,0.2189 -0.16489,0.363 -0.25386,0.3863 -0.0919,0.024 -0.1599,0.1328 -0.19287,0.3086 -0.0658,0.3507 -0.16431,0.3462 -0.22823,-0.01 -0.0278,-0.1551 -0.0936,-0.3327 -0.14636,-0.3946 -0.0558,-0.066 -0.11844,-0.4514 -0.14989,-0.9223 -0.0414,-0.6193 -0.0871,-0.8515 -0.19498,-0.9886 -0.12144,-0.1544 -0.13416,-0.2592 -0.092,-0.7575 0.0555,-0.6567 0.0213,-0.7113 -0.44657,-0.7131 -0.18412,0 -0.29948,0.038 -0.3275,0.1116 z"
         id="path1430-4-4"
         sodipodi:nodetypes="csscsccsssccscssssccsccsccscsssssccssccsccsssssccssssccsccssccsscssssssssssssssccc" />
      <path
         style="fill:#000000;stroke-width:0.029902"
         d="m -138.29817,1368.9459 c 0.22758,0.035 0.30902,0.09 0.33438,0.2252 0.0112,0.059 0.0661,0.1677 0.12212,0.2411 0.0561,0.073 0.127,0.1967 0.15765,0.2739 0.0307,0.078 0.0906,0.2008 0.13309,0.2749 0.0893,0.1553 0.0972,0.2421 0.0309,0.3431 -0.026,0.039 -0.065,0.1574 -0.0869,0.262 -0.0487,0.233 -0.0901,0.7821 -0.0622,0.827 0.0142,0.023 0.0492,0.018 0.11577,-0.016 0.14153,-0.072 0.19453,-0.127 0.21619,-0.2256 0.0228,-0.1039 0.12467,-0.1607 0.23768,-0.1323 0.11953,0.031 0.33383,0.2446 0.41983,0.4203 0.10153,0.2076 0.12618,0.5057 0.0617,0.7475 -0.0262,0.098 -0.0475,0.2417 -0.0475,0.3195 0,0.078 -0.0133,0.1765 -0.0297,0.2196 -0.0163,0.043 -0.0493,0.2424 -0.0733,0.443 -0.0239,0.2005 -0.0522,0.4068 -0.063,0.4584 -0.0191,0.091 -0.0155,0.095 0.13935,0.1466 0.33746,0.112 0.55853,0.4614 0.52694,0.8327 -0.0295,0.3472 -0.20273,0.6155 -0.47766,0.7397 -0.1437,0.065 -0.19255,0.071 -0.5682,0.065 -0.40137,-0.01 -0.41134,-0.01 -0.42418,0.06 -0.0628,0.313 -0.10734,0.6593 -0.12198,0.9477 -0.0273,0.5381 -0.0707,0.9459 -0.13579,1.2729 l -0.0599,0.3012 0.0749,0.1636 c 0.0562,0.123 0.0943,0.3081 0.153,0.7454 0.0429,0.32 0.0851,0.6245 0.0933,0.6768 0.0116,0.072 -3e-5,0.108 -0.0475,0.1486 -0.0346,0.03 -0.0628,0.075 -0.0628,0.1 0,0.025 0.0471,0.233 0.1046,0.4614 l 0.1046,0.4152 -0.0608,0.2043 c -0.0343,0.1155 -0.0836,0.2165 -0.113,0.2322 -0.0532,0.029 -0.36777,-0.058 -0.44644,-0.1231 -0.0677,-0.056 -0.0453,-0.2207 0.0373,-0.2748 0.0411,-0.027 0.0746,-0.072 0.0744,-0.1007 -3.6e-4,-0.054 -0.14199,-0.6502 -0.22178,-0.9338 -0.0255,-0.091 -0.0464,-0.22 -0.0466,-0.2879 -5.4e-4,-0.1853 -0.0886,-0.5387 -0.14756,-0.5921 -0.0421,-0.038 -0.0953,-0.044 -0.28066,-0.028 -0.19742,0.017 -0.23138,0.028 -0.24829,0.082 -0.011,0.035 -0.0573,0.1108 -0.10329,0.1693 -0.15558,0.1979 -0.14631,0.3256 0.0238,0.3267 0.0369,2e-4 0.0875,0.032 0.11347,0.072 0.0415,0.064 0.0421,0.092 0.005,0.2519 -0.0243,0.1052 -0.0755,0.2206 -0.1228,0.2769 -0.0708,0.084 -0.0783,0.112 -0.0594,0.2189 0.0119,0.067 0.0176,0.1562 0.0125,0.1973 -0.005,0.041 -0.008,0.1119 -0.005,0.1571 0.019,0.4299 0.02,0.4225 -0.0699,0.5866 -0.16983,0.31 -0.62214,0.6155 -1.09125,0.737 -0.23961,0.062 -0.68615,0.051 -0.8223,-0.022 -0.29661,-0.1568 -0.65045,-0.539 -0.7349,-0.7935 -0.0273,-0.082 -0.0505,-0.1001 -0.15065,-0.1162 -0.0826,-0.013 -0.1429,-0.048 -0.19951,-0.1153 -0.08,-0.095 -0.0836,-0.096 -0.26052,-0.073 -0.48132,0.062 -0.73197,0.01 -0.94606,-0.2068 -0.18271,-0.1827 -0.23506,-0.3572 -0.23506,-0.783 0,-0.2644 -0.01,-0.3318 -0.0551,-0.3908 -0.0768,-0.099 -0.1244,-0.2525 -0.1244,-0.3995 0,-0.093 -0.0183,-0.142 -0.0708,-0.1913 -0.0389,-0.037 -0.12136,-0.1743 -0.18328,-0.3063 -0.15152,-0.3229 -0.17154,-0.6126 -0.0752,-1.0879 0.0749,-0.3694 0.13572,-0.5109 0.26731,-0.6216 0.18233,-0.1535 0.37952,-0.1692 1.05387,-0.084 0.37911,0.048 0.87146,0.047 0.89458,-8e-4 0.15508,-0.3254 0.19858,-0.5186 0.1487,-0.6609 -0.0451,-0.1288 -0.17006,-0.7661 -0.19605,-1 -0.0158,-0.1412 -0.01,-0.2082 0.0282,-0.2869 0.0376,-0.079 0.0464,-0.171 0.0384,-0.4037 -0.0112,-0.328 -0.003,-0.3083 -0.25384,-0.5851 -0.29724,-0.3276 -0.3473,-0.5235 -0.17725,-0.6936 0.12509,-0.125 0.29504,-0.1638 0.41534,-0.095 l 0.0837,0.048 -0.0181,-0.1258 c -0.01,-0.069 -0.058,-0.183 -0.10667,-0.253 -0.12795,-0.1838 -0.26252,-0.4954 -0.28443,-0.6586 -0.013,-0.097 -0.0625,-0.2064 -0.15851,-0.3505 -0.10209,-0.1531 -0.20244,-0.3817 -0.37406,-0.8522 -0.21407,-0.5869 -0.23564,-0.6665 -0.2478,-0.9144 -0.011,-0.2126 -0.003,-0.2922 0.0356,-0.3662 0.0593,-0.1147 0.25829,-0.2201 0.5159,-0.2732 0.24443,-0.051 0.91137,-0.027 1.20199,0.043 0.20088,0.048 0.23661,0.069 0.40855,0.2362 0.10361,0.1011 0.23332,0.2191 0.2882,0.2623 0.11897,0.094 0.53102,0.3076 0.552,0.2866 0.008,-0.01 0.0179,-0.1032 0.0217,-0.2113 0.005,-0.1586 0.0203,-0.2107 0.0766,-0.2705 0.0383,-0.041 0.0815,-0.1382 0.0962,-0.2165 0.0326,-0.1747 0.1357,-0.2892 0.322,-0.3576 0.16172,-0.059 0.92348,-0.084 1.21117,-0.04 z m -4.37164,9.5132 c -0.0528,0.053 -0.0438,0.1793 0.0233,0.3271 0.0325,0.072 0.0595,0.1867 0.0599,0.2554 5.4e-4,0.1036 0.0157,0.1357 0.0875,0.1869 0.12318,0.088 0.15236,0.078 0.15236,-0.052 0,-0.1471 0.0809,-0.3903 0.15803,-0.4755 0.0586,-0.065 0.0587,-0.067 0.003,-0.083 -0.0313,-0.01 -0.13081,-0.056 -0.22126,-0.1033 -0.18838,-0.099 -0.21378,-0.1044 -0.26315,-0.055 z"
         id="path42440-6-2" />
    </g>
  </g>
</svg>
