<?xml version="1.0" encoding="UTF-8" standalone="no"?>
<!-- Created with Inkscape (http://www.inkscape.org/) -->

<svg
   width="11.473078mm"
   height="6.0406041mm"
   viewBox="0 0 11.473078 6.0406041"
   version="1.1"
   id="svg1"
   sodipodi:docname="inkporter-svg-ah7yib3z.svg"
   xmlns:inkscape="http://www.inkscape.org/namespaces/inkscape"
   xmlns:sodipodi="http://sodipodi.sourceforge.net/DTD/sodipodi-0.dtd"
   xmlns="http://www.w3.org/2000/svg"
   xmlns:svg="http://www.w3.org/2000/svg">
  <sodipodi:namedview
     id="namedview1"
     pagecolor="#ffffff"
     bordercolor="#666666"
     borderopacity="1.0"
     inkscape:showpageshadow="2"
     inkscape:pageopacity="0.0"
     inkscape:pagecheckerboard="0"
     inkscape:deskcolor="#d1d1d1"
     inkscape:document-units="mm"
     inkscape:zoom="1.4556538"
     inkscape:cx="363.4106"
     inkscape:cy="674.95446"
     inkscape:window-width="1920"
     inkscape:window-height="1017"
     inkscape:window-x="-8"
     inkscape:window-y="-8"
     inkscape:window-maximized="1"
     inkscape:current-layer="layer1" />
  <defs
     id="defs1" />
  <g
     inkscape:label="Layer 1"
     inkscape:groupmode="layer"
     id="layer1"
     transform="translate(-150.57191,-149.36225)">
    <g
       id="F-Infantry4"
       transform="translate(163.77805,113.04009)">
      <path
         id="path3682-9-3-2-2"
         style="fill:#000000;stroke-width:0.0305117"
         d="m -12.407571,42.283773 c -0.170515,-0.07368 -0.15725,-0.224369 0.02324,-0.264011 0.05443,-0.01196 0.133496,-0.04327 0.175696,-0.06959 0.168514,-0.105091 0.167855,-0.102393 0.174057,-0.713149 0.0032,-0.313872 0.01965,-0.596556 0.03657,-0.628185 0.01693,-0.03163 0.02356,-0.0851 0.01474,-0.118829 -0.02101,-0.08034 0.04611,-0.236308 0.23244,-0.540151 0.09113,-0.148597 0.163301,-0.308694 0.180382,-0.400124 0.01566,-0.08383 0.02548,-0.155406 0.02182,-0.159065 -0.0037,-0.0037 -0.114565,0.06249 -0.246458,0.146989 -0.179696,0.11513 -0.258102,0.14905 -0.3128,0.135321 -0.06681,-0.01677 -0.07002,-0.01277 -0.03791,0.04725 0.0277,0.05175 0.02581,0.07484 -0.0089,0.109604 -0.03838,0.03838 -0.05116,0.03301 -0.09947,-0.0417 -0.03049,-0.04716 -0.102987,-0.127318 -0.161108,-0.178138 -0.06203,-0.05423 -0.107456,-0.12355 -0.109987,-0.167815 -0.0032,-0.05608 -0.01909,-0.07283 -0.06198,-0.06535 -0.06698,0.01169 -0.352776,0.249923 -0.353963,0.295051 -6.92e-4,0.02695 -0.202835,0.137302 -0.251489,0.137302 -0.01028,0 -0.01587,-0.03664 -0.01243,-0.08141 0.0048,-0.06211 0.02363,-0.08269 0.07952,-0.08681 0.04989,-0.0037 0.168382,-0.106676 0.371427,-0.322868 0.249017,-0.265139 0.335366,-0.385369 0.523843,-0.729378 0.189326,-0.345562 0.223575,-0.429646 0.21263,-0.522029 -0.01052,-0.08879 -0.03268,-0.119484 -0.114395,-0.158449 -0.05574,-0.02658 -0.11031,-0.07657 -0.121266,-0.11109 -0.01105,-0.03482 -0.04617,-0.06276 -0.07889,-0.06276 -0.05074,0 -0.05982,-0.02448 -0.06506,-0.175442 -0.01077,-0.310337 -0.0025,-0.354276 0.08014,-0.425359 0.191094,-0.164374 0.481475,-0.09848 0.557549,0.126515 0.02244,0.06638 0.07108,0.152918 0.108083,0.192305 0.05024,0.05348 0.05763,0.07758 0.02918,0.09516 -0.0259,0.01601 0.0162,0.06188 0.131533,0.143323 0.09329,0.06588 0.213773,0.153417 0.267731,0.194528 0.05396,0.04111 0.08836,0.0634 0.07644,0.04953 -0.03766,-0.04384 0.06204,-0.192585 0.142649,-0.212816 0.141407,-0.03549 0.248114,0.01485 0.233882,0.110327 -0.0018,0.01198 0.01699,0.01402 0.04173,0.0045 0.02927,-0.01123 0.05552,0.01046 0.07516,0.06212 0.0166,0.04366 0.04572,0.07938 0.06471,0.07938 0.02099,0 0.02584,0.02094 0.01238,0.0534 -0.01218,0.02937 -0.02281,0.07056 -0.02361,0.09154 -8.07e-4,0.02098 -0.01895,0.03814 -0.04033,0.03814 -0.02138,0 -0.04758,0.01407 -0.05821,0.03127 -0.01063,0.0172 -0.008,0.02815 0.0058,0.02433 0.01383,-0.0038 0.07726,0.0034 0.14095,0.01614 0.08307,0.01655 0.123818,0.04417 0.144176,0.09771 0.01586,0.04172 0.05305,0.07464 0.08432,0.07464 0.03077,0 0.07998,0.01757 0.109346,0.03905 0.08192,0.0599 0.01716,0.196301 -0.120522,0.253828 -0.104355,0.0436 -0.10748,0.04909 -0.06432,0.112943 0.03167,0.04685 0.07021,0.06433 0.127646,0.05788 0.127572,-0.01432 0.210194,0.06109 0.268062,0.24467 0.06699,0.212517 0.06605,0.275041 -0.0055,0.363356 -0.04519,0.05581 -0.08607,0.07086 -0.185411,0.06825 -0.122831,-0.0032 -0.126713,-4.62e-4 -0.107388,0.07672 0.01102,0.04403 0.08122,0.243644 0.15599,0.443583 0.09089,0.243055 0.125797,0.373667 0.105337,0.394126 -0.02046,0.02046 -0.03742,0.01122 -0.05119,-0.0279 -0.01132,-0.03217 -0.09927,-0.230127 -0.195435,-0.439894 -0.09616,-0.209768 -0.184106,-0.420693 -0.195429,-0.468723 l -0.02059,-0.08733 -0.104835,0.117838 c -0.05766,0.06481 -0.168164,0.248275 -0.245566,0.407699 -0.0774,0.159423 -0.159771,0.311268 -0.183044,0.337432 -0.03664,0.04119 -0.0306,0.06159 0.04496,0.152115 0.048,0.0575 0.08115,0.120517 0.07366,0.140038 -0.0075,0.01952 0.01977,0.102103 0.06057,0.183515 0.04081,0.08141 0.09154,0.20294 0.112754,0.270066 0.02121,0.06713 0.07114,0.200582 0.110956,0.296569 0.08034,0.193687 0.09353,0.344792 0.03215,0.368346 -0.02213,0.0085 -0.114284,-0.01063 -0.204782,-0.0425 -0.0905,-0.03187 -0.196644,-0.05794 -0.235879,-0.05794 -0.07792,0 -0.251659,-0.07977 -0.250911,-0.115204 0.0015,-0.07254 0.06604,-0.109986 0.178064,-0.103376 0.0669,0.0039 0.130426,-0.007 0.141168,-0.02443 0.01074,-0.01738 0.0067,-0.0316 -0.0091,-0.0316 -0.01574,0 -0.04618,-0.04462 -0.06766,-0.09916 -0.09793,-0.248711 -0.187642,-0.415197 -0.233132,-0.432653 -0.1015,-0.03895 -0.175059,0.09916 -0.217715,0.408779 -0.07622,0.553259 -0.0843,0.643792 -0.06077,0.680824 0.02103,0.03309 0.03605,0.324576 0.01694,0.328698 -0.03244,0.007 -0.526738,0.06462 -0.648375,0.07559 -0.08391,0.0076 -0.180495,0.0017 -0.214641,-0.01307 z m 0.469165,-3.128786 c 0.0393,-0.03455 0.08441,-0.08687 0.100258,-0.116264 0.0256,-0.0475 0.01519,-0.05221 -0.0937,-0.0424 -0.134329,0.0121 -0.219544,0.06456 -0.197631,0.12166 0.0077,0.02014 -0.03085,0.05497 -0.08572,0.07741 l -0.09977,0.04079 0.07628,0.02189 c 0.08757,0.02513 0.197328,-0.01255 0.30029,-0.103083 z m -0.103755,-0.522927 c 0.03569,-0.03489 0.08759,-0.07615 0.115345,-0.09168 0.0394,-0.02205 0.04665,-0.05663 0.03309,-0.157764 -0.0096,-0.07124 -0.02586,-0.129511 -0.03624,-0.129494 -0.02905,4.8e-5 -0.304331,0.475793 -0.307263,0.531025 -0.0014,0.02698 0.06458,-0.02448 0.195071,-0.152083 z" />
      <path
         id="path3245-2-34-0-5"
         style="fill:#000000;stroke-width:0.0305117"
         d="m -9.3825717,42.261987 c 0.01604,-0.02098 0.026885,-0.209768 0.024098,-0.419536 -0.00279,-0.209768 0.00517,-0.395126 0.017682,-0.411908 0.012511,-0.01678 0.054017,-0.186258 0.092235,-0.376614 0.066262,-0.330034 0.074434,-0.349464 0.1760346,-0.418503 0.099764,-0.06779 0.1144838,-0.100695 0.2312071,-0.516832 0.098759,-0.352095 0.132469,-0.436621 0.1622504,-0.406839 0.020677,0.02068 0.037593,0.08123 0.037593,0.134556 0,0.05333 0.022094,0.149841 0.049099,0.214472 0.027004,0.06463 0.051969,0.186447 0.055476,0.270704 0.00351,0.08426 0.017254,0.177341 0.030547,0.206854 0.020781,0.04614 0.016066,0.233979 -0.020837,0.830198 l -0.0075,0.121065 0.2135816,0.03987 c 0.4245025,0.07923 0.4831905,0.08082 0.5430755,0.01464 0.0505,-0.0558 0.05092,-0.06443 0.0054,-0.109944 -0.02717,-0.02717 -0.07656,-0.04939 -0.109753,-0.04939 -0.08238,0 -0.229104,-0.07912 -0.250597,-0.135124 -0.0097,-0.02522 0.016,-0.193919 0.05705,-0.374897 0.04105,-0.180978 0.07477,-0.351398 0.07492,-0.378711 1.15e-4,-0.02731 0.01999,-0.06602 0.04408,-0.08602 0.02409,-0.02 0.05322,-0.07924 0.06474,-0.131649 0.01668,-0.07597 0.0078,-0.105925 -0.04381,-0.147713 -0.03561,-0.02883 -0.06474,-0.07162 -0.06474,-0.09509 0,-0.02347 -0.01907,-0.06875 -0.04237,-0.100623 -0.02331,-0.03187 -0.03549,-0.0759 -0.02707,-0.09783 0.02143,-0.05584 -0.04739,-0.504687 -0.100429,-0.655021 -0.03274,-0.0928 -0.03529,-0.135357 -0.0099,-0.165896 0.01875,-0.02259 0.02441,-0.06528 0.01258,-0.09486 -0.07443,-0.186086 -0.117228,-0.427445 -0.121074,-0.682811 -0.0033,-0.221659 -0.017383,-0.313184 -0.057441,-0.374318 -0.040482,-0.06179 -0.04375,-0.08378 -0.013818,-0.09302 0.29675,-0.09161 0.537841,-0.184084 0.580787,-0.222766 0.02937,-0.02645 0.0534,-0.08573 0.0534,-0.131721 0,-0.06663 -0.02946,-0.10215 -0.144931,-0.174774 -0.07971,-0.05013 -0.236176,-0.120856 -0.3477,-0.157166 -0.2263933,-0.07371 -0.2451489,-0.101985 -0.2214784,-0.333876 0.00916,-0.08971 1.153e-4,-0.158395 -0.024764,-0.188364 -0.078236,-0.0942 -0.1924561,-0.151158 -0.3030998,-0.151158 -0.1199983,0 -0.151175,0.02821 -0.2954725,0.267329 -0.062978,0.104365 -0.082374,0.116465 -0.1678146,0.104691 -0.053132,-0.0073 -0.1172007,-0.03089 -0.1423727,-0.05237 -0.025172,-0.02148 -0.2105314,-0.0686 -0.4119087,-0.104704 -0.4540278,-0.0814 -0.9490738,-0.208274 -1.0602568,-0.27173 -0.07672,-0.04379 -0.0882,-0.04356 -0.134437,0.0027 -0.04706,0.04707 -0.04503,0.05194 0.02947,0.07064 0.04401,0.01105 0.07705,0.0339 0.07341,0.0508 -0.0036,0.01689 0.06204,0.05062 0.145948,0.07496 0.08391,0.02434 0.195825,0.06407 0.248705,0.08828 0.05288,0.02422 0.11729,0.04403 0.143131,0.04403 0.08467,0 0.08049,0.05019 -0.01152,0.138342 -0.07278,0.06973 -0.09045,0.112268 -0.09045,0.21776 0,0.121181 0.01905,0.152351 0.251722,0.411861 0.138446,0.154417 0.3104757,0.34015 0.3822877,0.41274 0.1088885,0.11007 0.1253515,0.141723 0.099162,0.190658 -0.049558,0.0926 -0.037451,0.123713 0.048141,0.123713 0.060925,0 0.075085,0.01162 0.060497,0.04964 -0.010471,0.0273 -0.0055,0.06596 0.011059,0.08591 0.038761,0.04671 -0.086816,0.44418 -0.1403328,0.44418 -0.056248,0 -0.1328115,0.124313 -0.1328115,0.215642 0,0.103812 0.087384,0.18101 0.2048934,0.18101 0.080273,0 0.096458,0.01384 0.1159402,0.09916 0.0507,0.222044 0.026484,0.422508 -0.1393513,1.153544 -0.017346,0.07647 -0.023149,0.160891 -0.012895,0.187612 0.010252,0.02672 0.00369,0.05782 -0.014575,0.06911 -0.022622,0.01398 -0.032149,0.25587 -0.029865,0.758251 0.00384,0.844489 0.011117,0.875024 0.2084499,0.875024 0.064684,0 0.1307312,-0.01716 0.146771,-0.03814 z m -0.21028,-3.550151 c 0.00899,-0.05347 0.095849,-0.145511 0.1171788,-0.124182 0.00513,0.0051 -0.00722,0.05317 -0.027451,0.106753 -0.038817,0.102839 -0.1063099,0.115948 -0.089728,0.01743 z m -0.3710462,-1.057117 c -0.4738051,-0.521712 -0.4862701,-0.541017 -0.4054141,-0.627885 0.02611,-0.02805 0.09623,-0.103879 0.155831,-0.168509 0.06989,-0.07579 0.125181,-0.111053 0.155736,-0.09933 0.02606,0.01 0.1480186,0.04742 0.2710245,0.08316 0.3222994,0.09365 0.330404,0.118092 0.1853651,0.559073 -0.075631,0.229949 -0.1085448,0.376936 -0.095787,0.427767 0.01069,0.04259 0.00648,0.07744 -0.00935,0.07744 -0.015836,0 -0.1316653,-0.113275 -0.2573985,-0.251722 z" />
      <path
         id="path3676-0-2-6-3-2"
         style="fill:#000000;stroke-width:0.0305117"
         d="m -3.7324617,42.347303 c -0.214057,-0.01395 -0.294135,-0.03175 -0.343257,-0.07632 -0.03524,-0.03197 -0.06407,-0.07447 -0.06407,-0.09444 0,-0.06527 0.104192,-0.12895 0.238834,-0.145961 0.233123,-0.02945 0.238741,-0.04363 0.263912,-0.666014 0.01564,-0.386687 0.03329,-0.554364 0.05941,-0.564388 0.02171,-0.0083 0.03187,-0.05034 0.02443,-0.101012 -0.007,-0.04771 0.0023,-0.09605 0.02071,-0.107422 0.01932,-0.01194 0.03344,-0.114964 0.03344,-0.243979 0,-0.122822 0.01903,-0.269613 0.04229,-0.326201 0.02326,-0.05659 0.0515,-0.146116 0.06277,-0.19895 l 0.02048,-0.09606 -0.161928,-0.02167 c -0.240595,-0.0322 -0.392602,-0.202824 -0.664827,-0.746237 -0.20841,-0.416026 -0.25025,-0.557781 -0.204159,-0.691698 0.01865,-0.05418 -0.0029,-0.08333 -0.128546,-0.17357 -0.08303,-0.05965 -0.176127,-0.129629 -0.206889,-0.155512 -0.03076,-0.02588 -0.08339,-0.06894 -0.116955,-0.09567 -0.03356,-0.02673 -0.04043,-0.03971 -0.01525,-0.02883 0.02517,0.01087 0.01972,-0.0014 -0.01212,-0.02727 -0.03184,-0.02588 -0.0681,-0.04075 -0.08057,-0.03304 -0.01247,0.0077 -0.04509,-0.02019 -0.07249,-0.062 -0.04725,-0.07212 -0.04674,-0.07602 0.01011,-0.07602 0.03296,0 0.06899,0.01467 0.08008,0.03261 0.0322,0.0521 0.959265,0.640888 1.097123,0.696793 0.01678,0.0068 0.073,0.04456 0.124931,0.08391 0.115157,0.08725 0.146884,0.08854 0.256534,0.01046 0.08419,-0.05995 0.19896,-0.315594 0.165784,-0.369274 -0.0089,-0.01434 -0.0014,-0.05361 0.01665,-0.08728 0.01802,-0.03367 0.0405,-0.119764 0.04997,-0.19133 0.0095,-0.07157 0.03655,-0.169988 0.06019,-0.218716 0.05418,-0.111676 0.05447,-0.109731 -0.01624,-0.109731 -0.03257,0 -0.06785,-0.01395 -0.07839,-0.03101 -0.01054,-0.01706 -0.03195,-0.02311 -0.04757,-0.01346 -0.01562,0.0097 -0.0284,-0.0098 -0.0284,-0.04321 0,-0.03414 -0.02697,-0.06933 -0.06154,-0.0803 -0.0836,-0.02653 -0.164385,-0.222786 -0.12529,-0.304369 0.01624,-0.03388 0.03763,-0.09899 0.04752,-0.144671 0.0099,-0.04568 0.04639,-0.109511 0.08109,-0.141838 0.17603,-0.163997 0.513035,-0.04993 0.563074,0.190593 0.01091,0.05243 0.04012,0.127334 0.06493,0.166448 0.0248,0.03911 0.03831,0.08878 0.03002,0.110381 -0.01526,0.03977 0.236662,0.450686 0.287789,0.46942 0.01527,0.0056 0.02776,0.03748 0.02776,0.07086 0,0.05994 10e-4,0.05991 0.08039,-0.0025 0.05114,-0.04022 0.125159,-0.06324 0.203411,-0.06324 0.06766,0 0.113833,0.0092 0.102609,0.02041 -0.01122,0.01122 -6.1e-5,0.0429 0.02483,0.0704 0.025,0.02762 0.05079,0.129808 0.05763,0.228349 0.01085,0.156158 0.0036,0.186522 -0.05836,0.243928 -0.06872,0.06369 -0.06907,0.06662 -0.01221,0.102128 0.0322,0.02011 0.07746,0.03656 0.100577,0.03656 0.0424,0 0.141861,0.218519 0.141861,0.311688 0,0.05726 -0.152628,0.176499 -0.225919,0.176499 -0.02835,0 -0.04869,0.0255 -0.04869,0.06102 0,0.0494 0.02034,0.06102 0.106791,0.06102 0.23466,0 0.303481,0.221284 0.122046,0.392417 -0.05873,0.0554 -0.106791,0.118527 -0.106791,0.140281 0,0.05505 -0.08945,0.123303 -0.161598,0.123303 -0.04593,0 -0.0686,0.03294 -0.09561,0.138904 -0.03785,0.148477 -0.02886,0.391552 0.01624,0.439294 0.01506,0.01594 0.02739,0.05896 0.02739,0.0956 0,0.03934 0.02329,0.07271 0.05689,0.08149 0.06579,0.01721 0.108685,0.189115 0.07784,0.31199 -0.01414,0.05632 -0.0086,0.07675 0.01923,0.07048 0.05727,-0.01292 0.146616,0.441064 0.167889,0.853123 0.01859,0.360106 0.01906,0.358718 -0.117252,0.344624 -0.03011,-0.0031 -0.122775,-0.05618 -0.205922,-0.117933 -0.119431,-0.0887 -0.151182,-0.13049 -0.151208,-0.199035 -2.4e-5,-0.06191 0.01794,-0.09146 0.06272,-0.103173 0.03451,-0.009 0.05636,-0.03307 0.04855,-0.05343 -0.0078,-0.02036 -0.04486,-0.152425 -0.08232,-0.293478 -0.0872,-0.328337 -0.103185,-0.357203 -0.204229,-0.368854 -0.06695,-0.0077 -0.105196,-0.04774 -0.19071,-0.199538 -0.05883,-0.104436 -0.116162,-0.19025 -0.127399,-0.190699 -0.01123,-4.61e-4 -0.04393,0.07127 -0.07264,0.159371 -0.02871,0.0881 -0.07043,0.194512 -0.09269,0.236466 -0.02226,0.04195 -0.07882,0.261639 -0.125683,0.488188 -0.07976,0.385575 -0.08964,0.531809 -0.06288,0.930607 l 0.0082,0.122046 -0.152559,0.0029 c -0.08391,0.0016 -0.278193,-0.0052 -0.431747,-0.01526 z m 0.413992,-2.799802 c 0.02443,-0.08848 0.02173,-0.118747 -0.01295,-0.144931 -0.03764,-0.02842 -0.03533,-0.05188 0.01632,-0.166102 0.03308,-0.07315 0.05986,-0.155536 0.0595,-0.183071 -9.22e-4,-0.07266 -0.219385,-0.218455 -0.296921,-0.19818 -0.044,0.01151 -0.07379,-0.003 -0.09754,-0.04733 -0.01881,-0.03514 -0.04999,-0.0639 -0.0693,-0.0639 -0.04868,0 -0.176335,-0.124223 -0.176335,-0.171591 0,-0.04938 -0.385927,-0.326827 -0.422862,-0.303999 -0.01514,0.0094 -0.03469,0.05446 -0.04343,0.100225 -0.01191,0.06228 0.04162,0.199673 0.212786,0.546164 0.233467,0.472617 0.364781,0.668512 0.479082,0.714704 0.03536,0.01429 0.121998,0.02685 0.19253,0.02792 0.12226,0.0018 0.129681,-0.0033 0.159121,-0.109901 z" />
      <path
         id="path3690-6-6-2-5-6"
         style="fill:#000000;stroke-width:0.0305117"
         d="m -3.9402708,42.045037 c 0.06085,-0.06085 0.06531,-0.400462 0.0071,-0.540383 -0.02247,-0.054 -0.03529,-0.114647 -0.02849,-0.134771 0.0068,-0.02012 -0.07992,-0.222246 -0.192703,-0.449165 -0.166127,-0.334235 -0.227345,-0.428017 -0.322399,-0.493889 -0.0878,-0.06084 -0.117332,-0.102367 -0.117332,-0.164962 0,-0.04601 -0.0206,-0.100741 -0.04577,-0.121632 -0.02517,-0.02089 -0.04577,-0.0689 -0.04577,-0.106691 0,-0.03779 -0.01866,-0.121922 -0.04147,-0.186962 -0.02281,-0.06504 -0.05117,-0.243603 -0.06303,-0.396807 l -0.02156,-0.278549 0.08591,-0.03542 c 0.16134,-0.06651 0.253216,-0.127569 0.28703,-0.19075 0.02959,-0.05529 0.01297,-0.08452 -0.133588,-0.23492 -0.217592,-0.223295 -0.245011,-0.280438 -0.220404,-0.459354 0.01769,-0.12863 0.01061,-0.156051 -0.06289,-0.243396 -0.06753,-0.08025 -0.101692,-0.09681 -0.184953,-0.08963 -0.08435,0.0073 -0.117897,-0.0097 -0.192722,-0.0972 -0.04983,-0.0583 -0.09116,-0.122481 -0.09184,-0.142624 -6.92e-4,-0.02014 -0.01983,-0.0476 -0.04256,-0.06102 -0.02272,-0.01342 -0.05753,-0.05529 -0.07735,-0.09305 -0.01982,-0.03776 -0.06302,-0.06865 -0.09599,-0.06865 -0.03297,0 -0.05995,-0.01149 -0.05995,-0.02552 0,-0.03789 -0.321735,-0.193702 -0.410624,-0.198858 -0.09167,-0.0053 -0.113336,-0.04777 -0.124506,-0.243929 -0.01009,-0.177303 -0.108335,-0.297867 -0.286115,-0.351133 -0.251621,-0.07539 -0.398516,-0.02361 -0.459797,0.162077 -0.0191,0.05788 -0.06134,0.113685 -0.09387,0.124009 -0.07897,0.02506 -0.07452,0.05915 0.01714,0.131252 0.04195,0.033 0.07636,0.07862 0.07647,0.101378 9.1e-5,0.02276 0.01858,0.07662 0.04106,0.119689 0.02248,0.04307 0.05024,0.115642 0.06169,0.161266 0.01241,0.04945 0.05211,0.09485 0.0983,0.112413 l 0.07748,0.02946 -0.06308,0.08859 c -0.04021,0.05647 -0.06325,0.136663 -0.06355,0.221184 -6.92e-4,0.185217 -0.03357,0.227248 -0.109549,0.139868 -0.156773,-0.180305 -0.653243,-0.953742 -0.744204,-1.159372 -0.06459,-0.146027 -0.110615,-0.179716 -0.140195,-0.102628 -0.01632,0.04254 0.08805,0.243939 0.113319,0.218669 0.0075,-0.0075 0.0155,0.0097 0.01771,0.03825 0.0076,0.09804 0.02604,0.145071 0.127423,0.324717 0.09784,0.173367 0.09987,0.183592 0.05508,0.277512 -0.04974,0.104303 -0.04653,0.150356 0.05515,0.792229 0.107239,0.676971 0.174347,0.823789 0.559322,1.223675 0.256792,0.266738 0.268762,0.27504 0.300273,0.208268 0.02822,-0.0598 0.02362,-0.07185 -0.0328,-0.08601 -0.06365,-0.01597 -0.433508,-0.368323 -0.516031,-0.491601 -0.08906,-0.133043 -0.147479,-0.346663 -0.235255,-0.860263 -0.05799,-0.339331 -0.08424,-0.57622 -0.07143,-0.644549 l 0.02027,-0.108035 0.0598,0.07385 c 0.03289,0.04062 0.09287,0.1391 0.133278,0.218847 0.06231,0.122971 0.06762,0.154406 0.03493,0.206946 -0.03207,0.05155 -0.02957,0.07762 0.01486,0.155258 0.02937,0.05132 0.0534,0.144911 0.0534,0.207982 0,0.09406 0.01434,0.121214 0.07979,0.15103 0.04388,0.01999 0.10456,0.02849 0.134842,0.01888 0.05931,-0.01882 0.07068,0.0043 0.105339,0.213914 0.02334,0.141184 0.09666,0.269462 0.139049,0.243266 0.01604,-0.0099 0.02917,0.02107 0.02917,0.06885 0,0.04779 0.02805,0.141276 0.06234,0.207755 0.09558,0.185332 0.105147,0.381947 0.02518,0.51748 -0.08205,0.139058 -0.120935,0.339313 -0.0845,0.435139 0.01729,0.04546 0.01577,0.09427 -0.0041,0.131368 -0.02161,0.04039 -0.02172,0.07747 -3.46e-4,0.117437 0.01719,0.03213 0.03986,0.200323 0.05036,0.373769 0.01051,0.173446 0.03587,0.350724 0.05636,0.393951 0.06687,0.141061 -0.02933,0.258606 -0.283655,0.346576 -0.195968,0.06778 -0.152877,0.230831 0.061,0.230831 0.06561,0 0.170338,-0.02166 0.232729,-0.04813 0.06239,-0.02647 0.175225,-0.05454 0.250741,-0.06238 0.223881,-0.02322 0.224061,-0.02341 0.198415,-0.202748 -0.01256,-0.08782 -0.02502,-0.403411 -0.02769,-0.701313 -0.0044,-0.488034 3.46e-4,-0.543288 0.04763,-0.558298 0.02887,-0.0092 0.09074,-0.07713 0.137499,-0.151031 0.07821,-0.123619 0.08919,-0.130587 0.137257,-0.08709 0.05776,0.05227 0.117119,0.03256 0.117119,-0.0389 0,-0.03028 0.02341,-0.04274 0.06825,-0.03634 0.04669,0.0067 0.118775,0.08687 0.228164,0.253844 0.203869,0.311194 0.484053,0.62549 0.557599,0.62549 0.03716,0 0.097,0.0662 0.172399,0.190698 0.06351,0.104884 0.146891,0.237238 0.18528,0.294119 0.07703,0.114133 0.08958,0.262204 0.03279,0.386843 -0.03392,0.07444 -0.02878,0.08858 0.06151,0.16925 0.110541,0.09877 0.248468,0.115817 0.32421,0.04008 z m -2.393602,-3.202288 c -0.02123,-0.02558 -0.03095,-0.05415 -0.02161,-0.0635 0.02335,-0.02335 0.144264,0.04417 0.144264,0.08056 0,0.04575 -0.07973,0.03466 -0.122659,-0.01707 z" />
    </g>
  </g>
</svg>
