<?xml version="1.0" encoding="UTF-8" standalone="no"?>
<!-- Created with Inkscape (http://www.inkscape.org/) -->

<svg
   width="14.764466mm"
   height="6.0965981mm"
   viewBox="0 0 14.764466 6.0965981"
   version="1.1"
   id="svg1"
   sodipodi:docname="inkporter-svg-ah7yib3z.svg"
   xmlns:inkscape="http://www.inkscape.org/namespaces/inkscape"
   xmlns:sodipodi="http://sodipodi.sourceforge.net/DTD/sodipodi-0.dtd"
   xmlns="http://www.w3.org/2000/svg"
   xmlns:svg="http://www.w3.org/2000/svg">
  <sodipodi:namedview
     id="namedview1"
     pagecolor="#ffffff"
     bordercolor="#666666"
     borderopacity="1.0"
     inkscape:showpageshadow="2"
     inkscape:pageopacity="0.0"
     inkscape:pagecheckerboard="0"
     inkscape:deskcolor="#d1d1d1"
     inkscape:document-units="mm"
     inkscape:zoom="1.4556538"
     inkscape:cx="363.4106"
     inkscape:cy="674.95446"
     inkscape:window-width="1920"
     inkscape:window-height="1017"
     inkscape:window-x="-8"
     inkscape:window-y="-8"
     inkscape:window-maximized="1"
     inkscape:current-layer="layer1" />
  <defs
     id="defs1" />
  <g
     inkscape:label="Layer 1"
     inkscape:groupmode="layer"
     id="layer1"
     transform="translate(-132.61931,-157.56959)">
    <g
       id="F-Infantry5-Pf"
       transform="translate(165.8298,121.05587)">
      <path
         style="fill:#000000;stroke-width:0.0394053"
         d="m -31.922884,42.37282 c -0.01281,-0.03601 -0.04284,-0.112528 -0.06665,-0.170046 l -0.04338,-0.104573 0.04726,-0.0936 c 0.06485,-0.128577 0.05924,-0.374774 -0.01083,-0.47489 l -0.05799,-0.08286 0.0018,-0.168357 0.0018,-0.168355 0.06566,-0.112244 0.06566,-0.112244 -0.01272,-0.199995 -0.01271,-0.200013 -0.05194,-0.177728 -0.07866,-0.177737 -0.03269,0.041 c -0.01911,0.0193 -0.05376,0.174112 -0.07696,0.343858 -0.05822,0.424735 -0.08961,0.543358 -0.167038,0.630777 l -0.06668,0.07528 0.0082,0.192238 c 0.0045,0.105745 0.011,0.246986 0.01502,0.313878 l 0.0073,0.121629 -0.04739,0.01556 c -0.02603,0.0081 -0.0474,0.06851 -0.0474,0.133239 v 0.117688 l -0.09288,0.06406 c -0.05112,0.03516 -0.13631,0.06406 -0.189382,0.06406 h -0.09648 l -0.02247,-0.0577 c -0.01229,-0.03173 0.01647,-0.141827 0.06405,-0.244641 0.08842,-0.191219 0.103902,-0.308589 0.06112,-0.465426 l -0.0242,-0.08872 -0.08306,-0.02142 -0.08315,-0.02142 0.02993,-0.239599 c 0.01638,-0.131784 0.04312,-0.276632 0.05922,-0.321911 0.0162,-0.04526 0.02457,-0.202667 0.01864,-0.349779 -0.0054,-0.147112 0.0091,-0.341554 0.03293,-0.432081 0.02401,-0.09054 0.08638,-0.365315 0.09281,-0.619163 0.006,-0.253848 0.02308,-0.497527 0.03706,-0.541504 l 0.02539,-0.07992 -0.110931,-0.0478 c -0.06099,-0.02622 -0.186273,-0.100359 -0.278383,-0.164616 l -0.167478,-0.116828 V 38.306959 38.18301 l 0.20143,-0.194448 c 0.110794,-0.106957 0.283675,-0.27706 0.384209,-0.378009 l 0.182773,-0.183543 0.144703,-0.02458 0.144685,-0.02448 0.02625,0.04257 0.02625,0.04257 0.05559,-0.04615 0.05559,-0.04615 v -0.134331 -0.134331 l -0.0591,-0.02264 c -0.03251,-0.01248 -0.0591,-0.04693 -0.0591,-0.07654 0,-0.09834 0.186375,-0.390143 0.281067,-0.440081 l 0.09328,-0.04915 0.118223,0.0239 c 0.06502,0.01316 0.157802,0.06028 0.20619,0.104665 l 0.08797,0.08079 -0.0026,0.293984 -0.0026,0.293974 -0.07712,0.02022 -0.0772,0.02013 0.01192,0.08196 0.01192,0.08196 0.08115,0.02138 c 0.09145,0.024 0.260146,0.150964 0.310714,0.23379 0.03122,0.05109 0.07532,0.356752 0.125788,0.871173 l 0.02128,0.216731 -0.116378,0.172048 -0.116361,0.172048 0.05927,0.123494 c 0.0326,0.06793 0.113487,0.181124 0.179744,0.251555 l 0.120504,0.128071 h 0.07532 0.07532 l -0.02393,0.06231 c -0.01312,0.03435 -0.02393,0.09057 -0.02393,0.12509 v 0.0628 l -0.09121,-0.08573 c -0.05018,-0.04712 -0.105912,-0.08573 -0.123883,-0.08573 -0.01802,0 -0.08812,-0.06405 -0.155846,-0.142459 l -0.123155,-0.142478 -0.05439,0.101598 -0.05439,0.101578 0.08466,0.203755 c 0.04658,0.112067 0.08467,0.236867 0.08467,0.277313 v 0.07354 h -0.07883 -0.07883 v -0.08863 c 0,-0.04877 -0.01578,-0.112647 -0.0344,-0.141965 l -0.0338,-0.05331 -0.02942,0.270036 c -0.01622,0.148525 -0.02835,0.46921 -0.02681,0.714348 l 0.0027,0.445712 -0.09906,0.10631 -0.09907,0.106308 -0.02941,0.177157 -0.02941,0.177157 0.06837,0.173757 c 0.03761,0.09556 0.06837,0.200961 0.06837,0.234207 v 0.06045 h -0.187748 -0.18774 l -0.02327,-0.06551 z"
         id="path129-5-4"
         sodipodi:nodetypes="ccccscccccccccccscssccsccscccscccccccccccscccssccccccccccscccccccccccccscccssccccsccscccccscccsccccccccccsccccc" />
      <path
         id="path131-0-1"
         style="fill:#000000;stroke-width:0.0305117"
         d="m -18.466472,42.15436 c 0.04118,-0.04118 0.0184,-0.144258 -0.05238,-0.237058 -0.06332,-0.08302 -0.07683,-0.148457 -0.10448,-0.506323 -0.01747,-0.226038 -0.02937,-0.526035 -0.02644,-0.66666 0.0044,-0.213724 -0.0034,-0.261253 -0.04797,-0.289638 -0.03927,-0.02502 -0.06795,-0.0248 -0.109022,8.53e-4 -0.04521,0.02824 -0.06251,0.02395 -0.09164,-0.02269 -0.01975,-0.03162 -0.03591,-0.08926 -0.03591,-0.128089 0,-0.03883 -0.01206,-0.08364 -0.02681,-0.09958 -0.01474,-0.01594 -0.04194,-0.125098 -0.06045,-0.242568 -0.0185,-0.11747 -0.0475,-0.280333 -0.06444,-0.361917 -0.02539,-0.12225 -0.02192,-0.163379 0.01974,-0.233891 0.04655,-0.07881 0.04668,-0.09352 0.0016,-0.186502 -0.03544,-0.07317 -0.03988,-0.111798 -0.01615,-0.140389 0.02066,-0.0249 0.0254,-0.111007 0.01286,-0.233448 -0.01925,-0.187836 -0.0172,-0.195749 0.06449,-0.248889 0.166852,-0.108545 0.403977,-0.33518 0.404355,-0.386466 6.92e-4,-0.08862 -0.178005,-0.261254 -0.329039,-0.317939 -0.07893,-0.02962 -0.206813,-0.0923 -0.284186,-0.139283 -0.07737,-0.04698 -0.149455,-0.08542 -0.160186,-0.08542 -0.01072,0 -0.04678,-0.02727 -0.08011,-0.0606 -0.0524,-0.0524 -0.08596,-0.05795 -0.248004,-0.04101 -0.173524,0.01814 -0.191583,0.01415 -0.243838,-0.05382 -0.06056,-0.07877 -0.07741,-0.256007 -0.02728,-0.286988 0.01678,-0.01037 0.03051,-0.06353 0.03051,-0.118139 0,-0.171586 -0.263076,-0.350696 -0.556765,-0.379063 l -0.144855,-0.01399 0.0071,0.148805 c 0.0061,0.126178 -8.08e-4,0.147454 -0.0455,0.13992 -0.02895,-0.0049 -0.08114,0.0064 -0.11598,0.02501 -0.08007,0.04285 -0.03487,0.108314 0.09441,0.136708 0.07637,0.01677 0.08799,0.0328 0.08433,0.11638 -0.0023,0.05331 0.0049,0.120955 0.01611,0.150323 0.0112,0.02937 0.02728,0.07529 0.03576,0.10206 0.0085,0.02677 0.0428,0.05583 0.07628,0.06458 0.08977,0.02347 0.07405,0.09593 -0.03367,0.15515 -0.231233,0.127127 -0.264828,0.193165 -0.318773,0.626615 -0.01009,0.08111 -0.03794,0.202977 -0.06187,0.270813 -0.05864,0.166204 -0.05326,0.402077 0.01359,0.595558 l 0.05511,0.159518 -0.277318,0.285211 c -0.308088,0.316857 -0.758695,0.714267 -0.86458,0.762511 -0.03781,0.01723 -0.06874,0.05529 -0.06874,0.08459 0,0.08043 0.120076,0.04109 0.225232,-0.07379 0.04836,-0.05284 0.07689,-0.07547 0.06341,-0.0503 -0.02372,0.04427 0.0999,-0.04436 0.141937,-0.101769 0.01026,-0.01402 0.03086,-0.02469 0.04577,-0.02371 0.01491,9.8e-4 0.09432,-0.0562 0.176483,-0.127069 0.08216,-0.07087 0.166144,-0.138806 0.186633,-0.150975 0.04117,-0.02445 0.38101,0.03806 0.38101,0.07008 0,0.01105 -0.02546,0.05284 -0.05659,0.09286 -0.07005,0.09008 -0.121002,0.253097 -0.121949,0.390159 -3.46e-4,0.0571 -0.01531,0.112829 -0.03315,0.123852 -0.03172,0.0196 -0.0652,0.40482 -0.07385,0.849621 -0.0049,0.250683 -0.03521,0.291938 -0.285139,0.387808 -0.149129,0.0572 -0.200166,0.15517 -0.113755,0.218355 0.08044,0.05882 0.173604,0.05015 0.385171,-0.03582 0.103248,-0.04195 0.230788,-0.07628 0.283424,-0.07628 0.05263,0 0.120143,-0.01787 0.150021,-0.03972 0.04907,-0.03588 0.05082,-0.05754 0.01808,-0.223945 -0.02984,-0.151694 -0.02794,-0.226839 0.01076,-0.425581 0.02585,-0.132747 0.05586,-0.299641 0.06669,-0.370874 0.01083,-0.07123 0.03222,-0.137262 0.04754,-0.146731 0.01532,-0.0095 0.02786,-0.04387 0.02786,-0.07644 0,-0.04252 0.0211,-0.05922 0.0748,-0.05922 0.05926,0 0.104773,-0.04597 0.21901,-0.22121 0.132711,-0.203573 0.14571,-0.215128 0.16304,-0.144931 0.02928,0.118617 0.106031,0.0953 0.11693,-0.03552 0.01719,-0.20633 0.07972,-0.160797 0.268884,0.195795 0.09871,0.186082 0.200073,0.348052 0.225245,0.359932 0.02517,0.01188 0.09598,0.04303 0.157358,0.06923 0.08466,0.03613 0.116744,0.07109 0.132944,0.144853 0.01175,0.05347 0.06775,0.23623 0.124445,0.406123 0.0567,0.169893 0.103285,0.347086 0.103521,0.393761 2.31e-4,0.04668 0.0205,0.09257 0.04504,0.101982 0.02453,0.0094 0.05362,0.04674 0.06463,0.08295 0.03568,0.117293 0.10813,0.172624 0.226033,0.172624 0.06173,0 0.121387,-0.0092 0.132574,-0.02034 z m -0.331351,-1.682422 c 0.0094,-0.0094 0.03402,-1.9e-5 0.05471,0.02083 0.02991,0.03013 0.02641,0.03364 -0.01708,0.01708 -0.03009,-0.01146 -0.04703,-0.02852 -0.03763,-0.03791 z m -2.260885,-0.594526 c -0.0059,-0.0059 0.02943,-0.04933 0.0786,-0.09644 0.103297,-0.09896 0.188222,-0.08884 0.164236,0.01958 -0.03186,0.144013 -0.03278,0.144804 -0.134766,0.115555 -0.0535,-0.01534 -0.102135,-0.03276 -0.108072,-0.03869 z m 0.446245,-2.633636 c 0,-0.02525 0.05925,-0.03953 0.07283,-0.01756 0.0088,0.01426 -0.004,0.02592 -0.0284,0.02592 -0.02443,0 -0.04443,-0.0038 -0.04443,-0.0084 z" />
      <path
         style="fill:#000000;stroke-width:0.0391139"
         d="m -23.27927,42.561006 -0.08311,-0.03352 -0.03066,-0.188861 c -0.03533,-0.218086 -0.03619,-0.559742 -0.0017,-0.668752 l 0.02384,-0.07491 -0.07893,-0.100327 c -0.09603,-0.122071 -0.100183,-0.234279 -0.01362,-0.366445 l 0.06531,-0.09971 0.0178,-0.30707 c 0.0098,-0.168893 0.0068,-0.351712 -0.0068,-0.406265 -0.02222,-0.08846 -0.164102,-0.209049 -0.201728,-0.171438 -0.0077,0.0077 -0.03406,0.145861 -0.0579,0.306302 l -0.04333,0.291714 -0.09881,0.206801 -0.09879,0.206792 0.05117,0.06176 0.05126,0.06176 -0.08674,0.07021 -0.08675,0.07021 v 0.313784 0.313775 l -0.07271,0.02305 c -0.04002,0.01268 -0.101715,0.01191 -0.137195,-0.0019 l -0.06445,-0.02478 -0.104032,0.06809 -0.104014,0.06809 -0.148655,0.0038 -0.148665,0.0038 -0.05015,-0.051 -0.05015,-0.051 0.09777,-0.07597 c 0.307334,-0.238602 0.393085,-0.323303 0.414771,-0.409732 l 0.0241,-0.09607 -0.06011,-0.09182 c -0.03304,-0.05052 -0.07238,-0.156868 -0.08727,-0.236411 l -0.02716,-0.144613 0.06199,-0.04697 0.06199,-0.04697 0.02256,-0.371583 c 0.01243,-0.204372 0.04163,-0.508532 0.06505,-0.675927 l 0.04249,-0.304343 -0.06318,-0.06982 c -0.03474,-0.03842 -0.07331,-0.121457 -0.08576,-0.184586 l -0.02256,-0.114772 0.09925,-0.185787 0.09925,-0.185797 h -0.110859 -0.110861 l -0.152062,-0.114858 c -0.245781,-0.185701 -0.28895,-0.232801 -0.28895,-0.315312 0,-0.07751 0.216867,-0.41261 0.370077,-0.571879 0.04385,-0.04552 0.137222,-0.154746 0.207484,-0.242597 l 0.127762,-0.159711 0.234917,-0.0266 c 0.129208,-0.0146 0.244369,-0.04188 0.255914,-0.06051 0.0115,-0.01873 -0.01524,-0.034 -0.05952,-0.034 h -0.08055 v -0.05638 c 0,-0.03102 0.01558,-0.06598 0.03465,-0.0777 0.01899,-0.01172 0.04657,-0.101182 0.06122,-0.198705 l 0.02657,-0.177321 0.07884,-0.07343 c 0.04333,-0.04039 0.134615,-0.08198 0.202826,-0.09245 l 0.124023,-0.01903 0.125726,0.05158 0.125735,0.05159 0.02316,0.110138 c 0.01269,0.0606 0.043,0.188275 0.06718,0.283771 l 0.04402,0.173628 -0.047,0.01565 c -0.08353,0.02785 -0.167125,0.133885 -0.155034,0.196659 0.0068,0.03361 0.09069,0.10729 0.187116,0.163697 l 0.175324,0.102536 0.0465,0.154256 c 0.02563,0.08481 0.04785,0.304737 0.04956,0.488667 l 0.0026,0.334434 0.04214,0.04216 0.04214,0.04216 -0.04794,0.160038 -0.04793,0.160018 0.05474,0.06598 c 0.03005,0.03631 0.112622,0.09019 0.183404,0.119767 l 0.128697,0.05378 -0.02222,0.03592 c -0.01226,0.01979 0.01788,0.05657 0.06692,0.08173 0.04896,0.02516 0.146443,0.100039 0.216517,0.166376 l 0.12743,0.120621 0.10725,0.0019 0.107266,0.0019 0.01201,0.102555 0.012,0.102575 -0.06199,0.02372 -0.06207,0.02382 -0.412242,-0.278652 -0.412242,-0.278642 -0.05467,0.05465 -0.05467,0.05465 -0.03951,0.2736 c -0.02172,0.150481 -0.03993,0.364533 -0.04027,0.475685 0,0.111151 -0.01566,0.207954 -0.03388,0.215128 l -0.03313,0.01306 0.03772,0.330918 0.03772,0.330929 -0.04377,0.0146 c -0.0241,0.0077 -0.04377,0.05897 -0.04377,0.11337 v 0.09878 l -0.08353,0.08673 -0.08344,0.08673 -0.01848,0.133904 c -0.03533,0.255467 -0.02359,0.384569 0.04956,0.546882 l 0.07357,0.16315 -0.07408,0.05417 c -0.08318,0.0608 -0.157086,0.06493 -0.27915,0.01566 z"
         id="path133-8-9" />
      <path
         style="fill:#000000;stroke-width:0.0385012"
         d="m -26.735274,42.603349 c -0.179986,-0.0276 -0.183841,-0.16084 -0.0067,-0.23649 0.05674,-0.0242 0.148832,-0.10412 0.204727,-0.17752 l 0.101614,-0.13343 0.02648,-0.17645 0.02648,-0.17647 -0.07996,-0.0559 -0.07996,-0.056 v -0.0923 c 0,-0.0507 0.01919,-0.13432 0.04258,-0.18574 l 0.04258,-0.0935 -0.0409,-0.16821 c -0.02247,-0.0925 -0.08498,-0.29608 -0.138843,-0.45237 l -0.09796,-0.28419 v -0.18495 c 0,-0.20085 -0.05323,-0.38247 -0.112065,-0.38247 -0.02028,0 -0.05891,0.0607 -0.08568,0.13474 -0.02682,0.0741 -0.0678,0.13476 -0.09119,0.13476 -0.02338,0 -0.100508,-0.0598 -0.17143,-0.13306 l -0.128953,-0.13305 0.157433,-0.20853 0.15745,-0.20854 -0.190037,-0.21322 c -0.104522,-0.11727 -0.190043,-0.24243 -0.190043,-0.27813 0,-0.0358 0.02405,-0.15419 0.05347,-0.26335 0.02942,-0.10913 0.07459,-0.30071 0.10034,-0.4257 l 0.04686,-0.22728 0.115652,-0.10565 c 0.06361,-0.0581 0.165747,-0.11565 0.226939,-0.12789 l 0.11126,-0.0223 v -0.0779 -0.078 h -0.09268 -0.09266 l -0.0025,-0.28646 -0.0025,-0.28647 0.09952,-0.0783 c 0.05473,-0.0431 0.15848,-0.0894 0.230542,-0.10287 l 0.131024,-0.0246 0.09547,0.0626 c 0.05247,0.0344 0.105964,0.1044 0.118795,0.15553 0.01282,0.0512 0.04777,0.10235 0.07761,0.11381 0.07871,0.0301 0.06654,0.16373 -0.02624,0.28924 l -0.08046,0.10889 0.05121,0.0821 c 0.02816,0.0451 0.07745,0.0822 0.109376,0.0823 0.03193,6e-5 0.115583,0.0352 0.18581,0.078 l 0.127688,0.0779 0.343957,-0.35325 0.343948,-0.35324 v -0.0648 c 0,-0.0938 0.0388,-0.11873 0.118317,-0.0762 l 0.06973,0.0373 -0.01524,0.079 c -0.0084,0.0435 -0.154641,0.23631 -0.325023,0.42849 l -0.309795,0.34944 -0.0058,0.0815 c -0.0076,0.10658 -0.0058,0.11857 0.05557,0.38949 0.029,0.12705 0.07409,0.27082 0.100205,0.31948 l 0.04753,0.0885 -0.03888,0.20029 -0.03888,0.20027 0.0076,0.79847 0.0076,0.79848 -0.04534,0.0173 c -0.07811,0.0299 -0.117647,-0.0662 -0.125408,-0.3053 -0.0042,-0.12705 -0.02138,-0.33496 -0.03846,-0.46201 l -0.03101,-0.23101 -0.005,0.15233 c -0.0025,0.0838 -0.03293,0.31974 -0.06705,0.52436 l -0.06194,0.37204 0.06328,0.2784 c 0.03478,0.15312 0.07208,0.38494 0.0828,0.51516 0.01073,0.13023 0.03738,0.29274 0.05918,0.36116 0.02179,0.0683 0.02749,0.14407 0.01249,0.16816 l -0.02707,0.0439 -0.167281,-0.023 c -0.092,-0.0127 -0.194074,-0.0127 -0.226838,-8e-5 l -0.05959,0.0229 0.02422,0.12925 0.02422,0.12925 -0.109969,0.0432 c -0.06051,0.0238 -0.161942,0.0661 -0.225464,0.0939 -0.149546,0.0654 -0.246809,0.0827 -0.365764,0.0644 z"
         id="path135-1-1" />
      <path
         style="fill:#000000;stroke-width:0.0385012"
         d="m -29.591141,42.406284 c -0.01325,-0.0213 0.0033,-0.0665 0.03747,-0.10027 0.07895,-0.079 0.215195,-0.34573 0.236484,-0.46308 l 0.0165,-0.0909 -0.04885,3e-4 c -0.0269,1.1e-4 -0.07837,0.0521 -0.114463,0.11551 -0.03612,0.0634 -0.110355,0.13566 -0.165059,0.16059 l -0.09946,0.0453 -0.06319,-0.0632 -0.06319,-0.0632 0.04602,-0.088 c 0.0253,-0.0484 0.09708,-0.15735 0.159561,-0.24205 0.06244,-0.0847 0.114144,-0.17582 0.11484,-0.20249 0,-0.0267 -0.08541,-0.10181 -0.191344,-0.167 l -0.192617,-0.11852 -0.01601,-0.0832 c -0.03713,-0.19319 -0.113666,-0.66521 -0.116499,-0.71852 -0.0017,-0.0318 0.02808,-0.15304 0.06605,-0.26951 l 0.06915,-0.21175 0.01307,-0.36576 c 0.0076,-0.20118 0.02548,-0.40267 0.04057,-0.44779 l 0.0275,-0.0821 -0.10013,-0.0929 -0.100114,-0.0928 -0.02439,-0.31629 -0.02439,-0.31628 0.05733,-0.0671 c 0.03151,-0.0369 0.09698,-0.16733 0.145489,-0.28982 0.04852,-0.12248 0.118469,-0.2439 0.155455,-0.26981 l 0.06722,-0.0471 -0.01208,-0.16916 c -0.0067,-0.093 -0.02741,-0.17952 -0.04618,-0.1922 -0.01877,-0.0127 -0.04526,-0.0532 -0.05884,-0.0901 l -0.02472,-0.067 0.09577,-0.10626 c 0.05271,-0.0585 0.123405,-0.13862 0.157164,-0.17815 l 0.06135,-0.0718 0.173298,0.0195 0.173281,0.0195 0.08862,0.0908 0.08861,0.0909 0.01491,0.33645 0.01492,0.33647 0.156913,0.13429 0.156897,0.13431 0.06102,0.15256 c 0.03361,0.0839 0.06421,0.25758 0.06806,0.3859 l 0.0067,0.23332 h 0.103767 0.103769 l 0.0637,0.0704 c 0.03503,0.0387 0.0637,0.11686 0.0637,0.17364 v 0.10322 l -0.07199,0.0616 -0.07199,0.0616 0.02757,0.12086 c 0.01518,0.0665 0.03847,0.15552 0.0518,0.19787 l 0.02431,0.077 -0.110305,0.12544 -0.11029,0.12545 -0.02791,0.50218 -0.02791,0.50217 -0.06295,-0.012 -0.06295,-0.012 -0.01928,-0.36537 -0.01928,-0.36536 -0.03093,0.24148 c -0.01702,0.13282 -0.05825,0.31474 -0.09168,0.40426 l -0.06084,0.16278 -0.005,0.36538 -0.005,0.36538 -0.06269,0.0121 -0.06269,0.0121 -0.0033,0.14232 c -0.0017,0.0783 -0.01149,0.25048 -0.02162,0.38267 l -0.01843,0.24034 -0.118462,0.11579 -0.118467,0.1158 h -0.169644 c -0.09332,0 -0.180457,-0.0174 -0.19364,-0.0388 z"
         id="path137-8-8" />
      <path
         d="m -23.374608,39.608666 -0.61207,-1.3141 -0.0173,0.01 0.0194,0.041 h 0.006 l 0.009,0.021 -0.0572,0.026 -0.01,-0.02 0.0261,-0.012 -0.019,-0.041 h -0.005 l -0.0197,-0.042 h -0.007 l -0.0138,-0.028 h 0.008 l -0.16263,-0.3482 h -0.0106 l -0.0127,-0.028 h 0.0102 l -0.024,-0.051 0.048,-0.022 -0.20355,-0.4364 c -0.0155,-0.01 -0.0423,-0.025 -0.0801,-0.068 -0.036,-0.041 -0.11148,-0.1252 -0.17039,-0.1908 -0.0473,-0.052 -0.0833,-0.093 -0.0833,-0.093 l -0.01,-0.02 0.003,-0.01 -0.0198,-0.043 0.004,-0.061 0.0145,-0.1994 c 0,0 0.005,-0.049 0.0607,-0.075 h 0.002 c 0.0557,-0.027 0.0967,0 0.0967,0 l 0.16193,0.1168 0.0494,0.036 0.0205,0.043 0.009,0.01 0.009,0.02 c 0,0 0.008,0.054 0.0173,0.1228 0.0123,0.088 0.0286,0.2 0.037,0.2536 0.009,0.056 0.005,0.088 7e-4,0.1044 l 1.04775,2.2486 z"
         id="path172-0-54" />
    </g>
  </g>
</svg>
