<?xml version="1.0" encoding="UTF-8" standalone="no"?>
<!-- Created with Inkscape (http://www.inkscape.org/) -->

<svg
   width="33.26989mm"
   height="6.1445551mm"
   viewBox="0 0 33.26989 6.1445551"
   version="1.1"
   id="svg1371"
   sodipodi:docname="inkporter-svg-a1lzagw5.svg"
   xmlns:inkscape="http://www.inkscape.org/namespaces/inkscape"
   xmlns:sodipodi="http://sodipodi.sourceforge.net/DTD/sodipodi-0.dtd"
   xmlns="http://www.w3.org/2000/svg"
   xmlns:svg="http://www.w3.org/2000/svg">
  <sodipodi:namedview
     id="namedview1373"
     pagecolor="#ffffff"
     bordercolor="#666666"
     borderopacity="1.0"
     inkscape:pageshadow="2"
     inkscape:pageopacity="0.0"
     inkscape:pagecheckerboard="0"
     inkscape:document-units="mm"
     showgrid="false"
     inkscape:zoom="0.90583672"
     inkscape:cx="126.95445"
     inkscape:cy="337.25725"
     inkscape:window-width="1920"
     inkscape:window-height="1017"
     inkscape:window-x="-8"
     inkscape:window-y="-8"
     inkscape:window-maximized="1"
     inkscape:current-layer="layer1" />
  <defs
     id="defs1368" />
  <g
     inkscape:label="Layer 1"
     inkscape:groupmode="layer"
     id="layer1"
     transform="translate(-52.00555,-112.01009)">
    <g
       id="F-Infantry4-4s"
       transform="translate(128.2263,68.786606)">
      <path
         style="fill:#000000;stroke-width:0.0305116"
         d="m -69.361023,49.081123 c 0.105378,-0.0424 0.111098,-0.147914 0.02435,-0.449407 -0.05878,-0.204335 -0.0822,-0.364112 -0.08909,-0.607739 -0.0065,-0.228189 -0.02435,-0.358863 -0.05786,-0.422058 -0.121085,-0.228444 -0.296035,-0.687778 -0.296035,-0.777273 0,-0.05432 -0.02196,-0.183122 -0.04875,-0.286234 -0.03377,-0.129906 -0.04188,-0.234319 -0.02634,-0.340032 0.01233,-0.08391 0.025,-0.255536 0.02816,-0.381397 0.0035,-0.142067 0.02461,-0.264823 0.05543,-0.323743 0.03841,-0.07337 0.0456,-0.14376 0.03164,-0.310205 -0.01567,-0.187102 -0.0099,-0.225671 0.04424,-0.294481 0.03424,-0.04355 0.05569,-0.104394 0.04763,-0.135208 -0.0081,-0.03081 0.0071,-0.107844 0.03346,-0.171177 0.05918,-0.141643 0.06096,-0.378059 0.0035,-0.454031 -0.0273,-0.03601 -0.08744,-0.05875 -0.166049,-0.06276 -0.06778,-0.0035 -0.13391,-0.01696 -0.146939,-0.03001 -0.01302,-0.01304 -0.01883,-0.146921 -0.01294,-0.297514 0.0092,-0.233312 0.0026,-0.283051 -0.04577,-0.336312 -0.08105,-0.08962 -0.267599,-0.178059 -0.375599,-0.178059 -0.106333,0 -0.311165,0.166792 -0.38851,0.316356 -0.04591,0.08877 -0.04474,0.09459 0.03221,0.16076 0.118412,0.101847 0.07844,0.174262 -0.08412,0.152405 -0.06892,-0.0093 -0.207713,-0.02599 -0.3084,-0.03715 -0.201117,-0.0223 -0.301295,-0.061 -0.273653,-0.105715 0.02899,-0.04688 -0.156444,-0.04539 -0.214528,0.0017 -0.03628,0.02941 -0.427459,0.0098 -0.63463,-0.0318 -0.08053,-0.01618 -0.220283,-0.02941 -0.310553,-0.02941 -0.105487,0 -0.178553,-0.01598 -0.204463,-0.04471 -0.02218,-0.02459 -0.06081,-0.06877 -0.08586,-0.09817 -0.04314,-0.05063 -0.04616,-0.05028 -0.05706,0.0066 -0.0064,0.03301 -0.02943,0.08563 -0.05132,0.116929 -0.05752,0.08223 -0.02152,0.141427 0.08603,0.141427 0.167268,0 0.493393,0.06867 0.564363,0.118828 0.114605,0.081 0.369289,0.48407 0.422797,0.669117 0.03585,0.123936 0.0868,0.210044 0.179252,0.302849 0.127842,0.12834 0.184707,0.147953 0.385099,0.132836 0.04951,-0.0037 0.08726,0.01264 0.09886,0.04287 0.02209,0.05756 -0.04474,0.22987 -0.132365,0.341262 -0.07331,0.09319 -0.07898,0.170724 -0.01632,0.222729 0.03967,0.03291 0.03572,0.04941 -0.03051,0.128125 -0.08695,0.103333 -0.09589,0.14669 -0.03025,0.14669 0.05839,0 0.05783,0.03021 -0.0021,0.115849 -0.06451,0.0921 -0.287724,0.78219 -0.287724,0.889527 0,0.04706 -0.02179,0.103654 -0.04841,0.125754 -0.03346,0.02776 -0.04417,0.07372 -0.03468,0.148666 0.01107,0.08729 -0.0013,0.120413 -0.05988,0.169511 -0.05644,0.04679 -0.07778,0.101654 -0.0915,0.235233 -0.01676,0.162909 -0.01311,0.176395 0.05602,0.207891 0.06508,0.02965 0.07822,0.06527 0.109931,0.297812 0.03381,0.248004 0.03238,0.268029 -0.024,0.328029 -0.03303,0.03515 -0.06003,0.07739 -0.06003,0.09388 0,0.01649 -0.05492,0.08361 -0.122045,0.149156 -0.06713,0.06555 -0.122052,0.143367 -0.122052,0.172933 0,0.138218 0.285796,0.144192 0.403835,0.0084 0.03567,-0.04102 0.08678,-0.07458 0.113581,-0.07458 0.02682,0 0.07943,-0.0215 0.116957,-0.04778 0.05699,-0.03992 0.06618,-0.06967 0.0558,-0.180727 -0.0068,-0.07312 -0.01918,-0.144294 -0.02747,-0.158169 -0.0168,-0.02819 0.01866,-0.409614 0.06607,-0.709778 0.02591,-0.164255 0.04634,-0.208382 0.124891,-0.269851 0.09569,-0.07489 0.21425,-0.271846 0.21425,-0.355926 0,-0.02559 0.03967,-0.11195 0.08812,-0.191914 0.04847,-0.07996 0.09723,-0.175579 0.108355,-0.21248 0.02161,-0.07177 0.130022,-0.123747 0.168631,-0.08087 0.01284,0.01425 0.06143,0.128892 0.107996,0.254753 0.0782,0.211405 0.205778,0.469093 0.362474,0.732185 0.03494,0.05869 0.0596,0.130024 0.05477,0.158535 -0.01818,0.107282 0.148927,0.360259 0.237965,0.360259 0.03251,0 0.0795,0.06346 0.129921,0.175444 0.110994,0.246544 0.123055,0.301332 0.08287,0.376429 -0.02526,0.04721 -0.02617,0.08445 -0.0031,0.130826 0.01766,0.03566 0.03914,0.11976 0.04773,0.186885 0.0086,0.06712 0.0161,0.124136 0.01676,0.126689 0.0013,0.0052 0.191582,0.07274 0.196399,0.0697 0.0017,-0.0011 0.03355,-0.0142 0.07082,-0.02919 z"
         id="path11229-4" />
      <path
         style="fill:#000000;stroke-width:0.0305116"
         d="m -66.127348,49.031401 c 0.02934,-0.06443 0.02587,-0.107624 -0.0187,-0.233218 -0.05911,-0.166455 -0.13127,-0.437601 -0.136114,-0.511527 -0.0017,-0.02517 -0.0071,-0.178426 -0.01185,-0.340565 -0.0069,-0.228067 -0.02083,-0.308039 -0.0618,-0.353287 -0.02912,-0.03217 -0.05293,-0.08149 -0.05293,-0.109592 0,-0.02811 -0.02747,-0.102339 -0.06102,-0.16496 -0.03355,-0.06262 -0.06103,-0.143319 -0.06103,-0.179328 0,-0.03601 -0.03298,-0.153157 -0.07334,-0.260331 -0.04032,-0.107173 -0.08101,-0.256408 -0.09039,-0.331632 -0.0093,-0.07523 -0.02509,-0.200854 -0.03494,-0.279175 -0.01541,-0.12256 -0.0097,-0.144996 0.04075,-0.161012 0.07536,-0.02392 0.136723,-0.29878 0.08973,-0.401916 -0.02496,-0.05475 -0.01784,-0.08531 0.0355,-0.153146 0.0782,-0.0994 0.06573,-0.191893 -0.04331,-0.321489 -0.04751,-0.05648 -0.07944,-0.144793 -0.09375,-0.259338 -0.01745,-0.139482 -0.04041,-0.19126 -0.116658,-0.262869 -0.121936,-0.114525 -0.450371,-0.327976 -0.693405,-0.450661 -0.174212,-0.08794 -0.210252,-0.09505 -0.431933,-0.08523 l -0.24187,0.01071 -0.07658,-0.237442 c -0.0617,-0.191291 -0.09775,-0.25356 -0.185449,-0.320374 -0.09395,-0.07156 -0.133828,-0.08197 -0.290962,-0.07592 -0.223234,0.0086 -0.312172,0.06287 -0.386253,0.235688 -0.03112,0.07259 -0.07144,0.141163 -0.0896,0.152394 -0.063,0.03894 -0.03259,0.100814 0.05849,0.119031 0.0775,0.0155 0.09154,0.03246 0.09154,0.110604 0,0.05076 0.01206,0.0923 0.02682,0.0923 0.01476,0 0.04369,0.04073 0.06431,0.09052 0.02062,0.04978 0.06348,0.09877 0.09523,0.108847 0.07128,0.02262 0.07917,0.187685 0.01315,0.275359 -0.0643,0.08543 -0.02864,0.632725 0.04957,0.760996 0.03069,0.05035 0.05588,0.132728 0.05597,0.183071 0,0.112975 0.09888,0.379883 0.157034,0.424633 0.06326,0.04868 0.05083,0.199948 -0.02734,0.332276 -0.03772,0.06389 -0.0686,0.129069 -0.0686,0.144842 0,0.01578 -0.04806,0.08187 -0.106797,0.146885 -0.05873,0.06501 -0.106784,0.132022 -0.106784,0.148911 0,0.01689 -0.02123,0.04832 -0.04716,0.06985 -0.02595,0.02152 -0.04062,0.0562 -0.03259,0.07705 0.0079,0.02085 -0.0035,0.06251 -0.02543,0.09258 -0.03776,0.05165 -0.04433,0.05182 -0.118885,0.0029 -0.0434,-0.02844 -0.09312,-0.0517 -0.110491,-0.0517 -0.04901,0 -0.0372,0.08285 0.01463,0.102746 0.02543,0.0098 0.06071,0.05585 0.07844,0.102427 l 0.03221,0.08469 0.08175,-0.09944 c 0.136472,-0.166005 0.196079,-0.110237 0.166131,0.155427 -0.01406,0.124926 -0.0063,0.146286 0.08928,0.241765 0.08686,0.08685 0.111445,0.142263 0.144035,0.324607 0.03919,0.219398 0.0391,0.220151 -0.04663,0.347967 -0.120877,0.180215 -0.171075,0.224825 -0.279882,0.248722 -0.106255,0.02334 -0.154621,0.116256 -0.09678,0.185953 0.04802,0.05786 0.32383,0.05692 0.425957,-0.0015 0.04197,-0.02398 0.14865,-0.04409 0.23711,-0.04469 0.141392,-9.28e-4 0.165045,-0.01029 0.195561,-0.07727 0.0266,-0.0584 0.02522,-0.106489 -0.006,-0.205954 -0.05427,-0.17303 -0.06802,-0.571154 -0.02821,-0.816278 0.03073,-0.189262 0.04358,-0.210877 0.280771,-0.472931 0.187441,-0.207101 0.269513,-0.27639 0.333859,-0.281864 0.04693,-0.004 0.08533,0.0072 0.08533,0.02489 0,0.100624 -0.20573,0.331282 -0.299381,0.335661 -0.02834,0.0013 -0.03528,0.009 -0.01545,0.01711 0.0908,0.037 0.374605,-0.203528 0.376809,-0.319348 0.0017,-0.09654 0.07705,0.04127 0.180762,0.331218 0.08007,0.223855 0.114884,0.283543 0.187155,0.320919 0.05028,0.026 0.0888,0.07079 0.0888,0.103271 0,0.09918 0.128038,0.302296 0.212648,0.337344 0.11139,0.04613 0.26601,0.382608 0.287633,0.625875 0.02192,0.246516 0.0504,0.388872 0.08701,0.434791 0.01671,0.02098 0.08396,0.03814 0.149374,0.03814 0.09842,0 0.125191,-0.01366 0.155004,-0.07907 z"
         id="path11227-1" />
      <path
         style="fill:#000000;stroke-width:0.0305117"
         d="m -64.416528,49.305982 c -0.17191,-0.196734 -0.2114,-0.310103 -0.22444,-0.644346 -0.007,-0.179222 -0.0297,-0.439511 -0.0506,-0.578418 -0.035,-0.233849 -0.045,-0.25676 -0.13396,-0.309272 -0.0775,-0.04573 -0.11397,-0.106136 -0.18825,-0.311908 -0.0507,-0.140357 -0.10847,-0.334329 -0.12844,-0.431048 -0.0358,-0.173271 -0.0928,-0.213175 -0.0928,-0.06492 0,0.0418 -0.0209,0.116504 -0.0465,0.166014 -0.0417,0.08069 -0.0417,0.09935 0,0.18004 0.0588,0.113758 0.0599,0.215097 0.002,0.215097 -0.0265,0 -0.0507,0.03989 -0.06,0.09916 -0.0324,0.205628 -0.061,0.592408 -0.0536,0.724653 0.004,0.07552 0.0106,0.199089 0.0142,0.274606 l 0.007,0.137302 -0.21359,0.02032 c -0.11747,0.01118 -0.28276,0.02981 -0.36732,0.0414 -0.12063,0.01654 -0.16224,0.01084 -0.19322,-0.02648 -0.0709,-0.08544 -0.028,-0.148389 0.12819,-0.187998 0.24304,-0.06164 0.23624,-0.03564 0.19958,-0.762616 -0.0226,-0.447416 -0.0466,-0.675226 -0.0798,-0.755081 -0.0371,-0.08927 -0.0433,-0.177694 -0.0285,-0.403035 0.0111,-0.169014 0.007,-0.296009 -0.01,-0.306362 -0.0157,-0.0097 -0.0205,-0.05827 -0.0106,-0.107873 0.0114,-0.0568 -0.006,-0.155191 -0.0472,-0.265794 -0.0359,-0.09658 -0.0848,-0.269848 -0.10862,-0.385033 l -0.0434,-0.209428 0.11662,-0.248248 c 0.0641,-0.136537 0.14132,-0.310035 0.17151,-0.385551 0.0665,-0.166397 0.15737,-0.274605 0.23055,-0.274605 0.0729,0 0.2097,-0.06408 0.2097,-0.09823 0,-0.01508 0.0123,-0.01982 0.0273,-0.01053 0.015,0.0093 0.0352,-0.0036 0.0448,-0.02871 0.01,-0.02508 0.003,-0.04559 -0.0139,-0.04559 -0.0172,0 -0.0242,-0.01155 -0.0155,-0.02566 0.009,-0.01411 -0.0262,-0.05677 -0.0777,-0.09479 -0.0817,-0.06043 -0.0907,-0.08119 -0.0716,-0.165039 0.0121,-0.05275 0.0272,-0.148146 0.0337,-0.211989 0.0242,-0.237792 0.13243,-0.356853 0.3243,-0.356853 0.12239,0 0.19635,0.06217 0.29485,0.247848 0.06,0.113135 0.0688,0.161386 0.0511,0.2797 -0.0118,0.07864 -0.0412,0.162759 -0.0654,0.186933 -0.0962,0.09616 -0.0145,0.149444 0.22186,0.1447 0.13823,-0.0028 0.14675,0.0027 0.32932,0.210931 0.24525,0.279758 0.44226,0.590352 0.44226,0.697251 0,0.09292 -0.11902,0.425054 -0.20654,0.576342 l -0.0761,0.131606 0.0651,0.04557 c 0.0358,0.02506 0.0651,0.07864 0.0651,0.119065 0,0.07585 -0.31903,0.594298 -0.36571,0.594298 -0.0144,0 -0.0182,0.106165 -0.008,0.235921 0.0147,0.193938 0.0333,0.257194 0.10444,0.355463 0.0935,0.129118 0.10849,0.228702 0.0487,0.324381 -0.03,0.04812 -0.0301,0.07304 -2.3e-4,0.120936 0.0286,0.04585 0.0305,0.128232 0.008,0.343257 -0.0164,0.155612 -0.03,0.391662 -0.0303,0.524557 -4.6e-4,0.213644 0.0103,0.260772 0.0928,0.406952 0.0557,0.09875 0.0895,0.198038 0.0839,0.246561 -0.008,0.07125 -0.0246,0.08235 -0.13302,0.09032 -0.0891,0.0066 -0.13701,-0.0062 -0.17156,-0.04577 z"
         id="path3674-0-3-3" />
      <path
         style="fill:#000000;stroke-width:0.0305117"
         d="m -63.520668,49.311603 c 0.0272,-0.02723 0.0495,-0.07519 0.0495,-0.106561 0,-0.03137 0.0123,-0.06463 0.0273,-0.07391 0.015,-0.0093 0.0344,-0.06844 0.043,-0.131475 0.0321,-0.233821 0.11197,-0.609855 0.17879,-0.841802 0.0561,-0.194772 0.0844,-0.24704 0.15283,-0.282425 0.0779,-0.0403 0.13017,-0.125846 0.36651,-0.600294 0.0315,-0.06316 0.0716,-0.152408 0.0893,-0.198326 l 0.032,-0.08349 0.0468,0.09154 c 0.0257,0.05034 0.0984,0.146456 0.16151,0.213582 0.0837,0.08901 0.13419,0.186062 0.18662,0.358512 0.0509,0.167288 0.0863,0.236466 0.12101,0.236466 0.0699,0 0.13488,0.369721 0.12676,0.721654 l -0.006,0.279233 0.15999,0.03028 c 0.088,0.01665 0.202,0.04748 0.25333,0.06851 0.062,0.02542 0.13365,0.02994 0.21358,0.01348 0.0793,-0.01633 0.10057,-0.02929 0.0624,-0.03809 -0.0452,-0.01042 -0.0488,-0.01894 -0.0163,-0.03901 0.0316,-0.01955 0.0236,-0.03289 -0.0337,-0.05595 -0.1314,-0.05288 -0.24859,-0.169322 -0.25029,-0.248725 -0.003,-0.137779 0.0666,-0.734107 0.10025,-0.858936 0.0397,-0.147503 0.0218,-0.208081 -0.0616,-0.208081 -0.0341,0 -0.062,-0.01847 -0.062,-0.04104 0,-0.02257 -0.0275,-0.06589 -0.061,-0.09626 -0.0421,-0.03813 -0.061,-0.09398 -0.061,-0.180423 0,-0.06886 -0.043,-0.24179 -0.0957,-0.384295 -0.0538,-0.145772 -0.0998,-0.335418 -0.10521,-0.433589 -0.005,-0.09597 -0.0255,-0.204393 -0.0451,-0.24094 -0.0286,-0.05354 -0.0267,-0.07139 0.01,-0.09186 0.0363,-0.02034 0.0401,-0.05363 0.019,-0.166722 -0.0145,-0.07772 -0.0182,-0.154486 -0.008,-0.170592 0.0101,-0.01632 0.0702,-0.02048 0.1358,-0.0094 0.0978,0.01652 0.13519,0.0065 0.22086,-0.0588 0.0567,-0.04328 0.1277,-0.124246 0.15769,-0.179935 0.0733,-0.136116 0.0482,-0.178851 -0.34295,-0.583166 -0.28121,-0.290686 -0.32596,-0.325152 -0.43594,-0.335745 -0.14405,-0.01388 -0.19984,-0.053 -0.21908,-0.153645 -0.016,-0.08347 -0.002,-0.108823 0.0836,-0.157822 0.0352,-0.02007 0.0566,-0.05872 0.0506,-0.09154 -0.006,-0.03124 -0.0166,-0.111722 -0.0242,-0.178848 -0.008,-0.06713 -0.0203,-0.152557 -0.0281,-0.189848 -0.0185,-0.08791 -0.21673,-0.22206 -0.32809,-0.22206 -0.10918,0 -0.26518,0.148993 -0.26518,0.253266 0,0.04119 -0.0206,0.09198 -0.0458,0.112876 -0.0569,0.04726 -0.06,0.202111 -0.005,0.234949 0.0226,0.01342 0.0492,0.07587 0.0591,0.138776 0.0207,0.132014 0.003,0.146734 -0.24366,0.204645 -0.0873,0.02047 -0.17125,0.05318 -0.18662,0.07268 -0.0314,0.03979 -0.16751,0.450813 -0.21894,0.660949 -0.0507,0.207364 -0.095,0.305118 -0.13797,0.305118 -0.0213,0 -0.0467,-0.0206 -0.0564,-0.04577 -0.0255,-0.06651 -0.0805,-0.05609 -0.0805,0.01526 0,0.03356 -0.0149,0.06102 -0.0331,0.06102 -0.0182,0 -0.0273,0.01716 -0.0203,0.03814 0.007,0.02226 0.0508,0.03423 0.10414,0.02876 0.11364,-0.01167 0.16311,0.04423 0.16861,0.190517 0.005,0.121006 0.0582,0.169752 0.18697,0.169752 0.0561,0 0.0785,0.01962 0.0898,0.07868 0.01,0.05148 -2.3e-4,0.08456 -0.0293,0.0957 -0.11136,0.04273 -0.115,0.33831 -0.004,0.367199 0.0676,0.01767 0.0685,0.06867 0.007,0.373771 -0.0254,0.125861 -0.0538,0.275162 -0.0632,0.331781 -0.009,0.05662 -0.0429,0.128702 -0.0744,0.160186 -0.0358,0.03578 -0.0572,0.100463 -0.0572,0.172511 0,0.07751 -0.02,0.132381 -0.061,0.167516 -0.0676,0.05788 -0.0671,0.05299 -0.0771,0.710464 -0.006,0.403318 -0.0151,0.475183 -0.0736,0.589693 -0.0976,0.191353 -0.0776,0.260827 0.0783,0.272218 0.0853,0.0062 0.1419,-0.0068 0.17544,-0.04032 z"
         id="path3680-9-8-0" />
      <path
         style="fill:#000000;stroke-width:0.0305117"
         d="m -49.887682,48.734851 c 0.09329,-0.04486 0.215061,-0.09816 0.270613,-0.118429 0.09462,-0.03453 0.09974,-0.04361 0.08097,-0.143623 -0.01101,-0.05872 -0.04588,-0.165704 -0.07748,-0.237744 -0.0316,-0.07204 -0.07879,-0.285803 -0.104873,-0.475029 -0.04633,-0.33615 -0.04595,-0.347355 0.01646,-0.488187 0.11477,-0.258986 0.24866,-0.508667 0.317725,-0.5925 l 0.06773,-0.08222 0.11781,0.140218 c 0.06479,0.07712 0.196608,0.258285 0.29292,0.402592 0.168215,0.252043 0.302656,0.369165 0.423756,0.369165 0.06043,0 0.103688,0.09328 0.05672,0.1223 -0.02214,0.01368 -0.0179,0.03291 0.01289,0.05846 0.02523,0.02094 0.05731,0.03101 0.07128,0.02237 0.01397,-0.0086 0.05747,0.0554 0.09667,0.142304 0.0392,0.0869 0.117616,0.235315 0.174261,0.329808 0.05665,0.09449 0.102993,0.209384 0.102993,0.255311 0,0.09952 0.191625,0.306089 0.311962,0.336292 0.09982,0.02505 0.206737,-0.0305 0.206737,-0.107419 0,-0.03239 -0.04119,-0.105802 -0.09154,-0.163141 -0.05157,-0.05874 -0.09154,-0.138934 -0.09154,-0.183692 0,-0.134924 -0.219989,-0.822484 -0.295086,-0.922271 -0.03908,-0.05193 -0.07106,-0.123236 -0.07106,-0.158461 0,-0.03911 -0.03638,-0.08551 -0.09344,-0.119167 -0.238226,-0.140528 -0.434938,-0.970995 -0.322011,-1.359448 0.04182,-0.143849 0.04398,-0.194546 0.01321,-0.309596 -0.02987,-0.111678 -0.02896,-0.152214 0.0048,-0.215318 0.02288,-0.04276 0.05781,-0.07774 0.07762,-0.07774 0.01981,0 0.103301,0.07621 0.185543,0.169367 0.233389,0.264346 0.505935,0.544295 0.562731,0.578013 0.02841,0.01687 0.08989,0.05765 0.136618,0.09062 0.04673,0.03297 0.133711,0.06043 0.193298,0.06102 0.100033,10e-4 0.110142,0.0097 0.131825,0.113769 0.02199,0.105511 -0.03263,0.315025 -0.09392,0.360238 -0.01137,0.0084 -0.03606,0.06692 -0.05486,0.130066 -0.03092,0.103865 -0.02813,0.118049 0.02932,0.148794 0.05182,0.02773 0.0712,0.02345 0.105379,-0.02327 0.02303,-0.03149 0.04892,-0.09158 0.05753,-0.133537 0.04015,-0.195683 0.08396,-0.338659 0.108392,-0.353758 0.04451,-0.02751 0.117398,-0.227536 0.117398,-0.322184 0,-0.09517 -0.08064,-0.153855 -0.121205,-0.08821 -0.0339,0.05486 -0.593085,-0.403255 -0.665225,-0.544989 -0.0307,-0.06031 -0.113614,-0.197846 -0.184261,-0.305638 -0.07065,-0.107791 -0.143291,-0.251959 -0.161432,-0.320373 -0.04562,-0.172037 -0.06795,-0.209354 -0.130803,-0.218578 -0.07564,-0.01111 -0.171123,-0.10326 -0.171123,-0.165161 0,-0.05737 0.09193,-0.152558 0.147332,-0.152558 0.01966,0 0.03574,-0.02801 0.03574,-0.06224 0,-0.03423 0.02746,-0.116066 0.06102,-0.181855 0.03356,-0.06579 0.06102,-0.17018 0.06102,-0.231981 0,-0.09372 -0.0246,-0.136963 -0.1482,-0.260565 -0.181581,-0.181582 -0.28478,-0.194809 -0.442117,-0.05666 -0.05734,0.05034 -0.127937,0.09154 -0.156885,0.09154 -0.03216,0 -0.04636,0.01634 -0.03651,0.04201 0.01851,0.04825 -0.02606,0.270326 -0.07834,0.390284 -0.0337,0.07734 -0.03966,0.07925 -0.119154,0.03814 -0.148404,-0.07674 -0.257433,-0.0557 -0.3682,0.07105 -0.23571,0.269733 -0.48695,0.495911 -0.550859,0.495911 -0.08579,0 -0.370987,-0.27436 -0.372278,-0.358131 -6.91e-4,-0.04481 -0.02555,-0.05108 -0.112438,-0.02835 -0.06338,0.01657 -0.06313,0.01827 0.01613,0.112462 0.04426,0.0526 0.08047,0.108313 0.08047,0.123807 0,0.01549 0.01774,0.02817 0.03941,0.02817 0.02168,0 0.09861,0.06031 0.170957,0.134031 0.119062,0.121316 0.129448,0.143751 0.109469,0.236466 -0.01214,0.05634 -0.0422,0.141796 -0.06679,0.189905 -0.0246,0.04811 -0.03773,0.114189 -0.02919,0.146844 0.0085,0.03265 -0.0044,0.107171 -0.02886,0.165593 -0.04997,0.119598 -0.0316,0.176822 0.04991,0.155506 0.09532,-0.02493 0.09121,0.0879 -0.0081,0.222962 -0.07946,0.108045 -0.08759,0.135864 -0.05841,0.1999 0.02852,0.0626 0.01735,0.112021 -0.07054,0.311901 -0.166328,0.378299 -0.238994,0.683141 -0.242272,1.016351 -0.002,0.203051 0.0096,0.30782 0.03789,0.34192 0.02242,0.02704 0.03062,0.06558 0.01822,0.08564 -0.01266,0.02049 -5.76e-4,0.05254 0.02758,0.07313 0.05014,0.03666 0.203293,0.351763 0.203293,0.41826 0,0.0194 0.02908,0.09534 0.06463,0.168769 l 0.06463,0.133504 -0.0663,0.07058 c -0.03647,0.03882 -0.12047,0.095 -0.186675,0.124856 -0.0882,0.03977 -0.120372,0.07256 -0.120372,0.122662 0,0.131795 0.207301,0.140446 0.45947,0.01917 z"
         id="path3688-0" />
      <path
         id="path3682-1"
         style="fill:#000000;stroke-width:0.0305117"
         d="m -55.592682,48.962144 c -0.170515,-0.07368 -0.15725,-0.224369 0.02324,-0.264011 0.05443,-0.01196 0.133496,-0.04327 0.175697,-0.06959 0.168513,-0.105091 0.167855,-0.102393 0.174056,-0.713149 0.0032,-0.313872 0.01965,-0.596555 0.03657,-0.628185 0.01693,-0.03163 0.02356,-0.0851 0.01474,-0.118829 -0.02101,-0.08034 0.04611,-0.236308 0.23244,-0.54015 0.09113,-0.148598 0.163301,-0.308694 0.180382,-0.400125 0.01566,-0.08383 0.02548,-0.155406 0.02182,-0.159065 -0.0037,-0.0037 -0.114565,0.06249 -0.246458,0.146989 -0.179696,0.11513 -0.258102,0.14905 -0.3128,0.135321 -0.06681,-0.01677 -0.07002,-0.01277 -0.03791,0.04725 0.0277,0.05175 0.02581,0.07484 -0.0089,0.109604 -0.03838,0.03838 -0.05116,0.03301 -0.09947,-0.0417 -0.03049,-0.04716 -0.102987,-0.127318 -0.161108,-0.178138 -0.06203,-0.05424 -0.107456,-0.12355 -0.109987,-0.167814 -0.0032,-0.05608 -0.01909,-0.07283 -0.06198,-0.06535 -0.06698,0.01169 -0.352776,0.249922 -0.353963,0.29505 -6.92e-4,0.02695 -0.202835,0.137302 -0.251489,0.137302 -0.01027,0 -0.01587,-0.03664 -0.01243,-0.08141 0.0048,-0.06211 0.02363,-0.08269 0.07952,-0.08681 0.04989,-0.0037 0.168382,-0.106676 0.371427,-0.322867 0.249017,-0.26514 0.335366,-0.385369 0.523843,-0.729379 0.189326,-0.345562 0.223575,-0.429646 0.21263,-0.522029 -0.01052,-0.08879 -0.03268,-0.119484 -0.114395,-0.158449 -0.05574,-0.02658 -0.11031,-0.07657 -0.121266,-0.11109 -0.01105,-0.03482 -0.04617,-0.06276 -0.07889,-0.06276 -0.05074,0 -0.05982,-0.02448 -0.06506,-0.175441 -0.01077,-0.310338 -0.0025,-0.354277 0.08014,-0.42536 0.191094,-0.164372 0.481476,-0.09848 0.557549,0.126515 0.02244,0.06638 0.07108,0.152918 0.108083,0.192305 0.05024,0.05348 0.05763,0.07758 0.02918,0.09516 -0.0259,0.01601 0.0162,0.06188 0.131533,0.143323 0.09329,0.06588 0.213773,0.153416 0.267731,0.194528 0.05396,0.04111 0.08836,0.0634 0.07644,0.04953 -0.03766,-0.04384 0.06204,-0.192585 0.142649,-0.212815 0.141407,-0.03549 0.248114,0.01485 0.233882,0.110327 -0.0018,0.01198 0.01699,0.01402 0.04173,0.0045 0.02927,-0.01123 0.05552,0.01046 0.07516,0.06212 0.0166,0.04366 0.04572,0.07938 0.06471,0.07938 0.02099,0 0.02584,0.02095 0.01238,0.0534 -0.01219,0.02937 -0.02281,0.07056 -0.02361,0.09154 -8.08e-4,0.02098 -0.01895,0.03814 -0.04033,0.03814 -0.02139,0 -0.04758,0.01407 -0.05821,0.03127 -0.01063,0.0172 -0.008,0.02815 0.0058,0.02433 0.01383,-0.0038 0.07726,0.0034 0.140951,0.01614 0.08307,0.01655 0.123817,0.04417 0.144175,0.09771 0.01586,0.04172 0.05305,0.07464 0.08432,0.07464 0.03077,0 0.07998,0.01757 0.109346,0.03905 0.08192,0.0599 0.01716,0.196301 -0.120522,0.253828 -0.104355,0.0436 -0.10748,0.04909 -0.06432,0.112944 0.03167,0.04685 0.07021,0.06433 0.127646,0.05788 0.127572,-0.01432 0.210194,0.06109 0.268063,0.24467 0.06699,0.212517 0.06605,0.275041 -0.0055,0.363357 -0.04519,0.05581 -0.08606,0.07086 -0.185411,0.06825 -0.12283,-0.0032 -0.126713,-4.62e-4 -0.107388,0.07672 0.01102,0.04403 0.08122,0.243645 0.15599,0.443583 0.09089,0.243055 0.125798,0.373667 0.105338,0.394126 -0.02046,0.02046 -0.03742,0.01122 -0.05119,-0.0279 -0.01132,-0.03217 -0.09927,-0.230126 -0.195435,-0.439894 -0.09616,-0.209768 -0.184106,-0.420693 -0.195429,-0.468722 l -0.02059,-0.08733 -0.104835,0.117837 c -0.05766,0.06481 -0.168164,0.248275 -0.245566,0.407699 -0.0774,0.159423 -0.159771,0.311268 -0.183043,0.337432 -0.03664,0.04119 -0.03061,0.06159 0.04496,0.152115 0.048,0.0575 0.08115,0.120517 0.07366,0.140039 -0.0075,0.01952 0.01977,0.102103 0.06057,0.183514 0.04081,0.08141 0.09155,0.20294 0.112754,0.270066 0.02121,0.06713 0.07114,0.200582 0.110956,0.296569 0.08035,0.193687 0.09354,0.344792 0.03215,0.368346 -0.02213,0.0085 -0.114285,-0.01063 -0.204783,-0.0425 -0.0905,-0.03187 -0.196643,-0.05794 -0.235879,-0.05794 -0.07792,0 -0.251659,-0.07977 -0.25091,-0.115204 0.0015,-0.07254 0.06604,-0.109986 0.178063,-0.103376 0.0669,0.0039 0.130426,-0.007 0.141168,-0.02443 0.01074,-0.01738 0.0067,-0.0316 -0.0091,-0.0316 -0.01574,0 -0.04618,-0.04462 -0.06766,-0.09916 -0.09793,-0.248711 -0.187642,-0.415197 -0.233132,-0.432653 -0.1015,-0.03895 -0.175059,0.09916 -0.217715,0.408779 -0.07622,0.553259 -0.0843,0.643792 -0.06077,0.680824 0.02103,0.03309 0.03605,0.324576 0.01694,0.328698 -0.03244,0.007 -0.526738,0.06462 -0.648375,0.07559 -0.08391,0.0076 -0.180495,0.0017 -0.214641,-0.01307 z m 0.469165,-3.128786 c 0.0393,-0.03456 0.08442,-0.08688 0.100258,-0.116264 0.0256,-0.0475 0.01519,-0.05221 -0.0937,-0.0424 -0.134329,0.0121 -0.219544,0.06456 -0.197631,0.12166 0.0077,0.02014 -0.03084,0.05497 -0.08572,0.07741 l -0.09977,0.04079 0.07628,0.02189 c 0.08757,0.02513 0.197328,-0.01255 0.30029,-0.103084 z m -0.103755,-0.522927 c 0.03569,-0.03489 0.08759,-0.07615 0.115345,-0.09168 0.0394,-0.02205 0.04665,-0.05663 0.03309,-0.157764 -0.0096,-0.07124 -0.02586,-0.129511 -0.03624,-0.129494 -0.02905,4.9e-5 -0.304331,0.475794 -0.307263,0.531025 -0.0014,0.02698 0.06457,-0.02448 0.195071,-0.152083 z" />
      <path
         style="fill:#000000;stroke-width:0.0305117"
         d="m -52.805558,49.000063 c 0.02723,-0.02723 0.04952,-0.07519 0.04952,-0.106561 0,-0.03137 0.01228,-0.06463 0.02729,-0.07391 0.01501,-0.0093 0.03437,-0.06844 0.04302,-0.131475 0.0321,-0.233822 0.11197,-0.609856 0.178796,-0.841803 0.05611,-0.194772 0.0844,-0.247039 0.152825,-0.282425 0.07794,-0.0403 0.130167,-0.125847 0.366508,-0.600294 0.03146,-0.06316 0.07162,-0.152408 0.08925,-0.198326 l 0.03204,-0.08349 0.04678,0.09154 c 0.02573,0.05034 0.09841,0.146456 0.161515,0.213581 0.08367,0.08901 0.134192,0.186062 0.186615,0.358513 0.05085,0.167287 0.08626,0.236466 0.121014,0.236466 0.06994,0 0.134877,0.36972 0.126756,0.721653 l -0.0064,0.279235 0.159995,0.03027 c 0.088,0.01665 0.201995,0.04748 0.253329,0.06851 0.06204,0.02542 0.133646,0.02994 0.213581,0.01348 0.07933,-0.01633 0.100571,-0.02929 0.06242,-0.03809 -0.04519,-0.01042 -0.04875,-0.01894 -0.01629,-0.03901 0.03163,-0.01955 0.02358,-0.03289 -0.03371,-0.05595 -0.131406,-0.05288 -0.248591,-0.169323 -0.250297,-0.248724 -0.003,-0.13778 0.06664,-0.734108 0.100254,-0.858937 0.03972,-0.147504 0.0218,-0.208081 -0.06155,-0.208081 -0.03409,0 -0.06198,-0.01847 -0.06198,-0.04104 0,-0.02257 -0.02746,-0.06589 -0.06102,-0.09626 -0.04214,-0.03813 -0.06102,-0.09398 -0.06102,-0.180423 0,-0.06886 -0.04305,-0.241791 -0.09566,-0.384295 -0.05382,-0.145772 -0.09984,-0.335418 -0.105208,-0.433589 -0.0052,-0.09597 -0.02555,-0.204393 -0.0451,-0.24094 -0.02865,-0.05354 -0.02674,-0.07139 0.0098,-0.09186 0.03634,-0.02034 0.04014,-0.05363 0.01901,-0.166722 -0.01452,-0.07772 -0.01825,-0.154485 -0.0083,-0.170591 0.01009,-0.01632 0.07019,-0.02048 0.135802,-0.0094 0.09775,0.01651 0.13519,0.0065 0.220861,-0.0588 0.05674,-0.04328 0.127696,-0.124247 0.157686,-0.179935 0.0733,-0.136115 0.04817,-0.178851 -0.342954,-0.583165 -0.281204,-0.290686 -0.325954,-0.325152 -0.435933,-0.335745 -0.144058,-0.01388 -0.199844,-0.053 -0.219083,-0.153645 -0.01596,-0.08347 -0.0025,-0.108824 0.08355,-0.157822 0.03525,-0.02007 0.05663,-0.05872 0.05063,-0.09154 -0.0057,-0.03124 -0.01661,-0.111722 -0.02422,-0.178848 -0.0076,-0.06713 -0.02026,-0.152557 -0.02812,-0.189848 -0.01852,-0.08791 -0.216731,-0.22206 -0.328096,-0.22206 -0.109176,0 -0.265175,0.148993 -0.265175,0.253266 0,0.04119 -0.0206,0.09198 -0.04577,0.112874 -0.05694,0.04726 -0.06,0.202112 -0.0046,0.234949 0.02263,0.01342 0.04922,0.07587 0.0591,0.138776 0.02073,0.132015 0.0032,0.146734 -0.243658,0.204647 -0.08727,0.02047 -0.171252,0.05318 -0.186624,0.07268 -0.03136,0.03979 -0.167512,0.450813 -0.218934,0.660948 -0.05074,0.207364 -0.09495,0.305118 -0.137973,0.305118 -0.02134,0 -0.04671,-0.0206 -0.05636,-0.04577 -0.02552,-0.0665 -0.0805,-0.05608 -0.0805,0.01526 0,0.03356 -0.01487,0.06102 -0.03305,0.06102 -0.01818,0 -0.02732,0.01716 -0.02032,0.03814 0.0074,0.02226 0.0508,0.03423 0.104142,0.02876 0.113641,-0.01166 0.163113,0.04424 0.168613,0.190516 0.0046,0.121006 0.05824,0.169753 0.186963,0.169753 0.05609,0 0.07848,0.01962 0.08977,0.07868 0.0098,0.05148 -2.31e-4,0.08456 -0.02929,0.0957 -0.111356,0.04273 -0.114994,0.33831 -0.0045,0.3672 0.06757,0.01767 0.06854,0.06867 0.0071,0.373771 -0.02535,0.12586 -0.05378,0.275161 -0.0632,0.33178 -0.0094,0.05662 -0.04288,0.128703 -0.07436,0.160186 -0.03578,0.03578 -0.05724,0.100463 -0.05724,0.172511 0,0.07751 -0.01999,0.132381 -0.06102,0.167516 -0.0676,0.05788 -0.06706,0.05299 -0.07713,0.710464 -0.0062,0.403318 -0.01514,0.475183 -0.07356,0.589693 -0.09762,0.191354 -0.07764,0.260827 0.07829,0.272218 0.0853,0.0062 0.141899,-0.0068 0.175442,-0.04032 z"
         id="path3680-2" />
      <path
         id="path3207-30"
         style="fill:#000000;stroke-width:0.0111996"
         d="m -45.375255,48.777579 c 0.146583,-0.0433 0.266447,-0.06818 0.299975,-0.06227 0.141448,0.02492 0.184606,0.02788 0.23815,0.0163 0.09063,-0.01959 0.100231,-0.03321 0.09248,-0.131219 -0.0067,-0.08503 -0.02755,-0.15476 -0.0808,-0.270515 -0.04054,-0.08813 -0.0792,-0.232853 -0.114071,-0.427007 -0.01586,-0.0883 -0.03915,-0.197909 -0.05177,-0.243579 -0.03032,-0.109741 -0.05405,-0.221436 -0.04704,-0.221436 0.0031,0 0.02376,0.01557 0.04594,0.0346 0.02218,0.01903 0.05599,0.04096 0.07513,0.04872 0.04491,0.01822 0.206917,0.04214 0.229093,0.03383 0.01026,-0.0039 0.02685,0.0053 0.04167,0.02288 0.05642,0.06709 0.08825,0.09435 0.103511,0.08863 0.0088,-0.0033 0.0559,-0.0319 0.104547,-0.06351 0.04865,-0.03161 0.101197,-0.06086 0.116775,-0.065 0.01855,-0.0049 0.02965,-0.01682 0.03219,-0.03446 0.0045,-0.0311 0.03435,-0.06786 0.04832,-0.05942 0.0089,0.0054 0.328463,-0.119111 0.542582,-0.211405 0.05296,-0.02283 0.118338,-0.05889 0.145277,-0.08013 0.0409,-0.03225 0.05305,-0.03676 0.07364,-0.02734 0.08777,0.04018 0.174602,0.13788 0.257287,0.289494 0.04886,0.08959 0.07822,0.111688 0.14842,0.111688 0.0902,0 0.12309,-0.04739 0.12309,-0.177324 0,-0.149236 -0.02383,-0.214246 -0.132095,-0.360388 -0.03639,-0.04912 -0.07636,-0.107979 -0.08882,-0.130801 -0.02082,-0.03812 -0.02113,-0.04234 -0.0039,-0.05183 0.02164,-0.01192 0.01667,-0.04505 -0.01318,-0.08789 -0.01061,-0.01522 -0.02291,-0.04232 -0.02735,-0.06022 -0.0117,-0.0472 -0.04731,-0.09126 -0.08027,-0.09935 -0.04773,-0.01171 -0.179618,0.03502 -0.276277,0.09789 -0.08333,0.0542 -0.210959,0.105029 -0.307444,0.122445 l -0.04,0.0072 -0.06091,-0.119798 c -0.05866,-0.11537 -0.115355,-0.238894 -0.160437,-0.349536 -0.01982,-0.04865 -0.02034,-0.06108 -0.0069,-0.166077 0.0138,-0.107615 0.016,-0.113679 0.04243,-0.117153 0.01534,-0.002 0.04684,-0.02443 0.07001,-0.04982 0.03498,-0.03833 0.04408,-0.04334 0.05364,-0.02955 0.0063,0.0091 0.01159,0.02533 0.01168,0.03598 2.31e-4,0.02077 0.02824,0.02662 0.03983,0.0083 0.0039,-0.0061 0.01817,-0.01123 0.03182,-0.01144 0.03849,-5.77e-4 0.07597,-0.03825 0.103212,-0.103745 0.01368,-0.03289 0.04133,-0.07334 0.06145,-0.08988 0.08858,-0.07284 0.100341,-0.18282 0.02958,-0.276555 -0.01379,-0.01827 -0.03198,-0.05237 -0.04043,-0.07578 -0.02018,-0.05594 -0.07916,-0.122242 -0.12539,-0.140954 -0.02033,-0.0082 -0.07916,-0.05529 -0.130738,-0.104568 -0.07793,-0.07446 -0.09377,-0.09545 -0.09377,-0.124214 0,-0.02427 0.0064,-0.0366 0.02151,-0.04128 0.04588,-0.01423 0.08045,-0.06189 0.08045,-0.110931 0,-0.059 -0.01908,-0.116657 -0.04637,-0.140136 -0.02341,-0.02015 -0.01242,-0.03684 0.02924,-0.04439 0.02953,-0.0054 0.03634,-0.0407 0.0095,-0.04913 -0.01137,-0.0036 -0.0553,-0.02148 -0.09763,-0.03981 -0.08937,-0.0387 -0.194216,-0.05207 -0.24551,-0.0313 -0.01891,0.0077 -0.03438,0.01812 -0.03438,0.02326 0,0.01762 -0.04679,0.03525 -0.0598,0.02253 -0.0085,-0.0083 -0.0032,-0.0186 0.01821,-0.03504 0.03922,-0.03015 0.03815,-0.04306 -0.0071,-0.08592 -0.05283,-0.05004 -0.06664,-0.04416 -0.0158,0.0067 l 0.04207,0.0421 -0.03226,0.03021 c -0.02036,0.01906 -0.0391,0.02764 -0.05079,0.02326 -0.02827,-0.0106 -0.03578,-0.07339 -0.01375,-0.115028 0.02125,-0.04016 0.01913,-0.04526 -0.05484,-0.131643 -0.04457,-0.05205 -0.05074,-0.07327 -0.0242,-0.08323 0.02245,-0.0084 0.02157,-0.03423 -0.0019,-0.05721 -0.0141,-0.01378 -0.03003,-0.01678 -0.06231,-0.01173 -0.03656,0.0057 -0.04337,0.0037 -0.04337,-0.01283 0,-0.01078 -0.01019,-0.02583 -0.02266,-0.03344 -0.01246,-0.0076 -0.02266,-0.02069 -0.02266,-0.02907 0,-0.03097 -0.05411,-0.05273 -0.110542,-0.04446 l -0.05282,0.0077 0.01937,-0.0289 c 0.03058,-0.04561 0.02358,-0.04435 -0.0415,0.0074 -0.03358,0.02673 -0.0788,0.05174 -0.100867,0.05579 -0.022,0.004 -0.0429,0.01472 -0.04644,0.02376 -0.0084,0.02143 -0.0043,0.03369 0.0099,0.02924 0.0076,-0.0024 0.0076,7e-6 0,0.0071 -0.0062,0.0059 -0.0279,0.01411 -0.04816,0.01828 -0.02763,0.0057 -0.03848,0.0034 -0.04343,-0.0092 -0.0036,-0.0092 -0.02144,-0.02 -0.03957,-0.02389 -0.01814,-0.0039 -0.03683,-0.01357 -0.04154,-0.02151 -0.01755,-0.02957 -0.1131,-0.08182 -0.19085,-0.104367 -0.08934,-0.0259 -0.12256,-0.05129 -0.105682,-0.08076 0.0065,-0.01139 0.0066,-0.02854 2.3e-4,-0.04428 -0.0057,-0.01413 -0.02106,-0.05151 -0.0341,-0.08308 -0.02127,-0.0515 -0.02251,-0.06584 -0.012,-0.139672 0.01914,-0.134487 -0.0068,-0.213501 -0.09685,-0.294584 -0.127601,-0.114949 -0.416348,-0.180982 -0.54364,-0.124324 -0.06016,0.02678 -0.122532,0.09616 -0.146611,0.163094 -0.04424,0.12298 -0.06045,0.148402 -0.09465,0.148402 -0.01758,0 -0.0418,0.007 -0.05381,0.01561 -0.02154,0.01539 -0.02153,0.01595 6.92e-4,0.04036 0.01238,0.01361 0.04396,0.03413 0.07019,0.0456 0.02622,0.01146 0.05083,0.02584 0.05469,0.03194 0.0039,0.0061 -0.0065,0.03369 -0.02311,0.06132 -0.0341,0.05687 -0.03179,0.07378 0.013,0.09486 0.02309,0.01087 0.03388,0.02645 0.04075,0.05888 0.0051,0.02425 0.01428,0.04892 0.0203,0.05481 0.006,0.0059 0.01096,0.03363 0.01096,0.06164 0,0.05965 0.01426,0.0775 0.06191,0.0775 0.0191,0 0.05374,0.01 0.077,0.02214 0.02325,0.01218 0.05511,0.02214 0.0708,0.02214 0.01653,0 0.04584,0.0155 0.06968,0.03686 l 0.04115,0.03686 -0.0129,0.08475 c -0.0076,0.04991 -0.01,0.131536 -0.0058,0.198553 0.0067,0.107151 0.0054,0.11703 -0.02163,0.169027 -0.03587,0.06889 -0.0607,0.09676 -0.106909,0.120017 -0.05239,0.02636 -0.152036,0.02376 -0.210697,-0.0055 -0.02618,-0.01306 -0.08838,-0.04339 -0.138231,-0.0674 -0.04985,-0.02401 -0.09828,-0.05011 -0.107626,-0.05799 -0.02819,-0.02377 -0.20297,-0.09444 -0.233558,-0.09444 -0.03342,0 -0.326395,-0.142663 -0.364812,-0.177644 -0.017,-0.01548 -0.02354,-0.03034 -0.01854,-0.04215 0.01713,-0.04049 0.01729,-0.05363 8.07e-4,-0.06699 -0.02227,-0.01807 -0.05985,-0.0062 -0.07785,0.02459 -0.0086,0.0147 -0.0252,0.02415 -0.04244,0.02415 -0.02056,0 -0.02929,0.0067 -0.03187,0.02437 -0.0028,0.01949 0.0077,0.02992 0.0524,0.05208 0.03077,0.01524 0.05894,0.03533 0.0626,0.04464 0.0042,0.01061 0.01385,0.01423 0.02593,0.0097 0.01322,-0.005 0.01666,-0.0031 0.01092,0.006 -0.01185,0.01874 0.01801,0.07912 0.03912,0.07912 0.0097,0 0.02339,-0.0056 0.03043,-0.01252 0.0095,-0.0093 0.04558,0.0055 0.14064,0.0577 0.226007,0.124148 0.304242,0.178341 0.304242,0.210746 0,0.02833 -0.04241,0.109343 -0.05999,0.114585 -0.0075,0.0022 -0.02752,0.007 -0.04448,0.01067 -0.03787,0.0081 -0.0491,0.02781 -0.07735,0.135778 -0.01835,0.07014 -0.01987,0.09092 -0.0088,0.120866 0.01238,0.03346 0.009,0.04535 -0.04528,0.15933 -0.03226,0.06774 -0.05866,0.130235 -0.05866,0.138869 0,0.01592 0.07756,0.06065 0.104341,0.06017 0.008,-1.15e-4 0.03694,-0.0524 0.06424,-0.116114 0.06464,-0.150892 0.06673,-0.153505 0.113542,-0.141651 0.03455,0.0088 0.03964,0.01602 0.06457,0.09224 0.01488,0.04551 0.03106,0.08874 0.03595,0.09606 0.0068,0.01024 0.04022,0.0083 0.144128,-0.0082 0.115128,-0.01835 0.144998,-0.01959 0.200852,-0.0083 0.05098,0.01029 0.08332,0.01028 0.145021,-6.6e-5 0.115531,-0.01936 0.110362,-0.02155 0.118933,0.05035 0.0042,0.03502 0.02175,0.09356 0.03906,0.130094 0.01731,0.03654 0.03425,0.07453 0.03764,0.08442 0.0093,0.02723 0.118115,0.03788 0.16143,0.01581 0.0453,-0.02309 0.05828,-0.02165 0.07865,0.0087 0.0096,0.01426 0.03767,0.04186 0.06247,0.06134 0.05157,0.0405 0.0548,0.03981 0.155112,-0.03317 0.06059,-0.04408 0.08755,-0.04656 0.0976,-0.009 0.01416,0.05291 -0.06069,0.232388 -0.135976,0.326038 -0.07065,0.08788 -0.119512,0.161296 -0.112149,0.168492 0.0037,0.0037 0.01953,-0.005 0.03508,-0.01932 0.03955,-0.03631 0.03715,-0.01241 -0.01019,0.101349 -0.02116,0.05085 -0.04702,0.11985 -0.05746,0.153343 -0.01044,0.03349 -0.05393,0.133138 -0.09665,0.221436 -0.04812,0.09948 -0.0804,0.181705 -0.08487,0.216183 -0.0077,0.05985 0.01792,0.196183 0.04764,0.253048 0.01372,0.02625 0.01428,0.04022 0.0032,0.07898 -0.01588,0.05543 -0.0062,0.08022 0.04545,0.116156 0.0258,0.01796 0.03353,0.03137 0.03169,0.05503 -0.003,0.03886 0.01941,0.0667 0.05376,0.0667 0.02143,0 0.03048,0.01143 0.05039,0.06366 0.113223,0.296978 0.15058,0.399719 0.180661,0.496873 0.03073,0.09924 0.04033,0.117057 0.08355,0.155005 0.02686,0.02358 0.05727,0.04786 0.06757,0.05395 0.01661,0.0098 0.01415,0.01706 -0.02165,0.06366 -0.02345,0.03053 -0.04945,0.05259 -0.06198,0.05259 -0.01187,0 -0.04137,0.01993 -0.06556,0.04429 l -0.04398,0.04429 h -0.09027 c -0.136358,0 -0.179399,0.02182 -0.199353,0.101079 -0.01085,0.04311 0.02508,0.07984 0.111006,0.113454 0.101899,0.03987 0.175718,0.04485 0.266595,0.01801 z m 0.951631,-1.898298 c 0,-0.01492 -0.0089,-0.03197 -0.01968,-0.0379 -0.01759,-0.0096 -0.01353,-0.01939 0.03822,-0.09189 0.03185,-0.04462 0.08478,-0.137178 0.117641,-0.205684 0.03286,-0.06851 0.06324,-0.124558 0.06752,-0.124558 0.01216,0 0.181486,0.351134 0.181486,0.376352 0,0.0046 -0.0297,0.01399 -0.06601,0.02097 -0.0363,0.007 -0.116597,0.02955 -0.178431,0.05015 -0.137829,0.04592 -0.140746,0.04618 -0.140746,0.01256 z m -1.24767,-1.349559 c 0.0069,-0.0082 0.0098,-0.01757 0.0064,-0.02089 -0.0034,-0.0033 0.0043,-0.02279 0.01705,-0.04327 0.01277,-0.02048 0.02324,-0.0456 0.02327,-0.05582 4.5e-5,-0.0187 0.02855,-0.05338 0.04389,-0.05338 0.0045,0 0.01508,0.01848 0.02344,0.04108 0.01378,0.03725 0.01326,0.04215 -0.0055,0.05259 -0.0114,0.0063 -0.04119,0.0302 -0.06618,0.05304 -0.04555,0.04162 -0.06599,0.05448 -0.04236,0.02666 z m 1.467884,-0.270478 c 0.0038,-0.0037 0.01571,0.0023 0.02646,0.01326 0.01869,0.01913 0.01839,0.01943 -0.0069,0.0067 -0.01455,-0.0073 -0.02335,-0.0163 -0.01956,-0.02001 z m -2.316997,-0.0911 c -0.0178,0 -0.02173,-0.008 -0.02173,-0.04429 0,-0.02436 0.0047,-0.04429 0.0104,-0.04429 0.0057,0 0.03124,0.01956 0.05669,0.04347 0.03804,0.03572 0.04275,0.04436 0.02642,0.04851 -0.01093,0.0028 -0.02667,0.0031 -0.03496,8.07e-4 -0.0083,-0.0023 -0.02487,-0.0042 -0.03682,-0.0042 z m 0.431427,-0.205481 c 0,-0.0112 -0.01334,-0.01595 -0.04478,-0.01595 -0.04678,0 -0.102494,-0.01902 -0.102494,-0.03499 0,-0.0051 0.01147,-0.0094 0.02549,-0.0095 0.07026,-6.92e-4 0.200196,-0.100947 0.184162,-0.142128 -0.0054,-0.01389 -0.0039,-0.01512 0.0063,-0.0052 0.02584,0.02506 -0.02919,0.247637 -0.05706,0.2308 -0.0064,-0.0038 -0.01157,-0.01416 -0.01157,-0.02294 z m -1.070586,-0.392394 c 0.0039,-0.0061 0.01307,-0.01099 0.0205,-0.0109 0.0081,9.9e-5 0.0067,0.0045 -0.0035,0.0109 -0.02176,0.01375 -0.02569,0.01375 -0.01699,0 z" />
      <path
         id="path3207-30-5"
         style="fill:#000000;stroke-width:0.0111996"
         d="m -74.22851,49.351413 c 0.146583,-0.0433 0.266448,-0.06818 0.299976,-0.06227 0.141448,0.02492 0.184605,0.02788 0.238149,0.0163 0.09064,-0.01959 0.100232,-0.03321 0.09248,-0.131219 -0.0067,-0.08503 -0.02755,-0.15476 -0.0808,-0.270515 -0.04054,-0.08813 -0.0792,-0.232854 -0.114071,-0.427007 -0.01586,-0.0883 -0.03915,-0.197909 -0.05177,-0.243579 -0.03032,-0.109742 -0.05405,-0.221436 -0.04704,-0.221436 0.0031,0 0.02376,0.01557 0.04594,0.0346 0.02218,0.01903 0.05599,0.04096 0.07513,0.04872 0.04491,0.01822 0.206917,0.04214 0.229093,0.03383 0.01026,-0.0039 0.02685,0.0053 0.04167,0.02288 0.05642,0.06709 0.08825,0.09435 0.103511,0.08863 0.0088,-0.0033 0.0559,-0.0319 0.104546,-0.06351 0.04865,-0.03161 0.101198,-0.06086 0.116776,-0.065 0.01855,-0.0049 0.02965,-0.01682 0.03219,-0.03446 0.0045,-0.0311 0.03435,-0.06786 0.04832,-0.05942 0.0089,0.0054 0.328463,-0.119111 0.542582,-0.211405 0.05296,-0.02283 0.118338,-0.05889 0.145277,-0.08013 0.0409,-0.03225 0.05304,-0.03676 0.07364,-0.02734 0.08777,0.04018 0.174601,0.13788 0.257287,0.289493 0.04886,0.08959 0.07822,0.111689 0.14842,0.111689 0.0902,0 0.12309,-0.04739 0.12309,-0.177324 0,-0.149237 -0.02383,-0.214246 -0.132095,-0.360388 -0.03639,-0.04912 -0.07636,-0.107979 -0.08882,-0.130801 -0.02081,-0.03812 -0.02113,-0.04234 -0.0039,-0.05183 0.02164,-0.01192 0.01667,-0.04505 -0.01318,-0.08789 -0.01061,-0.01522 -0.02291,-0.04232 -0.02735,-0.06022 -0.0117,-0.0472 -0.04731,-0.09126 -0.08028,-0.09935 -0.04773,-0.01171 -0.179617,0.03502 -0.276276,0.09789 -0.08334,0.0542 -0.210959,0.105029 -0.307444,0.122445 l -0.04,0.0072 -0.06091,-0.119799 c -0.05866,-0.115369 -0.115354,-0.238893 -0.160436,-0.349535 -0.01982,-0.04865 -0.02034,-0.06108 -0.0069,-0.166077 0.0138,-0.107615 0.016,-0.113679 0.04243,-0.117153 0.01534,-0.002 0.04684,-0.02443 0.07001,-0.04982 0.03498,-0.03833 0.04408,-0.04334 0.05364,-0.02955 0.0063,0.0091 0.01159,0.02533 0.01168,0.03598 2.31e-4,0.02077 0.02824,0.02662 0.03983,0.0083 0.0039,-0.0061 0.01817,-0.01123 0.03182,-0.01144 0.03849,-5.77e-4 0.07597,-0.03825 0.103211,-0.103745 0.01368,-0.03289 0.04133,-0.07334 0.06145,-0.08988 0.08858,-0.07284 0.100341,-0.18282 0.02958,-0.276555 -0.01379,-0.01827 -0.03198,-0.05237 -0.04043,-0.07578 -0.02018,-0.05594 -0.07917,-0.122242 -0.12539,-0.140954 -0.02033,-0.0082 -0.07917,-0.05529 -0.130738,-0.104568 -0.07792,-0.07446 -0.09377,-0.09545 -0.09377,-0.124214 0,-0.02427 0.0064,-0.0366 0.02151,-0.04128 0.04588,-0.01423 0.08045,-0.06189 0.08045,-0.110931 0,-0.059 -0.01908,-0.116657 -0.04636,-0.140136 -0.02341,-0.02015 -0.01242,-0.03684 0.02924,-0.04439 0.02953,-0.0054 0.03634,-0.0407 0.0095,-0.04913 -0.01137,-0.0036 -0.0553,-0.02148 -0.09763,-0.03981 -0.08937,-0.0387 -0.194216,-0.05207 -0.245511,-0.0313 -0.01891,0.0077 -0.03438,0.01812 -0.03438,0.02326 0,0.01762 -0.04679,0.03525 -0.0598,0.02253 -0.0085,-0.0083 -0.0032,-0.0186 0.01821,-0.03504 0.03922,-0.03015 0.03815,-0.04306 -0.0071,-0.08592 -0.05282,-0.05004 -0.06664,-0.04416 -0.0158,0.0067 l 0.04207,0.0421 -0.03226,0.03021 c -0.02036,0.01906 -0.0391,0.02764 -0.05079,0.02326 -0.02827,-0.0106 -0.03578,-0.07339 -0.01375,-0.115028 0.02125,-0.04016 0.01913,-0.04526 -0.05484,-0.131643 -0.04457,-0.05205 -0.05074,-0.07327 -0.0242,-0.08323 0.02245,-0.0084 0.02157,-0.03423 -0.0019,-0.05721 -0.0141,-0.01378 -0.03003,-0.01678 -0.06231,-0.01173 -0.03656,0.0057 -0.04337,0.0037 -0.04337,-0.01283 0,-0.01078 -0.01019,-0.02583 -0.02266,-0.03344 -0.01246,-0.0076 -0.02266,-0.02069 -0.02266,-0.02907 0,-0.03097 -0.05411,-0.05273 -0.110543,-0.04446 l -0.05282,0.0077 0.01937,-0.0289 c 0.03058,-0.04561 0.02358,-0.04435 -0.0415,0.0074 -0.03358,0.02673 -0.0788,0.05174 -0.100867,0.05579 -0.022,0.004 -0.0429,0.01472 -0.04644,0.02376 -0.0084,0.02143 -0.0043,0.03369 0.0099,0.02924 0.0076,-0.0024 0.0076,7e-6 0,0.0071 -0.0062,0.0059 -0.0279,0.01411 -0.04816,0.01828 -0.02763,0.0057 -0.03848,0.0034 -0.04343,-0.0092 -0.0036,-0.0092 -0.02144,-0.02 -0.03957,-0.02389 -0.01814,-0.0039 -0.03683,-0.01357 -0.04154,-0.02151 -0.01755,-0.02957 -0.1131,-0.08182 -0.19085,-0.104367 -0.08934,-0.0259 -0.12256,-0.05129 -0.105683,-0.08076 0.0065,-0.01139 0.0066,-0.02854 2.31e-4,-0.04428 -0.0057,-0.01413 -0.02106,-0.05151 -0.0341,-0.08308 -0.02127,-0.0515 -0.0225,-0.06584 -0.012,-0.139672 0.01914,-0.134487 -0.0068,-0.213501 -0.09685,-0.294584 -0.127601,-0.114949 -0.416348,-0.180982 -0.543641,-0.124324 -0.06016,0.02678 -0.122532,0.09616 -0.14661,0.163094 -0.04424,0.122979 -0.06046,0.148402 -0.09465,0.148402 -0.01758,0 -0.0418,0.007 -0.05381,0.01561 -0.02154,0.01539 -0.02153,0.01595 6.92e-4,0.04036 0.01238,0.01361 0.04396,0.03413 0.07019,0.0456 0.02622,0.01146 0.05083,0.02584 0.05469,0.03194 0.0039,0.0061 -0.0065,0.03369 -0.02311,0.06132 -0.0341,0.05687 -0.03179,0.07378 0.013,0.09486 0.02309,0.01088 0.03388,0.02645 0.04075,0.05888 0.0051,0.02425 0.01428,0.04892 0.0203,0.05481 0.006,0.0059 0.01096,0.03363 0.01096,0.06164 0,0.05965 0.01426,0.0775 0.06191,0.0775 0.0191,0 0.05374,0.01 0.077,0.02214 0.02325,0.01218 0.05511,0.02214 0.0708,0.02214 0.01653,0 0.04584,0.0155 0.06968,0.03685 l 0.04115,0.03686 -0.0129,0.08475 c -0.0076,0.04991 -0.01,0.131536 -0.0058,0.198553 0.0067,0.107151 0.0054,0.11703 -0.02163,0.169027 -0.03587,0.06889 -0.0607,0.09676 -0.10691,0.120017 -0.05239,0.02636 -0.152035,0.02376 -0.210696,-0.0055 -0.02618,-0.01306 -0.08838,-0.04339 -0.138232,-0.0674 -0.04985,-0.02401 -0.09828,-0.05011 -0.107625,-0.05799 -0.02819,-0.02377 -0.20297,-0.09444 -0.233559,-0.09444 -0.03342,0 -0.326394,-0.142663 -0.364812,-0.177644 -0.017,-0.01548 -0.02353,-0.03035 -0.01854,-0.04215 0.01713,-0.04049 0.01729,-0.05363 8.08e-4,-0.06699 -0.02227,-0.01807 -0.05985,-0.0062 -0.07785,0.02459 -0.0086,0.0147 -0.0252,0.02415 -0.04244,0.02415 -0.02056,0 -0.0293,0.0067 -0.03187,0.02437 -0.0028,0.01949 0.0077,0.02992 0.0524,0.05208 0.03077,0.01524 0.05894,0.03533 0.0626,0.04464 0.0042,0.01061 0.01385,0.01423 0.02593,0.0097 0.01322,-0.005 0.01666,-0.0031 0.01092,0.006 -0.01185,0.01874 0.01801,0.07912 0.03912,0.07912 0.0097,0 0.02339,-0.0056 0.03043,-0.01252 0.0095,-0.0093 0.04558,0.0055 0.14064,0.0577 0.226007,0.124148 0.304242,0.178341 0.304242,0.210746 0,0.02833 -0.04241,0.109343 -0.05999,0.114585 -0.0075,0.0022 -0.02752,0.007 -0.04448,0.01067 -0.03787,0.0081 -0.0491,0.02781 -0.07735,0.135778 -0.01835,0.07014 -0.01987,0.09092 -0.0088,0.120865 0.01238,0.03346 0.009,0.04535 -0.04528,0.159331 -0.03226,0.06775 -0.05866,0.130235 -0.05866,0.138869 0,0.01592 0.07756,0.06065 0.104341,0.06017 0.008,-1.15e-4 0.03694,-0.0524 0.06424,-0.116114 0.06464,-0.150892 0.06673,-0.153505 0.113543,-0.141651 0.03455,0.0088 0.03964,0.01602 0.06457,0.09224 0.01488,0.04551 0.03106,0.08874 0.03595,0.09606 0.0068,0.01024 0.04022,0.0083 0.144127,-0.0082 0.115129,-0.01835 0.144999,-0.01959 0.200853,-0.0083 0.05098,0.01029 0.08332,0.01028 0.145021,-6.6e-5 0.11553,-0.01936 0.110362,-0.02155 0.118932,0.05035 0.0042,0.03502 0.02175,0.09356 0.03906,0.130094 0.01731,0.03654 0.03425,0.07453 0.03764,0.08442 0.0093,0.02723 0.118115,0.03788 0.16143,0.01581 0.0453,-0.02309 0.05828,-0.02165 0.07865,0.0087 0.0096,0.01426 0.03767,0.04186 0.06247,0.06134 0.05157,0.0405 0.0548,0.03981 0.155112,-0.03317 0.06059,-0.04408 0.08755,-0.04656 0.0976,-0.009 0.01416,0.05291 -0.06069,0.232388 -0.135976,0.326038 -0.07065,0.08788 -0.119511,0.161296 -0.112148,0.168492 0.0037,0.0037 0.01953,-0.005 0.03508,-0.01932 0.03955,-0.03631 0.03715,-0.01241 -0.01019,0.101349 -0.02116,0.05085 -0.04702,0.11985 -0.05746,0.153343 -0.01044,0.03349 -0.05393,0.133138 -0.09665,0.221436 -0.04812,0.09948 -0.0804,0.181705 -0.08487,0.216183 -0.0078,0.05985 0.01792,0.196183 0.04764,0.253047 0.01372,0.02625 0.01428,0.04022 0.0032,0.07898 -0.01588,0.05543 -0.0062,0.08022 0.04545,0.116156 0.0258,0.01796 0.03353,0.03137 0.03169,0.05503 -0.003,0.03886 0.01941,0.0667 0.05376,0.0667 0.02143,0 0.03048,0.01143 0.05039,0.06366 0.113223,0.296978 0.15058,0.399718 0.180661,0.496873 0.03073,0.09924 0.04033,0.117057 0.08355,0.155005 0.02686,0.02358 0.05727,0.04786 0.06757,0.05395 0.01661,0.0098 0.01415,0.01706 -0.02165,0.06366 -0.02345,0.03052 -0.04945,0.05259 -0.06198,0.05259 -0.01187,0 -0.04137,0.01993 -0.06556,0.04429 l -0.04398,0.04429 h -0.09027 c -0.136359,0 -0.1794,0.02182 -0.199353,0.101079 -0.01085,0.04311 0.02508,0.07984 0.111005,0.113454 0.101899,0.03987 0.175719,0.04485 0.266596,0.01801 z m 0.951631,-1.898299 c 0,-0.01492 -0.0089,-0.03197 -0.01968,-0.03789 -0.01759,-0.0096 -0.01353,-0.01939 0.03822,-0.09189 0.03185,-0.04462 0.08478,-0.137178 0.117641,-0.205684 0.03286,-0.06851 0.06324,-0.124558 0.06752,-0.124558 0.01216,0 0.181486,0.351134 0.181486,0.376352 0,0.0046 -0.0297,0.01399 -0.06601,0.02097 -0.0363,0.007 -0.116598,0.02955 -0.178431,0.05015 -0.137829,0.04592 -0.140747,0.04618 -0.140747,0.01256 z m -1.247669,-1.349558 c 0.0069,-0.0082 0.0098,-0.01757 0.0064,-0.02089 -0.0034,-0.0033 0.0043,-0.02279 0.01705,-0.04327 0.01277,-0.02048 0.02325,-0.0456 0.02327,-0.05582 4.5e-5,-0.0187 0.02855,-0.05338 0.04389,-0.05338 0.0045,0 0.01508,0.01848 0.02344,0.04108 0.01378,0.03725 0.01326,0.04215 -0.0055,0.05259 -0.0114,0.0063 -0.04119,0.0302 -0.06619,0.05303 -0.04555,0.04162 -0.06599,0.05449 -0.04236,0.02666 z m 1.467884,-0.270478 c 0.0038,-0.0037 0.0157,0.0023 0.02646,0.01326 0.0187,0.01913 0.01839,0.01943 -0.0069,0.0067 -0.01455,-0.0073 -0.02335,-0.0163 -0.01956,-0.02001 z m -2.316997,-0.0911 c -0.0178,0 -0.02173,-0.008 -0.02173,-0.04429 0,-0.02436 0.0047,-0.04429 0.0104,-0.04429 0.0057,0 0.03124,0.01956 0.0567,0.04347 0.03804,0.03572 0.04275,0.04436 0.02642,0.04851 -0.01093,0.0028 -0.02667,0.0031 -0.03496,8.07e-4 -0.0083,-0.0023 -0.02487,-0.0042 -0.03682,-0.0042 z m 0.431426,-0.205481 c 0,-0.0112 -0.01334,-0.01595 -0.04478,-0.01595 -0.04678,0 -0.102494,-0.01902 -0.102494,-0.03499 0,-0.0051 0.01148,-0.0094 0.02549,-0.0095 0.07026,-6.92e-4 0.200196,-0.100947 0.184162,-0.142129 -0.0054,-0.01388 -0.0039,-0.01512 0.0062,-0.0052 0.02584,0.02506 -0.02919,0.247637 -0.05706,0.2308 -0.0064,-0.0038 -0.01157,-0.01416 -0.01157,-0.02294 z m -1.070585,-0.392394 c 0.0039,-0.0061 0.01307,-0.01099 0.02049,-0.0109 0.0081,9.9e-5 0.0067,0.0045 -0.0035,0.0109 -0.02177,0.01374 -0.02569,0.01374 -0.01699,0 z" />
    </g>
  </g>
</svg>
