<?xml version="1.0" encoding="UTF-8" standalone="no"?>
<!-- Created with Inkscape (http://www.inkscape.org/) -->

<svg
   width="20.057684mm"
   height="6.2143106mm"
   viewBox="0 0 20.057684 6.2143106"
   version="1.1"
   id="svg1371"
   sodipodi:docname="inkporter-svg-a1lzagw5.svg"
   xmlns:inkscape="http://www.inkscape.org/namespaces/inkscape"
   xmlns:sodipodi="http://sodipodi.sourceforge.net/DTD/sodipodi-0.dtd"
   xmlns="http://www.w3.org/2000/svg"
   xmlns:svg="http://www.w3.org/2000/svg">
  <sodipodi:namedview
     id="namedview1373"
     pagecolor="#ffffff"
     bordercolor="#666666"
     borderopacity="1.0"
     inkscape:pageshadow="2"
     inkscape:pageopacity="0.0"
     inkscape:pagecheckerboard="0"
     inkscape:document-units="mm"
     showgrid="false"
     inkscape:zoom="0.90583672"
     inkscape:cx="126.95445"
     inkscape:cy="337.25725"
     inkscape:window-width="1920"
     inkscape:window-height="1017"
     inkscape:window-x="-8"
     inkscape:window-y="-8"
     inkscape:window-maximized="1"
     inkscape:current-layer="layer1" />
  <defs
     id="defs1368" />
  <g
     inkscape:label="Layer 1"
     inkscape:groupmode="layer"
     id="layer1"
     transform="translate(-76.428977,-78.969357)">
    <g
       id="F-InfantryHQ"
       transform="translate(-52.03917,32.614921)">
      <g
         id="g1048-1-2-3">
        <path
           id="path3682-3-1-5"
           style="fill:#000000;stroke-width:0.0305117"
           d="m 129.2669,52.174574 c -0.17051,-0.07368 -0.15725,-0.224368 0.0232,-0.264011 0.0544,-0.01196 0.1335,-0.04327 0.1757,-0.06959 0.16851,-0.105091 0.16786,-0.102394 0.17406,-0.71315 0.003,-0.313872 0.0196,-0.596555 0.0366,-0.628185 0.0169,-0.03163 0.0236,-0.0851 0.0147,-0.118829 -0.021,-0.08034 0.0461,-0.236307 0.23244,-0.54015 0.0911,-0.148598 0.1633,-0.308694 0.18039,-0.400124 0.0157,-0.08383 0.0255,-0.155406 0.0218,-0.159065 -0.004,-0.0037 -0.11457,0.06249 -0.24646,0.146988 -0.1797,0.11513 -0.2581,0.14905 -0.3128,0.135321 -0.0668,-0.01677 -0.07,-0.01277 -0.0379,0.04724 0.0277,0.05175 0.0258,0.07484 -0.009,0.109604 -0.0384,0.03838 -0.0512,0.03302 -0.0995,-0.0417 -0.0305,-0.04716 -0.10298,-0.127318 -0.16111,-0.178138 -0.062,-0.05423 -0.10745,-0.12355 -0.10998,-0.167815 -0.003,-0.05608 -0.0191,-0.07283 -0.062,-0.06535 -0.067,0.01169 -0.35278,0.249922 -0.35396,0.29505 -7e-4,0.02695 -0.20284,0.137303 -0.25149,0.137303 -0.0103,0 -0.0159,-0.03664 -0.0124,-0.08141 0.005,-0.06211 0.0236,-0.08269 0.0795,-0.08681 0.0499,-0.0037 0.16839,-0.106677 0.37143,-0.322868 0.24902,-0.26514 0.33537,-0.385369 0.52384,-0.729379 0.18933,-0.345561 0.22358,-0.429645 0.21263,-0.522028 -0.0105,-0.08879 -0.0327,-0.119484 -0.11439,-0.15845 -0.0557,-0.02658 -0.11031,-0.07657 -0.12127,-0.111089 -0.011,-0.03482 -0.0462,-0.06276 -0.0789,-0.06276 -0.0507,0 -0.0598,-0.02448 -0.0651,-0.175442 -0.0108,-0.310337 -0.003,-0.354276 0.0801,-0.42536 0.19109,-0.164372 0.48148,-0.09848 0.55755,0.126516 0.0224,0.06638 0.0711,0.152918 0.10808,0.192305 0.0502,0.05348 0.0576,0.07758 0.0292,0.09516 -0.0259,0.01601 0.0162,0.06188 0.13154,0.143324 0.0933,0.06588 0.21377,0.153416 0.26773,0.194527 0.054,0.04111 0.0884,0.0634 0.0764,0.04953 -0.0377,-0.04384 0.062,-0.192585 0.14265,-0.212816 0.1414,-0.03549 0.24811,0.01485 0.23388,0.110327 -0.002,0.01198 0.017,0.01402 0.0417,0.0045 0.0293,-0.01123 0.0555,0.01046 0.0752,0.06212 0.0166,0.04366 0.0457,0.07938 0.0647,0.07938 0.021,0 0.0258,0.02094 0.0124,0.05339 -0.0122,0.02937 -0.0228,0.07056 -0.0236,0.09154 -8.1e-4,0.02098 -0.019,0.03814 -0.0403,0.03814 -0.0214,0 -0.0476,0.01407 -0.0582,0.03127 -0.0106,0.0172 -0.008,0.02815 0.006,0.02433 0.0138,-0.0038 0.0773,0.0034 0.14096,0.01614 0.0831,0.01655 0.12381,0.04417 0.14417,0.09771 0.0159,0.04172 0.053,0.07464 0.0843,0.07464 0.0308,0 0.08,0.01757 0.10935,0.03905 0.0819,0.0599 0.0172,0.196302 -0.12052,0.253829 -0.10436,0.0436 -0.10748,0.04909 -0.0643,0.112943 0.0317,0.04685 0.0702,0.06433 0.12765,0.05788 0.12757,-0.01432 0.21019,0.06109 0.26806,0.24467 0.067,0.212517 0.066,0.275041 -0.005,0.363357 -0.0452,0.05581 -0.0861,0.07086 -0.18542,0.06825 -0.12283,-0.0032 -0.12671,-4.5e-4 -0.10738,0.07672 0.011,0.04403 0.0812,0.243644 0.15599,0.443583 0.0909,0.243055 0.12579,0.373667 0.10533,0.394127 -0.0205,0.02046 -0.0374,0.01121 -0.0512,-0.0279 -0.0113,-0.03217 -0.0993,-0.230126 -0.19543,-0.439894 -0.0962,-0.209768 -0.18411,-0.420693 -0.19543,-0.468722 l -0.0206,-0.08733 -0.10484,0.117837 c -0.0577,0.06481 -0.16816,0.248275 -0.24556,0.407699 -0.0774,0.159424 -0.15977,0.311268 -0.18304,0.337432 -0.0366,0.04119 -0.0306,0.06159 0.045,0.152115 0.048,0.0575 0.0811,0.120517 0.0737,0.140039 -0.007,0.01952 0.0198,0.102103 0.0606,0.183514 0.0408,0.08141 0.0915,0.20294 0.11275,0.270066 0.0212,0.06713 0.0711,0.200582 0.11096,0.29657 0.0803,0.193686 0.0935,0.344791 0.0322,0.368345 -0.0221,0.0085 -0.11428,-0.01063 -0.20478,-0.0425 -0.0905,-0.03187 -0.19664,-0.05794 -0.23588,-0.05794 -0.0779,0 -0.25166,-0.07977 -0.25091,-0.115203 0.002,-0.07254 0.066,-0.109987 0.17806,-0.103377 0.0669,0.0039 0.13043,-0.007 0.14117,-0.02442 0.0107,-0.01738 0.007,-0.0316 -0.009,-0.0316 -0.0157,0 -0.0462,-0.04462 -0.0677,-0.09916 -0.0979,-0.248711 -0.18764,-0.415196 -0.23313,-0.432652 -0.1015,-0.03895 -0.17506,0.09916 -0.21772,0.408778 -0.0762,0.553259 -0.0843,0.643792 -0.0608,0.680824 0.021,0.0331 0.0361,0.324576 0.0169,0.328698 -0.0324,0.007 -0.52674,0.06462 -0.64838,0.07559 -0.0839,0.0076 -0.18049,0.0017 -0.21464,-0.01307 z m 0.46917,-3.128785 c 0.0393,-0.03456 0.0844,-0.08687 0.10026,-0.116264 0.0256,-0.0475 0.0152,-0.05221 -0.0937,-0.0424 -0.13433,0.0121 -0.21954,0.06456 -0.19763,0.12166 0.008,0.02014 -0.0308,0.05497 -0.0857,0.07741 l -0.0998,0.04079 0.0763,0.02189 c 0.0876,0.02513 0.19733,-0.01255 0.30029,-0.103083 z m -0.10376,-0.522927 c 0.0357,-0.0349 0.0876,-0.07615 0.11535,-0.09169 0.0394,-0.02205 0.0466,-0.05663 0.0331,-0.157763 -0.01,-0.07124 -0.0259,-0.129512 -0.0362,-0.129495 -0.029,4.9e-5 -0.30433,0.475794 -0.30726,0.531025 -0.001,0.02698 0.0646,-0.02448 0.19507,-0.152082 z" />
        <path
           d="m 133.17344,52.35706 c -0.0119,-10e-4 -0.0537,-0.01 -0.0929,-0.0179 -0.0556,-0.0115 -0.0725,-0.0128 -0.0768,-0.006 -0.007,0.0115 -0.0875,-10e-4 -0.15709,-0.0242 -0.0539,-0.018 -0.0614,-0.0309 -0.0413,-0.0712 0.006,-0.0125 0.0113,-0.0321 0.0113,-0.0437 0,-0.0115 0.004,-0.0275 0.008,-0.0355 0.006,-0.0109 0.005,-0.0201 -0.003,-0.0374 -0.0149,-0.0316 -0.0324,-0.12111 -0.038,-0.19376 l -0.005,-0.0608 0.0403,-0.0788 0.0403,-0.0788 -0.014,-0.0858 c -0.008,-0.0472 -0.0157,-0.0875 -0.0177,-0.0895 -0.002,-0.002 -0.0272,-0.004 -0.056,-0.005 -0.0287,-10e-4 -0.0806,-0.004 -0.11531,-0.007 l -0.0631,-0.005 v 0.0255 c 0,0.0214 0.009,0.0358 0.0547,0.0892 0.0864,0.10046 0.0934,0.12243 0.071,0.22222 -0.0241,0.10762 -0.0257,0.11145 -0.0562,0.13751 -0.0279,0.0239 -0.0293,0.027 -0.0278,0.0621 0.001,0.024 -0.002,0.0431 -0.01,0.0544 -0.0126,0.0192 -0.0143,0.0409 -0.008,0.10781 0.004,0.0376 0.002,0.0476 -0.0103,0.0629 -0.027,0.0342 -0.094,0.0395 -0.2262,0.0179 -0.0911,-0.0149 -0.11173,-0.0301 -0.11173,-0.082 0,-0.0322 0.004,-0.0438 0.033,-0.0864 0.0381,-0.0569 0.0453,-0.0735 0.0534,-0.12288 0.004,-0.025 0.003,-0.0429 -0.004,-0.0584 -0.005,-0.0123 -0.0116,-0.0399 -0.0145,-0.0613 -0.003,-0.0214 -0.0109,-0.0535 -0.0179,-0.0714 -0.007,-0.0179 -0.0147,-0.0633 -0.0174,-0.10092 -0.006,-0.0839 -0.0252,-0.19463 -0.034,-0.19463 -0.004,0 -0.007,0.0397 -0.007,0.0883 -6e-5,0.0486 -0.003,0.0927 -0.006,0.0981 -0.01,0.0157 -0.0674,0.0187 -0.10601,0.005 -0.0463,-0.0158 -0.12039,-0.0157 -0.13358,2.2e-4 -0.007,0.009 -0.0101,0.0376 -0.0105,0.10632 l -7e-4,0.0944 -0.0258,-7.1e-4 c -0.0384,-10e-4 -0.0951,-0.0218 -0.15062,-0.0549 -0.0272,-0.0162 -0.0494,-0.0304 -0.0494,-0.0314 0,-10e-4 0.003,-0.0257 0.007,-0.0547 0.006,-0.0474 0.0229,-0.26997 0.0432,-0.58261 0.007,-0.10678 0.0142,-0.25655 0.0294,-0.61273 0.004,-0.0892 0.0101,-0.32763 0.014,-0.52983 0.004,-0.2022 0.0104,-0.40819 0.0146,-0.45774 0.0269,-0.32331 0.0444,-0.44628 0.0978,-0.68971 0.0176,-0.08 0.0339,-0.16921 0.0363,-0.19824 0.004,-0.0486 0.003,-0.0539 -0.0118,-0.0672 -0.0157,-0.014 -0.0164,-0.014 -0.0243,-10e-4 -0.0478,0.0793 -0.0959,0.13588 -0.12585,0.14829 -0.0168,0.007 -0.0257,0.007 -0.0453,-0.001 -0.0373,-0.0157 -0.0956,-0.065 -0.14036,-0.11878 -0.0605,-0.0726 -0.19437,-0.277 -0.21155,-0.32293 -0.0175,-0.0469 -0.0277,-0.11231 -0.0303,-0.19578 l -0.002,-0.0593 0.0591,-0.0606 c 0.0325,-0.0333 0.0591,-0.0645 0.0591,-0.0692 0,-0.005 0.0176,-0.027 0.039,-0.0495 0.0285,-0.0299 0.0404,-0.0486 0.0442,-0.0697 0.009,-0.0474 0.0245,-0.0803 0.044,-0.0907 0.0101,-0.005 0.0261,-0.0252 0.0357,-0.044 0.01,-0.0188 0.0268,-0.045 0.0384,-0.0582 0.017,-0.0194 0.0225,-0.0348 0.029,-0.0813 0.0132,-0.0952 0.0825,-0.19172 0.1446,-0.20155 0.0179,-0.003 0.0572,-0.0157 0.0874,-0.0287 0.0303,-0.013 0.0724,-0.0275 0.0937,-0.0323 0.0916,-0.0207 0.15834,-0.0565 0.26303,-0.14088 0.0606,-0.0489 0.0989,-0.0847 0.0972,-0.0908 -0.007,-0.026 -0.0154,-0.063 -0.0191,-0.088 -0.003,-0.0219 -0.007,-0.0266 -0.0167,-0.0234 -0.0151,0.005 -0.0339,-0.008 -0.048,-0.0322 -0.0347,-0.0603 -0.0612,-0.12155 -0.0612,-0.14153 0,-0.0212 0.0151,-0.0458 0.028,-0.0458 0.003,0 0.0107,-0.0111 0.0171,-0.0247 0.0105,-0.0221 0.0106,-0.0256 0.001,-0.0338 -0.007,-0.006 -0.0104,-0.0194 -0.009,-0.0384 0.001,-0.0161 0.001,-0.0463 7e-4,-0.0671 l -0.001,-0.0379 h -0.0291 c -0.0768,0 -0.13151,-0.0646 -0.0821,-0.097 0.0804,-0.0527 0.34233,-0.0901 0.5279,-0.0755 0.0823,0.007 0.21081,0.0359 0.26088,0.0598 0.057,0.0272 0.0464,0.0624 -0.0276,0.0917 -0.0225,0.009 -0.0449,0.0193 -0.0499,0.0231 -0.0102,0.008 -0.0125,0.0743 -0.003,0.0802 0.007,0.004 0.002,0.0402 -0.005,0.0403 -0.002,3e-5 -0.005,0.0236 -0.006,0.0523 -0.001,0.0477 -0.0163,0.12447 -0.031,0.16032 -0.003,0.008 -0.008,0.0323 -0.01,0.0541 -0.002,0.0218 -0.0106,0.0567 -0.0186,0.0776 -0.0284,0.0742 -0.0306,0.071 0.10985,0.16279 0.16921,0.11064 0.25016,0.15811 0.32259,0.18919 0.0663,0.0284 0.10211,0.0519 0.11949,0.0785 0.006,0.009 0.0307,0.0942 0.0546,0.18875 0.0647,0.25529 0.0757,0.30567 0.0924,0.42285 0.008,0.0588 0.0231,0.13174 0.0328,0.16219 0.0187,0.0585 0.0218,0.11514 0.0119,0.21399 -0.003,0.0278 -0.003,0.0635 -1.5e-4,0.0793 0.003,0.0158 0.002,0.0585 -0.001,0.0949 -0.005,0.0574 -0.012,0.0804 -0.0517,0.17587 -0.0424,0.10203 -0.0479,0.11139 -0.0777,0.13217 -0.12089,0.0844 -0.1313,0.13013 -0.0731,0.32135 0.0162,0.0534 0.0361,0.1318 0.0441,0.17416 0.0196,0.1042 0.0642,0.26448 0.11595,0.41695 0.0236,0.0695 0.0589,0.18681 0.0786,0.26075 0.0318,0.11964 0.0527,0.18375 0.12998,0.3992 0.0114,0.0318 0.0323,0.10806 0.0463,0.1694 0.0319,0.13906 0.0467,0.18424 0.13159,0.39987 0.0686,0.1744 0.14617,0.39894 0.14617,0.42323 0,0.008 -0.009,0.017 -0.0234,0.0229 -0.0756,0.0317 -0.12015,0.0482 -0.28293,0.10522 l -0.18021,0.0631 0.002,0.0397 c 0.003,0.0515 7.1e-4,0.0532 -0.15021,0.10218 -0.0654,0.0212 -0.13648,0.0456 -0.15791,0.0542 -0.0214,0.009 -0.0429,0.014 -0.0476,0.0122 -0.008,-0.003 -0.0255,-0.0877 -0.0503,-0.24574 -0.0113,-0.0717 -0.017,-0.0829 -0.0426,-0.0831 -0.0129,-1.5e-4 -0.0134,0.005 -0.009,0.099 0.002,0.0545 0.007,0.1256 0.009,0.15796 0.004,0.0447 0.001,0.0671 -0.007,0.0932 -0.006,0.0189 -0.0117,0.0436 -0.0117,0.0549 0,0.0113 -0.005,0.0323 -0.0108,0.0466 -0.009,0.0204 -0.009,0.0283 -0.002,0.0364 0.007,0.008 0.007,0.0136 2.2e-4,0.0239 -0.007,0.0106 -0.006,0.0179 0.002,0.0337 0.006,0.0111 0.014,0.0339 0.0181,0.0507 0.006,0.0254 0.0158,0.0372 0.0577,0.0706 0.0276,0.022 0.055,0.0495 0.061,0.061 0.0135,0.0261 0.0141,0.0749 10e-4,0.0857 -0.0108,0.009 -0.0828,0.0157 -0.11641,0.0109 z m 0.0765,-3.86115 c 0.009,-0.0168 0.0216,-0.0384 0.029,-0.0478 0.007,-0.009 0.0134,-0.0269 0.0134,-0.0388 0,-0.0119 0.007,-0.0325 0.0149,-0.0458 0.0173,-0.028 0.0144,-0.0431 -0.0134,-0.0698 l -0.0199,-0.0191 -2.8e-4,0.0304 c -1.5e-4,0.0168 -0.009,0.0499 -0.0192,0.0737 -0.0261,0.0598 -0.0373,0.10545 -0.0316,0.12838 0.003,0.0107 0.006,0.0194 0.008,0.0194 0.002,0 0.0103,-0.0138 0.0189,-0.0306 z m -1.20065,-0.19351 c 0.008,-0.0131 -0.005,-0.24441 -0.0133,-0.24441 -0.006,0 -0.10416,0.0427 -0.16909,0.0739 -0.0165,0.008 -0.022,0.0198 -0.009,0.0198 0.0132,0 0.10933,0.0964 0.12312,0.1234 0.008,0.0148 0.0194,0.0284 0.0265,0.0302 0.0232,0.006 0.0371,0.005 0.042,-0.003 z"
           id="path13056-2-5-0-3" />
      </g>
      <path
         id="path3698-0-6-8"
         style="fill:#000000;stroke-width:0.0305117"
         d="m 133.60479,52.339029 c -0.0412,-0.04118 -0.0184,-0.144258 0.0524,-0.237058 0.0633,-0.08302 0.0768,-0.148457 0.10448,-0.506323 0.0175,-0.226038 0.0294,-0.526035 0.0264,-0.66666 -0.004,-0.213724 0.003,-0.261253 0.048,-0.289638 0.0393,-0.02502 0.0679,-0.0248 0.10902,8.53e-4 0.0452,0.02824 0.0625,0.02395 0.0916,-0.02269 0.0197,-0.03162 0.0359,-0.08926 0.0359,-0.128089 0,-0.03882 0.0121,-0.08363 0.0268,-0.09958 0.0147,-0.01594 0.042,-0.125098 0.0605,-0.242568 0.0185,-0.11747 0.0475,-0.280333 0.0644,-0.361917 0.0254,-0.12225 0.0219,-0.163379 -0.0197,-0.233891 -0.0465,-0.07881 -0.0467,-0.09352 -0.002,-0.186502 0.0354,-0.07317 0.0399,-0.111798 0.0161,-0.140389 -0.0207,-0.0249 -0.0254,-0.111007 -0.0129,-0.233448 0.0192,-0.187836 0.0172,-0.195749 -0.0645,-0.248889 -0.16685,-0.108545 -0.40398,-0.33518 -0.40435,-0.386466 -7e-4,-0.08862 0.178,-0.261254 0.32904,-0.317939 0.0789,-0.02962 0.20681,-0.0923 0.28418,-0.139283 0.0774,-0.04698 0.14946,-0.08542 0.16019,-0.08542 0.0107,0 0.0468,-0.02727 0.0801,-0.0606 0.0524,-0.0524 0.086,-0.05795 0.248,-0.04101 0.17353,0.01814 0.19158,0.01415 0.24384,-0.05382 0.0606,-0.07877 0.0774,-0.256007 0.0273,-0.286988 -0.0168,-0.01037 -0.0305,-0.06353 -0.0305,-0.118139 0,-0.171586 0.26308,-0.350696 0.55676,-0.379063 l 0.14486,-0.01399 -0.007,0.148805 c -0.006,0.126178 8.1e-4,0.147454 0.0455,0.13992 0.0289,-0.0049 0.0811,0.0064 0.11598,0.02501 0.0801,0.04285 0.0349,0.108314 -0.0944,0.136708 -0.0764,0.01677 -0.088,0.0328 -0.0843,0.11638 0.002,0.05331 -0.005,0.120955 -0.0161,0.150323 -0.0112,0.02937 -0.0273,0.07529 -0.0358,0.10206 -0.008,0.02676 -0.0428,0.05583 -0.0763,0.06458 -0.0898,0.02347 -0.074,0.09593 0.0337,0.15515 0.23123,0.127127 0.26483,0.193165 0.31877,0.626615 0.0101,0.08111 0.0379,0.202977 0.0619,0.270813 0.0586,0.166204 0.0533,0.402077 -0.0136,0.595558 l -0.0551,0.159518 0.27732,0.285211 c 0.30809,0.316857 0.7587,0.714267 0.86458,0.762511 0.0378,0.01723 0.0687,0.05529 0.0687,0.08459 0,0.08043 -0.12008,0.04109 -0.22523,-0.07379 -0.0484,-0.05284 -0.0769,-0.07547 -0.0634,-0.0503 0.0237,0.04427 -0.0999,-0.04436 -0.14194,-0.101769 -0.0103,-0.01402 -0.0309,-0.02469 -0.0458,-0.02371 -0.0149,9.8e-4 -0.0943,-0.0562 -0.17648,-0.127069 -0.0822,-0.07087 -0.16615,-0.138806 -0.18663,-0.150975 -0.0412,-0.02445 -0.38101,0.03806 -0.38101,0.07008 0,0.01105 0.0255,0.05284 0.0566,0.09286 0.07,0.09008 0.121,0.253097 0.12194,0.390159 3.5e-4,0.0571 0.0153,0.112829 0.0332,0.123852 0.0317,0.0196 0.0652,0.40482 0.0738,0.849621 0.005,0.250683 0.0352,0.291938 0.28514,0.387808 0.14913,0.0572 0.20017,0.15517 0.11376,0.218355 -0.0804,0.05882 -0.17361,0.05015 -0.38517,-0.03581 -0.10325,-0.04195 -0.23079,-0.07628 -0.28343,-0.07628 -0.0526,0 -0.12014,-0.01787 -0.15002,-0.03972 -0.0491,-0.03588 -0.0508,-0.05754 -0.0181,-0.223945 0.0298,-0.151694 0.0279,-0.226839 -0.0108,-0.425581 -0.0258,-0.132747 -0.0559,-0.299641 -0.0667,-0.370874 -0.0108,-0.07123 -0.0322,-0.137262 -0.0475,-0.146731 -0.0153,-0.0095 -0.0279,-0.04387 -0.0279,-0.07644 0,-0.04252 -0.0211,-0.05922 -0.0748,-0.05922 -0.0593,0 -0.10477,-0.04597 -0.21901,-0.22121 -0.13271,-0.203573 -0.14571,-0.215128 -0.16304,-0.144931 -0.0293,0.118617 -0.10603,0.0953 -0.11693,-0.03552 -0.0172,-0.20633 -0.0797,-0.160797 -0.26888,0.195795 -0.0987,0.186082 -0.20007,0.348052 -0.22525,0.359932 -0.0252,0.01188 -0.096,0.04303 -0.15735,0.06923 -0.0847,0.03613 -0.11675,0.07109 -0.13295,0.144853 -0.0117,0.05347 -0.0678,0.23623 -0.12444,0.406123 -0.0567,0.169893 -0.10329,0.347086 -0.10352,0.393761 -2.4e-4,0.04668 -0.0205,0.09257 -0.045,0.101982 -0.0245,0.0094 -0.0536,0.04674 -0.0646,0.08295 -0.0357,0.117293 -0.10813,0.172624 -0.22604,0.172624 -0.0617,0 -0.12138,-0.0092 -0.13257,-0.02034 z m 0.33135,-1.682422 c -0.009,-0.0094 -0.034,-1.9e-5 -0.0547,0.02083 -0.0299,0.03013 -0.0264,0.03364 0.0171,0.01708 0.0301,-0.01146 0.047,-0.02852 0.0376,-0.03791 z m 2.26089,-0.594526 c 0.006,-0.0059 -0.0294,-0.04933 -0.0786,-0.09644 -0.1033,-0.09896 -0.18823,-0.08884 -0.16424,0.01958 0.0319,0.144013 0.0328,0.144804 0.13477,0.115555 0.0535,-0.01534 0.10213,-0.03276 0.10807,-0.03869 z m -0.44625,-2.633636 c 0,-0.02525 -0.0592,-0.03953 -0.0728,-0.01756 -0.009,0.01426 0.004,0.02592 0.0284,0.02592 0.0244,0 0.0444,-0.0038 0.0444,-0.0084 z" />
      <path
         style="fill:#000000;stroke-width:0.0305117"
         d="m 144.31507,52.52132 c 0.17191,-0.196735 0.2114,-0.310103 0.22444,-0.644346 0.007,-0.179222 0.0297,-0.439511 0.0506,-0.578418 0.035,-0.23385 0.045,-0.25676 0.13396,-0.309272 0.0775,-0.04573 0.11397,-0.106137 0.18825,-0.311908 0.0507,-0.140357 0.10847,-0.334329 0.12844,-0.431048 0.0358,-0.173272 0.0928,-0.213176 0.0928,-0.06492 0,0.0418 0.0209,0.116503 0.0465,0.166014 0.0417,0.08069 0.0417,0.09935 0,0.18004 -0.0588,0.113758 -0.0599,0.215097 -0.002,0.215097 0.0265,0 0.0507,0.03989 0.06,0.09916 0.0324,0.205628 0.061,0.592408 0.0536,0.724653 -0.004,0.07552 -0.0106,0.199089 -0.0142,0.274606 l -0.007,0.137302 0.21359,0.02032 c 0.11747,0.01118 0.28276,0.02981 0.36732,0.0414 0.12063,0.01654 0.16224,0.01084 0.19322,-0.02648 0.0709,-0.08544 0.028,-0.148389 -0.12819,-0.187998 -0.24304,-0.06164 -0.23624,-0.03564 -0.19958,-0.762616 0.0226,-0.447416 0.0466,-0.675226 0.0798,-0.755081 0.0371,-0.08927 0.0433,-0.177694 0.0285,-0.403035 -0.0111,-0.169014 -0.007,-0.296009 0.01,-0.306362 0.0157,-0.0097 0.0205,-0.05827 0.0106,-0.107873 -0.0114,-0.0568 0.006,-0.155191 0.0472,-0.265794 0.0359,-0.09658 0.0848,-0.269848 0.10862,-0.385033 l 0.0434,-0.209428 -0.11662,-0.248248 c -0.0641,-0.136537 -0.14132,-0.310035 -0.17151,-0.385551 -0.0665,-0.166397 -0.15737,-0.274605 -0.23055,-0.274605 -0.0729,0 -0.2097,-0.06408 -0.2097,-0.09823 0,-0.01508 -0.0123,-0.01982 -0.0273,-0.01053 -0.015,0.0093 -0.0352,-0.0036 -0.0448,-0.02871 -0.01,-0.02508 -0.003,-0.04559 0.0139,-0.04559 0.0172,0 0.0242,-0.01155 0.0155,-0.02566 -0.009,-0.01411 0.0262,-0.05677 0.0777,-0.09479 0.0817,-0.06043 0.0907,-0.08119 0.0716,-0.165039 -0.0121,-0.05275 -0.0272,-0.148146 -0.0337,-0.211989 -0.0242,-0.237792 -0.13243,-0.356853 -0.3243,-0.356853 -0.12239,0 -0.19635,0.06217 -0.29485,0.247848 -0.06,0.113135 -0.0688,0.161386 -0.0511,0.2797 0.0118,0.07864 0.0412,0.162759 0.0654,0.186933 0.0962,0.09616 0.0145,0.149444 -0.22186,0.1447 -0.13823,-0.0028 -0.14675,0.0027 -0.32932,0.210931 -0.24525,0.279758 -0.44226,0.590352 -0.44226,0.697251 0,0.09292 0.11902,0.425054 0.20654,0.576342 l 0.0761,0.131606 -0.0651,0.04557 c -0.0358,0.02506 -0.0651,0.07864 -0.0651,0.119065 0,0.07585 0.31903,0.594298 0.36571,0.594298 0.0144,0 0.0182,0.106165 0.008,0.235921 -0.0147,0.193938 -0.0333,0.257194 -0.10444,0.355463 -0.0935,0.129118 -0.10849,0.228702 -0.0487,0.324381 0.03,0.04812 0.0301,0.07304 2.3e-4,0.120936 -0.0286,0.04585 -0.0305,0.128232 -0.008,0.343257 0.0164,0.155612 0.03,0.391662 0.0303,0.524557 4.6e-4,0.213644 -0.0103,0.260772 -0.0928,0.406952 -0.0557,0.09875 -0.0895,0.198038 -0.0839,0.246561 0.008,0.07125 0.0246,0.08235 0.13302,0.09032 0.0891,0.0066 0.13701,-0.0062 0.17156,-0.04577 z"
         id="path3674-0-8" />
      <path
         id="path3690-0-6"
         style="fill:#000000;stroke-width:0.0305117"
         d="m 144.17971,52.363648 c 0.0608,-0.06085 0.0653,-0.400462 0.007,-0.540384 -0.0225,-0.054 -0.0353,-0.114647 -0.0285,-0.134771 0.007,-0.02012 -0.0799,-0.222248 -0.19271,-0.449165 -0.16612,-0.334235 -0.22734,-0.428016 -0.32239,-0.49389 -0.0878,-0.06084 -0.11734,-0.102368 -0.11734,-0.164962 0,-0.04601 -0.0206,-0.100742 -0.0458,-0.121633 -0.0252,-0.02089 -0.0458,-0.0689 -0.0458,-0.106691 0,-0.03779 -0.0187,-0.121921 -0.0415,-0.186962 -0.0228,-0.06504 -0.0512,-0.243602 -0.063,-0.396805 l -0.0216,-0.278551 0.0859,-0.03542 c 0.16134,-0.06651 0.25321,-0.127569 0.28703,-0.190751 0.0296,-0.05529 0.013,-0.08452 -0.13359,-0.234919 -0.21759,-0.223294 -0.24501,-0.280439 -0.22041,-0.459354 0.0177,-0.12863 0.0106,-0.156051 -0.0629,-0.243396 -0.0675,-0.08025 -0.10169,-0.09681 -0.18495,-0.08964 -0.0844,0.0073 -0.11789,-0.0097 -0.19272,-0.0972 -0.0498,-0.0583 -0.0912,-0.12248 -0.0918,-0.142623 -6.9e-4,-0.02014 -0.0198,-0.0476 -0.0426,-0.06102 -0.0227,-0.01342 -0.0575,-0.05529 -0.0773,-0.09305 -0.0198,-0.03776 -0.063,-0.06865 -0.096,-0.06865 -0.033,0 -0.06,-0.01149 -0.06,-0.02552 0,-0.03789 -0.32174,-0.1937 -0.41063,-0.198855 -0.0917,-0.0053 -0.11333,-0.04777 -0.1245,-0.24393 -0.0101,-0.177304 -0.10834,-0.297868 -0.28612,-0.351132 -0.25162,-0.07539 -0.39851,-0.02361 -0.45979,0.162076 -0.0191,0.05788 -0.0614,0.113684 -0.0939,0.124009 -0.079,0.02507 -0.0745,0.05915 0.0172,0.131253 0.0419,0.033 0.0764,0.07862 0.0765,0.101377 9e-5,0.02276 0.0186,0.07662 0.0411,0.11969 0.0225,0.04307 0.0502,0.115642 0.0617,0.161265 0.0124,0.04945 0.0521,0.09485 0.0983,0.112411 l 0.0775,0.02946 -0.0631,0.08859 c -0.0402,0.05647 -0.0633,0.136663 -0.0636,0.221183 -7e-4,0.185218 -0.0336,0.227249 -0.10955,0.139868 -0.15678,-0.180305 -0.65325,-0.953741 -0.74421,-1.159372 -0.0646,-0.146027 -0.11061,-0.179714 -0.14019,-0.102627 -0.0163,0.04254 0.088,0.243938 0.11332,0.218669 0.008,-0.0075 0.0155,0.0097 0.0177,0.03825 0.008,0.09804 0.026,0.145071 0.12742,0.324717 0.0978,0.173367 0.0999,0.183592 0.0551,0.277512 -0.0497,0.104303 -0.0465,0.150356 0.0551,0.792229 0.10724,0.676971 0.17435,0.823789 0.55932,1.223675 0.25679,0.266738 0.26876,0.27504 0.30027,0.208268 0.0282,-0.0598 0.0236,-0.07185 -0.0328,-0.08602 -0.0636,-0.01597 -0.4335,-0.368323 -0.51603,-0.4916 -0.0891,-0.133044 -0.14748,-0.346664 -0.23525,-0.860264 -0.058,-0.339331 -0.0842,-0.57622 -0.0714,-0.644549 l 0.0203,-0.108035 0.0598,0.07385 c 0.0329,0.04062 0.0929,0.139099 0.13328,0.218847 0.0623,0.122972 0.0676,0.154406 0.0349,0.206946 -0.0321,0.05155 -0.0296,0.07762 0.0149,0.155257 0.0294,0.05132 0.0534,0.144912 0.0534,0.207984 0,0.09406 0.0143,0.121213 0.0798,0.151029 0.0439,0.01999 0.10456,0.02849 0.13484,0.01888 0.0593,-0.01882 0.0707,0.0043 0.10534,0.213914 0.0233,0.141183 0.0967,0.269461 0.13905,0.243265 0.0161,-0.0099 0.0292,0.02107 0.0292,0.06886 0,0.04779 0.0281,0.141276 0.0623,0.207755 0.0956,0.185332 0.10515,0.381947 0.0252,0.51748 -0.082,0.139058 -0.12093,0.339312 -0.0845,0.435139 0.0173,0.04546 0.0158,0.09427 -0.004,0.131367 -0.0216,0.04039 -0.0217,0.07747 -3.5e-4,0.117438 0.0172,0.03213 0.0399,0.200322 0.0504,0.373768 0.0105,0.173447 0.0359,0.350725 0.0564,0.393951 0.0669,0.141062 -0.0293,0.258606 -0.28365,0.346577 -0.19597,0.06778 -0.15288,0.230831 0.061,0.230831 0.0656,0 0.17034,-0.02166 0.23273,-0.04813 0.0624,-0.02647 0.17522,-0.05454 0.25074,-0.06238 0.22388,-0.02322 0.22406,-0.02341 0.19842,-0.202748 -0.0126,-0.08782 -0.025,-0.403411 -0.0277,-0.701313 -0.004,-0.488034 3.4e-4,-0.543288 0.0476,-0.558299 0.0289,-0.0092 0.0907,-0.07713 0.1375,-0.15103 0.0782,-0.12362 0.0892,-0.130587 0.13726,-0.08709 0.0578,0.05227 0.11712,0.03256 0.11712,-0.03889 0,-0.03028 0.0234,-0.04275 0.0682,-0.03634 0.0467,0.0067 0.11877,0.08687 0.22816,0.253843 0.20387,0.311194 0.48406,0.625491 0.5576,0.625491 0.0372,0 0.097,0.0662 0.1724,0.190698 0.0635,0.104884 0.14689,0.237237 0.18528,0.294119 0.077,0.114133 0.0896,0.262203 0.0328,0.386843 -0.0339,0.07444 -0.0288,0.08858 0.0615,0.16925 0.11054,0.09877 0.24847,0.115817 0.32421,0.04008 z m -2.3936,-3.202288 c -0.0212,-0.02558 -0.0309,-0.05415 -0.0216,-0.0635 0.0233,-0.02335 0.14427,0.04417 0.14427,0.08056 0,0.04575 -0.0797,0.03466 -0.12266,-0.01707 z" />
      <path
         style="fill:#000000;stroke-width:0.0305117"
         d="m 148.15387,52.437972 c -0.0272,-0.02723 -0.0495,-0.07519 -0.0495,-0.106561 0,-0.03137 -0.0123,-0.06463 -0.0273,-0.07391 -0.015,-0.0093 -0.0344,-0.06844 -0.043,-0.131475 -0.0321,-0.233821 -0.11197,-0.609855 -0.17879,-0.841802 -0.0561,-0.194772 -0.0844,-0.24704 -0.15283,-0.282425 -0.0779,-0.0403 -0.13017,-0.125846 -0.36651,-0.600294 -0.0315,-0.06316 -0.0716,-0.152408 -0.0893,-0.198326 l -0.032,-0.08349 -0.0468,0.09154 c -0.0257,0.05034 -0.0984,0.146456 -0.16151,0.213582 -0.0837,0.08901 -0.13419,0.186061 -0.18662,0.358512 -0.0509,0.167288 -0.0863,0.236466 -0.12101,0.236466 -0.0699,0 -0.13488,0.369721 -0.12676,0.721654 l 0.006,0.279233 -0.15999,0.03028 c -0.088,0.01665 -0.202,0.04748 -0.25333,0.06851 -0.062,0.02542 -0.13365,0.02994 -0.21358,0.01348 -0.0793,-0.01633 -0.10057,-0.02929 -0.0624,-0.03809 0.0452,-0.01042 0.0488,-0.01894 0.0163,-0.03901 -0.0316,-0.01955 -0.0236,-0.03289 0.0337,-0.05595 0.1314,-0.05288 0.24859,-0.169323 0.25029,-0.248725 0.003,-0.137779 -0.0666,-0.734107 -0.10025,-0.858937 -0.0397,-0.147503 -0.0218,-0.20808 0.0616,-0.20808 0.0341,0 0.062,-0.01847 0.062,-0.04104 0,-0.02257 0.0275,-0.06589 0.061,-0.09626 0.0421,-0.03813 0.061,-0.09398 0.061,-0.180423 0,-0.06886 0.043,-0.24179 0.0957,-0.384295 0.0538,-0.145772 0.0998,-0.335418 0.10521,-0.433589 0.005,-0.09597 0.0255,-0.204393 0.0451,-0.24094 0.0286,-0.05354 0.0267,-0.07139 -0.01,-0.09186 -0.0363,-0.02034 -0.0401,-0.05363 -0.019,-0.166722 0.0145,-0.07772 0.0182,-0.154486 0.008,-0.170591 -0.0101,-0.01632 -0.0702,-0.02048 -0.1358,-0.0094 -0.0978,0.01652 -0.13519,0.0065 -0.22086,-0.0588 -0.0567,-0.04328 -0.1277,-0.124246 -0.15769,-0.179934 -0.0733,-0.136116 -0.0482,-0.178851 0.34295,-0.583166 0.28121,-0.290686 0.32596,-0.325152 0.43594,-0.335745 0.14405,-0.01388 0.19984,-0.053 0.21908,-0.153645 0.016,-0.08347 0.002,-0.108824 -0.0836,-0.157822 -0.0352,-0.02007 -0.0566,-0.05872 -0.0506,-0.09154 0.006,-0.03124 0.0166,-0.111722 0.0242,-0.178848 0.008,-0.06713 0.0203,-0.152557 0.0281,-0.189848 0.0185,-0.08791 0.21673,-0.22206 0.32809,-0.22206 0.10918,0 0.26518,0.148993 0.26518,0.253266 0,0.04119 0.0206,0.09198 0.0458,0.112875 0.0569,0.04726 0.06,0.202111 0.005,0.234949 -0.0226,0.01342 -0.0492,0.07587 -0.0591,0.138776 -0.0207,0.132014 -0.003,0.146734 0.24366,0.204646 0.0873,0.02047 0.17125,0.05318 0.18662,0.07268 0.0314,0.03979 0.16751,0.450813 0.21894,0.660949 0.0507,0.207363 0.095,0.305117 0.13797,0.305117 0.0213,0 0.0467,-0.0206 0.0564,-0.04577 0.0255,-0.06651 0.0805,-0.05609 0.0805,0.01526 0,0.03356 0.0149,0.06102 0.0331,0.06102 0.0182,0 0.0273,0.01716 0.0203,0.03814 -0.007,0.02226 -0.0508,0.03423 -0.10414,0.02876 -0.11364,-0.01167 -0.16311,0.04423 -0.16861,0.190516 -0.005,0.121006 -0.0582,0.169752 -0.18697,0.169752 -0.0561,0 -0.0785,0.01962 -0.0898,0.07868 -0.01,0.05148 2.3e-4,0.08456 0.0293,0.0957 0.11136,0.04273 0.115,0.33831 0.004,0.3672 -0.0676,0.01767 -0.0685,0.06867 -0.007,0.373771 0.0254,0.125861 0.0538,0.275162 0.0632,0.331781 0.009,0.05662 0.0429,0.128702 0.0744,0.160186 0.0358,0.03578 0.0572,0.100463 0.0572,0.17251 0,0.07751 0.02,0.132381 0.061,0.167516 0.0676,0.05788 0.0671,0.05299 0.0771,0.710464 0.006,0.403318 0.0151,0.475183 0.0736,0.589693 0.0976,0.191354 0.0776,0.260828 -0.0783,0.272218 -0.0853,0.0062 -0.1419,-0.0068 -0.17544,-0.04032 z"
         id="path3680-9-9" />
    </g>
  </g>
</svg>
