<?xml version="1.0" encoding="UTF-8" standalone="no"?>
<!-- Created with Inkscape (http://www.inkscape.org/) -->

<svg
   width="11.035431mm"
   height="5.8865886mm"
   viewBox="0 0 11.035431 5.8865886"
   version="1.1"
   id="svg1"
   sodipodi:docname="inkporter-svg-ah7yib3z.svg"
   xmlns:inkscape="http://www.inkscape.org/namespaces/inkscape"
   xmlns:sodipodi="http://sodipodi.sourceforge.net/DTD/sodipodi-0.dtd"
   xmlns="http://www.w3.org/2000/svg"
   xmlns:svg="http://www.w3.org/2000/svg">
  <sodipodi:namedview
     id="namedview1"
     pagecolor="#ffffff"
     bordercolor="#666666"
     borderopacity="1.0"
     inkscape:showpageshadow="2"
     inkscape:pageopacity="0.0"
     inkscape:pagecheckerboard="0"
     inkscape:deskcolor="#d1d1d1"
     inkscape:document-units="mm"
     inkscape:zoom="1.4556538"
     inkscape:cx="363.4106"
     inkscape:cy="674.95446"
     inkscape:window-width="1920"
     inkscape:window-height="1017"
     inkscape:window-x="-8"
     inkscape:window-y="-8"
     inkscape:window-maximized="1"
     inkscape:current-layer="layer1" />
  <defs
     id="defs1" />
  <g
     inkscape:label="Layer 1"
     inkscape:groupmode="layer"
     id="layer1"
     transform="translate(-107.70941,-153.28784)">
    <g
       id="F-Infantrys4a-6"
       transform="translate(179.98185,109.81985)">
      <path
         id="path201-6"
         style="fill:#000000;stroke-width:0.0305116"
         d="m -67.260688,43.467993 c -0.106333,0 -0.311262,0.166696 -0.388607,0.31626 -0.04591,0.08877 -0.04439,0.09454 0.03256,0.160714 0.118412,0.101847 0.07833,0.174302 -0.08423,0.152445 -0.06892,-0.0093 -0.207821,-0.02605 -0.308508,-0.03721 -0.201117,-0.0223 -0.301527,-0.06122 -0.273885,-0.105937 0.02899,-0.04688 -0.156373,-0.04502 -0.214457,0.0021 -0.03628,0.02941 -0.427416,0.0096 -0.634587,-0.03204 -0.08053,-0.01618 -0.220305,-0.02946 -0.310575,-0.02946 -0.105487,0 -0.178212,-0.01571 -0.204122,-0.04444 -0.02218,-0.02459 -0.06125,-0.06878 -0.0863,-0.09819 -0.04314,-0.05063 -0.04594,-0.05068 -0.05684,0.0062 -0.0064,0.03301 -0.02927,0.08601 -0.05116,0.117305 -0.05752,0.08223 -0.02177,0.141077 0.08578,0.141077 0.167267,0 0.493336,0.0687 0.564306,0.118856 0.114605,0.081 0.369205,0.484163 0.422713,0.66921 0.03585,0.123935 0.08687,0.210019 0.179318,0.302823 0.127841,0.12834 0.185114,0.147926 0.385506,0.132809 0.04951,-0.0037 0.0871,0.01266 0.0987,0.04289 0.02209,0.05756 -0.04467,0.23019 -0.132292,0.341582 -0.07331,0.09319 -0.0792,0.17072 -0.01654,0.222725 0.03967,0.03291 0.03574,0.04944 -0.03049,0.128158 -0.08695,0.103332 -0.09561,0.146244 -0.02997,0.146244 0.05839,0 0.05735,0.03063 -0.0026,0.116272 -0.06451,0.0921 -0.287321,0.782014 -0.287321,0.889351 0,0.04706 -0.02196,0.103474 -0.04857,0.125574 -0.03346,0.02776 -0.04411,0.07388 -0.03462,0.148828 0.01107,0.08729 -0.0014,0.120401 -0.05994,0.169499 -0.05644,0.04679 -0.07775,0.101549 -0.09147,0.235128 -0.01676,0.162908 -0.01332,0.176243 0.05581,0.207739 0.06508,0.02965 0.07836,0.06563 0.110071,0.298173 0.03381,0.248004 0.03261,0.268145 -0.02377,0.328145 -0.03303,0.03515 -0.06046,0.07704 -0.06046,0.09353 0,0.01649 -0.05483,0.0838 -0.121956,0.149345 -0.06713,0.06555 -0.121957,0.143034 -0.121957,0.1726 0,0.138218 0.286071,0.144577 0.40411,0.0088 0.03567,-0.04102 0.08637,-0.07493 0.113172,-0.07493 0.02682,0 0.07978,-0.02126 0.117305,-0.04754 0.05699,-0.03992 0.06619,-0.06981 0.05581,-0.180867 -0.0068,-0.07312 -0.0191,-0.144255 -0.02739,-0.15813 -0.0168,-0.02819 0.01822,-0.409354 0.06563,-0.709517 0.02591,-0.164255 0.04651,-0.208799 0.125057,-0.270268 0.09569,-0.07489 0.214457,-0.271454 0.214457,-0.355534 0,-0.02559 0.0394,-0.112272 0.08785,-0.192236 0.04847,-0.07996 0.0974,-0.175489 0.108521,-0.21239 0.02161,-0.07177 0.129856,-0.123493 0.168465,-0.08062 0.01284,0.01425 0.06144,0.128904 0.108004,0.254765 0.0782,0.211405 0.206072,0.468647 0.362768,0.731738 0.03494,0.05869 0.05961,0.130136 0.05478,0.158647 -0.01818,0.107282 0.148674,0.360185 0.237712,0.360185 0.03251,0 0.07929,0.06372 0.129708,0.1757 0.110994,0.246543 0.123384,0.301107 0.0832,0.376204 -0.02526,0.04721 -0.02617,0.08488 -0.0031,0.131258 0.01766,0.03566 0.03895,0.119427 0.04754,0.186552 0.0086,0.06712 0.01639,0.124054 0.01705,0.126607 0.0013,0.0052 0.191553,0.0728 0.19637,0.06976 0.0017,-0.0011 0.03331,-0.01407 0.07028,-0.02894 h 5.17e-4 c 0.104946,-0.04252 0.110396,-0.14852 0.02377,-0.449585 -0.05878,-0.204335 -0.08199,-0.364088 -0.08888,-0.607715 -0.0065,-0.228189 -0.02437,-0.359001 -0.05788,-0.422196 -0.121085,-0.228444 -0.296106,-0.687719 -0.296106,-0.777214 0,-0.05432 -0.02179,-0.183175 -0.04858,-0.286287 -0.03377,-0.129906 -0.0419,-0.234318 -0.02636,-0.340031 0.01233,-0.08391 0.02475,-0.255511 0.02791,-0.381372 0.0035,-0.142067 0.02499,-0.264575 0.05581,-0.323495 0.03841,-0.07337 0.04548,-0.143614 0.03152,-0.310058 -0.01567,-0.187102 -0.01022,-0.225746 0.04393,-0.294556 0.03424,-0.04355 0.05612,-0.104578 0.04806,-0.135392 -0.0081,-0.03081 0.0067,-0.107716 0.03307,-0.171049 0.05918,-0.141643 0.06108,-0.378264 0.0036,-0.454236 -0.0273,-0.03601 -0.08727,-0.05852 -0.165881,-0.06253 -0.06778,-0.0035 -0.134249,-0.01692 -0.147278,-0.02997 -0.01302,-0.01304 -0.01881,-0.147063 -0.01292,-0.297656 0.0092,-0.233312 0.0029,-0.283153 -0.04548,-0.336414 -0.08105,-0.08962 -0.267687,-0.177767 -0.375687,-0.177767 z m -1.731551,0.694927 c 0,0 0.353214,0.349112 0.464469,0.541544 0.111255,0.119815 0.340111,0.258072 0.340111,0.258072 0,0 0.108999,0.124384 0.04055,0.141504 -0.06846,0.01712 -0.175291,0.0081 -0.35501,-0.07753 -0.179716,-0.08558 -0.177751,-0.367804 -0.299484,-0.561014 z"
         sodipodi:nodetypes="csccssssssscssssscssssscsssccssssssssscccssccssssssscsccccsccscsccccccccsccscscsscss" />
      <path
         style="fill:#000000;stroke-width:0.0305116"
         d="m -69.123427,49.275598 c 0.02934,-0.06443 0.02587,-0.107624 -0.0187,-0.233218 -0.05911,-0.166455 -0.13127,-0.437601 -0.136114,-0.511527 -0.0017,-0.02517 -0.0071,-0.178426 -0.01185,-0.340565 -0.0069,-0.228067 -0.02083,-0.308039 -0.0618,-0.353287 -0.02912,-0.03217 -0.05293,-0.08149 -0.05293,-0.109592 0,-0.02811 -0.02747,-0.102339 -0.06102,-0.16496 -0.03355,-0.06262 -0.06103,-0.143319 -0.06103,-0.179328 0,-0.03601 -0.03298,-0.153157 -0.07334,-0.260331 -0.04032,-0.107173 -0.08101,-0.256408 -0.09039,-0.331632 -0.0093,-0.07523 -0.02509,-0.200854 -0.03494,-0.279175 -0.01541,-0.12256 -0.0097,-0.144996 0.04075,-0.161012 0.07536,-0.02392 0.136723,-0.29878 0.08973,-0.401916 -0.02496,-0.05475 -0.01784,-0.08531 0.0355,-0.153146 0.0782,-0.0994 0.06573,-0.191893 -0.04331,-0.321489 -0.04751,-0.05648 -0.07944,-0.144793 -0.09375,-0.259338 -0.01745,-0.139482 -0.04041,-0.19126 -0.116658,-0.262869 -0.121936,-0.114525 -0.450371,-0.327976 -0.693405,-0.450661 -0.174212,-0.08794 -0.210252,-0.09505 -0.431933,-0.08523 l -0.24187,0.01071 -0.07658,-0.237442 c -0.0617,-0.191291 -0.09775,-0.25356 -0.185449,-0.320374 -0.09395,-0.07156 -0.133828,-0.08197 -0.290962,-0.07592 -0.223234,0.0086 -0.312172,0.06287 -0.386253,0.235688 -0.03112,0.07259 -0.07144,0.141163 -0.0896,0.152394 -0.063,0.03894 -0.03259,0.100814 0.05849,0.119031 0.0775,0.0155 0.09154,0.03246 0.09154,0.110604 0,0.05076 0.01206,0.0923 0.02682,0.0923 0.01476,0 0.04369,0.04073 0.06431,0.09052 0.02062,0.04978 0.06348,0.09877 0.09523,0.108847 0.07128,0.02262 0.07917,0.187685 0.01315,0.275359 -0.0643,0.08543 -0.02864,0.632725 0.04957,0.760996 0.03069,0.05035 0.05588,0.132728 0.05597,0.183071 0,0.112975 0.09888,0.379883 0.157034,0.424633 0.06326,0.04868 0.05083,0.199948 -0.02734,0.332276 -0.03772,0.06389 -0.0686,0.129069 -0.0686,0.144842 0,0.01578 -0.04806,0.08187 -0.106797,0.146885 -0.05873,0.06501 -0.106784,0.132022 -0.106784,0.148911 0,0.01689 -0.02123,0.04832 -0.04716,0.06985 -0.02595,0.02152 -0.04062,0.0562 -0.03259,0.07705 0.0079,0.02085 -0.0035,0.06251 -0.02543,0.09258 -0.03776,0.05165 -0.04433,0.05182 -0.118885,0.0029 -0.0434,-0.02844 -0.09312,-0.0517 -0.110491,-0.0517 -0.04901,0 -0.0372,0.08285 0.01463,0.102746 0.02543,0.0098 0.06071,0.05585 0.07844,0.102427 l 0.03221,0.08469 0.08175,-0.09944 c 0.136472,-0.166005 0.196079,-0.110237 0.166131,0.155427 -0.01406,0.124926 -0.0063,0.146286 0.08928,0.241765 0.08686,0.08685 0.111445,0.142263 0.144035,0.324607 0.03919,0.219398 0.0391,0.220151 -0.04663,0.347967 -0.120877,0.180215 -0.171075,0.224825 -0.279882,0.248722 -0.106255,0.02334 -0.154621,0.116256 -0.09678,0.185953 0.04802,0.05786 0.32383,0.05692 0.425957,-0.0015 0.04197,-0.02398 0.14865,-0.04409 0.23711,-0.04469 0.141392,-9.28e-4 0.165045,-0.01029 0.195561,-0.07727 0.0266,-0.0584 0.02522,-0.106489 -0.006,-0.205954 -0.05427,-0.17303 -0.06802,-0.571154 -0.02821,-0.816278 0.03073,-0.189262 0.04358,-0.210877 0.280771,-0.472931 0.187441,-0.207101 0.269513,-0.27639 0.333859,-0.281864 0.04693,-0.004 0.08533,0.0072 0.08533,0.02489 0,0.100624 -0.20573,0.331282 -0.299381,0.335661 -0.02834,0.0013 -0.03528,0.009 -0.01545,0.01711 0.0908,0.037 0.374605,-0.203528 0.376809,-0.319348 0.0017,-0.09654 0.07705,0.04127 0.180762,0.331218 0.08007,0.223855 0.114884,0.283543 0.187155,0.320919 0.05028,0.026 0.0888,0.07079 0.0888,0.103271 0,0.09918 0.128038,0.302296 0.212648,0.337344 0.11139,0.04613 0.26601,0.382608 0.287633,0.625875 0.02192,0.246516 0.0504,0.388872 0.08701,0.434791 0.01671,0.02098 0.08396,0.03814 0.149374,0.03814 0.09842,0 0.125191,-0.01366 0.155004,-0.07907 z"
         id="path202-5" />
      <path
         style="fill:#000000;stroke-width:0.0305117"
         d="m -64.416528,49.305982 c -0.17191,-0.196734 -0.2114,-0.310103 -0.22444,-0.644346 -0.007,-0.179222 -0.0297,-0.439511 -0.0506,-0.578418 -0.035,-0.233849 -0.045,-0.25676 -0.13396,-0.309272 -0.0775,-0.04573 -0.11397,-0.106136 -0.18825,-0.311908 -0.0507,-0.140357 -0.10847,-0.334329 -0.12844,-0.431048 -0.0358,-0.173271 -0.0928,-0.213175 -0.0928,-0.06492 0,0.0418 -0.0209,0.116504 -0.0465,0.166014 -0.0417,0.08069 -0.0417,0.09935 0,0.18004 0.0588,0.113758 0.0599,0.215097 0.002,0.215097 -0.0265,0 -0.0507,0.03989 -0.06,0.09916 -0.0324,0.205628 -0.061,0.592408 -0.0536,0.724653 0.004,0.07552 0.0106,0.199089 0.0142,0.274606 l 0.007,0.137302 -0.21359,0.02032 c -0.11747,0.01118 -0.28276,0.02981 -0.36732,0.0414 -0.12063,0.01654 -0.16224,0.01084 -0.19322,-0.02648 -0.0709,-0.08544 -0.028,-0.148389 0.12819,-0.187998 0.24304,-0.06164 0.23624,-0.03564 0.19958,-0.762616 -0.0226,-0.447416 -0.0466,-0.675226 -0.0798,-0.755081 -0.0371,-0.08927 -0.0433,-0.177694 -0.0285,-0.403035 0.0111,-0.169014 0.007,-0.296009 -0.01,-0.306362 -0.0157,-0.0097 -0.0205,-0.05827 -0.0106,-0.107873 0.0114,-0.0568 -0.006,-0.155191 -0.0472,-0.265794 -0.0359,-0.09658 -0.0848,-0.269848 -0.10862,-0.385033 l -0.0434,-0.209428 0.11662,-0.248248 c 0.0641,-0.136537 0.14132,-0.310035 0.17151,-0.385551 0.0665,-0.166397 0.15737,-0.274605 0.23055,-0.274605 0.0729,0 0.2097,-0.06408 0.2097,-0.09823 0,-0.01508 0.0123,-0.01982 0.0273,-0.01053 0.015,0.0093 0.0352,-0.0036 0.0448,-0.02871 0.01,-0.02508 0.003,-0.04559 -0.0139,-0.04559 -0.0172,0 -0.0242,-0.01155 -0.0155,-0.02566 0.009,-0.01411 -0.0262,-0.05677 -0.0777,-0.09479 -0.0817,-0.06043 -0.0907,-0.08119 -0.0716,-0.165039 0.0121,-0.05275 0.0272,-0.148146 0.0337,-0.211989 0.0242,-0.237792 0.13243,-0.356853 0.3243,-0.356853 0.12239,0 0.19635,0.06217 0.29485,0.247848 0.06,0.113135 0.0688,0.161386 0.0511,0.2797 -0.0118,0.07864 -0.0412,0.162759 -0.0654,0.186933 -0.0962,0.09616 -0.0145,0.149444 0.22186,0.1447 0.13823,-0.0028 0.14675,0.0027 0.32932,0.210931 0.24525,0.279758 0.44226,0.590352 0.44226,0.697251 0,0.09292 -0.11902,0.425054 -0.20654,0.576342 l -0.0761,0.131606 0.0651,0.04557 c 0.0358,0.02506 0.0651,0.07864 0.0651,0.119065 0,0.07585 -0.31903,0.594298 -0.36571,0.594298 -0.0144,0 -0.0182,0.106165 -0.008,0.235921 0.0147,0.193938 0.0333,0.257194 0.10444,0.355463 0.0935,0.129118 0.10849,0.228702 0.0487,0.324381 -0.03,0.04812 -0.0301,0.07304 -2.3e-4,0.120936 0.0286,0.04585 0.0305,0.128232 0.008,0.343257 -0.0164,0.155612 -0.03,0.391662 -0.0303,0.524557 -4.6e-4,0.213644 0.0103,0.260772 0.0928,0.406952 0.0557,0.09875 0.0895,0.198038 0.0839,0.246561 -0.008,0.07125 -0.0246,0.08235 -0.13302,0.09032 -0.0891,0.0066 -0.13701,-0.0062 -0.17156,-0.04577 z"
         id="path203-5" />
      <path
         style="fill:#000000;stroke-width:0.0305117"
         d="m -63.520668,49.311603 c 0.0272,-0.02723 0.0495,-0.07519 0.0495,-0.106561 0,-0.03137 0.0123,-0.06463 0.0273,-0.07391 0.015,-0.0093 0.0344,-0.06844 0.043,-0.131475 0.0321,-0.233821 0.11197,-0.609855 0.17879,-0.841802 0.0561,-0.194772 0.0844,-0.24704 0.15283,-0.282425 0.0779,-0.0403 0.13017,-0.125846 0.36651,-0.600294 0.0315,-0.06316 0.0716,-0.152408 0.0893,-0.198326 l 0.032,-0.08349 0.0468,0.09154 c 0.0257,0.05034 0.0984,0.146456 0.16151,0.213582 0.0837,0.08901 0.13419,0.186062 0.18662,0.358512 0.0509,0.167288 0.0863,0.236466 0.12101,0.236466 0.0699,0 0.13488,0.369721 0.12676,0.721654 l -0.006,0.279233 0.15999,0.03028 c 0.088,0.01665 0.202,0.04748 0.25333,0.06851 0.062,0.02542 0.13365,0.02994 0.21358,0.01348 0.0793,-0.01633 0.10057,-0.02929 0.0624,-0.03809 -0.0452,-0.01042 -0.0488,-0.01894 -0.0163,-0.03901 0.0316,-0.01955 0.0236,-0.03289 -0.0337,-0.05595 -0.1314,-0.05288 -0.24859,-0.169322 -0.25029,-0.248725 -0.003,-0.137779 0.0666,-0.734107 0.10025,-0.858936 0.0397,-0.147503 0.0218,-0.208081 -0.0616,-0.208081 -0.0341,0 -0.062,-0.01847 -0.062,-0.04104 0,-0.02257 -0.0275,-0.06589 -0.061,-0.09626 -0.0421,-0.03813 -0.061,-0.09398 -0.061,-0.180423 0,-0.06886 -0.043,-0.24179 -0.0957,-0.384295 -0.0538,-0.145772 -0.0998,-0.335418 -0.10521,-0.433589 -0.005,-0.09597 -0.0255,-0.204393 -0.0451,-0.24094 -0.0286,-0.05354 -0.0267,-0.07139 0.01,-0.09186 0.0363,-0.02034 0.0401,-0.05363 0.019,-0.166722 -0.0145,-0.07772 -0.0182,-0.154486 -0.008,-0.170592 0.0101,-0.01632 0.0702,-0.02048 0.1358,-0.0094 0.0978,0.01652 0.13519,0.0065 0.22086,-0.0588 0.0567,-0.04328 0.1277,-0.124246 0.15769,-0.179935 0.0733,-0.136116 0.0482,-0.178851 -0.34295,-0.583166 -0.28121,-0.290686 -0.32596,-0.325152 -0.43594,-0.335745 -0.14405,-0.01388 -0.19984,-0.053 -0.21908,-0.153645 -0.016,-0.08347 -0.002,-0.108823 0.0836,-0.157822 0.0352,-0.02007 0.0566,-0.05872 0.0506,-0.09154 -0.006,-0.03124 -0.0166,-0.111722 -0.0242,-0.178848 -0.008,-0.06713 -0.0203,-0.152557 -0.0281,-0.189848 -0.0185,-0.08791 -0.21673,-0.22206 -0.32809,-0.22206 -0.10918,0 -0.26518,0.148993 -0.26518,0.253266 0,0.04119 -0.0206,0.09198 -0.0458,0.112876 -0.0569,0.04726 -0.06,0.202111 -0.005,0.234949 0.0226,0.01342 0.0492,0.07587 0.0591,0.138776 0.0207,0.132014 0.003,0.146734 -0.24366,0.204645 -0.0873,0.02047 -0.17125,0.05318 -0.18662,0.07268 -0.0314,0.03979 -0.16751,0.450813 -0.21894,0.660949 -0.0507,0.207364 -0.095,0.305118 -0.13797,0.305118 -0.0213,0 -0.0467,-0.0206 -0.0564,-0.04577 -0.0255,-0.06651 -0.0805,-0.05609 -0.0805,0.01526 0,0.03356 -0.0149,0.06102 -0.0331,0.06102 -0.0182,0 -0.0273,0.01716 -0.0203,0.03814 0.007,0.02226 0.0508,0.03423 0.10414,0.02876 0.11364,-0.01167 0.16311,0.04423 0.16861,0.190517 0.005,0.121006 0.0582,0.169752 0.18697,0.169752 0.0561,0 0.0785,0.01962 0.0898,0.07868 0.01,0.05148 -2.3e-4,0.08456 -0.0293,0.0957 -0.11136,0.04273 -0.115,0.33831 -0.004,0.367199 0.0676,0.01767 0.0685,0.06867 0.007,0.373771 -0.0254,0.125861 -0.0538,0.275162 -0.0632,0.331781 -0.009,0.05662 -0.0429,0.128702 -0.0744,0.160186 -0.0358,0.03578 -0.0572,0.100463 -0.0572,0.172511 0,0.07751 -0.02,0.132381 -0.061,0.167516 -0.0676,0.05788 -0.0671,0.05299 -0.0771,0.710464 -0.006,0.403318 -0.0151,0.475183 -0.0736,0.589693 -0.0976,0.191353 -0.0776,0.260827 0.0783,0.272218 0.0853,0.0062 0.1419,-0.0068 0.17544,-0.04032 z"
         id="path204-8" />
    </g>
  </g>
</svg>
