<?xml version="1.0" encoding="UTF-8" standalone="no"?>
<!-- Created with Inkscape (http://www.inkscape.org/) -->

<svg
   width="12.310136mm"
   height="5.7621522mm"
   viewBox="0 0 12.310136 5.7621522"
   version="1.1"
   id="svg1"
   sodipodi:docname="inkporter-svg-ah7yib3z.svg"
   xmlns:inkscape="http://www.inkscape.org/namespaces/inkscape"
   xmlns:sodipodi="http://sodipodi.sourceforge.net/DTD/sodipodi-0.dtd"
   xmlns="http://www.w3.org/2000/svg"
   xmlns:svg="http://www.w3.org/2000/svg">
  <sodipodi:namedview
     id="namedview1"
     pagecolor="#ffffff"
     bordercolor="#666666"
     borderopacity="1.0"
     inkscape:showpageshadow="2"
     inkscape:pageopacity="0.0"
     inkscape:pagecheckerboard="0"
     inkscape:deskcolor="#d1d1d1"
     inkscape:document-units="mm"
     inkscape:zoom="1.4556538"
     inkscape:cx="363.4106"
     inkscape:cy="674.95446"
     inkscape:window-width="1920"
     inkscape:window-height="1017"
     inkscape:window-x="-8"
     inkscape:window-y="-8"
     inkscape:window-maximized="1"
     inkscape:current-layer="layer1" />
  <defs
     id="defs1" />
  <g
     inkscape:label="Layer 1"
     inkscape:groupmode="layer"
     id="layer1"
     transform="translate(-115.53147,-159.18788)">
    <g
       id="F-Infantrys4b-5"
       transform="translate(180.08198,101.65693)">
      <path
         style="fill:#000000;stroke-width:0.0305117"
         d="m -58.046948,62.986097 c 0.09329,-0.04486 0.215061,-0.09816 0.270613,-0.118429 0.09462,-0.03453 0.09974,-0.04361 0.08097,-0.143623 -0.01101,-0.05872 -0.04588,-0.165704 -0.07748,-0.237744 -0.0316,-0.07204 -0.07879,-0.285803 -0.104873,-0.475029 -0.04633,-0.33615 -0.04595,-0.347355 0.01646,-0.488187 0.11477,-0.258986 0.24866,-0.508667 0.317725,-0.5925 l 0.06773,-0.08222 0.11781,0.140218 c 0.06479,0.07712 0.196608,0.258285 0.29292,0.402592 0.168215,0.252043 0.302656,0.369165 0.423756,0.369165 0.06043,0 0.103688,0.09328 0.05672,0.1223 -0.02214,0.01368 -0.0179,0.03291 0.01289,0.05846 0.02523,0.02094 0.05731,0.03101 0.07128,0.02237 0.01397,-0.0086 0.05747,0.0554 0.09667,0.142304 0.0392,0.0869 0.117616,0.235315 0.174261,0.329808 0.05665,0.09449 0.102993,0.209384 0.102993,0.255311 0,0.09952 0.191625,0.306089 0.311962,0.336292 0.09982,0.02505 0.206737,-0.0305 0.206737,-0.107419 0,-0.03239 -0.04119,-0.105802 -0.09154,-0.163141 -0.05157,-0.05874 -0.09154,-0.138934 -0.09154,-0.183692 0,-0.134924 -0.219989,-0.822484 -0.295086,-0.922271 -0.03908,-0.05193 -0.07106,-0.123236 -0.07106,-0.158461 0,-0.03911 -0.03638,-0.08551 -0.09344,-0.119167 -0.238226,-0.140528 -0.434938,-0.970995 -0.322011,-1.359448 0.04182,-0.143849 0.04398,-0.194546 0.01321,-0.309596 -0.02987,-0.111678 -0.02896,-0.152214 0.0048,-0.215318 0.02288,-0.04276 0.05781,-0.07774 0.07762,-0.07774 0.01981,0 0.103301,0.07621 0.185543,0.169367 0.233389,0.264346 0.505935,0.544295 0.562731,0.578013 0.02841,0.01687 0.08989,0.05765 0.136618,0.09062 0.04673,0.03297 0.133711,0.06043 0.193298,0.06102 0.100033,10e-4 0.110142,0.0097 0.131825,0.113769 0.02199,0.105511 -0.03263,0.315025 -0.09392,0.360238 -0.01137,0.0084 -0.03606,0.06692 -0.05486,0.130066 -0.03092,0.103865 -0.02813,0.118049 0.02932,0.148794 0.05182,0.02773 0.0712,0.02345 0.105379,-0.02327 0.02303,-0.03149 0.04892,-0.09158 0.05753,-0.133537 0.04015,-0.195683 0.08396,-0.338659 0.108392,-0.353758 0.04451,-0.02751 0.117398,-0.227536 0.117398,-0.322184 0,-0.09517 -0.08064,-0.153855 -0.121205,-0.08821 -0.0339,0.05486 -0.593085,-0.403255 -0.665225,-0.544989 -0.0307,-0.06031 -0.113614,-0.197846 -0.184261,-0.305638 -0.07065,-0.107791 -0.143291,-0.251959 -0.161432,-0.320373 -0.04562,-0.172037 -0.06795,-0.209354 -0.130803,-0.218578 -0.07564,-0.01111 -0.171123,-0.10326 -0.171123,-0.165161 0,-0.05737 0.09193,-0.152558 0.147332,-0.152558 0.01966,0 0.03574,-0.02801 0.03574,-0.06224 0,-0.03423 0.02746,-0.116066 0.06102,-0.181855 0.03356,-0.06579 0.06102,-0.17018 0.06102,-0.231981 0,-0.09372 -0.0246,-0.136963 -0.1482,-0.260565 -0.181581,-0.181582 -0.28478,-0.194809 -0.442117,-0.05666 -0.05734,0.05034 -0.127937,0.09154 -0.156885,0.09154 -0.03216,0 -0.04636,0.01634 -0.03651,0.04201 0.01851,0.04825 -0.02606,0.270326 -0.07834,0.390284 -0.0337,0.07734 -0.03966,0.07925 -0.119154,0.03814 -0.148404,-0.07674 -0.257433,-0.0557 -0.3682,0.07105 -0.23571,0.269733 -0.48695,0.495911 -0.550859,0.495911 -0.08579,0 -0.370987,-0.27436 -0.372278,-0.358131 -6.91e-4,-0.04481 -0.02555,-0.05108 -0.112438,-0.02835 -0.06338,0.01657 -0.06313,0.01827 0.01613,0.112462 0.04426,0.0526 0.08047,0.108313 0.08047,0.123807 0,0.01549 0.01774,0.02817 0.03941,0.02817 0.02168,0 0.09861,0.06031 0.170957,0.134031 0.119062,0.121316 0.129448,0.143751 0.109469,0.236466 -0.01214,0.05634 -0.0422,0.141796 -0.06679,0.189905 -0.0246,0.04811 -0.03773,0.114189 -0.02919,0.146844 0.0085,0.03265 -0.0044,0.107171 -0.02886,0.165593 -0.04997,0.119598 -0.0316,0.176822 0.04991,0.155506 0.09532,-0.02493 0.09121,0.0879 -0.0081,0.222962 -0.07946,0.108045 -0.08759,0.135864 -0.05841,0.1999 0.02852,0.0626 0.01735,0.112021 -0.07054,0.311901 -0.166328,0.378299 -0.238994,0.683141 -0.242272,1.016351 -0.002,0.203051 0.0096,0.30782 0.03789,0.34192 0.02242,0.02704 0.03062,0.06558 0.01822,0.08564 -0.01266,0.02049 -5.76e-4,0.05254 0.02758,0.07313 0.05014,0.03666 0.203293,0.351763 0.203293,0.41826 0,0.0194 0.02908,0.09534 0.06463,0.168769 l 0.06463,0.133504 -0.0663,0.07058 c -0.03647,0.03882 -0.12047,0.095 -0.186675,0.124856 -0.0882,0.03977 -0.120372,0.07256 -0.120372,0.122662 0,0.131795 0.207301,0.140446 0.45947,0.01917 z"
         id="path3688-0-9-5" />
      <path
         id="path3682-1-5-22"
         style="fill:#000000;stroke-width:0.0305117"
         d="m -63.751948,63.21339 c -0.170515,-0.07368 -0.15725,-0.224369 0.02324,-0.264011 0.05443,-0.01196 0.133496,-0.04327 0.175697,-0.06959 0.168513,-0.105091 0.167855,-0.102393 0.174056,-0.713149 0.0032,-0.313872 0.01965,-0.596555 0.03657,-0.628185 0.01693,-0.03163 0.02356,-0.0851 0.01474,-0.118829 -0.02101,-0.08034 0.04611,-0.236308 0.23244,-0.54015 0.09113,-0.148598 0.163301,-0.308694 0.180382,-0.400125 0.01566,-0.08383 0.02548,-0.155406 0.02182,-0.159065 -0.0037,-0.0037 -0.114565,0.06249 -0.246458,0.146989 -0.179696,0.11513 -0.258102,0.14905 -0.3128,0.135321 -0.06681,-0.01677 -0.07002,-0.01277 -0.03791,0.04725 0.0277,0.05175 0.02581,0.07484 -0.0089,0.109604 -0.03838,0.03838 -0.05116,0.03301 -0.09947,-0.0417 -0.03049,-0.04716 -0.102987,-0.127318 -0.161108,-0.178138 -0.06203,-0.05424 -0.107456,-0.12355 -0.109987,-0.167814 -0.0032,-0.05608 -0.01909,-0.07283 -0.06198,-0.06535 -0.06698,0.01169 -0.352776,0.249922 -0.353963,0.29505 -6.92e-4,0.02695 -0.202835,0.137302 -0.251489,0.137302 -0.01027,0 -0.01587,-0.03664 -0.01243,-0.08141 0.0048,-0.06211 0.02363,-0.08269 0.07952,-0.08681 0.04989,-0.0037 0.168382,-0.106676 0.371427,-0.322867 0.249017,-0.26514 0.335366,-0.385369 0.523843,-0.729379 0.189326,-0.345562 0.223575,-0.429646 0.21263,-0.522029 -0.01052,-0.08879 -0.03268,-0.119484 -0.114395,-0.158449 -0.05574,-0.02658 -0.11031,-0.07657 -0.121266,-0.11109 -0.01105,-0.03482 -0.04617,-0.06276 -0.07889,-0.06276 -0.05074,0 -0.05982,-0.02448 -0.06506,-0.175441 -0.01077,-0.310338 -0.0025,-0.354277 0.08014,-0.42536 0.191094,-0.164372 0.481476,-0.09848 0.557549,0.126515 0.02244,0.06638 0.07108,0.152918 0.108083,0.192305 0.05024,0.05348 0.05763,0.07758 0.02918,0.09516 -0.0259,0.01601 0.0162,0.06188 0.131533,0.143323 0.09329,0.06588 0.213773,0.153416 0.267731,0.194528 0.05396,0.04111 0.08836,0.0634 0.07644,0.04953 -0.03766,-0.04384 0.06204,-0.192585 0.142649,-0.212815 0.141407,-0.03549 0.248114,0.01485 0.233882,0.110327 -0.0018,0.01198 0.01699,0.01402 0.04173,0.0045 0.02927,-0.01123 0.05552,0.01046 0.07516,0.06212 0.0166,0.04366 0.04572,0.07938 0.06471,0.07938 0.02099,0 0.02584,0.02095 0.01238,0.0534 -0.01219,0.02937 -0.02281,0.07056 -0.02361,0.09154 -8.08e-4,0.02098 -0.01895,0.03814 -0.04033,0.03814 -0.02139,0 -0.04758,0.01407 -0.05821,0.03127 -0.01063,0.0172 -0.008,0.02815 0.0058,0.02433 0.01383,-0.0038 0.07726,0.0034 0.140951,0.01614 0.08307,0.01655 0.123817,0.04417 0.144175,0.09771 0.01586,0.04172 0.05305,0.07464 0.08432,0.07464 0.03077,0 0.07998,0.01757 0.109346,0.03905 0.08192,0.0599 0.01716,0.196301 -0.120522,0.253828 -0.104355,0.0436 -0.10748,0.04909 -0.06432,0.112944 0.03167,0.04685 0.07021,0.06433 0.127646,0.05788 0.127572,-0.01432 0.210194,0.06109 0.268063,0.24467 0.06699,0.212517 0.06605,0.275041 -0.0055,0.363357 -0.04519,0.05581 -0.08606,0.07086 -0.185411,0.06825 -0.12283,-0.0032 -0.126713,-4.62e-4 -0.107388,0.07672 0.01102,0.04403 0.08122,0.243645 0.15599,0.443583 0.09089,0.243055 0.125798,0.373667 0.105338,0.394126 -0.02046,0.02046 -0.03742,0.01122 -0.05119,-0.0279 -0.01132,-0.03217 -0.09927,-0.230126 -0.195435,-0.439894 -0.09616,-0.209768 -0.184106,-0.420693 -0.195429,-0.468722 l -0.02059,-0.08733 -0.104835,0.117837 c -0.05766,0.06481 -0.168164,0.248275 -0.245566,0.407699 -0.0774,0.159423 -0.159771,0.311268 -0.183043,0.337432 -0.03664,0.04119 -0.03061,0.06159 0.04496,0.152115 0.048,0.0575 0.08115,0.120517 0.07366,0.140039 -0.0075,0.01952 0.01977,0.102103 0.06057,0.183514 0.04081,0.08141 0.09155,0.20294 0.112754,0.270066 0.02121,0.06713 0.07114,0.200582 0.110956,0.296569 0.08035,0.193687 0.09354,0.344792 0.03215,0.368346 -0.02213,0.0085 -0.114285,-0.01063 -0.204783,-0.0425 -0.0905,-0.03187 -0.196643,-0.05794 -0.235879,-0.05794 -0.07792,0 -0.251659,-0.07977 -0.25091,-0.115204 0.0015,-0.07254 0.06604,-0.109986 0.178063,-0.103376 0.0669,0.0039 0.130426,-0.007 0.141168,-0.02443 0.01074,-0.01738 0.0067,-0.0316 -0.0091,-0.0316 -0.01574,0 -0.04618,-0.04462 -0.06766,-0.09916 -0.09793,-0.248711 -0.187642,-0.415197 -0.233132,-0.432653 -0.1015,-0.03895 -0.175059,0.09916 -0.217715,0.408779 -0.07622,0.553259 -0.0843,0.643792 -0.06077,0.680824 0.02103,0.03309 0.03605,0.324576 0.01694,0.328698 -0.03244,0.007 -0.526738,0.06462 -0.648375,0.07559 -0.08391,0.0076 -0.180495,0.0017 -0.214641,-0.01307 z m 0.469165,-3.128786 c 0.0393,-0.03456 0.08442,-0.08688 0.100258,-0.116264 0.0256,-0.0475 0.01519,-0.05221 -0.0937,-0.0424 -0.134329,0.0121 -0.219544,0.06456 -0.197631,0.12166 0.0077,0.02014 -0.03084,0.05497 -0.08572,0.07741 l -0.09977,0.04079 0.07628,0.02189 c 0.08757,0.02513 0.197328,-0.01255 0.30029,-0.103084 z m -0.103755,-0.522927 c 0.03569,-0.03489 0.08759,-0.07615 0.115345,-0.09168 0.0394,-0.02205 0.04665,-0.05663 0.03309,-0.157764 -0.0096,-0.07124 -0.02586,-0.129511 -0.03624,-0.129494 -0.02905,4.9e-5 -0.304331,0.475794 -0.307263,0.531025 -0.0014,0.02698 0.06457,-0.02448 0.195071,-0.152083 z" />
      <path
         style="fill:#000000;stroke-width:0.0305117"
         d="m -60.964824,63.251309 c 0.02723,-0.02723 0.04952,-0.07519 0.04952,-0.106561 0,-0.03137 0.01228,-0.06463 0.02729,-0.07391 0.01501,-0.0093 0.03437,-0.06844 0.04302,-0.131475 0.0321,-0.233822 0.11197,-0.609856 0.178796,-0.841803 0.05611,-0.194772 0.0844,-0.247039 0.152825,-0.282425 0.07794,-0.0403 0.130167,-0.125847 0.366508,-0.600294 0.03146,-0.06316 0.07162,-0.152408 0.08925,-0.198326 l 0.03204,-0.08349 0.04678,0.09154 c 0.02573,0.05034 0.09841,0.146456 0.161515,0.213581 0.08367,0.08901 0.134192,0.186062 0.186615,0.358513 0.05085,0.167287 0.08626,0.236466 0.121014,0.236466 0.06994,0 0.134877,0.36972 0.126756,0.721653 l -0.0064,0.279235 0.159995,0.03027 c 0.088,0.01665 0.201995,0.04748 0.253329,0.06851 0.06204,0.02542 0.133646,0.02994 0.213581,0.01348 0.07933,-0.01633 0.100571,-0.02929 0.06242,-0.03809 -0.04519,-0.01042 -0.04875,-0.01894 -0.01629,-0.03901 0.03163,-0.01955 0.02358,-0.03289 -0.03371,-0.05595 -0.131406,-0.05288 -0.248591,-0.169323 -0.250297,-0.248724 -0.003,-0.13778 0.06664,-0.734108 0.100254,-0.858937 0.03972,-0.147504 0.0218,-0.208081 -0.06155,-0.208081 -0.03409,0 -0.06198,-0.01847 -0.06198,-0.04104 0,-0.02257 -0.02746,-0.06589 -0.06102,-0.09626 -0.04214,-0.03813 -0.06102,-0.09398 -0.06102,-0.180423 0,-0.06886 -0.04305,-0.241791 -0.09566,-0.384295 -0.05382,-0.145772 -0.09984,-0.335418 -0.105208,-0.433589 -0.0052,-0.09597 -0.02555,-0.204393 -0.0451,-0.24094 -0.02865,-0.05354 -0.02674,-0.07139 0.0098,-0.09186 0.03634,-0.02034 0.04014,-0.05363 0.01901,-0.166722 -0.01452,-0.07772 -0.01825,-0.154485 -0.0083,-0.170591 0.01009,-0.01632 0.07019,-0.02048 0.135802,-0.0094 0.09775,0.01651 0.13519,0.0065 0.220861,-0.0588 0.05674,-0.04328 0.127696,-0.124247 0.157686,-0.179935 0.0733,-0.136115 0.04817,-0.178851 -0.342954,-0.583165 -0.281204,-0.290686 -0.325954,-0.325152 -0.435933,-0.335745 -0.144058,-0.01388 -0.199844,-0.053 -0.219083,-0.153645 -0.01596,-0.08347 -0.0025,-0.108824 0.08355,-0.157822 0.03525,-0.02007 0.05663,-0.05872 0.05063,-0.09154 -0.0057,-0.03124 -0.01661,-0.111722 -0.02422,-0.178848 -0.0076,-0.06713 -0.02026,-0.152557 -0.02812,-0.189848 -0.01852,-0.08791 -0.216731,-0.22206 -0.328096,-0.22206 -0.109176,0 -0.265175,0.148993 -0.265175,0.253266 0,0.04119 -0.0206,0.09198 -0.04577,0.112874 -0.05694,0.04726 -0.06,0.202112 -0.0046,0.234949 0.02263,0.01342 0.04922,0.07587 0.0591,0.138776 0.02073,0.132015 0.0032,0.146734 -0.243658,0.204647 -0.08727,0.02047 -0.171252,0.05318 -0.186624,0.07268 -0.03136,0.03979 -0.167512,0.450813 -0.218934,0.660948 -0.05074,0.207364 -0.09495,0.305118 -0.137973,0.305118 -0.02134,0 -0.04671,-0.0206 -0.05636,-0.04577 -0.02552,-0.0665 -0.0805,-0.05608 -0.0805,0.01526 0,0.03356 -0.01487,0.06102 -0.03305,0.06102 -0.01818,0 -0.02732,0.01716 -0.02032,0.03814 0.0074,0.02226 0.0508,0.03423 0.104142,0.02876 0.113641,-0.01166 0.163113,0.04424 0.168613,0.190516 0.0046,0.121006 0.05824,0.169753 0.186963,0.169753 0.05609,0 0.07848,0.01962 0.08977,0.07868 0.0098,0.05148 -2.31e-4,0.08456 -0.02929,0.0957 -0.111356,0.04273 -0.114994,0.33831 -0.0045,0.3672 0.06757,0.01767 0.06854,0.06867 0.0071,0.373771 -0.02535,0.12586 -0.05378,0.275161 -0.0632,0.33178 -0.0094,0.05662 -0.04288,0.128703 -0.07436,0.160186 -0.03578,0.03578 -0.05724,0.100463 -0.05724,0.172511 0,0.07751 -0.01999,0.132381 -0.06102,0.167516 -0.0676,0.05788 -0.06706,0.05299 -0.07713,0.710464 -0.0062,0.403318 -0.01514,0.475183 -0.07356,0.589693 -0.09762,0.191354 -0.07764,0.260827 0.07829,0.272218 0.0853,0.0062 0.141899,-0.0068 0.175442,-0.04032 z"
         id="path3680-2-0-9" />
      <path
         style="fill:#000000;stroke-width:0.0305116"
         d="m -52.25937,63.149301 c 0.02934,-0.06443 0.02587,-0.107624 -0.0187,-0.233218 -0.05911,-0.166455 -0.13127,-0.437601 -0.136114,-0.511527 -0.0017,-0.02517 -0.0071,-0.178426 -0.01185,-0.340565 -0.0069,-0.228067 -0.02083,-0.308039 -0.0618,-0.353287 -0.02912,-0.03217 -0.05293,-0.08149 -0.05293,-0.109592 0,-0.02811 -0.02747,-0.102339 -0.06102,-0.16496 -0.03355,-0.06262 -0.06103,-0.143319 -0.06103,-0.179328 0,-0.03601 -0.03298,-0.153157 -0.07334,-0.260331 -0.04032,-0.107173 -0.08101,-0.256408 -0.09039,-0.331632 -0.0093,-0.07523 -0.02509,-0.200854 -0.03494,-0.279175 -0.01541,-0.12256 -0.0097,-0.144996 0.04075,-0.161012 0.07536,-0.02392 0.136723,-0.29878 0.08973,-0.401916 -0.02496,-0.05475 -0.01784,-0.08531 0.0355,-0.153146 0.0782,-0.0994 0.06573,-0.191893 -0.04331,-0.321489 -0.04751,-0.05648 -0.07944,-0.144793 -0.09375,-0.259338 -0.01745,-0.139482 -0.04041,-0.19126 -0.116658,-0.262869 -0.121936,-0.114525 -0.450371,-0.327976 -0.693405,-0.450661 -0.174212,-0.08794 -0.210252,-0.09505 -0.431933,-0.08523 l -0.24187,0.01071 -0.07658,-0.237442 c -0.0617,-0.191291 -0.09775,-0.25356 -0.185449,-0.320374 -0.09395,-0.07156 -0.133828,-0.08197 -0.290962,-0.07592 -0.223234,0.0086 -0.312172,0.06287 -0.386253,0.235688 -0.03112,0.07259 -0.07144,0.141163 -0.0896,0.152394 -0.063,0.03894 -0.03259,0.100814 0.05849,0.119031 0.0775,0.0155 0.09154,0.03246 0.09154,0.110604 0,0.05076 0.01206,0.0923 0.02682,0.0923 0.01476,0 0.04369,0.04073 0.06431,0.09052 0.02062,0.04978 0.06348,0.09877 0.09523,0.108847 0.07128,0.02262 0.07917,0.187685 0.01315,0.275359 -0.0643,0.08543 -0.02864,0.632725 0.04957,0.760996 0.03069,0.05035 0.05588,0.132728 0.05597,0.183071 0,0.112975 0.09888,0.379883 0.157034,0.424633 0.06326,0.04868 0.05083,0.199948 -0.02734,0.332276 -0.03772,0.06389 -0.0686,0.129069 -0.0686,0.144842 0,0.01578 -0.04806,0.08187 -0.106797,0.146885 -0.05873,0.06501 -0.106784,0.132022 -0.106784,0.148911 0,0.01689 -0.02123,0.04832 -0.04716,0.06985 -0.02595,0.02152 -0.04062,0.0562 -0.03259,0.07705 0.0079,0.02085 -0.0035,0.06251 -0.02543,0.09258 -0.03776,0.05165 -0.04433,0.05182 -0.118885,0.0029 -0.0434,-0.02844 -0.09312,-0.0517 -0.110491,-0.0517 -0.04901,0 -0.0372,0.08285 0.01463,0.102746 0.02543,0.0098 0.06071,0.05585 0.07844,0.102427 l 0.03221,0.08469 0.08175,-0.09944 c 0.136472,-0.166005 0.196079,-0.110237 0.166131,0.155427 -0.01406,0.124926 -0.0063,0.146286 0.08928,0.241765 0.08686,0.08685 0.111445,0.142263 0.144035,0.324607 0.03919,0.219398 0.0391,0.220151 -0.04663,0.347967 -0.120877,0.180215 -0.171075,0.224825 -0.279882,0.248722 -0.106255,0.02334 -0.154621,0.116256 -0.09678,0.185953 0.04802,0.05786 0.32383,0.05692 0.425957,-0.0015 0.04197,-0.02398 0.14865,-0.04409 0.23711,-0.04469 0.141392,-9.28e-4 0.165045,-0.01029 0.195561,-0.07727 0.0266,-0.0584 0.02522,-0.106489 -0.006,-0.205954 -0.05427,-0.17303 -0.06802,-0.571154 -0.02821,-0.816278 0.03073,-0.189262 0.04358,-0.210877 0.280771,-0.472931 0.187441,-0.207101 0.269513,-0.27639 0.333859,-0.281864 0.04693,-0.004 0.08533,0.0072 0.08533,0.02489 0,0.100624 -0.20573,0.331282 -0.299381,0.335661 -0.02834,0.0013 -0.03528,0.009 -0.01545,0.01711 0.0908,0.037 0.374605,-0.203528 0.376809,-0.319348 0.0017,-0.09654 0.07705,0.04127 0.180762,0.331218 0.08007,0.223855 0.114884,0.283543 0.187155,0.320919 0.05028,0.026 0.0888,0.07079 0.0888,0.103271 0,0.09918 0.128038,0.302296 0.212648,0.337344 0.11139,0.04613 0.26601,0.382608 0.287633,0.625875 0.02192,0.246516 0.0504,0.388872 0.08701,0.434791 0.01671,0.02098 0.08396,0.03814 0.149374,0.03814 0.09842,0 0.125191,-0.01366 0.155004,-0.07907 z"
         id="path202-6-7" />
    </g>
  </g>
</svg>
