<?xml version="1.0" encoding="UTF-8" standalone="no"?>
<!-- Created with Inkscape (http://www.inkscape.org/) -->

<svg
   width="23.125195mm"
   height="9.5959225mm"
   viewBox="0 0 23.125195 9.5959225"
   version="1.1"
   id="svg1371"
   sodipodi:docname="inkporter-svg-u5xdutej.svg"
   xmlns:inkscape="http://www.inkscape.org/namespaces/inkscape"
   xmlns:sodipodi="http://sodipodi.sourceforge.net/DTD/sodipodi-0.dtd"
   xmlns="http://www.w3.org/2000/svg"
   xmlns:svg="http://www.w3.org/2000/svg">
  <sodipodi:namedview
     id="namedview1373"
     pagecolor="#ffffff"
     bordercolor="#666666"
     borderopacity="1.0"
     inkscape:pageshadow="2"
     inkscape:pageopacity="0.0"
     inkscape:pagecheckerboard="0"
     inkscape:document-units="mm"
     showgrid="false"
     inkscape:zoom="0.90583672"
     inkscape:cx="126.95445"
     inkscape:cy="337.25725"
     inkscape:window-width="1920"
     inkscape:window-height="1017"
     inkscape:window-x="-8"
     inkscape:window-y="-8"
     inkscape:window-maximized="1"
     inkscape:current-layer="layer1" />
  <defs
     id="defs1368" />
  <g
     inkscape:label="Layer 1"
     inkscape:groupmode="layer"
     id="layer1"
     transform="translate(-53.280748,-93.635478)">
    <path
       d="m 56.731446,103.17398 c 0,-0.0613 -0.114363,-0.0975 -0.268933,-0.0852 -0.07027,0.006 -0.09613,-0.0113 -0.09633,-0.0629 0,-0.078 -0.126531,-0.18846 -0.178615,-0.15627 -0.06893,0.0426 -0.18978,-0.0276 -0.167611,-0.0974 0.02685,-0.0846 -0.0637,-0.16573 -0.148559,-0.13316 -0.07652,0.0294 -0.179885,-0.0482 -0.15404,-0.11555 0.02371,-0.0618 -0.0829,-0.15263 -0.149225,-0.12718 -0.02755,0.0106 -0.08396,-0.007 -0.125346,-0.0385 -0.05511,-0.0423 -0.06176,-0.0628 -0.02487,-0.0765 0.0391,-0.0146 0.0358,-0.0349 -0.01478,-0.0907 -0.03581,-0.0396 -0.08025,-0.0626 -0.09874,-0.0512 -0.07028,0.0434 -0.194028,-0.0285 -0.1749,-0.10172 0.02131,-0.0815 -0.06125,-0.16751 -0.135294,-0.141 -0.08652,0.031 -0.178354,-0.0421 -0.15675,-0.12468 0.02067,-0.0791 0.0046,-0.0901 -0.194355,-0.13397 -0.08142,-0.0179 -0.105012,-0.0419 -0.09161,-0.0932 0.0206,-0.0787 -0.0937,-0.16765 -0.175224,-0.13637 -0.06236,0.0239 -0.159177,-0.0782 -0.125621,-0.1325 0.02889,-0.0468 -0.0327,-0.0861 -0.186052,-0.11862 -0.08568,-0.0182 -0.116765,-0.0454 -0.111954,-0.0979 0.01,-0.10883 -0.05755,-0.2104 -0.139897,-0.2104 -0.07947,0 -0.148333,-0.14822 -0.08702,-0.18729 0.05092,-0.0325 -0.01136,-0.19239 -0.08618,-0.22108 -0.06442,-0.0247 -0.08161,-0.16792 -0.02014,-0.16792 0.02113,0 0.03842,-0.0509 0.03842,-0.11299 0,-0.0621 -0.01729,-0.12368 -0.03842,-0.13674 -0.05721,-0.03536 -0.04643,-0.172224 0.01545,-0.195962 0.07168,-0.02752 0.106765,-0.172001 0.0565,-0.232576 -0.02205,-0.0266 -0.03013,-0.06449 -0.01796,-0.08423 0.01217,-0.01976 -0.04009,-0.04758 -0.116216,-0.06186 -0.09096,-0.01704 -0.145052,-0.05142 -0.157819,-0.10026 -0.01065,-0.04087 -0.04334,-0.0743 -0.07257,-0.0743 -0.175006,0 0.184418,-0.458763 0.482547,-0.615933 0.07514,-0.03962 0.177359,-0.116057 0.227107,-0.169873 0.06276,-0.06786 0.130447,-0.09784 0.220917,-0.09784 0.07174,0 0.130429,-0.01729 0.130429,-0.03843 0,-0.02438 0.289521,-0.03842 0.791679,-0.03842 h 0.791672 l 0.07556,-0.09605 c 0.09682,-0.123091 0.211642,-0.121934 0.342501,0.0035 0.08729,0.08363 0.116713,0.0926 0.184606,0.05628 0.04441,-0.02378 0.08073,-0.0645 0.08073,-0.09051 0,-0.026 0.04978,-0.176682 0.110613,-0.334818 l 0.110614,-0.287525 -0.312304,-0.01919 c -0.22152,-0.01362 -0.30952,-0.03316 -0.302715,-0.06723 0.0071,-0.035 -0.06851,-0.04802 -0.278539,-0.04802 -0.230523,0 -0.288146,-0.01154 -0.288146,-0.05763 0,-0.04827 0.08111,-0.05763 0.499442,-0.05763 h 0.499459 v -0.194367 c 0,-0.119793 0.01478,-0.185254 0.03843,-0.170621 0.02113,0.01305 0.03842,0.100528 0.03842,0.194367 0,0.154167 0.0088,0.170621 0.09157,0.170621 0.07511,0 0.107177,-0.03838 0.178202,-0.213382 0.05496,-0.135417 0.104532,-0.206502 0.135685,-0.194546 0.0314,0.01206 0.06114,-0.03221 0.08255,-0.122788 0.02678,-0.113301 0.05238,-0.14273 0.128094,-0.14715 0.229887,-0.01341 0.819097,-0.09891 1.189143,-0.172548 0.286699,-0.05705 0.498288,-0.07562 0.733386,-0.06438 l 0.330433,0.01581 -0.05623,-0.09798 c -0.04937,-0.08601 -0.08266,-0.09837 -0.272351,-0.10112 -0.402435,-0.0059 -0.907274,-0.06619 -0.987231,-0.118018 -0.06192,-0.04011 -0.277266,-0.04945 -0.969705,-0.04204 -0.712541,0.0076 -0.894041,-7.06e-4 -0.909729,-0.04165 -0.02939,-0.07672 -0.02247,-0.365933 0.0098,-0.409872 0.01718,-0.02332 0.38723,-0.04169 0.941969,-0.04674 0.749127,-0.0068 0.92891,-0.01894 0.99785,-0.06724 0.04626,-0.03238 0.130757,-0.05891 0.187773,-0.05891 0.08588,0 0.10819,-0.02141 0.130118,-0.124862 0.0146,-0.06867 0.06868,-0.181052 0.120273,-0.249724 0.09286,-0.12362 0.09702,-0.124862 0.418398,-0.124862 h 0.324608 v -0.112995 c 0,-0.06214 0.01838,-0.124336 0.0408,-0.138201 0.02244,-0.01386 0.05666,-0.06696 0.07606,-0.117997 0.03976,-0.104584 0.219099,-0.205369 0.260494,-0.146402 0.01429,0.02043 0.0736,0.06738 0.131717,0.104355 0.102591,0.06529 0.10565,0.06499 0.10565,-0.01048 0,-0.07457 0.02342,-0.07773 0.576287,-0.07773 0.486657,0 0.576308,-0.009 0.576308,-0.05763 0,-0.03168 0.01729,-0.05763 0.03841,-0.05763 0.02113,0 0.03868,-0.05619 0.03901,-0.124862 0,-0.16988 0.08465,-0.437871 0.160859,-0.514085 0.08348,-0.08348 0.253193,-0.04019 0.297286,0.07583 0.01838,0.04833 0.04604,0.190478 0.06149,0.315891 0.01545,0.125409 0.04732,0.240718 0.07089,0.256244 0.02353,0.01549 0.146717,0.0285 0.27371,0.02882 0.189642,3.52e-4 0.239441,-0.01316 0.278846,-0.07625 0.06171,-0.0988 0.164059,-0.0988 0.189882,0 0.03027,0.115746 0.164815,0.100065 0.164815,-0.01919 0,-0.06863 0.02074,-0.09605 0.07274,-0.09605 0.10245,0 0.134034,-0.112201 0.05588,-0.198561 -0.04246,-0.04693 -0.05222,-0.08531 -0.02787,-0.109675 0.02434,-0.02434 0.09128,0.01422 0.191209,0.110222 0.161254,0.15495 0.361159,0.229704 0.361159,0.135057 0,-0.06617 0.18777,-0.06994 0.212842,-0.0043 0.02843,0.07442 0.862905,0.04424 0.862905,-0.03122 0,-0.04227 0.05764,-0.05523 0.245611,-0.05523 l 0.44426,-0.07742 c 0.05509,0.03404 0.0655,0.280028 0.01256,0.297663 -0.02138,0.0071 -0.03073,0.05558 -0.02081,0.107675 l 0.0181,0.09471 h 0.875895 0.875876 l 0.02152,0.240122 c 0.01185,0.132069 0.03221,0.339531 0.04526,0.461034 l 0.02371,0.22091 h 0.2003 c 0.181479,0 0.200469,-0.0081 0.20229,-0.08644 0.0057,-0.244856 0.01598,-0.300408 0.05133,-0.278543 0.02113,0.01305 0.03843,0.100005 0.03843,0.193216 v 0.169475 l 0.486709,0.01076 c 0.347292,0.0077 0.491275,0.02452 0.502652,0.05878 0.01185,0.0357 -0.06621,0.0488 -0.304211,0.05105 -0.176089,0.0018 -0.298457,0.01178 -0.271907,0.02251 0.135277,0.05454 -0.04275,0.08974 -0.453936,0.08974 h -0.458763 v 0.170621 c 0,0.09384 -0.01729,0.181303 -0.03841,0.194363 -0.02113,0.01305 -0.03842,0.08962 -0.03842,0.17013 0,0.139305 0.0071,0.147532 0.144071,0.170194 0.07923,0.01309 0.571977,0.02399 1.094959,0.02424 0.915487,2.58e-4 0.950867,0.0032 0.950867,0.07499 0,0.04102 -0.01729,0.08525 -0.0384,0.09831 -0.05509,0.03404 -0.0475,0.240037 0.0096,0.260717 0.03836,0.0139 0.0383,0.03387 0,0.09925 -0.04408,0.07463 -0.03983,0.08186 0.04803,0.08186 0.08453,0 0.09637,-0.01654 0.09637,-0.134468 0,-0.09391 0.01736,-0.134468 0.05763,-0.134468 0.04057,0 0.05762,0.04101 0.05762,0.138578 0,0.110581 0.01238,0.133865 0.06078,0.115259 0.03341,-0.01281 0.08528,-0.02332 0.115253,-0.02332 0.03288,0 0.05449,-0.03909 0.05449,-0.09857 0,-0.209073 0.212926,-0.463871 0.419739,-0.502246 0.07553,-0.014 0.191914,-0.06692 0.258621,-0.11757 0.151772,-0.115221 0.360613,-0.151391 0.512004,-0.08868 0.173697,0.07195 0.139774,0.114731 -0.07113,0.08975 -0.10795,-0.01277 -0.217604,-0.0044 -0.259341,0.01986 -0.05567,0.03235 0.02099,0.04227 0.333456,0.04317 0.354288,0.0011 0.416444,0.01111 0.489853,0.0795 0.04624,0.04309 0.08728,0.125208 0.09118,0.182492 0.004,0.05729 0.01083,0.138737 0.01545,0.181 0.0046,0.04226 0.01,0.108631 0.01203,0.147486 0.0035,0.06293 0.01665,0.05978 0.12199,-0.02882 0.06501,-0.0547 0.142819,-0.09946 0.172893,-0.09946 0.03006,0 0.05468,-0.01609 0.05468,-0.03578 0,-0.01969 0.13892,-0.04789 0.308716,-0.06271 0.244718,-0.02134 0.316685,-0.04181 0.34714,-0.09869 0.05641,-0.105442 0.458301,-0.08061 0.458301,0.02833 0,0.02861 0.06915,0.08733 0.153677,0.130447 0.08451,0.04312 0.153677,0.06896 0.153677,0.05742 0,-0.01154 0.127317,0.0489 0.282921,0.134299 0.24783,0.136017 0.288935,0.148057 0.331276,0.09704 0.0681,-0.08206 0.145482,-0.07179 0.364049,0.04831 0.127024,0.06979 0.198063,0.136599 0.212876,0.200173 0.02201,0.09438 0.212739,0.196173 0.463423,0.247354 0.05421,0.01104 0.13407,0.05091 0.177444,0.08853 0.04339,0.03762 0.182016,0.117708 0.308077,0.177955 l 0.229204,0.109552 0.06979,0.274517 c 0.03839,0.150982 0.111732,0.347465 0.163008,0.436626 0.05915,0.102849 0.08415,0.190694 0.06839,0.240312 -0.01771,0.05586 -0.0048,0.0845 0.04507,0.100235 0.03842,0.0121 0.117453,0.04761 0.175602,0.07887 0.05815,0.03126 0.121906,0.04683 0.141686,0.03461 0.02025,-0.01252 0.03524,0.04942 0.03436,0.141856 -0.0018,0.161536 -0.0871,0.316526 -0.152442,0.27615 -0.01831,-0.01132 -0.03327,0.06744 -0.03327,0.175003 0,0.133674 0.01729,0.202209 0.05465,0.216542 0.07621,0.02924 0.111062,0.13753 0.05533,0.171965 -0.03482,0.02152 -0.03038,0.05286 0.01792,0.126592 0.08496,0.12966 0.09369,0.71538 0.01065,0.71538 -0.06958,0 -0.105943,0.0981 -0.07786,0.20999 0.01305,0.0521 0,0.10905 -0.0308,0.13817 -0.03101,0.029 -0.04619,0.0964 -0.0365,0.16231 0.01905,0.12971 -0.01884,0.16357 -0.250613,0.22397 -0.118897,0.031 -0.164229,0.0636 -0.17289,0.12442 -0.0095,0.0664 -0.036,0.0813 -0.136613,0.0768 -0.07855,-0.004 -0.124862,0.0125 -0.124862,0.0433 0,0.0818 -0.111626,0.15424 -0.161184,0.10467 -0.05358,-0.0536 -0.184595,0.009 -0.184595,0.0882 0,0.0772 -0.130753,0.14203 -0.182357,0.0904 -0.03951,-0.0395 -0.08032,-0.008 -0.235148,0.17896 -0.03521,0.0426 -0.06525,0.0508 -0.09115,0.0249 -0.04816,-0.0482 -0.221315,0.0233 -0.221315,0.0913 0,0.0257 -0.02727,0.0694 -0.06056,0.097 -0.04934,0.0409 -0.06623,0.0411 -0.09116,7e-4 -0.0404,-0.0654 -0.179522,0.006 -0.212119,0.10851 -0.02685,0.0846 -0.122438,0.13282 -0.155931,0.0786 -0.03104,-0.0502 -0.171775,0.0277 -0.171775,0.0951 0,0.0592 -0.104136,0.11023 -0.157494,0.0772 -0.06401,-0.0396 -0.188284,0.0254 -0.188284,0.0984 0,0.0653 -0.09756,0.12654 -0.178509,0.11204 -0.07987,-0.0143 -0.128849,0.007 -0.128849,0.0567 0,0.0753 -0.08044,0.0975 -0.264206,0.0729 -0.104789,-0.0141 -0.158404,-0.007 -0.158404,0.0222 0,0.0239 -0.04322,0.0435 -0.09606,0.0435 -0.05282,0 -0.09604,-0.0173 -0.09604,-0.0384 0,-0.0211 -0.0422,-0.0384 -0.09377,-0.0384 -0.05159,0 -0.104483,0.0173 -0.117542,0.0384 -0.01305,0.0211 -0.05729,0.0384 -0.09831,0.0384 -0.04102,0 -0.07458,-0.0173 -0.07458,-0.0384 0,-0.0211 -0.04219,-0.0384 -0.09377,-0.0384 -0.05157,0 -0.104461,0.0173 -0.117521,0.0384 -0.01305,0.0211 -0.06595,0.0384 -0.117524,0.0384 -0.05159,0 -0.09379,-0.0173 -0.09379,-0.0384 0,-0.0211 -0.04219,-0.0384 -0.09378,-0.0384 -0.05159,0 -0.104461,0.0173 -0.117521,0.0384 -0.01305,0.0211 -0.06596,0.0384 -0.117542,0.0384 -0.05157,0 -0.09377,-0.0173 -0.09377,-0.0384 0,-0.0211 -0.04221,-0.0384 -0.09378,-0.0384 -0.05159,0 -0.104479,0.0173 -0.117542,0.0384 -0.01305,0.0211 -0.05729,0.0384 -0.09831,0.0384 -0.04102,0 -0.07456,-0.0173 -0.07456,-0.0384 0,-0.0211 -0.0422,-0.0384 -0.09379,-0.0384 -0.05157,0 -0.104461,0.0173 -0.117524,0.0384 -0.01305,0.0211 -0.05731,0.0384 -0.09831,0.0384 -0.04102,0 -0.07458,-0.0173 -0.07458,-0.0384 0,-0.0211 -0.0422,-0.0384 -0.09377,-0.0384 -0.05159,0 -0.104482,0.0173 -0.117525,0.0384 -0.01305,0.0211 -0.06595,0.0384 -0.117542,0.0384 -0.05157,0 -0.09377,-0.0173 -0.09377,-0.0384 0,-0.0211 -0.0422,-0.0384 -0.09377,-0.0384 -0.05159,0 -0.104483,0.0173 -0.117542,0.0384 -0.01305,0.0211 -0.05729,0.0384 -0.09831,0.0384 -0.04102,0 -0.07458,-0.0173 -0.07458,-0.0384 0,-0.0211 -0.04219,-0.0384 -0.09378,-0.0384 -0.05157,0 -0.104461,0.0173 -0.117521,0.0384 -0.01305,0.0211 -0.06596,0.0384 -0.117524,0.0384 -0.05159,0 -0.09379,-0.0173 -0.09379,-0.0384 0,-0.0211 -0.0422,-0.0384 -0.09377,-0.0384 -0.05159,0 -0.104479,0.0173 -0.117521,0.0384 -0.0309,0.05 -0.211317,0.05 -0.211317,0 0,-0.0211 -0.03355,-0.0384 -0.07456,-0.0384 -0.04102,0 -0.08527,0.0173 -0.09833,0.0384 -0.01305,0.0211 -0.06595,0.0384 -0.117521,0.0384 -0.05159,0 -0.09377,-0.0173 -0.09377,-0.0384 0,-0.0211 -0.04324,-0.0384 -0.09606,-0.0384 -0.05282,0 -0.09604,0.0173 -0.09604,0.0384 0,0.0211 -0.04322,0.0384 -0.09606,0.0384 -0.05282,0 -0.09604,-0.0173 -0.09604,-0.0384 0,-0.0211 -0.04221,-0.0384 -0.09377,-0.0384 -0.05159,0 -0.104482,0.0173 -0.117542,0.0384 -0.01305,0.0211 -0.06593,0.0384 -0.117521,0.0384 -0.05157,0 -0.09378,-0.0173 -0.09378,-0.0384 0,-0.0211 -0.04221,-0.0384 -0.09377,-0.0384 -0.05159,0 -0.104482,0.0173 -0.117542,0.0384 -0.01305,0.0211 -0.06593,0.0384 -0.117525,0.0384 -0.05158,0 -0.09377,-0.0173 -0.09377,-0.0384 0,-0.0211 -0.04221,-0.0384 -0.09379,-0.0384 -0.05157,0 -0.104465,0.0173 -0.117524,0.0384 -0.01305,0.0211 -0.05729,0.0384 -0.09831,0.0384 -0.04102,0 -0.07458,-0.0173 -0.07458,-0.0384 0,-0.0211 -0.0422,-0.0384 -0.09377,-0.0384 -0.05159,0 -0.104479,0.0173 -0.117521,0.0384 -0.01305,0.0211 -0.05731,0.0384 -0.09833,0.0384 -0.041,0 -0.07456,-0.0173 -0.07456,-0.0384 0,-0.0211 -0.0422,-0.0384 -0.09379,-0.0384 -0.05157,0 -0.104465,0.0173 -0.117521,0.0384 -0.01305,0.0211 -0.06596,0.0384 -0.117525,0.0384 -0.05159,0 -0.09378,-0.0173 -0.09378,-0.0384 0,-0.0211 -0.0422,-0.0384 -0.09379,-0.0384 -0.05157,0 -0.104465,0.0173 -0.117525,0.0384 -0.01305,0.0211 -0.05731,0.0384 -0.09833,0.0384 -0.041,0 -0.07456,-0.0173 -0.07456,-0.0384 0,-0.0211 -0.04221,-0.0384 -0.09378,-0.0384 -0.05159,0 -0.104478,0.0173 -0.117538,0.0384 -0.01305,0.0211 -0.06594,0.0384 -0.117521,0.0384 -0.05157,0 -0.09377,-0.0173 -0.09377,-0.0384 0,-0.0211 -0.04221,-0.0384 -0.09378,-0.0384 -0.05159,0 -0.104478,0.0173 -0.117538,0.0384 -0.01305,0.0211 -0.06595,0.0384 -0.117521,0.0384 -0.05159,0 -0.09377,-0.0173 -0.09377,-0.0384 0,-0.0211 -0.03355,-0.0384 -0.07458,-0.0384 -0.04102,0 -0.08525,0.0173 -0.09831,0.0384 -0.01305,0.0211 -0.06595,0.0384 -0.117542,0.0384 -0.05157,0 -0.09378,-0.0173 -0.09378,-0.0384 0,-0.0211 -0.0422,-0.0384 -0.09377,-0.0384 -0.05159,0 -0.104482,0.0173 -0.117524,0.0384 -0.01305,0.0211 -0.05731,0.0384 -0.09833,0.0384 -0.041,0 -0.07456,-0.0173 -0.07456,-0.0384 0,-0.0211 -0.0422,-0.0384 -0.09379,-0.0384 -0.05156,0 -0.104461,0.0173 -0.117517,0.0384 -0.01305,0.0211 -0.06595,0.0384 -0.117524,0.0384 -0.05159,0 -0.09379,-0.0173 -0.09379,-0.0384 0,-0.0211 -0.04219,-0.0384 -0.09378,-0.0384 -0.05156,0 -0.104461,0.0173 -0.117517,0.0384 -0.01305,0.0211 -0.06596,0.0384 -0.117525,0.0384 -0.05159,0 -0.09379,-0.0173 -0.09379,-0.0384 0,-0.0211 -0.04219,-0.0384 -0.09378,-0.0384 -0.05158,0 -0.104461,0.0173 -0.117521,0.0384 -0.01305,0.0211 -0.05731,0.0384 -0.09833,0.0384 -0.041,0 -0.07456,-0.0173 -0.07456,-0.0384 0,-0.0211 -0.04221,-0.0384 -0.09379,-0.0384 -0.05157,0 -0.104461,0.0173 -0.117521,0.0384 -0.01305,0.0211 -0.05729,0.0384 -0.09831,0.0384 -0.04102,0 -0.07458,-0.0173 -0.07458,-0.0384 0,-0.0211 -0.04219,-0.0384 -0.09378,-0.0384 -0.05159,0 -0.104461,0.0173 -0.117524,0.0384 -0.01305,0.0211 -0.06595,0.0384 -0.117539,0.0384 -0.05157,0 -0.09377,-0.0173 -0.09377,-0.0384 0,-0.0211 -0.04221,-0.0384 -0.09377,-0.0384 -0.05159,0 -0.104482,0.0173 -0.117524,0.0384 -0.01305,0.0211 -0.05731,0.0384 -0.09833,0.0384 -0.041,0 -0.07456,-0.0173 -0.07456,-0.0384 0,-0.0211 -0.0422,-0.0384 -0.09379,-0.0384 -0.05157,0 -0.104465,0.0173 -0.117525,0.0384 -0.01305,0.0211 -0.06595,0.0384 -0.11752,0.0384 -0.05159,0 -0.09379,-0.0173 -0.09379,-0.0384 0,-0.0211 -0.04219,-0.0384 -0.09378,-0.0384 -0.05157,0 -0.104461,0.0173 -0.117521,0.0384 -0.01305,0.0211 -0.06595,0.0384 -0.117524,0.0384 -0.05158,0 -0.09379,-0.0173 -0.09379,-0.0384 0,-0.0211 -0.04322,-0.0384 -0.09604,-0.0384 -0.05282,0 -0.09606,0.0173 -0.09606,0.0384 0,0.0211 -0.04322,0.0384 -0.09604,0.0384 -0.05282,0 -0.09604,-0.0173 -0.09604,-0.0384 0,-0.0211 -0.0422,-0.0384 -0.09379,-0.0384 -0.05157,0 -0.104461,0.0173 -0.117521,0.0384 -0.01305,0.0211 -0.05729,0.0384 -0.09831,0.0384 -0.04102,0 -0.07458,-0.0173 -0.07458,-0.0384 0,-0.0211 -0.04219,-0.0384 -0.09378,-0.0384 -0.05159,0 -0.104461,0.0173 -0.117524,0.0384 -0.01305,0.0211 -0.06595,0.0384 -0.117539,0.0384 -0.05157,0 -0.09377,-0.0173 -0.09377,-0.0384 0,-0.0211 -0.04221,-0.0384 -0.09378,-0.0384 -0.05159,0 -0.104482,0.0173 -0.117542,0.0384 -0.01305,0.0211 -0.06593,0.0384 -0.117521,0.0384 -0.05157,0 -0.09377,-0.0173 -0.09377,-0.0384 0,-0.0211 -0.04322,-0.0384 -0.09604,-0.0384 -0.05284,0 -0.09606,0.0173 -0.09606,0.0384 0,0.0211 -0.04322,0.0384 -0.09604,0.0384 -0.05284,0 -0.09606,-0.0173 -0.09606,-0.0384 0,-0.0211 -0.04219,-0.0384 -0.09377,-0.0384 -0.05157,0 -0.104465,0.0173 -0.117525,0.0384 -0.01305,0.0211 -0.05731,0.0384 -0.09833,0.0384 -0.041,0 -0.07456,-0.0173 -0.07456,-0.0384 0,-0.0211 -0.0422,-0.0384 -0.09378,-0.0384 -0.05159,0 -0.104479,0.0173 -0.117539,0.0384 -0.01305,0.0211 -0.06594,0.0384 -0.117524,0.0384 -0.05159,0 -0.09377,-0.0173 -0.09377,-0.0384 0,-0.0211 -0.0422,-0.0384 -0.09379,-0.0384 -0.05157,0 -0.104461,0.0173 -0.117521,0.0384 -0.01305,0.0211 -0.05729,0.0384 -0.09831,0.0384 -0.04102,0 -0.07458,-0.0173 -0.07458,-0.0384 0,-0.0211 -0.04221,-0.0384 -0.09378,-0.0384 -0.05159,0 -0.104461,0.0173 -0.117524,0.0384 -0.01305,0.0211 -0.06595,0.0384 -0.117539,0.0384 -0.05157,0 -0.09377,-0.0173 -0.09377,-0.0384 0,-0.0211 -0.04221,-0.0384 -0.09378,-0.0384 -0.05159,0 -0.104478,0.0173 -0.117542,0.0384 -0.03789,0.0613 -0.211293,0.0461 -0.211293,-0.0185 z m 0.537866,-0.25152 c 0,-0.0192 -0.02582,-0.025 -0.0574,-0.0129 -0.03157,0.0121 -0.04767,0.0378 -0.03578,0.0571 0.02491,0.0403 0.09317,0.008 0.09317,-0.0441 z m 0.428968,-0.0742 c 0.0084,-0.0622 0.04562,-0.10353 0.108913,-0.12103 0.05667,-0.0157 -0.02208,-0.0258 -0.192102,-0.0246 -0.158471,0.001 -0.240647,0.009 -0.182584,0.0179 0.0765,0.0116 0.112335,0.0444 0.130172,0.11911 0.04665,0.19545 0.109636,0.19946 0.135601,0.009 z m 0.335812,0.0517 c -0.05619,-0.0677 -0.08348,-0.0479 -0.0509,0.0371 0.01323,0.0346 0.04047,0.0528 0.0604,0.0405 0.02163,-0.0133 0.01778,-0.0447 -0.0095,-0.0776 z m 0.848847,-0.002 c 0,-0.0488 -0.01065,-0.0512 -0.05721,-0.0126 -0.03147,0.0261 -0.04756,0.0631 -0.03576,0.0822 0.0303,0.049 0.09296,0.002 0.09296,-0.0696 z m 0.348291,-0.0855 c -0.103382,-0.1452 -0.116735,-0.45945 -0.02544,-0.59881 0.03373,-0.0515 0.06133,-0.10284 0.06133,-0.11415 0,-0.0113 -0.09322,-0.0205 -0.207172,-0.0205 h -0.207155 l 0.07506,0.14407 c 0.05686,0.10913 0.06961,0.18766 0.05255,0.32377 -0.0205,0.16337 -0.01496,0.18082 0.06094,0.1921 0.08281,0.0123 0.121906,0.0595 0.166653,0.20132 0.01683,0.0532 0.03489,0.062 0.06511,0.0318 0.03023,-0.0302 0.01859,-0.0746 -0.04187,-0.15951 z m 1.27345,0.0353 c 0.01461,-0.0995 0.0048,-0.11573 -0.06973,-0.11573 -0.07953,0 -0.08374,0.0103 -0.05097,0.12461 0.01968,0.0685 0.03574,0.13007 0.03574,0.13674 0,0.007 0.01531,0.003 0.03401,-0.009 0.0187,-0.0116 0.04162,-0.0731 0.05097,-0.13674 z m 0.341965,0.0269 c -0.03136,-0.0314 -0.04274,-0.027 -0.04274,0.0162 0,0.0764 0.05165,0.12803 0.07075,0.0707 0.0081,-0.0243 -0.0045,-0.0634 -0.02801,-0.0869 z m 0.879334,0.0449 c 0,-0.0211 -0.01729,-0.0277 -0.03843,-0.0147 -0.02113,0.013 -0.03841,0.041 -0.03841,0.0622 0,0.0211 0.01729,0.0277 0.03841,0.0147 0.02113,-0.013 0.03843,-0.041 0.03843,-0.0622 z m 0.384185,0.0104 c 0,-0.039 -0.02829,-0.12765 -0.06286,-0.19696 -0.07925,-0.15888 -0.08047,-0.37865 -0.0028,-0.53405 l 0.05992,-0.12012 H 61.92009 61.735775 l 0.07771,0.15707 c 0.06557,0.13254 0.07173,0.18325 0.03937,0.32465 -0.03528,0.15417 -0.03207,0.1685 0.04005,0.1791 0.05188,0.008 0.08929,0.0538 0.110582,0.13638 0.03457,0.13417 0.106832,0.17064 0.106832,0.0539 z m 1.235781,-0.0827 c 0.01048,-0.0777 0.0344,-0.0961 0.12567,-0.0961 0.09597,0 0.117863,0.0194 0.146526,0.13009 0.02551,0.0984 0.04453,0.11928 0.07812,0.0857 0.03358,-0.0336 0.02896,-0.0699 -0.01912,-0.1493 -0.05863,-0.0969 -0.08496,-0.10574 -0.344593,-0.11593 -0.26639,-0.0104 -0.276596,-0.008 -0.194681,0.0502 0.04753,0.0337 0.08644,0.0919 0.08644,0.12948 0,0.16005 0.09934,0.13212 0.12161,-0.0342 z m 1.184663,0.0723 c 0,-0.0211 -0.01732,-0.0277 -0.03843,-0.0147 -0.02113,0.0131 -0.03842,0.041 -0.03842,0.0622 0,0.0211 0.01729,0.0277 0.03842,0.0147 0.0211,-0.0131 0.03843,-0.041 0.03843,-0.0622 z m 0.422007,-0.0775 c 0,-0.0346 -0.02522,-0.11237 -0.05679,-0.17289 -0.07473,-0.14328 -0.07375,-0.39684 0.0018,-0.5049 0.0594,-0.0848 0.05853,-0.0854 -0.13153,-0.0854 h -0.191329 l 0.056,0.11224 c 0.06593,0.13217 0.08088,0.28831 0.04169,0.43523 -0.02388,0.0894 -0.01633,0.10566 0.04863,0.10566 0.0521,0 0.08498,0.034 0.102094,0.10565 0.0139,0.0581 0.03369,0.12047 0.04396,0.13857 0.02413,0.0425 0.08458,-0.0525 0.08535,-0.13417 z m 0.807399,0.081 c 0,-0.0192 -0.02582,-0.025 -0.05739,-0.0129 -0.03157,0.0121 -0.04769,0.0378 -0.03578,0.0571 0.02491,0.0403 0.09317,0.008 0.09317,-0.0441 z m 0.399309,0.0171 c 0.01288,-0.0334 0.02332,-0.095 0.02332,-0.1369 0,-0.0627 0.02194,-0.074 0.124686,-0.0641 0.104257,0.0101 0.127868,0.0306 0.144071,0.12512 0.02328,0.13576 0.09117,0.15311 0.108913,0.0278 0.02357,-0.16635 -0.09074,-0.23695 -0.383635,-0.23695 -0.24221,0 -0.337446,0.04 -0.210816,0.0886 0.02872,0.011 0.06284,0.0734 0.07589,0.13858 0.02568,0.12826 0.08024,0.15509 0.117577,0.0578 z m 1.214321,-0.0422 c 0,-0.0488 -0.01065,-0.0512 -0.05721,-0.0126 -0.03147,0.0261 -0.04757,0.0631 -0.03576,0.0822 0.0303,0.049 0.09297,0.002 0.09297,-0.0696 z m 0.397005,-0.041 c 0.01238,-0.0792 0.0079,-0.20891 -0.0103,-0.28815 -0.03115,-0.13645 -0.0058,-0.35287 0.05226,-0.4469 0.01824,-0.0295 -0.03461,-0.043 -0.168716,-0.043 h -0.195245 l 0.06245,0.0953 c 0.06241,0.0953 0.0631,0.34794 0.0018,0.48554 -0.0194,0.0433 -0.0057,0.068 0.04528,0.0813 0.04442,0.0116 0.08264,0.0664 0.09725,0.13951 0.03263,0.16311 0.0881,0.15175 0.115666,-0.0237 z m 1.232398,-0.0602 c 0.0158,-0.0497 0.05263,-0.0663 0.127885,-0.0576 0.08278,0.01 0.109894,0.0365 0.125085,0.12426 0.02723,0.15749 0.102485,0.16619 0.124961,0.0145 0.03023,-0.20424 0.0074,-0.22258 -0.276169,-0.22258 -0.142131,0 -0.268795,0.0104 -0.281457,0.023 -0.0127,0.0127 -0.0084,0.0602 0.0096,0.10566 0.01799,0.0454 0.0446,0.11719 0.05912,0.15945 l 0.02639,0.0768 0.03115,-0.0768 c 0.01718,-0.0423 0.04114,-0.10825 0.05336,-0.14665 z m 1.175208,0.16585 c 0,-0.0211 -0.0075,-0.0384 -0.017,-0.0384 -0.0093,0 -0.02762,0.0173 -0.04067,0.0384 -0.01305,0.0211 -0.0055,0.0384 0.017,0.0384 0.0224,0 0.04069,-0.0173 0.04069,-0.0384 z m 0.422611,-0.0964 c 0,-0.0505 0.0279,-0.10748 0.06202,-0.12657 0.06516,-0.0365 0.04377,-0.19963 -0.02618,-0.19963 -0.05643,0 -0.04184,-0.22274 0.02279,-0.34768 l 0.0586,-0.11336 h -0.169111 -0.169108 l 0.06051,0.16828 c 0.05516,0.15339 0.05511,0.18203 0,0.32402 -0.05155,0.1312 -0.05276,0.15899 -0.0076,0.1763 0.02942,0.0113 0.05355,0.0614 0.05355,0.11139 0,0.05 0.01101,0.10191 0.02455,0.11542 0.04323,0.0432 0.0907,-0.0134 0.0907,-0.10817 z m 0.363361,0.0553 c -0.03614,-0.0585 -0.09386,-0.0406 -0.06997,0.0217 0.01217,0.0316 0.03779,0.0477 0.05705,0.0358 0.01926,-0.0119 0.02508,-0.0377 0.01288,-0.0574 z m 0.857818,-0.0454 c 0.0272,-0.10506 0.05017,-0.12487 0.144794,-0.12487 0.09439,0 0.115577,0.0181 0.132023,0.11309 0.02378,0.13748 0.09175,0.13817 0.108793,0.001 0.0069,-0.0547 0.03597,-0.10857 0.0648,-0.11963 0.02886,-0.011 0.04303,-0.0446 0.03154,-0.0746 -0.01531,-0.0397 -0.09276,-0.0545 -0.286543,-0.0545 -0.243928,0 -0.269124,0.008 -0.30813,0.0932 -0.04547,0.0998 -0.01665,0.29098 0.04375,0.29098 0.02014,0 0.05116,-0.0562 0.06897,-0.12486 z m -15.563801,-0.34337 c -0.01221,-0.0307 -0.02138,-0.0216 -0.02321,0.0232 -0.0018,0.0405 0.0074,0.0632 0.02014,0.0504 0.01273,-0.0128 0.01408,-0.0459 0.0032,-0.0736 z m 17.290172,-0.0931 c -0.01288,-0.21139 0.08841,-0.25704 0.244051,-0.10998 l 0.120841,0.11418 -0.02628,-0.16038 c -0.02244,-0.13698 -0.01496,-0.16645 0.05128,-0.20189 0.06362,-0.034 0.09638,-0.024 0.18246,0.0557 0.120205,0.11142 0.201898,0.076 0.130841,-0.0568 -0.08998,-0.16813 0.115235,-0.26456 0.248846,-0.11692 0.105749,0.11686 0.127709,0.0945 0.113429,-0.11545 -0.01633,-0.23957 -0.03528,-0.2704 -0.163985,-0.26628 -0.05673,0.002 -0.17229,-0.0149 -0.256801,-0.0371 -0.08453,-0.0222 -0.492566,-0.0408 -0.906759,-0.0413 l -0.753064,-7e-4 0.004,0.18433 0.004,0.18434 0.159022,-0.0361 c 0.133159,-0.0303 0.187293,-0.0225 0.33298,0.0481 0.19734,0.0955 0.291338,0.21653 0.32385,0.41682 0.02152,0.13262 0.111167,0.27834 0.171241,0.27834 0.01581,0 0.02494,-0.0624 0.02025,-0.13867 z m -17.515456,-0.1165 c 0.02378,-0.0425 0.06772,-0.0569 0.134966,-0.044 0.08223,0.0157 0.116145,-0.006 0.1937,-0.12303 0.09114,-0.13771 0.298178,-0.26934 0.423658,-0.26934 0.04126,0 0.06159,-0.0347 0.06195,-0.10566 0,-0.0581 0.01101,-0.14455 0.02367,-0.19209 l 0.02318,-0.0864 h -0.6336 c -0.708607,0 -0.888488,0.0213 -0.857645,0.10173 0.01115,0.0291 0,0.096 -0.02335,0.14862 -0.05415,0.11883 -0.01739,0.16398 0.06582,0.0808 0.06803,-0.068 0.09664,-0.074 0.18803,-0.0389 0.07236,0.0278 0.07893,0.14077 0.01429,0.24439 -0.06833,0.1094 -0.004,0.14387 0.08688,0.0465 0.09276,-0.0996 0.126562,-0.10337 0.206657,-0.0233 0.0687,0.0687 0.07863,0.15433 0.02198,0.18936 -0.04885,0.0302 -0.05035,0.13446 -0.0018,0.13446 0.02007,0 0.05239,-0.0284 0.0718,-0.0631 z m 18.947744,-0.49653 c 0,-0.0707 -0.09058,-0.17037 -0.154781,-0.17037 -0.0725,0 -0.07219,0.004 0.0083,0.0961 0.07795,0.0896 0.146494,0.12441 0.146494,0.0743 z m -19.749953,-0.31505 c 0.0093,-0.006 -0.02529,-0.004 -0.07683,0.004 -0.05449,0.008 -0.09961,0.0448 -0.107794,0.0873 -0.01358,0.0704 -0.01083,0.0703 0.07685,-0.004 0.04999,-0.042 0.0985,-0.0813 0.107777,-0.0873 z m -0.58505,-0.7758 c -0.0345,-0.0914 -0.05336,-0.1048 -0.09667,-0.0689 -0.04516,0.0375 -0.04014,0.0557 0.03122,0.11352 0.112109,0.0908 0.115633,0.0884 0.06544,-0.0447 z m -0.273368,-0.54753 c -0.03641,-0.0204 -0.08131,-0.0745 -0.09975,-0.12023 -0.02858,-0.07089 -0.0339,-0.0628 -0.03597,0.0545 -0.0028,0.16837 0.02296,0.19858 0.124019,0.14449 0.07195,-0.0385 0.07284,-0.0446 0.01168,-0.0788 z m 20.032063,-3.007228 c 0,-0.02882 -0.298489,-0.17387 -0.35384,-0.17193 -0.02727,0.0011 0.02822,0.0434 0.123331,0.09431 0.173217,0.09276 0.230509,0.112046 0.230509,0.07762 z m -4.495074,-0.385434 c 0,-0.112505 0.08764,-0.237614 0.214203,-0.30577 0.142198,-0.07658 0.176481,-0.140145 0.05901,-0.109425 -0.115341,0.03016 -0.301188,0.250074 -0.330969,0.391643 -0.01912,0.09077 -0.01461,0.121786 0.01531,0.103389 0.02339,-0.01446 0.04253,-0.05038 0.04253,-0.07984 z m 0.537866,0.03606 c 0,-0.03578 -0.02614,-0.05538 -0.06404,-0.04802 -0.09639,0.0187 -0.109618,0.108472 -0.01598,0.108472 0.04719,0 0.08003,-0.0248 0.08003,-0.06045 z m -10.40028,-2.248701 c -0.03037,-0.03037 -0.0625,-0.03073 -0.113344,-0.0014 -0.06219,0.03614 -0.05695,0.04138 0.04241,0.0424 0.08266,7.06e-4 0.101854,-0.0103 0.07094,-0.04123 z m -0.160171,-0.06326 c 0.04779,-0.06093 0.04643,-0.06229 -0.01443,-0.0145 -0.06399,0.05019 -0.08434,0.08174 -0.05272,0.08174 0.0079,0 0.03823,-0.03027 0.06722,-0.06724 z"
       id="F-T28"
       style="stroke-width:0.352778" />
  </g>
</svg>
