<?xml version="1.0" encoding="UTF-8" standalone="no"?>
<!-- Created with Inkscape (http://www.inkscape.org/) -->

<svg
   width="16.308609mm"
   height="8.6879702mm"
   viewBox="0 0 16.308609 8.6879702"
   version="1.1"
   id="svg1371"
   sodipodi:docname="inkporter-svg-u5xdutej.svg"
   xmlns:inkscape="http://www.inkscape.org/namespaces/inkscape"
   xmlns:sodipodi="http://sodipodi.sourceforge.net/DTD/sodipodi-0.dtd"
   xmlns="http://www.w3.org/2000/svg"
   xmlns:svg="http://www.w3.org/2000/svg">
  <sodipodi:namedview
     id="namedview1373"
     pagecolor="#ffffff"
     bordercolor="#666666"
     borderopacity="1.0"
     inkscape:pageshadow="2"
     inkscape:pageopacity="0.0"
     inkscape:pagecheckerboard="0"
     inkscape:document-units="mm"
     showgrid="false"
     inkscape:zoom="0.90583672"
     inkscape:cx="126.95445"
     inkscape:cy="337.25725"
     inkscape:window-width="1920"
     inkscape:window-height="1017"
     inkscape:window-x="-8"
     inkscape:window-y="-8"
     inkscape:window-maximized="1"
     inkscape:current-layer="layer1" />
  <defs
     id="defs1368" />
  <g
     inkscape:label="Layer 1"
     inkscape:groupmode="layer"
     id="layer1"
     transform="translate(-68.372482,-149.29403)">
    <path
       d="m 72.852305,157.9616 c 0,-0.012 0.02222,-0.0216 0.04897,-0.0214 0.03955,2.1e-4 0.04265,0.004 0.01658,0.0214 -0.04216,0.0272 -0.06523,0.0272 -0.06523,0 z m 8.260751,-0.0584 c 0.01587,-0.006 0.03457,-0.005 0.04166,0.002 0.0074,0.007 -0.0056,0.0124 -0.02822,0.0114 -0.0254,-10e-4 -0.03069,-0.006 -0.01305,-0.0132 z m -9.228632,-0.0444 c -0.02399,-0.006 -0.04957,-0.0207 -0.05701,-0.0326 -0.0088,-0.0141 -0.02787,-0.0139 -0.05468,3e-4 -0.02258,0.0121 -0.148661,0.0215 -0.28007,0.0208 l -0.238937,-10e-4 -0.06664,-0.0702 c -0.03665,-0.0386 -0.08851,-0.0771 -0.115288,-0.0856 -0.05581,-0.0177 -0.187255,-0.13926 -0.169651,-0.15687 0.0063,-0.006 -0.04516,-0.0411 -0.114759,-0.077 -0.09839,-0.0507 -0.124177,-0.0742 -0.115993,-0.1055 0.0078,-0.0302 -0.0046,-0.044 -0.05158,-0.0553 -0.08943,-0.0218 -0.136525,-0.0594 -0.177906,-0.14232 -0.02611,-0.052 -0.05362,-0.0749 -0.09638,-0.0798 -0.03891,-0.004 -0.08463,-0.0376 -0.130175,-0.0943 -0.03863,-0.0481 -0.102411,-0.10083 -0.141746,-0.11726 -0.0393,-0.0164 -0.08816,-0.059 -0.108585,-0.0945 -0.02046,-0.0356 -0.07645,-0.0824 -0.12453,-0.10421 -0.05108,-0.0231 -0.109362,-0.0735 -0.140053,-0.12113 -0.02893,-0.0449 -0.06812,-0.0816 -0.08703,-0.0816 -0.0575,-1e-4 -0.180692,-0.0862 -0.168592,-0.11778 0.01376,-0.0363 -0.02575,-0.0779 -0.07433,-0.0779 -0.02011,0 -0.08876,-0.0489 -0.152506,-0.10876 -0.06371,-0.0598 -0.125025,-0.10874 -0.136172,-0.10874 -0.01729,0 -0.07236,-0.0482 -0.186726,-0.16312 -0.07391,-0.0743 -0.153423,-0.18461 -0.153423,-0.2129 0,-0.0232 -0.01376,-0.0295 -0.04692,-0.0209 -0.04191,0.011 -0.04558,0.006 -0.03422,-0.051 0.0074,-0.0365 0,-0.0862 -0.01764,-0.11761 -0.01658,-0.0299 -0.03069,-0.0749 -0.03105,-0.1 0,-0.0251 -0.01976,-0.0631 -0.04378,-0.0845 -0.02364,-0.0214 -0.03669,-0.0491 -0.02893,-0.0615 0.02364,-0.038 0.0134,-0.27763 -0.01235,-0.30373 -0.03034,-0.0303 -0.0321,-0.0811 -0.0035,-0.0811 0.01199,0 0.02187,-0.0239 0.02187,-0.0531 0,-0.0292 -0.01023,-0.0591 -0.02187,-0.0665 -0.01199,-0.007 -0.02187,-0.0232 -0.02187,-0.0352 0,-0.012 0.01129,-0.0148 0.0254,-0.006 0.01376,0.008 0.03768,-0.002 0.05309,-0.0229 0.02187,-0.03 0.02222,-0.0475 0.0035,-0.0807 -0.02117,-0.0345 -0.0194,-0.046 0.0088,-0.0621 0.01905,-0.0109 0.03556,-0.0486 0.03655,-0.0838 0.0035,-0.051 -0.01058,-0.0693 -0.06135,-0.0902 -0.101,-0.0418 -0.171979,-0.11866 -0.15822,-0.17126 0.0071,-0.0264 0.0035,-0.0459 -0.01235,-0.0459 -0.01305,0 -0.02434,-0.0105 -0.02434,-0.0232 0,-0.0128 0.01729,-0.0181 0.03806,-0.0118 0.0459,0.0137 0.09169,-0.0235 0.230752,-0.18763 0.0581,-0.0686 0.141323,-0.14659 0.184856,-0.17328 0.04357,-0.0267 0.103575,-0.0709 0.13335,-0.0982 0.02999,-0.0273 0.07624,-0.0497 0.103258,-0.0497 0.02716,0 0.04918,-0.009 0.04918,-0.0196 0,-0.0241 0.121885,-0.0687 0.139559,-0.0511 0.0071,0.007 0.0127,-0.004 0.0127,-0.0235 0,-0.0199 -0.01446,-0.0362 -0.03246,-0.0362 -0.03919,0 -0.04424,-0.0424 -0.0053,-0.0461 0.01517,-10e-4 0.03351,-0.002 0.04149,-7e-4 0.0078,0.001 0.05436,-0.0345 0.1034,-0.079 l 0.08911,-0.0809 0.0035,-0.42459 c 0,-0.23351 0,-0.43415 -0.0035,-0.44586 -0.01623,-0.0812 0.0046,-0.13709 0.05528,-0.14984 0.02999,-0.008 0.0544,-0.0269 0.0544,-0.0432 0,-0.0562 0.06138,-0.0871 0.12005,-0.0604 0.05203,0.0237 0.05334,0.03 0.04826,0.23623 l -0.0049,0.21184 -0.07031,0.0202 c -0.05648,0.0162 -0.06826,0.0291 -0.05969,0.066 0.0056,0.0252 0.01446,0.17313 0.01905,0.32864 0.0081,0.2675 0.02117,0.35672 0.05334,0.36053 0.0078,0.001 0.03351,0.005 0.05747,0.0102 0.02399,0.005 0.09246,0.0127 0.152259,0.0178 0.0598,0.005 0.123402,0.0151 0.141358,0.0222 0.03764,0.0149 0.1028,0.0218 0.157692,0.0168 0.02575,-0.002 0.03817,-0.0222 0.03842,-0.0633 0,-0.0329 0.0099,-0.0745 0.02117,-0.0924 0.02857,-0.0448 0.09151,-0.004 0.102235,0.0659 0.0046,0.029 0.01623,0.0611 0.02646,0.0713 0.0314,0.0314 0.170674,0.0544 0.345723,0.0572 0.09211,0.001 0.182103,0.004 0.200024,0.005 0.07737,0.007 0.105058,-0.008 0.129858,-0.0677 0.03175,-0.0764 0.06495,-0.092 0.146226,-0.0688 0.03351,0.01 0.49657,0.0164 1.028912,0.0151 0.952465,-0.002 0.969469,-0.003 1.068458,-0.0505 0.05535,-0.0266 0.105586,-0.0674 0.111725,-0.0908 0.0074,-0.0266 0.04381,-0.0524 0.09839,-0.0687 0.08431,-0.0252 0.13141,-0.0776 0.143369,-0.15917 0.0035,-0.0214 0.0187,-0.0466 0.03387,-0.0562 0.01552,-0.009 0.0314,-0.0503 0.03528,-0.0907 0.0039,-0.0404 0.0078,-0.079 0.0088,-0.0857 0,-0.007 0.04053,-0.0343 0.08837,-0.0612 0.0695,-0.039 0.08703,-0.0613 0.08703,-0.11042 0,-0.0346 0.01411,-0.067 0.03246,-0.074 0.01764,-0.007 0.03245,-0.0335 0.03245,-0.059 0,-0.0256 0.02469,-0.0657 0.05436,-0.0893 0.03493,-0.0274 0.0544,-0.0646 0.0544,-0.10377 0,-0.13931 0.170392,-0.15523 0.307516,-0.0288 0.05429,0.0501 0.06096,0.0512 0.121215,0.02 0.03493,-0.0181 0.07736,-0.0493 0.09394,-0.0693 0.01658,-0.02 0.05334,-0.0451 0.08167,-0.0559 0.04466,-0.017 0.04953,-0.029 0.03637,-0.0902 -0.0194,-0.0925 -0.02716,-0.1032 -0.07169,-0.1032 -0.02046,0 -0.05412,-0.0195 -0.07458,-0.0435 -0.02928,-0.0344 -0.06421,-0.0435 -0.165347,-0.0435 -0.108267,0 -0.133068,0.007 -0.160231,0.0484 -0.02858,0.0433 -0.03835,0.0456 -0.0913,0.0215 -0.04893,-0.0223 -0.05712,-0.0373 -0.04748,-0.0865 0.0063,-0.0327 0.01446,-0.0931 0.01799,-0.13423 0.0056,-0.0692 0,-0.0761 -0.06981,-0.0932 -0.04187,-0.0102 -0.09793,-0.0294 -0.124566,-0.0429 -0.04509,-0.0227 -0.04583,-0.0264 -0.01094,-0.0529 0.02046,-0.0157 0.07507,-0.0288 0.120932,-0.0292 0.0568,-3e-4 0.0805,-0.009 0.07429,-0.0279 -0.0071,-0.0207 -0.105445,-0.026 -0.41215,-0.0222 -0.360962,0.004 -0.406682,0.001 -0.437656,-0.0333 -0.0314,-0.0346 -0.07969,-0.0378 -0.49777,-0.0336 -0.25467,0.003 -0.51689,-0.004 -0.582683,-0.0149 -0.136313,-0.0224 -1.987797,-0.0312 -2.057541,-0.01 -0.06234,0.0192 -0.114794,-0.0367 -0.101212,-0.10787 0.0056,-0.0307 0,-0.0681 -0.01199,-0.0832 -0.01623,-0.0197 -0.01235,-0.0409 0.01341,-0.0748 0.03634,-0.0472 0.0418,-0.0475 1.058792,-0.0608 0.562187,-0.007 1.061755,-0.0222 1.110051,-0.0328 0.04829,-0.0107 0.296121,-0.0214 0.550686,-0.0239 0.408693,-0.004 0.468736,-0.009 0.512727,-0.0436 0.04512,-0.0355 0.108197,-0.0394 0.67564,-0.0418 0.344241,-0.001 0.63948,-0.008 0.656096,-0.0142 0.02328,-0.009 0.02469,-0.0186 0.0049,-0.0417 -0.0194,-0.0239 -0.01623,-0.0301 0.01799,-0.0301 0.04261,0 0.288642,-0.26835 0.288642,-0.31483 0,-0.0124 0.02858,-0.0353 0.06399,-0.0509 0.05101,-0.0226 0.06537,-0.0441 0.0707,-0.10575 0.0063,-0.0713 0.01552,-0.0805 0.115394,-0.1165 0.05983,-0.0215 0.165029,-0.0549 0.233821,-0.0742 0.109043,-0.0306 0.125059,-0.0419 0.125059,-0.0888 0,-0.0296 0.0071,-0.0547 0.01623,-0.0559 0.06685,-0.009 0.391654,-0.0211 0.513574,-0.0194 0.112995,0.001 0.159385,-0.007 0.190818,-0.0355 0.03909,-0.0354 0.04826,-0.0354 0.157056,-0.001 0.14792,0.0466 0.172685,0.0458 0.220557,-0.007 0.02187,-0.0239 0.05253,-0.0435 0.06861,-0.0435 0.03637,0 0.03725,-0.0508 0.0035,-0.14687 -0.02505,-0.0685 -0.02258,-0.0768 0.02716,-0.11449 0.04466,-0.0337 0.05387,-0.0591 0.05387,-0.14883 0,-0.0595 0.0081,-0.11633 0.01799,-0.12629 0.01023,-0.01 0.07564,-0.0181 0.146014,-0.0181 0.155223,0 0.197803,0.0341 0.207222,0.16618 0.0039,0.0558 0.02117,0.10418 0.04279,0.11995 0.02893,0.0213 0.03316,0.0472 0.02117,0.13385 l -0.01482,0.10742 0.07239,0.0124 c 0.0822,0.0142 0.533506,-3e-4 0.562116,-0.018 0.01058,-0.006 0.03789,0.009 0.06135,0.0341 0.03884,0.0417 0.05831,0.0446 0.22419,0.0326 0.09991,-0.007 0.288714,-0.0185 0.419559,-0.0249 0.186161,-0.009 0.243593,-0.0195 0.264054,-0.0475 0.02187,-0.0296 0.0357,-0.0314 0.08153,-0.0105 0.0816,0.0372 0.474098,0.0397 0.532201,0.004 0.03694,-0.0231 0.05242,-0.0237 0.07348,-0.003 0.01517,0.0149 0.08255,0.0266 0.154199,0.0266 0.07017,0 0.145239,0.009 0.166759,0.021 0.02611,0.014 0.0623,0.0122 0.109043,-0.005 0.06057,-0.0229 0.07366,-0.0213 0.09775,0.0117 0.03732,0.051 0.164042,0.0494 0.255623,-0.003 0.07257,-0.0418 0.147355,-0.0342 0.17974,0.0182 0.01023,0.0165 0.02716,0.0164 0.05891,-3e-4 0.0321,-0.0172 0.05115,-0.0172 0.0683,-6e-5 0.01305,0.0131 0.04607,0.0238 0.07331,0.0238 0.07345,0 0.109008,0.077 0.125553,0.27168 0.0092,0.10767 0.02752,0.18784 0.04808,0.21069 0.0187,0.0203 0.02575,0.0487 0.01729,0.0631 -0.0254,0.0414 -0.01623,0.13767 0.0254,0.25189 0.02081,0.0579 0.03863,0.14926 0.03958,0.20308 l 0.0035,0.0979 0.201153,0.11838 c -0.134761,0.001 -0.168557,0.008 -0.168557,0.0339 0,0.018 0.01023,0.0326 0.02222,0.0326 0.01235,0 0.02117,0.0318 0.01976,0.0707 -0.0046,0.12233 0.01905,0.29337 0.0472,0.33828 0.03732,0.0598 0,0.18623 -0.0575,0.19627 -0.02364,0.004 -0.05496,0.0231 -0.06992,0.0424 -0.01517,0.0192 -0.02716,0.0244 -0.02716,0.0116 0,-0.0365 -0.08565,-0.0499 -0.145168,-0.0228 -0.03895,0.0177 -0.06424,0.018 -0.09169,0.001 -0.02469,-0.0152 -0.0508,-0.0164 -0.07422,-0.003 -0.02364,0.0132 -0.05253,0.0116 -0.08234,-0.004 -0.02752,-0.0147 -0.09087,-0.0194 -0.157973,-0.0117 -0.148061,0.0171 -0.183762,0.0171 -0.280706,2.2e-4 -0.102517,-0.0178 -0.190112,0.0327 -0.190112,0.10948 0,0.0289 0.01023,0.0586 0.02187,0.066 0.01199,0.007 0.02187,0.0459 0.02187,0.0856 0,0.087 0.05168,0.1397 0.105057,0.10706 0.02223,-0.0138 0.06311,-0.0151 0.106962,-0.004 0.05433,0.0144 0.0707,0.0305 0.0707,0.0697 0,0.0393 -0.01517,0.054 -0.06498,0.064 -0.03577,0.007 -0.07825,0.008 -0.09444,0.002 -0.05768,-0.0221 -0.07994,0.0409 -0.0471,0.13306 0.01658,0.0473 0.03104,0.11595 0.03175,0.15254 0,0.0666 0.052,0.16153 0.07465,0.13889 0.0067,-0.007 0.02787,-0.0734 0.04695,-0.14848 0.0194,-0.0751 0.06357,-0.20367 0.09857,-0.28582 0.03493,-0.0821 0.0635,-0.16422 0.0635,-0.1824 0,-0.0605 0.07514,-0.0806 0.155328,-0.0416 0.04022,0.0196 0.07772,0.0394 0.0834,0.0443 0.0056,0.005 0.0078,0.0743 0.0046,0.15433 l -0.0053,0.14556 0.05454,-0.087 c 0.02999,-0.0479 0.05486,-0.0982 0.05521,-0.11186 0,-0.0136 0.01517,-0.0304 0.03281,-0.0371 0.03281,-0.0126 0.159561,0.0217 0.19364,0.0524 0.02399,0.0215 -0.02046,0.26416 -0.08505,0.46631 -0.02681,0.0837 -0.05546,0.18405 -0.06371,0.22293 -0.01446,0.0675 -0.01199,0.0707 0.05059,0.0707 0.03616,0 0.07105,0.009 0.07751,0.0191 0.0063,0.0105 0.09758,0.0453 0.202459,0.0774 0.104881,0.0321 0.206622,0.0668 0.22606,0.0773 0.01976,0.0105 0.07098,0.0257 0.114406,0.0339 0.04346,0.008 0.08442,0.0235 0.09098,0.0341 0.0067,0.0106 0.03493,0.0193 0.06325,0.0193 0.03941,0 0.05475,-0.0152 0.06572,-0.0652 0.01199,-0.0545 0.02505,-0.0652 0.07853,-0.0652 0.07486,0 0.09493,0.0353 0.06491,0.11419 -0.01552,0.0403 -0.01376,0.0626 0.0046,0.0782 0.04593,0.0381 0.210856,0.0863 0.255482,0.0746 0.0254,-0.007 0.07712,0.0113 0.125307,0.0432 0.07228,0.0478 0.08728,0.0508 0.123437,0.0244 0.02258,-0.0165 0.06368,-0.0301 0.0913,-0.0301 0.07662,0 0.06749,0.0947 -0.01517,0.15569 -0.07944,0.0587 -0.08167,0.0786 -0.01058,0.0964 0.02999,0.008 0.05436,0.0224 0.05436,0.0331 0,0.0106 0.01023,0.0194 0.02187,0.0194 0.012,0 0.02187,-0.019 0.02187,-0.0422 0,-0.0232 0.0095,-0.048 0.02081,-0.0551 0.01129,-0.007 0.01552,-0.0272 0.0088,-0.0448 -0.0067,-0.0176 -0.0035,-0.0319 0.0085,-0.0319 0.01129,0 0.06174,-0.0392 0.112078,-0.0871 0.163018,-0.15511 0.236678,-0.18027 0.568043,-0.19422 0.286067,-0.012 0.293793,-0.0136 0.300707,-0.0626 0.0088,-0.0605 0.05782,-0.084 0.100895,-0.0482 0.01729,0.0143 0.05038,0.0199 0.07369,0.0126 0.02963,-0.009 0.05532,0.003 0.08569,0.0417 0.03605,0.0459 0.06163,0.0551 0.151765,0.0551 0.115993,0 0.180269,0.0419 0.141958,0.0924 -0.0187,0.0248 -0.07172,0.18718 -0.07172,0.22002 0,0.008 0.0321,0.0138 0.0713,0.0138 0.114688,0 0.223732,0.14415 0.245992,0.32524 0.01058,0.0894 0.03175,0.13989 0.07987,0.19517 0.115782,0.13273 0.15868,0.31095 0.100824,0.41901 -0.0314,0.0586 0.0042,0.082 0.12573,0.0825 0.143404,3.1e-4 0.160796,0.0325 0.145874,0.26796 -0.0071,0.11 -0.01623,0.20387 -0.02081,0.20861 -0.02258,0.0234 -0.236855,0.0419 -0.271428,0.0234 -0.03104,-0.0166 -0.06092,7.1e-4 -0.151271,0.0878 -0.06191,0.0597 -0.119027,0.10854 -0.126894,0.10856 -0.0078,1e-5 -0.01411,0.0406 -0.01411,0.0902 0,0.0719 0.0099,0.0945 0.04784,0.11156 0.05736,0.0256 0.08082,0.11551 0.06092,0.23337 -0.01058,0.0644 -0.0056,0.095 0.01976,0.12071 0.04452,0.0445 0.04519,0.19116 0,0.22781 -0.0254,0.021 -0.02999,0.0508 -0.01905,0.12258 0.01658,0.11171 -0.0194,0.21709 -0.08149,0.23675 -0.03387,0.0107 -0.03969,0.0261 -0.02893,0.0753 0.01764,0.0799 -0.03598,0.18423 -0.113771,0.2215 -0.03493,0.0168 -0.05962,0.0463 -0.05987,0.0719 0,0.07 -0.06611,0.14281 -0.155998,0.17365 -0.04953,0.017 -0.08682,0.0451 -0.09148,0.0688 -0.0088,0.0454 -0.05913,0.0982 -0.129505,0.13586 -0.03492,0.0186 -0.05941,0.0191 -0.09186,0.002 -0.03648,-0.0195 -0.05616,-0.0138 -0.110455,0.0319 -0.06145,0.0517 -0.116134,0.0654 -0.227012,0.057 -0.02469,-0.002 -0.06279,0.0166 -0.08491,0.0411 -0.03034,0.0334 -0.0671,0.0445 -0.147638,0.0445 -0.08502,0 -0.115534,0.0102 -0.146896,0.0489 -0.03175,0.0389 -0.06191,0.0489 -0.148061,0.0489 -0.07786,0 -0.121885,0.0122 -0.156422,0.0435 -0.03457,0.0312 -0.0786,0.0435 -0.156316,0.0435 -0.07419,0 -0.116205,0.011 -0.133738,0.0349 -0.0321,0.0438 -0.115146,0.0717 -0.196955,0.0661 -0.03457,-0.002 -0.07864,0.009 -0.0979,0.0262 -0.0635,0.0554 -0.191453,0.0902 -0.226096,0.0615 -0.02469,-0.0204 -0.04293,-0.0144 -0.08957,0.0288 -0.04198,0.0389 -0.08311,0.0544 -0.144533,0.0544 -0.04724,0 -0.08587,-0.01 -0.08587,-0.0217 0,-0.0283 -0.0804,-0.0283 -0.0979,0 -0.01834,0.03 -0.176389,0.0274 -0.22613,-0.004 -0.0321,-0.02 -0.0563,-0.0181 -0.113948,0.009 -0.07257,0.0343 -0.192793,0.0293 -0.192793,-0.008 0,-0.0278 -0.07391,-0.0236 -0.103399,0.006 -0.0321,0.0322 -0.151694,0.0289 -0.216782,-0.006 -0.03877,-0.0207 -0.05637,-0.021 -0.07609,-0.001 -0.03316,0.0333 -0.218158,0.0333 -0.251389,0 -0.01905,-0.0191 -0.03835,-0.0195 -0.07504,-0.002 -0.08855,0.0431 -0.177483,0.0476 -0.218193,0.011 -0.02999,-0.0269 -0.04879,-0.0293 -0.08696,-0.0108 -0.09627,0.0467 -0.171379,0.0518 -0.226871,0.0154 -0.04914,-0.0322 -0.05729,-0.0323 -0.09183,-0.001 -0.04918,0.0445 -0.162807,0.0439 -0.231564,-10e-4 -0.05013,-0.0328 -0.05715,-0.0328 -0.09341,0 -0.04999,0.0452 -0.153141,0.0455 -0.21717,7e-4 -0.04561,-0.032 -0.05285,-0.0318 -0.08968,0.001 -0.03034,0.0273 -0.06043,0.0325 -0.123684,0.0211 -0.04607,-0.008 -0.09469,-0.0237 -0.108021,-0.0342 -0.01446,-0.0115 -0.04921,-0.006 -0.087,0.0135 -0.08121,0.0424 -0.160231,0.0417 -0.222356,-0.002 -0.04575,-0.032 -0.05292,-0.0318 -0.09073,0.002 -0.03175,0.0286 -0.06258,0.0339 -0.13462,0.023 -0.0514,-0.008 -0.122837,-0.0134 -0.158785,-0.0125 -0.22218,0.006 -0.256646,0.003 -0.272027,-0.022 -0.01305,-0.0212 -0.02822,-0.0194 -0.06756,0.008 -0.06244,0.0437 -0.16824,0.0448 -0.224437,0.002 -0.03704,-0.0281 -0.04833,-0.0277 -0.09483,0.003 -0.03754,0.0246 -0.07867,0.0307 -0.142805,0.0211 -0.115358,-0.0173 -0.15875,-0.0173 -0.25721,-2e-4 -0.05514,0.01 -0.09472,0.004 -0.126788,-0.0187 -0.04029,-0.0282 -0.0545,-0.0285 -0.104705,-0.002 -0.07712,0.0402 -0.167075,0.0385 -0.232621,-0.004 -0.04907,-0.0321 -0.05447,-0.0321 -0.06682,0 -0.01623,0.0428 -0.16256,0.048 -0.226554,0.008 -0.03422,-0.0215 -0.05204,-0.0215 -0.08643,0 -0.05281,0.033 -0.162101,0.035 -0.219957,0.004 -0.03104,-0.0165 -0.06396,-0.0152 -0.118392,0.004 -0.06047,0.0219 -0.09585,0.022 -0.176777,2.2e-4 -0.06999,-0.0187 -0.108126,-0.0201 -0.123719,-0.004 -0.03069,0.0305 -0.194769,0.0288 -0.225848,-0.002 -0.0187,-0.0187 -0.04131,-0.0181 -0.09088,0.002 -0.03948,0.0164 -0.09892,0.0216 -0.148026,0.0132 -0.09102,-0.0157 -0.07556,-0.0156 -0.408269,-0.002 -0.157516,0.006 -0.256434,0.001 -0.28949,-0.0156 -0.03856,-0.0194 -0.06015,-0.0192 -0.09218,10e-4 -0.05225,0.0326 -0.183056,0.0339 -0.24197,0.002 -0.0321,-0.0171 -0.05098,-0.0171 -0.06816,0 -0.01305,0.013 -0.06653,0.0237 -0.11871,0.0237 -0.05221,0 -0.114935,-0.0106 -0.139383,-0.0237 -0.0321,-0.0171 -0.05094,-0.0171 -0.06816,0 -0.03069,0.0307 -0.15741,0.0306 -0.214983,-2.1e-4 -0.0314,-0.0167 -0.05881,-0.0171 -0.09098,-0.002 -0.08354,0.0404 -0.172474,0.044 -0.225461,0.009 -0.0387,-0.0253 -0.05754,-0.0274 -0.07634,-0.009 -0.03175,0.0317 -0.200836,0.0325 -0.259292,0.001 -0.0321,-0.0172 -0.05098,-0.0172 -0.06816,0 -0.02858,0.0289 -0.209268,0.0309 -0.253577,0.003 -0.01764,-0.0111 -0.04202,-0.0121 -0.05436,-0.002 -0.03175,0.0254 -0.144956,0.0422 -0.196497,0.029 z m 0.07895,-0.23985 c 0.01376,-0.0817 0.0071,-0.1299 -0.01834,-0.12034 -0.03281,0.0126 -0.03866,0.13665 -0.0063,0.13665 0.01199,0 0.02293,-0.007 0.02469,-0.0163 z m 0.316301,-0.0843 c -0.0088,-0.0536 -0.0039,-0.0734 0.01834,-0.0734 0.01658,0 0.0357,-0.009 0.04279,-0.0208 0.0074,-0.012 -0.01729,-0.0181 -0.05853,-0.0144 -0.08333,0.007 -0.08837,0.0185 -0.05884,0.12823 0.02716,0.10117 0.07352,0.085 0.05648,-0.0198 z m 0.33341,0.0802 c 0,-0.0257 -0.0424,-0.0531 -0.05803,-0.0375 -0.01552,0.0156 0.01164,0.058 0.03757,0.058 0.01094,0 0.02046,-0.009 0.02046,-0.0205 z m 2.196818,-0.0406 c 7e-5,-0.0202 0.01482,-0.0648 0.03281,-0.0991 0.03926,-0.0753 0.03951,-0.0791 0.006,-0.0791 -0.01446,0 -0.0472,0.0262 -0.07278,0.0582 -0.03859,0.0484 -0.04258,0.0683 -0.02399,0.11827 0.02399,0.0632 0.05757,0.0642 0.05782,0.002 z m 1.575258,-0.0531 c 0.01305,-0.0903 0.01023,-0.10363 -0.02469,-0.10583 -0.03641,-0.002 -0.03644,-0.003 -0.0035,-0.0125 0.02081,-0.005 0.03806,-0.0245 0.03806,-0.0423 0,-0.0178 0.01058,-0.0259 0.02328,-0.018 0.0127,0.008 0.01799,0.0281 0.01129,0.0448 -0.01305,0.0341 0.0053,0.0387 0.04787,0.0118 0.02293,-0.0145 0.02293,-0.03 0,-0.0812 -0.03679,-0.0854 -0.03493,-0.084 -0.07232,-0.0528 -0.02787,0.0232 -0.03316,0.0202 -0.03316,-0.0186 0,-0.0266 0.01376,-0.0462 0.03246,-0.0462 0.03069,0 0.0412,-0.0829 0.04022,-0.30994 0,-0.0209 0.01023,-0.0383 0.02328,-0.0386 0.01305,-2.1e-4 0.04156,-0.0397 0.06357,-0.0875 0.02222,-0.0488 0.06784,-0.10128 0.103294,-0.11962 0.03493,-0.018 0.06325,-0.0407 0.06325,-0.0504 0,-0.0203 0.120756,-0.0578 0.253471,-0.0787 0.100823,-0.0159 0.261972,0.0287 0.347874,0.0962 0.03034,0.0238 0.07179,0.0362 0.10033,0.03 0.03736,-0.008 0.04142,-0.006 0.01764,0.0113 -0.02575,0.0183 -0.02646,0.0277 -0.0035,0.0568 0.02505,0.03 0.03387,0.0306 0.06385,0.004 0.07239,-0.063 0.219851,-0.14435 0.214524,-0.11836 -0.01058,0.0532 0.09433,0.0407 0.228035,-0.0272 0.181399,-0.0921 0.205635,-0.12762 0.115006,-0.1689 -0.04339,-0.0198 -0.05726,-0.0181 -0.07221,0.009 -0.01552,0.0275 -0.02858,0.0287 -0.07616,0.007 -0.03965,-0.0181 -0.06622,-0.0193 -0.08541,-0.004 -0.01623,0.0128 -0.04628,0.0148 -0.0713,0.005 -0.06537,-0.0264 -0.259821,-0.024 -0.287303,0.004 -0.01764,0.0176 -0.04452,0.0174 -0.100188,-0.001 -0.04816,-0.0159 -0.118781,-0.0191 -0.1923,-0.009 -0.06389,0.009 -0.126012,0.0133 -0.137971,0.009 -0.06477,-0.0203 -0.920256,-0.02 -0.971338,2.2e-4 -0.04008,0.0159 -0.07073,0.0161 -0.09994,3e-4 -0.02893,-0.0156 -0.04918,-0.0155 -0.06488,2.1e-4 -0.01341,0.0136 -0.03895,0.0154 -0.06315,0.004 -0.02222,-0.0101 -0.133386,-0.0171 -0.247015,-0.0156 -0.563633,0.007 -0.933168,0.0206 -0.946538,0.034 -0.02364,0.0235 0.01058,0.0629 0.08467,0.0976 0.03736,0.0175 0.09737,0.048 0.133209,0.0676 0.03591,0.0196 0.109996,0.037 0.164677,0.0385 0.05468,0.001 0.129822,0.0207 0.16697,0.0426 0.07412,0.0438 0.06706,0.0463 0.227435,-0.0813 0.0557,-0.0444 0.11677,-0.0656 0.241689,-0.0842 0.0919,-0.0137 0.16711,-0.0334 0.16711,-0.044 0,-0.0105 0.0095,-0.0191 0.02117,-0.0191 0.01129,0 0.01623,0.0127 0.01058,0.0282 -0.0067,0.0172 0.02293,0.0431 0.07613,0.0665 0.215088,0.0949 0.34932,0.29928 0.34932,0.53195 0,0.0795 -0.01446,0.16381 -0.03641,0.20941 -0.03602,0.0755 -0.03577,0.0769 0.02187,0.1302 0.0321,0.0296 0.05817,0.0635 0.05817,0.0753 0,0.0316 0.04346,0.14037 0.05214,0.13053 0.0042,-0.005 0.01411,-0.0549 0.02222,-0.11176 z m -0.09641,-0.64705 c 0,-0.012 0.01023,-0.0217 0.02187,-0.0217 0.01199,0 0.02187,0.01 0.02187,0.0217 0,0.012 -0.01023,0.0217 -0.02187,0.0217 -0.01199,0 -0.02187,-0.01 -0.02187,-0.0217 z m -1.413722,-0.32624 c 0,-0.012 0.01058,-0.0217 0.02293,-0.0217 0.0127,0 0.01693,0.01 0.0099,0.0217 -0.0074,0.012 -0.01764,0.0217 -0.02293,0.0217 -0.0049,0 -0.0099,-0.01 -0.0099,-0.0217 z m 2.883923,0.004 c -0.0053,-0.009 -0.0035,-0.0286 0.0067,-0.0436 0.01305,-0.0213 0.02223,-0.0204 0.04262,0.004 0.02011,0.0245 0.01905,0.0338 -0.0067,0.0436 -0.01764,0.007 -0.03704,0.005 -0.04262,-0.004 z m -3.01445,-0.047 c 0,-0.012 0.01023,-0.0217 0.02187,-0.0217 0.01199,0 0.02187,0.01 0.02187,0.0217 0,0.012 -0.01023,0.0217 -0.02187,0.0217 -0.01199,0 -0.02187,-0.01 -0.02187,-0.0217 z m 2.653488,-0.01 c 0,-0.0186 0.01023,-0.0339 0.02187,-0.0339 0.01199,0 0.02187,0.009 0.02187,0.0205 0,0.0112 -0.01023,0.0265 -0.02187,0.0339 -0.01199,0.007 -0.02187,-0.002 -0.02187,-0.0205 z m 0.129822,-0.002 c -0.01517,-0.0181 -0.02223,-0.0378 -0.01623,-0.0438 0.01552,-0.0154 0.08234,0.0128 0.08234,0.0347 0,0.0359 -0.03912,0.0413 -0.0659,0.009 z m 0.118992,-0.001 c -0.04075,-0.0331 -0.04032,-0.0338 0.01235,-0.0221 0.02999,0.007 0.0617,0.0123 0.07073,0.0125 0.0092,2e-4 0.01658,0.0101 0.01658,0.022 0,0.0327 -0.05147,0.0262 -0.09913,-0.0125 z m -2.811215,-0.0106 c 0.0049,-0.0157 0.02222,-0.0328 0.03807,-0.0381 0.01623,-0.005 0.02469,0.003 0.01905,0.019 -0.0049,0.0157 -0.02223,0.0328 -0.03807,0.0381 -0.01623,0.005 -0.02469,-0.003 -0.01905,-0.019 z m 1.235674,0.001 c 0,-0.012 0.01023,-0.0218 0.02293,-0.0218 0.0127,0 0.01693,0.01 0.0099,0.0218 -0.0074,0.012 -0.01764,0.0217 -0.02293,0.0217 -0.0049,0 -0.0099,-0.01 -0.0099,-0.0217 z m 1.881294,0 c -0.0074,-0.012 0.0035,-0.0218 0.02187,-0.0218 0.01905,0 0.02893,0.01 0.02187,0.0218 -0.0074,0.012 -0.01729,0.0217 -0.02187,0.0217 -0.0042,0 -0.01446,-0.01 -0.02187,-0.0217 z m -1.274375,1.09589 c -0.03175,-0.0381 -0.05179,-0.0232 -0.03351,0.0246 0.0071,0.0192 0.02364,0.0286 0.03634,0.0207 0.01587,-0.01 0.01482,-0.0239 -0.0035,-0.0454 z m 0.649111,7e-4 c -0.02046,-0.0207 -0.06234,0.0128 -0.04688,0.0378 0.0095,0.0148 0.02117,0.0145 0.03697,-0.001 0.01305,-0.0128 0.01729,-0.0293 0.01023,-0.0367 z m -3.765867,-0.051 c 0.01058,-0.066 0.02646,-0.0903 0.07098,-0.10697 0.08569,-0.0322 0.133315,-0.0231 0.143404,0.0274 0.02787,0.1402 0.03634,0.16494 0.05616,0.16494 0.03725,0 0.07087,-0.11515 0.04449,-0.15225 -0.06622,-0.093 -0.110702,-0.20243 -0.110702,-0.27229 0,-0.0466 -0.0088,-0.0728 -0.02187,-0.0648 -0.01199,0.007 -0.02187,0.004 -0.02187,-0.008 0,-0.012 0.01023,-0.0278 0.02187,-0.0352 0.02858,-0.0176 0.02822,-0.17832 0,-0.19597 -0.0314,-0.0192 -0.0046,-0.0546 0.03104,-0.0411 0.0447,0.0172 0.06075,-0.0528 0.01764,-0.076 -0.02046,-0.011 -0.108902,-0.0207 -0.196144,-0.0216 -0.08728,-0.001 -0.167923,-0.007 -0.179212,-0.0142 -0.05302,-0.0328 -0.05778,0.0212 -0.0099,0.10762 0.04279,0.0766 0.05408,0.13199 0.05983,0.29283 0.0063,0.17524 0.0035,0.19978 -0.03175,0.21071 -0.04561,0.0145 -0.05087,0.0595 -0.01058,0.0927 0.01552,0.0128 0.0418,0.0581 0.05842,0.10054 0.03923,0.1 0.06188,0.0976 0.07885,-0.008 z m 0.09564,-0.19396 c 0,-0.0101 0.0194,-0.0361 0.04346,-0.0577 0.04897,-0.0443 0.05736,-0.0201 0.01341,0.0381 -0.03105,0.0407 -0.05673,0.0497 -0.05673,0.0197 z m -0.107033,-0.10306 c 0,-0.0253 0.0064,-0.0305 0.01305,-0.0132 0.0064,0.0157 0.0056,0.0345 -0.0035,0.0417 -0.0071,0.007 -0.01235,-0.006 -0.01129,-0.0285 z m 0,-0.1305 c 0,-0.0253 0.0064,-0.0305 0.01305,-0.0132 0.0064,0.0157 0.0056,0.0345 -0.0035,0.0417 -0.0071,0.007 -0.01235,-0.006 -0.01129,-0.0285 z m 1.577446,0.44224 c 0.01305,-0.0389 0.03175,-0.0893 0.04149,-0.11196 0.01588,-0.0367 0.01058,-0.0396 -0.04568,-0.0263 -0.03493,0.008 -0.07606,0.0162 -0.09148,0.0178 -0.01729,0.002 -0.02223,0.0162 -0.01341,0.0372 0.0081,0.019 0.01976,0.0614 0.0254,0.0943 0.01341,0.0808 0.05461,0.0755 0.08375,-0.0109 z m 0.938812,0.0313 c 0.0049,-0.0159 -0.0046,-0.0207 -0.02575,-0.0126 -0.01905,0.007 -0.03457,0.0228 -0.03457,0.0345 0,0.0286 0.04946,0.0106 0.06033,-0.0218 z m 1.57092,-0.0245 c 0,-0.0352 0.01023,-0.07 0.02187,-0.0774 0.05228,-0.0323 0.01764,-0.072 -0.07066,-0.0812 -0.111937,-0.0117 -0.12058,-0.007 -0.07444,0.0444 0.0194,0.0218 0.04205,0.0708 0.04971,0.10888 0.01764,0.0886 0.07366,0.0926 0.07366,0.005 z m 0.326213,-0.009 c 0,-0.0756 -0.05024,-0.16582 -0.09239,-0.16601 -0.04667,-2e-4 -0.04981,0.05 -0.0053,0.0868 0.01764,0.0149 0.03246,0.0487 0.03246,0.0752 0,0.0265 0.0064,0.0543 0.01376,0.062 0.02399,0.0239 0.05129,-0.007 0.05129,-0.058 z m 0.948479,-0.0129 c 0.01623,-0.10072 0.07182,-0.15966 0.141358,-0.14955 0.03888,0.006 0.0551,0.0296 0.07613,0.11233 0.01446,0.0578 0.03281,0.11138 0.04057,0.11899 0.01905,0.0194 0.05426,-0.0412 0.05461,-0.0953 0,-0.0248 0.0187,-0.064 0.04103,-0.087 0.03679,-0.0379 0.03768,-0.0477 0.0095,-0.10389 -0.04011,-0.0791 -0.05186,-0.30665 -0.02081,-0.40559 0.01305,-0.0419 0.04198,-0.10304 0.06413,-0.13594 l 0.04039,-0.0598 -0.213572,7.1e-4 c -0.147355,3e-4 -0.225848,0.01 -0.253294,0.0308 -0.03806,0.0288 -0.03814,0.0326 -0.0035,0.0884 0.02963,0.0451 0.03898,0.10958 0.04166,0.28364 0.0035,0.12393 -0.0035,0.22108 -0.01164,0.21587 -0.02011,-0.0124 -0.08114,0.0566 -0.08696,0.0983 -0.0035,0.0179 -0.0035,0.0644 -0.0035,0.10332 0.0039,0.10479 0.06361,0.0935 0.08103,-0.0153 z m 0.184255,-0.20943 c 0,-0.0253 0.0063,-0.0305 0.01305,-0.0132 0.0063,0.0157 0.0053,0.0345 -0.0035,0.0417 -0.0071,0.007 -0.01199,-0.006 -0.01129,-0.0285 z m 1.07308,0.25969 c 0.0074,-0.0196 0.0088,-0.0406 0.0035,-0.0466 -0.01341,-0.0139 -0.07715,0.038 -0.07715,0.0632 0,0.0338 0.06015,0.0203 0.07433,-0.0166 z m 0.307199,-0.0241 c 0.0071,-0.0329 0.02223,-0.0779 0.03457,-0.1 0.02752,-0.0504 0.02963,-0.0491 -0.100683,-0.0639 -0.05983,-0.007 -0.09631,-0.007 -0.08114,-10e-4 0.03637,0.0148 0.09201,0.12384 0.09201,0.18026 0,0.0655 0.04064,0.0543 0.05528,-0.0152 z m 0.305964,-0.01 c -0.01834,-0.0921 -0.07098,-0.16969 -0.115041,-0.16969 -0.03245,0 -0.03245,0.003 0,0.0398 0.0194,0.0219 0.03602,0.0568 0.03602,0.0776 0,0.0514 0.03972,0.12191 0.06876,0.12191 0.01517,0 0.01905,-0.0254 0.01023,-0.0695 z m 0.896302,-0.11811 -0.0074,-0.0625 -0.02858,0.0506 c -0.01587,0.0278 -0.02258,0.0662 -0.01552,0.0852 0.02117,0.0546 0.0599,-0.001 0.05143,-0.0734 z m -9.631115,0.003 c 0.02223,-0.0265 0.02081,-0.0326 -0.0056,-0.0326 -0.01799,0 -0.03863,0.0147 -0.04547,0.0326 -0.0071,0.018 -0.0046,0.0326 0.0056,0.0326 0.01023,0 0.03069,-0.0147 0.04551,-0.0326 z m 9.932035,-0.1086 c -0.01623,-0.11668 0.0187,-0.16975 0.104634,-0.1597 0.04572,0.005 0.07451,0.029 0.107668,0.0885 0.06068,0.10877 0.08763,0.11042 0.09462,0.006 0.01058,-0.15523 0.02328,-0.18487 0.08075,-0.18487 0.05574,0 0.132539,0.067 0.153917,0.13433 0.0071,0.0218 0.02716,0.0397 0.04509,0.0397 0.02364,0 0.03069,-0.0194 0.02575,-0.0707 -0.0053,-0.0565 -0.01764,-0.0722 -0.06121,-0.0783 -0.02999,-0.004 -0.05927,-0.0145 -0.06523,-0.0229 -0.01658,-0.0232 -0.237244,-0.1544 -0.25968,-0.1544 -0.01058,0 -0.0719,-0.0629 -0.135608,-0.13987 -0.109679,-0.13242 -0.154834,-0.20626 -0.210397,-0.34405 -0.02046,-0.0514 -0.03648,-0.0598 -0.111901,-0.0598 -0.04826,0 -0.107209,0.0121 -0.130951,0.027 -0.03457,0.0216 -0.05228,0.0213 -0.08876,-0.001 -0.03775,-0.0236 -0.05182,-0.0234 -0.08156,0.001 -0.03778,0.0308 -0.425732,0.0359 -0.540738,0.007 -0.03104,-0.008 -0.08357,-0.003 -0.116487,0.0106 -0.04244,0.0176 -0.07239,0.0182 -0.102552,0.002 -0.02364,-0.0126 -0.04731,-0.0181 -0.05302,-0.0124 -0.01905,0.0194 0.03104,0.25981 0.06103,0.29146 0.02575,0.0273 0.03863,0.0218 0.09493,-0.0413 0.125448,-0.14054 0.418183,-0.21582 0.557213,-0.14331 0.03493,0.0183 0.07624,0.0332 0.09165,0.0333 0.04664,2e-4 0.198579,0.16562 0.243876,0.26539 0.03034,0.0665 0.04261,0.14222 0.04297,0.26176 0,0.15968 0.0035,0.16881 0.05327,0.18139 0.02893,0.007 0.07832,0.0519 0.109573,0.0991 0.06992,0.10564 0.108409,0.0908 0.09116,-0.0352 z m 0.11624,-0.35901 c 0,-0.012 0.01023,-0.0217 0.02187,-0.0217 0.01199,0 0.02187,0.01 0.02187,0.0217 0,0.012 -0.01023,0.0217 -0.02187,0.0217 -0.01199,0 -0.02187,-0.01 -0.02187,-0.0217 z m -0.315348,-0.10875 c -0.0074,-0.012 -0.0035,-0.0217 0.0099,-0.0217 0.0127,0 0.02293,0.01 0.02293,0.0217 0,0.012 -0.0042,0.0218 -0.0099,0.0218 -0.0049,0 -0.01588,-0.01 -0.02293,-0.0218 z m -0.902617,-0.35654 c 0,-0.005 0.01552,-0.0144 0.03387,-0.0215 0.0194,-0.007 0.02822,-0.004 0.02046,0.009 -0.0127,0.0207 -0.05422,0.0305 -0.05422,0.0129 z m -9.917783,0.6058 c 0,-0.21002 0.1397,-0.43496 0.317465,-0.51116 0.04978,-0.0213 0.144851,-0.0456 0.211243,-0.0539 0.103788,-0.0129 0.137407,-0.007 0.240454,0.0416 0.135572,0.0641 0.157903,0.0679 0.17339,0.0295 0.006,-0.0149 0.01164,0.005 0.0127,0.0442 0.0035,0.0781 0.05288,0.11558 0.0956,0.0702 0.0194,-0.0211 0.0194,-0.0296 -0.0035,-0.0373 -0.01517,-0.005 -0.02716,-0.0186 -0.02716,-0.0293 0,-0.0105 0.01588,-0.0132 0.03493,-0.006 0.02928,0.0112 0.03246,0.002 0.02046,-0.053 -0.0088,-0.0392 -0.0049,-0.0723 0.0085,-0.0807 0.0127,-0.008 0.02293,-0.0283 0.02293,-0.0456 0,-0.036 -0.09864,-0.0436 -0.119873,-0.009 -0.0074,0.0121 -0.02434,0.0157 -0.03665,0.008 -0.0127,-0.008 -0.273826,-0.0181 -0.58032,-0.0228 -0.306528,-0.005 -0.615985,-0.0113 -0.68774,-0.0148 -0.149119,-0.007 -0.250119,-0.0425 -0.250119,-0.0872 0,-0.0513 -0.112078,-0.10922 -0.201048,-0.10397 -0.06844,0.004 -0.08587,-0.004 -0.106469,-0.0492 -0.04625,-0.10155 -0.127493,-0.0967 -0.127493,0.008 0,0.0338 -0.01446,0.0895 -0.03246,0.12378 -0.03422,0.0656 -0.04237,0.11667 -0.0187,0.11667 0.0078,0 0.06738,-0.0261 0.132503,-0.0579 0.09853,-0.0482 0.121673,-0.0528 0.138536,-0.0272 0.02258,0.0343 0.0049,0.17165 -0.02575,0.20362 -0.02117,0.0218 -0.02822,0.099 -0.0088,0.099 0.0063,0 0.05006,-0.0245 0.09747,-0.0544 0.04734,-0.0299 0.105304,-0.0544 0.128799,-0.0544 0.04639,0 0.121285,0.0882 0.09144,0.10767 -0.02787,0.0181 -0.07839,0.17196 -0.06191,0.18843 0.0078,0.008 0.04833,-0.0114 0.08971,-0.043 0.08781,-0.067 0.114829,-0.0704 0.168875,-0.0214 0.0483,0.0437 0.04957,0.0708 0.0074,0.15182 -0.03316,0.0634 -0.04251,0.11667 -0.02046,0.11667 0.0067,0 0.07564,-0.0337 0.153353,-0.075 l 0.141252,-0.075 -0.01058,0.11786 c -0.006,0.0648 -0.02187,0.13791 -0.03493,0.16242 -0.03069,0.057 -0.0078,0.099 0.03457,0.0638 0.0194,-0.0161 0.03069,-0.068 0.03069,-0.14063 z m -0.652533,-0.75079 c 0,-0.0127 0.01023,-0.017 0.02187,-0.01 0.01199,0.007 0.02187,0.0177 0.02187,0.023 0,0.005 -0.01023,0.01 -0.02187,0.01 -0.01199,0 -0.02187,-0.0104 -0.02187,-0.023 z m 12.775248,0.48034 c 0.143333,-0.0235 0.282292,-0.087 0.291394,-0.1332 0.0035,-0.0168 -0.06237,-0.0984 -0.145874,-0.18124 l -0.151835,-0.15068 -0.02222,0.0583 c -0.02505,0.0655 -0.0774,0.0751 -0.133491,0.0243 -0.03493,-0.0315 -0.04166,-0.025 -0.09412,0.0896 -0.0314,0.068 -0.05659,0.13592 -0.05659,0.15095 0,0.015 -0.01446,0.0395 -0.03246,0.0544 -0.03969,0.0329 -0.04237,0.0794 -0.0056,0.0943 0.04597,0.0186 0.216323,0.0152 0.350767,-0.007 z m 0.11684,-0.10197 c 0.01482,-0.006 0.03941,-0.006 0.05436,0 0.01517,0.006 0.0035,0.011 -0.02716,0.011 -0.02999,0 -0.04212,-0.005 -0.02716,-0.011 z m -0.75558,-0.13506 c 0,-0.0195 0.02399,-0.0766 0.05271,-0.12702 0.02858,-0.0504 0.05898,-0.11248 0.06706,-0.13799 0.01587,-0.0494 0.01905,-0.0493 -0.370134,-0.009 -0.05034,0.005 -0.04699,0.0356 0.01482,0.13595 0.02928,0.0476 0.05592,0.0677 0.07983,0.0603 0.0194,-0.006 0.05052,-7e-4 0.06844,0.0122 0.02752,0.0198 0.02681,0.0215 -0.0046,0.0113 -0.05796,-0.0186 -0.06452,0.0186 -0.01446,0.0823 0.03591,0.0457 0.05172,0.0525 0.07581,0.0325 0.01658,-0.0139 0.03069,-0.0412 0.03069,-0.0606 z m -0.09902,-0.15647 c -0.02328,-0.0379 0.0035,-0.0459 0.03316,-0.01 0.01729,0.0207 0.0187,0.0332 0.0042,0.0332 -0.0127,0 -0.02963,-0.0105 -0.03747,-0.0232 z m -7.861546,-0.0203 c 0,-0.012 -0.02187,-0.0216 -0.0489,-0.0214 -0.03958,2.2e-4 -0.04272,0.004 -0.01623,0.0214 0.04216,0.0272 0.0653,0.0272 0.0653,0 z m 9.19748,-0.0748 c 0.01305,-0.0531 0.03422,-0.10263 0.04607,-0.11003 0.03718,-0.023 0.02399,-0.0761 -0.01905,-0.0761 -0.05316,0 -0.08481,-0.0399 -0.09543,-0.12015 -0.0067,-0.0503 -0.02081,-0.0662 -0.06378,-0.0713 -0.05073,-0.006 -0.05507,-3e-5 -0.05271,0.0732 0.0035,0.0797 -0.01341,0.0997 -0.104176,0.12822 -0.03842,0.0121 -0.03693,0.0178 0.02046,0.0777 0.03422,0.0355 0.07228,0.0646 0.08502,0.0647 0.0127,6e-5 0.04269,0.0293 0.06664,0.0652 0.0598,0.0895 0.08851,0.0819 0.117016,-0.0313 z m -5.411117,0.0548 c -0.01658,-0.0106 -0.04378,-0.0144 -0.0598,-0.008 -0.04597,0.0177 -0.03422,0.0283 0.03069,0.028 0.0435,-2e-4 0.05147,-0.006 0.02893,-0.0198 z m -8.548722,-0.18747 c 0.02081,-0.0252 0.02187,-0.0398 0.0035,-0.0584 -0.02893,-0.029 -0.03662,-0.0232 -0.0569,0.043 -0.01729,0.0562 0.01305,0.0648 0.0539,0.0154 z m 13.918917,-0.42319 c 0,-0.012 -0.0046,-0.0218 -0.0099,-0.0218 -0.0053,0 -0.01587,0.01 -0.02293,0.0218 -0.0071,0.012 -0.0035,0.0217 0.0099,0.0217 0.0127,0 0.02293,-0.01 0.02293,-0.0217 z m 0.130493,-1.68816 c 0,-0.018 -0.01023,-0.0266 -0.02187,-0.0192 -0.01199,0.007 -0.02187,0.0281 -0.02187,0.0461 0,0.0179 0.01023,0.0266 0.02187,0.0192 0.01199,-0.007 0.02187,-0.0281 0.02187,-0.0461 z m 0.06897,-0.24742 c 0.0046,-0.0479 0,-0.0871 -0.0088,-0.0871 -0.0095,0 -0.01693,0.0135 -0.01693,0.0299 0,0.0164 -0.0064,0.062 -0.01411,0.10125 -0.0095,0.0475 -0.0067,0.0666 0.0085,0.0572 0.0127,-0.008 0.02646,-0.0533 0.0314,-0.10126 z m -10.900198,-0.28288 c 0,-0.0133 -0.09507,-0.0212 -0.244687,-0.0202 -0.156986,10e-4 -0.229129,0.008 -0.201189,0.0202 0.06216,0.0267 0.445876,0.0267 0.445876,0 z m 2.109681,-1.52902 c 0,-0.0303 -0.191382,-0.22257 -0.206516,-0.20743 -0.0085,0.009 0.04509,0.18153 0.0678,0.21829 0.01835,0.0294 0.138712,0.02 0.138712,-0.0109 z m -4.067139,5.7254 c 0,-0.0127 0.01023,-0.017 0.02187,-0.01 0.01199,0.007 0.02187,0.0178 0.02187,0.023 0,0.005 -0.01023,0.01 -0.02187,0.01 -0.01199,0 -0.02187,-0.0104 -0.02187,-0.023 z m 10.914168,-0.0353 c 0.01588,-0.006 0.03457,-0.005 0.04166,0.002 0.0074,0.007 -0.0053,0.0124 -0.02822,0.0114 -0.0254,-10e-4 -0.03069,-0.006 -0.01305,-0.0131 z m -13.132611,-1.81219 c 0,-0.012 0.01058,-0.0217 0.02293,-0.0217 0.0127,0 0.01693,0.01 0.0099,0.0217 -0.0074,0.012 -0.01764,0.0217 -0.02293,0.0217 -0.0049,0 -0.0099,-0.01 -0.0099,-0.0217 z m -0.259327,-1.38291 c 0,-0.0253 0.0063,-0.0305 0.01305,-0.0132 0.0063,0.0157 0.0053,0.0345 -0.0035,0.0417 -0.0071,0.007 -0.01235,-0.006 -0.01129,-0.0285 z m 0.320463,-0.8939 c 0.01587,-0.006 0.03457,-0.005 0.04166,0.002 0.0074,0.007 -0.0056,0.0123 -0.02822,0.0114 -0.0254,-10e-4 -0.03069,-0.006 -0.01305,-0.0132 z"
       id="F-T26"
       style="stroke-width:0.352778" />
  </g>
</svg>
