<?xml version="1.0" encoding="UTF-8" standalone="no"?>
<!-- Created with Inkscape (http://www.inkscape.org/) -->

<svg
   width="7.9999981mm"
   height="7.9999981mm"
   viewBox="0 0 7.9999982 7.9999981"
   version="1.1"
   id="svg47190"
   inkscape:version="1.1.1 (3bf5ae0d25, 2021-09-20)"
   sodipodi:docname="finnish.svg"
   xmlns:inkscape="http://www.inkscape.org/namespaces/inkscape"
   xmlns:sodipodi="http://sodipodi.sourceforge.net/DTD/sodipodi-0.dtd"
   xmlns="http://www.w3.org/2000/svg"
   xmlns:svg="http://www.w3.org/2000/svg">
  <sodipodi:namedview
     id="namedview47192"
     pagecolor="#ffffff"
     bordercolor="#666666"
     borderopacity="1.0"
     inkscape:pageshadow="2"
     inkscape:pageopacity="0.0"
     inkscape:pagecheckerboard="0"
     inkscape:document-units="mm"
     showgrid="false"
     inkscape:zoom="7.2466938"
     inkscape:cx="11.936478"
     inkscape:cy="-14.006387"
     inkscape:window-width="1920"
     inkscape:window-height="1017"
     inkscape:window-x="-8"
     inkscape:window-y="-8"
     inkscape:window-maximized="1"
     inkscape:current-layer="layer1" />
  <defs
     id="defs47187">
    <clipPath
       clipPathUnits="userSpaceOnUse"
       id="clipPath63680-8">
      <path
         d="M 0,0 H 595.276 V 841.89 H 0 Z"
         id="path63678-4" />
    </clipPath>
    <clipPath
       id="clip26-8">
      <path
         d="m 177,605 h 14 v 7 h -14 z m 0,0"
         id="path4278-6" />
    </clipPath>
    <clipPath
       id="clip27-6">
      <path
         d="m 181.85547,606.17578 c -0.28516,0.53516 -0.66797,0.60547 -0.94141,0.66797 -0.27344,0.0586 -0.40625,0.0234 -0.72656,0.15234 -0.32031,0.13282 -0.25,0.26172 -0.28516,0.47657 -0.0352,0.21484 -0.0977,0.27343 -0.40625,1.09765 -0.30859,0.82031 -1.14062,2.03516 -1.4414,2.53516 -0.29688,0.5 -0.67578,0.47656 -0.79688,0.82031 -0.11719,0.34766 0.0117,0.82031 0.41797,1.10938 0.40234,0.28515 0.92969,0.11718 1.23828,0.0703 0.3086,-0.0469 0.40235,-0.0352 0.40235,-0.0352 l 0.33593,0.0234 c 0,0 -0.53906,-1.8125 0.77344,-1.73828 1.30859,0.0703 2,0.67578 2.90234,0.71484 0.90625,0.0352 1.0625,-0.25 1.72657,-0.25 0.66797,0 1.22656,0.19922 1.54687,0.23438 0.32422,0.0391 1.33594,0.0156 1.33594,0.0156 l 1.35547,-4.07422 h 0.30859 l -0.0195,0.53907 0.57813,-0.63282 c 0,0 0.15625,0.0234 0.24218,-0.0586 0.082,-0.0859 0.15235,-0.35938 -0.0586,-0.65625 -0.21484,-0.29688 -0.48047,-0.60547 -1.21484,-1.14063 -0.73829,-0.53906 -1.32422,-1.05078 -3.69141,-1.14453 -0.125,-0.004 -0.25,-0.008 -0.36719,-0.008 -2.09765,0 -2.94531,0.77344 -3.21484,1.28125"
         id="path4281-9" />
    </clipPath>
    <clipPath
       id="clip28-5">
      <path
         d="m 177,611 h 4 v 3 h -4 z m 0,0"
         id="path4284-9" />
    </clipPath>
    <clipPath
       id="clip29-3">
      <path
         d="m 181.85547,606.17578 c -0.28516,0.53516 -0.66797,0.60547 -0.94141,0.66797 -0.27344,0.0586 -0.40625,0.0234 -0.72656,0.15234 -0.32031,0.13282 -0.25,0.26172 -0.28516,0.47657 -0.0352,0.21484 -0.0977,0.27343 -0.40625,1.09765 -0.30859,0.82031 -1.14062,2.03516 -1.4414,2.53516 -0.29688,0.5 -0.67578,0.47656 -0.79688,0.82031 -0.11719,0.34766 0.0117,0.82031 0.41797,1.10938 0.40234,0.28515 0.92969,0.11718 1.23828,0.0703 0.3086,-0.0469 0.40235,-0.0352 0.40235,-0.0352 l 0.33593,0.0234 c 0,0 -0.53906,-1.8125 0.77344,-1.73828 1.30859,0.0703 2,0.67578 2.90234,0.71484 0.90625,0.0352 1.0625,-0.25 1.72657,-0.25 0.66797,0 1.22656,0.19922 1.54687,0.23438 0.32422,0.0391 1.33594,0.0156 1.33594,0.0156 l 1.35547,-4.07422 h 0.30859 l -0.0195,0.53907 0.57813,-0.63282 c 0,0 0.15625,0.0234 0.24218,-0.0586 0.082,-0.0859 0.15235,-0.35938 -0.0586,-0.65625 -0.21484,-0.29688 -0.48047,-0.60547 -1.21484,-1.14063 -0.73829,-0.53906 -1.32422,-1.05078 -3.69141,-1.14453 -0.125,-0.004 -0.25,-0.008 -0.36719,-0.008 -2.09765,0 -2.94531,0.77344 -3.21484,1.28125"
         id="path4287-0" />
    </clipPath>
    <clipPath
       id="clip30-0">
      <path
         d="m 177,610 h 5 v 4 h -5 z m 0,0"
         id="path4290-1" />
    </clipPath>
    <clipPath
       id="clip31-8">
      <path
         d="m 181.85547,606.17578 c -0.28516,0.53516 -0.66797,0.60547 -0.94141,0.66797 -0.27344,0.0586 -0.40625,0.0234 -0.72656,0.15234 -0.32031,0.13282 -0.25,0.26172 -0.28516,0.47657 -0.0352,0.21484 -0.0977,0.27343 -0.40625,1.09765 -0.30859,0.82031 -1.14062,2.03516 -1.4414,2.53516 -0.29688,0.5 -0.67578,0.47656 -0.79688,0.82031 -0.11719,0.34766 0.0117,0.82031 0.41797,1.10938 0.40234,0.28515 0.92969,0.11718 1.23828,0.0703 0.3086,-0.0469 0.40235,-0.0352 0.40235,-0.0352 l 0.33593,0.0234 c 0,0 -0.53906,-1.8125 0.77344,-1.73828 1.30859,0.0703 2,0.67578 2.90234,0.71484 0.90625,0.0352 1.0625,-0.25 1.72657,-0.25 0.66797,0 1.22656,0.19922 1.54687,0.23438 0.32422,0.0391 1.33594,0.0156 1.33594,0.0156 l 1.35547,-4.07422 h 0.30859 l -0.0195,0.53907 0.57813,-0.63282 c 0,0 0.15625,0.0234 0.24218,-0.0586 0.082,-0.0859 0.15235,-0.35938 -0.0586,-0.65625 -0.21484,-0.29688 -0.48047,-0.60547 -1.21484,-1.14063 -0.73829,-0.53906 -1.32422,-1.05078 -3.69141,-1.14453 -0.125,-0.004 -0.25,-0.008 -0.36719,-0.008 -2.09765,0 -2.94531,0.77344 -3.21484,1.28125"
         id="path4293-6" />
    </clipPath>
  </defs>
  <g
     inkscape:label="Layer 1"
     inkscape:groupmode="layer"
     id="layer1"
     transform="translate(-86.564384,-76.753113)">
    <g
       fill="none"
       id="g10"
       transform="matrix(0.01282051,0,0,0.01282051,86.557974,76.746703)">
      <g
         transform="translate(24.5,24.5)"
         id="g6">
        <path
           stroke-width="120"
           stroke="#3771c8"
           d="M 120,540 H 300 V 60 h 180 m 60,420 V 300 H 60 V 120"
           id="path2-9" />
        <path
           stroke-width="114"
           stroke="#ffffff"
           d="M 123,540 H 300 V 60 h 177 m 63,417 V 300 H 60 V 123"
           id="path4" />
      </g>
      <path
         stroke-width="120"
         stroke="#3771c8"
         d="m 120.5,540.5 h 180 v -480 h 180 m 60,420 v -180 h -480 v -180"
         id="path8" />
    </g>
  </g>
</svg>
