<?xml version="1.0" encoding="UTF-8" standalone="no"?>
<!-- Created with Inkscape (http://www.inkscape.org/) -->

<svg
   width="17.171721mm"
   height="7.9889698mm"
   viewBox="0 0 17.171721 7.9889698"
   version="1.1"
   id="svg1371"
   sodipodi:docname="inkporter-svg-pyuuhgqu.svg"
   xmlns:inkscape="http://www.inkscape.org/namespaces/inkscape"
   xmlns:sodipodi="http://sodipodi.sourceforge.net/DTD/sodipodi-0.dtd"
   xmlns="http://www.w3.org/2000/svg"
   xmlns:svg="http://www.w3.org/2000/svg">
  <sodipodi:namedview
     id="namedview1373"
     pagecolor="#ffffff"
     bordercolor="#666666"
     borderopacity="1.0"
     inkscape:pageshadow="2"
     inkscape:pageopacity="0.0"
     inkscape:pagecheckerboard="0"
     inkscape:document-units="mm"
     showgrid="false"
     inkscape:zoom="0.32026164"
     inkscape:cx="1055.3871"
     inkscape:cy="113.96931"
     inkscape:window-width="1920"
     inkscape:window-height="1017"
     inkscape:window-x="-8"
     inkscape:window-y="-8"
     inkscape:window-maximized="1"
     inkscape:current-layer="layer1" />
  <defs
     id="defs1368" />
  <g
     inkscape:label="Layer 1"
     inkscape:groupmode="layer"
     id="layer1"
     transform="translate(-305.26053,85.969238)">
    <path
       d="m 322.43225,-82.372968 h -1.48414 l 0.2632,-1.00459 -0.35278,-0.62701 h -5.42396 l 0.79651,-0.47404 h 0.0744 v -0.56913 h 0.43684 l 0.17363,0.0785 0.0565,0.0289 -0.0413,0.10197 0.12816,0.0455 0.0482,0.0124 0.008,0.11024 -0.0165,0.10748 0.11575,0.0469 0.0482,-0.0868 -0.0303,-0.15985 0.12678,0.051 0.0303,-0.0413 0.38861,0.1571 -0.008,0.10335 0.0455,-0.0289 0.0689,0.0289 0.0331,0.0992 0.0868,0.0166 0.004,-0.0923 0.0593,-0.14883 0.0992,-0.0468 -0.062,-0.0455 -0.11989,-10e-4 -0.2632,-0.073 -0.10336,-0.0413 -0.0207,-0.062 -0.51125,-0.21773 -0.43684,-0.25218 -0.22048,-0.0896 -0.0207,0.0524 -1.00873,-0.4079 0.0413,-0.10335 -0.04,-0.0152 -0.0303,0.0744 -0.20533,-0.0827 -0.0179,0.0427 -0.0965,-0.04 -0.0124,0.0289 -0.17639,-0.0717 -0.0331,0.0799 0.17777,0.0717 -0.0124,0.0289 0.1378,0.0565 0.0124,-0.0289 0.073,0.0289 -0.0165,0.0441 1.21543,0.49058 0.13505,0.062 h -0.24667 v -0.0331 h -0.0758 v 0.57051 l -0.99219,0.59394 h -2.10013 l 0.008,-0.0648 -0.0868,-0.13643 h 0.13643 l 0.0124,-0.0496 h 0.41892 l 0.0317,0.0992 0.0303,-0.0441 h 0.0744 l 0.0675,0.0813 0.0882,-0.0179 -0.0317,-0.0868 v -0.15985 l 0.0744,-0.0813 -0.0744,-0.0193 -0.11162,0.0441 -0.27148,0.0317 h -0.11161 l -0.0427,-0.051 -0.55535,-0.01 h -0.003 v -0.41341 h -0.60496 v 0.34313 H 312.057 v 0.0551 h -1.08728 v -0.11024 h -0.0441 v 0.0799 h -0.22186 v 0.0468 h -0.10473 v 0.0303 h -0.19155 v 0.0868 h 0.19155 v 0.0317 h 0.14883 v -0.0317 h 0.0799 v 0.0469 h 1.31189 l 0.0469,0.001 v 0.30868 h -0.1819 l -0.26321,0.67387 -5.63617,0.86678 -0.84474,2.49838 0.89021,0.52504 0.92467,-0.72898 c -0.19844,0.23013 -0.31971,0.53192 -0.31971,0.85989 0,0.72761 0.5898,1.31878 1.3174,1.31878 0.72899,0 1.31879,-0.59117 1.31879,-1.31878 0,-0.0248 -10e-4,-0.0482 -0.003,-0.073 h 0.56086 v 0.15985 h 0.23978 v -0.21773 h 0.46715 l 0.42719,-0.53468 0.12541,0.0896 c -0.01,0.0331 -0.0152,0.0675 -0.0152,0.10335 0,0.1888 0.15296,0.34176 0.34175,0.34176 0.19017,0 0.34175,-0.15296 0.34175,-0.34176 0,-0.18879 -0.15158,-0.34313 -0.34175,-0.34313 -0.0772,0 -0.14883,0.0262 -0.20533,0.0703 l -0.11438,-0.0854 0.0207,-0.0262 0.67525,0.0537 0.65732,0.011 c -0.21222,0.54019 -0.11989,1.16306 0.58015,1.46485 0.85439,0.36656 1.52825,0.51401 2.07533,0.51401 h 3.96324 c 0.41892,0 1.03352,-0.38585 1.04731,-1.01837 0.008,-0.38033 -0.15434,-0.65181 -0.35003,-0.83371 l 0.57327,0.01 0.28663,-0.25769 0.32659,0.32659 0.0551,-0.21497 c 0,0 0.0799,-0.0551 0.0799,-0.19844 0,-0.14331 -0.11161,-0.16674 -0.11161,-0.16674 0,0 0.0482,-0.11162 -0.0469,-0.18328 -0.0965,-0.0703 -0.24667,0.0634 -0.24667,0.0634 l -0.17777,0.0717 -0.11989,-0.17088 0.073,-0.27561 c 1.14653,-0.0786 1.85484,-0.24804 1.85484,-0.24804 z m -9.8199,2.8925 c 0.0441,0.24667 0.17915,0.46027 0.36932,0.60497 -0.22462,-0.15848 -0.34038,-0.37346 -0.36932,-0.60497 m 0.38861,-4.5241 h -0.20946 v -0.15985 l 0.0937,-0.004 0.0496,-0.006 0.0496,0.0992 z m 4.59438,5.7354 c 0.0579,-0.008 0.113,-0.0317 0.15985,-0.0648 v 0.0854 h -0.15985 z m -0.25218,-0.0565 c 0.051,0.0331 0.10886,0.0537 0.17087,0.0593 v 0.0179 h -0.17087 z m -0.23978,-0.12127 h 0.12678 c 0.01,0.0166 0.0207,0.0331 0.0331,0.0482 v 0.1502 h -0.15985 z m -0.2384,0.14745 c 0.0661,-0.0317 0.12264,-0.0841 0.15985,-0.14745 v 0.19844 h -0.15985 z m -0.25081,0.0207 c 0.0303,0.008 0.0634,0.0138 0.0965,0.0138 0.0248,0 0.0496,-0.003 0.0744,-0.008 v 0.0248 h -0.17087 z m -1.26641,-0.16812 h 0.17087 c 0.0179,0.0289 0.0386,0.0551 0.062,0.0785 -0.0248,-0.0234 -0.0441,-0.0496 -0.062,-0.0785 v 0.19844 h -0.17087 z m -0.2508,0.16812 c 0.0661,-0.0179 0.1254,-0.0565 0.17087,-0.10611 v 0.13643 h -0.0427 c -0.0427,0 -0.0854,-10e-4 -0.12816,-0.003 z m -0.23978,-0.0165 c 0.0441,0.0193 0.0909,0.0303 0.14194,0.0303 l 0.0165,-10e-4 v 0.011 c -0.051,-0.004 -0.10473,-0.008 -0.15848,-0.0152 z m -1.3243,-0.38171 -0.0138,0.0537 c -0.0524,-0.0207 -0.1061,-0.0413 -0.15985,-0.0634 l 0.003,-0.0124 c 0.0551,0.0124 0.113,0.0207 0.17088,0.0221 m 0.25494,-0.0234 -0.0427,0.15986 c -0.0496,-0.0166 -0.1006,-0.0358 -0.15159,-0.0538 l 0.022,-0.0827 c 0.0593,-0.003 0.11576,-0.01 0.17226,-0.0234 m 0.72484,-0.68626 0.8847,0.10472 c -0.0786,0.13505 -0.12264,0.27975 -0.14193,0.38861 h -0.0165 c -0.0648,-0.0565 -0.14745,-0.0909 -0.23978,-0.0909 -0.19844,0 -0.35967,0.16123 -0.35967,0.35967 0,0.091 0.0331,0.17226 0.0882,0.23564 l -0.0262,0.0978 c -0.051,-0.008 -0.10473,-0.0165 -0.15848,-0.0276 l 0.0524,-0.19292 -0.0772,-0.0193 -0.0537,0.19569 c -0.0537,-0.011 -0.10886,-0.0234 -0.16674,-0.0372 l 0.0551,-0.20395 -0.0772,-0.0207 -0.0551,0.20395 c -0.0537,-0.0152 -0.10886,-0.0303 -0.16536,-0.0455 l 0.0551,-0.20257 -0.0772,-0.0207 -0.0537,0.19982 c -0.0524,-0.0165 -0.10473,-0.0345 -0.15848,-0.0524 l 0.0565,-0.20946 c 0.3073,-0.1006 0.54708,-0.3514 0.63528,-0.66283 m 1.23334,-0.22325 c -0.0262,0.0124 -0.051,0.0248 -0.0758,0.0386 l -1.12999,-0.20395 c -0.0124,-0.0992 -0.04,-0.19431 -0.0799,-0.2825 l 0.39274,0.007 c 0.28387,0.21084 0.57878,0.36104 0.89297,0.44097 m 0.0124,1.3615 h -0.16123 v -0.10335 c 0.0455,0.0386 0.10059,0.0661 0.16123,0.0785 z m 0.11299,-0.0193 c 0.0634,-0.007 0.12265,-0.0303 0.17088,-0.0661 v 0.0854 h -0.17088 z m 1.88378,-1.29398 c -0.31005,-0.0248 -0.61598,-0.0496 -0.88883,-0.0675 0.2949,-0.073 0.61185,-0.1819 0.88883,-0.28663 z m 0.76344,1.10244 h -0.0234 v 0.21084 h -0.15848 v -0.21084 h -0.0799 v 0.21084 h -0.17225 v -0.21084 h -0.0786 v 0.21084 h -0.17226 v -0.16537 c 0.0441,-0.0592 0.0689,-0.13229 0.0689,-0.21084 0,-0.19844 -0.16123,-0.35967 -0.35967,-0.35967 -0.0923,0 -0.17638,0.0345 -0.2384,0.091 h -0.35553 c -0.062,-0.0565 -0.14607,-0.091 -0.2384,-0.091 -0.19844,0 -0.35967,0.16123 -0.35967,0.35967 0,0.13367 0.0744,0.2508 0.18328,0.31282 v 0.0634 h -0.17225 v -0.21084 h -0.0799 v 0.21084 h -0.15992 v -0.16537 c 0.0441,-0.0592 0.0689,-0.13229 0.0689,-0.21084 0,-0.16123 -0.10611,-0.29766 -0.25218,-0.34313 0.19843,-0.17777 0.58842,-0.0524 0.73173,-0.062 0.0854,-0.005 0.82407,0.0289 1.54203,0.0648 0.0455,0.19981 0.15434,0.3762 0.30592,0.50574 m 0.43271,0.21084 h -0.37483 v -0.16537 c 0.10887,0.0799 0.23703,0.13781 0.37483,0.16537 m 1.14653,-0.8847 c -0.004,0.22462 -0.0992,0.41479 -0.23565,0.56086 0.13643,-0.16399 0.21911,-0.37483 0.21911,-0.60634 0,-0.32108 -0.15847,-0.60358 -0.40101,-0.77584 0.21911,0.15434 0.42719,0.42031 0.41755,0.82132"
       id="G-21st-U304" />
  </g>
</svg>
