<?xml version="1.0" encoding="UTF-8" standalone="no"?>
<!-- Created with Inkscape (http://www.inkscape.org/) -->

<svg
   width="21.356939mm"
   height="7.9044509mm"
   viewBox="0 0 21.356939 7.9044509"
   version="1.1"
   id="svg1371"
   sodipodi:docname="inkporter-svg-pyuuhgqu.svg"
   xmlns:inkscape="http://www.inkscape.org/namespaces/inkscape"
   xmlns:sodipodi="http://sodipodi.sourceforge.net/DTD/sodipodi-0.dtd"
   xmlns="http://www.w3.org/2000/svg"
   xmlns:svg="http://www.w3.org/2000/svg">
  <sodipodi:namedview
     id="namedview1373"
     pagecolor="#ffffff"
     bordercolor="#666666"
     borderopacity="1.0"
     inkscape:pageshadow="2"
     inkscape:pageopacity="0.0"
     inkscape:pagecheckerboard="0"
     inkscape:document-units="mm"
     showgrid="false"
     inkscape:zoom="0.32026164"
     inkscape:cx="1055.3871"
     inkscape:cy="113.96931"
     inkscape:window-width="1920"
     inkscape:window-height="1017"
     inkscape:window-x="-8"
     inkscape:window-y="-8"
     inkscape:window-maximized="1"
     inkscape:current-layer="layer1" />
  <defs
     id="defs1368" />
  <g
     inkscape:label="Layer 1"
     inkscape:groupmode="layer"
     id="layer1"
     transform="translate(-262.48013,81.383058)">
    <path
       d="m 283.63303,-77.746488 -0.30454,-0.0923 0.0661,-0.0978 -1.22783,-2.33301 v -0.33762 h -0.20533 v 0.30041 l -3.74688,-0.6146 h -3.38033 l 0.0138,-0.10474 -1.08038,-0.10473 -0.10886,-0.14745 -1.45797,-0.10473 -0.56637,1.14239 h -1.19476 l -0.0813,0.1006 -6.24114,0.0799 v -0.0758 h -0.54984 l -0.29765,-0.14056 v -0.0207 H 263.103 v 0.0896 h -0.62287 v 0.69591 h 0.62287 v 0.12816 h 0.16675 v -0.10749 l 0.28387,-0.10197 h 0.56362 v -0.0661 l 5.81256,0.0758 v 0.79512 h 1.05283 l 0.5898,0.87644 h 0.25769 l -0.36242,0.71795 -0.0854,-0.0854 v -0.12403 l 0.19568,-0.19568 -0.21498,-0.21359 h -0.18465 l -0.11989,0.11851 h -0.51814 l -0.22876,0.22875 h 0.74276 l 0.0854,0.0854 v 0.14332 l -0.3197,0.38585 h -0.96187 c -0.4079,0 -0.69867,0.34313 -0.69867,0.34313 l 0.16261,0.23702 c -0.113,0.0744 -0.21084,0.18052 -0.28801,0.305926 l -0.0524,-0.04134 -0.0606,0.07993 0.0648,0.04961 c -0.0386,0.07442 -0.0689,0.155716 -0.091,0.2384 l -0.0799,-0.02342 -0.0289,0.09646 0.0868,0.0248 c -0.0152,0.09095 -0.0207,0.186037 -0.0152,0.279742 l -0.1006,0.0193 0.0193,0.09784 0.0923,-0.01792 c 0.0152,0.09233 0.0413,0.181903 0.0813,0.268718 l -0.0868,0.06064 0.0579,0.08268 0.0758,-0.05374 c 0.0524,0.08682 0.11989,0.16812 0.20395,0.242535 l -0.0482,0.06752 0.0813,0.05788 0.0441,-0.06339 c 0.0386,0.02893 0.0799,0.05512 0.12402,0.07993 l 0.11024,0.06064 -0.0372,0.06201 0.0868,0.05099 0.0386,-0.06477 c 0.0854,0.04686 0.17225,0.09095 0.25907,0.136426 l -0.0331,0.06339 0.0896,0.04548 0.0317,-0.06339 c 0.0854,0.04134 0.1695,0.08268 0.25494,0.122646 l -0.0248,0.06063 0.0923,0.03859 0.022,-0.05788 c 0.0772,0.03583 0.15296,0.0689 0.22875,0.100598 l -0.0193,0.04823 0.0923,0.03721 0.0193,-0.04686 c 0.0799,0.03168 0.15986,0.06339 0.2384,0.09095 l -0.0138,0.05099 0.0965,0.02755 0.0124,-0.04547 c 0.0565,0.0193 0.11437,0.03858 0.17087,0.05512 l -0.0179,0.06339 0.0951,0.02755 0.0193,-0.06339 c 0.0923,0.02618 0.18466,0.04823 0.27286,0.06339 l -0.011,0.0565 0.0978,0.0193 0.011,-0.05788 c 0.10059,0.01517 0.19705,0.02342 0.28801,0.02342 v 0.02755 h 0.10059 v -0.02755 h 0.25078 v 0.02755 h 0.1006 v -0.02755 h 0.22462 v 0.02755 h 0.0992 v -0.02755 h 0.26183 v 0.02755 h 0.10059 v -0.02755 h 0.2384 v 0.02755 h 0.0992 v -0.02755 h 0.26183 v 0.02755 h 0.0992 v -0.02755 h 0.25356 v 0.02755 h 0.0992 v -0.02755 h 0.26182 v 0.02755 h 0.1006 v -0.02755 h 0.23703 v 0.02755 h 0.10059 v -0.02755 h 0.26183 v 0.02755 h 0.1006 v -0.02755 h 0.22324 v 0.02755 h 0.10059 v -0.02755 h 0.26183 v 0.02755 h 0.0992 v -0.02755 h 0.2384 v 0.02755 h 0.0992 v -0.02755 h 0.26183 v 0.02755 h 0.10059 v -0.02755 h 0.25218 v 0.02755 h 0.1006 v -0.02755 h 0.26183 v 0.02755 h 0.0992 v -0.02755 h 0.2384 v 0.02755 h 0.0992 v -0.02755 h 0.26182 v 0.02755 h 0.1006 v -0.02755 h 0.21911 v 0.02755 h 0.1006 v -0.02755 h 0.26182 v 0.02755 h 0.0992 v -0.02755 h 0.2384 v 0.02755 h 0.0992 v -0.02755 h 0.26183 v 0.02755 h 0.10059 v -0.02755 h 0.25219 v 0.02755 h 0.10059 v -0.02755 h 0.26183 v 0.02755 h 0.0992 v -0.02755 h 0.2384 v 0.02755 h 0.0992 v -0.02755 h 0.16261 c 0.0317,0 0.0648,-0.0014 0.0992,-0.0028 v 0.0303 h 0.10059 v -0.03573 c 0.12403,-0.0096 0.26045,-0.02755 0.40652,-0.05237 l 0.0138,0.04823 0.0951,-0.02755 -0.01,-0.03859 c 0.0799,-0.01654 0.16261,-0.03306 0.24667,-0.05237 l 0.0152,0.05237 0.0965,-0.02755 -0.0138,-0.04823 c 0.0813,-0.0193 0.1626,-0.04134 0.24391,-0.06477 l 0.0124,0.0441 0.0965,-0.02755 -0.0124,-0.0441 c 0.0841,-0.0248 0.16674,-0.05099 0.24943,-0.07993 l 0.0138,0.05099 0.0965,-0.02755 -0.0165,-0.0565 c 0.0841,-0.02893 0.16536,-0.05926 0.24529,-0.09233 l 0.01,0.03583 0.0965,-0.02755 -0.0138,-0.04685 c 0.0772,-0.03306 0.15021,-0.06752 0.22187,-0.101974 l 0.0152,0.05237 0.0951,-0.02755 -0.0207,-0.07166 c 0.0882,-0.04686 0.1695,-0.09371 0.24253,-0.143316 l 0.0634,0.08682 0.0813,-0.05926 -0.062,-0.08544 c 0.0675,-0.05099 0.12677,-0.106109 0.17914,-0.165365 l 0.0744,0.05237 0.0579,-0.0813 -0.0703,-0.04961 c 0.051,-0.07028 0.0923,-0.143316 0.12403,-0.21911 l 0.073,0.03168 0.0413,-0.09095 -0.0785,-0.03447 c 0.0262,-0.07717 0.0427,-0.157095 0.0524,-0.237024 l 0.10335,0.0069 0.007,-0.09922 -0.10335,-0.0069 c 0.004,-0.09508 -0.003,-0.188789 -0.0193,-0.279738 l 0.0827,-0.02893 -0.0344,-0.0937 -0.0703,0.0248 c -0.0179,-0.06615 -0.0413,-0.128157 -0.0689,-0.187413 l 0.26045,-0.486441 z m -14.61271,2.556256 0.022,-0.0041 c 0.0124,0.06753 0.0331,0.133671 0.0606,0.195683 l -0.0234,0.01654 c -0.0289,-0.06752 -0.0482,-0.137802 -0.0593,-0.208082 m 0.0152,-0.303167 c -0.007,0.04134 -0.01,0.08406 -0.01,0.128157 0,0.0248 10e-4,0.04685 0.003,0.07166 l -0.0193,0.0028 c -0.003,-0.0689 10e-4,-0.139181 0.011,-0.206703 z m 0.0868,-0.279742 c -0.0289,0.0565 -0.051,0.117133 -0.0675,0.180523 l -0.0138,-0.0041 c 0.0179,-0.06477 0.04,-0.128157 0.0675,-0.187414 z m 0.0262,0.86403 c 0.0427,0.07304 0.0951,0.140557 0.15709,0.198438 l -0.0165,0.02342 c -0.0689,-0.06201 -0.12265,-0.130912 -0.16537,-0.203948 z m 0.27698,-1.209918 c -0.10059,0.0675 -0.18603,0.155716 -0.25218,0.257693 l -0.0165,-0.01242 c 0.0661,-0.111622 0.15158,-0.206703 0.2508,-0.271473 z m 0.18328,1.602659 -0.0179,0.02755 -0.11438,-0.06201 c -0.0386,-0.02205 -0.0758,-0.04685 -0.11024,-0.07166 l 0.0152,-0.02205 c 0.0689,0.05374 0.14469,0.09646 0.22738,0.128157 m 1.68947,0.599448 -0.0965,-0.02343 -0.0427,0.148826 c -0.0551,-0.01654 -0.113,-0.03447 -0.17088,-0.05512 l 0.0496,-0.169496 -0.0965,-0.02755 -0.0468,0.163986 c -0.0744,-0.02755 -0.14883,-0.0565 -0.22463,-0.08682 l 0.0648,-0.15985 -0.0923,-0.03721 -0.0648,0.158475 c -0.0758,-0.03168 -0.15159,-0.06477 -0.22738,-0.09922 l 0.0606,-0.151585 -0.0923,-0.03721 -0.0593,0.146071 c -0.0799,-0.03721 -0.16123,-0.07717 -0.24116,-0.117133 l 0.0689,-0.135047 -0.0896,-0.04685 -0.0689,0.136423 c -0.0841,-0.04272 -0.16674,-0.08682 -0.24942,-0.130913 l 0.0276,-0.04548 c 0.073,0.0193 0.14883,0.0303 0.22875,0.0303 0.26459,0 0.50437,-0.114377 0.66973,-0.294901 h 0.54708 c -0.0689,0.107488 -0.10749,0.234269 -0.10749,0.370696 0,0.16674 0.0593,0.32108 0.15848,0.436837 z m 0.22187,0.195678 -0.004,0.01792 c -0.0841,-0.01517 -0.17088,-0.03583 -0.26045,-0.06063 l 0.0262,-0.09233 c 0.0689,0.05926 0.14883,0.106109 0.2384,0.135047 m -8.41706,-5.939339 h -0.48093 v -0.39825 h 0.48093 z m 0.40514,-0.0786 -0.2384,0.0854 v -0.45338 l 0.2384,0.11163 z m 10.5544,5.968282 c 0.21635,-0.117133 0.36242,-0.345888 0.36242,-0.609092 0,-0.136426 -0.04,-0.263208 -0.10749,-0.370696 h 0.31971 c -0.0689,0.107488 -0.10749,0.23427 -0.10749,0.370696 0,0.206703 0.0896,0.391361 0.23289,0.519518 0.0744,0.06615 0.16399,0.117133 0.26183,0.146071 v 0.04823 h -0.26183 v -0.194303 h -0.10059 v 0.194303 h -0.23703 v -0.194303 h -0.1006 v 0.194303 h -0.26182 z m -0.35278,0.08544 h 0.0193 c 0.0827,0 0.16123,-0.01379 0.23427,-0.03997 v 0.05926 h -0.25356 z m -0.36105,-0.113002 c 0.0772,0.05099 0.16675,0.08682 0.26183,0.103353 v 0.02893 h -0.26183 z m -1.47036,0.132292 h -0.006 c -0.0813,0 -0.16812,-0.0069 -0.25631,-0.02893 0.04,0.0069 0.0813,0.0096 0.12264,0.0096 0.0455,0 0.091,-0.0041 0.13367,-0.01242 z m 1.28571,-0.310057 c 0.0303,0.04272 0.0648,0.08131 0.10335,0.115754 h -0.0179 v 0.194303 h -0.2384 v -0.194303 h -0.1006 v 0.194303 h -0.26183 v -0.194303 h -0.0992 v 0.194303 h -0.22461 v -0.194303 h -0.10061 v 0.194303 h -0.2508 v -0.05926 c 0.13367,-0.04823 0.24943,-0.136423 0.33211,-0.250801 0.14607,-0.07304 0.26458,-0.195682 0.32935,-0.347267 h 0.14607 c 0.0772,0.159854 0.21498,0.285256 0.3831,0.347267 m 2.18419,0.310057 h -0.22324 v -0.02618 c 0.033,0.0055 0.0648,0.0069 0.0992,0.0069 0.0427,0 0.0841,-0.0028 0.12403,-0.01101 z m 1.41386,0 h -0.25218 v -0.194303 h -0.10059 v 0.194303 h -0.26183 v -0.194303 h -0.0992 v 0.194303 h -0.2384 v -0.194303 h -0.0992 v 0.194303 h -0.26183 v -0.05512 c 0.13781,-0.04823 0.2577,-0.137802 0.34176,-0.254935 0.14607,-0.07304 0.2632,-0.195682 0.32935,-0.347267 h 0.14607 c 0.0786,0.159854 0.21498,0.285256 0.3831,0.347267 0.0331,0.04685 0.0703,0.08819 0.11299,0.124023 z m 0.70005,0 h -0.2384 l -0.01,-0.0193 c -0.0303,0 -0.0606,-0.0014 -0.0896,-0.0055 v 0.0248 h -0.26182 v -0.114378 c 0.0785,0.04686 0.16674,0.07717 0.26182,0.08957 0.0289,0.0041 0.0593,0.0055 0.0992,0.0055 0.0841,-0.0014 0.16399,-0.01654 0.2384,-0.04548 z m 0.77446,-0.194303 h -0.0937 v 0.194303 h -0.21911 v -0.194303 h -0.1006 v 0.194303 h -0.26182 v -0.111619 c 0.20808,-0.119892 0.34864,-0.344512 0.34864,-0.602202 0,-0.136426 -0.04,-0.263208 -0.10749,-0.370696 h 0.31006 c -0.0689,0.107488 -0.10749,0.23427 -0.10749,0.370696 0,0.206703 0.0896,0.391361 0.23152,0.519518 m 0.26871,0.194303 h -0.26182 v -0.190169 c 0.0744,0.06477 0.16398,0.114378 0.26182,0.143316 z m 0.33762,0 h -0.2384 v -0.0248 c 0.0303,0.0041 0.0634,0.0055 0.0951,0.0055 0.0496,0 0.0965,-0.0041 0.14331,-0.01379 z m 1.41387,0 h -0.2384 v -0.194303 h -0.0992 v 0.194303 h -0.26183 v -0.194303 h -0.10059 v 0.194303 h -0.25219 v -0.194303 h -0.10059 v 0.194303 h -0.26183 v -0.06201 c 0.13091,-0.04961 0.24391,-0.136427 0.32384,-0.248046 0.14607,-0.07304 0.2632,-0.195682 0.32935,-0.347267 h 0.14607 c 0.0786,0.159854 0.21498,0.285256 0.3831,0.347267 0.0372,0.05236 0.0813,0.09922 0.13229,0.140558 z m 0.36105,-0.0028 c -0.0345,0.0028 -0.0675,0.0028 -0.0992,0.0028 h -0.16261 v -0.104729 c 0.0799,0.0441 0.16812,0.07303 0.26183,0.08268 z m 0.46439,-0.05237 c -0.12953,0.02205 -0.25218,0.03721 -0.3638,0.03583 0.1254,-0.0055 0.24391,-0.0441 0.34313,-0.107488 z m 1.68672,-0.533301 c -0.0703,0.03583 -0.14469,0.07028 -0.22186,0.101978 l -0.0468,-0.165365 -0.0965,0.02755 0.051,0.177768 c -0.0786,0.03306 -0.16123,0.06339 -0.24391,0.0937 l -0.0455,-0.158475 -0.0965,0.02755 0.0469,0.163985 c -0.0813,0.02755 -0.16536,0.05512 -0.24942,0.07993 l -0.0496,-0.172258 -0.0951,0.02755 0.0496,0.172255 c -0.0827,0.02342 -0.16398,0.0441 -0.24529,0.06477 l -0.0468,-0.16674 -0.0965,0.02755 0.0469,0.16123 c -0.0841,0.0193 -0.16812,0.03721 -0.24805,0.05237 l -0.0344,-0.117133 c 0.14607,-0.128157 0.2384,-0.314191 0.2384,-0.523653 0,-0.136426 -0.04,-0.263207 -0.10749,-0.372071 l 0.4837,-0.0083 c 0.17363,0.259073 0.46853,0.428569 0.80339,0.428569 0.0606,0 0.11989,-0.0055 0.17639,-0.01655 z m 0.55535,-0.442348 c 0.0455,-0.05788 0.0854,-0.119891 0.12816,-0.181903 -0.0289,0.06752 -0.0648,0.132292 -0.11025,0.192927 z m 0.0965,-1.066602 c -0.0262,-0.04961 -0.0565,-0.09509 -0.0813,-0.147451 0.0331,0.04134 0.062,0.08819 0.0868,0.137806 z m -0.30454,1.259526 c 0.051,-0.03583 0.0978,-0.07441 0.14056,-0.118509 l 0.022,0.01517 c -0.0413,0.04686 -0.0882,0.09095 -0.14194,0.130916 z m -0.062,0.08406 c -0.0606,0.03997 -0.12541,0.07993 -0.19569,0.117136 l -0.0193,-0.06891 c 0.0675,-0.0193 0.13091,-0.04685 0.19292,-0.07992 z m 0.47542,-3.238393 0.18879,1.33945 -0.20671,0.387237 c -0.0207,-0.0303 -0.0413,-0.06064 -0.0634,-0.08819 l 0.0744,-0.07442 v -0.46577 l -0.44786,-0.30455 0.25769,-0.2949 v -0.29077 l -0.17639,-0.13367 0.10473,-0.15571 z m 0,0"
       id="G-21st-75" />
  </g>
</svg>
