<?xml version="1.0" encoding="UTF-8" standalone="no"?>
<!-- Created with Inkscape (http://www.inkscape.org/) -->

<svg
   width="18.288202mm"
   height="9.1209126mm"
   viewBox="0 0 18.288202 9.1209126"
   version="1.1"
   id="svg26913"
   sodipodi:docname="inkporter-svg-kt7x4d66.svg"
   xmlns:inkscape="http://www.inkscape.org/namespaces/inkscape"
   xmlns:sodipodi="http://sodipodi.sourceforge.net/DTD/sodipodi-0.dtd"
   xmlns="http://www.w3.org/2000/svg"
   xmlns:svg="http://www.w3.org/2000/svg">
  <sodipodi:namedview
     id="namedview26915"
     pagecolor="#ffffff"
     bordercolor="#666666"
     borderopacity="1.0"
     inkscape:pageshadow="2"
     inkscape:pageopacity="0.0"
     inkscape:pagecheckerboard="0"
     inkscape:document-units="mm"
     showgrid="false"
     inkscape:zoom="3.6233469"
     inkscape:cx="273.22805"
     inkscape:cy="1380.3536"
     inkscape:window-width="1920"
     inkscape:window-height="1017"
     inkscape:window-x="-8"
     inkscape:window-y="-8"
     inkscape:window-maximized="1"
     inkscape:current-layer="layer1" />
  <defs
     id="defs26910" />
  <g
     inkscape:label="Layer 1"
     inkscape:groupmode="layer"
     id="layer1"
     transform="translate(-59.350353,-337.47368)">
    <path
       d="m 64.55314,346.58443 c -2.76526,-0.0123 -2.534752,-0.0342 -2.097479,-0.0499 0.09078,-0.004 -0.207918,7e-5 -0.555085,-0.0246 l -0.06161,-0.005 -0.09681,-0.0158 -0.09681,-0.0158 -0.08149,-0.054 -0.08149,-0.054 -0.02166,0.0134 -0.02166,0.0134 0.01311,-0.0212 0.01311,-0.0212 h -0.04266 -0.04266 l -0.08877,-0.0733 -0.08877,-0.0733 h -0.04378 -0.04378 l -0.06882,-0.0608 c -0.03786,-0.0334 -0.10404,-0.0709 -0.147075,-0.0834 -0.04302,-0.0124 -0.106036,-0.047 -0.139998,-0.0768 -0.03394,-0.0299 -0.08659,-0.0592 -0.116957,-0.0653 -0.03038,-0.006 -0.09411,-0.0432 -0.141661,-0.0825 -0.04758,-0.0393 -0.104292,-0.0714 -0.126069,-0.0714 -0.02178,0 -0.07955,-0.033 -0.128376,-0.0733 -0.04881,-0.0403 -0.104099,-0.0733 -0.122838,-0.0733 -0.01873,0 -0.07588,-0.0371 -0.126989,-0.0825 -0.05109,-0.0455 -0.101571,-0.0825 -0.11214,-0.0825 -0.01059,0 -0.08466,-0.0681 -0.164632,-0.15131 -0.07998,-0.0832 -0.16733,-0.17399 -0.194123,-0.20172 -0.02681,-0.0277 -0.04384,-0.0553 -0.03786,-0.0613 0.006,-0.006 -0.0092,-0.0484 -0.03365,-0.0944 -0.02446,-0.046 -0.04448,-0.0941 -0.04448,-0.10684 0,-0.0128 -0.0085,-0.0261 -0.01896,-0.0295 -0.01621,-0.005 -0.03377,-0.14177 -0.03979,-0.30849 -0.0012,-0.0253 0.01212,-0.0912 0.02891,-0.14672 0.0168,-0.0555 0.03359,-0.12089 0.03722,-0.14537 0.0035,-0.0245 0.01872,-0.0534 0.03347,-0.0642 0.01475,-0.0109 0.04074,-0.0445 0.05777,-0.0747 0.07461,-0.1329 0.09874,-0.1654 0.1269,-0.17086 0.09064,-0.0535 0.151142,-0.0647 0.108741,-0.16841 -0.01446,-0.0353 -0.03161,-0.0684 -0.0381,-0.0733 -0.0065,-0.005 -0.01411,-0.0229 -0.01686,-0.0396 l -0.0053,-0.0304 0.07836,-0.0131 c 0.04308,-0.007 0.08309,-0.0206 0.08887,-0.0296 0.0087,-0.0138 0.110982,-0.0292 0.237069,-0.0357 0.0151,-5.9e-4 0.05812,-0.0129 0.09548,-0.0269 l 0.06798,-0.0254 0.01088,0.0177 c 0.011,0.0178 0.09533,0.0194 0.127428,0.003 0.03511,-0.0186 0.127064,-0.0208 0.137932,-0.003 l 0.01118,0.018 0.231415,0.0123 0.231421,0.0123 0.0017,-0.22508 c 0.0012,-0.12379 0.0072,-0.23349 0.01352,-0.24377 l 0.01153,-0.0186 -0.04858,0.009 -0.04857,0.009 v -0.0233 c 0,-0.0349 0.09443,-0.21005 0.113218,-0.21005 0.009,0 0.02095,0.0121 0.02663,0.0269 l 0.0103,0.0269 0.438297,-5.4e-4 0.43829,-5.3e-4 0.05513,0.0325 c 0.03031,0.0179 0.0553,0.037 0.0556,0.0424 1.81e-4,0.005 0.0076,0.0407 0.01639,0.0784 l 0.01592,0.0686 -0.01639,-0.0101 c -0.0091,-0.005 -0.01639,-0.003 -0.01639,0.005 0,0.0389 -0.0821,0.0978 -0.173575,0.12435 l -0.09957,0.0289 0.0097,0.0254 0.0097,0.0254 0.02599,-0.01 c 0.01428,-0.005 0.02598,-9e-4 0.02598,0.0103 0,0.0111 0.0089,0.0203 0.01967,0.0203 0.01083,0 0.03202,0.0124 0.04717,0.0275 0.0151,0.0151 0.04015,0.0275 0.05566,0.0275 h 0.02815 l -0.01,-0.026 -0.01,-0.026 0.02786,-0.0107 c 0.04185,-0.016 0.09436,-0.0129 0.101261,0.006 l 0.0062,0.0168 0.155876,-0.0421 c 0.08574,-0.0232 0.190956,-0.0517 0.233827,-0.0634 l 0.07794,-0.0213 v -0.0264 c 0,-0.0146 0.02154,-0.0319 0.04781,-0.0385 l 0.04781,-0.012 0.01451,0.0234 0.01451,0.0235 0.02938,-0.0113 c 0.01615,-0.006 0.02938,-0.0239 0.02938,-0.0393 v -0.0281 h -0.09169 -0.0917 v -0.0229 l 5e-6,-0.0229 h 0.0901 0.09011 l 0.0017,-0.28426 0.0017,-0.28426 0.03289,-0.0447 c 0.01808,-0.0246 0.05566,-0.0618 0.08345,-0.0826 l 0.05057,-0.0378 0.406757,-0.005 0.406751,-0.005 0.0596,-0.0277 0.0596,-0.0277 v -0.045 c 0,-0.0247 0.0082,-0.045 0.01832,-0.045 h 0.01832 v -0.44754 -0.44753 l 0.09171,-0.006 0.0917,-0.006 -1.1e-5,0.45389 -1.2e-5,0.45389 h 0.01708 c 0.0094,0 0.01972,0.0227 0.02294,0.0504 l 0.0059,0.0504 0.114615,0.003 c 0.06304,9e-4 0.114622,-0.005 0.114622,-0.0138 0,-0.009 0.02066,-0.0161 0.04582,-0.0161 0.02522,0 0.04582,0.008 0.04582,0.0183 v 0.0183 h 0.210902 0.210896 v -0.0183 c 0,-0.0101 0.02475,-0.0183 0.05501,-0.0183 0.03026,0 0.05501,0.008 0.05501,0.0183 0,0.01 0.01651,0.0183 0.0367,0.0183 0.02019,0 0.0367,-0.008 0.0367,-0.0183 0,-0.0101 0.02475,-0.0183 0.05501,-0.0183 h 0.05501 v 0.0206 0.0206 l 0.023,-0.0191 c 0.01264,-0.0105 0.05185,-0.0218 0.08711,-0.0252 l 0.06411,-0.006 -0.0041,-0.0413 c -0.0024,-0.0227 0.0035,-0.0413 0.01375,-0.0413 0.0099,0 0.01814,0.0206 0.01814,0.0458 v 0.0458 h 0.255528 0.255528 l 0.0059,-0.0504 0.0059,-0.0504 0.134655,-0.005 0.134655,-0.005 0.02581,0.0215 c 0.01422,0.0118 0.02581,0.0369 0.02581,0.0559 v 0.0344 h 0.477385 0.477392 l 0.01053,0.0275 0.01054,0.0275 h 0.137107 0.137108 l -0.0061,-0.0183 c -0.0035,-0.01 -0.12384,-0.17891 -0.267719,-0.3753 l -0.261608,-0.35704 0.09197,-0.22809 c 0.05057,-0.12545 0.09186,-0.23509 0.09173,-0.24365 -1.41e-4,-0.008 -0.19201,-0.0874 -0.426381,-0.17518 -0.718206,-0.26901 -1.756985,-0.66167 -1.884084,-0.71217 -0.04542,-0.018 -0.177431,-0.0671 -0.293429,-0.1091 -0.115991,-0.042 -0.235653,-0.0871 -0.26591,-0.10025 -0.03026,-0.0131 -0.162302,-0.0631 -0.293429,-0.11088 -0.13112,-0.0478 -0.271411,-0.10137 -0.311759,-0.11902 -0.04033,-0.0177 -0.09399,-0.0378 -0.119204,-0.0447 -0.02522,-0.007 -0.06236,-0.0203 -0.08253,-0.0295 -0.138798,-0.0636 -0.716198,-0.27106 -0.720336,-0.25879 -0.0053,0.015 -0.154518,-0.029 -0.204078,-0.06 -0.01422,-0.009 -0.05138,-0.0152 -0.08262,-0.014 -0.03126,9e-4 -0.06684,-0.005 -0.07909,-0.0117 -0.02277,-0.014 -0.141158,-0.42076 -0.160775,-0.55228 l -0.01088,-0.0728 0.03705,-0.0369 0.03699,-0.037 0.184696,-0.0468 c 0.101582,-0.0257 0.191184,-0.0428 0.199114,-0.0379 0.008,0.005 0.04261,0.0136 0.07707,0.0192 l 0.06265,0.0103 -0.02429,-0.016 -0.02429,-0.016 0.02686,-0.0644 0.02686,-0.0644 -0.352639,-0.13253 c -0.19402,-0.0729 -0.363158,-0.13897 -0.375929,-0.14686 l -0.02323,-0.0143 0.01995,-0.0373 c 0.01095,-0.0206 0.04565,-0.10822 0.07699,-0.1949 l 0.05701,-0.15762 0.01855,0.0115 0.01855,0.0115 -0.01311,-0.0413 -0.01311,-0.0413 0.02311,0.0143 0.02312,0.0143 -0.01164,-0.0189 c -0.0064,-0.0104 0.0012,-0.0576 0.01762,-0.10484 l 0.02932,-0.0859 0.02997,0.0117 c 0.01651,0.006 0.162016,0.061 0.3234,0.12123 0.161384,0.0602 0.309933,0.11597 0.330106,0.12382 0.02019,0.008 0.06143,0.0129 0.09169,0.011 0.03026,-0.002 0.05915,0.003 0.06419,0.009 0.0053,0.006 0.170098,0.0726 0.366784,0.1463 0.196681,0.0737 0.367148,0.14586 0.3788,0.16035 0.01164,0.0145 0.151955,0.0758 0.311765,0.13617 0.930595,0.35169 1.166755,0.4371 1.182224,0.42753 0.0095,-0.005 0.16345,0.0441 0.342186,0.11096 0.428131,0.1602 0.467963,0.17687 0.492503,0.20612 0.01814,0.0216 0.196727,0.0908 0.62552,0.24218 0.06297,0.0223 0.124079,0.0345 0.13579,0.0273 l 0.0213,-0.0131 -0.01183,0.0191 -0.01183,0.0191 0.0319,0.009 c 0.0175,0.005 0.0996,0.034 0.182354,0.0641 l 0.150475,0.0549 0.02394,-0.0361 0.02399,-0.0361 0.199823,0.0751 c 0.109905,0.0413 0.201304,0.0729 0.203112,0.0703 0.0017,-0.003 0.04677,-0.11408 0.09995,-0.24773 l 0.09667,-0.243 0.103461,7e-5 c 0.05689,2e-5 0.437689,0.0205 0.84619,0.0455 0.709474,0.0434 1.755936,0.0966 4.694789,0.23857 0.731262,0.0353 1.517341,0.0734 1.746836,0.0847 0.229496,0.0113 0.437875,0.0166 0.463059,0.0118 0.02516,-0.005 0.04577,-0.003 0.04577,0.005 0,0.008 0.0083,0.0367 0.01867,0.0636 l 0.01867,0.0491 0.02598,-0.0215 0.02599,-0.0215 0.01943,0.07 c 0.01071,0.0385 0.01949,0.0803 0.01955,0.0929 5.8e-5,0.0126 0.01615,0.0229 0.0357,0.0229 0.0196,0 0.04003,0.007 0.04547,0.016 l 0.0099,0.0159 0.160845,-0.0385 c 0.08848,-0.0211 0.164977,-0.044 0.170022,-0.0506 0.0053,-0.006 0.04056,-0.0207 0.07897,-0.0313 l 0.0698,-0.0192 0.0097,0.0309 c 0.0053,0.0169 0.01867,0.0515 0.02967,0.0768 0.011,0.0253 0.01862,0.0521 0.01686,0.0596 -0.0041,0.0167 0.02019,0.0177 0.05949,0.003 0.03816,-0.0147 0.03658,-0.0288 -0.0083,-0.0771 -0.02054,-0.0221 -0.03183,-0.0401 -0.02505,-0.0401 0.03705,0 0.167723,0.0467 0.19482,0.0696 l 0.03154,0.0266 -0.02692,0.0385 c -0.03184,0.0455 -0.03423,0.067 -0.0075,0.067 0.01065,0 0.01416,-0.0103 0.0079,-0.0229 -0.0063,-0.0127 0.0012,-0.006 0.01662,0.0138 0.01551,0.0202 0.03675,0.0466 0.04723,0.0589 0.01042,0.0122 0.01908,0.0369 0.01926,0.055 1.4e-4,0.0181 0.008,0.045 0.01738,0.0598 l 0.01708,0.0271 -0.01632,0.01 -0.01632,0.01 0.03869,0.15546 c 0.02124,0.0855 0.04536,0.15993 0.05349,0.16541 0.01463,0.01 0.05138,0.22602 0.05209,0.30639 5.39e-4,0.0592 -0.05741,0.10876 -0.144405,0.12345 -0.04144,0.007 -0.0753,0.0199 -0.0753,0.0286 0,0.009 -0.02886,0.0213 -0.06418,0.0279 -0.03529,0.006 -0.06431,0.0215 -0.06447,0.033 l -3.63e-4,0.0209 -0.01563,-0.0247 -0.01563,-0.0247 -0.190378,0.0396 c -0.104707,0.0217 -0.211012,0.0455 -0.236226,0.0525 l -0.04582,0.013 -0.0059,0.0409 -0.0059,0.0409 h 0.02188 0.02183 l -0.01896,0.0229 c -0.01041,0.0126 -0.0247,0.0539 -0.03178,0.0917 l -0.01287,0.0688 h 0.03869 0.03874 v 0.0383 c 0,0.0211 -0.01779,0.0527 -0.03957,0.0704 l -0.03962,0.0321 0.01469,0.0238 0.01469,0.0238 0.03365,-0.0438 0.03365,-0.0437 3.63e-4,0.0241 c 0.0012,0.0788 -0.08948,0.12782 -0.12364,0.0668 l -0.0158,-0.0283 -0.06396,0.28045 -0.06397,0.28045 0.07874,0.0275 c 0.0967,0.0338 0.101805,0.0593 0.01598,0.0798 -0.08608,0.0206 -0.08279,0.0553 0.0081,0.0853 0.04033,0.0133 0.07336,0.0304 0.07336,0.038 0,0.007 -0.03295,0.0194 -0.07327,0.0262 -0.100991,0.0171 -0.106937,0.0401 -0.01937,0.0752 0.04085,0.0163 0.0743,0.0361 0.0743,0.044 0,0.008 -0.03717,0.0198 -0.08253,0.0266 l -0.08252,0.0124 v 0.027 c 0,0.0149 0.02891,0.044 0.06418,0.0649 0.03529,0.0208 0.06418,0.0453 0.06418,0.0543 0,0.009 -0.02891,0.0165 -0.06418,0.0165 h -0.06418 v 0.0427 0.0427 l 0.04582,0.0245 c 0.06404,0.0343 0.05712,0.055 -0.01832,0.055 h -0.06419 v 0.036 c 0,0.0198 0.01651,0.0449 0.0367,0.0557 0.02019,0.0108 0.0367,0.0283 0.0367,0.0387 v 0.019 l -0.0501,-0.006 -0.0501,-0.006 -0.0065,0.0335 c -0.0035,0.0184 0.0079,0.0494 0.0254,0.0687 l 0.03195,0.0354 h -0.03881 -0.03881 l -0.01767,0.0687 c -0.0097,0.0378 -0.02066,0.0853 -0.02435,0.10544 l -0.0067,0.0367 -0.06704,-0.005 -0.06704,-0.005 -0.0094,0.0314 c -0.0206,0.0685 -0.102653,0.45078 -0.102653,0.47803 0,0.016 0.06396,0.1975 0.142129,0.40338 l 0.142123,0.37433 0.24233,0.22571 0.242325,0.22571 0.249745,-0.0835 0.249745,-0.0835 0.07185,0.0324 c 0.0395,0.0178 0.07185,0.0375 0.07185,0.0436 0,0.006 -0.05366,0.0266 -0.119199,0.0454 -0.06556,0.0187 -0.119204,0.0427 -0.119204,0.0532 0,0.0105 -0.0047,0.0143 -0.01071,0.008 -0.0059,-0.006 -0.05747,0.005 -0.114616,0.0259 -0.05712,0.0201 -0.114452,0.0386 -0.12734,0.0409 -0.01288,0.003 -0.02206,0.012 -0.02036,0.0215 0.0017,0.01 0.119515,0.12297 0.261831,0.25224 0.142316,0.12928 0.288331,0.26382 0.32447,0.29899 l 0.06571,0.0639 0.02364,-0.0285 c 0.02997,-0.0361 0.06322,-0.0363 0.09296,-3.5e-4 l 0.0233,0.0281 -0.02166,0.0475 -0.02166,0.0475 0.03271,-0.0138 c 0.09514,-0.0399 0.179169,-0.0186 0.276193,0.0702 l 0.04178,0.0382 -0.137909,0.13872 -0.137909,0.13873 -0.07598,0.2473 c -0.04179,0.13602 -0.07662,0.26226 -0.07741,0.28054 l -0.0012,0.0332 -0.113586,-0.007 -0.113586,-0.007 -0.0508,-0.0333 -0.0508,-0.0333 -0.03259,0.0403 -0.0326,0.0403 -0.08725,-0.005 -0.08725,-0.005 -0.02686,-0.0708 -0.02686,-0.0708 0.02083,-0.0552 0.02083,-0.0552 -0.07721,-0.0828 c -0.570991,-0.61305 -0.808277,-0.8569 -0.827654,-0.85055 -0.04173,0.0137 -0.175664,-9.1e-4 -0.165136,-0.0178 0.0041,-0.007 -0.09019,-0.0684 -0.209994,-0.13631 l -0.217843,-0.12364 -0.01855,-0.0604 -0.01855,-0.0604 0.09055,-0.0195 c 0.04981,-0.0107 0.10414,-0.0195 0.120755,-0.0195 h 0.0302 l -0.0632,-0.0663 -0.0632,-0.0663 -0.531551,0.0126 -0.531556,0.0126 -0.01404,0.0215 c -0.0077,0.0119 -0.01908,0.0518 -0.02528,0.0887 -0.0062,0.0369 -0.04331,0.11434 -0.08251,0.17211 -0.03921,0.0578 -0.07127,0.11356 -0.07127,0.12399 0,0.0315 -0.255884,0.26475 -0.317985,0.28977 -0.0319,0.0129 -0.0942,0.0548 -0.138489,0.0932 -0.0443,0.0385 -0.09586,0.0699 -0.114615,0.0699 -0.01873,0 -0.03413,0.008 -0.03413,0.0177 0,0.01 -0.01194,0.0132 -0.02651,0.007 l -0.02651,-0.0102 -0.06563,0.0656 -0.06562,0.0657 -0.08331,0.0209 -0.08331,0.0209 -0.07394,0.0617 -0.07394,0.0618 -0.07285,0.0117 -0.07285,0.0117 -0.07309,0.061 c -0.06398,0.0534 -0.167945,0.0985 -0.228144,0.0988 -0.01076,6e-5 -0.04712,0.0246 -0.08065,0.0546 -0.05759,0.0514 -0.10946,0.0745 -0.22383,0.0997 -0.02698,0.006 -0.07441,0.0322 -0.105439,0.0583 l -0.05642,0.0474 -0.112176,0.0262 c -0.0617,0.0144 -0.12566,0.034 -0.142135,0.0436 l -0.02997,0.0175 -0.816084,0.0814 c -1.770176,9.1e-4 -4.596671,-0.005 -6.281108,-0.0115 z m -2.20454,-0.19725 c 0.0053,-0.0202 0.0083,-0.0367 0.0067,-0.0367 -0.0017,10e-6 -0.04413,0.0161 -0.09457,0.0359 l -0.0917,0.0358 0.08497,9.1e-4 0.08497,9e-4 0.0096,-0.0367 z m 0.33473,-0.032 c 0.01908,-0.11302 0.02628,-0.12855 0.06435,-0.13851 l 0.03641,-0.01 0.02722,0.0272 c 0.01492,0.0149 0.02734,0.0534 0.02745,0.0855 3.57e-4,0.0784 0.01598,0.096 0.09,0.10098 l 0.06278,0.005 0.01487,-0.0235 c 0.0081,-0.0129 0.01504,-0.0486 0.01516,-0.0794 3.57e-4,-0.0664 0.02903,-0.0999 0.08525,-0.0999 h 0.04095 l 0.0088,0.0321 c 0.0047,0.0177 0.01411,0.0635 0.0206,0.10187 l 0.01183,0.0698 0.07692,-0.005 0.07692,-0.005 0.0098,-0.0733 c 0.0053,-0.0403 0.01622,-0.0838 0.02406,-0.0964 l 0.01428,-0.0231 -0.03921,-0.0551 c -0.02159,-0.0303 -0.04706,-0.0503 -0.05665,-0.0444 -0.0096,0.006 -0.0151,0.003 -0.01235,-0.006 -0.05817,-0.35378 -0.209509,-0.10101 -0.396621,-0.0219 l -0.01762,-0.0177 c 0.110835,-0.26431 -0.04887,-0.16819 -0.292276,0.0935 l -0.08043,0.085 0.0077,0.0617 c 0.0041,0.034 0.01088,0.072 0.01492,0.0847 l 0.0072,0.0229 h 0.0731 0.07309 z m 0.998548,0.055 c -7e-5,-0.007 -0.04219,-0.036 -0.09358,-0.0632 l -0.09342,-0.0494 0.01076,0.0403 c 0.0059,0.0221 0.01095,0.0506 0.01106,0.0632 l 3.57e-4,0.0229 h 0.08253 c 0.04542,0 0.08246,-0.006 0.08237,-0.0138 z m 0.66036,-0.022 v -0.0358 l -0.0596,0.0242 c -0.03278,0.0133 -0.07198,0.0287 -0.08711,0.0343 -0.01516,0.005 0.01171,0.0108 0.0596,0.0115 l 0.08711,9.1e-4 z m 0.340611,-0.0548 c 0.0064,-0.0461 0.02441,-0.0937 0.0398,-0.10594 l 0.0281,-0.0223 0.03354,0.0179 0.03354,0.0179 0.01211,0.0914 0.01212,0.0914 h 0.07876 0.07876 l 0.01527,-0.0963 0.01528,-0.0963 0.04079,-0.005 0.04079,-0.005 -0.07075,-0.0951 c -0.545334,-0.82306 0.192969,-0.66274 -0.47302,0.0446 l -0.08212,0.0847 0.01287,0.0857 0.01288,0.0857 0.07972,-0.005 0.07972,-0.005 0.01176,-0.0838 z m 0.649696,0.055 v -0.0355 l -0.03675,-0.0117 c -0.02025,-0.006 -0.06291,-0.0337 -0.09485,-0.0606 l -0.05806,-0.0489 0.01229,0.0616 c 0.0068,0.0339 0.01229,0.077 0.01229,0.096 v 0.0344 h 0.08253 0.08252 z m 0.660202,0.0131 c 0,-0.0177 -0.01639,-0.0166 -0.06418,0.005 l -0.0367,0.0159 0.05045,-0.003 c 0.02774,-0.002 0.05045,-0.009 0.05045,-0.0171 z m 0.337469,-0.01 c 0.0053,-0.0177 0.01164,-0.0614 0.01393,-0.0972 l 0.0041,-0.0651 0.05466,-0.005 0.05466,-0.005 0.01487,0.0234 c 0.0081,0.0129 0.01516,0.0483 0.01545,0.0785 3.63e-4,0.0302 0.0075,0.0659 0.01592,0.0792 l 0.01533,0.0242 0.07149,-0.005 0.07149,-0.005 0.0098,-0.0733 c 0.01282,-0.0957 0.02891,-0.11921 0.08173,-0.11921 h 0.04354 l 0.0088,0.0321 c 0.0047,0.0177 0.01382,0.062 0.01996,0.0985 l 0.01118,0.0664 0.08213,0.002 0.08213,0.002 v -0.0647 c 0,-0.0845 0.02867,-0.13567 0.0759,-0.13567 h 0.03793 l -0.05408,-0.0617 c -0.02973,-0.0339 -0.08074,-0.10816 -0.113281,-0.16505 -0.06224,-0.10878 -0.08107,-0.12006 -0.128604,-0.077 l -0.02914,0.0264 -0.102731,0.005 -0.102729,0.005 -0.05548,-0.0395 -0.05548,-0.0395 -0.0525,0.10522 c -0.02886,0.0579 -0.09996,0.15438 -0.157955,0.21446 l -0.105445,0.10924 v 0.0482 c 0,0.0637 0.01159,0.0726 0.09351,0.0726 h 0.06907 z m 1.000591,0 -5.85e-4,-0.032 -0.09684,-0.0561 -0.09684,-0.056 0.01744,0.0882 0.01744,0.0881 h 0.08009 0.08009 l -5.85e-4,-0.0321 z m 0.660892,0.0138 c 0,-0.0232 -0.03746,-0.0232 -0.07336,0 l -0.02751,0.0178 0.05045,3.5e-4 c 0.02774,1.4e-4 0.05045,-0.008 0.05045,-0.018 z m 0.341279,-0.078 0.01633,-0.0963 h 0.05501 0.05501 l 0.01674,0.094 0.01674,0.094 0.07854,0.002 0.07854,0.002 0.01217,-0.0864 c 0.01316,-0.0939 0.04582,-0.1334 0.09881,-0.11954 l 0.03389,0.009 0.01112,0.0557 c 0.0062,0.0306 0.01112,0.0752 0.01112,0.0992 v 0.0435 h 0.08125 0.08125 l 0.0059,-0.0413 0.0059,-0.0413 -0.07991,-0.0535 c -0.097,-0.0649 -0.213394,-0.20767 -0.270369,-0.33165 -0.184033,-0.56716 -0.01247,-0.59167 -0.179836,-0.0876 -0.04202,0.12659 -0.155573,0.29881 -0.243595,0.36955 l -0.07165,0.0576 0.0075,0.0641 0.0075,0.0641 h 0.07795 0.07794 l 0.01632,-0.0963 z m 1.652692,0.0229 c 0.0066,-0.0861 0.01487,-0.10421 0.0577,-0.12714 l 0.03646,-0.0195 0.02879,0.0288 c 0.0158,0.0157 0.02891,0.055 0.02909,0.0871 1.4e-4,0.0321 0.0072,0.0692 0.01563,0.0825 l 0.01534,0.0242 0.07149,-0.005 0.07149,-0.005 0.0098,-0.0733 c 0.01282,-0.0957 0.02891,-0.11919 0.08173,-0.11919 h 0.04354 l 0.0088,0.032 c 0.0047,0.0177 0.01393,0.0626 0.02019,0.0997 l 0.01135,0.0676 0.07697,-0.004 0.07697,-0.004 0.0035,-0.0458 c 0.0017,-0.0253 0.01241,-0.0691 0.0233,-0.0975 l 0.01972,-0.0517 0.05028,0.005 0.05028,0.005 0.0035,0.0275 c 0.0017,0.0151 0.0085,0.0585 0.01475,0.0963 l 0.01124,0.0688 h 0.05267 c 0.0758,0 0.110701,-0.0175 0.110701,-0.0555 v -0.0332 l -0.0596,-0.037 c -0.09207,-0.0572 -0.187819,-0.16493 -0.266103,-0.29945 l -0.07134,-0.1226 -0.05361,0.0353 -0.05361,0.0353 -0.0917,6e-5 -0.09169,5e-5 -0.05806,-0.0354 -0.05805,-0.0354 -0.05203,0.10423 c -0.05016,0.10058 -0.217048,0.29069 -0.28842,0.32857 l -0.0347,0.0185 0.01235,0.0492 0.01235,0.0493 0.07695,-0.005 0.07695,-0.005 0.0047,-0.0642 z m 1.916818,-0.0501 c 0.01767,-0.005 0.03207,-0.0204 0.03207,-0.034 v -0.0248 l -0.02751,0.0105 c -0.01516,0.005 -0.02751,0.0179 -0.02751,0.0269 0,0.009 -0.01188,0.0164 -0.02646,0.0164 -0.01451,0 -0.03242,0.01 -0.03968,0.0215 l -0.01328,0.0215 0.03511,-0.0144 c 0.01931,-0.008 0.04957,-0.0185 0.06719,-0.0235 z m -10.485261,-0.0782 c -0.0062,-0.0101 -0.02733,-0.0268 -0.04694,-0.0373 l -0.03564,-0.0191 v 0.0162 c 0,0.009 0.01855,0.0252 0.04126,0.036 0.0532,0.0256 0.05472,0.0258 0.04132,0.005 z m 10.756672,-0.0464 c 0.05753,-0.0297 0.06643,-0.0615 0.03423,-0.12165 -0.01095,-0.0205 -0.01539,-0.0552 -0.0098,-0.0773 l 0.01007,-0.0402 0.03693,-0.003 0.03693,-0.003 0.05454,0.0662 0.05454,0.0662 0.07535,-0.034 0.07535,-0.034 -0.01363,-0.0471 c -0.0075,-0.0259 -0.01539,-0.0769 -0.0175,-0.11316 l -0.0041,-0.066 0.04788,0.005 c 0.04447,0.005 0.05812,0.0166 0.121557,0.10457 l 0.02364,0.0328 0.04764,-0.0217 c 0.02622,-0.012 0.04389,-0.0278 0.03927,-0.0353 -0.0047,-0.007 0.006,-0.0125 0.02353,-0.0111 l 0.0319,0.003 -0.0059,-0.0458 c -0.0029,-0.0253 -0.0073,-0.0747 -0.0092,-0.11004 l -0.0035,-0.0642 0.0494,-0.005 0.04939,-0.005 0.02845,0.055 c 0.04009,0.0775 0.05987,0.0844 0.131939,0.0455 l 0.06345,-0.0341 -0.01311,-0.0458 c -0.0072,-0.0253 -0.01381,-0.0695 -0.01458,-0.0986 l -0.0012,-0.0527 0.03266,-0.0206 0.03266,-0.0206 0.05442,0.0621 c 0.02997,0.0341 0.05443,0.0695 0.05443,0.0786 v 0.0165 l 0.03207,-0.0177 c 0.01767,-0.01 0.04665,-0.0285 0.06442,-0.0419 l 0.0323,-0.0243 -0.02264,-0.0951 -0.02265,-0.0951 -0.06472,9e-4 c -0.03558,3.5e-4 -0.09891,-0.008 -0.140695,-0.0197 -0.101764,-0.0275 -0.12669,-0.0142 -0.153594,0.0818 l -0.02277,0.0813 -0.378155,0.003 c -0.207982,9.1e-4 -0.388363,9.1e-4 -0.400853,-5.8e-4 l -0.02271,-0.003 0.01048,0.097 0.01048,0.0971 -0.02891,0.12416 c -0.01586,0.0683 -0.04513,0.156 -0.06495,0.19489 -0.01984,0.0388 -0.03019,0.0771 -0.02311,0.0851 0.0072,0.008 0.0035,0.009 -0.0081,0.003 l -0.02102,-0.012 -0.01059,0.0276 c -0.01206,0.0315 0.02265,0.11888 0.04729,0.11888 0.009,0 0.04068,-0.0126 0.07041,-0.028 z M 61.224527,346.0663 c 0.01252,-0.0151 0.0182,-0.0419 0.01264,-0.0596 -0.02909,-0.0924 -0.06208,-0.16908 -0.06957,-0.16159 -0.0047,0.005 -0.0087,-0.01 -0.0089,-0.032 0.0047,-0.30995 0.03418,-0.34298 -0.308254,-0.34298 h -0.300796 l -0.0192,-0.0551 -0.01919,-0.055 h -0.02722 c -0.01498,0 -0.03254,0.0168 -0.03904,0.0371 -0.0065,0.0205 -0.03119,0.0499 -0.0549,0.0654 -0.03377,0.0221 -0.08251,0.10912 -0.08251,0.14727 0,0.004 0.02277,0.0178 0.05062,0.0322 l 0.05062,0.0262 0.05145,-0.0715 0.05145,-0.0715 h 0.03325 c 0.01826,0 0.0436,0.0125 0.05624,0.0277 l 0.023,0.0277 -0.02991,0.0783 c -0.03863,0.10112 -0.03898,0.099 0.023,0.13106 l 0.05297,0.0274 0.0491,-0.0708 0.0491,-0.0708 0.04378,-0.008 c 0.02406,-0.005 0.0429,-0.004 0.04179,0.003 -0.0012,0.006 0.0035,0.0237 0.01059,0.0394 0.0069,0.0156 -1.4e-4,0.0645 -0.01575,0.10874 l -0.02839,0.0804 0.02242,0.0138 c 0.01229,0.007 0.03026,0.009 0.03986,0.003 l 0.01744,-0.0108 -0.01188,0.0193 c -0.0065,0.0106 -3.57e-4,0.0237 0.01387,0.0292 l 0.02575,0.01 0.04998,-0.0722 c 0.05004,-0.0723 0.08564,-0.0865 0.136177,-0.0545 l 0.02698,0.0171 -0.0199,0.0698 c -0.01095,0.0384 -0.02546,0.0828 -0.03231,0.0987 l -0.01247,0.029 0.04202,0.0203 c 0.05817,0.0281 0.07976,0.0271 0.106124,-0.005 z m 15.63245,-0.0918 c 0.03307,-0.0253 0.07282,-0.0458 0.08836,-0.0458 0.01551,0 0.04249,-0.0218 0.05996,-0.0484 l 0.03172,-0.0484 -0.0088,-0.0914 -0.0088,-0.0914 -0.0596,-0.0557 -0.05959,-0.0557 -0.08964,-0.009 -0.08964,-0.009 -0.06418,0.0436 -0.06418,0.0435 -0.02938,0.0764 -0.02938,0.0764 0.02259,0.0703 c 0.02791,0.087 0.06591,0.1323 0.137143,0.16375 0.07719,0.034 0.0953,0.0319 0.163425,-0.0201 z m 0.6847,-0.19715 0.0182,-0.0229 -0.04746,-0.0458 c -0.05197,-0.0503 -0.05595,-0.0511 -0.07783,-0.0157 l -0.01498,0.0243 0.03903,0.0416 c 0.04477,0.0476 0.0577,0.0505 0.08301,0.0186 z m -0.252104,-0.25412 c 0,-0.009 -0.0124,-0.0164 -0.02751,-0.0164 -0.0151,0 -0.02751,0.0121 -0.02751,0.0269 v 0.0269 l 0.02751,-0.0105 c 0.0151,-0.005 0.02751,-0.0179 0.02751,-0.0269 z M 60.234213,345.41 c 1.75e-4,-0.0349 -0.05724,-0.0309 -0.10939,0.007 l -0.057,0.0421 0.04197,0.0324 0.04197,0.0324 0.04114,-0.0502 c 0.02265,-0.0275 0.04121,-0.0566 0.04126,-0.0645 z m 16.11429,0.0589 c 0.109998,-0.0417 0.179983,-0.16493 0.142427,-0.25081 -0.0078,-0.0177 -0.01316,-0.0373 -0.012,-0.0435 0.0012,-0.006 -0.01791,-0.0301 -0.04231,-0.0531 l -0.04442,-0.0417 -0.09184,-0.009 -0.09184,-0.009 -0.06464,0.0646 -0.06464,0.0647 v 0.0745 0.0745 l 0.05589,0.0636 c 0.03073,0.035 0.07407,0.0672 0.09628,0.0715 0.02218,0.005 0.046,0.009 0.05297,0.0103 0.0069,9.1e-4 0.03582,-0.006 0.06418,-0.0171 z m -2.701602,-0.15568 c -0.03453,-0.0527 -0.02534,-0.0506 -0.09592,-0.0209 l -0.05665,0.0238 0.04045,0.0569 0.04044,0.057 0.0505,-0.036 0.0505,-0.036 z m -13.724359,0.0121 c 0,-0.009 -0.01305,-0.0214 -0.02903,-0.0275 -0.04489,-0.0172 -0.0508,-0.0135 -0.02599,0.0164 0.02528,0.0305 0.05501,0.0365 0.05501,0.0111 z m 13.920466,-0.17319 -0.01861,-0.0187 -0.03705,0.0335 -0.03705,0.0335 0.02206,0.0266 0.02206,0.0266 0.03359,-0.0415 0.03359,-0.0415 z m 0.127205,-0.16105 c 0,-0.01 -0.0082,-0.0132 -0.01832,-0.007 -0.01007,0.006 -0.01832,0.0197 -0.01832,0.0297 0,0.01 0.0082,0.0132 0.01832,0.007 0.01007,-0.006 0.01832,-0.0196 0.01832,-0.0297 z m 0.896895,-0.53676 0.02113,-0.0255 -0.0053,-0.25422 -0.0053,-0.25422 -0.254223,-0.005 -0.254229,-0.005 -0.02546,0.0211 -0.02546,0.0211 v 0.25297 0.25297 l 0.02294,0.009 c 0.01259,0.005 0.131261,0.01 0.263668,0.0107 l 0.240751,9.1e-4 0.02113,-0.0254 z m -13.653719,-0.94625 c 0.009,-0.002 0.02224,0.006 0.0295,0.018 l 0.01323,0.0215 0.08292,-0.0125 0.08292,-0.0125 -0.0085,-0.0325 -0.0085,-0.0325 0.04781,-0.009 0.04781,-0.009 0.01639,0.0292 0.01639,0.0292 0.02428,-0.0546 c 0.0134,-0.0301 0.03881,-0.0706 0.05653,-0.0902 0.04425,-0.0488 0.04038,-0.0958 -0.01059,-0.1292 -0.02352,-0.0155 -0.05361,-0.0483 -0.06682,-0.0729 -0.02997,-0.056 -0.105797,-0.0833 -0.231298,-0.0833 -0.05337,0 -0.102145,-0.008 -0.108378,-0.0183 -0.0062,-0.0101 -0.03558,-0.0183 -0.06527,-0.0183 h -0.05396 v 0.24623 0.24623 l 0.03207,0.007 c 0.01767,0.005 0.04448,9e-4 0.0596,-0.006 0.0151,-0.007 0.03482,-0.0148 0.04378,-0.0167 z m 0.552222,-0.0914 c 0.09662,-0.0268 0.12566,-0.0341 0.141549,-0.0359 0.0072,-5.9e-4 0.0084,-0.0138 0.0029,-0.0288 l -0.01048,-0.0274 -0.04852,0.0108 c -0.02668,0.006 -0.09536,0.0233 -0.152611,0.0386 l -0.104093,0.0278 0.01042,0.0271 0.01041,0.0271 0.03869,-0.01 c 0.02124,-0.005 0.07168,-0.0186 0.112029,-0.0299 z m 1.21954,-0.33018 c 0,-0.008 -0.01211,-0.0138 -0.02698,-0.0116 -0.04273,0.006 -0.04829,0.0215 -0.0089,0.0245 0.01972,9e-4 0.03587,-0.005 0.03587,-0.0129 z m -0.04647,-0.0555 c 0.01551,0 0.02815,-0.0124 0.02815,-0.0275 0,-0.0151 -0.0082,-0.0275 -0.01832,-0.0275 h -0.01832 l 3.57e-4,-0.16048 3.57e-4,-0.16045 0.03587,-0.0458 c 0.01972,-0.0253 0.03605,-0.0365 0.03629,-0.0251 1.81e-4,0.0114 0.01691,0.0251 0.0371,0.0303 l 0.0367,0.01 v 0.0489 c 0,0.0269 0.01247,0.0613 0.02768,0.0766 0.01522,0.0152 0.02751,0.0497 0.02727,0.0766 -1.76e-4,0.0269 0.0047,0.0797 0.01095,0.11731 l 0.01135,0.0684 0.03155,-0.0168 c 0.01732,-0.009 0.05566,-0.0201 0.08515,-0.024 l 0.05361,-0.007 0.02751,-0.0535 c 0.0151,-0.0294 0.03506,-0.0589 0.04425,-0.0657 l 0.01674,-0.012 -0.03049,-0.0305 c -0.01674,-0.0167 -0.03049,-0.0426 -0.03049,-0.0572 0,-0.0365 0.05297,-0.0541 0.09116,-0.0302 l 0.03131,0.0195 0.03149,-0.0533 c 0.01732,-0.0293 0.03886,-0.0533 0.04788,-0.0533 0.0091,0 0.03751,-0.0196 0.06343,-0.0436 l 0.04705,-0.0435 -0.01176,-0.0307 -0.01176,-0.0307 0.03629,-0.0403 c 0.01995,-0.0222 0.04138,-0.0548 0.04758,-0.0724 l 0.01135,-0.0321 h -0.391228 -0.391242 l -0.05057,0.0398 c -0.0278,0.0219 -0.06192,0.067 -0.07583,0.10027 l -0.02528,0.0605 v 0.24668 c 0,0.13566 0.0053,0.26 0.01135,0.27633 l 0.01135,0.0297 0.04295,-0.0282 c 0.02364,-0.0155 0.05566,-0.0282 0.07115,-0.0282 z m 0.13819,-0.0183 c 0,-0.01 -0.01651,-0.0183 -0.0367,-0.0183 -0.02019,0 -0.0367,0.008 -0.0367,0.0183 0,0.01 0.01651,0.0183 0.0367,0.0183 0.02019,0 0.0367,-0.008 0.0367,-0.0183 z m -0.04237,-0.32552 c -0.0047,-0.0177 -0.0083,-0.003 -0.0083,0.0321 0,0.0353 0.0035,0.0498 0.0083,0.032 0.0047,-0.0177 0.0047,-0.0465 0,-0.0642 z m 3.710175,-0.24094 0.119204,-0.012 -0.08716,-0.0145 c -0.09313,-0.0155 -0.381686,-0.0134 -0.443863,0.003 l -0.03746,0.01 0.04582,0.0129 c 0.05689,0.0161 0.245473,0.0163 0.403457,3.6e-4 z m -1.380011,-0.0152 c -0.02774,-0.005 -0.07313,-0.005 -0.100862,0 -0.02774,0.005 -0.0053,0.007 0.05045,0.007 0.05548,0 0.07817,-0.004 0.05045,-0.007 z m 10.613654,-0.1949 c 0.046,-0.25554 0.0254,-0.285 -0.02867,-0.041 l -0.04711,0.21236 h 0.02247 0.02247 z m -9.783811,-0.0487 v -0.0367 h -0.127291 -0.127294 l -0.01129,0.0183 c -0.0062,0.01 -0.0062,0.0266 0,0.0367 l 0.01129,0.0183 h 0.127294 0.127292 z m 10.850845,-1.72731 -0.0096,-0.0241 -0.0012,0.0351 c -5.86e-4,0.0193 0.0035,0.0301 0.0097,0.0241 0.0061,-0.006 0.0067,-0.0219 0.0012,-0.0352 z m -9.615515,-0.19691 c -0.0087,-0.007 -0.0901,-0.0411 -0.180872,-0.0745 -0.173575,-0.0639 -0.192777,-0.0773 -0.180446,-0.12602 l 0.0076,-0.0301 -0.547458,-0.21548 c -0.301107,-0.11852 -0.552117,-0.21549 -0.557806,-0.21549 -0.01738,0 -0.05566,0.10672 -0.04465,0.12455 0.0059,0.009 0.04981,0.0314 0.09804,0.0494 0.04822,0.0179 0.19087,0.074 0.316951,0.12445 0.384201,0.15393 0.733715,0.28817 0.916946,0.3522 l 0.174224,0.0609 0.0067,-0.018 c 0.0035,-0.01 -5.39e-4,-0.0243 -0.0092,-0.0318 z m 9.533504,-0.1622 c -0.01674,-0.0729 -0.03663,-0.1326 -0.04418,-0.1326 -0.0075,0 -0.0089,0.0244 -0.0029,0.0541 l 0.01083,0.0541 -0.05256,0.0111 c -0.02891,0.006 -0.07541,0.021 -0.10335,0.0331 l -0.0508,0.0217 0.02891,0.0413 c 0.03067,0.0437 0.08136,0.0526 0.135539,0.0236 l 0.03295,-0.0177 0.03459,0.0253 c 0.01902,0.0139 0.03617,0.0238 0.03805,0.0218 0.0017,-0.002 -0.01024,-0.0631 -0.02704,-0.13604 z m -0.132244,0.0491 c 0,-0.009 0.01651,-0.0167 0.0367,-0.0167 0.02019,0 0.0367,0.003 0.0367,0.007 0,0.005 -0.01651,0.0113 -0.0367,0.0167 -0.02019,0.005 -0.0367,0.003 -0.0367,-0.007 z m -0.357888,-0.3513 c -0.01463,-0.0899 -0.03202,-0.11458 -0.07042,-0.0998 l -0.02733,0.0105 0.01076,0.0424 c 0.01416,0.0559 0.05939,0.12491 0.08181,0.12491 h 0.01785 z m -0.09168,-0.10926 c 0.08545,-0.0229 0.09158,-0.0283 0.06875,-0.0617 l -0.01346,-0.0197 -0.119199,0.0299 -0.119204,0.0299 0.0367,0.0214 c 0.04623,0.0269 0.047,0.0269 0.146449,3.6e-4 z m -0.375687,-0.0329 c 0.04062,-0.0407 0.03418,-0.0464 -0.01955,-0.0177 -0.01948,0.0105 -0.03547,0.0269 -0.03547,0.0367 0,0.0265 0.01446,0.0215 0.05501,-0.0189 z m -10.44544,-0.10769 c -0.01943,-0.0189 -0.0415,-0.0308 -0.04905,-0.0264 -0.0075,0.005 -0.01375,-0.003 -0.01375,-0.0146 0,-0.0123 -0.0053,-0.0175 -0.01118,-0.0113 -0.0062,0.006 -0.05062,-0.005 -0.09887,-0.0234 -0.04822,-0.019 -0.09252,-0.0297 -0.09843,-0.0238 -0.0059,0.006 -0.01592,-0.003 -0.02224,-0.0193 -0.0063,-0.0165 -0.01744,-0.0263 -0.0247,-0.0219 -0.0072,0.005 -0.03611,-0.004 -0.06418,-0.0184 -0.0281,-0.0146 -0.05841,-0.0219 -0.06745,-0.0163 -0.02072,0.0129 -0.02066,0.003 3.63e-4,-0.0521 l 0.01674,-0.0441 -0.742172,-0.28071 -0.742172,-0.28071 -0.01698,0.0169 c -0.0094,0.009 -0.02154,0.0415 -0.02715,0.0714 l -0.01019,0.0544 0.179491,0.0713 c 0.09871,0.0392 0.290901,0.11065 0.427067,0.15867 0.136164,0.0481 0.379618,0.13858 0.540996,0.20123 0.161384,0.0627 0.318185,0.11638 0.348442,0.11941 0.06646,0.006 0.09334,0.014 0.165054,0.0455 0.0481,0.0211 0.316863,0.12168 0.337896,0.12644 0.0041,9.1e-4 -0.0081,-0.0137 -0.02751,-0.0325 z m -2.614902,-1.00348 c -0.01556,-0.0156 -0.04395,-0.0312 -0.0631,-0.0349 -0.01914,-0.004 -0.03687,-0.007 -0.03939,-0.008 -0.0024,-5.7e-4 -0.0098,-5.7e-4 -0.01627,1.5e-4 -0.0064,9.1e-4 -0.01767,-0.008 -0.02494,-0.0199 l -0.01323,-0.0215 -0.01076,0.0281 -0.01077,0.0281 0.03599,0.0114 c 0.01978,0.006 0.03131,0.0189 0.02563,0.0282 l -0.01042,0.0168 0.02511,-0.01 c 0.01382,-0.005 0.04518,-0.002 0.06972,0.007 0.05601,0.0211 0.06928,0.0104 0.03254,-0.0264 z"
       id="G-21st-Lorraine" />
  </g>
</svg>
