<?xml version="1.0" encoding="UTF-8" standalone="no"?>
<!-- Created with Inkscape (http://www.inkscape.org/) -->

<svg
   width="20.08259mm"
   height="8.3205948mm"
   viewBox="0 0 20.08259 8.3205948"
   version="1.1"
   id="svg1371"
   sodipodi:docname="inkporter-svg-pyuuhgqu.svg"
   xmlns:inkscape="http://www.inkscape.org/namespaces/inkscape"
   xmlns:sodipodi="http://sodipodi.sourceforge.net/DTD/sodipodi-0.dtd"
   xmlns="http://www.w3.org/2000/svg"
   xmlns:svg="http://www.w3.org/2000/svg">
  <sodipodi:namedview
     id="namedview1373"
     pagecolor="#ffffff"
     bordercolor="#666666"
     borderopacity="1.0"
     inkscape:pageshadow="2"
     inkscape:pageopacity="0.0"
     inkscape:pagecheckerboard="0"
     inkscape:document-units="mm"
     showgrid="false"
     inkscape:zoom="0.32026164"
     inkscape:cx="1055.3871"
     inkscape:cy="113.96931"
     inkscape:window-width="1920"
     inkscape:window-height="1017"
     inkscape:window-x="-8"
     inkscape:window-y="-8"
     inkscape:window-maximized="1"
     inkscape:current-layer="layer1" />
  <defs
     id="defs1368" />
  <g
     inkscape:label="Layer 1"
     inkscape:groupmode="layer"
     id="layer1"
     transform="translate(-280.67268,47.925766)">
    <path
       d="m 300.55126,-43.888129 -0.30593,-0.09233 0.0634,-0.103353 0.051,-0.06615 -1.08865,-2.255848 h -0.26872 v -0.401009 h -0.22875 v 0.0014 h -0.001 v 0.343129 l -3.56223,-0.55397 H 291.695 v -0.172255 l -0.31557,-0.03859 v -0.180523 h 0.25356 v -0.16812 h -0.25356 v -0.16123 h 0.12953 v -0.101974 h -0.35415 v 0.101974 h 0.14332 v 0.05237 l -0.2701,0.398251 -0.55535,-0.428568 -0.19155,0.267338 -1.73908,-0.294897 -0.0303,0.121267 -2.90077,-0.304549 -0.0813,0.771701 -3.55258,-0.373447 0.003,-0.02618 h -10e-4 l -0.4837,-0.199814 -0.72622,-0.07579 -0.0965,0.916397 h 10e-4 v 0.0014 l 0.7276,0.06615 0.51401,-0.0937 10e-4,-0.01655 3.72346,0.389985 -0.0179,0.177768 -1.25401,-0.132291 -0.0717,0.675237 h 0.001 v 0.0014 l 3.68074,0.387227 -0.15296,0.54157 h 10e-4 l 0.42857,0.16261 -0.0469,0.104729 h -0.41065 v 0.334864 h 0.32384 v 0.257693 l 0.4451,0.443728 -0.11024,0.100598 -0.21498,-0.214976 h -0.18603 v 0.0014 l -0.11989,0.118512 h -0.5209 l -0.22875,0.228755 h 0.74414 l 0.0868,0.08682 v 0.143316 l -0.31971,0.157096 h -0.96463 c -0.20533,0 -0.38034,0.08544 -0.50574,0.172254 -0.12402,0.08544 -0.19706,0.172255 -0.19706,0.172255 l 0.16399,0.238403 c -0.11438,0.07579 -0.21222,0.1819 -0.28801,0.305922 l -0.0524,-0.03996 h -10e-4 l -0.0606,0.07993 0.0648,0.04823 c -0.0386,0.07579 -0.0689,0.157099 -0.091,0.239779 l -0.0799,-0.02342 -0.001,0.0014 -0.0276,0.09508 0.0868,0.02618 c -0.0165,0.09095 -0.022,0.186034 -0.0152,0.279742 l -0.1006,0.0193 0.0179,0.09922 0.0937,-0.01792 c 0.0138,0.09233 0.0413,0.181899 0.0813,0.268714 l -0.0855,0.06048 -0.001,0.0014 0.0565,0.0813 0.0772,-0.05236 c 0.0524,0.08682 0.11989,0.16812 0.20395,0.242535 l -0.0469,0.06752 -10e-4,0.0014 0.0827,0.05788 0.0441,-0.06339 c 0.0386,0.02755 0.0799,0.05512 0.12541,0.07993 l 0.10886,0.06063 -0.0358,0.06064 -10e-4,0.0014 0.0868,0.05237 0.0386,-0.06615 c 0.0868,0.04548 0.17364,0.09233 0.26045,0.136426 l -0.0331,0.06201 v 0.0014 l 0.0896,0.04547 0.0331,-0.06339 c 0.0841,0.04272 0.16812,0.08406 0.25493,0.124022 l -0.0262,0.06063 0.0937,0.03859 0.0221,-0.05788 c 0.0772,0.03443 0.15296,0.06752 0.22876,0.100595 l -0.0179,0.04685 -10e-4,0.0014 0.0937,0.03721 0.0193,-0.04685 c 0.0799,0.03168 0.15985,0.06339 0.23978,0.09233 l -0.0152,0.05099 0.0965,0.02755 v -0.0014 l 0.0138,-0.0441 c 0.0565,0.0193 0.11438,0.0372 0.17088,0.05512 l -0.004,0.01101 -0.0138,0.05236 0.0965,0.02755 0.0179,-0.06339 c 0.0937,0.02618 0.18466,0.04823 0.27423,0.06339 l -0.011,0.0565 0.0978,0.0193 10e-4,-0.0014 0.011,-0.0565 c 0.10059,0.01517 0.19706,0.02205 0.28801,0.02342 v 0.02893 h 0.1006 v -0.02893 h 0.25218 v 0.02893 h 0.10059 v -0.02893 h 0.22462 v 0.02893 h 0.1006 v -0.02893 h 0.26321 v 0.02893 h 0.0992 v -0.02893 h 0.23978 v 0.02893 h 0.0992 v -0.02893 h 0.2632 v 0.02893 h 0.1006 v -0.02893 h 0.25356 v 0.02893 h 0.0992 v -0.02893 h 0.2632 v 0.02893 h 0.1006 v -0.02893 h 0.2384 v 0.02893 h 0.10059 v -0.02893 h 0.26321 v 0.02893 h 0.0992 v -0.02893 h 0.22462 v 0.02893 h 0.1006 v -0.02893 h 0.2632 v 0.02893 h 0.0992 v -0.02893 h 0.23978 v 0.02893 h 0.10068 v -0.02893 h 0.26183 v 0.02893 h 0.10059 v -0.02893 h 0.25356 v 0.02893 h 0.0992 v -0.02893 h 0.26321 v 0.02893 h 0.1006 v -0.02893 h 0.2384 v 0.02893 h 0.10059 v -0.02893 h 0.26183 v 0.02893 h 0.1006 v -0.02893 h 0.22048 v 0.02893 h 0.1006 v -0.02893 h 0.26183 v 0.02893 h 0.10059 v -0.02893 h 0.23841 v 0.02618 h 10e-4 v 0.0028 h 0.0992 v -0.02893 h 0.26183 v 0.02618 h 10e-4 v 0.0028 h 0.10059 v -0.02893 h 0.25218 v 0.02893 h 0.1006 v -0.02893 h 0.26183 v 0.02618 h 10e-4 v 0.0028 h 0.10059 v -0.02893 h 0.23702 v 0.02618 h 0.001 v 0.0028 h 0.1006 v -0.02893 h 0.16123 c 0.0331,0 0.0661,-0.0014 0.1006,-0.0028 v 0.02893 h 0.001 v 0.0028 h 0.0992 v -0.03721 c 0.12403,-0.01101 0.26183,-0.02755 0.40652,-0.05237 l 0.0138,0.04685 10e-4,0.0014 0.0965,-0.02755 -0.0124,-0.03996 c 0.0827,-0.01517 0.16399,-0.03168 0.24943,-0.05099 l 0.0138,0.05099 h 0.001 v 0.0014 l 0.0965,-0.02755 -0.0138,-0.04823 c 0.0813,-0.0193 0.16261,-0.04134 0.24391,-0.06477 l 0.0124,0.04134 h 0.001 v 0.0014 l 0.0965,-0.02755 -0.0124,-0.04272 c 0.0841,-0.02618 0.16675,-0.05237 0.24943,-0.07993 l 0.0138,0.04823 h 10e-4 v 0.0014 l 0.0965,-0.02755 -0.0165,-0.05512 c 0.0827,-0.0303 0.16536,-0.06201 0.24529,-0.09371 l 0.01,0.03447 v 0.0014 l 0.0965,-0.02755 -0.0138,-0.04823 c 0.0772,-0.03172 0.15158,-0.06615 0.22186,-0.101974 l 0.0152,0.05236 h 10e-4 v 0.0014 l 0.0965,-0.02755 -0.0207,-0.07304 c 0.0868,-0.04547 0.16812,-0.0937 0.24254,-0.143316 l 0.0634,0.08544 v 0.0014 l 0.0813,-0.05926 -0.062,-0.08544 c 0.0675,-0.05099 0.12815,-0.106108 0.17914,-0.166744 l 0.0758,0.05375 0.0579,-0.08268 h -0.001 v -0.0014 l -0.0689,-0.04823 c 0.0496,-0.07028 0.091,-0.143316 0.12402,-0.220486 l 0.073,0.03306 0.0413,-0.09233 h -0.003 0.001 l -0.0772,-0.03447 c 0.0262,-0.07855 0.0427,-0.158475 0.0524,-0.237021 l 0.10473,0.0069 0.007,-0.100598 h -0.001 l -0.10197,-0.0069 c 0.003,-0.09508 -0.004,-0.188789 -0.0207,-0.279742 l 0.0827,-0.0303 -0.0345,-0.09371 h -0.001 v -0.0014 l -0.0703,0.02618 c -0.0179,-0.06615 -0.04,-0.128157 -0.0675,-0.187413 l 0.26183,-0.489204 z m -11.79463,4.094152 h -0.004 c -0.0634,-0.0014 -0.1323,-0.01101 -0.2012,-0.0248 0.022,0.0028 0.0441,0.0069 0.0675,0.0069 0.0455,0 0.0896,-0.0055 0.13367,-0.01238 z m 0.35002,-0.197062 v 0.0014 h -10e-4 v 0.195682 h -0.25215 v -0.05788 c 0.13505,-0.04823 0.2508,-0.137802 0.33211,-0.25218 0.14745,-0.07304 0.26596,-0.197058 0.3321,-0.348643 h 0.14607 c 0.0786,0.16123 0.21636,0.286632 0.38448,0.348643 0.0303,0.04134 0.0648,0.07993 0.10197,0.112998 h -0.0165 v 0.197062 h -0.23978 v -0.197062 h -0.0992 v 0.197062 h -0.2632 v -0.197062 h -0.1006 v 0.197062 h -0.22461 v -0.197062 z m 1.12586,0.197062 v -0.132292 c 0.0786,0.05099 0.16812,0.08819 0.2632,0.10335 v 0.02893 z m 0.38309,-0.01792 c 0.0813,0 0.16123,-0.01379 0.23427,-0.03996 v 0.05788 h -0.25356 v -0.01792 z m 0.33349,0.01792 v -0.103353 c 0.21635,-0.118512 0.3638,-0.348643 0.3638,-0.613227 0,-0.136426 -0.04,-0.264583 -0.10749,-0.372071 h 0.31971 c -0.0689,0.107488 -0.10749,0.235645 -0.10749,0.372071 0,0.206703 0.091,0.392741 0.23289,0.519518 h -0.0992 v 0.197062 h -0.2384 v -0.197062 h -0.1006 v 0.197062 z m 0.70279,-0.195682 c 0.0744,0.06752 0.16399,0.118512 0.26321,0.148826 v 0.04686 h -0.26321 z m 0.36243,0.195682 v -0.0248 c 0.0331,0.0041 0.0661,0.0069 0.10059,0.0069 0.0427,0 0.0841,-0.0041 0.12403,-0.01101 v 0.02893 z m 0.32521,0 v -0.05512 c 0.13919,-0.04686 0.25908,-0.137806 0.34314,-0.254939 0.14607,-0.07303 0.26458,-0.197058 0.33073,-0.348643 h 0.14607 c 0.0785,0.16123 0.21635,0.286632 0.38447,0.348643 0.0331,0.04548 0.0717,0.0882 0.11438,0.124023 v 0.186037 h -0.25356 v -0.195682 h -10e-4 v -0.0014 h -0.0992 v 0.197061 h -0.2618 v -0.195682 h -0.001 v -0.0014 h -0.0992 v 0.197062 h -0.23977 v -0.197062 h -0.0992 v 0.197062 z m 1.41801,0 v -0.114377 c 0.0799,0.04685 0.16812,0.07855 0.2632,0.08957 v 0.0248 z m 0.35415,-0.01792 h 0.01 c 0.0841,-0.0014 0.16399,-0.01655 0.2384,-0.04547 v 0.06339 h -0.2384 z m 0.34864,0.01792 v -0.111622 c 0.20809,-0.121268 0.34865,-0.345888 0.34865,-0.604958 0,-0.136426 -0.04,-0.264583 -0.10749,-0.372071 h 0.31006 c -0.0675,0.107488 -0.10749,0.235645 -0.10749,0.372071 0,0.10335 0.0234,0.201193 0.0634,0.290763 0.04,0.08682 0.0978,0.165365 0.1695,0.228755 h -0.0937 v 0.197062 h -0.22048 v -0.197062 h -0.1006 v 0.197062 z m 0.68351,0 v -0.190172 c 0.0744,0.06615 0.16399,0.115757 0.26183,0.144696 v 0.04548 z m 0.36243,0 v -0.0248 c 0.0317,0.0041 0.0634,0.0069 0.0951,0.0069 0.0496,0 0.0978,-0.0055 0.14331,-0.01517 v 0.03305 z m 0.33899,0 v -0.06202 c 0.13092,-0.04961 0.24392,-0.136422 0.32384,-0.248045 0.14745,-0.07303 0.26597,-0.197058 0.33073,-0.348643 h 0.14745 c 0.0772,0.16123 0.21635,0.286632 0.3831,0.348643 0.0386,0.05237 0.0827,0.09922 0.13229,0.139182 v 0.170878 h -0.23702 v -0.195682 h -10e-4 v -0.0014 h -0.1006 v 0.197061 h -0.26183 v -0.195682 h -10e-4 v -0.0014 h -0.0992 v 0.197062 h -0.25218 v -0.195683 h -0.001 v -0.0014 h -0.1006 v 0.197062 z m 1.41938,0 v -0.103353 c 0.0786,0.04272 0.16675,0.07166 0.26183,0.0813 v 0.0193 c -0.0358,0.0014 -0.0689,0.0028 -0.1006,0.0028 z m 0.3831,-0.02205 c 0.11851,-0.0083 0.22875,-0.0441 0.32246,-0.103354 l 0.0207,0.0689 c -0.12127,0.02067 -0.23565,0.03306 -0.34313,0.03447 m 1.17684,-0.899862 c 0.17364,0.158474 0.40377,0.253559 0.65595,0.253559 0.0606,0 0.11851,-0.0055 0.17639,-0.01517 l 0.0262,0.09233 c -0.0703,0.03583 -0.1447,0.07028 -0.22049,0.103353 l -0.0482,-0.165365 h -10e-4 v -0.0014 l -0.0965,0.02755 0.051,0.177768 c -0.0786,0.03306 -0.16123,0.06477 -0.24253,0.09508 l -0.0455,-0.158475 h -0.001 v -0.0014 l -0.0965,0.02755 0.0469,0.165364 c -0.0827,0.02755 -0.16537,0.05512 -0.24943,0.07993 l -0.0496,-0.170875 v -0.0014 l -0.0978,0.02755 0.0496,0.172255 c -0.0813,0.02342 -0.1626,0.04547 -0.24391,0.06477 l -0.0469,-0.166744 -10e-4,0.0014 v -0.0028 l -0.0965,0.02755 0.0469,0.163989 c -0.0854,0.0193 -0.16674,0.03583 -0.24804,0.05099 l -0.0331,-0.115757 c 0.14469,-0.128157 0.23702,-0.31557 0.23702,-0.526408 0,-0.136426 -0.0386,-0.264583 -0.10749,-0.372071 l 0.48507,-0.0083 c 0.0441,0.06477 0.0951,0.124022 0.15158,0.175009 m 1.62333,-3.084046 0.18742,1.343585 -0.20671,0.388606 c -0.0193,-0.0303 -0.0413,-0.05926 -0.062,-0.08682 l 0.0744,-0.07442 v -0.468531 l -0.44924,-0.305925 0.2577,-0.296277 v -0.292146 l -0.17639,-0.132292 0.10473,-0.157095 z m -0.25355,3.060622 c -0.0413,0.04685 -0.0896,0.09095 -0.14194,0.130912 l -0.0193,-0.02618 c 0.051,-0.03443 0.0992,-0.07441 0.14193,-0.118509 z m 0.0482,-0.08957 c 0.0413,-0.05237 0.0786,-0.110243 0.11713,-0.16812 -0.0276,0.06201 -0.0593,0.122647 -0.10198,0.180524 z m 0.0207,-1.205784 c 0.0289,0.03859 0.0565,0.07993 0.0799,0.126781 l -0.005,0.0083 c -0.0234,-0.0441 -0.051,-0.08819 -0.0744,-0.13505 m -0.48921,1.601283 -0.0193,-0.06753 c 0.0675,-0.0193 0.13229,-0.04685 0.19293,-0.07993 l 0.0221,0.0303 c -0.0606,0.03997 -0.1254,0.07855 -0.19568,0.117136 m -13.61364,-0.38585 c -0.0689,-0.06202 -0.12265,-0.130916 -0.16537,-0.205331 l 0.0234,-0.01654 c 0.0427,0.07442 0.0965,0.141936 0.1571,0.199817 z m -0.13229,-1.190625 c 0.0331,-0.0565 0.0703,-0.107488 0.113,-0.152965 0.0427,-0.04685 0.0882,-0.08682 0.1378,-0.118512 l 0.0179,0.02618 c -0.1006,0.06891 -0.18604,0.15572 -0.25356,0.257694 z m 0.22462,1.234722 c 0.0675,0.05374 0.14469,0.09646 0.22737,0.128157 l -0.0165,0.02755 -0.11438,-0.06339 c -0.04,-0.02205 -0.0772,-0.04547 -0.11162,-0.07166 z m -0.30317,-0.340378 c -0.0289,-0.06752 -0.0482,-0.136426 -0.0593,-0.206706 l 0.0221,-0.0041 c 0.0124,0.06752 0.0331,0.133668 0.0606,0.195679 z m 0.0289,-0.803395 0.0138,0.01101 c -0.0289,0.0565 -0.051,0.117133 -0.0675,0.180524 l -0.0124,-0.0028 c 0.0165,-0.06615 0.0386,-0.128157 0.0661,-0.188789 m -0.0868,0.288008 0.0138,0.0028 c -0.007,0.04272 -0.01,0.08544 -0.01,0.129533 0,0.02343 0.001,0.04686 0.003,0.07028 l -0.0179,0.0041 c -0.004,-0.0689 0,-0.139181 0.011,-0.206706 m 0.66008,1.059712 0.0262,-0.0441 c 0.073,0.0193 0.1502,0.02893 0.23013,0.02893 0.26596,0 0.50574,-0.114378 0.67248,-0.296277 h 0.54846 c -0.0344,0.05374 -0.0606,0.112998 -0.0799,0.175009 -0.0179,0.06201 -0.0276,0.129537 -0.0276,0.197062 0,0.16812 0.0593,0.32246 0.15847,0.438214 l 0.0661,0.0193 -0.0661,-0.01655 -10e-4,0.0014 -0.0331,0.117133 -0.01,0.0303 c -0.0551,-0.01655 -0.11162,-0.03583 -0.1695,-0.05512 l 0.0482,-0.169499 -0.0965,-0.02755 v 0.0014 l -0.0469,0.16261 c -0.0744,-0.02755 -0.1502,-0.0565 -0.22462,-0.08682 l 0.0634,-0.159855 10e-4,-0.0014 -0.0937,-0.03721 -0.0648,0.15985 c -0.0758,-0.03168 -0.15158,-0.06614 -0.22737,-0.100594 l 0.04,-0.09922 0.0207,-0.05099 -0.0923,-0.03858 -10e-4,0.0014 -0.0579,0.146072 c -0.0813,-0.03859 -0.16261,-0.07717 -0.24391,-0.118513 l 0.0689,-0.135046 10e-4,-0.0014 -0.0896,-0.0441 -0.0689,0.135047 c -0.0841,-0.04272 -0.16812,-0.08682 -0.2508,-0.130912 m 1.84244,0.738628 c -0.0841,-0.01517 -0.17088,-0.03583 -0.26183,-0.06063 l 0.011,-0.03447 0.0166,-0.0565 c 0.0689,0.06064 0.14883,0.106109 0.23702,0.136426 z m -2.25861,-6.501585 0.0179,-0.176389 2.03261,0.213597 -0.0413,0.175013 z m -5.29442,-0.713821 0.0648,-0.611851 0.4203,0.0441 -0.0634,0.61185 z m 0.97289,-0.405144 -0.04,0.383096 -0.35691,0.06477 0.062,-0.580154 z m 0,0"
       id="G-21st-105" />
  </g>
</svg>
