<?xml version="1.0" encoding="UTF-8" standalone="no"?>
<!-- Created with Inkscape (http://www.inkscape.org/) -->

<svg
   width="18.742939mm"
   height="8.7533798mm"
   viewBox="0 0 18.742939 8.7533798"
   version="1.1"
   id="svg5"
   sodipodi:docname="inkporter-svg-qmlvndo5.svg"
   xmlns:inkscape="http://www.inkscape.org/namespaces/inkscape"
   xmlns:sodipodi="http://sodipodi.sourceforge.net/DTD/sodipodi-0.dtd"
   xmlns="http://www.w3.org/2000/svg"
   xmlns:svg="http://www.w3.org/2000/svg">
  <sodipodi:namedview
     id="namedview7"
     pagecolor="#ffffff"
     bordercolor="#666666"
     borderopacity="1.0"
     inkscape:pageshadow="2"
     inkscape:pageopacity="0.0"
     inkscape:pagecheckerboard="0"
     inkscape:document-units="mm"
     showgrid="false"
     inkscape:zoom="1.877186"
     inkscape:cx="307.37498"
     inkscape:cy="563.34323"
     inkscape:window-width="1920"
     inkscape:window-height="1017"
     inkscape:window-x="-8"
     inkscape:window-y="-8"
     inkscape:window-maximized="1"
     inkscape:current-layer="layer1" />
  <defs
     id="defs2" />
  <g
     inkscape:label="Layer 1"
     inkscape:groupmode="layer"
     id="layer1"
     transform="translate(-83.089631,-158.83837)">
    <path
       d="m 85.658598,167.50733 -0.03888,-0.063 -0.150636,0.0176 -0.150636,0.0176 v -0.0853 -0.0853 l -0.127247,0.0178 -0.127282,0.0178 v -0.0949 -0.0949 l -0.08442,0.0324 -0.08435,0.0324 -0.0586,-0.10945 -0.0586,-0.10945 -0.08438,0.0324 -0.08442,0.0324 v -0.0913 -0.0913 h -0.142099 -0.142099 l 0.01411,-0.0711 0.01411,-0.071 -0.103681,-3.2e-4 -0.103752,-3.1e-4 -0.05408,-0.0967 -0.05412,-0.0967 -0.07641,0.0294 -0.07645,0.0293 -0.03387,-0.0885 -0.03387,-0.0885 h -0.109361 -0.109397 l -0.03281,-0.0853 -0.03281,-0.0853 h -0.08707 -0.08703 v -0.0858 -0.0858 l -0.108726,-0.0931 -0.108691,-0.0931 0.02928,-0.0769 0.02963,-0.0769 h -0.05518 -0.05514 v -0.22738 -0.22737 h 0.04904 0.04911 v -0.14211 -0.14211 h 0.08527 0.08527 l 0.0067,-0.0995 c 0.0035,-0.0547 0.01023,-0.13785 0.01411,-0.18475 l 0.0074,-0.0853 0.253647,-0.1279 0.253647,-0.1279 h 0.553544 0.553579 l 0.05637,-0.0995 0.05637,-0.0995 0.08114,0.10982 0.08114,0.10983 0.192158,-0.0549 0.192158,-0.0549 0.01693,-0.11727 0.01693,-0.11727 -0.181962,-0.005 -0.181963,-0.005 -0.08745,-0.0875 -0.08749,-0.0875 0.03732,-0.0373 0.03732,-0.0373 0.442454,-0.007 0.442489,-0.007 0.01729,0.12264 0.01729,0.12264 -0.131198,0.12611 -0.131163,0.12612 0.170533,-0.0387 c 0.0938,-0.0213 0.260068,-0.0568 0.369464,-0.0789 l 0.198967,-0.0402 0.01799,-0.15661 0.01834,-0.15661 0.04763,0.0294 0.04762,0.0294 -0.0321,0.12201 -0.03175,0.122 0.16503,-0.0414 c 0.21276,-0.0534 0.203165,-0.0373 0.203165,-0.34008 v -0.26053 h 0.04247 c 0.04346,0 0.149084,0.1891 0.189759,0.3397 l 0.02258,0.0839 0.152012,-0.25943 c 0.187431,-0.31975 0.187607,-0.33471 0.0046,-0.33471 h -0.147743 l -0.194875,0.0925 -0.194874,0.0925 -0.112148,0.14257 -0.112113,0.14256 v -0.0636 c 0,-0.035 0.07309,-0.14545 0.162454,-0.24547 l 0.162525,-0.18185 0.391724,-0.0476 c 0.215442,-0.0262 0.564374,-0.0457 0.775406,-0.0434 l 0.383681,0.004 v -0.0534 -0.0534 l 0.256328,-0.0384 0.256293,-0.0384 0.08883,0.0888 0.08879,0.0888 h 0.358493 0.358457 l 0.07077,-0.0853 0.07073,-0.0853 h 0.192017 0.192017 v 0.0909 0.0909 l 0.506907,-0.0199 0.506941,-0.0199 0.04064,-0.0407 0.04064,-0.0407 -0.175789,-0.35719 c -0.09666,-0.19646 -0.201965,-0.428 -0.233927,-0.51453 l -0.05814,-0.15734 -0.128905,-0.0479 -0.12894,-0.0479 -1.477927,-0.0356 c -0.812871,-0.0196 -1.625,-0.0359 -1.804776,-0.0364 l -0.326849,-10e-4 v -0.34106 -0.34106 h 0.5969 0.59683 v -0.0478 -0.0478 l -1.570637,-0.0349 -1.570637,-0.0349 -0.651334,0.0854 -0.651369,0.0854 -0.321769,-0.0169 -0.321733,-0.0169 -0.01658,-0.41212 -0.01658,-0.41211 h 0.417477 0.417513 l 0.508705,0.11246 0.508706,0.11245 1.662641,0.001 1.662677,0.001 v -0.0521 c 0,-0.0286 -0.02963,-0.062 -0.06625,-0.0742 l -0.06622,-0.0221 0.01058,-0.30284 c 0.006,-0.16657 0.02611,-0.32808 0.04537,-0.35893 l 0.03457,-0.0561 0.558059,0.0396 0.558059,0.0396 0.855486,-0.0407 0.855487,-0.0407 v -0.0773 -0.0773 l 0.07105,-0.003 c 0.216923,-0.009 1.459159,0.0149 1.592474,0.031 l 0.157127,0.019 0.08336,-0.0833 0.08333,-0.0833 0.214242,0.0595 c 0.2274,0.0632 0.697371,0.082 0.697371,0.028 0,-0.0177 -0.02646,-0.0816 -0.05877,-0.14211 l -0.05888,-0.10995 H 94.213 94.328676 v 0.14211 0.14211 h 0.189795 0.189759 l 0.648652,0.19071 0.648723,0.19071 1.108428,0.0659 c 0.609635,0.0362 1.319459,0.0813 1.577411,0.10023 l 0.468947,0.0344 v -0.12041 -0.12041 h 0.05468 0.05475 l 0.01905,-0.5258 0.01905,-0.5258 0.01164,0.5258 0.01164,0.5258 h 0.05683 0.05687 v 0.11369 0.11369 l 0.09945,0.006 c 0.05472,0.003 0.166758,0.002 0.249061,-0.004 l 0.149578,-0.01 0.20105,0.084 c 0.1106,0.0462 0.21361,0.0715 0.22892,0.0561 0.0321,-0.032 0.0703,0.0912 0.11991,0.38622 l 0.0346,0.20657 -0.0866,0.0332 -0.0866,0.0332 v 0.0817 0.0817 l 0.10524,-0.0275 0.1053,-0.0275 0.0564,0.2853 0.0564,0.28531 -0.0856,0.0856 -0.0856,0.0856 0.004,0.3521 0.004,0.3521 -0.0424,-0.0686 -0.0424,-0.0686 -0.0865,0.43462 -0.0865,0.43461 0.0828,0.0318 0.0828,0.0317 -0.0363,0.20522 c -0.0198,0.11288 -0.0495,0.24999 -0.0655,0.3047 l -0.0293,0.0995 h -0.0753 -0.0752 l -0.0325,0.12961 -0.0324,0.12961 0.0335,0.12851 0.0335,0.12851 0.0586,-0.0195 c 0.0321,-0.0108 0.17392,-0.23282 0.31493,-0.49351 l 0.25636,-0.47399 -0.0948,-0.0693 -0.0948,-0.0693 0.008,-0.22111 0.008,-0.22111 0.0236,0.15632 0.0236,0.15632 h 0.0561 c 0.031,0 0.15017,0.064 0.26522,0.14211 0.115,0.0782 0.24038,0.14211 0.27862,0.14211 0.0382,0 0.13342,0.064 0.2116,0.14211 0.15719,0.1572 0.2401,0.17847 0.27703,0.0711 l 0.0243,-0.0711 -0.0148,0.0994 -0.0148,0.0994 0.0516,0.0318 c 0.0282,0.0175 0.0515,0.0815 0.0515,0.14217 v 0.11033 l -0.071,0.004 -0.0711,0.004 -0.44048,0.52957 c -0.24232,0.29126 -0.44055,0.55687 -0.44055,0.59023 0,0.0334 -0.0321,0.0811 -0.0711,0.10613 -0.0391,0.025 -0.11642,0.0993 -0.17191,0.16513 l -0.10082,0.11968 0.0357,0.0932 0.0357,0.0932 0.0509,-0.0315 0.0509,-0.0315 v 0.0568 c 0,0.0313 -0.0275,0.0737 -0.0606,0.0943 l -0.0606,0.0375 -0.0714,-0.0977 -0.0714,-0.0977 -0.13793,0.0778 c -0.0759,0.0428 -0.18528,0.11617 -0.243141,0.16307 L 99.888505,166 l -1.050572,0.0284 -1.050537,0.0284 -0.08375,0.11369 -0.08375,0.11369 -0.07521,-0.0151 -0.07525,-0.0151 -0.02999,0.11483 -0.02999,0.11483 -0.09056,-0.0347 -0.09049,-0.0348 v 0.0913 0.0914 h -0.1137 -0.1137 v 0.0853 0.0853 h -0.107597 -0.107633 l -0.03246,0.0843 -0.03246,0.0843 -0.09081,-0.0348 -0.09084,-0.0349 -0.0321,0.12267 -0.0321,0.12266 -0.106609,-0.0338 -0.106645,-0.0338 v 0.0891 0.0891 h -0.1137 -0.113665 v 0.0891 0.0891 l -0.117687,-0.0374 -0.117687,-0.0374 -0.03104,0.11878 c -0.0314,0.11995 -0.131516,0.16712 -0.131516,0.0619 v -0.0568 h -0.08054 -0.0805 l -0.03316,0.0711 -0.03316,0.0711 -0.03316,-0.0711 c -0.01834,-0.0391 -0.06728,-0.0711 -0.108973,-0.0711 -0.04166,0 -0.0907,0.032 -0.108902,0.0711 l -0.03316,0.0711 -0.03316,-0.0711 c -0.01834,-0.0391 -0.06727,-0.0711 -0.108973,-0.0711 -0.04166,0 -0.08876,0.032 -0.104598,0.0711 l -0.02858,0.0711 -0.05944,-0.0853 -0.05944,-0.0853 -0.111372,0.069 -0.111372,0.069 -0.02505,-0.069 -0.02505,-0.069 -0.113806,0.067 -0.113806,0.067 -0.06653,-0.0665 -0.0665,-0.0665 -0.05443,0.0848 -0.0545,0.0848 -0.0551,-0.0853 -0.0551,-0.0853 -0.111372,0.069 -0.111372,0.069 -0.02505,-0.069 -0.02505,-0.069 -0.117087,0.069 -0.117017,0.069 -0.02505,-0.069 -0.02505,-0.069 -0.121109,0.0715 -0.121144,0.0715 v -0.0573 -0.0573 h -0.0805 -0.08058 l -0.02857,0.0711 -0.02858,0.0711 -0.05944,-0.0853 -0.05944,-0.0853 -0.111372,0.069 -0.111372,0.069 -0.02505,-0.069 -0.0254,-0.069 -0.113806,0.067 -0.113842,0.067 -0.06174,-0.0617 -0.0617,-0.0617 -0.07765,0.0645 -0.07765,0.0644 -0.06445,-0.0644 -0.06445,-0.0645 -0.07765,0.0645 -0.07768,0.0644 -0.06445,-0.0644 -0.06445,-0.0645 -0.07768,0.0645 -0.07765,0.0644 -0.06445,-0.0644 -0.06445,-0.0645 -0.08213,0.0682 -0.08216,0.0682 -0.02646,-0.0734 -0.02646,-0.0734 -0.113806,0.067 -0.113841,0.067 -0.06174,-0.0617 -0.0617,-0.0617 -0.07768,0.0645 -0.07761,0.0644 -0.06445,-0.0644 -0.06445,-0.0645 -0.07765,0.0645 -0.07768,0.0644 -0.06445,-0.0644 -0.06445,-0.0645 -0.07768,0.0645 -0.07761,0.0644 -0.06445,-0.0644 -0.06445,-0.0645 -0.07768,0.0645 -0.07765,0.0644 -0.06445,-0.0644 -0.06449,-0.0645 -0.08213,0.0682 -0.08213,0.0682 -0.02646,-0.0734 -0.02646,-0.0734 -0.113771,0.067 -0.113841,0.067 -0.06174,-0.0617 -0.0617,-0.0617 -0.07768,0.0645 -0.07768,0.0644 -0.06442,-0.0644 -0.06445,-0.0645 -0.08213,0.0682 -0.08216,0.0682 -0.02646,-0.0734 -0.02646,-0.0734 -0.117087,0.069 -0.117051,0.069 -0.0254,-0.069 -0.02505,-0.069 -0.113807,0.067 -0.113841,0.067 -0.06174,-0.0617 -0.06174,-0.0617 -0.07765,0.0645 -0.07768,0.0644 -0.06445,-0.0644 -0.06445,-0.0645 -0.07761,0.0645 -0.07768,0.0644 -0.06445,-0.0644 -0.06442,-0.0645 -0.07768,0.0645 -0.07768,0.0644 -0.06442,-0.0644 -0.06445,-0.0645 -0.07765,0.0645 -0.07765,0.0644 -0.06445,-0.0644 -0.06449,-0.0645 -0.07765,0.0645 -0.07768,0.0644 -0.06445,-0.0644 -0.06445,-0.0645 -0.07765,0.0645 -0.07765,0.0644 -0.06445,-0.0644 -0.06445,-0.0645 -0.07765,0.0645 -0.07768,0.0644 -0.06445,-0.0644 -0.06445,-0.0645 -0.08258,0.0686 -0.08262,0.0686 z m 0.995151,-0.2552 v -0.0853 h 0.05073 c 0.02787,0 0.06551,0.0384 0.0835,0.0853 0.01799,0.0469 0.05909,0.0853 0.09133,0.0853 h 0.05867 v -0.0853 -0.0853 h 0.05073 c 0.02822,0 0.06548,0.0384 0.0835,0.0853 0.01799,0.0469 0.0563,0.0853 0.08516,0.0853 h 0.05249 l 0.03616,-0.14425 0.03623,-0.14426 -0.05218,-0.0933 -0.05221,-0.0933 -0.247862,-0.0104 -0.247862,-0.0104 -0.10033,0.19512 -0.10033,0.19511 0.03246,0.0528 c 0.01799,0.0291 0.05673,0.0528 0.08615,0.0528 h 0.05348 z m 0.794632,-0.001 c -0.03951,-0.0477 -0.08361,-0.0749 -0.0979,-0.0606 -0.03944,0.0394 0.04067,0.14726 0.109361,0.14726 h 0.06047 z m 1.227208,-0.0129 0.07324,-0.0995 0.03856,0.0995 c 0.02152,0.0547 0.06142,0.0995 0.08936,0.0995 h 0.05073 v -0.0853 -0.0853 h 0.05401 c 0.02963,0 0.07899,0.0446 0.109467,0.099 l 0.05539,0.099 0.03549,-0.0355 0.03549,-0.0355 -0.144921,-0.21355 -0.144921,-0.21354 v -0.21945 -0.21944 h -0.1137 -0.113665 v 0.18558 0.18558 l -0.115323,0.21514 -0.115288,0.21513 0.03351,0.054 c 0.04826,0.0781 0.08982,0.0671 0.17272,-0.0454 z m 1.672978,0.0142 v -0.0853 h 0.08523 0.0853 v 0.0853 0.0853 h 0.0502 c 0.02787,0 0.06742,-0.0576 0.08841,-0.1279 l 0.03821,-0.1279 0.06237,0.1279 c 0.03422,0.0703 0.08407,0.1279 0.11056,0.1279 h 0.04812 v -0.0853 -0.0853 h 0.05405 c 0.02963,0 0.07895,0.0446 0.109432,0.099 l 0.05542,0.099 0.03884,-0.0389 0.03891,-0.0389 -0.119874,-0.16837 c -0.06597,-0.0926 -0.119909,-0.19353 -0.119909,-0.22429 v -0.0559 l -0.261549,0.0165 -0.261514,0.0165 -0.10795,0.17751 c -0.120227,0.19766 -0.136279,0.28844 -0.05108,0.28844 h 0.05683 z m 2.015913,-0.0142 0.03856,-0.0995 0.08449,0.11368 0.08453,0.11369 0.05637,-0.0995 c 0.03105,-0.0547 0.08065,-0.0995 0.110385,-0.0995 h 0.05405 v 0.0853 0.0853 h 0.0568 c 0.0852,0 0.06939,-0.0908 -0.0568,-0.32622 l -0.113735,-0.21211 v -0.18558 -0.18559 H 92.565465 92.4518 v 0.21473 0.21472 l -0.09624,0.14055 c -0.05288,0.0773 -0.120086,0.15687 -0.149331,0.17682 l -0.05323,0.0363 0.03905,0.0632 c 0.05708,0.0923 0.128411,0.0773 0.172438,-0.0363 z m 1.678905,0.0142 v -0.0853 h 0.05863 c 0.0321,0 0.07338,0.0384 0.09134,0.0853 0.01799,0.0469 0.05556,0.0853 0.0835,0.0853 h 0.05073 v -0.0819 c 0,-0.0451 0.02752,-0.0988 0.06068,-0.1194 l 0.06071,-0.0375 0.0314,0.11941 c 0.04032,0.1542 0.09867,0.15139 0.176671,-0.008 l 0.06241,-0.1279 0.03821,0.1279 c 0.03979,0.13327 0.108867,0.16514 0.164147,0.0757 l 0.0321,-0.0522 -0.128376,-0.19521 -0.128375,-0.19521 -0.239819,0.01 -0.239853,0.01 -0.143863,0.21197 c -0.159914,0.23568 -0.169192,0.26377 -0.08703,0.26377 h 0.05687 z m -8.753898,-0.14211 c 0,-0.0313 -0.0254,-0.0568 -0.05683,-0.0568 -0.0314,0 -0.05687,0.0256 -0.05687,0.0568 0,0.0313 0.0254,0.0568 0.05687,0.0568 0.0314,0 0.05683,-0.0256 0.05683,-0.0568 z m 10.885522,-0.0568 0.03528,-0.0568 h -0.06022 c -0.03316,0 -0.06018,0.0256 -0.06018,0.0568 0,0.0313 0.01129,0.0568 0.02505,0.0568 0.01376,0 0.04089,-0.0256 0.06018,-0.0568 z m -10.999223,-0.40877 v -0.21651 h -0.334398 -0.334433 l -0.03281,0.12541 c -0.04293,0.16403 0,0.19901 0.135784,0.11354 l 0.11109,-0.0694 v 0.14258 0.1426 h 0.05352 c 0.02928,0 0.06929,-0.0256 0.08858,-0.0568 0.01905,-0.0312 0.06195,-0.0568 0.09472,-0.0568 h 0.05958 l -0.03457,0.0904 -0.03457,0.0904 0.03729,0.0603 0.03732,0.0603 0.07659,-0.10474 0.07655,-0.10474 z m 11.225071,0.11977 -0.03457,-0.1089 h 0.05733 c 0.03175,0 0.07313,0.0256 0.09246,0.0568 0.0194,0.0313 0.05969,0.0568 0.08971,0.0568 h 0.05457 l -0.0357,-0.1421 -0.03563,-0.14211 h 0.05161 c 0.02858,0 0.08191,0.0303 0.118921,0.0673 l 0.06727,0.0673 0.03493,-0.0351 0.03493,-0.0351 -0.03746,-0.0606 -0.03746,-0.0606 H 96.547331 96.27294 l -0.02469,0.16755 -0.02469,0.16755 0.05006,0.0894 0.05006,0.0894 0.05563,-0.0344 0.0557,-0.0344 z m -11.988623,-0.32307 c -0.01482,-0.0151 -0.06844,-0.0116 -0.118639,0.008 l -0.0913,0.035 0.03704,0.06 0.03708,0.06 0.0816,-0.0677 c 0.04484,-0.0372 0.06929,-0.08 0.05422,-0.095 z m 14.462866,-1.0649 v -0.25579 h -0.284233 -0.284233 v 0.25579 0.25579 h 0.284233 0.284233 z m 1.7865,-0.40197 c 0.10474,-0.10474 0.11042,-0.16293 0.0307,-0.31231 l -0.0588,-0.10995 h -0.13314 -0.13317 l -0.0648,0.0781 -0.0648,0.0781 0.0293,0.0925 c 0.0162,0.0509 0.0414,0.13084 0.056,0.17773 l 0.0265,0.0853 h 0.11145 0.11137 z m 0.46151,-0.62951 0.13938,-0.15041 v -0.0966 -0.0966 l -0.10943,-0.0991 -0.10947,-0.0991 -0.10372,0.0199 -0.10368,0.0199 -0.1137,0.21593 -0.11366,0.21593 0.13416,0.11025 c 0.17483,0.14362 0.21357,0.13952 0.38012,-0.0402 z m -0.83348,-0.92962 0.005,-0.0853 -0.0551,0.0853 c -0.0303,0.0469 -0.0529,0.14922 -0.0503,0.22737 l 0.005,0.14211 0.0455,-0.14211 c 0.025,-0.0782 0.0477,-0.18047 0.0503,-0.22737 z m 0.20945,-2.13612 -0.0346,-0.13762 h -0.0497 -0.0497 l 0.0628,0.24159 0.0628,0.24158 0.0215,-0.10397 c 0.0116,-0.0572 0.006,-0.1659 -0.0134,-0.24158 z m -16.346455,-0.5071 v -0.19895 h -0.284198 -0.284233 v 0.19895 0.19895 h 0.284233 0.284198 z m 0.34103,-0.0318 v -0.17388 l -0.0568,0.0351 -0.05687,0.0351 v 0.13876 0.13875 h 0.05687 0.0568 z m 15.882795,-0.15296 c -0.0428,-0.2366 -0.0636,-0.27722 -0.1155,-0.22529 l -0.0353,0.0352 0.0378,0.2016 0.0378,0.20161 h 0.0569 0.0568 z m 1.10275,2.90282 0.0746,-0.0299 0.0342,0.0344 0.0342,0.0344 -0.10897,-0.004 -0.10894,-0.004 z m -0.95116,-0.79014 0.005,-0.10895 0.03,0.0746 0.03,0.0746 -0.0342,0.0343 -0.0342,0.0344 0.005,-0.10894 z"
       id="G-21st-105-Lorraine"
       style="stroke-width:0.352778" />
  </g>
</svg>
