<?xml version="1.0" encoding="UTF-8" standalone="no"?>
<!-- Created with Inkscape (http://www.inkscape.org/) -->

<svg
   width="20.801796mm"
   height="5.2441287mm"
   viewBox="0 0 20.801796 5.2441287"
   version="1.1"
   id="svg4364"
   sodipodi:docname="inkporter-svg-za_23zv6.svg"
   xmlns:inkscape="http://www.inkscape.org/namespaces/inkscape"
   xmlns:sodipodi="http://sodipodi.sourceforge.net/DTD/sodipodi-0.dtd"
   xmlns="http://www.w3.org/2000/svg"
   xmlns:svg="http://www.w3.org/2000/svg">
  <sodipodi:namedview
     id="namedview4366"
     pagecolor="#ffffff"
     bordercolor="#666666"
     borderopacity="1.0"
     inkscape:pageshadow="2"
     inkscape:pageopacity="0.0"
     inkscape:pagecheckerboard="0"
     inkscape:document-units="mm"
     showgrid="false"
     inkscape:zoom="10.248373"
     inkscape:cx="325.5151"
     inkscape:cy="490.85842"
     inkscape:window-width="1920"
     inkscape:window-height="1017"
     inkscape:window-x="-8"
     inkscape:window-y="-8"
     inkscape:window-maximized="1"
     inkscape:current-layer="layer1" />
  <defs
     id="defs4361">
    <clipPath
       clipPathUnits="userSpaceOnUse"
       id="clipPath75985-4-7-9">
      <path
         d="M 0,0 H 595.276 V 841.89 H 0 Z"
         id="path75983-4-1-6" />
    </clipPath>
  </defs>
  <g
     inkscape:label="Layer 1"
     inkscape:groupmode="layer"
     id="layer1"
     transform="translate(-77.846009,-127.6116)">
    <g
       id="G-2cm-quad-AA"
       transform="translate(0.77451321,1.3941238)">
      <g
         id="g75987-5-6-9"
         transform="matrix(0.35277777,0,0,-0.35277777,90.80305,127.43256)"
         style="fill:#000000">
        <path
           d="m 0,0 0.185,0.145 c 0,0 0.082,0.051 0.155,0.266 0.071,0.216 0.082,0.422 0.082,0.422 L 0.535,1.049 0.678,1.233 0.996,1.347 1.429,1.409 1.901,1.368 2.209,1.265 c 0,0 -0.041,0.071 0.186,-0.124 0.225,-0.195 0.143,-0.226 0.143,-0.226 0,0 0.082,-0.092 0.103,-0.288 0.021,-0.195 0,-0.205 0,-0.205 V 0.216 l 0.215,-0.512 -0.236,0.02 0.257,-0.329 0.401,-0.227 0.349,-0.103 0.144,-0.02 c 0,0 0.257,0.575 0.473,0.556 0.216,-0.022 1.09,-0.792 1.111,-1.028 0.02,-0.237 -0.289,-0.565 -0.289,-0.565 L 5.015,-2.167 5.334,-2.228 c 0,0 0.493,0.019 0.616,-0.041 0.123,-0.062 0.287,-0.35 0.287,-0.35 0,0 0.175,-0.287 0.186,-0.411 0.01,-0.123 -0.042,-0.35 -0.042,-0.35 L 6.237,-3.646 6.175,-3.77 v -0.103 c 0,0 0.365,0.062 0.52,0.016 0.154,-0.046 0.365,-0.128 0.406,-0.524 0.041,-0.395 -0.217,-0.56 -0.217,-0.56 L 7.388,-5.229 7.49,-5.476 7.532,-5.804 7.552,-6.173 7.511,-6.297 7.47,-6.543 7.306,-6.708 V -6.996 L 7.244,-7.181 7.142,-7.283 6.896,-7.427 6.587,-7.386 6.546,-7.714 6.566,-8.127 6.443,-8.434 v -0.493 l 0.185,-0.164 0.113,-0.102 0.041,-0.135 1.224,0.299 c 0,0 0.318,0.205 0.471,0.246 0.154,0.041 0.39,0.041 0.39,0.041 l 0.309,-0.513 -0.102,-0.37 0.184,-0.268 0.166,-0.349 c 0,0 0.164,-0.278 0.184,-0.451 0.021,-0.176 0,-0.35 0,-0.35 l -0.041,-0.268 -0.411,-0.041 -0.164,0.123 c -0.043,0.032 -0.052,0.009 -0.084,0.237 -0.007,0.071 0.007,0.047 0.032,0.154 0.041,0.174 -0.237,0.473 -0.237,0.473 l -0.205,0.215 -0.174,0.145 -1.696,-0.75 -0.123,-0.186 -0.164,-0.102 -0.638,-0.041 -0.575,-0.062 -0.227,0.062 -0.328,0.432 -0.144,0.677 -0.041,0.616 -0.103,0.761 c 0,0 -0.196,0.483 -0.267,0.555 -0.072,0.072 -0.679,0.165 -0.679,0.165 0,0 -0.401,-0.011 -0.533,0.019 C 2.672,-7.828 2.045,-7.55 2.045,-7.55 H 1.675 L 1.696,-7.777 1.532,-7.941 1.983,-9.523 1.901,-9.77 1.963,-9.975 c 0,0 0.082,-0.134 0.102,-0.226 0.021,-0.092 0,-0.328 0,-0.328 v -0.309 l -0.041,-0.349 -0.739,-0.02 -0.021,0.184 -0.268,-0.061 -0.308,-0.145 -0.472,-0.041 -0.473,0.02 -0.226,0.125 -0.123,0.102 c 0,0 0.032,0.144 0.061,0.227 0.032,0.082 0.432,0.082 0.432,0.082 l 0.494,0.021 0.205,0.328 0.308,0.328 0.02,0.267 -0.924,1.788 0.062,0.104 -0.206,0.101 -0.206,0.268 -0.205,0.554 -0.041,0.494 0.061,0.473 c 0,0 0.176,0.256 0.309,0.307 0.133,0.052 0.329,0.093 0.432,0.082 l 0.39,-0.041 0.123,0.164 1.086,0.069 0.72,-0.087 -0.24,0.349 -0.065,0.326 0.088,0.262 -0.197,0.11 -0.065,0.262 -0.197,0.326 -0.061,0.172 -0.205,0.164 -0.185,0.432 c 0,0 -0.052,0.173 -0.083,0.246 -0.031,0.072 0,0.369 0,0.369 l 0.083,0.309 0.164,0.432 -0.061,0.144 -0.206,0.246 -0.195,-0.061 c 0,0 -0.135,-0.053 -0.196,-0.021 -0.062,0.031 -0.071,0.215 -0.071,0.215 l -0.082,0.339 -0.196,0.041 0.051,0.515 -0.133,0.153 -0.267,0.082 z"
           style="fill:#000000;fill-opacity:1;fill-rule:nonzero;stroke:none"
           id="path75989-7-2-8" />
      </g>
      <g
         id="g75991-8-0-7"
         transform="matrix(0.35277777,0,0,-0.35277777,90.80305,127.43256)"
         style="fill:#000000">
        <path
           d="m 0,0 0.185,0.145 c 0,0 0.082,0.051 0.155,0.266 0.071,0.216 0.082,0.422 0.082,0.422 L 0.535,1.049 0.678,1.233 0.996,1.347 1.429,1.409 1.901,1.368 2.209,1.265 c 0,0 -0.041,0.071 0.186,-0.124 0.225,-0.195 0.143,-0.226 0.143,-0.226 0,0 0.082,-0.092 0.103,-0.288 0.021,-0.195 0,-0.205 0,-0.205 V 0.216 l 0.215,-0.512 -0.236,0.02 0.257,-0.329 0.401,-0.227 0.349,-0.103 0.144,-0.02 c 0,0 0.257,0.575 0.473,0.556 0.216,-0.022 1.09,-0.792 1.111,-1.028 0.02,-0.237 -0.289,-0.565 -0.289,-0.565 L 5.015,-2.167 5.334,-2.228 c 0,0 0.493,0.019 0.616,-0.041 0.123,-0.062 0.287,-0.35 0.287,-0.35 0,0 0.175,-0.287 0.186,-0.411 0.01,-0.123 -0.042,-0.35 -0.042,-0.35 L 6.237,-3.646 6.175,-3.77 v -0.103 c 0,0 0.365,0.062 0.52,0.016 0.154,-0.046 0.365,-0.128 0.406,-0.524 0.041,-0.395 -0.217,-0.56 -0.217,-0.56 L 7.388,-5.229 7.49,-5.476 7.532,-5.804 7.552,-6.173 7.511,-6.297 7.47,-6.543 7.306,-6.708 V -6.996 L 7.244,-7.181 7.142,-7.283 6.896,-7.427 6.587,-7.386 6.546,-7.714 6.566,-8.127 6.443,-8.434 v -0.493 l 0.185,-0.164 0.113,-0.102 0.041,-0.135 1.224,0.299 c 0,0 0.318,0.205 0.471,0.246 0.154,0.041 0.39,0.041 0.39,0.041 l 0.309,-0.513 -0.102,-0.37 0.184,-0.268 0.166,-0.349 c 0,0 0.164,-0.278 0.184,-0.451 0.021,-0.176 0,-0.35 0,-0.35 l -0.041,-0.268 -0.411,-0.041 -0.164,0.123 c -0.043,0.032 -0.052,0.009 -0.084,0.237 -0.007,0.071 0.007,0.047 0.032,0.154 0.041,0.174 -0.237,0.473 -0.237,0.473 l -0.205,0.215 -0.174,0.145 -1.696,-0.75 -0.123,-0.186 -0.164,-0.102 -0.638,-0.041 -0.575,-0.062 -0.227,0.062 -0.328,0.432 -0.144,0.677 -0.041,0.616 -0.103,0.761 c 0,0 -0.196,0.483 -0.267,0.555 -0.072,0.072 -0.679,0.165 -0.679,0.165 0,0 -0.401,-0.011 -0.533,0.019 C 2.672,-7.828 2.045,-7.55 2.045,-7.55 H 1.675 L 1.696,-7.777 1.532,-7.941 1.983,-9.523 1.901,-9.77 1.963,-9.975 c 0,0 0.082,-0.134 0.102,-0.226 0.021,-0.092 0,-0.328 0,-0.328 v -0.309 l -0.041,-0.349 -0.739,-0.02 -0.021,0.184 -0.268,-0.061 -0.308,-0.145 -0.472,-0.041 -0.473,0.02 -0.226,0.125 -0.123,0.102 c 0,0 0.032,0.144 0.061,0.227 0.032,0.082 0.432,0.082 0.432,0.082 l 0.494,0.021 0.205,0.328 0.308,0.328 0.02,0.267 -0.924,1.788 0.062,0.104 -0.206,0.101 -0.206,0.268 -0.205,0.554 -0.041,0.494 0.061,0.473 c 0,0 0.176,0.256 0.309,0.307 0.133,0.052 0.329,0.093 0.432,0.082 l 0.39,-0.041 0.123,0.164 1.086,0.069 0.72,-0.087 -0.24,0.349 -0.065,0.326 0.088,0.262 -0.197,0.11 -0.065,0.262 -0.197,0.326 -0.061,0.172 -0.205,0.164 -0.185,0.432 c 0,0 -0.052,0.173 -0.083,0.246 -0.031,0.072 0,0.369 0,0.369 l 0.083,0.309 0.164,0.432 -0.061,0.144 -0.206,0.246 -0.195,-0.061 c 0,0 -0.135,-0.053 -0.196,-0.021 -0.062,0.031 -0.071,0.215 -0.071,0.215 l -0.082,0.339 -0.196,0.041 0.051,0.515 -0.133,0.153 -0.267,0.082 z"
           style="fill:#000000;fill-opacity:1;fill-rule:nonzero;stroke:none"
           id="path75993-6-8-4" />
      </g>
      <g
         id="g75999-9-7-0"
         transform="matrix(0.35277777,0,0,-0.35277777,95.536375,128.96453)"
         style="fill:#000000">
        <path
           d="m 0,0 0.195,0.052 -0.17,0.024 z m -0.866,-0.229 c 0.002,0.123 -0.069,0.259 -0.095,0.411 l -0.065,0.175 z m 0.207,-0.693 c 0.282,-0.08 -0.084,0.319 -0.084,0.319 z m -2.333,5.265 0.185,0.144 c 0,0 0.083,0.051 0.154,0.267 0.072,0.215 0.082,0.422 0.082,0.422 l 0.114,0.215 0.143,0.185 0.319,0.114 0.431,0.061 0.473,-0.041 0.308,-0.102 c 0,0 -0.041,0.07 0.186,-0.125 0.225,-0.195 0.143,-0.225 0.143,-0.225 0,0 0.082,-0.093 0.103,-0.289 0.02,-0.195 0,-0.205 0,-0.205 V 4.559 L -0.136,4.045 -0.372,4.066 -0.114,3.737 0.286,3.51 0.636,3.408 0.78,3.387 c 0,0 0.256,0.576 0.471,0.557 C 1.468,3.922 2.341,3.151 2.362,2.915 2.382,2.678 2.074,2.35 2.074,2.35 L 2.022,2.176 2.341,2.114 c 0,0 0.492,0.02 0.617,-0.042 0.123,-0.062 0.288,-0.349 0.288,-0.349 0,0 0.173,-0.287 0.185,-0.41 C 3.44,1.19 3.39,0.963 3.39,0.963 L 3.246,0.695 3.185,0.572 V 0.47 c 0,0 0.364,0.061 0.517,0.016 C 3.857,0.44 4.067,0.358 4.108,-0.039 4.15,-0.433 3.893,-0.598 3.893,-0.598 L 4.396,-0.887 4.499,-1.133 4.541,-1.461 4.561,-1.83 4.52,-1.955 4.478,-2.201 4.314,-2.365 V -2.653 L 4.252,-2.838 4.15,-2.941 3.903,-3.084 3.595,-3.043 3.554,-3.371 3.574,-3.784 3.451,-4.092 v -0.492 l 0.185,-0.164 0.113,-0.104 0.041,-0.133 1.223,0.298 c 0,0 0.319,0.205 0.472,0.247 0.155,0.04 0.392,0.04 0.392,0.04 L 6.184,-4.912 6.082,-5.283 6.266,-5.551 6.43,-5.899 c 0,0 0.165,-0.279 0.185,-0.452 0.021,-0.175 0,-0.35 0,-0.35 L 6.574,-6.969 6.164,-7.01 6,-6.886 c -0.041,0.031 -0.053,0.009 -0.082,0.237 -0.009,0.07 0.004,0.046 0.029,0.153 0.041,0.175 -0.236,0.473 -0.236,0.473 L 5.506,-5.807 5.332,-5.664 3.636,-6.412 3.513,-6.598 3.349,-6.701 2.71,-6.742 2.136,-6.803 1.91,-6.742 1.581,-6.31 1.436,-5.633 1.395,-5.016 1.292,-4.256 c 0,0 -0.194,0.483 -0.266,0.555 -0.072,0.072 -0.678,0.165 -0.678,0.165 0,0 -0.4,-0.011 -0.535,0.02 -0.133,0.031 -0.76,0.309 -0.76,0.309 h -0.371 l 0.021,-0.227 -0.164,-0.164 0.452,-1.582 -0.082,-0.248 0.062,-0.205 c 0,0 0.082,-0.133 0.102,-0.225 0.021,-0.093 0,-0.329 0,-0.329 v -0.309 l -0.041,-0.348 -0.739,-0.021 -0.021,0.185 -0.267,-0.062 -0.309,-0.144 -0.472,-0.041 -0.472,0.02 -0.227,0.124 -0.123,0.103 c 0,0 0.03,0.143 0.061,0.227 0.031,0.082 0.432,0.082 0.432,0.082 l 0.493,0.02 0.206,0.328 0.309,0.329 0.02,0.266 -0.925,1.789 0.061,0.103 -0.205,0.102 -0.205,0.268 -0.206,0.554 -0.041,0.493 0.061,0.473 c 0,0 0.175,0.257 0.309,0.308 0.134,0.051 0.369,-10e-4 0.431,0.082 0.048,0.065 0.31,0.108 0.31,0.108 l 0.261,0.022 1.025,0.086 0.567,0.023 c -0.25,0.174 -0.152,0.371 -0.152,0.371 l -0.087,0.131 0.043,0.153 -0.036,0.133 -0.349,0.884 -0.205,0.164 -0.185,0.432 c 0,0 -0.051,0.174 -0.082,0.247 -0.031,0.071 0,0.369 0,0.369 l 0.082,0.309 0.164,0.432 -0.061,0.143 -0.205,0.247 -0.196,-0.062 c 0,0 -0.133,-0.052 -0.194,-0.021 C -2.16,2.946 -2.17,3.131 -2.17,3.131 L -2.252,3.469 -2.447,3.51 -2.396,4.024 -2.53,4.178 -2.797,4.26 Z"
           style="fill:#000000;fill-opacity:1;fill-rule:nonzero;stroke:none"
           id="path76001-1-4-3" />
      </g>
      <g
         id="g76003-8-6-3"
         transform="matrix(0.35277777,0,0,-0.35277777,95.536375,128.96453)"
         style="fill:#000000">
        <path
           d="m 0,0 0.195,0.052 -0.17,0.024 z m -0.866,-0.229 c 0.002,0.123 -0.069,0.259 -0.095,0.411 l -0.065,0.175 z m 0.207,-0.693 c 0.282,-0.08 -0.084,0.319 -0.084,0.319 z m -2.333,5.265 0.185,0.144 c 0,0 0.083,0.051 0.154,0.267 0.072,0.215 0.082,0.422 0.082,0.422 l 0.114,0.215 0.143,0.185 0.319,0.114 0.431,0.061 0.473,-0.041 0.308,-0.102 c 0,0 -0.041,0.07 0.186,-0.125 0.225,-0.195 0.143,-0.225 0.143,-0.225 0,0 0.082,-0.093 0.103,-0.289 0.02,-0.195 0,-0.205 0,-0.205 V 4.559 L -0.136,4.045 -0.372,4.066 -0.114,3.737 0.286,3.51 0.636,3.408 0.78,3.387 c 0,0 0.256,0.576 0.471,0.557 C 1.468,3.922 2.341,3.151 2.362,2.915 2.382,2.678 2.074,2.35 2.074,2.35 L 2.022,2.176 2.341,2.114 c 0,0 0.492,0.02 0.617,-0.042 0.123,-0.062 0.288,-0.349 0.288,-0.349 0,0 0.173,-0.287 0.185,-0.41 C 3.44,1.19 3.39,0.963 3.39,0.963 L 3.246,0.695 3.185,0.572 V 0.47 c 0,0 0.364,0.061 0.517,0.016 C 3.857,0.44 4.067,0.358 4.108,-0.039 4.15,-0.433 3.893,-0.598 3.893,-0.598 L 4.396,-0.887 4.499,-1.133 4.541,-1.461 4.561,-1.83 4.52,-1.955 4.478,-2.201 4.314,-2.365 V -2.653 L 4.252,-2.838 4.15,-2.941 3.903,-3.084 3.595,-3.043 3.554,-3.371 3.574,-3.784 3.451,-4.092 v -0.492 l 0.185,-0.164 0.113,-0.104 0.041,-0.133 1.223,0.298 c 0,0 0.319,0.205 0.472,0.247 0.155,0.04 0.392,0.04 0.392,0.04 L 6.184,-4.912 6.082,-5.283 6.266,-5.551 6.43,-5.899 c 0,0 0.165,-0.279 0.185,-0.452 0.021,-0.175 0,-0.35 0,-0.35 L 6.574,-6.969 6.164,-7.01 6,-6.886 c -0.041,0.031 -0.053,0.009 -0.082,0.237 -0.009,0.07 0.004,0.046 0.029,0.153 0.041,0.175 -0.236,0.473 -0.236,0.473 L 5.506,-5.807 5.332,-5.664 3.636,-6.412 3.513,-6.598 3.349,-6.701 2.71,-6.742 2.136,-6.803 1.91,-6.742 1.581,-6.31 1.436,-5.633 1.395,-5.016 1.292,-4.256 c 0,0 -0.194,0.483 -0.266,0.555 -0.072,0.072 -0.678,0.165 -0.678,0.165 0,0 -0.4,-0.011 -0.535,0.02 -0.133,0.031 -0.76,0.309 -0.76,0.309 h -0.371 l 0.021,-0.227 -0.164,-0.164 0.452,-1.582 -0.082,-0.248 0.062,-0.205 c 0,0 0.082,-0.133 0.102,-0.225 0.021,-0.093 0,-0.329 0,-0.329 v -0.309 l -0.041,-0.348 -0.739,-0.021 -0.021,0.185 -0.267,-0.062 -0.309,-0.144 -0.472,-0.041 -0.472,0.02 -0.227,0.124 -0.123,0.103 c 0,0 0.03,0.143 0.061,0.227 0.031,0.082 0.432,0.082 0.432,0.082 l 0.493,0.02 0.206,0.328 0.309,0.329 0.02,0.266 -0.925,1.789 0.061,0.103 -0.205,0.102 -0.205,0.268 -0.206,0.554 -0.041,0.493 0.061,0.473 c 0,0 0.175,0.257 0.309,0.308 0.134,0.051 0.369,-10e-4 0.431,0.082 0.048,0.065 0.31,0.108 0.31,0.108 l 0.261,0.022 1.025,0.086 0.567,0.023 c -0.25,0.174 -0.152,0.371 -0.152,0.371 l -0.087,0.131 0.043,0.153 -0.036,0.133 -0.349,0.884 -0.205,0.164 -0.185,0.432 c 0,0 -0.051,0.174 -0.082,0.247 -0.031,0.071 0,0.369 0,0.369 l 0.082,0.309 0.164,0.432 -0.061,0.143 -0.205,0.247 -0.196,-0.062 c 0,0 -0.133,-0.052 -0.194,-0.021 C -2.16,2.946 -2.17,3.131 -2.17,3.131 L -2.252,3.469 -2.447,3.51 -2.396,4.024 -2.53,4.178 -2.797,4.26 Z"
           style="fill:#000000;fill-opacity:1;fill-rule:nonzero;stroke:none"
           id="path76005-1-8-6" />
      </g>
      <g
         id="g76007-7-9-3"
         transform="matrix(0.35277777,0,0,-0.35277777,88.110685,128.98863)"
         style="fill:#000000">
        <path
           d="m 0,0 0.194,0.051 -0.17,0.024 z m -0.867,-0.229 c 0.003,0.122 -0.069,0.258 -0.095,0.411 l -0.065,0.173 z m 0.208,-0.694 c 0.282,-0.08 -0.084,0.319 -0.084,0.319 z m -1.083,3.908 -0.161,-0.05 c 0,0 -0.134,-0.051 -0.195,-0.021 C -2.16,2.945 -2.17,3.13 -2.17,3.13 L -2.213,3.276 -2.268,3.153 -2.525,2.662 -2.763,2.189 -2.767,1.907 l 0.409,0.17 0.468,0.486 z m -1.251,1.357 0.186,0.144 c 0,0 0.082,0.052 0.154,0.268 0.071,0.215 0.082,0.421 0.082,0.421 l 0.114,0.216 0.143,0.185 0.318,0.113 0.432,0.061 0.472,-0.041 0.309,-0.102 c 0,0 -0.041,0.071 0.185,-0.125 0.226,-0.194 0.144,-0.225 0.144,-0.225 0,0 0.082,-0.093 0.103,-0.288 0.02,-0.195 0,-0.205 0,-0.205 V 4.559 L -0.136,4.045 -0.372,4.064 -0.115,3.736 0.285,3.51 0.635,3.408 0.778,3.387 c 0,0 0.257,0.575 0.474,0.555 C 1.468,3.921 2.341,3.15 2.362,2.914 2.382,2.678 2.073,2.35 2.073,2.35 L 2.022,2.175 2.341,2.113 c 0,0 0.492,0.021 0.616,-0.041 C 3.08,2.01 3.245,1.723 3.245,1.723 c 0,0 0.174,-0.288 0.185,-0.411 C 3.44,1.189 3.388,0.962 3.388,0.962 L 3.245,0.695 3.183,0.572 C 3.183,0.47 3.548,0.531 3.702,0.486 3.857,0.439 4.067,0.357 4.108,-0.039 4.149,-0.434 3.892,-0.6 3.892,-0.6 L 4.395,-0.887 4.499,-1.133 4.54,-1.462 4.56,-1.832 4.519,-1.956 4.478,-2.202 4.313,-2.366 V -2.653 L 4.251,-2.838 3.903,-3.085 3.595,-3.044 3.554,-3.373 3.574,-3.784 3.45,-4.092 v -0.493 l 0.186,-0.164 0.113,-0.104 0.041,-0.132 1.223,0.297 c 0,0 0.318,0.205 0.472,0.247 C 5.64,-4.4 5.876,-4.4 5.876,-4.4 l 0.308,-0.514 -0.103,-0.37 0.185,-0.267 0.165,-0.348 c 0,0 0.164,-0.279 0.184,-0.453 0.021,-0.174 0,-0.35 0,-0.35 L 6.574,-6.969 6.164,-7.01 5.999,-6.886 c -0.041,0.03 -0.052,0.009 -0.083,0.237 -0.007,0.07 0.006,0.045 0.031,0.152 0.041,0.176 -0.237,0.473 -0.237,0.473 L 5.505,-5.808 5.331,-5.664 3.636,-6.415 3.513,-6.599 3.348,-6.702 2.71,-6.743 2.136,-6.804 1.909,-6.743 1.58,-6.311 1.436,-5.633 1.395,-5.016 1.292,-4.256 c 0,0 -0.194,0.482 -0.266,0.554 -0.073,0.073 -0.679,0.164 -0.679,0.164 0,0 -0.401,-0.009 -0.534,0.021 -0.134,0.032 -0.761,0.309 -0.761,0.309 h -0.37 l 0.021,-0.226 -0.164,-0.165 0.451,-1.582 -0.082,-0.247 0.062,-0.205 c 0,0 0.082,-0.134 0.102,-0.225 0.021,-0.094 0,-0.33 0,-0.33 v -0.309 l -0.041,-0.348 -0.738,-0.021 -0.021,0.185 -0.268,-0.062 -0.309,-0.143 -0.471,-0.042 -0.473,0.021 -0.226,0.123 -0.124,0.103 c 0,0 0.032,0.143 0.062,0.225 0.031,0.084 0.432,0.084 0.432,0.084 l 0.493,0.02 0.205,0.328 0.309,0.33 0.02,0.266 -0.924,1.787 -0.144,0.207 -0.206,0.267 -0.205,0.555 -0.042,0.492 0.062,0.473 c 0,0 0.175,0.256 0.308,0.309 0.133,0.05 0.371,-0.002 0.432,0.082 0.047,0.064 0.309,0.107 0.309,0.107 l 0.261,0.023 1.026,0.086 0.567,0.022 c -0.25,0.173 -0.152,0.371 -0.152,0.371 l -0.088,0.131 0.043,0.152 -0.036,0.135 L -1.215,0.654 -1.42,0.818 -1.529,1.074 -1.827,1.131 -2.31,0.768 -2.951,0.549 -3.57,0.56 l -0.383,0.272 0.009,0.565 0.444,1.088 0.599,0.909 -0.154,0.285 -0.176,0.039 -0.008,0.565 0.319,0.03 z"
           style="fill:#000000;fill-opacity:1;fill-rule:nonzero;stroke:none"
           id="path76009-5-0-2" />
      </g>
      <g
         id="g76011-9-0-7"
         transform="matrix(0.35277777,0,0,-0.35277777,88.110685,128.98863)"
         style="fill:#000000">
        <path
           d="m 0,0 0.194,0.051 -0.17,0.024 z m -0.867,-0.229 c 0.003,0.122 -0.069,0.258 -0.095,0.411 l -0.065,0.173 z m 0.208,-0.694 c 0.282,-0.08 -0.084,0.319 -0.084,0.319 z m -1.083,3.908 -0.161,-0.05 c 0,0 -0.134,-0.051 -0.195,-0.021 C -2.16,2.945 -2.17,3.13 -2.17,3.13 L -2.213,3.276 -2.268,3.153 -2.525,2.662 -2.763,2.189 -2.767,1.907 l 0.409,0.17 0.468,0.486 z m -1.251,1.357 0.186,0.144 c 0,0 0.082,0.052 0.154,0.268 0.071,0.215 0.082,0.421 0.082,0.421 l 0.114,0.216 0.143,0.185 0.318,0.113 0.432,0.061 0.472,-0.041 0.309,-0.102 c 0,0 -0.041,0.071 0.185,-0.125 0.226,-0.194 0.144,-0.225 0.144,-0.225 0,0 0.082,-0.093 0.103,-0.288 0.02,-0.195 0,-0.205 0,-0.205 V 4.559 L -0.136,4.045 -0.372,4.064 -0.115,3.736 0.285,3.51 0.635,3.408 0.778,3.387 c 0,0 0.257,0.575 0.474,0.555 C 1.468,3.921 2.341,3.15 2.362,2.914 2.382,2.678 2.073,2.35 2.073,2.35 L 2.022,2.175 2.341,2.113 c 0,0 0.492,0.021 0.616,-0.041 C 3.08,2.01 3.245,1.723 3.245,1.723 c 0,0 0.174,-0.288 0.185,-0.411 C 3.44,1.189 3.388,0.962 3.388,0.962 L 3.245,0.695 3.183,0.572 C 3.183,0.47 3.548,0.531 3.702,0.486 3.857,0.439 4.067,0.357 4.108,-0.039 4.149,-0.434 3.892,-0.6 3.892,-0.6 L 4.395,-0.887 4.499,-1.133 4.54,-1.462 4.56,-1.832 4.519,-1.956 4.478,-2.202 4.313,-2.366 V -2.653 L 4.251,-2.838 3.903,-3.085 3.595,-3.044 3.554,-3.373 3.574,-3.784 3.45,-4.092 v -0.493 l 0.186,-0.164 0.113,-0.104 0.041,-0.132 1.223,0.297 c 0,0 0.318,0.205 0.472,0.247 C 5.64,-4.4 5.876,-4.4 5.876,-4.4 l 0.308,-0.514 -0.103,-0.37 0.185,-0.267 0.165,-0.348 c 0,0 0.164,-0.279 0.184,-0.453 0.021,-0.174 0,-0.35 0,-0.35 L 6.574,-6.969 6.164,-7.01 5.999,-6.886 c -0.041,0.03 -0.052,0.009 -0.083,0.237 -0.007,0.07 0.006,0.045 0.031,0.152 0.041,0.176 -0.237,0.473 -0.237,0.473 L 5.505,-5.808 5.331,-5.664 3.636,-6.415 3.513,-6.599 3.348,-6.702 2.71,-6.743 2.136,-6.804 1.909,-6.743 1.58,-6.311 1.436,-5.633 1.395,-5.016 1.292,-4.256 c 0,0 -0.194,0.482 -0.266,0.554 -0.073,0.073 -0.679,0.164 -0.679,0.164 0,0 -0.401,-0.009 -0.534,0.021 -0.134,0.032 -0.761,0.309 -0.761,0.309 h -0.37 l 0.021,-0.226 -0.164,-0.165 0.451,-1.582 -0.082,-0.247 0.062,-0.205 c 0,0 0.082,-0.134 0.102,-0.225 0.021,-0.094 0,-0.33 0,-0.33 v -0.309 l -0.041,-0.348 -0.738,-0.021 -0.021,0.185 -0.268,-0.062 -0.309,-0.143 -0.471,-0.042 -0.473,0.021 -0.226,0.123 -0.124,0.103 c 0,0 0.032,0.143 0.062,0.225 0.031,0.084 0.432,0.084 0.432,0.084 l 0.493,0.02 0.205,0.328 0.309,0.33 0.02,0.266 -0.924,1.787 -0.144,0.207 -0.206,0.267 -0.205,0.555 -0.042,0.492 0.062,0.473 c 0,0 0.175,0.256 0.308,0.309 0.133,0.05 0.371,-0.002 0.432,0.082 0.047,0.064 0.309,0.107 0.309,0.107 l 0.261,0.023 1.026,0.086 0.567,0.022 c -0.25,0.173 -0.152,0.371 -0.152,0.371 l -0.088,0.131 0.043,0.152 -0.036,0.135 L -1.215,0.654 -1.42,0.818 -1.529,1.074 -1.827,1.131 -2.31,0.768 -2.951,0.549 -3.57,0.56 l -0.383,0.272 0.009,0.565 0.444,1.088 0.599,0.909 -0.154,0.285 -0.176,0.039 -0.008,0.565 0.319,0.03 z"
           style="fill:#000000;fill-opacity:1;fill-rule:nonzero;stroke:none"
           id="path76013-7-0-9" />
      </g>
      <g
         id="g6654"
         transform="matrix(0.35277777,0,0,-0.35277777,124.12232,355.26945)">
        <g
           id="g6118"
           transform="translate(-7.3182374,-6.8791431)">
          <path
             id="path11610-5-05"
             style="stroke-width:0.999998"
             d="m -105.54782,656.16034 -1.20557,-2.15772 -3.22851,-1.31396 v 0.0835 l -2.26611,0.89794 v 0.58448 h -1.83692 v -0.48194 l -1.24805,-3.20215 -1.10888,0.0747 -0.0205,-0.19189 -8.00684,1.68017 -0.95654,0.4292 -0.2168,-1.0166 h 1.07373 l 7.91456,-1.62158 -0.0205,-0.2754 0.67823,-0.14208 -0.0396,-0.36915 v -0.78222 h -2.00683 v -0.19629 l -6.84082,1.43262 -0.95508,0.43066 -0.21533,-1.01513 h 1.07373 l 6.9375,-1.42383 v -3.55225 h 11.27783 6.52735 v 0.78516 c 0.526,-0.004 0.90674,0.39731 0.90674,0.9873 0,0.41201 -0.0777,0.93875 -0.38965,1.28174 v 0.87012 h -0.32373 c 0,0 -2.3e-4,-0.94065 0.0718,-1.07666 0.26,-0.22399 0.31934,-0.7852 0.31934,-1.0752 0,-0.57498 -0.39049,-0.65757 -0.58448,-0.66357 v 0.1333 c 0.218,0.24099 0.17285,0.6211 0.17285,0.6211 0,0 -0.75607,-0.30112 -1.39307,-0.39112 -0.63899,-0.091 -1.09277,0 -1.09277,0 l -0.21094,-0.21094 0.6211,-0.208 v -0.36329 h -1.21143 v 0.41895 l -2.46534,0.5332 v 0.52295 h 0.36036 l 0.23731,1.2041 1.18946,-0.36181 0.41747,1.26415 h 0.48194 l 0.62549,0.88477 -0.67823,0.48194 -0.63721,0.47021 h -0.89794 l -0.52295,-0.36475 -0.0513,-0.48193 -0.36474,0.0527 0.104,0.53173 -1.37842,0.10547 6.48339,1.78565 0.0527,0.68994 -0.36474,0.31348 -0.68994,-0.0542 v 0.37794 h -0.6372 l -0.83496,0.41601 v 0.74268 h -0.68994 l -0.25928,0.99023 h -0.68994 l 0.022,-0.34131 -1.26562,-0.51563 z m 1.03418,-1.66846 0.11865,-1.82666 -0.42773,-0.0498 v -0.62841 l -1.35938,-0.1919 0.31201,2.15186 z m -2.53272,-1.0166 -0.64892,-1.16162 v -0.73389 l -2.7041,-0.38525 0.41748,0.74268 v 0.36474 z m 0.69873,-5.39209 1.00196,-0.15674 -0.0513,-0.47021 0.0762,-0.0234 -1.01367,-1.17627 h -0.21094 v 0.39697 l -0.21973,-0.003 v 0.90967 h 0.41748 z" />
          <g
             id="g75995-6-8-9"
             transform="translate(-102.94652,632.45027)"
             style="fill:#000000">
            <path
               id="path75997-6-7-2"
               style="fill:#000000;fill-opacity:1;fill-rule:nonzero;stroke:none;stroke-width:0.999998"
               d="m -13.596425,11.581152 0.133298,-0.11133 V 10.88828 H -17.11205 V 9.7208 h 1.02246 V 9.4292974 h -0.584475 v -0.584475 h 1.67871 v 0.584475 h -0.51123 V 9.7208 H -3.7629346 V 9.5201224 h -0.4731375 v -0.584475 h 1.6772401 v 0.584475 H -3.1784596 V 9.7208 h 1.6040026 l 0.019043,0.1992225 0.74707501,0.2021475 0.38232001,0.602047 0.055665,0.619635 -0.12597751,0.2373 H -1.001697 l -0.06153,-0.07471 -0.1464825,-0.328125 -0.1083975,-0.29004 h -0.25635 -2.5532176 v 0.52881 l 0.294435,-0.0029 -0.096683,0.166987 z" />
          </g>
        </g>
        <path
           id="path76005-1-8-6-1"
           d="m -110.94092,648.64431 -0.43157,0.0548 -0.33781,-0.0241 -0.18775,-0.14128 -0.16546,-0.1763 c 0,0 -0.0649,-0.19822 -0.19132,-0.38645 -0.12572,-0.18944 -0.22038,-0.21592 -0.22038,-0.21592 l -0.21603,-0.0895 0.16572,-0.13215 0.23673,-0.15016 0.088,-0.18349 -0.18573,-0.48217 0.17697,-0.0912 -0.0106,-0.34803 c 0,0 -0.039,-0.18045 0.0135,-0.22705 0.0506,-0.046 0.1933,-0.0319 0.1933,-0.0319 l 0.20456,0.009 0.1321,-0.29307 0.0213,-0.15473 -0.27236,-0.37175 -0.16103,-0.27629 c 0,0 -0.10893,-0.27925 -0.0979,-0.35593 0.0106,-0.0786 0.0135,-0.26044 0.0135,-0.26044 l 0.0634,-0.4656 0.15423,-0.21257 0.10204,-0.94411 0.001,0.6073 0.0172,-0.18694 c -0.0153,-0.15347 0.0162,-0.30226 -0.0183,-0.42033 v -0.13824 l -0.0817,-0.13702 0.0487,-0.14863 c 0,0 -0.1463,-0.16366 0.0487,-0.39773 l -0.55283,0.12768 -1.01161,0.1885 -0.25723,0.0479 c 0,0 -0.26428,0.0292 -0.3278,-0.0208 -0.0818,-0.0636 -0.29427,0.0488 -0.437,0.035 -0.14277,-0.0132 -0.37996,-0.21608 -0.37996,-0.21608 l -0.18475,-0.43991 -0.0909,-0.48545 0.0523,-0.58865 0.1267,-0.31283 0.17055,-0.15324 -0.0865,-0.0825 0.41851,-1.96999 -0.0905,-0.25163 -0.38538,-0.23589 -0.28469,-0.26206 -0.48104,0.11251 c 0,0 -0.38679,0.1063 -0.43842,0.0355 -0.0521,-0.0727 -0.11951,-0.20261 -0.11951,-0.20261 l 0.0914,-0.13151 0.18591,-0.18024 0.45079,-0.14521 0.46568,-0.0855 0.33607,0.0565 0.27378,-0.01 -0.0291,-0.18341 0.71873,-0.17632 0.13158,0.32388 0.0819,0.29801 c 0,0 0.083,0.22256 0.0874,0.3178 0.005,0.094 -0.0391,0.2447 -0.0391,0.2447 l -0.005,0.21405 0.14472,0.21695 -0.017,1.64542 0.20164,0.11481 0.0405,0.22437 0.35734,-0.0983 c 0,0 0.53109,-0.43442 0.65112,-0.49956 0.12195,-0.0657 0.5101,-0.16152 0.5101,-0.16152 0,0 0.1953,-0.0891 0.36681,-0.17984 l 2.7161,-0.74676 0.0528,0.23615 0.12654,0.30551 0.28573,-0.12109 0.27638,0.0713 0.12493,0.0737 0.10965,0.16127 0.0765,0.27824 0.20122,0.11344 0.10479,0.22641 0.073,0.11066 0.0795,0.36097 0.046,0.32765 -0.0337,0.26446 -0.40939,0.41183 c 0,0 0.29163,0.09 0.35559,0.48105 0.0657,0.39366 -0.11454,0.52919 -0.25182,0.61464 -0.13559,0.084 -0.50285,0.12154 -0.50285,0.12154 l 0.0271,0.0988 0.0916,0.10086 0.20948,0.22042 c 0,0 0.10843,0.20572 0.13237,0.3267 0.021,0.12175 -0.0691,0.44443 -0.0691,0.44443 0,0 -0.0833,0.32169 -0.18546,0.41406 -0.10407,0.0929 -0.58376,0.20304 -0.58376,0.20304 l -0.29121,0.14539 0.0967,0.15272 c 0,0 0.38317,0.23528 0.42673,0.46908 0.0423,0.23313 -0.59456,1.20717 -0.79802,1.28587 -0.20228,0.0753 -0.60239,-0.41165 -0.60239,-0.41165 l -0.13258,0.0593 -0.31078,0.19027 -0.3254,0.32494 -0.16121,0.38614 0.22159,-0.0837 -0.0716,0.55282 0.0543,0.19774 c 0,0 0.0216,0.005 0.0543,0.19773 0.0318,0.19456 -0.0224,0.30544 -0.0224,0.30544 0,0 0.0867,0.008 -0.0786,0.25558 -0.16719,0.24819 -0.1464,0.16935 -0.1464,0.16935 l -0.26942,0.18042 z m 0.0281,-5.89312 0.15762,-0.0676 -0.20184,8e-4 z m -0.9217,-0.45154 c 0,0 0.24847,-0.48087 -0.002,-0.32901 z" />
      </g>
    </g>
  </g>
</svg>
