<?xml version="1.0" encoding="UTF-8" standalone="no"?>
<!-- Created with Inkscape (http://www.inkscape.org/) -->

<svg
   width="28.220272mm"
   height="6.0904245mm"
   viewBox="0 0 28.220272 6.0904245"
   version="1.1"
   id="svg4364"
   sodipodi:docname="inkporter-svg-zr1h0wgr.svg"
   xmlns:inkscape="http://www.inkscape.org/namespaces/inkscape"
   xmlns:sodipodi="http://sodipodi.sourceforge.net/DTD/sodipodi-0.dtd"
   xmlns="http://www.w3.org/2000/svg"
   xmlns:svg="http://www.w3.org/2000/svg">
  <sodipodi:namedview
     id="namedview4366"
     pagecolor="#ffffff"
     bordercolor="#666666"
     borderopacity="1.0"
     inkscape:pageshadow="2"
     inkscape:pageopacity="0.0"
     inkscape:pagecheckerboard="0"
     inkscape:document-units="mm"
     showgrid="false"
     inkscape:zoom="3.6233469"
     inkscape:cx="411.22201"
     inkscape:cy="483.11687"
     inkscape:window-width="1920"
     inkscape:window-height="1017"
     inkscape:window-x="-8"
     inkscape:window-y="-8"
     inkscape:window-maximized="1"
     inkscape:current-layer="layer1" />
  <defs
     id="defs4361">
    <clipPath
       clipPathUnits="userSpaceOnUse"
       id="clipPath75985-4-7-9">
      <path
         d="M 0,0 H 595.276 V 841.89 H 0 Z"
         id="path75983-4-1-6" />
    </clipPath>
  </defs>
  <g
     inkscape:label="Layer 1"
     inkscape:groupmode="layer"
     id="layer1"
     transform="translate(-100.82618,-117.65983)">
    <g
       id="G-37cm-AA"
       transform="translate(31.17316,-7.7113462)">
      <g
         id="g75987-5-6-9-4-2"
         transform="matrix(0.35277777,0,0,-0.35277777,90.80305,127.43256)"
         style="fill:#000000">
        <path
           d="m 0,0 0.185,0.145 c 0,0 0.082,0.051 0.155,0.266 0.071,0.216 0.082,0.422 0.082,0.422 L 0.535,1.049 0.678,1.233 0.996,1.347 1.429,1.409 1.901,1.368 2.209,1.265 c 0,0 -0.041,0.071 0.186,-0.124 0.225,-0.195 0.143,-0.226 0.143,-0.226 0,0 0.082,-0.092 0.103,-0.288 0.021,-0.195 0,-0.205 0,-0.205 V 0.216 l 0.215,-0.512 -0.236,0.02 0.257,-0.329 0.401,-0.227 0.349,-0.103 0.144,-0.02 c 0,0 0.257,0.575 0.473,0.556 0.216,-0.022 1.09,-0.792 1.111,-1.028 0.02,-0.237 -0.289,-0.565 -0.289,-0.565 L 5.015,-2.167 5.334,-2.228 c 0,0 0.493,0.019 0.616,-0.041 0.123,-0.062 0.287,-0.35 0.287,-0.35 0,0 0.175,-0.287 0.186,-0.411 0.01,-0.123 -0.042,-0.35 -0.042,-0.35 L 6.237,-3.646 6.175,-3.77 v -0.103 c 0,0 0.365,0.062 0.52,0.016 0.154,-0.046 0.365,-0.128 0.406,-0.524 0.041,-0.395 -0.217,-0.56 -0.217,-0.56 L 7.388,-5.229 7.49,-5.476 7.532,-5.804 7.552,-6.173 7.511,-6.297 7.47,-6.543 7.306,-6.708 V -6.996 L 7.244,-7.181 7.142,-7.283 6.896,-7.427 6.587,-7.386 6.546,-7.714 6.566,-8.127 6.443,-8.434 v -0.493 l 0.185,-0.164 0.113,-0.102 0.041,-0.135 1.224,0.299 c 0,0 0.318,0.205 0.471,0.246 0.154,0.041 0.39,0.041 0.39,0.041 l 0.309,-0.513 -0.102,-0.37 0.184,-0.268 0.166,-0.349 c 0,0 0.164,-0.278 0.184,-0.451 0.021,-0.176 0,-0.35 0,-0.35 l -0.041,-0.268 -0.411,-0.041 -0.164,0.123 c -0.043,0.032 -0.052,0.009 -0.084,0.237 -0.007,0.071 0.007,0.047 0.032,0.154 0.041,0.174 -0.237,0.473 -0.237,0.473 l -0.205,0.215 -0.174,0.145 -1.696,-0.75 -0.123,-0.186 -0.164,-0.102 -0.638,-0.041 -0.575,-0.062 -0.227,0.062 -0.328,0.432 -0.144,0.677 -0.041,0.616 -0.103,0.761 c 0,0 -0.196,0.483 -0.267,0.555 -0.072,0.072 -0.679,0.165 -0.679,0.165 0,0 -0.401,-0.011 -0.533,0.019 C 2.672,-7.828 2.045,-7.55 2.045,-7.55 H 1.675 L 1.696,-7.777 1.532,-7.941 1.983,-9.523 1.901,-9.77 1.963,-9.975 c 0,0 0.082,-0.134 0.102,-0.226 0.021,-0.092 0,-0.328 0,-0.328 v -0.309 l -0.041,-0.349 -0.739,-0.02 -0.021,0.184 -0.268,-0.061 -0.308,-0.145 -0.472,-0.041 -0.473,0.02 -0.226,0.125 -0.123,0.102 c 0,0 0.032,0.144 0.061,0.227 0.032,0.082 0.432,0.082 0.432,0.082 l 0.494,0.021 0.205,0.328 0.308,0.328 0.02,0.267 -0.924,1.788 0.062,0.104 -0.206,0.101 -0.206,0.268 -0.205,0.554 -0.041,0.494 0.061,0.473 c 0,0 0.176,0.256 0.309,0.307 0.133,0.052 0.329,0.093 0.432,0.082 l 0.39,-0.041 0.123,0.164 1.086,0.069 0.72,-0.087 -0.24,0.349 -0.065,0.326 0.088,0.262 -0.197,0.11 -0.065,0.262 -0.197,0.326 -0.061,0.172 -0.205,0.164 -0.185,0.432 c 0,0 -0.052,0.173 -0.083,0.246 -0.031,0.072 0,0.369 0,0.369 l 0.083,0.309 0.164,0.432 -0.061,0.144 -0.206,0.246 -0.195,-0.061 c 0,0 -0.135,-0.053 -0.196,-0.021 -0.062,0.031 -0.071,0.215 -0.071,0.215 l -0.082,0.339 -0.196,0.041 0.051,0.515 -0.133,0.153 -0.267,0.082 z"
           style="fill:#000000;fill-opacity:1;fill-rule:nonzero;stroke:none"
           id="path75989-7-2-8-0-4" />
      </g>
      <g
         id="g75991-8-0-7-8-9"
         transform="matrix(0.35277777,0,0,-0.35277777,90.80305,127.43256)"
         style="fill:#000000">
        <path
           d="m 0,0 0.185,0.145 c 0,0 0.082,0.051 0.155,0.266 0.071,0.216 0.082,0.422 0.082,0.422 L 0.535,1.049 0.678,1.233 0.996,1.347 1.429,1.409 1.901,1.368 2.209,1.265 c 0,0 -0.041,0.071 0.186,-0.124 0.225,-0.195 0.143,-0.226 0.143,-0.226 0,0 0.082,-0.092 0.103,-0.288 0.021,-0.195 0,-0.205 0,-0.205 V 0.216 l 0.215,-0.512 -0.236,0.02 0.257,-0.329 0.401,-0.227 0.349,-0.103 0.144,-0.02 c 0,0 0.257,0.575 0.473,0.556 0.216,-0.022 1.09,-0.792 1.111,-1.028 0.02,-0.237 -0.289,-0.565 -0.289,-0.565 L 5.015,-2.167 5.334,-2.228 c 0,0 0.493,0.019 0.616,-0.041 0.123,-0.062 0.287,-0.35 0.287,-0.35 0,0 0.175,-0.287 0.186,-0.411 0.01,-0.123 -0.042,-0.35 -0.042,-0.35 L 6.237,-3.646 6.175,-3.77 v -0.103 c 0,0 0.365,0.062 0.52,0.016 0.154,-0.046 0.365,-0.128 0.406,-0.524 0.041,-0.395 -0.217,-0.56 -0.217,-0.56 L 7.388,-5.229 7.49,-5.476 7.532,-5.804 7.552,-6.173 7.511,-6.297 7.47,-6.543 7.306,-6.708 V -6.996 L 7.244,-7.181 7.142,-7.283 6.896,-7.427 6.587,-7.386 6.546,-7.714 6.566,-8.127 6.443,-8.434 v -0.493 l 0.185,-0.164 0.113,-0.102 0.041,-0.135 1.224,0.299 c 0,0 0.318,0.205 0.471,0.246 0.154,0.041 0.39,0.041 0.39,0.041 l 0.309,-0.513 -0.102,-0.37 0.184,-0.268 0.166,-0.349 c 0,0 0.164,-0.278 0.184,-0.451 0.021,-0.176 0,-0.35 0,-0.35 l -0.041,-0.268 -0.411,-0.041 -0.164,0.123 c -0.043,0.032 -0.052,0.009 -0.084,0.237 -0.007,0.071 0.007,0.047 0.032,0.154 0.041,0.174 -0.237,0.473 -0.237,0.473 l -0.205,0.215 -0.174,0.145 -1.696,-0.75 -0.123,-0.186 -0.164,-0.102 -0.638,-0.041 -0.575,-0.062 -0.227,0.062 -0.328,0.432 -0.144,0.677 -0.041,0.616 -0.103,0.761 c 0,0 -0.196,0.483 -0.267,0.555 -0.072,0.072 -0.679,0.165 -0.679,0.165 0,0 -0.401,-0.011 -0.533,0.019 C 2.672,-7.828 2.045,-7.55 2.045,-7.55 H 1.675 L 1.696,-7.777 1.532,-7.941 1.983,-9.523 1.901,-9.77 1.963,-9.975 c 0,0 0.082,-0.134 0.102,-0.226 0.021,-0.092 0,-0.328 0,-0.328 v -0.309 l -0.041,-0.349 -0.739,-0.02 -0.021,0.184 -0.268,-0.061 -0.308,-0.145 -0.472,-0.041 -0.473,0.02 -0.226,0.125 -0.123,0.102 c 0,0 0.032,0.144 0.061,0.227 0.032,0.082 0.432,0.082 0.432,0.082 l 0.494,0.021 0.205,0.328 0.308,0.328 0.02,0.267 -0.924,1.788 0.062,0.104 -0.206,0.101 -0.206,0.268 -0.205,0.554 -0.041,0.494 0.061,0.473 c 0,0 0.176,0.256 0.309,0.307 0.133,0.052 0.329,0.093 0.432,0.082 l 0.39,-0.041 0.123,0.164 1.086,0.069 0.72,-0.087 -0.24,0.349 -0.065,0.326 0.088,0.262 -0.197,0.11 -0.065,0.262 -0.197,0.326 -0.061,0.172 -0.205,0.164 -0.185,0.432 c 0,0 -0.052,0.173 -0.083,0.246 -0.031,0.072 0,0.369 0,0.369 l 0.083,0.309 0.164,0.432 -0.061,0.144 -0.206,0.246 -0.195,-0.061 c 0,0 -0.135,-0.053 -0.196,-0.021 -0.062,0.031 -0.071,0.215 -0.071,0.215 l -0.082,0.339 -0.196,0.041 0.051,0.515 -0.133,0.153 -0.267,0.082 z"
           style="fill:#000000;fill-opacity:1;fill-rule:nonzero;stroke:none"
           id="path75993-6-8-4-6-5" />
      </g>
      <g
         id="g75999-9-7-0-0-8"
         transform="matrix(0.35277777,0,0,-0.35277777,95.536375,128.96453)"
         style="fill:#000000">
        <path
           d="m 0,0 0.195,0.052 -0.17,0.024 z m -0.866,-0.229 c 0.002,0.123 -0.069,0.259 -0.095,0.411 l -0.065,0.175 z m 0.207,-0.693 c 0.282,-0.08 -0.084,0.319 -0.084,0.319 z m -2.333,5.265 0.185,0.144 c 0,0 0.083,0.051 0.154,0.267 0.072,0.215 0.082,0.422 0.082,0.422 l 0.114,0.215 0.143,0.185 0.319,0.114 0.431,0.061 0.473,-0.041 0.308,-0.102 c 0,0 -0.041,0.07 0.186,-0.125 0.225,-0.195 0.143,-0.225 0.143,-0.225 0,0 0.082,-0.093 0.103,-0.289 0.02,-0.195 0,-0.205 0,-0.205 V 4.559 L -0.136,4.045 -0.372,4.066 -0.114,3.737 0.286,3.51 0.636,3.408 0.78,3.387 c 0,0 0.256,0.576 0.471,0.557 C 1.468,3.922 2.341,3.151 2.362,2.915 2.382,2.678 2.074,2.35 2.074,2.35 L 2.022,2.176 2.341,2.114 c 0,0 0.492,0.02 0.617,-0.042 0.123,-0.062 0.288,-0.349 0.288,-0.349 0,0 0.173,-0.287 0.185,-0.41 C 3.44,1.19 3.39,0.963 3.39,0.963 L 3.246,0.695 3.185,0.572 V 0.47 c 0,0 0.364,0.061 0.517,0.016 C 3.857,0.44 4.067,0.358 4.108,-0.039 4.15,-0.433 3.893,-0.598 3.893,-0.598 L 4.396,-0.887 4.499,-1.133 4.541,-1.461 4.561,-1.83 4.52,-1.955 4.478,-2.201 4.314,-2.365 V -2.653 L 4.252,-2.838 4.15,-2.941 3.903,-3.084 3.595,-3.043 3.554,-3.371 3.574,-3.784 3.451,-4.092 v -0.492 l 0.185,-0.164 0.113,-0.104 0.041,-0.133 1.223,0.298 c 0,0 0.319,0.205 0.472,0.247 0.155,0.04 0.392,0.04 0.392,0.04 L 6.184,-4.912 6.082,-5.283 6.266,-5.551 6.43,-5.899 c 0,0 0.165,-0.279 0.185,-0.452 0.021,-0.175 0,-0.35 0,-0.35 L 6.574,-6.969 6.164,-7.01 6,-6.886 c -0.041,0.031 -0.053,0.009 -0.082,0.237 -0.009,0.07 0.004,0.046 0.029,0.153 0.041,0.175 -0.236,0.473 -0.236,0.473 L 5.506,-5.807 5.332,-5.664 3.636,-6.412 3.513,-6.598 3.349,-6.701 2.71,-6.742 2.136,-6.803 1.91,-6.742 1.581,-6.31 1.436,-5.633 1.395,-5.016 1.292,-4.256 c 0,0 -0.194,0.483 -0.266,0.555 -0.072,0.072 -0.678,0.165 -0.678,0.165 0,0 -0.4,-0.011 -0.535,0.02 -0.133,0.031 -0.76,0.309 -0.76,0.309 h -0.371 l 0.021,-0.227 -0.164,-0.164 0.452,-1.582 -0.082,-0.248 0.062,-0.205 c 0,0 0.082,-0.133 0.102,-0.225 0.021,-0.093 0,-0.329 0,-0.329 v -0.309 l -0.041,-0.348 -0.739,-0.021 -0.021,0.185 -0.267,-0.062 -0.309,-0.144 -0.472,-0.041 -0.472,0.02 -0.227,0.124 -0.123,0.103 c 0,0 0.03,0.143 0.061,0.227 0.031,0.082 0.432,0.082 0.432,0.082 l 0.493,0.02 0.206,0.328 0.309,0.329 0.02,0.266 -0.925,1.789 0.061,0.103 -0.205,0.102 -0.205,0.268 -0.206,0.554 -0.041,0.493 0.061,0.473 c 0,0 0.175,0.257 0.309,0.308 0.134,0.051 0.369,-10e-4 0.431,0.082 0.048,0.065 0.31,0.108 0.31,0.108 l 0.261,0.022 1.025,0.086 0.567,0.023 c -0.25,0.174 -0.152,0.371 -0.152,0.371 l -0.087,0.131 0.043,0.153 -0.036,0.133 -0.349,0.884 -0.205,0.164 -0.185,0.432 c 0,0 -0.051,0.174 -0.082,0.247 -0.031,0.071 0,0.369 0,0.369 l 0.082,0.309 0.164,0.432 -0.061,0.143 -0.205,0.247 -0.196,-0.062 c 0,0 -0.133,-0.052 -0.194,-0.021 C -2.16,2.946 -2.17,3.131 -2.17,3.131 L -2.252,3.469 -2.447,3.51 -2.396,4.024 -2.53,4.178 -2.797,4.26 Z"
           style="fill:#000000;fill-opacity:1;fill-rule:nonzero;stroke:none"
           id="path76001-1-4-3-7-9" />
      </g>
      <g
         id="g76003-8-6-3-8-1"
         transform="matrix(0.35277777,0,0,-0.35277777,95.536375,128.96453)"
         style="fill:#000000">
        <path
           d="m 0,0 0.195,0.052 -0.17,0.024 z m -0.866,-0.229 c 0.002,0.123 -0.069,0.259 -0.095,0.411 l -0.065,0.175 z m 0.207,-0.693 c 0.282,-0.08 -0.084,0.319 -0.084,0.319 z m -2.333,5.265 0.185,0.144 c 0,0 0.083,0.051 0.154,0.267 0.072,0.215 0.082,0.422 0.082,0.422 l 0.114,0.215 0.143,0.185 0.319,0.114 0.431,0.061 0.473,-0.041 0.308,-0.102 c 0,0 -0.041,0.07 0.186,-0.125 0.225,-0.195 0.143,-0.225 0.143,-0.225 0,0 0.082,-0.093 0.103,-0.289 0.02,-0.195 0,-0.205 0,-0.205 V 4.559 L -0.136,4.045 -0.372,4.066 -0.114,3.737 0.286,3.51 0.636,3.408 0.78,3.387 c 0,0 0.256,0.576 0.471,0.557 C 1.468,3.922 2.341,3.151 2.362,2.915 2.382,2.678 2.074,2.35 2.074,2.35 L 2.022,2.176 2.341,2.114 c 0,0 0.492,0.02 0.617,-0.042 0.123,-0.062 0.288,-0.349 0.288,-0.349 0,0 0.173,-0.287 0.185,-0.41 C 3.44,1.19 3.39,0.963 3.39,0.963 L 3.246,0.695 3.185,0.572 V 0.47 c 0,0 0.364,0.061 0.517,0.016 C 3.857,0.44 4.067,0.358 4.108,-0.039 4.15,-0.433 3.893,-0.598 3.893,-0.598 L 4.396,-0.887 4.499,-1.133 4.541,-1.461 4.561,-1.83 4.52,-1.955 4.478,-2.201 4.314,-2.365 V -2.653 L 4.252,-2.838 4.15,-2.941 3.903,-3.084 3.595,-3.043 3.554,-3.371 3.574,-3.784 3.451,-4.092 v -0.492 l 0.185,-0.164 0.113,-0.104 0.041,-0.133 1.223,0.298 c 0,0 0.319,0.205 0.472,0.247 0.155,0.04 0.392,0.04 0.392,0.04 L 6.184,-4.912 6.082,-5.283 6.266,-5.551 6.43,-5.899 c 0,0 0.165,-0.279 0.185,-0.452 0.021,-0.175 0,-0.35 0,-0.35 L 6.574,-6.969 6.164,-7.01 6,-6.886 c -0.041,0.031 -0.053,0.009 -0.082,0.237 -0.009,0.07 0.004,0.046 0.029,0.153 0.041,0.175 -0.236,0.473 -0.236,0.473 L 5.506,-5.807 5.332,-5.664 3.636,-6.412 3.513,-6.598 3.349,-6.701 2.71,-6.742 2.136,-6.803 1.91,-6.742 1.581,-6.31 1.436,-5.633 1.395,-5.016 1.292,-4.256 c 0,0 -0.194,0.483 -0.266,0.555 -0.072,0.072 -0.678,0.165 -0.678,0.165 0,0 -0.4,-0.011 -0.535,0.02 -0.133,0.031 -0.76,0.309 -0.76,0.309 h -0.371 l 0.021,-0.227 -0.164,-0.164 0.452,-1.582 -0.082,-0.248 0.062,-0.205 c 0,0 0.082,-0.133 0.102,-0.225 0.021,-0.093 0,-0.329 0,-0.329 v -0.309 l -0.041,-0.348 -0.739,-0.021 -0.021,0.185 -0.267,-0.062 -0.309,-0.144 -0.472,-0.041 -0.472,0.02 -0.227,0.124 -0.123,0.103 c 0,0 0.03,0.143 0.061,0.227 0.031,0.082 0.432,0.082 0.432,0.082 l 0.493,0.02 0.206,0.328 0.309,0.329 0.02,0.266 -0.925,1.789 0.061,0.103 -0.205,0.102 -0.205,0.268 -0.206,0.554 -0.041,0.493 0.061,0.473 c 0,0 0.175,0.257 0.309,0.308 0.134,0.051 0.369,-10e-4 0.431,0.082 0.048,0.065 0.31,0.108 0.31,0.108 l 0.261,0.022 1.025,0.086 0.567,0.023 c -0.25,0.174 -0.152,0.371 -0.152,0.371 l -0.087,0.131 0.043,0.153 -0.036,0.133 -0.349,0.884 -0.205,0.164 -0.185,0.432 c 0,0 -0.051,0.174 -0.082,0.247 -0.031,0.071 0,0.369 0,0.369 l 0.082,0.309 0.164,0.432 -0.061,0.143 -0.205,0.247 -0.196,-0.062 c 0,0 -0.133,-0.052 -0.194,-0.021 C -2.16,2.946 -2.17,3.131 -2.17,3.131 L -2.252,3.469 -2.447,3.51 -2.396,4.024 -2.53,4.178 -2.797,4.26 Z"
           style="fill:#000000;fill-opacity:1;fill-rule:nonzero;stroke:none"
           id="path76005-1-8-6-2-9" />
      </g>
      <g
         id="g76007-7-9-3-5-8"
         transform="matrix(0.35277777,0,0,-0.35277777,88.110685,128.98863)"
         style="fill:#000000">
        <path
           d="m 0,0 0.194,0.051 -0.17,0.024 z m -0.867,-0.229 c 0.003,0.122 -0.069,0.258 -0.095,0.411 l -0.065,0.173 z m 0.208,-0.694 c 0.282,-0.08 -0.084,0.319 -0.084,0.319 z m -1.083,3.908 -0.161,-0.05 c 0,0 -0.134,-0.051 -0.195,-0.021 C -2.16,2.945 -2.17,3.13 -2.17,3.13 L -2.213,3.276 -2.268,3.153 -2.525,2.662 -2.763,2.189 -2.767,1.907 l 0.409,0.17 0.468,0.486 z m -1.251,1.357 0.186,0.144 c 0,0 0.082,0.052 0.154,0.268 0.071,0.215 0.082,0.421 0.082,0.421 l 0.114,0.216 0.143,0.185 0.318,0.113 0.432,0.061 0.472,-0.041 0.309,-0.102 c 0,0 -0.041,0.071 0.185,-0.125 0.226,-0.194 0.144,-0.225 0.144,-0.225 0,0 0.082,-0.093 0.103,-0.288 0.02,-0.195 0,-0.205 0,-0.205 V 4.559 L -0.136,4.045 -0.372,4.064 -0.115,3.736 0.285,3.51 0.635,3.408 0.778,3.387 c 0,0 0.257,0.575 0.474,0.555 C 1.468,3.921 2.341,3.15 2.362,2.914 2.382,2.678 2.073,2.35 2.073,2.35 L 2.022,2.175 2.341,2.113 c 0,0 0.492,0.021 0.616,-0.041 C 3.08,2.01 3.245,1.723 3.245,1.723 c 0,0 0.174,-0.288 0.185,-0.411 C 3.44,1.189 3.388,0.962 3.388,0.962 L 3.245,0.695 3.183,0.572 C 3.183,0.47 3.548,0.531 3.702,0.486 3.857,0.439 4.067,0.357 4.108,-0.039 4.149,-0.434 3.892,-0.6 3.892,-0.6 L 4.395,-0.887 4.499,-1.133 4.54,-1.462 4.56,-1.832 4.519,-1.956 4.478,-2.202 4.313,-2.366 V -2.653 L 4.251,-2.838 3.903,-3.085 3.595,-3.044 3.554,-3.373 3.574,-3.784 3.45,-4.092 v -0.493 l 0.186,-0.164 0.113,-0.104 0.041,-0.132 1.223,0.297 c 0,0 0.318,0.205 0.472,0.247 C 5.64,-4.4 5.876,-4.4 5.876,-4.4 l 0.308,-0.514 -0.103,-0.37 0.185,-0.267 0.165,-0.348 c 0,0 0.164,-0.279 0.184,-0.453 0.021,-0.174 0,-0.35 0,-0.35 L 6.574,-6.969 6.164,-7.01 5.999,-6.886 c -0.041,0.03 -0.052,0.009 -0.083,0.237 -0.007,0.07 0.006,0.045 0.031,0.152 0.041,0.176 -0.237,0.473 -0.237,0.473 L 5.505,-5.808 5.331,-5.664 3.636,-6.415 3.513,-6.599 3.348,-6.702 2.71,-6.743 2.136,-6.804 1.909,-6.743 1.58,-6.311 1.436,-5.633 1.395,-5.016 1.292,-4.256 c 0,0 -0.194,0.482 -0.266,0.554 -0.073,0.073 -0.679,0.164 -0.679,0.164 0,0 -0.401,-0.009 -0.534,0.021 -0.134,0.032 -0.761,0.309 -0.761,0.309 h -0.37 l 0.021,-0.226 -0.164,-0.165 0.451,-1.582 -0.082,-0.247 0.062,-0.205 c 0,0 0.082,-0.134 0.102,-0.225 0.021,-0.094 0,-0.33 0,-0.33 v -0.309 l -0.041,-0.348 -0.738,-0.021 -0.021,0.185 -0.268,-0.062 -0.309,-0.143 -0.471,-0.042 -0.473,0.021 -0.226,0.123 -0.124,0.103 c 0,0 0.032,0.143 0.062,0.225 0.031,0.084 0.432,0.084 0.432,0.084 l 0.493,0.02 0.205,0.328 0.309,0.33 0.02,0.266 -0.924,1.787 -0.144,0.207 -0.206,0.267 -0.205,0.555 -0.042,0.492 0.062,0.473 c 0,0 0.175,0.256 0.308,0.309 0.133,0.05 0.371,-0.002 0.432,0.082 0.047,0.064 0.309,0.107 0.309,0.107 l 0.261,0.023 1.026,0.086 0.567,0.022 c -0.25,0.173 -0.152,0.371 -0.152,0.371 l -0.088,0.131 0.043,0.152 -0.036,0.135 L -1.215,0.654 -1.42,0.818 -1.529,1.074 -1.827,1.131 -2.31,0.768 -2.951,0.549 -3.57,0.56 l -0.383,0.272 0.009,0.565 0.444,1.088 0.599,0.909 -0.154,0.285 -0.176,0.039 -0.008,0.565 0.319,0.03 z"
           style="fill:#000000;fill-opacity:1;fill-rule:nonzero;stroke:none"
           id="path76009-5-0-2-5-3" />
      </g>
      <g
         id="g76011-9-0-7-7-2"
         transform="matrix(0.35277777,0,0,-0.35277777,88.110685,128.98863)"
         style="fill:#000000">
        <path
           d="m 0,0 0.194,0.051 -0.17,0.024 z m -0.867,-0.229 c 0.003,0.122 -0.069,0.258 -0.095,0.411 l -0.065,0.173 z m 0.208,-0.694 c 0.282,-0.08 -0.084,0.319 -0.084,0.319 z m -1.083,3.908 -0.161,-0.05 c 0,0 -0.134,-0.051 -0.195,-0.021 C -2.16,2.945 -2.17,3.13 -2.17,3.13 L -2.213,3.276 -2.268,3.153 -2.525,2.662 -2.763,2.189 -2.767,1.907 l 0.409,0.17 0.468,0.486 z m -1.251,1.357 0.186,0.144 c 0,0 0.082,0.052 0.154,0.268 0.071,0.215 0.082,0.421 0.082,0.421 l 0.114,0.216 0.143,0.185 0.318,0.113 0.432,0.061 0.472,-0.041 0.309,-0.102 c 0,0 -0.041,0.071 0.185,-0.125 0.226,-0.194 0.144,-0.225 0.144,-0.225 0,0 0.082,-0.093 0.103,-0.288 0.02,-0.195 0,-0.205 0,-0.205 V 4.559 L -0.136,4.045 -0.372,4.064 -0.115,3.736 0.285,3.51 0.635,3.408 0.778,3.387 c 0,0 0.257,0.575 0.474,0.555 C 1.468,3.921 2.341,3.15 2.362,2.914 2.382,2.678 2.073,2.35 2.073,2.35 L 2.022,2.175 2.341,2.113 c 0,0 0.492,0.021 0.616,-0.041 C 3.08,2.01 3.245,1.723 3.245,1.723 c 0,0 0.174,-0.288 0.185,-0.411 C 3.44,1.189 3.388,0.962 3.388,0.962 L 3.245,0.695 3.183,0.572 C 3.183,0.47 3.548,0.531 3.702,0.486 3.857,0.439 4.067,0.357 4.108,-0.039 4.149,-0.434 3.892,-0.6 3.892,-0.6 L 4.395,-0.887 4.499,-1.133 4.54,-1.462 4.56,-1.832 4.519,-1.956 4.478,-2.202 4.313,-2.366 V -2.653 L 4.251,-2.838 3.903,-3.085 3.595,-3.044 3.554,-3.373 3.574,-3.784 3.45,-4.092 v -0.493 l 0.186,-0.164 0.113,-0.104 0.041,-0.132 1.223,0.297 c 0,0 0.318,0.205 0.472,0.247 C 5.64,-4.4 5.876,-4.4 5.876,-4.4 l 0.308,-0.514 -0.103,-0.37 0.185,-0.267 0.165,-0.348 c 0,0 0.164,-0.279 0.184,-0.453 0.021,-0.174 0,-0.35 0,-0.35 L 6.574,-6.969 6.164,-7.01 5.999,-6.886 c -0.041,0.03 -0.052,0.009 -0.083,0.237 -0.007,0.07 0.006,0.045 0.031,0.152 0.041,0.176 -0.237,0.473 -0.237,0.473 L 5.505,-5.808 5.331,-5.664 3.636,-6.415 3.513,-6.599 3.348,-6.702 2.71,-6.743 2.136,-6.804 1.909,-6.743 1.58,-6.311 1.436,-5.633 1.395,-5.016 1.292,-4.256 c 0,0 -0.194,0.482 -0.266,0.554 -0.073,0.073 -0.679,0.164 -0.679,0.164 0,0 -0.401,-0.009 -0.534,0.021 -0.134,0.032 -0.761,0.309 -0.761,0.309 h -0.37 l 0.021,-0.226 -0.164,-0.165 0.451,-1.582 -0.082,-0.247 0.062,-0.205 c 0,0 0.082,-0.134 0.102,-0.225 0.021,-0.094 0,-0.33 0,-0.33 v -0.309 l -0.041,-0.348 -0.738,-0.021 -0.021,0.185 -0.268,-0.062 -0.309,-0.143 -0.471,-0.042 -0.473,0.021 -0.226,0.123 -0.124,0.103 c 0,0 0.032,0.143 0.062,0.225 0.031,0.084 0.432,0.084 0.432,0.084 l 0.493,0.02 0.205,0.328 0.309,0.33 0.02,0.266 -0.924,1.787 -0.144,0.207 -0.206,0.267 -0.205,0.555 -0.042,0.492 0.062,0.473 c 0,0 0.175,0.256 0.308,0.309 0.133,0.05 0.371,-0.002 0.432,0.082 0.047,0.064 0.309,0.107 0.309,0.107 l 0.261,0.023 1.026,0.086 0.567,0.022 c -0.25,0.173 -0.152,0.371 -0.152,0.371 l -0.088,0.131 0.043,0.152 -0.036,0.135 L -1.215,0.654 -1.42,0.818 -1.529,1.074 -1.827,1.131 -2.31,0.768 -2.951,0.549 -3.57,0.56 l -0.383,0.272 0.009,0.565 0.444,1.088 0.599,0.909 -0.154,0.285 -0.176,0.039 -0.008,0.565 0.319,0.03 z"
           style="fill:#000000;fill-opacity:1;fill-rule:nonzero;stroke:none"
           id="path76013-7-0-9-6-2" />
      </g>
      <g
         id="g6654-9-8"
         transform="matrix(0.35277777,0,0,-0.35277777,124.12232,355.26945)">
        <g
           id="g6118-6-9"
           transform="translate(-7.3182374,-6.8791431)">
          <g
             id="g75995-6-8-9-6-3"
             transform="translate(-106.49285,632.52489)"
             style="fill:#000000">
            <path
               id="path75997-6-7-2-3-8"
               style="fill:#000000;fill-opacity:1;fill-rule:nonzero;stroke:none;stroke-width:0.999998"
               d="m -13.596425,11.581152 0.133298,-0.11133 V 10.88828 H -17.11205 V 9.7208 h 1.02246 V 9.4292974 h -0.584475 v -0.584475 h 1.67871 v 0.584475 h -0.51123 V 9.7208 H -3.7629346 V 9.5201224 h -0.4731375 v -0.584475 h 1.6772401 v 0.584475 H -3.1784596 V 9.7208 h 1.6040026 l 0.019043,0.1992225 0.74707501,0.2021475 0.38232001,0.602047 0.055665,0.619635 -0.12597751,0.2373 H -1.001697 l -0.06153,-0.07471 -0.1464825,-0.328125 -0.1083975,-0.29004 h -0.25635 -2.5532176 v 0.52881 l 0.294435,-0.0029 -0.096683,0.166987 z" />
          </g>
          <path
             id="path7493-2"
             style="fill:#000000;stroke-width:0.246196"
             d="m -146.92773,658.5593 -0.0776,-0.54492 -0.0776,-0.54492 0.56982,-0.10986 c 0.31345,-0.0604 1.33426,-0.23644 2.26904,-0.39112 1.99381,-0.32973 15.85542,-3.66615 16.396,-3.94629 0.20313,-0.10517 0.86868,-0.27153 1.47803,-0.37061 0.60933,-0.0992 1.20234,-0.2369 1.31836,-0.30615 l 0.21093,-0.12597 -0.31787,-0.19629 -0.31787,-0.19629 0.3208,-0.38819 c 0.17714,-0.21344 0.47559,-0.38818 0.66211,-0.38818 h 0.33838 v -0.52149 -0.52148 l -1.84571,0.17432 -1.84716,0.17285 v -0.27539 c 0,-0.28619 0.17073,-0.3672 1.28466,-0.61084 l 0.66798,-0.14648 -0.13184,-0.34278 -0.13183,-0.34424 0.72948,-0.15967 0.7295,-0.15966 -0.27393,-0.72363 -0.27246,-0.72363 1.18066,-1.19825 1.18067,-1.19971 c 1.50085,-0.5949 10.54928,-0.32889 14.58838,-0.31494 h 1.27002 6.52734 v 0.78516 c 0.526001,-0.004 0.906741,0.39732 0.906741,0.9873 0,0.41202 -0.0777,0.93875 -0.38965,1.28174 v 0.87012 h -0.323731 c 0,0 -2.5e-4,-0.94064 0.0718,-1.07666 0.260001,-0.22398 0.319341,-0.78519 0.319341,-1.0752 0,-0.57498 -0.390481,-0.65757 -0.584471,-0.66357 v 0.1333 c 0.218,0.24099 0.17285,0.62109 0.17285,0.62109 0,0 -0.75607,-0.30111 -1.39307,-0.39111 -0.63898,-0.091 -1.09277,0 -1.09277,0 l -0.21094,-0.21094 0.6211,-0.20801 v -0.36328 h -1.21143 v 0.41895 l -2.46533,0.5332 v 0.52295 h 0.36035 l 0.23731,1.20411 1.18945,-0.36183 0.41748,1.26417 h 0.48194 l 0.62548,0.88476 -0.67822,0.48194 -0.0352,0.0263 h 0.13037 0.86132 l 0.49219,0.49219 c 0.27082,0.27099 0.49219,0.6455 0.49219,0.83204 0,0.18624 0.16602,0.47745 0.36914,0.64599 l 0.36914,0.30615 v 0.44532 0.44384 l -0.36914,0.36914 c -0.20313,0.20297 -0.36914,0.53402 -0.36914,0.73389 v 0.36328 l -0.93164,-0.12598 -0.93311,-0.12451 -0.94336,0.39405 c -0.51947,0.21714 -1.19689,0.3955 -1.50439,0.3955 h -0.55957 l -0.14063,-0.3706 -0.14208,-0.36915 h 0.25781 0.25781 l -0.15967,-0.72655 -0.15967,-0.72657 0.81739,-0.2124 0.81738,-0.21094 v -0.27392 -0.27393 l -0.96973,-0.65771 -0.94043,-0.63867 h -0.0469 l -0.33399,0.43506 -0.35009,0.45556 -0.11572,-0.30762 c -0.0635,-0.16952 -0.25968,-0.30908 -0.43506,-0.30908 h -0.31788 l -0.3164,0.76612 -0.31787,0.76464 -0.41455,-0.55078 -0.41455,-0.54932 -3.13038,0.69727 -3.13037,0.69727 -0.20947,-0.33985 -0.21094,-0.34131 -1.37402,0.30762 -1.37403,0.30761 v 0.42921 0.42773 l -0.78076,0.57715 -0.7793,0.57715 -0.52148,-0.65332 c -0.28674,-0.35957 -0.6063,-0.65479 -0.71045,-0.65479 h -0.19043 l 0.38379,0.54785 c 0.21078,0.30087 0.38232,0.65702 0.38232,0.79102 v 0.24316 l -0.67675,-0.78516 -0.67676,-0.78369 -2.58545,0.59766 c -1.42179,0.32887 -5.68612,1.22799 -9.47754,1.99805 -3.79143,0.77009 -7.83585,1.66783 -8.98681,1.99512 -1.15097,0.32734 -2.31464,0.61709 -2.58546,0.64306 z m 43.45313,-4.80029 h 0.35595 c 0.19511,0 0.42315,-0.11059 0.50684,-0.2461 l 0.15088,-0.24756 h -0.50684 -0.50683 v 0.24756 z m 0.26367,-1.72412 h 0.36035 c 0.19834,0 0.36181,-0.0929 0.36181,-0.20654 0,-0.11367 -0.28125,-0.33454 -0.62402,-0.49073 l -0.62256,-0.28418 0.26221,0.49072 z m 1.00049,-0.70899 0.27538,-0.0908 0.27687,-0.0923 -0.53907,-0.53906 -0.5376,-0.53759 h -0.35595 c -0.19512,0 -0.41939,0.10629 -0.49952,0.23584 l -0.14648,0.23437 0.76318,0.39551 z m -18.2505,-1.25976 h 0.33985 c 0.1876,0 0.65951,-0.16539 1.04736,-0.36768 l 0.70459,-0.36767 0.76905,-0.003 c 0.42315,0 1.1164,-0.0705 1.53955,-0.15528 l 0.76904,-0.15381 v -0.21533 -0.21533 l -0.43067,0.0205 c -0.23694,0.0113 -0.54134,0.0585 -0.67675,0.10694 -0.13538,0.0482 -1.10537,0.27251 -2.15479,0.49804 l -1.90723,0.41016 v 0.22119 z m 13.85157,-1.85889 1.00195,-0.15674 -0.0513,-0.47022 0.0762,-0.0234 -1.01367,-1.17627 h -0.21093 v 0.39698 l -0.21973,-0.003 v 0.90967 h 0.41748 z m -14.8374,-0.78515 0.89208,-0.14502 c 1.05805,-0.17151 1.04859,-0.16423 1.13379,-0.88477 l 0.0673,-0.56543 -0.54492,-0.20801 -0.54492,-0.208 -0.50097,0.6372 c -0.27579,0.35057 -0.50244,0.80229 -0.50244,1.00488 z" />
        </g>
        <path
           id="path76005-1-8-6-1-9-7"
           d="m -108.43433,648.12318 -0.39786,0.17598 -0.33059,0.0735 -0.22031,-0.0817 -0.20899,-0.12156 c 0,0 -0.11889,-0.17137 -0.29387,-0.31557 -0.17466,-0.14555 -0.27295,-0.14384 -0.27295,-0.14384 l -0.23261,-0.024 0.12103,-0.17403 0.18388,-0.21161 0.0318,-0.201 -0.31591,-0.40888 0.14349,-0.13801 -0.10973,-0.33046 c 0,0 -0.089,-0.16174 -0.052,-0.22141 0.0353,-0.0586 0.1761,-0.0859 0.1761,-0.0859 l 0.19857,-0.0499 0.0429,-0.3186 -0.0238,-0.15434 -0.36732,-0.27829 -0.23335,-0.21867 c 0,0 -0.18426,-0.23642 -0.19563,-0.31305 -0.0123,-0.0783 -0.0616,-0.25342 -0.0616,-0.25342 l -0.0725,-0.46428 0.0871,-0.24779 -0.17232,-0.93386 0.1747,0.58164 -0.037,-0.18404 c -0.0586,-0.14269 -0.071,-0.29427 -0.13779,-0.39754 l -0.0395,-0.13245 -0.11749,-0.10792 0.004,-0.15634 c 0,0 -0.187,-0.115 -0.0671,-0.39505 l -0.49319,0.28051 -0.91542,0.47002 -0.23277,0.1195 c 0,0 -0.24488,0.10358 -0.32005,0.0739 -0.0966,-0.0375 -0.26801,0.13095 -0.40872,0.15856 -0.14057,0.0281 -0.4259,-0.0983 -0.4259,-0.0983 l -0.30287,-0.36866 -0.22599,-0.43916 -0.11828,-0.57901 0.0319,-0.336 0.11952,-0.19564 -0.10649,-0.0542 -0.16257,-2.00739 -0.15871,-0.21522 -0.43675,-0.11579 -0.34777,-0.16967 -0.42874,0.24544 c 0,0 -0.34021,0.21252 -0.40994,0.15944 -0.0707,-0.0548 -0.17248,-0.15995 -0.17248,-0.15995 l 0.0499,-0.15218 0.1266,-0.22588 0.3904,-0.26811 0.42175,-0.21515 0.33819,-0.042 0.25947,-0.0879 -0.0803,-0.16741 0.63825,-0.37458 0.21873,0.2727 0.16374,0.26213 c 0,0 0.14321,0.18951 0.17467,0.27952 0.0316,0.0886 0.0325,0.24565 0.0325,0.24565 l 0.0565,0.20653 0.20074,0.16649 0.45444,1.5815 0.22607,0.0523 0.103,0.2034 0.31427,-0.19642 c 0,0 0.38462,-0.56821 0.48099,-0.66495 0.0981,-0.0979 0.44257,-0.3007 0.44257,-0.3007 0,0 0.16165,-0.14126 0.30003,-0.27727 l 2.38895,-1.49259 0.11815,0.21117 0.20864,0.25654 0.23915,-0.19777 0.28523,-0.0107 0.14079,0.0349 0.1512,0.12314 0.15291,0.24473 0.22526,0.0511 0.16518,0.18697 0.10161,0.0851 0.17945,0.32313 0.13781,0.3008 0.0434,0.26305 -0.27446,0.51175 c 0,0 0.30518,0.003 0.47834,0.35921 0.17558,0.3584 0.0416,0.53984 -0.0655,0.66098 -0.10588,0.11929 -0.44706,0.26033 -0.44706,0.26033 l 0.0543,0.0869 0.11663,0.0704 0.26378,0.15128 c 0,0 0.16275,0.1661 0.22031,0.27518 0.055,0.11066 0.0609,0.44562 0.0609,0.44562 0,0 0.0123,0.33208 -0.0593,0.4498 -0.0732,0.11879 -0.50128,0.36157 -0.50128,0.36157 l -0.23744,0.22262 0.13635,0.11864 c 0,0 0.43448,0.11582 0.5431,0.3274 0.10723,0.21129 -0.22432,1.3268 -0.39681,1.46042 -0.17227,0.13003 -0.69498,-0.22211 -0.69498,-0.22211 l -0.11006,0.0948 -0.24336,0.27122 -0.21883,0.40445 -0.044,0.41613 0.18839,-0.1436 0.0895,0.5502 0.10861,0.17395 c 0,0 0.0221,-0.002 0.10859,0.17392 0.0862,0.17733 0.0659,0.29909 0.0659,0.29909 0,0 0.0854,-0.0171 -0.002,0.26739 -0.0892,0.28565 -0.0918,0.20414 -0.0918,0.20414 l -0.20655,0.24997 z m -1.65903,-5.65485 0.1317,-0.10986 -0.19317,0.0585 z m -1.01232,-0.16912 c 0,0 0.10052,-0.53187 -0.096,-0.3147 z" />
      </g>
    </g>
  </g>
</svg>
