<?xml version="1.0" encoding="UTF-8" standalone="no"?>
<!-- Created with Inkscape (http://www.inkscape.org/) -->

<svg
   width="17.808245mm"
   height="8.5384464mm"
   viewBox="0 0 17.808245 8.5384464"
   version="1.1"
   id="svg5690"
   sodipodi:docname="inkporter-svg-3paup3mx.svg"
   xmlns:inkscape="http://www.inkscape.org/namespaces/inkscape"
   xmlns:sodipodi="http://sodipodi.sourceforge.net/DTD/sodipodi-0.dtd"
   xmlns="http://www.w3.org/2000/svg"
   xmlns:svg="http://www.w3.org/2000/svg">
  <sodipodi:namedview
     id="namedview5692"
     pagecolor="#ffffff"
     bordercolor="#666666"
     borderopacity="1.0"
     inkscape:pageshadow="2"
     inkscape:pageopacity="0.0"
     inkscape:pagecheckerboard="0"
     inkscape:document-units="mm"
     showgrid="false"
     inkscape:zoom="0.64052329"
     inkscape:cx="397.33138"
     inkscape:cy="561.25984"
     inkscape:window-width="1920"
     inkscape:window-height="1017"
     inkscape:window-x="-8"
     inkscape:window-y="-8"
     inkscape:window-maximized="1"
     inkscape:current-layer="layer1" />
  <defs
     id="defs5687" />
  <g
     inkscape:label="Layer 1"
     inkscape:groupmode="layer"
     id="layer1"
     transform="translate(-31.164027,-144.85038)">
    <g
       id="G-ArmouredTruck"
       transform="matrix(0.35277777,0,0,-0.35277777,-585.58299,-135.71823)">
      <path
         id="path64915-3-5"
         style="stroke-width:0.999998"
         d="m 1768.6317,-802.19294 -0.041,0.2043 -0.4395,0.0836 -0.7793,0.054 -1.1513,0.0555 -1.3125,-0.1098 -1.481,-0.32962 -0.4936,-0.16403 -0.6563,-0.27247 -0.3691,-0.32813 -1.5513,-2.95897 -7.6348,-0.44093 -1.4765,-0.15675 v 0.26805 h -0.8775 v -0.36622 l -0.1655,-0.0165 -0.4365,-0.1098 -0.5479,-0.38528 -0.2212,-0.54637 -0.1069,-0.65625 -0.2212,-4.44 -0.055,-1.09418 h -0.3545 v -1.47802 h 3.2051 l -0.01,-0.21975 c 0,-2.16398 1.7536,-3.91553 3.9155,-3.91553 2.166,0 3.9185,1.75155 3.9185,3.91553 l -0.01,0.21975 h 1.1162 l 0.2461,-0.24615 0.7251,0.069 8.6294,-0.0428 h 10.9966 c 0.039,-2.13398 1.7764,-3.84818 3.9184,-3.84818 2.142,0 3.8864,1.72095 3.9185,3.85695 l 7.7373,0.0457 v 3.9345 h -27.9405 z m -3.5859,-0.93682 -0.4087,-0.18893 0.1098,0.12743 z m 1.084,-0.21533 c 0.016,-0.008 0.053,-0.042 0.142,-0.14355 l 0.9083,0.0233 0.3017,-0.0278 0.1362,-0.27247 -0.2461,-1.875 -0.2563,0.1362 -0.2988,0.13477 -0.3311,0.25343 -0.1904,0.32662 0.2095,-0.048 -0.1274,0.48923 0.025,0.18315 c 0,0 0.02,0.008 0.025,0.18457 0.01,0.177 -0.055,0.27098 -0.055,0.27098 0,0 0.078,0.0165 -0.2505,0.35452 0,0 -0.01,0.018 0.01,0.0105 z m -1.67,-0.19477 c -0.011,-0.054 -0.048,-0.1983 -0.12,-0.34425 -0.093,-0.183 -0.1744,-0.22118 -0.1744,-0.22118 l -0.1846,-0.10402 0.167,-0.0982 0.23,-0.10695 0.1,-0.15525 -0.1114,-0.45555 0.1714,-0.063 0.029,-0.312 c 0,0 -0.014,-0.16815 0.037,-0.20212 0.052,-0.0367 0.1787,-0.008 0.1787,-0.008 l 0.1816,0.0293 0.189,-0.38085 -0.1509,-0.27833 -1.8662,-0.0367 -0.2871,0.25785 -0.3018,-0.26955 -0.6679,-0.0135 -0.2871,0.0982 -0.2198,0.0806 -0.1084,0.24607 0.1656,0.39698 1.0107,1.68607 0.1641,0.1362 0.1655,0.054 0.3296,0.0278 z"
         sodipodi:nodetypes="cccccccccccccccccccccccccccscccccccscccccccccscccccccccccccccscccccccccccccccccccccccccccc" />
      <rect
         style="fill:#000000;stroke-width:0.64063;stroke-linejoin:round;paint-order:markers fill stroke;stop-color:#000000"
         id="rect4611"
         width="30.10948"
         height="5.8439059"
         x="1768.6299"
         y="805.76782"
         transform="scale(1,-1)" />
      <path
         id="path181621-1-3"
         d="m 1774.4121,-795.31277 c -0.375,0.003 -0.6776,-0.11587 -0.8057,-0.37207 -0.204,-0.408 -0.2002,-0.82688 -0.4482,-0.85988 -0.247,-0.035 0.2007,-0.13627 0.2007,-0.13627 0,0 -10e-5,-0.0866 0.044,-0.0967 0.042,-0.009 0.09,-0.0421 0.038,-0.15817 -0.052,-0.114 -0.1862,-0.2883 -0.076,-0.32228 0.11,-0.033 0.1274,-0.0469 0.1274,-0.0469 l 0.021,-0.0732 c 0,0 -0.016,-0.0421 0,-0.0601 0.02,-0.019 0.082,-0.0527 0.082,-0.0527 l 0.018,-0.0923 c 0,0 -0.061,-0.0317 -0.051,-0.0557 0.01,-0.023 0.069,-0.0757 0.041,-0.11865 -0.028,-0.043 -0.069,-0.1665 -0.023,-0.20947 0.048,-0.043 0.2564,-0.10545 0.2564,-0.10545 0,0 -0.227,-0.1431 -0.337,-0.24615 -0.11,-0.10598 -0.1961,-0.25275 -0.29,-0.34275 -0.096,-0.091 -0.2048,-0.2055 -0.1568,-0.29153 0.048,-0.085 0.061,-0.10942 -0.01,-0.14647 -0.066,-0.04 -0.3084,-0.31395 -0.3384,-0.375 -0.028,-0.063 -0.2299,-0.219 -0.3398,-0.27098 -0.11,-0.054 -0.2168,-0.0733 -0.2168,-0.0733 l -0.4073,0.0191 c 0,0 -0.061,0.0802 -0.123,0.0952 -0.062,0.014 -0.315,0.019 -0.315,0.019 l -0.07,-0.1143 -0.1274,-10e-4 v -0.6636 h -1.358 v -0.0234 c 0,0 -0.186,-0.0665 -0.186,-0.1245 0,-0.056 0.058,-0.12818 0.048,-0.16118 -0.01,-0.033 -0.014,-0.11992 -0.01,-0.14797 0,-0.029 0.042,-0.0766 0.038,-0.11865 -0.01,-0.0439 2e-4,-0.10065 0.032,-0.1377 0.03,-0.039 0.023,-0.0725 0.023,-0.1245 0,-0.052 -0.027,-0.0572 0.035,-0.0952 0.062,-0.039 0.066,-0.0674 0.066,-0.0674 v -0.0278 h 0.4087 0.2154 c 0.108,0.014 0.2167,0.0439 0.2167,0.0439 0,0 0.082,-0.28125 0.2403,-0.28125 0.155,0 0.5127,0.26513 0.5127,0.26513 0,0 0.011,0.0961 0.2242,0.0381 0.2199,-0.056 0.3477,-0.1317 0.4467,-0.1377 0.1,-0.005 0.5432,0.18487 0.6372,0.0469 0.096,-0.13695 0.2535,-0.0791 0.2535,-0.0791 0,0 -0.2583,-0.7464 -0.2622,-0.86137 -0.01,-0.11498 0.053,-0.34275 0.053,-0.34275 0,0 -0.3329,-0.5745 -0.3809,-0.77055 -0.048,-0.19598 -0.042,-0.19568 -0.086,-0.2607 -0.042,-0.066 -0.08,-0.19973 -0.1479,-0.30473 -0.066,-0.105 -0.066,-0.1626 -0.066,-0.1626 l 0.1143,-0.0761 c 0,0 -0.5997,-1.34093 -0.6578,-1.50293 -0.055,-0.162 -0.4508,-0.61477 -0.4028,-1.0518 0.048,-0.43695 0.052,-0.85162 0.062,-0.90967 0.01,-0.057 0.06,-0.15113 0.028,-0.2241 -0.034,-0.071 -0.1138,-0.21233 0.01,-0.29738 0.1179,-0.086 0.1464,-0.0734 0.1464,-0.1494 0,-0.075 0.039,-0.14685 0.095,-0.19485 0.055,-0.046 0.1143,-0.48045 0.1143,-0.48045 l 0.091,-0.43215 c 0,0 -0.04,-0.0715 -0.072,-0.1245 -0.034,-0.052 -0.019,-0.10395 -0.019,-0.10395 0,0 -0.039,-0.0985 -0.1143,-0.14655 -0.076,-0.048 -0.2519,-0.28125 -0.2519,-0.28125 0,0 -0.206,-0.17662 -0.2959,-0.20062 -0.089,-0.024 -0.4424,-0.1758 -0.4424,-0.1758 0,0 -0.3655,-0.0715 -0.3955,-0.19043 -0.028,-0.11805 0,-0.22852 0,-0.22852 l -0.034,-0.085 c 0,0 0.3775,-0.11287 0.5435,-0.12892 0.1661,-0.013 1.041,0.27135 1.169,0.3003 0.13,0.029 0.1766,0.0427 0.2446,0.0337 0.065,-0.0101 0.085,-0.10988 0.085,-0.10988 0,0 0.4714,0.0295 0.5845,0.0586 0.114,0.028 0.1186,0.11715 0.1186,0.11715 l -0.015,0.1758 -0.037,0.0425 c 0,0 0.1613,0.26355 0.1334,0.43358 -0.028,0.17197 -0.1041,0.3618 -0.1041,0.3618 0,0 0.01,0.27075 -0.015,0.34275 -0.026,0.071 0.01,0.14707 0.01,0.20512 0,0.056 -0.066,0.21795 -0.076,0.27098 -0.01,0.051 0.038,0.30322 0.038,0.30322 0,0 0.2521,0.35318 0.2241,0.4512 -0.028,0.10095 0.1,0.37583 0.066,0.44385 -0.032,0.066 -0.08,0.2427 -0.1,0.3237 -0.018,0.081 -0.015,0.13748 0.029,0.23145 0.042,0.096 0.043,0.2208 0.025,0.33983 -0.02,0.11797 -0.01,0.14235 0.2212,0.2373 0.23,0.096 0.7727,0.64672 0.8627,0.80272 0.09,0.15803 0.3804,0.67703 0.5465,0.31208 0.168,-0.36713 0.6719,-1.6341 0.7529,-1.76813 0.08,-0.13297 0.5789,-1.0779 0.6269,-1.16895 0.048,-0.09 0.377,-0.2958 0.419,-0.3618 0.042,-0.066 0.2032,-0.513 0.3472,-0.54195 0.1419,-0.0281 0.3617,0 0.4277,-0.085 0.068,-0.086 0.3682,-0.39083 0.3853,-0.4248 0.02,-0.033 0.071,-0.13238 0.061,-0.19335 -0.01,-0.063 0.082,-0.0866 0.1201,-0.0967 0.038,-0.01 0.038,-0.2226 0.038,-0.2226 -0.076,-0.24405 -0.2003,-0.48503 -0.2753,-0.56108 -0.076,-0.077 -0.3856,-0.39157 -0.3955,-0.45555 -0.01,-0.068 -0.025,-0.1677 0.089,-0.2637 0.1139,-0.095 0.2306,-0.11827 0.3676,-0.15232 0.138,-0.033 0.6879,0.0571 0.794,0.16117 0.1039,0.105 0.253,0.37973 0.29,0.44678 0.038,0.067 0.034,-0.009 0.034,-0.009 l 0.2314,0.1524 c 0,0 0.045,0.23235 0.015,0.2754 -0.028,0.043 0.011,0.14895 -0.015,0.22995 h 0.013 c -0.022,0.081 -0.1381,0.18592 -0.1421,0.25192 0,0.067 0.01,0.1242 -0.01,0.18023 -0.018,0.058 -0.09,0.0942 -0.1143,0.11422 -0.023,0.019 -0.026,0.19583 -0.064,0.25785 -0.038,0.062 -0.011,0.0464 0.06,0.0893 0.072,0.043 0.2036,0.20947 0.2036,0.20947 0,0 -0.1658,0.009 -0.2168,-0.006 -0.054,-0.013 -0.1157,-0.0513 -0.1157,-0.0513 l -0.07,0.0337 c 0,0 -0.034,0.1338 -0.1201,0.19478 -0.086,0.0611 -0.1274,0.24172 -0.1274,0.24172 l 0.081,0.0864 -0.1421,0.15825 -0.053,-0.0249 -0.07,0.1098 -0.082,-0.004 c 0,0 0.014,0.57008 -0.028,0.70313 -0.044,0.13297 -0.238,0.31927 -0.252,0.3384 -0.016,0.019 -0.021,0.20925 -0.079,0.2373 -0.055,0.029 -0.1451,0.0849 -0.1451,0.0849 0,0 -0.068,0.24892 -0.038,0.48195 0.028,0.23197 -0.158,1.1502 -0.186,1.2642 -0.03,0.11497 0.029,0.33322 0.053,0.48922 0.024,0.15803 0,0.9141 0,0.9141 l 0.2535,0.16695 c 0,0 -0.5062,1.3425 -0.5772,1.5615 -0.072,0.219 -0.1275,0.5025 -0.1275,0.5025 0,0 0.2885,0.5712 0.2945,0.7002 0,0.129 -0.01,0.29085 0.081,0.3999 0.09,0.10898 0.2667,0.71798 0.1626,1.08398 -0.1039,0.36698 -0.3576,1.08593 -0.4907,1.20998 -0.132,0.123 -0.2221,0.18067 -0.2842,0.40867 -0.062,0.228 -0.1109,0.41325 -0.3339,0.50828 -0.224,0.095 -0.3882,0.0865 -0.4322,0.14355 -0.042,0.057 -0.12,0.0996 -0.186,0.0996 -0.066,0 -0.2039,-0.043 -0.2519,0 -0.048,0.043 -0.075,0.0908 -0.057,0.1758 0.02,0.086 0.034,0.12892 0.034,0.12892 l 0.479,-0.0103 c 0,0 -0.1653,0.37192 -0.1933,0.4629 -0.028,0.09 0.199,1.07422 -0.482,1.30222 -0.2553,0.0862 -0.5059,0.13148 -0.7309,0.13335 z" />
      <path
         d="m 1766.627,-801.34407 0.72,1.071 h -4.072 v 0.142 h -0.246 v -0.095 h -0.463 v 0.095 h -0.592 v 0.264 h 0.592 v 0.095 h 0.328 v 0.14 h 0.688 v 0.246 h 0.135 v -0.34 h 3.375 v 0.17 h 0.736 l 0.492,0.732 1.42,-0.321 -0.359,-0.625 1.722,-0.031 0.135,-0.151 h 0.345 l 0.844,0.094 0.347,0.132 0.229,-0.056 -0.229,-0.245 v -0.488 l 0.095,-0.263 -0.269,-0.057 -0.211,0.246 h -0.232 l -0.096,-0.132 -0.097,0.301 h -1.3 l -0.037,-0.151 h -0.425 l 0.27,-0.414 -0.038,-0.302 h -0.385 l -0.078,0.32 -0.154,0.302 -0.153,-0.019 -0.42,-0.017 v 0.334 l -0.198,0.017 -0.895,-1.555 h -3.033 v 0.056 0.505 z"
         style="fill:#000000;fill-opacity:1;fill-rule:nonzero;stroke:none"
         id="path66858-8-4-5" />
    </g>
  </g>
</svg>
