<?xml version="1.0" encoding="UTF-8" standalone="no"?>
<!-- Created with Inkscape (http://www.inkscape.org/) -->

<svg
   width="18.79619mm"
   height="8.0738468mm"
   viewBox="0 0 18.79619 8.073847"
   version="1.1"
   id="svg33402"
   sodipodi:docname="inkporter-svg-71kf7czj.svg"
   inkscape:version="1.1.1 (3bf5ae0d25, 2021-09-20)"
   xmlns:inkscape="http://www.inkscape.org/namespaces/inkscape"
   xmlns:sodipodi="http://sodipodi.sourceforge.net/DTD/sodipodi-0.dtd"
   xmlns="http://www.w3.org/2000/svg"
   xmlns:svg="http://www.w3.org/2000/svg">
  <sodipodi:namedview
     id="namedview555"
     pagecolor="#ffffff"
     bordercolor="#666666"
     borderopacity="1.0"
     inkscape:pageshadow="2"
     inkscape:pageopacity="0.0"
     inkscape:pagecheckerboard="0"
     inkscape:document-units="mm"
     showgrid="false"
     inkscape:zoom="2.5097476"
     inkscape:cx="-1212.871"
     inkscape:cy="1547.3668"
     inkscape:window-width="1920"
     inkscape:window-height="1017"
     inkscape:window-x="-8"
     inkscape:window-y="-8"
     inkscape:window-maximized="1"
     inkscape:current-layer="svg33402" />
  <defs
     id="defs14119" />
  <path
     d="M 18.79619,4.98087 17.90155,4.49862 c -0.0346,-0.0603 -0.0818,-0.13617 -0.12348,-0.1778 -0.0762,-0.0765 0.0889,-0.26705 0.0699,-0.26705 -0.019,0 -0.2607,-0.13335 -0.2607,-0.13335 l -0.13335,0.2032 H 17.10467 V 3.90137 c 0,0 0.1524,-0.0317 0.1524,-0.14605 v -0.2734 c 0,0 0.36195,0.0889 0.36195,0.0699 0,-0.0191 0.006,-0.1397 0.006,-0.1397 L 17.23767,3.31682 V 2.97356 c 0,-0.10795 -0.0635,-0.10795 -0.15875,-0.10795 h -0.6611 V 2.33186 H 13.1839 c 0,0 -0.1016,-0.55915 -0.12065,-0.55915 H 12.4406 V 1.66476 L 12.28785,1.39171 h 0.4004 L 12.091,0.39405 h -0.23495 l 0.0889,-0.19685 h -0.0762 V 0 h -0.20991 v 0.1972 h -0.0698 l -0.0889,-0.17815 -0.19614,0.024 c -0.0272,-0.0148 -0.0614,-0.024 -0.0991,-0.024 -0.0586,0 -0.10901,0.0215 -0.13547,0.0526 l -1.29258,0.1577 c -0.0328,-0.0162 -0.0769,-0.0258 -0.12559,-0.0258 -0.079,0 -0.1464,0.0258 -0.1725,0.0621 L 8.449,0.39089 c -0.03,-0.0363 -0.0776,-0.0603 -0.13194,-0.0603 -0.0564,0 -0.10619,0.0258 -0.13617,0.0646 -0.0296,-0.0243 -0.0674,-0.0392 -0.10866,-0.0392 -0.0681,0 -0.12735,0.0406 -0.15593,0.0998 l -0.33796,0.0413 c -0.0328,-0.0332 -0.0822,-0.055 -0.13829,-0.055 -0.0748,0 -0.13864,0.0381 -0.16474,0.0921 l -0.34043,0.0413 c -0.0505,-0.0409 -0.12842,-0.067 -0.2159,-0.067 -0.12453,0 -0.22966,0.0529 -0.26423,0.12559 L 5.9217,0.69898 5.81975,0.81999 5.65465,0.73109 5.3943,1.11209 c 0,0 -0.27976,-0.1397 -0.64171,0.0381 C 4.53246,1.25814 4.3783,1.32904 4.25976,1.47439 H 3.37358 l -0.0381,0.1143 H 1.91873 L 1.81184,1.72204 H 1.36593 v 0.6163 h 0.46108 l 0.0917,0.1143 h 1.40405 l 0.0635,0.12735 h 0.64806 c 0.0222,0.12559 0.0512,0.2032 0.0512,0.2032 L 2.69981,4.09694 1.96956,4.08564 0.59725,4.30154 0,5.21665 0.16439,5.28545 0.4445,5.43855 c -0.0681,0.0258 -0.12418,0.0437 -0.19897,0.066 -0.16686,0.048 -0.1725,0.29034 -0.004,0.30939 0.007,3.5e-4 0.0162,0.002 0.0265,0.002 l 0.0469,0.29493 c 0.01,0.0589 0.10019,0.0448 0.09,-0.0148 L 0.35973,5.81385 c 0.0342,-0.002 0.0723,-0.004 0.11042,-0.007 0.007,0.4004 0.12453,0.83749 0.41699,1.00647 0.7239,0.41875 1.77129,1.25095 2.62995,1.25095 0.82797,0 10.82922,0.0222 11.36121,-0.001 0.55386,-0.0229 2.17946,-0.53869 2.40701,-0.63112 1.39982,-0.56832 1.18639,-1.88207 0.38664,-2.33821 h 1.05022 z M 0.47009,5.71818 c -0.0444,0.003 -0.0878,0.006 -0.12488,0.008 l -0.0141,-0.0868 c -0.009,-0.0596 -0.0988,-0.0459 -0.0893,0.0145 l 0.01,0.072 c -0.0353,-0.005 -0.0864,-0.10196 0.0187,-0.1323 0.0808,-0.0233 0.13899,-0.0423 0.21378,-0.0709 -0.008,0.0628 -0.0124,0.1277 -0.0141,0.19544 m 16.26235,0.55985 -0.45579,0.45544 c 0,0 -0.0536,-0.048 -0.0854,-0.10478 -0.0307,-0.0568 -0.0332,-0.13017 -0.0332,-0.13017 z M 2.91565,7.46578 2.75901,7.6471 C 2.73851,7.6391 2.71981,7.6302 2.69941,7.6207 L 2.73821,7.39739 2.60098,7.32719 2.45211,7.49935 C 2.42351,7.48315 2.39491,7.46795 2.36601,7.45175 L 2.40131,7.24749 2.26443,7.17659 2.13884,7.32229 C 2.09894,7.29899 2.05874,7.27399 2.01889,7.25029 L 2.04709,7.0866 1.91091,7.0153 1.81641,7.1236 C 1.77201,7.095 1.72821,7.0668 1.68447,7.0389 l 0.0145,-0.0801 0.0275,0.0797 0.11007,0.004 0.0272,-0.0896 c 0.066,-0.004 0.13124,-0.0138 0.19332,-0.0282 l 0.0582,0.0959 0.11748,-0.03 -0.0173,-0.11394 c 0.0586,-0.0236 0.11536,-0.0512 0.16863,-0.0826 l 0.0974,0.073 0.0914,-0.067 -0.0367,-0.061 h 0.45826 c -0.0656,0.11219 -0.10337,0.24236 -0.10337,0.38242 0,0.1404 0.0388,0.27199 0.10478,0.38558 z m 0.18344,0.30621 c -0.0275,-0.008 -0.0554,-0.0162 -0.0829,-0.0258 l 0.0286,-0.16615 c 0.0314,0.0413 0.0674,0.0801 0.10689,0.11465 z m 1.05974,0.066 H 4.05794 l -0.0162,-0.0614 c 0.066,-0.0392 0.12489,-0.0885 0.17569,-0.14428 z m 0.37536,0.002 H 4.44109 L 4.37939,7.61139 4.2404,7.60639 c 0.054,-0.066 0.0967,-0.14005 0.127,-0.22119 h 0.1277 c 0.0268,0.073 0.0642,0.1404 0.11148,0.20143 z m 0.29528,3.5e-4 -0.0187,-0.0698 c 0.0455,0.0279 0.0942,0.0519 0.14605,0.0698 z M 5.68918,7.8407 H 5.52585 L 5.51985,7.8178 C 5.59955,7.7815 5.67366,7.731 5.73681,7.67104 Z m 0.46355,-0.25788 -0.073,0.25929 h -0.0956 l -0.0674,-0.2533 -0.10231,-0.003 c 0.0984,-0.12912 0.15734,-0.28928 0.15734,-0.4639 0,-0.14006 -0.0374,-0.27023 -0.10301,-0.38242 h 0.2794 c -0.0656,0.11219 -0.10337,0.24236 -0.10337,0.38242 0,0.17462 0.0586,0.33478 0.15699,0.46284 z M 6.37604,7.84281 6.34464,7.72675 c 0.0649,0.0501 0.13758,0.0892 0.21695,0.11642 z m 0.84067,7.1e-4 -0.11888,-3.5e-4 -0.005,-0.0159 c 0.0536,-0.0219 0.10513,-0.0501 0.15205,-0.0833 z M 7.6658,7.58282 7.5907,7.84458 H 7.5141 L 7.4442,7.58881 7.4096,7.58781 C 7.4678,7.51161 7.51261,7.42307 7.53942,7.32852 h 0.13124 c 0.0261,0.0949 0.0713,0.18345 0.13123,0.26 z M 8.0602,7.84493 7.88875,7.84458 7.82705,7.61845 c 0.0677,0.079 0.14993,0.14322 0.24341,0.18873 z m 0.70768,0.001 -0.12841,-7.1e-4 c 0.0522,-0.0166 0.10124,-0.0385 0.14746,-0.0649 z m 0.80892,0.001 H 9.44874 L 9.37884,7.58869 9.22503,7.58269 9.14953,7.84586 H 9.06593 L 8.99853,7.59644 C 9.10296,7.46627 9.16469,7.30117 9.16469,7.12161 c 0,-0.14006 -0.0363,-0.27023 -0.1016,-0.38242 h 0.26106 c -0.0653,0.11219 -0.10266,0.24236 -0.10266,0.38242 0,0.27869 0.14993,0.52352 0.37535,0.65651 z m 0.7366,3.5e-4 H 10.215 c 0.0381,-0.012 0.0751,-0.0272 0.11148,-0.0455 z m 0.80962,0 H 11.0119 l -0.0702,-0.25859 -0.15451,-0.006 -0.0744,0.26458 H 10.6119 L 10.5526,7.62749 c 0.0759,-0.0854 0.13264,-0.18733 0.16404,-0.29916 h 0.16475 c 0.0452,0.16193 0.14323,0.30304 0.27516,0.40182 z m 0.73554,3.5e-4 h -0.0162 l 0.0176,-0.005 z m 0.80469,-3.5e-4 h -0.0825 l -0.0713,-0.25859 -0.15311,-0.006 -0.0755,0.26493 h -0.12242 l -0.0416,-0.15346 c 0.15804,-0.1404 0.25929,-0.34431 0.25929,-0.57255 0,-0.14006 -0.0381,-0.27023 -0.10337,-0.38242 h 0.24518 c -0.0653,0.11219 -0.10336,0.24236 -0.10336,0.38242 0,0.24024 0.11254,0.45402 0.2861,0.59372 z m 1.50918,-0.002 -0.0953,3.5e-4 -0.0698,-0.25647 -0.15381,-0.006 -0.0744,0.26317 -0.0864,0.001 -0.0356,-0.13406 C 13.78024,7.61377 13.87126,7.4755 13.91289,7.3171 h 0.12418 c 0.0342,0.12841 0.10124,0.24307 0.19085,0.33549 z m 0.29739,-0.002 -0.006,-0.0261 c 0.0197,0.01 0.042,0.0183 0.0645,0.0261 z m 0.78952,-0.066 c -0.054,0.0109 -0.10548,0.0215 -0.15311,0.03 0.0543,-0.0268 0.1069,-0.061 0.15382,-0.0998 z m 1.43475,-0.38947 -0.0815,0.0258 -0.13547,-0.23248 -0.14923,0.0339 -0.005,0.28575 -0.0526,0.0148 -0.12982,-0.22402 -0.14923,0.0339 -0.005,0.27128 -0.042,0.0113 -0.14323,-0.24588 -0.14957,0.0342 -0.005,0.29104 c -0.0356,0.009 -0.072,0.0173 -0.10831,0.0268 L 15.42348,7.51735 c 0.0716,-0.11536 0.11183,-0.25118 0.11183,-0.39546 0,-0.145 -0.0402,-0.28046 -0.11183,-0.39547 l 0.62759,-0.17886 c 0.10831,0.29598 0.34678,0.52988 0.64594,0.63042 z m 0.15557,-0.32597 -0.1143,0.0261 C 16.61789,7.05194 16.51029,6.99374 16.4168,6.91896 l 0.41064,-0.4438 0.10795,0.0487 0.0399,0.60607 c -0.0317,-10e-4 -0.0621,-0.005 -0.0924,-0.008 z m 0.33549,0.16122 c -0.0353,0.0148 -0.10618,0.0402 -0.20143,0.0716 l -0.0378,-0.066 c 0.0279,0.002 0.0557,0.004 0.0836,0.004 0.0571,0 0.11254,-0.005 0.16792,-0.0138 z m 0.45615,-0.3242 c -0.0265,0.0215 -0.055,0.0413 -0.0843,0.061 l -0.0734,-0.0826 -0.1404,0.0642 0.0229,0.11677 c -0.0427,0.0169 -0.0864,0.0296 -0.12947,0.0388 l -0.0868,-0.59831 0.12982,-0.0741 0.38947,0.28081 -0.09,0.0861 z m 0.22613,-0.86395 0.0871,0.002 c 0.003,0.0254 0.005,0.0504 0.005,0.0758 l -0.0716,0.0106 -0.0247,0.15134 0.0847,0.036 c -0.01,0.0519 -0.0208,0.10231 -0.0367,0.15134 l -0.0892,-0.008 -0.0272,0.0646 L 17.34398,6.27023 17.36228,6.12171 17.853,5.97072 Z M 17.72279,5.51562 c 0.0169,0.019 0.0324,0.0378 0.0455,0.0554 l -0.0582,0.091 0.085,0.10301 -0.45191,0.1711 -0.14817,-0.10583 0.005,-0.0543 0.381,-0.13088 c 0,0 -0.005,-0.0416 -0.007,-0.0924 l 0.043,0.0381 z"
     id="G-Brummbar" />
</svg>
