<?xml version="1.0" encoding="UTF-8" standalone="no"?>
<!-- Created with Inkscape (http://www.inkscape.org/) -->

<svg
   width="4.8353515mm"
   height="8mm"
   viewBox="0 0 4.8353515 7.9999999"
   version="1.1"
   id="svg47190"
   inkscape:version="1.3.2 (091e20e, 2023-11-25, custom)"
   sodipodi:docname="G-Brigade.svg"
   xml:space="preserve"
   xmlns:inkscape="http://www.inkscape.org/namespaces/inkscape"
   xmlns:sodipodi="http://sodipodi.sourceforge.net/DTD/sodipodi-0.dtd"
   xmlns="http://www.w3.org/2000/svg"
   xmlns:svg="http://www.w3.org/2000/svg"><sodipodi:namedview
     id="namedview47192"
     pagecolor="#ffffff"
     bordercolor="#666666"
     borderopacity="1.0"
     inkscape:pageshadow="2"
     inkscape:pageopacity="0.0"
     inkscape:pagecheckerboard="0"
     inkscape:document-units="mm"
     showgrid="false"
     inkscape:zoom="22.627418"
     inkscape:cx="22.384348"
     inkscape:cy="13.059378"
     inkscape:window-width="3840"
     inkscape:window-height="2066"
     inkscape:window-x="2869"
     inkscape:window-y="-11"
     inkscape:window-maximized="1"
     inkscape:current-layer="layer1"
     inkscape:snap-bbox="true"
     inkscape:snap-bbox-midpoints="true"
     inkscape:snap-page="true"
     inkscape:snap-bbox-edge-midpoints="false"
     inkscape:snap-nodes="false"
     inkscape:bbox-nodes="false"
     inkscape:bbox-paths="false"
     inkscape:snap-intersection-paths="false"
     inkscape:object-paths="true"
     inkscape:snap-smooth-nodes="false"
     inkscape:object-nodes="false"
     inkscape:snap-midpoints="true"
     inkscape:showpageshadow="2"
     inkscape:deskcolor="#d1d1d1" /><defs
     id="defs47187"><clipPath
       clipPathUnits="userSpaceOnUse"
       id="clipPath63680-8"><path
         d="M 0,0 H 595.276 V 841.89 H 0 Z"
         id="path63678-4" /></clipPath></defs><g
     inkscape:label="Layer 1"
     inkscape:groupmode="layer"
     id="layer1"
     transform="translate(-97.246048,-80.934647)"><g
       id="g1"
       transform="matrix(0.95255807,0,0,0.95255807,4.8032643,4.0286064)"><path
         id="path2"
         style="stroke-width:0.530492;stroke-linecap:round;paint-order:stroke markers fill"
         d="m 97.246094,80.736328 a 0.20002,0.20002 0 0 0 -0.199219,0.199219 v 8 a 0.20002,0.20002 0 0 0 0.199219,0.199219 h 2.544922 c 1.289464,0 2.332034,-1.044754 2.332034,-2.333985 v -3.732422 c 0,-1.289232 -1.04279,-2.332031 -2.332034,-2.332031 z m 1.300781,1.5 h 1.244141 c 0.491714,0 0.832034,0.340319 0.832034,0.832031 v 1.076172 h -2.076175 z m 0,3.484375 h 2.076175 v 1.080078 c 0,0.491463 -0.34206,0.833985 -0.832034,0.833985 h -1.244141 z" /><path
         id="rect1-3"
         style="fill:#ffc223;fill-opacity:1;stroke-width:0.530492;stroke-linecap:round;paint-order:stroke markers fill"
         d="m 97.246048,80.934647 v 8 h 2.54517 c 1.181982,0 2.133242,-0.95174 2.133242,-2.133713 V 83.06836 c 0,-1.181975 -0.95126,-2.133713 -2.133242,-2.133713 z m 1.1015,1.101976 h 1.44367 c 0.591022,0 1.031742,0.440235 1.031742,1.031262 v 1.276147 h -2.475412 z m 0,3.484368 h 2.475412 v 1.279469 c 0,0.591028 -0.44183,1.033161 -1.031742,1.033161 h -1.44367 z" /></g></g></svg>
