<?xml version="1.0" encoding="UTF-8" standalone="no"?>
<!-- Created with Inkscape (http://www.inkscape.org/) -->

<svg
   width="21.896093mm"
   height="10.353106mm"
   viewBox="0 0 21.896093 10.353106"
   version="1.1"
   id="svg19336"
   sodipodi:docname="inkporter-svg-02apifmp.svg"
   xmlns:inkscape="http://www.inkscape.org/namespaces/inkscape"
   xmlns:sodipodi="http://sodipodi.sourceforge.net/DTD/sodipodi-0.dtd"
   xmlns="http://www.w3.org/2000/svg"
   xmlns:svg="http://www.w3.org/2000/svg">
  <sodipodi:namedview
     id="namedview19338"
     pagecolor="#ffffff"
     bordercolor="#666666"
     borderopacity="1.0"
     inkscape:pageshadow="2"
     inkscape:pageopacity="0.0"
     inkscape:pagecheckerboard="0"
     inkscape:document-units="mm"
     showgrid="false"
     inkscape:zoom="0.45291836"
     inkscape:cx="569.63908"
     inkscape:cy="577.36675"
     inkscape:window-width="1920"
     inkscape:window-height="1017"
     inkscape:window-x="-8"
     inkscape:window-y="-8"
     inkscape:window-maximized="1"
     inkscape:current-layer="layer1" />
  <defs
     id="defs19333" />
  <g
     inkscape:label="Layer 1"
     inkscape:groupmode="layer"
     id="layer1"
     transform="translate(-225.91536,-195.58789)">
    <path
       d="m 227.27979,205.78161 c -0.5129,-0.35906 -0.77311,-1.03933 -0.63076,-1.64892 0.0594,-0.2544 0.0587,-0.2615 -0.0279,-0.28527 -0.0746,-0.0205 -0.0787,-0.031 -0.0254,-0.066 0.0403,-0.0264 0.0446,-0.0418 0.012,-0.0423 -0.0282,-3.5e-4 -0.12008,-0.10782 -0.2039,-0.23882 -0.14704,-0.22987 -0.15156,-0.24866 -0.12986,-0.53886 0.0411,-0.54992 0.0769,-0.75905 0.14062,-0.8228 0.0738,-0.0737 0.0474,-0.33811 -0.0391,-0.39303 -0.0296,-0.0189 -0.14464,-0.0348 -0.25505,-0.0351 -0.26332,-7.1e-4 -0.27595,-0.10391 -0.0212,-0.17263 0.25068,-0.0676 0.58296,-0.0229 0.6762,0.091 0.10513,0.12842 0.093,0.20777 -0.0318,0.20777 -0.083,0 -0.10565,0.0215 -0.10565,0.10048 0,0.0553 0.0279,0.12357 0.0618,0.15179 0.05,0.0415 0.0933,0.0286 0.22662,-0.0672 l 0.16486,-0.11847 0.0745,-0.57218 c 0.0712,-0.54687 0.13378,-0.74175 0.26254,-0.81832 0.0349,-0.0206 0.0481,-0.068 0.0328,-0.11623 -0.0233,-0.0724 -0.004,-0.0814 0.17169,-0.0814 0.15823,0 0.19273,0.0126 0.17322,0.0634 -0.0303,0.0789 -0.0954,0.0821 0.80049,-0.0388 0.41656,-0.0562 1.20434,-0.14361 1.75059,-0.1942 1.00284,-0.0929 1.36786,-0.16434 1.41079,-0.2763 0.0138,-0.0363 0,-0.0612 -0.0386,-0.0612 -0.0477,0 -0.0621,-0.0588 -0.0621,-0.25358 0,-0.2357 0.007,-0.25358 0.0963,-0.25358 0.0529,0 0.13857,0.0296 0.19025,0.0659 0.12389,0.0868 0.15822,0.0588 0.21773,-0.17745 0.0378,-0.15021 0.038,-0.20485 0,-0.22797 -0.0684,-0.0423 -0.0296,-0.3486 0.0792,-0.62727 0.0962,-0.24599 0.12153,-0.28581 0.15857,-0.24877 0.0134,0.0133 -0.0247,0.14629 -0.0845,0.29563 -0.0598,0.14935 -0.10713,0.33661 -0.1053,0.41614 0.004,0.0795 0.01,0.12559 0.0176,0.10234 0.008,-0.0232 0.0736,-0.2372 0.14584,-0.47546 0.13539,-0.44665 0.18238,-0.49968 0.31386,-0.35435 0.0545,0.0602 0.0648,0.12026 0.0434,0.25358 -0.0279,0.17328 -0.0995,0.24286 -0.10396,0.10077 -0.004,-0.0696 -0.25026,0.72924 -0.25097,0.80818 0,0.0203 0.0282,0.0132 0.0631,-0.0158 0.0349,-0.0289 0.0634,-0.0788 0.0634,-0.11083 0,-0.032 0.0286,-0.0582 0.0634,-0.0582 0.0349,0 0.0634,0.0164 0.0634,0.0366 0,0.0647 -0.17336,0.25928 -0.23093,0.25928 -0.0819,0 -0.10245,0.14336 -0.0831,0.57889 0.0148,0.33892 0.0325,0.41323 0.13864,0.58016 l 0.12143,0.19146 0.16436,-0.1952 c 0.20659,-0.24539 0.20292,-0.23309 0.10156,-0.34189 -0.0468,-0.0503 -0.0852,-0.11961 -0.0852,-0.15408 0,-0.11884 0.0814,-0.1124 0.20426,0.0162 l 0.12323,0.12891 0.0687,-0.10487 c 0.0378,-0.0577 0.0687,-0.13984 0.0687,-0.18259 0,-0.0808 -0.26359,-0.36607 -0.3024,-0.32724 -0.0123,0.0122 -0.0566,-0.016 -0.0988,-0.0627 -0.0422,-0.0466 -0.0564,-0.0848 -0.0314,-0.0848 0.025,0 0.0548,0.0238 0.0666,0.0528 0.0131,0.0325 0.0226,0.0254 0.0247,-0.0187 0.008,-0.16676 0.11839,-0.097 0.62762,0.39596 l 0.53795,0.52077 0.0134,-0.19018 c 0.009,-0.12099 0.0458,-0.22479 0.10248,-0.28528 0.0864,-0.0923 0.11338,-0.0951 0.90583,-0.0951 h 0.81675 v -0.65223 c 0,-0.58515 -0.007,-0.65435 -0.0739,-0.67284 -0.0407,-0.0113 -0.41155,-0.074 -0.82413,-0.13936 l -0.75018,-0.11877 v -0.17415 c 0,-0.19882 0.0732,-0.44033 0.13346,-0.44033 0.0226,0 0.0303,-0.0165 0.018,-0.0367 -0.0123,-0.0202 -0.12294,-0.0492 -0.24553,-0.0645 -0.12256,-0.0153 -0.56512,-0.0841 -0.98355,-0.15281 -0.41839,-0.0687 -1.54047,-0.24913 -2.4935,-0.4009 -0.95303,-0.15177 -2.07515,-0.33256 -2.49354,-0.40176 -0.8551,-0.14144 -1.41916,-0.20997 -1.47327,-0.17901 -0.0198,0.0114 -0.0233,-0.0625 -0.008,-0.16419 0.0516,-0.33105 0.0595,-0.34333 0.20644,-0.32009 0.54956,0.0869 1.71916,0.26114 2.4788,0.36926 1.58097,0.22501 2.65761,0.37894 3.52897,0.50455 1.31188,0.18911 1.57727,0.22189 1.61407,0.19936 0.0187,-0.0115 0.31944,0.0245 0.66816,0.0801 0.34865,0.0555 0.64819,0.10119 0.66562,0.10143 0.0173,1.2e-4 0.0314,-0.0847 0.0314,-0.18884 v -0.18927 l 0.80895,-0.0115 0.80899,-0.0115 0.22031,-0.39323 c 0.25763,-0.45983 0.29813,-0.50913 0.36386,-0.44339 0.0342,0.034 -0.0123,0.15631 -0.17128,0.45222 l -0.21798,0.40553 h 0.99543 0.9954 v -0.57364 c 0,-0.52353 0.007,-0.57242 0.0739,-0.55956 0.0754,0.0144 0.0731,-0.004 0.13201,1.03811 0.004,0.0763 0.0303,0.0951 0.13219,0.0951 0.0697,0 0.12675,-0.0143 0.12672,-0.0317 -4e-5,-0.0174 0.2044,-0.0271 0.4543,-0.0216 0.24995,0.006 1.0202,0.0151 1.71175,0.0211 l 1.25734,0.011 -4e-5,-0.56308 c 0,-0.51351 0.006,-0.56184 0.0739,-0.5489 0.0653,0.0125 0.0754,0.0799 0.0858,0.57365 l 0.012,0.55946 h 0.82289 0.82292 v -0.29584 c 0,-0.2247 0.0141,-0.29584 0.0589,-0.29584 0.0814,0 0.11017,0.0948 0.11017,0.36269 v 0.22899 h 0.99318 0.99314 v 0.57055 c 0,0.47898 0.0102,0.57056 0.0634,0.57056 0.0738,0 0.0737,-0.003 0.0637,1.76682 -0.005,0.84595 0.007,1.21336 0.0417,1.25462 0.0353,0.0421 0.0359,0.0819 0.004,0.14281 -0.025,0.0464 -0.0452,0.1903 -0.0452,0.31967 0,0.18092 -0.0145,0.23523 -0.0634,0.23523 -0.0443,0 -0.0634,0.0446 -0.0634,0.14792 v 0.14792 h -0.317 c -0.17431,0 -0.31719,0.0143 -0.31747,0.0317 0,0.0174 -0.17914,0.22188 -0.39737,0.45432 -0.41543,0.44235 -0.42531,0.4757 -0.1434,0.48306 0.10308,0.002 0.11504,0.0199 0.12682,0.18259 l 0.0131,0.17962 0.30628,0.0334 c 0.37807,0.0412 0.64463,-0.017 0.64463,-0.14063 0,-0.0685 0.0293,-0.0829 0.16905,-0.0829 0.12206,0 0.16905,0.0176 0.16905,0.0634 0,0.0406 -0.0408,0.0634 -0.11377,0.0634 -0.10936,0 -0.11056,0.002 -0.0317,0.0634 0.0777,0.06 0.0781,0.0664 0.008,0.12089 -0.0907,0.0705 -0.0964,0.15382 -0.0106,0.15382 0.0458,0 0.0606,0.0385 0.0529,0.13736 -0.007,0.0916 0.007,0.13384 0.0421,0.12679 0.0638,-0.0127 0.0709,0.10007 0.009,0.13849 -0.0243,0.015 -0.0696,0.006 -0.10072,-0.0197 -0.043,-0.0357 -0.0632,-0.0298 -0.0841,0.0245 -0.0314,0.0818 -0.0905,0.0377 -0.12132,-0.0905 -0.0155,-0.0639 -0.0215,-0.0562 -0.0254,0.0317 -0.004,0.0734 -0.0286,0.11622 -0.0688,0.11622 -0.0508,0 -0.0584,-0.0344 -0.0369,-0.16905 0.0236,-0.14694 0.0166,-0.16897 -0.0523,-0.16841 -0.0673,3.5e-4 -0.0697,0.007 -0.0159,0.0441 0.0457,0.0314 -0.0102,0.04 -0.20084,0.031 -0.24359,-0.0114 -0.26423,-0.006 -0.26416,0.0756 4e-5,0.0484 -0.0141,0.10231 -0.0314,0.11974 -0.0173,0.0174 -0.0317,0.0539 -0.0317,0.081 0,0.0271 -0.0428,0.0554 -0.0951,0.0628 -0.0523,0.007 -0.0951,0.0317 -0.0951,0.0539 0,0.0222 -0.0486,0.0589 -0.10802,0.0814 -0.14167,0.0539 -0.3569,-0.0508 -0.3569,-0.17353 0,-0.0474 -0.019,-0.074 -0.0429,-0.0594 -0.0236,0.0146 -0.0321,0.044 -0.0187,0.0654 0.0134,0.0216 -0.009,0.0264 -0.0489,0.0109 -0.0569,-0.0218 -0.0666,-0.0117 -0.0445,0.0462 0.0155,0.0408 0.0286,0.10116 0.0286,0.13413 0,0.0329 0.0201,0.0599 0.0453,0.0599 0.025,0 0.0755,0.0302 0.1125,0.0672 0.0511,0.0511 0.0577,0.0941 0.0279,0.17921 -0.0421,0.11985 -0.1766,0.17457 -0.22733,0.0925 -0.018,-0.0294 -0.0487,0.0207 -0.0745,0.12263 -0.0342,0.13455 -0.0318,0.17242 0.0102,0.17242 0.0891,0 0.11052,0.17864 0.0317,0.26555 -0.0529,0.0585 -0.10555,0.072 -0.20641,0.0531 -0.10968,-0.0206 -0.14817,-0.007 -0.20275,0.0708 -0.0395,0.0564 -0.0496,0.10208 -0.0247,0.11048 0.0813,0.0271 0.0448,0.20335 -0.0521,0.25201 -0.17554,0.0881 -0.26465,0.0813 -0.25936,-0.0199 l 0.005,-0.0921 -0.11934,0.0883 c -0.0657,0.0485 -0.1094,0.10443 -0.0972,0.12418 0.0123,0.0198 0.0102,0.0738 -0.004,0.12007 -0.0194,0.0618 -0.064,0.0841 -0.16726,0.0841 -0.13762,0 -0.22179,-0.0864 -0.16838,-0.17286 0.0539,-0.0872 -0.1156,-0.0303 -0.20045,0.0672 -0.0635,0.073 -0.13518,0.10565 -0.23216,0.10565 -0.0771,0 -0.1403,-0.0201 -0.1403,-0.0447 0,-0.0246 -0.0187,-0.033 -0.0423,-0.0187 -0.0592,0.0366 -0.0529,-0.0359 0.008,-0.0972 0.0394,-0.0395 0.0355,-0.0507 -0.018,-0.0507 -0.0745,0 -0.20168,0.10849 -0.20168,0.17208 0,0.0216 -0.0782,0.0392 -0.17392,0.0392 -0.15878,0 -0.17237,-0.009 -0.15543,-0.0972 0.0162,-0.0852 0.004,-0.0951 -0.0969,-0.0803 -0.0687,0.0101 -0.124,0.0495 -0.13646,0.0972 -0.0155,0.0601 -0.0592,0.0803 -0.17289,0.0803 -0.0835,0 -0.15187,-0.0184 -0.15187,-0.0409 0,-0.0225 -0.0286,-0.03 -0.0634,-0.0166 -0.0346,0.0134 -0.0634,0.005 -0.0634,-0.0189 0,-0.0238 0.024,-0.0529 0.0528,-0.0646 0.0289,-0.0118 -0.004,-0.0228 -0.0704,-0.0247 -0.0678,-0.002 -0.11078,0.009 -0.0955,0.0245 0.0152,0.0153 0.007,0.0533 -0.019,0.0845 -0.0555,0.0669 -0.33253,0.0769 -0.33253,0.012 0,-0.0246 -0.0226,-0.031 -0.0494,-0.0142 -0.0335,0.0205 -0.0406,0.008 -0.0226,-0.0398 0.019,-0.0504 0.004,-0.0703 -0.0534,-0.0703 -0.0442,0 -0.0924,0.038 -0.10717,0.0845 -0.0212,0.0656 -0.064,0.0845 -0.19304,0.0845 -0.13801,0 -0.16619,-0.0143 -0.16619,-0.0845 0,-0.0609 -0.0282,-0.0845 -0.10076,-0.0845 -0.0652,0 -0.10851,0.0298 -0.12284,0.0845 -0.0169,0.0647 -0.0576,0.0845 -0.17399,0.0845 -0.0835,0 -0.15187,-0.0185 -0.15187,-0.0409 0,-0.0225 -0.0286,-0.03 -0.0634,-0.0166 -0.0349,0.0134 -0.0634,0.005 -0.0634,-0.0189 0,-0.0238 0.024,-0.0529 0.0528,-0.0646 0.0289,-0.0117 0.0113,-0.0228 -0.0394,-0.0247 -0.057,-0.002 -0.10248,0.029 -0.11906,0.0812 -0.0212,0.0662 -0.0639,0.0845 -0.19798,0.0845 -0.15575,0 -0.16944,-0.009 -0.15251,-0.0972 0.0162,-0.0856 0.004,-0.0952 -0.0993,-0.0799 -0.0683,0.01 -0.12859,0.0509 -0.1433,0.0972 -0.0368,0.11584 -0.29954,0.11226 -0.33665,-0.005 -0.0148,-0.0465 -0.0623,-0.0845 -0.10562,-0.0845 -0.0434,0 -0.0909,0.038 -0.1057,0.0845 -0.0212,0.0657 -0.0639,0.0845 -0.193,0.0845 -0.13808,0 -0.16619,-0.0144 -0.16619,-0.0845 0,-0.0614 -0.0282,-0.0845 -0.10284,-0.0845 -0.0657,0 -0.1125,0.0305 -0.12965,0.0845 -0.0212,0.0662 -0.064,0.0845 -0.19797,0.0845 -0.15576,0 -0.16944,-0.009 -0.15255,-0.0972 0.0166,-0.0861 0.005,-0.0952 -0.10265,-0.0794 -0.0667,0.01 -0.11106,0.028 -0.0986,0.0405 0.0124,0.0125 0,0.0482 -0.0243,0.0794 -0.0537,0.0647 -0.33253,0.0779 -0.33253,0.0158 0,-0.0225 -0.0335,-0.0285 -0.074,-0.0132 -0.0647,0.0243 -0.0667,0.0189 -0.0159,-0.0436 0.0518,-0.0637 0.0455,-0.0713 -0.0599,-0.0713 -0.0648,0 -0.10537,0.0125 -0.0901,0.0278 0.0152,0.0153 0.007,0.0533 -0.019,0.0845 -0.0556,0.0669 -0.33256,0.0769 -0.33256,0.012 0,-0.0246 -0.0226,-0.031 -0.0495,-0.0142 -0.0332,0.0205 -0.0406,0.008 -0.0226,-0.0398 0.019,-0.0504 0.004,-0.0703 -0.0534,-0.0703 -0.0442,0 -0.0924,0.038 -0.10718,0.0845 -0.0201,0.0625 -0.064,0.0845 -0.16905,0.0845 -0.10513,0 -0.14922,-0.0221 -0.16909,-0.0845 -0.0166,-0.0531 -0.0639,-0.0845 -0.12678,-0.0845 -0.0628,0 -0.10993,0.0314 -0.12676,0.0845 -0.0201,0.0629 -0.064,0.0845 -0.17194,0.0845 -0.0798,0 -0.14503,-0.0185 -0.14503,-0.0409 0,-0.0225 -0.0286,-0.03 -0.0634,-0.0166 -0.0349,0.0134 -0.0634,0.005 -0.0634,-0.0189 0,-0.0238 0.024,-0.0529 0.0528,-0.0646 0.0289,-0.0117 0.0113,-0.0228 -0.0394,-0.0247 -0.057,-0.002 -0.10248,0.029 -0.11902,0.0812 -0.0212,0.0657 -0.064,0.0845 -0.19304,0.0845 -0.0914,0 -0.1662,-0.0202 -0.1662,-0.0448 0,-0.0246 -0.019,-0.033 -0.0423,-0.0187 -0.0699,0.0432 -0.0476,-0.0291 0.0254,-0.0824 0.0552,-0.0404 0.0392,-0.0462 -0.0866,-0.0315 -0.0849,0.01 -0.14411,0.0284 -0.13148,0.041 0.0127,0.0126 0,0.0485 -0.0243,0.0796 -0.0623,0.0751 -0.28057,0.0725 -0.35733,-0.004 -0.0531,-0.0531 -0.0513,-0.0666 0.0134,-0.10437 0.0608,-0.0354 0.0455,-0.0436 -0.0826,-0.0447 -0.10823,-0.001 -0.15113,0.0152 -0.13776,0.0515 0.0365,0.0995 -0.0485,0.1651 -0.19551,0.15106 -0.11151,-0.0106 -0.1465,-0.0349 -0.15698,-0.10879 -0.0176,-0.12505 -0.20119,-0.13312 -0.2401,-0.0106 -0.0523,0.16462 -0.39169,0.0864 -0.34812,-0.0802 0.0183,-0.0703 0.004,-0.0889 -0.0691,-0.0889 -0.0508,0 -0.11977,0.038 -0.15328,0.0845 -0.0825,0.11449 -0.29588,0.1148 -0.32576,3.5e-4 -0.0127,-0.0485 -0.0423,-0.0719 -0.07,-0.0553 -0.0282,0.017 -0.0261,0.001 0.006,-0.0376 0.0453,-0.056 0.0392,-0.0702 -0.0396,-0.0907 -0.0641,-0.0168 -0.11145,0.001 -0.1512,0.0582 -0.1124,0.16047 -0.38623,0.0609 -0.33818,-0.12301 0.0159,-0.0609 -0.0123,-0.0894 -0.12178,-0.12306 -0.11504,-0.0353 -0.14252,-0.0323 -0.14252,0.0157 0,0.0327 -0.0173,0.0594 -0.0388,0.0594 -0.0215,0 -0.0643,0.01 -0.0955,0.0218 -0.031,0.012 -0.12309,-0.0392 -0.20419,-0.11373 -0.0811,-0.0745 -0.11448,-0.12307 -0.0742,-0.10787 0.0484,0.0182 0.0879,3.5e-4 0.11621,-0.0525 0.0353,-0.0659 0.0201,-0.0961 -0.0839,-0.17036 -0.0697,-0.0496 -0.12676,-0.0699 -0.12676,-0.0451 0,0.0611 -0.13998,0.0573 -0.20284,-0.006 -0.0279,-0.0279 -0.0508,-0.0949 -0.0508,-0.14889 0,-0.0912 -0.007,-0.094 -0.095,-0.039 -0.12943,0.0805 -0.61983,0.0899 -0.79784,0.0153 -0.0784,-0.0328 -0.1996,-0.10713 -0.26931,-0.16508 -0.18877,-0.15683 -0.30448,-0.17426 -0.33556,-0.0505 -0.031,0.12383 -0.14439,0.13104 -0.26681,0.017 -0.098,-0.0913 -0.32582,-0.41239 -0.35285,-0.49731 -0.01,-0.0291 -0.018,0.10405 -0.019,0.29584 -0.004,0.54452 -0.10121,0.81636 -0.41603,1.16173 -0.33574,0.36828 -0.40925,0.39148 -1.24065,0.39148 h -0.71158 z m 8.69862,-0.31032 c 0.0458,-0.0296 0.0106,-0.04 -0.12679,-0.0374 -0.15765,0.003 -0.17215,0.009 -0.0845,0.0374 0.14407,0.0461 0.13991,0.0461 0.21131,0 z m 0.56939,-0.12807 c -0.066,-0.073 -0.0794,-0.074 -0.17258,-0.0129 -0.0555,0.0364 -0.10097,0.0817 -0.10097,0.10063 0,0.0519 0.17949,0.0711 0.26762,0.0286 0.073,-0.0351 0.0733,-0.0419 0.006,-0.11638 z m 8.07924,0.10694 c 0.0134,-0.0349 0.0711,-0.0634 0.12827,-0.0634 0.12481,0 0.26741,-0.0704 0.26741,-0.13198 0,-0.0557 -0.33306,-0.006 -0.4202,0.0628 -0.0482,0.038 -0.0535,0.0357 -0.0254,-0.0109 0.0282,-0.0471 0.012,-0.0531 -0.08,-0.03 -0.0651,0.0163 -0.10531,0.0125 -0.0921,-0.009 0.0127,-0.0208 -0.0282,-0.031 -0.0916,-0.0227 -0.0633,0.008 -0.0915,0.004 -0.0628,-0.009 0.0314,-0.0149 -0.0335,-0.0823 -0.16443,-0.17037 -0.11913,-0.0802 -0.22006,-0.14048 -0.22433,-0.13405 -0.004,0.006 -0.048,0.07 -0.0972,0.14134 l -0.0893,0.12966 0.12415,-0.0182 c 0.14795,-0.0217 0.1561,0.0153 0.0324,0.14697 -0.0504,0.0537 -0.0784,0.111 -0.0621,0.12732 0.0275,0.0274 0.25496,-0.0216 0.4099,-0.0883 0.039,-0.0168 0.10618,0.007 0.16495,0.0576 0.11677,0.10131 0.2479,0.11178 0.28216,0.0225 z m -9.17017,-0.0423 c 0.007,-0.0233 -0.054,-0.0859 -0.13625,-0.13914 -0.0822,-0.0533 -0.20919,-0.18166 -0.28225,-0.28528 l -0.13283,-0.1884 -0.29827,7.1e-4 c -0.32385,7e-4 -0.4203,0.0343 -0.3823,0.13331 0.0134,0.0351 0,0.0831 -0.03,0.10675 -0.0742,0.0582 -0.25097,0.099 -0.22137,0.0512 0.0395,-0.064 -0.0518,-0.0428 -0.10812,0.0251 -0.0289,0.0349 -0.0883,0.0634 -0.13198,0.0634 -0.0436,0 -0.0793,0.0285 -0.0793,0.0634 0,0.0763 0.045,0.0796 0.18898,0.014 0.0936,-0.0427 0.12009,-0.0369 0.19379,0.0423 0.0885,0.095 0.26892,0.12329 0.3146,0.0494 0.0409,-0.0661 0.18189,-0.0495 0.22444,0.0264 0.0386,0.0691 0.14291,0.0674 0.44118,-0.007 0.0922,-0.023 0.11624,-0.0144 0.11624,0.0418 0,0.0558 0.0328,0.0681 0.15523,0.0578 0.0854,-0.007 0.16114,-0.0321 0.16848,-0.0554 z m -0.53506,-0.14792 c 0,-0.0233 0.0201,-0.0423 0.0448,-0.0423 0.0247,0 0.0328,0.019 0.0187,0.0423 -0.0145,0.0232 -0.0342,0.0423 -0.0448,0.0423 -0.0102,0 -0.0187,-0.019 -0.0187,-0.0423 z m -0.57051,-0.0423 c 0.0145,-0.0232 0.0346,-0.0423 0.0448,-0.0423 0.0102,0 0.0183,0.019 0.0183,0.0423 0,0.0232 -0.0201,0.0423 -0.0448,0.0423 -0.0247,0 -0.0328,-0.019 -0.0183,-0.0423 z m 3.7297,0.20793 c -0.11017,-0.0642 -0.09,-0.13631 0.0318,-0.11305 0.12852,0.0246 0.1342,0.008 0.0183,-0.0541 -0.12577,-0.0673 -0.22546,0.0178 -0.15424,0.13184 0.0279,0.0445 0.0792,0.0803 0.1143,0.0796 0.0506,-0.001 0.0485,-0.0102 -0.0102,-0.0444 z m 0.76123,0.0166 c -0.0404,-0.0106 -0.11649,-0.0109 -0.16909,-7.1e-4 -0.0525,0.0101 -0.0194,0.0188 0.0735,0.0192 0.093,3.5e-4 0.136,-0.008 0.0956,-0.0184 z m 0.44326,-7.1e-4 c -0.10996,-0.0212 -0.12922,-0.097 -0.0247,-0.097 0.0387,0 0.0592,-0.0113 0.0454,-0.025 -0.0138,-0.0138 -0.0654,-0.0121 -0.1149,0.004 -0.072,0.0229 -0.08,0.0405 -0.0403,0.0884 0.0272,0.0329 0.0901,0.0572 0.13959,0.0541 0.0861,-0.006 0.0859,-0.007 -0.005,-0.0241 z m 1.84898,-0.002 c -0.0349,-0.0122 -0.0935,-0.0376 -0.13028,-0.0564 -0.0443,-0.0227 -0.0669,-0.0157 -0.0669,0.0206 0,0.0328 0.0525,0.0555 0.13031,0.0564 0.0717,7.1e-4 0.10178,-0.008 0.0669,-0.0206 z m 0.62251,0.006 c -0.0141,-0.014 -0.0505,-0.0155 -0.081,-0.003 -0.0335,0.0135 -0.0236,0.0235 0.0254,0.0255 0.0446,0.002 0.0695,-0.008 0.0555,-0.0222 z m 0.56088,0.009 c 0,-0.009 -0.0293,-0.0279 -0.0656,-0.0418 -0.0376,-0.0145 -0.0546,-0.007 -0.0398,0.0166 0.025,0.0402 0.10534,0.0594 0.10534,0.0252 z m 1.20284,-0.0423 c 0.0625,-0.0324 0.0979,-0.0679 0.0788,-0.0788 -0.019,-0.0109 -0.0919,0.0155 -0.16164,0.0587 -0.14753,0.0915 -0.0843,0.10682 0.0829,0.0201 z m -1.41415,-0.0935 c 0,-0.009 -0.0286,-0.0166 -0.0634,-0.0166 -0.0349,0 -0.0634,0.0185 -0.0634,0.0409 0,0.0225 0.0286,0.03 0.0634,0.0166 0.0349,-0.0134 0.0634,-0.0318 0.0634,-0.0409 z m -2.07091,-0.18567 c 0,-0.0232 -0.0332,-0.042 -0.0739,-0.0416 -0.0632,3.5e-4 -0.0648,0.007 -0.0106,0.0416 0.0798,0.0515 0.0845,0.0515 0.0845,0 z m -2.83161,-0.0423 c 0,-0.0233 -0.0286,-0.0423 -0.0634,-0.0423 -0.0349,0 -0.0634,0.019 -0.0634,0.0423 0,0.0232 0.0286,0.0423 0.0634,0.0423 0.0349,0 0.0634,-0.019 0.0634,-0.0423 z m 5.57872,0 c 0,-0.0233 -0.019,-0.0423 -0.0423,-0.0423 -0.0233,0 -0.0423,0.019 -0.0423,0.0423 0,0.0232 0.019,0.0423 0.0423,0.0423 0.0233,0 0.0423,-0.019 0.0423,-0.0423 z m -5.04253,-0.17683 c -0.065,-0.0408 -0.11416,-7e-4 -0.0867,0.0707 0.018,0.0472 0.0349,0.0492 0.078,0.009 0.0384,-0.0356 0.041,-0.0597 0.009,-0.0799 z m 2.78585,0.0192 c -0.043,-0.043 -0.0784,0.0217 -0.0431,0.0787 0.0264,0.0431 0.0366,0.0431 0.0509,1.3e-4 0.01,-0.0294 0.006,-0.0649 -0.008,-0.0789 z m 2.82025,0.0266 c 0.0191,-0.0145 0.005,-0.0379 -0.0317,-0.052 -0.0482,-0.0185 -0.0669,-3.5e-4 -0.0669,0.0646 0,0.0496 0.0141,0.073 0.0318,0.052 0.0173,-0.0211 0.0476,-0.0501 0.067,-0.0646 z m -11.23936,-0.32686 c 0.012,-0.0194 -0.005,-0.0352 -0.0379,-0.0352 -0.0328,0 -0.0499,0.0158 -0.0379,0.0352 0.012,0.0194 0.0289,0.0352 0.0379,0.0352 0.009,0 0.0261,-0.0159 0.0379,-0.0352 z m 5.56831,-0.78892 c 0,-0.0221 -0.0201,-0.047 -0.0455,-0.0553 -0.025,-0.008 -0.0454,0.0165 -0.0454,0.0553 0,0.0388 0.0208,0.0636 0.0454,0.0553 0.0251,-0.008 0.0455,-0.0332 0.0455,-0.0553 z m -0.55576,-0.0634 c 0,-0.0232 -0.0332,-0.042 -0.0739,-0.0416 -0.0632,3.5e-4 -0.0648,0.007 -0.0106,0.0416 0.0798,0.0515 0.0845,0.0515 0.0845,0 z m 6.46627,-0.90866 c 0,-0.0417 0.0417,-0.0634 0.12192,-0.0634 0.0982,0 0.13589,-0.0292 0.19311,-0.1499 0.0714,-0.15039 0.0595,-0.37202 -0.0229,-0.4228 -0.0215,-0.0133 -0.20189,-0.0271 -0.40072,-0.0306 -0.2765,-0.005 -0.37073,0.008 -0.40065,0.0555 -0.0623,0.0985 -0.0466,0.35115 0.0282,0.45825 0.11875,0.16952 0.48063,0.28472 0.48063,0.15301 z m -6.3658,-0.0374 c 0.0985,-0.0412 0.15952,-0.10729 0.20588,-0.22311 0.0608,-0.15189 0.0581,-0.3739 -0.005,-0.4119 -0.0653,-0.0393 -0.78133,-0.0428 -0.79435,-0.004 -0.008,0.0232 0.0381,0.0461 0.10206,0.0509 0.43233,0.0321 0.68679,0.0698 0.68679,0.10196 0,0.0205 -0.0428,0.0379 -0.0951,0.0386 -0.19022,0.002 -0.72951,0.0514 -0.74719,0.0676 -0.0519,0.0477 0.13932,0.32227 0.26155,0.37539 0.17368,0.0755 0.21396,0.076 0.38538,0.004 z m 1.55162,-0.1689 c 0.0916,-0.1502 0.10111,-0.30461 0.0265,-0.42767 -0.0447,-0.0736 -0.0988,-0.085 -0.41748,-0.0882 -0.3465,-0.004 -0.36862,0.002 -0.41208,0.0971 -0.0671,0.14727 -0.0563,0.26945 0.0375,0.4232 0.0766,0.12566 0.124,0.15094 0.36036,0.19222 0.14609,0.0255 0.32191,-0.0598 0.40535,-0.19661 z m 1.19514,0.15814 c 0.0799,-0.0381 0.16609,-0.11506 0.19159,-0.17104 0.0527,-0.11557 0.0605,-0.34904 0.0141,-0.41988 -0.0173,-0.0264 -0.19664,-0.0559 -0.40475,-0.0666 -0.36995,-0.019 -0.37405,-0.0181 -0.41543,0.0896 -0.0494,0.12846 -0.0194,0.36378 0.058,0.4572 0.0575,0.0692 0.27181,0.17545 0.35987,0.17828 0.0282,0.001 0.11677,-0.0295 0.19664,-0.0676 z m 1.31424,0.009 c 0.23036,-0.0963 0.34237,-0.39655 0.22183,-0.59501 -0.0447,-0.0737 -0.099,-0.085 -0.42147,-0.0884 l -0.3701,-0.004 -0.0461,0.15382 c -0.0643,0.21448 0.0342,0.44717 0.22472,0.52985 0.17639,0.0766 0.21548,0.077 0.39109,0.004 z m 4.52328,-0.0662 c 0.0148,-0.024 -0.004,-0.0311 -0.0397,-0.0166 -0.0732,0.0281 -0.0866,0.0584 -0.0258,0.0584 0.0219,0 0.0514,-0.0188 0.0656,-0.0418 z m 0.37987,-0.42947 0.12598,-0.12044 h -0.36901 -0.369 v 0.25394 0.25395 l 0.24303,-0.13351 c 0.13366,-0.0734 0.29972,-0.18769 0.369,-0.25394 z m -10.97939,0.11335 0.11856,-0.10433 -0.30638,-0.001 c -0.16853,-7e-4 -0.30639,0.007 -0.30639,0.0181 0,0.0107 0.0416,0.0583 0.0925,0.10566 0.12319,0.11479 0.25753,0.10872 0.40175,-0.0181 z m 0.79046,0.0563 c 0.0579,-0.0264 0.11529,-0.0739 0.12746,-0.10565 0.0173,-0.0455 -0.0422,-0.0574 -0.28296,-0.0563 l -0.30505,10e-4 0.11857,0.10432 c 0.13258,0.11665 0.18916,0.12597 0.34198,0.0563 z m 10.53875,-0.53313 0.0628,-0.0951 h -0.51234 c -0.48063,0 -0.51234,0.005 -0.51234,0.0828 0,0.0743 0.0358,0.0844 0.34872,0.0979 0.51474,0.0223 0.54469,0.0181 0.61313,-0.0856 z m -2.95875,0.0448 c -0.0407,-0.0106 -0.10725,-0.0106 -0.14792,0 -0.0407,0.0106 -0.007,0.0193 0.0739,0.0193 0.0814,0 0.11465,-0.009 0.074,-0.0193 z m -6.46575,-0.0422 c -0.0404,-0.0106 -0.11648,-0.0109 -0.16908,-7e-4 -0.0526,0.0101 -0.0194,0.0188 0.0734,0.0192 0.093,3.6e-4 0.136,-0.008 0.0956,-0.0184 z m 1.35192,-5e-5 c -0.0407,-0.0107 -0.10725,-0.0107 -0.14792,0 -0.0407,0.0106 -0.007,0.0193 0.0739,0.0193 0.0813,0 0.11465,-0.009 0.074,-0.0193 z m 1.39467,0 c -0.0407,-0.0107 -0.10724,-0.0107 -0.14792,0 -0.0407,0.0106 -0.007,0.0193 0.0739,0.0193 0.0814,0 0.11465,-0.009 0.074,-0.0193 z m 1.31018,0 c -0.0407,-0.0107 -0.10724,-0.0107 -0.14792,0 -0.0407,0.0106 -0.007,0.0193 0.0739,0.0193 0.0813,0 0.11462,-0.009 0.074,-0.0193 z m -8.38757,-0.43578 c -0.012,-0.0465 -0.0366,-0.0845 -0.0543,-0.0845 -0.0176,0 -0.0567,-0.0618 -0.0866,-0.13736 -0.0932,-0.23504 -0.12474,-0.25457 -0.21841,-0.13547 -0.10721,0.13625 -0.0728,0.2909 0.0835,0.37572 0.17441,0.0946 0.30317,0.086 0.27587,-0.0184 z m 0.54303,0.0105 c -0.0219,-0.0407 -0.0527,-0.19758 -0.0689,-0.34867 -0.0162,-0.15109 -0.0562,-0.30473 -0.0889,-0.34143 -0.0325,-0.0367 -0.0594,-0.10542 -0.0594,-0.15272 0,-0.0823 0.0282,-0.0899 0.22683,-0.0607 0.0201,0.003 0.0254,0.0482 0.0116,0.10044 -0.0138,0.0523 0.008,0.19381 0.0479,0.31451 0.0575,0.17338 0.0905,0.21776 0.15717,0.21136 0.10015,-0.01 0.1464,0.17313 0.0576,0.22796 -0.0407,0.0251 -0.0279,0.0446 0.0489,0.0729 0.1234,0.0457 0.31933,-0.0109 0.35444,-0.10241 0.0387,-0.10095 0.0821,-1.01239 0.0466,-0.97942 -0.0176,0.0166 -0.13843,-0.0642 -0.26787,-0.17961 -0.12943,-0.11538 -0.2529,-0.20979 -0.27432,-0.20979 -0.0708,0 -0.74954,0.69203 -0.77385,0.78904 -0.0162,0.0646 0.018,0.15721 0.10703,0.28908 0.072,0.1067 0.13099,0.20785 0.13099,0.22475 0,0.0969 0.14333,0.2186 0.25746,0.2186 0.10668,0 0.11987,-0.0113 0.0865,-0.074 z m 3.67104,4.29778 c 0,-0.0246 0.0191,-0.033 0.0423,-0.0187 0.0233,0.0144 0.0423,0.0345 0.0423,0.0447 0,0.0102 -0.019,0.0187 -0.0423,0.0187 -0.0233,0 -0.0423,-0.0202 -0.0423,-0.0448 z m 9.46693,-1.01182 c 0,-0.0232 0.0187,-0.0423 0.0423,-0.0423 0.0233,0 0.0423,0.019 0.0423,0.0423 0,0.0232 -0.0187,0.0423 -0.0423,0.0423 -0.0233,0 -0.0423,-0.019 -0.0423,-0.0423 z m -20.11373,-1.24299 c -0.0526,-0.056 -0.0892,-0.13449 -0.0813,-0.17434 0.0102,-0.0511 0.0433,-0.021 0.11218,0.10188 0.11205,0.19971 0.10474,0.21681 -0.0307,0.0725 z m 6.33596,-3.2369 c 0,-0.0233 0.019,-0.0423 0.0423,-0.0423 0.0233,0 0.0423,0.019 0.0423,0.0423 0,0.0232 -0.0187,0.0423 -0.0423,0.0423 -0.0233,0 -0.0423,-0.019 -0.0423,-0.0423 z m 0.16905,-0.59418 c 0,-0.0246 0.0187,-0.033 0.0423,-0.0186 0.0233,0.0144 0.0422,0.0345 0.0422,0.0448 0,0.0103 -0.0187,0.0187 -0.0422,0.0187 -0.0233,0 -0.0423,-0.0201 -0.0423,-0.0448 z m 0.21132,-0.84276 c 0,-0.0232 0.019,-0.0423 0.0423,-0.0423 0.0233,0 0.0423,0.019 0.0423,0.0423 0,0.0232 -0.019,0.0423 -0.0423,0.0423 -0.0233,0 -0.0423,-0.019 -0.0423,-0.0423 z m 0,-0.23245 c 0,-0.0349 0.019,-0.0634 0.0423,-0.0634 0.0233,0 0.0423,0.0285 0.0423,0.0634 0,0.0349 -0.019,0.0634 -0.0423,0.0634 -0.0233,0 -0.0423,-0.0285 -0.0423,-0.0634 z"
       id="G-Diana"
       style="stroke-width:0.352778" />
  </g>
</svg>
