<?xml version="1.0" encoding="UTF-8" standalone="no"?>
<!-- Created with Inkscape (http://www.inkscape.org/) -->

<svg
   width="27.759529mm"
   height="12.064913mm"
   viewBox="0 0 27.759529 12.064913"
   version="1.1"
   id="svg19336"
   sodipodi:docname="inkporter-svg-02apifmp.svg"
   xmlns:inkscape="http://www.inkscape.org/namespaces/inkscape"
   xmlns:sodipodi="http://sodipodi.sourceforge.net/DTD/sodipodi-0.dtd"
   xmlns="http://www.w3.org/2000/svg"
   xmlns:svg="http://www.w3.org/2000/svg">
  <sodipodi:namedview
     id="namedview19338"
     pagecolor="#ffffff"
     bordercolor="#666666"
     borderopacity="1.0"
     inkscape:pageshadow="2"
     inkscape:pageopacity="0.0"
     inkscape:pagecheckerboard="0"
     inkscape:document-units="mm"
     showgrid="false"
     inkscape:zoom="0.45291836"
     inkscape:cx="569.63908"
     inkscape:cy="577.36675"
     inkscape:window-width="1920"
     inkscape:window-height="1017"
     inkscape:window-x="-8"
     inkscape:window-y="-8"
     inkscape:window-maximized="1"
     inkscape:current-layer="layer1" />
  <defs
     id="defs19333" />
  <g
     inkscape:label="Layer 1"
     inkscape:groupmode="layer"
     id="layer1"
     transform="translate(-154.30866,-176.81235)">
    <path
       d="m 163.76614,188.84056 c -0.007,-0.0185 -0.0443,-0.0404 -0.0827,-0.0489 -0.0403,-0.009 -0.0805,-0.0388 -0.0951,-0.0708 -0.0328,-0.0726 -0.15801,-0.11892 -0.19632,-0.0727 -0.0152,0.0181 -0.0751,0.04 -0.13353,0.0488 -0.12308,0.0185 -0.18567,-0.0209 -0.20761,-0.13058 -0.0176,-0.0878 -0.15159,-0.15245 -0.18655,-0.09 -0.065,0.1161 -0.2069,0.0938 -0.27171,-0.0428 -0.0442,-0.0931 -0.13878,-0.17937 -0.19667,-0.17937 -0.0201,0 -0.0547,0.0163 -0.0768,0.0363 -0.0385,0.0349 -0.12986,0.0252 -0.10717,-0.0115 0.006,-0.01 -0.0155,-0.0128 -0.048,-0.007 -0.0799,0.0153 -0.12143,-0.025 -0.13896,-0.13472 -0.008,-0.0505 -0.0321,-0.10619 -0.0532,-0.12379 -0.0332,-0.0276 -0.045,-0.0231 -0.0857,0.0327 -0.0501,0.0687 -0.13896,0.0858 -0.18109,0.0349 -0.0134,-0.0164 -0.0321,-0.0702 -0.0414,-0.11961 -0.0187,-0.10093 -0.12178,-0.20258 -0.16319,-0.16117 -0.0346,0.0346 -0.24271,0.0306 -0.27115,-0.005 -0.013,-0.0164 -0.0307,-0.0689 -0.0393,-0.11679 -0.0205,-0.11472 -0.0566,-0.14034 -0.17671,-0.12587 -0.14397,0.0174 -0.18602,-0.0141 -0.20447,-0.15324 -0.0187,-0.13961 -0.0489,-0.16975 -0.18443,-0.18324 -0.14845,-0.0147 -0.1784,-0.0542 -0.14668,-0.19291 0.0321,-0.13983 0.0222,-0.16587 -0.0814,-0.21501 -0.12163,-0.0577 -0.14291,-0.13607 -0.0678,-0.24963 0.0749,-0.11314 0.0752,-0.1408 0.004,-0.21911 -0.0318,-0.0343 -0.0651,-0.0854 -0.074,-0.11359 -0.0169,-0.054 0.0282,-0.16479 0.0674,-0.16479 0.0339,0 0.11201,-0.0968 0.11201,-0.13809 0,-0.0195 -0.0162,-0.0473 -0.0361,-0.0619 -0.0198,-0.0146 -0.0479,-0.0945 -0.0626,-0.17774 -0.0243,-0.13745 -0.0222,-0.15704 0.0208,-0.21454 0.0296,-0.0403 0.0743,-0.066 0.1221,-0.0707 0.0614,-0.006 0.0751,-0.018 0.0751,-0.0648 0,-0.0315 0.0233,-0.10257 0.0523,-0.15783 0.0381,-0.0729 0.0443,-0.10318 0.0229,-0.11032 -0.0187,-0.006 -0.0215,-0.0199 -0.008,-0.0373 0.012,-0.0151 0.0279,-0.15485 0.0349,-0.31052 0.007,-0.15568 0.025,-0.29459 0.0389,-0.3087 0.0141,-0.0141 0.0258,-0.0598 0.0258,-0.10142 v -0.0758 l 0.38156,-0.0744 c 0.20987,-0.0409 0.40831,-0.0744 0.44097,-0.0744 0.0476,0 0.0595,-0.0119 0.0595,-0.0596 0,-0.0328 0.0106,-0.0596 0.0243,-0.0596 0.0141,0 0.012,-0.0194 -0.006,-0.0477 -0.0162,-0.0262 -0.0487,-0.0477 -0.0718,-0.0477 -0.0229,0 -0.0419,-0.0107 -0.0419,-0.0239 0,-0.0138 -0.0755,-0.0238 -0.17879,-0.0238 -0.16287,0 -0.17878,-0.004 -0.17878,-0.0477 0,-0.0326 0.0159,-0.0477 0.0502,-0.0477 0.0279,0 0.0817,-0.0265 0.12033,-0.059 0.0866,-0.0729 0.27774,-0.1317 0.42792,-0.1317 0.13437,0 0.24715,0.0794 0.27174,0.19134 0.009,0.039 0.0254,0.0709 0.0377,0.0709 0.0123,0 0.0219,0.0161 0.0219,0.0358 0,0.0269 -0.0289,0.0357 -0.11641,0.0357 -0.12422,0 -0.15681,0.0362 -0.12891,0.14303 0.012,0.0448 0.0325,0.0477 0.34417,0.0477 0.2703,0 0.33422,-0.006 0.34519,-0.0351 0.007,-0.0193 -0.004,-0.0523 -0.0247,-0.0732 -0.0549,-0.0549 -0.0753,-0.15474 -0.0365,-0.17874 0.0265,-0.0164 0.0261,-0.0303 -0.004,-0.0827 -0.0307,-0.0569 -0.0286,-0.0729 0.0222,-0.16841 l 0.056,-0.10549 h 0.22288 c 0.25181,0 0.30826,0.0268 0.33285,0.15795 0.009,0.0471 0.0318,0.0806 0.0597,0.0879 0.0589,0.0154 0.0594,0.0879 0,0.0879 -0.03,0 -0.0491,0.0217 -0.0575,0.0656 -0.0162,0.0848 -0.01,0.0893 0.0635,0.0416 0.0821,-0.0538 0.11035,-0.0289 0.11035,0.0969 0,0.0782 0.01,0.10586 0.0357,0.10586 0.0247,0 0.0357,-0.0245 0.0361,-0.0775 0,-0.0426 0.0162,-0.10787 0.0353,-0.14501 0.0194,-0.0372 0.0471,-0.11223 0.0618,-0.16686 0.0353,-0.13168 0.061,-0.15899 0.14997,-0.15856 0.0986,3.5e-4 0.11098,0.0119 0.1875,0.17246 0.0475,0.0998 0.0783,0.13706 0.11324,0.13706 0.0261,0 0.0483,-0.003 0.0486,-0.006 0,-0.003 0.0201,-0.065 0.044,-0.13707 l 0.0434,-0.1311 0.10904,-0.007 0.10898,-0.007 0.0648,0.14425 c 0.0849,0.18913 0.12834,0.18942 0.18365,0.001 l 0.042,-0.14299 h 0.10661 c 0.10343,0 0.10823,0.004 0.16492,0.11529 0.0535,0.10545 0.0646,0.11439 0.13053,0.10471 0.0582,-0.009 0.0775,-0.0273 0.10001,-0.0974 0.0402,-0.12464 0.0644,-0.14642 0.1633,-0.14642 0.0772,0 0.0929,0.0103 0.12806,0.0839 0.0353,0.0741 0.0477,0.0821 0.10569,0.0682 0.087,-0.0208 0.10146,-0.0301 0.10146,-0.0656 0,-0.0164 0.0537,-0.0436 0.1192,-0.0604 0.12348,-0.0316 0.15667,-0.0825 0.0715,-0.10958 -0.0261,-0.008 -0.0588,-0.0359 -0.0724,-0.0612 -0.0134,-0.0253 -0.043,-0.0463 -0.0655,-0.0467 -0.0226,-3.5e-4 -0.0689,-0.0399 -0.10315,-0.0879 l -0.0623,-0.0873 0.0824,-0.11467 c 0.0582,-0.081 0.0988,-0.11468 0.13832,-0.11468 0.0311,0 0.0618,-0.01 0.069,-0.0211 0.007,-0.0116 0.0507,-0.0282 0.0967,-0.0368 0.048,-0.009 0.0837,-0.0298 0.0837,-0.0488 0,-0.0182 0.0215,-0.0399 0.0477,-0.0482 0.03,-0.01 0.0476,-0.0361 0.0476,-0.0716 0,-0.031 0.0106,-0.0847 0.024,-0.11923 0.013,-0.0345 0.0173,-0.0889 0.009,-0.12074 -0.012,-0.0471 -0.0296,-0.0579 -0.0954,-0.0579 -0.0445,0 -0.0808,-0.0107 -0.0808,-0.0239 0,-0.0142 -0.0914,-0.0238 -0.22645,-0.0238 -0.12457,0 -0.22645,-0.009 -0.22645,-0.0211 0,-0.0116 -0.0293,-0.0411 -0.0656,-0.0655 -0.0603,-0.0408 -0.12375,-0.0444 -0.79265,-0.0452 -0.63708,-7e-4 -0.74472,-0.006 -0.87006,-0.0447 -0.0787,-0.0242 -0.15487,-0.0534 -0.16933,-0.0649 -0.0145,-0.0115 -0.48112,-0.0317 -1.03696,-0.0448 -0.5558,-0.0131 -1.75609,-0.0447 -2.66731,-0.0703 -2.959,-0.083 -2.97053,-0.0832 -2.98726,-0.0396 -0.0102,0.0274 -0.0422,0.0372 -0.11169,0.0344 -0.0533,-0.002 -0.10943,0.009 -0.1247,0.024 -0.0162,0.0161 -0.10129,0.0278 -0.2026,0.0278 -0.17466,0 -0.18511,0.003 -0.66051,0.18234 -0.0517,0.0195 -0.12308,0.0562 -0.15861,0.0815 -0.0701,0.0499 -0.15293,0.0603 -0.17649,0.0222 -0.009,-0.0145 -0.18637,-0.0239 -0.45258,-0.0239 h -0.4379 l -0.0468,-0.0596 c -0.0258,-0.0328 -0.0641,-0.0596 -0.0852,-0.0596 -0.0342,0 -0.0381,-0.0597 -0.0381,-0.53634 0,-0.40433 0.007,-0.53635 0.0289,-0.53635 0.0159,0 0.0511,-0.0278 0.0781,-0.0617 l 0.0492,-0.0617 0.41881,0.003 c 0.35052,0.002 0.42376,-0.003 0.44923,-0.0336 0.0388,-0.0468 0.12915,-0.0473 0.16764,-0.001 0.0162,0.0197 0.0485,0.0358 0.0715,0.0358 0.0229,0 0.20539,0.059 0.40527,0.13111 0.25559,0.0922 0.39839,0.1311 0.48123,0.1311 0.0648,0 0.13857,0.0111 0.16393,0.0247 0.0318,0.017 0.0461,0.017 0.0461,0 0,-0.0387 0.11906,-0.0289 0.13441,0.0111 0.0123,0.0316 0.40809,0.0357 3.36634,0.0355 l 3.35252,-2e-4 0.10016,-0.0796 0.10011,-0.0796 0.76881,-0.0173 0.76885,-0.0173 0.0879,-0.0697 c 0.0796,-0.063 0.1052,-0.0697 0.26642,-0.0697 0.12947,0 0.18652,-0.01 0.20807,-0.0358 0.0254,-0.0304 0.14845,-0.0359 0.83129,-0.0365 0.59845,-7.1e-4 0.81138,-0.008 0.84024,-0.0302 0.0215,-0.0162 0.0467,-0.0775 0.0565,-0.13631 0.0339,-0.2027 0.0556,-0.2231 0.35102,-0.3273 0.53004,-0.18695 0.542,-0.18734 0.61393,-0.0195 l 0.0447,0.10422 0.15935,-0.0578 c 0.24197,-0.0878 0.23675,-0.0824 0.28462,-0.29203 0.0236,-0.10475 0.0514,-0.20324 0.061,-0.21888 0.01,-0.0156 0.0686,-0.0306 0.13095,-0.0332 0.10675,-0.005 0.11536,-0.01 0.14835,-0.0924 0.0194,-0.0482 0.0499,-0.0877 0.0682,-0.0877 0.0282,0 0.0332,-0.22708 0.0332,-1.4541 0,-0.9535 0.008,-1.45409 0.024,-1.45409 0.0155,0 0.0236,0.49303 0.0236,1.43144 0,1.23883 0.005,1.44094 0.0365,1.50203 0.0279,0.0536 0.0492,0.068 0.0894,0.0598 0.0289,-0.006 0.12263,-0.0174 0.20786,-0.0255 0.0852,-0.008 0.2461,-0.0296 0.35754,-0.0476 0.1114,-0.0181 0.24821,-0.0398 0.30392,-0.0483 0.095,-0.0145 0.10128,-0.0202 0.10128,-0.092 0,-0.15786 0.12135,-0.18063 0.21791,-0.0409 0.0626,0.0905 0.0636,0.091 0.17879,0.072 0.0637,-0.0105 0.12922,-0.0197 0.14562,-0.0205 0.018,-0.001 0.0296,-0.0348 0.0296,-0.0848 0,-0.0797 0.004,-0.0834 0.0845,-0.0834 0.0583,0 0.10294,0.0185 0.14411,0.0596 0.0669,0.0669 0.1191,0.0711 0.33154,0.0265 0.14171,-0.0297 0.14309,-0.0309 0.15053,-0.11898 0.008,-0.0923 0.0543,-0.13286 0.10605,-0.0924 0.0162,0.0127 0.0938,0.025 0.17251,0.0273 0.0786,0.002 0.17519,0.014 0.21452,0.0259 0.0393,0.0119 0.44697,0.0762 0.90586,0.14295 0.45886,0.0668 0.86918,0.13698 0.91176,0.15601 l 0.0775,0.0346 v -0.25586 c 0,-0.15087 -0.009,-0.24269 -0.0205,-0.22373 -0.0117,0.0177 -0.0405,0.0282 -0.0652,0.0235 -0.0393,-0.007 -0.0448,-0.0314 -0.0448,-0.18708 v -0.17845 l 0.10728,-0.006 c 0.15399,-0.009 0.26218,0.0609 0.26218,0.17009 0,0.0445 -0.0162,0.0942 -0.0357,0.11053 -0.0286,0.0236 -0.0357,0.0929 -0.0357,0.33664 0,0.16884 0.01,0.30698 0.0215,0.30698 0.012,0 0.0275,0.0241 0.0349,0.0536 0.007,0.0295 0.0357,0.0673 0.0628,0.084 0.0398,0.0246 1.42173,0.23632 2.2172,0.33971 0.0983,0.0128 0.47375,0.0665 0.83429,0.11926 0.36054,0.0528 0.76817,0.11124 0.90586,0.12985 0.22257,0.0301 0.48987,0.0684 1.10275,0.15819 l 0.18496,0.0271 0.0511,0.17583 0.0511,0.17583 h 0.36583 0.36583 v -0.0667 c 0,-0.0367 0.0116,-0.0784 0.0258,-0.0926 0.0342,-0.0343 0.11,-0.0128 0.12919,0.0365 0.0335,0.0866 0.0401,0.35638 0.012,0.49228 -0.0166,0.0787 -0.0314,0.22539 -0.0328,0.32605 -0.004,0.2616 -0.0397,0.29917 -0.46772,0.49671 -0.0254,0.0117 -0.0577,0.14387 -0.11144,0.45502 -0.10036,0.58145 -0.10185,0.5458 0.0226,0.5458 0.056,0 0.19145,0.0112 0.30081,0.0249 0.10943,0.0137 0.20528,0.0186 0.21305,0.0108 0.007,-0.008 0,-0.037 -0.0173,-0.0649 -0.0265,-0.0427 -0.0261,-0.0549 0.004,-0.0764 0.0187,-0.0141 0.0411,-0.0444 0.0498,-0.0673 0.0268,-0.0716 0.10657,-0.0495 0.14975,0.0415 0.0219,0.0458 0.0332,0.0994 0.0257,0.11919 -0.007,0.0198 -0.006,0.036 0.004,0.0361 0.0346,3.6e-4 0.3283,0.0497 0.36876,0.0619 0.0229,0.007 0.0417,0.0266 0.0417,0.0437 0,0.0191 0.0412,0.0357 0.10728,0.0431 0.15152,0.0171 0.18637,0.0529 0.17237,0.17726 -0.01,0.0843 -0.004,0.10401 0.0335,0.11577 0.0522,0.0166 0.06,0.13369 0.0187,0.28244 -0.0183,0.0657 -0.0183,0.0973 0,0.10842 0.0357,0.022 -0.0796,0.6591 -0.12799,0.70747 -0.0546,0.0546 -0.0464,0.0703 0.0733,0.14046 l 0.10978,0.0643 0.13413,-0.0494 c 0.16475,-0.0607 0.19484,-0.0404 0.13547,0.0911 l -0.0432,0.0959 0.061,0.048 c 0.0499,0.0392 0.0578,0.06 0.0435,0.11347 l -0.0173,0.0655 -0.3422,0.007 c -0.30931,0.006 -0.34537,0.0112 -0.3751,0.0536 -0.0465,0.0663 -0.22903,0.0659 -0.28607,-7e-4 -0.0226,-0.0262 -0.062,-0.0477 -0.088,-0.0477 -0.0365,0 -0.0408,0.006 -0.0187,0.0286 0.0159,0.0157 0.0286,0.0836 0.0286,0.15079 0,0.13126 0.0339,0.17924 0.176,0.25055 0.0377,0.0189 0.0842,0.0581 0.10312,0.0869 0.03,0.0462 0.0293,0.0627 -0.007,0.13955 -0.0385,0.0815 -0.0389,0.0915 -0.004,0.1541 0.0219,0.0368 0.0396,0.0817 0.0396,0.0997 0,0.018 0.0215,0.0511 0.0477,0.0736 0.0675,0.0578 0.0592,0.13903 -0.0236,0.23199 -0.0834,0.0934 -0.099,0.21454 -0.0279,0.21454 0.03,0 0.0539,0.0305 0.0763,0.0984 0.0357,0.10865 0.0254,0.1252 -0.1378,0.21428 -0.0727,0.0398 -0.10153,0.11626 -0.10153,0.26957 0,0.099 -0.0373,0.1329 -0.14658,0.1329 -0.0733,0 -0.0997,0.014 -0.14643,0.0775 -0.0314,0.0426 -0.0671,0.11479 -0.0795,0.16041 -0.0131,0.0488 -0.0473,0.0969 -0.083,0.11699 -0.0552,0.031 -0.0673,0.0292 -0.13441,-0.0205 -0.10378,-0.0767 -0.18602,-0.0534 -0.20704,0.0589 -0.01,0.0516 -0.0389,0.0989 -0.0755,0.12297 -0.0564,0.037 -0.0635,0.0363 -0.12901,-0.0121 -0.11574,-0.0856 -0.19441,-0.0644 -0.26342,0.0709 -0.0514,0.10083 -0.13084,0.12358 -0.19773,0.0567 -0.0434,-0.0434 -0.17036,-0.0471 -0.20648,-0.006 -0.0141,0.0164 -0.0469,0.0647 -0.0721,0.10727 -0.0532,0.0898 -0.0883,0.0958 -0.17226,0.0298 -0.0778,-0.0611 -0.14711,-0.0604 -0.23555,0.003 -0.0389,0.0277 -0.074,0.0464 -0.0781,0.0417 -0.0469,-0.0535 -0.0773,-0.17697 -0.0754,-0.30653 l 0.004,-0.15494 0.0915,-0.0447 0.0916,-0.0447 0.12435,0.12281 c 0.0684,0.0675 0.13113,0.11601 0.13942,0.10772 0.008,-0.008 0.009,-0.0692 0,-0.13527 -0.0116,-0.0965 -0.006,-0.126 0.0261,-0.14966 0.0361,-0.0262 0.0289,-0.036 -0.0618,-0.0894 -0.1523,-0.0894 -0.31719,-0.24304 -0.40323,-0.37585 -0.042,-0.0649 -0.088,-0.11789 -0.1022,-0.1178 -0.0145,9e-5 -0.14376,0.0323 -0.28801,0.0717 -0.14421,0.0394 -0.30638,0.0832 -0.36039,0.0974 l -0.0982,0.0258 0.0445,0.11722 c 0.0454,0.11945 0.0593,0.46431 0.0236,0.59103 -0.013,0.0474 0.004,0.0766 0.10319,0.17085 0.0655,0.0625 0.12746,0.10859 0.13754,0.10235 0.01,-0.006 0.0183,-0.0595 0.0183,-0.11839 0,-0.10288 0.004,-0.10879 0.10128,-0.15254 l 0.10128,-0.0455 0.11924,0.11538 c 0.0655,0.0635 0.13127,0.11083 0.14602,0.10527 0.0282,-0.0106 0.12809,0.1393 0.12809,0.19218 0,0.0389 -0.0769,0.1096 -0.11917,0.1096 -0.0176,0 -0.0504,-0.0166 -0.0729,-0.037 -0.0226,-0.0204 -0.0616,-0.0386 -0.0868,-0.0405 -0.0749,-0.006 -0.18542,0.0511 -0.21037,0.10799 -0.0289,0.0659 -0.11274,0.08 -0.18312,0.0307 -0.10259,-0.0719 -0.16482,-0.0474 -0.28335,0.11162 -0.0542,0.0726 -0.10587,0.0828 -0.16274,0.032 -0.0388,-0.0346 -0.0793,-0.0456 -0.14933,-0.0407 -0.0275,0.002 -0.0426,0.0279 -0.0477,0.0803 -0.007,0.0772 -0.008,0.0775 -0.15183,0.0845 -0.12055,0.006 -0.15166,-10e-4 -0.18842,-0.0417 -0.0599,-0.0662 -0.19329,-0.0668 -0.2105,-0.001 -0.0102,0.0403 -0.0321,0.0476 -0.13984,0.0472 -0.0895,-3.6e-4 -0.14503,-0.0144 -0.18694,-0.0472 -0.0798,-0.0625 -0.18129,-0.0625 -0.19759,0 -0.0106,0.0409 -0.0325,0.0477 -0.15406,0.0477 -0.10742,0 -0.15494,-0.0115 -0.1966,-0.0477 -0.0303,-0.0262 -0.0795,-0.0477 -0.10929,-0.0477 -0.0335,0 -0.0602,0.0184 -0.0695,0.0477 -0.013,0.041 -0.0361,0.0477 -0.16475,0.0477 -0.11938,0 -0.1584,-0.01 -0.19283,-0.0477 -0.0236,-0.0262 -0.0617,-0.0477 -0.0843,-0.0477 -0.0226,0 -0.0469,0.0214 -0.0537,0.0477 -0.0106,0.0409 -0.0325,0.0477 -0.15406,0.0477 -0.10742,0 -0.15491,-0.0115 -0.19657,-0.0477 -0.03,-0.0262 -0.0811,-0.0477 -0.11317,-0.0477 -0.0381,0 -0.0624,0.0164 -0.0706,0.0477 -0.0106,0.0412 -0.0325,0.0477 -0.16097,0.0477 -0.11433,0 -0.16122,-0.011 -0.20352,-0.0477 -0.03,-0.0262 -0.0736,-0.0477 -0.0962,-0.0477 -0.0226,0 -0.0468,0.0214 -0.0537,0.0477 -0.0106,0.0409 -0.0325,0.0477 -0.15406,0.0477 -0.10742,0 -0.15486,-0.0115 -0.1966,-0.0477 -0.0303,-0.0262 -0.0842,-0.0477 -0.12005,-0.0477 -0.0451,0 -0.0689,0.0147 -0.0775,0.0477 -0.0106,0.0409 -0.0325,0.0477 -0.15406,0.0477 -0.10742,0 -0.15494,-0.0115 -0.1966,-0.0477 -0.03,-0.0262 -0.0735,-0.0477 -0.0962,-0.0477 -0.0226,0 -0.0469,0.0214 -0.0537,0.0477 -0.0106,0.0414 -0.0325,0.0477 -0.16432,0.0477 -0.12242,0 -0.15985,-0.009 -0.19273,-0.0477 -0.0233,-0.0273 -0.0703,-0.0477 -0.10978,-0.0477 -0.0489,0 -0.0726,0.0138 -0.0815,0.0477 -0.0106,0.0409 -0.0325,0.0477 -0.15406,0.0477 -0.10742,0 -0.15487,-0.0115 -0.1966,-0.0477 -0.03,-0.0262 -0.0789,-0.0477 -0.10813,-0.0477 -0.0332,0 -0.0579,0.018 -0.0656,0.0477 -0.0106,0.0414 -0.0325,0.0477 -0.16436,0.0477 -0.12238,0 -0.15977,-0.009 -0.19269,-0.0477 -0.0233,-0.0273 -0.0703,-0.0477 -0.10978,-0.0477 -0.0489,0 -0.0726,0.0138 -0.0814,0.0477 -0.0106,0.0409 -0.0325,0.0477 -0.1541,0.0477 -0.10738,0 -0.15487,-0.0115 -0.1966,-0.0477 -0.0697,-0.0605 -0.11024,-0.0605 -0.12605,0 -0.0106,0.0409 -0.0324,0.0477 -0.15409,0.0477 -0.10739,0 -0.15491,-0.0115 -0.1966,-0.0477 -0.0705,-0.0611 -0.15794,-0.0611 -0.19072,0 -0.0212,0.0389 -0.0499,0.0477 -0.15797,0.0477 -0.0963,0 -0.14894,-0.013 -0.19304,-0.0477 -0.0332,-0.0262 -0.0816,-0.0477 -0.10728,-0.0477 -0.0257,0 -0.0739,0.0214 -0.10728,0.0477 -0.0825,0.0649 -0.28155,0.0661 -0.35059,0.002 -0.0798,-0.0739 -0.19198,-0.075 -0.21107,-0.002 -0.0102,0.0403 -0.0325,0.0477 -0.14132,0.0477 -0.0959,0 -0.14192,-0.0122 -0.18006,-0.0477 -0.0282,-0.0262 -0.0838,-0.0477 -0.12365,-0.0477 -0.0566,0 -0.0725,0.0104 -0.0725,0.0477 0,0.0427 -0.0159,0.0477 -0.15131,0.0477 -0.11708,0 -0.16372,-0.0108 -0.20627,-0.0477 -0.03,-0.0262 -0.0811,-0.0477 -0.11313,-0.0477 -0.0381,0 -0.0625,0.0164 -0.0706,0.0477 -0.0106,0.0412 -0.0324,0.0477 -0.16094,0.0477 -0.11825,0 -0.1573,-0.01 -0.19166,-0.0477 -0.0236,-0.0262 -0.0617,-0.0477 -0.0844,-0.0477 -0.0226,0 -0.0468,0.0214 -0.0537,0.0477 -0.0106,0.0409 -0.0324,0.0477 -0.15406,0.0477 -0.10742,0 -0.15486,-0.0115 -0.19656,-0.0477 -0.03,-0.0262 -0.0795,-0.0477 -0.10933,-0.0477 -0.0335,0 -0.0602,0.0184 -0.0695,0.0477 -0.013,0.0407 -0.0361,0.0477 -0.15871,0.0477 -0.10756,0 -0.15889,-0.012 -0.20426,-0.0477 -0.0332,-0.0262 -0.0793,-0.0477 -0.10227,-0.0477 -0.0229,0 -0.0473,0.0214 -0.0541,0.0477 -0.0106,0.0409 -0.0325,0.0477 -0.15406,0.0477 -0.10742,0 -0.1549,-0.0115 -0.1966,-0.0477 -0.03,-0.0262 -0.0811,-0.0477 -0.11314,-0.0477 -0.0381,0 -0.0625,0.0164 -0.0706,0.0477 -0.0106,0.0412 -0.0325,0.0477 -0.16101,0.0477 -0.11434,0 -0.16119,-0.011 -0.20348,-0.0477 -0.03,-0.0262 -0.0735,-0.0477 -0.0962,-0.0477 -0.0226,0 -0.0469,0.0214 -0.0538,0.0477 -0.0106,0.0409 -0.0325,0.0477 -0.15406,0.0477 -0.10738,0 -0.1549,-0.0115 -0.1966,-0.0477 -0.03,-0.0262 -0.0842,-0.0477 -0.12005,-0.0477 -0.045,0 -0.0689,0.0147 -0.0775,0.0477 -0.0106,0.0409 -0.0325,0.0477 -0.15406,0.0477 -0.10739,0 -0.1549,-0.0115 -0.1966,-0.0477 -0.03,-0.0262 -0.0789,-0.0477 -0.10809,-0.0477 -0.0332,0 -0.0579,0.018 -0.0657,0.0477 -0.0106,0.0409 -0.0325,0.0477 -0.15405,0.0477 -0.10742,0 -0.15494,-0.0115 -0.19661,-0.0477 -0.03,-0.0262 -0.0843,-0.0477 -0.12005,-0.0477 -0.0451,0 -0.0689,0.0147 -0.0775,0.0477 -0.0106,0.0409 -0.0325,0.0477 -0.15413,0.0477 -0.10735,0 -0.15487,-0.0115 -0.19653,-0.0477 -0.0303,-0.0262 -0.0682,-0.0477 -0.0843,-0.0477 -0.0162,0 -0.0349,0.0214 -0.0418,0.0477 -0.0145,0.0547 -0.0771,0.064 -0.0962,0.0141 z m 3.6787,-0.23882 c 0,-0.0156 -0.0471,-0.0616 -0.10471,-0.1022 l -0.1047,-0.0738 0.0509,0.11249 c 0.0424,0.0938 0.0598,0.11079 0.10467,0.1022 0.0296,-0.006 0.0539,-0.0231 0.0539,-0.0387 z m 2.66986,0.0243 c 0,-0.0228 -0.0166,-0.0291 -0.0524,-0.0198 -0.05,0.013 -0.0503,0.0145 -0.006,0.0318 0.0254,0.01 0.0491,0.0189 0.0523,0.0198 0.004,0.001 0.006,-0.0134 0.006,-0.0319 z m 0.56236,-0.0587 c 0.0314,-0.1449 0.0622,-0.19383 0.12188,-0.19383 0.0321,0 0.0545,-0.008 0.0495,-0.0179 -0.17169,-0.33552 -0.20143,-0.58467 -0.10107,-0.84629 0.0131,-0.0341 0.004,-0.0417 -0.0575,-0.0417 -0.0705,0 -0.0728,0.003 -0.0562,0.0775 0.01,0.0426 0.0166,0.15801 0.0159,0.25645 -0.004,0.14229 -0.0152,0.20826 -0.0669,0.32174 -0.0361,0.0785 -0.0862,0.16492 -0.11159,0.192 -0.0459,0.0488 -0.0457,0.0504 0.0169,0.19269 0.0554,0.12529 0.0705,0.14209 0.11938,0.13274 0.0369,-0.007 0.0607,-0.0321 0.0696,-0.0734 z m 4.1813,0.0577 c 0,-0.003 -0.042,-0.0389 -0.0932,-0.08 l -0.0932,-0.0749 0.0357,0.091 c 0.03,0.0768 0.0447,0.0893 0.0932,0.08 0.0317,-0.006 0.0574,-0.0133 0.0574,-0.0162 z m -10.04581,-0.0548 c 0.008,-0.0361 0.0198,-0.0843 0.0258,-0.10727 0.0152,-0.0567 -0.005,-0.0526 -0.1003,0.0203 -0.0675,0.0514 -0.0772,0.0698 -0.0572,0.10728 0.0369,0.0693 0.11423,0.0573 0.13152,-0.0204 z m 0.27238,0.0572 c 0,-0.005 -0.0116,-0.0421 -0.0261,-0.0834 -0.0307,-0.0876 -0.0813,-0.0983 -0.10185,-0.0215 -0.0257,0.096 -0.0169,0.11323 0.0565,0.11323 0.0393,0 0.0715,-0.004 0.0715,-0.008 z m 0.27704,-0.084 c 0.0332,-0.1251 0,-0.16984 -0.13067,-0.16984 -0.0543,0 -0.0987,0.01 -0.0987,0.0218 0,0.012 0.0208,0.071 0.0468,0.13111 0.0365,0.0851 0.0591,0.10924 0.10234,0.10924 0.0444,0 0.0605,-0.0186 0.0802,-0.0924 z m 0.22691,0.0439 c -0.0708,-0.059 -0.09,-0.0589 -0.10559,7e-4 -0.0106,0.0413 0,0.0476 0.0747,0.0469 l 0.0872,-7e-4 z m 0.80066,0.0341 c -0.008,-0.008 -0.0286,-0.009 -0.0457,-0.002 -0.019,0.008 -0.0134,0.0132 0.0145,0.0144 0.0251,0.001 0.0393,-0.005 0.0314,-0.0125 z m 0.29252,0.001 c 0,-0.0375 -0.0764,-0.15354 -0.094,-0.14266 -0.0109,0.007 -0.0318,0.0448 -0.0454,0.0842 -0.0247,0.0705 -0.0236,0.0716 0.0572,0.0716 0.0452,0 0.0822,-0.006 0.0822,-0.0131 z m 0.22846,-0.0524 c 0.0393,-0.17294 0.0613,-0.19666 0.1838,-0.19666 h 0.11458 l -0.0588,-0.0775 c -0.0796,-0.10495 -0.15819,-0.34839 -0.15819,-0.49009 0,-0.0639 0.0152,-0.16613 0.0332,-0.22721 l 0.0332,-0.11106 h -0.10746 c -0.0935,0 -0.10509,0.005 -0.0891,0.0417 0.0342,0.0772 0.0403,0.41181 0.01,0.52619 -0.0162,0.0613 -0.0614,0.16211 -0.1,0.22402 l -0.0703,0.11256 0.0603,0.13178 c 0.0662,0.14464 0.1247,0.17076 0.14837,0.0662 z m 0.27213,0.0572 c 0,-0.0372 -0.0569,-0.1585 -0.0744,-0.1585 -0.0215,0 -0.0686,0.0994 -0.0686,0.14458 0,0.0122 0.0321,0.0223 0.0716,0.0223 0.0393,0 0.0715,-0.004 0.0715,-0.008 z m 1.3007,-0.0572 c 0.008,-0.036 0.0183,-0.0785 0.0229,-0.0943 0.005,-0.0158 -0.0321,2e-4 -0.0823,0.0357 -0.0979,0.0694 -0.10315,0.1241 -0.012,0.1241 0.0423,0 0.0602,-0.0165 0.0709,-0.0656 z m 0.27255,0.0428 c 0,-0.0125 -0.0123,-0.05 -0.0279,-0.0834 -0.0286,-0.0626 -0.0913,-0.0837 -0.0918,-0.0309 0,0.0164 -0.007,0.0539 -0.0148,0.0834 -0.0127,0.0472 -0.006,0.0536 0.0599,0.0536 0.0409,0 0.0743,-0.0102 0.0743,-0.0227 z m 0.25259,-0.048 c 0.007,-0.0332 0.0226,-0.079 0.0349,-0.10181 0.0381,-0.0706 0.0265,-0.078 -0.10873,-0.0696 -0.0721,0.004 -0.13113,0.0112 -0.13113,0.0149 0,0.004 0.0219,0.0556 0.0481,0.11546 0.0555,0.12546 0.13497,0.14631 0.15678,0.0411 z m 0.26074,7.1e-4 c -0.0513,-0.0991 -0.0807,-0.1092 -0.10809,-0.0372 -0.0365,0.096 -0.03,0.10715 0.0602,0.10715 h 0.0841 z m 0.2316,0.0542 c -0.0162,-0.007 -0.0432,-0.007 -0.0596,0 -0.0166,0.007 -0.004,0.012 0.0296,0.012 0.0328,0 0.0462,-0.005 0.0296,-0.012 z m 0.89986,-0.007 c 0,-0.0403 -0.0546,-0.14415 -0.0759,-0.14415 -0.0201,0 -0.0671,0.10093 -0.0671,0.14458 0,0.0122 0.0321,0.0223 0.0715,0.0223 0.0393,0 0.0715,-0.0102 0.0715,-0.0227 z m 0.53623,-0.019 c -0.01,-0.0229 -0.0226,-0.0605 -0.0289,-0.0834 -0.0198,-0.0686 -0.0682,-0.0474 -0.0956,0.0417 l -0.0254,0.0834 h 0.0838 c 0.0704,0 0.081,-0.007 0.0665,-0.0417 z m 0.20277,0.0204 c 0,-0.0117 -0.0162,-0.0275 -0.0357,-0.035 -0.0365,-0.0139 -0.0488,0.0115 -0.0198,0.0404 0.0226,0.0228 0.0556,0.0196 0.0556,-0.005 z m 1.08613,-0.0443 c 0.008,-0.036 0.0187,-0.079 0.0233,-0.0953 0.0138,-0.045 -0.018,-0.0348 -0.0906,0.0294 -0.0829,0.073 -0.0858,0.1315 -0.006,0.1315 0.0451,0 0.0625,-0.0155 0.0735,-0.0656 z m 0.26053,0.0239 c -0.01,-0.023 -0.0226,-0.0605 -0.0289,-0.0834 -0.0198,-0.0686 -0.0682,-0.0474 -0.0956,0.0417 l -0.0257,0.0834 h 0.0837 c 0.0704,0 0.081,-0.007 0.0666,-0.0417 z m 0.29132,-0.059 c 0.0148,-0.0554 0.0219,-0.10901 0.0155,-0.11919 -0.006,-0.0102 -0.0652,-0.0185 -0.13085,-0.0185 -0.11282,0 -0.11846,0.003 -0.10283,0.0536 0.0377,0.1226 0.084,0.18475 0.1373,0.18475 0.0434,0 0.0593,-0.0198 0.081,-0.10069 z m 0.22465,0.0522 c -0.0708,-0.059 -0.09,-0.0589 -0.10555,7.1e-4 -0.0106,0.0413 0,0.0476 0.0746,0.0469 l 0.0872,-7.1e-4 z m 1.06582,-0.023 c -0.0138,-0.0394 -0.0332,-0.0715 -0.0435,-0.0715 -0.0233,0 -0.0601,0.0469 -0.0796,0.10131 -0.0123,0.0345 0,0.0417 0.0665,0.0417 0.0802,0 0.0811,-0.001 0.0565,-0.0715 z m 0.2559,0.006 c 0.0369,-0.16354 0.064,-0.19666 0.16073,-0.19666 0.0503,0 0.0874,-0.008 0.0823,-0.0179 -0.1731,-0.33832 -0.20245,-0.58192 -0.10177,-0.84438 0.01,-0.0254 -0.009,-0.0347 -0.0718,-0.0365 l -0.0848,-0.002 0.0187,0.087 c 0.0102,0.0479 0.018,0.16759 0.0169,0.26604 -0.004,0.14228 -0.0152,0.20825 -0.067,0.32173 -0.0361,0.0785 -0.087,0.16576 -0.11338,0.19387 l -0.048,0.0511 0.0617,0.12178 c 0.0683,0.13489 0.12372,0.15617 0.14634,0.0562 z m 0.2721,0.0572 c 0,-0.005 -0.0116,-0.0421 -0.0261,-0.0834 -0.0254,-0.0728 -0.0927,-0.10546 -0.0934,-0.0453 0,0.0164 -0.007,0.0539 -0.0148,0.0834 -0.0127,0.0472 -0.006,0.0536 0.0599,0.0536 0.0409,0 0.0743,-0.004 0.0743,-0.008 z m 1.29656,-0.0293 c 0.0353,-0.0915 0.0166,-0.11013 -0.057,-0.0576 -0.0393,0.028 -0.0715,0.0609 -0.0715,0.0731 0,0.038 0.11327,0.0243 0.12851,-0.0154 z m 0.27672,0.0293 c 0,-0.005 -0.012,-0.0421 -0.0261,-0.0834 -0.0307,-0.0876 -0.0812,-0.0983 -0.10185,-0.0214 -0.0258,0.0959 -0.0169,0.11322 0.0565,0.11322 0.0393,0 0.0715,-0.004 0.0715,-0.008 z m 0.25256,-0.0623 c 0.007,-0.0332 0.0226,-0.079 0.0349,-0.10181 0.0507,-0.0937 0.0293,-0.11355 -0.12065,-0.11355 -0.0786,0 -0.14298,0.004 -0.14298,0.009 0,0.005 0.0265,0.0686 0.0587,0.14161 0.0456,0.10314 0.0696,0.13183 0.10809,0.12894 0.0321,-0.002 0.0538,-0.0248 0.0619,-0.0641 z m 0.27185,0.0366 c 0,-0.0591 -0.11847,-0.14944 -0.11949,-0.0911 0,0.01 -0.007,0.042 -0.0148,0.0715 -0.0127,0.0472 -0.006,0.0536 0.0599,0.0536 0.0485,0 0.0743,-0.0118 0.0743,-0.0341 z m 1.14423,-0.16998 c 0,-0.0204 -0.0106,-0.0306 -0.024,-0.0224 -0.013,0.008 -0.0236,0.0248 -0.0236,0.0372 0,0.0123 0.0106,0.0224 0.0236,0.0224 0.0131,0 0.024,-0.0167 0.024,-0.0372 z m -14.4568,-0.15245 c -0.0902,-0.14281 -0.1138,-0.25841 -0.1028,-0.50325 0.006,-0.1237 0.0187,-0.24369 0.0289,-0.26663 0.0173,-0.0383 -0.004,-0.0417 -0.23632,-0.0417 -0.2207,0 -0.26459,0.007 -0.32516,0.0499 -0.0654,0.0466 -0.074,0.0474 -0.12813,0.0118 -0.0533,-0.0349 -0.0662,-0.0348 -0.15635,10e-4 -0.0887,0.0355 -0.0973,0.0461 -0.088,0.1094 0.008,0.0555 0,0.0742 -0.042,0.09 -0.0495,0.0188 -0.082,0.11469 -0.0828,0.24419 0,0.0602 0.0876,0.0526 0.12132,-0.0104 0.0624,-0.11674 0.10844,-0.14544 0.20426,-0.12746 0.15176,0.0285 0.16824,0.0467 0.18958,0.20895 0.0106,0.0822 0.0183,0.16284 0.0169,0.17922 -0.005,0.0532 0.0523,0.0315 0.094,-0.0358 0.0222,-0.0361 0.062,-0.0906 0.0881,-0.12126 0.0469,-0.055 0.0489,-0.0552 0.16415,-0.017 l 0.11666,0.0387 0.0162,0.16446 c 0.0145,0.14466 0.0226,0.16549 0.0686,0.17314 0.094,0.0156 0.11652,-0.0471 0.053,-0.14762 z m 14.65827,0.13808 c 0.0747,-0.034 0.0752,-0.0457 0.005,-0.11142 -0.066,-0.062 -0.0876,-0.0473 -0.0876,0.0596 0,0.0898 0,0.0895 0.0823,0.0518 z m -14.90518,-0.16303 c -0.0106,-0.11338 -0.0474,-0.12132 -0.11818,-0.0256 l -0.0515,0.0697 0.0649,0.0238 c 0.10608,0.0388 0.11448,0.0333 0.10481,-0.0678 z m 15.39879,0.0456 c 0.0481,-0.0257 0.048,-0.0262 -0.006,-0.0834 -0.0912,-0.0971 -0.13656,-0.0725 -0.10223,0.0557 0.0159,0.06 0.0373,0.0655 0.10795,0.0278 z m -15.90347,-0.23379 c 0,-0.12045 -0.0494,-0.13959 -0.11853,-0.046 -0.0631,0.0853 -0.0418,0.11398 0.10064,0.13601 0.01,0.002 0.018,-0.039 0.018,-0.09 z m 16.39034,0.0297 0.0598,-0.0392 -0.0644,-0.0672 c -0.0353,-0.037 -0.0734,-0.0616 -0.0845,-0.0547 -0.0342,0.0211 -0.0169,0.20036 0.0191,0.20036 0.006,0 0.0373,-0.0176 0.0701,-0.0392 z m 0.46612,-0.13503 c 0.0357,-0.0271 0.0342,-0.0357 -0.0176,-0.096 -0.0601,-0.0699 -0.1046,-0.0667 -0.1046,0.007 0,0.11164 0.0472,0.14576 0.12252,0.0885 z m -17.33356,-0.15209 c 0,-0.0779 -0.0339,-0.0845 -0.0956,-0.0186 -0.0592,0.063 -0.0592,0.0628 0.0123,0.10128 0.0547,0.0295 0.0827,0.002 0.0833,-0.0826 z m 17.56865,0.0429 c 0,-0.022 -0.0564,-0.0502 -0.10022,-0.0502 -0.0152,0 -0.0131,0.0141 0.005,0.0358 0.0324,0.039 0.0953,0.0486 0.0953,0.0145 z m 0.18426,-0.0169 c -0.008,-0.008 -0.0286,-0.009 -0.0457,-0.002 -0.019,0.008 -0.0134,0.0133 0.0141,0.0144 0.025,0.001 0.0393,-0.005 0.0314,-0.0125 z m -18.14587,-0.10479 c -0.008,-0.0131 -0.0275,-0.0237 -0.0431,-0.0235 -0.0169,1.9e-4 -0.0145,0.01 0.007,0.0235 0.0458,0.0296 0.0541,0.0296 0.0357,0 z m 0.19068,-0.0238 c 0.0361,-0.0401 0.0373,-0.0477 0.006,-0.0477 -0.0201,0 -0.0423,0.0215 -0.0491,0.0477 -0.007,0.0262 -0.01,0.0477 -0.006,0.0477 0.004,0 0.0254,-0.0214 0.0491,-0.0477 z m 17.83747,-0.18713 c 0.0396,-0.025 0.0349,-0.50523 -0.005,-0.51493 -0.0141,-0.004 -0.0675,-0.0197 -0.11818,-0.0361 l -0.0922,-0.0298 -0.17392,0.17277 c -0.0956,0.095 -0.16898,0.18566 -0.16295,0.20141 0.0233,0.0613 0.2952,0.18062 0.50937,0.22375 0.006,0.001 0.0258,-0.006 0.0427,-0.0171 z m 0.37101,-0.065 c 0.0635,-0.0338 0.13551,-0.0653 0.16016,-0.07 0.0556,-0.0107 0.21298,-0.13419 0.2122,-0.16653 0,-0.0321 -0.33249,-0.28723 -0.36618,-0.28163 -0.0148,0.002 -0.0695,0.0202 -0.12196,0.0395 l -0.0953,0.035 -0.007,0.25256 c -0.007,0.24935 -0.006,0.25256 0.0479,0.25256 0.03,0 0.10654,-0.0277 0.17,-0.0614 z m -0.93687,-0.35723 0.0821,-0.0849 -0.0715,0.0128 c -0.22201,0.0399 -0.22673,0.0432 -0.1632,0.11336 0.0526,0.0582 0.0576,0.0568 0.15254,-0.0413 z m -17.82085,-0.10424 c -0.0939,-0.15224 -0.11649,-0.16533 -0.19082,-0.11097 -0.0453,0.0332 -0.0453,0.0344 0.004,0.087 0.0543,0.0613 0.25344,0.19372 0.26854,0.17861 0.006,-0.006 -0.03,-0.0752 -0.0791,-0.15468 z m 19.29038,0.0163 c 0.0586,-0.10879 0.10171,-0.25452 0.10213,-0.34564 v -0.0775 h -0.23368 -0.23368 l -0.024,0.11878 -0.0243,0.11878 0.1662,0.13151 c 0.0914,0.0723 0.17508,0.13152 0.18591,0.13152 0.0106,0 0.0385,-0.0349 0.0614,-0.0775 z m -19.63501,-0.44672 c 0.0307,-0.0197 0.0261,-0.0414 -0.0328,-0.15459 -0.0377,-0.0724 -0.0769,-0.13169 -0.0871,-0.13169 -0.0215,0 -0.004,0.17547 0.0275,0.25625 0.0219,0.0589 0.0388,0.0644 0.0925,0.03 z m 19.70066,-0.25085 c -0.0286,-0.12305 -0.13821,-0.34533 -0.17032,-0.34533 -0.0441,0 -0.26123,0.23672 -0.2837,0.30929 -0.0487,0.15745 -0.0346,0.16747 0.24017,0.16747 h 0.24444 z m -17.21421,-2.28299 c 0.13226,-0.0343 0.1482,-0.0734 0.0342,-0.0837 -0.0593,-0.005 -0.0928,0.008 -0.13578,0.0536 -0.0648,0.069 -0.0571,0.0713 0.10167,0.0301 z m 0.15949,-0.24056 c 0,-0.0334 -0.0761,-0.1817 -0.0933,-0.1817 -0.0197,0 -0.0735,0.12477 -0.0735,0.17042 0,0.0112 0.0377,0.0203 0.0834,0.0203 0.0459,0 0.0834,-0.004 0.0834,-0.009 z m 0.51347,-0.0685 c -0.0325,-0.0778 -0.10795,-0.12035 -0.10852,-0.0614 0,0.0173 -0.007,0.0557 -0.0148,0.0852 -0.013,0.0483 -0.006,0.0536 0.0707,0.0536 h 0.085 z m 0.52331,0.0357 c -0.01,-0.023 -0.0226,-0.0605 -0.0293,-0.0834 -0.012,-0.0419 -0.0665,-0.0572 -0.0851,-0.0239 -0.006,0.01 -0.0169,0.0474 -0.0257,0.0834 -0.0148,0.0623 -0.0116,0.0656 0.0708,0.0656 0.073,0 0.0838,-0.006 0.0693,-0.0417 z m 0.5123,-0.0743 c -0.004,-0.082 -0.095,-0.0859 -0.095,-0.004 0,0.0323 0.0127,0.0407 0.0477,0.0316 0.0261,-0.007 0.0475,-0.0193 0.0473,-0.0276 z m 15.61398,-0.13274 c 0,-0.0319 0.0102,-0.0856 0.0233,-0.11918 0.0275,-0.0724 -0.009,-0.0844 -0.0462,-0.015 -0.0317,0.0589 -0.0321,0.19226 0,0.19226 0.0131,0 0.0236,-0.0261 0.0236,-0.058 z m -24.95105,-1.71094 c 0.0661,-0.024 0.0664,-0.025 0.0596,-0.21814 l -0.007,-0.19401 -0.16686,-0.0886 c -0.0918,-0.0488 -0.18027,-0.089 -0.19668,-0.0894 -0.0226,-7.1e-4 -0.0296,0.0886 -0.0296,0.36843 v 0.36918 l 0.13709,-0.0616 c 0.0754,-0.0339 0.167,-0.0725 0.20355,-0.0858 z m -0.83813,-0.0725 c 0.004,-0.095 0,-0.22229 -0.004,-0.28275 -0.004,-0.0815 0.005,-0.11367 0.0324,-0.1244 0.0208,-0.008 0.0377,-0.0255 0.0377,-0.0391 0,-0.0154 -0.098,-0.0246 -0.26218,-0.0246 h -0.26222 v 0.3218 0.32181 h 0.22644 0.22645 z"
       id="G-DickerMax"
       style="stroke-width:0.352778" />
  </g>
</svg>
