<?xml version="1.0" encoding="UTF-8" standalone="no"?>
<!-- Created with Inkscape (http://www.inkscape.org/) -->

<svg
   width="23.043919mm"
   height="8.84799mm"
   viewBox="0 0 23.043918 8.8479906"
   version="1.1"
   id="svg33402"
   sodipodi:docname="inkporter-svg-e7qp_36f.svg"
   inkscape:version="1.1.1 (3bf5ae0d25, 2021-09-20)"
   xmlns:inkscape="http://www.inkscape.org/namespaces/inkscape"
   xmlns:sodipodi="http://sodipodi.sourceforge.net/DTD/sodipodi-0.dtd"
   xmlns="http://www.w3.org/2000/svg"
   xmlns:svg="http://www.w3.org/2000/svg">
  <sodipodi:namedview
     id="namedview555"
     pagecolor="#ffffff"
     bordercolor="#666666"
     borderopacity="1.0"
     inkscape:pageshadow="2"
     inkscape:pageopacity="0.0"
     inkscape:pagecheckerboard="0"
     inkscape:document-units="mm"
     showgrid="false"
     inkscape:zoom="0.32"
     inkscape:cx="889.0625"
     inkscape:cy="4120.3125"
     inkscape:window-width="1920"
     inkscape:window-height="1017"
     inkscape:window-x="-8"
     inkscape:window-y="-8"
     inkscape:window-maximized="1"
     inkscape:current-layer="svg33402" />
  <defs
     id="defs13927" />
  <path
     d="M 23.02977,4.94665 C 22.95957,4.76638 22.70909,4.08976 22.70909,4.08976 l 0.005,-0.20567 c 0,0 0.0325,-0.0776 0.0402,-0.085 0.007,-0.008 0,-0.12559 0,-0.12559 L 22.89963,3.5984 22.40821,2.25537 22.54368,2.18517 22.35812,1.71386 22.2029,1.75406 22.1479,1.53852 c 0,0 -0.0152,-0.09 0,-0.085 0.0148,0.005 -0.17568,-0.44627 -0.17568,-0.44627 l 0.0903,-0.45614 H 21.787 c 0,0 0.0198,-0.115 0.0801,-0.13017 0.06,-0.0152 0.0903,0.0603 0.0903,0.0603 0,0 0.0201,-0.025 0.0148,-0.13053 -0.005,-0.10512 -0.09,-0.13017 -0.09,-0.13017 l -0.55139,0.0148 c 0,0 -0.0451,-0.09 -0.10019,-0.0953 -0.0554,-0.005 -0.42615,0.0452 -0.42615,0.0452 l -0.18556,-0.0801 -1.25272,0.055 -0.12523,0.0702 H 19.08044 L 18.77458,0.19544 V 0 l -1.11266,0.0649 v 0.25577 l -0.23036,0.10019 -0.0102,-0.12524 -0.26035,0.03 -0.26564,0.15028 h -0.1203 V 0.22049 h -0.0501 v 0.27058 l -0.11535,-0.0452 h -0.18063 l -0.085,0.0603 -0.27058,-0.10054 -0.30585,0.0254 v 0.17039 l -0.33585,0.005 v -0.0751 c 0,0 0.03,-0.0554 0.0501,-0.0554 0.0201,0 -0.17533,-0.19544 -0.17533,-0.19544 l -0.0349,0.0402 -0.14534,-0.01 0.13017,0.26564 -1.41852,0.11007 v 0.0801 l -0.56621,0.0501 -0.0152,0.0452 c 0,0 -0.17533,0.005 -0.22048,0.0102 -0.0452,0.005 -0.09,0.0702 -0.09,0.0702 l -0.0505,-0.0102 -0.115,0.0452 0.0349,0.14534 0.055,0.01 c 0,0 -0.0399,0.1905 -0.055,0.20073 -0.0148,0.01 -0.40605,0.32068 -0.40605,0.32068 h -0.4258 L 11.89325,1.5287 11.77295,1.5989 V 1.27823 c 0,-0.2406 -0.37571,-0.27094 -0.37571,-0.27094 V 1.649 c 0,0 -0.2106,0.0801 -0.29068,0.10019 -0.0804,0.0201 -0.0653,0.19543 -0.0653,0.19543 L 1.63903,2.11996 c 0,0 -0.0201,-0.01 -0.0353,-0.0349 -0.0148,-0.025 -0.10019,-0.0102 -0.18521,-0.0102 -0.0854,0 -0.30586,0 -0.45614,-0.0953 C 0.81174,1.88466 0.73166,1.86455 0.6918,1.88956 0.6516,1.91456 0.55633,1.96466 0.47625,1.96466 H 0.15523 C 0.08003,1.96466 0,2.05996 0,2.15022 V 2.53087 C 0,2.59617 0.06,2.7062 0.16052,2.7062 h 0.31044 c 0.0854,0 0.14535,0.0201 0.22084,0.0554 C 0.7669,2.7965 0.88724,2.7164 1.00224,2.63107 1.1176,2.54607 1.6189,2.53088 1.6189,2.53088 l 0.03,-0.03 9.38212,0.01 c 0,0 0.0152,0.20073 0.0653,0.21061 0.0501,0.0102 0.32596,0.0903 0.32596,0.0903 v 0.23566 h 0.09 V 2.9021 h 0.29598 l 0.0251,-0.0603 0.0349,0.0452 h 0.0751 l 0.0752,-0.12523 h 0.31079 l -0.0952,0.20038 h -0.06 l -0.0903,0.0702 0.03,0.0903 0.0501,0.0399 -0.0201,0.0501 0.14535,0.0804 -0.09,0.16016 h -0.16052 l 0.005,-0.15522 -0.62124,-0.0603 -0.12559,0.15063 0.12559,0.0349 v 0.10512 h -0.13546 l -0.0201,-0.0197 H 8.3751597 l -0.23566,-0.28081 c 0,0 -0.1905,-0.0152 -0.25576,-0.0201 -0.0649,-0.005 -0.0251,0.10548 -0.0251,0.10548 l 0.18556,0.0448 0.13053,0.24589 -0.0854,0.11007 h -1.67393 l -0.0201,0.0603 h -0.50624 l -0.1905,1.11266 H 3.93961 L 3.01745,5.6835 3.09255,5.7738 c 0,0 0.13018,-0.085 0.14535,-0.0801 0.0148,0.005 0.0702,0.16546 0.0702,0.16546 0,0 0.13794,0.10089 0.25682,0.18803 l -0.0272,0.0138 -0.005,-0.0176 c -0.0265,0.004 -0.0889,0.0399 -0.0931,0.0575 -0.005,0.018 0.0487,0.12876 0.0487,0.12876 l -0.0885,0.0579 c 0,0 0.0533,0.11994 0.0399,0.12418 -0.0134,0.005 -0.10231,0.049 -0.10231,0.049 l 0.0935,0.11078 -0.0356,0.14216 0.0709,0.0889 -0.0755,0.11078 0.10654,0.0399 -0.031,0.10654 0.11112,0.0889 -0.0533,0.11536 0.0621,0.0578 0.13335,-0.0176 v 0 l -0.0116,0.0205 c -0.0141,0.0258 -0.005,0.0582 0.0208,0.0723 l 0.049,0.0275 c -10e-4,0.004 -0.002,0.004 -0.004,0.005 -0.0243,0.0434 -0.008,0.0984 0.0349,0.12241 0.0437,0.0244 0.0984,0.008 0.12241,-0.0349 0.001,-0.004 0.002,-0.004 0.002,-0.006 l 0.18733,0.10371 c -10e-4,0.004 -0.002,0.004 -0.004,0.005 -0.0243,0.0434 -0.008,0.0981 0.0349,0.12242 0.0434,0.024 0.0984,0.008 0.12242,-0.0353 0.001,-0.004 0.002,-0.004 0.002,-0.006 l 0.12629,0.0702 c 0.01,0.005 0.0205,0.007 0.0307,0.006 l 0.0296,0.012 c -0.001,0.004 -0.002,0.004 -0.003,0.006 -0.019,0.0462 0.003,0.0988 0.049,0.11747 0.0459,0.019 0.0984,-0.004 0.11747,-0.049 7.1e-4,-0.004 10e-4,-0.004 0.002,-0.006 l 0.1979097,0.0811 c -7.1e-4,0.004 -0.002,0.004 -0.003,0.006 -0.019,0.0459 0.003,0.0988 0.049,0.11748 0.0462,0.0191 0.0988,-0.004 0.11748,-0.049 10e-4,-0.004 10e-4,-0.004 0.002,-0.006 l 0.0444,0.0183 c -10e-4,0.0219 0.0113,0.0434 0.0328,0.0522 l 0.0519,0.0212 c -0.001,0.004 -0.002,0.004 -0.003,0.006 -0.019,0.0459 0.003,0.0984 0.049,0.11748 0.0459,0.019 0.0984,-0.004 0.11748,-0.049 7e-4,-0.004 10e-4,-0.004 0.002,-0.006 l 0.19791,0.0811 c -7.1e-4,0 -0.002,0.004 -0.003,0.006 -0.019,0.0459 0.003,0.0984 0.049,0.11747 0.0462,0.0187 0.0988,-0.004 0.11748,-0.049 0.001,-0.004 0.001,-0.004 0.002,-0.006 l 0.1337,0.0547 c 7.1e-4,3.5e-4 0.001,3.5e-4 0.002,0 7.1e-4,3.5e-4 0.001,0 0.002,0 l 0.0519,0.0212 c -0.001,0 -0.002,0.004 -0.003,0.006 -0.0191,0.0459 0.003,0.0984 0.049,0.11747 0.0459,0.0187 0.0988,-0.004 0.11747,-0.0494 7.1e-4,-0.004 0.001,-0.004 0.002,-0.006 l 0.19791,0.0815 c -7e-4,0.004 -0.002,0.004 -0.003,0.005 -0.0191,0.0462 0.003,0.0988 0.049,0.11783 0.0462,0.0187 0.0988,-0.004 0.11747,-0.0494 0.001,-0.004 0.001,-0.004 0.002,-0.006 l 0.10936,0.0448 c 0.002,0.0363 0.0148,0.0811 0.0642,0.0864 0.0843,0.009 0.13759,-0.049 0.13759,-0.049 l 0.1778,0.0667 c 0,0 -0.049,0.0533 0.0353,0.0801 0.0843,0.0264 0.12453,-0.0667 0.12453,-0.0667 l 0.079,-0.0201 c 0.004,0 0.008,0 0.0131,0 h 0.0561 c 0,0.004 -3.5e-4,0.004 -3.5e-4,0.006 0,0.0497 0.0402,0.09 0.09,0.09 0.0497,0 0.0899,-0.0402 0.0899,-0.09 0,-0.004 -3.5e-4,-0.004 -7e-4,-0.006 h 0.21414 c 0,0.004 -7.1e-4,0.004 -7.1e-4,0.006 0,0.0497 0.0406,0.09 0.0903,0.09 0.0497,0 0.09,-0.0402 0.09,-0.09 0,-0.004 -3.5e-4,-0.004 -7.1e-4,-0.006 h 0.14464 c 7.1e-4,0 0.001,0 0.002,0 7e-4,0 10e-4,0 0.002,0 h 0.0561 c 0,0.004 -3.5e-4,0.004 -3.5e-4,0.006 0,0.0497 0.0402,0.09 0.09,0.09 0.0497,0 0.09,-0.0402 0.09,-0.09 0,-0.004 -3.5e-4,-0.004 -7.1e-4,-0.006 h 0.21414 c 0,0.004 -7.1e-4,0.004 -7.1e-4,0.006 0,0.0497 0.0402,0.09 0.0903,0.09 0.0494,0 0.09,-0.0402 0.09,-0.09 0,-0.004 -7e-4,-0.004 -7e-4,-0.006 h 0.0963 0.0483 0.008 c -3.6e-4,0.004 -7.1e-4,0.004 -7.1e-4,0.006 0,0.0497 0.0402,0.09 0.09,0.09 0.0497,0 0.0903,-0.0402 0.0903,-0.09 0,-0.004 -7e-4,-0.004 -7e-4,-0.006 h 0.21378 c 0,0.004 -3.5e-4,0.004 -3.5e-4,0.006 0,0.0497 0.0402,0.09 0.0899,0.09 0.0498,0 0.09,-0.0402 0.09,-0.09 0,-0.004 -3.5e-4,-0.004 -3.5e-4,-0.006 h 0.14429 c 7e-4,0 0.001,0 0.002,0 7.1e-4,0 10e-4,0 0.002,0 h 0.0561 c -3.5e-4,0.004 -7e-4,0.004 -7e-4,0.006 0,0.0497 0.0402,0.09 0.0899,0.09 0.0498,0 0.0903,-0.0402 0.0903,-0.09 0,-0.004 -7.1e-4,-0.004 -7.1e-4,-0.006 h 0.21378 c 0,0.004 -3.5e-4,0.004 -3.5e-4,0.006 0,0.0497 0.0402,0.09 0.09,0.09 0.0497,0 0.09,-0.0402 0.09,-0.09 0,-0.004 -3.6e-4,-0.004 -7.1e-4,-0.006 h 0.1009 0.0437 0.0124 c -3.6e-4,0.004 -7.1e-4,0.004 -7.1e-4,0.006 0,0.0497 0.0402,0.09 0.09,0.09 0.0497,0 0.0903,-0.0402 0.0903,-0.09 0,-0.004 -7e-4,-0.004 -7e-4,-0.006 h 0.21413 c -3.5e-4,0.004 -7e-4,0.004 -7e-4,0.006 0,0.0497 0.0402,0.09 0.0899,0.09 0.0498,0 0.09,-0.0402 0.09,-0.09 0,-0.004 -3.5e-4,-0.004 -3.5e-4,-0.006 h 0.14429 c 7e-4,0 10e-4,0 0.002,0 7.1e-4,0 10e-4,0 0.002,0 h 0.0561 c -3.5e-4,0.004 -7e-4,0.004 -7e-4,0.006 0,0.0497 0.0402,0.09 0.0899,0.09 0.0498,0 0.0903,-0.0402 0.0903,-0.09 0,-0.004 -7.1e-4,-0.004 -7.1e-4,-0.006 h 0.21378 c 0,0.004 -3.5e-4,0.004 -3.5e-4,0.006 0,0.0497 0.0402,0.09 0.09,0.09 0.0497,0 0.09,-0.0402 0.09,-0.09 0,-0.004 -3.6e-4,-0.004 -3.6e-4,-0.006 h 0.0649 0.0561 c 0,0.004 -7.1e-4,0.004 -7.1e-4,0.006 0,0.0497 0.0406,0.09 0.0903,0.09 0.0497,0 0.09,-0.0402 0.09,-0.09 0,-0.004 -3.5e-4,-0.004 -7e-4,-0.006 h 0.21413 c -3.5e-4,0.004 -7e-4,0.004 -7e-4,0.006 0,0.0497 0.0402,0.09 0.0899,0.09 0.0498,0 0.0903,-0.0402 0.0903,-0.09 0,-0.004 -7.1e-4,-0.004 -7.1e-4,-0.006 h 0.14464 c 7e-4,0 10e-4,0 0.002,0 3.5e-4,0 10e-4,0 0.002,0 h 0.0561 c 0,0.004 -7e-4,0.004 -7e-4,0.006 0,0.0497 0.0406,0.09 0.0903,0.09 0.0497,0 0.09,-0.0402 0.09,-0.09 0,-0.004 -3.5e-4,-0.004 -7e-4,-0.006 h 0.21414 c -3.6e-4,0.004 -7.1e-4,0.004 -7.1e-4,0.006 0,0.0497 0.0402,0.09 0.09,0.09 0.0497,0 0.0903,-0.0402 0.0903,-0.09 0,-0.004 -7.1e-4,-0.004 -7.1e-4,-0.006 h 0.10055 0.0441 0.012 c 0,0.004 -7.1e-4,0.004 -7.1e-4,0.006 0,0.0497 0.0406,0.09 0.0903,0.09 0.0497,0 0.09,-0.0402 0.09,-0.09 0,-0.004 -3.5e-4,-0.004 -7e-4,-0.006 h 0.21413 c 0,0.004 -7e-4,0.004 -7e-4,0.006 0,0.0497 0.0402,0.09 0.0899,0.09 0.0498,0 0.0903,-0.0402 0.0903,-0.09 0,-0.004 -7.1e-4,-0.004 -7.1e-4,-0.006 h 0.14464 c 7e-4,0 0.001,0 0.002,0 3.5e-4,0 10e-4,0 0.002,0 h 0.0561 c 0,0.004 -7e-4,0.004 -7e-4,0.006 0,0.0497 0.0406,0.09 0.0903,0.09 0.0497,0 0.0899,-0.0402 0.0899,-0.09 0,-0.004 -3.5e-4,-0.004 -7e-4,-0.006 h 0.21414 c -3.6e-4,0.004 -7.1e-4,0.004 -7.1e-4,0.006 0,0.0497 0.0402,0.09 0.09,0.09 0.0497,0 0.0903,-0.0402 0.0903,-0.09 0,-0.004 -7.1e-4,-0.004 -7.1e-4,-0.006 h 0.11395 0.0307 0.0254 c 0,0.004 -7e-4,0.004 -7e-4,0.006 0,0.0497 0.0406,0.09 0.0903,0.09 0.0497,0 0.09,-0.0402 0.09,-0.09 0,-0.004 -3.6e-4,-0.004 -7.1e-4,-0.006 h 0.21414 c -3.6e-4,0.004 -7.1e-4,0.004 -7.1e-4,0.006 0,0.0497 0.0402,0.09 0.09,0.09 0.0497,0 0.0903,-0.0402 0.0903,-0.09 0,-0.004 -7e-4,-0.004 -7e-4,-0.006 h 0.14463 c 7.1e-4,0 10e-4,0 0.002,0 7e-4,0 10e-4,0 0.002,0 h 0.0561 c 0,0.004 -7.1e-4,0.004 -7.1e-4,0.006 0,0.0497 0.0406,0.09 0.0903,0.09 0.0497,0 0.09,-0.0402 0.09,-0.09 0,-0.004 -7.1e-4,-0.004 -7.1e-4,-0.006 h 0.21414 c -3.5e-4,0.004 -7e-4,0.004 -7e-4,0.006 0,0.0497 0.0402,0.09 0.0899,0.09 0.0497,0 0.09,-0.0402 0.09,-0.09 0,-0.004 -3.5e-4,-0.004 -3.5e-4,-0.006 h 0.10054 0.0441 0.012 c 0,0.004 -7e-4,0.004 -7e-4,0.006 0,0.0497 0.0406,0.09 0.0903,0.09 0.0497,0 0.09,-0.0402 0.09,-0.09 0,-0.004 -3.6e-4,-0.004 -7.1e-4,-0.006 h 0.21414 c -3.6e-4,0.004 -7.1e-4,0.004 -7.1e-4,0.006 0,0.0497 0.0402,0.09 0.09,0.09 0.0497,0 0.0903,-0.0402 0.0903,-0.09 0,-0.004 -7e-4,-0.004 -7e-4,-0.006 h 0.14463 c 7.1e-4,0 0.001,0 0.002,0 7e-4,0 0.001,0 0.002,0 h 0.0561 c 0,0.004 -7.1e-4,0.004 -7.1e-4,0.006 0,0.0497 0.0406,0.09 0.0903,0.09 0.0497,0 0.09,-0.0402 0.09,-0.09 0,-0.004 -7.1e-4,-0.004 -7.1e-4,-0.006 h 0.21414 c -3.5e-4,0.004 -7e-4,0.004 -7e-4,0.006 0,0.0497 0.0402,0.09 0.09,0.09 0.0497,0 0.0903,-0.0402 0.0903,-0.09 0,-0.004 -7e-4,-0.004 -7e-4,-0.006 h 0.0783 0.0561 c 0,0.004 -7.1e-4,0.004 -7.1e-4,0.006 0,0.0497 0.0406,0.09 0.0903,0.09 0.0497,0 0.09,-0.0402 0.09,-0.09 0,-0.004 -3.5e-4,-0.004 -7e-4,-0.006 h 0.21413 c -3.5e-4,0.004 -7e-4,0.004 -7e-4,0.006 0,0.0497 0.0402,0.09 0.0899,0.09 0.0498,0 0.0903,-0.0402 0.0903,-0.09 0,-0.004 -7.1e-4,-0.004 -7.1e-4,-0.006 h 0.14464 c 7e-4,0 0.001,0 0.002,0 7.1e-4,0 10e-4,0 0.002,0 h 0.0561 c 0,0.004 -7e-4,0.004 -7e-4,0.006 0,0.0497 0.0406,0.09 0.0903,0.09 0.0497,0 0.09,-0.0402 0.09,-0.09 0,-0.004 -3.6e-4,-0.004 -7.1e-4,-0.006 h 0.21414 c -3.6e-4,0.004 -7.1e-4,0.004 -7.1e-4,0.006 0,0.0497 0.0402,0.09 0.09,0.09 0.0497,0 0.0903,-0.0402 0.0903,-0.09 0,-0.004 -7.1e-4,-0.004 -7.1e-4,-0.006 h 0.14464 c 0.004,0 0.008,0 0.0127,0 0.0226,0.0339 0.066,0.0494 0.10584,0.0346 0.0466,-0.0173 0.0705,-0.0688 0.0533,-0.11571 -7.1e-4,-0.004 -0.002,-0.004 -0.003,-0.006 l 0.20109,-0.0737 c 3.5e-4,0.004 7e-4,0.004 0.001,0.006 0.0173,0.0466 0.0688,0.0706 0.11571,0.0533 0.0466,-0.0169 0.0705,-0.0688 0.0533,-0.11535 -7.1e-4,-0.004 -0.002,-0.004 -0.003,-0.006 l 0.13582,-0.0501 c 0.005,0 0.01,-0.005 0.0138,-0.008 l 0.042,-0.0155 c 7.1e-4,0.004 0.001,0.004 0.002,0.006 0.0169,0.0466 0.0688,0.0706 0.11536,0.0533 0.0469,-0.0169 0.0709,-0.0688 0.0536,-0.11536 -7.1e-4,-0.004 -0.002,-0.004 -0.003,-0.006 l 0.20073,-0.0741 c 7e-4,0.004 10e-4,0.004 0.002,0.006 0.0169,0.0469 0.0688,0.0706 0.11571,0.0536 0.0466,-0.0173 0.0706,-0.0691 0.0533,-0.11571 -7e-4,-0.004 -0.002,-0.004 -0.003,-0.006 l 0.13582,-0.0497 c 0.007,-0.004 0.0138,-0.007 0.019,-0.0127 l 0.006,-0.004 c 7.1e-4,0.004 7.1e-4,0.004 10e-4,0.006 0.0173,0.0466 0.0691,0.0705 0.11572,0.0533 0.0466,-0.0173 0.0705,-0.0692 0.0536,-0.11571 -0.001,-0.004 -0.002,-0.004 -0.003,-0.006 l 0.20073,-0.0737 c 7e-4,0.004 7e-4,0.004 10e-4,0.006 0.0173,0.0466 0.0691,0.0706 0.11571,0.0533 0.0469,-0.0169 0.0705,-0.0688 0.0536,-0.11536 -7.1e-4,-0.004 -0.002,-0.004 -0.003,-0.006 l 0.079,-0.0293 c 0.0159,0.0173 0.042,0.0226 0.0635,0.0113 l 0.0497,-0.0261 c 10e-4,0.004 10e-4,0.004 0.002,0.006 0.0229,0.0441 0.0776,0.061 0.12171,0.0378 0.0437,-0.0229 0.0607,-0.0776 0.0378,-0.12135 -0.001,-0.004 -0.002,-0.004 -0.004,-0.005 l 0.18944,-0.0995 c 7.1e-4,0.004 10e-4,0.004 0.002,0.006 0.0229,0.0441 0.0776,0.061 0.12136,0.0378 0.0441,-0.0229 0.061,-0.0776 0.0381,-0.12171 -10e-4,-0.004 -0.002,-0.004 -0.004,-0.005 l 0.12806,-0.0674 c 0.005,-0.004 0.008,-0.006 0.012,-0.009 0.007,0.004 0.0152,0.004 0.0233,0.004 0.054,0 0.0977,-0.0434 0.0977,-0.0974 0,-0.0286 -0.0123,-0.054 -0.0314,-0.072 l 0.0847,-0.0614 c 0,0 0.012,-0.0494 0.0265,-0.1016 0.008,0.004 0.0176,0.004 0.0268,0.004 0.054,0 0.0977,-0.0437 0.0977,-0.0977 0,-0.0317 -0.0152,-0.06 -0.0388,-0.0776 0.0219,-0.0367 0.043,-0.0776 0.043,-0.0776 l -0.006,-0.10724 c 0.003,0 0.007,0 0.0102,0 0.054,0 0.0977,-0.0437 0.0977,-0.0977 0,-0.0483 -0.0353,-0.0885 -0.0818,-0.0963 l 0.0152,-0.0723 -0.0416,-0.0702 c -3.5e-4,-0.0145 -7.1e-4,-0.0282 -0.001,-0.0413 0.16686,-0.0614 0.17427,-0.27481 0.17427,-0.33902 0,-0.0751 -0.0903,-0.27552 -0.30092,-0.27552 h -0.28892 c -0.0187,-0.0183 -0.0378,-0.0356 -0.0575,-0.0526 l -0.009,-0.76941 c 0,0 0.11501,-0.15028 0.13018,-0.15028 0.0152,0 0.65158,0.53128 0.65158,0.53128 l -0.0402,0.0699 0.10548,0.0903 c 0,0 0.24554,-0.26564 0.28046,-0.31079 0.0353,-0.0448 0.18556,-0.21555 0.11536,-0.39582 M 0.54894,2.48442 c 0,0.0293 -0.024,0.0533 -0.0533,0.0533 H 0.19895 c -0.0293,0 -0.0533,-0.024 -0.0533,-0.0533 V 2.18773 c 0,-0.0293 0.024,-0.0533 0.0533,-0.0533 h 0.29669 c 0.0293,0 0.0533,0.024 0.0533,0.0533 z m 0.56268,-0.0505 c 0,0.0293 -0.024,0.0533 -0.0533,0.0533 l -0.29669,0.0505 c -0.0293,0 -0.0533,-0.024 -0.0533,-0.0533 V 2.13729 c 0,-0.0293 0.024,-0.0533 0.0533,-0.0533 l 0.29669,0.11359 c 0.0293,0 0.0533,0.0236 0.0533,0.0533 z M 4.59354,7.67655 4.46618,7.62435 c -0.006,-0.004 -0.012,-0.004 -0.018,-0.004 l -0.12629,-0.0706 0.32138,0.0635 c -0.0184,0.0233 -0.036,0.0451 -0.0497,0.0628 m 1.5444597,0.39441 c -0.0483,0.0561 -0.12383,0.15346 -0.16828,0.20955 l -0.12735,-0.0522 c -7.1e-4,-3.5e-4 -10e-4,-3.5e-4 -0.002,0 -3.5e-4,-3.5e-4 -10e-4,0 -0.002,0 l -0.30092,-0.12347 c 0.007,-0.0589 0.0198,-0.15382 0.0346,-0.23601 0.0229,-0.12982 -0.0818,-0.17286 -0.1524,-0.091 -0.0483,0.0561 -0.12382,0.15381 -0.16827,0.20955 l -0.0381,-0.0155 c 0.001,-0.0222 -0.0113,-0.0437 -0.0328,-0.0526 l -0.30092,-0.12347 c 0.007,-0.0533 0.0176,-0.13617 0.0303,-0.21237 l 1.17263,-0.0441 c -0.008,0.0519 -0.0124,0.10513 -0.0124,0.15946 0,0.13088 0.0251,0.25612 0.0702,0.37112 -7.1e-4,0 -0.002,0 -0.002,0.004 m 0.11782,0.32702 c 0.004,-0.0268 0.008,-0.061 0.0131,-0.0981 0.0455,0.0614 0.0977,0.11748 0.15557,0.16722 z m 2.4885,0.20109 h -0.0892 -0.0483 -0.27693 c -0.0155,-0.0571 -0.0402,-0.14993 -0.0579,-0.23143 -0.0279,-0.12911 -0.14146,-0.12911 -0.17568,-0.0265 -0.0233,0.0702 -0.0561,0.18909 -0.0759,0.25788 h -0.13794 c -7e-4,0 -0.001,0 -0.002,0 -7.1e-4,0 -0.001,0 -0.002,0 h -0.32526 c 0,0 -3.5e-4,0 -3.5e-4,0 0.18803,-0.0981 0.34149,-0.25294 0.43744,-0.44203 h 0.31927 c 0.096,0.18838 0.24835,0.3429 0.43532,0.44062 0,0 -3.5e-4,0.004 -7e-4,0.004 M 11.10212,8.34619 c -0.0233,0.0702 -0.0564,0.18909 -0.0762,0.25788 h -0.13758 c -7.1e-4,0 -10e-4,0 -0.002,0 -7e-4,0 -0.001,0 -0.002,0 h -0.32526 c -0.0155,-0.0572 -0.0399,-0.14993 -0.0579,-0.23142 -0.0279,-0.12912 -0.14111,-0.12912 -0.17533,-0.0265 -0.0233,0.0702 -0.0561,0.18909 -0.0762,0.25788 h -0.0938 -0.0437 -0.2815203 c -0.006,-0.0222 -0.0134,-0.0494 -0.0212,-0.0794 C 10.06449,8.34013 10.23065,8.04062 10.23065,7.70195 c 0,-0.0917 -0.0123,-0.18027 -0.0353,-0.26458 l 0.71755,-0.004 c -0.0233,0.0854 -0.036,0.17498 -0.036,0.26776 0,0.24236 0.0854,0.46496 0.22719,0.63958 -3.6e-4,0.004 -10e-4,0.004 -0.002,0.005 m 0.23319,0.25788 c -0.005,-0.0183 -0.0109,-0.0409 -0.0173,-0.0649 0.0346,0.0236 0.0709,0.0455 0.10866,0.0649 z m 1.15993,0 h -0.13758 c -3.5e-4,0 -7.1e-4,0 -0.001,0 0.0607,-0.0314 0.11783,-0.0684 0.17039,-0.11112 -0.0116,0.0413 -0.0229,0.0811 -0.0317,0.11112 m 0.72884,0 h -0.0938 -0.0441 -0.28117 c -0.0159,-0.0571 -0.0402,-0.14993 -0.0578,-0.23142 -0.007,-0.0328 -0.0198,-0.0568 -0.0349,-0.0734 0.0317,-0.0437 0.0603,-0.0903 0.0847,-0.13864 h 0.31961 c 0.0441,0.0871 0.10055,0.16722 0.16722,0.23742 -0.0208,0.0681 -0.0441,0.1524 -0.0596,0.20602 m 0.30939,0 c -10e-4,-0.005 -0.003,-0.01 -0.004,-0.0145 0.009,0.005 0.018,0.01 0.0272,0.0145 z m 2.71356,0 h -0.0935 -0.0441 -0.28116 c -0.0159,-0.0571 -0.0402,-0.14993 -0.0579,-0.23142 -0.0282,-0.12912 -0.14146,-0.12912 -0.17568,-0.0265 -0.0233,0.0702 -0.0561,0.18909 -0.0762,0.25788 h -0.13759 c -7e-4,0 -10e-4,0 -0.002,0 -7.1e-4,0 -10e-4,0 -0.002,0 h -0.32526 c -0.0159,-0.0571 -0.0402,-0.14993 -0.0579,-0.23142 -0.0282,-0.12912 -0.14147,-0.12912 -0.17569,-0.0265 -0.0233,0.0702 -0.0561,0.18909 -0.0762,0.25788 H 14.6352 14.6045 14.48667 c 0.32668,-0.16898 0.54998,-0.50941 0.54998,-0.90205 0,-0.10125 -0.0148,-0.19862 -0.0423,-0.29069 l 0.77435,-0.0102 c -0.0296,0.0953 -0.0455,0.19614 -0.0455,0.30092 0,0.38382 0.21308,0.71755 0.5274,0.89006 -10e-4,0.004 -0.002,0.008 -0.004,0.012 m 2.12161,0 c -7.1e-4,0 -0.001,0 -0.002,0 -3.5e-4,0 -10e-4,0 -0.002,0 h -0.32526 c -0.0159,-0.0571 -0.0402,-0.14993 -0.0579,-0.23142 -0.0279,-0.12912 -0.14146,-0.12912 -0.17568,-0.0265 -0.0233,0.0702 -0.0561,0.18909 -0.0759,0.25788 h -0.0716 -0.0663 -0.25894 c -0.005,-0.019 -0.0116,-0.0423 -0.018,-0.0674 0.13828,-0.0956 0.25153,-0.22507 0.32843,-0.37606 h 0.31927 c 0.0967,0.19015 0.25117,0.34537 0.44026,0.44344 z m 2.20521,-0.84667 c 0.002,0.0741 0.0127,0.19721 0.0176,0.26847 l -0.12911,0.0473 c -0.007,0.004 -0.0141,0.007 -0.0194,0.0127 l -0.25788,0.0949 c -0.0346,-0.048 -0.0896,-0.12665 -0.13441,-0.19721 -0.0705,-0.11112 -0.17709,-0.072 -0.17356,0.036 0.002,0.0741 0.0123,0.19685 0.0173,0.26811 l -0.12911,0.0476 c -0.005,0.004 -0.01,0.005 -0.0138,0.008 l -0.14288,0.0522 c 0.17004,-0.18133 0.27446,-0.4251 0.27446,-0.69356 0,-0.12418 -0.0222,-0.24307 -0.0631,-0.35313 0.0864,0 0.17815,0 0.26141,0 l 0.0875,0.11677 0.12877,-0.0416 c 0.0363,0.0399 0.0759,0.0769 0.11783,0.11112 -0.0233,0.055 -0.0561,0.15593 -0.0561,0.15593 l 0.0801,0.0653 0.13724,-0.11219 c 0.0134,0.007 0.0275,0.0145 0.0413,0.0212 -0.0272,0.0148 -0.0455,0.048 -0.0441,0.0938 m 0.30798,0.16157 c -0.0159,-0.0222 -0.036,-0.0508 -0.0575,-0.0822 l 0.043,-0.0861 c 0.0459,0.01 0.0924,0.0162 0.14006,0.0201 l 0.0205,0.0946 z m 0.35595,-0.10477 c -0.007,-0.005 -0.0148,-0.008 -0.0233,-0.01 0.004,-0.012 0.008,-0.0251 0.012,-0.0381 0.0222,-0.004 0.0441,-0.006 0.066,-0.0102 0.002,0.01 0.004,0.0183 0.005,0.0265 z"
     id="G-Elefant" />
</svg>
