<?xml version="1.0" encoding="UTF-8" standalone="no"?>
<!-- Created with Inkscape (http://www.inkscape.org/) -->

<svg
   width="16.61779mm"
   height="7.4663301mm"
   viewBox="0 0 16.61779 7.4663305"
   version="1.1"
   id="svg33402"
   sodipodi:docname="inkporter-svg-e7qp_36f.svg"
   inkscape:version="1.1.1 (3bf5ae0d25, 2021-09-20)"
   xmlns:inkscape="http://www.inkscape.org/namespaces/inkscape"
   xmlns:sodipodi="http://sodipodi.sourceforge.net/DTD/sodipodi-0.dtd"
   xmlns="http://www.w3.org/2000/svg"
   xmlns:svg="http://www.w3.org/2000/svg">
  <sodipodi:namedview
     id="namedview555"
     pagecolor="#ffffff"
     bordercolor="#666666"
     borderopacity="1.0"
     inkscape:pageshadow="2"
     inkscape:pageopacity="0.0"
     inkscape:pagecheckerboard="0"
     inkscape:document-units="mm"
     showgrid="false"
     inkscape:zoom="0.32"
     inkscape:cx="889.0625"
     inkscape:cy="4120.3125"
     inkscape:window-width="1920"
     inkscape:window-height="1017"
     inkscape:window-x="-8"
     inkscape:window-y="-8"
     inkscape:window-maximized="1"
     inkscape:current-layer="svg33402" />
  <defs
     id="defs13927" />
  <path
     d="M 16.32712,4.90252 V 4.56174 l -0.11359,-0.13476 -0.26917,0.008 -0.0632,-0.10512 -0.0882,-0.0166 -0.0254,-0.0589 0.66463,-0.12206 V 3.97249 H 16.03673 V 3.71567 c 0,-0.002 -10e-4,-0.004 -0.004,-0.006 0.15875,-0.0374 0.27693,-0.17957 0.27693,-0.34961 0,-0.0776 -0.0247,-0.14922 -0.0663,-0.20814 L 16.36119,2.91027 16.08531,2.77551 15.97525,3.00129 c -0.008,-3.5e-4 -0.0166,-10e-4 -0.025,-10e-4 -0.19861,0 -0.35983,0.16087 -0.35983,0.35983 0,0.15664 0.10054,0.28963 0.24059,0.33902 -0.11536,0.005 -0.23636,0.0162 -0.23636,0.0162 V 3.42077 H 15.46412 V 3.1897 l -0.0967,-0.10548 -0.29457,-0.067 c 0,0 0.0123,-0.0617 0.025,-0.0589 -0.019,-0.004 -0.48754,-0.12206 -0.48754,-0.12206 l -0.0169,0.0547 -0.22296,-0.042 -0.0716,0.0166 -0.54681,-0.29422 -0.10689,-0.49565 0.12912,0.008 -0.0448,-0.24695 0.26953,-0.0448 -0.0113,-0.0787 -0.28611,0.0169 -0.0226,-0.2921 0.25259,-0.0674 v -0.0727 l -0.31433,0.0222 -0.0226,-0.14605 -0.12312,0.097 -0.0183,-0.0847 H 12.82211 V 0.9465 l 0.0254,0.0254 V 0.3242 H 12.0901 c 0,0 0.008,0.6477 0,0.6477 -0.008,0 -0.21873,-0.0254 -0.21873,-0.0254 V 0.48401 L 11.4678,0.58914 v 0.084 L 10.36113,0.5091 10.30643,0.7952 10.17379,0.7758 5.2479497,0.084 4.42104,0 4.29475,0.59761 l -0.0755,-0.008 0.0251,-0.0716 h -0.1263 l -0.0377,0.1852 -2.21686,0.15981 -0.004,-0.0378 -0.80786,0.0124 v 0.0508 H 0 v 0.56762 h 1.06433 v 0.1136 H 1.03043 0.6392 v 0.0631 H 0.05041 V 2.1291 H 2.33888 L 2.31768,2.2176 3.76512,2.40669 3.65576,3.02934 H 3.57986 L 3.49976,3.3031 H 3.40736 V 2.87377 h 0.1471 V 2.78137 H 2.99919 V 2.91578 H 2.41464 v 0.12629 h -0.0674 v 0.0632 H 2.24211 l -0.0759,0.0843 H 1.76228 v -0.0843 h -0.0504 v 0.0843 H 1.64448 V 3.14727 L 1.5016,3.11377 v 0.0716 l 0.084,0.0505 v 0.1344 l -0.0818,0.0505 v 0.078 H 1.4629 c -0.0409,0 -0.49848,0.21238 -0.49848,0.21238 l 0.17286,0.28998 c -0.002,0.002 -0.005,0.005 -0.007,0.007 -0.0265,0.031 -0.024,0.0765 0.004,0.10513 L 0.96353,4.3161 c -0.001,-7e-4 -0.002,-10e-4 -0.004,-0.002 -0.0395,-0.0176 -0.0857,3.5e-4 -0.10336,0.0399 -0.0166,0.0374 -0.001,0.0804 0.0335,0.0998 L 0.77114,4.72085 c -0.005,-3.5e-4 -0.0102,-7.1e-4 -0.0159,-3.5e-4 -0.043,0.005 -0.0744,0.043 -0.0702,0.0861 0.004,0.0406 0.0385,0.0706 0.0783,0.0702 l 0.0265,0.26458 -0.006,0.004 c -0.005,10e-4 -0.0106,0.004 -0.0159,0.006 -0.0381,0.0205 -0.0529,0.0677 -0.0328,0.10618 0.019,0.036 0.0621,0.0508 0.0991,0.0356 l 0.1337,0.25436 -0.008,0.0127 c -0.004,0.004 -0.007,0.008 -0.0106,0.0131 -0.0236,0.0363 -0.0131,0.085 0.0233,0.1083 0.0342,0.0222 0.079,0.0141 0.10372,-0.0173 L 1.25804,5.7818 c -0.0183,0.0353 -0.007,0.0794 0.0268,0.1016 0.0342,0.0222 0.079,0.0138 0.10407,-0.0173 l 0.005,0.003 0.17463,0.11289 c -0.0183,0.0356 -0.007,0.0797 0.0268,0.10195 0.0342,0.0222 0.079,0.0138 0.10372,-0.0176 l 0.18203,0.11748 c -0.0183,0.0356 -0.008,0.0797 0.0268,0.1016 0.0342,0.0222 0.0787,0.0141 0.10372,-0.0173 l 0.005,0.004 0.18627,0.1203 c -0.0201,0.0356 -0.01,0.0815 0.0254,0.10406 0.0342,0.0222 0.079,0.0138 0.10407,-0.0176 l 0.18168,0.11747 c -0.0183,0.0356 -0.007,0.0797 0.0268,0.10195 0.0342,0.0219 0.079,0.0138 0.10371,-0.0176 l 0.18027,0.11642 c -0.0183,0.0353 -0.008,0.0797 0.0268,0.1016 0.0342,0.0222 0.079,0.0141 0.10372,-0.0173 l 0.007,0.004 0.17498,0.11289 c -0.0183,0.0356 -0.007,0.0797 0.0268,0.10195 0.0342,0.0222 0.079,0.0138 0.10372,-0.0176 l 0.005,0.004 0.25965,0.16757 c -0.008,0.0381 0.0127,0.0773 0.0501,0.0907 0.0385,0.0134 0.0801,-0.005 0.097,-0.0409 l 0.27799,0.0988 c 0.007,0.036 0.0385,0.0635 0.0769,0.0635 0.0406,0 0.0737,-0.0314 0.0776,-0.0713 h 0.21449 c 0.004,0.0399 0.037,0.0713 0.0776,0.0713 0.0409,0 0.0741,-0.0314 0.0776,-0.0713 h 0.008 0.20814 c 0.004,0.0399 0.0367,0.0713 0.0776,0.0713 0.0409,0 0.0741,-0.0314 0.0776,-0.0713 h 0.006 0.20143 c 0.004,0.0399 0.0371,0.0713 0.0776,0.0713 0.0409,0 0.0741,-0.0314 0.0776,-0.0713 h 0.0152 0.20143 c 0.004,0.0399 0.0367,0.0713 0.0776,0.0713 0.0409,0 0.0737,-0.0314 0.0776,-0.0713 h 0.006 0.20814 c 0.004,0.0399 0.037,0.0713 0.078,0.0713 0.0406,0 0.0737,-0.0314 0.0776,-0.0713 h 0.008 0.20814 c 0.004,0.0399 0.037,0.0713 0.0776,0.0713 0.0409,0 0.0741,-0.0314 0.078,-0.0713 h 0.006 0.21378 c 0.004,0.0399 0.037,0.0713 0.078,0.0713 0.0406,0 0.0737,-0.0314 0.0776,-0.0713 h 0.002 0.21379 c 0.004,0.0399 0.037,0.0713 0.0776,0.0713 0.0409,0 0.0741,-0.0314 0.078,-0.0713 h 0.006 0.20814 c 0.004,0.0399 0.0367,0.0713 0.0776,0.0713 0.0409,0 0.0737,-0.0314 0.0776,-0.0713 h 0.008 0.20814 c 0.004,0.0399 0.0367,0.0713 0.0776,0.0713 0.0406,0 0.0737,-0.0314 0.0776,-0.0713 h 0.006 0.20532 c 0.004,0.0399 0.037,0.0713 0.0776,0.0713 0.0409,0 0.0741,-0.0314 0.078,-0.0713 h 0.0109 0.20532 c 0.004,0.0399 0.037,0.0713 0.0776,0.0713 0.0409,0 0.0741,-0.0314 0.0776,-0.0713 h 0.006 0.20814 c 0.004,0.0399 0.037,0.0713 0.078,0.0713 0.0406,0 0.0737,-0.0314 0.0776,-0.0713 h 0.008 0.20813 c 0.004,0.0399 0.0371,0.0713 0.0776,0.0713 0.0409,0 0.0741,-0.0314 0.078,-0.0713 h 0.006 0.21378 c 0.004,0.0399 0.037,0.0713 0.078,0.0713 0.0406,0 0.0737,-0.0314 0.0776,-0.0713 h 0.002 0.21378 c 0.004,0.0399 0.037,0.0713 0.078,0.0713 0.0406,0 0.0737,-0.0314 0.0776,-0.0713 h 0.006 0.20813 c 0.004,0.0399 0.0371,0.0713 0.0776,0.0713 0.0409,0 0.0741,-0.0314 0.0776,-0.0713 h 0.008 0.20814 c 0.004,0.0399 0.0367,0.0713 0.0776,0.0713 0.0409,0 0.0737,-0.0314 0.0776,-0.0713 h 0.006 0.16793 c 0.004,0.0399 0.0367,0.0713 0.0776,0.0713 0.0409,0 0.0741,-0.0314 0.0776,-0.0713 h 0.0487 0.16792 c 0.004,0.0399 0.0367,0.0713 0.0776,0.0713 0.0406,0 0.0737,-0.0314 0.0776,-0.0713 h 0.006 0.20814 c 0.004,0.0399 0.037,0.0713 0.0776,0.0713 0.0409,0 0.0741,-0.0314 0.078,-0.0713 h 0.008 0.20814 c 0.004,0.0399 0.037,0.0713 0.0776,0.0713 0.0409,0 0.0741,-0.0314 0.078,-0.0713 h 0.006 0.1972 c 0.004,0.0399 0.0367,0.0713 0.0776,0.0713 0.0406,0 0.0737,-0.0314 0.0776,-0.0713 h 0.019 0.19721 c 0.004,0.0399 0.037,0.0713 0.078,0.0713 0.0406,0 0.0737,-0.0314 0.0776,-0.0713 h 0.006 0.20814 c 0.004,0.0399 0.037,0.0713 0.0776,0.0713 0.0409,0 0.0741,-0.0314 0.078,-0.0713 h 0.008 0.22366 c 0.0123,0.0402 0.054,0.0635 0.0949,0.0526 0.0395,-0.0106 0.0631,-0.0494 0.0568,-0.0885 l 0.2279,-0.0614 c 0.001,0.003 0.002,0.006 0.003,0.008 0.0194,0.0388 0.0667,0.0543 0.10513,0.0346 0.0367,-0.0183 0.0519,-0.061 0.0374,-0.0984 l 0.2166,-0.10936 c 0.0215,0.0325 0.0642,0.0445 0.0998,0.0265 0.0363,-0.0183 0.0519,-0.0614 0.0374,-0.0984 l 0.20285,-0.10265 c 0.0215,0.0332 0.0646,0.0455 0.10054,0.0275 0.0367,-0.0187 0.0519,-0.0614 0.0374,-0.0984 l 0.22577,-0.1143 c 0.0205,0.0363 0.0656,0.0508 0.10337,0.0317 0.0363,-0.0183 0.0519,-0.0614 0.0374,-0.0984 l 0.16687,-0.0843 c 0.0229,0.0265 0.0617,0.0353 0.0945,0.0187 0.0325,-0.0166 0.0483,-0.0529 0.0406,-0.0871 l 0.0353,-0.018 -0.005,-0.0102 0.17145,-0.0864 0.005,0.006 c 0.002,0.005 0.005,0.0102 0.008,0.0148 0.0254,0.0349 0.0744,0.0427 0.10936,0.0173 0.0332,-0.0236 0.0416,-0.0684 0.0215,-0.10301 l 0.15416,-0.11183 0.0296,0.0247 c 0.004,0.004 0.007,0.008 0.0116,0.012 0.0335,0.0275 0.0829,0.0226 0.11042,-0.0109 0.0261,-0.0314 0.0229,-0.0769 -0.005,-0.10513 L 16.2462,5.99543 c 0.0367,0.005 0.0727,-0.0173 0.0843,-0.054 0.005,-0.0162 0.005,-0.0332 -3.5e-4,-0.0483 l 0.002,-0.002 -0.005,-0.004 c -0.008,-0.0176 -0.0219,-0.0328 -0.0409,-0.0409 l 0.0681,-0.21237 c 7.1e-4,0 0.002,3.5e-4 0.003,3.5e-4 0.043,0.002 0.0801,-0.0307 0.0826,-0.0741 0.001,-0.0303 -0.0145,-0.0571 -0.0388,-0.0716 l 7e-4,-0.002 -0.0286,-0.009 0.005,-0.0991 c 0.0557,-0.005 0.0984,-0.008 0.10478,-0.008 0.0212,0 0.10936,-0.0589 0.12206,-0.13053 0.0127,-0.0716 0.0127,-0.33655 0.0127,-0.33655 z m -14.58065,1.0414 -0.042,-0.0272 c 0.0191,0.004 0.0385,0.006 0.0582,0.008 z m 0.45931,0.0353 -0.14711,0.16616 -0.0501,-0.0321 -0.0183,-0.012 0.0847,-0.18732 c 0.0201,-0.004 0.0406,-0.008 0.0603,-0.0134 l 0.12911,0.0459 c -0.0236,0.001 -0.0455,0.0124 -0.0586,0.0328 M 2.83902,6.3913 2.69191,6.55746 2.64181,6.52536 2.62351,6.51336 2.71491,6.31121 c 0.0226,-0.0353 0.0102,-0.0836 -0.0272,-0.10795 l -0.0519,-0.0332 c -0.0374,-0.0243 -0.0868,-0.0155 -0.10936,0.0194 l -0.14499,0.16439 -0.079,-0.0508 0.0914,-0.20249 c 0.0226,-0.0349 0.0102,-0.0833 -0.0272,-0.1076 l -0.0356,-0.0229 0.4071,0.14464 c 0,0 0.0677,0 0.19121,0 0.01,0.0984 0.031,0.19367 0.0617,0.28469 L 2.94837,6.37189 C 2.91057,6.34759 2.86157,6.35639 2.83901,6.39129 M 3.0027,6.75818 2.936,6.71518 3.027,6.51269 c 0.002,-0.002 0.003,-0.005 0.004,-0.008 0.0212,0.0483 0.0448,0.0953 0.0713,0.14076 z m 0.31221,0.20179 -0.0681,-0.0441 0.0198,-0.0444 c 0.0215,0.0236 0.0437,0.0462 0.0667,0.0681 z m 0.26634,0.1718 -0.0222,-0.0145 10e-4,-0.002 c 0.0131,0.008 0.0265,0.0155 0.0399,0.0233 z M 3.92521,1.66337 H 1.87204 V 1.44041 l 2.09092,0.0505 z m 0.9016997,5.60281 h -0.0815 l -0.007,-0.0437 c 0.0346,-0.0131 0.0684,-0.0275 0.10124,-0.0434 z m 1.50954,-0.21942 -0.0332,0.21942 h -0.0815 l -0.0332,-0.21942 c 0,-0.0416 -0.0363,-0.0759 -0.0811,-0.0759 h -0.0614 c -0.0448,0 -0.0815,0.0342 -0.0815,0.0759 l -0.0332,0.21942 h -0.0794 l -0.0332,-0.21942 c 0,-0.0416 -0.0367,-0.0759 -0.0815,-0.0759 h -0.0614 c -0.0445,0 -0.0811,0.0342 -0.0811,0.0759 l -0.0332,0.21942 h -0.0815 l -0.0332,-0.21942 c 0,-0.0416 -0.0367,-0.0759 -0.0811,-0.0759 h -0.0617 c -0.0445,0 -0.0811,0.0342 -0.0811,0.0759 l -0.0332,0.21942 h -0.0727 l -0.0332,-0.21942 c 0,-0.006 -0.001,-0.0127 -0.003,-0.0187 0.27835,-0.21802 0.46849,-0.54399 0.50624,-0.91546 0.0748,0 0.15028,0 0.22613,0 0.0388,0.37888 0.23566,0.71085 0.52352,0.92886 0,0.002 -7e-4,0.004 -7e-4,0.005 m 0.3429,0.21942 h -0.0857 l -0.0116,-0.0776 c 0.0335,0.0155 0.0677,0.03 0.10231,0.0427 z m 1.11336,0 h -0.0815 l -0.0113,-0.0758 c 0.0385,-0.0176 0.0762,-0.037 0.11289,-0.0586 z m 1.85632,0 h -0.0857 l -0.0332,-0.21942 c 0,-0.0416 -0.0363,-0.0759 -0.0811,-0.0759 h -0.0614 c -0.0448,0 -0.0815,0.0342 -0.0815,0.0759 l -0.0332,0.21942 h -0.0811 l -0.0332,-0.21942 c 0,-0.0416 -0.0367,-0.0759 -0.0815,-0.0759 h -0.0614 c -0.0448,0 -0.0811,0.0342 -0.0811,0.0759 l -0.0332,0.21942 h -0.0797 l -0.0332,-0.21942 c 0,-0.0416 -0.0367,-0.0759 -0.0811,-0.0759 h -0.0617 c -0.0444,0 -0.0811,0.0342 -0.0811,0.0759 l -0.0332,0.21942 h -0.0815 l -0.0332,-0.21942 c 0,-0.0416 -0.0367,-0.0759 -0.0811,-0.0759 h -0.0614 c -0.0448,0 -0.0815,0.0342 -0.0815,0.0759 l -0.0332,0.21942 h -0.0765 l -0.0332,-0.21942 c 0,-0.0247 -0.013,-0.0466 -0.0332,-0.0607 0.25118,-0.21696 0.42051,-0.52599 0.45579,-0.87489 0.19826,0 0.3937,0 0.58561,0 0.042,0.41839 0.27728,0.77964 0.61524,0.99377 z m 0.3714803,0 h -0.0811 l -0.005,-0.0332 c 0.0289,0.0102 0.0579,0.0194 0.0875,0.0279 z m 0.74189,0 h -0.0275 c 0.01,-0.002 0.019,-0.005 0.0286,-0.008 z m 0.32949,0 h -0.0392 l -0.0183,-0.121 c 0.0286,-0.0159 0.0561,-0.0328 0.0832,-0.0504 z m 1.4725,0 h -0.0688 l -0.0332,-0.21942 c 0,-0.0416 -0.0367,-0.0759 -0.0811,-0.0759 h -0.0614 c -0.0448,0 -0.0815,0.0342 -0.0815,0.0759 l -0.0332,0.21942 h -0.0815 l -0.0332,-0.21942 c 0,-0.0416 -0.0363,-0.0759 -0.0811,-0.0759 h -0.0614 c -0.0448,0 -0.0815,0.0342 -0.0815,0.0759 l -0.0332,0.21942 h -0.0794 l -0.0332,-0.21942 c 0,-0.0416 -0.0367,-0.0759 -0.0815,-0.0759 h -0.0614 c -0.0445,0 -0.0811,0.0342 -0.0811,0.0759 l -0.0332,0.21942 h -0.0815 l -0.0332,-0.21942 c 0,-0.0385 -0.0314,-0.0702 -0.0713,-0.0748 0.24165,-0.21626 0.40463,-0.51894 0.4392,-0.85972 0.10513,3.5e-4 0.19474,3.5e-4 0.26706,7e-4 0.0423,0.41381 0.2734,0.77117 0.60536,0.98602 z m 0.37182,0 h -0.0815 l -0.006,-0.037 c 0.0289,0.0106 0.0582,0.0201 0.0882,0.0289 z m 1.03823,-0.11006 -0.037,0.0102 -0.003,-0.007 c 0.0229,-0.012 0.0455,-0.0247 0.0677,-0.0381 l 0.006,0.0183 z m 0.29139,-0.14958 -0.0395,-0.0557 c 0.0349,-0.0325 0.0681,-0.067 0.0991,-0.10336 l 0.0363,0.11042 z m 0.80081,-0.40182 -0.002,-0.004 -0.10302,0.0522 -0.12876,-0.18098 c -0.0187,-0.0374 -0.0667,-0.0511 -0.10654,-0.031 l -0.055,0.0279 c -0.0399,0.0201 -0.0571,0.067 -0.0381,0.10407 l 0.0691,0.21096 -0.0822,0.0416 -0.12806,-0.17992 c -0.003,-0.007 -0.008,-0.0124 -0.0131,-0.0176 0.10196,-0.18168 0.16228,-0.38947 0.16934,-0.61101 0.0967,0.12418 0.22542,0.2219 0.37359,0.28152 -0.0282,0.0233 -0.0385,0.0621 -0.0226,0.0938 l 0.0695,0.2106 z m 0.2547,-0.14181 -0.0751,-0.10619 c 0.0318,0.004 0.0639,0.006 0.0967,0.007 l 0.025,0.0755 z"
     id="G-Grille"
     style="stroke-width:0.352778" />
</svg>
