<?xml version="1.0" encoding="UTF-8" standalone="no"?>
<!-- Created with Inkscape (http://www.inkscape.org/) -->

<svg
   width="16.944578mm"
   height="8.5468302mm"
   viewBox="0 0 16.944578 8.5468307"
   version="1.1"
   id="svg33402"
   sodipodi:docname="inkporter-svg-mnqw5h38.svg"
   inkscape:version="1.1.1 (3bf5ae0d25, 2021-09-20)"
   xmlns:inkscape="http://www.inkscape.org/namespaces/inkscape"
   xmlns:sodipodi="http://sodipodi.sourceforge.net/DTD/sodipodi-0.dtd"
   xmlns="http://www.w3.org/2000/svg"
   xmlns:svg="http://www.w3.org/2000/svg">
  <sodipodi:namedview
     id="namedview555"
     pagecolor="#ffffff"
     bordercolor="#666666"
     borderopacity="1.0"
     inkscape:pageshadow="2"
     inkscape:pageopacity="0.0"
     inkscape:pagecheckerboard="0"
     inkscape:document-units="mm"
     showgrid="false"
     inkscape:zoom="0.45254834"
     inkscape:cx="-40.879611"
     inkscape:cy="98.332037"
     inkscape:window-width="3072"
     inkscape:window-height="1665"
     inkscape:window-x="1912"
     inkscape:window-y="-8"
     inkscape:window-maximized="1"
     inkscape:current-layer="svg33402" />
  <defs
     id="defs13927" />
  <path
     d="m 6.0243185,8.51199 c 0,-0.0183 -0.6676,-0.0301 -1.54524,-0.0272 -0.85266,0.002 -1.54999,-0.01 -1.55582,-0.0268 -0.006,-0.0175 -0.0795,-0.0335 -0.16361,-0.0357 -0.0842,-0.002 -0.15304,-0.0212 -0.15304,-0.0423 0,-0.0411 -0.18644,-0.16298 -0.24938,-0.16298 -0.021,0 -0.0789,-0.0408 -0.12871,-0.0906 -0.0538,-0.0539 -0.11346,-0.0817 -0.14709,-0.0688 -0.0356,0.0136 -0.0566,0.002 -0.0566,-0.0326 0,-0.0541 -0.14722,-0.17169 -0.215,-0.17169 -0.0197,0 -0.0799,-0.041 -0.13384,-0.0909 -0.054,-0.05 -0.11939,-0.0909 -0.14544,-0.0909 -0.026,0 -0.0916,-0.041 -0.14576,-0.0912 -0.0541,-0.0501 -0.11632,-0.0874 -0.13821,-0.0828 -0.0219,0.005 -0.0861,-0.0352 -0.14269,-0.0884 -0.0566,-0.0532 -0.12611001,-0.0878 -0.15452001,-0.0769 -0.0314,0.0121 -0.0517,-0.003 -0.0517,-0.0387 0,-0.0321 -0.0251,-0.0583 -0.0558,-0.0583 -0.0834,0 -0.23505,-0.10988 -0.23505,-0.17025 0,-0.0369 -0.0227,-0.0457 -0.0753,-0.0289 -0.0903,0.0286 -0.21554,-0.0708 -0.21554,-0.17097 0,-0.039 -0.0387,-0.0827 -0.0909,-0.10259 -0.05,-0.019 -0.0909,-0.0594 -0.0909,-0.09 0,-0.0305 -0.0175,-0.0554 -0.0388,-0.0554 -0.023,0 -0.0288,-0.0315 -0.0143,-0.0772 0.0154,-0.0486 0.006,-0.0886 -0.0248,-0.10772 -0.0697,-0.043 -0.0769,-0.61148 -0.009,-0.69 0.0272,-0.0314 0.0551,-0.10859 0.062,-0.17182 0.008,-0.0709 0.0497,-0.14406 0.1095,-0.19114 0.11568,-0.091 0.12242,-0.17418 0.0242,-0.29903 -0.0992,-0.12614 -0.0917,-0.1619 0.0399,-0.19082 0.0933,-0.0205 0.10986,-0.0391 0.0965,-0.1087 -0.0139,-0.0725 -0.007,-0.0786 0.0482,-0.0439 0.0473,0.0296 0.14077,0.0277 0.35444,-0.007 0.15959,-0.026 0.39400001,-0.0413 0.52090001,-0.0343 l 0.23072,0.0129 0.0114,-0.11821 0.0114,-0.1182 0.25221,0.0235 c 0.18003,0.0167 0.2522,0.0115 0.2522,-0.0186 0,-0.0476 0.28498,-0.0176 0.34359,0.0363 0.0735,0.0674 0.16543,0.034 0.16543,-0.0603 0,-0.11695 0.0913,-0.1535 0.18086,-0.0724 0.088,0.0796 0.15322,0.0408 0.12438,-0.0741 -0.0129,-0.0514 -0.006,-0.0887 0.0154,-0.0887 0.0955,0 0.15663,-0.11932 0.13295,-0.25948 l -0.0237,-0.14047 h 0.1456 c 0.0801,0 0.15165,-0.0181 0.15904,-0.0403 0.008,-0.0239 0.17622,-0.0517 0.41206,-0.0683 0.21925,-0.0154 0.43544,-0.04 0.48043,-0.0548 0.052,-0.017 0.0818,-0.0121 0.0818,0.0138 0,0.0223 0.0409,0.0406 0.0909,0.0406 0.0657,0 0.0909,-0.0196 0.0909,-0.0706 0,-0.0388 -0.0164,-0.0807 -0.0364,-0.0931 -0.0765,-0.0473 -0.031,-0.0909 0.0948,-0.0909 0.12179,0 0.12957,0.007 0.10839,0.0909 -0.0228,0.0908 -0.0226,0.0909 0.24611,0.0909 0.1947,0 0.28143,0.0151 0.3142,0.0545 0.10111,0.12183 0.11613,0.049 0.10125,-0.49084 -0.008,-0.30139 -6.9e-4,-0.54538 0.017,-0.54538 0.0176,0 0.0268,-0.045 0.0205,-0.1 -0.008,-0.0716 -0.0347,-0.10324 -0.0933,-0.1116 -0.0743,-0.0109 -0.0818,-0.0312 -0.0818,-0.22724 V 1.99975 h 0.16785 c 0.15633,0 0.16635,-0.005 0.14593,-0.0818 -0.0121,-0.045 -0.0221,-0.10226 -0.0224,-0.12726 -2.7e-4,-0.0287 -0.0541,-0.0455 -0.14593,-0.0455 h -0.14544 V 1.45836 c 0,-0.20747 0.0126,-0.28567 0.0455,-0.28262 0.12187,0.0113 2.8624,-0.0537 2.97737,-0.0706 0.11251,-0.0166 0.13564,-0.0362 0.15464,-0.13119 0.0123,-0.0614 0.0465,-0.12987 0.0761,-0.15202 0.0668,-0.05 0.21266,-0.61712 0.16309,-0.63413 -0.0557,-0.0191 -0.0411,-0.0788 0.0192,-0.0788 0.03,0 0.0545,-0.0246 0.0545,-0.0545 0,-0.0299 0.0129,-0.0545 0.0286,-0.0545 0.034,0 0.0405,0.15561 0.008,0.1818 -0.0244,0.0195 -0.15383,0.58632 -0.13707,0.60049 0.009,0.009 0.83472,-0.13464 0.85643,-0.148 0.006,-0.003 0.0257,-0.10182 0.0447,-0.21858 0.026,-0.15961 0.0234,-0.2202 -0.0102,-0.24406 -0.0353,-0.025 -0.0352,-0.0356 6.9e-4,-0.0501 0.025,-0.01 0.0454,-0.0416 0.0454,-0.0699 0,-0.0283 0.0145,-0.0515 0.0321,-0.0515 0.0432,0 0.0819,0.15592 0.0448,0.1805 -0.0162,0.0109 -0.0399,0.12172 -0.0526,0.24672 l -0.0232,0.22723 0.42665,-0.003 C 10.140608,0.6496 10.676198,0.6363 11.096138,0.622 c 0.60364,-0.0208 0.80045,-0.0157 0.93982,0.024 0.097,0.0276 0.18248,0.0441 0.19005,0.0366 0.008,-0.008 0.0295,-0.12491 0.0488,-0.26078 0.0569,-0.40165 0.0105,-0.38485 1.06307,-0.38485 h 0.90333 0.0727 0.30905 c 0.28481,0 0.30905,0.005 0.30905,0.0728 0,0.0643 -0.0242,0.0727 -0.20907,0.0727 -0.19141,0 -0.20938,0.007 -0.21293,0.0818 -0.002,0.045 -0.0319,0.29684 -0.0661,0.55966 -0.0342,0.2628 -0.057,0.53868 -0.0507,0.61304 0.0111,0.13047 0.0198,0.13825 0.24785,0.22246 0.31699,0.11705 0.41196,0.22797 0.48807,0.57011 0.0577,0.25942 0.0665,0.27449 0.15569,0.26828 0.10098,-0.008 0.12127,0.0311 0.16638,0.31322 0.0194,0.12125 0.0118,0.14193 -0.0627,0.17026 l -0.0848,0.0322 0.0687,0.3024 c 0.0378,0.16632 0.0771,0.33887 0.0873,0.38346 0.0184,0.0802 0.027,0.0812 0.75175,0.0909 l 0.73313,0.01 -0.30711,0.36359 c -0.59149,0.70027 -0.95049,1.14892 -0.93318,1.16622 0.01,0.01 0.0617,6.9e-4 0.11576,-0.0199 0.12025,-0.0457 0.21692,-0.0458 0.10328,-1.1e-4 -0.0526,0.0212 -0.0736,0.0524 -0.0597,0.0886 0.0118,0.0308 0.003,0.0559 -0.0188,0.0559 -0.0221,0 -0.0403,0.0327 -0.0403,0.0727 0,0.04 0.0164,0.0728 0.0364,0.0728 0.0747,0 0.0329,0.0722 -0.0545,0.0942 -0.0653,0.0164 -0.0909,0.0474 -0.0909,0.10978 0,0.12019 -0.0652,0.10974 -0.0794,-0.0128 -0.007,-0.0632 -0.0366,-0.10445 -0.0799,-0.11267 -0.0913,-0.0174 -0.23431,0.0625 -0.26065,0.14536 -0.0117,0.0367 -0.0605,0.0767 -0.10856,0.0887 -0.0481,0.0121 -0.22692,0.17398 -0.39752,0.35982 -0.24063,0.26215 -0.31016,0.36158 -0.31016,0.44355 0,0.0581 0.0203,0.12597 0.0451,0.1508 0.0359,0.036 0.035,0.0515 -0.005,0.076 -0.0388,0.0239 -0.0282,0.0451 0.0476,0.0948 0.0688,0.045 0.10893,0.0525 0.13615,0.0252 0.047,-0.047 0.009,-0.11765 -0.0626,-0.11765 -0.0288,0 -0.0524,-0.0164 -0.0524,-0.0363 0,-0.0509 0.15813,-0.0454 0.21088,0.008 0.024,0.0239 0.0436,0.0888 0.0436,0.14417 0,0.11798 -0.0862,0.1758 -0.26201,0.1758 -0.13225,0 -0.39244,0.18254 -0.39244,0.27533 0,0.0299 -0.0355,0.0519 -0.084,0.0519 -0.0462,0 -0.12362,0.0368 -0.172,0.0818 -0.0484,0.045 -0.10321,0.0768 -0.12183,0.0708 -0.0565,-0.0185 -0.23364,0.0687 -0.25554,0.12576 -0.0113,0.0294 -0.0351,0.0445 -0.053,0.0334 -0.0444,-0.0274 -0.25894,0.0505 -0.25894,0.094 0,0.0192 -0.0286,0.0309 -0.0636,0.0259 -0.0806,-0.0117 -0.23811,0.0394 -0.26888,0.0874 -0.0129,0.0201 -0.0774,0.0408 -0.14322,0.046 -0.0659,0.005 -0.13713,0.0317 -0.15834,0.0588 -0.0212,0.0272 -0.0867,0.0518 -0.14564,0.0549 -0.0589,0.003 -0.12433,0.0288 -0.14543,0.0573 -0.0211,0.0286 -0.10249,0.0623 -0.18085,0.0748 -0.0784,0.0126 -0.15436,0.0422 -0.16887,0.0655 -0.0145,0.0235 -0.0976,0.048 -0.18473,0.0544 -0.0871,0.007 -0.18291,0.0138 -0.2129,0.0163 -0.03,0.002 -0.10363,-0.003 -0.16362,-0.0124 -0.06,-0.01 -0.13077,4.2e-4 -0.15729,0.0217 -0.0301,0.0243 -0.0574,0.0258 -0.0727,0.004 -0.0311,-0.044 -0.18989,-0.0438 -0.25869,4.2e-4 -0.0345,0.0223 -0.0573,0.0191 -0.0667,-0.009 -0.0191,-0.0573 -0.25218,-0.0551 -0.27332,0.002 -0.0133,0.0364 -0.0263,0.0364 -0.0648,0 -0.0605,-0.057 -0.22364,-0.0591 -0.27932,-0.003 -0.029,0.029 -0.0567,0.0306 -0.0891,0.005 -0.0585,-0.0462 -0.1785095,-0.0481 -0.2350295,-0.003 -0.0268,0.0211 -0.0703,0.0162 -0.11739,-0.0132 -0.0592,-0.0369 -0.0989,-0.0377 -0.18997,-0.003 -0.0633,0.0239 -0.13323,0.0322 -0.15529,0.0185 -0.0588,-0.0367 -0.20374,-0.0391 -0.20374,-0.003 0,0.0169 -0.0246,0.0307 -0.0545,0.0307 -0.03,0 -0.0545,-0.0164 -0.0545,-0.0364 0,-0.0484 -0.20736,-0.0469 -0.23742,0.002 -0.0148,0.024 -0.0392,0.0256 -0.0658,0.004 -0.0536,-0.0432 -2.67272,-0.0443 -2.69938,-8.3e-4 -0.0255,0.0412 -0.0879,0.0406 -0.0879,-6.9e-4 z m -2.30604,-0.28621 c -0.0369,-0.0369 -0.1038,0.0544 -0.0745,0.10182 0.0201,0.0324 0.0365,0.0278 0.062,-0.0177 0.0191,-0.0341 0.0247,-0.0719 0.0126,-0.084 z m 0.36669,0.0257 c 0.0172,-0.0862 0.039,-0.10848 0.0976,-0.1 0.0456,0.007 0.0838,0.0468 0.0967,0.10171 0.0318,0.13561 0.13346,0.13699 0.16306,0.002 0.0263,-0.11986 0.15155,-0.15849 0.18338,-0.0566 0.009,0.0299 0.0246,0.0788 0.0338,0.10848 0.0238,0.0764 0.12213,0.0284 0.1356,-0.0661 0.0172,-0.12087 0.16583,-0.12724 0.19566,-0.009 0.0297,0.11853 0.10985,0.12065 0.1392,0.003 0.0182,-0.0727 -0.008,-0.12007 -0.13853,-0.2506 -0.17992,-0.17991 -0.24891,-0.29639 -0.30996,-0.52333 -0.0388,-0.14437 -0.0499,-0.15453 -0.16857,-0.15453 -0.0704,0 -0.1328,0.0203 -0.14002,0.0454 -0.0713,0.24872 -0.16484,0.42299 -0.31543,0.58777 -0.11039,0.12078 -0.17177,0.21794 -0.16038,0.25389 0.0102,0.032 0.0261,0.0828 0.0355,0.11277 0.0303,0.0971 0.129,0.0606 0.15241,-0.0564 z m 1.32853,0.0309 c -0.0233,-0.0233 -0.0545,-0.0304 -0.0692,-0.0155 -0.0147,0.0147 -0.003,0.0414 0.0256,0.0592 0.0679,0.0421 0.0986,0.0113 0.0436,-0.0437 z m 1.09238,-0.0109 c 0.011,-0.0574 8.2e-4,-0.0909 -0.0277,-0.0909 -0.0631,0 -0.13772,0.0981 -0.10947,0.14385 0.0427,0.069 0.11949,0.0393 0.13714,-0.053 z m 0.36741,-0.0182 c 0.0302,-0.15112 0.14825,-0.14838 0.20161,0.005 0.0334,0.0958 0.0483,0.10663 0.0945,0.0683 0.0301,-0.025 0.0548,-0.0761 0.0548,-0.11375 0,-0.10247 0.13984,-0.0877 0.18045,0.0191 0.0513,0.1348 0.10204,0.14266 0.12899,0.02 0.0191,-0.0871 0.0413,-0.10903 0.10146,-0.10029 0.0466,0.007 0.0851,0.046 0.0977,0.0994 0.031,0.13227 0.10723,0.13466 0.15621,0.005 0.052,-0.13777 0.18251,-0.1437 0.20158,-0.009 0.008,0.0554 0.0324,0.08 0.0723,0.0723 0.11669,-0.0225 0.0845,-0.13185 -0.0846,-0.28777 -0.19987,-0.18423 -0.32429,-0.38646 -0.38326,-0.62291 l -0.0431,-0.1727 h -0.28225 -0.28224 l -0.0426,0.1691 c -0.0594,0.23608 -0.13008,0.36039 -0.32032,0.56379 -0.10583,0.11312 -0.14446,0.17606 -0.10808,0.17606 0.0334,0 0.0665,0.0448 0.0806,0.10903 0.0158,0.0718 0.0463,0.10914 0.0893,0.10914 0.0434,0 0.0726,-0.0365 0.0871,-0.10914 z m 2.70721,0.01 c 0.0207,-0.14004 0.1671,-0.13366 0.19406,0.009 0.022,0.11589 0.11862,0.10608 0.16498,-0.0168 0.0489,-0.1296 0.1445995,-0.11735 0.1798295,0.0229 0.0285,0.11371 0.13004,0.0982 0.15895,-0.0242 0.0136,-0.0576 0.0468,-0.0907 0.0909,-0.0907 0.0441,0 0.0773,0.0331 0.0908,0.0907 0.0319,0.13507 0.13099,0.13627 0.15786,0.002 0.0288,-0.14406 0.12646,-0.14499 0.18054,-0.002 0.0226,0.06 0.0602,0.10914 0.0835,0.10914 0.0576,0 0.0966,-0.15977 0.0435,-0.17788 -0.023,-0.009 -0.11505,-0.0814 -0.20452,-0.16361 -0.15773,-0.14482 -0.36978,-0.51708 -0.36984,-0.64928 -2e-5,-0.048 -0.0301,-0.0637 -0.12153,-0.0637 -0.11166,0 -0.12513,0.0126 -0.16637,0.15453 -0.0659,0.22691 -0.2662795,0.51197 -0.4553195,0.64772 -0.15843,0.11377 -0.19548,0.17396 -0.14077,0.22868 0.0428,0.0427 0.10174,0.003 0.11347,-0.0763 z M 12.532508,7.99946 c 0,-0.04 -0.0154,-0.0728 -0.0342,-0.0728 -0.0488,0 -0.0832,0.0662 -0.0567,0.10914 0.038,0.0615 0.0909,0.0403 0.0909,-0.0364 z m 0.32142,-0.1663 c 0.0178,-0.15256 0.0833,-0.17704 0.17448,-0.0652 0.0938,0.11498 0.16243,0.0854 0.15097,-0.0649 -0.006,-0.0757 -0.037,-0.12478 -0.10038,-0.15777 -0.0506,-0.0263 -0.13167,-0.0903 -0.18015,-0.14224 -0.10055,-0.10761 -0.14819,-0.11968 -0.14819,-0.0375 0,0.0314 -0.034,0.13585 -0.0755,0.23234 l -0.0755,0.17543 0.0846,0.0908 c 0.1059,0.11369 0.15382,0.10499 0.16965,-0.0309 z M 1.9851485,7.43304 c -0.0236,-0.0985 -0.0474,-0.19716 -0.0529,-0.21911 -0.006,-0.0251 -0.0992,-0.0367 -0.24996,-0.0314 -0.13199,0.005 -0.24895,-0.005 -0.25991,-0.0237 -0.0373,-0.0604 -0.0812,-0.0323 -0.11898,0.076 -0.047,0.1347 -0.002,0.16904 0.11891,0.09 0.11122,-0.0729 0.17295,-0.0403 0.16474,0.0871 -0.0102,0.15897 -0.002,0.167 0.0856,0.0847 0.0709,-0.0666 0.094,-0.0718 0.14758,-0.0326 0.0513,0.0376 0.0565,0.065 0.0268,0.14294 -0.0457,0.12025 0.0199,0.15833 0.11579,0.0672 0.0579,-0.0551 0.0604,-0.082 0.0223,-0.24116 z M 13.477828,7.67198 c 0,-0.02 -0.0245,-0.0364 -0.0545,-0.0364 -0.03,0 -0.0545,0.0164 -0.0545,0.0364 0,0.02 0.0245,0.0364 0.0545,0.0364 0.03,0 0.0545,-0.0164 0.0545,-0.0364 z m 2.50433,-2.79967 c 0.2024,-0.24001 0.368,-0.45271 0.368,-0.47268 0,-0.0784 -0.0963,-0.0259 -0.19998,0.10914 -0.11682,0.15216 -0.16361,0.17815 -0.16361,0.0909 0,-0.0357 -0.0358,-0.0545 -0.10355,-0.0545 -0.0856,0 -0.1149,0.0251 -0.16914,0.14543 -0.0361,0.08 -0.0795,0.14544 -0.0964,0.14544 -0.017,0 -0.0308,0.0164 -0.0308,0.0363 0,0.02 0.0491,0.0364 0.10907,0.0364 0.13675,0 0.14406,0.0638 0.009,0.0794 -0.0895,0.01 -0.10116,0.0277 -0.11116,0.16603 -0.006,0.085 -0.004,0.15452 0.005,0.15452 0.009,0 0.18146,-0.19636 0.38385,-0.43637 z m -0.43189,-0.34749 c 0,-0.0288 -0.0164,-0.0524 -0.0364,-0.0524 -0.02,0 -0.0364,0.0336 -0.0364,0.0748 0,0.0412 0.0164,0.0648 0.0364,0.0523 0.02,-0.0123 0.0364,-0.046 0.0364,-0.0748 z M 2.7520485,4.47312 c 0,-0.0154 -0.0231,-0.0472 -0.0513,-0.0706 -0.0609,-0.0505 -0.1123,0.007 -0.0805,0.0894 0.0198,0.0517 0.13185,0.0358 0.13185,-0.0188 z m 0.26814,-0.13866 c 0.01,-0.0159 0.004,-0.0507 -0.012,-0.0775 -0.0387,-0.0627 -0.11391,-0.0168 -0.0871,0.053 0.0224,0.0583 0.0707,0.0701 0.099,0.0244 z M 16.668288,4.05771 c 0.085,-0.1063 0.15453,-0.20369 0.15453,-0.21644 0,-0.0128 -0.17998,-0.0232 -0.39994,-0.0232 -0.36797,0 -0.5013,0.0356 -0.33305,0.089 0.0368,0.0117 0.0886,0.0618 0.11521,0.11152 0.0311,0.058 0.0798,0.0904 0.13649,0.0904 0.0576,0 0.0947,0.0252 0.10717,0.0727 0.0105,0.04 0.0294,0.072 0.042,0.071 0.0127,-8.3e-4 0.0926,-0.0887 0.17755,-0.19497 z m -1.04024,-0.16569 0.0858,-0.0715 -0.11817,-0.002 c -0.0943,-8.3e-4 -0.11816,0.0134 -0.11816,0.0714 0,0.0917 0.0415,0.092 0.15049,0.002 z M 6.1152185,3.71096 c 0.02,0.002 0.31859,0.0116 0.66354,0.0218 l 0.62719,0.0187 0.006,-0.10302 0.005,-0.10302 0.0151,0.1 c 0.0124,0.0819 0.0337,0.1 0.11791,0.1 0.13107,0 0.16115,-0.0784 0.0826,-0.21523 -0.064,-0.11158 -0.0392,-0.19373 0.0358,-0.11866 0.0666,0.0666 0.1012,0.0514 0.1012,-0.0449 0,-0.0484 0.0142,-0.0933 0.0315,-0.1 0.0174,-0.007 0.043,-0.0489 0.057,-0.094 0.0225,-0.0724 0.0128,-0.0818 -0.0841,-0.0818 -0.10196,0 -0.33834,-0.0578 -1.48561,-0.36329 -0.42798,-0.11396 -0.44412,-0.12176 -0.42327,-0.20481 0.0201,-0.0802 0.0113,-0.0863 -0.12556,-0.0863 -0.081,0 -0.15822,0.0178 -0.17166,0.0396 -0.0134,0.0217 -0.0553,0.0315 -0.093,0.0215 -0.0522,-0.0137 -0.0686,0.002 -0.0686,0.0635 0,0.0448 0.0121,0.0935 0.027,0.10838 0.0148,0.0148 0.0218,0.23434 0.0155,0.4878 l -0.0115,0.46085 0.11178,-0.10673 c 0.0615,-0.0588 0.11178,-0.12827 0.11178,-0.15452 0,-0.0658 0.09,-0.06 0.14773,0.01 0.0303,0.0365 0.0344,0.0662 0.0114,0.0818 -0.14614,0.0989 -0.30453,0.23929 -0.30453,0.26993 0,0.0237 0.10028,0.0284 0.28178,0.0132 0.15498,-0.0129 0.29814,-0.0222 0.31814,-0.0204 z m 9.2766595,-0.9321 c -0.0268,-0.1955 -0.0457,-0.23332 -0.11645,-0.23332 -0.0619,0 -0.066,0.0768 -0.0141,0.2636 0.0235,0.0844 0.0598,0.13634 0.0956,0.13634 0.0477,0 0.0538,-0.029 0.0349,-0.16662 z M 7.9649585,2.68646 c 0.0541,-0.27075 0.13147,-0.24997 -0.92987,-0.24997 -0.55434,0 -0.93816,0.0134 -0.91806,0.0322 0.019,0.0177 0.40268,0.0932 0.85261,0.16767 0.44994,0.0745 0.82489,0.14184 0.83322,0.14961 0.057,0.0531 0.14202,8.3e-4 0.1621,-0.0995 z m -1.90428,-0.81352 v -0.1273 h -0.25027 c -0.2288,0 -0.25215,0.008 -0.27219,0.0818 -0.0446,0.16656 -0.0358,0.1727 0.24977,0.1727 h 0.27269 z m 2.06576,0.009 0.0115,-0.1 h -0.45182 c -0.2485,0 -0.52773,-0.0109 -0.62051,-0.0232 l -0.16869,-0.0232 v 0.13309 0.13308 l 0.60901,-0.01 0.609,-0.01 z M 14.168638,1.43479 c 0,-0.034 -0.23374,-0.12016 -0.26823,-0.0989 -0.0179,0.0111 0.0146,0.041 0.0724,0.0665 0.11405,0.0504 0.19588,0.0638 0.19588,0.0323 z m 0.0645,-0.67997 -0.01,-0.59084 h -0.88817 -0.88817 l -0.0268,0.10007 c -0.0147,0.0551 -0.0323,0.19171 -0.039,0.30369 l -0.0122,0.20358 0.68378,0.26907 c 0.5756,0.22651 0.70583,0.26555 0.82321,0.24678 0.0775,-0.0125 0.16945,-0.005 0.20701,0.0169 0.15576,0.0906 0.16079,0.0721 0.15028,-0.54935 z m 0.16745,-0.30906 c 0.0133,-0.20118 0.006,-0.26359 -0.0299,-0.26359 -0.035,0 -0.0519,0.1063 -0.0648,0.40902 -0.0299,0.69929 0.0465,0.58196 0.0947,-0.14543 z"
     id="G-Grille-K" />
</svg>
