<?xml version="1.0" encoding="UTF-8" standalone="no"?>
<!-- Created with Inkscape (http://www.inkscape.org/) -->

<svg
   width="23.87266mm"
   height="7.9044671mm"
   viewBox="0 0 23.87266 7.9044671"
   version="1.1"
   id="svg2397"
   sodipodi:docname="inkporter-svg-8d9qt_l4.svg"
   xmlns:inkscape="http://www.inkscape.org/namespaces/inkscape"
   xmlns:sodipodi="http://sodipodi.sourceforge.net/DTD/sodipodi-0.dtd"
   xmlns="http://www.w3.org/2000/svg"
   xmlns:svg="http://www.w3.org/2000/svg">
  <sodipodi:namedview
     id="namedview2399"
     pagecolor="#ffffff"
     bordercolor="#666666"
     borderopacity="1.0"
     inkscape:pageshadow="2"
     inkscape:pageopacity="0.0"
     inkscape:pagecheckerboard="0"
     inkscape:document-units="mm"
     showgrid="false"
     inkscape:zoom="0.66368547"
     inkscape:cx="397.02542"
     inkscape:cy="561.25984"
     inkscape:window-width="1920"
     inkscape:window-height="1017"
     inkscape:window-x="-8"
     inkscape:window-y="-8"
     inkscape:window-maximized="1"
     inkscape:current-layer="layer1" />
  <defs
     id="defs2394" />
  <g
     inkscape:label="Layer 1"
     inkscape:groupmode="layer"
     id="layer1"
     transform="translate(-84.538841,-88.935019)">
    <path
       d="m 108.4055,93.414536 c -0.0483,-0.14428 -0.18415,-0.28786 -0.39229,-0.23212 0,0 -0.0399,0.0406 0.0317,0.11218 0.0723,0.0723 0.10372,0.16863 0.0243,0.20038 -0.0797,0.0317 -0.11994,0.0801 -0.24024,-0.0159 v -0.10407 l -0.024,-0.0243 v -0.0561 h 0.14429 v -0.10372 h -0.14429 v -0.0642 l -0.0272,-0.16193 -0.55069,-2.413 -5.01086,-1.23931 h -3.086449 l -0.0462,0.0924 h -0.53129 l 0.26953,-0.44661 c 0,0 -0.0385,-0.0614 -0.1076,0.0155 -0.0695,0.0769 -0.34643,0.46954 -0.34643,0.46954 h -0.20038 l -0.38452,0.58491 h -2.87126 v -0.0691 l -2.59398,0.0307 v 0.0617 l -6.28473,0.0226 -0.0138,-0.008 h -0.35066 c 0,0 -0.0226,-0.0367 -0.066,-0.0434 -0.0434,-0.007 -0.25965,-0.0388 -0.26635,-0.0363 -0.007,0.004 -0.25753,-0.0914 -0.25753,-0.0914 v 0.0684 h -0.45543 l -0.0843,0.11395 v 0.13652 0.10266 0.13653 l 0.0843,0.11394 h 0.45543 v 0.0684 c 0,0 0.25048,-0.0935 0.25753,-0.091 0.007,0.004 0.22296,-0.0296 0.26635,-0.0367 0.0434,-0.007 0.066,-0.043 0.066,-0.043 h 0.35066 l 0.0321,-0.0183 0.024,0.005 6.25016,0.15417 v 0.0769 h 0.14641 v 0.0614 h 2.45533 v 0.21554 h -0.0695 v 0.36971 h 1.96286 l -0.254,0.39229 h -0.14605 l -0.1771,0.33126 h -2.35549 l -0.44627,0.7232 h -0.22331 c 0,0 0.005,0.26282 0.003,0.38594 l -1.33456,0.007 -0.52105,0.18697 c -0.004,-0.0374 -0.036,-0.0663 -0.0752,-0.0663 -0.0413,0 -0.0755,0.0339 -0.0755,0.0755 0,0.0236 0.0106,0.0444 0.0275,0.0586 l -0.57045,0.9518 h 0.39547 l 0.15134,0.0935 -0.0857,0.25577 h -0.10654 l -0.0162,0.0963 0.12841,0.0261 0.005,0.19756 -0.0907,0.0109 0.005,0.11183 0.11747,0.0106 0.0646,0.17603 -0.0751,0.0219 0.0324,0.11147 0.10654,-0.0155 0.10372,0.15346 -0.10054,0.16334 0.10513,0.0392 0.036,-0.0702 0.18979,0.0716 -0.067,0.10301 0.10477,0.0399 0.0684,-0.10301 0.20814,0.079 -0.0674,0.10301 0.10513,0.0395 0.0681,-0.10195 0.23848,0.09 -0.0674,0.10301 0.10477,0.0395 0.0691,-0.1023 0.2039,0.0772 -0.067,0.10337 0.10442,0.0392 0.0684,-0.10196 0.27587,0.10372 -0.0674,0.10266 0.10513,0.0402 0.0681,-0.10231 0.17251,0.0649 0.0437,0.0169 -0.0674,0.10266 0.10513,0.0395 0.0684,-0.1023 0.18203,0.0691 -0.0677,0.10266 0.10478,0.0395 0.0688,-0.1023 0.20214,0.0769 -0.0335,0.15099 h 0.11253 l 0.0279,-0.11959 h 0.23319 l -0.0265,0.11959 h 0.11218 l 0.0275,-0.11959 h 0.2032 l -0.0268,0.11959 h 0.11218 l 0.0279,-0.11959 h 0.22225 l -0.0258,0.11959 h 0.11148 l 0.0282,-0.11959 h 0.254 l -0.0258,0.11959 h 0.11183 l 0.0282,-0.11959 h 0.21837 l -0.0268,0.11959 h 0.11253 l 0.0275,-0.11959 h 0.29422 l -0.0258,0.11959 h 0.11183 l 0.0286,-0.11959 h 0.23001 l -0.0261,0.11959 h 0.11183 l 0.0275,-0.11959 h 0.19509 l -0.0268,0.11959 h 0.11218 l 0.0282,-0.11959 h 0.23037 l -0.0265,0.11959 h 0.11218 l 0.0279,-0.11959 h 0.24236 l -0.0261,0.11959 h 0.11113 l 0.0289,-0.11959 h 0.23001 l -0.0261,0.11959 h 0.11183 l 0.0279,-0.11959 h 0.22684 l -0.0268,0.11959 h 0.11218 l 0.0282,-0.11959 h 0.23037 l -0.0268,0.11959 h 0.11254 l 0.0275,-0.11959 h 0.29457 l -0.0261,0.11959 h 0.11183 l 0.0286,-0.11959 h 0.23001 l -0.0261,0.11959 h 0.11183 l 0.0282,-0.11959 h 0.19438 l -0.0268,0.11959 h 0.11184 l 0.0282,-0.11959 h 0.23107 l -0.0272,0.11959 h 0.11289 l 0.0272,-0.11959 h 0.238469 l -0.0261,0.11959 h 0.11218 l 0.0282,-0.11959 h 0.23037 l -0.0268,0.11959 h 0.11253 l 0.0275,-0.11959 h 0.21449 l -0.0265,0.11959 h 0.11218 l 0.0282,-0.11959 h 0.21836 l -0.0261,0.11959 h 0.11183 l 0.0275,-0.11959 h 0.19508 l -0.0268,0.11959 h 0.11254 l 0.0275,-0.11959 h 0.24695 l -0.0272,0.11959 h 0.11289 l 0.0272,-0.11959 h 0.22648 l -0.0257,0.11959 h 0.11148 l 0.0286,-0.11959 h 0.24236 l -0.0261,0.11959 h 0.11183 l 0.0279,-0.11959 h 0.25859 l -0.0268,0.11959 h 0.11253 l 0.0275,-0.11959 h 0.24236 l -0.0261,0.11959 h 0.11183 l 0.0282,-0.11959 h 0.21872 l -0.0265,0.11959 h 0.11183 l 0.0279,-0.11959 h 0.20638 l -0.0265,0.11959 h 0.11218 l 0.0279,-0.11959 h 0.22296 l -0.0268,0.11959 h 0.11289 l 0.0268,-0.11959 h 0.27164 l 0.004,0.0935 0.10795,-0.0293 -0.004,-0.12311 0.21837,-0.0589 0.005,0.12206 0.10831,-0.0289 -0.004,-0.12311 0.23389,-0.0635 0.006,0.12241 0.10795,-0.0289 -0.005,-0.12347 0.24977,-0.0677 0.006,0.12312 0.10795,-0.0296 -0.004,-0.12276 0.23389,-0.0639 0.006,0.12277 0.1083,-0.0296 -0.004,-0.12242 0.21025,-0.0579 0.006,0.12276 0.10795,-0.0296 -0.005,-0.12312 0.20073,-0.0543 0.0409,0.12383 0.0963,-0.0571 -0.0378,-0.11748 0.16157,-0.0953 0.10936,0.0635 0.096,-0.0589 -0.0744,-0.10125 0.12242,-0.14922 0.11677,0.0476 0.0483,-0.085 -0.11219,-0.0748 0.0752,-0.20814 0.1598,0.0162 0.0109,-0.11218 -0.12806,-0.0268 0.0265,-0.17039 0.0907,-0.005 0.008,-0.0829 0.0797,-0.0208 h 0.37676 v -0.10442 h -0.0243 c 0.0561,-0.0116 0.12806,-0.0498 0.12806,-0.0498 l 10e-4,-0.0102 c 0.10372,0.0314 0.29316,0.0367 0.27905,-0.15628 -0.0127,-0.17074 -0.13547,-0.19085 -0.23389,-0.17215 l 0.10336,-0.75107 c 0.19791,-0.0797 0.30621,-0.25153 0.26635,-0.37324 m -23.324609,-3.07057 c 0,0.0162 -0.004,0.0455 -0.043,0.0455 h -0.18909 c -0.0363,0 -0.0501,-0.0363 -0.0501,-0.0751 v -0.0977 c 0,-0.0388 0.0138,-0.0751 0.0501,-0.0751 h 0.18909 c 0.0388,0 0.043,0.0296 0.043,0.0455 v 0.0434 0.0706 z m 0.34643,-0.0134 c 0,0 -0.0822,0.0409 -0.14358,0.066 -0.0614,0.0251 -0.0568,-0.0409 -0.0568,-0.066 0,-0.0152 -0.002,-0.042 -0.003,-0.0649 0.001,-0.0229 0.003,-0.0501 0.003,-0.0649 0,-0.0251 -0.005,-0.0914 0.0568,-0.0663 0.0614,0.025 0.14358,0.0663 0.14358,0.0663 v 0.0409 0.0476 z m 20.421599,5.1495 -0.18239,0.19932 c -0.004,-0.004 -0.007,-0.007 -0.0113,-0.0109 -0.0346,-0.0381 -0.0564,-0.0822 -0.0705,-0.11677 z m -13.320889,0.59196 -0.0822,-0.0318 0.055,-0.0974 0.004,-0.004 0.0268,0.0698 h 0.01 z m 0.31044,0.11712 -0.0822,-0.031 0.0642,-0.11324 0.0445,0.0173 z m 0.38171,0.14393 -0.0822,-0.0303 0.0642,-0.11289 0.0441,0.0173 z m 0.32173,0.12242 -0.0822,-0.0314 0.0642,-0.11218 0.0448,0.0166 z m 0.10442,0.0437 -0.031,-0.0116 0.036,-0.19614 -0.18379,-0.0692 -0.10937,0.16792 -0.0642,-0.0243 0.0353,-0.19685 -0.18274,-0.0688 -0.11007,0.16792 -0.12418,-0.0466 0.0353,-0.1965 -0.18274,-0.0695 -0.11006,0.16792 -0.0533,-0.0201 0.0183,-0.10266 0.10372,-0.0116 0.005,-0.1016 0.11253,-0.0265 0.0635,0.0533 0.12806,-0.0748 -0.037,-0.0744 0.096,-0.0744 0.0639,0.0578 0.0667,-0.085 h 0.45297 c -0.0568,0.0974 -0.09,0.21061 -0.09,0.33232 0,0.14781 0.0494,0.28469 0.13229,0.39511 z m 0.18345,0.0653 -0.0815,-0.0311 0.0363,-0.0653 c 0.018,0.0173 0.0363,0.0332 0.0557,0.0483 z m 0.0963,0.0406 -0.0226,-0.008 0.006,-0.0332 c 0.007,0.005 0.0148,0.01 0.0222,0.0138 z m 0.10019,0.0268 0.002,-0.0134 c 0.0138,0.005 0.0275,0.009 0.042,0.0134 z m 0.39299,0 c 0.0131,-0.004 0.0265,-0.008 0.0395,-0.0127 l 0.002,0.0127 z m 0.16228,0.004 h -0.0406 l -0.009,-0.0459 c 0.0236,-0.0116 0.0469,-0.0243 0.0684,-0.0388 z m 0.1076,-0.004 0.0201,-0.12841 h 0.0483 l 0.0194,0.12841 z m 0.33619,0 0.0198,-0.12841 h 0.0483 l 0.0194,0.12841 z m -0.0639,-0.19227 -0.0434,0.1958 h -0.0607 l -0.0363,-0.1958 h -0.0889 c 0.0554,-0.06 0.0988,-0.13052 0.12912,-0.20778 h 0.13617 c 0.0293,0.0773 0.0737,0.14781 0.12841,0.20778 z m 0.32385,0.20003 v -0.004 h -0.0921 l -0.0286,-0.15664 c 0.0402,0.0378 0.0857,0.0706 0.13441,0.0977 z m 0.10795,-0.008 0.002,-0.0141 c 0.0141,0.005 0.0282,0.01 0.0437,0.0141 z m 0.39405,0 c 0.008,-0.004 0.0169,-0.004 0.025,-0.007 l 0.001,0.007 z m 0.23919,0.004 h -0.13335 l -0.007,-0.0392 c 0.0642,-0.0293 0.12277,-0.0688 0.17428,-0.11607 z m 0.10724,-0.004 0.0201,-0.12841 h 0.0483 l 0.0194,0.12841 z m 0.34361,0 0.0208,-0.12841 h 0.0473 l 0.0201,0.12841 z m 0.20143,0.004 h -0.0332 l -0.036,-0.1958 h -0.19579 l -0.043,0.1958 h -0.0688 l -0.0363,-0.1958 h -0.1651 c 0.1076,-0.11747 0.17286,-0.27305 0.17286,-0.44379 0,-0.12171 -0.0328,-0.23495 -0.0903,-0.33232 h 0.37253 c -0.0564,0.0974 -0.0903,0.21061 -0.0903,0.33232 0,0.20567 0.0942,0.38947 0.24236,0.51012 z m 0.10725,-0.004 0.0102,-0.0653 c 0.0236,0.0138 0.0476,0.0268 0.073,0.0378 l 0.004,0.0275 z m 0.16757,0.004 -3.6e-4,-0.004 c 0.005,0 0.009,0.004 0.0138,0.004 z m 0.42545,0 h -0.0811 l -7.1e-4,-0.004 c 0.0303,-0.008 0.0607,-0.0176 0.0892,-0.0296 z m 0.10689,-0.004 0.0145,-0.0928 c 0.0159,-0.0116 0.0314,-0.0229 0.0466,-0.0356 h 0.007 l 0.0205,0.12841 z m 0.3436,0 0.0208,-0.12841 h 0.0476 l 0.0205,0.12841 z m 0.23354,0.004 h -0.0649 l -0.036,-0.1958 h -0.19615 l -0.043,0.1958 h -0.0688 l -0.0363,-0.1958 h -0.005 c 0.055,-0.06 0.0988,-0.13052 0.12876,-0.20778 h 0.13653 c 0.043,0.11289 0.11642,0.21096 0.21061,0.28434 z m 0.10725,-0.004 0.008,-0.0561 c 0.0243,0.0134 0.0501,0.0247 0.0762,0.0346 l 0.003,0.0215 z m 0.64487,0.004 h -0.13299 l -0.001,-0.007 c 0.0536,-0.0155 0.10336,-0.0378 0.15098,-0.0656 z m 0.10725,-0.004 0.0201,-0.12841 h 0.048 l 0.0198,0.12841 z m 0.34396,0 0.0197,-0.12841 h 0.0483 l 0.0198,0.12841 z m 0.24412,-0.19227 -0.0434,0.1958 h -0.0321 l -0.0363,-0.1958 h -0.19579 l -0.0437,0.1958 h -0.0688 l -0.036,-0.1958 h -0.0727 c 0.10653,-0.11747 0.1725,-0.27305 0.1725,-0.44379 0,-0.12171 -0.0324,-0.23495 -0.0899,-0.33232 h 0.36441 c -0.0568,0.0974 -0.09,0.21061 -0.09,0.33232 0,0.17074 0.0656,0.32632 0.17286,0.44379 z m 0.0646,0.19227 0.018,-0.11642 c 0.018,0.0148 0.0374,0.0275 0.0575,0.0402 l 0.012,0.0762 z m 0.23671,0.004 h -0.0691 l -0.007,-0.0339 c 0.0254,0.0106 0.0512,0.0194 0.0773,0.0272 z m 0.351719,0 h -0.006 c 0.002,0 0.004,0 0.007,-0.004 z m 0.1076,-0.004 0.005,-0.0381 c 0.0247,-0.0113 0.048,-0.024 0.0713,-0.0381 l 0.0113,0.0762 z m 0.34396,0 0.0201,-0.12841 h 0.048 l 0.0198,0.12841 z m 0.26423,-0.19227 -0.043,0.1958 h -0.0533 l -0.036,-0.1958 h -0.1958 l -0.0437,0.1958 h -0.0688 l -0.0233,-0.12771 c 0.0885,-0.0727 0.15805,-0.16757 0.19932,-0.27587 h 0.13653 c 0.03,0.0773 0.0734,0.14781 0.12876,0.20778 z m 0.0639,0.19227 0.018,-0.11642 c 0.0187,0.0148 0.0381,0.0275 0.0582,0.0402 l 0.0116,0.0762 z m 0.22507,0.004 h -0.0575 l -0.006,-0.0339 c 0.0215,0.009 0.043,0.0169 0.0656,0.024 z m 0.41487,-0.004 0.002,-0.0141 c 0.0279,-0.009 0.0533,-0.0205 0.0787,-0.0328 l 0.007,0.0469 z m 0.36018,0 0.0198,-0.12841 h 0.0487 l 0.0194,0.12841 z m 0.34079,0 0.019,-0.12841 h 0.0483 l 0.0201,0.12841 z m 0.248,0.004 h -0.0808 l -0.0356,-0.1958 h -0.19614 l -0.043,0.1958 h -0.0653 l -0.036,-0.1958 h -0.19614 l -0.043,0.1958 h -0.0847 l -0.0169,-0.0917 c 0.17709,-0.11818 0.29281,-0.31961 0.29281,-0.54786 0,-0.12171 -0.0328,-0.23495 -0.0903,-0.33232 h 0.39688 c -0.0571,0.0974 -0.0907,0.21061 -0.0907,0.33232 0,0.23424 0.12312,0.43991 0.30727,0.55668 z m 0.19544,-0.004 h -0.0882 l 0.005,-0.0289 c 0.0268,0.0113 0.0547,0.0205 0.0833,0.0286 z m 0.1718,0.0265 v -0.004 h 7.1e-4 z m 0.17851,-0.0265 c 0.007,-0.004 0.0141,-0.004 0.0212,-0.006 l 7.1e-4,0.006 z m 0.18309,0.004 h -0.0811 l -0.007,-0.0374 c 0.0385,-0.0173 0.0758,-0.0381 0.10971,-0.0624 z m 0.10689,-0.004 0.0201,-0.12841 h 0.048 l 0.0205,0.12841 z m 0.26847,-0.19227 -0.0434,0.1958 h -0.0568 l -0.0367,-0.1958 h -0.10831 c 0.0547,-0.06 0.0991,-0.13052 0.12842,-0.20778 h 0.13652 c 0.03,0.0773 0.0737,0.14781 0.12841,0.20778 z m 0.0639,0.19227 0.0194,-0.12841 h 0.0487 l 0.0198,0.12841 z m 0.21272,0.004 h -0.0451 l -0.0254,-0.13935 c 0.0275,0.0236 0.0564,0.0444 0.0875,0.0632 z m 0.10725,-0.004 0.004,-0.025 c 0.0236,0.01 0.0487,0.018 0.0741,0.025 z m 0.50412,0.004 -0.005,-0.0275 c 0.0307,-0.0127 0.0593,-0.0275 0.0878,-0.0444 l 0.004,0.072 z m 0.18697,-0.0625 -0.008,-0.0776 c 0.0169,-0.0148 0.0332,-0.0303 0.0487,-0.0466 l 0.0448,0.10054 z m 0.32843,-0.0892 -0.0141,-0.12876 0.0462,-0.0131 0.0529,0.11889 z m 0.34361,-0.0935 -0.0141,-0.12876 0.0462,-0.0127 0.0529,0.11889 z m 0.35913,-0.0974 -0.0145,-0.12841 0.0466,-0.0127 0.0526,0.11818 z m 0.16333,-0.0406 -0.0864,-0.17886 -0.18909,0.0512 0.0106,0.22261 -0.005,-0.0215 -0.0893,0.0243 -0.0861,-0.17992 -0.18839,0.0519 0.01,0.20038 -0.0783,0.0208 -0.0861,-0.17956 -0.18944,0.0515 0.01,0.20038 -0.0628,0.0173 -0.0702,-0.14711 c 0.0804,-0.10936 0.12806,-0.24412 0.12806,-0.38982 0,-0.09 -0.018,-0.17604 -0.0512,-0.254 l 0.48648,-0.13159 c 0.0572,0.12594 0.21625,0.381 0.61066,0.51435 l 0.005,0.10725 z m 0.18027,-0.0526 -0.005,-0.0455 c 0.0286,0.008 0.0582,0.0145 0.0892,0.0208 h 7.1e-4 z m 0.0176,-0.29633 -0.0109,0.0635 c 0,0 -0.15487,-0.0307 -0.28258,-0.14323 l 0.31433,-0.32561 c 0,0 0.0699,0.0374 0.12841,0.043 l 0.0268,0.3623 z m 0.5454,0.0233 -0.0134,-0.0332 0.0409,-0.025 0.0254,0.031 c -0.0162,0.01 -0.0342,0.0183 -0.0529,0.0272 m 0.11712,-0.0684 -0.067,-0.0766 -0.16863,0.0998 0.0272,0.0804 c -0.012,0.004 -0.0236,0.007 -0.0363,0.01 l -0.0356,-0.0744 -0.03,-0.36724 c 0,0 0.048,-0.0374 0.0801,-0.0642 l 0.29845,0.18626 0.0106,0.13935 c 0,0 -0.0279,0.03 -0.0787,0.0667 m 0.30304,-0.40288 -0.0748,-0.005 -0.0321,0.0533 -0.32526,-0.20249 0.001,-0.0342 0.40182,-0.10866 -0.0134,0.14288 0.0692,0.0215 z m 0.45931,-0.5281 0.001,-0.008 c 0.073,0 0.13759,0 0.18698,0 v 0.007 z m 0.5327,-0.28787 c 0.0801,0.008 0.10371,0.0159 0.0875,0.0639 -0.0152,0.0476 -0.0635,0.0797 -0.10372,0.0797 -0.009,0 -0.0243,0 -0.0423,-0.004 l 0.019,-0.13899 c 0.0134,0 0.0279,-0.004 0.0395,-0.004"
       id="G-Horniesse" />
  </g>
</svg>
