<?xml version="1.0" encoding="UTF-8" standalone="no"?>
<!-- Created with Inkscape (http://www.inkscape.org/) -->

<svg
   width="35.177521mm"
   height="10.60019mm"
   viewBox="0 0 35.17752 10.600191"
   version="1.1"
   id="svg33402"
   sodipodi:docname="inkporter-svg-e7qp_36f.svg"
   inkscape:version="1.1.1 (3bf5ae0d25, 2021-09-20)"
   xmlns:inkscape="http://www.inkscape.org/namespaces/inkscape"
   xmlns:sodipodi="http://sodipodi.sourceforge.net/DTD/sodipodi-0.dtd"
   xmlns="http://www.w3.org/2000/svg"
   xmlns:svg="http://www.w3.org/2000/svg">
  <sodipodi:namedview
     id="namedview555"
     pagecolor="#ffffff"
     bordercolor="#666666"
     borderopacity="1.0"
     inkscape:pageshadow="2"
     inkscape:pageopacity="0.0"
     inkscape:pagecheckerboard="0"
     inkscape:document-units="mm"
     showgrid="false"
     inkscape:zoom="0.32"
     inkscape:cx="889.0625"
     inkscape:cy="4120.3125"
     inkscape:window-width="1920"
     inkscape:window-height="1017"
     inkscape:window-x="-8"
     inkscape:window-y="-8"
     inkscape:window-maximized="1"
     inkscape:current-layer="svg33402" />
  <defs
     id="defs13927" />
  <path
     d="m 34.47146,6.0147305 c -0.28222,-0.31715 -0.21202,-1.09362 -0.21202,-1.09362 l 0.1591,-0.0176 -0.42333,-2.4691 -0.15875,0.0173 c 0,0 -0.0882,-0.52881 -0.14146,-0.74083 C 33.6424,1.4999205 33.25438,-0.03501948 31.82598,6.1051954e-4 31.23825,0.01511052 30.75706,0.37385052 30.3623,0.88467052 l -1.22308,0.0145 -13.28384,0.15450998 -0.008,-0.11817998 -0.0173,0.11853998 0.0173,0.14111 v 3.42794 c -3.09951,0.0109 -6.5080401,0.0335 -6.5080401,0.0335 l 0.0702,-0.19367 H 4.7359402 l -0.635,0.89958 c 0,0 -0.0709,0.0169 -0.75812,0.31715 -0.68827,0.29986 -1.84044,0.97578 -2.73403004,1.58714 -0.67028,0.45897 -0.82903,0.93487 -0.26458,1.14653 0.56444,0.21167 1.19944004,0.22931 1.19944004,0.22931 0,0 0.14076,0.12347 0.3175,0.17639 0.10266,0.0307 0.47449,0.0914 0.76659,0.13687 l 0.031,0.65793 c 0,0 0.33514,0.4212205 0.66076,0.4977705 0.32561,0.0766 1.9247497,0.01 2.2503697,-0.1150005 0.32561,-0.12453 1.45591,0.0194 1.45591,0.0194 v 0.5842 H 10.80862 c 1.47496,0 2.34632,-0.42157 2.60491,-0.5267 0.25858,-0.1054805 0.10548,-0.3450105 0.048,-0.3929905 -0.0575,-0.0476 -0.35454,-0.19121 -0.27798,-0.22013 0.0769,-0.0286 0.59407,-0.0286 0.7567,0.0289 0.16299,0.0572 0.79481,0.13406 0.97685,-0.0959 0.13652,-0.17251 0.13264,-0.43674 0.0212,-0.61066 1.62349,-0.0247 6.91797,-0.10477 7.46972,-0.10477 0.65299,0 6.70207,-0.61737 7.77804,-0.86431 1.07562,-0.24659 4.99146,-1.23472 4.99146,-1.23472 0,0 -0.42334,-0.24659 -0.70556,-0.56409 m -18.36173,-1.39277 -0.24412,-3.42724 12.84252,-0.14957 c -10.40165,3.52107 -10.40059,3.5246 -10.40059,3.5246 l 0.0166,0.048 c -0.66993,0 -1.42911,0.004 -2.21439,0.004 m 12.64708,-0.1591 c -0.37041,0.68756 -0.81103,0.58173 -1.28728,0.52916 -0.47625,-0.0533 -4.86798,-0.35313 -7.5311,-0.37077 -0.35913,-0.004 -0.81421,-0.004 -1.3328,-0.004 l 10.55758,-3.57788 1.09361,-0.0123 c -0.82585,1.1691 -1.25306,2.97674 -1.50001,3.43535"
     id="G-Hs129" />
</svg>
