<?xml version="1.0" encoding="UTF-8" standalone="no"?>
<!-- Created with Inkscape (http://www.inkscape.org/) -->

<svg
   width="18.740084mm"
   height="8.4186001mm"
   viewBox="0 0 18.740084 8.4186001"
   version="1.1"
   id="svg5"
   sodipodi:docname="inkporter-svg-kbhfuc1r.svg"
   xmlns:inkscape="http://www.inkscape.org/namespaces/inkscape"
   xmlns:sodipodi="http://sodipodi.sourceforge.net/DTD/sodipodi-0.dtd"
   xmlns="http://www.w3.org/2000/svg"
   xmlns:svg="http://www.w3.org/2000/svg">
  <sodipodi:namedview
     id="namedview7"
     pagecolor="#ffffff"
     bordercolor="#666666"
     borderopacity="1.0"
     inkscape:pageshadow="2"
     inkscape:pageopacity="0.0"
     inkscape:pagecheckerboard="0"
     inkscape:document-units="mm"
     showgrid="false"
     inkscape:zoom="0.93859299"
     inkscape:cx="163.00995"
     inkscape:cy="424.57168"
     inkscape:window-width="1920"
     inkscape:window-height="1017"
     inkscape:window-x="-8"
     inkscape:window-y="-8"
     inkscape:window-maximized="1"
     inkscape:current-layer="layer1" />
  <defs
     id="defs2" />
  <g
     inkscape:label="Layer 1"
     inkscape:groupmode="layer"
     id="layer1"
     transform="translate(-113.8176,-133.63598)">
    <path
       d="m 118.00424,142.02735 c -0.0141,-0.0141 -0.0784,-0.0275 -0.14288,-0.0296 l -0.1172,-0.004 -0.0768,-0.0768 -0.0768,-0.0767 -0.0923,0.0353 c -0.14311,0.0544 -0.19374,0.0425 -0.23051,-0.0542 -0.036,-0.0948 -0.10314,-0.11475 -0.16788,-0.0501 -0.0575,0.0575 -0.17246,0.008 -0.2189,-0.0935 -0.0222,-0.0487 -0.0688,-0.09 -0.10365,-0.0917 -0.0348,-0.004 -0.11955,-0.006 -0.18831,-0.009 l -0.12504,-0.006 -0.0113,-0.0982 -0.0113,-0.0983 h -0.0512 c -0.0282,0 -0.0512,0.0173 -0.0512,0.0382 v 0.0382 l -0.0804,-0.0116 -0.0804,-0.0113 -0.0126,-0.0893 c -0.0162,-0.11505 -0.0613,-0.14087 -0.20539,-0.11751 l -0.11689,0.0187 -0.053,-0.12675 -0.0529,-0.12675 -0.0745,0.0197 c -0.0967,0.025 -0.18133,-0.0466 -0.18133,-0.15406 0,-0.0467 -0.0161,-0.0849 -0.0357,-0.0849 -0.0644,0 -0.0884,-0.007 -0.15563,-0.0426 l -0.0663,-0.0355 0.0204,-0.10189 0.0203,-0.10181 -0.0969,-0.0706 -0.0969,-0.0706 0.0435,-0.11535 0.0435,-0.11533 -0.0596,-0.10089 -0.0596,-0.10093 0.0862,-0.0918 0.0862,-0.0918 -0.0434,-0.0694 c -0.0238,-0.0382 -0.0434,-0.0935 -0.0434,-0.12284 0,-0.0509 -0.0623,-0.0762 -0.24202,-0.0983 l -0.0813,-0.01 0.35601,-0.42386 c 0.42931,-0.51107 0.42282,-0.50631 0.83467,-0.6168 0.18113,-0.0486 0.51064,-0.13765 0.73224,-0.19801 l 0.40291,-0.10968 -0.0221,-0.0697 -0.0221,-0.0696 0.0644,-0.0711 0.0644,-0.0712 0.17997,0.008 0.17998,0.008 -0.009,-0.0795 c -0.005,-0.0437 0.0498,-0.20764 0.1214,-0.36435 l 0.1302,-0.28483 0.0751,0.0222 c 0.0413,0.0123 0.1233,0.0488 0.18225,0.0811 l 0.10716,0.0588 0.26793,-0.0279 c 0.14735,-0.0152 0.32419,-0.0243 0.39295,-0.0205 0.0688,0.004 0.5623,0.008 1.09674,0.01 l 0.97171,0.004 0.0446,-0.0447 c 0.0246,-0.0243 0.11048,-0.0447 0.19098,-0.0447 H 121.29 l 0.1286,-0.13395 c 0.0707,-0.0737 0.18828,-0.22839 0.26123,-0.34382 l 0.13262,-0.2098 -0.0486,-0.0307 c -0.0267,-0.0166 -0.0918,-0.031 -0.1447,-0.031 -0.0529,0 -0.10505,-0.0148 -0.11596,-0.0325 -0.0254,-0.0411 -0.48895,-0.0947 -0.6989,-0.0807 -0.18774,0.0123 -0.35718,-0.0422 -0.35718,-0.11518 v -0.0511 l -0.0651,0.0169 c -0.083,0.0219 -0.31812,-0.1155 -0.34546,-0.20161 -0.0114,-0.0359 -0.0423,-0.0738 -0.0686,-0.0839 l -0.0478,-0.0187 0.0176,-0.0921 c 0.01,-0.0507 0.0348,-0.0921 0.0558,-0.0921 0.021,0 0.0736,-0.0332 0.11681,-0.0739 l 0.0786,-0.0738 0.3345,0.0374 c 0.18397,0.0205 0.41085,0.048 0.50418,0.0608 l 0.16969,0.0233 v -0.0724 -0.0724 l -0.0804,-0.0191 c -0.0442,-0.0102 -0.24917,-0.0445 -0.45547,-0.0758 -1.09164,-0.16591 -1.32354,-0.20408 -1.5361,-0.25273 -0.22086,-0.0505 -0.51481,-0.0972 -2.4649,-0.39126 -0.46173,-0.0696 -0.91988,-0.14203 -1.01812,-0.1609 -0.31974,-0.0614 -0.59697,-0.10644 -1.21092,-0.19678 -0.71996,-0.10598 -0.66202,-0.0367 -0.53865,-0.6459 l 0.0149,-0.0735 0.31364,0.0481 c 0.17251,0.0265 0.36991,0.0637 0.43868,0.083 0.0688,0.0194 0.39831,0.0671 0.73232,0.10658 0.33401,0.0394 0.89666,0.11105 1.25032,0.15924 1.90409,0.25936 2.30624,0.30769 2.56946,0.30868 0.15862,0 0.6873,0.0561 1.17485,0.12312 0.48755,0.0671 0.95374,0.12266 1.03597,0.12344 0.0822,0 0.37457,0.0394 0.64964,0.0859 l 0.50013,0.0844 h 0.51798 0.51799 l -0.32151,-0.0492 c -0.17683,-0.0272 -0.57068,-0.0825 -0.87521,-0.12333 -0.77141,-0.10329 -0.92881,-0.15984 -0.92881,-0.33355 0,-0.0652 0.16986,-0.15011 0.27296,-0.1366 l 0.085,0.0113 0.0223,-0.11158 0.0223,-0.11155 0.0934,0.0187 c 0.0514,0.0102 0.39885,0.0602 0.77216,0.11105 0.3733,0.0508 1.00828,0.13879 1.41106,0.19537 0.99117,0.13924 1.54854,0.21495 1.58075,0.21463 0.0148,0 0.0268,0.0236 0.0268,0.0533 0,0.0296 0.016,0.0536 0.0357,0.0536 0.0197,0 0.0357,0.024 0.0357,0.0536 0,0.0296 0.0161,0.0536 0.0357,0.0536 0.0196,0 0.0357,0.0254 0.0357,0.0566 v 0.0565 l 0.0447,-0.0155 c 0.0245,-0.008 0.0399,-0.0421 0.0341,-0.0744 l -0.0105,-0.0588 h 0.0701 c 0.0385,0 0.0995,0.012 0.13553,0.0261 l 0.0654,0.0257 -0.10717,0.0265 -0.10717,0.0261 0.17,-0.0187 0.17,-0.0187 0.0558,0.0558 c 0.0307,0.0307 0.10301,0.0558 0.16069,0.0558 0.0965,0 1.89923,0.29228 3.6231,0.58734 0.39295,0.0673 0.84307,0.14164 1.00025,0.16531 l 0.28579,0.043 0.0798,0.0723 c 0.0439,0.0398 0.0897,0.12485 0.10175,0.18913 0.0121,0.0642 0.0448,0.12562 0.0727,0.13634 l 0.0508,0.0194 -0.008,0.18838 -0.008,0.18838 0.0847,0.41081 0.0847,0.41085 0.0537,0.0438 0.0537,0.0439 0.006,0.2062 c 0.003,0.11342 0.009,0.23435 0.0121,0.26871 l 0.006,0.0625 h 0.0682 0.0682 l 0.0459,0.25672 0.0459,0.25671 -0.0426,0.0141 -0.0426,0.0141 v 0.23181 0.23174 l 0.051,0.051 c 0.0281,0.0282 0.075,0.0511 0.10425,0.0511 0.0292,0 0.0786,0.01 0.10971,0.0219 l 0.0565,0.0219 v 0.15142 0.15137 l -0.0653,0.0592 c -0.0359,0.0325 -0.0841,0.0591 -0.10716,0.0591 -0.0626,0 -0.0505,-0.075 0.0207,-0.12795 l 0.0625,-0.0465 -0.0394,-0.0646 c -0.0217,-0.0356 -0.0727,-0.0696 -0.11345,-0.0757 l -0.0741,-0.0109 -0.0808,0.10933 -0.0808,0.10932 h -0.35489 -0.35488 l 0.0398,0.0479 c 0.0219,0.0265 0.0305,0.0573 0.0189,0.0688 -0.044,0.0439 0.0311,0.17226 0.13114,0.22397 0.11293,0.0584 0.12951,0.12062 0.0613,0.22991 l -0.0434,0.0694 0.0791,0.0842 c 0.0922,0.0982 0.10071,0.17791 0.0255,0.24035 -0.0682,0.0566 -0.0682,0.12199 0,0.17861 0.0295,0.0243 0.0536,0.075 0.0536,0.1124 v 0.068 l -0.0868,0.0328 -0.0868,0.0328 -0.0305,0.15364 -0.0305,0.15367 -0.0524,0.005 c -0.0288,0.004 -0.0733,0.007 -0.0988,0.009 -0.0255,0.004 -0.0695,0.0593 -0.0977,0.12672 -0.0603,0.14432 -0.11474,0.18647 -0.16973,0.13151 -0.0219,-0.0219 -0.0669,-0.0398 -0.10019,-0.0398 h -0.0604 l -0.0224,0.0893 -0.0224,0.0893 h -0.0636 c -0.035,0 -0.0802,-0.0166 -0.10052,-0.037 -0.0501,-0.0502 -0.14845,-0.007 -0.17492,0.0759 l -0.0216,0.0682 h -0.0669 c -0.0368,0 -0.0764,-0.0155 -0.088,-0.0342 -0.0286,-0.0463 -0.1306,-0.004 -0.20404,0.086 l -0.0602,0.0732 -0.0746,-0.0455 -0.0746,-0.0455 -0.0714,0.0382 c -0.0393,0.0212 -0.0887,0.0275 -0.10991,0.0141 l -0.0385,-0.0236 0.0385,0.072 0.0385,0.072 -0.0543,0.0451 -0.0543,0.0451 -0.0413,-0.0414 c -0.0642,-0.0642 -0.15999,-0.049 -0.24111,0.038 l -0.0739,0.0794 -0.0699,-0.0436 c -0.0997,-0.0623 -0.12828,-0.0556 -0.22946,0.0535 l -0.0901,0.0972 -0.0436,-0.0436 c -0.024,-0.024 -0.0725,-0.0436 -0.10785,-0.0436 h -0.0643 v 0.0715 0.0714 h -0.12292 c -0.0676,0 -0.13286,-0.0159 -0.145,-0.0355 -0.0121,-0.0198 -0.0533,-0.0359 -0.0914,-0.0359 -0.0381,0 -0.0693,0.0159 -0.0693,0.0359 0,0.0465 -0.23914,0.0465 -0.26792,0 -0.0288,-0.0465 -0.16075,-0.0465 -0.16075,0 0,0.0508 -0.22715,0.0443 -0.27954,-0.008 l -0.0438,-0.0438 -0.0701,0.0438 c -0.0901,0.0562 -0.23011,0.0559 -0.32625,0 l -0.0756,-0.0447 -0.0162,0.0447 -0.0162,0.0447 h -0.12205 c -0.0671,-3e-5 -0.12206,-0.0162 -0.12206,-0.0359 0,-0.0197 -0.0312,-0.0359 -0.0693,-0.0359 -0.0381,0 -0.0793,0.0159 -0.0914,0.0359 -0.0121,0.0198 -0.0684,0.0355 -0.12503,0.0355 -0.0566,0 -0.11289,-0.0159 -0.12503,-0.0355 -0.0121,-0.0197 -0.0533,-0.0359 -0.0914,-0.0359 -0.0381,0 -0.0693,0.0159 -0.0693,0.0359 0,0.0509 -0.22715,0.0444 -0.27953,-0.008 l -0.0438,-0.0437 -0.0701,0.0437 c -0.0901,0.0563 -0.23012,0.0558 -0.32626,0 l -0.0756,-0.0447 -0.0162,0.0447 -0.0162,0.0447 h -0.11994 c -0.066,0 -0.12989,-0.0159 -0.14203,-0.0356 -0.0287,-0.0465 -0.16075,-0.0465 -0.16075,0 0,0.0198 -0.0553,0.0356 -0.12293,0.0356 -0.0676,0 -0.13285,-0.0159 -0.14499,-0.0356 -0.0121,-0.0197 -0.0533,-0.0359 -0.0914,-0.0359 -0.0381,0 -0.0693,0.0159 -0.0693,0.0359 0,0.0509 -0.22715,0.0444 -0.27954,-0.008 l -0.0438,-0.0438 -0.0701,0.0438 c -0.0895,0.0559 -0.25848,0.0563 -0.31396,0 l -0.0429,-0.0429 -0.0429,0.0429 c -0.0555,0.0555 -0.18905,0.0548 -0.27912,-0.004 l -0.071,-0.0443 -0.071,0.0443 c -0.039,0.0243 -0.10355,0.0443 -0.14338,0.0443 -0.0398,0 -0.10435,-0.0201 -0.14338,-0.0443 l -0.071,-0.0443 -0.071,0.0443 c -0.0852,0.0532 -0.27327,0.0585 -0.30412,0.008 -0.0121,-0.0198 -0.0533,-0.0359 -0.0914,-0.0359 -0.0381,0 -0.0693,0.0159 -0.0693,0.0359 0,0.0197 -0.0553,0.0359 -0.12292,0.0359 -0.0676,0 -0.13286,-0.0162 -0.14501,-0.0359 -0.0121,-0.0198 -0.0533,-0.0359 -0.0914,-0.0359 -0.0381,0 -0.0693,0.0159 -0.0693,0.0359 0,0.0509 -0.22715,0.0444 -0.27953,-0.008 l -0.0438,-0.0438 -0.0701,0.0438 c -0.0895,0.0559 -0.25847,0.0563 -0.31396,0 l -0.0429,-0.0429 -0.0429,0.0429 c -0.0555,0.0554 -0.18906,0.0547 -0.27913,-0.004 l -0.071,-0.0443 -0.071,0.0443 c -0.0853,0.0533 -0.23776,0.0582 -0.2684,0.008 -0.0121,-0.0197 -0.0533,-0.0355 -0.0914,-0.0355 -0.0381,0 -0.0693,0.0159 -0.0693,0.0355 0,0.0509 -0.22715,0.0444 -0.27953,-0.008 l -0.0438,-0.0438 -0.0701,0.0438 c -0.0901,0.0562 -0.23012,0.0558 -0.32625,0 l -0.0756,-0.0447 -0.0162,0.0447 -0.0162,0.0447 h -0.11994 c -0.066,0 -0.12988,-0.0159 -0.14203,-0.0359 -0.0121,-0.0197 -0.0533,-0.0356 -0.0914,-0.0356 -0.0381,0 -0.0693,0.0159 -0.0693,0.0356 0,0.0198 -0.0553,0.0359 -0.12292,0.0359 -0.0676,0 -0.13286,-0.0159 -0.145,-0.0359 -0.0121,-0.0197 -0.0533,-0.0356 -0.0914,-0.0356 -0.0381,0 -0.0693,0.0159 -0.0693,0.0356 0,0.0509 -0.22715,0.0444 -0.27953,-0.008 l -0.0438,-0.0437 -0.0701,0.0437 c -0.0767,0.0479 -0.25836,0.0589 -0.29917,0.0183 z m 2.33623,-0.26272 0.0203,-0.0866 0.099,-0.0116 0.0989,-0.0116 0.0414,0.10975 c 0.0228,0.0604 0.062,0.10975 0.0872,0.10975 0.0736,0 0.0535,-0.0507 -0.0646,-0.16302 -0.0607,-0.0577 -0.13304,-0.14831 -0.16076,-0.20137 l -0.0504,-0.0965 v -0.234 -0.23396 h -0.0625 -0.0625 l 0.0119,0.21004 0.0119,0.21008 -0.0771,0.15113 -0.0771,0.15117 0.0433,0.1046 c 0.05,0.12072 0.1119,0.11722 0.14115,-0.008 z m 2.96995,0.004 c 0.0206,-0.0589 0.0599,-0.10721 0.0875,-0.10721 0.0622,0 0.0622,0 -0.006,-0.13635 -0.0794,-0.15918 -0.10189,-0.34177 -0.0577,-0.46863 l 0.0382,-0.1095 h -0.0607 -0.0607 v 0.24708 0.24705 l -0.0813,0.10996 -0.0814,0.10996 0.0555,0.10728 c 0.0703,0.13589 0.11883,0.13593 0.16617,0 z m 2.88288,0 0.0374,-0.10721 h 0.0771 0.0771 l -0.0268,-0.0625 c -0.0147,-0.0346 -0.0505,-0.13091 -0.0796,-0.21452 l -0.0528,-0.15201 0.0362,-0.1427 0.0362,-0.14273 h -0.061 -0.061 l 0.0141,0.20542 0.0141,0.20539 -0.0913,0.16993 -0.0913,0.16993 0.0406,0.0891 c 0.0532,0.11684 0.0854,0.11239 0.13093,-0.0183 z m -8.69647,-0.23912 -0.0669,-0.13603 -7.1e-4,-0.18754 -7.1e-4,-0.18753 -0.17861,-0.004 c -0.0982,-0.004 -0.22685,-0.009 -0.28579,-0.0166 -0.13632,-0.0187 -0.2322,0.0113 -0.2322,0.0709 0,0.0257 -0.0241,0.0668 -0.0536,0.0913 -0.0531,0.0441 -0.0762,0.21435 -0.0291,0.21435 0.0135,0 0.0608,-0.0342 0.1052,-0.0759 l 0.0807,-0.0758 0.0866,0.0219 0.0866,0.0219 0.0229,0.14334 c 0.0269,0.16834 0.0361,0.17194 0.1399,0.0541 l 0.0787,-0.0893 0.077,0.0212 0.077,0.0212 0.0245,0.13038 c 0.0135,0.0717 0.0329,0.14401 0.0431,0.16059 l 0.0186,0.0303 0.0368,-0.0367 0.0368,-0.0367 z m 11.81855,0.007 -0.017,-0.089 0.0845,-0.0321 0.0845,-0.0321 0.0913,0.0856 c 0.0502,0.0471 0.10871,0.0855 0.13004,0.0855 h 0.0388 l -0.0164,-0.12129 -0.0164,-0.12135 0.0813,-0.0569 0.0812,-0.0569 0.0928,0.0889 c 0.11234,0.10759 0.14183,0.11197 0.11707,0.0173 -0.0103,-0.0394 0.001,-0.0957 0.0256,-0.12499 l 0.0443,-0.0534 h -0.0409 c -0.0225,0 -0.11293,-0.0664 -0.20098,-0.14756 l -0.16009,-0.14757 -0.20762,0.0582 c -0.11419,0.0321 -0.2548,0.0583 -0.31245,0.0583 h -0.10482 l 0.003,0.27234 0.003,0.27227 0.0862,0.0663 c 0.11454,0.0881 0.13305,0.0846 0.11284,-0.0212 z m 1.17005,-0.75057 v -0.19646 h -0.0547 c -0.16148,0 -0.39273,0.16189 -0.34395,0.24081 0.0315,0.0509 0.24979,0.1488 0.33617,0.15077 l 0.0625,0.004 z m 0.40189,0.098 c 0.2035,-0.093 0.20719,-0.11546 0.0416,-0.25199 l -0.12814,-0.10562 -0.0683,0.018 -0.0684,0.018 v 0.21314 c 0,0.11727 0.0121,0.20712 0.0268,0.19971 0.0148,-0.007 0.10315,-0.0484 0.19648,-0.091 z m 0.34575,-0.34131 c 0.0172,-0.0454 0.0368,-0.12986 0.0434,-0.18757 l 0.012,-0.10495 -0.0532,0.01 c -0.0292,0.005 -0.1223,0.0353 -0.20677,0.0661 l -0.15359,0.0564 0.13573,0.11991 c 0.16258,0.14365 0.18185,0.14714 0.22247,0.0403 z"
       id="G-Hummel"
       style="stroke-width:0.352778" />
  </g>
</svg>
