<?xml version="1.0" encoding="UTF-8" standalone="no"?>
<!-- Created with Inkscape (http://www.inkscape.org/) -->

<svg
   width="14.876534mm"
   height="6.0050001mm"
   viewBox="0 0 14.876534 6.0050001"
   version="1.1"
   id="svg15511"
   sodipodi:docname="G-Infantry-Schreckx4.svg"
   inkscape:version="1.1.1 (3bf5ae0d25, 2021-09-20)"
   xmlns:inkscape="http://www.inkscape.org/namespaces/inkscape"
   xmlns:sodipodi="http://sodipodi.sourceforge.net/DTD/sodipodi-0.dtd"
   xmlns="http://www.w3.org/2000/svg"
   xmlns:svg="http://www.w3.org/2000/svg">
  <sodipodi:namedview
     id="namedview15513"
     pagecolor="#ffffff"
     bordercolor="#666666"
     borderopacity="1.0"
     inkscape:pageshadow="2"
     inkscape:pageopacity="0.0"
     inkscape:pagecheckerboard="0"
     inkscape:document-units="mm"
     showgrid="false"
     inkscape:zoom="7.5087437"
     inkscape:cx="40.153188"
     inkscape:cy="0.19976711"
     inkscape:window-width="1920"
     inkscape:window-height="1017"
     inkscape:window-x="-8"
     inkscape:window-y="-8"
     inkscape:window-maximized="1"
     inkscape:current-layer="layer1"
     inkscape:snap-global="false" />
  <defs
     id="defs15508" />
  <g
     inkscape:label="Layer 1"
     inkscape:groupmode="layer"
     id="layer1"
     transform="translate(-67.21897,-208.10188)">
    <g
       id="G-Infantry-Schreckx4"
       transform="matrix(0.29402378,0,0,-0.29402378,-119.55715,536.21848)">
      <g
         id="g13419"
         transform="translate(29.819596,4.0057835)">
        <path
           style="fill:#000000;stroke-width:0.10309"
           d="m 641.50593,1091.8225 c 0.0992,0.2224 0.0874,0.3677 -0.0632,0.785 -0.19972,0.553 -0.44353,0.9279 -0.4599,1.1769 -0.006,0.085 -0.024,0.6017 -0.04,1.1488 -0.0234,0.7695 -0.0703,1.0375 -0.2088,1.1837 -0.0983,0.1039 -0.17884,0.267 -0.17884,0.362 0,0.095 -0.0928,0.3414 -0.20617,0.5476 -0.11335,0.2063 -0.2062,0.4746 -0.2062,0.5962 0,0.1217 -0.11144,0.5122 -0.24779,0.8679 -0.13623,0.3557 -0.2737,0.8534 -0.3054,1.106 -0.0315,0.2528 -0.0847,0.6747 -0.118,0.9378 -0.0521,0.4116 -0.0328,0.4883 0.13768,0.5504 0.25462,0.093 0.46195,1.0313 0.30317,1.3723 -0.0844,0.1811 -0.0603,0.2854 0.11994,0.5231 0.26422,0.3483 0.22208,0.6588 -0.14633,1.0793 -0.16052,0.1833 -0.2684,0.4766 -0.31675,0.8613 -0.059,0.4685 -0.13653,0.6398 -0.39415,0.8696 -0.41199,0.3675 -1.52167,1.0365 -2.34281,1.4124 -0.58862,0.2693 -0.71038,0.2876 -1.45938,0.2192 l -0.8172,-0.074 -0.25874,0.7901 c -0.20847,0.6365 -0.33026,0.8412 -0.62658,1.0529 -0.31743,0.2268 -0.45217,0.2557 -0.98307,0.2102 -0.75424,-0.064 -1.05474,-0.2621 -1.30504,-0.8578 -0.10513,-0.2502 -0.24137,-0.4882 -0.30273,-0.5291 -0.21285,-0.1415 -0.11013,-0.3458 0.19762,-0.3929 0.26185,-0.04 0.30929,-0.095 0.30929,-0.359 0,-0.1716 0.0408,-0.31 0.0906,-0.3077 0.0498,0 0.14761,-0.1306 0.21728,-0.2955 0.0696,-0.165 0.21449,-0.3236 0.32176,-0.3527 0.24083,-0.065 0.26749,-0.6215 0.0445,-0.9282 -0.21725,-0.2989 -0.0968,-2.1424 0.16749,-2.5634 0.1037,-0.1652 0.1888,-0.4395 0.1891,-0.6096 0,-0.3817 0.33409,-1.2677 0.53058,-1.4097 0.21373,-0.1544 0.17173,-0.6675 -0.0924,-1.1271 -0.47217,-1.7793 -0.71013,-2.1218 -0.82291,-3.3424 -0.0476,-0.4244 -0.0213,-0.4953 0.30164,-0.8027 0.29348,-0.2796 0.37655,-0.463 0.48666,-1.0739 0.13241,-0.7349 0.30166,-0.7655 -0.0479,-1.1655 -0.49294,-0.5642 -0.68324,-0.6974 -1.06102,-0.7427 -0.36896,-0.044 -0.5761,-0.3396 -0.41454,-0.5911 0.13412,-0.2089 1.06333,-0.2937 1.43439,-0.1357 0.1528,0.067 0.52157,0.1 0.81973,0.074 0.47619,-0.045 0.56066,-0.018 0.69537,0.1961 0.11741,0.1867 0.13566,0.3481 0.0779,0.6907 -0.10026,0.5962 -0.28317,2.1255 -0.14864,2.9601 0.10381,0.6443 0.14725,0.7194 0.94864,1.6425 0.63331,0.7297 0.9106,0.9768 1.12801,1.0056 0.15856,0.02 0.2883,-0.011 0.2883,-0.072 0,-0.34 -0.69509,-1.152 -1.01152,-1.1817 -0.0957,0 -0.11919,-0.036 -0.0522,-0.059 0.30678,-0.1105 1.26567,0.7473 1.27312,1.1389 0.006,0.3266 0.26033,-0.1271 0.61074,-1.0903 0.27053,-0.7436 0.38816,-0.9396 0.63234,-1.0544 0.16989,-0.08 0.30003,-0.2251 0.30003,-0.3348 0,-0.3351 0.4326,-1.001 0.71847,-1.106 0.37636,-0.1381 0.89877,-0.7206 0.97183,-1.5392 0.074,-0.8294 0.17028,-1.3059 0.29398,-1.455 0.0565,-0.067 0.28368,-0.1157 0.50469,-0.1053 0.33254,0.016 0.42298,0.066 0.52371,0.2919 z"
           id="path11227"
           sodipodi:nodetypes="csccssssscscssssssscssssccssscsscsccsssssccsssscscccssssscscc" />
        <path
           id="path11638"
           style="fill:#000000;stroke-width:0.0291913"
           d="m 639.84562,1105.5267 c -0.15248,-0.011 -0.30248,-0.088 -0.42188,-0.2505 0.0165,-0.082 0.0135,-0.1477 0,-0.2036 0.0135,0.012 0.0353,0.012 0.066,-0.015 -0.0503,-0.1147 -0.0831,-0.078 -0.0835,-0.034 -0.13545,-0.2762 -0.6618,-0.2458 -0.74708,-0.5552 -0.85755,-0.5771 -1.75042,-1.0988 -2.62208,-1.6538 -0.7632,0.2683 -1.59457,0.4117 -2.4024,0.3106 -0.43132,-0.095 -0.91875,-0.1096 -1.28902,-0.3589 -0.30473,-0.4639 -0.17955,-1.1318 -0.0923,-1.6304 0.66637,-0.3629 -0.0217,-0.7644 -0.40433,-0.9741 -0.86565,-0.5373 -1.7058,-1.1224 -2.60745,-1.5967 -0.52485,-0.2667 -1.0068,-0.6347 -1.43257,-1.0342 -0.23783,-0.5858 0.39037,-1.4319 1.03417,-1.3359 0.40575,0.3785 0.88995,-0.2171 1.40333,-0.1641 l 0.12007,-0.032 0.11723,-0.013 c 0.4239,0.2195 -0.0548,0.9243 -0.0165,1.3432 0.59677,0.4858 1.23697,0.9145 1.86622,1.3565 0.53408,0.5977 0.64058,-0.3074 0.88478,-0.6343 0.63465,-0.3779 1.37107,-0.5729 2.10645,-0.6299 0.55515,-0.01 1.2687,-0.1866 1.66553,0.315 0.21772,0.7413 -0.17273,1.5418 -0.22268,2.3027 l -0.13478,1.1616 c -0.14332,0.4288 0.19426,0.2617 0.22268,-0.042 -0.0972,-0.5733 0.91748,-0.9693 0.813,-0.2168 -0.15135,0.5628 -0.22207,1.2882 0.40718,1.5879 l 1.03425,0.8159 0.67087,0.5991 c 0.50678,-0.013 1.23705,0.3745 0.83198,0.9683 -0.0792,0.3524 -0.42923,0.6388 -0.76463,0.6137 z m -0.3003,-0.2109 c 0.0105,0.01 0.0225,-0.01 0.0337,-0.062 -0.0766,-0.1483 -0.0637,0.045 -0.0337,0.062 z m -0.126,-0.2447 c -0.0105,-0.01 -0.0143,-0.028 -0.0143,-0.045 0.008,0.014 0.01,0.03 0.0143,0.045 z m 1.20997,-0.2783 c -0.0503,-0.1121 -0.22545,0.01 0,0 z m -0.082,-0.2314 c 0.10643,0.01 0.1608,-0.059 -0.009,-0.2593 -0.0263,-0.07 -0.0938,-0.1513 -0.18015,-0.1333 -0.31335,0.1573 0.012,0.3791 0.18893,0.3926 z m -0.53025,-0.4204 c 0.024,0 0.0652,0 0.12743,-0.04 -0.1215,-0.1079 -0.20033,0.026 -0.12743,0.04 z m -6.22268,-2.1944 c 0.1719,-0.01 0.30833,-0.096 0.1626,-0.2622 -0.11947,-0.1035 -0.4599,-0.5468 -0.47017,-0.1347 -0.19238,0.2791 0.0866,0.4059 0.30757,0.3969 z m -3.61372,-4.8662 c 0.0956,0.014 0.1638,-0.035 0.17287,-0.1992 0,-0.2183 0.19583,-0.4612 0.0952,-0.6621 -0.27173,0.02 -1.08585,-0.025 -0.95798,0.3911 0.13665,0.104 0.47948,0.4403 0.68993,0.4702 z"
           sodipodi:nodetypes="scccccccccccccccccccccccccccccsscsccccssccssccsccsscccscc" />
      </g>
      <path
         style="fill:#000000;stroke-width:0.056157"
         d="m 645.5834,1095.6806 c 0.18836,0.02 0.38256,0.055 0.43168,0.08 0.13134,0.066 0.47988,0.1446 0.59256,0.1338 0.0538,-0.01 0.15608,0.038 0.22723,0.096 0.10897,0.088 0.12787,0.1466 0.11975,0.3687 -0.005,0.145 -0.0424,0.4086 -0.0825,0.5858 -0.0481,0.2127 -0.17516,0.6224 -0.18242,0.9826 -0.01,0.4765 0.004,0.5615 0.10146,0.6697 0.15637,0.1723 0.20006,0.4067 0.11805,0.6335 -0.0541,0.1497 -0.0546,0.2072 -0.003,0.2597 0.0987,0.099 0.0803,0.278 -0.0449,0.438 -0.079,0.1012 -0.11017,0.2296 -0.11107,0.4585 -8.3e-4,0.2401 -0.0564,0.4531 -0.22588,0.8681 -0.12354,0.3026 -0.22462,0.604 -0.22462,0.67 0,0.066 -0.0468,0.1624 -0.10384,0.214 -0.0811,0.073 -0.10138,0.1644 -0.0926,0.4158 0.006,0.1771 0.0281,0.3604 0.0489,0.4075 0.0207,0.048 0.002,0.2745 -0.042,0.5055 -0.0438,0.2308 -0.0685,0.4382 -0.0549,0.4605 0.0136,0.023 0.0399,0.2452 0.0585,0.495 l 0.0336,0.4542 0.33455,0.3194 c 0.18401,0.1755 0.42048,0.3684 0.52551,0.4285 0.10502,0.061 0.19059,0.136 0.19016,0.1684 -4.1e-4,0.032 -0.10152,0.2441 -0.22463,0.4699 -0.12311,0.2258 -0.22384,0.463 -0.22384,0.5269 0,0.3102 -0.13622,0.5697 -0.37496,0.7145 -0.13156,0.08 -0.24001,0.1636 -0.24098,0.1862 -8.5e-4,0.023 0.14725,0.026 0.3294,0.01 0.32803,-0.034 0.33352,-0.032 0.57561,0.1934 0.22928,0.2139 0.24443,0.2465 0.24443,0.5269 0,0.5433 -0.37398,0.8323 -1.07698,0.8323 -0.3536,0 -0.35701,0.011 -0.15951,0.5361 0.0767,0.2036 0.16706,0.5896 0.20093,0.8576 0.0338,0.2682 0.11016,0.581 0.16952,0.6952 0.0593,0.1143 0.10793,0.2463 0.10793,0.2936 0,0.047 0.059,0.1245 0.13116,0.1718 0.0722,0.048 0.21637,0.2057 0.3205,0.3523 0.26441,0.3718 1.41994,1.5471 1.80988,1.8408 0.21948,0.1652 0.40476,0.2561 0.57381,0.2814 0.46067,0.069 0.46994,0.2919 0.0355,0.8533 -0.3153,0.4073 -0.50493,0.5696 -0.68917,0.5896 -0.10738,0.012 -0.15528,-0.034 -0.25719,-0.2476 -0.0958,-0.2005 -0.17026,-0.2769 -0.31705,-0.3254 -0.27284,-0.09 -0.76509,-0.6239 -0.76509,-0.8299 0,-0.1332 -0.17324,-0.333 -1.02486,-1.1815 -0.56368,-0.5616 -1.07944,-1.0593 -1.14614,-1.1061 -0.13883,-0.097 -0.59713,-0.062 -0.7145,0.056 -0.0494,0.049 -0.072,0.3825 -0.0788,1.1658 -0.009,1.0067 -0.0194,1.1131 -0.12866,1.2984 -0.13498,0.2288 -0.17335,0.2409 -0.33198,0.1051 -0.13396,-0.1147 -0.14543,-0.2556 -0.0287,-0.3526 0.069,-0.057 0.0842,-0.2475 0.0842,-1.0517 0,-0.9134 -0.007,-0.9789 -0.0983,-0.9403 -0.17832,0.076 -0.82447,0.2547 -1.04009,0.289 -0.12889,0.02 -0.29253,0.1074 -0.41812,0.2225 -0.11348,0.104 -0.22666,0.1889 -0.25151,0.1889 -0.0248,0 -0.0448,0.057 -0.0444,0.1264 8.4e-4,0.2048 0.0635,0.3792 0.13544,0.3792 0.0368,0 0.11462,0.034 0.17288,0.077 0.10168,0.074 0.095,0.1014 -0.16761,0.6754 -0.32295,0.706 -0.45287,0.8169 -1.0089,0.8615 -0.72124,0.058 -1.60732,-0.3105 -1.7686,-0.7353 -0.0252,-0.066 -0.0553,-0.3732 -0.0667,-0.6817 -0.0195,-0.5253 -0.0138,-0.5617 0.0915,-0.5788 0.25258,-0.041 0.26028,-0.053 0.16975,-0.27 -0.11636,-0.2784 -0.10797,-0.3536 0.0461,-0.4122 0.0829,-0.032 0.18891,-0.1712 0.28656,-0.3777 0.0853,-0.1802 0.18398,-0.3462 0.21941,-0.3689 0.0354,-0.023 0.18615,-0.041 0.33495,-0.042 0.23054,0 0.26643,-0.015 0.24285,-0.099 -0.0152,-0.054 -0.0453,-0.1866 -0.0666,-0.2948 -0.0215,-0.108 -0.0762,-0.2694 -0.12175,-0.3583 -0.0455,-0.089 -0.0918,-0.2407 -0.10279,-0.337 -0.057,-0.4986 -0.10066,-0.6509 -0.19464,-0.6807 -0.0743,-0.024 -0.10488,-0.1102 -0.12448,-0.3525 -0.0198,-0.2443 -0.0819,-0.4184 -0.25933,-0.7267 -0.12835,-0.2228 -0.23334,-0.4392 -0.23334,-0.4808 0,-0.041 -0.0724,-0.1288 -0.16064,-0.1941 -0.0884,-0.066 -0.17574,-0.1943 -0.19424,-0.2868 -0.0188,-0.094 -0.0796,-0.1827 -0.13776,-0.2012 -0.0572,-0.018 -0.19939,-0.1202 -0.31578,-0.2269 l -0.21162,-0.1938 -0.20598,0.1347 c -0.3007,0.1967 -0.47235,0.2232 -0.71131,0.1098 -0.34188,-0.1623 -0.36406,-0.3767 -0.0772,-0.7464 0.076,-0.098 0.0884,-0.1591 0.0477,-0.2349 -0.1014,-0.1895 -0.0564,-0.3759 0.17435,-0.7214 0.24258,-0.3632 0.38134,-0.4268 0.47341,-0.217 0.0569,0.1296 0.19947,0.1717 0.23371,0.069 0.0192,-0.057 -2.16259,-2.2434 -2.48178,-2.4863 -0.31642,-0.241 -0.31679,-0.241 -0.54781,-0.032 -0.17468,0.1578 -0.23308,0.1832 -0.29752,0.1299 -0.11034,-0.091 -0.10045,-0.1856 0.0321,-0.3056 0.0618,-0.055 0.11232,-0.1364 0.11232,-0.1789 0,-0.043 0.0379,-0.092 0.0842,-0.1096 0.0463,-0.018 0.0842,-0.059 0.0842,-0.091 0,-0.094 0.43843,-0.6492 0.56673,-0.7179 0.0961,-0.051 0.15498,-0.035 0.33826,0.091 l 0.22189,0.1536 0.19397,-0.2117 c 0.12801,-0.1398 0.22441,-0.2001 0.28351,-0.1774 0.0492,0.018 0.1001,0.034 0.11303,0.034 0.0703,0 0.005,0.2253 -0.11691,0.4051 -0.0772,0.1136 -0.1404,0.2272 -0.1404,0.2522 0,0.026 0.52784,0.5731 1.17297,1.2176 0.83937,0.8387 1.19455,1.1587 1.24882,1.1251 0.0417,-0.026 0.13414,-0.1161 0.20541,-0.2008 0.20693,-0.2459 0.64204,-0.5396 0.86013,-0.5805 0.2288,-0.043 0.59346,0.082 0.64705,0.2217 0.0812,0.2118 -0.14406,0.521 -0.791,1.0859 l -0.2762,0.2412 0.23506,0.235 0.23506,0.235 0.0975,-0.1392 c 0.0536,-0.077 0.17503,-0.2277 0.26982,-0.3359 0.0948,-0.1081 0.25592,-0.3046 0.35805,-0.4366 l 0.18567,-0.2403 -0.0901,-0.2757 c -0.0496,-0.1517 -0.0902,-0.3033 -0.0902,-0.3368 0,-0.071 0.26373,-0.1879 0.41194,-0.1813 0.0752,0 0.0928,-0.021 0.0649,-0.09 -0.10778,-0.2684 -0.18238,-0.5845 -0.15904,-0.6737 0.0145,-0.055 -0.11016,-0.3464 -0.1923,-0.7299 -0.1494,-0.6972 -0.14958,-0.7952 -0.003,-1.2878 0.0408,-0.137 0.10573,-0.608 0.14414,-1.0471 0.0765,-0.874 0.18827,-1.177 0.46321,-1.255 0.25545,-0.073 0.28979,-0.1463 0.28979,-0.6214 0,-0.3547 -0.0244,-0.4838 -0.1145,-0.6071 -0.17149,-0.2343 -0.61702,-0.4378 -1.0621,-0.4851 -0.43437,-0.046 -0.53943,-0.1193 -0.59406,-0.4128 -0.0328,-0.1765 -0.0131,-0.2145 0.19767,-0.3785 0.21009,-0.1636 0.29539,-0.1867 0.82989,-0.2241 0.54216,-0.038 0.60998,-0.031 0.75391,0.084 0.19919,0.1582 0.24672,0.1573 0.38996,-0.011 0.0922,-0.1064 0.20277,-0.1397 0.53983,-0.163 0.41297,-0.029 0.4258,-0.025 0.49333,0.1344 0.0874,0.2062 0.0394,0.8179 -0.10062,1.2822 -0.0568,0.1883 -0.12053,0.5831 -0.14172,0.8778 -0.0371,0.5165 -0.0336,0.5389 0.0989,0.6322 0.11363,0.08 0.13528,0.1435 0.12535,0.3667 -0.007,0.1484 -0.0448,0.3451 -0.0849,0.4374 -0.0552,0.1269 -0.0578,0.2318 -0.0108,0.4303 0.0528,0.2235 0.0452,0.2982 -0.0511,0.5012 -0.0693,0.146 -0.0997,0.2963 -0.0782,0.3881 0.0207,0.089 -8.7e-4,0.2094 -0.0538,0.2958 -0.0489,0.08 -0.10387,0.2577 -0.12227,0.3946 -0.0288,0.2132 -0.009,0.2799 0.13683,0.4656 0.16838,0.2142 0.17162,0.2154 0.29102,0.099 0.0665,-0.064 0.12077,-0.1549 0.12077,-0.2007 0,-0.1008 0.37064,-1.0309 0.64383,-1.6537 0.16514,-0.3765 0.21079,-0.5679 0.26126,-1.095 0.0541,-0.5648 0.078,-0.6569 0.20627,-0.7933 0.0798,-0.086 0.17366,-0.1545 0.20856,-0.1545 0.0646,0 0.2545,-0.7078 0.25319,-0.9435 -0.002,-0.3179 -0.25497,-0.6396 -0.80485,-0.8816 -0.17361,-0.076 -0.34047,-0.1895 -0.37083,-0.2511 -0.0597,-0.1211 -0.0914,-0.5813 -0.0442,-0.6395 0.0588,-0.072 0.95657,-0.1615 1.28861,-0.1235 z m -4.29569,10.4303 -0.2097,0.2585 0.14251,0.1537 c 0.10492,0.1132 0.16124,0.1382 0.21358,0.095 0.0512,-0.042 0.12005,-0.03 0.24531,0.047 0.0958,0.058 0.18926,0.091 0.20762,0.072 0.0532,-0.053 0.0386,-0.5202 -0.0164,-0.5202 -0.0273,0 -0.0675,-0.1426 -0.0893,-0.3169 l -0.0396,-0.3168 -0.12221,0.1344 c -0.0672,0.074 -0.2166,0.2506 -0.33193,0.3928 z"
         id="path13543"
         sodipodi:nodetypes="cccccccccccccsccccccccccssccccsscccsccccccccscccccccsccsscsccccccccccccccccccscsccccccccccccccscscccccscsccccccccccccccscccccccsccccccccccccccccsccccscccsccscccccccccsccccc" />
      <path
         style="fill:#000000;stroke-width:0.0634653"
         d="m 653.68719,1095.7081 c -0.21385,0.01 -0.57369,0.4839 -0.71889,0.9462 -0.11174,0.356 -0.0665,1.3392 0.0827,1.7976 0.0508,0.156 0.0831,0.2871 0.0718,0.2916 -0.19931,0.079 -0.27983,0.1561 -0.30603,0.2909 -0.0247,0.1272 -0.0527,0.1482 -0.12693,0.095 -0.15964,-0.1151 -0.44411,-0.111 -0.48957,0.01 -0.0771,0.2006 -0.41961,0.5521 -0.5292,0.5429 -0.0599,-0.01 -0.25662,0.027 -0.43701,0.069 -0.31976,0.077 -0.33131,0.075 -0.4605,-0.065 -0.12963,-0.1404 -0.13009,-0.1492 -0.0216,-0.4092 0.061,-0.1461 0.14849,-0.4052 0.19443,-0.576 0.0459,-0.1707 0.19997,-0.8108 0.3423,-1.0771 0.49995,-0.9359 0.29902,-1.2858 -0.89937,-1.5663 -1.21189,-0.2837 -2.10559,0.028 -1.72592,0.6015 0.0784,0.1185 0.16074,0.1544 0.39841,0.1743 0.28625,0.024 0.31437,0.043 0.63105,0.4292 0.1823,0.2223 0.33145,0.4247 0.33145,0.4498 0,0.086 -0.37533,1.0917 -0.43677,1.1246 -0.0337,0.018 -0.0799,0.1165 -0.10285,0.2188 -0.0229,0.1025 -0.0724,0.1837 -0.10996,0.1806 -0.13899,-0.012 -0.49515,0.2892 -0.6608,0.5579 -0.19089,0.3099 -0.40567,0.9598 -0.44985,1.3612 -0.0362,0.3289 0.21814,0.9546 0.42105,1.0359 0.10822,0.043 0.13333,0.1052 0.13333,0.3263 0,0.3297 0.17401,0.594 0.44504,0.6762 0.10429,0.032 0.19136,0.091 0.1935,0.132 0.002,0.041 0.0124,0.2702 0.0228,0.5092 0.0235,0.54 0.13819,0.7225 0.62769,0.9992 0.19859,0.1125 0.36107,0.2419 0.36107,0.2881 0,0.046 0.0928,0.1776 0.20626,0.2918 0.11344,0.1141 0.30622,0.351 0.42839,0.5263 0.44527,0.6386 0.90189,1.1902 1.02689,1.2403 0.11279,0.045 0.12305,0.086 0.0863,0.343 -0.0241,0.1687 -0.086,0.3148 -0.14661,0.3465 -0.28736,0.1499 -0.45883,0.3696 -0.45883,0.5877 0,0.1228 0.0246,0.2406 0.0546,0.2616 0.03,0.022 0.10422,0.2193 0.16484,0.4403 0.25093,0.9153 0.71619,1.2479 1.59316,1.1389 0.604,-0.075 0.91434,-0.468 0.91645,-1.1603 3.9e-4,-0.146 0.0543,-0.3303 0.12687,-0.4337 0.15927,-0.2272 0.159,-0.3252 -10e-4,-0.5093 l -0.1283,-0.1472 0.12774,-0.1518 c 0.0703,-0.083 0.18676,-0.2845 0.25888,-0.4468 0.22014,-0.4951 0.21952,-0.4951 0.67035,0 0.22301,0.2472 0.40548,0.4856 0.40548,0.5297 0,0.1262 0.29417,0.3945 0.41759,0.3809 0.12337,-0.014 0.3321,-0.3121 0.33935,-0.4852 0.005,-0.1151 -0.0286,-0.1313 -0.34283,-0.1661 -0.16441,-0.024 -0.2253,-0.084 -0.47122,-0.5075 l -0.28241,-0.4865 0.35735,-0.3324 c 0.42189,-0.3923 0.55335,-0.6623 0.55335,-1.1367 0,-0.4787 0.22801,-1.5968 0.35133,-1.7227 0.1138,-0.1163 0.26364,-1.0222 0.34644,-2.0947 0.0535,-0.6926 0.12618,-1.1142 0.2435,-1.4118 0.0342,-0.087 0.0824,-0.3186 0.1073,-0.5155 0.0249,-0.1968 0.0704,-0.3714 0.10123,-0.3878 0.10243,-0.054 0.0579,-0.2677 -0.0783,-0.3745 -0.10044,-0.078 -0.17021,-0.092 -0.27666,-0.052 -0.12365,0.047 -0.14745,0.1164 -0.18119,0.5355 -0.0214,0.2653 -0.0934,0.6778 -0.16006,0.9165 -0.0667,0.2389 -0.13943,0.5112 -0.1617,0.6053 -0.0223,0.094 -0.0641,0.1693 -0.0929,0.1669 -0.0289,0 -0.0143,-0.1512 0.0323,-0.3305 0.2125,-0.8175 0.31588,-1.4128 0.26263,-1.5124 -0.11021,-0.2061 -0.27611,-0.1335 -0.42643,0.1865 l -0.14554,0.3099 -0.18052,-0.226 c -0.10376,-0.1299 -0.1816,-0.3029 -0.18309,-0.4068 -0.004,-0.2279 -0.2275,-0.5683 -0.38277,-0.5813 -0.17714,-0.015 -0.27215,-0.3998 -0.26289,-1.0653 l 0.008,-0.5784 -0.22396,-0.2299 c -0.12319,-0.1266 -0.2654,-0.3135 -0.31604,-0.4156 -0.11134,-0.2246 -0.57327,-0.3788 -1.06442,-0.3552 z m -2.27114,7.7922 c 0.0723,0.1993 0.13149,0.3755 0.13149,0.3916 0,0.071 -0.13289,0.01 -0.28223,-0.1368 -0.13865,-0.1336 -0.1565,-0.1906 -0.12216,-0.3911 0.0221,-0.129 0.063,-0.2327 0.0908,-0.2304 0.0278,0 0.10977,0.1673 0.18209,0.3667 z"
         id="path12840"
         sodipodi:nodetypes="ssssssssssssssssssssssssssssssssssssssscsscsssssssscsssssscssssssssscsssscsssssssssss" />
      <path
         style="fill:#000000;stroke-width:0.0779157"
         d="m 675.99344,1096.1396 c -0.24019,0.24 -0.16278,0.5469 0.17535,0.6951 0.31924,0.14 0.78838,0.7004 0.84897,1.0143 0.0697,0.3611 -0.029,0.7275 -0.21936,0.8141 -0.28543,0.1303 -0.43875,0.3441 -0.43875,0.6125 0,0.1409 0.0351,0.2725 0.0779,0.2924 0.10009,0.047 0.10093,0.7117 10e-4,1.0206 -0.14995,0.465 -0.20521,1.5582 -0.10077,1.9943 0.0545,0.2275 0.0809,0.539 0.0587,0.6923 -0.0653,0.4521 0.16874,2.4406 0.30827,2.6187 0.14909,0.1903 0.156,0.28 0.0191,0.2482 -0.0599,-0.014 -0.30402,0.2379 -0.5846,0.6032 -0.38908,0.5066 -0.49007,0.6012 -0.52531,0.4917 -0.1358,-0.4219 -0.39325,-1.0179 -0.67079,-1.5529 -0.27364,-0.5275 -0.30772,-0.6507 -0.25846,-0.9348 0.0312,-0.18 0.0517,-0.4907 0.0454,-0.6905 -0.0107,-0.3447 0.006,-0.3776 0.32194,-0.6453 0.18328,-0.1553 0.46713,-0.4412 0.63078,-0.6355 l 0.29754,-0.3533 -0.20745,-0.7389 c -0.11409,-0.4064 -0.25637,-0.7825 -0.31617,-0.8358 -0.16817,-0.1496 -1.18591,0.3309 -1.78359,0.8422 -0.25823,0.2208 -0.66235,0.547 -0.89805,0.7246 -0.23569,0.1777 -0.65055,0.5361 -0.9219,0.7964 -0.55598,0.5334 -0.55833,0.5453 -0.28722,1.4557 0.17236,0.5789 0.24539,0.6965 0.46305,0.7464 0.17188,0.039 1.1149,-0.182 1.37947,-0.3234 0.23948,-0.1283 0.3405,0.3314 0.27341,1.2438 -0.0202,0.2751 0.006,0.488 0.0712,0.583 0.0567,0.082 0.15788,0.4877 0.2248,0.9009 0.20377,1.2581 0.27508,1.5416 0.67353,2.678 0.55571,1.5846 0.63132,1.699 1.29868,1.9643 0.18213,0.072 0.33114,0.1622 0.33114,0.1997 0,0.037 0.0438,0.034 0.0974,0 0.0536,-0.041 0.008,0.046 -0.10147,0.1932 -0.10938,0.1472 -0.24636,0.4727 -0.3044,0.7235 0,0 1.56937,1.297 2.86385,-0.9992 0.37716,-0.2338 0.55701,-0.1885 1.13932,0.288 0.65948,0.5395 0.87394,0.5793 1.33084,0.2471 0.45025,-0.3273 0.4424,-0.506 -0.035,-0.7978 -0.21643,-0.1322 -0.3935,-0.266 -0.3935,-0.2971 0,-0.031 -0.0701,-0.068 -0.15584,-0.082 -0.23817,-0.04 -0.19023,-0.1935 0.22085,-0.709 0.56974,-0.7145 1.36165,-1.9028 1.6811,-2.5225 0.38063,-0.7382 0.53438,-1.517 0.49871,-2.526 -0.0172,-0.487 -0.0648,-0.8237 -0.12351,-0.8734 -0.0525,-0.045 -0.0943,-0.1882 -0.0928,-0.3192 0.003,-0.28 0.19236,-1.228 0.26072,-1.3068 0.026,-0.03 0.32076,0.032 0.65504,0.1388 0.36027,0.1145 0.72638,0.1751 0.89901,0.1489 0.45292,-0.069 0.82137,-0.3138 0.94203,-0.6269 0.15201,-0.3945 0.23046,-1.2985 0.12794,-1.4745 -0.10388,-0.1784 -1.07539,-0.4735 -2.16387,-0.6574 -0.53403,-0.09 -0.61708,-0.181 -0.48225,-0.5269 0.0575,-0.1474 0.18156,-0.3503 0.27575,-0.4509 0.0942,-0.1003 0.22555,-0.3839 0.29191,-0.6296 0.11495,-0.4258 0.11299,-0.4616 -0.0414,-0.7574 l -0.16204,-0.3105 0.2202,-0.5165 c 0.22983,-0.5389 0.26587,-0.9374 0.13721,-1.5168 -0.12984,-0.5847 -0.41067,-0.7565 -1.10276,-0.6749 l -0.44461,0.052 -0.0245,0.3018 c -0.015,0.1848 0.0252,0.3703 0.10375,0.4783 0.1547,0.2126 0.23277,0.8597 0.16198,1.3426 -0.0487,0.3319 -0.0743,0.3651 -0.44638,0.5787 l -0.39474,0.2266 0.0516,0.3671 c 0.0512,0.3643 0.0485,0.3706 -0.3577,0.8426 -0.38876,0.4518 -0.42315,0.4745 -0.68658,0.4546 -0.43165,-0.033 -0.98961,0.087 -1.20153,0.258 -0.16286,0.1313 -0.20036,0.2383 -0.24252,0.6914 -0.0654,0.7031 -0.20024,1.098 -0.39449,1.1557 -0.13377,0.039 -0.17206,-0.042 -0.30555,-0.6549 -0.16744,-0.7685 -0.18359,-1.2705 -0.0443,-1.3777 0.0496,-0.039 0.17099,-0.066 0.26986,-0.062 0.24055,0.01 0.60868,-0.2459 0.7416,-0.5143 0.0593,-0.1198 0.17311,-0.2277 0.25292,-0.2398 0.19027,-0.029 0.26326,-0.2422 0.13063,-0.3819 -0.0577,-0.061 -0.10546,-0.1671 -0.10611,-0.2362 -10e-4,-0.102 -0.10885,-0.1136 -0.57421,-0.062 -0.53432,0.059 -0.57022,0.052 -0.53127,-0.1023 0.0592,-0.2353 -0.0176,-0.3767 -0.23089,-0.4255 -0.22335,-0.051 -0.2445,-0.3895 -0.0673,-1.0766 0.12659,-0.4908 0.15304,-1.3258 0.0468,-1.4775 -0.0643,-0.092 -0.53082,-0.097 -1.79991,-0.021 -0.42453,0.025 -0.53418,0.058 -0.67788,0.2018 z m 3.60223,6.7637 c 0.30512,0.081 0.31679,0.1222 0.15333,0.5382 -0.0643,0.1636 -0.11689,0.3555 -0.11689,0.4264 0,0.071 -0.0684,0.198 -0.15188,0.2821 -0.14198,0.1431 -0.15441,0.1448 -0.19035,0.029 -0.11009,-0.3618 -0.21645,-1.0821 -0.17619,-1.1933 0.0571,-0.1575 0.13959,-0.1712 0.48198,-0.083 z m -3.47189,5.205 c 0.13639,0.1372 0.20042,0.2652 0.31584,0.6318 0.0624,0.1981 0.0599,0.2005 -0.11762,0.1108 -0.17827,-0.09 -0.45083,-0.6347 -0.54053,-1.0806 l -0.0456,-0.2268 0.12659,0.2145 c 0.0696,0.1181 0.18724,0.2756 0.26135,0.35 z m 4.01558,4.0288 c 0.0269,0.04 0.087,0.043 0.13351,0.01 0.0479,-0.037 0.0624,-0.025 0.0334,0.026 -0.0282,0.05 0.0521,0.1619 0.17843,0.2491 0.27401,0.189 0.22879,0.2931 -0.0785,0.1808 -0.20966,-0.077 -0.46235,-0.3232 -0.46235,-0.4511 0,-0.088 0.13806,-0.095 0.19558,-0.011 z"
         id="path13775"
         sodipodi:nodetypes="ccccsccccccccccccccccccccccccccsscccccccsccccccccssccccscccsccsccccccccccccccscccccccccccssscscccccccccccccccscc" />
      <path
         style="fill:#000000;stroke-width:0.0779157"
         d="m 675.97278,1113.1733 c -0.0721,0.3004 -0.16343,0.4778 -0.28811,0.5595 -0.16547,0.1084 -0.18257,0.1761 -0.18257,0.7229 0,0.7501 0.151,1.0693 0.62431,1.3196 0.23905,0.1264 0.46686,0.1773 0.79429,0.1773 0.78932,0 1.12302,-0.2845 1.39159,-1.1864 0.15114,-0.5074 0.15368,-0.5624 0.0392,-0.8484 -0.0673,-0.1682 -0.12237,-0.3748 -0.12237,-0.4591 -0.35551,-1.9459 -1.50162,-0.2024 -2.25634,-0.2854 z"
         id="path885"
         sodipodi:nodetypes="ccscscccc" />
    </g>
  </g>
</svg>
