<?xml version="1.0" encoding="UTF-8" standalone="no"?>
<!-- Created with Inkscape (http://www.inkscape.org/) -->

<svg
   width="52.665989mm"
   height="6.1720362mm"
   viewBox="0 0 52.665989 6.1720362"
   version="1.1"
   id="svg1"
   sodipodi:docname="inkporter-svg-9sghs9la.svg"
   xmlns:inkscape="http://www.inkscape.org/namespaces/inkscape"
   xmlns:sodipodi="http://sodipodi.sourceforge.net/DTD/sodipodi-0.dtd"
   xmlns="http://www.w3.org/2000/svg"
   xmlns:svg="http://www.w3.org/2000/svg">
  <sodipodi:namedview
     id="namedview1"
     pagecolor="#ffffff"
     bordercolor="#666666"
     borderopacity="1.0"
     inkscape:showpageshadow="2"
     inkscape:pageopacity="0.0"
     inkscape:pagecheckerboard="0"
     inkscape:deskcolor="#d1d1d1"
     inkscape:document-units="mm"
     inkscape:zoom="1.6641134"
     inkscape:cx="396.90806"
     inkscape:cy="561.25984"
     inkscape:window-width="3840"
     inkscape:window-height="2081"
     inkscape:window-x="2391"
     inkscape:window-y="-9"
     inkscape:window-maximized="1"
     inkscape:current-layer="layer1" />
  <defs
     id="defs1" />
  <g
     inkscape:label="Layer 1"
     inkscape:groupmode="layer"
     id="layer1"
     transform="translate(-31.485412,-122.76668)">
    <g
       id="G-Infantry-MGs5-4-Pfx3"
       transform="translate(-49.60545,107.11418)">
      <path
         d="m 111.26386,18.742612 -0.61207,-1.3141 -0.0173,0.01 0.0194,0.041 h 0.006 l 0.009,0.021 -0.0572,0.026 -0.01,-0.02 0.0261,-0.012 -0.019,-0.041 h -0.005 l -0.0197,-0.042 h -0.007 l -0.0138,-0.028 h 0.008 l -0.16263,-0.3482 h -0.0106 l -0.0127,-0.028 h 0.0102 l -0.024,-0.051 0.048,-0.022 -0.20355,-0.4364 c -0.0155,-0.01 -0.0423,-0.025 -0.0801,-0.068 -0.036,-0.041 -0.11148,-0.1252 -0.17039,-0.1908 -0.0473,-0.052 -0.0833,-0.093 -0.0833,-0.093 l -0.01,-0.02 0.003,-0.01 -0.0198,-0.043 0.004,-0.061 0.0145,-0.1994 c 0,0 0.005,-0.049 0.0607,-0.075 h 0.002 c 0.0557,-0.027 0.0967,0 0.0967,0 l 0.16193,0.1168 0.0494,0.036 0.0205,0.043 0.009,0.01 0.009,0.02 c 0,0 0.008,0.054 0.0173,0.1228 0.0123,0.088 0.0286,0.2 0.037,0.2536 0.009,0.056 0.005,0.088 7e-4,0.1044 l 1.04775,2.2486 z"
         id="path51538-6-9-8-1-2-7-3-2-7" />
      <g
         id="g26002-7-2-9"
         transform="translate(137.58684,-20.628071)">
        <g
           id="g4552-3-8-0"
           transform="matrix(0.11531985,0,0,0.11531985,-73.756113,43.644038)">
          <path
             style="fill:#000000;stroke-width:0.264583"
             d="m 448.5629,-12.917757 c -0.35707,-0.357071 -0.15956,-1.250937 0.45423,-2.055657 0.54912,-0.719936 0.66621,-1.287351 0.906,-4.390599 0.15146,-1.960097 0.25464,-4.561528 0.22928,-5.78096 -0.0385,-1.853322 0.0297,-2.265466 0.416,-2.511611 0.34054,-0.217003 0.58924,-0.215069 0.94539,0.0074 0.39205,0.24484 0.54207,0.20769 0.79466,-0.196779 0.17126,-0.274227 0.31138,-0.774054 0.31138,-1.110726 0,-0.336672 0.10461,-0.725241 0.23246,-0.863486 0.12785,-0.138245 0.36373,-1.084792 0.52416,-2.103438 0.16044,-1.018645 0.41191,-2.430912 0.55882,-3.138371 0.22014,-1.060101 0.19004,-1.416746 -0.17115,-2.028195 -0.40368,-0.683384 -0.40481,-0.810961 -0.0143,-1.617255 0.30728,-0.634479 0.34583,-0.969463 0.14006,-1.21739 -0.17916,-0.215877 -0.22029,-0.9626 -0.11151,-2.024357 0.16688,-1.628828 0.1491,-1.697442 -0.55923,-2.158246 -1.44686,-0.941253 -3.5031,-2.906528 -3.50638,-3.351251 -0.006,-0.768504 1.54358,-2.265472 2.85327,-2.75702 0.68444,-0.256882 1.79339,-0.800392 2.46433,-1.207799 0.67093,-0.40741 1.29601,-0.740744 1.38906,-0.740744 0.093,0 0.40564,-0.236472 0.69467,-0.525494 0.45437,-0.454372 0.74543,-0.502505 2.15057,-0.35564 1.50472,0.157275 1.66132,0.122713 2.11445,-0.466693 0.52516,-0.683085 0.67125,-2.219979 0.23657,-2.488631 -0.14553,-0.08994 -0.26459,-0.550938 -0.26459,-1.024447 0,-1.487912 2.28127,-3.041068 4.828,-3.287052 l 1.25612,-0.121326 -0.062,1.29037 c -0.0525,1.09415 0.007,1.278653 0.39454,1.213314 0.25107,-0.04238 0.70365,0.05522 1.00573,0.21689 0.69437,0.371612 0.30236,0.939244 -0.81868,1.185466 -0.66225,0.145455 -0.76297,0.284451 -0.73131,1.009195 0.0202,0.462278 -0.0427,1.048866 -0.13973,1.303527 -0.0971,0.254662 -0.23658,0.652919 -0.31008,0.885015 -0.0735,0.232097 -0.37115,0.484109 -0.66145,0.560026 -0.77845,0.203568 -0.6421,0.831855 0.29197,1.34539 2.00514,1.102389 2.29646,1.675037 2.76425,5.433713 0.0875,0.703357 0.32896,1.760123 0.53651,2.348368 0.5085,1.441241 0.46183,3.486621 -0.11783,5.1644 l -0.47791,1.383268 2.40477,2.473217 c 2.6716,2.747634 6.57905,6.193785 7.49724,6.612141 0.32785,0.149373 0.59608,0.479457 0.59608,0.733518 0,0.697486 -1.04124,0.356354 -1.95311,-0.639879 -0.41937,-0.458166 -0.66679,-0.654437 -0.54983,-0.436155 0.20569,0.383884 -0.86626,-0.384712 -1.23081,-0.882494 -0.089,-0.121571 -0.26762,-0.214085 -0.39687,-0.205589 -0.12925,0.0085 -0.81792,-0.48735 -1.53037,-1.101881 -0.71245,-0.61453 -1.44073,-1.203664 -1.6184,-1.309188 -0.35697,-0.212016 -3.30394,0.330004 -3.30394,0.607674 0,0.09585 0.22081,0.458229 0.49069,0.805275 0.60742,0.7811 1.04927,2.194737 1.05748,3.383275 0.003,0.495109 0.13277,0.978405 0.28743,1.073989 0.27504,0.169987 0.56538,3.510412 0.64036,7.367521 0.0422,2.173801 0.30529,2.531549 2.47259,3.362891 1.29318,0.496046 1.73575,1.345557 0.98643,1.89347 -0.6975,0.510027 -1.50541,0.434903 -3.34002,-0.310568 -0.89532,-0.363802 -2.00129,-0.661458 -2.45772,-0.661458 -0.45642,0 -1.04183,-0.155007 -1.30092,-0.344456 -0.42551,-0.31114 -0.44068,-0.498978 -0.15679,-1.941944 0.25879,-1.315418 0.24232,-1.967042 -0.0933,-3.69044 -0.22417,-1.151123 -0.48439,-2.598343 -0.57827,-3.216045 -0.0939,-0.617702 -0.27938,-1.190276 -0.41224,-1.272387 -0.13286,-0.08211 -0.24156,-0.380391 -0.24156,-0.662844 0,-0.368692 -0.18297,-0.513551 -0.64864,-0.513551 -0.51383,0 -0.90854,-0.398674 -1.89915,-1.918229 -1.15081,-1.76529 -1.26353,-1.865493 -1.41381,-1.256771 -0.25394,1.028591 -0.91945,0.826415 -1.01396,-0.308031 -0.14905,-1.789202 -0.69129,-1.394357 -2.33164,1.697842 -0.85599,1.613614 -1.73494,3.018139 -1.95322,3.121163 -0.21828,0.103026 -0.83232,0.373168 -1.36453,0.600318 -0.73409,0.313314 -1.01235,0.616498 -1.15283,1.256099 -0.10185,0.463703 -0.58746,2.048473 -1.07913,3.521707 -0.49168,1.473235 -0.89564,3.009768 -0.89769,3.414517 -0.002,0.404752 -0.1778,0.802703 -0.39054,0.884341 -0.21274,0.08163 -0.46495,0.40532 -0.56046,0.719299 -0.30941,1.017113 -0.93766,1.496912 -1.96006,1.496912 -0.53528,0 -1.05261,-0.07937 -1.14962,-0.17639 z"
             id="path3698-2-7-3-1" />
          <path
             d="m 459.47142,-40.298656 c 0.1725,-0.591119 0.32582,-1.003163 0.77679,-0.787111 0.44312,0.221498 2.40952,1.346465 2.50136,1.412936 0.091,0.06677 1.11002,1.08246 2.07927,1.324304 0.97074,0.235225 1.01424,0.07681 1.43544,0.344268 0.41912,0.265747 5.79275,4.129153 5.79275,4.129153 l 0.23037,-0.321377 0.70603,0.490231 0.16243,-0.266086 1.06206,0.82759 c 0,0 0.13302,-0.01305 0.20954,0.08236 0.0678,0.100566 0.0552,0.192362 0.0552,0.192362 l -0.10415,0.194998 -0.0348,0.461801 0.59261,0.464387 -0.0342,0.109964 5.17825,3.691679 0.0964,0.273347 0.814,0.724808 c 0,0 0.24428,0.03458 0.15941,0.187075 -0.0944,0.155874 -0.20645,0.02454 -0.20645,0.02454 l -0.0771,-0.108265 -0.72174,-0.581646 -0.26243,0.0066 -0.14383,0.229742 2.21976,1.582243 0.9572,-0.900164 0.51484,0.236652 -0.62647,1.037185 0.009,0.153161 0.22877,0.165492 c 0,0 0.0175,0.115337 -0.0437,0.264893 -0.0655,0.148158 -0.30504,0.169133 -0.30504,0.169133 l -0.93204,-0.687114 -0.0316,-0.07086 -3.33675,-2.289984 -0.6289,-0.319124 c 0,0 -2.89055,-2.03791 -2.96922,-2.086827 -0.0817,-0.05906 -0.61438,-0.196091 -0.74151,-0.292678 -0.12924,-0.09814 -1.10324,-0.98486 -1.35204,-0.797586 -0.24121,0.197997 -0.52929,0.812332 -0.52929,0.812332 l -0.16114,-0.05382 c 0,0 -0.91646,1.626502 -1.18675,2.592121 -0.27688,0.968179 -0.66336,2.70146 -0.66336,2.70146 l -1.63035,-0.13584 c 0,0 0.32055,-2.096173 0.79656,-3.249103 0.46923,-1.158615 1.37165,-2.792614 1.37165,-2.792614 0,0 -0.29834,-0.233824 -0.48822,-0.19121 -0.17895,0.03479 -0.3654,-0.0948 -0.3654,-0.0948 0,0 -0.57361,-0.415107 -0.91382,-0.227743 -0.33285,0.193422 -0.74439,0.231291 -1.18055,-0.114671 -0.44386,-0.342187 -0.61444,-0.504757 -0.64768,-0.662242 -0.0286,-0.153689 -0.15437,-0.336672 -0.26026,-0.34847 -0.0988,-0.0026 -0.54628,0.01472 -1.1002,0.260059 -0.55222,0.243259 -0.86965,0.417919 -0.86965,0.417919 0,0 -0.19844,0.11867 -0.41606,-0.240789 -0.2157,-0.359003 -0.7051,-1.006813 0.009,-1.279092 0.69902,-0.273047 2.32327,-0.755861 2.32327,-0.755861 0,0 0.4737,-0.403154 -0.22738,-0.836571 -0.7011,-0.433422 -1.55796,-1.105907 -1.55796,-1.105907 0,0 -1.47732,-0.524565 -2.79189,-0.654505 -1.31568,-0.138149 -3.63703,-0.695523 -3.70496,-0.723609 -0.0823,-0.02271 -0.88725,-0.423623 -0.33433,-1.038897 0.54918,-0.613851 0.58755,-0.605895 0.91208,-1.028351 0.3246,-0.422392 0.38272,-0.520544 0.38272,-0.520544"
             id="path51534-5-2-9-7-0"
             style="stroke-width:8.67153" />
        </g>
        <path
           style="fill:#000000;stroke-width:0.0394053"
           d="m -32.103606,42.207806 c -0.01281,-0.03601 -0.04284,-0.112528 -0.06665,-0.170046 l -0.04338,-0.104573 0.04726,-0.0936 c 0.06485,-0.128577 0.05924,-0.374774 -0.01083,-0.47489 l -0.05799,-0.08286 0.0018,-0.168357 0.0018,-0.168355 0.06566,-0.112244 0.06566,-0.112244 -0.01272,-0.199995 -0.01271,-0.200013 -0.05194,-0.177728 -0.07866,-0.177737 -0.03269,0.041 c -0.01911,0.0193 -0.05376,0.174112 -0.07696,0.343858 -0.05822,0.424735 -0.08961,0.543358 -0.167038,0.630777 l -0.06668,0.07528 0.0082,0.192238 c 0.0045,0.105745 0.011,0.246986 0.01502,0.313878 l 0.0073,0.121629 -0.04739,0.01556 c -0.02603,0.0081 -0.0474,0.06851 -0.0474,0.133239 v 0.117688 l -0.09288,0.06406 c -0.05112,0.03516 -0.13631,0.06406 -0.189382,0.06406 h -0.09648 l -0.02247,-0.0577 c -0.01229,-0.03173 0.01647,-0.141827 0.06405,-0.244641 0.08842,-0.191219 0.103902,-0.308589 0.06112,-0.465426 l -0.0242,-0.08872 -0.08306,-0.02142 -0.08315,-0.02142 0.02993,-0.239599 c 0.01638,-0.131784 0.04312,-0.276632 0.05922,-0.321911 0.0162,-0.04526 0.02457,-0.202667 0.01864,-0.349779 -0.0054,-0.147112 0.0091,-0.341554 0.03293,-0.432081 0.02401,-0.09054 0.08638,-0.365315 0.09281,-0.619163 0.006,-0.253848 0.02308,-0.497527 0.03706,-0.541504 l 0.02539,-0.07992 -0.110931,-0.0478 c -0.06099,-0.02622 -0.186273,-0.100359 -0.278383,-0.164616 l -0.167478,-0.116828 v -0.123958 -0.123949 l 0.20143,-0.194448 c 0.110794,-0.106957 0.283675,-0.27706 0.384209,-0.378009 l 0.182773,-0.183543 0.144703,-0.02458 0.144685,-0.02448 0.02625,0.04257 0.02625,0.04257 0.05559,-0.04615 0.05559,-0.04615 v -0.134331 -0.134331 l -0.0591,-0.02264 c -0.03251,-0.01248 -0.0591,-0.04693 -0.0591,-0.07654 0,-0.09834 0.186375,-0.390143 0.281067,-0.440081 l 0.09328,-0.04915 0.118223,0.0239 c 0.06502,0.01316 0.157802,0.06028 0.20619,0.104665 l 0.08797,0.08079 -0.0026,0.293984 -0.0026,0.293974 -0.07712,0.02022 -0.0772,0.02013 0.01192,0.08196 0.01192,0.08196 0.08115,0.02138 c 0.09145,0.024 0.260146,0.150964 0.310714,0.23379 0.03122,0.05109 0.07532,0.356752 0.125788,0.871173 l 0.02128,0.216731 -0.116378,0.172048 -0.116361,0.172048 0.05927,0.123494 c 0.0326,0.06793 0.113487,0.181124 0.179744,0.251555 l 0.120504,0.128071 h 0.07532 0.07532 l -0.02393,0.06231 c -0.01312,0.03435 -0.02393,0.09057 -0.02393,0.12509 v 0.0628 l -0.09121,-0.08573 c -0.05018,-0.04712 -0.105912,-0.08573 -0.123883,-0.08573 -0.01802,0 -0.08812,-0.06405 -0.155846,-0.142459 l -0.123155,-0.142478 -0.05439,0.101598 -0.05439,0.101578 0.08466,0.203755 c 0.04658,0.112067 0.08467,0.236867 0.08467,0.277313 v 0.07354 h -0.07883 -0.07883 v -0.08863 c 0,-0.04877 -0.01578,-0.112647 -0.0344,-0.141965 l -0.0338,-0.05331 -0.02942,0.270036 c -0.01622,0.148525 -0.02835,0.46921 -0.02681,0.714348 l 0.0027,0.445712 -0.09906,0.10631 -0.09907,0.106308 -0.02941,0.177157 -0.02941,0.177157 0.06837,0.173757 c 0.03761,0.09556 0.06837,0.200961 0.06837,0.234207 v 0.06045 h -0.187748 -0.18774 l -0.02327,-0.06551 z"
           id="path101573-4-8-4"
           sodipodi:nodetypes="ccccscccccccccccscssccsccscccscccccccccccscccssccccccccccscccccccccccccscccssccccsccscccccscccsccccccccccsccccc" />
        <path
           style="fill:#000000;stroke-width:0.0391139"
           d="m -23.136383,42.301077 -0.08311,-0.03352 -0.03066,-0.188861 c -0.03533,-0.218086 -0.03619,-0.559742 -0.0017,-0.668752 l 0.02384,-0.07491 -0.07893,-0.100327 c -0.09603,-0.122071 -0.100183,-0.234279 -0.01362,-0.366445 l 0.06531,-0.09971 0.0178,-0.30707 c 0.0098,-0.168893 0.0068,-0.351712 -0.0068,-0.406265 -0.02222,-0.08846 -0.164102,-0.209049 -0.201728,-0.171438 -0.0077,0.0077 -0.03406,0.145861 -0.0579,0.306302 l -0.04333,0.291714 -0.09881,0.206801 -0.09879,0.206792 0.05117,0.06176 0.05126,0.06176 -0.08674,0.07021 -0.08675,0.07021 v 0.313784 0.313775 l -0.07271,0.02305 c -0.04002,0.01268 -0.101715,0.01191 -0.137195,-0.0019 l -0.06445,-0.02478 -0.104032,0.06809 -0.104014,0.06809 -0.148655,0.0038 -0.148665,0.0038 -0.05015,-0.051 -0.05015,-0.051 0.09777,-0.07597 c 0.307334,-0.238602 0.393085,-0.323303 0.414771,-0.409732 l 0.0241,-0.09607 -0.06011,-0.09182 c -0.03304,-0.05052 -0.07238,-0.156868 -0.08727,-0.236411 l -0.02716,-0.144613 0.06199,-0.04697 0.06199,-0.04697 0.02256,-0.371583 c 0.01243,-0.204372 0.04163,-0.508532 0.06505,-0.675927 l 0.04249,-0.304343 -0.06318,-0.06982 c -0.03474,-0.03842 -0.07331,-0.121457 -0.08576,-0.184586 l -0.02256,-0.114772 0.09925,-0.185787 0.09925,-0.185797 h -0.110859 -0.110861 l -0.152062,-0.114858 c -0.245781,-0.185701 -0.28895,-0.232801 -0.28895,-0.315312 0,-0.07751 0.216867,-0.41261 0.370077,-0.571879 0.04385,-0.04552 0.137222,-0.154746 0.207484,-0.242597 l 0.127762,-0.159711 0.234917,-0.0266 c 0.129208,-0.0146 0.244369,-0.04188 0.255914,-0.06051 0.0115,-0.01873 -0.01524,-0.034 -0.05952,-0.034 h -0.08055 v -0.05638 c 0,-0.03102 0.01558,-0.06598 0.03465,-0.0777 0.01899,-0.01172 0.04657,-0.101182 0.06122,-0.198705 l 0.02657,-0.177321 0.07884,-0.07343 c 0.04333,-0.04039 0.134615,-0.08198 0.202826,-0.09245 l 0.124023,-0.01903 0.125726,0.05158 0.125735,0.05159 0.02316,0.110138 c 0.01269,0.0606 0.043,0.188275 0.06718,0.283771 l 0.04402,0.173628 -0.047,0.01565 c -0.08353,0.02785 -0.167125,0.133885 -0.155034,0.196659 0.0068,0.03361 0.09069,0.10729 0.187116,0.163697 l 0.175324,0.102536 0.0465,0.154256 c 0.02563,0.08481 0.04785,0.304737 0.04956,0.488667 l 0.0026,0.334434 0.04214,0.04216 0.04214,0.04216 -0.04794,0.160038 -0.04793,0.160018 0.05474,0.06598 -0.0093,0.27737 -0.05467,0.05465 -0.05467,0.05465 -0.03951,0.2736 c -0.02172,0.150481 -0.03993,0.364533 -0.04027,0.475685 0,0.111151 -0.01566,0.207954 -0.03388,0.215128 l -0.03313,0.01306 0.03772,0.330918 0.03772,0.330929 -0.04377,0.0146 c -0.0241,0.0077 -0.04377,0.05897 -0.04377,0.11337 v 0.09878 l -0.08353,0.08673 -0.08344,0.08673 -0.01848,0.133904 c -0.03533,0.255467 -0.02359,0.384569 0.04956,0.546882 l 0.07357,0.16315 -0.07408,0.05417 c -0.08318,0.0608 -0.157086,0.06493 -0.27915,0.01566 z"
           id="path11-2-3-0"
           sodipodi:nodetypes="cccccsscscsscccccccccscccccccccsccccccccccccccccsscscccscsccccsccccccscsccccccccccccscsccccsccccccscc" />
        <path
           style="fill:#000000;stroke-width:0.0385012"
           d="m -26.753669,42.365812 c -0.179986,-0.0276 -0.183841,-0.16084 -0.0067,-0.23649 0.05674,-0.0242 0.148832,-0.10412 0.204727,-0.17752 l 0.101614,-0.13343 0.02648,-0.17645 0.02648,-0.17647 -0.07996,-0.0559 -0.07996,-0.056 v -0.0923 c 0,-0.0507 0.01919,-0.13432 0.04258,-0.18574 l 0.04258,-0.0935 -0.0409,-0.16821 c -0.02247,-0.0925 -0.08498,-0.29608 -0.138843,-0.45237 l -0.09796,-0.28419 v -0.18495 c 0,-0.20085 -0.05323,-0.38247 -0.112065,-0.38247 l -0.16237,-0.41368 -0.190037,-0.21322 c -0.104522,-0.11727 -0.190043,-0.24243 -0.190043,-0.27813 0,-0.0358 0.02405,-0.15419 0.05347,-0.26335 0.02942,-0.10913 0.07459,-0.30071 0.10034,-0.4257 l 0.04686,-0.22728 0.115652,-0.10565 c 0.06361,-0.0581 0.165747,-0.11565 0.226939,-0.12789 l 0.11126,-0.0223 v -0.0779 -0.078 h -0.09268 -0.09266 l -0.0025,-0.28646 -0.0025,-0.28647 0.09952,-0.0783 c 0.05473,-0.0431 0.15848,-0.0894 0.230542,-0.10287 l 0.131024,-0.0246 0.09547,0.0626 c 0.05247,0.0344 0.105964,0.1044 0.118795,0.15553 0.01282,0.0512 0.04777,0.10235 0.07761,0.11381 0.07871,0.0301 0.06654,0.16373 -0.02624,0.28924 l -0.08046,0.10889 0.05121,0.0821 c 0.02816,0.0451 0.07745,0.0822 0.109376,0.0823 0.03193,6e-5 0.115583,0.0352 0.18581,0.078 l 0.127688,0.0779 0.225894,0.04674 -0.0058,0.0815 c -0.0076,0.10658 -0.0058,0.11857 0.05557,0.38949 0.029,0.12705 0.07409,0.27082 0.100205,0.31948 l 0.04753,0.0885 -0.03888,0.20029 -0.03888,0.20027 0.0076,0.79847 0.0076,0.79848 -0.04534,0.0173 c -0.07811,0.0299 -0.117647,-0.0662 -0.125408,-0.3053 -0.0042,-0.12705 -0.02138,-0.33496 -0.03846,-0.46201 l -0.03101,-0.23101 -0.005,0.15233 c -0.0025,0.0838 -0.03293,0.31974 -0.06705,0.52436 l -0.06194,0.37204 0.06328,0.2784 c 0.03478,0.15312 0.07208,0.38494 0.0828,0.51516 0.01073,0.13023 0.03738,0.29274 0.05918,0.36116 0.02179,0.0683 0.02749,0.14407 0.01249,0.16816 l -0.02707,0.0439 -0.167281,-0.023 c -0.092,-0.0127 -0.194074,-0.0127 -0.226838,-8e-5 l -0.05959,0.0229 0.02422,0.12925 0.02422,0.12925 -0.109969,0.0432 c -0.06051,0.0238 -0.161942,0.0661 -0.225464,0.0939 -0.149546,0.0654 -0.246809,0.0827 -0.365764,0.0644 z"
           id="path4-3-8"
           sodipodi:nodetypes="csscccccscccscsccsssccscccccccccccsscsccccccscscccccccccccccssccccccccccc" />
        <path
           style="fill:#000000;stroke-width:0.0385012"
           d="m -29.726752,42.353505 c -0.01325,-0.0213 0.0033,-0.0665 0.03747,-0.10027 0.07895,-0.079 0.215195,-0.34573 0.236484,-0.46308 l 0.0165,-0.0909 -0.04885,3e-4 c -0.0269,1.1e-4 -0.07837,0.0521 -0.114463,0.11551 -0.03612,0.0634 -0.110355,0.13566 -0.165059,0.16059 l -0.09946,0.0453 -0.06319,-0.0632 -0.06319,-0.0632 0.04602,-0.088 c 0.0253,-0.0484 0.09708,-0.15735 0.159561,-0.24205 0.06244,-0.0847 0.114144,-0.17582 0.11484,-0.20249 0,-0.0267 -0.08541,-0.10181 -0.191344,-0.167 l -0.192617,-0.11852 -0.01601,-0.0832 c -0.03713,-0.19319 -0.113666,-0.66521 -0.116499,-0.71852 -0.0017,-0.0318 0.02808,-0.15304 0.06605,-0.26951 l 0.06915,-0.21175 0.01307,-0.36576 c 0.0076,-0.20118 0.02548,-0.40267 0.04057,-0.44779 l 0.0275,-0.0821 -0.10013,-0.0929 -0.100114,-0.0928 -0.02439,-0.31629 -0.02439,-0.31628 0.05733,-0.0671 c 0.03151,-0.0369 0.09698,-0.16733 0.145489,-0.28982 0.04852,-0.12248 0.118469,-0.2439 0.155455,-0.26981 l 0.06722,-0.0471 -0.01208,-0.16916 c -0.0067,-0.093 -0.02741,-0.17952 -0.04618,-0.1922 -0.01877,-0.0127 -0.04526,-0.0532 -0.05884,-0.0901 l -0.02472,-0.067 0.09577,-0.10626 c 0.05271,-0.0585 0.123405,-0.13862 0.157164,-0.17815 l 0.06135,-0.0718 0.173298,0.0195 0.173281,0.0195 0.08862,0.0908 0.08861,0.0909 0.01491,0.33645 0.01492,0.33647 0.156913,0.13429 0.156897,0.13431 0.06102,0.15256 c 0.03361,0.0839 0.06421,0.25758 0.06806,0.3859 l 0.0067,0.23332 h 0.103767 0.103769 l 0.0637,0.0704 c 0.03503,0.0387 0.0637,0.11686 0.0637,0.17364 v 0.10322 l -0.07199,0.0616 -0.07199,0.0616 0.02757,0.12086 c 0.01518,0.0665 0.03847,0.15552 0.0518,0.19787 l 0.02431,0.077 -0.110305,0.12544 -0.11029,0.12545 -0.02791,0.50218 -0.02791,0.50217 -0.06295,-0.012 -0.06295,-0.012 -0.01928,-0.36537 -0.01928,-0.36536 -0.03093,0.24148 c -0.01702,0.13282 -0.05825,0.31474 -0.09168,0.40426 l -0.06084,0.16278 -0.005,0.36538 -0.005,0.36538 -0.06269,0.0121 -0.06269,0.0121 -0.0033,0.14232 c -0.0017,0.0783 -0.01149,0.25048 -0.02162,0.38267 l -0.01843,0.24034 -0.118462,0.11579 -0.118467,0.1158 h -0.169644 c -0.09332,0 -0.180457,-0.0174 -0.19364,-0.0388 z"
           id="path18-7-0" />
        <path
           d="m -27.508658,39.256616 c -0.05931,-0.03905 -0.09953,-0.06992 -0.06042,-0.112306 0.03944,-0.04133 0.230101,-0.219938 0.240542,-0.227808 0.01045,-0.0078 0.156945,-0.08565 0.216461,-0.184288 0.05884,-0.09903 0.04285,-0.10919 0.08661,-0.146548 0.0435,-0.03719 0.651518,-0.498513 0.651518,-0.498513 l -0.02762,-0.03628 0.07797,-0.0612 -0.02382,-0.02693 0.127227,-0.08901 c 0,0 0.0031,-0.0151 0.01618,-0.0203 0.01338,-0.0041 0.02307,4.37e-4 0.02307,4.37e-4 l 0.01797,0.01809 0.04972,0.0195 0.07128,-0.04958 0.01096,0.0075 0.582466,-0.445611 0.0334,-0.0014 0.107487,-0.06515 c 0,0 0.0121,-0.02575 0.02603,-0.01123 0.01398,0.01569 -0.0043,0.02359 -0.0043,0.02359 l -0.01455,0.0048 -0.08858,0.05983 -0.0082,0.02915 0.02045,0.02364 0.249655,-0.191029 -0.06677,-0.136023 0.04354,-0.04872 0.09308,0.104215 0.01718,0.0042 0.026,-0.01961 c 0,0 0.01331,0.002 0.02772,0.01379 0.0141,0.01225 0.0083,0.03936 0.0083,0.03936 l -0.107335,0.07944 -0.0089,0.0011 -0.365534,0.290153 -0.0565,0.0585 c 0,0 -0.322623,0.249519 -0.330681,0.256532 -0.0093,0.007 -0.04244,0.06107 -0.0574,0.07181 -0.0152,0.01091 -0.145957,0.08821 -0.133749,0.121986 0.01365,0.0333 0.07159,0.08588 0.07159,0.08588 l -0.0114,0.01594 c 0,0 0.14821,0.156157 0.245481,0.218686 0.09733,0.06334 0.275276,0.164705 0.275276,0.164705 l -0.07024,0.175098 c 0,0 -0.220181,-0.106398 -0.331124,-0.197953 -0.111799,-0.091 -0.261311,-0.245863 -0.261311,-0.245863 0,0 -0.03589,0.02495 -0.03763,0.04733 -0.0022,0.0209 -0.02284,0.03706 -0.02284,0.03706 0,0 -0.0652,0.04915 -0.05608,0.093 0.01004,0.04324 2.57e-4,0.08989 -0.05266,0.126237 -0.05277,0.03732 -0.07647,0.05061 -0.09495,0.04894 -0.01791,-0.0021 -0.04234,0.0056 -0.04723,0.01687 -0.0036,0.0108 -0.0169,0.06071 -0.0086,0.130085 0.0081,0.06911 0.01658,0.110025 0.01658,0.110025 0,0 0.0063,0.0259 -0.04065,0.0377 -0.04688,0.01161 -0.134879,0.04359 -0.14067,-0.04439 -0.0064,-0.08631 -0.0046,-0.281704 -0.0046,-0.281704 0,0 -0.02838,-0.06588 -0.09992,-0.0033 -0.07154,0.06258 -0.174715,0.134231 -0.174715,0.134231 0,0 -0.107904,0.145052 -0.166794,0.285544 -0.05983,0.140336 -0.199966,0.377307 -0.205365,0.383843 -0.0053,0.0083 -0.07677,0.08343 -0.125846,0.0016 -0.04904,-0.08134 -0.04687,-0.0853 -0.08242,-0.135399 -0.03556,-0.0501 -0.0444,-0.05983 -0.0444,-0.05983"
           id="path51534-5-2-9-7-5" />
        <path
           d="m -23.995477,37.914211 c 0.02944,-0.06462 0.05366,-0.109154 0.101592,-0.07709 0.04694,0.03256 0.25292,0.193264 0.262312,0.20236 0.0093,0.0091 0.108926,0.141786 0.215587,0.18531 0.106955,0.04275 0.114511,0.02542 0.158195,0.06287 0.04348,0.03722 0.593398,0.566454 0.593398,0.566454 l 0.03157,-0.0329 0.07254,0.06755 0.02292,-0.0277 0.107637,0.111911 c 0,0 0.01541,6.54e-4 0.02256,0.01286 0.0061,0.0126 0.0032,0.02288 0.0032,0.02288 l -0.01506,0.02056 -0.01157,0.05214 0.06001,0.06274 -0.0058,0.01197 0.53044,0.506427 0.0065,0.03279 0.08101,0.0961 c 0,0 0.02732,0.008 0.01513,0.02397 -0.01329,0.01625 -0.02396,-6.15e-4 -0.02396,-6.15e-4 l -0.007,-0.01363 -0.07282,-0.07825 -0.03006,-0.0036 -0.02019,0.02386 0.227388,0.21706 0.124038,-0.08703 0.05488,0.03546 -0.08854,0.1081 -0.0015,0.01765 0.02339,0.02265 c 0,0 7.2e-5,0.01344 -0.0093,0.02952 -0.0099,0.01584 -0.0376,0.0143 -0.0376,0.0143 l -0.0951,-0.09373 -0.0024,-0.0086 -0.343262,-0.316188 -0.06655,-0.04676 c 0,0 -0.296473,-0.280087 -0.304649,-0.286963 -0.0084,-0.0081 -0.06691,-0.03248 -0.07983,-0.04559 -0.01313,-0.01335 -0.109753,-0.130533 -0.141229,-0.113238 -0.03079,0.01863 -0.07375,0.08403 -0.07375,0.08403 l -0.01752,-0.0088 c 0,0 -0.131323,0.170605 -0.178025,0.276389 -0.0475,0.105965 -0.120089,0.297461 -0.120089,0.297461 l -0.183864,-0.04228 c 0,0 0.07106,-0.233987 0.144278,-0.357786 0.07259,-0.124542 0.202429,-0.296235 0.202429,-0.296235 0,0 -0.03022,-0.03159 -0.05259,-0.02985 -0.021,10e-4 -0.04015,-0.01682 -0.04015,-0.01682 0,0 -0.05865,-0.0568 -0.100582,-0.04096 -0.04117,0.01661 -0.08877,0.01417 -0.132877,-0.03245 -0.04504,-0.04635 -0.06185,-0.06771 -0.06305,-0.08622 -7.32e-4,-0.01801 -0.01209,-0.04096 -0.02398,-0.04405 -0.01123,-0.002 -0.06259,-0.0073 -0.129852,0.01161 -0.06703,0.0187 -0.106133,0.03342 -0.106133,0.03342 0,0 -0.02461,0.01028 -0.04354,-0.03432 -0.01873,-0.04452 -0.06395,-0.126501 0.02208,-0.145846 0.08428,-0.01969 0.277601,-0.04812 0.277601,-0.04812 0,0 0.06069,-0.03823 -0.01222,-0.09922 -0.0729,-0.06099 -0.159671,-0.151818 -0.159671,-0.151818 0,0 -0.160014,-0.08413 -0.307929,-0.12056 -0.147905,-0.03739 -0.403724,-0.139121 -0.411016,-0.143447 -0.009,-0.004 -0.09431,-0.06293 -0.0211,-0.124076 0.07277,-0.06105 0.07702,-0.05951 0.120999,-0.1024 0.04399,-0.04288 0.05223,-0.05313 0.05223,-0.05313"
           id="path51534-5-2-9-7-50" />
      </g>
      <g
         id="g26002-7-2-9-1"
         transform="translate(114.48207,-20.567663)">
        <g
           id="g4552-3-8-0-5"
           transform="matrix(0.11531985,0,0,0.11531985,-73.756113,43.644038)">
          <path
             style="fill:#000000;stroke-width:0.264583"
             d="m 448.5629,-12.917757 c -0.35707,-0.357071 -0.15956,-1.250937 0.45423,-2.055657 0.54912,-0.719936 0.66621,-1.287351 0.906,-4.390599 0.15146,-1.960097 0.25464,-4.561528 0.22928,-5.78096 -0.0385,-1.853322 0.0297,-2.265466 0.416,-2.511611 0.34054,-0.217003 0.58924,-0.215069 0.94539,0.0074 0.39205,0.24484 0.54207,0.20769 0.79466,-0.196779 0.17126,-0.274227 0.31138,-0.774054 0.31138,-1.110726 0,-0.336672 0.10461,-0.725241 0.23246,-0.863486 0.12785,-0.138245 0.36373,-1.084792 0.52416,-2.103438 0.16044,-1.018645 0.41191,-2.430912 0.55882,-3.138371 0.22014,-1.060101 0.19004,-1.416746 -0.17115,-2.028195 -0.40368,-0.683384 -0.40481,-0.810961 -0.0143,-1.617255 0.30728,-0.634479 0.34583,-0.969463 0.14006,-1.21739 -0.17916,-0.215877 -0.22029,-0.9626 -0.11151,-2.024357 0.16688,-1.628828 0.1491,-1.697442 -0.55923,-2.158246 -1.44686,-0.941253 -3.5031,-2.906528 -3.50638,-3.351251 -0.006,-0.768504 1.54358,-2.265472 2.85327,-2.75702 0.68444,-0.256882 1.79339,-0.800392 2.46433,-1.207799 0.67093,-0.40741 1.29601,-0.740744 1.38906,-0.740744 0.093,0 0.40564,-0.236472 0.69467,-0.525494 0.45437,-0.454372 0.74543,-0.502505 2.15057,-0.35564 1.50472,0.157275 1.66132,0.122713 2.11445,-0.466693 0.52516,-0.683085 0.67125,-2.219979 0.23657,-2.488631 -0.14553,-0.08994 -0.26459,-0.550938 -0.26459,-1.024447 0,-1.487912 2.28127,-3.041068 4.828,-3.287052 l 1.25612,-0.121326 -0.062,1.29037 c -0.0525,1.09415 0.007,1.278653 0.39454,1.213314 0.25107,-0.04238 0.70365,0.05522 1.00573,0.21689 0.69437,0.371612 0.30236,0.939244 -0.81868,1.185466 -0.66225,0.145455 -0.76297,0.284451 -0.73131,1.009195 0.0202,0.462278 -0.0427,1.048866 -0.13973,1.303527 -0.0971,0.254662 -0.23658,0.652919 -0.31008,0.885015 -0.0735,0.232097 -0.37115,0.484109 -0.66145,0.560026 -0.77845,0.203568 -0.6421,0.831855 0.29197,1.34539 2.00514,1.102389 2.29646,1.675037 2.76425,5.433713 0.0875,0.703357 0.32896,1.760123 0.53651,2.348368 0.5085,1.441241 0.46183,3.486621 -0.11783,5.1644 l -0.47791,1.383268 2.40477,2.473217 c 2.6716,2.747634 6.57905,6.193785 7.49724,6.612141 0.32785,0.149373 0.59608,0.479457 0.59608,0.733518 0,0.697486 -1.04124,0.356354 -1.95311,-0.639879 -0.41937,-0.458166 -0.66679,-0.654437 -0.54983,-0.436155 0.20569,0.383884 -0.86626,-0.384712 -1.23081,-0.882494 -0.089,-0.121571 -0.26762,-0.214085 -0.39687,-0.205589 -0.12925,0.0085 -0.81792,-0.48735 -1.53037,-1.101881 -0.71245,-0.61453 -1.44073,-1.203664 -1.6184,-1.309188 -0.35697,-0.212016 -3.30394,0.330004 -3.30394,0.607674 0,0.09585 0.22081,0.458229 0.49069,0.805275 0.60742,0.7811 1.04927,2.194737 1.05748,3.383275 0.003,0.495109 0.13277,0.978405 0.28743,1.073989 0.27504,0.169987 0.56538,3.510412 0.64036,7.367521 0.0422,2.173801 0.30529,2.531549 2.47259,3.362891 1.29318,0.496046 1.73575,1.345557 0.98643,1.89347 -0.6975,0.510027 -1.50541,0.434903 -3.34002,-0.310568 -0.89532,-0.363802 -2.00129,-0.661458 -2.45772,-0.661458 -0.45642,0 -1.04183,-0.155007 -1.30092,-0.344456 -0.42551,-0.31114 -0.44068,-0.498978 -0.15679,-1.941944 0.25879,-1.315418 0.24232,-1.967042 -0.0933,-3.69044 -0.22417,-1.151123 -0.48439,-2.598343 -0.57827,-3.216045 -0.0939,-0.617702 -0.27938,-1.190276 -0.41224,-1.272387 -0.13286,-0.08211 -0.24156,-0.380391 -0.24156,-0.662844 0,-0.368692 -0.18297,-0.513551 -0.64864,-0.513551 -0.51383,0 -0.90854,-0.398674 -1.89915,-1.918229 -1.15081,-1.76529 -1.26353,-1.865493 -1.41381,-1.256771 -0.25394,1.028591 -0.91945,0.826415 -1.01396,-0.308031 -0.14905,-1.789202 -0.69129,-1.394357 -2.33164,1.697842 -0.85599,1.613614 -1.73494,3.018139 -1.95322,3.121163 -0.21828,0.103026 -0.83232,0.373168 -1.36453,0.600318 -0.73409,0.313314 -1.01235,0.616498 -1.15283,1.256099 -0.10185,0.463703 -0.58746,2.048473 -1.07913,3.521707 -0.49168,1.473235 -0.89564,3.009768 -0.89769,3.414517 -0.002,0.404752 -0.1778,0.802703 -0.39054,0.884341 -0.21274,0.08163 -0.46495,0.40532 -0.56046,0.719299 -0.30941,1.017113 -0.93766,1.496912 -1.96006,1.496912 -0.53528,0 -1.05261,-0.07937 -1.14962,-0.17639 z"
             id="path3698-2-7-3-1-4" />
          <path
             d="m 459.47142,-40.298656 c 0.1725,-0.591119 0.32582,-1.003163 0.77679,-0.787111 0.44312,0.221498 2.40952,1.346465 2.50136,1.412936 0.091,0.06677 1.11002,1.08246 2.07927,1.324304 0.97074,0.235225 1.01424,0.07681 1.43544,0.344268 0.41912,0.265747 5.79275,4.129153 5.79275,4.129153 l 0.23037,-0.321377 0.70603,0.490231 0.16243,-0.266086 1.06206,0.82759 c 0,0 0.13302,-0.01305 0.20954,0.08236 0.0678,0.100566 0.0552,0.192362 0.0552,0.192362 l -0.10415,0.194998 -0.0348,0.461801 0.59261,0.464387 -0.0342,0.109964 5.17825,3.691679 0.0964,0.273347 0.814,0.724808 c 0,0 0.24428,0.03458 0.15941,0.187075 -0.0944,0.155874 -0.20645,0.02454 -0.20645,0.02454 l -0.0771,-0.108265 -0.72174,-0.581646 -0.26243,0.0066 -0.14383,0.229742 2.21976,1.582243 0.9572,-0.900164 0.51484,0.236652 -0.62647,1.037185 0.009,0.153161 0.22877,0.165492 c 0,0 0.0175,0.115337 -0.0437,0.264893 -0.0655,0.148158 -0.30504,0.169133 -0.30504,0.169133 l -0.93204,-0.687114 -0.0316,-0.07086 -3.33675,-2.289984 -0.6289,-0.319124 c 0,0 -2.89055,-2.03791 -2.96922,-2.086827 -0.0817,-0.05906 -0.61438,-0.196091 -0.74151,-0.292678 -0.12924,-0.09814 -1.10324,-0.98486 -1.35204,-0.797586 -0.24121,0.197997 -0.52929,0.812332 -0.52929,0.812332 l -0.16114,-0.05382 c 0,0 -0.91646,1.626502 -1.18675,2.592121 -0.27688,0.968179 -0.66336,2.70146 -0.66336,2.70146 l -1.63035,-0.13584 c 0,0 0.32055,-2.096173 0.79656,-3.249103 0.46923,-1.158615 1.37165,-2.792614 1.37165,-2.792614 0,0 -0.29834,-0.233824 -0.48822,-0.19121 -0.17895,0.03479 -0.3654,-0.0948 -0.3654,-0.0948 0,0 -0.57361,-0.415107 -0.91382,-0.227743 -0.33285,0.193422 -0.74439,0.231291 -1.18055,-0.114671 -0.44386,-0.342187 -0.61444,-0.504757 -0.64768,-0.662242 -0.0286,-0.153689 -0.15437,-0.336672 -0.26026,-0.34847 -0.0988,-0.0026 -0.54628,0.01472 -1.1002,0.260059 -0.55222,0.243259 -0.86965,0.417919 -0.86965,0.417919 0,0 -0.19844,0.11867 -0.41606,-0.240789 -0.2157,-0.359003 -0.7051,-1.006813 0.009,-1.279092 0.69902,-0.273047 2.32327,-0.755861 2.32327,-0.755861 0,0 0.4737,-0.403154 -0.22738,-0.836571 -0.7011,-0.433422 -1.55796,-1.105907 -1.55796,-1.105907 0,0 -1.47732,-0.524565 -2.79189,-0.654505 -1.31568,-0.138149 -3.63703,-0.695523 -3.70496,-0.723609 -0.0823,-0.02271 -0.88725,-0.423623 -0.33433,-1.038897 0.54918,-0.613851 0.58755,-0.605895 0.91208,-1.028351 0.3246,-0.422392 0.38272,-0.520544 0.38272,-0.520544"
             id="path51534-5-2-9-7-0-7"
             style="stroke-width:8.67153" />
        </g>
        <path
           style="fill:#000000;stroke-width:0.0394053"
           d="m -32.103606,42.207806 c -0.01281,-0.03601 -0.04284,-0.112528 -0.06665,-0.170046 l -0.04338,-0.104573 0.04726,-0.0936 c 0.06485,-0.128577 0.05924,-0.374774 -0.01083,-0.47489 l -0.05799,-0.08286 0.0018,-0.168357 0.0018,-0.168355 0.06566,-0.112244 0.06566,-0.112244 -0.01272,-0.199995 -0.01271,-0.200013 -0.05194,-0.177728 -0.07866,-0.177737 -0.03269,0.041 c -0.01911,0.0193 -0.05376,0.174112 -0.07696,0.343858 -0.05822,0.424735 -0.08961,0.543358 -0.167038,0.630777 l -0.06668,0.07528 0.0082,0.192238 c 0.0045,0.105745 0.011,0.246986 0.01502,0.313878 l 0.0073,0.121629 -0.04739,0.01556 c -0.02603,0.0081 -0.0474,0.06851 -0.0474,0.133239 v 0.117688 l -0.09288,0.06406 c -0.05112,0.03516 -0.13631,0.06406 -0.189382,0.06406 h -0.09648 l -0.02247,-0.0577 c -0.01229,-0.03173 0.01647,-0.141827 0.06405,-0.244641 0.08842,-0.191219 0.103902,-0.308589 0.06112,-0.465426 l -0.0242,-0.08872 -0.08306,-0.02142 -0.08315,-0.02142 0.02993,-0.239599 c 0.01638,-0.131784 0.04312,-0.276632 0.05922,-0.321911 0.0162,-0.04526 0.02457,-0.202667 0.01864,-0.349779 -0.0054,-0.147112 0.0091,-0.341554 0.03293,-0.432081 0.02401,-0.09054 0.08638,-0.365315 0.09281,-0.619163 0.006,-0.253848 0.02308,-0.497527 0.03706,-0.541504 l 0.02539,-0.07992 -0.110931,-0.0478 c -0.06099,-0.02622 -0.186273,-0.100359 -0.278383,-0.164616 l -0.167478,-0.116828 v -0.123958 -0.123949 l 0.20143,-0.194448 c 0.110794,-0.106957 0.283675,-0.27706 0.384209,-0.378009 l 0.182773,-0.183543 0.144703,-0.02458 0.144685,-0.02448 0.02625,0.04257 0.02625,0.04257 0.05559,-0.04615 0.05559,-0.04615 v -0.134331 -0.134331 l -0.0591,-0.02264 c -0.03251,-0.01248 -0.0591,-0.04693 -0.0591,-0.07654 0,-0.09834 0.186375,-0.390143 0.281067,-0.440081 l 0.09328,-0.04915 0.118223,0.0239 c 0.06502,0.01316 0.157802,0.06028 0.20619,0.104665 l 0.08797,0.08079 -0.0026,0.293984 -0.0026,0.293974 -0.07712,0.02022 -0.0772,0.02013 0.01192,0.08196 0.01192,0.08196 0.08115,0.02138 c 0.09145,0.024 0.260146,0.150964 0.310714,0.23379 0.03122,0.05109 0.07532,0.356752 0.125788,0.871173 l 0.02128,0.216731 -0.116378,0.172048 -0.116361,0.172048 0.05927,0.123494 c 0.0326,0.06793 0.113487,0.181124 0.179744,0.251555 l 0.120504,0.128071 h 0.07532 0.07532 l -0.02393,0.06231 c -0.01312,0.03435 -0.02393,0.09057 -0.02393,0.12509 v 0.0628 l -0.09121,-0.08573 c -0.05018,-0.04712 -0.105912,-0.08573 -0.123883,-0.08573 -0.01802,0 -0.08812,-0.06405 -0.155846,-0.142459 l -0.123155,-0.142478 -0.05439,0.101598 -0.05439,0.101578 0.08466,0.203755 c 0.04658,0.112067 0.08467,0.236867 0.08467,0.277313 v 0.07354 h -0.07883 -0.07883 v -0.08863 c 0,-0.04877 -0.01578,-0.112647 -0.0344,-0.141965 l -0.0338,-0.05331 -0.02942,0.270036 c -0.01622,0.148525 -0.02835,0.46921 -0.02681,0.714348 l 0.0027,0.445712 -0.09906,0.10631 -0.09907,0.106308 -0.02941,0.177157 -0.02941,0.177157 0.06837,0.173757 c 0.03761,0.09556 0.06837,0.200961 0.06837,0.234207 v 0.06045 h -0.187748 -0.18774 l -0.02327,-0.06551 z"
           id="path101573-4-8-4-4"
           sodipodi:nodetypes="ccccscccccccccccscssccsccscccscccccccccccscccssccccccccccscccccccccccccscccssccccsccscccccscccsccccccccccsccccc" />
        <path
           style="fill:#000000;stroke-width:0.0391139"
           d="m -23.136383,42.301077 -0.08311,-0.03352 -0.03066,-0.188861 c -0.03533,-0.218086 -0.03619,-0.559742 -0.0017,-0.668752 l 0.02384,-0.07491 -0.07893,-0.100327 c -0.09603,-0.122071 -0.100183,-0.234279 -0.01362,-0.366445 l 0.06531,-0.09971 0.0178,-0.30707 c 0.0098,-0.168893 0.0068,-0.351712 -0.0068,-0.406265 -0.02222,-0.08846 -0.164102,-0.209049 -0.201728,-0.171438 -0.0077,0.0077 -0.03406,0.145861 -0.0579,0.306302 l -0.04333,0.291714 -0.09881,0.206801 -0.09879,0.206792 0.05117,0.06176 0.05126,0.06176 -0.08674,0.07021 -0.08675,0.07021 v 0.313784 0.313775 l -0.07271,0.02305 c -0.04002,0.01268 -0.101715,0.01191 -0.137195,-0.0019 l -0.06445,-0.02478 -0.104032,0.06809 -0.104014,0.06809 -0.148655,0.0038 -0.148665,0.0038 -0.05015,-0.051 -0.05015,-0.051 0.09777,-0.07597 c 0.307334,-0.238602 0.393085,-0.323303 0.414771,-0.409732 l 0.0241,-0.09607 -0.06011,-0.09182 c -0.03304,-0.05052 -0.07238,-0.156868 -0.08727,-0.236411 l -0.02716,-0.144613 0.06199,-0.04697 0.06199,-0.04697 0.02256,-0.371583 c 0.01243,-0.204372 0.04163,-0.508532 0.06505,-0.675927 l 0.04249,-0.304343 -0.06318,-0.06982 c -0.03474,-0.03842 -0.07331,-0.121457 -0.08576,-0.184586 l -0.02256,-0.114772 0.09925,-0.185787 0.09925,-0.185797 h -0.110859 -0.110861 l -0.152062,-0.114858 c -0.245781,-0.185701 -0.28895,-0.232801 -0.28895,-0.315312 0,-0.07751 0.216867,-0.41261 0.370077,-0.571879 0.04385,-0.04552 0.137222,-0.154746 0.207484,-0.242597 l 0.127762,-0.159711 0.234917,-0.0266 c 0.129208,-0.0146 0.244369,-0.04188 0.255914,-0.06051 0.0115,-0.01873 -0.01524,-0.034 -0.05952,-0.034 h -0.08055 v -0.05638 c 0,-0.03102 0.01558,-0.06598 0.03465,-0.0777 0.01899,-0.01172 0.04657,-0.101182 0.06122,-0.198705 l 0.02657,-0.177321 0.07884,-0.07343 c 0.04333,-0.04039 0.134615,-0.08198 0.202826,-0.09245 l 0.124023,-0.01903 0.125726,0.05158 0.125735,0.05159 0.02316,0.110138 c 0.01269,0.0606 0.043,0.188275 0.06718,0.283771 l 0.04402,0.173628 -0.047,0.01565 c -0.08353,0.02785 -0.167125,0.133885 -0.155034,0.196659 0.0068,0.03361 0.09069,0.10729 0.187116,0.163697 l 0.175324,0.102536 0.0465,0.154256 c 0.02563,0.08481 0.04785,0.304737 0.04956,0.488667 l 0.0026,0.334434 0.04214,0.04216 0.04214,0.04216 -0.04794,0.160038 -0.04793,0.160018 0.05474,0.06598 -0.0093,0.27737 -0.05467,0.05465 -0.05467,0.05465 -0.03951,0.2736 c -0.02172,0.150481 -0.03993,0.364533 -0.04027,0.475685 0,0.111151 -0.01566,0.207954 -0.03388,0.215128 l -0.03313,0.01306 0.03772,0.330918 0.03772,0.330929 -0.04377,0.0146 c -0.0241,0.0077 -0.04377,0.05897 -0.04377,0.11337 v 0.09878 l -0.08353,0.08673 -0.08344,0.08673 -0.01848,0.133904 c -0.03533,0.255467 -0.02359,0.384569 0.04956,0.546882 l 0.07357,0.16315 -0.07408,0.05417 c -0.08318,0.0608 -0.157086,0.06493 -0.27915,0.01566 z"
           id="path11-2-3-0-3"
           sodipodi:nodetypes="cccccsscscsscccccccccscccccccccsccccccccccccccccsscscccscsccccsccccccscsccccccccccccscsccccsccccccscc" />
        <path
           style="fill:#000000;stroke-width:0.0385012"
           d="m -26.753669,42.365812 c -0.179986,-0.0276 -0.183841,-0.16084 -0.0067,-0.23649 0.05674,-0.0242 0.148832,-0.10412 0.204727,-0.17752 l 0.101614,-0.13343 0.02648,-0.17645 0.02648,-0.17647 -0.07996,-0.0559 -0.07996,-0.056 v -0.0923 c 0,-0.0507 0.01919,-0.13432 0.04258,-0.18574 l 0.04258,-0.0935 -0.0409,-0.16821 c -0.02247,-0.0925 -0.08498,-0.29608 -0.138843,-0.45237 l -0.09796,-0.28419 v -0.18495 c 0,-0.20085 -0.05323,-0.38247 -0.112065,-0.38247 l -0.16237,-0.41368 -0.190037,-0.21322 c -0.104522,-0.11727 -0.190043,-0.24243 -0.190043,-0.27813 0,-0.0358 0.02405,-0.15419 0.05347,-0.26335 0.02942,-0.10913 0.07459,-0.30071 0.10034,-0.4257 l 0.04686,-0.22728 0.115652,-0.10565 c 0.06361,-0.0581 0.165747,-0.11565 0.226939,-0.12789 l 0.11126,-0.0223 v -0.0779 -0.078 h -0.09268 -0.09266 l -0.0025,-0.28646 -0.0025,-0.28647 0.09952,-0.0783 c 0.05473,-0.0431 0.15848,-0.0894 0.230542,-0.10287 l 0.131024,-0.0246 0.09547,0.0626 c 0.05247,0.0344 0.105964,0.1044 0.118795,0.15553 0.01282,0.0512 0.04777,0.10235 0.07761,0.11381 0.07871,0.0301 0.06654,0.16373 -0.02624,0.28924 l -0.08046,0.10889 0.05121,0.0821 c 0.02816,0.0451 0.07745,0.0822 0.109376,0.0823 0.03193,6e-5 0.115583,0.0352 0.18581,0.078 l 0.127688,0.0779 0.225894,0.04674 -0.0058,0.0815 c -0.0076,0.10658 -0.0058,0.11857 0.05557,0.38949 0.029,0.12705 0.07409,0.27082 0.100205,0.31948 l 0.04753,0.0885 -0.03888,0.20029 -0.03888,0.20027 0.0076,0.79847 0.0076,0.79848 -0.04534,0.0173 c -0.07811,0.0299 -0.117647,-0.0662 -0.125408,-0.3053 -0.0042,-0.12705 -0.02138,-0.33496 -0.03846,-0.46201 l -0.03101,-0.23101 -0.005,0.15233 c -0.0025,0.0838 -0.03293,0.31974 -0.06705,0.52436 l -0.06194,0.37204 0.06328,0.2784 c 0.03478,0.15312 0.07208,0.38494 0.0828,0.51516 0.01073,0.13023 0.03738,0.29274 0.05918,0.36116 0.02179,0.0683 0.02749,0.14407 0.01249,0.16816 l -0.02707,0.0439 -0.167281,-0.023 c -0.092,-0.0127 -0.194074,-0.0127 -0.226838,-8e-5 l -0.05959,0.0229 0.02422,0.12925 0.02422,0.12925 -0.109969,0.0432 c -0.06051,0.0238 -0.161942,0.0661 -0.225464,0.0939 -0.149546,0.0654 -0.246809,0.0827 -0.365764,0.0644 z"
           id="path4-3-8-7"
           sodipodi:nodetypes="csscccccscccscsccsssccscccccccccccsscsccccccscscccccccccccccssccccccccccc" />
        <path
           style="fill:#000000;stroke-width:0.0385012"
           d="m -29.726752,42.353505 c -0.01325,-0.0213 0.0033,-0.0665 0.03747,-0.10027 0.07895,-0.079 0.215195,-0.34573 0.236484,-0.46308 l 0.0165,-0.0909 -0.04885,3e-4 c -0.0269,1.1e-4 -0.07837,0.0521 -0.114463,0.11551 -0.03612,0.0634 -0.110355,0.13566 -0.165059,0.16059 l -0.09946,0.0453 -0.06319,-0.0632 -0.06319,-0.0632 0.04602,-0.088 c 0.0253,-0.0484 0.09708,-0.15735 0.159561,-0.24205 0.06244,-0.0847 0.114144,-0.17582 0.11484,-0.20249 0,-0.0267 -0.08541,-0.10181 -0.191344,-0.167 l -0.192617,-0.11852 -0.01601,-0.0832 c -0.03713,-0.19319 -0.113666,-0.66521 -0.116499,-0.71852 -0.0017,-0.0318 0.02808,-0.15304 0.06605,-0.26951 l 0.06915,-0.21175 0.01307,-0.36576 c 0.0076,-0.20118 0.02548,-0.40267 0.04057,-0.44779 l 0.0275,-0.0821 -0.10013,-0.0929 -0.100114,-0.0928 -0.02439,-0.31629 -0.02439,-0.31628 0.05733,-0.0671 c 0.03151,-0.0369 0.09698,-0.16733 0.145489,-0.28982 0.04852,-0.12248 0.118469,-0.2439 0.155455,-0.26981 l 0.06722,-0.0471 -0.01208,-0.16916 c -0.0067,-0.093 -0.02741,-0.17952 -0.04618,-0.1922 -0.01877,-0.0127 -0.04526,-0.0532 -0.05884,-0.0901 l -0.02472,-0.067 0.09577,-0.10626 c 0.05271,-0.0585 0.123405,-0.13862 0.157164,-0.17815 l 0.06135,-0.0718 0.173298,0.0195 0.173281,0.0195 0.08862,0.0908 0.08861,0.0909 0.01491,0.33645 0.01492,0.33647 0.156913,0.13429 0.156897,0.13431 0.06102,0.15256 c 0.03361,0.0839 0.06421,0.25758 0.06806,0.3859 l 0.0067,0.23332 h 0.103767 0.103769 l 0.0637,0.0704 c 0.03503,0.0387 0.0637,0.11686 0.0637,0.17364 v 0.10322 l -0.07199,0.0616 -0.07199,0.0616 0.02757,0.12086 c 0.01518,0.0665 0.03847,0.15552 0.0518,0.19787 l 0.02431,0.077 -0.110305,0.12544 -0.11029,0.12545 -0.02791,0.50218 -0.02791,0.50217 -0.06295,-0.012 -0.06295,-0.012 -0.01928,-0.36537 -0.01928,-0.36536 -0.03093,0.24148 c -0.01702,0.13282 -0.05825,0.31474 -0.09168,0.40426 l -0.06084,0.16278 -0.005,0.36538 -0.005,0.36538 -0.06269,0.0121 -0.06269,0.0121 -0.0033,0.14232 c -0.0017,0.0783 -0.01149,0.25048 -0.02162,0.38267 l -0.01843,0.24034 -0.118462,0.11579 -0.118467,0.1158 h -0.169644 c -0.09332,0 -0.180457,-0.0174 -0.19364,-0.0388 z"
           id="path18-7-0-9" />
        <path
           d="m -27.508658,39.256616 c -0.05931,-0.03905 -0.09953,-0.06992 -0.06042,-0.112306 0.03944,-0.04133 0.230101,-0.219938 0.240542,-0.227808 0.01045,-0.0078 0.156945,-0.08565 0.216461,-0.184288 0.05884,-0.09903 0.04285,-0.10919 0.08661,-0.146548 0.0435,-0.03719 0.651518,-0.498513 0.651518,-0.498513 l -0.02762,-0.03628 0.07797,-0.0612 -0.02382,-0.02693 0.127227,-0.08901 c 0,0 0.0031,-0.0151 0.01618,-0.0203 0.01338,-0.0041 0.02307,4.37e-4 0.02307,4.37e-4 l 0.01797,0.01809 0.04972,0.0195 0.07128,-0.04958 0.01096,0.0075 0.582466,-0.445611 0.0334,-0.0014 0.107487,-0.06515 c 0,0 0.0121,-0.02575 0.02603,-0.01123 0.01398,0.01569 -0.0043,0.02359 -0.0043,0.02359 l -0.01455,0.0048 -0.08858,0.05983 -0.0082,0.02915 0.02045,0.02364 0.249655,-0.191029 -0.06677,-0.136023 0.04354,-0.04872 0.09308,0.104215 0.01718,0.0042 0.026,-0.01961 c 0,0 0.01331,0.002 0.02772,0.01379 0.0141,0.01225 0.0083,0.03936 0.0083,0.03936 l -0.107335,0.07944 -0.0089,0.0011 -0.365534,0.290153 -0.0565,0.0585 c 0,0 -0.322623,0.249519 -0.330681,0.256532 -0.0093,0.007 -0.04244,0.06107 -0.0574,0.07181 -0.0152,0.01091 -0.145957,0.08821 -0.133749,0.121986 0.01365,0.0333 0.07159,0.08588 0.07159,0.08588 l -0.0114,0.01594 c 0,0 0.14821,0.156157 0.245481,0.218686 0.09733,0.06334 0.275276,0.164705 0.275276,0.164705 l -0.07024,0.175098 c 0,0 -0.220181,-0.106398 -0.331124,-0.197953 -0.111799,-0.091 -0.261311,-0.245863 -0.261311,-0.245863 0,0 -0.03589,0.02495 -0.03763,0.04733 -0.0022,0.0209 -0.02284,0.03706 -0.02284,0.03706 0,0 -0.0652,0.04915 -0.05608,0.093 0.01004,0.04324 2.57e-4,0.08989 -0.05266,0.126237 -0.05277,0.03732 -0.07647,0.05061 -0.09495,0.04894 -0.01791,-0.0021 -0.04234,0.0056 -0.04723,0.01687 -0.0036,0.0108 -0.0169,0.06071 -0.0086,0.130085 0.0081,0.06911 0.01658,0.110025 0.01658,0.110025 0,0 0.0063,0.0259 -0.04065,0.0377 -0.04688,0.01161 -0.134879,0.04359 -0.14067,-0.04439 -0.0064,-0.08631 -0.0046,-0.281704 -0.0046,-0.281704 0,0 -0.02838,-0.06588 -0.09992,-0.0033 -0.07154,0.06258 -0.174715,0.134231 -0.174715,0.134231 0,0 -0.107904,0.145052 -0.166794,0.285544 -0.05983,0.140336 -0.199966,0.377307 -0.205365,0.383843 -0.0053,0.0083 -0.07677,0.08343 -0.125846,0.0016 -0.04904,-0.08134 -0.04687,-0.0853 -0.08242,-0.135399 -0.03556,-0.0501 -0.0444,-0.05983 -0.0444,-0.05983"
           id="path51534-5-2-9-7-5-8" />
        <path
           d="m -23.995477,37.914211 c 0.02944,-0.06462 0.05366,-0.109154 0.101592,-0.07709 0.04694,0.03256 0.25292,0.193264 0.262312,0.20236 0.0093,0.0091 0.108926,0.141786 0.215587,0.18531 0.106955,0.04275 0.114511,0.02542 0.158195,0.06287 0.04348,0.03722 0.593398,0.566454 0.593398,0.566454 l 0.03157,-0.0329 0.07254,0.06755 0.02292,-0.0277 0.107637,0.111911 c 0,0 0.01541,6.54e-4 0.02256,0.01286 0.0061,0.0126 0.0032,0.02288 0.0032,0.02288 l -0.01506,0.02056 -0.01157,0.05214 0.06001,0.06274 -0.0058,0.01197 0.53044,0.506427 0.0065,0.03279 0.08101,0.0961 c 0,0 0.02732,0.008 0.01513,0.02397 -0.01329,0.01625 -0.02396,-6.15e-4 -0.02396,-6.15e-4 l -0.007,-0.01363 -0.07282,-0.07825 -0.03006,-0.0036 -0.02019,0.02386 0.227388,0.21706 0.124038,-0.08703 0.05488,0.03546 -0.08854,0.1081 -0.0015,0.01765 0.02339,0.02265 c 0,0 7.2e-5,0.01344 -0.0093,0.02952 -0.0099,0.01584 -0.0376,0.0143 -0.0376,0.0143 l -0.0951,-0.09373 -0.0024,-0.0086 -0.343262,-0.316188 -0.06655,-0.04676 c 0,0 -0.296473,-0.280087 -0.304649,-0.286963 -0.0084,-0.0081 -0.06691,-0.03248 -0.07983,-0.04559 -0.01313,-0.01335 -0.109753,-0.130533 -0.141229,-0.113238 -0.03079,0.01863 -0.07375,0.08403 -0.07375,0.08403 l -0.01752,-0.0088 c 0,0 -0.131323,0.170605 -0.178025,0.276389 -0.0475,0.105965 -0.120089,0.297461 -0.120089,0.297461 l -0.183864,-0.04228 c 0,0 0.07106,-0.233987 0.144278,-0.357786 0.07259,-0.124542 0.202429,-0.296235 0.202429,-0.296235 0,0 -0.03022,-0.03159 -0.05259,-0.02985 -0.021,10e-4 -0.04015,-0.01682 -0.04015,-0.01682 0,0 -0.05865,-0.0568 -0.100582,-0.04096 -0.04117,0.01661 -0.08877,0.01417 -0.132877,-0.03245 -0.04504,-0.04635 -0.06185,-0.06771 -0.06305,-0.08622 -7.32e-4,-0.01801 -0.01209,-0.04096 -0.02398,-0.04405 -0.01123,-0.002 -0.06259,-0.0073 -0.129852,0.01161 -0.06703,0.0187 -0.106133,0.03342 -0.106133,0.03342 0,0 -0.02461,0.01028 -0.04354,-0.03432 -0.01873,-0.04452 -0.06395,-0.126501 0.02208,-0.145846 0.08428,-0.01969 0.277601,-0.04812 0.277601,-0.04812 0,0 0.06069,-0.03823 -0.01222,-0.09922 -0.0729,-0.06099 -0.159671,-0.151818 -0.159671,-0.151818 0,0 -0.160014,-0.08413 -0.307929,-0.12056 -0.147905,-0.03739 -0.403724,-0.139121 -0.411016,-0.143447 -0.009,-0.004 -0.09431,-0.06293 -0.0211,-0.124076 0.07277,-0.06105 0.07702,-0.05951 0.120999,-0.1024 0.04399,-0.04288 0.05223,-0.05313 0.05223,-0.05313"
           id="path51534-5-2-9-7-50-0" />
      </g>
      <g
         id="g26010-3-1-5"
         transform="translate(136.36584,-20.632584)">
        <path
           id="path3682-9-3-3-3"
           style="fill:#000000;stroke-width:0.0305117"
           d="m -12.407571,42.283773 c -0.170515,-0.07368 -0.15725,-0.224369 0.02324,-0.264011 0.05443,-0.01196 0.133496,-0.04327 0.175696,-0.06959 0.168514,-0.105091 0.167855,-0.102393 0.174057,-0.713149 0.0032,-0.313872 0.01965,-0.596556 0.03657,-0.628185 0.01693,-0.03163 0.02356,-0.0851 0.01474,-0.118829 -0.02101,-0.08034 0.04611,-0.236308 0.23244,-0.540151 0.09113,-0.148597 0.163301,-0.308694 0.180382,-0.400124 0.01566,-0.08383 0.02548,-0.155406 0.02182,-0.159065 -0.0037,-0.0037 -0.114565,0.06249 -0.246458,0.146989 -0.179696,0.11513 -0.258102,0.14905 -0.3128,0.135321 -0.06681,-0.01677 -0.07002,-0.01277 -0.03791,0.04725 0.0277,0.05175 0.02581,0.07484 -0.0089,0.109604 -0.03838,0.03838 -0.05116,0.03301 -0.09947,-0.0417 -0.03049,-0.04716 -0.102987,-0.127318 -0.161108,-0.178138 -0.06203,-0.05423 -0.107456,-0.12355 -0.109987,-0.167815 -0.0032,-0.05608 -0.01909,-0.07283 -0.06198,-0.06535 -0.06698,0.01169 -0.352776,0.249923 -0.353963,0.295051 -6.92e-4,0.02695 -0.202835,0.137302 -0.251489,0.137302 -0.01028,0 -0.01587,-0.03664 -0.01243,-0.08141 0.0048,-0.06211 0.02363,-0.08269 0.07952,-0.08681 0.04989,-0.0037 0.168382,-0.106676 0.371427,-0.322868 0.249017,-0.265139 0.335366,-0.385369 0.523843,-0.729378 0.189326,-0.345562 0.223575,-0.429646 0.21263,-0.522029 -0.01052,-0.08879 -0.03268,-0.119484 -0.114395,-0.158449 -0.05574,-0.02658 -0.11031,-0.07657 -0.121266,-0.11109 -0.01105,-0.03482 -0.04617,-0.06276 -0.07889,-0.06276 -0.05074,0 -0.05982,-0.02448 -0.06506,-0.175442 -0.01077,-0.310337 -0.0025,-0.354276 0.08014,-0.425359 0.191094,-0.164374 0.481475,-0.09848 0.557549,0.126515 0.02244,0.06638 0.07108,0.152918 0.108083,0.192305 0.05024,0.05348 0.05763,0.07758 0.02918,0.09516 -0.0259,0.01601 0.0162,0.06188 0.131533,0.143323 0.09329,0.06588 0.213773,0.153417 0.267731,0.194528 0.05396,0.04111 0.08836,0.0634 0.07644,0.04953 -0.03766,-0.04384 0.06204,-0.192585 0.142649,-0.212816 0.141407,-0.03549 0.248114,0.01485 0.233882,0.110327 -0.0018,0.01198 0.01699,0.01402 0.04173,0.0045 0.02927,-0.01123 0.05552,0.01046 0.07516,0.06212 0.0166,0.04366 0.04572,0.07938 0.06471,0.07938 0.02099,0 0.02584,0.02094 0.01238,0.0534 -0.01218,0.02937 -0.02281,0.07056 -0.02361,0.09154 -8.07e-4,0.02098 -0.01895,0.03814 -0.04033,0.03814 -0.02138,0 -0.04758,0.01407 -0.05821,0.03127 -0.01063,0.0172 -0.008,0.02815 0.0058,0.02433 0.01383,-0.0038 0.07726,0.0034 0.14095,0.01614 0.08307,0.01655 0.123818,0.04417 0.144176,0.09771 0.01586,0.04172 0.05305,0.07464 0.08432,0.07464 0.03077,0 0.07998,0.01757 0.109346,0.03905 0.08192,0.0599 0.01716,0.196301 -0.120522,0.253828 -0.104355,0.0436 -0.10748,0.04909 -0.06432,0.112943 0.03167,0.04685 0.07021,0.06433 0.127646,0.05788 0.127572,-0.01432 0.210194,0.06109 0.268062,0.24467 0.06699,0.212517 0.06605,0.275041 -0.0055,0.363356 -0.04519,0.05581 -0.08607,0.07086 -0.185411,0.06825 -0.122831,-0.0032 -0.126713,-4.62e-4 -0.107388,0.07672 0.01102,0.04403 0.08122,0.243644 0.15599,0.443583 0.09089,0.243055 0.125797,0.373667 0.105337,0.394126 -0.02046,0.02046 -0.03742,0.01122 -0.05119,-0.0279 -0.01132,-0.03217 -0.09927,-0.230127 -0.195435,-0.439894 -0.09616,-0.209768 -0.184106,-0.420693 -0.195429,-0.468723 l -0.02059,-0.08733 -0.104835,0.117838 c -0.05766,0.06481 -0.168164,0.248275 -0.245566,0.407699 -0.0774,0.159423 -0.159771,0.311268 -0.183044,0.337432 -0.03664,0.04119 -0.0306,0.06159 0.04496,0.152115 0.048,0.0575 0.08115,0.120517 0.07366,0.140038 -0.0075,0.01952 0.01977,0.102103 0.06057,0.183515 0.04081,0.08141 0.09154,0.20294 0.112754,0.270066 0.02121,0.06713 0.07114,0.200582 0.110956,0.296569 0.08034,0.193687 0.09353,0.344792 0.03215,0.368346 -0.02213,0.0085 -0.114284,-0.01063 -0.204782,-0.0425 -0.0905,-0.03187 -0.196644,-0.05794 -0.235879,-0.05794 -0.07792,0 -0.251659,-0.07977 -0.250911,-0.115204 0.0015,-0.07254 0.06604,-0.109986 0.178064,-0.103376 0.0669,0.0039 0.130426,-0.007 0.141168,-0.02443 0.01074,-0.01738 0.0067,-0.0316 -0.0091,-0.0316 -0.01574,0 -0.04618,-0.04462 -0.06766,-0.09916 -0.09793,-0.248711 -0.187642,-0.415197 -0.233132,-0.432653 -0.1015,-0.03895 -0.175059,0.09916 -0.217715,0.408779 -0.07622,0.553259 -0.0843,0.643792 -0.06077,0.680824 0.02103,0.03309 0.03605,0.324576 0.01694,0.328698 -0.03244,0.007 -0.526738,0.06462 -0.648375,0.07559 -0.08391,0.0076 -0.180495,0.0017 -0.214641,-0.01307 z m 0.469165,-3.128786 c 0.0393,-0.03455 0.08441,-0.08687 0.100258,-0.116264 0.0256,-0.0475 0.01519,-0.05221 -0.0937,-0.0424 -0.134329,0.0121 -0.219544,0.06456 -0.197631,0.12166 0.0077,0.02014 -0.03085,0.05497 -0.08572,0.07741 l -0.09977,0.04079 0.07628,0.02189 c 0.08757,0.02513 0.197328,-0.01255 0.30029,-0.103083 z m -0.103755,-0.522927 c 0.03569,-0.03489 0.08759,-0.07615 0.115345,-0.09168 0.0394,-0.02205 0.04665,-0.05663 0.03309,-0.157764 -0.0096,-0.07124 -0.02586,-0.129511 -0.03624,-0.129494 -0.02905,4.8e-5 -0.304331,0.475793 -0.307263,0.531025 -0.0014,0.02698 0.06458,-0.02448 0.195071,-0.152083 z" />
        <path
           id="path3245-2-34-5-8"
           style="fill:#000000;stroke-width:0.0305117"
           d="m -9.5973604,37.876117 c -0.025701,0.101834 -0.03278,0.13959 -0.00507,0.226407 0.018528,0.05804 0.017207,0.09017 0.00262,0.128188 -0.010471,0.0273 -0.0055,0.06596 0.011059,0.08591 0.038761,0.04671 -0.086816,0.44418 -0.1403328,0.44418 -0.056248,0 -0.1328115,0.124313 -0.1328115,0.215642 0,0.103812 0.087384,0.18101 0.2048934,0.18101 0.080273,0 0.096458,0.01384 0.1159402,0.09916 0.0507,0.222044 0.026484,0.422508 -0.1393513,1.153544 -0.017346,0.07647 -0.023149,0.160891 -0.012895,0.187612 0.010252,0.02672 0.00369,0.05782 -0.014575,0.06911 -0.022622,0.01398 -0.032149,0.25587 -0.029865,0.758251 0.00384,0.844489 0.011117,0.875024 0.2084499,0.875024 0.064684,0 0.1307312,-0.01716 0.146771,-0.03814 l -4.83e-5,-2.8e-5 c 0.01604,-0.02098 0.026885,-0.209768 0.024098,-0.419536 -0.00279,-0.209768 0.00517,-0.395126 0.017682,-0.411908 0.012511,-0.01678 0.054017,-0.186258 0.092235,-0.376614 0.066262,-0.330034 0.074434,-0.349464 0.1760346,-0.418503 0.099764,-0.06779 0.1144838,-0.100695 0.2312071,-0.516832 0.098759,-0.352095 0.132469,-0.436621 0.1622504,-0.406839 0.020677,0.02068 0.037593,0.08123 0.037593,0.134556 0,0.05333 0.022094,0.149841 0.049099,0.214472 0.027004,0.06463 0.051969,0.186447 0.055476,0.270704 0.00351,0.08426 0.017254,0.177341 0.030547,0.206854 0.020781,0.04614 0.016066,0.233979 -0.020837,0.830198 l -0.0075,0.121065 0.2135816,0.03987 c 0.4245025,0.07923 0.4831905,0.08082 0.5430755,0.01464 0.0505,-0.0558 0.05092,-0.06443 0.0054,-0.109944 -0.02717,-0.02717 -0.07656,-0.04939 -0.109753,-0.04939 -0.08238,0 -0.229104,-0.07912 -0.250597,-0.135124 -0.0097,-0.02522 0.016,-0.193919 0.05705,-0.374897 0.04105,-0.180978 0.07477,-0.351398 0.07492,-0.378711 1.15e-4,-0.02731 0.01999,-0.06602 0.04408,-0.08602 0.02409,-0.02 0.05322,-0.07924 0.06474,-0.131649 0.01668,-0.07597 0.0078,-0.105925 -0.04381,-0.147713 -0.03561,-0.02883 -0.06474,-0.07162 -0.06474,-0.09509 0,-0.02347 -0.01907,-0.06875 -0.04237,-0.100623 -0.02331,-0.03187 -0.03549,-0.0759 -0.02707,-0.09783 0.02143,-0.05584 -0.04739,-0.504687 -0.100429,-0.655021 -0.03274,-0.0928 -0.03529,-0.135357 -0.0099,-0.165896 0.01875,-0.02259 0.02441,-0.06528 0.01258,-0.09486 -0.07443,-0.186086 -0.117228,-0.427445 -0.121074,-0.682811 -0.0033,-0.221659 -0.017383,-0.313184 -0.057441,-0.374318 -0.040482,-0.06179 -0.04375,-0.08378 -0.013818,-0.09302 0.29675,-0.09161 0.537841,-0.184084 0.580787,-0.222766 0.02937,-0.02645 0.0534,-0.08573 0.0534,-0.131721 0,-0.06663 -0.02946,-0.10215 -0.144931,-0.174774 -0.07971,-0.05013 -0.236176,-0.120856 -0.3477,-0.157166 -0.2263933,-0.07371 -0.2451489,-0.101985 -0.2214784,-0.333876 0.00916,-0.08971 1.153e-4,-0.158395 -0.024764,-0.188364 -0.078236,-0.0942 -0.1924561,-0.151158 -0.3030998,-0.151158 -0.1199983,0 -0.151175,0.02821 -0.2954725,0.267329 -0.062978,0.104365 -0.082374,0.116465 -0.1678146,0.104691 -0.053132,-0.0073 -0.1459694,-0.02891 -0.1540657,0.0032 l -0.1615219,0.635397 z m 0.00451,0.835719 c 0.00899,-0.05347 0.095849,-0.145511 0.1171788,-0.124182 0.00513,0.0051 -0.00722,0.05317 -0.027451,0.106753 -0.038817,0.102839 -0.1063099,0.115948 -0.089728,0.01743 z"
           sodipodi:nodetypes="cssssssssssssccssssssssssscsssssscssssssssscssssssssssscccsssss" />
        <path
           style="fill:#000000;stroke-width:0.0385012"
           d="m -4.7293902,42.12646 c -0.05264,-0.0633 -0.01651,-0.11751 0.127838,-0.19172 0.114446,-0.0588 0.251848,-0.21713 0.299368,-0.34492 0.03144,-0.0846 -0.03805,-0.28699 -0.107749,-0.31374 l -0.0533,-0.0205 1.51e-4,-0.41579 c 6.6e-5,-0.22868 -0.0025,-0.4591 -0.0058,-0.51203 -0.0033,-0.0529 0.01518,-0.30835 0.04157,-0.56757 l 0.04794,-0.4713 -0.04677,-0.0564 c -0.02573,-0.031 -0.03545,-0.0748 -0.02154,-0.0973 l 0.02524,-0.0408 -0.08387,-0.13572 -0.08387,-0.13572 0.01752,-0.0919 0.0176,-0.0919 -0.08079,-0.0222 c -0.09563,-0.0263 -0.29253,-0.29888 -0.29253,-0.40491 0,-0.0408 0.01877,-0.0858 0.04166,-0.1 0.02296,-0.0141 0.07418,-0.1016 0.113925,-0.19429 0.03973,-0.0927 0.140586,-0.26104 0.224122,-0.37412 l 0.151893,-0.20562 0.176944,-0.0676 0.176952,-0.0675 v -0.0717 -0.0717 l -0.10588,-0.0519 -0.10588,-0.0519 0.01241,-0.0754 c 0.0067,-0.0414 0.02573,-0.16046 0.04199,-0.2645 l 0.02967,-0.18913 0.08736,-0.0708 0.08737,-0.0708 h 0.13301 c 0.07316,0 0.1664171,0.0178 0.2072341,0.0398 l 0.07418,0.0398 0.02431,0.15206 c 0.0134,0.0836 0.04811,0.17184 0.07728,0.19601 0.02908,0.0242 0.05297,0.0831 0.05297,0.13078 v 0.0868 l -0.08205,0.0545 -0.08214,0.0545 0.06386,0.12345 0.06378,0.12344 h 0.07467 c 0.04107,0 0.131592,0.05 0.201148,0.1112 l 0.126464,0.1112 0.06722,0.30269 c 0.03696,0.16647 0.07693,0.38873 0.08883,0.49391 0.0119,0.10518 0.03662,0.20936 0.05506,0.23153 l 0.03344,0.0403 0.01249,1.02629 0.01249,1.02629 0.0913,0.0972 0.09131,0.0972 -0.02456,0.12729 c -0.03026,0.15681 -0.02934,0.13149 -0.02036,0.55322 l 0.0076,0.34893 -0.04509,0.0842 -0.04509,0.0842 h -0.171978 -0.171907 v -0.059 c 0,-0.0324 0.02699,-0.1234 0.05993,-0.20212 l 0.05993,-0.14314 -0.02573,-0.18783 -0.02573,-0.18783 -0.135708,-0.11916 -0.135716,-0.11916 -0.170785,-0.36679 c -0.09392,-0.20205 -0.192575,-0.45143 -0.219201,-0.5545 l -0.04844,-0.1874 -0.04216,0.1104 c -0.0414,0.10832 -0.09194,0.63539 -0.101035,1.05367 -0.0025,0.11646 -0.01684,0.23054 -0.03185,0.25349 -0.0212,0.0325 -0.01307,0.36915 0.01307,0.54706 0.0025,0.015 0.0017,0.0575 0,0.0947 l -0.0042,0.0673 h -0.1576 -0.157551 l -0.09789,0.077 -0.0979,0.077 h -0.144044 -0.144107 z m 0.430936,-3.53831 c -0.0087,-0.0145 -0.05925,0.0139 -0.112401,0.0632 l -0.09661,0.0896 0.04694,0.10306 0.04694,0.10307 0.06546,-0.16624 c 0.03603,-0.0914 0.05833,-0.17811 0.0497,-0.19261 z"
           id="path19-7" />
        <path
           style="fill:#000000;stroke-width:0.0385012"
           d="m -6.7500364,42.189216 c 0.04232,-0.0424 0.08566,-0.077 0.09625,-0.077 h 0.06353 0.04425 l -0.02481,-0.37852 -0.02481,-0.37852 0.09821,-0.0923 0.09822,-0.0923 -0.01785,-0.0682 c -0.0097,-0.0375 -0.005,-0.076 0.01048,-0.0857 0.01559,-0.01 0.04953,-0.11227 0.07543,-0.22807 0.0259,-0.11579 0.07216,-0.23132 0.102778,-0.25673 l 0.05566,-0.0462 0.05808,0.0482 c 0.03193,0.0265 0.06897,0.11643 0.08231,0.19981 0.0134,0.0833 0.04953,0.17686 0.08038,0.20775 0.0704,0.0704 0.150601,0.36966 0.184915,0.69 l 0.02624,0.24545 0.115509,0.0253 0.115502,0.0254 0.0559,-0.0559 0.0559,-0.0559 -0.07997,-0.23742 -0.07997,-0.23743 0.02515,-0.10532 c 0.01383,-0.0579 0.0378,-0.12266 0.05314,-0.14383 0.01542,-0.0212 0.03747,-0.0905 0.04894,-0.154 l 0.02087,-0.11549 -0.05683,-0.13477 -0.05683,-0.13476 -0.03285,-0.40426 c -0.0181,-0.22235 -0.02346,-0.48438 -0.0119,-0.58229 l 0.02095,-0.17803 0.0652,0.0171 0.06521,0.0171 0.0528,-0.15987 0.0528,-0.15988 -0.04618,-0.12192 -0.04627,-0.12191 0.120271,-0.29173 0.120255,-0.29175 -0.106308,-0.22802 -0.106308,-0.22802 -0.186725,-0.18735 c -0.102702,-0.10304 -0.186724,-0.20149 -0.186724,-0.21876 0,-0.0173 -0.05054,-0.0674 -0.112225,-0.11133 l -0.112224,-0.0799 -0.185795,-0.0254 c -0.183045,-0.025 -0.282782,-0.0828 -0.282782,-0.16371 0,-0.0227 0.01551,-0.0412 0.03437,-0.0412 0.01895,0 0.04534,-0.0287 0.05883,-0.0637 l 0.02447,-0.0638 -0.07301,-0.0806 c -0.04014,-0.0443 -0.08441,-0.12872 -0.09833,-0.1875 -0.014,-0.0588 -0.05951,-0.14107 -0.101303,-0.18287 l -0.07602,-0.076 h -0.132609 -0.132616 l -0.09494,0.0866 -0.09495,0.0867 -0.02515,0.28009 -0.02515,0.28009 0.127544,0.0534 c 0.07015,0.0293 0.13995,0.0659 0.155078,0.0811 0.0383,0.0385 -0.03864,0.17158 -0.09917,0.17158 -0.05909,0 -0.193169,0.14199 -0.236291,0.25026 -0.02749,0.0691 -0.09727,0.78446 -0.105134,1.07804 -0.0017,0.0636 0.0067,0.35504 0.01852,0.64781 l 0.02162,0.5323 -0.168319,0.0721 -0.16832,0.0721 0.03529,0.10782 c 0.01945,0.0593 0.05473,0.18357 0.07845,0.27615 l 0.04317,0.16833 0.141635,-0.0202 c 0.07786,-0.0111 0.169107,-0.0313 0.202691,-0.0449 l 0.06111,-0.0248 -0.03839,0.1874 -0.03839,0.1874 0.06395,0.12822 c 0.0352,0.0705 0.06394,0.15918 0.06394,0.19703 0,0.0378 0.01542,0.0784 0.03428,0.09 0.04174,0.0258 0.08709,0.25923 0.08821,0.45424 l 0.0017,0.14358 -0.119398,0.10047 c -0.06571,0.0553 -0.119399,0.13172 -0.119399,0.16992 0,0.13373 0.263648,0.16058 0.385008,0.0392 z m 0.280788,-1.62623 0.01677,-0.087 0.0017,0.15401 c 0,0.0847 -0.0076,0.12388 -0.01676,0.087 -0.0097,-0.0368 -0.01006,-0.10611 -0.0017,-0.15401 z m 0.02992,-0.35164 0.04719,-0.0435 -0.02489,0.0706 c -0.01367,0.0388 -0.02749,0.10809 -0.03068,0.154 l -0.0058,0.0834 -0.01651,-0.11056 -0.01651,-0.11057 z m 0.240541,0.0841 0.02021,-0.0505 0.0033,0.0738 c 0.0017,0.0405 -0.0076,0.0633 -0.02021,0.0505 -0.01282,-0.0128 -0.01408,-0.046 -0.0033,-0.0738 z m -0.191862,-0.21096 c 0.01408,-0.0141 0.02564,-0.003 0.02564,0.0256 0,0.0283 -0.01148,0.0398 -0.02564,0.0256 -0.01408,-0.0141 -0.01408,-0.0372 0,-0.0514 z"
           id="path16-5-9" />
        <path
           d="m -7.7778201,37.365546 c 0.035475,-0.06151 0.057565,-0.10715 0.0036,-0.127478 -0.053792,-0.01924 -0.3043286,-0.09329 -0.3171906,-0.09564 -0.012823,-0.0023 -0.1786927,-0.0061 -0.2761421,-0.06755 -0.097019,-0.06209 -0.087294,-0.07835 -0.1431647,-0.0921 -0.055563,-0.01371 -0.8059422,-0.153129 -0.8059422,-0.153129 l 0.0084,-0.04482 -0.097145,-0.01971 0.0092,-0.03475 -0.1536402,-0.02245 c 0,0 -0.00952,-0.01212 -0.023572,-0.01088 -0.013781,0.0024 -0.020424,0.01075 -0.020424,0.01075 l -0.00794,0.02423 -0.035684,0.03974 -0.085945,-0.01232 -0.00643,0.01162 -0.7204941,-0.136841 -0.03046,0.01377 -0.125292,-0.01 c 0,0 -0.02237,-0.01759 -0.0283,0.0016 -0.0055,0.02029 0.01442,0.01915 0.01442,0.01915 l 0.01517,-0.0022 0.106011,0.01372 0.02038,0.02239 -0.0077,0.0303 -0.308831,-0.05868 -0.0014,-0.15152 -0.06077,-0.02401 -0.03642,0.134904 -0.01346,0.01148 -0.03203,-0.0059 c 0,0 -0.011,0.0077 -0.01858,0.02476 -0.0071,0.01728 0.01024,0.0389 0.01024,0.0389 l 0.131568,0.02282 0.0084,-0.003 0.456868,0.09526 0.07674,0.02693 c 0,0 0.4002875,0.07821 0.4106355,0.08086 0.01143,0.0021 0.065335,0.03553 0.083521,0.03842 0.018482,0.0029 0.1700214,0.01333 0.1742667,0.04899 0.00275,0.03588 -0.025441,0.108875 -0.025441,0.108875 l 0.017337,0.0091 c 0,0 -0.062373,0.20606 -0.1212397,0.30559 -0.058554,0.100283 -0.1720899,0.27072 -0.1720899,0.27072 l 0.14135,0.124955 c 0,0 0.1490203,-0.19389 0.2070794,-0.325494 0.059073,-0.131493 0.1231904,-0.336982 0.1231904,-0.336982 0,0 0.04327,0.0062 0.054865,0.02541 0.011376,0.01768 0.037041,0.02287 0.037041,0.02287 0,0 0.080325,0.01467 0.091855,0.05795 0.010438,0.04315 0.040109,0.08045 0.1037115,0.08918 0.063903,0.0097 0.091048,0.01092 0.1068158,0.0011 0.015083,-0.0099 0.040353,-0.014 0.049782,-0.0061 0.0081,0.008 0.042345,0.04667 0.066092,0.112376 0.023784,0.0654 0.034555,0.105766 0.034555,0.105766 0,0 0.00595,0.02599 0.05324,0.01545 0.047105,-0.01067 0.1400946,-0.02158 0.1057893,-0.102798 -0.033012,-0.08 -0.1223488,-0.253789 -0.1223488,-0.253789 0,0 -0.00421,-0.07161 0.087813,-0.04779 0.092018,0.02382 0.2163721,0.04155 0.2163721,0.04155 0,0 0.1615218,0.0812 0.2771945,0.180329 0.1164451,0.09856 0.3480183,0.247448 0.3557766,0.250866 0.00846,0.005 0.1060495,0.04011 0.1131941,-0.05502 0.00733,-0.0947 0.0036,-0.09726 0.012899,-0.157987 0.00929,-0.06073 0.012828,-0.07339 0.012828,-0.07339"
           id="path51534-5-2-9-7-2" />
      </g>
    </g>
  </g>
</svg>
