<?xml version="1.0" encoding="UTF-8" standalone="no"?>
<!-- Created with Inkscape (http://www.inkscape.org/) -->

<svg
   width="15.92862mm"
   height="16.281284mm"
   viewBox="0 0 15.92862 16.281284"
   version="1.1"
   id="svg15601"
   inkscape:version="1.1.1 (3bf5ae0d25, 2021-09-20)"
   sodipodi:docname="inkporter-svg-111uedw4.svg"
   xmlns:inkscape="http://www.inkscape.org/namespaces/inkscape"
   xmlns:sodipodi="http://sodipodi.sourceforge.net/DTD/sodipodi-0.dtd"
   xmlns="http://www.w3.org/2000/svg"
   xmlns:svg="http://www.w3.org/2000/svg">
  <sodipodi:namedview
     id="namedview15603"
     pagecolor="#ffffff"
     bordercolor="#666666"
     borderopacity="1.0"
     inkscape:pageshadow="2"
     inkscape:pageopacity="0.0"
     inkscape:pagecheckerboard="0"
     inkscape:document-units="mm"
     showgrid="false"
     inkscape:zoom="0.90583672"
     inkscape:cx="436.06093"
     inkscape:cy="590.61417"
     inkscape:window-width="1889"
     inkscape:window-height="1656"
     inkscape:window-x="3094"
     inkscape:window-y="0"
     inkscape:window-maximized="0"
     inkscape:current-layer="layer1" />
  <defs
     id="defs15598">
    <clipPath
       clipPathUnits="userSpaceOnUse"
       id="clipPath48514-9-5-6-7-4">
      <path
         d="M 309.111,103.342 H 547.1 V 372.047 H 309.111 Z"
         id="path48512-3-2-8-8-0" />
    </clipPath>
    <clipPath
       clipPathUnits="userSpaceOnUse"
       id="clipPath48514-9-5-6-7-4-5">
      <path
         d="M 309.111,103.342 H 547.1 V 372.047 H 309.111 Z"
         id="path48512-3-2-8-8-0-2" />
    </clipPath>
    <clipPath
       clipPathUnits="userSpaceOnUse"
       id="clipPath48514-9-5-6-7-4-1">
      <path
         d="M 309.111,103.342 H 547.1 V 372.047 H 309.111 Z"
         id="path48512-3-2-8-8-0-4" />
    </clipPath>
  </defs>
  <g
     inkscape:label="Layer 1"
     inkscape:groupmode="layer"
     id="layer1"
     transform="translate(-87.049578,-41.841276)">
    <g
       id="G-SdKfz250-InfantryHQ-Pf"
       transform="translate(4.3644277,198.80928)">
      <g
         id="G-InfantryCoC-SdKfz250-6"
         transform="translate(410.34119,-551.34194)">
        <path
           d="m -318.96159,403.62256 0.52035,0.03 0.0487,0.11465 -0.16439,0.3115 h 0.8322 l 0.0734,-0.0124 0.0945,-0.0451 0.11042,-0.0776 0.0737,-0.0328 0.0568,-0.0123 0.0374,0.008 0.0162,0.0286 v 0.0328 l -0.0247,0.0328 -0.0367,0.0367 -0.0166,0.0413 -0.0162,0.0533 -0.004,0.0857 0.024,0.0699 0.004,0.049 0.005,0.0367 -0.0367,0.008 -0.0452,-0.0123 -0.2868,-0.10231 h -0.40111 l -0.18486,0.0819 0.0988,0.17638 -0.16016,0.10654 -0.0409,-0.16404 -0.0938,0.004 -0.34431,0.10971 -0.0938,0.17674 5.33153,-0.0406 0.21837,0.46532 0.81844,-0.38171 0.22613,0.48507 0.055,-0.0261 0.0649,0.13935 -0.0554,0.0258 0.10372,0.22225 -0.10972,0.0512 0.036,0.0772 0.10512,-0.049 0.20708,0.44485 0.0579,-0.0268 0.0649,0.13899 -0.0578,0.0268 0.12276,0.26211 -0.11148,0.0519 0.031,0.067 -0.139,0.0649 -0.031,-0.067 -0.55845,0.26035 0.15558,0.33055 0.0607,-0.0272 0.10971,0.24694 -0.0557,0.0247 0.32738,0.69779 0.0243,0.27834 h -0.43356 l 0.0166,0.51612 h -0.0656 l -0.0332,-0.41769 -0.48683,0.054 0.0596,0.0325 -10e-4,0.1845 -0.0797,0.037 -0.1076,-0.005 c -0.006,0.096 -0.0191,0.18238 -0.0374,0.26105 l 0.13089,0.10866 0.0413,0.0861 -0.10971,0.14816 -0.0857,-0.0169 -0.0741,-0.0586 c -0.06,0.11536 -0.13547,0.20567 -0.21872,0.27799 l 0.0332,0.10512 -0.0127,0.0946 -0.17251,0.0646 -0.0628,-0.0614 -0.0173,-0.0501 c -0.0713,0.0356 -0.14288,0.0635 -0.21167,0.0871 l -0.0649,0.0215 0.0127,0.0674 -0.024,0.0921 -0.17921,0.0434 -0.0547,-0.0688 -0.0127,-0.06 c -0.078,0.0212 -0.16157,0.0423 -0.248,0.0635 l 0.006,0.0519 -0.0303,0.0903 -0.18169,0.0307 -0.0501,-0.0723 -0.005,-0.0381 c -0.0773,0.0176 -0.15311,0.0346 -0.22648,0.0505 l 0.002,0.079 -0.0377,0.0875 -0.18415,0.0145 -0.0437,-0.0762 -0.002,-0.0508 c -0.10725,0.0201 -0.19615,0.0349 -0.254,0.0413 l 10e-4,0.072 -0.0378,0.0871 -0.1838,0.0148 -0.0434,-0.0762 -0.005,-0.0907 -0.32597,0.003 -0.001,0.13229 -0.0409,0.0861 -0.18415,0.008 -0.0406,-0.0776 -0.002,-0.14711 -0.27164,0.001 -10e-4,0.12488 -0.0413,0.0861 -0.1838,0.008 -0.0409,-0.078 -0.002,-0.1404 -0.27129,10e-4 -0.001,0.13511 -0.0409,0.0861 -0.18451,0.008 -0.0406,-0.078 -0.002,-0.15063 -0.23037,7e-4 -10e-4,0.121 -0.0409,0.0861 -0.1845,0.008 -0.0409,-0.078 -0.001,-0.13687 -0.28822,7e-4 -7.1e-4,0.10337 -0.0413,0.0861 -0.18451,0.008 -0.0409,-0.078 -10e-4,-0.11924 -0.25576,7.1e-4 -0.001,0.0981 -0.0409,0.0861 -0.18415,0.008 -0.0409,-0.078 -10e-4,-0.11465 h -0.3295 l -7e-4,0.10231 -0.0409,0.0861 -0.1845,0.008 -0.0409,-0.078 -10e-4,-0.12312 c -0.0826,-0.003 -0.1651,-0.006 -0.24765,-0.009 l -7.1e-4,0.0794 -0.0409,0.0857 -0.1845,0.008 -0.0409,-0.078 -0.001,-0.10865 -0.24306,-0.0138 -7.1e-4,0.0607 -0.0409,0.0861 -0.18415,0.008 -0.0409,-0.0776 -0.001,-0.0942 -0.31468,-0.0205 -0.007,0.0723 -0.0476,0.0822 -0.18485,-0.008 -0.0339,-0.0811 0.006,-0.0826 -0.19297,-0.012 c -0.0547,-0.003 -0.10795,-0.008 -0.1591,-0.0141 l -0.0152,0.0582 -0.0607,0.0734 -0.18027,-0.0367 -0.0212,-0.085 0.0141,-0.0607 c -0.12841,-0.0363 -0.24342,-0.0882 -0.34537,-0.16157 l -0.0198,0.0215 -0.0882,0.0363 -0.14217,-0.11712 0.0215,-0.0854 0.036,-0.0406 c -0.054,-0.0684 -0.10195,-0.14711 -0.14464,-0.23742 l -0.70732,0.0268 -0.0247,-0.22931 -1.08303,0.037 c -0.061,0.69745 -0.64664,1.2446 -1.35996,1.2446 -0.6537,0 -1.1998,-0.45896 -1.33385,-1.07244 -0.043,0.0106 -0.0875,0.0162 -0.1337,0.0162 -0.31221,0 -0.56515,-0.2533 -0.56515,-0.56515 0,-0.0674 0.0116,-0.13194 0.0332,-0.19156 l 0.23283,-1.3522 0.008,-0.77823 0.39299,0.008 0.4258,-0.0617 v -0.18803 h -0.0328 v -0.15134 h 0.0328 v -0.32385 c -0.0596,-0.004 -0.10653,-0.054 -0.10653,-0.1143 0,-0.0635 0.0515,-0.11465 0.11465,-0.11465 0.0635,0 0.11465,0.0512 0.11465,0.11465 0,0.0406 -0.0212,0.0765 -0.0529,0.0967 v 0.34149 h 0.078 c 0.005,-0.17462 0.0554,-0.3115 0.11641,-0.3115 0.0642,0 0.11677,0.1531 0.11677,0.34219 0,0.10372 -0.0159,0.1965 -0.0409,0.25929 l 1.10561,-0.16051 v -0.0723 h 0.43815 l 0.94474,-0.12841 -0.005,-0.0303 1.09114,-0.17286 0.007,0.0444 0.17392,-0.0251 0.34043,-0.0261 -0.003,-0.049 0.87983,-0.0614 0.003,0.0434 0.37641,-0.0286 0.17569,-0.30444 0.0621,-0.51471 0.31997,-0.14675 0.11359,-0.1972 h 0.0653 v -0.0811 h -0.0374 v -0.0995 h 0.51752 l 0.22084,-0.33337 -1.87007,0.0328 -7.1e-4,-0.0286 -0.12347,0.002 -0.002,-0.0907 0.12382,-0.002 -3.5e-4,-0.0282 0.30409,-0.005 v -0.11147 h 0.0205 v 0.11077 l 1.64677,-0.0286 0.31962,-0.49283 z m -7.44961,2.8515 h -0.085 v 0.1778 l 0.12736,-0.0183 c -0.019,-0.0392 -0.0339,-0.0945 -0.0423,-0.15946 m 6.47736,3.01766 c 0.0272,0.0568 0.0617,0.0981 0.0871,0.0755 0.0152,-0.0145 0.0533,-0.0441 0.10019,-0.0808 z m 5.44971,-0.14534 -0.0734,0.0956 c -0.0409,0.0533 0.26635,0.1965 0.27058,0.1143 0.001,-0.0307 0.012,-0.11853 0.0254,-0.2159 z m -1.20121,0.16228 c 0,0 -0.23354,0.19649 -0.25012,0.21272 -0.10266,0.10266 0.36865,0.23354 0.34008,0.10654 -0.0286,-0.127 -0.09,-0.31926 -0.09,-0.31926 m 0.31009,-0.13688 c 0,0 0.14393,0.26917 0.15663,0.28857 0.0713,0.11007 0.26282,-0.23424 0.20285,-0.29951 l -0.33655,0.008 z m -2.74108,0.18662 c 0,0 -0.23389,0.1965 -0.25048,0.21308 -0.1023,0.10265 0.36866,0.23353 0.34008,0.10653 -0.0286,-0.127 -0.0896,-0.31961 -0.0896,-0.31961 m 0.62653,0.0529 c 0.0385,-0.0677 0.0642,-0.14675 0.0508,-0.18626 l -0.14252,0.004 c 0.0152,0.0699 0.0554,0.15875 0.0917,0.18238 m -0.30939,-0.17674 0.0374,0.0698 c -0.006,-0.0229 -0.0102,-0.0466 -0.0141,-0.0702 z m -1.01846,0.38241 c -0.0381,-0.0512 -0.0713,-0.10583 -0.0988,-0.16404 -0.0494,-0.0578 -0.10725,-0.12629 -0.15593,-0.1845 l -0.0822,0.002 0.078,0.42545 c 0.009,0.0515 0.2039,-0.0187 0.25894,-0.0794 m 1.62101,-0.0899 c -0.0247,0.042 -0.0522,0.0825 -0.0833,0.12029 0.0155,0.061 0.27023,0.17251 0.27376,0.0981 0.004,-0.0699 0.0547,-0.4311 0.0695,-0.53376 l -0.0176,7.1e-4 z m -7.0986,-0.73696 c 0.0187,0.0829 0.03,0.16863 0.0332,0.25647 h 0.61171 z m 4.74769,1.12713 0.10019,-0.19156 0.0339,-0.002 c 0.0106,-0.004 0.0169,-0.0106 0.0176,-0.0219 0.003,-0.0536 0.0335,-0.27764 0.0543,-0.4258 l -0.0864,0.002 -0.23777,0.30904 c -0.031,0.0395 0.13194,0.12947 0.21837,0.13864 l -0.10019,0.18909 c -0.0871,-0.0261 -0.16863,-0.0677 -0.24236,-0.11959 l -0.001,0.13017 c 0.0811,0.004 0.16228,0.007 0.24377,0.009 z m 0.59796,-0.007 c -0.0325,0.0113 -0.066,0.0212 -0.10019,0.0293 l 0.10019,-3.6e-4 z m 0.52422,0.0282 c -0.0956,-0.0515 -0.18309,-0.10795 -0.25999,-0.17674 l -0.0159,0.0127 0.0257,0.0335 -0.001,0.13123 z m 1.73814,-0.19862 0.0674,0.002 c 0.0998,-0.01 0.23918,-0.0864 0.19861,-0.12664 -0.0497,-0.0494 -0.28257,-0.32844 -0.3496,-0.40852 l -0.0141,3.5e-4 z m -0.67804,0.19615 0.0293,-0.0557 c -0.037,-0.0219 -0.0727,-0.0466 -0.10654,-0.0737 -0.0473,0.037 -0.0988,0.0695 -0.15275,0.097 l -3.5e-4,0.0332 z m 1.35149,-0.0663 -7e-4,0.06 0.16474,-0.001 c -0.0568,-0.0148 -0.11183,-0.0346 -0.16404,-0.0589 m -0.27234,0.0617 0.091,-0.1711 -0.0268,-0.0208 c -0.0811,0.0811 -0.17744,0.14711 -0.28469,0.19332 z m 1.10807,-0.0547 -7e-4,-0.0162 c -0.0201,0.0102 -0.0413,0.0198 -0.0624,0.0286 z m 0.46214,-0.20496 0.0751,-0.19509 c -0.0314,-0.0201 -0.0614,-0.0416 -0.09,-0.0649 -0.0469,0.0963 -0.10866,0.18344 -0.18345,0.25894 l 0.007,0.15028 c 0.0667,-0.0148 0.13547,-0.03 0.20532,-0.0462 z m 0.50977,-0.0198 -0.007,-0.036 c -0.0833,-0.005 -0.16369,-0.0222 -0.23919,-0.0487 l 0.0162,0.14393 c 0.0804,-0.0198 0.15805,-0.0399 0.23037,-0.0593 m 0.50553,-0.39158 0.004,-0.0251 c -0.0212,-0.024 -0.054,-0.0614 -0.0938,-0.1076 l -0.21766,0.006 0.0395,0.21696 c 0.0102,0.055 0.22895,-0.0275 0.26776,-0.0903 m -7.43832,0.5842 0.003,-0.042 c -0.0392,0.0145 -0.0797,0.0258 -0.12136,0.0346 z m 0.25788,-0.18345 0.0289,0.0448 -0.0155,0.15628 0.29351,0.019 -7e-4,-0.0487 0.10195,-0.19261 0.10654,0.004 0.0656,0.0861 -10e-4,0.16827 0.23883,0.0138 -3.6e-4,-0.0346 0.10266,-0.19227 0.0459,0.002 c -0.10548,-0.1076 -0.1845,-0.2413 -0.22683,-0.39018 l -0.42898,0.0117 -0.0363,10e-4 c -0.0614,0.13829 -0.15592,0.25894 -0.27375,0.35136"
           id="path5642-6-8-52-1-0-2" />
        <path
           d="m -321.11233,399.74245 c -0.0258,0.0832 -0.0681,0.16616 -0.0945,0.19191 -0.0258,0.0265 -0.13159,0.13406 -0.13511,0.15628 -0.003,0.0233 -0.008,0.0568 0.031,0.09 0.0388,0.0324 0.0783,0.0406 0.12559,0.0519 0.0473,0.0116 0.23565,-0.0194 0.27164,-0.055 0.0356,-0.0356 0.0861,-0.13017 0.0995,-0.1531 0.0131,-0.0229 0.0116,0.003 0.0116,0.003 l 0.079,-0.0519 c 0,0 0.0148,-0.0801 0.005,-0.0942 -0.01,-0.0148 0.004,-0.0508 -0.005,-0.0783 -0.007,-0.0279 -0.0469,-0.0639 -0.0483,-0.0861 -0.001,-0.0236 0.003,-0.0427 -0.004,-0.0621 -0.006,-0.0198 -0.0307,-0.0325 -0.0388,-0.0392 -0.008,-0.007 -0.01,-0.0667 -0.0229,-0.0878 -0.0127,-0.0215 -0.003,-0.0162 0.0215,-0.031 0.0243,-0.0148 0.0695,-0.0716 0.0695,-0.0716 0,0 -0.0564,-0.003 -0.0744,0.002 -0.0187,0.004 -0.0395,0.0173 -0.0395,0.0173 l -0.024,-0.0116 c 0,0 -0.0116,-0.0459 -0.0409,-0.0663 -0.0296,-0.0212 -0.0437,-0.0829 -0.0437,-0.0829 l 0.0272,-0.0293 -0.0483,-0.0543 -0.0187,0.009 -0.0236,-0.0378 -0.0282,0.001 c 0,0 0.005,-0.19544 -0.01,-0.24095 -0.0152,-0.0455 -0.0811,-0.10901 -0.0861,-0.11536 -0.006,-0.007 -0.007,-0.0716 -0.0265,-0.0815 -0.0194,-0.01 -0.0501,-0.0293 -0.0501,-0.0293 0,0 -0.0233,-0.0847 -0.0131,-0.16475 0.01,-0.079 -0.054,-0.39405 -0.0631,-0.43285 -0.0106,-0.0392 0.009,-0.11395 0.0173,-0.16722 0.008,-0.0543 10e-4,-0.31327 10e-4,-0.31327 l 0.0868,-0.0568 c 0,0 -0.17286,-0.45897 -0.19721,-0.53411 -0.025,-0.0751 -0.0437,-0.17216 -0.0437,-0.17216 0,0 0.0991,-0.19579 0.10089,-0.23988 0.001,-0.0441 -0.003,-0.0991 0.0275,-0.13688 0.0307,-0.037 0.091,-0.24589 0.0554,-0.37112 -0.0356,-0.12559 -0.12242,-0.37148 -0.16793,-0.41417 -0.0451,-0.042 -0.0762,-0.0614 -0.0974,-0.13934 -0.0212,-0.078 -0.0374,-0.14182 -0.11395,-0.17392 -0.0769,-0.0328 -0.13335,-0.0296 -0.14852,-0.0494 -0.0145,-0.0198 -0.0409,-0.0342 -0.0632,-0.0342 -0.0229,0 -0.0702,0.0145 -0.0861,0 -0.0166,-0.0148 -0.0265,-0.0307 -0.0201,-0.06 0.007,-0.0293 0.0116,-0.0441 0.0116,-0.0441 l 0.16404,0.003 c 0,0 -0.0568,-0.127 -0.0663,-0.15805 -0.01,-0.0307 0.0684,-0.36759 -0.16475,-0.44556 -0.23283,-0.0787 -0.45579,-0.0589 -0.52599,0.0815 -0.0695,0.1397 -0.0681,0.28293 -0.15311,0.29422 -0.0847,0.0116 0.0684,0.0473 0.0684,0.0473 0,0 0,0.0293 0.0152,0.0328 0.0141,0.003 0.0307,0.0141 0.0127,0.0536 -0.0176,0.0392 -0.0635,0.0991 -0.0258,0.11078 0.0374,0.0113 0.0437,0.0159 0.0437,0.0159 l 0.007,0.0247 c 0,0 -0.006,0.0148 10e-4,0.0208 0.007,0.007 0.0279,0.0183 0.0279,0.0183 l 0.006,0.031 c 0,0 -0.0215,0.0113 -0.018,0.0194 0.004,0.008 0.024,0.0258 0.0145,0.0406 -0.01,0.0145 -0.0236,0.0571 -0.008,0.072 0.0166,0.0148 0.0882,0.0356 0.0882,0.0356 0,0 -0.0776,0.049 -0.11536,0.0843 -0.0374,0.0363 -0.067,0.0864 -0.0991,0.11712 -0.0328,0.0314 -0.0702,0.0706 -0.0536,0.0998 0.0162,0.0289 0.0208,0.0374 -0.002,0.0501 -0.0226,0.0138 -0.10548,0.10795 -0.11571,0.12877 -0.009,0.0215 -0.0794,0.0748 -0.11677,0.0928 -0.0377,0.0183 -0.0737,0.0247 -0.0737,0.0247 l -0.13935,-0.006 c 0,0 -0.0212,-0.0279 -0.0427,-0.0328 -0.0208,-0.005 -0.1076,-0.007 -0.1076,-0.007 l -0.0243,0.0395 -0.21026,0.003 c 0,0 -0.0356,-0.0194 -0.0504,-0.0152 -0.0145,0.005 -0.0582,0.005 -0.0582,0.005 l -0.15135,0.008 -0.0653,-0.003 c 0,0 -0.0265,-0.0127 -0.0769,-0.0113 -0.0501,0.001 -0.10865,0 -0.12311,0.01 -0.0152,0.01 -0.0526,0.0113 -0.0526,0.0113 l -0.32173,-0.008 10e-4,-0.0183 c 0,0 -0.10336,-0.005 -0.11889,-0.0402 -0.0166,-0.0363 -0.0166,-0.0557 -0.0166,-0.0557 h -0.054 l -0.008,0.0914 h -0.0448 v 0.0748 l 0.13511,0.013 0.091,0.0815 0.0131,-0.0455 c 0,0 0.0222,-0.008 0.0519,-0.007 0.0293,0.002 0.27728,0.0275 0.27728,0.0275 l 0.0159,-0.0275 c 0,0 0.0113,0.0131 0.0409,0.0198 0.0293,0.006 0.14464,0.0131 0.17886,0.0176 0.0346,0.005 0.0402,0.0229 0.0402,0.0395 v 0.0646 c 0,0 -0.0632,0.0229 -0.0632,0.0423 0,0.0194 0.0194,0.0438 0.0162,0.0554 -0.002,0.0113 -0.005,0.0409 -0.002,0.0504 10e-4,0.0102 0.0141,0.0258 0.0127,0.0406 -0.002,0.0152 10e-4,0.0346 0.0109,0.0473 0.0102,0.0134 0.008,0.0247 0.008,0.0427 0,0.0176 -0.01,0.0194 0.012,0.0325 0.0208,0.0134 0.0222,0.0229 0.0222,0.0229 v 0.28469 l 0.14358,0.005 -0.002,-0.28046 c 0,0 0.0363,0.005 0.0737,0 0.037,-0.005 0.0744,-0.0145 0.0744,-0.0145 0,0 0.0279,0.0956 0.0822,0.0956 0.0533,0 0.17569,-0.0907 0.17569,-0.0907 0,0 0.002,-0.0328 0.0762,-0.0131 0.0751,0.019 0.11888,0.0455 0.15346,0.0473 0.0339,0.002 0.18556,-0.0635 0.21766,-0.0162 0.0332,0.0473 0.0868,0.0275 0.0868,0.0275 0,0 -0.0882,0.25541 -0.0896,0.29457 -0.002,0.0392 0.018,0.11747 0.018,0.11747 0,0 -0.11395,0.19685 -0.13053,0.26353 -0.0166,0.067 -0.0145,0.067 -0.0293,0.0896 -0.0145,0.0226 -0.0275,0.0684 -0.0508,0.10442 -0.0222,0.0356 -0.0222,0.055 -0.0222,0.055 l 0.0388,0.0265 c 0,0 -0.20532,0.45896 -0.22472,0.51399 -0.0194,0.0557 -0.15452,0.21026 -0.13829,0.36019 0.0166,0.14958 0.018,0.29139 0.0215,0.31115 0.003,0.0194 0.0201,0.0515 0.009,0.0769 -0.0113,0.024 -0.0388,0.073 0.002,0.1016 0.0402,0.03 0.0497,0.0254 0.0497,0.0512 0,0.0254 0.0138,0.0505 0.0328,0.0663 0.0194,0.0162 0.0392,0.16439 0.0392,0.16439 l 0.0314,0.14852 c 0,0 -0.0138,0.024 -0.0247,0.0423 -0.0113,0.018 -0.007,0.036 -0.007,0.036 0,0 -0.013,0.0335 -0.0392,0.0501 -0.0258,0.0166 -0.0861,0.0963 -0.0861,0.0963 0,0 -0.0702,0.06 -0.10089,0.0684 -0.0307,0.008 -0.1517,0.06 -0.1517,0.06 0,0 -0.12488,0.0247 -0.13511,0.0653 -0.01,0.0409 -10e-4,0.0783 -10e-4,0.0783 l -0.0116,0.0293 c 0,0 0.12911,0.0384 0.18591,0.0441 0.0565,0.005 0.35631,-0.0928 0.40005,-0.10266 0.0444,-0.01 0.0603,-0.0148 0.0836,-0.0116 0.0226,0.004 0.0293,0.0374 0.0293,0.0374 0,0 0.16157,-0.01 0.20038,-0.0194 0.0388,-0.01 0.0402,-0.0406 0.0402,-0.0406 l -0.005,-0.0603 -0.0131,-0.0148 c 0,0 0.0557,-0.0892 0.0459,-0.14781 -0.01,-0.0589 -0.0353,-0.12383 -0.0353,-0.12383 0,0 0.002,-0.0931 -0.005,-0.11747 -0.009,-0.0243 0.003,-0.0501 0.003,-0.0702 0,-0.0194 -0.0229,-0.0748 -0.0257,-0.0928 -0.004,-0.0173 0.0127,-0.10443 0.0127,-0.10443 0,0 0.0861,-0.12029 0.0762,-0.15381 -0.009,-0.0346 0.0346,-0.12876 0.0229,-0.1524 -0.0109,-0.0222 -0.0272,-0.0825 -0.0342,-0.11042 -0.006,-0.0275 -0.005,-0.0473 0.01,-0.079 0.0148,-0.0328 0.0148,-0.0751 0.008,-0.11642 -0.007,-0.0402 -0.002,-0.0483 0.0759,-0.0808 0.0787,-0.0332 0.26458,-0.2219 0.29492,-0.27552 0.0311,-0.054 0.13088,-0.23107 0.18768,-0.10619 0.0575,0.12594 0.22931,0.5588 0.25753,0.60466 0.0272,0.0455 0.19791,0.36901 0.21449,0.40041 0.0162,0.0307 0.12911,0.10089 0.14322,0.12382 0.0145,0.0222 0.0702,0.17604 0.11889,0.18556 0.0487,0.01 0.12383,0 0.1464,0.0293 0.0233,0.0293 0.12594,0.13335 0.13194,0.145 0.007,0.0113 0.0243,0.0455 0.0212,0.0667 -0.003,0.0212 0.0282,0.0293 0.0409,0.0325 0.0131,0.004 0.0131,0.0765 0.0131,0.0765"
           id="path48118-1-0-4-1-5" />
        <path
           d="m -318.80891,400.37656 c -0.0119,-10e-4 -0.0537,-0.01 -0.0929,-0.0179 -0.0556,-0.0115 -0.0725,-0.0128 -0.0768,-0.006 -0.007,0.0115 -0.0875,-0.001 -0.15709,-0.0242 -0.0539,-0.018 -0.0614,-0.0309 -0.0413,-0.0712 0.006,-0.0125 0.0113,-0.0321 0.0113,-0.0437 0,-0.0115 0.004,-0.0275 0.008,-0.0355 0.006,-0.0109 0.005,-0.0201 -0.003,-0.0374 -0.0149,-0.0316 -0.0324,-0.12111 -0.038,-0.19376 l -0.005,-0.0608 0.0403,-0.0788 0.0403,-0.0788 -0.014,-0.0858 c -0.008,-0.0472 -0.0157,-0.0875 -0.0177,-0.0895 -0.002,-0.002 -0.0272,-0.004 -0.056,-0.005 -0.0287,-0.001 -0.0806,-0.004 -0.11531,-0.007 l -0.0631,-0.005 v 0.0255 c 0,0.0214 0.009,0.0358 0.0547,0.0892 0.0864,0.10046 0.0934,0.12243 0.071,0.22222 -0.0241,0.10762 -0.0257,0.11145 -0.0562,0.13751 -0.0279,0.0239 -0.0293,0.027 -0.0278,0.0621 10e-4,0.024 -0.002,0.0431 -0.01,0.0544 -0.0126,0.0192 -0.0143,0.0409 -0.008,0.10781 0.004,0.0376 0.002,0.0476 -0.0103,0.0629 -0.027,0.0342 -0.094,0.0395 -0.2262,0.0179 -0.0911,-0.0149 -0.11173,-0.0301 -0.11173,-0.082 0,-0.0322 0.004,-0.0438 0.033,-0.0864 0.0381,-0.0569 0.0453,-0.0735 0.0534,-0.12288 0.004,-0.025 0.003,-0.0429 -0.004,-0.0584 -0.005,-0.0123 -0.0116,-0.0399 -0.0145,-0.0613 -0.003,-0.0214 -0.0109,-0.0535 -0.0179,-0.0714 -0.007,-0.0179 -0.0147,-0.0633 -0.0174,-0.10092 -0.006,-0.0839 -0.0252,-0.19463 -0.034,-0.19463 -0.004,0 -0.007,0.0397 -0.007,0.0883 -6e-5,0.0486 -0.003,0.0927 -0.006,0.0981 -0.01,0.0157 -0.0674,0.0187 -0.10601,0.005 -0.0463,-0.0158 -0.12039,-0.0157 -0.13358,2.2e-4 -0.007,0.009 -0.0101,0.0376 -0.0105,0.10632 l -7e-4,0.0944 -0.0258,-7.1e-4 c -0.0384,-10e-4 -0.0951,-0.0218 -0.15062,-0.0549 -0.0272,-0.0162 -0.0494,-0.0304 -0.0494,-0.0314 0,-0.001 0.003,-0.0257 0.007,-0.0547 0.006,-0.0474 0.0229,-0.26997 0.0432,-0.58261 0.007,-0.10678 0.0142,-0.25655 0.0294,-0.61273 0.004,-0.0892 0.0101,-0.32763 0.014,-0.52983 0.004,-0.2022 0.0104,-0.40819 0.0146,-0.45774 0.0269,-0.32331 0.0444,-0.44628 0.0978,-0.68971 0.0176,-0.08 0.0339,-0.16921 0.0363,-0.19824 0.004,-0.0486 0.003,-0.0539 -0.0118,-0.0672 -0.0157,-0.014 -0.0164,-0.014 -0.0243,-10e-4 -0.0478,0.0793 -0.0959,0.13588 -0.12585,0.14829 -0.0168,0.007 -0.0257,0.007 -0.0453,-10e-4 -0.0373,-0.0157 -0.0956,-0.065 -0.14036,-0.11878 -0.0605,-0.0726 -0.19437,-0.277 -0.21155,-0.32293 -0.0175,-0.0469 -0.0277,-0.11231 -0.0303,-0.19578 l -0.002,-0.0593 0.0591,-0.0606 c 0.0325,-0.0333 0.0591,-0.0645 0.0591,-0.0692 0,-0.005 0.0176,-0.027 0.039,-0.0495 0.0285,-0.0299 0.0404,-0.0486 0.0442,-0.0697 0.009,-0.0474 0.0245,-0.0803 0.044,-0.0907 0.0101,-0.005 0.0261,-0.0252 0.0357,-0.044 0.01,-0.0188 0.0268,-0.045 0.0384,-0.0582 0.017,-0.0194 0.0225,-0.0348 0.029,-0.0813 0.0132,-0.0952 0.0825,-0.19172 0.1446,-0.20155 0.0179,-0.003 0.0572,-0.0157 0.0874,-0.0287 0.0303,-0.013 0.0724,-0.0275 0.0937,-0.0323 0.0916,-0.0207 0.15834,-0.0565 0.26303,-0.14088 0.0606,-0.0489 0.0989,-0.0847 0.0972,-0.0908 -0.007,-0.026 -0.0154,-0.063 -0.0191,-0.088 -0.003,-0.0219 -0.007,-0.0266 -0.0167,-0.0234 -0.0151,0.005 -0.0339,-0.008 -0.048,-0.0322 -0.0347,-0.0603 -0.0612,-0.12155 -0.0612,-0.14153 0,-0.0212 0.0151,-0.0458 0.028,-0.0458 0.003,0 0.0107,-0.0111 0.0171,-0.0247 0.0105,-0.0221 0.0106,-0.0256 10e-4,-0.0338 -0.007,-0.006 -0.0104,-0.0194 -0.009,-0.0384 0.001,-0.0161 0.001,-0.0463 7e-4,-0.0671 l -10e-4,-0.0379 h -0.0291 c -0.0768,0 -0.13151,-0.0646 -0.0821,-0.097 0.0804,-0.0527 0.34233,-0.0901 0.5279,-0.0755 0.0823,0.007 0.21081,0.0359 0.26088,0.0598 0.057,0.0272 0.0464,0.0624 -0.0276,0.0917 -0.0225,0.009 -0.0449,0.0193 -0.0499,0.0231 -0.0102,0.008 -0.0125,0.0743 -0.003,0.0802 0.007,0.004 0.002,0.0402 -0.005,0.0403 -0.002,3e-5 -0.005,0.0236 -0.006,0.0523 -10e-4,0.0477 -0.0163,0.12447 -0.031,0.16032 -0.003,0.008 -0.008,0.0323 -0.01,0.0541 -0.002,0.0218 -0.0106,0.0567 -0.0186,0.0776 -0.0284,0.0742 -0.0306,0.071 0.10985,0.16279 0.16921,0.11064 0.25016,0.15811 0.32259,0.18919 0.0663,0.0284 0.10211,0.0519 0.11949,0.0785 0.006,0.009 0.0307,0.0942 0.0546,0.18875 0.0647,0.25529 0.0757,0.30567 0.0924,0.42285 0.008,0.0588 0.0231,0.13174 0.0328,0.16219 0.0187,0.0585 0.0218,0.11514 0.0119,0.21399 -0.003,0.0278 -0.003,0.0635 -1.5e-4,0.0793 0.003,0.0158 0.002,0.0585 -0.001,0.0949 -0.005,0.0574 -0.012,0.0804 -0.0517,0.17587 -0.0424,0.10203 -0.0479,0.11139 -0.0777,0.13217 -0.12089,0.0844 -0.1313,0.13013 -0.0731,0.32135 0.0162,0.0534 0.0361,0.1318 0.0441,0.17416 0.0196,0.1042 0.0642,0.26448 0.11595,0.41695 0.0236,0.0695 0.0589,0.18681 0.0786,0.26075 0.0318,0.11964 0.0527,0.18375 0.12998,0.3992 0.0114,0.0318 0.0323,0.10806 0.0463,0.1694 0.0319,0.13906 0.0467,0.18424 0.13159,0.39987 0.0686,0.1744 0.14617,0.39894 0.14617,0.42323 0,0.008 -0.009,0.017 -0.0234,0.0229 -0.0756,0.0317 -0.12015,0.0482 -0.28293,0.10522 l -0.18021,0.0631 0.002,0.0397 c 0.003,0.0515 7.1e-4,0.0532 -0.15021,0.10218 -0.0654,0.0212 -0.13648,0.0456 -0.15791,0.0542 -0.0214,0.009 -0.0429,0.014 -0.0476,0.0122 -0.008,-0.003 -0.0255,-0.0877 -0.0503,-0.24574 -0.0113,-0.0717 -0.017,-0.0829 -0.0426,-0.0831 -0.0129,-1.5e-4 -0.0134,0.005 -0.009,0.099 0.002,0.0545 0.007,0.1256 0.009,0.15796 0.004,0.0447 0.001,0.0671 -0.007,0.0932 -0.006,0.0189 -0.0117,0.0436 -0.0117,0.0549 0,0.0113 -0.005,0.0323 -0.0108,0.0466 -0.009,0.0204 -0.009,0.0283 -0.002,0.0364 0.007,0.008 0.007,0.0136 2.2e-4,0.0239 -0.007,0.0106 -0.006,0.0179 0.002,0.0337 0.006,0.0111 0.014,0.0339 0.0181,0.0507 0.006,0.0254 0.0158,0.0372 0.0577,0.0706 0.0276,0.022 0.055,0.0495 0.061,0.061 0.0135,0.0261 0.0141,0.0749 10e-4,0.0857 -0.0108,0.009 -0.0828,0.0157 -0.11641,0.0109 z m 0.0765,-3.86115 c 0.009,-0.0168 0.0216,-0.0384 0.029,-0.0478 0.007,-0.009 0.0134,-0.0269 0.0134,-0.0388 0,-0.0119 0.007,-0.0325 0.0149,-0.0458 0.0173,-0.028 0.0144,-0.0431 -0.0134,-0.0698 l -0.0199,-0.0191 -2.8e-4,0.0304 c -1.5e-4,0.0168 -0.009,0.0499 -0.0192,0.0737 -0.0261,0.0598 -0.0373,0.10545 -0.0316,0.12838 0.003,0.0107 0.006,0.0194 0.008,0.0194 0.002,0 0.0103,-0.0138 0.0189,-0.0306 z m -1.20065,-0.19351 c 0.008,-0.0131 -0.005,-0.24441 -0.0133,-0.24441 -0.006,0 -0.10416,0.0427 -0.16909,0.0739 -0.0165,0.008 -0.022,0.0198 -0.009,0.0198 0.0132,0 0.10933,0.0964 0.12312,0.1234 0.008,0.0148 0.0194,0.0284 0.0265,0.0302 0.0232,0.006 0.0371,0.005 0.042,-0.003 z"
           id="path13056-0" />
        <path
           d="m -316.81082,400.47497 c -0.0538,0.0207 -0.13643,0.0317 -0.19293,-0.022 -0.0579,-0.0551 -0.0785,-0.16261 -0.0648,-0.25356 0.0138,-0.091 0.0648,-0.29352 0.0648,-0.29352 l -0.0275,-0.0469 0.01,-0.0496 -0.0303,-0.0441 0.0413,-0.0923 -0.011,-0.0303 -0.0386,-0.30041 -0.01,-0.008 -0.011,-0.0248 c 0,0 -0.0289,-0.21773 -0.0289,-0.25907 0,-0.0413 0.01,-0.13642 0,-0.15985 -0.008,-0.0234 -0.0331,-0.0427 -0.0413,-0.0772 -0.01,-0.0345 -0.004,-0.0868 0.0179,-0.11162 0.022,-0.0234 0.0482,-0.0317 0.04,-0.0469 -0.01,-0.0138 -0.0386,-0.0455 -0.04,-0.062 -10e-4,-0.0152 0.005,-0.0469 0.022,-0.0896 0.0165,-0.0441 0.007,-0.18328 0.007,-0.18328 0,0 -0.0565,-0.0537 -0.0413,-0.0868 0.0138,-0.0331 0.008,-0.27009 0.011,-0.35691 0.001,-0.0882 -0.004,-0.28525 -0.004,-0.28525 0,0 -0.11438,-0.0565 -0.11024,-0.0854 0.003,-0.0289 0.062,-0.40239 0.0648,-0.42168 0.004,-0.0207 0.0276,-0.14056 0.0276,-0.14883 0,-0.01 -0.0276,-0.0289 -0.0289,-0.0372 l 0.004,-0.0193 c 0,0 -0.006,0.011 -0.0317,-0.0124 -0.0248,-0.0234 -0.0868,-0.0358 -0.0868,-0.0358 0,0 -0.23289,-0.11713 -0.24253,-0.16812 -0.0152,-0.0937 0.007,-0.30592 0.007,-0.30592 0,0 0.004,-0.14607 0.0165,-0.16261 0.01,-0.0179 0.051,-0.0427 0.0537,-0.0537 0.003,-0.01 -0.0386,-0.062 -0.0138,-0.0951 0.0262,-0.0345 0.073,-0.10886 0.0799,-0.13229 0.007,-0.0248 0.0386,-0.10335 0.051,-0.12816 0.0124,-0.0262 0.0937,-0.19292 0.12679,-0.21773 0.0331,-0.0248 0.0524,-0.0262 0.062,-0.0303 0.01,-0.003 0.0537,-0.0358 0.0537,-0.0358 0,0 0.0303,-0.0345 0.0579,-0.051 0.0276,-0.0165 0.16123,-0.0992 0.16123,-0.0992 l 0.0207,0.0345 c 0,0 0.008,-0.01 0.0441,-0.0207 0.0372,-0.011 0.062,-0.0221 0.062,-0.0221 0,0 0.0165,0.01 0.0207,0.004 0.003,-0.004 0,-0.0317 0.005,-0.04 0.006,-0.008 0.0234,-0.0207 0.0234,-0.0207 0,0 -0.001,-0.0179 0.01,-0.0317 0.0124,-0.0124 0.0276,-0.0179 0.0276,-0.0179 l 0.0179,0.003 0.004,-0.15572 c 0,0 -0.0772,-0.0179 -0.1185,-0.0469 -0.0413,-0.0289 -0.0469,-0.0455 -0.0386,-0.0661 0.008,-0.0193 0.0854,-0.16123 0.0854,-0.16123 0,0 0.0207,-0.14194 0.0372,-0.22325 0.0152,-0.0827 0.10886,-0.1502 0.2067,-0.15847 0.0978,-0.007 0.22324,0.003 0.30317,0.0593 0.0799,0.0565 0.0951,0.15159 0.0951,0.15986 0,0.007 -0.003,0.17225 -0.003,0.17225 0,0 0.0234,0.0317 0.0234,0.0482 0,0.0165 -0.0138,0.0289 -0.0165,0.0358 -0.003,0.005 -0.008,0.0455 10e-4,0.0813 0.011,0.0372 0.008,0.0482 -0.004,0.0579 -0.0124,0.0124 -0.0358,0.0345 -0.0661,0.0358 -0.0303,10e-4 -0.0441,10e-4 -0.0441,10e-4 0,0 -0.0648,0.12265 -0.0689,0.12816 -0.003,0.006 -0.003,0.0469 -0.003,0.0469 0,0 0.0276,-0.007 0.04,0.0193 0.011,0.0248 0.0303,0.10198 0.0303,0.10198 l 0.0289,0.0606 c 0,0 0.0579,0.0138 0.0648,0.0193 0.007,0.006 0.0193,0.0152 0.0193,0.0152 0,0 0.0124,-0.0124 0.0469,-0.007 0.0344,0.006 0.12264,0.0331 0.13505,0.0413 0.0138,0.008 0.0138,0.0179 0.01,0.022 -0.006,0.005 -0.006,0.0165 0,0.0248 0.005,0.008 0.0262,0.0289 0.0317,0.0758 0.006,0.0469 0.022,0.0799 0.0276,0.0854 0.003,0.007 0.0455,0.1061 0.0441,0.13229 -10e-4,0.0276 0.001,0.0648 0.0152,0.0978 0.0124,0.0345 0.0372,0.0703 0.0413,0.13229 0.006,0.0606 0.004,0.0744 0.0138,0.10611 0.011,0.0303 0.008,0.0703 0.008,0.0703 l 0.0372,0.11438 c 0,0 -10e-4,0.073 0.0234,0.0965 0.0262,0.0234 0.0345,0.0455 0.0289,0.0675 -0.003,0.022 -0.011,0.051 -0.003,0.0634 0.01,0.0138 0.0138,0.0262 0.0138,0.0469 10e-4,0.022 0.011,0.0551 0.0179,0.0882 0.003,0.0179 0.004,0.0606 0.004,0.0992 0.0317,-0.004 0.0717,-0.007 0.0758,0.004 0.004,0.0193 -0.022,0.0386 -0.0165,0.051 0.005,0.011 0.3514,0.2012 0.3514,0.2012 l 0.0138,0.0469 0.34864,0.18466 c 0,0 0.0345,0 0.0482,-0.008 0.0138,-0.007 0.0372,-0.0469 0.0372,-0.0469 l 0.0372,0.0207 c 0,0 -0.0358,0.051 -0.0358,0.0675 0,0.0165 0.01,0.0289 0.01,0.0289 l -0.0179,0.0386 -0.051,-0.0289 c 0,0 -0.0537,0.006 -0.0799,0.0165 -0.0234,0.0124 -0.0455,0.006 -0.0455,-0.0165 0,-0.0234 0.004,-0.04 0.004,-0.04 l -0.30317,-0.14607 h -0.0441 l -0.0689,-0.0413 -0.0413,0.007 -0.0565,0.11989 -0.0234,-10e-4 -0.25632,0.46853 -0.0965,-0.0565 0.2508,-0.46716 -0.0207,-0.0179 0.0372,-0.0648 -0.0441,-0.0441 c 0,0 -0.0124,0.0207 -0.0262,0.022 -0.0124,0 -0.0427,-0.0289 -0.0427,-0.0289 0,0 -0.0165,0.022 -0.0289,0.0234 -0.0138,0.003 -0.0276,-0.004 -0.0372,-0.004 -0.011,-10e-4 -0.0152,0.007 -0.0262,0.01 -0.011,0.003 -0.0262,10e-4 -0.0317,0.003 -0.006,10e-4 -0.0234,0.006 -0.0234,0.006 l -0.0923,-0.0882 c 0.0207,0.14469 0.11989,0.35002 0.11989,0.35002 l -0.0317,0.1819 -0.051,0.0868 c 0,0 -0.0124,0.022 -0.0152,0.0331 -0.003,0.0124 -0.0331,0.0372 -0.0331,0.0372 0,0 -0.04,0.20808 -0.0482,0.25493 -0.008,0.0482 -0.022,0.0813 -0.0234,0.12954 0,0.0469 -0.0193,0.0799 -0.0234,0.1006 -0.003,0.0207 -0.007,0.1254 -0.001,0.15985 0.006,0.0331 0.04,0.11989 0.0413,0.16261 10e-4,0.0413 0.003,0.0772 -0.0207,0.10749 -0.022,0.0289 -0.0358,0.0234 -0.0441,0.0923 -0.007,0.0689 -0.007,0.21498 -0.007,0.22463 -0.001,0.0124 10e-4,0.0413 0,0.0469 -0.003,0.007 -0.0248,0.0124 -0.0276,0.0207 -0.001,0.007 -0.005,0.22186 -0.005,0.22186 l 0.0248,0.0482 -0.0124,0.0289 c 0,0 0.0496,0.0317 0.051,0.051 0,0.0193 -0.0331,0.04 -0.0207,0.0565 0.011,0.0165 0.10198,0.14194 0.13229,0.15159 0.0289,0.01 0.0455,0.004 0.051,0.0193 0.005,0.0165 0.0138,0.0317 0.0152,0.0358 0.001,0.004 0.0482,-0.0152 0.062,-0.008 0.0124,0.007 0.0276,0.0248 0.0386,0.0275 0.01,0.004 0.0524,-0.004 0.0648,0.0289 0.011,0.0345 0.0193,0.0854 0.0165,0.0965 -0.003,0.011 -0.0248,0.0413 -0.0689,0.0648 -0.0441,0.0234 -0.15296,0.0469 -0.21911,0.0345 -0.0689,-0.0124 -0.26734,-0.13918 -0.26734,-0.13918 l -0.0661,0.0386 c 0,0 -0.10335,-0.0193 -0.12539,-0.0345 -0.022,-0.0152 -0.0262,-0.0248 -0.0262,-0.0317 -10e-4,-0.008 0,-0.0606 0,-0.0606 0,0 -0.0276,-0.0482 -0.0262,-0.0744 0.003,-0.0248 0.01,-0.0579 0.0152,-0.0648 0.004,-0.008 -0.001,-0.0138 -0.011,-0.0207 -0.008,-0.007 -0.0207,-0.0331 -0.008,-0.0565 0.0124,-0.022 0.0482,-0.0565 0.0524,-0.0606 0.003,-0.007 -0.011,-0.0234 -0.0234,-0.0303 -0.0124,-0.008 -0.0386,-0.32659 -0.0372,-0.33486 0.003,-0.007 -0.004,-0.0152 -0.0262,-0.0317 -0.0234,-0.0165 0.0207,-0.17087 0.0248,-0.21222 0.005,-0.0413 0.022,-0.0689 0.001,-0.0992 -0.0193,-0.0303 -0.0344,-0.10611 -0.0221,-0.14608 0.011,-0.0413 0.0193,-0.0593 0.0193,-0.091 0,-0.0289 0.0179,-0.0841 0.0193,-0.0951 0.003,-0.011 -0.0331,-0.0937 -0.04,-0.11576 -0.007,-0.0207 -0.0207,-0.0717 -0.0317,-0.0675 -0.011,0.004 -0.0469,0.0841 -0.0496,0.10749 -0.004,0.0248 -0.0165,0.0386 -0.0262,0.14882 -0.008,0.11163 -0.011,0.13781 -0.0165,0.15159 -0.007,0.0138 -0.0152,0.0234 -0.0179,0.0427 -0.003,0.0193 -10e-4,0.0386 -0.0124,0.0468 -0.011,0.01 -0.007,0.0262 0.007,0.0469 0.0138,0.0207 0.0317,0.0469 0.0193,0.091 -0.0138,0.0455 -0.0331,0.0868 -0.0455,0.10198 -0.011,0.0138 -0.0138,0.0896 -0.0179,0.10611 -0.004,0.0152 -0.0124,0.30592 -0.0124,0.30592 0,0 -0.011,0.0234 -0.0345,0.0276 -0.022,0.006 -0.0317,0.27424 -0.0317,0.27975 -0.001,0.006 0.0221,0.0634 0.0234,0.073 10e-4,0.007 0.005,0.0427 -0.005,0.0579 -0.011,0.0152 -0.0193,0.0289 -0.0193,0.0441 0,0.0152 -0.005,0.0482 -0.0165,0.0579 -0.011,0.008 0.007,0.19843 0.008,0.22048 0.001,0.0207 0.001,0.1695 0.001,0.19982 -0.001,0.0303 -0.01,0.12264 -0.0303,0.1502 -0.0234,0.0358 -0.0413,0.0524 -0.0413,0.0524"
           id="path4681-2" />
      </g>
    </g>
  </g>
</svg>
