<?xml version="1.0" encoding="UTF-8" standalone="no"?>
<!-- Created with Inkscape (http://www.inkscape.org/) -->

<svg
   width="11.172829mm"
   height="5.7018452mm"
   viewBox="0 0 11.172829 5.7018452"
   version="1.1"
   id="svg15601"
   inkscape:version="1.1.1 (3bf5ae0d25, 2021-09-20)"
   sodipodi:docname="inkporter-svg-fswrd51t.svg"
   xmlns:inkscape="http://www.inkscape.org/namespaces/inkscape"
   xmlns:sodipodi="http://sodipodi.sourceforge.net/DTD/sodipodi-0.dtd"
   xmlns="http://www.w3.org/2000/svg"
   xmlns:svg="http://www.w3.org/2000/svg">
  <sodipodi:namedview
     id="namedview15603"
     pagecolor="#ffffff"
     bordercolor="#666666"
     borderopacity="1.0"
     inkscape:pageshadow="2"
     inkscape:pageopacity="0.0"
     inkscape:pagecheckerboard="0"
     inkscape:document-units="mm"
     showgrid="false"
     inkscape:zoom="1.2810466"
     inkscape:cx="358.6911"
     inkscape:cy="503.49457"
     inkscape:window-width="1889"
     inkscape:window-height="1656"
     inkscape:window-x="3581"
     inkscape:window-y="141"
     inkscape:window-maximized="0"
     inkscape:current-layer="G-Infantry-MG5-4-Pfx3"
     inkscape:snap-nodes="true"
     inkscape:snap-bbox="true"
     inkscape:snap-others="true"
     inkscape:bbox-paths="true"
     inkscape:snap-global="true" />
  <defs
     id="defs15598">
    <clipPath
       clipPathUnits="userSpaceOnUse"
       id="clipPath48514-9-5-6-7-4">
      <path
         d="M 309.111,103.342 H 547.1 V 372.047 H 309.111 Z"
         id="path48512-3-2-8-8-0" />
    </clipPath>
    <clipPath
       clipPathUnits="userSpaceOnUse"
       id="clipPath48514-9-5-6-7-4-5">
      <path
         d="M 309.111,103.342 H 547.1 V 372.047 H 309.111 Z"
         id="path48512-3-2-8-8-0-2" />
    </clipPath>
    <clipPath
       clipPathUnits="userSpaceOnUse"
       id="clipPath48514-9-5-6-7-4-1">
      <path
         d="M 309.111,103.342 H 547.1 V 372.047 H 309.111 Z"
         id="path48512-3-2-8-8-0-4" />
    </clipPath>
  </defs>
  <g
     inkscape:label="Layer 1"
     inkscape:groupmode="layer"
     id="layer1"
     transform="translate(-21.504683,-133.99194)">
    <g
       id="G-InfantryStG3-Pf"
       transform="matrix(0.35277777,0,0,-0.35277777,-108.37433,253.56109)">
      <path
         d="m 379.92557,324.16314 c -0.073,-0.234 -0.193,-0.469 -0.267,-0.542 -0.074,-0.073 -0.372,-0.377 -0.381,-0.441 -0.008,-0.064 -0.022,-0.16 0.087,-0.252 0.11,-0.092 0.22,-0.114 0.354,-0.148 0.134,-0.032 0.666,0.056 0.768,0.157 0.101,0.101 0.242,0.368 0.281,0.432 0.037,0.065 0.031,-0.008 0.031,-0.008 l 0.224,0.146 c 0,0 0.042,0.225 0.015,0.267 -0.028,0.04 0.008,0.141 -0.015,0.219 -0.021,0.078 -0.131,0.18 -0.137,0.243 -0.004,0.065 0.01,0.12 -0.01,0.175 -0.018,0.056 -0.087,0.093 -0.108,0.11 -0.024,0.019 -0.03,0.189 -0.066,0.247 -0.037,0.061 -0.008,0.048 0.06,0.089 0.069,0.041 0.197,0.201 0.197,0.201 0,0 -0.16,0.01 -0.211,-0.004 -0.05,-0.013 -0.11,-0.05 -0.11,-0.05 l -0.07,0.032 c 0,0 -0.031,0.129 -0.114,0.188 -0.083,0.06 -0.124,0.235 -0.124,0.235 l 0.077,0.083 -0.136,0.15 -0.051,-0.021 -0.069,0.105 -0.078,-0.005 c 0,0 0.013,0.551 -0.027,0.679 -0.043,0.129 -0.23,0.307 -0.244,0.327 -0.014,0.018 -0.02,0.201 -0.073,0.229 -0.057,0.028 -0.144,0.082 -0.144,0.082 0,0 -0.063,0.24 -0.036,0.465 0.028,0.225 -0.151,1.111 -0.179,1.221 -0.026,0.111 0.028,0.322 0.051,0.473 0.024,0.151 0.004,0.882 0.004,0.882 l 0.243,0.162 c 0,0 -0.485,1.293 -0.554,1.505 -0.071,0.211 -0.124,0.487 -0.124,0.487 0,0 0.28,0.551 0.284,0.675 0.004,0.124 -0.01,0.28 0.079,0.385 0.086,0.106 0.256,0.695 0.155,1.048 -0.1,0.354 -0.345,1.047 -0.472,1.167 -0.129,0.119 -0.216,0.175 -0.277,0.394 -0.059,0.221 -0.104,0.4 -0.321,0.492 -0.217,0.091 -0.377,0.083 -0.418,0.137 -0.04,0.056 -0.114,0.098 -0.178,0.098 -0.066,0 -0.199,-0.042 -0.246,0 -0.043,0.04 -0.071,0.087 -0.053,0.169 0.017,0.082 0.032,0.124 0.032,0.124 l 0.465,-0.009 c 0,0 -0.162,0.357 -0.19,0.445 -0.027,0.087 0.194,1.039 -0.464,1.259 -0.657,0.219 -1.285,0.165 -1.483,-0.23 -0.199,-0.394 -0.193,-0.799 -0.433,-0.832 -0.237,-0.031 0.194,-0.133 0.194,-0.133 0,0 0,-0.081 0.04,-0.091 0.043,-0.01 0.087,-0.041 0.039,-0.152 -0.052,-0.111 -0.179,-0.28 -0.075,-0.313 0.107,-0.032 0.123,-0.046 0.123,-0.046 l 0.02,-0.068 c 0,0 -0.014,-0.04 0.004,-0.06 0.019,-0.018 0.079,-0.051 0.079,-0.051 l 0.017,-0.086 c 0,0 -0.059,-0.033 -0.05,-0.056 0.01,-0.022 0.07,-0.073 0.042,-0.114 -0.028,-0.041 -0.069,-0.161 -0.022,-0.203 0.044,-0.041 0.247,-0.101 0.247,-0.101 0,0 -0.221,-0.138 -0.325,-0.238 -0.107,-0.102 -0.19,-0.244 -0.28,-0.331 -0.093,-0.088 -0.199,-0.197 -0.154,-0.28 0.047,-0.083 0.061,-0.106 -0.003,-0.143 -0.066,-0.035 -0.3,-0.303 -0.327,-0.362 -0.027,-0.061 -0.224,-0.211 -0.331,-0.262 -0.104,-0.05 -0.207,-0.069 -0.207,-0.069 l -0.394,0.019 c 0,0 -0.061,0.078 -0.12,0.091 -0.059,0.014 -0.302,0.019 -0.302,0.019 l -0.07,-0.11 -0.592,-0.009 c 0,0 -0.1,0.054 -0.141,0.04 -0.042,-0.013 -0.166,-0.013 -0.166,-0.013 l -0.426,-0.023 -0.185,0.009 c 0,0 0.083,-0.441 0.083,-0.488 v -0.182 c 0,0 -0.178,-0.065 -0.178,-0.12 0,-0.055 0.054,-0.124 0.044,-0.156 -0.01,-0.033 -0.014,-0.114 -0.01,-0.142 0.006,-0.029 0.043,-0.075 0.037,-0.115 -0.004,-0.041 0.006,-0.097 0.035,-0.134 0.025,-0.036 0.021,-0.069 0.021,-0.118 0,-0.052 -0.029,-0.056 0.031,-0.093 0.06,-0.036 0.065,-0.064 0.065,-0.064 l 0.4,-0.028 c 0,0 0.102,-0.014 0.207,0 0.106,0.014 0.211,0.042 0.211,0.042 0,0 0.079,-0.271 0.229,-0.271 0.151,0 0.498,0.257 0.498,0.257 0,0 0.004,0.092 0.215,0.038 0.211,-0.056 0.334,-0.13 0.43,-0.134 0.098,-0.004 0.525,0.177 0.616,0.046 0.093,-0.133 0.244,-0.079 0.244,-0.079 0,0 -0.247,-0.721 -0.251,-0.831 -0.006,-0.111 0.049,-0.331 0.049,-0.331 0,0 -0.321,-0.555 -0.367,-0.743 -0.047,-0.189 -0.041,-0.189 -0.083,-0.252 -0.041,-0.066 -0.078,-0.194 -0.143,-0.294 -0.065,-0.102 -0.065,-0.157 -0.065,-0.157 l 0.111,-0.073 c 0,0 -0.578,-1.296 -0.633,-1.451 -0.056,-0.158 -0.436,-0.594 -0.391,-1.017 0.045,-0.422 0.051,-0.822 0.061,-0.875 0.008,-0.057 0.06,-0.148 0.026,-0.216 -0.03,-0.07 -0.11,-0.207 0.006,-0.289 0.114,-0.084 0.142,-0.071 0.142,-0.144 0,-0.073 0.037,-0.142 0.093,-0.187 0.054,-0.047 0.11,-0.465 0.11,-0.465 l 0.087,-0.418 c 0,0 -0.038,-0.068 -0.07,-0.12 -0.033,-0.049 -0.017,-0.101 -0.017,-0.101 0,0 -0.039,-0.095 -0.11,-0.141 -0.076,-0.047 -0.247,-0.271 -0.247,-0.271 0,0 -0.195,-0.17 -0.282,-0.193 -0.087,-0.023 -0.427,-0.17 -0.427,-0.17 0,0 -0.354,-0.069 -0.381,-0.184 -0.029,-0.115 -0.004,-0.22 -0.004,-0.22 l -0.033,-0.084 c 0,0 0.362,-0.109 0.522,-0.124 0.161,-0.013 1.007,0.264 1.132,0.291 0.122,0.026 0.169,0.04 0.232,0.031 0.067,-0.009 0.083,-0.106 0.083,-0.106 0,0 0.455,0.028 0.565,0.055 0.111,0.029 0.117,0.116 0.117,0.116 l -0.016,0.17 -0.037,0.042 c 0,0 0.157,0.251 0.13,0.417 -0.028,0.165 -0.103,0.348 -0.103,0.348 0,0 0.01,0.263 -0.012,0.331 -0.023,0.07 0.008,0.143 0.008,0.197 0,0.057 -0.063,0.211 -0.073,0.263 -0.01,0.051 0.037,0.293 0.037,0.293 0,0 0.243,0.341 0.216,0.437 -0.028,0.097 0.096,0.362 0.064,0.428 -0.033,0.063 -0.077,0.234 -0.096,0.311 -0.02,0.079 -0.014,0.134 0.026,0.226 0.041,0.092 0.041,0.212 0.024,0.326 -0.018,0.115 -0.004,0.137 0.216,0.228 0.221,0.093 0.743,0.625 0.83,0.777 0.089,0.152 0.368,0.653 0.528,0.298 0.161,-0.352 0.649,-1.575 0.726,-1.703 0.08,-0.128 0.561,-1.042 0.608,-1.13 0.044,-0.087 0.361,-0.284 0.404,-0.349 0.04,-0.064 0.197,-0.496 0.334,-0.523 0.138,-0.028 0.349,0 0.415,-0.083 0.064,-0.083 0.352,-0.377 0.371,-0.409 0.018,-0.031 0.067,-0.129 0.06,-0.188 -0.009,-0.06 0.078,-0.082 0.114,-0.091 0.037,-0.01 0.037,-0.217 0.037,-0.217"
         id="path51550-7-8-8-5-8" />
      <path
         d="m 377.38917,334.32784 c 0.069,0.189 0.11,0.328 -0.053,0.358 -0.16,0.029 -0.895,0.115 -0.932,0.114 -0.036,0 -0.501,-0.07 -0.803,0.054 -0.303,0.126 -0.282,0.178 -0.445,0.188 -0.16,0.011 -2.326,0.038 -2.326,0.038 l 0.002,0.131 -0.28,0.006 0.008,0.102 -0.439,-0.01 c 0,0 -0.033,0.029 -0.072,0.017 -0.037,-0.009 -0.052,-0.038 -0.052,-0.038 l -0.011,-0.073 -0.082,-0.128 -0.243,-0.004 -0.014,-0.037 -2.078,0.033 -0.08,-0.054 -0.353,-0.031 c 0,0 -0.074,0.038 -0.079,-0.02 -0.004,-0.058 0.05,-0.047 0.05,-0.047 l 0.043,0.014 0.301,0.012 0.068,-0.054 -0.008,-0.086 -0.89,0.014 -0.076,0.422 -0.181,0.039 -0.037,-0.395 -0.033,-0.04 -0.092,10e-4 c 0,0 -0.026,-0.025 -0.039,-0.077 -0.014,-0.054 0.044,-0.103 0.044,-0.103 l 0.379,-10e-4 0.028,0.014 1.319,-0.047 0.226,-0.038 c 0,0 1.157,-0.024 1.19,-0.025 0.031,-10e-4 0.198,-0.069 0.249,-0.068 0.051,0.002 0.481,0.045 0.509,-0.053 0.029,-0.099 -0.015,-0.315 -0.015,-0.315 l 0.052,-0.017 c 0,0 -0.075,-0.606 -0.189,-0.914 -0.117,-0.307 -0.351,-0.84 -0.351,-0.84 l 0.455,-0.279 c 0,0 0.321,0.611 0.422,1.009 0.1,0.396 0.18,1.001 0.18,1.001 0,0 0.124,0.002 0.165,-0.043 0.04,-0.047 0.115,-0.047 0.115,-0.047 0,0 0.232,-0.002 0.285,-0.118 0.05,-0.117 0.148,-0.206 0.331,-0.201 0.183,0.005 0.261,0.015 0.3,0.051 0.036,0.033 0.104,0.059 0.134,0.041 0.03,-0.018 0.142,-0.11 0.239,-0.282 0.098,-0.173 0.151,-0.278 0.151,-0.278 0,0 0.026,-0.071 0.154,-0.018 0.126,0.054 0.38,0.129 0.246,0.338 -0.132,0.209 -0.465,0.65 -0.465,0.65 0,0 -0.045,0.197 0.221,0.176 0.27,-0.022 0.627,-0.013 0.627,-0.013 0,0 0.49,-0.147 0.861,-0.367 0.373,-0.219 1.092,-0.523 1.116,-0.531 0.023,-0.006 0.315,-0.058 0.289,0.21 -0.027,0.268 -0.037,0.274 -0.041,0.448 -0.002,0.174 0,0.211 0,0.211"
         id="path51554-3-0-1-4-4" />
      <path
         d="m 391.392,331.11874 c 0,0 0.014,-0.089 0.065,-0.136 0.055,-0.044 0.181,-0.044 0.181,-0.044 0,0 0.099,-0.029 0.133,-0.045 0.039,-0.015 0.098,0.022 0.136,0.022 0.039,0 0.088,-0.051 0.135,-0.059 0.044,-0.006 0.089,0.043 0.128,0.043 0.034,0 0.034,-0.013 0.095,-0.029 0.059,-0.014 0.158,0.084 0.158,0.084 l 0.522,0.089 0.217,-0.089 -0.238,-1.448 -0.023,-0.16 0.125,-0.045 c 0,0 0.008,-1.224 0.039,-1.472 0.03,-0.245 0.038,-0.836 0.239,-1.083 0.201,-0.246 0.524,-0.619 0.568,-0.739 0.045,-0.12 0.224,-0.285 0.35,-0.306 0.128,-0.023 0.486,-0.031 0.635,-0.271 0.15,-0.237 0.434,-0.335 0.434,-0.335 0,0 0.195,-0.224 0.226,-0.282 0.028,-0.062 0.342,-0.263 0.334,-0.339 -0.006,-0.073 0.092,-0.739 0.016,-0.88 -0.076,-0.143 -0.261,-0.368 -0.233,-0.53 0.031,-0.165 0.134,-0.18 0.134,-0.18 l 0.047,-0.082 c 0,0 0.337,-0.12 0.568,0.126 0.23,0.248 0.313,0.493 0.374,0.606 0.058,0.112 0.141,0.449 0.141,0.449 l 0.074,-0.052 c 0,0 0.262,0.387 0.075,0.598 -0.186,0.209 -0.269,0.274 -0.269,0.274 0,0 -0.037,-0.044 -0.127,0.055 -0.089,0.094 -0.327,0.349 -0.327,0.349 0,0 -0.241,0.345 -0.3,0.382 -0.061,0.036 -0.165,0.245 -0.225,0.276 -0.059,0.03 -0.261,0.27 -0.261,0.359 0,0.088 0.052,0.313 -0.052,0.404 -0.105,0.089 -0.157,0.274 -0.254,0.337 -0.099,0.059 -0.143,0.26 -0.156,0.386 -0.016,0.128 -0.144,0.254 -0.188,0.292 -0.045,0.037 -0.06,0.089 0.029,0.351 0.09,0.262 0.143,0.599 0.269,0.777 0.128,0.179 0.164,0.203 0.164,0.203 0,0 0.554,-0.905 0.613,-1.025 0.061,-0.12 0.449,-0.775 0.523,-0.888 0.076,-0.112 0.196,-0.133 0.263,-0.502 0.066,-0.365 0.395,-0.44 0.47,-0.56 0.076,-0.118 0.217,-0.337 0.358,-0.433 0.142,-0.097 0.269,-0.194 0.269,-0.194 0.188,-0.292 0.501,-0.621 0.622,-0.762 0.117,-0.142 0.26,-0.389 0.26,-0.389 l 0.068,-0.045 c 0,0 0.037,-0.373 -0.008,-0.471 -0.044,-0.095 -0.135,-0.2 -0.164,-0.359 -0.03,-0.154 0,-0.185 0,-0.185 l -0.03,-0.083 c 0,0 0.382,-0.111 0.568,-0.076 0.185,0.039 0.449,0.248 0.449,0.248 l 0.221,0.232 c 0,0 -0.065,0.18 -0.065,0.238 0,0.06 0,0.217 -0.052,0.277 -0.052,0.059 -0.224,0.367 -0.224,0.367 0,0 0.036,0.232 -0.112,0.358 -0.15,0.128 -0.225,0.463 -0.239,0.559 -0.015,0.099 -0.046,0.42 -0.15,0.488 -0.106,0.065 -0.157,0.149 -0.149,0.342 0.007,0.196 -0.024,0.3 -0.113,0.375 -0.089,0.073 -0.112,0.282 -0.143,0.455 -0.029,0.172 -0.013,0.3 -0.207,0.418 -0.196,0.12 -0.292,0.367 -0.323,0.629 -0.029,0.259 -0.261,0.865 -0.336,0.992 -0.075,0.128 -0.126,0.606 -0.126,0.606 0,0 0.135,-0.029 0.172,0.044 0.037,0.075 0.015,0.211 0.015,0.211 0,0 0.118,0.102 0.118,0.23 0,0.126 -0.045,0.29 -0.045,0.29 0,0 0.322,0.128 0.225,0.517 -0.097,0.389 -0.321,0.717 -0.337,0.845 -0.013,0.126 -0.125,0.604 -0.326,0.568 -0.204,-0.038 -0.428,-0.119 -0.428,-0.119 0,0 0.373,0.468 0.493,0.619 0.121,0.15 0.121,0.156 0.253,0.523 0.136,0.368 0.165,0.516 0.069,0.634 -0.097,0.121 -0.18,0.277 -0.225,0.41 -0.045,0.136 -0.381,0.592 -0.441,0.69 -0.058,0.096 -0.447,0.537 -0.478,0.597 -0.029,0.06 -0.029,0.186 -0.178,0.314 -0.151,0.128 -0.441,0.375 -0.569,0.396 -0.127,0.022 -0.246,0.045 -0.284,0.06 -0.037,0.015 0.068,0.222 -0.11,0.306 -0.183,0.083 -0.391,0.105 -0.496,0.232 -0.104,0.126 -0.379,0.172 -0.433,0.172 h -0.11 c 0,0 0.021,0.149 -0.015,0.245 -0.039,0.097 -0.15,0.173 -0.15,0.173 0,0 -0.24,1.024 -0.867,1.008 -0.629,-0.016 -1.002,0.053 -1.315,-0.463 -0.313,-0.516 -0.329,-1.023 -0.329,-1.023 0,0 0.128,-0.044 0.18,-0.067 0.052,-0.022 0.09,0.023 0.112,-0.068 0.023,-0.09 0.134,-0.149 0.134,-0.149 0,0 0.096,-0.233 0.128,-0.292 0.031,-0.059 0.088,-0.248 0.133,-0.358 0.046,-0.113 0.105,-0.253 0.164,-0.277 0.06,-0.023 0.121,-0.023 0.121,-0.023 0,0 -0.322,-0.389 -0.351,-0.485 -0.031,-0.095 -0.128,-0.709 -0.164,-0.814 -0.039,-0.106 -0.181,-0.299 -0.157,-0.42 0.021,-0.117 0.006,-0.341 -0.016,-0.485 -0.022,-0.141 -0.119,-0.41 -0.133,-0.485 -0.015,-0.074 0.05,-0.118 0.058,-0.157 0.008,-0.038 -0.081,-0.105 -0.134,-0.156 -0.052,-0.053 -0.059,-0.225 -0.096,-0.262 -0.038,-0.036 -0.107,-0.044 -0.128,-0.097 -0.023,-0.052 0.037,-0.158 -0.031,-0.248 -0.066,-0.089 -0.297,-0.185 -0.297,-0.26 0,-0.074 0.044,-0.202 0.044,-0.202 0,0 -0.052,-0.083 -0.105,-0.179 -0.052,-0.097 -0.112,-0.142 -0.089,-0.189 z"
         id="path51574-7-7-0-5-4" />
      <path
         d="m 397.816,332.51754 c 0.017,0.201 0.02,0.345 -0.145,0.331 -0.163,-0.016 -0.895,-0.127 -0.93,-0.138 -0.034,-0.01 -0.464,-0.199 -0.788,-0.16 -0.326,0.04 -0.319,0.097 -0.479,0.063 -0.157,-0.033 -2.252,-0.579 -2.252,-0.579 l -0.033,0.125 -0.272,-0.067 -0.02,0.1 -0.421,-0.126 c 0,0 -0.04,0.019 -0.073,-0.003 -0.033,-0.019 -0.04,-0.051 -0.04,-0.051 l 0.008,-0.073 -0.045,-0.145 -0.233,-0.068 -0.003,-0.04 -2.013,-0.519 -0.063,-0.072 -0.332,-0.125 c 0,0 -0.082,0.019 -0.072,-0.04 0.012,-0.056 0.061,-0.031 0.061,-0.031 l 0.038,0.024 0.289,0.091 0.079,-0.033 0.015,-0.086 -0.863,-0.221 -0.183,0.386 -0.187,-0.012 0.07,-0.389 -0.021,-0.048 -0.09,-0.023 c 0,0 -0.018,-0.031 -0.016,-0.085 0,-0.054 0.069,-0.087 0.069,-0.087 l 0.366,0.098 0.023,0.022 1.284,0.306 0.229,0.023 c 0,0 1.122,0.282 1.153,0.29 0.031,0.008 0.209,-0.014 0.26,0.001 0.047,0.015 0.45,0.171 0.504,0.083 0.054,-0.087 0.068,-0.309 0.068,-0.309 l 0.055,-0.002 c 0,0 0.088,-0.603 0.059,-0.93 -0.03,-0.328 -0.114,-0.903 -0.114,-0.903 l 0.511,-0.148 c 0,0 0.149,0.675 0.141,1.084 -0.009,0.408 -0.093,1.014 -0.093,1.014 0,0 0.119,0.035 0.17,0 0.053,-0.034 0.124,-0.014 0.124,-0.014 0,0 0.225,0.06 0.306,-0.038 0.079,-0.1 0.198,-0.158 0.372,-0.105 0.176,0.053 0.249,0.083 0.276,0.127 0.027,0.043 0.085,0.085 0.12,0.076 0.033,-0.009 0.165,-0.069 0.304,-0.208 0.141,-0.14 0.219,-0.229 0.219,-0.229 0,0 0.045,-0.06 0.154,0.024 0.107,0.085 0.331,0.225 0.147,0.392 -0.182,0.166 -0.619,0.503 -0.619,0.503 0,0 -0.098,0.178 0.166,0.228 0.266,0.049 0.608,0.153 0.608,0.153 0,0 0.511,-0.012 0.927,-0.124 0.418,-0.114 1.19,-0.216 1.216,-0.216 0.025,0 0.32,0.026 0.223,0.278 -0.097,0.252 -0.108,0.254 -0.158,0.421 -0.047,0.167 -0.056,0.204 -0.056,0.204"
         id="path51578-6-6-1-4-1" />
      <path
         d="m 386.02914,324.9873 c -0.016,0.177 -0.24,0.699 -0.263,0.768 -0.021,0.07 -0.015,0.123 -0.015,0.163 0,0.038 -0.392,0.429 -0.445,0.53 -0.055,0.099 -0.063,0.522 -0.083,0.698 -0.026,0.177 -0.156,0.315 -0.225,0.393 -0.068,0.077 -0.169,0.568 -0.169,0.646 0,0.077 -0.33,1.49 -0.377,1.522 -0.045,0.031 -0.139,0.046 -0.246,0.052 -0.108,0.008 -0.116,0.047 -0.116,0.047 v 0.147 l -0.16,0.046 c 0,0 -0.093,0.291 0.085,0.544 0.177,0.255 0.282,1.254 0.282,1.254 0,0 -0.537,0.262 -0.905,0.415 -0.369,0.154 -1.055,0.293 -1.13,0.307 -0.077,0.016 -0.431,0.392 -0.493,0.623 -0.06,0.23 -0.344,1.1 -0.352,1.291 -0.008,0.192 0.276,0.831 0.377,1.107 0.098,0.278 0.068,0.262 0.068,0.262 l 0.806,0.092 0.686,-0.338 0.168,0.153 c 0.085,0.077 0.116,0.085 0.17,0.23 0.054,0.147 0.352,0.27 0.393,0.308 0.036,0.038 0.021,0.139 -0.049,0.316 -0.067,0.176 -0.114,0.468 -0.114,0.468 0,0 -0.176,0.054 -0.223,0.108 -0.045,0.054 -0.045,0.116 -0.216,0.276 -0.168,0.162 0.092,0.378 0.178,0.494 0.085,0.114 0.145,0.43 0.238,0.582 0.09,0.155 0.429,0.292 1.076,0.231 0.646,-0.06 0.752,-0.338 0.784,-0.507 0.03,-0.169 0.169,-0.929 0.27,-1.108 0.099,-0.175 0.014,-0.152 -0.077,-0.152 -0.093,0 -0.27,0.03 -0.27,0.03 0,0 -0.022,-0.014 -0.077,-0.1 -0.053,-0.084 -0.023,-0.146 0.016,-0.168 0.039,-0.024 0.13,0.022 0.315,0.075 0.184,0.055 0.36,-0.129 0.445,-0.183 0.085,-0.054 0.238,-0.032 0.3,-0.04 0.062,-0.006 0.359,-0.276 0.377,-0.368 0.016,-0.091 0.138,-0.146 0.184,-0.208 0.046,-0.06 0.137,-0.091 0.238,-0.175 0.1,-0.086 0.077,-0.323 0.178,-0.37 0.099,-0.046 0.515,-0.745 0.654,-0.823 0.137,-0.077 0.137,-0.238 0.183,-0.414 0.047,-0.177 0.254,-0.338 0.323,-0.485 0.069,-0.145 0.038,-0.415 -0.045,-0.623 -0.085,-0.207 -0.471,-0.36 -0.6,-0.391 -0.132,-0.03 -0.447,-0.177 -0.447,-0.177 l 0.178,-0.161 -0.093,-0.193 c 0,0 0.292,0.077 0.39,0.085 0.101,0.006 0.14,-0.161 0.179,-0.301 0.038,-0.137 0.077,-0.675 0.162,-1.098 0.083,-0.422 -0.307,-0.661 -0.307,-0.661 0,0 -0.008,-0.084 0,-0.116 0.007,-0.03 -0.085,-0.184 -0.148,-0.245 -0.061,-0.062 -0.178,0.016 -0.178,0.016 0,0 0.032,-0.102 -0.044,-0.17 -0.078,-0.068 -0.346,-0.1 -0.346,-0.1 0,0 -0.024,-0.092 -0.024,-0.124 0,-0.03 -0.183,-0.307 -0.199,-0.361 -0.015,-0.053 0.091,-0.298 -0.023,-0.584 -0.116,-0.283 -0.308,-0.507 -0.337,-0.544 -0.032,-0.04 -0.093,-0.301 -0.093,-0.301 0,0 0.146,-0.246 0.083,-0.36 -0.061,-0.117 -0.044,-0.278 -0.044,-0.278 0,0 0.337,-0.299 0.515,-0.615 0.176,-0.315 0.354,-0.253 0.512,-0.331 0.163,-0.076 0.085,-0.215 0.085,-0.215 0,0 0.186,-0.092 0.331,-0.176 0.148,-0.084 0.178,-0.308 0.178,-0.308 0,0 0.061,-0.107 0.114,-0.208 0.055,-0.099 -0.215,-0.461 -0.215,-0.461 h -0.136 c 0,0 -0.016,-0.192 -0.01,-0.26 0.01,-0.07 -0.177,-0.53 -0.315,-0.693 -0.138,-0.161 -0.392,-0.168 -0.692,-0.161 -0.299,0.008 -0.118,0 -0.284,-0.307 -0.152,-0.284 -0.447,-0.53 -0.999,-0.53 -0.554,0 -0.122,0.499 0.13,0.861 0.254,0.36 0.055,0.491 0.039,0.775 0,0 -0.092,0.4 -0.106,0.577 m -2.3,7.794 c -0.014,0.108 0.031,0.238 0.108,0.246 0.077,0.007 0.14,-0.022 0.152,0.03 0.016,0.054 -0.09,0.376 -0.09,0.376 0,0 -0.416,-0.467 -0.499,-0.53 -0.085,-0.061 -0.44,-0.237 -0.509,-0.237 -0.067,0 -0.368,0.068 -0.43,0.215 -0.059,0.146 -0.069,0.216 -0.131,0.353 -0.06,0.138 -0.083,0.223 -0.044,0.308 0.036,0.085 0.03,0.177 0.022,0.222 -0.007,0.047 0,0.215 0.045,0.27 0.049,0.054 -0.016,0.069 -0.023,0.161 -0.008,0.092 -0.099,0.146 0.031,0.291 0.132,0.147 0.224,0.371 0.224,0.371 l -0.092,0.107 c 0,0 -0.085,0.053 -0.14,0.1 -0.052,0.045 -0.13,0.123 -0.138,0.207 -0.007,0.085 -0.007,0.277 -0.007,0.277 l -0.139,0.062 c 0,0 -0.161,-0.431 -0.191,-0.515 -0.032,-0.086 -0.162,-0.231 -0.169,-0.4 -0.01,-0.17 -0.101,-0.484 0.085,-1.015 0.184,-0.531 0.176,-0.753 0.305,-0.862 0.132,-0.106 0.362,-0.207 0.546,-0.245 0.186,-0.038 0.747,-0.145 0.946,-0.277 0.199,-0.129 0.238,-0.115 0.238,-0.115 -0.052,0.177 -0.083,0.493 -0.1,0.6 m 3.298,-7.901 c -0.007,-0.108 0.062,-0.563 0.068,-0.6 0.01,-0.039 0.186,0.208 0.217,0.283 0.03,0.077 0.085,0.194 0.1,0.263 0.014,0.068 0,0.192 0.014,0.238 0.016,0.046 -0.445,0.438 -0.445,0.438 0.023,-0.16 0.054,-0.515 0.046,-0.622"
         id="path51558-0-7-1-7-1" />
      <path
         d="m 386.58244,332.5867 c 0.16,0.12 0.27,0.214 0.151,0.327 -0.118,0.112 -0.689,0.584 -0.72,0.604 -0.03,0.019 -0.458,0.214 -0.644,0.483 -0.186,0.27 -0.141,0.302 -0.269,0.401 -0.132,0.097 -1.93,1.296 -1.93,1.296 l 0.069,0.109 -0.23,0.159 0.061,0.082 -0.375,0.231 c 0,0 -0.01,0.041 -0.048,0.052 -0.037,0.012 -0.066,-0.004 -0.066,-0.004 l -0.048,-0.054 -0.14,-0.065 -0.206,0.13 -0.03,-0.023 -1.725,1.16 -0.095,-0.003 -0.315,0.169 c 0,0 -0.041,0.071 -0.076,0.025 -0.034,-0.046 0.013,-0.066 0.013,-0.066 l 0.045,-0.012 0.261,-0.154 0.027,-0.081 -0.053,-0.071 -0.739,0.497 0.164,0.397 -0.13,0.13 -0.245,-0.312 -0.049,-0.014 -0.077,0.052 c 0,0 -0.035,-0.009 -0.076,-0.046 -0.04,-0.036 -0.017,-0.109 -0.017,-0.109 l 0.319,-0.208 0.027,-10e-4 1.081,-0.76 0.17,-0.154 c 0,0 0.958,-0.652 0.983,-0.669 0.026,-0.019 0.128,-0.167 0.172,-0.194 0.045,-0.026 0.428,-0.224 0.4,-0.321 -0.03,-0.099 -0.187,-0.256 -0.187,-0.256 l 0.037,-0.044 c 0,0 -0.392,-0.467 -0.658,-0.661 -0.264,-0.195 -0.751,-0.514 -0.751,-0.514 l 0.229,-0.482 c 0,0 0.604,0.338 0.904,0.616 0.3,0.277 0.696,0.741 0.696,0.741 0,0 0.103,-0.064 0.114,-0.127 0.01,-0.06 0.072,-0.102 0.072,-0.102 0,0 0.193,-0.127 0.174,-0.252 -0.019,-0.125 0.013,-0.254 0.17,-0.349 0.154,-0.096 0.227,-0.131 0.278,-0.122 0.049,0.01 0.121,-0.008 0.134,-0.038 0.016,-0.031 0.06,-0.169 0.049,-0.367 -0.012,-0.197 -0.027,-0.314 -0.027,-0.314 0,0 -0.016,-0.074 0.122,-0.1 0.135,-0.024 0.388,-0.098 0.39,0.15 0.002,0.247 -0.037,0.797 -0.037,0.797 0,0 0.071,0.192 0.283,0.028 0.213,-0.165 0.517,-0.351 0.517,-0.351 0,0 0.331,-0.391 0.524,-0.778 0.192,-0.387 0.629,-1.032 0.645,-1.052 0.018,-0.019 0.233,-0.222 0.355,0.018 0.126,0.24 0.122,0.249 0.213,0.397 0.091,0.148 0.114,0.179 0.114,0.179"
         id="path51562-4-0-3-7-3" />
      <path
         d="m 385.0038,330.3642 1.737,3.731 0.049,-0.022 -0.055,-0.118 -0.016,0.008 -0.026,-0.057 0.162,-0.075 0.028,0.056 -0.074,0.033 0.054,0.116 0.014,-0.004 0.056,0.118 0.02,-0.008 0.038,0.081 -0.021,0.008 0.461,0.988 0.029,-0.013 0.037,0.08 -0.03,0.014 0.069,0.144 -0.136,0.062 0.577,1.239 c 0.045,0.02 0.12,0.071 0.227,0.193 0.102,0.116 0.317,0.354 0.484,0.54 0.134,0.147 0.236,0.263 0.236,0.263 l 0.028,0.057 -0.008,0.028 0.055,0.122 -0.01,0.173 -0.041,0.566 c 0,0 -0.014,0.139 -0.173,0.212 l -0.006,0.004 c -0.158,0.077 -0.274,-0.005 -0.274,-0.005 l -0.459,-0.333 -0.14,-0.101 -0.058,-0.122 -0.026,-0.014 -0.026,-0.055 c 0,0 -0.022,-0.154 -0.049,-0.35 -0.035,-0.247 -0.081,-0.567 -0.105,-0.719 -0.025,-0.158 -0.013,-0.249 -10e-4,-0.297 l -2.974,-6.38 z"
         id="path48530-6-1-0-5-9" />
    </g>
  </g>
</svg>
