<?xml version="1.0" encoding="UTF-8" standalone="no"?>
<!-- Created with Inkscape (http://www.inkscape.org/) -->

<svg
   width="38.360203mm"
   height="16.065325mm"
   viewBox="0 0 38.360202 16.065326"
   version="1.1"
   id="svg33402"
   sodipodi:docname="inkporter-svg-eob1e1oo.svg"
   inkscape:version="1.1.1 (3bf5ae0d25, 2021-09-20)"
   xmlns:inkscape="http://www.inkscape.org/namespaces/inkscape"
   xmlns:sodipodi="http://sodipodi.sourceforge.net/DTD/sodipodi-0.dtd"
   xmlns="http://www.w3.org/2000/svg"
   xmlns:svg="http://www.w3.org/2000/svg">
  <sodipodi:namedview
     id="namedview555"
     pagecolor="#ffffff"
     bordercolor="#666666"
     borderopacity="1.0"
     inkscape:pageshadow="2"
     inkscape:pageopacity="0.0"
     inkscape:pagecheckerboard="0"
     inkscape:document-units="mm"
     showgrid="false"
     inkscape:zoom="0.64"
     inkscape:cx="239.84375"
     inkscape:cy="-52.34375"
     inkscape:window-width="3072"
     inkscape:window-height="1665"
     inkscape:window-x="1912"
     inkscape:window-y="-8"
     inkscape:window-maximized="1"
     inkscape:current-layer="svg33402" />
  <defs
     id="defs13927" />
  <g
     id="G-Infantry5-4-SdKfz250"
     transform="translate(0,-28.511846)">
    <g
       id="G-Infantry5-SdKfz250"
       transform="translate(2.3702606,-988.71283)">
      <g
         id="g8263">
        <path
           d="m 4.9275033,1022.428 c -0.025753,0.083 -0.068086,0.1662 -0.094544,0.1919 -0.025753,0.027 -0.1315861,0.1341 -0.1351139,0.1567 -0.00317,0.023 -0.00811,0.056 0.031045,0.09 0.038805,0.033 0.078317,0.041 0.1255888,0.052 0.047272,0.011 0.2356556,-0.019 0.2716389,-0.055 0.035631,-0.036 0.086078,-0.1305 0.099483,-0.1531 0.013053,-0.023 0.011642,0 0.011642,0 l 0.079022,-0.052 c 0,0 0.014817,-0.08 0.00494,-0.094 -0.00953,-0.015 0.00423,-0.051 -0.00494,-0.079 -0.00741,-0.028 -0.046919,-0.064 -0.04833,-0.086 -0.00141,-0.024 0.00317,-0.042 -0.00353,-0.062 -0.00635,-0.02 -0.030692,-0.033 -0.038806,-0.039 -0.00847,-0.01 -0.00988,-0.066 -0.022931,-0.088 -0.0127,-0.022 -0.00318,-0.016 0.021519,-0.031 0.024342,-0.014 0.069497,-0.072 0.069497,-0.072 0,0 -0.056445,0 -0.074436,0 -0.018697,0 -0.039511,0.017 -0.039511,0.017 l -0.023989,-0.012 c 0,0 -0.011642,-0.046 -0.040922,-0.066 -0.029633,-0.021 -0.043744,-0.083 -0.043744,-0.083 l 0.027164,-0.029 -0.048331,-0.054 -0.018697,0.01 -0.023636,-0.038 h -0.028222 c 0,0 0.00494,-0.1958 -0.00953,-0.2413 -0.015169,-0.045 -0.081139,-0.1087 -0.086078,-0.1154 -0.00564,-0.01 -0.00706,-0.072 -0.026458,-0.082 -0.019403,-0.01 -0.050095,-0.029 -0.050095,-0.029 0,0 -0.023283,-0.085 -0.013053,-0.1648 0.00953,-0.079 -0.053975,-0.3937 -0.063147,-0.4325 -0.010583,-0.039 0.00917,-0.1139 0.017286,-0.1672 0.00847,-0.054 0.00141,-0.3133 0.00141,-0.3133 l 0.086783,-0.057 c 0,0 -0.1728611,-0.459 -0.1972028,-0.5345 -0.025047,-0.074 -0.043744,-0.1718 -0.043744,-0.1718 0,0 0.099131,-0.1958 0.1008944,-0.2395 0.00141,-0.044 -0.00317,-0.1 0.027517,-0.1373 0.030692,-0.037 0.091017,-0.2455 0.055033,-0.3711 -0.035278,-0.1252 -0.1220611,-0.3711 -0.1675694,-0.4141 -0.045156,-0.042 -0.0762,-0.061 -0.097367,-0.139 -0.021167,-0.078 -0.037394,-0.1419 -0.1139472,-0.1743 -0.076906,-0.033 -0.13335,-0.03 -0.1485195,-0.049 -0.014464,-0.019 -0.040922,-0.034 -0.063147,-0.034 -0.02293,0 -0.070203,0.015 -0.086078,0 -0.01658,-0.014 -0.026458,-0.031 -0.020108,-0.06 0.00706,-0.029 0.011642,-0.044 0.011642,-0.044 h 0.1640416 c 0,0 -0.056797,-0.127 -0.066322,-0.1584 -0.00953,-0.031 0.068439,-0.3676 -0.1647472,-0.4452 -0.2328333,-0.079 -0.4557889,-0.059 -0.5259917,0.081 -0.069497,0.14 -0.068086,0.2829 -0.1531055,0.2945 -0.084667,0.011 0.068439,0.047 0.068439,0.047 0,0 0,0.03 0.015169,0.033 0.014111,0 0.030692,0.014 0.0127,0.054 -0.017639,0.039 -0.0635,0.099 -0.025753,0.1108 0.037395,0.011 0.043744,0.015 0.043744,0.015 l 0.0067,0.025 c 0,0 -0.00564,0.015 0.00141,0.021 0.00706,0.01 0.027869,0.018 0.027869,0.018 l 0.00635,0.031 c 0,0 -0.021519,0.011 -0.017992,0.019 0.00353,0.01 0.023989,0.026 0.014464,0.041 -0.00953,0.014 -0.023636,0.057 -0.00847,0.072 0.01658,0.014 0.088194,0.035 0.088194,0.035 0,0 -0.077611,0.049 -0.1153583,0.085 -0.037395,0.036 -0.067028,0.086 -0.099131,0.1167 -0.032808,0.032 -0.070203,0.071 -0.053975,0.1 0.016581,0.029 0.021167,0.038 -0.00176,0.05 -0.022578,0.013 -0.1054805,0.1079 -0.1157111,0.1291 -0.00953,0.021 -0.079375,0.074 -0.1167694,0.092 -0.037747,0.019 -0.073731,0.025 -0.073731,0.025 l -0.1393472,-0.01 c 0,0 -0.021167,-0.028 -0.042686,-0.033 -0.020814,0 -0.1075972,-0.01 -0.1075972,-0.01 l -0.024342,0.039 H 2.4799171 c 0,0 -0.035631,-0.02 -0.0508,-0.015 -0.014111,0.01 -0.057856,0.01 -0.057856,0.01 l -0.1516944,0.01 h -0.064911 c 0,0 -0.026458,-0.012 -0.076906,-0.011 -0.050447,0 -0.1093611,0 -0.1234722,0.01 -0.015169,0.01 -0.052564,0.012 -0.052564,0.012 l -0.3217333,-0.01 0.00141,-0.019 c 0,0 -0.1033639,0 -0.1192389,-0.04 -0.016228,-0.036 -0.016228,-0.055 -0.016228,-0.055 h -0.053975 l -0.00847,0.092 h -0.045156 v 0.074 l 0.1354667,0.013 0.091017,0.082 0.013053,-0.045 c 0,0 0.022225,-0.01 0.051858,-0.01 0.029281,0 0.2772834,0.028 0.2772834,0.028 l 0.015875,-0.028 c 0,0 0.011289,0.013 0.040922,0.02 0.02928,0.01 0.1449917,0.013 0.1792111,0.018 0.034219,0 0.040217,0.023 0.040217,0.04 v 0.065 c 0,0 -0.063147,0.023 -0.063147,0.042 0,0.019 0.019403,0.044 0.015875,0.055 -0.00212,0.012 -0.00423,0.041 -0.00212,0.05 0.00106,0.01 0.014111,0.026 0.0127,0.041 -0.00212,0.015 0.00141,0.034 0.010936,0.047 0.010231,0.013 0.00811,0.024 0.00811,0.042 0,0.018 -0.00953,0.02 0.011642,0.033 0.021167,0.013 0.022578,0.022 0.022578,0.022 v 0.2854 h 0.1435806 l -0.00212,-0.2805 c 0,0 0.036336,0.01 0.073731,0 0.037042,0 0.074436,-0.014 0.074436,-0.014 0,0 0.027869,0.095 0.082197,0.095 0.053269,0 0.1756833,-0.091 0.1756833,-0.091 0,0 0.00176,-0.032 0.0762,-0.013 0.075142,0.019 0.1188861,0.046 0.1531056,0.047 0.034219,0 0.1859139,-0.063 0.2180166,-0.016 0.032808,0.047 0.086783,0.027 0.086783,0.027 0,0 -0.088195,0.2558 -0.089606,0.2946 -0.00212,0.04 0.017992,0.1178 0.017992,0.1178 0,0 -0.1139472,0.1969 -0.1305278,0.2635 -0.016581,0.067 -0.014464,0.067 -0.029281,0.09 -0.014464,0.023 -0.027517,0.068 -0.0508,0.1041 -0.022578,0.036 -0.022578,0.055 -0.022578,0.055 l 0.039158,0.027 c 0,0 -0.2053167,0.4587 -0.2247194,0.5137 -0.019403,0.056 -0.1545167,0.2102 -0.1382889,0.3602 0.01658,0.1496 0.017992,0.2917 0.021519,0.3115 0.00318,0.019 0.020108,0.051 0.00917,0.077 -0.011289,0.024 -0.038806,0.073 0.00212,0.1012 0.040217,0.03 0.049742,0.026 0.049742,0.052 0,0.025 0.013758,0.05 0.032808,0.066 0.019403,0.017 0.039158,0.1648 0.039158,0.1648 l 0.031397,0.1485 c 0,0 -0.013758,0.024 -0.024694,0.042 -0.011289,0.018 -0.0067,0.036 -0.0067,0.036 0,0 -0.013053,0.034 -0.039158,0.051 -0.025753,0.016 -0.086078,0.096 -0.086078,0.096 0,0 -0.070203,0.06 -0.1008944,0.069 -0.030692,0.01 -0.1520472,0.06 -0.1520472,0.06 0,0 -0.1248834,0.024 -0.1347611,0.064 -0.00988,0.041 -0.00141,0.079 -0.00141,0.079 l -0.011642,0.029 c 0,0 0.1291167,0.038 0.1859139,0.044 0.056444,0 0.3563055,-0.093 0.40005,-0.1023 0.04445,-0.01 0.060325,-0.015 0.083608,-0.012 0.022578,0 0.029281,0.037 0.029281,0.037 0,0 0.1615722,-0.01 0.2003777,-0.019 0.038806,-0.01 0.040217,-0.041 0.040217,-0.041 l -0.00494,-0.06 -0.013053,-0.015 c 0,0 0.055739,-0.089 0.045861,-0.1478 -0.00953,-0.059 -0.035278,-0.1238 -0.035278,-0.1238 0,0 0.00247,-0.093 -0.00494,-0.1175 -0.00882,-0.024 0.00282,-0.05 0.00282,-0.07 0,-0.02 -0.022931,-0.075 -0.026106,-0.093 -0.00317,-0.018 0.013053,-0.1047 0.013053,-0.1047 0,0 0.086078,-0.12 0.0762,-0.1535 -0.00917,-0.035 0.034572,-0.1291 0.022931,-0.1527 -0.010936,-0.022 -0.027517,-0.083 -0.034219,-0.1105 -0.006,-0.027 -0.00459,-0.047 0.00988,-0.079 0.014817,-0.033 0.014817,-0.075 0.00847,-0.1164 -0.00706,-0.04 -0.00212,-0.048 0.075847,-0.08 0.078317,-0.033 0.2645833,-0.2223 0.2949222,-0.2755 0.031044,-0.054 0.1308806,-0.2315 0.1876778,-0.1066 0.057503,0.126 0.2293055,0.5588 0.2575277,0.6047 0.027164,0.046 0.1979084,0.3693 0.2144889,0.4004 0.016228,0.031 0.1291167,0.1009 0.1432278,0.1238 0.014464,0.022 0.070203,0.1764 0.1188861,0.1856 0.048683,0.01 0.123825,0 0.1464028,0.03 0.023283,0.029 0.1259417,0.133 0.1319389,0.1446 0.00706,0.012 0.024342,0.046 0.021167,0.067 -0.00282,0.022 0.028222,0.029 0.040922,0.033 0.013053,0 0.013053,0.077 0.013053,0.077"
           id="path48436-1-5-6"
           style="stroke-width:0.352778" />
        <path
           d="m 14.126053,1022.8433 v 0 c 0.02858,-0.01 0,0 0,0 m 0.461433,-0.9835 c 0,0 0.02681,0 0.05115,0 0.01976,0 0.02117,-0.042 0.01341,-0.1 -0.03881,0 -0.06879,-0.01 -0.07408,-0.01 -0.0039,0 -0.01411,0 -0.02858,0.01 z m -1.297163,-0.7158 c 0,0 -0.0448,0.011 -0.0575,0.019 -0.0127,0.01 -0.164747,0 -0.182033,-0.01 -0.01729,0 -0.111831,-0.032 -0.113242,-0.041 -0.0018,-0.01 -0.0035,-0.013 -0.01446,-0.022 -0.01129,-0.01 0.0078,-0.053 0.0078,-0.053 l -0.589492,-0.15 -0.0095,0.017 -0.06209,-0.021 c 0,0 0.01129,0.035 0.0014,0.058 -0.0095,0.022 -0.04128,0.03 -0.04128,0.03 0,0 -0.04974,0.3161 -0.06738,0.4188 -0.01729,0.1019 -0.01305,0.2106 0.01305,0.2409 0.02575,0.03 -0.0099,0.046 -0.0099,0.046 l -0.04621,-0.011 c 0,0 -0.01446,-0.01 -0.02716,0 -0.01305,0.01 -0.03387,-0.021 -0.02858,-0.048 0.0046,-0.027 0.07832,-0.4971 0.07832,-0.4971 l -0.155575,0.3419 -0.103364,0.082 -0.02117,-0.092 c 0,0 -0.02011,-0.027 0.0053,-0.027 0.0254,0 0.06209,-0.02 0.06209,-0.02 l 0.2032,-0.4713 c 0,0 -0.0067,-0.019 0.0078,-0.054 0.01446,-0.035 0.04939,-0.03 0.04939,-0.03 l 0.0018,-0.014 -0.05645,-0.017 c 0,0 -0.02999,-0.014 -0.04269,-0.03 -0.01305,-0.016 -0.03845,-0.014 -0.03845,-0.014 l -0.02081,0.011 c 0,0 -0.15487,-0.032 -0.172861,-0.04 -0.01693,-0.01 -0.02681,-0.035 -0.02681,-0.035 0,0 -0.07514,-0.013 -0.09878,-0.015 -0.02434,0 -0.02858,-0.032 -0.02716,-0.043 0.0018,-0.011 0.0127,-0.069 0.03316,-0.06 0.02117,0.01 0.123119,0.038 0.123119,0.038 l 0.0321,-0.011 0.153458,0.027 0.248709,0.025 0.0388,-0.095 0.03492,0.018 c 0,0 -0.01305,0.042 -0.01764,0.059 -0.0046,0.018 0.0085,0.057 0.0321,0.069 0.0046,0 0.0441,0.012 0.105481,0.029 -0.0092,-0.046 -0.02469,-0.1245 -0.02575,-0.1435 -0.0014,-0.027 0.03881,-0.1475 0.03881,-0.1475 h -0.01764 l -0.0067,-0.1072 c 0,0 0.0085,-0.045 -0.0018,-0.094 -0.0095,-0.05 0.0067,-0.07 0.01446,-0.098 0.0085,-0.027 -0.0042,-0.1277 -0.0042,-0.1277 0,0 -0.0085,-0.061 0.0011,-0.075 0.0099,-0.014 0.0063,-0.037 -0.0011,-0.062 -0.0085,-0.025 0.03634,-0.082 0.03634,-0.082 0,0 -0.0095,-0.03 -0.01411,-0.067 -0.0053,-0.036 0.01411,-0.046 0.03634,-0.062 0.02258,-0.016 0.0448,-0.1326 0.04657,-0.1393 0.0014,-0.01 -0.0032,-0.032 0.01411,-0.054 0.01799,-0.022 0.01305,-0.1104 0.0035,-0.1468 -0.0099,-0.037 0.01729,-0.072 0.01729,-0.072 0,0 -0.0254,-0.016 -0.05256,-0.011 -0.02716,0 -0.113241,0.017 -0.134055,0.021 -0.02117,0 -0.118181,0.01 -0.14852,-0.01 -0.03034,-0.016 -0.02752,-0.056 -0.02399,-0.071 0.0028,-0.014 -0.0035,-0.027 -0.01446,-0.045 -0.01164,-0.018 0.0095,-0.024 0.0095,-0.024 l -0.0014,-0.023 c 0,0 -0.02575,-0.024 -0.02893,-0.04 -0.0035,-0.015 -0.0018,-0.033 -0.0321,-0.046 -0.03034,-0.013 -0.01094,-0.029 -0.0011,-0.046 0.0092,-0.018 -0.0071,-0.042 -0.0099,-0.062 -0.0032,-0.021 -0.0032,-0.04 -0.0032,-0.04 l -0.0081,-0.021 -0.03069,-0.035 c 0,0 -0.01446,0 -0.0702,-0.018 -0.05574,-0.012 -0.02822,-0.04 -0.0011,-0.048 0.02681,-0.01 0.0314,-0.024 0.06526,-0.23 0.03351,-0.2064 0.226483,-0.2681 0.535164,-0.2374 0.308328,0.03 0.263172,0.3577 0.264936,0.3817 0.0018,0.024 0.0755,0.1305 0.0755,0.1305 l 0.0046,-0.025 0.138641,0.024 c 0,0 0.01164,0.014 0.07197,0.025 0.06103,0.012 -0.0095,0.021 -0.0095,0.021 0,0 0.148519,0 0.175683,0.01 0.02752,0.01 0.05115,0.013 0.115711,0.023 0.0635,0.01 0.122767,0.036 0.137231,0.046 0.01411,0.01 0.141817,0.081 0.172156,0.096 0.03034,0.014 0.0702,0.029 0.132291,0.085 0.06244,0.056 0.141111,0.081 0.141111,0.081 0,0 0.09207,-0.069 0.108303,-0.069 0.01623,0 0.265642,0.1213 0.265642,0.1213 0,0 0.07161,0.066 0.111477,0.1009 0.04022,0.035 0.01905,0.058 0.04304,0.084 0.02399,0.028 0.138995,0.1312 0.134409,0.1422 -0.0049,0.012 -0.11677,0.2 -0.11677,0.2 0,0 0.171097,0.2314 0.188384,0.2537 0.01764,0.023 0.07373,0.1344 0.07373,0.1344 0,0 0.0095,0.01 -0.02258,0.039 -0.03175,0.03 -0.165805,0.084 -0.165805,0.084 0,0 -0.01623,0.034 -0.0194,0.062 -0.0032,0.029 -0.03351,0.139 -0.06879,0.1679 -0.03493,0.029 -0.06526,0.1087 -0.07796,0.169 -0.0127,0.061 -0.04163,0.062 -0.06279,0.1044 -0.02046,0.041 -0.09066,0.1418 -0.136878,0.1789 -0.01729,0.013 -0.03387,0.034 -0.04833,0.058 l 0.04198,0.078 0.04763,0.012 c 0,0 0.04304,-0.014 0.06738,-0.01 0.02399,0 0.152753,0.024 0.183444,0.029 0.03034,0 0.02399,0.019 0.02399,0.019 0,0 0.06703,0.01 0.08961,0.01 0.02222,0 0.02046,0.025 0.02046,0.025 l 0.08819,0.013 c 0,0 -0.0194,-0.026 0.0078,-0.016 0.02681,0.01 0.118534,0.04 0.149931,0.049 0.0321,0.01 0.04339,0.038 0.06103,0.041 0.01764,0 0.0032,0.038 0.0032,0.038 0,0 0.04022,-0.01 0.07514,0.01 0.03528,0.015 0.02046,0.064 0.02046,0.064 l -0.0095,0.037 c 0,0 0.324556,0.1051 0.445559,0.1228 0.121708,0.018 0.192263,0.021 0.380294,-0.024 0.188383,-0.045 0.126294,0.072 0.08326,0.1213 -0.04304,0.05 -0.05574,0.1535 -0.08008,0.2364 0,0 -0.0046,0.053 -0.03493,0.1439 -0.03034,0.091 -0.06703,0.062 -0.129469,-0.038 -0.06244,-0.1002 -0.117828,-0.088 -0.134056,-0.092 -0.01588,-0.01 -0.05256,-0.011 -0.04304,-0.035 0.0095,-0.024 -0.0127,-0.088 -0.04798,-0.1006 -0.02434,-0.01 -0.09172,-0.031 -0.130527,-0.043 l -0.04551,0.163 -0.05891,-0.01 c 0,0 -0.0064,0.016 -0.01129,0.059 -0.0042,0.043 -0.01588,0.2142 -0.02716,0.278 -0.01094,0.063 -0.106892,0.1725 -0.106892,0.1725 l -0.03669,-0.014 0.01129,-0.013 c 0,0 -0.0575,-0.024 -0.07514,-0.053 -0.01376,-0.023 -0.006,-0.072 0.0071,-0.1358 -0.01446,0.01 -0.03034,0.012 -0.04692,0.017 -0.06738,0.024 -0.08008,-0.01 -0.04621,-0.021 0.03316,-0.014 0.05574,-0.028 0.05574,-0.028 0,0 -0.02716,0.01 -0.06879,0.013 -0.04127,0.01 -0.06844,-0.01 -0.03704,-0.018 0.03246,-0.011 0.06421,-0.029 0.06421,-0.029 0,0 -0.05891,0 -0.08961,0 -0.03034,0 -0.0078,-0.026 0.0099,-0.03 0.01729,-0.01 0.07973,-0.022 0.07973,-0.022 0,0 -0.07973,0 -0.103717,0 -0.02399,-0.01 -0.03528,-0.02 -0.0099,-0.024 0.0254,0 0.09455,-0.021 0.09455,-0.021 0,0 -0.04798,-0.01 -0.09455,-0.013 -0.04657,0 -0.02223,-0.027 -0.0014,-0.029 0.02117,0 0.07796,-0.016 0.07796,-0.016 0,0 -0.07126,-0.018 -0.08925,-0.024 -0.01764,-0.01 -0.03634,-0.027 -0.02364,-0.029 0.0127,0 0.08149,-0.01 0.08149,-0.01 0,0 -0.03845,-0.01 -0.07197,-0.028 -0.03387,-0.02 -0.02575,-0.018 -0.01129,-0.02 0.01446,0 0.0635,0 0.0635,0 0,0 -0.0092,-0.01 -0.0381,-0.019 -0.01305,-0.01 -0.02752,-0.019 -0.03916,-0.031 -0.01482,0 -0.03105,0 -0.04727,0 -0.0049,3e-4 -0.01129,3e-4 -0.01835,3e-4 0.0035,0.023 0.0092,0.046 0.0092,0.046 0,0 0.0032,0.031 -0.0035,0.067 -0.006,0.037 -0.05398,0.042 -0.07303,0.035 -0.0194,-0.01 -0.105481,-0.037 -0.102659,-0.029 0.0032,0.01 -0.0028,0.024 -0.0194,0.024 -0.01552,0 -0.07126,-0.022 -0.09384,-0.031 -0.01411,-0.01 -0.0448,-0.065 -0.06632,-0.1093 -0.03245,0.01 -0.06456,0.015 -0.0822,0.015 -0.04163,0 -0.191911,0.01 -0.226836,0 -0.03528,-0.013 -0.02893,0.026 -0.04163,0.046 -0.0127,0.021 -0.01411,0.04 -0.0081,0.045 0.0067,0 0.03704,0.033 0.03881,0.056 0.0011,0.022 -0.0085,0.042 0.0011,0.042 0.0099,0 0.0081,0.033 0.0081,0.052 0,0.019 0.02575,0.034 0.03845,0.058 0.0127,0.024 0.0063,0.069 0.0063,0.082 0,0.013 0.0194,0.03 0.02399,0.04 0.0046,0.01 0.02399,0.067 0.03351,0.088 0.0095,0.02 0.0049,0.057 0.0049,0.065 0,0.01 0.03492,0.026 0.04304,0.054 0.0078,0.029 0.01305,0.088 0.02716,0.1023 0.01446,0.015 0.0127,0.024 0.0127,0.024 0,0 0.01446,0.086 0.03034,0.1087 0.01623,0.023 0.0049,0.079 0.0049,0.079 l 0.0014,0.086 c 0,0 -0.0014,0.029 -0.04445,0.037 -0.04304,0.01 -0.225425,0.019 -0.225425,0.019 l -0.0014,-0.024 c -0.01164,0 -0.03175,0.01 -0.06562,0.018 -0.121356,0.034 -0.310092,0.072 -0.436387,0.053 0,0 -0.0127,0 -0.09878,-0.014 -0.08643,-0.019 -0.09243,-0.066 -0.09243,-0.066 l 0.01693,-0.027 c 0,0 0.0018,-0.014 0.01446,-0.048 0.01305,-0.033 0.06456,-0.045 0.120297,-0.056 0.05574,-0.011 0.170745,-0.049 0.185209,-0.058 0.01411,-0.01 0.08784,-0.072 0.09878,-0.087 0.01129,-0.016 0.05927,-0.059 0.05927,-0.059 0,0 0,-0.028 0.01129,-0.05 0.01094,-0.022 -0.0127,-0.03 -0.0254,-0.048 -0.0127,-0.017 -0.0067,-0.042 -0.01023,-0.056 -0.0025,-0.014 -0.0314,-0.046 -0.0314,-0.046 0,0 -0.02752,-0.025 -0.04304,-0.072 -0.01623,-0.046 -0.04657,-0.082 -0.06103,-0.1009 -0.01446,-0.018 0.0018,-0.03 0.0018,-0.03 0,0 -0.08502,-0.041 -0.09102,-0.09 -0.0067,-0.048 -0.05256,-0.046 -0.08149,-0.058 -0.02893,-0.011 -0.04657,-0.043 -0.04974,-0.073 -0.0028,-0.031 -0.04304,-0.067 -0.05115,-0.079 -0.0078,-0.011 -0.03492,-0.071 -0.03034,-0.1146 0.0049,-0.045 -0.0381,-0.063 -0.05786,-0.079 -0.0187,-0.016 -0.02364,-0.1115 -0.02787,-0.1549 -0.0053,-0.043 -0.03104,-0.1086 -0.06103,-0.206 -0.0067,-0.02 -0.0035,-0.052 0.0056,-0.09 z m -0.371475,-0.6477 c -0.0085,0 -0.01517,-0.01 -0.01517,-0.018 0,-0.011 0.0085,-0.019 0.01905,-0.019 -7.05e-4,-0.01 -0.0011,-0.015 -0.0014,-0.022 -0.0099,-3e-4 -0.01764,-0.01 -0.01764,-0.019 0,-0.01 0.0085,-0.018 0.01835,-0.018 h 0.0035 c 0.0011,-0.01 0.0021,-0.012 0.0032,-0.021 -0.0063,0 -0.01094,-0.01 -0.01094,-0.018 0,-0.01 0.0074,-0.017 0.01623,-0.019 3.53e-4,-0.01 0.0014,-0.012 0.0025,-0.018 -0.0039,0 -0.0056,-0.01 -0.0056,-0.016 0,-0.01 0.0035,-0.017 0.0092,-0.02 0.0011,-0.01 0.0018,-0.015 0.0021,-0.023 -0.0063,0 -0.01129,-0.012 -0.01129,-0.019 0,-0.01 0.006,-0.018 0.01446,-0.021 v -0.01 c -3.53e-4,0 -0.0011,-4e-4 -0.0018,-4e-4 -0.0127,0 -0.02223,-0.019 -0.02046,-0.036 0.0014,-0.016 0.02046,-0.016 0.02046,-0.016 0,0 -0.0046,-0.01 -0.0127,-0.022 -0.0078,-0.013 0.0067,-0.035 0.0067,-0.035 0,0 -0.01305,-0.01 -0.01623,-0.032 -0.0035,-0.022 0.0095,-0.024 0.0095,-0.024 0,0 -0.02575,-0.013 -0.02223,-0.03 0.0032,-0.018 0.02223,-0.023 0.02223,-0.023 l -0.04163,-0.023 c 0,0 -0.0028,0.013 -0.0078,0.02 -0.0049,0.01 -0.0575,0.1128 -0.04974,0.14 0.0081,0.028 -0.01411,0.061 -0.02575,0.083 -0.01094,0.023 -0.03316,0.1661 -0.04233,0.1951 -0.01023,0.029 -0.04833,0.04 -0.04833,0.04 0,0 0.02081,0.072 0.03034,0.1027 0.0095,0.03 -0.01094,0.036 -0.01094,0.036 0,0 0,0.035 0.0014,0.042 0.0014,0.01 0.0078,0.045 0.0028,0.065 -0.0042,0.021 -0.01411,0.037 -0.02046,0.072 -0.0063,0.035 -0.04163,0 -0.04445,-0.01 -0.0035,-0.011 -0.01305,-0.068 -0.0053,-0.099 0.0081,-0.03 -0.0187,-0.036 -0.0187,-0.036 0,0 -0.06103,0.063 -0.06562,0.073 -0.0032,0.01 0.01094,0.051 0.02011,0.079 0.251177,0.064 0.645583,0.1623 0.779639,0.1958 0.04727,-0.1161 0.103011,-0.2286 0.113947,-0.2551 0.02046,-0.051 -0.05115,-0.065 -0.05115,-0.065 l -0.178858,-0.109 c 0,0 0.0127,-0.053 0.02399,-0.066 0.01094,-0.012 0.121002,-0.1291 0.121002,-0.1291 0,0 -0.09913,-0.043 -0.132291,-0.1058 -0.03351,-0.062 0.01446,-0.1327 0.01446,-0.1327 0,0 0.0127,-0.02 0.0018,-0.043 -0.01164,-0.022 -0.109008,-0.073 -0.148872,-0.093 -0.04022,-0.019 -0.05574,-0.063 -0.13723,-0.1115 -0.08184,-0.048 -0.0702,-0.028 -0.0702,-0.028 0,0 0.0011,0.01 0.0011,0.02 0,0.011 -0.0127,0.027 -0.0127,0.027 0,0 0.02434,0.01 0.03069,0.023 0.0063,0.016 -0.0064,0.032 -0.0064,0.032 0,0 0.01764,0.018 0.02081,0.029 0.0028,0.011 -0.0067,0.03 -0.0067,0.03 0,0 0.01129,0.013 0.01305,0.029 0.0018,0.016 -0.01623,0.031 -0.01623,0.031 0,0 0.0127,0.011 0.0127,0.03 0,0.02 -0.01411,0.024 -0.01411,0.024 0,0 0.02399,0.01 0.02858,0.024 0.0053,0.014 -0.0254,0.03 -0.0254,0.03 0,0 0.01446,0 0.01446,0.021 0,0.013 -0.01305,0.026 -0.02575,0.03 v 0 c 0.01199,7e-4 0.02081,0.011 0.02081,0.023 0,0.012 -0.0099,0.022 -0.02258,0.022 h -0.0014 c -3.53e-4,0.01 -7.06e-4,0.012 -0.0014,0.018 0.0085,0 0.01587,0.011 0.01587,0.023 0,0.012 -0.0078,0.022 -0.01764,0.022 -0.0011,0 -0.0025,-3e-4 -0.0035,-3e-4 l -0.0014,0.013 c 0.0074,0 0.01305,0.01 0.01305,0.018 0,0.01 -0.0081,0.019 -0.01835,0.019 -0.0014,0.01 -0.0028,0.018 -0.0039,0.024 0.0039,0 0.0064,0.01 0.0064,0.013 0,0.01 -0.0042,0.013 -0.01023,0.017 3.53e-4,0.01 0.0011,0.019 0.0018,0.028 0.0049,0 0.0085,0.01 0.0085,0.015 0,0.01 -0.0042,0.013 -0.0099,0.016 l -3.53e-4,7e-4 c -0.0018,0 -0.0071,0.012 -0.0127,0.018 0.0071,0.01 0.02222,0.022 0.01976,0.031 -0.0035,0.011 -0.03069,0.011 -0.03069,0.011 0,0 0.0063,0.019 0,0.031 -0.0063,0.011 -0.0321,0 -0.0321,0 0,0 0.01164,0.029 0.0018,0.039 -0.0099,0.01 -0.03669,0 -0.04304,0 -0.0063,-0.01 -0.02752,-0.032 -0.02858,-0.039 -0.0018,-0.01 -0.03034,-0.036 -0.0194,-0.042 0.01129,-0.01 0.05115,0.019 0.05115,0.019 0,0 -0.01129,-0.019 -0.01411,-0.028 -0.0035,-0.01 -0.0127,-0.017 0.0028,-0.016 0.01587,0 0.02575,0.01 0.03669,0.011 0.01164,0 0.0085,-0.011 0.0032,-0.022 -0.0046,-0.011 0,-0.017 0.0095,-0.016 0.0074,0 0.02646,0.011 0.03563,0.014 0.0035,0 0.0064,-0.01 0.0085,-0.012"
           id="path171058-7-4-3"
           style="stroke-width:0.352778" />
        <path
           d="m 0.19005067,1020.0758 c 0.0201083,-0.023 0.0370417,-0.1076 0.0370417,-0.1076 0,0 -0.0169333,-0.062 -0.0483305,-0.057 -0.0313972,0.01 -0.15910278,0.01 -0.17568333,-0.034 -0.01728611,-0.042 -0.02575278,-0.091 -0.02575278,-0.091 l -0.2014361,-0.031 c 0,0 0.0627944,0.063 0.0627944,0.088 0,0.025 0,0.04 0.0254,0.068 0.0254,0.029 0.0762,0.049 0.09031111,0.085 0.01411111,0.037 0.04268611,0.1362 0.04268611,0.1362 l 0.12170833,0.068 c 0.028575,-0.053 0.0515055,-0.1019 0.0712611,-0.1245 m -1.48378331,-0.363 c -0.011289,0.073 0.048683,0.073 0.1732139,0.093 0.1118305,0.018 0.29527499,-0.046 0.36371387,-0.078 l -0.003528,-7e-4 c -0.0564444,-0.027 -0.11641666,-0.08 -0.11641666,-0.08 0,0 -0.32878891,-0.037 -0.35171941,-0.048 -0.011642,-0.01 -0.046214,-0.013 -0.0762,-0.019 0.013053,0.03 0.01905,0.082 0.010936,0.133 m 2.11631383,2.1928 c -0.0627944,-0.043 -0.0310445,-0.1703 -0.028575,-0.2187 0.003175,-0.048 -0.0765528,-0.037 -0.11888611,-0.034 -0.0426861,0 -0.10795,0.017 -0.15310555,-0.017 -0.0455083,-0.034 -0.25788055,-0.028 -0.25788055,-0.028 0,0 -0.003175,0.048 -0.0232833,0.06 -0.0194028,0.011 -0.0338667,0.022 -0.0194028,0.059 0.0141111,0.037 -0.0112889,0.093 -0.0232833,0.1189 -0.0109361,0.026 -0.0165806,0.034 -0.008114,0.06 0.008114,0.026 -0.0567972,0.073 -0.11077222,0.088 -0.053975,0.014 -0.02257778,0.2127 -0.0081139,0.2833 0.01411111,0.071 -0.06279444,0.1735 -0.06279444,0.1735 0,0 0.02010833,0.062 0.02822222,0.082 0.0091722,0.019 0.0059972,0.187 0.02010833,0.2438 0.01446389,0.056 -0.01411111,0.06 -0.01411111,0.06 0,0 -0.01411111,0.065 -0.03952875,0.074 -0.02575278,0.01 -0.2159,-0.01 -0.2159,-0.01 l -0.002822,-0.051 c 0,0 -0.14181666,0.031 -0.26387777,0.059 -0.12204347,0.029 -0.37992402,-0.01 -0.44801013,-0.018 -0.0680861,-0.011 -0.0881944,-0.028 -0.0881944,-0.028 l 0.0201083,-0.02 c 0,0 -0.0370417,-0.085 -0.008467,-0.1104 0.0282223,-0.025 0.28328131,-0.043 0.34325354,-0.046 0.0592667,0 0.0821972,-0.04 0.11041944,-0.054 0.028575,-0.014 0.2014361,-0.1873 0.2014361,-0.1873 0,0 -0.0197556,-0.034 -0.0310444,-0.051 -0.0112889,-0.018 -0.005644,-0.043 0.008467,-0.068 0.0141111,-0.026 -0.002822,-0.116 -0.008467,-0.1305 -0.005644,-0.014 -0.005644,-0.062 0.002469,-0.1136 0.008819,-0.051 0,-0.1757 0,-0.1757 0,0 -0.0282222,-0.051 -0.0592667,-0.085 -0.0310444,-0.034 -0.0254,-0.108 -0.002822,-0.1446 0.0225778,-0.037 -0.0112889,-0.1447 -0.0112889,-0.1842 0,-0.04 0.0567972,-0.199 0.0596194,-0.2244 0.002469,-0.025 0.002469,-0.1361 0.0451556,-0.2638 0.0426861,-0.1277 0.22436666,-0.1302 0.31467777,-0.1503 0.09101666,-0.019 0.02257777,-0.057 -0.03104445,-0.1161 -0.053975,-0.06 -0.15028333,-0.2102 -0.16721666,-0.2441 -0.0172861,-0.034 0.008467,-0.099 -0.0656167,-0.1418 -0.0733778,-0.042 -0.0680861,-0.093 -0.0564445,-0.1217 0.0116417,-0.029 0.0821972,-0.108 0.053975,-0.1732 -0.0282222,-0.065 -0.0656167,-0.1133 -0.0656167,-0.1133 0,0 -0.13899445,-0.074 -0.17568333,-0.1136 -0.0264583,-0.029 -0.0994833,-0.057 -0.15910278,-0.08 -0.0772583,0.03 -0.24800277,0.094 -0.37429773,0.1083 -0.1672166,0.02 -0.2638778,-0.056 -0.2892777,-0.091 -0.0254,-0.034 -0.028222,-0.097 -0.028222,-0.1298 0,-0.022 0.01517,-0.051 0.032808,-0.068 l -0.2991556,-0.04 c 0,0 -0.039864,0.017 -0.076905,0.011 -0.036689,-0.01 -0.093486,-0.02 -0.093486,-0.02 0,0 -0.1051278,-0.011 -0.1220613,-0.014 -0.017286,0 -0.022578,-0.023 -0.022578,-0.023 0,0 -0.1502836,0 -0.1873251,-0.011 -0.037042,-0.01 -0.039864,-0.031 -0.039864,-0.031 0,0 -0.1386417,-0.014 -0.1583972,-0.017 -0.020108,0 -0.017286,-0.068 0.00811,-0.068 0.0254,0 0.034572,0 0.034572,0 0,0 0.00247,-0.054 0.022225,-0.054 0.020108,0 0.076906,0.01 0.1107722,0.01 0.033867,0 0.006,0.068 0.006,0.068 l 0.3171472,0.026 c 0,0 0.028222,-0.01 0.045508,-0.011 0.017286,-0.01 0.1135944,0.014 0.1135944,0.014 l 0.0508,0.01 0.2384778,0.01 c 0,0 0.079375,-0.011 0.09913,-0.011 0.019756,0 0.051153,0.025 0.051153,0.025 h 0.71472856 l 0.0370417,0.031 0.15310555,0.01 c 0,0 0.0511528,-0.017 0.0709083,-0.014 0.0197556,0 0.0624417,0.012 0.0624417,0.012 l 0.15028333,0.011 c 0,0 0.03951111,-0.017 0.05997222,-0.017 0.01940278,0 0.0508,0.031 0.0508,0.031 l 0.11041944,0.01 c 0,0 0.0599722,-0.02 0.10795,-0.017 0.0479778,0 0.0680861,0.1 0.0680861,0.1 0,0 0.0169333,0.01 0.0423333,0.011 0.0254,0 0.10230555,0.054 0.10230555,0.054 0,0 -0.0112889,-0.082 -0.0229305,-0.1249 -0.0112889,-0.042 0.003175,-0.065 0.003175,-0.065 l -0.0423333,-0.074 c 0,0 -0.0430389,-0.012 -0.0624417,-0.019 -0.0201083,-0.01 -0.0172861,-0.034 -0.0172861,-0.034 0,0 0.0906639,-0.1729 0.13052777,-0.2466 0.0395111,-0.074 0.10512778,-0.2325 0.43391666,-0.1955 0.32914082,0.037 0.32631862,0.3458 0.34042972,0.4167 0.014111,0.071 0.014111,0.1248 0.025753,0.1079 0.010936,-0.017 0.056797,-0.031 0.093486,-0.026 0.036336,0.01 0.2180166,0.176 0.2663472,0.2074 0.048331,0.031 0.020108,0.071 0.028928,0.082 0.00811,0.011 0.1217083,0.1249 0.1471083,0.1874 0.0254,0.062 0.00529,0.3489 -0.00282,0.4254 -0.00847,0.077 -0.091017,0.1958 -0.096661,0.2328 -0.00564,0.037 0.036689,0.139 0.036689,0.139 0,0 0.1449916,0.01 0.2218972,0.031 0.076553,0.025 0.022225,0.1958 0.022225,0.1958 0,0 -0.022225,0.1189 -0.027869,0.1697 -0.006,0.051 0.027869,0.043 0.014111,0.267 -0.014111,0.2244 -0.1876777,0.2554 -0.1876777,0.2554 0,0 0,0.065 0.006,0.1193 0.00564,0.054 -0.00847,0.2519 -0.00847,0.2519 l -0.079728,0.012 -0.070908,0.2582 0.3520722,-0.088 c 0,0 0.1471084,-0.018 0.2070806,-0.037 0.059267,-0.02 0.096308,0.019 0.096308,0.019 0,0 0.065264,0 0.08502,0.023 0.020108,0.02 0.033867,0.2155 0.033867,0.2155 0,0 -0.039511,0.014 -0.013758,0.068 0.0254,0.054 -0.00882,0.2667 -0.042686,0.3291 -0.034219,0.062 -0.079375,0.062 -0.2465917,0.071 -0.1679222,0.01 -0.079728,-0.2018 -0.076553,-0.2127 0.00247,-0.012 0.051153,-0.074 0.033867,-0.1136 -0.017286,-0.04 -0.039511,-0.017 -0.065264,-0.01 -0.0254,0.01 -0.068086,0.054 -0.1051278,0.1044 -0.037042,0.052 -0.070908,0.04 -0.070908,0.04 0,0 -0.2159,0.1333 -0.3319639,0.1816 -0.1164166,0.048 -0.320675,0.077 -0.4113389,0 -0.0906622,-0.077 -0.170038,-0.7295 -0.17568244,-0.8628 0,0 -0.005997,0 -0.0680861,-0.045"
           id="path171062-1-1-6"
           style="stroke-width:0.352778" />
        <path
           d="m 9.4422227,1020.0122 -0.076553,-0.032 0.058208,0.1118 z m 1.5698613,1.9152 c -0.05045,-0.034 -0.100542,-0.1118 -0.127353,-0.1541 -0.02646,-0.042 -0.143581,-0.069 -0.167217,-0.1994 -0.02399,-0.1305 -0.06632,-0.1379 -0.09313,-0.1778 -0.02646,-0.04 -0.164747,-0.2734 -0.185914,-0.3161 -0.02117,-0.043 -0.218017,-0.364 -0.218017,-0.364 0,0 -0.01305,0.01 -0.05821,0.072 -0.04516,0.064 -0.06385,0.1834 -0.09596,0.2766 -0.0314,0.093 -0.02646,0.1118 -0.01023,0.1249 0.01587,0.013 0.06103,0.058 0.06632,0.1037 0.0053,0.045 0.02117,0.1164 0.05574,0.1376 0.03492,0.022 0.05327,0.088 0.09031,0.1199 0.0374,0.032 0.01835,0.1118 0.01835,0.1432 0,0.032 0.07197,0.1171 0.09349,0.1277 0.02117,0.011 0.05821,0.085 0.07937,0.098 0.02152,0.013 0.106539,0.1358 0.106539,0.1358 0,0 0.08502,0.09 0.116416,0.1246 0.0321,0.034 0.04551,0.019 0.04551,0.019 0,0 0.02928,0.024 0.0956,0.098 0.06632,0.075 -0.02681,0.2127 -0.02681,0.2127 l -0.0261,-0.019 c 0,0 -0.02963,0.1196 -0.05045,0.1595 -0.02152,0.04 -0.0508,0.1274 -0.132998,0.2152 -0.08255,0.087 -0.201789,0.045 -0.201789,0.045 l -0.01658,-0.029 c 0,0 -0.03669,-0.01 -0.04727,-0.064 -0.01058,-0.058 0.05574,-0.1379 0.08255,-0.1884 0.02646,-0.05 -0.0081,-0.2868 -0.0056,-0.3132 0.0028,-0.027 -0.109008,-0.099 -0.119239,-0.12 -0.01094,-0.021 -0.08008,-0.1009 -0.08008,-0.1009 0,0 -0.100895,-0.034 -0.154164,-0.1189 -0.052917,-0.085 -0.1802695,-0.088 -0.2257779,-0.096 -0.044803,-0.01 -0.1086555,-0.067 -0.1245305,-0.1087 -0.015875,-0.043 -0.1305278,-0.1756 -0.2021417,-0.2631 -0.071261,-0.088 -0.074083,-0.2978 -0.084314,-0.3853 -0.011289,-0.088 -0.013758,-0.5231 -0.013758,-0.5231 l -0.044803,-0.016 0.031397,-0.2208 -0.2017889,-0.3503 c 0,0 -0.034572,0.034 -0.056092,0.029 -0.021167,-0.01 -0.021167,-0.01 -0.033867,-0.01 -0.013405,0 -0.029633,0.018 -0.045508,0.015 -0.016228,0 -0.034219,-0.021 -0.047625,-0.021 -0.013053,0 -0.034925,0.013 -0.048331,0.01 -0.0127,-0.01 -0.047272,-0.016 -0.047272,-0.016 0,0 -0.045155,0 -0.064205,-0.016 -0.018344,-0.016 -0.023636,-0.048 -0.023636,-0.048 l -0.1305278,0.061 -0.039511,0.069 -0.14605,-0.027 -0.1008945,0.059 -0.032103,-0.08 0.050447,-0.021 c 0,0 -0.050447,-0.1086 -0.00247,-0.1221 0.047978,-0.013 0.1008945,0.071 0.1008945,0.071 0,0 0.2310694,-0.093 0.2233083,-0.1086 -0.00811,-0.016 0.013053,-0.032 0.03175,-0.066 0.018697,-0.035 0.037394,-0.064 0.037394,-0.064 0,0 -0.016228,-0.046 -0.016228,-0.072 0,-0.027 0.08255,-0.061 0.1061861,-0.093 0.023636,-0.032 0.00282,-0.069 0.010936,-0.088 0.00776,-0.019 0.03175,-0.021 0.045156,-0.034 0.013053,-0.013 0.015875,-0.074 0.034219,-0.093 0.018697,-0.019 0.0508,-0.042 0.047978,-0.056 -0.00282,-0.013 -0.026458,-0.029 -0.021167,-0.056 0.00529,-0.027 0.039864,-0.1225 0.047625,-0.1726 0.00776,-0.051 0.013053,-0.1305 0.00564,-0.1728 -0.00847,-0.042 0.04198,-0.1115 0.055386,-0.1489 0.013758,-0.037 0.047625,-0.2554 0.058561,-0.2893 0.010583,-0.034 0.1248833,-0.1725 0.1248833,-0.1725 0,0 -0.021167,0 -0.042686,-0.01 -0.021167,-0.01 -0.042333,-0.058 -0.058561,-0.098 -0.015522,-0.039 -0.036689,-0.1061 -0.047625,-0.127 -0.010583,-0.021 -0.045156,-0.104 -0.045156,-0.104 0,0 -0.039511,-0.021 -0.047625,-0.053 -0.00811,-0.032 -0.021519,-0.016 -0.039864,-0.024 -0.018697,-0.01 -0.063853,-0.024 -0.063853,-0.024 0,0 0.00529,-0.1806 0.1171222,-0.364 0.1114778,-0.1831 0.2441222,-0.1591 0.4674305,-0.1648 0.2226028,-0.01 0.307975,0.3588 0.307975,0.3588 0,0 0.039511,0.026 0.052917,0.061 0.013406,0.035 0.00564,0.087 0.00564,0.087 h 0.039511 c 0.01905,0 0.1167704,0.016 0.1541644,0.061 0.03704,0.045 0.111478,0.053 0.175683,0.082 0.0635,0.03 0.02646,0.1034 0.03951,0.109 0.01341,0 0.05574,0.013 0.101248,0.021 0.0448,0.01 0.148519,0.096 0.201789,0.1411 0.05327,0.045 0.05327,0.09 0.0635,0.1115 0.01094,0.021 0.148872,0.1778 0.170038,0.212 0.02117,0.035 0.141112,0.1968 0.156634,0.2448 0.01587,0.048 0.04515,0.1037 0.07973,0.146 0.03457,0.042 0.02399,0.095 -0.02399,0.2255 -0.04763,0.1309 -0.04763,0.133 -0.08996,0.1862 -0.04269,0.053 -0.17533,0.2202 -0.17533,0.2202 0,0 0.07973,-0.029 0.151694,-0.042 0.07126,-0.013 0.111478,0.1567 0.116417,0.2018 0.0053,0.046 0.08537,0.1623 0.119592,0.3006 0.03457,0.1379 -0.07973,0.1834 -0.07973,0.1834 0,0 0.01587,0.058 0.01587,0.1034 0,0.045 -0.04233,0.082 -0.04233,0.082 0,0 0.0078,0.048 -0.0049,0.075 -0.01341,0.026 -0.06174,0.015 -0.06174,0.015 0,0 0.01905,0.1697 0.04516,0.2156 0.02681,0.045 0.109008,0.2603 0.119592,0.3527 0.01058,0.093 0.04551,0.181 0.114652,0.2233 0.06879,0.042 0.0635,0.087 0.07373,0.1489 0.01058,0.061 0.01905,0.1351 0.05115,0.1616 0.0314,0.026 0.04198,0.064 0.03951,0.133 -0.0028,0.069 0.01588,0.098 0.05327,0.122 0.03704,0.024 0.04763,0.1383 0.05327,0.1733 0.0049,0.034 0.03175,0.1538 0.08502,0.1986 0.05292,0.045 0.03986,0.1277 0.03986,0.1277 0,0 0.06068,0.1093 0.07938,0.1302 0.0187,0.022 0.0187,0.077 0.0187,0.098 0,0.021 0.02364,0.085 0.02364,0.085 l -0.07937,0.082 c 0,0 -0.09349,0.075 -0.159455,0.088 -0.06632,0.013 -0.201789,-0.027 -0.201789,-0.027 l 0.01023,-0.029 c 0,0 -0.01023,-0.011 0,-0.066 0.01094,-0.056 0.04269,-0.093 0.05856,-0.1274 0.01588,-0.035 0.0028,-0.1679 0.0028,-0.1679 l -0.02364,-0.015 c 0,0 -0.05115,-0.088 -0.09349,-0.1387 -0.04233,-0.05 -0.153811,-0.1668 -0.220486,-0.2705 0,0 -0.04516,-0.034 -0.0956,-0.069"
           id="path171066-7-9-4"
           style="stroke-width:0.352778" />
        <path
           d="m 7.2631497,1022.1685 c -0.00247,0.038 0.021872,0.2008 0.025047,0.2145 0.00247,0.013 0.065617,-0.074 0.076906,-0.1016 0.010936,-0.027 0.029633,-0.069 0.035278,-0.093 0.00564,-0.025 0,-0.068 0.00564,-0.085 0.00529,-0.017 -0.1594555,-0.157 -0.1594555,-0.157 0.00882,0.058 0.019756,0.1845 0.01658,0.2222 m -1.1768666,-2.8197 c -0.00564,-0.038 0.010936,-0.085 0.038453,-0.088 0.027517,0 0.049742,0.01 0.055033,-0.011 0.00529,-0.019 -0.032808,-0.1344 -0.032808,-0.1344 0,0 -0.1485194,0.1676 -0.1785055,0.1894 -0.029986,0.022 -0.1562806,0.085 -0.180975,0.085 -0.024342,0 -0.1319389,-0.024 -0.1538111,-0.076 -0.021872,-0.052 -0.024694,-0.077 -0.046567,-0.1263 -0.021872,-0.05 -0.029986,-0.079 -0.016228,-0.1098 0.013758,-0.03 0.010936,-0.063 0.00811,-0.079 -0.00282,-0.017 0,-0.077 0.016581,-0.096 0.016228,-0.019 -0.00564,-0.025 -0.00847,-0.058 -0.00247,-0.033 -0.03563,-0.052 0.010936,-0.1045 0.046567,-0.052 0.079728,-0.1315 0.079728,-0.1315 l -0.033161,-0.038 c 0,0 -0.030339,-0.02 -0.049036,-0.036 -0.019403,-0.016 -0.046919,-0.044 -0.049742,-0.074 -0.00247,-0.03 -0.00247,-0.099 -0.00247,-0.099 l -0.049742,-0.021 c 0,0 -0.057503,0.1531 -0.068439,0.1831 -0.010936,0.031 -0.057856,0.082 -0.059972,0.1432 -0.00282,0.06 -0.035983,0.1725 0.029633,0.362 0.066322,0.1894 0.0635,0.2688 0.1097139,0.3072 0.04692,0.038 0.1291167,0.074 0.1950861,0.088 0.065617,0.013 0.2659945,0.052 0.3376084,0.099 0.070908,0.047 0.085019,0.041 0.085019,0.041 -0.019403,-0.063 -0.030339,-0.1757 -0.035983,-0.2138 m 0.8205611,2.782 c -0.00564,-0.063 -0.085372,-0.2498 -0.093133,-0.2745 -0.00847,-0.025 -0.00564,-0.044 -0.00564,-0.058 0,-0.014 -0.1400528,-0.1535 -0.1591028,-0.1891 -0.019403,-0.036 -0.022225,-0.1866 -0.030339,-0.2498 -0.00811,-0.063 -0.05468,-0.1125 -0.079728,-0.1397 -0.024342,-0.028 -0.060325,-0.2035 -0.060325,-0.2307 0,-0.028 -0.1178277,-0.532 -0.1344083,-0.5429 -0.01658,-0.011 -0.049036,-0.017 -0.087842,-0.019 -0.038453,0 -0.040922,-0.017 -0.040922,-0.017 v -0.052 l -0.057503,-0.017 c 0,0 -0.033161,-0.1041 0.030339,-0.1944 0.062794,-0.09 0.1008945,-0.4473 0.1008945,-0.4473 0,0 -0.1919111,-0.093 -0.3234972,-0.1482 -0.1315861,-0.055 -0.3757084,-0.104 -0.403225,-0.1097 -0.027517,-0.01 -0.1538111,-0.14 -0.1753306,-0.2226 -0.021872,-0.082 -0.123825,-0.3919 -0.1266472,-0.4604 -0.00282,-0.069 0.099131,-0.2963 0.1344083,-0.3951 0.035983,-0.099 0.025047,-0.093 0.025047,-0.093 l -0.22225,-0.1259 h -0.033161 l -0.029986,-0.02 -0.043744,-0.035 -0.046919,-0.02 -0.00282,-0.03 -0.2931583,-0.1454 0.013758,-0.03 0.1806223,0.091 0.00847,-0.019 -0.1781528,-0.09 -0.046919,-0.011 -0.049389,-0.042 -0.060325,-0.03 0.035983,-0.049 0.029986,0.016 0.024694,-0.044 0.1150056,0.063 -0.016228,0.049 0.2853972,0.1404 0.043744,0.017 0.00529,0.019 0.057856,0.025 h 0.01905 l 0.032808,0.016 0.00811,0.022 0.4504972,0.2 0.2441222,0.1207 0.059972,-0.055 c 0.030339,-0.028 0.041275,-0.03 0.060678,-0.082 0.01905,-0.052 0.1262945,-0.096 0.1397,-0.1094 0.013758,-0.014 0.00811,-0.049 -0.01658,-0.1125 -0.024342,-0.063 -0.040922,-0.1676 -0.040922,-0.1676 0,0 -0.063147,-0.019 -0.079728,-0.039 -0.016581,-0.019 -0.016581,-0.041 -0.076906,-0.098 -0.059972,-0.058 0.033161,-0.1344 0.0635,-0.1757 0.029986,-0.041 0.051858,-0.1534 0.085019,-0.2085 0.032808,-0.055 0.1534584,-0.1044 0.3838223,-0.082 0.2303638,0.022 0.2688166,0.1207 0.2797527,0.1814 0.010936,0.06 0.060678,0.3312 0.096308,0.3944 0.035278,0.063 0.00564,0.055 -0.027517,0.055 -0.032808,0 -0.096308,-0.011 -0.096308,-0.011 0,0 -0.00776,0.01 -0.027164,0.036 -0.019403,0.03 -0.00811,0.052 0.00529,0.06 0.014111,0.01 0.04692,-0.01 0.1125361,-0.027 0.066322,-0.019 0.1287639,0.046 0.1591028,0.066 0.030339,0.019 0.085372,0.011 0.1072445,0.014 0.021872,0 0.1287638,0.099 0.1340555,0.132 0.00564,0.033 0.049742,0.052 0.065617,0.074 0.016581,0.021 0.049742,0.032 0.085372,0.063 0.035983,0.03 0.027517,0.1153 0.0635,0.1315 0.035278,0.017 0.1834444,0.2664 0.2328333,0.2936 0.049389,0.028 0.049389,0.085 0.065969,0.1481 0.01658,0.063 0.090311,0.1207 0.1153583,0.1732 0.024342,0.052 0.013053,0.1478 -0.016228,0.2219 -0.030692,0.074 -0.1675694,0.1291 -0.2144889,0.1397 -0.046214,0.011 -0.1591027,0.063 -0.1591027,0.063 l 0.0635,0.058 -0.032808,0.068 c 0,0 0.1040695,-0.027 0.1393473,-0.03 0.035983,0 0.049389,0.057 0.063147,0.1066 0.013758,0.049 0.027517,0.2413 0.057855,0.3923 0.029633,0.151 -0.1100666,0.2363 -0.1100666,0.2363 0,0 -0.00247,0.03 0,0.041 0.00282,0.011 -0.029986,0.066 -0.051858,0.088 -0.021872,0.022 -0.0635,-0.01 -0.0635,-0.01 0,0 0.010936,0.036 -0.016228,0.06 -0.027517,0.025 -0.1234723,0.036 -0.1234723,0.036 0,0 -0.00811,0.032 -0.00811,0.044 0,0.011 -0.065617,0.1097 -0.071261,0.1288 -0.00564,0.019 0.032808,0.1069 -0.00847,0.2085 -0.040922,0.1019 -0.1097139,0.1809 -0.1210028,0.1947 -0.010583,0.014 -0.032456,0.1072 -0.032456,0.1072 0,0 0.052211,0.088 0.030339,0.1288 -0.021872,0.041 -0.016228,0.098 -0.016228,0.098 0,0 0.1202972,0.1073 0.1830916,0.2198 0.0635,0.1122 0.1266472,0.09 0.1837972,0.1178 0.058208,0.027 0.030692,0.077 0.030692,0.077 0,0 0.065617,0.033 0.117475,0.063 0.052211,0.03 0.0635,0.1093 0.0635,0.1093 0,0 0.021872,0.039 0.041275,0.075 0.018697,0.036 -0.077258,0.1644 -0.077258,0.1644 h -0.049389 c 0,0 -0.00564,0.069 -0.00247,0.093 0.00247,0.025 -0.063147,0.189 -0.1128889,0.2469 -0.049036,0.058 -0.1397,0.06 -0.2465916,0.058 -0.1072445,0 -0.041981,-7e-4 -0.1016,0.1093 -0.054681,0.102 -0.1591028,0.1891 -0.3563056,0.1891 -0.1979083,0 -0.043744,-0.1781 0.046214,-0.3066 0.090664,-0.1294 0.019403,-0.1763 0.013758,-0.2772 0,0 -0.032456,-0.1429 -0.0381,-0.2057"
           id="path171070-1-6-3"
           style="stroke-width:0.352778" />
      </g>
      <path
         d="m 7.6098988,1026.2442 0.52035,0.03 0.0487,0.1146 -0.16439,0.3115 h 0.8322 l 0.0734,-0.012 0.0945,-0.045 0.11042,-0.078 0.0737,-0.033 0.0568,-0.012 0.0374,0.01 0.0162,0.029 v 0.033 l -0.0247,0.033 -0.0367,0.037 -0.0166,0.041 -0.0162,0.053 -0.004,0.086 0.024,0.07 0.004,0.049 0.005,0.037 -0.0367,0.01 -0.0452,-0.012 -0.2868,-0.1023 h -0.40111 l -0.18486,0.082 0.0988,0.1764 -0.16016,0.1065 -0.0409,-0.164 h -0.0938 l -0.34431,0.1097 -0.0938,0.1767 5.3315302,-0.041 0.21837,0.4654 0.81844,-0.3818 0.22613,0.4851 0.055,-0.026 0.0649,0.1394 -0.0554,0.026 0.10372,0.2222 -0.10972,0.051 0.036,0.077 0.10512,-0.049 0.20708,0.4449 0.0579,-0.027 0.0649,0.139 -0.0578,0.027 0.12276,0.2621 -0.11148,0.052 0.031,0.067 -0.139,0.065 -0.031,-0.067 -0.55845,0.2603 0.15558,0.3306 0.0607,-0.027 0.10971,0.2469 -0.0557,0.025 0.32738,0.6978 0.0243,0.2783 h -0.43356 l 0.0166,0.5162 h -0.0656 l -0.0332,-0.4177 -0.48683,0.054 0.0596,0.032 -10e-4,0.1845 -0.0797,0.037 h -0.1076 c -0.006,0.096 -0.0191,0.1823 -0.0374,0.261 l 0.13089,0.1087 0.0413,0.086 -0.10971,0.1481 -0.0857,-0.017 -0.0741,-0.059 c -0.06,0.1154 -0.13547,0.2057 -0.21872,0.278 l 0.0332,0.1051 -0.0127,0.095 -0.17251,0.065 -0.0628,-0.061 -0.0173,-0.05 c -0.0713,0.036 -0.14288,0.064 -0.21167,0.087 l -0.0649,0.021 0.0127,0.067 -0.024,0.092 -0.17921,0.043 -0.0547,-0.069 -0.0127,-0.06 c -0.078,0.021 -0.16157,0.042 -0.248,0.063 l 0.006,0.052 -0.0303,0.09 -0.18169,0.031 -0.0501,-0.072 -0.005,-0.038 c -0.0773,0.018 -0.15311,0.035 -0.22648,0.051 l 0.002,0.079 -0.0377,0.088 -0.18415,0.014 -0.0437,-0.076 -0.002,-0.051 c -0.10725,0.02 -0.19615,0.035 -0.254,0.041 l 10e-4,0.072 -0.0378,0.087 -0.1838,0.015 -0.0434,-0.076 -0.005,-0.091 h -0.32597 l -0.001,0.1323 -0.0409,0.086 -0.18415,0.01 -0.0406,-0.078 -0.002,-0.1471 h -0.27164 l -10e-4,0.1249 -0.0413,0.086 -0.1838,0.01 -0.0409,-0.078 -0.002,-0.1404 -0.27129,10e-4 -10e-4,0.1351 -0.0409,0.086 -0.18451,0.01 -0.0406,-0.078 -0.002,-0.1506 -0.23037,7e-4 -0.001,0.121 -0.0409,0.086 -0.1845,0.01 -0.0409,-0.078 -10e-4,-0.1369 -0.28822,7e-4 -7.1e-4,0.1034 -0.0413,0.086 -0.18451,0.01 -0.0409,-0.078 -0.001,-0.1193 -0.25576,8e-4 -10e-4,0.098 -0.0409,0.086 -0.18415,0.01 -0.0409,-0.078 -0.001,-0.1147 h -0.3295 l -7e-4,0.1023 -0.0409,0.086 -0.1845,0.01 -0.0409,-0.078 -0.001,-0.1231 c -0.0826,0 -0.1651,-0.01 -0.24765,-0.01 l -7.1e-4,0.079 -0.0409,0.086 -0.1845,0.01 -0.0409,-0.078 -0.001,-0.1087 -0.24306,-0.014 -7.1e-4,0.061 -0.0409,0.086 -0.18415,0.01 -0.0409,-0.078 -0.001,-0.094 -0.31468,-0.02 -0.007,0.072 -0.0476,0.082 -0.18485,-0.01 -0.0339,-0.081 0.006,-0.083 -0.19297,-0.012 c -0.0547,0 -0.10795,-0.01 -0.1591,-0.014 l -0.0152,0.058 -0.0607,0.073 -0.18027,-0.037 -0.0212,-0.085 0.0141,-0.061 c -0.12841,-0.036 -0.24342,-0.088 -0.34537,-0.1615 l -0.0198,0.021 -0.0882,0.036 -0.14217,-0.1171 0.0215,-0.085 0.036,-0.041 c -0.054,-0.068 -0.10195,-0.1472 -0.14464,-0.2375 l -0.70732,0.027 -0.0247,-0.2293 -1.08303,0.037 c -0.061,0.6975 -0.64664,1.2446 -1.35996008,1.2446 -0.6537,0 -1.1998,-0.4589 -1.33385,-1.0724 -0.043,0.011 -0.0875,0.016 -0.1337,0.016 -0.31221,0 -0.56514992,-0.2533 -0.56514992,-0.5652 0,-0.067 0.0116,-0.1319 0.0332,-0.1915 l 0.23282992,-1.3522 0.008,-0.7782 0.39299,0.01 0.4258,-0.062 v -0.188 h -0.0328 v -0.1513 h 0.0328 v -0.3239 c -0.0596,0 -0.10653,-0.054 -0.10653,-0.1143 0,-0.063 0.0515,-0.1146 0.11465,-0.1146 0.0635,0 0.11465,0.051 0.11465,0.1146 0,0.041 -0.0212,0.077 -0.0529,0.097 v 0.3415 h 0.078 c 0.005,-0.1746 0.0554,-0.3115 0.11641,-0.3115 0.0642,0 0.11677,0.1531 0.11677,0.3422 0,0.1037 -0.0159,0.1965 -0.0409,0.2593 L 1.454029,1029.085 v -0.072 h 0.43815 l 0.94474,-0.1284 -0.005,-0.03 1.09114,-0.1729 0.007,0.044 0.17392,-0.025 0.34043,-0.026 -0.003,-0.049 0.87983,-0.061 0.003,0.043 0.37641,-0.029 0.17569,-0.3044 0.0621,-0.5147 0.31997,-0.1468 0.11359,-0.1972 h 0.0653 v -0.081 h -0.0374 v -0.1 h 0.51752 l 0.22084,-0.3333 -1.87007,0.033 -7.1e-4,-0.029 h -0.12347 l -0.002,-0.091 h 0.12382 l -3.5e-4,-0.028 h 0.30409 v -0.1115 h 0.0205 v 0.1108 l 1.64677,-0.029 0.31962,-0.4929 z m -7.44961008,2.8515 h -0.085 v 0.1778 l 0.12736,-0.018 c -0.019,-0.039 -0.0339,-0.095 -0.0423,-0.1595 m 6.47736008,3.0177 c 0.0272,0.057 0.0617,0.098 0.0871,0.076 0.0152,-0.014 0.0533,-0.044 0.10019,-0.081 z m 5.4497102,-0.1454 -0.0734,0.096 c -0.0409,0.053 0.26635,0.1965 0.27058,0.1143 10e-4,-0.031 0.012,-0.1185 0.0254,-0.2159 z m -1.20121,0.1623 c 0,0 -0.23354,0.1965 -0.25012,0.2127 -0.10266,0.1027 0.36865,0.2336 0.34008,0.1066 -0.0286,-0.127 -0.09,-0.3193 -0.09,-0.3193 m 0.31009,-0.1369 c 0,0 0.14393,0.2692 0.15663,0.2886 0.0713,0.1101 0.26282,-0.2342 0.20285,-0.2995 l -0.33655,0.01 z m -2.7410802,0.1866 c 0,0 -0.23389,0.1965 -0.25048,0.2131 -0.1023,0.1027 0.36866,0.2336 0.34008,0.1066 -0.0286,-0.127 -0.0896,-0.3197 -0.0896,-0.3197 m 0.62653,0.053 c 0.0385,-0.068 0.0642,-0.1468 0.0508,-0.1863 h -0.14252 c 0.0152,0.07 0.0554,0.1587 0.0917,0.1824 m -0.30939,-0.1768 0.0374,0.07 c -0.006,-0.023 -0.0102,-0.047 -0.0141,-0.07 z m -1.01846,0.3824 c -0.0381,-0.051 -0.0713,-0.1058 -0.0988,-0.164 -0.0494,-0.058 -0.10725,-0.1263 -0.15593,-0.1845 h -0.0822 l 0.078,0.4254 c 0.009,0.052 0.2039,-0.019 0.25894,-0.079 m 1.62101,-0.09 c -0.0247,0.042 -0.0522,0.083 -0.0833,0.1203 0.0155,0.061 0.27023,0.1725 0.27376,0.098 0.004,-0.07 0.0547,-0.4311 0.0695,-0.5337 l -0.0176,7e-4 z m -7.0986,-0.7369 c 0.0187,0.083 0.03,0.1686 0.0332,0.2565 h 0.61171 z m 4.74769,1.1271 0.10019,-0.1915 h 0.0339 c 0.0106,0 0.0169,-0.011 0.0176,-0.022 0.003,-0.054 0.0335,-0.2777 0.0543,-0.4258 h -0.0864 l -0.23777,0.309 c -0.031,0.039 0.13194,0.1295 0.21837,0.1386 l -0.10019,0.1891 c -0.0871,-0.026 -0.16863,-0.068 -0.24236,-0.1196 l -10e-4,0.1302 c 0.0811,0 0.16228,0.01 0.24377,0.01 z m 0.59796,-0.01 c -0.0325,0.011 -0.066,0.021 -0.10019,0.029 l 0.10019,-3e-4 z m 0.52422,0.028 c -0.0956,-0.052 -0.18309,-0.1079 -0.25999,-0.1767 l -0.0159,0.013 0.0257,0.034 -10e-4,0.1312 z m 1.73814,-0.1986 h 0.0674 c 0.0998,-0.01 0.2391802,-0.086 0.1986102,-0.1266 -0.0497,-0.049 -0.2825702,-0.3285 -0.3496002,-0.4086 l -0.0141,4e-4 z m -0.67804,0.1962 0.0293,-0.056 c -0.037,-0.022 -0.0727,-0.046 -0.10654,-0.074 -0.0473,0.037 -0.0988,0.069 -0.15275,0.097 l -3.5e-4,0.033 z m 1.3514902,-0.066 -7e-4,0.06 h 0.16474 c -0.0568,-0.015 -0.11183,-0.035 -0.16404,-0.059 m -0.27234,0.062 0.091,-0.1711 -0.0268,-0.021 c -0.0811,0.081 -0.17744,0.1471 -0.28469,0.1933 z m 1.10807,-0.055 -7e-4,-0.016 c -0.0201,0.01 -0.0413,0.02 -0.0624,0.029 z m 0.46214,-0.2049 0.0751,-0.1951 c -0.0314,-0.02 -0.0614,-0.042 -0.09,-0.065 -0.0469,0.096 -0.10866,0.1834 -0.18345,0.2589 l 0.007,0.1503 c 0.0667,-0.015 0.13547,-0.03 0.20532,-0.046 z m 0.50977,-0.02 -0.007,-0.036 c -0.0833,0 -0.16369,-0.022 -0.23919,-0.049 l 0.0162,0.1439 c 0.0804,-0.02 0.15805,-0.04 0.23037,-0.059 m 0.50553,-0.3916 0.004,-0.025 c -0.0212,-0.024 -0.054,-0.061 -0.0938,-0.1076 l -0.21766,0.01 0.0395,0.217 c 0.0102,0.055 0.22895,-0.028 0.26776,-0.09 m -7.4383202,0.5842 0.003,-0.042 c -0.0392,0.014 -0.0797,0.026 -0.12136,0.035 z m 0.25788,-0.1835 0.0289,0.045 -0.0155,0.1563 0.29351,0.019 -7e-4,-0.049 0.10195,-0.1926 h 0.10654 l 0.0656,0.086 -0.001,0.1683 0.23883,0.014 -3.6e-4,-0.035 0.10266,-0.1923 h 0.0459 c -0.10548,-0.1076 -0.1845,-0.2413 -0.22683,-0.3902 l -0.42898,0.012 h -0.0363 c -0.0614,0.1383 -0.15592,0.259 -0.27375,0.3514"
         id="path5642-6-8-52-1-0-3" />
    </g>
    <g
       id="G-Infantry4-SdKfz250"
       transform="translate(4.5149877,-988.71288)">
      <path
         d="m 31.597349,1022.8433 v 0 c 0.02858,-0.01 0,0 0,0 m 0.461434,-0.9835 c 0,0 0.02681,0 0.05115,0 0.01976,0 0.02117,-0.042 0.01341,-0.1 -0.03881,0 -0.06879,-0.01 -0.07408,-0.01 -0.0039,0 -0.01411,0 -0.02858,0.01 z m -1.297164,-0.7158 c 0,0 -0.0448,0.011 -0.0575,0.019 -0.0127,0.01 -0.164747,0 -0.182033,-0.01 -0.01729,0 -0.111831,-0.032 -0.113242,-0.041 -0.0018,-0.01 -0.0035,-0.013 -0.01446,-0.022 -0.01129,-0.01 0.0078,-0.053 0.0078,-0.053 l -0.589492,-0.15 -0.0095,0.017 -0.06209,-0.021 c 0,0 0.01129,0.035 0.0014,0.058 -0.0095,0.022 -0.04127,0.03 -0.04127,0.03 0,0 -0.04974,0.3161 -0.06738,0.4188 -0.01729,0.1019 -0.01305,0.2106 0.01305,0.2409 0.02575,0.03 -0.0099,0.046 -0.0099,0.046 l -0.04621,-0.011 c 0,0 -0.01446,-0.01 -0.02716,0 -0.01305,0.01 -0.03387,-0.021 -0.02858,-0.048 0.0046,-0.027 0.07832,-0.4971 0.07832,-0.4971 l -0.155575,0.3419 -0.103364,0.082 -0.02117,-0.092 c 0,0 -0.02011,-0.027 0.0053,-0.027 0.0254,0 0.06209,-0.02 0.06209,-0.02 l 0.2032,-0.4713 c 0,0 -0.0067,-0.019 0.0078,-0.054 0.01446,-0.035 0.04939,-0.03 0.04939,-0.03 l 0.0018,-0.014 -0.05645,-0.017 c 0,0 -0.02999,-0.014 -0.04269,-0.03 -0.01305,-0.016 -0.03845,-0.014 -0.03845,-0.014 l -0.02081,0.011 c 0,0 -0.15487,-0.032 -0.172861,-0.04 -0.01693,-0.01 -0.02681,-0.035 -0.02681,-0.035 0,0 -0.07514,-0.013 -0.09878,-0.015 -0.02434,0 -0.02858,-0.032 -0.02716,-0.043 0.0018,-0.011 0.0127,-0.069 0.03316,-0.06 0.02117,0.01 0.123119,0.038 0.123119,0.038 l 0.0321,-0.011 0.153458,0.027 0.248709,0.025 0.0388,-0.095 0.03492,0.018 c 0,0 -0.01305,0.042 -0.01764,0.059 -0.0046,0.018 0.0085,0.057 0.0321,0.069 0.0046,0 0.0441,0.012 0.105481,0.029 -0.0092,-0.046 -0.0247,-0.1246 -0.02575,-0.1436 -0.0014,-0.027 0.03881,-0.1475 0.03881,-0.1475 h -0.01764 l -0.0067,-0.1072 c 0,0 0.0085,-0.045 -0.0018,-0.094 -0.0095,-0.05 0.0067,-0.07 0.01446,-0.098 0.0085,-0.027 -0.0042,-0.1277 -0.0042,-0.1277 0,0 -0.0085,-0.061 0.0011,-0.075 0.0099,-0.014 0.0064,-0.037 -0.0011,-0.062 -0.0085,-0.025 0.03634,-0.082 0.03634,-0.082 0,0 -0.0095,-0.03 -0.01411,-0.067 -0.0053,-0.036 0.01411,-0.046 0.03634,-0.062 0.02258,-0.016 0.0448,-0.1326 0.04657,-0.1393 0.0014,-0.01 -0.0032,-0.032 0.01411,-0.054 0.01799,-0.022 0.01305,-0.1104 0.0035,-0.1468 -0.0099,-0.037 0.01729,-0.072 0.01729,-0.072 0,0 -0.0254,-0.016 -0.05256,-0.011 -0.02716,0 -0.113241,0.017 -0.134055,0.021 -0.02117,0 -0.118181,0.01 -0.14852,-0.01 -0.03034,-0.016 -0.02752,-0.056 -0.02399,-0.071 0.0028,-0.014 -0.0035,-0.027 -0.01446,-0.045 -0.01164,-0.018 0.0095,-0.024 0.0095,-0.024 l -0.0014,-0.023 c 0,0 -0.02575,-0.024 -0.02893,-0.04 -0.0035,-0.016 -0.0018,-0.033 -0.0321,-0.046 -0.03034,-0.013 -0.01094,-0.029 -0.0011,-0.046 0.0092,-0.018 -0.0071,-0.042 -0.0099,-0.062 -0.0032,-0.021 -0.0032,-0.04 -0.0032,-0.04 l -0.0081,-0.021 -0.03069,-0.035 c 0,0 -0.01446,0 -0.0702,-0.018 -0.05574,-0.012 -0.02822,-0.04 -0.0011,-0.048 0.02681,-0.01 0.0314,-0.024 0.06526,-0.23 0.03351,-0.2064 0.226483,-0.2681 0.535164,-0.2374 0.308328,0.03 0.263172,0.3577 0.264936,0.3817 0.0018,0.024 0.0755,0.1305 0.0755,0.1305 l 0.0046,-0.025 0.138641,0.024 c 0,0 0.01164,0.014 0.07197,0.025 0.06103,0.012 -0.0095,0.021 -0.0095,0.021 0,0 0.148519,0 0.175683,0.01 0.02752,0.01 0.05115,0.013 0.115711,0.023 0.0635,0.01 0.122767,0.036 0.137231,0.046 0.01411,0.01 0.141817,0.081 0.172156,0.096 0.03034,0.014 0.0702,0.029 0.132291,0.085 0.06244,0.056 0.141111,0.081 0.141111,0.081 0,0 0.09208,-0.069 0.108303,-0.069 0.01623,0 0.265642,0.1213 0.265642,0.1213 0,0 0.07161,0.066 0.111478,0.1009 0.04022,0.035 0.01905,0.058 0.04304,0.084 0.02399,0.028 0.138995,0.1313 0.134409,0.1422 -0.0049,0.012 -0.11677,0.2 -0.11677,0.2 0,0 0.171098,0.2314 0.188384,0.2537 0.01764,0.023 0.07373,0.1344 0.07373,0.1344 0,0 0.0095,0.01 -0.02258,0.039 -0.03175,0.03 -0.165805,0.084 -0.165805,0.084 0,0 -0.01623,0.034 -0.0194,0.062 -0.0032,0.029 -0.03351,0.139 -0.06879,0.1679 -0.03493,0.029 -0.06526,0.1087 -0.07796,0.169 -0.0127,0.061 -0.04163,0.062 -0.0628,0.1044 -0.02046,0.041 -0.09066,0.1418 -0.136878,0.1789 -0.01729,0.013 -0.03387,0.034 -0.04833,0.058 l 0.04198,0.078 0.04763,0.012 c 0,0 0.04304,-0.014 0.06738,-0.01 0.02399,0 0.152753,0.024 0.183444,0.029 0.03034,0 0.02399,0.019 0.02399,0.019 0,0 0.06703,0.01 0.08961,0.01 0.02223,0 0.02046,0.025 0.02046,0.025 l 0.08819,0.013 c 0,0 -0.0194,-0.026 0.0078,-0.016 0.02681,0.01 0.118534,0.04 0.149931,0.049 0.0321,0.01 0.04339,0.038 0.06103,0.041 0.01764,0 0.0032,0.038 0.0032,0.038 0,0 0.04022,-0.01 0.07514,0.01 0.03528,0.015 0.02046,0.064 0.02046,0.064 l -0.0095,0.037 c 0,0 0.324556,0.1051 0.445559,0.1228 0.121708,0.018 0.192263,0.021 0.380294,-0.024 0.188383,-0.045 0.126294,0.072 0.08326,0.1213 -0.04304,0.05 -0.05574,0.1535 -0.08008,0.2364 0,0 -0.0046,0.053 -0.03493,0.1439 -0.03034,0.091 -0.06703,0.062 -0.129469,-0.038 -0.06244,-0.1002 -0.117828,-0.088 -0.134056,-0.092 -0.01588,-0.01 -0.05256,-0.011 -0.04304,-0.035 0.0095,-0.024 -0.0127,-0.088 -0.04798,-0.1006 -0.02434,-0.01 -0.09172,-0.031 -0.130527,-0.043 l -0.04551,0.163 -0.05891,-0.01 c 0,0 -0.0063,0.016 -0.01129,0.059 -0.0042,0.043 -0.01588,0.2142 -0.02716,0.278 -0.01094,0.063 -0.106892,0.1725 -0.106892,0.1725 l -0.03669,-0.014 0.01129,-0.013 c 0,0 -0.0575,-0.024 -0.07514,-0.053 -0.01376,-0.023 -0.006,-0.072 0.0071,-0.1359 -0.01446,0.01 -0.03034,0.012 -0.04692,0.017 -0.06738,0.024 -0.08008,-0.01 -0.04621,-0.021 0.03316,-0.014 0.05574,-0.028 0.05574,-0.028 0,0 -0.02716,0.01 -0.06879,0.013 -0.04127,0.01 -0.06844,-0.01 -0.03704,-0.018 0.03246,-0.011 0.06421,-0.029 0.06421,-0.029 0,0 -0.05891,0 -0.08961,0 -0.03034,0 -0.0078,-0.026 0.0099,-0.03 0.01729,-0.01 0.07973,-0.022 0.07973,-0.022 0,0 -0.07973,0 -0.103717,0 -0.02399,-0.01 -0.03528,-0.02 -0.0099,-0.024 0.0254,0 0.09454,-0.021 0.09454,-0.021 0,0 -0.04798,-0.01 -0.09454,-0.013 -0.04657,0 -0.02222,-0.027 -0.0014,-0.029 0.02117,0 0.07796,-0.016 0.07796,-0.016 0,0 -0.07126,-0.018 -0.08925,-0.024 -0.01764,-0.01 -0.03634,-0.027 -0.02364,-0.029 0.0127,0 0.08149,-0.01 0.08149,-0.01 0,0 -0.03845,-0.01 -0.07197,-0.028 -0.03387,-0.02 -0.02575,-0.018 -0.01129,-0.02 0.01446,-10e-4 0.0635,0 0.0635,0 0,0 -0.0092,-0.01 -0.0381,-0.019 -0.01305,-0.01 -0.02752,-0.019 -0.03916,-0.031 -0.01482,0 -0.03104,0 -0.04727,0 -0.0049,3e-4 -0.01129,3e-4 -0.01834,3e-4 0.0035,0.023 0.0092,0.046 0.0092,0.046 0,0 0.0032,0.031 -0.0035,0.067 -0.006,0.037 -0.05398,0.042 -0.07303,0.035 -0.0194,-0.01 -0.105481,-0.037 -0.102659,-0.029 0.0032,0.01 -0.0028,0.024 -0.0194,0.024 -0.01552,0 -0.07126,-0.022 -0.09384,-0.031 -0.01411,-0.01 -0.0448,-0.065 -0.06632,-0.1093 -0.03245,0.01 -0.06456,0.015 -0.0822,0.015 -0.04163,0 -0.191911,0.01 -0.226836,0 -0.03528,-0.013 -0.02893,0.026 -0.04163,0.046 -0.0127,0.021 -0.01411,0.04 -0.0081,0.045 0.0067,0 0.03704,0.033 0.03881,0.056 0.0011,0.022 -0.0085,0.042 0.0011,0.042 0.0099,0 0.0081,0.033 0.0081,0.052 0,0.019 0.02575,0.034 0.03845,0.058 0.0127,0.024 0.0064,0.069 0.0064,0.082 0,0.013 0.0194,0.03 0.02399,0.04 0.0046,0.01 0.02399,0.067 0.03351,0.088 0.0095,0.02 0.0049,0.057 0.0049,0.065 0,0.01 0.03493,0.026 0.04304,0.054 0.0078,0.029 0.01305,0.088 0.02716,0.1023 0.01446,0.015 0.0127,0.024 0.0127,0.024 0,0 0.01446,0.086 0.03034,0.1087 0.01623,0.023 0.0049,0.079 0.0049,0.079 l 0.0014,0.086 c 0,0 -0.0014,0.029 -0.04445,0.037 -0.04304,0.01 -0.225425,0.019 -0.225425,0.019 l -0.0014,-0.024 c -0.01164,0 -0.03175,0.01 -0.06562,0.018 -0.121356,0.034 -0.310092,0.072 -0.436387,0.053 0,0 -0.0127,0 -0.09878,-0.014 -0.08643,-0.019 -0.09243,-0.066 -0.09243,-0.066 l 0.01693,-0.027 c 0,0 0.0018,-0.014 0.01446,-0.048 0.01305,-0.033 0.06456,-0.045 0.120297,-0.056 0.05574,-0.011 0.170745,-0.049 0.185209,-0.058 0.01411,-0.01 0.08784,-0.072 0.09878,-0.087 0.01129,-0.016 0.05927,-0.059 0.05927,-0.059 0,0 0,-0.028 0.01129,-0.05 0.01094,-0.022 -0.0127,-0.03 -0.0254,-0.048 -0.0127,-0.017 -0.0067,-0.042 -0.01023,-0.056 -0.0025,-0.014 -0.0314,-0.046 -0.0314,-0.046 0,0 -0.02752,-0.025 -0.04304,-0.072 -0.01623,-0.046 -0.04657,-0.082 -0.06103,-0.1009 -0.01446,-0.018 0.0018,-0.03 0.0018,-0.03 0,0 -0.08502,-0.041 -0.09102,-0.09 -0.0067,-0.048 -0.05256,-0.046 -0.08149,-0.058 -0.02893,-0.011 -0.04657,-0.043 -0.04974,-0.073 -0.0028,-0.031 -0.04304,-0.067 -0.05115,-0.079 -0.0078,-0.011 -0.03493,-0.071 -0.03034,-0.1146 0.0049,-0.045 -0.0381,-0.063 -0.05786,-0.079 -0.0187,-0.016 -0.02364,-0.1115 -0.02787,-0.1549 -0.0053,-0.043 -0.03104,-0.1086 -0.06103,-0.206 -0.0067,-0.02 -0.0035,-0.052 0.0056,-0.09 z m -0.371475,-0.6477 c -0.0085,0 -0.01517,-0.01 -0.01517,-0.018 0,-0.011 0.0085,-0.019 0.01905,-0.019 -7.05e-4,-0.01 -0.0011,-0.015 -0.0014,-0.022 -0.0099,-3e-4 -0.01764,-0.01 -0.01764,-0.019 0,-0.01 0.0085,-0.018 0.01835,-0.018 h 0.0035 c 0.0011,-0.01 0.0021,-0.012 0.0032,-0.021 -0.0063,0 -0.01094,-0.01 -0.01094,-0.018 0,-0.01 0.0074,-0.017 0.01623,-0.019 3.53e-4,-0.01 0.0014,-0.012 0.0025,-0.018 -0.0039,0 -0.0056,-0.01 -0.0056,-0.016 0,-0.01 0.0035,-0.017 0.0092,-0.02 0.0011,-0.01 0.0018,-0.015 0.0021,-0.023 -0.0063,0 -0.01129,-0.012 -0.01129,-0.019 0,-0.01 0.006,-0.018 0.01446,-0.021 v -0.01 c -3.53e-4,0 -0.0011,-3e-4 -0.0018,-3e-4 -0.0127,-0.01 -0.02222,-0.02 -0.02046,-0.036 0.0014,-0.016 0.02046,-0.016 0.02046,-0.016 0,0 -0.0046,-0.01 -0.0127,-0.022 -0.0078,-0.013 0.0067,-0.035 0.0067,-0.035 0,0 -0.01305,-0.01 -0.01623,-0.032 -0.0035,-0.022 0.0095,-0.024 0.0095,-0.024 0,0 -0.02575,-0.013 -0.02223,-0.03 0.0032,-0.018 0.02223,-0.023 0.02223,-0.023 l -0.04163,-0.023 c 0,0 -0.0028,0.013 -0.0078,0.02 -0.0049,0.01 -0.0575,0.1129 -0.04974,0.14 0.0081,0.028 -0.01411,0.061 -0.02575,0.083 -0.01094,0.023 -0.03316,0.1661 -0.04233,0.1951 -0.01023,0.029 -0.04833,0.04 -0.04833,0.04 0,0 0.02081,0.072 0.03034,0.1027 0.0095,0.03 -0.01094,0.036 -0.01094,0.036 0,0 0,0.035 0.0014,0.042 0.0014,0.01 0.0078,0.045 0.0028,0.065 -0.0042,0.021 -0.01411,0.037 -0.02046,0.072 -0.0063,0.035 -0.04163,0 -0.04445,-0.01 -0.0035,-0.011 -0.01305,-0.068 -0.0053,-0.099 0.0081,-0.03 -0.0187,-0.036 -0.0187,-0.036 0,0 -0.06103,0.063 -0.06562,0.073 -0.0032,0.01 0.01094,0.051 0.02011,0.079 0.251177,0.064 0.645583,0.1623 0.779639,0.1958 0.04727,-0.1161 0.103011,-0.2286 0.113947,-0.2551 0.02046,-0.051 -0.05115,-0.065 -0.05115,-0.065 l -0.178858,-0.109 c 0,0 0.0127,-0.053 0.02399,-0.066 0.01094,-0.012 0.121002,-0.1291 0.121002,-0.1291 0,0 -0.09913,-0.043 -0.132291,-0.1058 -0.03351,-0.062 0.01446,-0.1327 0.01446,-0.1327 0,0 0.0127,-0.02 0.0018,-0.043 -0.01164,-0.022 -0.109008,-0.073 -0.148872,-0.093 -0.04022,-0.019 -0.05574,-0.063 -0.13723,-0.1115 -0.08185,-0.048 -0.0702,-0.028 -0.0702,-0.028 0,0 0.0011,0.01 0.0011,0.02 0,0.011 -0.0127,0.027 -0.0127,0.027 0,0 0.02434,0.01 0.03069,0.023 0.0063,0.016 -0.0064,0.032 -0.0064,0.032 0,0 0.01764,0.018 0.02081,0.029 0.0028,0.011 -0.0067,0.03 -0.0067,0.03 0,0 0.01129,0.013 0.01305,0.029 0.0018,0.016 -0.01623,0.031 -0.01623,0.031 0,0 0.0127,0.011 0.0127,0.03 0,0.02 -0.01411,0.024 -0.01411,0.024 0,0 0.02399,0.01 0.02858,0.024 0.0053,0.014 -0.0254,0.03 -0.0254,0.03 0,0 0.01446,0 0.01446,0.021 0,0.013 -0.01305,0.026 -0.02575,0.03 v 0 c 0.01199,7e-4 0.02081,0.011 0.02081,0.023 0,0.012 -0.0099,0.022 -0.02258,0.022 h -0.0014 c -3.53e-4,0.01 -7.06e-4,0.012 -0.0014,0.018 0.0085,0 0.01587,0.011 0.01587,0.023 0,0.012 -0.0078,0.022 -0.01764,0.022 -0.0011,0 -0.0025,-3e-4 -0.0035,-3e-4 l -0.0014,0.013 c 0.0074,0 0.01305,0.01 0.01305,0.018 0,0.01 -0.0081,0.019 -0.01835,0.019 -0.0014,0.01 -0.0028,0.018 -0.0039,0.024 0.0039,0 0.0064,0.01 0.0064,0.013 0,0.01 -0.0042,0.013 -0.01023,0.017 3.53e-4,0.01 0.0011,0.019 0.0018,0.028 0.0049,0 0.0085,0.01 0.0085,0.015 0,0.01 -0.0042,0.013 -0.0099,0.016 l -3.53e-4,7e-4 c -0.0018,0 -0.0071,0.012 -0.0127,0.018 0.0071,0.01 0.02223,0.022 0.01976,0.031 -0.0035,0.011 -0.03069,0.011 -0.03069,0.011 0,0 0.0063,0.019 0,0.031 -0.0064,0.011 -0.0321,0 -0.0321,0 0,0 0.01164,0.029 0.0018,0.039 -0.0099,0.01 -0.03669,0 -0.04304,0 -0.0063,-0.01 -0.02752,-0.032 -0.02858,-0.039 -0.0018,-0.01 -0.03034,-0.036 -0.0194,-0.042 0.01129,-0.01 0.05115,0.019 0.05115,0.019 0,0 -0.01129,-0.019 -0.01411,-0.028 -0.0035,-0.01 -0.0127,-0.017 0.0028,-0.016 0.01587,0 0.02575,0.01 0.03669,0.011 0.01164,0 0.0085,-0.011 0.0032,-0.022 -0.0046,-0.011 0,-0.017 0.0095,-0.015 0.0074,10e-4 0.02646,0.01 0.03563,0.014 0.0035,0 0.0064,-0.01 0.0085,-0.012"
         id="path171058-7-4"
         style="stroke-width:0.352778" />
      <path
         d="m 20.720928,1020.0758 c 0.02011,-0.023 0.03704,-0.1076 0.03704,-0.1076 0,0 -0.01693,-0.062 -0.04833,-0.057 -0.0314,0.01 -0.159102,0.01 -0.175683,-0.034 -0.01729,-0.042 -0.02575,-0.091 -0.02575,-0.091 l -0.201436,-0.031 c 0,0 0.06279,0.063 0.06279,0.088 0,0.025 0,0.04 0.0254,0.068 0.0254,0.029 0.0762,0.049 0.09031,0.085 0.01411,0.037 0.04269,0.1362 0.04269,0.1362 l 0.121708,0.068 c 0.02858,-0.053 0.05151,-0.1019 0.07126,-0.1245 m -1.483783,-0.363 c -0.01129,0.073 0.04868,0.073 0.173214,0.093 0.11183,0.018 0.295275,-0.046 0.363714,-0.078 l -0.0035,-7e-4 c -0.05644,-0.027 -0.116417,-0.08 -0.116417,-0.08 0,0 -0.328789,-0.037 -0.351719,-0.048 -0.01164,-0.01 -0.04621,-0.013 -0.0762,-0.019 0.01305,0.03 0.01905,0.082 0.01094,0.133 m 2.116314,2.1929 c -0.0628,-0.043 -0.03105,-0.1704 -0.02858,-0.2188 0.0032,-0.048 -0.07655,-0.037 -0.118886,-0.034 -0.04269,0 -0.10795,0.017 -0.153106,-0.017 -0.04551,-0.034 -0.25788,-0.028 -0.25788,-0.028 0,0 -0.0032,0.048 -0.02328,0.06 -0.0194,0.011 -0.03387,0.022 -0.0194,0.059 0.01411,0.037 -0.01129,0.093 -0.02328,0.1189 -0.01094,0.026 -0.01658,0.034 -0.0081,0.06 0.0081,0.026 -0.0568,0.073 -0.110772,0.088 -0.05398,0.014 -0.02258,0.2127 -0.0081,0.2833 0.01411,0.071 -0.06279,0.1735 -0.06279,0.1735 0,0 0.02011,0.062 0.02822,0.082 0.0092,0.019 0.006,0.187 0.02011,0.2438 0.01446,0.057 -0.01411,0.06 -0.01411,0.06 0,0 -0.01411,0.065 -0.03951,0.074 -0.02575,0.01 -0.2159,-0.01 -0.2159,-0.01 l -0.0028,-0.051 c 0,0 -0.141817,0.031 -0.263878,0.059 -0.122061,0.029 -0.379942,-0.01 -0.448028,-0.018 -0.06809,-0.011 -0.08819,-0.028 -0.08819,-0.028 l 0.02011,-0.02 c 0,0 -0.03704,-0.085 -0.0085,-0.1104 0.02822,-0.025 0.28328,-0.043 0.343252,-0.046 0.05927,0 0.0822,-0.04 0.11042,-0.054 0.02858,-0.014 0.201436,-0.1873 0.201436,-0.1873 0,0 -0.01976,-0.034 -0.03104,-0.051 -0.01129,-0.018 -0.0056,-0.043 0.0085,-0.068 0.01411,-0.026 -0.0028,-0.116 -0.0085,-0.1305 -0.0056,-0.014 -0.0056,-0.062 0.0025,-0.1136 0.0088,-0.051 0,-0.1757 0,-0.1757 0,0 -0.02822,-0.051 -0.05927,-0.085 -0.03104,-0.034 -0.0254,-0.1079 -0.0028,-0.1446 0.02258,-0.037 -0.01129,-0.1447 -0.01129,-0.1842 0,-0.04 0.0568,-0.199 0.05962,-0.2244 0.0025,-0.025 0.0025,-0.1361 0.04515,-0.2638 0.04269,-0.1277 0.224367,-0.1302 0.314678,-0.1503 0.09102,-0.019 0.02258,-0.057 -0.03104,-0.1161 -0.05398,-0.06 -0.150283,-0.2102 -0.167216,-0.2441 -0.01729,-0.034 0.0085,-0.099 -0.06562,-0.1418 -0.07338,-0.042 -0.06809,-0.093 -0.05644,-0.1217 0.01164,-0.029 0.0822,-0.108 0.05398,-0.1732 -0.02822,-0.065 -0.06562,-0.1133 -0.06562,-0.1133 0,0 -0.138994,-0.074 -0.175683,-0.1136 -0.02646,-0.029 -0.09948,-0.057 -0.159103,-0.08 -0.07726,0.03 -0.248003,0.094 -0.374297,0.1083 -0.167217,0.02 -0.263878,-0.056 -0.289278,-0.091 -0.0254,-0.034 -0.02822,-0.097 -0.02822,-0.1298 0,-0.022 0.01517,-0.051 0.03281,-0.068 l -0.299156,-0.04 c 0,0 -0.03986,0.017 -0.07691,0.011 -0.03669,-0.01 -0.09349,-0.02 -0.09349,-0.02 0,0 -0.105128,-0.011 -0.122061,-0.014 -0.01729,0 -0.02258,-0.023 -0.02258,-0.023 0,0 -0.150283,0 -0.187325,-0.011 -0.03704,-0.01 -0.03986,-0.031 -0.03986,-0.031 0,0 -0.138642,-0.014 -0.158397,-0.017 -0.02011,0 -0.01729,-0.068 0.0081,-0.068 0.0254,0 0.03457,0 0.03457,0 0,0 0.0025,-0.054 0.02222,-0.054 0.02011,0 0.07691,0.01 0.110772,0.01 0.03387,0 0.006,0.068 0.006,0.068 l 0.317148,0.026 c 0,0 0.02822,-0.01 0.04551,-0.011 0.01729,-0.01 0.113594,0.014 0.113594,0.014 l 0.0508,0.01 0.238478,0.01 c 0,0 0.07937,-0.011 0.09913,-0.011 0.01975,0 0.05115,0.025 0.05115,0.025 h 0.714728 l 0.03704,0.031 0.153105,0.01 c 0,0 0.05115,-0.017 0.07091,-0.014 0.01975,0 0.06244,0.012 0.06244,0.012 l 0.150284,0.011 c 0,0 0.03951,-0.017 0.05997,-0.017 0.0194,0 0.0508,0.031 0.0508,0.031 l 0.110419,0.01 c 0,0 0.05997,-0.02 0.10795,-0.017 0.04798,0 0.06809,0.1 0.06809,0.1 0,0 0.01693,0.01 0.04233,0.011 0.0254,0 0.102305,0.054 0.102305,0.054 0,0 -0.01129,-0.082 -0.02293,-0.1249 -0.01129,-0.042 0.0032,-0.065 0.0032,-0.065 l -0.04233,-0.074 c 0,0 -0.04304,-0.012 -0.06244,-0.019 -0.02011,-0.01 -0.01729,-0.034 -0.01729,-0.034 0,0 0.09066,-0.1729 0.130528,-0.2466 0.03951,-0.074 0.105127,-0.2325 0.433916,-0.1955 0.329142,0.037 0.32632,0.3458 0.340431,0.4167 0.01411,0.071 0.01411,0.1249 0.02575,0.1079 0.01094,-0.017 0.0568,-0.031 0.09349,-0.026 0.03634,0.01 0.218016,0.176 0.266347,0.2074 0.04833,0.031 0.02011,0.071 0.02893,0.082 0.0081,0.011 0.121708,0.1249 0.147108,0.1874 0.0254,0.062 0.0053,0.3489 -0.0028,0.4254 -0.0085,0.077 -0.09102,0.1958 -0.09666,0.2329 -0.0056,0.037 0.03669,0.1389 0.03669,0.1389 0,0 0.144991,0.01 0.221897,0.031 0.07655,0.025 0.02222,0.1958 0.02222,0.1958 0,0 -0.02222,0.1189 -0.02787,0.1697 -0.006,0.051 0.02787,0.043 0.01411,0.267 -0.01411,0.2244 -0.187677,0.2554 -0.187677,0.2554 0,0 0,0.065 0.006,0.1193 0.0056,0.054 -0.0085,0.2519 -0.0085,0.2519 l -0.07973,0.012 -0.07091,0.2582 0.352072,-0.088 c 0,0 0.147109,-0.018 0.207081,-0.037 0.05927,-0.02 0.09631,0.019 0.09631,0.019 0,0 0.06526,0 0.08502,0.023 0.02011,0.02 0.03387,0.2155 0.03387,0.2155 0,0 -0.03951,0.014 -0.01376,0.068 0.0254,0.054 -0.0088,0.2667 -0.04269,0.3291 -0.03422,0.062 -0.07938,0.062 -0.246592,0.071 -0.167922,0.01 -0.07973,-0.2018 -0.07655,-0.2127 0.0025,-0.012 0.05115,-0.074 0.03387,-0.1136 -0.01729,-0.04 -0.03951,-0.017 -0.06526,-0.01 -0.0254,0.01 -0.06809,0.054 -0.105128,0.1045 -0.03704,0.052 -0.07091,0.04 -0.07091,0.04 0,0 -0.2159,0.1333 -0.331964,0.1816 -0.116416,0.048 -0.320675,0.077 -0.411339,0 -0.09066,-0.077 -0.170039,-0.7295 -0.175683,-0.8628 0,0 -0.006,0 -0.06809,-0.045"
         id="path171062-1-1"
         style="stroke-width:0.352778" />
      <path
         d="m 26.913519,1020.0122 -0.07655,-0.032 0.05821,0.1118 z m 1.569861,1.9152 c -0.05045,-0.034 -0.100542,-0.1118 -0.127353,-0.1541 -0.02646,-0.042 -0.143581,-0.069 -0.167217,-0.1994 -0.02399,-0.1305 -0.06632,-0.1379 -0.09313,-0.1778 -0.02646,-0.04 -0.164747,-0.2734 -0.185914,-0.3161 -0.02117,-0.043 -0.218016,-0.364 -0.218016,-0.364 0,0 -0.01305,0.01 -0.05821,0.072 -0.04515,0.064 -0.06385,0.1834 -0.09596,0.2766 -0.0314,0.093 -0.02646,0.1118 -0.01023,0.1249 0.01587,0.013 0.06103,0.058 0.06632,0.1037 0.0053,0.045 0.02117,0.1164 0.05574,0.1376 0.03493,0.022 0.05327,0.088 0.09031,0.1199 0.0374,0.032 0.01835,0.1118 0.01835,0.1432 0,0.032 0.07197,0.1171 0.09349,0.1277 0.02117,0.011 0.05821,0.085 0.07937,0.098 0.02152,0.013 0.106539,0.1358 0.106539,0.1358 0,0 0.08502,0.09 0.116416,0.1246 0.0321,0.034 0.04551,0.019 0.04551,0.019 0,0 0.02928,0.024 0.0956,0.098 0.06632,0.075 -0.02681,0.2127 -0.02681,0.2127 l -0.02611,-0.019 c 0,0 -0.02963,0.1195 -0.05045,0.1594 -0.02152,0.04 -0.0508,0.1274 -0.132998,0.2152 -0.08255,0.087 -0.201788,0.045 -0.201788,0.045 l -0.01658,-0.029 c 0,0 -0.03669,-0.01 -0.04727,-0.064 -0.01058,-0.058 0.05574,-0.1379 0.08255,-0.1884 0.02646,-0.05 -0.0081,-0.2868 -0.0056,-0.3132 0.0028,-0.027 -0.109008,-0.099 -0.119239,-0.12 -0.01094,-0.021 -0.08008,-0.1009 -0.08008,-0.1009 0,0 -0.100895,-0.034 -0.154164,-0.1189 -0.05292,-0.085 -0.180269,-0.088 -0.225778,-0.096 -0.0448,-0.01 -0.108655,-0.067 -0.12453,-0.1087 -0.01588,-0.043 -0.130528,-0.1756 -0.202142,-0.2631 -0.07126,-0.088 -0.07408,-0.2978 -0.08431,-0.3853 -0.01129,-0.088 -0.01376,-0.5231 -0.01376,-0.5231 l -0.0448,-0.016 0.0314,-0.2208 -0.201789,-0.3503 c 0,0 -0.03457,0.034 -0.05609,0.029 -0.02117,-0.01 -0.02117,-0.01 -0.03387,-0.01 -0.01341,0 -0.02963,0.018 -0.04551,0.015 -0.01623,0 -0.03422,-0.021 -0.04763,-0.021 -0.01305,0 -0.03492,0.013 -0.04833,0.01 -0.0127,-0.01 -0.04727,-0.016 -0.04727,-0.016 0,0 -0.04516,0 -0.06421,-0.016 -0.01834,-0.016 -0.02364,-0.048 -0.02364,-0.048 l -0.130528,0.061 -0.03951,0.069 -0.14605,-0.027 -0.100894,0.059 -0.0321,-0.08 0.05045,-0.021 c 0,0 -0.05045,-0.1086 -0.0025,-0.1221 0.04798,-0.013 0.100894,0.071 0.100894,0.071 0,0 0.23107,-0.093 0.223309,-0.1086 -0.0081,-0.016 0.01305,-0.032 0.03175,-0.066 0.0187,-0.035 0.03739,-0.064 0.03739,-0.064 0,0 -0.01623,-0.046 -0.01623,-0.072 0,-0.027 0.08255,-0.061 0.106186,-0.093 0.02364,-0.032 0.0028,-0.069 0.01094,-0.088 0.0078,-0.019 0.03175,-0.021 0.04516,-0.034 0.01305,-0.013 0.01588,-0.074 0.03422,-0.093 0.0187,-0.019 0.0508,-0.042 0.04798,-0.056 -0.0028,-0.013 -0.02646,-0.029 -0.02117,-0.056 0.0053,-0.027 0.03986,-0.1225 0.04763,-0.1725 0.0078,-0.051 0.01305,-0.1306 0.0056,-0.1729 -0.0085,-0.042 0.04198,-0.1115 0.05539,-0.1489 0.01376,-0.037 0.04763,-0.2554 0.05856,-0.2893 0.01058,-0.034 0.124884,-0.1725 0.124884,-0.1725 0,0 -0.02117,0 -0.04269,-0.01 -0.02117,-0.01 -0.04233,-0.058 -0.05856,-0.098 -0.01552,-0.039 -0.03669,-0.1061 -0.04763,-0.127 -0.01058,-0.021 -0.04516,-0.104 -0.04516,-0.104 0,0 -0.03951,-0.021 -0.04763,-0.053 -0.0081,-0.032 -0.02152,-0.016 -0.03986,-0.024 -0.0187,-0.01 -0.06385,-0.024 -0.06385,-0.024 0,0 0.0053,-0.1806 0.117122,-0.364 0.111478,-0.1831 0.244123,-0.1591 0.467431,-0.1648 0.222603,-0.01 0.307975,0.3588 0.307975,0.3588 0,0 0.03951,0.026 0.05292,0.061 0.01341,0.035 0.0056,0.087 0.0056,0.087 h 0.03951 c 0.01905,0 0.11677,0.016 0.154164,0.061 0.03704,0.045 0.111478,0.053 0.175683,0.082 0.0635,0.03 0.02646,0.1034 0.03951,0.109 0.01341,0 0.05574,0.013 0.101247,0.021 0.0448,0.01 0.148519,0.096 0.201789,0.1411 0.05327,0.045 0.05327,0.09 0.0635,0.1115 0.01094,0.021 0.148872,0.1778 0.170038,0.212 0.02117,0.035 0.141112,0.1968 0.156634,0.2448 0.01587,0.048 0.04515,0.1037 0.07973,0.1461 0.03457,0.042 0.02399,0.095 -0.02399,0.2254 -0.04763,0.1309 -0.04763,0.133 -0.08996,0.1862 -0.04269,0.053 -0.17533,0.2202 -0.17533,0.2202 0,0 0.07973,-0.029 0.151694,-0.042 0.07126,-0.013 0.111478,0.1567 0.116417,0.2018 0.0053,0.046 0.08537,0.1623 0.119592,0.3006 0.03457,0.1379 -0.07973,0.1834 -0.07973,0.1834 0,0 0.01588,0.058 0.01588,0.1034 0,0.045 -0.04233,0.082 -0.04233,0.082 0,0 0.0078,0.048 -0.0049,0.075 -0.01341,0.026 -0.06174,0.015 -0.06174,0.015 0,0 0.01905,0.1697 0.04516,0.2156 0.02681,0.045 0.109008,0.2603 0.119592,0.3527 0.01058,0.093 0.04551,0.181 0.114652,0.2233 0.06879,0.042 0.0635,0.087 0.07373,0.1489 0.01058,0.061 0.01905,0.1351 0.05115,0.1616 0.0314,0.026 0.04198,0.064 0.03951,0.133 -0.0028,0.069 0.01588,0.098 0.05327,0.1221 0.03704,0.024 0.04763,0.1382 0.05327,0.1732 0.0049,0.034 0.03175,0.1538 0.08502,0.1986 0.05292,0.045 0.03986,0.1277 0.03986,0.1277 0,0 0.06068,0.1093 0.07937,0.1302 0.0187,0.022 0.0187,0.077 0.0187,0.098 0,0.021 0.02364,0.085 0.02364,0.085 l -0.07937,0.082 c 0,0 -0.09349,0.075 -0.159455,0.088 -0.06632,0.013 -0.201789,-0.027 -0.201789,-0.027 l 0.01023,-0.029 c 0,0 -0.01023,-0.011 0,-0.066 0.01094,-0.056 0.04269,-0.093 0.05856,-0.1274 0.01588,-0.035 0.0028,-0.1679 0.0028,-0.1679 l -0.02364,-0.015 c 0,0 -0.05115,-0.088 -0.09349,-0.1387 -0.04233,-0.05 -0.153811,-0.1668 -0.220486,-0.2705 0,0 -0.04516,-0.034 -0.0956,-0.069"
         id="path171066-7-9"
         style="stroke-width:0.352778" />
      <path
         d="m 24.734446,1022.1685 c -0.0025,0.038 0.02187,0.2008 0.02505,0.2145 0.0025,0.013 0.06562,-0.074 0.07691,-0.1016 0.01094,-0.027 0.02963,-0.069 0.03528,-0.093 0.0056,-0.025 0,-0.068 0.0056,-0.085 0.0053,-0.017 -0.159456,-0.157 -0.159456,-0.157 0.0088,0.058 0.01976,0.1845 0.01658,0.2222 m -1.176867,-2.8197 c -0.0056,-0.038 0.01094,-0.085 0.03845,-0.088 0.02752,0 0.04974,0.01 0.05503,-0.011 0.0053,-0.019 -0.03281,-0.1344 -0.03281,-0.1344 0,0 -0.14852,0.1676 -0.178506,0.1894 -0.02999,0.022 -0.15628,0.085 -0.180975,0.085 -0.02434,0 -0.131939,-0.024 -0.153811,-0.076 -0.02187,-0.052 -0.02469,-0.077 -0.04657,-0.1263 -0.02187,-0.05 -0.02999,-0.079 -0.01623,-0.1097 0.01376,-0.03 0.01094,-0.063 0.0081,-0.079 -0.0028,-0.017 0,-0.077 0.01658,-0.096 0.01623,-0.019 -0.0056,-0.025 -0.0085,-0.058 -0.0025,-0.033 -0.03563,-0.052 0.01094,-0.1045 0.04657,-0.052 0.07973,-0.1315 0.07973,-0.1315 l -0.03316,-0.038 c 0,0 -0.03034,-0.02 -0.04904,-0.036 -0.0194,-0.016 -0.04692,-0.044 -0.04974,-0.074 -0.0025,-0.03 -0.0025,-0.099 -0.0025,-0.099 l -0.04974,-0.021 c 0,0 -0.0575,0.1531 -0.06844,0.1831 -0.01094,0.031 -0.05786,0.082 -0.05997,0.1432 -0.0028,0.06 -0.03598,0.1725 0.02963,0.362 0.06632,0.1894 0.0635,0.2688 0.109714,0.3072 0.04692,0.038 0.129116,0.074 0.195086,0.088 0.06562,0.013 0.265994,0.052 0.337608,0.099 0.07091,0.047 0.08502,0.041 0.08502,0.041 -0.0194,-0.063 -0.03034,-0.1757 -0.03598,-0.2138 m 0.820561,2.782 c -0.0056,-0.063 -0.08537,-0.2498 -0.09313,-0.2745 -0.0085,-0.025 -0.0056,-0.044 -0.0056,-0.058 0,-0.014 -0.140052,-0.1535 -0.159102,-0.1891 -0.0194,-0.036 -0.02222,-0.1866 -0.03034,-0.2498 -0.0081,-0.063 -0.05468,-0.1125 -0.07973,-0.1397 -0.02434,-0.028 -0.06033,-0.2035 -0.06033,-0.2307 0,-0.028 -0.117828,-0.532 -0.134408,-0.5429 -0.01658,-0.011 -0.04904,-0.017 -0.08784,-0.019 -0.03845,0 -0.04092,-0.017 -0.04092,-0.017 v -0.052 l -0.0575,-0.017 c 0,0 -0.03316,-0.1041 0.03034,-0.1944 0.06279,-0.09 0.100894,-0.4473 0.100894,-0.4473 0,0 -0.191911,-0.093 -0.323497,-0.1482 -0.131586,-0.055 -0.375708,-0.104 -0.403225,-0.1097 -0.02752,-0.01 -0.153811,-0.14 -0.17533,-0.2226 -0.02187,-0.082 -0.123825,-0.3919 -0.126648,-0.4604 -0.0028,-0.069 0.09913,-0.2963 0.134409,-0.3951 0.03598,-0.099 0.02505,-0.093 0.02505,-0.093 l -0.22225,-0.1259 h -0.03316 l -0.02999,-0.02 -0.04375,-0.035 -0.04692,-0.02 -0.0028,-0.03 -0.293159,-0.1454 0.01376,-0.03 0.180622,0.091 0.0085,-0.019 -0.178152,-0.09 -0.04692,-0.011 -0.04939,-0.042 -0.06032,-0.03 0.03598,-0.049 0.02999,0.016 0.02469,-0.044 0.115006,0.063 -0.01623,0.049 0.285397,0.1404 0.04375,0.017 0.0053,0.019 0.05786,0.025 h 0.01905 l 0.03281,0.016 0.0081,0.022 0.450497,0.2 0.244123,0.1207 0.05997,-0.055 c 0.03034,-0.028 0.04128,-0.03 0.06068,-0.082 0.01905,-0.052 0.126294,-0.096 0.1397,-0.1094 0.01376,-0.014 0.0081,-0.049 -0.01658,-0.1125 -0.02434,-0.063 -0.04092,-0.1676 -0.04092,-0.1676 0,0 -0.06315,-0.019 -0.07973,-0.039 -0.01658,-0.019 -0.01658,-0.041 -0.07691,-0.098 -0.05997,-0.058 0.03316,-0.1344 0.0635,-0.1757 0.02999,-0.041 0.05186,-0.1534 0.08502,-0.2085 0.03281,-0.055 0.153458,-0.1044 0.383822,-0.082 0.230364,0.022 0.268817,0.1207 0.279753,0.1814 0.01094,0.06 0.06068,0.3312 0.09631,0.3944 0.03528,0.063 0.0056,0.055 -0.02752,0.055 -0.03281,0 -0.09631,-0.011 -0.09631,-0.011 0,0 -0.0078,0.01 -0.02716,0.036 -0.0194,0.03 -0.0081,0.052 0.0053,0.06 0.01411,0.01 0.04692,-0.01 0.112536,-0.027 0.06632,-0.019 0.128764,0.046 0.159103,0.066 0.03034,0.019 0.08537,0.011 0.107244,0.014 0.02187,0 0.128764,0.099 0.134056,0.132 0.0056,0.033 0.04974,0.052 0.06562,0.074 0.01658,0.021 0.04974,0.032 0.08537,0.063 0.03598,0.03 0.02752,0.1153 0.0635,0.1315 0.03528,0.017 0.183444,0.2664 0.232833,0.2936 0.04939,0.028 0.04939,0.085 0.06597,0.1481 0.01658,0.063 0.09031,0.1207 0.115358,0.1732 0.02434,0.052 0.01305,0.1478 -0.01623,0.2219 -0.03069,0.074 -0.167569,0.1291 -0.214489,0.1397 -0.04621,0.011 -0.159103,0.063 -0.159103,0.063 l 0.0635,0.058 -0.03281,0.068 c 0,0 0.10407,-0.027 0.139347,-0.03 0.03598,0 0.04939,0.057 0.06315,0.1066 0.01376,0.049 0.02752,0.2413 0.05785,0.3923 0.02963,0.151 -0.110067,0.2363 -0.110067,0.2363 0,0 -0.0025,0.03 0,0.041 0.0028,0.011 -0.02999,0.066 -0.05186,0.088 -0.02187,0.022 -0.0635,-0.01 -0.0635,-0.01 0,0 0.01094,0.036 -0.01623,0.06 -0.02752,0.025 -0.123472,0.036 -0.123472,0.036 0,0 -0.0081,0.032 -0.0081,0.044 0,0.011 -0.06562,0.1097 -0.07126,0.1288 -0.0056,0.019 0.03281,0.1069 -0.0085,0.2085 -0.04092,0.1019 -0.109713,0.1809 -0.121002,0.1947 -0.01058,0.014 -0.03246,0.1072 -0.03246,0.1072 0,0 0.05221,0.088 0.03034,0.1288 -0.02187,0.041 -0.01623,0.098 -0.01623,0.098 0,0 0.120297,0.1073 0.183092,0.2198 0.0635,0.1122 0.126647,0.09 0.183797,0.1178 0.05821,0.027 0.03069,0.077 0.03069,0.077 0,0 0.06562,0.033 0.117475,0.063 0.05221,0.03 0.0635,0.1093 0.0635,0.1093 0,0 0.02187,0.039 0.04127,0.075 0.0187,0.036 -0.07726,0.1644 -0.07726,0.1644 h -0.04939 c 0,0 -0.0056,0.069 -0.0025,0.093 0.0025,0.025 -0.06315,0.1891 -0.112889,0.2469 -0.04904,0.058 -0.1397,0.06 -0.246591,0.058 -0.107245,0 -0.04198,-7e-4 -0.1016,0.1093 -0.05468,0.102 -0.159103,0.1891 -0.356306,0.1891 -0.197908,0 -0.04374,-0.1781 0.04621,-0.3066 0.09066,-0.1294 0.0194,-0.1763 0.01376,-0.2772 0,0 -0.03245,-0.1429 -0.0381,-0.2057"
         id="path171070-1-6"
         style="stroke-width:0.352778" />
      <path
         d="m 26.611043,1026.2442 0.52035,0.03 0.0487,0.1146 -0.16439,0.3115 h 0.8322 l 0.0734,-0.012 0.0945,-0.045 0.11042,-0.078 0.0737,-0.033 0.0568,-0.012 0.0374,0.01 0.0162,0.029 v 0.033 l -0.0247,0.033 -0.0367,0.037 -0.0166,0.041 -0.0162,0.053 -0.004,0.086 0.024,0.07 0.004,0.049 0.005,0.037 -0.0367,0.01 -0.0452,-0.012 -0.2868,-0.1023 h -0.40111 l -0.18486,0.082 0.0988,0.1764 -0.16016,0.1065 -0.0409,-0.164 h -0.0938 l -0.34431,0.1097 -0.0938,0.1767 5.331531,-0.041 0.21837,0.4654 0.81844,-0.3818 0.22613,0.4851 0.055,-0.026 0.0649,0.1394 -0.0554,0.026 0.10372,0.2222 -0.10972,0.051 0.036,0.077 0.10512,-0.049 0.20708,0.4449 0.0579,-0.027 0.0649,0.139 -0.0578,0.027 0.12276,0.2621 -0.11148,0.052 0.031,0.067 -0.139,0.065 -0.031,-0.067 -0.55845,0.2603 0.15558,0.3306 0.0607,-0.027 0.10971,0.2469 -0.0557,0.025 0.32738,0.6978 0.0243,0.2783 h -0.43356 l 0.0166,0.5162 h -0.0656 l -0.0332,-0.4177 -0.48683,0.054 0.0596,0.032 -10e-4,0.1845 -0.0797,0.037 h -0.1076 c -0.006,0.096 -0.0191,0.1823 -0.0374,0.261 l 0.13089,0.1087 0.0413,0.086 -0.10971,0.1481 -0.0857,-0.017 -0.0741,-0.059 c -0.06,0.1154 -0.13547,0.2057 -0.21872,0.278 l 0.0332,0.1051 -0.0127,0.095 -0.17251,0.065 -0.0628,-0.061 -0.0173,-0.05 c -0.0713,0.036 -0.14288,0.064 -0.21167,0.087 l -0.0649,0.021 0.0127,0.067 -0.024,0.092 -0.17921,0.043 -0.0547,-0.069 -0.0127,-0.06 c -0.078,0.021 -0.16157,0.042 -0.248,0.063 l 0.006,0.052 -0.0303,0.09 -0.18169,0.031 -0.0501,-0.072 -0.005,-0.038 c -0.0773,0.018 -0.15311,0.035 -0.22648,0.051 l 0.002,0.079 -0.0377,0.088 -0.18415,0.014 -0.0437,-0.076 -0.002,-0.051 c -0.10725,0.02 -0.19615,0.035 -0.254,0.041 l 10e-4,0.072 -0.0378,0.087 -0.1838,0.015 -0.0434,-0.076 -0.005,-0.091 h -0.32597 l -0.001,0.1323 -0.0409,0.086 -0.18415,0.01 -0.0406,-0.078 -0.002,-0.1471 h -0.27164 l -10e-4,0.1249 -0.0413,0.086 -0.1838,0.01 -0.0409,-0.078 -0.002,-0.1404 -0.27129,10e-4 -0.001,0.1351 -0.0409,0.086 -0.18451,0.01 -0.0406,-0.078 -0.002,-0.1506 -0.23037,7e-4 -10e-4,0.121 -0.0409,0.086 -0.1845,0.01 -0.0409,-0.078 -0.001,-0.1369 -0.28822,7e-4 -7.1e-4,0.1034 -0.0413,0.086 -0.18451,0.01 -0.0409,-0.078 -0.001,-0.1193 -0.25576,8e-4 -0.001,0.098 -0.0409,0.086 -0.18415,0.01 -0.0409,-0.078 -0.001,-0.1147 h -0.3295 l -7e-4,0.1023 -0.0409,0.086 -0.1845,0.01 -0.0409,-0.078 -0.001,-0.1231 c -0.0826,0 -0.1651,-0.01 -0.24765,-0.01 l -7.1e-4,0.079 -0.0409,0.086 -0.1845,0.01 -0.0409,-0.078 -0.001,-0.1087 -0.24306,-0.014 -7.1e-4,0.061 -0.0409,0.086 -0.18415,0.01 -0.0409,-0.078 -0.001,-0.094 -0.31468,-0.02 -0.007,0.072 -0.0476,0.082 -0.18485,-0.01 -0.0339,-0.081 0.006,-0.083 -0.19297,-0.012 c -0.0547,0 -0.10795,-0.01 -0.1591,-0.014 l -0.0152,0.058 -0.0607,0.073 -0.18027,-0.037 -0.0212,-0.085 0.0141,-0.061 c -0.12841,-0.036 -0.24342,-0.088 -0.34537,-0.1615 l -0.0198,0.021 -0.0882,0.036 -0.14217,-0.1171 0.0215,-0.085 0.036,-0.041 c -0.054,-0.068 -0.10195,-0.1472 -0.14464,-0.2375 l -0.70732,0.027 -0.0247,-0.2293 -1.08303,0.037 c -0.061,0.6975 -0.64664,1.2446 -1.35996,1.2446 -0.6537,0 -1.1998,-0.4589 -1.33385,-1.0724 -0.043,0.011 -0.0875,0.016 -0.1337,0.016 -0.31221,0 -0.56515,-0.2533 -0.56515,-0.5652 0,-0.067 0.0116,-0.1319 0.0332,-0.1915 l 0.23283,-1.3522 0.008,-0.7782 0.39299,0.01 0.4258,-0.062 v -0.188 h -0.0328 v -0.1513 h 0.0328 v -0.3239 c -0.0596,0 -0.10653,-0.054 -0.10653,-0.1143 0,-0.063 0.0515,-0.1146 0.11465,-0.1146 0.0635,0 0.11465,0.051 0.11465,0.1146 0,0.041 -0.0212,0.077 -0.0529,0.097 v 0.3415 h 0.078 c 0.005,-0.1746 0.0554,-0.3115 0.11641,-0.3115 0.0642,0 0.11677,0.1531 0.11677,0.3422 0,0.1037 -0.0159,0.1965 -0.0409,0.2593 l 1.10561,-0.1605 v -0.072 h 0.43815 l 0.94474,-0.1284 -0.005,-0.03 1.09114,-0.1729 0.007,0.044 0.17392,-0.025 0.34043,-0.026 -0.003,-0.049 0.87983,-0.061 0.003,0.043 0.37641,-0.029 0.17569,-0.3044 0.0621,-0.5147 0.31997,-0.1468 0.11359,-0.1972 h 0.0653 v -0.081 h -0.0374 v -0.1 h 0.51752 l 0.22084,-0.3333 -1.87007,0.033 -7.1e-4,-0.029 h -0.12347 l -0.002,-0.091 h 0.12382 l -3.5e-4,-0.028 h 0.30409 v -0.1115 h 0.0205 v 0.1108 l 1.64677,-0.029 0.31962,-0.4929 z m -7.44961,2.8515 h -0.085 v 0.1778 l 0.12736,-0.018 c -0.019,-0.039 -0.0339,-0.095 -0.0423,-0.1595 m 6.47736,3.0177 c 0.0272,0.057 0.0617,0.098 0.0871,0.076 0.0152,-0.014 0.0533,-0.044 0.10019,-0.081 z m 5.449711,-0.1454 -0.0734,0.096 c -0.0409,0.053 0.26635,0.1965 0.27058,0.1143 10e-4,-0.031 0.012,-0.1185 0.0254,-0.2159 z m -1.20121,0.1623 c 0,0 -0.23354,0.1965 -0.25012,0.2127 -0.10266,0.1027 0.36865,0.2336 0.34008,0.1066 -0.0286,-0.127 -0.09,-0.3193 -0.09,-0.3193 m 0.31009,-0.1369 c 0,0 0.14393,0.2692 0.15663,0.2886 0.0713,0.1101 0.26282,-0.2342 0.20285,-0.2995 l -0.33655,0.01 z m -2.741081,0.1866 c 0,0 -0.23389,0.1965 -0.25048,0.2131 -0.1023,0.1027 0.36866,0.2336 0.34008,0.1066 -0.0286,-0.127 -0.0896,-0.3197 -0.0896,-0.3197 m 0.62653,0.053 c 0.0385,-0.068 0.0642,-0.1468 0.0508,-0.1863 h -0.14252 c 0.0152,0.07 0.0554,0.1587 0.0917,0.1824 m -0.30939,-0.1768 0.0374,0.07 c -0.006,-0.023 -0.0102,-0.047 -0.0141,-0.07 z m -1.01846,0.3824 c -0.0381,-0.051 -0.0713,-0.1058 -0.0988,-0.164 -0.0494,-0.058 -0.10725,-0.1263 -0.15593,-0.1845 h -0.0822 l 0.078,0.4254 c 0.009,0.052 0.2039,-0.019 0.25894,-0.079 m 1.621011,-0.09 c -0.0247,0.042 -0.0522,0.083 -0.0833,0.1203 0.0155,0.061 0.27023,0.1725 0.27376,0.098 0.004,-0.07 0.0547,-0.4311 0.0695,-0.5337 l -0.0176,7e-4 z m -7.098601,-0.7369 c 0.0187,0.083 0.03,0.1686 0.0332,0.2565 h 0.61171 z m 4.74769,1.1271 0.10019,-0.1915 h 0.0339 c 0.0106,0 0.0169,-0.011 0.0176,-0.022 0.003,-0.054 0.0335,-0.2777 0.0543,-0.4258 h -0.0864 l -0.23777,0.309 c -0.031,0.039 0.13194,0.1295 0.21837,0.1386 l -0.10019,0.1891 c -0.0871,-0.026 -0.16863,-0.068 -0.24236,-0.1196 l -0.001,0.1302 c 0.0811,0 0.16228,0.01 0.24377,0.01 z m 0.59796,-0.01 c -0.0325,0.011 -0.066,0.021 -0.10019,0.029 l 0.10019,-3e-4 z m 0.52422,0.028 c -0.0956,-0.052 -0.18309,-0.1079 -0.25999,-0.1767 l -0.0159,0.013 0.0257,0.034 -10e-4,0.1312 z m 1.738141,-0.1986 h 0.0674 c 0.0998,-0.01 0.23918,-0.086 0.19861,-0.1266 -0.0497,-0.049 -0.28257,-0.3285 -0.3496,-0.4086 l -0.0141,4e-4 z m -0.67804,0.1962 0.0293,-0.056 c -0.037,-0.022 -0.0727,-0.046 -0.106541,-0.074 -0.0473,0.037 -0.0988,0.069 -0.15275,0.097 l -3.5e-4,0.033 z m 1.35149,-0.066 -7e-4,0.06 h 0.16474 c -0.0568,-0.015 -0.11183,-0.035 -0.16404,-0.059 m -0.27234,0.062 0.091,-0.1711 -0.0268,-0.021 c -0.0811,0.081 -0.17744,0.1471 -0.28469,0.1933 z m 1.10807,-0.055 -7e-4,-0.016 c -0.0201,0.01 -0.0413,0.02 -0.0624,0.029 z m 0.46214,-0.2049 0.0751,-0.1951 c -0.0314,-0.02 -0.0614,-0.042 -0.09,-0.065 -0.0469,0.096 -0.10866,0.1834 -0.18345,0.2589 l 0.007,0.1503 c 0.0667,-0.015 0.13547,-0.03 0.20532,-0.046 z m 0.50977,-0.02 -0.007,-0.036 c -0.0833,0 -0.16369,-0.022 -0.23919,-0.049 l 0.0162,0.1439 c 0.0804,-0.02 0.15805,-0.04 0.23037,-0.059 m 0.50553,-0.3916 0.004,-0.025 c -0.0212,-0.024 -0.054,-0.061 -0.0938,-0.1076 l -0.21766,0.01 0.0395,0.217 c 0.0102,0.055 0.22895,-0.028 0.26776,-0.09 m -7.438321,0.5842 0.003,-0.042 c -0.0392,0.014 -0.0797,0.026 -0.12136,0.035 z m 0.25788,-0.1835 0.0289,0.045 -0.0155,0.1563 0.29351,0.019 -7e-4,-0.049 0.10195,-0.1926 h 0.10654 l 0.0656,0.086 -10e-4,0.1683 0.23883,0.014 -3.6e-4,-0.035 0.10266,-0.1923 h 0.0459 c -0.10548,-0.1076 -0.1845,-0.2413 -0.22683,-0.3902 l -0.42898,0.012 h -0.0363 c -0.0614,0.1383 -0.15592,0.259 -0.27375,0.3514"
         id="path5642-6-8-52-1-0-3-9" />
    </g>
  </g>
</svg>
