<?xml version="1.0" encoding="UTF-8" standalone="no"?>
<!-- Created with Inkscape (http://www.inkscape.org/) -->

<svg
   width="35.971321mm"
   height="15.638737mm"
   viewBox="0 0 35.971321 15.638738"
   version="1.1"
   id="svg33402"
   sodipodi:docname="inkporter-svg-n5hwrkpv.svg"
   inkscape:version="1.1.1 (3bf5ae0d25, 2021-09-20)"
   xmlns:inkscape="http://www.inkscape.org/namespaces/inkscape"
   xmlns:sodipodi="http://sodipodi.sourceforge.net/DTD/sodipodi-0.dtd"
   xmlns="http://www.w3.org/2000/svg"
   xmlns:svg="http://www.w3.org/2000/svg">
  <sodipodi:namedview
     id="namedview555"
     pagecolor="#ffffff"
     bordercolor="#666666"
     borderopacity="1.0"
     inkscape:pageshadow="2"
     inkscape:pageopacity="0.0"
     inkscape:pagecheckerboard="0"
     inkscape:document-units="mm"
     showgrid="false"
     inkscape:zoom="0.90509668"
     inkscape:cx="611.53688"
     inkscape:cy="229.25728"
     inkscape:window-width="1920"
     inkscape:window-height="1017"
     inkscape:window-x="-8"
     inkscape:window-y="-8"
     inkscape:window-maximized="1"
     inkscape:current-layer="svg33402" />
  <defs
     id="defs13927" />
  <g
     id="G-Infantry5-4-SdKfz251-Pf"
     transform="translate(-85.245129,-15.813276)">
    <g
       id="g8140-3-0">
      <path
         d="m 92.542892,21.0166 c -0.02575,0.083 -0.06809,0.1662 -0.09454,0.1919 -0.02575,0.027 -0.131586,0.1341 -0.135114,0.1567 -0.0032,0.023 -0.0081,0.056 0.03105,0.09 0.0388,0.033 0.07832,0.041 0.125589,0.052 0.04727,0.011 0.235656,-0.019 0.271639,-0.055 0.03563,-0.036 0.08608,-0.1305 0.09948,-0.1531 0.01305,-0.023 0.01164,0 0.01164,0 l 0.07902,-0.052 c 0,0 0.01482,-0.08 0.0049,-0.094 -0.0095,-0.015 0.0042,-0.051 -0.0049,-0.079 -0.0074,-0.028 -0.04692,-0.064 -0.04833,-0.086 -0.0014,-0.024 0.0032,-0.042 -0.0035,-0.062 -0.0063,-0.02 -0.03069,-0.033 -0.03881,-0.039 -0.0085,-0.01 -0.0099,-0.066 -0.02293,-0.088 -0.0127,-0.022 -0.0032,-0.016 0.02152,-0.031 0.02434,-0.014 0.0695,-0.072 0.0695,-0.072 0,0 -0.05645,0 -0.07444,0 -0.0187,0 -0.03951,0.017 -0.03951,0.017 l -0.02399,-0.012 c 0,0 -0.01164,-0.046 -0.04092,-0.066 -0.02963,-0.021 -0.04374,-0.083 -0.04374,-0.083 l 0.02716,-0.029 -0.04833,-0.054 -0.0187,0.01 -0.02364,-0.038 h -0.02822 c 0,0 0.0049,-0.1958 -0.0095,-0.2413 -0.01517,-0.045 -0.08114,-0.1087 -0.08608,-0.1154 -0.0056,-0.01 -0.0071,-0.072 -0.02646,-0.082 -0.0194,-0.01 -0.05009,-0.029 -0.05009,-0.029 0,0 -0.02328,-0.085 -0.01305,-0.1648 0.0095,-0.079 -0.05398,-0.3937 -0.06315,-0.4325 -0.01058,-0.039 0.0092,-0.1139 0.01729,-0.1672 0.0085,-0.054 0.0014,-0.3133 0.0014,-0.3133 l 0.08678,-0.057 c 0,0 -0.172861,-0.459 -0.197203,-0.5345 -0.02505,-0.074 -0.04374,-0.1718 -0.04374,-0.1718 0,0 0.09913,-0.1958 0.100895,-0.2395 0.0014,-0.044 -0.0032,-0.1 0.02752,-0.1373 0.03069,-0.037 0.09102,-0.2455 0.05503,-0.3711 -0.03528,-0.1252 -0.122061,-0.3711 -0.16757,-0.4141 -0.04516,-0.042 -0.0762,-0.061 -0.09737,-0.139 -0.02117,-0.078 -0.03739,-0.1419 -0.113947,-0.1743 -0.07691,-0.033 -0.13335,-0.03 -0.148519,-0.049 -0.01446,-0.019 -0.04092,-0.034 -0.06315,-0.034 -0.02293,0 -0.0702,0.015 -0.08608,0 -0.01658,-0.014 -0.02646,-0.031 -0.02011,-0.06 0.0071,-0.029 0.01164,-0.044 0.01164,-0.044 h 0.164041 c 0,0 -0.0568,-0.127 -0.06632,-0.1584 -0.0095,-0.031 0.06844,-0.3676 -0.164747,-0.4452 -0.232833,-0.079 -0.455789,-0.059 -0.525992,0.081 -0.0695,0.14 -0.06809,0.2829 -0.153105,0.2945 -0.08467,0.011 0.06844,0.047 0.06844,0.047 0,0 0,0.03 0.01517,0.033 0.01411,0 0.03069,0.014 0.0127,0.054 -0.01764,0.039 -0.0635,0.099 -0.02575,0.1108 0.0374,0.011 0.04374,0.015 0.04374,0.015 l 0.0067,0.025 c 0,0 -0.0056,0.015 0.0014,0.021 0.0071,0.01 0.02787,0.018 0.02787,0.018 l 0.0064,0.031 c 0,0 -0.02152,0.011 -0.01799,0.019 0.0035,0.01 0.02399,0.026 0.01446,0.041 -0.0095,0.014 -0.02364,0.057 -0.0085,0.072 0.01658,0.014 0.08819,0.035 0.08819,0.035 0,0 -0.07761,0.049 -0.115359,0.085 -0.0374,0.036 -0.06703,0.086 -0.09913,0.1167 -0.03281,0.032 -0.0702,0.071 -0.05398,0.1 0.01658,0.029 0.02117,0.038 -0.0018,0.05 -0.02258,0.013 -0.10548,0.1079 -0.115711,0.1291 -0.0095,0.021 -0.07937,0.074 -0.116769,0.092 -0.03775,0.019 -0.07373,0.025 -0.07373,0.025 l -0.139347,-0.01 c 0,0 -0.02117,-0.028 -0.04269,-0.033 -0.02081,0 -0.107597,-0.01 -0.107597,-0.01 l -0.02434,0.039 H 90.09531 c 0,0 -0.03563,-0.02 -0.0508,-0.015 -0.01411,0.01 -0.05786,0.01 -0.05786,0.01 l -0.151694,0.01 h -0.06491 c 0,0 -0.02646,-0.012 -0.07691,-0.011 -0.05045,0 -0.109361,0 -0.123473,0.01 -0.01517,0.01 -0.05256,0.012 -0.05256,0.012 l -0.321733,-0.01 0.0014,-0.019 c 0,0 -0.103364,0 -0.119239,-0.04 -0.01623,-0.036 -0.01623,-0.055 -0.01623,-0.055 h -0.05397 l -0.0085,0.092 h -0.04516 v 0.074 l 0.135467,0.013 0.09102,0.082 0.01305,-0.045 c 0,0 0.02223,-0.01 0.05186,-0.01 0.02928,0 0.277283,0.028 0.277283,0.028 l 0.01587,-0.028 c 0,0 0.01129,0.013 0.04092,0.02 0.02928,0.01 0.144992,0.013 0.179211,0.018 0.03422,0 0.04022,0.023 0.04022,0.04 v 0.065 c 0,0 -0.06315,0.023 -0.06315,0.042 0,0.019 0.0194,0.044 0.01587,0.055 -0.0021,0.012 -0.0042,0.041 -0.0021,0.05 0.0011,0.01 0.01411,0.026 0.0127,0.041 -0.0021,0.015 0.0014,0.034 0.01094,0.047 0.01023,0.013 0.0081,0.024 0.0081,0.042 0,0.018 -0.0095,0.02 0.01164,0.033 0.02117,0.013 0.02258,0.022 0.02258,0.022 v 0.2854 h 0.143581 l -0.0021,-0.2805 c 0,0 0.03634,0.01 0.07373,0 0.03704,0 0.07444,-0.014 0.07444,-0.014 0,0 0.02787,0.095 0.0822,0.095 0.05327,0 0.175683,-0.091 0.175683,-0.091 0,0 0.0018,-0.032 0.0762,-0.013 0.07514,0.019 0.118886,0.046 0.153106,0.047 0.03422,0 0.185914,-0.063 0.218017,-0.016 0.03281,0.047 0.08678,0.027 0.08678,0.027 0,0 -0.08819,0.2558 -0.08961,0.2946 -0.0021,0.04 0.01799,0.1178 0.01799,0.1178 0,0 -0.113948,0.1969 -0.130528,0.2635 -0.01658,0.067 -0.01446,0.067 -0.02928,0.09 -0.01446,0.023 -0.02752,0.068 -0.0508,0.1041 -0.02258,0.036 -0.02258,0.055 -0.02258,0.055 l 0.03916,0.027 c 0,0 -0.205317,0.4587 -0.22472,0.5137 -0.0194,0.056 -0.154516,0.2102 -0.138289,0.3602 0.01658,0.1496 0.01799,0.2917 0.02152,0.3115 0.0032,0.019 0.02011,0.051 0.0092,0.077 -0.01129,0.024 -0.03881,0.073 0.0021,0.1012 0.04022,0.03 0.04974,0.026 0.04974,0.052 0,0.025 0.01376,0.05 0.03281,0.066 0.0194,0.017 0.03916,0.1648 0.03916,0.1648 l 0.0314,0.1485 c 0,0 -0.01376,0.024 -0.02469,0.042 -0.01129,0.018 -0.0067,0.036 -0.0067,0.036 0,0 -0.01305,0.034 -0.03916,0.051 -0.02575,0.016 -0.08608,0.096 -0.08608,0.096 0,0 -0.0702,0.06 -0.100894,0.069 -0.03069,0.01 -0.152047,0.06 -0.152047,0.06 0,0 -0.124884,0.024 -0.134761,0.064 -0.0099,0.041 -0.0014,0.079 -0.0014,0.079 l -0.01164,0.029 c 0,0 0.129116,0.038 0.185914,0.044 0.05644,0 0.356305,-0.093 0.40005,-0.1023 0.04445,-0.01 0.06033,-0.015 0.08361,-0.012 0.02258,0 0.02928,0.037 0.02928,0.037 0,0 0.161572,-0.01 0.200377,-0.019 0.03881,-0.01 0.04022,-0.041 0.04022,-0.041 l -0.0049,-0.06 -0.01305,-0.015 c 0,0 0.05574,-0.089 0.04586,-0.1478 -0.0095,-0.059 -0.03528,-0.1238 -0.03528,-0.1238 0,0 0.0025,-0.093 -0.0049,-0.1175 -0.0088,-0.024 0.0028,-0.05 0.0028,-0.07 0,-0.02 -0.02293,-0.075 -0.02611,-0.093 -0.0032,-0.018 0.01305,-0.1047 0.01305,-0.1047 0,0 0.08608,-0.12 0.0762,-0.1535 -0.0092,-0.035 0.03457,-0.1291 0.02293,-0.1527 -0.01094,-0.022 -0.02752,-0.083 -0.03422,-0.1105 -0.006,-0.027 -0.0046,-0.047 0.0099,-0.079 0.01482,-0.033 0.01482,-0.075 0.0085,-0.1164 -0.0071,-0.04 -0.0021,-0.048 0.07585,-0.08 0.07832,-0.033 0.264584,-0.2223 0.294923,-0.2755 0.03104,-0.054 0.13088,-0.2315 0.187677,-0.1066 0.0575,0.126 0.229306,0.5588 0.257528,0.6047 0.02716,0.046 0.197908,0.3693 0.214489,0.4004 0.01623,0.031 0.129117,0.1009 0.143228,0.1238 0.01446,0.022 0.0702,0.1764 0.118886,0.1856 0.04868,0.01 0.123825,0 0.146403,0.03 0.02328,0.029 0.125941,0.133 0.131939,0.1446 0.0071,0.012 0.02434,0.046 0.02117,0.067 -0.0028,0.022 0.02822,0.029 0.04092,0.033 0.01305,0 0.01305,0.077 0.01305,0.077"
         id="path48436-1-5-6-8-4-8"
         style="stroke-width:0.352778" />
      <path
         d="m 101.74144,21.4319 v 0 c 0.0286,-0.01 0,0 0,0 m 0.46143,-0.9835 c 0,0 0.0268,0 0.0512,0 0.0198,0 0.0212,-0.042 0.0134,-0.1 -0.0388,0 -0.0688,-0.01 -0.0741,-0.01 -0.004,0 -0.0141,0 -0.0286,0.01 z m -1.29716,-0.7158 c 0,0 -0.0448,0.011 -0.0575,0.019 -0.0127,0.01 -0.16475,0 -0.18203,-0.01 -0.0173,0 -0.11183,-0.032 -0.11324,-0.041 -0.002,-0.01 -0.004,-0.013 -0.0145,-0.022 -0.0113,-0.01 0.008,-0.053 0.008,-0.053 l -0.589495,-0.15 -0.0095,0.017 -0.06209,-0.021 c 0,0 0.01129,0.035 0.0014,0.058 -0.0095,0.022 -0.04128,0.03 -0.04128,0.03 0,0 -0.04974,0.3161 -0.06738,0.4188 -0.01729,0.1019 -0.01305,0.2106 0.01305,0.2409 0.02575,0.03 -0.0099,0.046 -0.0099,0.046 l -0.04621,-0.011 c 0,0 -0.01446,-0.01 -0.02716,0 -0.01305,0.01 -0.03387,-0.021 -0.02858,-0.048 0.0046,-0.027 0.07832,-0.4971 0.07832,-0.4971 l -0.155575,0.3419 -0.103364,0.082 -0.02117,-0.092 c 0,0 -0.02011,-0.027 0.0053,-0.027 0.0254,0 0.06209,-0.02 0.06209,-0.02 l 0.2032,-0.4713 c 0,0 -0.0067,-0.019 0.0078,-0.054 0.01446,-0.035 0.04939,-0.03 0.04939,-0.03 l 0.0018,-0.014 -0.05645,-0.017 c 0,0 -0.02999,-0.014 -0.04269,-0.03 -0.01305,-0.016 -0.03845,-0.014 -0.03845,-0.014 l -0.02081,0.011 c 0,0 -0.15487,-0.032 -0.172861,-0.04 -0.01693,-0.01 -0.02681,-0.035 -0.02681,-0.035 0,0 -0.07514,-0.013 -0.09878,-0.015 -0.02434,0 -0.02858,-0.032 -0.02716,-0.043 0.0018,-0.011 0.0127,-0.069 0.03316,-0.06 0.02117,0.01 0.123119,0.038 0.123119,0.038 l 0.0321,-0.011 0.153458,0.027 0.248709,0.025 0.0388,-0.095 0.03492,0.018 c 0,0 -0.01305,0.042 -0.01764,0.059 -0.0046,0.018 0.0085,0.057 0.0321,0.069 0.005,0 0.0441,0.012 0.10548,0.029 -0.009,-0.046 -0.0247,-0.1245 -0.0257,-0.1435 -0.001,-0.027 0.0388,-0.1475 0.0388,-0.1475 h -0.0176 l -0.007,-0.1072 c 0,0 0.008,-0.045 -0.002,-0.094 -0.01,-0.05 0.007,-0.07 0.0145,-0.098 0.008,-0.027 -0.004,-0.1277 -0.004,-0.1277 0,0 -0.008,-0.061 10e-4,-0.075 0.01,-0.014 0.006,-0.037 -10e-4,-0.062 -0.008,-0.025 0.0363,-0.082 0.0363,-0.082 0,0 -0.01,-0.03 -0.0141,-0.067 -0.005,-0.036 0.0141,-0.046 0.0363,-0.062 0.0226,-0.016 0.0448,-0.1326 0.0466,-0.1393 0.001,-0.01 -0.003,-0.032 0.0141,-0.054 0.018,-0.022 0.013,-0.1104 0.004,-0.1468 -0.01,-0.037 0.0173,-0.072 0.0173,-0.072 0,0 -0.0254,-0.016 -0.0526,-0.011 -0.0272,0 -0.11324,0.017 -0.13405,0.021 -0.0212,0 -0.118165,0.01 -0.148504,-0.01 -0.03034,-0.016 -0.02752,-0.056 -0.02399,-0.071 0.0028,-0.014 -0.0035,-0.027 -0.01446,-0.045 -0.01164,-0.018 0.0095,-0.024 0.0095,-0.024 l -0.0014,-0.023 c 0,0 -0.02575,-0.024 -0.02893,-0.04 -0.0035,-0.015 -0.0018,-0.033 -0.0321,-0.046 -0.03034,-0.013 -0.01094,-0.029 -0.0011,-0.046 0.0092,-0.018 -0.0071,-0.042 -0.0099,-0.062 -0.0032,-0.021 -0.0032,-0.04 -0.0032,-0.04 l -0.0081,-0.021 -0.03069,-0.035 c 0,0 -0.01446,0 -0.0702,-0.018 -0.05574,-0.012 -0.02822,-0.04 -0.0011,-0.048 0.02681,-0.01 0.0314,-0.024 0.06526,-0.23 0.03351,-0.2064 0.226483,-0.2681 0.535144,-0.2374 0.30833,0.03 0.26317,0.3577 0.26494,0.3817 0.002,0.024 0.0755,0.1305 0.0755,0.1305 l 0.005,-0.025 0.13864,0.024 c 0,0 0.0116,0.014 0.072,0.025 0.061,0.012 -0.01,0.021 -0.01,0.021 0,0 0.14852,0 0.17568,0.01 0.0275,0.01 0.0512,0.013 0.11571,0.023 0.0635,0.01 0.12277,0.036 0.13723,0.046 0.0141,0.01 0.14182,0.081 0.17216,0.096 0.0303,0.014 0.0702,0.029 0.13229,0.085 0.0624,0.056 0.14111,0.081 0.14111,0.081 0,0 0.0921,-0.069 0.1083,-0.069 0.0162,0 0.26565,0.1213 0.26565,0.1213 0,0 0.0716,0.066 0.11147,0.1009 0.0402,0.035 0.0191,0.058 0.043,0.084 0.024,0.028 0.139,0.1312 0.13441,0.1422 -0.005,0.012 -0.11677,0.2 -0.11677,0.2 0,0 0.1711,0.2314 0.18839,0.2537 0.0176,0.023 0.0737,0.1344 0.0737,0.1344 0,0 0.01,0.01 -0.0226,0.039 -0.0318,0.03 -0.16581,0.084 -0.16581,0.084 0,0 -0.0162,0.034 -0.0194,0.062 -0.003,0.029 -0.0335,0.139 -0.0688,0.1679 -0.0349,0.029 -0.0653,0.1087 -0.078,0.169 -0.0127,0.061 -0.0416,0.062 -0.0628,0.1044 -0.0205,0.041 -0.0907,0.1418 -0.13688,0.1789 -0.0173,0.013 -0.0339,0.034 -0.0483,0.058 l 0.042,0.078 0.0476,0.012 c 0,0 0.043,-0.014 0.0674,-0.01 0.024,0 0.15276,0.024 0.18345,0.029 0.0303,0 0.024,0.019 0.024,0.019 0,0 0.067,0.01 0.0896,0.01 0.0222,0 0.0205,0.025 0.0205,0.025 l 0.0882,0.013 c 0,0 -0.0194,-0.026 0.008,-0.016 0.0268,0.01 0.11853,0.04 0.14993,0.049 0.0321,0.01 0.0434,0.038 0.061,0.041 0.0176,0 0.003,0.038 0.003,0.038 0,0 0.0402,-0.01 0.0751,0.01 0.0353,0.015 0.0205,0.064 0.0205,0.064 l -0.01,0.037 c 0,0 0.32455,0.1051 0.44556,0.1228 0.12171,0.018 0.19226,0.021 0.38029,-0.024 0.18838,-0.045 0.12629,0.072 0.0833,0.1213 -0.043,0.05 -0.0557,0.1535 -0.0801,0.2364 0,0 -0.005,0.053 -0.0349,0.1439 -0.0303,0.091 -0.067,0.062 -0.12947,-0.038 -0.0624,-0.1002 -0.11783,-0.088 -0.13405,-0.092 -0.0159,-0.01 -0.0526,-0.011 -0.043,-0.035 0.01,-0.024 -0.0127,-0.088 -0.048,-0.1006 -0.0243,-0.01 -0.0917,-0.031 -0.13053,-0.043 l -0.0455,0.163 -0.0589,-0.01 c 0,0 -0.006,0.016 -0.0113,0.059 -0.004,0.043 -0.0159,0.2142 -0.0272,0.278 -0.0109,0.063 -0.10689,0.1725 -0.10689,0.1725 l -0.0367,-0.014 0.0113,-0.013 c 0,0 -0.0575,-0.024 -0.0751,-0.053 -0.0138,-0.023 -0.006,-0.072 0.007,-0.1358 -0.0145,0.01 -0.0303,0.012 -0.0469,0.017 -0.0674,0.024 -0.0801,-0.01 -0.0462,-0.021 0.0332,-0.014 0.0557,-0.028 0.0557,-0.028 0,0 -0.0272,0.01 -0.0688,0.013 -0.0413,0.01 -0.0684,-0.01 -0.037,-0.018 0.0325,-0.011 0.0642,-0.029 0.0642,-0.029 0,0 -0.0589,0 -0.0896,0 -0.0303,0 -0.008,-0.026 0.01,-0.03 0.0173,-0.01 0.0797,-0.022 0.0797,-0.022 0,0 -0.0797,0 -0.10372,0 -0.024,-0.01 -0.0353,-0.02 -0.01,-0.024 0.0254,0 0.0945,-0.021 0.0945,-0.021 0,0 -0.048,-0.01 -0.0945,-0.013 -0.0466,0 -0.0222,-0.027 -10e-4,-0.029 0.0212,0 0.078,-0.016 0.078,-0.016 0,0 -0.0713,-0.018 -0.0893,-0.024 -0.0176,-0.01 -0.0363,-0.027 -0.0236,-0.029 0.0127,0 0.0815,-0.01 0.0815,-0.01 0,0 -0.0384,-0.01 -0.072,-0.028 -0.0339,-0.02 -0.0258,-0.018 -0.0113,-0.02 0.0145,0 0.0635,0 0.0635,0 0,0 -0.009,-0.01 -0.0381,-0.019 -0.0131,-0.01 -0.0275,-0.019 -0.0392,-0.031 -0.0148,0 -0.031,0 -0.0473,0 -0.005,3e-4 -0.0113,3e-4 -0.0183,3e-4 0.004,0.023 0.009,0.046 0.009,0.046 0,0 0.003,0.031 -0.003,0.067 -0.006,0.037 -0.054,0.042 -0.073,0.035 -0.0194,-0.01 -0.10548,-0.037 -0.10266,-0.029 0.003,0.01 -0.003,0.024 -0.0194,0.024 -0.0155,0 -0.0713,-0.022 -0.0938,-0.031 -0.0141,-0.01 -0.0448,-0.065 -0.0663,-0.1093 -0.0324,0.01 -0.0646,0.015 -0.0822,0.015 -0.0416,0 -0.19191,0.01 -0.22684,0 -0.0353,-0.013 -0.0289,0.026 -0.0416,0.046 -0.0127,0.021 -0.0141,0.04 -0.008,0.045 0.007,0 0.037,0.033 0.0388,0.056 10e-4,0.022 -0.008,0.042 10e-4,0.042 0.01,0 0.008,0.033 0.008,0.052 0,0.019 0.0257,0.034 0.0384,0.058 0.0127,0.024 0.006,0.069 0.006,0.082 0,0.013 0.0194,0.03 0.024,0.04 0.005,0.01 0.024,0.067 0.0335,0.088 0.01,0.02 0.005,0.057 0.005,0.065 0,0.01 0.0349,0.026 0.043,0.054 0.008,0.029 0.013,0.088 0.0272,0.1023 0.0145,0.015 0.0127,0.024 0.0127,0.024 0,0 0.0145,0.086 0.0303,0.1087 0.0162,0.023 0.005,0.079 0.005,0.079 l 10e-4,0.086 c 0,0 -10e-4,0.029 -0.0444,0.037 -0.043,0.01 -0.22542,0.019 -0.22542,0.019 l -0.001,-0.024 c -0.0116,0 -0.0318,0.01 -0.0656,0.018 -0.12136,0.034 -0.31009,0.072 -0.43639,0.053 0,0 -0.0127,0 -0.0988,-0.014 -0.0864,-0.019 -0.0924,-0.066 -0.0924,-0.066 l 0.0169,-0.027 c 0,0 0.002,-0.014 0.0145,-0.048 0.013,-0.033 0.0646,-0.045 0.1203,-0.056 0.0557,-0.011 0.17074,-0.049 0.18521,-0.058 0.0141,-0.01 0.0878,-0.072 0.0988,-0.087 0.0113,-0.016 0.0593,-0.059 0.0593,-0.059 0,0 0,-0.028 0.0113,-0.05 0.0109,-0.022 -0.0127,-0.03 -0.0254,-0.048 -0.0127,-0.017 -0.007,-0.042 -0.0102,-0.056 -0.003,-0.014 -0.0314,-0.046 -0.0314,-0.046 0,0 -0.0275,-0.025 -0.043,-0.072 -0.0162,-0.046 -0.0466,-0.082 -0.061,-0.1009 -0.0145,-0.018 0.002,-0.03 0.002,-0.03 0,0 -0.085,-0.041 -0.091,-0.09 -0.007,-0.048 -0.0526,-0.046 -0.0815,-0.058 -0.0289,-0.011 -0.0466,-0.043 -0.0497,-0.073 -0.003,-0.031 -0.043,-0.067 -0.0511,-0.079 -0.008,-0.011 -0.0349,-0.071 -0.0303,-0.1146 0.005,-0.045 -0.0381,-0.063 -0.0579,-0.079 -0.0187,-0.016 -0.0236,-0.1115 -0.0279,-0.1549 -0.005,-0.043 -0.031,-0.1086 -0.061,-0.206 -0.007,-0.02 -0.004,-0.052 0.006,-0.09 z m -0.37147,-0.6477 c -0.008,0 -0.0152,-0.01 -0.0152,-0.018 0,-0.011 0.008,-0.019 0.0191,-0.019 -7.1e-4,-0.01 -0.001,-0.015 -0.001,-0.022 -0.01,-3e-4 -0.0176,-0.01 -0.0176,-0.019 0,-0.01 0.008,-0.018 0.0183,-0.018 h 0.004 c 0.001,-0.01 0.002,-0.012 0.003,-0.021 -0.006,0 -0.0109,-0.01 -0.0109,-0.018 0,-0.01 0.007,-0.017 0.0162,-0.019 3.5e-4,-0.01 0.001,-0.012 0.002,-0.018 -0.004,0 -0.006,-0.01 -0.006,-0.016 0,-0.01 0.004,-0.017 0.009,-0.02 0.001,-0.01 0.002,-0.015 0.002,-0.023 -0.006,0 -0.0113,-0.012 -0.0113,-0.019 0,-0.01 0.006,-0.018 0.0145,-0.021 v -0.01 c -3.6e-4,0 -10e-4,-4e-4 -0.002,-4e-4 -0.0127,0 -0.0222,-0.019 -0.0205,-0.036 10e-4,-0.016 0.0205,-0.016 0.0205,-0.016 0,0 -0.005,-0.01 -0.0127,-0.022 -0.008,-0.013 0.007,-0.035 0.007,-0.035 0,0 -0.013,-0.01 -0.0162,-0.032 -0.004,-0.022 0.01,-0.024 0.01,-0.024 0,0 -0.0258,-0.013 -0.0222,-0.03 0.003,-0.018 0.0222,-0.023 0.0222,-0.023 l -0.0416,-0.023 c 0,0 -0.003,0.013 -0.008,0.02 -0.005,0.01 -0.0575,0.1128 -0.0497,0.14 0.008,0.028 -0.0141,0.061 -0.0258,0.083 -0.0109,0.023 -0.0332,0.1661 -0.0423,0.1951 -0.0102,0.029 -0.0483,0.04 -0.0483,0.04 0,0 0.0208,0.072 0.0303,0.1027 0.01,0.03 -0.0109,0.036 -0.0109,0.036 0,0 0,0.035 0.001,0.042 0.001,0.01 0.008,0.045 0.003,0.065 -0.004,0.021 -0.0141,0.037 -0.0205,0.072 -0.006,0.035 -0.0416,0 -0.0444,-0.01 -0.004,-0.011 -0.0131,-0.068 -0.005,-0.099 0.008,-0.03 -0.0187,-0.036 -0.0187,-0.036 0,0 -0.061,0.063 -0.0656,0.073 -0.003,0.01 0.0109,0.051 0.0201,0.079 0.25117,0.064 0.64558,0.1623 0.77964,0.1958 0.0473,-0.1161 0.10301,-0.2286 0.11394,-0.2551 0.0205,-0.051 -0.0511,-0.065 -0.0511,-0.065 l -0.17886,-0.109 c 0,0 0.0127,-0.053 0.024,-0.066 0.0109,-0.012 0.12101,-0.1291 0.12101,-0.1291 0,0 -0.0991,-0.043 -0.13229,-0.1058 -0.0335,-0.062 0.0145,-0.1327 0.0145,-0.1327 0,0 0.0127,-0.02 0.002,-0.043 -0.0116,-0.022 -0.10901,-0.073 -0.14888,-0.093 -0.0402,-0.019 -0.0557,-0.063 -0.13723,-0.1115 -0.0818,-0.048 -0.0702,-0.028 -0.0702,-0.028 0,0 0.001,0.01 0.001,0.02 0,0.011 -0.0127,0.027 -0.0127,0.027 0,0 0.0243,0.01 0.0307,0.023 0.006,0.016 -0.006,0.032 -0.006,0.032 0,0 0.0176,0.018 0.0208,0.029 0.003,0.011 -0.007,0.03 -0.007,0.03 0,0 0.0113,0.013 0.013,0.029 0.002,0.016 -0.0162,0.031 -0.0162,0.031 0,0 0.0127,0.011 0.0127,0.03 0,0.02 -0.0141,0.024 -0.0141,0.024 0,0 0.024,0.01 0.0286,0.024 0.005,0.014 -0.0254,0.03 -0.0254,0.03 0,0 0.0145,0 0.0145,0.021 0,0.013 -0.013,0.026 -0.0258,0.03 v 0 c 0.012,7e-4 0.0208,0.011 0.0208,0.023 0,0.012 -0.01,0.022 -0.0226,0.022 h -0.001 c -3.5e-4,0.01 -7e-4,0.012 -0.001,0.018 0.008,0 0.0159,0.011 0.0159,0.023 0,0.012 -0.008,0.022 -0.0176,0.022 -10e-4,0 -0.002,-3e-4 -0.004,-3e-4 l -0.001,0.013 c 0.007,0 0.0131,0.01 0.0131,0.018 0,0.01 -0.008,0.019 -0.0183,0.019 -10e-4,0.01 -0.003,0.018 -0.004,0.024 0.004,0 0.006,0.01 0.006,0.013 0,0.01 -0.004,0.013 -0.0102,0.017 3.6e-4,0.01 0.001,0.019 0.002,0.028 0.005,0 0.008,0.01 0.008,0.015 0,0.01 -0.004,0.013 -0.01,0.016 l -3.5e-4,7e-4 c -0.002,0 -0.007,0.012 -0.0127,0.018 0.007,0.01 0.0222,0.022 0.0198,0.031 -0.004,0.011 -0.0307,0.011 -0.0307,0.011 0,0 0.006,0.019 0,0.031 -0.006,0.011 -0.0321,0 -0.0321,0 0,0 0.0116,0.029 0.002,0.039 -0.01,0.01 -0.0367,0 -0.043,0 -0.006,-0.01 -0.0275,-0.032 -0.0286,-0.039 -0.002,-0.01 -0.0303,-0.036 -0.0194,-0.042 0.0113,-0.01 0.0511,0.019 0.0511,0.019 0,0 -0.0113,-0.019 -0.0141,-0.028 -0.003,-0.01 -0.0127,-0.017 0.003,-0.016 0.0159,0 0.0258,0.01 0.0367,0.011 0.0116,0 0.009,-0.011 0.003,-0.022 -0.005,-0.011 0,-0.017 0.01,-0.016 0.007,0 0.0265,0.011 0.0356,0.014 0.004,0 0.006,-0.01 0.008,-0.012"
         id="path171058-7-4-3-9-4-0"
         style="stroke-width:0.352778" />
      <path
         d="m 87.80544,18.6644 c 0.02011,-0.023 0.03704,-0.1076 0.03704,-0.1076 0,0 -0.01693,-0.062 -0.04833,-0.057 -0.0314,0.01 -0.159103,0.01 -0.175683,-0.034 -0.01729,-0.042 -0.02575,-0.091 -0.02575,-0.091 l -0.201436,-0.031 c 0,0 0.06279,0.063 0.06279,0.088 0,0.025 0,0.04 0.0254,0.068 0.0254,0.029 0.0762,0.049 0.09031,0.085 0.01411,0.037 0.04269,0.1362 0.04269,0.1362 l 0.121709,0.068 c 0.02858,-0.053 0.05151,-0.1019 0.07126,-0.1245 m -1.483784,-0.363 c -0.01129,0.073 0.04868,0.073 0.173214,0.093 0.111831,0.018 0.295275,-0.046 0.363714,-0.078 l -0.0035,-7e-4 c -0.05644,-0.027 -0.116416,-0.08 -0.116416,-0.08 0,0 -0.328789,-0.037 -0.35172,-0.048 -0.01164,-0.01 -0.04621,-0.013 -0.0762,-0.019 0.01305,0.03 0.01905,0.082 0.01094,0.133 m 2.116314,2.1928 c -0.06279,-0.043 -0.03105,-0.1703 -0.02858,-0.2187 0.0032,-0.048 -0.07655,-0.037 -0.118886,-0.034 -0.04269,0 -0.10795,0.017 -0.153106,-0.017 -0.04551,-0.034 -0.25788,-0.028 -0.25788,-0.028 0,0 -0.0032,0.048 -0.02328,0.06 -0.0194,0.011 -0.03387,0.022 -0.0194,0.059 0.01411,0.037 -0.01129,0.093 -0.02328,0.1189 -0.01094,0.026 -0.01658,0.034 -0.0081,0.06 0.0081,0.026 -0.0568,0.073 -0.110772,0.088 -0.05397,0.014 -0.02258,0.2127 -0.0081,0.2833 0.01411,0.071 -0.06279,0.1735 -0.06279,0.1735 0,0 0.02011,0.062 0.02822,0.082 0.0092,0.019 0.006,0.187 0.02011,0.2438 0.01446,0.056 -0.01411,0.06 -0.01411,0.06 0,0 -0.01411,0.065 -0.03953,0.074 -0.02575,0.01 -0.2159,-0.01 -0.2159,-0.01 l -0.0028,-0.051 c 0,0 -0.141816,0.031 -0.263877,0.059 -0.122044,0.029 -0.379924,-0.01 -0.44801,-0.018 -0.06809,-0.011 -0.08819,-0.028 -0.08819,-0.028 l 0.02011,-0.02 c 0,0 -0.03704,-0.085 -0.0085,-0.1104 0.02822,-0.025 0.283282,-0.043 0.343254,-0.046 0.05927,0 0.0822,-0.04 0.11042,-0.054 0.02858,-0.014 0.201436,-0.1873 0.201436,-0.1873 0,0 -0.01976,-0.034 -0.03105,-0.051 -0.01129,-0.018 -0.0056,-0.043 0.0085,-0.068 0.01411,-0.026 -0.0028,-0.116 -0.0085,-0.1305 -0.0056,-0.014 -0.0056,-0.062 0.0025,-0.1136 0.0088,-0.051 0,-0.1757 0,-0.1757 0,0 -0.02822,-0.051 -0.05927,-0.085 -0.03105,-0.034 -0.0254,-0.108 -0.0028,-0.1446 0.02258,-0.037 -0.01129,-0.1447 -0.01129,-0.1842 0,-0.04 0.0568,-0.199 0.05962,-0.2244 0.0025,-0.025 0.0025,-0.1361 0.04516,-0.2638 0.04269,-0.1277 0.224366,-0.1302 0.314677,-0.1503 0.09102,-0.019 0.02258,-0.057 -0.03104,-0.1161 -0.05398,-0.06 -0.150283,-0.2102 -0.167217,-0.2441 -0.01729,-0.034 0.0085,-0.099 -0.06562,-0.1418 -0.07338,-0.042 -0.06809,-0.093 -0.05645,-0.1217 0.01164,-0.029 0.0822,-0.108 0.05398,-0.1732 -0.02822,-0.065 -0.06562,-0.1133 -0.06562,-0.1133 0,0 -0.138994,-0.074 -0.175683,-0.1136 -0.02646,-0.029 -0.09948,-0.057 -0.159103,-0.08 -0.07726,0.03 -0.248002,0.094 -0.374297,0.1083 -0.167217,0.02 -0.263878,-0.056 -0.289278,-0.091 -0.0254,-0.034 -0.02822,-0.097 -0.02822,-0.1298 0,-0.022 0.01517,-0.051 0.03281,-0.068 l -0.29927,-0.04 c 0,0 -0.03986,0.017 -0.0769,0.011 -0.03669,-0.01 -0.09349,-0.02 -0.09349,-0.02 0,0 -0.105128,-0.011 -0.122061,-0.014 -0.01729,0 -0.02258,-0.023 -0.02258,-0.023 0,0 -0.150284,0 -0.187325,-0.011 -0.03704,-0.01 -0.03986,-0.031 -0.03986,-0.031 0,0 -0.138642,-0.014 -0.158397,-0.017 -0.02011,0 -0.01729,-0.068 0.0081,-0.068 0.0254,0 0.03457,0 0.03457,0 0,0 0.0025,-0.054 0.02222,-0.054 0.02011,0 0.07691,0.01 0.110772,0.01 0.03387,0 0.006,0.068 0.006,0.068 l 0.317147,0.026 c 0,0 0.02822,-0.01 0.04551,-0.011 0.01729,-0.01 0.113594,0.014 0.113594,0.014 l 0.0508,0.01 0.238478,0.01 c 0,0 0.07937,-0.011 0.09913,-0.011 0.01976,0 0.05115,0.025 0.05115,0.025 h 0.714729 l 0.03704,0.031 0.153105,0.01 c 0,0 0.05115,-0.017 0.07091,-0.014 0.01976,0 0.06244,0.012 0.06244,0.012 l 0.150283,0.011 c 0,0 0.03951,-0.017 0.05997,-0.017 0.0194,0 0.0508,0.031 0.0508,0.031 l 0.110419,0.01 c 0,0 0.05997,-0.02 0.10795,-0.017 0.04798,0 0.06809,0.1 0.06809,0.1 0,0 0.01693,0.01 0.04233,0.011 0.0254,0 0.102305,0.054 0.102305,0.054 0,0 -0.01129,-0.082 -0.02293,-0.1249 -0.01129,-0.042 0.0032,-0.065 0.0032,-0.065 l -0.04233,-0.074 c 0,0 -0.04304,-0.012 -0.06244,-0.019 -0.02011,-0.01 -0.01729,-0.034 -0.01729,-0.034 0,0 0.09066,-0.1729 0.130528,-0.2466 0.03951,-0.074 0.105128,-0.2325 0.433917,-0.1955 0.329141,0.037 0.326318,0.3458 0.340429,0.4167 0.01411,0.071 0.01411,0.1248 0.02575,0.1079 0.01094,-0.017 0.0568,-0.031 0.09349,-0.026 0.03634,0.01 0.218017,0.176 0.266348,0.2074 0.04833,0.031 0.02011,0.071 0.02893,0.082 0.0081,0.011 0.121708,0.1249 0.147108,0.1874 0.0254,0.062 0.0053,0.3489 -0.0028,0.4254 -0.0085,0.077 -0.09102,0.1958 -0.09666,0.2328 -0.0056,0.037 0.03669,0.139 0.03669,0.139 0,0 0.144992,0.01 0.221897,0.031 0.07655,0.025 0.02222,0.1958 0.02222,0.1958 0,0 -0.02222,0.1189 -0.02787,0.1697 -0.006,0.051 0.02787,0.043 0.01411,0.267 -0.01411,0.2244 -0.187678,0.2554 -0.187678,0.2554 0,0 0,0.065 0.006,0.1193 0.0056,0.054 -0.0085,0.2519 -0.0085,0.2519 l -0.07973,0.012 -0.07091,0.2582 0.352073,-0.088 c 0,0 0.147108,-0.018 0.20708,-0.037 0.05927,-0.02 0.09631,0.019 0.09631,0.019 0,0 0.06526,0 0.08502,0.023 0.02011,0.02 0.03387,0.2155 0.03387,0.2155 0,0 -0.03951,0.014 -0.01376,0.068 0.0254,0.054 -0.0088,0.2667 -0.04269,0.3291 -0.03422,0.062 -0.07937,0.062 -0.246591,0.071 -0.167923,0.01 -0.07973,-0.2018 -0.07655,-0.2127 0.0025,-0.012 0.05115,-0.074 0.03387,-0.1136 -0.01729,-0.04 -0.03951,-0.017 -0.06526,-0.01 -0.0254,0.01 -0.06809,0.054 -0.105128,0.1044 -0.03704,0.052 -0.07091,0.04 -0.07091,0.04 0,0 -0.2159,0.1333 -0.331964,0.1816 -0.116417,0.048 -0.320675,0.077 -0.411339,0 -0.09066,-0.077 -0.170038,-0.7295 -0.175682,-0.8628 0,0 -0.006,0 -0.06809,-0.045"
         id="path171062-1-1-6-4-9-8"
         style="stroke-width:0.352778" />
      <path
         d="m 97.057612,18.6008 -0.07655,-0.032 0.05821,0.1118 z m 1.569861,1.9152 c -0.05045,-0.034 -0.100542,-0.1118 -0.127353,-0.1541 -0.02646,-0.042 -0.143581,-0.069 -0.167217,-0.1994 -0.02399,-0.1305 -0.06632,-0.1379 -0.09313,-0.1778 -0.02646,-0.04 -0.164747,-0.2734 -0.185914,-0.3161 -0.02117,-0.043 -0.218017,-0.364 -0.218017,-0.364 0,0 -0.01305,0.01 -0.05821,0.072 -0.04516,0.064 -0.06385,0.1834 -0.09596,0.2766 -0.0314,0.093 -0.02646,0.1118 -0.01023,0.1249 0.01587,0.013 0.06103,0.058 0.06632,0.1037 0.0053,0.045 0.02117,0.1164 0.05574,0.1376 0.03492,0.022 0.05327,0.088 0.09031,0.1199 0.0374,0.032 0.01835,0.1118 0.01835,0.1432 0,0.032 0.07197,0.1171 0.09349,0.1277 0.02117,0.011 0.05821,0.085 0.07937,0.098 0.02152,0.013 0.106539,0.1358 0.106539,0.1358 0,0 0.08502,0.09 0.116416,0.1246 0.0321,0.034 0.04551,0.019 0.04551,0.019 0,0 0.02928,0.024 0.0956,0.098 0.06632,0.075 -0.02681,0.2127 -0.02681,0.2127 l -0.0261,-0.019 c 0,0 -0.02963,0.1196 -0.05045,0.1595 -0.02152,0.04 -0.0508,0.1274 -0.132998,0.2152 -0.08255,0.087 -0.201789,0.045 -0.201789,0.045 L 97.98436,21.47 c 0,0 -0.03669,-0.01 -0.04727,-0.064 -0.01058,-0.058 0.05574,-0.1379 0.08255,-0.1884 0.02646,-0.05 -0.0081,-0.2868 -0.0056,-0.3132 0.0028,-0.027 -0.109008,-0.099 -0.119239,-0.12 -0.01094,-0.021 -0.08008,-0.1009 -0.08008,-0.1009 0,0 -0.100895,-0.034 -0.154164,-0.1189 -0.05292,-0.085 -0.18027,-0.088 -0.225778,-0.096 -0.0448,-0.01 -0.108655,-0.067 -0.12453,-0.1087 -0.01587,-0.043 -0.130528,-0.1756 -0.202142,-0.2631 -0.07126,-0.088 -0.07408,-0.2978 -0.08431,-0.3853 -0.01129,-0.088 -0.01376,-0.5231 -0.01376,-0.5231 l -0.0448,-0.016 0.0314,-0.2208 -0.201789,-0.3503 c 0,0 -0.03457,0.034 -0.05609,0.029 -0.02117,-0.01 -0.02117,-0.01 -0.03387,-0.01 -0.01341,0 -0.02963,0.018 -0.04551,0.015 -0.01623,0 -0.03422,-0.021 -0.04762,-0.021 -0.01305,0 -0.03493,0.013 -0.04833,0.01 -0.0127,-0.01 -0.04727,-0.016 -0.04727,-0.016 0,0 -0.04515,0 -0.06421,-0.016 -0.01834,-0.016 -0.02364,-0.048 -0.02364,-0.048 l -0.130528,0.061 -0.03951,0.069 -0.14605,-0.027 -0.100894,0.059 -0.0321,-0.08 0.05045,-0.021 c 0,0 -0.05045,-0.1086 -0.0025,-0.1221 0.04798,-0.013 0.100894,0.071 0.100894,0.071 0,0 0.23107,-0.093 0.223308,-0.1086 -0.0081,-0.016 0.01305,-0.032 0.03175,-0.066 0.0187,-0.035 0.03739,-0.064 0.03739,-0.064 0,0 -0.01623,-0.046 -0.01623,-0.072 0,-0.027 0.08255,-0.061 0.106187,-0.093 0.02364,-0.032 0.0028,-0.069 0.01094,-0.088 0.0078,-0.019 0.03175,-0.021 0.04516,-0.034 0.01305,-0.013 0.01587,-0.074 0.03422,-0.093 0.0187,-0.019 0.0508,-0.042 0.04798,-0.056 -0.0028,-0.013 -0.02646,-0.029 -0.02117,-0.056 0.0053,-0.027 0.03986,-0.1225 0.04762,-0.1726 0.0078,-0.051 0.01305,-0.1305 0.0056,-0.1728 -0.0085,-0.042 0.04198,-0.1115 0.05539,-0.1489 0.01376,-0.037 0.04762,-0.2554 0.05856,-0.2893 0.01058,-0.034 0.124883,-0.1725 0.124883,-0.1725 0,0 -0.02117,0 -0.04269,-0.01 -0.02117,-0.01 -0.04233,-0.058 -0.05856,-0.098 -0.01552,-0.039 -0.03669,-0.1061 -0.04763,-0.127 -0.01058,-0.021 -0.04516,-0.104 -0.04516,-0.104 0,0 -0.03951,-0.021 -0.04762,-0.053 -0.0081,-0.032 -0.02152,-0.016 -0.03986,-0.024 -0.0187,-0.01 -0.06385,-0.024 -0.06385,-0.024 0,0 0.0053,-0.1806 0.117122,-0.364 0.111478,-0.1831 0.244122,-0.1591 0.467431,-0.1648 0.222602,-0.01 0.307975,0.3588 0.307975,0.3588 0,0 0.03951,0.026 0.05292,0.061 0.01341,0.035 0.0056,0.087 0.0056,0.087 h 0.03951 c 0.01905,0 0.11677,0.016 0.154164,0.061 0.03704,0.045 0.111478,0.053 0.175683,0.082 0.0635,0.03 0.02646,0.1034 0.03951,0.109 0.01341,0 0.05574,0.013 0.101248,0.021 0.0448,0.01 0.148519,0.096 0.201789,0.1411 0.05327,0.045 0.05327,0.09 0.0635,0.1115 0.01094,0.021 0.148872,0.1778 0.170038,0.212 0.02117,0.035 0.141112,0.1968 0.156634,0.2448 0.01587,0.048 0.04515,0.1037 0.07973,0.146 0.03457,0.042 0.02399,0.095 -0.02399,0.2255 -0.04763,0.1309 -0.04763,0.133 -0.08996,0.1862 -0.04269,0.053 -0.17533,0.2202 -0.17533,0.2202 0,0 0.07973,-0.029 0.151694,-0.042 0.07126,-0.013 0.111478,0.1567 0.116417,0.2018 0.0053,0.046 0.08537,0.1623 0.119592,0.3006 0.03457,0.1379 -0.07973,0.1834 -0.07973,0.1834 0,0 0.01587,0.058 0.01587,0.1034 0,0.045 -0.04233,0.082 -0.04233,0.082 0,0 0.0078,0.048 -0.0049,0.075 -0.01341,0.026 -0.06174,0.015 -0.06174,0.015 0,0 0.01905,0.1697 0.04516,0.2156 0.02681,0.045 0.109008,0.2603 0.119592,0.3527 0.01058,0.093 0.04551,0.181 0.114652,0.2233 0.06879,0.042 0.0635,0.087 0.07373,0.1489 0.01058,0.061 0.01905,0.1351 0.05115,0.1616 0.0314,0.026 0.04198,0.064 0.03951,0.133 -0.0028,0.069 0.01588,0.098 0.05327,0.122 0.03704,0.024 0.04763,0.1383 0.05327,0.1733 0.0049,0.034 0.03175,0.1538 0.08502,0.1986 0.05292,0.045 0.03986,0.1277 0.03986,0.1277 0,0 0.06068,0.1093 0.07938,0.1302 0.0187,0.022 0.0187,0.077 0.0187,0.098 0,0.021 0.02364,0.085 0.02364,0.085 l -0.07937,0.082 c 0,0 -0.09349,0.075 -0.159455,0.088 -0.06632,0.013 -0.201789,-0.027 -0.201789,-0.027 l 0.01023,-0.029 c 0,0 -0.01023,-0.011 0,-0.066 0.01094,-0.056 0.04269,-0.093 0.05856,-0.1274 0.01588,-0.035 0.0028,-0.1679 0.0028,-0.1679 l -0.02364,-0.015 c 0,0 -0.05115,-0.088 -0.09349,-0.1387 -0.04233,-0.05 -0.153811,-0.1668 -0.220486,-0.2705 0,0 -0.04516,-0.034 -0.0956,-0.069"
         id="path171066-7-9-4-7-8-1"
         style="stroke-width:0.352778" />
      <path
         d="m 94.878539,20.7571 c -0.0025,0.038 0.02187,0.2008 0.02505,0.2145 0.0025,0.013 0.06562,-0.074 0.07691,-0.1016 0.01094,-0.027 0.02963,-0.069 0.03528,-0.093 0.0056,-0.025 0,-0.068 0.0056,-0.085 0.0053,-0.017 -0.159456,-0.157 -0.159456,-0.157 0.0088,0.058 0.01976,0.1845 0.01658,0.2222 m -1.176866,-2.8197 c -0.0056,-0.038 0.01094,-0.085 0.03845,-0.088 0.02752,0 0.04974,0.01 0.05503,-0.011 0.0053,-0.019 -0.03281,-0.1344 -0.03281,-0.1344 0,0 -0.14852,0.1676 -0.178506,0.1894 -0.02999,0.022 -0.156281,0.085 -0.180975,0.085 -0.02434,0 -0.131939,-0.024 -0.153811,-0.076 -0.02187,-0.052 -0.02469,-0.077 -0.04657,-0.1263 -0.02187,-0.05 -0.02999,-0.079 -0.01623,-0.1098 0.01376,-0.03 0.01094,-0.063 0.0081,-0.079 -0.0028,-0.017 0,-0.077 0.01658,-0.096 0.01623,-0.019 -0.0056,-0.025 -0.0085,-0.058 -0.0025,-0.033 -0.03563,-0.052 0.01094,-0.1045 0.04657,-0.052 0.07973,-0.1315 0.07973,-0.1315 l -0.03316,-0.038 c 0,0 -0.03034,-0.02 -0.04904,-0.036 -0.0194,-0.016 -0.04692,-0.044 -0.04974,-0.074 -0.0025,-0.03 -0.0025,-0.099 -0.0025,-0.099 l -0.04974,-0.021 c 0,0 -0.0575,0.1531 -0.06844,0.1831 -0.01094,0.031 -0.05786,0.082 -0.05997,0.1432 -0.0028,0.06 -0.03598,0.1725 0.02963,0.362 0.06632,0.1894 0.0635,0.2688 0.109714,0.3072 0.04692,0.038 0.129117,0.074 0.195086,0.088 0.06562,0.013 0.265994,0.052 0.337608,0.099 0.07091,0.047 0.08502,0.041 0.08502,0.041 -0.0194,-0.063 -0.03034,-0.1757 -0.03598,-0.2138 m 0.820561,2.782 c -0.0056,-0.063 -0.08537,-0.2498 -0.09313,-0.2745 -0.0085,-0.025 -0.0056,-0.044 -0.0056,-0.058 0,-0.014 -0.140052,-0.1535 -0.159102,-0.1891 -0.0194,-0.036 -0.02223,-0.1866 -0.03034,-0.2498 -0.0081,-0.063 -0.05468,-0.1125 -0.07973,-0.1397 -0.02434,-0.028 -0.06033,-0.2035 -0.06033,-0.2307 0,-0.028 -0.117828,-0.532 -0.134409,-0.5429 -0.01658,-0.011 -0.04904,-0.017 -0.08784,-0.019 -0.03845,0 -0.04092,-0.017 -0.04092,-0.017 v -0.052 l -0.0575,-0.017 c 0,0 -0.03316,-0.1041 0.03034,-0.1944 0.06279,-0.09 0.100895,-0.4473 0.100895,-0.4473 0,0 -0.191911,-0.093 -0.323497,-0.1482 -0.131586,-0.055 -0.375709,-0.104 -0.403225,-0.1097 -0.02752,-0.01 -0.153811,-0.14 -0.175331,-0.2226 -0.02187,-0.082 -0.123825,-0.3919 -0.126647,-0.4604 -0.0028,-0.069 0.09913,-0.2963 0.134408,-0.3951 0.03598,-0.099 0.02505,-0.093 0.02505,-0.093 l -0.22225,-0.1259 h -0.03316 l -0.02999,-0.02 -0.04374,-0.035 -0.04692,-0.02 -0.0028,-0.03 -0.293158,-0.1454 0.01376,-0.03 0.180622,0.091 0.0085,-0.019 -0.178153,-0.09 -0.04692,-0.011 -0.04939,-0.042 -0.06033,-0.03 0.03598,-0.049 0.02999,0.016 0.02469,-0.044 0.115006,0.063 -0.01623,0.049 0.285397,0.1404 0.04374,0.017 0.0053,0.019 0.05786,0.025 h 0.01905 l 0.03281,0.016 0.0081,0.022 0.450497,0.2 0.244123,0.1207 0.05997,-0.055 c 0.03034,-0.028 0.04127,-0.03 0.06068,-0.082 0.01905,-0.052 0.126294,-0.096 0.1397,-0.1094 0.01376,-0.014 0.0081,-0.049 -0.01658,-0.1125 -0.02434,-0.063 -0.04092,-0.1676 -0.04092,-0.1676 0,0 -0.06315,-0.019 -0.07973,-0.039 -0.01658,-0.019 -0.01658,-0.041 -0.07691,-0.098 -0.05997,-0.058 0.03316,-0.1344 0.0635,-0.1757 0.02999,-0.041 0.05186,-0.1534 0.08502,-0.2085 0.03281,-0.055 0.153458,-0.1044 0.383822,-0.082 0.230364,0.022 0.268816,0.1207 0.279753,0.1814 0.01094,0.06 0.06068,0.3312 0.09631,0.3944 0.03528,0.063 0.0056,0.055 -0.02752,0.055 -0.03281,0 -0.09631,-0.011 -0.09631,-0.011 0,0 -0.0078,0.01 -0.02716,0.036 -0.0194,0.03 -0.0081,0.052 0.0053,0.06 0.01411,0.01 0.04692,-0.01 0.112536,-0.027 0.06632,-0.019 0.128764,0.046 0.159102,0.066 0.03034,0.019 0.08537,0.011 0.107245,0.014 0.02187,0 0.128764,0.099 0.134055,0.132 0.0056,0.033 0.04974,0.052 0.06562,0.074 0.01658,0.021 0.04974,0.032 0.08537,0.063 0.03598,0.03 0.02752,0.1153 0.0635,0.1315 0.03528,0.017 0.183445,0.2664 0.232834,0.2936 0.04939,0.028 0.04939,0.085 0.06597,0.1481 0.01658,0.063 0.09031,0.1207 0.115358,0.1732 0.02434,0.052 0.01305,0.1478 -0.01623,0.2219 -0.03069,0.074 -0.167569,0.1291 -0.214489,0.1397 -0.04621,0.011 -0.159103,0.063 -0.159103,0.063 l 0.0635,0.058 -0.03281,0.068 c 0,0 0.10407,-0.027 0.139348,-0.03 0.03598,0 0.04939,0.057 0.06315,0.1066 0.01376,0.049 0.02752,0.2413 0.05786,0.3923 0.02963,0.151 -0.110067,0.2363 -0.110067,0.2363 0,0 -0.0025,0.03 0,0.041 0.0028,0.011 -0.02999,0.066 -0.05186,0.088 -0.02187,0.022 -0.0635,-0.01 -0.0635,-0.01 0,0 0.01094,0.036 -0.01623,0.06 -0.02752,0.025 -0.123472,0.036 -0.123472,0.036 0,0 -0.0081,0.032 -0.0081,0.044 0,0.011 -0.06562,0.1097 -0.07126,0.1288 -0.0056,0.019 0.03281,0.1069 -0.0085,0.2085 -0.04092,0.1019 -0.109714,0.1809 -0.121003,0.1947 -0.01058,0.014 -0.03246,0.1072 -0.03246,0.1072 0,0 0.05221,0.088 0.03034,0.1288 -0.02187,0.041 -0.01623,0.098 -0.01623,0.098 0,0 0.120297,0.1073 0.183092,0.2198 0.0635,0.1122 0.126647,0.09 0.183797,0.1178 0.05821,0.027 0.03069,0.077 0.03069,0.077 0,0 0.06562,0.033 0.117475,0.063 0.05221,0.03 0.0635,0.1093 0.0635,0.1093 0,0 0.02187,0.039 0.04128,0.075 0.0187,0.036 -0.07726,0.1644 -0.07726,0.1644 h -0.04939 c 0,0 -0.0056,0.069 -0.0025,0.093 0.0025,0.025 -0.06315,0.189 -0.112889,0.2469 -0.04904,0.058 -0.1397,0.06 -0.246592,0.058 -0.107244,0 -0.04198,-7e-4 -0.1016,0.1093 -0.05468,0.102 -0.159102,0.1891 -0.356305,0.1891 -0.197909,0 -0.04374,-0.1781 0.04621,-0.3066 0.09066,-0.1294 0.0194,-0.1763 0.01376,-0.2772 0,0 -0.03246,-0.1429 -0.0381,-0.2057"
         id="path171070-1-6-3-4-7-6"
         style="stroke-width:0.352778" />
      <path
         d="m 119.21274,21.4319 v 0 c 0.0286,-0.01 0,0 0,0 m 0.46143,-0.9835 c 0,0 0.0268,0 0.0511,0 0.0198,0 0.0212,-0.042 0.0134,-0.1 -0.0388,0 -0.0688,-0.01 -0.0741,-0.01 -0.004,0 -0.0141,0 -0.0286,0.01 z m -1.29716,-0.7158 c 0,0 -0.0448,0.011 -0.0575,0.019 -0.0127,0.01 -0.16475,0 -0.18204,-0.01 -0.0173,0 -0.11183,-0.032 -0.11324,-0.041 -0.002,-0.01 -0.004,-0.013 -0.0145,-0.022 -0.0113,-0.01 0.008,-0.053 0.008,-0.053 l -0.58949,-0.15 -0.009,0.017 -0.0621,-0.021 c 0,0 0.0113,0.035 0.001,0.058 -0.01,0.022 -0.0413,0.03 -0.0413,0.03 0,0 -0.0497,0.3161 -0.0674,0.4188 -0.0173,0.1019 -0.0131,0.2106 0.013,0.2409 0.0258,0.03 -0.01,0.046 -0.01,0.046 l -0.0462,-0.011 c 0,0 -0.0145,-0.01 -0.0272,0 -0.013,0.01 -0.0339,-0.021 -0.0286,-0.048 0.005,-0.027 0.0783,-0.4971 0.0783,-0.4971 l -0.15557,0.3419 -0.10337,0.082 -0.0212,-0.092 c 0,0 -0.0201,-0.027 0.005,-0.027 0.0254,0 0.0621,-0.02 0.0621,-0.02 l 0.2032,-0.4713 c 0,0 -0.007,-0.019 0.008,-0.054 0.0145,-0.035 0.0494,-0.03 0.0494,-0.03 l 0.002,-0.014 -0.0564,-0.017 c 0,0 -0.03,-0.014 -0.0427,-0.03 -0.0131,-0.016 -0.0384,-0.014 -0.0384,-0.014 l -0.0208,0.011 c 0,0 -0.15487,-0.032 -0.17286,-0.04 -0.0169,-0.01 -0.0268,-0.035 -0.0268,-0.035 0,0 -0.0751,-0.013 -0.0988,-0.015 -0.0243,0 -0.0286,-0.032 -0.0272,-0.043 0.002,-0.011 0.0127,-0.069 0.0332,-0.06 0.0212,0.01 0.12312,0.038 0.12312,0.038 l 0.0321,-0.011 0.15346,0.027 0.24871,0.025 0.0388,-0.095 0.0349,0.018 c 0,0 -0.013,0.042 -0.0176,0.059 -0.005,0.018 0.008,0.057 0.0321,0.069 0.005,0 0.0441,0.012 0.10548,0.029 -0.009,-0.046 -0.0247,-0.1246 -0.0258,-0.1436 -10e-4,-0.027 0.0388,-0.1475 0.0388,-0.1475 h -0.0176 l -0.007,-0.1072 c 0,0 0.008,-0.045 -0.002,-0.094 -0.009,-0.05 0.007,-0.07 0.0145,-0.098 0.009,-0.027 -0.004,-0.1277 -0.004,-0.1277 0,0 -0.008,-0.061 0.001,-0.075 0.01,-0.014 0.006,-0.037 -0.001,-0.062 -0.008,-0.025 0.0363,-0.082 0.0363,-0.082 0,0 -0.009,-0.03 -0.0141,-0.067 -0.005,-0.036 0.0141,-0.046 0.0363,-0.062 0.0226,-0.016 0.0448,-0.1326 0.0466,-0.1393 0.001,-0.01 -0.003,-0.032 0.0141,-0.054 0.018,-0.022 0.013,-0.1104 0.003,-0.1468 -0.01,-0.037 0.0173,-0.072 0.0173,-0.072 0,0 -0.0254,-0.016 -0.0526,-0.011 -0.0272,0 -0.11324,0.017 -0.13406,0.021 -0.0212,0 -0.11818,0.01 -0.14852,-0.01 -0.0303,-0.016 -0.0275,-0.056 -0.024,-0.071 0.003,-0.014 -0.004,-0.027 -0.0145,-0.045 -0.0116,-0.018 0.01,-0.024 0.01,-0.024 l -0.001,-0.023 c 0,0 -0.0258,-0.024 -0.0289,-0.04 -0.004,-0.016 -0.002,-0.033 -0.0321,-0.046 -0.0303,-0.013 -0.0109,-0.029 -0.001,-0.046 0.009,-0.018 -0.007,-0.042 -0.01,-0.062 -0.003,-0.021 -0.003,-0.04 -0.003,-0.04 l -0.008,-0.021 -0.0307,-0.035 c 0,0 -0.0145,0 -0.0702,-0.018 -0.0557,-0.012 -0.0282,-0.04 -0.001,-0.048 0.0268,-0.01 0.0314,-0.024 0.0653,-0.23 0.0335,-0.2064 0.22649,-0.2681 0.53517,-0.2374 0.30832,0.03 0.26317,0.3577 0.26493,0.3817 0.002,0.024 0.0755,0.1305 0.0755,0.1305 l 0.005,-0.025 0.13864,0.024 c 0,0 0.0116,0.014 0.072,0.025 0.061,0.012 -0.01,0.021 -0.01,0.021 0,0 0.14852,0 0.17569,0.01 0.0275,0.01 0.0512,0.013 0.11571,0.023 0.0635,0.01 0.12276,0.036 0.13723,0.046 0.0141,0.01 0.14182,0.081 0.17215,0.096 0.0303,0.014 0.0702,0.029 0.1323,0.085 0.0624,0.056 0.14111,0.081 0.14111,0.081 0,0 0.0921,-0.069 0.1083,-0.069 0.0162,0 0.26564,0.1213 0.26564,0.1213 0,0 0.0716,0.066 0.11148,0.1009 0.0402,0.035 0.0191,0.058 0.043,0.084 0.024,0.028 0.13899,0.1313 0.13441,0.1422 -0.005,0.012 -0.11677,0.2 -0.11677,0.2 0,0 0.1711,0.2314 0.18838,0.2537 0.0176,0.023 0.0737,0.1344 0.0737,0.1344 0,0 0.01,0.01 -0.0226,0.039 -0.0318,0.03 -0.1658,0.084 -0.1658,0.084 0,0 -0.0162,0.034 -0.0194,0.062 -0.003,0.029 -0.0335,0.139 -0.0688,0.1679 -0.0349,0.029 -0.0653,0.1087 -0.078,0.169 -0.0127,0.061 -0.0416,0.062 -0.0628,0.1044 -0.0205,0.041 -0.0907,0.1418 -0.13688,0.1789 -0.0173,0.013 -0.0339,0.034 -0.0483,0.058 l 0.042,0.078 0.0476,0.012 c 0,0 0.043,-0.014 0.0674,-0.01 0.024,0 0.15275,0.024 0.18344,0.029 0.0303,0 0.024,0.019 0.024,0.019 0,0 0.067,0.01 0.0896,0.01 0.0222,0 0.0205,0.025 0.0205,0.025 l 0.0882,0.013 c 0,0 -0.0194,-0.026 0.008,-0.016 0.0268,0.01 0.11854,0.04 0.14993,0.049 0.0321,0.01 0.0434,0.038 0.061,0.041 0.0176,0 0.003,0.038 0.003,0.038 0,0 0.0402,-0.01 0.0751,0.01 0.0353,0.015 0.0205,0.064 0.0205,0.064 l -0.01,0.037 c 0,0 0.32456,0.1051 0.44556,0.1228 0.12171,0.018 0.19227,0.021 0.3803,-0.024 0.18838,-0.045 0.12629,0.072 0.0833,0.1213 -0.043,0.05 -0.0557,0.1535 -0.0801,0.2364 0,0 -0.005,0.053 -0.0349,0.1439 -0.0303,0.091 -0.067,0.062 -0.12947,-0.038 -0.0624,-0.1002 -0.11783,-0.088 -0.13406,-0.092 -0.0159,-0.01 -0.0526,-0.011 -0.043,-0.035 0.01,-0.024 -0.0127,-0.088 -0.048,-0.1006 -0.0243,-0.01 -0.0917,-0.031 -0.13052,-0.043 l -0.0455,0.163 -0.0589,-0.01 c 0,0 -0.006,0.016 -0.0113,0.059 -0.004,0.043 -0.0159,0.2142 -0.0272,0.278 -0.0109,0.063 -0.1069,0.1725 -0.1069,0.1725 l -0.0367,-0.014 0.0113,-0.013 c 0,0 -0.0575,-0.024 -0.0751,-0.053 -0.0138,-0.023 -0.006,-0.072 0.007,-0.1359 -0.0145,0.01 -0.0303,0.012 -0.0469,0.017 -0.0674,0.024 -0.0801,-0.01 -0.0462,-0.021 0.0332,-0.014 0.0557,-0.028 0.0557,-0.028 0,0 -0.0272,0.01 -0.0688,0.013 -0.0413,0.01 -0.0684,-0.01 -0.037,-0.018 0.0325,-0.011 0.0642,-0.029 0.0642,-0.029 0,0 -0.0589,0 -0.0896,0 -0.0303,0 -0.008,-0.026 0.01,-0.03 0.0173,-0.01 0.0797,-0.022 0.0797,-0.022 0,0 -0.0797,0 -0.10371,0 -0.024,-0.01 -0.0353,-0.02 -0.01,-0.024 0.0254,0 0.0945,-0.021 0.0945,-0.021 0,0 -0.048,-0.01 -0.0945,-0.013 -0.0466,0 -0.0222,-0.027 -0.001,-0.029 0.0212,0 0.078,-0.016 0.078,-0.016 0,0 -0.0713,-0.018 -0.0893,-0.024 -0.0176,-0.01 -0.0363,-0.027 -0.0236,-0.029 0.0127,0 0.0815,-0.01 0.0815,-0.01 0,0 -0.0384,-0.01 -0.072,-0.028 -0.0339,-0.02 -0.0258,-0.018 -0.0113,-0.02 0.0145,-10e-4 0.0635,0 0.0635,0 0,0 -0.009,-0.01 -0.0381,-0.019 -0.0131,-0.01 -0.0275,-0.019 -0.0392,-0.031 -0.0148,0 -0.031,0 -0.0473,0 -0.005,3e-4 -0.0113,3e-4 -0.0183,3e-4 0.004,0.023 0.009,0.046 0.009,0.046 0,0 0.003,0.031 -0.004,0.067 -0.006,0.037 -0.054,0.042 -0.073,0.035 -0.0194,-0.01 -0.10548,-0.037 -0.10266,-0.029 0.003,0.01 -0.003,0.024 -0.0194,0.024 -0.0155,0 -0.0713,-0.022 -0.0938,-0.031 -0.0141,-0.01 -0.0448,-0.065 -0.0663,-0.1093 -0.0324,0.01 -0.0646,0.015 -0.0822,0.015 -0.0416,0 -0.19191,0.01 -0.22684,0 -0.0353,-0.013 -0.0289,0.026 -0.0416,0.046 -0.0127,0.021 -0.0141,0.04 -0.008,0.045 0.007,0 0.037,0.033 0.0388,0.056 10e-4,0.022 -0.008,0.042 10e-4,0.042 0.01,0 0.008,0.033 0.008,0.052 0,0.019 0.0258,0.034 0.0385,0.058 0.0127,0.024 0.006,0.069 0.006,0.082 0,0.013 0.0194,0.03 0.024,0.04 0.005,0.01 0.024,0.067 0.0335,0.088 0.01,0.02 0.005,0.057 0.005,0.065 0,0.01 0.0349,0.026 0.043,0.054 0.008,0.029 0.0131,0.088 0.0272,0.1023 0.0145,0.015 0.0127,0.024 0.0127,0.024 0,0 0.0145,0.086 0.0303,0.1087 0.0162,0.023 0.005,0.079 0.005,0.079 l 10e-4,0.086 c 0,0 -10e-4,0.029 -0.0444,0.037 -0.043,0.01 -0.22542,0.019 -0.22542,0.019 l -0.001,-0.024 c -0.0116,0 -0.0318,0.01 -0.0656,0.018 -0.12136,0.034 -0.3101,0.072 -0.43639,0.053 0,0 -0.0127,0 -0.0988,-0.014 -0.0864,-0.019 -0.0924,-0.066 -0.0924,-0.066 l 0.0169,-0.027 c 0,0 0.002,-0.014 0.0145,-0.048 0.013,-0.033 0.0646,-0.045 0.1203,-0.056 0.0557,-0.011 0.17074,-0.049 0.18521,-0.058 0.0141,-0.01 0.0878,-0.072 0.0988,-0.087 0.0113,-0.016 0.0593,-0.059 0.0593,-0.059 0,0 0,-0.028 0.0113,-0.05 0.0109,-0.022 -0.0127,-0.03 -0.0254,-0.048 -0.0127,-0.017 -0.007,-0.042 -0.0102,-0.056 -0.002,-0.014 -0.0314,-0.046 -0.0314,-0.046 0,0 -0.0275,-0.025 -0.043,-0.072 -0.0162,-0.046 -0.0466,-0.082 -0.061,-0.1009 -0.0145,-0.018 0.002,-0.03 0.002,-0.03 0,0 -0.085,-0.041 -0.091,-0.09 -0.007,-0.048 -0.0526,-0.046 -0.0815,-0.058 -0.0289,-0.011 -0.0466,-0.043 -0.0497,-0.073 -0.003,-0.031 -0.043,-0.067 -0.0512,-0.079 -0.008,-0.011 -0.0349,-0.071 -0.0303,-0.1146 0.005,-0.045 -0.0381,-0.063 -0.0579,-0.079 -0.0187,-0.016 -0.0236,-0.1115 -0.0279,-0.1549 -0.005,-0.043 -0.031,-0.1086 -0.061,-0.206 -0.007,-0.02 -0.004,-0.052 0.006,-0.09 z m -0.37148,-0.6477 c -0.008,0 -0.0152,-0.01 -0.0152,-0.018 0,-0.011 0.008,-0.019 0.0191,-0.019 -7e-4,-0.01 -10e-4,-0.015 -10e-4,-0.022 -0.01,-3e-4 -0.0176,-0.01 -0.0176,-0.019 0,-0.01 0.008,-0.018 0.0183,-0.018 h 0.004 c 10e-4,-0.01 0.002,-0.012 0.003,-0.021 -0.006,0 -0.0109,-0.01 -0.0109,-0.018 0,-0.01 0.007,-0.017 0.0162,-0.019 3.6e-4,-0.01 0.001,-0.012 0.003,-0.018 -0.004,0 -0.006,-0.01 -0.006,-0.016 0,-0.01 0.003,-0.017 0.009,-0.02 0.001,-0.01 0.002,-0.015 0.002,-0.023 -0.006,0 -0.0113,-0.012 -0.0113,-0.019 0,-0.01 0.006,-0.018 0.0145,-0.021 v -0.01 c -3.5e-4,0 -10e-4,-3e-4 -0.002,-3e-4 -0.0127,-0.01 -0.0222,-0.02 -0.0205,-0.036 10e-4,-0.016 0.0205,-0.016 0.0205,-0.016 0,0 -0.005,-0.01 -0.0127,-0.022 -0.008,-0.013 0.007,-0.035 0.007,-0.035 0,0 -0.0131,-0.01 -0.0162,-0.032 -0.004,-0.022 0.01,-0.024 0.01,-0.024 0,0 -0.0258,-0.013 -0.0222,-0.03 0.003,-0.018 0.0222,-0.023 0.0222,-0.023 l -0.0416,-0.023 c 0,0 -0.003,0.013 -0.008,0.02 -0.005,0.01 -0.0575,0.1129 -0.0497,0.14 0.008,0.028 -0.0141,0.061 -0.0258,0.083 -0.0109,0.023 -0.0332,0.1661 -0.0423,0.1951 -0.0102,0.029 -0.0483,0.04 -0.0483,0.04 0,0 0.0208,0.072 0.0303,0.1027 0.009,0.03 -0.0109,0.036 -0.0109,0.036 0,0 0,0.035 0.001,0.042 0.001,0.01 0.008,0.045 0.003,0.065 -0.004,0.021 -0.0141,0.037 -0.0205,0.072 -0.006,0.035 -0.0416,0 -0.0444,-0.01 -0.004,-0.011 -0.0131,-0.068 -0.005,-0.099 0.008,-0.03 -0.0187,-0.036 -0.0187,-0.036 0,0 -0.061,0.063 -0.0656,0.073 -0.003,0.01 0.0109,0.051 0.0201,0.079 0.25118,0.064 0.64559,0.1623 0.77964,0.1958 0.0473,-0.1161 0.10301,-0.2286 0.11395,-0.2551 0.0205,-0.051 -0.0511,-0.065 -0.0511,-0.065 l -0.17886,-0.109 c 0,0 0.0127,-0.053 0.024,-0.066 0.0109,-0.012 0.121,-0.1291 0.121,-0.1291 0,0 -0.0991,-0.043 -0.13229,-0.1058 -0.0335,-0.062 0.0145,-0.1327 0.0145,-0.1327 0,0 0.0127,-0.02 0.002,-0.043 -0.0116,-0.022 -0.10901,-0.073 -0.14887,-0.093 -0.0402,-0.019 -0.0557,-0.063 -0.13723,-0.1115 -0.0819,-0.048 -0.0702,-0.028 -0.0702,-0.028 0,0 0.001,0.01 0.001,0.02 0,0.011 -0.0127,0.027 -0.0127,0.027 0,0 0.0243,0.01 0.0307,0.023 0.006,0.016 -0.006,0.032 -0.006,0.032 0,0 0.0176,0.018 0.0208,0.029 0.003,0.011 -0.007,0.03 -0.007,0.03 0,0 0.0113,0.013 0.013,0.029 0.002,0.016 -0.0162,0.031 -0.0162,0.031 0,0 0.0127,0.011 0.0127,0.03 0,0.02 -0.0141,0.024 -0.0141,0.024 0,0 0.024,0.01 0.0286,0.024 0.005,0.014 -0.0254,0.03 -0.0254,0.03 0,0 0.0145,0 0.0145,0.021 0,0.013 -0.013,0.026 -0.0258,0.03 v 0 c 0.012,7e-4 0.0208,0.011 0.0208,0.023 0,0.012 -0.01,0.022 -0.0226,0.022 h -10e-4 c -3.5e-4,0.01 -7.1e-4,0.012 -0.001,0.018 0.008,0 0.0159,0.011 0.0159,0.023 0,0.012 -0.008,0.022 -0.0176,0.022 -0.001,0 -0.002,-3e-4 -0.004,-3e-4 l -10e-4,0.013 c 0.007,0 0.0131,0.01 0.0131,0.018 0,0.01 -0.008,0.019 -0.0183,0.019 -0.001,0.01 -0.003,0.018 -0.004,0.024 0.004,0 0.006,0.01 0.006,0.013 0,0.01 -0.004,0.013 -0.0102,0.017 3.5e-4,0.01 0.001,0.019 0.002,0.028 0.005,0 0.008,0.01 0.008,0.015 0,0.01 -0.004,0.013 -0.01,0.016 l -3.5e-4,7e-4 c -0.002,0 -0.007,0.012 -0.0127,0.018 0.007,0.01 0.0222,0.022 0.0198,0.031 -0.004,0.011 -0.0307,0.011 -0.0307,0.011 0,0 0.006,0.019 0,0.031 -0.006,0.011 -0.0321,0 -0.0321,0 0,0 0.0116,0.029 0.002,0.039 -0.01,0.01 -0.0367,0 -0.043,0 -0.006,-0.01 -0.0275,-0.032 -0.0286,-0.039 -0.002,-0.01 -0.0303,-0.036 -0.0194,-0.042 0.0113,-0.01 0.0511,0.019 0.0511,0.019 0,0 -0.0113,-0.019 -0.0141,-0.028 -0.004,-0.01 -0.0127,-0.017 0.003,-0.016 0.0159,0 0.0258,0.01 0.0367,0.011 0.0116,0 0.009,-0.011 0.003,-0.022 -0.005,-0.011 0,-0.017 0.01,-0.015 0.007,0.001 0.0265,0.01 0.0356,0.014 0.004,0 0.006,-0.01 0.008,-0.012"
         id="path171058-7-4-8-3-9"
         style="stroke-width:0.352778" />
      <path
         d="m 108.33632,18.6644 c 0.0201,-0.023 0.037,-0.1076 0.037,-0.1076 0,0 -0.0169,-0.062 -0.0483,-0.057 -0.0314,0.01 -0.15911,0.01 -0.17569,-0.034 -0.0173,-0.042 -0.0258,-0.091 -0.0258,-0.091 l -0.20143,-0.031 c 0,0 0.0628,0.063 0.0628,0.088 0,0.025 0,0.04 0.0254,0.068 0.0254,0.029 0.0762,0.049 0.0903,0.085 0.0141,0.037 0.0427,0.1362 0.0427,0.1362 l 0.12171,0.068 c 0.0286,-0.053 0.0515,-0.1019 0.0713,-0.1245 m -1.48379,-0.363 c -0.0113,0.073 0.0487,0.073 0.17322,0.093 0.11183,0.018 0.29527,-0.046 0.36371,-0.078 l -0.004,-7e-4 c -0.0564,-0.027 -0.11642,-0.08 -0.11642,-0.08 0,0 -0.32879,-0.037 -0.35171,-0.048 -0.0116,-0.01 -0.0462,-0.013 -0.0762,-0.019 0.0131,0.03 0.0191,0.082 0.0109,0.133 m 2.11631,2.1929 c -0.0628,-0.043 -0.031,-0.1704 -0.0286,-0.2188 0.003,-0.048 -0.0765,-0.037 -0.11889,-0.034 -0.0427,0 -0.10795,0.017 -0.1531,-0.017 -0.0455,-0.034 -0.25788,-0.028 -0.25788,-0.028 0,0 -0.003,0.048 -0.0233,0.06 -0.0194,0.011 -0.0339,0.022 -0.0194,0.059 0.0141,0.037 -0.0113,0.093 -0.0233,0.1189 -0.0109,0.026 -0.0166,0.034 -0.008,0.06 0.008,0.026 -0.0568,0.073 -0.11077,0.088 -0.054,0.014 -0.0226,0.2127 -0.008,0.2833 0.0141,0.071 -0.0628,0.1735 -0.0628,0.1735 0,0 0.0201,0.062 0.0282,0.082 0.009,0.019 0.006,0.187 0.0201,0.2438 0.0145,0.057 -0.0141,0.06 -0.0141,0.06 0,0 -0.0141,0.065 -0.0395,0.074 -0.0258,0.01 -0.2159,-0.01 -0.2159,-0.01 l -0.003,-0.051 c 0,0 -0.14182,0.031 -0.26388,0.059 -0.12206,0.029 -0.37994,-0.01 -0.44803,-0.018 -0.0681,-0.011 -0.0882,-0.028 -0.0882,-0.028 l 0.0201,-0.02 c 0,0 -0.037,-0.085 -0.008,-0.1104 0.0282,-0.025 0.28328,-0.043 0.34325,-0.046 0.0593,0 0.0822,-0.04 0.11042,-0.054 0.0286,-0.014 0.20144,-0.1873 0.20144,-0.1873 0,0 -0.0198,-0.034 -0.031,-0.051 -0.0113,-0.018 -0.006,-0.043 0.008,-0.068 0.0141,-0.026 -0.003,-0.116 -0.008,-0.1305 -0.006,-0.014 -0.006,-0.062 0.002,-0.1136 0.009,-0.051 0,-0.1757 0,-0.1757 0,0 -0.0282,-0.051 -0.0593,-0.085 -0.031,-0.034 -0.0254,-0.1079 -0.003,-0.1446 0.0226,-0.037 -0.0113,-0.1447 -0.0113,-0.1842 0,-0.04 0.0568,-0.199 0.0596,-0.2244 0.002,-0.025 0.002,-0.1361 0.0452,-0.2638 0.0427,-0.1277 0.22436,-0.1302 0.31468,-0.1503 0.091,-0.019 0.0226,-0.057 -0.0311,-0.1161 -0.054,-0.06 -0.15028,-0.2102 -0.16721,-0.2441 -0.0173,-0.034 0.008,-0.099 -0.0656,-0.1418 -0.0734,-0.042 -0.0681,-0.093 -0.0564,-0.1217 0.0116,-0.029 0.0822,-0.108 0.054,-0.1732 -0.0282,-0.065 -0.0656,-0.1133 -0.0656,-0.1133 0,0 -0.13899,-0.074 -0.17568,-0.1136 -0.0265,-0.029 -0.0995,-0.057 -0.15911,-0.08 -0.0773,0.03 -0.248,0.094 -0.37429,0.1083 -0.16722,0.02 -0.26388,-0.056 -0.28928,-0.091 -0.0254,-0.034 -0.0282,-0.097 -0.0282,-0.1298 0,-0.022 0.0152,-0.051 0.0328,-0.068 l -0.29916,-0.04 c 0,0 -0.0399,0.017 -0.0769,0.011 -0.0367,-0.01 -0.0935,-0.02 -0.0935,-0.02 0,0 -0.10513,-0.011 -0.12206,-0.014 -0.0173,0 -0.0226,-0.023 -0.0226,-0.023 0,0 -0.15028,0 -0.18732,-0.011 -0.037,-0.01 -0.0399,-0.031 -0.0399,-0.031 0,0 -0.13865,-0.014 -0.1584,-0.017 -0.0201,0 -0.0173,-0.068 0.008,-0.068 0.0254,0 0.0346,0 0.0346,0 0,0 0.002,-0.054 0.0222,-0.054 0.0201,0 0.0769,0.01 0.11077,0.01 0.0339,0 0.006,0.068 0.006,0.068 l 0.31715,0.026 c 0,0 0.0282,-0.01 0.0455,-0.011 0.0173,-0.01 0.11359,0.014 0.11359,0.014 l 0.0508,0.01 0.23848,0.01 c 0,0 0.0794,-0.011 0.0991,-0.011 0.0198,0 0.0511,0.025 0.0511,0.025 h 0.71473 l 0.037,0.031 0.1531,0.01 c 0,0 0.0512,-0.017 0.0709,-0.014 0.0198,0 0.0624,0.012 0.0624,0.012 l 0.15029,0.011 c 0,0 0.0395,-0.017 0.06,-0.017 0.0194,0 0.0508,0.031 0.0508,0.031 l 0.11042,0.01 c 0,0 0.06,-0.02 0.10795,-0.017 0.048,0 0.0681,0.1 0.0681,0.1 0,0 0.0169,0.01 0.0423,0.011 0.0254,0 0.1023,0.054 0.1023,0.054 0,0 -0.0113,-0.082 -0.0229,-0.1249 -0.0113,-0.042 0.003,-0.065 0.003,-0.065 l -0.0423,-0.074 c 0,0 -0.043,-0.012 -0.0624,-0.019 -0.0201,-0.01 -0.0173,-0.034 -0.0173,-0.034 0,0 0.0907,-0.1729 0.13053,-0.2466 0.0395,-0.074 0.10513,-0.2325 0.43392,-0.1955 0.32914,0.037 0.32632,0.3458 0.34043,0.4167 0.0141,0.071 0.0141,0.1249 0.0258,0.1079 0.0109,-0.017 0.0568,-0.031 0.0935,-0.026 0.0363,0.01 0.21801,0.176 0.26634,0.2074 0.0483,0.031 0.0201,0.071 0.0289,0.082 0.008,0.011 0.12171,0.1249 0.14711,0.1874 0.0254,0.062 0.005,0.3489 -0.003,0.4254 -0.009,0.077 -0.091,0.1958 -0.0967,0.2329 -0.006,0.037 0.0367,0.1389 0.0367,0.1389 0,0 0.14499,0.01 0.2219,0.031 0.0765,0.025 0.0222,0.1958 0.0222,0.1958 0,0 -0.0222,0.1189 -0.0279,0.1697 -0.006,0.051 0.0279,0.043 0.0141,0.267 -0.0141,0.2244 -0.18768,0.2554 -0.18768,0.2554 0,0 0,0.065 0.006,0.1193 0.006,0.054 -0.008,0.2519 -0.008,0.2519 l -0.0797,0.012 -0.0709,0.2582 0.35207,-0.088 c 0,0 0.14711,-0.018 0.20708,-0.037 0.0593,-0.02 0.0963,0.019 0.0963,0.019 0,0 0.0653,0 0.085,0.023 0.0201,0.02 0.0339,0.2155 0.0339,0.2155 0,0 -0.0395,0.014 -0.0138,0.068 0.0254,0.054 -0.009,0.2667 -0.0427,0.3291 -0.0342,0.062 -0.0794,0.062 -0.24659,0.071 -0.16792,0.01 -0.0797,-0.2018 -0.0765,-0.2127 0.002,-0.012 0.0511,-0.074 0.0339,-0.1136 -0.0173,-0.04 -0.0395,-0.017 -0.0653,-0.01 -0.0254,0.01 -0.0681,0.054 -0.10513,0.1045 -0.037,0.052 -0.0709,0.04 -0.0709,0.04 0,0 -0.2159,0.1333 -0.33196,0.1816 -0.11642,0.048 -0.32067,0.077 -0.41134,0 -0.0907,-0.077 -0.17004,-0.7295 -0.17568,-0.8628 0,0 -0.006,0 -0.0681,-0.045"
         id="path171062-1-1-2-2-9"
         style="stroke-width:0.352778" />
      <path
         d="m 114.52891,18.6008 -0.0765,-0.032 0.0582,0.1118 z m 1.56986,1.9152 c -0.0504,-0.034 -0.10054,-0.1118 -0.12735,-0.1541 -0.0265,-0.042 -0.14359,-0.069 -0.16722,-0.1994 -0.024,-0.1305 -0.0663,-0.1379 -0.0931,-0.1778 -0.0265,-0.04 -0.16475,-0.2734 -0.18592,-0.3161 -0.0212,-0.043 -0.21801,-0.364 -0.21801,-0.364 0,0 -0.0131,0.01 -0.0582,0.072 -0.0452,0.064 -0.0639,0.1834 -0.096,0.2766 -0.0314,0.093 -0.0265,0.1118 -0.0102,0.1249 0.0159,0.013 0.061,0.058 0.0663,0.1037 0.005,0.045 0.0212,0.1164 0.0557,0.1376 0.0349,0.022 0.0533,0.088 0.0903,0.1199 0.0374,0.032 0.0183,0.1118 0.0183,0.1432 0,0.032 0.072,0.1171 0.0935,0.1277 0.0212,0.011 0.0582,0.085 0.0794,0.098 0.0215,0.013 0.10654,0.1358 0.10654,0.1358 0,0 0.085,0.09 0.11641,0.1246 0.0321,0.034 0.0455,0.019 0.0455,0.019 0,0 0.0293,0.024 0.0956,0.098 0.0663,0.075 -0.0268,0.2127 -0.0268,0.2127 l -0.0261,-0.019 c 0,0 -0.0296,0.1195 -0.0504,0.1594 -0.0215,0.04 -0.0508,0.1274 -0.13299,0.2152 -0.0825,0.087 -0.20179,0.045 -0.20179,0.045 l -0.0166,-0.029 c 0,0 -0.0367,-0.01 -0.0473,-0.064 -0.0106,-0.058 0.0557,-0.1379 0.0826,-0.1884 0.0265,-0.05 -0.008,-0.2868 -0.006,-0.3132 0.003,-0.027 -0.10901,-0.099 -0.11924,-0.12 -0.0109,-0.021 -0.0801,-0.1009 -0.0801,-0.1009 0,0 -0.1009,-0.034 -0.15416,-0.1189 -0.0529,-0.085 -0.18027,-0.088 -0.22578,-0.096 -0.0448,-0.01 -0.10866,-0.067 -0.12453,-0.1087 -0.0159,-0.043 -0.13053,-0.1756 -0.20214,-0.2631 -0.0713,-0.088 -0.0741,-0.2978 -0.0843,-0.3853 -0.0113,-0.088 -0.0138,-0.5231 -0.0138,-0.5231 l -0.0448,-0.016 0.0314,-0.2208 -0.20179,-0.3503 c 0,0 -0.0346,0.034 -0.0561,0.029 -0.0212,-0.01 -0.0212,-0.01 -0.0339,-0.01 -0.0134,0 -0.0296,0.018 -0.0455,0.015 -0.0162,0 -0.0342,-0.021 -0.0476,-0.021 -0.013,0 -0.0349,0.013 -0.0483,0.01 -0.0127,-0.01 -0.0473,-0.016 -0.0473,-0.016 0,0 -0.0452,0 -0.0642,-0.016 -0.0183,-0.016 -0.0236,-0.048 -0.0236,-0.048 l -0.13053,0.061 -0.0395,0.069 -0.14605,-0.027 -0.1009,0.059 -0.0321,-0.08 0.0504,-0.021 c 0,0 -0.0504,-0.1086 -0.002,-0.1221 0.048,-0.013 0.1009,0.071 0.1009,0.071 0,0 0.23107,-0.093 0.22331,-0.1086 -0.008,-0.016 0.0131,-0.032 0.0318,-0.066 0.0187,-0.035 0.0374,-0.064 0.0374,-0.064 0,0 -0.0162,-0.046 -0.0162,-0.072 0,-0.027 0.0825,-0.061 0.10618,-0.093 0.0236,-0.032 0.003,-0.069 0.0109,-0.088 0.008,-0.019 0.0318,-0.021 0.0452,-0.034 0.013,-0.013 0.0159,-0.074 0.0342,-0.093 0.0187,-0.019 0.0508,-0.042 0.048,-0.056 -0.003,-0.013 -0.0265,-0.029 -0.0212,-0.056 0.005,-0.027 0.0399,-0.1225 0.0476,-0.1725 0.008,-0.051 0.013,-0.1306 0.006,-0.1729 -0.008,-0.042 0.042,-0.1115 0.0554,-0.1489 0.0138,-0.037 0.0476,-0.2554 0.0586,-0.2893 0.0106,-0.034 0.12489,-0.1725 0.12489,-0.1725 0,0 -0.0212,0 -0.0427,-0.01 -0.0212,-0.01 -0.0423,-0.058 -0.0586,-0.098 -0.0155,-0.039 -0.0367,-0.1061 -0.0476,-0.127 -0.0106,-0.021 -0.0452,-0.104 -0.0452,-0.104 0,0 -0.0395,-0.021 -0.0476,-0.053 -0.008,-0.032 -0.0215,-0.016 -0.0399,-0.024 -0.0187,-0.01 -0.0639,-0.024 -0.0639,-0.024 0,0 0.005,-0.1806 0.11712,-0.364 0.11148,-0.1831 0.24412,-0.1591 0.46743,-0.1648 0.2226,-0.01 0.30797,0.3588 0.30797,0.3588 0,0 0.0395,0.026 0.0529,0.061 0.0134,0.035 0.006,0.087 0.006,0.087 h 0.0395 c 0.0191,0 0.11678,0.016 0.15417,0.061 0.037,0.045 0.11148,0.053 0.17568,0.082 0.0635,0.03 0.0265,0.1034 0.0395,0.109 0.0134,0 0.0557,0.013 0.10125,0.021 0.0448,0.01 0.14852,0.096 0.20179,0.1411 0.0533,0.045 0.0533,0.09 0.0635,0.1115 0.0109,0.021 0.14887,0.1778 0.17004,0.212 0.0212,0.035 0.14111,0.1968 0.15663,0.2448 0.0159,0.048 0.0451,0.1037 0.0797,0.1461 0.0346,0.042 0.024,0.095 -0.024,0.2254 -0.0476,0.1309 -0.0476,0.133 -0.09,0.1862 -0.0427,0.053 -0.17533,0.2202 -0.17533,0.2202 0,0 0.0797,-0.029 0.15169,-0.042 0.0713,-0.013 0.11148,0.1567 0.11642,0.2018 0.005,0.046 0.0854,0.1623 0.11959,0.3006 0.0346,0.1379 -0.0797,0.1834 -0.0797,0.1834 0,0 0.0159,0.058 0.0159,0.1034 0,0.045 -0.0423,0.082 -0.0423,0.082 0,0 0.008,0.048 -0.005,0.075 -0.0134,0.026 -0.0617,0.015 -0.0617,0.015 0,0 0.019,0.1697 0.0452,0.2156 0.0268,0.045 0.10901,0.2603 0.1196,0.3527 0.0106,0.093 0.0455,0.181 0.11465,0.2233 0.0688,0.042 0.0635,0.087 0.0737,0.1489 0.0106,0.061 0.019,0.1351 0.0511,0.1616 0.0314,0.026 0.042,0.064 0.0395,0.133 -0.003,0.069 0.0159,0.098 0.0533,0.1221 0.037,0.024 0.0476,0.1382 0.0533,0.1732 0.005,0.034 0.0318,0.1538 0.085,0.1986 0.0529,0.045 0.0399,0.1277 0.0399,0.1277 0,0 0.0607,0.1093 0.0794,0.1302 0.0187,0.022 0.0187,0.077 0.0187,0.098 0,0.021 0.0236,0.085 0.0236,0.085 l -0.0794,0.082 c 0,0 -0.0935,0.075 -0.15946,0.088 -0.0663,0.013 -0.20179,-0.027 -0.20179,-0.027 l 0.0102,-0.029 c 0,0 -0.0102,-0.011 0,-0.066 0.0109,-0.056 0.0427,-0.093 0.0586,-0.1274 0.0159,-0.035 0.003,-0.1679 0.003,-0.1679 l -0.0236,-0.015 c 0,0 -0.0511,-0.088 -0.0935,-0.1387 -0.0423,-0.05 -0.15381,-0.1668 -0.22048,-0.2705 0,0 -0.0452,-0.034 -0.0956,-0.069"
         id="path171066-7-9-8-8-3"
         style="stroke-width:0.352778" />
      <path
         d="m 112.34983,20.7571 c -0.002,0.038 0.0219,0.2008 0.0251,0.2145 0.002,0.013 0.0656,-0.074 0.0769,-0.1016 0.0109,-0.027 0.0296,-0.069 0.0353,-0.093 0.006,-0.025 0,-0.068 0.006,-0.085 0.005,-0.017 -0.15945,-0.157 -0.15945,-0.157 0.009,0.058 0.0198,0.1845 0.0166,0.2222 m -1.17687,-2.8197 c -0.006,-0.038 0.0109,-0.085 0.0385,-0.088 0.0275,0 0.0497,0.01 0.055,-0.011 0.005,-0.019 -0.0328,-0.1344 -0.0328,-0.1344 0,0 -0.14852,0.1676 -0.1785,0.1894 -0.03,0.022 -0.15628,0.085 -0.18098,0.085 -0.0243,0 -0.13194,-0.024 -0.15381,-0.076 -0.0219,-0.052 -0.0247,-0.077 -0.0466,-0.1263 -0.0219,-0.05 -0.03,-0.079 -0.0162,-0.1097 0.0138,-0.03 0.0109,-0.063 0.008,-0.079 -0.003,-0.017 0,-0.077 0.0166,-0.096 0.0162,-0.019 -0.006,-0.025 -0.009,-0.058 -0.002,-0.033 -0.0356,-0.052 0.0109,-0.1045 0.0466,-0.052 0.0797,-0.1315 0.0797,-0.1315 l -0.0332,-0.038 c 0,0 -0.0303,-0.02 -0.049,-0.036 -0.0194,-0.016 -0.0469,-0.044 -0.0497,-0.074 -0.002,-0.03 -0.002,-0.099 -0.002,-0.099 l -0.0497,-0.021 c 0,0 -0.0575,0.1531 -0.0684,0.1831 -0.0109,0.031 -0.0579,0.082 -0.06,0.1432 -0.003,0.06 -0.036,0.1725 0.0296,0.362 0.0663,0.1894 0.0635,0.2688 0.10971,0.3072 0.0469,0.038 0.12912,0.074 0.19509,0.088 0.0656,0.013 0.26599,0.052 0.33761,0.099 0.0709,0.047 0.085,0.041 0.085,0.041 -0.0194,-0.063 -0.0303,-0.1757 -0.036,-0.2138 m 0.82056,2.782 c -0.006,-0.063 -0.0854,-0.2498 -0.0931,-0.2745 -0.008,-0.025 -0.006,-0.044 -0.006,-0.058 0,-0.014 -0.14005,-0.1535 -0.1591,-0.1891 -0.0194,-0.036 -0.0222,-0.1866 -0.0303,-0.2498 -0.008,-0.063 -0.0547,-0.1125 -0.0797,-0.1397 -0.0243,-0.028 -0.0603,-0.2035 -0.0603,-0.2307 0,-0.028 -0.11783,-0.532 -0.13441,-0.5429 -0.0166,-0.011 -0.049,-0.017 -0.0878,-0.019 -0.0384,0 -0.0409,-0.017 -0.0409,-0.017 v -0.052 l -0.0575,-0.017 c 0,0 -0.0332,-0.1041 0.0303,-0.1944 0.0628,-0.09 0.10089,-0.4473 0.10089,-0.4473 0,0 -0.19191,-0.093 -0.32349,-0.1482 -0.13159,-0.055 -0.37571,-0.104 -0.40323,-0.1097 -0.0275,-0.01 -0.15381,-0.14 -0.17533,-0.2226 -0.0219,-0.082 -0.12382,-0.3919 -0.12665,-0.4604 -0.003,-0.069 0.0991,-0.2963 0.13441,-0.3951 0.036,-0.099 0.0251,-0.093 0.0251,-0.093 l -0.22225,-0.1259 h -0.0332 l -0.03,-0.02 -0.0438,-0.035 -0.0469,-0.02 -0.003,-0.03 -0.29316,-0.1454 0.0138,-0.03 0.18063,0.091 0.009,-0.019 -0.17816,-0.09 -0.0469,-0.011 -0.0494,-0.042 -0.0603,-0.03 0.036,-0.049 0.03,0.016 0.0247,-0.044 0.11501,0.063 -0.0162,0.049 0.2854,0.1404 0.0438,0.017 0.005,0.019 0.0579,0.025 h 0.0191 l 0.0328,0.016 0.008,0.022 0.45049,0.2 0.24413,0.1207 0.06,-0.055 c 0.0303,-0.028 0.0413,-0.03 0.0607,-0.082 0.0191,-0.052 0.12629,-0.096 0.1397,-0.1094 0.0138,-0.014 0.008,-0.049 -0.0166,-0.1125 -0.0243,-0.063 -0.0409,-0.1676 -0.0409,-0.1676 0,0 -0.0631,-0.019 -0.0797,-0.039 -0.0166,-0.019 -0.0166,-0.041 -0.0769,-0.098 -0.06,-0.058 0.0332,-0.1344 0.0635,-0.1757 0.03,-0.041 0.0519,-0.1534 0.085,-0.2085 0.0328,-0.055 0.15345,-0.1044 0.38382,-0.082 0.23036,0.022 0.26881,0.1207 0.27975,0.1814 0.0109,0.06 0.0607,0.3312 0.0963,0.3944 0.0353,0.063 0.006,0.055 -0.0275,0.055 -0.0328,0 -0.0963,-0.011 -0.0963,-0.011 0,0 -0.008,0.01 -0.0272,0.036 -0.0194,0.03 -0.008,0.052 0.005,0.06 0.0141,0.01 0.0469,-0.01 0.11254,-0.027 0.0663,-0.019 0.12876,0.046 0.1591,0.066 0.0303,0.019 0.0854,0.011 0.10724,0.014 0.0219,0 0.12877,0.099 0.13406,0.132 0.006,0.033 0.0497,0.052 0.0656,0.074 0.0166,0.021 0.0497,0.032 0.0854,0.063 0.036,0.03 0.0275,0.1153 0.0635,0.1315 0.0353,0.017 0.18344,0.2664 0.23283,0.2936 0.0494,0.028 0.0494,0.085 0.066,0.1481 0.0166,0.063 0.0903,0.1207 0.11536,0.1732 0.0243,0.052 0.013,0.1478 -0.0162,0.2219 -0.0307,0.074 -0.16757,0.1291 -0.21449,0.1397 -0.0462,0.011 -0.1591,0.063 -0.1591,0.063 l 0.0635,0.058 -0.0328,0.068 c 0,0 0.10407,-0.027 0.13935,-0.03 0.036,0 0.0494,0.057 0.0631,0.1066 0.0138,0.049 0.0275,0.2413 0.0579,0.3923 0.0296,0.151 -0.11007,0.2363 -0.11007,0.2363 0,0 -0.002,0.03 0,0.041 0.003,0.011 -0.03,0.066 -0.0519,0.088 -0.0219,0.022 -0.0635,-0.01 -0.0635,-0.01 0,0 0.0109,0.036 -0.0162,0.06 -0.0275,0.025 -0.12347,0.036 -0.12347,0.036 0,0 -0.008,0.032 -0.008,0.044 0,0.011 -0.0656,0.1097 -0.0713,0.1288 -0.006,0.019 0.0328,0.1069 -0.008,0.2085 -0.0409,0.1019 -0.10972,0.1809 -0.12101,0.1947 -0.0106,0.014 -0.0324,0.1072 -0.0324,0.1072 0,0 0.0522,0.088 0.0303,0.1288 -0.0219,0.041 -0.0162,0.098 -0.0162,0.098 0,0 0.1203,0.1073 0.1831,0.2198 0.0635,0.1122 0.12664,0.09 0.18379,0.1178 0.0582,0.027 0.0307,0.077 0.0307,0.077 0,0 0.0656,0.033 0.11748,0.063 0.0522,0.03 0.0635,0.1093 0.0635,0.1093 0,0 0.0219,0.039 0.0413,0.075 0.0187,0.036 -0.0773,0.1644 -0.0773,0.1644 h -0.0494 c 0,0 -0.006,0.069 -0.002,0.093 0.002,0.025 -0.0632,0.1891 -0.11289,0.2469 -0.049,0.058 -0.1397,0.06 -0.24659,0.058 -0.10725,0 -0.042,-7e-4 -0.1016,0.1093 -0.0547,0.102 -0.1591,0.1891 -0.35631,0.1891 -0.19791,0 -0.0437,-0.1781 0.0462,-0.3066 0.0907,-0.1294 0.0194,-0.1763 0.0138,-0.2772 0,0 -0.0325,-0.1429 -0.0381,-0.2057"
         id="path171070-1-6-0-0-8"
         style="stroke-width:0.352778" />
    </g>
    <path
       id="path66858-8-4-8-8-4"
       style="fill:#000000;fill-opacity:1;fill-rule:nonzero;stroke:none;stroke-width:0.352777"
       d="m 102.6126,24.690611 -0.17364,0.258384 h -0.25941 v 0.05994 h -1.19063 v -0.119891 h -0.0475 v 0.08682 h -0.24288 v 0.04909 h -0.11576 v 0.03359 h -0.20877 v 0.09302 h 0.20877 v 0.03359 h 0.1633 v -0.03359 h 0.0868 v 0.05013 h 1.4366 l -0.25373,0.377756 h -0.53278 l 0.001,0.170016 -0.36794,-0.0041 -0.10283,0.158131 -0.17467,0.03566 -0.13333,0.189137 -0.032,0.299207 -0.0884,0.136943 -2.051043,0.272333 -0.0346,-0.106969 -0.24133,0.03565 0.008,0.106453 -1.53634,0.204123 -0.03,-0.09353 -0.241328,0.03514 0.0067,0.09302 -0.91984,0.122473 -0.03101,-0.06098 -0.387057,0.03514 0.0052,0.08062 -0.2651,0.03566 -0.04289,0.04547 v -0.149344 h -0.120923 v -0.0832 h -0.22996 v -0.412377 c 0.02188,-0.0127 0.03669,-0.03591 0.03669,-0.06201 0,-0.03916 -0.03335,-0.0708 -0.07286,-0.0708 -0.04022,0 -0.07235,0.03164 -0.07235,0.0708 0,0.03528 0.02537,0.06412 0.05995,0.06976 V 27.1365 h -0.05995 v 0.341067 l -0.192752,0.448035 -0.549838,1.26297 -0.06821,0.0584 -0.08475,0.04754 -0.08527,-0.07131 0.145212,-0.0708 0.02479,-0.118854 -0.205671,0.130741 -0.03669,0.118338 0.08475,0.118856 0.157612,0.01138 0.0708,-0.03411 0.159679,0.263551 c -0.02752,0.109712 -0.04134,0.225632 -0.04134,0.344165 0,0.809273 0.669663,1.465543 1.495518,1.465543 0.722135,0 1.325328,-0.501817 1.465028,-1.168921 l 0.48679,-0.01447 0.2806,-0.185002 0.58136,-0.02997 0.007,0.03876 -0.13229,0.163298 0.0842,0.101801 0.1447,-0.06873 0.19017,0.261483 -0.0894,0.150378 0.0977,0.0894 0.16278,-0.107487 0.21859,0.11007 0.008,0.179318 0.13229,0.02273 0.061,-0.141594 0.2775,0.05426 0.0139,0.16433 0.13229,0.0181 0.0589,-0.148828 0.27544,0.03979 0.0124,0.15658 0.13281,0.0186 0.0574,-0.145211 0.276993,0.04134 0.0129,0.151413 0.13229,0.0186 0.0548,-0.139525 0.28008,0.04237 0.0119,0.144177 0.1323,0.0186 0.0548,-0.139528 0.27906,0.02687 0.0129,0.160194 0.13281,0.0186 0.0651,-0.166915 0.25425,0.0026 0.0331,0.146246 h 0.13384 l 0.0346,-0.144177 0.2837,0.0026 0.032,0.141595 h 0.13436 l 0.0326,-0.139528 0.28577,0.0036 0.0315,0.135909 h 0.13436 l 0.031,-0.134358 0.28836,0.0036 0.0305,0.130741 h 0.13384 l 0.0305,-0.12971 0.29042,0.0036 0.0289,0.12609 h 0.13436 l 0.0289,-0.124023 0.29353,0.0026 0.0269,0.121442 h 0.13436 l 0.0284,-0.119372 0.29507,0.0031 0.0269,0.116274 h 0.13333 l 0.0274,-0.114205 0.29765,0.0031 0.0253,0.111104 h 0.13385 l 0.0259,-0.109038 0.28783,0.0026 0.0248,0.106455 h 0.13333 l 0.0248,-0.104905 0.30231,0.0031 0.0233,0.101804 h 0.13385 l 0.0233,-0.09974 0.30541,0.0036 0.0217,0.09612 h 0.13385 l 0.0222,-0.09405 0.30644,0.0026 0.0212,0.09147 h 0.13384 l 0.0227,-0.09405 0.30282,-0.01344 0.0248,0.107487 h 0.13384 l 0.0274,-0.11524 0.29352,-0.01291 0.0295,0.128159 h 0.13332 l 0.0326,-0.136427 0.2868,-0.01188 0.031,0.135392 h 0.13436 l 0.0362,-0.154511 0.29714,-0.02998 0.0548,0.134361 0.13229,-0.02016 0.0114,-0.159163 0.22996,-0.104386 0.17311,0.10387 0.0925,-0.09457 -0.092,-0.13901 0.22014,-0.201538 0.16847,0.03669 0.0574,-0.118857 -0.12248,-0.09405 0.0951,-0.255796 0.16898,-0.03979 -0.002,-0.13126 -0.16071,-0.03359 -0.0129,-0.201022 0.68988,-0.077 v 0.08475 h 0.37879 c 0.0233,0.02928 0.0595,0.04754 0.0997,0.04754 0.0702,0 0.12712,-0.05575 0.12712,-0.124542 0,-0.06844 -0.0569,-0.124539 -0.12712,-0.124539 h 0.21136 v 0.04754 h 0.061 v -0.0553 l 0.36277,0.138494 h 0.19326 v -0.414962 h -0.22996 l -0.32607,0.0708 v -0.04754 h -0.061 v 0.05995 h -0.1602 l 0.29042,-0.45217 0.0755,-0.02222 1.62109,-2.537831 -0.0238,-0.04289 0.0899,-0.141076 -0.37156,-0.348816 -0.11368,-0.0016 v -0.6165 h 0.0677 v -0.12609 h -0.31109 v 0.12609 h 0.0455 v 0.08475 l -1.20199,-0.162263 -0.03,-0.0041 -0.22531,-0.03101 v -0.160713 l 0.0243,-0.0093 -0.0181,-0.04444 -0.094,0.03669 h -0.0491 v 0.01913 l -0.12247,0.04857 0.0181,0.04393 0.10439,-0.04083 v 0.197406 h 0.13694 v -0.04238 l 0.24288,0.03307 1.2144,0.500745 v 0.145211 l -9.90483,-0.114723 0.30696,-0.532783 0.0698,0.0062 v 0.117821 l 0.14831,-0.0062 0.0537,-0.0067 0.0543,0.106455 0.0279,0.11317 h 0.13539 l 0.0134,-0.106971 -0.0951,-0.145727 h 0.14987 l 0.0129,-0.05323 h 0.45888 l 0.0341,0.105936 0.0341,-0.04651 h 0.0816 l 0.0744,0.08681 0.0951,-0.02016 -0.0336,-0.0925 V 25.11491 l 0.0806,-0.0863 -0.0806,-0.01963 -0.12248,0.04651 -0.29765,0.03307 H 103.642 l -0.0475,-0.05323 -0.6072,-0.01085 0.12661,-0.220657 z m 8.82478,0.56534 1.0294,0.13901 v 0.285255 z m -2.26859,4.886008 c 0.0165,0.0029 0.0326,0.0091 0.0475,0.0186 0.0596,0.0381 0.0767,0.116269 0.0382,0.175183 -0.0395,0.05891 -0.11918,0.07583 -0.1788,0.03773 -0.06,-0.0381 -0.0774,-0.116787 -0.0382,-0.1757 0.0291,-0.04392 0.0816,-0.06448 0.13126,-0.05581 z m -0.39223,0.194821 c 0.0713,0 0.12919,0.0564 0.12919,0.126605 0,0.06985 -0.0579,0.126609 -0.12919,0.126609 -0.0716,0 -0.12971,-0.05676 -0.12971,-0.126609 0,-0.0702 0.0581,-0.126605 0.12971,-0.126605 z m -8.912633,0.0832 0.436153,0.0016 c 0.0631,0.213077 0.20086,0.394703 0.38395,0.516763 l -0.0114,0.02585 -0.26872,-0.04031 c -0.0141,-0.06562 -0.0426,-0.163994 -0.092,-0.17105 -0.0448,-0.0063 -0.0888,0.07532 -0.11627,0.139528 l -0.272333,-0.04134 c -0.0145,-0.06527 -0.0433,-0.157819 -0.0909,-0.163814 -0.0438,-0.0063 -0.0858,0.07034 -0.11369,0.133842 l -0.27595,-0.03928 c -0.005,-0.02294 -0.0119,-0.04939 -0.0207,-0.07338 0.17392,-0.05398 0.32647,-0.155355 0.44183,-0.288354 z m 0.857823,0.0026 0.23927,0.0011 c -0.0106,0.02469 -0.0294,0.04651 -0.0548,0.06098 -0.0617,0.03493 -0.14075,0.01469 -0.17673,-0.04599 -0.003,-0.0053 -0.005,-0.01072 -0.008,-0.01601 z m 0.74518,0.0021 0.0408,0.0011 c 0.008,0.02822 0.0184,0.05587 0.0289,0.08268 -0.005,-0.0019 -0.01,-0.0046 -0.015,-0.0078 -0.0282,-0.01834 -0.047,-0.04563 -0.0548,-0.07597 z m 1.88154,0.0062 0.0305,5.29e-4 c -0.0106,0.02045 -0.0269,0.03827 -0.0481,0.05167 0.006,-0.01693 0.0119,-0.03455 0.0176,-0.05219 z m 0.54209,0.0021 h 0.046 c 0.008,0.02716 0.0178,0.05315 0.0284,0.07855 -0.008,-0.0028 -0.0148,-0.0063 -0.0212,-0.01085 -0.0265,-0.01693 -0.0444,-0.04053 -0.0532,-0.0677 z m 2.40243,0.0078 0.0305,5.29e-4 c 0.006,0.02045 0.0131,0.04073 0.0191,0.05943 -0.0233,-0.01482 -0.0401,-0.0356 -0.0496,-0.05994 z m 1.26297,0.0041 0.20051,0.0011 c 0.004,0.0032 0.009,0.0063 0.0124,0.0098 0.0624,0.06174 0.0624,0.160825 0,0.222208 -0.0621,0.06103 -0.16374,0.06103 -0.22583,0 -0.0624,-0.06138 -0.0624,-0.160472 0,-0.222208 0.004,-0.0035 0.009,-0.0073 0.0129,-0.01085 z m -4.82399,0.01085 c 0.0325,0.09631 0.0811,0.185372 0.14211,0.265099 -0.0504,0.0088 -0.10366,-0.0055 -0.14211,-0.04289 -0.0621,-0.06138 -0.0621,-0.160473 0,-0.222209 z m 1.82263,0.0031 c 0.0596,0.06174 0.0597,0.158784 -0.002,0.219109 -0.0377,0.03669 -0.0893,0.05098 -0.13798,0.04393 0.06,-0.07937 0.10759,-0.167785 0.14005,-0.263035 z m -2.42208,0.0047 c 0.0557,0.06138 0.0529,0.155543 -0.007,0.214458 -0.0367,0.03528 -0.0861,0.05009 -0.13332,0.04444 0.0596,-0.07761 0.10758,-0.16506 0.14004,-0.2589 z m -0.9095,0.0011 c 0.0713,0 0.12919,0.05676 0.12919,0.126605 0,0.0695 -0.0579,0.127125 -0.12919,0.127125 -0.0713,0 -0.12971,-0.05763 -0.12971,-0.127125 0,-0.06985 0.0585,-0.126605 0.12971,-0.126605 z m 2.42104,0 c 0.0716,0 0.12971,0.05676 0.12971,0.126605 0,0.0695 -0.0581,0.127125 -0.12971,0.127125 -0.0716,0 -0.12868,-0.05763 -0.12868,-0.127125 0,-0.06985 0.0571,-0.126605 0.12868,-0.126605 z m 2.39985,0 c 0.0713,0 0.12971,0.05676 0.12971,0.126605 0,0.0695 -0.0585,0.127125 -0.12971,0.127125 -0.0716,0 -0.12971,-0.05763 -0.12971,-0.127125 0,-0.06985 0.0581,-0.126605 0.12971,-0.126605 z m 0.90589,0.0067 c 0.049,0.06138 0.0441,0.150262 -0.0134,0.206706 -0.0339,0.03316 -0.0791,0.0483 -0.12351,0.04547 0.0579,-0.0762 0.10449,-0.160811 0.13694,-0.25218 z m -1.80971,0.0078 c 0.0325,0.08819 0.0777,0.170508 0.13488,0.244946 -0.0423,7.94e-4 -0.0843,-0.01495 -0.11679,-0.04599 -0.055,-0.05398 -0.0608,-0.138277 -0.0181,-0.198954 z m -2.71146,0.100251 c 0.0885,0 0.16019,0.0698 0.16019,0.15658 0,0.08608 -0.0717,0.156581 -0.16019,0.156581 -0.0882,0 -0.15968,-0.0705 -0.15968,-0.156581 0,-0.08678 0.0715,-0.15658 0.15968,-0.15658 z m 2.42724,0 c 0.0885,0 0.15968,0.0698 0.15968,0.15658 0,0.08608 -0.0711,0.156581 -0.15968,0.156581 -0.0885,0 -0.15968,-0.0705 -0.15968,-0.156581 0,-0.08678 0.0711,-0.15658 0.15968,-0.15658 z m 2.38383,0 c 0.0885,0 0.15969,0.0698 0.15969,0.15658 -1e-5,0.08608 -0.0711,0.156581 -0.15969,0.156581 -0.0875,0 -0.15916,-0.0705 -0.15916,-0.156581 0,-0.08678 0.0717,-0.15658 0.15916,-0.15658 z m 0.81701,0.07545 c 0.0945,0.105127 0.21269,0.189913 0.34675,0.244946 -0.0208,0.03492 -0.0366,0.08587 -0.0465,0.12609 l -0.26768,0.01188 c -0.0226,-0.06314 -0.0665,-0.164846 -0.11834,-0.164846 -0.0501,0 -0.0835,0.105193 -0.0997,0.173633 l -0.2589,0.01188 -0.009,-0.02739 c 0.18838,-0.07549 0.34753,-0.20828 0.45372,-0.376203 z m -5.02037,0.233061 c 0.0155,0.0127 0.0316,0.02506 0.0486,0.03669 -0.0191,0.03492 -0.0322,0.08146 -0.0413,0.118856 l -0.26665,-0.0062 c 0.0949,-0.03634 0.18251,-0.0869 0.25941,-0.149344 z m 1.21388,0.0016 c 0.0744,0.05927 0.15738,0.108029 0.24805,0.143661 l -0.006,0.02532 -0.25683,-0.0026 c -0.0102,-0.03069 -0.0282,-0.07918 -0.0512,-0.118337 0.0226,-0.01482 0.0445,-0.03113 0.0656,-0.04806 z m -2.42466,0.0026 c 0.0737,0.05821 0.15657,0.106317 0.24547,0.141594 l -0.26459,-0.0026 c -0.0102,-0.02893 -0.0251,-0.06406 -0.0424,-0.09405 0.0215,-0.0141 0.0417,-0.02909 0.0615,-0.04496 z m 4.81573,0.0036 c 0.0787,0.06174 0.16727,0.111155 0.26252,0.145728 -0.004,0.01588 -0.006,0.03057 -0.009,0.04186 l -0.24391,-0.0026 c -0.006,-0.02045 -0.0285,-0.09349 -0.061,-0.146759 0.0177,-0.01236 0.0346,-0.02519 0.0512,-0.03824 z m -1.19114,0.0036 c 0.0127,0.01024 0.0267,0.01992 0.0408,0.02946 -0.0219,0.04304 -0.0365,0.101968 -0.045,0.13901 l -0.23926,-0.0021 -0.009,-0.02635 c 0.0914,-0.03422 0.1765,-0.08183 0.2527,-0.140042 z m 3.09025,0.04547 c 0.0748,0.01871 0.15467,0.02842 0.23616,0.02842 0.0191,0 0.0382,-2.65e-4 0.0558,0.0067 l -0.26562,0.02635 c -0.008,-0.02011 -0.0165,-0.04103 -0.0264,-0.0615 z m -5.28598,0.07493 c 0.0219,0.0095 0.0444,0.01894 0.0677,0.02635 l -0.0584,-5.29e-4 z m 3.17086,0.0041 c -0.006,0.02045 -0.01,0.0398 -0.0129,0.05426 l -0.15193,-0.0016 c 0.0572,-0.01304 0.11193,-0.03049 0.16485,-0.05271 z m -0.76119,5.3e-4 c 0.0459,0.01939 0.0939,0.03555 0.14366,0.04754 l -0.12764,-0.0016 c -0.004,-0.01093 -0.009,-0.02729 -0.016,-0.04599 z m -1.64848,0.0031 -0.006,0.02585 -0.0615,-5.29e-4 c 0.0229,-0.0078 0.0455,-0.0158 0.0677,-0.02532 z" />
  </g>
</svg>
