<?xml version="1.0" encoding="UTF-8" standalone="no"?>
<!-- Created with Inkscape (http://www.inkscape.org/) -->

<svg
   width="21.62281mm"
   height="6.0219798mm"
   viewBox="0 0 21.62281 6.0219802"
   version="1.1"
   id="svg33402"
   sodipodi:docname="inkporter-svg-e7qp_36f.svg"
   inkscape:version="1.1.1 (3bf5ae0d25, 2021-09-20)"
   xmlns:inkscape="http://www.inkscape.org/namespaces/inkscape"
   xmlns:sodipodi="http://sodipodi.sourceforge.net/DTD/sodipodi-0.dtd"
   xmlns="http://www.w3.org/2000/svg"
   xmlns:svg="http://www.w3.org/2000/svg">
  <sodipodi:namedview
     id="namedview555"
     pagecolor="#ffffff"
     bordercolor="#666666"
     borderopacity="1.0"
     inkscape:pageshadow="2"
     inkscape:pageopacity="0.0"
     inkscape:pagecheckerboard="0"
     inkscape:document-units="mm"
     showgrid="false"
     inkscape:zoom="0.32"
     inkscape:cx="889.0625"
     inkscape:cy="4120.3125"
     inkscape:window-width="1920"
     inkscape:window-height="1017"
     inkscape:window-x="-8"
     inkscape:window-y="-8"
     inkscape:window-maximized="1"
     inkscape:current-layer="svg33402" />
  <defs
     id="defs13927" />
  <path
     d="m 0.54399,1.38837 v 0.24529 c 0,0.0194 0.0165,0.0358 0.0358,0.0358 L 0.6983,1.63366 c 0.0207,0 0.0372,-0.0166 0.0372,-0.0372 V 1.42423 c 0,-0.0194 -0.0165,-0.0358 -0.0372,-0.0358 L 0.57979,1.35263 c -0.0193,0 -0.0358,0.0166 -0.0358,0.0358 m -0.33624,0 v 0.24529 c 0,0.0194 0.0165,0.0358 0.0358,0.0358 h 0.1199 c 0.0193,0 0.0358,-0.0166 0.0358,-0.0358 V 1.38843 c 0,-0.0194 -0.0165,-0.0358 -0.0358,-0.0358 h -0.1199 c -0.0193,0 -0.0358,0.0166 -0.0358,0.0358 M 19.89027,5.455 c 0.0565,-0.018 0.11162,-0.0372 0.16123,-0.0551 -0.0345,0.004 -0.0717,0.007 -0.10749,0.007 -0.0248,0 -0.0482,0 -0.0717,-0.004 z m -12.1171003,0.38862 0.006,-0.0689 c -0.0441,0.0275 -0.0923,0.051 -0.14332,0.0689 z m 0.84337,0 0.003,-0.0537 c -0.13505,-0.0786 -0.2384,-0.20536 -0.28663,-0.35694 h -0.29353 c -0.022,0.0703 -0.0565,0.13504 -0.10059,0.19293 h 0.0317 l 0.0152,0.21773 h 0.20257 l 0.0165,-0.21773 h 0.18052 l 0.0152,0.21773 z m 0.73449,0 0.01,-0.11849 c -0.062,0.051 -0.13229,0.0923 -0.20946,0.11849 z m 0.61736,-0.14054 0.01,0.14054 H 10.1851 C 10.1038,5.81192 10.02938,5.76372 9.9687497,5.70308 m -0.18604,-0.0772 h 0.11851 c -0.0785,-0.10749 -0.1254,-0.23978 -0.1254,-0.38171 0,-0.13366 0.0413,-0.2577 0.11024,-0.36106 l -0.40652,-0.006 c 0.0675,0.10199 0.10749,0.22465 0.10749,0.35694 0,0.14743 -0.0496,0.28247 -0.13229,0.39134 h 0.0923 l 0.0165,0.21773 h 0.20257 z m 1.1010503,0.21773 0.0124,-0.16675 c -0.0661,0.0731 -0.14883,0.12954 -0.24253,0.16675 z m 0.61736,-0.12403 0.01,0.12403 h 0.19017 c -0.0744,-0.0289 -0.14194,-0.0717 -0.19982,-0.12403 m -0.18603,-0.0937 h 0.10197 c -0.04,-0.0551 -0.0717,-0.11575 -0.0937,-0.18189 h -0.29214 c -0.0207,0.0661 -0.0538,0.12679 -0.0937,0.18189 h 0.14194 l 0.0165,0.21773 h 0.20257 z m 1.57509,0.21773 0.0138,-0.20119 c -0.0854,-0.11024 -0.13781,-0.24803 -0.13781,-0.39825 0,-0.11437 0.0303,-0.22186 0.0827,-0.31559 l -0.35554,-0.006 c 0.0537,0.0951 0.0854,0.20398 0.0854,0.3211 0,0.23841 -0.12953,0.44648 -0.32246,0.5581 l 0.003,0.0413 h 0.20257 l 0.0165,-0.21773 h 0.18052 l 0.0152,0.21773 z m 0.20946,-0.0358 0.003,0.0358 h 0.073 c -0.0262,-0.0109 -0.051,-0.0219 -0.0758,-0.0358 m 1.38355,0.0358 0.01,-0.12403 C 14.41104,5.64518 14.34905,5.5501 14.3146,5.44399 h -0.29215 c -0.0358,0.10611 -0.0978,0.20119 -0.17777,0.27421 l 0.008,0.12541 h 0.20257 l 0.0165,-0.21773 h 0.18052 l 0.0152,0.21773 z m 0.79375,0 0.005,-0.0648 c -0.0386,0.0261 -0.0799,0.0482 -0.12264,0.0648 z m 0.43133,-0.21773 h 0.17225 C 15.80387,5.51839 15.75705,5.3861 15.75705,5.24417 c 0,-0.0965 0.0207,-0.18743 0.0593,-0.27008 l -0.30868,-0.004 c 0.0386,0.0827 0.062,0.17639 0.062,0.27422 0,0.14192 -0.0469,0.27421 -0.12541,0.3817 h 0.0303 l 0.0152,0.21774 h 0.20257 z m 0.41203,0.21773 10e-4,-0.0194 C 16.02955,5.78011 15.95097,5.71534 15.89034,5.6354 l 0.0138,0.20811 z m 1.28571,0 0.0138,-0.1888 c -0.051,-0.062 -0.0909,-0.13367 -0.11575,-0.21082 h -0.29352 c -0.0427,0.13229 -0.12816,0.24666 -0.23978,0.32522 l 0.005,0.0744 h 0.20258 l 0.0152,-0.21773 h 0.18053 l 0.0165,0.21773 z m 0.21084,-0.0303 0.001,0.0303 h 0.0634 C 17.6584,5.83561 17.6377,5.82421 17.617,5.81331 M 6.8944797,5.59419 l -0.0455,0.14193 c 0.10473,0.0303 0.20119,0.0538 0.28663,0.0717 -0.0965,-0.0496 -0.18053,-0.12403 -0.24116,-0.21361 m -0.14056,-0.14883 0.0786,0.0317 c -0.0303,-0.0758 -0.0469,-0.15709 -0.0469,-0.24254 0,-0.15021 0.051,-0.288 0.13642,-0.39687 l -0.339,-0.004 c -0.15985,0.15435 -0.36517,0.26321 -0.59531,0.30181 l 0.15159,0.0606 -0.0827,0.25904 c 0.0606,0.0247 0.11988,0.0496 0.18052,0.0731 l 0.11989,-0.24391 0.16812,0.0689 -0.0827,0.25217 c 0.0675,0.0247 0.13366,0.0469 0.19843,0.0675 z m -1.29949,-0.29076 0.0248,-0.0496 c -0.16536,-0.0482 -0.31282,-0.13367 -0.43684,-0.24529 0.11025,0.10058 0.25218,0.20119 0.41203,0.29489 m 0.23014,-0.008 -0.0372,0.11575 c 0.0675,0.0358 0.1378,0.0689 0.20808,0.10336 l 0.11162,-0.22736 c -0.0551,0.01 -0.11162,0.0138 -0.16949,0.0138 -0.0372,0 -0.0758,-0.004 -0.113,-0.006 M 18.48513,5.79384 18.44653,5.60644 c -0.0675,0.0992 -0.16261,0.17914 -0.27561,0.22737 0.0951,-0.008 0.20119,-0.0219 0.31419,-0.04 m 0.76895,-0.43409 0.17225,-0.0496 0.0951,0.25358 c 0.0524,-0.0138 0.10473,-0.0289 0.15572,-0.0441 L 19.64263,5.35835 C 19.37805,5.27015 19.16307,5.06897 19.05834,4.8113 L 18.4961,4.96701 c 0.04,0.084 0.062,0.17777 0.062,0.27697 0,0.12679 -0.0358,0.24391 -0.0992,0.34315 l 0.15847,-0.0441 0.0786,0.21357 c 0.0648,-0.0123 0.13091,-0.0247 0.19706,-0.0386 l -0.0496,-0.24116 0.17363,-0.0496 0.0882,0.24253 c 0.0675,-0.0166 0.13642,-0.0318 0.20257,-0.0496 z m -2.0561,-4.65367 v 0.0346 l 0.14883,0.0275 v -0.062 z M 6.2246397,2.14333 c -0.21084,-0.0965 -0.56086,-0.27696 -0.62976,-0.45751 L 1.08594,1.64592 l -0.113,0.0634 h -0.226 L 0.52508,1.81681 H 0.44378 L 0.40798,1.76311 H 0.2123 L 0.1489,1.82651 H 0.0772 L 0,1.74931 V 1.28079 l 0.0772,-0.0758 h 0.0717 l 0.0634,0.0634 h 0.19568 l 0.0358,-0.0551 h 0.0813 l 0.22186,0.10886 h 0.226 l 0.113,0.0634 4.5337397,-0.0937 c 0.0248,-0.04 0.0661,-0.0689 0.13505,-0.0896 l 0.0303,-0.007 0.0207,-0.006 c 0.24804,-0.0496 0.95498,-0.27284 1.15341,-0.42167 0.0923,-0.0689 0.21636,-0.10337 0.31971,-0.11991 0.003,-0.004 0.0648,-0.20257 0.62287,-0.20257 0.55673,0 1.983,-0.11024 1.983,-0.11024 H 10.92514 V 0.02343 l 0.40238,0.31143 H 11.7809 V 0 h 0.5209 V 0.33486 H 13.356 V 0.01242 h 0.59531 V 0.3211 h 1.01561 l 0.89297,0.1681 V 0.4451 h 1.54892 v 0.16122 h 0.14883 V 0.4451 h 1.55029 v 0.26046 h -0.21084 v 0.11162 h 0.21084 v 0.26045 h -0.1006 l 0.39826,0.0744 V 0.82959 h 0.26044 v 0.50849 h 0.24805 v 0.33761 l 0.28388,-0.018 0.0331,0.20535 c 0.0965,0.0579 0.17777,0.14055 0.17777,0.25629 v 0.23703 l 0.0799,-0.16259 0.15297,0.0152 0.0923,0.0923 -0.12264,0.24532 0.0923,0.10746 0.0248,0.20672 0.89435,0.45198 -0.0606,0.18331 h -1.02112 c 0.12678,0.084 0.24804,0.19427 0.34451,0.33348 0.37345,0.54292 0.0951,1.20438 -0.29628,1.51444 -0.33073,0.26183 -1.97611,0.678 -2.59623,0.678 H 7.4125197 C 6.9109097,6.02198 5.0739897,5.406 4.70054,4.71974 4.63854,4.60812 4.59443,4.50063 4.56273,4.39726 L 4.54203,4.38926 3.98393,3.90419 4.34084,3.5542 4.25544,3.5582 4.12039,3.4824 4.53242,2.62526 5.3082597,2.38135 h -0.14883 l 0.0289,-0.0194 0.26734,-0.0332 0.0813,-0.10337 0.073,0.0841 0.50987,-0.062 z m 0,0"
     id="G-JagdpanzerIV" />
</svg>
