<?xml version="1.0" encoding="UTF-8" standalone="no"?>
<!-- Created with Inkscape (http://www.inkscape.org/) -->

<svg
   width="27.698187mm"
   height="10.663mm"
   viewBox="0 0 27.698187 10.663001"
   version="1.1"
   id="svg33402"
   sodipodi:docname="inkporter-svg-e7qp_36f.svg"
   inkscape:version="1.1.1 (3bf5ae0d25, 2021-09-20)"
   xmlns:inkscape="http://www.inkscape.org/namespaces/inkscape"
   xmlns:sodipodi="http://sodipodi.sourceforge.net/DTD/sodipodi-0.dtd"
   xmlns="http://www.w3.org/2000/svg"
   xmlns:svg="http://www.w3.org/2000/svg">
  <sodipodi:namedview
     id="namedview555"
     pagecolor="#ffffff"
     bordercolor="#666666"
     borderopacity="1.0"
     inkscape:pageshadow="2"
     inkscape:pageopacity="0.0"
     inkscape:pagecheckerboard="0"
     inkscape:document-units="mm"
     showgrid="false"
     inkscape:zoom="0.32"
     inkscape:cx="889.0625"
     inkscape:cy="4120.3125"
     inkscape:window-width="1920"
     inkscape:window-height="1017"
     inkscape:window-x="-8"
     inkscape:window-y="-8"
     inkscape:window-maximized="1"
     inkscape:current-layer="svg33402" />
  <defs
     id="defs13927" />
  <path
     d="m 1.2581106,3.7814 c 0.0148,-0.1919 0.0755,-0.3439 0.09,-0.5118 0.0166,-0.1863 -0.0667,-0.6516 -0.25047,-1.0079 C 0.91137063,1.9011 0.89479063,1.7921 0.80589063,2.2127 c -0.10266,0.4854 -0.16192,0.7814 -0.16192,1.0202 0,0.2388 0.0727,0.4494 0.11747,0.5179 0.0406,0.063 0.0476,0.065 0.0455,0.1849 -0.38347,0.1499 -0.7934,0.3672 -0.80644999745,0.6127 C -0.01610937,4.8582 0.39137063,5.0744 0.79001063,5.1979 c -0.0148,0.098 -0.0459,0.2998 -0.0773,0.4029 -0.0406,0.1337 -0.15769,0.2956 -0.0808,0.9228 0.0769,0.6273 0.11324,1.1779 0.11712,1.4168 0.004,0.2392 -0.0159,0.5789 0.14994,0.5831 0.16579997,0 0.19049997,-0.417 0.20213997,-0.5588 0.0123,-0.1414 0.12171,-1.1169 0.17462,-1.3155 0.0522,-0.1983 0.0808,-0.6357 -0.0247,-0.931 -0.0677,-0.1905 -0.0938,-0.3404 -0.10337,-0.4321 0.0533,0.01 0.10301,0.018 0.14817,0.023 l 0.19403,0.024 c 0,0 0.12947,0.1376 0.27552,0.1781 0.14569,0.041 0.55068,0.2187 0.55068,0.2187 0,0 0.0889,0.6555 0.0723,0.8337 -0.0162,0.1781 -0.0564,0.3887 0.15417,0.4212 0.21025,0.032 1.91875,0.048 2.04787,0.048 0.13018,0 0.0649,-0.4128 0.0734,-0.4854 0.008,-0.073 0.2345997,-0.1055 0.4691897,-0.1136 0.23495,-0.01 1.53811,-0.2914 1.62737,-0.3077 0.0889,-0.016 0.42086,0.04 0.42086,0.04 0,0 -0.0889,0.8665 -0.0889,0.9878 0,0.1217 0.0402,0.1704 0.0808,0.1944 0.0409,0.024 -0.12101,0.5909 -0.21026,0.6883 -0.0889,0.097 -0.39652,0.3238 -0.71261,0.526 -0.31538,0.2024 -0.51012,0.818 -0.4452,1.0124 0.0649,0.1941 0.15381,0.2667 0.15381,0.2667 h 0.0194 c 0.11007,0.4706 0.53234,0.8213 1.03646,0.8213 0.53128,0 0.9719,-0.3895 1.05128,-0.8989 0.46249,-0.073 1.88418,-0.4695 2.1995697,-0.6509 0.3242,-0.1859 -0.1457,-0.34 -0.18592,-0.3559 -0.0402,-0.017 -0.9556697,-0.3404 -1.1091297,-0.3644 -0.15381,-0.025 -0.31574,-0.1376 -0.31574,-0.2756 0,-0.1375 0.0564,-0.599 0.0564,-0.599 0,0 0.073,0.033 0.10548,-0.024 0.0321,-0.057 0.10548,-0.8096 0.12947,-0.9394 0.0243,-0.1295 0.12982,-0.1295 0.29139,-0.1295 0.16193,0 1.0685697,0.065 1.2629497,0.065 0.19473,0 1.5628,0.016 1.5628,0.016 l 1.14159,0.3479 0.13723,-0.162 c 0,0 0.71261,-0.01 0.81774,-0.032 0.10548,-0.024 1.06892,-0.4939 1.06892,-0.4939 l 0.89041,-0.032 V 6.604 h 0.25082 V 6.1426 c 0,0 1.82986,-0.097 2.40454,-0.1376 0.57503,-0.041 3.9183,-0.2269 4.08834,-0.2512 0.17004,-0.024 1.39241,-0.1051 1.46579,-0.097 0.0723,0.01 0.16157,0.2109 0.27517,0.2109 0.11324,0 0.18591,0.1295 0.21837,0.1539 0.0324,0.024 0.24271,0.3968 0.28328,0.4371 0.0205,0.021 0.0716,0.053 0.11747,0.08 -0.0296,0.067 -0.0462,0.1418 -0.0462,0.2197 0,0.301 0.24412,0.5447 0.54433,0.5447 0.30092,0 0.54469,-0.2437 0.54469,-0.5447 0,-0.3005 -0.24377,-0.5443 -0.54469,-0.5443 -0.12206,0 -0.23495,0.04 -0.32561,0.1083 -0.0272,-0.028 -0.0512,-0.062 -0.0632,-0.099 -0.0406,-0.1217 -0.0892,-0.3725 0.1457,-0.4293 0.2346,-0.056 0.2914,0.073 0.38065,0.049 0.0889,-0.024 0.25082,-0.1782 0.25082,-0.1782 0,0 0.10513,-0.081 0.26706,-0.1132 0.16192,-0.033 0.76905,-0.1863 1.07703,-0.2752 0.30727,-0.089 0.23459,-0.4131 0.24235,-0.6801 0.008,-0.2671 -0.16968,-3.603 -0.17815,-3.6354 -0.008,-0.032 -0.21025,-0.2508 -0.21025,-0.2508 0,0 -0.0325,-0.1701 -0.12171,-0.2265 -0.0889,-0.057 -0.10478,-0.1052 -0.27482,-0.1136 -0.17003,-0.01 -1.87042,-0.024 -1.92722,-0.024 -0.0564,0 -0.29104,-0.073 -0.56621,0.4124 -0.27517,0.4861 -1.34408,2.4613 -1.34408,2.4613 0,0 -0.68016,0.7126 -2.43699,0.6234 -1.75683,-0.089 -6.0071,-0.4371 -6.0071,-0.4371 l -0.0808,-0.1133 c 0,0 0.006,-0.1605 -0.0356,-0.3467 l 1.1236,-0.4043 -0.0176,-0.094 -1.13206,0.3983 C 14.43608,2.6817 14.34365,2.5162 14.17608,2.434 13.77956,2.2396 13.836,2.167 13.79543,2.1105 c -0.0402,-0.057 -0.43709,-0.089 -0.51788,-0.089 -0.0811,0 -0.68827,-0.016 -0.68827,-0.016 L 12.45982,2.1431 12.20899,2.0941 V 1.8108 h -0.025 V 0 H 12.0764 v 1.8108 h -0.0455 v 0.2833 h -0.5588 c 0,0 -0.0159,-0.089 -0.0649,-0.089 -0.0483,0 -2.2831797,-0.056 -2.4204097,-0.049 -0.13794,0.01 -0.29951,0.033 -0.39652,0.1457 -0.0974,0.1132 -0.57503,0.5507 -0.65582,0.5994 -0.0811,0.048 -0.21061,0.081 -0.21061,0.081 0,0 -1.87007,0.2914 -1.96709,0.308 -0.097,0.016 -0.53445,0.1453 -0.61559,0.1375 -0.0808,-0.01 0.008,-0.081 -0.31574,-0.073 -0.3238497,0.01 -0.8985197,0.065 -0.8985197,0.065 l -0.19438,0.1701 c 0,0 -1.54588,0.065 -1.71627,0.081 -0.17004,0.016 -0.48542,0.2346 -0.55033,0.2508 -0.0141,0 -0.0931,0.024 -0.20779,0.059"
     id="G-Ju87" />
</svg>
