<?xml version="1.0" encoding="UTF-8" standalone="no"?>
<!-- Created with Inkscape (http://www.inkscape.org/) -->

<svg
   width="14.636045mm"
   height="5.7446332mm"
   viewBox="0 0 14.636044 5.7446335"
   version="1.1"
   id="svg33402"
   sodipodi:docname="inkporter-svg-e7qp_36f.svg"
   inkscape:version="1.1.1 (3bf5ae0d25, 2021-09-20)"
   xmlns:inkscape="http://www.inkscape.org/namespaces/inkscape"
   xmlns:sodipodi="http://sodipodi.sourceforge.net/DTD/sodipodi-0.dtd"
   xmlns="http://www.w3.org/2000/svg"
   xmlns:svg="http://www.w3.org/2000/svg">
  <sodipodi:namedview
     id="namedview555"
     pagecolor="#ffffff"
     bordercolor="#666666"
     borderopacity="1.0"
     inkscape:pageshadow="2"
     inkscape:pageopacity="0.0"
     inkscape:pagecheckerboard="0"
     inkscape:document-units="mm"
     showgrid="false"
     inkscape:zoom="0.32"
     inkscape:cx="889.0625"
     inkscape:cy="4120.3125"
     inkscape:window-width="1920"
     inkscape:window-height="1017"
     inkscape:window-x="-8"
     inkscape:window-y="-8"
     inkscape:window-maximized="1"
     inkscape:current-layer="svg33402" />
  <defs
     id="defs13927" />
  <g
     id="G-Kleinpanzer"
     transform="matrix(0.35277777,0,0,-0.35277777,14.0208,2.3957138)">
    <path
       d="m 0,0 0.088,0.135 -0.935,0.901 h 0.744 L 0.303,0.756 C 0.289,0.697 0.28,0.637 0.28,0.574 0.28,0.341 0.39,0.134 0.559,0 Z M 0.472,-0.755 H 0.28 l -0.516,0.395 0.088,0.135 h 0.62 z m -4.608,-7.162 c 0.002,10e-4 0.005,0.003 0.007,0.006 l -0.002,-0.005 z m -4.795,-1.098 h -0.004 c 0.718,0.329 1.23,1.027 1.293,1.852 h 0.258 c 0.25,-0.64 0.817,-1.121 1.508,-1.251 z m -26.21,1.358 c 0.466,0.038 0.891,0.216 1.231,0.494 h 1.769 c 0.053,-0.679 0.408,-1.272 0.933,-1.645 z m -1.534,0.454 c 0.002,-0.002 0.005,-0.004 0.008,-0.006 l -0.006,0.002 z M -38.195,-5 c -0.134,0 -0.242,0.108 -0.242,0.242 0,0.134 0.108,0.242 0.242,0.242 0.134,0 0.242,-0.108 0.242,-0.242 0,-0.134 -0.108,-0.242 -0.242,-0.242 m 3.078,-2.163 h 0.383 c -0.123,-0.041 -0.251,-0.07 -0.383,-0.085 z m -1.676,0.655 0.118,0.067 0.918,-0.722 h 0.235 v -0.085 c -0.522,0.058 -0.976,0.337 -1.271,0.74 m 15.429,10.225 h 0.691 V 2.973 h -0.691 z m 0,1.655 h 0.691 V 4.724 h -0.691 z m 6.384,-0.648 h -5.219 v 0.648 h 5.219 z m 0,-2.801 -1.115,0.171 v 0.879 h -4.104 v 0.744 h 5.219 z m 5.83,-9.086 h 1.103 C -8.066,-7.355 -8.114,-7.54 -8.187,-7.71 Z M -9.66,-7.56 c 0.072,0.025 0.136,0.063 0.193,0.112 l 1.077,-0.614 c -0.294,-0.403 -0.749,-0.683 -1.27,-0.74 z m -0.915,0.397 -0.963,-0.547 c -0.074,0.17 -0.122,0.355 -0.14,0.547 z m 0.51,-0.397 v -1.242 c -0.522,0.057 -0.976,0.337 -1.271,0.74 l 1.078,0.614 c 0.056,-0.049 0.121,-0.087 0.193,-0.112 m -2.551,0.397 h 0.533 c 0.063,-0.825 0.575,-1.523 1.293,-1.852 h -3.119 c 0.718,0.329 1.23,1.027 1.293,1.852 m -1.508,0 h 1.102 c -0.017,-0.192 -0.066,-0.377 -0.139,-0.547 z m -0.51,-0.397 c 0.071,0.025 0.136,0.063 0.192,0.112 l 1.078,-0.614 c -0.294,-0.403 -0.748,-0.683 -1.27,-0.74 z m -1.878,-0.15 c -0.074,0.17 -0.122,0.355 -0.14,0.547 h 1.103 z m 1.472,0.15 v -1.242 c -0.52,0.057 -0.975,0.337 -1.27,0.74 l 1.078,0.614 c 0.057,-0.049 0.121,-0.087 0.192,-0.112 m -2.549,0.397 h 0.531 c 0.064,-0.825 0.576,-1.523 1.294,-1.852 h -3.119 c 0.719,0.329 1.23,1.027 1.294,1.852 m -1.508,0 h 1.102 c -0.019,-0.192 -0.066,-0.377 -0.14,-0.547 z m -0.511,-0.397 c 0.072,0.025 0.137,0.063 0.193,0.112 l 1.077,-0.614 c -0.294,-0.403 -0.749,-0.683 -1.27,-0.74 z m -1.877,-0.15 c -0.075,0.17 -0.122,0.355 -0.141,0.547 h 1.103 z m 1.472,0.15 v -1.242 c -0.521,0.057 -0.976,0.337 -1.27,0.74 l 1.077,0.614 c 0.056,-0.049 0.121,-0.087 0.193,-0.112 m -2.712,0.397 h 0.693 c 0.064,-0.825 0.575,-1.523 1.293,-1.852 h -3.279 c 0.718,0.329 1.23,1.027 1.293,1.852 m -2.933,0 -0.963,-0.547 c -0.074,0.17 -0.122,0.355 -0.14,0.547 z m 0.509,-0.397 v -1.242 c -0.521,0.057 -0.975,0.337 -1.27,0.74 l 1.078,0.614 c 0.057,-0.049 0.121,-0.087 0.192,-0.112 m 1.676,-0.502 c -0.294,-0.403 -0.748,-0.683 -1.27,-0.74 v 1.242 c 0.071,0.025 0.136,0.063 0.192,0.112 z m 0.342,0.899 c -0.017,-0.192 -0.066,-0.377 -0.139,-0.547 l -0.963,0.547 z m -4.567,0 h 0.531 c 0.064,-0.825 0.576,-1.523 1.294,-1.852 h -3.119 c 0.718,0.329 1.23,1.027 1.294,1.852 m -2.617,-0.285 c 0.056,-0.049 0.121,-0.087 0.192,-0.112 v -1.242 c -0.52,0.057 -0.975,0.337 -1.269,0.74 z m -0.317,0.285 -0.963,-0.547 c -0.074,0.17 -0.121,0.355 -0.14,0.547 z m 2.185,-0.899 c -0.294,-0.403 -0.749,-0.683 -1.27,-0.74 v 1.242 c 0.071,0.025 0.137,0.063 0.193,0.112 z m 0.342,0.899 c -0.018,-0.192 -0.065,-0.377 -0.14,-0.547 l -0.961,0.547 z m 23.147,0.64 c 0.005,0.031 0.009,0.063 0.009,0.096 0,0.034 -0.004,0.065 -0.009,0.097 l 0.977,0.557 c 0.087,-0.2 0.135,-0.421 0.135,-0.654 0,-0.232 -0.048,-0.453 -0.135,-0.654 z m -0.359,-1.548 v 1.126 c 0.065,0.023 0.124,0.058 0.175,0.103 L -4.164,-7.4 c -0.268,-0.366 -0.68,-0.619 -1.153,-0.671 m -0.543,1.229 c 0.052,-0.045 0.11,-0.08 0.175,-0.103 v -1.126 c -0.473,0.052 -0.885,0.305 -1.152,0.671 z m 1.354,1.403 0.291,0.046 c 0.017,-0.019 0.035,-0.039 0.051,-0.061 L -5.142,-6.01 c -0.024,0.019 -0.048,0.037 -0.075,0.053 z M 1.013,1.306 C 0.807,1.306 0.623,1.222 0.49,1.087 l -0.514,0.479 h -1.372 l -0.339,0.326 h -12.771 v 1.825 h 2.939 v 1.007 h -2.939 v 0.648 h 2.939 v 1.007 h -2.939 V 6.69 H -14.98 V 6.379 h -5.219 V 6.69 h -0.474 V 6.379 h -0.691 v 0.412 h -1.133 L -22.716,6.47 V 6.379 h -2.5 V 5.372 h 2.5 V 4.724 h -2.5 V 3.717 h 2.5 v -0.22 l 0.649,-0.524 h -0.716 l -1.183,-2.338 h -3.784 l -7.202,-1.199 c -0.071,0.167 -0.262,0.373 -0.783,0.373 h -0.63 v -0.248 h -0.923 v -0.27 h 1.024 v -0.073 l -1.384,-0.231 V -1.3 l -1.825,0.421 -0.271,-0.855 1.724,-0.36 V -2.23 h -0.259 v -0.428 h 0.631 v -1.053 l -1.082,-0.658 v -0.946 h 0.853 c -0.055,-0.178 -0.095,-0.386 -0.053,-0.553 0.09,-0.36 0.179,-0.9 0.642,-1.295 0.462,-0.394 1.386,-0.934 2.377,-1.114 0.99,-0.181 4.346,-1.216 4.346,-1.216 h 21.644 l 3.288,0.563 c 0,0 1.51,0.427 1.758,0.766 0.247,0.337 0.675,0.833 0.63,1.531 -0.03,0.473 -0.153,1.007 -0.279,1.352 l 0.065,0.01 2.085,3.177 h 1.091 v 0.742 c 0,0.052 -0.29,0.051 -0.579,0.038 l 0.525,0.801 c 0.231,-0.19 0.558,-0.458 0.578,-0.478 0.031,-0.031 0.456,0 0.456,0 v 0.906 c 0.095,-0.046 0.202,-0.073 0.316,-0.073 0.403,0 0.731,0.329 0.731,0.732 0,0.405 -0.328,0.732 -0.731,0.732"
       id="path59936-4-2" />
  </g>
</svg>
