<?xml version="1.0" encoding="UTF-8" standalone="no"?>
<!-- Created with Inkscape (http://www.inkscape.org/) -->

<svg
   width="13.885068mm"
   height="5.4502301mm"
   viewBox="0 0 13.885068 5.4502301"
   version="1.1"
   id="svg5"
   sodipodi:docname="inkporter-svg-urobi3ui.svg"
   xmlns:inkscape="http://www.inkscape.org/namespaces/inkscape"
   xmlns:sodipodi="http://sodipodi.sourceforge.net/DTD/sodipodi-0.dtd"
   xmlns="http://www.w3.org/2000/svg"
   xmlns:svg="http://www.w3.org/2000/svg">
  <sodipodi:namedview
     id="namedview7"
     pagecolor="#ffffff"
     bordercolor="#666666"
     borderopacity="1.0"
     inkscape:pageshadow="2"
     inkscape:pageopacity="0.0"
     inkscape:pagecheckerboard="0"
     inkscape:document-units="mm"
     showgrid="false"
     inkscape:object-paths="true"
     inkscape:snap-smooth-nodes="true"
     inkscape:zoom="0.080065411"
     inkscape:cx="-149.87745"
     inkscape:cy="443.38747"
     inkscape:window-width="1920"
     inkscape:window-height="1017"
     inkscape:window-x="-8"
     inkscape:window-y="-8"
     inkscape:window-maximized="1"
     inkscape:current-layer="layer1" />
  <defs
     id="defs2" />
  <g
     inkscape:label="Layer 1"
     inkscape:groupmode="layer"
     id="layer1"
     transform="translate(27.996507,210.90635)">
    <path
       id="G-Kubelwagen"
       d="m -22.92132,-210.90438 c -0.0316,-6e-4 -0.0746,0.0239 -0.12095,0.0753 -0.0373,0.0414 -0.17,0.2175 -0.29491,0.39135 l -0.22708,0.31608 -0.006,-0.35784 -0.006,-0.35786 -0.1094,0.007 -0.10941,0.007 -0.006,0.34218 c -0.005,0.30474 -0.0114,0.34717 -0.052,0.38786 -0.0391,0.0391 -0.0457,0.0776 -0.0457,0.26566 0,0.20568 -0.003,0.21998 -0.0471,0.21998 -0.0259,0 -0.0531,0.0159 -0.0606,0.0354 -0.0312,0.0812 -0.18955,0.11284 -0.70861,0.14134 -0.23199,0.0127 -0.24896,0.0107 -0.24964,-0.0294 -3.1e-4,-0.0237 -0.0135,-0.0598 -0.0291,-0.0803 -0.0426,-0.056 -0.21417,-0.13654 -0.29067,-0.13654 -0.0542,0 -0.85366,0.27271 -2.22672,0.75967 -0.10253,0.0364 -0.13559,0.0615 -0.16956,0.12853 -0.0475,0.0938 -0.0368,0.13066 0.038,0.13066 0.04,0 0.0659,0.0319 0.12022,0.14767 l 0.0692,0.14765 -0.10419,0.0549 c -0.0946,0.0499 -0.10484,0.0636 -0.11112,0.1492 -0.007,0.0905 -0.01,0.0938 -0.0768,0.084 -0.0387,-0.005 -0.11039,0.008 -0.16096,0.0309 -0.0892,0.0402 -0.0911,0.0438 -0.0899,0.15916 8.7e-4,0.1032 0.0102,0.1251 0.0719,0.17395 0.0653,0.0516 0.0769,0.0536 0.15395,0.0257 0.061,-0.022 0.0857,-0.0231 0.0921,-0.004 0.005,0.0151 0.0588,0.0263 0.12509,0.0263 0.0896,0 0.1135,0.007 0.10402,0.0321 -0.0156,0.0405 0.0195,0.0917 0.24278,0.353 l 0.18054,0.21134 -0.0137,0.21704 c -0.0168,0.26787 0.025,0.46614 0.14799,0.70064 0.23302,0.44454 0.7416,0.72296 1.23661,0.67695 0.57873,-0.0538 1.06261,-0.50317 1.15631,-1.07385 l 0.0276,-0.16798 2.98946,0.005 2.96322,0.005 a 1.2969351,1.2969351 0 0 0 1.29511,1.24752 1.2969351,1.2969351 0 0 0 1.2955,-1.259 l 0.2549,-6.2e-4 0.2605,-6e-4 0.21705,-0.24263 c 0.11936,-0.13346 0.23138,-0.24265 0.24892,-0.24264 0.0224,0 0.0319,0.0311 0.0319,0.10421 0,0.10292 6.2e-4,0.10419 0.0782,0.10419 0.12442,0 0.13904,-0.0371 0.12076,-0.30736 l -0.016,-0.23681 0.1696,0.16789 c 0.1547,0.15314 0.17788,0.16787 0.26389,0.16788 0.11777,0 0.17009,-0.0529 0.18325,-0.18525 0.0119,-0.11942 -2.9e-4,-0.14353 -0.14924,-0.29234 -0.0979,-0.0979 -0.11781,-0.1319 -0.11781,-0.2009 0,-0.12665 -0.0794,-0.20472 -0.22225,-0.21844 -0.0884,-0.009 -0.12268,-0.002 -0.14684,0.0269 -0.0283,0.0341 -0.0373,0.0282 -0.0885,-0.0574 -0.0417,-0.07 -0.0501,-0.10236 -0.0312,-0.12121 0.0142,-0.0141 0.0257,-0.0438 0.0257,-0.0661 0,-0.0544 -0.29467,-0.54538 -0.35101,-0.58482 -0.0404,-0.0283 -0.041,-0.0328 -0.006,-0.0462 0.0301,-0.0116 0.0357,-0.0335 0.0254,-0.0976 -0.008,-0.0472 -0.002,-0.10148 0.0139,-0.12641 0.0211,-0.0336 0.0207,-0.0501 -8.7e-4,-0.072 -0.0156,-0.0156 -0.0283,-0.0679 -0.0283,-0.11633 0,-0.0961 -0.008,-0.0996 -0.16662,-0.0734 -0.0686,0.0113 -0.091,0.0284 -0.1132,0.0866 -0.0193,0.0506 -0.0306,0.061 -0.0372,0.0345 -0.005,-0.0208 0.0118,-0.073 0.0378,-0.11578 0.0624,-0.10232 0.0613,-0.11064 -0.0334,-0.24829 l -0.081,-0.11776 0.066,-0.0342 c 0.0617,-0.0319 0.11789,-0.0983 0.17893,-0.2117 0.0787,-0.14623 0.0616,-0.36676 -0.0364,-0.46937 -0.0349,-0.0365 -0.0675,-0.0784 -0.0723,-0.0929 -0.0103,-0.0306 -0.2406,-0.1193 -0.30958,-0.11921 -0.0256,0 -0.0807,0.0208 -0.12242,0.0463 -0.0417,0.0255 -0.091,0.0462 -0.1095,0.0462 -0.0185,0 -0.0886,0.0248 -0.15576,0.0551 -0.21778,0.0982 -0.2756,0.108 -0.90937,0.15436 -1.14238,0.0835 -1.50369,0.11565 -1.52326,0.13523 -0.0107,0.0106 -0.01,0.0895 8.7e-4,0.17524 0.0146,0.10923 0.0133,0.15831 -0.004,0.16404 -0.0139,0.004 -0.102,0.0304 -0.19578,0.0575 -0.11969,0.0346 -0.1738,0.062 -0.18159,0.0918 -0.006,0.0233 -0.0317,0.0478 -0.057,0.0544 -0.0252,0.007 -0.052,0.0352 -0.0594,0.0636 l -0.0135,0.0517 -0.84438,-0.0157 c -0.56871,-0.0106 -0.85376,-0.008 -0.87314,0.008 -0.0191,0.0159 -0.37194,0.0218 -1.04446,0.0179 l -1.01564,-0.006 -0.0881,-0.1612 c -0.0989,-0.18091 -0.12024,-0.20095 -0.18765,-0.17602 -0.087,0.0322 -0.0961,0.0797 -0.0403,0.20945 0.0286,0.0663 0.0472,0.12534 0.0415,0.13106 -0.005,0.005 -0.0842,0.007 -0.1744,0.004 l -0.16399,-0.007 0.2373,-0.40523 c 0.13053,-0.22288 0.27604,-0.45551 0.32332,-0.51698 0.0919,-0.11951 0.10041,-0.1429 0.0607,-0.16748 -0.014,-0.009 -0.0202,-0.0425 -0.014,-0.0751 0.0149,-0.0781 -0.007,-0.11968 -0.0471,-0.1203 z m 5.57961,2.86237 a 1.2969351,1.2969351 0 0 0 -0.0386,0.004 c 0.0128,-8.7e-4 0.0256,-0.004 0.0386,-0.004 z m 0.24717,6.1e-4 c 0.002,1.8e-4 0.003,3e-4 0.005,6e-4 a 1.2969351,1.2969351 0 0 0 -0.005,-6e-4 z m -0.36394,0.0157 a 1.2969351,1.2969351 0 0 0 -0.0419,0.008 c 0.0139,-0.004 0.0279,-0.005 0.0419,-0.008 z m 0.48894,0.004 c 0.003,6.2e-4 0.008,8.7e-4 0.0114,0.002 a 1.2969351,1.2969351 0 0 0 -0.0114,-0.002 z m -0.6196,0.0275 a 1.2969351,1.2969351 0 0 0 -0.0522,0.0168 c 0.0173,-0.005 0.0346,-0.0117 0.0522,-0.0168 z m 0.74108,0.004 c 0.005,0.002 0.0111,0.004 0.0167,0.005 a 1.2969351,1.2969351 0 0 0 -0.0167,-0.005 z m -0.86306,0.0395 a 1.2969351,1.2969351 0 0 0 -0.0461,0.0201 c 0.0153,-0.007 0.0305,-0.0138 0.0461,-0.0201 z m 0.98322,0.004 c 0.005,0.002 0.0108,0.004 0.0161,0.007 a 1.2969351,1.2969351 0 0 0 -0.0161,-0.007 z m -1.08796,0.0448 a 1.2969351,1.2969351 0 0 0 -0.0424,0.0224 c 0.014,-0.008 0.0282,-0.0151 0.0424,-0.0224 z m 1.20411,0.0101 c 0.004,0.002 0.008,0.004 0.0122,0.007 a 1.2969351,1.2969351 0 0 0 -0.0122,-0.007 z m -1.31604,0.0546 a 1.2969351,1.2969351 0 0 0 -0.0254,0.0159 c 0.008,-0.005 0.017,-0.0105 0.0254,-0.0159 z m 1.42752,0.0125 c 8.7e-4,6e-4 0.002,8.7e-4 0.003,0.002 a 1.2969351,1.2969351 0 0 0 -0.003,-0.002 z m -1.54149,0.0696 a 1.2969351,1.2969351 0 0 0 -0.0252,0.0216 c 0.009,-0.007 0.0166,-0.0146 0.0252,-0.0216 z m 1.64062,0.004 c 6.2e-4,6.2e-4 0.002,8.7e-4 0.003,0.003 a 1.2969351,1.2969351 0 0 0 -0.003,-0.003 z m -1.72615,0.0723 a 1.2969351,1.2969351 0 0 0 -0.027,0.0271 c 0.009,-0.009 0.0179,-0.0182 0.027,-0.0271 z m 1.81855,0.0114 c 6.3e-4,6.2e-4 0.002,0.002 0.003,0.003 a 1.2969351,1.2969351 0 0 0 -0.003,-0.003 z m -1.89955,0.075 a 1.2969351,1.2969351 0 0 0 -0.0227,0.0263 c 0.007,-0.009 0.0151,-0.0175 0.0227,-0.0263 z m 1.98344,0.0171 c 6.3e-4,8.7e-4 0.002,0.003 0.003,0.004 a 1.2969351,1.2969351 0 0 0 -0.003,-0.004 z m -2.07235,0.0979 a 1.2969351,1.2969351 0 0 0 -0.0146,0.0233 c 0.005,-0.008 0.009,-0.0157 0.0146,-0.0233 z m 2.14631,6e-4 c 8.7e-4,8.7e-4 0.003,0.004 0.003,0.005 a 1.2969351,1.2969351 0 0 0 -0.003,-0.005 z m -2.20433,0.0939 a 1.2969351,1.2969351 0 0 0 -0.0221,0.0421 c 0.007,-0.0141 0.0144,-0.0282 0.0221,-0.0421 z m 2.26742,0.009 c 0.002,0.003 0.004,0.008 0.007,0.012 a 1.2969351,1.2969351 0 0 0 -0.007,-0.012 z m -2.31813,0.0919 a 1.2969351,1.2969351 0 0 0 -0.02,0.046 c 0.006,-0.0155 0.0131,-0.0308 0.02,-0.046 z m 2.37312,0.0207 c 0.002,0.005 0.004,0.01 0.006,0.0149 a 1.2969351,1.2969351 0 0 0 -0.006,-0.0149 z m -2.41843,0.0944 a 1.2969351,1.2969351 0 0 0 -0.017,0.0529 c 0.005,-0.0178 0.0111,-0.0354 0.017,-0.0529 z m 2.46285,0.0246 c 0.002,0.005 0.003,0.0111 0.005,0.0166 a 1.2969351,1.2969351 0 0 0 -0.005,-0.0166 z m -2.5027,0.11691 a 1.2969351,1.2969351 0 0 0 -0.008,0.0429 c 0.003,-0.0144 0.005,-0.0287 0.008,-0.0429 z m 2.53602,0.01 c 6.2e-4,0.004 8.7e-4,0.008 0.003,0.0114 a 1.2969351,1.2969351 0 0 0 -0.003,-0.0114 z m -2.55569,0.10909 a 1.2969351,1.2969351 0 0 0 -0.004,0.0408 c 8.7e-4,-0.0137 0.003,-0.0271 0.004,-0.0408 z m 2.57654,0.024 c 9e-5,6.1e-4 1.7e-4,0.002 2.6e-4,0.003 a 1.2969351,1.2969351 0 0 0 -2.6e-4,-0.003 z" />
  </g>
</svg>
