<?xml version="1.0" encoding="UTF-8" standalone="no"?>
<!-- Created with Inkscape (http://www.inkscape.org/) -->

<svg
   width="15.201873mm"
   height="7.0944343mm"
   viewBox="0 0 15.201873 7.0944347"
   version="1.1"
   id="svg33402"
   sodipodi:docname="inkporter-svg-e7qp_36f.svg"
   inkscape:version="1.1.1 (3bf5ae0d25, 2021-09-20)"
   xmlns:inkscape="http://www.inkscape.org/namespaces/inkscape"
   xmlns:sodipodi="http://sodipodi.sourceforge.net/DTD/sodipodi-0.dtd"
   xmlns="http://www.w3.org/2000/svg"
   xmlns:svg="http://www.w3.org/2000/svg">
  <sodipodi:namedview
     id="namedview555"
     pagecolor="#ffffff"
     bordercolor="#666666"
     borderopacity="1.0"
     inkscape:pageshadow="2"
     inkscape:pageopacity="0.0"
     inkscape:pagecheckerboard="0"
     inkscape:document-units="mm"
     showgrid="false"
     inkscape:zoom="0.32"
     inkscape:cx="889.0625"
     inkscape:cy="4120.3125"
     inkscape:window-width="1920"
     inkscape:window-height="1017"
     inkscape:window-x="-8"
     inkscape:window-y="-8"
     inkscape:window-maximized="1"
     inkscape:current-layer="svg33402" />
  <defs
     id="defs13927" />
  <path
     d="m 15.07078,2.49427 c -0.21238,-0.14253 -0.31362,0.004 -0.31362,0.004 l -0.0286,-0.006 c 0,0 0.006,-0.0349 0.01,-0.0635 0.003,-0.0282 -0.0318,-0.0473 -0.0318,-0.0473 l -0.003,-0.0572 -1.05163,-0.0695 -0.0441,0.0632 -0.1143,-0.0127 c 0,0 -0.0377,-0.1203 -0.12664,-0.11712 -0.0885,0.004 -0.15523,0.0885 -0.15523,0.0885 L 12.68305,2.21985 12.66085,2.15955 12.14756,1.96341 V 1.87771 H 9.9366997 v 0.11713 h -0.0949 l -0.0476,-0.11713 c 0,0 0.11077,-0.12982 0.1203,-0.12982 0.01,0 -0.0254,-0.0699 -0.0254,-0.0699 l -0.0727,0.01 -0.54469,-1.27318 -0.0349,-0.0286 c 0,0 0.0632,-0.0635 0.10443,-0.0667 0.0413,-0.004 0.10442,-0.0155 0.11394,-0.0473 0.01,-0.0317 -0.0159,-0.0317 -0.0409,-0.0222 -0.0254,0.01 -0.0762,0.019 -0.1397,0.0286 -0.0632,0.01 -0.0917,0.0473 -0.0917,0.0473 l -0.0572,-0.17392 h -0.17075 l -0.0286,0.0759 h -0.82374 V 0 h -0.28504 v 0.24059 h -0.11712 l -0.0286,0.054 h -0.18062 l -0.0346,0.0346 h -0.16158 V 0.12034 h -0.27269 v 0.22155 h -0.23425 v 0.0572 l -0.19332,0.0571 h -0.54786 v 0.10124 l -1.06751,0.1965 -0.0854,0.16757 L 4.73878,0.9818 4.71018,0.79482 c 0,0 -0.10477,0.0699 -0.15522,0.133 -0.0508,0.0635 -0.1016,0.22507 -0.1016,0.22507 H 4.05754 l -0.0917,0.0981 H 3.69949 v 0.0825 h -3.4999 c 0,0 -0.01,0.13934 0,0.14887 0.01,0.01 3.52848,0 3.52848,0 v 0.0663 h 0.24412 l 0.10125,0.1016 h 0.41169 l 0.1457,0.26917 0.0571,0.0222 0.0572,-0.15839 0.0504,0.0127 -0.0317,0.19932 H 3.59508 l -0.14887,-0.133 -0.11077,0.1457 h -0.0603 l 0.006,-0.0568 H 3.17354 L 3.10364,2.35333 2.94525,2.54665 h -0.2152 l -0.0762,0.14887 0.1016,0.15205 h 0.079 c 0,0 0.0476,0.0917 0.0508,0.10124 0.003,0.01 0.10124,0.0571 0.10759,0.0667 0.006,0.009 -0.006,0.0695 -0.006,0.0695 H 2.70815 L 2.47708,2.79361 2.44218,2.72091 c 0,0 0.0949,-0.0889 0.0949,-0.24095 0,-0.15204 -0.0695,-0.21519 -0.0695,-0.21519 H 2.18254 c 0,0 -0.0984,0.0727 -0.0984,0.22789 0,0.15523 0.1203,0.20285 0.1203,0.20285 l -0.0917,0.21202 c 0,0 -0.0822,0.0191 -0.14252,0.0508 -0.0603,0.0318 -0.12665,0.19015 -0.12665,0.19015 L 1.27666,3.25925 0.82969,3.22115 0.73479,3.3605 0.54782,3.3665 0.52282,3.53759 0,4.08228 0.073,4.18068 c 0,0 0.19614,-0.17427 0.20884,-0.18697 0.0127,-0.0127 0,0.33901 0,0.33901 0,0 0.0642,0 0.13723,-0.004 l -0.0356,0.0102 c 0,0 -0.0434,0.0586 -0.0335,0.0639 0.005,0.004 0.0342,0.018 0.0614,0.0325 -0.002,0.0194 0.002,0.0392 0.0138,0.055 l -0.0395,0.15769 -0.0473,-0.0116 -0.0586,0.0335 c 0,0 -0.0279,0.0674 -0.0173,0.0702 0.005,0 0.0378,0.009 0.0677,0.0166 0.002,0.0162 0.008,0.0314 0.019,0.0434 l 0.01,0.14146 -0.0487,0.004 -0.0452,0.0501 c 0,0 -0.006,0.0727 0.005,0.072 0.005,-3.5e-4 0.0384,-0.004 0.0695,-0.005 0.007,0.0162 0.0197,0.0289 0.0353,0.037 l 0.0582,0.18309 -0.0462,0.0148 -0.0325,0.0593 c 0,0 0.0117,0.072 0.0219,0.0688 0.005,0 0.037,-0.0116 0.0667,-0.0212 0.0127,0.0162 0.0314,0.0268 0.0519,0.0293 l 0.096,0.14005 -0.0399,0.0275 -0.0138,0.066 c 0,0 0.0321,0.0656 0.0409,0.0596 0.005,-0.004 0.0321,-0.0219 0.0575,-0.0395 0.0127,0.009 0.0275,0.0138 0.0427,0.0141 l 0.15629,0.13088 -0.031,0.037 0.005,0.0677 c 0,0 0.0487,0.0543 0.0554,0.0462 0.004,-0.005 0.025,-0.03 0.0448,-0.0536 0.0212,0.007 0.0448,0.005 0.0642,-0.006 l 0.12171,0.06 -0.0219,0.0437 0.0205,0.0646 c 0,0 0.06,0.0416 0.0646,0.0321 0.002,-0.005 0.0173,-0.0349 0.031,-0.0628 0.0148,0 0.0296,0 0.0427,-0.007 l 0.1591,0.079 -0.0219,0.0434 0.0205,0.0646 c 0,0 0.06,0.0416 0.0646,0.0321 0.002,-0.005 0.0173,-0.0349 0.031,-0.0628 0.018,0.004 0.0356,-0.004 0.0505,-0.012 l 0.16439,0.0815 -0.0215,0.0437 0.0205,0.0645 c 0,0 0.0596,0.0416 0.0645,0.0318 0.002,-0.005 0.0173,-0.0346 0.031,-0.0624 0.0187,0.004 0.0378,-0.004 0.0529,-0.0138 l 0.14464,0.072 -0.0215,0.0434 0.0205,0.0646 c 0,0 0.0596,0.0416 0.0645,0.0321 0.002,-0.005 0.0173,-0.0349 0.031,-0.0628 0.012,0 0.024,0 0.0353,-0.004 l 0.17956,0.0893 -0.0215,0.0434 0.0205,0.0646 c 0,0 0.0596,0.0416 0.0646,0.0321 0.002,-0.005 0.0173,-0.0349 0.031,-0.0624 0.0141,0 0.0282,0 0.0409,-0.007 l 0.1404,0.0681 -0.0215,0.0437 0.0212,0.0646 c 0,0 0.06,0.0413 0.0646,0.0314 0.002,-0.005 0.0169,-0.0349 0.0307,-0.0628 0.0141,0 0.0282,0 0.0409,-0.007 l 0.20285,0.0903 -0.0198,0.0444 0.0229,0.0635 c 0,0 0.0617,0.0392 0.066,0.0293 0.002,-0.005 0.0159,-0.0356 0.0282,-0.0639 0.0141,0 0.0282,-0.004 0.0406,-0.008 l 0.17675,0.0282 -0.008,0.048 0.0388,0.0557 c 0,0 0.0695,0.0219 0.0713,0.0113 7.1e-4,-0.006 0.006,-0.0385 0.0109,-0.0688 0.0166,-0.004 0.0317,-0.0123 0.043,-0.025 h 0.19685 v 0.0487 l 0.0469,0.0487 c 0,0 0.072,0.0109 0.072,0 v -0.0695 c 0.0148,-0.006 0.0275,-0.0152 0.0363,-0.0279 h 0.17815 v 0.0487 l 0.0469,0.0487 c 0,0 0.0723,0.0109 0.0723,0 v -0.0695 c 0.0148,-0.006 0.0272,-0.0152 0.0363,-0.0279 h 0.18309 v 0.0487 l 0.0469,0.0487 c 0,0 0.072,0.0109 0.072,0 v -0.0695 c 0.0148,-0.006 0.0275,-0.0152 0.0363,-0.0279 h 0.17851 v 0.0487 l 0.0466,0.0487 c 0,0 0.0723,0.0109 0.0723,0 v -0.0695 c 0.0148,-0.006 0.0272,-0.0152 0.0363,-0.0279 h 0.1527497 v 0.0487 l 0.0469,0.0487 c 0,0 0.072,0.0109 0.072,0 v -0.0695 c 0.0148,-0.006 0.0272,-0.0152 0.0363,-0.0279 h 0.17816 v 0.0487 l 0.0469,0.0487 c 0,0 0.072,0.0109 0.072,0 v -0.0695 c 0.0148,-0.006 0.0275,-0.0152 0.0363,-0.0279 h 0.15275 v 0.0487 l 0.0469,0.0487 c 0,0 0.072,0.0109 0.072,0 v -0.0695 c 0.0148,-0.006 0.0275,-0.0152 0.0363,-0.0279 h 0.17851 v 0.0487 l 0.0466,0.0487 c 0,0 0.0723,0.0109 0.0723,0 v -0.0695 c 0.0148,-0.006 0.0272,-0.0152 0.0363,-0.0279 h 0.16298 v 0.0487 l 0.0466,0.0487 c 0,0 0.0723,0.0109 0.0723,0 v -0.0695 c 0.0148,-0.006 0.0272,-0.0152 0.0363,-0.0279 h 0.17815 v 0.0487 l 0.0469,0.0487 c 0,0 0.072,0.0109 0.072,0 v -0.0695 c 0.0148,-0.006 0.0275,-0.0152 0.0363,-0.0279 h 0.19332 v 0.0487 l 0.0469,0.0487 c 0,0 0.0723,0.0109 0.0723,0 v -0.0695 c 0.0148,-0.006 0.0272,-0.0152 0.0363,-0.0279 h 0.17815 v 0.0487 l 0.0469,0.0487 c 0,0 0.072,0.0109 0.072,0 v -0.0695 c 0.0148,-0.006 0.0275,-0.0152 0.0363,-0.0279 h 0.18345 v 0.0487 l 0.0466,0.0487 c 0,0 0.0723,0.0109 0.0723,0 v -0.0695 c 0.0148,-0.006 0.0272,-0.0152 0.0363,-0.0279 h 0.17815 v 0.0487 l 0.0469,0.0487 c 0,0 0.072,0.0109 0.072,0 v -0.0695 c 0.0148,-0.006 0.0275,-0.0152 0.0363,-0.0279 h 0.15275 v 0.0487 l 0.0469,0.0487 c 0,0 0.072,0.0109 0.072,0 v -0.0695 c 0.0148,-0.006 0.0275,-0.0152 0.0363,-0.0279 h 0.17851 v 0.0487 l 0.0466,0.0487 c 0,0 0.0723,0.0109 0.0723,0 v -0.0695 c 0.0148,-0.006 0.0272,-0.0152 0.0363,-0.0279 h 0.15275 v 0.0487 l 0.0466,0.0487 c 0,0 0.0723,0.0109 0.0723,0 v -0.0695 c 0.0148,-0.006 0.0275,-0.0152 0.0363,-0.0279 h 0.17816 v 0.0487 l 0.0469,0.0487 c 0,0 0.072,0.0109 0.072,0 v -0.0695 c 0.0148,-0.006 0.0275,-0.0152 0.0363,-0.0279 h 0.19367 v 0.0487 l 0.0466,0.0487 c 0,0 0.0723,0.0109 0.0723,0 v -0.0695 c 0.0148,-0.006 0.0272,-0.0152 0.0363,-0.0279 h 0.17815 v 0.0487 l 0.0469,0.0487 c 0,0 0.072,0.0109 0.072,0 v -0.0695 c 0.0148,-0.006 0.0275,-0.0152 0.0363,-0.0279 H 10.18167 v 0.0487 l 0.0469,0.0487 c 0,0 0.072,0.0109 0.072,0 v -0.0695 c 0.0138,-0.005 0.0257,-0.0141 0.0346,-0.0258 l 0.18627,-0.01 0.002,0.0487 0.0494,0.0462 c 0,0 0.0727,0.007 0.072,-0.004 -3.6e-4,-0.005 -0.002,-0.0385 -0.004,-0.0695 0.0166,-0.007 0.0296,-0.0194 0.0381,-0.0349 l 0.15663,-0.0173 0.005,0.0483 0.0519,0.0434 c 0,0 0.073,0.004 0.0716,-0.008 -7e-4,-0.006 -0.004,-0.0388 -0.007,-0.0695 0.0176,-0.009 0.0314,-0.024 0.0381,-0.0423 l 0.16792,-0.0363 0.0102,0.0476 0.0561,0.0377 c 0,0 0.073,-0.005 0.0706,-0.0152 -10e-4,-0.005 -0.008,-0.0378 -0.0145,-0.0681 0.0222,-0.0141 0.036,-0.0388 0.0356,-0.0656 l 0.14006,-0.0452 0.0148,0.0462 0.0596,0.0321 c 0,0 0.072,-0.0116 0.0684,-0.0219 -10e-4,-0.006 -0.0116,-0.037 -0.0212,-0.0667 0.0148,-0.0113 0.0247,-0.0279 0.0282,-0.0459 l 0.15804,-0.0508 0.0148,0.0462 0.0596,0.0321 c 0,0 0.072,-0.0116 0.0688,-0.0222 -0.002,-0.005 -0.012,-0.0367 -0.0215,-0.0663 0.0169,-0.013 0.0275,-0.0332 0.0293,-0.0543 l 0.13159,-0.0423 0.0148,0.0462 0.0596,0.0321 c 0,0 0.072,-0.0116 0.0688,-0.0222 -0.002,-0.005 -0.012,-0.0367 -0.0215,-0.0663 0.0148,-0.0113 0.0247,-0.0279 0.0282,-0.0459 l 0.15804,-0.0508 0.0148,0.0462 0.0596,0.0321 c 0,0 0.072,-0.012 0.0688,-0.0222 -0.002,-0.005 -0.012,-0.0367 -0.0215,-0.0663 0.0127,-0.01 0.0219,-0.0236 0.0265,-0.0385 l 0.17568,-0.067 0.0173,0.0455 0.0614,0.0286 c 0,0 0.0713,-0.0155 0.0674,-0.0254 -0.002,-0.005 -0.0141,-0.0363 -0.0251,-0.0653 0.0141,-0.0123 0.0233,-0.0293 0.0258,-0.0473 l 0.15522,-0.0593 0.0173,0.0455 0.0614,0.0289 c 0,0 0.0709,-0.0159 0.0674,-0.0258 -0.002,-0.005 -0.0141,-0.0363 -0.0251,-0.0653 0.0183,-0.0159 0.0282,-0.0395 0.0265,-0.0639 l 0.1457,-0.13018 0.0324,0.0363 0.0674,0.005 c 0,0 0.061,-0.0399 0.054,-0.048 -0.004,-0.004 -0.0257,-0.0289 -0.0466,-0.0522 0.007,-0.0123 0.01,-0.0265 0.009,-0.0406 l 0.10443,-0.20743 0.0434,0.0222 0.0646,-0.0201 c 0,0 0.0423,-0.0596 0.0325,-0.0642 -0.005,-0.004 -0.0346,-0.0176 -0.0621,-0.0318 0.002,-0.0159 -10e-4,-0.0317 -0.009,-0.0459 l 0.0226,-0.21555 0.0483,0.005 0.0533,-0.0416 c 0,0 0.0183,-0.0705 0.008,-0.0716 -0.006,0 -0.0388,-0.004 -0.0695,-0.007 -0.004,-0.0155 -0.0127,-0.0293 -0.0243,-0.0395 l -0.0706,-0.21978 0.0466,-0.0148 0.0317,-0.0593 c 0,0 -0.002,-0.0169 -0.007,-0.0339 L 14.51298,4.79385 14.6682,4.58783 14.27203,4.28056 14.62692,3.55207 c 0,0 0.39582,-0.20285 0.48155,-0.31997 0.0854,-0.11712 0.17427,-0.59549 -0.0381,-0.73801 m -2.31599,3.69852 c -10e-4,0 -0.003,0 -0.004,0 0.002,0 0.004,0 0.007,0 z m -0.0342,0.008 -0.002,-0.004 c 0.005,0 0.01,0 0.0145,-0.004 -0.002,0 -0.004,0 -0.005,0 -0.002,0 -0.005,0.004 -0.007,0.004 m -1.46191,0.53058 -0.042,0.0134 -0.0166,-0.0307 c 0.0194,-0.0106 0.0385,-0.0219 0.0572,-0.0339 z m -0.2921,0.0889 -0.0219,0.005 c -0.006,-0.004 -0.0131,-0.004 -0.0201,-0.004 0.0145,-0.004 0.0286,-0.008 0.0427,-0.0116 z m -0.31962,0.0441 -0.004,3.5e-4 c -0.0106,-0.005 -0.0226,-0.007 -0.0349,-0.007 -0.003,0 -0.005,0 -0.008,0 l -10e-4,-0.004 c 0.0148,3.5e-4 0.0296,0 0.0448,0 0.002,0 0.003,0 0.005,0 z m -0.32738,0.0208 c -0.0127,-0.01 -0.0286,-0.0152 -0.0455,-0.0152 -0.003,0 -0.005,3.5e-4 -0.008,0 l -0.025,-0.0857 c 0.0363,0.0134 0.0734,0.025 0.11148,0.0349 l -0.0152,0.0646 z m -1.3578403,-0.004 c -0.012,-0.008 -0.0265,-0.0127 -0.042,-0.0127 -0.003,0 -0.005,3.5e-4 -0.008,0 l -0.005,-0.0166 c 0.0289,-0.004 0.0575,-0.005 0.0857,-0.009 l -0.0106,0.0374 z m -0.31256,-0.004 c -0.0109,-0.006 -0.0236,-0.0102 -0.0374,-0.0102 -0.003,0 -0.005,3.6e-4 -0.008,0 l -0.0113,-0.0385 c 0.0222,0.005 0.0444,0.008 0.067,0.012 z m -1.64253,0.004 c -0.012,-0.008 -0.0265,-0.0127 -0.042,-0.0127 -0.003,0 -0.005,3.5e-4 -0.008,0 l -0.005,-0.019 c 0.0275,0.004 0.0554,0.004 0.0833,0.005 l -0.007,0.0265 z m -1.33421,0 c -0.012,-0.008 -0.0265,-0.0127 -0.042,-0.0127 -0.002,0 -0.005,3.5e-4 -0.008,0 l -0.0194,-0.0667 c 0.0434,-0.0138 0.0854,-0.03 0.12665,-0.0483 l -0.037,0.127 z m -0.31221,-0.004 c -0.0113,-0.006 -0.024,-0.0102 -0.0377,-0.0102 -0.002,0 -0.005,3.6e-4 -0.008,0 l -0.005,-0.0152 c 0.0198,0 0.0392,-0.004 0.0582,-0.004 z m -0.32914,0.004 c -0.012,-0.008 -0.0265,-0.0127 -0.042,-0.0127 -0.003,0 -0.005,3.5e-4 -0.008,0 l -0.0148,-0.0505 c 0.0318,0.008 0.0642,0.0148 0.097,0.0205 l -0.012,0.042 z m -1.3137397,0 c -0.01,-0.006 -0.0201,-0.0102 -0.0321,-0.0116 0.0201,-0.004 0.0399,-0.008 0.0596,-0.0127 l -0.007,0.0243 z M 3.06868,6.81139 c 0.003,0 0.006,0.004 0.008,0.004 l -10e-4,0.004 c -0.002,-0.004 -0.005,-0.005 -0.007,-0.007 m -2.56963,-2.48885 -0.008,0.0148 -0.0279,-0.0145 c 0.012,0 0.024,0 0.036,0 m 1.6898,2.07328 -0.0236,-0.0116 c -0.006,-0.0173 -0.0194,-0.0325 -0.0374,-0.0413 -0.002,0 -0.005,0 -0.007,-0.004 l 0.031,-0.17145 c 0,0 0.008,-0.0515 -0.0466,-0.0787 -0.002,0 -0.003,0 -0.005,0 -0.001,0 -0.002,-0.004 -0.004,-0.004 -0.055,-0.0272 -0.091,0.0106 -0.091,0.0106 L 1.87941,6.2339 1.85541,6.2223 c -0.006,-0.006 -0.012,-0.0109 -0.0198,-0.0148 -0.002,0 -0.005,0 -0.007,-0.004 l 0.031,-0.17145 c 0,0 0.005,-0.0342 -0.0229,-0.0614 0.0219,0.004 0.0536,0.009 0.0889,0.0229 0.0635,0.0254 0.0826,0.0191 0.11112,-0.006 0.0282,-0.0254 0.0441,-0.0444 0.0441,-0.0444 h 0.25859 c 0.0342,0.18098 0.11006,0.34714 0.21801,0.48754 l -0.0903,0.10019 c -0.007,-0.0109 -0.0169,-0.0205 -0.0296,-0.0265 -0.002,0 -0.005,0 -0.007,-0.004 l 0.031,-0.17145 c 0,0 0.008,-0.0515 -0.0469,-0.0787 -10e-4,0 -0.003,0 -0.005,0 -10e-4,0 -0.002,-0.004 -0.004,-0.004 -0.055,-0.0272 -0.091,0.0106 -0.091,0.0106 z M 2.7474,6.67899 c -0.007,-0.0145 -0.019,-0.0272 -0.0349,-0.0349 -0.002,0 -0.005,-0.004 -0.007,-0.004 l 0.007,-0.043 c 0.0325,0.0286 0.0663,0.0554 0.10196,0.0801 l -0.0183,0.0219 z m 1.38112,0.0201 -0.0519,0.17921 h -0.0254 c -0.0124,-0.008 -0.0265,-0.0127 -0.042,-0.0127 -0.003,0 -0.005,3.5e-4 -0.008,0 L 3.97402,6.7721 c 0.0631,-0.0303 0.12312,-0.0663 0.17921,-0.10689 -0.0187,0.0145 -0.0247,0.0332 -0.0247,0.0332 m 0.49636,0 c 0,0 -0.0155,-0.0497 -0.0769,-0.0497 -0.002,0 -0.003,0 -0.005,0 -10e-4,0 -0.003,0 -0.005,0 -0.0614,0 -0.0769,0.0497 -0.0769,0.0497 l -0.0519,0.17921 h -0.0205 c -0.012,-0.008 -0.0265,-0.0127 -0.042,-0.0127 -0.002,0 -0.005,3.5e-4 -0.008,0 L 4.29039,6.69771 c 0,0 -0.0155,-0.0497 -0.0769,-0.0497 -0.002,0 -0.003,0 -0.005,0 -0.002,0 -0.003,0 -0.005,0 -0.0222,0 -0.0381,0.006 -0.0497,0.0148 0.084,-0.0614 0.15945,-0.13406 0.22401,-0.21519 0.10407,0.12135 0.23284,0.22083 0.37853,0.29068 l -0.0395,0.13618 c -0.0109,-0.006 -0.0236,-0.0102 -0.0374,-0.0102 -0.003,0 -0.005,0 -0.008,0 z m 1.7720097,0 -0.0519,0.17921 h -0.0205 c -0.0124,-0.008 -0.0265,-0.0127 -0.042,-0.0127 -0.003,0 -0.005,3.5e-4 -0.008,0 l -0.0483,-0.16721 c 0,0 -0.0155,-0.0497 -0.0769,-0.0497 -0.002,0 -0.003,0 -0.005,0 -0.001,0 -0.003,0 -0.005,0 -0.0614,0 -0.0769,0.0497 -0.0769,0.0497 l -0.0519,0.17921 h -0.005 c -0.012,-0.008 -0.0265,-0.0127 -0.042,-0.0127 -0.003,0 -0.005,0 -0.008,0 L 5.9067997,6.697 c 0,0 -0.006,-0.0176 -0.0233,-0.0321 0.10372,-0.0674 0.19615,-0.15064 0.2734,-0.24695 0.0759,0.0942 0.16616,0.17639 0.26741,0.24307 -0.0219,0.0148 -0.0286,0.036 -0.0286,0.036 m 0.26105,0.17921 c -0.012,-0.008 -0.0265,-0.0127 -0.042,-0.0127 -0.002,0 -0.005,3.5e-4 -0.008,0 l -0.0353,-0.121 c 0.0462,0.0215 0.0938,0.0402 0.14323,0.0554 l -0.0226,0.0776 z m 0.6223,-0.0473 c 0.0363,-0.007 0.0716,-0.0155 0.10654,-0.0258 l -0.0212,0.073 h -0.0254 c -0.012,-0.008 -0.0265,-0.0127 -0.042,-0.0127 -0.002,0 -0.005,3.5e-4 -0.008,0 z m 0.94192,-0.13194 c 0,0 -0.0155,-0.0497 -0.0769,-0.0497 -0.002,0 -0.003,0 -0.005,0 -0.002,0 -0.003,0 -0.005,0 -0.0617,0 -0.0769,0.0497 -0.0769,0.0497 l -0.0512,0.17674 c -0.0113,-0.006 -0.024,-0.0102 -0.0378,-0.0102 -0.002,0 -0.005,3.5e-4 -0.008,0 l -0.0483,-0.16722 c 0,0 -0.0155,-0.0497 -0.0769,-0.0497 -0.002,0 -0.003,0 -0.005,0 -0.002,0 -0.003,0 -0.005,0 -0.0617,0 -0.0769,0.0497 -0.0769,0.0497 l -0.0519,0.17922 h -0.0205 c -0.012,-0.008 -0.0265,-0.0127 -0.042,-0.0127 -0.003,0 -0.005,3.5e-4 -0.008,0 l -0.0413,-0.14182 c 0.13723,-0.0709 0.25894,-0.16828 0.35737,-0.28575 0.11536,0.13793 0.26246,0.24835 0.43003,0.32032 l -0.0346,0.11924 h -0.0205 c -0.012,-0.008 -0.0265,-0.0127 -0.042,-0.0127 -0.002,0 -0.005,3.5e-4 -0.008,0 z m 1.07315,0.17921 c -0.012,-0.008 -0.0265,-0.0127 -0.042,-0.0127 -0.002,0 -0.005,3.5e-4 -0.008,0 l -0.0236,-0.0818 c 0.054,-0.0194 0.10654,-0.0427 0.15663,-0.0695 l -0.0476,0.16334 z m 0.7076703,0 h -0.0254 c -0.012,-0.008 -0.0265,-0.0127 -0.042,-0.0127 -0.002,0 -0.005,3.5e-4 -0.008,0 l -0.0483,-0.16722 c 0,0 -0.0155,-0.0497 -0.0769,-0.0497 -0.002,0 -0.003,0 -0.005,0 -0.002,0 -0.003,0 -0.005,0 -0.0617,0 -0.0769,0.0497 -0.0769,0.0497 l -0.0519,0.17922 h -0.0205 c -0.012,-0.008 -0.0265,-0.0127 -0.042,-0.0127 -0.003,0 -0.005,3.5e-4 -0.008,0 l -0.0487,-0.16722 c 0,0 -0.0134,-0.0413 -0.0624,-0.0483 0.0963,-0.066 0.18168,-0.14605 0.254,-0.23707 0.0885,0.11148 0.19685,0.20638 0.3203203,0.27905 -0.002,0.004 -0.003,0.006 -0.003,0.006 z m 2.2158,-0.73237 c -0.002,3.6e-4 -0.003,0.004 -0.004,0.004 -0.002,0 -0.003,0 -0.005,0 -0.0586,0.0187 -0.0579,0.0709 -0.0579,0.0709 l 0.005,0.18662 -0.0265,0.008 c -0.009,0 -0.0183,0 -0.0272,0.004 -0.003,0 -0.005,0.004 -0.007,0.004 L 11.9976,6.27707 c 0,0 -0.03,-0.0427 -0.0882,-0.024 -0.002,0 -0.003,0 -0.004,0.004 -10e-4,0 -0.003,-3.5e-4 -0.005,0 -0.0586,0.0187 -0.0579,0.0713 -0.0579,0.0713 l 0.005,0.18626 -0.0377,0.012 -0.0953,-0.14147 c 0,0 -0.03,-0.0427 -0.0885,-0.024 -10e-4,0 -0.002,0.004 -0.004,0.004 -10e-4,0 -0.003,-3.5e-4 -0.005,0 -0.0586,0.0187 -0.0579,0.0713 -0.0579,0.0713 l 0.005,0.18627 -0.0265,0.008 c -0.009,-3.6e-4 -0.0183,3.5e-4 -0.0275,0.004 -0.002,0 -0.005,0.004 -0.007,0.004 L 11.4357,6.53923 C 11.59833,6.38471 11.71616,6.18398 11.76767,5.9575 l 0.13229,-0.0392 c 0.096,0.0991 0.21308,0.17709 0.34431,0.22719 -0.008,0 -0.018,0 -0.0282,0.004 m 0.0882,0.024 c 0,0 -0.004,-0.005 -0.0106,-0.0109 0.0557,0.0176 0.11395,0.0303 0.17392,0.0374 l 0.009,0.10477 -0.024,0.009 c -0.0138,-0.004 -0.0286,-0.004 -0.0434,0 -0.002,0 -0.005,0.004 -0.007,0.004 z"
     id="G-Luchs" />
</svg>
