<?xml version="1.0" encoding="UTF-8" standalone="no"?>
<!-- Created with Inkscape (http://www.inkscape.org/) -->

<svg
   width="12.844644mm"
   height="5.8995876mm"
   viewBox="0 0 12.844644 5.8995876"
   version="1.1"
   id="svg7426"
   sodipodi:docname="inkporter-svg-3yjhcmhf.svg"
   xmlns:inkscape="http://www.inkscape.org/namespaces/inkscape"
   xmlns:sodipodi="http://sodipodi.sourceforge.net/DTD/sodipodi-0.dtd"
   xmlns="http://www.w3.org/2000/svg"
   xmlns:svg="http://www.w3.org/2000/svg">
  <sodipodi:namedview
     id="namedview7428"
     pagecolor="#ffffff"
     bordercolor="#666666"
     borderopacity="1.0"
     inkscape:pageshadow="2"
     inkscape:pageopacity="0.0"
     inkscape:pagecheckerboard="0"
     inkscape:document-units="mm"
     showgrid="false"
     inkscape:zoom="0.45291836"
     inkscape:cx="-161.17695"
     inkscape:cy="-762.83063"
     inkscape:window-width="1920"
     inkscape:window-height="1017"
     inkscape:window-x="-8"
     inkscape:window-y="-8"
     inkscape:window-maximized="1"
     inkscape:current-layer="layer1" />
  <defs
     id="defs7423">
    <clipPath
       clipPathUnits="userSpaceOnUse"
       id="clipPath180456-5-6">
      <path
         d="M 0,0 H 595.276 V 841.89 H 0 Z"
         id="path180454-2-9" />
    </clipPath>
  </defs>
  <g
     inkscape:label="Layer 1"
     inkscape:groupmode="layer"
     id="layer1"
     transform="translate(-28.275872,189.44702)">
    <g
       id="G-Mortar"
       transform="matrix(0.35277777,0,0,-0.35277777,-160.78722,191.38393)">
      <path
         style="fill:#000000;stroke-width:0.0579304"
         d="m 567.65948,1062.8472 c 0.82812,0.06 1.07037,0.15 1.24041,0.4607 0.26987,0.4931 1.08977,0.7625 1.6316,0.5362 0.27731,-0.1159 0.80445,-0.4499 1.0548,-0.6684 0.23217,-0.2026 0.36579,-0.2089 0.56261,-0.026 0.21587,0.2001 0.24676,0.4865 0.0879,0.8147 -0.19734,0.4077 -0.66898,0.8891 -1.02544,1.0467 -0.25192,0.1114 -0.30775,0.1621 -0.30775,0.2792 0,0.1839 -0.42575,0.5663 -0.7493,0.6731 -0.14875,0.049 -0.23552,0.1129 -0.23552,0.1732 0,0.053 -0.0326,0.14 -0.0724,0.1943 -0.0679,0.093 -0.093,0.092 -0.40407,-0.018 -0.18241,-0.064 -0.35837,-0.1166 -0.39103,-0.1166 -0.1,0 -0.0672,0.1559 0.10973,0.521 0.35462,0.7321 0.4574,1.4611 0.30632,2.1727 -0.0881,0.4154 -0.1024,0.6333 -0.07,1.0718 0.0224,0.3027 0.0185,0.5942 -0.008,0.6479 -0.0272,0.054 -0.0493,0.1847 -0.0493,0.2912 0,0.1065 -0.0403,0.2514 -0.0897,0.3218 -0.0493,0.07 -0.15133,0.3564 -0.22667,0.6356 -0.33333,1.2351 -0.60586,1.8816 -0.88627,2.1022 -0.17625,0.1386 -0.36054,0.3965 -0.36112,0.5054 -2.3e-4,0.042 0.0721,0.073 0.16986,0.073 0.15875,0 0.17299,0.018 0.21099,0.2751 0.0225,0.1513 0.0762,0.3762 0.11942,0.4997 0.10051,0.2869 0.10079,0.7401 6.6e-4,0.9794 -0.18047,0.4311 -1.01779,0.9464 -1.64246,1.0109 -0.47311,0.049 -0.71161,-0.086 -1.12475,-0.6352 -0.35721,-0.475 -0.40172,-0.627 -0.24784,-0.8468 0.087,-0.1242 0.0852,-0.1413 -0.0289,-0.2628 -0.14187,-0.151 -0.16071,-0.3252 -0.0352,-0.3252 0.0967,0 0.10855,-0.05 0.0381,-0.161 -0.0365,-0.057 -0.0806,-0.048 -0.19653,0.044 -0.0822,0.064 -0.21528,0.1176 -0.2957,0.1176 -0.0963,0 -0.18844,0.059 -0.26997,0.1738 -0.0681,0.096 -0.16109,0.1738 -0.20671,0.1738 -0.0456,0 -0.083,0.026 -0.083,0.059 0,0.033 -0.11757,0.1338 -0.26128,0.2249 -0.14372,0.091 -0.36751,0.2991 -0.49734,0.4622 -0.18221,0.2288 -0.27275,0.2965 -0.39695,0.2965 -0.0908,0 -0.25416,0.075 -0.37488,0.17 -0.11769,0.093 -0.23265,0.1782 -0.25549,0.1883 -0.0228,0.01 -0.17274,0.2165 -0.33315,0.459 l -0.29165,0.4408 0.19504,0.2254 c 0.10728,0.124 0.2621,0.3631 0.34405,0.5313 0.12165,0.2498 0.14223,0.3553 0.11215,0.5748 -0.0203,0.1478 -0.0471,0.279 -0.0597,0.2916 -0.0594,0.06 -0.46704,-0.073 -0.61943,-0.201 -0.094,-0.079 -0.27542,-0.3626 -0.40303,-0.63 -0.2251,-0.4716 -0.238,-0.4861 -0.43312,-0.4861 -0.20777,0 -0.46737,-0.187 -0.40339,-0.2905 0.0185,-0.03 0.005,-0.1596 -0.0293,-0.2883 -0.0381,-0.1413 -0.0426,-0.2703 -0.0114,-0.326 0.0373,-0.066 0.0108,-0.133 -0.0948,-0.2387 -0.14254,-0.1425 -0.14347,-0.1485 -0.0347,-0.2255 0.0614,-0.044 0.17061,-0.1341 0.24262,-0.2016 0.0968,-0.091 0.15041,-0.1065 0.20577,-0.06 0.0412,0.034 0.13216,0.047 0.20219,0.028 0.0701,-0.018 0.12773,-0.011 0.12822,0.017 4.5e-4,0.027 0.0226,0.084 0.0492,0.1265 0.0374,0.059 0.1098,0.035 0.32231,-0.1086 0.15066,-0.1017 0.29015,-0.2272 0.30999,-0.279 0.0199,-0.052 0.096,-0.1826 0.16922,-0.2905 0.0732,-0.108 0.13315,-0.2596 0.13315,-0.337 0,-0.2154 0.0939,-0.3573 0.54246,-0.82 0.98321,-1.014 1.53107,-1.4728 2.28354,-1.9126 0.21403,-0.125 0.46413,-0.2969 0.55577,-0.382 0.15104,-0.1401 0.16324,-0.1794 0.13034,-0.4194 -0.02,-0.1455 -0.0362,-0.429 -0.0362,-0.6299 0,-0.3441 -0.01,-0.3711 -0.17333,-0.4676 -0.0961,-0.057 -0.20064,-0.1851 -0.23465,-0.2881 -0.0337,-0.1022 -0.12155,-0.2254 -0.19519,-0.2735 -0.0736,-0.048 -0.14897,-0.1633 -0.16742,-0.2556 -0.0227,-0.1136 -0.11379,-0.2208 -0.28287,-0.3326 -0.13713,-0.091 -0.29578,-0.2241 -0.35255,-0.2963 -0.0568,-0.072 -0.15186,-0.1465 -0.21132,-0.1655 -0.0594,-0.018 -0.13909,-0.109 -0.17694,-0.2005 -0.0775,-0.1871 -0.33044,-0.4473 -0.38341,-0.3944 -0.0631,0.063 -0.60169,1.4484 -0.87269,2.2444 -0.14644,0.4302 -0.30208,0.8526 -0.34586,0.9386 -0.0438,0.086 -0.0796,0.2298 -0.0796,0.3196 0,0.09 -0.0614,0.254 -0.13665,0.3649 -0.21915,0.3235 -0.23407,0.4358 -0.0847,0.6379 0.073,0.099 0.21785,0.2321 0.32188,0.2964 0.37756,0.2334 0.16573,0.4217 -0.40817,0.3629 l -0.36691,-0.038 -0.19123,0.5139 c -0.17125,0.4601 -0.50688,1.2386 -0.63358,1.4696 -0.0763,0.1392 -0.52265,0.1398 -0.7474,0 -0.3204,-0.1978 -0.32153,-0.184 0.1181,-1.4492 0.30101,-0.8662 0.32299,-0.9865 0.17302,-0.9474 -0.0711,0.019 -0.1271,-0.01 -0.14902,-0.062 -0.0201,-0.053 -0.10243,-0.091 -0.1917,-0.091 -0.0861,0 -0.20204,-0.041 -0.25761,-0.091 -0.0921,-0.084 -0.1138,-0.083 -0.24525,0.01 -0.14279,0.094 -0.24606,0.3359 -0.18514,0.4344 0.0567,0.092 -0.2169,0.1383 -0.2843,0.048 -0.0344,-0.045 -0.10426,-0.099 -0.15549,-0.118 -0.10329,-0.039 -0.15309,-0.2441 -0.14435,-0.5952 0.005,-0.2144 0.0244,-0.2405 0.25357,-0.3468 0.22189,-0.1031 0.2442,-0.1315 0.21338,-0.2718 -0.0189,-0.086 -0.005,-0.2128 0.0324,-0.2813 0.0617,-0.1152 0.0962,-0.1217 0.45608,-0.085 l 0.38938,0.039 -0.0121,-0.2511 c -0.006,-0.1379 -0.0145,-0.2925 -0.0177,-0.3435 -0.0118,-0.1906 -0.21745,-0.3507 -0.42084,-0.3274 -0.19325,0.022 -0.30818,-0.018 -0.56259,-0.1988 -0.10674,-0.075 -0.12919,-0.1306 -0.10036,-0.2455 0.0392,-0.156 -0.0156,-0.2487 -0.53427,-0.904 -0.13803,-0.1745 -0.55197,-0.7213 -0.91985,-1.2152 -0.9797,-1.3151 -0.86656,-1.1938 -1.00062,-1.0725 -0.10475,0.095 -0.12499,0.096 -0.25326,0.011 -0.13806,-0.091 -0.13978,-0.089 -0.17628,0.1391 -0.0203,0.1268 -0.0136,0.2752 0.0148,0.3299 0.17115,0.3294 0.10847,1.3233 -0.10562,1.6753 -0.13771,0.2265 -1.1425,0.9595 -1.62405,1.1848 -0.14337,0.067 -0.26766,0.1277 -0.27618,0.1347 -0.008,0.01 0.0365,0.1276 0.1001,0.2677 0.14913,0.3288 0.14635,0.4236 -0.0231,0.7875 -0.17871,0.3839 -0.57485,0.8161 -0.87254,0.9521 -0.41677,0.1903 -0.72507,0.1253 -1.19447,-0.2518 -0.11529,-0.093 -0.29777,-0.2124 -0.40551,-0.2662 -0.17068,-0.085 -0.19587,-0.1259 -0.19587,-0.3165 0,-0.2029 -0.0104,-0.2164 -0.14482,-0.1879 -0.29455,0.063 -1.71211,0.05 -1.94569,-0.016 -0.13021,-0.038 -0.39964,-0.1737 -0.59874,-0.3023 -0.1991,-0.1287 -0.45753,-0.2546 -0.57429,-0.2796 -0.17134,-0.036 -0.2097,-0.07 -0.19877,-0.1704 0.008,-0.074 -0.0323,-0.1492 -0.10138,-0.1861 -0.0631,-0.034 -0.1149,-0.1082 -0.1149,-0.1653 0,-0.1293 -0.19004,-0.3068 -0.49241,-0.4598 -0.38866,-0.1968 -0.91235,-0.8628 -1.23147,-1.566 -0.082,-0.1807 -0.20988,-0.3859 -0.28428,-0.4559 -0.14639,-0.1381 -0.16732,-0.2732 -0.0785,-0.5067 0.10323,-0.2715 -0.0452,-0.7142 -0.32624,-0.9732 -0.1347,-0.1241 -0.253,-0.2821 -0.26289,-0.351 -0.01,-0.07 -0.10613,-0.177 -0.21719,-0.2421 -0.31923,-0.1871 -0.61057,-0.5116 -0.68637,-0.7647 -0.094,-0.3137 -0.0886,-0.6256 0.0141,-0.8243 0.1063,-0.2056 0.45163,-0.3803 0.59567,-0.3015 0.11542,0.063 0.50876,0.4696 0.7076,0.731 l 0.13216,0.1737 -0.0364,-0.1737 c -0.0684,-0.3253 0.0508,-0.5579 0.59021,-1.1516 0.17426,-0.1919 0.55825,-0.3215 1.14703,-0.3871 0.31549,-0.035 0.6053,-0.09 0.64404,-0.1224 0.11661,-0.097 0.72365,-0.1207 0.88578,-0.035 0.11689,0.062 0.15042,0.1322 0.1738,0.3648 0.0211,0.2093 0.0516,0.2835 0.11133,0.2705 0.38035,-0.083 1.17691,-0.1354 1.64764,-0.11 0.565,0.031 0.57358,0.033 0.76757,0.2387 0.10791,0.1144 0.19619,0.2614 0.19619,0.3267 0,0.064 0.0408,0.1974 0.0907,0.2938 0.0786,0.1521 0.0798,0.1921 0.009,0.3013 -0.0448,0.069 -0.0972,0.2247 -0.11634,0.3455 -0.0192,0.1206 -0.10152,0.2986 -0.18299,0.3953 -0.0814,0.097 -0.1481,0.2354 -0.1481,0.3079 0,0.2046 -0.11736,0.5008 -0.31153,0.7861 -0.21502,0.316 -0.44098,0.9394 -0.44131,1.2174 -2.5e-4,0.1792 0.0396,0.2348 0.33252,0.4635 0.39204,0.3062 1.10345,0.8065 1.44177,1.0141 l 0.23941,0.1467 0.36887,-0.1388 c 0.20287,-0.076 0.57742,-0.2314 0.83232,-0.3447 0.25489,-0.1132 0.50906,-0.2201 0.56482,-0.2374 0.0558,-0.017 0.10138,-0.081 0.10138,-0.1403 0,-0.1242 0.15417,-0.4553 0.23538,-0.5054 0.0298,-0.018 0.0543,-0.1389 0.0543,-0.2675 0,-0.1889 0.036,-0.2677 0.18617,-0.408 0.21792,-0.2036 0.33311,-0.4962 0.33434,-0.849 6.5e-4,-0.1839 0.0402,-0.2992 0.14569,-0.4245 0.0797,-0.095 0.14483,-0.2084 0.14483,-0.2529 0,-0.044 -0.26348,-0.4078 -0.58552,-0.8074 l -0.58551,-0.7267 -0.18891,0.1168 c -0.22954,0.1418 -0.42668,0.1502 -0.47655,0.02 -0.0261,-0.068 0.0443,-0.169 0.23826,-0.3421 0.26459,-0.2361 0.27458,-0.2565 0.25802,-0.5259 -0.014,-0.2281 9.1e-4,-0.2838 0.0831,-0.2995 0.0678,-0.014 0.12623,0.043 0.18009,0.1703 0.0768,0.1826 0.0906,0.189 0.37561,0.1739 0.27574,-0.015 0.29582,-0.01 0.29499,0.1189 -9.1e-4,0.184 -0.0596,0.2613 -0.25271,0.3347 l -0.16434,0.063 0.22228,0.2742 c 0.12226,0.1509 0.35316,0.4356 0.51311,0.6327 0.15996,0.1972 0.45522,0.5803 0.65615,0.8514 0.2467,0.333 0.39273,0.4824 0.4497,0.4606 0.1371,-0.053 0.2659,0.096 0.22973,0.2651 -0.0258,0.1204 0.038,0.2415 0.32258,0.6134 0.19509,0.2549 0.65017,0.8582 1.01131,1.3407 l 0.65661,0.8773 0.30585,-0.2813 0.30587,-0.2811 -0.23305,-0.9304 c -0.12818,-0.5117 -0.21569,-0.9585 -0.19448,-0.9928 0.0212,-0.034 0.0876,-0.053 0.14747,-0.042 0.0875,0.016 0.15072,0.1801 0.32123,0.8312 0.11676,0.4459 0.21452,0.8187 0.21724,0.8285 0.003,0.01 0.0611,-0.021 0.12975,-0.07 0.0964,-0.067 0.15241,-0.073 0.2462,-0.024 0.26416,0.1389 0.27745,0.3553 0.0347,0.5637 -0.17308,0.1486 -0.17339,0.15 -0.0979,0.4386 0.0734,0.2811 0.0826,0.2903 0.30397,0.3063 l 0.22825,0.016 0.3986,-1.3778 c 0.4809,-1.6625 0.54972,-1.9773 0.4462,-2.0412 -0.1093,-0.067 -0.0525,-0.2552 0.0971,-0.321 0.22786,-0.1002 0.15894,-0.1552 -0.69573,-0.5553 -0.64595,-0.3024 -0.68699,-0.5043 -0.12581,-0.619 0.20602,-0.042 0.23568,-0.072 0.31832,-0.3193 0.0502,-0.15 0.10596,-0.2876 0.12408,-0.3056 0.0181,-0.018 0.26205,-0.07 0.54209,-0.1154 0.28006,-0.045 0.52779,-0.1025 0.55053,-0.127 0.0227,-0.024 0.058,-0.1236 0.0782,-0.2203 0.0353,-0.1683 0.026,-0.1787 -0.22128,-0.2448 -0.18019,-0.048 -0.27041,-0.1075 -0.29861,-0.1963 -0.0461,-0.1454 0.0924,-0.2804 0.289,-0.2819 0.2138,0 0.26774,-0.075 0.2086,-0.2802 -0.0419,-0.1459 -0.0355,-0.1955 0.0278,-0.2199 0.13826,-0.053 0.2196,0.01 0.28909,0.2134 0.0523,0.1556 0.10684,0.2061 0.25485,0.2364 0.25992,0.053 0.60926,0.347 0.63136,0.5311 0.0237,0.1973 -0.14756,0.2876 -0.4986,0.2631 -0.21917,-0.015 -0.27301,0 -0.28958,0.083 -0.0173,0.086 0.0221,0.1005 0.25909,0.095 0.15368,-0.01 0.44797,-0.036 0.65399,-0.073 0.35871,-0.064 0.37623,-0.074 0.41317,-0.2568 0.0212,-0.1049 0.0768,-0.2352 0.1235,-0.2897 0.0467,-0.055 0.10024,-0.1423 0.11896,-0.1953 0.0253,-0.072 0.13573,-0.106 0.4288,-0.1339 0.21712,-0.021 0.43304,-0.043 0.47981,-0.049 0.0468,-0.01 0.15616,-0.1537 0.2431,-0.3277 0.087,-0.174 0.20507,-0.335 0.26254,-0.3575 0.13972,-0.055 1.20861,-0.045 2.10309,0.02 z m -6.31444,2.0418 c 0,0.045 0.0326,0.1037 0.0724,0.1282 0.0853,0.053 0.38302,0.029 0.50692,-0.04 0.0772,-0.043 0.0772,-0.052 0,-0.079 -0.0478,-0.017 -0.17814,-0.041 -0.28965,-0.053 -0.11152,-0.012 -0.2223,-0.025 -0.24621,-0.031 -0.0239,-0.01 -0.0434,0.028 -0.0434,0.075 z m 0.53792,1.8076 c -0.0118,0.035 0.0556,0.048 0.17006,0.031 0.16144,-0.024 0.17247,-0.035 0.074,-0.073 -0.13695,-0.053 -0.21697,-0.039 -0.24403,0.042 z m 0.44749,0.122 c 4.6e-4,0.063 0.0878,0.138 0.23173,0.1984 0.30311,0.1274 0.31315,0.01 0.0137,-0.1632 -0.1194,-0.068 -0.2236,-0.1268 -0.23157,-0.1303 -0.008,-0.01 -0.0143,0.039 -0.0139,0.095 z m 1.85034,0.1297 c -0.13468,0 -0.14558,0.018 -0.12392,0.2042 0.0131,0.1119 -0.007,0.2405 -0.0443,0.2856 -0.0752,0.091 0.0128,0.1591 0.28851,0.2248 0.0805,0.019 0.24995,0.1216 0.37655,0.2278 0.12658,0.1062 0.37151,0.2951 0.54426,0.42 0.29577,0.2137 0.3116,0.2185 0.27125,0.084 -0.0235,-0.078 -0.0633,-0.2228 -0.0885,-0.3209 -0.0416,-0.1624 -0.45568,-0.9279 -0.60385,-1.1163 -0.0412,-0.053 -0.129,-0.067 -0.26685,-0.044 -0.11299,0.018 -0.2719,0.034 -0.35312,0.035 z m -8.10744,0.4317 c 0,0.014 0.0261,0.042 0.058,0.062 0.0318,0.02 0.058,0.01 0.058,-0.025 0,-0.034 -0.0261,-0.062 -0.058,-0.062 -0.0319,0 -0.058,0.011 -0.058,0.026 z m 5.1391,1.7135 c -0.30852,1.1132 -0.37181,1.4136 -0.34601,1.6425 0.0353,0.3124 -0.0177,0.3816 -0.2928,0.3831 -0.37838,0 -0.46032,0.1634 -0.29402,0.579 0.0901,0.2253 0.10194,0.2329 0.36207,0.232 0.14788,0 0.30054,-0.021 0.33925,-0.045 0.0387,-0.024 0.14639,-0.2523 0.2393,-0.5059 0.0929,-0.2538 0.41929,-1.0837 0.7253,-1.8442 0.30599,-0.7605 0.54426,-1.4023 0.52948,-1.4263 -0.0148,-0.024 -0.16392,-0.056 -0.33142,-0.073 -0.24145,-0.023 -0.3279,-0.06 -0.41732,-0.1803 -0.0621,-0.083 -0.11807,-0.1449 -0.12452,-0.1376 -0.006,0.01 -0.18164,0.6268 -0.38931,1.3761 z m -2.01084,1.1259 c 0,0.1416 0.0682,0.2634 0.1476,0.2634 0.11463,0 0.14576,-0.083 0.10592,-0.2822 -0.0305,-0.1527 -0.0511,-0.1697 -0.14457,-0.1196 -0.06,0.032 -0.10895,0.094 -0.10895,0.1384 z"
         id="path11607" />
      <path
         id="path42440-5-8"
         style="fill:#000000;stroke-width:0.0286577"
         sodipodi:type="inkscape:offset"
         inkscape:radius="-0.1"
         inkscape:original="M 564.61719 747.61328 C 564.34147 747.57068 563.61202 747.59349 563.45703 747.65039 C 563.27848 747.71593 563.17964 747.82668 563.14844 747.99414 C 563.13434 748.0692 563.09334 748.16217 563.05664 748.20117 C 563.00274 748.25848 562.98742 748.30887 562.98242 748.46094 C 562.97872 748.56449 562.96794 748.65511 562.96094 748.66211 C 562.94084 748.68221 562.54566 748.47837 562.43164 748.38867 C 562.37904 748.34727 562.25555 748.23362 562.15625 748.13672 C 561.99147 747.976 561.95816 747.95606 561.76562 747.91016 C 561.4871 747.84356 560.84755 747.82084 560.61328 747.86914 C 560.36639 747.92008 560.17594 748.02096 560.11914 748.13086 C 560.08204 748.20176 560.07348 748.27873 560.08398 748.48242 C 560.09564 748.72007 560.1171 748.79687 560.32227 749.35938 C 560.48674 749.81025 560.58189 750.02899 560.67969 750.17578 C 560.77171 750.31389 560.81953 750.41862 560.83203 750.51172 C 560.85302 750.66813 560.98285 750.96639 561.10547 751.14258 C 561.15211 751.2096 561.19803 751.31847 561.20703 751.38477 L 561.22461 751.50586 L 561.14453 751.45898 C 561.02924 751.3928 560.86598 751.43091 560.74609 751.55078 C 560.58312 751.71375 560.63115 751.90085 560.91602 752.21484 C 561.1563 752.4801 561.14936 752.46101 561.16016 752.77539 C 561.16786 752.99832 561.15915 753.08601 561.12305 753.16211 C 561.08695 753.23752 561.0806 753.30214 561.0957 753.4375 C 561.12061 753.6617 561.24 754.27307 561.2832 754.39648 C 561.33101 754.53288 561.28926 754.71755 561.14062 755.0293 C 561.11847 755.07556 560.64654 755.07725 560.2832 755.03125 C 559.63691 754.9494 559.44819 754.96427 559.27344 755.11133 C 559.14733 755.21744 559.08938 755.353 559.01758 755.70703 C 558.92518 756.16259 558.94463 756.44055 559.08984 756.75 C 559.14919 756.87646 559.22843 757.00797 559.26562 757.04297 C 559.31592 757.09018 559.33203 757.13776 559.33203 757.22656 C 559.33203 757.36747 559.37757 757.51408 559.45117 757.60938 C 559.49487 757.66595 559.50391 757.72899 559.50391 757.98242 C 559.50391 758.39057 559.55536 758.55927 559.73047 758.73438 C 559.93566 758.93965 560.17543 758.99104 560.63672 758.93164 C 560.8063 758.90974 560.81012 758.91085 560.88672 759.00195 C 560.94097 759.06639 560.99892 759.10058 561.07812 759.11328 C 561.1741 759.12857 561.19656 759.14601 561.22266 759.22461 C 561.3036 759.4686 561.6415 759.83398 561.92578 759.98438 C 562.05625 760.05327 562.4852 760.06546 562.71484 760.00586 C 563.16444 759.88936 563.59701 759.59587 563.75977 759.29883 C 563.84587 759.1416 563.84632 759.14838 563.82812 758.73633 C 563.82612 758.69298 563.82703 758.62524 563.83203 758.58594 C 563.83693 758.54652 563.83171 758.46108 563.82031 758.39648 C 563.80211 758.294 563.80905 758.2681 563.87695 758.1875 C 563.92224 758.13362 563.97084 758.02265 563.99414 757.92188 C 564.02954 757.76881 564.02993 757.74039 563.99023 757.67969 C 563.96538 757.64169 563.91616 757.61152 563.88086 757.61133 C 563.71784 757.61021 563.7083 757.48842 563.85742 757.29883 C 563.90162 757.24272 563.94653 757.16992 563.95703 757.13672 C 563.97323 757.08452 564.0061 757.07254 564.19531 757.05664 C 564.37299 757.04174 564.42444 757.04738 564.46484 757.08398 C 564.52135 757.13512 564.60496 757.47464 564.60547 757.65234 C 564.60567 757.71741 564.62599 757.84103 564.65039 757.92773 C 564.72687 758.1995 564.86294 758.77057 564.86328 758.82227 C 564.86348 758.84947 564.83042 758.89217 564.79102 758.91797 C 564.71182 758.96989 564.69096 759.12814 564.75586 759.18164 C 564.83125 759.24386 565.13259 759.32808 565.18359 759.30078 C 565.21178 759.28565 565.25812 759.18876 565.29102 759.07812 L 565.34961 758.88281 L 565.25 758.48438 C 565.19486 758.26552 565.15039 758.06532 565.15039 758.04102 C 565.15039 758.01682 565.17588 757.97371 565.20898 757.94531 C 565.25446 757.90633 565.26696 757.87153 565.25586 757.80273 C 565.24796 757.75269 565.20712 757.46099 565.16602 757.1543 C 565.10978 756.73508 565.07343 756.55928 565.01953 756.44141 L 564.94727 756.2832 L 565.00586 755.99609 C 565.0683 755.68257 565.10867 755.29115 565.13477 754.77539 C 565.1488 754.49895 565.19175 754.16715 565.25195 753.86719 C 565.26426 753.80479 565.27354 753.80455 565.6582 753.81055 C 566.01822 753.81565 566.06541 753.81035 566.20312 753.74805 C 566.46663 753.62894 566.63186 753.37181 566.66016 753.03906 C 566.69043 752.68318 566.47966 752.34766 566.15625 752.24023 C 566.00779 752.19089 566.00328 752.18731 566.02148 752.09961 C 566.03188 752.05019 566.05913 751.85237 566.08203 751.66016 C 566.10493 751.46794 566.13674 751.27753 566.15234 751.23633 C 566.16804 751.19504 566.18164 751.09979 566.18164 751.02539 C 566.18164 750.95092 566.20146 750.81265 566.22656 750.71875 C 566.2884 750.48698 566.26527 750.20096 566.16797 750.00195 C 566.08555 749.83351 565.88019 749.62841 565.76562 749.59961 C 565.65731 749.57243 565.55901 749.62696 565.53711 749.72656 C 565.51635 749.82106 565.46573 749.87476 565.33008 749.94336 C 565.26634 749.97566 565.23235 749.97893 565.21875 749.95703 C 565.19205 749.91394 565.2326 749.38925 565.2793 749.16602 C 565.3003 749.06577 565.33838 748.95206 565.36328 748.91406 C 565.42668 748.81727 565.41763 748.73482 565.33203 748.58594 C 565.29128 748.515 565.23448 748.39627 565.20508 748.32227 C 565.17571 748.24832 565.10849 748.12899 565.05469 748.05859 C 565.00096 747.9882 564.9482 747.88482 564.9375 747.82812 C 564.91319 747.69862 564.8353 747.64708 564.61719 747.61328 z M 560.42773 756.73047 C 560.47504 756.68314 560.49916 756.6882 560.67969 756.7832 C 560.76638 756.8288 560.86063 756.87286 560.89062 756.88086 C 560.94382 756.89636 560.94477 756.89894 560.88867 756.96094 C 560.81472 757.04259 560.73633 757.27509 560.73633 757.41602 C 560.73633 757.54072 560.70789 757.5508 560.58984 757.4668 C 560.52094 757.41773 560.50637 757.38641 560.50586 757.28711 C 560.50556 757.22119 560.48042 757.11167 560.44922 757.04297 C 560.38482 756.90132 560.37703 756.78117 560.42773 756.73047 z "
         transform="matrix(1.0718738,0,0,1.0718738,-63.314308,261.36585)"
         d="m 563.99414,747.69531 c -0.11628,0.004 -0.22707,0.0104 -0.31836,0.0195 -0.0913,0.009 -0.16664,0.0231 -0.18359,0.0293 -0.15555,0.0571 -0.22041,0.1297 -0.2461,0.26758 -0.0178,0.0949 -0.0516,0.18812 -0.11718,0.25781 -0.0202,0.0214 -0.0243,0.0304 -0.0312,0.0547 -0.007,0.0242 -0.0132,0.0676 -0.0156,0.14062 -0.002,0.0542 -0.005,0.10493 -0.01,0.14454 -0.002,0.0198 -0.005,0.0357 -0.008,0.0508 -0.001,0.008 -0.001,0.0148 -0.004,0.0234 -0.001,0.004 -0.003,0.009 -0.006,0.0156 -0.002,0.003 -0.008,0.0133 -0.008,0.0137 -2.3e-4,3.8e-4 -0.0154,0.0193 -0.0156,0.0195 -3.1e-4,3.2e-4 -0.0327,0.0232 -0.0332,0.0234 -5e-4,2.1e-4 -0.0185,0.005 -0.0254,0.006 -0.0139,0.002 -0.0219,0.003 -0.0293,0.002 -0.0148,-0.002 -0.0253,-0.005 -0.0352,-0.008 -0.0197,-0.006 -0.0378,-0.0138 -0.0605,-0.0234 -0.0456,-0.0193 -0.10278,-0.0455 -0.16211,-0.0762 -0.11867,-0.0613 -0.24421,-0.13265 -0.31641,-0.18945 -0.0627,-0.0494 -0.18222,-0.15927 -0.2832,-0.25782 -0.16292,-0.1589 -0.15504,-0.15618 -0.34375,-0.20117 -0.24985,-0.0597 -0.91643,-0.0808 -1.10938,-0.041 -0.23127,0.0477 -0.39938,0.15986 -0.42578,0.21093 -0.0262,0.0502 -0.0337,0.0992 -0.0234,0.29883 0.006,0.11635 0.0123,0.18425 0.043,0.29688 0.0307,0.11262 0.087,0.26985 0.18946,0.55078 0.16378,0.44899 0.25867,0.66333 0.34765,0.79687 0.0961,0.14422 0.15231,0.26032 0.16797,0.37696 0.016,0.11914 0.14456,0.42796 0.25586,0.58789 0.0581,0.0834 0.106,0.18839 0.11914,0.28515 l 0.0176,0.1211 a 0.10001,0.10001 0 0 1 -0.15039,0.0996 l -0.0781,-0.0469 h -0.002 c -0.0658,-0.0365 -0.18277,-0.0184 -0.27734,0.0762 -0.0645,0.0645 -0.0764,0.10243 -0.0566,0.17969 0.0198,0.0773 0.0928,0.19591 0.23046,0.34766 0.11966,0.1321 0.18456,0.19763 0.22461,0.28906 0.0401,0.0914 0.0395,0.17746 0.0449,0.33398 0.008,0.22644 -7e-4,0.33625 -0.0469,0.4336 -0.0285,0.0595 -0.032,0.0919 -0.0176,0.2207 0.0116,0.10459 0.0479,0.315 0.0859,0.50977 0.0381,0.19477 0.0816,0.38752 0.0957,0.42773 0.0631,0.18014 0.006,0.38995 -0.14648,0.70899 -3.5e-4,7.2e-4 -0.009,0.0155 -0.0137,0.0215 -0.005,0.006 -0.009,0.0116 -0.0137,0.0156 -0.009,0.008 -0.018,0.0117 -0.0254,0.0156 -0.0148,0.008 -0.0267,0.0122 -0.0391,0.0156 -0.0247,0.007 -0.0505,0.0104 -0.0801,0.0137 -0.0592,0.007 -0.13333,0.01 -0.21875,0.01 -0.17084,4.7e-4 -0.38118,-0.01 -0.56836,-0.0332 -0.32119,-0.0407 -0.52697,-0.0556 -0.6621,-0.0449 -0.13514,0.0107 -0.19641,0.0384 -0.27149,0.10156 -0.0528,0.0444 -0.0868,0.0879 -0.12109,0.16797 -0.0344,0.08 -0.0662,0.19678 -0.10157,0.37109 -0.0903,0.44512 -0.0724,0.68876 0.0645,0.98047 0.0281,0.0598 0.0619,0.12206 0.0918,0.17188 0.0299,0.0498 0.0636,0.0928 0.0625,0.0918 0.067,0.0629 0.0977,0.15497 0.0977,0.25586 0,0.11937 0.0441,0.25044 0.0996,0.32227 0.0308,0.0399 0.0533,0.095 0.0625,0.16015 0.009,0.0651 0.01,0.14554 0.01,0.27344 0,0.19987 0.0129,0.33411 0.043,0.4336 0.03,0.0995 0.0746,0.16838 0.1543,0.24804 0.0918,0.0918 0.18273,0.14262 0.3086,0.16992 0.12586,0.0273 0.28882,0.027 0.51367,-0.002 0.0851,-0.011 0.13684,-0.022 0.20117,-0.004 0.0643,0.0181 0.1,0.0634 0.13867,0.10938 0.0429,0.0509 0.0718,0.0667 0.13086,0.0762 0.0526,0.008 0.10042,0.0187 0.14453,0.0527 0.0441,0.034 0.065,0.0816 0.0801,0.12695 0.0321,0.0967 0.13006,0.24506 0.25391,0.37891 0.12384,0.13385 0.27336,0.25701 0.40039,0.32421 0.0274,0.0145 0.16742,0.0429 0.3125,0.0469 0.14507,0.004 0.30573,-0.01 0.40429,-0.0352 0.4252,-0.11017 0.84221,-0.4023 0.98243,-0.6582 0.0434,-0.0792 0.0559,-0.0949 0.0625,-0.14844 0.007,-0.0535 0.003,-0.15531 -0.006,-0.36133 -0.002,-0.0495 -0.003,-0.11395 0.004,-0.16601 0.002,-0.0132 -8e-5,-0.10527 -0.01,-0.16016 -0.01,-0.0548 -0.0163,-0.1034 -0.002,-0.15625 0.0143,-0.0528 0.0438,-0.0917 0.0801,-0.13476 0.0245,-0.0291 0.0756,-0.13788 0.0957,-0.22461 0.0174,-0.0753 0.0236,-0.11583 0.0234,-0.13086 -1.9e-4,-0.015 0.002,-0.009 -0.0137,-0.0332 -0.005,-0.008 -0.0466,-0.0236 -0.0254,-0.0234 -0.0532,-3.7e-4 -0.10553,-0.009 -0.15039,-0.0391 -0.0449,-0.0304 -0.0742,-0.0867 -0.0781,-0.13868 -0.008,-0.10397 0.0453,-0.19308 0.12696,-0.29687 0.0193,-0.0245 0.0387,-0.0541 0.0547,-0.0801 0.0159,-0.0259 0.0281,-0.0513 0.0273,-0.0488 0.0131,-0.0423 0.0635,-0.1009 0.11719,-0.11914 0.0537,-0.0182 0.11277,-0.0232 0.20898,-0.0312 0.0907,-0.008 0.15154,-0.0114 0.20508,-0.006 0.0535,0.005 0.10471,0.0278 0.13867,0.0586 0.0458,0.0415 0.0544,0.0777 0.0723,0.125 0.0178,0.0472 0.0341,0.10243 0.0488,0.16211 0.0295,0.11934 0.0524,0.25111 0.0527,0.35546 1.4e-4,0.0446 0.0194,0.17128 0.041,0.24805 0.039,0.13858 0.0929,0.34901 0.13672,0.5332 0.0219,0.0921 0.0404,0.17794 0.0547,0.24414 0.007,0.0331 0.0134,0.0613 0.0176,0.084 0.004,0.0227 0.008,0.0328 0.008,0.0606 4e-4,0.0545 -0.0203,0.0822 -0.041,0.10937 -0.0207,0.0272 -0.0461,0.0506 -0.0762,0.0703 -0.004,0.003 -0.0233,0.03 -0.0273,0.0606 -0.004,0.0305 0.0109,0.0484 0.002,0.041 a 0.10001,0.10001 0 0 1 0,0.002 c 0.004,0.004 0.10118,0.0487 0.18555,0.0723 0.0422,0.0118 0.0833,0.0213 0.11328,0.0254 0.006,8.5e-4 0.009,0.002 0.0137,0.002 0.004,-0.007 0.007,-0.0129 0.0117,-0.0234 0.0162,-0.0336 0.0357,-0.0821 0.0508,-0.13281 l 0.0508,-0.16797 -0.0937,-0.37109 v -0.002 c -0.0276,-0.10951 -0.0522,-0.21582 -0.0703,-0.29687 -0.009,-0.0408 -0.0162,-0.0746 -0.0215,-0.10156 -0.005,-0.027 -0.01,-0.0318 -0.01,-0.0684 0,-0.0472 0.0152,-0.0711 0.0312,-0.0977 0.0161,-0.0265 0.0366,-0.052 0.0625,-0.0742 0.015,-0.0129 0.0134,-0.0148 0.0137,-0.0156 2.8e-4,-8.4e-4 0.002,-0.009 -0.002,-0.0352 -0.009,-0.0567 -0.0487,-0.34333 -0.0898,-0.65039 -0.056,-0.41724 -0.0933,-0.58641 -0.13868,-0.68555 l -0.0723,-0.1582 a 0.10001,0.10001 0 0 1 -0.006,-0.0605 l 0.0586,-0.28711 c 0.0609,-0.30598 0.10099,-0.69392 0.12696,-1.20703 0.0143,-0.28271 0.0579,-0.61696 0.11914,-0.92187 0.004,-0.0179 0.009,-0.0533 0.041,-0.0859 0.0323,-0.0326 0.0721,-0.0421 0.10742,-0.0469 0.0706,-0.01 0.16506,-0.007 0.35743,-0.004 0.17945,0.003 0.27803,0.001 0.34179,-0.006 0.0638,-0.007 0.0942,-0.019 0.16016,-0.0488 0.22858,-0.10332 0.37255,-0.32066 0.39844,-0.625 0.0265,-0.31153 -0.15892,-0.60342 -0.43555,-0.69531 -0.0746,-0.0248 -0.11866,-0.029 -0.16992,-0.082 -0.0256,-0.0265 -0.0406,-0.0715 -0.041,-0.10157 -4.1e-4,-0.0301 0.005,-0.0494 0.01,-0.0723 a 0.10001,0.10001 0 0 1 0,-0.002 c 0.007,-0.0312 0.0358,-0.23872 0.0586,-0.42968 0.0116,-0.0977 0.026,-0.1948 0.0391,-0.27344 0.0131,-0.0786 0.0192,-0.12657 0.0371,-0.17383 0.004,-0.0115 0.0234,-0.11357 0.0234,-0.17578 0,-0.0922 0.0208,-0.22716 0.0488,-0.33203 0.0548,-0.20536 0.0301,-0.47574 -0.0527,-0.64648 v -0.002 c -0.034,-0.069 -0.101,-0.15768 -0.16992,-0.22656 -0.0693,-0.0693 -0.14946,-0.11693 -0.16601,-0.12109 -0.0638,-0.016 -0.0974,0.005 -0.10742,0.0508 -0.0132,0.06 -0.0413,0.11914 -0.0859,0.16601 -0.0446,0.0469 -0.1011,0.0824 -0.17383,0.11914 -0.0371,0.0188 -0.0675,0.0325 -0.10742,0.0371 -0.0399,0.005 -0.10514,-0.016 -0.13281,-0.0605 a 0.10001,0.10001 0 0 1 -0.002,0 c -0.0302,-0.0488 -0.0198,-0.0584 -0.0215,-0.082 -0.002,-0.0237 -4.1e-4,-0.0509 0,-0.082 8.2e-4,-0.0621 0.003,-0.14088 0.01,-0.22461 0.0129,-0.16745 0.0352,-0.3533 0.0606,-0.47461 0.0114,-0.0546 0.0264,-0.11256 0.043,-0.1621 0.0165,-0.0495 0.03,-0.0873 0.0547,-0.125 0.0234,-0.0357 0.0282,-0.0518 0.0254,-0.0801 -0.003,-0.0283 -0.019,-0.0737 -0.0586,-0.14258 -0.0448,-0.0779 -0.1026,-0.19638 -0.13476,-0.27734 -0.0237,-0.0596 -0.0916,-0.18123 -0.13672,-0.24024 -0.0632,-0.0828 -0.11707,-0.17964 -0.13477,-0.27344 -0.009,-0.0481 -0.0168,-0.0593 -0.0449,-0.0781 -0.0281,-0.0188 -0.0901,-0.0387 -0.19336,-0.0547 -0.12204,-0.0189 -0.37486,-0.0249 -0.60742,-0.0176 z m -3.4707,8.91016 c 0.0604,0.0127 0.11188,0.0418 0.20312,0.0898 0.0419,0.022 0.0848,0.0437 0.1211,0.0606 0.0363,0.0169 0.0723,0.0304 0.0684,0.0293 a 0.10001,0.10001 0 0 1 0.002,0 c 0.0139,0.004 0.0279,0.007 0.0488,0.0176 0.0105,0.005 0.0244,0.0118 0.0391,0.0293 0.0146,0.0175 0.0257,0.0478 0.0254,0.0723 -5.9e-4,0.049 -0.02,0.0652 -0.0312,0.0801 -0.0112,0.0148 -0.0228,0.0271 -0.0371,0.043 -0.0171,0.0189 -0.0577,0.0917 -0.084,0.16993 -0.0262,0.0782 -0.043,0.16682 -0.043,0.21875 0,0.035 -0.001,0.0646 -0.01,0.0977 -0.009,0.0331 -0.0349,0.0819 -0.0859,0.0996 -0.051,0.0178 -0.0894,0.004 -0.11914,-0.01 -0.0297,-0.0138 -0.058,-0.032 -0.0898,-0.0547 -0.0399,-0.0284 -0.0772,-0.0634 -0.0996,-0.11133 -0.0224,-0.048 -0.0251,-0.0959 -0.0254,-0.15039 -1.9e-4,-0.041 -0.0258,-0.15244 -0.0488,-0.20313 -0.036,-0.0791 -0.0577,-0.15385 -0.0625,-0.2246 -0.005,-0.0708 0.007,-0.14413 0.0625,-0.19922 0.0155,-0.0155 0.0346,-0.0342 0.0664,-0.0469 0.0318,-0.0127 0.0694,-0.0141 0.0996,-0.008 z" />
    </g>
  </g>
</svg>
