<?xml version="1.0" encoding="UTF-8" standalone="no"?>
<!-- Created with Inkscape (http://www.inkscape.org/) -->

<svg
   width="17.5383mm"
   height="8.6225147mm"
   viewBox="0 0 17.538299 8.6225152"
   version="1.1"
   id="svg33402"
   sodipodi:docname="inkporter-svg-e7qp_36f.svg"
   inkscape:version="1.1.1 (3bf5ae0d25, 2021-09-20)"
   xmlns:inkscape="http://www.inkscape.org/namespaces/inkscape"
   xmlns:sodipodi="http://sodipodi.sourceforge.net/DTD/sodipodi-0.dtd"
   xmlns="http://www.w3.org/2000/svg"
   xmlns:svg="http://www.w3.org/2000/svg">
  <sodipodi:namedview
     id="namedview555"
     pagecolor="#ffffff"
     bordercolor="#666666"
     borderopacity="1.0"
     inkscape:pageshadow="2"
     inkscape:pageopacity="0.0"
     inkscape:pagecheckerboard="0"
     inkscape:document-units="mm"
     showgrid="false"
     inkscape:zoom="0.32"
     inkscape:cx="889.0625"
     inkscape:cy="4120.3125"
     inkscape:window-width="1920"
     inkscape:window-height="1017"
     inkscape:window-x="-8"
     inkscape:window-y="-8"
     inkscape:window-maximized="1"
     inkscape:current-layer="svg33402" />
  <defs
     id="defs13927" />
  <path
     d="M 1.19877,0.28251 0.46428,0 0.36508,0.46856 1.1547,0.51546 Z m 15.29898,6.08541 -0.0896,0.0455 c 0.0152,0.0166 0.0469,0.0951 0.0579,0.11162 h 0.091 l 0.0358,0.0496 -0.3955,0.14467 0.04,-0.31555 0.0261,-0.10337 0.11712,0.0496 c 0,0 0.0275,-0.0275 0.0455,-0.0538 z m 0.18464,0.37758 c 0.004,0.0233 0.0124,0.0937 0.0124,0.11716 l -0.10195,0.018 0.008,0.14883 0.0772,0.0358 c -0.01,0.0482 -0.018,0.0675 -0.0318,0.11162 l -0.0771,-0.0138 -0.0538,0.0772 c 0,0 -0.17777,-0.0937 -0.29626,-0.15709 0.0219,-0.0813 0.0219,-0.14884 0.004,-0.22878 0.0951,-0.0317 0.37758,-0.11712 0.37758,-0.11712 l -0.004,0.0166 z m -0.29901,0.78825 c -0.0247,0.0208 -0.051,0.0386 -0.0786,0.0565 l -0.0689,-0.0758 -0.12954,0.0593 0.0219,0.10749 c -0.04,0.0152 -0.0455,0.0219 -0.0854,0.0303 0,0 -0.0441,-0.38587 -0.0441,-0.44926 0.0813,-0.008 0.15296,-0.0896 0.15296,-0.0896 l 0.25771,0.18192 -0.0827,0.0799 z M 15.7729,7.90169 15.7535,7.84379 c 0.0261,0 0.0152,0.006 0.0427,0.006 0.0346,0 0.0661,0.007 0.0978,0.0109 -0.0332,0.0109 -0.073,0.0247 -0.12125,0.0414 m -0.27009,0.0868 -0.0758,0.0233 -0.0896,-0.15021 -0.13779,0.0317 -0.004,0.2081 -0.0606,0.0124 -0.0992,-0.17364 -0.13783,0.0317 -0.0138,0.2081 -0.0785,0.0124 -0.10887,-0.15709 -0.13917,0.0317 -0.0289,0.19981 c -0.0332,0.008 -0.0675,0.0166 -0.10061,0.0236 L 14.3205,8.10883 c 0.0675,-0.10749 0.10474,-0.23286 0.10474,-0.36791 0,-0.13366 -0.0318,-0.19706 -0.0992,-0.30455 l 0.6477,-0.0109 c 0.10196,0.17914 0.27972,0.3321 0.5581,0.4258 z m -1.33258,0.36104 c -0.051,0.0109 -0.0978,0.0208 -0.1433,0.0275 0.0524,-0.0247 0.10058,-0.0565 0.1433,-0.0923 z m 1.49518,-1.12307 c 0.091,0.0716 0.17501,0.0716 0.17501,0.0716 l 0.01,0.42718 c -0.0896,-0.004 -0.39137,-0.0675 -0.4892,-0.18465 0,0 0.23287,-0.25079 0.30455,-0.31418 M 13.4373,8.4119 13.4303,8.3872 c 0.0194,0.01 0.0399,0.0166 0.0606,0.0233 z m -0.19981,-0.13642 -0.0772,0.13779 h -0.0882 l -0.0565,-0.16122 -0.14605,0.004 -0.0896,0.18468 h -0.0634 l -0.0219,-0.0992 c 0.0716,-0.0482 0.13917,-0.11162 0.15709,-0.1888 l 0.33211,-0.004 c 0.0303,0.11991 0.10061,0.0607 0.0537,0.12542 m -1.48001,0.14054 h -0.0771 l -0.0661,-0.24112 -0.14196,-0.006 -0.0703,0.24666 h -0.113 L 11.25047,8.2709 c 0.14609,-0.13092 0.25495,-0.48232 0.19431,-0.58702 l 0.20256,0.009 c -0.0606,0.10333 0.0138,0.4313 0.17502,0.56084 z m -0.7469,0 h -0.0152 l 0.0152,-0.006 z m -0.68489,0 h -0.10332 l -0.0592,-0.1736 -0.1653803,0.01 -0.0523,0.16397 -0.0827,0.007 -0.0538,-0.15709 c 0.0441,-0.0537 0.0799,-0.0593 0.1199,-0.11299 l 0.3018103,0.0138 c 0.0358,0.0716 0.0592,0.10336 0.12675,0.14054 z m -0.7524003,0 h -0.0909 c 0.0358,-0.0123 0.0703,-0.0261 0.10337,-0.0427 z m -0.67938,0.0346 h -0.1185 l -0.0565,-0.18602 -0.1433,-0.006 -0.0606,0.18743 h -0.0772 l -0.0731,-0.19018 c 0.0965,-0.12128 0.20536,-0.4396 0.14471,-0.54433 l 0.15297,-0.004 c -0.0413,0.11299 0.0358,0.51953 0.24528,0.64353 z m -0.75653,-0.0358 h -0.11988 c 0.0496,-0.0152 0.0951,-0.0358 0.1378,-0.0606 z m -0.71244,0.0579 -0.0937,0.004 -0.0275,-0.21632 c 0.0634,0.0744 0.0537,0.0537 0.13917,0.0951 z m -0.29629,-0.21632 -0.0716,0.22049 h -0.0896 l -0.0496,-0.2026 -0.0427,-0.10058 c 0.073,0.007 0.36654,0.007 0.36654,0.007 0.0676,0.0317 0,-0.004 0.0579,0.0675 z m -0.43269,0.15572 h -0.11024 l -0.004,-0.0152 c 0.0496,-0.0208 0.0978,-0.0469 0.14054,-0.0772 z m -0.78136,0 -0.0289,-0.10749 c 0.0606,0.0468 0.12816,0.0827 0.20119,0.10749 z m -0.25217,-0.15022 -0.0675,0.22599 -0.0979,0.006 -0.0675,-0.21223 -0.0689,-0.0219 c 0.12404,-0.20531 0.20532,-0.43543 0.14471,-0.54017 h 0.20256 c -0.0317,0.13917 0.0386,0.42855 0.13092,0.54846 z m -0.38587,0.14884 h -0.15159 l -0.006,-0.0208 c 0.0744,-0.0346 0.14333,-0.0813 0.20122,-0.13645 z m -0.7992497,0 -0.0166,-0.0661 c 0.0413,0.0261 0.0868,0.0482 0.13504,0.0661 z M 4.18798,8.27433 4.18398,8.51274 4.08062,8.53604 4.02692,8.32384 3.8464,8.31004 c 0.051,-0.0606 0.062,-0.04 0.0896,-0.11578 l 0.35141,-0.01 0.0675,0.0896 c -0.0992,-0.004 -0.0951,0 -0.16676,0 m -0.47128,0.2522 -0.01,-0.11162 c 0.0317,-0.0194 0.0675,-0.0372 0.10336,-0.0634 l 0.01,0.16535 z M 2.83631,8.329 C 2.81021,8.321 2.76741,8.325 2.74121,8.3152 l 0.008,-0.16676 c 0.0289,0.0386 0.0716,0.0937 0.10883,0.12542 z M 2.49316,8.18845 c -0.018,-0.007 0.0233,0.0247 -0.0661,-0.0109 V 7.93223 L 2.29615,7.86333 2.15698,8.02459 c 0.0868,0.0524 -0.0579,-0.0247 -0.0579,-0.0247 L 2.09508,7.79178 1.96417,7.73938 c -0.0303,0.0455 -0.0537,0.0537 -0.0965,0.12125 l -0.0551,-0.0275 0.0303,-0.17914 0.0358,-0.008 c 0.062,-0.004 0.0194,0.003 0.0772,-0.01 l 0.0675,0.0758 0.17089,-0.0579 -0.018,-0.11299 C 2.22996,7.5201 2.22586,7.472 2.22586,7.472 L 2.7867,7.4928 C 2.7275,7.59613 2.68337,7.67194 2.68337,7.80285 c 0,0.13092 0.004,0.19569 0.0634,0.30039 L 2.61723,8.04954 Z M 17.4697,5.74656 17.4757,5.66796 17.404,5.64466 17.386,5.72876 16.70249,5.29054 16.99604,4.69798 16.63635,4.51746 16.40348,4.96673 16.1692,4.95583 l -0.0606,0.0233 -0.0661,-0.0413 -0.0413,-0.0427 -0.11991,-0.006 -0.0482,-0.15572 0.15021,-0.007 -0.006,-0.18606 0.16672,-0.006 c 0,0 0.0427,0.0303 0.0606,0.0841 0.018,0.0537 0.0358,0.0841 0.0841,0.0841 0.0482,0 0.0896,-0.0413 0.0951,-0.10749 0.007,-0.0661 -0.0593,-0.89986 -0.0951,-1.05008 -0.0358,-0.15021 -0.0606,-0.24528 -0.12679,-0.24528 -0.0648,0 -0.11299,0.0303 -0.10749,0.13229 0.006,0.10199 -0.006,0.22186 -0.006,0.22186 0,0 -0.018,0.0413 -0.0537,0.0413 -0.0358,0 -0.0786,-0.006 -0.10199,-0.0661 -0.0247,-0.0593 -0.0138,-0.28663 -0.0841,-0.30593 -0.0661,-0.018 -0.13779,-0.0289 -0.1681,0.0716 -0.0166,0.0579 -0.0123,0.19844 -0.0123,0.19844 l -1.06663,-0.0123 -0.62974,-0.006 c 0,0 -0.0303,-0.15018 -0.14334,-0.16122 -0.11437,-0.0123 -0.51537,-0.0427 -0.51537,-0.0427 0,0 -0.11991,-0.006 -0.15571,0.0661 -0.0358,0.0716 -0.0607,0.10199 -0.0607,0.10199 0,0 -0.73173,0.006 -0.86264,-0.018 -0.1323,-0.0247 -0.46165,0.0233 -0.46165,0.0233 l 0.0482,-1.23472 h 0.13091 V 1.97475 l -0.0951,-0.0123 -0.0124,-0.0841 h 0.11987 V 1.35056 L 11.75586,1.33966 V 1.07508 l -1.2802,0.004 v -0.0689 h -0.3018 l -0.10474,-0.0841 -0.1474603,0.0799 h -0.13917 V 0.88744 h -0.18327 l -0.0648,-0.0799 -0.0786,0.0937 h -0.20257 v 0.18052 l -1.21955,0.003 0.13779,-0.48507 -0.0896,-0.0358 -0.19706,0.52091 h -0.26733 l 0.0233,-0.59256 h -0.11712 l -0.0441,0.59256 h -0.25358 c 0.10887,-0.2632 0.23291,-0.56084 0.2522,-0.60356 0.0372,-0.0758 0,-0.22049 -0.16951,-0.22465 -0.17226,-0.004 -1.06796,-0.008 -1.06796,-0.008 l -0.3955,0.83922 h -0.5843 L 4.70008,0.96793 4.68768,1.02583 1.20675,0.28718 1.15715,0.52008 3.84571,1.09059 h -0.791 l 0.0219,0.34174 -0.18055,0.0123 v 0.28388 l 0.0813,0.0138 v 0.0496 H 2.874 l 0.004,0.12541 0.0992,0.0138 0.008,0.10337 -0.0937,0.0138 0.0123,0.15709 0.01,0.22874 0.10749,0.01 -0.007,0.76345 0.084,0.0233 0.0233,0.80338 0.0482,0.0358 0.0123,0.22736 L 2.96714,3.97773 H 2.65293 l -0.11162,0.40788 -0.0455,0.0854 -0.0496,-0.0441 -0.01,-0.0675 -0.0992,-0.0813 -0.15713,-0.0675 -0.10746,0.01 -0.10336,0.10336 -0.0634,0.0358 -0.18327,0.004 -0.0233,0.0275 -0.062,0.0138 -0.20257,0.1874 -0.0538,-0.0303 H 1.27185 l -0.018,0.062 -0.51262,0.0194 v -0.051 H 0.63786 l 0.0138,0.3514 h 0.12129 l -0.004,-0.04 0.46715,-0.0233 0.01,0.0592 L 0.47852,5.16727 0.0651,6.01062 0.01,6.12637 0,6.35098 0.0855,6.41028 c 0,0 0.29213,-0.004 0.32797,-0.006 0.006,0.37208 0.12538,0.8902 0.39688,1.04733 0.67246,0.38858 1.64535,1.16166 2.44186,1.16166 0.76895,0 10.05554,0.0208 10.5489,0 0.51537,-0.0208 2.02018,-0.5085 2.23516,-0.58427 1.26365,-0.45339 1.07488,-1.64126 0.44648,-2.03952 l 0.1144,-0.19706 0.64767,0.0358 0.24528,0.0951 0.0482,-0.1433 z m 0,0"
     id="G-Mobelwagen" />
</svg>
