<?xml version="1.0" encoding="UTF-8" standalone="no"?>
<!-- Created with Inkscape (http://www.inkscape.org/) -->

<svg
   width="11.973342mm"
   height="7.0488811mm"
   viewBox="0 0 11.973342 7.0488811"
   version="1.1"
   id="svg7426"
   sodipodi:docname="inkporter-svg-3yjhcmhf.svg"
   xmlns:inkscape="http://www.inkscape.org/namespaces/inkscape"
   xmlns:sodipodi="http://sodipodi.sourceforge.net/DTD/sodipodi-0.dtd"
   xmlns="http://www.w3.org/2000/svg"
   xmlns:svg="http://www.w3.org/2000/svg">
  <sodipodi:namedview
     id="namedview7428"
     pagecolor="#ffffff"
     bordercolor="#666666"
     borderopacity="1.0"
     inkscape:pageshadow="2"
     inkscape:pageopacity="0.0"
     inkscape:pagecheckerboard="0"
     inkscape:document-units="mm"
     showgrid="false"
     inkscape:zoom="0.45291836"
     inkscape:cx="-161.17695"
     inkscape:cy="-762.83063"
     inkscape:window-width="1920"
     inkscape:window-height="1017"
     inkscape:window-x="-8"
     inkscape:window-y="-8"
     inkscape:window-maximized="1"
     inkscape:current-layer="layer1" />
  <defs
     id="defs7423">
    <clipPath
       clipPathUnits="userSpaceOnUse"
       id="clipPath180456-5-6">
      <path
         d="M 0,0 H 595.276 V 841.89 H 0 Z"
         id="path180454-2-9" />
    </clipPath>
  </defs>
  <g
     inkscape:label="Layer 1"
     inkscape:groupmode="layer"
     id="layer1"
     transform="translate(-28.377752,177.80213)">
    <g
       id="G-Mortar-12cm"
       transform="translate(27.395867,-176.77757)">
      <path
         id="path42440-56-7-3-2"
         style="fill:#000000;stroke-width:0.0273298"
         sodipodi:type="inkscape:offset"
         inkscape:radius="-0.1"
         inkscape:original="M 563.89062 747.61133 C 563.62768 747.57073 562.93101 747.59414 562.7832 747.64844 C 562.61293 747.71095 562.52003 747.81491 562.49023 747.97461 C 562.47683 748.0462 562.43734 748.13468 562.40234 748.17188 C 562.35094 748.22653 562.33703 748.2749 562.33203 748.41992 C 562.32853 748.51869 562.3195 748.60628 562.3125 748.61328 C 562.29333 748.63245 561.91538 748.43706 561.80664 748.35156 C 561.75648 748.31208 561.63767 748.20373 561.54297 748.11133 C 561.38582 747.9581 561.35353 747.94028 561.16992 747.89648 C 560.9043 747.83298 560.29568 747.81132 560.07227 747.85742 C 559.83682 747.906 559.65381 748.00261 559.59961 748.10742 C 559.56411 748.17503 559.55836 748.24715 559.56836 748.44141 C 559.57948 748.66804 559.59926 748.7409 559.79492 749.27734 C 559.95177 749.70732 560.04342 749.91665 560.13672 750.05664 C 560.2245 750.18835 560.26935 750.28815 560.28125 750.37695 C 560.30127 750.52612 560.42408 750.81049 560.54102 750.97852 C 560.58552 751.04243 560.62967 751.14578 560.63867 751.20898 L 560.6543 751.32422 L 560.57812 751.28125 C 560.46817 751.21815 560.31355 751.25287 560.19922 751.36719 C 560.0438 751.52261 560.08966 751.70056 560.36133 752 C 560.59034 752.25297 560.58345 752.23535 560.59375 752.53516 C 560.60105 752.74776 560.59299 752.8317 560.55859 752.9043 C 560.52379 752.97622 560.51685 753.03693 560.53125 753.16602 C 560.55501 753.37983 560.66974 753.96239 560.71094 754.08008 C 560.75653 754.21016 560.71791 754.38825 560.57617 754.68555 C 560.55504 754.72967 560.10431 754.72945 559.75781 754.68555 C 559.14147 754.60751 558.96157 754.62148 558.79492 754.76172 C 558.67465 754.86292 558.61928 754.99245 558.55078 755.33008 C 558.4627 755.76453 558.48066 756.02911 558.61914 756.32422 C 558.67574 756.44482 558.75161 756.57207 558.78711 756.60547 C 558.83511 756.6505 558.85156 756.6946 558.85156 756.7793 C 558.85156 756.91368 558.89464 757.05363 558.96484 757.14453 C 559.00614 757.19848 559.01562 757.26027 559.01562 757.50195 C 559.01563 757.89119 559.06348 758.04982 559.23047 758.2168 C 559.42615 758.41289 559.65383 758.46295 560.09375 758.40625 C 560.25546 758.38545 560.25893 758.38576 560.33203 758.47266 C 560.38377 758.53408 560.44012 758.56602 560.51562 758.57812 C 560.60712 758.59275 560.62744 758.61055 560.65234 758.68555 C 560.72953 758.91823 561.05312 759.26673 561.32422 759.41016 C 561.44865 759.47586 561.85717 759.48649 562.07617 759.42969 C 562.50493 759.31858 562.919 759.03914 563.07422 758.75586 C 563.15632 758.60592 563.15412 758.61365 563.13672 758.2207 C 563.13472 758.17936 563.13758 758.11367 563.14258 758.07617 C 563.14728 758.03858 563.14176 757.95808 563.13086 757.89648 C 563.11356 757.79875 563.12085 757.77417 563.18555 757.69727 C 563.22879 757.64588 563.27468 757.53946 563.29688 757.44336 C 563.33038 757.29738 563.33087 757.27079 563.29297 757.21289 C 563.26926 757.17669 563.22315 757.14666 563.18945 757.14648 C 563.03402 757.14541 563.02381 757.03042 563.16602 756.84961 C 563.20812 756.7961 563.25172 756.72506 563.26172 756.69336 C 563.27717 756.64356 563.30784 756.63434 563.48828 756.61914 C 563.6577 756.60494 563.70564 756.60963 563.74414 756.64453 C 563.798 756.6933 563.87842 757.01608 563.87891 757.18555 C 563.87911 757.2476 563.89858 757.36652 563.92188 757.44922 C 563.9948 757.70839 564.12467 758.25343 564.125 758.30273 C 564.1252 758.32863 564.09424 758.36993 564.05664 758.39453 C 563.98114 758.44404 563.96154 758.59353 564.02344 758.64453 C 564.09534 758.70388 564.38304 758.78381 564.43164 758.75781 C 564.45852 758.74338 564.5018 758.65043 564.5332 758.54492 L 564.58984 758.35938 L 564.49414 757.97852 C 564.44154 757.76981 564.39844 757.57984 564.39844 757.55664 C 564.39844 757.53354 564.42348 757.4939 564.45508 757.4668 C 564.49846 757.42963 564.5106 757.39568 564.5 757.33008 C 564.4924 757.28236 564.45326 757.00342 564.41406 756.71094 C 564.36042 756.31114 564.32484 756.14366 564.27344 756.03125 L 564.20508 755.88086 L 564.25977 755.60547 C 564.31928 755.30648 564.35987 754.93327 564.38477 754.44141 C 564.39815 754.17778 564.43869 753.86223 564.49609 753.57617 C 564.50783 753.51647 564.51793 753.51548 564.88477 753.52148 C 565.22811 753.52638 565.27101 753.52034 565.40234 753.46094 C 565.65363 753.34735 565.81284 753.10249 565.83984 752.78516 C 565.86871 752.44577 565.66585 752.12784 565.35742 752.02539 C 565.21585 751.97836 565.21307 751.97423 565.23047 751.89062 C 565.24037 751.8435 565.26726 751.65596 565.28906 751.47266 C 565.31096 751.28934 565.34057 751.10571 565.35547 751.06641 C 565.37047 751.02703 565.38281 750.93623 565.38281 750.86523 C 565.38281 750.79421 565.40188 750.66382 565.42578 750.57422 C 565.48471 750.35319 565.46194 750.08042 565.36914 749.89062 C 565.29054 749.73 565.09559 749.53336 564.98633 749.50586 C 564.88304 749.47994 564.79043 749.53195 564.76953 749.62695 C 564.74973 749.71707 564.69967 749.76858 564.57031 749.83398 C 564.50951 749.86478 564.47784 749.86856 564.46484 749.84766 C 564.43934 749.80656 564.47698 749.30469 564.52148 749.0918 C 564.54148 748.9962 564.57786 748.88972 564.60156 748.85352 C 564.66206 748.76121 564.65387 748.68105 564.57227 748.53906 C 564.53343 748.47141 564.47917 748.35771 564.45117 748.28711 C 564.42316 748.21659 564.35794 748.10421 564.30664 748.03711 C 564.25543 747.96998 564.20551 747.87051 564.19531 747.81641 C 564.17213 747.6929 564.09863 747.64353 563.89062 747.61133 z M 559.89453 756.30664 C 559.93965 756.26154 559.9626 756.26682 560.13477 756.35742 C 560.21744 756.40092 560.30929 756.44317 560.33789 756.45117 C 560.38849 756.46597 560.38748 756.46824 560.33398 756.52734 C 560.26345 756.60521 560.18945 756.82654 560.18945 756.96094 C 560.18945 757.07984 560.16336 757.08987 560.05078 757.00977 C 559.98508 756.96297 559.97119 756.93259 559.9707 756.83789 C 559.9704 756.77502 559.94572 756.67097 559.91602 756.60547 C 559.85462 756.47038 559.84623 756.35494 559.89453 756.30664 z "
         transform="matrix(0.327998,0,0,-0.327998,-175.50339,250.78689)"
         d="m 563.29688,747.69336 c -0.11094,0.004 -0.21767,0.0107 -0.30469,0.0195 -0.087,0.009 -0.15856,0.0237 -0.17383,0.0293 -0.14765,0.0542 -0.20611,0.11944 -0.23047,0.25 -0.0172,0.0919 -0.0498,0.18055 -0.11328,0.24804 -0.0187,0.0199 -0.0229,0.0262 -0.0293,0.0488 -0.006,0.0226 -0.0113,0.0651 -0.0137,0.13477 -0.002,0.0514 -0.004,0.0986 -0.008,0.13672 -0.002,0.0191 -0.005,0.036 -0.008,0.0508 -0.001,0.007 -0.001,0.0147 -0.004,0.0234 -0.001,0.004 -0.003,0.009 -0.006,0.0156 -0.002,0.004 -0.008,0.0133 -0.008,0.0137 -2.2e-4,3.8e-4 -0.0154,0.0193 -0.0156,0.0195 -3e-4,3e-4 -0.0327,0.0233 -0.0332,0.0234 -4.7e-4,2e-4 -0.0185,0.005 -0.0254,0.006 -0.0138,0.002 -0.022,0.003 -0.0293,0.002 -0.0146,-0.002 -0.0236,-0.005 -0.0332,-0.008 -0.0191,-0.006 -0.0387,-0.0141 -0.0605,-0.0234 -0.0437,-0.0186 -0.0975,-0.0429 -0.15429,-0.0723 -0.11357,-0.0587 -0.23321,-0.12698 -0.30274,-0.18164 -0.0597,-0.047 -0.17483,-0.15179 -0.27148,-0.2461 -0.15503,-0.15115 -0.14595,-0.14646 -0.32618,-0.18945 -0.23702,-0.0567 -0.87255,-0.0766 -1.05468,-0.0391 -0.1099,0.0227 -0.20607,0.0561 -0.27735,0.0937 -0.0713,0.0377 -0.11519,0.0827 -0.12695,0.10547 -0.024,0.0456 -0.0294,0.0902 -0.0195,0.28125 0.005,0.11094 0.012,0.17428 0.041,0.28125 0.029,0.10696 0.082,0.25752 0.17969,0.52539 0.15613,0.42801 0.24749,0.63291 0.33203,0.75976 0.092,0.13803 0.14518,0.24952 0.16016,0.36133 0.0151,0.11234 0.13671,0.40704 0.24219,0.5586 0.0557,0.0799 0.10194,0.18011 0.11523,0.27343 l 0.0156,0.11524 a 0.10001,0.10001 0 0 1 -0.14844,0.10156 l -0.0762,-0.043 a 0.10001,0.10001 0 0 1 0,-0.002 c -0.0611,-0.0351 -0.17016,-0.0193 -0.25977,0.0703 -0.0607,0.0607 -0.0713,0.0958 -0.0527,0.16797 0.0185,0.0722 0.0876,0.18363 0.21875,0.32812 0.11406,0.126 0.17631,0.18892 0.21484,0.27735 0.0385,0.0884 0.0378,0.1711 0.043,0.32031 0.007,0.21603 -3.4e-4,0.32192 -0.0449,0.41602 -0.0275,0.0567 -0.0312,0.0849 -0.0176,0.20703 0.011,0.0992 0.0455,0.30078 0.082,0.48632 0.0365,0.18555 0.0786,0.36865 0.0918,0.40626 0.0608,0.1736 0.007,0.3767 -0.13867,0.68164 -3.3e-4,6.8e-4 -0.009,0.0155 -0.0137,0.0215 -0.005,0.006 -0.009,0.0117 -0.0137,0.0156 -0.009,0.008 -0.0181,0.0118 -0.0254,0.0156 -0.0146,0.008 -0.0251,0.0123 -0.0371,0.0156 -0.024,0.007 -0.0497,0.0106 -0.0781,0.0137 -0.0568,0.006 -0.12736,0.008 -0.20899,0.008 -0.16325,-3e-5 -0.36437,-0.0106 -0.54297,-0.0332 -0.30623,-0.0388 -0.50267,-0.0531 -0.63086,-0.043 -0.12818,0.0101 -0.18484,0.0359 -0.25585,0.0957 -0.0498,0.0419 -0.0807,0.0823 -0.11329,0.1582 -0.0326,0.0759 -0.0639,0.18741 -0.0976,0.35352 -0.086,0.42411 -0.0696,0.65433 0.0605,0.93164 0.0267,0.057 0.0593,0.11815 0.0879,0.16602 0.0286,0.0479 0.0611,0.0883 0.0586,0.0859 0.0634,0.0595 0.0957,0.14845 0.0957,0.2461 0,0.113 0.0418,0.23742 0.0937,0.30468 0.0296,0.0387 0.0515,0.0914 0.0605,0.1543 0.009,0.0629 0.01,0.14153 0.01,0.26367 10e-6,0.19053 0.0129,0.3186 0.041,0.41211 0.0281,0.0935 0.0689,0.15675 0.14453,0.23242 0.0871,0.0873 0.17209,0.13601 0.29102,0.16211 0.11892,0.0261 0.27419,0.0256 0.48828,-0.002 0.081,-0.0104 0.13049,-0.0213 0.19336,-0.004 0.0629,0.0173 0.0977,0.0615 0.13476,0.10547 0.0397,0.0471 0.067,0.0613 0.12305,0.0703 0.0508,0.008 0.098,0.0187 0.14063,0.0527 0.0426,0.034 0.0619,0.0801 0.0762,0.12305 0.0301,0.0909 0.12208,0.23201 0.24023,0.35937 0.11815,0.12737 0.26232,0.24485 0.38281,0.3086 0.0242,0.0128 0.15899,0.0394 0.29688,0.043 0.13789,0.004 0.28941,-0.009 0.38281,-0.0332 0.40448,-0.10482 0.80302,-0.38314 0.93555,-0.625 0.0412,-0.0753 0.0509,-0.0885 0.0566,-0.13867 0.006,-0.0502 0.003,-0.14706 -0.006,-0.34375 -0.002,-0.0504 -3.4e-4,-0.11264 0.006,-0.16016 0.001,-0.0106 -4.6e-4,-0.0978 -0.01,-0.15039 -0.009,-0.0526 -0.0162,-0.10096 -0.002,-0.15234 0.0142,-0.0514 0.0436,-0.0879 0.0781,-0.12891 0.0217,-0.0258 0.0705,-0.12883 0.0898,-0.21093 v -0.002 c 0.0159,-0.0698 0.0236,-0.10993 0.0234,-0.12304 -1.8e-4,-0.0133 0.001,-0.006 -0.0137,-0.0293 -0.005,-0.008 -0.0447,-0.0216 -0.0195,-0.0215 -0.0512,-3.5e-4 -0.10066,-0.008 -0.14453,-0.0371 -0.0439,-0.0293 -0.074,-0.084 -0.0781,-0.13476 -0.008,-0.10154 0.0429,-0.18769 0.12109,-0.28711 0.0181,-0.023 0.0374,-0.0512 0.0527,-0.0762 0.0153,-0.025 0.0265,-0.0504 0.0254,-0.0469 0.0127,-0.0411 0.0654,-0.0984 0.11718,-0.11523 0.0518,-0.0168 0.10584,-0.0216 0.19727,-0.0293 0.0864,-0.007 0.14391,-0.0109 0.19531,-0.006 0.0514,0.005 0.10187,0.0268 0.13477,0.0566 0.045,0.0407 0.0531,0.0739 0.0703,0.11914 0.0172,0.0452 0.0327,0.0993 0.0469,0.15625 0.0284,0.11386 0.0505,0.23948 0.0508,0.33985 1.3e-4,0.0415 0.0186,0.16371 0.0391,0.23633 0.0372,0.13227 0.089,0.33395 0.13086,0.50976 0.0209,0.0879 0.0391,0.1692 0.0527,0.23242 0.007,0.0316 0.0116,0.0584 0.0156,0.0801 0.004,0.0217 0.008,0.0311 0.008,0.0586 4.1e-4,0.0532 -0.0192,0.0788 -0.0391,0.10547 -0.0199,0.0266 -0.0445,0.0509 -0.0742,0.0703 -0.002,0.002 -0.0198,0.0252 -0.0234,0.0527 -0.004,0.0276 0.0101,0.0434 0,0.0352 a 0.10001,0.10001 0 0 1 0,0.002 c 0.002,0.002 0.0956,0.0461 0.17578,0.0684 0.0401,0.0111 0.0791,0.0196 0.10742,0.0234 0.004,6e-4 0.006,-3.7e-4 0.01,0 0.003,-0.006 0.006,-0.01 0.01,-0.0176 0.0152,-0.032 0.0325,-0.0785 0.0469,-0.12696 l 0.0488,-0.1582 -0.0898,-0.35351 v -0.002 c -0.0263,-0.1043 -0.0509,-0.20421 -0.0684,-0.28125 -0.009,-0.0388 -0.0144,-0.0719 -0.0195,-0.0976 -0.005,-0.0258 -0.01,-0.0297 -0.01,-0.0664 0,-0.0477 0.0153,-0.0724 0.0312,-0.0977 0.0159,-0.0252 0.0364,-0.0476 0.0605,-0.0684 0.0138,-0.0118 0.0117,-0.0135 0.0117,-0.0137 6e-5,-1.8e-4 0.002,-0.007 -0.002,-0.0312 -0.009,-0.0548 -0.0467,-0.32822 -0.0859,-0.62109 -0.0533,-0.39767 -0.0898,-0.55822 -0.13281,-0.65234 l -0.0684,-0.15039 a 0.10001,0.10001 0 0 1 -0.006,-0.0606 l 0.0547,-0.27539 c 0.0581,-0.29191 0.0983,-0.66146 0.12305,-1.15039 0.0137,-0.26981 0.0549,-0.58785 0.11328,-0.87891 0.003,-0.0175 0.009,-0.0539 0.041,-0.0859 0.0318,-0.0321 0.0692,-0.0401 0.10352,-0.0449 0.0686,-0.01 0.16022,-0.007 0.34375,-0.004 0.17102,0.002 0.26458,0.001 0.32422,-0.006 0.0596,-0.007 0.0873,-0.0183 0.15039,-0.0469 0.21658,-0.0979 0.35435,-0.30322 0.3789,-0.5918 0.0251,-0.29471 -0.15192,-0.56917 -0.41406,-0.65625 -0.0714,-0.0237 -0.11405,-0.0285 -0.16406,-0.082 -0.025,-0.0268 -0.039,-0.0686 -0.0391,-0.0976 -6e-5,-0.029 0.005,-0.0487 0.01,-0.0703 a 0.10001,0.10001 0 0 1 0,-0.002 c 0.006,-0.0305 0.035,-0.22654 0.0566,-0.4082 0.0111,-0.093 0.0248,-0.1862 0.0371,-0.26172 0.0123,-0.0755 0.0172,-0.12058 0.0352,-0.16797 0.003,-0.009 0.0215,-0.1066 0.0215,-0.16602 0,-0.0889 0.0202,-0.21626 0.0469,-0.3164 0.0518,-0.19444 0.0276,-0.45156 -0.0508,-0.61328 v -0.002 c -0.0322,-0.0653 -0.095,-0.14922 -0.16016,-0.21484 -0.0656,-0.066 -0.14268,-0.11182 -0.15625,-0.11523 -0.059,-0.0148 -0.0865,0.003 -0.0957,0.0449 -0.0128,0.0584 -0.0405,0.115 -0.084,0.16015 -0.0435,0.0452 -0.0985,0.0801 -0.16797,0.11524 -0.0352,0.0178 -0.0647,0.0302 -0.10351,0.0352 -0.0388,0.005 -0.1037,-0.0149 -0.13086,-0.0586 a 0.10001,0.10001 0 0 1 -0.002,0 c -0.0301,-0.0486 -0.0198,-0.0573 -0.0215,-0.0801 -0.002,-0.0228 -3.4e-4,-0.0503 0,-0.0801 6.8e-4,-0.0596 0.004,-0.13278 0.01,-0.21289 0.012,-0.16021 0.0323,-0.33875 0.0566,-0.45507 0.011,-0.0524 0.0251,-0.1073 0.041,-0.1543 0.0159,-0.047 0.0291,-0.0831 0.0527,-0.11914 0.0218,-0.0333 0.026,-0.0478 0.0234,-0.0742 -0.003,-0.0264 -0.0172,-0.0696 -0.0547,-0.13477 a 0.10001,0.10001 0 0 1 0,-0.002 c -0.0429,-0.0747 -0.0981,-0.18612 -0.12891,-0.26367 -0.0218,-0.0549 -0.0874,-0.16977 -0.13086,-0.22656 -0.0611,-0.0801 -0.11183,-0.17313 -0.1289,-0.26368 -0.009,-0.0453 -0.0155,-0.0551 -0.041,-0.0723 -0.0256,-0.0172 -0.0835,-0.0356 -0.18164,-0.0508 -0.11544,-0.0178 -0.35626,-0.025 -0.57812,-0.0176 z m -3.3086,8.49023 c 0.0586,0.0125 0.10636,0.0402 0.19336,0.0859 0.0396,0.0209 0.0821,0.0405 0.11719,0.0566 0.0351,0.0162 0.0693,0.0301 0.0664,0.0293 0.0134,0.004 0.0258,0.007 0.0469,0.0176 0.0106,0.005 0.0245,0.0124 0.0391,0.0312 0.0146,0.0188 0.0249,0.0504 0.0234,0.0742 -0.003,0.0477 -0.0205,0.0624 -0.0312,0.0762 -0.0107,0.0138 -0.0217,0.0242 -0.0352,0.0391 -0.0153,0.0169 -0.0534,0.0861 -0.0781,0.16016 -0.0247,0.0741 -0.041,0.15818 -0.041,0.20703 0,0.0334 4.1e-4,0.0617 -0.008,0.0937 -0.008,0.0321 -0.0352,0.0815 -0.0859,0.0996 -0.0507,0.0181 -0.0884,0.002 -0.11719,-0.0117 -0.0288,-0.0133 -0.0555,-0.0291 -0.0859,-0.0508 -0.0385,-0.0274 -0.074,-0.0606 -0.0957,-0.10742 -0.0217,-0.0468 -0.0251,-0.0943 -0.0254,-0.14649 -1.7e-4,-0.0372 -0.025,-0.14321 -0.0469,-0.19141 -0.0344,-0.0757 -0.0556,-0.14654 -0.0605,-0.21484 -0.005,-0.0683 0.006,-0.14095 0.0605,-0.19531 0.015,-0.015 0.0351,-0.0345 0.0664,-0.0469 0.0313,-0.0124 0.0683,-0.0121 0.0977,-0.006 z" />
      <path
         style="fill:#000000;stroke-width:0.0232452"
         d="m 12.575352,5.5134328 c -0.04154,-0.018058 -0.07554,-0.048667 -0.07554,-0.068004 0,-0.019354 -0.02091,-0.04637 -0.0465,-0.060054 -0.03711,-0.019854 -0.0465,-0.017689 -0.0465,0.010765 0,0.042295 -0.0022,0.042584 -0.08301,0.011746 -0.06167,-0.023439 -0.0625,-0.026473 -0.04633,-0.1685262 0.02264,-0.1988647 0.02363,-0.1560853 -0.0145,-0.6211817 -0.01674,-0.2039333 -0.03349,-0.2961004 -0.0562,-0.3091501 -0.03715,-0.021338 -0.04394,-0.145853 -0.0091,-0.1673603 0.04101,-0.025357 0.02501,-0.05295 -0.04478,-0.077274 C 12.067032,4.0344595 12.028128,3.9737505 11.96402,3.7697426 11.93591,3.6802506 11.89238,3.5582239 11.8673,3.4985913 l -0.04563,-0.108445 -0.08033,0.047399 c -0.05557,0.032782 -0.103995,0.043565 -0.157085,0.034947 l -0.07675,-0.012493 -0.115371,0.24324 -0.115379,0.2432431 -0.0328,0.056058 c -0.01138,0.00699 -0.04353,0.075413 -0.07144,0.1519573 -0.04659,0.1277815 -0.170353,0.2776948 -0.229246,0.2776948 -0.0201,0 -0.06764,0.091806 -0.198633,0.3835331 -0.08613,0.1918174 -0.10467,0.2571739 -0.118471,0.4176632 -0.0066,0.076296 -0.02303,0.1521527 -0.03666,0.1685261 -0.02988,0.036027 -0.08877,0.039462 -0.08877,0.00526 0,-0.013542 -0.01045,-0.018154 -0.02326,-0.0103 -0.0128,0.00789 -0.02326,0.033511 -0.02326,0.056889 0,0.048298 -0.119386,0.081004 -0.219435,0.060124 -0.03273,-0.00683 -0.08566,-0.017847 -0.11762,-0.024491 -0.03231,-0.00667 -0.05811,-0.02833 -0.05811,-0.048702 0,-0.056091 0.07475,-0.1701399 0.121176,-0.184875 0.05003,-0.015893 0.157765,-0.1929652 0.157765,-0.2593112 0,-0.026192 0.01565,-0.077563 0.03472,-0.1141782 0.01908,-0.036632 0.03479,-0.08772 0.03487,-0.1135413 1.49e-4,-0.068048 0.09181,-0.3883602 0.121177,-0.4237427 0.01534,-0.018461 0.01951,-0.08211 0.01082,-0.1651493 -0.01481,-0.1418639 0.0051,-0.1893498 0.07978,-0.1893498 0.03249,0 0.03748,-0.015957 0.02773,-0.088679 -0.01017,-0.07579 -0.0035,-0.094198 0.04605,-0.1266496 0.06708,-0.043955 0.144526,-0.1969602 0.167502,-0.3309294 0.0087,-0.05115 0.04459,-0.1669705 0.07961,-0.2573812 0.05366,-0.1385582 0.05903,-0.1714205 0.03422,-0.209215 -0.01621,-0.024646 -0.03355,-0.076182 -0.03858,-0.1145493 l -0.0092,-0.069736 0.01555,-0.1044188 c 0.01692,-0.040788 0.02183,-0.096057 0.0119,-0.1336662 -0.02251,-0.085534 -0.02449,-0.1954356 -0.0043,-0.238685 l 0.02681,-0.070471 0.04209,-0.082034 c 0.02316,-0.045172 0.05678,-0.087732 0.07474,-0.094615 0.031,-0.011967 0.301178,-0.4252735 0.286026,-0.437618 l 0.02743,-0.019111 0.117515,-0.05624 c 0.143196,-0.068536 0.315811,-0.1224038 0.394112,-0.122979 0.03819,0 0.06686,-0.019327 0.08361,-0.055455 0,0 0.0518,-0.017502 0.09079,-0.2003182 0.04001,-0.18972118 0.143859,-0.28024928 0.318806,-0.27790528 0.10815,0.00247 0.256778,0.058684 0.293267,0.11294138 l 0.06908,0.1584729 c 0.0055,0.050641 0.03349,0.1134206 0.06605,0.1481939 0.06062,0.064742 0.0489,0.092306 -0.05241,0.1233038 -0.03724,0.011287 -0.04634,0.028821 -0.03794,0.072707 0.006,0.031733 -9.91e-4,0.07167 -0.01463,0.088688 -0.01917,0.023131 -0.01401,0.055158 0.02053,0.1265972 0.02542,0.0526 0.04621,0.1418176 0.04621,0.1983114 l -0.02326,0.1481971 1.45e-4,0.055826 c 9e-5,0.030707 0.0067,0.1092305 0.01444,0.1744974 l 0.01425,0.1186776 -0.0057,0.053223 v 0.082884 c 0,0.0456 -0.01014,0.1018615 -0.02257,0.1250756 l -0.06421,0.089496 -0.02551,0.07319 c -0.01407,0.040256 -0.04667,0.1000866 -0.07252,0.1329519 -0.02585,0.032863 -0.04193,0.067963 -0.03574,0.077958 l -0.07703,0.1194447 c -0.04257,0.067249 -0.04374,0.081081 -0.01389,0.1656501 0.01787,0.050739 0.03255,0.1132073 0.03255,0.1388211 0,0.040411 0.08595,0.331387 0.139362,0.471779 l -0.0069,0.072407 0.01905,0.067812 c 0.0217,0.077333 0.02134,0.089408 -0.01119,0.358383 -0.04285,0.3546011 -0.05912,0.5452684 -0.0513,0.6005871 0.0072,0.050742 0.16638,0.2271439 0.276127,0.3059552 0.02671,0.019171 0.0547,0.062289 0.06221,0.095801 0.01246,0.055697 0.0062,0.062175 -0.0732,0.075297 -0.132671,0.021923 -0.218903,0.01627 -0.301879,-0.019793 z"
         id="path3390-9"
         sodipodi:nodetypes="cssssssssssscssccccsssssssssssssscsssssssssccsccssccscccsccsssssccccccsccssccssccsssssscc" />
      <path
         id="path13147"
         style="fill:#000000;stroke-width:0.0215421"
         d="m 2.1402164,-1.0241772 v 0 c 0.032103,-0.00494 0.086293,0.0375355 0.1901366,0.14753163 0.1621543,0.17194389 0.2634403,0.32039277 0.3579318,0.52450999 0.047773,0.10325805 0.07728,0.14086417 0.1183535,0.15113 0.082077,0.0208139 0.1329407,0.14114638 0.1045139,0.24768527 -0.027446,0.10269361 0.026988,0.26747611 0.09168,0.27745971 0.1098303,0.016933 0.145101,0.032456 0.1929977,0.083926 0.061436,0.066252 0.06871,0.1678517 0.014323,0.1995311 -0.098111,0.057115 -0.120269,0.085055 -0.093278,0.1175456 0.022754,0.027869 0.039338,0.024694 0.1249256,-0.020814 0.1165578,-0.061948 0.1995382,-0.06664 0.2623714,-0.014817 0.02921,0.023989 0.1032616,0.1972381 0.2051121,0.4792486 l 0.1595085,0.441572 0.1103171,-0.006 c 0.1258887,-0.0067 0.1755105,-0.044379 0.2076379,-0.1563864 0.025294,-0.08823 0.075907,-0.1044575 0.1364051,-0.044027 0.024165,0.024342 0.057926,0.038559 0.075064,0.032103 0.018133,-0.0067 0.041169,0.0067 0.055115,0.032808 0.013758,0.025753 0.045385,0.044838 0.074429,0.044838 0.064713,0 0.1062813,0.05013 0.088357,0.1066094 -0.010231,0.032456 -0.032385,0.044133 -0.08255,0.044133 -0.051946,0 -0.08424,0.018344 -0.1332089,0.076235 -0.062724,0.073907 -0.069963,0.076518 -0.2462565,0.086501 -0.099903,0.00529 -0.186115,0.014817 -0.1915689,0.020461 -0.00547,0.00494 -2.258e-4,0.021872 0.011677,0.037536 0.011853,0.015169 0.037274,0.074542 0.056455,0.1322563 0.04512,0.1353962 0.1254443,0.2134306 0.1922428,0.1865842 0.034819,-0.014464 0.038164,-0.020108 0.011994,-0.020814 -0.088639,-0.00388 -0.059895,-0.2018947 0.040686,-0.2809875 0.072429,-0.057044 0.097116,-0.054963 0.1804564,0.014817 0.066294,0.055774 0.080437,0.058596 0.2885934,0.056762 0.2108446,-0.00388 0.2223875,-0.00459 0.3142897,-0.070979 0.052483,-0.037959 0.094467,-0.078105 0.093285,-0.089076 -0.00141,-0.011642 -0.00377,-0.039405 -0.0054,-0.063041 -0.00176,-0.030339 -0.018627,-0.043145 -0.055538,-0.043145 -0.028787,0 -0.067945,-0.01517 -0.087052,-0.034925 -0.031926,-0.03175 -0.031962,-0.039017 -5.64e-5,-0.087736 0.019085,-0.028928 0.036745,-0.1051983 0.039169,-0.1690158 0.00649,-0.1708503 0.1197222,-0.2985911 0.3169497,-0.3576814 0.1813736,-0.054328 0.341256,0.016581 0.4748106,0.2107495 0.069141,0.1004711 0.1614135,0.1671108 0.3209396,0.2317044 0.053315,0.021519 0.1340344,0.054504 0.1793205,0.073095 0.09557,0.039303 0.1653598,0.118607 0.1653598,0.1878926 0,0.026458 0.042245,0.1101725 0.093825,0.1855611 0.051583,0.075494 0.1339885,0.2179108 0.1831481,0.3165122 0.049167,0.098637 0.1189637,0.22225 0.1550846,0.2747786 0.1044857,0.1519061 0.2142243,0.4012494 0.2280885,0.5183011 0.011324,0.095532 0.00646,0.1145822 -0.043169,0.1680986 -0.030727,0.033514 -0.061419,0.095462 -0.06816,0.1384653 -0.0067,0.043039 -0.061592,0.2281061 -0.1218883,0.4113742 -0.1082357,0.3289652 -0.1091953,0.3342922 -0.076701,0.4219927 0.018097,0.048789 0.02794,0.1146881 0.021872,0.1463322 l -0.011077,0.05775 c 0.00141,0.161043 0.039984,0.4271786 0.075145,0.7884936 0.080222,0.1403702 -0.058974,0.1638652 -0.09471,0.2443691 0,0 -0.2994518,0.1271058 -0.4288613,0.062865 C 6.2913638,5.4359247 6.429822,5.2480001 6.429822,5.2480001 6.499111,5.1774441 6.525696,5.0716112 6.497601,4.9699053 6.483419,4.9184703 6.46444,4.8956103 6.436214,4.8956103 c -0.066206,0 -0.1079182,0.083397 -0.1079182,0.2158648 0,0.066111 -0.01076,0.1309863 -0.023954,0.144145 -0.011077,0.011642 -0.015381,0.027869 -0.011959,0.040252 -0.1954459,0.2466269 -0.1762125,0.4577292 -0.1762125,0.4577292 -0.00991,0 -0.019826,0 -0.030198,0 -0.050373,-0.00529 -0.07463,-0.00564 -0.053894,0 0.041829,0.00953 0.054733,0.1435805 0.016157,0.1674636 -0.011853,0.00706 -0.021519,0.00388 -0.021519,-0.00776 0,-0.035983 -0.073783,-0.038629 -0.1036637,-0.00388 -0.021308,0.025047 -0.031045,0.026458 -0.039469,0.006 -0.00868,-0.020814 -0.021237,-0.020108 -0.055838,0.00459 -0.032773,0.022931 -0.055612,0.0254 -0.086088,0.00882 -0.02279,-0.012347 -0.056547,-0.016228 -0.075015,-0.00882 -0.01845,0.00706 -0.1025278,0.018345 -0.1868099,0.023283 -0.084282,0.00564 -0.2044312,0.026458 -0.2670422,0.04579 -0.092675,0.028575 -0.129226,0.030692 -0.196409,0.010936 C 4.9085694,5.9675607 4.3428973,5.9710884 4.2171814,6.0049551 4.1638625,6.0197718 4.1052097,6.0271801 4.0867947,6.0232996 4.0683797,6.0190662 3.9877171,5.9103048 3.9075942,5.7813998 3.7870747,5.5875837 3.749391,5.5428868 3.6893129,5.523096 3.6493785,5.5096904 3.5919498,5.4796337 3.5617026,5.4558212 3.5314343,5.4321851 3.4557141,5.3962724 3.3933994,5.3763051 3.2976132,5.3456135 3.2790888,5.331079 3.2734514,5.2822546 3.263997,5.200516 3.3858217,5.0729515 3.5421341,5.0009849 3.705516,4.9257374 3.944403,4.8337329 3.9765587,4.8337329 c 0.031926,0 0.031997,-0.047731 2.187e-4,-0.1537053 -0.019544,-0.065158 -0.035634,-0.08322 -0.074302,-0.08322 -0.027129,0 -0.058434,-0.015875 -0.069501,-0.036019 -0.017639,-0.031397 -0.028575,-0.032456 -0.08794,-0.00847 -0.077759,0.032456 -0.079449,0.031044 -0.099085,-0.046814 -0.012488,-0.049812 0.00141,-0.075106 0.095677,-0.1749425 L 3.8519047,4.2140788 3.7122117,3.7319021 C 3.5494189,3.1701388 3.4802745,2.9602713 3.4577919,2.9594952 c -0.00889,0 -0.058656,0 -0.110617,0 H 3.2526834 L 3.1295252,3.5887096 C 3.0617777,3.9347493 2.9978897,4.240149 2.9875674,4.2673129 c -0.021273,0.05588 -0.096365,0.066146 -0.1573989,0.02152 -0.036103,-0.026106 -0.034396,-0.046567 0.032491,-0.3892903 0.058956,-0.3019778 0.065599,-0.3643489 0.040566,-0.3798711 -0.018521,-0.011994 -0.038626,-0.00847 -0.052723,0.00776 -0.012524,0.015169 -0.1039072,0.084384 -0.2030484,0.1545167 -0.099152,0.070238 -0.1898755,0.1519414 -0.2015842,0.18161 -0.011748,0.029633 -0.029351,0.123578 -0.039292,0.2087033 -0.00995,0.085125 -0.03937,0.2042231 -0.065387,0.2647244 -0.039687,0.092216 -0.045088,0.1335264 -0.03369,0.25654 0.013053,0.1412523 0.011606,0.1474611 -0.040107,0.1709914 -0.045265,0.020814 -0.053679,0.039158 -0.053679,0.1183922 0,0.1656645 0.1129735,0.2689931 0.3914175,0.3578931 0.043483,0.014111 0.089913,0.038347 0.1031663,0.054292 0.024765,0.029986 0.02099,0.1558572 -0.00603,0.1994605 -0.1275113,0.074614 -0.2920115,-0.014816 -0.486512,0.029634 -0.3349555,0.051858 -0.4219611,-0.074189 -0.4219611,-0.074189 0.0084,-0.1338086 0.012065,-0.4077405 0.011995,-0.5033433 -5.29e-5,-0.084243 -0.011077,-0.1234722 -0.043797,-0.1561395 -0.024059,-0.024342 -0.043762,-0.063959 -0.043762,-0.088582 0,-0.039229 -0.00864,-0.042933 -0.070009,-0.029633 -0.038509,0.00847 -0.070767,0.016228 -0.071695,0.017992 -0.00106,0.00353 -0.028857,0.039441 -0.062145,0.084102 -0.0574,0.077082 -0.058586,0.083326 -0.023671,0.12192 0.020214,0.022225 0.084529,0.061136 0.1429243,0.086219 0.093144,0.040111 0.1061615,0.053552 0.1061615,0.1097139 0,0.035278 -0.00878,0.063994 -0.019544,0.063994 -0.02794,0.080469 -0.6945665,-0.022931 -0.6945665,-0.022931 L 0.98188475,5.0426832 1.0492476,4.9045707 c 0.093959,-0.1926872 0.1023196,-0.2500842 0.046747,-0.3207456 -0.025047,-0.032103 -0.045568,-0.078564 -0.045568,-0.103893 0,-0.084526 0.082599,-0.3444875 0.1786043,-0.5621867 0.052253,-0.1184275 0.1117423,-0.2929113 0.1321964,-0.387738 0.020461,-0.094791 0.046729,-0.215265 0.05836,-0.2676525 0.022331,-0.1007533 0.00713,-0.2524125 -0.02988,-0.2982383 C 1.3298082,2.8899627 1.4152827,2.6095044 1.5782414,2.3452033 1.6473188,2.233161 1.6475693,2.1208013 1.5792997,2.0038555 1.550125,1.9541491 1.510815,1.8467283 1.4919131,1.7652366 1.472969,1.6837097 1.437229,1.5772766 1.4124323,1.5286638 1.3603764,1.4267463 1.3369978,1.1891505 1.3705293,1.1030374 1.3952238,1.0396786 1.5503719,0.9232619 1.6401398,0.9006841 c 0.031644,-0.00776 0.075699,-0.037536 0.097949,-0.065864 0.023954,-0.030339 0.063126,-0.0514 0.09585,-0.0514 0.034149,0 0.064618,-0.017286 0.079516,-0.045156 0.019791,-0.037148 0.016051,-0.053693 -0.020779,-0.092886 -0.02473,-0.026105 -0.044937,-0.059161 -0.044937,-0.07299 0,-0.014111 0.049625,-0.099025 0.1102748,-0.1892653 0.1256772,-0.187077 0.1879848,-0.22447145 0.374128,-0.22447145 H 2.4516768 L 2.3974443,0.05161858 c -0.029845,-0.0588081 -0.054233,-0.14139333 -0.054233,-0.183515 0,-0.0455083 -0.033479,-0.14410972 -0.082681,-0.24309916 C 2.1654003,-0.56651863 2.109485,-0.75352613 2.1012406,-0.90779584 2.0961606,-1.0026225 2.100535,-1.0161692 2.1403636,-1.0218136 Z m 0.5783191,1.3529027 c -0.00589,0 -7.055e-4,0.019403 0.012277,0.043004 0.0127,0.023283 0.02787,0.043109 0.033831,0.043109 0.00589,0 7.056e-4,-0.019403 -0.012277,-0.043109 -0.0127,-0.023283 -0.027905,-0.043004 -0.033831,-0.043004 z m 0.04384,0.2239433 c -0.00176,0 -0.00416,0 -0.00582,0.00388 -0.00663,0.0067 1.06e-5,0.023989 0.014711,0.038664 0.021273,0.021167 0.023742,0.018344 0.01203,-0.011994 -0.0061,-0.015522 -0.014323,-0.026811 -0.020955,-0.028222 z m -0.038876,0.2073981 c -0.011359,0 -0.026,0.00494 -0.044764,0.012347 -0.020214,0.00811 -0.034078,0.038523 -0.034078,0.075459 0,0.055562 -0.00995,0.066322 -0.056166,0.060713 -0.012806,-0.00353 -0.1161662,0.1406878 -0.1161662,0.1599495 0,0.00529 0.030515,0.020814 0.067864,0.033514 0.090636,0.031397 0.088413,0.032103 0.152393,-0.035631 0.044185,-0.046743 0.057531,-0.085372 0.063281,-0.1831622 0.00554,-0.094509 0.00141,-0.1257653 -0.03235,-0.1233311 z M 3.297857,1.3586249 3.270905,1.4236769 C 3.2318766,1.5179394 3.1149308,1.5891652 2.8478427,1.6815224 l -0.2354862,0.081315 -0.017463,0.1715558 c -0.00963,0.094333 -0.011324,0.3217686 -0.00388,0.5053895 0.00744,0.1836561 0.020144,0.3817408 0.028222,0.4401608 l 0.01464,0.1061861 0.06223,-0.084667 C 2.8044017,2.7540727 2.8720574,2.7051424 2.9890279,2.6896555 c 0.1176302,-0.01517 0.1189249,-0.017286 0.08461,-0.080998 l -0.023389,-0.043674 -0.042245,0.045261 c -0.049981,0.053657 -0.1007322,0.036407 -0.1472565,-0.050765 -0.038442,-0.07179 -0.00141,-0.1222375 0.054741,-0.075318 0.030939,0.0254 0.040425,0.023283 0.070937,-0.015522 0.019367,-0.025047 0.051763,-0.075565 0.071949,-0.112395 0.02226,-0.040605 0.053774,-0.066993 0.080024,-0.066993 0.050959,0 0.077064,-0.043886 0.094837,-0.1593144 l 0.012911,-0.08396 -0.1717886,0.013406 C 2.8538964,2.0763161 2.7953388,2.0558531 2.7957798,1.9613101 2.7964853,1.8311704 2.8806018,1.772327 3.066198,1.772327 c 0.1045246,0 0.139954,-0.00847 0.1708609,-0.043109 0.04324,-0.047731 0.1518885,-0.058138 0.168843,-0.015875 0.00596,0.015169 0.011677,0.01658 0.012594,0.00423 0.00106,-0.012347 -0.025823,-0.098284 -0.059457,-0.1905353 z m 0.193795,0.6965245 c -0.018979,0 -0.012136,0.022578 0.026741,0.1032227 0.028892,0.059866 0.05255,0.1180748 0.05255,0.1292578 0,0.011642 0.01076,0.027517 0.023883,0.035278 0.015769,0.00953 0.019262,0 0.010266,-0.028222 C 3.597612,2.2714029 3.579198,2.2094899 3.564205,2.1574906 3.548118,2.1019636 3.522263,2.0602646 3.501382,2.0562081 c -0.00377,0 -0.00702,0 -0.00974,0 z m 0.8367782,0.2650772 c -0.00603,0.00388 0.00317,0.047519 0.028152,0.1175808 0.02921,0.082726 0.02854,0.092639 -0.00804,0.1292578 -0.021802,0.021519 -0.053005,0.044168 -0.069257,0.04953 -0.023248,0.00811 -0.016404,0.041734 0.031856,0.1589264 0.033796,0.081915 0.1342496,0.3525661 0.223333,0.601345 0.089069,0.2488847 0.1937244,0.5409141 0.2325405,0.6492169 0.090085,0.2511072 0.230445,0.49022 0.2663296,0.4537075 0.013899,-0.014464 0.1437781,-0.064523 0.2885899,-0.1119717 l 0.2632639,-0.086113 0.011501,-0.2262364 c 0.00974,-0.1905 0.020708,-0.2439811 0.070143,-0.3388078 0.073053,-0.1403703 0.1360065,-0.3131608 0.1551658,-0.4258733 0.00808,-0.047413 0.034114,-0.131692 0.05794,-0.1872545 0.023807,-0.055527 0.037686,-0.1101372 0.030722,-0.1213202 -0.00691,-0.011642 7.055e-4,-0.064135 0.016616,-0.1176514 0.033161,-0.110102 0.0254,-0.1325033 -0.052469,-0.1514828 C 5.844584,2.7060244 5.749073,2.6266494 5.6625507,2.5373966 5.4880774,2.3574799 5.4713593,2.3520471 5.2908252,2.4158999 c -0.06326,0.022225 -0.1731962,0.050341 -0.2442809,0.062195 -0.138236,0.022931 -0.5833992,0.00529 -0.6322131,-0.025047 -0.016016,-0.00988 -0.042263,-0.048577 -0.058399,-0.085584 -0.014746,-0.034219 -0.023954,-0.04826 -0.027587,-0.04699 z M 3.4338842,2.490336 c -0.00141,0 -0.00423,0.00388 -0.00684,0.00988 -0.00621,0.015169 -0.00547,0.034219 0.00141,0.041381 0.00713,0.00706 0.012241,-0.00529 0.011324,-0.028222 -7.056e-4,-0.015169 -0.00282,-0.023283 -0.00614,-0.022931 z m -0.028893,0.083397 c -0.00282,0 -0.0042,0.006 -0.00483,0.021167 -0.00106,0.020108 -0.023107,0.051611 -0.049396,0.070062 -0.047565,0.033514 -0.047427,0.033867 0.021519,0.033867 0.071995,0 0.081379,-0.018697 0.047879,-0.096943 -0.00755,-0.017992 -0.012206,-0.026458 -0.01524,-0.028222 z m 0.3735775,0.2763661 c -0.0078,0.00353 -0.0133,0.014464 -0.0127,0.036795 7.056e-4,0.020814 0.032279,0.1290461 0.070513,0.2407003 0.038231,0.1116542 0.081396,0.2069394 0.095931,0.2118078 0.035242,0.011994 0.035525,0.013406 -0.035669,-0.1923345 -0.034149,-0.098672 -0.068227,-0.206128 -0.075773,-0.2386894 -0.00942,-0.040746 -0.02921,-0.062371 -0.04228,-0.058244 z M 2.8385823,2.9379757 2.6662503,3.1761713 C 2.5132718,3.3875205 2.4938725,3.4249502 2.4938725,3.5087349 c 0,0.051894 0.00723,0.094121 0.016157,0.093768 0.017886,0 0.2559544,-0.1734608 0.3071812,-0.2230614 0.017851,-0.017286 0.058692,-0.037994 0.090759,-0.046002 0.032068,-0.00847 0.062833,-0.030692 0.068365,-0.050271 0.033867,-0.1197328 0.057397,-0.2903008 0.041952,-0.3042708 -0.010019,-0.00882 -0.054497,-0.02152 -0.098915,-0.028575 z m 1.087501,0.5180542 c -0.027764,0.00388 -0.060262,0.01023 -0.08183,0.021519 l -0.052299,0.028222 0.078384,0.2840566 c 0.04312,0.1561747 0.083725,0.2893131 0.090251,0.2958042 0.00649,0.0067 0.044626,-0.02152 0.084652,-0.063218 0.040023,-0.04124 0.086039,-0.075036 0.1022809,-0.075001 0.033267,0 0.035419,0.00847 -0.06774,-0.2800349 C 4.0153854,3.4869685 4.0001737,3.461886 3.9516208,3.4559593 c -0.00755,0 -0.016298,0 -0.025541,0 z M 4.1683499,4.115936 c -0.018309,0.00388 -0.047823,0.024694 -0.088819,0.066463 -0.044979,0.046108 -0.078433,0.099801 -0.074344,0.1195211 0.00564,0.02787 0.030233,0.012347 0.1033745,-0.062195 0.064132,-0.06544 0.088784,-0.1050572 0.074348,-0.1194505 -0.00377,-0.00388 -0.00847,-0.00494 -0.01457,-0.00459 z m 0.1197045,0.1344436 c -0.011747,-0.014817 -0.2216467,0.2170289 -0.2213151,0.2443692 2.293e-4,0.013053 0.01711,0.079022 0.037691,0.1463675 0.035137,0.114935 0.039927,0.1205441 0.078849,0.091757 0.02279,-0.016933 0.073685,-0.036759 0.1130935,-0.044027 0.070069,-0.013053 0.07166,-0.015522 0.07166,-0.1234017 0,-0.089817 -0.046433,-0.2726972 -0.079985,-0.3150658 z"
         sodipodi:nodetypes="scssssssssssccssssssssssssssssssssssssssssssssssssssscccscsssscccsssssssssssssssssssssssssccccsccsssssssssssssscccsssssssssccccsssssssssssssssssssccscscsssssssssssscssssssccsccscccssccssssssccssssssccsssssccsssssssscccssssssssssssssssssscssssssscssccscsssscccccsssssscssssssssssssssssss" />
    </g>
  </g>
</svg>
