<?xml version="1.0" encoding="UTF-8" standalone="no"?>
<!-- Created with Inkscape (http://www.inkscape.org/) -->

<svg
   width="18.23262mm"
   height="8.1846199mm"
   viewBox="0 0 18.23262 8.1846201"
   version="1.1"
   id="svg33402"
   sodipodi:docname="inkporter-svg-71kf7czj.svg"
   inkscape:version="1.1.1 (3bf5ae0d25, 2021-09-20)"
   xmlns:inkscape="http://www.inkscape.org/namespaces/inkscape"
   xmlns:sodipodi="http://sodipodi.sourceforge.net/DTD/sodipodi-0.dtd"
   xmlns="http://www.w3.org/2000/svg"
   xmlns:svg="http://www.w3.org/2000/svg">
  <sodipodi:namedview
     id="namedview555"
     pagecolor="#ffffff"
     bordercolor="#666666"
     borderopacity="1.0"
     inkscape:pageshadow="2"
     inkscape:pageopacity="0.0"
     inkscape:pagecheckerboard="0"
     inkscape:document-units="mm"
     showgrid="false"
     inkscape:zoom="2.5097476"
     inkscape:cx="-1212.871"
     inkscape:cy="1547.3668"
     inkscape:window-width="1920"
     inkscape:window-height="1017"
     inkscape:window-x="-8"
     inkscape:window-y="-8"
     inkscape:window-maximized="1"
     inkscape:current-layer="svg33402" />
  <defs
     id="defs14119" />
  <path
     d="m 18.17132,5.64419 0.0613,-0.12803 -0.23645,-0.12525 c 0.007,-10e-4 0.0147,-0.003 0.0205,-0.006 V 5.21249 c -0.0111,-0.004 -0.023,-0.007 -0.0362,-0.007 -0.0521,0 -0.0956,0.0417 -0.0956,0.0931 0,0.0126 0.003,0.0248 0.007,0.0361 L 17.28055,5.00943 c -0.001,-0.15099 -0.0772,-0.28575 -0.19264,-0.3709 0.0242,-0.0536 0.0545,-0.12281 0.0631,-0.14455 0.0144,-0.0364 -0.0818,-0.0732 -0.0818,-0.0732 l 0.1905,-0.28238 -0.0708,-0.11638 c 0,0 -0.20735,0.0138 -0.31026,0.0297 -0.10351,0.0163 -0.13169,0.0775 -0.13169,0.0775 l -0.10995,0.17489 c -0.0312,-0.0264 -0.0704,-0.0429 -0.11486,-0.0429 -0.0965,0 -0.17518,0.0766 -0.17518,0.16968 0,0.0619 0.0343,0.11546 0.0851,0.14547 h -0.0802 l -0.27871,-0.90319 0.22572,-0.0368 -0.0147,-0.0833 -0.23645,0.0389 -0.0441,-0.14241 -0.36446,-0.0226 0.002,-0.0698 -0.27962,-0.0108 -0.003,0.0631 -0.70657,-0.0447 -0.0472,-0.0995 c 0,0 -0.71728,-0.03 -0.71728,-0.0365 0,-0.005 -0.0744,0.0539 -0.10873,0.0818 l -0.0527,-0.004 10e-4,-0.0432 -0.27901,-0.011 -0.002,0.0374 -0.57334,-0.0364 c 0,0 -0.0478,-0.11884 -0.11118,-0.27565 l 1.69185,0.009 0.0162,-1.37486 -1.95861,-0.2245 c 0.006,-0.007 0.0104,-0.0147 0.0104,-0.0239 0,-0.0211 -0.0178,-0.038 -0.0401,-0.038 h -0.004 v -0.0465 h -0.0371 V 1.13316 c 0,0 0.0891,-0.0367 0.0891,-0.15497 0,-0.11853 -0.16017,-0.25513 -0.16017,-0.25513 l 0.0144,-0.21439 -0.038,-0.0367 h -0.76905 v -0.0708 h -0.40857 v 0.0708 h -0.78773 l -0.0349,0.034 v 0.21224 c 0,0 -0.17611,0.14579 -0.17611,0.2781 0,0.098 0.0542,0.13108 0.0818,0.1418 H 9.94736 L 9.90596,0.83214 c 0,0 -0.0281,-0.0364 -0.16723,-0.0364 -0.13813,0 -0.15926,0.041 -0.15926,0.041 L 9.51457,1.26981 H 9.35133 L 7.20007,1.5038 V 0 h -0.0193 v 1.50594 l -0.30749,0.0328 h -0.1317 l -0.0248,0.11761 c -0.0711,0.0324 -0.20183,0.0998 -0.33659,0.21072 0.0695,-0.0925 0.13415,-0.17458 0.13506,-0.17611 0.0199,-0.0242 0.0138,-0.0585 -0.0104,-0.0766 -0.0239,-0.0187 -0.0597,-0.0144 -0.0796,0.0101 -0.006,0.008 -0.16202,0.20643 -0.25084,0.33721 H 5.38637 V 1.93717 H 4.94105 v 0.064 H 4.34259 v -0.0367 h -0.0319 v -0.0211 h -0.087 v 0.0211 h -0.0349 v 0.0367 H 3.73122 l -0.10995,0.0763 -0.69248,0.0361 v 0.30382 l 0.69248,0.0306 0.0946,0.076 h 0.47288 v 0.0303 h -1.2698 v 0.0668 h 0.0294 v 0.0306 H 5.85977 V 2.58189 H 5.24509 V 2.56109 H 5.38628 V 2.54239 H 6.1979 c 0.0438,0.13568 0.0968,0.29862 0.0968,0.29862 0.009,0.0291 0.0407,0.0453 0.0711,0.0364 0.0291,-0.009 0.0466,-0.0398 0.0364,-0.0686 l -0.061,-0.1902 c 0.0328,0.045 0.0766,0.0977 0.13446,0.15896 L 6.39326,3.15765 H 5.97489 l -0.38467,0.041 -0.0995,0.0821 -0.0557,0.005 -0.0423,-0.0407 -0.44808,0.0404 -0.004,-0.0453 -0.66982,0.0566 0.005,0.0493 -0.35435,0.0315 V 3.31785 H 3.85077 V 3.418 h 0.0279 V 3.441 L 3.47806,3.4937 3.47406,3.4877 3.29857,3.5753 3.41709,3.79858 3.40489,3.87148 H 3.30569 L 3.19849,4.02523 H 2.92928 v -0.023 H 2.76481 v 0.0297 L 2.60004,4.01173 v 0.10934 l 0.16477,-0.0291 v 0.0245 h 0.16447 v -0.0184 h 0.25451 v 0.091 H 2.81136 V 4.15757 H 2.69437 v 0.0294 l -0.0894,0.0435 v 0.0226 H 2.52807 C 2.51097,4.05338 2.39392,4.05736 2.39392,4.05736 2.39392,3.90974 2.19454,3.89412 2.12533,3.89259 v -0.0181 h -0.0609 v 0.19632 h -0.249 c -0.14181,0 -0.15988,0.1366 -0.15988,0.1366 h 0.40428 v 0.10046 h 0.13629 v 0.0959 h -0.0756 v 0.0729 h -0.0413 v 0.041 h -0.0242 c 0,0 -0.59693,-0.023 -1.32096,0.22327 l -0.003,0.004 c -3.1e-4,-0.0236 -0.0196,-0.0426 -0.0444,-0.0426 -0.0251,0 -0.0444,0.0196 -0.0444,0.0435 0,0.007 0.002,0.0135 0.005,0.0193 l -0.0809,0.10199 0.0429,0.0324 0.0904,-0.1124 c 3.1e-4,-7e-4 0.001,-7e-4 0.002,-7e-4 L 0,5.7812 H 0.21194 L 0.22514,5.7628 H 0.57122 L 0.55862,5.8173 0.3237,5.8994 c 0,0 -0.1078,0.0683 -0.0603,0.1323 0.0233,0.0319 0.0499,0.0536 0.0796,0.064 V 6.25067 H 0.4043 V 6.10029 c 0.0104,-0.002 0.0214,-0.005 0.0334,-0.01 0.009,-0.004 0.022,-0.009 0.0352,-0.0135 l 0.0548,0.0199 0.0383,0.18223 -0.095,0.0367 0.007,0.079 0.1124,0.0303 0.12527,0.18866 -0.075,0.0603 0.0438,0.079 0.11913,-0.0181 0.13783,0.12771 -0.0438,0.0848 0.0502,0.0732 0.11883,-0.0548 0.20062,0.0971 -0.0122,0.0977 0.0628,0.0484 0.0744,-0.079 0.1758,0.0913 -0.0245,0.10352 0.0873,0.0423 0.0505,-0.0726 0.21286,0.0848 -0.005,0.0977 0.0557,0.0545 0.0747,-0.0668 0.18223,0.0726 -0.0248,0.0974 0.0809,0.0606 0.0634,-0.0668 0.18775,0.0974 -0.019,0.0851 0.0812,0.0423 0.0634,-0.0606 0.20674,0.0916 -0.0312,0.10321 0.0937,0.0487 0.0377,-0.0487 0.20091,0.0603 v 0.0916 l 0.10045,0.0126 0.0306,-0.0616 h 0.24349 l 0.0389,0.0943 h 0.0974 v -0.0943 h 0.22725 l 0.0389,0.0943 h 0.0971 v -0.0943 h 0.24349 l 0.0386,0.0943 h 0.0974 v -0.0943 h 0.23338 l 0.0395,0.0943 h 0.0968 v -0.0943 h 0.22726 l 0.0389,0.0943 h 0.0974 v -0.0943 h 0.24317 l 0.0389,0.0943 h 0.0971 v -0.0943 h 0.24349 l 0.0389,0.0943 h 0.0971 v -0.0943 h 0.22786 l 0.0383,0.0943 h 0.0971 V 8.09032 H 6.4951 l 0.0383,0.0943 h 0.0974 v -0.0943 h 0.24012 l 0.0389,0.0943 h 0.0971 v -0.0943 h 0.22756 l 0.0389,0.0943 h 0.0974 v -0.0943 h 0.24287 l 0.0389,0.0943 h 0.0971 v -0.0943 h 0.23674 l 0.0392,0.0943 h 0.0971 v -0.0943 h 0.22786 l 0.0389,0.0943 h 0.0971 v -0.0943 h 0.24349 l 0.0383,0.0943 h 0.0971 V 8.09032 H 9.1031 l 0.0386,0.0943 h 0.0968 v -0.0943 h 0.22726 l 0.0392,0.0943 h 0.0977 v -0.0943 h 0.24288 l 0.0395,0.0943 h 0.0968 v -0.0943 h 0.23981 l 0.0395,0.0943 h 0.0968 v -0.0943 h 0.22725 l 0.0395,0.0943 h 0.0968 v -0.0943 h 0.24348 l 0.0386,0.0943 h 0.0974 v -0.0943 h 0.24287 l 0.0386,0.0943 h 0.0971 v -0.0943 h 0.22817 l 0.0383,0.0943 h 0.0974 v -0.0943 h 0.24349 l 0.0386,0.0943 h 0.0971 v -0.0943 h 0.23675 l 0.0392,0.0943 h 0.0971 v -0.0943 h 0.22817 l 0.0377,0.0943 h 0.0977 v -0.0943 h 0.24349 l 0.038,0.0943 h 0.0977 v -0.0943 h 0.22419 l 0.0389,0.0943 h 0.0974 v -0.0943 h 0.24318 l 0.0392,0.0943 h 0.0971 v -0.0962 l 0.21561,-0.0282 0.0753,0.0974 0.0815,-0.0122 0.006,-0.10383 0.20735,-0.0481 0.0502,0.0851 0.10658,-0.0245 -0.0128,-0.0793 0.21316,-0.0545 0.0496,0.0851 0.094,-0.0181 0.0126,-0.0851 0.21409,-0.0606 0.0496,0.091 0.10628,-0.0426 -0.006,-0.0729 0.18774,-0.0426 0.0508,0.0726 0.0999,-0.0178 v -0.0851 l 0.21378,-0.0426 0.0371,0.0729 0.094,-0.0184 -0.0126,-0.079 0.21255,-0.0787 0.0631,0.0787 0.0692,-0.0426 0.006,-0.079 0.2003,-0.091 0.0502,0.0545 0.10659,-0.0487 -0.0245,-0.0606 0.13077,-0.1706 0.11945,0.0306 0.0438,-0.0729 -0.0248,-0.0364 0.0557,-0.20704 0.11975,-0.0116 0.0125,-0.0613 -0.0377,-0.0548 0.006,-0.2003 0.1072,-0.0429 v -0.0665 l -0.0879,-0.0242 -0.0505,-0.21316 0.10046,-0.0484 -0.0312,-0.0977 -0.057,0.006 -0.16937,-0.15804 0.057,-0.0851 -0.0438,-0.079 -0.0689,0.0426 -0.18132,-0.13997 0.0303,-0.0756 z M 4.94189,2.55512 H 4.34343 V 2.52482 H 4.94189 Z M 2.2767,4.30792 h 0.0931 v 0.13231 h 0.18836 v 0.0775 H 2.3747 v -0.041 H 2.3376 V 4.40383 H 2.2766 Z M 2.71039,7.74491 2.64119,7.70851 2.68529,7.53791 2.54747,7.45311 2.39065,7.56245 2.32205,7.51985 2.37135,7.35569 2.24057,7.28249 2.08345,7.40439 2.02035,7.36759 2.07765,7.19761 1.93952,7.12471 1.78301,7.22823 l -0.0815,-0.0245 0.0499,-0.17642 0.0879,-0.0184 0.0371,0.079 0.16937,-0.0245 0.01,-0.083 h 0.7326 c -0.0625,0.10169 -0.0995,0.22052 -0.0995,0.34793 0,0.13078 0.0383,0.25237 0.10505,0.35589 z M 2.92508,4.51772 v -0.0551 h 0.38468 l -0.009,0.0551 z m 0.41959,3.48844 h -0.0447 l -0.0101,-0.007 c 0.0187,0.003 0.0374,0.005 0.0557,0.006 z m 0.36447,0 h -0.075 l -0.015,-0.0389 c 0.0426,-0.0144 0.0833,-0.0331 0.1216,-0.0548 z m 0.74884,0 H 4.37708 L 4.31488,7.84537 H 4.14307 l -0.0551,0.16079 h -0.09 L 3.93607,7.84537 H 3.83897 C 3.94371,7.75927 4.02028,7.64476 4.05948,7.51368 h 0.20398 c 0.0417,0.14027 0.12802,0.26186 0.24349,0.34884 z m 0.36354,0 h -0.0744 l -0.0114,-0.0281 c 0.0288,0.008 0.0585,0.0144 0.0885,0.019 z m 0.37978,0 H 5.1106 l -0.008,-0.0202 c 0.0407,-0.01 0.0805,-0.0226 0.11822,-0.0389 z m 0.74209,0 h -0.075 L 5.80709,7.84537 H 5.63467 l -0.0545,0.16079 h -0.091 L 5.42757,7.84537 H 5.38807 C 5.53845,7.72071 5.63463,7.53542 5.63463,7.32838 c 0,-0.12741 -0.0371,-0.24624 -0.10016,-0.34793 h 0.31271 c -0.0631,0.10169 -0.10016,0.22052 -0.10016,0.34793 0,0.20827 0.0974,0.39509 0.24992,0.51913 z m 0.37978,0 h -0.0906 l -0.0141,-0.038 c 0.0349,0.012 0.0711,0.0211 0.10812,0.0276 z m 0.3758,0 h -0.0867 l -0.008,-0.0181 c 0.0389,-0.009 0.0763,-0.0199 0.11272,-0.0346 z M 7.4962,7.84537 7.442,8.00616 H 7.351 L 7.29,7.84537 H 7.11727 L 7.06277,8.00616 H 6.98807 L 6.92557,7.84537 H 6.89827 C 7.00179,7.75927 7.07928,7.64476 7.11787,7.51368 h 0.20551 c 0.0383,0.13108 0.11608,0.24563 0.22051,0.33169 z m 0.31882,0.16079 h -0.0848 l -0.0226,-0.0603 c 0.0368,0.0162 0.075,0.0291 0.11516,0.0389 z m 0.36355,0 h -0.0753 l -0.003,-0.009 c 0.03,-0.004 0.0591,-0.0104 0.0876,-0.0178 z M 8.98499,7.84537 8.93079,8.00616 H 8.84629 L 8.78469,7.84537 H 8.61257 L 8.55807,8.00616 H 8.46747 L 8.41477,7.86926 C 8.58353,7.74552 8.69378,7.54981 8.69378,7.32838 c 0,-0.12741 -0.0361,-0.24624 -0.0998,-0.34793 h 0.31301 c -0.0634,0.10169 -0.10046,0.22052 -0.10046,0.34793 0,0.20704 0.0962,0.39233 0.24686,0.51699 z m 0.30933,0.16079 h -0.0744 l -0.0285,-0.0729 c 0.0358,0.0175 0.0735,0.0325 0.11301,0.0441 z m 0.37917,0 h -0.0904 l -0.002,-0.004 c 0.034,-0.004 0.0671,-0.0104 0.0995,-0.0184 z m 0.59509,-6.83141 v 0.0959 h -0.3023 l -0.0128,-0.0959 z m 0.19876,6.67062 -0.0545,0.16079 h -0.0747 l -0.0616,-0.16079 h -0.17213 l -0.0542,0.16079 H 9.96201 L 9.91331,7.87845 c 0.12557,-0.0885 0.22021,-0.21593 0.264,-0.36477 h 0.20398 c 0.0386,0.13108 0.11639,0.24563 0.22083,0.33169 z m 0.32496,0.16079 h -0.09 L 10.6551,7.88518 c 0.0475,0.0312 0.098,0.0567 0.15191,0.0769 z m 0.37916,0 h -0.09 l -7e-4,-10e-4 c 0.0318,-10e-4 0.0634,-0.005 0.0946,-0.01 z M 11.9693,7.84537 11.9151,8.00616 h -0.091 L 11.7622,7.84537 h -0.17212 l -0.0548,0.16079 h -0.0747 l -0.0389,-0.10199 c 0.19816,-0.11944 0.33108,-0.3323 0.33108,-0.57579 0,-0.12741 -0.0377,-0.24624 -0.0992,-0.34793 h 0.29279 c -0.0625,0.10169 -0.0995,0.22052 -0.0995,0.34793 0,0.20704 0.0962,0.39233 0.24747,0.51699 z m 0.31792,0.16079 h -0.0842 l -0.0429,-0.11271 c 0.0435,0.0281 0.0913,0.0515 0.14211,0.0695 z m 0.36385,0 h -0.0753 l -3e-4,-10e-4 c 0.0269,-10e-4 0.0527,-0.004 0.0793,-0.008 z m 1.1185,0 h -0.0897 l -0.0625,-0.16079 h -0.17152 l -0.0557,0.16079 h -0.0711 l -0.0619,-0.16079 h -0.17213 l -0.0542,0.16079 h -0.0907 l -0.0371,-0.0959 c 0.15099,-0.0876 0.26554,-0.22848 0.31393,-0.39662 h 0.2052 c 0.0551,0.18804 0.19173,0.34241 0.37059,0.42541 z m 0.28882,0 -3.1e-4,-10e-4 c 0.0114,3.1e-4 0.0236,10e-4 0.0355,10e-4 z m 0.0542,0 h -0.0181 c 0.006,0 0.0114,-10e-4 0.0181,-10e-4 z m 0.3513,-0.0487 -0.0631,0.006 -0.009,-0.0233 c 0.0254,-0.0114 0.0502,-0.0245 0.0741,-0.0389 z m 1.74268,-2.21282 c 0.0784,10e-4 0.15437,0.0126 0.2245,0.0331 l -0.0328,0.0766 c 0.0211,0.006 0.0423,0.0122 0.0625,0.0202 l 0.0334,-0.0747 c 0.0689,0.0263 0.13262,0.0622 0.19112,0.10505 L 16.40352,6.17839 16.20658,6.04608 Z M 15.87641,6.6901 15.5539,7.0028 C 15.5073,6.9431 15.4697,6.87876 15.44242,6.80955 Z m 0.042,0.78742 -0.0254,0.19418 h -0.0689 l -0.0879,-0.15191 -0.16294,0.0365 -0.0377,0.18866 -0.0625,0.006 -0.0757,-0.14578 -0.18162,0.012 -0.0245,0.18253 -0.0257,0.0306 -0.0689,-0.0184 -0.0689,-0.13996 -0.16264,0.0242 -0.0377,0.18897 -0.075,0.006 -0.0953,-0.16233 c 0.0851,-0.11178 0.13538,-0.24991 0.13538,-0.39999 0,-0.12741 -0.0367,-0.24624 -0.0992,-0.34793 h 0.13108 L 15.26019,6.8602 c 0.11394,0.30198 0.37856,0.53352 0.70474,0.60886 z m -0.0579,-0.23644 0.0224,-0.0518 c -0.0196,-0.009 -0.0389,-0.0187 -0.0582,-0.0297 l -0.0224,0.053 c -0.0643,-0.0349 -0.12343,-0.0778 -0.17672,-0.12925 -0.0104,-0.0101 -0.0196,-0.0208 -0.0297,-0.0312 l 0.35282,-0.3418 c 0.0487,0.0542 0.11608,0.0925 0.19235,0.10506 v 0.49493 c -0.0986,-0.006 -0.19265,-0.03 -0.28055,-0.0692 m 0.36507,0.33966 -0.0564,0.0242 -0.0588,-0.11332 c 0.0285,0.002 0.0576,0.004 0.0867,0.004 0.0104,0 0.022,-3e-4 0.0328,-0.001 z m 0.3124,-0.3418 -0.0208,-0.0518 c -0.0199,0.009 -0.0404,0.0175 -0.0612,0.0248 l 0.0214,0.0518 c -0.0851,0.0306 -0.17549,0.0481 -0.27075,0.0487 V 6.81999 c 0.0839,-0.002 0.15927,-0.0346 0.21623,-0.0867 l 0.35283,0.34242 c -0.068,0.0677 -0.14885,0.12312 -0.23767,0.16324 M 17.00631,6.5287 c 0,0.0741 -0.0123,0.14579 -0.0315,0.21409 l -0.0619,-0.0261 c -0.006,0.0214 -0.012,0.042 -0.019,0.0619 l 0.06,0.0248 c -0.0324,0.0824 -0.0769,0.15866 -0.13323,0.22512 L 16.46602,6.68517 c 0.038,-0.0524 0.06,-0.11516 0.06,-0.18406 0,-0.008 -3.1e-4,-0.0153 -10e-4,-0.0226 h 0.47809 c 0.001,0.0169 0.003,0.0331 0.003,0.0502 m -0.0821,-0.34058 c 0.0355,0.0701 0.0597,0.14609 0.0717,0.22695 h -0.48207 c -0.002,-0.011 -0.007,-0.0217 -0.011,-0.0319 l -0.0193,-0.15129 -0.0245,-0.0165 0.2781,-0.26952 c 0.0606,0.0536 0.11363,0.11577 0.1559,0.1856 l -0.0723,0.0282 c 0.0116,0.0187 0.023,0.0371 0.0334,0.056 z"
     id="G-PanzerIV-75" />
</svg>
