<?xml version="1.0" encoding="UTF-8" standalone="no"?>
<!-- Created with Inkscape (http://www.inkscape.org/) -->

<svg
   width="27.460459mm"
   height="8.9615498mm"
   viewBox="0 0 27.460458 8.9615503"
   version="1.1"
   id="svg33402"
   sodipodi:docname="inkporter-svg-e7qp_36f.svg"
   inkscape:version="1.1.1 (3bf5ae0d25, 2021-09-20)"
   xmlns:inkscape="http://www.inkscape.org/namespaces/inkscape"
   xmlns:sodipodi="http://sodipodi.sourceforge.net/DTD/sodipodi-0.dtd"
   xmlns="http://www.w3.org/2000/svg"
   xmlns:svg="http://www.w3.org/2000/svg">
  <sodipodi:namedview
     id="namedview555"
     pagecolor="#ffffff"
     bordercolor="#666666"
     borderopacity="1.0"
     inkscape:pageshadow="2"
     inkscape:pageopacity="0.0"
     inkscape:pagecheckerboard="0"
     inkscape:document-units="mm"
     showgrid="false"
     inkscape:zoom="0.32"
     inkscape:cx="889.0625"
     inkscape:cy="4120.3125"
     inkscape:window-width="1920"
     inkscape:window-height="1017"
     inkscape:window-x="-8"
     inkscape:window-y="-8"
     inkscape:window-maximized="1"
     inkscape:current-layer="svg33402" />
  <defs
     id="defs13927" />
  <path
     d="m 25.87998,6.13015 h 1.52718 L 27.46046,6.00526 26.29947,5.48527 26.678,4.61003 26.24797,4.42376 25.87155,5.29371 25.66588,5.20161 h -0.18767 l -0.0893,-0.35736 h 0.17886 L 25.45947,4.42162 25.63656,4.37192 25.57836,4.1659 25.40655,4.2142 25.35325,4.005 24.74154,3.90481 V 3.39787 h -0.13865 v 0.0892 h -0.0445 v -0.0226 h -0.0804 v 0.0226 h -0.0268 v -0.0314 h -0.12453 l 0.055,-0.0713 h 0.1009 V 3.16106 h -0.10301 v -0.0582 h -0.35102 c -0.0607,-0.0377 -0.16086,-0.0624 -0.27375,-0.0624 -0.11324,0 -0.21273,0.0247 -0.27376,0.0624 h -0.32455 v 0.0582 h -0.10725 v 0.22331 h 0.0519 l -0.0875,0.0847 h -0.0628 v -0.0755 h -0.22719 v -0.009 h 0.031 V 3.16126 h -0.10266 v -0.0582 h -0.35172 c -0.0603,-0.0378 -0.16016,-0.0624 -0.2734,-0.0624 -0.11289,0 -0.21272,0.0247 -0.2734,0.0624 h -0.32491 v 0.0582 H 21.32165 V 3.34717 L 20.75438,3.25437 V 3.14784 H 20.48415 L 20.47115,0 20.41785,3.14784 h -0.0388 v 0.0801 h -0.6604 V 3.14784 H 19.55778 V 2.97815 h -0.21449 v 0.16969 h -0.0512 V 3.00708 c 0,-0.0293 -0.024,-0.0536 -0.0536,-0.0536 h -0.43533 c -0.0293,0 -0.0533,0.0243 -0.0533,0.0536 v 0.22084 h -1.2058 V 3.08081 h -0.0533 v 0.14711 h -0.0797 V 3.11079 c 0,-0.0187 -0.0152,-0.0339 -0.0339,-0.0339 h -0.27552 c -0.0183,0 -0.0339,0.0152 -0.0339,0.0339 v 0.11713 h -0.0727 V 3.00708 c 0,-0.0293 -0.024,-0.0536 -0.0536,-0.0536 h -0.43533 c -0.0296,0 -0.0533,0.0243 -0.0533,0.0536 v 0.15875 h -0.0808 V 3.03389 l -0.0737,-0.10725 h -0.127 v 0.18768 h 0.06 v 0.0515 h -1.58468 v 0.0621 h -1.81257 c 0,0 -0.44662,-0.0444 -0.6791,0.27693 0,0 -0.2674,-0.1337 -0.45508,0.0448 -0.18768,0.17851 -0.73202,0.49107 -1.58045,0.67839 v 0.0607 L 0,4.33984 v 0.30833 l 10.11943,0.0508 v 0.0561 l 0.48331,0.16228 V 5.02459 L 10.42529,5.20204 C 9.9906697,5.22674 9.5281797,5.26664 9.3602597,5.32657 l -0.78564,0.82162 0.12488,0.11606 -0.11606,0.14288 c -0.049,0 -0.0892,0.0399 -0.0892,0.0892 0,0.0423 0.0296,0.078 0.0695,0.0871 l -0.13194,0.14499 0.80046,0.51188 -0.0251,0.0198 0.0275,0.0988 c 0,0 0.0377,-0.007 0.0776,-0.0148 0.072,0.0543 0.17039,0.16263 0.17039,0.16263 l -0.0543,0.10795 0.0677,0.0769 c 0,0 0.0723,-0.0522 0.11183,-0.0836 0.0836,0.0332 0.20708,0.11219 0.20708,0.11219 l -0.0236,0.11853 0.085,0.0564 c 0,0 0.0533,-0.0649 0.0836,-0.10654 0.0808,0.0243 0.2324803,0.12135 0.2324803,0.12135 l -0.024,0.11854 0.0854,0.0564 c 0,0 0.0469,-0.0582 0.078,-0.0995 0.0801,0.0378 0.17568,0.0984 0.17568,0.0984 l -0.0243,0.11888 0.0854,0.0561 c 0,0 0.0515,-0.0632 0.0822,-0.10477 0.0811,0.037 0.18238,0.10195 0.18238,0.10195 l -0.024,0.11818 0.085,0.0564 c 0,0 0.049,-0.0593 0.0797,-0.10089 0.0829,0.0356 0.19438,0.10689 0.19438,0.10689 l -0.0243,0.11889 0.0854,0.0557 c 0,0 0.0565,-0.0684 0.0861,-0.10972 0.0825,0.036 0.19438,0.10689 0.19438,0.10689 l -0.024,0.11854 0.085,0.0564 c 0,0 0.0388,-0.0476 0.0691,-0.0871 0.0896,0.007 0.23459,0.0473 0.23459,0.0473 l 0.012,0.12065 0.0977,0.0289 c 0,0 0.0134,-0.0328 0.0275,-0.0691 0.0896,-0.007 0.21555,0.003 0.21555,0.003 l 0.0353,0.11571 0.10125,0.009 c 0,0 0.008,-0.0409 0.0152,-0.0829 0.0889,-0.0173 0.23177,-0.0198 0.23177,-0.0198 l 0.0448,0.11218 h 0.10231 c 0,0 0.005,-0.0462 0.008,-0.091 0.0878,-0.0187 0.23813,-0.0212 0.23813,-0.0212 l 0.0452,0.11218 h 0.10196 c 0,0 0.005,-0.049 0.009,-0.0952 0.0885,-0.0152 0.2159,-0.0169 0.2159,-0.0169 l 0.0452,0.11219 h 0.10195 c 0,0 0.004,-0.0441 0.008,-0.0875 0.085,-0.0222 0.25295,-0.0247 0.25295,-0.0247 l 0.0451,0.11218 h 0.10195 c 0,0 0.005,-0.049 0.009,-0.0952 0.0885,-0.0152 0.21555,-0.0169 0.21555,-0.0169 l 0.0452,0.11218 h 0.1023 c 0,0 0.005,-0.0462 0.008,-0.091 0.0875,-0.0187 0.23777,-0.0212 0.23777,-0.0212 l 0.0452,0.11219 h 0.10195 c 0,0 0.005,-0.049 0.008,-0.0952 0.0889,-0.0152 0.21625,-0.0169 0.21625,-0.0169 l 0.0448,0.11218 h 0.10195 c 0,0 0.005,-0.043 0.008,-0.0861 0.0826,-0.0233 0.25717,-0.0261 0.25717,-0.0261 l 0.0455,0.11218 h 0.10195 c 0,0 0.005,-0.049 0.008,-0.0952 0.0889,-0.0152 0.2159,-0.0169 0.2159,-0.0169 l 0.0452,0.11218 h 0.10195 c 0,0 0.005,-0.0462 0.008,-0.091 0.0878,-0.0187 0.23777,-0.0212 0.23777,-0.0212 l 0.0455,0.11218 h 0.10195 c 0,0 0.005,-0.049 0.008,-0.0952 0.0893,-0.0152 0.21626,-0.0169 0.21626,-0.0169 l 0.0452,0.11218 h 0.10195 c 0,0 0.005,-0.042 0.008,-0.0847 0.0804,-0.0247 0.26176,-0.0275 0.26176,-0.0275 l 0.0448,0.11218 h 0.10231 c 0,0 0.005,-0.049 0.008,-0.0952 0.0889,-0.0152 0.21626,-0.0169 0.21626,-0.0169 l 0.0448,0.11219 h 0.10231 c 0,0 0.005,-0.0462 0.008,-0.091 0.0882,-0.0187 0.23777,-0.0212 0.23777,-0.0212 l 0.0455,0.11218 H 17.797 c 0,0 0.005,-0.049 0.009,-0.0952 0.0882,-0.0152 0.21555,-0.0169 0.21555,-0.0169 l 0.0452,0.11218 h 0.10195 c 0,0 0.005,-0.043 0.008,-0.0861 0.0825,-0.0233 0.25753,-0.0261 0.25753,-0.0261 l 0.0452,0.11219 h 0.10195 c 0,0 0.005,-0.049 0.008,-0.0952 0.0889,-0.0152 0.2159,-0.0169 0.2159,-0.0169 l 0.0452,0.11218 h 0.10231 c 0,0 0.005,-0.0462 0.008,-0.091 0.0882,-0.0187 0.23847,-0.0212 0.23847,-0.0212 l 0.0448,0.11218 h 0.1023 c 0,0 0.005,-0.049 0.008,-0.0953 0.0889,-0.0152 0.2159,-0.0169 0.2159,-0.0169 l 0.0452,0.11219 h 0.1023 c 0,0 0.004,-0.042 0.007,-0.0847 0.0808,-0.0247 0.26211,-0.0275 0.26211,-0.0275 l 0.0452,0.11218 h 0.10195 c 0,0 0.005,-0.049 0.008,-0.0953 0.0889,-0.0152 0.2159,-0.0169 0.2159,-0.0169 l 0.0455,0.11218 h 0.10195 c 0,0 0.005,-0.0462 0.008,-0.091 0.0882,-0.0187 0.23777,-0.0212 0.23777,-0.0212 l 0.0455,0.11218 h 0.10196 c 0,0 0.005,-0.049 0.008,-0.0953 0.0889,-0.0152 0.21626,-0.0169 0.21626,-0.0169 l 0.0448,0.11219 h 0.1023 c 0,0 0.005,-0.0455 0.008,-0.0896 0.0868,-0.0201 0.24341,-0.0226 0.24341,-0.0226 l 0.0452,0.11218 h 0.10231 c 0,0 0.005,-0.049 0.008,-0.0953 0.0889,-0.0152 0.2159,-0.0169 0.2159,-0.0169 l 0.0452,0.11218 h 0.1023 c 0,0 0.005,-0.0462 0.008,-0.091 0.0882,-0.0187 0.23813,-0.0212 0.23813,-0.0212 l 0.0452,0.11219 h 0.10231 c 0,0 0.005,-0.049 0.008,-0.0953 0.0885,-0.0152 0.2159,-0.0169 0.2159,-0.0169 l 0.0451,0.11218 h 0.10231 c 0,0 0.004,-0.0399 0.007,-0.0811 0.0691,-0.0205 0.24094,-0.0282 0.24094,-0.0282 l 0.0332,0.10266 0.1143,-0.0113 0.006,-0.0603 c 0.0314,-0.0134 0.22543,-0.0646 0.22543,-0.0646 l 0.0582,0.0914 0.0959,-0.0109 0.0109,-0.0938 c 0.0226,-0.0176 0.20779,-0.0624 0.20779,-0.0624 l 0.0536,0.0892 0.10054,-0.004 0.009,-0.10301 c 0.0402,-0.0268 0.2166,-0.0557 0.2166,-0.0557 l 0.0603,0.0896 0.0889,-0.018 0.002,-0.10513 c 0.0314,-0.0356 0.22084,-0.0557 0.22084,-0.0557 l 0.0557,0.0892 0.0984,-0.0134 -0.005,-0.11395 c 0.0222,-0.0268 0.22119,-0.049 0.22119,-0.049 l 0.0582,0.0938 0.0956,-0.0247 -0.002,-0.10477 c 0.0314,-0.0222 0.21908,-0.0603 0.21908,-0.0603 l 0.06,0.10054 0.10301,-0.0201 0.006,-0.0938 0.20532,-0.0646 0.067,0.0935 0.0917,-0.0289 0.009,-0.096 c 0.0377,-0.049 0.18274,-0.13441 0.18274,-0.13441 l 0.0963,0.0607 0.0797,-0.0624 -0.0289,-0.0804 c 0.0205,-0.0377 0.13652,-0.19191 0.13652,-0.19191 l 0.0935,0.0381 0.0804,-0.0829 -0.0691,-0.078 c -0.007,-0.049 0.0402,-0.21872 0.0402,-0.21872 l 0.10266,-0.005 0.0314,-0.10054 -0.0582,-0.0399 -0.0515,-0.20779 0.10725,-0.0624 -0.007,-0.0938 -0.06,0.002 -0.12947,-0.22542 0.0734,-0.0938 -0.0377,-0.0804 -0.0871,0.0272 -0.1584,-0.18098 0.0512,-0.0938 -0.0645,-0.0759 -0.0829,0.0427 c -0.0423,-0.002 -0.22542,-0.0783 -0.22542,-0.0783 l 0.008,-0.12629 z m -0.28504,1.27176 0.57749,0.14393 c -0.0649,0.18451 -0.1905,0.34008 -0.35348,0.44274 l -0.27799,-0.5274 c 0.0205,-0.0173 0.0395,-0.0367 0.054,-0.0593 m 0.62653,-0.14006 c 0,0.0466 -0.005,0.0924 -0.012,0.13688 L 25.64011,7.25689 c 3.5e-4,-0.003 0.001,-0.005 0.001,-0.008 0,-0.0268 -0.005,-0.0522 -0.012,-0.0765 l 0.49036,-0.31503 c 0.0646,0.12065 0.1016,0.25858 0.1016,0.40463 M 25.57619,7.02598 25.63829,6.71977 25.45555,6.67217 V 6.40794 c 0.23495,0.0258 0.44097,0.1464 0.58032,0.32244 z m -0.61736,0.83644 -0.0617,0.12171 c -0.054,-0.0349 -0.10442,-0.0755 -0.14922,-0.12171 z m 0.3429,-0.34149 c 0.0194,0.004 0.0392,0.007 0.06,0.007 0.0138,0 0.0268,-0.002 0.0402,-0.004 l 0.28222,0.53481 c -0.0998,0.0406 -0.20849,0.0631 -0.32244,0.0631 -0.11677,0 -0.2286,-0.0233 -0.3302,-0.066 z M 24.60252,3.72398 v 0.15875 l -0.15169,-0.0247 v -0.036 h 0.0402 v -0.0713 h 0.067 V 3.72393 Z M 18.80286,3.00714 h 0.43533 V 3.1479 h -0.0914 V 3.228 h -0.34396 z m -1.70145,0.10372 h 0.27552 V 3.22833 H 17.10141 Z M 16.50592,3.00714 h 0.43533 v 0.22084 h -0.0448 v -0.0621 h -0.39053 z m -4.98475,2.06939 h 0.393 l -0.0716,0.0892 h -0.41098 v -0.0621 h 0.0272 z m -0.36618,0.0272 h 0.1337 v 0.0632 c -0.0642,0.001 -0.21131,0.006 -0.39899,0.013 L 10.72601,5.01624 V 4.95944 Z M 9.6331097,7.5379 c -0.002,-0.006 -0.005,-0.0102 -0.005,-0.0102 l 0.0152,-0.0236 0.0723,0.0459 -0.019,0.0155 z m 0.33372,0.17004 c -0.003,-0.003 -0.005,-0.005 -0.005,-0.005 l 3.5e-4,-0.002 0.1442903,0.0286 -0.0324,0.0265 z M 11.391,8.45442 11.3162,8.42122 11.3142,8.41922 11.3661,8.25271 11.21088,8.1504 11.04966,8.28234 10.99356,8.25764 c -0.006,-0.0116 -0.0138,-0.0194 -0.0138,-0.0194 l 0.0515,-0.16651 -0.15522,-0.10231 -0.16157,0.13194 -0.0505,-0.0222 c -0.005,-0.008 -0.0106,-0.0127 -0.0106,-0.0127 l 0.0519,-0.16651 -0.15522,-0.10231 -0.16122,0.13194 -0.0349,-0.0152 c -0.002,-0.006 -0.006,-0.0102 -0.008,-0.0141 l 0.0681,-0.13793 0.14041,-0.0201 0.10936,0.11818 0.0917,-0.0448 -0.003,-0.0868 h 0.78846 c -0.0388,0.0882 -0.0603,0.18556 -0.0603,0.28786 0,0.11007 0.0258,0.21414 0.0699,0.30727 z m 0.28363,0.17109 c -0.003,-0.0205 -0.019,-0.0346 -0.019,-0.0346 l 0.0243,-0.0776 c 0.0219,0.0233 0.0459,0.0452 0.0706,0.0653 l -0.0342,0.0519 z m 0.36477,0.12242 c 0,-7.1e-4 3.6e-4,-0.002 3.6e-4,-0.003 0.003,-0.0102 0.003,-0.0187 7e-4,-0.0265 0.006,10e-4 0.0124,0.003 0.0187,0.005 l -0.01,0.0236 z m 0.34996,0.0434 c 3.5e-4,-0.0392 -0.042,-0.0497 -0.042,-0.0497 l -0.004,-0.018 c 0.0385,-0.008 0.0759,-0.019 0.11183,-0.0325 l -0.0296,0.0942 z m 0.80222,-0.006 -0.0307,0.005 c -0.008,-0.0314 -0.0448,-0.037 -0.0448,-0.037 l -0.0487,-0.16722 h -0.18592 l -0.0621,0.19932 -0.0515,0.009 c -0.007,-0.0346 -0.0452,-0.0409 -0.0452,-0.0409 l -0.0487,-0.16722 h -0.0307 c 0.0751,-0.0585 0.13829,-0.13123 0.18556,-0.21448 h 0.30833 c 0.0473,0.0833 0.11042,0.15592 0.18591,0.21448 h -0.0699 z m 0.34184,0.0109 c -0.005,-0.0367 -0.0455,-0.043 -0.0455,-0.043 l -0.0236,-0.0818 c 0.0487,0.0226 0.10019,0.0406 0.15452,0.0515 l -0.0194,0.0624 z m 0.4071,-0.006 c -0.008,-0.0314 -0.0451,-0.037 -0.0451,-0.037 l -0.008,-0.0268 c 0.0381,-0.006 0.0748,-0.0159 0.11042,-0.0279 l -0.0272,0.0868 z m 0.79552,-0.005 -0.03,0.005 c -0.009,-0.0314 -0.0455,-0.037 -0.0455,-0.037 l -0.0483,-0.16722 h -0.18591 l -0.0617,0.19932 -0.0515,0.009 c -0.007,-0.0346 -0.0459,-0.0409 -0.0459,-0.0409 l -0.0483,-0.16722 h -0.0131 c 0.17004,-0.13158 0.27975,-0.3376 0.27975,-0.56938 0,-0.0339 -0.003,-0.0674 -0.008,-0.10019 h 0.14958 c -0.005,0.0328 -0.008,0.0663 -0.008,0.10019 0,0.23178 0.10971,0.4378 0.2794,0.56938 h -0.10089 z m 0.34254,0.012 c -0.005,-0.0374 -0.0462,-0.0441 -0.0462,-0.0441 l -0.0286,-0.0991 c 0.0519,0.0275 0.1076,0.0483 0.16616,0.0628 l -0.0215,0.0684 z m 0.41134,-0.007 c -0.008,-0.0314 -0.0448,-0.037 -0.0448,-0.037 l -0.007,-0.0226 c 0.0363,-0.005 0.072,-0.0123 0.10619,-0.0226 l -0.024,0.0773 z m 0.79552,-0.005 -0.0303,0.005 c -0.008,-0.0314 -0.0452,-0.037 -0.0452,-0.037 l -0.0483,-0.16722 h -0.18591 l -0.0621,0.19932 -0.0515,0.009 c -0.006,-0.0346 -0.0455,-0.0409 -0.0455,-0.0409 l -0.0462,-0.1584 c 0.0762,-0.0572 0.14076,-0.12805 0.18909,-0.2099 h 0.3115 c 0.0462,0.0776 0.10619,0.14605 0.1771,0.20109 h -0.1009 z m 0.34219,0.0127 c -0.004,-0.0381 -0.0459,-0.0448 -0.0459,-0.0448 l -0.0289,-0.0991 c 0.0533,0.0282 0.11042,0.0494 0.17039,0.0635 l -0.0208,0.0677 z m 0.41593,-0.008 c -0.008,-0.0314 -0.0452,-0.037 -0.0452,-0.037 l -0.007,-0.0236 c 0.0363,-0.005 0.0723,-0.012 0.10654,-0.0226 l -0.0243,0.0783 z m 0.85725,-0.20426 -0.0617,0.19932 -0.0303,0.005 c -0.008,-0.0314 -0.0452,-0.037 -0.0452,-0.037 L 17.71531,8.58577 H 17.5294 l -0.0617,0.19932 -0.0519,0.009 c -0.006,-0.0346 -0.0455,-0.0409 -0.0455,-0.0409 L 17.3234,8.59197 c 0.17427,-0.13158 0.28751,-0.34007 0.28751,-0.57538 0,-0.0247 -0.001,-0.0494 -0.004,-0.0737 h 0.16404 c -0.002,0.0243 -0.004,0.049 -0.004,0.0737 0,0.23178 0.10972,0.4378 0.2794,0.56939 z m 0.28081,0.21131 c -0.005,-0.0374 -0.0462,-0.0441 -0.0462,-0.0441 l -0.0381,-0.13123 c 0.055,0.0356 0.11501,0.0646 0.17886,0.084 l -0.0243,0.0794 z m 0.41134,-0.007 c -0.008,-0.0314 -0.0452,-0.037 -0.0452,-0.037 l -0.005,-0.0183 c 0.0342,-0.002 0.0681,-0.007 0.10089,-0.0145 l -0.0201,0.0649 z m 0.85725,-0.20425 -0.0617,0.19932 -0.0303,0.005 c -0.008,-0.0314 -0.0452,-0.0371 -0.0452,-0.0371 l -0.0487,-0.16721 h -0.18556 l -0.0621,0.19932 -0.0515,0.009 c -0.007,-0.0346 -0.0455,-0.0409 -0.0455,-0.0409 l -0.0384,-0.13229 c 0.0924,-0.0603 0.16968,-0.14111 0.22613,-0.23601 h 0.31115 c 0.0462,0.0776 0.10653,0.14605 0.17744,0.20108 z m 0.28045,0.21202 c -0.004,-0.0381 -0.0459,-0.0448 -0.0459,-0.0448 l -0.0381,-0.13124 c 0.0564,0.0367 0.11748,0.0653 0.18309,0.085 l -0.0247,0.0783 z m 0.41593,-0.008 c -0.008,-0.0314 -0.0448,-0.037 -0.0448,-0.037 l -0.005,-0.0183 c 0.0346,-0.003 0.0681,-0.008 0.1009,-0.0155 l -0.0201,0.066 z m 1.13771,0.005 c -0.006,-0.0353 -0.0459,-0.0416 -0.0459,-0.0416 L 21.1901,8.58594 h -0.18592 l -0.0621,0.19932 -0.03,0.005 c -0.008,-0.0314 -0.0455,-0.037 -0.0455,-0.037 l -0.0483,-0.16722 h -0.18592 l -0.0617,0.19932 -0.0515,0.009 c -0.007,-0.0346 -0.0455,-0.0409 -0.0455,-0.0409 L 20.43416,8.6187 c 0.19544,-0.12912 0.32456,-0.34996 0.32456,-0.60184 0,-0.0159 -0.001,-0.0314 -0.002,-0.0469 h 0.17004 c -0.001,0.0155 -0.002,0.031 -0.002,0.0469 0,0.30198 0.18556,0.56021 0.44873,0.66746 l -0.031,0.10124 z m 0.39828,-0.005 c -0.008,-0.0314 -0.0452,-0.037 -0.0452,-0.037 l -0.005,-0.0159 c 0.004,0 0.008,3.6e-4 0.012,3.6e-4 0.0282,0 0.0568,-0.002 0.0843,-0.005 l -0.0162,0.0529 z m 1.13771,0.006 c -0.005,-0.037 -0.0459,-0.0434 -0.0459,-0.0434 l -0.0483,-0.16722 h -0.18627 l -0.0617,0.19932 -0.0303,0.005 c -0.008,-0.0314 -0.0452,-0.037 -0.0452,-0.037 l -0.0483,-0.16722 h -0.18591 l -0.0621,0.19932 -0.0515,0.009 c -0.007,-0.0346 -0.0455,-0.0409 -0.0455,-0.0409 l -0.0286,-0.0988 c 0.10795,-0.0571 0.20003,-0.14076 0.26705,-0.24271 h 0.34361 c 0.0716,0.10901 0.1718,0.19685 0.28998,0.254 l -0.0134,0.1143 z m 2.24014,-0.40498 -0.0469,-0.0201 -0.0716,-0.1584 -0.18521,0.0402 -0.0222,0.19403 -0.0427,0.036 -0.0444,-0.0201 -0.0783,-0.16087 -0.18309,0.0381 -0.0265,0.19861 -0.0381,0.0247 -0.0423,-0.0113 -0.0804,-0.15839 -0.19191,0.0265 -0.0226,0.20355 -0.0332,0.0222 -0.0515,-0.009 -0.11501,-0.20779 c 0.0822,-0.11712 0.13088,-0.25929 0.13088,-0.4131 0,-0.0529 -0.006,-0.10442 -0.0173,-0.15416 h 0.64029 c 0.13935,0.1912 0.34325,0.33161 0.57997,0.38946 l -0.0222,0.11078 z"
     id="G-PanzerIV-70" />
</svg>
