<?xml version="1.0" encoding="UTF-8" standalone="no"?>
<!-- Created with Inkscape (http://www.inkscape.org/) -->

<svg
   width="18.310789mm"
   height="8.7314672mm"
   viewBox="0 0 18.310789 8.7314672"
   version="1.1"
   id="svg1"
   sodipodi:docname="inkporter-svg-d2bny7s6.svg"
   xmlns:inkscape="http://www.inkscape.org/namespaces/inkscape"
   xmlns:sodipodi="http://sodipodi.sourceforge.net/DTD/sodipodi-0.dtd"
   xmlns="http://www.w3.org/2000/svg"
   xmlns:svg="http://www.w3.org/2000/svg">
  <sodipodi:namedview
     id="namedview1"
     pagecolor="#ffffff"
     bordercolor="#666666"
     borderopacity="1.0"
     inkscape:showpageshadow="2"
     inkscape:pageopacity="0.0"
     inkscape:pagecheckerboard="0"
     inkscape:deskcolor="#d1d1d1"
     inkscape:document-units="mm"
     inkscape:zoom="5.822615"
     inkscape:cx="302.61317"
     inkscape:cy="628.66942"
     inkscape:window-width="1920"
     inkscape:window-height="1017"
     inkscape:window-x="-8"
     inkscape:window-y="-8"
     inkscape:window-maximized="1"
     inkscape:current-layer="layer1" />
  <defs
     id="defs1" />
  <g
     inkscape:label="Layer 1"
     inkscape:groupmode="layer"
     id="layer1"
     transform="translate(-59.193897,-165.18071)">
    <g
       id="G-PanzerIV"
       transform="matrix(0.30760478,0,0,-0.32673977,77.443166,171.20122)">
      <path
         d="m 0,0 0.2,0.418 -0.772,0.409 c 0.024,0.004 0.048,0.01 0.067,0.018 V 1.408 C -0.541,1.422 -0.58,1.43 -0.623,1.43 c -0.17,0 -0.312,-0.136 -0.312,-0.304 0,-0.041 0.01,-0.081 0.024,-0.118 L -2.907,2.07 c -0.005,0.493 -0.252,0.933 -0.629,1.211 0.079,0.175 0.178,0.401 0.206,0.472 0.047,0.119 -0.267,0.239 -0.267,0.239 l 0.622,0.922 -0.231,0.38 c 0,0 -0.677,-0.045 -1.013,-0.097 -0.338,-0.053 -0.43,-0.253 -0.43,-0.253 L -5.008,4.373 c -0.102,0.086 -0.23,0.14 -0.375,0.14 -0.315,0 -0.572,-0.25 -0.572,-0.554 0,-0.202 0.112,-0.377 0.278,-0.475 h -0.262 l -0.91,2.949 0.737,0.12 -0.048,0.272 -0.772,-0.127 -0.144,0.465 -1.19,0.074 0.007,0.228 -0.913,0.035 -0.009,-0.206 -2.307,0.146 -0.154,0.325 c 0,0 -2.342,0.098 -2.342,0.119 0,0.017 -0.243,-0.176 -0.355,-0.267 l -0.172,0.012 0.004,0.141 -0.911,0.036 -0.007,-0.122 -1.872,0.119 c 0,0 -0.156,0.388 -0.363,0.9 l 5.524,-0.029 0.053,4.489 -6.395,0.733 c 0.02,0.022 0.034,0.048 0.034,0.078 0,0.069 -0.058,0.124 -0.131,0.124 h -0.013 v 0.152 h -0.121 v 0.476 c 0,0 0.291,0.12 0.291,0.506 0,0.387 -0.523,0.833 -0.523,0.833 l 0.047,0.7 -0.124,0.12 h -2.511 v 0.231 h -1.334 v -0.231 h -2.572 l -0.114,-0.111 v -0.693 c 0,0 -0.575,-0.476 -0.575,-0.908 0,-0.32 0.177,-0.428 0.267,-0.463 h -0.992 l -0.135,0.999 c 0,0 -0.092,0.119 -0.546,0.119 -0.451,0 -0.52,-0.134 -0.52,-0.134 l -0.212,-1.414 h -0.533 l -7.024,-0.764 v 4.91 h -0.063 v -4.917 l -1.004,-0.107 h -0.43 l -0.081,-0.384 c -0.232,-0.106 -0.659,-0.326 -1.099,-0.688 0.227,0.302 0.438,0.57 0.441,0.575 0.065,0.079 0.045,0.191 -0.034,0.25 -0.078,0.061 -0.195,0.047 -0.26,-0.033 -0.02,-0.027 -0.529,-0.674 -0.819,-1.101 h -2.573 v 0.08 h -1.454 v -0.209 h -1.954 v 0.12 h -0.104 v 0.069 h -0.284 v -0.069 h -0.114 v -0.12 h -1.494 l -0.359,-0.249 -2.261,-0.118 v -0.992 l 2.261,-0.1 0.309,-0.248 h 1.544 v -0.099 h -4.146 V 9.868 h 0.096 v -0.1 h 9.506 v 0.228 h -2.007 v 0.068 h 0.461 v 0.061 h 2.65 c 0.143,-0.443 0.316,-0.975 0.316,-0.975 0.03,-0.095 0.133,-0.148 0.232,-0.119 0.095,0.03 0.152,0.13 0.119,0.224 l -0.199,0.621 c 0.107,-0.147 0.25,-0.319 0.439,-0.519 l -0.269,-1.241 h -1.366 L -41.075,7.982 -41.4,7.714 -41.582,7.699 -41.72,7.832 -43.183,7.7 l -0.013,0.148 -2.187,-0.185 0.015,-0.161 -1.157,-0.103 v 0.195 h -0.231 V 7.267 h 0.091 V 7.192 l -1.308,-0.172 -0.013,0.021 -0.573,-0.286 0.387,-0.729 -0.04,-0.238 h -0.324 l -0.35,-0.502 h -0.879 v 0.075 h -0.537 V 5.264 L -50.84,5.33 V 4.973 l 0.538,0.095 v -0.08 h 0.537 v 0.06 h 0.831 V 4.751 h -1.216 v 0.103 h -0.382 V 4.758 L -50.824,4.616 V 4.542 h -0.251 c -0.056,0.652 -0.438,0.639 -0.438,0.639 0,0.482 -0.651,0.533 -0.877,0.538 v 0.059 h -0.199 V 5.137 h -0.813 c -0.463,0 -0.522,-0.446 -0.522,-0.446 h 1.32 V 4.363 h 0.445 V 4.05 h -0.247 V 3.812 h -0.135 V 3.678 h -0.079 c 0,0 -1.949,0.075 -4.313,-0.729 l -0.009,-0.012 c -10e-4,0.077 -0.064,0.139 -0.145,0.139 -0.082,0 -0.145,-0.064 -0.145,-0.142 0,-0.024 0.007,-0.044 0.017,-0.063 l -0.264,-0.333 0.14,-0.106 0.295,0.367 c 10e-4,0.002 0.004,0.002 0.008,0.002 l -2.291,-3.248 h 0.692 l 0.043,0.06 h 1.13 l -0.041,-0.178 -0.767,-0.268 c 0,0 -0.352,-0.223 -0.197,-0.432 0.076,-0.104 0.163,-0.175 0.26,-0.209 V -1.98 h 0.2 v 0.491 c 0.034,0.007 0.07,0.015 0.109,0.031 0.029,0.014 0.072,0.029 0.115,0.044 l 0.179,-0.065 0.125,-0.595 -0.31,-0.12 0.023,-0.258 0.367,-0.099 0.409,-0.616 -0.245,-0.197 0.143,-0.258 0.389,0.059 0.45,-0.417 -0.143,-0.277 0.164,-0.239 0.388,0.179 0.655,-0.317 -0.04,-0.319 0.205,-0.158 0.243,0.258 0.574,-0.298 -0.08,-0.338 0.285,-0.138 0.165,0.237 0.695,-0.277 -0.018,-0.319 0.182,-0.178 0.244,0.218 0.595,-0.237 -0.081,-0.318 0.264,-0.198 0.207,0.218 0.613,-0.318 -0.062,-0.278 0.266,-0.138 0.206,0.198 0.675,-0.299 -0.102,-0.337 0.306,-0.159 0.123,0.159 0.656,-0.197 v -0.299 l 0.328,-0.041 0.1,0.201 h 0.795 l 0.127,-0.308 h 0.318 v 0.308 h 0.742 l 0.127,-0.308 h 0.317 v 0.308 h 0.795 l 0.126,-0.308 h 0.318 v 0.308 h 0.762 l 0.129,-0.308 h 0.316 v 0.308 h 0.742 l 0.127,-0.308 h 0.318 v 0.308 h 0.794 l 0.127,-0.308 h 0.317 v 0.308 h 0.796 l 0.126,-0.308 h 0.317 v 0.308 h 0.744 l 0.125,-0.308 h 0.317 v 0.308 h 0.796 l 0.125,-0.308 h 0.318 v 0.308 h 0.784 l 0.127,-0.308 h 0.317 v 0.308 h 0.743 l 0.127,-0.308 h 0.318 v 0.308 h 0.793 l 0.127,-0.308 h 0.317 v 0.308 h 0.773 l 0.128,-0.308 h 0.317 v 0.308 h 0.744 l 0.127,-0.308 h 0.317 v 0.308 h 0.795 l 0.125,-0.308 h 0.317 v 0.308 h 0.776 l 0.126,-0.308 h 0.316 v 0.308 h 0.742 l 0.128,-0.308 h 0.319 v 0.308 h 0.793 l 0.129,-0.308 h 0.316 v 0.308 h 0.783 l 0.129,-0.308 h 0.316 v 0.308 h 0.742 l 0.129,-0.308 h 0.316 v 0.308 h 0.795 l 0.126,-0.308 h 0.318 v 0.308 h 0.793 l 0.126,-0.308 h 0.317 v 0.308 h 0.745 l 0.125,-0.308 h 0.318 v 0.308 h 0.795 l 0.126,-0.308 h 0.317 v 0.308 h 0.773 l 0.128,-0.308 h 0.317 v 0.308 h 0.745 l 0.123,-0.308 h 0.319 v 0.308 h 0.795 l 0.124,-0.308 h 0.319 v 0.308 h 0.732 l 0.127,-0.308 h 0.318 v 0.308 h 0.794 l 0.128,-0.308 h 0.317 v 0.314 l 0.704,0.092 0.246,-0.318 0.266,0.04 0.021,0.339 0.677,0.157 0.164,-0.278 0.348,0.08 -0.042,0.259 0.696,0.178 0.162,-0.278 0.307,0.059 0.041,0.278 0.699,0.198 0.162,-0.297 0.347,0.139 -0.019,0.238 0.613,0.139 0.166,-0.237 0.326,0.058 v 0.278 l 0.698,0.139 0.121,-0.238 0.307,0.06 -0.041,0.258 0.694,0.257 0.206,-0.257 0.226,0.139 0.02,0.258 0.654,0.297 0.164,-0.178 0.348,0.159 -0.08,0.198 0.427,0.557 0.39,-0.1 0.143,0.238 -0.081,0.119 0.182,0.676 0.391,0.038 0.041,0.2 -0.123,0.179 0.019,0.654 0.35,0.14 v 0.217 l -0.287,0.079 -0.165,0.696 0.328,0.158 -0.102,0.319 -0.186,-0.02 -0.553,0.516 0.186,0.278 -0.143,0.258 L -3.57,-0.704 -4.162,-0.247 -4.063,0 Z m -43.195,10.086 h -1.953 v 0.099 h 1.953 z m -8.702,-5.723 h 0.304 V 3.931 h 0.615 V 3.678 h -0.599 v 0.134 h -0.121 V 4.05 h -0.199 z m 1.416,-11.222 -0.226,0.119 0.144,0.557 -0.45,0.277 -0.512,-0.357 -0.224,0.139 0.161,0.536 -0.427,0.239 -0.513,-0.398 -0.206,0.12 0.187,0.555 -0.451,0.238 -0.511,-0.338 -0.266,0.08 0.163,0.576 0.287,0.06 0.121,-0.258 0.553,0.08 0.032,0.271 h 2.392 c -0.204,-0.332 -0.325,-0.72 -0.325,-1.136 0,-0.427 0.125,-0.824 0.343,-1.162 z m 0.701,10.537 v 0.18 h 1.256 l -0.029,-0.18 z m 1.37,-11.39 h -0.146 l -0.033,0.024 c 0.061,-0.009 0.122,-0.015 0.182,-0.018 z m 1.19,0 h -0.245 l -0.049,0.127 c 0.139,0.047 0.272,0.108 0.397,0.179 z m 2.445,0 h -0.264 l -0.203,0.525 h -0.561 l -0.18,-0.525 h -0.294 l -0.202,0.525 h -0.317 c 0.342,0.281 0.592,0.655 0.72,1.083 h 0.666 c 0.136,-0.458 0.418,-0.855 0.795,-1.139 z m 1.187,0 h -0.243 l -0.037,0.092 c 0.094,-0.026 0.191,-0.047 0.289,-0.062 z m 1.24,0 h -0.296 l -0.027,0.066 c 0.133,0.032 0.263,0.074 0.386,0.127 z m 2.423,0 h -0.245 l -0.2,0.525 h -0.563 l -0.178,-0.525 h -0.297 l -0.201,0.525 h -0.129 c 0.491,0.407 0.805,1.012 0.805,1.688 0,0.416 -0.121,0.804 -0.327,1.136 h 1.021 c -0.206,-0.332 -0.327,-0.72 -0.327,-1.136 0,-0.68 0.318,-1.29 0.816,-1.695 z m 1.24,0 h -0.296 l -0.046,0.124 c 0.114,-0.039 0.232,-0.069 0.353,-0.09 z m 1.227,0 h -0.283 l -0.025,0.059 c 0.127,0.028 0.249,0.065 0.368,0.113 z m 2.603,0.525 -0.177,-0.525 h -0.297 l -0.199,0.525 h -0.564 l -0.178,-0.525 h -0.244 l -0.204,0.525 h -0.089 c 0.338,0.281 0.591,0.655 0.717,1.083 h 0.671 c 0.125,-0.428 0.378,-0.802 0.72,-1.083 z m 1.041,-0.525 h -0.277 l -0.074,0.197 c 0.12,-0.053 0.245,-0.095 0.376,-0.127 z m 1.187,0 h -0.246 l -0.009,0.028 c 0.098,0.013 0.193,0.034 0.286,0.058 z m 2.633,0.525 -0.177,-0.525 h -0.276 l -0.201,0.525 h -0.562 l -0.178,-0.525 h -0.296 l -0.172,0.447 c 0.551,0.404 0.911,1.043 0.911,1.766 0,0.416 -0.118,0.804 -0.326,1.136 h 1.022 c -0.207,-0.332 -0.328,-0.72 -0.328,-1.136 0,-0.676 0.314,-1.281 0.806,-1.688 z m 1.01,-0.525 h -0.243 l -0.093,0.238 c 0.117,-0.057 0.24,-0.106 0.369,-0.144 z m 1.238,0 h -0.295 l -0.006,0.013 c 0.111,0.012 0.219,0.034 0.325,0.06 z m 1.943,22.305 V 14.28 h -0.987 l -0.042,0.313 z m 0.649,-21.78 -0.178,-0.525 h -0.244 l -0.201,0.525 h -0.562 l -0.177,-0.525 h -0.288 l -0.159,0.417 c 0.41,0.289 0.719,0.705 0.862,1.191 h 0.666 c 0.126,-0.428 0.38,-0.802 0.721,-1.083 z m 1.061,-0.525 h -0.294 l -0.154,0.395 c 0.155,-0.102 0.32,-0.185 0.496,-0.251 z m 1.238,0 h -0.294 l -0.002,0.004 c 0.104,0.004 0.207,0.015 0.309,0.031 z m 2.605,0.525 -0.177,-0.525 h -0.297 l -0.202,0.525 h -0.562 l -0.179,-0.525 h -0.244 l -0.127,0.333 c 0.647,0.39 1.081,1.085 1.081,1.88 0,0.416 -0.123,0.804 -0.324,1.136 h 0.956 c -0.204,-0.332 -0.325,-0.72 -0.325,-1.136 0,-0.676 0.314,-1.281 0.808,-1.688 z m 1.038,-0.525 h -0.275 l -0.14,0.368 c 0.142,-0.092 0.298,-0.168 0.464,-0.227 z m 1.188,0 h -0.246 l -0.001,0.005 c 0.088,0.003 0.172,0.013 0.259,0.025 z m 3.652,0 h -0.293 l -0.204,0.525 h -0.56 l -0.182,-0.525 h -0.232 l -0.202,0.525 h -0.562 l -0.177,-0.525 h -0.296 l -0.121,0.313 c 0.493,0.286 0.867,0.746 1.025,1.295 h 0.67 c 0.18,-0.614 0.626,-1.118 1.21,-1.389 z m 0.943,0 -10e-4,0.005 c 0.037,-0.001 0.077,-0.005 0.116,-0.005 z m 0.177,0 h -0.059 c 0.02,0 0.037,0.003 0.059,0.003 z m 1.147,0.159 -0.206,-0.02 -0.028,0.076 c 0.083,0.037 0.164,0.08 0.242,0.127 z m 5.69,7.225 c 0.256,-0.003 0.504,-0.041 0.733,-0.108 l -0.107,-0.25 c 0.069,-0.018 0.138,-0.04 0.204,-0.066 l 0.109,0.244 c 0.225,-0.086 0.433,-0.203 0.624,-0.343 l -0.92,-0.893 -0.643,0.432 z m -1.078,-3.087 -1.053,-1.021 c -0.152,0.195 -0.275,0.405 -0.364,0.631 z m 0.137,-2.571 -0.083,-0.634 h -0.225 l -0.287,0.496 -0.532,-0.119 -0.123,-0.616 -0.204,-0.019 -0.247,0.476 -0.593,-0.039 -0.08,-0.596 -0.084,-0.1 -0.225,0.06 -0.225,0.457 -0.531,-0.079 -0.123,-0.617 -0.245,-0.019 -0.311,0.53 c 0.278,0.365 0.442,0.816 0.442,1.306 0,0.416 -0.12,0.804 -0.324,1.136 h 0.428 l 1.423,0.394 c 0.372,-0.986 1.236,-1.742 2.301,-1.988 z m -0.189,0.772 0.073,0.169 c -0.064,0.03 -0.127,0.061 -0.19,0.097 l -0.073,-0.173 c -0.21,0.114 -0.403,0.254 -0.577,0.422 -0.034,0.033 -0.064,0.068 -0.097,0.102 l 1.152,1.116 c 0.159,-0.177 0.379,-0.302 0.628,-0.343 V -5.44 c -0.322,0.02 -0.629,0.098 -0.916,0.226 m 1.192,-1.109 -0.184,-0.079 -0.192,0.37 c 0.093,-0.008 0.188,-0.013 0.283,-0.013 0.034,0 0.072,0.001 0.107,0.003 z m 1.02,1.116 -0.068,0.169 c -0.065,-0.03 -0.132,-0.057 -0.2,-0.081 l 0.07,-0.169 c -0.278,-0.1 -0.573,-0.157 -0.884,-0.159 v 1.608 c 0.274,0.007 0.52,0.113 0.706,0.283 l 1.152,-1.118 c -0.222,-0.221 -0.486,-0.402 -0.776,-0.533 m 1.529,2.319 c 0,-0.242 -0.04,-0.476 -0.103,-0.699 l -0.202,0.085 c -0.019,-0.07 -0.039,-0.137 -0.062,-0.202 l 0.196,-0.081 C -4.081,-4.054 -4.226,-4.303 -4.41,-4.52 l -1.158,1.121 c 0.124,0.171 0.196,0.376 0.196,0.601 0,0.025 -0.001,0.05 -0.003,0.074 h 1.561 c 0.004,-0.055 0.01,-0.108 0.01,-0.164 m -0.268,1.112 c 0.116,-0.229 0.195,-0.477 0.234,-0.741 h -1.574 c -0.008,0.036 -0.022,0.071 -0.036,0.104 l -0.063,0.494 -0.08,0.054 0.908,0.88 c 0.198,-0.175 0.371,-0.378 0.509,-0.606 L -4.41,-1.683 c 0.038,-0.061 0.075,-0.121 0.109,-0.183 z"
         style="fill:#000000;fill-opacity:1;fill-rule:nonzero;stroke:none"
         id="path171168-8-3" />
    </g>
  </g>
</svg>
