<?xml version="1.0" encoding="UTF-8" standalone="no"?>
<!-- Created with Inkscape (http://www.inkscape.org/) -->

<svg
   width="22.500719mm"
   height="10.51168mm"
   viewBox="0 0 22.500719 10.51168"
   version="1.1"
   id="svg33402"
   sodipodi:docname="inkporter-svg-e7qp_36f.svg"
   inkscape:version="1.1.1 (3bf5ae0d25, 2021-09-20)"
   xmlns:inkscape="http://www.inkscape.org/namespaces/inkscape"
   xmlns:sodipodi="http://sodipodi.sourceforge.net/DTD/sodipodi-0.dtd"
   xmlns="http://www.w3.org/2000/svg"
   xmlns:svg="http://www.w3.org/2000/svg">
  <sodipodi:namedview
     id="namedview555"
     pagecolor="#ffffff"
     bordercolor="#666666"
     borderopacity="1.0"
     inkscape:pageshadow="2"
     inkscape:pageopacity="0.0"
     inkscape:pagecheckerboard="0"
     inkscape:document-units="mm"
     showgrid="false"
     inkscape:zoom="0.32"
     inkscape:cx="889.0625"
     inkscape:cy="4120.3125"
     inkscape:window-width="1920"
     inkscape:window-height="1017"
     inkscape:window-x="-8"
     inkscape:window-y="-8"
     inkscape:window-maximized="1"
     inkscape:current-layer="svg33402" />
  <defs
     id="defs13927" />
  <path
     d="m 19.82864,9.97949 c 0.4506,-0.16537 1.01423,-0.41204 1.43041,-0.63666 -0.57881,-0.003 -1.04596,-0.47404 -1.04596,-1.0542 0,-0.0551 0.004,-0.10749 0.0109,-0.15985 l -0.50161,0.42581 c 0.20672,0.19155 0.33764,0.46578 0.33764,0.77033 0,0.24804 -0.0868,0.47542 -0.23153,0.65457 M 17.213,10.16965 h 1.19062 C 18.14317,9.97949 17.97366,9.67218 17.97366,9.32492 c 0,-0.0179 0,-0.0358 0,-0.0537 l -0.33211,0.0455 c 0,0.35553 -0.16951,0.66284 -0.42993,0.853 m -2.37712,0 h 1.14928 C 15.72332,9.97956 15.55381,9.67225 15.55381,9.32499 c 0,-0.0386 0.004,-0.0772 0.007,-0.11438 h -0.30314 c 0.004,0.0372 0.007,0.0758 0.007,0.11438 0,0.34726 -0.16951,0.65457 -0.42996,0.84473 m -2.41847,0 h 1.19062 C 13.34644,9.97956 13.17693,9.67225 13.17693,9.32499 l -0.3321,0.0703 c -0.0219,0.31832 -0.18468,0.59669 -0.42859,0.77445 M 9.6408997,9.31812 C 10.0171,9.53584 10.55315,9.80732 10.99412,9.98509 10.84804,9.80456 10.75984,9.57443 10.75984,9.32501 c 0,-0.14332 0.0289,-0.27975 0.0813,-0.40377 L 10.56967,8.77655 c -0.14471,0.32108 -0.46577,0.5457 -0.8420103,0.5457 -0.0289,0 -0.0578,-0.001 -0.0868,-0.004 m 6.1625703,-7.45519 -0.67938,0.9605 0.38033,0.0579 0.58293,-0.50712 V 1.86309 Z M 15.33628,3.02888 14.82504,2.95038 15.59398,1.86311 H 13.58065 V 1.10795 h 2.50666 V 0.93431 H 13.58065 V 0.17777 h 2.94901 V 0 h 2.26137 v 1.99678 h -1.75288 v 0.43546 l 1.33255,1.1424 h 1.4883 l 1.52823,2.85942 0.15572,0.0758 0.13504,-0.51814 0.48786,0.13504 -0.091,0.24116 -0.28523,-0.0634 -0.0606,0.2949 0.7717,0.37207 h -0.91228 l -0.0896,0.0758 c 1.06387,0.17915 1.20717,1.42765 0.55259,2.1649 -0.38721,0.43546 -2.43635,1.29949 -2.9035,1.29949 h -7.4979 c -0.61461,0 -2.4350203,-0.98254 -2.6954703,-1.2485 -0.28247,-0.28663 -0.36241,-0.64355 -0.36241,-0.92053 0,-0.10887 0.0247,-0.2384 0.0716,-0.35278 h -3.40512 c 0.0606,0.17363 0.0923,0.35967 0.0923,0.55397 0,0.94258 -0.7648197,1.70739 -1.7073697,1.70739 -0.94121,0 -1.70604,-0.76481 -1.70604,-1.70739 0,-0.38172 0.12404,-0.73449 0.33624,-1.01837 H 0.68763 L 0.4644,6.21634 0.21911,6.32796 0.0441,6.03719 0,5.61689 0.12954,5.32612 0.44235,5.37162 0.55397,5.19247 0.19706,5.0712 V 4.86174 h 0.59806 l 0.13367,-0.50987 4.7280697,-0.53606 0.99632,-1.48277 3.0427,-0.0234 0.9301703,1.42213 h 0.31281 V 3.55263 h 0.44235 v 0.17914 h 1.72946 V 3.50853 h 0.42442 v 0.22324 h 0.99769 z m 0,0"
     id="G-Panzerwerfer-42" />
</svg>
