<?xml version="1.0" encoding="UTF-8" standalone="no"?>
<!-- Created with Inkscape (http://www.inkscape.org/) -->

<svg
   width="20.36647mm"
   height="8.1568403mm"
   viewBox="0 0 20.36647 8.1568408"
   version="1.1"
   id="svg33402"
   sodipodi:docname="inkporter-svg-e7qp_36f.svg"
   inkscape:version="1.1.1 (3bf5ae0d25, 2021-09-20)"
   xmlns:inkscape="http://www.inkscape.org/namespaces/inkscape"
   xmlns:sodipodi="http://sodipodi.sourceforge.net/DTD/sodipodi-0.dtd"
   xmlns="http://www.w3.org/2000/svg"
   xmlns:svg="http://www.w3.org/2000/svg">
  <sodipodi:namedview
     id="namedview555"
     pagecolor="#ffffff"
     bordercolor="#666666"
     borderopacity="1.0"
     inkscape:pageshadow="2"
     inkscape:pageopacity="0.0"
     inkscape:pagecheckerboard="0"
     inkscape:document-units="mm"
     showgrid="false"
     inkscape:zoom="0.32"
     inkscape:cx="889.0625"
     inkscape:cy="4120.3125"
     inkscape:window-width="1920"
     inkscape:window-height="1017"
     inkscape:window-x="-8"
     inkscape:window-y="-8"
     inkscape:window-maximized="1"
     inkscape:current-layer="svg33402" />
  <defs
     id="defs13927" />
  <path
     d="m 20.12933,5.37165 c 0.007,-0.003 0.0147,-0.003 0.0202,-0.006 V 5.19391 c -0.0105,-0.004 -0.0229,-0.007 -0.0358,-0.007 -0.0519,0 -0.0953,0.0417 -0.0953,0.093 0,0.0122 0.003,0.0247 0.007,0.0358 L 19.41625,4.9917 c -0.003,-0.15029 -0.0763,-0.28465 -0.19142,-0.36934 0.0241,-0.0537 0.054,-0.12284 0.0628,-0.1443 0.0139,-0.0362 -0.0818,-0.0727 -0.0818,-0.0727 l 0.1897,-0.28147 -0.0704,-0.11609 c 0,0 -0.20614,0.0139 -0.30902,0.0299 -0.10287,0.0159 -0.1311,0.0771 -0.1311,0.0771 l -0.10962,0.17416 c -0.0312,-0.0261 -0.0704,-0.0425 -0.11425,-0.0425 -0.0961,0 -0.17453,0.0759 -0.17453,0.16896 0,0.0616 0.0337,0.11489 0.0847,0.14472 h -0.0801 l -0.27738,-0.89966 0.22429,-0.0366 -0.0145,-0.0831 -0.23566,0.0385 -0.0439,-0.14194 -0.36295,-0.0227 0.003,-0.0692 -0.27868,-0.0108 -0.003,0.0628 -0.70363,-0.0445 -0.0472,-0.0994 c 0,0 -0.71458,-0.0298 -0.71458,-0.0361 0,-0.005 -0.0742,0.0537 -0.10832,0.0815 l -0.0523,-0.004 v -0.0433 l -0.27783,-0.0108 -0.003,0.037 -0.57123,-0.0362 c 0,0 -0.0476,-0.11847 -0.11088,-0.27471 l 1.68544,0.009 0.0165,-1.36996 -1.95147,-0.22343 c 0.006,-0.007 0.0106,-0.0148 0.0106,-0.0238 0,-0.021 -0.0177,-0.0381 -0.0401,-0.0381 h -0.004 v -0.0461 h -0.0371 V 1.12946 c 0,0 0.0889,-0.037 0.0889,-0.15466 0,-0.11808 -0.15976,-0.25442 -0.15976,-0.25442 l 0.0144,-0.2135 -0.038,-0.0366 h -0.76598 v -0.0704 h -0.40725 v 0.0704 h -0.78456 l -0.0346,0.0338 v 0.21147 c 0,0 -0.1758,0.14552 -0.1758,0.2771 0,0.0978 0.054,0.13082 0.0818,0.14115 h -0.30311 l -0.0409,-0.30455 c 0,0 -0.0283,-0.0362 -0.16696,-0.0362 -0.13742,0 -0.15852,0.0406 -0.15852,0.0406 l -0.0645,0.43176 H 11.51578 L 9.37247,1.49837 V 0 H 9.35317 V 1.50076 L 9.04669,1.53336 H 8.91558 l -0.0244,0.11728 c -0.0666,0.0302 -0.18633,0.0942 -0.31154,0.1932 h -0.0114 c 0.0637,-0.0843 0.121,-0.15741 0.12184,-0.159 0.0199,-0.0238 0.0138,-0.0584 -0.0102,-0.0763 -0.0241,-0.0182 -0.0594,-0.0139 -0.0793,0.0102 -0.005,0.006 -0.0906,0.11569 -0.17113,0.22502 H 7.05889 v 0.0851 H 5.55512 l -0.0898,0.0934 -4.03365,-0.068 H 1.08052 L 0.74746,1.81828 H 0.63068 l -0.0451,0.0763 H 0.13534 v -0.068 H 0 v 0.64524 h 0.1172 l -0.009,-0.0596 h 0.46838 l 0.0451,0.0596 0.0991,0.009 0.36003,-0.16976 4.36669,0.11886 0.12604,0.11847 h 1.53035 v 0.0851 h 1.30265 c 0.0337,0.10414 0.0641,0.19757 0.0641,0.19757 0.009,0.0291 0.0409,0.0449 0.0708,0.0362 0.0292,-0.009 0.0464,-0.0393 0.0362,-0.0684 L 8.51694,2.60924 c 0.0329,0.0449 0.0763,0.0974 0.13406,0.15863 L 8.5688,3.14671 H 8.15186 l -0.38321,0.041 -0.0991,0.0819 -0.0556,0.005 -0.0421,-0.0406 -0.44605,0.0402 -0.004,-0.0449 -0.66736,0.056 0.005,0.0493 -0.35287,0.0314 v -0.0593 h -0.0704 v 0.0998 h 0.0274 v 0.0227 l -0.39922,0.0525 -0.004,-0.006 -0.17454,0.0871 0.11762,0.22263 -0.0118,0.0727 H 5.49253 L 5.3859,4.01121 H 5.11776 V 3.98851 H 4.95379 v 0.0294 L 4.78978,3.99751 v 0.10893 l 0.16401,-0.0286 v 0.0244 h 0.16397 v -0.0182 h 0.25339 v 0.0906 H 5.00014 V 4.14324 H 4.88378 v 0.0295 l -0.0894,0.0429 v 0.0227 H 4.71758 C 4.70068,4.03957 4.58437,4.04355 4.58437,4.04355 c 0,-0.14711 -0.19898,-0.163 -0.26814,-0.16419 v -0.0179 h -0.0603 v 0.19519 h -0.2483 c -0.14122,0 -0.15934,0.13638 -0.15934,0.13638 h 0.40258 v 0.10016 h 0.1362 v 0.0954 h -0.0755 v 0.0724 h -0.0413 v 0.0414 h -0.0241 c 0,0 -0.59485,-0.023 -1.31616,0.22223 l -0.003,0.004 c 0,-0.0236 -0.0193,-0.0421 -0.0438,-0.0421 -0.025,0 -0.0443,0.0196 -0.0443,0.0433 0,0.007 0.003,0.0136 0.005,0.019 l -0.0805,0.10178 0.0426,0.0322 0.0902,-0.11211 c 3e-4,0 0.003,0 0.003,0 L 2.20026,5.76181 h 0.21119 l 0.0136,-0.0182 h 0.34486 l -0.0129,0.0544 -0.23398,0.0819 c 0,0 -0.10709,0.068 -0.0599,0.13197 0.0232,0.0314 0.0498,0.0533 0.0793,0.0636 v 0.15426 h 0.0611 V 6.07985 c 0.0102,-0.003 0.0217,-0.005 0.0333,-0.01 0.008,-0.004 0.022,-0.009 0.035,-0.013 l 0.0548,0.0199 0.038,0.1817 -0.0944,0.0362 0.007,0.0791 0.11214,0.0302 0.12479,0.18766 -0.075,0.0604 0.0439,0.0787 0.11888,-0.0179 0.13701,0.12681 -0.0434,0.0851 0.0498,0.0724 0.11888,-0.0545 0.19982,0.097 -0.0124,0.0974 0.0624,0.0481 0.0742,-0.0787 0.17495,0.0906 -0.0244,0.10337 0.0873,0.0421 0.0502,-0.0724 0.21204,0.0847 -0.005,0.097 0.0556,0.0545 0.0742,-0.0668 0.1817,0.0727 -0.0244,0.097 0.0805,0.0604 0.0628,-0.0668 0.18718,0.0974 -0.0189,0.0847 0.081,0.0421 0.0632,-0.0604 0.20572,0.091 -0.0308,0.10295 0.0932,0.0485 0.0375,-0.0485 0.20026,0.0604 v 0.0911 l 0.0999,0.0122 0.0308,-0.0612 h 0.24241 l 0.0388,0.0938 h 0.0969 V 8.06304 H 6.0673 l 0.0388,0.0938 h 0.097 v -0.0938 h 0.24241 l 0.0384,0.0938 h 0.097 v -0.0938 h 0.23272 l 0.0396,0.0938 h 0.0961 v -0.0938 h 0.22636 l 0.0388,0.0938 h 0.0969 V 8.06304 H 7.5538 l 0.0388,0.0938 h 0.097 V 8.06304 H 7.932 l 0.0388,0.0938 h 0.0966 v -0.0938 h 0.22721 l 0.038,0.0938 h 0.0969 v -0.0938 h 0.2424 l 0.0384,0.0938 h 0.0969 v -0.0938 h 0.23946 l 0.0388,0.0938 h 0.0966 v -0.0938 h 0.22681 l 0.0388,0.0938 h 0.0969 v -0.0938 h 0.24199 l 0.0388,0.0938 h 0.0965 v -0.0938 h 0.23608 l 0.0392,0.0938 h 0.0966 v -0.0938 h 0.22682 l 0.0392,0.0938 h 0.0965 v -0.0938 h 0.24283 l 0.038,0.0938 h 0.0969 v -0.0938 h 0.23654 l 0.0383,0.0938 h 0.0965 v -0.0938 h 0.22639 l 0.0392,0.0938 h 0.097 v -0.0938 h 0.24199 l 0.0396,0.0938 h 0.0966 v -0.0938 h 0.23861 l 0.0396,0.0938 h 0.0965 v -0.0938 h 0.22597 l 0.0396,0.0938 h 0.0961 v -0.0938 h 0.24283 l 0.0384,0.0938 h 0.097 v -0.0938 h 0.24198 l 0.0388,0.0938 h 0.0966 v -0.0938 h 0.22721 l 0.0384,0.0938 h 0.097 v -0.0938 h 0.2424 l 0.0384,0.0938 h 0.097 v -0.0938 h 0.23609 l 0.0388,0.0938 h 0.0965 v -0.0938 h 0.22766 l 0.0375,0.0938 h 0.097 v -0.0938 h 0.24283 l 0.038,0.0938 h 0.0974 v -0.0938 h 0.22344 l 0.0388,0.0938 h 0.0969 v -0.0938 h 0.24199 l 0.0392,0.0938 h 0.0969 v -0.0954 l 0.2146,-0.0284 0.075,0.097 0.0809,-0.0122 0.007,-0.10337 0.20658,-0.0481 0.0497,0.0851 0.10625,-0.0244 -0.0126,-0.0791 0.21246,-0.0545 0.0493,0.0847 0.0936,-0.0179 0.0126,-0.0847 0.21333,-0.0604 0.0493,0.0907 0.1058,-0.0425 -0.005,-0.0727 0.18679,-0.0425 0.0506,0.0727 0.0995,-0.0179 v -0.0847 l 0.21333,-0.0425 0.0367,0.0724 0.094,-0.0179 -0.0126,-0.0787 0.21165,-0.0787 0.0628,0.0787 0.0687,-0.0425 0.006,-0.0787 0.1994,-0.091 0.0502,0.0545 0.10625,-0.0485 -0.0244,-0.0604 0.13068,-0.16976 0.11847,0.0306 0.0438,-0.0727 -0.025,-0.0362 0.0557,-0.20674 0.11931,-0.0116 0.0126,-0.0608 -0.0375,-0.0545 0.006,-0.19995 0.10666,-0.0425 v -0.0664 l -0.0877,-0.0238 -0.0502,-0.21228 0.0999,-0.0485 -0.0312,-0.0974 -0.0565,0.006 -0.16863,-0.15783 0.0565,-0.0847 -0.0439,-0.0787 -0.0683,0.0425 -0.18086,-0.13953 0.0304,-0.0755 h 1.23987 l 0.0611,-0.12761 z M 4.7481,4.50178 H 4.56556 v -0.0413 h -0.0371 v -0.0724 h -0.0607 v -0.0954 h 0.0927 v 0.13198 h 0.1876 z m 0.13026,2.80075 c 0,0.13042 0.0384,0.25127 0.10456,0.35464 L 4.89982,7.71757 4.83072,7.68097 4.87502,7.51121 4.73759,7.42651 4.5816,7.53544 4.5129,7.49294 4.5622,7.32954 4.43194,7.25684 4.27552,7.37809 4.21232,7.34149 4.26962,7.17214 4.13178,7.09944 3.9762,7.20238 3.8949,7.17798 3.9446,7.00226 4.0319,6.98406 4.069,7.06276 4.23764,7.03836 4.24784,6.95526 h 0.72975 c -0.0624,0.10138 -0.0991,0.22025 -0.0991,0.34706 m 0.6189,-2.85561 -0.009,0.0549 H 5.11361 v -0.0549 z m 0.0354,3.52907 -3e-4,0.003 h -0.0451 l -0.01,-0.007 c 0.0187,0.003 0.0371,0.005 0.0552,0.005 m 0.39374,-0.0914 -0.0312,0.093 h -0.075 l -0.0147,-0.0386 c 0.0426,-0.0142 0.083,-0.033 0.12099,-0.0545 M 6.68988,7.83558 6.64098,7.97831 H 6.56048 L 6.49898,7.8181 H 6.32739 L 6.27259,7.97831 H 6.18279 L 6.12119,7.8181 H 6.02469 C 6.12883,7.7326 6.20513,7.61851 6.24392,7.48772 h 0.20361 c 0.0413,0.13996 0.12731,0.26081 0.24241,0.34786 m 0.3162,0.13357 -0.003,0.009 h -0.0742 l -0.0114,-0.0278 c 0.0286,0.008 0.0582,0.0142 0.0881,0.0187 m 0.395,-0.0497 -0.0193,0.0588 h -0.0902 l -0.008,-0.0199 c 0.0409,-0.01 0.0805,-0.0227 0.11804,-0.039 m 0.7736,-0.099 -0.0535,0.15784 h -0.075 L 7.98558,7.81787 H 7.81357 L 7.75917,7.97809 H 7.66857 L 7.60747,7.81787 H 7.56777 C 7.71784,7.69384 7.81355,7.50935 7.81355,7.30304 c 0,-0.12684 -0.0371,-0.24571 -0.0999,-0.34709 h 0.312 c -0.0628,0.10138 -0.0999,0.22025 -0.0999,0.34709 0,0.20751 0.097,0.39355 0.24915,0.51721 m 0.32842,0.14788 -0.003,0.01 h -0.0906 l -0.0139,-0.0378 c 0.0346,0.0119 0.0704,0.021 0.10793,0.0278 m 0.38914,-0.0425 -0.0187,0.0525 h -0.0864 l -0.008,-0.0179 c 0.0392,-0.009 0.0763,-0.0199 0.11257,-0.0346 M 9.7157,7.81789 H 9.6685 L 9.6145,7.97811 H 9.5238 L 9.4631,7.81789 H 9.2907 L 9.2363,7.97811 H 9.1617 L 9.0997,7.81789 H 9.0726 C 9.1759,7.73239 9.25304,7.61831 9.29142,7.48752 h 0.20445 c 0.0384,0.13079 0.11551,0.24489 0.21965,0.33037 m 0.27783,0.13913 -0.008,0.021 h -0.0847 l -0.0223,-0.06 c 0.0367,0.0162 0.0746,0.029 0.11467,0.0389 m 0.36382,-0.005 -0.009,0.0261 h -0.075 l -0.003,-0.008 c 0.0295,-0.004 0.0586,-0.0102 0.0868,-0.0179 m 0.61637,-0.64879 c 0,0.20631 0.0961,0.3908 0.24578,0.51483 h -0.0679 l -0.0539,0.16022 h -0.0843 l -0.0611,-0.16022 h -0.17158 l -0.0544,0.16022 h -0.0902 L 10.58271,7.842 c 0.16822,-0.12324 0.27826,-0.31802 0.27826,-0.53867 0,-0.12681 -0.0362,-0.24571 -0.0995,-0.34706 h 0.31154 c -0.0628,0.10135 -0.0999,0.22025 -0.0999,0.34706 m 0.49577,0.64641 -0.01,0.0287 h -0.0742 l -0.0283,-0.0724 c 0.0359,0.0176 0.073,0.0322 0.11218,0.0437 m 0.37516,0.006 -0.007,0.0221 h -0.0898 l -0.003,-0.004 c 0.0337,-0.004 0.0662,-0.01 0.0986,-0.0182 m 0.58597,-6.68922 h -0.30142 l -0.0126,-0.0954 h 0.3141 z m 0.3318,6.55126 h -0.13405 l -0.0544,0.16021 h -0.0746 l -0.0611,-0.16021 h -0.17156 l -0.054,0.16021 h -0.0877 l -0.0485,-0.1272 c 0.1252,-0.0879 0.21923,-0.21509 0.26308,-0.36335 h 0.20319 c 0.0384,0.13078 0.11594,0.24488 0.21965,0.33034 m 0.20445,0.11648 -0.0147,0.0437 h -0.0898 l -0.0468,-0.12045 c 0.0472,0.0314 0.0978,0.0568 0.15136,0.0767 m 0.36719,0.033 -0.004,0.0108 h -0.0898 l -3e-4,-0.003 c 0.0316,-0.003 0.0632,-0.005 0.0944,-0.01 m 0.66862,-0.66429 c 0,0.20631 0.0957,0.3908 0.24662,0.51483 h -0.12436 l -0.054,0.16019 h -0.091 l -0.0615,-0.16019 h -0.17159 l -0.0544,0.16019 h -0.0742 l -0.0392,-0.10136 c 0.19771,-0.11926 0.33008,-0.33116 0.33008,-0.57366 0,-0.12684 -0.0375,-0.2457 -0.0991,-0.34706 H 14.1 c -0.062,0.10136 -0.099,0.22022 -0.099,0.34706 m 0.4536,0.63211 -0.0147,0.0429 H 14.356 L 14.313,7.86352 c 0.0434,0.0284 0.091,0.0513 0.14164,0.0692 m 0.35118,0.0338 -0.003,0.009 h -0.0755 v -0.003 c 0.0271,-0.003 0.0527,-0.004 0.0789,-0.008 m 1.13404,-0.0572 -0.0232,0.0664 h -0.0894 l -0.062,-0.16019 H 15.5945 L 15.5393,7.97372 H 15.4681 L 15.4065,7.81353 h -0.17159 l -0.054,0.16019 h -0.0902 l -0.0371,-0.0954 c 0.15049,-0.0871 0.26474,-0.2278 0.31323,-0.39517 h 0.20406 c 0.0552,0.18724 0.19139,0.3411 0.36927,0.42417 m 0.29977,0.0664 h -0.035 l -3.1e-4,-0.003 c 0.0114,0 0.0235,0.003 0.0354,0.003 m 0.019,0 h -0.0181 c 0.006,0 0.0114,-2.6e-4 0.0181,-2.6e-4 z m 0.35244,-0.10414 -0.003,0.0561 -0.0628,0.006 -0.008,-0.023 c 0.0253,-0.0116 0.0497,-0.0247 0.0738,-0.039 m 1.99237,-1.21213 c 0.0375,-0.0521 0.0599,-0.11449 0.0599,-0.18326 0,-0.008 -3e-4,-0.015 -0.003,-0.0227 h 0.47639 c 0.003,0.0167 0.003,0.0334 0.003,0.0501 0,0.0739 -0.0123,0.14549 -0.0317,0.21346 l -0.062,-0.0258 c -0.005,0.021 -0.0118,0.0417 -0.0187,0.0616 l 0.0599,0.0247 c -0.0325,0.0819 -0.0767,0.15783 -0.1328,0.22422 z M 18.345,7.2829 V 6.79231 c 0.0839,-0.003 0.15892,-0.035 0.21583,-0.0866 l 0.3516,0.3411 c -0.0679,0.0676 -0.14838,0.12284 -0.23692,0.1626 l -0.0208,-0.0513 c -0.0202,0.009 -0.0405,0.0176 -0.0611,0.0247 l 0.0211,0.0513 c -0.0848,0.0306 -0.17454,0.0481 -0.26979,0.0489 m -0.24033,0.15545 -0.0468,0.009 -0.0253,0.19363 h -0.0687 l -0.0873,-0.15148 -0.16229,0.0366 -0.0375,0.18804 -0.0624,0.006 -0.075,-0.14509 -0.18128,0.0119 -0.0244,0.18207 -0.0256,0.0302 -0.0683,-0.0182 -0.0691,-0.13952 -0.16189,0.0244 -0.0375,0.18803 -0.0746,0.006 -0.0953,-0.16181 c 0.0852,-0.11128 0.13534,-0.24885 0.13534,-0.39834 0,-0.12681 -0.0367,-0.24568 -0.0991,-0.34706 h 0.13068 l 0.43422,-0.12006 c 0.11341,0.30097 0.37731,0.53155 0.70236,0.60667 m -0.0885,-0.77563 -0.32124,0.3113 c -0.0463,-0.0592 -0.0839,-0.12324 -0.11088,-0.19244 z m 0.26392,0.6178 c -0.0987,-0.006 -0.19223,-0.0298 -0.27952,-0.0688 l 0.0223,-0.0517 c -0.0199,-0.009 -0.0392,-0.0182 -0.0582,-0.0294 l -0.0223,0.0525 c -0.0641,-0.0346 -0.1231,-0.0771 -0.17622,-0.12842 -0.0102,-0.0102 -0.0193,-0.021 -0.0295,-0.0314 l 0.3516,-0.3407 c 0.0485,0.0541 0.11593,0.0922 0.19184,0.10496 z m 0.0556,0.18485 c 0.0106,0 0.022,-2.5e-4 0.0325,0 l -0.004,0.0855 -0.0565,0.0244 -0.0586,-0.1129 c 0.0283,0.003 0.0578,0.004 0.0864,0.004 M 18.82215,5.88202 18.54137,6.15475 18.34492,6.02277 V 5.7226 c 0.0784,0 0.15386,0.0128 0.22386,0.033 l -0.0325,0.0759 c 0.0211,0.006 0.0418,0.0128 0.062,0.0201 l 0.0333,-0.0743 c 0.0687,0.0261 0.13237,0.062 0.19055,0.10453 m 0.20698,0.22621 -0.0721,0.0278 c 0.0114,0.0187 0.0229,0.037 0.0333,0.056 l 0.07,-0.0278 c 0.035,0.0704 0.059,0.14591 0.0712,0.2262 h -0.48018 c -0.003,-0.0111 -0.007,-0.0216 -0.0114,-0.0318 l -0.0189,-0.15068 -0.0244,-0.0162 0.27699,-0.26873 c 0.0603,0.0537 0.1134,0.11566 0.15554,0.18526"
     id="G-PanzerIVMid" />
</svg>
