<?xml version="1.0" encoding="UTF-8" standalone="no"?>
<!-- Created with Inkscape (http://www.inkscape.org/) -->

<svg
   width="17.691912mm"
   height="8.3173904mm"
   viewBox="0 0 17.691912 8.3173904"
   version="1.1"
   id="svg1"
   sodipodi:docname="inkporter-svg-bkw7v02n.svg"
   xmlns:inkscape="http://www.inkscape.org/namespaces/inkscape"
   xmlns:sodipodi="http://sodipodi.sourceforge.net/DTD/sodipodi-0.dtd"
   xmlns="http://www.w3.org/2000/svg"
   xmlns:svg="http://www.w3.org/2000/svg">
  <sodipodi:namedview
     id="namedview1"
     pagecolor="#ffffff"
     bordercolor="#666666"
     borderopacity="1.0"
     inkscape:showpageshadow="2"
     inkscape:pageopacity="0.0"
     inkscape:pagecheckerboard="0"
     inkscape:deskcolor="#d1d1d1"
     inkscape:document-units="mm"
     inkscape:zoom="0.72782688"
     inkscape:cx="396.38547"
     inkscape:cy="561.25984"
     inkscape:window-width="1920"
     inkscape:window-height="1017"
     inkscape:window-x="-8"
     inkscape:window-y="770"
     inkscape:window-maximized="1"
     inkscape:current-layer="layer1" />
  <defs
     id="defs1" />
  <g
     inkscape:label="Layer 1"
     inkscape:groupmode="layer"
     id="layer1"
     transform="translate(-46.869485,-195.63095)">
    <path
       id="G-PanzerIII-75"
       d="m 55.918553,195.63095 v 0.14677 h -0.104905 v 0.27285 h -0.09457 v 0.23099 h -0.08372 v 0.28112 h -0.428396 l -0.104387,0.01 v -0.0315 h -0.12609 v -0.10439 h -0.650607 v 0.10439 h -0.125574 v 0.1204 l -0.700215,0.0687 -0.67231,0.10491 -0.104905,0.18861 h -0.218073 v -0.12557 h -0.209289 l -0.282155,0.35657 0.0062,0.16795 h -0.32246 v -0.0832 h -0.237193 v 0.17725 H 50.49252 v 0.0966 h -0.958599 v 0.34675 h 0.958599 v 0.12764 h 0.967384 v 0.12816 h 0.237193 v -0.0506 h 0.346231 v 0.1049 h 0.335897 v 0.1049 h -0.776697 v 0.0837 h -0.125571 v 0.1049 h -0.721406 l -0.201538,0.99477 h -2.47995 v 0.0837 l -0.273368,-0.18862 v 0.3359 l -0.93121,0.67128 0.12609,0.15554 0.515729,-0.3731 -0.127638,0.108 0.09767,0.11627 h -3.52e-4 c -0.05278,0.0607 -0.100443,0.12626 -0.142628,0.19534 l -0.178799,-0.0729 -0.06356,0.15554 0.161748,0.0656 c -0.03475,0.073 -0.06331,0.14921 -0.08579,0.22531 l -0.165879,-0.0672 -0.06356,0.15606 0.191721,0.0765 c -0.01485,0.0862 -0.02155,0.16986 -0.0212,0.25166 l -0.188101,0.0367 0.03256,0.16485 0.166398,-0.0326 c 0.01016,0.0818 0.02861,0.15999 0.05271,0.23565 l -0.173633,0.0341 0.03203,0.16485 0.204639,-0.0403 c 0.02992,0.0642 0.06603,0.12678 0.10697,0.18707 l -0.14211,0.13126 0.114205,0.12299 0.129191,-0.11989 c 0.0519,0.0599 0.108366,0.11753 0.169499,0.17208 l -0.133326,0.12454 0.114205,0.12299 0.14986,-0.14004 c 0.05057,0.0378 0.115838,0.0807 0.19327,0.12557 l -0.06356,0.17364 0.158129,0.0568 0.05374,-0.14728 c 0.06687,0.0361 0.139538,0.0739 0.216524,0.11162 l -0.04341,0.11886 0.157611,0.0574 0.03721,-0.10284 c 0.0796,0.0383 0.163746,0.0766 0.249083,0.11472 l -0.02946,0.0811 0.157614,0.0574 0.02635,-0.0708 0.222208,0.0946 -0.0217,0.0589 0.157611,0.0579 0.01965,-0.0527 0.232026,0.0915 -0.0315,0.0889 0.157095,0.0574 0.03101,-0.0873 0.227376,0.0832 -0.03154,0.0863 0.157611,0.0579 0.03256,-0.0904 0.167432,0.0543 -0.02427,0.11265 0.164331,0.0346 0.0212,-0.0987 c 0.08534,0.0242 0.163247,0.044 0.234092,0.0605 l -0.01859,0.0889 0.164331,0.0351 0.01912,-0.0935 c 0.04006,0.004 0.07468,0.008 0.104387,0.008 h 0.07338 v 0.10645 h 0.167951 v -0.10645 h 0.241328 v 0.10645 h 0.167432 v -0.10645 h 0.173115 v 0.10645 h 0.16795 v -0.10645 h 0.241843 v 0.10645 h 0.167432 v -0.10645 h 0.273371 v 0.10645 h 0.167429 v -0.10645 h 0.241331 v 0.10645 h 0.168466 v -0.10645 h 0.171563 v 0.10645 h 0.168465 v -0.10645 h 0.240813 v 0.10645 h 0.167947 v -0.10645 h 0.273371 v 0.10645 h 0.167947 v -0.10645 h 0.241328 v 0.10645 h 0.167951 v -0.10645 h 0.272334 v 0.10645 h 0.168465 v -0.10645 h 0.241329 v 0.10645 h 0.167431 v -0.10645 h 0.273886 v 0.10645 h 0.166914 v -0.10645 h 0.241847 v 0.10645 h 0.167946 v -0.10645 h 0.272853 v 0.10645 h 0.168465 v -0.10645 h 0.241329 v 0.10645 h 0.166916 v -0.10645 h 0.273883 v 0.10645 h 0.167432 l 3.53e-4,-0.10645 h 0.241328 v 0.10645 h 0.167947 v -0.10645 h 0.272337 v 0.10645 h 0.168466 v -0.10645 h 0.241328 v 0.10645 h 0.167947 v -0.10645 h 0.273367 v 0.10645 h 0.167951 v -0.10645 h 0.240813 v 0.10645 h 0.167947 v -0.10645 h 0.03305 c 0.06555,0 0.137167,-0.004 0.21239,-0.0124 l 0.01499,0.10749 0.166398,-0.0233 -0.01499,-0.10697 c 0.0761,-0.012 0.155388,-0.0269 0.237194,-0.045 l 0.01704,0.11886 0.165883,-0.0233 -0.0181,-0.13384 c 0.06819,-0.0173 0.137332,-0.0357 0.20774,-0.0553 l 0.02688,0.0718 0.157096,-0.0574 -0.02275,-0.062 c 0.0761,-0.0233 0.153412,-0.0482 0.229958,-0.0739 l 0.01965,0.0532 0.157095,-0.0574 -0.01757,-0.0501 c 0.07787,-0.0277 0.156785,-0.0562 0.237709,-0.0775 l 0.153479,-0.0698 c 0.07522,-0.0294 0.150107,-0.0604 0.23151,-0.0708 l 0.156581,-0.0563 -0.01087,-0.0305 c 0.08622,-0.0383 0.169521,-0.0761 0.249598,-0.1142 l 0.01859,0.0506 0.157614,-0.0579 -0.0248,-0.0672 c 0.07655,-0.0383 0.149137,-0.0762 0.216006,-0.11317 l 0.03566,0.0982 0.15813,-0.0574 -0.04651,-0.12713 c 0.08313,-0.0506 0.152421,-0.0986 0.208256,-0.14262 l 0.117824,0.11058 0.11472,-0.12299 -0.110586,-0.10283 c 0.05764,-0.0599 0.109534,-0.12152 0.156577,-0.18397 l 0.118858,0.11059 0.114205,-0.12299 -0.136426,-0.12713 c 0.03958,-0.0633 0.07378,-0.1269 0.103868,-0.19068 l 0.202057,0.0382 0.03203,-0.16433 -0.170017,-0.0331 c 0.02695,-0.0779 0.04668,-0.15578 0.05995,-0.23409 l 0.156062,0.0305 0.03203,-0.16485 -0.170533,-0.0326 c 0.004,-0.0898 -3.52e-4,-0.178 -0.01446,-0.26511 l 0.166914,-0.0672 -0.06253,-0.15554 -0.141591,0.0568 c -0.02332,-0.077 -0.05325,-0.15191 -0.07131,-0.23151 h 0.890383 v -0.65887 h -0.146759 v -0.39843 h 0.210322 l -0.378273,-0.35657 -1.440737,-0.30282 h 0.077 c 0.05367,0 0.09715,-0.0435 0.09715,-0.0971 v -0.0791 c 0,-0.0537 -0.04348,-0.0971 -0.09715,-0.0971 H 62.42615 c -0.05367,0 -0.09716,0.0436 -0.09716,0.10646 h -0.134874 v -0.10542 h -0.745173 l -0.199471,-0.0419 -0.448553,-0.017 v -0.17984 c 0,-0.0537 -0.04297,-0.0972 -0.09663,-0.0972 h -0.91881 c -0.05278,0 -0.09715,0.0435 -0.09715,0.0972 v 0.13902 l -0.204121,-0.008 v -0.23048 c 0,-0.0537 -0.04349,-0.0966 -0.09715,-0.0966 h -0.917772 c -0.05367,0 -0.09715,0.043 -0.09715,0.0966 v 0.0408 l -0.106972,-0.3514 h 1.859318 v -1.43351 l -1.962672,-0.35811 v -0.32453 h -0.09457 v -0.27285 H 57.961821 V 195.631 Z m 2.409155,2.91094 h 0.04392 v 0.0481 z m -10.620025,1.55959 0.07028,0.0827 -0.0072,0.0336 c -0.06073,0.0378 -0.117898,0.0807 -0.171566,0.12816 l -0.08682,-0.10335 z m -0.04393,1.13637 c 0.103798,0 0.18862,0.0844 0.18862,0.18862 0,0.10428 -0.08482,0.18913 -0.18862,0.18913 -0.104242,0 -0.188619,-0.0848 -0.188619,-0.18913 0,-0.10425 0.08438,-0.18862 0.188619,-0.18862 z m 0.253217,0.61133 c 0.04816,0 0.0966,0.0181 0.133325,0.0553 0.07434,0.0735 0.07434,0.19283 0,0.26717 -0.07346,0.0735 -0.19268,0.0735 -0.266135,0 -0.07434,-0.0743 -0.07434,-0.19371 0,-0.26717 0.03673,-0.0372 0.08464,-0.0553 0.13281,-0.0553 z m 1.036112,0.16071 0.260964,0.20206 c -0.06908,0.0294 -0.151942,0.0156 -0.208256,-0.0403 -0.04396,-0.044 -0.06153,-0.10411 -0.05271,-0.16175 z m -0.42478,0.0925 c 0.104243,0 0.188101,0.0845 0.188101,0.18914 0,0.10384 -0.08386,0.18913 -0.188101,0.18913 -0.104242,0 -0.189138,-0.0853 -0.189138,-0.18913 0,-0.10468 0.0849,-0.18914 0.189138,-0.18914 z m 0.863512,0.20361 0.643371,0.25477 c -0.02367,0.0792 -0.03565,0.16248 -0.03565,0.24959 0,0.27186 0.123074,0.51567 0.315743,0.678 -0.117891,-0.0365 -0.245854,-0.0797 -0.378273,-0.12765 l 0.05116,-0.14211 -0.236678,-0.0863 -0.05064,0.14005 c -0.178181,-0.0686 -0.359022,-0.14263 -0.532786,-0.21652 l 0.05891,-0.16279 -0.236679,-0.0858 -0.05478,0.14935 c -0.210291,-0.0919 -0.399711,-0.1786 -0.54622,-0.24857 l 0.01965,-0.0548 c 0.03957,0.002 0.07943,0.006 0.119888,0.006 0.336088,0 0.640824,-0.13435 0.862997,-0.35295 z m 11.210685,0.12247 h 0.958599 c 0.211134,0.17244 0.480177,0.27544 0.773596,0.27544 0.0321,0 0.06388,3.5e-4 0.0956,-0.004 l 0.02427,0.0682 3.52e-4,0.001 c -0.121863,0.062 -0.25721,0.1258 -0.407211,0.17156 l -0.147796,0.0537 -0.06511,-0.17725 -0.23616,0.0858 0.06408,0.17777 -0.157095,0.0568 0.01446,0.0398 c -0.127162,0.0479 -0.255954,0.0938 -0.383952,0.13694 l -0.06253,-0.17208 -0.236679,0.0858 0.05891,0.16382 c -0.16365,0.0493 -0.32299,0.0924 -0.473873,0.12609 l -0.0088,-0.0667 c 0.169348,-0.161 0.275435,-0.38928 0.275435,-0.64131 0,-0.13684 -0.03136,-0.26621 -0.0863,-0.38189 z m -7.045565,0.16692 h 0.09354 c -0.01686,0.0682 -0.02635,0.14004 -0.02635,0.21394 0,0.34315 0.195598,0.64115 0.481108,0.78806 h -0.418063 v -0.13384 h -0.251146 v 0.13384 h -0.334349 c 0.285951,-0.14691 0.481108,-0.44491 0.481108,-0.78806 0,-0.0739 -0.0086,-0.14575 -0.02582,-0.21394 z m 1.812809,0 h 0.09353 c -0.01686,0.0682 -0.02533,0.14004 -0.02533,0.21394 0,0.34315 0.194603,0.64115 0.480074,0.78806 h -0.5302 v -0.13384 h -0.251665 v 0.13384 h -0.221689 c 0.285912,-0.14691 0.481623,-0.44491 0.481623,-0.78806 0,-0.0739 -0.0091,-0.14575 -0.02635,-0.21394 z m 3.528469,0 h 0.04496 c -0.01083,0.044 -0.01831,0.0903 -0.02272,0.13694 -0.004,-0.0466 -0.0114,-0.093 -0.02222,-0.13694 z m -7.154086,0.001 h 0.09405 c -0.01686,0.0682 -0.02635,0.14004 -0.02635,0.21393 0,0.34312 0.195636,0.64116 0.481107,0.78807 h -0.204635 v -0.13384 h -0.251665 v 0.13384 l -0.498161,-0.0279 c 0.258657,-0.15442 0.432015,-0.43684 0.432015,-0.76017 0,-0.0739 -0.0087,-0.14578 -0.02635,-0.21393 z m 7.176307,0.2899 c 0.02685,0.30618 0.208933,0.56769 0.467152,0.71107 h -0.598413 v -0.13384 h -0.153995 c 0.159674,-0.14563 0.265571,-0.34891 0.285256,-0.57723 z m -1.73943,0.14366 c 0.06334,0.24722 0.230632,0.45305 0.453203,0.56741 h -0.545705 v -0.13384 H 56.91901 c 0.125794,-0.1144 0.218447,-0.26422 0.261998,-0.43357 z m -0.344163,0.50075 v 0.0667 h -0.109556 c 0.03874,-0.0198 0.07463,-0.0422 0.109556,-0.0667 z m 1.700152,0.0103 v 0.0563 h -0.09405 c 0.03256,-0.0165 0.06435,-0.0359 0.09405,-0.0563 z"
       style="stroke-width:0.352778" />
  </g>
</svg>
