<?xml version="1.0" encoding="UTF-8" standalone="no"?>
<!-- Created with Inkscape (http://www.inkscape.org/) -->

<svg
   width="22.225mm"
   height="4.8684602mm"
   viewBox="0 0 22.225 4.8684602"
   version="1.1"
   id="svg1"
   sodipodi:docname="inkporter-svg-2x80hxxy.svg"
   xmlns:inkscape="http://www.inkscape.org/namespaces/inkscape"
   xmlns:sodipodi="http://sodipodi.sourceforge.net/DTD/sodipodi-0.dtd"
   xmlns="http://www.w3.org/2000/svg"
   xmlns:svg="http://www.w3.org/2000/svg">
  <sodipodi:namedview
     id="namedview1"
     pagecolor="#ffffff"
     bordercolor="#666666"
     borderopacity="1.0"
     inkscape:showpageshadow="2"
     inkscape:pageopacity="0.0"
     inkscape:pagecheckerboard="0"
     inkscape:deskcolor="#d1d1d1"
     inkscape:document-units="mm"
     inkscape:zoom="0.72782688"
     inkscape:cx="396.38547"
     inkscape:cy="561.25984"
     inkscape:window-width="1920"
     inkscape:window-height="1017"
     inkscape:window-x="-8"
     inkscape:window-y="-8"
     inkscape:window-maximized="1"
     inkscape:current-layer="layer1" />
  <defs
     id="defs1" />
  <g
     inkscape:label="Layer 1"
     inkscape:groupmode="layer"
     id="layer1"
     transform="translate(-138.37703,-105.03958)">
    <path
       id="G-PanzerIV-75-DI"
       d="m 149.41104,105.03958 v 1.73064 l -0.33332,0.0377 h -0.14262 l -0.0269,0.13539 c -0.0724,0.0348 -0.20229,0.10857 -0.33847,0.22273 h -0.0124 c 0.0692,-0.0972 0.13137,-0.18162 0.13229,-0.18346 0.0216,-0.0275 0.0153,-0.0672 -0.0109,-0.0878 -0.0262,-0.021 -0.0647,-0.0159 -0.0863,0.0119 -0.005,0.007 -0.0985,0.13332 -0.18603,0.25942 h -1.49087 v 0.0982 h -1.63556 l -0.0977,0.10749 -4.38733,-0.078 h -0.38241 l -0.36225,-0.15709 h -0.12661 l -0.0491,0.0884 h -0.48989 v -0.0786 h -0.14728 v 0.74414 h 0.12764 l -0.0103,-0.0687 h 0.50953 l 0.0491,0.0687 0.108,0.0103 0.39119,-0.19586 4.74958,0.13695 0.13746,0.13642 h 1.6645 v 0.0982 h 1.41697 c 0.0367,0.12011 0.0692,0.22789 0.0692,0.22789 0.0102,0.0335 0.0449,0.052 0.0775,0.0419 0.0317,-0.0105 0.0503,-0.0456 0.0393,-0.0791 l -0.0661,-0.21858 c 0.0358,0.0518 0.0829,0.11232 0.14572,0.18293 l -0.0894,0.43718 h -0.4532 l -0.41703,0.047 -8.64856,0.76222 -0.66146,0.42995 h 22.225 l -0.52917,-0.79375 -4.51704,-0.39687 c -0.0151,-0.0399 -0.0417,-0.11003 -0.0971,-0.25529 l 1.83296,0.01 0.0181,-1.58026 -2.12287,-0.25735 c 0.007,-0.008 0.0119,-0.0169 0.0119,-0.0274 0,-0.0242 -0.0196,-0.0444 -0.0439,-0.0444 h -0.004 v -0.0532 h -0.0403 v -0.16692 c 0,0 0.0966,-0.0431 0.0966,-0.1788 0,-0.13618 -0.17364,-0.293 -0.17364,-0.293 l 0.0155,-0.2465 -0.0413,-0.0424 h -0.83303 v -0.0811 h -0.44286 v 0.0811 h -0.85318 l -0.0377,0.0393 v 0.24391 c 0,0 -0.19121,0.1676 -0.19121,0.31936 0,0.11281 0.0586,0.15087 0.0889,0.16278 h -0.3297 l -0.0444,-0.35088 c 0,0 -0.0305,-0.0419 -0.18139,-0.0419 -0.14947,0 -0.17259,0.0465 -0.17259,0.0465 l -0.0703,0.49816 h -0.17674 l -2.33164,0.26872 v -1.72806 z m 3.00291,1.35031 h 0.34159 v 0.11007 h -0.32763 z"
       style="stroke-width:0.352778" />
  </g>
</svg>
