<?xml version="1.0" encoding="UTF-8" standalone="no"?>
<!-- Created with Inkscape (http://www.inkscape.org/) -->

<svg
   width="17.206703mm"
   height="7.7336202mm"
   viewBox="0 0 17.206703 7.7336202"
   version="1.1"
   id="svg1"
   sodipodi:docname="inkporter-svg-bkw7v02n.svg"
   xmlns:inkscape="http://www.inkscape.org/namespaces/inkscape"
   xmlns:sodipodi="http://sodipodi.sourceforge.net/DTD/sodipodi-0.dtd"
   xmlns="http://www.w3.org/2000/svg"
   xmlns:svg="http://www.w3.org/2000/svg">
  <sodipodi:namedview
     id="namedview1"
     pagecolor="#ffffff"
     bordercolor="#666666"
     borderopacity="1.0"
     inkscape:showpageshadow="2"
     inkscape:pageopacity="0.0"
     inkscape:pagecheckerboard="0"
     inkscape:deskcolor="#d1d1d1"
     inkscape:document-units="mm"
     inkscape:zoom="0.72782688"
     inkscape:cx="396.38547"
     inkscape:cy="561.25984"
     inkscape:window-width="1920"
     inkscape:window-height="1017"
     inkscape:window-x="-8"
     inkscape:window-y="770"
     inkscape:window-maximized="1"
     inkscape:current-layer="layer1" />
  <defs
     id="defs1" />
  <g
     inkscape:label="Layer 1"
     inkscape:groupmode="layer"
     id="layer1"
     transform="translate(-47.58194,-154.84107)">
    <path
       id="G-PanzerIIILate-75"
       d="m 55.994693,154.84107 v 0.13642 h -0.09767 v 0.25373 h -0.08785 v 0.21446 h -0.07803 v 0.26097 h -0.397909 l -0.09715,0.01 v -0.0289 h -0.116787 v -0.0977 h -0.604616 v 0.0977 h -0.117305 v 0.11162 l -0.651122,0.0636 -0.28267,0.0439 -0.642338,0.007 -0.03566,0.10542 h -0.159163 l -0.05943,0.0749 H 51.75361 v 0.004 c -0.04552,0.0165 -0.08578,0.0987 -0.114724,0.21859 v 0.12712 h -0.436664 v -0.0832 h -0.237194 v 0.17725 h -0.967384 v 0.0966 h -0.958596 v 0.34675 h 0.958596 v 0.12764 h 0.967384 v 0.12816 h 0.237194 v -0.0506 h 0.436664 v 0.0145 c 0.02928,0.11924 0.06921,0.19926 0.114724,0.21549 v 0.003 h 0.228928 v 0.0362 l -0.05219,0.016 h -0.06511 v 0.0202 l -0.253732,0.0775 h -0.416514 l -0.0036,0.015 c -0.204611,-0.0402 -0.623602,-0.12196 -0.636655,-0.12196 -0.0081,0 -0.04319,0.22369 -0.077,0.45424 l -0.758095,0.23254 -0.0014,0.34468 h -1.016476 v 0.0775 L 48.447,158.3957 v 0.31264 l -0.86506,0.62425 0.117306,0.14418 0.480074,-0.34675 0.181899,-0.13178 0.06563,0.077 -0.0072,0.032 c -0.05645,0.0349 -0.109069,0.0748 -0.159163,0.11886 l -0.08113,-0.0961 -0.118858,0.10077 0.08992,0.10749 c -0.04833,0.0568 -0.09313,0.11718 -0.132291,0.18138 l -0.166914,-0.0672 -0.05839,0.1447 0.150379,0.061 c -0.0321,0.0677 -0.05877,0.13838 -0.07958,0.20929 l -0.154513,-0.0625 -0.05891,0.14522 0.178283,0.0708 c -0.01376,0.0801 -0.02,0.15841 -0.01965,0.23461 l -0.175182,0.0336 0.03048,0.15348 0.155028,-0.0305 c 0.0095,0.0762 0.026,0.14855 0.04857,0.2191 l -0.160712,0.0315 0.02893,0.15296 0.190687,-0.0367 c 0.02787,0.06 0.06112,0.11789 0.09922,0.17363 l -0.132292,0.12247 0.10697,0.1142 0.119373,-0.11213 c 0.04868,0.0557 0.100816,0.10991 0.157614,0.16071 l -0.124026,0.11575 0.106454,0.11369 0.139527,-0.1297 c 0.04692,0.0353 0.106997,0.0748 0.179317,0.11679 l -0.05891,0.16123 0.14676,0.0532 0.04961,-0.13694 c 0.06244,0.0332 0.129571,0.0681 0.201538,0.10335 l -0.04031,0.11059 0.146759,0.0532 0.03464,-0.0951 c 0.07444,0.0356 0.151782,0.0708 0.23151,0.10645 l -0.02791,0.0754 0.146759,0.0532 0.02427,-0.0656 0.206707,0.0879 -0.02014,0.0548 0.146763,0.0532 0.01757,-0.0486 0.216525,0.0847 -0.02946,0.0827 0.145729,0.0532 0.02946,-0.0806 0.211356,0.077 -0.02999,0.0806 0.146759,0.0532 0.02999,-0.0837 0.156062,0.0506 -0.02272,0.1049 0.152964,0.032 0.01965,-0.092 c 0.07902,0.0222 0.151423,0.0413 0.21704,0.0558 l -0.01704,0.0832 0.152965,0.032 0.01757,-0.0868 c 0.0374,0.005 0.0698,0.008 0.09767,0.008 h 0.0677 v 0.0992 h 0.156065 v -0.0992 h 0.22479 v 0.0992 h 0.155032 v -0.0992 h 0.16123 v 0.0992 h 0.156577 v -0.0992 h 0.224278 v 0.0992 h 0.156062 v -0.0992 h 0.253732 v 0.0992 h 0.155547 v -0.0992 h 0.22479 v 0.0992 h 0.156065 v -0.0992 H 53.531 v 0.0992 h 0.156062 v -0.0992 h 0.22376 v 0.0992 h 0.156062 v -0.0992 h 0.254247 v 0.0992 h 0.15658 v -0.0992 h 0.22376 v 0.0992 h 0.156062 v -0.0992 h 0.254247 v 0.0992 h 0.156065 v -0.0992 h 0.224275 v 0.0992 h 0.155547 v -0.0992 h 0.254247 v 0.0992 h 0.156062 v -0.0992 H 56.2822 v 0.0992 h 0.156062 v -0.0992 h 0.253732 v 0.0992 h 0.156577 v -0.0992 h 0.224278 v 0.0992 h 0.155544 v -0.0992 h 0.25425 v 0.0992 h 0.156062 v -0.0992 h 0.224275 v 0.0992 h 0.156065 v -0.0992 h 0.253729 v 0.0992 h 0.15658 v -0.0992 h 0.224275 v 0.0992 h 0.156065 v -0.0992 h 0.253729 v 0.0992 h 0.156065 v -0.0992 h 0.224275 v 0.0992 h 0.156062 v -0.0992 h 0.03101 c 0.06103,0 0.127039,-0.004 0.196889,-0.0119 l 0.01446,0.10025 0.154513,-0.0217 -0.01344,-0.0987 c 0.07091,-0.0113 0.14394,-0.0258 0.22014,-0.0424 l 0.01549,0.11007 0.15451,-0.0217 -0.01704,-0.12402 c 0.0635,-0.0159 0.128361,-0.0337 0.193273,-0.0517 l 0.0248,0.0672 0.146244,-0.0532 -0.0212,-0.0579 c 0.07055,-0.0219 0.142681,-0.0447 0.213942,-0.0687 l 0.0181,0.0491 0.14676,-0.0532 -0.01704,-0.0465 c 0.07267,-0.0261 0.14568,-0.0521 0.221174,-0.0718 l 0.142628,-0.0646 c 0.06985,-0.0279 0.139482,-0.0559 0.214976,-0.0661 l 0.146244,-0.0527 -0.01034,-0.0279 c 0.08043,-0.0349 0.157074,-0.0705 0.23151,-0.10645 l 0.01757,0.0475 0.146247,-0.0532 -0.02275,-0.0631 c 0.07126,-0.0356 0.138063,-0.0714 0.200505,-0.10593 l 0.03306,0.092 0.146763,-0.0532 -0.04341,-0.11834 c 0.07726,-0.0473 0.142283,-0.0919 0.193788,-0.13281 l 0.11007,0.10283 0.106455,-0.11368 -0.102839,-0.0961 c 0.05362,-0.0557 0.101466,-0.11249 0.145211,-0.17105 l 0.111107,0.10284 0.105936,-0.11421 -0.127124,-0.11834 c 0.03669,-0.0586 0.06876,-0.11763 0.09663,-0.17725 l 0.188105,0.0362 0.02946,-0.15297 -0.157614,-0.0305 c 0.02469,-0.0727 0.04314,-0.14611 0.05478,-0.21807 l 0.145725,0.0279 0.02999,-0.15244 -0.159163,-0.031 c 0.0039,-0.0833 -2.1e-5,-0.1652 -0.01344,-0.24598 l 0.156062,-0.0631 -0.05891,-0.14469 -0.131258,0.0532 c -0.02117,-0.0716 -0.04957,-0.14088 -0.06615,-0.21497 h 0.391706 c 0.05362,0.39158 0.288139,0.44959 0.517797,0.44959 0.244475,0 0.505912,-0.15658 0.505912,-0.5979 v -0.55707 c 0.136525,-0.0646 0.230995,-0.20345 0.230995,-0.36432 v -3.5e-4 c 0,-0.12665 -0.05885,-0.23943 -0.149864,-0.31316 v -0.48163 h -0.04599 v -0.20722 h -0.460954 v 0.20722 h -0.03411 v 0.51263 c -0.07126,0.0727 -0.115239,0.17244 -0.115239,0.28216 0,0.0155 7.8e-5,0.0303 0.0036,0.0455 l -0.307993,-0.29094 -1.339455,-0.28111 h 0.07131 c 0.04974,0 0.08992,-0.0407 0.08992,-0.0904 v -0.0729 c 0,-0.0501 -0.04018,-0.0909 -0.08992,-0.0909 H 62.04408 c -0.0097,0 -0.01817,0.003 -0.02688,0.006 v -0.3514 h -2.714046 c -0.01316,-0.0337 -0.04549,-0.0579 -0.08371,-0.0579 h -0.853179 c -0.03822,0 -0.07057,0.0242 -0.08371,0.0579 h -0.02843 l -0.04703,-0.15451 1.809707,0.008 -0.112137,-1.46709 -0.12609,0.001 -1.698604,-0.31006 v -0.30128 h -0.08785 v -0.25373 h -0.09767 v -0.13642 z m 7.838282,3.82716 h 0.158647 c 0.02399,0.11006 0.09358,0.2028 0.187068,0.2589 h -0.345715 z m 0.136426,0.62735 h 0.289906 v 0.20722 c 0,0.30021 -0.156235,0.30024 -0.207741,0.30024 -0.117828,0 -0.191075,-2.3e-4 -0.218591,-0.15193 h 0.136426 z m -15.648658,0.75964 c 0.09666,0 0.175701,0.0785 0.175701,0.17518 0,0.097 -0.07904,0.1757 -0.175701,0.1757 -0.09666,0 -0.175182,-0.0787 -0.175182,-0.1757 0,-0.0967 0.07852,-0.17518 0.175182,-0.17518 z m 0.235645,0.56844 c 0.04485,0 0.0898,0.0168 0.124023,0.0512 0.06879,0.0681 0.06879,0.17961 0,0.24805 -0.06844,0.0684 -0.179959,0.0684 -0.248045,0 -0.06914,-0.0684 -0.06914,-0.17996 0,-0.24805 0.03404,-0.0344 0.07918,-0.0512 0.124022,-0.0512 z m 0.963249,0.14935 0.242362,0.18758 c -0.06421,0.0275 -0.141058,0.0145 -0.193269,-0.0377 -0.04092,-0.0409 -0.05756,-0.0966 -0.04909,-0.14986 z m -0.395326,0.0853 c 0.09666,0 0.175186,0.0792 0.175186,0.17622 0,0.0967 -0.07852,0.1757 -0.175186,0.1757 -0.09666,0 -0.175697,-0.079 -0.175697,-0.1757 0,-0.097 0.07904,-0.17622 0.175697,-0.17622 z m 0.802538,0.18862 0.597895,0.2372 c -0.02152,0.0737 -0.03256,0.15124 -0.03256,0.23202 0,0.25294 0.113958,0.47982 0.293522,0.63046 -0.110067,-0.0339 -0.22915,-0.0744 -0.351917,-0.11886 l 0.04754,-0.13229 -0.22014,-0.0796 -0.04651,0.12971 c -0.16545,-0.0635 -0.334169,-0.13259 -0.496094,-0.20103 l 0.05529,-0.15141 -0.220659,-0.0796 -0.05013,0.13849 c -0.195435,-0.0854 -0.371806,-0.16608 -0.507979,-0.23099 l 0.0181,-0.0506 c 0.03704,0.004 0.07371,0.005 0.111104,0.005 0.312561,0 0.59581,-0.12511 0.802537,-0.32866 z m 10.422103,0.11369 h 0.891416 c 0.196145,0.16051 0.446476,0.25683 0.71882,0.25683 0.02999,0 0.05909,3.6e-4 0.08837,-0.003 l 0.02325,0.0636 c -0.113588,0.0579 -0.238573,0.11699 -0.378273,0.15968 l -0.136942,0.0501 -0.06098,-0.16536 -0.219622,0.0806 0.05994,0.16484 -0.146762,0.0532 0.01344,0.0367 c -0.117828,0.0448 -0.237166,0.0873 -0.356052,0.12713 l -0.05839,-0.15969 -0.220141,0.0796 0.0553,0.15194 c -0.152047,0.0459 -0.300747,0.0864 -0.440799,0.11782 l -0.0083,-0.062 c 0.157338,-0.14957 0.255799,-0.36139 0.255799,-0.59634 0,-0.127 -0.02861,-0.24794 -0.0801,-0.35553 z m -8.235156,0.1571 h 0.08733 c -0.01552,0.0631 -0.02427,0.12999 -0.02427,0.19843 0,0.31927 0.181712,0.59573 0.447001,0.73226 h -0.190172 v -0.12351 h -0.233578 v 0.12351 l -0.463535,-0.0253 c 0.240947,-0.14393 0.401524,-0.40637 0.401524,-0.70693 0,-0.0684 -0.0084,-0.13529 -0.02427,-0.19844 z m 1.685166,0 h 0.08733 c -0.01517,0.0631 -0.02427,0.12999 -0.02427,0.19843 0,0.31927 0.181712,0.59573 0.447001,0.73226 h -0.388091 v -0.12351 h -0.234093 v 0.12351 h -0.310574 c 0.265641,-0.13653 0.447001,-0.41299 0.447001,-0.73226 0,-0.0684 -0.0081,-0.13529 -0.02427,-0.19843 z m 1.68517,0 h 0.08785 c -0.01588,0.0631 -0.02427,0.12999 -0.02427,0.19843 0,0.31927 0.181007,0.59573 0.447001,0.73226 H 55.50172 v -0.12351 h -0.234092 v 0.12351 h -0.206192 c 0.265642,-0.13653 0.447001,-0.41299 0.447001,-0.73226 0,-0.0684 -0.0084,-0.13529 -0.02427,-0.19843 z m 3.280421,0 h 0.04237 c -0.01023,0.0409 -0.01746,0.0832 -0.0217,0.1266 -0.0035,-0.0434 -0.01044,-0.0857 -0.02067,-0.1266 z m 0.02067,0.27027 c 0.02505,0.28468 0.194193,0.52707 0.434082,0.66042 H 58.66327 v -0.12351 h -0.143146 c 0.148519,-0.13582 0.246757,-0.3249 0.265102,-0.53691 z m -1.616957,0.13332 c 0.05856,0.22966 0.214436,0.42091 0.421163,0.5271 H 57.082484 V 162.1249 H 56.92487 c 0.117122,-0.10654 0.202826,-0.24555 0.243396,-0.40359 z m -0.319878,0.4656 v 0.0615 H 56.74659 c 0.03563,-0.0183 0.06935,-0.0386 0.101801,-0.0615 z m 1.580783,0.009 v 0.0522 h -0.08785 c 0.03034,-0.0152 0.05998,-0.0328 0.08785,-0.0522 z"
       style="stroke-width:0.352778" />
  </g>
</svg>
