<?xml version="1.0" encoding="UTF-8" standalone="no"?>
<!-- Created with Inkscape (http://www.inkscape.org/) -->

<svg
   width="4.9647794mm"
   height="5.1987958mm"
   viewBox="0 0 4.9647794 5.1987958"
   version="1.1"
   id="svg2362"
   sodipodi:docname="inkporter-svg-whq6rvd5.svg"
   xmlns:inkscape="http://www.inkscape.org/namespaces/inkscape"
   xmlns:sodipodi="http://sodipodi.sourceforge.net/DTD/sodipodi-0.dtd"
   xmlns="http://www.w3.org/2000/svg"
   xmlns:svg="http://www.w3.org/2000/svg">
  <sodipodi:namedview
     id="namedview2364"
     pagecolor="#ffffff"
     bordercolor="#666666"
     borderopacity="1.0"
     inkscape:pageshadow="2"
     inkscape:pageopacity="0.0"
     inkscape:pagecheckerboard="0"
     inkscape:document-units="mm"
     showgrid="false"
     inkscape:zoom="0.64052329"
     inkscape:cx="397.33138"
     inkscape:cy="561.25984"
     inkscape:window-width="3840"
     inkscape:window-height="2081"
     inkscape:window-x="2391"
     inkscape:window-y="-9"
     inkscape:window-maximized="1"
     inkscape:current-layer="layer1" />
  <defs
     id="defs2359" />
  <g
     inkscape:label="Layer 1"
     inkscape:groupmode="layer"
     id="layer1"
     transform="translate(284.19866,-24.663464)">
    <path
       d="m -283.98889,29.86226 2.10849,-2.22257 0.028,0.0316 -0.0664,0.0692 -0.012,-0.004 -0.0321,0.0361 0.0972,0.0905 0.0334,-0.0334 -0.0443,-0.0416 0.0657,-0.0694 0.01,0.003 0.0677,-0.071 0.014,0.005 0.0465,-0.0469 -0.016,-0.005 0.5596,-0.58864 0.0212,0.007 0.0442,-0.0476 -0.0205,-0.007 0.0823,-0.0861 -0.0814,-0.0763 0.70079,-0.73793 c 0.0378,-0.01 0.10154,-0.0217 0.20616,-0.0825 0.0997,-0.058 0.30742,-0.17607 0.4695,-0.26799 0.12972,-0.0724 0.22934,-0.13046 0.22934,-0.13046 l 0.0335,-0.0334 10e-4,-0.0219 0.0685,-0.0729 0.0334,-0.12479 0.1048,-0.40929 c 0,0 0.0228,-0.10156 -0.0713,-0.19103 l -0.004,-10e-4 c -0.0935,-0.0915 -0.19378,-0.0649 -0.19378,-0.0649 l -0.40289,0.12539 -0.12316,0.039 -0.0699,0.0724 -0.0247,0.014 -0.0314,0.0341 c 0,0 -0.0523,0.10284 -0.11712,0.23445 -0.0837,0.1681 -0.1915,0.38161 -0.24436,0.48339 -0.0556,0.10618 -0.0691,0.17298 -0.071,0.20889 l -3.60874,3.80282 z"
       id="G-Pf" />
  </g>
</svg>
