<?xml version="1.0" encoding="UTF-8" standalone="no"?>
<!-- Created with Inkscape (http://www.inkscape.org/) -->

<svg
   width="15.92862mm"
   height="7.0458002mm"
   viewBox="0 0 15.92862 7.0458002"
   version="1.1"
   id="svg1854"
   sodipodi:docname="inkporter-svg-dewpmrui.svg"
   xmlns:inkscape="http://www.inkscape.org/namespaces/inkscape"
   xmlns:sodipodi="http://sodipodi.sourceforge.net/DTD/sodipodi-0.dtd"
   xmlns="http://www.w3.org/2000/svg"
   xmlns:svg="http://www.w3.org/2000/svg">
  <sodipodi:namedview
     id="namedview1856"
     pagecolor="#ffffff"
     bordercolor="#666666"
     borderopacity="1.0"
     inkscape:pageshadow="2"
     inkscape:pageopacity="0.0"
     inkscape:pagecheckerboard="0"
     inkscape:document-units="mm"
     showgrid="false"
     inkscape:zoom="0.90583672"
     inkscape:cx="294.20313"
     inkscape:cy="551.42388"
     inkscape:window-width="3072"
     inkscape:window-height="1665"
     inkscape:window-x="1912"
     inkscape:window-y="-8"
     inkscape:window-maximized="1"
     inkscape:current-layer="layer1" />
  <defs
     id="defs1851" />
  <g
     inkscape:label="Layer 1"
     inkscape:groupmode="layer"
     id="layer1"
     transform="translate(-116.33204,-136.52933)">
    <path
       d="m 125.02649,136.52933 0.52035,0.03 0.0487,0.1146 -0.16439,0.3115 h 0.8322 l 0.0734,-0.012 0.0945,-0.045 0.11042,-0.078 0.0737,-0.033 0.0568,-0.012 0.0374,0.01 0.0162,0.029 v 0.033 l -0.0247,0.033 -0.0367,0.037 -0.0166,0.041 -0.0162,0.053 -0.004,0.086 0.024,0.07 0.004,0.049 0.005,0.037 -0.0367,0.01 -0.0452,-0.012 -0.2868,-0.1023 h -0.40111 l -0.18486,0.082 0.0988,0.1764 -0.16016,0.1065 -0.0409,-0.164 h -0.0938 l -0.34431,0.1097 -0.0938,0.1767 5.33153,-0.041 0.21837,0.4654 0.81844,-0.3818 0.22613,0.4851 0.055,-0.026 0.0649,0.1394 -0.0554,0.026 0.10372,0.2222 -0.10972,0.051 0.036,0.077 0.10512,-0.049 0.20708,0.4449 0.0579,-0.027 0.0649,0.139 -0.0578,0.027 0.12276,0.2621 -0.11148,0.052 0.031,0.067 -0.139,0.065 -0.031,-0.067 -0.55845,0.2603 0.15558,0.3306 0.0607,-0.027 0.10971,0.2469 -0.0557,0.025 0.32738,0.6978 0.0243,0.2783 h -0.43356 l 0.0166,0.5162 h -0.0656 l -0.0332,-0.4177 -0.48683,0.054 0.0596,0.032 -0.001,0.1845 -0.0797,0.037 h -0.1076 c -0.006,0.096 -0.0191,0.1823 -0.0374,0.261 l 0.13089,0.1087 0.0413,0.086 -0.10971,0.1481 -0.0857,-0.017 -0.0741,-0.059 c -0.06,0.1154 -0.13547,0.2057 -0.21872,0.278 l 0.0332,0.1051 -0.0127,0.095 -0.17251,0.065 -0.0628,-0.061 -0.0173,-0.05 c -0.0713,0.036 -0.14288,0.064 -0.21167,0.087 l -0.0649,0.021 0.0127,0.067 -0.024,0.092 -0.17921,0.043 -0.0547,-0.069 -0.0127,-0.06 c -0.078,0.021 -0.16157,0.042 -0.248,0.063 l 0.006,0.052 -0.0303,0.09 -0.18169,0.031 -0.0501,-0.072 -0.005,-0.038 c -0.0773,0.018 -0.15311,0.035 -0.22648,0.051 l 0.002,0.079 -0.0377,0.088 -0.18415,0.014 -0.0437,-0.076 -0.002,-0.051 c -0.10725,0.02 -0.19615,0.035 -0.254,0.041 l 0.001,0.072 -0.0378,0.087 -0.1838,0.015 -0.0434,-0.076 -0.005,-0.091 h -0.32597 l -0.001,0.1323 -0.0409,0.086 -0.18415,0.01 -0.0406,-0.078 -0.002,-0.1471 H 127.432 l -0.001,0.1249 -0.0413,0.086 -0.1838,0.01 -0.0409,-0.078 -0.002,-0.1404 -0.27129,0.001 -0.001,0.1351 -0.0409,0.086 -0.18451,0.01 -0.0406,-0.078 -0.002,-0.1506 -0.23037,7e-4 -0.001,0.121 -0.0409,0.086 -0.1845,0.01 -0.0409,-0.078 -10e-4,-0.1369 -0.28822,7e-4 -7.1e-4,0.1034 -0.0413,0.086 -0.18451,0.01 -0.0409,-0.078 -10e-4,-0.1193 -0.25576,8e-4 -10e-4,0.098 -0.0409,0.086 -0.18415,0.01 -0.0409,-0.078 -0.001,-0.1147 h -0.3295 l -7e-4,0.1023 -0.0409,0.086 -0.1845,0.01 -0.0409,-0.078 -0.001,-0.1231 c -0.0826,0 -0.1651,-0.01 -0.24765,-0.01 l -7.1e-4,0.079 -0.0409,0.086 -0.1845,0.01 -0.0409,-0.078 -0.001,-0.1087 -0.24306,-0.014 -7.1e-4,0.061 -0.0409,0.086 -0.18415,0.01 -0.0409,-0.078 -0.001,-0.094 -0.31468,-0.02 -0.007,0.072 -0.0476,0.082 -0.18485,-0.01 -0.0339,-0.081 0.006,-0.083 -0.19297,-0.012 c -0.0547,0 -0.10795,-0.01 -0.1591,-0.014 l -0.0152,0.058 -0.0607,0.073 -0.18027,-0.037 -0.0212,-0.085 0.0141,-0.061 c -0.12841,-0.036 -0.24342,-0.088 -0.34537,-0.1615 l -0.0198,0.021 -0.0882,0.036 -0.14217,-0.1171 0.0215,-0.085 0.036,-0.041 c -0.054,-0.068 -0.10195,-0.1472 -0.14464,-0.2375 l -0.70732,0.027 -0.0247,-0.2293 -1.08303,0.037 c -0.061,0.6975 -0.64664,1.2446 -1.35996,1.2446 -0.6537,0 -1.1998,-0.4589 -1.33385,-1.0724 -0.043,0.011 -0.0875,0.016 -0.1337,0.016 -0.31221,0 -0.56515,-0.2533 -0.56515,-0.5652 0,-0.067 0.0116,-0.1319 0.0332,-0.1915 l 0.23283,-1.3522 0.008,-0.7782 0.39299,0.01 0.4258,-0.062 v -0.188 h -0.0328 v -0.1513 h 0.0328 v -0.3239 c -0.0596,0 -0.10653,-0.054 -0.10653,-0.1143 0,-0.063 0.0515,-0.1146 0.11465,-0.1146 0.0635,0 0.11465,0.051 0.11465,0.1146 0,0.041 -0.0212,0.077 -0.0529,0.097 v 0.3415 h 0.078 c 0.005,-0.1746 0.0554,-0.3115 0.11641,-0.3115 0.0642,0 0.11677,0.1531 0.11677,0.3422 0,0.1037 -0.0159,0.1965 -0.0409,0.2593 l 1.10561,-0.1605 v -0.072 h 0.43815 l 0.94474,-0.1284 -0.005,-0.03 1.09114,-0.1729 0.007,0.044 0.17392,-0.025 0.34043,-0.026 -0.003,-0.049 0.87983,-0.061 0.003,0.043 0.37641,-0.029 0.17569,-0.3044 0.0621,-0.5147 0.31997,-0.1468 0.11359,-0.1972 h 0.0653 v -0.081 h -0.0374 v -0.1 h 0.51752 l 0.22084,-0.3333 -1.87007,0.033 -7.1e-4,-0.029 h -0.12347 l -0.002,-0.091 h 0.12382 l -3.5e-4,-0.028 h 0.30409 v -0.1115 h 0.0205 v 0.1108 l 1.64677,-0.029 0.31962,-0.4929 z m -7.44961,2.8515 h -0.085 v 0.1778 l 0.12736,-0.018 c -0.019,-0.039 -0.0339,-0.095 -0.0423,-0.1595 m 6.47736,3.0177 c 0.0272,0.057 0.0617,0.098 0.0871,0.076 0.0152,-0.014 0.0533,-0.044 0.10019,-0.081 z m 5.44971,-0.1454 -0.0734,0.096 c -0.0409,0.053 0.26635,0.1965 0.27058,0.1143 0.001,-0.031 0.012,-0.1185 0.0254,-0.2159 z m -1.20121,0.1623 c 0,0 -0.23354,0.1965 -0.25012,0.2127 -0.10266,0.1027 0.36865,0.2336 0.34008,0.1066 -0.0286,-0.127 -0.09,-0.3193 -0.09,-0.3193 m 0.31009,-0.1369 c 0,0 0.14393,0.2692 0.15663,0.2886 0.0713,0.1101 0.26282,-0.2342 0.20285,-0.2995 l -0.33655,0.01 z m -2.74108,0.1866 c 0,0 -0.23389,0.1965 -0.25048,0.2131 -0.1023,0.1027 0.36866,0.2336 0.34008,0.1066 -0.0286,-0.127 -0.0896,-0.3197 -0.0896,-0.3197 m 0.62653,0.053 c 0.0385,-0.068 0.0642,-0.1468 0.0508,-0.1863 h -0.14252 c 0.0152,0.07 0.0554,0.1587 0.0917,0.1824 m -0.30939,-0.1768 0.0374,0.07 c -0.006,-0.023 -0.0102,-0.047 -0.0141,-0.07 z m -1.01846,0.3824 c -0.0381,-0.051 -0.0713,-0.1058 -0.0988,-0.164 -0.0494,-0.058 -0.10725,-0.1263 -0.15593,-0.1845 h -0.0822 l 0.078,0.4254 c 0.009,0.052 0.2039,-0.019 0.25894,-0.079 m 1.62101,-0.09 c -0.0247,0.042 -0.0522,0.083 -0.0833,0.1203 0.0155,0.061 0.27023,0.1725 0.27376,0.098 0.004,-0.07 0.0547,-0.4311 0.0695,-0.5337 l -0.0176,7e-4 z m -7.0986,-0.7369 c 0.0187,0.083 0.03,0.1686 0.0332,0.2565 h 0.61171 z m 4.74769,1.1271 0.10019,-0.1915 h 0.0339 c 0.0106,0 0.0169,-0.011 0.0176,-0.022 0.003,-0.054 0.0335,-0.2777 0.0543,-0.4258 h -0.0864 l -0.23777,0.309 c -0.031,0.039 0.13194,0.1295 0.21837,0.1386 l -0.10019,0.1891 c -0.0871,-0.026 -0.16863,-0.068 -0.24236,-0.1196 l -10e-4,0.1302 c 0.0811,0 0.16228,0.01 0.24377,0.01 z m 0.59796,-0.01 c -0.0325,0.011 -0.066,0.021 -0.10019,0.029 l 0.10019,-3e-4 z m 0.52422,0.028 c -0.0956,-0.052 -0.18309,-0.1079 -0.25999,-0.1767 l -0.0159,0.013 0.0257,0.034 -10e-4,0.1312 z m 1.73814,-0.1986 h 0.0674 c 0.0998,-0.01 0.23918,-0.086 0.19861,-0.1266 -0.0497,-0.049 -0.28257,-0.3285 -0.3496,-0.4086 l -0.0141,4e-4 z m -0.67804,0.1962 0.0293,-0.056 c -0.037,-0.022 -0.0727,-0.046 -0.10654,-0.074 -0.0473,0.037 -0.0988,0.069 -0.15275,0.097 l -3.5e-4,0.033 z m 1.35149,-0.066 -7e-4,0.06 h 0.16474 c -0.0568,-0.015 -0.11183,-0.035 -0.16404,-0.059 m -0.27234,0.062 0.091,-0.1711 -0.0268,-0.021 c -0.0811,0.081 -0.17744,0.1471 -0.28469,0.1933 z m 1.10807,-0.055 -7e-4,-0.016 c -0.0201,0.01 -0.0413,0.02 -0.0624,0.029 z m 0.46214,-0.2049 0.0751,-0.1951 c -0.0314,-0.02 -0.0614,-0.042 -0.09,-0.065 -0.0469,0.096 -0.10866,0.1834 -0.18345,0.2589 l 0.007,0.1503 c 0.0667,-0.015 0.13547,-0.03 0.20532,-0.046 z m 0.50977,-0.02 -0.007,-0.036 c -0.0833,0 -0.16369,-0.022 -0.23919,-0.049 l 0.0162,0.1439 c 0.0804,-0.02 0.15805,-0.04 0.23037,-0.059 m 0.50553,-0.3916 0.004,-0.025 c -0.0212,-0.024 -0.054,-0.061 -0.0938,-0.1076 l -0.21766,0.01 0.0395,0.217 c 0.0102,0.055 0.22895,-0.028 0.26776,-0.09 m -7.43832,0.5842 0.003,-0.042 c -0.0392,0.014 -0.0797,0.026 -0.12136,0.035 z m 0.25788,-0.1835 0.0289,0.045 -0.0155,0.1563 0.29351,0.019 -7e-4,-0.049 0.10195,-0.1926 h 0.10654 l 0.0656,0.086 -0.001,0.1683 0.23883,0.014 -3.6e-4,-0.035 0.10266,-0.1923 h 0.0459 c -0.10548,-0.1076 -0.1845,-0.2413 -0.22683,-0.3902 l -0.42898,0.012 h -0.0363 c -0.0614,0.1383 -0.15592,0.259 -0.27375,0.3514"
       id="G-SdKfz250" />
  </g>
</svg>
