<?xml version="1.0" encoding="UTF-8" standalone="no"?>
<!-- Created with Inkscape (http://www.inkscape.org/) -->

<svg
   width="18.614021mm"
   height="7.7466302mm"
   viewBox="0 0 18.614021 7.7466302"
   version="1.1"
   id="svg12008"
   sodipodi:docname="inkporter-svg-ye7tu6yu.svg"
   xmlns:inkscape="http://www.inkscape.org/namespaces/inkscape"
   xmlns:sodipodi="http://sodipodi.sourceforge.net/DTD/sodipodi-0.dtd"
   xmlns="http://www.w3.org/2000/svg"
   xmlns:svg="http://www.w3.org/2000/svg">
  <sodipodi:namedview
     id="namedview12010"
     pagecolor="#ffffff"
     bordercolor="#666666"
     borderopacity="1.0"
     inkscape:pageshadow="2"
     inkscape:pageopacity="0.0"
     inkscape:pagecheckerboard="0"
     inkscape:document-units="mm"
     showgrid="false"
     inkscape:zoom="0.64052329"
     inkscape:cx="397.33138"
     inkscape:cy="561.25984"
     inkscape:window-width="1920"
     inkscape:window-height="1017"
     inkscape:window-x="-8"
     inkscape:window-y="-8"
     inkscape:window-maximized="1"
     inkscape:current-layer="layer1" />
  <defs
     id="defs12005" />
  <g
     inkscape:label="Layer 1"
     inkscape:groupmode="layer"
     id="layer1"
     transform="translate(-53.91961,-165.64864)">
    <path
       d="m 71.454485,171.36769 v -0.0476 h -0.05856 v 0.0593 H 71.24035 l 0.282222,-0.44909 0.07373,-0.0222 0.93733,-1.64605 -1.068211,-1.40547 h -0.110067 v -0.61242 h 0.06597 v -0.12559 h -0.303036 v 0.12559 h 0.0441 v 0.0847 l -1.170164,-0.16192 -0.02893,-0.004 -0.220486,-0.0303 v -0.15981 l 0.02434,-0.01 -0.01729,-0.0441 -0.09172,0.0363 h -0.04833 v 0.0194 l -0.118886,0.0483 0.01764,0.0434 0.101247,-0.0409 v 0.19649 h 0.132997 v -0.042 l 0.237067,0.0332 1.182511,0.49742 v 0.14393 l -0.869597,-0.0116 v -0.3563 h -0.121356 l -0.0187,0.35454 -1.822803,-0.0247 c -0.04198,-0.0169 -0.182033,-0.0116 -0.182033,-0.0116 h -0.09596 l 0.01517,-0.0709 c 0,0 0.09313,-0.0998 0.08714,-0.17074 -0.0063,-0.0716 -0.270228,-0.30445 -0.335844,-0.3108 -0.06456,-0.006 -0.142523,0.16828 -0.185914,0.16122 l -0.105481,-0.031 -0.121355,-0.0681 -0.07761,-0.0991 0.07161,0.006 -0.06562,-0.15487 v -0.0628 c 0,0 0.0063,-0.004 0,-0.0621 -0.006,-0.0586 -0.03105,-0.0868 -0.03105,-0.0868 0,0 0.02505,-0.009 -0.09913,-0.10548 l -0.09313,-0.0307 -0.143227,-0.0127 -0.130175,0.0187 -0.1397,0.0896 -0.03387,0.0653 c 0,0 -0.0035,0.0621 -0.0254,0.1277 -0.02152,0.0653 -0.04621,0.0804 -0.101953,0.12383 l 0.05856,0.025 0.121003,0.0716 -0.01517,0.15487 0.05856,0.0123 0.02505,0.10266 c 0,0 0.0035,0.0561 0.02187,0.0656 0.0187,0.009 0.05927,-0.006 0.05927,-0.006 l 0.05856,-0.0183 0.08079,0.11783 -0.04974,0.13018 -0.0035,0.0113 -0.978959,-0.0131 0.02469,-0.12382 0.01094,-0.0921 -0.0081,-0.0917 -0.01446,-0.0808 -0.07796,-0.12806 -0.08325,-0.0367 -0.02258,-0.15134 -0.147461,0.0152 0.006,0.14463 -0.108303,-0.14605 -0.04445,-0.0917 -0.05539,-0.10054 -0.06738,-0.11642 -0.07232,-0.12558 -0.07796,-0.10866 -0.09984,-0.0998 -0.100542,-0.0843 -0.07796,-0.0441 -0.09172,-0.0335 -0.144639,-0.0713 0.01235,-0.09 -0.07161,-0.13723 -0.006,-0.084 -0.0099,-0.0692 -0.02117,-0.0646 -0.0441,-0.06 -0.06844,-0.031 -0.08114,-0.0275 -0.09666,-0.006 -0.105833,0.006 -0.09313,0.0212 -0.06279,0.0346 -0.05574,0.11571 -0.01235,0.0681 -0.04057,0.11536 -0.07514,0.031 0.134408,0.0406 0.04057,0.0593 -0.01587,0.13723 0.07161,0.0557 0.04692,0.11888 0.13723,0.025 0.04939,0.0889 0.0035,0.0624 -0.0441,0.11748 -0.122767,0.10054 -0.107244,0.097 -0.193675,-0.0356 -0.16122,-0.0677 -0.312208,-0.15029 -0.02187,-0.0596 -0.05574,-0.078 -0.05856,-0.0656 -0.08608,-0.0751 -0.0949,-0.0219 -0.006,0.0667 v 0.085 l 0.01305,0.0942 0.02646,0.0882 0.03739,0.0847 0.06668,0.0875 0.100542,0.10618 0.07902,0.0614 0.03387,0.13652 0.140758,-0.0794 -0.05856,-0.0744 0.08855,0.0448 0.122767,0.0723 0.14993,0.0896 0.117122,0.0497 0.117123,-0.006 0.0889,-0.0332 0.133702,-0.0162 h 0.133703 l 0.111831,0.072 0.06668,0.0554 0.133702,0.23424 0.07796,0.10548 v 0.0547 l -1.018822,-0.0138 -0.234597,-0.52529 -0.289278,0.16192 0.162984,0.35878 -1.973792,-0.0268 -0.09984,0.15698 -0.170039,0.0353 -0.12947,0.18874 -0.03104,0.29704 -0.08643,0.13582 -1.997427,0.27058 -0.03281,-0.10584 -0.235655,0.0349 0.0081,0.10619 -1.495778,0.20249 -0.02963,-0.0931 -0.23495,0.0353 0.0067,0.0924 -0.895702,0.12135 -0.03034,-0.0607 -0.376767,0.0356 0.0049,0.0801 -0.257881,0.0349 -0.04198,0.0455 v -0.14887 h -0.117828 v -0.0825 H 55.05097 v -0.40993 c 0.02152,-0.0123 0.03598,-0.0353 0.03598,-0.0614 0,-0.0384 -0.03246,-0.0702 -0.07091,-0.0702 -0.03951,0 -0.07091,0.0318 -0.07091,0.0702 0,0.0353 0.0254,0.0642 0.05856,0.0695 v 0.40182 h -0.05856 v 0.34078 l -0.143228,0.33972 -0.579614,1.3589 -0.06703,0.0579 -0.08184,0.0476 -0.0829,-0.0709 0.141464,-0.0702 0.02328,-0.11853 -0.199672,0.13017 -0.03598,0.11713 0.0829,0.11853 0.152752,0.0116 0.06985,-0.0346 0.155575,0.26211 c -0.02681,0.10936 -0.04057,0.22437 -0.04057,0.34219 0,0.80434 0.652286,1.45662 1.456619,1.45662 0.702734,0 1.290462,-0.49882 1.426281,-1.1624 l 0.473781,-0.0137 0.273755,-0.1838 0.565503,-0.0296 0.0071,0.0377 -0.128763,0.16263 0.08184,0.10125 0.140406,-0.0681 0.185561,0.25964 -0.08678,0.14958 0.0949,0.0889 0.158397,-0.1076 0.213077,0.11042 0.0081,0.1778 0.128411,0.0226 0.05997,-0.14041 0.269875,0.0536 0.01305,0.16334 0.129823,0.018 0.05644,-0.14817 0.268464,0.0399 0.0127,0.15593 0.128764,0.0176 0.05574,-0.14394 0.270228,0.0413 0.01235,0.15028 0.128764,0.018 0.05292,-0.13864 0.27305,0.042 0.01164,0.14429 0.128764,0.0183 0.05327,-0.13899 0.271286,0.0268 0.01305,0.1591 0.129117,0.0187 0.06385,-0.16616 0.247297,0.004 0.03245,0.14534 h 0.130175 l 0.03387,-0.14323 0.276225,0.004 0.03104,0.14041 h 0.13088 l 0.03175,-0.13864 0.278342,0.004 0.03034,0.13582 h 0.13088 l 0.03034,-0.1337 0.281164,0.004 0.02893,0.13017 h 0.13088 l 0.02963,-0.12876 0.282927,0.004 0.02752,0.12523 h 0.131233 l 0.02822,-0.12312 0.28575,0.004 0.02611,0.12065 h 0.130881 l 0.02787,-0.11853 0.287161,0.004 0.02611,0.11571 h 0.130175 l 0.02646,-0.1136 0.289983,0.004 0.0247,0.11077 h 0.130175 l 0.02505,-0.10865 0.280458,0.004 0.02399,0.10619 h 0.130175 l 0.02399,-0.10407 0.294217,0.004 0.02293,0.10125 h 0.130175 l 0.02258,-0.0991 0.297039,0.004 0.02152,0.0956 h 0.130175 l 0.02187,-0.0938 0.29845,0.004 0.02081,0.091 h 0.130175 l 0.02117,-0.0938 0.295628,-0.013 0.02434,0.10689 h 0.130175 l 0.02681,-0.1143 0.286103,-0.013 0.02822,0.12735 h 0.130175 l 0.03175,-0.13582 0.279047,-0.0123 0.03034,0.13511 h 0.130175 l 0.03563,-0.15311 0.28963,-0.0303 0.05292,0.13371 0.128058,-0.0198 0.01164,-0.1584 0.223308,-0.10336 0.168981,0.10231 0.09102,-0.0935 -0.08961,-0.13794 0.21343,-0.20037 0.164747,0.0363 0.05503,-0.11854 -0.119239,-0.0928 0.09313,-0.25435 0.164747,-0.0399 -0.0035,-0.13018 -0.156281,-0.0339 -0.0127,-0.19967 0.672042,-0.0759 v 0.084 h 0.368653 c 0.02187,0.0289 0.05715,0.0476 0.09701,0.0476 0.06809,0 0.123473,-0.0557 0.123473,-0.12418 0,-0.0681 -0.05539,-0.12382 -0.123473,-0.12382 h 0.206023 v 0.0473 h 0.05856 v -0.055 l 0.353483,0.13793 h 0.188736 v -0.41275 h -0.224014 z m -10.365316,1.54129 -0.262114,-0.0406 c -0.01376,-0.0649 -0.04127,-0.16263 -0.08925,-0.16969 -0.04339,-0.006 -0.08643,0.0751 -0.113242,0.13865 l -0.265289,-0.0406 c -0.01446,-0.0656 -0.04198,-0.15734 -0.08819,-0.16334 -0.04269,-0.006 -0.08396,0.0702 -0.110772,0.133 l -0.268817,-0.0392 c -0.0049,-0.0229 -0.01164,-0.0483 -0.01976,-0.0727 0.169334,-0.0536 0.3175,-0.15417 0.429684,-0.28646 h 0.425097 c 0.06138,0.21167 0.195086,0.39264 0.373592,0.514 z m 5.520972,-0.46073 c -0.02293,-0.0148 -0.03951,-0.0353 -0.04833,-0.0593 h 0.02963 c 0.006,0.0205 0.01305,0.0406 0.0187,0.0593 m -5.293784,-0.0159 c -0.05997,0.0349 -0.136877,0.0145 -0.172155,-0.0455 -0.0035,-0.006 -0.0056,-0.0106 -0.0078,-0.0159 h 0.233891 c -0.01058,0.0247 -0.02893,0.0469 -0.05397,0.0607 m 0.308681,0.23213 c -0.0695,0 -0.125942,-0.0572 -0.125942,-0.1263 0,-0.0695 0.05644,-0.12594 0.125942,-0.12594 0.06914,0 0.125589,0.0564 0.125589,0.12594 0,0.0692 -0.05645,0.1263 -0.125589,0.1263 m 0.290689,-0.21625 c -0.02752,-0.018 -0.04586,-0.0448 -0.05362,-0.0752 h 0.03986 c 0.0078,0.0282 0.01799,0.0557 0.02822,0.0825 -0.0046,-0.004 -0.0095,-0.005 -0.01446,-0.008 m 0.277283,0.52705 c -0.0099,-0.0289 -0.02434,-0.0635 -0.04163,-0.0938 0.02152,-0.0138 0.04163,-0.0282 0.06068,-0.0441 0.07161,0.0579 0.1524,0.10549 0.239184,0.14076 z m 0.31115,-0.35066 c -0.03563,0.0349 -0.08396,0.0494 -0.130175,0.0441 0.05856,-0.0773 0.104775,-0.16404 0.136525,-0.25788 0.05433,0.0614 0.05151,0.15487 -0.0063,0.21378 m 0.294922,0.21272 c -0.08608,0 -0.155575,-0.0695 -0.155575,-0.15486 0,-0.0861 0.0695,-0.15593 0.155575,-0.15593 0.08608,0 0.155928,0.0699 0.155928,0.15593 0,0.0854 -0.06985,0.15486 -0.155928,0.15486 m 0.294923,-0.21272 c -0.05997,-0.0614 -0.05997,-0.15946 0,-0.22049 0.03175,0.0956 0.07937,0.1838 0.138641,0.26318 -0.04904,0.009 -0.100541,-0.006 -0.138641,-0.0427 m 0.304094,0.36301 -0.259997,-0.006 c 0.09243,-0.0363 0.1778,-0.0861 0.252942,-0.14817 0.01517,0.0127 0.03104,0.0251 0.04692,0.036 -0.01799,0.0349 -0.03104,0.0811 -0.03986,0.11854 m 0.214136,0.004 -0.0088,-0.0258 c 0.02117,0.01 0.04339,0.0187 0.06526,0.0265 z m 0.06526,-0.5588 c 0.0064,-0.0173 0.01164,-0.0346 0.01729,-0.0519 h 0.02963 c -0.01023,0.0208 -0.02611,0.0388 -0.04692,0.0519 m 0.305153,0.23353 c -0.0695,0 -0.125942,-0.0572 -0.125942,-0.12629 0,-0.0695 0.05645,-0.12594 0.125942,-0.12594 0.06985,0 0.126294,0.0564 0.126294,0.12594 0,0.0691 -0.05644,0.12629 -0.126294,0.12629 m 0.239889,-0.28328 h 0.0448 c 0.0081,0.0268 0.01729,0.0522 0.02752,0.078 -0.0074,-0.004 -0.01446,-0.006 -0.02081,-0.0109 -0.0254,-0.0166 -0.04339,-0.0402 -0.0515,-0.067 m 0.115711,0.61595 h -0.05997 c 0.02223,-0.007 0.0441,-0.0152 0.06632,-0.0247 z m 0.4699,0.005 -0.25012,-0.004 c -0.0095,-0.031 -0.02681,-0.0787 -0.04868,-0.11783 0.02117,-0.0145 0.04269,-0.0303 0.06315,-0.0476 0.07232,0.0593 0.153811,0.1076 0.242006,0.14252 z m 0.05856,-0.37747 c -0.03634,0.0363 -0.08678,0.0508 -0.133703,0.0434 0.05786,-0.0787 0.104775,-0.16686 0.136525,-0.26141 0.05786,0.0614 0.05715,0.15805 -0.0035,0.21802 m 0.295628,0.21273 c -0.08608,0 -0.155575,-0.0695 -0.155575,-0.15487 0,-0.0861 0.0695,-0.15593 0.155575,-0.15593 0.08608,0 0.155575,0.0699 0.155575,0.15593 0,0.0854 -0.0695,0.15487 -0.155575,0.15487 m 0.294922,-0.21273 c -0.05362,-0.054 -0.05997,-0.13794 -0.01799,-0.19791 0.03175,0.0875 0.07585,0.16969 0.131586,0.24342 -0.04127,0 -0.08255,-0.0148 -0.113595,-0.0455 m 0.279753,0.387 -0.232833,-0.004 -0.0092,-0.0261 c 0.0889,-0.0342 0.171802,-0.0811 0.246238,-0.13899 0.01235,0.0102 0.02611,0.0198 0.03986,0.0296 -0.02152,0.0427 -0.03598,0.10125 -0.0441,0.13759 m 0.227895,0.004 c -0.0035,-0.0109 -0.0081,-0.0275 -0.01517,-0.0462 0.0441,0.0194 0.09102,0.0353 0.139347,0.0476 z m 0.354188,-0.34995 c -0.0695,0 -0.125941,-0.0572 -0.125941,-0.1263 0,-0.0695 0.05644,-0.12594 0.125941,-0.12594 0.06985,0 0.126295,0.0564 0.126295,0.12594 0,0.0692 -0.05644,0.1263 -0.126295,0.1263 m 0.359128,0.35772 h -0.148166 c 0.05574,-0.0134 0.109008,-0.0303 0.160513,-0.0533 -0.0056,0.0208 -0.0095,0.0399 -0.01235,0.0547 m 0.4699,0.005 -0.237772,-0.004 c -0.0053,-0.0205 -0.02752,-0.0928 -0.05927,-0.14605 0.01729,-0.0123 0.03387,-0.0247 0.05045,-0.0377 0.07655,0.0614 0.16263,0.11006 0.255411,0.14464 -0.0035,0.0159 -0.0067,0.0303 -0.0088,0.0413 m 0.04057,-0.40216 c -0.03316,0.0328 -0.07796,0.048 -0.12065,0.0448 0.0568,-0.0751 0.101952,-0.15946 0.133702,-0.25047 0.04762,0.0614 0.04269,0.14887 -0.01305,0.20567 m 0.294922,0.21272 c -0.08537,0 -0.155575,-0.0695 -0.155575,-0.15487 0,-0.0861 0.0702,-0.15593 0.155575,-0.15593 0.08608,0 0.155928,0.0699 0.155928,0.15593 0,0.0854 -0.06985,0.15487 -0.155928,0.15487 m 0.295628,-0.21272 c -0.06138,-0.0614 -0.06138,-0.15946 0,-0.22049 0.0035,-0.004 0.0078,-0.008 0.01235,-0.0113 h 0.195792 c 0.0042,0.004 0.0081,0.007 0.01164,0.0106 0.06068,0.061 0.06068,0.15911 0,0.22049 -0.06068,0.0603 -0.159103,0.0603 -0.21978,0 m 0.792339,0.34572 -0.26035,0.0116 c -0.02223,-0.0628 -0.06491,-0.16404 -0.115006,-0.16404 -0.04904,0 -0.08149,0.10478 -0.09807,0.17322 l -0.251531,0.0109 -0.0095,-0.0268 c 0.18415,-0.0751 0.338314,-0.20673 0.442384,-0.37359 0.09172,0.10407 0.207433,0.18803 0.337608,0.24271 -0.02081,0.0349 -0.03598,0.0854 -0.04551,0.12594 m 0.204611,-0.0201 c -0.0074,-0.019 -0.01658,-0.0406 -0.02681,-0.0614 0.07373,0.0187 0.151694,0.0293 0.230716,0.0293 0.0187,0 0.0374,0 0.05468,0.006 z m 0.203905,-0.4131 c -0.0695,0 -0.125941,-0.0561 -0.125941,-0.12559 0,-0.0695 0.05644,-0.12594 0.125941,-0.12594 0.06985,0 0.126295,0.0564 0.126295,0.12594 0,0.0695 -0.05644,0.12559 -0.126295,0.12559 m 0.465314,-0.25224 c -0.0381,0.0586 -0.115711,0.0752 -0.173567,0.037 -0.05891,-0.0377 -0.07514,-0.11642 -0.03739,-0.17498 0.03775,-0.0579 0.115711,-0.0744 0.174272,-0.0367 0.05786,0.0381 0.07444,0.11606 0.03669,0.17462 m 1.716969,-4.62702 -1.001888,-0.42157 1.001888,0.13864 z"
       style="fill:#000000;fill-opacity:1;fill-rule:nonzero;stroke:none;stroke-width:0.352778"
       id="G-SdKfz251-8cm" />
  </g>
</svg>
