<?xml version="1.0" encoding="UTF-8" standalone="no"?>
<!-- Created with Inkscape (http://www.inkscape.org/) -->

<svg
   width="28.67148mm"
   height="15.856129mm"
   viewBox="0 0 28.67148 15.856129"
   version="1.1"
   id="svg15601"
   inkscape:version="1.1.1 (3bf5ae0d25, 2021-09-20)"
   sodipodi:docname="inkporter-svg-fswrd51t.svg"
   xmlns:inkscape="http://www.inkscape.org/namespaces/inkscape"
   xmlns:sodipodi="http://sodipodi.sourceforge.net/DTD/sodipodi-0.dtd"
   xmlns="http://www.w3.org/2000/svg"
   xmlns:svg="http://www.w3.org/2000/svg">
  <sodipodi:namedview
     id="namedview15603"
     pagecolor="#ffffff"
     bordercolor="#666666"
     borderopacity="1.0"
     inkscape:pageshadow="2"
     inkscape:pageopacity="0.0"
     inkscape:pagecheckerboard="0"
     inkscape:document-units="mm"
     showgrid="false"
     inkscape:zoom="1.2810466"
     inkscape:cx="358.6911"
     inkscape:cy="503.49457"
     inkscape:window-width="1889"
     inkscape:window-height="1656"
     inkscape:window-x="3581"
     inkscape:window-y="141"
     inkscape:window-maximized="0"
     inkscape:current-layer="G-Infantry-MG5-4-Pfx3"
     inkscape:snap-nodes="true"
     inkscape:snap-bbox="true"
     inkscape:snap-others="true"
     inkscape:bbox-paths="true"
     inkscape:snap-global="true" />
  <defs
     id="defs15598">
    <clipPath
       clipPathUnits="userSpaceOnUse"
       id="clipPath48514-9-5-6-7-4">
      <path
         d="M 309.111,103.342 H 547.1 V 372.047 H 309.111 Z"
         id="path48512-3-2-8-8-0" />
    </clipPath>
    <clipPath
       clipPathUnits="userSpaceOnUse"
       id="clipPath48514-9-5-6-7-4-5">
      <path
         d="M 309.111,103.342 H 547.1 V 372.047 H 309.111 Z"
         id="path48512-3-2-8-8-0-2" />
    </clipPath>
    <clipPath
       clipPathUnits="userSpaceOnUse"
       id="clipPath48514-9-5-6-7-4-1">
      <path
         d="M 309.111,103.342 H 547.1 V 372.047 H 309.111 Z"
         id="path48512-3-2-8-8-0-4" />
    </clipPath>
  </defs>
  <g
     inkscape:label="Layer 1"
     inkscape:groupmode="layer"
     id="layer1"
     transform="translate(-136.12847,-21.766236)">
    <g
       id="G-SdKfz251-InfantryHQ">
      <g
         transform="translate(50.489148,178.73424)"
         id="g3763">
        <g
           id="G-InfantryCoC-SdKfz250-5"
           transform="translate(410.34119,-551.34194)">
          <path
             d="m -321.11233,399.74245 c -0.0258,0.0832 -0.0681,0.16616 -0.0945,0.19191 -0.0258,0.0265 -0.13159,0.13406 -0.13511,0.15628 -0.003,0.0233 -0.008,0.0568 0.031,0.09 0.0388,0.0324 0.0783,0.0406 0.12559,0.0519 0.0473,0.0116 0.23565,-0.0194 0.27164,-0.055 0.0356,-0.0356 0.0861,-0.13017 0.0995,-0.1531 0.0131,-0.0229 0.0116,0.003 0.0116,0.003 l 0.079,-0.0519 c 0,0 0.0148,-0.0801 0.005,-0.0942 -0.01,-0.0148 0.004,-0.0508 -0.005,-0.0783 -0.007,-0.0279 -0.0469,-0.0639 -0.0483,-0.0861 -0.001,-0.0236 0.003,-0.0427 -0.004,-0.0621 -0.006,-0.0198 -0.0307,-0.0325 -0.0388,-0.0392 -0.008,-0.007 -0.01,-0.0667 -0.0229,-0.0878 -0.0127,-0.0215 -0.003,-0.0162 0.0215,-0.031 0.0243,-0.0148 0.0695,-0.0716 0.0695,-0.0716 0,0 -0.0564,-0.003 -0.0744,0.002 -0.0187,0.004 -0.0395,0.0173 -0.0395,0.0173 l -0.024,-0.0116 c 0,0 -0.0116,-0.0459 -0.0409,-0.0663 -0.0296,-0.0212 -0.0437,-0.0829 -0.0437,-0.0829 l 0.0272,-0.0293 -0.0483,-0.0543 -0.0187,0.009 -0.0236,-0.0378 -0.0282,0.001 c 0,0 0.005,-0.19544 -0.01,-0.24095 -0.0152,-0.0455 -0.0811,-0.10901 -0.0861,-0.11536 -0.006,-0.007 -0.007,-0.0716 -0.0265,-0.0815 -0.0194,-0.01 -0.0501,-0.0293 -0.0501,-0.0293 0,0 -0.0233,-0.0847 -0.0131,-0.16475 0.01,-0.079 -0.054,-0.39405 -0.0631,-0.43285 -0.0106,-0.0392 0.009,-0.11395 0.0173,-0.16722 0.008,-0.0543 10e-4,-0.31327 10e-4,-0.31327 l 0.0868,-0.0568 c 0,0 -0.17286,-0.45897 -0.19721,-0.53411 -0.025,-0.0751 -0.0437,-0.17216 -0.0437,-0.17216 0,0 0.0991,-0.19579 0.10089,-0.23988 0.001,-0.0441 -0.003,-0.0991 0.0275,-0.13688 0.0307,-0.037 0.091,-0.24589 0.0554,-0.37112 -0.0356,-0.12559 -0.12242,-0.37148 -0.16793,-0.41417 -0.0451,-0.042 -0.0762,-0.0614 -0.0974,-0.13934 -0.0212,-0.078 -0.0374,-0.14182 -0.11395,-0.17392 -0.0769,-0.0328 -0.13335,-0.0296 -0.14852,-0.0494 -0.0145,-0.0198 -0.0409,-0.0342 -0.0632,-0.0342 -0.0229,0 -0.0702,0.0145 -0.0861,0 -0.0166,-0.0148 -0.0265,-0.0307 -0.0201,-0.06 0.007,-0.0293 0.0116,-0.0441 0.0116,-0.0441 l 0.16404,0.003 c 0,0 -0.0568,-0.127 -0.0663,-0.15805 -0.01,-0.0307 0.0684,-0.36759 -0.16475,-0.44556 -0.23283,-0.0787 -0.45579,-0.0589 -0.52599,0.0815 -0.0695,0.1397 -0.0681,0.28293 -0.15311,0.29422 -0.0847,0.0116 0.0684,0.0473 0.0684,0.0473 0,0 0,0.0293 0.0152,0.0328 0.0141,0.003 0.0307,0.0141 0.0127,0.0536 -0.0176,0.0392 -0.0635,0.0991 -0.0258,0.11078 0.0374,0.0113 0.0437,0.0159 0.0437,0.0159 l 0.007,0.0247 c 0,0 -0.006,0.0148 10e-4,0.0208 0.007,0.007 0.0279,0.0183 0.0279,0.0183 l 0.006,0.031 c 0,0 -0.0215,0.0113 -0.018,0.0194 0.004,0.008 0.024,0.0258 0.0145,0.0406 -0.01,0.0145 -0.0236,0.0571 -0.008,0.072 0.0166,0.0148 0.0882,0.0356 0.0882,0.0356 0,0 -0.0776,0.049 -0.11536,0.0843 -0.0374,0.0363 -0.067,0.0864 -0.0991,0.11712 -0.0328,0.0314 -0.0702,0.0706 -0.0536,0.0998 0.0162,0.0289 0.0208,0.0374 -0.002,0.0501 -0.0226,0.0138 -0.10548,0.10795 -0.11571,0.12877 -0.009,0.0215 -0.0794,0.0748 -0.11677,0.0928 -0.0377,0.0183 -0.0737,0.0247 -0.0737,0.0247 l -0.13935,-0.006 c 0,0 -0.0212,-0.0279 -0.0427,-0.0328 -0.0208,-0.005 -0.1076,-0.007 -0.1076,-0.007 l -0.0243,0.0395 -0.21026,0.003 c 0,0 -0.0356,-0.0194 -0.0504,-0.0152 -0.0145,0.005 -0.0582,0.005 -0.0582,0.005 l -0.15135,0.008 -0.0653,-0.003 c 0,0 -0.0265,-0.0127 -0.0769,-0.0113 -0.0501,0.001 -0.10865,0 -0.12311,0.01 -0.0152,0.01 -0.0526,0.0113 -0.0526,0.0113 l -0.32173,-0.008 10e-4,-0.0183 c 0,0 -0.10336,-0.005 -0.11889,-0.0402 -0.0166,-0.0363 -0.0166,-0.0557 -0.0166,-0.0557 h -0.054 l -0.008,0.0914 h -0.0448 v 0.0748 l 0.13511,0.013 0.091,0.0815 0.0131,-0.0455 c 0,0 0.0222,-0.008 0.0519,-0.007 0.0293,0.002 0.27728,0.0275 0.27728,0.0275 l 0.0159,-0.0275 c 0,0 0.0113,0.0131 0.0409,0.0198 0.0293,0.006 0.14464,0.0131 0.17886,0.0176 0.0346,0.005 0.0402,0.0229 0.0402,0.0395 v 0.0646 c 0,0 -0.0632,0.0229 -0.0632,0.0423 0,0.0194 0.0194,0.0438 0.0162,0.0554 -0.002,0.0113 -0.005,0.0409 -0.002,0.0504 10e-4,0.0102 0.0141,0.0258 0.0127,0.0406 -0.002,0.0152 10e-4,0.0346 0.0109,0.0473 0.0102,0.0134 0.008,0.0247 0.008,0.0427 0,0.0176 -0.01,0.0194 0.012,0.0325 0.0208,0.0134 0.0222,0.0229 0.0222,0.0229 v 0.28469 l 0.14358,0.005 -0.002,-0.28046 c 0,0 0.0363,0.005 0.0737,0 0.037,-0.005 0.0744,-0.0145 0.0744,-0.0145 0,0 0.0279,0.0956 0.0822,0.0956 0.0533,0 0.17569,-0.0907 0.17569,-0.0907 0,0 0.002,-0.0328 0.0762,-0.0131 0.0751,0.019 0.11888,0.0455 0.15346,0.0473 0.0339,0.002 0.18556,-0.0635 0.21766,-0.0162 0.0332,0.0473 0.0868,0.0275 0.0868,0.0275 0,0 -0.0882,0.25541 -0.0896,0.29457 -0.002,0.0392 0.018,0.11747 0.018,0.11747 0,0 -0.11395,0.19685 -0.13053,0.26353 -0.0166,0.067 -0.0145,0.067 -0.0293,0.0896 -0.0145,0.0226 -0.0275,0.0684 -0.0508,0.10442 -0.0222,0.0356 -0.0222,0.055 -0.0222,0.055 l 0.0388,0.0265 c 0,0 -0.20532,0.45896 -0.22472,0.51399 -0.0194,0.0557 -0.15452,0.21026 -0.13829,0.36019 0.0166,0.14958 0.018,0.29139 0.0215,0.31115 0.003,0.0194 0.0201,0.0515 0.009,0.0769 -0.0113,0.024 -0.0388,0.073 0.002,0.1016 0.0402,0.03 0.0497,0.0254 0.0497,0.0512 0,0.0254 0.0138,0.0505 0.0328,0.0663 0.0194,0.0162 0.0392,0.16439 0.0392,0.16439 l 0.0314,0.14852 c 0,0 -0.0138,0.024 -0.0247,0.0423 -0.0113,0.018 -0.007,0.036 -0.007,0.036 0,0 -0.013,0.0335 -0.0392,0.0501 -0.0258,0.0166 -0.0861,0.0963 -0.0861,0.0963 0,0 -0.0702,0.06 -0.10089,0.0684 -0.0307,0.008 -0.1517,0.06 -0.1517,0.06 0,0 -0.12488,0.0247 -0.13511,0.0653 -0.01,0.0409 -10e-4,0.0783 -10e-4,0.0783 l -0.0116,0.0293 c 0,0 0.12911,0.0384 0.18591,0.0441 0.0565,0.005 0.35631,-0.0928 0.40005,-0.10266 0.0444,-0.01 0.0603,-0.0148 0.0836,-0.0116 0.0226,0.004 0.0293,0.0374 0.0293,0.0374 0,0 0.16157,-0.01 0.20038,-0.0194 0.0388,-0.01 0.0402,-0.0406 0.0402,-0.0406 l -0.005,-0.0603 -0.0131,-0.0148 c 0,0 0.0557,-0.0892 0.0459,-0.14781 -0.01,-0.0589 -0.0353,-0.12383 -0.0353,-0.12383 0,0 0.002,-0.0931 -0.005,-0.11747 -0.009,-0.0243 0.003,-0.0501 0.003,-0.0702 0,-0.0194 -0.0229,-0.0748 -0.0257,-0.0928 -0.004,-0.0173 0.0127,-0.10443 0.0127,-0.10443 0,0 0.0861,-0.12029 0.0762,-0.15381 -0.009,-0.0346 0.0346,-0.12876 0.0229,-0.1524 -0.0109,-0.0222 -0.0272,-0.0825 -0.0342,-0.11042 -0.006,-0.0275 -0.005,-0.0473 0.01,-0.079 0.0148,-0.0328 0.0148,-0.0751 0.008,-0.11642 -0.007,-0.0402 -0.002,-0.0483 0.0759,-0.0808 0.0787,-0.0332 0.26458,-0.2219 0.29492,-0.27552 0.0311,-0.054 0.13088,-0.23107 0.18768,-0.10619 0.0575,0.12594 0.22931,0.5588 0.25753,0.60466 0.0272,0.0455 0.19791,0.36901 0.21449,0.40041 0.0162,0.0307 0.12911,0.10089 0.14322,0.12382 0.0145,0.0222 0.0702,0.17604 0.11889,0.18556 0.0487,0.01 0.12383,0 0.1464,0.0293 0.0233,0.0293 0.12594,0.13335 0.13194,0.145 0.007,0.0113 0.0243,0.0455 0.0212,0.0667 -0.003,0.0212 0.0282,0.0293 0.0409,0.0325 0.0131,0.004 0.0131,0.0765 0.0131,0.0765"
             id="path48118-1-0-4-1-2" />
          <path
             d="m -318.80891,400.37656 c -0.0119,-10e-4 -0.0537,-0.01 -0.0929,-0.0179 -0.0556,-0.0115 -0.0725,-0.0128 -0.0768,-0.006 -0.007,0.0115 -0.0875,-0.001 -0.15709,-0.0242 -0.0539,-0.018 -0.0614,-0.0309 -0.0413,-0.0712 0.006,-0.0125 0.0113,-0.0321 0.0113,-0.0437 0,-0.0115 0.004,-0.0275 0.008,-0.0355 0.006,-0.0109 0.005,-0.0201 -0.003,-0.0374 -0.0149,-0.0316 -0.0324,-0.12111 -0.038,-0.19376 l -0.005,-0.0608 0.0403,-0.0788 0.0403,-0.0788 -0.014,-0.0858 c -0.008,-0.0472 -0.0157,-0.0875 -0.0177,-0.0895 -0.002,-0.002 -0.0272,-0.004 -0.056,-0.005 -0.0287,-0.001 -0.0806,-0.004 -0.11531,-0.007 l -0.0631,-0.005 v 0.0255 c 0,0.0214 0.009,0.0358 0.0547,0.0892 0.0864,0.10046 0.0934,0.12243 0.071,0.22222 -0.0241,0.10762 -0.0257,0.11145 -0.0562,0.13751 -0.0279,0.0239 -0.0293,0.027 -0.0278,0.0621 10e-4,0.024 -0.002,0.0431 -0.01,0.0544 -0.0126,0.0192 -0.0143,0.0409 -0.008,0.10781 0.004,0.0376 0.002,0.0476 -0.0103,0.0629 -0.027,0.0342 -0.094,0.0395 -0.2262,0.0179 -0.0911,-0.0149 -0.11173,-0.0301 -0.11173,-0.082 0,-0.0322 0.004,-0.0438 0.033,-0.0864 0.0381,-0.0569 0.0453,-0.0735 0.0534,-0.12288 0.004,-0.025 0.003,-0.0429 -0.004,-0.0584 -0.005,-0.0123 -0.0116,-0.0399 -0.0145,-0.0613 -0.003,-0.0214 -0.0109,-0.0535 -0.0179,-0.0714 -0.007,-0.0179 -0.0147,-0.0633 -0.0174,-0.10092 -0.006,-0.0839 -0.0252,-0.19463 -0.034,-0.19463 -0.004,0 -0.007,0.0397 -0.007,0.0883 -6e-5,0.0486 -0.003,0.0927 -0.006,0.0981 -0.01,0.0157 -0.0674,0.0187 -0.10601,0.005 -0.0463,-0.0158 -0.12039,-0.0157 -0.13358,2.2e-4 -0.007,0.009 -0.0101,0.0376 -0.0105,0.10632 l -7e-4,0.0944 -0.0258,-7.1e-4 c -0.0384,-10e-4 -0.0951,-0.0218 -0.15062,-0.0549 -0.0272,-0.0162 -0.0494,-0.0304 -0.0494,-0.0314 0,-0.001 0.003,-0.0257 0.007,-0.0547 0.006,-0.0474 0.0229,-0.26997 0.0432,-0.58261 0.007,-0.10678 0.0142,-0.25655 0.0294,-0.61273 0.004,-0.0892 0.0101,-0.32763 0.014,-0.52983 0.004,-0.2022 0.0104,-0.40819 0.0146,-0.45774 0.0269,-0.32331 0.0444,-0.44628 0.0978,-0.68971 0.0176,-0.08 0.0339,-0.16921 0.0363,-0.19824 0.004,-0.0486 0.003,-0.0539 -0.0118,-0.0672 -0.0157,-0.014 -0.0164,-0.014 -0.0243,-10e-4 -0.0478,0.0793 -0.0959,0.13588 -0.12585,0.14829 -0.0168,0.007 -0.0257,0.007 -0.0453,-10e-4 -0.0373,-0.0157 -0.0956,-0.065 -0.14036,-0.11878 -0.0605,-0.0726 -0.19437,-0.277 -0.21155,-0.32293 -0.0175,-0.0469 -0.0277,-0.11231 -0.0303,-0.19578 l -0.002,-0.0593 0.0591,-0.0606 c 0.0325,-0.0333 0.0591,-0.0645 0.0591,-0.0692 0,-0.005 0.0176,-0.027 0.039,-0.0495 0.0285,-0.0299 0.0404,-0.0486 0.0442,-0.0697 0.009,-0.0474 0.0245,-0.0803 0.044,-0.0907 0.0101,-0.005 0.0261,-0.0252 0.0357,-0.044 0.01,-0.0188 0.0268,-0.045 0.0384,-0.0582 0.017,-0.0194 0.0225,-0.0348 0.029,-0.0813 0.0132,-0.0952 0.0825,-0.19172 0.1446,-0.20155 0.0179,-0.003 0.0572,-0.0157 0.0874,-0.0287 0.0303,-0.013 0.0724,-0.0275 0.0937,-0.0323 0.0916,-0.0207 0.15834,-0.0565 0.26303,-0.14088 0.0606,-0.0489 0.0989,-0.0847 0.0972,-0.0908 -0.007,-0.026 -0.0154,-0.063 -0.0191,-0.088 -0.003,-0.0219 -0.007,-0.0266 -0.0167,-0.0234 -0.0151,0.005 -0.0339,-0.008 -0.048,-0.0322 -0.0347,-0.0603 -0.0612,-0.12155 -0.0612,-0.14153 0,-0.0212 0.0151,-0.0458 0.028,-0.0458 0.003,0 0.0107,-0.0111 0.0171,-0.0247 0.0105,-0.0221 0.0106,-0.0256 10e-4,-0.0338 -0.007,-0.006 -0.0104,-0.0194 -0.009,-0.0384 0.001,-0.0161 0.001,-0.0463 7e-4,-0.0671 l -10e-4,-0.0379 h -0.0291 c -0.0768,0 -0.13151,-0.0646 -0.0821,-0.097 0.0804,-0.0527 0.34233,-0.0901 0.5279,-0.0755 0.0823,0.007 0.21081,0.0359 0.26088,0.0598 0.057,0.0272 0.0464,0.0624 -0.0276,0.0917 -0.0225,0.009 -0.0449,0.0193 -0.0499,0.0231 -0.0102,0.008 -0.0125,0.0743 -0.003,0.0802 0.007,0.004 0.002,0.0402 -0.005,0.0403 -0.002,3e-5 -0.005,0.0236 -0.006,0.0523 -10e-4,0.0477 -0.0163,0.12447 -0.031,0.16032 -0.003,0.008 -0.008,0.0323 -0.01,0.0541 -0.002,0.0218 -0.0106,0.0567 -0.0186,0.0776 -0.0284,0.0742 -0.0306,0.071 0.10985,0.16279 0.16921,0.11064 0.25016,0.15811 0.32259,0.18919 0.0663,0.0284 0.10211,0.0519 0.11949,0.0785 0.006,0.009 0.0307,0.0942 0.0546,0.18875 0.0647,0.25529 0.0757,0.30567 0.0924,0.42285 0.008,0.0588 0.0231,0.13174 0.0328,0.16219 0.0187,0.0585 0.0218,0.11514 0.0119,0.21399 -0.003,0.0278 -0.003,0.0635 -1.5e-4,0.0793 0.003,0.0158 0.002,0.0585 -0.001,0.0949 -0.005,0.0574 -0.012,0.0804 -0.0517,0.17587 -0.0424,0.10203 -0.0479,0.11139 -0.0777,0.13217 -0.12089,0.0844 -0.1313,0.13013 -0.0731,0.32135 0.0162,0.0534 0.0361,0.1318 0.0441,0.17416 0.0196,0.1042 0.0642,0.26448 0.11595,0.41695 0.0236,0.0695 0.0589,0.18681 0.0786,0.26075 0.0318,0.11964 0.0527,0.18375 0.12998,0.3992 0.0114,0.0318 0.0323,0.10806 0.0463,0.1694 0.0319,0.13906 0.0467,0.18424 0.13159,0.39987 0.0686,0.1744 0.14617,0.39894 0.14617,0.42323 0,0.008 -0.009,0.017 -0.0234,0.0229 -0.0756,0.0317 -0.12015,0.0482 -0.28293,0.10522 l -0.18021,0.0631 0.002,0.0397 c 0.003,0.0515 7.1e-4,0.0532 -0.15021,0.10218 -0.0654,0.0212 -0.13648,0.0456 -0.15791,0.0542 -0.0214,0.009 -0.0429,0.014 -0.0476,0.0122 -0.008,-0.003 -0.0255,-0.0877 -0.0503,-0.24574 -0.0113,-0.0717 -0.017,-0.0829 -0.0426,-0.0831 -0.0129,-1.5e-4 -0.0134,0.005 -0.009,0.099 0.002,0.0545 0.007,0.1256 0.009,0.15796 0.004,0.0447 0.001,0.0671 -0.007,0.0932 -0.006,0.0189 -0.0117,0.0436 -0.0117,0.0549 0,0.0113 -0.005,0.0323 -0.0108,0.0466 -0.009,0.0204 -0.009,0.0283 -0.002,0.0364 0.007,0.008 0.007,0.0136 2.2e-4,0.0239 -0.007,0.0106 -0.006,0.0179 0.002,0.0337 0.006,0.0111 0.014,0.0339 0.0181,0.0507 0.006,0.0254 0.0158,0.0372 0.0577,0.0706 0.0276,0.022 0.055,0.0495 0.061,0.061 0.0135,0.0261 0.0141,0.0749 10e-4,0.0857 -0.0108,0.009 -0.0828,0.0157 -0.11641,0.0109 z m 0.0765,-3.86115 c 0.009,-0.0168 0.0216,-0.0384 0.029,-0.0478 0.007,-0.009 0.0134,-0.0269 0.0134,-0.0388 0,-0.0119 0.007,-0.0325 0.0149,-0.0458 0.0173,-0.028 0.0144,-0.0431 -0.0134,-0.0698 l -0.0199,-0.0191 -2.8e-4,0.0304 c -1.5e-4,0.0168 -0.009,0.0499 -0.0192,0.0737 -0.0261,0.0598 -0.0373,0.10545 -0.0316,0.12838 0.003,0.0107 0.006,0.0194 0.008,0.0194 0.002,0 0.0103,-0.0138 0.0189,-0.0306 z m -1.20065,-0.19351 c 0.008,-0.0131 -0.005,-0.24441 -0.0133,-0.24441 -0.006,0 -0.10416,0.0427 -0.16909,0.0739 -0.0165,0.008 -0.022,0.0198 -0.009,0.0198 0.0132,0 0.10933,0.0964 0.12312,0.1234 0.008,0.0148 0.0194,0.0284 0.0265,0.0302 0.0232,0.006 0.0371,0.005 0.042,-0.003 z"
             id="path13056-29" />
          <path
             d="m -316.81082,400.47497 c -0.0538,0.0207 -0.13643,0.0317 -0.19293,-0.022 -0.0579,-0.0551 -0.0785,-0.16261 -0.0648,-0.25356 0.0138,-0.091 0.0648,-0.29352 0.0648,-0.29352 l -0.0275,-0.0469 0.01,-0.0496 -0.0303,-0.0441 0.0413,-0.0923 -0.011,-0.0303 -0.0386,-0.30041 -0.01,-0.008 -0.011,-0.0248 c 0,0 -0.0289,-0.21773 -0.0289,-0.25907 0,-0.0413 0.01,-0.13642 0,-0.15985 -0.008,-0.0234 -0.0331,-0.0427 -0.0413,-0.0772 -0.01,-0.0345 -0.004,-0.0868 0.0179,-0.11162 0.022,-0.0234 0.0482,-0.0317 0.04,-0.0469 -0.01,-0.0138 -0.0386,-0.0455 -0.04,-0.062 -10e-4,-0.0152 0.005,-0.0469 0.022,-0.0896 0.0165,-0.0441 0.007,-0.18328 0.007,-0.18328 0,0 -0.0565,-0.0537 -0.0413,-0.0868 0.0138,-0.0331 0.008,-0.27009 0.011,-0.35691 0.001,-0.0882 -0.004,-0.28525 -0.004,-0.28525 0,0 -0.11438,-0.0565 -0.11024,-0.0854 0.003,-0.0289 0.062,-0.40239 0.0648,-0.42168 0.004,-0.0207 0.0276,-0.14056 0.0276,-0.14883 0,-0.01 -0.0276,-0.0289 -0.0289,-0.0372 l 0.004,-0.0193 c 0,0 -0.006,0.011 -0.0317,-0.0124 -0.0248,-0.0234 -0.0868,-0.0358 -0.0868,-0.0358 0,0 -0.23289,-0.11713 -0.24253,-0.16812 -0.0152,-0.0937 0.007,-0.30592 0.007,-0.30592 0,0 0.004,-0.14607 0.0165,-0.16261 0.01,-0.0179 0.051,-0.0427 0.0537,-0.0537 0.003,-0.01 -0.0386,-0.062 -0.0138,-0.0951 0.0262,-0.0345 0.073,-0.10886 0.0799,-0.13229 0.007,-0.0248 0.0386,-0.10335 0.051,-0.12816 0.0124,-0.0262 0.0937,-0.19292 0.12679,-0.21773 0.0331,-0.0248 0.0524,-0.0262 0.062,-0.0303 0.01,-0.003 0.0537,-0.0358 0.0537,-0.0358 0,0 0.0303,-0.0345 0.0579,-0.051 0.0276,-0.0165 0.16123,-0.0992 0.16123,-0.0992 l 0.0207,0.0345 c 0,0 0.008,-0.01 0.0441,-0.0207 0.0372,-0.011 0.062,-0.0221 0.062,-0.0221 0,0 0.0165,0.01 0.0207,0.004 0.003,-0.004 0,-0.0317 0.005,-0.04 0.006,-0.008 0.0234,-0.0207 0.0234,-0.0207 0,0 -0.001,-0.0179 0.01,-0.0317 0.0124,-0.0124 0.0276,-0.0179 0.0276,-0.0179 l 0.0179,0.003 0.004,-0.15572 c 0,0 -0.0772,-0.0179 -0.1185,-0.0469 -0.0413,-0.0289 -0.0469,-0.0455 -0.0386,-0.0661 0.008,-0.0193 0.0854,-0.16123 0.0854,-0.16123 0,0 0.0207,-0.14194 0.0372,-0.22325 0.0152,-0.0827 0.10886,-0.1502 0.2067,-0.15847 0.0978,-0.007 0.22324,0.003 0.30317,0.0593 0.0799,0.0565 0.0951,0.15159 0.0951,0.15986 0,0.007 -0.003,0.17225 -0.003,0.17225 0,0 0.0234,0.0317 0.0234,0.0482 0,0.0165 -0.0138,0.0289 -0.0165,0.0358 -0.003,0.005 -0.008,0.0455 10e-4,0.0813 0.011,0.0372 0.008,0.0482 -0.004,0.0579 -0.0124,0.0124 -0.0358,0.0345 -0.0661,0.0358 -0.0303,10e-4 -0.0441,10e-4 -0.0441,10e-4 0,0 -0.0648,0.12265 -0.0689,0.12816 -0.003,0.006 -0.003,0.0469 -0.003,0.0469 0,0 0.0276,-0.007 0.04,0.0193 0.011,0.0248 0.0303,0.10198 0.0303,0.10198 l 0.0289,0.0606 c 0,0 0.0579,0.0138 0.0648,0.0193 0.007,0.006 0.0193,0.0152 0.0193,0.0152 0,0 0.0124,-0.0124 0.0469,-0.007 0.0344,0.006 0.12264,0.0331 0.13505,0.0413 0.0138,0.008 0.0138,0.0179 0.01,0.022 -0.006,0.005 -0.006,0.0165 0,0.0248 0.005,0.008 0.0262,0.0289 0.0317,0.0758 0.006,0.0469 0.022,0.0799 0.0276,0.0854 0.003,0.007 0.0455,0.1061 0.0441,0.13229 -10e-4,0.0276 0.001,0.0648 0.0152,0.0978 0.0124,0.0345 0.0372,0.0703 0.0413,0.13229 0.006,0.0606 0.004,0.0744 0.0138,0.10611 0.011,0.0303 0.008,0.0703 0.008,0.0703 l 0.0372,0.11438 c 0,0 -10e-4,0.073 0.0234,0.0965 0.0262,0.0234 0.0345,0.0455 0.0289,0.0675 -0.003,0.022 -0.011,0.051 -0.003,0.0634 0.01,0.0138 0.0138,0.0262 0.0138,0.0469 10e-4,0.022 0.011,0.0551 0.0179,0.0882 0.003,0.0179 0.004,0.0606 0.004,0.0992 0.0317,-0.004 0.0717,-0.007 0.0758,0.004 0.004,0.0193 -0.022,0.0386 -0.0165,0.051 0.005,0.011 0.3514,0.2012 0.3514,0.2012 l 0.0138,0.0469 0.34864,0.18466 c 0,0 0.0345,0 0.0482,-0.008 0.0138,-0.007 0.0372,-0.0469 0.0372,-0.0469 l 0.0372,0.0207 c 0,0 -0.0358,0.051 -0.0358,0.0675 0,0.0165 0.01,0.0289 0.01,0.0289 l -0.0179,0.0386 -0.051,-0.0289 c 0,0 -0.0537,0.006 -0.0799,0.0165 -0.0234,0.0124 -0.0455,0.006 -0.0455,-0.0165 0,-0.0234 0.004,-0.04 0.004,-0.04 l -0.30317,-0.14607 h -0.0441 l -0.0689,-0.0413 -0.0413,0.007 -0.0565,0.11989 -0.0234,-10e-4 -0.25632,0.46853 -0.0965,-0.0565 0.2508,-0.46716 -0.0207,-0.0179 0.0372,-0.0648 -0.0441,-0.0441 c 0,0 -0.0124,0.0207 -0.0262,0.022 -0.0124,0 -0.0427,-0.0289 -0.0427,-0.0289 0,0 -0.0165,0.022 -0.0289,0.0234 -0.0138,0.003 -0.0276,-0.004 -0.0372,-0.004 -0.011,-10e-4 -0.0152,0.007 -0.0262,0.01 -0.011,0.003 -0.0262,10e-4 -0.0317,0.003 -0.006,10e-4 -0.0234,0.006 -0.0234,0.006 l -0.0923,-0.0882 c 0.0207,0.14469 0.11989,0.35002 0.11989,0.35002 l -0.0317,0.1819 -0.051,0.0868 c 0,0 -0.0124,0.022 -0.0152,0.0331 -0.003,0.0124 -0.0331,0.0372 -0.0331,0.0372 0,0 -0.04,0.20808 -0.0482,0.25493 -0.008,0.0482 -0.022,0.0813 -0.0234,0.12954 0,0.0469 -0.0193,0.0799 -0.0234,0.1006 -0.003,0.0207 -0.007,0.1254 -0.001,0.15985 0.006,0.0331 0.04,0.11989 0.0413,0.16261 10e-4,0.0413 0.003,0.0772 -0.0207,0.10749 -0.022,0.0289 -0.0358,0.0234 -0.0441,0.0923 -0.007,0.0689 -0.007,0.21498 -0.007,0.22463 -0.001,0.0124 10e-4,0.0413 0,0.0469 -0.003,0.007 -0.0248,0.0124 -0.0276,0.0207 -0.001,0.007 -0.005,0.22186 -0.005,0.22186 l 0.0248,0.0482 -0.0124,0.0289 c 0,0 0.0496,0.0317 0.051,0.051 0,0.0193 -0.0331,0.04 -0.0207,0.0565 0.011,0.0165 0.10198,0.14194 0.13229,0.15159 0.0289,0.01 0.0455,0.004 0.051,0.0193 0.005,0.0165 0.0138,0.0317 0.0152,0.0358 0.001,0.004 0.0482,-0.0152 0.062,-0.008 0.0124,0.007 0.0276,0.0248 0.0386,0.0275 0.01,0.004 0.0524,-0.004 0.0648,0.0289 0.011,0.0345 0.0193,0.0854 0.0165,0.0965 -0.003,0.011 -0.0248,0.0413 -0.0689,0.0648 -0.0441,0.0234 -0.15296,0.0469 -0.21911,0.0345 -0.0689,-0.0124 -0.26734,-0.13918 -0.26734,-0.13918 l -0.0661,0.0386 c 0,0 -0.10335,-0.0193 -0.12539,-0.0345 -0.022,-0.0152 -0.0262,-0.0248 -0.0262,-0.0317 -10e-4,-0.008 0,-0.0606 0,-0.0606 0,0 -0.0276,-0.0482 -0.0262,-0.0744 0.003,-0.0248 0.01,-0.0579 0.0152,-0.0648 0.004,-0.008 -0.001,-0.0138 -0.011,-0.0207 -0.008,-0.007 -0.0207,-0.0331 -0.008,-0.0565 0.0124,-0.022 0.0482,-0.0565 0.0524,-0.0606 0.003,-0.007 -0.011,-0.0234 -0.0234,-0.0303 -0.0124,-0.008 -0.0386,-0.32659 -0.0372,-0.33486 0.003,-0.007 -0.004,-0.0152 -0.0262,-0.0317 -0.0234,-0.0165 0.0207,-0.17087 0.0248,-0.21222 0.005,-0.0413 0.022,-0.0689 0.001,-0.0992 -0.0193,-0.0303 -0.0344,-0.10611 -0.0221,-0.14608 0.011,-0.0413 0.0193,-0.0593 0.0193,-0.091 0,-0.0289 0.0179,-0.0841 0.0193,-0.0951 0.003,-0.011 -0.0331,-0.0937 -0.04,-0.11576 -0.007,-0.0207 -0.0207,-0.0717 -0.0317,-0.0675 -0.011,0.004 -0.0469,0.0841 -0.0496,0.10749 -0.004,0.0248 -0.0165,0.0386 -0.0262,0.14882 -0.008,0.11163 -0.011,0.13781 -0.0165,0.15159 -0.007,0.0138 -0.0152,0.0234 -0.0179,0.0427 -0.003,0.0193 -10e-4,0.0386 -0.0124,0.0468 -0.011,0.01 -0.007,0.0262 0.007,0.0469 0.0138,0.0207 0.0317,0.0469 0.0193,0.091 -0.0138,0.0455 -0.0331,0.0868 -0.0455,0.10198 -0.011,0.0138 -0.0138,0.0896 -0.0179,0.10611 -0.004,0.0152 -0.0124,0.30592 -0.0124,0.30592 0,0 -0.011,0.0234 -0.0345,0.0276 -0.022,0.006 -0.0317,0.27424 -0.0317,0.27975 -0.001,0.006 0.0221,0.0634 0.0234,0.073 10e-4,0.007 0.005,0.0427 -0.005,0.0579 -0.011,0.0152 -0.0193,0.0289 -0.0193,0.0441 0,0.0152 -0.005,0.0482 -0.0165,0.0579 -0.011,0.008 0.007,0.19843 0.008,0.22048 0.001,0.0207 0.001,0.1695 0.001,0.19982 -0.001,0.0303 -0.01,0.12264 -0.0303,0.1502 -0.0234,0.0358 -0.0413,0.0524 -0.0413,0.0524"
             id="path4681-05" />
        </g>
        <g
           id="G-Infantry2iC-SdKfz250-6"
           transform="translate(405.6124,-551.0692)">
          <path
             d="m -294.8912,399.50397 c 0.0258,0.0833 0.0681,0.16616 0.0946,0.19191 0.0258,0.0265 0.13158,0.13406 0.13511,0.15628 0.003,0.0233 0.008,0.0568 -0.031,0.09 -0.0388,0.0325 -0.0783,0.0406 -0.12559,0.0519 -0.0473,0.0116 -0.23565,-0.0194 -0.27164,-0.055 -0.0356,-0.0356 -0.0861,-0.13018 -0.0995,-0.15311 -0.0131,-0.0229 -0.0116,0.003 -0.0116,0.003 l -0.079,-0.0519 c 0,0 -0.0148,-0.0801 -0.005,-0.0942 0.01,-0.0148 -0.004,-0.0508 0.005,-0.0783 0.007,-0.0279 0.0469,-0.0639 0.0483,-0.0861 10e-4,-0.0236 -0.003,-0.0427 0.004,-0.0621 0.006,-0.0197 0.0307,-0.0324 0.0388,-0.0392 0.008,-0.007 0.01,-0.0667 0.0229,-0.0878 0.0127,-0.0215 0.003,-0.0162 -0.0215,-0.031 -0.0243,-0.0148 -0.0695,-0.0716 -0.0695,-0.0716 0,0 0.0564,-0.003 0.0744,0.002 0.0187,0.004 0.0395,0.0173 0.0395,0.0173 l 0.024,-0.0116 c 0,0 0.0116,-0.0459 0.0409,-0.0663 0.0296,-0.0212 0.0437,-0.0829 0.0437,-0.0829 l -0.0272,-0.0293 0.0483,-0.0543 0.0187,0.009 0.0236,-0.0377 0.0282,10e-4 c 0,0 -0.005,-0.19543 0.01,-0.24094 0.0152,-0.0455 0.0811,-0.10901 0.0861,-0.11536 0.006,-0.007 0.007,-0.0716 0.0265,-0.0815 0.0194,-0.01 0.0501,-0.0293 0.0501,-0.0293 0,0 0.0233,-0.0847 0.0131,-0.16475 -0.01,-0.079 0.054,-0.39405 0.0632,-0.43286 0.0106,-0.0392 -0.009,-0.11395 -0.0173,-0.16722 -0.008,-0.0543 -10e-4,-0.31326 -10e-4,-0.31326 l -0.0868,-0.0568 c 0,0 0.17286,-0.45896 0.1972,-0.53411 0.025,-0.0751 0.0437,-0.17215 0.0437,-0.17215 0,0 -0.0991,-0.19579 -0.1009,-0.23989 -0.001,-0.0441 0.003,-0.0991 -0.0275,-0.13688 -0.0307,-0.037 -0.091,-0.24588 -0.0554,-0.37112 0.0356,-0.12559 0.12241,-0.37147 0.16792,-0.41416 0.0452,-0.042 0.0762,-0.0614 0.0974,-0.13935 0.0212,-0.078 0.0374,-0.14181 0.11395,-0.17392 0.0769,-0.0328 0.13335,-0.0296 0.14852,-0.0494 0.0145,-0.0197 0.0409,-0.0342 0.0631,-0.0342 0.0229,0 0.0702,0.0145 0.0861,0 0.0166,-0.0148 0.0265,-0.0307 0.0201,-0.06 -0.007,-0.0293 -0.0116,-0.0441 -0.0116,-0.0441 l -0.16404,0.003 c 0,0 0.0568,-0.127 0.0663,-0.15804 0.01,-0.0307 -0.0684,-0.3676 0.16475,-0.44556 0.23283,-0.0787 0.45578,-0.0589 0.52599,0.0815 0.0695,0.1397 0.0681,0.28293 0.1531,0.29422 0.0847,0.0116 -0.0684,0.0473 -0.0684,0.0473 0,0 0,0.0293 -0.0152,0.0328 -0.0141,0.003 -0.0307,0.0141 -0.0127,0.0536 0.0176,0.0392 0.0635,0.0991 0.0258,0.11077 -0.0374,0.0113 -0.0437,0.0159 -0.0437,0.0159 l -0.007,0.0247 c 0,0 0.006,0.0148 -10e-4,0.0208 -0.007,0.007 -0.0279,0.0183 -0.0279,0.0183 l -0.006,0.031 c 0,0 0.0215,0.0113 0.018,0.0194 -0.004,0.008 -0.024,0.0258 -0.0145,0.0406 0.01,0.0145 0.0236,0.0571 0.008,0.072 -0.0166,0.0148 -0.0882,0.0356 -0.0882,0.0356 0,0 0.0776,0.049 0.11536,0.0843 0.0374,0.0363 0.067,0.0864 0.0991,0.11712 0.0328,0.0314 0.0702,0.0706 0.0536,0.0998 -0.0162,0.0289 -0.0208,0.0374 0.002,0.0501 0.0226,0.0138 0.10548,0.10795 0.11571,0.12876 0.009,0.0215 0.0794,0.0748 0.11677,0.0928 0.0377,0.0183 0.0737,0.0247 0.0737,0.0247 l 0.13935,-0.006 c 0,0 0.0212,-0.0279 0.0427,-0.0328 0.0208,-0.005 0.1076,-0.007 0.1076,-0.007 l 0.0243,0.0395 0.21026,0.003 c 0,0 0.0356,-0.0194 0.0504,-0.0152 0.0145,0.005 0.0582,0.005 0.0582,0.005 l 0.15134,0.008 0.0653,-0.003 c 0,0 0.0265,-0.0127 0.0769,-0.0113 0.0501,0.001 0.10866,0 0.12312,0.01 0.0152,0.01 0.0526,0.0113 0.0526,0.0113 l 0.32173,-0.008 -10e-4,-0.0183 c 0,0 0.10337,-0.005 0.11889,-0.0402 0.0166,-0.0363 0.0166,-0.0557 0.0166,-0.0557 h 0.054 l 0.008,0.0914 h 0.0448 v 0.0748 l -0.13511,0.013 -0.091,0.0815 -0.0131,-0.0455 c 0,0 -0.0222,-0.008 -0.0519,-0.007 -0.0293,0.002 -0.27728,0.0275 -0.27728,0.0275 l -0.0159,-0.0275 c 0,0 -0.0113,0.013 -0.0409,0.0197 -0.0293,0.006 -0.14464,0.0131 -0.17886,0.0176 -0.0346,0.005 -0.0402,0.0229 -0.0402,0.0395 v 0.0646 c 0,0 0.0631,0.0229 0.0631,0.0423 0,0.0194 -0.0194,0.0437 -0.0162,0.0554 0.002,0.0113 0.005,0.0409 0.002,0.0505 -0.001,0.0102 -0.0141,0.0258 -0.0127,0.0406 0.002,0.0152 -0.001,0.0346 -0.0109,0.0473 -0.0102,0.0134 -0.008,0.0247 -0.008,0.0427 0,0.0176 0.01,0.0194 -0.012,0.0324 -0.0208,0.0134 -0.0222,0.0229 -0.0222,0.0229 v 0.2847 l -0.14358,0.005 0.002,-0.28046 c 0,0 -0.0363,0.005 -0.0737,0 -0.037,-0.005 -0.0744,-0.0145 -0.0744,-0.0145 0,0 -0.0279,0.0956 -0.0822,0.0956 -0.0533,0 -0.17569,-0.0907 -0.17569,-0.0907 0,0 -0.002,-0.0328 -0.0762,-0.013 -0.0751,0.019 -0.11888,0.0455 -0.15345,0.0473 -0.0339,0.002 -0.18557,-0.0635 -0.21767,-0.0162 -0.0332,0.0473 -0.0868,0.0275 -0.0868,0.0275 0,0 0.0882,0.25541 0.0896,0.29457 0.002,0.0392 -0.018,0.11748 -0.018,0.11748 0,0 0.11395,0.19685 0.13053,0.26352 0.0166,0.067 0.0145,0.067 0.0293,0.0896 0.0145,0.0226 0.0275,0.0684 0.0508,0.10442 0.0222,0.0356 0.0222,0.055 0.0222,0.055 l -0.0388,0.0265 c 0,0 0.20532,0.45896 0.22472,0.514 0.0194,0.0557 0.15452,0.21025 0.13829,0.36018 -0.0166,0.14958 -0.018,0.2914 -0.0215,0.31115 -0.003,0.0194 -0.0201,0.0515 -0.009,0.0769 0.0113,0.024 0.0388,0.073 -0.002,0.1016 -0.0402,0.03 -0.0497,0.0254 -0.0497,0.0512 0,0.0254 -0.0138,0.0504 -0.0328,0.0663 -0.0194,0.0162 -0.0392,0.1644 -0.0392,0.1644 l -0.0314,0.14852 c 0,0 0.0138,0.024 0.0247,0.0423 0.0113,0.018 0.007,0.036 0.007,0.036 0,0 0.013,0.0335 0.0392,0.0501 0.0258,0.0166 0.0861,0.0963 0.0861,0.0963 0,0 0.0702,0.06 0.10089,0.0684 0.0307,0.008 0.1517,0.06 0.1517,0.06 0,0 0.12488,0.0247 0.13511,0.0653 0.01,0.0409 0.001,0.0783 0.001,0.0783 l 0.0116,0.0293 c 0,0 -0.12911,0.0385 -0.18591,0.0441 -0.0564,0.005 -0.35631,-0.0928 -0.40005,-0.10266 -0.0444,-0.01 -0.0603,-0.0148 -0.0836,-0.0116 -0.0226,0.004 -0.0293,0.0374 -0.0293,0.0374 0,0 -0.16157,-0.01 -0.20038,-0.0194 -0.0388,-0.01 -0.0402,-0.0406 -0.0402,-0.0406 l 0.005,-0.0603 0.0131,-0.0148 c 0,0 -0.0557,-0.0892 -0.0459,-0.14782 0.01,-0.0589 0.0353,-0.12382 0.0353,-0.12382 0,0 -0.002,-0.0931 0.005,-0.11748 0.009,-0.0243 -0.003,-0.0501 -0.003,-0.0702 0,-0.0194 0.0229,-0.0748 0.0258,-0.0928 0.004,-0.0173 -0.0127,-0.10442 -0.0127,-0.10442 0,0 -0.0861,-0.1203 -0.0762,-0.15381 0.009,-0.0346 -0.0346,-0.12877 -0.0229,-0.1524 0.0109,-0.0222 0.0272,-0.0825 0.0342,-0.11042 0.006,-0.0275 0.005,-0.0473 -0.01,-0.079 -0.0148,-0.0328 -0.0148,-0.0752 -0.008,-0.11642 0.007,-0.0402 0.002,-0.0483 -0.0759,-0.0808 -0.0787,-0.0332 -0.26458,-0.22189 -0.29492,-0.27552 -0.031,-0.054 -0.13088,-0.23107 -0.18768,-0.10618 -0.0575,0.12594 -0.2293,0.5588 -0.25753,0.60466 -0.0272,0.0455 -0.19791,0.369 -0.21449,0.4004 -0.0162,0.0307 -0.12911,0.1009 -0.14322,0.12383 -0.0145,0.0222 -0.0702,0.17603 -0.11889,0.18556 -0.0487,0.01 -0.12382,0 -0.1464,0.0293 -0.0233,0.0293 -0.12594,0.13335 -0.13194,0.14499 -0.007,0.0113 -0.0243,0.0455 -0.0212,0.0667 0.003,0.0212 -0.0282,0.0293 -0.0409,0.0325 -0.0131,0.004 -0.0131,0.0765 -0.0131,0.0765"
             id="path48118-1-0-4-5-3-46" />
          <path
             d="m -298.84696,399.13522 c -0.0501,-0.0342 -0.0998,-0.11042 -0.12629,-0.15275 -0.0265,-0.0427 -0.14323,-0.0695 -0.16616,-0.19862 -0.0236,-0.12911 -0.066,-0.13652 -0.0931,-0.17603 -0.0258,-0.0395 -0.16298,-0.27199 -0.18415,-0.31433 -0.0212,-0.0423 -0.2166,-0.36124 -0.2166,-0.36124 0,0 -0.013,0.008 -0.0582,0.0709 -0.0444,0.0631 -0.0628,0.18238 -0.0953,0.27446 -0.031,0.0921 -0.0257,0.11148 -0.01,0.12418 0.0155,0.0131 0.0607,0.0582 0.0663,0.10336 0.005,0.0444 0.0205,0.11536 0.0554,0.13688 0.0339,0.0208 0.0522,0.0875 0.0896,0.11888 0.0367,0.0314 0.018,0.11042 0.018,0.14217 0,0.0314 0.0713,0.11607 0.0924,0.127 0.0212,0.0102 0.0582,0.084 0.0794,0.097 0.0212,0.0138 0.10583,0.13511 0.10583,0.13511 0,0 0.0843,0.0896 0.11536,0.12383 0.0321,0.0342 0.0452,0.0187 0.0452,0.0187 0,0 0.0293,0.0236 0.0949,0.0974 0.0663,0.0741 -0.0265,0.21096 -0.0265,0.21096 l -0.0261,-0.018 c 0,0 -0.0296,0.11889 -0.0497,0.1584 -0.0215,0.0395 -0.0508,0.12629 -0.13194,0.21307 -0.0818,0.0875 -0.20073,0.0452 -0.20073,0.0452 l -0.0166,-0.0289 c 0,0 -0.0363,-0.005 -0.0473,-0.0635 -0.01,-0.0582 0.0554,-0.13723 0.0818,-0.18732 0.0272,-0.0494 -0.007,-0.28469 -0.005,-0.31115 0.002,-0.0265 -0.1083,-0.0981 -0.11853,-0.11889 -0.0106,-0.0215 -0.0801,-0.10054 -0.0801,-0.10054 0,0 -0.0995,-0.0342 -0.15275,-0.11818 -0.0526,-0.0847 -0.17921,-0.0875 -0.22437,-0.0953 -0.0444,-0.008 -0.1076,-0.066 -0.12347,-0.1076 -0.0155,-0.043 -0.12982,-0.17427 -0.20073,-0.26176 -0.0713,-0.0875 -0.0737,-0.29527 -0.0843,-0.38276 -0.0109,-0.0875 -0.0138,-0.51964 -0.0138,-0.51964 l -0.0444,-0.0159 0.0317,-0.21943 -0.20037,-0.34784 c 0,0 -0.0349,0.0342 -0.0557,0.0289 -0.0215,-0.006 -0.0215,-0.0106 -0.0339,-0.0106 -0.0134,0 -0.0293,0.0183 -0.0448,0.0159 -0.0166,-0.003 -0.0346,-0.0212 -0.048,-0.0212 -0.0131,0 -0.0339,0.0137 -0.0476,0.008 -0.0124,-0.006 -0.0473,-0.0159 -0.0473,-0.0159 0,0 -0.0445,0 -0.0639,-0.0162 -0.018,-0.0159 -0.0229,-0.0473 -0.0229,-0.0473 l -0.12982,0.0607 -0.0392,0.0688 -0.14534,-0.0268 -0.0998,0.0586 -0.0321,-0.0797 0.0497,-0.0208 c 0,0 -0.0497,-0.10759 -0.002,-0.12135 0.0469,-0.0131 0.0995,0.0709 0.0995,0.0709 0,0 0.23001,-0.0921 0.22225,-0.10795 -0.008,-0.0166 0.0131,-0.0314 0.0314,-0.0653 0.0187,-0.0353 0.0367,-0.0639 0.0367,-0.0639 0,0 -0.0152,-0.0452 -0.0152,-0.0709 0,-0.0268 0.0819,-0.061 0.10478,-0.0931 0.0243,-0.031 0.003,-0.0681 0.0113,-0.0868 0.007,-0.0187 0.031,-0.0208 0.0448,-0.0339 0.0131,-0.0138 0.0155,-0.0737 0.0342,-0.0924 0.0183,-0.019 0.0501,-0.0423 0.0473,-0.0561 -0.003,-0.0127 -0.0261,-0.0286 -0.0208,-0.055 0.005,-0.0265 0.0392,-0.1217 0.0473,-0.17109 0.008,-0.0505 0.0131,-0.12982 0.006,-0.17216 -0.008,-0.0416 0.0416,-0.11042 0.0554,-0.14781 0.0127,-0.0374 0.0473,-0.2533 0.0579,-0.28752 0.0102,-0.0342 0.12347,-0.17145 0.12347,-0.17145 0,0 -0.0208,0 -0.0423,-0.008 -0.0208,-0.007 -0.0416,-0.0575 -0.0579,-0.0977 -0.0159,-0.0388 -0.036,-0.10548 -0.0469,-0.12629 -0.0113,-0.0215 -0.0452,-0.10337 -0.0452,-0.10337 0,0 -0.0392,-0.0205 -0.0473,-0.0526 -0.008,-0.0317 -0.0212,-0.0159 -0.0395,-0.024 -0.0187,-0.008 -0.0635,-0.0229 -0.0635,-0.0229 0,0 0.005,-0.17992 0.11607,-0.36195 0.11042,-0.18203 0.24235,-0.1584 0.4646,-0.16369 0.2212,-0.006 0.30586,0.35666 0.30586,0.35666 0,0 0.0392,0.0257 0.0526,0.06 0.0134,0.0349 0.006,0.0875 0.006,0.0875 h 0.0388 c 0.0194,0 0.11606,0.0159 0.15345,0.061 0.0367,0.0452 0.11042,0.0526 0.17463,0.0811 0.0632,0.0293 0.0261,0.10301 0.0388,0.10865 0.0138,0.005 0.0554,0.0131 0.10054,0.0212 0.0451,0.008 0.14746,0.0953 0.20108,0.14005 0.0526,0.0445 0.0526,0.0896 0.0628,0.11078 0.0109,0.0205 0.14817,0.17639 0.16899,0.2106 0.0208,0.0346 0.1397,0.19509 0.15557,0.24307 0.0159,0.0473 0.0452,0.10336 0.0794,0.14499 0.0339,0.0423 0.024,0.0949 -0.024,0.22401 -0.0473,0.12983 -0.0473,0.13194 -0.0896,0.18521 -0.0423,0.0526 -0.17427,0.21872 -0.17427,0.21872 0,0 0.0794,-0.0289 0.15099,-0.0423 0.0713,-0.013 0.11077,0.15558 0.11571,0.20073 0.005,0.0452 0.0847,0.16122 0.11888,0.2988 0.0342,0.13618 -0.0794,0.18133 -0.0794,0.18133 0,0 0.0155,0.0582 0.0155,0.10337 0,0.0444 -0.0416,0.0815 -0.0416,0.0815 0,0 0.008,0.0469 -0.006,0.0741 -0.0127,0.0257 -0.0603,0.0152 -0.0603,0.0152 0,0 0.018,0.16898 0.0444,0.21484 0.0265,0.0444 0.10831,0.25824 0.11854,0.35031 0.0113,0.0921 0.0452,0.17956 0.1143,0.22155 0.0684,0.0423 0.0628,0.0875 0.0734,0.14816 0.0106,0.06 0.0187,0.1337 0.0501,0.16052 0.0317,0.0261 0.0423,0.0635 0.0395,0.13193 -0.002,0.0691 0.0159,0.0977 0.0529,0.12171 0.0367,0.0236 0.0476,0.13723 0.0533,0.17145 0.005,0.0342 0.0314,0.15311 0.084,0.19756 0.0529,0.0448 0.0399,0.127 0.0399,0.127 0,0 0.0603,0.1083 0.079,0.12912 0.0187,0.0212 0.0187,0.0765 0.0187,0.0974 0,0.0215 0.0229,0.0847 0.0229,0.0847 l -0.0783,0.0818 c 0,0 -0.0931,0.0744 -0.1584,0.0871 -0.066,0.013 -0.20073,-0.0265 -0.20073,-0.0265 l 0.0106,-0.0286 c 0,0 -0.0106,-0.0113 0,-0.0667 0.0102,-0.055 0.0423,-0.0917 0.0582,-0.12629 0.0155,-0.0342 0.002,-0.16687 0.002,-0.16687 l -0.024,-0.0148 c 0,0 -0.0501,-0.0875 -0.0921,-0.13794 -0.0423,-0.0501 -0.15311,-0.16616 -0.21943,-0.26882 0,0 -0.0448,-0.0339 -0.0949,-0.0688 m -1.55928,-1.90218 -0.0765,-0.0321 0.0582,0.11113 z"
             id="path48522-6-8-3-7-8-2-3" />
          <path
             d="m -296.99859,399.40367 c 0,0 0.005,0.15021 0.005,0.16537 0,0.0152 -0.0165,0.04 -0.0138,0.062 0.003,0.022 0.004,0.051 -0.0262,0.0827 -0.0317,0.0303 -0.0496,0.0372 -0.0496,0.0372 l -0.0358,0.003 c 0,0 -0.0524,0.16123 -0.0923,0.19155 -0.04,0.0317 -0.0758,0.11024 -0.19017,0.0896 -0.11575,-0.0234 -0.11989,-0.0758 -0.11989,-0.10198 0,-0.0276 0.0207,-0.0689 0.0221,-0.091 0.001,-0.022 0.011,-0.0758 0.0358,-0.10886 0.0234,-0.0331 0.0965,-0.0992 0.12402,-0.21498 0.0262,-0.11438 0.0303,-0.14745 0.0303,-0.14745 0,0 -0.0262,-0.0386 -0.0289,-0.0648 -10e-4,-0.0276 0.0275,-0.0648 0.0289,-0.0758 0.003,-0.011 -0.011,-0.0303 -0.0165,-0.0593 -0.007,-0.0289 -0.0262,-0.20809 -0.0262,-0.22738 0,-0.0207 0.0289,-0.0455 0.0289,-0.0455 0,0 -0.0165,0.004 -0.0262,-0.0221 -0.008,-0.0262 -0.0303,-0.3142 -0.0289,-0.32522 0.003,-0.011 0.0207,-0.0248 0.0138,-0.0386 -0.007,-0.0124 -0.0289,-0.0482 -0.0248,-0.0606 0.004,-0.0138 0.0276,-0.0124 0.0289,-0.0303 0.003,-0.0165 -0.0303,-0.0455 -0.0331,-0.0675 -0.003,-0.022 0.0152,-0.0179 0.0152,-0.04 0,-0.022 -0.0179,-0.10887 -0.0152,-0.1378 0.003,-0.0289 0.04,-0.062 0.0413,-0.0772 0.003,-0.0152 0.0193,-0.0441 0.0207,-0.0579 0.003,-0.0138 -0.0579,-0.062 -0.0772,-0.0882 -0.0207,-0.0276 -0.113,-0.15297 -0.113,-0.15297 0,0 -0.37896,0.29904 -0.41479,0.32797 -0.0344,0.0289 -0.0593,0 -0.073,-0.0193 -0.0124,-0.0207 -0.13091,-0.23702 -0.14332,-0.25632 -0.0138,-0.0165 10e-4,-0.0372 0.0262,-0.0524 0.0248,-0.0152 0.60496,-0.26734 0.60496,-0.26734 l 0.10198,0.004 c 0,0 -0.0372,-0.0992 -0.0537,-0.15021 -0.0152,-0.051 -0.0165,-0.0868 -0.0165,-0.0868 0,0 -0.0537,0.001 -0.0703,-0.0248 -0.0152,-0.0262 -0.0345,-0.1571 -0.0303,-0.20534 0.004,-0.0496 -0.007,-0.17363 -0.01,-0.19292 -0.001,-0.0193 -0.0317,-0.0661 -0.0345,-0.0951 -0.003,-0.0289 0.007,-0.19982 0.003,-0.23289 -0.006,-0.0331 -0.0138,-0.0854 -0.0138,-0.11714 0,-0.0303 0.011,-0.14882 0.008,-0.16398 -0.001,-0.0152 -0.007,-0.051 0.007,-0.10887 0.0138,-0.0579 0.12264,-0.52228 0.14883,-0.61047 0.0262,-0.0896 0.0703,-0.16398 0.0703,-0.16398 0,0 -0.0455,0.003 -0.0482,-0.0179 -0.003,-0.0193 -0.01,-0.0358 -0.0248,-0.062 -0.0152,-0.0276 -0.04,-0.0537 -0.0262,-0.1006 0.0124,-0.0455 0.0303,-0.0703 0.0303,-0.0813 0,-0.011 -0.0193,-0.0372 -0.0152,-0.0592 0.006,-0.0221 0.062,-0.13092 0.062,-0.13092 0,0 0.16398,-0.007 0.17501,-0.004 0.011,0.003 0.0951,0.0124 0.11299,0.0124 0.0179,0 0.0317,-0.022 0.0551,-0.0303 0.0248,-0.01 0.15985,-0.003 0.17087,0 0.011,10e-4 0.0772,-0.0179 0.0772,-0.0179 0,0 -0.0413,-0.10336 -0.0482,-0.12127 -0.007,-0.0179 -0.0427,-0.011 -0.0689,-0.0207 -0.0262,-0.008 -0.0772,-0.0372 -0.0772,-0.0372 0,0 0.0372,-0.15985 0.0427,-0.16812 0.004,-0.01 0.0303,-0.10886 0.0303,-0.10886 0,0 0.003,-0.12127 0.011,-0.14608 0.008,-0.0248 0.0482,-0.10473 0.18603,-0.12816 0.13781,-0.0248 0.31282,-0.01 0.36243,0.0661 0.0524,0.0744 0.0537,0.17915 0.0579,0.20395 0.004,0.0234 0.0441,0.16399 0.0441,0.16399 l 0.0565,0.10335 c 0,0 -0.0331,0.0482 -0.0758,0.0482 -0.0413,0 -0.0593,0.003 -0.0593,0.003 l -0.0289,0.0289 -0.0165,0.11438 0.0427,0.003 0.0358,0.0276 c 0,0 0.0772,0.008 0.0965,0.0372 0.0207,0.0289 0.0469,0.10335 0.0469,0.10335 l 0.0289,0.0138 0.0138,0.0358 0.0661,0.022 0.0179,0.0358 0.11024,0.0675 c 0,0 0.0937,0.26458 0.0951,0.27698 0.003,0.0138 0.0234,0.0827 0.0234,0.10611 0,0.0248 0.0248,0.14194 0.0248,0.14194 l 0.01,0.16123 0.0221,0.0579 c 0,0 0.0179,0.0827 0.0179,0.0951 v 0.0896 l 0.0152,0.0289 -0.0124,0.0289 v 0.0276 l 0.0455,0.0248 -0.004,0.0303 c 0,0 0.0179,0.11851 0.0221,0.12677 0.004,0.01 0.0138,0.0593 0.0152,0.10336 0.003,0.0455 -0.008,0.0813 -0.008,0.0813 l -0.008,0.11713 0.0152,0.0482 0.004,0.0469 0.0207,0.0179 0.38447,-0.113 0.0441,-10e-4 0.0551,-0.0248 0.0262,0.007 0.34451,-0.10611 -0.003,-0.0193 0.0275,-0.0248 0.006,0.0317 0.0289,-0.007 0.01,0.0331 -0.40652,0.12816 -0.004,0.0165 0.14056,-0.0413 0.005,0.0165 -0.14194,0.051 -0.004,0.0248 -0.25907,0.10748 c 0,0 -0.008,0.04 -0.0469,0.0772 -0.04,0.0358 -0.0689,0.0799 -0.13918,0.0854 -0.0689,0.005 -0.0965,0.005 -0.0965,0.005 0,0 0,0.01 -0.008,0.0193 -0.008,0.01 -0.051,0.0469 -0.073,0.0551 -0.022,0.008 -0.0345,0.01 -0.0345,0.01 0,0 -0.006,0.0813 -0.01,0.0992 -0.003,0.0152 -0.0138,0.0345 -0.0138,0.0345 l -0.073,0.001 0.0124,0.25907 -0.007,0.29628 c 0,0 -0.0496,0.21222 -0.051,0.25907 -10e-4,0.0482 -0.0193,0.14469 -0.008,0.17639 0.01,0.0331 0.007,0.0413 -0.007,0.0703 -0.011,0.0276 0,0.0372 -0.004,0.0579 -0.004,0.022 -0.011,0.0262 -0.011,0.0358 10e-4,0.008 0.0152,0.0262 0.0152,0.04 -0.001,0.0124 0,0.0469 -0.008,0.0648 -0.011,0.0179 -0.0441,0.0358 -0.0441,0.0358 0,0 -0.0317,0.31832 -0.0345,0.33486 -0.004,0.0165 -0.0248,0.0234 -0.0248,0.0234 l 0.0165,0.0179 -0.0193,0.25218 -0.0179,0.0345 v 0.029 l -0.0152,0.0234 c 0,0 0.0124,0.0441 0.0207,0.0537 0.007,0.01 0.0221,0.0331 0.0221,0.0455 0,0.0138 -0.004,0.0275 0.0234,0.0661 0.0276,0.0386 0.0813,0.10336 0.0978,0.11576 0.0193,0.0124 0.0744,0.0717 0.11438,0.0951 0.0386,0.0248 0.0827,0.0579 0.0799,0.10749 -0.001,0.0482 -0.001,0.0565 -0.001,0.0565 0,0 0.011,0.0124 -0.01,0.0303 -0.0221,0.0179 -0.0689,0.0482 -0.14883,0.0331 -0.0813,-0.0152 -0.18879,-0.0413 -0.24115,-0.091 -0.0495,-0.051 -0.0702,-0.0799 -0.0702,-0.0799 l -0.0675,0.0124 -0.15434,-0.0606 -0.004,-0.0675 0.0165,-10e-4 c 0,0 -0.0262,-0.0786 -0.0207,-0.1254 0.006,-0.0482 0.0193,-0.062 0.0193,-0.062 0,0 -0.01,-0.0179 -0.011,-0.0386 0,-0.0234 0,-0.0496 0,-0.0496 0,0 -0.0207,-0.0193 -0.0152,-0.0482 0.006,-0.0289 0.0152,-0.0579 0.0152,-0.0579 l -0.0165,-0.0262 -0.0358,-0.24392 0.0179,-0.0152 c 0,0 -0.0179,-0.0592 -0.0221,-0.10335 -0.007,-0.0441 -0.011,-0.113 -0.011,-0.16261 -0.001,-0.0496 -0.006,-0.11851 -0.011,-0.13229 -0.006,-0.0152 -0.0193,-0.0358 -0.0276,-0.0482 -0.007,-0.0138 -0.01,-0.0289 0.003,-0.0524 0.0124,-0.0234 0.0303,-0.0524 0.0289,-0.0744 -0.003,-0.022 -0.005,-0.0537 -0.004,-0.062 0.003,-0.008 0.0124,-0.0262 0.0124,-0.0262 0,0 -0.0262,-0.001 -0.04,-0.0207 -0.0124,-0.0207 -0.0289,-0.0455 -0.0372,-0.0744 -0.008,-0.0289 -0.0138,-0.0372 -0.0138,-0.0372 0,0 -0.0551,0.022 -0.0841,0.0248 -0.0289,0.003 -0.0744,0.005 -0.0744,0.005 l -0.0275,0.0165 -10e-4,0.0482 c 0,0 0.0193,0.011 0.0179,0.0289 -0.003,0.0179 -0.004,0.0193 0.008,0.0317 0.0124,0.0138 0.0234,0.051 0.004,0.0965 -0.0193,0.0455 -0.0593,0.0689 -0.0593,0.0689 0,0 0.0124,0.01 0.004,0.0276 -0.007,0.0165 -0.008,0.022 -0.008,0.0331 0,0.011 -0.0331,0.21773 -0.0331,0.21773 l -0.0358,0.14469 -0.0386,0.0275 0.0221,0.0262 c 0,0 -0.051,0.19844 -0.0565,0.23564 -0.007,0.0372 -0.011,0.0882 -0.011,0.0882 l 0.0165,0.0248 c 0,0 -0.004,0.0372 -0.0179,0.0551 -0.0152,0.0193 -0.0138,0.0207 -0.0138,0.0207 m 1.33532,-2.35231 0.0565,0.004 0.0841,-0.0841 -0.0524,0.0193 z m -1.09416,1.12448 c 0,0 0.0386,0.003 0.0717,-0.004 0.0331,-0.007 0.0772,-0.0221 0.0772,-0.0221 l 0.003,-0.0413 10e-4,-0.0634 0.01,-0.14745 0.0152,-0.0648 -0.007,-0.091 -0.0138,0.0427 -0.0455,0.0675 -0.0138,0.0469 z m -0.59945,-0.30317 0.008,-0.11989 0.0179,-0.0289 -0.0689,0.0179 -0.0372,0.008 0.0207,0.0455 z m 0,0"
             id="path4677-9" />
        </g>
      </g>
      <path
         id="path66858-8-4-8-6-9-0-5"
         d="m 149.84607,30.854864 -0.17364,0.2583 h -0.25941 v 0.06 h -1.19063 v -0.1199 h -0.0475 v 0.087 h -0.24288 v 0.049 h -0.11576 v 0.034 h -0.20877 v 0.093 h 0.20877 v 0.034 h 0.1633 v -0.034 h 0.0868 v 0.05 h 1.4366 l -0.25373,0.3778 h -0.53278 l 0.001,0.17 h -0.36794 l -0.10283,0.1581 -0.17467,0.036 -0.13333,0.1891 -0.032,0.2992 -0.0884,0.137 -2.05104,0.2723 -0.0346,-0.1069 -0.24133,0.036 0.008,0.1065 -1.53634,0.2041 -0.03,-0.094 -0.24133,0.035 0.007,0.093 -0.91984,0.1225 -0.031,-0.061 -0.38706,0.035 0.005,0.081 -0.2651,0.036 -0.0429,0.046 v -0.1494 h -0.12092 v -0.083 h -0.22996 v -0.4123 c 0.0219,-0.013 0.0367,-0.036 0.0367,-0.062 0,-0.039 -0.0333,-0.071 -0.0729,-0.071 -0.0402,0 -0.0724,0.032 -0.0724,0.071 0,0.035 0.0254,0.064 0.0599,0.07 v 0.4046 h -0.0599 v 0.3411 l -0.19275,0.448 -0.54984,1.263 -0.0682,0.058 -0.0848,0.048 -0.0853,-0.071 0.14521,-0.071 0.0248,-0.1188 -0.20567,0.1307 -0.0367,0.1184 0.0847,0.1188 0.15761,0.011 0.0708,-0.034 0.15968,0.2635 c -0.0275,0.1098 -0.0413,0.2257 -0.0413,0.3442 0,0.8093 0.66967,1.4656 1.49552,1.4656 0.72214,0 1.32533,-0.5019 1.46503,-1.169 l 0.48679,-0.014 0.2806,-0.185 0.58136,-0.03 0.007,0.039 -0.13229,0.1633 0.0842,0.1018 0.1447,-0.069 0.19017,0.2615 -0.0894,0.1504 0.0977,0.089 0.16278,-0.1075 0.21859,0.1101 0.008,0.1793 0.13229,0.023 0.061,-0.1416 0.2775,0.054 0.0139,0.1643 0.13229,0.018 0.0589,-0.1488 0.27544,0.04 0.0124,0.1566 0.13281,0.019 0.0574,-0.1453 0.27699,0.041 0.0129,0.1514 0.13229,0.019 0.0548,-0.1395 0.28008,0.042 0.0119,0.1442 0.1323,0.019 0.0548,-0.1395 0.27906,0.027 0.0129,0.1602 0.13281,0.019 0.0651,-0.167 h 0.25425 l 0.0331,0.1463 h 0.13384 l 0.0346,-0.1442 h 0.2837 l 0.032,0.1416 h 0.13436 l 0.0326,-0.1395 h 0.28577 l 0.0315,0.1359 h 0.13436 l 0.031,-0.1344 h 0.28836 l 0.0305,0.1308 h 0.13384 l 0.0305,-0.1297 h 0.29042 l 0.0289,0.126 h 0.13436 l 0.0289,-0.124 h 0.29353 l 0.0269,0.1215 h 0.13436 l 0.0284,-0.1194 h 0.29507 l 0.0269,0.1163 h 0.13333 l 0.0274,-0.1142 h 0.29765 l 0.0253,0.1111 h 0.13385 l 0.0259,-0.1091 h 0.28783 l 0.0248,0.1065 h 0.13333 l 0.0248,-0.1049 h 0.30231 l 0.0233,0.1018 h 0.13385 l 0.0233,-0.1 h 0.30541 l 0.0217,0.096 h 0.13385 l 0.0222,-0.094 h 0.30644 l 0.0212,0.091 h 0.13384 l 0.0227,-0.094 0.30282,-0.013 0.0248,0.1075 h 0.13384 l 0.0274,-0.1153 0.29352,-0.013 0.0295,0.1282 h 0.13332 l 0.0326,-0.1364 0.2868,-0.012 0.031,0.1354 h 0.13436 l 0.0362,-0.1545 0.29714,-0.03 0.0548,0.1343 0.13229,-0.02 0.0114,-0.1592 0.22996,-0.1044 0.17311,0.1039 0.0925,-0.095 -0.092,-0.139 0.22014,-0.2015 0.16847,0.037 0.0574,-0.1189 -0.12248,-0.094 0.0951,-0.2558 0.16898,-0.04 -0.002,-0.1313 -0.16071,-0.034 -0.0129,-0.201 0.68988,-0.077 v 0.085 h 0.37879 c 0.0233,0.029 0.0595,0.047 0.0997,0.047 0.0702,0 0.12712,-0.056 0.12712,-0.1245 0,-0.069 -0.0569,-0.1246 -0.12712,-0.1246 h 0.21136 v 0.048 h 0.061 v -0.055 l 0.36277,0.1385 h 0.19326 v -0.415 h -0.22996 l -0.32607,0.071 v -0.048 h -0.061 v 0.06 h -0.1602 l 0.29042,-0.4522 0.0755,-0.022 1.62109,-2.5378 -0.0238,-0.043 0.0899,-0.1411 -0.37156,-0.3488 h -0.11368 v -0.6165 h 0.0677 v -0.1261 h -0.31109 v 0.1261 h 0.0455 v 0.085 l -1.20199,-0.1622 h -0.03 l -0.22531,-0.031 v -0.1607 l 0.0243,-0.01 -0.0181,-0.045 -0.094,0.037 h -0.0491 v 0.019 l -0.12247,0.049 0.0181,0.044 0.10439,-0.041 v 0.1974 h 0.13694 v -0.042 l 0.24288,0.033 1.2144,0.5008 v 0.1452 l -9.90483,-0.1148 0.30696,-0.5327 0.0698,0.01 v 0.1178 l 0.14831,-0.01 0.0537,-0.01 0.0543,0.1064 0.0279,0.1132 h 0.13539 l 0.0134,-0.107 -0.0951,-0.1457 h 0.14987 l 0.0129,-0.053 h 0.45888 l 0.0341,0.1059 0.0341,-0.046 h 0.0816 l 0.0744,0.087 0.0951,-0.02 -0.0336,-0.092 v -0.1726 l 0.0806,-0.086 -0.0806,-0.02 -0.12248,0.046 -0.29765,0.033 h -0.12196 l -0.0475,-0.053 -0.6072,-0.011 0.12661,-0.2206 z m 8.82478,0.5653 1.0294,0.139 v 0.2853 z m -2.26859,4.886 c 0.0165,0 0.0326,0.01 0.0475,0.019 0.0596,0.038 0.0767,0.1163 0.0382,0.1752 -0.0395,0.059 -0.11918,0.076 -0.1788,0.038 -0.06,-0.038 -0.0774,-0.1168 -0.0382,-0.1757 0.0291,-0.044 0.0816,-0.064 0.13126,-0.056 z m -0.39223,0.1948 c 0.0713,0 0.12919,0.056 0.12919,0.1266 0,0.07 -0.0579,0.1266 -0.12919,0.1266 -0.0716,0 -0.12971,-0.057 -0.12971,-0.1266 0,-0.07 0.0581,-0.1266 0.12971,-0.1266 z m -8.91263,0.083 h 0.43615 c 0.0631,0.2131 0.20086,0.3947 0.38395,0.5168 l -0.0114,0.026 -0.26872,-0.04 c -0.0141,-0.066 -0.0426,-0.164 -0.092,-0.171 -0.0448,-0.01 -0.0888,0.075 -0.11627,0.1395 l -0.27233,-0.041 c -0.0145,-0.065 -0.0433,-0.1579 -0.0909,-0.1638 -0.0438,-0.01 -0.0858,0.07 -0.11369,0.1338 l -0.27595,-0.039 c -0.005,-0.023 -0.0119,-0.049 -0.0207,-0.073 0.17392,-0.054 0.32647,-0.1553 0.44183,-0.2883 z m 0.85782,0 h 0.23927 c -0.0106,0.025 -0.0294,0.046 -0.0548,0.061 -0.0617,0.035 -0.14075,0.015 -0.17673,-0.046 -0.003,-0.01 -0.005,-0.011 -0.008,-0.016 z m 0.74518,0 h 0.0408 c 0.008,0.028 0.0184,0.056 0.0289,0.083 -0.005,0 -0.01,0 -0.015,-0.01 -0.0282,-0.018 -0.047,-0.046 -0.0548,-0.076 z m 1.88154,0.01 0.0305,6e-4 c -0.0106,0.02 -0.0269,0.038 -0.0481,0.052 0.006,-0.017 0.0119,-0.034 0.0176,-0.052 z m 0.54209,0 h 0.046 c 0.008,0.027 0.0178,0.053 0.0284,0.079 -0.008,0 -0.0148,-0.01 -0.0212,-0.011 -0.0265,-0.017 -0.0444,-0.041 -0.0532,-0.068 z m 2.40243,0.01 0.0305,6e-4 c 0.006,0.02 0.0131,0.041 0.0191,0.059 -0.0233,-0.015 -0.0401,-0.036 -0.0496,-0.06 z m 1.26297,0 h 0.20051 c 0.004,0 0.009,0.01 0.0124,0.01 0.0624,0.062 0.0624,0.1608 0,0.2222 -0.0621,0.061 -0.16374,0.061 -0.22583,0 -0.0624,-0.061 -0.0624,-0.1604 0,-0.2222 0.004,0 0.009,-0.01 0.0129,-0.011 z m -4.82399,0.011 c 0.0325,0.096 0.0811,0.1853 0.14211,0.2651 -0.0504,0.01 -0.10366,-0.01 -0.14211,-0.043 -0.0621,-0.061 -0.0621,-0.1605 0,-0.2222 z m 1.82263,0 c 0.0596,0.062 0.0597,0.1588 -0.002,0.2191 -0.0377,0.037 -0.0893,0.051 -0.13798,0.044 0.06,-0.079 0.10759,-0.1678 0.14005,-0.263 z m -2.42208,0 c 0.0557,0.061 0.0529,0.1555 -0.007,0.2144 -0.0367,0.035 -0.0861,0.05 -0.13332,0.044 0.0596,-0.078 0.10758,-0.1651 0.14004,-0.2589 z m -0.9095,0 c 0.0713,0 0.12919,0.057 0.12919,0.1266 0,0.07 -0.0579,0.1271 -0.12919,0.1271 -0.0713,0 -0.12971,-0.058 -0.12971,-0.1271 0,-0.07 0.0585,-0.1266 0.12971,-0.1266 z m 2.42104,0 c 0.0716,0 0.12971,0.057 0.12971,0.1266 0,0.07 -0.0581,0.1271 -0.12971,0.1271 -0.0716,0 -0.12868,-0.058 -0.12868,-0.1271 0,-0.07 0.0571,-0.1266 0.12868,-0.1266 z m 2.39985,0 c 0.0713,0 0.12971,0.057 0.12971,0.1266 0,0.07 -0.0585,0.1271 -0.12971,0.1271 -0.0716,0 -0.12971,-0.058 -0.12971,-0.1271 0,-0.07 0.0581,-0.1266 0.12971,-0.1266 z m 0.90589,0.01 c 0.049,0.061 0.0441,0.1502 -0.0134,0.2067 -0.0339,0.033 -0.0791,0.048 -0.12351,0.045 0.0579,-0.076 0.10449,-0.1609 0.13694,-0.2522 z m -1.80971,0.01 c 0.0325,0.088 0.0777,0.1705 0.13488,0.2449 -0.0423,8e-4 -0.0843,-0.015 -0.11679,-0.046 -0.055,-0.054 -0.0608,-0.1382 -0.0181,-0.1989 z m -2.71146,0.1002 c 0.0885,0 0.16019,0.07 0.16019,0.1566 0,0.086 -0.0717,0.1566 -0.16019,0.1566 -0.0882,0 -0.15968,-0.07 -0.15968,-0.1566 0,-0.087 0.0715,-0.1566 0.15968,-0.1566 z m 2.42724,0 c 0.0885,0 0.15968,0.07 0.15968,0.1566 0,0.086 -0.0711,0.1566 -0.15968,0.1566 -0.0885,0 -0.15968,-0.07 -0.15968,-0.1566 0,-0.087 0.0711,-0.1566 0.15968,-0.1566 z m 2.38383,0 c 0.0885,0 0.15969,0.07 0.15969,0.1566 -1e-5,0.086 -0.0711,0.1566 -0.15969,0.1566 -0.0875,0 -0.15916,-0.07 -0.15916,-0.1566 0,-0.087 0.0717,-0.1566 0.15916,-0.1566 z m 0.81701,0.075 c 0.0945,0.1051 0.21269,0.1899 0.34675,0.2449 -0.0208,0.035 -0.0366,0.086 -0.0465,0.1261 l -0.26768,0.012 c -0.0226,-0.063 -0.0665,-0.1649 -0.11834,-0.1649 -0.0501,0 -0.0835,0.1052 -0.0997,0.1737 l -0.2589,0.012 -0.009,-0.027 c 0.18838,-0.075 0.34753,-0.2083 0.45372,-0.3762 z m -5.02037,0.233 c 0.0155,0.013 0.0316,0.025 0.0486,0.037 -0.0191,0.035 -0.0322,0.082 -0.0413,0.1189 l -0.26665,-0.01 c 0.0949,-0.036 0.18251,-0.087 0.25941,-0.1494 z m 1.21388,0 c 0.0744,0.059 0.15738,0.1081 0.24805,0.1437 l -0.006,0.025 h -0.25683 c -0.0102,-0.031 -0.0282,-0.079 -0.0512,-0.1183 0.0226,-0.015 0.0445,-0.031 0.0656,-0.048 z m -2.42466,0 c 0.0737,0.058 0.15657,0.1064 0.24547,0.1416 h -0.26459 c -0.0102,-0.029 -0.0251,-0.064 -0.0424,-0.094 0.0215,-0.014 0.0417,-0.029 0.0615,-0.045 z m 4.81573,0 c 0.0787,0.062 0.16727,0.1112 0.26252,0.1458 -0.004,0.016 -0.006,0.031 -0.009,0.042 h -0.24391 c -0.006,-0.02 -0.0285,-0.093 -0.061,-0.1467 0.0177,-0.012 0.0346,-0.025 0.0512,-0.038 z m -1.19114,0 c 0.0127,0.01 0.0267,0.02 0.0408,0.029 -0.0219,0.043 -0.0365,0.102 -0.045,0.139 h -0.23926 l -0.009,-0.026 c 0.0914,-0.034 0.1765,-0.082 0.2527,-0.1401 z m 3.09025,0.045 c 0.0748,0.019 0.15467,0.028 0.23616,0.028 0.0191,0 0.0382,-2e-4 0.0558,0.01 l -0.26562,0.026 c -0.008,-0.02 -0.0165,-0.041 -0.0264,-0.062 z m -5.28598,0.075 c 0.0219,0.01 0.0444,0.019 0.0677,0.026 l -0.0584,-5e-4 z m 3.17086,0 c -0.006,0.021 -0.01,0.04 -0.0129,0.054 h -0.15193 c 0.0572,-0.013 0.11193,-0.031 0.16485,-0.053 z m -0.76119,6e-4 c 0.0459,0.019 0.0939,0.035 0.14366,0.047 h -0.12764 c -0.004,-0.011 -0.009,-0.027 -0.016,-0.046 z m -1.64848,0 -0.006,0.026 -0.0615,-5e-4 c 0.0229,-0.01 0.0455,-0.016 0.0677,-0.025 z" />
    </g>
  </g>
</svg>
