<?xml version="1.0" encoding="UTF-8" standalone="no"?>
<!-- Created with Inkscape (http://www.inkscape.org/) -->

<svg
   width="15.931797mm"
   height="7.0662622mm"
   viewBox="0 0 15.931797 7.0662622"
   version="1.1"
   id="svg5461"
   sodipodi:docname="inkporter-svg-9pt2a72z.svg"
   xmlns:inkscape="http://www.inkscape.org/namespaces/inkscape"
   xmlns:sodipodi="http://sodipodi.sourceforge.net/DTD/sodipodi-0.dtd"
   xmlns="http://www.w3.org/2000/svg"
   xmlns:svg="http://www.w3.org/2000/svg">
  <sodipodi:namedview
     id="namedview5463"
     pagecolor="#ffffff"
     bordercolor="#666666"
     borderopacity="1.0"
     inkscape:pageshadow="2"
     inkscape:pageopacity="0.0"
     inkscape:pagecheckerboard="0"
     inkscape:document-units="mm"
     showgrid="false"
     inkscape:zoom="0.66368547"
     inkscape:cx="397.02542"
     inkscape:cy="561.25984"
     inkscape:window-width="1920"
     inkscape:window-height="1017"
     inkscape:window-x="-8"
     inkscape:window-y="-8"
     inkscape:window-maximized="1"
     inkscape:current-layer="layer1" />
  <defs
     id="defs5458" />
  <g
     inkscape:label="Layer 1"
     inkscape:groupmode="layer"
     id="layer1"
     transform="translate(-127.57772,-93.340692)">
    <g
       id="G-SdKfz250-37"
       transform="matrix(0.35277777,0,0,-0.35277777,136.27546,93.370449)"
       style="fill:#000000">
      <path
         d="m 0.394,-2.718 -0.266,-0.501 15.113,0.115 0.619,-1.319 2.32,1.082 0.641,-1.375 0.156,0.074 0.184,-0.395 -0.157,-0.073 0.294,-0.63 -0.311,-0.145 0.102,-0.219 0.298,0.139 0.587,-1.261 0.164,0.076 0.184,-0.394 -0.164,-0.076 0.348,-0.743 -0.316,-0.147 0.088,-0.19 -0.394,-0.184 -0.088,0.19 -1.583,-0.738 0.441,-0.937 0.172,0.077 0.311,-0.7 -0.158,-0.07 0.928,-1.978 0.069,-0.789 h -1.229 l 0.047,-1.463 h -0.186 l -0.094,1.184 -1.38,-0.153 0.169,-0.092 -0.004,-0.523 -0.226,-0.105 -0.305,0.013 c -0.018,-0.272 -0.054,-0.517 -0.106,-0.74 l 0.371,-0.308 0.117,-0.244 -0.311,-0.42 -0.243,0.048 -0.21,0.166 c -0.17,-0.327 -0.384,-0.583 -0.62,-0.788 l 0.094,-0.298 -0.036,-0.268 -0.489,-0.183 -0.178,0.174 -0.049,0.142 c -0.202,-0.101 -0.405,-0.18 -0.6,-0.247 l -0.184,-0.061 0.036,-0.191 -0.068,-0.261 -0.508,-0.123 -0.155,0.195 -0.036,0.17 c -0.221,-0.06 -0.458,-0.12 -0.703,-0.18 l 0.017,-0.147 -0.086,-0.256 -0.515,-0.087 -0.142,0.205 -0.015,0.108 c -0.219,-0.05 -0.434,-0.098 -0.642,-0.143 l 0.005,-0.224 -0.107,-0.248 -0.522,-0.041 -0.124,0.216 -0.007,0.144 c -0.304,-0.057 -0.556,-0.099 -0.72,-0.117 l 0.004,-0.204 -0.107,-0.247 -0.521,-0.042 -0.123,0.216 -0.013,0.257 -0.924,-0.008 -0.004,-0.375 -0.116,-0.244 -0.522,-0.023 -0.115,0.22 -0.006,0.417 -0.77,-0.004 -0.003,-0.354 -0.117,-0.244 -0.521,-0.024 -0.116,0.221 -0.005,0.398 -0.769,-0.003 -0.004,-0.383 -0.116,-0.244 -0.523,-0.024 -0.115,0.221 -0.006,0.427 -0.653,-0.002 -0.003,-0.343 -0.116,-0.244 -0.523,-0.024 -0.116,0.221 -0.004,0.388 -0.817,-0.002 -0.002,-0.293 -0.117,-0.244 -0.523,-0.023 -0.116,0.221 -0.003,0.338 -0.725,-0.002 -0.003,-0.278 -0.116,-0.244 -0.522,-0.024 -0.116,0.221 -0.004,0.325 h -0.934 l -0.002,-0.29 -0.116,-0.244 -0.523,-0.023 -0.116,0.221 -0.004,0.349 c -0.234,0.008 -0.468,0.016 -0.702,0.026 l -0.002,-0.225 -0.116,-0.243 -0.523,-0.024 -0.116,0.221 -0.004,0.308 -0.689,0.039 -0.002,-0.172 -0.116,-0.244 -0.522,-0.023 -0.116,0.22 -0.003,0.267 -0.892,0.058 -0.02,-0.205 -0.135,-0.233 -0.524,0.022 -0.096,0.23 0.018,0.234 -0.547,0.034 c -0.155,0.009 -0.306,0.022 -0.451,0.04 l -0.043,-0.165 -0.172,-0.208 -0.511,0.104 -0.06,0.241 0.04,0.172 c -0.364,0.103 -0.69,0.25 -0.979,0.458 l -0.056,-0.061 -0.25,-0.103 -0.403,0.332 0.061,0.242 0.102,0.115 c -0.153,0.194 -0.289,0.417 -0.41,0.673 l -2.005,-0.076 -0.07,0.65 -3.07,-0.105 c -0.173,-1.977 -1.833,-3.528 -3.855,-3.528 -1.853,0 -3.401,1.301 -3.781,3.04 -0.122,-0.03 -0.248,-0.046 -0.379,-0.046 -0.885,0 -1.602,0.718 -1.602,1.602 0,0.191 0.033,0.374 0.094,0.543 l 0.66,3.833 0.024,2.206 1.114,-0.023 1.207,0.175 v 0.533 h -0.093 v 0.429 h 0.093 v 0.918 c -0.169,0.012 -0.302,0.153 -0.302,0.324 0,0.18 0.146,0.325 0.325,0.325 0.18,0 0.325,-0.145 0.325,-0.325 0,-0.115 -0.06,-0.217 -0.15,-0.274 v -0.968 h 0.221 c 0.015,0.495 0.157,0.883 0.33,0.883 0.182,0 0.331,-0.434 0.331,-0.97 0,-0.294 -0.045,-0.557 -0.116,-0.735 l 3.134,0.455 v 0.205 h 1.242 l 2.678,0.364 -0.014,0.086 3.093,0.49 0.02,-0.126 0.493,0.071 0.965,0.074 -0.009,0.139 2.494,0.174 0.008,-0.123 1.067,0.081 0.498,0.863 0.176,1.459 0.907,0.416 0.322,0.559 h 0.185 v 0.23 h -0.106 v 0.282 h 1.467 z m -21.511,-5.365 h -0.241 v -0.504 l 0.361,0.052 c -0.054,0.111 -0.096,0.268 -0.12,0.452 m 18.361,-8.554 c 0.077,-0.161 0.175,-0.278 0.247,-0.214 0.043,0.041 0.151,0.125 0.284,0.229 z m 15.448,0.412 -0.208,-0.271 c -0.116,-0.151 0.755,-0.557 0.767,-0.324 0.004,0.087 0.034,0.336 0.072,0.612 z m -3.405,-0.46 c 0,0 -0.662,-0.557 -0.709,-0.603 -0.291,-0.291 1.045,-0.662 0.964,-0.302 -0.081,0.36 -0.255,0.905 -0.255,0.905 m 0.879,0.388 c 0,0 0.408,-0.763 0.444,-0.818 0.202,-0.312 0.745,0.664 0.575,0.849 l -0.954,-0.024 z m -7.77,-0.529 c 0,0 -0.663,-0.557 -0.71,-0.604 -0.29,-0.291 1.045,-0.662 0.964,-0.302 -0.081,0.36 -0.254,0.906 -0.254,0.906 m 1.776,-0.15 c 0.109,0.192 0.182,0.416 0.144,0.528 l -0.404,-0.011 c 0.043,-0.198 0.157,-0.45 0.26,-0.517 m -0.877,0.501 0.106,-0.198 c -0.016,0.065 -0.029,0.132 -0.04,0.199 z m -2.887,-1.084 c -0.108,0.145 -0.202,0.3 -0.28,0.465 -0.14,0.164 -0.304,0.358 -0.442,0.523 l -0.233,-0.007 0.221,-1.206 c 0.026,-0.146 0.578,0.053 0.734,0.225 m 4.595,0.255 c -0.07,-0.119 -0.148,-0.234 -0.236,-0.341 0.044,-0.173 0.766,-0.489 0.776,-0.278 0.01,0.198 0.155,1.222 0.197,1.513 l -0.05,-0.002 z m -20.122,2.089 c 0.053,-0.235 0.085,-0.478 0.094,-0.727 h 1.734 z m 13.458,-3.195 0.284,0.543 0.096,0.006 c 0.03,0.01 0.048,0.03 0.05,0.062 0.008,0.152 0.095,0.787 0.154,1.207 l -0.245,-0.006 -0.674,-0.876 c -0.088,-0.112 0.374,-0.367 0.619,-0.393 l -0.284,-0.536 c -0.247,0.074 -0.478,0.192 -0.687,0.339 l -0.003,-0.369 c 0.23,-0.01 0.46,-0.019 0.691,-0.026 z m 1.695,0.019 c -0.092,-0.032 -0.187,-0.06 -0.284,-0.083 l 0.284,0.001 z m 1.486,-0.08 c -0.271,0.146 -0.519,0.306 -0.737,0.501 l -0.045,-0.036 0.073,-0.095 -0.004,-0.372 z m 4.927,0.563 0.191,-0.007 c 0.283,0.028 0.678,0.245 0.563,0.359 -0.141,0.14 -0.801,0.931 -0.991,1.158 l -0.04,-0.001 z m -1.922,-0.556 0.083,0.158 c -0.105,0.062 -0.206,0.132 -0.302,0.209 -0.134,-0.105 -0.28,-0.197 -0.433,-0.275 l -0.001,-0.094 z m 3.831,0.188 -0.002,-0.17 0.467,0.003 c -0.161,0.042 -0.317,0.098 -0.465,0.167 m -0.772,-0.175 0.258,0.485 -0.076,0.059 c -0.23,-0.23 -0.503,-0.417 -0.807,-0.548 z m 3.141,0.155 -0.002,0.046 c -0.057,-0.029 -0.117,-0.056 -0.177,-0.081 z m 1.31,0.581 0.213,0.553 c -0.089,0.057 -0.174,0.118 -0.255,0.184 -0.133,-0.273 -0.308,-0.52 -0.52,-0.734 l 0.019,-0.426 c 0.189,0.042 0.384,0.085 0.582,0.131 z m 1.445,0.056 -0.021,0.102 c -0.236,0.015 -0.464,0.063 -0.678,0.138 l 0.046,-0.408 c 0.228,0.056 0.448,0.113 0.653,0.168 m 1.433,1.11 0.012,0.071 c -0.06,0.068 -0.153,0.174 -0.266,0.305 l -0.617,-0.017 0.112,-0.615 c 0.029,-0.156 0.649,0.078 0.759,0.256 m -21.085,-1.656 0.008,0.119 c -0.111,-0.041 -0.226,-0.073 -0.344,-0.098 z m 0.731,0.52 0.082,-0.127 -0.044,-0.443 0.832,-0.054 -0.002,0.138 0.289,0.546 0.302,-0.011 0.186,-0.244 -0.004,-0.477 0.677,-0.039 -10e-4,0.098 0.291,0.545 0.13,-0.005 c -0.299,0.305 -0.523,0.684 -0.643,1.106 l -1.216,-0.033 -0.103,-0.004 c -0.174,-0.392 -0.442,-0.734 -0.776,-0.996"
         style="fill:#000000;fill-opacity:1;fill-rule:nonzero;stroke:none"
         id="path5642-6-8-5-3"
         sodipodi:nodetypes="ccccccccccccccccccccccccccccccccccccccccccccccccccccccccccccccccccccccccccccccccccccccccccccccccccccccccccccccccccccccccccccccccccccccccccccccccccccccccscssccccccccccssscccssccccccccccccccccccccccccccccccccccccccccsccccccccscccccccccccccccccccccccccccccccccccccccccccccccccccccccccccccccccccccccccccccccccccccccccccccccccccccccccccccccc" />
      <path
         d="m -1.12744,0.08435 -0.11271,-0.14586 h -5.73083 v -0.12835 l -4.6081,-0.0801 v -0.45869 l 4.6081,-0.0803 v -0.23247 h 0.33872 v -0.12522 h -0.46392 v -0.50042 h 0.46392 v -0.25021 h 3.95806 l -0.2256,-0.29194 0.9278,-0.0803 V -2.777 l 2.1066,-0.0209 v 0.3293 l 0.57327,-0.0496 0.13396,0.47955 h 3.42656 v 1.39692 H 1.23207 l 0.006,0.0209 H 2.64209 V 0.04654 H 0.14 V -0.0578 H 0.1139 Z"
         id="path4785"
         style="stroke-width:0.75" />
    </g>
  </g>
</svg>
