<?xml version="1.0" encoding="UTF-8" standalone="no"?>
<!-- Created with Inkscape (http://www.inkscape.org/) -->

<svg
   width="18.67012mm"
   height="6.7400699mm"
   viewBox="0 0 18.67012 6.7400699"
   version="1.1"
   id="svg1803"
   sodipodi:docname="inkporter-svg-n9iznwl_.svg"
   xmlns:inkscape="http://www.inkscape.org/namespaces/inkscape"
   xmlns:sodipodi="http://sodipodi.sourceforge.net/DTD/sodipodi-0.dtd"
   xmlns="http://www.w3.org/2000/svg"
   xmlns:svg="http://www.w3.org/2000/svg">
  <sodipodi:namedview
     id="namedview1805"
     pagecolor="#ffffff"
     bordercolor="#666666"
     borderopacity="1.0"
     inkscape:pageshadow="2"
     inkscape:pageopacity="0.0"
     inkscape:pagecheckerboard="0"
     inkscape:document-units="mm"
     showgrid="false"
     inkscape:zoom="5.1241863"
     inkscape:cx="692.01231"
     inkscape:cy="314.48896"
     inkscape:window-width="3072"
     inkscape:window-height="1665"
     inkscape:window-x="1912"
     inkscape:window-y="-8"
     inkscape:window-maximized="1"
     inkscape:current-layer="layer1" />
  <defs
     id="defs1800" />
  <g
     inkscape:label="Layer 1"
     inkscape:groupmode="layer"
     id="layer1"
     transform="translate(-180.52164,-71.988469)">
    <path
       d="m 198.10941,76.695199 v -0.0476 h -0.0589 v 0.0593 h -0.15593 l 0.28328,-0.4505 0.0741,-0.0222 0.9398,-1.651 -1.07138,-1.41041 -0.11042,-10e-4 v -0.61418 h 0.0663 v -0.12559 h -0.3041 v 0.12559 h 0.0441 v 0.085 l -1.17334,-0.16228 -0.0293,-0.004 -0.22119,-0.0303 v -0.16052 l 0.0243,-0.01 -0.0173,-0.0441 -0.0917,0.0363 h -0.0487 v 0.0194 l -0.11924,0.048 0.0176,0.0441 0.1016,-0.0409 v 0.1972 h 0.13335 v -0.0423 l 0.23777,0.0332 1.18604,0.49883 v 0.14429 l -8.25994,-0.11148 0.30057,-0.5334 0.0681,0.006 v 0.11712 l 0.14499,-0.006 0.0529,-0.006 0.0529,0.10583 0.0268,0.11254 h 0.13265 l 0.0131,-0.10583 -0.0928,-0.1457 h 0.14605 l 0.013,-0.0529 h 0.44803 l 0.0332,0.10548 0.0332,-0.0462 h 0.0797 l 0.073,0.0864 0.0928,-0.0201 -0.0332,-0.0928 v -0.1711 l 0.0794,-0.0864 -0.0794,-0.0194 -0.11924,0.0462 -0.29068,0.0332 h -0.11889 l -0.0466,-0.0529 -0.59337,-0.0113 0.12347,-0.21978 -0.4893,-0.11254 -0.16933,0.25753 h -0.25365 v 0.0596 h -1.16311 v -0.11959 h -0.0462 v 0.0864 h -0.23707 v 0.049 h -0.11324 v 0.0335 h -0.20426 v 0.0931 h 0.20426 v 0.0332 h 0.15945 v -0.0332 h 0.0847 v 0.0497 h 1.40335 l -0.248,0.37642 h -0.52 l 7.1e-4,0.17004 -0.35948,-0.005 -0.10019,0.15769 -0.17074,0.0353 -0.13018,0.18944 -0.0314,0.29774 -0.0864,0.13618 -2.00342,0.27199 -0.0332,-0.10689 -0.23636,0.0353 0.008,0.1069 -1.50036,0.2032 -0.0293,-0.0935 -0.23601,0.0353 0.007,0.0928 -0.89853,0.12171 -0.0303,-0.061 -0.37782,0.036 0.005,0.0801 -0.25859,0.0353 -0.0423,0.0459 v -0.14958 h -0.11818 v -0.0829 h -0.22472 v -0.41134 c 0.0215,-0.0127 0.036,-0.0353 0.036,-0.0617 0,-0.0388 -0.0325,-0.0705 -0.0713,-0.0705 -0.0388,0 -0.0706,0.0317 -0.0706,0.0705 0,0.0353 0.0251,0.0642 0.0586,0.0699 v 0.40323 h -0.0586 v 0.34078 l -0.16404,0.38982 -0.56162,1.31516 -0.0667,0.0582 -0.0826,0.0476 -0.0829,-0.0713 0.14181,-0.0706 0.0236,-0.11888 -0.20073,0.13088 -0.036,0.11747 0.0833,0.11889 0.15346,0.0116 0.0695,-0.0346 0.15628,0.26246 c -0.0268,0.11007 -0.0409,0.22543 -0.0409,0.34361 0,0.80645 0.65476,1.46121 1.46121,1.46121 0.7052,0 1.29469,-0.50024 1.43122,-1.16594 l 0.47519,-0.0138 0.27411,-0.18451 0.56762,-0.03 0.007,0.0381 -0.12912,0.16298 0.0822,0.1016 0.14111,-0.0684 0.18627,0.2607 -0.0875,0.14994 0.0953,0.0892 0.1591,-0.10795 0.21343,0.11077 0.008,0.17815 0.12841,0.0229 0.0603,-0.14111 0.27058,0.054 0.0138,0.16369 0.12946,0.018 0.0571,-0.14852 0.26917,0.0402 0.0123,0.15592 0.12947,0.018 0.0557,-0.14428 0.27093,0.0413 0.0123,0.15099 0.12947,0.0176 0.0533,-0.13864 0.2734,0.042 0.012,0.14464 0.12911,0.0183 0.0533,-0.13934 0.2727,0.0268 0.0127,0.15981 0.12947,0.0187 0.0639,-0.16651 0.24836,0.002 0.0324,0.14605 h 0.13053 l 0.0339,-0.14393 0.27728,0.003 0.0314,0.14111 h 0.13088 l 0.0318,-0.13899 0.27975,0.003 0.0303,0.13617 h 0.13088 l 0.0307,-0.13405 0.28187,0.003 0.0293,0.13088 h 0.13088 l 0.0296,-0.12947 0.28434,0.004 0.0279,0.12594 h 0.13089 l 0.0289,-0.12382 0.28646,0.003 0.0265,0.121 h 0.13088 l 0.0279,-0.11888 0.28822,0.003 0.0261,0.11606 h 0.13053 l 0.0265,-0.1143 0.29104,0.003 0.0247,0.11148 h 0.13053 l 0.0254,-0.10936 0.28117,0.003 0.024,0.10654 h 0.13053 l 0.0243,-0.10442 0.29493,0.003 0.0229,0.1016 h 0.13052 l 0.0229,-0.0995 0.29774,0.003 0.0215,0.0963 h 0.13088 l 0.0219,-0.0942 0.29951,0.003 0.0208,0.0914 h 0.13053 l 0.0215,-0.0942 0.29633,-0.013 0.0243,0.10724 h 0.13052 l 0.0268,-0.115 0.2868,-0.0131 0.0286,0.12806 h 0.13053 l 0.0318,-0.13617 0.2801,-0.0123 0.0303,0.13547 h 0.13053 l 0.036,-0.15346 0.29034,-0.0307 0.0533,0.13405 0.12841,-0.0197 0.0116,-0.1591 0.22401,-0.10372 0.16934,0.10301 0.0914,-0.0938 -0.09,-0.13829 0.21413,-0.20108 0.1651,0.0367 0.0554,-0.11889 -0.11959,-0.0935 0.0935,-0.25506 0.1651,-0.0402 -0.002,-0.13053 -0.15699,-0.0339 -0.0123,-0.20038 0.6738,-0.0759 v 0.0843 h 0.36971 c 0.0222,0.0289 0.0575,0.0476 0.0977,0.0476 0.0684,0 0.12347,-0.0561 0.12347,-0.12453 0,-0.0684 -0.055,-0.12418 -0.12347,-0.12418 h 0.20638 v 0.0476 h 0.0589 v -0.0554 l 0.35454,0.13829 h 0.18944 v -0.41416 h -0.22472 z m -10.39742,1.54622 -0.26247,-0.0409 c -0.0138,-0.0649 -0.042,-0.16298 -0.09,-0.17004 -0.0438,-0.006 -0.0868,0.0755 -0.11325,0.139 l -0.26634,-0.0409 c -0.0145,-0.0656 -0.0423,-0.15734 -0.0886,-0.16369 -0.043,-0.006 -0.0843,0.0705 -0.11148,0.13335 l -0.26952,-0.0395 c -0.005,-0.0226 -0.0113,-0.0483 -0.0198,-0.0723 0.17004,-0.054 0.31856,-0.15487 0.4311,-0.28752 l 0.42651,10e-4 c 0.0614,0.21202 0.19579,0.3937 0.375,0.51541 z m 0.2279,-0.47836 c -0.0603,0.0353 -0.13759,0.0145 -0.17287,-0.0455 -0.003,-0.006 -0.005,-0.0106 -0.008,-0.0159 l 0.2346,3.6e-4 c -0.0106,0.025 -0.0293,0.0473 -0.054,0.061 m 0.30973,0.23283 c -0.0699,0 -0.12664,-0.0572 -0.12664,-0.12629 0,-0.0699 0.0568,-0.12665 0.12664,-0.12665 0.0691,0 0.12595,0.0568 0.12595,0.12665 0,0.0691 -0.0568,0.12629 -0.12595,0.12629 m 0.2914,-0.21696 c -0.0275,-0.018 -0.0459,-0.0448 -0.0536,-0.0755 l 0.0399,7e-4 c 0.008,0.0286 0.018,0.0561 0.0282,0.0829 -0.005,-0.002 -0.01,-0.005 -0.0145,-0.008 m 0.27834,0.52882 c -0.0102,-0.0293 -0.0247,-0.0639 -0.0416,-0.0942 0.0212,-0.0138 0.0413,-0.0282 0.0607,-0.0441 0.0716,0.0582 0.15275,0.10583 0.23989,0.14076 z m 0.31186,-0.35208 c -0.0356,0.0353 -0.084,0.0501 -0.13018,0.0445 0.0586,-0.0776 0.10478,-0.16439 0.13653,-0.25858 0.0547,0.0617 0.0522,0.15557 -0.006,0.21413 m 0.29598,0.21379 c -0.0864,0 -0.15593,-0.0698 -0.15593,-0.15558 0,-0.0864 0.0695,-0.15628 0.15593,-0.15628 0.0864,0 0.15628,0.0699 0.15628,0.15628 0,0.0857 -0.0699,0.15558 -0.15628,0.15558 m 0.29598,-0.21379 c -0.0603,-0.0614 -0.0603,-0.15945 0,-0.22083 0.0318,0.096 0.0794,0.1845 0.13864,0.26387 -0.049,0.009 -0.1009,-0.006 -0.13864,-0.043 m 0.30444,0.36442 -0.26035,-0.006 c 0.0924,-0.0367 0.17816,-0.0861 0.25365,-0.14852 0.0152,0.0123 0.0311,0.025 0.0473,0.036 -0.0183,0.0353 -0.0314,0.0815 -0.0406,0.11888 m 0.2152,0.002 -0.009,-0.0258 c 0.0215,0.01 0.0437,0.0187 0.066,0.0265 z m 0.0656,-0.56056 c 0.006,-0.0173 0.0116,-0.0346 0.0173,-0.0519 h 0.0296 c -0.0102,0.0208 -0.0264,0.0388 -0.0469,0.0519 m 0.30621,0.23424 c -0.0699,0 -0.1263,-0.0572 -0.1263,-0.12629 0,-0.0699 0.0564,-0.12665 0.1263,-0.12665 0.0698,0 0.12629,0.0568 0.12629,0.12665 0,0.0691 -0.0564,0.12629 -0.12629,0.12629 m 0.24024,-0.28398 h 0.0451 c 0.008,0.0268 0.0173,0.0526 0.0275,0.078 -0.007,-0.003 -0.0145,-0.006 -0.0208,-0.0109 -0.0254,-0.0166 -0.043,-0.0402 -0.0519,-0.067 m 0.11641,0.61771 -0.0603,-7.1e-4 c 0.0226,-0.007 0.0444,-0.0152 0.0663,-0.0247 z m 0.47167,0.005 -0.25118,-0.002 c -0.01,-0.031 -0.0272,-0.0787 -0.0494,-0.11818 0.0219,-0.0145 0.043,-0.0303 0.0639,-0.0476 0.0723,0.0596 0.15417,0.10795 0.24236,0.14322 z m 0.0586,-0.37889 c -0.037,0.0367 -0.0871,0.0512 -0.13441,0.0437 0.0586,-0.0787 0.10513,-0.16722 0.13688,-0.26211 0.0582,0.0617 0.0579,0.15839 -0.002,0.21836 m 0.29633,0.21379 c -0.0864,0 -0.15628,-0.0698 -0.15628,-0.15558 0,-0.0864 0.0699,-0.15628 0.15628,-0.15628 0.0864,0 0.15593,0.0699 0.15593,0.15628 0,0.0857 -0.0695,0.15558 -0.15593,0.15558 m 0.29563,-0.21379 c -0.054,-0.0536 -0.0596,-0.13793 -0.018,-0.19826 0.0318,0.0879 0.0762,0.17004 0.13194,0.24413 -0.0413,7e-4 -0.0825,-0.0145 -0.11395,-0.0459 m 0.28081,0.38841 -0.23389,-0.002 -0.009,-0.0265 c 0.0896,-0.0346 0.17251,-0.0815 0.24659,-0.1397 0.0127,0.0106 0.0265,0.0201 0.0402,0.03 -0.0215,0.0427 -0.036,0.1016 -0.0441,0.13793 m 0.8569,-0.62477 c 0.006,0.0208 0.0131,0.0409 0.0191,0.0596 -0.0229,-0.0145 -0.0395,-0.0353 -0.0487,-0.0596 z m -0.6283,0.6276 c -0.004,-0.0109 -0.008,-0.0275 -0.0152,-0.0462 0.0444,0.0194 0.0914,0.0353 0.1397,0.0476 z m 0.35525,-0.35102 c -0.0699,0 -0.1263,-0.0572 -0.1263,-0.12629 0,-0.0699 0.0564,-0.12665 0.1263,-0.12665 0.0699,0 0.12665,0.0568 0.12665,0.12665 0,0.0691 -0.0568,0.12629 -0.12665,0.12629 m 0.36019,0.35878 -0.14817,-10e-4 c 0.0554,-0.0131 0.10901,-0.0303 0.16051,-0.0533 -0.006,0.0208 -0.01,0.0402 -0.0123,0.0547 m 0.47131,0.005 -0.23848,-0.002 c -0.005,-0.0208 -0.0275,-0.0935 -0.0593,-0.14676 0.0173,-0.0123 0.0339,-0.0247 0.0505,-0.0377 0.0765,0.0614 0.16298,0.11042 0.25647,0.14499 -0.004,0.0159 -0.007,0.0303 -0.009,0.0416 m 0.0409,-0.40394 c -0.0332,0.0332 -0.078,0.0487 -0.121,0.0452 0.0568,-0.0755 0.1023,-0.15981 0.13405,-0.25082 0.0476,0.0614 0.043,0.14922 -0.013,0.20566 m 0.29563,0.21379 c -0.0854,0 -0.15593,-0.0698 -0.15593,-0.15558 0,-0.0864 0.0706,-0.15628 0.15593,-0.15628 0.0864,0 0.15628,0.0699 0.15628,0.15628 0,0.0857 -0.0699,0.15558 -0.15628,0.15558 m 0.29668,-0.21379 c -0.0614,-0.0614 -0.0614,-0.15945 0,-0.22083 0.004,-0.004 0.008,-0.008 0.0123,-0.0113 l 0.1965,7e-4 c 0.004,0.004 0.008,0.007 0.0116,0.0106 0.0607,0.0614 0.0607,0.15945 0,0.22083 -0.0607,0.061 -0.15981,0.061 -0.22049,0 m 0.79481,0.34714 -0.26141,0.0116 c -0.0219,-0.0628 -0.0649,-0.16439 -0.11536,-0.16439 -0.049,0 -0.0815,0.10512 -0.0981,0.17356 l -0.25223,0.0109 -0.01,-0.0268 c 0.1845,-0.0755 0.33902,-0.20744 0.44344,-0.37465 0.0921,0.10442 0.20814,0.18873 0.33867,0.24306 -0.0208,0.0353 -0.036,0.0857 -0.0455,0.12665 m 0.20532,-0.0201 c -0.008,-0.0194 -0.0166,-0.0406 -0.0272,-0.0614 0.0741,0.0187 0.15205,0.0289 0.23178,0.0289 0.0187,0 0.0374,-7e-4 0.0547,0.006 z m 0.20461,-0.41451 c -0.0699,0 -0.12665,-0.0561 -0.12665,-0.12595 0,-0.0699 0.0568,-0.12629 0.12665,-0.12629 0.0699,0 0.12629,0.0564 0.12629,0.12629 0,0.0699 -0.0564,0.12595 -0.12629,0.12595 m 0.46637,-0.25295 c -0.0381,0.0586 -0.11606,0.0752 -0.17427,0.0374 -0.0586,-0.0381 -0.0751,-0.11712 -0.037,-0.17568 0.0377,-0.0582 0.11606,-0.0748 0.17462,-0.0367 0.0582,0.0381 0.0748,0.11606 0.0367,0.17497 m 1.72226,-4.64149 -1.00471,-0.42263 1.00471,0.13864 z"
       id="G-SdKfz251" />
  </g>
</svg>
