<?xml version="1.0" encoding="UTF-8" standalone="no"?>
<!-- Created with Inkscape (http://www.inkscape.org/) -->

<svg
   width="13.801775mm"
   height="7.1572351mm"
   viewBox="0 0 13.801775 7.1572351"
   version="1.1"
   id="svg11631"
   sodipodi:docname="inkporter-svg-7pt3_lo8.svg"
   xmlns:inkscape="http://www.inkscape.org/namespaces/inkscape"
   xmlns:sodipodi="http://sodipodi.sourceforge.net/DTD/sodipodi-0.dtd"
   xmlns="http://www.w3.org/2000/svg"
   xmlns:svg="http://www.w3.org/2000/svg">
  <sodipodi:namedview
     id="namedview11633"
     pagecolor="#ffffff"
     bordercolor="#666666"
     borderopacity="1.0"
     inkscape:pageshadow="2"
     inkscape:pageopacity="0.0"
     inkscape:pagecheckerboard="0"
     inkscape:document-units="mm"
     showgrid="false"
     inkscape:zoom="3.6233469"
     inkscape:cx="271.15814"
     inkscape:cy="424.05545"
     inkscape:window-width="1920"
     inkscape:window-height="1017"
     inkscape:window-x="-8"
     inkscape:window-y="-8"
     inkscape:window-maximized="1"
     inkscape:current-layer="layer1" />
  <defs
     id="defs11628" />
  <g
     inkscape:label="Layer 1"
     inkscape:groupmode="layer"
     id="layer1"
     transform="translate(-50.932245,-98.213788)">
    <path
       id="G-SdKfz221-28cm"
       d="m 58.764428,98.213788 -0.07648,0.03566 -0.07183,0.05013 c 0,0 -0.03757,0.06424 -0.09664,0.121438 -0.05888,0.05704 -0.09302,0.05943 -0.09302,0.05943 l -0.08372,0.0155 0.04909,0.05839 0.07183,0.07028 0.01757,0.07235 -0.101804,0.155029 0.05581,0.04599 -0.03049,0.121954 c 0,0 -0.02676,0.06086 -0.01241,0.08062 0.01484,0.0204 0.06563,0.02585 0.06563,0.02585 l 0.07286,0.01291 0.02532,0.11317 -0.0047,0.05581 -0.124021,0.111104 -0.07752,0.08475 c 0,0 -0.05886,0.09047 -0.06098,0.11834 -0.0019,0.02837 -0.01497,0.0925 -0.01497,0.0925 l -0.0093,0.125055 h -0.616501 l 5.3e-4,-0.01085 a 0.61564612,0.21810463 1.07968 0 0 0.475937,-0.202573 0.61564612,0.21810463 1.07968 0 0 -0.355015,-0.205155 l 0.0041,-0.20257 -0.552937,-0.01035 0.0925,-0.239776 -0.151413,-0.0026 -0.101285,0.239778 -0.163815,-0.0031 -0.0031,0.158647 -1.050065,-0.01963 -0.0031,0.186553 -0.552937,-0.01085 0.175699,-0.455269 -0.150894,-0.0026 -0.19172,0.454755 -4.1491,-0.07803 -0.0057,0.288356 4.03438,0.07648 -0.03411,0.08165 h -1.547191 v 0.185006 h 0.209806 v 0.1912 h 1.178738 l -0.08837,0.21033 0.05581,0.0103 h -0.146761 c -0.02854,0.001 -0.0832,0.002 -0.0832,0.004 0,0.008 -0.01593,0.0139 -0.03566,0.0139 -0.03791,0 -0.09931,0.0944 -0.0863,0.13281 0.0077,0.0227 -0.102751,0.084 -0.153479,0.0847 -0.04634,7.9e-4 -0.124251,0.21553 -0.131257,0.36122 -0.0067,0.14068 -0.05107,0.23245 -0.120407,0.24856 -0.02508,0.006 -0.07024,0.0232 -0.100253,0.0382 -0.02999,0.015 -0.337378,0.14079 -0.682644,0.27957 l -0.627869,0.25218 -0.01394,-0.0656 c -0.008,-0.0361 -0.01021,-0.077 -0.0052,-0.0904 0.0048,-0.0138 0.0021,-0.0195 -0.0067,-0.0145 -0.0088,0.006 -0.02032,-0.002 -0.02635,-0.0165 -0.0081,-0.0211 -0.05858,-0.0275 -0.242361,-0.0315 l -0.232545,-0.005 -0.05788,-0.15451 c -0.03432,-0.0915 -0.0541,-0.17402 -0.04909,-0.20154 0.01122,-0.0579 -0.03191,-0.0971 -0.09353,-0.0853 -0.02474,0.005 -0.04819,-0.001 -0.05219,-0.0119 -0.0039,-0.0111 -0.0053,0.0119 -0.0031,0.0512 0.0024,0.0392 0.01789,0.081 0.03359,0.0925 0.01574,0.0115 0.0517,0.086 0.08061,0.16536 l 0.05271,0.14418 -0.05168,0.0424 c -0.02844,0.0232 -0.05116,0.0537 -0.05116,0.0682 0,0.0216 -0.0087,0.0213 -0.05736,-0.004 -0.0649,-0.0336 -0.178991,-0.0237 -0.247528,0.0212 -0.04023,0.0262 -0.04082,0.034 -0.04082,0.37207 0,0.31339 0.0032,0.34839 0.03411,0.37931 0.01871,0.0187 0.04466,0.0379 0.05788,0.0419 0.01543,0.005 0.02604,0.0501 0.031,0.12557 0.0068,0.11391 0.0045,0.12016 -0.0739,0.23048 -0.04422,0.0623 -0.08708,0.10674 -0.09509,0.0997 -0.008,-0.008 -0.009,-0.003 -0.0021,0.009 0.0075,0.0131 -0.0061,0.0417 -0.03256,0.0682 -0.025,0.0251 -0.04167,0.0455 -0.03669,0.0455 0.005,0 -0.0019,0.0115 -0.01447,0.0253 -0.01982,0.0213 -0.02994,0.0197 -0.06666,-0.009 -0.03348,-0.0262 -0.07423,-0.0341 -0.176734,-0.0341 -0.07661,0 -0.138205,0.008 -0.145211,0.0196 -0.0067,0.0113 -0.02986,0.0164 -0.05168,0.0124 -0.03701,-0.007 -0.0397,-5.3e-4 -0.03772,0.0832 0.0021,0.082 0.0085,0.0961 0.07338,0.15089 0.03963,0.0335 0.06129,0.0609 0.04857,0.061 -0.03461,2.7e-4 -0.0837,0.11672 -0.0708,0.16795 0.0061,0.0243 0.03152,0.0663 0.05633,0.093 0.06126,0.0669 0.157094,0.066 0.286287,-0.002 0.06621,-0.0348 0.123402,-0.0508 0.176734,-0.0501 l 0.07906,0.001 0.13126,0.3638 c 0.129461,0.35824 0.132271,0.3642 0.181901,0.36019 0.04182,-0.003 0.04934,0.002 0.04134,0.0315 -0.0053,0.0193 -0.0024,0.0313 0.0067,0.0253 0.0096,-0.006 0.01654,-0.002 0.01654,0.009 0,0.0318 0.0753,0.18583 0.133842,0.27389 0.09662,0.14535 0.200263,0.25981 0.30644,0.33796 0.05703,0.042 0.100603,0.0813 0.0956,0.0873 -0.005,0.006 -0.0036,0.008 0.0021,0.004 0.0057,-0.004 0.05695,0.0151 0.113688,0.0429 0.115023,0.0564 0.247209,0.10213 0.368451,0.12764 l 0.0021,5.3e-4 c 0.117004,0.0246 0.463121,0.008 0.580842,-0.0279 0.05505,-0.0168 0.117817,-0.0321 0.139526,-0.0331 0.0217,-7.9e-4 0.03555,-0.006 0.03152,-0.0103 -0.0043,-0.004 0.03972,-0.0316 0.09715,-0.061 0.05746,-0.0295 0.123978,-0.0691 0.147796,-0.0879 0.02381,-0.0189 0.05042,-0.0298 0.05942,-0.0238 0.0089,0.005 0.0149,0.003 0.01291,-0.005 -0.0021,-0.008 0.0473,-0.0655 0.109037,-0.12764 0.196279,-0.19752 0.30134,-0.39281 0.36277,-0.67386 l 0.02894,-0.13229 h 2.760038 2.760038 l 0.03876,0.16536 c 0.04515,0.19358 0.157768,0.42206 0.270782,0.54932 0.04453,0.0501 0.07264,0.0978 0.06563,0.11007 -0.006,0.012 -0.0057,0.0158 0.0021,0.009 0.0077,-0.007 0.06726,0.0282 0.132292,0.078 0.191473,0.14676 0.337145,0.21457 0.56379,0.262 0.23867,0.05 0.50261,0.0275 0.748792,-0.0641 0.115009,-0.0428 0.34109,-0.17818 0.392223,-0.23461 0.01844,-0.02 0.04112,-0.0329 0.05013,-0.0269 0.0092,0.006 0.01286,0.003 0.01085,-0.005 -0.0024,-0.008 0.02819,-0.0542 0.06821,-0.1018 0.04006,-0.0476 0.10227,-0.13529 0.138494,-0.19482 0.03625,-0.0595 0.0721,-0.10209 0.0801,-0.0951 0.008,0.007 0.0089,0.004 0.0021,-0.008 -0.0071,-0.0116 -0.0029,-0.0446 0.0083,-0.0729 0.0113,-0.0284 0.03812,-0.12115 0.05994,-0.20619 l 0.03979,-0.15503 0.143145,-0.005 c 0.120618,-0.004 0.150828,-0.0123 0.195853,-0.0501 0.02918,-0.0241 0.06127,-0.0401 0.07028,-0.0341 0.01013,0.006 0.01445,-5.3e-4 0.01241,-0.0139 -0.0028,-0.0136 0.0089,-0.0222 0.02635,-0.0212 0.01754,0.001 0.02878,-0.004 0.02376,-0.0109 -0.0045,-0.007 0.01796,-0.0332 0.05013,-0.0574 0.05197,-0.039 0.08218,-0.0447 0.274918,-0.0527 0.173916,-0.007 0.217649,-0.0148 0.220657,-0.0367 0.01619,-0.11177 0.07186,-0.32085 0.08837,-0.33176 0.01101,-0.008 0.04277,-0.0133 0.07028,-0.0134 0.04303,-2.7e-4 0.05013,-0.008 0.05013,-0.0538 0,-0.047 0.0069,-0.0544 0.05891,-0.0594 0.03249,-0.003 0.09444,0.01 0.137459,0.0279 0.08916,0.0377 0.164902,0.0288 0.213426,-0.0248 0.01744,-0.0195 0.03992,-0.0298 0.05013,-0.0238 0.01101,0.006 0.01434,0.004 0.0093,-0.005 -0.005,-0.009 -0.0031,-0.0552 0.0036,-0.10232 0.007,-0.0471 0.0061,-0.081 -0.0021,-0.076 -0.0082,0.006 -0.01498,0.003 -0.01498,-0.005 0,-0.008 0.03489,-0.0368 0.07803,-0.0641 0.04318,-0.0272 0.11258,-0.0745 0.153998,-0.10438 l 0.07545,-0.0543 -0.119888,-0.1757 c -0.09565,-0.14039 -0.114676,-0.17896 -0.09457,-0.19327 0.02056,-0.015 0.01937,-0.0158 -0.0041,-0.009 -0.02829,0.009 -0.08239,-0.0664 -0.07338,-0.10283 0.0021,-0.008 -0.0029,-0.0113 -0.01085,-0.006 -0.01601,0.01 -0.125341,-0.15215 -0.118338,-0.17467 0.0024,-0.008 -0.0019,-0.0139 -0.01085,-0.0139 -0.02907,0 -0.388964,-0.56031 -0.374655,-0.58343 0.0079,-0.0128 0.0058,-0.0178 -0.0052,-0.0108 -0.01778,0.011 -0.350359,-0.091 -0.36897,-0.11317 -0.0051,-0.006 -0.02545,-0.0131 -0.04547,-0.0171 -0.04395,-0.008 -0.930968,-0.32474 -0.961183,-0.34365 -0.01183,-0.007 -0.03378,-0.0156 -0.04858,-0.0176 -0.01479,-0.002 -0.211251,-0.0703 -0.436666,-0.15193 l -0.409794,-0.14882 -0.08165,-0.10129 c -0.04502,-0.0559 -0.079,-0.10881 -0.077,-0.11782 0.0024,-0.01 -0.003,-0.0122 -0.01188,-0.006 -0.0094,0.006 -0.04526,-0.0233 -0.07958,-0.0646 l -0.06253,-0.0749 -0.493509,0.002 c -0.402492,0.002 -0.492218,-0.003 -0.484209,-0.0222 0.0051,-0.0132 -0.0031,-0.0343 -0.0186,-0.047 -0.01548,-0.0128 -0.02199,-0.032 -0.01601,-0.0424 0.0064,-0.011 0.0026,-0.0137 -0.0083,-0.007 -0.01072,0.007 -0.03816,-0.0149 -0.06098,-0.0475 -0.02283,-0.0326 -0.04667,-0.0637 -0.05168,-0.0687 -0.05658,-0.0532 -0.113298,-0.12907 -0.117306,-0.15658 -0.0028,-0.0188 -0.01495,-0.0341 -0.02687,-0.0341 -0.02791,0 -0.05731,-0.0478 -0.04341,-0.0703 0.0056,-0.009 0.0019,-0.0122 -0.0093,-0.005 -0.01077,0.007 -0.05629,-0.0346 -0.102319,-0.0925 l -0.0832,-0.104904 0.07234,-0.0057 c 0.06364,-0.0049 0.07286,-0.01138 0.07286,-0.05013 0,-0.02548 -0.0097,-0.04177 -0.02222,-0.03979 -0.03662,0.0075 -0.0657,-0.146473 -0.0677,-0.355018 l -5.29e-4,-0.195852 h -0.05478 -0.05426 l -0.0011,0.186549 c -1.99e-4,0.05146 -0.0019,0.09886 -0.0047,0.142629 -0.04201,-0.11236 -0.09644,-0.219681 -0.129191,-0.240813 -0.06549,-0.0423 -0.242361,0.0987 -0.242361,0.0987 l -0.04289,-0.03101 -0.09509,-0.09043 -0.09095,-0.13901 -0.02739,-0.147793 0.07234,0.04651 0.01601,-0.200504 0.03411,-0.06563 c 0,0 0.0082,5.3e-4 0.03411,-0.06563 0.02558,-0.0657 0.01447,-0.109554 0.01447,-0.109554 0,0 0.03146,0.0041 -0.0083,-0.0956 -0.04015,-0.100314 -0.03876,-0.07028 -0.03876,-0.07028 l -0.08165,-0.08423 -0.144693,-0.09147 -0.148312,-0.05168 z m -3.587893,1.590601 0.07648,0.0016 v 0.077 H 55.14656 Z m -0.175702,0.454751 h 0.252182 v 0.22066 h -0.336931 z m 6.420281,0.31006 c -7.94e-4,7.9e-4 0.0042,0.008 0.0155,0.0227 h 5.29e-4 c 0.02373,0.0299 0.03824,0.0397 0.03824,0.0248 0,-0.004 -0.01394,-0.0178 -0.03152,-0.0315 -0.0145,-0.0113 -0.02178,-0.017 -0.02273,-0.016 z m -9.413896,1.31413 c 0.0055,-7.9e-4 0.01402,5.3e-4 0.02532,0.002 0.01998,0.002 0.03617,0.009 0.03617,0.0165 0,0.0279 0.0044,0.043 0.04496,0.15451 0.03821,0.10514 0.03857,0.11567 0.01138,0.15709 -0.02953,0.0438 -0.02951,0.0434 -0.03152,-0.0522 -0.0019,-0.0674 -0.01688,-0.12299 -0.05013,-0.18242 -0.04281,-0.0764 -0.0527,-0.0931 -0.03617,-0.0951 z m 0.204639,0.078 c 0.0024,-2.6e-4 0.0064,5.3e-4 0.01138,0.003 0.01355,0.005 0.02862,0.0199 0.03359,0.0326 0.0052,0.0126 0.0026,0.0329 -0.0052,0.0455 -0.0097,0.0155 -0.02058,0.005 -0.03359,-0.032 -0.01185,-0.0336 -0.01407,-0.0473 -0.0062,-0.0486 z m 12.089183,1.33791 c 0.02625,-8e-4 0.01352,0.0505 -0.01498,0.0615 v -5.3e-4 c -0.03731,0.0146 -0.06253,0.0145 -0.06253,0 0,-0.0141 0.05841,-0.0598 0.07752,-0.0605 z m -13.155784,0.21807 0.07131,0.0398 c 0.07004,0.0393 0.08489,0.081 0.02739,0.076 -0.01574,-0.001 -0.02466,0.004 -0.01963,0.0134 0.0053,0.009 0.0019,0.016 -0.0083,0.016 l 5.29e-4,5.3e-4 c -0.0097,0 -0.02974,0.005 -0.04393,0.01 -0.01429,0.005 -0.03628,-0.003 -0.04909,-0.0181 -0.01873,-0.0226 -0.01868,-0.0389 -5.29e-4,-0.0827 z m 0.546735,0.17053 c 0.0021,-0.002 0.05314,0.007 0.113173,0.0191 0.07845,0.0163 0.106801,0.0295 0.101801,0.0481 -0.0039,0.0142 -0.01212,0.1236 -0.0181,0.24288 l -0.01138,0.21704 -0.09457,-0.26148 c -0.05212,-0.14386 -0.09294,-0.26358 -0.09095,-0.26562 z"
       style="stroke-width:0.264583" />
  </g>
</svg>
