<?xml version="1.0" encoding="UTF-8" standalone="no"?>
<!-- Created with Inkscape (http://www.inkscape.org/) -->

<svg
   width="18.719446mm"
   height="6.7581639mm"
   viewBox="0 0 18.719446 6.7581639"
   version="1.1"
   id="svg26913"
   sodipodi:docname="inkporter-svg-n3igsb6y.svg"
   xmlns:inkscape="http://www.inkscape.org/namespaces/inkscape"
   xmlns:sodipodi="http://sodipodi.sourceforge.net/DTD/sodipodi-0.dtd"
   xmlns="http://www.w3.org/2000/svg"
   xmlns:svg="http://www.w3.org/2000/svg">
  <sodipodi:namedview
     id="namedview26915"
     pagecolor="#ffffff"
     bordercolor="#666666"
     borderopacity="1.0"
     inkscape:pageshadow="2"
     inkscape:pageopacity="0.0"
     inkscape:pagecheckerboard="0"
     inkscape:document-units="mm"
     showgrid="false"
     inkscape:zoom="0.64052329"
     inkscape:cx="-168.61214"
     inkscape:cy="1201.3615"
     inkscape:window-width="1920"
     inkscape:window-height="1017"
     inkscape:window-x="-8"
     inkscape:window-y="-8"
     inkscape:window-maximized="1"
     inkscape:current-layer="layer1" />
  <defs
     id="defs26910" />
  <g
     inkscape:label="Layer 1"
     inkscape:groupmode="layer"
     id="layer1"
     transform="translate(55.210902,-239.92133)">
    <g
       id="G-SdKfz251-flamm"
       transform="matrix(0.35277777,0,0,-0.35277777,-37.5766,244.6415)">
      <path
         d="m 0,0 v 0.135 h -0.167 v -0.168 h -0.444 l 0.806,1.28 0.21,0.063 2.671,4.693 -3.045,4.008 -0.314,0.004 v 1.747 h 0.189 v 0.357 h -0.865 v -0.357 h 0.126 V 11.52 l -3.335,0.462 -0.083,0.011 -0.628,0.087 v 0.455 l 0.068,0.028 -0.049,0.126 -0.261,-0.104 H -5.259 V 12.53 l -0.339,-0.138 0.051,-0.124 0.288,0.116 v -0.56 h 0.38 v 0.12 l 0.675,-0.094 3.371,-1.418 v -0.411 l -5.896,0.08 c -0.062,0.35 -0.225,0.677 -0.535,0.899 -0.273,0.196 -0.786,0.493 -1.208,0.728 l 0.096,0.171 0.489,0.161 0.33,-0.123 0.902,0.165 -0.083,0.413 -1.526,-0.419 0.46,0.816 -1.403,0.288 -0.548,-0.865 h -8.348 V 11.51 h 7.749 l -0.291,-0.103 -0.742,-1.197 0.127,-0.048 -13.049,0.176 0.855,1.516 0.192,-0.016 v -0.334 l 0.413,0.018 0.149,0.017 0.151,-0.3 0.077,-0.32 h 0.377 l 0.037,0.3 -0.265,0.415 h 0.417 l 0.035,0.151 h 1.275 l 0.094,-0.3 0.094,0.131 h 0.226 l 0.209,-0.245 0.263,0.057 -0.095,0.263 v 0.487 l 0.226,0.246 -0.226,0.054 -0.339,-0.131 -0.825,-0.094 h -0.338 l -0.134,0.151 -1.685,0.031 0.351,0.625 -1.39,0.32 -0.482,-0.733 h -0.721 v -0.169 h -3.306 v 0.34 h -0.131 v -0.245 h -0.674 v -0.14 h -0.322 v -0.096 h -0.58 v -0.263 h 0.58 V 11.98 h 0.454 v 0.094 h 0.239 v -0.142 h 3.99 l -0.705,-1.07 h -1.479 l 0.003,-0.484 -1.023,0.014 -0.285,-0.447 -0.485,-0.101 -0.369,-0.538 -0.089,-0.847 -0.245,-0.387 -5.695,-0.773 -0.094,0.304 -0.672,-0.1 0.024,-0.304 -4.265,-0.577 -0.084,0.265 -0.67,-0.1 0.019,-0.263 -2.553,-0.346 -0.087,0.173 -1.074,-0.102 0.014,-0.228 -0.735,-0.1 -0.12,-0.13 v 0.424 h -0.336 v 0.236 h -0.638 v 1.17 c 0.061,0.035 0.102,0.1 0.102,0.174 0,0.11 -0.092,0.201 -0.202,0.201 -0.112,0 -0.203,-0.091 -0.203,-0.201 0,-0.1 0.073,-0.182 0.167,-0.198 V 6.451 h -0.167 V 5.48 l -0.416,-0.988 -1.644,-3.856 -0.191,-0.165 -0.234,-0.135 -0.235,0.202 0.402,0.201 0.067,0.337 -0.57,-0.371 -0.102,-0.334 0.236,-0.338 0.436,-0.033 0.199,0.098 0.443,-0.746 c -0.076,-0.313 -0.115,-0.641 -0.115,-0.977 0,-2.292 1.86,-4.152 4.152,-4.152 2.004,0 3.679,1.422 4.066,3.314 l 1.352,0.039 0.78,0.524 1.612,0.085 0.02,-0.108 -0.367,-0.464 0.234,-0.288 0.4,0.194 0.529,-0.741 -0.248,-0.426 0.271,-0.253 0.452,0.306 0.607,-0.314 0.024,-0.507 0.365,-0.065 0.171,0.401 0.77,-0.153 0.037,-0.466 0.369,-0.051 0.162,0.422 0.766,-0.113 0.035,-0.444 0.367,-0.051 0.159,0.41 0.77,-0.118 0.036,-0.428 0.367,-0.051 0.151,0.395 0.778,-0.12 0.034,-0.411 0.367,-0.053 0.151,0.397 0.774,-0.076 0.038,-0.454 0.367,-0.053 0.183,0.473 0.705,-0.008 0.092,-0.414 h 0.371 l 0.097,0.408 0.787,-0.007 0.089,-0.401 h 0.373 l 0.09,0.395 0.794,-0.008 0.086,-0.387 h 0.374 l 0.086,0.381 0.801,-0.01 0.083,-0.371 h 0.373 l 0.085,0.367 0.807,-0.01 0.078,-0.357 h 0.374 l 0.08,0.351 0.815,-0.007 0.075,-0.344 h 0.373 l 0.079,0.338 0.819,-0.008 0.075,-0.33 h 0.371 l 0.075,0.324 0.827,-0.008 0.07,-0.316 h 0.372 l 0.07,0.31 0.8,-0.008 0.069,-0.302 h 0.371 l 0.069,0.296 0.838,-0.007 0.065,-0.289 h 0.371 l 0.065,0.283 0.847,-0.01 0.061,-0.273 h 0.371 l 0.063,0.267 0.85,-0.008 0.059,-0.259 h 0.372 l 0.06,0.267 0.843,0.037 0.069,-0.304 h 0.371 l 0.077,0.326 0.815,0.037 0.081,-0.363 h 0.371 l 0.09,0.387 0.796,0.035 0.086,-0.385 h 0.371 l 0.103,0.436 0.825,0.087 0.151,-0.381 0.365,0.057 0.034,0.451 0.636,0.295 0.481,-0.293 0.26,0.267 -0.256,0.393 0.609,0.572 0.47,-0.104 0.157,0.338 -0.34,0.265 0.265,0.725 0.47,0.114 -0.006,0.371 -0.446,0.096 -0.035,0.57 1.915,0.216 v -0.24 h 1.051 c 0.063,-0.082 0.163,-0.135 0.277,-0.135 0.194,0 0.351,0.159 0.351,0.353 0,0.195 -0.157,0.354 -0.351,0.354 h 0.587 V -0.739 H 0 v 0.158 L 1.008,-0.974 H 1.546 V 0.202 H 0.908 Z m -29.552,-4.394 -0.746,0.116 c -0.039,0.184 -0.118,0.463 -0.255,0.483 -0.124,0.018 -0.246,-0.214 -0.323,-0.395 l -0.756,0.116 c -0.041,0.186 -0.12,0.448 -0.251,0.466 -0.122,0.017 -0.24,-0.201 -0.317,-0.38 l -0.766,0.112 c -0.013,0.065 -0.033,0.138 -0.057,0.207 0.484,0.153 0.906,0.44 1.226,0.817 l 1.212,-0.004 c 0.175,-0.603 0.556,-1.12 1.065,-1.466 z m 0.649,1.359 c -0.171,-0.1 -0.391,-0.041 -0.492,0.13 -0.007,0.015 -0.015,0.029 -0.021,0.045 l 0.666,-0.002 c -0.03,-0.071 -0.083,-0.134 -0.153,-0.173 m 0.88,-0.662 c -0.199,0 -0.36,0.163 -0.36,0.36 0,0.198 0.161,0.359 0.36,0.359 0.196,0 0.357,-0.161 0.357,-0.359 0,-0.197 -0.161,-0.36 -0.357,-0.36 m 0.829,0.617 c -0.079,0.051 -0.132,0.128 -0.154,0.214 l 0.114,-0.002 c 0.022,-0.081 0.051,-0.159 0.081,-0.236 -0.014,0.006 -0.028,0.014 -0.041,0.024 m 0.789,-1.503 c -0.027,0.083 -0.069,0.181 -0.118,0.267 0.061,0.04 0.118,0.081 0.173,0.126 0.205,-0.165 0.434,-0.301 0.682,-0.401 z m 0.888,1 c -0.102,-0.1 -0.24,-0.141 -0.371,-0.126 0.167,0.22 0.298,0.468 0.389,0.735 0.155,-0.175 0.147,-0.442 -0.018,-0.609 m 0.841,-0.607 c -0.246,0 -0.444,0.198 -0.444,0.442 0,0.245 0.198,0.444 0.444,0.444 0.245,0 0.444,-0.199 0.444,-0.444 0,-0.244 -0.199,-0.442 -0.444,-0.442 m 0.841,0.607 c -0.171,0.175 -0.171,0.454 0,0.629 0.09,-0.273 0.226,-0.525 0.395,-0.751 -0.14,-0.025 -0.287,0.016 -0.395,0.122 m 0.866,-1.035 -0.741,0.017 c 0.264,0.105 0.507,0.246 0.721,0.423 0.043,-0.036 0.089,-0.071 0.134,-0.102 -0.051,-0.101 -0.089,-0.232 -0.114,-0.338 m 0.611,-0.006 -0.026,0.073 c 0.061,-0.028 0.124,-0.053 0.187,-0.075 z m 0.186,1.593 c 0.018,0.049 0.034,0.098 0.05,0.147 h 0.084 c -0.029,-0.059 -0.075,-0.11 -0.134,-0.147 m 0.871,-0.666 c -0.199,0 -0.36,0.163 -0.36,0.36 0,0.198 0.161,0.359 0.36,0.359 0.198,0 0.359,-0.161 0.359,-0.359 0,-0.197 -0.161,-0.36 -0.359,-0.36 m 0.683,0.807 h 0.128 c 0.023,-0.076 0.049,-0.149 0.079,-0.222 -0.022,0.008 -0.042,0.018 -0.059,0.032 -0.073,0.047 -0.124,0.114 -0.148,0.19 m 0.33,-1.756 -0.171,0.002 c 0.063,0.022 0.126,0.043 0.189,0.071 z m 1.34,-0.013 -0.713,0.005 c -0.028,0.089 -0.077,0.224 -0.14,0.336 0.061,0.042 0.122,0.087 0.181,0.136 0.206,-0.169 0.438,-0.307 0.69,-0.407 z m 0.167,1.076 c -0.104,-0.104 -0.248,-0.145 -0.381,-0.124 0.165,0.224 0.298,0.476 0.389,0.745 0.165,-0.175 0.163,-0.45 -0.008,-0.621 m 0.843,-0.607 c -0.246,0 -0.444,0.198 -0.444,0.442 0,0.245 0.198,0.444 0.444,0.444 0.245,0 0.444,-0.199 0.444,-0.444 0,-0.244 -0.199,-0.442 -0.444,-0.442 m 0.84,0.607 c -0.153,0.153 -0.171,0.393 -0.051,0.564 0.091,-0.25 0.216,-0.484 0.376,-0.694 -0.118,-0.002 -0.236,0.042 -0.325,0.13 m 0.798,-1.104 -0.664,0.006 -0.026,0.075 c 0.254,0.098 0.49,0.231 0.702,0.396 0.035,-0.029 0.074,-0.057 0.114,-0.084 -0.061,-0.122 -0.103,-0.289 -0.126,-0.393 m 2.436,1.776 c 0.017,-0.059 0.037,-0.116 0.053,-0.169 -0.065,0.041 -0.112,0.1 -0.138,0.169 z m -1.786,-1.784 c -0.01,0.032 -0.024,0.079 -0.043,0.132 0.126,-0.055 0.259,-0.1 0.397,-0.136 z m 1.01,0.998 c -0.199,0 -0.36,0.163 -0.36,0.36 0,0.198 0.161,0.359 0.36,0.359 0.198,0 0.359,-0.161 0.359,-0.359 0,-0.197 -0.161,-0.36 -0.359,-0.36 m 1.023,-1.019 -0.422,0.003 c 0.159,0.038 0.31,0.087 0.458,0.152 -0.016,-0.059 -0.028,-0.114 -0.036,-0.155 m 1.34,-0.014 -0.678,0.006 c -0.016,0.059 -0.078,0.265 -0.169,0.416 0.049,0.035 0.097,0.071 0.144,0.108 0.218,-0.175 0.463,-0.314 0.728,-0.412 -0.009,-0.045 -0.019,-0.087 -0.025,-0.118 m 0.116,1.147 c -0.094,-0.094 -0.222,-0.138 -0.344,-0.128 0.161,0.214 0.291,0.454 0.381,0.713 0.136,-0.174 0.122,-0.424 -0.037,-0.585 m 4.516,14.05 c 0.109,-0.079 0.179,-0.21 0.229,-0.357 l -1.172,0.016 v 0.917 c 0.351,-0.2 0.725,-0.422 0.943,-0.576 m -2.642,-0.189 h 0.344 v -0.134 l -0.377,0.005 z M -11.321,-4.19 c -0.243,0 -0.443,0.198 -0.443,0.442 0,0.245 0.2,0.444 0.443,0.444 0.246,0 0.444,-0.199 0.444,-0.444 0,-0.244 -0.198,-0.442 -0.444,-0.442 m 0.843,0.607 c -0.175,0.175 -0.175,0.454 0,0.629 0.01,0.009 0.022,0.021 0.036,0.031 l 0.557,-0.002 c 0.012,-0.01 0.024,-0.02 0.034,-0.029 0.173,-0.175 0.173,-0.454 0,-0.629 -0.173,-0.173 -0.454,-0.173 -0.627,0 m 2.259,-0.986 -0.742,-0.033 c -0.063,0.178 -0.185,0.467 -0.328,0.467 -0.14,0 -0.232,-0.299 -0.279,-0.493 l -0.717,-0.031 -0.028,0.076 c 0.525,0.214 0.965,0.59 1.261,1.065 0.262,-0.297 0.592,-0.536 0.963,-0.692 -0.059,-0.1 -0.102,-0.243 -0.13,-0.359 m 0.584,0.057 c -0.022,0.055 -0.048,0.116 -0.077,0.175 0.21,-0.053 0.432,-0.083 0.658,-0.083 0.053,0 0.106,0.002 0.155,-0.017 z m 0.581,1.178 c -0.198,0 -0.359,0.16 -0.359,0.358 0,0.198 0.161,0.359 0.359,0.359 0.198,0 0.36,-0.161 0.36,-0.359 0,-0.198 -0.162,-0.358 -0.36,-0.358 m 1.326,0.719 c -0.108,-0.167 -0.33,-0.214 -0.495,-0.106 -0.167,0.108 -0.214,0.332 -0.106,0.499 0.108,0.165 0.33,0.212 0.497,0.104 0.165,-0.108 0.212,-0.33 0.104,-0.497 m 4.895,13.192 -2.856,1.202 2.856,-0.395 z"
         style="fill:#000000;fill-opacity:1;fill-rule:nonzero;stroke:none"
         id="path21495-0-4-7" />
    </g>
  </g>
</svg>
