<?xml version="1.0" encoding="UTF-8" standalone="no"?>
<!-- Created with Inkscape (http://www.inkscape.org/) -->

<svg
   width="19.840603mm"
   height="7.3757181mm"
   viewBox="0 0 19.840603 7.3757186"
   version="1.1"
   id="svg33402"
   sodipodi:docname="inkporter-svg-eob1e1oo.svg"
   inkscape:version="1.1.1 (3bf5ae0d25, 2021-09-20)"
   xmlns:inkscape="http://www.inkscape.org/namespaces/inkscape"
   xmlns:sodipodi="http://sodipodi.sourceforge.net/DTD/sodipodi-0.dtd"
   xmlns="http://www.w3.org/2000/svg"
   xmlns:svg="http://www.w3.org/2000/svg">
  <sodipodi:namedview
     id="namedview555"
     pagecolor="#ffffff"
     bordercolor="#666666"
     borderopacity="1.0"
     inkscape:pageshadow="2"
     inkscape:pageopacity="0.0"
     inkscape:pagecheckerboard="0"
     inkscape:document-units="mm"
     showgrid="false"
     inkscape:zoom="0.64"
     inkscape:cx="239.84375"
     inkscape:cy="-52.34375"
     inkscape:window-width="3072"
     inkscape:window-height="1665"
     inkscape:window-x="1912"
     inkscape:window-y="-8"
     inkscape:window-maximized="1"
     inkscape:current-layer="svg33402" />
  <defs
     id="defs13927" />
  <path
     id="G-SdKfz2511-75"
     d="M 8.330705,0 V 0.08731 H 8.088848 V 0.13795 H 7.974125 v 0.0336 H 7.766402 V 0.26561 H 7.974125 V 0.29662 H 7.571587 L 7.627917,0.22322 7.537487,0.17827 7.351432,0.465581 7.053776,0.448011 6.783002,0.465581 H 6.011978 L 5.81976,0.567895 5.130386,0.612875 v 0.265086 l 0.666619,0.05686 0.203624,0.09043 0.782373,0.0186 h 0.230476 l -0.07442,0.133826 c 0,0 0.374279,0.0444 0.721413,0.06874 0.118875,0.0085 0.195156,0.100753 0.291465,0.101812 L 8.164315,1.504809 7.814458,1.500109 7.142152,2.409085 5.222388,2.669038 5.188238,2.559976 4.94691,2.596166 l 0.0083,0.109538 -1.536858,0.207222 -0.02999,-0.09509 -0.241854,0.03619 0.0078,0.09506 -0.919822,0.12454 -0.03203,-0.06252 -0.387058,0.03617 0.0057,0.08218 -0.308,0.08319 V 3.060219 H 1.391655 V 2.974949 H 1.161703 V 2.553256 c 0.02187,-0.01198 0.0367,-0.03519 0.0367,-0.06199 0,-0.03987 -0.03231,-0.07287 -0.07287,-0.07287 -0.04022,0 -0.07237,0.03299 -0.07237,0.07287 0,0.03598 0.02589,0.06583 0.06048,0.07184 v 0.41185 h -0.06048 v 0.353455 l -0.742579,1.73945 -0.06821,0.05993 -0.08474,0.04808 -0.08475,-0.07339 0.144674,-0.07184 0.0248,-0.120914 L 0.03617,5.042548 0,5.163462 l 0.08525,0.121444 0.15711,0.01188 0.0708,-0.03567 0.160179,0.26924 c -0.02752,0.112897 -0.04133,0.230399 -0.04133,0.351393 0,0.824812 0.669318,1.493969 1.495506,1.493969 0.722154,0 1.32498,-0.511307 1.465023,-1.192159 L 3.879847,6.169589 4.160464,5.979936 4.748026,5.989236 4.615735,6.156135 4.699955,6.258979 4.844153,6.189739 5.03534,6.456386 4.94544,6.609871 5.04363,6.700811 5.205897,6.592306 5.425,6.703933 l 0.0078,0.182933 0.132292,0.02273 0.06149,-0.1447 0.277495,0.0553 0.01344,0.167428 0.132821,0.01913 0.0584,-0.151421 0.275431,0.04032 0.01291,0.160178 0.132292,0.0186 0.05736,-0.148299 0.277495,0.04186 0.01242,0.154517 0.132292,0.0186 0.05477,-0.141605 0.280088,0.04239 0.01189,0.148299 0.132292,0.01863 0.05527,-0.142134 0.278553,0.02688 0.01344,0.163301 0.132793,0.01963 0.06512,-0.171053 0.254237,0.0036 0.03306,0.148828 h 0.133854 l 0.03464,-0.146765 0.283686,0.0026 0.03203,0.144171 h 0.133851 l 0.03253,-0.142108 0.286307,0.0026 0.0315,0.139515 h 0.133855 l 0.032,-0.137451 0.287838,0.0031 0.02999,0.134356 h 0.134356 l 0.03051,-0.132292 0.290936,0.0031 0.0284,0.129196 h 0.133855 l 0.02946,-0.127132 0.292999,0.0036 0.0284,0.123507 h 0.132821 l 0.02896,-0.121946 0.295568,0.0031 0.02639,0.118851 h 0.133827 l 0.02737,-0.116787 0.297152,0.0031 0.02582,0.113692 h 0.133855 l 0.02582,-0.111628 0.287838,0.0036 0.0248,0.108003 h 0.133325 l 0.0248,-0.106442 0.302313,0.0031 0.02275,0.103346 h 0.133827 l 0.02427,-0.101282 0.304376,0.0026 0.0217,0.09869 h 0.134384 l 0.0217,-0.09663 0.30747,0.0031 0.0212,0.09353 h 0.133322 l 0.02272,-0.09663 0.302814,-0.01294 0.02427,0.109564 h 0.134383 l 0.02738,-0.117316 0.293504,-0.01394 0.02949,0.131259 h 0.133827 l 0.03203,-0.139514 0.287337,-0.01241 0.03048,0.138483 h 0.133855 l 0.0372,-0.157083 0.296623,-0.03101 0.05477,0.137451 0.131262,-0.0217 0.01242,-0.16174 0.229446,-0.106468 0.17362,0.105939 0.0925,-0.09663 -0.09197,-0.141605 0.220134,-0.205158 0.168991,0.0367 0.05683,-0.120412 -0.122477,-0.09612 0.0956,-0.260959 0.168987,-0.0403 -0.0025,-0.134884 -0.160207,-0.03307 -0.01291,-0.205661 0.690379,-0.07805 v 0.08578 h 0.377772 c 0.02293,0.03035 0.0595,0.04911 0.09972,0.04911 0.07057,0 0.127635,-0.05763 0.127635,-0.127133 0,-0.05043 -0.02967,-0.09374 -0.07234,-0.114194 l 0.15658,0.03514 0.06099,-0.0558 0.362769,0.140547 h 0.193252 V 5.223887 h -0.229447 l -0.326574,0.02482 h -0.06099 v 0.05985 h -0.160298 l 0.290936,-0.460957 0.07546,-0.02222 1.596813,-2.631863 0.09043,-0.143669 -0.372587,-0.357081 -0.113188,-10e-4 V 1.063501 h 0.06771 V 0.934834 H 19.11144 l 0.04495,0.128667 v 0.08631 l -1.230923,-0.169518 -0.22582,-0.03098 0.0056,-0.22016 -0.14314,0.05789 -0.10438,0.09456 0.10438,-0.04239 v 0.202062 l 0.137478,-0.04342 0.242358,0.0336 1.214384,0.510566 v 0.147268 l -1.392159,-0.01601 0.01707,-0.05839 c 0,0 0.110755,-0.118586 0.103346,-0.203623 -0.0074,-0.08501 -0.322026,-0.362585 -0.399972,-0.369994 -0.07763,-0.0074 -0.170021,0.199999 -0.170021,0.199999 l -0.0522,-0.0078 -0.125571,-0.0367 -0.144702,-0.08165 -0.0925,-0.118348 0.08578,0.0078 -0.07853,-0.1855 v -0.0739 c 0,0 0.0074,-0.0034 0,-0.0739 -0.0074,-0.07022 -0.03722,-0.103875 -0.03722,-0.103875 0,0 0.02999,-0.01093 -0.05115,-0.08112 -0.08186,-0.07056 -0.06668,-0.04445 -0.06668,-0.04445 l -0.111626,-0.0372 -0.170526,-0.01447 -0.155546,0.02222 -0.114724,0.0403 -0.05168,0.06667 -0.04082,0.0775 c 0,0 -0.0039,0.07448 -0.02999,0.152453 -0.02607,0.0776 -0.05477,0.09559 -0.05477,0.09559 l -0.06718,0.0522 0.07027,0.02945 0.09612,0.02945 0.04858,0.05583 -0.01859,0.184997 0.07027,0.01497 0.02946,0.121973 c 0,0 0.0045,0.06657 0.02639,0.0775 0.02258,0.0113 0.06974,-0.0072 0.06974,-0.0072 l 0.0708,-0.02223 0.07443,0.0889 0.0217,0.05167 -0.05117,0.135387 -0.804598,-0.0093 0.01602,-0.05427 c 0,5.2e-5 0.111259,-0.11856 0.10385,-0.203597 -0.0074,-0.08501 -0.322527,-0.362585 -0.400473,-0.369994 -0.07763,-0.0074 -0.170021,0.19947 -0.170021,0.19947 l -0.0522,-0.0078 -0.125571,-0.0367 -0.144699,-0.08112 -0.0925,-0.118851 0.08578,0.0078 -0.07853,-0.185023 v -0.0739 c 0,0 0.0074,-0.0038 0,-0.0744 -0.0074,-0.07019 -0.0367,-0.103346 -0.0367,-0.103346 0,0 0.02949,-0.01093 -0.05167,-0.08115 -0.08184,-0.07054 -0.06668,-0.04442 -0.06668,-0.04442 l -0.111601,-0.03723 -0.170551,-0.01497 -0.15555,0.02222 -0.114723,0.04083 -0.05167,0.06665 -0.0403,0.07752 c 0,0 -0.0038,0.07395 -0.02999,0.151923 -0.02611,0.0776 -0.0553,0.09612 -0.0553,0.09612 l -0.06718,0.05167 0.07027,0.02998 0.09612,0.02895 0.04858,0.05633 -0.01859,0.184467 0.07027,0.0155 0.02949,0.121444 c 0,0 0.0045,0.0671 0.02635,0.07802 0.02258,0.0113 0.06974,-0.0077 0.06974,-0.0077 l 0.0708,-0.0217 0.07443,0.08887 0.0217,0.05167 L 14.357119,1.63354 14.079123,1.63044 13.8905,1.151386 11.907158,0.838754 V 0.60981 H 11.031229 V 0.454791 H 10.67105 l -0.02018,-0.03151 h 0.14883 l 0.01295,-0.05427 h 0.4563 l 0.03306,0.107474 0.03411,-0.04702 h 0.08112 l 0.0739,0.08734 0.09456,-0.01963 -0.03359,-0.09459 v -0.17362 l 0.08062,-0.08784 -0.08062,-0.02016 -0.121444,0.04702 -0.295063,0.0336 H 11.01363 L 10.96661,0.147845 10.363018,0.136465 9.819405,0.059975 H 9.561013 v 0.06098 H 8.377609 V 4.1e-5 Z m -0.19431,0.265615 h 0.08631 v 0.03101 h -0.08631 z m 2.108913,0.07853 0.06977,0.0057 v 0.104907 h -0.132291 z m 7.882731,0.712629 1.028358,0.142108 V 1.489315 Z M 15.82119,6.039407 c 0.01235,-0.0014 0.02477,-0.0012 0.03723,0.001 0.01658,0.003 0.03295,0.0093 0.04805,0.01913 0.05927,0.03916 0.07654,0.118322 0.03773,0.178277 -0.03916,0.05998 -0.118826,0.07686 -0.178805,0.03876 -0.05998,-0.03916 -0.07723,-0.119353 -0.03773,-0.179308 0.02163,-0.03355 0.05652,-0.0536 0.09353,-0.05789 z m -0.355519,0.198967 c 0.07197,0 0.130228,0.05792 0.130228,0.129196 0,0.07231 -0.05826,0.130228 -0.130228,0.130228 -0.07091,0 -0.129198,-0.05792 -0.129198,-0.130228 0,-0.07128 0.05829,-0.129196 0.129198,-0.129196 z m -8.913153,0.08525 0.436669,0.0016 c 0.06279,0.217673 0.200794,0.402987 0.372586,0.553984 L 7.093062,6.837858 c -0.01415,-0.06739 -0.04347,-0.167957 -0.0925,-0.174651 -0.04482,-0.0067 -0.08877,0.07665 -0.116283,0.14261 L 6.611942,6.763457 C 6.597122,6.696407 6.568952,6.602538 6.522032,6.596532 6.477582,6.590132 6.435172,6.668392 6.407309,6.732951 L 6.131878,6.692131 6.111738,6.617731 C 6.285305,6.562701 6.437176,6.459536 6.552534,6.323673 Z m 0.857832,0.0026 0.239766,0.001 c -0.01058,0.02577 -0.02953,0.04736 -0.05527,0.06252 -0.06141,0.03532 -0.141104,0.01405 -0.184496,-0.06355 z m 0.786,0.0026 0.01446,0.07699 C 8.18224,6.387484 8.16319,6.359854 8.19635,6.328824 Z m 2.429827,0.0083 0.0067,0.06874 c -0.02611,-0.01622 -0.04413,-0.04157 -0.0067,-0.06874 z m 2.386408,0.0078 0.01961,0.06099 c -0.02364,-0.01553 -0.04008,-0.03664 -0.01961,-0.06099 z m 1.233011,0.0042 0.201535,4.94e-4 0.0114,0.01138 c 0.06207,0.06244 0.06207,0.163195 0,0.226324 -0.06244,0.06138 -0.163753,0.06138 -0.225849,0 -0.06244,-0.06313 -0.06258,-0.164121 0.01295,-0.238204 z m -4.824518,0.01188 c 0.03281,0.09805 0.08091,0.188595 0.14158,0.269743 -0.04972,0.0099 -0.102764,-0.0057 -0.14158,-0.04342 -0.06173,-0.06313 -0.06173,-0.163883 0,-0.226325 z m 1.823667,0.0036 c 0.05961,0.06175 0.05879,0.160999 -0.0025,0.222726 -0.03775,0.0367 -0.08911,0.05257 -0.138483,0.04445 0.06033,-0.08043 0.108268,-0.170868 0.141076,-0.267176 z m -2.423636,0.0031 c 0.05575,0.06244 0.05376,0.15928 -0.0062,0.219605 -0.03635,0.03564 -0.08607,0.05114 -0.133322,0.04548 C 8.741197,6.552359 8.788292,6.463641 8.8211,6.367703 Z m -0.909504,0.0015 c 0.07125,0 0.129724,0.05778 0.129699,0.128694 0,0.07125 -0.05845,0.129698 -0.129699,0.129698 -0.07125,0 -0.128668,-0.05845 -0.128668,-0.129698 0,-0.07091 0.05741,-0.128694 0.128668,-0.128694 z m 2.422603,0 c 0.0716,0 0.128668,0.05778 0.128668,0.128694 0,0.07125 -0.05707,0.129698 -0.128668,0.129698 -0.07162,0 -0.129724,-0.05845 -0.129724,-0.129698 0,-0.07091 0.0581,-0.128694 0.129724,-0.128694 z m 2.398818,0 c 0.07125,0 0.129699,0.05778 0.129699,0.128694 0,0.07125 -0.05844,0.129698 -0.129699,0.129698 -0.07091,0 -0.129194,-0.05845 -0.129194,-0.129698 0,-0.07091 0.05829,-0.128694 0.129194,-0.128694 z m 0.906914,0.0072 c 0.04834,0.06244 0.04371,0.152612 -0.01344,0.21082 -0.03422,0.03318 -0.07956,0.04919 -0.124012,0.04601 0.05821,-0.07726 0.104299,-0.163698 0.137453,-0.256831 z m -1.810226,0.0067 c 0.0321,0.09102 0.07808,0.174969 0.134884,0.250111 -0.04233,0.0011 -0.08416,-0.01495 -0.116286,-0.04601 -0.05537,-0.05538 -0.06165,-0.142372 -0.01859,-0.2041 z M 9.117735,6.485419 c 0.08818,0 0.160203,0.07252 0.160203,0.160708 0,0.08819 -0.07202,0.159676 -0.160203,0.159676 -0.08856,0 -0.160207,-0.07149 -0.160207,-0.159676 0,-0.08819 0.07165,-0.160708 0.160207,-0.160708 z m 2.427763,0 c 0.08784,0 0.159174,0.07252 0.159174,0.160708 0,0.08819 -0.07133,0.159676 -0.159174,0.159676 -0.0889,0 -0.159677,-0.07149 -0.159677,-0.159676 0,-0.08819 0.07078,-0.160708 0.159677,-0.160708 z m 2.383843,0 c 0.08818,0 0.160179,0.07252 0.160179,0.160708 0,0.08819 -0.072,0.159676 -0.160179,0.159676 -0.08821,0 -0.159702,-0.07149 -0.159702,-0.159676 0,-0.08819 0.07149,-0.160708 0.159702,-0.160708 z m 0.816981,0.07803 c 0.09456,0.107236 0.213226,0.192987 0.347264,0.249079 -0.02117,0.03564 -0.03715,0.08842 -0.04702,0.129699 l -0.267176,0.01138 c -0.02258,-0.06384 -0.06734,-0.167958 -0.118851,-0.167958 -0.05043,0 -0.08385,0.107236 -0.09972,0.176742 l -0.268207,-0.01551 c 0.188726,-0.07689 0.346816,-0.211984 0.453708,-0.383434 z m -3.807513,0.239263 c 0.0748,0.06033 0.158563,0.110358 0.242887,0.172085 l -0.256832,-0.0031 c -0.01023,-0.03069 -0.02857,-0.0802 -0.05117,-0.120412 z m -2.424141,0.0021 c 0.07408,0.05961 0.156556,0.108718 0.246514,0.144701 l -0.265641,-0.0026 c -0.01023,-0.02963 -0.02473,-0.06525 -0.04236,-0.09559 z m 4.816768,0.0036 c 0.07832,0.06313 0.166423,0.112871 0.253206,0.191188 L 13.340721,6.998 c -0.006,-0.02117 -0.02868,-0.09583 -0.0093,-0.189654 z m -3.557404,0.02996 c -0.01834,0.03527 -0.03217,0.08281 -0.04135,0.120915 l -0.266647,-0.0067 c 0.09525,-0.03633 0.182058,-0.08811 0.308,-0.114194 z m 2.406572,0.0041 c -0.02187,0.04411 -0.03649,0.104351 -0.04495,0.142107 L 11.88708,6.955629 c 0.09136,-0.03493 0.176396,-0.08424 0.293528,-0.113162 z m 3.0489,0.0155 c 0.07585,0.01974 0.155257,0.02966 0.292495,0.03564 l -0.265113,0.02741 z m -2.197287,0.118851 c 0.02579,-0.0021 0.04985,0.0015 0.06977,0.0181 l -0.151423,-0.0016 c 0.02822,-0.0067 0.05586,-0.01442 0.08165,-0.01653 z"
     style="stroke-width:0.352778" />
</svg>
