<?xml version="1.0" encoding="UTF-8" standalone="no"?>
<!-- Created with Inkscape (http://www.inkscape.org/) -->

<svg
   width="20.005703mm"
   height="9.6551409mm"
   viewBox="0 0 20.005703 9.6551414"
   version="1.1"
   id="svg33402"
   sodipodi:docname="G-SdKfz251-2cm.svg"
   inkscape:version="1.1.1 (3bf5ae0d25, 2021-09-20)"
   xmlns:inkscape="http://www.inkscape.org/namespaces/inkscape"
   xmlns:sodipodi="http://sodipodi.sourceforge.net/DTD/sodipodi-0.dtd"
   xmlns="http://www.w3.org/2000/svg"
   xmlns:svg="http://www.w3.org/2000/svg">
  <sodipodi:namedview
     id="namedview555"
     pagecolor="#ffffff"
     bordercolor="#666666"
     borderopacity="1.0"
     inkscape:pageshadow="2"
     inkscape:pageopacity="0.0"
     inkscape:pagecheckerboard="0"
     inkscape:document-units="mm"
     showgrid="false"
     inkscape:zoom="3.6203867"
     inkscape:cx="142.94053"
     inkscape:cy="49.304125"
     inkscape:window-width="1920"
     inkscape:window-height="1017"
     inkscape:window-x="-8"
     inkscape:window-y="-8"
     inkscape:window-maximized="1"
     inkscape:current-layer="svg33402"
     inkscape:snap-nodes="false"
     inkscape:snap-bbox="true"
     inkscape:snap-others="false"
     inkscape:bbox-paths="false"
     inkscape:bbox-nodes="true" />
  <defs
     id="defs13927" />
  <path
     id="G-SdKfz251-2cm"
     style="stroke-width:1"
     d="m 14.983061,9.6249815 c -0.01295,-6.086e-4 -0.02732,0.00183 -0.04082,0.00723 -0.0298,0.011901 -0.02118,0.020738 0.02222,0.022738 0.0389,0.00159 0.06159,-0.00724 0.04909,-0.019637 -0.0062,-0.006 -0.01754,-0.00974 -0.03049,-0.010335 z" />
  <path
     id="path1217"
     style="stroke-width:1"
     d="m 15.074529,9.4839048 c -0.0056,-8.466e-4 -0.0096,0.012666 -0.01085,0.039791 v 5.292e-4 c -0.0016,0.0389 0.0071,0.060976 0.01964,0.048576 0.012,-0.012401 0.0139,-0.044314 0.0031,-0.071313 -0.0045,-0.011176 -0.0085,-0.017058 -0.01188,-0.017571 z" />
  <path
     id="path1215"
     style="stroke-width:1"
     d="m 9.8758798,9.1170021 c 0.0274,0 0.057112,0.020809 0.065112,0.046509 0.0093,0.0277 -0.017013,0.047026 -0.065112,0.047026 -0.0481,3e-7 -0.074112,-0.019325 -0.065112,-0.047026 0.0086,-0.025699 0.037812,-0.046509 0.065112,-0.046509 z" />
  <path
     id="path1213"
     style="stroke-width:1"
     d="m 8.6862883,9.1077004 c 0.030989,-0.00257 0.062449,0.00772 0.081649,0.028422 0.0355,0.0375 0.033332,0.04127 -0.00827,0.017571 -0.0394,-0.0225 -0.046639,-0.01406 -0.028939,0.032039 0.028694,0.075207 0.021955,0.076277 -0.069763,0.00878 -0.0694,-0.0509 -0.069768,-0.054482 -0.00517,-0.079582 0.0098,-0.0038 0.020159,-0.00638 0.030489,-0.00723 z" />
  <path
     id="path1211"
     style="stroke-width:1"
     d="m 12.278317,9.0989155 c 0.03537,0 0.04906,0.021111 0.03566,0.05581 -0.02468,0.0643 -0.162781,0.077086 -0.162781,0.014986 0,-0.023101 0.02608,-0.03132 0.05788,-0.019121 0.0331,0.0127 0.04824,0.00611 0.03514,-0.014986 -0.0126,-0.020299 0.0028,-0.03669 0.03411,-0.03669 z" />
  <path
     id="path1209"
     style="stroke-width:1"
     d="m 11.09596,9.0808285 c 0.0069,-4.497e-4 0.01337,7.144e-4 0.01809,0.00362 0.015,0.0091 0.01729,0.041213 0.0057,0.071313 -0.02175,0.0567 -0.09454,0.072889 -0.136942,0.030489 -0.02587,-0.025961 0.06479,-0.1023634 0.113171,-0.1054201 z" />
  <path
     id="path1207"
     style="stroke-width:1"
     d="m 14.676103,9.0735938 c 0.0079,3.969e-4 -7e-5,0.015825 -0.01757,0.047026 v -0.00103 c -0.0202,0.0362 -0.06405,0.069931 -0.09715,0.074931 -0.08304,0.0122 -0.07583,-0.0033 0.03669,-0.076998 0.04605,-0.02975 0.07012,-0.044312 0.07803,-0.043925 z" />
  <path
     id="path1205"
     style="stroke-width:1"
     d="m 13.506149,9.0617082 c 0.0292,5.027e-4 0.02752,0.011557 -0.0057,0.032556 -0.0273,0.017399 -0.04796,0.046396 -0.04496,0.064596 0.0029,0.018201 -0.02081,0.038475 -0.05271,0.045475 -0.0318,0.0063 -0.05788,0.00307 -0.05788,-0.00723 0,-0.03679 0.11813,-0.135982 0.16123,-0.1353923 z" />
  <path
     id="path1203"
     style="stroke-width:1"
     d="m 15.061093,8.9867774 c -0.0019,-0.00198 -0.01721,0.00909 -0.04651,0.032039 -0.03567,0.02791 -0.09089,0.040822 -0.12299,0.028422 -0.0335,-0.0128 -0.04876,-0.00673 -0.03566,0.01447 0.03524,0.057 0.116099,0.043778 0.172599,-0.028422 0.0232,-0.0295 0.03443,-0.044522 0.03256,-0.046509 z" />
  <path
     id="path1201"
     style="stroke-width:1"
     d="m 7.2522673,8.9666238 c -0.011337,6.085e-4 -0.014396,0.008 -0.0062,0.021188 0.012549,0.020201 0.038628,0.03669 0.057878,0.03669 0.05365,0 0.041882,-0.026877 -0.022738,-0.051677 -0.01243,-0.00476 -0.022135,-0.00656 -0.028939,-0.0062 z" />
  <path
     id="path1199"
     style="stroke-width:1"
     d="m 7.1034391,8.8782569 c -0.03142,0.0022 -0.030469,0.0081 0.0031,0.021704 0.025918,0.010499 0.035801,0.037011 0.02222,0.058911 h -5.292e-4 c -0.01478,0.023799 -0.00692,0.029019 0.019121,0.01292 0.05134,-0.0318 0.020235,-0.097534 -0.043925,-0.093534 z" />
  <path
     id="path1197"
     style="stroke-width:1"
     d="m 14.928801,8.8627539 c 0.0234,9.79e-4 0.04949,0.019929 0.0863,0.059428 0.0754,0.0813 0.076,0.085632 0.0093,0.1674315 v -0.00103 c -0.03763,0.0463 -0.08285,0.084233 -0.100253,0.084233 -0.03853,0 -0.142622,-0.1604518 -0.120922,-0.1865519 0.0085,-0.01 0.02919,-0.01375 0.04599,-0.00775 0.017,0.0057 0.02184,-0.00507 0.01033,-0.02377 -0.0115,-0.018701 0.0011,-0.052331 0.02842,-0.074931 0.01404,-0.011663 0.02679,-0.01764 0.04082,-0.017052 z m 0.343132,0.2170412 c 0.0089,-3.704e-4 0.01997,0.00127 0.03152,0.00568 0.0308,0.0118 0.05581,0.028174 0.05581,0.036174 0,0.0077 -0.02501,0.014986 -0.05581,0.014986 -0.0308,0 -0.05633,-0.016274 -0.05633,-0.036174 0,-0.012938 0.0099,-0.020032 0.02481,-0.020672 z" />
  <path
     id="path1195"
     style="stroke-width:1"
     d="m 6.8295541,8.7795549 c -0.0068,-2.91e-4 -0.01701,0.00196 -0.029456,0.00672 -0.03189,0.012301 -0.057878,0.029207 -0.057878,0.037207 0,0.0302 0.071078,0.013179 0.093017,-0.02222 0.00819,-0.013562 0.00565,-0.021227 -0.00568,-0.021704 z" />
  <path
     id="path1193"
     style="stroke-width:1"
     d="m 11.681454,8.7345964 c 0.0542,-5.292e-4 0.107958,0.044406 0.118339,0.1152385 h -5.29e-4 c 0.0051,0.035 -0.02194,0.080369 -0.05994,0.1007692 -0.05449,0.0291 -0.08142,0.019307 -0.127125,-0.045992 -0.05133,-0.07398 -0.05153,-0.089026 -0.001,-0.1395262 0.02077,-0.020775 0.04564,-0.030252 0.07028,-0.030489 z" />
  <path
     id="path1191"
     style="stroke-width:1"
     d="m 9.182382,3.4331114 c -0.011732,0.03429 -0.092631,0.034524 -0.4113442,0.030489 -0.2354202,-0.003 -0.440136,0.00601 -0.4542359,0.020154 -0.0141,0.01418 0.00377,0.046924 0.039274,0.072864 0.05757,0.04204 0.048291,0.052164 -0.084749,0.091984 -0.08215,0.02438 -0.1634508,0.036308 -0.1803508,0.025838 -0.01696,-0.010486 -0.082261,0.038981 -0.1452108,0.1100708 -0.062931,0.07108 -0.1391888,0.129191 -0.1694987,0.129191 -0.060131,0 -0.1750398,0.2497804 -0.1757,0.3829224 -0.00101,0.145033 -0.059243,0.1933034 -0.2361612,0.1943034 -0.091368,6.006e-4 -0.1604957,0.00987 -0.1539957,0.020671 0.00661,0.01084 -0.2932861,0.067057 -0.6661092,0.1250569 -0.372823,0.0579 -0.7280658,0.1196425 -0.7896159,0.1369425 -0.151153,0.0426 -0.4195288,0.056888 -0.4521686,0.024289 -0.05181,-0.05177 -0.1986373,-0.024924 -0.2671673,0.048576 -0.038281,0.0411 -0.1105469,0.073313 -0.160197,0.071313 -0.049708,-0.00172 -0.3742608,0.049271 -0.7214028,0.1131715 -0.458674,0.0844 -0.6381742,0.1043805 -0.6573243,0.07338 -0.017518,-0.0284 -0.080002,-0.033303 -0.1855184,-0.015502 -0.1032751,0.0175 -0.1415441,0.037044 -0.1095541,0.056844 0.056617,0.035 0.00725,0.045594 -0.6914306,0.1462445 -0.266544,0.0383 -0.497617,0.062193 -0.513147,0.052193 -0.01553,-0.0095 -0.028422,0.0013 -0.028422,0.024289 0,0.023 -0.029222,0.038006 -0.065112,0.031006 -0.035923,-0.006 -0.085904,0.00228 -0.1111043,0.018087 -0.025216,0.015801 -0.078776,0.011165 -0.1188558,-0.010335 C 1.6331668,5.3856543 1.555157,5.3683971 1.499647,5.3683971 H 1.3988779 l 0.01912,-0.3364135 c 0.019926,-0.3494899 -0.00756,-0.4275611 -0.1126546,-0.3224609 -0.04844,0.04844 -0.051066,0.076446 -0.014986,0.1555459 0.076155,0.1671 0.055809,0.449911 -0.039791,0.550871 -0.046174,0.04878 -0.1095567,0.098054 -0.1410767,0.1095539 -0.049606,0.018161 -0.23861973,0.4588994 -0.31625973,0.7379395 -0.062494,0.2246001 -0.33645855,0.9524654 -0.36276856,0.9637655 -0.0157999,0.0068 -0.0203719,0.027158 -0.009302,0.044958 0.0110699,0.01787 -0.007591,0.09635 -0.0413411,0.1741495 -0.0358,0.0826 -0.0691285,0.1206672 -0.0800985,0.091467 -0.0103201,-0.0274 -4.236e-5,-0.068667 0.0227375,-0.091467 0.0554,-0.05587 0.0526623,-0.1340236 -0.005168,-0.1240234 -0.065776,0.011031 -0.22237686,0.099914 -0.28318686,0.1607137 -0.03693,0.03693 -0.04310087,0.089853 -0.02222087,0.1896523 0.0159,0.07623 0.03013939,0.1556168 0.03203939,0.1762167 0.003478,0.0422 0.19480096,0.027696 0.28732095,-0.021704 0.101453,-0.05409 0.25641964,0.2064519 0.25734865,0.434082 6.5087e-4,0.1014799 0.0330602,0.2763366 0.0718302,0.3886067 0.03868,0.1122699 0.0609026,0.2195452 0.0490926,0.2387452 -0.0118099,0.0186 -0.005137,0.024585 0.015503,0.011885 0.0206399,-0.012801 0.0607135,0.019846 0.0888835,0.072347 0.058505,0.1093099 0.46764903,0.4986776 0.52399903,0.4986776 0.020179,0 0.02902,0.01274 0.01912,0.028939 -0.00995,0.016201 0.010042,0.03114 0.044442,0.03514 0.034404,0.0031 0.1464924,0.030695 0.2490804,0.061495 l 0.00207,0.00103 c 0.362363,0.1086299 0.8619541,0.053146 1.159619,-0.1286743 0.063543,-0.0388 0.1266532,-0.062193 0.1400432,-0.052193 0.012999,0.0094 0.016317,0.0068 0.00672,-0.0062 -0.022029,-0.0299 0.1726639,-0.1853657 0.2149739,-0.1715656 0.01741,0.0056 0.022675,-0.00359 0.011885,-0.021188 -0.010779,-0.01751 0.026096,-0.08948 0.082165,-0.15968 0.056012,-0.07019 0.134303,-0.1894001 0.1736328,-0.2651001 l 0.071314,-0.1374595 0.3751707,-0.018603 c 0.4599411,-0.022701 0.5019101,-0.029331 0.4935101,-0.078031 -0.00372,-0.021299 0.022693,-0.03659 0.058394,-0.03359 0.0357,0.0028 0.055839,-0.00927 0.044958,-0.026872 -0.010869,-0.0175 0.024675,-0.043244 0.079065,-0.056844 0.063515,-0.015999 0.1090975,-0.00755 0.1281576,0.023254 0.016269,0.025929 0.056243,0.037405 0.088883,0.024805 0.06555,-0.02518 0.1246682,0.1238375 0.078549,0.1984375 -0.037528,0.06073 0.094132,0.1911318 0.1689817,0.1674318 0.077688,-0.02467 0.1835792,0.086274 0.1198893,0.1255736 -0.0848,0.05239 0.021362,0.1282917 0.1834515,0.1322917 0.1340098,0.0029 0.162171,0.015946 0.1622639,0.075447 1.86e-4,0.092 0.1986301,0.156631 0.2299602,0.074931 0.030414,-0.07926 0.1500992,-0.064613 0.1725991,0.021188 0.023749,0.0908 0.212907,0.1073034 0.212907,0.018603 0,-0.0632 0.032267,-0.069821 0.107487,-0.02222 0.02856,0.017899 0.039968,0.051097 0.025839,0.073897 -0.015441,0.025101 0.00343,0.041341 0.048059,0.041341 0.04052,0 0.1003583,0.010237 0.1328084,0.022738 0.03877,0.014901 0.058911,0.00209 0.058911,-0.037207 0,-0.0862 0.1152429,-0.073714 0.1384929,0.014986 0.013809,0.0528 0.050974,0.074414 0.1271239,0.074414 0.059113,0 0.1074869,-0.016608 0.1074869,-0.037207 0,-0.0205 0.033404,-0.037207 0.074414,-0.037207 0.0411,0 0.070712,0.019074 0.065112,0.042375 -0.00512,0.0234 0.039945,0.055964 0.099735,0.072864 0.059756,0.016999 0.1233168,0.052565 0.1410767,0.079065 0.019651,0.0295 0.022868,0.00792 0.00827,-0.054777 -0.021101,-0.09098 -0.013457,-0.1023194 0.069763,-0.1023194 0.07522,0 0.090034,0.014415 0.074414,0.074414 -0.016428,0.0628 -0.00124,0.074931 0.096635,0.074931 0.073206,0 0.1162719,-0.019159 0.1162719,-0.05116 0,-0.03383 0.030954,-0.044456 0.093534,-0.032556 0.05131,0.0099 0.093018,0.039012 0.093018,0.065112 0,0.026101 0.056347,0.054012 0.1250569,0.062012 0.1045551,0.0122 0.1220869,0.00422 0.107487,-0.051676 -0.0127,-0.0483 0.0041,-0.066662 0.061495,-0.066662 0.0434,0 0.079065,0.023693 0.079065,0.052193 0,0.0311 0.050157,0.058146 0.1250569,0.066146 0.1045501,0.0122 0.1220869,0.00422 0.1074869,-0.051676 -0.0128,-0.0489 0.00443,-0.066662 0.065629,-0.066662 0.0575,0 0.076595,0.016928 0.061495,0.056327 -0.01655,0.0432 0.00779,0.055811 0.107487,0.055811 0.09018,0 0.1297078,-0.016812 0.1297078,-0.055811 0,-0.0349 0.035018,-0.056327 0.093018,-0.056327 0.0977,0 0.1272254,0.054933 0.047025,0.087333 -0.025641,0.010401 0.024421,0.019704 0.1116211,0.021704 0.1173401,0.00209 0.1586468,-0.01121 0.1586468,-0.05271 0,-0.0311 0.032914,-0.056327 0.074414,-0.056327 0.0415,0 0.074931,0.025228 0.074931,0.056327 0,0.0369 0.036487,0.055811 0.1074869,0.055811 0.06149,0 0.1174078,-0.02391 0.1297078,-0.055811 0.0118,-0.0308 0.045214,-0.056327 0.074414,-0.056327 0.0292,0 0.063131,0.025527 0.074931,0.056327 0.012549,0.0328 0.068259,0.055811 0.1343589,0.055811 0.07559,0 0.1131713,-0.01841 0.1131713,-0.055811 0,-0.0311 0.032914,-0.056327 0.074414,-0.056327 0.0428,0 0.07441,0.024995 0.07441,0.058394 0,0.0426 0.03134,0.054509 0.12144,0.046509 0.07262,-0.007 0.118137,-0.029878 0.112138,-0.057878 -0.0053,-0.0274 0.02901,-0.047026 0.08371,-0.047026 0.0548,0 0.09023,0.019725 0.08423,0.047026 -0.0061,0.0301 0.03642,0.046509 0.120923,0.046509 0.08454,0 0.127439,-0.016309 0.121439,-0.046509 -0.0051,-0.025699 0.02411,-0.047026 0.06511,-0.047026 0.0414,0 0.07493,0.025228 0.07493,0.056327 0,0.0373 0.03702,0.055811 0.111622,0.055811 0.0746,0 0.112137,-0.01851 0.112137,-0.055811 0,-0.0349 0.03502,-0.056327 0.09302,-0.056327 0.0548,0 0.09023,0.019725 0.08423,0.047026 -0.01426,0.0713 0.191491,0.081969 0.218591,0.011369 0.02775,-0.0727 0.163814,-0.077918 0.163814,-0.00672 0,0.031 0.04939,0.058146 0.12299,0.066146 0.10234,0.012002 0.12344,0.00233 0.12144,-0.057361 -0.0014,-0.0479 0.02508,-0.073548 0.07958,-0.078548 0.0651,-0.0053 0.07551,0.00586 0.04961,0.05426 -0.02742,0.0512 -0.0094,0.062763 0.113688,0.069763 0.10649,0.0063 0.146761,-0.00606 0.146761,-0.044958 0,-0.0887 0.107112,-0.1032706 0.151412,-0.020672 0.04613,0.0863 0.24776,0.088901 0.22996,0.0031 -0.01102,-0.053 0.12712,-0.02816 0.19482,0.03514 0.06361,0.0594 0.176587,0.035025 0.196887,-0.042375 0.0166,-0.0633 0.02883,-0.067705 0.07803,-0.027905 0.0455,0.03677 0.05239,0.036817 0.03049,5.291e-4 -0.0155,-0.025699 -0.01043,-0.046509 0.01137,-0.046509 0.0217,0 0.03979,0.033414 0.03979,0.074414 0,0.0537 0.02447,0.074931 0.08837,0.074931 0.0876,0 0.190528,-0.081289 0.151928,-0.1198893 -0.011,-0.010901 0.02078,-0.020153 0.07028,-0.020153 0.0598,0 0.08827,0.020061 0.08527,0.060461 -0.0066,0.09133 0.20451,0.090683 0.22841,-5.292e-4 0.02108,-0.0806 0.158647,-0.09462 0.158647,-0.01602 0,0.058 0.09416,0.090012 0.197921,0.065112 0.0388,-0.0093 0.05936,-0.037979 0.04806,-0.067179 -0.0113,-0.0295 0.0043,-0.05116 0.03721,-0.05116 0.036,0 0.04654,0.017309 0.02894,0.046509 -0.0191,0.0312 -0.0078,0.030149 0.03514,-0.00465 0.0551,-0.0445 0.06305,-0.043415 0.06305,0.00878 0,0.0424 0.03374,0.060461 0.112137,0.060461 0.07461,3e-7 0.111622,-0.01851 0.111622,-0.05581 0,-0.0812 0.137363,-0.069147 0.159163,0.013951 0.02533,0.09678 0.21394,0.064023 0.21394,-0.037207 0,-0.0454 0.02663,-0.07028 0.07493,-0.07028 0.0414,0 0.07441,0.02481 0.07441,0.055811 0,0.0784 0.201134,0.073282 0.266134,-0.00672 0.0439,-0.0544 0.04313,-0.059039 -0.0052,-0.032039 -0.0442,0.024601 -0.04669,0.021164 -0.01188,-0.016536 0.05006,-0.0541 0.178326,-0.021011 0.142626,0.03669 -0.02587,0.0419 0.03345,0.047586 0.15503,0.014986 0.0442,-0.0118 0.0884,-0.053301 0.0987,-0.092501 0.0103,-0.0391 0.04533,-0.071314 0.07803,-0.071314 0.0704,0 0.07952,0.060233 0.01292,0.087333 -0.0257,0.010999 0.008,0.014269 0.07441,0.00827 0.14889,-0.013481 0.236389,-0.081497 0.206189,-0.1601968 -0.0151,-0.0394 -0.0082,-0.050356 0.02067,-0.032556 0.024,0.014801 0.04392,0.0093 0.04392,-0.012401 0,-0.021701 0.02501,-0.039791 0.05581,-0.039791 0.0308,0 0.05633,0.017775 0.05633,0.039274 0,0.0215 0.04172,0.009 0.09302,-0.027905 0.0613,-0.04409 0.08778,-0.092243 0.07648,-0.1400431 -0.0095,-0.03993 6.35e-4,-0.094123 0.02274,-0.1209228 0.047,-0.0568 0.121333,-0.066269 0.08733,-0.011369 -0.03622,0.0585 0.02454,0.043812 0.09974,-0.024289 0.0726,-0.06569 0.09289,-0.199471 0.03049,-0.199471 -0.0539,0 -0.0456,-0.049808 0.0217,-0.1328084 0.0313,-0.0398 0.04794,-0.051755 0.03514,-0.026355 -0.0153,0.0309 -0.0035,0.038888 0.03462,0.024289 0.0318,-0.0122 0.05953,-0.041712 0.06046,-0.065112 0.0017,-0.023529 0.009,-0.072871 0.01602,-0.1100709 0.007,-0.0371 -0.01121,-0.07665 -0.04031,-0.08785 -0.09106,-0.03495 -0.06113,-0.1761596 0.04806,-0.2268596 0.11819,-0.0549 0.221847,-0.060219 0.251148,-0.01292 0.01149,0.019799 0.05699,0.024418 0.101285,0.01292 0.0545,-0.0142 0.07164,-0.0074 0.05374,0.021704 -0.0171,0.0275 -0.0061,0.035071 0.03152,0.020672 0.0319,-0.012301 0.05788,-0.037511 0.05788,-0.05581 0,-0.0517 0.09814,-0.039197 0.146244,0.018603 0.04689,0.0571 0.273396,0.1047597 0.240296,0.05116 -0.03321,-0.05375 0.06554,-0.2535595 0.112137,-0.2268593 0.0242,0.0136 0.02917,0.00906 0.01137,-0.010335 -0.0171,-0.0186 -0.04911,-0.03359 -0.07131,-0.03359 -0.08556,0 -0.06364,-0.085119 0.02636,-0.1023194 l 0.09457,-0.018087 5.29e-4,0.3214275 c 6.09e-4,0.3517299 0.04569,0.4976473 0.104387,0.3389974 0.0197,-0.05306 0.02057,-0.1391053 0.0021,-0.2036054 -0.0461,-0.1601099 -0.0408,-0.5419704 0.0062,-0.4614704 0.02234,0.0382 0.110617,0.071967 0.232027,0.088367 0.10777,0.014499 0.216112,0.042629 0.240812,0.062528 0.07565,0.06108 0.197404,-0.00282 0.197404,-0.1033529 0,-0.0499 -0.01681,-0.090434 -0.03721,-0.090434 -0.0199,0 -0.02974,-0.038132 -0.02274,-0.084232 0.0078,-0.0462 0.03098,-0.080964 0.05168,-0.075964 0.0412,0.00878 0.01699,-0.1321207 -0.03411,-0.1979208 -0.0173,-0.0224 -0.02083,-0.051612 -0.0072,-0.065112 0.0136,-0.013401 0.0045,-0.024289 -0.02067,-0.024289 -0.0251,0 -0.03382,-0.019709 -0.01912,-0.043408 0.0159,-0.025 0.01025,-0.033087 -0.01395,-0.018087 -0.0223,0.013401 -0.05021,0.00928 -0.06201,-0.00982 -0.01178,-0.0185 -0.06772,-0.022235 -0.124023,-0.00723 -0.07335,0.01945 -0.105689,0.055024 -0.113688,0.1240235 -0.0098,0.08252 -0.03271,0.098071 -0.158647,0.1100709 -0.10169,0.0097 -0.146761,-6.879e-4 -0.146761,-0.03359 0,-0.026101 0.02081,-0.048643 0.04651,-0.050643 0.03689,-0.0023 0.0367,-0.0069 0,-0.021704 -0.0335,-0.013801 -0.03522,-0.03775 -0.0067,-0.09095 0.0214,-0.0401 0.0574,-0.061542 0.0801,-0.047542 0.0255,0.015801 0.03044,0.00838 0.01344,-0.019121 -0.03776,-0.06109 0.08201,-0.2368219 0.13901,-0.2041218 0.0248,0.014401 0.03247,0.012367 0.01757,-0.00414 -0.03013,-0.03333 0.159005,-0.3922242 0.206705,-0.3922242 0.017,0 0.01984,-0.017124 0.0072,-0.037724 -0.0127,-0.020701 0.01758,-0.052931 0.06718,-0.07183 0.1048,-0.03985 0.149772,-0.1306811 0.116272,-0.2361612 -0.0171,-0.0529 -0.01085,-0.066058 0.02325,-0.044958 0.0312,0.019399 0.03752,0.01378 0.01912,-0.016021 -0.01579,-0.02554 0.03015,-0.141274 0.106453,-0.2692341 0.07355,-0.1235901 0.133842,-0.2395485 0.133842,-0.2573486 0,-0.017801 0.01864,-0.043878 0.04134,-0.057878 0.0279,-0.0171 0.03292,3.44e-4 0.01602,0.053744 -0.018,0.0568 -0.0091,0.079582 0.03101,0.079582 0.0308,0 0.06648,-0.034048 0.07958,-0.075448 0.0131,-0.0414 0.03908,-0.065344 0.05788,-0.053744 0.019,0.011599 0.02393,-0.00769 0.01033,-0.042891 -0.0165,-0.0443 -0.0105,-0.055207 0.0186,-0.037207 0.028,0.0175 0.03517,0.00679 0.02067,-0.031006 -0.0122,-0.0319 -0.0049,-0.057878 0.01602,-0.057878 0.044,0 0.03718,-0.09621 -0.0098,-0.1390094 -0.0185,-0.015999 -0.021,-0.00813 -0.0062,0.017571 0.0167,0.029 0.0043,0.046509 -0.03256,0.046509 -0.04733,0 -0.03504,-0.044409 0.06046,-0.2222087 0.06558,-0.1221999 0.135863,-0.212071 0.156063,-0.199471 0.0209,0.012999 0.02459,0.0039 0.0088,-0.021704 -0.03304,-0.05346 0.07289,-0.2278931 0.138493,-0.2278931 0.06027,0 0.147922,-0.1413693 0.117822,-0.1901693 -0.0341,-0.05524 0.01673,-0.2273614 0.05943,-0.2010214 0.0199,0.01232 0.03617,-0.012837 0.03617,-0.056327 0,-0.05036 0.01549,-0.06965 0.04289,-0.05271 0.0272,0.01687 0.033,0.010193 0.0155,-0.018087 -0.0152,-0.024587 1.06e-4,-0.08712 0.03411,-0.1390096 0.06002,-0.091559 0.05845,-0.097364 -0.05272,-0.2036052 -0.06304,-0.060225 -0.114959,-0.1389163 -0.115239,-0.1746663 -2.91e-4,-0.03735 -0.0122,-0.048682 -0.02791,-0.026872 -0.03816,0.0529 -2.768823,0.076848 -2.768823,0.024288 0,-0.02113 -0.02608,-0.064298 -0.05788,-0.096118 -0.04697,-0.04696 -0.07164,-0.049352 -0.130741,-0.012402 -0.0401,0.02499 -0.07286,0.066691 -0.07286,0.092501 0,0.03706 -0.34287,0.047025 -1.62264,0.047025 h -1.62264 v -0.01912 l -3.373954,0.029456 c -0.0315,0.023803 -0.1223167,0.026109 -0.3756875,0.023771 -0.3001899,-0.003 -0.3917074,-0.015523 -0.3917074,-0.053743 3e-7,-0.027436 -0.024577,-0.074753 -0.054777,-0.1049031 -0.01656,-0.016604 -0.025712,-0.028352 -0.026355,-0.03669 z M 1.3544362,4.6960832 c 0.00906,0 0.016536,0.017124 0.016536,0.037724 0,0.0205 -0.018031,0.037207 -0.039791,0.037207 -0.02206,0 -0.029187,-0.016608 -0.016536,-0.037207 0.01274,-0.0205 0.030491,-0.037724 0.039791,-0.037724 z m 17.8681598,0.63407 c 0.0095,0 0.01602,0.017124 0.01602,0.037724 0,0.0205 -0.01747,0.037207 -0.03927,0.037207 -0.0224,0 -0.02914,-0.016608 -0.01654,-0.037207 0.0127,-0.0205 0.03079,-0.037724 0.03979,-0.037724 z m -3.56464,3.2830037 c 0.0205,0 0.03721,0.016608 0.03721,0.037207 0,0.0205 -0.01661,0.037207 -0.03721,0.037207 -0.0205,0 -0.03772,-0.016608 -0.03772,-0.037207 0,-0.0205 0.01712,-0.037207 0.03772,-0.037207 z m -1.124479,0.00827 c 0.108099,-0.00308 0.127579,0.034558 0.06718,0.1312582 v 5.292e-4 c -0.03716,0.0591 -0.06808,0.058266 -0.153479,-0.00414 -0.09002,-0.06581 -0.05102,-0.1236408 0.0863,-0.1276408 z m -4.08864,0.068213 c 0.0697,3.968e-4 0.07431,0.00711 0.02791,0.040308 -0.045,0.0321 -0.03959,0.036504 0.02791,0.021704 0.0463,-0.0102 0.07445,-0.0031 0.06305,0.015502 -0.02432,0.0394 -0.141467,0.045085 -0.177767,0.00878 -0.04923,-0.0492 -0.02349,-0.086899 0.05891,-0.0863 z m -3.5837602,0.00156 c 0.017743,-4.498e-4 0.038001,0.00769 0.064595,0.024289 0.038151,0.02413 0.1010833,0.035005 0.1400432,0.024805 0.08625,-0.022561 0.3407505,0.2690614 0.2842204,0.3255616 v 5.292e-4 c -0.058579,0.0586 -0.2069552,0.074754 -0.1860351,0.020153 0.010131,-0.0263 -0.011803,-0.067134 -0.049093,-0.090433 -0.054488,-0.0341 -0.087708,-0.026927 -0.1679485,0.036173 -0.082611,0.065 -0.1054682,0.069455 -0.1328084,0.026355 -0.03205,-0.05029 -0.046424,-0.102145 -0.040824,-0.1493448 0.00517,-0.04512 -0.1867022,0.015613 -0.205672,0.065112 -0.010811,0.0281 -0.055756,0.049509 -0.099736,0.046509 -0.05988,-0.0032 -0.063867,-0.00869 -0.016537,-0.021188 0.03655,-0.0095 0.054422,-0.039146 0.042892,-0.069247 -0.027811,-0.07249 0.074813,-0.1663983 0.1819011,-0.1663983 0.048615,0 0.1092485,-0.020376 0.1343585,-0.045475 0.017507,-0.017849 0.0329,-0.026951 0.050643,-0.027389 z m 5.9758622,0.00206 c 0.05304,0.00444 0.134876,0.040963 0.134876,0.069763 0,0.0176 -0.0344,0.030355 -0.077,0.026355 -0.0795,-0.006 -0.131952,-0.053567 -0.09715,-0.088367 0.0071,-0.0071 0.0216,-0.00923 0.03927,-0.00775 z m -4.79919,0.00982 c 0.010988,0.00151 0.021455,0.00987 0.031006,0.025321 0.0185,0.0298 0.013232,0.037254 -0.01447,0.020153 -0.023699,-0.0147 -0.043408,-0.0094 -0.043408,0.012401 0,0.021701 0.025527,0.039791 0.056327,0.039791 0.0308,0 0.055811,-0.016608 0.055811,-0.037207 0,-0.0205 0.018759,-0.037724 0.041858,-0.037724 0.0285,0 0.026932,0.017626 -0.00517,0.056327 -0.025527,0.030675 -0.068065,0.05581 -0.095085,0.05581 -0.069,0 -0.1069117,-0.073439 -0.062012,-0.1183389 0.012401,-0.012451 0.024151,-0.018037 0.03514,-0.016536 z m 6.050794,0.022738 c 0.09355,0 0.155787,0.082595 0.113688,0.1508953 v 5.292e-4 c -0.04898,0.0784 -0.180389,0.074782 -0.206189,-0.00672 -0.02833,-0.08932 0.007,-0.144694 0.0925,-0.144694 z m -4.8079757,0.00414 c 0.025212,-7.409e-4 0.051583,0.017476 0.088883,0.054777 0.0442,0.04416 0.049254,0.076341 0.020153,0.1307412 -0.04457,0.0833 -0.1105159,0.090937 -0.173116,0.019637 -0.0335,-0.0382 -0.0335,-0.061369 0,-0.097669 0.0345,-0.0372 0.032015,-0.04062 -0.011885,-0.01602 -0.0485,0.027 -0.049267,0.022879 -0.00517,-0.031522 0.03173,-0.0393 0.05592,-0.059195 0.081132,-0.059945 z" />
  <path
     id="path1189"
     style="stroke-width:1"
     d="m 10.543971,2.563121 0.07083,0.059127 c 0.0061,-0.014783 0.03584,-0.00358 0.108203,0.031156 0.06887,0.033011 0.240061,0.139548 0.380368,0.2370881 0.214918,0.1493725 0.249989,0.1868271 0.223667,0.23869 l -2.34e-4,4.608e-4 c -0.0083,0.01643 -0.01699,0.026744 -0.03299,0.029615 l 3.02198,1.500691 0.04701,-0.092624 c 0.03064,-0.060377 0.08303,-0.1186051 0.116099,-0.1294173 0.0468,-0.015309 0.05573,-0.032921 0.04046,-0.079721 -0.01302,-0.03998 0.04708,-0.1921114 0.179516,-0.4530505 L 14.89814,3.5125233 14.426295,3.2684153 C 14.166712,3.133872 13.942,3.0198257 13.927225,3.0151307 c -0.01483,-0.00481 0.0035,-0.068473 0.0406,-0.1416567 0.03714,-0.073184 0.05232,-0.1409247 0.03395,-0.1502478 -0.03067,-0.015568 -0.07197,0.024902 -0.09254,0.093275 -0.0051,0.017066 -0.03262,0.055142 -0.06129,0.084218 -0.04444,0.045202 -0.08515,0.035597 -0.280646,-0.063621 l -0.229024,-0.1162349 0.0771,-0.1770285 c 0.106209,-0.2436047 0.04154,-0.2957844 -0.08878,-0.071714 l -0.09971,0.1713463 -0.276331,-0.1280742 -0.27633,-0.1280742 -0.108965,0.095949 -0.108732,0.095489 -0.599863,-0.28532 C 11.331018,2.0433221 11.256482,1.9994923 11.25398,1.9394602 c -0.0017,-0.042197 -0.04685,-0.091002 -0.117566,-0.1268905 -0.09453,-0.047977 -0.120992,-0.045921 -0.150291,0.011809 -0.02518,0.049621 -0.0479,0.057096 -0.07734,0.024496 -0.02274,-0.025235 -0.03993,-0.02803 -0.0381,-0.00601 0.0017,0.021978 -0.03304,0.027405 -0.0775,0.012246 -0.04445,-0.015168 -0.09203,-0.00473 -0.105984,0.022706 -0.02053,0.040225 -0.07782,0.023091 -0.296677,-0.087983 C 10.241354,1.7141305 10.120189,1.6666718 10.122141,1.6849212 10.126841,1.7392957 9.9031884,1.6090445 9.882395,1.54528 9.867547,1.4998292 9.837567,1.4867573 9.7535457,1.4885787 9.6626077,1.4905907 9.6435265,1.4809627 9.639484,1.4324283 9.635774,1.3881669 9.620062,1.38855 9.575691,1.4336633 9.518147,1.4922095 9.502712,1.4859082 8.6594729,1.0660194 8.1877191,0.8312982 7.5302982,0.4950247 7.1978123,0.319552 L 6.5933016,0 6.5473026,0.1168959 c -0.03988,0.1015461 -0.03426,0.1221039 0.041151,0.1518539 0.047913,0.018923 0.7096364,0.3376724 1.4704497,0.70861841 1.0307562,0.50255409 1.37831,0.68463499 1.363882,0.71306329 -0.012889,0.025396 0.066969,0.081459 0.2381831,0.1689826 0.3180848,0.1619959 0.4923256,0.2873291 0.4673626,0.3362932 -0.01283,0.025169 0.05827,0.071802 0.214772,0.1420336 0.214281,0.096249 0.232357,0.1122176 0.216592,0.1852617 -0.0041,0.018664 -0.0076,0.032194 -0.01572,0.040118 z" />
</svg>
