<?xml version="1.0" encoding="UTF-8" standalone="no"?>
<!-- Created with Inkscape (http://www.inkscape.org/) -->

<svg
   width="22.513254mm"
   height="8.499404mm"
   viewBox="0 0 22.513254 8.499404"
   version="1.1"
   id="svg4364"
   sodipodi:docname="inkporter-svg-g8mw9kuv.svg"
   xmlns:inkscape="http://www.inkscape.org/namespaces/inkscape"
   xmlns:sodipodi="http://sodipodi.sourceforge.net/DTD/sodipodi-0.dtd"
   xmlns="http://www.w3.org/2000/svg"
   xmlns:svg="http://www.w3.org/2000/svg">
  <sodipodi:namedview
     id="namedview4366"
     pagecolor="#ffffff"
     bordercolor="#666666"
     borderopacity="1.0"
     inkscape:pageshadow="2"
     inkscape:pageopacity="0.0"
     inkscape:pagecheckerboard="0"
     inkscape:document-units="mm"
     showgrid="false"
     inkscape:zoom="0.64052329"
     inkscape:cx="397.33138"
     inkscape:cy="561.25984"
     inkscape:window-width="1920"
     inkscape:window-height="1017"
     inkscape:window-x="-8"
     inkscape:window-y="-8"
     inkscape:window-maximized="1"
     inkscape:current-layer="layer1" />
  <defs
     id="defs4361" />
  <g
     inkscape:label="Layer 1"
     inkscape:groupmode="layer"
     id="layer1"
     transform="translate(-34.181481,-81.669629)">
    <g
       id="G-SdKfz234-pak40"
       transform="matrix(0.35277777,0,0,-0.35277777,75.669145,252.50243)">
      <path
         d="m -97.23173,479.45667 -1.493,-1.818 h -1.166 l -1.155,-1.262 v -0.79 l -7.068,-2.294 -2.738,-2.54 1.957,-2.129 h -0.468 c -0.073,0.212 -0.277,0.364 -0.515,0.364 h -1.141 c -0.301,0 -0.547,-0.245 -0.547,-0.608 0,-0.303 0.246,-0.549 0.547,-0.549 h 1.141 c 0.238,0 0.442,0.152 0.515,0.367 h 0.86 l 2.272,-2.481 c -0.005,-0.135 -0.013,-0.274 -0.013,-0.413 0,-2.842 2.303,-5.146 5.147,-5.146 2.632,0 4.801,1.977 5.106,4.528 h 2.671 c 0.307,-2.551 2.477,-4.528 5.11,-4.528 2.633,0 4.807,1.977 5.111,4.528 h 3.871 c 0.306,-2.551 2.474,-4.528 5.109,-4.528 2.633,0 4.805,1.977 5.109,4.528 h 2.612 c 0.304,-2.551 2.476,-4.528 5.109,-4.528 2.843,0 5.147,2.304 5.147,5.146 0,0.564 -0.092,1.106 -0.26,1.614 l 1.094,1.462 h 1.522 v 0.914 h -0.836 l 0.593,0.789 v 1.565 l -2.113,3.451 -3.086,0.089 v 0.581 h -7.883 v -0.348 l -0.889,0.025 v 0.444 h -2.409 v 6.795 h -0.218 v -6.795 h -0.642 v -0.35 l -5.64,0.168 v 0.426 l -0.407,0.609 -1.098,0.896 h -2.006 v 2.343 h -3.295 v 1.418 h -11.922 l -1.158,-1.415 z"
         id="path60210-6-1-9" />
      <path
         d="m -94.08283,480.41447 c -1.076,-0.899 -1.76,-4.1 -1.76,-5.609 0,-2.702 2.189,-4.892 4.889,-4.892 2.425,0 4.435,1.76 4.825,4.07 l 2.177,0.082 0.464,-0.082 c 0,0 -0.002,0.42 -0.061,1.064 l 3.54,-0.625 v -0.377 h 0.486 v 0.29 l 15.498,-2.736 c 0,0 0.313,-1.055 1.115,-1.369 0.803,-0.317 0.844,0.083 0.528,0.379 -0.317,0.294 -1.137,1.263 -0.335,1.834 0.8,0.569 1.369,0.697 1.369,0.697 l 0.928,-0.21 v -0.298 h 1.033 v 0.443 h -0.718 l -0.315,0.318 h 0.504 v 0.42 h -1.178 l -1.158,-0.579 -0.074,0.253 c -0.83,-0.236 -0.828,-0.527 -1.634,0.063 -0.299,0.219 -1.024,0.871 -1.361,0.913 -0.433,0.06 -1.402,-0.48 -1.932,-0.48 -0.401,0 -1.608,1.304 -1.667,1.37 l -0.377,-0.337 c 0,0 0.334,-0.374 0.739,-0.747 0.295,-0.271 0.879,-0.792 1.305,-0.792 0.494,0 1.647,0.516 1.865,0.488 0.423,-0.059 1.156,-1.166 2.087,-1.255 l -0.031,-0.013 -20.341,3.362 c -0.106,0.706 -0.277,1.511 -0.548,2.28 0.1,-0.099 0.24,-0.159 0.395,-0.159 0.279,0 0.511,0.198 0.561,0.462 h 4.015 v 1.476 h -3.288 v 0.59 h 1.18 v 0.548 l -0.106,1.498 v 0.167 h 0.19 v 0.423 h -0.613 v -0.189 h -0.651 v 0.316 l -0.423,0.022 h -0.802 v 0.588 h -0.336 v -0.588 h -0.907 l -4.514,0.757 -1.395,-2.181 -23.062,-0.391 -1.457,0.359 h -2.169 v -1.645 h 2.149 l 1.477,0.274 15.583,-0.042 z m 1.85,-0.399 h -4.26 v 0.604 l 4.638,-0.013 z m -22.863,1.203 v -0.164 c 0,-0.092 -0.073,-0.116 -0.167,-0.168 l -0.388,-0.167 c -0.094,0 -0.17,0.075 -0.17,0.167 v 0.502 c 0,0.094 0.076,0.17 0.17,0.17 l 0.388,-0.17 c 0.094,-0.046 0.167,-0.075 0.167,-0.17 m -1.115,0.27 v -0.653 c 0,-0.092 -0.077,-0.169 -0.171,-0.169 h -0.653 c -0.093,0 -0.167,0.077 -0.167,0.169 v 0.653 c 0,0.093 0.074,0.17 0.167,0.17 h 0.653 c 0.094,0 0.171,-0.077 0.171,-0.17 m 30.64,-0.864 h 1.239 l -0.676,-0.678 c -0.169,0.247 -0.355,0.476 -0.563,0.678"
         id="path60214-0-7-2" />
    </g>
  </g>
</svg>
