<?xml version="1.0" encoding="UTF-8" standalone="no"?>
<!-- Created with Inkscape (http://www.inkscape.org/) -->

<svg
   width="18.670965mm"
   height="8.4758873mm"
   viewBox="0 0 18.670965 8.4758873"
   version="1.1"
   id="svg12008"
   sodipodi:docname="inkporter-svg-ye7tu6yu.svg"
   xmlns:inkscape="http://www.inkscape.org/namespaces/inkscape"
   xmlns:sodipodi="http://sodipodi.sourceforge.net/DTD/sodipodi-0.dtd"
   xmlns="http://www.w3.org/2000/svg"
   xmlns:svg="http://www.w3.org/2000/svg">
  <sodipodi:namedview
     id="namedview12010"
     pagecolor="#ffffff"
     bordercolor="#666666"
     borderopacity="1.0"
     inkscape:pageshadow="2"
     inkscape:pageopacity="0.0"
     inkscape:pagecheckerboard="0"
     inkscape:document-units="mm"
     showgrid="false"
     inkscape:zoom="0.64052329"
     inkscape:cx="397.33138"
     inkscape:cy="561.25984"
     inkscape:window-width="1920"
     inkscape:window-height="1017"
     inkscape:window-x="-8"
     inkscape:window-y="-8"
     inkscape:window-maximized="1"
     inkscape:current-layer="layer1" />
  <defs
     id="defs12005" />
  <g
     inkscape:label="Layer 1"
     inkscape:groupmode="layer"
     id="layer1"
     transform="translate(-42.211049,-118.7272)">
    <path
       id="G-SdKfz251-37"
       d="m 51.688735,118.7299 c -0.01482,0.003 -0.0321,0.0191 -0.05324,0.0465 -0.02858,0.0375 -0.05143,0.0522 -0.07133,0.047 -0.03792,-0.01 -0.07267,0.0328 -0.06149,0.0755 0.01164,0.0442 -0.08904,0.18594 -0.136949,0.19275 -0.0254,0.004 -0.03641,0.0178 -0.04032,0.0522 -0.0035,0.0269 -0.03979,0.0901 -0.08527,0.14728 -0.06491,0.0815 -0.08407,0.0968 -0.102305,0.0816 -0.01235,-0.0103 -0.02434,-0.0158 -0.02681,-0.0124 -0.0035,0.004 -0.0247,0.0343 -0.04964,0.0682 -0.04053,0.055 -0.04265,0.0633 -0.01905,0.0765 0.02364,0.0132 0.02187,0.0208 -0.01764,0.0734 -0.382799,0.48619 -0.01482,4e-5 -0.49403,0.64285 l -0.0677,0.0915 h -0.178788 c -0.131586,-2.7e-4 -0.18602,-0.007 -0.208774,-0.0238 -0.0424,-0.0321 -0.221015,-0.0321 -0.253188,0 -0.03034,0.0304 -0.353872,0.035 -0.36382,0.005 -0.0039,-0.0112 -0.0538,-0.0209 -0.126083,-0.0248 -0.09567,-0.005 -0.125695,-7e-4 -0.146261,0.0196 -0.01411,0.0142 -0.06685,0.0321 -0.117299,0.0398 -0.05045,0.008 -0.585576,0.0188 -1.189073,0.0248 -0.603461,0.006 -1.100984,0.013 -1.105358,0.0155 -0.0042,0.002 -0.0053,0.046 -0.0035,0.0972 l 0.0049,0.093 0.829416,0.004 c 1.389097,0.007 1.555185,0.0172 1.566298,0.0956 0.0039,0.0272 -0.0035,0.0357 -0.02787,0.0357 -0.05701,0 -0.09666,0.0553 -0.09666,0.13539 0,0.0494 0.0078,0.0754 0.02434,0.0816 0.01482,0.006 0.02399,0.0297 0.02399,0.0631 v 0.0537 h 0.384457 0.384492 l -0.03722,0.0393 c -0.02716,0.0289 -0.0321,0.045 -0.01976,0.0599 0.02046,0.0247 -0.02752,0.0915 -0.06565,0.0915 -0.03175,0 -0.111972,0.1049 -0.101283,0.13281 0.0046,0.0119 -0.0085,0.0423 -0.02893,0.0677 -0.02081,0.0254 -0.03814,0.0533 -0.03824,0.062 0,0.009 0.03701,0.0412 0.0822,0.0718 l 0.01799,0.0119 h 0.127635 l -0.0677,0.10646 -0.170533,0.0351 -0.13021,0.18966 -0.0314,0.29765 -0.08629,0.13642 -2.003495,0.27183 -0.03316,-0.10698 -0.23615,0.0351 0.0078,0.10697 -1.500152,0.20309 -0.02928,-0.0935 -0.235656,0.0357 0.0067,0.0925 -0.898666,0.12196 -0.03034,-0.061 -0.377754,0.0357 0.0049,0.0801 -0.258374,0.0357 -0.04237,0.0455 v -0.14935 h -0.118321 v -0.0832 h -0.224296 v -0.41134 c 0.02152,-0.0127 0.03567,-0.035 0.03567,-0.0615 0,-0.0388 -0.03245,-0.0708 -0.07133,-0.0708 -0.03877,0 -0.07027,0.032 -0.07027,0.0708 0,0.0353 0.02505,0.0641 0.05839,0.0698 v 0.40307 h -0.05839 v 0.34107 l -0.164323,0.38964 -0.561199,1.31516 -0.06668,0.0584 -0.08266,0.0475 -0.08322,-0.0713 0.142098,-0.0703 0.02399,-0.11886 -0.201012,0.13074 -0.03619,0.11731 0.08371,0.11886 0.153493,0.0119 0.06925,-0.0346 0.156033,0.26251 c -0.02681,0.11007 -0.04082,0.22547 -0.04082,0.34365 0,0.80645 0.654967,1.46089 1.461417,1.46089 0.705203,0 1.294412,-0.50012 1.430937,-1.16582 l 0.475439,-0.0139 0.273861,-0.18448 0.567937,-0.03 0.0067,0.0382 -0.129187,0.16278 0.08216,0.1018 0.141075,-0.0682 0.186549,0.26045 -0.08784,0.14986 0.0956,0.0894 0.158645,-0.108 0.21343,0.11058 0.0088,0.17829 0.128164,0.0232 0.06047,-0.14159 0.270792,0.0543 0.01341,0.16382 0.129716,0.0176 0.05683,-0.1483 0.26924,0.0403 0.01235,0.15606 0.129716,0.0176 0.05581,-0.14418 0.270757,0.0413 0.01235,0.15089 0.129187,0.0176 0.05323,-0.13849 0.273368,0.0418 0.01235,0.1447 0.129187,0.0186 0.05323,-0.13953 0.272345,0.0269 0.01305,0.15968 0.129188,0.0186 0.0641,-0.1664 0.248532,0.002 0.0321,0.14624 h 0.13074 l 0.03351,-0.14417 0.277531,0.003 0.0314,0.14108 h 0.130739 l 0.0314,-0.13901 0.28007,0.002 0.03034,0.13642 h 0.130739 l 0.03069,-0.13436 0.282152,0.003 0.02893,0.13126 h 0.131269 l 0.02928,-0.12971 0.284198,0.004 0.02787,0.12609 h 0.130739 l 0.02893,-0.12402 0.286808,0.003 0.02646,0.12144 h 0.130704 l 0.02787,-0.11886 0.288325,0.002 0.02575,0.11627 h 0.13074 l 0.02646,-0.11472 0.290936,0.003 0.02505,0.11162 h 0.13074 l 0.0254,-0.10956 0.281093,0.002 0.02399,0.10698 h 0.130739 l 0.02434,-0.10439 0.295098,0.002 0.02258,0.1018 h 0.13074 l 0.02258,-0.0997 0.297639,0.003 0.02187,0.0966 h 0.13074 l 0.02222,-0.0946 0.299226,0.003 0.02046,0.0915 h 0.130739 l 0.02187,-0.0946 0.296086,-0.0129 0.02434,0.10749 h 0.130774 l 0.02681,-0.11524 0.286809,-0.0129 0.02857,0.12815 h 0.130739 l 0.0314,-0.13642 0.280106,-0.0124 0.03034,0.1354 h 0.13021 l 0.03619,-0.15348 0.290407,-0.0305 0.05323,0.13384 0.128164,-0.0196 0.01199,-0.15917 0.223767,-0.10335 0.169474,0.10284 0.09148,-0.094 -0.08992,-0.13798 0.21396,-0.20102 0.165347,0.0367 0.05528,-0.11885 -0.119874,-0.0935 0.09352,-0.25528 0.165382,-0.0403 -0.0039,-0.13022 -0.157127,-0.0341 -0.01235,-0.2005 0.673841,-0.0755 v 0.0842 h 0.369993 c 0.02223,0.0289 0.05747,0.0476 0.09768,0.0476 0.06847,0 0.123508,-0.0561 0.123508,-0.12454 0,-0.0684 -0.05503,-0.12403 -0.123508,-0.12403 h 0.206199 v 0.0475 h 0.05891 v -0.0553 l 0.354506,0.13798 H 60.34139 V 125.0968 H 60.1166 l -0.317288,0.0713 v -0.0475 h -0.05891 v 0.0589 H 59.58443 l 0.283704,-0.45062 0.07387,-0.0222 0.940011,-1.65055 -1.071774,-1.41077 -0.110066,-10e-4 v -0.61444 h 0.06615 v -0.12557 h -0.303847 v 0.12557 h 0.04392 v 0.0853 l -1.173586,-0.16227 -0.02893,-0.005 -0.221156,-0.03 v -0.16071 l 0.02434,-0.009 -0.01764,-0.0444 -0.09148,0.0367 h -0.04858 v 0.0191 l -0.11938,0.0481 0.01764,0.0439 0.101811,-0.0408 v 0.1974 h 0.133315 v -0.0424 l 0.237702,0.0331 1.185968,0.49867 v 0.14418 l -7.818614,-0.10542 c -0.0035,-0.0219 -0.0092,-0.0336 -0.02258,-0.0336 -0.01305,0 -0.02434,-0.008 -0.02434,-0.0176 0,-0.01 -0.02187,-0.0382 -0.04907,-0.0636 -0.02716,-0.0254 -0.04177,-0.046 -0.0321,-0.046 0.0095,0 0.01764,-0.01 0.01764,-0.0217 0,-0.0231 0.07948,-0.0419 0.175189,-0.0413 0.03828,1.7e-4 0.121567,-10e-4 0.138501,0.007 l 0.0035,0.007 c 0.266171,0.0266 0.345864,0.0337 0.514139,0.0336 0.228706,0 0.235232,0.002 0.236714,0.077 0,0.0298 0.05232,0.0982 0.0744,0.0982 0.02646,0 0.06819,-0.11176 0.06819,-0.18345 v -0.0708 h 0.09613 c 0.07239,0 0.09825,-0.006 0.105446,-0.0253 0.01517,-0.0397 -0.01799,-0.0579 -0.109044,-0.061 -0.06692,-0.002 -0.08216,-0.008 -0.08788,-0.031 l 0.07391,-0.016 -0.0092,-0.0258 h 0.498651 c 0.476603,0 0.575557,-0.004 0.603603,-0.0238 0.03245,-0.0226 0.03351,-0.0343 0.0314,-0.35656 0,-0.21721 -0.0085,-0.3401 -0.0194,-0.3514 -0.01164,-0.0117 -0.187713,-0.018 -0.540561,-0.0202 -0.453072,-0.003 -0.523452,-0.007 -0.523452,-0.0274 0,-0.0131 -0.01623,-0.0261 -0.03567,-0.0289 -0.03034,-0.004 -0.03567,-0.0146 -0.03567,-0.0687 v -0.0641 l -0.107492,0.01 c -0.05898,0.005 -0.151059,0.009 -0.204611,0.008 -0.08512,-7e-4 -0.09853,0.003 -0.105939,0.0315 -0.0056,0.0222 -0.02152,0.0326 -0.04964,0.0326 -0.04632,0 -0.05323,-0.0181 -0.01764,-0.0475 0.01305,-0.0109 0.02434,-0.039 0.02434,-0.0625 0,-0.04 0.208703,-0.38309 0.240841,-0.39584 0.0074,-0.003 0.01341,-0.0122 0.01341,-0.0202 0,-0.0137 0.234738,-0.36339 0.335915,-0.50075 0.05313,-0.0721 0.05165,-0.13727 -0.0035,-0.16691 -0.01658,-0.009 -0.17145,-0.0526 -0.34417,-0.0971 -0.586846,-0.15132 -0.865187,-0.22542 -0.912072,-0.2434 -0.0042,-0.002 -0.0085,-0.002 -0.0134,-10e-4 z m 6.811962,2.2965 1.00457,0.13901 v 0.2837 z m -0.800982,4.87102 c 0.01623,0.003 0.03175,0.009 0.0465,0.0181 0.05821,0.0381 0.07482,0.11627 0.03672,0.17518 -0.0381,0.0586 -0.115958,0.075 -0.174166,0.0372 -0.05856,-0.0381 -0.07532,-0.11714 -0.03722,-0.1757 0.02822,-0.0437 0.07966,-0.0635 0.128164,-0.0548 z m -0.38294,0.19379 c 0.06985,0 0.126118,0.0567 0.126118,0.1266 0,0.0699 -0.05627,0.12609 -0.126118,0.12609 -0.06985,0 -0.127106,-0.0562 -0.127106,-0.12609 0,-0.0699 0.05726,-0.1266 0.127106,-0.1266 z m -8.704862,0.0832 0.426332,0.002 c 0.06138,0.21202 0.195932,0.3935 0.375144,0.51521 l -0.01129,0.0259 -0.262502,-0.0408 c -0.01376,-0.0649 -0.04195,-0.16296 -0.08992,-0.17001 -0.04375,-0.006 -0.08671,0.0755 -0.113171,0.13901 l -0.266665,-0.0413 c -0.01446,-0.0656 -0.04212,-0.15695 -0.08837,-0.1633 -0.04304,-0.006 -0.08445,0.0705 -0.111619,0.13332 l -0.269205,-0.0398 c -0.0046,-0.0226 -0.01129,-0.0484 -0.01975,-0.0723 0.170039,-0.054 0.318452,-0.15468 0.430988,-0.28732 z m 0.837141,0.002 0.234598,7e-4 c -0.01058,0.025 -0.02893,0.0472 -0.05373,0.061 -0.06033,0.0353 -0.137866,0.0145 -0.173109,-0.0455 -0.0035,-0.006 -0.0053,-0.0107 -0.0078,-0.016 z m 0.728134,0.002 0.04029,7.1e-4 c 0.0081,0.0286 0.01764,0.0564 0.02787,0.0832 -0.0046,-0.002 -0.0095,-0.005 -0.01446,-0.008 -0.02752,-0.018 -0.046,-0.0447 -0.05373,-0.0754 z m 1.838642,0.006 h 0.02928 c -0.01023,0.0208 -0.02646,0.0386 -0.04703,0.0517 0.006,-0.0173 0.01199,-0.0344 0.01764,-0.0517 z m 0.529167,0.002 h 0.04494 c 0.0081,0.0268 0.01729,0.0526 0.02752,0.078 -0.0074,-0.003 -0.01446,-0.006 -0.02081,-0.0109 -0.0254,-0.0166 -0.04286,-0.0404 -0.05165,-0.0672 z m 2.345584,0.007 h 0.02928 c 0.0064,0.0208 0.01305,0.0412 0.01905,0.0599 -0.02293,-0.0145 -0.0394,-0.0356 -0.04858,-0.0599 z m 1.233523,0.005 0.196356,7e-4 c 0.0039,0.004 0.0085,0.007 0.01199,0.0108 0.06068,0.0614 0.06068,0.15928 0,0.22066 -0.06068,0.061 -0.159984,0.061 -0.220662,0 -0.06138,-0.0614 -0.06138,-0.15927 0,-0.22066 0.0035,-0.004 0.0081,-0.008 0.01235,-0.0114 z m -4.710854,0.0114 c 0.03175,0.096 0.07927,0.18417 0.138536,0.26355 -0.04907,0.009 -0.100753,-0.006 -0.138536,-0.0429 -0.06032,-0.0614 -0.06032,-0.15927 0,-0.22065 z m 1.780787,0.002 c 0.05821,0.0617 0.05775,0.15862 -0.0035,0.21859 v 0 c -0.03704,0.0367 -0.08707,0.0513 -0.134338,0.0439 0.05856,-0.0787 0.105198,-0.16762 0.136948,-0.26252 z m -2.366257,0.004 c 0.05468,0.0617 0.05186,0.1559 -0.0067,0.21446 -0.03563,0.0353 -0.08403,0.0501 -0.130246,0.0444 0.05856,-0.0776 0.105198,-0.16471 0.136948,-0.2589 z m -0.888329,0.002 c 0.06918,0 0.126118,0.0568 0.126118,0.12661 0,0.0692 -0.05694,0.12661 -0.126118,0.12661 -0.06985,0 -0.126612,-0.0575 -0.126612,-0.12661 0,-0.0699 0.05676,-0.12661 0.126612,-0.12661 z m 2.365234,0 c 0.06985,0 0.126082,0.0568 0.126082,0.12661 0,0.0692 -0.05623,0.12661 -0.126082,0.12661 -0.06985,0 -0.126083,-0.0575 -0.126083,-0.12661 0,-0.0699 0.05623,-0.12661 0.126083,-0.12661 z m 2.342515,0 c 0.06985,0 0.126576,0.0568 0.126576,0.12661 0,0.0692 -0.05673,0.12661 -0.126576,0.12661 -0.06985,0 -0.126612,-0.0575 -0.126612,-0.12661 0,-0.0699 0.05676,-0.12661 0.126612,-0.12661 z m 0.88519,0.007 c 0.04763,0.0614 0.04318,0.14923 -0.01305,0.20567 -0.03316,0.0332 -0.07789,0.0485 -0.120932,0.045 0.0568,-0.0755 0.102093,-0.15961 0.133843,-0.25063 z m -1.76784,0.007 c 0.03175,0.0878 0.07602,0.17035 0.131762,0.24443 -0.04127,7.1e-4 -0.08227,-0.0146 -0.113665,-0.046 -0.05397,-0.0536 -0.05973,-0.13811 -0.01799,-0.19844 z m -2.647386,0.10026 c 0.08647,0 0.156069,0.0701 0.156069,0.15657 0,0.0857 -0.0696,0.15555 -0.156069,0.15555 -0.08643,0 -0.156034,-0.0698 -0.156034,-0.15555 0,-0.0864 0.0696,-0.15657 0.156034,-0.15657 z m 2.369891,0 c 0.08643,0 0.155539,0.0701 0.155539,0.15657 0,0.0857 -0.06911,0.15555 -0.155539,0.15555 -0.08643,0 -0.156598,-0.0698 -0.156598,-0.15555 0,-0.0864 0.07017,-0.15657 0.156598,-0.15657 z m 2.328015,0 c 0.08643,0 0.156598,0.0701 0.156598,0.15657 0,0.0857 -0.07017,0.15555 -0.156598,0.15555 -0.08537,0 -0.156069,-0.0698 -0.156069,-0.15555 0,-0.0864 0.0707,-0.15657 0.156069,-0.15657 z m 0.798407,0.0754 c 0.09207,0.10442 0.207962,0.18907 0.338455,0.2434 -0.02081,0.0353 -0.03591,0.0857 -0.04544,0.1266 l -0.261479,0.0114 c -0.02187,-0.0628 -0.0648,-0.16433 -0.115252,-0.16433 -0.04904,0 -0.0816,0.1052 -0.09821,0.17364 l -0.252165,0.0109 -0.0092,-0.0269 c 0.184467,-0.0755 0.338949,-0.20744 0.443336,-0.37465 z m -4.902553,0.23203 c 0.01517,0.0123 0.03069,0.0253 0.04703,0.0362 -0.01835,0.0353 -0.03104,0.0815 -0.04032,0.11886 l -0.26042,-0.006 c 0.09243,-0.0367 0.178223,-0.0864 0.253717,-0.14883 z m 1.185475,0.002 c 0.07228,0.0596 0.154164,0.10787 0.242358,0.14315 l -0.0056,0.0248 -0.251143,-0.002 c -0.0099,-0.031 -0.02752,-0.0788 -0.04964,-0.11834 0.02187,-0.0145 0.04329,-0.0303 0.0641,-0.0475 z m -2.367809,0.003 c 0.07161,0.0582 0.152611,0.10563 0.239747,0.14056 l -0.258903,-0.002 c -0.01023,-0.0293 -0.02505,-0.0637 -0.04184,-0.094 0.02117,-0.0138 0.04159,-0.028 0.061,-0.0439 z m 4.702527,0.003 c 0.07659,0.0614 0.163372,0.11065 0.256823,0.14521 -0.0035,0.0159 -0.0071,0.0306 -0.0092,0.0419 l -0.23876,-0.002 c -0.0053,-0.0208 -0.02716,-0.0935 -0.05891,-0.14677 0.01729,-0.0123 0.03351,-0.0247 0.05013,-0.0377 z m -1.163743,0.004 c 0.0127,0.0106 0.02611,0.0201 0.03979,0.03 -0.02152,0.0427 -0.03581,0.10112 -0.04392,0.13746 l -0.234103,-0.002 -0.0088,-0.0264 c 0.0896,-0.0346 0.172931,-0.0813 0.247015,-0.13952 z m 3.017379,0.045 c 0.07408,0.0187 0.152294,0.0289 0.232022,0.0289 0.0187,0 0.03701,-7e-4 0.05426,0.006 l -0.258868,0.0263 c -0.0078,-0.0194 -0.01658,-0.0407 -0.02752,-0.0615 z m -5.160927,0.0749 c 0.02152,0.01 0.04343,0.0191 0.06565,0.0269 l -0.05687,-10e-4 z m 3.095942,0.004 c -0.0056,0.0208 -0.0095,0.0403 -0.01235,0.0548 l -0.148308,-0.002 c 0.05539,-0.0131 0.109185,-0.0303 0.16069,-0.0532 z m -0.743091,10e-4 c 0.04445,0.0194 0.09119,0.0352 0.139488,0.0475 l -0.12453,-0.002 c -0.0035,-0.0109 -0.0081,-0.0273 -0.01517,-0.046 z m -1.609196,0.003 -0.0064,0.0253 -0.06047,-3.5e-4 c 0.02258,-0.007 0.0448,-0.0153 0.06668,-0.0248 z"
       style="stroke-width:0.352778" />
  </g>
</svg>
