<?xml version="1.0" encoding="UTF-8" standalone="no"?>
<!-- Created with Inkscape (http://www.inkscape.org/) -->

<svg
   width="15.92862mm"
   height="16.124399mm"
   viewBox="0 0 15.92862 16.124399"
   version="1.1"
   id="svg15601"
   inkscape:version="1.1.1 (3bf5ae0d25, 2021-09-20)"
   sodipodi:docname="inkporter-svg-fswrd51t.svg"
   xmlns:inkscape="http://www.inkscape.org/namespaces/inkscape"
   xmlns:sodipodi="http://sodipodi.sourceforge.net/DTD/sodipodi-0.dtd"
   xmlns="http://www.w3.org/2000/svg"
   xmlns:svg="http://www.w3.org/2000/svg">
  <sodipodi:namedview
     id="namedview15603"
     pagecolor="#ffffff"
     bordercolor="#666666"
     borderopacity="1.0"
     inkscape:pageshadow="2"
     inkscape:pageopacity="0.0"
     inkscape:pagecheckerboard="0"
     inkscape:document-units="mm"
     showgrid="false"
     inkscape:zoom="1.2810466"
     inkscape:cx="358.6911"
     inkscape:cy="503.49457"
     inkscape:window-width="1889"
     inkscape:window-height="1656"
     inkscape:window-x="3581"
     inkscape:window-y="141"
     inkscape:window-maximized="0"
     inkscape:current-layer="G-Infantry-MG5-4-Pfx3"
     inkscape:snap-nodes="true"
     inkscape:snap-bbox="true"
     inkscape:snap-others="true"
     inkscape:bbox-paths="true"
     inkscape:snap-global="true" />
  <defs
     id="defs15598">
    <clipPath
       clipPathUnits="userSpaceOnUse"
       id="clipPath48514-9-5-6-7-4">
      <path
         d="M 309.111,103.342 H 547.1 V 372.047 H 309.111 Z"
         id="path48512-3-2-8-8-0" />
    </clipPath>
    <clipPath
       clipPathUnits="userSpaceOnUse"
       id="clipPath48514-9-5-6-7-4-5">
      <path
         d="M 309.111,103.342 H 547.1 V 372.047 H 309.111 Z"
         id="path48512-3-2-8-8-0-2" />
    </clipPath>
    <clipPath
       clipPathUnits="userSpaceOnUse"
       id="clipPath48514-9-5-6-7-4-1">
      <path
         d="M 309.111,103.342 H 547.1 V 372.047 H 309.111 Z"
         id="path48512-3-2-8-8-0-4" />
    </clipPath>
  </defs>
  <g
     inkscape:label="Layer 1"
     inkscape:groupmode="layer"
     id="layer1"
     transform="translate(-87.548213,-89.02374)">
    <g
       id="G-SdKfz250-Infantry-MGs3-Pf"
       transform="translate(88.715942,-958.17126)">
      <path
         d="m 5.0072925,1052.4557 c -0.025753,0.083 -0.068086,0.1662 -0.094544,0.192 -0.025753,0.026 -0.1315861,0.134 -0.1351139,0.1562 -0.00318,0.023 -0.00811,0.057 0.031045,0.09 0.038805,0.032 0.078317,0.041 0.1255888,0.052 0.047272,0.012 0.2356556,-0.019 0.2716389,-0.055 0.035631,-0.036 0.086078,-0.1302 0.099483,-0.1531 0.013053,-0.023 0.011642,0 0.011642,0 l 0.079022,-0.052 c 0,0 0.014817,-0.08 0.00494,-0.094 -0.00953,-0.015 0.00423,-0.051 -0.00494,-0.078 -0.00741,-0.028 -0.046919,-0.064 -0.04833,-0.086 -0.00141,-0.024 0.00317,-0.043 -0.00353,-0.062 -0.00635,-0.02 -0.030692,-0.033 -0.038805,-0.039 -0.00847,-0.01 -0.00988,-0.067 -0.022931,-0.088 -0.0127,-0.022 -0.00317,-0.016 0.021519,-0.031 0.024342,-0.015 0.069497,-0.072 0.069497,-0.072 0,0 -0.056444,0 -0.074436,0 -0.018697,0 -0.039511,0.017 -0.039511,0.017 l -0.023989,-0.012 c 0,0 -0.011642,-0.046 -0.040922,-0.066 -0.029633,-0.021 -0.043744,-0.083 -0.043744,-0.083 l 0.027164,-0.029 -0.048331,-0.054 -0.018697,0.01 -0.023636,-0.038 h -0.028222 c 0,0 0.00494,-0.1955 -0.00953,-0.241 -0.01517,-0.045 -0.081139,-0.109 -0.086078,-0.1154 -0.00564,-0.01 -0.00706,-0.072 -0.026458,-0.081 -0.019403,-0.01 -0.050094,-0.029 -0.050094,-0.029 0,0 -0.023283,-0.085 -0.013053,-0.1648 0.00953,-0.079 -0.053975,-0.394 -0.063147,-0.4328 -0.010583,-0.039 0.00917,-0.114 0.017286,-0.1672 0.00847,-0.054 0.00141,-0.3133 0.00141,-0.3133 l 0.086783,-0.057 c 0,0 -0.1728611,-0.459 -0.1972028,-0.5341 -0.025047,-0.075 -0.043744,-0.1722 -0.043744,-0.1722 0,0 0.09913,-0.1958 0.1008944,-0.2399 0.00141,-0.044 -0.00317,-0.099 0.027517,-0.1368 0.030692,-0.037 0.091017,-0.2459 0.055386,-0.3712 -0.035631,-0.1256 -0.1224139,-0.3714 -0.1679222,-0.4141 -0.045156,-0.042 -0.0762,-0.061 -0.097367,-0.1394 -0.021167,-0.078 -0.037395,-0.1418 -0.1139472,-0.1739 -0.076906,-0.033 -0.13335,-0.03 -0.1485195,-0.049 -0.014464,-0.02 -0.040922,-0.034 -0.063147,-0.034 -0.022931,0 -0.070203,0.014 -0.086078,0 -0.01658,-0.015 -0.026458,-0.031 -0.020108,-0.06 0.00706,-0.029 0.011642,-0.044 0.011642,-0.044 h 0.1640416 c 0,0 -0.056797,-0.127 -0.066322,-0.158 -0.00953,-0.031 0.068439,-0.3676 -0.1647472,-0.4456 -0.2328333,-0.079 -0.4557889,-0.059 -0.5259917,0.082 -0.069497,0.1397 -0.068086,0.2829 -0.1531055,0.2942 -0.084667,0.012 0.068439,0.047 0.068439,0.047 0,0 0,0.029 0.015169,0.033 0.014111,0 0.030692,0.014 0.0127,0.054 -0.017639,0.039 -0.0635,0.099 -0.025753,0.1108 0.037395,0.011 0.043745,0.016 0.043745,0.016 l 0.0067,0.025 c 0,0 -0.00564,0.015 0.00141,0.021 0.00706,0.01 0.027869,0.018 0.027869,0.018 l 0.00635,0.031 c 0,0 -0.021519,0.011 -0.017992,0.019 0.00353,0.01 0.023989,0.026 0.014464,0.041 -0.00953,0.014 -0.023636,0.057 -0.00847,0.072 0.01658,0.015 0.088194,0.036 0.088194,0.036 0,0 -0.077611,0.049 -0.1153583,0.084 -0.037395,0.036 -0.067028,0.086 -0.099131,0.1172 -0.032808,0.031 -0.070203,0.071 -0.053622,0.1 0.016228,0.029 0.020814,0.037 -0.00212,0.05 -0.022578,0.014 -0.1054805,0.1079 -0.1157111,0.1288 -0.00917,0.021 -0.079375,0.075 -0.1167694,0.093 -0.037747,0.018 -0.073731,0.025 -0.073731,0.025 l -0.1393472,-0.01 c 0,0 -0.021167,-0.028 -0.042686,-0.033 -0.020814,0 -0.1075972,-0.01 -0.1075972,-0.01 l -0.024342,0.039 H 2.5597026 c 0,0 -0.035631,-0.019 -0.050447,-0.015 -0.014464,0.01 -0.058208,0.01 -0.058208,0.01 l -0.1513415,0.01 H 2.234442 c 0,0 -0.026458,-0.013 -0.076906,-0.011 -0.050094,0 -0.1086554,0 -0.1231194,0.01 -0.01517,0.01 -0.052564,0.011 -0.052564,0.011 l -0.3217333,-0.01 0.00141,-0.018 c 0,0 -0.1033639,0 -0.1188861,-0.04 -0.016581,-0.036 -0.016581,-0.056 -0.016581,-0.056 h -0.053975 l -0.00847,0.091 h -0.044803 v 0.075 l 0.1351138,0.013 0.091017,0.082 0.013053,-0.045 c 0,0 0.022225,-0.01 0.051858,-0.01 0.029281,0 0.2772833,0.028 0.2772833,0.028 l 0.015875,-0.028 c 0,0 0.011289,0.013 0.040922,0.02 0.029281,0.01 0.1446389,0.013 0.1788583,0.018 0.034572,0 0.040217,0.023 0.040217,0.039 v 0.064 c 0,0 -0.063147,0.023 -0.063147,0.042 0,0.019 0.019403,0.044 0.016228,0.055 -0.00247,0.011 -0.00459,0.041 -0.00247,0.05 0.00141,0.01 0.014111,0.026 0.0127,0.041 -0.00212,0.015 0.00141,0.034 0.010936,0.047 0.010231,0.014 0.00811,0.025 0.00811,0.043 0,0.018 -0.00953,0.019 0.011994,0.033 0.020814,0.013 0.022225,0.023 0.022225,0.023 v 0.2847 l 0.1435806,0.01 -0.00212,-0.2805 c 0,0 0.036336,0 0.073731,0 0.037042,0 0.074436,-0.014 0.074436,-0.014 0,0 0.027869,0.096 0.082197,0.096 0.053269,0 0.1756833,-0.091 0.1756833,-0.091 0,0 0.00176,-0.033 0.0762,-0.013 0.075142,0.019 0.1188861,0.045 0.1534583,0.047 0.033867,0 0.1855612,-0.063 0.2176639,-0.016 0.033161,0.047 0.086783,0.028 0.086783,0.028 0,0 -0.088194,0.2554 -0.089606,0.2946 -0.00212,0.039 0.017992,0.1175 0.017992,0.1175 0,0 -0.1139472,0.1968 -0.1305278,0.2635 -0.016581,0.067 -0.014464,0.067 -0.029281,0.09 -0.014464,0.023 -0.027517,0.068 -0.0508,0.1044 -0.022225,0.036 -0.022225,0.055 -0.022225,0.055 l 0.038806,0.026 c 0,0 -0.2053167,0.459 -0.2247194,0.514 -0.019403,0.056 -0.1545167,0.2103 -0.1382889,0.3602 0.01658,0.1496 0.017992,0.2914 0.021519,0.3112 0.00318,0.019 0.020108,0.052 0.00917,0.077 -0.011289,0.024 -0.038806,0.073 0.00212,0.1016 0.040217,0.03 0.049742,0.025 0.049742,0.051 0,0.025 0.013758,0.051 0.032808,0.066 0.019403,0.016 0.039158,0.1644 0.039158,0.1644 l 0.031397,0.1485 c 0,0 -0.013758,0.024 -0.024694,0.042 -0.011289,0.018 -0.0067,0.036 -0.0067,0.036 0,0 -0.013053,0.034 -0.039158,0.05 -0.025753,0.016 -0.086078,0.096 -0.086078,0.096 0,0 -0.070203,0.06 -0.1008944,0.068 -0.030692,0.01 -0.1516945,0.06 -0.1516945,0.06 0,0 -0.1248833,0.025 -0.1351138,0.065 -0.00988,0.041 -0.00141,0.078 -0.00141,0.078 l -0.011642,0.029 c 0,0 0.1291166,0.039 0.1859139,0.044 0.056444,0 0.3563055,-0.093 0.40005,-0.1026 0.04445,-0.01 0.060325,-0.015 0.083608,-0.012 0.022578,0 0.029281,0.037 0.029281,0.037 0,0 0.1615723,-0.01 0.2003778,-0.019 0.038806,-0.01 0.040217,-0.04 0.040217,-0.04 l -0.00494,-0.06 -0.013053,-0.015 c 0,0 0.055739,-0.089 0.045861,-0.1478 -0.00953,-0.059 -0.035278,-0.1238 -0.035278,-0.1238 0,0 0.00247,-0.093 -0.00494,-0.1175 -0.00882,-0.024 0.00282,-0.05 0.00282,-0.07 0,-0.019 -0.022931,-0.075 -0.025753,-0.093 -0.00353,-0.017 0.0127,-0.1044 0.0127,-0.1044 0,0 0.086078,-0.1203 0.0762,-0.1538 -0.00917,-0.035 0.034572,-0.1288 0.022931,-0.1524 -0.010936,-0.022 -0.027164,-0.083 -0.03422,-0.1104 -0.006,-0.028 -0.00459,-0.047 0.00988,-0.079 0.014817,-0.033 0.014817,-0.075 0.00847,-0.1164 -0.00706,-0.04 -0.00212,-0.048 0.075847,-0.081 0.078669,-0.033 0.2645833,-0.2219 0.2949222,-0.2755 0.031044,-0.054 0.1308806,-0.231 0.1876778,-0.1062 0.057503,0.126 0.2293055,0.5588 0.2575277,0.6047 0.027164,0.045 0.1979084,0.369 0.2144889,0.4004 0.016228,0.031 0.1291167,0.1009 0.1432278,0.1238 0.014464,0.022 0.070203,0.1761 0.1188861,0.1856 0.048683,0.01 0.123825,0 0.1464028,0.029 0.023283,0.029 0.1259417,0.1333 0.1319389,0.145 0.00706,0.011 0.024342,0.045 0.021167,0.067 -0.00282,0.021 0.028222,0.029 0.040922,0.033 0.013053,0 0.013053,0.076 0.013053,0.076"
         id="path48118-1-0-8-3"
         style="stroke-width:0.352778" />
      <path
         d="m 7.1568345,1052.1636 c -0.00564,-0.063 -0.084667,-0.248 -0.093133,-0.2723 -0.00811,-0.025 -0.00529,-0.044 -0.00529,-0.057 0,-0.014 -0.1393472,-0.1524 -0.1576916,-0.188 -0.01905,-0.036 -0.021872,-0.1852 -0.029986,-0.248 -0.00847,-0.063 -0.055033,-0.1119 -0.079375,-0.1387 -0.024694,-0.027 -0.060325,-0.2025 -0.060325,-0.2293 0,-0.027 -0.1167695,-0.5284 -0.13335,-0.5394 -0.016228,-0.011 -0.049036,-0.017 -0.087489,-0.019 -0.0381,0 -0.040922,-0.016 -0.040922,-0.016 v -0.052 l -0.056444,-0.017 c 0,0 -0.032808,-0.1033 0.029986,-0.1933 0.062442,-0.09 0.1005417,-0.4438 0.1005417,-0.4438 0,0 -0.1908528,-0.093 -0.3220861,-0.1474 -0.1305278,-0.054 -0.3728861,-0.1034 -0.40005,-0.109 -0.027164,-0.01 -0.1527528,-0.139 -0.1742722,-0.2212 -0.021872,-0.082 -0.1231195,-0.3895 -0.1259417,-0.4572 -0.00282,-0.069 0.098425,-0.2946 0.1340556,-0.3927 0.03563,-0.098 0.024342,-0.093 0.024342,-0.093 l -0.2208389,-0.1248 h -0.032456 l -0.029986,-0.019 -0.043744,-0.035 -0.046567,-0.019 -0.00282,-0.03 -0.2910416,-0.1446 0.013758,-0.03 0.1799167,0.09 0.00776,-0.019 -0.1767417,-0.09 -0.046214,-0.011 -0.049389,-0.041 -0.060325,-0.03 0.035631,-0.049 0.030339,0.016 0.024342,-0.044 0.1139472,0.063 -0.015522,0.049 0.2829277,0.1394 0.043744,0.017 0.00529,0.019 0.05715,0.024 h 0.019403 l 0.032103,0.017 0.00811,0.022 0.447675,0.1986 0.2427111,0.12 0.059267,-0.054 c 0.029986,-0.028 0.040922,-0.03 0.060325,-0.082 0.01905,-0.052 0.1255889,-0.095 0.1382889,-0.1086 0.013758,-0.014 0.00847,-0.049 -0.016228,-0.1119 -0.023989,-0.063 -0.040217,-0.1665 -0.040217,-0.1665 0,0 -0.062794,-0.019 -0.079022,-0.038 -0.016581,-0.019 -0.016581,-0.041 -0.076906,-0.098 -0.059267,-0.057 0.033161,-0.1333 0.063147,-0.1746 0.029986,-0.041 0.051858,-0.152 0.084667,-0.2071 0.032808,-0.054 0.1520472,-0.103 0.3813528,-0.082 0.2286,0.022 0.2670527,0.12 0.2779888,0.1803 0.010936,0.06 0.059972,0.3292 0.095603,0.3919 0.034925,0.063 0.00564,0.054 -0.027164,0.054 -0.033161,0 -0.095955,-0.011 -0.095955,-0.011 0,0 -0.00811,0 -0.027164,0.035 -0.01905,0.03 -0.00811,0.052 0.00529,0.06 0.013758,0.01 0.046567,-0.01 0.1121833,-0.027 0.065617,-0.019 0.1277055,0.047 0.1576916,0.065 0.029986,0.019 0.08502,0.011 0.1065389,0.014 0.022225,0 0.1277056,0.098 0.13335,0.1312 0.00564,0.033 0.049389,0.052 0.065264,0.073 0.015875,0.022 0.049036,0.032 0.084667,0.062 0.035278,0.03 0.027164,0.1146 0.062442,0.1305 0.03563,0.017 0.1827388,0.2646 0.2321277,0.2917 0.049036,0.028 0.049036,0.085 0.065264,0.1471 0.016581,0.063 0.089606,0.12 0.1146528,0.1722 0.023989,0.052 0.013053,0.1464 -0.016228,0.2205 -0.030692,0.073 -0.1665111,0.1284 -0.2130778,0.1386 -0.045861,0.011 -0.1576916,0.063 -0.1576916,0.063 l 0.062442,0.058 -0.032456,0.068 c 0,0 0.1037166,-0.027 0.1386416,-0.03 0.035631,0 0.049036,0.057 0.062795,0.1058 0.013758,0.049 0.027164,0.2395 0.057503,0.3898 0.02928,0.15 -0.1097139,0.2346 -0.1097139,0.2346 0,0 -0.00247,0.03 0,0.04 0.00282,0.011 -0.029986,0.066 -0.0508,0.088 -0.022225,0.022 -0.063853,-0.01 -0.063853,-0.01 0,0 0.010936,0.035 -0.015875,0.06 -0.027164,0.025 -0.1227667,0.036 -0.1227667,0.036 0,0 -0.00811,0.032 -0.00811,0.043 0,0.011 -0.064911,0.109 -0.070556,0.1281 -0.00529,0.019 0.032456,0.1062 -0.00882,0.2071 -0.040217,0.1012 -0.1086556,0.1799 -0.1195917,0.1933 -0.010583,0.014 -0.032808,0.1065 -0.032808,0.1065 0,0 0.052211,0.087 0.029986,0.1281 -0.020814,0.041 -0.015522,0.098 -0.015522,0.098 0,0 0.1195917,0.1065 0.1816806,0.2184 0.062794,0.1115 0.1255889,0.09 0.1823861,0.1167 0.058208,0.028 0.030692,0.077 0.030692,0.077 0,0 0.065264,0.033 0.1171222,0.062 0.051858,0.03 0.062794,0.1086 0.062794,0.1086 0,0 0.021872,0.038 0.040922,0.074 0.018697,0.035 -0.076553,0.1634 -0.076553,0.1634 h -0.049036 c 0,0 -0.00564,0.068 -0.00282,0.093 0.00282,0.025 -0.062794,0.1877 -0.1121833,0.2452 -0.04833,0.057 -0.1386416,0.06 -0.244475,0.057 -0.1065389,0 -0.041628,-7e-4 -0.1012472,0.1087 -0.054681,0.1009 -0.1576917,0.1877 -0.3534833,0.1877 -0.1972028,0 -0.043745,-0.1768 0.045155,-0.3045 0.090311,-0.1284 0.019403,-0.175 0.013758,-0.2755 0,0 -0.03175,-0.1415 -0.037394,-0.2043 m -0.8152694,-2.7633 c -0.00529,-0.038 0.010936,-0.085 0.038453,-0.087 0.027164,0 0.049036,0.01 0.05468,-0.011 0.00459,-0.019 -0.032808,-0.1333 -0.032808,-0.1333 0,0 -0.1478139,0.1665 -0.1778,0.1883 -0.029281,0.022 -0.1548694,0.084 -0.1795639,0.084 -0.023989,0 -0.1305278,-0.024 -0.1524,-0.076 -0.021872,-0.052 -0.024694,-0.077 -0.046567,-0.1252 -0.021872,-0.049 -0.029986,-0.079 -0.016228,-0.1094 0.013406,-0.03 0.010583,-0.062 0.00811,-0.079 -0.00247,-0.016 0,-0.077 0.016228,-0.095 0.016581,-0.019 -0.00529,-0.025 -0.00811,-0.058 -0.00282,-0.033 -0.03563,-0.052 0.010936,-0.1037 0.046567,-0.052 0.079375,-0.1306 0.079375,-0.1306 l -0.032808,-0.038 c 0,0 -0.029986,-0.019 -0.049389,-0.036 -0.018697,-0.016 -0.046214,-0.044 -0.049036,-0.073 -0.00282,-0.03 -0.00282,-0.098 -0.00282,-0.098 l -0.049389,-0.021 c 0,0 -0.056444,0.1524 -0.067381,0.1824 -0.010936,0.03 -0.057503,0.082 -0.059972,0.1418 -0.00282,0.06 -0.035631,0.1714 0.029986,0.3602 0.065617,0.1877 0.062794,0.2663 0.1086555,0.3044 0.046214,0.038 0.1284111,0.074 0.1940278,0.088 0.064911,0.014 0.263525,0.052 0.3347861,0.098 0.070908,0.046 0.084667,0.041 0.084667,0.041 -0.01905,-0.063 -0.029986,-0.1746 -0.03563,-0.2124 m 1.1694583,2.8007 c -0.00282,0.038 0.021519,0.1997 0.024342,0.2135 0.00282,0.013 0.065617,-0.074 0.076553,-0.1013 0.010936,-0.027 0.029281,-0.068 0.034572,-0.092 0.00564,-0.025 0,-0.068 0.00564,-0.084 0.00564,-0.017 -0.1576917,-0.156 -0.1576917,-0.156 0.00811,0.058 0.01905,0.1831 0.016581,0.2205"
         style="fill:#000000;fill-opacity:1;fill-rule:evenodd;stroke:none;stroke-width:0.352778"
         id="path48122-8-1-4-1" />
      <path
         d="m 9.8022304,1050.0399 -0.076553,-0.032 0.058208,0.1119 z m 1.5698616,1.9153 c -0.05045,-0.034 -0.100542,-0.1119 -0.127353,-0.1542 -0.02646,-0.042 -0.143581,-0.069 -0.167217,-0.1993 -0.02399,-0.1305 -0.06632,-0.138 -0.09313,-0.1778 -0.02646,-0.04 -0.164747,-0.2734 -0.185914,-0.3161 -0.02117,-0.043 -0.218016,-0.3641 -0.218016,-0.3641 0,0 -0.01305,0.01 -0.05821,0.072 -0.04515,0.064 -0.06385,0.1835 -0.09596,0.2766 -0.0314,0.093 -0.02646,0.1118 -0.01023,0.1249 0.01587,0.013 0.06103,0.059 0.06632,0.1037 0.0053,0.045 0.02117,0.1164 0.05574,0.1376 0.03492,0.022 0.05327,0.088 0.09031,0.1199 0.0374,0.032 0.01835,0.1119 0.01835,0.1433 0,0.032 0.07197,0.1171 0.09349,0.1277 0.02117,0.011 0.05821,0.085 0.07937,0.098 0.02152,0.013 0.106539,0.1358 0.106539,0.1358 0,0 0.08502,0.09 0.116416,0.1245 0.0321,0.035 0.04551,0.019 0.04551,0.019 0,0 0.02928,0.024 0.0956,0.098 0.06632,0.075 -0.02681,0.2127 -0.02681,0.2127 l -0.0261,-0.019 c 0,0 -0.02963,0.1196 -0.05045,0.1595 -0.02152,0.04 -0.0508,0.1273 -0.132998,0.2151 -0.08255,0.087 -0.201788,0.045 -0.201788,0.045 l -0.01658,-0.029 c 0,0 -0.03669,-0.01 -0.04727,-0.064 -0.01058,-0.058 0.05574,-0.138 0.08255,-0.1884 0.02646,-0.05 -0.0081,-0.2868 -0.0056,-0.3133 0.0028,-0.026 -0.109008,-0.098 -0.119239,-0.1199 -0.01094,-0.021 -0.08008,-0.1009 -0.08008,-0.1009 0,0 -0.100895,-0.035 -0.154164,-0.1189 -0.05292,-0.085 -0.180269,-0.088 -0.225778,-0.096 -0.0448,-0.01 -0.108655,-0.067 -0.12453,-0.1086 -0.01588,-0.043 -0.1305285,-0.1757 -0.2021424,-0.2632 -0.071261,-0.088 -0.074083,-0.2977 -0.084314,-0.3852 -0.011289,-0.088 -0.013758,-0.5232 -0.013758,-0.5232 l -0.044803,-0.016 0.031397,-0.2209 -0.2017889,-0.3503 c 0,0 -0.034572,0.034 -0.056092,0.029 -0.021167,-0.01 -0.021167,-0.01 -0.033867,-0.01 -0.013406,0 -0.029633,0.018 -0.045508,0.015 -0.016228,0 -0.034219,-0.021 -0.047625,-0.021 -0.013053,0 -0.034925,0.013 -0.048331,0.01 -0.0127,-0.01 -0.047272,-0.015 -0.047272,-0.015 0,0 -0.045156,0 -0.064206,-0.016 -0.018344,-0.016 -0.023636,-0.048 -0.023636,-0.048 l -0.1305278,0.061 -0.039511,0.069 -0.14605,-0.027 -0.1008944,0.059 -0.032103,-0.08 0.050447,-0.021 c 0,0 -0.050447,-0.1087 -0.00247,-0.1221 0.047978,-0.013 0.1008944,0.071 0.1008944,0.071 0,0 0.2310695,-0.093 0.2233084,-0.1087 -0.00811,-0.016 0.013053,-0.032 0.03175,-0.066 0.018697,-0.035 0.037394,-0.064 0.037394,-0.064 0,0 -0.016228,-0.045 -0.016228,-0.072 0,-0.027 0.08255,-0.061 0.1061861,-0.093 0.023636,-0.032 0.00282,-0.069 0.010936,-0.088 0.00776,-0.019 0.03175,-0.021 0.045156,-0.034 0.013053,-0.013 0.015875,-0.074 0.034219,-0.093 0.018697,-0.019 0.0508,-0.042 0.047978,-0.056 -0.00282,-0.013 -0.026458,-0.029 -0.021167,-0.056 0.00529,-0.026 0.039864,-0.1224 0.047625,-0.1725 0.00776,-0.051 0.013053,-0.1305 0.00564,-0.1729 -0.00847,-0.042 0.04198,-0.1114 0.055386,-0.1488 0.013758,-0.037 0.047625,-0.2554 0.058561,-0.2893 0.010583,-0.034 0.1248833,-0.1725 0.1248833,-0.1725 0,0 -0.021167,0 -0.042686,-0.01 -0.021167,-0.01 -0.042333,-0.058 -0.058561,-0.098 -0.015522,-0.039 -0.036689,-0.1062 -0.047625,-0.127 -0.010583,-0.021 -0.045155,-0.1041 -0.045155,-0.1041 0,0 -0.039511,-0.021 -0.047625,-0.053 -0.00811,-0.032 -0.02152,-0.016 -0.039864,-0.024 -0.018697,-0.01 -0.063853,-0.024 -0.063853,-0.024 0,0 0.00529,-0.1806 0.1171222,-0.3641 0.1114778,-0.1831 0.2441222,-0.1591 0.4674306,-0.1647 0.2226035,-0.01 0.3079755,0.3587 0.3079755,0.3587 0,0 0.03951,0.026 0.05292,0.061 0.0134,0.034 0.0056,0.088 0.0056,0.088 h 0.03951 c 0.01905,0 0.11677,0.016 0.154164,0.061 0.03704,0.045 0.111478,0.053 0.175683,0.082 0.0635,0.03 0.02646,0.1034 0.03951,0.109 0.01341,0.01 0.05574,0.014 0.101247,0.021 0.0448,0.01 0.148519,0.096 0.201789,0.1411 0.05327,0.045 0.05327,0.09 0.0635,0.1115 0.01094,0.021 0.148872,0.1778 0.170038,0.212 0.02117,0.035 0.141112,0.1969 0.156634,0.2448 0.01587,0.048 0.04515,0.1038 0.07973,0.1461 0.03457,0.042 0.02399,0.095 -0.02399,0.2254 -0.04763,0.1309 -0.04763,0.133 -0.08996,0.1863 -0.04269,0.053 -0.17533,0.2201 -0.17533,0.2201 0,0 0.07973,-0.029 0.151694,-0.042 0.07126,-0.013 0.111478,0.1566 0.116417,0.2018 0.0053,0.045 0.08537,0.1623 0.119592,0.3005 0.03457,0.138 -0.07973,0.1835 -0.07973,0.1835 0,0 0.01587,0.058 0.01587,0.1034 0,0.045 -0.04233,0.082 -0.04233,0.082 0,0 0.0078,0.048 -0.0049,0.075 -0.01341,0.026 -0.06174,0.016 -0.06174,0.016 0,0 0.01905,0.1696 0.04516,0.2155 0.02681,0.045 0.109008,0.2604 0.119592,0.3528 0.01058,0.093 0.04551,0.181 0.114652,0.2233 0.06879,0.042 0.0635,0.087 0.07373,0.1489 0.01058,0.061 0.01905,0.1351 0.05115,0.1615 0.0314,0.027 0.04198,0.064 0.03951,0.133 -0.0028,0.069 0.01588,0.099 0.05327,0.1221 0.03704,0.024 0.04763,0.1383 0.05327,0.1732 0.0049,0.034 0.03175,0.1538 0.08502,0.1986 0.05292,0.045 0.03986,0.1277 0.03986,0.1277 0,0 0.06068,0.1094 0.07938,0.1302 0.0187,0.022 0.0187,0.077 0.0187,0.098 0,0.021 0.02364,0.085 0.02364,0.085 l -0.07937,0.082 c 0,0 -0.09349,0.075 -0.159455,0.088 -0.06632,0.013 -0.201789,-0.027 -0.201789,-0.027 l 0.01023,-0.029 c 0,0 -0.01023,-0.011 0,-0.066 0.01094,-0.056 0.04269,-0.094 0.05856,-0.1273 0.01587,-0.035 0.0028,-0.1679 0.0028,-0.1679 l -0.02364,-0.016 c 0,0 -0.05115,-0.088 -0.09349,-0.1386 -0.04233,-0.05 -0.153811,-0.1669 -0.220486,-0.2706 0,0 -0.04516,-0.034 -0.0956,-0.069"
         style="fill:#000000;fill-opacity:1;fill-rule:nonzero;stroke:none;stroke-width:0.352778"
         id="path171066-6-6-1-6-0" />
      <path
         d="m 7.5267208,1056.2736 0.52035,0.03 0.0487,0.1146 -0.16439,0.3115 h 0.8322 l 0.0734,-0.012 0.0945,-0.045 0.11042,-0.078 0.0737,-0.033 0.0568,-0.012 0.0374,0.01 0.0162,0.029 v 0.033 l -0.0247,0.033 -0.0367,0.037 -0.0166,0.041 -0.0162,0.053 -0.004,0.086 0.024,0.07 0.004,0.049 0.005,0.037 -0.0367,0.01 -0.0452,-0.012 -0.2868,-0.1023 h -0.40111 l -0.18486,0.082 0.0988,0.1764 -0.16016,0.1065 -0.0409,-0.164 h -0.0938 l -0.34431,0.1097 -0.0938,0.1767 5.3315302,-0.041 0.21837,0.4654 0.81844,-0.3818 0.22613,0.4851 0.055,-0.026 0.0649,0.1394 -0.0554,0.026 0.10372,0.2222 -0.10972,0.051 0.036,0.077 0.10512,-0.049 0.20708,0.4449 0.0579,-0.027 0.0649,0.139 -0.0578,0.027 0.12276,0.2621 -0.11148,0.052 0.031,0.067 -0.139,0.065 -0.031,-0.067 -0.55845,0.2603 0.15558,0.3306 0.0607,-0.027 0.10971,0.2469 -0.0557,0.025 0.32738,0.6978 0.0243,0.2783 h -0.43356 l 0.0166,0.5162 h -0.0656 l -0.0332,-0.4177 -0.48683,0.054 0.0596,0.032 -10e-4,0.1845 -0.0797,0.037 h -0.1076 c -0.006,0.096 -0.0191,0.1823 -0.0374,0.261 l 0.13089,0.1087 0.0413,0.086 -0.10971,0.1481 -0.0857,-0.017 -0.0741,-0.059 c -0.06,0.1154 -0.13547,0.2057 -0.21872,0.278 l 0.0332,0.1051 -0.0127,0.095 -0.17251,0.065 -0.0628,-0.061 -0.0173,-0.05 c -0.0713,0.036 -0.14288,0.064 -0.21167,0.087 l -0.0649,0.021 0.0127,0.067 -0.024,0.092 -0.17921,0.043 -0.0547,-0.069 -0.0127,-0.06 c -0.078,0.021 -0.16157,0.042 -0.248,0.063 l 0.006,0.052 -0.0303,0.09 -0.18169,0.031 -0.0501,-0.072 -0.005,-0.038 c -0.0773,0.018 -0.15311,0.035 -0.22648,0.051 l 0.002,0.079 -0.0377,0.088 -0.18415,0.014 -0.0437,-0.076 -0.002,-0.051 c -0.10725,0.02 -0.19615,0.035 -0.254,0.041 l 10e-4,0.072 -0.0378,0.087 -0.1838,0.015 -0.0434,-0.076 -0.005,-0.091 h -0.32597 l -0.001,0.1323 -0.0409,0.086 -0.18415,0.01 -0.0406,-0.078 -0.002,-0.1471 H 9.9322308 l -10e-4,0.1249 -0.0413,0.086 -0.1838,0.01 -0.0409,-0.078 -0.002,-0.1404 -0.27129,10e-4 -0.001,0.1351 -0.0409,0.086 -0.18451,0.01 -0.0406,-0.078 -0.002,-0.1506 -0.23037,7e-4 -10e-4,0.121 -0.0409,0.086 -0.1845,0.01 -0.0409,-0.078 -10e-4,-0.1369 -0.28822,7e-4 -7.1e-4,0.1034 -0.0413,0.086 -0.18451,0.01 -0.0409,-0.078 -10e-4,-0.1193 -0.25576,8e-4 -10e-4,0.098 -0.0409,0.086 -0.18415,0.01 -0.0409,-0.078 -0.001,-0.1147 h -0.3295 l -7e-4,0.1023 -0.0409,0.086 -0.1845,0.01 -0.0409,-0.078 -0.001,-0.1231 c -0.0826,0 -0.1651,-0.01 -0.24765,-0.01 l -7.1e-4,0.079 -0.0409,0.086 -0.1845,0.01 -0.0409,-0.078 -10e-4,-0.1087 -0.24306,-0.014 -7.1e-4,0.061 -0.0409,0.086 -0.18415,0.01 -0.0409,-0.078 -10e-4,-0.094 -0.31468,-0.02 -0.007,0.072 -0.0476,0.082 -0.18485,-0.01 -0.0339,-0.081 0.006,-0.083 -0.19297,-0.012 c -0.0547,0 -0.10795,-0.01 -0.1591,-0.014 l -0.0152,0.058 -0.0607,0.073 -0.18027,-0.037 -0.0212,-0.085 0.0141,-0.061 c -0.12841,-0.036 -0.24342,-0.088 -0.34537,-0.1615 l -0.0198,0.021 -0.0882,0.036 -0.14217,-0.1171 0.0215,-0.085 0.036,-0.041 c -0.054,-0.068 -0.10195,-0.1472 -0.14464,-0.2375 l -0.70732,0.027 -0.0247,-0.2293 -1.08303,0.037 c -0.061,0.6975 -0.64664,1.2446 -1.35996001,1.2446 -0.6537,0 -1.1998,-0.4589 -1.33385,-1.0724 -0.043,0.011 -0.0875,0.016 -0.1337,0.016 -0.31221,0 -0.56514999,-0.2533 -0.56514999,-0.5652 0,-0.067 0.0116,-0.1319 0.0332,-0.1915 l 0.23282999,-1.3522 0.008,-0.7782 0.39299,0.01 0.4258,-0.062 v -0.188 h -0.0328 v -0.1513 h 0.0328 v -0.3239 c -0.0596,0 -0.10653,-0.054 -0.10653,-0.1143 0,-0.063 0.0515,-0.1146 0.11465,-0.1146 0.0635,0 0.11465,0.051 0.11465,0.1146 0,0.041 -0.0212,0.077 -0.0529,0.097 v 0.3415 h 0.078 c 0.005,-0.1746 0.0554,-0.3115 0.11641,-0.3115 0.0642,0 0.11677,0.1531 0.11677,0.3422 0,0.1037 -0.0159,0.1965 -0.0409,0.2593 l 1.10561001,-0.1605 v -0.072 h 0.43815 l 0.94474,-0.1284 -0.005,-0.03 1.09114,-0.1729 0.007,0.044 0.17392,-0.025 0.34043,-0.026 -0.003,-0.049 0.87983,-0.061 0.003,0.043 0.37641,-0.029 0.17569,-0.3044 0.0621,-0.5147 0.31997,-0.1468 0.11359,-0.1972 h 0.0653 v -0.081 h -0.0374 v -0.1 h 0.51752 l 0.22084,-0.3333 -1.87007,0.033 -7.1e-4,-0.029 h -0.12347 l -0.002,-0.091 h 0.12382 l -3.5e-4,-0.028 h 0.30409 v -0.1115 h 0.0205 v 0.1108 l 1.64677,-0.029 0.31962,-0.4929 z m -7.44961001,2.8515 h -0.085 v 0.1778 l 0.12736,-0.018 c -0.019,-0.039 -0.0339,-0.095 -0.0423,-0.1595 m 6.47736001,3.0177 c 0.0272,0.057 0.0617,0.098 0.0871,0.076 0.0152,-0.014 0.0533,-0.044 0.10019,-0.081 z m 5.4497102,-0.1454 -0.0734,0.096 c -0.0409,0.053 0.26635,0.1965 0.27058,0.1143 10e-4,-0.031 0.012,-0.1185 0.0254,-0.2159 z m -1.20121,0.1623 c 0,0 -0.23354,0.1965 -0.25012,0.2127 -0.10266,0.1027 0.36865,0.2336 0.34008,0.1066 -0.0286,-0.127 -0.09,-0.3193 -0.09,-0.3193 m 0.31009,-0.1369 c 0,0 0.14393,0.2692 0.15663,0.2886 0.0713,0.1101 0.26282,-0.2342 0.20285,-0.2995 l -0.33655,0.01 z m -2.7410802,0.1866 c 0,0 -0.23389,0.1965 -0.25048,0.2131 -0.1023,0.1027 0.36866,0.2336 0.34008,0.1066 -0.0286,-0.127 -0.0896,-0.3197 -0.0896,-0.3197 m 0.62653,0.053 c 0.0385,-0.068 0.0642,-0.1468 0.0508,-0.1863 h -0.14252 c 0.0152,0.07 0.0554,0.1587 0.0917,0.1824 m -0.30939,-0.1768 0.0374,0.07 c -0.006,-0.023 -0.0102,-0.047 -0.0141,-0.07 z m -1.01846,0.3824 c -0.0381,-0.051 -0.0713,-0.1058 -0.0988,-0.164 -0.0494,-0.058 -0.10725,-0.1263 -0.15593,-0.1845 h -0.0822 l 0.078,0.4254 c 0.009,0.052 0.2039,-0.019 0.25894,-0.079 m 1.62101,-0.09 c -0.0247,0.042 -0.0522,0.083 -0.0833,0.1203 0.0155,0.061 0.27023,0.1725 0.27376,0.098 0.004,-0.07 0.0547,-0.4311 0.0695,-0.5337 l -0.0176,7e-4 z m -7.0986,-0.7369 c 0.0187,0.083 0.03,0.1686 0.0332,0.2565 h 0.61171 z m 4.74769,1.1271 0.10019,-0.1915 h 0.0339 c 0.0106,0 0.0169,-0.011 0.0176,-0.022 0.003,-0.054 0.0335,-0.2777 0.0543,-0.4258 h -0.0864 l -0.23777,0.309 c -0.031,0.039 0.13194,0.1295 0.21837,0.1386 l -0.10019,0.1891 c -0.0871,-0.026 -0.16863,-0.068 -0.24236,-0.1196 l -0.001,0.1302 c 0.0811,0 0.16228,0.01 0.24377,0.01 z m 0.59796,-0.01 c -0.0325,0.011 -0.066,0.021 -0.10019,0.029 l 0.10019,-3e-4 z m 0.52422,0.028 c -0.0956,-0.052 -0.18309,-0.1079 -0.25999,-0.1767 l -0.0159,0.013 0.0257,0.034 -0.001,0.1312 z m 1.73814,-0.1986 h 0.0674 c 0.0998,-0.01 0.2391802,-0.086 0.1986102,-0.1266 -0.0497,-0.049 -0.2825702,-0.3285 -0.3496002,-0.4086 l -0.0141,4e-4 z m -0.67804,0.1962 0.0293,-0.056 c -0.037,-0.022 -0.0727,-0.046 -0.10654,-0.074 -0.0473,0.037 -0.0988,0.069 -0.15275,0.097 l -3.5e-4,0.033 z m 1.3514902,-0.066 -7e-4,0.06 h 0.16474 c -0.0568,-0.015 -0.11183,-0.035 -0.16404,-0.059 m -0.27234,0.062 0.091,-0.1711 -0.0268,-0.021 c -0.0811,0.081 -0.17744,0.1471 -0.2846902,0.1933 z m 1.10807,-0.055 -7e-4,-0.016 c -0.0201,0.01 -0.0413,0.02 -0.0624,0.029 z m 0.46214,-0.2049 0.0751,-0.1951 c -0.0314,-0.02 -0.0614,-0.042 -0.09,-0.065 -0.0469,0.096 -0.10866,0.1834 -0.18345,0.2589 l 0.007,0.1503 c 0.0667,-0.015 0.13547,-0.03 0.20532,-0.046 z m 0.50977,-0.02 -0.007,-0.036 c -0.0833,0 -0.16369,-0.022 -0.23919,-0.049 l 0.0162,0.1439 c 0.0804,-0.02 0.15805,-0.04 0.23037,-0.059 m 0.50553,-0.3916 0.004,-0.025 c -0.0212,-0.024 -0.054,-0.061 -0.0938,-0.1076 l -0.21766,0.01 0.0395,0.217 c 0.0102,0.055 0.22895,-0.028 0.26776,-0.09 m -7.4383202,0.5842 0.003,-0.042 c -0.0392,0.014 -0.0797,0.026 -0.12136,0.035 z m 0.25788,-0.1835 0.0289,0.045 -0.0155,0.1563 0.29351,0.019 -7e-4,-0.049 0.10195,-0.1926 h 0.10654 l 0.0656,0.086 -10e-4,0.1683 0.23883,0.014 -3.6e-4,-0.035 0.10266,-0.1923 h 0.0459 c -0.10548,-0.1076 -0.1845,-0.2413 -0.22683,-0.3902 l -0.42898,0.012 h -0.0363 c -0.0614,0.1383 -0.15592,0.259 -0.27375,0.3514"
         id="path5642-6-8-52-1-0-3-5-8" />
      <path
         d="m 6.9401765,1050.2118 0.61207,-1.3141 0.0173,0.01 -0.0194,0.041 h -0.006 l -0.009,0.021 0.0571,0.026 0.01,-0.02 -0.0261,-0.012 0.019,-0.041 h 0.005 l 0.0197,-0.042 h 0.007 l 0.0138,-0.028 h -0.008 l 0.16263,-0.3482 0.0106,0.01 0.0127,-0.028 -0.0102,-0.01 0.024,-0.051 -0.048,-0.022 0.20355,-0.4363 c 0.0155,-0.01 0.0423,-0.025 0.0801,-0.068 0.036,-0.041 0.11148,-0.1253 0.17039,-0.1909 0.0473,-0.052 0.0833,-0.093 0.0833,-0.093 l 0.01,-0.02 -0.003,-0.01 0.0198,-0.043 -0.004,-0.061 -0.0145,-0.1993 c 0,0 -0.005,-0.049 -0.0607,-0.075 h -0.002 c -0.0557,-0.027 -0.0967,0 -0.0967,0 l -0.16193,0.1167 -0.0494,0.036 -0.0205,0.043 h -0.009 l -0.009,0.02 c 0,0 -0.008,0.054 -0.0173,0.1228 -0.0123,0.088 -0.0286,0.2 -0.037,0.2537 -0.009,0.056 -0.005,0.088 -7e-4,0.1044 l -1.04802,2.2484 z"
         id="path51538-6-9-8-5-7-7" />
    </g>
  </g>
</svg>
