<?xml version="1.0" encoding="UTF-8" standalone="no"?>
<!-- Created with Inkscape (http://www.inkscape.org/) -->

<svg
   width="15.71589mm"
   height="6.7361202mm"
   viewBox="0 0 15.71589 6.7361206"
   version="1.1"
   id="svg33402"
   sodipodi:docname="inkporter-svg-e7qp_36f.svg"
   inkscape:version="1.1.1 (3bf5ae0d25, 2021-09-20)"
   xmlns:inkscape="http://www.inkscape.org/namespaces/inkscape"
   xmlns:sodipodi="http://sodipodi.sourceforge.net/DTD/sodipodi-0.dtd"
   xmlns="http://www.w3.org/2000/svg"
   xmlns:svg="http://www.w3.org/2000/svg">
  <sodipodi:namedview
     id="namedview555"
     pagecolor="#ffffff"
     bordercolor="#666666"
     borderopacity="1.0"
     inkscape:pageshadow="2"
     inkscape:pageopacity="0.0"
     inkscape:pagecheckerboard="0"
     inkscape:document-units="mm"
     showgrid="false"
     inkscape:zoom="0.32"
     inkscape:cx="889.0625"
     inkscape:cy="4120.3125"
     inkscape:window-width="1920"
     inkscape:window-height="1017"
     inkscape:window-x="-8"
     inkscape:window-y="-8"
     inkscape:window-maximized="1"
     inkscape:current-layer="svg33402" />
  <defs
     id="defs13927" />
  <path
     d="m 12.94608,0.88212 0.93707,-0.008 0.21497,0.45889 0.80753,-0.37621 0.22324,0.47818 0.11852,0.11162 0.0482,0.24529 -0.10887,0.0496 0.0358,0.0772 0.10335,-0.0496 0.20533,0.4396 0.12127,0.11024 0.0634,0.28526 -0.11024,0.051 0.0303,0.0661 -0.13643,0.0648 -0.0317,-0.0661 -0.54984,0.25632 0.15297,0.32659 0.16812,0.21635 0.26872,0.71383 0.0234,0.27423 H 15.104 l 0.0152,0.50987 -0.0965,-0.41341 -0.48093,0.0551 0.0579,0.2136 -0.0785,0.0358 -0.10611,-0.004 c -0.007,0.0937 -0.0193,0.17914 -0.0372,0.25769 l 0.12953,0.10749 0.04,0.0841 L 14.4399,5.601 14.3545,5.5831 14.2815,5.5252 c -0.0592,0.11438 -0.13366,0.20395 -0.21497,0.27423 l 0.0317,0.10335 -0.0124,0.0937 -0.1695,0.0648 -0.0799,-0.11025 c -0.0703,0.0345 -0.14056,0.062 -0.20809,0.0854 l -0.0524,0.0882 -0.0234,0.0909 -0.17639,0.0427 -0.0551,-0.0675 -0.25631,0.003 -0.0234,0.14056 -0.18052,0.0303 -0.0482,-0.0717 -0.23013,0.0124 0.003,0.0786 -0.0372,0.0854 -0.1819,0.0152 -0.0427,-0.0772 c -0.10886,-0.0289 -0.19568,-0.0152 -0.25356,-0.008 l 10e-4,0.0716 -0.0372,0.0854 -0.1819,0.0152 -0.0427,-0.0758 -0.004,-0.0896 -0.32108,0.003 -10e-4,0.13091 -0.0414,0.0841 -0.18052,0.008 -0.0413,-0.0772 -10e-4,-0.14332 H 10.95031 V 6.5356 l -0.0413,0.0854 -0.1819,0.007 -0.04,-0.0758 -0.001,-0.13918 -0.26872,10e-4 v 0.13367 l -0.0413,0.0841 -0.18052,0.008 -0.0413,-0.0758 -0.001,-0.14883 H 9.9258997 l -0.001,0.11989 -0.04,0.0854 -0.1819,0.007 -0.0413,-0.0758 -10e-4,-0.13505 h -0.28388 l -0.001,0.10198 -0.04,0.0854 -0.1819,0.008 -0.0413,-0.0772 -10e-4,-0.11713 h -0.25081 l -0.001,0.0965 -0.04,0.0854 -0.18328,0.008 -0.04,-0.0772 -10e-4,-0.11301 h -0.32522 v 0.1006 l -0.0413,0.0854 -0.1819,0.008 -0.04,-0.0772 -0.001,-0.12127 -0.24391,-0.01 -0.001,0.0786 -0.04,0.0841 -0.1819,0.008 -0.04,-0.0758 -0.001,-0.10749 -0.24116,-0.0138 -0.04,0.14469 -0.18328,0.008 -0.0386,-0.0772 -0.001,-0.0923 -0.31143,-0.0207 -0.007,0.0717 -0.0469,0.0813 -0.1819,-0.008 -0.0331,-0.0799 0.005,-0.0813 -0.19017,-0.0124 -0.15709,-0.0138 -0.0744,0.13092 -0.17914,-0.0372 -0.0207,-0.0827 c -0.11299,-0.0965 -0.22599,-0.14745 -0.32659,-0.22049 l -0.10611,0.0579 -0.14056,-0.11575 0.022,-0.0841 c -0.0193,-0.10749 -0.0661,-0.18604 -0.10886,-0.27424 L 4.44002,5.69711 4.41662,5.47111 3.34726,5.50691 c -0.0606,0.68902 -0.63803,1.22921 -1.34221,1.22921 -0.64492,0 -1.18373,-0.45337 -1.31603,-1.05833 -0.0427,0.01 -0.0868,0.0152 -0.13229,0.0152 C 0.24943,5.69299 0,5.44356 0,5.13488 0,5.06878 0.011,5.00534 0.0317,4.94609 l 0.23014,-1.33394 0.008,-0.76757 0.38723,0.008 0.4203,-0.062 V 2.60593 l -0.0317,-0.15021 0.0317,-0.3197 c -0.0579,-0.004 -0.10473,-0.0524 -0.10473,-0.113 0,-0.062 0.051,-0.113 0.113,-0.113 0.062,0 0.113,0.051 0.113,0.113 0,0.0413 -0.0207,0.0758 -0.0524,0.0965 v 0.33624 h 0.0772 c 0.006,-0.17225 0.0551,-0.3073 0.11438,-0.3073 0.0648,0 0.11575,0.15158 0.11575,0.33762 0,0.10197 -0.0152,0.1943 -0.04,0.25631 L 2.5036,2.58392 v -0.0717 h 0.43408 l 0.93156,-0.12678 1.0721097,-0.19981 0.17777,0.0193 0.33624,-0.0262 0.86541,-0.10887 0.37344,0.0138 0.17364,-0.30041 0.0606,-0.50712 0.31695,-0.1447 0.11162,-0.1943 1.25402,-0.0524 0.34588,-0.42306 h -1.61506 l -0.6587,0.0592 V 0.27696 l 0.6587,0.04 1.71979,0.0179 L 9.3372597,0 H 12.16775 v 0.33624 h 0.78273 z M 1.22587,2.60742 H 1.14177 V 2.78243 L 1.26855,2.76453 C 1.24925,2.72593 1.23405,2.67083 1.22585,2.60743 M 7.6171897,5.584 c 0.0276,0.0565 0.062,0.0978 0.0868,0.0758 l 0.0992,-0.0799 z m 5.3784803,-0.14194 -0.073,0.0937 c -0.04,0.0524 0.26321,0.1943 0.26734,0.113 0.001,-0.0303 0.0124,-0.11714 0.0248,-0.2136 z m -1.18649,0.15848 -0.24529,0.21083 c -0.10197,0.10198 0.3638,0.23014 0.33486,0.10474 -0.0276,-0.12541 -0.0896,-0.31557 -0.0896,-0.31557 m 0.3073,-0.13368 0.15434,0.28388 c 0.0703,0.10886 0.25907,-0.23151 0.19982,-0.2949 l -0.33211,0.008 z m -2.7050803,0.18328 -0.24667,0.21084 c -0.1006,0.1006 0.3638,0.23014 0.33486,0.10473 -0.0276,-0.1254 -0.0882,-0.31557 -0.0882,-0.31557 m 0.6187303,0.0524 c 0.0372,-0.0662 0.0634,-0.1447 0.0496,-0.18328 l -0.1405603,0.003 c 0.0152,0.0689 0.0551,0.1571 0.0909,0.18053 m -0.3059203,-0.17364 0.0372,0.0689 -0.0138,-0.0703 z m -1.00459,0.37621 c -0.0372,-0.0496 -0.0703,-0.10473 -0.0978,-0.16123 l -0.15434,-0.1819 -0.0799,0.003 0.0758,0.41892 c 0.01,0.051 0.20258,-0.0179 0.25632,-0.0785 M 10.3195,5.81745 c -0.0248,0.0413 -0.0524,0.0813 -0.0827,0.11851 0.0152,0.0606 0.26596,0.17088 0.2701,0.0965 0.003,-0.0689 0.0537,-0.42443 0.0689,-0.5264 z M 3.31355,5.08985 c 0.0193,0.0813 0.0303,0.16674 0.0331,0.25356 h 0.60358 z m 4.6853297,1.1107 c -0.0868,-0.0262 -0.16674,-0.0675 -0.2384,-0.11852 l -0.001,0.12816 0.23978,0.01 z m 0.0992,-0.18742 c 0.0538,-0.0758 0.0841,-0.29765 0.10474,-0.44373 l -0.0854,0.001 -0.23565,0.30593 c -0.0303,0.0386 0.13091,0.12816 0.21635,0.13643 m 0.49059,0.18327 -0.0978,0.0289 h 0.0978 z m 0.51814,0.0276 c -0.0951,-0.051 -0.18052,-0.10749 -0.25632,-0.17501 l 0.008,0.17501 z m 1.7142803,-0.19569 0.0675,0.001 c 0.0978,-0.01 0.23565,-0.0841 0.19568,-0.12402 -0.0482,-0.0496 -0.27836,-0.32522 -0.34588,-0.40376 z m -0.66835,0.19293 c -0.008,-0.0772 -0.0427,-0.1006 -0.0758,-0.12816 -0.0469,0.0372 -0.0978,0.0689 -0.1515903,0.0965 z m 1.33256,-0.0663 c 0.0524,0.0248 0.10749,0.0441 0.16261,0.0593 z m -0.26872,0.062 0.091,-0.1695 c -0.10611,0.0593 -0.20258,0.12402 -0.30868,0.1695 z m 1.5503,-0.25631 0.0744,-0.19293 c -0.0317,-0.0207 -0.0606,-0.0413 -0.0882,-0.0648 -0.0469,0.0951 -0.10887,0.1819 -0.1819,0.25632 l 0.007,0.14745 0.20257,-0.0455 z m 0.50298,-0.0193 c -0.0896,-0.0413 -0.1695,-0.0579 -0.24391,-0.0841 l 0.0165,0.14194 z m 0.49885,-0.38723 -0.0882,-0.13091 -0.21498,0.007 0.04,0.21359 c 0.01,0.0537 0.22461,-0.0276 0.2632,-0.0896 m -7.3394303,0.5774 c -0.0358,-0.0275 -0.0758,-0.0165 -0.11713,-0.008 z m 0.25494,-0.1819 0.0124,0.19844 0.2894,0.0193 0.10059,-0.2384 0.10473,0.004 0.0648,0.0854 -10e-4,0.16536 0.23564,0.0138 0.1006,-0.22462 c -0.0593,-0.10335 -0.13643,-0.23564 -0.17915,-0.38309 l -0.42168,0.011 c -0.0978,0.13918 -0.19017,0.25769 -0.30592,0.34864"
     id="G-SdKfz250-9" />
</svg>
