<?xml version="1.0" encoding="UTF-8" standalone="no"?>
<!-- Created with Inkscape (http://www.inkscape.org/) -->

<svg
   width="13.513983mm"
   height="5.4872632mm"
   viewBox="0 0 13.513983 5.4872632"
   version="1.1"
   id="svg11631"
   sodipodi:docname="inkporter-svg-d6aug6uc.svg"
   xmlns:inkscape="http://www.inkscape.org/namespaces/inkscape"
   xmlns:sodipodi="http://sodipodi.sourceforge.net/DTD/sodipodi-0.dtd"
   xmlns="http://www.w3.org/2000/svg"
   xmlns:svg="http://www.w3.org/2000/svg">
  <sodipodi:namedview
     id="namedview11633"
     pagecolor="#ffffff"
     bordercolor="#666666"
     borderopacity="1.0"
     inkscape:pageshadow="2"
     inkscape:pageopacity="0.0"
     inkscape:pagecheckerboard="0"
     inkscape:document-units="mm"
     showgrid="false"
     inkscape:zoom="1.8116734"
     inkscape:cx="248.66512"
     inkscape:cy="430.26518"
     inkscape:window-width="1920"
     inkscape:window-height="1017"
     inkscape:window-x="-8"
     inkscape:window-y="-8"
     inkscape:window-maximized="1"
     inkscape:current-layer="layer1" />
  <defs
     id="defs11628" />
  <g
     inkscape:label="Layer 1"
     inkscape:groupmode="layer"
     id="layer1"
     transform="translate(-29.80049,-99.860267)">
    <path
       d="m 40.170167,105.34351 c 0.181653,-0.0142 0.390236,-0.0796 0.53848,-0.16884 0.04094,-0.0247 0.07847,-0.0448 0.08341,-0.0448 0.01475,0 0.08263,-0.0536 0.188281,-0.1486 0.109326,-0.0983 0.235645,-0.27225 0.305958,-0.42122 0.02639,-0.0559 0.0549,-0.15013 0.07226,-0.2388 l 0.02865,-0.14644 0.145454,-0.005 0.145447,-0.005 0.148223,-0.0879 c 0.08153,-0.0484 0.150008,-0.0879 0.152192,-0.0879 0.0021,0 0.0078,0.0408 0.01238,0.0907 0.01044,0.1124 0.01781,0.13223 0.04919,0.13223 0.02907,0 0.02854,0.003 0.03013,-0.15646 l 0.0011,-0.12368 0.122647,-0.0695 c 0.06745,-0.0382 0.156968,-0.0929 0.198921,-0.12156 0.04194,-0.0286 0.09592,-0.0612 0.11993,-0.0723 0.02402,-0.0112 0.05926,-0.0306 0.07834,-0.0432 0.109213,-0.0724 0.237239,-0.14754 0.251283,-0.14754 0.0089,0 0.03674,0.0169 0.06182,0.0374 0.02508,0.0206 0.06707,0.0451 0.09331,0.0546 0.04424,0.0159 0.05208,0.0146 0.107834,-0.0181 0.03813,-0.0224 0.07313,-0.0574 0.09569,-0.0959 0.03461,-0.0591 0.03503,-0.0622 0.01552,-0.11649 -0.01972,-0.0549 -0.01954,-0.056 0.01129,-0.0701 0.01725,-0.008 0.0392,-0.0143 0.0488,-0.0143 0.04267,0 0.0487,-0.0348 0.02053,-0.11838 -0.0151,-0.0449 -0.03585,-0.0899 -0.0461,-0.10018 -0.01027,-0.0102 -0.02462,-0.0405 -0.032,-0.0672 -0.06469,-0.23523 -0.105354,-0.40312 -0.105354,-0.43499 0,-0.021 -0.006,-0.0419 -0.01333,-0.0464 -0.0073,-0.005 -0.0103,-0.0131 -0.0066,-0.0191 0.0037,-0.006 -0.0021,-0.0277 -0.01281,-0.0483 -0.01072,-0.0206 -0.01954,-0.0478 -0.01961,-0.0604 0,-0.0127 -0.01559,-0.0805 -0.03454,-0.15079 -0.088,-0.32618 -0.113337,-0.42217 -0.132048,-0.50026 -0.02434,-0.10161 -0.05147,-0.12957 -0.174763,-0.18013 -0.05024,-0.0206 -0.09136,-0.0423 -0.09138,-0.0483 -1.72e-4,-0.0396 -0.144928,-0.12684 -0.210357,-0.12684 -0.03126,0 -0.02911,-0.0136 0.02985,-0.19013 0.061,-0.18247 0.07271,-0.20325 0.11449,-0.20325 0.03284,0 0.03582,-0.004 0.03457,-0.0475 -0.0011,-0.0435 -0.0063,-0.0495 -0.0604,-0.0714 -0.03246,-0.0132 -0.07756,-0.0242 -0.100239,-0.0247 -0.03855,-7e-4 -0.188355,-0.0405 -0.247244,-0.0656 -0.01443,-0.006 -0.06163,-0.0241 -0.104898,-0.0399 -0.04327,-0.0158 -0.09232,-0.0341 -0.109002,-0.0407 -0.06481,-0.0258 -0.272609,-0.10089 -0.297487,-0.10756 -0.01443,-0.004 -0.117686,-0.0409 -0.229467,-0.0822 -0.223178,-0.0826 -0.27831,-0.0927 -0.286301,-0.0524 -0.0028,0.0139 0.0038,0.0319 0.01468,0.0398 0.01679,0.0123 0.01722,0.0212 0.0028,0.0599 -0.0092,0.025 -0.03037,0.0838 -0.04704,0.13068 -0.03161,0.089 -0.08047,0.2098 -0.08489,0.2098 -0.01005,0 -0.127494,-0.0448 -0.172907,-0.0659 -0.03059,-0.0143 -0.0663,-0.0259 -0.0794,-0.0259 -0.01309,0 -0.04564,-0.02 -0.07233,-0.0444 -0.02776,-0.0254 -0.06953,-0.0484 -0.09763,-0.0536 -0.02702,-0.005 -0.05645,-0.0152 -0.06542,-0.0227 -0.009,-0.007 -0.02854,-0.0103 -0.04344,-0.006 -0.01492,0.004 -0.04721,-10e-4 -0.07176,-0.0116 -0.02455,-0.0103 -0.06992,-0.0187 -0.100803,-0.0188 -0.05358,-1.7e-4 -0.143881,-0.0242 -0.162987,-0.0433 -0.0049,-0.005 -0.06111,-0.009 -0.124816,-0.009 -0.08937,0 -0.115828,0.004 -0.115828,0.018 0,0.0122 -0.0248,0.0208 -0.07722,0.0267 -0.09764,0.011 -1.186557,0.008 -1.204101,-0.003 -0.01422,-0.009 -0.121715,-0.18288 -0.121715,-0.19664 -4e-6,-0.005 -0.02953,-0.0545 -0.06557,-0.11082 -0.03607,-0.0563 -0.06556,-0.10536 -0.06556,-0.10905 0,-0.004 -0.01408,-0.0255 -0.03126,-0.0485 -0.01722,-0.023 -0.0467,-0.0742 -0.06555,-0.11385 -0.06838,-0.14387 -0.03789,-0.133153 -0.395993,-0.139249 -0.17248,-0.0028 -0.33425,-0.009 -0.359491,-0.01355 -0.02526,-0.0045 -0.06065,-0.01 -0.07868,-0.01214 -0.01803,-0.0021 -0.410421,-0.0043 -0.871982,-0.0047 -0.745687,-7.06e-4 -0.84359,0.0014 -0.87854,0.02021 -0.02162,0.01154 -0.0777,0.06847 -0.124569,0.126489 -0.04688,0.058 -0.102704,0.12599 -0.124058,0.15106 l -0.03882,0.0456 -0.619725,-0.006 c -0.340854,-0.003 -0.623051,-0.009 -0.627112,-0.013 -0.0064,-0.006 -0.0164,-0.0733 -0.01877,-0.12554 -3.52e-4,-0.009 -0.0096,-0.0164 -0.02043,-0.0164 -0.01457,0 -0.01965,0.0153 -0.01965,0.059 0,0.0417 -0.0054,0.059 -0.01827,0.059 -0.01005,0 -0.02166,0.009 -0.02582,0.0196 -0.0049,0.0128 -0.02529,0.0196 -0.05843,0.0196 -0.02798,0 -0.09632,0.004 -0.151864,0.009 l -0.100979,0.009 0.0039,0.0516 0.004,0.0516 0.14424,0.005 c 0.07933,0.002 0.195972,0.009 0.259207,0.0134 0.07892,0.006 0.120643,0.004 0.133079,-0.006 0.01323,-0.011 0.148015,-0.0132 0.500052,-0.008 0.265073,0.004 0.484833,0.01 0.48836,0.0133 0.01087,0.0109 -0.02554,0.0464 -0.04761,0.0464 -0.01147,0 -0.04583,0.0245 -0.07636,0.0545 -0.05541,0.0544 -0.05575,0.0545 -0.167563,0.0584 -0.100107,0.004 -0.113499,0.001 -0.1258,-0.0218 -0.0093,-0.0174 -0.02314,-0.0237 -0.04274,-0.0196 -0.06537,0.0137 -1.004097,0.0207 -1.012232,0.008 -0.0095,-0.0154 -0.05918,-0.0184 -0.05922,-0.004 -1.4e-5,0.005 -0.01799,0.0305 -0.03994,0.0557 -0.0302,0.0348 -0.0386,0.0554 -0.0345,0.0852 0.0041,0.0297 -0.0069,0.0569 -0.04492,0.11145 -0.06937,0.0995 -0.07994,0.11166 -0.111016,0.12821 -0.01496,0.008 -0.04432,0.0399 -0.06529,0.071 -0.02095,0.0311 -0.05888,0.0825 -0.08428,0.11431 -0.02611,0.0327 -0.04688,0.074 -0.04781,0.0951 -0.0011,0.0205 -0.0021,0.0569 -0.0032,0.0809 -0.0011,0.0313 -0.01002,0.0478 -0.03115,0.0581 -0.02656,0.013 -0.371747,0.12219 -0.435995,0.13788 -0.01443,0.004 -0.15604,0.0485 -0.314702,0.0999 -0.158658,0.0514 -0.302659,0.0961 -0.319998,0.0994 -0.03646,0.007 -0.266968,0.0785 -0.489983,0.15239 -0.08489,0.0282 -0.166109,0.0512 -0.180471,0.0512 -0.01439,0 -0.03636,0.006 -0.04889,0.0127 -0.04461,0.0248 -0.240464,0.0822 -0.249548,0.0731 -0.0051,-0.005 -0.01132,-0.20635 -0.01383,-0.44726 l -0.0046,-0.438 0.03411,-0.0405 c 0.01873,-0.0223 0.03411,-0.0457 0.03411,-0.052 0,-0.0319 -0.03383,-0.0782 -0.06718,-0.0921 -0.03104,-0.0128 -0.04323,-0.0118 -0.07021,0.006 -0.05683,0.0372 -0.06095,0.14157 -0.0062,0.15892 0.02632,0.008 0.02663,0.0148 0.02057,0.39754 -0.0032,0.21397 -0.01009,0.4256 -0.01478,0.47029 l -0.0086,0.0813 -0.08561,0.0285 c -0.06587,0.0219 -0.09056,0.0374 -0.107051,0.0672 -0.01178,0.0213 -0.05229,0.084 -0.09,0.13938 -0.0377,0.0554 -0.08491,0.12866 -0.104898,0.16281 -0.01997,0.0341 -0.03976,0.0622 -0.04395,0.0623 -0.0042,1.2e-4 -0.02618,-0.0256 -0.04884,-0.0572 -0.02543,-0.0354 -0.06417,-0.0682 -0.101131,-0.0856 -0.03295,-0.0155 -0.05636,-0.0339 -0.05201,-0.0409 0.0043,-0.007 -0.0043,-0.0128 -0.01912,-0.0128 -0.01485,0 -0.02702,0.006 -0.02702,0.0131 0,0.007 -0.02801,0.0133 -0.06228,0.0135 -0.109993,7.1e-4 -0.106836,-0.009 -0.114985,0.36433 -0.0068,0.31187 -0.0058,0.33068 0.01785,0.35438 0.01376,0.0138 0.0326,0.0275 0.04185,0.0306 0.01954,0.007 -0.08273,0.19153 -0.11213,0.20281 -0.0097,0.004 -0.01482,0.0146 -0.01118,0.0241 0.0036,0.009 1.73e-4,0.0212 -0.0074,0.0259 -0.0085,0.005 -0.01401,-0.004 -0.01401,-0.0249 0,-0.0185 -0.0059,-0.0336 -0.01309,-0.0336 -0.0072,0 -0.01309,-0.014 -0.01309,-0.0312 0,-0.0362 -0.03083,-0.0667 -0.0572,-0.0566 -0.01842,0.007 -0.03055,0.049 -0.04326,0.1495 l -0.007,0.0552 -0.09899,0.004 c -0.08972,0.004 -0.101413,0.007 -0.12494,0.0386 -0.04095,0.055 -0.03585,0.12497 0.01439,0.19791 0.0236,0.0343 0.04842,0.0623 0.05516,0.0623 0.02575,0 0.23748,0.11078 0.22061,0.11545 -0.03636,0.0101 -0.110649,0.0469 -0.143835,0.0714 -0.07759,0.0572 -0.137456,-0.005 -0.103593,-0.10759 0.01993,-0.0605 0.01425,-0.0725 -0.02921,-0.0616 -0.05224,0.0131 -0.08897,0.0778 -0.09227,0.16259 -0.0025,0.0656 0.0021,0.082 0.03528,0.12541 0.07405,0.0968 0.155978,0.10666 0.292354,0.0352 0.06562,-0.0344 0.09992,-0.0432 0.189805,-0.0488 l 0.109707,-0.007 0.0478,0.0583 c 0.02628,0.0321 0.05905,0.0786 0.07282,0.10329 0.0199,0.0358 0.03425,0.0457 0.07035,0.0489 l 0.04533,0.004 0.01697,0.13378 c 0.0093,0.0736 0.01835,0.14263 0.02011,0.15345 0.0032,0.0194 0.02321,0.0732 0.04661,0.12457 0.0066,0.0144 0.01905,0.0498 0.02769,0.0787 0.02417,0.0804 0.04768,0.12104 0.144812,0.25066 0.117592,0.15692 0.269148,0.28492 0.437857,0.3698 0.118449,0.0596 0.244278,0.10563 0.314703,0.11517 0.230487,0.0312 0.371376,0.0292 0.531057,-0.008 0.05901,-0.0136 0.267656,-0.0989 0.298013,-0.1219 0.0089,-0.007 0.04975,-0.0296 0.0909,-0.051 0.148727,-0.0772 0.386648,-0.3352 0.457418,-0.49608 0.01111,-0.0252 0.03235,-0.0685 0.04727,-0.0961 0.01489,-0.0276 0.04347,-0.11906 0.0635,-0.20325 0.02289,-0.0962 0.04218,-0.15175 0.0519,-0.14951 0.0085,0.002 0.0977,0.007 0.198197,0.0119 l 0.182729,0.008 v 0.0687 c 0,0.0507 0.0055,0.0708 0.02085,0.0767 0.03436,0.0132 0.04471,-0.003 0.04471,-0.0715 0,-0.0604 0.01387,-0.0823 0.03281,-0.0517 0.0127,0.0205 0.04506,0.0155 0.08555,-0.0133 0.03618,-0.0258 0.05123,-0.0263 0.578975,-0.02 0.298009,0.004 0.906568,0.01 1.352349,0.0143 l 0.810514,0.008 0.07499,0.0384 c 0.06005,0.0307 0.107872,0.0422 0.240072,0.0577 0.09079,0.0106 0.180753,0.0253 0.199905,0.0325 0.01916,0.007 0.106952,0.0114 0.195111,0.009 0.175934,-0.004 0.352365,-0.0421 0.418938,-0.0895 0.04537,-0.0323 0.06625,-0.0337 0.560871,-0.0372 0.267949,-0.002 0.415032,-0.008 0.47861,-0.021 0.05048,-0.01 0.09817,-0.0183 0.105971,-0.0183 0.0078,0 0.02057,0.0251 0.02836,0.0557 0.02854,0.11202 0.05245,0.18901 0.07254,0.23331 0.01132,0.0249 0.03387,0.0837 0.05015,0.13056 0.01626,0.0469 0.04487,0.10589 0.06354,0.13113 0.01866,0.0252 0.05638,0.0794 0.0838,0.1203 0.04887,0.073 0.162511,0.18368 0.265113,0.25831 0.08813,0.0641 0.300972,0.17034 0.354651,0.17702 0.02812,0.004 0.07174,0.0148 0.09699,0.0252 0.04531,0.0186 0.258731,0.0341 0.360595,0.0262 z m -9.584788,-1.42767 c -0.01898,-0.0289 -0.01894,-0.0317 1.69e-4,-0.0317 0.04978,0 0.07469,0.0314 0.05945,0.075 -0.0038,0.0109 -0.04242,-0.0172 -0.05953,-0.0433 z m 12.470927,-0.51907 c 0.0064,-0.0103 0.0021,-0.0126 -0.01235,-0.007 -0.03228,0.0124 -0.02678,7e-5 0.02074,-0.0464 0.03636,-0.0356 0.04321,-0.0382 0.04708,-0.0181 0.0025,0.013 -0.0089,0.0378 -0.02515,0.0551 -0.03178,0.0338 -0.0458,0.0414 -0.03034,0.0163 z m -12.696345,-0.93534 c -0.0011,-0.0397 7.05e-4,-0.0721 0.0042,-0.0721 0.02325,0 0.04183,0.0426 0.03783,0.0869 -0.0056,0.0617 -0.0037,0.0573 -0.02364,0.0573 -0.01086,-1e-5 -0.01707,-0.0243 -0.01841,-0.0721 z m 0.821556,-1.5512 c 0,-0.0334 0.01997,-0.0682 0.03911,-0.0682 0.01009,0 0.0062,0.0529 -0.006,0.082 -0.01471,0.035 -0.03306,0.0274 -0.03306,-0.0138 z"
       id="G-SdKfz221"
       style="stroke-width:0.352778" />
  </g>
</svg>
