<?xml version="1.0" encoding="UTF-8" standalone="no"?>
<!-- Created with Inkscape (http://www.inkscape.org/) -->

<svg
   width="19.837996mm"
   height="7.0095201mm"
   viewBox="0 0 19.837996 7.0095201"
   version="1.1"
   id="svg7426"
   sodipodi:docname="inkporter-svg-dauaf0tp.svg"
   xmlns:inkscape="http://www.inkscape.org/namespaces/inkscape"
   xmlns:sodipodi="http://sodipodi.sourceforge.net/DTD/sodipodi-0.dtd"
   xmlns="http://www.w3.org/2000/svg"
   xmlns:svg="http://www.w3.org/2000/svg">
  <sodipodi:namedview
     id="namedview7428"
     pagecolor="#ffffff"
     bordercolor="#666666"
     borderopacity="1.0"
     inkscape:pageshadow="2"
     inkscape:pageopacity="0.0"
     inkscape:pagecheckerboard="0"
     inkscape:document-units="mm"
     showgrid="false"
     inkscape:zoom="0.45291836"
     inkscape:cx="-70.65291"
     inkscape:cy="558.59957"
     inkscape:window-width="2752"
     inkscape:window-height="1370"
     inkscape:window-x="1914"
     inkscape:window-y="11"
     inkscape:window-maximized="0"
     inkscape:current-layer="layer1" />
  <defs
     id="defs7423">
    <clipPath
       clipPathUnits="userSpaceOnUse"
       id="clipPath180456-5-6">
      <path
         d="M 0,0 H 595.276 V 841.89 H 0 Z"
         id="path180454-2-9" />
    </clipPath>
  </defs>
  <g
     inkscape:label="Layer 1"
     inkscape:groupmode="layer"
     id="layer1"
     transform="translate(-221.99826,74.774041)">
    <g
       id="G-SdKfz251-Pak40"
       transform="matrix(0.35277777,0,0,-0.35277777,136.57351,184.50807)">
      <path
         id="path66870-7-5-5-1-0"
         style="fill:#000000;fill-opacity:1;fill-rule:nonzero;stroke:none;stroke-width:1.33333"
         d="m 389.7793,144.41602 -0.35547,0.13867 h -0.1875 v 0.0742 l -0.46289,0.18164 0.0703,0.16601 0.39258,-0.15429 v 0.74804 h 0.51758 v -0.16015 l 0.91797,0.125 4.59179,1.89062 v 0.54883 l -42.90234,-0.49609 -0.38867,0.5996 -0.66016,0.13282 -0.50391,0.71484 -0.12109,1.13086 -0.33398,0.51758 -7.75196,1.0293 -0.1289,-0.4043 -0.91407,0.13476 0.0332,0.4043 -5.80664,0.76953 -0.11524,-0.35351 -0.91211,0.13281 0.0274,0.35351 -3.47657,0.46094 -0.11914,-0.23047 -1.46289,0.13477 0.0195,0.30273 -1,0.13477 -0.16406,0.17187 v -0.56445 H 328.125 v -0.31445 h -0.86914 v -1.5586 c 0.0827,-0.048 0.13867,-0.1357 0.13867,-0.23437 0,-0.148 -0.1241,-0.26758 -0.27344,-0.26758 -0.152,0 -0.27539,0.11958 -0.27539,0.26758 0,0.13333 0.0978,0.24429 0.22852,0.26562 v 1.52735 h -0.22852 v 1.29101 l -0.66992,1.5586 -2.13672,4.90625 -0.25781,0.2207 -0.32031,0.17969 -0.32032,-0.26758 0.54688,-0.26953 0.0937,-0.44922 -0.77734,0.49609 -0.13868,0.44532 0.32032,0.44922 0.5957,0.0449 0.26758,-0.13086 0.60547,0.99804 c -0.104,0.41467 -0.15821,0.85083 -0.15821,1.29883 0,3.05867 2.53297,5.54102 5.6543,5.54102 2.72933,0 5.00911,-1.89859 5.53711,-4.41992 l 1.83984,-0.0547 1.0586,-0.69727 2.19726,-0.11328 0.0254,0.14453 -0.5,0.61719 0.32032,0.38477 0.54492,-0.25977 0.71875,0.98828 -0.33594,0.57031 0.36719,0.33594 0.61719,-0.40625 0.82421,0.41797 0.0332,0.67578 0.49804,0.0859 0.23243,-0.53516 1.04687,0.20508 0.0527,0.6211 0.50195,0.0684 0.2207,-0.5625 1.04102,0.15235 0.0488,0.5918 0.5,0.0684 0.21679,-0.54882 1.04688,0.15625 0.0488,0.57226 0.5,0.0703 0.20703,-0.52734 1.05859,0.16016 0.0449,0.54492 0.5,0.0703 0.20703,-0.52734 1.05469,0.10351 0.0488,0.60547 0.50195,0.0684 0.24805,-0.63086 0.95898,0.01 0.125,0.55273 h 0.50586 l 0.13086,-0.54492 1.07227,0.0117 0.12304,0.5332 h 0.50586 l 0.12305,-0.52539 1.08203,0.0117 0.11719,0.51367 h 0.50781 l 0.11914,-0.50781 1.08789,0.0137 0.11524,0.49414 h 0.50586 l 0.11523,-0.48828 1.09961,0.0117 0.10742,0.47656 h 0.50782 l 0.11132,-0.46875 1.10743,0.01 0.10351,0.45898 h 0.50781 l 0.10547,-0.44922 1.11524,0.01 0.10156,0.43945 h 0.50586 l 0.10156,-0.43164 1.125,0.0117 0.0957,0.41992 h 0.50586 l 0.0977,-0.41211 1.08984,0.01 0.0918,0.40234 h 0.50586 l 0.0918,-0.39453 1.14257,0.0117 0.0899,0.38281 h 0.50391 l 0.0879,-0.37695 1.15429,0.0137 0.082,0.36328 h 0.50782 l 0.084,-0.35547 1.15625,0.0117 0.0801,0.34375 h 0.50586 l 0.0859,-0.35547 1.14453,-0.0508 0.0937,0.40625 h 0.50586 l 0.10351,-0.43359 1.10938,-0.0488 0.11133,0.48242 h 0.50585 l 0.12305,-0.51562 1.08203,-0.0449 0.11719,0.51171 h 0.50977 l 0.13476,-0.58203 1.12305,-0.11523 0.20703,0.50781 0.5,-0.0762 0.043,-0.60156 0.86914,-0.39453 0.6543,0.39257 0.35156,-0.35547 -0.34961,-0.52539 0.83203,-0.76367 0.63672,0.13867 0.2168,-0.44921 -0.4629,-0.35352 0.35938,-0.9668 0.63867,-0.15234 -0.008,-0.4961 -0.60742,-0.12695 -0.0488,-0.75976 2.60742,-0.28907 v 0.31836 h 1.43164 c 0.088,0.11067 0.22496,0.18164 0.37695,0.18164 0.26534,0 0.48243,-0.21265 0.48243,-0.47265 0,-0.25867 -0.21709,-0.46875 -0.48243,-0.46875 h 0.80079 v 0.17773 h 0.22851 v -0.20898 l 1.37305,0.52343 h 0.73047 v -1.56835 h -0.86914 l -1.23438,0.26953 V 161.163 h -0.22851 v 0.22461 h -0.60547 l 1.09765,-1.70899 0.28516,-0.084 6.12695,-9.5918 -0.0918,-0.16211 0.33984,-0.53125 -1.4043,-1.32031 -0.42968,-0.006 v -2.33008 h 0.25781 v -0.47656 h -1.17774 v 0.47656 h 0.17383 v 0.32032 l -4.54297,-0.61328 -0.11328,-0.0156 -0.85351,-0.11523 v -0.60938 l 0.0918,-0.0352 z m 1.59375,1.21289 3.89062,0.52539 v 1.07812 z m -8.57617,18.46875 c 0.0625,0.0109 0.12302,0.0324 0.17968,0.0684 0.22534,0.144 0.28987,0.44139 0.14453,0.66406 -0.14933,0.22266 -0.45044,0.28462 -0.67578,0.14062 -0.22666,-0.144 -0.29253,-0.44139 -0.14453,-0.66406 0.11,-0.166 0.30847,-0.24173 0.4961,-0.20898 z m -1.48243,0.73437 c 0.26934,0 0.49024,0.21514 0.49024,0.48047 0,0.264 -0.2209,0.47656 -0.49024,0.47656 -0.27066,0 -0.48828,-0.21256 -0.48828,-0.47656 0,-0.26533 0.21762,-0.48047 0.48828,-0.48047 z m -33.68554,0.31445 1.65039,0.006 c 0.23866,0.80534 0.75917,1.49375 1.45117,1.95508 l -0.043,0.0957 -1.01758,-0.15234 c -0.0533,-0.248 -0.16099,-0.61982 -0.34765,-0.64648 -0.16934,-0.024 -0.3335,0.28467 -0.4375,0.52734 l -1.03125,-0.15625 c -0.0547,-0.24667 -0.1618,-0.59647 -0.3418,-0.61914 -0.16533,-0.024 -0.32631,0.26586 -0.43164,0.50586 l -1.04297,-0.14844 c -0.0187,-0.0867 -0.0428,-0.18472 -0.0762,-0.27539 0.65733,-0.204 1.23197,-0.58913 1.66797,-1.0918 z m 3.24218,0.0117 0.9043,0.002 c -0.04,0.0933 -0.11103,0.17775 -0.20703,0.23242 -0.23333,0.132 -0.53197,0.0536 -0.66797,-0.17578 -0.012,-0.02 -0.02,-0.0386 -0.0293,-0.0586 z m 2.81641,0.008 0.1543,0.002 c 0.0307,0.10667 0.0694,0.21117 0.10937,0.3125 -0.0187,-0.007 -0.038,-0.0173 -0.0566,-0.0293 -0.10667,-0.0693 -0.1777,-0.17049 -0.20703,-0.28515 z m 7.11328,0.0215 0.11328,0.002 c -0.04,0.0773 -0.0997,0.14465 -0.17968,0.19532 0.024,-0.064 0.0451,-0.1306 0.0664,-0.19727 z m 2.04688,0.008 h 0.17578 c 0.032,0.10267 0.0655,0.20088 0.10547,0.29688 -0.0293,-0.0107 -0.0561,-0.0237 -0.0801,-0.041 -0.1,-0.064 -0.16784,-0.15319 -0.20117,-0.25586 z m 9.08007,0.0293 0.11524,0.002 c 0.024,0.0773 0.0496,0.15395 0.0723,0.22461 -0.088,-0.056 -0.1515,-0.13456 -0.1875,-0.22656 z m 4.77344,0.0156 0.75977,0.004 c 0.016,0.012 0.0316,0.0257 0.0449,0.0391 0.236,0.23334 0.236,0.60589 0,0.83789 -0.23467,0.23067 -0.6169,0.23067 -0.85156,0 -0.236,-0.232 -0.236,-0.60455 0,-0.83789 0.016,-0.0133 0.0309,-0.0296 0.0469,-0.043 z m -18.23242,0.043 c 0.12267,0.364 0.30644,0.69867 0.53711,1 -0.19067,0.0333 -0.39178,-0.0208 -0.53711,-0.16211 -0.23467,-0.232 -0.23467,-0.60455 0,-0.83789 z m 6.89063,0.01 c 0.22533,0.23333 0.22356,0.60012 -0.01,0.82812 -0.14267,0.13867 -0.33553,0.19269 -0.51953,0.16602 0.22666,-0.3 0.40663,-0.63414 0.5293,-0.99414 z m -9.15626,0.0176 c 0.21067,0.232 0.2019,0.58788 -0.0234,0.81054 -0.13867,0.13334 -0.32524,0.18931 -0.50391,0.16797 0.22533,-0.29333 0.40468,-0.62385 0.52734,-0.97851 z m -3.4375,0.004 c 0.26934,0 0.48829,0.21452 0.48829,0.47852 0,0.26267 -0.21895,0.48047 -0.48829,0.48047 -0.26933,0 -0.49023,-0.2178 -0.49023,-0.48047 0,-0.264 0.2209,-0.47852 0.49023,-0.47852 z m 9.15235,0 c 0.27067,0 0.48828,0.21452 0.48828,0.47852 0,0.26267 -0.21761,0.48047 -0.48828,0.48047 -0.27067,0 -0.48828,-0.2178 -0.48828,-0.48047 0,-0.264 0.21761,-0.47852 0.48828,-0.47852 z m 9.06836,0 c 0.26933,0 0.49023,0.21452 0.49023,0.47852 0,0.26267 -0.2209,0.48047 -0.49023,0.48047 -0.27067,0 -0.49024,-0.2178 -0.49024,-0.48047 0,-0.264 0.21957,-0.47852 0.49024,-0.47852 z m 3.42383,0.0274 c 0.18533,0.232 0.16655,0.56596 -0.0508,0.77929 -0.128,0.12534 -0.2988,0.18255 -0.4668,0.17188 0.21866,-0.288 0.39491,-0.60584 0.51758,-0.95117 z m -6.83985,0.0273 c 0.12267,0.33333 0.29572,0.64445 0.51172,0.92578 -0.16,0.003 -0.31874,-0.0565 -0.44141,-0.17383 -0.20799,-0.204 -0.23164,-0.52262 -0.0703,-0.75195 z M 357.32227,165.75 c 0.33466,0 0.60546,0.2638 0.60546,0.5918 0,0.32533 -0.2708,0.58984 -0.60546,0.58984 -0.33334,0 -0.60157,-0.26451 -0.60157,-0.58984 0,-0.328 0.26823,-0.5918 0.60157,-0.5918 z m 9.17382,0 c 0.33467,0 0.60352,0.2638 0.60352,0.5918 0,0.32533 -0.26885,0.58984 -0.60352,0.58984 -0.33466,0 -0.60351,-0.26451 -0.60351,-0.58984 0,-0.328 0.26885,-0.5918 0.60351,-0.5918 z m 9.00977,0 c 0.33467,0 0.60352,0.2638 0.60352,0.5918 0,0.32533 -0.26885,0.58984 -0.60352,0.58984 -0.33067,0 -0.60156,-0.26451 -0.60156,-0.58984 0,-0.328 0.27089,-0.5918 0.60156,-0.5918 z m 3.08984,0.28516 c 0.35734,0.39733 0.80388,0.71582 1.31055,0.92382 -0.0787,0.132 -0.1404,0.32457 -0.17773,0.47657 l -1.01172,0.0449 c -0.0853,-0.23867 -0.24932,-0.62305 -0.44532,-0.62305 -0.18933,0 -0.31757,0.39954 -0.3789,0.6582 l -0.97852,0.043 -0.0332,-0.10351 c 0.712,-0.28534 1.31351,-0.78526 1.71484,-1.41992 z m -18.97461,0.8789 c 0.0587,0.048 0.1196,0.0947 0.1836,0.13867 -0.072,0.132 -0.12354,0.30789 -0.15821,0.44922 l -1.00781,-0.0234 c 0.35867,-0.13734 0.69176,-0.32846 0.98242,-0.56446 z m 4.58594,0.008 c 0.28133,0.22399 0.59679,0.4083 0.93945,0.54296 l -0.0234,0.0937 -0.97071,-0.01 c -0.0387,-0.116 -0.10474,-0.29731 -0.1914,-0.44531 0.0853,-0.056 0.16609,-0.11765 0.24609,-0.18164 z m -9.16211,0.01 c 0.27867,0.22 0.59174,0.39987 0.92774,0.5332 l -1.00196,-0.01 c -0.0387,-0.10934 -0.0948,-0.24214 -0.16015,-0.35547 0.0813,-0.0533 0.15971,-0.10797 0.23437,-0.16797 z m 18.20117,0.0117 c 0.29734,0.23333 0.63219,0.42011 0.99219,0.55078 -0.0133,0.06 -0.0245,0.11554 -0.0352,0.1582 l -0.92187,-0.008 c -0.0227,-0.0773 -0.1078,-0.35531 -0.23047,-0.55664 0.0667,-0.0467 0.13265,-0.0952 0.19531,-0.14453 z m -4.5039,0.0137 c 0.048,0.0387 0.10291,0.0773 0.15625,0.11328 -0.0827,0.16267 -0.13988,0.38539 -0.17188,0.52539 l -0.90429,-0.01 -0.0332,-0.0996 c 0.34534,-0.12934 0.66513,-0.3093 0.95313,-0.5293 z m 11.67969,0.17188 c 0.28266,0.0707 0.58457,0.10937 0.89257,0.10937 0.072,0 0.14427,-0.003 0.21094,0.0234 l -1.00195,0.10156 c -0.0293,-0.076 -0.0642,-0.15704 -0.10156,-0.23437 z m -19.97852,0.28515 c 0.0827,0.036 0.16981,0.0697 0.25781,0.0977 l -0.22265,-0.002 z m 11.98437,0.0137 c -0.0213,0.0773 -0.0368,0.15042 -0.0488,0.20508 l -0.57422,-0.004 c 0.216,-0.0493 0.42304,-0.11718 0.62304,-0.20118 z m -2.875,0.002 c 0.17334,0.0733 0.35302,0.13435 0.54102,0.17969 l -0.48242,-0.006 c -0.0133,-0.0413 -0.0319,-0.10317 -0.0586,-0.17383 z m -6.23046,0.0137 -0.0254,0.0957 -0.23047,-0.002 c 0.0867,-0.0293 0.17186,-0.0577 0.25586,-0.0937 z"
         transform="matrix(0.75000002,0,0,-0.75000002,0,841.89002)" />
      <path
         id="path9648-1"
         style="fill:#000000;stroke-width:0.0236451"
         d="m 271.82242,734.96944 c -0.0423,-0.005 -0.0645,-0.0177 -0.0703,-0.0352 -0.0183,-0.0561 -0.0867,-0.0996 -0.15088,-0.0996 -0.0641,0 -0.14191,-0.14128 -0.17431,-0.31348 -0.0323,-0.1722 -0.2076,-0.5298 -0.38965,-0.79541 l -0.33106,-0.4834 -1.83252,-0.0469 c -1.00762,-0.0251 -5.23043,-0.0848 -9.38379,-0.13477 -6.48201,-0.0772 -7.6054,-0.0716 -7.93506,0.0381 -0.22039,0.066 -0.52494,0.10371 -0.71484,0.0747 -0.37949,-0.0591 -0.9427,0.14126 -1.08252,0.38526 -0.0831,0.1444 -0.10216,0.14034 -0.2417,-0.0557 -0.14179,-0.1985 -0.18899,-0.21074 -0.7544,-0.15674 l -0.60351,0.0557 -0.0981,-0.28125 c -0.12521,-0.35929 -0.12521,-0.86384 0,-1.22314 l 0.0981,-0.28125 0.60351,0.0557 c 0.56541,0.0526 0.61261,0.0424 0.7544,-0.15673 0.13954,-0.1965 0.1587,-0.20057 0.2417,-0.0557 0.13968,0.2437 0.67538,0.42334 1.25977,0.42334 0.29215,0 0.59835,0.0376 0.68115,0.0806 0.12251,0.0641 14.23357,-0.0228 14.65429,-0.0908 0.17586,-0.0285 0.0843,-0.29499 -0.11425,-0.33399 -0.0962,-0.0185 -0.30596,-0.13471 -0.46729,-0.25781 -0.42023,-0.3204 -0.41125,-0.71613 0.0249,-1.04883 0.28103,-0.2141 0.36785,-0.23664 0.73243,-0.18164 0.36348,0.0541 0.40066,0.0446 0.30175,-0.0747 -0.0639,-0.0769 -0.10086,-0.30198 -0.085,-0.52148 l 0.0278,-0.38672 0.37939,-0.0103 c 0.30245,-0.006 0.51958,-0.11531 0.63721,-0.27685 h 10.01074 c -0.15202,0.056 -0.28313,0.11452 -0.36182,0.16992 -0.13048,0.0921 -0.28334,0.16699 -0.33984,0.16699 -0.0565,0 -0.24982,0.10113 -0.43066,0.22413 -0.18083,0.1223 -0.38265,0.22412 -0.44825,0.22412 -0.0769,0 -0.10902,0.085 -0.0908,0.24023 l 0.0278,0.24023 3.80566,0.0132 c 2.09308,0.007 3.85247,0.0426 3.90967,0.0776 0.0573,0.0354 0.104,0.16261 0.104,0.28271 0,0.158 0.0488,0.2168 0.17871,0.2168 0.0983,0 0.17871,0.0565 0.17871,0.12451 0,0.068 -0.0804,0.14492 -0.17871,0.16992 -0.13013,0.0341 -0.17871,0.12243 -0.17871,0.32373 v 0.27686 h -1.6084 -1.60839 v 0.21679 c 0,0.3833 -0.38148,0.58741 -1.09717,0.58741 h -0.62549 l 0.063,0.9375 c 0.0551,0.8223 0.0461,0.93896 -0.0776,0.93896 -0.0777,0 -0.22316,0.0503 -0.32227,0.11133 -0.14215,0.086 -0.19512,0.087 -0.24902,0 -0.045,-0.0722 -0.37804,-0.11877 -0.97559,-0.13477 -0.88005,-0.0235 -0.90652,-0.0186 -0.86133,0.16113 0.0548,0.21801 -0.16847,0.44076 -0.36621,0.36475 -0.0743,-0.0285 -0.13476,-0.15887 -0.13476,-0.28857 0,-0.1715 -0.0348,-0.22164 -0.14209,-0.18164 -0.0779,0.0299 -0.61024,0.1372 -1.18359,0.2373 -0.57336,0.1001 -1.48415,0.26568 -2.02295,0.36768 -0.51608,0.0975 -0.81502,0.13624 -0.9419,0.12012 z m -23.32471,-2.0171 h 0.4043 c 0.4623,0 0.54137,-0.10053 0.45118,-0.58154 -0.0565,-0.3021 -0.073,-0.31201 -0.45704,-0.31201 h -0.39844 v 0.44678 z m 1.36084,-0.0146 c 0.0589,0.009 0.14982,-0.0195 0.28712,-0.0718 0.32755,-0.1245 0.32755,-0.59474 0,-0.71924 -0.36614,-0.1391 -0.39698,-0.11261 -0.39698,0.35889 0,0.29462 0.0116,0.41665 0.10986,0.43213 z m 18.82764,-1.15723 c 0.17818,0 0.35234,-0.004 0.48047,-0.0132 0.25625,-0.018 0.0236,-0.0322 -0.51709,-0.0322 -0.54061,0.001 -0.75024,0.0152 -0.46582,0.0322 0.14222,0.009 0.32426,0.0132 0.50244,0.0132 z m 10.73291,-0.16846 c 0.14745,0 0.26807,-0.0157 0.26807,-0.0337 0,-0.019 -0.12062,-0.0537 -0.26807,-0.0747 -0.14745,-0.023 -0.26807,-0.006 -0.26807,0.0337 0,0.041 0.12062,0.0747 0.26807,0.0747 z m -10.99218,-1.51904 c 0.0493,0 0.0893,-0.0403 0.0893,-0.0894 0,-0.049 -0.0403,-0.0894 -0.0893,-0.0894 -0.0493,0 -0.0894,0.0404 -0.0894,0.0894 0,0.05 0.0402,0.0894 0.0894,0.0894 z m -0.92579,-0.0117 c 0.40265,0.0107 0.47691,-0.0168 0.61084,-0.22119 0.0843,-0.1282 0.11914,-0.26422 0.0776,-0.30322 v -0.001 c -0.0415,-0.0377 -0.15986,-0.0935 -0.26221,-0.12452 -0.20702,-0.0623 -0.4834,0.17561 -0.4834,0.41602 0,0.0787 -0.0915,0.16064 -0.20214,0.18163 -0.1106,0.023 0.007,0.0427 0.25927,0.0527 z" />
    </g>
  </g>
</svg>
