<?xml version="1.0" encoding="UTF-8" standalone="no"?>
<!-- Created with Inkscape (http://www.inkscape.org/) -->

<svg
   width="19.374865mm"
   height="6.6553807mm"
   viewBox="0 0 19.374865 6.6553807"
   version="1.1"
   id="svg11631"
   sodipodi:docname="inkporter-svg-8dpsaa79.svg"
   xmlns:inkscape="http://www.inkscape.org/namespaces/inkscape"
   xmlns:sodipodi="http://sodipodi.sourceforge.net/DTD/sodipodi-0.dtd"
   xmlns="http://www.w3.org/2000/svg"
   xmlns:svg="http://www.w3.org/2000/svg">
  <sodipodi:namedview
     id="namedview11633"
     pagecolor="#ffffff"
     bordercolor="#666666"
     borderopacity="1.0"
     inkscape:pageshadow="2"
     inkscape:pageopacity="0.0"
     inkscape:pagecheckerboard="0"
     inkscape:document-units="mm"
     showgrid="false"
     inkscape:zoom="1.2810466"
     inkscape:cx="79.622398"
     inkscape:cy="445.339"
     inkscape:window-width="1920"
     inkscape:window-height="1017"
     inkscape:window-x="-8"
     inkscape:window-y="-8"
     inkscape:window-maximized="1"
     inkscape:current-layer="layer1" />
  <defs
     id="defs11628" />
  <g
     inkscape:label="Layer 1"
     inkscape:groupmode="layer"
     id="layer1"
     transform="translate(14.566863,-62.599055)">
    <path
       d="m -13.330213,69.147048 c -0.21711,-0.124534 -0.435063,-0.357456 -0.562987,-0.601652 -0.08959,-0.171013 -0.09751,-0.217276 -0.09749,-0.569542 1.8e-5,-0.322542 0.01185,-0.406908 0.07467,-0.5314 l 0.07464,-0.14799 -0.09261,0.02212 c -0.126828,0.03027 -0.217671,0.07779 -0.310734,0.16256 -0.07548,0.06876 -0.08366,0.06931 -0.20042,0.01365 -0.125617,-0.0599 -0.157134,-0.149242 -0.0799,-0.226483 0.023,-0.02297 0.06614,-0.04202 0.09585,-0.04226 0.09813,-7.06e-4 0.260837,-0.465409 0.280593,-0.80124 0.01887,-0.321186 0.02942,-0.332779 0.239638,-0.263719 0.05884,0.0193 0.07561,0.01559 0.058,-0.01295 -0.01365,-0.02208 -0.0099,-0.05904 0.0083,-0.08216 0.01824,-0.02314 0.04221,-0.104782 0.0533,-0.181465 0.01108,-0.07668 0.05318,-0.327642 0.09355,-0.557689 0.04037,-0.230043 0.08133,-0.465321 0.09102,-0.522831 0.03857,-0.229005 0.16636,-0.324477 0.466948,-0.348868 0.08626,-0.007 0.713662,-0.06024 1.394216,-0.118297 0.680551,-0.05806 1.44689,-0.122319 1.702975,-0.142791 0.6043541,-0.04831 0.8113712,-0.09195 0.7987311,-0.168367 -0.00751,-0.0453 0.014182,-0.05534 0.1012508,-0.04685 0.08225,0.008 0.1204313,-0.0072 0.1482301,-0.05916 0.020602,-0.03847 0.025647,-0.07723 0.011183,-0.08612 -0.014464,-0.0089 -0.020849,-0.103956 -0.014288,-0.211254 0.011007,-0.179543 0.018627,-0.195082 0.095853,-0.195082 0.062957,0 0.084614,-0.01958 0.086713,-0.07842 0.00427,-0.120297 0.2188598,-0.735326 0.2610626,-0.748284 0.053372,-0.01637 0.1892618,0.110003 0.1892618,0.176033 0,0.03059 -0.029563,0.07148 -0.065634,0.09081 -0.072178,0.03862 -0.2341492,0.567503 -0.193795,0.632795 0.012665,0.02053 0.060551,0.02787 0.1063837,0.01633 0.071356,-0.01789 0.083333,-0.0083 0.083333,0.06689 0,0.125952 -0.00963,0.141171 -0.083012,0.130972 -0.036068,-0.005 0.1560724,0.149366 0.4269811,0.343066 0.4429654,0.31671 0.5761249,0.450296 0.448885,0.450296 -0.023989,0 -0.120897,-0.0549 -0.2152721,-0.121991 -0.2074545,-0.1475 -0.2581627,-0.150738 -0.3793525,-0.02424 -0.10408,0.108638 -0.109608,0.134603 -0.057711,0.271114 0.033655,0.08847 0.038936,0.09049 0.082098,0.03147 0.056261,-0.07694 0.1694639,-0.04511 0.1559525,0.04384 -0.017568,0.115602 0.038834,0.256039 0.098598,0.245523 0.047706,-0.0084 0.058522,0.0315 0.066823,0.246599 0.010442,0.270309 0.048553,0.39359 0.048553,0.157007 0,-0.07604 0.014499,-0.153162 0.032173,-0.171372 0.017674,-0.0182 0.037281,-0.08017 0.043568,-0.137679 0.011183,-0.102517 0.015663,-0.104772 0.2292421,-0.114946 l 0.2178473,-0.01041 v -0.142356 c 0,-0.153402 0.1026231,-0.355004 0.2099557,-0.412447 0.035384,-0.01894 0.1689523,-0.0344 0.2968554,-0.0344 0.2065373,0 0.240217,-0.0097 0.3010923,-0.08714 0.037698,-0.04793 0.098774,-0.08714 0.1357242,-0.08714 0.036939,0 0.067183,-0.01566 0.067183,-0.03486 0,-0.01915 0.023495,-0.03485 0.052285,-0.03485 0.036333,0 0.052282,0.03656 0.052282,0.119888 0,0.112409 0.0078,0.120565 0.1254548,0.130708 0.1116154,0.0096 0.1307853,0.02621 0.1737536,0.150244 0.029386,0.08486 0.0485,0.286724 0.048817,0.515849 7.056e-4,0.578443 0.090509,0.679556 0.5676054,0.639855 0.1386134,-0.01157 0.2873163,-0.02138 0.3304504,-0.02191 0.072506,-0.0011 0.078426,-0.01672 0.078426,-0.210097 0,-0.131674 -0.014534,-0.20913 -0.039211,-0.20913 -0.047018,0 -0.014852,-0.19624 0.043684,-0.266809 0.021378,-0.02579 0.076207,-0.04689 0.1217859,-0.04689 0.074884,0 0.082871,-0.01499 0.082871,-0.155639 0,-0.124382 0.021731,-0.180379 0.1081793,-0.278842 0.1054347,-0.120086 0.114681,-0.123205 0.3647546,-0.123205 0.2209059,0 0.2617646,-0.0097 0.2938886,-0.06971 0.021131,-0.03945 0.072979,-0.06972 0.1194893,-0.06972 0.045202,0 0.091595,-0.02455 0.1030923,-0.05449 0.031926,-0.08327 0.091115,-0.02392 0.091115,0.09141 0,0.09246 0.011112,0.10251 0.1135063,0.10251 0.1025419,0 0.1182864,0.01429 0.1629727,0.148135 0.027199,0.08147 0.058498,0.349035 0.069543,0.594575 0.025929,0.576954 0.028822,0.579904 0.5689318,0.581022 l 0.3746994,7.06e-4 v -0.226561 c 0,-0.127808 -0.015205,-0.226565 -0.034854,-0.226565 -0.050754,0 -0.042683,-0.09289 0.018309,-0.210862 0.037169,-0.07184 0.079174,-0.102838 0.1394248,-0.102838 0.076331,0 0.086304,-0.01503 0.086759,-0.130705 3.528e-4,-0.172176 0.061475,-0.285259 0.2055672,-0.382365 0.1038895,-0.07001 0.1608737,-0.07947 0.4787547,-0.07947 h 0.3608246 v -0.08823 c 0,-0.04853 0.02353,-0.09726 0.0522852,-0.108296 0.0399485,-0.01531 0.0522852,-0.08085 0.0522852,-0.277749 v -0.257686 h 1.6207989 1.6207775 v 0.249957 c 0,0.177109 0.015769,0.267395 0.054158,0.309799 0.029774,0.03292 0.056646,0.09297 0.059701,0.133453 0.0054,0.07134 0.021414,0.07361 0.5209575,0.07361 h 0.5154154 v 0.604619 c 0,0.332539 0.01016,0.747593 0.022543,0.922348 0.02099,0.295794 0.027623,0.317225 0.095853,0.310339 0.063045,-0.0063 0.074831,0.01397 0.084236,0.145231 0.010266,0.143535 0.00614,0.151585 -0.069709,0.135192 -0.044358,-0.0096 -0.1052829,-0.02787 -0.1353925,-0.04067 -0.040485,-0.01718 -0.063828,0.0066 -0.089648,0.09137 -0.031221,0.102514 -0.021766,0.134846 0.089595,0.306313 0.1225832,0.188743 0.1268553,0.191537 0.2762708,0.180817 0.1131006,-0.0081 0.1479444,7.05e-4 0.1367437,0.03485 -0.00826,0.02515 -0.061493,0.05042 -0.1182793,0.05613 -0.094051,0.0095 -0.2372677,0.14648 -0.153095,0.14648 0.019332,0 0.035172,0.03921 0.035172,0.08714 0,0.0879 0.047435,0.116523 0.087006,0.0525 0.011748,-0.01909 0.087203,-0.02928 0.1676188,-0.02272 0.1588946,0.01302 0.3984554,-0.05254 0.3766855,-0.103029 -0.026282,-0.06092 0.1553563,-0.118988 0.344304,-0.110077 0.1502164,0.0071 0.193862,0.02215 0.2029743,0.07002 0.010054,0.0528 -0.018027,0.06114 -0.2087951,0.06206 -0.1667298,7.05e-4 -0.2055495,0.0097 -0.1594061,0.0366 0.074627,0.04347 0.080567,0.136631 0.00868,0.136631 -0.068823,0 -0.069328,0.160281 -3.528e-4,0.186658 0.029457,0.01129 0.042834,0.04293 0.03108,0.07352 -0.011289,0.02949 -0.010548,0.09375 0.00176,0.142724 0.017321,0.06906 0.037737,0.08416 0.0909,0.06729 0.088424,-0.02808 0.089408,0.03903 0.00106,0.08621 -0.050793,0.0272 -0.080701,0.02261 -0.1219941,-0.0187 -0.030057,-0.03009 -0.054702,-0.06927 -0.054702,-0.08707 0,-0.01778 -0.053068,-0.03235 -0.1179301,-0.03235 -0.088614,0 -0.1224597,-0.01732 -0.1361581,-0.0697 -0.010478,-0.04006 -0.047544,-0.06971 -0.087136,-0.06971 -0.039599,0 -0.076669,0.02967 -0.08714,0.06971 -0.010019,0.03834 -0.035387,0.0697 -0.056353,0.0697 -0.020955,0 -0.038118,-0.03136 -0.038118,-0.0697 0,-0.03834 -0.019614,-0.06993 -0.043565,-0.07019 -0.023954,-2.65e-4 -0.078864,-0.0099 -0.1219976,-0.02148 -0.076916,-0.02064 -0.078426,-0.01521 -0.078426,0.281375 0,0.192719 -0.012629,0.294584 -0.034854,0.280854 -0.019156,-0.01182 -0.034854,-0.130412 -0.034854,-0.263476 0,-0.191812 -0.010866,-0.241931 -0.052285,-0.241931 -0.037772,0 -0.052282,0.03873 -0.052282,0.139424 v 0.139422 H 3.3139448 c -0.1352374,0 -0.1394248,0.0035 -0.1394248,0.118131 0,0.148756 -0.098231,0.278895 -0.1852966,0.245487 -0.039899,-0.01531 -0.054878,-0.04461 -0.041201,-0.08056 0.013829,-0.03633 0.0097,-0.04404 -0.0115,-0.02166 -0.054038,0.05707 -0.084367,0.191707 -0.043187,0.191707 0.020461,0 0.037204,0.03885 0.037204,0.08634 0,0.09787 -0.1750801,0.24238 -0.2006636,0.165629 -0.00787,-0.02357 -0.030339,-0.04283 -0.049957,-0.04283 -0.019614,0 -0.027305,0.02184 -0.017039,0.04857 0.010231,0.0267 -0.018979,0.08392 -0.064964,0.127109 -0.070436,0.06618 -0.092234,0.07137 -0.1384865,0.03298 -0.030198,-0.02508 -0.046517,-0.06738 -0.036294,-0.09406 0.010231,-0.02671 0.00317,-0.03893 -0.015805,-0.02724 -0.018979,0.01171 -0.034431,0.05644 -0.034431,0.0994 0,0.04296 -0.018803,0.09693 -0.041825,0.119934 -0.066615,0.06662 -0.1947616,0.05035 -0.2195901,-0.02787 -0.027587,-0.08687 -0.1566333,-0.09402 -0.1573812,-0.0087 -7.055e-4,0.0862 -0.039561,0.134938 -0.1298928,0.163128 -0.062572,0.01954 -0.086413,0.0062 -0.1196481,-0.06671 -0.031538,-0.06926 -0.062957,-0.0886 -0.1309934,-0.08069 -0.049212,0.0057 -0.091444,0.03002 -0.093839,0.05398 -0.00212,0.02395 -0.00635,0.0654 -0.00868,0.09207 -0.00212,0.02667 -0.046877,0.05918 -0.098838,0.07222 -0.090639,0.02276 -0.1572965,-0.02212 -0.1932728,-0.130033 -0.00677,-0.02029 -0.058882,-0.02385 -0.1278925,-0.0087 -0.0690139,0.01517 -0.0998926,0.0358 -0.0757908,0.05072 0.0792021,0.04895 3.5277e-4,0.141563 -0.1202055,0.141563 -0.12740922,0 -0.19186172,-0.05993 -0.11607447,-0.107933 0.0310092,-0.01965 -0.0154164,-0.03062 -0.13108164,-0.03094 -0.14938022,-2.65e-4 -0.17831858,0.0096 -0.17427927,0.06046 0.003528,0.04506 -0.0258939,0.06393 -0.11287125,0.07225 -0.13730111,0.01312 -0.22509691,-0.04767 -0.14340769,-0.09931 0.0374685,-0.02371 0.0117475,-0.03298 -0.09227608,-0.03341 -0.11617678,-2.65e-4 -0.1433195,0.01132 -0.1394213,0.06046 0.0035278,0.04512 -0.02592917,0.06394 -0.1134992,0.0723 -0.12323233,0.01175 -0.20930657,-0.05689 -0.13252097,-0.1057 0.0233892,-0.01485 -0.0156986,-0.02678 -0.0889811,-0.02706 -0.10764308,-2.64e-4 -0.13070769,0.01175 -0.13070769,0.06918 0,0.05809 -0.0232481,0.06971 -0.13941778,0.06971 -0.0970492,0 -0.13942483,-0.01503 -0.13942483,-0.04938 0,-0.02716 0.0196144,-0.05729 0.0435716,-0.06696 0.0239183,-0.0097 -0.0133703,-0.0188 -0.0830756,-0.02032 -0.0986437,-0.0021 -0.13067242,0.01266 -0.14487172,0.06696 -0.0143933,0.055 -0.0475403,0.06971 -0.15718361,0.06971 -0.1359394,0 -0.2280956,-0.07942 -0.1357454,-0.116988 0.022895,-0.0093 -0.015487,-0.01817 -0.085224,-0.01968 -0.10033,-0.0021 -0.1258217,0.01 -0.1219905,0.05825 0.00381,0.0478 -0.027235,0.06332 -0.1432983,0.07171 -0.1121305,0.0081 -0.148135,-0.0018 -0.148135,-0.04066 0,-0.02826 0.019615,-0.0593 0.043572,-0.06897 0.023954,-0.0097 -0.021343,-0.0188 -0.1006933,-0.02032 -0.1169388,-0.0021 -0.1433442,0.0088 -0.1394249,0.05824 0.00353,0.04506 -0.025894,0.06393 -0.1128712,0.07225 -0.1373011,0.01312 -0.2250934,-0.04766 -0.1434112,-0.09931 0.037507,-0.02371 0.011747,-0.03302 -0.092273,-0.03341 -0.1161803,-2.64e-4 -0.143316,0.01136 -0.1394178,0.06046 0.00353,0.04512 -0.025929,0.06394 -0.1134991,0.0723 -0.1232324,0.01175 -0.2093066,-0.05689 -0.1325245,-0.105703 0.024447,-0.01556 -0.00176,-0.02674 -0.063168,-0.02706 -0.067553,-2.65e-4 -0.1203925,0.02431 -0.1484313,0.06918 -0.052317,0.08378 -0.268605,0.09803 -0.2986687,0.01969 -0.010583,-0.02755 -3.528e-4,-0.05765 0.022401,-0.06696 0.022895,-0.0093 -0.017216,-0.01817 -0.089098,-0.01968 -0.071886,-0.0014 -0.1288485,0.009 -0.1265766,0.02339 0.014217,0.09005 -0.015205,0.113284 -0.1435524,0.113284 -0.1161803,0 -0.1394177,-0.01161 -0.1394177,-0.06971 0,-0.05422 -0.023248,-0.06971 -0.1045704,-0.06971 -0.05751,0 -0.1027077,0.01175 -0.1004394,0.02614 0.014217,0.09004 -0.015205,0.11328 -0.1435488,0.11328 -0.097046,0 -0.1394213,-0.01503 -0.1394213,-0.04938 0,-0.02716 0.019615,-0.05729 0.043572,-0.06696 0.023954,-0.0097 -0.021343,-0.0188 -0.1006969,-0.02032 -0.1169352,-0.0021 -0.1433442,0.0088 -0.1394213,0.05824 0.00353,0.04507 -0.025894,0.06394 -0.1128712,0.07225 -0.1373011,0.01312 -0.2250934,-0.04766 -0.1434113,-0.09931 0.037507,-0.02371 0.011748,-0.03302 -0.092272,-0.03341 -0.1161803,-2.65e-4 -0.1433195,0.01136 -0.1394213,0.06046 0.00353,0.04507 -0.025894,0.06394 -0.1128713,0.07225 -0.1373046,0.01312 -0.2250933,-0.04766 -0.1434147,-0.09931 0.037511,-0.02371 0.011747,-0.03302 -0.092269,-0.03341 -0.1161839,-2.65e-4 -0.1433195,0.01136 -0.1394213,0.06046 0.00381,0.04641 -0.026388,0.06358 -0.1258676,0.07182 -0.1230313,0.01016 -0.1499235,-0.01111 -0.1348387,-0.106666 0.00212,-0.01439 -0.049026,-0.02614 -0.1139931,-0.02614 -0.091101,0 -0.1170129,0.01397 -0.113277,0.06099 0.00353,0.04512 -0.025929,0.06394 -0.1134956,0.0723 -0.1232323,0.01175 -0.2093101,-0.05689 -0.1325245,-0.105699 0.023389,-0.01485 -0.015699,-0.02678 -0.088981,-0.02702 -0.071885,-2.68e-4 -0.1288485,0.01122 -0.1265766,0.02561 0.013723,0.08684 -0.01524,0.113284 -0.1240649,0.113284 -0.1305595,0 -0.1964655,-0.05938 -0.1198069,-0.107932 0.031397,-0.0199 -0.00797,-0.03062 -0.1136544,-0.03094 -0.1327785,-2.64e-4 -0.1608243,0.01037 -0.156852,0.06046 0.00381,0.04642 -0.026388,0.06359 -0.1258641,0.07182 -0.1230348,0.01016 -0.1499235,-0.01111 -0.1348352,-0.106669 0.00212,-0.01439 -0.041095,-0.02614 -0.096375,-0.02614 -0.071184,0 -0.1058157,0.02032 -0.1187309,0.06971 -0.02607,0.09953 -0.2687426,0.102158 -0.2687426,0.0032 0,-0.03675 0.019614,-0.07471 0.043568,-0.08438 0.023954,-0.0097 -0.024059,-0.0188 -0.1066201,-0.02032 -0.082606,-0.0014 -0.1428185,0.0092 -0.133805,0.02378 0.00903,0.01461 -0.00575,0.05682 -0.032844,0.09385 -0.040375,0.05522 -0.066396,0.06129 -0.1447059,0.03376 -0.052507,-0.01849 -0.1013601,-0.06462 -0.1085603,-0.102567 -0.015028,-0.07931 -0.066255,-0.119976 -0.1520578,-0.120742 -0.035877,-2.61e-4 -0.052712,0.0182 -0.041984,0.04617 0.027658,0.072 -0.071395,0.13353 -0.1736266,0.107873 -0.071296,-0.01789 -0.090473,-0.04407 -0.090473,-0.123494 0,-0.0802 -0.015487,-0.100788 -0.075674,-0.100788 -0.041624,0 -0.1037308,0.02537 -0.1380173,0.05641 -0.092343,0.08357 -0.2394267,0.03781 -0.2394267,-0.07451 0,-0.05811 0.020038,-0.08734 0.060995,-0.08913 0.071942,-0.0032 -0.1548341,-0.09538 -0.2439846,-0.09926 -0.033549,-0.0011 -0.060999,0.02088 -0.060999,0.04963 0,0.08235 -0.1623836,0.06354 -0.2256578,-0.02614 -0.051492,-0.07298 -0.050412,-0.08245 0.015487,-0.13631 0.070256,-0.05744 0.069959,-0.05859 -0.038795,-0.1501 -0.068449,-0.05759 -0.1218989,-0.0799 -0.1423741,-0.05942 -0.097857,0.09786 -0.2857041,-0.118731 -0.196349,-0.226395 0.022648,-0.0273 0.062202,-0.04156 0.087884,-0.03171 0.074457,0.02854 0.052017,-0.02674 -0.03713,-0.09148 -0.066619,-0.04839 -0.1882211,-0.06221 -0.6611521,-0.07511 -0.32724,-0.009 -0.587999,-0.0021 -0.599006,0.01573 -0.01069,0.01732 -0.08601,0.03154 -0.167308,0.03154 h -0.147817 l -0.04162,0.200417 c -0.08018,0.386083 -0.274447,0.667134 -0.6119,0.885243 l -0.207765,0.134284 -0.491285,-2.68e-4 c -0.477287,-2.64e-4 -0.496277,-0.0032 -0.666277,-0.1007 z m 7.8428992,-0.305912 c 0.121405,-0.07162 0.02353,-0.09509 -0.1069551,-0.02565 -0.068795,0.03664 -0.1312898,0.07631 -0.1388675,0.08818 -0.020496,0.0321 0.1657209,-0.01528 0.2458226,-0.06254 z m 0.2791319,0.04433 c -0.05751,-0.02515 -0.111954,-0.03929 -0.1209851,-0.0314 -0.027728,0.02427 0.081971,0.07929 0.1558431,0.07819 0.05285,-7.05e-4 0.044418,-0.0121 -0.034855,-0.0468 z m 2.0738994,-0.02039 0.08714,-0.06777 -0.1307077,0.03954 c -0.071885,0.02177 -0.1307077,0.05259 -0.1307077,0.06855 0,0.0497 0.083312,0.03041 0.1742758,-0.04031 z m 3.9038141,-0.02124 c 0,-0.03292 -0.0965482,-0.01 -0.15890169,0.03777 -0.0618984,0.04739 -0.0580178,0.04859 0.0456212,0.014 0.0623041,-0.02078 0.11328047,-0.0441 0.11328047,-0.05181 z m -7.6951874,-0.01386 c 0.06277,-0.03827 0.096153,-0.06964 0.074189,-0.06971 -0.021943,-4.6e-5 -0.09048,-0.0789 -0.1522589,-0.175165 -0.1287462,-0.200639 -0.1807633,-0.515087 -0.1382501,-0.835773 0.014005,-0.105438 0.023248,-0.194535 0.020638,-0.197985 -0.00282,-0.0035 -0.090858,0.04797 -0.1960386,0.114268 -0.2153285,0.135735 -0.2842718,0.268584 -0.170882,0.329268 0.03671,0.01969 0.066788,0.06526 0.066788,0.101329 0,0.03606 0.019614,0.07478 0.043568,0.08602 0.023954,0.01125 -0.031221,0.01446 -0.1226185,0.0071 -0.1475705,-0.01182 -0.1735597,-0.0032 -0.2319479,0.07901 -0.056755,0.07971 -0.059242,0.101262 -0.018168,0.157456 0.033937,0.04641 0.03762,0.08374 0.012841,0.129998 -0.042464,0.07935 -0.094682,0.08231 -0.1746674,0.0099 -0.053643,-0.04855 -0.071956,-0.04909 -0.156725,-0.0047 -0.1355761,0.07104 -0.1410229,0.22358 -0.00903,0.252575 0.052204,0.01147 0.1261709,0.0041 0.1643768,-0.01633 0.09863,-0.05279 0.1786113,-0.04602 0.1786113,0.01513 0,0.06066 0.260096,0.07596 0.2962734,0.01743 0.032879,-0.05322 0.1468402,-0.0415 0.1694533,0.01739 0.02854,0.07441 0.2082271,0.06537 0.3438207,-0.01729 z m 0.2361177,0.05588 c 0,-0.0075 -0.02353,-0.02272 -0.052285,-0.03376 -0.028751,-0.01104 -0.052282,-0.0049 -0.052282,0.01369 0,0.01856 0.02353,0.03376 0.052282,0.03376 0.028751,0 0.052285,-0.0061 0.052285,-0.01372 z m 2.5907012,-0.0093 c 0.012665,-0.01266 -0.0072,-0.04417 -0.044115,-0.07003 -0.052934,-0.03709 -0.086071,-0.0384 -0.1566298,-0.0062 -0.049227,0.02244 -0.089496,0.05394 -0.089496,0.07004 0,0.0344 0.2565647,0.03992 0.2902409,0.0062 z m 1.4176763,0.0063 c 0,-0.03055 -0.2698397,-0.154944 -0.2907312,-0.134056 -0.053915,0.05392 0.055266,0.150774 0.1699648,0.150774 0.066421,0 0.1207664,-0.0075 0.1207664,-0.01669 z m 1.0195242,-0.03179 c 0.1414498,-0.107382 0.031503,-0.122149 -0.1680527,-0.02258 l -0.1369343,0.06832 0.1219976,2.68e-4 c 0.067095,1.34e-4 0.1494402,-0.02057 0.1829894,-0.04602 z m 0.2526982,0.01365 c -0.095934,-0.04123 -0.1300444,-0.04123 -0.1045633,0 0.011818,0.01916 0.055905,0.03376 0.09791,0.03239 0.073628,-0.0021 0.073868,-0.0035 0.00667,-0.03239 z m 1.15014024,1.41e-4 c 0.0282222,-0.04565 -0.13681075,-0.119824 -0.20681597,-0.09296 -0.0299508,0.0115 -0.0545077,0.04494 -0.0545077,0.0743 0,0.06123 0.22507927,0.07731 0.26132367,0.01866 z m 1.44659346,-0.08643 c 0.1631174,-0.09435 0.1768863,-0.09643 0.2427887,-0.03679 0.073138,0.06619 0.1917312,0.04756 0.2234495,-0.03507 0.012841,-0.03348 -0.00282,-0.05096 -0.045526,-0.05096 -0.035803,0 -0.151324,-0.04537 -0.2567411,-0.100823 L 1.160106,68.454023 1.0203425,68.598411 c -0.10684229,0.110384 -0.13026321,0.154245 -0.0994304,0.186221 0.0549169,0.05696 0.1620696,0.0545 0.2668834,-0.0061 z m -9.5852542,-0.07056 c 0,-0.03485 -0.034854,-0.05228 -0.1045634,-0.05228 -0.1631738,0 -0.122816,0.09431 0.043568,0.101815 0.033549,0.0014 0.060995,-0.02078 0.060995,-0.04953 z m 10.4392128,-0.01739 c 0.02727,-0.04411 -0.018874,-0.04411 -0.08714,0 -0.045057,0.02914 -0.044133,0.03387 0.00667,0.03433 0.03242,2.61e-4 0.068637,-0.01513 0.080483,-0.03433 z m -8.3130283,-0.03485 c 0,-0.01916 -0.014746,-0.03485 -0.032808,-0.03485 -0.018027,0 -0.042492,0.01566 -0.054338,0.03485 -0.011818,0.01916 0.00317,0.03485 0.032808,0.03485 0.02988,0 0.054338,-0.01566 0.054338,-0.03485 z m 0.4182675,0 c 0,-0.01916 -0.015663,-0.03485 -0.034854,-0.03485 -0.019156,0 -0.034854,0.01566 -0.034854,0.03485 0,0.01916 0.015663,0.03485 0.034854,0.03485 0.019156,0 0.034854,-0.01566 0.034854,-0.03485 z m 2.126181,0 c 0,-0.01916 -0.015663,-0.03485 -0.034854,-0.03485 -0.019156,0 -0.034855,0.01566 -0.034855,0.03485 0,0.01916 0.015663,0.03485 0.034855,0.03485 0.019156,0 0.034854,-0.01566 0.034854,-0.03485 z m 0.4182674,0 c 0,-0.01916 -0.015663,-0.03485 -0.034854,-0.03485 -0.019156,0 -0.034854,0.01566 -0.034854,0.03485 0,0.01916 0.015663,0.03485 0.034854,0.03485 0.019156,0 0.034854,-0.01566 0.034854,-0.03485 z m 2.1436118,0 c 0.011818,-0.01916 -0.00317,-0.03485 -0.032808,-0.03485 -0.02988,0 -0.054342,0.01566 -0.054342,0.03485 0,0.01916 0.014746,0.03485 0.032808,0.03485 0.018027,0 0.042492,-0.01566 0.054335,-0.03485 z m 0.41826394,0 c 0.0118181,-0.01916 -0.003175,-0.03485 -0.0328083,-0.03485 -0.0298803,0 -0.0543419,0.01566 -0.0543419,0.03485 0,0.01916 0.0147461,0.03485 0.0328083,0.03485 0.0180269,0 0.0424921,-0.01566 0.0543384,-0.03485 z m 3.44868496,-0.03157 c 0.010724,-0.01743 -0.011889,-0.02339 -0.050229,-0.01341 -0.081386,0.02127 -0.091676,0.04497 -0.019544,0.04497 0.027623,0 0.059016,-0.01422 0.069762,-0.03161 z M -4.9536562,68.41768 c 0.00579,-0.09913 -0.00381,-0.180249 -0.021273,-0.180249 -0.036068,0 -0.2855419,0.227838 -0.2855419,0.26076 0,0.02999 0.2189868,0.121941 0.2614154,0.109756 0.019156,-0.0055 0.039596,-0.09112 0.045395,-0.190267 z m 0.3850992,0.164895 c 0.060374,-0.02106 0.1097668,-0.05486 0.1097668,-0.07514 0,-0.05152 -0.1706703,-0.270009 -0.2109046,-0.270009 -0.018168,0 -0.033055,0.08627 -0.033055,0.191703 0,0.105438 0.0055,0.191703 0.012206,0.191703 0.00674,0 0.061623,-0.01721 0.1219976,-0.03826 z m 2.1662425,-0.172925 c 0,-0.118332 -0.014217,-0.172219 -0.045448,-0.172219 -0.051555,0 -0.289821,0.234037 -0.2642764,0.259581 0.037359,0.03736 0.2586285,0.116438 0.2832347,0.10123 0.01457,-0.009 0.026458,-0.09387 0.026458,-0.188592 z m 0.4685982,0.122866 c 0.065761,-0.04973 0.064276,-0.05485 -0.050405,-0.173168 -0.064996,-0.06705 -0.1307783,-0.121917 -0.1461912,-0.121917 -0.015381,0 -0.028011,0.07842 -0.028011,0.17428 0,0.157822 0.00741,0.174169 0.078423,0.173168 0.043138,-3.53e-4 0.1089166,-0.02417 0.146184,-0.05236 z m 2.09444519,-0.114699 c 3.5278e-4,-0.08291 -0.0128058,-0.159385 -0.0298803,-0.169943 -0.0170744,-0.01058 -0.08819797,0.03849 -0.15802327,0.109015 -0.12415661,0.125395 -0.12541955,0.129353 -0.05726994,0.180132 0.03832225,0.02858 0.1089025,0.04734 0.15684499,0.04173 0.07776634,-0.0091 0.08729839,-0.02642 0.08834261,-0.16093 z m 0.43681649,0.132087 c 0.0370911,-0.01983 0.0674229,-0.05001 0.0674229,-0.06703 0,-0.04096 -0.20550716,-0.245445 -0.2466728,-0.245445 -0.0177094,0 -0.0321733,0.07842 -0.0321733,0.17428 0,0.152886 0.008855,0.174272 0.0720055,0.174272 0.0395993,0 0.10234083,-0.01623 0.13941777,-0.03606 z M -12.773145,68.402993 c -0.03975,-0.185321 -0.07218,-0.202035 -0.241924,-0.124703 -0.112,0.05103 -0.0995,0.09213 0.05286,0.173845 0.178431,0.09569 0.217925,0.08543 0.189064,-0.04914 z m 0.390963,0.03973 c 0.136228,-0.0842 0.135466,-0.134825 -0.0028,-0.180894 -0.113386,-0.03777 -0.143446,-0.01316 -0.172282,0.141167 -0.02519,0.134807 0.0087,0.142501 0.175016,0.03973 z m 5.7623563,0.0039 c 0,-0.01916 -0.015663,-0.03485 -0.034854,-0.03485 -0.019156,0 -0.034854,0.01566 -0.034854,0.03485 0,0.01916 0.015663,0.03485 0.034854,0.03485 0.019156,0 0.034854,-0.01566 0.034854,-0.03485 z m 0.6207972,-0.150491 c -0.013653,-0.09579 -0.1600059,-0.104609 -0.2161646,-0.01305 -0.030833,0.05031 -0.025365,0.07291 0.027164,0.111933 0.089189,0.06625 0.2039691,0.0062 0.1890042,-0.09891 z m 2.5336217,0.01108 c 0,-0.06388 -0.02099,-0.09012 -0.078581,-0.0983 -0.047135,-0.0067 -0.086988,0.01072 -0.099582,0.04357 -0.034713,0.09044 0.013899,0.165184 0.099582,0.153021 0.057605,-0.0082 0.078581,-0.03443 0.078581,-0.09829 z m 2.54444849,0 c 0,-0.06388 -0.0209903,-0.09012 -0.0785812,-0.0983 -0.0471311,-0.0067 -0.0869844,0.01072 -0.0995821,0.04357 -0.034713,0.09044 0.013935,0.165184 0.0995821,0.153021 0.0576086,-0.0082 0.0785812,-0.03443 0.0785812,-0.09829 z M 1.7718191,68.153153 c -0.00713,-0.09994 -0.023248,-0.124686 -0.081047,-0.124743 -0.069381,-9.1e-5 -0.2241303,0.141891 -0.2241303,0.205603 0,0.01693 0.058815,0.05446 0.1307077,0.0833 0.1552258,0.06228 0.1884222,0.03104 0.1744698,-0.164158 z m 0.4077194,0.148438 c 0.048831,-0.02226 0.088776,-0.05653 0.088776,-0.07618 0,-0.0612 -0.1483677,-0.197069 -0.215205,-0.197069 -0.052183,0 -0.063638,0.02822 -0.063638,0.156845 0,0.17071 0.030233,0.189227 0.1900661,0.116403 z M 0.92252426,68.217521 C 0.9637146,68.110195 0.88126338,68.028343 0.7319643,68.028343 H 0.59228194 l 0.097342,0.121991 c 0.10357555,0.129812 0.19837752,0.157159 0.23290035,0.06719 z m -7.26350726,-0.0963 c 0,-0.111248 -0.1923909,-0.177076 -0.230124,-0.07874 -0.010301,0.02695 0.00857,0.08095 0.04198,0.119994 0.046471,0.05428 0.075784,0.06296 0.1244635,0.0369 0.034996,-0.01873 0.06368,-0.05392 0.06368,-0.07816 z m 1.0263963,-0.02614 c -0.011183,-0.01817 -0.035278,-0.02385 -0.053418,-0.01259 -0.018168,0.01122 -0.023848,0.03528 -0.012594,0.05342 0.011218,0.01817 0.035278,0.02385 0.053425,0.01259 0.018168,-0.01122 0.023848,-0.03528 0.012594,-0.05342 z m 1.0649302,0.0032 c 0,-0.01915 -0.02353,-0.03485 -0.052282,-0.03485 -0.028751,0 -0.052285,0.01566 -0.052285,0.03485 0,0.01916 0.02353,0.03486 0.052285,0.03486 0.028751,0 0.052282,-0.01566 0.052282,-0.03486 z m -6.7810975,-0.247297 c -0.04256,-0.08229 -0.07504,-0.101258 -0.173461,-0.101258 -0.113383,0 -0.121105,0.0072 -0.121119,0.113281 l -2.5e-5,0.113284 0.173486,-0.01203 0.173482,-0.01203 z m 4.6343566,-0.09619 c 0.010125,-0.01637 -0.019897,-0.06579 -0.066746,-0.109788 -0.075015,-0.07047 -0.087785,-0.07315 -0.1072198,-0.02251 -0.012136,0.03164 -0.013053,0.08103 -0.00212,0.109788 0.021484,0.056 0.1454643,0.07185 0.175962,0.02251 z m -3.4626937,-0.145719 c 0.043378,-0.02321 0.067416,-0.07292 0.067416,-0.139417 0,-0.09487 -0.010019,-0.103339 -0.1219976,-0.103339 -0.1190873,0 -0.1219903,0.0035 -0.1219903,0.139417 0,0.148883 0.043695,0.174452 0.1765719,0.103339 z m 3.6731645,-1.161711 c 0.048913,-0.04533 0.088925,-0.09631 0.088914,-0.11328 -1.77e-5,-0.02671 -0.1716123,-0.03762 -0.3049694,-0.0194 -0.055464,0.0076 -0.056578,0.11842 -0.00176,0.173263 0.061944,0.06194 0.1185403,0.05139 0.2177979,-0.0406 z m 3.4290881,-0.02215 c 0.1369836,0 0.1802447,-0.01256 0.1802447,-0.05228 0,-0.04181 -0.052148,-0.05229 -0.2601877,-0.05229 -0.2215691,0 -0.2655464,0.01002 -0.2962769,0.06742 -0.048218,0.09011 -0.046203,0.09945 0.024906,0.115584 0.033549,0.0076 0.08576,-0.0069 0.1160251,-0.03231 0.030268,-0.02536 0.1361334,-0.04614 0.2352746,-0.04614 z m 2.38983654,0.01457 c 0.0536399,-0.139781 0.03048,-0.154001 -0.2507121,-0.154001 -0.16498711,0 -0.28832175,0.01644 -0.31370058,0.04183 -0.0795585,0.07955 -0.042672,0.107181 0.11435644,0.08566 0.11357681,-0.01559 0.16824678,-0.0077 0.20042011,0.02879 0.060004,0.06809 0.22320602,0.0666 0.24963613,-0.0021 z m 1.03197023,-0.06687 c 0.0238478,-0.02875 0.0336197,-0.05424 0.0216958,-0.05664 -0.0826841,-0.01662 -0.11401424,-0.01348 -0.15240705,0.01521 -0.0239536,0.01789 -0.0435681,0.04631 -0.0435681,0.06314 0,0.05042 0.12761735,0.0345 0.1742828,-0.0217 z M -8.1717868,65.311757 c -0.085968,-0.171464 -0.1719192,-0.321398 -0.1909903,-0.333184 -0.019085,-0.01178 -0.034678,-0.04888 -0.034678,-0.08242 0,-0.03359 -0.021766,-0.09078 -0.048391,-0.12718 -0.045999,-0.06291 -0.052035,-0.06022 -0.1218671,0.05433 -0.047784,0.07839 -0.073512,0.179201 -0.0736,0.288372 -4.59e-5,0.09232 -0.016193,0.197834 -0.035765,0.234473 -0.045583,0.08518 0.01845,0.194917 0.1397987,0.239611 0.048161,0.01774 0.1852648,0.03348 0.3046907,0.035 l 0.2171312,0.0028 z m 0.1600694,-0.174791 c -0.021696,-0.01337 -0.067927,-0.09953 -0.1028136,-0.191435 -0.050066,-0.1319 -0.067338,-0.152139 -0.082,-0.09609 -0.011289,0.04323 0.023566,0.143774 0.089073,0.256974 0.080582,0.139213 0.1110968,0.169488 0.1213873,0.120427 0.00755,-0.03603 -0.00399,-0.07649 -0.025647,-0.08988 z m 0.8231575,-0.391371 c -0.011113,-0.0278 -0.019403,-0.01958 -0.021061,0.0211 -0.00141,0.03675 0.00674,0.05733 0.018309,0.04575 0.011571,-0.01157 0.012806,-0.04165 0.00282,-0.06681 z m 1.2547988,0 c -0.011113,-0.0278 -0.019368,-0.01958 -0.021061,0.0211 -0.00141,0.03675 0.00674,0.05733 0.018309,0.04575 0.011571,-0.01157 0.012806,-0.04165 0.00282,-0.06681 z m 1.3593586,0 c -0.011113,-0.0278 -0.019368,-0.01958 -0.021061,0.0211 -0.00141,0.03675 0.00674,0.05733 0.018309,0.04575 0.011571,-0.01157 0.012806,-0.04165 0.00282,-0.06681 z m 1.2199443,0 c -0.011113,-0.0278 -0.019403,-0.01958 -0.021061,0.0211 -0.00141,0.03675 0.0067,0.05733 0.018309,0.04575 0.011571,-0.01157 0.012806,-0.04165 0.00282,-0.06681 z m 1.3593657,0 c -0.011113,-0.0278 -0.019368,-0.01958 -0.021061,0.0211 -0.00141,0.03675 0.00674,0.05733 0.018309,0.04575 0.011571,-0.01157 0.012806,-0.04165 0.00282,-0.06681 z M -8.5788324,64.54141 c 0.037733,-0.06045 0.034361,-0.08421 -0.02226,-0.156181 l -0.066774,-0.08489 -0.020708,0.103519 c -0.020849,0.104324 2.681e-4,0.208841 0.04246,0.208841 0.012524,0 0.042774,-0.0321 0.067264,-0.07129 z m 0.2162281,-0.419205 c 0,-0.06585 -0.035613,-0.12094 -0.1196657,-0.185043 -0.1452422,-0.110783 -0.1479762,-0.111026 -0.1445154,-0.01288 0.00141,0.04314 0.038061,0.09853 0.081192,0.123112 0.043134,0.02459 0.078426,0.06771 0.078426,0.09585 0,0.06071 -0.01711,0.06312 -0.1068564,0.0151 -0.1209393,-0.06472 -0.068023,0.06465 0.054575,0.133431 0.08642,0.04848 0.156845,-0.02766 0.156845,-0.169587 z m 10.6895863,0.0657 c -0.011113,-0.0278 -0.019403,-0.01954 -0.021096,0.02106 -0.00141,0.03675 0.00674,0.05733 0.018309,0.04575 0.011571,-0.01157 0.012806,-0.04165 0.00282,-0.06681 z m -2.27483811,-0.0146 c 0.03030361,-0.01164 0.05513211,-0.05085 0.05513211,-0.08714 0,-0.06148 -0.03206749,-0.06598 -0.47054557,-0.06598 -0.2904631,0 -0.47055263,0.0133 -0.47055263,0.03486 0,0.01915 0.0282222,0.03485 0.0627415,0.03485 0.0345017,0 0.077657,0.01492 0.0958921,0.03316 0.0182386,0.01824 0.15077722,0.03865 0.29453064,0.04536 0.14375694,0.0067 0.2875421,0.01531 0.3195214,0.01916 0.03196167,0.0038 0.0829557,-0.0028 0.11328047,-0.01425 z m 1.06594271,-0.06553 v -0.08759 H 0.66496827 0.21184639 v 0.08439 0.0844 l 0.45312188,0.0032 0.45311833,0.0032 z m 1.0742295,-0.0092 c 0.011112,-0.07814 0.00938,-0.07843 -0.4792627,-0.07843 H 1.2226535 v 0.08451 0.08451 l 0.4792627,-0.0061 c 0.4683654,-0.006 0.4795167,-0.0079 0.4903999,-0.08451 z m -10.9034754,0.01076 c 0,-0.0085 -0.015663,-0.02508 -0.034854,-0.0369 -0.019156,-0.01182 -0.034854,-0.0049 -0.034854,0.01538 0,0.02029 0.015663,0.03691 0.034854,0.03691 0.019156,0 0.034854,-0.007 0.034854,-0.01542 z M 0.107276,63.793603 V 63.671609 H -0.36326957 -0.8338222 v 0.121994 0.121994 H -0.36326957 0.107276 Z m 1.0108106,0 V 63.671609 H 0.66496827 0.21184639 v 0.121994 0.121994 H 0.66496827 1.1180866 Z m 1.0456651,0 V 63.671609 H 1.6931991 1.2226535 v 0.121994 0.121994 h 0.4705456 0.4705526 z"
       id="G-Softskin-gun"
       style="stroke-width:0.352778" />
  </g>
</svg>
