<?xml version="1.0" encoding="UTF-8" standalone="no"?>
<!-- Created with Inkscape (http://www.inkscape.org/) -->

<svg
   width="18.800234mm"
   height="6.7927361mm"
   viewBox="0 0 18.800234 6.7927361"
   version="1.1"
   id="svg5369"
   sodipodi:docname="inkporter-svg-3uq7fhk4.svg"
   xmlns:inkscape="http://www.inkscape.org/namespaces/inkscape"
   xmlns:sodipodi="http://sodipodi.sourceforge.net/DTD/sodipodi-0.dtd"
   xmlns="http://www.w3.org/2000/svg"
   xmlns:svg="http://www.w3.org/2000/svg">
  <sodipodi:namedview
     id="namedview5371"
     pagecolor="#ffffff"
     bordercolor="#666666"
     borderopacity="1.0"
     inkscape:pageshadow="2"
     inkscape:pageopacity="0.0"
     inkscape:pagecheckerboard="0"
     inkscape:document-units="mm"
     showgrid="false"
     inkscape:zoom="0.64052329"
     inkscape:cx="397.33138"
     inkscape:cy="561.25984"
     inkscape:window-width="1920"
     inkscape:window-height="1017"
     inkscape:window-x="-8"
     inkscape:window-y="-8"
     inkscape:window-maximized="1"
     inkscape:current-layer="layer1" />
  <defs
     id="defs5366" />
  <g
     inkscape:label="Layer 1"
     inkscape:groupmode="layer"
     id="layer1"
     transform="translate(-107.80573,-135.44208)">
    <g
       id="G-StuGIIIShort"
       transform="matrix(0.35277777,0,0,-0.35277777,126.02776,137.65823)">
      <path
         d="m 0,0 v -0.25 l -0.705,-0.768 h -0.362 v 0.384 h -0.572 l -0.19,0.346 h 0.267 V 0.615 H -2.134 V 0.384 l -6.402,1.46 -1.638,0.096 -0.21,0.308 h -1.505 l -0.248,-0.327 -3.067,0.096 v 0.212 h -0.877 v 0.269 h -0.476 V 2.209 h -2.362 l 1.39,2.633 -6.859,0.979 h -1.734 v 0.461 l -1.676,-0.365 h -5.735 l -0.153,-0.461 -1.47,-0.247 v 0.096 h -0.495 V 5.126 l -1.922,-0.323 -1.263,-1.238 h -0.762 v 0.066 h -0.198 V 3.565 h -0.539 V 3.477 h -0.362 L -40.983,3.17 V 3.074 L -41.04,3.016 h -2.268 c 0,0 -0.247,-0.192 -0.304,-0.211 -0.057,-0.019 -2.039,-0.096 -2.039,-0.096 V 1.691 l 2.039,-0.154 0.266,-0.25 c 0,0 2.287,0.019 2.344,0 0.057,-0.019 0.171,-0.269 0.21,-0.326 0.038,-0.058 -0.725,-0.058 -0.725,-0.058 l -0.247,0.038 c 0,0 -0.286,-0.422 -0.324,-0.557 -0.038,-0.134 0.095,-0.519 0.095,-0.519 l -1.505,-0.052 v 0.68 l 0.286,-0.013 c 0,0 0.057,0.077 -0.077,0.404 -0.133,0.326 -0.648,0.25 -1.295,0.096 -0.648,-0.154 -0.8,-0.404 -0.8,-0.404 l 0.743,-0.033 v -0.771 l -1.182,-0.041 v -0.519 h -2.934 v 0.308 l -0.972,0.634 v -1.595 l -1.714,-1.537 0.495,-0.423 h 0.648 v -0.153 h -0.933 c 0,0 -0.42,-0.192 -0.42,-0.577 0,-0.384 0.401,-0.384 0.401,-0.384 v -1.114 c 0,-0.096 0.342,-0.173 0.342,0.077 v 1.095 c 0,0.104 0.695,0.047 1.01,0.016 -0.108,-0.202 -0.205,-0.43 -0.285,-0.686 l -0.228,0.048 -0.103,-0.496 0.212,-0.045 c -0.043,-0.232 -0.069,-0.484 -0.076,-0.758 l -0.197,-0.012 0.032,-0.506 0.185,0.012 c 0.027,-0.233 0.081,-0.456 0.154,-0.668 v -0.003 l -0.147,-0.054 0.172,-0.476 0.174,0.064 c 0.086,-0.168 0.182,-0.329 0.287,-0.48 l 0.095,-0.228 -0.113,-0.099 0.33,-0.383 0.156,0.137 c 0.164,-0.174 0.333,-0.331 0.5,-0.468 l -0.071,-0.098 0.405,-0.3 0.069,0.095 c 0.256,-0.175 0.486,-0.298 0.649,-0.362 0.023,-0.009 0.054,-0.021 0.09,-0.034 l -0.042,-0.122 0.475,-0.166 0.037,0.111 c 0.177,-0.066 0.384,-0.144 0.615,-0.229 l -0.041,-0.12 0.475,-0.165 0.037,0.11 c 0.212,-0.079 0.435,-0.162 0.665,-0.247 l -0.034,-0.101 0.475,-0.166 0.031,0.092 c 0.206,-0.076 0.415,-0.153 0.624,-0.23 l -0.035,-0.1 0.475,-0.165 0.032,0.09 c 0.204,-0.075 0.406,-0.15 0.604,-0.223 0.023,-0.009 0.047,-0.017 0.07,-0.026 l -0.038,-0.108 0.476,-0.165 0.034,0.099 c 0.246,-0.091 0.475,-0.176 0.677,-0.251 l -0.041,-0.149 0.485,-0.134 0.03,0.108 c 0.186,-0.07 0.308,-0.115 0.34,-0.127 0.078,-0.031 0.195,-0.064 0.333,-0.097 l -0.016,-0.057 0.485,-0.135 0.026,0.093 c 0.293,-0.049 0.594,-0.084 0.804,-0.084 h 0.012 v -0.067 h 0.502 v 0.067 h 0.736 v -0.067 h 0.503 v 0.067 h 0.697 v -0.067 h 0.503 v 0.067 h 0.736 v -0.067 h 0.503 v 0.067 h 0.735 v -0.067 h 0.503 v 0.067 h 0.736 v -0.067 h 0.503 v 0.067 h 0.678 v -0.067 h 0.503 v 0.067 h 0.736 v -0.067 h 0.503 v 0.067 h 0.697 v -0.067 h 0.503 v 0.067 h 0.736 v -0.067 h 0.502 v 0.067 h 0.736 v -0.067 h 0.503 v 0.067 h 0.735 v -0.067 h 0.503 v 0.067 h 0.631 v -0.067 h 0.503 v 0.067 h 0.735 v -0.067 h 0.503 v 0.067 h 0.688 v -0.067 h 0.503 v 0.067 h 0.736 v -0.067 h 0.502 v 0.067 h 0.688 v -0.067 h 0.503 v 0.067 h 0.736 v -0.067 h 0.503 v 0.067 h 0.726 v -0.067 h 0.503 v 0.067 h 0.735 v -0.067 h 0.503 v 0.067 h 0.602 v -0.067 h 0.503 v 0.067 h 0.736 v -0.067 h 0.503 v 0.067 h 0.659 v -0.067 h 0.503 v 0.067 h 0.736 v -0.067 h 0.503 v 0.074 c 0.352,0.013 0.568,0.048 0.816,0.121 l 0.091,-0.196 0.455,0.215 -0.073,0.159 c 0.165,0.075 0.393,0.184 0.665,0.317 l 0.075,-0.163 0.455,0.215 -0.078,0.17 c 0.215,0.107 0.448,0.223 0.69,0.345 l 0.04,-0.086 0.455,0.215 -0.045,0.098 c 0.215,0.109 0.435,0.221 0.657,0.335 l 0.055,-0.12 0.455,0.215 -0.062,0.135 c 0.24,0.123 0.477,0.246 0.709,0.367 l 0.043,-0.092 0.456,0.214 -0.052,0.112 c 0.229,0.121 0.448,0.237 0.652,0.346 l 0.066,-0.144 0.456,0.215 -0.079,0.169 c 0.24,0.131 0.443,0.245 0.6,0.336 l 0.126,-0.167 0.4,0.307 -0.105,0.139 c 0.146,0.111 0.319,0.257 0.498,0.438 l 0.108,-0.099 0.339,0.374 -0.11,0.102 c 0.157,0.197 0.309,0.421 0.441,0.673 l 0.144,-0.057 0.184,0.472 -0.122,0.048 c 0.087,0.234 0.154,0.486 0.195,0.758 l 0.189,-0.004 0.01,0.507 -0.158,0.003 c 10e-4,0.024 0.002,0.048 0.002,0.072 0,0.303 -0.029,0.578 -0.077,0.826 l 0.175,0.058 -0.158,0.481 -0.143,-0.047 c -0.076,0.232 -0.166,0.432 -0.257,0.599 l 0.207,0.209 1.124,0.288 0.229,-0.365 0.839,0.25 v 0.922 H 1.639 V 0 Z m -4.884,-9.519 -0.228,0.216 c 0.226,0.021 0.446,0.065 0.658,0.128 -0.002,-0.037 -0.004,-0.076 -0.005,-0.115 -0.131,-0.071 -0.273,-0.148 -0.425,-0.229 m -1.16,-0.61 -0.245,0.231 c 0,0 -0.101,0.104 -0.288,0.016 -0.188,-0.088 -0.136,-0.242 -0.136,-0.242 0,0 -0.008,-0.195 -0.015,-0.357 -0.135,-0.07 -0.27,-0.139 -0.405,-0.207 l -0.278,0.262 c 0,0 -0.101,0.104 -0.288,0.016 -0.188,-0.089 -0.136,-0.242 -0.136,-0.242 0,0 -0.01,-0.233 -0.017,-0.401 -0.152,-0.077 -0.301,-0.152 -0.446,-0.225 l -0.22,0.208 c 0,0 -0.101,0.104 -0.288,0.016 -0.188,-0.088 -0.136,-0.242 -0.136,-0.242 0,0 -0.007,-0.159 -0.013,-0.309 -0.159,-0.079 -0.309,-0.153 -0.445,-0.22 l -0.166,0.157 c 0.38,0.439 0.611,1.014 0.611,1.643 0,0.212 -0.026,0.418 -0.075,0.614 1.181,0.01 1.869,0.016 1.866,0.016 -0.01,0 0.286,0.141 0.578,0.267 0.336,-0.116 0.694,-0.182 1.067,-0.19 -0.081,-0.084 -0.049,-0.181 -0.049,-0.181 0,0 -0.009,-0.223 -0.016,-0.39 -0.15,-0.078 -0.304,-0.159 -0.46,-0.24 m -7.953,-2.257 -0.155,0.388 c 0.173,-0.136 0.364,-0.249 0.569,-0.335 -0.01,-0.019 -0.019,-0.036 -0.027,-0.053 z m -6.002,0 -0.168,0.422 c 0,0 -0.047,0.137 -0.254,0.137 -0.207,0 -0.225,-0.161 -0.225,-0.161 0,0 -0.128,-0.249 -0.205,-0.398 h -0.386 l -0.036,0.089 c 0.429,0.198 0.792,0.516 1.046,0.912 0.186,-0.287 0.427,-0.533 0.71,-0.723 -0.043,-0.084 -0.101,-0.196 -0.143,-0.278 z m -4.801,0 -0.168,0.422 c 0,0 -0.006,0.015 -0.02,0.035 0.159,-0.137 0.336,-0.254 0.526,-0.347 -0.02,-0.039 -0.039,-0.077 -0.056,-0.11 z m -1.239,0 -0.168,0.422 c 0,0 -0.008,0.023 -0.032,0.051 0.258,0.224 0.468,0.501 0.616,0.815 0.138,-0.291 0.33,-0.552 0.563,-0.767 -0.038,0.021 -0.09,0.038 -0.163,0.038 -0.207,0 -0.224,-0.161 -0.224,-0.161 0,0 -0.128,-0.249 -0.205,-0.398 z m -4.916,0 -0.168,0.422 c 0,0 -0.047,0.137 -0.254,0.137 -0.207,0 -0.225,-0.161 -0.225,-0.161 0,0 -0.127,-0.249 -0.204,-0.398 h -0.33 l -0.044,0.11 c 0.456,0.222 0.833,0.581 1.081,1.024 0.176,-0.314 0.417,-0.586 0.705,-0.796 -0.043,-0.083 -0.12,-0.234 -0.173,-0.338 z m -4.896,0 -0.168,0.422 c 0,0 -0.047,0.137 -0.254,0.137 -0.207,0 -0.225,-0.161 -0.225,-0.161 0,0 -0.128,-0.249 -0.205,-0.398 h -0.348 l -0.168,0.422 c 0,0 -0.003,0.007 -0.009,0.018 0.274,0.23 0.498,0.519 0.653,0.848 0.243,-0.515 0.657,-0.933 1.166,-1.18 -0.02,-0.039 -0.039,-0.075 -0.055,-0.108 z m -5.963,0.548 -0.013,0.252 c 0.111,-0.139 0.235,-0.266 0.372,-0.378 -0.002,-0.002 -0.003,-0.004 -0.005,-0.006 -0.104,0.039 -0.223,0.083 -0.354,0.132 m -1.143,0.422 -0.022,0.439 c 0,0 0,0.145 -0.195,0.213 -0.196,0.068 -0.265,-0.078 -0.265,-0.078 0,0 -0.176,-0.169 -0.298,-0.285 -0.104,0.038 -0.21,0.077 -0.316,0.116 l -0.021,0.437 c 0,0 0,0.146 -0.196,0.214 -0.196,0.068 -0.265,-0.079 -0.265,-0.079 0,0 -0.174,-0.167 -0.296,-0.284 -0.123,0.046 -0.245,0.091 -0.366,0.136 l -0.02,0.417 c 0,0 -0.001,0.084 -0.087,0.154 l 0.048,0.059 0.358,0.13 0.342,-0.202 c 0,0 0.201,0.014 0.215,0.058 0.014,0.043 0.043,0.432 0.043,0.432 l 0.357,0.303 0.386,-0.173 0.128,0.086 c 0,0 0.157,-0.317 0.586,-0.389 0.172,-0.029 0.342,-0.034 0.487,-0.031 -0.011,-0.093 -0.017,-0.187 -0.017,-0.282 0,-0.418 0.102,-0.811 0.282,-1.157 -0.151,0.024 -0.207,-0.092 -0.207,-0.092 0,0 -0.169,-0.162 -0.29,-0.279 -0.12,0.044 -0.244,0.09 -0.371,0.137 m -3.326,1.232 -0.008,0.169 0.278,0.015 0.16,-0.203 c -0.035,-0.034 -0.072,-0.069 -0.106,-0.102 -0.112,0.042 -0.22,0.082 -0.324,0.121 m -1.965,1.635 c -0.473,0.425 -0.813,0.998 -0.945,1.647 h 1.064 c 0.086,-0.27 0.228,-0.514 0.412,-0.72 -0.219,-0.382 -0.405,-0.706 -0.531,-0.927 m -0.867,2.857 h -0.078 c 0.007,0.036 0.016,0.072 0.025,0.108 0.019,-0.04 0.038,-0.076 0.053,-0.108 m -0.731,-1.119 c -0.001,0 -0.003,0.001 -0.004,0.002 -0.005,0.043 -0.01,0.087 -0.013,0.132 0.005,-0.045 0.011,-0.09 0.017,-0.134 m 3.168,-1.416 c 0.134,-0.029 0.271,-0.044 0.412,-0.044 0.142,0 0.28,0.015 0.412,0.044 0.22,-0.383 0.406,-0.708 0.532,-0.928 -0.297,-0.1 -0.614,-0.155 -0.944,-0.155 -0.329,0 -0.646,0.055 -0.943,0.155 0.126,0.22 0.312,0.545 0.531,0.928 m -0.753,-1.528 10e-4,0.005 c 0.138,-0.047 0.278,-0.086 0.421,-0.116 -0.012,-0.012 -0.024,-0.024 -0.035,-0.035 -0.165,0.062 -0.297,0.112 -0.387,0.146 m 9.43,-2.631 c 0.041,0.014 0.082,0.03 0.122,0.046 -0.009,-0.016 -0.017,-0.031 -0.024,-0.046 z m 10.952,0 c 0.068,0.024 0.134,0.05 0.199,0.08 -0.014,-0.029 -0.028,-0.055 -0.04,-0.08 z m 10.912,0 c 0.079,0.028 0.157,0.059 0.231,0.094 -0.017,-0.033 -0.033,-0.065 -0.048,-0.094 z m 1.035,0 -0.169,0.422 c 0,0 -0.01,0.03 -0.042,0.062 0.208,0.185 0.385,0.404 0.523,0.65 0.121,-0.217 0.273,-0.413 0.451,-0.583 -0.024,0.005 -0.051,0.008 -0.08,0.008 -0.207,0 -0.226,-0.161 -0.226,-0.161 0,0 -0.127,-0.249 -0.204,-0.398 z m 4.863,0.168 c -0.004,-10e-4 -0.007,-0.002 -0.011,-0.004 0.06,0.033 0.117,0.069 0.173,0.106 0,-0.011 -10e-4,-0.022 -10e-4,-0.033 -0.079,-0.036 -0.135,-0.06 -0.161,-0.069 m 6.406,3.295 c 0.067,0.036 0.134,0.072 0.199,0.112 -0.047,-0.032 -0.111,-0.072 -0.191,-0.12 z"
         id="path171392-0-7" />
    </g>
  </g>
</svg>
