<?xml version="1.0" encoding="UTF-8" standalone="no"?>
<!-- Created with Inkscape (http://www.inkscape.org/) -->

<svg
   width="18.799841mm"
   height="6.7944999mm"
   viewBox="0 0 18.799841 6.7945003"
   version="1.1"
   id="svg33402"
   sodipodi:docname="inkporter-svg-e7qp_36f.svg"
   inkscape:version="1.1.1 (3bf5ae0d25, 2021-09-20)"
   xmlns:inkscape="http://www.inkscape.org/namespaces/inkscape"
   xmlns:sodipodi="http://sodipodi.sourceforge.net/DTD/sodipodi-0.dtd"
   xmlns="http://www.w3.org/2000/svg"
   xmlns:svg="http://www.w3.org/2000/svg">
  <sodipodi:namedview
     id="namedview555"
     pagecolor="#ffffff"
     bordercolor="#666666"
     borderopacity="1.0"
     inkscape:pageshadow="2"
     inkscape:pageopacity="0.0"
     inkscape:pagecheckerboard="0"
     inkscape:document-units="mm"
     showgrid="false"
     inkscape:zoom="0.32"
     inkscape:cx="889.0625"
     inkscape:cy="4120.3125"
     inkscape:window-width="1920"
     inkscape:window-height="1017"
     inkscape:window-x="-8"
     inkscape:window-y="-8"
     inkscape:window-maximized="1"
     inkscape:current-layer="svg33402" />
  <defs
     id="defs13927" />
  <path
     d="m 18.22203,2.2164 v 0.088 l -0.2487,0.2709 H 17.84562 V 2.4399 h -0.20179 l -0.067,-0.1221 h 0.0942 V 1.9993 h -0.20179 v 0.082 L 15.21075,1.5662 14.6329,1.5322 14.5588,1.4235 H 14.02787 L 13.94037,1.5389 12.8584,1.5049 V 1.4299 H 12.54902 V 1.3349 H 12.38109 V 1.4368 H 11.54783 L 12.03819,0.508 9.61849,0.1626 H 9.00677 V 0 L 8.41552,0.1287 H 6.39234 l -0.054,0.1627 -0.51858,0.087 V 0.3444 H 5.64513 v 0.063 L 4.9671,0.5213 4.52154,0.9581 H 4.25272 v -0.023 h -0.0698 v 0.023 H 3.99277 v 0.031 h -0.1277 l -0.1009,0.1083 v 0.034 l -0.0201,0.021 h -0.8001 c 0,0 -0.0871,0.068 -0.10724,0.074 -0.0201,0.01 -0.71931,0.034 -0.71931,0.034 v 0.3592 l 0.71931,0.054 0.0938,0.088 c 0,0 0.8068,-0.01 0.82691,0 0.0201,0.01 0.0603,0.095 0.0741,0.115 0.0134,0.021 -0.25576,0.021 -0.25576,0.021 l -0.0871,-0.013 c 0,0 -0.10089,0.1489 -0.1143,0.1965 -0.0134,0.047 0.0335,0.1831 0.0335,0.1831 L 2.87695,2.2822 V 2.0423 l 0.10089,0.01 c 0,0 0.0201,-0.027 -0.0272,-0.1425 -0.0469,-0.115 -0.2286,-0.088 -0.45685,-0.034 -0.2286,0.054 -0.28222,0.1425 -0.28222,0.1425 l 0.26211,0.012 v 0.272 L 2.0567,2.3163 V 2.4994 H 1.02165 V 2.3907 L 0.67875,2.1671 V 2.7298 L 0.07409,3.272 0.24871,3.4212 h 0.2286 v 0.054 H 0.14817 C 0.14817,3.4752 0,3.5432 0,3.6787 0,3.8142 0.14147,3.8142 0.14147,3.8142 v 0.393 c 0,0.034 0.12065,0.061 0.12065,-0.027 V 3.7939 c 0,-0.037 0.24518,-0.017 0.3563,-0.01 -0.0381,0.071 -0.0723,0.1517 -0.10054,0.242 l -0.0804,-0.017 -0.0363,0.175 0.0748,0.016 c -0.0152,0.082 -0.0243,0.1707 -0.0268,0.2674 h -0.0695 l 0.0113,0.1785 h 0.0653 c 0.01,0.082 0.0286,0.1609 0.0543,0.2357 v 0 l -0.0519,0.019 0.0607,0.1679 0.0614,-0.023 c 0.0303,0.059 0.0642,0.116 0.10124,0.1693 l 0.0335,0.08 -0.0399,0.035 0.11642,0.1351 0.055,-0.048 c 0.0579,0.061 0.11748,0.1168 0.17639,0.1651 l -0.025,0.035 0.14287,0.1058 0.0243,-0.034 c 0.0903,0.062 0.17145,0.1052 0.22895,0.1278 0.008,0 0.019,0.01 0.0317,0.012 l -0.0148,0.043 0.16757,0.059 0.0131,-0.039 c 0.0624,0.023 0.13547,0.051 0.21696,0.081 l -0.0145,0.042 0.16757,0.058 0.0131,-0.039 c 0.0748,0.028 0.15346,0.057 0.23459,0.087 l -0.012,0.036 0.16757,0.059 0.0109,-0.033 c 0.0727,0.027 0.1464,0.054 0.22013,0.081 l -0.0124,0.035 0.16757,0.058 0.0113,-0.032 c 0.072,0.026 0.14323,0.053 0.21308,0.079 0.008,0 0.0166,0.01 0.0247,0.01 l -0.0134,0.038 0.16792,0.058 0.012,-0.035 c 0.0868,0.032 0.16757,0.062 0.23883,0.089 l -0.0145,0.053 0.1711,0.047 0.0106,-0.038 c 0.0656,0.025 0.10866,0.041 0.11994,0.045 0.0275,0.011 0.0688,0.023 0.11748,0.034 l -0.006,0.02 0.17109,0.048 0.009,-0.033 c 0.10337,0.017 0.20955,0.03 0.28364,0.03 h 0.004 v 0.024 h 0.1771 v -0.024 h 0.25964 v 0.024 h 0.17745 v -0.024 h 0.24588 v 0.024 h 0.17745 v -0.024 h 0.25965 v 0.024 H 5.747 v -0.024 h 0.25929 v 0.024 h 0.17745 v -0.024 h 0.25965 v 0.024 h 0.17744 v -0.024 h 0.23919 v 0.024 h 0.17744 v -0.024 h 0.25965 v 0.024 h 0.17745 v -0.024 h 0.24588 v 0.024 h 0.17745 v -0.024 h 0.25964 v 0.024 h 0.1771 v -0.024 h 0.25964 v 0.024 h 0.17745 v -0.024 h 0.25929 v 0.024 h 0.17745 v -0.024 h 0.2226 v 0.024 H 9.60851 V 6.7695 H 9.8678 v 0.024 h 0.17745 v -0.024 h 0.24271 v 0.024 h 0.17745 v -0.024 h 0.25964 v 0.024 h 0.17709 v -0.024 h 0.24272 v 0.024 h 0.17744 v -0.024 h 0.25965 v 0.024 h 0.17744 v -0.024 h 0.25612 v 0.024 h 0.17745 v -0.024 h 0.25929 v 0.024 h 0.17745 v -0.024 h 0.21237 v 0.024 h 0.17745 v -0.024 h 0.25964 v 0.024 h 0.17745 v -0.024 h 0.23248 v 0.024 h 0.17745 v -0.024 h 0.25964 v 0.024 h 0.17745 v -0.026 c 0.12418,0 0.20038,-0.017 0.28786,-0.043 l 0.0321,0.069 0.16051,-0.076 -0.0258,-0.056 c 0.0582,-0.026 0.13864,-0.065 0.2346,-0.1119 l 0.0265,0.058 0.16052,-0.076 -0.0275,-0.06 c 0.0759,-0.038 0.15805,-0.079 0.24342,-0.1217 l 0.0141,0.03 0.16051,-0.076 -0.0159,-0.035 c 0.0758,-0.038 0.15346,-0.078 0.23177,-0.1182 l 0.0194,0.042 0.16051,-0.076 -0.0219,-0.048 c 0.0847,-0.043 0.16827,-0.087 0.25012,-0.1294 l 0.0152,0.033 0.16086,-0.075 -0.0183,-0.04 c 0.0808,-0.043 0.15804,-0.084 0.23001,-0.1221 l 0.0233,0.051 0.16087,-0.076 -0.0279,-0.06 c 0.0847,-0.046 0.15628,-0.086 0.21167,-0.1185 l 0.0444,0.059 0.14111,-0.1083 -0.037,-0.049 c 0.0515,-0.039 0.11253,-0.091 0.17568,-0.1545 l 0.0381,0.035 0.11959,-0.132 -0.0388,-0.036 c 0.0554,-0.07 0.109,-0.1485 0.15557,-0.2374 l 0.0508,0.02 0.0649,-0.1665 -0.043,-0.017 c 0.0307,-0.082 0.0543,-0.1714 0.0688,-0.2674 h 0.0667 l 0.004,-0.1789 -0.0557,-0.001 c 3.5e-4,-0.01 7e-4,-0.017 7e-4,-0.025 0,-0.1068 -0.0102,-0.2039 -0.0272,-0.2913 l 0.0617,-0.02 -0.0557,-0.1697 -0.0505,0.017 c -0.0268,-0.082 -0.0586,-0.1524 -0.0907,-0.2113 l 0.073,-0.074 0.39652,-0.1016 0.0808,0.1287 0.29598,-0.088 V 3.1372 h 0.40993 V 2.2154 Z m -1.72296,3.3581 -0.0804,-0.076 c 0.0797,-0.01 0.15734,-0.023 0.23213,-0.045 -7e-4,0.013 -0.001,0.027 -0.002,0.041 -0.0462,0.025 -0.0963,0.052 -0.14993,0.081 m -0.40922,0.2152 -0.0864,-0.082 c 0,0 -0.0356,-0.037 -0.1016,-0.01 -0.0663,0.031 -0.048,0.085 -0.048,0.085 0,0 -0.003,0.069 -0.005,0.1259 -0.0476,0.025 -0.0953,0.049 -0.14288,0.073 l -0.0981,-0.092 c 0,0 -0.0356,-0.037 -0.1016,-0.01 -0.0663,0.031 -0.048,0.085 -0.048,0.085 0,0 -0.004,0.082 -0.006,0.1415 -0.0536,0.027 -0.10618,0.054 -0.15734,0.079 l -0.0776,-0.073 c 0,0 -0.0356,-0.037 -0.1016,-0.01 -0.0663,0.031 -0.048,0.085 -0.048,0.085 0,0 -0.002,0.056 -0.005,0.109 -0.0561,0.028 -0.10901,0.054 -0.15699,0.078 l -0.0586,-0.055 c 0.13406,-0.1549 0.21555,-0.3577 0.21555,-0.5796 0,-0.075 -0.009,-0.1475 -0.0265,-0.2166 0.41663,0 0.65934,-0.01 0.65828,-0.01 -0.004,0 0.1009,-0.05 0.20391,-0.094 0.11853,0.041 0.24483,0.064 0.37641,0.067 -0.0286,0.03 -0.0173,0.064 -0.0173,0.064 0,0 -0.003,0.079 -0.006,0.1376 -0.0529,0.028 -0.10724,0.056 -0.16227,0.085 m -2.80565,0.7962 -0.0547,-0.1369 c 0.061,0.048 0.12841,0.088 0.20073,0.1182 -0.004,0.01 -0.007,0.013 -0.01,0.019 z m -2.11737,0 -0.0593,-0.1489 c 0,0 -0.0166,-0.048 -0.0896,-0.048 -0.073,0 -0.0794,0.057 -0.0794,0.057 0,0 -0.0452,0.088 -0.0723,0.1404 h -0.13618 l -0.0127,-0.031 c 0.15134,-0.07 0.2794,-0.182 0.36901,-0.3217 0.0656,0.1012 0.15063,0.188 0.25047,0.255 -0.0152,0.03 -0.0356,0.069 -0.0505,0.098 z m -1.69368,0 -0.0593,-0.1489 c 0,0 -0.002,0 -0.007,-0.012 0.0561,0.048 0.11854,0.09 0.18556,0.1224 -0.007,0.014 -0.0138,0.027 -0.0197,0.039 z m -0.4371,0 -0.0593,-0.1489 c 0,0 -0.003,-0.01 -0.0113,-0.018 0.091,-0.079 0.1651,-0.1767 0.21731,-0.2875 0.0487,0.1027 0.11642,0.1947 0.19861,0.2706 -0.0134,-0.01 -0.0317,-0.013 -0.0575,-0.013 -0.073,0 -0.079,0.057 -0.079,0.057 0,0 -0.0452,0.088 -0.0723,0.1404 z m -1.73425,0 -0.0593,-0.1489 c 0,0 -0.0166,-0.048 -0.0896,-0.048 -0.073,0 -0.0794,0.057 -0.0794,0.057 0,0 -0.0448,0.088 -0.072,0.1404 H 6.88426 L 6.86876,6.5312 C 7.02962,6.4532 7.16262,6.3262 7.25011,6.17 c 0.0621,0.1107 0.14711,0.2067 0.24871,0.2808 -0.0152,0.029 -0.0423,0.082 -0.061,0.1192 z m -1.7272,0 -0.0593,-0.1489 c 0,0 -0.0166,-0.048 -0.0896,-0.048 -0.073,0 -0.0794,0.057 -0.0794,0.057 0,0 -0.0451,0.088 -0.0723,0.1404 H 5.15041 L 5.09111,6.4213 c 0,0 -10e-4,0 -0.003,-0.01 0.0967,-0.081 0.17569,-0.183 0.23037,-0.2991 0.0857,0.1817 0.23177,0.3291 0.41134,0.4163 -0.007,0.014 -0.0138,0.026 -0.0194,0.038 z M 3.47015,6.3764 3.46515,6.2874 c 0.0392,0.049 0.0829,0.094 0.13123,0.1333 -7e-4,7e-4 -10e-4,0.001 -0.002,0 -0.0367,-0.014 -0.0787,-0.029 -0.12489,-0.047 M 3.06627,6.2248 3.05827,6.07 c 0,0 0,-0.051 -0.0688,-0.075 -0.0691,-0.024 -0.0935,0.027 -0.0935,0.027 0,0 -0.0621,0.06 -0.10513,0.1005 -0.0367,-0.013 -0.0741,-0.027 -0.11147,-0.041 l -0.007,-0.1541 c 0,0 0,-0.052 -0.0691,-0.075 -0.0691,-0.024 -0.0935,0.028 -0.0935,0.028 0,0 -0.0614,0.059 -0.10443,0.1001 -0.0434,-0.016 -0.0864,-0.032 -0.12911,-0.048 l -0.007,-0.1471 c 0,0 -3.5e-4,-0.03 -0.0307,-0.054 l 0.0169,-0.021 0.1263,-0.046 0.12065,0.071 c 0,0 0.0709,-0.01 0.0759,-0.021 0.005,-0.015 0.0152,-0.1524 0.0152,-0.1524 l 0.12595,-0.1068 0.13617,0.061 0.0452,-0.03 c 0,0 0.0554,0.1118 0.20673,0.1372 0.0607,0.01 0.12065,0.012 0.1718,0.011 -0.004,0.033 -0.006,0.066 -0.006,0.1 0,0.1474 0.036,0.2861 0.0995,0.4082 -0.0533,-0.01 -0.073,0.033 -0.073,0.033 0,0 -0.0596,0.057 -0.10231,0.098 -0.0423,-0.015 -0.0861,-0.032 -0.13088,-0.048 M 1.8933,5.7909 1.8903,5.7309 h 0.0981 l 0.0564,0.072 C 2.0325,5.8149 2.0194,5.8269 2.0074,5.8389 1.9679,5.8239 1.9298,5.8099 1.8931,5.7959 M 1.19989,5.2191 C 1.03303,5.0692 0.91308,4.8671 0.86652,4.6381 h 0.37535 c 0.0303,0.095 0.0804,0.1813 0.14535,0.254 -0.0773,0.1348 -0.14288,0.2491 -0.18733,0.327 M 0.89403,4.2113 h -0.0275 c 0.002,-0.013 0.006,-0.025 0.009,-0.038 0.007,0.014 0.0134,0.027 0.0187,0.038 M 0.63635,4.606 c -3.5e-4,0 -0.001,-3e-4 -0.001,-7e-4 -0.002,-0.015 -0.004,-0.031 -0.005,-0.047 0.002,0.016 0.004,0.032 0.006,0.047 m 1.1176,0.4995 c 0.0473,0.01 0.0956,0.015 0.14535,0.015 0.0501,0 0.0988,0 0.14534,-0.015 0.0776,0.1351 0.14323,0.2498 0.18768,0.3274 -0.10477,0.035 -0.21661,0.055 -0.33302,0.055 -0.11607,0 -0.2279,-0.019 -0.33267,-0.055 C 1.61103,5.3542 1.6767,5.2399 1.75395,5.1048 M 1.48831,5.6439 h 3.5e-4 c 0.0487,0.017 0.0981,0.03 0.14852,0.041 -0.004,0 -0.008,0.01 -0.0123,0.012 -0.0582,-0.022 -0.10478,-0.04 -0.13653,-0.052 m 3.3267,0.9281 c 0.0145,-0.01 0.0289,-0.011 0.043,-0.016 -0.003,0.01 -0.006,0.011 -0.008,0.016 z m 3.86362,0 c 0.024,-0.01 0.0473,-0.018 0.0702,-0.028 -0.005,0.01 -0.01,0.019 -0.0141,0.028 z m 3.84951,0 c 0.0279,-0.01 0.0554,-0.021 0.0815,-0.033 -0.006,0.012 -0.0116,0.023 -0.0169,0.033 z m 0.36512,0 -0.0596,-0.1488 c 0,0 -0.004,-0.011 -0.0148,-0.022 0.0734,-0.065 0.13582,-0.1426 0.1845,-0.2293 0.0427,0.076 0.0963,0.1457 0.1591,0.2056 -0.008,0 -0.018,0 -0.0282,0 -0.073,0 -0.0797,0.057 -0.0797,0.057 0,0 -0.0448,0.088 -0.072,0.1404 z m 1.71556,-0.059 c -10e-4,4e-4 -0.002,7e-4 -0.004,10e-4 0.0212,-0.012 0.0413,-0.024 0.061,-0.037 0,0 -3.5e-4,0.01 -3.5e-4,0.012 -0.0279,0.013 -0.0476,0.021 -0.0568,0.024 m 2.2599,-1.1624 c 0.0236,-0.013 0.0473,-0.025 0.0702,-0.039 -0.0166,0.011 -0.0392,0.025 -0.0674,0.042 z"
     id="G-StuGIIEarly" />
</svg>
