<?xml version="1.0" encoding="UTF-8" standalone="no"?>
<!-- Created with Inkscape (http://www.inkscape.org/) -->

<svg
   width="30.084049mm"
   height="8.1827297mm"
   viewBox="0 0 30.084049 8.1827297"
   version="1.1"
   id="svg13154"
   sodipodi:docname="inkporter-svg-0poss7oc.svg"
   xmlns:inkscape="http://www.inkscape.org/namespaces/inkscape"
   xmlns:sodipodi="http://sodipodi.sourceforge.net/DTD/sodipodi-0.dtd"
   xmlns="http://www.w3.org/2000/svg"
   xmlns:svg="http://www.w3.org/2000/svg">
  <sodipodi:namedview
     id="namedview13156"
     pagecolor="#ffffff"
     bordercolor="#666666"
     borderopacity="1.0"
     inkscape:pageshadow="2"
     inkscape:pageopacity="0.0"
     inkscape:pagecheckerboard="0"
     inkscape:document-units="mm"
     showgrid="false"
     inkscape:zoom="0.90583672"
     inkscape:cx="177.73623"
     inkscape:cy="473.04331"
     inkscape:window-width="1920"
     inkscape:window-height="1017"
     inkscape:window-x="-8"
     inkscape:window-y="-8"
     inkscape:window-maximized="1"
     inkscape:current-layer="layer1" />
  <defs
     id="defs13151" />
  <g
     inkscape:label="Layer 1"
     inkscape:groupmode="layer"
     id="layer1"
     transform="translate(-31.984028,-127.05572)">
    <path
       d="m 44.560302,135.22635 c -0.04329,-0.0159 -0.115358,-0.0861 -0.115358,-0.11252 0,-0.0128 -0.04053,-0.0334 -0.09006,-0.0459 -0.07744,-0.0195 -0.09871,-0.018 -0.151977,0.0107 -0.05891,0.0317 -0.06826,0.0316 -0.18729,-3.5e-4 -0.104916,-0.0284 -0.12894,-0.0429 -0.148096,-0.0891 -0.01799,-0.0431 -0.04441,-0.0615 -0.121849,-0.0842 -0.06449,-0.0189 -0.101388,-0.0222 -0.105833,-0.009 -0.01623,0.0463 -0.09934,0.0547 -0.222286,0.0224 -0.105304,-0.0276 -0.127741,-0.0413 -0.152364,-0.093 -0.02293,-0.0483 -0.04748,-0.0653 -0.120121,-0.0836 -0.05196,-0.0131 -0.09603,-0.0156 -0.102553,-0.006 -0.03281,0.0494 -0.08643,0.0557 -0.210926,0.0248 -0.110243,-0.0273 -0.131374,-0.0398 -0.156315,-0.0921 -0.04015,-0.0841 -0.170216,-0.11961 -0.260386,-0.071 -0.05778,0.0311 -0.06794,0.031 -0.187783,-10e-4 -0.06971,-0.0189 -0.131304,-0.0461 -0.136843,-0.0606 -0.0056,-0.0145 -0.03104,-0.0263 -0.05641,-0.0263 -0.0254,0 -0.05669,-0.0125 -0.06932,-0.0277 -0.0127,-0.0152 -0.03493,-0.0231 -0.04971,-0.0175 -0.01482,0.006 -0.07391,-0.0114 -0.131657,-0.0378 -0.07779,-0.0356 -0.106645,-0.0597 -0.111407,-0.0931 -0.0049,-0.0364 -0.01623,-0.0439 -0.05821,-0.039 -0.0622,0.007 -0.130881,-0.0259 -0.130881,-0.0631 0,-0.0148 -0.01693,-0.0322 -0.03729,-0.0387 -0.06244,-0.0198 -0.158291,-0.14265 -0.144709,-0.18544 0.01023,-0.0323 0.0049,-0.0359 -0.03609,-0.0256 -0.05902,0.0148 -0.09903,-0.0456 -0.08304,-0.12545 0.0095,-0.0468 0.0056,-0.0515 -0.03457,-0.0439 -0.03697,0.007 -0.05422,-0.007 -0.09514,-0.0767 -0.05743,-0.098 -0.06191,-0.13466 -0.02046,-0.16892 0.0254,-0.0214 0.02399,-0.027 -0.01446,-0.0461 -0.04692,-0.0233 -0.0689,-0.0995 -0.03775,-0.13072 0.0127,-0.0124 0.0064,-0.0315 -0.01764,-0.0555 -0.04233,-0.0423 -0.0496,-0.16927 -0.0134,-0.23498 0.0127,-0.0231 0.02046,-0.0619 0.01764,-0.0863 -0.0035,-0.0243 0.0046,-0.0564 0.01729,-0.0713 0.01235,-0.0148 0.01693,-0.036 0.0099,-0.047 -0.0067,-0.011 0.0067,-0.0733 0.03104,-0.13855 0.03387,-0.0931 0.05486,-0.12297 0.09723,-0.13897 0.03747,-0.0142 0.05401,-0.0339 0.05401,-0.0643 0,-0.0241 0.01587,-0.0596 0.03492,-0.0787 0.01905,-0.0192 0.03175,-0.0448 0.02787,-0.0569 -0.0039,-0.0121 0.03175,-0.061 0.07916,-0.10859 0.08636,-0.0863 0.08671,-0.0873 0.136031,-0.35022 0.02716,-0.14502 0.04575,-0.26739 0.0412,-0.27194 -0.0046,-0.005 -0.0321,0.0294 -0.06078,0.0753 -0.02893,0.046 -0.08576,0.13644 -0.126401,0.20105 -0.04068,0.0646 -0.07391,0.12738 -0.07391,0.13946 0,0.0144 -0.0466,0.022 -0.134655,0.022 -0.08562,0 -0.134655,-0.008 -0.134655,-0.0213 0,-0.0117 0.08252,-0.15341 0.183374,-0.31489 l 0.183374,-0.29361 0.109925,-0.0214 c 0.0605,-0.0118 0.239854,-0.0307 0.398533,-0.042 0.399803,-0.0285 0.375074,-0.0196 0.375074,-0.13431 0,-0.0723 0.0067,-0.0958 0.02893,-0.0958 0.02011,0 0.02893,-0.0203 0.02893,-0.0673 0,-0.0646 -0.0035,-0.0673 -0.06971,-0.0673 -0.05976,0 -0.06622,-0.004 -0.04572,-0.0289 0.01341,-0.0159 0.04671,-0.0297 0.07451,-0.0308 0.04801,-0.002 0.04738,-0.003 -0.01199,-0.022 -0.100541,-0.0322 -0.0726,-0.053 0.0714,-0.053 0.14732,0 0.173813,0.0196 0.173813,0.12876 0,0.0335 0.01482,0.0635 0.03845,0.0784 0.04491,0.028 0.05461,0.17204 0.01446,0.21465 -0.01976,0.0211 -0.0056,0.0238 0.08174,0.0155 0.05821,-0.006 0.358951,-0.0301 0.668443,-0.0546 l 0.56261,-0.0445 v -0.0922 c 0,-0.0896 0.0035,-0.0921 0.05796,-0.0921 0.04964,0 0.06399,0.0125 0.100048,0.0866 0.02858,0.0587 0.05172,0.0839 0.0719,0.0782 0.01623,-0.005 0.122802,-0.0144 0.236538,-0.0216 0.191029,-0.0122 0.237031,-0.0261 0.187572,-0.0567 -0.01023,-0.007 -0.01905,-0.033 -0.01905,-0.0588 0,-0.0258 -0.0085,-0.0469 -0.01905,-0.0469 -0.01094,0 -0.01905,-0.013 -0.01905,-0.0289 0,-0.0159 -0.01411,-0.0289 -0.0314,-0.0289 -0.02469,0 -0.02893,-0.0125 -0.01905,-0.0601 0.0067,-0.0331 0.01199,-0.0719 0.01199,-0.0862 0,-0.0144 0.04261,-0.0477 0.09465,-0.0741 0.09042,-0.0458 0.09536,-0.0525 0.110772,-0.14939 l 0.01623,-0.10145 0.269169,-0.0135 c 0.148026,-0.007 0.424992,-0.0191 0.615386,-0.0259 0.196215,-0.007 0.357011,-0.0213 0.371122,-0.0328 0.01764,-0.0145 0.0314,-0.014 0.0471,0.002 0.02857,0.0284 0.19244,0.0291 0.220663,7.1e-4 0.0254,-0.0256 0.06322,-0.007 0.06322,0.0322 0,0.0225 0.04085,0.0277 0.216888,0.0277 h 0.216888 l 0.258692,0.34624 0.258656,0.34624 h 1.313322 c 1.237121,0 1.313462,-0.002 1.315543,-0.0337 0.0035,-0.0463 0.0078,-0.0674 0.02152,-0.10098 0.0067,-0.0159 0.02928,-0.0912 0.05006,-0.16732 l 0.03789,-0.13847 -0.15434,-0.0514 c -0.09832,-0.0327 -0.158821,-0.0443 -0.166582,-0.0318 -0.0067,0.0108 -0.0641,0.0255 -0.1276,0.0328 -0.06346,0.007 -0.14298,0.0203 -0.176635,0.0289 -0.0551,0.0141 -0.09599,-0.004 -0.403931,-0.17591 -0.188454,-0.10537 -0.36195,-0.2097 -0.38548,-0.23182 -0.02328,-0.0221 -0.05722,-0.0779 -0.07479,-0.12389 -0.02999,-0.0784 -0.02999,-0.0891 0.0035,-0.17125 0.01834,-0.0482 0.09719,-0.18451 0.175154,-0.30296 l 0.141746,-0.21537 -0.100436,-0.006 c -0.05525,-0.003 -0.108691,-0.0141 -0.11871,-0.024 -0.01023,-0.01 -0.08844,-0.0181 -0.174131,-0.0181 -0.152929,0 -0.157162,-0.001 -0.221191,-0.0673 l -0.06523,-0.0673 -0.28956,-2.5e-4 c -0.159279,0 -0.59242,-0.009 -0.962589,-0.02 l -0.67303,-0.0199 -0.04911,-0.047 -0.04907,-0.047 -5.83886,-0.0211 c -4.18345,-0.0151 -5.870751,-0.0151 -5.95129,-2.5e-4 -0.06184,0.0114 -0.284128,0.0208 -0.493925,0.0208 H 33.34875 l -0.21329,0.10696 c -0.195474,0.098 -0.216041,0.10446 -0.24645,0.0769 -0.02787,-0.0251 -0.09539,-0.03 -0.4082,-0.03 -0.367171,0 -0.37592,-0.001 -0.416842,-0.0445 -0.02293,-0.0245 -0.04184,-0.0629 -0.04184,-0.0854 0,-0.0225 -0.0085,-0.0463 -0.01905,-0.0528 -0.0254,-0.0158 -0.0254,-0.50356 0,-0.51936 0.01058,-0.007 0.01905,-0.0315 0.01905,-0.0555 0,-0.0239 0.02011,-0.0624 0.04448,-0.0854 0.04258,-0.04 0.06107,-0.0418 0.416913,-0.0418 0.310409,0 0.37786,-0.005 0.405483,-0.03 0.03034,-0.0275 0.05098,-0.0211 0.24645,0.0769 l 0.21329,0.10696 h 0.381493 c 0.209797,0 0.432083,0.009 0.493925,0.0207 0.08054,0.0149 1.76784,0.0148 5.95129,-2.5e-4 l 5.83886,-0.0211 0.04907,-0.047 0.04914,-0.047 0.672995,-0.0199 c 0.370169,-0.0109 0.80331,-0.0199 0.962589,-0.02 l 0.28956,-2.5e-4 0.06526,-0.0673 c 0.06414,-0.0662 0.06787,-0.0673 0.223837,-0.0673 0.08721,0 0.163936,-0.009 0.170463,-0.0193 0.0074,-0.0121 0.223696,-0.0192 0.585011,-0.0192 h 0.573193 l 0.16884,-0.22148 c 0.213219,-0.27965 0.267053,-0.32712 0.402907,-0.35533 0.147991,-0.0307 0.194945,-0.0217 0.188525,0.0361 -0.0046,0.044 -0.0035,0.0454 0.08449,0.0336 0.04921,-0.007 0.108902,-0.0123 0.132644,-0.0123 0.02716,0 0.04692,-0.0144 0.05316,-0.0385 0.0095,-0.0367 0.02611,-0.0385 0.367736,-0.0385 0.196744,0 0.357646,-0.007 0.357646,-0.0153 0,-0.008 -0.0092,-0.0248 -0.02081,-0.0362 -0.01164,-0.0115 -0.01799,-0.0413 -0.01446,-0.0664 0.0046,-0.0332 0.02046,-0.0471 0.05898,-0.0515 0.06918,-0.008 0.15741,0.0756 0.139489,0.13215 -0.01058,0.0328 -0.0053,0.0375 0.03245,0.0297 0.02434,-0.005 0.382376,-0.0144 0.79502,-0.0207 0.687035,-0.0106 0.774242,-0.008 1.036461,0.0277 0.157516,0.0216 0.29778,0.0392 0.311821,0.0392 0.01411,0 0.03612,-0.0355 0.04914,-0.079 0.01305,-0.0434 0.03493,-0.0833 0.04886,-0.0886 0.01411,-0.005 0.02505,-0.0261 0.02505,-0.0461 0,-0.02 0.0081,-0.0364 0.01729,-0.0364 0.0092,0 0.02575,-0.10603 0.0369,-0.23563 l 0.01976,-0.23564 -0.0095,0.23564 c -0.0067,0.1629 -0.0035,0.23563 0.01129,0.23563 0.01164,0 0.02081,0.0164 0.02081,0.0364 0,0.02 0.01199,0.0409 0.02575,0.0463 0.01411,0.005 0.03718,0.0504 0.05108,0.10001 0.01623,0.0582 0.03944,0.0959 0.06551,0.1066 0.02223,0.009 0.364878,0.0605 0.761612,0.11416 0.717903,0.0972 5.140607,0.70244 5.595938,0.76581 0.22486,0.0313 0.239783,0.0361 0.253682,0.0812 0.07634,0.24772 0.503626,1.71793 0.574393,1.97652 0.05002,0.18264 0.09458,0.33576 0.09909,0.34027 0.0046,0.005 0.14217,-0.004 0.305894,-0.0193 0.163724,-0.0151 0.312843,-0.0276 0.331329,-0.0277 0.03069,-2.4e-4 0.03387,0.0273 0.03387,0.31032 v 0.31057 l -0.258198,-0.0134 -0.258233,-0.0134 -0.0064,0.0443 c -0.0049,0.0347 -0.02011,0.0456 -0.07154,0.0505 l -0.06526,0.006 0.01305,0.18612 c 0.0067,0.10236 0.01834,0.24455 0.02434,0.31596 l 0.01199,0.12984 h 0.199213 c 0.109573,0 0.199214,0.008 0.199214,0.0172 0,0.0298 -0.0562,0.0405 -0.212302,0.0405 h -0.151412 l -0.01199,0.0636 c -0.0067,0.035 -0.0035,0.16267 0.0085,0.28372 0.01129,0.12105 0.02046,0.23957 0.02046,0.26338 0,0.0421 0.0053,0.0433 0.202036,0.0433 0.119204,0 0.201965,0.008 0.201965,0.0189 0,0.0266 -0.05948,0.0362 -0.271462,0.0436 l -0.184926,0.006 -0.0127,-0.19312 c -0.0067,-0.10622 -0.01799,-0.25156 -0.02434,-0.32297 -0.01199,-0.12582 -0.01376,-0.12984 -0.06473,-0.12984 -0.04763,0 -0.05401,0.008 -0.06544,0.0846 -0.02434,0.16141 -0.192158,0.35105 -0.363396,0.41034 -0.0442,0.0153 -0.158609,0.0326 -0.254212,0.0383 -0.143228,0.009 -0.185632,0.004 -0.240453,-0.0237 -0.03662,-0.0188 -0.201331,-0.1672 -0.366113,-0.32976 -0.164783,-0.16257 -0.3054,-0.28973 -0.312596,-0.28257 -0.02081,0.021 -0.01517,0.0485 0.0078,0.0346 0.02822,-0.0173 0.106715,0.0593 0.167675,0.16292 0.04484,0.0763 0.04681,0.0871 0.01905,0.10471 -0.02822,0.0177 -0.02716,0.0262 0.0092,0.0898 0.0254,0.044 0.06212,0.0767 0.09857,0.0876 0.05006,0.015 0.0629,0.0334 0.09239,0.13283 0.04307,0.14517 0.04304,0.16494 0,0.17629 -0.03034,0.008 -0.03387,0.0244 -0.02611,0.11832 0.0056,0.0689 0.02011,0.11736 0.03951,0.13141 0.02611,0.0193 0.02716,0.0367 0.0074,0.13006 -0.03246,0.15501 -0.06558,0.21428 -0.116558,0.20879 -0.0321,-0.004 -0.05179,0.0143 -0.08223,0.074 -0.03739,0.0733 -0.03796,0.0808 -0.0081,0.11376 0.043,0.0475 0.02752,0.0839 -0.09589,0.22068 -0.100294,0.11151 -0.105692,0.11462 -0.161501,0.0935 -0.05083,-0.0192 -0.06265,-0.0166 -0.09857,0.0217 -0.02222,0.0239 -0.07038,0.0594 -0.106504,0.0788 -0.04946,0.0267 -0.06339,0.045 -0.05648,0.0746 0.01235,0.0529 -0.0035,0.0723 -0.11624,0.14107 -0.133385,0.0815 -0.18475,0.0914 -0.240242,0.0465 -0.04226,-0.0343 -0.05158,-0.0348 -0.133455,-0.009 -0.06526,0.0209 -0.09539,0.0437 -0.116805,0.0879 -0.02328,0.0486 -0.05129,0.0668 -0.14986,0.0979 -0.116276,0.0367 -0.123402,0.0369 -0.183691,0.004 -0.05129,-0.0276 -0.07313,-0.0298 -0.119451,-0.0122 -0.0314,0.0119 -0.05891,0.021 -0.06156,0.0202 -0.03493,-0.01 -0.06212,0.009 -0.08181,0.0565 -0.0194,0.0465 -0.04329,0.0633 -0.12259,0.0856 -0.156245,0.0439 -0.18736,0.0439 -0.230964,2.6e-4 -0.04233,-0.0423 -0.193781,-10e-4 -0.260068,0.0701 -0.04332,0.0468 -0.06579,0.0545 -0.170285,0.058 -0.101318,0.004 -0.128341,-0.003 -0.171027,-0.04 -0.06925,-0.0602 -0.199214,-0.0447 -0.26483,0.0315 -0.0393,0.0457 -0.06202,0.0534 -0.177306,0.0599 -0.115429,0.006 -0.136949,0.002 -0.168805,-0.0329 -0.02646,-0.0291 -0.05969,-0.0404 -0.119168,-0.0404 -0.06724,0 -0.09278,0.0109 -0.137266,0.0585 -0.04784,0.0512 -0.07137,0.0599 -0.188524,0.0696 -0.119839,0.01 -0.137689,0.007 -0.170498,-0.0296 -0.05602,-0.0623 -0.213571,-0.0579 -0.264936,0.007 -0.03387,0.0429 -0.05193,0.0481 -0.169686,0.0481 -0.117722,0 -0.13589,-0.005 -0.169651,-0.0481 -0.05108,-0.0649 -0.158856,-0.0677 -0.186443,-0.005 -0.01693,0.0382 -0.03528,0.0439 -0.156386,0.0489 -0.127565,0.005 -0.140229,0.002 -0.17593,-0.0433 -0.03246,-0.0412 -0.05426,-0.0489 -0.138713,-0.0489 -0.08403,0 -0.106362,0.008 -0.138077,0.0481 -0.03387,0.0429 -0.05193,0.0481 -0.169686,0.0481 -0.117757,0 -0.135925,-0.005 -0.169651,-0.0481 -0.03175,-0.0403 -0.05408,-0.0481 -0.138112,-0.0481 -0.084,0 -0.106363,0.008 -0.138042,0.0481 -0.03387,0.0429 -0.052,0.0481 -0.169757,0.0481 -0.117687,0 -0.135855,-0.005 -0.169651,-0.0481 -0.03175,-0.0403 -0.05404,-0.0481 -0.138077,-0.0481 -0.084,0 -0.106362,0.008 -0.138077,0.0481 -0.03387,0.0429 -0.05196,0.0481 -0.169686,0.0481 -0.117758,0 -0.13589,-0.005 -0.169686,-0.0481 -0.03175,-0.0403 -0.05401,-0.0481 -0.138078,-0.0481 -0.08403,0 -0.106362,0.008 -0.138077,0.0481 -0.03387,0.0429 -0.05193,0.0481 -0.169686,0.0481 -0.117757,0 -0.135925,-0.005 -0.169721,-0.0481 -0.03175,-0.0403 -0.05401,-0.0481 -0.138078,-0.0481 -0.084,0 -0.106362,0.008 -0.138077,0.0481 -0.03387,0.0429 -0.05193,0.0481 -0.169651,0.0481 -0.117757,0 -0.135925,-0.005 -0.169686,-0.0481 -0.03175,-0.0403 -0.05405,-0.0481 -0.138077,-0.0481 -0.08407,0 -0.106398,0.008 -0.138077,0.0481 -0.03387,0.0429 -0.05196,0.0481 -0.169722,0.0481 -0.117721,0 -0.13589,-0.005 -0.16965,-0.0481 -0.03175,-0.0403 -0.05408,-0.0481 -0.138078,-0.0481 -0.08403,0 -0.106433,0.008 -0.138112,0.0481 -0.03387,0.0429 -0.05196,0.0481 -0.169686,0.0481 -0.117722,0 -0.135855,-0.005 -0.169686,-0.0481 -0.03175,-0.0403 -0.05405,-0.0481 -0.138078,-0.0481 -0.084,0 -0.106397,0.008 -0.138077,0.0481 -0.03387,0.0429 -0.05196,0.0481 -0.169686,0.0481 -0.117722,0 -0.135925,-0.005 -0.169686,-0.0481 -0.03175,-0.0403 -0.05408,-0.0481 -0.138077,-0.0481 -0.08403,0 -0.106363,0.008 -0.138077,0.0481 -0.03387,0.0429 -0.05193,0.0481 -0.169687,0.0481 -0.117721,0 -0.13589,-0.005 -0.169721,-0.0481 -0.03175,-0.0403 -0.05401,-0.0481 -0.138077,-0.0481 -0.084,0 -0.106327,0.008 -0.138077,0.0481 -0.03387,0.0429 -0.05193,0.0481 -0.169651,0.0481 -0.117757,0 -0.135925,-0.005 -0.169651,-0.0481 -0.03175,-0.0403 -0.05408,-0.0481 -0.138112,-0.0481 -0.08407,0 -0.106398,0.008 -0.138078,0.0481 -0.03387,0.0429 -0.05196,0.0481 -0.169721,0.0481 -0.117722,0 -0.13589,-0.005 -0.169651,-0.0481 -0.03175,-0.0403 -0.05405,-0.0481 -0.138112,-0.0481 -0.084,0 -0.106363,0.008 -0.138078,0.0481 -0.03387,0.0429 -0.05193,0.0481 -0.169686,0.0481 -0.117722,0 -0.13589,-0.005 -0.169651,-0.0481 -0.03175,-0.0403 -0.05408,-0.0481 -0.138077,-0.0481 -0.08407,0 -0.106433,0.008 -0.138112,0.0481 -0.03387,0.0429 -0.05196,0.0481 -0.169686,0.0481 -0.117722,0 -0.13589,-0.005 -0.169687,-0.0481 -0.03175,-0.0403 -0.05405,-0.0481 -0.138077,-0.0481 -0.08403,0 -0.106362,0.008 -0.138112,0.0481 -0.03387,0.0429 -0.05193,0.0481 -0.169616,0.0481 -0.117792,0 -0.135925,-0.005 -0.169721,-0.0481 -0.03175,-0.0403 -0.05405,-0.0481 -0.138113,-0.0481 -0.084,0 -0.106327,0.008 -0.138077,0.0481 -0.03387,0.0429 -0.05189,0.0481 -0.169651,0.0481 -0.117722,0 -0.135925,-0.005 -0.169651,-0.0481 -0.03175,-0.0403 -0.05408,-0.0481 -0.138112,-0.0481 -0.08407,0 -0.106398,0.008 -0.138077,0.0481 -0.03387,0.0429 -0.05196,0.0481 -0.169686,0.0481 -0.117758,0 -0.135926,-0.005 -0.169686,-0.0481 -0.03175,-0.0401 -0.05419,-0.0481 -0.136032,-0.0481 -0.05405,0 -0.09821,0.008 -0.09821,0.0178 0,0.0473 -0.06463,0.0783 -0.16009,0.0768 -0.05479,-7.1e-4 -0.112607,-0.006 -0.128482,-0.0121 z m 0.827158,-0.25667 c 0,-0.0111 -0.01305,-0.045 -0.02858,-0.0753 l -0.02857,-0.0551 -0.106151,0.0575 c -0.05835,0.0316 -0.106115,0.0655 -0.106115,0.0753 0,0.01 0.06057,0.0178 0.134655,0.0178 0.08114,0 0.13462,-0.008 0.13462,-0.0202 z m 0.290301,-0.052 0.03069,-0.072 -0.09398,-0.0886 -0.09405,-0.0885 -0.06502,0.065 -0.06495,0.065 0.0418,0.0952 c 0.0412,0.0937 0.04321,0.0953 0.128411,0.0956 0.08184,2.7e-4 0.08823,-0.004 0.117158,-0.0717 z m 0.219428,0.0166 c -0.103505,-0.0497 -0.117898,-0.0523 -0.139453,-0.0251 -0.05175,0.0653 -0.02999,0.0807 0.115393,0.0806 l 0.139489,-5e-5 -0.115429,-0.0554 z m 0.721325,0.036 c 0,-0.0116 -0.02152,-0.0144 -0.05292,-0.007 -0.07546,0.0181 -0.07803,0.0265 -0.0078,0.0265 0.03351,0 0.06089,-0.009 0.06089,-0.0196 z m 0.295874,-0.0686 c 0.02011,-0.0484 0.05609,-0.11165 0.08036,-0.1405 0.0254,-0.0301 0.03803,-0.0624 0.02999,-0.0757 -0.0095,-0.0162 -0.03898,1.2e-4 -0.09468,0.0531 -0.04417,0.042 -0.118393,0.0987 -0.164995,0.12602 -0.06519,0.0382 -0.08241,0.0583 -0.07482,0.0874 0.0078,0.0307 0.02646,0.0378 0.09903,0.0377 0.08774,-7e-5 0.08971,-0.001 0.125307,-0.0881 z m 0.319335,0.0641 c 0,-0.0132 -0.01976,-0.0587 -0.04375,-0.10099 -0.02999,-0.0529 -0.05849,-0.0787 -0.09165,-0.0826 -0.04029,-0.005 -0.05507,0.009 -0.09084,0.0823 -0.02328,0.0484 -0.04272,0.0964 -0.04272,0.10666 0,0.0104 0.06015,0.0187 0.13462,0.0187 0.09507,0 0.134585,-0.007 0.134338,-0.024 z m 0.231034,0.006 c -0.02646,-0.008 -0.07758,-0.0298 -0.113418,-0.0484 -0.06018,-0.0311 -0.06424,-0.0312 -0.05274,-0.001 0.0067,0.0178 0.01235,0.0403 0.01235,0.05 0,0.01 0.04544,0.0169 0.101,0.016 0.07733,-0.001 0.08968,-0.005 0.05278,-0.0163 z m 0.65412,-0.012 c 0,-0.0165 -0.0095,-0.0242 -0.02081,-0.0172 -0.01164,0.007 -0.04385,0.0198 -0.07214,0.0284 -0.04777,0.0144 -0.04629,0.0157 0.02081,0.0171 0.05324,0.001 0.07214,-0.006 0.07214,-0.0284 z m 0.346252,0.0113 c 0,-0.028 -0.08276,-0.19287 -0.09677,-0.19287 -0.02822,0 -0.172544,0.15055 -0.172544,0.17978 0,0.0266 0.02222,0.0318 0.134656,0.0318 0.07451,0 0.134655,-0.008 0.134655,-0.0187 z m 0.277777,-0.0316 c 0.0067,-0.0277 0.01023,-0.052 0.0067,-0.0541 -0.08841,-0.0574 -0.214771,-0.15882 -0.236432,-0.18978 -0.02822,-0.0402 -0.02893,-0.0403 -0.05694,-0.003 -0.01588,0.0207 -0.02646,0.042 -0.02328,0.0473 0.0035,0.005 0.03069,0.0634 0.06188,0.1292 l 0.0568,0.11959 0.08932,3.5e-4 c 0.08047,3.5e-4 0.09049,-0.004 0.101918,-0.0497 z m 0.174272,0.021 c -0.09691,-0.0349 -0.105833,-0.0349 -0.105833,3.5e-4 0,0.0217 0.02222,0.0286 0.09141,0.028 l 0.09133,-7e-4 -0.07691,-0.0277 z m 0.779004,0.0117 c 0,-0.01 -0.0049,-0.0312 -0.01164,-0.0476 -0.01058,-0.027 -0.01764,-0.0268 -0.07204,0.001 -0.03316,0.0172 -0.0822,0.0379 -0.108691,0.046 -0.03457,0.0105 -0.01446,0.0151 0.072,0.0163 0.06615,7.1e-4 0.120227,-0.006 0.120227,-0.016 z m 0.309845,-0.0948 0.0502,-0.11121 -0.04403,-0.0511 -0.04396,-0.0511 -0.06389,0.0626 c -0.03528,0.0345 -0.08777,0.0797 -0.116981,0.10044 -0.04985,0.0355 -0.05165,0.0417 -0.02963,0.10032 0.02187,0.058 0.02999,0.0625 0.110807,0.0619 l 0.08717,-3.6e-4 0.05016,-0.1112 z m 0.305682,0.0839 c 0,-0.025 -0.113454,-0.11097 -0.18034,-0.13664 -0.02152,-0.008 -0.08893,0.1028 -0.08893,0.14667 0,0.0102 0.06057,0.0186 0.13462,0.0186 0.106397,0 0.134655,-0.006 0.134655,-0.0286 z m 0.139488,0.0159 c -0.0134,-0.005 -0.03493,-0.005 -0.04812,0 -0.0134,0.005 -0.0035,0.01 0.02399,0.01 0.02611,0 0.03725,-0.004 0.02399,-0.01 z m 0.75057,-0.0209 c 0.0053,-0.0185 0.01623,-0.0496 0.02399,-0.069 0.01235,-0.0295 -0.0046,-0.0255 -0.103576,0.0243 -0.06495,0.0328 -0.11811,0.0638 -0.11811,0.069 0,0.005 0.0423,0.009 0.09394,0.009 0.07292,0 0.0961,-0.008 0.103611,-0.0337 z m 0.34103,0.0149 c 0,-0.0103 -0.01905,-0.0579 -0.0423,-0.10579 -0.03422,-0.0701 -0.05207,-0.0871 -0.09236,-0.0871 -0.04029,0 -0.05828,0.0169 -0.09232,0.0871 -0.02328,0.0479 -0.04233,0.0955 -0.04233,0.10579 0,0.0104 0.06018,0.0187 0.134655,0.0187 0.07447,0 0.134655,-0.008 0.134655,-0.0187 z m 0.269276,-0.008 c 0,-0.0148 -0.04689,-0.0535 -0.104211,-0.0858 -0.05733,-0.0323 -0.14097,-0.0938 -0.185949,-0.13652 -0.04487,-0.0427 -0.08562,-0.0737 -0.09049,-0.0688 -0.0046,0.005 0.01729,0.0306 0.04865,0.0573 0.03175,0.0266 0.07818,0.0961 0.103399,0.15434 l 0.04586,0.10593 0.09137,2.5e-4 c 0.06579,2.5e-4 0.09137,-0.007 0.09137,-0.0267 z m 0.961742,0.007 c 0,-0.0172 -0.03246,-0.0907 -0.04837,-0.11025 -0.0085,-0.0107 -0.22091,0.10021 -0.22091,0.11552 0,0.008 0.06064,0.0152 0.134655,0.0152 0.08252,0 0.13462,-0.008 0.13462,-0.0205 z m 0.293123,-0.0594 0.03351,-0.0795 -0.08654,-0.0806 -0.08657,-0.0806 -0.07274,0.0692 -0.07281,0.0692 0.0394,0.0907 c 0.03852,0.0887 0.04121,0.0907 0.125942,0.0909 0.08329,2.4e-4 0.08781,-0.003 0.119945,-0.0793 z m 0.217911,0.0191 c -0.108126,-0.0558 -0.115464,-0.0571 -0.139453,-0.0242 -0.05193,0.071 -0.03281,0.085 0.114159,0.084 l 0.139453,-7.1e-4 z m 0.720055,0.0442 c 0,-0.009 -0.02152,-0.0125 -0.04805,-0.007 -0.02646,0.005 -0.04812,0.0125 -0.04812,0.0166 0,0.004 0.02152,0.007 0.04812,0.007 0.02611,0 0.04805,-0.007 0.04805,-0.0166 z m 0.304765,-0.0882 c 0.02469,-0.0572 0.06156,-0.11903 0.08174,-0.1373 0.03104,-0.0281 0.05126,-0.085 0.03034,-0.085 -0.0035,0 -0.04297,0.0347 -0.0876,0.0771 -0.04456,0.0424 -0.12199,0.10085 -0.171979,0.12984 -0.121461,0.0704 -0.116205,0.12018 0.0127,0.11971 l 0.08996,-2.7e-4 0.04505,-0.10408 z m 0.310797,0.086 c 0,-0.0103 -0.01905,-0.0579 -0.0423,-0.1058 -0.03422,-0.0701 -0.05207,-0.0871 -0.09236,-0.0871 -0.04029,0 -0.05828,0.0169 -0.09236,0.0871 -0.02328,0.0479 -0.04226,0.0955 -0.04226,0.1058 0,0.0104 0.06015,0.0187 0.13462,0.0187 0.07447,0 0.134655,-0.008 0.134655,-0.0187 z m 0.250084,0.005 c -0.01588,-0.006 -0.06918,-0.0309 -0.118357,-0.0555 l -0.08946,-0.0447 0.02152,0.0571 c 0.02011,0.0532 0.02787,0.057 0.118287,0.0555 0.05323,-7.1e-4 0.08378,-0.006 0.06798,-0.0123 z m 0.884802,-0.006 c 0,-0.0111 -0.01305,-0.045 -0.02857,-0.0753 l -0.02858,-0.0551 -0.106116,0.0575 c -0.05842,0.0316 -0.106186,0.0655 -0.106186,0.0753 0,0.01 0.06061,0.0178 0.134656,0.0178 0.08117,0 0.134655,-0.008 0.134655,-0.0202 z m 0.267899,-0.12425 c 0.04787,-0.13569 0.07991,-0.1725 0.1657,-0.1907 0.04643,-0.01 0.06657,-0.003 0.09716,0.0315 0.06202,0.0706 0.142452,0.19774 0.142452,0.22514 0,0.0168 0.01446,0.0214 0.04329,0.0137 0.02364,-0.006 0.06057,-0.0118 0.08177,-0.0119 0.02681,-2.4e-4 0.04851,-0.0247 0.07214,-0.0822 0.01834,-0.045 0.03387,-0.0891 0.03387,-0.0979 0,-0.009 0.01799,-0.0412 0.03976,-0.0719 0.03976,-0.0558 0.106892,-0.0722 0.180305,-0.044 0.03387,0.013 0.164641,0.2 0.164641,0.2354 0,0.0247 0.02611,0.0273 0.108585,0.0109 0.04399,-0.009 0.06361,-0.03 0.09334,-0.10099 0.02046,-0.0494 0.03806,-0.0942 0.03856,-0.0995 0,-0.005 0.01693,-0.0334 0.0363,-0.0625 0.03962,-0.0592 0.129857,-0.0715 0.189935,-0.0259 0.04339,0.0329 0.147955,0.18673 0.148485,0.21827 0,0.0261 0.0254,0.0296 0.08943,0.0125 0.03175,-0.009 0.04406,-0.0316 0.05436,-0.10072 0.02081,-0.13981 0.02328,-0.14902 0.05743,-0.20082 0.06054,-0.0924 0.171591,-0.078 0.263525,0.0341 0.102764,0.12526 0.105198,0.12676 0.184644,0.11406 0.06586,-0.0105 0.07634,-0.019 0.07772,-0.0631 0,-0.028 0.01129,-0.0932 0.02258,-0.14482 0.01199,-0.0517 0.0187,-0.0959 0.01588,-0.0984 -0.0035,-0.002 -0.04438,-0.0282 -0.09204,-0.0573 -0.124672,-0.0761 -0.337467,-0.29026 -0.416031,-0.41884 l -0.06763,-0.1106 h -0.895315 -0.895244 l 0.0127,0.0433 c 0.02822,0.0982 0.03493,0.32572 0.01235,0.44142 -0.02963,0.15083 -0.133385,0.35254 -0.241688,0.46882 l -0.08237,0.0884 0.04064,0.0899 c 0.03874,0.0858 0.04378,0.0896 0.11049,0.0832 0.06692,-0.006 0.07175,-0.0119 0.112854,-0.12839 z m 0.301202,0.0819 c 0.0067,-0.007 -0.0085,-0.0494 -0.03351,-0.095 -0.06011,-0.10922 -0.121708,-0.12141 -0.158538,-0.0314 -0.0659,0.16112 -0.06795,0.15639 0.06294,0.14692 0.06438,-0.005 0.12252,-0.0139 0.129188,-0.0205 z m 0.601169,-0.0505 c 0.02081,-0.0132 0.01834,-0.0311 -0.01411,-0.0946 -0.04724,-0.0926 -0.05909,-0.10169 -0.113771,-0.0874 -0.0254,0.007 -0.04826,0.0343 -0.05895,0.0712 -0.0095,0.0332 -0.02364,0.0755 -0.0314,0.094 -0.01199,0.0296 -0.0035,0.0336 0.08929,0.0334 0.05666,-1.2e-4 0.114618,-0.008 0.1288,-0.0166 z m -12.711501,-0.0367 c 0,-0.008 -0.03789,-0.0468 -0.08417,-0.0855 l -0.08421,-0.0704 -0.04413,0.047 c -0.02434,0.0259 -0.0405,0.05 -0.03605,0.0536 0.0085,0.007 0.209762,0.0663 0.234104,0.0689 0.0078,7.1e-4 0.01446,-0.005 0.01446,-0.0136 z m 13.348159,-0.0164 c 0.0046,-0.004 -0.01058,-0.0465 -0.03351,-0.0939 -0.03528,-0.0726 -0.05062,-0.0861 -0.09758,-0.0861 -0.04978,0 -0.05906,0.0102 -0.08685,0.095 -0.01729,0.0522 -0.03104,0.0982 -0.03104,0.10222 0,0.009 0.237808,-0.007 0.248885,-0.0172 z m -13.675184,-0.0802 c 0,-0.009 0.0254,-0.0419 0.05708,-0.074 l 0.05708,-0.0584 -0.06509,-0.1232 c -0.03563,-0.0678 -0.07567,-0.17776 -0.08862,-0.24444 -0.02223,-0.11566 -0.01623,-0.34344 0.01235,-0.44141 l 0.0127,-0.0433 H 43.56 43.247368 l 0.05069,0.0399 c 0.0562,0.0442 0.06502,0.10642 0.02328,0.16324 -0.02681,0.0367 -0.02928,0.0365 -0.1155,-0.0104 l -0.08798,-0.0477 -0.0817,0.0818 -0.08163,0.0818 0.03598,0.0621 c 0.04565,0.0793 0.127705,0.32822 0.127705,0.38763 0,0.0336 0.01376,0.0487 0.05288,0.058 0.02928,0.007 0.06805,0.0171 0.08654,0.0226 0.01835,0.006 0.03387,-6e-5 0.03387,-0.0125 0,-0.0352 0.188701,-0.21101 0.226095,-0.21071 0.07588,3.5e-4 0.113665,0.025 0.142804,0.0923 0.0247,0.0577 0.04953,0.16675 0.05355,0.23765 0.0035,0.0312 0.173814,0.0698 0.173814,0.0389 z m 14.14466,-0.0186 0.112431,-0.0337 -0.07461,-0.0841 c -0.09821,-0.11068 -0.146685,-0.10044 -0.173813,0.0367 -0.02575,0.13118 -0.02787,0.1301 0.135995,0.0811 z M 43.6132,134.61709 c -0.01199,-0.0217 -0.01976,-0.0417 -0.01799,-0.0443 0.01835,-0.0273 -0.0053,-0.0862 -0.04004,-0.0997 -0.03641,-0.0141 -0.05461,-0.004 -0.114618,0.0623 -0.03926,0.0435 -0.06664,0.0837 -0.06089,0.0895 0.0056,0.006 0.05941,0.0237 0.11938,0.04 0.118251,0.0321 0.149789,0.0189 0.114053,-0.0478 z m 14.980743,-0.0421 c 0.05214,-0.0173 0.103117,-0.039 0.113277,-0.0483 0.02858,-0.0261 -0.05087,-0.0939 -0.131127,-0.11201 -0.07673,-0.0173 -0.07168,-0.024 -0.09719,0.12921 -0.01199,0.0723 -0.01058,0.0727 0.11504,0.0311 z m -15.56967,-0.0851 c -0.01482,-0.0595 -0.01905,-0.087 -0.02046,-0.12645 0,-0.0254 -0.01799,-0.0456 -0.04477,-0.0531 -0.03422,-0.01 -0.05842,0.005 -0.115746,0.0679 -0.03986,0.044 -0.06869,0.0838 -0.06414,0.0884 0.01552,0.0156 0.194133,0.0599 0.223167,0.0554 0.01588,-0.002 0.0254,-0.0169 0.02187,-0.0322 z m 15.922518,-0.0306 c 0.0046,-0.004 -0.02787,-0.007 -0.07151,-0.007 -0.06085,0 -0.07708,0.006 -0.06904,0.0273 0.0081,0.0219 0.02258,0.0232 0.07151,0.007 0.03351,-0.0113 0.06466,-0.0236 0.06904,-0.0273 z m -16.171685,-0.13895 c 0.05863,-0.0632 0.06699,-0.0818 0.04808,-0.10716 -0.02046,-0.0275 -0.03457,-0.0247 -0.137195,0.0273 -0.133068,0.0674 -0.117687,0.0538 -0.132927,0.11756 -0.01129,0.0464 -0.0056,0.0526 0.05976,0.0684 0.05242,0.0126 0.07468,0.011 0.08167,-0.006 0.0053,-0.0129 0.04152,-0.0579 0.08061,-0.1 z m -0.378778,0.0348 c -0.0067,-0.0106 -0.02646,-0.0186 -0.04438,-0.0179 -0.02646,0.001 -0.0254,0.004 0.0056,0.0179 0.05147,0.0221 0.05214,0.0221 0.03849,0 z m 17.75333,-1.68248 c -0.01517,-0.0367 -0.02822,-0.084 -0.02822,-0.10512 0,-0.0425 -0.02258,-0.0576 -0.175155,-0.11706 l -0.103787,-0.0405 0.163089,0.16468 c 0.08968,0.0906 0.164994,0.16469 0.167323,0.16469 0.0035,0 -0.0081,-0.03 -0.02328,-0.0667 z m 1.235322,-0.42861 c -0.0067,-0.0714 -0.01764,-0.21423 -0.0247,-0.31738 l -0.01305,-0.18755 -0.107773,0.002 c -0.05923,0.001 -0.09133,0.006 -0.0713,0.0116 0.02963,0.008 0.0314,0.0127 0.0099,0.0266 -0.02258,0.0146 -0.02222,0.0202 0.0035,0.0362 0.02434,0.0162 0.02399,0.019 -0.0046,0.0193 -0.02716,2.4e-4 -0.03387,0.0174 -0.03387,0.0873 0,0.0677 0.01482,0.10839 0.06625,0.18331 0.03845,0.0559 0.07161,0.13234 0.07909,0.18227 0.01164,0.0758 0.0187,0.086 0.06156,0.086 0.04844,0 0.04861,-3.5e-4 0.03679,-0.12984 z m -1.24393,-0.0157 c 0,-0.006 -0.0095,-0.0282 -0.02046,-0.0493 -0.01658,-0.0307 -0.02611,-0.0339 -0.04805,-0.0156 -0.03679,0.0305 -0.03457,0.0519 0.006,0.0626 0.05242,0.0136 0.06255,0.0141 0.06255,0.002 z m 0.09176,-0.15864 c 0.0042,-0.0127 -0.0095,-0.0229 -0.0321,-0.0229 -0.02752,0 -0.03605,0.009 -0.02822,0.0297 0.0127,0.0328 0.04805,0.0288 0.05997,-0.007 z m 0.156352,-0.1386 0.08467,-0.0574 h -0.105346 c -0.08537,0 -0.113312,0.009 -0.14732,0.0447 -0.08368,0.0891 0.04131,0.0985 0.167993,0.0126 z m 0.559752,-0.0766 c 0,-0.0106 -0.01517,-0.0194 -0.03387,-0.0196 -0.02893,-2.5e-4 -0.02963,-0.003 -0.0046,-0.0193 0.02434,-0.016 0.02434,-0.0216 0.0035,-0.0362 -0.02152,-0.0139 -0.01975,-0.019 0.0099,-0.0261 0.02011,-0.005 -0.08742,-0.0122 -0.238866,-0.0164 -0.265536,-0.007 -0.276754,-0.006 -0.315912,0.0357 l -0.0406,0.0433 h 0.166864 c 0.09842,0 0.166828,-0.008 0.166828,-0.0192 0,-0.0352 0.105269,-0.0207 0.129329,0.0178 0.02893,0.046 0.159208,0.0787 0.159208,0.0399 z m -28.199118,-2.9238 v -0.25005 H 32.47089 32.191984 v 0.25005 0.25007 h 0.278906 0.278906 z m 0.432435,0.18823 0.125378,-0.0618 v -0.1264 -0.12638 l -0.125378,-0.0618 c -0.07761,-0.0383 -0.154587,-0.0618 -0.202,-0.0618 h -0.07659 v 0.25005 0.25007 h 0.07659 c 0.04741,0 0.124389,-0.0236 0.202,-0.0618 z"
       id="G-StureEmil"
       style="stroke-width:0.352778" />
  </g>
</svg>
