<?xml version="1.0" encoding="UTF-8" standalone="no"?>
<!-- Created with Inkscape (http://www.inkscape.org/) -->

<svg
   width="22.70019mm"
   height="8.9984999mm"
   viewBox="0 0 22.700189 8.9985001"
   version="1.1"
   id="svg33402"
   sodipodi:docname="inkporter-svg-71kf7czj.svg"
   inkscape:version="1.1.1 (3bf5ae0d25, 2021-09-20)"
   xmlns:inkscape="http://www.inkscape.org/namespaces/inkscape"
   xmlns:sodipodi="http://sodipodi.sourceforge.net/DTD/sodipodi-0.dtd"
   xmlns="http://www.w3.org/2000/svg"
   xmlns:svg="http://www.w3.org/2000/svg">
  <sodipodi:namedview
     id="namedview555"
     pagecolor="#ffffff"
     bordercolor="#666666"
     borderopacity="1.0"
     inkscape:pageshadow="2"
     inkscape:pageopacity="0.0"
     inkscape:pagecheckerboard="0"
     inkscape:document-units="mm"
     showgrid="false"
     inkscape:zoom="2.5097476"
     inkscape:cx="-1212.871"
     inkscape:cy="1547.3668"
     inkscape:window-width="1920"
     inkscape:window-height="1017"
     inkscape:window-x="-8"
     inkscape:window-y="-8"
     inkscape:window-maximized="1"
     inkscape:current-layer="svg33402" />
  <defs
     id="defs14119" />
  <path
     d="m 9.01612,8.86192 0.003,-0.008 c -0.018,0.003 -0.0367,0.006 -0.0554,0.008 z m 1.89618,-0.009 0.003,0.009 h 0.11888 l 0.0145,-0.0455 c -0.0437,0.0159 -0.0896,0.0286 -0.13653,0.0367 m -0.26987,0.009 0.001,-0.004 c -0.0423,-0.006 -0.0833,-0.0152 -0.12347,-0.0272 l 0.01,0.0307 z m 2.26659,-0.0328 0.0106,0.0328 h 0.1457 l 0.0399,-0.12277 c -0.0607,0.0377 -0.1263,0.0684 -0.19615,0.09 m -0.38276,0.0268 0.002,0.006 h 0.0416 c -0.0145,-10e-4 -0.0289,-0.004 -0.0437,-0.006 m 2.15865,0.006 0.002,-0.006 c -0.0138,0.002 -0.0279,0.004 -0.042,0.006 z m -0.57644,-0.12347 0.0392,0.12347 h 0.11888 l 0.0138,-0.0413 c -0.0607,-0.0208 -0.11818,-0.0487 -0.1718,-0.0822 m 2.60738,0.12347 0.0148,-0.0459 c -0.0455,0.0169 -0.0938,0.0296 -0.14253,0.0385 l 0.002,0.007 z m -0.55809,-0.0455 0.0145,0.0455 h 0.14534 l 0.001,-0.004 c -0.0557,-0.008 -0.10971,-0.0222 -0.16121,-0.0413 m 2.16393,0.0455 10e-4,-0.002 c -0.0452,-0.002 -0.0893,-0.007 -0.13265,-0.0159 l 0.006,0.0184 z M 19.0578,8.64995 19.0416,8.50601 C 18.92977,8.66053 18.76925,8.77589 18.58334,8.8288 l 0.001,0.003 C 18.70322,8.7962 18.86832,8.732 19.05776,8.64977 m 1.69792,-0.88018 0.0162,0.018 c 0.037,-0.0212 0.0716,-0.0416 0.10478,-0.061 -0.0395,0.0162 -0.0801,0.0307 -0.12101,0.043 M 0.38521,3.49321 H 0.21235 v 0.40076 h 0.3817 V 3.49321 Z m 0.375,-0.0201 -0.007,0.44803 0.24518,-0.0984 V 3.57509 Z M 4.633,6.07767 c 0,0.06 0.0476,0.10866 0.10619,0.10866 0.0586,0 0.10619,-0.0487 0.10619,-0.10866 0,-0.06 -0.0476,-0.10865 -0.10619,-0.10865 -0.0586,0 -0.10619,0.0487 -0.10619,0.10865 m 8.29698,-4.27178 h -0.19579 v -0.036 l -0.15628,0.49107 h 0.133 V 1.9417 h 0.21907 z M 9.90809,7.97138 9.72323,7.91598 c 0.002,0.0254 0.003,0.0512 0.003,0.0773 0,0.33972 -0.1898,0.63429 -0.46637,0.77893 l 0.0286,0.09 h 0.11889 l 0.0642,-0.19685 h 0.14641 l 0.0621,0.19685 H 9.8254 L 9.8893,8.66536 h 0.14676 l 0.0621,0.19685 h 0.1591 l 0.043,-0.13335 C 10.06425,8.57328 9.90762,8.30164 9.90762,7.99332 c 0,-0.007 0,-0.0145 3.5e-4,-0.0219 m 1.89794,0.0205 -0.19367,-0.0755 c 0.002,0.0251 0.004,0.0508 0.004,0.0769 0,0.29386 -0.14147,0.55386 -0.35948,0.71225 l 0.0497,0.15664 h 0.1457 l 0.0642,-0.19685 h 0.1457 l 0.0624,0.19685 h 0.1591 l 0.0642,-0.19685 h 0.1457 l 0.0624,0.19685 h 0.0995 l 0.0272,-0.085 C 12.00034,8.63469 11.80631,8.33729 11.80631,7.99334 Z m 1.89407,-0.0205 -0.18944,-0.0561 c 0.002,0.0258 0.003,0.0515 0.003,0.078 0,0.26987 -0.11959,0.51152 -0.30762,0.67204 h 0.0684 l 0.0628,0.19685 h 0.12524 l 0.0642,-0.19685 h 0.14641 l 0.0621,0.19685 h 0.13934 l 0.0642,-0.19685 h 0.0688 C 13.81938,8.50484 13.69944,8.26319 13.69944,7.99332 c 0,-0.007 0,-0.0148 3.5e-4,-0.0219 m 1.88877,0.0307 -0.18344,-0.0702 c 0.002,0.0205 0.002,0.0409 0.002,0.0614 0,0.34431 -0.19474,0.6424 -0.47767,0.78457 l 0.0265,0.0843 h 0.12594 l 0.0639,-0.19685 h 0.14605 l 0.0628,0.19685 h 0.15205 l 0.0639,-0.19685 h 0.14605 l 0.0628,0.19685 h 0.11888 l 0.0508,-0.15593 C 15.73287,8.54998 15.59141,8.29316 15.58823,8.00212 m 1.91206,0.012 -0.20673,-0.0914 c 0.002,0.0229 0.003,0.0466 0.003,0.0706 0,0.29351 -0.14182,0.5535 -0.35877,0.7119 l 0.0494,0.15699 h 0.12595 l 0.0639,-0.19685 h 0.1464 l 0.0624,0.19685 h 0.11889 l 0.0642,-0.19685 h 0.1457 l 0.0628,0.19685 h 0.14534 L 17.95627,8.7599 C 17.6924,8.61738 17.51036,8.33798 17.50049,8.01413 m 2.3749,-0.29916 -0.10266,0.0201 -0.31927,0.0744 h -0.26282 c 0.0113,0.0572 0.0176,0.11642 0.0176,0.17674 0,0.13899 -0.0317,0.27023 -0.0878,0.38664 l 0.0427,-0.0205 0.16157,0.1771 c 0.0388,-0.0176 0.0787,-0.036 0.11853,-0.055 l -0.0275,-0.24235 0.13229,-0.0635 0.16192,0.17744 c 0.0293,-0.0145 0.0586,-0.0286 0.0878,-0.0434 l -0.0268,-0.24024 0.13194,-0.0628 0.15664,0.17145 c 0.0391,-0.0201 0.0776,-0.0402 0.11606,-0.06 l -0.0257,-0.2293 0.13229,-0.0635 0.14499,0.15981 c 0.0363,-0.0194 0.0723,-0.0392 0.10724,-0.0582 l -0.0116,-0.10372 c -0.0441,0.004 -0.0882,0.007 -0.13299,0.007 -0.18274,0 -0.35666,-0.0385 -0.51435,-0.10795 M 12.8319,1.45974 h 0.15382 v 0.0709 c 0.14816,0.0434 0.42368,0.0713 0.54751,0.0684 0.13617,-0.004 0.36512,-0.024 0.46461,-0.0716 0.0998,-0.0473 0.20602,-0.0543 0.17603,0.004 -0.0268,0.0522 -0.043,0.0628 -0.0293,0.14605 h 1.08797 v 0.061 H 15.1133 v 0.17674 h 0.29845 v 0.13582 h 0.24553 v 0.17639 h 0.17251 V 0 h 0.0466 v 2.47897 l 0.13934,0.44133 -0.35136,0.41451 v 0.28504 h 0.25188 v -0.3122 l 0.33831,0.0201 -0.0198,0.30586 0.0928,-0.0952 0.31186,0.007 0.1464,0.0543 v -0.0543 c 0,0 -0.0469,-0.19015 0.0931,-0.19685 0.139,-0.007 1.7519,0.0677 1.89795,0.0677 0.14605,0 0.1591,0.1972 0.1591,0.1972 l -0.0596,0.0134 0.007,0.11571 0.1524,-0.0138 0.0201,-0.0748 0.94897,0.23107 0.35207,-0.0342 0.13935,0.0952 0.0265,-0.0748 -0.0931,-0.0205 c 0,0 0.0402,-0.1457 0.2099,-0.14534 l 0.10865,-0.0956 -0.0261,-0.0272 0.0131,-0.0476 -0.47766,-0.10513 -0.10971,-0.0374 0.0399,-0.24447 0.11289,0.007 0.007,-0.0575 0.23531,0.0441 0.0169,-0.0952 -0.22543,-0.0374 0.0127,-0.0543 -0.10265,-0.0272 0.0466,-0.26176 1.5233,0.30586 0.18909,0.0713 -0.0367,0.21413 -0.14923,0.007 -0.01,0.0543 -0.21907,-0.0441 -0.013,0.085 0.21907,0.0473 -0.0131,0.061 0.12559,0.0512 -0.0399,0.20708 -0.21554,-0.007 -0.32879,-0.0646 0.0134,0.12559 0.16934,0.0441 0.004,0.0639 c 0.0229,0.005 0.0399,0.009 0.0487,0.0109 0.12947,0.0272 0.10301,0.22084 0.10301,0.22084 l -0.043,-0.004 -0.0233,0.13582 0.61701,0.13617 0.39511,0.41063 -0.0797,0.085 -0.0695,-0.061 h -0.0931 l 0.0663,0.1016 0.0434,-0.0169 0.13934,0.061 0.0864,0.39723 -0.0734,0.0748 -0.043,0.0137 0.10618,0.41769 -0.14605,0.0374 -0.0233,-0.0476 h -0.0663 l -0.16616,0.9846 -0.51259,-0.009 C 21.66339,7.23179 21.49547,7.41735 21.26405,7.62972 21.00017,7.87208 18.82741,8.9985 18.43195,8.9985 H 8.80817 C 8.2155,8.9985 6.58814,8.51554 5.6314,8.01284 4.79462,7.57363 4.77909,6.78199 4.85212,6.34384 L 4.46724,6.39044 4.49374,5.96287 5.10439,5.48063 4.85216,5.1342 5.31006,4.82199 H 4.93824 V 4.68582 h 0.71719 v 0.0737 L 8.01799,4.48894 V 4.34642 L 7.92519,4.24446 6.23961,4.21726 6.13981,4.1086 V 4.0204 L 1.5798,3.87753 1.4207,3.93893 H 1.09544 L 0.73702,4.08145 H 0.64392 L 0.61072,4.02715 H 0.23254 l -0.0332,0.0476 H 0.0667 L 0,3.96609 V 3.42952 L 0.0797,3.32086 h 0.13265 l 0.0268,0.0543 h 0.36512 l 0.0395,-0.0882 h 0.10654 l 0.33832,0.19685 h 0.33866 l 0.1457,0.0748 4.57376,-0.0137 V 3.41579 l 0.0991,-0.1016 h 1.905 V 2.83864 h -0.073 V 2.66896 h 0.073 V 2.54654 h 1.10808 l 0.133,-0.17638 h 1.56633 l 0.0134,-0.061 h 0.50448 l 0.0663,-0.0476 h 0.87595 l 0.0921,-0.52634 h -0.0187 v -0.024 h -0.35524 v -0.0307 h -0.99554 v 0.0307 h -0.3683 v -0.0307 h -0.13617 v -0.0811 h 0.13617 v -0.024 h 0.2353 V 1.45653 h 0.0466 v 0.11889 h 0.0864 v 0.0169 h 0.99554 v -0.0169 h 0.35524 v -0.0169 h 0.0501 L 12.67771,0.781 13.01602,0.88295 Z m -6.69431,6.54967 -0.0123,0.0896 c 0.0367,0.0159 0.0734,0.0317 0.11112,0.0476 l 0.1337,-0.14005 c -0.043,0.005 -0.0871,0.007 -0.13123,0.007 -0.0339,0 -0.0677,-10e-4 -0.10125,-0.004 m -0.36442,-0.084 -10e-4,0.008 c 0.025,0.0127 0.0508,0.0254 0.0765,0.0381 l 0.0138,-0.0145 c -0.0303,-0.01 -0.06,-0.0198 -0.0893,-0.0314 m 2.68958,0.83538 0.002,0.0674 c 0.12171,0.0197 0.2279,0.0314 0.31256,0.0339 C 8.66446,8.84974 8.55828,8.81444 8.46232,8.7612 m -1.45344,-0.32138 0.1524,-0.1838 0.13546,0.0561 -0.0145,0.21731 c 0.0318,0.0102 0.0635,0.0201 0.0953,0.0296 l 0.12418,-0.18592 0.14076,0.0413 0.007,0.22472 c 0.0441,0.0127 0.0875,0.0247 0.13053,0.0363 l 0.12383,-0.18415 0.14005,0.0409 0.007,0.21167 c 0.0536,0.0131 0.10548,0.0243 0.15592,0.0353 L 8.29851,8.64192 C 8.12882,8.48493 8.02122,8.25915 8.01734,8.00762 L 7.68503,7.87816 c 0,0 -0.1397,0.0272 -0.17922,0.0272 -0.0399,0 -0.15275,-0.0476 -0.15275,-0.0476 0,0 -0.1524,0.0476 -0.19897,0.0476 -0.03,0 -0.16721,-0.0413 -0.26281,-0.0713 -0.13335,0.079 -0.28152,0.13476 -0.43886,0.16157 l 0.0822,0.0413 -0.03,0.21943 c 0.0434,0.0169 0.0871,0.0335 0.13088,0.0501 l 0.14464,-0.17322 0.13547,0.0557 -0.0148,0.21379 c 0.0356,0.0123 0.0716,0.0247 0.1076,0.037"
     id="G-StuGIII" />
</svg>
