<?xml version="1.0" encoding="UTF-8" standalone="no"?>
<!-- Created with Inkscape (http://www.inkscape.org/) -->

<svg
   width="30.60404mm"
   height="9.0479002mm"
   viewBox="0 0 30.60404 9.0479007"
   version="1.1"
   id="svg33402"
   sodipodi:docname="inkporter-svg-e7qp_36f.svg"
   inkscape:version="1.1.1 (3bf5ae0d25, 2021-09-20)"
   xmlns:inkscape="http://www.inkscape.org/namespaces/inkscape"
   xmlns:sodipodi="http://sodipodi.sourceforge.net/DTD/sodipodi-0.dtd"
   xmlns="http://www.w3.org/2000/svg"
   xmlns:svg="http://www.w3.org/2000/svg">
  <sodipodi:namedview
     id="namedview555"
     pagecolor="#ffffff"
     bordercolor="#666666"
     borderopacity="1.0"
     inkscape:pageshadow="2"
     inkscape:pageopacity="0.0"
     inkscape:pagecheckerboard="0"
     inkscape:document-units="mm"
     showgrid="false"
     inkscape:zoom="0.32"
     inkscape:cx="889.0625"
     inkscape:cy="4120.3125"
     inkscape:window-width="1920"
     inkscape:window-height="1017"
     inkscape:window-x="-8"
     inkscape:window-y="-8"
     inkscape:window-maximized="1"
     inkscape:current-layer="svg33402" />
  <defs
     id="defs13927" />
  <path
     d="m 27.32847,3.0307 c 0.0155,0 0.0328,-0.01 0.0519,-0.01 0.20567,0 0.1838,0.273 0.1838,0.273 h 0.17639 l 0.0663,-0.1478 h 0.94968 l 0.11783,0.2576 h 0.36795 l 0.58173,0.3464 c 0,0 0.17462,-0.4547 0.58137,-0.545 0.066,-0.014 0.19862,-0.022 0.19862,-0.022 v 0.2945 c 0,0 -0.25753,0.022 -0.31644,0.067 -0.0589,0.044 -0.2279,0.3235 -0.2279,0.3235 l 0.0148,0.2794 -0.22119,0.082 -0.16934,0.3609 0.0289,0.1619 -0.12453,0.051 0.007,0.2283 c 0,0 0.23565,0.1545 0.12523,0.3824 -0.11006,0.2286 -0.35348,0.6043 -0.35348,0.6043 l -0.18345,0.059 0.31609,0.4128 -0.14711,0.058 -0.41204,-0.4565 H 28.71974 V 6.2977 H 28.60227 V 6.7024 H 28.45445 V 6.2533 H 28.2636 l -0.19897,0.3295 c 0.0162,0.049 0.0307,0.1019 0.0434,0.1573 l 0.11572,-0.046 0.0363,0.09 -0.133,0.054 c 0.0173,0.103 0.0261,0.2127 0.0194,0.3239 h 0.15381 l -0.003,0.097 h -0.1591 c -0.0138,0.1002 -0.0402,0.1996 -0.084,0.2963 l 0.13582,0.069 -0.0441,0.087 -0.13582,-0.069 c -0.0688,0.1171 -0.16545,0.2265 -0.30021,0.3207 l 0.091,0.1249 -0.0787,0.057 -0.0945,-0.1292 c -0.0265,0.016 -0.0547,0.031 -0.0843,0.047 -0.079,0.039 -0.16475,0.079 -0.25612,0.1196 l 0.0755,0.1553 -0.0871,0.042 -0.078,-0.1591 c -0.12454,0.053 -0.25789,0.1054 -0.39547,0.1562 l 0.0508,0.1874 -0.0942,0.025 -0.048,-0.1793 c -0.0878,0.032 -0.17745,0.062 -0.26776,0.092 l 0.043,0.1605 -0.0942,0.025 -0.0413,-0.1556 c -0.13512,0.044 -0.27058,0.085 -0.40429,0.1228 l 0.0497,0.1862 -0.0935,0.025 -0.0501,-0.1859 c -0.0928,0.026 -0.18415,0.049 -0.27305,0.071 l 0.0505,0.1884 -0.0938,0.025 -0.0515,-0.1916 c -0.17921,0.041 -0.34678,0.072 -0.49178,0.092 v 0.1831 h -0.0974 V 8.8756 c -0.0649,0.01 -0.12418,0.01 -0.17745,0.01 h -0.10477 v 0.1623 h -0.097 V 8.8856 h -0.47695 v 0.1623 h -0.0974 V 8.8856 h -0.28222 v 0.1623 h -0.0974 V 8.8856 h -0.34396 v 0.1623 h -0.0974 V 8.8856 H 22.8385 v 0.1623 h -0.097 V 8.8856 H 22.3157 V 9.0479 H 22.219 V 8.8856 h -0.28293 v 0.1623 h -0.097 V 8.8856 h -0.47695 v 0.1623 h -0.097 V 8.8856 h -0.28257 v 0.1623 h -0.0967 V 8.8856 h -0.34431 v 0.1623 h -0.0977 V 8.8856 h -0.28152 l -3.5e-4,0.1623 h -0.0977 V 8.8856 h -0.4311 v 0.1623 h -0.0967 V 8.8856 H 19.2539 v 0.1623 h -0.097 V 8.8856 h -0.47695 v 0.1623 h -0.0974 V 8.8856 h -0.28257 v 0.1623 h -0.0967 V 8.8856 h -0.34431 v 0.1623 h -0.097 V 8.8856 H 17.4794 v 0.1623 h -0.097 V 8.8856 h -0.40216 v 0.1623 h -0.0977 V 8.8856 h -0.28187 v 0.1623 h -0.0977 V 8.8856 h -0.47661 v 0.1623 h -0.0974 V 8.8856 h -0.28258 v 0.1623 h -0.0967 V 8.8856 h -0.34466 v 0.1623 h -0.097 V 8.8856 H 14.8258 V 9.0479 H 14.7284 V 8.8856 h -0.36231 v 0.1623 h -0.0974 V 8.8856 h -0.28258 v 0.1623 h -0.097 V 8.8856 h -0.47696 v 0.1623 h -0.097 V 8.8856 h -0.28222 v 0.1623 h -0.0974 V 8.8856 h -0.34431 v 0.1623 h -0.0974 V 8.8856 h -0.20814 c -0.0219,0 -0.0469,0 -0.0741,-0.01 v 0.1679 h -0.097 V 8.8569 c -0.0776,-0.019 -0.16615,-0.047 -0.26352,-0.083 l -0.0924,0.1817 -0.0868,-0.044 0.0878,-0.1722 c -0.0826,-0.033 -0.16969,-0.07 -0.26035,-0.1115 l -0.0794,0.1556 -0.0864,-0.044 0.0776,-0.1524 C 11.27246,8.5231 11.12783,8.4516 10.98354,8.3768 l -0.0748,0.1461 -0.0868,-0.044 0.0751,-0.1471 c -0.0836,-0.044 -0.16687,-0.088 -0.24906,-0.1334 l -0.0776,0.1524 -0.0864,-0.044 0.079,-0.1548 C 10.45891,8.094 10.35766,8.0373 10.26276,7.9826 l -0.0854,0.168 -0.0868,-0.044 0.0882,-0.1725 C 10.09096,7.8831 10.00908,7.8339 9.9353497,7.7894 l -0.0963,0.1891 -0.0864,-0.044 0.0998,-0.1958 c -0.11782,-0.073 -0.20778,-0.1319 -0.25788,-0.169 -0.0324,-0.023 -0.0642,-0.051 -0.0953,-0.083 l -0.11782,0.1401 -0.0744,-0.062 0.127,-0.1513 c -0.0878,-0.1091 -0.16792,-0.2484 -0.22684,-0.4047 l -0.2039,0.074 -0.0335,-0.091 0.20567,-0.075 c -0.0335,-0.1051 -0.0568,-0.2169 -0.0674,-0.3312 h -0.18133 l 0.002,-0.097 h 0.17392 c -0.002,-0.096 0.005,-0.1926 0.0233,-0.2886 h -0.2286 l -0.17639,0.1252 h -0.26493 V 6.1707 c 0,0 0.27234,-0.4561 0.44873,-0.8615 0.17709,-0.4046 0.94227,-0.7359 1.1045503,-0.7803 0.16192,-0.044 0.56621,-0.036 0.56621,-0.036 L 10.42102,4.3528 V 4.2354 H 9.9726397 V 4.1323 H 10.28873 l 0.0667,-0.1771 H 10.2302 V 3.4476 h 0.27199 c 0,0 0.096,0.1252 0.096,0.2501 0,0.1249 -0.10336,0.2727 -0.10336,0.2727 v 0.088 l 0.0885,0.052 h 0.16933 c 0,0 -0.0152,-0.059 -0.0152,-0.1982 0,-0.1401 0.44168,-0.3902 0.55951,-0.4124 0.11782,-0.022 0.3683,0 0.3683,0 l 0.27975,-0.2209 0.22825,0.044 V 3.161 h 0.49247 l 0.0963,0.1104 h 0.49283 l 0.15487,-0.1397 h 0.83891 l 0.0956,0.1175 h 0.35736 L 14.75701,3.07 14.67091,3.012 c 0,0 -0.115,0.1922 -0.29668,0.068 C 14.20666,2.9646 13.68702,2.8171 13.48135,2.803 l -0.0187,4e-4 c -0.97896,0.015 -0.92781,0 -0.92781,0 H 12.13762 L 12.04202,2.6711 H 9.3700797 V 2.5533 L 1.72257,2.4573 1.67107,2.5163 1.10416,2.5823 0.84663,2.7216 H 0.70658 L 0.61878,2.6336 H 0.16193 L 0,2.4646 V 2.0967 L 0.18415,1.8981 h 0.44133 l 0.0667,-0.088 h 0.1838 l 0.21343,0.1767 0.53763,0.029 0.11042,0.073 7.6252997,-0.037 V 1.9343 H 12.03469 l 0.11042,-0.1471 h 0.40464 c 0,0 0.26882,0.018 0.67733,0.015 0.33444,-0.034 0.76483,-0.1001 0.93698,-0.2243 0.17216,-0.1242 0.37289,-0.3828 0.37289,-0.3828 0,0 0.21061,0.057 0.26776,0.1528 0.0575,0.096 0.0861,0.2106 0.0861,0.2106 L 15.1875,1.2812 15.64646,1.1862 V 1.0712 L 15.8666,0.851 h 0.1337 l 0.22225,0.2156 0.6477,-0.1348 V 0.4683 h 0.17215 v 0.4283 l 0.22014,-0.046 V 0.6787 l 0.55492,-0.1241 v 0.1809 l 0.41134,-0.085 h 0.31503 l 0.18203,-0.23 V 0 h 2.40065 v 0.3637 l 0.28681,0.2674 2.78236,0.3257 0.19156,-0.1916 0.21625,0.2395 0.24306,0.028 0.067,0.1722 0.24836,0.01 0.72672,1.5974 -0.23918,0.2963 H 24.3297 v 0.082 l 1.04105,0.01 h 0.44133 l 0.14711,-0.1182 h 0.72107 l 0.10337,0.103 h 0.16192 l 0.0441,0.096 h 0.20602 c 0,0 -0.0145,-0.1675 0.0885,-0.2321 M 0.77786,2.0679 V 2.4831 L 1.17121,2.3941 V 2.156 Z M 0.20212,2.4545 H 0.59371 V 2.1141 H 0.20212 Z m 27.67401,5.1202 c -0.0716,0.1013 -0.15628,0.193 -0.25541,0.2664 0.11395,-0.076 0.1965,-0.1679 0.25541,-0.2664 m -0.39899,0.356 c -0.0836,0.042 -0.17392,0.073 -0.26917,0.09 l 0.0145,0.029 c 0.09,-0.04 0.17569,-0.079 0.25471,-0.1189 m -0.34431,0.1573 -0.0268,-0.054 c -0.0251,0 -0.0505,0 -0.0759,0 -0.34361,0 -0.647,-0.1749 -0.82409,-0.4413 H 25.878 C 25.8653,7.923 25.7196,8.2193 25.49312,8.4289 l 0.048,0.1782 c 0.0885,-0.022 0.17992,-0.045 0.27341,-0.071 l -0.06,-0.2223 0.0942,-0.025 0.0596,0.2212 c 0.13264,-0.038 0.26846,-0.079 0.40393,-0.1224 l -0.0677,-0.2519 0.0938,-0.025 0.066,0.2469 c 0.0903,-0.03 0.17992,-0.061 0.26776,-0.092 l -0.061,-0.2275 0.0942,-0.025 0.0586,0.2194 c 0.12806,-0.048 0.25224,-0.097 0.36901,-0.146 M 25.4463,8.6301 25.4114,8.4996 c -0.12277,0.095 -0.26458,0.1661 -0.41875,0.2078 0.13406,-0.011 0.28822,-0.04 0.45368,-0.077 M 9.2502997,6.4929 c 0.0116,-0.1002 0.0265,-0.1983 0.0526,-0.2907 h -0.0261 c -0.0215,0.096 -0.0293,0.194 -0.0265,0.2907 m 0.35172,0.8742 c 0.0215,0.039 0.0504,0.065 0.0797,0.086 0.0328,0.024 0.0811,0.056 0.14111,0.095 -0.0794,-0.054 -0.15381,-0.114 -0.22084,-0.1817 m -0.0713,-0.066 c -0.0321,-0.052 -0.0663,-0.099 -0.0967,-0.1496 0.03,0.054 0.0624,0.1048 0.0967,0.1496 M 11.82621,8.6113 c -0.0843,-0.046 -0.16263,-0.1002 -0.23354,-0.163 l -0.0264,0.052 c 0.091,0.041 0.1785,0.079 0.25999,0.1111 m -0.34819,-0.152 0.0413,-0.081 C 11.32428,8.1745 11.20081,7.9021 11.18811,7.6009 h -0.19579 c -0.16087,0.08 -0.34255,0.1256 -0.53411,0.1256 -0.0208,0 -0.0416,-7e-4 -0.0621,0 l -0.0663,0.1294 c 0.0956,0.055 0.19614,0.1115 0.30021,0.1694 l 0.11254,-0.2212 0.0868,0.044 -0.11394,0.224 c 0.0818,0.044 0.1651,0.09 0.2487,0.1333 l 0.11677,-0.2289 0.0868,0.044 -0.11713,0.23 c 0.145,0.075 0.28963,0.1467 0.42757,0.211 m -1.23225,-0.6548 0.0459,-0.09 c -0.0974,-0.013 -0.1905,-0.039 -0.2787,-0.074 l -0.0102,0.02 c 0.0734,0.044 0.15523,0.093 0.24307,0.1439 m 4.12044,0.8255 V 8.7394 H 14.7287 V 8.4995 c -0.0258,-0.02 -0.0512,-0.041 -0.0748,-0.063 -0.0854,0.078 -0.18239,0.1439 -0.28752,0.1954 m -0.0974,0.1073 v -0.066 c -0.0826,0.031 -0.16934,0.053 -0.25894,0.066 z m -0.85655,-0.068 v 0.068 h 0.26564 c -0.0924,-0.013 -0.18097,-0.036 -0.26564,-0.068 m -0.097,0.068 V 8.6284 c -0.0709,-0.035 -0.13829,-0.077 -0.19967,-0.1245 -0.0272,0.021 -0.0547,0.04 -0.0826,0.058 V 8.739 Z m -0.37959,0 v -0.121 c -0.10619,0.055 -0.2226,0.094 -0.34431,0.115 z m 3.66501,-0.075 v 0.075 h 0.28187 c -0.0984,-0.013 -0.19297,-0.039 -0.28187,-0.075 m -0.0977,0.075 V 8.6206 c -0.09,-0.045 -0.17322,-0.1019 -0.24836,-0.1675 -0.0695,0.061 -0.1464,0.1136 -0.22825,0.1573 v 0.1288 z m -0.57397,0 v -0.082 c -0.0889,0.037 -0.1838,0.065 -0.28258,0.08 z m -0.7239,-0.017 v 0.017 h 0.0924 c -0.0314,0 -0.0621,-0.01 -0.0924,-0.017 m -0.097,0.017 V 8.6972 C 15.0081,8.6662 14.91285,8.6222 14.82606,8.5673 v 0.1719 z m 4.52508,-0.077 v 0.077 h 0.28646 c -0.0998,-0.014 -0.19544,-0.04 -0.28646,-0.077 m -0.0967,0.077 V 8.6178 c -0.0787,-0.041 -0.15275,-0.09 -0.22013,-0.1457 -0.0205,0.017 -0.0413,0.033 -0.0624,0.048 v 0.2187 z m -0.37959,0 V 8.5847 c -0.1337,0.079 -0.28363,0.1322 -0.44414,0.1545 z m -0.85689,-0.014 v 0.014 h 0.0815 c -0.0272,0 -0.0547,-0.01 -0.0815,-0.014 m -0.0967,0.014 V 8.7002 C 18.07859,8.6632 17.96288,8.6062 17.85917,8.5337 V 8.739 Z m -0.44133,0 V 8.5137 c -0.0861,0.064 -0.18133,0.1168 -0.28257,0.1563 v 0.069 z m -0.37959,0 v -0.036 c -0.0557,0.016 -0.11218,0.028 -0.17039,0.036 z m 4.93325,-0.2188 v 0.2188 h 0.4258 v -0.067 c -0.12982,-0.05 -0.24871,-0.1214 -0.35207,-0.2096 -0.0236,0.02 -0.0483,0.039 -0.0737,0.058 m -0.0967,0.2188 V 8.5848 c -0.0879,0.051 -0.18274,0.092 -0.28293,0.121 v 0.034 z m -0.37995,0 c -0.0212,-0.01 -0.0427,0 -0.0639,0 z m -0.47695,-0.014 v 0.014 h 0.0811 c -0.0272,0 -0.054,-0.01 -0.0811,-0.014 m -0.097,0.014 v -0.039 c -0.0998,-0.03 -0.19508,-0.073 -0.28257,-0.126 v 0.1648 z m -0.37923,0 V 8.5079 l -0.0385,-0.03 c -0.0914,0.075 -0.19474,0.1373 -0.30586,0.1831 v 0.078 z m -0.44203,0 v -0.043 c -0.0617,0.02 -0.1263,0.034 -0.19191,0.043 z m 3.59516,-0.1736 v 0.1736 h 0.47695 C 24.34252,8.7164 24.1806,8.6554 24.03914,8.5658 m -0.0974,0.1736 V 8.4977 l -0.0173,-0.013 c -0.0804,0.065 -0.16898,0.1196 -0.26493,0.1623 V 8.74 Z m -0.37959,0 v -0.054 c -0.0727,0.025 -0.14817,0.043 -0.22648,0.054 z M 22.8386,8.7044 v 0.035 h 0.16546 c -0.0568,-0.01 -0.11219,-0.019 -0.16546,-0.035"
     id="G-TigerII" />
</svg>
