<?xml version="1.0" encoding="UTF-8" standalone="no"?>
<!-- Created with Inkscape (http://www.inkscape.org/) -->

<svg
   width="14.63602mm"
   height="5.7446499mm"
   viewBox="0 0 14.63602 5.7446499"
   version="1.1"
   id="svg4364"
   sodipodi:docname="inkporter-svg-cttyb8wf.svg"
   xmlns:inkscape="http://www.inkscape.org/namespaces/inkscape"
   xmlns:sodipodi="http://sodipodi.sourceforge.net/DTD/sodipodi-0.dtd"
   xmlns="http://www.w3.org/2000/svg"
   xmlns:svg="http://www.w3.org/2000/svg">
  <sodipodi:namedview
     id="namedview4366"
     pagecolor="#ffffff"
     bordercolor="#666666"
     borderopacity="1.0"
     inkscape:pageshadow="2"
     inkscape:pageopacity="0.0"
     inkscape:pagecheckerboard="0"
     inkscape:document-units="mm"
     showgrid="false"
     inkscape:zoom="0.64052329"
     inkscape:cx="587.02003"
     inkscape:cy="217.79068"
     inkscape:window-width="1920"
     inkscape:window-height="1017"
     inkscape:window-x="-8"
     inkscape:window-y="-8"
     inkscape:window-maximized="1"
     inkscape:current-layer="layer1" />
  <defs
     id="defs4361">
    <clipPath
       clipPathUnits="userSpaceOnUse"
       id="clipPath75985-4-7-9">
      <path
         d="M 0,0 H 595.276 V 841.89 H 0 Z"
         id="path75983-4-1-6" />
    </clipPath>
  </defs>
  <g
     inkscape:label="Layer 1"
     inkscape:groupmode="layer"
     id="layer1"
     transform="translate(-118.57143,-131.70695)">
    <path
       d="m 132.59237,134.10258 0.0311,-0.0476 -0.32985,-0.31785 h 0.26247 l 0.14322,0.0988 c -0.005,0.0208 -0.008,0.042 -0.008,0.0642 0,0.0822 0.0388,0.15522 0.0984,0.20249 z m 0.16651,0.26635 h -0.0677 l -0.18203,-0.13935 0.031,-0.0476 h 0.21872 z m -1.6256,2.5266 c 7.1e-4,-3.6e-4 0.002,-0.001 0.002,-0.002 l -7e-4,0.002 z m -1.69157,0.38735 h -0.001 c 0.2533,-0.11607 0.43392,-0.36231 0.45614,-0.65335 h 0.091 c 0.0882,0.22578 0.28822,0.39547 0.53199,0.44133 z m -9.2463,-0.47908 c 0.16439,-0.0134 0.31432,-0.0762 0.43427,-0.17427 h 0.62406 c 0.0187,0.23954 0.14393,0.44874 0.32914,0.58032 z m -0.54116,-0.16016 c 7e-4,7.1e-4 0.002,0.001 0.003,0.002 l -0.002,-7.1e-4 z m -0.53623,-0.77717 c -0.0473,0 -0.0854,-0.0381 -0.0854,-0.0854 0,-0.0473 0.0381,-0.0854 0.0854,-0.0854 0.0473,0 0.0854,0.0381 0.0854,0.0854 0,0.0473 -0.0381,0.0854 -0.0854,0.0854 m 1.08585,0.76306 h 0.13512 c -0.0434,0.0145 -0.0885,0.0247 -0.13512,0.03 z m -0.59125,-0.23107 0.0416,-0.0236 0.32385,0.2547 h 0.0829 v 0.03 c -0.18415,-0.0205 -0.34431,-0.11889 -0.44838,-0.26106 m 5.44301,-3.60715 h 0.24377 v 0.26247 h -0.24377 z m 0,-0.58385 h 0.24377 v 0.2286 h -0.24377 z m 2.25213,0.2286 h -1.84115 v -0.2286 h 1.84115 z m 0,0.98813 -0.39335,-0.0603 v -0.31009 h -1.4478 v -0.26247 h 1.84115 z m 2.05669,3.20534 h 0.38912 c -0.007,0.0677 -0.0236,0.133 -0.0494,0.19297 z m -0.17991,0.14005 c 0.0254,-0.009 0.048,-0.0222 0.0681,-0.0395 l 0.37995,0.21661 c -0.10372,0.14217 -0.26423,0.24095 -0.44803,0.26105 z m -0.32279,-0.14005 -0.33973,0.19297 c -0.0261,-0.06 -0.043,-0.12523 -0.0494,-0.19297 z m 0.17991,0.14005 v 0.43815 c -0.18415,-0.0201 -0.34431,-0.11888 -0.44838,-0.26105 l 0.3803,-0.21661 c 0.0197,0.0173 0.0427,0.0307 0.0681,0.0395 m -0.89993,-0.14005 h 0.18803 c 0.0222,0.29104 0.20284,0.53728 0.45614,0.65335 h -1.10031 c 0.25329,-0.11607 0.43391,-0.36231 0.45614,-0.65335 m -0.53199,0 h 0.38876 c -0.006,0.0677 -0.0233,0.133 -0.049,0.19297 z m -0.17992,0.14005 c 0.025,-0.009 0.048,-0.0222 0.0677,-0.0395 l 0.3803,0.21661 c -0.10372,0.14217 -0.26388,0.24095 -0.44803,0.26105 z m -0.66252,0.0529 c -0.0261,-0.06 -0.043,-0.12523 -0.0494,-0.19297 h 0.38911 z m 0.51929,-0.0529 v 0.43815 c -0.18344,-0.0201 -0.34395,-0.11888 -0.44802,-0.26105 l 0.38029,-0.21661 c 0.0201,0.0173 0.0427,0.0307 0.0677,0.0395 m -0.89923,-0.14005 h 0.18733 c 0.0226,0.29104 0.2032,0.53728 0.45649,0.65335 h -1.10031 c 0.25365,-0.11607 0.43392,-0.36231 0.45649,-0.65335 m -0.53199,0 h 0.38877 c -0.007,0.0677 -0.0233,0.133 -0.0494,0.19297 z m -0.18027,0.14005 c 0.0254,-0.009 0.0483,-0.0222 0.0681,-0.0395 l 0.37994,0.21661 c -0.10371,0.14217 -0.26423,0.24095 -0.44803,0.26105 z m -0.66216,0.0529 c -0.0265,-0.06 -0.043,-0.12523 -0.0497,-0.19297 h 0.38911 z m 0.51929,-0.0529 v 0.43815 c -0.1838,-0.0201 -0.34431,-0.11888 -0.44803,-0.26105 l 0.37994,-0.21661 c 0.0198,0.0173 0.0427,0.0307 0.0681,0.0395 m -0.95673,-0.14005 h 0.24447 c 0.0226,0.29104 0.20285,0.53728 0.45614,0.65335 h -1.15676 c 0.2533,-0.11607 0.43392,-0.36231 0.45615,-0.65335 m -1.0347,0 -0.33973,0.19297 c -0.0261,-0.06 -0.043,-0.12523 -0.0494,-0.19297 z m 0.17956,0.14005 v 0.43815 c -0.18379,-0.0201 -0.34396,-0.11888 -0.44802,-0.26105 l 0.38029,-0.21661 c 0.0201,0.0173 0.0427,0.0307 0.0677,0.0395 m 0.59126,0.1771 c -0.10372,0.14217 -0.26388,0.24095 -0.44803,0.26105 v -0.43815 c 0.025,-0.009 0.048,-0.0222 0.0677,-0.0395 z m 0.12065,-0.31715 c -0.006,0.0677 -0.0233,0.133 -0.049,0.19297 l -0.33972,-0.19297 z m -1.61114,0 h 0.18733 c 0.0226,0.29104 0.2032,0.53728 0.45649,0.65335 h -1.10031 c 0.25329,-0.11607 0.43391,-0.36231 0.45649,-0.65335 m -0.92322,0.10054 c 0.0198,0.0173 0.0427,0.0307 0.0677,0.0395 v 0.43815 c -0.18345,-0.0201 -0.34396,-0.11888 -0.44768,-0.26105 z m -0.11183,-0.10054 -0.33972,0.19297 c -0.0261,-0.06 -0.0427,-0.12523 -0.0494,-0.19297 z m 0.77082,0.31715 c -0.10371,0.14217 -0.26423,0.24095 -0.44803,0.26105 v -0.43815 c 0.0251,-0.009 0.0483,-0.0222 0.0681,-0.0395 z m 0.12065,-0.31715 c -0.006,0.0677 -0.0229,0.133 -0.0494,0.19297 l -0.33902,-0.19297 z m 8.16575,-0.22578 c 0.002,-0.0109 0.003,-0.0222 0.003,-0.0339 0,-0.012 -0.001,-0.0229 -0.003,-0.0342 l 0.34466,-0.1965 c 0.0307,0.0706 0.0476,0.14852 0.0476,0.23072 0,0.0818 -0.0169,0.15981 -0.0476,0.23071 z m -0.12665,0.5461 v -0.39722 c 0.0229,-0.008 0.0438,-0.0205 0.0617,-0.0363 l 0.34501,0.19685 c -0.0945,0.12912 -0.23988,0.21837 -0.40675,0.23671 m -0.19156,-0.43356 c 0.0183,0.0159 0.0388,0.0282 0.0617,0.0363 v 0.39722 c -0.16686,-0.0183 -0.31221,-0.10759 -0.4064,-0.23671 z m 0.47766,-0.49495 0.10266,-0.0162 c 0.006,0.007 0.0123,0.0137 0.018,0.0215 l -0.34501,0.19615 c -0.008,-0.007 -0.0169,-0.013 -0.0265,-0.0187 z m 1.94699,-2.37948 c -0.0727,0 -0.13759,0.0296 -0.18451,0.0773 l -0.18133,-0.16899 h -0.48401 l -0.11959,-0.115 h -4.50532 v -0.64382 h 1.03681 v -0.35525 h -1.03681 v -0.2286 h 1.03681 v -0.35524 h -1.03681 v -0.10972 h -0.16722 v 0.10972 h -1.84115 v -0.10972 h -0.16721 v 0.10972 h -0.24377 v -0.14535 h -0.3997 l -0.0773,0.11324 v 0.0321 h -0.88194 v 0.35524 h 0.88194 v 0.2286 h -0.88194 v 0.35525 h 0.88194 v 0.0776 l 0.22895,0.18486 h -0.25258 l -0.41734,0.82479 h -1.33491 l -2.54071,0.42298 c -0.025,-0.0589 -0.0924,-0.13158 -0.27622,-0.13158 h -0.22225 v 0.0875 h -0.32562 v 0.0952 h 0.36125 v 0.0258 l -0.48825,0.0815 v 0.10125 l -0.64382,-0.14852 -0.0956,0.30162 0.60819,0.127 v 0.048 h -0.0914 v 0.15099 h 0.2226 v 0.37147 l -0.3817,0.23213 v 0.33373 h 0.30092 c -0.0194,0.0628 -0.0335,0.13617 -0.0187,0.19508 0.0318,0.127 0.0631,0.3175 0.22648,0.45685 0.16299,0.139 0.48895,0.3295 0.83856,0.393 0.34925,0.0639 1.53317,0.42897 1.53317,0.42897 h 7.63552 l 1.15993,-0.19861 c 0,0 0.5327,-0.15064 0.62019,-0.27023 0.0871,-0.11888 0.23812,-0.29386 0.22225,-0.5401 -0.0106,-0.16686 -0.054,-0.35525 -0.0984,-0.47696 l 0.0229,-0.004 0.73554,-1.12078 h 0.38489 v -0.26176 c 0,-0.0183 -0.10231,-0.018 -0.20426,-0.0134 l 0.18521,-0.28257 c 0.0815,0.067 0.19685,0.16157 0.2039,0.16863 0.0109,0.0109 0.16087,0 0.16087,0 v -0.31962 c 0.0335,0.0162 0.0713,0.0258 0.11148,0.0258 0.14216,0 0.25788,-0.11606 0.25788,-0.25823 0,-0.14287 -0.11572,-0.25823 -0.25788,-0.25823"
       id="G-Wanze"
       style="stroke-width:0.352778" />
  </g>
</svg>
