<?xml version="1.0" encoding="UTF-8" standalone="no"?>
<!-- Created with Inkscape (http://www.inkscape.org/) -->

<svg
   width="24.116594mm"
   height="8.198947mm"
   viewBox="0 0 24.116594 8.1989474"
   version="1.1"
   id="svg33402"
   sodipodi:docname="inkporter-svg-e7qp_36f.svg"
   inkscape:version="1.1.1 (3bf5ae0d25, 2021-09-20)"
   xmlns:inkscape="http://www.inkscape.org/namespaces/inkscape"
   xmlns:sodipodi="http://sodipodi.sourceforge.net/DTD/sodipodi-0.dtd"
   xmlns="http://www.w3.org/2000/svg"
   xmlns:svg="http://www.w3.org/2000/svg">
  <sodipodi:namedview
     id="namedview555"
     pagecolor="#ffffff"
     bordercolor="#666666"
     borderopacity="1.0"
     inkscape:pageshadow="2"
     inkscape:pageopacity="0.0"
     inkscape:pagecheckerboard="0"
     inkscape:document-units="mm"
     showgrid="false"
     inkscape:zoom="0.32"
     inkscape:cx="889.0625"
     inkscape:cy="4120.3125"
     inkscape:window-width="1920"
     inkscape:window-height="1017"
     inkscape:window-x="-8"
     inkscape:window-y="-8"
     inkscape:window-maximized="1"
     inkscape:current-layer="svg33402" />
  <defs
     id="defs13927" />
  <g
     id="G-Waffentrager"
     transform="matrix(0.35277777,0,0,-0.35277777,6.6477443,6.2562002)">
    <path
       d="M 0,0 0.662,-0.14 0.822,-0.407 0.713,-1.093 C 0.227,-0.827 0.059,-0.328 0,0 M 1.891,-1.174 C 1.708,-1.259 1.447,-1.319 1.115,-1.244 l 0.027,0.272 0.32,0.283 z m 0.428,-0.853 c 0,0 -0.181,-0.306 -0.303,-0.518 l -0.161,0.058 0.006,0.149 0.113,0.438 0.144,0.074 0.246,-0.215 z m 4.855,0.639 C 7.166,-1.483 7.161,-1.579 7.161,-1.676 c 0,-0.868 0.348,-1.654 0.912,-2.228 l -0.034,0.01 c 0,0 -0.222,-0.378 -0.34,-0.584 L 7.572,-4.445 7.6,-3.764 7.108,-3.619 c 0,0 -0.241,-0.41 -0.354,-0.608 l -0.084,0.022 -0.019,0.007 0.028,0.706 -0.491,0.146 c 0,0 -0.212,-0.36 -0.332,-0.569 l -0.205,0.073 0.028,0.709 -0.491,0.145 c 0,0 -0.213,-0.361 -0.333,-0.569 l -0.133,0.048 0.026,0.652 -0.491,0.145 c 0,0 -0.184,-0.312 -0.306,-0.523 l -0.148,0.053 0.024,0.598 -0.491,0.144 c 0,0 -0.159,-0.268 -0.279,-0.475 l -0.273,0.097 0.025,0.645 -0.301,0.09 v 0.407 c 0.113,0.062 0.269,0.183 0.397,0.288 z M 8.521,-4.283 C 8.616,-4.349 8.714,-4.411 8.816,-4.467 8.797,-4.545 8.777,-4.627 8.758,-4.703 l -0.252,0.046 z m 10.668,-0.446 c 0.062,0.018 0.124,0.037 0.184,0.059 -0.011,-0.047 -0.022,-0.092 -0.032,-0.133 h -0.133 z m -1.946,0.054 c 0.061,-0.022 0.122,-0.04 0.183,-0.058 -0.005,-0.024 -0.01,-0.048 -0.016,-0.07 h -0.134 z m -5.827,0.006 c 0.075,0.027 0.149,0.058 0.222,0.091 -0.02,-0.08 -0.039,-0.158 -0.054,-0.225 H 11.45 Z M 9.705,-4.803 H 9.561 L 9.55,-4.757 C 9.601,-4.77 9.655,-4.782 9.708,-4.793 9.707,-4.796 9.706,-4.8 9.705,-4.803 m 6.398,0.63 H 15.59 c 0,0 -0.098,-0.395 -0.154,-0.63 h -0.145 l -0.159,0.63 h -0.513 c 0,0 -0.098,-0.395 -0.155,-0.63 h -0.133 l -0.16,0.63 h -0.512 c 0,0 -0.099,-0.395 -0.155,-0.63 H 13.38 l -0.158,0.63 h -0.513 c 0,0 -0.098,-0.395 -0.155,-0.63 H 12.41 l -0.15,0.592 c 0.617,0.468 1.057,1.156 1.205,1.946 l 0.461,0.173 h 0.661 L 15.18,-2.29 c 0.168,-0.856 0.679,-1.587 1.383,-2.049 -0.034,-0.135 -0.081,-0.326 -0.113,-0.464 h -0.188 z m 9.219,-0.084 c -0.033,-0.134 -0.098,-0.399 -0.138,-0.566 h -0.135 l -0.164,0.65 h -0.513 c 0,0 -0.103,-0.415 -0.159,-0.647 h -0.135 l -0.165,0.647 h -0.512 c 0,0 -0.103,-0.41 -0.157,-0.645 -0.044,10e-4 -0.086,10e-4 -0.128,10e-4 l -0.163,0.644 h -0.512 c 0,0 -0.102,-0.407 -0.157,-0.641 -0.062,0 -0.122,0.001 -0.183,0.001 l -0.161,0.64 h -0.513 c 0,0 -0.1,-0.402 -0.156,-0.637 -0.047,0 -0.096,10e-4 -0.142,10e-4 l -0.16,0.636 h -0.513 c 0,0 -0.099,-0.398 -0.155,-0.633 -0.047,0 -0.091,0.001 -0.133,0.001 l -0.12,0.472 c 0.863,0.57 1.432,1.546 1.432,2.657 0,0.097 -0.005,0.193 -0.014,0.288 h 2.546 c -0.008,-0.095 -0.013,-0.191 -0.013,-0.288 0,-1.063 0.522,-2.004 1.323,-2.581 m 11.324,-0.219 c 0.043,0.022 0.084,0.046 0.126,0.071 -0.014,-0.117 -0.031,-0.268 -0.045,-0.394 z m -0.891,-0.32 c 0.053,0.011 0.105,0.022 0.157,0.035 -0.006,-0.027 -0.013,-0.053 -0.018,-0.076 h -0.128 z m -0.949,-0.042 c 0.003,0 0.006,-0.001 0.009,-0.001 h -0.009 z m -1.095,0.321 c 0.096,-0.049 0.195,-0.092 0.297,-0.131 -0.017,-0.07 -0.034,-0.138 -0.047,-0.192 h -0.168 z m -5.774,-0.247 c 0.074,0.018 0.149,0.039 0.221,0.063 -0.012,-0.048 -0.022,-0.093 -0.031,-0.131 h -0.173 z m -1.762,0.07 c -0.011,-0.047 -0.022,-0.093 -0.032,-0.132 h -0.122 l -0.053,0.21 c 0.068,-0.029 0.138,-0.054 0.207,-0.078 m 6.477,0.521 h -0.511 c 0,0 -0.11,-0.438 -0.164,-0.666 h -0.116 l -0.168,0.666 H 31.18 c 0,0 -0.109,-0.437 -0.163,-0.665 H 30.9 l -0.168,0.665 H 30.22 c 0,0 -0.109,-0.434 -0.163,-0.663 h -0.128 l -0.168,0.663 h -0.512 c 0,0 -0.108,-0.432 -0.163,-0.661 h -0.118 l -0.116,0.455 c 0.745,0.462 1.284,1.223 1.451,2.114 l 0.461,0.173 h 0.662 l 0.593,-0.198 c 0.149,-0.759 0.567,-1.422 1.152,-1.883 h -0.059 c 0,0 -0.11,-0.439 -0.164,-0.667 h -0.126 z m 8.954,2.785 c 0.283,-0.505 0.732,-0.904 1.273,-1.124 l -0.395,-0.134 c 0,0 0.043,-0.535 0.064,-0.741 -0.083,-0.033 -0.168,-0.069 -0.256,-0.105 l -0.349,0.541 -0.486,-0.164 c 0,0 0.038,-0.465 0.06,-0.694 -0.037,-0.016 -0.073,-0.031 -0.11,-0.046 l -0.384,0.593 -0.486,-0.163 c 0,0 0.048,-0.581 0.068,-0.765 -0.025,-0.011 -0.049,-0.021 -0.071,-0.031 l -0.421,0.652 -0.485,-0.164 c 0,0 0.048,-0.595 0.067,-0.771 -0.073,-0.019 -0.147,-0.038 -0.221,-0.055 l -0.257,0.652 -0.508,-0.066 c 0,0 -0.069,-0.581 -0.085,-0.763 -0.03,-0.006 -0.058,-0.011 -0.086,-0.016 l -0.285,0.721 -0.507,-0.066 c 0,0 -0.061,-0.514 -0.082,-0.727 -0.03,0 -0.064,-0.001 -0.098,-0.001 l -0.265,0.671 -0.204,-0.026 c 0.744,0.582 1.222,1.487 1.222,2.504 0,0.097 -0.005,0.193 -0.014,0.288 z m 1.815,-1.275 c 0.011,-0.124 0.022,-0.258 0.032,-0.356 -0.032,-0.013 -0.067,-0.026 -0.108,-0.043 l -0.322,0.498 c 0.128,-0.044 0.261,-0.077 0.398,-0.099 M -2.529,0.66 c -0.2,0 -0.363,0.163 -0.363,0.363 0,0.201 0.163,0.363 0.363,0.363 0.201,0 0.363,-0.162 0.363,-0.363 0,-0.2 -0.162,-0.363 -0.363,-0.363 m 25.107,7.283 -0.126,0.13 0.472,0.457 0.125,-0.123 z M 19.424,5.136 19.964,5.659 20.109,5.51 19.573,4.981 Z m 2.223,3.56 h 0.494 c 0.011,-0.021 0.02,-0.04 0.03,-0.059 L 22.003,8.476 Z M 21.696,7.338 22.235,7.863 22.363,7.731 21.826,7.203 Z M 20.938,6.604 21.478,7.128 21.611,6.99 21.076,6.463 Z M 20.721,6.393 20.861,6.25 20.324,5.722 20.181,5.87 Z M 32.663,5.911 V 5.656 c -0.116,0.001 -0.22,0.001 -0.307,0.001 l 0.158,0.254 z m 0.619,0.277 c 0,0 0.822,-0.437 1.238,-0.512 C 34.7,5.644 34.956,5.628 35.186,5.62 35.138,5.426 35.099,5.272 35.079,5.189 35.013,4.921 34.765,4.936 34.737,4.939 L 34.727,4.94 34.568,4.933 v 0.392 l 0.368,0.127 C 34.63,5.565 33.994,5.618 33.399,5.641 v 0.28 l -0.117,0.107 z m 1.28,1.302 c 0.385,0 0.3,-0.288 0.3,-0.288 V 6.807 c 0,0 0.021,-0.555 -0.257,-0.555 -0.277,0 -0.448,0.171 -0.448,0.171 L 34.04,7.202 c 0,0 0.139,0.288 0.522,0.288 m 0.801,-0.608 0.174,0.12 C 35.455,6.677 35.35,6.265 35.26,5.909 l -0.121,0.13 z m 0.541,2.507 h -0.371 v 0.448 h 0.371 z M 33.399,4.975 C 33.467,4.967 33.506,4.961 33.506,4.961 L 34.36,5.254 V 4.924 L 33.399,4.879 Z m -49.409,6.59 c 0,-0.359 -0.545,-0.642 -0.737,-0.642 -0.193,0 -0.16,0.219 -0.16,0.219 v 0.24 0.526 0.24 c 0,0 -0.033,0.219 0.16,0.219 0.192,0 0.737,-0.284 0.737,-0.642 z m -1.553,0.343 v -0.526 -0.387 h -0.574 c -0.252,0 -0.258,0.233 -0.258,0.233 v 0.042 0.75 0.043 c 0,0 0.006,0.232 0.258,0.232 h 0.574 z M 49.518,0.405 h -0.155 v -0.24 h -1.238 l -0.123,0.667 h -0.136 l -0.328,1.686 -0.631,0.443 0.29,0.282 v 0.555 h -1.481 l -0.547,0.384 h -1.152 v 0.257 h -3.97 V 4.182 h -2.198 v 0.257 h -0.64 V 4.182 h -6.317 v 0.257 h -0.533 v 0.287 h 1.419 l 0.139,0.224 c 0.209,0.062 0.484,0.079 0.746,0.076 V 4.598 h 0.736 v 0.024 l 1.32,0.062 c 0.174,-0.014 0.513,0.058 0.608,0.444 0.023,0.09 0.067,0.267 0.122,0.485 0.174,-0.002 0.298,-0.001 0.298,-0.001 v 0.213 l -0.239,0.023 c 0.119,0.471 0.264,1.039 0.35,1.374 l 0.017,0.012 h 0.502 v 0.917 h -0.843 v 0.598 h 0.37 V 8.502 h 0.336 v 0.295 h 0.24 V 9.31 h -0.24 v 0.527 h 0.841 l 0.224,-0.159 h 2.811 L 39.486,8.641 C 39.43,8.55 39.459,8.432 39.55,8.377 c 0.031,-0.019 0.066,-0.028 0.1,-0.028 0.064,0 0.128,0.033 0.164,0.092 l 0.751,1.237 h 0.603 v 2.528 l -0.79,1.377 h -6.605 v 3.724 l -1.942,-0.064 -0.396,-0.399 -0.426,0.41 c 0,0 -0.074,0.139 0.043,0.256 0.118,0.117 0.267,0.022 0.267,0.022 l 0.074,0.095 c 0,0 -0.186,0.241 -0.426,0 -0.24,-0.24 -0.086,-0.438 -0.086,-0.438 l 0.441,-0.458 -0.413,-0.414 -0.401,0.339 -0.267,-0.245 0.363,-0.402 -0.688,-0.69 -0.23,-0.018 -2.123,-2.091 0.121,-0.135 -0.068,-0.068 H 26.47 l 3.506,2.936 -0.089,0.107 -1.252,-1.049 -0.541,0.048 -2.425,-2.042 h -5.672 v -0.17 H 9.279 V 13.01 H 9.063 V 12.758 H 8.902 V 12.685 H 8.686 v 0.116 H 8.51 V 12.46 l -22.721,-0.252 v 0.006 c -0.023,0.016 -0.415,0.257 -0.415,0.257 h -0.625 c 0,0 -1.376,0.103 -1.784,0.512 0,0 -0.033,0.096 -0.12,0 -0.088,-0.096 -0.353,-0.363 -0.776,-0.363 h -0.584 c 0,0 -0.329,0.019 -0.329,-0.286 V 12.02 11.27 10.955 c 0,-0.304 0.329,-0.285 0.329,-0.285 h 0.584 c 0.423,0 0.688,-0.266 0.776,-0.363 0.087,-0.096 0.12,0 0.12,0 0.408,0.408 1.784,0.512 1.784,0.512 h 0.625 c 0,0 0.392,0.24 0.415,0.257 v 0.006 L 8.51,10.83 v -0.341 h 0.176 v 0.116 h 0.216 v -0.073 h 0.161 v -0.251 h 0.216 v 0.171 H 19.997 V 8.696 h 0.552 L 19.497,7.809 19.468,7.483 19.035,7.12 19.203,6.919 21.324,8.696 h 0.172 l -0.318,-0.31 c 0,0 0.154,-0.306 0.24,-0.478 L 21.25,7.746 20.803,8.023 20.425,7.657 c 0,0 0.154,-0.307 0.24,-0.479 L 20.498,7.016 20.05,7.293 19.673,6.927 c 0,0 0.153,-0.307 0.24,-0.479 L 19.745,6.286 19.298,6.563 18.921,6.197 c 0,0 0.153,-0.307 0.239,-0.479 l -0.372,-0.361 0.22,-0.228 0.349,-0.36 -0.042,-0.043 h 5.046 V 4.182 h -0.533 v 0.257 h -0.64 V 4.182 H 17.746 V 4.439 H 17.105 V 4.182 h -0.512 v 0.235 h -0.555 l -0.042,0.17 h -0.187 l -0.064,0.246 0.214,0.08 v 0.091 l -0.182,0.165 h -0.176 l -0.144,0.501 0.235,-0.106 0.043,0.096 -0.188,0.102 -0.224,0.096 0.011,0.117 h 0.107 l -0.027,0.107 -0.074,0.037 0.016,0.118 h 0.09 l 0.043,0.138 -0.422,0.171 -0.08,0.283 0.033,0.117 h 0.197 l 0.021,0.085 -0.218,0.102 -0.038,0.144 -0.213,-0.032 -0.043,0.25 0.149,0.12 -0.112,0.291 H 14.47 c 0,0.103 -0.011,0.23 -0.144,0.23 -0.133,0 -0.128,-0.193 -0.128,-0.193 H 13.861 L 13.832,7.776 12.52,7.569 12.485,7.746 11.982,7.669 c -0.058,0.071 -0.146,0.104 -0.275,0.104 -0.113,0 -0.169,-0.096 -0.196,-0.175 L 11.258,7.559 11.286,7.375 6.866,6.68 6.76,6.781 6.473,6.743 c 0,0 0.011,0.099 -0.143,0.149 L 7.363,8.53 7.193,8.631 6.118,6.919 H 6.115 C 5.834,6.919 5.793,6.65 5.791,6.51 L 4.557,6.316 4.386,6.466 4.283,6.391 C 4.209,6.439 4.077,6.502 3.996,6.423 3.935,6.362 3.946,6.268 3.984,6.179 L 3.938,6.145 3.831,6.231 3.618,6.103 C 3.276,6.636 2.786,6.423 2.786,6.423 L 2.714,6.379 2.549,6.636 H 1.851 c 0,0 0.009,0.193 -0.143,0.193 -0.152,0 -0.12,-0.297 -0.12,-0.297 C 1.474,6.376 1.411,6.227 1.379,6.088 L -4.686,5.361 -4.712,5.583 -5.486,5.491 -5.496,5.575 -5.676,5.553 -5.666,5.469 -5.857,5.446 -5.83,5.224 -6.805,5.107 C -6.91,5.094 -6.985,4.999 -6.972,4.893 -6.96,4.788 -6.864,4.712 -6.759,4.725 l 0.975,0.117 0.026,-0.222 0.191,0.023 0.01,-0.085 0.18,0.021 -0.01,0.085 0.774,0.093 -0.027,0.222 6.006,0.72 C 1.372,5.651 1.382,5.607 1.393,5.569 L -1.355,3.883 V 3.435 L -1.525,3.307 -1.397,3.115 -2.358,2.56 -2.229,2.368 c 0,0 -1.004,-0.554 -1.004,-1.365 0,-0.812 0.598,-0.876 0.598,-0.876 h 1.377 V 0.042 l 0.32,-0.182 c 0,0 0.021,-0.085 0.085,-0.501 0.008,-0.05 0.018,-0.1 0.031,-0.147 l -0.23,-0.113 0.04,-0.211 c 0,0 0.192,0.014 0.314,0.021 0.111,-0.207 0.265,-0.393 0.432,-0.585 0.002,-0.002 0.004,-0.005 0.006,-0.007 l -0.159,-0.253 0.142,-0.158 c 0,0 0.161,0.115 0.261,0.183 0.282,-0.227 0.618,-0.421 0.643,-0.435 l -0.06,-0.271 0.189,-0.1 c 0,0 0.089,0.13 0.159,0.228 L 1.628,-2.843 1.622,-3.212 1.828,-3.273 c 0,0 0.068,0.162 0.118,0.273 0.016,-0.006 0.259,-0.091 0.612,-0.214 l -0.004,-0.274 0.205,-0.06 c 0,0 0.052,0.124 0.099,0.229 0.223,-0.077 0.469,-0.164 0.719,-0.251 L 3.571,-3.9 3.776,-3.961 c 0,0 0.071,0.168 0.12,0.279 0.208,-0.073 0.413,-0.145 0.6,-0.211 l -0.004,-0.28 0.205,-0.06 c 0,0 0.054,0.128 0.101,0.234 0.352,-0.124 0.599,-0.213 0.628,-0.225 l -0.003,-0.225 0.205,-0.06 c 0,0 0.041,0.098 0.083,0.194 0.184,-0.056 0.441,-0.135 0.716,-0.217 L 6.423,-4.807 6.627,-4.868 c 0,0 0.059,0.136 0.106,0.244 0.216,-0.065 0.429,-0.128 0.615,-0.184 L 7.344,-5.079 7.549,-5.14 c 0,0 0.056,0.134 0.104,0.241 0.175,-0.051 0.286,-0.085 0.286,-0.085 L 8.28,-5.043 8.275,-5.355 8.48,-5.415 c 0,0 0.089,0.209 0.138,0.315 L 9.306,-5.218 H 9.449 L 9.53,-5.507 h 0.213 c 0,0 0.019,0.168 0.035,0.289 h 0.642 l 0.081,-0.289 h 0.213 c 0,0 0.019,0.168 0.035,0.289 h 0.589 l 0.08,-0.289 h 0.213 c 0,0 0.02,0.168 0.036,0.289 h 0.631 l 0.081,-0.289 h 0.213 c 0,0 0.019,0.168 0.035,0.289 h 0.642 l 0.081,-0.289 h 0.213 c 0,0 0.019,0.168 0.035,0.289 h 0.62 l 0.081,-0.289 h 0.214 c 0,0 0.019,0.168 0.035,0.289 h 0.232 0.399 l 0.081,-0.289 h 0.213 c 0,0 0.019,0.168 0.035,0.289 h 0.642 l 0.081,-0.289 h 0.213 c 0,0 0.02,0.168 0.035,0.289 h 0.685 l 0.08,-0.289 h 0.213 c 0,0 0.02,0.168 0.036,0.289 h 0.632 l 0.08,-0.289 h 0.213 c 0,0 0.019,0.168 0.035,0.289 h 0.642 l 0.081,-0.289 h 0.213 c 0,0 0.019,0.168 0.035,0.289 h 0.631 l 0.081,-0.289 h 0.214 c 0,0 0.019,0.168 0.035,0.289 h 0.631 l 0.081,-0.289 h 0.213 c 0,0 0.019,0.168 0.035,0.289 h 0.642 l 0.08,-0.289 h 0.214 c 0,0 0.018,0.168 0.034,0.289 h 0.686 l 0.08,-0.289 h 0.213 c 0,0 0.02,0.168 0.036,0.289 h 0.632 l 0.08,-0.289 h 0.213 c 0,0 0.019,0.168 0.035,0.289 h 0.642 l 0.081,-0.289 h 0.213 c 0,0 0.019,0.168 0.035,0.289 h 0.642 l 0.081,-0.289 h 0.213 c 0,0 0.02,0.168 0.035,0.289 h 0.631 l 0.08,-0.289 h 0.215 c 0,0 0.019,0.168 0.034,0.289 h 0.643 l 0.08,-0.289 h 0.213 c 0,0 0.019,0.168 0.035,0.289 h 0.685 l 0.081,-0.289 h 0.213 c 0,0 0.019,0.168 0.035,0.289 h 0.631 l 0.081,-0.289 h 0.213 c 0,0 0.02,0.168 0.036,0.289 h 0.641 l 0.081,-0.289 h 0.214 c 0,0 0.019,0.168 0.034,0.289 h 0.632 l 0.08,-0.289 h 0.214 c 0,0 0.018,0.168 0.034,0.289 H 32.7 l 0.08,-0.289 h 0.215 c 0,0 0.018,0.168 0.034,0.289 h 0.642 l 0.081,-0.289 h 0.213 c 0,0 0.019,0.168 0.035,0.289 h 0.685 l 0.081,-0.289 h 0.213 c 0,0 0.019,0.168 0.035,0.289 h 0.631 l 0.081,-0.289 h 0.213 c 0,0 0.02,0.168 0.036,0.289 h 0.641 l 0.08,-0.289 h 0.215 c 0,0 0.019,0.168 0.034,0.289 h 0.552 l 0.102,-0.242 0.211,0.027 c 0,0 -0.001,0.109 -0.002,0.215 h 0.351 l 0.327,0.033 0.065,-0.153 0.212,0.028 c 0,0 -10e-4,0.079 -0.002,0.167 l 0.646,0.185 0.107,-0.256 0.212,0.028 c 0,0 -0.003,0.196 -0.002,0.318 l 0.793,0.226 c 0,0 0.013,0.005 0.033,0.013 l 0.111,-0.163 0.202,0.069 c 0,0 -0.021,0.1 -0.042,0.201 0.156,0.061 0.367,0.145 0.612,0.241 l 0.138,-0.203 0.202,0.068 c 0,0 -0.029,0.136 -0.052,0.25 0.19,0.074 0.392,0.156 0.602,0.239 l 0.168,-0.247 0.202,0.069 c 0,0 -0.039,0.181 -0.062,0.301 0.248,0.098 0.501,0.199 0.75,0.299 l 0.136,-0.199 0.202,0.069 c 0,0 -0.027,0.132 -0.051,0.245 0.206,0.083 0.404,0.163 0.592,0.239 l 0.167,-0.245 0.203,0.068 c 0,0 -0.04,0.182 -0.063,0.302 0.222,0.092 0.419,0.172 0.576,0.239 l 0.205,-0.299 0.202,0.068 c 0,0 -0.061,0.282 -0.076,0.375 0.013,0.006 0.027,0.012 0.036,0.017 0.265,0.133 0.494,0.353 0.678,0.574 l 0.277,-0.122 0.136,0.165 c 0,0 -0.129,0.133 -0.212,0.222 0.052,0.074 0.098,0.146 0.136,0.207 0.073,0.121 0.127,0.315 0.165,0.501 l 0.328,10e-4 0.056,0.205 c 0,0 -0.223,0.091 -0.326,0.136 0.015,0.114 0.022,0.193 0.022,0.193 v 0.202 h 1.323 l -0.065,0.336 h 1.49 z"
       id="path61506-1-2" />
  </g>
</svg>
