<?xml version="1.0" encoding="UTF-8" standalone="no"?>
<!-- Created with Inkscape (http://www.inkscape.org/) -->

<svg
   width="51.076569mm"
   height="37.57539mm"
   viewBox="0 0 51.076569 37.57539"
   version="1.1"
   id="svg1"
   inkscape:version="1.4.2 (ebf0e940d0, 2025-05-08)"
   sodipodi:docname="griphin.svg"
   xmlns:inkscape="http://www.inkscape.org/namespaces/inkscape"
   xmlns:sodipodi="http://sodipodi.sourceforge.net/DTD/sodipodi-0.dtd"
   xmlns="http://www.w3.org/2000/svg"
   xmlns:svg="http://www.w3.org/2000/svg">
  <sodipodi:namedview
     id="namedview1"
     pagecolor="#ffffff"
     bordercolor="#000000"
     borderopacity="0.25"
     inkscape:showpageshadow="2"
     inkscape:pageopacity="0.0"
     inkscape:pagecheckerboard="0"
     inkscape:deskcolor="#d1d1d1"
     inkscape:document-units="mm"
     inkscape:zoom="1.0476431"
     inkscape:cx="60.134983"
     inkscape:cy="32.4538"
     inkscape:window-width="2560"
     inkscape:window-height="1368"
     inkscape:window-x="0"
     inkscape:window-y="0"
     inkscape:window-maximized="1"
     inkscape:current-layer="layer1" />
  <defs
     id="defs1">
    <mask
       maskUnits="userSpaceOnUse"
       id="mask1">
      <rect
         style="fill:#ffffff;fill-opacity:1;stroke:none;stroke-width:0.499999;stroke-linecap:square;stroke-linejoin:round;paint-order:stroke markers fill"
         id="rect2"
         width="51.076569"
         height="37.57539"
         x="89.080956"
         y="139.85637" />
    </mask>
  </defs>
  <g
     inkscape:label="Layer 1"
     inkscape:groupmode="layer"
     id="layer1"
     transform="translate(-89.080958,-139.85637)">
    <rect
       style="fill:#000000;stroke:#445016;stroke-width:0.165202px;-inkscape-stroke:none;paint-order:stroke fill markers;stop-color:#000000"
       id="rect1524-1"
       width="64.267387"
       height="55.061104"
       x="82.896744"
       y="129.46429"
       mask="url(#mask1)" />
    <path
       style="display:inline;fill:#ffffff;stroke-width:0.0901985"
       d="m 117.38404,177.01318 c -0.49896,-0.71887 -1.18007,-2.17135 -1.57691,-3.36299 l -0.3171,-0.95209 -0.002,1.27701 c -0.002,1.22692 -0.12999,2.30463 -0.27479,2.30463 -0.14308,0 -0.94421,-0.98669 -1.54602,-1.90416 -0.60626,-0.92416 -2.19738,-4.04119 -2.10865,-4.13083 0.0242,-0.0245 0.33917,0.45631 0.69986,1.06841 0.87931,1.49218 1.92339,3.08186 2.16481,3.29614 0.19424,0.1724 0.19567,0.17233 0.13019,-0.007 -0.58867,-1.6118 -1.04739,-3.22185 -1.0334,-3.627 0.003,-0.0997 0.20041,0.38989 0.43769,1.08809 0.23729,0.6982 0.48336,1.39187 0.54683,1.54147 0.11308,0.26648 0.11751,0.25817 0.21672,-0.40803 l 0.10127,-0.68006 0.0724,0.8116 c 0.0398,0.44641 0.10586,0.89523 0.14683,0.99742 0.10471,0.26127 0.10219,-1.04722 -0.004,-2.15229 -0.0717,-0.74489 -0.0623,-0.94559 0.0584,-1.25053 0.0791,-0.19978 0.15755,-0.34935 0.1743,-0.33242 0.0167,0.0169 0.17386,0.53888 0.3491,1.15986 0.5623,1.99275 1.38917,4.04479 1.87993,4.66538 0.138,0.1745 0.14129,0.1711 0.0879,-0.0907 -0.1162,-0.56987 -0.68568,-2.85903 -0.98908,-3.97589 -0.17405,-0.64072 -0.3017,-1.17991 -0.28362,-1.19816 0.0513,-0.0519 0.65282,1.55407 0.91982,2.45598 0.3703,1.25087 0.40478,1.27312 0.34797,0.2245 -0.0665,-1.22659 -0.39985,-3.23233 -0.73853,-4.44305 -0.24496,-0.87572 -0.25142,-0.9339 -0.0804,-0.7254 0.31054,0.37853 0.77788,1.48842 0.9621,2.28488 0.35813,1.54834 0.43801,3.11356 0.26155,5.12608 -0.14049,1.60258 -0.14167,1.60441 -0.60345,0.93914 z m 3.00502,-0.63753 c -0.28946,-1.36123 -1.13254,-3.6153 -1.89483,-5.06603 -0.17178,-0.32695 -0.29764,-0.60928 -0.27968,-0.62742 0.0447,-0.0452 0.76853,0.83208 1.11899,1.35631 0.24334,0.36402 0.8222,1.52958 1.16064,2.33707 0.0803,0.19151 0.096,0.13263 0.10112,-0.37943 0.0104,-1.05043 -0.43036,-2.6687 -0.93983,-3.44963 -0.29645,-0.45439 -0.27876,-0.48675 0.10432,-0.19145 l 0.32488,0.25042 -0.28391,-0.56839 c -0.15615,-0.31261 -0.46441,-0.85299 -0.68505,-1.20082 -0.34328,-0.54119 -0.36859,-0.61089 -0.17561,-0.4831 0.56423,0.3736 1.37128,1.97123 1.74381,3.45201 0.14633,0.5816 0.30563,0.9206 0.7471,1.58975 0.30862,0.4678 0.64127,1.07363 0.73922,1.34629 l 0.1781,0.49575 0.0589,-0.58936 c 0.0702,-0.70197 -0.0293,-1.82133 -0.23404,-2.63239 -0.46971,-1.86116 -1.88317,-3.6858 -3.72528,-4.80903 -0.638,-0.38904 -0.58849,-0.42274 0.3306,-0.22512 1.28932,0.27723 2.58685,0.85984 3.6798,1.6523 0.36046,0.26134 0.65536,0.43046 0.65536,0.3758 0,-0.0546 -0.12489,-0.30788 -0.27755,-0.56276 -0.26478,-0.44207 -0.23555,-0.42164 0.63457,0.44335 1.04928,1.04307 2.18889,2.3257 3.78649,4.26171 1.794,2.174 2.71546,2.95358 3.75245,3.17467 0.30313,0.0646 0.30877,0.061 0.16232,-0.10429 -0.0834,-0.0941 -0.47542,-0.79221 -0.87105,-1.55126 -1.285,-2.46516 -2.28416,-3.77414 -4.67967,-6.13088 -1.5377,-1.51278 -1.93016,-1.83192 -1.57041,-1.27705 0.22405,0.34552 0.13081,0.35207 -0.31714,0.0223 -0.21762,-0.16024 -1.06085,-0.69097 -1.87381,-1.17941 l -1.47811,-0.88809 h 0.51885 c 0.28537,0 0.49967,-0.0314 0.47625,-0.0697 -0.0235,-0.0383 -0.54925,-0.27107 -1.16843,-0.51719 -0.61918,-0.24612 -1.11087,-0.46257 -1.09265,-0.481 0.0182,-0.0184 0.471,-0.0736 1.00611,-0.12255 1.06637,-0.0976 2.67636,-0.39957 2.89693,-0.54335 0.0949,-0.0619 -0.3291,-0.0738 -1.32211,-0.0371 -3.35851,0.12397 -6.02032,0.69393 -8.2403,1.76444 -1.14956,0.55433 -1.88627,1.05968 -2.60771,1.78875 -0.49892,0.50419 -0.56266,0.54451 -0.51508,0.32596 0.3553,-1.63274 2.25204,-3.21653 5.17183,-4.31846 0.47898,-0.18078 0.90296,-0.32748 0.94213,-0.326 0.0392,10e-4 -0.41761,0.2408 -1.01504,0.53181 -1.12242,0.54674 -2.01112,1.1057 -2.32338,1.46132 l -0.17945,0.20438 0.38441,-0.19678 c 0.60793,-0.31119 1.74689,-0.71363 2.73961,-0.96803 1.61769,-0.41455 3.07815,-0.58739 5.75893,-0.68153 1.38179,-0.0485 2.89059,-0.11143 3.35287,-0.13979 0.4623,-0.0284 1.10735,-0.0227 1.43344,0.0126 0.5509,0.0596 0.57718,0.0722 0.37077,0.17809 -0.33195,0.17025 -1.67231,0.48321 -3.51473,0.82065 l -1.64235,0.30079 1.12156,0.008 c 1.29748,0.009 2.79909,-0.11642 3.78274,-0.31529 0.65795,-0.13302 0.75225,-0.12911 2.21788,0.092 0.84192,0.12703 1.78437,0.22966 2.09437,0.22807 0.50997,-0.003 0.54738,-0.0153 0.393,-0.13339 -0.0938,-0.0718 -0.45584,-0.24363 -0.80449,-0.38186 -0.76674,-0.30399 -0.61204,-0.35751 0.48191,-0.16674 2.54866,0.44448 4.40904,1.91485 5.20247,4.11185 0.35249,0.97607 0.46155,1.66772 0.46334,2.93835 0.002,1.07565 0.003,1.08319 0.17948,0.92179 0.5025,-0.45961 1.53651,-2.3596 1.85938,-3.41669 0.89238,-2.92165 -0.0251,-6.10922 -2.60691,-9.0567 -0.79575,-0.90848 -1.77728,-1.76256 -1.86352,-1.62155 -0.0565,0.0924 -0.20672,0.0848 -0.75159,-0.0377 -0.56067,-0.12606 -0.74107,-0.13387 -1.02114,-0.0442 -0.55343,0.17713 -1.6785,0.80801 -3.25634,1.82593 -1.84133,1.18794 -2.22015,1.41 -2.85709,1.67476 -0.37614,0.15635 -0.44953,0.21284 -0.28334,0.2181 0.17682,0.006 0.13447,0.044 -0.20004,0.18126 -0.79956,0.32815 -2.11603,0.54665 -3.6582,0.60719 -1.20579,0.0473 -1.41387,0.074 -1.12155,0.14347 0.19738,0.0469 0.82324,0.20259 1.39073,0.3459 l 1.03186,0.26057 -0.89727,-0.0459 c -1.63429,-0.0835 -3.18592,-0.53046 -3.90308,-1.12421 l -0.22431,-0.18573 1.90209,-0.002 c 4.1824,-0.004 6.3075,-0.61748 9.14973,-2.63951 1.10513,-0.78619 1.94826,-1.27383 2.49688,-1.44406 0.19741,-0.0613 0.39192,-0.14184 0.43228,-0.17909 0.18427,-0.1701 -1.8038,-1.2362 -3.88677,-2.08422 -0.7649,-0.31142 -1.63301,-0.68713 -1.92912,-0.83491 -0.55777,-0.27839 -1.16105,-0.69922 -1.09625,-0.76471 0.0203,-0.0206 0.53226,0.12799 1.13746,0.33027 2.83091,0.94617 4.95794,1.98989 6.00681,2.9475 0.3585,0.3273 0.36745,0.33008 0.36745,0.11437 0,-0.42947 -0.28266,-1.0501 -0.7392,-1.6231 l -0.46195,-0.57978 0.44356,0.37568 c 0.4835,0.40954 1.45103,1.41289 1.66086,1.72239 0.12082,0.17819 0.78392,0.4435 0.87597,0.35047 0.0831,-0.0839 -0.55141,-1.74918 -0.88115,-2.31251 -0.18974,-0.32416 -0.55252,-0.81381 -0.80616,-1.0881 l -0.46119,-0.49871 0.37185,0.52812 c 0.42213,0.59956 0.85342,1.40263 0.78852,1.46822 -0.024,0.0241 -0.20157,-0.18934 -0.39484,-0.4744 -0.43492,-0.64147 -1.63483,-1.88332 -1.9027,-1.96924 -0.33376,-0.10705 -0.23063,-0.25673 0.1381,-0.20042 1.04224,0.15915 1.03461,0.15556 1.64138,0.77354 0.67585,0.68835 1.25489,1.74197 1.66679,3.03301 0.23279,0.72959 0.29256,0.82864 0.66784,1.10705 0.65321,0.48456 1.7102,1.65707 2.17887,2.41691 2.37737,3.85468 2.18461,9.71299 -0.40118,12.19104 -0.37751,0.36177 -1.41084,1.07664 -1.46602,1.0142 -0.0148,-0.0167 0.0123,-0.31589 0.0602,-0.66498 0.12656,-0.92475 0.0399,-3.32521 -0.14402,-3.98968 -0.39956,-1.44343 -1.24843,-2.57598 -2.33016,-3.109 -0.75087,-0.36997 -1.79816,-0.57817 -2.7399,-0.5447 l -0.75031,0.0267 0.43605,0.5405 c 0.82264,1.01963 1.90049,2.75687 2.71764,4.38013 1.03839,2.06276 1.40661,2.63563 2.19917,3.42145 0.85305,0.84579 1.79564,1.48769 3.41936,2.32861 1.09586,0.5675 1.31258,0.71077 1.16644,0.771 -0.30697,0.1266 -3.79087,0.0874 -4.4863,-0.0505 -0.91069,-0.18054 -2.15085,-0.59638 -2.85869,-0.95846 l -0.61555,-0.31492 0.0596,0.48201 c 0.0594,0.4802 -0.0712,1.53511 -0.22008,1.77862 -0.11579,0.1893 -1.13954,-0.009 -1.82945,-0.35438 -0.78874,-0.39483 -1.3414,-0.92651 -2.83065,-2.72304 -1.50902,-1.82044 -2.76507,-3.06697 -3.94003,-3.91028 -0.78704,-0.56487 -2.84211,-1.80903 -2.9881,-1.80903 -0.0393,0 0.11414,0.17284 0.3409,0.38409 0.81805,0.76199 1.54103,1.99997 1.86931,3.20083 0.22475,0.82194 0.27922,2.80319 0.10485,3.81288 -0.22442,1.29972 -0.26909,1.36083 -0.45304,0.61976 -0.16958,-0.68309 -0.72696,-1.94826 -1.01182,-2.29662 l -0.17849,-0.21828 0.008,1.125 c 0.006,0.8663 -0.0295,1.23288 -0.15419,1.59409 -0.26809,0.77651 -0.36909,0.76616 -0.54385,-0.0558 z m 17.79869,-0.77411 c 0,-0.024 -0.17159,-0.13169 -0.38131,-0.23943 -0.68495,-0.35201 -1.44581,-0.91617 -2.11644,-1.56936 -1.02401,-0.99742 -1.64779,-1.91085 -2.89385,-4.23769 -0.86346,-1.6124 -1.29416,-2.27784 -1.90737,-2.94697 -0.69463,-0.75798 -1.68288,-1.39405 -1.52668,-0.98261 0.0657,0.17293 0.0391,0.17101 -0.43114,-0.031 -0.79899,-0.3433 -0.95139,-0.30849 -0.32669,0.0746 0.82135,0.50369 1.48276,1.13576 2.03832,1.94788 0.25713,0.37591 0.44205,0.68346 0.41093,0.68346 -0.0311,0 -0.33303,-0.25014 -0.67096,-0.55587 -1.40109,-1.26768 -3.00199,-2.28006 -3.80997,-2.40932 l -0.3545,-0.0567 0.31862,0.40019 c 0.39699,0.49863 0.98571,1.38605 1.19783,1.80565 0.1434,0.28359 0.11487,0.26629 -0.26804,-0.16264 -0.38814,-0.43479 -1.45646,-1.28816 -1.61264,-1.28816 -0.0349,0 0.056,0.15301 0.20198,0.34004 0.14599,0.187 0.78027,1.1357 1.40952,2.10818 1.45578,2.24981 2.05514,3.02309 3.16656,4.08539 1.43149,1.36821 2.89559,2.17902 4.83035,2.67502 1.01006,0.25891 2.72548,0.48513 2.72548,0.35939 z m -5.10807,-1.95283 c -2.16423,-1.30108 -3.32738,-2.63565 -4.68618,-5.37673 -0.34291,-0.69173 -0.60556,-1.30495 -0.58366,-1.36271 0.022,-0.0578 0.52096,0.38989 1.10905,0.99478 0.93235,0.95899 1.13177,1.22019 1.55746,2.04018 0.26853,0.51722 0.71646,1.2464 0.99539,1.62044 0.4972,0.66667 1.60782,1.80857 2.22971,2.2925 0.49558,0.38566 0.20363,0.28777 -0.62177,-0.20846 z m -4.85257,-3.23407 c -0.3424,-1.09095 -1.78601,-2.92876 -3.16716,-4.03205 -0.24036,-0.19199 -0.47426,-0.34908 -0.5198,-0.34908 -0.16668,0 1.18311,1.93903 2.14615,3.08295 0.64972,0.77177 1.56695,1.72768 1.61305,1.68109 0.0201,-0.0202 -0.0123,-0.19255 -0.0722,-0.38291 z m -21.68986,-3.89379 c 0.0629,-0.89591 0.45906,-2.0239 1.01508,-2.89021 0.22405,-0.3491 0.38584,-0.55312 0.35954,-0.45338 -0.30594,1.1594 -0.58901,2.28016 -0.58947,2.33382 0,0.0368 0.28714,-0.15769 0.63873,-0.43224 1.30779,-1.02112 3.10034,-2.02448 4.65456,-2.60535 1.36392,-0.50974 1.3767,-0.47827 0.0778,0.1916 -2.32357,1.19835 -4.06666,2.41169 -5.40771,3.76422 l -0.79869,0.80554 z m -4.41957,-0.4292 c 0,-0.0974 0.35813,-0.79415 0.54896,-1.06795 0.16484,-0.23657 0.16447,-0.23965 -0.0342,-0.29345 -0.11039,-0.0299 -0.48002,-0.0549 -0.82136,-0.0556 -0.34131,-7.2e-4 -0.59696,-0.0251 -0.56807,-0.0543 0.065,-0.0657 1.93234,-0.52007 2.88199,-0.70128 0.38618,-0.0737 0.66787,-0.10439 0.62601,-0.0682 -0.0419,0.0361 -0.29822,0.22389 -0.56965,0.4172 -0.27143,0.19332 -0.84679,0.69743 -1.2786,1.12025 -0.43182,0.42283 -0.78511,0.73936 -0.78511,0.70341 z m -4.621862,-4.40898 c 0.106787,-0.17462 1.752621,-1.11075 2.708202,-1.5404 1.14999,-0.51705 3.51146,-1.38367 3.64646,-1.33819 0.13217,0.0445 -0.84308,0.58334 -2.94411,1.62659 l -1.794528,0.89108 4.262008,-0.0485 c 2.34412,-0.0267 4.70617,-0.0662 5.249,-0.0879 l 0.987,-0.0394 -0.8524,0.12429 c -2.36692,0.34512 -11.423298,0.67682 -11.261632,0.41248 z m 37.147762,-1.16658 c -0.91897,-0.73359 -1.58352,-1.11719 -2.44299,-1.41018 -0.32842,-0.11196 -0.61149,-0.24709 -0.62901,-0.3003 -0.0426,-0.12907 0.52846,-0.47945 0.78143,-0.47945 0.29894,0 1.31827,0.57154 1.94533,1.09077 0.6073,0.50281 1.23188,1.33998 1.18361,1.58641 -0.0243,0.12439 -0.20022,0.0222 -0.83837,-0.48725 z m -20.45768,0.48495 c -0.0493,-0.0171 -0.28229,-0.0573 -0.51764,-0.0893 -0.2354,-0.0321 -0.40852,-0.0901 -0.38475,-0.12891 0.12941,-0.21162 2.3734,-0.68835 3.59419,-0.76358 0.34545,-0.0213 0.52715,-0.0223 0.40377,-0.002 -0.79989,0.13043 -2.0859,0.44024 -2.50794,0.60419 l -0.4979,0.19339 0.62808,0.10512 0.62809,0.10513 -0.62809,0.004 c -0.34542,0.002 -0.66847,-0.0104 -0.71781,-0.0275 z m 12.87576,-1.21324 c 0,-0.0359 0.0505,-0.12022 0.11216,-0.1874 0.0915,-0.0996 0.0836,-0.11202 -0.0428,-0.0671 -0.0852,0.0303 -0.49906,0.10131 -0.9197,0.15787 -0.91442,0.12298 -1.94705,0.0112 -2.99577,-0.32415 -0.71246,-0.22785 -1.87397,-0.9067 -2.46051,-1.43807 -0.30497,-0.27628 -0.21306,-0.2437 0.89727,0.31803 0.68037,0.34422 1.56005,0.71221 1.95484,0.81777 0.9627,0.25741 2.54949,0.27834 3.31988,0.0438 0.67092,-0.20424 1.66396,-0.72379 1.92958,-1.00951 0.18647,-0.20062 0.1508,-0.19392 -0.51387,0.0965 -2.25674,0.98599 -4.39111,0.90223 -5.61042,-0.22018 -0.13571,-0.12492 -0.24675,-0.17775 -0.24675,-0.1174 0,0.1247 -0.24353,-0.013 -0.9228,-0.52173 -0.45153,-0.33816 -1.0584,-1.06621 -1.41483,-1.69733 -0.2047,-0.36243 -0.24233,-0.38356 -1.11297,-0.62496 -3.54188,-0.98203 -6.53813,-2.6684 -7.97161,-4.48661 -0.285,-0.3615 -0.50252,-0.67311 -0.48336,-0.69246 0.0191,-0.0193 0.55567,0.20657 1.19225,0.50206 1.2189,0.56579 2.50527,1.10531 3.84924,1.61445 0.80098,0.30343 0.80369,0.3055 0.33226,0.25374 -0.4579,-0.0503 -1.64191,-0.34198 -2.57473,-0.63435 l -0.44793,-0.14039 0.31334,0.27053 c 1.39602,1.20524 3.59313,2.46665 4.66511,2.67832 0.26533,0.0524 0.20244,-0.009 -0.40585,-0.39365 -0.39593,-0.25063 -0.88045,-0.60394 -1.07672,-0.78514 l -0.35685,-0.32947 0.3589,0.2103 c 1.33489,0.78216 1.78401,1.01759 2.3992,1.25772 0.93344,0.36434 1.5941,0.5062 1.68271,0.36132 0.0514,-0.084 0.21401,-0.0864 0.7015,-0.01 0.34901,0.0547 0.88471,0.0995 1.19043,0.0995 h 0.55585 l -0.57303,-0.53448 c -0.63549,-0.59271 -0.66799,-0.81259 -0.0574,-0.38804 0.4793,0.33324 1.34597,0.78384 1.86052,0.9673 0.20912,0.0746 0.60795,0.27407 0.88628,0.44334 1.71695,1.0442 3.48913,1.63125 5.28562,1.75092 l 0.83164,0.0554 -0.33812,0.15309 c -0.18596,0.0842 -0.94378,0.64083 -1.68402,1.23696 -1.1671,0.93988 -2.1086,1.52634 -2.1086,1.31346 z m -0.5712,-1.59549 c 0.30275,-0.0721 0.78726,-0.23955 1.07675,-0.37202 l 0.52633,-0.24086 -0.49352,-0.22725 -0.4935,-0.22724 -0.71781,0.14766 c -0.39477,0.0812 -0.86189,0.14747 -1.03798,0.14723 -0.52901,-7.2e-4 -1.19081,-0.24769 -1.51342,-0.56484 -0.30843,-0.30322 -0.62835,-0.89913 -0.63191,-1.17696 -0.002,-0.16055 -0.21001,-0.21964 -0.97133,-0.27595 -0.37318,-0.0276 -0.38424,-0.0209 -0.32924,0.20098 0.15603,0.62922 1.20729,1.92768 1.83932,2.27182 0.78879,0.42949 1.79039,0.54525 2.74631,0.31743 z m -5.0829,-1.61164 c -0.19664,-0.26182 -0.46855,-0.69016 -0.6043,-0.95187 -0.15216,-0.29342 -0.30608,-0.47591 -0.40157,-0.47604 -0.32648,-4.9e-4 0.17251,0.88333 0.84236,1.49197 0.24941,0.22659 0.46865,0.41198 0.48723,0.41198 0.0184,0 -0.12711,-0.21421 -0.32372,-0.47604 z m 3.23148,-0.0507 c 0,-0.0403 -0.0505,-0.13528 -0.11216,-0.21097 -0.13519,-0.16592 -0.83362,-0.71311 -0.91016,-0.71311 -0.1076,0 -0.0514,0.32665 0.0917,0.53314 0.2049,0.29563 0.9306,0.60049 0.9306,0.39094 z m -13.59357,3.0974 c -0.14804,-0.0174 -0.65274,-0.0751 -1.12158,-0.12813 -3.27388,-0.37033 -6.93999,-1.61607 -8.70759,-2.95883 l -0.56425,-0.42865 0.30661,-0.12643 c 1.01862,-0.42004 3.02058,-0.70455 4.38651,-0.62342 l 0.84977,0.0505 -0.71389,-0.3793 c -0.88682,-0.47116 -1.85929,-1.41931 -2.23412,-2.17822 -0.30487,-0.61732 -0.28217,-0.65258 0.48261,-0.74914 0.4872,-0.0615 2.40091,0.0115 2.91933,0.1114 0.23576,0.0454 0.209,0.01 -0.21529,-0.28606 -0.82736,-0.57713 -2.79759,-2.66464 -4.36219,-4.62192 l -0.43487,-0.54405 0.30788,-0.0291 c 0.30739,-0.0291 0.60432,-0.19754 0.34826,-0.19756 -0.20678,-2e-5 -2.414078,-0.69016 -3.65849,-1.14387 -1.309117,-0.4773 -4.252647,-1.6774 -4.212841,-1.71762 0.01477,-0.0149 0.369554,0.055 0.788423,0.15525 1.187208,0.2842 2.728844,0.61249 2.754494,0.58657 0.01282,-0.0129 -0.285392,-0.27571 -0.662545,-0.58403 -0.377151,-0.30832 -0.663124,-0.56058 -0.635514,-0.56058 0.02762,0 0.50845,0.18629 1.068491,0.41398 0.956818,0.389 3.607062,1.21816 3.893622,1.21816 0.17333,0 0.17546,0.0115 -0.17396,-0.93954 -0.16743,-0.45573 -0.33217,-0.96123 -0.36605,-1.12331 -0.0613,-0.29323 -0.0598,-0.29469 0.29268,-0.29469 1.01806,0 3.06834,0.56179 4.84088,1.32643 0.50537,0.21802 0.94048,0.39639 0.96688,0.39639 0.0264,0 -0.0138,-0.12039 -0.0889,-0.26752 -0.0753,-0.14714 -0.13691,-0.29273 -0.13691,-0.32354 0,-0.10916 0.59189,0.3636 1.22428,0.97788 0.35259,0.34248 0.65637,0.57618 0.67513,0.51933 0.0213,-0.0643 0.24704,0.0183 0.59817,0.21885 0.48593,0.27756 0.5563,0.29733 0.50771,0.14266 -0.0721,-0.22943 0.009,-0.2295 1.30841,-9.3e-4 0.55854,0.0982 1.03464,0.15927 1.05801,0.13565 0.0235,-0.0236 -0.0409,-0.1346 -0.14291,-0.24661 -0.25577,-0.28095 -0.74247,-1.07614 -0.74247,-1.21313 0,-0.22267 1.60833,0.16515 2.31046,0.55713 0.20975,0.11708 0.38134,0.20048 0.38134,0.18533 0,-0.0151 -0.13665,-0.36932 -0.30366,-0.78702 -0.47605,-1.19048 -0.96519,-2.21857 -1.55686,-3.27225 -0.50623,-0.90155 -0.53248,-0.97547 -0.36532,-1.02909 0.12827,-0.0411 0.26143,0.0217 0.46271,0.21847 0.15548,0.15192 0.4219,0.33522 0.59208,0.40734 0.29967,0.12698 0.31705,0.12285 0.55194,-0.13122 0.50288,-0.54405 1.62323,-0.23059 2.09722,0.58677 0.1247,0.21501 0.22669,0.45487 0.22669,0.53303 0,0.0781 0.17394,0.2451 0.38652,0.37099 0.51808,0.30683 1.10675,0.96717 1.32932,1.49123 0.36454,0.85823 0.31738,1.54336 -0.15458,2.24617 -0.17243,0.2568 -0.1992,0.35907 -0.11937,0.45628 0.13892,0.16915 0.66637,0.30862 1.16947,0.30924 l 0.41309,4.9e-4 -0.12148,-0.47314 c -0.17855,-0.69557 -0.15278,-1.23992 0.0805,-1.70121 0.24522,-0.48498 0.54184,-0.71521 1.11415,-0.86483 l 0.43363,-0.11335 -0.0254,-0.38512 c -0.0296,-0.45015 0.18354,-1.23384 0.40742,-1.49759 0.31731,-0.37379 0.58852,-0.49593 1.10125,-0.49593 0.4137,0 0.59235,0.0554 1.02278,0.31737 0.722,0.43935 1.15244,0.43607 1.73276,-0.0132 0.57855,-0.44796 0.91362,-0.57621 1.50526,-0.57621 0.58422,0 0.89889,0.14222 1.27665,0.57697 0.37865,0.43583 0.50194,0.87433 0.45042,1.60204 l -0.0433,0.61189 0.27833,-0.0807 c 0.15307,-0.0444 0.41993,-0.0804 0.59297,-0.0802 1.17184,0.002 1.88486,0.80702 1.88486,2.12836 0,0.38359 0.0138,0.40901 0.17355,0.32254 0.0955,-0.0516 0.44176,-0.0939 0.76957,-0.0939 0.54865,0 0.61846,-0.0227 0.87801,-0.28498 0.15511,-0.15674 0.41316,-0.34035 0.57347,-0.40804 0.67452,-0.28482 1.60997,-0.0299 2.05531,0.56012 l 0.22785,0.30193 0.36421,-0.12986 c 0.45673,-0.16285 0.48964,-0.16203 0.55641,0.0138 0.0374,0.0985 -0.22676,0.44873 -0.84147,1.11556 -1.68762,1.83066 -2.90641,3.55094 -3.40973,4.8128 l -0.29103,0.72959 -0.46078,0.1327 c -1.80895,0.52096 -4.5759,0.45188 -7.20691,-0.17989 -2.57625,-0.61862 -5.88459,-1.9893 -8.56228,-3.54742 l -0.68297,-0.39742 -0.0471,-0.7927 c -0.0259,-0.43599 -0.11695,-1.08055 -0.20232,-1.43237 l -0.15526,-0.63966 -0.94176,-0.38533 c -0.51796,-0.21194 -0.95878,-0.36815 -0.97959,-0.34713 -0.0663,0.0671 0.63977,0.90206 1.3354,1.57908 0.45993,0.44765 0.69114,0.74527 0.7295,0.93898 0.0487,0.24588 0.0353,0.27442 -0.10055,0.21457 -0.19501,-0.0859 -2.03465,-0.6302 -2.39984,-0.71003 l -0.26918,-0.0589 0.35605,0.29604 c 0.83365,0.69314 1.47937,1.31079 2.09572,2.0045 1.05185,1.18394 1.13722,1.36232 0.32772,0.68456 -0.39368,-0.32959 -1.5435,-1.2209 -2.55518,-1.9807 -1.55969,-1.17137 -1.84365,-1.35324 -1.86749,-1.19598 -0.0255,0.16815 -0.0799,0.14686 -0.58319,-0.22791 -0.70601,-0.52572 -2.47012,-1.39955 -3.51611,-1.74167 -1.44484,-0.47256 -3.72367,-0.87363 -3.72367,-0.65535 0,0.18572 0.59157,1.66155 0.98512,2.45771 1.97031,3.98578 5.47352,7.33339 10.2307,9.77629 0.71556,0.36746 1.24049,0.64963 1.16644,0.62703 -1.4719,-0.44918 -3.6308,-1.51951 -5.4806,-2.71713 -0.67022,-0.43393 -1.33644,-0.83439 -1.48049,-0.88993 -0.26035,-0.10037 -2.43135,-0.44823 -2.77424,-0.44451 -0.0987,0.001 0.0426,0.0959 0.31404,0.21079 0.80023,0.33865 1.93026,0.93576 2.05239,1.08447 0.075,0.0913 -0.1843,0.0301 -0.76769,-0.18139 -0.48449,-0.17561 -1.22413,-0.39429 -1.6436,-0.48597 l -0.76268,-0.16668 0.4935,0.45282 c 0.84463,0.77501 2.63011,2.00326 4.06012,2.79297 0.38245,0.21122 0.69538,0.39475 0.69538,0.40785 0,0.0131 -0.41386,-0.0716 -0.91969,-0.18818 -1.25458,-0.28921 -3.22711,-0.57816 -3.88068,-0.56846 l -0.53836,0.008 0.58323,0.17862 c 0.89879,0.27525 2.62302,0.9308 2.53034,0.96202 -0.0455,0.0153 -1.02442,-0.096 -2.17543,-0.2475 -1.15098,-0.15146 -2.23671,-0.27393 -2.4127,-0.27216 l -0.31997,0.003 0.22432,0.13038 c 0.89608,0.52081 3.75259,1.44904 7.13326,2.31797 2.13526,0.54882 2.49671,0.68372 1.52535,0.56928 z m 18.87198,-7.46832 c 1.05162,-0.13799 1.3556,-0.24651 1.46994,-0.52476 0.79604,-1.93734 1.60312,-3.18543 2.98701,-4.61914 0.87766,-0.90928 0.96091,-1.02244 0.75152,-1.02166 -0.3705,0.001 -0.96054,0.24478 -1.44366,0.59554 l -0.44357,0.32203 -0.38645,-0.35998 c -1.01458,-0.9451 -1.81694,-0.93088 -2.60451,0.0461 -0.52104,0.6464 -0.60338,1.1177 -0.30241,1.73094 0.2069,0.42156 0.4942,0.63284 1.22818,0.90322 0.20396,0.0751 0.19883,0.0868 -0.22432,0.5104 -0.23818,0.23843 -0.7219,0.57837 -1.07495,0.75542 -0.53275,0.26716 -0.76926,0.32991 -1.39076,0.36896 -2.10722,0.13242 -4.02388,-1.22906 -4.02388,-2.85833 v -0.48981 l 0.29161,0.19377 c 1.27084,0.84444 2.30064,0.96177 2.99943,0.34173 0.6458,-0.573 0.83933,-1.5305 0.46661,-2.30854 -0.36362,-0.75911 -1.29605,-1.12449 -2.38194,-0.93339 -0.32404,0.057 -0.60519,0.0875 -0.62482,0.0676 -0.0196,-0.0198 0.0705,-0.27028 0.20017,-0.55657 0.29275,-0.64621 0.27791,-1.39387 -0.0365,-1.8401 -0.30722,-0.43603 -0.93545,-0.70458 -1.64818,-0.70458 -1.05765,0 -1.46981,0.53094 -1.45733,1.87746 l 0.007,0.78937 -0.30141,-0.26743 c -0.4609,-0.40896 -0.96035,-0.63124 -1.41828,-0.63124 -0.36384,0 -0.46112,0.0472 -0.84482,0.40991 -0.69698,0.65883 -0.78598,1.36323 -0.27777,2.19886 0.20391,0.33526 0.86958,0.79494 1.3441,0.92817 0.17442,0.049 0.61996,0.0908 0.99009,0.093 l 0.67295,0.004 -0.45354,0.42725 c -1.62534,1.53111 -4.15586,1.47012 -5.75361,-0.13867 -0.35559,-0.35802 -0.50649,-0.59508 -0.61175,-0.961 -0.19274,-0.67007 -0.14236,-0.74932 0.5205,-0.81851 0.63055,-0.0658 0.931,-0.24586 1.16572,-0.69862 0.55701,-1.07437 -1.0636,-3.32491 -2.08607,-2.89692 -0.14751,0.0617 -0.34362,0.23262 -0.43578,0.37971 l -0.16761,0.26745 -0.50022,-0.61738 c -0.55048,-0.67943 -1.02174,-1.14702 -0.94205,-0.93475 0.0281,0.0748 0.25558,0.61409 0.50552,1.1984 0.89901,2.10162 1.35042,3.60669 1.43545,4.78583 l 0.0555,0.77042 1.52535,0.77753 c 5.12327,2.61151 9.95081,3.86714 13.2192,3.43827 z m -35.162356,6.38682 c 0.0713,-0.0959 0.273172,-0.30363 0.448632,-0.46158 l 0.319053,-0.28718 -0.236126,-0.0919 c -0.12987,-0.0505 -0.563912,-0.14257 -0.964559,-0.20455 -0.400624,-0.062 -0.728467,-0.14219 -0.728467,-0.17825 0,-0.0361 0.575414,-0.0934 1.278633,-0.12748 1.283419,-0.0622 3.219848,0.0348 4.822803,0.24138 l 0.852397,0.10988 -1.03185,0.11731 c -1.330362,0.15125 -2.752244,0.42491 -3.744075,0.7206 -1.269238,0.3784 -1.165115,0.36183 -1.016441,0.16173 z m 20.103756,-2.95038 c 0.27143,-0.0501 0.63484,-0.11316 0.80754,-0.1402 0.3002,-0.047 0.30616,-0.055 0.13459,-0.18108 -0.0987,-0.0726 -0.72401,-0.45865 -1.3896,-0.85798 -1.49186,-0.89506 -3.0734,-2.03456 -3.80283,-2.73997 -0.60072,-0.58093 -0.59159,-0.57712 0.97528,0.40843 1.90185,1.19622 3.47342,2.13079 4.51375,2.68415 l 1.01441,0.53958 -0.33677,0.1615 c -0.2481,0.11897 -0.60962,0.16874 -1.37331,0.18905 -0.91203,0.0243 -0.97727,0.0166 -0.54306,-0.0635 z m 10.54287,-1.04806 c -0.63692,-0.39979 -2.12232,-1.08608 -3.36475,-1.55459 -1.23579,-0.46601 -3.25212,-1.05187 -3.42257,-0.99446 -0.0519,0.0175 0.28304,0.43507 0.7444,0.92795 0.84338,0.90106 0.81103,0.98595 -0.10332,0.2711 -0.72481,-0.56662 -1.70481,-1.64413 -1.70481,-1.87439 0,-0.21036 2.00866,0.17421 3.47979,0.66623 1.45752,0.48748 3.52287,1.63491 4.47836,2.48802 0.40321,0.36005 0.37952,0.37559 -0.1071,0.0701 z m -33.333397,-0.32822 c 0.0247,-0.027 0.489069,-0.23183 1.03188,-0.45516 1.67154,-0.68774 3.629505,-1.31674 4.710603,-1.51331 1.011915,-0.184 2.871784,-0.34772 2.779634,-0.24469 -0.0258,0.0288 -0.90162,0.25668 -1.946396,0.50652 -1.500138,0.35873 -5.431804,1.3974 -6.441156,1.70164 -0.0987,0.0298 -0.159247,0.032 -0.134565,0.005 z m 16.772847,-1.65028 c -1.2788,-1.18596 -2.54104,-2.69395 -3.43301,-4.1014 -0.42581,-0.67193 -1.15142,-2.07879 -1.26887,-2.46027 -0.065,-0.21091 -0.0594,-0.21298 0.41432,-0.15347 2.1099,0.26506 3.90734,0.93329 5.8607,2.17881 0.8209,0.52341 2.31206,1.6885 2.24622,1.75502 -0.0201,0.0202 -0.51274,-0.17803 -1.0949,-0.44059 -1.91738,-0.86474 -4.41794,-1.7196 -5.03199,-1.72029 -0.19441,-1.8e-4 -0.20218,0.0244 -0.15058,0.47582 l 0.0544,0.47604 -0.58966,-0.61288 c -0.32435,-0.33709 -0.58968,-0.59008 -0.58968,-0.56222 0,0.32882 1.74742,2.70528 3.6143,4.91543 0.38968,0.46131 0.6849,0.83874 0.65606,0.83874 -0.0289,0 -0.33815,-0.26494 -0.6873,-0.58874 z m -15.157785,-2.54198 c 1.316739,-0.29537 3.729702,-0.66329 4.819897,-0.73493 0.504216,-0.0331 0.895524,-0.095 0.869511,-0.13747 -0.06611,-0.10812 -2.630792,-0.0964 -4.078831,0.0186 -0.663754,0.0527 -1.931427,0.19434 -2.817055,0.31469 -0.88565,0.12034 -1.624877,0.20403 -1.642783,0.18596 -0.06189,-0.0625 2.629438,-0.68135 3.656799,-0.84078 0.754449,-0.11708 1.562544,-0.15976 3.00584,-0.15875 2.171996,0.001 3.192067,0.1432 4.686297,0.65087 l 0.73834,0.25085 -1.85992,0.0115 c -1.893766,0.0117 -4.162144,0.17937 -6.660283,0.49223 -1.759404,0.22035 -1.892057,0.21059 -0.717812,-0.0528 z m -1.211341,-1.99305 c -0.04934,-0.0174 -0.651944,-0.19974 -1.339122,-0.40517 -0.687178,-0.20543 -1.449515,-0.4605 -1.69411,-0.56683 -0.419982,-0.18258 -0.43283,-0.19799 -0.231091,-0.27701 0.117506,-0.046 1.122864,-0.10553 2.234186,-0.13224 2.170691,-0.0522 3.524509,0.0439 4.843547,0.34369 l 0.762677,0.17334 -0.717813,-0.0441 c -1.664611,-0.10217 -4.5161,-0.14077 -4.890105,-0.0662 l -0.403769,0.0805 0.897266,0.46534 c 0.493471,0.25593 0.836697,0.4642 0.762651,0.46281 -0.074,-0.001 -0.174928,-0.0168 -0.224317,-0.0342 z m 5.658685,-1.90689 c -0.93441,-0.16722 -2.08077,-0.3889 -2.54748,-0.49262 -0.466707,-0.10373 -0.863653,-0.17336 -0.882068,-0.15473 -0.0184,0.0186 0.209337,0.18536 0.5062,0.37052 0.296838,0.18516 0.539714,0.35231 0.539714,0.37144 0,0.098 -2.590244,-1.18485 -3.155342,-1.56276 -0.191214,-0.12787 -0.331515,-0.24882 -0.311769,-0.26877 0.07114,-0.0719 1.74665,0.2463 3.153068,0.59878 1.416001,0.35488 4.800928,1.33854 4.879568,1.418 0.0922,0.0931 -0.578066,0.007 -2.181891,-0.27986 z"
       id="path1996-0" />
  </g>
</svg>
