<?xml version="1.0" encoding="UTF-8" standalone="no"?>
<!-- Created with Inkscape (http://www.inkscape.org/) -->

<svg
   width="19.254137mm"
   height="10.04256mm"
   viewBox="0 0 19.254137 10.04256"
   version="1.1"
   id="svg5"
   sodipodi:docname="inkporter-svg-1zhk8ahw.svg"
   xmlns:inkscape="http://www.inkscape.org/namespaces/inkscape"
   xmlns:sodipodi="http://sodipodi.sourceforge.net/DTD/sodipodi-0.dtd"
   xmlns="http://www.w3.org/2000/svg"
   xmlns:svg="http://www.w3.org/2000/svg">
  <sodipodi:namedview
     id="namedview7"
     pagecolor="#ffffff"
     bordercolor="#666666"
     borderopacity="1.0"
     inkscape:pageshadow="2"
     inkscape:pageopacity="0.0"
     inkscape:pagecheckerboard="0"
     inkscape:document-units="mm"
     showgrid="false"
     inkscape:snap-bbox="true"
     inkscape:snap-bbox-edge-midpoints="false"
     inkscape:snap-bbox-midpoints="true"
     showguides="true"
     inkscape:guide-bbox="true"
     inkscape:zoom="0.93859299"
     inkscape:cx="214.15033"
     inkscape:cy="554.55347"
     inkscape:window-width="1920"
     inkscape:window-height="1017"
     inkscape:window-x="-8"
     inkscape:window-y="-8"
     inkscape:window-maximized="1"
     inkscape:current-layer="layer1">
    <sodipodi:guide
       position="57.335842,91.637333"
       orientation="0,-1"
       id="guide11681" />
  </sodipodi:namedview>
  <defs
     id="defs2" />
  <g
     inkscape:label="Layer 1"
     inkscape:groupmode="layer"
     id="layer1"
     transform="translate(-106.51248,-128.73604)">
    <g
       id="H-40mmAA"
       transform="translate(-481.25322,-549.6537)">
      <path
         style="fill:#000000;fill-opacity:1;fill-rule:nonzero;stroke:none;stroke-width:0.352778"
         d="m 597.18184,683.41442 0.0427,0.004 z m -1.21267,0.55811 0.0138,-0.0345 0.0165,-0.0482 0.0593,-0.0179 0.15159,0.0165 0.0524,0.0248 0.091,0.0289 0.0937,0.0289 0.0579,0.0386 0.0524,0.0427 0.0469,0.0152 0.13229,0.0427 0.0951,0.0289 -0.0179,-0.0717 -0.0289,-0.0758 -0.0248,-0.1254 0.0179,-0.0868 0.0276,-0.10473 0.0551,-0.113 0.0152,-0.0262 -0.0717,-0.0193 -0.0386,0.0165 -0.0455,-10e-4 -0.0248,-0.004 -0.0276,-0.0248 -0.0234,-0.10474 -0.0152,-0.0413 -0.0427,-0.0248 0.0427,-0.15434 -0.17363,-0.0358 0.0358,-0.0179 0.0331,-0.0221 0.0193,-0.0303 0.004,-0.0276 0.0152,-0.0634 0.0207,-0.0593 0.0331,-0.062 c 0,0 0.006,-0.0221 0.0441,-0.0524 l 0.0469,-0.0345 c 0.0179,-0.0138 0.0744,-0.0317 0.0744,-0.0317 l 0.0579,-0.011 0.062,-0.008 0.0606,0.005 0.0455,0.005 0.0551,0.0138 0.0468,0.0193 c 0.008,0.003 0.0427,0.0303 0.0427,0.0303 l 0.0276,0.0276 0.0372,0.0469 c 0.0138,0.0179 0.0303,0.0551 0.0303,0.0551 l 0.011,0.04 c 0.004,0.0124 0.004,0.01 0.006,0.0303 l 0.003,0.0455 v 0.04 l -0.008,0.0496 -0.0124,0.0469 c -0.003,0.005 -0.007,0.008 -0.004,0.0276 0.003,0.0193 0.0165,0.0331 0.0165,0.0331 l -0.0441,0.011 -0.0165,0.0427 0.0785,0.0744 0.19155,0.0813 0.15572,0.20119 0.10059,0.01 0.0813,-0.073 0.15709,0.011 0.16537,0.14883 0.13918,0.26872 0.0675,0.37896 0.008,0.17777 -0.0703,0.0537 -0.0923,0.04 -0.0482,0.007 -0.01,0.0841 0.12816,0.1006 0.0841,0.33211 -0.062,0.3197 -0.0661,0.0482 -0.0634,0.15986 -0.0703,0.0758 -0.18466,-0.0372 -0.0413,-0.0138 -0.20671,0.39274 -0.30041,-0.0772 -0.20395,-0.0179 -0.022,-0.3638 -0.32797,-0.14332 -0.25769,-0.20257 -0.0138,0.17087 -0.062,0.38448 -0.31557,-0.14056 -0.0221,-0.16537 -0.11024,-0.0882 -0.0606,-0.17226 0.04,-0.2508 0.0744,-0.31971 0.18052,-0.0978 0.66973,0.19154 -0.0717,-0.28663 0.0854,-0.0537 -0.17087,-0.0551 -0.1571,-0.0841 -0.12265,-0.0648 -0.073,-0.0386 -0.0193,-0.0992 -0.073,-0.0372 -0.0606,-0.001 -0.0482,0.003 -0.091,0.004 -0.0468,-0.0303 -0.0579,-0.0455 -0.0565,-0.0524 z m 0,0"
         id="path33772-4" />
      <path
         style="fill:#000000;fill-opacity:1;fill-rule:nonzero;stroke:none;stroke-width:0.352778"
         d="m 594.97009,684.75801 -0.8723,1.59852 0.63803,0.56913 0.83234,-0.17225 z m 3.75929,0.14469 -0.0785,-0.0524 -0.50712,0.66145 -0.20808,-0.0276 -0.339,0.19844 -0.46854,-0.0124 -0.45475,0.0386 0.27285,0.27836 0.58567,-0.04 0.45613,0.14607 0.12954,-0.0661 0.0262,-0.29076 h 0.27285 l -0.0124,0.35691 0.66283,-0.6091 -0.10335,-0.34312 z m 0.57188,0.96463 -0.0524,-0.18466 -0.16949,0.2384 -0.24667,0.18466 -0.32522,0.27836 v 0.0785 l 0.81993,-0.0386 z m -2.80293,2.13044 h 0.45889 v -0.401 l -8.01054,-0.003 v 0.3197 h 0.38723 v 0.10887 h -1.44281 v -0.10887 h 0.43133 v -1.35874 l 0.62425,-0.007 v 0.39136 h 5.37297 l -0.6904,-0.63528 1.35324,-3.06613 -0.15572,-0.0538 -0.0717,-0.13229 -0.44235,-0.28387 -0.16261,0.21911 -0.29903,-0.19982 0.11713,-0.22462 -0.30592,-0.20395 h -0.12403 l -0.66972,-0.48231 0.0717,-0.1323 -3.68626,-2.21996 -1.48828,-0.78135 0.2012,-0.35278 1.43729,0.93707 3.74413,2.13182 0.10473,-0.0992 1.7818,1.03215 c 0.10336,-0.0524 0.20809,0 0.20809,0 l 0.10335,-0.0799 0.15572,0.13229 0.20946,-0.0524 0.20808,0.0262 0.14332,0.0923 -0.0923,0.15848 1.3491,0.79099 0.15986,-0.51401 0.0648,-0.2632 v -0.17226 h 0.3266 l 0.44097,0.21222 0.20946,-0.0138 -0.0923,0.76619 v 0.30455 l -0.10335,0.1819 0.14331,0.12127 0.26046,0.0138 0.3638,0.60909 -0.10473,0.0648 0.29903,0.48921 0.22186,-0.36932 0.15572,-0.39687 0.18328,-0.25081 -0.04,0.54157 -0.24667,0.47543 0.0648,1.32153 0.36518,0.21222 0.20808,0.14607 h 5.33852 v -0.35829 l 0.65733,0.007 v 1.35324 h 0.40238 v 0.11024 h -1.4428 v -0.11024 h 0.38998 v -0.34176 l -7.92234,-0.003 v 0.40101 h 0.31833 v 0.11024 h -1.44281 z m 0,0"
         id="path33774-1" />
      <path
         d="m 606.38058,688.35691 c 0.0875,-0.0415 0.16603,-0.0836 0.17454,-0.0938 0.0136,-0.0162 0.0154,-0.0395 0.0154,-0.19105 v -0.17264 l 0.0298,-0.0451 c 0.0472,-0.0716 0.0679,-0.1178 0.0813,-0.18189 0.0219,-0.10493 -0.002,-0.15006 -0.13621,-0.25428 -0.0205,-0.016 -0.0206,-0.0167 -0.007,-0.0629 0.0152,-0.0513 0.0184,-0.0359 -0.0376,-0.18482 -0.0234,-0.0624 -0.0255,-0.0739 -0.014,-0.0784 0.007,-0.003 0.0283,0.005 0.0464,0.0176 0.0181,0.0125 0.0484,0.0291 0.0672,0.037 0.0487,0.0202 0.1484,0.0271 0.19076,0.0131 0.0311,-0.0103 0.0375,-0.01 0.0665,0.008 0.0417,0.0246 0.0626,0.0238 0.0988,-0.004 0.0636,-0.0485 0.0764,-0.11084 0.0514,-0.25135 -0.0196,-0.11099 -0.0276,-0.13986 -0.1015,-0.3684 -0.0266,-0.0823 -0.024,-0.0977 0.0265,-0.15734 0.0243,-0.0287 0.0507,-0.0693 0.0586,-0.0902 0.0136,-0.0356 0.0136,-0.0407 -0.001,-0.08 -0.0245,-0.0663 -0.036,-0.079 -0.086,-0.0955 -0.0391,-0.0129 -0.0648,-0.0329 -0.15671,-0.12234 -0.0605,-0.0588 -0.12084,-0.11798 -0.13411,-0.13148 -0.0263,-0.0266 -0.0373,-0.0661 -0.07,-0.24909 -0.0173,-0.0969 -0.045,-0.18896 -0.0695,-0.23101 -0.005,-0.009 -0.0295,-0.062 -0.0536,-0.1172 -0.0241,-0.0552 -0.0502,-0.11024 -0.0581,-0.12225 -0.0209,-0.032 -0.0654,-0.0468 -0.13992,-0.0468 h -0.0657 l -0.0312,-0.0614 -0.0312,-0.0614 0.0301,-0.01 c 0.0378,-0.0125 0.0748,-0.0556 0.0748,-0.0872 0,-0.0161 -0.0105,-0.0342 -0.0317,-0.0546 -0.0553,-0.0532 -0.0599,-0.0692 -0.0605,-0.21162 -3.1e-4,-0.12415 -0.002,-0.12979 -0.0271,-0.18116 -0.0678,-0.13554 -0.27249,-0.20853 -0.47312,-0.16868 -0.0817,0.0162 -0.18217,0.0593 -0.22711,0.0973 -0.0301,0.0254 -0.0756,0.11188 -0.0865,0.16421 -0.009,0.0445 -0.0338,0.0888 -0.0661,0.1193 -0.0301,0.0284 -0.053,0.0661 -0.053,0.0873 0,0.026 0.0444,0.0653 0.0951,0.0843 0.0684,0.0256 0.10288,0.0674 0.10231,0.12396 -3.1e-4,0.0412 -0.0187,0.0795 -0.0937,0.1958 -0.0175,0.0272 -0.0779,0.13806 -0.13418,0.24636 -0.0563,0.10832 -0.10925,0.20572 -0.1177,0.21644 -0.072,0.0913 -0.13029,0.17288 -0.14003,0.19592 -0.006,0.0152 -0.0198,0.0769 -0.0297,0.13698 -0.039,0.23668 -0.0754,0.37683 -0.10618,0.40961 -0.0105,0.0112 -0.0489,0.0312 -0.0852,0.0444 -0.0864,0.0315 -0.14971,0.088 -0.18519,0.16523 -0.0229,0.0497 -0.0255,0.0649 -0.0253,0.14396 1.8e-4,0.0605 0.005,0.1037 0.0161,0.13698 0.0133,0.0407 0.0167,0.091 0.0205,0.30931 0.004,0.24522 0.006,0.26433 0.0257,0.32188 0.0258,0.0747 0.0269,0.11906 0.004,0.14841 -0.009,0.0121 -0.0483,0.037 -0.0862,0.0552 -0.0379,0.0183 -0.0818,0.043 -0.0976,0.0548 -0.038,0.0285 -0.0752,0.0434 -0.15089,0.0606 -0.0512,0.0116 -0.0676,0.0199 -0.0896,0.0449 -0.0243,0.0276 -0.0269,0.0364 -0.0269,0.0902 0,0.0724 0.0116,0.0916 0.0685,0.11359 0.10918,0.0421 0.39791,-0.008 0.52448,-0.0905 0.0222,-0.0145 0.0248,-0.0141 0.0818,0.014 0.0539,0.0265 0.0638,0.0285 0.11587,0.0237 0.0701,-0.007 0.12303,-0.0324 0.14369,-0.0702 0.024,-0.044 0.0211,-0.21336 -0.005,-0.284 l -0.0192,-0.0521 0.0189,-0.1328 c 0.0169,-0.1188 0.0181,-0.14995 0.011,-0.29565 -0.004,-0.0896 -0.006,-0.16585 -0.004,-0.16948 0.0144,-0.0215 0.0456,-0.0269 0.10402,-0.0178 0.0465,0.007 0.0936,0.006 0.20372,-0.004 0.0788,-0.008 0.16163,-0.0137 0.18413,-0.0137 h 0.0409 l -0.006,0.0611 c -0.003,0.0336 -0.003,0.0677 -10e-5,0.0756 0.003,0.008 0.0211,0.0207 0.0402,0.0283 0.0324,0.0129 0.0343,0.0157 0.0288,0.0414 -0.003,0.0152 -0.017,0.0534 -0.0305,0.085 -0.0356,0.0825 -0.0507,0.1394 -0.067,0.25079 -0.009,0.0638 -0.0252,0.12619 -0.0454,0.17781 -0.0296,0.0756 -0.0312,0.0852 -0.0322,0.19443 -7.1e-4,0.0961 0.002,0.12506 0.0185,0.17727 0.0347,0.11042 0.10054,0.17658 0.21898,0.22018 0.034,0.0125 0.0787,0.0341 0.0992,0.048 0.0206,0.0139 0.0703,0.0339 0.11047,0.0445 0.0402,0.0106 0.12082,0.0349 0.17915,0.054 0.0583,0.0192 0.11998,0.0348 0.13698,0.0348 0.0205,0 0.0847,-0.0255 0.18999,-0.0754 z m -1.0958,-2.14262 c -0.009,-0.0643 0.002,-0.11059 0.0365,-0.15582 0.0175,-0.0229 0.0336,-0.0567 0.0379,-0.0795 0.015,-0.0801 0.0256,-0.066 0.042,0.0557 0.007,0.0525 0.0186,0.11578 0.0256,0.1405 0.0178,0.0631 0.017,0.0655 -0.0205,0.0656 -0.0182,7e-5 -0.049,0.006 -0.0685,0.0124 -0.0194,0.007 -0.038,0.0107 -0.0412,0.009 -0.003,-0.002 -0.009,-0.0234 -0.0118,-0.0476 z"
         id="path6378-6"
         style="stroke-width:0.352778" />
      <path
         d="m 592.18524,688.10017 c 0.0734,-0.0114 0.0996,-0.029 0.10781,-0.0726 0.004,-0.0191 0.0213,-0.0541 0.0394,-0.0778 0.0181,-0.0237 0.0409,-0.0634 0.0508,-0.0883 0.01,-0.0249 0.0292,-0.0648 0.0429,-0.0886 0.0288,-0.0501 0.0313,-0.0781 0.01,-0.11063 -0.008,-0.0128 -0.0209,-0.0508 -0.028,-0.0845 -0.0157,-0.0751 -0.0291,-0.25215 -0.0201,-0.26665 0.005,-0.007 0.0159,-0.006 0.0373,0.005 0.0456,0.0231 0.0627,0.0409 0.0697,0.0727 0.007,0.0335 0.0402,0.0518 0.0766,0.0427 0.0385,-0.01 0.10764,-0.0788 0.13537,-0.13552 0.0327,-0.067 0.0407,-0.16304 0.0199,-0.24101 -0.008,-0.0316 -0.0153,-0.078 -0.0153,-0.10302 0,-0.025 -0.004,-0.0569 -0.01,-0.0708 -0.005,-0.0139 -0.0159,-0.0782 -0.0236,-0.14284 -0.008,-0.0647 -0.0168,-0.13118 -0.0203,-0.14781 -0.006,-0.0295 -0.005,-0.0307 0.0449,-0.0472 0.10881,-0.0361 0.18009,-0.14879 0.1699,-0.26852 -0.01,-0.11194 -0.0654,-0.19842 -0.15401,-0.23849 -0.0463,-0.021 -0.0621,-0.0228 -0.18321,-0.021 -0.12941,0.002 -0.13262,0.002 -0.13676,-0.0193 -0.0203,-0.10092 -0.0346,-0.21257 -0.0393,-0.30558 -0.009,-0.17351 -0.0228,-0.30496 -0.0438,-0.41044 l -0.0193,-0.0971 0.0241,-0.0527 c 0.0181,-0.0397 0.0304,-0.0993 0.0493,-0.24034 0.0138,-0.10318 0.0274,-0.20137 0.0301,-0.2182 0.004,-0.0231 0,-0.0348 -0.0153,-0.0479 -0.0111,-0.01 -0.0203,-0.024 -0.0203,-0.0322 0,-0.008 0.0152,-0.0751 0.0337,-0.14876 l 0.0337,-0.13387 -0.0196,-0.0659 c -0.0111,-0.0372 -0.027,-0.0698 -0.0364,-0.0749 -0.0171,-0.009 -0.11858,0.0188 -0.14394,0.0397 -0.0218,0.018 -0.0146,0.0712 0.012,0.0886 0.0133,0.009 0.0241,0.0233 0.024,0.0325 -1.2e-4,0.0174 -0.0458,0.20963 -0.0715,0.30106 -0.008,0.0292 -0.015,0.0709 -0.015,0.0928 -1.7e-4,0.0598 -0.0286,0.17371 -0.0476,0.19092 -0.0136,0.0123 -0.0307,0.014 -0.0905,0.009 -0.0637,-0.005 -0.0746,-0.009 -0.0801,-0.0265 -0.004,-0.0112 -0.0185,-0.0357 -0.0333,-0.0546 -0.0502,-0.0638 -0.0472,-0.10495 0.008,-0.10532 0.0119,-7e-5 0.0282,-0.0104 0.0366,-0.0232 0.0134,-0.0204 0.0136,-0.0297 0.002,-0.0812 -0.008,-0.0339 -0.0244,-0.0711 -0.0396,-0.0893 -0.0228,-0.0271 -0.0253,-0.0361 -0.0192,-0.0706 0.004,-0.0217 0.006,-0.0504 0.004,-0.0636 -0.002,-0.0132 -0.002,-0.036 -0.002,-0.0506 0.006,-0.13862 0.006,-0.13626 -0.0225,-0.18916 -0.0548,-0.0999 -0.2006,-0.19843 -0.35185,-0.23763 -0.0773,-0.02 -0.22124,-0.0162 -0.26514,0.007 -0.0956,0.0506 -0.20972,0.1738 -0.23695,0.25588 -0.009,0.0265 -0.0163,0.0323 -0.0486,0.0374 -0.0266,0.004 -0.0461,0.0155 -0.0643,0.0372 -0.0258,0.0307 -0.027,0.031 -0.084,0.0236 -0.15519,-0.02 -0.23601,-0.002 -0.30504,0.0667 -0.0589,0.0589 -0.0758,0.11515 -0.0758,0.25247 0,0.0853 -0.003,0.10697 -0.0177,0.126 -0.0248,0.0321 -0.0401,0.0814 -0.0401,0.1288 0,0.0299 -0.006,0.0458 -0.0228,0.0617 -0.0125,0.0118 -0.0391,0.0562 -0.0591,0.0988 -0.0489,0.10411 -0.0553,0.19751 -0.0242,0.35078 0.0242,0.1191 0.0438,0.16472 0.0862,0.20042 0.0588,0.0495 0.12237,0.0545 0.3398,0.027 0.12224,-0.0155 0.28099,-0.0153 0.28844,2.9e-4 0.05,0.10488 0.064,0.16722 0.048,0.21311 -0.0145,0.0415 -0.0548,0.24696 -0.0632,0.32239 -0.005,0.0455 -0.003,0.0672 0.009,0.0925 0.0121,0.0256 0.015,0.0551 0.0124,0.13014 -0.004,0.10576 -10e-4,0.0994 -0.0819,0.18867 -0.0958,0.10564 -0.11198,0.16879 -0.0571,0.22362 0.0403,0.0403 0.0951,0.0528 0.13392,0.0306 l 0.027,-0.0155 -0.006,0.0406 c -0.003,0.0223 -0.0187,0.059 -0.0344,0.0815 -0.0412,0.0593 -0.0846,0.15974 -0.0917,0.21237 -0.004,0.0313 -0.0201,0.0665 -0.0511,0.11301 -0.0329,0.0494 -0.0653,0.12309 -0.1206,0.27477 -0.069,0.18925 -0.076,0.21491 -0.0799,0.29486 -0.004,0.0685 -10e-4,0.0942 0.0115,0.11806 0.0191,0.037 0.0833,0.0709 0.16634,0.0881 0.0788,0.0163 0.29386,0.009 0.38756,-0.0137 0.0648,-0.0154 0.0763,-0.0221 0.13173,-0.0762 0.0334,-0.0326 0.0752,-0.0706 0.0929,-0.0846 0.0384,-0.0302 0.17121,-0.0992 0.17798,-0.0924 0.002,0.002 0.006,0.0333 0.007,0.0681 0.002,0.0512 0.007,0.068 0.0247,0.0872 0.0123,0.0131 0.0263,0.0445 0.031,0.0698 0.0105,0.0563 0.0438,0.0932 0.10383,0.11529 0.0521,0.0192 0.29776,0.0273 0.39052,0.013 z m -1.40956,-3.06735 c -0.017,-0.017 -0.0141,-0.0578 0.008,-0.10549 0.0105,-0.0231 0.0192,-0.0602 0.0193,-0.0823 1.8e-4,-0.0334 0.005,-0.0438 0.0282,-0.0603 0.0397,-0.0282 0.0491,-0.025 0.0491,0.0169 0,0.0474 0.0261,0.12584 0.051,0.15331 0.0189,0.0208 0.0189,0.0216 10e-4,0.0268 -0.0101,0.003 -0.0422,0.018 -0.0713,0.0333 -0.0607,0.032 -0.0689,0.0337 -0.0848,0.0177 z"
         id="path6380-8"
         style="stroke-width:0.352778" />
      <g
         id="g10788"
         transform="matrix(0.90281567,0,0,0.90281567,58.730537,66.887035)">
        <path
           style="fill:#000000;fill-opacity:1;fill-rule:nonzero;stroke:none;stroke-width:0.352778"
           d="m 600.85431,685.65787 0.11576,-0.0289 0.0854,-0.0152 0.0813,-0.007 0.0593,-0.0207 0.15159,0.011 0.0524,0.0221 0.091,0.0262 0.0937,0.0262 0.53054,0.0289 0.0524,0.0772 -0.46991,-0.0303 0.0207,0.0248 0.15159,0.0606 0.12678,0.0152 0.17776,0.0234 -0.0179,0.0992 0.14883,0.27009 -0.24943,-0.0661 -0.15296,-0.0441 -0.15709,-0.0772 -0.1254,-0.0606 -0.073,-0.0345 -0.0234,-0.0992 -0.073,-0.0345 h -0.0593 l -0.0634,0.004 -0.0758,0.01 -0.0469,-0.0289 -0.0606,-0.0427 -0.0565,-0.0496 -0.0606,-0.011 -0.0689,-0.0138 -0.0386,-0.011 z m 0,0"
           id="path33780-2" />
        <path
           style="fill:#000000;fill-opacity:1;fill-rule:nonzero;stroke:none;stroke-width:0.352778"
           d="m 602.14829,685.94725 -1.39871,-0.27974 0.45613,-0.6463 0.8282,0.22187 z m 0,0"
           id="path33782-8" />
        <path
           id="path46620-3-68"
           style="fill:#000000;stroke-width:0.0116547"
           d="m 602.29268,683.82378 c -0.0326,3e-5 -0.0501,0.003 -0.0644,0.009 -0.0434,0.0179 -0.14138,0.12006 -0.14138,0.14737 0,0.026 -0.0731,0.15767 -0.12991,0.23417 -0.0247,0.0334 -0.0448,0.066 -0.0448,0.0726 0,0.007 0.014,0.0197 0.0317,0.0289 0.0176,0.009 0.0476,0.033 0.0666,0.0529 0.0215,0.0225 0.051,0.0389 0.0775,0.0431 l 0.0426,0.007 0.006,0.0715 c 0.003,0.0394 0.0193,0.11356 0.0355,0.16484 0.0162,0.0513 0.0322,0.10778 0.036,0.125 0.005,0.0223 0.019,0.0353 0.048,0.0458 0.0225,0.008 0.0404,0.0195 0.0404,0.0252 0,0.006 -0.0432,0.0544 -0.0961,0.10862 -0.10341,0.10592 -0.15422,0.19225 -0.16648,0.2833 -0.0119,0.0884 -0.0278,0.12481 -0.0922,0.21342 -0.034,0.0467 -0.0762,0.11377 -0.0939,0.14902 l -0.16321,0.0808 c -0.0284,8.4e-4 -0.0557,0.003 -0.0824,0.007 h -0.0693 l -0.13155,-0.0475 -0.12991,-0.008 -0.0846,-0.0399 -0.0698,0.35917 0.33133,0.0399 0.0458,0.0551 0.0191,0.006 0.0437,0.1512 c 0.0156,0.0703 0.0311,0.10746 0.0617,0.15011 0.0356,0.0497 0.14773,0.27626 0.15884,0.3204 0.005,0.0208 -10e-6,0.0351 -0.0202,0.054 l -0.12664,0.17031 c 0.0103,0.0124 -0.006,0.0399 -0.077,0.12663 h -3.7e-4 c -0.0497,0.061 -0.10354,0.12822 -0.12009,0.14957 l -0.0698,0.1037 -0.0617,0.0464 -0.15557,0.15665 -0.0294,0.0529 c -0.0161,0.0292 -0.0382,0.0939 -0.0496,0.14356 0,0 2e-4,0.0683 3.7e-4,0.16157 0.004,0.0138 0.0437,0.0607 0.0873,0.10425 0.10839,0.10838 0.14877,0.12083 0.4132,0.12118 0.19173,2.8e-4 0.21397,-0.003 0.27401,-0.0393 0.0469,-0.0284 0.097,-0.0432 0.13047,-0.0382 l 0.0366,0.005 -0.0399,0.0327 c -0.0219,0.0182 -0.0441,0.0331 -0.0491,0.0333 -0.005,1.7e-4 -0.008,0.0355 -0.005,0.0786 0.005,0.10739 0.0131,0.11157 0.21889,0.10371 0.19938,-0.008 0.31701,-0.0304 0.42521,-0.0824 0.0471,-0.0226 0.093,-0.0413 0.10152,-0.0415 0.009,-1.1e-4 0.0278,-0.0101 0.0432,-0.0219 0.0251,-0.0193 0.027,-0.0273 0.0208,-0.0841 -0.004,-0.0346 -0.0117,-0.0884 -0.0175,-0.12008 -0.009,-0.0472 -0.008,-0.0541 0.004,-0.0377 0.008,0.011 0.0199,0.0192 0.0257,0.0169 0.0189,-0.006 0.08,0.0541 0.10316,0.10153 0.0344,0.0705 0.0856,0.091 0.20306,0.0808 0.0867,-0.008 0.0943,-0.0107 0.10098,-0.0371 0.0108,-0.043 -0.003,-0.13432 -0.0349,-0.22816 -0.0156,-0.0461 -0.0315,-0.12119 -0.0355,-0.16704 l -0.007,-0.0835 0.036,-0.0125 0.0366,-0.0125 -0.004,-0.10372 c -0.003,-0.0909 -0.008,-0.10885 -0.036,-0.14846 l -0.0322,-0.0453 0.0393,-0.007 c 0.022,-0.003 0.0643,-0.0284 0.0966,-0.0557 0.0318,-0.0267 0.0694,-0.0486 0.0835,-0.0486 0.0427,0 0.12736,-0.0464 0.16922,-0.0928 0,0 0.0364,-0.085 0.0426,-0.0993 0,-0.0231 0.006,-0.0294 0.0278,-0.0294 0.0539,0 0.0655,-0.0108 0.0655,-0.065 0,-0.0299 0.005,-0.0513 0.0125,-0.0513 -0.0246,0.0971 0.0416,0.11022 0.0524,0.13864 0.0377,0.0447 0.0639,0.0449 0.15829,0.003 0.1252,-0.0568 0.16158,-0.11362 0.16158,-0.25437 0,-0.0641 0.003,-0.0747 0.0284,-0.0911 0.038,-0.0249 0.0499,-0.0811 0.0235,-0.11026 -0.0152,-0.0168 -0.0176,-0.033 -0.0115,-0.0666 0.004,-0.0243 0.009,-0.07 0.0109,-0.10206 0.002,-0.0321 0.007,-0.0831 0.0114,-0.11299 0.0104,-0.0686 -0.0188,-0.16405 -0.0601,-0.19651 -0.0358,-0.0282 -0.0491,-0.0285 -0.10207,-0.003 -0.0379,0.0183 -0.0427,0.0184 -0.0595,0.002 -0.0157,-0.0157 -0.0168,-0.0247 -0.004,-0.059 0.0186,-0.0512 0.008,-0.11484 -0.0284,-0.15719 -0.0318,-0.0378 -0.10699,-0.0615 -0.19651,-0.0617 -0.0937,-2.8e-4 -0.0935,2.8e-4 -0.0781,-0.14356 0.01,-0.0915 0.0103,-0.15533 8.4e-4,-0.24127 -0.007,-0.0642 -0.0131,-0.14072 -0.0131,-0.16976 0,-0.10737 -0.0801,-0.24705 -0.17139,-0.29857 -0.034,-0.0192 -0.072,-0.0479 -0.0846,-0.0638 -0.0279,-0.0356 -0.10848,-0.0568 -0.33897,-0.0906 -0.0354,-0.005 -0.0461,-0.014 -0.0682,-0.0584 -0.0144,-0.0288 -0.0334,-0.0524 -0.0426,-0.0524 -0.0109,0 -0.0164,-0.0127 -0.0164,-0.036 0,-0.0303 0.004,-0.035 0.0262,-0.0327 0.0502,0.006 0.17086,-0.0153 0.18449,-0.0316 0.0107,-0.0129 0.009,-0.0315 -0.01,-0.0835 -0.013,-0.0368 -0.0271,-0.1036 -0.0311,-0.14848 -0.014,-0.15819 -0.0177,-0.177 -0.0442,-0.22325 -0.0802,-0.14004 -0.14373,-0.16641 -0.45415,-0.19104 -0.0734,-0.006 -0.12078,-0.009 -0.15338,-0.009 z m 0.61135,3.37877 c 0.0135,-0.003 0.0213,-1.2e-4 0.0213,0.008 0,0.005 -0.0257,0.0181 -0.0579,0.0284 -0.0321,0.0103 -0.0584,0.017 -0.0584,0.0147 0,-0.002 0.0187,-0.0144 0.0415,-0.0278 0.0213,-0.0126 0.04,-0.0208 0.0535,-0.0235 z m -0.1321,0.0709 c 8.4e-4,0.002 -0.003,0.005 -0.0136,0.012 -0.012,0.008 -0.0419,0.031 -0.066,0.0507 -0.0309,0.0252 -0.0578,0.0362 -0.0901,0.0377 -0.0427,0.002 -0.0467,-7.4e-4 -0.0579,-0.0371 l -0.012,-0.0393 0.095,-0.008 c 0.0521,-0.004 0.10738,-0.0107 0.12336,-0.0136 0.0134,-0.003 0.0203,-0.003 0.0213,-0.003 z" />
      </g>
    </g>
  </g>
</svg>
