<?xml version="1.0" encoding="UTF-8" standalone="no"?>
<!-- Created with Inkscape (http://www.inkscape.org/) -->

<svg
   width="11.63338mm"
   height="6.1182299mm"
   viewBox="0 0 11.63338 6.1182299"
   version="1.1"
   id="svg1"
   xml:space="preserve"
   sodipodi:docname="inkporter-svg-f8ri97zf.svg"
   xmlns:inkscape="http://www.inkscape.org/namespaces/inkscape"
   xmlns:sodipodi="http://sodipodi.sourceforge.net/DTD/sodipodi-0.dtd"
   xmlns="http://www.w3.org/2000/svg"
   xmlns:svg="http://www.w3.org/2000/svg"><sodipodi:namedview
     id="namedview1"
     pagecolor="#ffffff"
     bordercolor="#666666"
     borderopacity="1.0"
     inkscape:showpageshadow="2"
     inkscape:pageopacity="0.0"
     inkscape:pagecheckerboard="0"
     inkscape:deskcolor="#d1d1d1"
     inkscape:document-units="mm"
     inkscape:zoom="1.0293026"
     inkscape:cx="472.16434"
     inkscape:cy="583.4047"
     inkscape:window-width="1920"
     inkscape:window-height="1017"
     inkscape:window-x="-8"
     inkscape:window-y="770"
     inkscape:window-maximized="1"
     inkscape:current-layer="layer1" /><defs
     id="defs1" /><g
     inkscape:label="Layer 1"
     inkscape:groupmode="layer"
     id="layer1"
     transform="translate(-92.86875,-82.54999)"><path
       id="H-Csaba"
       d="m 98.96765,82.54999 -1.4976,0.0218 -0.86815,0.21702 -0.0532,0.39769 -0.14218,0.12324 -0.23873,0.0108 -0.14107,0.14113 -0.13019,-0.0218 -0.20252,0.0759 h -1.9896 v 0.15192 h 1.7084 l -0.0372,0.0218 -0.0217,0.17364 h 1.02012 l 0.0747,0.0701 -0.0331,0.24689 -0.23707,-0.002 -0.19536,0.11977 -0.0867,-0.098 -0.84649,-0.0326 -0.15211,0.79607 -0.45304,0.2778 -0.59943,-0.0212 -0.42324,0.20617 0.166,0.34031 -0.71944,0.44108 0.26763,1.12009 a 1.3782104,1.3782104 0 0 0 1.37105,1.27819 1.3782104,1.3782104 0 0 0 1.33075,-1.02852 l 4.95786,0.0939 a 1.3782104,1.3782104 0 0 0 1.32398,0.99704 1.3782104,1.3782104 0 0 0 1.35816,-1.15458 l 0.24262,-0.0148 0.61854,-1.11775 0.16279,-0.80304 -0.63613,-0.22782 0.20517,-0.56985 0.2401,0.0318 0.01,-0.0747 -2.7086,-0.35933 -0.0512,-0.39542 h -0.88986 l -0.14754,0.2369 -0.46366,-0.005 z m 2.65492,1.90531 2.27245,0.30138 -0.19246,0.53468 -2.06758,-0.7406 z" /></g></svg>
