<?xml version="1.0" encoding="UTF-8" standalone="no"?>
<!-- Created with Inkscape (http://www.inkscape.org/) -->

<svg
   width="18.371374mm"
   height="7.9317842mm"
   viewBox="0 0 18.371374 7.9317842"
   version="1.1"
   id="svg1371"
   sodipodi:docname="inkporter-svg-o8bko0e_.svg"
   xmlns:inkscape="http://www.inkscape.org/namespaces/inkscape"
   xmlns:sodipodi="http://sodipodi.sourceforge.net/DTD/sodipodi-0.dtd"
   xmlns="http://www.w3.org/2000/svg"
   xmlns:svg="http://www.w3.org/2000/svg">
  <sodipodi:namedview
     id="namedview1373"
     pagecolor="#ffffff"
     bordercolor="#666666"
     borderopacity="1.0"
     inkscape:pageshadow="2"
     inkscape:pageopacity="0.0"
     inkscape:pagecheckerboard="0"
     inkscape:document-units="mm"
     showgrid="false"
     inkscape:zoom="0.45291836"
     inkscape:cx="426.12536"
     inkscape:cy="-367.61592"
     inkscape:window-width="1920"
     inkscape:window-height="1017"
     inkscape:window-x="-8"
     inkscape:window-y="-8"
     inkscape:window-maximized="1"
     inkscape:current-layer="layer1" />
  <defs
     id="defs1368" />
  <g
     inkscape:label="Layer 1"
     inkscape:groupmode="layer"
     id="layer1"
     transform="translate(-114.06593,171.39301)">
    <path
       d="m 128.08316,-163.49097 c -0.0229,-0.0146 -0.20153,-0.0243 -0.39695,-0.0215 -0.19542,0.003 -0.38372,-0.01 -0.41846,-0.0283 -0.0409,-0.0216 -0.0632,-0.0201 -0.0632,0.004 0,0.0505 -0.1198,0.0475 -0.17168,-0.004 -0.0286,-0.0286 -0.0565,-0.0303 -0.0884,-0.005 -0.0623,0.0488 -0.89949,0.0519 -0.95774,0.004 -0.0316,-0.0262 -0.0452,-0.0253 -0.0452,0.003 0,0.054 -0.15459,0.0519 -0.2093,-0.003 -0.0255,-0.0255 -0.0433,-0.0281 -0.0433,-0.006 0,0.05 -0.61732,0.0521 -0.67936,0.002 -0.0338,-0.0271 -0.055,-0.0271 -0.0722,1e-4 -0.0326,0.0516 -0.44365,0.0499 -0.50938,-0.002 -0.04,-0.0316 -0.0458,-0.0307 -0.0249,0.004 0.0362,0.0603 -0.19848,0.0619 -0.25863,0.002 -0.0337,-0.0337 -0.0433,-0.0337 -0.0433,0 0,0.0238 -0.0374,0.0433 -0.083,0.0433 -0.0456,0 -0.10248,-0.0195 -0.1263,-0.0433 -0.0337,-0.0337 -0.0433,-0.0337 -0.0433,0 0,0.0561 -0.15315,0.0561 -0.2093,0 -0.0337,-0.0337 -0.0433,-0.0337 -0.0433,0 0,0.0568 -0.11682,0.0556 -0.17772,-0.002 -0.0383,-0.0361 -0.0511,-0.0361 -0.0644,0 -0.009,0.0248 -0.0444,0.0451 -0.0785,0.0451 -0.0341,0 -0.0835,-0.0203 -0.10976,-0.0451 -0.0383,-0.0361 -0.0511,-0.0361 -0.0644,0 -0.0212,0.058 -0.1274,0.0581 -0.18524,2.9e-4 -0.0333,-0.0333 -0.0514,-0.0342 -0.0705,-0.003 -0.0141,0.0229 -0.0687,0.0389 -0.12134,0.0358 -0.0526,-0.003 -0.0881,-0.0179 -0.079,-0.0328 0.009,-0.0149 -5.6e-4,-0.0271 -0.0215,-0.0271 -0.021,0 -0.0382,0.0162 -0.0382,0.0361 0,0.051 -0.12043,0.0449 -0.1785,-0.009 -0.0395,-0.0367 -0.0429,-0.035 -0.0183,0.009 0.0255,0.0456 0.0212,0.0468 -0.0273,0.007 -0.0466,-0.0378 -0.0605,-0.0379 -0.0729,-4.1e-4 -0.0121,0.0362 -0.0352,0.0371 -0.10734,0.004 -0.0666,-0.0304 -0.10282,-0.031 -0.13148,-0.002 -0.0287,0.0287 -0.0634,0.0287 -0.1263,0 -0.0629,-0.0286 -0.0976,-0.0286 -0.1263,0 -0.0286,0.0287 -0.0646,0.0281 -0.13073,-0.002 -0.0552,-0.0251 -0.0912,-0.0276 -0.0912,-0.006 0,0.0499 -0.15736,0.0439 -0.2093,-0.008 -0.0337,-0.0337 -0.0433,-0.0337 -0.0433,0 0,0.0518 -0.16679,0.0585 -0.19801,0.008 -0.0139,-0.0224 -0.0466,-0.0199 -0.0894,0.007 -0.0517,0.0323 -0.0797,0.0322 -0.11893,-4.2e-4 -0.0282,-0.0234 -0.0634,-0.0306 -0.0781,-0.0159 -0.0387,0.0387 -0.3529,0.0424 -0.4238,0.005 -0.04,-0.0211 -0.0654,-0.0168 -0.0756,0.013 -0.0122,0.0356 -0.0405,0.0355 -0.13815,-5.6e-4 -0.0789,-0.0291 -0.12717,-0.0323 -0.13495,-0.009 -0.0161,0.0482 -0.12592,0.0464 -0.17523,-0.003 -0.0282,-0.0282 -0.046,-0.0282 -0.0635,0 -0.0313,0.0507 -0.17454,0.0507 -0.22521,0 -0.0282,-0.0282 -0.046,-0.0282 -0.0635,0 -0.032,0.0517 -0.15458,0.0505 -0.17198,-0.002 -0.01,-0.0294 -0.0353,-0.0275 -0.0903,0.007 -0.0587,0.0367 -0.0885,0.038 -0.12733,0.006 -0.0382,-0.0317 -0.0609,-0.0318 -0.0922,-5.6e-4 -0.0303,0.0303 -0.0646,0.0309 -0.12696,0.002 -0.0471,-0.0214 -0.10696,-0.0257 -0.13329,-0.009 -0.0263,0.0162 -0.0866,0.0148 -0.13406,-0.003 -0.0493,-0.0188 -0.0778,-0.019 -0.0664,-6.8e-4 0.0115,0.0186 -0.0353,0.0197 -0.11057,0.003 -0.0717,-0.0162 -0.15391,-0.0204 -0.18261,-0.009 -0.0287,0.011 -0.0911,-8e-4 -0.13874,-0.0263 -0.0715,-0.0383 -0.0974,-0.0375 -0.14883,0.004 -0.0343,0.0278 -0.0511,0.0318 -0.0374,0.009 0.0153,-0.0255 -0.0166,-0.0561 -0.0828,-0.0791 -0.0874,-0.0305 -0.11931,-0.026 -0.16935,0.0236 -0.0549,0.0543 -0.0592,0.0546 -0.0394,0.002 0.0279,-0.0736 -0.0354,-0.13972 -0.13371,-0.13972 -0.0412,0 -0.107,-0.022 -0.14614,-0.0489 -0.0392,-0.0269 -0.11459,-0.0467 -0.16764,-0.044 -0.053,0.003 -0.0894,-0.007 -0.0809,-0.0204 0.022,-0.0356 -0.22824,-0.1133 -0.27394,-0.085 -0.0207,0.0128 -0.0332,0.002 -0.0278,-0.023 0.006,-0.0261 -0.0266,-0.0488 -0.0737,-0.052 -0.046,-0.003 -0.10201,-0.0241 -0.1245,-0.0466 -0.0225,-0.0225 -0.0679,-0.0409 -0.10099,-0.0409 -0.033,0 -0.0997,-0.0311 -0.14806,-0.0692 -0.0484,-0.0381 -0.14801,-0.0805 -0.22139,-0.0942 -0.0734,-0.0138 -0.1334,-0.0379 -0.1334,-0.0536 0,-0.0157 -0.0487,-0.0455 -0.10825,-0.0663 -0.0595,-0.0207 -0.10826,-0.0532 -0.10826,-0.0722 0,-0.0189 -0.049,-0.0515 -0.10882,-0.0724 -0.0599,-0.0209 -0.10599,-0.0509 -0.10253,-0.0667 0.0125,-0.0572 -0.0501,-0.15504 -0.0992,-0.15504 -0.0276,0 -0.0503,-0.0305 -0.0503,-0.0678 0,-0.0373 -0.0229,-0.0867 -0.0508,-0.10989 -0.0279,-0.0232 -0.0462,-0.084 -0.0406,-0.13519 0.006,-0.0521 -0.0174,-0.12066 -0.0524,-0.1557 -0.0587,-0.0587 -0.0588,-0.0677 -0.002,-0.14278 0.0367,-0.0486 0.0543,-0.12177 0.0449,-0.18598 -0.0171,-0.11658 0.0529,-0.32137 0.10986,-0.32137 0.0199,0 0.0138,-0.0275 -0.0134,-0.0611 -0.0337,-0.0415 -0.0351,-0.0524 -0.004,-0.034 0.0248,0.0149 0.0451,0.01 0.0451,-0.0111 0,-0.021 -0.0203,-0.0385 -0.0451,-0.0388 -0.0331,-4.1e-4 -0.032,-0.009 0.004,-0.0317 0.0354,-0.0224 0.0451,-0.0912 0.0346,-0.24603 -0.009,-0.13322 -2.9e-4,-0.21601 0.023,-0.21783 0.0207,-0.002 0.13503,-0.0445 0.25411,-0.0954 0.11908,-0.0508 0.24397,-0.0928 0.27753,-0.0933 0.0336,-4.2e-4 0.0712,-0.0174 0.0837,-0.0375 0.0125,-0.0202 0.0389,-0.0266 0.0588,-0.0143 0.0199,0.0123 0.10402,0.0121 0.18696,-2.9e-4 0.11823,-0.0178 0.16906,-0.0493 0.23532,-0.14612 0.0465,-0.0679 0.0737,-0.14098 0.0605,-0.16238 -0.0132,-0.0214 -0.0107,-0.0359 0.006,-0.0323 0.0489,0.0109 0.15605,-0.0461 0.15605,-0.083 0,-0.0189 -0.0203,-0.0227 -0.0451,-0.008 -0.0248,0.0143 -0.0331,0.0127 -0.0184,-0.004 0.0147,-0.0162 0.31385,-0.0265 0.66478,-0.0227 0.47677,0.005 0.64508,-0.005 0.66586,-0.0382 0.0153,-0.0248 0.0136,-0.0621 -0.004,-0.083 -0.0215,-0.0259 0.0138,-0.0337 0.11032,-0.0245 0.12303,0.0117 0.14187,0.004 0.14187,-0.0599 0,-0.0404 0.0242,-0.0976 0.0538,-0.12719 0.0408,-0.0408 0.043,-0.0582 0.009,-0.0719 -0.0279,-0.0113 -0.0224,-0.0192 0.0145,-0.0209 0.0631,-0.003 0.12595,-0.11111 0.0646,-0.11111 -0.023,0 -0.0216,-0.0274 0.004,-0.075 0.0243,-0.0453 0.0616,-0.0667 0.0944,-0.0541 0.0725,0.0278 0.21738,-0.0706 0.1502,-0.102 -0.0262,-0.0123 -0.0111,-0.0155 0.0336,-0.007 0.0447,0.008 0.0812,0.004 0.0812,-0.0106 0,-0.0141 0.0853,-0.0219 0.18945,-0.0172 0.16975,0.008 0.17641,0.005 0.064,-0.0222 -0.069,-0.0168 -0.13565,-0.0243 -0.14816,-0.0165 -0.0125,0.008 -0.0155,-0.024 -0.007,-0.0704 0.015,-0.0785 0.004,-0.0847 -0.1533,-0.0879 -0.0932,-0.002 -0.20025,-0.0132 -0.23788,-0.0251 -0.0896,-0.0284 -0.0886,-0.16069 0.003,-0.33932 l 0.071,-0.13916 -0.54913,-0.0214 c -1.31891,-0.0514 -3.00862,-0.0872 -3.50101,-0.0742 l -0.53412,0.0141 0.0109,-0.18851 c 0.0102,-0.17674 0.0165,-0.18799 0.10109,-0.18017 0.0496,0.005 0.17534,0.0127 0.27938,0.018 0.10403,0.005 0.18928,0.0178 0.18945,0.0277 4.8e-4,0.0305 0.34675,0.039 2.3117,0.0565 l 1.89642,0.0169 0.10955,-0.22616 c 0.12372,-0.25538 0.65422,-1.27837 0.70643,-1.36223 0.0288,-0.0462 0.11324,-0.0519 0.5395,-0.0367 0.27798,0.01 0.51175,0.0116 0.51949,0.004 0.008,-0.008 0.15653,-0.0112 0.33064,-0.007 0.17412,0.004 0.58451,0.0106 0.91199,0.0153 0.37033,0.005 0.71819,0.0315 0.92019,0.0693 0.49679,0.093 1.20819,0.21007 1.3893,0.22855 0.0893,0.009 0.22734,0.0328 0.30673,0.0527 0.0794,0.0199 0.37981,0.0672 0.66759,0.10505 0.47542,0.0626 0.5282,0.0637 0.57738,0.0122 0.0298,-0.0312 0.0349,-0.046 0.0115,-0.033 -0.0234,0.013 -0.0531,0.007 -0.0658,-0.0139 -0.0128,-0.0207 -0.01,-0.0352 0.007,-0.0324 0.0892,0.0155 0.14533,-0.0147 0.21017,-0.11317 0.0708,-0.10758 0.0775,-0.10952 0.36086,-0.10569 0.15878,0.002 0.33418,0.003 0.38979,0.001 l 0.10109,-0.002 -0.006,-0.44065 c -0.004,-0.29738 0.007,-0.44501 0.0342,-0.45408 0.0282,-0.009 0.0403,0.12058 0.0403,0.43413 v 0.44757 l 0.11728,0.0516 c 0.12353,0.0544 0.12509,0.059 0.18751,0.5565 0.01,0.0792 0.0346,0.14954 0.0548,0.15628 0.0247,0.008 0.0244,0.0354 -10e-4,0.083 -0.051,0.0952 -0.002,0.91652 0.0615,1.03949 0.031,0.0596 0.0349,0.0973 0.011,0.10531 -0.0234,0.008 -0.0199,0.0338 0.01,0.0701 0.0353,0.0435 0.0356,0.051 0.002,0.0305 -0.0284,-0.0171 -0.0451,-0.006 -0.0451,0.0292 0,0.043 -0.0404,0.0563 -0.17141,0.0566 -0.0943,1.5e-4 -0.25666,0.0106 -0.36086,0.0231 l -0.18945,0.0228 v 0.13932 c 0,0.13725 0.002,0.13931 0.13713,0.13931 0.0754,0 0.15777,-0.0203 0.18301,-0.0451 0.0368,-0.0362 0.0436,-0.0344 0.0343,0.009 -0.0146,0.068 0.20446,0.0964 0.27729,0.0359 0.0273,-0.0226 0.079,-0.0381 0.11492,-0.0344 0.14592,0.0152 0.26691,-0.003 0.24573,-0.0376 -0.0123,-0.0199 -0.0128,-0.0361 -0.001,-0.0361 0.0116,0 0.0361,0.0395 0.0545,0.0879 0.0253,0.0665 0.0589,0.0871 0.13825,0.0849 0.0577,-0.002 0.12343,0.008 0.14614,0.0225 0.0563,0.0348 0.0522,-0.009 -0.006,-0.0676 -0.0311,-0.0311 -0.0675,-0.0365 -0.10507,-0.0155 -0.0418,0.0234 -0.0553,0.0177 -0.0497,-0.0209 0.004,-0.0292 0.0217,-0.0657 0.0387,-0.0812 0.017,-0.0155 0.0192,-0.008 0.005,0.017 -0.0296,0.0514 0.0353,0.0628 0.0668,0.0118 0.0211,-0.0342 0.121,-0.0274 0.51959,0.0357 0.12604,0.0199 0.26205,0.0258 0.30222,0.0131 0.0454,-0.0144 0.0644,-0.009 0.0503,0.0136 -0.0132,0.0214 0.0376,0.0469 0.12178,0.0612 0.0795,0.0134 0.14475,0.0433 0.14505,0.0663 2.7e-4,0.0239 0.0159,0.0186 0.036,-0.0122 0.0255,-0.0389 0.0294,-0.0225 0.014,0.058 -0.0179,0.0932 -0.009,0.11551 0.0542,0.13195 0.0416,0.0109 0.0757,0.005 0.0757,-0.0129 0,-0.0518 0.17374,-0.038 0.2057,0.0163 0.0393,0.0668 0.46437,0.11357 0.50052,0.0551 0.0168,-0.0272 0.0113,-0.0336 -0.015,-0.0174 -0.0632,0.0391 -0.0498,8e-4 0.0194,-0.0553 0.0415,-0.0336 0.0524,-0.0351 0.034,-0.004 -0.0171,0.0284 -0.006,0.0451 0.0292,0.0451 0.0889,0 0.10804,0.004 0.14648,0.0334 0.0427,0.0322 0.22347,0.0258 0.25835,-0.009 0.0134,-0.0134 0.0419,-0.0241 0.0634,-0.0238 0.022,2.8e-4 0.0187,0.0135 -0.008,0.0302 -0.0877,0.0556 0.0415,0.11148 0.30237,0.13065 0.13731,0.0101 0.33084,0.028 0.43008,0.0398 0.27555,0.0327 0.39422,0.0324 0.44866,-0.001 0.0321,-0.0198 0.0413,-0.0171 0.026,0.008 -0.0148,0.024 0.003,0.0313 0.0481,0.0195 0.0395,-0.0103 0.0639,-0.0317 0.0541,-0.0474 -0.01,-0.0157 0.0148,-0.0201 0.0545,-0.01 0.0397,0.0104 0.0722,0.0395 0.0722,0.0647 0,0.0252 0.0609,0.0741 0.13532,0.10864 0.14237,0.0661 0.29422,0.21947 0.29641,0.29936 6.8e-4,0.026 0.0167,0.0377 0.0355,0.0261 0.0188,-0.0116 0.0279,0.0118 0.0201,0.052 -0.01,0.0496 0.006,0.0739 0.047,0.0757 0.0499,0.002 0.0478,0.008 -0.0111,0.0335 -0.0617,0.0265 -0.063,0.0314 -0.009,0.0335 0.087,0.004 0.0794,0.071 -0.0117,0.10472 -0.0412,0.0152 -0.0736,0.0391 -0.0722,0.053 0.0107,0.10107 -0.003,0.16962 -0.0334,0.16962 -0.0198,0 -0.0362,-0.0365 -0.0363,-0.0812 -1.3e-4,-0.0769 -0.005,-0.0755 -0.0889,0.0271 -0.0488,0.0595 -0.0893,0.14136 -0.09,0.18182 -6.8e-4,0.0405 -0.0315,0.13284 -0.0685,0.20529 -0.0497,0.0975 -0.0567,0.14305 -0.0271,0.17531 0.0299,0.0325 0.0285,0.037 -0.005,0.0179 -0.0524,-0.0296 -0.16223,0.0647 -0.12431,0.10676 0.0139,0.0155 0.005,0.0167 -0.0187,0.003 -0.0601,-0.0345 -0.22671,0.0796 -0.20372,0.13952 0.0567,0.1478 -0.25041,0.41327 -0.42522,0.36756 -0.10186,-0.0266 -0.12411,0.0517 -0.0351,0.12375 0.0582,0.0471 0.0733,0.0875 0.057,0.15261 -0.0123,0.0489 -0.005,0.0993 0.0168,0.11261 0.0513,0.0317 0.0505,0.16419 -0.001,0.16419 -0.0244,0 -0.0344,0.0485 -0.0256,0.12377 0.009,0.0734 2.7e-4,0.11505 -0.0202,0.10234 -0.0198,-0.0122 -0.0249,0.004 -0.0118,0.0382 0.0134,0.0348 0.006,0.056 -0.0171,0.051 -0.022,-0.005 -0.0539,0.0423 -0.0708,0.10447 -0.0194,0.0713 -0.0602,0.12075 -0.1105,0.13389 -0.0438,0.0115 -0.0682,0.0323 -0.0541,0.0464 0.0395,0.0395 -0.0849,0.15738 -0.16963,0.16057 -0.0416,0.002 -0.0552,0.0111 -0.0303,0.0211 0.071,0.0286 -0.101,0.14994 -0.19761,0.13933 -0.0452,-0.005 -0.0823,0.006 -0.0823,0.025 0,0.019 -0.0478,0.0235 -0.10825,0.0102 -0.0731,-0.0161 -0.10826,-0.01 -0.10826,0.0193 0,0.0272 -0.0394,0.0373 -0.10688,0.0274 -0.0711,-0.0104 -0.11356,0.002 -0.12685,0.0364 -0.014,0.0366 -0.052,0.0457 -0.12769,0.0305 -0.0592,-0.0119 -0.1077,-0.007 -0.1077,0.0108 0,0.0178 -0.10555,0.0436 -0.23456,0.0574 -0.129,0.0138 -0.23455,0.038 -0.23455,0.0538 0,0.0158 -0.0443,0.0238 -0.0985,0.0179 -0.0542,-0.006 -0.13132,0.002 -0.17141,0.0166 -0.0401,0.0151 -0.10808,0.0143 -0.15109,-0.002 -0.0562,-0.021 -0.0841,-0.0139 -0.0991,0.0251 -0.0141,0.0368 -0.0456,0.0465 -0.0977,0.03 -0.0482,-0.0153 -0.088,-0.006 -0.10681,0.0241 -0.0238,0.0385 -0.0524,0.04 -0.13969,0.007 -0.0641,-0.0242 -0.11817,-0.0277 -0.13005,-0.008 -0.0243,0.0393 -0.12593,0.0422 -0.18401,0.005 z m -1.41984,-0.28352 c 0,-0.11211 -0.008,-0.12433 -0.0541,-0.0858 -0.056,0.0465 -0.0722,0.15031 -0.0301,0.19245 0.0544,0.0544 0.0842,0.0167 0.0842,-0.10666 z m -7.10892,-0.0338 c 0,-0.0764 -0.0146,-0.1194 -0.0361,-0.10613 -0.0199,0.0123 -0.0361,0.0701 -0.0361,0.12843 0,0.0584 0.0162,0.10613 0.0361,0.10613 0.0198,0 0.0361,-0.0578 0.0361,-0.12843 z m 0.5107,-0.007 c 0.008,-0.204 0.0109,-0.21806 0.0459,-0.25005 0.0185,-0.0169 0.0213,-0.0103 0.006,0.0155 -0.0162,0.0282 -0.004,0.0451 0.0324,0.0451 0.0365,0 0.0486,-0.0169 0.0324,-0.0451 -0.0151,-0.0262 -0.0122,-0.0325 0.007,-0.015 0.038,0.0348 0.0403,0.047 0.0464,0.24058 0.002,0.0794 0.0191,0.14434 0.037,0.14434 0.0179,0 0.0292,-0.0477 0.0251,-0.10599 -0.004,-0.0583 0.006,-0.0979 0.0216,-0.0881 0.0473,0.0292 0.0331,-0.0828 -0.0307,-0.24233 -0.0328,-0.0821 -0.0612,-0.22843 -0.0632,-0.32528 l -0.003,-0.1761 -0.14777,-2.9e-4 c -0.14899,-2.8e-4 -0.23133,-0.0563 -0.27864,-0.18967 -0.0123,-0.0347 -0.055,-0.0632 -0.0948,-0.0632 -0.06,0 -0.0672,0.0139 -0.0421,0.0812 0.0715,0.1917 0.0746,0.40637 0.009,0.59613 -0.0364,0.10458 -0.0578,0.18186 -0.0477,0.17172 0.0379,-0.0379 0.11529,0.0653 0.11529,0.15375 0,0.0505 0.0113,0.0805 0.0251,0.0667 0.0428,-0.0428 0.0448,-0.1446 0.004,-0.19402 -0.0305,-0.0368 -0.0248,-0.0417 0.026,-0.0222 0.0472,0.0181 0.0573,0.0124 0.0368,-0.0208 -0.0224,-0.0362 -0.0122,-0.0372 0.0482,-0.005 0.0574,0.0307 0.0765,0.0753 0.0765,0.17802 0,0.0754 0.0108,0.14788 0.0241,0.16112 0.0542,0.0542 0.0845,0.0166 0.0897,-0.11127 z m 0.48553,0.0823 c -0.0131,-0.089 -0.058,-0.10844 -0.058,-0.0251 0,0.043 0.0148,0.0782 0.0329,0.0782 0.0181,0 0.0294,-0.0239 0.0251,-0.0531 z m 1.4464,-0.11833 c -0.009,-0.0347 -0.0165,-0.006 -0.0165,0.0632 0,0.0695 0.007,0.0979 0.0165,0.0632 0.009,-0.0347 0.009,-0.0916 0,-0.1263 z m 0.25919,0.0536 c -0.006,-0.0648 0.002,-0.13778 0.0173,-0.16219 0.0338,-0.0546 0.17062,-0.13094 0.164,-0.0914 -0.003,0.0157 -0.003,0.0976 -5.6e-4,0.18197 0.003,0.11037 0.0195,0.15337 0.0584,0.15337 0.0298,0 0.0554,-0.0203 0.0569,-0.0451 0.0104,-0.17013 0.06,-0.28973 0.1079,-0.26014 0.0214,0.0133 0.005,-0.0419 -0.0358,-0.12257 -0.0412,-0.0807 -0.0748,-0.21055 -0.0748,-0.2886 0,-0.15664 -0.0367,-0.18573 -0.2345,-0.18573 -0.11788,0 -0.12034,0.003 -0.12034,0.15635 0,0.086 -0.0249,0.2159 -0.0553,0.28868 -0.0526,0.12583 -0.0449,0.14724 0.0502,0.13931 0.0105,-8e-4 0.0144,0.0784 0.009,0.17615 -0.006,0.10993 0.005,0.17774 0.0289,0.17774 0.0222,0 0.0347,-0.051 0.029,-0.1178 z m 0.5547,0.0278 c 0.01,-0.0495 -0.004,-0.10723 -0.029,-0.12831 -0.035,-0.0291 -0.0432,-0.0226 -0.0338,0.0268 0.007,0.0359 0.0136,0.0936 0.0151,0.12831 0.004,0.091 0.0277,0.0777 0.0476,-0.0268 z m 1.5429,-0.003 c 0,-0.21393 0.17627,-0.33204 0.18494,-0.12393 0.007,0.17713 0.0115,0.19179 0.0586,0.2075 0.03,0.01 0.0453,-0.0252 0.0457,-0.10525 10e-4,-0.26813 0.17677,-0.28927 0.18415,-0.0222 l 0.004,0.15449 0.0363,-0.17445 c 0.0292,-0.14052 0.0487,-0.1712 0.10019,-0.15773 0.0594,0.0155 0.059,0.008 -0.006,-0.10149 -0.0435,-0.0737 -0.0719,-0.19436 -0.0755,-0.3204 l -0.006,-0.2022 h -0.13028 c -0.13816,0 -0.21681,-0.0447 -0.28551,-0.16239 -0.0351,-0.0602 -0.0374,-0.0511 -0.0135,0.0541 0.0579,0.25541 0.0222,0.52136 -0.0958,0.71304 -0.10897,0.17711 -0.1328,0.26271 -0.0861,0.30939 0.0494,0.0495 0.0842,0.0212 0.0842,-0.0685 z m 0.79389,0.0204 c 0,-0.0397 -0.0172,-0.0722 -0.0382,-0.0722 -0.021,0 -0.0289,-0.0151 -0.0174,-0.0336 0.0114,-0.0185 0.004,-0.0437 -0.0157,-0.0561 -0.0341,-0.0211 -0.0424,0.14382 -0.0103,0.20698 0.0278,0.0547 0.0816,0.0249 0.0816,-0.0451 z m 1.77362,-0.0361 c 0.003,-0.0595 0.007,-0.12855 0.009,-0.15336 0.004,-0.0497 0.0962,-0.0992 0.13893,-0.0746 0.0149,0.009 0.0271,0.0878 0.0271,0.17591 0,0.20194 0.0891,0.22514 0.1025,0.0267 0.005,-0.0735 0.0242,-0.15193 0.0429,-0.17437 0.0218,-0.0262 0.0152,-0.0655 -0.0185,-0.11 -0.0322,-0.0426 -0.0528,-0.15465 -0.0535,-0.29111 l -10e-4,-0.22191 -0.15637,-0.0127 -0.15636,-0.0127 -0.008,0.17201 c -0.004,0.0946 -0.0307,0.23669 -0.0585,0.31575 -0.0441,0.125 -0.0439,0.14375 0.002,0.14375 0.0382,0 0.0525,0.0443 0.0525,0.16238 0,0.17905 0.0689,0.22715 0.0776,0.0541 z m 2.0415,-0.0368 c -0.005,-0.0614 -0.0125,-0.0643 -0.0561,-0.0208 -0.0279,0.0279 -0.0396,0.0688 -0.0259,0.0908 0.036,0.0582 0.0883,0.0135 0.082,-0.0701 z m -1.57332,-0.009 c -0.0356,-0.0354 -0.0398,-0.0312 -0.0202,0.0202 0.0135,0.0356 0.0337,0.0556 0.0448,0.0445 0.0111,-0.0111 2e-5,-0.0402 -0.0246,-0.0647 z m -9.33421,0.0121 c 0.0114,-0.0185 0.004,-0.0438 -0.0159,-0.0563 -0.0202,-0.0125 -0.0367,0.003 -0.0367,0.0336 0,0.0634 0.0217,0.0727 0.0526,0.0227 z m 11.11598,-0.11972 c 0,-0.18743 0.0824,-0.21004 0.14113,-0.0387 0.0592,0.17278 0.0898,0.17975 0.0677,0.0155 -0.0177,-0.13191 -0.0106,-0.14991 0.0717,-0.18119 0.10156,-0.0386 0.16327,-0.11135 0.0945,-0.11135 -0.0243,0 -0.0345,-0.01 -0.0226,-0.0217 0.0431,-0.0431 0.10396,0.0259 0.0646,0.0733 -0.0206,0.0249 -0.0255,0.0585 -0.0108,0.0747 0.0147,0.0162 0.006,0.0174 -0.0198,0.003 -0.0355,-0.0205 -0.0406,-0.003 -0.0215,0.0754 0.0138,0.0562 0.0389,0.10771 0.0558,0.11436 0.0169,0.007 0.0199,0.031 0.007,0.0541 -0.0132,0.0231 -0.01,0.0291 0.007,0.0134 0.0173,-0.0157 0.0268,-0.0929 0.0211,-0.1714 -0.006,-0.0865 0.005,-0.14281 0.0296,-0.14281 0.022,0 0.004,-0.0481 -0.0391,-0.10684 -0.0434,-0.0588 -0.0931,-0.0981 -0.11024,-0.0875 -0.0172,0.0106 -0.0268,0.006 -0.0215,-0.0104 0.0181,-0.0551 -0.0913,-0.33647 -0.13104,-0.33703 -0.0216,-2.9e-4 -0.015,-0.0163 0.0148,-0.0355 0.0387,-0.025 -1.4e-4,-0.0351 -0.13659,-0.0355 -0.17009,-5.6e-4 -0.1872,0.006 -0.15812,0.0626 0.0596,0.11541 0.0805,0.32491 0.0473,0.47284 -0.0331,0.14746 -0.0148,0.47437 0.0265,0.47446 0.0123,2e-5 0.0224,-0.069 0.0224,-0.15337 z m -11.30677,-0.0361 c 0.0235,-0.0457 0.0184,-0.0632 -0.0187,-0.0632 -0.0281,0 -0.0589,0.0402 -0.0683,0.0894 -0.0181,0.0947 0.015,0.16468 0.0399,0.0843 0.008,-0.026 0.0293,-0.0758 0.0471,-0.11052 z m 12.01045,-0.0232 c 0,-0.0599 -0.0233,-0.11333 -0.0546,-0.12534 -0.0435,-0.0167 -0.0498,-0.001 -0.0311,0.0773 0.0438,0.18332 0.0857,0.20679 0.0857,0.048 z m -12.24752,-0.13371 c -0.0119,-0.031 -0.005,-0.0448 0.0151,-0.0321 0.0198,0.0122 0.0459,-0.004 0.058,-0.0353 0.0196,-0.0512 0.0273,-0.0505 0.0701,0.007 0.0442,0.059 0.0464,0.0576 0.0276,-0.017 -0.0113,-0.0447 -0.0307,-0.0812 -0.0433,-0.0812 -0.0126,1e-5 -0.0172,-0.0812 -0.0104,-0.18043 l 0.0125,-0.18045 h -0.199 c -0.10946,0 -0.22256,-0.009 -0.25135,-0.0201 -0.0333,-0.0128 -0.0599,0.009 -0.073,0.0589 -0.0157,0.0599 -0.0395,0.0741 -0.0987,0.0586 -0.0693,-0.0181 -0.0754,-0.01 -0.0548,0.0764 0.0293,0.1221 0.0299,0.14298 0.008,0.28628 -0.01,0.0645 -0.007,0.11716 0.006,0.117 0.0324,-4.1e-4 0.11669,-0.18375 0.0982,-0.21365 -0.008,-0.0129 0.025,-0.0266 0.0732,-0.0306 0.0969,-0.008 0.10482,0.0226 0.0526,0.20458 -0.0409,0.14271 -0.0187,0.12963 0.0652,-0.0384 0.0939,-0.18796 0.17058,-0.15855 0.15731,0.0603 -0.0107,0.17587 -0.009,0.17833 0.0483,0.0976 0.0326,-0.0456 0.0499,-0.10732 0.0384,-0.1372 z m 12.50012,0.15002 c 0,-0.009 -0.0162,-0.0259 -0.0361,-0.0382 -0.0198,-0.0123 -0.0361,-0.005 -0.0361,0.0159 0,0.021 0.0162,0.0382 0.0361,0.0382 0.0199,0 0.0361,-0.007 0.0361,-0.0159 z m -13.22873,-0.29066 c 0.0285,-0.11347 0.0277,-0.1286 -0.006,-0.11744 -0.0149,0.005 -0.0273,0.0282 -0.0275,0.0516 -2.9e-4,0.0234 -0.0124,0.0545 -0.0271,0.0692 -0.0366,0.0366 -0.0334,0.0867 0.006,0.0867 0.0177,0 0.0423,-0.0405 0.0548,-0.09 z m -0.25237,-0.0413 c 0.019,-0.0495 0.0137,-0.0518 -0.0322,-0.0136 -0.0626,0.052 -0.0691,0.0729 -0.0227,0.0729 0.0177,0 0.0425,-0.0267 0.055,-0.0592 z m 13.4811,-0.0683 c 0,-0.0803 -0.009,-0.0868 -0.0722,-0.0529 -0.089,0.0476 -0.0928,0.0976 -0.009,0.11947 0.0347,0.009 0.0672,0.0184 0.0722,0.0207 0.005,0.002 0.009,-0.037 0.009,-0.0873 z m 0.32477,0.0237 c 0,-0.0174 -0.0231,-0.0508 -0.0512,-0.0742 -0.0414,-0.0343 -0.0489,-0.03 -0.0388,0.0226 0.007,0.0358 0.0136,0.0692 0.0152,0.0742 0.008,0.025 0.0749,0.005 0.0749,-0.0226 z m -0.58248,-0.19183 c 0.0404,-0.053 0.0366,-0.0604 -0.0283,-0.0555 -0.0412,0.003 -0.0749,0.009 -0.0749,0.0131 0,0.0203 0.0458,0.12325 0.0508,0.11411 0.003,-0.006 0.0267,-0.0381 0.0524,-0.0717 z m 0.79062,-0.0291 c -0.0248,-0.0397 -0.058,-0.0722 -0.0737,-0.0722 -0.0158,0 -0.0113,0.0325 0.01,0.0722 0.0212,0.0397 0.0544,0.0722 0.0737,0.0722 0.0195,0 0.015,-0.0322 -0.01,-0.0722 z m -0.8216,-0.20233 c 0,-0.008 -0.0334,-0.0142 -0.0743,-0.0142 -0.0409,0 -0.0647,0.0155 -0.053,0.0345 0.0193,0.0312 0.12728,0.0139 0.12728,-0.0203 z m -11.12422,-3.03111 c -0.012,-0.012 -0.0431,-0.0133 -0.0692,-0.003 -0.0288,0.0115 -0.0202,0.0201 0.0218,0.0218 0.038,0.002 0.0594,-0.007 0.0474,-0.019 z m -3.36053,3.1312 c -0.0102,-0.0165 0.004,-0.0301 0.0324,-0.0301 0.028,0 0.0426,0.0135 0.0324,0.0301 -0.0102,0.0166 -0.0248,0.0301 -0.0324,0.0301 -0.008,0 -0.0221,-0.0135 -0.0324,-0.0301 z m 16.66949,-2.78213 c -0.0114,-0.0185 -0.007,-0.0421 0.01,-0.0525 0.0169,-0.0104 0.0306,0.005 0.0306,0.0336 0,0.0608 -0.0114,0.0662 -0.0406,0.0189 z m -4.82577,-0.82103 c 0.026,-0.0104 0.0572,-0.009 0.0692,0.003 0.012,0.012 -0.009,0.0205 -0.0474,0.019 -0.042,-0.002 -0.0506,-0.0103 -0.0218,-0.0218 z m -8.38088,-0.85199 c 0.0136,-0.0356 0.0337,-0.0556 0.0448,-0.0445 0.0111,0.0111 2e-5,0.0402 -0.0246,0.0647 -0.0356,0.0354 -0.0398,0.0312 -0.0202,-0.0202 z m 8.48158,-0.66904 c -0.0102,-0.0165 0.004,-0.0301 0.0323,-0.0301 0.028,0 0.0426,0.0135 0.0324,0.0301 -0.0102,0.0165 -0.0248,0.0301 -0.0324,0.0301 -0.008,0 -0.0221,-0.0135 -0.0323,-0.0301 z"
       id="H-Nimrod" />
  </g>
</svg>
