<?xml version="1.0" encoding="UTF-8" standalone="no"?>
<!-- Created with Inkscape (http://www.inkscape.org/) -->

<svg
   width="15.796612mm"
   height="7.8208199mm"
   viewBox="0 0 15.796612 7.8208199"
   version="1.1"
   id="svg19608"
   sodipodi:docname="inkporter-svg-xg5pm26s.svg"
   xmlns:inkscape="http://www.inkscape.org/namespaces/inkscape"
   xmlns:sodipodi="http://sodipodi.sourceforge.net/DTD/sodipodi-0.dtd"
   xmlns="http://www.w3.org/2000/svg"
   xmlns:svg="http://www.w3.org/2000/svg">
  <sodipodi:namedview
     id="namedview19610"
     pagecolor="#ffffff"
     bordercolor="#666666"
     borderopacity="1.0"
     inkscape:pageshadow="2"
     inkscape:pageopacity="0.0"
     inkscape:pagecheckerboard="0"
     inkscape:document-units="mm"
     showgrid="false"
     inkscape:zoom="0.66368547"
     inkscape:cx="397.02542"
     inkscape:cy="561.25984"
     inkscape:window-width="1920"
     inkscape:window-height="1017"
     inkscape:window-x="-8"
     inkscape:window-y="-8"
     inkscape:window-maximized="1"
     inkscape:current-layer="layer1" />
  <defs
     id="defs19605" />
  <g
     inkscape:label="Layer 1"
     inkscape:groupmode="layer"
     id="layer1"
     transform="translate(-97.147813,-144.59036)">
    <path
       d="m 100.22444,152.36307 -0.0244,-0.0394 h -0.13971 -0.13971 l -0.06171,-0.0744 -0.06171,-0.0743 h -0.09132 -0.09132 l -0.05126,-0.0958 -0.05126,-0.0958 -0.108779,-0.0346 -0.108786,-0.0346 -0.237737,-0.16708 -0.237747,-0.16711 h -0.0425 -0.04249 l -0.102948,-0.0867 -0.102958,-0.0867 -0.158323,-0.12393 -0.158312,-0.12394 -0.130475,-0.1005 -0.130461,-0.10051 -0.223065,-0.14735 -0.223058,-0.14732 -0.01714,-0.039 -0.01714,-0.039 -0.119179,-0.14164 -0.119179,-0.14164 v -0.10143 -0.10149 l -0.04198,-0.0261 -0.04197,-0.0261 0.01094,-0.23724 0.01097,-0.23721 0.03482,-0.0829 0.03482,-0.0829 0.01132,-0.0772 0.01129,-0.0772 0.119394,-0.12707 0.11939,-0.1271 -0.06237,-0.0999 -0.06236,-0.0999 0.06063,-0.16764 0.06063,-0.16767 0.09099,0.0487 0.09099,0.0486 0.185152,-0.0514 0.185162,-0.0514 h 0.849761 0.84975 l 0.03009,-0.0784 0.03009,-0.0784 v -0.0655 -0.0655 l -0.260241,-0.0293 -0.260237,-0.0293 -0.334585,-0.0307 -0.334589,-0.0307 v -0.044 -0.044 h 0.09914 0.09914 v -0.0838 -0.0839 l 0.06196,0.0841 0.06196,0.084 0.489923,-0.0396 0.489914,-0.0397 0.06419,0.0642 0.06419,0.0642 h 0.0251 0.025 l 0.0157,-0.13632 0.0157,-0.13631 0.087,0.007 0.087,0.007 0.0308,-0.19279 0.0308,-0.1928 h 0.035 0.035 l 0.0293,0.0293 0.0293,0.0293 0.59859,0.0166 0.5986,0.0166 v -0.0926 -0.0926 l 0.10938,-0.0767 0.10939,-0.0766 -0.164,-0.16919 -0.16399,-0.16919 -0.15606,-0.0265 -0.15606,-0.0265 -0.24784,-0.0495 -0.24785,-0.0495 -1.478965,-0.0243 -1.478954,-0.0243 -0.01856,-0.0187 -0.01852,-0.0187 0.02529,-0.097 0.02529,-0.0969 0.878629,0.0155 0.878631,0.0155 0.147447,-0.0606 0.147444,-0.0606 0.04503,0.0106 0.04502,0.0102 0.04172,-0.0646 0.0417,-0.0646 0.0413,0.0638 0.0413,0.0638 0.40736,-0.0339 0.40735,-0.0339 -0.0239,-0.0622 -0.0239,-0.0622 0.0585,-0.0756 0.0586,-0.0755 0.38754,-0.0187 0.38754,-0.0187 0.19426,-0.18291 0.19425,-0.18295 h 0.26762 0.26762 l 0.08,-0.16856 0.08,-0.16859 v -0.30233 -0.3023 h 0.19827 0.19828 v 0.11811 0.11815 l 0.11153,0.03 0.11152,0.03 h 0.18589 0.18588 v -0.0991 -0.0991 h 0.17349 0.17349 v 0.0648 0.0648 l 0.52367,-0.0152 0.52367,-0.0152 0.10627,0.0569 0.10628,0.0569 0.0872,0.10425 0.0871,0.10424 0.002,0.21065 0.002,0.21071 0.18588,0.004 0.18589,0.004 0.8368,0.14414 0.83681,0.14415 0.0359,0.0406 0.0359,0.0406 0.11061,0.68414 0.1106,0.68414 -0.0276,0.0718 -0.0276,0.0718 h -0.4642 -0.4642 l -0.0296,0.0296 -0.0296,0.0296 0.0267,0.0695 0.0267,0.0695 1.59328,0.004 1.59329,0.004 0.31241,0.16838 0.3124,0.16835 0.44513,0.0608 0.44514,0.0609 0.0712,-0.094 0.0712,-0.094 0.001,0.20966 10e-4,0.20969 0.0807,0.20168 0.0807,0.20165 0.0804,-0.0166 0.0804,-0.0166 -0.013,-0.20535 -0.0129,-0.20532 0.0992,-0.0314 0.0992,-0.0314 0.0436,0.0268 0.0436,0.0265 0.0291,0.14574 0.0291,0.1458 0.1057,0.0335 0.1057,0.0335 0.0714,0.17088 0.0714,0.17089 -0.0295,0.0478 -0.0295,0.0478 0.0775,0.0296 0.0775,0.0296 v 0.0363 0.0363 l -0.18589,0.0553 -0.18587,0.0553 -0.19095,0.0303 -0.19095,0.0303 0.0343,0.0339 0.0343,0.0339 h 0.10705 0.10705 l 0.0172,0.12393 0.0172,0.12389 0.068,0.0387 0.068,0.0388 -0.0172,0.34611 -0.0173,0.34615 0.0365,0.0222 0.0365,0.0222 -0.025,0.26024 -0.025,0.26028 -0.067,0.067 -0.067,0.067 v 0.0519 0.0519 l -0.19947,0.19949 -0.19951,0.1995 -0.0305,-0.0307 -0.0306,-0.0307 -0.12936,0.0686 -0.12936,0.0687 -0.28493,0.0833 -0.28492,0.0833 -0.0278,0.0449 -0.0278,0.045 h -0.0969 -0.0969 l -0.0861,0.0429 -0.0861,0.0429 -0.17349,0.0619 -0.17349,0.0619 -0.13631,0.0247 -0.13632,0.0247 v 0.0383 0.0384 l -0.1611,0.0408 -0.16109,0.0407 -4.79912,0.004 -4.79911,0.005 -0.0244,-0.0394 z m 1.76102,-0.33686 h 0.0974 l 0.0351,0.1107 0.0351,0.11077 0.0409,-0.11077 0.041,-0.1107 h 0.10233 0.10233 l 0.043,0.11151 0.043,0.11155 0.0363,-0.09 0.0363,-0.09 -0.14633,-0.15787 -0.14634,-0.15783 -0.0802,-0.12982 -0.0802,-0.12983 -0.0432,-0.16764 -0.0432,-0.16753 -0.10382,-0.0152 -0.10383,-0.0152 -0.0619,0.18867 -0.0619,0.18873 -0.0759,0.1239 -0.0759,0.12393 -0.11643,0.12823 -0.11643,0.12824 0.0316,0.0824 0.0316,0.0824 h 0.0443 0.0443 v -0.0743 -0.0744 h 0.0974 0.0974 l 0.0587,0.10968 0.0587,0.10975 0.0406,-0.10975 0.0406,-0.10968 z m 2.88503,0 h 0.0891 l 0.0487,0.0868 0.0487,0.0867 0.0334,-0.0867 0.0334,-0.0868 h 0.0914 0.0914 l 0.052,0.0868 0.052,0.0867 0.052,-0.0867 0.052,-0.0868 h 0.0691 0.0691 l 0.0709,0.10121 0.0709,0.1011 0.0264,-0.10093 0.0264,-0.10093 -0.15147,-0.16132 -0.15149,-0.16133 -0.0906,-0.19826 -0.0906,-0.19826 -0.001,-0.0867 -10e-4,-0.0867 h -0.29896 -0.29898 l -0.0266,0.0867 -0.0266,0.0867 -0.0924,0.20518 -0.0925,0.20517 -0.14859,0.16923 -0.14859,0.16919 0.047,0.0717 0.047,0.0718 0.0511,-0.0867 0.0511,-0.0868 h 0.0701 0.0701 l 0.0592,0.11052 0.0591,0.11053 0.0493,-0.11053 0.0493,-0.11052 z m 2.93003,0.0265 0.0809,0.031 0.0336,0.0829 0.0336,0.0829 0.043,-0.11151 0.043,-0.11155 h 0.0974 0.0974 l 0.0354,0.11155 0.0354,0.11151 0.0498,-0.11151 0.0498,-0.11155 h 0.0931 0.0931 l 0.0285,0.0744 0.0285,0.0744 h 0.0443 0.0443 v -0.0733 -0.0734 l -0.19188,-0.2535 -0.19189,-0.25351 -0.061,-0.18492 -0.061,-0.18497 -0.10393,0.007 -0.10394,0.007 -0.0322,0.12033 -0.0322,0.12034 -0.0828,0.16005 -0.0828,0.16013 -0.14827,0.16884 -0.14825,0.16887 0.0329,0.0857 0.0329,0.0857 0.0812,-0.10756 0.0812,-0.1076 z m 2.96353,-0.30176 v -0.0773 l -0.0504,0.031 -0.0504,0.031 0.0285,0.0461 0.0285,0.0461 h 0.0219 0.0219 z m 0.35285,-0.24903 0.0421,-0.0537 -0.11763,-0.10227 -0.11762,-0.10227 -0.0779,0.19841 -0.078,0.19847 0.0972,-0.0254 0.0972,-0.0254 0.0339,0.0549 0.0339,0.0549 0.0224,-0.0719 0.0224,-0.0719 z m -11.923162,-0.0826 -0.03238,-0.11155 -0.02981,-0.25908 -0.02977,-0.25908 -0.09851,-0.031 -0.09852,-0.031 -0.03291,0.0532 -0.03291,0.0532 -0.146791,-0.0106 -0.146787,-0.0106 -0.01623,0.17036 -0.01623,0.17035 0.0719,-0.0597 0.0719,-0.0597 0.08063,0.0307 0.08064,0.031 v 0.12467 0.1247 l 0.07435,-0.0617 0.07435,-0.0617 0.07436,0.0617 0.07435,0.0617 v 0.0931 0.0931 h 0.05535 0.05534 z m -0.937511,-0.56596 -0.03305,-0.0332 v 0.0661 0.0661 l 0.03305,-0.0332 0.03306,-0.0332 z m 5.865623,-6.06387 v -0.0496 h -0.0743 -0.0744 v 0.0496 0.0496 h 0.0744 0.0743 z"
       id="H-T38"
       style="stroke-width:0.352778" />
  </g>
</svg>
