<?xml version="1.0" encoding="UTF-8" standalone="no"?>
<!-- Created with Inkscape (http://www.inkscape.org/) -->

<svg
   width="16.823362mm"
   height="7.6215224mm"
   viewBox="0 0 16.823362 7.6215224"
   version="1.1"
   id="svg5"
   sodipodi:docname="inkporter-svg-1zhk8ahw.svg"
   xmlns:inkscape="http://www.inkscape.org/namespaces/inkscape"
   xmlns:sodipodi="http://sodipodi.sourceforge.net/DTD/sodipodi-0.dtd"
   xmlns="http://www.w3.org/2000/svg"
   xmlns:svg="http://www.w3.org/2000/svg">
  <sodipodi:namedview
     id="namedview7"
     pagecolor="#ffffff"
     bordercolor="#666666"
     borderopacity="1.0"
     inkscape:pageshadow="2"
     inkscape:pageopacity="0.0"
     inkscape:pagecheckerboard="0"
     inkscape:document-units="mm"
     showgrid="false"
     inkscape:snap-bbox="true"
     inkscape:snap-bbox-edge-midpoints="false"
     inkscape:snap-bbox-midpoints="true"
     showguides="true"
     inkscape:guide-bbox="true"
     inkscape:zoom="0.93859299"
     inkscape:cx="214.15033"
     inkscape:cy="554.55347"
     inkscape:window-width="1920"
     inkscape:window-height="1017"
     inkscape:window-x="-8"
     inkscape:window-y="-8"
     inkscape:window-maximized="1"
     inkscape:current-layer="layer1">
    <sodipodi:guide
       position="126.41437,142.24469"
       orientation="0,-1"
       id="guide11681" />
  </sodipodi:namedview>
  <defs
     id="defs2" />
  <g
     inkscape:label="Layer 1"
     inkscape:groupmode="layer"
     id="layer1"
     transform="translate(-37.433952,-181.76444)">
    <path
       d="m 41.141362,189.34057 c -0.335319,-0.18246 -0.764621,-0.21795 -1.086263,-0.41208 -0.212489,0.0499 -0.272732,-0.17325 -0.497907,-0.10065 -0.53376,-0.27407 -1.099721,-0.49195 -1.620291,-0.78493 -0.280553,-0.27069 -0.528775,-0.62403 -0.486141,-1.03181 -0.05622,-0.31432 0.03507,-0.60808 0.177595,-0.88653 0.01221,-0.22454 0.396956,-0.24295 0.206227,-0.47593 -0.113231,-0.21854 0.221823,-0.31641 0.373429,-0.39204 0.320721,-0.19223 0.711945,-0.0629 1.067181,-0.0976 0.328729,-0.009 0.653994,0.0471 0.980832,0.0737 0.07782,-0.17611 0.0764,-0.46334 0.199185,-0.57633 0.216778,0.0354 0.416183,0.0523 0.336353,-0.23213 0.330189,-0.0349 0.69071,0 1.002883,-0.0765 0.156545,-0.1978 0.454173,-0.065 0.675616,-0.11077 0.293242,0.007 -0.254219,-0.0106 -0.143694,-0.26384 0.04865,-0.29256 -0.180015,-0.27499 -0.403952,-0.26314 -0.22824,-0.0257 -0.497025,0.0275 -0.700119,-0.0473 -0.110702,-0.21844 -0.404262,-0.0747 -0.602844,-0.11913 -0.539909,-0.005 -1.079814,-0.0106 -1.619723,-0.0155 -0.05993,-0.31447 0.215696,-0.24917 0.436541,-0.24585 0.673125,-0.018 1.352303,0.0387 2.021452,-0.0286 0.281217,-0.046 0.562437,-0.0919 0.843651,-0.1379 -0.05434,-0.27651 0.112349,-0.40213 0.373242,-0.34981 0.192282,-0.0605 0.405222,-0.1475 0.619728,-0.1953 0.322411,-0.12164 0.654978,-0.16418 0.997621,-0.12834 0.194426,0.0212 0.487172,0.0468 0.450271,-0.23245 -0.01573,-0.19406 0.224677,-0.35694 0.39297,-0.36639 0.197661,-0.006 0.519119,0.13684 0.549832,-0.0614 0.29687,-0.0824 0.27825,0.15458 0.536826,0.10128 0.277406,0 0.574696,-0.0314 0.839681,0.0247 0.232675,0.0857 0.136419,0.33754 0.158609,0.52952 0.225905,0.16567 0.142942,-0.25301 0.173577,-0.38188 -0.03524,-0.37342 0.183307,-0.26596 0.122799,0.0474 -0.05075,0.23015 0.07655,0.40273 0.29597,0.45628 0.754193,0.0457 1.513279,0.0688 2.264434,0.12848 -0.01436,0.3688 0.02628,0.75414 -0.02184,1.11287 -0.130641,0.17586 -0.42557,0.0843 -0.626103,0.1463 -0.29881,0.0236 0.2863,0.0678 0.399457,0.10097 0.203853,0.0563 0.480085,-0.005 0.573161,0.2316 -0.170733,0.16037 0.100345,0.17102 0.309415,0.19258 0.575807,0.0673 1.149946,0.15755 1.731296,0.14957 0.01005,0.16098 0.328086,0.024 0.410291,0.22134 0.149955,-0.13843 0.223777,0.23632 0.398928,0.0606 0.259701,0.1772 0.630654,0.11356 0.824699,0.39265 0.229284,0.22408 0.175648,0.5473 0.175588,0.83876 -0.181642,0.26578 -0.239014,0.26652 -0.144395,-0.0569 -0.183219,-0.11906 -0.240683,0.20892 -0.23833,0.36104 -0.03404,0.28116 -0.246401,0.51551 -0.476148,0.67091 0.195097,0.42474 0.38746,0.91743 0.18457,1.37463 -0.08846,0.21964 -0.237719,0.42909 -0.388161,0.60424 -0.468006,0.30138 -1.038275,0.30812 -1.576476,0.29217 H 41.189142 l -0.02808,-0.024 z m 1.034228,-0.15886 c -0.130881,-0.13095 -0.177059,0.1717 0,0.0116 z m 0.406365,-0.0391 c 6.3e-5,-0.11162 0.0453,-0.54133 0.168952,-0.28187 0.01408,0.15096 0.04896,0.58145 0.184213,0.26057 0.08046,-0.21629 0.009,-0.41216 -0.09983,-0.60301 -0.08953,-0.28829 -0.05952,-0.3678 -0.156888,-0.0289 -0.04398,0.27457 -0.389276,0.41766 -0.301519,0.72306 0.03738,0.0219 0.260333,0.0666 0.205074,-0.0696 z m 0.700846,0.0187 c -0.05785,-0.35849 -0.292838,0 -0.07549,0.0694 0.07686,0.005 0.08781,0.0148 0.07549,-0.0694 z m 1.752021,-0.0282 c -0.02081,-0.21721 -0.275812,0.28243 -0.01034,0.0314 z m 0.361731,-0.10083 c -0.07387,-0.33242 0.253898,-0.27421 0.191915,0.0293 0.02484,0.36241 0.235871,0.0469 0.188284,-0.1645 -0.05162,-0.23149 -0.295645,-0.41694 -0.235549,-0.68326 -0.08846,0.17269 -0.215608,0.46352 -0.324937,0.67931 -0.09688,0.14383 0.02868,0.46197 0.180284,0.30039 3e-6,-0.0538 -4e-6,-0.10763 3e-6,-0.16143 z m 0.704586,0.12827 c -0.08499,-0.32399 -0.302476,0.14651 -0.0014,0.0701 0.02547,0 -0.01845,-0.0663 0.0014,-0.0701 z m 1.761465,-0.0365 c 0.02896,-0.268 -0.336159,0.22197 0,0.10675 z m 0.353063,-0.0568 c -0.07052,-0.1923 0.183702,-0.44715 0.179585,-0.12584 -0.05796,0.20775 0.152203,0.45823 0.182778,0.13745 0.08227,-0.21636 -0.214267,-0.29965 -0.23399,-0.51982 -0.158246,-0.38686 -0.07589,-0.12799 -0.225679,0.0996 -0.171994,0.1596 -0.05879,0.37532 -0.04164,0.5721 0.167834,0.0247 0.140836,-0.0222 0.138942,-0.16351 z m 0.678653,0.11321 c -0.35065,-0.27969 0.04919,0.29675 0,0 z m 1.534993,-0.0314 c -0.104775,-0.21001 -0.166847,0.2921 0,0.007 z m 0.427161,-0.15826 c 0.0035,-0.39246 0.237507,-0.0998 0.175348,0.14348 0.08923,0.27799 0.260233,-0.10139 0.205204,-0.27774 0.159801,-0.17227 -0.03663,-0.36957 -0.100874,-0.56724 -0.167082,-0.28165 -0.215205,0.13399 -0.271184,0.27715 -0.02896,0.21434 -0.325677,0.29361 -0.245737,0.50881 -0.02699,0.28197 0.307018,0.13606 0.237243,-0.0845 z m 0.730369,0.0907 c 0.07792,-0.20747 -0.31915,-0.36312 -0.201312,-0.0596 -0.04075,0.19812 0.257891,0.34251 0.201312,0.0596 z m 0.301968,0.099 c -0.118269,-0.2473 -0.159177,0.23523 0,0 z m -11.557974,-0.37966 c -0.201958,-0.31969 0.07778,0.32883 0,0 z m 9.320463,-0.0201 c -0.310723,-0.27372 0.07644,0.29316 0,0 z m 2.537693,-0.0662 c 0.104087,-0.38675 -0.293014,0.19371 -0.07513,0.16358 0.14001,0.0441 0.05343,-0.093 0.07513,-0.16358 z m 0.472129,0.1258 c 0.02155,-0.11511 -0.235832,-0.58702 -0.165985,-0.20542 -0.01524,0.14489 -0.01983,0.35623 0.165985,0.20542 z m -11.139787,-0.0317 c -0.216422,-0.35458 -0.150706,0.11049 0,0 z m -1.42078,-0.21251 c 0.137061,-0.20814 -0.09301,-0.3943 -0.03874,-0.61394 0.04599,-0.22758 -0.336744,0.0537 -0.301968,0.0828 -0.102009,0.13264 -0.264939,0.39782 -0.1437,0.54066 0.212182,0.0793 0.103399,-0.39938 0.2823,-0.38195 0.194366,0.0222 -0.07478,0.39571 0.04539,0.51947 0.115768,0.1277 0.126157,-0.0714 0.156697,-0.14704 z m 11.809218,0.0481 c 0.123592,-0.24729 -0.452473,0.0626 -0.09888,0.0827 0.07451,0.0208 0.0795,-0.0247 0.09888,-0.0827 z m 1.03591,-0.0152 c -0.146106,-0.29809 -0.18598,0.1681 0,0.0106 z M 39.407576,188.4019 c -0.06351,-0.31274 -0.357763,0.14202 -0.04888,0.0974 0.05928,-0.0145 0.05036,-0.0492 0.04888,-0.0974 z m 2.637998,-0.01 c 0.09498,-0.26984 -0.345352,-0.004 -0.07129,0.0827 0.06094,0.0275 0.04891,-0.0534 0.07129,-0.0827 z m 5.46397,-0.0809 c -0.132479,-0.19774 -0.140751,0.40798 -0.0095,0.0513 0.01573,-0.0131 0.0082,-0.0342 0.0095,-0.0513 z m 2.733788,0.06 c 0.0079,-0.33821 -0.229807,0.31887 -0.0084,0.0321 z m -5.501037,-0.0474 c -0.05809,-0.1639 -0.132895,0.18842 0,0.0134 z m 7.095871,-0.16358 c -0.0361,-0.0471 -0.524489,-0.11593 -0.355064,0.0725 -0.0069,0.26991 0.29814,0 0.355064,-0.0725 z m 1.299506,0.0755 c -0.0086,-0.1729 -0.522033,-0.14273 -0.163205,0.007 0.04567,0.0548 0.242598,0.16792 0.163205,-0.007 z m 0.02702,-0.3913 c -0.131886,-0.13815 -0.33976,0.1984 0.02949,0.0768 -0.0098,-0.0258 -0.01965,-0.0512 -0.02949,-0.0768 z m -0.225153,-0.27069 c 0.192366,-0.16234 -0.225189,-0.18351 -0.192014,0.0455 0.07169,0 0.136271,0.0109 0.192014,-0.0455 z M 41.257102,185.0492 c 0.317828,0.0212 0.19201,-0.29584 0.213892,-0.50014 -0.156157,0.057 -0.549772,-0.12329 -0.528792,0.11078 0.04798,0.12749 -0.108448,0.56934 0.100968,0.44848 0.07131,-0.0198 0.142618,-0.0395 0.213932,-0.0591 z m 1.698554,-0.85246 c -0.425238,-0.14827 0.142551,0.17911 0.03281,0.0141 z m 5.91596,-0.10294 c 0.185427,-0.2498 -0.23379,-0.1168 -0.367369,-0.13814 -0.195767,-0.0169 -0.564772,-0.009 -0.408873,0.22807 0.2433,-0.005 0.486594,-0.0109 0.729894,-0.0169 0.01545,-0.0243 0.0309,-0.0488 0.04635,-0.0732 z"
       id="H-Toldi" />
  </g>
</svg>
