<?xml version="1.0" encoding="UTF-8" standalone="no"?>
<!-- Created with Inkscape (http://www.inkscape.org/) -->

<svg
   width="19.019188mm"
   height="7.9369202mm"
   viewBox="0 0 19.019188 7.9369202"
   version="1.1"
   id="svg1371"
   sodipodi:docname="inkporter-svg-q3qysrmf.svg"
   xmlns:inkscape="http://www.inkscape.org/namespaces/inkscape"
   xmlns:sodipodi="http://sodipodi.sourceforge.net/DTD/sodipodi-0.dtd"
   xmlns="http://www.w3.org/2000/svg"
   xmlns:svg="http://www.w3.org/2000/svg">
  <sodipodi:namedview
     id="namedview1373"
     pagecolor="#ffffff"
     bordercolor="#666666"
     borderopacity="1.0"
     inkscape:pageshadow="2"
     inkscape:pageopacity="0.0"
     inkscape:pagecheckerboard="0"
     inkscape:document-units="mm"
     showgrid="false"
     inkscape:zoom="0.32026164"
     inkscape:cx="1055.3871"
     inkscape:cy="113.96931"
     inkscape:window-width="1920"
     inkscape:window-height="1017"
     inkscape:window-x="-8"
     inkscape:window-y="-8"
     inkscape:window-maximized="1"
     inkscape:current-layer="layer1" />
  <defs
     id="defs1368" />
  <g
     inkscape:label="Layer 1"
     inkscape:groupmode="layer"
     id="layer1"
     transform="translate(-159.02495,-146.22818)">
    <path
       id="H-TuranII"
       d="m 169.59354,146.22818 v 0.0984 0.0984 h -0.0801 c -0.0797,0 -0.0801,-3.3e-4 -0.0801,-0.0623 v -0.0623 h -0.57802 c -0.53962,0 -0.57784,0.002 -0.57541,0.0311 0.008,0.10066 5.7e-4,0.1112 -0.0831,0.1112 h -0.0801 v -0.10675 -0.10675 h -0.20459 -0.2046 v 0.0801 c 0,0.0767 -0.002,0.0801 -0.0523,0.0801 -0.0288,0 -0.0573,0.008 -0.0633,0.0178 -0.006,0.01 -0.0491,0.0178 -0.0957,0.0178 -0.0692,0 -0.0958,0.01 -0.14518,0.054 -0.0521,0.0464 -0.0575,0.0587 -0.0393,0.0879 0.0215,0.0345 0.003,0.12347 -0.035,0.17288 -0.009,0.0116 -0.0142,0.0357 -0.0114,0.0534 0.003,0.0177 -0.006,0.0823 -0.0189,0.14341 l -0.024,0.1112 h -0.12211 -0.12211 v 0.0716 c 0,0.0654 -0.005,0.0725 -0.0537,0.0823 -0.0296,0.006 -0.0581,0.0177 -0.0633,0.0262 -0.0166,0.0269 -0.0964,0.0177 -0.0964,-0.0112 0,-0.0348 -0.0692,-0.0348 -0.0825,0 -0.006,0.0165 -0.0334,0.0267 -0.0706,0.0267 h -0.0604 v -0.0984 -0.0985 l -0.20015,0.005 -0.20016,0.005 -0.006,0.0667 c -0.005,0.0609 -0.0101,0.0667 -0.0584,0.0667 -0.0306,0 -0.0572,0.0113 -0.0631,0.0267 -0.008,0.0196 -0.0383,0.0267 -0.11505,0.0267 -0.0813,0 -0.10488,-0.006 -0.10488,-0.0267 0,-0.015 -0.0159,-0.0267 -0.0362,-0.0267 -0.0199,0 -0.0408,0.012 -0.0464,0.0267 -0.0144,0.0374 -0.17644,0.0374 -0.19077,0 -0.0132,-0.0345 -0.0629,-0.0345 -0.0761,0 -0.0134,0.0348 -0.10626,0.0348 -0.11961,0 -0.014,-0.0365 -0.0765,-0.0337 -0.0994,0.004 -0.0178,0.0297 -0.0196,0.0297 -0.0374,0 -0.0228,-0.038 -0.0881,-0.0413 -0.0881,-0.004 0,0.0212 -0.0256,0.0267 -0.12333,0.0267 -0.10771,0 -0.12479,0.005 -0.13465,0.0356 -0.007,0.0213 -0.0241,0.0298 -0.0522,0.0328 -1e-5,-2.1e-4 -7e-5,-3.4e-4 -7e-5,-5.4e-4 0,-0.0206 -0.10777,0.008 -0.21051,0.0566 -0.0424,0.0199 -0.11983,0.0753 -0.17212,0.12305 l -0.0951,0.0869 -0.1678,-0.005 c -0.12149,-0.004 -0.17587,0.002 -0.19703,0.0194 -0.0191,0.0158 -0.0293,0.0173 -0.0293,0.004 0,-0.0252 -0.0579,-0.0261 -0.0827,-0.001 -0.0106,0.0107 -0.0749,0.0164 -0.15033,0.0134 l -0.13173,-0.005 -0.0836,-0.0125 c -0.0259,0.0259 -0.0969,0.0282 -0.1121,0.004 -0.006,-0.01 -0.0265,-0.0178 -0.0455,-0.0178 -0.019,0 -0.0346,0.008 -0.0346,0.0178 0,0.01 -0.0195,0.0178 -0.0434,0.0178 -0.0239,0 -0.0484,-0.008 -0.0545,-0.0178 -0.006,-0.01 -0.0265,-0.0178 -0.0455,-0.0178 -0.019,0 -0.0346,0.008 -0.0346,0.0178 0,0.01 -0.0231,0.0178 -0.0513,0.0178 -0.0363,0 -0.054,-0.0104 -0.0606,-0.0356 -0.009,-0.0332 -0.0243,-0.0356 -0.22764,-0.0356 -0.12217,0 -0.24374,0.009 -0.27598,0.0208 -0.10436,0.0377 -0.13059,0.1846 -0.0501,0.28028 l 0.046,0.0547 h -0.84665 -0.8467 v 0.16902 0.16902 h 0.87679 0.87679 l 0.0261,0.0756 c 0.0211,0.0609 0.0418,0.0835 0.1062,0.1162 0.0895,0.0454 0.24559,0.0507 0.29884,0.0103 0.0214,-0.0162 0.10291,-0.0232 0.27494,-0.0236 l 0.24463,-5.3e-4 h 0.0534 0.19467 c 0.11058,0 0.19943,0.008 0.20568,0.0178 0.006,0.01 0.0894,0.0178 0.18879,0.0178 h 0.17782 l 5.7e-4,8.8e-4 v 0.0929 l 0.13597,0.13379 c 0.0748,0.0736 0.13597,0.13763 0.13597,0.14233 0,0.005 -0.0761,0.009 -0.16901,0.009 h -0.16903 v 0.0801 0.0801 h -0.0877 c -0.0835,0 -0.14361,0.0303 -0.14361,0.0725 0,0.009 -0.012,0.0165 -0.0267,0.0165 -0.0186,0 -0.0267,-0.0188 -0.0267,-0.0623 v -0.0623 h -0.16013 c -0.13047,0 -0.16012,-0.005 -0.16012,-0.0267 0,-0.0222 -0.0346,-0.0267 -0.20461,-0.0267 -0.18221,0 -0.20481,0.003 -0.20665,0.0311 -0.002,0.0297 -0.002,0.0297 -0.0102,0 -0.007,-0.0274 -0.0327,-0.0311 -0.21142,-0.0311 h -0.20331 v 0.0712 c 0,0.0691 -0.002,0.0712 -0.0608,0.0712 -0.0334,0 -0.0641,0.01 -0.0682,0.0222 -0.005,0.0153 -0.0445,0.0212 -0.126,0.019 -0.0652,-0.002 -0.11863,0.004 -0.11863,0.0133 0,0.009 -0.0476,0.0167 -0.10575,0.0167 h -0.10574 l -0.10181,0.18142 c -0.11637,0.20734 -0.12595,0.26606 -0.0534,0.32845 0.0408,0.035 0.0432,0.0417 0.0154,0.0417 -0.0182,0 -0.0416,-0.009 -0.0521,-0.019 -0.0134,-0.0134 -0.058,-0.0136 -0.15032,-8.7e-4 -0.12133,0.0168 -0.13605,0.0236 -0.19359,0.0892 -0.0904,0.10307 -0.1412,0.1113 -0.56141,0.0909 -0.51792,-0.0251 -0.48827,-0.027 -0.48854,0.0311 -1.3e-4,0.0269 -0.005,0.0669 -0.0109,0.0889 -0.0105,0.0393 -0.0152,0.04 -0.27998,0.0383 -0.14808,-9.6e-4 -0.32178,0.007 -0.38599,0.0176 -0.18382,0.0305 -0.39984,0.11239 -0.52659,0.1996 -0.0411,0.0283 -0.0775,0.0515 -0.0809,0.0515 -0.0114,0 -0.20451,0.18649 -0.26239,0.25335 l -0.0576,0.0665 0.0911,0.1145 c 0.0565,0.071 0.0838,0.11902 0.0718,0.12642 -0.0106,0.007 -0.0149,0.0332 -0.009,0.0592 0.0112,0.0532 -0.002,0.08 -0.0482,0.097 -0.0435,0.0161 -0.0584,0.0638 -0.0327,0.10487 0.0275,0.0439 0.0108,0.0968 -0.0342,0.1086 -0.0415,0.0109 -0.0457,0.0526 -0.008,0.0836 0.0362,0.0301 0.0335,0.0595 -0.009,0.0979 -0.0373,0.0337 -0.0487,0.0978 -0.0174,0.0978 0.01,0 0.0273,0.02 0.0384,0.0444 0.0167,0.0366 0.0146,0.0506 -0.0114,0.0794 -0.0344,0.038 -0.026,0.0897 0.0146,0.0897 0.0384,0 0.0502,0.0517 0.0211,0.0932 -0.0293,0.0418 -0.009,0.10254 0.0347,0.10254 0.0347,0 0.0616,0.0553 0.0571,0.11753 -0.003,0.0403 0.005,0.0526 0.0338,0.0568 0.0406,0.006 0.0736,0.0574 0.0818,0.12808 0.004,0.0359 0.0172,0.0462 0.0675,0.0534 0.0554,0.008 0.0623,0.0148 0.0623,0.0623 0,0.0487 0.005,0.053 0.0553,0.0492 0.0365,-0.003 0.0662,0.008 0.0873,0.0311 0.0176,0.0194 0.0265,0.0353 0.0197,0.0353 -0.007,0 -0.003,0.0168 0.008,0.0373 0.0125,0.0234 0.0318,0.0342 0.0521,0.0289 0.0425,-0.0111 0.21926,0.13006 0.23227,0.18546 0.007,0.0298 0.0256,0.0446 0.064,0.0509 0.0613,0.0101 0.22013,0.14174 0.22013,0.18243 0,0.0351 0.0466,0.073 0.0711,0.0578 0.0249,-0.0154 0.21167,0.1337 0.21278,0.16986 0.001,0.0382 0.0368,0.0703 0.0782,0.0703 0.046,0 0.23122,0.15321 0.24412,0.20189 0.008,0.0289 0.0223,0.0374 0.0599,0.0346 0.0711,-0.005 0.28745,0.10748 0.30023,0.15637 0.009,0.0328 0.0189,0.0372 0.0649,0.028 0.0721,-0.0144 0.22856,0.0469 0.27973,0.10967 0.0317,0.0389 0.0447,0.0441 0.0706,0.0283 0.0246,-0.015 0.0561,-0.01 0.13907,0.0235 0.059,0.0236 0.11762,0.0564 0.13028,0.0728 0.0147,0.019 0.0501,0.0303 0.0978,0.0312 0.0993,0.002 0.25545,0.0708 0.26784,0.11814 0.008,0.0302 0.019,0.0346 0.0641,0.0256 0.0747,-0.0149 0.29648,0.0671 0.30889,0.11422 0.0107,0.0408 0.0527,0.0445 0.0834,0.007 0.0159,-0.0192 0.0582,-0.0267 0.1515,-0.0267 0.0986,0 0.13178,0.006 0.13958,0.0267 0.006,0.0147 0.0256,0.0267 0.0445,0.0267 0.0189,0 0.0388,-0.012 0.0445,-0.0267 0.008,-0.0204 0.0413,-0.0267 0.14233,-0.0267 0.101,0 0.1345,0.006 0.14233,0.0267 0.006,0.0147 0.0268,0.0267 0.0469,0.0267 0.0202,0 0.0413,-0.012 0.0469,-0.0267 0.008,-0.0204 0.0411,-0.0267 0.13987,-0.0267 0.0988,0 0.13206,0.006 0.13987,0.0267 0.006,0.0147 0.0268,0.0267 0.0469,0.0267 0.0202,0 0.0413,-0.012 0.0469,-0.0267 0.008,-0.0204 0.0413,-0.0267 0.14233,-0.0267 0.10101,0 0.1345,0.006 0.14233,0.0267 0.006,0.0147 0.0256,0.0267 0.0445,0.0267 0.0189,0 0.0388,-0.012 0.0445,-0.0267 0.008,-0.0204 0.0413,-0.0267 0.14233,-0.0267 0.101,0 0.1345,0.006 0.14233,0.0267 0.006,0.0147 0.0256,0.0267 0.0445,0.0267 0.0188,0 0.0388,-0.012 0.0445,-0.0267 0.008,-0.0203 0.041,-0.0267 0.13958,-0.0267 0.0933,0 0.13554,0.007 0.15151,0.0267 0.0122,0.0147 0.0334,0.0267 0.0472,0.0267 0.0138,0 0.0297,-0.012 0.0353,-0.0267 0.008,-0.0203 0.041,-0.0267 0.13959,-0.0267 0.0933,0 0.13553,0.007 0.1515,0.0267 0.0122,0.0147 0.0322,0.0267 0.0445,0.0267 0.0123,0 0.0323,-0.012 0.0445,-0.0267 0.016,-0.0192 0.0582,-0.0267 0.1515,-0.0267 0.0986,0 0.13179,0.006 0.13959,0.0267 0.006,0.0147 0.0215,0.0267 0.0353,0.0267 0.0138,0 0.035,-0.012 0.0472,-0.0267 0.016,-0.0192 0.0582,-0.0267 0.15151,-0.0267 0.0986,0 0.13178,0.006 0.13958,0.0267 0.006,0.0147 0.0256,0.0267 0.0445,0.0267 0.0189,0 0.0388,-0.012 0.0445,-0.0267 0.008,-0.0204 0.0413,-0.0267 0.14233,-0.0267 0.101,0 0.1345,0.006 0.14233,0.0267 0.006,0.0147 0.0268,0.0267 0.0469,0.0267 0.0202,0 0.0413,-0.012 0.0469,-0.0267 0.008,-0.0204 0.0411,-0.0267 0.13987,-0.0267 0.0988,0 0.13206,0.006 0.13986,0.0267 0.006,0.0147 0.0268,0.0267 0.0469,0.0267 0.0202,0 0.0413,-0.012 0.0469,-0.0267 0.008,-0.0204 0.0411,-0.0267 0.13986,-0.0267 0.0988,0 0.13207,0.006 0.13987,0.0267 0.006,0.0147 0.0268,0.0267 0.0469,0.0267 0.0202,0 0.0413,-0.012 0.0469,-0.0267 0.008,-0.0204 0.0413,-0.0267 0.14233,-0.0267 0.101,0 0.1345,0.006 0.14234,0.0267 0.006,0.0147 0.0256,0.0267 0.0445,0.0267 0.0189,0 0.0388,-0.012 0.0445,-0.0267 0.008,-0.0203 0.041,-0.0267 0.13959,-0.0267 0.0933,0 0.13554,0.007 0.1515,0.0267 0.0122,0.0147 0.0334,0.0267 0.0472,0.0267 0.0138,0 0.0297,-0.012 0.0353,-0.0267 0.008,-0.0203 0.041,-0.0267 0.13959,-0.0267 0.0933,0 0.13553,0.007 0.15151,0.0267 0.0122,0.0147 0.0322,0.0267 0.0445,0.0267 0.0123,0 0.0323,-0.012 0.0445,-0.0267 0.0159,-0.0192 0.0582,-0.0267 0.1515,-0.0267 0.0986,0 0.13178,0.006 0.13959,0.0267 0.006,0.0147 0.0215,0.0267 0.0353,0.0267 0.0138,0 0.035,-0.012 0.0472,-0.0267 0.0316,-0.0381 0.27649,-0.0381 0.2911,0 0.006,0.0147 0.0256,0.0267 0.0445,0.0267 0.0189,0 0.0388,-0.012 0.0445,-0.0267 0.008,-0.0204 0.0413,-0.0267 0.14233,-0.0267 0.101,0 0.1345,0.006 0.14233,0.0267 0.006,0.0147 0.0256,0.0267 0.0445,0.0267 0.0188,0 0.0388,-0.012 0.0445,-0.0267 0.008,-0.0204 0.0413,-0.0267 0.14233,-0.0267 0.10101,0 0.13451,0.006 0.14234,0.0267 0.006,0.0147 0.0268,0.0267 0.0469,0.0267 0.0202,0 0.0413,-0.012 0.0469,-0.0267 0.008,-0.0204 0.0411,-0.0267 0.13986,-0.0267 0.0988,0 0.13206,0.006 0.13987,0.0267 0.006,0.0147 0.0268,0.0267 0.0469,0.0267 0.0202,0 0.0413,-0.012 0.0469,-0.0267 0.0148,-0.0386 0.26987,-0.0386 0.28467,0 0.0133,0.0346 0.0757,0.0346 0.089,0 0.008,-0.0203 0.041,-0.0267 0.13958,-0.0267 0.0933,0 0.13554,0.007 0.15151,0.0267 0.0284,0.0342 0.0694,0.0342 0.0825,0 0.008,-0.0203 0.041,-0.0267 0.13959,-0.0267 0.0933,0 0.13553,0.007 0.1515,0.0267 0.0282,0.034 0.0608,0.034 0.089,0 0.031,-0.0374 0.25362,-0.0374 0.28467,0 0.0282,0.034 0.0608,0.034 0.089,0 0.0316,-0.0381 0.27648,-0.0381 0.29109,0 0.006,0.0147 0.0215,0.0267 0.0353,0.0267 0.0138,0 0.035,-0.012 0.0472,-0.0267 0.0159,-0.0192 0.0582,-0.0267 0.1515,-0.0267 0.0986,0 0.13179,0.006 0.1396,0.0267 0.006,0.0147 0.0256,0.0267 0.0445,0.0267 0.0188,0 0.0388,-0.012 0.0445,-0.0267 0.0148,-0.0386 0.26987,-0.0386 0.28466,0 0.0133,0.0346 0.0806,0.0346 0.0939,0 0.008,-0.0204 0.0411,-0.0267 0.13986,-0.0267 0.0988,0 0.13206,0.006 0.13987,0.0267 0.0133,0.0346 0.0806,0.0346 0.0939,0 0.0148,-0.0386 0.26987,-0.0386 0.28467,0 0.006,0.0147 0.0256,0.0267 0.0445,0.0267 0.0188,0 0.0388,-0.012 0.0445,-0.0267 0.008,-0.0204 0.0413,-0.0267 0.14233,-0.0267 0.101,0 0.1345,0.006 0.14233,0.0267 0.0133,0.0346 0.0757,0.0346 0.089,0 0.0146,-0.0381 0.25949,-0.0381 0.2911,0 0.0284,0.0342 0.0694,0.0342 0.0825,0 0.0148,-0.0387 0.28268,-0.0387 0.29751,0 0.0149,0.0388 0.0841,0.0334 0.0948,-0.007 0.012,-0.046 0.23321,-0.10318 0.28731,-0.0742 0.0347,0.0186 0.0755,-0.002 0.0947,-0.0477 0.0114,-0.0272 0.2325,-0.0783 0.25249,-0.0583 0.0298,0.0298 0.0794,0.0216 0.091,-0.0151 0.0138,-0.0435 0.22911,-0.10612 0.27372,-0.0796 0.0371,0.022 0.0916,0.0111 0.0916,-0.0184 0,-0.0326 0.20403,-0.0851 0.27733,-0.0713 0.048,0.009 0.0673,0.004 0.0918,-0.0246 0.0171,-0.0198 0.0766,-0.0488 0.13225,-0.0644 0.0832,-0.0233 0.10978,-0.0244 0.14984,-0.006 0.039,0.0178 0.0502,0.0177 0.0562,-1.4e-4 0.0176,-0.0528 0.0632,-0.078 0.12145,-0.0671 0.045,0.008 0.0624,0.004 0.0761,-0.0208 0.0135,-0.0241 0.0374,-0.031 0.1,-0.0286 0.0708,0.003 0.0844,-0.002 0.0978,-0.0376 0.0191,-0.0503 0.056,-0.0656 0.12516,-0.0518 0.0482,0.01 0.0532,0.006 0.0532,-0.0357 0,-0.0348 0.0113,-0.0492 0.0453,-0.0578 0.0249,-0.006 0.05,-0.007 0.0557,-9.5e-4 0.0217,0.0217 0.0802,-0.0272 0.0717,-0.0599 -0.0114,-0.0438 0.0346,-0.10764 0.0683,-0.0947 0.041,0.0157 0.0819,-0.0269 0.0618,-0.0644 -0.0219,-0.0409 0.012,-0.0852 0.0709,-0.0927 0.0371,-0.005 0.044,-0.0145 0.0414,-0.0591 -0.004,-0.081 0.01,-0.13312 0.0344,-0.12409 0.0121,0.004 0.0336,6.8e-4 0.0477,-0.008 0.0211,-0.0134 0.0218,-0.0247 0.004,-0.0641 -0.0268,-0.0588 -0.0132,-0.10805 0.0333,-0.1202 0.0416,-0.0109 0.0476,-0.0799 0.008,-0.095 -0.0389,-0.0149 -0.0329,-0.0908 0.009,-0.11317 0.0196,-0.0105 0.0356,-0.0302 0.0356,-0.0439 0,-0.0137 -0.016,-0.0299 -0.0356,-0.0361 -0.0423,-0.0134 -0.0488,-0.089 -0.009,-0.10429 0.0397,-0.0152 0.0333,-0.0842 -0.009,-0.0952 -0.0196,-0.005 -0.0356,-0.0152 -0.0356,-0.0225 0,-0.007 0.0941,-0.0397 0.20905,-0.072 0.28206,-0.0793 0.27134,-0.072 0.27132,-0.18264 -1e-5,-0.1148 -0.0615,-0.25034 -0.20217,-0.44524 -0.0551,-0.0764 -0.10029,-0.1527 -0.10029,-0.16951 0,-0.0168 0.016,-0.0443 0.0356,-0.061 0.0341,-0.0292 0.0356,-0.0525 0.0356,-0.53497 0,-0.477 -0.002,-0.50617 -0.0346,-0.53576 -0.019,-0.0172 -0.037,-0.0525 -0.04,-0.0784 -0.005,-0.0446 -0.0112,-0.0473 -0.11664,-0.0524 -0.0795,-0.004 -0.1112,-0.0122 -0.1112,-0.0296 0,-0.0142 -0.0278,-0.029 -0.0671,-0.0356 -0.11163,-0.0189 -0.11551,-0.026 -0.0761,-0.14046 l 0.035,-0.10185 -0.0419,-0.016 c -0.0231,-0.009 -0.0648,-0.0156 -0.0927,-0.0152 -0.0279,4.2e-4 -0.29496,-0.0554 -0.59341,-0.12398 -0.29846,-0.0686 -0.59069,-0.13389 -0.6494,-0.14504 -0.0587,-0.0112 -0.25341,-0.0534 -0.43266,-0.0939 -0.34132,-0.0771 -0.3331,-0.0728 -0.29777,-0.15818 0.009,-0.0227 -0.0128,-0.0387 -0.10493,-0.0756 -0.0643,-0.0257 -0.12778,-0.0468 -0.14116,-0.0468 -0.036,0 -0.0686,0.0466 -0.11088,0.15828 l -0.0378,0.0997 -0.11074,-0.003 c -0.0719,-0.002 -0.12155,-0.013 -0.14158,-0.0311 -0.0389,-0.0352 -0.0621,-0.0353 -0.0913,-1.4e-4 -0.021,0.0252 -0.0245,0.0252 -0.0387,0 -0.0174,-0.0311 -0.0769,-0.0374 -0.0939,-0.0101 -0.0156,0.0253 -0.10771,0.0221 -0.12978,-0.005 -0.0102,-0.0123 -0.0212,-0.0503 -0.0244,-0.0845 -0.005,-0.0484 -0.0138,-0.0622 -0.0415,-0.0622 -0.0298,0 -0.0365,0.0137 -0.041,0.0845 -0.003,0.0465 -0.0127,0.0845 -0.0216,0.0845 -0.0242,0 -0.061,-0.0753 -0.0553,-0.11273 0.003,-0.018 -0.007,-0.046 -0.0206,-0.0623 -0.0141,-0.0163 -0.0306,-0.0504 -0.0367,-0.0759 l -0.0109,-0.0463 -0.49403,-0.0201 c -0.51622,-0.0211 -0.94008,-0.0374 -1.24131,-0.048 -0.0978,-0.003 -0.33404,-0.0146 -0.52485,-0.0248 -0.72398,-0.0388 -0.70497,-0.039 -0.72703,0.009 -0.0107,0.0235 -0.0281,0.0427 -0.0387,0.0427 -0.0128,0 -0.0152,0.0271 -0.007,0.0801 0.0131,0.0874 -0.009,0.10324 -0.0808,0.0583 -0.0275,-0.0172 -0.0395,-0.0172 -0.0567,0 -0.0337,0.0336 -0.15785,0.0274 -0.1851,-0.009 -0.0194,-0.0262 -0.0289,-0.0276 -0.0596,-0.009 -0.0468,0.0286 -0.16944,0.0287 -0.21506,1.8e-4 -0.0281,-0.0176 -0.0425,-0.0176 -0.0707,0 -0.0194,0.0121 -0.0675,0.0221 -0.10676,0.0221 -0.0643,0 -0.0714,-0.004 -0.0714,-0.0445 0,-0.0415 -0.006,-0.0445 -0.089,-0.0445 h -0.0889 v -0.0801 -0.0801 h 0.55154 0.55154 v -0.0692 c 0,-0.0452 0.009,-0.0728 0.0267,-0.0795 0.0147,-0.006 0.0267,-0.0255 0.0267,-0.0442 0,-0.0187 -0.012,-0.0439 -0.0267,-0.0561 -0.0147,-0.0122 -0.0267,-0.0323 -0.0267,-0.0447 0,-0.0124 0.012,-0.0272 0.0267,-0.0328 0.0147,-0.006 0.0267,-0.0268 0.0267,-0.047 0,-0.0202 -0.012,-0.0413 -0.0267,-0.047 -0.0186,-0.007 -0.0267,-0.0361 -0.0267,-0.0954 0,-0.0593 0.008,-0.0883 0.0267,-0.0954 0.0147,-0.006 0.0267,-0.0268 0.0267,-0.047 0,-0.0202 -0.012,-0.0413 -0.0267,-0.0469 -0.0195,-0.008 -0.0267,-0.0381 -0.0267,-0.11318 0,-0.0751 0.007,-0.10571 0.0267,-0.11318 0.0331,-0.0127 0.0349,-0.0714 0.003,-0.0979 -0.036,-0.0299 -0.0391,-0.22628 -0.004,-0.23984 0.0352,-0.0135 0.0358,-0.0808 5.7e-4,-0.0942 -0.0147,-0.006 -0.0267,-0.0205 -0.0267,-0.0331 0,-0.0126 0.012,-0.0275 0.0267,-0.0331 0.0147,-0.006 0.0267,-0.0268 0.0267,-0.0469 0,-0.0202 -0.012,-0.0413 -0.0267,-0.047 -0.0147,-0.006 -0.0267,-0.0254 -0.0267,-0.0439 0,-0.0185 -0.0112,-0.0337 -0.0248,-0.0337 -0.0136,0 -0.0294,-0.012 -0.035,-0.0267 -0.0118,-0.0309 -0.0747,-0.0358 -0.0924,-0.007 -0.009,0.0139 -0.0174,0.0139 -0.0313,0 -0.028,-0.028 -0.0828,-0.0238 -0.0948,0.007 -0.0142,0.0369 -0.15881,0.0369 -0.17298,0 -0.014,-0.0365 -0.0767,-0.0337 -0.0986,0.004 -0.0165,0.0288 -0.02,0.0281 -0.0464,-0.009 -0.0305,-0.0429 -0.0786,-0.052 -0.10971,-0.0209 -0.0137,0.0137 -0.0166,0.006 -0.0105,-0.0265 0.006,-0.0313 -2.5e-4,-0.049 -0.02,-0.0566 -0.0318,-0.0122 -0.04,-0.1049 -0.0109,-0.12287 0.0273,-0.0168 0.0211,-0.0799 -0.009,-0.0914 -0.0299,-0.0115 -0.0367,-0.10488 -0.009,-0.12208 0.0273,-0.0169 0.0211,-0.0799 -0.009,-0.0914 -0.0301,-0.0115 -0.036,-0.0697 -0.009,-0.0865 0.0273,-0.0168 0.0211,-0.0799 -0.009,-0.0914 -0.0147,-0.006 -0.0267,-0.0254 -0.0267,-0.0439 0,-0.0266 -0.013,-0.0337 -0.0623,-0.0337 -0.0342,0 -0.0623,-0.008 -0.0623,-0.0178 0,-0.01 -0.0276,-0.0178 -0.0612,-0.0178 -0.0593,0 -0.0614,-0.002 -0.0667,-0.0756 l -0.006,-0.0756 -0.20905,-0.005 z m -10.11069,4.91482 c 0.0185,-4.8e-4 0.0584,0.0327 0.0584,0.0524 0,0.009 -0.0122,0.0156 -0.0272,0.0156 -0.0287,0 -0.0559,-0.0473 -0.0377,-0.0656 0.002,-0.002 0.004,-0.002 0.006,-0.002 z m -0.0127,0.22938 c 0.008,0 0.0158,0.007 0.0296,0.0207 0.0244,0.0245 0.0256,0.0344 0.007,0.0572 h -4e-5 c -0.0126,0.0152 -0.0289,0.0276 -0.0363,0.0276 -0.007,0 -0.0238,-0.0124 -0.0363,-0.0276 -0.0189,-0.0228 -0.0178,-0.0327 0.007,-0.0572 0.0138,-0.0138 0.0217,-0.0207 0.0296,-0.0207 z m 0.0379,0.26861 c 0.0256,-0.003 0.0531,0.0181 0.0478,0.0457 -0.003,0.017 -0.0199,0.0337 -0.037,0.0369 -0.0368,0.007 -0.0616,-0.0443 -0.0345,-0.0714 0.007,-0.007 0.0151,-0.0103 0.0236,-0.0112 z m 0.14236,0.22827 c 0.0266,0 0.0343,0.01 0.0301,0.0386 -0.007,0.0483 -0.0379,0.0598 -0.0668,0.025 -0.0276,-0.0333 -0.0101,-0.0636 0.0367,-0.0636 z m 0.19307,0.16635 c 0.0255,-0.002 0.0548,0.0194 0.05,0.0447 -0.003,0.0158 -0.0194,0.0314 -0.0365,0.0347 -0.0355,0.007 -0.0619,-0.0439 -0.0362,-0.0696 0.006,-0.006 0.0143,-0.009 0.0228,-0.01 z m 0.24919,0.0925 c 0.014,-0.001 0.0269,0.01 0.0269,0.0345 0,0.0201 -0.014,0.038 -0.0326,0.0416 -0.0253,0.005 -0.0313,-0.003 -0.0267,-0.0353 0.003,-0.0253 0.0184,-0.0392 0.0323,-0.0407 z m 0.21899,0.0131 c 0.004,-5.6e-4 0.0106,0.004 0.0214,0.0128 0.0147,0.0122 0.0267,0.0292 0.0267,0.0378 0,0.0184 -0.0246,0.0207 -0.0415,0.004 -0.006,-0.007 -0.0119,-0.0235 -0.0119,-0.0378 0,-0.0105 10e-4,-0.016 0.005,-0.0165 z m 16.9092,0.16276 c 0.006,0.002 0.007,0.0112 -0.003,0.0267 -0.006,0.0105 -0.0202,0.019 -0.0306,0.019 -0.0118,0 -0.0105,-0.0101 0.003,-0.0271 0.0122,-0.0147 0.0238,-0.0204 0.0299,-0.0186 z m -16.73066,0.12511 c 0.0161,-3.7e-4 0.0245,0.003 0.0268,0.01 0.003,0.0105 0.0265,0.0431 0.0511,0.0724 0.0354,0.042 0.0499,0.0489 0.0695,0.0327 0.0136,-0.0113 0.0247,-0.0355 0.0247,-0.0539 0,-0.0184 0.006,-0.033 0.0133,-0.0324 0.0275,0.002 0.20888,0.13631 0.20505,0.15185 -0.002,0.009 -0.0158,0.0482 -0.0303,0.0874 -0.0145,0.0392 -0.0268,0.12566 -0.0272,0.19227 -5.7e-4,0.11327 -0.005,0.12448 -0.0581,0.17346 -0.0315,0.0288 -0.0659,0.0524 -0.0764,0.0524 -0.0105,0 -0.0491,-0.0308 -0.0859,-0.0684 l -0.0668,-0.0684 0.0659,-0.1106 c 0.0599,-0.1005 0.0633,-0.11318 0.038,-0.13855 -0.0253,-0.0254 -0.0368,-0.0202 -0.12558,0.0564 -0.0537,0.0464 -0.10328,0.0845 -0.11012,0.0846 -0.007,1.4e-4 -0.0481,-0.0296 -0.0917,-0.0661 -0.0706,-0.059 -0.0765,-0.0695 -0.054,-0.0956 0.0139,-0.0161 0.0479,-0.0685 0.0754,-0.11627 0.0455,-0.079 0.0474,-0.0889 0.0208,-0.10828 -0.0248,-0.0181 -0.0153,-0.0246 0.0634,-0.0427 0.0326,-0.007 0.0562,-0.0114 0.0722,-0.0118 z m -0.45855,0.0151 c 0.0103,5.3e-4 0.0224,0.002 0.037,0.004 0.0642,0.0103 0.0751,0.0191 0.0923,0.075 0.0165,0.0537 0.0148,0.067 -0.0109,0.0865 -0.0415,0.0315 -0.0386,0.0325 -0.12492,-0.0425 -0.0682,-0.0592 -0.0741,-0.0703 -0.053,-0.0987 0.0143,-0.0192 0.0286,-0.0263 0.0596,-0.0247 z m 17.15898,0.0834 c 0.0237,0 0.0356,0.0119 0.0356,0.0356 0,0.0237 -0.0118,0.0356 -0.0356,0.0356 -0.0237,0 -0.0356,-0.0119 -0.0356,-0.0356 0,-0.0237 0.0118,-0.0356 0.0356,-0.0356 z m -0.0906,0.23705 c 0.008,-6.8e-4 0.0161,0.002 0.0225,0.008 0.0106,0.0107 0.0146,0.0319 0.009,0.0473 -0.0134,0.0348 -0.0581,0.0364 -0.0711,0.002 -0.0102,-0.0265 0.0156,-0.0557 0.0399,-0.0578 z m -13.62821,0.17215 c 0.0321,0 0.037,0.0108 0.037,0.0801 0,0.044 -0.002,0.0801 -0.005,0.0801 -0.003,0 -0.0169,-0.03 -0.031,-0.0667 -0.0141,-0.0367 -0.0285,-0.0727 -0.0318,-0.0801 -0.003,-0.007 0.0107,-0.0133 0.0311,-0.0133 z m 0.38526,0 h 0.0597 l -0.035,0.0815 c -0.0192,0.0448 -0.035,0.0929 -0.035,0.10675 0,0.0153 -0.0182,0.0252 -0.0465,0.0252 -0.0452,0 -0.0462,-0.002 -0.0342,-0.0823 0.0182,-0.12153 0.0249,-0.13114 0.0908,-0.13114 z m 3.39795,0 c 0.0275,0 0.0409,0.008 0.0339,0.0188 v 0 c -0.006,0.0104 -0.0266,0.0604 -0.0449,0.1112 l -0.0333,0.0924 -5.7e-4,-0.1112 c -5.7e-4,-0.1076 5.7e-4,-0.1112 0.0449,-0.1112 z m 2.85976,0 h 0.0419 c 0.0393,0 0.0419,0.007 0.0419,0.10675 0,0.0587 -0.002,0.10675 -0.005,0.10675 -0.002,0 -0.0213,-0.048 -0.0419,-0.10675 z m 0.41667,0 c 0.0338,0 0.0586,0.006 0.0552,0.0133 -0.003,0.007 -0.022,0.0554 -0.0412,0.10675 -0.024,0.0642 -0.0448,0.0934 -0.0664,0.0934 -0.0342,0 -0.0387,-0.0334 -0.02,-0.14678 0.0103,-0.0621 0.0153,-0.0667 0.0725,-0.0667 z m 2.95977,0 h 0.0604 c 0.0653,0 0.0693,0.006 0.0898,0.13789 0.0113,0.0725 0.01,0.0756 -0.0343,0.0756 -0.0279,0 -0.046,-0.01 -0.046,-0.0252 0,-0.0139 -0.0157,-0.0619 -0.035,-0.10675 z m 0.4346,0 c 0.0245,0 0.0445,0.003 0.0445,0.007 0,0.004 -0.0195,0.0497 -0.0434,0.10231 l -0.0435,0.0957 -0.001,-0.10231 c -0.001,-0.0975 0.001,-0.1023 0.0435,-0.1023 z m -11.90691,4e-5 h 0.0949 0.095 l -0.0375,0.0845 c -0.046,0.10357 -0.0641,0.35756 -0.034,0.47696 0.0194,0.077 0.0175,0.0869 -0.0347,0.17813 -0.0304,0.0531 -0.0567,0.0959 -0.0584,0.0951 -0.002,-8e-4 -0.0432,-0.0182 -0.0921,-0.0387 -0.0489,-0.0205 -0.091,-0.0386 -0.0935,-0.0402 -0.002,-0.002 0.009,-0.0612 0.0246,-0.13229 0.0247,-0.10936 0.0254,-0.13169 0.005,-0.14487 -0.046,-0.0291 -0.062,-0.0162 -0.12336,0.10001 -0.0668,0.12653 -0.0671,0.12662 -0.20029,0.0709 -0.0361,-0.0151 -0.0657,-0.0348 -0.0657,-0.0438 0,-0.0254 0.0531,-0.0722 0.0819,-0.0722 0.0474,0 0.20054,-0.088 0.2644,-0.15182 0.0761,-0.0761 0.14678,-0.21062 0.16256,-0.3093 z m 6.68317,0 c 0.0989,0 0.17981,0.002 0.17976,0.004 0,0.002 -0.0199,0.0525 -0.0441,0.11119 -0.11198,0.27184 -0.009,0.64602 0.22198,0.80566 0.0521,0.036 0.0701,0.0608 0.0706,0.0973 5.7e-4,0.0483 -5.7e-4,0.0489 -0.1129,0.0489 h -0.11356 l -0.0127,-0.11877 c -0.0158,-0.1473 -0.0228,-0.16589 -0.0626,-0.16589 -0.035,0 -0.0445,0.0275 -0.063,0.18236 l -0.0123,0.10231 h -0.11081 -0.11082 l -0.02,-0.14153 c -0.0199,-0.14085 -0.0197,-0.14209 0.0372,-0.26243 0.0475,-0.10037 0.0582,-0.1466 0.0633,-0.27216 0.006,-0.14819 -4.4e-4,-0.17851 -0.0768,-0.36024 -0.012,-0.0285 0.002,-0.0311 0.16673,-0.0311 z m -1.83295,2.4e-4 c 0.0272,2.5e-4 0.0569,0.005 0.0625,0.0141 0.005,0.008 0.0144,0.0559 0.0211,0.10675 0.011,0.0831 0.009,0.0924 -0.0215,0.0924 -0.0244,0 -0.0434,-0.0259 -0.0687,-0.0934 -0.0192,-0.0514 -0.0378,-0.0994 -0.0412,-0.10675 -0.004,-0.009 0.0205,-0.0133 0.0477,-0.0131 z m 10.0634,0.0447 c 0.0183,-0.001 0.0356,0.007 0.0356,0.0262 0,0.0147 -0.0187,0.0293 -0.0416,0.0326 -0.0323,0.005 -0.0402,-0.001 -0.0353,-0.0267 0.004,-0.0196 0.023,-0.0307 0.0413,-0.0321 z m -4.70598,0.0351 c -2e-4,0 -0.0121,0.0393 -0.0267,0.0873 -0.0809,0.26681 0.0274,0.60668 0.24029,0.75392 0.0521,0.036 0.0701,0.0608 0.0706,0.0973 5.7e-4,0.0483 -5.6e-4,0.0489 -0.1129,0.0489 h -0.11359 l -0.0127,-0.11878 c -0.0158,-0.14729 -0.0228,-0.16589 -0.0626,-0.16589 -0.035,0 -0.0445,0.0275 -0.063,0.18236 l -0.0122,0.10231 h -0.11113 -0.11116 l -0.0119,-0.10158 c -0.0178,-0.15159 -0.0289,-0.18309 -0.0642,-0.18309 -0.0349,0 -0.0444,0.0275 -0.063,0.18236 l -0.0123,0.10231 h -0.1136 c -0.0989,0 -0.11359,-0.004 -0.11359,-0.0331 0,-0.0191 0.039,-0.0623 0.0924,-0.10231 0.18305,-0.13712 0.28122,-0.33422 0.28122,-0.56467 0,-0.0724 -0.0117,-0.16468 -0.0259,-0.20506 -0.0142,-0.0404 -0.0243,-0.0742 -0.0223,-0.0751 0.002,-8.7e-4 0.0857,-0.003 0.18601,-0.004 0.1003,-0.001 0.18233,-0.003 0.1822,-0.003 z m -7.04314,0.009 h 0.18365 0.18365 l -0.0263,0.0756 c -0.0185,0.0533 -0.024,0.12295 -0.0186,0.23574 0.009,0.19298 0.0601,0.32052 0.17869,0.44868 0.0701,0.0757 0.0778,0.0924 0.0704,0.15178 l -0.008,0.0667 h -0.11123 -0.11127 l -0.0119,-0.10157 c -0.0178,-0.1516 -0.0289,-0.18309 -0.0642,-0.18309 -0.0349,0 -0.0444,0.0275 -0.063,0.18236 l -0.0123,0.10231 h -0.11081 -0.11081 l -0.02,-0.14151 c -0.0199,-0.1408 -0.0197,-0.14211 0.0371,-0.26242 0.0698,-0.14775 0.0881,-0.36048 0.0425,-0.49413 z m 11.51213,0.0734 c 0.0248,-0.002 0.0521,0.0198 0.0469,0.0464 -0.003,0.0171 -0.0188,0.0334 -0.0346,0.0365 -0.0337,0.007 -0.0599,-0.0478 -0.035,-0.0727 0.006,-0.007 0.0144,-0.01 0.0227,-0.0102 z m -0.24397,0.0458 c 0.009,0.001 0.0173,0.005 0.025,0.0131 0.0134,0.0134 0.019,0.0331 0.0123,0.0439 -0.0179,0.0289 -0.0629,0.0236 -0.0754,-0.009 -0.0114,-0.0296 0.0124,-0.0518 0.038,-0.0479 z m -15.5845,0.0206 c 0.0109,1.8e-4 0.0236,0.0173 0.0508,0.0588 0.0263,0.0402 0.0456,0.0753 0.0429,0.0779 -0.009,0.009 -0.13848,-0.0635 -0.13788,-0.0768 3.4e-4,-0.007 0.0111,-0.0267 0.0239,-0.0436 0.008,-0.0105 0.0138,-0.0164 0.0203,-0.0163 z m 14.42849,0.10924 c 0.005,0 0.0784,0.0289 0.16367,0.0642 0.12957,0.0536 0.17117,0.063 0.25374,0.0572 l 0.0987,-0.007 0.004,0.14452 0.004,0.14452 -0.0897,0.0207 c -0.0493,0.0114 -0.0958,0.0207 -0.10341,0.0207 -0.008,0 -0.0359,-0.052 -0.0629,-0.11565 -0.0362,-0.0851 -0.0581,-0.11564 -0.0833,-0.11564 -0.0479,0 -0.0552,0.0319 -0.0373,0.16547 l 0.0156,0.11659 -0.0745,0.0188 c -0.041,0.0104 -0.0872,0.0236 -0.10266,0.0295 -0.0204,0.008 -0.0359,-0.008 -0.0566,-0.0574 -0.0157,-0.0375 -0.0248,-0.0803 -0.0202,-0.095 0.005,-0.0147 0.025,-0.0726 0.0454,-0.12861 0.0205,-0.056 0.0371,-0.13808 0.0371,-0.18236 0,-0.0443 0.004,-0.0805 0.009,-0.0805 z m 0.71135,0.10098 c 0.0223,-5.6e-4 0.0536,0.0112 0.11019,0.0348 0.0473,0.0197 0.0599,0.0357 0.062,0.0779 0.002,0.0292 0.003,0.0626 0.005,0.0742 0.001,0.0116 -0.0383,0.0315 -0.0872,0.0441 -0.0489,0.0127 -0.0939,0.0232 -0.10001,0.0234 -0.006,1.9e-4 -0.0274,-0.0373 -0.0473,-0.0833 l -0.0362,-0.0837 0.0384,-0.0486 c 0.0202,-0.0255 0.0334,-0.0384 0.0556,-0.039 z m -12.22462,0.0584 c 0.0292,-0.003 0.0512,0.0225 0.0654,0.0763 0.0109,0.0416 0.0355,0.1025 0.0546,0.13538 0.0234,0.0402 0.0291,0.0666 0.0174,0.0807 -0.014,0.0169 -0.0543,0.211 -0.0548,0.2643 -6e-5,0.007 -0.0475,0.0133 -0.10532,0.0133 h -0.10519 l -0.0116,-0.0756 c -0.0265,-0.17254 -0.0327,-0.19454 -0.0572,-0.20394 -0.0419,-0.0161 -0.06,0.0184 -0.0799,0.15255 l -0.0188,0.127 h -0.11353 -0.11349 v -0.0647 c 0,-0.051 0.0154,-0.0814 0.0724,-0.1432 0.0677,-0.0734 0.1767,-0.27165 0.17673,-0.32136 3e-5,-0.0302 0.0264,-0.028 0.0534,0.004 0.0314,0.0379 0.11817,0.0331 0.16012,-0.009 0.0224,-0.0224 0.0425,-0.0345 0.0599,-0.0363 z m 3.15699,0.002 c 0.0199,8.7e-4 0.0427,0.0124 0.0615,0.0343 0.0391,0.0457 0.12269,0.0459 0.16388,4.2e-4 0.035,-0.0387 0.0625,-0.0326 0.0631,0.014 2.2e-4,0.0165 0.0228,0.0759 0.0502,0.13197 0.0299,0.0612 0.0421,0.1044 0.0307,0.10818 -0.0105,0.004 -0.027,0.0657 -0.0368,0.1383 l -0.0178,0.13201 -0.1098,0.005 -0.10981,0.005 -0.0127,-0.1031 c -0.0162,-0.13227 -0.0358,-0.18316 -0.0702,-0.18316 -0.0344,0 -0.0539,0.0509 -0.0701,0.18237 l -0.0125,0.1023 h -0.10251 c -0.0564,0 -0.10784,-0.005 -0.11436,-0.0119 -0.035,-0.035 -0.008,-0.12156 0.0608,-0.19644 0.062,-0.0673 0.14512,-0.21739 0.18268,-0.32991 0.007,-0.0209 0.0239,-0.0307 0.0437,-0.0299 z m 3.52131,8.7e-4 c 0.0294,8.8e-4 0.0551,0.0334 0.0768,0.0976 0.0169,0.05 0.052,0.12293 0.0779,0.16214 0.0434,0.0656 0.0462,0.0808 0.0351,0.18939 l -0.0121,0.11809 h -0.11192 -0.11189 l -0.0126,-0.10231 c -0.0162,-0.13158 -0.0356,-0.18236 -0.0702,-0.18236 -0.0352,0 -0.043,0.0214 -0.0584,0.16155 l -0.0127,0.11422 -0.1088,0.005 -0.10884,0.005 -0.0113,-0.0564 c -0.0211,-0.10537 -0.0114,-0.16095 0.0412,-0.23751 0.0465,-0.0676 0.0783,-0.13625 0.11527,-0.24867 0.0107,-0.0327 0.0125,-0.0325 0.0469,0.004 0.0453,0.0487 0.12546,0.0496 0.16853,0.002 0.0202,-0.0223 0.0392,-0.0332 0.0568,-0.0327 z m 3.15965,4.5e-4 c 0.0173,-6.8e-4 0.0358,0.0101 0.0558,0.0322 0.0391,0.0432 0.13723,0.0488 0.16972,0.01 0.0341,-0.0411 0.046,-0.0329 0.07,0.0489 0.0122,0.0416 0.0462,0.11338 0.0755,0.15954 0.05,0.0787 0.0524,0.0911 0.0408,0.20015 l -0.0124,0.11624 h -0.11152 -0.11154 l -0.0122,-0.1023 c -0.0199,-0.16612 -0.0272,-0.18494 -0.0696,-0.17889 -0.0332,0.005 -0.0399,0.0223 -0.054,0.1433 l -0.0161,0.13789 h -0.11057 -0.11057 l -0.011,-0.0667 c -0.0187,-0.11347 -0.0133,-0.14232 0.0433,-0.22615 0.0301,-0.0446 0.0695,-0.12311 0.0875,-0.17437 0.0229,-0.0654 0.0482,-0.0984 0.077,-0.0996 z m 2.82757,0.0265 c 0.0563,-0.001 0.10231,0.003 0.10231,0.009 -1e-5,0.006 -0.035,0.0201 -0.0778,0.0308 -0.0428,0.0108 -0.0915,0.0249 -0.10831,0.0313 -0.0242,0.009 -0.0293,0.003 -0.0245,-0.0285 0.005,-0.0361 0.0166,-0.0404 0.10834,-0.0425 z m -14.21308,0.27723 c 0.0173,0.001 0.0452,0.0215 0.0876,0.0616 0.0469,0.0443 0.0828,0.0868 0.0799,0.0945 -0.003,0.008 -0.0474,-0.005 -0.0988,-0.0275 -0.0633,-0.0281 -0.0933,-0.0518 -0.0931,-0.0736 3.4e-4,-0.0376 0.007,-0.056 0.0244,-0.055 z m 5.14733,0.0457 0.0872,0.0666 c 0.048,0.0366 0.1052,0.0748 0.12721,0.0848 0.022,0.01 0.04,0.029 0.04,0.0421 0,0.0175 -0.0309,0.0238 -0.11565,0.0238 -0.0857,0 -0.11564,-0.006 -0.11564,-0.0242 0,-0.0133 -0.005,-0.0622 -0.0116,-0.10866 z m -3.36938,0.019 c 0.008,-0.004 0.0287,0.0113 0.0788,0.0496 0.0465,0.0355 0.10253,0.0728 0.12454,0.0828 0.022,0.01 0.04,0.029 0.04,0.0421 0,0.0174 -0.0305,0.0238 -0.11332,0.0238 h -0.11332 l -0.011,-0.0667 c -0.006,-0.0367 -0.0111,-0.0847 -0.0112,-0.10665 -7e-5,-0.0142 4.7e-4,-0.0229 0.006,-0.025 z m 11.06591,0.0191 c 0.005,6.2e-4 0.008,0.005 0.01,0.0131 0.003,0.0147 0.003,0.0289 0,0.0317 -0.003,0.003 -0.03,0.0105 -0.0594,0.0172 l -0.0534,0.0122 0.0534,-0.0439 c 0.0265,-0.0218 0.0412,-0.0313 0.0497,-0.0302 z m -10.06396,0.009 c 0.009,-0.002 0.006,0.009 5.7e-4,0.03 -0.006,0.0236 -0.0116,0.0648 -0.0117,0.0917 -2.4e-4,0.0483 -0.002,0.0489 -0.11589,0.0489 -0.12064,0 -0.15064,-0.0232 -0.0698,-0.0539 0.0252,-0.01 0.0825,-0.0426 0.12736,-0.0735 0.0402,-0.0277 0.0605,-0.0416 0.0694,-0.0432 z m 3.3804,3e-5 c 0.009,-0.002 0.006,0.009 5.7e-4,0.03 -0.006,0.0236 -0.0115,0.0648 -0.0117,0.0917 -2.3e-4,0.0483 -0.002,0.0489 -0.11589,0.0489 -0.12065,0 -0.15064,-0.0232 -0.0698,-0.0539 0.0252,-0.01 0.0825,-0.0427 0.12736,-0.0735 0.0402,-0.0277 0.0605,-0.0416 0.0694,-0.0432 z m 2.37904,0.0395 c 0.006,-0.002 0.0239,0.008 0.0578,0.0301 0.0382,0.025 0.0915,0.0508 0.1185,0.0574 0.027,0.007 0.0535,0.0191 0.0589,0.0278 0.005,0.009 -0.0428,0.0159 -0.10692,0.0159 -0.11157,0 -0.11669,-0.002 -0.11669,-0.043 0,-0.0237 -0.005,-0.0566 -0.0116,-0.0732 -0.003,-0.009 -0.004,-0.0139 0,-0.0149 z m 3.3804,0 c 0.006,-0.002 0.0239,0.008 0.0578,0.0301 0.0382,0.025 0.0915,0.0508 0.11849,0.0574 0.027,0.007 0.0535,0.0191 0.0589,0.0278 0.005,0.009 -0.0428,0.0159 -0.10692,0.0159 -0.11157,0 -0.11669,-0.002 -0.11669,-0.043 0,-0.0237 -0.005,-0.0566 -0.0116,-0.0732 -0.003,-0.009 -0.004,-0.0139 0,-0.0149 z m -0.8926,0.0255 c 0.009,0.002 0.009,0.0205 0.002,0.0567 -0.009,0.0472 -0.0133,0.0489 -0.11849,0.0479 l -0.10915,-9.5e-4 0.0888,-0.036 c 0.0489,-0.0198 0.0991,-0.0445 0.11161,-0.0549 0.0116,-0.01 0.0199,-0.0141 0.0252,-0.0127 z m -3.39528,0.007 c 0.009,-0.002 0.0116,0.0112 0.0116,0.0432 v 0.0556 l -0.11119,-9.5e-4 -0.1112,-9.6e-4 0.0888,-0.036 c 0.0489,-0.0198 0.0989,-0.0444 0.11119,-0.0546 0.005,-0.004 0.008,-0.006 0.0108,-0.006 z m -3.95835,0.0474 c 0.0133,-7e-5 0.0378,0.008 0.0825,0.0241 v 4e-5 l 0.0712,0.0256 -0.0845,7.4e-4 c -0.0636,5.7e-4 -0.0845,-0.006 -0.0845,-0.0259 0,-0.0164 0.002,-0.0246 0.0153,-0.0247 z m -2.8046,10e-4 c 0.012,0 0.0138,0.008 0.0138,0.0236 0,0.0197 -0.0196,0.0263 -0.0756,0.0253 l -0.0756,-10e-4 0.0623,-0.024 c 0.0409,-0.0158 0.0632,-0.0236 0.0752,-0.0236 z m 3.3804,0 c 0.012,0 0.0138,0.008 0.0138,0.0237 0,0.0197 -0.0196,0.0263 -0.0756,0.0253 l -0.0756,-0.001 0.0623,-0.024 c 0.0409,-0.0158 0.0631,-0.0237 0.0752,-0.0237 z m 2.82487,0.0349 c 0.008,0 0.0161,0.001 0.0223,0.004 0.0122,0.005 0.002,0.009 -0.0223,0.009 -0.0245,0 -0.0344,-0.004 -0.0223,-0.009 0.006,-0.002 0.0142,-0.004 0.0223,-0.004 z m 3.3804,0 c 0.008,0 0.0161,0.001 0.0223,0.004 0.0122,0.005 0.002,0.009 -0.0223,0.009 -0.0245,0 -0.0345,-0.004 -0.0223,-0.009 0.006,-0.002 0.0142,-0.004 0.0223,-0.004 z" />
  </g>
</svg>
