<?xml version="1.0" encoding="UTF-8" standalone="no"?>
<!-- Created with Inkscape (http://www.inkscape.org/) -->

<svg
   width="19.019686mm"
   height="7.9345398mm"
   viewBox="0 0 19.019686 7.9345398"
   version="1.1"
   id="svg1371"
   sodipodi:docname="inkporter-svg-q3qysrmf.svg"
   xmlns:inkscape="http://www.inkscape.org/namespaces/inkscape"
   xmlns:sodipodi="http://sodipodi.sourceforge.net/DTD/sodipodi-0.dtd"
   xmlns="http://www.w3.org/2000/svg"
   xmlns:svg="http://www.w3.org/2000/svg">
  <sodipodi:namedview
     id="namedview1373"
     pagecolor="#ffffff"
     bordercolor="#666666"
     borderopacity="1.0"
     inkscape:pageshadow="2"
     inkscape:pageopacity="0.0"
     inkscape:pagecheckerboard="0"
     inkscape:document-units="mm"
     showgrid="false"
     inkscape:zoom="0.32026164"
     inkscape:cx="1055.3871"
     inkscape:cy="113.96931"
     inkscape:window-width="1920"
     inkscape:window-height="1017"
     inkscape:window-x="-8"
     inkscape:window-y="-8"
     inkscape:window-maximized="1"
     inkscape:current-layer="layer1" />
  <defs
     id="defs1368" />
  <g
     inkscape:label="Layer 1"
     inkscape:groupmode="layer"
     id="layer1"
     transform="translate(-159.02377,-138.29119)">
    <path
       d="m 162.57021,146.19416 c -0.0123,-0.0472 -0.23417,-0.12918 -0.3089,-0.11423 -0.045,0.009 -0.0562,0.005 -0.0641,-0.0256 -0.0124,-0.0474 -0.16856,-0.11628 -0.26783,-0.11814 -0.0477,-8.6e-4 -0.0832,-0.0122 -0.0979,-0.0312 -0.0127,-0.0164 -0.0713,-0.0492 -0.13029,-0.0728 -0.083,-0.0332 -0.11448,-0.0385 -0.13908,-0.0235 -0.026,0.0158 -0.039,0.0106 -0.0706,-0.0282 -0.0512,-0.0628 -0.20762,-0.12411 -0.27975,-0.10968 -0.0461,0.009 -0.0563,0.005 -0.0649,-0.028 -0.0128,-0.0489 -0.22911,-0.16154 -0.30024,-0.15635 -0.0376,0.003 -0.0522,-0.006 -0.0599,-0.0347 -0.0129,-0.0487 -0.19817,-0.20189 -0.24414,-0.20189 -0.0413,0 -0.077,-0.0321 -0.0782,-0.0703 -0.001,-0.0362 -0.18787,-0.18524 -0.21278,-0.16984 -0.0245,0.0151 -0.071,-0.0228 -0.071,-0.0578 0,-0.0407 -0.1589,-0.17237 -0.22016,-0.18243 -0.0384,-0.006 -0.057,-0.0211 -0.064,-0.0509 -0.013,-0.0554 -0.1898,-0.19656 -0.23226,-0.18545 -0.0202,0.005 -0.0395,-0.005 -0.052,-0.0289 -0.011,-0.0205 -0.0144,-0.0373 -0.008,-0.0373 0.007,0 -0.002,-0.0159 -0.0197,-0.0353 -0.0211,-0.0233 -0.0508,-0.0339 -0.0873,-0.0311 -0.0505,0.004 -0.0553,-4.7e-4 -0.0553,-0.0492 0,-0.0474 -0.007,-0.0544 -0.0623,-0.0623 -0.0503,-0.007 -0.0633,-0.0175 -0.0675,-0.0534 -0.008,-0.0707 -0.0412,-0.12229 -0.0819,-0.12811 -0.0293,-0.004 -0.0367,-0.0166 -0.0338,-0.0568 0.004,-0.0623 -0.0224,-0.11751 -0.0571,-0.11751 -0.0434,0 -0.064,-0.0608 -0.0347,-0.10255 0.029,-0.0415 0.0174,-0.0932 -0.0211,-0.0932 -0.0406,0 -0.0491,-0.0517 -0.0146,-0.0897 0.0261,-0.0288 0.0281,-0.0428 0.0114,-0.0794 -0.0111,-0.0244 -0.0284,-0.0444 -0.0384,-0.0444 -0.0313,0 -0.0198,-0.0641 0.0174,-0.0979 0.0424,-0.0384 0.0451,-0.0678 0.009,-0.0979 -0.0374,-0.031 -0.0333,-0.0728 0.008,-0.0837 0.045,-0.0118 0.0617,-0.0647 0.0342,-0.1086 -0.0257,-0.0411 -0.0108,-0.0888 0.0327,-0.10487 0.0461,-0.017 0.0594,-0.0438 0.0482,-0.0971 -0.005,-0.026 -0.001,-0.0526 0.009,-0.0592 0.012,-0.007 -0.0153,-0.0554 -0.0718,-0.12643 l -0.0911,-0.11449 0.0576,-0.0665 c 0.0579,-0.0669 0.25104,-0.25335 0.26241,-0.25335 0.004,0 0.0397,-0.0231 0.0809,-0.0514 0.12675,-0.0872 0.34275,-0.1691 0.52657,-0.19963 0.0642,-0.0107 0.23791,-0.0186 0.38601,-0.0176 0.26484,0.002 0.26943,0.001 0.27998,-0.0382 0.006,-0.022 0.0108,-0.062 0.011,-0.0889 2.7e-4,-0.0581 -0.0294,-0.0562 0.48853,-0.0311 0.42021,0.0204 0.47106,0.0122 0.56144,-0.0909 0.0575,-0.0656 0.0722,-0.0724 0.19357,-0.0892 0.0923,-0.0128 0.13696,-0.0125 0.15035,8.4e-4 0.0105,0.0105 0.0339,0.019 0.0521,0.019 0.0278,0 0.0253,-0.007 -0.0154,-0.0417 -0.0725,-0.0624 -0.063,-0.12113 0.0534,-0.32847 l 0.10182,-0.18142 h 0.10575 c 0.0582,0 0.10575,-0.007 0.10575,-0.0167 0,-0.009 0.0534,-0.0152 0.11863,-0.0134 0.0815,0.002 0.12094,-0.004 0.12602,-0.0189 0.004,-0.0122 0.0347,-0.0222 0.0682,-0.0222 0.0591,0 0.0608,-0.002 0.0608,-0.0712 v -0.0712 h 0.20331 c 0.17866,0 0.20429,0.004 0.21144,0.0311 0.008,0.0297 0.008,0.0297 0.0102,0 0.002,-0.0277 0.0245,-0.0311 0.20667,-0.0311 0.17001,0 0.20461,0.004 0.20461,0.0267 0,0.0217 0.0297,0.0267 0.16013,0.0267 h 0.16012 v 0.0623 c 0,0.0435 0.008,0.0623 0.0267,0.0623 0.0147,0 0.0267,-0.007 0.0267,-0.0165 0,-0.0421 0.0601,-0.0724 0.14361,-0.0724 h 0.0877 v -0.0801 -0.0801 h 0.16903 c 0.093,0 0.16902,-0.004 0.16902,-0.009 0,-0.005 -0.0612,-0.0687 -0.13597,-0.14233 l -0.13604,-0.13377 h -0.15994 -0.15994 l -0.0597,-0.0633 -0.0597,-0.0633 -1.25903,-0.0159 c -0.69247,-0.009 -1.43918,-0.0203 -1.65935,-0.0258 -0.47906,-0.0119 -0.8836,-0.011 -1.07197,0.002 l -0.13788,0.01 v -0.15464 -0.15464 l 0.12899,0.0125 c 0.071,0.007 0.2651,0.0125 0.43145,0.0125 0.47945,-8e-5 2.92906,-0.039 3.18878,-0.0507 l 0.23531,-0.0106 -0.0529,-0.0529 c -0.0759,-0.0759 -0.0752,-0.18538 0.002,-0.26234 0.0362,-0.0362 0.0724,-0.0548 0.10676,-0.0548 0.0338,0 0.052,-0.009 0.052,-0.0261 0,-0.0493 0.069,-0.0629 0.31908,-0.0629 0.1502,0 0.25026,-0.007 0.25026,-0.0173 0,-0.01 0.0699,-0.0696 0.15526,-0.13344 0.11572,-0.0866 0.16979,-0.11614 0.21231,-0.11614 0.0414,0 0.0601,-0.01 0.0683,-0.0356 0.01,-0.0311 0.0269,-0.0356 0.13464,-0.0356 0.0978,0 0.12334,-0.006 0.12334,-0.0267 0,-0.0369 0.0653,-0.0336 0.0881,0.005 0.0178,0.0297 0.0196,0.0297 0.0374,0 0.0229,-0.0381 0.0854,-0.0409 0.0994,-0.005 0.0134,0.0348 0.10627,0.0348 0.11962,0 0.0132,-0.0345 0.0629,-0.0345 0.0761,0 0.0143,0.0373 0.17647,0.0373 0.19079,0 0.006,-0.0147 0.0265,-0.0267 0.0464,-0.0267 0.0203,0 0.0361,0.0117 0.0361,0.0267 0,0.0207 0.0235,0.0267 0.10486,0.0267 0.0768,0 0.10758,-0.007 0.11509,-0.0267 0.006,-0.0154 0.0325,-0.0267 0.0631,-0.0267 0.0482,0 0.0533,-0.006 0.0584,-0.0667 l 0.005,-0.0667 0.20015,-0.005 0.20017,-0.005 v 0.0984 0.0984 h 0.0604 c 0.0373,0 0.0643,-0.0102 0.0706,-0.0267 0.0134,-0.0348 0.0825,-0.0348 0.0825,0 0,0.0289 0.0798,0.0381 0.0964,0.0112 0.005,-0.008 0.0337,-0.0203 0.0633,-0.0262 0.0491,-0.01 0.0537,-0.0169 0.0537,-0.0824 v -0.0716 h 0.12211 0.12212 l 0.024,-0.1112 c 0.0132,-0.0611 0.0217,-0.12569 0.0189,-0.1434 -0.003,-0.0177 0.002,-0.0417 0.0115,-0.0534 0.0385,-0.0494 0.0565,-0.13844 0.035,-0.1729 -0.0182,-0.0291 -0.0127,-0.0414 0.0393,-0.0879 0.0494,-0.0441 0.076,-0.054 0.14518,-0.054 0.0466,0 0.0897,-0.008 0.0957,-0.0178 0.006,-0.01 0.0345,-0.0178 0.0633,-0.0178 0.0502,0 0.0523,-0.003 0.0523,-0.0801 v -0.0801 h 0.20461 0.2046 v 0.10677 0.10676 h 0.0801 c 0.0837,0 0.0915,-0.0105 0.0831,-0.1112 -0.002,-0.0291 0.0358,-0.0311 0.57542,-0.0311 h 0.57803 v 0.0623 c 0,0.0619 4e-4,0.0623 0.0801,0.0623 h 0.0801 v -0.0984 -0.0984 l 0.20906,0.005 0.20905,0.005 0.006,0.0756 c 0.005,0.0733 0.007,0.0756 0.0667,0.0756 0.0337,0 0.0613,0.008 0.0613,0.0178 0,0.01 0.028,0.0178 0.0623,0.0178 0.0492,0 0.0623,0.007 0.0623,0.0337 0,0.0185 0.012,0.0383 0.0267,0.0439 0.03,0.0115 0.0362,0.0746 0.009,0.0914 -0.0272,0.0168 -0.0212,0.075 0.009,0.0865 0.03,0.0115 0.0362,0.0746 0.009,0.0914 -0.0278,0.0172 -0.021,0.1106 0.009,0.12208 0.03,0.0115 0.0362,0.0746 0.009,0.0914 -0.0291,0.018 -0.0208,0.11066 0.0109,0.12286 0.0197,0.008 0.026,0.0253 0.02,0.0566 -0.006,0.0325 -0.004,0.0401 0.0104,0.0265 0.0311,-0.0311 0.0791,-0.022 0.1097,0.0209 0.0264,0.037 0.0299,0.0377 0.0464,0.009 0.0218,-0.0381 0.0846,-0.041 0.0986,-0.005 0.0142,0.0369 0.15882,0.0369 0.173,0 0.0119,-0.0311 0.0668,-0.0353 0.0948,-0.007 0.0139,0.0139 0.0227,0.0139 0.0313,0 0.0176,-0.0285 0.0805,-0.0235 0.0924,0.007 0.006,0.0147 0.0214,0.0267 0.035,0.0267 0.0136,0 0.0248,0.0152 0.0248,0.0337 0,0.0185 0.012,0.0383 0.0267,0.0439 0.0147,0.006 0.0267,0.0268 0.0267,0.0469 0,0.0202 -0.012,0.0413 -0.0267,0.047 -0.0147,0.006 -0.0267,0.0205 -0.0267,0.0331 0,0.0126 0.012,0.0275 0.0267,0.0331 0.035,0.0134 0.0344,0.0807 -0.001,0.0942 -0.0353,0.0136 -0.0322,0.20994 0.004,0.23983 0.0319,0.0265 0.0302,0.0852 -0.003,0.0979 -0.0195,0.007 -0.0267,0.0381 -0.0267,0.11319 0,0.0751 0.007,0.10571 0.0267,0.11319 0.0147,0.006 0.0267,0.0267 0.0267,0.0469 0,0.0202 -0.012,0.0413 -0.0267,0.047 -0.0186,0.007 -0.0267,0.0361 -0.0267,0.0954 0,0.0593 0.008,0.0883 0.0267,0.0954 0.0147,0.006 0.0267,0.0267 0.0267,0.047 0,0.0202 -0.012,0.0413 -0.0267,0.0469 -0.0147,0.006 -0.0267,0.0204 -0.0267,0.0328 0,0.0124 0.012,0.0326 0.0267,0.0448 0.0147,0.0122 0.0267,0.0374 0.0267,0.0561 0,0.0187 -0.012,0.0386 -0.0267,0.0442 -0.0174,0.007 -0.0267,0.0344 -0.0267,0.0795 v 0.0693 h -0.55173 -0.55155 v 0.0801 0.0801 h 0.089 c 0.083,0 0.089,0.003 0.089,0.0445 0,0.04 0.007,0.0445 0.0714,0.0445 0.0393,0 0.0873,-0.01 0.10675,-0.0221 0.0281,-0.0176 0.0425,-0.0176 0.0707,0 0.0456,0.0285 0.16828,0.0284 0.21507,-1.7e-4 0.0306,-0.0187 0.0401,-0.0173 0.0596,0.009 0.0272,0.0367 0.15148,0.043 0.18511,0.009 0.0172,-0.0172 0.0291,-0.0172 0.0567,0 0.072,0.045 0.0939,0.0291 0.0808,-0.0583 -0.008,-0.053 -0.006,-0.0801 0.007,-0.0801 0.0106,0 0.028,-0.0192 0.0387,-0.0427 0.022,-0.0484 0.003,-0.0482 0.72705,-0.009 0.19081,0.0102 0.427,0.0214 0.52486,0.0248 0.30124,0.0105 0.72508,0.0269 1.24131,0.048 l 0.49405,0.0202 0.011,0.0463 c 0.006,0.0255 0.0225,0.0596 0.0366,0.0759 0.0141,0.0163 0.0234,0.0443 0.0206,0.0623 -0.006,0.0374 0.0312,0.11273 0.0553,0.11273 0.009,0 0.0186,-0.038 0.0216,-0.0845 0.004,-0.0708 0.0112,-0.0845 0.041,-0.0845 0.0277,0 0.0369,0.0138 0.0415,0.0622 0.004,0.0342 0.0142,0.0722 0.0244,0.0845 0.0221,0.0266 0.11418,0.0298 0.12981,0.004 0.0169,-0.0274 0.0765,-0.0211 0.0939,0.01 0.0141,0.0252 0.0177,0.0252 0.0387,0 0.0292,-0.0352 0.0523,-0.0351 0.0913,1.1e-4 0.02,0.0181 0.0697,0.0291 0.14159,0.0311 l 0.11073,0.003 0.0377,-0.0997 c 0.0423,-0.11171 0.0749,-0.1583 0.11089,-0.1583 0.0133,0 0.0769,0.0211 0.14117,0.0468 0.0921,0.0369 0.11433,0.0529 0.10492,0.0756 -0.0353,0.0854 -0.0435,0.081 0.29781,0.15817 0.17925,0.0405 0.37395,0.0828 0.43266,0.0939 0.0587,0.0111 0.35095,0.0764 0.64941,0.14504 0.29846,0.0686 0.5655,0.12443 0.59342,0.12401 0.0279,-4e-4 0.0696,0.006 0.0927,0.0152 l 0.0419,0.0159 -0.035,0.10186 c -0.0393,0.11443 -0.0355,0.12158 0.0761,0.14044 0.0393,0.007 0.0671,0.0214 0.0671,0.0356 0,0.0174 0.0317,0.0258 0.1112,0.0296 0.10544,0.005 0.11148,0.008 0.11665,0.0524 0.003,0.0259 0.021,0.0612 0.0401,0.0784 0.0327,0.0296 0.0346,0.0588 0.0346,0.53579 0,0.48247 -0.001,0.50581 -0.0356,0.53495 -0.0196,0.0168 -0.0356,0.0442 -0.0356,0.061 0,0.0168 0.0451,0.0931 0.10026,0.16952 0.14062,0.1949 0.20217,0.33045 0.20219,0.44525 1e-5,0.11062 0.0107,0.1034 -0.27132,0.18265 -0.11498,0.0323 -0.20905,0.0647 -0.20905,0.0719 0,0.007 0.016,0.0174 0.0356,0.0225 0.0421,0.011 0.0486,0.0799 0.009,0.0952 -0.0399,0.0153 -0.0334,0.0909 0.009,0.10429 0.0196,0.006 0.0356,0.0225 0.0356,0.0362 0,0.0137 -0.016,0.0334 -0.0356,0.0439 -0.0418,0.0224 -0.0478,0.0983 -0.009,0.11319 0.0393,0.0151 0.0333,0.0841 -0.008,0.095 -0.0464,0.0122 -0.0601,0.0614 -0.0333,0.12019 0.0179,0.0394 0.0173,0.0507 -0.004,0.0641 -0.0141,0.009 -0.0356,0.0127 -0.0477,0.008 -0.0247,-0.009 -0.0391,0.0431 -0.0344,0.1241 0.002,0.0446 -0.004,0.0543 -0.0414,0.0591 -0.0589,0.008 -0.0927,0.0518 -0.0709,0.0927 0.02,0.0375 -0.0209,0.0801 -0.0619,0.0644 -0.0336,-0.0129 -0.0797,0.051 -0.0682,0.0948 0.009,0.0327 -0.0499,0.0816 -0.0716,0.0599 -0.006,-0.006 -0.0308,-0.005 -0.0557,9.4e-4 -0.034,0.009 -0.0453,0.0229 -0.0453,0.0577 0,0.042 -0.005,0.0454 -0.0532,0.0357 -0.0691,-0.0138 -0.10602,10e-4 -0.12516,0.0518 -0.0133,0.0351 -0.0269,0.0403 -0.0977,0.0376 -0.0626,-0.002 -0.0865,0.004 -0.10001,0.0286 -0.0137,0.0245 -0.0311,0.0292 -0.0761,0.0208 -0.0582,-0.0109 -0.10384,0.0143 -0.12144,0.0671 -0.006,0.0179 -0.0172,0.0179 -0.0561,1.3e-4 -0.0401,-0.0182 -0.0666,-0.0172 -0.14982,0.006 -0.0556,0.0156 -0.11514,0.0446 -0.13228,0.0644 -0.0246,0.0285 -0.0439,0.0337 -0.0918,0.0247 -0.0733,-0.0137 -0.27734,0.0387 -0.27734,0.0713 0,0.0295 -0.0545,0.0404 -0.0916,0.0184 -0.0446,-0.0265 -0.25993,0.0362 -0.27373,0.0796 -0.0117,0.0367 -0.0612,0.045 -0.091,0.0152 -0.02,-0.02 -0.24106,0.031 -0.25251,0.0583 -0.0192,0.0458 -0.06,0.0663 -0.0947,0.0478 -0.0541,-0.029 -0.27529,0.0282 -0.28733,0.0742 -0.0107,0.0408 -0.0799,0.0462 -0.0948,0.007 -0.0148,-0.0387 -0.2827,-0.0387 -0.29754,0 -0.0131,0.0342 -0.0541,0.0342 -0.0825,0 -0.0316,-0.0381 -0.2765,-0.0381 -0.29111,0 -0.0132,0.0346 -0.0757,0.0346 -0.089,0 -0.008,-0.0204 -0.0413,-0.0267 -0.14233,-0.0267 -0.10101,0 -0.13451,0.006 -0.14234,0.0267 -0.006,0.0147 -0.0257,0.0267 -0.0445,0.0267 -0.0188,0 -0.0389,-0.012 -0.0445,-0.0267 -0.0148,-0.0386 -0.26987,-0.0386 -0.28467,0 -0.0132,0.0346 -0.0806,0.0346 -0.0939,0 -0.008,-0.0203 -0.041,-0.0267 -0.13988,-0.0267 -0.0988,0 -0.13206,0.006 -0.13987,0.0267 -0.0132,0.0346 -0.0806,0.0346 -0.0939,0 -0.0148,-0.0386 -0.26987,-0.0386 -0.28467,0 -0.006,0.0147 -0.0257,0.0267 -0.0445,0.0267 -0.0189,0 -0.0389,-0.012 -0.0445,-0.0267 -0.008,-0.0203 -0.0411,-0.0267 -0.1396,-0.0267 -0.0933,0 -0.13554,0.007 -0.15151,0.0267 -0.0122,0.0147 -0.0335,0.0267 -0.0472,0.0267 -0.0138,0 -0.0297,-0.012 -0.0353,-0.0267 -0.0146,-0.0381 -0.2595,-0.0381 -0.2911,0 -0.0282,0.034 -0.0608,0.034 -0.089,0 -0.0311,-0.0374 -0.25361,-0.0374 -0.28467,0 -0.0282,0.034 -0.0608,0.034 -0.089,0 -0.016,-0.0192 -0.0582,-0.0267 -0.1515,-0.0267 -0.0986,0 -0.1318,0.006 -0.1396,0.0267 -0.0131,0.0342 -0.0541,0.0342 -0.0825,0 -0.016,-0.0192 -0.0582,-0.0267 -0.15151,-0.0267 -0.0986,0 -0.1318,0.006 -0.1396,0.0267 -0.0132,0.0346 -0.0757,0.0346 -0.089,0 -0.0148,-0.0386 -0.26988,-0.0386 -0.28467,0 -0.006,0.0147 -0.0268,0.0267 -0.047,0.0267 -0.0202,0 -0.0413,-0.012 -0.047,-0.0267 -0.008,-0.0203 -0.041,-0.0267 -0.13987,-0.0267 -0.0988,0 -0.13207,0.006 -0.13987,0.0267 -0.006,0.0147 -0.0268,0.0267 -0.047,0.0267 -0.0202,0 -0.0413,-0.012 -0.047,-0.0267 -0.008,-0.0204 -0.0413,-0.0267 -0.14234,-0.0267 -0.101,0 -0.1345,0.006 -0.14233,0.0267 -0.006,0.0147 -0.0257,0.0267 -0.0445,0.0267 -0.0188,0 -0.0389,-0.012 -0.0445,-0.0267 -0.008,-0.0204 -0.0413,-0.0267 -0.14234,-0.0267 -0.10101,0 -0.13451,0.006 -0.14234,0.0267 -0.006,0.0147 -0.0257,0.0267 -0.0445,0.0267 -0.0188,0 -0.0389,-0.012 -0.0445,-0.0267 -0.0146,-0.0381 -0.2595,-0.0381 -0.2911,0 -0.0122,0.0147 -0.0334,0.0267 -0.0472,0.0267 -0.0138,0 -0.0297,-0.012 -0.0353,-0.0267 -0.008,-0.0203 -0.041,-0.0267 -0.1396,-0.0267 -0.0933,0 -0.13553,0.007 -0.1515,0.0267 -0.0122,0.0147 -0.0322,0.0267 -0.0445,0.0267 -0.0123,0 -0.0323,-0.012 -0.0445,-0.0267 -0.016,-0.0192 -0.0582,-0.0267 -0.15151,-0.0267 -0.0986,0 -0.1318,0.006 -0.1396,0.0267 -0.006,0.0147 -0.0215,0.0267 -0.0353,0.0267 -0.0138,0 -0.035,-0.012 -0.0472,-0.0267 -0.016,-0.0192 -0.0582,-0.0267 -0.15151,-0.0267 -0.0986,0 -0.13179,0.006 -0.13959,0.0267 -0.006,0.0147 -0.0257,0.0267 -0.0445,0.0267 -0.0188,0 -0.0389,-0.012 -0.0445,-0.0267 -0.008,-0.0204 -0.0413,-0.0267 -0.14234,-0.0267 -0.101,0 -0.1345,0.006 -0.14233,0.0267 -0.006,0.0147 -0.0268,0.0267 -0.047,0.0267 -0.0202,0 -0.0413,-0.012 -0.047,-0.0267 -0.008,-0.0203 -0.041,-0.0267 -0.13988,-0.0267 -0.0988,0 -0.13207,0.006 -0.13987,0.0267 -0.006,0.0147 -0.0268,0.0267 -0.0469,0.0267 -0.0202,0 -0.0413,-0.012 -0.047,-0.0267 -0.008,-0.0203 -0.041,-0.0267 -0.13988,-0.0267 -0.0988,0 -0.13207,0.006 -0.13987,0.0267 -0.006,0.0147 -0.0267,0.0267 -0.0469,0.0267 -0.0202,0 -0.0413,-0.012 -0.047,-0.0267 -0.008,-0.0204 -0.0413,-0.0267 -0.14234,-0.0267 -0.101,0 -0.1345,0.006 -0.14233,0.0267 -0.006,0.0147 -0.0257,0.0267 -0.0445,0.0267 -0.0188,0 -0.0389,-0.012 -0.0445,-0.0267 -0.008,-0.0203 -0.0411,-0.0267 -0.1396,-0.0267 -0.0933,0 -0.13554,0.007 -0.15151,0.0267 -0.0122,0.0147 -0.0335,0.0267 -0.0472,0.0267 -0.0138,0 -0.0297,-0.012 -0.0353,-0.0267 -0.008,-0.0203 -0.0411,-0.0267 -0.1396,-0.0267 -0.0933,0 -0.13553,0.007 -0.15151,0.0267 -0.0122,0.0147 -0.0322,0.0267 -0.0445,0.0267 -0.0123,0 -0.0323,-0.012 -0.0445,-0.0267 -0.016,-0.0192 -0.0582,-0.0267 -0.1515,-0.0267 -0.0986,0 -0.1318,0.006 -0.1396,0.0267 -0.006,0.0147 -0.0215,0.0267 -0.0353,0.0267 -0.0138,0 -0.035,-0.012 -0.0472,-0.0267 -0.016,-0.0192 -0.0582,-0.0267 -0.15151,-0.0267 -0.0986,0 -0.1318,0.006 -0.1396,0.0267 -0.006,0.0147 -0.0257,0.0267 -0.0445,0.0267 -0.0188,0 -0.0389,-0.012 -0.0445,-0.0267 -0.008,-0.0204 -0.0413,-0.0267 -0.14234,-0.0267 -0.101,0 -0.1345,0.006 -0.14234,0.0267 -0.006,0.0147 -0.0257,0.0267 -0.0445,0.0267 -0.0188,0 -0.0389,-0.012 -0.0445,-0.0267 -0.008,-0.0204 -0.0413,-0.0267 -0.14233,-0.0267 -0.10101,0 -0.13451,0.006 -0.14234,0.0267 -0.006,0.0147 -0.0268,0.0267 -0.047,0.0267 -0.0202,0 -0.0413,-0.012 -0.047,-0.0267 -0.008,-0.0203 -0.041,-0.0267 -0.13987,-0.0267 -0.0988,0 -0.13207,0.006 -0.13988,0.0267 -0.006,0.0147 -0.0268,0.0267 -0.047,0.0267 -0.0202,0 -0.0413,-0.012 -0.047,-0.0267 -0.008,-0.0204 -0.0413,-0.0267 -0.14233,-0.0267 -0.10101,0 -0.13451,0.006 -0.14234,0.0267 -0.006,0.0147 -0.0257,0.0267 -0.0445,0.0267 -0.0188,0 -0.0389,-0.012 -0.0445,-0.0267 -0.008,-0.0203 -0.0411,-0.0267 -0.1396,-0.0267 -0.0933,0 -0.13553,0.007 -0.1515,0.0267 -0.0308,0.0371 -0.0728,0.0333 -0.0834,-0.007 z m 0.54602,-0.15267 c 0,-0.0315 -0.007,-0.0315 -0.089,0 l -0.0623,0.024 0.0756,10e-4 c 0.056,0.001 0.0756,-0.006 0.0756,-0.0253 z m 0.38819,-0.10032 c 0.0199,-0.13414 0.038,-0.16863 0.0799,-0.15255 0.0245,0.009 0.0307,0.0314 0.0572,0.20394 l 0.0116,0.0756 h 0.10519 c 0.0578,0 0.10525,-0.006 0.10532,-0.0133 5e-4,-0.0533 0.0408,-0.24742 0.0548,-0.26431 0.0117,-0.0141 0.006,-0.0404 -0.0174,-0.0807 -0.0191,-0.0329 -0.0437,-0.0938 -0.0546,-0.1354 -0.0227,-0.0861 -0.0655,-0.0998 -0.12529,-0.04 -0.0419,0.042 -0.1287,0.0468 -0.16013,0.009 -0.0269,-0.0325 -0.0534,-0.0347 -0.0534,-0.004 -3e-5,0.0497 -0.10904,0.24793 -0.17673,0.32138 -0.057,0.0618 -0.0723,0.0922 -0.0723,0.14321 v 0.0647 h 0.11349 0.1135 z m 0.7505,0.10318 c 0,-0.0131 -0.018,-0.032 -0.0401,-0.0421 -0.022,-0.01 -0.0781,-0.0473 -0.12455,-0.0828 -0.0802,-0.0612 -0.0845,-0.0625 -0.0843,-0.0246 1.4e-4,0.022 0.005,0.0699 0.0112,0.10663 l 0.011,0.0667 h 0.11332 c 0.0828,0 0.11332,-0.006 0.11332,-0.0238 z m 0.7475,-0.0251 c 1.4e-4,-0.0269 0.005,-0.0682 0.0117,-0.0917 0.0113,-0.0422 0.0103,-0.0421 -0.0701,0.0133 -0.0449,0.0309 -0.10214,0.0639 -0.12734,0.0735 -0.0808,0.0307 -0.0508,0.0539 0.0698,0.0539 0.11424,0 0.11565,-6e-4 0.11588,-0.0489 z m 0.38156,-0.0534 c 0.0186,-0.15483 0.0281,-0.18237 0.063,-0.18237 0.0353,0 0.0463,0.0315 0.0641,0.18311 l 0.012,0.10156 h 0.11125 0.11125 l 0.008,-0.0667 c 0.007,-0.0594 -3.4e-4,-0.076 -0.0704,-0.15177 -0.11859,-0.12816 -0.16939,-0.25572 -0.17869,-0.44871 -0.005,-0.11279 5e-5,-0.18248 0.0186,-0.23574 l 0.0263,-0.0756 h -0.18365 -0.18366 l 0.0274,0.0805 c 0.0456,0.13365 0.0273,0.34639 -0.0425,0.49415 -0.0568,0.1203 -0.057,0.12162 -0.0371,0.26243 l 0.02,0.14151 h 0.11083 0.11082 z m 0.60565,0.0751 c -0.0896,-0.0323 -0.0978,-0.0322 -0.0978,5.4e-4 0,0.0201 0.0209,0.0265 0.0845,0.0259 l 0.0845,-7.9e-4 -0.0712,-0.0256 z m 0.50707,5.4e-4 c 0,-0.0315 -0.007,-0.0315 -0.089,0 l -0.0623,0.024 0.0756,10e-4 c 0.0559,0.001 0.0756,-0.006 0.0756,-0.0253 z m 0.38364,-0.0756 c 0.0161,-0.13147 0.0357,-0.18236 0.0701,-0.18236 0.0344,0 0.0539,0.0509 0.0702,0.18318 l 0.0127,0.10311 0.10982,-0.005 0.10981,-0.005 0.0178,-0.13201 c 0.01,-0.0726 0.0264,-0.13484 0.0368,-0.13829 0.0114,-0.004 -0.001,-0.047 -0.0307,-0.10818 -0.0273,-0.056 -0.0499,-0.11544 -0.0501,-0.13199 -5e-4,-0.0466 -0.028,-0.0527 -0.0631,-0.014 -0.0412,0.0455 -0.12474,0.0453 -0.16388,-4e-4 -0.0376,-0.0439 -0.0913,-0.0462 -0.10523,-0.004 -0.0376,0.11252 -0.1207,0.26264 -0.18268,0.32989 -0.069,0.0749 -0.0958,0.16146 -0.0608,0.19646 0.007,0.006 0.058,0.0119 0.11437,0.0119 h 0.1025 z m 0.75505,0.0785 c 0,-0.0131 -0.018,-0.032 -0.0401,-0.0421 -0.022,-0.01 -0.0793,-0.0482 -0.12723,-0.0849 l -0.0872,-0.0666 0.0116,0.0845 c 0.006,0.0465 0.0116,0.0954 0.0116,0.10869 0,0.0179 0.03,0.0242 0.11565,0.0242 0.0848,0 0.11565,-0.006 0.11565,-0.0238 z m 0.7475,-0.0251 c 1.4e-4,-0.0269 0.005,-0.0682 0.0117,-0.0917 0.0113,-0.0422 0.0103,-0.042 -0.0701,0.0133 -0.0448,0.0309 -0.10214,0.0639 -0.12734,0.0735 -0.0808,0.0307 -0.0508,0.0539 0.0698,0.0539 0.11424,0 0.11565,-5.9e-4 0.11588,-0.0489 z m 0.38156,-0.0534 c 0.0186,-0.15485 0.0281,-0.18236 0.063,-0.18236 0.0398,0 0.0468,0.0186 0.0626,0.16592 l 0.0127,0.11875 h 0.11357 c 0.1122,0 0.11357,-6e-4 0.1129,-0.0489 -4.7e-4,-0.0365 -0.0185,-0.0612 -0.0706,-0.0973 -0.23087,-0.15965 -0.33397,-0.53386 -0.22199,-0.80569 0.0242,-0.0587 0.044,-0.10876 0.0441,-0.1112 5e-5,-0.002 -0.0808,-0.004 -0.17975,-0.004 -0.16438,0 -0.17869,0.003 -0.16674,0.0311 0.0763,0.18173 0.0828,0.21206 0.0768,0.36025 -0.005,0.12556 -0.0158,0.17181 -0.0633,0.27218 -0.0569,0.12035 -0.0571,0.12158 -0.0372,0.26243 l 0.02,0.14152 h 0.11082 0.11083 z m 0.56562,0.0905 c -0.0122,-0.005 -0.0323,-0.005 -0.0445,0 -0.0123,0.005 -0.002,0.009 0.0222,0.009 0.0245,0 0.0345,-0.004 0.0222,-0.009 z m 0.54711,-0.0438 c 0,-0.0426 -0.005,-0.0512 -0.0224,-0.037 -0.0123,0.0102 -0.0623,0.0348 -0.1112,0.0546 l -0.0888,0.036 0.1112,0.001 0.1112,10e-4 z m 0.39512,-0.0676 c 0.0154,-0.14012 0.0232,-0.16156 0.0584,-0.16156 0.0345,0 0.054,0.0508 0.0702,0.18237 l 0.0126,0.1023 h 0.11192 0.1119 l 0.0121,-0.11809 c 0.0111,-0.1086 0.008,-0.12383 -0.0351,-0.1894 -0.026,-0.0392 -0.061,-0.11218 -0.078,-0.16213 -0.0348,-0.10268 -0.0797,-0.1245 -0.13361,-0.0649 -0.0431,0.0476 -0.1232,0.0466 -0.16852,-0.002 -0.0344,-0.0369 -0.0362,-0.0371 -0.0469,-0.004 -0.0369,0.11242 -0.0688,0.18109 -0.11527,0.24866 -0.0527,0.0766 -0.0623,0.13216 -0.0412,0.23753 l 0.0113,0.0564 0.10882,-0.005 0.10882,-0.005 z m 0.73589,0.10729 c -0.005,-0.009 -0.0319,-0.0212 -0.0589,-0.0278 -0.027,-0.007 -0.0803,-0.0324 -0.1185,-0.0574 -0.0542,-0.0354 -0.0669,-0.0388 -0.0578,-0.0153 0.006,0.0166 0.0116,0.0495 0.0116,0.0732 0,0.0411 0.005,0.043 0.1167,0.043 0.0642,0 0.1123,-0.007 0.10692,-0.0158 z m 0.7631,-0.0865 c 0.0186,-0.15483 0.0281,-0.18237 0.063,-0.18237 0.0353,0 0.0463,0.0315 0.0641,0.18311 l 0.0119,0.10156 h 0.11115 0.11115 l 0.0123,-0.1023 c 0.0186,-0.15486 0.0281,-0.18237 0.063,-0.18237 0.0397,0 0.0468,0.0186 0.0626,0.16592 l 0.0127,0.11875 h 0.11358 c 0.1122,0 0.11356,-6e-4 0.11289,-0.0489 -4.7e-4,-0.0365 -0.0185,-0.0612 -0.0705,-0.0973 -0.21292,-0.14724 -0.32126,-0.48712 -0.24032,-0.75394 0.0146,-0.048 0.0266,-0.0873 0.0267,-0.0873 1.3e-4,0 -0.0819,0.001 -0.18218,0.003 -0.1003,0.002 -0.18401,0.004 -0.18602,0.004 -0.002,9.5e-4 0.008,0.0347 0.0222,0.0751 0.0142,0.0404 0.0259,0.13265 0.0259,0.20506 0,0.23045 -0.0982,0.42758 -0.28123,0.56471 -0.0534,0.04 -0.0924,0.0832 -0.0924,0.1023 0,0.0288 0.0147,0.0331 0.11359,0.0331 h 0.1136 z m 0.93926,0.0905 c -0.0122,-0.005 -0.0323,-0.005 -0.0445,0 -0.0122,0.005 -0.002,0.009 0.0222,0.009 0.0245,0 0.0345,-0.004 0.0222,-0.009 z m 0.55235,-0.0371 c 0.0111,-0.058 0.004,-0.0697 -0.0272,-0.044 -0.0126,0.0104 -0.0628,0.0351 -0.11162,0.0549 l -0.0888,0.036 0.10912,0.001 c 0.10521,9.4e-4 0.10946,-8e-4 0.11852,-0.048 z m 0.39677,-0.089 c 0.0142,-0.12102 0.0207,-0.13855 0.0539,-0.14329 0.0424,-0.006 0.0497,0.0127 0.0696,0.17887 l 0.0123,0.10231 h 0.11153 0.11152 l 0.0125,-0.11624 c 0.0117,-0.10906 0.009,-0.12141 -0.0408,-0.20016 -0.0293,-0.0462 -0.0632,-0.11795 -0.0755,-0.15954 -0.024,-0.0818 -0.0358,-0.0901 -0.0699,-0.0489 -0.0325,0.0391 -0.13061,0.0336 -0.16973,-0.01 -0.0534,-0.059 -0.0961,-0.0374 -0.13282,0.0673 -0.018,0.0513 -0.0573,0.12973 -0.0875,0.17436 -0.0566,0.0838 -0.0621,0.11269 -0.0434,0.22616 l 0.011,0.0667 h 0.11058 0.11057 z m 0.72899,0.12206 c -0.005,-0.009 -0.0319,-0.0212 -0.0589,-0.0278 -0.027,-0.007 -0.0803,-0.0324 -0.1185,-0.0574 -0.0542,-0.0354 -0.0669,-0.0388 -0.0578,-0.0153 0.006,0.0166 0.0116,0.0495 0.0116,0.0732 0,0.0411 0.005,0.043 0.1167,0.043 0.0642,0 0.1123,-0.007 0.10692,-0.0158 z m -12.06754,-0.18559 c -0.085,-0.0803 -0.11137,-0.0818 -0.11201,-0.007 -2e-4,0.0218 0.0299,0.0455 0.0931,0.0736 0.0514,0.0228 0.0958,0.0352 0.0987,0.0275 0.003,-0.008 -0.033,-0.0502 -0.0799,-0.0945 z m 12.76623,0.0669 c 0.004,-0.003 0.004,-0.017 0,-0.0317 -0.005,-0.0212 -0.017,-0.0177 -0.0594,0.0172 l -0.0534,0.0438 0.0534,-0.0122 c 0.0293,-0.007 0.0561,-0.0144 0.0594,-0.0172 z m 0.29552,-0.0806 0.0746,-0.0188 -0.0156,-0.11659 c -0.0179,-0.13355 -0.0107,-0.16548 0.0373,-0.16548 0.0251,0 0.0471,0.0306 0.0833,0.11565 0.0271,0.0636 0.0554,0.11565 0.0629,0.11565 0.008,0 0.0541,-0.009 0.10342,-0.0207 l 0.0897,-0.0207 -0.004,-0.14452 -0.004,-0.14452 -0.0988,0.007 c -0.0826,0.006 -0.12417,-0.004 -0.25374,-0.0572 -0.0852,-0.0353 -0.15889,-0.0642 -0.16367,-0.0642 -0.005,0 -0.009,0.0362 -0.009,0.0805 0,0.0443 -0.0167,0.12634 -0.0371,0.18236 -0.0204,0.056 -0.0408,0.1139 -0.0454,0.12861 -0.004,0.0147 0.004,0.0574 0.0203,0.095 0.0207,0.0495 0.0362,0.0653 0.0566,0.0574 0.0154,-0.006 0.0616,-0.0192 0.10265,-0.0296 z m -13.28151,-0.11275 c 0.0522,-0.0912 0.0541,-0.10113 0.0347,-0.17814 -0.0301,-0.11941 -0.012,-0.37342 0.034,-0.47699 l 0.0375,-0.0845 h -0.095 -0.095 l -0.0116,0.0726 c -0.0158,0.0987 -0.0865,0.23325 -0.16255,0.3093 -0.0639,0.0639 -0.21706,0.15182 -0.26442,0.15182 -0.0288,0 -0.0819,0.0468 -0.0819,0.0722 0,0.009 0.0296,0.0286 0.0657,0.0437 0.13322,0.0557 0.13344,0.0556 0.20028,-0.071 0.0614,-0.11622 0.0773,-0.12917 0.12338,-0.10002 0.0208,0.0132 0.0201,0.0355 -0.004,0.14489 -0.0161,0.0711 -0.0271,0.13064 -0.0246,0.13227 0.002,0.002 0.0446,0.0197 0.0936,0.0402 0.0489,0.0205 0.0904,0.0379 0.0921,0.0387 10e-4,8e-4 0.028,-0.042 0.0584,-0.0951 z m 13.99411,-0.0695 c 0.0489,-0.0127 0.0882,-0.0325 0.0872,-0.0441 -0.001,-0.0116 -0.003,-0.045 -0.004,-0.0742 -0.002,-0.0423 -0.0148,-0.0582 -0.062,-0.0779 -0.11305,-0.0472 -0.12548,-0.0469 -0.16584,0.004 l -0.0384,0.0486 0.0362,0.0837 c 0.0199,0.046 0.0412,0.0835 0.0473,0.0833 0.006,-2e-4 0.0511,-0.0107 0.10004,-0.0234 z m 0.37592,-0.10323 c 0.0428,-0.0108 0.0778,-0.0246 0.0778,-0.0308 1e-5,-0.006 -0.046,-0.0102 -0.1023,-0.009 -0.0918,0.002 -0.10294,0.006 -0.10833,0.0425 -0.005,0.0318 4.1e-4,0.0377 0.0245,0.0285 0.0168,-0.006 0.0655,-0.0205 0.10832,-0.0313 z m -15.55477,-0.27936 c -0.0435,-0.0664 -0.05,-0.0703 -0.0711,-0.0425 -0.0128,0.0169 -0.0235,0.0365 -0.0239,0.0436 -4.9e-4,0.0133 0.12892,0.0854 0.13787,0.0768 0.003,-0.003 -0.0166,-0.0377 -0.0429,-0.0779 z m 15.57133,-0.0224 c 0.007,-0.0107 10e-4,-0.0305 -0.0123,-0.0438 -0.0309,-0.0309 -0.0782,-0.005 -0.0631,0.0349 0.0125,0.0326 0.0575,0.0379 0.0754,0.009 z m 0.25359,-0.0564 c 0.007,-0.0355 -0.0439,-0.0619 -0.0696,-0.0362 -0.0249,0.0249 0.001,0.0792 0.0349,0.0727 0.0158,-0.003 0.0314,-0.0195 0.0346,-0.0365 z m -12.89584,-0.0205 c 0,-0.0139 0.0157,-0.0619 0.0349,-0.10675 l 0.0349,-0.0815 h -0.0597 c -0.0659,0 -0.0726,0.01 -0.0908,0.13117 -0.012,0.0801 -0.0111,0.0823 0.0341,0.0823 0.0283,0 0.0465,-0.01 0.0465,-0.0252 z m 3.10592,-0.0672 c -0.007,-0.0508 -0.0162,-0.0988 -0.0211,-0.10675 -0.0112,-0.0181 -0.11871,-0.0191 -0.11025,-0.001 0.004,0.007 0.022,0.0554 0.0412,0.10675 0.0253,0.0675 0.0444,0.0934 0.0687,0.0934 0.0303,0 0.0325,-0.009 0.0214,-0.0924 z m 0.33618,-0.10229 c 0.007,-0.0114 -0.006,-0.0188 -0.0339,-0.0188 -0.0441,0 -0.0455,0.004 -0.0449,0.11121 l 5e-4,0.11119 0.0333,-0.0924 c 0.0183,-0.0508 0.0385,-0.10084 0.0449,-0.11119 z m 2.90964,0.0879 c 0,-0.10022 -0.002,-0.10675 -0.0418,-0.10675 h -0.0418 l 0.0374,0.10675 c 0.0205,0.0587 0.0394,0.10676 0.0418,0.10676 0.002,0 0.004,-0.048 0.004,-0.10676 z m 0.34689,0.0133 c 0.0192,-0.0514 0.0378,-0.0994 0.0412,-0.10675 0.004,-0.007 -0.0214,-0.0133 -0.0552,-0.0133 -0.0572,0 -0.0622,0.005 -0.0725,0.0667 -0.0188,0.11338 -0.0142,0.14678 0.02,0.14678 0.0216,0 0.0423,-0.0292 0.0664,-0.0934 z m 3.09612,0.0178 c -0.0205,-0.13179 -0.0245,-0.13788 -0.0898,-0.13788 h -0.0604 l 0.0349,0.0815 c 0.0192,0.0448 0.0349,0.0929 0.0349,0.10675 0,0.0153 0.0182,0.0252 0.0461,0.0252 0.0442,0 0.0456,-0.003 0.0343,-0.0756 z m 0.32888,-0.13127 c 0,-0.004 -0.02,-0.007 -0.0445,-0.007 -0.0424,0 -0.0444,0.005 -0.0435,0.10231 l 0.001,0.1023 0.0435,-0.0957 c 0.0239,-0.0526 0.0435,-0.0987 0.0435,-0.1023 z m -13.2056,0.11893 c 0.0536,-0.049 0.0574,-0.0602 0.0581,-0.17347 4e-4,-0.0666 0.0127,-0.15312 0.0272,-0.19227 0.0145,-0.0391 0.0281,-0.0785 0.0304,-0.0874 0.004,-0.0155 -0.17758,-0.14988 -0.20507,-0.15186 -0.007,-5.4e-4 -0.0134,0.0141 -0.0134,0.0324 0,0.0184 -0.0111,0.0426 -0.0247,0.0539 -0.0195,0.0162 -0.0341,0.009 -0.0695,-0.0327 -0.0246,-0.0293 -0.0476,-0.0618 -0.0512,-0.0723 -0.004,-0.0134 -0.0338,-0.0128 -0.099,0.002 -0.0787,0.0182 -0.0882,0.0246 -0.0634,0.0427 0.0266,0.0194 0.0246,0.0293 -0.0208,0.10828 -0.0275,0.0478 -0.0615,0.10012 -0.0754,0.11625 -0.0225,0.0261 -0.0166,0.0366 0.054,0.0956 0.0436,0.0365 0.0849,0.0662 0.0917,0.066 0.007,-1.3e-4 0.0564,-0.0382 0.1101,-0.0846 0.0887,-0.0766 0.10023,-0.0818 0.12559,-0.0564 0.0254,0.0254 0.0219,0.038 -0.038,0.13854 l -0.0659,0.11061 0.0668,0.0684 c 0.0367,0.0376 0.0754,0.0684 0.0859,0.0684 0.0105,0 0.0449,-0.0236 0.0765,-0.0524 z m 2.74393,-0.0455 c 0,-0.0693 -0.005,-0.0801 -0.0371,-0.0801 -0.0204,0 -0.0343,0.006 -0.0311,0.0133 0.004,0.007 0.0176,0.0434 0.0318,0.0801 0.0141,0.0367 0.0281,0.0667 0.0311,0.0667 0.003,0 0.005,-0.036 0.005,-0.0801 z m 13.45962,-0.009 c 0,-0.0386 -0.0694,-0.0333 -0.0769,0.006 -0.005,0.0253 0.003,0.0312 0.0353,0.0267 0.0229,-0.003 0.0416,-0.0179 0.0416,-0.0326 z m 0.16305,-0.18801 c 0.006,-0.0153 0.002,-0.0366 -0.009,-0.0473 -0.0257,-0.0257 -0.076,0.0144 -0.0624,0.0498 0.013,0.0339 0.0578,0.0324 0.0711,-0.002 z m -16.98165,-0.20984 c 0.0257,-0.0196 0.0274,-0.0328 0.0109,-0.0865 -0.0172,-0.0559 -0.0281,-0.0648 -0.0923,-0.075 -0.0583,-0.009 -0.0775,-0.005 -0.0966,0.0204 -0.0211,0.0284 -0.0152,0.0395 0.053,0.0987 0.0864,0.075 0.0835,0.074 0.12494,0.0425 z m 17.07658,-0.0469 c 0,-0.0237 -0.0119,-0.0356 -0.0356,-0.0356 -0.0237,0 -0.0356,0.0119 -0.0356,0.0356 0,0.0237 0.0119,0.0356 0.0356,0.0356 0.0237,0 0.0356,-0.0119 0.0356,-0.0356 z m -0.008,-0.23248 c 0.0192,-0.031 -0.002,-0.0375 -0.0271,-0.008 -0.014,0.0169 -0.0154,0.0271 -0.004,0.0271 0.0104,0 0.0242,-0.008 0.0307,-0.019 z m -17.09882,-0.16808 c 0,-0.0498 -0.0521,-0.0443 -0.0593,0.006 -0.004,0.0323 10e-4,0.0402 0.0267,0.0353 0.0186,-0.004 0.0326,-0.0215 0.0326,-0.0416 z m 0.24019,0.0291 c 0,-0.009 -0.012,-0.0256 -0.0267,-0.0378 -0.0216,-0.018 -0.0267,-0.0173 -0.0267,0.004 0,0.0142 0.005,0.0312 0.0119,0.0378 0.0169,0.0169 0.0415,0.0147 0.0415,-0.004 z m -0.4664,-0.11131 c 0.006,-0.0337 -0.0478,-0.0598 -0.0727,-0.035 -0.0257,0.0257 5e-4,0.0765 0.0362,0.0696 0.017,-0.003 0.0335,-0.0189 0.0365,-0.0347 z m -0.21293,-0.17246 c 0.004,-0.0287 -0.004,-0.0386 -0.0301,-0.0386 -0.0469,0 -0.0644,0.0304 -0.0367,0.0636 0.0289,0.0348 0.0597,0.0233 0.0668,-0.025 z m -0.12468,-0.22126 c 0.007,-0.0368 -0.0443,-0.0615 -0.0714,-0.0344 -0.0271,0.0271 -0.002,0.0785 0.0344,0.0714 0.017,-0.003 0.0336,-0.0199 0.037,-0.037 z m -0.0493,-0.23638 c 0.0189,-0.0228 0.0178,-0.0327 -0.007,-0.0572 -0.0276,-0.0276 -0.0316,-0.0276 -0.0592,0 -0.0245,0.0245 -0.0256,0.0344 -0.007,0.0572 0.0126,0.0152 0.0289,0.0276 0.0363,0.0276 0.007,0 0.0237,-0.0124 0.0363,-0.0276 z m 0.0348,-0.25491 c 0,-0.0224 -0.0522,-0.0626 -0.0649,-0.05 -0.0182,0.0182 0.009,0.0656 0.0377,0.0656 0.015,0 0.0273,-0.007 0.0273,-0.0156 z"
       id="H-TuranI" />
  </g>
</svg>
