<?xml version="1.0" encoding="UTF-8" standalone="no"?>
<!-- Created with Inkscape (http://www.inkscape.org/) -->

<svg
   width="20.460232mm"
   height="6.5643768mm"
   viewBox="0 0 20.460232 6.5643768"
   version="1.1"
   id="svg1371"
   sodipodi:docname="inkporter-svg-q4un9v80.svg"
   xmlns:inkscape="http://www.inkscape.org/namespaces/inkscape"
   xmlns:sodipodi="http://sodipodi.sourceforge.net/DTD/sodipodi-0.dtd"
   xmlns="http://www.w3.org/2000/svg"
   xmlns:svg="http://www.w3.org/2000/svg">
  <sodipodi:namedview
     id="namedview1373"
     pagecolor="#ffffff"
     bordercolor="#666666"
     borderopacity="1.0"
     inkscape:pageshadow="2"
     inkscape:pageopacity="0.0"
     inkscape:pagecheckerboard="0"
     inkscape:document-units="mm"
     showgrid="false"
     inkscape:zoom="0.22645918"
     inkscape:cx="379.75939"
     inkscape:cy="-470.28343"
     inkscape:window-width="1920"
     inkscape:window-height="1017"
     inkscape:window-x="-8"
     inkscape:window-y="-8"
     inkscape:window-maximized="1"
     inkscape:current-layer="layer1" />
  <defs
     id="defs1368" />
  <g
     inkscape:label="Layer 1"
     inkscape:groupmode="layer"
     id="layer1"
     transform="translate(-118.28775,88.571658)">
    <path
       d="m 131.68015,-82.030975 c -0.009,-0.01402 -0.32098,-0.02403 -0.74505,-0.02394 -0.40158,9.8e-5 -0.74178,-0.0018 -0.756,-0.0045 -0.0634,-0.01152 -0.26269,-0.0027 -0.30262,0.0134 -0.0242,0.0098 -0.0569,0.0098 -0.0727,2.5e-5 -0.0448,-0.02772 -0.28379,-0.03422 -0.2999,-0.0082 -0.008,0.01288 -0.0397,0.01528 -0.0705,0.0053 -0.0894,-0.02883 -0.25896,-0.0284 -0.3075,9.17e-4 -0.0319,0.01916 -0.0536,0.01778 -0.0763,-0.0049 -0.0402,-0.04017 -0.25982,-0.04144 -0.29952,-0.0018 -0.0227,0.02267 -0.0394,0.02206 -0.0691,-0.0025 -0.0261,-0.02163 -0.0847,-0.02763 -0.17566,-0.01796 -0.0751,0.008 -0.14815,0.01451 -0.16237,0.01451 -0.0142,0 -0.0873,-0.0065 -0.16237,-0.01451 -0.0909,-0.0097 -0.14959,-0.0037 -0.17566,0.01796 -0.0296,0.02461 -0.0464,0.02523 -0.0691,0.0025 -0.0367,-0.03668 -0.29481,-0.03994 -0.31702,-0.004 -0.0107,0.01734 -0.0321,0.01734 -0.0645,0 -0.0628,-0.03361 -0.2768,-0.03361 -0.29757,0 -0.01,0.01611 -0.0326,0.01706 -0.0597,0.0025 -0.025,-0.01334 -0.85074,-0.02298 -1.92459,-0.02242 -1.17492,6.16e-4 -1.89318,-0.0084 -1.91364,-0.02405 -0.0647,-0.0495 -0.20152,-0.09129 -0.25396,-0.07757 -0.0316,0.0083 -0.0589,-5.2e-5 -0.0667,-0.02042 -0.0164,-0.04287 -0.25986,-0.124879 -0.29894,-0.100724 -0.0158,0.0098 -0.0415,9.17e-4 -0.0571,-0.01971 -0.038,-0.0502 -0.18021,-0.106304 -0.26784,-0.105694 -0.039,2.92e-4 -0.0883,-0.01393 -0.10967,-0.03154 -0.0607,-0.05016 -0.25861,-0.120231 -0.25861,-0.09157 0,0.01411 -0.0175,0.02566 -0.0388,0.02566 -0.0213,0 -0.0388,-0.01205 -0.0388,-0.02677 0,-0.04356 -0.22999,-0.130056 -0.29946,-0.112618 -0.0457,0.01146 -0.0626,0.005 -0.0626,-0.02372 0,-0.05301 -0.18768,-0.198929 -0.25586,-0.198929 -0.0299,0 -0.0545,-0.01648 -0.0545,-0.03662 0,-0.0383 -0.18264,-0.196123 -0.22696,-0.196123 -0.014,0 -0.0721,-0.04655 -0.129,-0.103442 -0.0569,-0.05689 -0.12808,-0.10344 -0.1582,-0.10344 -0.0307,0 -0.0548,-0.01654 -0.0548,-0.03755 0,-0.0435 -0.20961,-0.195192 -0.26973,-0.195192 -0.0223,0 -0.0406,-0.01404 -0.0406,-0.0312 0,-0.05016 -0.18855,-0.200499 -0.25214,-0.201041 -0.0396,-2.93e-4 -0.0582,-0.01608 -0.0582,-0.0492 0,-0.02754 -0.0233,-0.0548 -0.0536,-0.06273 -0.0295,-0.0077 -0.06,-0.03829 -0.0678,-0.06795 -0.008,-0.02967 -0.0418,-0.06088 -0.0757,-0.06938 -0.0422,-0.0106 -0.0616,-0.03389 -0.0616,-0.07413 0,-0.03228 -0.0175,-0.07316 -0.0388,-0.09087 -0.0213,-0.01771 -0.0388,-0.05945 -0.0388,-0.09277 0,-0.0341 -0.0226,-0.07267 -0.0517,-0.08825 -0.0579,-0.03097 -0.0689,-0.09337 -0.0194,-0.109982 0.0255,-0.0085 0.0249,-0.02482 -0.003,-0.07666 -0.0193,-0.03619 -0.0275,-0.08973 -0.0182,-0.118986 0.009,-0.02926 0.002,-0.07783 -0.0167,-0.107958 -0.0288,-0.04698 -0.0271,-0.05843 0.0117,-0.08048 0.0807,-0.04585 0.0484,-0.08625 -0.13592,-0.169774 -0.19547,-0.08858 -0.2366,-0.139535 -0.17107,-0.211946 0.0231,-0.02548 0.0419,-0.06421 0.0419,-0.08605 0,-0.02184 0.0241,-0.07039 0.0536,-0.10787 0.05,-0.06364 0.0505,-0.06819 0.007,-0.06896 -0.0551,-9.17e-4 -0.11342,-0.04479 -0.15231,-0.114415 -0.0282,-0.05043 -0.0666,-0.07705 -0.14696,-0.101896 -0.0314,-0.0097 -0.0452,-0.04073 -0.0452,-0.1017 0,-0.08215 -0.0373,-0.153657 -0.1833,-0.351086 l -0.0557,-0.0753 0.0715,-0.0938 c 0.13151,-0.172418 0.18573,-0.195439 0.46556,-0.197685 0.19118,-0.0016 0.24378,-0.0092 0.22084,-0.03219 -0.0484,-0.04851 -0.79565,-0.03364 -0.84614,0.01685 -0.01,0.01001 -0.0728,0.01096 -0.1396,0.0022 -0.0711,-0.0094 -0.128,-0.0054 -0.13734,0.0097 -0.0104,0.01676 -0.0501,0.01408 -0.11322,-0.0075 -0.11512,-0.03948 -0.12705,-0.07853 -0.11475,-0.37555 l 0.008,-0.202285 0.114,-0.03884 c 0.0672,-0.02292 0.12011,-0.02896 0.12891,-0.01472 0.0205,0.03311 0.12454,0.03043 0.15908,-0.0041 0.0204,-0.02042 0.0451,-0.01864 0.0892,0.0065 0.0489,0.02781 0.33071,0.03482 1.41862,0.03519 1.68596,6.16e-4 2.17436,-0.01316 2.23423,-0.06288 0.039,-0.03237 0.10773,-0.163819 0.15288,-0.292304 0.009,-0.02443 0.0862,-0.09925 0.17258,-0.166306 0.0863,-0.06705 0.16361,-0.148282 0.1717,-0.180518 0.0316,-0.125833 0.25453,-0.181962 0.39769,-0.100122 0.0919,0.05256 0.10344,0.04831 0.10344,-0.03814 0,-0.0728 0.005,-0.07609 0.084,-0.06117 0.0462,0.0087 0.12931,0.03086 0.18464,0.0493 0.0852,0.0284 0.10635,0.02779 0.13822,-0.0041 0.0905,-0.09047 0.18988,-0.118474 0.36518,-0.10286 0.0945,0.0084 0.21254,0.01866 0.26232,0.0228 0.0498,0.0041 0.11593,0.02144 0.14699,0.0385 0.0692,0.03801 0.15462,0.04017 0.17668,0.0045 0.009,-0.0146 0.0708,-0.02658 0.13729,-0.02668 0.19526,-1.97e-4 0.37659,-0.0142 0.41829,-0.03229 0.0213,-0.0093 0.14352,-0.0219 0.27153,-0.02806 0.128,-0.0061 0.25019,-0.01741 0.27153,-0.02495 0.0213,-0.0075 0.1299,-0.02008 0.24126,-0.02788 0.11136,-0.0078 0.21318,-0.02076 0.22628,-0.02886 0.0131,-0.0081 0.0238,-9.17e-4 0.0238,0.01583 0,0.02147 0.01,0.02261 0.0323,0.0039 0.0178,-0.01469 0.0614,-0.02634 0.097,-0.02584 0.0356,6.16e-4 0.12865,-0.0066 0.20688,-0.01571 0.16066,-0.01876 0.46326,-0.04486 0.5861,-0.05058 0.045,-0.0022 0.0906,-0.01254 0.10129,-0.02319 0.0107,-0.01066 0.0524,-0.01941 0.0927,-0.01941 0.064,0 0.0733,-0.0097 0.0733,-0.07691 0,-0.103508 0.10074,-0.154496 0.30075,-0.152226 0.19088,0.0022 0.23698,0.02683 0.24714,0.1322 0.007,0.0724 0.017,0.08308 0.0728,0.07729 0.0356,-0.0037 0.12601,-0.01189 0.20099,-0.01823 0.075,-0.0063 0.1469,-0.01802 0.15979,-0.026 0.0387,-0.02394 0.25748,0.04548 0.26542,0.08422 l 0.072,0.08127 c 0,0.01436 0.0175,0.01938 0.0388,0.01118 0.0265,-0.01017 0.0388,0.0016 0.0388,0.03663 0,0.02834 0.0289,0.07049 0.0643,0.09368 0.0535,0.03505 0.0735,0.03664 0.11865,0.0095 0.0496,-0.02991 0.0672,-0.01879 0.20393,0.128895 0.0823,0.08889 0.16273,0.161626 0.17874,0.161626 0.016,0 0.0291,0.01667 0.0291,0.03704 0,0.02039 0.0227,0.04425 0.0504,0.05304 0.0277,0.0088 0.0568,0.03616 0.0646,0.0608 0.008,0.02464 0.0491,0.06544 0.0918,0.09065 0.0624,0.03682 0.0776,0.06337 0.0776,0.134899 0,0.05275 0.0199,0.108913 0.0487,0.137772 0.0594,0.05944 0.20157,0.10879 0.30293,0.105186 0.0413,-0.0016 0.31228,0.01537 0.60226,0.03741 0.28997,0.02206 0.53725,0.03387 0.54952,0.02631 0.0123,-0.0076 0.0223,-0.03795 0.0223,-0.06749 0,-0.0531 0.006,-0.05352 0.51074,-0.03758 0.28091,0.0089 0.78421,0.0236 1.11845,0.03271 0.33424,0.0091 0.64845,0.01854 0.69823,0.02092 0.0553,0.0027 0.20111,-0.04013 0.37497,-0.110007 l 0.0517,0.04996 -0.15516,0.06197 0.2068,0.01293 0.2068,0.01293 0.0437,0.09316 0.0437,0.09316 0.20201,0.0038 c 0.11111,0.0022 0.30382,0.01118 0.42826,0.02009 l 0.22626,0.0162 0.0162,-0.08091 c 0.0124,-0.06191 0.0299,-0.08092 0.0744,-0.08092 0.032,0 0.0716,0.01614 0.088,0.03585 0.0164,0.01971 0.14871,0.06759 0.2941,0.106378 0.14538,0.03879 0.35486,0.09821 0.46549,0.132049 0.11064,0.03384 0.24698,0.06885 0.30298,0.07781 0.0921,0.01472 0.10475,0.0098 0.1327,-0.05154 0.0371,-0.08136 0.0288,-0.0808 0.21896,-0.01488 0.14735,0.05107 0.45009,0.138342 0.62519,0.180213 0.0697,0.01667 0.0892,0.0114 0.11148,-0.03012 0.0437,-0.08174 0.19406,-0.01386 0.16086,0.07262 -0.007,0.01941 0.004,0.03467 0.0251,0.03467 0.0211,0 0.0529,0.01746 0.0706,0.03879 0.0361,0.04351 0.1293,0.05283 0.1293,0.01293 0,-0.03238 0.0694,-0.03411 0.0891,-0.0022 0.0134,0.02168 -0.0428,0.306699 -0.0792,0.40144 -0.0109,0.02831 -7e-5,0.04042 0.036,0.04042 0.0306,0 0.0573,0.02208 0.0657,0.05432 0.0147,0.05631 0.0694,0.04578 0.0694,-0.01337 0,-0.02212 0.0548,-0.0393 0.16054,-0.05036 0.21468,-0.02242 0.22949,-0.0048 0.25567,0.305553 0.0141,0.166629 0.0341,0.261287 0.061,0.288169 0.0505,0.05051 0.0501,0.05993 -0.005,0.121071 -0.0337,0.0373 -0.0457,0.09698 -0.0471,0.234777 -9.2e-4,0.101619 -0.0107,0.22258 -0.0214,0.268805 l -0.0196,0.08405 h -0.16965 c -0.13039,0 -0.17812,-0.01047 -0.20625,-0.04526 -0.0337,-0.0417 -0.0345,-0.0412 -0.01,0.0065 0.0146,0.02843 0.0472,0.07711 0.0726,0.108143 l 0.046,0.05642 0.0437,0.06753 c -0.007,0.0069 0.0119,0.08549 0.0417,0.174678 0.0536,0.160424 0.0537,0.162525 0.004,0.197628 -0.0285,0.02005 -0.0504,0.06545 -0.0504,0.104416 0,0.113556 -0.12659,0.240661 -0.25751,0.258558 -0.13918,0.01904 -0.18159,0.07481 -0.13007,0.171089 0.0328,0.06129 0.032,0.07129 -0.008,0.09348 -0.0244,0.01368 -0.0448,0.05626 -0.0452,0.09468 -6.1e-4,0.0384 -0.0167,0.09074 -0.0361,0.116285 -0.0194,0.02554 -0.0296,0.06807 -0.0227,0.09448 0.008,0.03236 -0.005,0.05349 -0.0402,0.06477 -0.029,0.0092 -0.0604,0.04233 -0.0698,0.07361 -0.009,0.03127 -0.0419,0.07649 -0.0722,0.100486 -0.0304,0.024 -0.0553,0.06472 -0.0554,0.09051 -1e-4,0.03077 -0.0207,0.04792 -0.0597,0.04989 -0.0327,0.0016 -0.0826,0.02784 -0.11091,0.05818 -0.0283,0.03034 -0.0729,0.05519 -0.0991,0.05519 -0.0263,0 -0.0538,0.02319 -0.0612,0.05157 -0.0109,0.04179 -0.0281,0.04865 -0.0904,0.03618 -0.0446,-0.0089 -0.0843,-0.0034 -0.0945,0.01309 -0.01,0.01565 -0.0522,0.02846 -0.0945,0.02846 -0.0462,0 -0.0831,0.01629 -0.0925,0.04087 -0.01,0.0252 -0.0349,0.03586 -0.0657,0.02781 -0.0624,-0.01633 -0.30492,0.05364 -0.30492,0.08799 0,0.01395 -0.0266,0.01866 -0.0592,0.01051 -0.067,-0.01682 -0.30287,0.07452 -0.30287,0.117298 0,0.01866 -0.0152,0.01956 -0.0466,0.0027 -0.0549,-0.02938 -0.28693,0.03775 -0.30649,0.08871 -0.007,0.01765 -0.0351,0.02615 -0.063,0.01885 -0.0757,-0.01981 -0.28215,0.04513 -0.28215,0.08873 0,0.0248 -0.0164,0.03197 -0.0493,0.02153 -0.0654,-0.02076 -0.29429,0.03704 -0.32047,0.08094 -0.024,0.04028 -0.0957,0.04688 -0.0957,0.0088 0,-0.03673 -0.26779,-0.0322 -0.30515,0.0051 -0.0241,0.02415 -0.0379,0.02415 -0.0621,0 -0.0406,-0.04057 -0.25989,-0.04009 -0.30062,6.16e-4 -0.0243,0.0243 -0.0429,0.02467 -0.0799,0.0016 -0.0587,-0.03667 -0.26153,-0.03762 -0.3061,-0.0016 -0.0219,0.01774 -0.0428,0.01774 -0.0647,0 -0.0412,-0.03343 -0.24709,-0.03634 -0.3069,-0.0043 -0.029,0.01549 -0.0512,0.01512 -0.0613,-0.0012 -0.0199,-0.03214 -0.27442,-0.02871 -0.31548,0.0042 -0.0196,0.01574 -0.0493,0.01466 -0.0824,-0.0031 -0.0679,-0.03636 -0.19135,-0.03516 -0.27437,0.0027 -0.0509,0.02319 -0.0737,0.02319 -0.0969,0 -0.0382,-0.03819 -0.21318,-0.03947 -0.28307,-0.0022 -0.0382,0.02042 -0.0606,0.02042 -0.0811,0 -0.0366,-0.03661 -0.28356,-0.03672 -0.32014,-1.94e-4 -0.0202,0.02024 -0.033,0.02024 -0.0455,0 -0.0218,-0.03532 -0.25987,-0.03693 -0.32477,-0.0022 -0.0296,0.01583 -0.0542,0.01654 -0.0634,0.0018 z m 0.11513,-0.205059 c 6e-5,-0.02138 -0.0159,-0.02895 -0.0408,-0.01941 -0.0225,0.0086 -0.0632,0.01571 -0.0905,0.01571 -0.0273,0 -0.0496,0.0096 -0.0496,0.02135 0,0.01173 0.0407,0.02045 0.0904,0.01941 0.0579,-0.0012 0.0905,-0.01457 0.0905,-0.03703 z m 0.32545,0.02215 c 0.0486,0 0.0625,-0.0137 0.0625,-0.06141 0,-0.133493 0.0318,-0.223043 0.0792,-0.223043 0.0364,0 0.0506,0.02747 0.0634,0.122832 0.0249,0.186333 0.0265,0.188527 0.1215,0.170042 0.10057,-0.01956 0.12276,-0.04656 0.12382,-0.150645 0.002,-0.188342 0.11447,-0.188299 0.1357,5.2e-5 0.0166,0.147211 0.0346,0.166167 0.1423,0.149401 0.11356,-0.01768 0.11057,-0.08895 -0.008,-0.193168 -0.10712,-0.09406 -0.20472,-0.274082 -0.22866,-0.421767 -0.0151,-0.09338 0.018,-0.275863 0.0739,-0.406316 0.0172,-0.04024 -0.004,-0.04377 -0.22922,-0.03879 -0.20953,0.0046 -0.24557,0.01152 -0.2314,0.04427 0.14279,0.330306 0.0797,0.631569 -0.17774,0.849219 -0.0799,0.06752 -0.1036,0.203019 -0.0306,0.175023 0.0225,-0.0086 0.0691,-0.01571 0.10344,-0.01571 z m 1.17452,-0.0018 c 0,-0.01941 -0.18532,-0.0543 -0.20165,-0.03797 -0.006,0.0058 -0.004,0.02169 0.005,0.03543 0.0172,0.02775 0.19659,0.03007 0.19659,0.0025 z m 0.32536,0.0018 c 0.0495,0 0.0625,-0.01352 0.0625,-0.06465 0,-0.07673 9.2e-4,-0.07657 -0.11549,-0.02107 -0.0892,0.04256 -0.13462,0.133706 -0.0505,0.101418 0.0225,-0.0086 0.0691,-0.01571 0.10344,-0.01571 z m 0.43863,-0.102146 c 0.0221,-0.165676 0.0298,-0.182313 0.085,-0.182313 0.0395,0 0.0519,0.02514 0.0643,0.129914 0.0198,0.167455 0.0238,0.172328 0.1295,0.159985 0.0796,-0.0093 0.0907,-0.02033 0.10421,-0.103507 0.0119,-0.07313 0.002,-0.110282 -0.0459,-0.173153 -0.0336,-0.04403 -0.0784,-0.131489 -0.0997,-0.194358 -0.0459,-0.135807 -0.0865,-0.158127 -0.12131,-0.06665 -0.0311,0.08173 -0.10856,0.08727 -0.14336,0.01023 -0.0313,-0.06936 -0.0902,-0.09239 -0.0902,-0.03529 0,0.02298 -0.0297,0.100389 -0.066,0.171994 -0.0548,0.108107 -0.063,0.150732 -0.0484,0.251279 0.0225,0.155118 0.0178,0.149533 0.12485,0.149533 0.0889,0 0.0918,-0.0032 0.10704,-0.117664 z m 0.7359,0.08577 c 0,-0.01611 -0.0262,-0.03499 -0.0582,-0.04193 -0.032,-0.007 -0.0786,-0.02119 -0.10344,-0.03164 -0.0341,-0.01433 -0.0453,-0.0066 -0.0453,0.03115 0,0.0276 0.005,0.05503 0.0108,0.06095 0.0247,0.02473 0.19611,0.0085 0.19611,-0.01854 z m 0.32477,0.0043 c 0.0381,-0.02883 0.0409,-0.03808 0.0114,-0.03844 -0.0668,-6.16e-4 -0.15516,0.02969 -0.15516,0.05356 0,0.03598 0.0885,0.02668 0.14376,-0.01513 z m -7.10282,-0.122498 c -0.0341,-0.02646 -0.0885,-0.07257 -0.12096,-0.102478 -0.0324,-0.02991 -0.0642,-0.04915 -0.0706,-0.04278 -0.006,0.0064 -0.003,0.06323 0.008,0.126333 0.0181,0.106199 0.0262,0.115745 0.10938,0.128248 0.12093,0.01817 0.16152,-0.04157 0.0742,-0.109323 z m 0.31301,0.09305 c 0,-0.0056 -0.024,-0.01017 -0.0532,-0.01017 -0.0293,0 -0.0464,0.01112 -0.038,0.02473 0.0138,0.02233 0.0912,0.01 0.0912,-0.01457 z m 0.0905,0.01571 c 0.009,-0.01423 -0.003,-0.02587 -0.0259,-0.02587 -0.023,0 -0.0346,0.01164 -0.0258,0.02587 0.009,0.01423 0.0204,0.02587 0.0258,0.02587 0.005,0 0.0171,-0.01164 0.0259,-0.02587 z m 0.77791,-0.1243 c 0.0103,-0.0826 0.0321,-0.14408 0.054,-0.152477 0.0513,-0.01968 0.0568,-0.0094 0.0796,0.149157 0.02,0.139005 0.0213,0.140569 0.11039,0.142051 0.15707,0.0025 0.17493,-0.116669 0.0421,-0.281607 -0.0477,-0.05929 -0.10009,-0.147352 -0.11637,-0.195698 -0.04,-0.118881 -0.0354,-0.32921 0.01,-0.45516 0.0205,-0.05689 0.0374,-0.105553 0.0376,-0.108131 1.9e-4,-0.0025 -0.11019,-0.0084 -0.24534,-0.01293 -0.23914,-0.008 -0.28484,0.0069 -0.22014,0.07154 0.014,0.01402 0.0373,0.08755 0.0516,0.163403 0.0205,0.108393 0.0174,0.171878 -0.0148,0.296482 -0.0225,0.08721 -0.0522,0.172069 -0.0658,0.188582 -0.0159,0.01922 -0.0157,0.03565 6.2e-4,0.04566 0.0139,0.0086 0.0329,0.07682 0.0423,0.151587 l 0.017,0.135943 h 0.10007 0.10006 l 0.0173,-0.138403 z m 0.72027,0.12706 c 0.008,-0.01272 -0.0136,-0.03012 -0.0478,-0.03868 -0.0341,-0.0085 -0.0806,-0.0227 -0.10326,-0.03139 -0.0297,-0.01137 -0.0412,-6.16e-4 -0.0412,0.03868 0,0.04485 0.0157,0.05449 0.089,0.05449 0.0489,0 0.0954,-0.01038 0.10326,-0.0231 z m 0.38571,-0.01485 c 0.008,-0.02088 0.005,-0.04401 -0.007,-0.05141 -0.0297,-0.01832 -0.18286,0.03699 -0.18286,0.06605 0,0.04004 0.17422,0.02664 0.19006,-0.01463 z m 0.38857,-0.04285 c 0.009,-0.04444 0.0162,-0.107207 0.0162,-0.139464 0,-0.06077 0.0646,-0.106067 0.0908,-0.06367 0.008,0.01327 0.0219,0.08316 0.0304,0.155336 l 0.0156,0.131221 0.10615,-0.0078 0.10615,-0.0078 0.017,-0.155161 c 0.0123,-0.112154 0.008,-0.165914 -0.0172,-0.19395 -0.0188,-0.02135 -0.0423,-0.08243 -0.0522,-0.135767 -0.0209,-0.112428 -0.0791,-0.128684 -0.11568,-0.03232 -0.0135,0.03556 -0.0426,0.06465 -0.0647,0.06465 -0.0221,0 -0.0511,-0.02908 -0.0647,-0.06465 -0.036,-0.09471 -0.098,-0.0811 -0.11809,0.02593 -0.009,0.04982 -0.0545,0.140006 -0.10044,0.200417 -0.0685,0.0901 -0.0814,0.127258 -0.0719,0.206814 0.0111,0.09284 0.0157,0.09697 0.10896,0.09697 0.0884,0 0.0989,-0.0074 0.11354,-0.08081 z m 0.74025,0.05954 c 0,-0.02674 -0.2097,-0.165554 -0.2258,-0.14946 -0.006,0.0065 -0.004,0.04761 0.006,0.0913 0.0159,0.07219 0.0267,0.07943 0.11883,0.07943 0.0558,0 0.10139,-0.0096 0.10139,-0.02125 z m -7.88735,-0.03046 c 0,-0.01423 -0.024,-0.02584 -0.0532,-0.02584 -0.0293,0 -0.0461,0.01164 -0.0373,0.02584 0.009,0.01423 0.0327,0.02587 0.0532,0.02587 0.0205,0 0.0373,-0.01164 0.0373,-0.02587 z m 0.38453,-0.09923 c 0.0141,-0.06596 0.0219,-0.12364 0.0173,-0.128183 -0.005,-0.0046 -0.0619,0.02954 -0.12747,0.07577 -0.16094,0.113435 -0.16184,0.172339 -0.003,0.172339 0.0829,0 0.0885,-0.006 0.11282,-0.119922 z m 0.37834,-0.03007 c 0.0147,-0.126914 0.0267,-0.155161 0.0656,-0.155161 0.0372,0 0.0512,0.02674 0.064,0.122837 0.024,0.179026 0.0263,0.182313 0.12731,0.182313 0.076,0 0.0952,-0.01106 0.108,-0.06186 0.0124,-0.04936 -0.008,-0.08583 -0.10132,-0.180382 -0.0733,-0.07435 -0.12944,-0.161171 -0.15063,-0.232942 -0.0354,-0.11975 -0.0952,-0.151449 -0.11844,-0.0627 -0.008,0.03253 -0.0353,0.05172 -0.0721,0.05172 -0.0369,0 -0.0636,-0.01919 -0.0722,-0.05172 -0.0189,-0.0721 -0.0959,-0.06691 -0.096,0.0065 -5e-5,0.032 -0.0225,0.09487 -0.0498,0.139713 -0.0471,0.07729 -0.0473,0.08216 -0.004,0.09357 0.0331,0.0086 0.0508,0.04824 0.0631,0.140805 0.0204,0.154279 0.0273,0.162516 0.13449,0.162516 0.083,0 0.0838,-0.0012 0.10167,-0.155164 z m 0.71116,0.129302 c 0,-0.01423 -0.0223,-0.02584 -0.0496,-0.02584 -0.0273,0 -0.068,-0.0071 -0.0905,-0.01571 -0.0268,-0.01029 -0.0409,-0.0016 -0.0409,0.02588 0,0.03025 0.0246,0.04156 0.0905,0.04156 0.0498,0 0.0905,-0.01164 0.0905,-0.02587 z m 0.41376,-0.04155 c 0,-0.05421 -0.009,-0.06369 -0.0453,-0.04839 -0.0249,0.01047 -0.0714,0.02471 -0.10344,0.03164 -0.10246,0.02221 -0.0692,0.08417 0.0453,0.08417 0.0942,0 0.10344,-0.0061 0.10344,-0.06742 z m 0.37532,-0.05542 c 0.0224,-0.166982 0.0307,-0.187485 0.0759,-0.187485 0.0389,0 0.0484,0.02606 0.0789,0.214824 0.0154,0.09531 0.0189,0.0982 0.11139,0.09051 0.0932,-0.0077 0.0957,-0.01078 0.10372,-0.122787 0.006,-0.08607 -0.0101,-0.150873 -0.0647,-0.2586 -0.0602,-0.118798 -0.0725,-0.175179 -0.0709,-0.324778 0.001,-0.117109 0.0174,-0.210692 0.0459,-0.265066 l 0.044,-0.08404 h -0.24633 c -0.13549,0 -0.24593,0.0087 -0.24543,0.01941 6.2e-4,0.01066 0.0176,0.04849 0.0379,0.08405 0.0226,0.03954 0.0373,0.139181 0.0379,0.256512 9.1e-4,0.166157 -0.009,0.210191 -0.0763,0.328696 -0.0657,0.116419 -0.0748,0.15435 -0.0611,0.254229 0.0159,0.115881 0.0174,0.11739 0.11444,0.11739 0.0978,0 0.0984,-6.16e-4 0.11478,-0.122836 z m 0.73667,0.09951 c 0,-0.01284 -0.0378,-0.03825 -0.0841,-0.05651 -0.0462,-0.01823 -0.0928,-0.0378 -0.10344,-0.04347 -0.0107,-0.0057 -0.0194,0.01975 -0.0194,0.0565 0,0.06069 0.01,0.06681 0.10344,0.06681 0.0569,0 0.10344,-0.01051 0.10344,-0.02332 z m 0.3879,-0.0025 c 0,-0.01423 -0.0472,-0.02588 -0.10497,-0.02588 -0.0634,0 -0.0986,0.01026 -0.089,0.02588 0.009,0.01423 0.056,0.02587 0.10497,0.02587 0.0489,0 0.089,-0.01164 0.089,-0.02587 z m 0.38195,-0.07758 c 0.0139,-0.180873 0.0279,-0.210798 0.0842,-0.180682 0.0314,0.01682 0.0512,0.05435 0.0514,0.09755 9.2e-4,0.152043 0.0246,0.186577 0.12899,0.186577 h 0.0974 l 0.0178,-0.142232 c 0.0127,-0.101827 0.0289,-0.142231 0.0569,-0.142231 0.0215,0 0.035,-0.0087 0.03,-0.01941 -0.005,-0.01066 -0.032,-0.08049 -0.0599,-0.155161 -0.0568,-0.151526 -0.0803,-0.165895 -0.11631,-0.07112 -0.0331,0.0871 -0.12251,0.08589 -0.15596,-0.0022 -0.0353,-0.09275 -0.0791,-0.06753 -0.11869,0.06833 -0.0209,0.07161 -0.0731,0.15377 -0.13807,0.217208 -0.0738,0.07211 -0.10449,0.123676 -0.10449,0.175848 0,0.07085 0.004,0.0735 0.10991,0.06587 0.10529,-0.0076 0.1102,-0.01177 0.11689,-0.09846 z m 1.49565,0.06684 c 0.008,-0.02014 0.0103,-0.06678 0.006,-0.103673 l -0.008,-0.06707 -0.0751,0.06489 c -0.0413,0.03569 -0.0908,0.06488 -0.1099,0.06488 -0.037,0 -0.0462,0.03171 -0.0175,0.06034 0.0328,0.03277 0.19103,0.01784 0.20531,-0.01937 z m 6.67729,-0.142026 c 0.0101,-0.100101 -0.004,-0.09994 -0.11158,0.0012 -0.10905,0.10286 -0.0977,0.16287 0.0214,0.113068 0.0634,-0.02652 0.0839,-0.05252 0.0902,-0.114295 z m 0.30183,-0.0022 c 0.0656,-0.02492 0.0671,-0.03043 0.0501,-0.18102 -0.015,-0.132884 -0.0115,-0.155305 0.0241,-0.155305 0.0241,0 0.0697,0.05532 0.10832,0.131475 0.0519,0.102316 0.0763,0.127476 0.11034,0.113436 0.024,-0.0099 0.0643,-0.02396 0.0896,-0.0312 0.0445,-0.01278 0.0456,-0.08379 0.004,-0.239944 -0.006,-0.02153 -0.0833,-0.06734 -0.1723,-0.101785 -0.089,-0.03444 -0.21927,-0.08955 -0.28949,-0.122467 -0.0702,-0.03291 -0.13234,-0.05983 -0.13804,-0.05983 -0.006,0 -0.003,0.0441 0.006,0.098 0.009,0.0539 0.006,0.144977 -0.007,0.202394 -0.0189,0.08427 -0.013,0.13018 0.031,0.23816 0.0571,0.14027 0.0734,0.1499 0.18334,0.1081 z m -12.97029,-0.211062 c -0.0775,-0.165631 -0.0868,-0.45144 -0.0191,-0.584284 l 0.0428,-0.08405 h -0.11439 c -0.10161,0 -0.11439,0.0066 -0.11439,0.05857 0,0.07787 -0.0894,0.241895 -0.19719,0.361734 -0.0573,0.06372 -0.0873,0.123141 -0.0873,0.17303 0,0.08264 0.007,0.0903 0.10345,0.112889 0.0572,0.0134 0.072,2.96e-4 0.12834,-0.113629 0.10092,-0.204051 0.18599,-0.126341 0.12244,0.111849 -0.0168,0.06291 -0.009,0.07487 0.0656,0.106542 0.12323,0.05204 0.14243,0.01275 0.0697,-0.142655 z m 13.67421,-0.0016 c 0.0558,-0.02018 0.0817,-0.04392 0.0729,-0.06676 -0.007,-0.0195 -0.0136,-0.04615 -0.0136,-0.05921 0,-0.01306 -0.0465,-0.02375 -0.10344,-0.02375 -0.10709,0 -0.11651,0.01327 -0.0871,0.122836 0.0182,0.06779 0.0181,0.06778 0.13123,0.02689 z m -14.34477,-0.098 c 0,-0.01423 -0.032,-0.02569 -0.0711,-0.02548 -0.0554,2.92e-4 -0.0626,0.006 -0.0323,0.02548 0.0506,0.0327 0.10344,0.0327 0.10344,0 z m 14.72852,-0.04744 c -0.0547,-0.01103 -0.11753,0.01269 -0.11753,0.04439 0,0.01411 0.0339,0.01173 0.0802,-0.0056 0.0541,-0.02027 0.0662,-0.0329 0.0373,-0.03873 z m -6.19467,-0.35339 c 0,-0.124989 -0.006,-0.142229 -0.0517,-0.142229 -0.0533,0 -0.0699,0.03743 -0.0281,0.06326 0.013,0.008 0.0315,0.06108 0.0411,0.117896 0.0242,0.143532 0.0388,0.128956 0.0388,-0.03892 z m -9.20147,0.05905 c -0.0168,-0.01682 -0.0306,-0.05737 -0.0306,-0.09008 0,-0.07548 -0.0426,-0.07734 -0.0662,-0.0027 -0.0132,0.04159 -0.002,0.06917 0.0407,0.104086 0.062,0.05021 0.10823,0.04104 0.0561,-0.01112 z m 12.81315,-0.06551 c 0.032,-0.136128 0.029,-0.149087 -0.0289,-0.126841 -0.0279,0.01069 -0.0399,0.05073 -0.0399,0.132496 0,0.152246 0.0323,0.149589 0.0688,-0.0056 z m -10.18016,0.0086 c 0,-0.116007 -0.0224,-0.170205 -0.0704,-0.170205 -0.0281,0 -0.0344,0.01624 -0.0225,0.05818 0.009,0.032 0.0236,0.09019 0.0321,0.129298 0.0218,0.09977 0.0608,0.08868 0.0608,-0.01728 z m 3.59054,0.0043 c 0.0133,-0.04622 0.0326,-0.10441 0.0428,-0.129299 0.0142,-0.03463 0.006,-0.04526 -0.036,-0.04526 -0.0482,0 -0.0545,0.01506 -0.0545,0.129302 0,0.150115 0.0137,0.163086 0.0477,0.04525 z m -6.44638,-0.159637 c 0.0202,-0.02024 0.0669,-0.0605 0.10376,-0.08947 0.0668,-0.05255 0.0657,-0.106466 -0.002,-0.106466 -0.0197,0 -0.0564,-0.03491 -0.0816,-0.07758 -0.0502,-0.08493 -0.0864,-0.100415 -0.0864,-0.03693 0,0.02236 -0.0306,0.09287 -0.068,0.156705 -0.0679,0.115822 -0.0679,0.116081 -0.0129,0.130456 0.0303,0.0079 0.0551,0.02468 0.0551,0.03725 0,0.03493 0.0511,0.0272 0.0922,-0.01395 z m -0.24793,-0.260023 c 0.0859,-0.0886 0.0865,-0.09074 0.0387,-0.143453 -0.0697,-0.07705 -0.16674,-0.0573 -0.22695,0.04617 l -0.049,0.08431 0.0607,0.05059 c 0.0334,0.02781 0.0672,0.05098 0.075,0.05146 0.008,6.16e-4 0.0535,-0.03962 0.1015,-0.08909 z m -0.36149,-0.191503 c 0,-0.03251 -0.0237,-0.05334 -0.0711,-0.06266 -0.10215,-0.02005 -0.12787,0.02178 -0.0413,0.0672 0.0999,0.05246 0.11245,0.05195 0.11245,-0.0046 z m 17.55388,-0.292649 c 0.065,-0.06503 0.0361,-0.101524 -0.0659,-0.08308 -0.11769,0.02129 -0.11494,0.01919 -0.0948,0.07162 0.019,0.04952 0.11579,0.05642 0.16076,0.01146 z m -16.45514,-2.561586 c 0.40694,-0.0059 0.43999,-0.0099 0.44864,-0.05503 0.008,-0.03963 -0.002,-0.04586 -0.0514,-0.03348 -0.0334,0.0083 -0.45856,0.01703 -0.94478,0.01925 -0.69565,0.0031 -0.88678,0.01112 -0.89686,0.03741 -0.022,0.05742 -0.14372,0.05474 1.4444,0.03186 z m 8.77984,-0.433021 c 0,-0.01423 -0.0123,-0.02587 -0.0274,-0.02587 -0.0151,0 -0.0202,0.01164 -0.0114,0.02587 0.009,0.01423 0.0211,0.02587 0.0274,0.02587 0.006,0 0.0114,-0.01164 0.0114,-0.02587 z m 0.18102,0 c 0,-0.01423 -0.0116,-0.02587 -0.0259,-0.02587 -0.0142,0 -0.0258,0.01164 -0.0258,0.02587 0,0.01423 0.0116,0.02587 0.0258,0.02587 0.0142,0 0.0259,-0.01164 0.0259,-0.02587 z m -0.33618,-0.0114 c 0,-0.0063 -0.0116,-0.0186 -0.0259,-0.02738 -0.0142,-0.0088 -0.0259,-0.0037 -0.0259,0.01139 0,0.01506 0.0116,0.02738 0.0259,0.02738 0.0142,0 0.0259,-0.0051 0.0259,-0.0114 z"
       id="H-Zrintyi" />
  </g>
</svg>
