<?xml version="1.0" encoding="UTF-8" standalone="no"?>
<!-- Created with Inkscape (http://www.inkscape.org/) -->

<svg
   width="7.9999981mm"
   height="7.9999981mm"
   viewBox="0 0 7.9999982 7.9999981"
   version="1.1"
   id="svg47190"
   xml:space="preserve"
   sodipodi:docname="Indian.svg"
   inkscape:version="1.4 (e7c3feb100, 2024-10-09)"
   xmlns:inkscape="http://www.inkscape.org/namespaces/inkscape"
   xmlns:sodipodi="http://sodipodi.sourceforge.net/DTD/sodipodi-0.dtd"
   xmlns:xlink="http://www.w3.org/1999/xlink"
   xmlns="http://www.w3.org/2000/svg"
   xmlns:svg="http://www.w3.org/2000/svg"><sodipodi:namedview
     id="namedview1"
     pagecolor="#ffffff"
     bordercolor="#000000"
     borderopacity="0.25"
     inkscape:showpageshadow="2"
     inkscape:pageopacity="0.0"
     inkscape:pagecheckerboard="0"
     inkscape:deskcolor="#d1d1d1"
     inkscape:document-units="mm"
     inkscape:zoom="21.222542"
     inkscape:cx="4.9946892"
     inkscape:cy="14.324392"
     inkscape:window-width="2560"
     inkscape:window-height="1368"
     inkscape:window-x="0"
     inkscape:window-y="0"
     inkscape:window-maximized="1"
     inkscape:current-layer="g1" /><defs
     id="defs47187"><clipPath
       clipPathUnits="userSpaceOnUse"
       id="clipPath63680-8"><path
         d="M 0,0 H 595.276 V 841.89 H 0 Z"
         id="path63678-4" /></clipPath><clipPath
       id="clip26-8"><path
         d="m 177,605 h 14 v 7 h -14 z m 0,0"
         id="path4278-6" /></clipPath><clipPath
       id="clip27-6"><path
         d="m 181.85547,606.17578 c -0.28516,0.53516 -0.66797,0.60547 -0.94141,0.66797 -0.27344,0.0586 -0.40625,0.0234 -0.72656,0.15234 -0.32031,0.13282 -0.25,0.26172 -0.28516,0.47657 -0.0352,0.21484 -0.0977,0.27343 -0.40625,1.09765 -0.30859,0.82031 -1.14062,2.03516 -1.4414,2.53516 -0.29688,0.5 -0.67578,0.47656 -0.79688,0.82031 -0.11719,0.34766 0.0117,0.82031 0.41797,1.10938 0.40234,0.28515 0.92969,0.11718 1.23828,0.0703 0.3086,-0.0469 0.40235,-0.0352 0.40235,-0.0352 l 0.33593,0.0234 c 0,0 -0.53906,-1.8125 0.77344,-1.73828 1.30859,0.0703 2,0.67578 2.90234,0.71484 0.90625,0.0352 1.0625,-0.25 1.72657,-0.25 0.66797,0 1.22656,0.19922 1.54687,0.23438 0.32422,0.0391 1.33594,0.0156 1.33594,0.0156 l 1.35547,-4.07422 h 0.30859 l -0.0195,0.53907 0.57813,-0.63282 c 0,0 0.15625,0.0234 0.24218,-0.0586 0.082,-0.0859 0.15235,-0.35938 -0.0586,-0.65625 -0.21484,-0.29688 -0.48047,-0.60547 -1.21484,-1.14063 -0.73829,-0.53906 -1.32422,-1.05078 -3.69141,-1.14453 -0.125,-0.004 -0.25,-0.008 -0.36719,-0.008 -2.09765,0 -2.94531,0.77344 -3.21484,1.28125"
         id="path4281-9" /></clipPath><clipPath
       id="clip28-5"><path
         d="m 177,611 h 4 v 3 h -4 z m 0,0"
         id="path4284-9" /></clipPath><clipPath
       id="clip29-3"><path
         d="m 181.85547,606.17578 c -0.28516,0.53516 -0.66797,0.60547 -0.94141,0.66797 -0.27344,0.0586 -0.40625,0.0234 -0.72656,0.15234 -0.32031,0.13282 -0.25,0.26172 -0.28516,0.47657 -0.0352,0.21484 -0.0977,0.27343 -0.40625,1.09765 -0.30859,0.82031 -1.14062,2.03516 -1.4414,2.53516 -0.29688,0.5 -0.67578,0.47656 -0.79688,0.82031 -0.11719,0.34766 0.0117,0.82031 0.41797,1.10938 0.40234,0.28515 0.92969,0.11718 1.23828,0.0703 0.3086,-0.0469 0.40235,-0.0352 0.40235,-0.0352 l 0.33593,0.0234 c 0,0 -0.53906,-1.8125 0.77344,-1.73828 1.30859,0.0703 2,0.67578 2.90234,0.71484 0.90625,0.0352 1.0625,-0.25 1.72657,-0.25 0.66797,0 1.22656,0.19922 1.54687,0.23438 0.32422,0.0391 1.33594,0.0156 1.33594,0.0156 l 1.35547,-4.07422 h 0.30859 l -0.0195,0.53907 0.57813,-0.63282 c 0,0 0.15625,0.0234 0.24218,-0.0586 0.082,-0.0859 0.15235,-0.35938 -0.0586,-0.65625 -0.21484,-0.29688 -0.48047,-0.60547 -1.21484,-1.14063 -0.73829,-0.53906 -1.32422,-1.05078 -3.69141,-1.14453 -0.125,-0.004 -0.25,-0.008 -0.36719,-0.008 -2.09765,0 -2.94531,0.77344 -3.21484,1.28125"
         id="path4287-0" /></clipPath><clipPath
       id="clip30-0"><path
         d="m 177,610 h 5 v 4 h -5 z m 0,0"
         id="path4290-1" /></clipPath><clipPath
       id="clip31-8"><path
         d="m 181.85547,606.17578 c -0.28516,0.53516 -0.66797,0.60547 -0.94141,0.66797 -0.27344,0.0586 -0.40625,0.0234 -0.72656,0.15234 -0.32031,0.13282 -0.25,0.26172 -0.28516,0.47657 -0.0352,0.21484 -0.0977,0.27343 -0.40625,1.09765 -0.30859,0.82031 -1.14062,2.03516 -1.4414,2.53516 -0.29688,0.5 -0.67578,0.47656 -0.79688,0.82031 -0.11719,0.34766 0.0117,0.82031 0.41797,1.10938 0.40234,0.28515 0.92969,0.11718 1.23828,0.0703 0.3086,-0.0469 0.40235,-0.0352 0.40235,-0.0352 l 0.33593,0.0234 c 0,0 -0.53906,-1.8125 0.77344,-1.73828 1.30859,0.0703 2,0.67578 2.90234,0.71484 0.90625,0.0352 1.0625,-0.25 1.72657,-0.25 0.66797,0 1.22656,0.19922 1.54687,0.23438 0.32422,0.0391 1.33594,0.0156 1.33594,0.0156 l 1.35547,-4.07422 h 0.30859 l -0.0195,0.53907 0.57813,-0.63282 c 0,0 0.15625,0.0234 0.24218,-0.0586 0.082,-0.0859 0.15235,-0.35938 -0.0586,-0.65625 -0.21484,-0.29688 -0.48047,-0.60547 -1.21484,-1.14063 -0.73829,-0.53906 -1.32422,-1.05078 -3.69141,-1.14453 -0.125,-0.004 -0.25,-0.008 -0.36719,-0.008 -2.09765,0 -2.94531,0.77344 -3.21484,1.28125"
         id="path4293-6" /></clipPath><clipPath
       id="b"><path
         id="path2-3"
         d="M0 0v1.5h7V3H6zm6 0H3v3.5H0V3z" /></clipPath><path
       d="M0-360l69.421 215.845 212.038-80.301L155.99-35.603l194.985 115.71-225.881 19.651 31.105 224.59L0 160l-156.198 164.349 31.105-224.59-225.881-19.651 194.986-115.711-125.471-188.853 212.038 80.301z"
       id="a-5" /><path
       d="M0-210L54.86-75.508l144.862 10.614L88.765 28.842l34.67 141.052L0 93.334l-123.435 76.56 34.67-141.052-110.957-93.736L-54.86-75.508z"
       id="d" /><use
       transform="scale(2.1)"
       xlink:href="#a-5"
       id="c" /></defs><g
     id="layer1"
     transform="translate(-86.467028,-76.699454)"><g
       id="g1"
       transform="matrix(0.04564432,0,0,0.04564432,69.99036,73.855212)"><path
         style="fill:#c8102f;fill-opacity:1;stroke-width:0.22446;stroke-linecap:round;stroke-linejoin:round"
         d="m 438.22234,237.16677 c -36.84903,-5.24228 -65.51141,-33.08537 -73.09442,-71.00515 -1.49271,-7.4646 -1.49271,-25.15597 0,-32.62057 3.66078,-18.30616 11.73133,-33.640524 24.41951,-46.397961 12.0777,-12.143651 24.99563,-19.392403 41.45594,-23.262544 5.94256,-1.397197 7.85921,-1.567382 17.65324,-1.567382 9.79913,0 11.70893,0.169814 17.66648,1.570381 33.42894,7.859108 58.0695,33.55354 65.60401,68.409786 1.07824,4.98832 1.29202,7.89329 1.29202,17.55799 0,13.10286 -0.89233,18.7161 -4.72674,29.73189 -9.89096,28.41602 -33.12461,49.47713 -61.9532,56.16007 -7.01234,1.62556 -21.70464,2.36416 -28.31684,1.42349 z"
         id="path2" /><g
         transform="matrix(0.38461534,0,0,0.38461539,373.44887,76.147907)"
         id="g329"><g
           transform="matrix(3.951714,0,0,3.9617324,-879.39476,-179.05352)"
           id="g103"
           stroke-width="0.505466"
           stroke="#806600"><g
             id="g59"><g
               transform="translate(18.90662,-24.94623)"
               id="g27"><path
                 d="m 253.08253,118.57493 -2.41385,-24.509827 c 0,0 0.73339,6.408707 0,0 -0.0113,-7.984261 -1.11408,-10.583788 -1.11408,-10.583788 0,0 0.84022,2.747552 0,0 -1.36542,-5.570416 -0.49686,-8.363354 0.0113,-9.18652 3.52793,-4.827693 7.23028,-3.811116 7.23028,-3.811116 0,0 -0.93613,-0.132896 0,0 -3.52793,5.384735 -1.81369,8.569628 -1.00532,10.420636 0.74273,5.199054 -0.29445,13.532149 -0.29445,13.532149 0,0 -1.48544,9.284026 0,0 1.48545,-9.284025 0.22333,-10.764002 0.66581,-13.794741 1.4272,-4.212403 5.22319,-5.729704 7.536,-6.425772 -1.36348,3.899291 -0.22688,7.753528 -0.35817,10.510743 -0.2626,4.464062 -3.20162,10.452492 -3.20162,10.452492 l -7.05586,23.395744 z"
                 id="path19"
                 fill-rule="evenodd"
                 fill="#fdd502" /><g
                 id="g25"
                 fill="none"><path
                   d="m 256.61792,70.531119 c -3.80759,0.853423 -4.59536,6.236556 -4.59536,6.236556 0,0 0.13129,4.135823 1.24732,8.205997 0.26259,3.282399 -0.2626,12.473115 -0.2626,12.473115 l 0.26259,19.563093"
                   id="path21" /><path
                   d="m 263.37966,74.404348 c 0,0 -3.28239,3.807582 -3.61063,5.054895 -0.78778,3.479342 -0.65649,5.251837 -0.32825,8.534235 -0.72213,4.464063 -2.29768,9.912844 -2.29768,9.912844 l -3.74193,16.937168"
                   id="path23" /></g></g><g
               transform="rotate(-22.499967,199.27355,59.398836)"
               id="g37"><path
                 d="m 253.08253,118.57493 -2.41385,-24.509827 c 0,0 0.73339,6.408707 0,0 -0.0113,-7.984261 -1.11408,-10.583788 -1.11408,-10.583788 0,0 0.84022,2.747552 0,0 -1.36542,-5.570416 -0.49686,-8.363354 0.0113,-9.18652 3.52793,-4.827693 7.23028,-3.811116 7.23028,-3.811116 0,0 -0.93613,-0.132896 0,0 -3.52793,5.384735 -1.81369,8.569628 -1.00532,10.420636 0.74273,5.199054 -0.29445,13.532149 -0.29445,13.532149 0,0 -1.48544,9.284026 0,0 1.48545,-9.284025 0.22333,-10.764002 0.66581,-13.794741 1.4272,-4.212403 5.22319,-5.729704 7.536,-6.425772 -1.36348,3.899291 -0.22688,7.753528 -0.35817,10.510743 -0.2626,4.464062 -3.20162,10.452492 -3.20162,10.452492 l -7.05586,23.395744 z"
                 id="path29"
                 fill-rule="evenodd"
                 fill="#fdd502" /><g
                 id="g35"
                 fill="none"><path
                   d="m 256.61792,70.531119 c -3.80759,0.853423 -4.59536,6.236556 -4.59536,6.236556 0,0 0.13129,4.135823 1.24732,8.205997 0.26259,3.282399 -0.2626,12.473115 -0.2626,12.473115 l 0.26259,19.563093"
                   id="path31" /><path
                   d="m 263.37966,74.404348 c 0,0 -3.28239,3.807582 -3.61063,5.054895 -0.78778,3.479342 -0.65649,5.251837 -0.32825,8.534235 -0.72213,4.464063 -2.29768,9.912844 -2.29768,9.912844 l -3.74193,16.937168"
                   id="path33" /></g></g><g
               transform="rotate(-45,232.1752,83.842865)"
               id="g47"><path
                 d="m 253.08253,118.57493 -2.41385,-24.509827 c 0,0 0.73339,6.408707 0,0 -0.0113,-7.984261 -1.11408,-10.583788 -1.11408,-10.583788 0,0 0.84022,2.747552 0,0 -1.36542,-5.570416 -0.49686,-8.363354 0.0113,-9.18652 3.52793,-4.827693 7.23028,-3.811116 7.23028,-3.811116 0,0 -0.93613,-0.132896 0,0 -3.52793,5.384735 -1.81369,8.569628 -1.00532,10.420636 0.74273,5.199054 -0.29445,13.532149 -0.29445,13.532149 0,0 -1.48544,9.284026 0,0 1.48545,-9.284025 0.22333,-10.764002 0.66581,-13.794741 1.4272,-4.212403 5.22319,-5.729704 7.536,-6.425772 -1.36348,3.899291 -0.22688,7.753528 -0.35817,10.510743 -0.2626,4.464062 -3.20162,10.452492 -3.20162,10.452492 l -7.05586,23.395744 z"
                 id="path39"
                 fill-rule="evenodd"
                 fill="#fdd502" /><g
                 id="g45"
                 fill="none"><path
                   d="m 256.61792,70.531119 c -3.80759,0.853423 -4.59536,6.236556 -4.59536,6.236556 0,0 0.13129,4.135823 1.24732,8.205997 0.26259,3.282399 -0.2626,12.473115 -0.2626,12.473115 l 0.26259,19.563093"
                   id="path41" /><path
                   d="m 263.37966,74.404348 c 0,0 -3.28239,3.807582 -3.61063,5.054895 -0.78778,3.479342 -0.65649,5.251837 -0.32825,8.534235 -0.72213,4.464063 -2.29768,9.912844 -2.29768,9.912844 l -3.74193,16.937168"
                   id="path43" /></g></g><g
               transform="matrix(0.382684,-0.92388,0.92388,0.382684,64.8742,282.511)"
               id="g57"><path
                 d="m 253.08253,118.57493 -2.41385,-24.509827 c 0,0 0.73339,6.408707 0,0 -0.0113,-7.984261 -1.11408,-10.583788 -1.11408,-10.583788 0,0 0.84022,2.747552 0,0 -1.36542,-5.570416 -0.49686,-8.363354 0.0113,-9.18652 3.52793,-4.827693 7.23028,-3.811116 7.23028,-3.811116 0,0 -0.93613,-0.132896 0,0 -3.52793,5.384735 -1.81369,8.569628 -1.00532,10.420636 0.74273,5.199054 -0.29445,13.532149 -0.29445,13.532149 0,0 -1.48544,9.284026 0,0 1.48545,-9.284025 0.22333,-10.764002 0.66581,-13.794741 1.4272,-4.212403 5.22319,-5.729704 7.536,-6.425772 -1.36348,3.899291 -0.22688,7.753528 -0.35817,10.510743 -0.2626,4.464062 -3.20162,10.452492 -3.20162,10.452492 l -7.05586,23.395744 z"
                 id="path49"
                 fill-rule="evenodd"
                 fill="#fdd502" /><g
                 id="g55"
                 fill="none"><path
                   d="m 256.61792,70.531119 c -3.80759,0.853423 -4.59536,6.236556 -4.59536,6.236556 0,0 0.13129,4.135823 1.24732,8.205997 0.26259,3.282399 -0.2626,12.473115 -0.2626,12.473115 l 0.26259,19.563093"
                   id="path51" /><path
                   d="m 263.37966,74.404348 c 0,0 -3.28239,3.807582 -3.61063,5.054895 -0.78778,3.479342 -0.65649,5.251837 -0.32825,8.534235 -0.72213,4.464063 -2.29768,9.912844 -2.29768,9.912844 l -3.74193,16.937168"
                   id="path53" /></g></g></g><g
             transform="rotate(-90,271.85555,94.51565)"
             id="g101"><g
               transform="translate(18.90662,-24.94623)"
               id="g69"><path
                 d="m 253.08253,118.57493 -2.41385,-24.509827 c 0,0 0.73339,6.408707 0,0 -0.0113,-7.984261 -1.11408,-10.583788 -1.11408,-10.583788 0,0 0.84022,2.747552 0,0 -1.36542,-5.570416 -0.49686,-8.363354 0.0113,-9.18652 3.52793,-4.827693 7.23028,-3.811116 7.23028,-3.811116 0,0 -0.93613,-0.132896 0,0 -3.52793,5.384735 -1.81369,8.569628 -1.00532,10.420636 0.74273,5.199054 -0.29445,13.532149 -0.29445,13.532149 0,0 -1.48544,9.284026 0,0 1.48545,-9.284025 0.22333,-10.764002 0.66581,-13.794741 1.4272,-4.212403 5.22319,-5.729704 7.536,-6.425772 -1.36348,3.899291 -0.22688,7.753528 -0.35817,10.510743 -0.2626,4.464062 -3.20162,10.452492 -3.20162,10.452492 l -7.05586,23.395744 z"
                 id="path61"
                 fill-rule="evenodd"
                 fill="#fdd502" /><g
                 id="g67"
                 fill="none"><path
                   d="m 256.61792,70.531119 c -3.80759,0.853423 -4.59536,6.236556 -4.59536,6.236556 0,0 0.13129,4.135823 1.24732,8.205997 0.26259,3.282399 -0.2626,12.473115 -0.2626,12.473115 l 0.26259,19.563093"
                   id="path63" /><path
                   d="m 263.37966,74.404348 c 0,0 -3.28239,3.807582 -3.61063,5.054895 -0.78778,3.479342 -0.65649,5.251837 -0.32825,8.534235 -0.72213,4.464063 -2.29768,9.912844 -2.29768,9.912844 l -3.74193,16.937168"
                   id="path65" /></g></g><g
               transform="rotate(-22.499967,199.27355,59.398836)"
               id="g79"><path
                 d="m 253.08253,118.57493 -2.41385,-24.509827 c 0,0 0.73339,6.408707 0,0 -0.0113,-7.984261 -1.11408,-10.583788 -1.11408,-10.583788 0,0 0.84022,2.747552 0,0 -1.36542,-5.570416 -0.49686,-8.363354 0.0113,-9.18652 3.52793,-4.827693 7.23028,-3.811116 7.23028,-3.811116 0,0 -0.93613,-0.132896 0,0 -3.52793,5.384735 -1.81369,8.569628 -1.00532,10.420636 0.74273,5.199054 -0.29445,13.532149 -0.29445,13.532149 0,0 -1.48544,9.284026 0,0 1.48545,-9.284025 0.22333,-10.764002 0.66581,-13.794741 1.4272,-4.212403 5.22319,-5.729704 7.536,-6.425772 -1.36348,3.899291 -0.22688,7.753528 -0.35817,10.510743 -0.2626,4.464062 -3.20162,10.452492 -3.20162,10.452492 l -7.05586,23.395744 z"
                 id="path71"
                 fill-rule="evenodd"
                 fill="#fdd502" /><g
                 id="g77"
                 fill="none"><path
                   d="m 256.61792,70.531119 c -3.80759,0.853423 -4.59536,6.236556 -4.59536,6.236556 0,0 0.13129,4.135823 1.24732,8.205997 0.26259,3.282399 -0.2626,12.473115 -0.2626,12.473115 l 0.26259,19.563093"
                   id="path73" /><path
                   d="m 263.37966,74.404348 c 0,0 -3.28239,3.807582 -3.61063,5.054895 -0.78778,3.479342 -0.65649,5.251837 -0.32825,8.534235 -0.72213,4.464063 -2.29768,9.912844 -2.29768,9.912844 l -3.74193,16.937168"
                   id="path75" /></g></g><g
               transform="rotate(-45,232.1752,83.842865)"
               id="g89"><path
                 d="m 253.08253,118.57493 -2.41385,-24.509827 c 0,0 0.73339,6.408707 0,0 -0.0113,-7.984261 -1.11408,-10.583788 -1.11408,-10.583788 0,0 0.84022,2.747552 0,0 -1.36542,-5.570416 -0.49686,-8.363354 0.0113,-9.18652 3.52793,-4.827693 7.23028,-3.811116 7.23028,-3.811116 0,0 -0.93613,-0.132896 0,0 -3.52793,5.384735 -1.81369,8.569628 -1.00532,10.420636 0.74273,5.199054 -0.29445,13.532149 -0.29445,13.532149 0,0 -1.48544,9.284026 0,0 1.48545,-9.284025 0.22333,-10.764002 0.66581,-13.794741 1.4272,-4.212403 5.22319,-5.729704 7.536,-6.425772 -1.36348,3.899291 -0.22688,7.753528 -0.35817,10.510743 -0.2626,4.464062 -3.20162,10.452492 -3.20162,10.452492 l -7.05586,23.395744 z"
                 id="path81"
                 fill-rule="evenodd"
                 fill="#fdd502" /><g
                 id="g87"
                 fill="none"><path
                   d="m 256.61792,70.531119 c -3.80759,0.853423 -4.59536,6.236556 -4.59536,6.236556 0,0 0.13129,4.135823 1.24732,8.205997 0.26259,3.282399 -0.2626,12.473115 -0.2626,12.473115 l 0.26259,19.563093"
                   id="path83" /><path
                   d="m 263.37966,74.404348 c 0,0 -3.28239,3.807582 -3.61063,5.054895 -0.78778,3.479342 -0.65649,5.251837 -0.32825,8.534235 -0.72213,4.464063 -2.29768,9.912844 -2.29768,9.912844 l -3.74193,16.937168"
                   id="path85" /></g></g><g
               transform="matrix(0.382684,-0.92388,0.92388,0.382684,64.8742,282.511)"
               id="g99"><path
                 d="m 253.08253,118.57493 -2.41385,-24.509827 c 0,0 0.73339,6.408707 0,0 -0.0113,-7.984261 -1.11408,-10.583788 -1.11408,-10.583788 0,0 0.84022,2.747552 0,0 -1.36542,-5.570416 -0.49686,-8.363354 0.0113,-9.18652 3.52793,-4.827693 7.23028,-3.811116 7.23028,-3.811116 0,0 -0.93613,-0.132896 0,0 -3.52793,5.384735 -1.81369,8.569628 -1.00532,10.420636 0.74273,5.199054 -0.29445,13.532149 -0.29445,13.532149 0,0 -1.48544,9.284026 0,0 1.48545,-9.284025 0.22333,-10.764002 0.66581,-13.794741 1.4272,-4.212403 5.22319,-5.729704 7.536,-6.425772 -1.36348,3.899291 -0.22688,7.753528 -0.35817,10.510743 -0.2626,4.464062 -3.20162,10.452492 -3.20162,10.452492 l -7.05586,23.395744 z"
                 id="path91"
                 fill-rule="evenodd"
                 fill="#fdd502" /><g
                 id="g97"
                 fill="none"><path
                   d="m 256.61792,70.531119 c -3.80759,0.853423 -4.59536,6.236556 -4.59536,6.236556 0,0 0.13129,4.135823 1.24732,8.205997 0.26259,3.282399 -0.2626,12.473115 -0.2626,12.473115 l 0.26259,19.563093"
                   id="path93" /><path
                   d="m 263.37966,74.404348 c 0,0 -3.28239,3.807582 -3.61063,5.054895 -0.78778,3.479342 -0.65649,5.251837 -0.32825,8.534235 -0.72213,4.464063 -2.29768,9.912844 -2.29768,9.912844 l -3.74193,16.937168"
                   id="path95" /></g></g></g></g><g
           transform="matrix(-3.951714,0,0,-3.9617324,1269.3948,569.05351)"
           id="g189"
           stroke-width="0.505466"
           stroke="#806600"><g
             id="g145"><g
               transform="translate(18.90662,-24.94623)"
               id="g113"><path
                 d="m 253.08253,118.57493 -2.41385,-24.509827 c 0,0 0.73339,6.408707 0,0 -0.0113,-7.984261 -1.11408,-10.583788 -1.11408,-10.583788 0,0 0.84022,2.747552 0,0 -1.36542,-5.570416 -0.49686,-8.363354 0.0113,-9.18652 3.52793,-4.827693 7.23028,-3.811116 7.23028,-3.811116 0,0 -0.93613,-0.132896 0,0 -3.52793,5.384735 -1.81369,8.569628 -1.00532,10.420636 0.74273,5.199054 -0.29445,13.532149 -0.29445,13.532149 0,0 -1.48544,9.284026 0,0 1.48545,-9.284025 0.22333,-10.764002 0.66581,-13.794741 1.4272,-4.212403 5.22319,-5.729704 7.536,-6.425772 -1.36348,3.899291 -0.22688,7.753528 -0.35817,10.510743 -0.2626,4.464062 -3.20162,10.452492 -3.20162,10.452492 l -7.05586,23.395744 z"
                 id="path105"
                 fill-rule="evenodd"
                 fill="#fdd502" /><g
                 id="g111"
                 fill="none"><path
                   d="m 256.61792,70.531119 c -3.80759,0.853423 -4.59536,6.236556 -4.59536,6.236556 0,0 0.13129,4.135823 1.24732,8.205997 0.26259,3.282399 -0.2626,12.473115 -0.2626,12.473115 l 0.26259,19.563093"
                   id="path107" /><path
                   d="m 263.37966,74.404348 c 0,0 -3.28239,3.807582 -3.61063,5.054895 -0.78778,3.479342 -0.65649,5.251837 -0.32825,8.534235 -0.72213,4.464063 -2.29768,9.912844 -2.29768,9.912844 l -3.74193,16.937168"
                   id="path109" /></g></g><g
               transform="rotate(-22.499967,199.27355,59.398836)"
               id="g123"><path
                 d="m 253.08253,118.57493 -2.41385,-24.509827 c 0,0 0.73339,6.408707 0,0 -0.0113,-7.984261 -1.11408,-10.583788 -1.11408,-10.583788 0,0 0.84022,2.747552 0,0 -1.36542,-5.570416 -0.49686,-8.363354 0.0113,-9.18652 3.52793,-4.827693 7.23028,-3.811116 7.23028,-3.811116 0,0 -0.93613,-0.132896 0,0 -3.52793,5.384735 -1.81369,8.569628 -1.00532,10.420636 0.74273,5.199054 -0.29445,13.532149 -0.29445,13.532149 0,0 -1.48544,9.284026 0,0 1.48545,-9.284025 0.22333,-10.764002 0.66581,-13.794741 1.4272,-4.212403 5.22319,-5.729704 7.536,-6.425772 -1.36348,3.899291 -0.22688,7.753528 -0.35817,10.510743 -0.2626,4.464062 -3.20162,10.452492 -3.20162,10.452492 l -7.05586,23.395744 z"
                 id="path115"
                 fill-rule="evenodd"
                 fill="#fdd502" /><g
                 id="g121"
                 fill="none"><path
                   d="m 256.61792,70.531119 c -3.80759,0.853423 -4.59536,6.236556 -4.59536,6.236556 0,0 0.13129,4.135823 1.24732,8.205997 0.26259,3.282399 -0.2626,12.473115 -0.2626,12.473115 l 0.26259,19.563093"
                   id="path117" /><path
                   d="m 263.37966,74.404348 c 0,0 -3.28239,3.807582 -3.61063,5.054895 -0.78778,3.479342 -0.65649,5.251837 -0.32825,8.534235 -0.72213,4.464063 -2.29768,9.912844 -2.29768,9.912844 l -3.74193,16.937168"
                   id="path119" /></g></g><g
               transform="rotate(-45,232.1752,83.842865)"
               id="g133"><path
                 d="m 253.08253,118.57493 -2.41385,-24.509827 c 0,0 0.73339,6.408707 0,0 -0.0113,-7.984261 -1.11408,-10.583788 -1.11408,-10.583788 0,0 0.84022,2.747552 0,0 -1.36542,-5.570416 -0.49686,-8.363354 0.0113,-9.18652 3.52793,-4.827693 7.23028,-3.811116 7.23028,-3.811116 0,0 -0.93613,-0.132896 0,0 -3.52793,5.384735 -1.81369,8.569628 -1.00532,10.420636 0.74273,5.199054 -0.29445,13.532149 -0.29445,13.532149 0,0 -1.48544,9.284026 0,0 1.48545,-9.284025 0.22333,-10.764002 0.66581,-13.794741 1.4272,-4.212403 5.22319,-5.729704 7.536,-6.425772 -1.36348,3.899291 -0.22688,7.753528 -0.35817,10.510743 -0.2626,4.464062 -3.20162,10.452492 -3.20162,10.452492 l -7.05586,23.395744 z"
                 id="path125"
                 fill-rule="evenodd"
                 fill="#fdd502" /><g
                 id="g131"
                 fill="none"><path
                   d="m 256.61792,70.531119 c -3.80759,0.853423 -4.59536,6.236556 -4.59536,6.236556 0,0 0.13129,4.135823 1.24732,8.205997 0.26259,3.282399 -0.2626,12.473115 -0.2626,12.473115 l 0.26259,19.563093"
                   id="path127" /><path
                   d="m 263.37966,74.404348 c 0,0 -3.28239,3.807582 -3.61063,5.054895 -0.78778,3.479342 -0.65649,5.251837 -0.32825,8.534235 -0.72213,4.464063 -2.29768,9.912844 -2.29768,9.912844 l -3.74193,16.937168"
                   id="path129" /></g></g><g
               transform="matrix(0.382684,-0.92388,0.92388,0.382684,64.8742,282.511)"
               id="g143"><path
                 d="m 253.08253,118.57493 -2.41385,-24.509827 c 0,0 0.73339,6.408707 0,0 -0.0113,-7.984261 -1.11408,-10.583788 -1.11408,-10.583788 0,0 0.84022,2.747552 0,0 -1.36542,-5.570416 -0.49686,-8.363354 0.0113,-9.18652 3.52793,-4.827693 7.23028,-3.811116 7.23028,-3.811116 0,0 -0.93613,-0.132896 0,0 -3.52793,5.384735 -1.81369,8.569628 -1.00532,10.420636 0.74273,5.199054 -0.29445,13.532149 -0.29445,13.532149 0,0 -1.48544,9.284026 0,0 1.48545,-9.284025 0.22333,-10.764002 0.66581,-13.794741 1.4272,-4.212403 5.22319,-5.729704 7.536,-6.425772 -1.36348,3.899291 -0.22688,7.753528 -0.35817,10.510743 -0.2626,4.464062 -3.20162,10.452492 -3.20162,10.452492 l -7.05586,23.395744 z"
                 id="path135"
                 fill-rule="evenodd"
                 fill="#fdd502" /><g
                 id="g141"
                 fill="none"><path
                   d="m 256.61792,70.531119 c -3.80759,0.853423 -4.59536,6.236556 -4.59536,6.236556 0,0 0.13129,4.135823 1.24732,8.205997 0.26259,3.282399 -0.2626,12.473115 -0.2626,12.473115 l 0.26259,19.563093"
                   id="path137" /><path
                   d="m 263.37966,74.404348 c 0,0 -3.28239,3.807582 -3.61063,5.054895 -0.78778,3.479342 -0.65649,5.251837 -0.32825,8.534235 -0.72213,4.464063 -2.29768,9.912844 -2.29768,9.912844 l -3.74193,16.937168"
                   id="path139" /></g></g></g><g
             transform="rotate(-90,271.85555,94.51565)"
             id="g187"><g
               transform="translate(18.90662,-24.94623)"
               id="g155"><path
                 d="m 253.08253,118.57493 -2.41385,-24.509827 c 0,0 0.73339,6.408707 0,0 -0.0113,-7.984261 -1.11408,-10.583788 -1.11408,-10.583788 0,0 0.84022,2.747552 0,0 -1.36542,-5.570416 -0.49686,-8.363354 0.0113,-9.18652 3.52793,-4.827693 7.23028,-3.811116 7.23028,-3.811116 0,0 -0.93613,-0.132896 0,0 -3.52793,5.384735 -1.81369,8.569628 -1.00532,10.420636 0.74273,5.199054 -0.29445,13.532149 -0.29445,13.532149 0,0 -1.48544,9.284026 0,0 1.48545,-9.284025 0.22333,-10.764002 0.66581,-13.794741 1.4272,-4.212403 5.22319,-5.729704 7.536,-6.425772 -1.36348,3.899291 -0.22688,7.753528 -0.35817,10.510743 -0.2626,4.464062 -3.20162,10.452492 -3.20162,10.452492 l -7.05586,23.395744 z"
                 id="path147"
                 fill-rule="evenodd"
                 fill="#fdd502" /><g
                 id="g153"
                 fill="none"><path
                   d="m 256.61792,70.531119 c -3.80759,0.853423 -4.59536,6.236556 -4.59536,6.236556 0,0 0.13129,4.135823 1.24732,8.205997 0.26259,3.282399 -0.2626,12.473115 -0.2626,12.473115 l 0.26259,19.563093"
                   id="path149" /><path
                   d="m 263.37966,74.404348 c 0,0 -3.28239,3.807582 -3.61063,5.054895 -0.78778,3.479342 -0.65649,5.251837 -0.32825,8.534235 -0.72213,4.464063 -2.29768,9.912844 -2.29768,9.912844 l -3.74193,16.937168"
                   id="path151" /></g></g><g
               transform="rotate(-22.499967,199.27355,59.398836)"
               id="g165"><path
                 d="m 253.08253,118.57493 -2.41385,-24.509827 c 0,0 0.73339,6.408707 0,0 -0.0113,-7.984261 -1.11408,-10.583788 -1.11408,-10.583788 0,0 0.84022,2.747552 0,0 -1.36542,-5.570416 -0.49686,-8.363354 0.0113,-9.18652 3.52793,-4.827693 7.23028,-3.811116 7.23028,-3.811116 0,0 -0.93613,-0.132896 0,0 -3.52793,5.384735 -1.81369,8.569628 -1.00532,10.420636 0.74273,5.199054 -0.29445,13.532149 -0.29445,13.532149 0,0 -1.48544,9.284026 0,0 1.48545,-9.284025 0.22333,-10.764002 0.66581,-13.794741 1.4272,-4.212403 5.22319,-5.729704 7.536,-6.425772 -1.36348,3.899291 -0.22688,7.753528 -0.35817,10.510743 -0.2626,4.464062 -3.20162,10.452492 -3.20162,10.452492 l -7.05586,23.395744 z"
                 id="path157"
                 fill-rule="evenodd"
                 fill="#fdd502" /><g
                 id="g163"
                 fill="none"><path
                   d="m 256.61792,70.531119 c -3.80759,0.853423 -4.59536,6.236556 -4.59536,6.236556 0,0 0.13129,4.135823 1.24732,8.205997 0.26259,3.282399 -0.2626,12.473115 -0.2626,12.473115 l 0.26259,19.563093"
                   id="path159" /><path
                   d="m 263.37966,74.404348 c 0,0 -3.28239,3.807582 -3.61063,5.054895 -0.78778,3.479342 -0.65649,5.251837 -0.32825,8.534235 -0.72213,4.464063 -2.29768,9.912844 -2.29768,9.912844 l -3.74193,16.937168"
                   id="path161" /></g></g><g
               transform="rotate(-45,232.1752,83.842865)"
               id="g175"><path
                 d="m 253.08253,118.57493 -2.41385,-24.509827 c 0,0 0.73339,6.408707 0,0 -0.0113,-7.984261 -1.11408,-10.583788 -1.11408,-10.583788 0,0 0.84022,2.747552 0,0 -1.36542,-5.570416 -0.49686,-8.363354 0.0113,-9.18652 3.52793,-4.827693 7.23028,-3.811116 7.23028,-3.811116 0,0 -0.93613,-0.132896 0,0 -3.52793,5.384735 -1.81369,8.569628 -1.00532,10.420636 0.74273,5.199054 -0.29445,13.532149 -0.29445,13.532149 0,0 -1.48544,9.284026 0,0 1.48545,-9.284025 0.22333,-10.764002 0.66581,-13.794741 1.4272,-4.212403 5.22319,-5.729704 7.536,-6.425772 -1.36348,3.899291 -0.22688,7.753528 -0.35817,10.510743 -0.2626,4.464062 -3.20162,10.452492 -3.20162,10.452492 l -7.05586,23.395744 z"
                 id="path167"
                 fill-rule="evenodd"
                 fill="#fdd502" /><g
                 id="g173"
                 fill="none"><path
                   d="m 256.61792,70.531119 c -3.80759,0.853423 -4.59536,6.236556 -4.59536,6.236556 0,0 0.13129,4.135823 1.24732,8.205997 0.26259,3.282399 -0.2626,12.473115 -0.2626,12.473115 l 0.26259,19.563093"
                   id="path169" /><path
                   d="m 263.37966,74.404348 c 0,0 -3.28239,3.807582 -3.61063,5.054895 -0.78778,3.479342 -0.65649,5.251837 -0.32825,8.534235 -0.72213,4.464063 -2.29768,9.912844 -2.29768,9.912844 l -3.74193,16.937168"
                   id="path171" /></g></g><g
               transform="matrix(0.382684,-0.92388,0.92388,0.382684,64.8742,282.511)"
               id="g185"><path
                 d="m 253.08253,118.57493 -2.41385,-24.509827 c 0,0 0.73339,6.408707 0,0 -0.0113,-7.984261 -1.11408,-10.583788 -1.11408,-10.583788 0,0 0.84022,2.747552 0,0 -1.36542,-5.570416 -0.49686,-8.363354 0.0113,-9.18652 3.52793,-4.827693 7.23028,-3.811116 7.23028,-3.811116 0,0 -0.93613,-0.132896 0,0 -3.52793,5.384735 -1.81369,8.569628 -1.00532,10.420636 0.74273,5.199054 -0.29445,13.532149 -0.29445,13.532149 0,0 -1.48544,9.284026 0,0 1.48545,-9.284025 0.22333,-10.764002 0.66581,-13.794741 1.4272,-4.212403 5.22319,-5.729704 7.536,-6.425772 -1.36348,3.899291 -0.22688,7.753528 -0.35817,10.510743 -0.2626,4.464062 -3.20162,10.452492 -3.20162,10.452492 l -7.05586,23.395744 z"
                 id="path177"
                 fill-rule="evenodd"
                 fill="#fdd502" /><g
                 id="g183"
                 fill="none"><path
                   d="m 256.61792,70.531119 c -3.80759,0.853423 -4.59536,6.236556 -4.59536,6.236556 0,0 0.13129,4.135823 1.24732,8.205997 0.26259,3.282399 -0.2626,12.473115 -0.2626,12.473115 l 0.26259,19.563093"
                   id="path179" /><path
                   d="m 263.37966,74.404348 c 0,0 -3.28239,3.807582 -3.61063,5.054895 -0.78778,3.479342 -0.65649,5.251837 -0.32825,8.534235 -0.72213,4.464063 -2.29768,9.912844 -2.29768,9.912844 l -3.74193,16.937168"
                   id="path181" /></g></g></g></g><path
           d="m 344.27604,112.13033 a 28.84147,28.84147 0 1 1 -57.68294,0 28.84147,28.84147 0 1 1 57.68294,0 z"
           transform="matrix(3.3590026,0,0,3.3590026,-864.54553,-181.64608)"
           id="path191"
           stroke-linejoin="round"
           stroke-width="0.595411"
           stroke="#afc6e9"
           fill="#135ecb" /><path
           d="m 170.69805,284.95425 -11.91992,15.20923 14.08718,9.05314 11.55872,1.81063 0.72238,-15.57139 -2.52846,-2.89702 -0.36121,-4.7076 -11.55869,-2.897 z"
           id="path193"
           stroke-width="1.99999"
           stroke="#afc6e9"
           fill-rule="evenodd"
           fill="#135ecb" /><path
           d="m 338.81136,115.46986 a 22.769581,22.769581 0 1 1 -45.53916,0 22.769581,22.769581 0 1 1 45.53916,0 z"
           transform="matrix(-1.7314515,2.4190964,-2.4190962,-1.7314515,1021.5437,-369.60508)"
           id="path195"
           stroke-width="0.67229"
           stroke="#806600"
           fill="#fdd502" /><path
           d="m 226.91622,102.17588 10.54614,14.65226 -8.98135,-15.66618 9.0592,15.61541 -7.40255,-16.47107 7.48499,16.42817 -5.75245,-17.117327 5.83871,17.082717 -4.04697,-17.598739 4.1362,17.572759 -2.3025,-17.910674 2.39384,17.893554 -0.53585,-18.050109 0.62844,18.042029 1.23594,-18.015715 -1.14301,18.016755 2.99584,-17.807826 -2.90346,17.817966 4.72689,-17.428435 -4.63594,17.447575 6.41241,-16.881191 -6.32378,16.909161 8.03618,-16.17138 -7.95072,16.2079 9.58255,-15.30583 -9.50108,15.35055 11.03664,-14.29287 -10.95994,14.34536 12.38444,-13.14227 -12.31326,13.20202 13.61297,-11.86509 -13.54799,11.93154 14.71041,-10.47366 -14.65226,10.54615 15.66618,-8.98135 -15.61541,9.05919 16.47106,-7.40254 -16.42816,7.48499 17.11732,-5.75246 -17.08272,5.83871 17.59875,-4.04696 -17.57276,4.13619 17.91067,-2.30249 -17.89355,2.39384 18.05011,-0.53586 -18.04203,0.62845 18.01571,1.23594 -18.01675,-1.14301 17.80782,2.99584 -17.81796,-2.90346 17.42843,4.72689 -17.44757,-4.63595 16.88119,6.41241 -16.90916,-6.32378 16.17138,8.03618 -16.2079,-7.95071 15.30583,9.58255 -15.35055,-9.50108 14.29287,11.03664 -14.34536,-10.95995 13.14227,12.38445 -13.20202,-12.31327 11.86509,13.61298 -11.93154,-13.548 10.47366,14.71041 -10.54615,-14.65225 8.98135,15.66617 -9.0592,-15.6154 7.40255,16.47106 -7.48499,-16.42817 5.75245,17.11733 -5.83871,-17.08272 4.04697,17.59874 -4.1362,-17.57275 2.3025,17.91067 -2.39384,-17.89356 0.53585,18.05011 -0.62844,-18.04203 -1.23594,18.01572 1.14301,-18.01675 -2.99584,17.80782 2.90346,-17.81796 -4.72689,17.42843 4.63594,-17.44758 -6.41241,16.88119 6.32378,-16.90915 -8.03618,16.17137 7.95072,-16.20789 -9.58255,15.30582 9.50108,-15.35054 -11.03664,14.29287 10.95995,-14.34536 -12.38445,13.14226 12.31327,-13.20202 -13.61298,11.86509 13.54799,-11.93153 -14.71041,10.47365 14.65226,-10.54615 -15.66618,8.98135 15.61541,-9.05919 -16.47106,7.40255 16.42816,-7.485 -17.11732,5.75246 17.08272,-5.83871 -17.59874,4.04696 17.57275,-4.13619 -17.91067,2.3025 17.89355,-2.39385 -18.05011,0.53586 18.04204,-0.62844 -18.01572,-1.23595 18.01675,1.14302 -17.80782,-2.99584 17.81796,2.90345 -17.42843,-4.72688 17.44757,4.63594 -16.88119,-6.41241 16.90916,6.32378 -16.17138,-8.03618 16.2079,7.95072 -15.30583,-9.58256 15.35055,9.50109 -14.29287,-11.03665 14.34536,10.95995 -13.14226,-12.38444 13.20202,12.31326 -11.8651,-13.61298 11.93154,13.548 z"
           transform="matrix(3.56756,0,0,3.5675602,-654.14348,-224.52734)"
           id="path197"
           stroke-linejoin="round"
           stroke-width="0.560604"
           stroke="#806600"
           fill="#fdd502" /><path
           d="m 307.23754,130.95319 a 1.2143776,1.2143776 0 1 1 -2.42875,0 1.2143776,1.2143776 0 1 1 2.42875,0 z"
           transform="matrix(3.951714,0,0,3.9617324,-1051.3278,-248.38056)"
           id="path199"
           stroke-linejoin="round"
           stroke-width="0.505466"
           stroke="#808080"
           fill="#ececec" /><path
           d="m 307.23754,130.95319 a 1.2143776,1.2143776 0 1 1 -2.42875,0 1.2143776,1.2143776 0 1 1 2.42875,0 z"
           transform="matrix(3.951714,0,0,3.9617324,-977.22437,-248.38048)"
           id="path201"
           stroke-linejoin="round"
           stroke-width="0.505466"
           stroke="#808080"
           fill="#ececec" /><path
           d="m 180.14574,263.39166 -3.06496,11.26664 c 0,0 6.12991,18.94859 6.12991,18.94859 l 12.77067,1.02423 -3.57578,-6.65761 3.06498,6.14548 11.23821,-0.5121 2.55415,-14.33946 3.57577,-4.09699 -2.04329,-9.73033 -20.43314,-2.56057 z"
           id="path203"
           stroke-width="1.99999"
           stroke="#afc6e9"
           fill-rule="evenodd"
           fill="#135ecb" /><path
           d="m 212.84033,276.47896 12.44013,16.03314 7.20814,6.26975 -7.13631,-6.62469 15.86307,1.74885 -3.30398,16.32511 -10.21972,6.78919 -11.11241,-3.36892 -9.11679,-22.50458 1.60529,-9.14454 3.77258,-5.5233 z"
           id="path205"
           stroke-width="1.99999"
           stroke="#afc6e9"
           fill-rule="evenodd"
           fill="#135ecb" /><g
           id="g327"
           stroke="#808080"><path
             d="m 198.71875,156.40625 -0.0312,0.65625 c 0.40607,0.14814 0.67947,0.26757 0.84375,0.375 0.16428,0.10746 0.2831,0.24073 0.375,0.40625 0.0919,0.16554 0.1636,0.40011 0.1875,0.6875 0.0239,0.28742 0.0151,0.75281 -0.0312,1.375 l -0.875,11.6875 c -0.0497,0.6673 -0.1047,1.14848 -0.1875,1.46875 -0.0828,0.32026 -0.23504,0.55701 -0.4375,0.71875 -0.20247,0.16173 -0.58642,0.30361 -1.15625,0.40625 l -0.0625,0.65625 5.6875,0.4375 0.0625,-0.65625 c -0.40675,-0.13911 -0.69821,-0.28428 -0.875,-0.40625 -0.1768,-0.12198 -0.2924,-0.26813 -0.375,-0.4375 -0.0826,-0.16936 -0.13645,-0.37369 -0.15625,-0.65625 -0.0197,-0.28256 -0.0137,-0.73958 0.0312,-1.34375 l 0.40625,-5.65625 7.53125,0.5625 -0.40625,5.65625 c -0.0558,0.74845 -0.14986,1.28385 -0.25,1.59375 -0.10017,0.3099 -0.25896,0.51772 -0.46875,0.65625 -0.20982,0.13852 -0.55715,0.25445 -1.0625,0.34375 l -0.0625,0.65625 5.6875,0.4375 0.0312,-0.65625 c -0.34498,-0.11637 -0.58924,-0.2189 -0.75,-0.3125 -0.1608,-0.0936 -0.2922,-0.20659 -0.375,-0.3125 -0.0828,-0.10591 -0.1361,-0.24374 -0.1875,-0.40625 -0.0514,-0.16251 -0.0857,-0.36148 -0.0937,-0.625 -0.008,-0.26352 -0.008,-0.66449 0.0312,-1.1875 l 0.875,-11.71875 c 0.0551,-0.73941 0.1543,-1.25225 0.25,-1.5625 0.0956,-0.31022 0.22735,-0.54446 0.4375,-0.6875 0.21012,-0.14302 0.57935,-0.25505 1.09375,-0.34375 l 0.0625,-0.65625 -5.6875,-0.40625 -0.0312,0.65625 c 0.52127,0.18392 0.86231,0.36453 1.03125,0.53125 0.16892,0.16674 0.28855,0.39325 0.34375,0.6875 0.0551,0.29428 0.0272,0.80924 -0.0312,1.59375 l -0.34375,4.8125 -7.53125,-0.5625 0.375,-4.78125 c 0.0463,-0.62219 0.0845,-1.0811 0.15625,-1.375 0.0718,-0.29386 0.16646,-0.51517 0.28125,-0.65625 0.11478,-0.14104 0.28551,-0.25765 0.46875,-0.34375 0.18322,-0.0861 0.47084,-0.1803 0.875,-0.25 l 0.0312,-0.65625 -5.6875,-0.40625 z m -11.5,1.125 c -0.78193,0.0485 -1.57941,0.15917 -2.40625,0.3125 -1.57368,0.29187 -2.85294,0.92121 -3.875,1.90625 -1.02207,0.98508 -1.73686,2.23443 -2.09375,3.78125 -0.35737,1.54686 -0.35121,3.29376 0,5.1875 0.56392,3.04066 1.57589,5.19975 3,6.53125 1.4241,1.3315 3.25062,1.79217 5.5,1.375 0.81795,-0.1517 1.52507,-0.37025 2.125,-0.65625 0.5999,-0.286 1.14429,-0.66219 1.65625,-1.125 l 1.1875,0.875 0.96875,-0.46875 -0.84375,-4.625 c -0.10222,-0.55122 -0.1634,-0.97763 -0.1875,-1.28125 -0.0242,-0.3036 -0.0154,-0.59234 0.0312,-0.8125 0.0465,-0.22014 0.14676,-0.395 0.28125,-0.5625 0.13446,-0.16748 0.3247,-0.33394 0.625,-0.5 l -0.0937,-0.65625 -5.40625,1 0.125,0.65625 c 0.51207,0.0338 0.90659,0.12523 1.15625,0.28125 0.24965,0.15603 0.44332,0.41004 0.59375,0.75 0.15041,0.33998 0.28909,0.88734 0.4375,1.6875 L 190.15625,172 c 0.17642,0.95132 0.0468,1.69814 -0.375,2.25 -0.42187,0.55187 -1.16964,0.93043 -2.21875,1.125 -0.98689,0.18302 -1.86431,0.0327 -2.65625,-0.46875 -0.79196,-0.50148 -1.45977,-1.3589 -2.03125,-2.53125 -0.5715,-1.17234 -1.02057,-2.60114 -1.34375,-4.34375 -0.31824,-1.71591 -0.39822,-3.24262 -0.21875,-4.53125 0.17945,-1.2886 0.57388,-2.30492 1.1875,-3.0625 0.61363,-0.75755 1.4059,-1.2265 2.375,-1.40625 0.70237,-0.1302 1.28791,-0.13747 1.78125,-0.0312 0.49332,0.10625 0.96276,0.36204 1.375,0.75 0.41222,0.38799 0.79904,0.96311 1.1875,1.71875 l 1.34375,-0.25 -0.6875,-3.6875 c -0.97642,-0.058 -1.87434,-0.0484 -2.65625,0 z m 34.46875,1.5625 -1.53125,4.46875 1.25,0.4375 c 0.39733,-0.62842 0.78699,-1.11408 1.125,-1.5 0.33799,-0.38588 0.66271,-0.67631 0.96875,-0.84375 0.30603,-0.1674 0.58772,-0.23135 0.875,-0.21875 0.28727,0.0126 0.62927,0.0808 1.03125,0.21875 l 1.625,0.5625 -4.5,13.125 c -0.17614,0.51316 -0.36197,0.90726 -0.5,1.15625 -0.13805,0.24899 -0.27217,0.43644 -0.40625,0.5625 -0.1341,0.12606 -0.27974,0.1942 -0.4375,0.25 -0.15778,0.0558 -0.34231,0.0928 -0.5625,0.0937 -0.2202,9e-4 -0.47288,-0.003 -0.75,-0.0312 l -0.1875,0.625 5.84375,2 0.21875,-0.625 c -0.3868,-0.23793 -0.64956,-0.42788 -0.8125,-0.59375 -0.16296,-0.16588 -0.28845,-0.37879 -0.34375,-0.59375 -0.0553,-0.21496 -0.0472,-0.46282 0,-0.78125 0.0471,-0.31842 0.13929,-0.7454 0.3125,-1.25 l 4.53125,-13.125 1.625,0.5625 c 0.47038,0.16147 0.79708,0.32521 1,0.5 0.20289,0.17482 0.37105,0.39469 0.5,0.6875 0.12893,0.29284 0.2129,0.69676 0.25,1.1875 0.0371,0.49076 0.0331,1.13739 -0.0312,1.9375 l 1.25,0.4375 1.53125,-4.46875 -13.875,-4.78125 z m -50.90625,2.5625 -5.34375,2.0625 0.25,0.625 c 0.43036,-0.0403 0.74302,-0.0579 0.9375,-0.0312 0.19449,0.0266 0.3772,0.10867 0.53125,0.21875 0.15405,0.11012 0.29263,0.28189 0.4375,0.53125 0.14488,0.24939 0.33753,0.66806 0.5625,1.25 L 172.375,177.25 c 0.24127,0.62413 0.40625,1.11268 0.46875,1.4375 0.0625,0.32483 0.0198,0.61082 -0.0937,0.84375 -0.11354,0.23294 -0.40425,0.50666 -0.875,0.84375 l 0.25,0.625 5.34375,-2.0625 -0.25,-0.625 c -0.4271,0.0488 -0.75673,0.0657 -0.96875,0.0312 -0.21203,-0.0344 -0.38401,-0.13242 -0.53125,-0.25 -0.14725,-0.11757 -0.29848,-0.28446 -0.4375,-0.53125 -0.13903,-0.24678 -0.3128,-0.65366 -0.53125,-1.21875 l -4.21875,-10.9375 c -0.22497,-0.58194 -0.3763,-1.01622 -0.4375,-1.3125 -0.0612,-0.29624 -0.0745,-0.54207 -0.0312,-0.71875 0.0432,-0.17664 0.1214,-0.34362 0.25,-0.5 0.1286,-0.15633 0.38351,-0.3575 0.71875,-0.59375 l -0.25,-0.625 z m -16.34375,7.75 -4.90625,2.9375 0.34375,0.5625 c 0.41711,-0.11337 0.74134,-0.1805 0.9375,-0.1875 0.19618,-0.007 0.36064,0.0429 0.53125,0.125 0.17063,0.0821 0.34584,0.21661 0.53125,0.4375 0.18541,0.22092 0.46002,0.62139 0.78125,1.15625 l 6.03125,10.03125 c 0.34452,0.57364 0.57028,1.03443 0.6875,1.34375 0.1172,0.30933 0.1345,0.59482 0.0625,0.84375 -0.072,0.24893 -0.31263,0.55608 -0.71875,0.96875 l 0.34375,0.59375 10.46875,-6.28125 -2.59375,-4.8125 -1.15625,0.6875 c 0.26861,0.79854 0.45531,1.39695 0.5625,1.8125 0.10715,0.41557 0.1641,0.79137 0.1875,1.09375 0.0234,0.3024 0.0105,0.56103 -0.0312,0.78125 -0.0418,0.22023 -0.10873,0.41692 -0.21875,0.59375 -0.11004,0.17684 -0.26724,0.35748 -0.46875,0.53125 -0.20154,0.17377 -0.47918,0.36232 -0.8125,0.5625 L 161.96875,185 154.8125,173.125 c -0.3352,-0.55812 -0.54913,-0.99749 -0.65625,-1.28125 -0.10709,-0.28372 -0.1435,-0.50758 -0.125,-0.6875 0.0185,-0.17988 0.0571,-0.34021 0.15625,-0.5 0.0992,-0.15975 0.30854,-0.38961 0.59375,-0.6875 z m 96.5,4.53125 c -1.36591,-0.11334 -2.74746,0.21137 -4.125,0.96875 -1.37756,0.7574 -2.69128,1.91475 -3.9375,3.5 -1.01152,1.28669 -1.73469,2.51696 -2.1875,3.65625 -0.45281,1.1393 -0.6595,2.19993 -0.625,3.1875 0.0345,0.98757 0.27052,1.88749 0.75,2.71875 0.47946,0.83126 1.14694,1.57938 2,2.25 1.20848,0.95004 2.4903,1.51242 3.84375,1.65625 1.35344,0.14382 2.72763,-0.18419 4.125,-0.9375 1.39734,-0.75332 2.75478,-1.96155 4.0625,-3.625 1.22385,-1.55682 2.05368,-3.04097 2.46875,-4.46875 0.41508,-1.42777 0.39375,-2.76296 -0.0312,-4 -0.42505,-1.23703 -1.26591,-2.349 -2.53125,-3.34375 -1.18718,-0.93326 -2.44662,-1.44913 -3.8125,-1.5625 z m 1,1.59375 c 0.69322,0.0619 1.3602,0.3408 2,0.84375 0.72508,0.57003 1.19086,1.29513 1.375,2.1875 0.18411,0.89239 0.0168,1.98121 -0.46875,3.25 -0.48563,1.2688 -1.31299,2.66904 -2.53125,4.21875 -1.00035,1.27247 -2.01227,2.29103 -3.03125,3.03125 -1.019,0.74021 -2.00885,1.14945 -2.9375,1.21875 -0.92868,0.0693 -1.78766,-0.20337 -2.5625,-0.8125 -1.22272,-0.96122 -1.69542,-2.26868 -1.4375,-3.90625 0.25791,-1.63757 1.25309,-3.53635 2.96875,-5.71875 0.75443,-0.95968 1.49664,-1.7645 2.25,-2.4375 0.75334,-0.67298 1.51476,-1.18658 2.25,-1.5 0.73522,-0.3134 1.43176,-0.4369 2.125,-0.375 z m -113.59375,6.625 c -0.84869,0.56151 -1.50676,1.06214 -2,1.5 -0.49322,0.43789 -0.97671,0.8964 -1.4375,1.40625 -0.79423,0.87885 -1.34275,1.79625 -1.65625,2.75 -0.31349,0.95378 -0.36015,1.86637 -0.125,2.71875 0.23518,0.85241 0.71739,1.60221 1.46875,2.28125 0.51658,0.46685 1.11083,0.79941 1.75,0.96875 0.63918,0.1694 1.3404,0.18221 2.125,0.0625 0.78462,-0.11969 1.74528,-0.37922 2.84375,-0.8125 1.13613,-0.44797 2.0279,-0.75201 2.6875,-0.875 0.6596,-0.12297 1.21897,-0.10352 1.71875,0.0312 0.49978,0.13479 0.99685,0.42029 1.5,0.875 0.78492,0.70937 1.2197,1.46088 1.25,2.25 0.0303,0.78914 -0.32189,1.59009 -1.03125,2.375 -0.51535,0.57025 -1.00824,0.94253 -1.5,1.15625 -0.49176,0.21373 -1.01422,0.29985 -1.5625,0.21875 -0.54828,-0.0811 -1.19463,-0.31939 -1.90625,-0.71875 l -0.90625,1 2.75,2.46875 c 1.59845,-1.05395 2.89187,-2.10298 3.84375,-3.15625 0.5881,-0.65073 1.04965,-1.2977 1.40625,-1.96875 0.35659,-0.67105 0.5756,-1.33167 0.625,-2 0.0494,-0.66831 -0.0887,-1.33904 -0.375,-2 -0.28632,-0.66094 -0.76434,-1.33214 -1.46875,-1.96875 -0.63062,-0.5699 -1.31881,-0.93129 -2.03125,-1.09375 -0.71245,-0.16242 -1.45359,-0.17074 -2.25,-0.0312 -0.79642,0.13951 -1.79459,0.46683 -3,0.9375 -0.99151,0.39587 -1.79708,0.64238 -2.40625,0.75 -0.60916,0.10762 -1.14166,0.0948 -1.625,-0.0312 -0.48332,-0.12599 -0.99243,-0.41327 -1.46875,-0.84375 -0.44948,-0.4062 -0.73151,-0.84843 -0.875,-1.34375 -0.1435,-0.4953 -0.15123,-1.00898 0,-1.5 0.15124,-0.49099 0.44967,-0.93892 0.84375,-1.375 0.45472,-0.50314 0.86548,-0.8654 1.28125,-1.0625 0.41578,-0.19721 0.89658,-0.2498 1.4375,-0.1875 0.54094,0.0623 1.17644,0.27703 1.90625,0.65625 l 0.90625,-1 -2.71875,-2.4375 z m 127.53125,3.5625 -0.53125,0.40625 c 0.17243,0.42474 0.26645,0.71367 0.28125,0.90625 0.0147,0.19259 0.002,0.37563 -0.0625,0.53125 -0.064,0.15563 -0.20349,0.34562 -0.375,0.53125 -0.17154,0.18564 -0.53016,0.48221 -1.09375,0.90625 l -7.125,5.375 c -0.93212,0.7013 -1.62632,1.36542 -2.09375,2 -0.46743,0.63459 -0.76904,1.31991 -0.90625,2.0625 -0.13722,0.74259 -0.0877,1.47819 0.1875,2.25 0.27516,0.7718 0.74844,1.59444 1.40625,2.46875 0.54365,0.72256 1.10221,1.29821 1.65625,1.71875 0.55403,0.42052 1.07856,0.72893 1.625,0.90625 0.54642,0.17725 1.12147,0.24855 1.6875,0.21875 0.62566,-0.0408 1.26102,-0.19831 1.90625,-0.46875 0.67955,-0.28497 1.39989,-0.71993 2.1875,-1.3125 l 6.96875,-5.25 c 0.59248,-0.44579 1.05456,-0.71672 1.34375,-0.84375 0.28914,-0.12701 0.53428,-0.1825 0.78125,-0.125 0.24692,0.0575 0.60752,0.25621 1.03125,0.59375 l 0.53125,-0.375 L 272,193.875 l -0.53125,0.40625 c 0.21598,0.52775 0.3293,0.92293 0.3125,1.15625 -0.0168,0.23333 -0.12751,0.45212 -0.3125,0.6875 -0.18504,0.23539 -0.59014,0.58953 -1.21875,1.0625 l -6.78125,5.09375 c -0.88877,0.66868 -1.62062,1.16582 -2.21875,1.46875 -0.59816,0.30292 -1.16448,0.45345 -1.71875,0.46875 -0.55429,0.0153 -1.0661,-0.094 -1.53125,-0.34375 -0.46517,-0.24977 -0.90071,-0.61921 -1.28125,-1.125 -0.41318,-0.54916 -0.68572,-1.07304 -0.84375,-1.53125 -0.15807,-0.45821 -0.21885,-0.90923 -0.15625,-1.375 0.0626,-0.46579 0.2908,-0.96182 0.65625,-1.46875 0.36544,-0.50693 0.89285,-1.03517 1.59375,-1.5625 l 7.6875,-5.75 c 0.59249,-0.44579 1.01609,-0.74252 1.3125,-0.875 0.29637,-0.13246 0.56643,-0.15755 0.8125,-0.0937 0.24604,0.0638 0.59438,0.26523 1,0.59375 l 0.53125,-0.40625 -3.4375,-4.5625 z m -139.0625,8.375 -1.625,2.375 5.625,3.21875 0.8125,-1.1875 z m -4.71875,8.65625 -1.9375,4.46875 0.625,0.25 c 0.27298,-0.33512 0.47148,-0.54037 0.625,-0.65625 0.15355,-0.11581 0.32123,-0.19255 0.5,-0.21875 0.17879,-0.0262 0.40756,0.0121 0.6875,0.0937 0.27996,0.0817 0.70857,0.22115 1.28125,0.46875 l 2.625,1.15625 c 1.21178,0.52396 2.57298,1.06938 4.09375,1.6875 1.52077,0.61815 2.53827,1.04136 3.0625,1.21875 l -0.0625,0.15625 c -0.55809,0.0148 -1.06984,0.0519 -1.53125,0.0937 -0.46141,0.0419 -0.99782,0.104 -1.625,0.1875 l -12.9375,1.6875 -1.6875,3.90625 0.625,0.28125 c 0.27299,-0.33513 0.50093,-0.56748 0.65625,-0.6875 0.15534,-0.12001 0.3135,-0.2173 0.5,-0.25 0.18653,-0.0327 0.40812,-0.009 0.6875,0.0625 0.2794,0.0716 0.70858,0.25239 1.28125,0.5 l 10.78125,4.65625 c 0.61419,0.26556 1.03704,0.47311 1.3125,0.65625 0.27547,0.18314 0.476,0.41198 0.5625,0.65625 0.0863,0.24428 0.0897,0.64675 0,1.21875 l 0.59375,0.25 1.96875,-4.53125 -0.59375,-0.28125 c -0.26468,0.33874 -0.48309,0.59167 -0.65625,0.71875 -0.17317,0.12706 -0.37542,0.19625 -0.5625,0.21875 -0.18707,0.0226 -0.41405,-0.0198 -0.6875,-0.0937 -0.27344,-0.0739 -0.69391,-0.2283 -1.25,-0.46875 L 128.5,219.0625 c -1.65996,-0.71771 -3.31681,-1.42678 -5,-2.125 -1.68317,-0.69819 -2.86703,-1.15676 -3.53125,-1.375 l 0.0937,-0.1875 c 0.39189,-0.0177 0.77657,-0.0547 1.1875,-0.0937 0.41096,-0.039 1.09132,-0.13061 2,-0.25 l 14.625,-1.90625 0.65625,-1.5625 -13.9375,-6.03125 c -0.60588,-0.26195 -1.03717,-0.46034 -1.28125,-0.625 -0.24405,-0.16461 -0.4085,-0.31586 -0.5,-0.46875 -0.0915,-0.15284 -0.13965,-0.34179 -0.15625,-0.53125 -0.0166,-0.18941 6e-4,-0.48967 0.0625,-0.90625 l -0.625,-0.25 z m 156.8125,2.09375 -0.59375,0.25 c 0.0494,0.42936 0.0535,0.74248 0.0312,0.9375 -0.0223,0.19504 -0.0809,0.37479 -0.1875,0.53125 -0.10666,0.15647 -0.28518,0.28711 -0.53125,0.4375 -0.2461,0.15039 -0.67321,0.35588 -1.25,0.59375 l -10.84375,4.46875 c -0.6186,0.2551 -1.0829,0.4302 -1.40625,0.5 -0.32335,0.0698 -0.60834,0.0458 -0.84375,-0.0625 -0.2354,-0.10832 -0.52751,-0.38062 -0.875,-0.84375 l -0.59375,0.25 2.15625,5.28125 0.625,-0.25 c -0.0494,-0.42936 -0.0535,-0.74248 -0.0312,-0.9375 0.0223,-0.19504 0.0875,-0.38242 0.1875,-0.53125 0.10001,-0.14884 0.27852,-0.27949 0.53125,-0.4375 0.25272,-0.15802 0.67936,-0.37679 1.28125,-0.625 l 4.25,-1.75 0.5625,1.375 c 0.16891,0.40961 0.274,0.71373 0.3125,0.9375 0.0385,0.22376 0.0471,0.45778 0,0.6875 -0.0471,0.22971 -0.19323,0.50647 -0.40625,0.84375 -0.21305,0.33727 -0.56509,0.80986 -1.0625,1.40625 l -1.625,1.96875 c -0.41289,0.49304 -0.82603,1.00548 -1.21875,1.5 -0.39272,0.4945 -0.75046,0.96836 -1.0625,1.46875 l 1.4375,3.46875 0.625,-0.25 c -0.0986,-0.42885 -0.1297,-0.78239 -0.0625,-1.09375 0.0672,-0.31139 0.21635,-0.66619 0.4375,-1.03125 0.22112,-0.36508 0.56381,-0.83203 1.03125,-1.40625 l 1.59375,-1.96875 c 0.63651,-0.7809 1.07374,-1.44482 1.3125,-1.96875 0.23875,-0.52395 0.34475,-1.06015 0.34375,-1.65625 l 0.125,-0.0625 c 0.97195,1.07611 1.96845,1.76229 3.03125,2.0625 1.06277,0.30018 2.16723,0.22228 3.3125,-0.25 1.49633,-0.61709 2.40807,-1.54978 2.71875,-2.8125 0.31064,-1.26273 0.0567,-2.88763 -0.75,-4.84375 z m 0.4375,4.28125 c 0.22648,0.45434 0.50221,1.06015 0.8125,1.8125 0.38608,0.93626 0.5483,1.74076 0.5,2.40625 -0.0484,0.66549 -0.27291,1.26113 -0.6875,1.75 -0.41462,0.48886 -1.01836,0.89124 -1.8125,1.21875 -0.76073,0.31371 -1.47649,0.4519 -2.09375,0.4375 -0.61728,-0.0144 -1.14261,-0.14237 -1.59375,-0.40625 -0.45118,-0.26388 -0.80311,-0.59169 -1.09375,-1 -0.29067,-0.40833 -0.60634,-0.99148 -0.90625,-1.71875 l -0.5625,-1.40625 z m -165.5625,15.84375 -1.96875,12.53125 0.65625,0.125 c 0.18083,-0.3926 0.34826,-0.68879 0.46875,-0.84375 0.12053,-0.15494 0.26503,-0.26565 0.4375,-0.34375 0.17251,-0.0781 0.39911,-0.12464 0.6875,-0.125 0.28842,-3.6e-4 0.72743,0.0592 1.34375,0.15625 L 127,238.28125 c 0.661,0.10407 1.15633,0.23506 1.46875,0.34375 0.31243,0.10869 0.54285,0.25375 0.6875,0.46875 0.14465,0.215 0.22555,0.61119 0.28125,1.1875 l 0.65625,0.0937 1.96875,-12.40625 -4.65625,-0.96875 -0.21875,1.3125 c 0.57927,0.27429 1.01157,0.47237 1.3125,0.625 0.30093,0.15266 0.60414,0.333 0.875,0.53125 0.27086,0.19827 0.47283,0.43092 0.625,0.65625 0.15218,0.22536 0.24825,0.46562 0.28125,0.75 0.033,0.28441 0.006,0.65608 -0.0625,1.09375 l -0.65625,4.15625 -7.71875,-1.21875 0.4375,-2.875 c 0.0661,-0.41981 0.19459,-0.71461 0.34375,-0.90625 0.14918,-0.19161 0.35991,-0.32854 0.65625,-0.4375 0.29635,-0.10895 0.72562,-0.2093 1.28125,-0.25 l 0.1875,-1.25 -5.125,-0.8125 -0.21875,1.28125 c 0.55059,0.224 0.94275,0.40419 1.1875,0.59375 0.24478,0.18959 0.4235,0.41537 0.5,0.65625 0.0765,0.2409 0.0931,0.54449 0.0312,0.9375 l -0.46875,2.875 -7.03125,-1.09375 0.6875,-4.25 c 0.0549,-0.34835 0.13025,-0.63261 0.21875,-0.875 0.0885,-0.24236 0.2122,-0.43172 0.375,-0.59375 0.16283,-0.16201 0.34655,-0.32079 0.59375,-0.4375 0.24723,-0.11668 0.55326,-0.2216 0.90625,-0.3125 0.35301,-0.0909 0.75998,-0.15365 1.21875,-0.21875 l 0.21875,-1.3125 -4.0625,-0.65625 z M 278.34375,233.5 c -3.0871,0.183 -5.37738,0.908 -6.875,2.15625 -1.49762,1.24823 -2.19788,2.99752 -2.0625,5.28125 0.0492,0.83044 0.19675,1.58802 0.40625,2.21875 0.20949,0.63071 0.5104,1.21591 0.90625,1.78125 l -1,1.0625 0.34375,1.03125 4.6875,-0.28125 c 0.55964,-0.0333 1.00823,-0.045 1.3125,-0.0312 0.30425,0.0137 0.5373,0.0515 0.75,0.125 0.21269,0.0734 0.41295,0.18955 0.5625,0.34375 0.14954,0.15417 0.27866,0.4002 0.40625,0.71875 l 0.65625,-0.0312 -0.3125,-5.46875 -0.65625,0.0312 c -0.097,0.50394 -0.25177,0.86532 -0.4375,1.09375 -0.18575,0.22839 -0.45652,0.39284 -0.8125,0.5 -0.35598,0.10715 -0.93762,0.17055 -1.75,0.21875 l -0.8125,0.0625 c -0.96584,0.0573 -1.69213,-0.1693 -2.1875,-0.65625 -0.49537,-0.48697 -0.78065,-1.24738 -0.84375,-2.3125 -0.0594,-1.00196 0.21679,-1.87002 0.8125,-2.59375 0.5957,-0.72375 1.5159,-1.29686 2.75,-1.71875 1.23408,-0.42191 2.73079,-0.67638 4.5,-0.78125 1.74212,-0.10328 3.24351,0.006 4.5,0.34375 1.25646,0.33767 2.2305,0.85977 2.90625,1.5625 0.67572,0.70272 1.03545,1.54735 1.09375,2.53125 0.0423,0.7131 -0.021,1.30487 -0.1875,1.78125 -0.16653,0.47637 -0.47023,0.88899 -0.90625,1.25 -0.43606,0.361 -1.04582,0.70811 -1.84375,1 l 0.0625,1.3125 3.71875,-0.21875 c 0.17849,-0.96172 0.29495,-1.81186 0.34375,-2.59375 0.0482,-0.78192 0.0497,-1.59804 0,-2.4375 -0.0947,-1.59771 -0.55538,-2.95756 -1.40625,-4.09375 -0.85092,-1.1362 -2.04053,-1.98555 -3.53125,-2.53125 -1.49075,-0.54572 -3.1711,-0.77022 -5.09375,-0.65625 z M 112,243.46875 l -0.65625,0.0625 0.46875,5.65625 0.65625,-0.0312 c 0.0434,-0.60204 0.17787,-1.04509 0.40625,-1.3125 0.22841,-0.2674 0.61539,-0.42615 1.15625,-0.46875 0.1172,-0.01 0.23874,-0.003 0.375,0 0.1363,0.003 0.28529,0.005 0.46875,0.0312 0.1835,0.0264 0.36895,0.0546 0.5625,0.0937 0.19358,0.0392 0.38698,0.0844 0.5625,0.125 l 11.40625,3 -10.78125,4.03125 c -0.43106,0.16997 -0.80583,0.30613 -1.15625,0.40625 -0.35038,0.10016 -0.69349,0.1634 -1,0.1875 -0.33353,0.0263 -0.60565,-0.001 -0.8125,-0.0937 -0.20681,-0.0926 -0.37478,-0.22965 -0.5,-0.4375 -0.12517,-0.20783 -0.23899,-0.5285 -0.34375,-0.9375 l -0.65625,0.0625 0.5,6.09375 0.65625,-0.0312 c 0.0604,-0.3857 0.15375,-0.70732 0.3125,-0.9375 0.15878,-0.23018 0.41714,-0.44866 0.75,-0.65625 0.3329,-0.2076 0.88633,-0.47332 1.6875,-0.78125 l 14.71875,-5.71875 -0.125,-1.78125 -15.4375,-4.4375 c -0.85414,-0.25025 -1.479,-0.46516 -1.875,-0.65625 -0.39597,-0.19105 -0.68597,-0.38184 -0.875,-0.59375 -0.18899,-0.21187 -0.34951,-0.51248 -0.46875,-0.875 z m 160.84375,9.6875 c -0.78428,0.0781 -1.48175,0.32314 -2.125,0.71875 -0.64325,0.39561 -1.17383,0.96616 -1.5625,1.6875 -0.38867,0.72134 -0.66658,1.6134 -0.875,2.6875 -0.17196,0.88768 -0.2464,1.68193 -0.1875,2.375 0.0589,0.69305 0.20306,1.28802 0.4375,1.8125 0.23443,0.52445 0.56744,0.97473 0.96875,1.375 0.4494,0.43721 0.99196,0.82714 1.625,1.125 0.66682,0.3136 1.46993,0.56223 2.4375,0.75 l 8.5625,1.65625 c 0.72789,0.14123 1.2432,0.27665 1.53125,0.40625 0.28802,0.12956 0.50224,0.30938 0.625,0.53125 0.12274,0.22184 0.18545,0.58429 0.21875,1.125 l 0.65625,0.15625 1.03125,-5.3125 -0.65625,-0.15625 c -0.24712,0.51391 -0.47177,0.85617 -0.65625,1 -0.18451,0.1438 -0.42007,0.2297 -0.71875,0.25 -0.29872,0.0203 -0.82148,-0.0377 -1.59375,-0.1875 l -8.3125,-1.625 c -1.09185,-0.21188 -1.96814,-0.44637 -2.59375,-0.6875 -0.62562,-0.24116 -1.11731,-0.5675 -1.5,-0.96875 -0.38269,-0.40126 -0.65506,-0.83108 -0.78125,-1.34375 -0.12576,-0.51268 -0.12057,-1.09738 0,-1.71875 0.13092,-0.67465 0.32819,-1.23196 0.5625,-1.65625 0.23432,-0.4243 0.51851,-0.76569 0.90625,-1.03125 0.38773,-0.26558 0.91006,-0.4317 1.53125,-0.5 0.62118,-0.0683 1.3577,-0.0108 2.21875,0.15625 l 9.4375,1.84375 c 0.72789,0.14124 1.23432,0.27493 1.53125,0.40625 0.29689,0.13129 0.50753,0.30581 0.625,0.53125 0.11743,0.22543 0.19095,0.60377 0.21875,1.125 l 0.65625,0.125 1.0625,-5.59375 -0.65625,-0.125 c -0.19982,0.41256 -0.36693,0.67252 -0.5,0.8125 -0.13311,0.13997 -0.27912,0.2557 -0.4375,0.3125 -0.15841,0.0568 -0.34104,0.0655 -0.59375,0.0625 -0.25274,-0.003 -0.74512,-0.0531 -1.4375,-0.1875 l -8.75,-1.71875 c -1.14511,-0.22217 -2.12197,-0.29685 -2.90625,-0.21875 z m -141.65625,5.96875 -0.625,0.21875 c 0.0342,0.41751 -0.002,0.77373 -0.125,1.0625 -0.12301,0.2888 -0.35738,0.56788 -0.65625,0.84375 -0.29886,0.2759 -0.74317,0.6337 -1.34375,1.0625 l -12.875,9.15625 0.65625,2.03125 16.03125,0.625 c 1.00367,0.0374 1.80723,0.14777 2.40625,0.34375 0.59903,0.19598 1.01275,0.51405 1.25,0.96875 l 0.65625,-0.21875 -1.84375,-5.5 -0.625,0.21875 c 0.10285,0.5662 0.0593,1.03332 -0.0937,1.375 -0.15304,0.34168 -0.48527,0.57853 -1,0.75 -0.26595,0.0886 -0.55738,0.17875 -0.90625,0.21875 -0.34885,0.0396 -0.8846,0.0428 -1.59375,0.0312 l -1.40625,-0.0312 -2,-6 1.5,-1.03125 c 0.37751,-0.26872 0.74651,-0.47472 1.0625,-0.65625 0.31601,-0.1815 0.61458,-0.30905 0.90625,-0.40625 0.30885,-0.1029 0.56251,-0.13525 0.78125,-0.0937 0.21875,0.0415 0.42079,0.13662 0.59375,0.3125 0.17297,0.1759 0.36507,0.47465 0.59375,0.875 l 0.625,-0.21875 -1.96875,-5.9375 z m -5.125,7.8125 1.8125,5.375 -9.28125,-0.15625 z m 139.65625,1.65625 -2.15625,5.3125 0.59375,0.25 c 0.25735,-0.34434 0.48586,-0.58798 0.65625,-0.71875 0.1704,-0.13077 0.3447,-0.19215 0.53125,-0.21875 0.18655,-0.0265 0.41253,-0.005 0.6875,0.0625 0.27496,0.068 0.68888,0.20905 1.25,0.4375 l 10.875,4.40625 c 0.57786,0.23525 0.99237,0.43516 1.25,0.59375 0.25761,0.15857 0.43225,0.31617 0.53125,0.46875 0.0989,0.15256 0.1619,0.33042 0.1875,0.53125 0.0256,0.20081 0.0267,0.50023 -0.0312,0.90625 l 0.59375,0.25 2.15625,-5.28125 -0.59375,-0.25 c -0.26573,0.34091 -0.4723,0.56417 -0.625,0.6875 -0.15274,0.12331 -0.34549,0.2133 -0.53125,0.25 -0.18579,0.0367 -0.40665,0.003 -0.6875,-0.0625 -0.28087,-0.0655 -0.70339,-0.20225 -1.28125,-0.4375 l -10.875,-4.4375 c -0.61975,-0.25231 -1.06442,-0.44782 -1.34375,-0.625 -0.27934,-0.17719 -0.4708,-0.41389 -0.5625,-0.65625 -0.0917,-0.24237 -0.10865,-0.64495 -0.0312,-1.21875 l -0.59375,-0.25 z M 137.625,276.875 l -4.15625,2.3125 0.71875,1.125 c 0.6169,-0.17387 1.07911,-0.2923 1.40625,-0.375 0.32715,-0.0827 0.66555,-0.12775 1,-0.15625 0.33446,-0.0285 0.64348,-0.007 0.90625,0.0625 0.26279,0.0699 0.47574,0.18233 0.6875,0.375 0.21178,0.19268 0.45186,0.49979 0.6875,0.875 l 2.25,3.5625 -6.625,4.15625 -1.5625,-2.46875 c -0.22602,-0.3599 -0.33025,-0.66378 -0.34375,-0.90625 -0.0135,-0.24247 0.0357,-0.47313 0.1875,-0.75 0.15181,-0.27685 0.42039,-0.63549 0.8125,-1.03125 l -0.65625,-1.0625 -4.40625,2.75 0.65625,1.09375 c 0.56223,-0.19292 1.00344,-0.2946 1.3125,-0.3125 0.30909,-0.0179 0.56532,0.0249 0.78125,0.15625 0.21596,0.13133 0.44466,0.38183 0.65625,0.71875 l 1.53125,2.4375 -6,3.78125 -2.28125,-3.625 c -0.18754,-0.29865 -0.3449,-0.57164 -0.4375,-0.8125 -0.0925,-0.24086 -0.10995,-0.45839 -0.0937,-0.6875 0.0163,-0.22912 0.0778,-0.46834 0.1875,-0.71875 0.1097,-0.2504 0.26238,-0.54329 0.46875,-0.84375 0.2064,-0.30045 0.44694,-0.61824 0.75,-0.96875 l -0.6875,-1.125 -3.46875,2.1875 6.71875,10.71875 L 129.1875,297 c -0.12166,-0.41477 -0.1765,-0.71027 -0.1875,-0.90625 -0.011,-0.19599 0.0151,-0.39029 0.0937,-0.5625 0.0787,-0.17223 0.22035,-0.34148 0.4375,-0.53125 0.21719,-0.18978 0.59664,-0.44942 1.125,-0.78125 l 9.9375,-6.25 c 0.56666,-0.35588 1.00557,-0.59539 1.3125,-0.71875 0.30693,-0.1234 0.59344,-0.16075 0.84375,-0.0937 0.25032,0.067 0.57932,0.32093 1,0.71875 l 0.5625,-0.375 -6.6875,-10.625 z m 124.78125,0.15625 -2.6875,4.09375 c -0.83083,1.26097 -1.43838,2.30904 -1.8125,3.15625 -0.37412,0.8472 -0.6064,1.68832 -0.6875,2.46875 -0.0927,0.94598 -0.005,1.82613 0.25,2.6875 0.28877,0.99157 0.81502,1.97623 1.59375,2.90625 0.77874,0.92998 1.81767,1.81545 3.09375,2.65625 1.26098,0.83082 2.44865,1.36632 3.5625,1.65625 1.11384,0.28992 2.1942,0.34871 3.21875,0.125 1.02454,-0.22376 1.99339,-0.70287 2.90625,-1.40625 0.91285,-0.70343 1.84095,-1.76042 2.78125,-3.1875 l 3.25,-4.96875 -0.5625,-0.375 c -0.33201,0.2902 -0.5762,0.50255 -0.75,0.59375 -0.17382,0.0912 -0.34569,0.123 -0.53125,0.125 -0.18559,0.002 -0.42479,-0.0686 -0.6875,-0.1875 -0.26274,-0.11897 -0.65896,-0.33926 -1.1875,-0.6875 l -9.78125,-6.46875 c -0.52101,-0.34329 -0.90825,-0.5843 -1.125,-0.78125 -0.21674,-0.19696 -0.3639,-0.39487 -0.4375,-0.5625 -0.0736,-0.16764 -0.0789,-0.35676 -0.0625,-0.5625 0.0164,-0.20575 0.0805,-0.49922 0.21875,-0.90625 z m -1.21875,4.15625 13.375,8.8125 c -0.27329,0.48049 -0.56796,0.98653 -0.90625,1.5 -0.73632,1.1175 -1.61086,1.90058 -2.59375,2.40625 -0.98289,0.5056 -2.09859,0.67625 -3.375,0.46875 -1.27642,-0.20754 -2.68594,-0.83383 -4.21875,-1.84375 -0.76263,-0.5025 -1.42037,-1.014 -2,-1.53125 -0.57962,-0.51728 -1.07829,-1.04413 -1.46875,-1.59375 -0.39045,-0.54965 -0.68495,-1.12791 -0.875,-1.71875 -0.19006,-0.59086 -0.26085,-1.16176 -0.21875,-1.71875 0.0421,-0.557 0.18362,-1.11951 0.40625,-1.6875 0.22265,-0.56801 0.55085,-1.14699 0.96875,-1.78125 0.38806,-0.58897 0.67705,-1.03038 0.90625,-1.3125 z m -114.875,9.0625 -0.4375,0.46875 c 0.19421,0.30796 0.3093,0.54471 0.375,0.71875 0.0657,0.17406 0.0967,0.33436 0.0937,0.46875 -0.003,0.13441 -0.031,0.27903 -0.0937,0.4375 -0.0627,0.15849 -0.18333,0.35329 -0.34375,0.5625 -0.16039,0.20922 -0.421,0.49384 -0.78125,0.875 l -8.03125,8.53125 c -0.50928,0.53889 -0.91751,0.91343 -1.1875,1.09375 -0.26993,0.18033 -0.52795,0.24035 -0.78125,0.21875 -0.25324,-0.0216 -0.6075,-0.15044 -1.0625,-0.40625 l -0.46875,0.46875 4.15625,3.90625 0.4375,-0.46875 c -0.28834,-0.47161 -0.44285,-0.82657 -0.46875,-1.0625 -0.0258,-0.23595 0.0446,-0.48691 0.1875,-0.75 0.14291,-0.2631 0.49091,-0.67825 1.03125,-1.25 l 3.28125,-3.5 5.46875,5.1875 -3.28125,3.5 c -0.42854,0.45345 -0.75888,0.75478 -1,0.9375 -0.2411,0.1827 -0.44693,0.30675 -0.625,0.34375 -0.17805,0.037 -0.36601,0.0176 -0.5625,-0.0312 -0.19645,-0.0488 -0.48625,-0.17401 -0.84375,-0.375 l -0.46875,0.5 4.15625,3.90625 0.46875,-0.46875 c -0.22155,-0.37116 -0.3778,-0.65674 -0.4375,-0.84375 -0.0596,-0.18702 -0.0643,-0.37607 -0.0312,-0.5625 0.0331,-0.18644 0.11848,-0.38694 0.28125,-0.625 0.16281,-0.23807 0.4777,-0.60905 0.90625,-1.0625 l 8.0625,-8.5 c 0.45962,-0.48632 0.82744,-0.83504 1.09375,-1.03125 0.26632,-0.1962 0.52213,-0.28325 0.78125,-0.28125 0.25912,0.002 0.64943,0.12631 1.15625,0.40625 l 0.4375,-0.46875 -4.15625,-3.9375 -0.4375,0.5 c 0.22777,0.36458 0.3773,0.63757 0.4375,0.84375 0.0602,0.20619 0.0428,0.41025 0,0.59375 -0.0428,0.18352 -0.11828,0.39333 -0.28125,0.625 -0.16296,0.23168 -0.45886,0.55969 -0.875,1 l -3.90625,4.125 -5.5,-5.1875 3.90625,-4.125 c 0.51553,-0.54546 0.91426,-0.91652 1.1875,-1.09375 0.27326,-0.17724 0.53109,-0.24365 0.78125,-0.21875 0.25018,0.0249 0.61411,0.15666 1.0625,0.40625 l 0.46875,-0.46875 -4.15625,-3.90625 z m 105.5,1.875 -9.25,8.5 3.03125,3.65625 1,-0.90625 c -0.28271,-0.57522 -0.48445,-1.00574 -0.625,-1.3125 -0.14054,-0.30677 -0.25515,-0.61376 -0.34375,-0.9375 -0.0886,-0.32377 -0.1461,-0.63517 -0.125,-0.90625 0.0211,-0.2711 0.13012,-0.50685 0.28125,-0.75 0.15114,-0.24317 0.39242,-0.54405 0.71875,-0.84375 l 3.09375,-2.84375 5.28125,5.78125 -2.125,1.9375 c -0.31302,0.28746 -0.57648,0.47405 -0.8125,0.53125 -0.23602,0.0571 -0.51273,0.0366 -0.8125,-0.0625 -0.29977,-0.0992 -0.69602,-0.31105 -1.15625,-0.625 l -0.9375,0.875 3.53125,3.8125 0.9375,-0.84375 c -0.29155,-0.518 -0.45765,-0.91805 -0.53125,-1.21875 -0.0736,-0.30073 -0.09,-0.57635 0,-0.8125 0.09,-0.23617 0.30071,-0.48089 0.59375,-0.75 l 2.125,-1.96875 4.8125,5.21875 -3.15625,2.90625 c -0.25974,0.23852 -0.49863,0.42784 -0.71875,0.5625 -0.22012,0.13461 -0.42798,0.2245 -0.65625,0.25 -0.22828,0.0255 -0.48387,0 -0.75,-0.0625 -0.26613,-0.0625 -0.57339,-0.16396 -0.90625,-0.3125 -0.33287,-0.14857 -0.69415,-0.35918 -1.09375,-0.59375 l -0.96875,0.90625 2.75,3.03125 9.34375,-8.59375 -0.4375,-0.5 c -0.38588,0.19476 -0.68425,0.3287 -0.875,0.375 -0.19077,0.0463 -0.37888,0.0462 -0.5625,0 -0.18363,-0.0462 -0.39904,-0.16456 -0.625,-0.34375 -0.22598,-0.17922 -0.54672,-0.47798 -0.96875,-0.9375 l -7.9375,-8.65625 c -0.45262,-0.49284 -0.7606,-0.87674 -0.9375,-1.15625 -0.17688,-0.27952 -0.23935,-0.55418 -0.21875,-0.8125 0.0206,-0.25831 0.18495,-0.63923 0.5,-1.125 z"
             transform="matrix(1.0352716,0,0,1.0427223,-12.080444,-60.93589)"
             id="path207"
             stroke-width="0.962473"
             fill="#ececec" /><path
             d="m 194.99999,127.25785 -23.58227,36.99182 -39.3038,11.09754 27.51265,33.29264 -3.9304,44.39017 39.30382,-14.79673 39.30382,14.79673 -3.93039,-44.39017 27.51266,-33.29265 -39.30383,-11.09754 z"
             id="path209"
             stroke-width="1.99999"
             fill="#ececec" /><path
             d="m -230.21458,192.36389 -39.69591,-0.0909 -12.18029,-37.78113 32.16808,-23.25916 32.06125,23.40619 z"
             transform="matrix(0.59712934,0,0,0.65916705,344.26708,87.377646)"
             id="path211"
             stroke-width="3.18783"
             fill="#ececec" /><path
             d="m 195.06536,127.64634 -0.0168,67.35365"
             id="path213"
             stroke-width="1.99999"
             fill="none" /><path
             d="m 257.80752,175.36863 -62.92047,19.89971"
             id="path215"
             stroke-width="1.99999"
             fill="none" /><path
             d="m 132.14666,175.36863 62.92048,19.89971"
             id="path217"
             stroke-width="1.99999"
             fill="none" /><path
             d="M 234.03106,252.74689 195.05976,195.2082"
             id="path219"
             stroke-width="1.99999"
             fill="none" /><path
             d="M 156.01696,252.74689 194.98828,195.2082"
             id="path221"
             stroke-width="1.99999"
             fill="none" /><g
             transform="matrix(0.62903077,0,0,0.75414861,407.79818,209.86555)"
             id="g325"
             stroke-linejoin="round"
             stroke-width="0.549505"
             fill="#ececec"><path
               d="m 317.10434,111.67493 a 1.8215663,1.8215663 0 1 1 -3.64313,0 1.8215663,1.8215663 0 1 1 3.64313,0 z"
               transform="matrix(5.4205636,0,0,5.1515478,-2063.9729,-598.69307)"
               id="path223" /><g
               transform="matrix(5.4205636,0,0,5.1515478,-2049.2629,-605.21551)"
               id="g231"><path
                 d="m 305.56775,106.96922 a 1.9733636,1.9733636 0 1 1 -3.94672,0 1.9733636,1.9733636 0 1 1 3.94672,0 z"
                 transform="matrix(0.429766,0,0,0.429766,170.18721,62.683277)"
                 id="path225"
                 stroke-width="1.27861" /><path
                 d="m 309.05911,105.29945 a 3.035945,3.035945 0 1 1 -6.07189,0 3.035945,3.035945 0 1 1 6.07189,0 z"
                 transform="matrix(0.524473,0,0,0.524473,142.9314,53.430072)"
                 id="path227"
                 stroke-width="1.04773" /><path
                 d="m 312.24684,106.05844 a 3.94673,3.94673 0 1 1 -7.89346,0 3.94673,3.94673 0 1 1 7.89346,0 z"
                 transform="matrix(0.556038,0,0,0.556038,136.11376,49.812725)"
                 id="path229"
                 stroke-width="0.988251" /></g><g
               transform="matrix(1.3128334,4.9981759,-5.2591826,1.2476791,-156.82911,-1739.9206)"
               id="g239"><path
                 d="m 305.56775,106.96922 a 1.9733636,1.9733636 0 1 1 -3.94672,0 1.9733636,1.9733636 0 1 1 3.94672,0 z"
                 transform="matrix(0.429766,0,0,0.429766,170.96288,62.734623)"
                 id="path233"
                 stroke-width="1.27861" /><path
                 d="m 309.05911,105.29945 a 3.035945,3.035945 0 1 1 -6.07189,0 3.035945,3.035945 0 1 1 6.07189,0 z"
                 transform="matrix(0.52440435,2.82e-6,2.82e-6,0.52439378,143.56551,53.390354)"
                 id="path235"
                 stroke-width="1.04788" /><path
                 d="m 312.24684,106.05844 a 3.94673,3.94673 0 1 1 -7.89346,0 3.94673,3.94673 0 1 1 7.89346,0 z"
                 transform="matrix(0.556038,0,0,0.556038,136.55404,49.446845)"
                 id="path237"
                 stroke-width="0.98825" /></g><g
               transform="matrix(-0.52829913,5.1270213,-5.3947563,-0.50208031,398.21601,-1590.6582)"
               id="g247"><path
                 d="m 305.56775,106.96922 a 1.9733636,1.9733636 0 1 1 -3.94672,0 1.9733636,1.9733636 0 1 1 3.94672,0 z"
                 transform="matrix(0.429766,0,0,0.429766,171.30178,61.993764)"
                 id="path241"
                 stroke-width="1.27861" /><path
                 d="m 309.05911,105.29945 a 3.035945,3.035945 0 1 1 -6.07189,0 3.035945,3.035945 0 1 1 6.07189,0 z"
                 transform="matrix(0.524473,0,0,0.524473,143.83616,53.163775)"
                 id="path243"
                 stroke-width="1.04773" /><path
                 d="m 312.24684,106.05844 a 3.94673,3.94673 0 1 1 -7.89346,0 3.94673,3.94673 0 1 1 7.89346,0 z"
                 transform="matrix(0.556038,0,0,0.556038,136.77997,50.229478)"
                 id="path245"
                 stroke-width="0.988251" /></g><g
               transform="matrix(4.8398587,2.3198244,-2.4409666,4.5996624,-1616.4239,-1234.7393)"
               id="g255"><path
                 d="m 305.56775,106.96922 a 1.9733636,1.9733636 0 1 1 -3.94672,0 1.9733636,1.9733636 0 1 1 3.94672,0 z"
                 transform="matrix(0.429766,0,0,0.429766,170.93289,62.512493)"
                 id="path249"
                 stroke-width="1.27861" /><path
                 d="m 309.05911,105.29945 a 3.035945,3.035945 0 1 1 -6.07189,0 3.035945,3.035945 0 1 1 6.07189,0 z"
                 transform="matrix(0.524473,0,0,0.524473,143.60327,53.49794)"
                 id="path251"
                 stroke-width="1.04773" /><path
                 d="m 312.24684,106.05844 a 3.94673,3.94673 0 1 1 -7.89346,0 3.94673,3.94673 0 1 1 7.89346,0 z"
                 transform="matrix(0.556038,0,0,0.556038,136.72141,49.790211)"
                 id="path253"
                 stroke-width="0.98825" /></g><g
               transform="matrix(3.5686552,-3.8776061,4.0800962,3.3915473,-1895.4676,850.86328)"
               id="g263"><path
                 d="m 305.56775,106.96922 a 1.9733636,1.9733636 0 1 1 -3.94672,0 1.9733636,1.9733636 0 1 1 3.94672,0 z"
                 transform="matrix(0.429766,0,0,0.429766,170.88613,61.13337)"
                 id="path257"
                 stroke-width="1.27861" /><path
                 d="m 309.05911,105.29945 a 3.035945,3.035945 0 1 1 -6.07189,0 3.035945,3.035945 0 1 1 6.07189,0 z"
                 transform="matrix(0.524473,0,0,0.524473,143.49437,52.493424)"
                 id="path259"
                 stroke-width="1.04773" /><path
                 d="m 312.24684,106.05844 a 3.94673,3.94673 0 1 1 -7.89346,0 3.94673,3.94673 0 1 1 7.89346,0 z"
                 transform="matrix(0.556038,0,0,0.556038,136.5696,49.36278)"
                 id="path261"
                 stroke-width="0.988251" /></g><g
               transform="matrix(2.108789,-4.7457243,4.9935478,2.0041324,-1568.3653,1253.9652)"
               id="g271"><path
                 d="m 305.56775,106.96922 a 1.9733636,1.9733636 0 1 1 -3.94672,0 1.9733636,1.9733636 0 1 1 3.94672,0 z"
                 transform="matrix(0.429766,0,0,0.429766,170.76914,62.069682)"
                 id="path265"
                 stroke-width="1.27861" /><path
                 d="m 309.05911,105.29945 a 3.035945,3.035945 0 1 1 -6.07189,0 3.035945,3.035945 0 1 1 6.07189,0 z"
                 transform="matrix(0.524473,0,0,0.524473,143.44524,52.727296)"
                 id="path267"
                 stroke-width="1.04773" /><path
                 d="m 312.24684,106.05844 a 3.94673,3.94673 0 1 1 -7.89346,0 3.94673,3.94673 0 1 1 7.89346,0 z"
                 transform="matrix(0.556038,0,0,0.556038,136.54169,48.910838)"
                 id="path269"
                 stroke-width="0.988251" /></g><g
               transform="matrix(-4.2513101,-3.1959687,3.3628635,-4.0403229,624.21124,1447.174)"
               id="g279"><path
                 d="m 305.56775,106.96922 a 1.9733636,1.9733636 0 1 1 -3.94672,0 1.9733636,1.9733636 0 1 1 3.94672,0 z"
                 transform="matrix(0.429766,0,0,0.429766,171.09612,62.387507)"
                 id="path273"
                 stroke-width="1.27861" /><path
                 d="m 309.05911,105.29945 a 3.035945,3.035945 0 1 1 -6.07189,0 3.035945,3.035945 0 1 1 6.07189,0 z"
                 transform="matrix(0.524473,0,0,0.524473,143.82643,52.964202)"
                 id="path275"
                 stroke-width="1.04773" /><path
                 d="m 312.24684,106.05844 a 3.94673,3.94673 0 1 1 -7.89346,0 3.94673,3.94673 0 1 1 7.89346,0 z"
                 transform="matrix(0.556038,0,0,0.556038,136.92772,49.356298)"
                 id="path277"
                 stroke-width="0.988251" /></g><g
               transform="matrix(-2.6400692,-4.499233,4.7341848,-2.5090459,2.002627,1668.4042)"
               id="g287"><path
                 d="m 305.56775,106.96922 a 1.9733636,1.9733636 0 1 1 -3.94672,0 1.9733636,1.9733636 0 1 1 3.94672,0 z"
                 transform="matrix(0.429766,0,0,0.429766,171.06363,61.973026)"
                 id="path281"
                 stroke-width="1.27861" /><path
                 d="m 309.05911,105.29945 a 3.035945,3.035945 0 1 1 -6.07189,0 3.035945,3.035945 0 1 1 6.07189,0 z"
                 transform="matrix(0.524473,0,0,0.524473,143.73885,53.054789)"
                 id="path283"
                 stroke-width="1.04773" /><path
                 d="m 312.24684,106.05844 a 3.94673,3.94673 0 1 1 -7.89346,0 3.94673,3.94673 0 1 1 7.89346,0 z"
                 transform="matrix(0.556038,0,0,0.556038,136.73334,49.943295)"
                 id="path285"
                 stroke-width="0.988251" /></g><g
               transform="matrix(-4.361792,3.0585511,-3.21827,-4.1453217,1408.569,-512.27026)"
               id="g295"><path
                 d="m 305.56775,106.96922 a 1.9733636,1.9733636 0 1 1 -3.94672,0 1.9733636,1.9733636 0 1 1 3.94672,0 z"
                 transform="matrix(0.429766,0,0,0.429766,171.1083,61.781492)"
                 id="path289"
                 stroke-width="1.27861" /><path
                 d="m 309.05911,105.29945 a 3.035945,3.035945 0 1 1 -6.07189,0 3.035945,3.035945 0 1 1 6.07189,0 z"
                 transform="matrix(0.524473,0,0,0.524473,143.78202,52.742611)"
                 id="path291"
                 stroke-width="1.04773" /><path
                 d="m 312.24684,106.05844 a 3.94673,3.94673 0 1 1 -7.89346,0 3.94673,3.94673 0 1 1 7.89346,0 z"
                 transform="matrix(0.556038,0,0,0.556038,136.83478,49.626849)"
                 id="path293"
                 stroke-width="0.988251" /></g><g
               transform="matrix(-5.3059133,1.0539036,-1.1089389,-5.0425874,1461.7523,175.2316)"
               id="g303"><path
                 d="m 305.56775,106.96922 a 1.9733636,1.9733636 0 1 1 -3.94672,0 1.9733636,1.9733636 0 1 1 3.94672,0 z"
                 transform="matrix(0.429766,0,0,0.429766,171.1162,60.829402)"
                 id="path297"
                 stroke-width="1.27861" /><path
                 d="m 309.05911,105.29945 a 3.035945,3.035945 0 1 1 -6.07189,0 3.035945,3.035945 0 1 1 6.07189,0 z"
                 transform="matrix(0.524473,0,0,0.524473,143.838,52.147114)"
                 id="path299"
                 stroke-width="1.04773" /><path
                 d="m 312.24684,106.05844 a 3.94673,3.94673 0 1 1 -7.89346,0 3.94673,3.94673 0 1 1 7.89346,0 z"
                 transform="matrix(0.556038,0,0,0.556038,136.94197,49.112404)"
                 id="path301"
                 stroke-opacity="0.941176"
                 stroke-width="0.988252" /></g><path
               d="m 312.85403,107.72821 a 1.6697692,1.6697692 0 1 1 -3.33953,0 1.6697692,1.6697692 0 1 1 3.33953,0 z"
               transform="matrix(5.4205636,0,0,5.1515478,-2046.2819,-599.87039)"
               id="path305" /><path
               d="m 312.85403,107.72821 a 1.6697692,1.6697692 0 1 1 -3.33953,0 1.6697692,1.6697692 0 1 1 3.33953,0 z"
               transform="matrix(5.4205636,0,0,5.1515478,-2003.8548,-599.87039)"
               id="path307" /><path
               d="m 312.85403,107.72821 a 1.6697692,1.6697692 0 1 1 -3.33953,0 1.6697692,1.6697692 0 1 1 3.33953,0 z"
               transform="matrix(5.4205636,0,0,5.1515478,-1993.0546,-564.95738)"
               id="path309" /><path
               d="m 312.85403,107.72821 a 1.6697692,1.6697692 0 1 1 -3.33953,0 1.6697692,1.6697692 0 1 1 3.33953,0 z"
               transform="matrix(5.4205636,0,0,5.1515478,-2024.9904,-541.61679)"
               id="path311" /><path
               d="m 312.85403,107.72821 a 1.6697692,1.6697692 0 1 1 -3.33953,0 1.6697692,1.6697692 0 1 1 3.33953,0 z"
               transform="matrix(5.4205636,0,0,5.1515478,-2057.2334,-564.95738)"
               id="path313" /><path
               d="m 317.10434,111.67493 a 1.8215663,1.8215663 0 1 1 -3.64313,0 1.8215663,1.8215663 0 1 1 3.64313,0 z"
               transform="matrix(5.4205636,0,0,5.1515478,-2047.2574,-610.55139)"
               id="path315" /><path
               d="m 317.10434,111.67493 a 1.8215663,1.8215663 0 1 1 -3.64313,0 1.8215663,1.8215663 0 1 1 3.64313,0 z"
               transform="matrix(5.4205636,0,0,5.1515478,-2058.0579,-579.92426)"
               id="path317" /><path
               d="m 317.10434,111.67493 a 1.8215663,1.8215663 0 1 1 -3.64313,0 1.8215663,1.8215663 0 1 1 3.64313,0 z"
               transform="matrix(5.4205636,0,0,5.1515478,-2036.51,-579.92426)"
               id="path319" /><path
               d="m 317.10434,111.67493 a 1.8215663,1.8215663 0 1 1 -3.64313,0 1.8215663,1.8215663 0 1 1 3.64313,0 z"
               transform="matrix(5.4205636,0,0,5.1515478,-2030.5935,-598.69307)"
               id="path321" /><path
               d="m 312.85403,107.72821 a 1.6697692,1.6697692 0 1 1 -3.33953,0 1.6697692,1.6697692 0 1 1 3.33953,0 z"
               transform="matrix(5.4205636,0,0,5.1515478,-2024.9518,-573.69658)"
               id="path323" /></g></g></g></g></g></svg>
