<?xml version="1.0" encoding="UTF-8" standalone="no"?>
<!-- Created with Inkscape (http://www.inkscape.org/) -->

<svg
   width="5.8903069mm"
   height="5.2916665mm"
   viewBox="0 0 5.8903069 5.2916665"
   version="1.1"
   id="svg1"
   inkscape:version="1.3.2 (091e20e, 2023-11-25, custom)"
   sodipodi:docname="inspectList.svg"
   xmlns:inkscape="http://www.inkscape.org/namespaces/inkscape"
   xmlns:sodipodi="http://sodipodi.sourceforge.net/DTD/sodipodi-0.dtd"
   xmlns="http://www.w3.org/2000/svg"
   xmlns:svg="http://www.w3.org/2000/svg">
  <sodipodi:namedview
     id="namedview1"
     pagecolor="#ffffff"
     bordercolor="#666666"
     borderopacity="1.0"
     inkscape:showpageshadow="2"
     inkscape:pageopacity="0.0"
     inkscape:pagecheckerboard="0"
     inkscape:deskcolor="#d1d1d1"
     inkscape:document-units="mm"
     inkscape:zoom="13.091976"
     inkscape:cx="8.134754"
     inkscape:cy="22.303739"
     inkscape:window-width="3840"
     inkscape:window-height="2081"
     inkscape:window-x="2391"
     inkscape:window-y="-9"
     inkscape:window-maximized="1"
     inkscape:current-layer="layer1"
     showgrid="false" />
  <defs
     id="defs1" />
  <g
     inkscape:label="Layer 1"
     inkscape:groupmode="layer"
     id="layer1">
    <path
       id="path1"
       style="stroke-width:0.0103353"
       d="M 0.66145833,0 C 0.29662333,0 0,0.29662333 0,0.66145833 V 4.6302083 C 0,4.9950435 0.29662333,5.2916667 0.66145833,5.2916667 H 3.3072917 c 0.3648349,0 0.6614583,-0.2966232 0.6614583,-0.6614584 V 3.6633423 C 3.8099485,3.7437263 3.643017,3.8010364 3.4726562,3.8385254 v 0.7916829 c 0,0.090951 -0.074414,0.1653646 -0.1653645,0.1653646 H 0.66145833 c -0.0909504,0 -0.16536458,-0.074414 -0.16536458,-0.1653646 V 0.66145833 c 0,-0.0909504 0.0744142,-0.16536458 0.16536458,-0.16536458 H 1.5161865 c 0.02862,-0.0324968 0.058369,-0.0645705 0.0894,-0.0956014 C 1.7751168,0.23096227 1.9675817,0.09765798 2.172994,0 Z M 3.056661,0.59789632 c -0.2611089,0 -0.5208315,0.0812142 -0.7415568,0.24391276 V 1.3229167 c 0,0.1829343 0.1477949,0.3307291 0.3307291,0.3307291 h 0.8268229 v 1.3813111 c 0.1711835,-0.061006 0.3328511,-0.1587015 0.4707723,-0.2966228 0.009,-0.009 0.016652,-0.018715 0.025322,-0.027905 V 1.5968018 c 0,-0.1756997 -0.069247,-0.3441653 -0.1932699,-0.4681885 L 3.2623332,0.61546631 c -0.068077,-0.0111889 -0.1367602,-0.01757 -0.2056722,-0.01757 z m -2.15025638,0.0521932 c -0.13526189,0 -0.25166422,0.11640154 -0.25166422,0.25166422 V 1.8867065 c 0,0.1352609 0.11639833,0.2516643 0.25166422,0.2516643 H 1.0262939 C 0.95455181,1.6242879 1.0769687,1.0879536 1.3931966,0.65008952 Z M 2.1430216,0.99477132 C 1.8440507,1.312882 1.7403575,1.742667 1.8329631,2.1383708 h 0.058394 c 0.1352704,0 0.2516642,-0.1164002 0.2516642,-0.2516643 z M 0.91053874,2.3254395 c -0.13525854,1e-7 -0.25218099,0.1164034 -0.25218099,0.2516642 v 0.9849528 c 0,0.1352607 0.11692245,0.2516642 0.25218099,0.2516642 H 2.4789185 C 2.1658364,3.7261177 1.8702095,3.5615529 1.6210897,3.317627 H 1.1544515 V 2.8215332 h 0.094051 C 1.1639463,2.6634115 1.1016847,2.4967097 1.0614339,2.3254395 Z m 0.98081866,0 c 0.061478,0.1506091 0.1534886,0.2919814 0.2764689,0.4149617 0.028985,0.028985 0.059525,0.055565 0.090434,0.081132 h 0.5885946 v 0.2692342 c 0.1646271,0.027711 0.3331016,0.021742 0.4960937,-0.017053 V 2.5771037 c 0,-0.135264 -0.1169249,-0.2516641 -0.252181,-0.2516642 z m -0.99735512,1.725476 c -0.13526251,0 -0.25166423,0.1169186 -0.25166423,0.252181 V 4.6302083 H 1.1384318 v -0.083199 h 1.6918864 v 0.083199 H 3.3264119 V 4.3030965 c 0,-0.1352624 -0.1164016,-0.252181 -0.2516642,-0.252181 z" />
    <path
       id="path2"
       style="color:#000000;fill:#000000;stroke-linecap:round;-inkscape-stroke:none;paint-order:stroke markers fill"
       d="m 1.745747,0.54159859 c -0.7221309,0.72213161 -0.7221319,1.89930251 0,2.62143391 0.6740978,0.6740979 1.7444232,0.7185253 2.4712514,0.1341045 l 1.3322759,1.332276 c 0.078506,0.077691 0.2051266,0.077037 0.2828254,-0.00146 0.077467,-0.077875 0.07763,-0.2036532 3.654e-4,-0.2817292 L 4.5001892,3.0139462 C 5.0856276,2.2870966 5.0416508,1.2160688 4.3671808,0.54159859 c -0.7221315,-0.7221314 -1.8993023,-0.7221315 -2.6214338,0 z m 0.2831909,0.2831909 c 0.5692722,-0.56927224 1.4857799,-0.56927225 2.0550521,0 0.5692722,0.56927221 0.5692722,1.48577981 -1e-7,2.05505211 C 3.5147178,3.4491137 2.5967484,3.4505755 2.0274762,2.8813016 1.458204,2.3120294 1.4596658,1.39406 2.0289362,0.82478779 Z M 4.3083502,3.2189398 c 0.019884,-0.018227 0.039211,-0.037019 0.058465,-0.056273 0.018886,-0.018886 0.037278,-0.037877 0.055177,-0.057369 -0.017892,0.019533 -0.036261,0.038454 -0.055177,0.057369 -0.019236,0.019236 -0.038611,0.038071 -0.058465,0.056273 z" />
  </g>
</svg>
