<?xml version="1.0" encoding="UTF-8" standalone="no"?>
<!-- Created with Inkscape (http://www.inkscape.org/) -->

<svg
   width="22.489935mm"
   height="6.6976137mm"
   viewBox="0 0 22.489935 6.6976137"
   version="1.1"
   id="svg1"
   sodipodi:docname="inkporter-svg-qeis_gh6.svg"
   xmlns:inkscape="http://www.inkscape.org/namespaces/inkscape"
   xmlns:sodipodi="http://sodipodi.sourceforge.net/DTD/sodipodi-0.dtd"
   xmlns="http://www.w3.org/2000/svg"
   xmlns:svg="http://www.w3.org/2000/svg">
  <sodipodi:namedview
     id="namedview1"
     pagecolor="#ffffff"
     bordercolor="#000000"
     borderopacity="0.25"
     inkscape:showpageshadow="2"
     inkscape:pageopacity="0.0"
     inkscape:pagecheckerboard="0"
     inkscape:deskcolor="#d1d1d1"
     inkscape:document-units="mm"
     inkscape:zoom="1.0476431"
     inkscape:cx="396.60453"
     inkscape:cy="561.25984"
     inkscape:window-width="2560"
     inkscape:window-height="1368"
     inkscape:window-x="0"
     inkscape:window-y="0"
     inkscape:window-maximized="1"
     inkscape:current-layer="layer1" />
  <defs
     id="defs1" />
  <g
     inkscape:label="Layer 1"
     inkscape:groupmode="layer"
     id="layer1"
     transform="translate(-41.804167,-65.352084)">
    <g
       id="IT-100mm"
       transform="matrix(0.35277777,0,0,-0.35277777,-54.674317,395.39418)">
      <g
         id="g2314"
         transform="matrix(0.46312424,0,0,-0.46312424,270.26578,985.2839)">
        <path
           id="path880-0"
           style="fill:#000000;stroke-width:5.53701;paint-order:markers stroke fill;stop-color:#000000"
           d="m 168.76367,405.85547 -11.66406,31.10156 a 59.397416,59.397416 0 0 0 -56.94922,59.26367 59.397416,59.397416 0 0 0 1.05273,10.91992 h 7.04493 a 52.472159,52.472159 0 0 0 51.29883,41.55274 52.472159,52.472159 0 0 0 46.15429,-27.58398 l 168.79492,16.39648 22.375,-0.53125 5.06055,-2.13086 -6.78906,4.94531 c 0,0 12.42938,8.8524 13.37109,8.66406 0.94171,-0.18822 27.875,-1.69531 27.875,-1.69531 l 0.18945,-4.52148 h -11.49023 c -0.94171,0 -8.09766,-3.20117 -8.09766,-3.20117 l 0.37696,-7.34571 -8.47657,-11.86523 -19.02148,4.70898 -11.49023,-3.95508 -74.20703,-8.0996 -2.82422,-7.15625 -9.04102,1.69531 2.82617,6.96875 -3.95508,2.63672 -58.38671,-8.09961 0.37695,-2.63672 h 7.72265 c 0,0 0.37643,-5.83789 -0.37695,-5.83789 -0.75337,0 -22.79101,0.37695 -22.79101,0.37695 l 1.32031,5.08399 10.35742,0.94335 v 2.07032 l -18.38672,-2.26367 a 52.472159,52.472159 0 0 0 1.00586,-10.03907 52.472159,52.472159 0 0 0 -52.47265,-52.4707 52.472159,52.472159 0 0 0 -0.26758,0.01 v -5.02735 l 11.97851,-31.9414 z"
           transform="scale(0.26458333)" />
        <path
           id="rect1687"
           style="fill:#000000;fill-opacity:1;stroke:none;stroke-width:5.53701;paint-order:markers stroke fill;stop-color:#000000"
           inkscape:transform-center-x="10.454105"
           inkscape:transform-center-y="-4.4137746"
           d="M 30.740234,408.88086 26.25,421.98242 l 36.726562,12.5918 -0.65625,1.91406 3.166016,1.08399 -1.109375,2.9707 -7.181641,-2.46094 c 0,0 -1.070064,1.88587 -4.572265,2.65625 -3.502212,0.77038 -3.919922,5.27344 -3.919922,5.27344 l 3.269531,6.89258 -0.824218,2.81445 6.550781,2.24609 0.808593,-1.1289 27.634766,9.33008 -20.708984,8.24804 -1.697266,-3.25781 -4.636719,0.38281 5.496094,12.30274 4.095703,-1.27149 -1.865234,-3.5957 c 0,0 21.034992,-7.14895 22.132812,-7.47656 1.09781,-0.32769 -3.083108,6.12111 -3.255859,6.625 -0.172762,0.50392 3.103516,1.62695 3.103516,1.62695 l 8.478515,-6.66406 4.416014,0.66797 5.88281,1.73437 1.85352,-6.32812 h 32.76172 v -7.42578 l 33.02148,11.32031 -2.67187,7.79297 18.70703,6.41211 -4.64258,13.54101 29.57617,10.13867 6.41407,-18.70703 -9.80079,-3.35937 0.90039,-2.62696 0.006,0.002 4.49219,-13.09961 -0.006,-0.002 1.87696,-5.4746 -2.49415,-0.85547 2.32032,-6.76953 -5.16602,-1.77149 -2.32031,6.76953 -13.71875,-4.70312 2.13867,-6.23438 -6.23828,-2.13867 -2.13867,6.23437 -10.86719,-3.7246 -1.87695,5.4746 -37.51172,-12.86132 v -0.34375 h -1.00391 l -10.29492,-3.5293 -4.07812,-6.12305 -13.26758,-1.95898 -4.00586,0.0742 0.75,-2.18555 -17.105471,-5.86328 -0.960937,2.80078 -11.580078,-3.9707 0.83789,-2.44336 -13.183593,-4.52149 -0.837891,2.44532 z"
           transform="scale(0.26458333)" />
      </g>
      <path
         id="path54405-5-4"
         style="fill:#000000;stroke-width:0.0344954"
         d="m 319.62622,917.61449 c -0.14393,0.0276 -0.32636,0.19325 -0.33365,0.30277 -0.002,0.0329 -0.006,0.0753 -0.008,0.0944 -0.003,0.019 -0.0561,0.0848 -0.11916,0.14638 l -0.11453,0.11186 0.007,0.44006 c 0.005,0.36328 -0.003,0.46243 -0.0553,0.56834 -0.0552,0.11376 -0.0569,0.14415 -0.0159,0.26842 0.0405,0.12227 0.039,0.15529 -0.0106,0.25918 -0.0313,0.0654 -0.0808,0.27068 -0.11038,0.45599 -0.0295,0.18531 -0.0706,0.42538 -0.0914,0.53348 -0.0208,0.1081 -0.0408,0.26333 -0.044,0.34496 -0.004,0.0815 -0.033,0.20963 -0.0656,0.28445 -0.0421,0.0966 -0.0507,0.16169 -0.0292,0.22422 0.0523,0.15273 0.008,0.32717 -0.11765,0.46891 -0.1159,0.13029 -0.18582,0.30197 -0.18619,0.45724 0,0.0435 -0.0616,0.17363 -0.13667,0.28914 -0.15502,0.23859 -0.17944,0.34178 -0.25671,1.0848 -0.0703,0.67691 -0.11909,0.81004 -0.12205,0.33345 -9.2e-4,-0.22383 -0.0274,-0.46056 -0.0714,-0.64935 -0.0656,-0.28182 -0.0663,-0.30804 -0.0136,-0.51014 0.0308,-0.11716 0.0579,-0.31685 0.0606,-0.44371 0.004,-0.21769 -0.002,-0.23739 -0.11009,-0.34963 -0.11299,-0.11682 -0.11407,-0.12084 -0.0604,-0.22467 0.076,-0.14697 0.0683,-0.34528 -0.0193,-0.48861 -0.0658,-0.10795 -0.0764,-0.19373 -0.0996,-0.81064 -0.0188,-0.49582 -0.0417,-0.73269 -0.0818,-0.84198 -0.0521,-0.14165 -0.0519,-0.15654 0.003,-0.21731 0.0795,-0.0877 0.0771,-0.28963 -0.003,-0.34889 -0.051,-0.0373 -0.0558,-0.0596 -0.0249,-0.11731 0.0209,-0.0391 0.0399,-0.22815 0.0424,-0.41996 0.003,-0.19182 0.0362,-0.36842 0.0362,-0.36842 l 0.006,-0.11531 c 0,0 -0.0226,-0.042 -0.0794,-0.0545 -0.0567,-0.0125 -0.11193,-0.0371 -0.12276,-0.0546 -0.0108,-0.0175 -0.0382,-0.0316 -0.0607,-0.031 l -0.0774,-0.0126 c 0,0 -0.0963,-0.0477 -0.16392,-0.0502 -0.0794,-0.004 -0.0932,0.007 -0.0765,0.0591 0,0 -0.11883,0.0321 -0.14016,-0.0488 -0.012,-0.0474 -0.0338,-0.0862 -0.0485,-0.0862 -0.0149,0 -0.0247,-0.0272 -0.0222,-0.0603 0.003,-0.0421 -0.0213,-0.0611 -0.0814,-0.0628 -0.14623,-0.004 -0.34494,-0.051 -0.34494,-0.0809 0,-0.0544 -0.19078,-0.063 -0.53185,-0.0243 -0.4967,0.1309 -0.13428,0.61601 -0.11891,0.62749 0.0639,0.0582 0.22961,0.181 0.36837,0.27296 0.22315,0.1479 0.26334,0.19156 0.34784,0.37795 0.11903,0.26248 0.15503,0.53003 0.092,0.68328 -0.03,0.0731 -0.0479,0.28149 -0.0515,0.5953 -0.005,0.54712 -0.0674,1.00263 -0.15218,1.12356 -0.0652,0.0931 -0.0729,0.23386 -0.0223,0.41526 0.0295,0.10682 0.0225,0.14603 -0.05,0.27596 -0.0534,0.0957 -0.0852,0.2086 -0.0861,0.30668 -0.005,0.56323 -0.0171,2.11836 -0.0163,2.26808 6.2e-4,0.14503 -0.0105,0.1811 -0.0555,0.1811 -0.0312,0 -0.0923,0.0381 -0.13588,0.0845 l -0.0794,0.0845 -0.0623,-0.0759 c -0.0554,-0.0674 -0.0681,-0.0702 -0.1139,-0.0242 -0.0283,0.0284 -0.0822,0.16817 -0.1199,0.31047 -0.0376,0.14229 -0.093,0.34873 -0.12314,0.45873 -0.0301,0.11002 -0.0548,0.27814 -0.0548,0.37358 v 0.17353 l -0.10125,-0.0223 c -0.13708,-0.0301 -0.20623,0.0795 -0.24496,0.38773 -0.0163,0.1297 -0.0472,0.28167 -0.0686,0.33774 -0.0329,0.086 -0.0867,0.94615 -0.0765,1.22301 0.0211,0.57411 0.0458,0.81189 0.1054,1.01762 0.0384,0.13281 0.10855,0.40445 0.15578,0.60367 0.0472,0.19921 0.10522,0.40877 0.12882,0.46568 0.10601,0.25547 0.17766,0.46258 0.22075,0.63817 0.0939,0.38207 0.30126,0.88129 0.37092,0.89249 0.0243,0.003 0.0908,0.0124 0.14772,0.0189 0.0569,0.006 0.12989,0.0227 0.16219,0.0363 0.0324,0.0135 0.074,0.015 0.0925,0.004 0.0186,-0.0113 0.0428,-0.006 0.0541,0.012 0.0112,0.018 0.1071,0.0581 0.21325,0.0891 0.18832,0.0548 0.19247,0.0586 0.17199,0.16105 -0.014,0.0694 -9.2e-4,0.13903 0.0384,0.20557 0.0518,0.0875 0.0532,0.1106 0.0115,0.17731 -0.0264,0.0421 -0.0592,0.12672 -0.0731,0.1879 0,0 -0.0143,-0.0472 -0.0417,0.3803 -0.002,0.0234 -0.0311,0.0517 -0.0659,0.0627 -0.0702,0.0223 -0.0854,0.1356 -0.0234,0.17395 0.0257,0.0159 0.0304,0.009 0.0132,-0.0185 l 0.0505,0.14466 c 0,0.0693 -0.0283,0.14674 -0.0703,0.19169 -0.0576,0.0618 -0.0634,0.0884 -0.0315,0.14803 0.0371,0.0694 0.0328,0.0716 -0.0936,0.0515 -0.1863,-0.03 -0.33682,0.0181 -0.35055,0.11191 -0.009,0.0604 0.0193,0.0897 0.13799,0.14355 0.082,0.0372 0.19225,0.0679 0.24503,0.0685 0.0602,3.1e-4 0.10354,0.0232 0.11626,0.0611 0.0112,0.0333 0.0507,0.1259 0.0877,0.20599 0.0371,0.0801 0.0646,0.18097 0.061,0.22422 -0.0135,0.16634 0.004,0.23209 0.0904,0.33467 0.0642,0.0763 0.11922,0.10614 0.19585,0.10614 0.13155,0 0.64376,-0.18389 0.85272,-0.30615 0.22333,-0.13066 0.53233,-0.45659 0.6384,-0.67339 0.0895,-0.18298 0.0903,-0.19075 0.0377,-0.35406 -0.0296,-0.0919 -0.0625,-0.22517 -0.0732,-0.29631 -0.0106,-0.0712 -0.0337,-0.12937 -0.0516,-0.12937 -0.0357,0 -0.23974,-0.33989 -0.24026,-0.40008 0,-0.0208 0.0616,-0.0658 0.13745,-0.10003 0.10781,-0.0486 0.14529,-0.0892 0.17229,-0.18632 0.019,-0.0684 0.0346,-0.14546 0.0347,-0.17141 0,-0.0259 0.043,-0.0958 0.0954,-0.15524 0.078,-0.0886 0.12602,-0.11026 0.26633,-0.12039 0.0942,-0.006 0.20872,-0.0267 0.25459,-0.0441 0.0612,-0.0232 0.099,-0.0178 0.14171,0.0209 0.0743,0.0671 0.1883,0.0675 0.25486,9.3e-4 0.0285,-0.0284 0.063,-0.0518 0.0768,-0.0518 0.0139,0 0.0863,-0.0626 0.16131,-0.13896 0.075,-0.0764 0.18283,-0.16307 0.23977,-0.19252 0.14792,-0.0765 0.98203,-0.92182 1.16141,-1.17703 0.0888,-0.12646 0.21112,-0.25014 0.29691,-0.30042 0.23932,-0.14027 0.27003,-0.21465 0.22856,-0.55368 -0.0462,-0.37726 -0.0875,-0.46556 -0.37039,-0.78924 -0.13045,-0.14932 -0.27165,-0.32007 -0.3138,-0.37945 -0.14866,-0.2095 -0.5007,-0.50465 -0.6019,-0.50465 -0.0587,0 -0.19426,-0.0693 -0.3544,-0.18112 -0.31226,-0.21796 -0.3207,-0.25852 -0.14344,-0.68949 0.11138,-0.2708 0.29671,-0.82469 0.29671,-0.88674 0,-0.0159 -0.0788,-0.0889 -0.17489,-0.16205 l -0.1749,-0.13308 0.0264,-0.3277 c 0.0595,-0.738 0.0125,-0.90491 -0.11303,-0.40198 -0.0419,0.16783 -0.085,0.31402 -0.0958,0.32483 -0.0471,0.0471 0.0124,-1.15758 0.0864,-1.7502 0.0306,-0.24436 0.0556,-0.31884 0.15266,-0.45398 0.1573,-0.21895 0.25869,-0.42403 0.25869,-0.52328 0,-0.0452 -0.0288,-0.16612 -0.0641,-0.2687 -0.0586,-0.17076 -0.0601,-0.20835 -0.0165,-0.44522 0.0261,-0.14229 0.0452,-0.32081 0.0427,-0.3967 -0.003,-0.0759 -0.003,-0.19768 -9.1e-4,-0.27062 0.002,-0.073 -0.0141,-0.16557 -0.0356,-0.20582 -0.0215,-0.0402 -0.0362,-0.1513 -0.0325,-0.2468 0.003,-0.0955 -0.0115,-0.37375 -0.0339,-0.61834 -0.0325,-0.35526 -0.0317,-0.49239 0.004,-0.68169 0.0364,-0.19299 0.0365,-0.25234 3.1e-4,-0.31968 -0.037,-0.0692 -0.0357,-0.0951 0.009,-0.15841 0.0385,-0.0551 0.0478,-0.12541 0.0342,-0.258 -0.0375,-0.49345 0.38791,-0.67013 0.4153,-1.08184 0.003,-0.0693 0.0215,-0.13718 0.0405,-0.15111 0.0213,-0.0157 0.018,-0.0255 -0.008,-0.0258 -0.0238,-3e-4 -0.0431,-0.0395 -0.0431,-0.0873 0,-0.1881 -0.34411,-0.27238 -0.77417,-0.1896 z m 0.43214,11.96998 c 0.15692,0.16713 0.24056,0.38012 0.16097,0.40993 -0.0189,0.007 -0.0655,0.0439 -0.10354,0.0818 -0.0652,0.0653 -0.0753,0.066 -0.1845,0.014 -0.0765,-0.0366 -0.12278,-0.0874 -0.13711,-0.15093 -0.0589,-0.26079 -0.0885,-0.35344 -0.11913,-0.37238 -0.0184,-0.0115 -0.0335,-0.0509 -0.0335,-0.0876 0,-0.0543 0.0243,-0.0668 0.12759,-0.0668 0.1085,0 0.15179,0.0258 0.28926,0.17219 z m 1.03196,5.46577 c 0,0.008 -0.0156,0.0248 -0.0345,0.0366 -0.019,0.0118 -0.0346,0.004 -0.0346,-0.0152 0,-0.0201 0.0155,-0.0366 0.0346,-0.0366 0.0189,0 0.0345,0.006 0.0345,0.0152 z" />
      <path
         id="path54409-4-3-5-9-4"
         d="m 309.68999,935.02264 -0.0923,-0.15674 -0.0908,-0.15527 h -0.1626 c -0.0892,0 -0.25869,-0.0708 -0.37647,-0.15674 -0.11777,-0.0862 -0.29487,-0.20251 -0.39257,-0.25781 l -0.17725,-0.0996 v -0.38232 -0.38086 l -0.20068,-0.0908 -0.20215,-0.0894 v -0.17285 -0.17285 l 0.25342,-0.0952 0.25195,-0.0952 0.11572,-0.27686 c 0.0639,-0.15225 0.17197,-0.39203 0.23877,-0.5332 0.067,-0.14125 0.10057,-0.29019 0.0762,-0.32959 -0.0244,-0.0394 -0.162,-0.0972 -0.30615,-0.12891 l -0.26221,-0.0571 -0.22851,-0.4585 -0.22852,-0.4585 v -0.29443 -0.2959 l -0.0586,-0.0601 c -0.0191,0.1641 -0.0288,0.32188 -0.0176,0.46729 -0.037,-0.11414 -0.0974,-0.25744 -0.1333,-0.31934 -0.0359,-0.0619 -0.0655,-0.13151 -0.0659,-0.15381 -0.001,-0.0496 -0.15509,-0.22705 -0.19629,-0.22705 -0.0469,0 -0.17,0.14656 -0.1831,0.21826 -0.007,0.0372 -0.058,0.0814 -0.12012,0.10254 -0.0598,0.0204 -0.30458,0.22074 -0.54492,0.44532 -0.24034,0.22457 -0.52094,0.47683 -0.62256,0.56103 -0.28241,0.23403 -0.58519,0.5061 -0.67969,0.61084 -0.10628,0.11779 -0.8706,0.52521 -0.9375,0.49951 -0.093,-0.0357 -0.05,-0.15836 0.18311,-0.51269 0.1458,-0.2216 0.32769,-0.44211 0.48486,-0.58887 0.13834,-0.12916 0.54217,-0.52177 0.89649,-0.87158 0.4957,-0.48944 0.63451,-0.6443 0.60351,-0.6753 -0.0648,-0.0647 -0.0475,-0.14552 0.0615,-0.28271 0.0561,-0.0707 0.10254,-0.14835 0.10254,-0.17285 0,-0.0246 0.0454,-0.11223 0.10108,-0.19483 0.0864,-0.12796 0.0971,-0.16519 0.085,-0.35009 -0.004,0.002 -0.0117,0.008 -0.0147,0.009 -0.0207,0.006 -0.0138,-0.0135 0.0117,-0.0483 -8.3e-4,-0.0112 -5.3e-4,-0.0171 -0.001,-0.0293 -0.024,-0.31393 0.0108,-0.41625 0.2212,-0.67822 0.14878,-0.18528 0.27739,-0.24595 0.54785,-0.25196 l 0.0146,-0.0117 -0.31495,-0.59472 c -0.17335,-0.32646 -0.31494,-0.67909 -0.31494,-0.78369 v -0.18897 l 0.1626,-0.14795 c 0.0899,-0.0814 0.21047,-0.14795 0.26807,-0.14795 0.0575,0 0.10547,-0.0212 0.10547,-0.0439 0,-0.024 -0.12533,-0.43499 -0.27832,-0.9126 l -0.27833,-0.86865 0.0982,-0.15821 0.0996,-0.1582 -0.0952,-0.68115 -0.0952,-0.68115 0.063,-0.14795 c 0.1071,-0.25226 0.30022,-1.7289 0.30322,-2.31885 l 0.004,-0.5625 -0.21972,-0.21973 c -0.12064,-0.1208 -0.27451,-0.21826 -0.34131,-0.21826 -0.0668,0 -0.22976,-0.11273 -0.36182,-0.25049 l -0.24023,-0.25049 v -0.23144 -0.23145 l 0.14209,-0.0542 c 0.20273,-0.0779 0.46611,-0.0564 0.97558,0.0791 0.24575,0.0652 0.60764,0.15196 0.8042,0.19336 l 0.35743,0.0747 0.0293,0.25635 c 0.0161,0.14046 -0.0213,0.37493 -0.082,0.52148 l -0.10986,0.26661 0.0161,0.41015 c 0.009,0.22564 0.075,0.61118 0.14795,0.85694 0.073,0.24579 0.1333,0.59462 0.1333,0.7749 0,0.18037 -0.0446,0.45427 -0.0981,0.60791 l -0.0967,0.27832 0.28564,0.62109 0.28711,0.6211 0.25488,0.10693 0.25635,0.10547 0.20654,-0.0513 0.20655,-0.0513 0.12011,-0.54639 0.12159,-0.54638 -0.1084,-0.48633 -0.1084,-0.48487 0.19775,-0.5581 0.19776,-0.55811 -0.003,-0.53613 -10e-4,-0.53613 -0.14355,-0.38672 -0.14356,-0.38818 0.085,-0.15967 c 0.0468,-0.0876 0.22372,-0.22449 0.39258,-0.30469 l 0.30615,-0.14502 h 0.59034 0.59033 v 0.21387 0.21387 l -0.24609,0.26367 c -0.13516,0.14505 -0.31684,0.41213 -0.40284,0.59326 l -0.15674,0.32959 v 0.33984 c 0,0.18692 0.0623,0.73886 0.1377,1.22608 0.0754,0.48724 0.17838,1.24817 0.22998,1.69043 0.0516,0.44224 0.1364,0.85402 0.1875,0.91552 0.0511,0.0615 0.14763,0.11133 0.21533,0.11133 h 0.12451 l -10e-4,0.15674 c -6.5e-4,0.086 -0.0973,0.53795 -0.21387,1.00488 l -0.21094,0.84961 0.063,0.0894 c 0.0347,0.0492 0.11588,0.25587 0.18018,0.45996 l 0.11572,0.37207 -0.14502,0.42627 c -0.08,0.23479 -0.14502,0.47241 -0.14502,0.52881 v 0.10254 l 0.54492,0.12744 0.54493,0.12744 0.12304,0.35742 0.12305,0.35742 -0.22559,0.93897 c -0.31168,1.28923 -0.41378,1.63388 -0.52002,1.77392 -0.0502,0.0661 -0.37424,0.25331 -0.7207,0.41602 -0.34646,0.16274 -0.74407,0.40437 -0.8833,0.5376 l -0.25195,0.24316 0.0996,0.0996 0.10107,0.10107 0.0806,-0.13183 0.0806,-0.13037 0.0586,0.15381 c 0.0325,0.0845 0.11035,0.1538 0.17285,0.1538 0.0625,0 0.16847,0.0656 0.23437,0.14502 l 0.11866,0.14356 -0.23584,0.20361 -0.23731,0.20508 -0.10107,0.375 c -0.0561,0.20679 -0.0815,0.39491 -0.0571,0.42041 0.0243,0.0243 0.14217,-0.10976 0.26221,-0.29883 0.12006,-0.18896 0.304,-0.42066 0.40869,-0.51416 l 0.19043,-0.17138 v 0.19482 c 0,0.2164 -0.13821,0.49306 -0.39551,0.79395 -0.0945,0.11055 -0.14735,0.22481 -0.11865,0.25341 0.0288,0.0287 0.13627,0.007 0.23877,-0.0483 l 0.18603,-0.0996 v 0.0923 c 0,0.051 -0.0804,0.1726 -0.17871,0.271 l -0.17871,0.17871 h -0.44238 -0.44092 l -0.0571,0.0937 -0.0586,0.0923 -0.18164,-0.0571 -0.18311,-0.0571 -0.0791,0.12012 z m 1.88086,-5.94287 h 0.0894 0.0893 v -0.22412 -0.22266 h -0.0893 -0.0894 v 0.22266 z" />
      <path
         id="path66853-3"
         style="fill:#000000;stroke-width:0.086434"
         d="m 301.52134,930.72717 c 0.51957,0.0283 0.54728,-0.40938 0.36431,-0.8189 -0.15245,-0.5571 -0.16282,-1.13959 -0.22453,-1.71114 0.40513,0.0198 0.74048,-0.2194 0.88898,-0.58175 0.13144,-0.32171 0.39279,-0.50233 0.70617,-0.62649 0.0408,-0.50822 0.69596,-0.72615 0.79147,-1.13737 -0.21427,-0.4379 0.26532,-0.72618 0.41078,-1.10123 0.22646,-0.45527 0.56101,-0.89997 0.72327,-1.37132 -0.0255,-0.47662 -0.28208,-0.96236 -0.31672,-1.39626 0.18831,-0.32153 0.42555,-0.72675 0.12442,-1.0491 0.2114,-0.23216 0.32661,-0.49448 0.26691,-0.81202 0.0873,-0.34965 -0.0958,-0.58926 -0.35727,-0.79693 -0.14595,-0.26249 -0.58514,-0.4551 -0.76383,-0.15534 -0.31988,0.28815 -0.11543,0.69466 -0.0944,1.05971 -0.30031,0.20353 -0.5528,0.54859 -0.95573,0.44835 -0.28387,-0.22308 -0.35922,-0.68079 -0.16688,-1.02189 0.11574,-0.36978 0.4609,-1.0059 0.0443,-1.27236 -0.99695,-0.0431 -2.01561,-0.22592 -2.99954,-0.0142 -0.041,0.28347 0.25203,0.74115 -0.0449,0.89107 -0.39603,0.19928 -0.65501,0.6503 -0.49574,1.08116 -0.10199,0.4538 0.57719,1.09168 0.18275,1.37424 -0.16339,0.21345 0.17161,0.5961 0.21504,0.87982 0.17697,0.18142 0.16387,0.82874 -0.0369,0.69987 -0.38503,-0.31802 -1.08755,0.0578 -1.55951,0.0969 -0.84538,0.22365 -1.66095,0.54728 -2.51055,0.75758 -0.20512,0.24208 -0.514,0.44125 -0.65602,0.70949 -0.1533,0.61639 0.68145,0.12472 1.01584,0.15931 0.62251,-0.059 0.82892,-0.88847 1.45919,-0.72678 0.42547,0.006 0.85094,0.008 1.27641,0.0142 0.28502,0.396 0.35064,0.91089 -0.23567,0.64228 -0.52062,0.0422 -0.17598,0.84906 0.28733,0.9083 -0.0809,0.34178 0.29126,1.11612 -0.17073,1.08851 -0.2801,0.0626 -0.81137,-0.18425 -0.78227,0.25937 -0.26927,0.7433 -0.47035,1.5353 -0.42948,2.33373 0.22657,0.28412 0.55994,0.19701 0.87624,0.16923 0.61702,-0.15846 1.58715,0.20069 1.78661,-0.60474 10e-4,-0.25852 -0.28353,-0.59329 -0.11588,-0.80555 0.36775,-0.14797 1.13269,-0.31853 1.07128,0.29798 0.38401,0.65953 0.18348,1.47387 0.4253,2.13324 z m -1.2099,-11.58942 c -0.39705,-0.58955 0.17022,-0.1973 0.26903,-0.0706 -0.0897,0.0227 -0.17937,0.0471 -0.26903,0.0706 z" />
      <path
         id="path66851-14"
         style="fill:#000000;stroke-width:0.086434"
         d="m 327.16496,931.18721 c 0.50707,-0.18114 0.72141,-0.45701 0.0604,-0.32497 -0.76426,0.0757 -0.46802,-0.15165 0.11588,-0.1012 1.07284,0.12586 -0.40078,-0.50065 -0.82098,-0.2986 -0.45587,0.0397 0.68046,-0.26532 0.019,-0.43242 0.29568,-0.0198 -0.27082,-0.54941 0.27046,-0.18085 0.30349,0.12217 -0.42746,-0.62867 -0.11364,-0.41964 0.35873,0.0927 -0.55823,-0.37455 0.13501,-0.25342 0.17975,-0.2922 0.52741,0.43792 0.72874,0.19899 0.0447,-0.29934 -0.13592,-0.69783 0.19718,-0.87024 0.48661,-0.3071 0.45463,-0.57823 -0.21007,-0.46712 -0.51245,0.11481 -1.30452,-0.144 -1.65536,0.27383 -0.15602,0.43515 -0.82125,0.63958 -0.75191,1.14304 0.0619,0.52025 -0.2831,0.8045 -0.62017,0.96835 -0.33799,0.0921 -0.5421,-0.15392 -0.75764,-0.37097 0.006,-0.64962 0.49303,-1.20121 0.61064,-1.84023 0.0914,-0.47798 0.60591,-0.68788 0.90278,-1.03572 0.34219,-0.34886 0.90569,-0.29815 1.3227,-0.52668 0.55013,-0.0527 0.48791,-0.55066 0.50562,-0.95204 -0.006,-0.37469 0.10602,-0.80019 0.0261,-1.14287 -0.36217,-0.15563 -0.28806,-0.52277 -0.29885,-0.84878 -0.28532,-0.31102 -0.90077,-0.42764 -1.26554,-0.74585 -0.39838,-0.26108 -0.33372,-0.85388 -0.43027,-1.28243 0.28647,-0.35229 0.78814,-0.58342 0.81243,-1.08309 0.12843,-0.48228 0.15057,-0.98311 0.14281,-1.47971 -0.21325,-0.20863 -0.54834,-0.3585 -0.69148,-0.60114 -0.11109,-0.68519 0.75948,-0.39025 1.18628,-0.4506 0.28976,0.017 0.54223,0.21543 0.81758,0.30252 -0.11364,0.83446 -0.15681,1.67604 -0.2105,2.51589 0.23973,0.15874 0.56645,0.27099 0.45361,0.6205 0.23014,0.3509 1.45351,0.77647 1.4266,-0.0391 0.36176,-0.9347 0.37509,-1.98034 0.82372,-2.87821 0.29742,-0.17178 0.59528,-0.34101 0.95,-0.24974 0.26305,0.0624 0.68505,-0.11962 0.75068,0.2469 0.22317,0.41244 0.0576,0.91695 0.10706,1.37052 0.0393,0.57068 -0.0402,1.12615 -0.18663,1.67687 -0.1461,0.62969 -0.11619,1.30731 -0.2446,1.92829 -0.29171,0.29829 -0.53228,0.80793 0.0902,0.64256 0.48422,-0.14428 0.87218,0.3282 0.79634,0.80204 -0.0411,0.943 -0.62879,1.73522 -0.98914,2.58173 -0.44148,0.25739 -1.04714,0.16526 -1.37949,0.59389 -0.53843,0.27411 0.50228,0.33446 0.25988,0.75405 -10e-4,0.65783 -0.36084,1.35365 -0.96007,1.55605 -0.43369,-0.0335 -0.18995,0.57761 -0.63213,0.313 -0.31953,-0.19758 -0.2327,0.68099 -0.45961,0.0255 -0.25674,0.15761 -0.51652,0.37463 -0.83383,0.36028 z m -0.16883,-1.08414 c 0.22737,-0.11396 -0.32967,-0.12218 0,0 z" />
      <path
         id="path1-8-1"
         style="fill:#000000;stroke-width:0.109563"
         d="m 334.08216,933.45999 c -0.0485,9.1e-4 -0.065,-0.008 -0.0674,-0.0276 -0.003,-0.0255 -0.0494,-0.058 -0.10306,-0.0726 -0.10537,-0.0286 -0.14305,-0.0918 -0.16785,-0.2815 -0.008,-0.067 -0.0401,-0.14092 -0.0688,-0.16394 -0.0409,-0.0318 -0.0634,-0.11969 -0.0938,-0.36611 -0.023,-0.17851 -0.0313,-0.34575 -0.0184,-0.37268 0.0128,-0.0319 -0.003,-0.0852 -0.0529,-0.15473 -0.0803,-0.11279 -0.1187,-0.29621 -0.0714,-0.33439 0.0153,-0.0128 0.0283,-0.0941 0.029,-0.18235 0.002,-0.0888 0.0131,-0.16343 0.029,-0.16522 0.0153,-0.002 0.0208,-0.0662 0.0105,-0.14271 -0.0187,-0.14706 0.006,-0.19744 0.12819,-0.2312 -0.0293,-0.0128 -0.0534,-0.0255 -0.0845,-0.0396 -0.0135,-0.0319 -0.0347,-0.0898 -0.0449,-0.12942 -0.0113,-0.0399 -0.0309,-0.0821 -0.0463,-0.0898 -0.0146,-0.0102 -0.0308,-0.0503 -0.033,-0.0913 -0.004,-0.0456 -0.0572,-0.12327 -0.13877,-0.20102 -0.21125,-0.20051 -0.46125,-0.65808 -0.46125,-0.84451 0,-0.0588 -0.0138,-0.10716 -0.029,-0.10716 -0.0161,0 -0.029,-0.0205 -0.029,-0.0435 0,-0.023 -0.0264,-0.0665 -0.0581,-0.0939 -0.0317,-0.0273 -0.0568,-0.0668 -0.0568,-0.0872 0,-0.018 -0.011,-0.0371 -0.0238,-0.0371 -0.0133,0 -0.0753,-0.10102 -0.13744,-0.22455 -0.0624,-0.12352 -0.14731,-0.27572 -0.189,-0.33966 -0.0419,-0.0637 -0.0849,-0.15294 -0.0951,-0.1982 -0.0259,-0.10742 -0.14319,-0.29535 -0.27491,-0.44011 -0.15754,-0.1734 -0.18165,-0.23324 -0.19955,-0.48635 -0.0141,-0.20615 -0.008,-0.24758 0.0542,-0.36611 0.0386,-0.0734 0.0783,-0.14042 0.0885,-0.14809 0.011,-0.008 0.0281,-0.0476 0.0383,-0.0872 0.012,-0.0478 0.059,-0.0908 0.1401,-0.12814 0.067,-0.0309 0.14285,-0.0665 0.16918,-0.0793 0.0317,-0.0153 0.0841,0.003 0.15596,0.0517 0.10793,0.0732 0.21284,0.0767 0.16783,0.005 -0.0217,-0.0343 -0.0763,-0.21867 -0.1533,-0.51545 -0.0187,-0.0716 -0.0466,-0.1514 -0.0595,-0.17697 -0.0138,-0.0258 -0.0347,-0.0967 -0.0449,-0.15857 -0.0113,-0.0616 -0.0295,-0.12609 -0.0423,-0.14144 -0.0123,-0.0153 -0.0334,-0.0818 -0.0436,-0.14552 -0.0115,-0.0637 -0.0335,-0.13017 -0.0463,-0.14807 -0.0135,-0.018 -0.0295,-0.0911 -0.0317,-0.16267 -0.006,-0.14859 0.0485,-0.22608 0.16122,-0.22608 0.0844,0 0.11415,-0.0601 0.0886,-0.19156 -0.033,-0.17519 0.009,-0.27769 0.1599,-0.39253 0.1555,-0.11841 0.12984,-0.023 0.21808,-0.8062 0.0207,-0.18338 0.0668,-0.45787 0.10176,-0.60928 0.12225,-0.52744 0.14757,-0.71372 0.17315,-1.23968 0.0163,-0.35416 0.0352,-0.54368 0.0608,-0.57359 0.0389,-0.0494 0.0463,-0.36261 0.008,-0.42424 -0.0317,-0.0514 -0.0338,-0.0678 -0.0568,-0.49563 -0.011,-0.20383 -0.0321,-0.37823 -0.0449,-0.3859 -0.0457,-0.0284 -0.0287,-0.46046 0.0225,-0.56302 0.0802,-0.16086 0.27984,-0.31828 0.40311,-0.31851 0.0327,0 0.0854,-0.0205 0.1163,-0.0422 0.031,-0.023 0.078,-0.0429 0.10442,-0.0435 0.0509,-9.1e-4 0.0819,-0.0586 0.0819,-0.14808 0,-0.0301 -0.0585,-0.11662 -0.13082,-0.19284 -0.0724,-0.076 -0.15013,-0.17263 -0.17314,-0.21407 -0.0521,-0.0962 -0.15146,-0.16086 -0.28547,-0.18644 -0.058,-0.0102 -0.10573,-0.0335 -0.10573,-0.0463 0,-0.0153 -0.0138,-0.0255 -0.0318,-0.0255 -0.0176,0 -0.0959,-0.053 -0.17312,-0.11766 -0.14655,-0.12275 -0.22997,-0.25267 -0.22997,-0.35948 0,-0.0793 0.10503,-0.17877 0.21808,-0.20614 0.0478,-0.0128 0.0928,-0.0307 0.10043,-0.0409 0.0248,-0.0332 0.31095,-0.11637 0.40046,-0.11637 0.1602,0 0.41844,0.10666 0.60002,0.2486 0.11127,0.0857 0.12747,0.091 0.39253,0.0913 0.15214,0 0.30462,0.0102 0.33966,0.0205 0.0844,0.0266 0.1666,0.19668 0.12951,0.26832 -0.0151,0.0291 -0.0359,0.189 -0.0436,0.35419 -0.009,0.16521 -0.0297,0.31382 -0.0476,0.33173 -0.0187,0.0179 -0.0318,0.0892 -0.0318,0.15984 0,0.10589 0.0181,0.14809 0.10177,0.24067 0.0558,0.0616 0.10179,0.13298 0.10179,0.15601 0,0.023 0.0123,0.0435 0.0251,0.0435 0.0473,0 0.21465,0.37633 0.1837,0.41367 -0.0591,0.0714 -0.0715,0.30225 -0.0225,0.40046 0.054,0.10537 0.0603,0.20588 0.0199,0.28017 -0.0148,0.0276 -0.0373,0.0987 -0.0449,0.15857 -0.01,0.0598 -0.0295,0.10844 -0.0423,0.10844 -0.0138,0 -0.0347,0.0696 -0.0449,0.1532 -0.0113,0.0839 -0.0363,0.17007 -0.0541,0.19308 -0.021,0.0255 -0.0335,0.17392 -0.0357,0.37668 -0.003,0.1849 -0.0161,0.40787 -0.0264,0.4956 -0.0171,0.14091 -0.0141,0.15293 0.0212,0.10178 0.0591,-0.0854 0.15937,-0.43935 0.18238,-0.6304 0.0102,-0.0916 0.0295,-0.1734 0.0423,-0.18107 0.0131,-0.008 0.0347,-0.11049 0.0449,-0.22608 0.0115,-0.11586 0.032,-0.22379 0.0423,-0.23913 0.012,-0.0153 0.0307,-0.10436 0.0384,-0.19693 0.009,-0.0926 0.031,-0.18568 0.0489,-0.2087 0.0179,-0.0205 0.0412,-0.18132 0.0489,-0.35552 0.0135,-0.25959 0.009,-0.33409 -0.0304,-0.41235 -0.0514,-0.1046 -0.0645,-0.31851 -0.0184,-0.31851 0.0161,0 0.029,-0.0179 0.029,-0.0396 0,-0.0205 0.0205,-0.0563 0.0436,-0.0767 0.0662,-0.055 0.0516,-0.15064 -0.033,-0.21816 -0.0478,-0.0381 -0.0753,-0.0892 -0.0753,-0.13734 0,-0.10895 0.15286,-0.25191 0.28943,-0.27227 0.16353,-0.023 0.26829,-0.0749 0.26829,-0.13223 0,-0.0279 0.0138,-0.0517 0.029,-0.0517 0.0162,0 0.0291,-0.0205 0.0291,-0.0435 0,-0.023 -0.011,-0.0435 -0.0264,-0.0435 -0.0146,0 -0.036,-0.0394 -0.0463,-0.0872 -0.0105,-0.0478 -0.0309,-0.0859 -0.0437,-0.0859 -0.0135,0 -0.0347,-0.0849 -0.0449,-0.18772 -0.0162,-0.1514 -0.0372,-0.20818 -0.11232,-0.29737 -0.0512,-0.0609 -0.13494,-0.18516 -0.18635,-0.27753 -0.0818,-0.14911 -0.0919,-0.18389 -0.074,-0.31322 0.0212,-0.15882 0.13166,-0.30213 0.25109,-0.32514 v -9e-4 c 0.0357,-0.008 0.19453,-0.0128 0.35157,-0.0153 0.42439,-0.005 0.49769,0.0414 0.72556,0.46788 l 0.10442,0.19565 -0.0159,0.51014 -0.0146,0.51015 0.10838,0.0913 c 0.33389,0.27971 0.44274,0.43991 0.44274,0.64759 0,0.13605 -0.0707,0.3904 -0.13481,0.48503 -0.0548,0.0811 -0.047,0.14373 0.0238,0.20741 0.0539,0.0502 0.059,0.0762 0.0463,0.2802 -0.008,0.12429 -0.0282,0.2399 -0.0436,0.26036 -0.0151,0.0205 -0.036,0.24628 -0.0463,0.50355 -0.0117,0.30342 -0.0312,0.49409 -0.0568,0.54319 -0.0427,0.0824 -0.22721,0.26634 -0.28681,0.2868 -0.0299,0.0102 -0.0291,0.031 0,0.11227 0.0402,0.11484 0.0489,0.89475 0.009,0.89475 -0.0133,0 -0.0347,0.18517 -0.0449,0.41235 -0.0251,0.48849 -0.0365,0.62332 -0.0621,0.71104 -0.0128,0.0396 -0.008,0.0647 0.0117,0.0647 0.0446,0 0.0435,0.33255 -9e-4,0.40442 -0.0272,0.0425 -0.0282,0.0721 -0.003,0.12301 0.0184,0.0368 0.0427,0.122 0.0529,0.189 0.0169,0.10997 0.0261,0.12174 0.10972,0.12942 0.0782,0.008 0.0975,0.0261 0.12818,0.1202 0.0197,0.0611 0.0452,0.26317 0.0529,0.44935 0.009,0.18593 0.0295,0.36478 0.0423,0.3965 0.0141,0.0319 0.0389,0.22071 0.0542,0.42028 0.0164,0.19922 0.0441,0.4795 0.0595,0.62247 0.0194,0.16853 0.0192,0.33117 9e-4,0.46391 -0.0772,0.56979 -0.0973,0.68195 -0.12027,0.68195 -0.0153,0 -0.0251,0.0494 -0.0251,0.10972 0,0.0604 -0.0205,0.18107 -0.0436,0.26829 -0.0243,0.087 -0.0547,0.22429 -0.07,0.30398 -0.0146,0.0798 -0.0471,0.18338 -0.0727,0.2312 -0.0255,0.0489 -0.0448,0.15857 -0.0449,0.24987 0,0.0892 -0.0205,0.20077 -0.0436,0.24834 -0.0251,0.0506 -0.0405,0.15191 -0.0383,0.24322 0.005,0.13606 -0.009,0.18107 -0.10836,0.3436 -0.0624,0.10281 -0.16936,0.24731 -0.2379,0.31984 -0.0688,0.0724 -0.14956,0.15729 -0.17974,0.189 -0.0811,0.0854 -0.14062,0.13095 -0.17182,0.13095 -0.0151,0 -0.0931,0.0524 -0.17444,0.11636 -0.0969,0.0767 -0.14873,0.13862 -0.14937,0.18108 -5e-4,0.0355 -0.0259,0.11713 -0.0568,0.18107 -0.12693,-3.9e-4 -0.22933,0.008 -0.32115,0.0179 8.8e-4,0.005 0.002,0.0102 9e-4,0.0128 -0.0128,0.0616 -0.0557,0.15422 -0.0925,0.20486 -0.058,0.0811 -0.06,0.10562 -0.0199,0.20076 0.0255,0.0596 0.086,0.14374 0.13613,0.18645 0.0502,0.0427 0.11489,0.0979 0.14404,0.12301 0.1289,0.11049 0.16455,0.64015 0.074,1.10224 -0.0376,0.19182 -0.058,0.23708 -0.12555,0.26432 -0.0445,0.0179 -0.12714,0.0693 -0.18237,0.11356 -0.16855,0.1358 -0.52524,0.27097 -0.87626,0.3304 -0.13427,0.023 -0.21578,0.0333 -0.26432,0.0343 z m 1.84103,-5.88787 c 0.0271,0.008 0.0356,-0.0668 0.0356,-0.27887 0,-0.17417 0.0113,-0.29235 0.0291,-0.30002 h -0.003 c 0.0199,-0.005 0.0153,-0.0309 -0.0105,-0.0659 -0.0394,-0.054 -0.0425,-0.0509 -0.0714,0.058 -0.0736,0.2842 -0.0653,0.55844 0.0199,0.58682 z"
         inkscape:transform-center-x="1.7090559"
         inkscape:transform-center-y="1.1605284" />
    </g>
  </g>
</svg>
