<?xml version="1.0" encoding="UTF-8" standalone="no"?>
<!-- Created with Inkscape (http://www.inkscape.org/) -->

<svg
   width="17.305729mm"
   height="4.9751439mm"
   viewBox="0 0 17.305729 4.9751439"
   version="1.1"
   id="svg1"
   xml:space="preserve"
   sodipodi:docname="inkporter-svg-7ugop3rk.svg"
   xmlns:inkscape="http://www.inkscape.org/namespaces/inkscape"
   xmlns:sodipodi="http://sodipodi.sourceforge.net/DTD/sodipodi-0.dtd"
   xmlns="http://www.w3.org/2000/svg"
   xmlns:svg="http://www.w3.org/2000/svg"><sodipodi:namedview
     id="namedview1"
     pagecolor="#ffffff"
     bordercolor="#666666"
     borderopacity="1.0"
     inkscape:showpageshadow="2"
     inkscape:pageopacity="0.0"
     inkscape:pagecheckerboard="0"
     inkscape:deskcolor="#d1d1d1"
     inkscape:document-units="mm"
     inkscape:zoom="1.0293026"
     inkscape:cx="421.15893"
     inkscape:cy="460.02019"
     inkscape:window-width="1920"
     inkscape:window-height="1017"
     inkscape:window-x="-8"
     inkscape:window-y="-8"
     inkscape:window-maximized="1"
     inkscape:current-layer="layer1" /><defs
     id="defs1" /><g
     inkscape:label="Layer 1"
     inkscape:groupmode="layer"
     id="layer1"
     transform="translate(-167.74583,-43.65625)"><g
       id="IT-47mm"
       transform="translate(133.21648,180.88462)"><path
         style="fill:#000000;stroke-width:0.0864642"
         d="m 39.06036,-132.77403 c -0.05591,-0.0118 -0.177476,-0.0575 -0.270142,-0.10147 -0.582622,-0.27669 -0.817822,-1.03435 -0.493248,-1.58895 0.08239,-0.14078 0.261876,-0.3276 0.399689,-0.41604 0.06193,-0.0397 0.108444,-0.0838 0.103377,-0.0979 -0.0051,-0.0141 0.0046,-0.0529 0.02135,-0.0862 0.02609,-0.0517 0.02553,-0.0648 -0.0038,-0.0891 -0.02233,-0.0185 -0.493361,-0.0695 -1.349123,-0.14608 -1.473173,-0.13175 -1.394908,-0.11479 -1.394908,-0.30181 0,-0.0863 0.01123,-0.11375 0.06578,-0.16069 0.06262,-0.0538 0.07856,-0.0564 0.331717,-0.0521 0.146263,0.003 0.327701,-0.007 0.403195,-0.0196 0.0755,-0.0133 0.312271,-0.0257 0.526171,-0.0276 0.241152,-0.003 0.371526,-0.0104 0.343155,-0.0232 -0.02517,-0.0104 -0.758659,-0.0892 -1.629987,-0.17402 l -1.584231,-0.1543 3.51e-4,-0.0589 c 7.39e-4,-0.12549 -0.0727,-0.12589 1.573441,0.009 0.844961,0.0695 1.572593,0.12615 1.616957,0.12615 0.07156,0 0.08067,-0.007 0.08067,-0.0593 0,-0.0573 0.0037,-0.0589 0.108665,-0.0462 0.05976,0.008 0.30267,0.03 0.53979,0.0508 0.348487,0.0306 0.447381,0.0324 0.515944,0.009 0.06936,-0.0229 0.195863,-0.0193 0.694068,0.02 0.335086,0.0264 0.620217,0.0479 0.633625,0.0479 0.01365,0 0.02437,-0.0453 0.02437,-0.10291 0,-0.0567 0.01032,-0.1029 0.02287,-0.1029 0.01254,0 0.02287,0.0154 0.02287,0.0343 0,0.0549 0.0647,0.0396 0.07275,-0.0171 0.004,-0.0283 0.02276,-0.0514 0.04162,-0.0514 0.02634,0 0.03433,0.0292 0.03433,0.12576 0,0.11309 0.0052,0.12654 0.05148,0.13314 0.06003,0.009 0.05925,0.003 0.02472,0.1776 -0.02202,0.11153 -0.04785,0.15957 -0.146799,0.27301 l -0.120066,0.13763 -0.162043,-0.0118 c -0.1124,-0.008 -0.162038,-0.004 -0.162038,0.0139 0,0.0312 0.09947,0.0445 0.600519,0.0807 0.364366,0.0263 0.38319,0.03 0.38319,0.0754 0,0.0315 -0.06331,0.1016 -0.186289,0.20606 l -0.186291,0.15835 -0.15729,-0.027 c -0.227743,-0.039 -0.311588,-0.0323 -0.462875,0.0374 l -0.134854,0.0622 0.09663,0.067 c 0.264054,0.18298 0.435163,0.47392 0.492362,0.83713 l 0.0128,0.0811 0.387995,0.055 c 0.213396,0.0302 0.393358,0.0496 0.399911,0.0431 l 3.122825,0.51633 c 0.318541,0.0782 0.332202,0.0798 0.371901,0.0401 l 0.383469,0.18145 c 3.45e-4,0.023 0.05627,0.0616 0.148673,0.10291 0.08145,0.0364 0.14802,0.0713 0.147941,0.0776 -1.75e-4,0.0158 -0.07147,0.0968 -0.115913,0.13176 -0.0306,0.024 -0.0754,0.0104 -0.272712,-0.0844 -0.176653,-0.0846 -0.246195,-0.10773 -0.276146,-0.0917 -0.06883,0.0368 -0.355138,0.0264 -0.396,-0.0145 -0.04146,-0.0414 -0.04558,-0.0697 -0.01308,-0.0898 l -3.024158,-0.44781 -0.140819,0.0152 c -0.07745,0.008 -0.147179,0.0164 -0.154952,0.018 -0.0078,0.001 -0.03367,-0.0209 -0.05751,-0.0502 -0.03369,-0.0411 -0.0791,-0.0576 -0.203197,-0.0737 -0.0879,-0.0117 -0.202317,-0.0209 -0.254258,-0.0213 -0.0942,-7e-4 -0.09456,-3.5e-4 -0.143664,0.13089 -0.15428,0.41254 -0.561711,0.70713 -1.005316,0.7269 -0.108809,0.005 -0.243576,-7e-4 -0.299485,-0.013 z"
         id="path1-86"
         sodipodi:nodetypes="ccscccscscccccccscssccccsssssssccsccsssccccccsccccccssccccccccccscccc" /><path
         id="path66853-3-1"
         style="fill:#000000;stroke-width:0.030492"
         d="m 42.279934,-136.82847 c 0.183293,-0.01 0.193068,0.14442 0.12852,0.28889 -0.05378,0.19654 -0.05744,0.40203 -0.07921,0.60366 0.142921,-0.007 0.261225,0.0774 0.313613,0.20522 0.04637,0.1135 0.138567,0.17722 0.249121,0.22102 0.01439,0.17929 0.245519,0.25617 0.279213,0.40124 -0.07559,0.15448 0.0936,0.25618 0.144914,0.38848 0.07989,0.16061 0.197912,0.31749 0.255153,0.48378 -0.009,0.16814 -0.09951,0.3395 -0.111731,0.49257 0.06643,0.11342 0.150124,0.25638 0.04389,0.37009 0.07458,0.0819 0.115221,0.17445 0.09416,0.28647 0.0308,0.12335 -0.0338,0.20788 -0.126037,0.28114 -0.05149,0.0926 -0.206424,0.16055 -0.269462,0.0548 -0.112847,-0.10166 -0.04072,-0.24506 -0.0333,-0.37385 -0.105943,-0.0718 -0.195016,-0.19353 -0.337161,-0.15816 -0.100143,0.0787 -0.126724,0.24016 -0.05887,0.3605 0.04083,0.13045 0.162595,0.35486 0.01563,0.44886 -0.351702,0.0152 -0.711063,0.0797 -1.058171,0.005 -0.01446,-0.10001 0.08891,-0.26146 -0.01584,-0.31435 -0.13971,-0.0703 -0.231073,-0.22941 -0.174886,-0.38141 -0.03598,-0.16009 0.20362,-0.38512 0.06447,-0.4848 -0.05764,-0.0753 0.06054,-0.21029 0.07586,-0.31038 0.06243,-0.064 0.05781,-0.29237 -0.01302,-0.2469 -0.13583,0.11219 -0.383663,-0.0204 -0.55016,-0.0342 -0.298232,-0.0789 -0.585947,-0.19307 -0.885667,-0.26725 -0.07236,-0.0854 -0.181327,-0.15567 -0.231429,-0.2503 -0.05408,-0.21745 0.240401,-0.044 0.358366,-0.0562 0.219608,0.0208 0.292424,0.31343 0.51477,0.25639 0.150096,-0.002 0.300192,-0.003 0.450289,-0.005 0.100548,-0.1397 0.123698,-0.32134 -0.08314,-0.22658 -0.183664,-0.0149 -0.06208,-0.29953 0.101363,-0.32043 -0.02854,-0.12057 0.10275,-0.39374 -0.06023,-0.384 -0.09881,-0.0221 -0.286233,0.065 -0.275967,-0.0915 -0.09499,-0.26222 -0.165929,-0.54162 -0.151511,-0.82329 0.07993,-0.10023 0.197534,-0.0695 0.309118,-0.0597 0.217671,0.0559 0.559911,-0.0708 0.630276,0.21334 3.53e-4,0.0912 -0.100023,0.2093 -0.04088,0.28418 0.129734,0.0522 0.399588,0.11237 0.377924,-0.10512 0.13547,-0.23267 0.06473,-0.51995 0.150037,-0.75256 z m -0.426826,4.08849 c -0.14007,0.20798 0.06005,0.0696 0.09491,0.0249 -0.03164,-0.008 -0.06328,-0.0166 -0.09491,-0.0249 z" /><path
         id="path66851-14-7"
         style="fill:#000000;stroke-width:0.030492"
         d="m 44.735911,-137.22837 c 0.178883,0.0639 0.254497,0.16123 0.02131,0.11464 -0.269614,-0.0267 -0.165107,0.0535 0.04088,0.0357 0.378474,-0.0444 -0.141387,0.17661 -0.289624,0.10534 -0.160821,-0.014 0.240051,0.0936 0.0067,0.15254 0.104309,0.007 -0.09554,0.19382 0.09541,0.0638 0.107065,-0.0431 -0.150798,0.22178 -0.04009,0.14804 0.126552,-0.0327 -0.196932,0.13214 0.04763,0.0894 0.06341,0.10309 0.186059,-0.15448 0.257083,-0.0702 0.01577,0.10561 -0.04795,0.24618 0.06956,0.30701 0.171665,0.10833 0.160383,0.20398 -0.07411,0.16479 -0.180781,-0.0405 -0.460206,0.0508 -0.583974,-0.0966 -0.05504,-0.15351 -0.289719,-0.22563 -0.265257,-0.40323 0.02184,-0.18354 -0.09987,-0.28381 -0.218782,-0.34162 -0.119236,-0.0325 -0.191241,0.0543 -0.267279,0.13087 0.0021,0.22917 0.17393,0.42376 0.21542,0.6492 0.03224,0.16862 0.213752,0.24266 0.318481,0.36537 0.120717,0.12307 0.319507,0.10518 0.466619,0.18581 0.194074,0.0186 0.172124,0.19426 0.178372,0.33585 -0.0021,0.13219 0.0374,0.28229 0.0092,0.40318 -0.127765,0.0549 -0.101621,0.18442 -0.105428,0.29943 -0.100654,0.10972 -0.317771,0.15087 -0.446454,0.26312 -0.14054,0.0921 -0.117729,0.30123 -0.15179,0.45242 0.101061,0.12428 0.278039,0.20581 0.286608,0.38209 0.04531,0.17013 0.05312,0.34682 0.05038,0.522 -0.07523,0.0736 -0.193442,0.12648 -0.243939,0.21207 -0.03919,0.24172 0.267928,0.13767 0.418493,0.15897 0.102221,-0.006 0.191287,-0.076 0.288424,-0.10673 -0.04009,-0.29438 -0.05532,-0.59127 -0.07426,-0.88755 0.08457,-0.056 0.199831,-0.0956 0.160023,-0.2189 0.08119,-0.12379 0.512766,-0.27392 0.503273,0.0138 0.127621,0.32974 0.132323,0.69862 0.29059,1.01537 0.104923,0.0606 0.210002,0.1203 0.335139,0.0881 0.0928,-0.022 0.24167,0.0422 0.264823,-0.0871 0.07873,-0.1455 0.02032,-0.32348 0.03777,-0.48349 0.01386,-0.20132 -0.01418,-0.39728 -0.06584,-0.59156 -0.05154,-0.22214 -0.04099,-0.46119 -0.08629,-0.68026 -0.102909,-0.10523 -0.187776,-0.28502 0.03182,-0.22668 0.170822,0.0509 0.307685,-0.11578 0.280931,-0.28294 -0.0145,-0.33267 -0.221823,-0.61215 -0.348947,-0.91078 -0.155744,-0.0908 -0.369408,-0.0583 -0.486653,-0.20951 -0.189946,-0.0967 0.177193,-0.11799 0.09168,-0.26601 -3.53e-4,-0.23207 -0.127297,-0.47754 -0.338692,-0.54894 -0.152996,0.0118 -0.06701,-0.20377 -0.223001,-0.11042 -0.112723,0.0697 -0.08209,-0.24024 -0.16214,-0.009 -0.09057,-0.0556 -0.182217,-0.13216 -0.294157,-0.1271 z m -0.05956,0.38246 c 0.08021,0.0402 -0.116301,0.0431 0,0 z" /><path
         id="path42018-0-8-8-1"
         style="stroke-width:0.0262677"
         d="m 553.44768,760.20578 -0.27258,-0.16635 -0.27257,-0.16634 -0.1328,-0.4459 c -0.046,-0.087 -0.10684,-0.18432 -0.0978,-0.24602 l 0.014,-0.0937 c -0.0295,-0.14566 -0.0489,-0.27982 -0.0489,-0.35784 v -0.25161 l 0.17193,-0.27817 0.0559,-0.0895 10e-4,-0.004 c 0.0218,-0.0435 0.0422,-0.0879 0.0419,-0.13839 -6e-4,-0.0761 -0.02,-0.15381 -0.0657,-0.24881 -0.0457,-0.095 -0.11719,-0.21332 -0.22924,-0.3872 -0.0414,-0.0641 -0.22747,-0.40326 -0.39419,-0.72408 -0.0839,-0.16142 -0.16544,-0.3143 -0.22924,-0.43193 -0.0319,-0.0588 -0.0583,-0.10907 -0.0797,-0.14677 -0.0214,-0.0377 -0.0297,-0.0563 -0.0503,-0.0825 -0.10612,-0.1346 -0.20158,-0.26214 -0.27398,-0.36344 -0.0724,-0.1013 -0.1256,-0.18729 -0.1286,-0.19429 -8e-4,-0.002 -0.019,-0.0641 -0.0349,-0.13559 -0.016,-0.0715 -0.0331,-0.16012 -0.0475,-0.24742 -0.0583,-0.35348 -0.11524,-0.63626 -0.16914,-0.84569 -0.0539,-0.20943 -0.0906,-0.33973 -0.17193,-0.42633 -0.0375,-0.0401 -0.0755,-0.0581 -0.1258,-0.0839 -0.0503,-0.0258 -0.10815,-0.0515 -0.16635,-0.0727 -0.23521,-0.0857 -0.39903,-0.23351 -0.49343,-0.43892 -0.0658,-0.14317 -0.0677,-0.15422 -0.0671,-0.3872 6e-4,-0.17477 0.0163,-0.29152 0.0433,-0.37462 0.0453,-0.13873 0.0556,-0.29944 0.0671,-0.94912 0.006,-0.36428 0.011,-0.56126 0.021,-0.68214 0.01,-0.12088 0.0203,-0.16022 0.0489,-0.24322 0.0401,-0.11659 0.0651,-0.21513 0.0671,-0.30333 0.002,-0.0882 -0.023,-0.17164 -0.0727,-0.23484 -0.0344,-0.0437 -0.0714,-0.0643 -0.12161,-0.0965 -0.0502,-0.0321 -0.10894,-0.0646 -0.16914,-0.0937 -0.1083,-0.0523 -0.24347,-0.13057 -0.27257,-0.15237 -0.12496,-0.0936 -0.2577,-0.14609 -0.48784,-0.19849 -0.14629,-0.0332 -0.15567,-0.0387 -0.21247,-0.10344 -0.0339,-0.0386 -0.0397,-0.0481 -0.0447,-0.0657 -0.005,-0.0176 -0.01,-0.0573 -0.01,-0.13558 0,-0.10233 0.009,-0.15144 0.0224,-0.17334 0.0131,-0.0218 0.0385,-0.04 0.11602,-0.0699 0.12226,-0.0472 0.41341,-0.0506 0.7059,0 0.2925,0.0506 0.59512,0.151 0.76182,0.26 0.0174,0.0114 0.036,0.0222 0.0629,0.0322 0.0269,0.01 0.0626,0.0134 0.0923,0.008 0.0594,-0.01 0.1034,-0.0335 0.1887,-0.0755 0.15774,-0.0777 0.13803,-0.0756 0.28935,-0.0615 0.18866,0.0176 0.31336,0.0919 0.34946,0.15795 0.005,0.008 0.021,0.0588 0.028,0.12161 0.008,0.0628 0.0108,0.14036 0.01,0.22086 -0.002,0.16107 -0.0259,0.33625 -0.0559,0.41795 l -0.0587,0.15376 c -0.006,0.0155 -0.009,0.0324 -0.007,0.0489 l 0.0573,0.39558 c 0.05,0.35145 0.0544,0.42928 0.0335,0.86107 -0.007,0.1338 -0.012,0.25685 -0.014,0.34945 -0.001,0.0463 -0.003,0.0842 -0.003,0.11323 0,0.0145 0.002,0.0253 0.003,0.0363 0,0.005 4e-4,0.0112 10e-4,0.0182 10e-4,0.004 7.9e-4,0.008 0.003,0.014 0.001,0.003 0.003,0.0109 0.003,0.0112 0,2e-4 0.0111,0.0194 0.0112,0.0196 -1e-5,10e-4 -1e-5,0.002 0,0.003 0.0382,0.057 0.10493,0.0891 0.17333,0.10064 0.0684,0.0114 0.14384,0.009 0.23624,-0.006 0.12644,-0.0195 0.25462,-0.017 0.5801,0.014 0.23546,0.0224 0.47083,0.0405 0.55633,0.0405 h 0.12161 c 0.0581,-8e-5 0.10325,-0.0497 0.0992,-0.10764 l -0.0154,-0.18311 c -0.004,-0.0479 -0.005,-0.0979 -0.006,-0.13559 -1.7e-4,-0.0153 -2.2e-4,-0.0262 0,-0.0363 0.002,-0.002 0.002,-0.003 0.004,-0.004 0.0149,-0.0102 0.0361,-0.0227 0.0573,-0.0308 0.0499,-0.0199 0.0934,-0.0302 0.13139,-0.0867 0.0194,-0.0283 0.0246,-0.0619 0.0238,-0.0867 -0.001,-0.0232 -0.006,-0.0426 -0.01,-0.0615 -0.0134,-0.0753 -0.0543,-0.17477 -0.0964,-0.27257 -0.10321,-0.23954 -0.1439,-0.39422 -0.1915,-0.72128 -0.0287,-0.19634 -0.0762,-0.38961 -0.13979,-0.55214 -0.0878,-0.22334 -0.0879,-0.21717 -0.0908,-0.54096 -0.002,-0.2808 0.006,-0.34843 0.0517,-0.49623 0.0958,-0.30469 0.25733,-0.46748 0.58988,-0.58989 0.10934,-0.0402 0.23881,-0.10296 0.31591,-0.15516 0.0366,-0.0247 0.1876,-0.0874 0.29634,-0.11602 0.12404,-0.0325 0.36388,-0.10444 0.53956,-0.16214 0.0844,-0.0277 0.17322,-0.0546 0.24462,-0.0727 0.0714,-0.0183 0.13779,-0.028 0.13279,-0.028 -0.0102,0 0.0587,0.0132 0.14957,0.0489 0.0909,0.0358 0.21663,0.0913 0.37182,0.16494 0.1286,0.0609 0.25167,0.12093 0.34387,0.17053 0.0461,0.0247 0.0833,0.0492 0.11043,0.0657 0.0135,0.008 0.0262,0.0132 0.0322,0.0182 0.007,0.008 0.009,0.006 0.0154,0.0755 0.006,0.0716 0.008,0.20023 0.008,0.42494 v 0.5144 c -2e-4,0.0194 0.005,0.0382 0.0154,0.0545 l 0.0881,0.1342 c 0.13692,0.20739 0.19045,0.32648 0.22785,0.50601 0.0305,0.14578 0.0276,0.22561 -0.0196,0.31311 -0.0472,0.0875 -0.15369,0.19284 -0.34946,0.34527 -0.0154,0.012 -0.0314,0.0207 -0.0489,0.0405 -0.0175,0.0197 -0.0333,0.0555 -0.0363,0.0867 -0.006,0.0624 0.0104,0.0977 0.0308,0.16634 0.0119,0.0403 0.0208,0.0634 0.0238,0.0769 0.003,0.0136 10e-4,0.017 -0.003,0.0391 -0.009,0.0442 -0.0467,0.14722 -0.13,0.36903 -0.0351,0.0934 -0.0557,0.14829 -0.0657,0.19849 -0.005,0.025 -0.01,0.0527 0.004,0.0895 0.014,0.0368 0.0537,0.0651 0.0769,0.0741 h 10e-4 c 0.0347,0.013 0.0552,0.009 0.0741,0.006 0.0188,-0.003 0.036,-0.009 0.0531,-0.0154 0.0342,-0.013 0.0682,-0.0311 0.10204,-0.0545 0.0448,-0.031 0.13652,-0.0804 0.18172,-0.0992 0.0538,-0.0223 0.15714,-0.0419 0.2572,-0.0489 0.10007,-0.007 0.20293,0.002 0.23903,0.014 0.0494,0.0165 0.0922,0.027 0.14398,0.021 0.0518,-0.006 0.0918,-0.0279 0.13698,-0.0545 0.0553,-0.0331 0.0828,-0.0398 0.0978,-0.0391 0.0151,6e-4 0.0371,0.009 0.0839,0.0447 0.0805,0.0614 0.11759,0.11567 0.13699,0.21107 0.0193,0.0954 0.0137,0.23545 -0.0224,0.43892 -0.0581,0.32839 -0.0797,0.40158 -0.29913,1.08052 -0.0404,0.12493 -0.0659,0.21182 -0.0503,0.30612 0.0156,0.0943 0.0709,0.1672 0.14817,0.2586 0.0652,0.0771 0.14355,0.20353 0.15655,0.23763 0.0194,0.0512 0.0239,0.0683 0.0238,0.0783 -10e-5,0.01 -0.006,0.0325 -0.028,0.0895 -0.0353,0.0956 -0.0595,0.14404 -0.0797,0.16634 -0.0202,0.0222 -0.0439,0.0345 -0.11322,0.0573 -0.0665,0.0219 -0.12889,0.0555 -0.20269,0.11322 -0.0738,0.0577 -0.16463,0.13905 -0.30193,0.27258 -0.17952,0.17458 -0.35458,0.34829 -0.39838,0.39279 -0.0512,0.052 -0.0904,0.12267 -0.12301,0.23763 -0.0326,0.11497 -0.0645,0.28218 -0.11322,0.55494 -0.0502,0.28071 -0.137,0.55568 -0.1943,0.65418 -0.017,0.0292 -0.034,0.0692 -0.0629,0.13279 -0.029,0.0636 -0.0661,0.14385 -0.10204,0.22645 -0.0354,0.0812 -0.0728,0.16315 -0.10344,0.22785 -0.0305,0.0647 -0.0592,0.11921 -0.0601,0.12021 -0.0348,0.053 -0.1249,0.0965 -0.33268,0.0965 h -0.1943 c -0.0372,5e-4 -0.0713,0.0213 -0.0881,0.0545 l -0.0936,0.18171 c -0.001,-10e-6 -0.002,-10e-6 -0.003,0 l -0.0908,0.18312 c -0.028,0.0549 -10e-4,0.12238 0.0573,0.14118 0.005,0.19794 0.003,0.54236 0.003,0.54236 -0.0151,0.0529 -0.0236,0.10979 -0.028,0.18032 l 0.0657,-0.0531 0.22086,-0.18172 0.10903,-0.22924 0.10763,-0.22924 0.0517,0.0433 c 0.0285,0.0241 0.12269,0.007 0.20968,-0.0377 l 0.15795,-0.0811 -0.0825,0.1943 -0.0839,0.1943 0.11462,-0.10204 0.11463,-0.10204 -0.0741,0.17053 -0.0741,0.16914 0.0671,0.13838 0.0657,0.13839 -0.008,-0.0951 c -0.0114,-0.11253 0.13818,-0.27158 0.21946,-0.23344 0.0313,0.0149 0.0298,0.0857 -0.004,0.15795 l -0.0615,0.1314 0.0825,-0.0112 0.0825,-0.008 -0.0657,0.13839 -0.0643,0.13838 0.11322,0.006 c 0.0626,0.003 0.17447,0.007 0.24742,0.0126 l 0.13279,0.008 -0.39418,0.17193 c -0.40311,0.17561 -0.55213,0.27844 -0.8401,0.58429 l -0.16494,0.17613 0.0545,0.0238 c 0.03,0.0141 0.26088,-0.0798 0.513,-0.20967 0.25213,-0.12973 0.52166,-0.25364 0.59967,-0.27258 0.26868,-0.0697 0.0983,0.0539 -0.35784,0.26 l -0.45709,0.20688 0.0755,0.0349 c 0.0411,0.0189 0.18886,0.0306 0.32849,0.0252 l 0.25301,-0.0112 -0.13,0.0615 c -0.0718,0.0325 -0.30275,0.0454 -0.513,0.0238 l -0.38161,-0.0363 -0.29914,0.11182 c -0.1647,0.0609 -0.34193,0.0942 -0.39279,0.0699 -0.0509,-0.0243 -0.13633,-0.0273 -0.1901,-0.008 l -0.0978,0.0349 -0.35085,0.004 z m -0.0643,-8.53794 c -0.009,0.01 -0.0115,0.0205 0,-0.014 0.005,-0.0149 6.1e-4,-0.005 0,0.006 -1.1e-4,0.002 5e-5,0.006 0,0.008 z m 2.1904,7.44344 0.10763,-0.0657 c 0.0588,-0.0365 0.12608,-0.1094 0.15097,-0.16215 l 0.0461,-0.0965 -0.10764,0.0671 c -0.0588,0.0365 -0.12608,0.1094 -0.15096,0.16214 z m -2.76071,-3.97962 c 10e-4,0 0.0479,-0.005 0.0489,-0.006 6e-4,0 0.0108,-0.007 0.0168,-0.01 0.005,-0.004 0.0114,-0.007 0.0154,-0.0112 0.009,-0.007 0.0132,-0.015 0.0182,-0.021 0.0372,-0.0496 0.0375,-0.0789 0.0489,-0.13419 0.0113,-0.0553 0.0226,-0.12786 0.0349,-0.21946 0.0206,-0.15252 0.0562,-0.34587 0.0727,-0.40397 0.0132,-0.0471 0.0238,-0.0847 0.0308,-0.11742 0.007,-0.0327 0.0141,-0.0627 0,-0.10763 -0.0141,-0.0448 -0.0686,-0.0815 -0.10204,-0.0895 -0.0333,-0.008 -0.0566,-0.005 -0.0853,-0.006 -0.034,-10e-5 -0.12933,-0.0173 -0.17193,-0.0322 -0.0315,-0.0109 -0.0625,-0.0206 -0.0895,-0.0266 -0.0127,-0.002 -0.0555,-0.008 -0.0657,-0.008 h -10e-4 c -0.005,2.4e-4 -0.0107,0.002 -0.0182,0.004 -0.004,10e-4 -0.0136,0.004 -0.014,0.004 -4e-4,0 -0.0179,0.008 -0.0182,0.008 -0.003,0.002 -0.004,0.004 -0.007,0.006 -2e-4,2e-4 -0.0151,0.0137 -0.0154,0.014 0,3e-4 -0.006,0.008 -0.008,0.0112 -0.004,0.006 -0.006,0.01 -0.008,0.014 -0.004,0.008 -0.008,0.015 -0.01,0.021 -0.005,0.0129 -0.007,0.0254 -0.0112,0.0405 -0.008,0.0302 -0.0174,0.0678 -0.0224,0.10763 -0.0286,0.20799 0.0106,0.38535 0.1272,0.53816 0.0415,0.0545 0.0881,0.1531 0.0951,0.1929 0.0116,0.0622 0.0211,0.10698 0.0378,0.14678 0.008,0.0199 0.01,0.0437 0.0559,0.0699 0.006,0.003 0.019,0.008 0.0196,0.008 6e-4,0 0.0259,0.006 0.0266,0.006 z"
         transform="matrix(0.36969061,0,0,-0.36969061,-156.67452,144.16092)" /><path
         id="path25035-6"
         style="fill:#000000;stroke-width:0.00848891"
         d="m 50.513196,-136.56169 -0.03772,0.0636 -0.03669,0.0636 h -0.06666 c -0.03636,0 -0.105455,0.0291 -0.153479,0.0636 -0.04802,0.035 -0.119845,0.0828 -0.15968,0.10542 l -0.07235,0.0403 v 0.15607 0.15503 l -0.08217,0.0372 -0.08216,0.0362 v 0.0708 0.0703 l 0.103353,0.0388 0.08837,0.0336 c -0.01015,0.18803 -0.02787,0.25322 -0.09095,0.3359 -0.202935,0.26606 -0.309104,0.6806 -0.186552,0.7276 0.130894,0.0502 0.247305,0.0187 0.356051,-0.0966 0.06025,-0.0639 0.118417,-0.10691 0.129707,-0.0956 0.03514,0.0352 0.0701,0.41866 0.04082,0.44856 -0.01609,0.0169 -0.08932,0.0136 -0.17415,-0.008 -0.116404,-0.03 -0.16769,-0.0285 -0.25063,0.006 -0.190756,0.0797 -0.196253,0.0986 -0.170533,0.63923 0.01278,0.26875 0.03781,0.506 0.05529,0.5271 0.05519,0.0665 0.01691,0.18246 -0.06666,0.20206 -0.04253,0.0101 -0.106511,0.0568 -0.142111,0.10438 -0.05878,0.0787 -0.06006,0.092 -0.01499,0.14366 0.0091,0.0105 0.01904,0.0258 0.02894,0.0424 h 0.82734 c 0.01983,-0.10646 0.03284,-0.27826 0.02894,-0.42478 -0.0055,-0.20799 0.04614,-0.26221 0.224793,-0.23771 0.162869,0.0223 0.298905,0.0944 0.360185,0.19172 0.02374,0.0377 0.0607,0.20453 0.08217,0.37103 0.005,0.0388 0.0096,0.0686 0.01447,0.0997 h 0.646472 c 0.01791,-0.0532 0.04258,-0.10728 0.06666,-0.14108 0.0601,-0.0844 0.06313,-0.10727 0.02791,-0.22582 -0.14103,-0.4747 -0.144756,-0.49769 -0.08217,-0.56689 0.05358,-0.0592 0.05551,-0.087 0.02119,-0.32247 -0.02769,-0.18996 -0.0581,-0.28229 -0.116271,-0.35139 -0.04336,-0.0516 -0.0877,-0.1209 -0.09819,-0.154 -0.02553,-0.0804 0.03391,-0.22893 0.09147,-0.22893 0.0672,0 0.211873,-0.18498 0.211873,-0.27078 0,-0.0405 -0.0346,-0.18039 -0.077,-0.31058 -0.0424,-0.13018 -0.08227,-0.27267 -0.08837,-0.31677 -0.0073,-0.0523 -0.04701,-0.0985 -0.114721,-0.1323 -0.05714,-0.0286 -0.123902,-0.0686 -0.148312,-0.0889 -0.01323,-0.0111 -0.04742,-0.0275 -0.08992,-0.0444 v -0.0424 c 0,-0.0881 -0.05634,-0.20098 -0.16123,-0.32349 -0.03852,-0.0452 -0.06027,-0.0919 -0.04858,-0.10335 0.01179,-0.0131 0.05587,-0.002 0.09767,0.0196 l 0.07597,0.0408 v -0.0377 c 0,-0.0197 -0.03276,-0.0706 -0.07286,-0.11059 l -0.07286,-0.0729 h -0.18035 -0.179834 l -0.02325,-0.0382 -0.02377,-0.0377 -0.07441,0.0227 -0.07441,0.0227 -0.03204,-0.0486 z m 0.454752,0.39171 c 0.01354,-0.002 0.05851,0.0505 0.104387,0.12299 0.04894,0.077 0.124231,0.17129 0.166915,0.20929 l 0.0093,0.009 c -0.01685,-0.006 -0.03355,-0.012 -0.05064,-0.017 -0.133746,-0.0397 -0.172973,-0.0683 -0.208773,-0.15193 -0.02293,-0.0842 -0.03322,-0.16057 -0.02325,-0.17105 6.13e-4,-6.2e-4 0.0012,-9e-4 0.0021,-0.001 z m -0.736906,3.06906 c 0.01764,0 0.03204,0.0442 0.03204,0.0982 0,0.0572 -0.01332,0.09 -0.03204,0.0785 -0.01764,-0.0109 -0.03204,-0.0552 -0.03204,-0.0982 0,-0.043 0.0144,-0.0786 0.03204,-0.0786 z" /></g></g></svg>
