<?xml version="1.0" encoding="UTF-8" standalone="no"?>
<!-- Created with Inkscape (http://www.inkscape.org/) -->

<svg
   width="8.4706097mm"
   height="5.7167835mm"
   viewBox="0 0 8.4706097 5.7167835"
   version="1.1"
   id="svg4818"
   sodipodi:docname="inkporter-svg-beyuna4l.svg"
   xmlns:inkscape="http://www.inkscape.org/namespaces/inkscape"
   xmlns:sodipodi="http://sodipodi.sourceforge.net/DTD/sodipodi-0.dtd"
   xmlns="http://www.w3.org/2000/svg"
   xmlns:svg="http://www.w3.org/2000/svg">
  <sodipodi:namedview
     id="namedview4820"
     pagecolor="#ffffff"
     bordercolor="#666666"
     borderopacity="1.0"
     inkscape:pageshadow="2"
     inkscape:pageopacity="0.0"
     inkscape:pagecheckerboard="0"
     inkscape:document-units="mm"
     showgrid="false"
     inkscape:zoom="0.45291836"
     inkscape:cx="466.97157"
     inkscape:cy="610.4853"
     inkscape:window-width="1920"
     inkscape:window-height="1017"
     inkscape:window-x="-8"
     inkscape:window-y="-8"
     inkscape:window-maximized="1"
     inkscape:current-layer="layer1" />
  <defs
     id="defs4815" />
  <g
     inkscape:label="Layer 1"
     inkscape:groupmode="layer"
     id="layer1"
     transform="translate(-36.973328,-130.34209)">
    <g
       id="IT-Infantry3"
       transform="matrix(0.10392387,0,0,0.10392387,29.26734,166.55257)">
      <path
         d="m 136.94878,-346.0755 c -1.06195,0.0626 -2.13616,0.27148 -3.15617,0.6357 -1.01522,-0.0602 -2.12777,-0.36756 -3.06464,0.16218 0.6137,-0.0818 2.91467,-0.0518 1.39556,0.44897 -0.91088,0.31666 -3.45828,1.73554 -1.15759,0.86407 0.53018,-0.25311 3.73394,-1.99803 2.38151,-0.57973 -0.97137,1.21478 -2.44962,1.74568 -3.82561,2.34663 0.94332,-0.0206 1.97602,-0.10062 1.1283,0.94297 1.01661,-0.50306 -0.27774,1.75474 0.9312,0.393 -0.1742,-1.23024 0.77247,0.43646 0.2111,0.81328 -0.76412,1.29583 0.93139,-0.79992 0.29615,0.32699 -0.90478,1.1841 0.65799,0.42102 1.07101,0.32824 0.29517,-0.78412 0.69767,-1.48462 1.43762,-1.92183 0.60303,-0.068 0.87508,-1.70814 0.97731,-1.28558 0.0485,1.22611 -0.16742,2.49989 0.4381,3.6254 0.49529,0.70544 -0.0424,1.42001 -0.23495,2.13123 -1.70883,0.32476 -3.55991,0.77147 -4.88932,1.87609 -0.94637,3.09704 -1.29128,6.37142 -1.41882,9.59789 -0.17764,0.78298 0.17146,1.33583 0.80707,1.76376 0.8366,0.44781 0.25311,1.46592 0.32321,2.20718 -0.029,1.86573 -1.46617,4.43906 1.04423,5.05247 0.22202,0.59752 -0.26241,1.39953 -0.31437,2.07635 -0.16689,0.96408 -0.54223,1.95261 -0.57897,2.9014 0.53397,1.28714 1.49709,2.45014 1.46572,3.90125 0.19326,2.63142 0.12417,5.28158 0.6566,7.88119 0.51106,2.17017 -1.23227,4.01836 -1.02168,6.16303 1.13378,0 2.26756,0 3.40134,0 0.50752,-0.47619 1.12568,-0.91581 0.75565,-1.68557 -0.48616,-2.25805 -0.34413,-4.55519 -0.0145,-6.82527 0.11584,-1.94365 0.6852,-3.80344 0.96229,-5.70672 0.21979,-0.85976 1.38573,-3.04183 1.46406,-3.14569 0.21164,1.52284 0.88371,2.92479 0.9852,4.45654 0.44232,4.00771 0.71819,8.11044 0.0512,12.11296 2.43384,0.31159 4.89259,0.35787 7.34374,0.39746 0.53842,-1.38241 -0.72744,-2.24822 -2.02169,-2.21268 -0.77955,-0.0602 -1.11044,-0.95689 -1.68248,-1.40364 -0.0398,-2.81336 0.0883,-5.6252 0.3359,-8.42739 0.63927,-0.4611 0.61618,-1.02405 0.43278,-1.62492 0.87068,-0.53708 0.23455,-2.01632 1.17719,-2.19449 0.82532,-0.0897 0.79436,-1.14107 1.19276,-1.71069 0.45452,-0.81028 -0.111,-1.75597 -0.12888,-2.62895 -0.0319,-0.85569 -0.6031,-1.80149 0.0291,-2.54624 0.67219,-0.81727 0.0341,-1.88402 0.0675,-2.81792 0.1552,-0.52356 -0.77626,-2.84526 -0.13601,-2.48119 1.14926,0.72967 1.84449,1.89275 2.84766,2.74577 0.72422,0.83149 1.68818,0.57635 2.59335,0.15116 0.75062,-0.41028 1.49634,-0.60048 2.26013,-0.12045 0.68623,0.51687 1.26946,0.0453 1.85954,-0.36065 0.12964,-0.66825 -0.1423,-1.36296 -0.91695,-1.50095 -1.6853,-1.07417 -3.50177,-1.90143 -5.18664,-2.93016 -1.606,-1.30756 -3.49687,-2.90909 -3.42186,-5.18163 -0.25922,-2.14549 -0.31024,-4.32492 -0.77336,-6.44029 -1.01374,-1.12096 -2.73516,-1.53704 -3.93688,-2.04714 -0.14829,-0.57761 -1.06389,-1.1692 -0.63236,-1.7365 0.37793,-0.7115 1.07506,-1.33215 0.88109,-2.20611 -0.0671,-1.22181 -0.48617,-2.38101 -0.82165,-3.54707 -0.84873,-0.4469 -1.59347,-1.2635 -2.63293,-1.03232 -0.41226,-4e-4 -0.82452,-9.4e-4 -1.23678,-10e-4 z m -4.42092,3.38171 c -0.40507,1.09471 -1.58476,1.17865 -0.23192,0.1445 0.0773,-0.0482 0.15461,-0.0963 0.23192,-0.1445 z"
         style="fill:#000000;stroke-width:0.264583"
         id="path66655" />
      <path
         id="path58354-0"
         style="fill:#000000;stroke-width:0.284472"
         d="m 116.3058,-348.43256 c -1.3221,0.25263 -2.50871,0.84908 -3.53716,1.59698 -1.29771,0.84365 -2.97802,-0.20537 -4.27859,0.69822 0.63896,-0.11391 3.10326,-0.21108 1.55054,0.39656 -0.96526,0.38744 -3.66427,2.05585 -1.22764,1.00173 0.5217,-0.2245 3.62964,-2.24876 2.65753,-0.8952 -1.00383,1.42063 -2.60331,2.13483 -4.11777,2.86668 0.99092,-0.0619 2.11784,-0.21882 1.26803,0.93555 1.02251,-0.55491 -0.19028,1.8947 1.01333,0.39433 -0.24842,-1.30573 0.84034,0.41483 0.27234,0.85109 -0.71438,1.33641 0.6227,-0.4581 0.42286,0.10107 -0.54334,1.16091 -0.37492,1.08893 0.79827,0.64035 0.56258,0.11966 0.47738,-1.36756 1.09623,-1.67009 0.64741,-0.36471 0.57683,1.80724 0.94497,2.31535 0.9098,1.76747 -0.47509,1.52173 -1.68368,1.9393 -0.71342,0.48027 -0.57251,1.64975 -1.01848,2.37091 -0.45839,0.86226 -0.88932,2.44071 -2.12553,2.25142 -0.71147,-0.0228 -1.5239,0.30859 -1.9357,-0.409 -1.09397,-0.14831 -2.2143,0.86459 -1.8074,1.97922 0.13553,1.11467 0.86915,1.871 1.89474,1.76401 0.79027,0.95663 1.73208,1.90175 1.9357,3.17692 0.65657,0.23074 2.73024,-0.33976 1.78904,0.78956 -0.36766,0.91187 -1.10633,2.56504 0.0374,3.1763 0.75818,0.35483 0.95344,0.94814 0.70683,1.72864 0.0517,0.70342 -0.42997,1.65038 -0.013,2.18696 0.61128,0.41762 1.45779,0.75563 0.84817,1.58322 -0.30544,0.79066 -0.55492,1.58621 -0.28131,2.4266 0.0587,1.09735 0.61682,2.24842 0.0184,3.27517 -0.30186,1.06724 0.57418,2.23693 1.09837,3.13417 0.73569,0.65719 0.42146,1.76683 0.64983,2.64264 0.15638,1.52174 0.39416,3.04258 0.38398,4.57535 -0.69897,0.61179 -1.29765,1.46571 -2.05579,1.93463 -1.26137,-0.28837 -2.21197,0.74372 -1.92683,1.98019 0.86823,0.24148 1.73527,0.52125 2.62481,0.20502 1.57862,-0.28172 3.17382,-0.53263 4.78202,-0.47838 -0.049,0.63813 -0.70662,1.43597 0.0601,1.86028 0.47467,0.40493 0.78523,1.19435 1.53077,0.97585 0.88856,0.003 1.77711,0.005 2.66567,0.008 -0.0579,-0.8347 0.23506,-1.77412 -0.4545,-2.42024 -1.34055,-2.54831 0.0677,-5.38288 0.16242,-8.05506 0.18209,-0.73873 -0.0159,-1.66938 0.41533,-2.28231 0.29828,-0.50365 1.4813,-0.88811 1.14964,-1.47711 0.12158,-0.91965 0.76159,-1.6392 -0.1426,-2.39082 -0.28249,-1.18356 0.75467,-2.77634 0.65686,-4.16303 0.20884,-1.49619 0.40499,-2.99413 0.60808,-4.49112 0.88388,0.19105 1.85988,0.17609 2.498,0.91632 1.48586,1.13341 2.94939,2.29789 4.47934,3.37187 0.23534,-0.71455 0.9854,-1.42883 0.37376,-2.14334 -0.22733,-1.30162 -1.91036,-0.58707 -2.67826,-1.53758 -1.16688,-0.75301 -2.91274,-1.69805 -3.51504,-2.77685 0.59367,-0.60656 1.45033,-1.10353 1.88018,-1.77839 -0.21067,-2.18119 -0.0299,-4.42462 -0.74606,-6.5256 -0.61296,-2.257 -0.99948,-4.70528 -2.73143,-6.42766 -0.44733,-0.66501 -0.98706,-1.21272 -1.77349,-1.44723 -1.02128,-0.68951 -2.46372,-0.016 -3.09658,-1.25008 -0.76387,-0.3135 -0.59458,-1.64887 0.25198,-1.49074 0.61688,-0.12699 1.67018,0.38073 1.74626,-0.53258 0.23783,-0.66888 -0.61336,-1.23589 -0.84293,-1.86091 -0.42638,-0.63895 0.0852,-1.478 0.0567,-2.20179 0.1958,-0.81339 -0.93414,-1.1516 -1.34925,-1.74372 -0.63066,-0.57374 -1.27687,-1.13129 -1.98944,-1.60178 z m -5.75056,4.97827 c -0.28677,1.05238 -1.63924,1.46329 -0.34503,0.23891 0.11501,-0.0796 0.23002,-0.15927 0.34503,-0.23891 z m 6.19449,37.3842 c 0.93242,-0.24485 0.42672,1.02786 0.61078,1.57271 0.0962,1.78895 0.1925,3.5779 0.28875,5.36685 -1.13534,1.32275 -0.62351,-2.02237 -0.81845,-2.76655 -0.036,-1.39079 -0.0538,-2.78202 -0.0811,-4.17301 z" />
      <path
         id="path66849-9-7"
         style="fill:#000000;stroke-width:0.264583"
         d="m 94.50988,-346.08574 c 0.230412,1.02581 1.04371,0.42632 1.615746,0.47756 0.278809,0.81286 1.290122,0.31161 1.945809,0.44849 0.98097,-0.25864 1.755432,0.58495 2.003995,1.45263 -0.189385,0.1376 -2.029612,-0.80444 -0.90485,0.46663 0.713631,0.27385 1.90551,3.70756 0.631197,2.44346 -0.770762,-0.59983 -2.493549,-3.89381 -1.842497,-1.18669 0.102661,0.76279 0.414346,1.39397 1.092232,1.79472 1.520148,0.84331 -0.954761,1.23577 -1.075717,2.17217 -0.155691,-0.27874 -0.940342,-0.93127 -1.031792,0.0221 1.453352,1.64869 3.689747,2.18876 5.411907,3.45916 1.0915,2.55103 1.48731,5.35082 2.2071,8.02897 -0.24391,0.70556 -0.48783,1.41111 -0.73174,2.11667 -1.07556,0.25115 -2.15111,0.50229 -3.22667,0.75344 -0.0262,1.133 0.6971,2.17319 0.82528,3.25006 -0.17172,1.02891 -0.9726,1.99952 -0.94141,2.96156 0.41421,1.86051 1.06748,3.69309 1.17484,5.60265 -1.989082,0.17188 -1.27811,3.05348 -1.738184,4.49329 -0.252754,2.75599 -1.066558,5.53153 -0.856043,8.29741 0.529141,1.2873 1.334627,2.4349 2.329647,3.40469 0.0261,0.72942 0.19269,1.59935 -0.84288,1.26711 -1.196904,-0.096 -2.503215,0.29381 -3.55841,-0.4315 -1.187222,-0.37891 -1.71656,-1.50188 -0.994607,-2.50219 0.702751,-1.29947 0.354008,-2.78912 0.441918,-4.19979 -0.260368,-1.20537 -0.91443,-2.3635 -1.144738,-3.56167 0.157345,-1.2327 0.875907,-2.46491 0.408696,-3.69816 -0.169957,-0.76461 -0.339312,-1.52936 -0.508909,-2.29405 -0.672791,-0.17953 -1.353451,-0.46439 -1.97817,0.008 -0.87396,0.10588 -1.035001,0.95323 -1.363476,1.62644 -0.320475,0.82769 -0.880644,1.64379 -1.050495,2.47875 0.864633,1.84106 0.471351,3.88664 -0.0833,5.75152 -0.11125,1.17463 -0.555909,2.49629 0.06899,3.59518 0.295503,0.9041 0.666742,2.65921 -0.788727,2.49909 -1.910668,0.22626 -3.893525,1.47845 -5.803623,0.67126 -0.0025,-0.73844 -0.162925,-1.5403 0.582937,-1.97823 0.799615,-0.93 2.315429,-1.14878 2.855992,-2.2949 -0.0087,-2.93311 -0.203169,-5.92782 -1.049098,-8.74134 0.0058,-1.39249 0.482601,-2.86459 0.453513,-4.24167 -0.613894,-0.59039 -0.487086,-1.27298 -0.154033,-1.9815 0.432799,-1.37272 0.897655,-2.73634 1.279739,-4.12424 -1.159067,-0.22016 -2.156695,-1.31328 -1.313322,-2.48165 0.446152,-1.0955 1.049866,-2.11538 1.592372,-3.164 -2.730731,-2.16734 -5.798665,-4.23666 -7.318474,-7.47683 -0.234295,-0.92375 -0.08224,-1.95506 -1.172684,-2.30938 -1.801209,-1.30708 -3.806781,-2.28272 -5.802082,-3.25124 -0.06667,-0.84775 0.471552,-2.44123 1.462588,-1.59415 1.154982,0.26886 1.027578,1.47347 2.104118,1.79489 1.642085,0.96803 3.224404,2.11964 5.072695,2.64208 1.656507,1.43744 3.5107,2.63683 5.357639,3.82138 0.462362,-0.55601 1.323659,-0.94676 1.07487,-1.79734 -0.22075,-1.22041 0.670512,-2.17902 1.106191,-3.24489 0.458829,-1.04651 2.942543,-0.6189 1.534061,-2.37953 -0.540915,-0.84356 -0.507688,-2.25585 -1.741107,-2.36379 -0.778247,0.0668 -0.918976,-1.21299 -0.304998,-1.41078 0.862608,-0.13278 0.98671,-0.7436 0.861063,-1.51608 -0.32956,-1.12109 0.527393,-1.52031 1.399025,-1.98373 0.875732,-0.89186 2.068119,-0.24419 2.427875,-1.59228 z m 6.09472,17.5948 c -0.835636,-0.32884 -0.55588,1.07582 -0.40876,1.32291 0.78052,0.22381 0.25608,-0.90636 0.40876,-1.32291 z m -14.50558,2.04742 c 0.218542,0.8917 3.771389,3.30412 1.54823,1.19372 -0.502221,-0.41176 -0.978394,-0.87501 -1.54823,-1.19372 z" />
    </g>
  </g>
</svg>
