<?xml version="1.0" encoding="UTF-8" standalone="no"?>
<!-- Created with Inkscape (http://www.inkscape.org/) -->

<svg
   width="26.608965mm"
   height="5.9432583mm"
   viewBox="0 0 26.608965 5.9432583"
   version="1.1"
   id="svg1"
   sodipodi:docname="inkporter-svg-1zq87hcx.svg"
   xmlns:inkscape="http://www.inkscape.org/namespaces/inkscape"
   xmlns:sodipodi="http://sodipodi.sourceforge.net/DTD/sodipodi-0.dtd"
   xmlns="http://www.w3.org/2000/svg"
   xmlns:svg="http://www.w3.org/2000/svg">
  <sodipodi:namedview
     id="namedview1"
     pagecolor="#ffffff"
     bordercolor="#666666"
     borderopacity="1.0"
     inkscape:showpageshadow="2"
     inkscape:pageopacity="0.0"
     inkscape:pagecheckerboard="0"
     inkscape:deskcolor="#d1d1d1"
     inkscape:document-units="mm"
     inkscape:zoom="1.3425154"
     inkscape:cx="534.81694"
     inkscape:cy="448.03954"
     inkscape:window-width="3200"
     inkscape:window-height="1720"
     inkscape:window-x="2391"
     inkscape:window-y="-1763"
     inkscape:window-maximized="1"
     inkscape:current-layer="layer1" />
  <defs
     id="defs1" />
  <g
     inkscape:label="Layer 1"
     inkscape:groupmode="layer"
     id="layer1"
     transform="translate(-59.771195,-142.21891)">
    <g
       id="IT-Infantry-para5-Flamm"
       transform="translate(-288.48757,156.92874)">
      <g
         transform="matrix(0.05291923,0,0,0.05291923,355.45014,-6.44716)"
         id="g2">
        <path
           d="m 38.909905,-45.718393 c -0.43656,-0.0719 -0.94258,-0.253828 -1.12448,-0.404291 -0.54012,-0.446773 -0.39515,-1.750509 0.25151,-2.261889 1.22538,-0.96901 2.83463,-2.78858 3.26111,-3.68733 0.42802,-0.90197 0.42428,-0.95744 -0.0998,-1.4815 l -0.54445,-0.54446 -1.6657,0.88998 c -3.23092,1.72626 -3.58473,1.86612 -5.75731,2.27589 -2.66974,0.50353 -3.73089,0.3406 -4.613535,-0.70835 -1.18925,-1.41335 -1.49413,-3.67303 -0.94885,-7.03262 l 0.26389,-1.62588 -0.92735,-0.92735 c -0.9331,-0.933103 -1.10894,-1.665693 -0.93387,-3.890683 0.0643,-0.81756 0.0481,-0.80045 -2.378592,2.51354 -2.49819,3.411583 -4.5987,5.477593 -5.99413,5.895673 -1.49528,0.448 -1.52888,0.43987 -2.72431,-0.65926 -0.82247,-0.75622 -1.06728,-1.1767 -1.06728,-1.83319 0,-0.95632 0.51767,-1.60405 1.47371,-1.84401 0.46607,-0.11697 0.65124,-0.35366 0.67307,-0.86029 0.0166,-0.384413 0.069,-1.413303 0.11642,-2.286423 0.0475,-0.87313 0.13741,-3.31391 0.19988,-5.42396 0.14203,-4.79737 0.53941,-8.84708 0.98657,-10.05416 0.18868,-0.50933 0.61919,-1.36762 0.95668,-1.90733 0.8956,-1.43221 1.1081,-2.82568 1.04062,-6.82392 -0.0666,-3.9452 0.0869,-5.03806 0.85291,-6.074184 l 0.51553,-0.69729 -0.81042,-0.0618 c -0.98363,-0.075 -1.50705,-0.47099 -1.50705,-1.140266 0,-0.2752 -0.12135,-0.707104 -0.26967,-0.959794 -0.14831,-0.252694 -0.48794,-1.173818 -0.75473,-2.046946 -0.35825,-1.172474 -0.66253,-1.675044 -1.16391,-1.922314 -0.37336,-0.18414 -0.93427,-0.86244 -1.24645,-1.50733 -0.48355,-0.99886 -0.51806,-1.26277 -0.23301,-1.78186 0.18403,-0.33513 0.36967,-0.8192 0.41254,-1.07569 0.25488,-1.52525 1.25246,-3.60851 2.16487,-4.52092 0.93267,-0.93267 1.201,-1.04441 3.11491,-1.29709 1.73976,-0.2297 2.43889,-0.19985 4.12955,0.17628 1.805272,0.40164 2.139232,0.57432 2.955932,1.52844 0.79916,0.93365 1.38241,2.4852 1.62208,4.31506 0.0191,0.14552 0.10661,0.44318 0.194555,0.66146 0.0879,0.21828 0.1955,0.68237 0.23901,1.03131 0.0435,0.34893 0.28213,0.76167 0.53025,0.91718 0.35572,0.22295 0.59867,0.14473 1.14877,-0.36985 1.15339,-1.07892 1.22582,-1.41133 0.51689,-2.37222 -0.35213,-0.47729 -0.71217,-1.41672 -0.8001,-2.08763 -0.0879,-0.67091 -0.40942,-2.01534 -0.71444,-2.98764 -0.52459,-1.6722 -0.5305,-1.80456 -0.10929,-2.44739 0.341,-0.52044 0.6673,-0.67959 1.3933,-0.67959 0.65512,0 1.25893,-0.24625 1.95437,-0.79706 1.18292,-0.93688 2.87398,-1.58419 4.13864,-1.58419 1.10042,0 2.69121,0.63282 2.88945,1.14944 0.0841,0.21907 0.35677,0.32437 0.64491,0.24902 0.35756,-0.0935 0.65276,0.12128 1.04025,0.75685 0.29756,0.48807 0.54146,1.05262 0.54201,1.25455 5.3e-4,0.20194 2.00221,2.46413 4.44816,5.02709 6.26478,6.56448 7.95892,8.616688 8.16207,9.887166 0.0911,0.569704 0.32738,1.097898 0.52507,1.173758 0.19769,0.0759 0.35944,0.4436 0.35944,0.817196 v 0.67927 l 0.59531,-0.55766 c 0.60862,-0.570146 1.80701,-1.12208 2.4363,-1.12208 0.49526,0 0.72027,0.73935 0.40455,1.32928 -0.14635,0.27346 -0.94959,0.98665 -1.78499,1.584864 -0.83538,0.59821 -1.52071,1.16952 -1.52293,1.26957 -0.002,0.10005 -0.0949,0.32477 -0.20586,0.49937 -0.12483,0.19639 0.0281,0.43636 0.40093,0.62927 0.82868,0.42872 1.77233,1.59418 1.78383,2.20314 0.009,0.45685 0.0529,0.46636 0.47254,0.10158 0.70963,-0.61678 3.12957,-0.81168 3.64748,-0.29377 0.22981,0.22982 0.35146,0.59083 0.27033,0.80225 -0.0811,0.21141 -0.14749,0.43419 -0.14749,0.49505 0,0.0608 -0.15875,0.11065 -0.35278,0.11065 -0.64305,0 -0.38628,0.90816 0.65135,2.30375 1.12005,1.50643 1.21418,1.80012 0.64685,2.01782 -0.36488,0.14002 -1.29753,-0.8645 -1.95291,-2.10341 -0.64055,-1.21087 -3.13733,-0.98377 -4.53345,0.41235 -0.30504,0.30505 -1.08728,0.55553 -2.10307,0.67343 -0.88955,0.10324 -1.67781,0.28552 -1.7517,0.40507 -0.0739,0.11955 0.16614,0.45373 0.53341,0.74262 0.36727,0.28889 0.90758,1.0674 1.20069,1.73002 0.29311,0.66262 0.64536,1.27426 0.78278,1.35919 0.33748,0.20857 1.32258,3.44826 1.32258,4.34954 0,1.03468 -1.90292,2.6617 -3.11305,2.6617 -0.31285,0 -0.83055,0.50703 -1.37393,1.34561 -1.05027,1.62083 -2.35879,2.61282 -4.50561,3.41568 -1.53715,0.57485 -2.0996,1.07891 -2.8906,2.59048 l -0.31653,0.6049 0.9728,-0.40646 c 0.53503,-0.22355 1.26265,-0.40646 1.61691,-0.40646 0.35428,0 1.56014,-0.46767 2.67968,-1.03927 1.11954,-0.5716 2.58384,-1.11832 3.25398,-1.21493 1.11258,-0.16038 1.26778,-0.11295 1.78595,0.54579 0.67933,0.86363 0.80454,3.1361 0.19181,3.4812 -0.48923,0.27555 -0.11652,2.449 0.59536,3.471823 0.66023,0.94861 1.04579,2.14694 0.95743,2.97569 -0.25605,2.40157 -1.32843,4.1841 -2.55416,4.24558 -1.98537,0.0996 -2.37156,-0.29347 -2.62577,-2.67258 -0.22689,-2.12351 -1.03877,-3.61795 -1.78186,-3.27991 -0.23817,0.10835 -0.79023,0.21185 -1.2268,0.23 -0.43655,0.0181 -1.15335,0.26449 -1.59286,0.54741 -0.7261,0.4674 -0.78543,0.61111 -0.64927,1.57274 0.0824,0.58209 0.36888,1.38947 0.63654,1.7942 0.26765,0.40472 0.41518,0.80733 0.32782,0.89468 -0.0874,0.0874 -0.059,0.35153 0.063,0.58706 0.122,0.23553 0.30086,1.46558 0.39746,2.73345 0.19492,2.55834 0.33586,2.26203 -1.93623,4.0704 -0.64132,0.51043 -1.57281,1.098017 -2.06996,1.305738 -0.99744,0.416753 -3.72711,0.676378 -4.96606,0.472332 z m -18.449297,-15.67302 c 1.50221,-1.831153 1.16645,-2.245883 -0.38792,-0.47916 -0.66966,0.76115 -1.48844,1.55481 -1.81952,1.7637 -0.33107,0.20888 -0.58598,0.59179 -0.56646,0.8509 0.0319,0.42425 0.1155,0.40997 0.83975,-0.14353 0.44235,-0.33805 1.31272,-1.23442 1.93415,-1.99191 z m 4.56674,-5.892043 c 0.949062,-1.34597 1.013382,-1.53193 0.60828,-1.75863 -0.35883,-0.20082 -0.60747,-0.0591 -1.19614,0.6816 -0.40872,0.51432 -0.74313,1.08129 -0.74313,1.25993 0,0.17865 -0.23813,0.62754 -0.52917,0.99754 -0.29104,0.37 -0.52489,0.9516 -0.51965,1.29245 0.009,0.60458 0.0255,0.60033 0.66402,-0.17402 0.35998,-0.43656 1.13208,-1.47105 1.71579,-2.29887 z m 2.255892,-2.97857 c 0.29227,-0.44606 0.34743,-0.7842 0.17747,-1.08791 -0.21426,-0.38286 -0.32336,-0.3329 -0.83159,0.38084 -0.55143,0.77441 -0.55692,1.3543 -0.0128,1.3543 0.13358,0 0.4337,-0.29125 0.66695,-0.64723 z m -1.04113,-5.44917 c 0.0726,-0.78195 0.40423,-1.99043 0.73689,-2.68552 0.56426,-1.17903 0.57503,-1.29075 0.16058,-1.66583 -0.41062,-0.3716 -0.50702,-0.15498 -1.273602,2.86195 -0.45615,1.79519 -0.90913,3.49225 -1.00664,3.77125 -0.14383,0.41156 -0.0426,0.37827 0.53672,-0.17643 0.550052,-0.52671 0.744302,-1.01012 0.846052,-2.10542 z m 26.988035,-10.69457 c 0.0816,-0.21274 0.37556,-0.45889 0.65316,-0.54699 0.2776,-0.0881 0.50472,-0.32275 0.50472,-0.52141 0,-0.19867 0.24682,-0.43956 0.54849,-0.5353 0.503,-0.15965 0.51397,-0.21222 0.13229,-0.63398 -0.22891,-0.25294 -0.41619,-0.69191 -0.41619,-0.9755 0,-0.54409 -0.68943,-1.69168 -1.0163,-1.69168 -0.527,0 -1.01892,1.59066 -1.04325,3.37344 -0.0242,1.77286 0.27159,2.48388 0.63708,1.53142 z m -1.66544,-3.47204 c -0.1953,-0.50892 -1.41001,-0.48963 -1.41001,0.0224 0,0.21828 0.0989,0.39687 0.21987,0.39687 0.12093,0 0.38521,0.30892 0.58727,0.68649 l 0.3674,0.68649 0.18959,-0.70888 c 0.10427,-0.38988 0.12491,-0.87739 0.0459,-1.08336 z M 34.388985,-102.8555 c 0.0892,-0.23247 -0.11158,-0.49435 -0.5226,-0.68162 -0.57244,-0.26081 -0.75061,-0.22076 -1.25155,0.28134 -0.44273,0.44376 -0.50256,0.63607 -0.24722,0.7946 0.49551,0.30762 1.85368,0.0427 2.02137,-0.39432 z m -2.80327,-9.22494 c 0.26377,-0.5789 0.23879,-0.66146 -0.20006,-0.66146 -0.53436,0 -0.81044,0.44864 -0.61055,0.99219 0.18856,0.51276 0.48058,0.39362 0.81061,-0.33073 z"
           id="path22115-3-9-9" />
        <path
           d="m 8.1966125,-50.65952 c 0.8118965,-0.503513 1.37069,-1.483205 1.504552,-2.63783 0.110708,-0.954483 -0.3812635,-5.600393 -0.7331375,-6.923962 -0.176075,-0.662291 -0.3487115,-1.678308 -0.3836535,-2.257813 -0.117978,-1.957198 -2.8729897,-7.694134 -4.6871027,-9.760302 -1.03999,-1.184488 -1.098724,-1.692167 -0.281343,-2.431891 0.331144,-0.299684 0.602087,-0.81678 0.602087,-1.149106 0,-0.640458 -0.764018,-3.459254 -1.279667,-4.721208 -0.169134,-0.413933 -0.335479,-2.581434 -0.369658,-4.81667 -0.03414,-2.235235 -0.151703,-4.341664 -0.261158,-4.68095 -0.177429,-0.549979 -0.01138,-0.6559 1.533076,-0.976607 6.0054547,-1.247219 8.4980452,-4.43286 8.1134362,-10.369321 -0.275244,-4.24847 -2.4921815,-8.31469 -5.7676992,-10.57889 -0.987072,-0.68233 -1.919586,-1.3275 -2.072244,-1.43373 -0.152658,-0.10623 0.09512,-0.6817 0.550522,-1.27881 2.3879027,-3.13071 2.1457237,-7.30255 -0.536744,-9.24571 -0.662402,-0.47985 -1.40462,-0.87245 -1.649382,-0.87245 -0.779641,0 -3.799272,-1.87092 -4.661288,-2.88808 -0.457348,-0.53965 -1.337899,-1.13804 -1.9567808,-1.32976 -0.61887,-0.19172 -1.463899,-0.72633 -1.87783,-1.18802 -0.865828,-0.96572 -2.996032,-2.12018 -3.912151,-2.12018 -0.343568,0 -0.946101,0.2106 -1.338971,0.46803 -0.647053,0.42397 -0.87046,0.42262 -2.373295,-0.0142 -1.482617,-0.43101 -1.76561,-0.43446 -2.661828,-0.0324 -1.52889,0.68579 -1.89823,1.08554 -2.810344,3.04174 -0.462924,0.99285 -0.870312,1.84283 -0.905287,1.88886 -0.03493,0.0461 -0.422863,-0.0529 -0.861949,-0.21985 -1.639939,-0.62351 -4.326491,-0.8707 -6.498691,-0.59795 -2.563727,0.32192 -3.322921,0.0551 -3.322921,-1.16777 0,-1.21567 -2.336885,-4.61014 -3.612501,-5.24739 -1.509343,-0.754 -4.916735,-0.70666 -7.067886,0.0982 -2.980774,1.11526 -4.441692,2.90686 -4.844142,5.94064 -0.120857,0.91106 -0.433568,1.74374 -0.768763,2.0471 -0.992363,0.89808 -0.60855,2.00466 0.789642,2.27662 0.508879,0.099 0.587102,0.31539 0.505283,1.39797 l -0.09683,1.28085 1.044565,-0.0704 c 0.860014,-0.0579 1.196266,0.109 1.903043,0.94455 0.472162,0.5582 1.093558,1.39776 1.380874,1.86572 0.287317,0.46795 0.693725,0.86978 0.903125,0.89294 0.2094,0.0231 0.891873,0.0715 1.516614,0.10729 0.62474,0.0358 1.214415,0.14374 1.310376,0.2397 0.284006,0.28401 -1.126463,4.21111 -1.813373,5.04889 -0.348097,0.42453 -0.890189,1.44968 -1.204653,2.2781 -0.576304,1.51817 -0.741388,1.66977 -3.786959,3.47782 -1.372194,0.81461 -1.527946,0.89608 -3.167327,1.65663 -2.46466,1.14341 -3.160934,1.62887 -3.160934,2.20387 0,0.32984 -0.186621,0.59971 -0.414704,0.59971 -0.228082,0 -0.583348,0.20321 -0.789471,0.45156 -0.267268,0.32205 -0.97426,0.45157 -2.464977,0.45157 -2.404321,0 -3.10897,0.28106 -3.376443,1.34674 -0.188601,0.751459 -0.227696,0.760535 -3.270822,0.759547 -4.637701,-0.0015 -17.195495,0.636625 -17.466063,0.887547 -0.130425,0.120967 -0.145023,0.796066 -0.03243,1.500219 l 0.204724,1.28028 9.515237,-0.191543 c 5.233383,-0.105348 9.72424,-0.253312 9.979675,-0.328802 0.318401,-0.09409 0.555039,0.170044 0.752607,0.840043 0.245399,0.832239 0.466894,1.008463 1.492333,1.187303 0.662299,0.115504 2.108756,0.217812 3.214352,0.227356 1.823283,0.01575 2.068194,-0.0564 2.634111,-0.775855 0.34317,-0.436247 0.623933,-0.978123 0.623933,-1.204154 0,-0.332721 1.080132,-0.410965 5.673141,-0.410965 5.11372,0 5.72227,0.05429 6.171359,0.550526 0.274026,0.302793 0.498217,0.692612 0.498217,0.866268 0,0.78434 0.786991,0.965298 1.722873,0.396153 0.926348,-0.563344 0.943529,-0.562906 1.339914,0.03408 0.378829,0.570562 0.520553,0.584473 2.507656,0.246131 1.158368,-0.197236 2.344588,-0.567932 2.636034,-0.823776 0.291458,-0.25584 0.952142,-0.511386 1.468189,-0.567879 0.851287,-0.0932 0.901339,-0.05373 0.539975,0.425757 -0.845006,1.1212 -2.52429,2.787027 -2.824954,2.802311 -0.173365,0.0089 -1.174796,1.194166 -2.225403,2.634116 -1.050606,1.439949 -2.363065,3.193396 -2.916557,3.896547 -0.668511,0.849251 -1.075592,1.758845 -1.212549,2.709376 -0.113438,0.787007 -0.401334,1.905061 -0.639851,2.484567 -0.238527,0.579505 -0.560091,2.58991 -0.714592,4.467565 -0.154491,1.877656 -0.344878,3.517442 -0.423079,3.643969 -0.218388,0.353348 -1.063907,7.504512 -1.063907,8.998171 0,1.240975 -0.141792,1.468692 -2.287345,3.673453 -1.258037,1.292754 -2.646592,2.537243 -3.085679,2.765529 -2.026039,1.05337 -2.785267,1.640037 -2.95019,2.279666 -0.221472,0.858965 -0.128184,0.951581 1.300147,1.290726 1.338867,0.317906 3.245016,0.153754 7.56517,-0.651491 1.705533,-0.317896 3.567195,-0.577994 4.137037,-0.577994 2.049909,0 3.14291,-1.785033 3.146267,-5.138331 0.0011,-1.538583 0.546858,-4.068482 1.196005,-5.548652 0.145217,-0.331146 0.348029,-1.00849 0.450681,-1.50521 0.102629,-0.496719 0.618631,-2.391686 1.146625,-4.211042 0.854075,-2.942954 1.101785,-3.443768 2.245121,-4.539283 0.706822,-0.67725 1.285129,-1.445248 1.285129,-1.706654 0,-0.518093 5.691596,-6.551882 6.180313,-6.551882 0.361159,0 3.478959,-2.03143 3.904585,-2.544075 0.6931,-0.834791 3.266567,-2.586945 3.47202,-2.363936 0.401494,0.435788 1.755734,5.607917 2.112729,8.068949 0.19215,1.324584 0.604204,3.221148 0.915664,4.214585 0.311472,0.993439 0.568056,2.419585 0.570195,3.169216 0.0046,1.581257 0.555642,2.506313 1.903657,3.195167 0.528074,0.269844 1.051596,0.641609 1.163396,0.826145 0.111845,0.184536 1.6964309,2.232082 3.5213739,4.550103 1.82494698,2.318021 3.581737,4.557255 3.903973,4.976076 0.526719,0.684596 0.542819,0.84369 0.159382,1.575488 -0.527335,1.006472 -0.649477,5.839473 -0.170192,6.735014 0.58683,1.096512 4.644767,1.419976 6.1446416,0.489799 z M 2.0096328,-95.20024 c -0.151167,-1.618843 -0.09273,-2.120262 0.297216,-2.55117 0.366893,-0.405412 0.435707,-0.846845 0.281934,-1.808497 -0.111845,-0.699693 -0.315864,-1.414363 -0.453286,-1.588153 -0.137423,-0.17378 -0.876376,-1.80613 -1.64212401,-3.62744 -0.76573701,-1.8213 -1.71977899,-3.71786 -2.12007899,-4.21457 -0.663664,-0.8235 -0.686578,-0.94908 -0.259905,-1.42431 0.363104,-0.40442 0.389022,-0.61624 0.115701,-0.94557 -0.285005,-0.34342 -0.18108,-0.48406 0.54464,-0.73705 0.78351997,-0.27314 1.05070998,-0.20121 2.11432199,0.56927 0.67055901,0.48576 1.60415501,0.88192 2.07829701,0.88192 1.413803,0 4.6467452,2.65655 5.5972597,4.59931 1.5879965,3.24576 1.7428955,7.261163 0.3742315,9.701145 -0.946326,1.687042 -3.5080612,3.032987 -5.9557212,3.129153 -0.752367,0.02956 -0.792008,-0.05132 -0.972486,-1.984038 z m -34.6238658,-6.0238 c -0.454436,-0.35746 -1.226294,-0.73779 -1.715238,-0.84518 -0.488945,-0.10739 -0.888995,-0.26713 -0.888995,-0.35498 0,-0.41282 2.007891,-3.80212 3.558547,-6.00677 l 1.724137,-2.45131 0.820634,0.70588 c 0.451353,0.38824 0.820647,0.83734 0.820647,0.99801 0,0.16068 0.485327,0.45232 1.078505,0.64809 1.093558,0.3609 3.11302,2.24505 3.127938,2.91836 0.0046,0.20224 -0.321746,1.11365 -0.724947,2.02535 -0.683622,1.54581 -0.817245,1.67109 -1.98063,1.85713 -0.686148,0.10971 -1.388998,0.42599 -1.561886,0.70282 -0.480298,0.76909 -3.189674,0.64351 -4.258712,-0.1974 z"
           id="path22774-9-5-7" />
        <g
           id="g8043-8-6-6"
           transform="matrix(0.37149296,0,0,0.37149296,-223.17747,-98.654648)">
          <path
             class="cls-7"
             d="m 347.38665,-32.326061 c -0.19927,-0.09491 -0.39937,-0.170678 -0.59676,-0.26268 -0.41349,-0.18572 -0.82335,-0.374483 -1.23677,-0.558721 -0.74415,-0.333378 -1.48831,-0.685735 -2.24341,-1.016695 -0.009,-0.0035 -0.0175,-0.0086 -0.0251,-0.01474 -2.99302,-1.314435 -6.02677,-2.693704 -8.63277,-4.833355 -0.45854,-0.376505 -1.86767,-1.527072 -3.24768,-2.89417 -1.3366,-1.324089 -2.46509,-2.687674 -2.34692,-3.164169 -0.49745,2.14609 0.50171,4.704184 2.14546,7.125655 0.0343,0.04861 0.0687,0.09719 0.10312,0.14577 0.34653,0.49944 0.71536,0.98517 1.09361,1.452766 0.0827,0.105472 0.1683,0.212429 0.25298,0.315502 0.42097,0.497685 0.84754,0.981366 1.2783,1.434076 0.01,0.0037 0.0186,0.0097 0.0258,0.01711 1.51559,1.586308 3.76993,2.845909 5.27148,4.326972 1.54048,1.51995 2.13982,3.890347 1.84095,5.273756 -0.59488,2.720415 -4.11608,2.973265 -8.17328,0.662544 -2.73328,-1.556632 -4.85118,-3.833813 -6.63195,-6.148123 -1.77446,-2.306116 -3.3049,-4.708949 -5.23615,-6.940453 -4.30501,-4.945427 -7.68364,-5.827133 -12.47896,-8.732566 -0.3447,-0.209488 -0.69476,-0.418939 -1.04674,-0.64826 -0.24487,-0.163869 -0.48252,-0.360301 -0.72379,-0.534165 -1.57198,-1.123377 -3.06455,-2.435399 -4.43235,-3.923098 -0.02,-0.02182 -0.04,-0.04367 -0.0599,-0.06555 -2.65593,-2.892963 -4.80009,-6.381125 -6.24666,-10.21206 -0.90863,-2.41846 -1.50532,-4.916152 -1.74618,-7.381023 -0.41865,-4.178496 0.19503,-8.164234 1.77878,-11.357317 0.42264,-0.857858 0.90687,-1.643146 1.44174,-2.348864 0,0 -1.89166,0.706882 -4.08676,2.953371 -2.12946,2.179315 -4.78025,6.162827 -5.23918,12.395365 0,0 -1e-5,4e-6 -1e-5,4e-6 -0.24781,3.322936 0.147,7.372633 1.73158,11.850107 1.4472,4.087905 2.54189,7.094908 3.31083,9.777709 1.17278,4.091404 1.23011,6.590134 0.077,7.378764 -1.12201,0.767331 -3.52166,-0.152084 -6.37381,-3.431142 -1.4553,-1.680007 -3.01718,-3.988613 -4.4325,-6.935234 -0.61601,-1.284147 -1.16394,-2.594859 -1.64132,-3.923718 -0.54346,-1.500794 -1.06442,-3.075723 -1.55808,-4.715353 -0.0108,-0.03379 -0.023,-0.06725 -0.0365,-0.100062 -0.68463,-2.316965 -1.2924,-4.655601 -1.82158,-7.010454 -1.02453,-4.585157 -1.75996,-9.200691 -2.24905,-13.819214 -0.32896,-2.995703 -0.57101,-6.003268 -0.75251,-9.043615 -0.44726,-7.471474 -0.53609,-15.072219 -0.98335,-22.543689 -0.57453,-9.73479 -1.88124,-18.59854 -5.96981,-25.44078 0,0 0.62712,5.02107 -0.20663,13.24784 -0.11315,1.08328 -0.23562,2.19568 -0.4033,3.37358 -0.0263,0.12157 -0.028,0.24293 -0.0474,0.37156 -0.15041,1.08702 -0.31268,2.13488 -0.5105,3.3215 -0.0508,0.26144 -0.0822,0.5378 -0.12365,0.78471 -0.17291,1.00554 -0.36671,1.9941 -0.56608,3.03221 0,0 0,0 0,0 10e-4,-0.006 -0.0437,0.23045 -0.0426,0.22421 -0.0672,0.40054 -0.13052,0.78853 -0.22496,1.19686 -0.19984,1.01147 -0.46195,2.1847 -0.68784,3.24128 -0.11861,0.54221 -0.21018,1.04449 -0.33324,1.58884 -0.23416,1.05661 -0.52173,2.18015 -0.77634,3.28113 -0.14794,0.63854 -0.27055,1.25338 -0.43952,1.906318 -0.26824,1.108227 -0.58647,2.294449 -0.88491,3.481797 -0.17569,0.709179 -0.31809,1.394874 -0.50422,2.128445 -0.31766,1.297013 -0.71024,2.651459 -1.05957,4.024892 -0.17829,0.69096 -0.32002,1.38217 -0.4983,2.07313 0.0127,-0.04938 -0.25346,0.984996 -0.24075,0.935619 -0.46677,1.817402 -0.96463,3.780734 -1.45242,5.747484 -1.97477,8.016194 -2.57307,15.617454 -2.17183,22.570213 0.66949,10.765799 3.77405,19.975819 8.39524,27.58911 0.49064,0.807997 1.00091,1.602703 1.53048,2.384273 5.88769,8.56988 14.11435,15.707689 24.62926,21.2979704 0,0 -2.58382,-0.3962156 -7.2668,-2.9732494 -4.45101,-2.449378 -11.78315,-7.550675 -18.90174,-17.359717 -0.88245,-1.23342 -1.75708,-2.539597 -2.61403,-3.920119 -3.99362,-6.433577 -7.20322,-11.06309 -10.48619,-14.979785 -3.19876,-3.816232 -6.10822,-6.495802 -8.71472,-8.425781 -4.5473,-3.367559 -7.93111,-4.016686 -7.93111,-4.016686 0,0 1.84241,1.60973 4.496,4.940843 3.61045,4.513818 8.03008,11.003938 13.4124,21.051209 1.66682,3.154033 3.41024,6.533686 4.9686,9.656659 0.73326,1.443294 1.43897,2.866916 2.10389,4.253281 5.81949,11.8685162 14.36639,22.749827 25.06776,30.965958 3.51819,2.706216 7.19811,5.057202 10.98046,7.041999 7.74942,4.073224 15.60428,6.34543 22.92001,7.129536 6.58116,0.688855 12.94052,0.07583 20.04573,0.972268 1.04397,0.130897 2.08655,0.288264 3.10533,0.467579 4.31284,0.765983 5.64753,1.717018 5.34262,2.921265 -0.29455,1.163321 -2.21304,2.414047 -4.3599,3.176091 -3.39826,1.20691 -7.93695,1.706812 -12.97422,1.455834 -5.09779,-0.253993 -10.31203,-1.246737 -15.33014,-2.711216 1.09337,0.336294 2.18463,0.703197 3.24686,1.090917 0.0568,0.01969 0.11417,0.03821 0.17196,0.05549 1.05888,0.37542 2.09948,0.733268 3.08844,1.013657 3.59088,1.013718 7.22674,1.740435 10.86048,2.22936 0.97546,0.12968 1.95123,0.238747 2.91484,0.329332 1.05889,0.100126 2.10273,0.206323 3.15424,0.266069 3.45758,0.181308 6.86662,0.118731 10.20193,-0.167646 1.51538,-0.121042 3.01229,-0.301836 4.493,-0.514076 1.49567,-0.214386 2.99029,-0.498111 4.44034,-0.808919 9.11092,-1.907852 16.93173,-5.360488 22.93405,-9.554384 1.90504,-1.33351 3.59111,-2.711314 5.05638,-4.087546 2.37496,-2.256952 4.23444,-4.507938 5.61665,-6.629295 1.1936,-1.773303 2.11752,-3.482801 2.80071,-5.095955 0.27858,-0.6953167 0.43682,-1.3380847 0.48431,-1.9194761 0.0533,-0.6631361 0.0268,-1.2815389 -0.0707,-1.8561807 -0.1489,-1.0143713 -0.4639,-2.0273548 -0.66555,-2.8843891 -0.46662,-2.0945579 -1.37426,-3.90096356 -2.53916,-5.5537299 -2.28271,-3.1911854 -6.06149,-6.0119932 -10.12651,-9.2183272 -2.50148,-1.984567 -3.38962,-2.681701 -6.26884,-5.011011 -0.75947,-0.61803 -1.54735,-1.253334 -2.35794,-1.896345 -0.70238,-0.553476 -1.43356,-1.117028 -2.18664,-1.680995 -2.85241,-2.159401 -5.54514,-3.921848 -9.37682,-5.904192 -1.48239,-0.767908 -2.68486,-1.351954 -4.16725,-2.119861 -2.95546,-1.566656 -5.90423,-3.082023 -9.05138,-4.641619 z"
             id="path46-7-6-8-4"
             style="fill:#0fa1d2;fill-opacity:1;stroke-width:0.264583" />
          <path
             class="cls-2"
             d="m 391.33332,-1.3000614 c 0.9751,2.5623181 0.86194,6.1924806 -1.83845,10.4969273 -2.68725,4.2835071 -8.03674,9.3054281 -16.71409,12.5357031 -5.8724,2.185567 -11.63991,2.778891 -17.33208,2.543238 -5.64909,-0.233873 -11.53841,-1.300091 -17.9086,-2.5631 -5.31995,-1.05424 -8.89297,-1.455843 -13.35714,-1.942016 -4.03041,-0.438933 -8.40433,-0.90632 -13.03478,-2.21418 -11.26954,-3.183628 -22.29971,-9.5765134 -30.86648,-19.7464745 2.46254,2.92319836 6.60467,5.8545679 11.43111,8.1120558 4.8589,2.2726689 9.99939,3.6840421 14.56435,4.2035797 4.49889,0.512021 8.15893,0.121421 9.93058,-0.9485654 1.80763,-1.0917161 1.64284,-2.7825233 -1.15762,-5.368337 -2.00058,-1.8442459 -4.97292,-3.44841608 -7.64498,-5.0095511 -8.52841,-4.9756803 -17.15359,-10.9447065 -24.05324,-18.9805155 -3.76267,-4.382872 -6.1823,-9.257529 -8.09199,-14.184333 -0.9754,-2.547547 -1.82674,-5.172927 -2.65114,-7.80822 -1.83118,-5.852572 -3.29029,-13.312227 -5.43882,-19.430935 -0.96045,-2.755483 -2.11297,-5.244304 -3.68622,-7.230902 0,0 2.64992,0.720567 6.42627,6.493739 2.91276,4.441417 6.25843,11.796205 12.95783,23.206769 1.3848,2.342725 2.93851,4.866267 4.67862,7.513061 5.26053,8.001513 10.83398,11.968959 14.41911,13.312481 3.77212,1.413593 6.07383,0.389089 7.01556,-1.671679 0.95644,-2.092951 0.62189,-5.333306 -0.63938,-8.870402 -1.26518,-3.548076 -3.47035,-7.447756 -6.52914,-11.197752 3.31497,4.064058 9.55255,6.757342 14.02183,10.192729 4.18228,3.212738 6.78775,6.041679 9.88327,9.202593 2.93466,2.996662 6.07299,6.020298 10.40885,8.357239 1.96422,1.060417 4.92981,1.9826 8.14557,2.5034028 3.22571,0.5224107 6.46517,0.6063338 9.09981,0.2435099 2.6092,-0.3593201 4.49547,-1.1380007 5.11522,-2.2600887 0.6302,-1.141017 -0.008,-2.590269 -2.36519,-4.691215 0.15652,0.142964 1.39543,0.325704 2.63573,0.457851 1.2403,0.132146 2.47677,0.213633 2.766,0.266229 4.31811,0.753972 8.29376,1.82018 11.7809,3.105892 3.97823,1.465432 8.1104,3.5736304 10.70068,5.0160765 2.85756,1.5912903 5.43493,3.245329 6.74552,5.2046577 0.23602,0.3584561 0.43217,0.7409738 0.58253,1.1505324 z"
             id="path48-8-3-3-9"
             style="fill:#0249e6;fill-opacity:1;stroke-width:0.264583" />
          <path
             class="cls-3"
             d="m 388.30956,-2.2237213 c 0.82146,1.179481 0.94712,2.75314574 0.0106,4.6466505 -0.96477,1.8547112 -2.8492,3.9075528 -5.65897,5.7087751 -2.82153,1.8087522 -6.38509,3.2344977 -10.36632,3.9036387 -5.95154,0.968494 -11.68118,0.09828 -18.02746,-0.49317 -3.05824,-0.285018 -6.68008,-0.398375 -9.51586,-0.141611 -2.89915,0.262503 -5.25652,0.927824 -5.95572,2.357617 -0.002,-1.719728 1.49648,-3.089346 3.76089,-3.9858484 2.27163,-0.899358 5.32096,-1.3367679 8.60712,-1.274081 2.71668,0.056335 5.49233,0.3800115 8.1091,0.2364706 2.64683,-0.1451892 5.21692,-0.8787017 5.88323,-2.0580419 0.78813,-1.3935939 -1.55288,-2.8749392 -4.3128,-3.5966034 -2.79594,-0.7310834 -5.93761,-0.9304395 -9.08029,-1.2659129 -7.8355,-0.83396891 -17.78608,-2.11709219 -24.59009,-7.3084105 -2.99623,-2.2754266 -5.42665,-4.8735915 -7.18126,-7.5694065 -0.31231,-0.480878 -1.05274,-2.304278 -1.72002,-4.147605 -0.65462,-1.808356 -1.19552,-3.529246 -1.30563,-3.608018 5.3676,6.037786 12.38706,10.8625693 20.1538,13.8982911 7.76193,3.033838 15.50248,3.9907371 22.19288,3.3831336 4.72299,-0.4493627 8.80673,-1.5760193 12.95156,-2.0700576 4.37288,-0.5199083 7.80332,-0.2574288 10.36517,0.3223912 2.56481,0.5804879 4.6683,1.5750167 5.68003,3.0617984 z"
             id="path50-5-3-9-5"
             style="fill:#010c4b;fill-opacity:1;stroke-width:0.264583" />
        </g>
        <path
           style="fill:#000000;fill-opacity:1;stroke:none;stroke-width:4.99976px;stroke-linecap:butt;stroke-linejoin:miter;stroke-opacity:1"
           d="m -31.314963,-63.268808 2.650872,-1.121726 1.616922,-1.051179 -0.159993,-3.719565 2.021402,-4.770744 1.677919,-5.643336 -1.354434,-6.243093 -8.521587,-1.85978 -6.1952,6.763757 -2.587375,9.003954 0.484977,6.226229 1.948905,2.553476 z"
           id="path29" />
        <path
           style="fill:#000000;fill-opacity:1;stroke:none;stroke-width:4.99976px;stroke-linecap:butt;stroke-linejoin:miter;stroke-opacity:1"
           d="m 7.8287533,-66.299031 1.2982828,-2.569018 0.55477,-1.847063 -2.5255979,-2.735346 -1.5400287,-4.947158 -2.3660189,-5.391161 -5.0678245,-3.889454 -7.7053226,4.087081 -0.3575292,9.16521 3.8434826,8.543614 4.3933677,4.438406 3.1373766,0.689449 z"
           id="path29-2" />
      </g>
      <g
         id="g8"
         transform="matrix(0.92488747,0,0,0.92488747,31.050274,-0.6584793)">
        <path
           style="fill:#000000;stroke-width:0.0150386"
           d="m 362.43219,-9.0022427 c 0.1442,0.022067 0.13598,-0.078548 0.12782,-0.1823217 -0.0244,-0.1096035 -0.18358,-0.1093024 -0.20386,-0.2266613 -0.0758,-0.1016573 -0.0962,-0.1922662 0.061,-0.235393 0.10426,-0.053968 0.17684,-0.1947609 0.15652,-0.3040569 -0.0438,-0.1105774 -0.11827,-0.2123264 -0.0963,-0.3370764 -0.009,-0.145763 0.0106,-0.298124 -0.0172,-0.439796 -0.0903,-0.152443 -0.0479,-0.336428 -0.0728,-0.504741 -0.0186,-0.208628 -0.0495,-0.414836 -0.0379,-0.624942 -6e-5,-0.118009 -8e-5,-0.236016 -1.4e-4,-0.354025 0.0835,-0.115059 -0.0471,-0.310188 -0.0582,-0.446832 -0.0612,-0.118911 -0.002,-0.179584 0.049,-0.25329 -0.0143,-0.103711 0.0435,-0.231094 -0.036,-0.31434 -0.18576,-0.08633 0.0175,-0.213544 -0.0156,-0.348622 -7.2e-4,-0.32245 0.49247,0.08985 0.57758,-0.226852 0.0676,-0.123958 -0.0559,-0.253763 -0.10112,-0.365206 -0.0274,-0.128473 -0.16912,-0.07365 -0.24785,-0.115707 -0.0539,-0.06612 -0.15414,-3.64e-4 -0.19106,-0.08907 -0.0417,-0.0959 -0.15482,-0.01619 -0.21351,-0.09144 -0.17454,-0.05805 0.10598,-0.208425 -0.0354,-0.304536 -0.0205,-0.07558 0.047,-0.207418 -0.0466,-0.233027 -0.10298,-0.08981 -0.22016,-0.169592 -0.36635,-0.140776 -0.12268,-0.0044 -0.21129,0.115418 -0.30965,0.174434 0.045,0.07042 -0.0695,0.14319 -0.0674,0.218381 0.0315,0.08015 0.0923,0.242103 -0.0582,0.22355 -0.18107,0.01047 -0.31237,0.136923 -0.47291,0.08763 -0.0919,0.028 -0.13633,-0.01194 -0.20774,-0.02492 -0.0811,-0.0023 -0.16409,-0.01328 -0.22449,0.04317 -0.0999,0.06932 -0.18183,-0.111908 -0.24244,-0.03876 -0.008,0.109059 -0.13475,0.04835 -0.20822,0.06372 h -0.3213 c -0.009,-0.158717 -0.25652,0.02725 -0.1586,0.100763 0.034,0.178833 0.29065,0.03201 0.42452,0.08864 0.0634,0.02254 0.2078,-0.03248 0.21608,0.04288 0.0341,0.105922 0.3191,0.05826 0.1473,0.249374 -0.0292,0.08419 0.026,0.172734 0.0322,0.258754 0.0813,0.102268 0.18423,0.250167 0.32427,0.247157 0.15818,-0.01025 0.34939,-0.249595 0.43838,-0.212865 -0.0922,0.152674 0.0583,0.350612 -0.13923,0.411537 0.003,0.100712 -0.0512,0.226006 -0.007,0.315108 0.0668,0.07115 -0.0147,0.16931 -0.0183,0.253284 0.004,0.180161 -0.20546,0.417058 -0.0244,0.539238 -0.013,0.135338 -0.0826,0.28792 -0.0997,0.432239 -0.0273,0.221596 -0.12486,0.42829 -0.16024,0.646405 0.008,0.168798 -0.0803,0.317976 -0.11808,0.47693 0.0222,0.111804 -0.0333,0.196116 -0.0826,0.291211 -0.0152,0.146556 -0.0557,0.2849904 -0.10298,0.4259224 -0.12886,0.1682955 0.18653,0.223366 0.12373,0.3366869 -0.0509,0.097915 -0.15891,0.1144688 -0.25275,0.1508562 -0.0609,0.055057 -0.0874,0.1487144 -0.0703,0.2220476 0.0603,0.078073 0.17508,0.024302 0.26117,0.039976 0.0933,0.023445 0.16609,-0.023723 0.2278,-0.06868 0.0968,0.049428 0.2891,0.048245 0.26794,-0.099827 -0.0313,-0.1798371 0.082,-0.2346586 0.21137,-0.3195325 0.0806,-0.1278003 0.0531,-0.3218912 0.0981,-0.4723996 0.0268,-0.25376 0.12304,-0.492936 0.16714,-0.743486 0.0675,-0.304759 0.17827,-0.595347 0.30593,-0.879301 0.0682,-0.109152 0.0606,0.08104 0.0575,0.136499 0.008,0.342974 -0.0231,0.697206 0.1003,1.024511 -0.0834,0.121975 0.0333,0.262248 -0.0155,0.393066 -0.0189,0.1417004 -0.0653,0.2875934 -0.0606,0.4276809 0.0414,0.1359898 0.20858,0.1343079 0.32326,0.1765623 -0.0251,0.1207668 -0.041,0.277709 -0.004,0.3817722 0.10818,-0.011352 0.11653,0.087444 0.19707,0.1090592 0.0883,0.01997 0.18088,0.018255 0.27044,0.00938 z m -1.84695,-5.0755603 c -0.0884,-0.07348 -0.12804,-0.09467 0.0255,-0.08745 0.0848,-0.03344 0.1736,0.04513 0.0777,0.106532 -0.0274,0.06283 -0.0777,0.02323 -0.1032,-0.01908 z m -0.73639,-0.206508 c 0.12833,-0.0075 0.28949,0.01124 0.0797,0.0056 -0.004,-8.8e-4 -0.11935,0.0021 -0.0797,-0.0056 z m 1.00775,-0.0891 c 0.10061,-0.005 0.0566,0.01679 -0.003,0.0029 z"
           id="path71010-9"
           sodipodi:nodetypes="sscccsscccsscscscccccssccccccsscsscccssssccssssscsscsscccccccccccscsscscsscs" />
        <path
           id="path71154-3"
           style="fill:#000000;stroke-width:0.00380785"
           d="m 366.60521,-15.192496 c -0.16399,0.01298 -0.33929,0.115863 -0.34305,0.296522 0.016,0.09865 -0.0634,0.213763 -0.0414,0.290944 0.1005,0.04847 0.23724,0.200144 0.16111,0.307656 -0.10501,0.142266 -0.30774,0.146623 -0.42629,0.268743 -0.0869,0.138091 -0.0685,0.309931 -0.0969,0.465422 0.002,0.209302 -0.0224,0.421255 0.0405,0.624411 0.0242,0.07378 0.0731,0.182895 0.16756,0.147107 0.0943,-0.0231 0.0534,0.14612 0.0584,0.203935 -0.13843,0.234709 -0.26992,0.48343 -0.32091,0.753759 0.0705,0.07284 0.14305,0.12837 0.13976,0.24385 0.0502,0.116919 -0.0533,0.23446 0.005,0.349758 -0.0795,0.235088 -0.0408,0.485042 -0.0532,0.728567 0.006,0.198329 -0.009,0.394543 -0.0526,0.5883444 -0.0219,0.1567641 -0.008,0.3181068 -10e-4,0.4756698 0.16153,0.061972 0.13234,0.1633434 -0.005,0.214128 -0.0954,0.021881 -0.20003,0.078502 -0.19663,0.1902599 -0.0442,0.1036271 0.075,0.1366571 0.15523,0.1179346 0.0828,-0.00672 0.17633,0.013669 0.25246,-0.00985 0.078,-0.1254847 0.21935,0.024742 0.33223,-0.060859 0.0388,-0.098414 -0.009,-0.2512267 0.0739,-0.3105588 0.0457,-0.037172 -0.10092,-0.029712 0.0736,-0.059748 0.11329,-0.039662 0.0931,-0.1779687 0.0909,-0.2754675 -0.007,-0.251138 0.003,-0.5044374 -0.0138,-0.7542444 -0.0451,-0.08346 7.6e-4,-0.158936 0.005,-0.24261 0.008,-0.123156 -0.0263,-0.25496 0.0403,-0.36642 0.009,-0.138018 0.0191,-0.276085 0.0353,-0.413517 0.0927,0.28125 0.25151,0.543965 0.2577,0.848201 -0.0201,0.119184 0.0429,0.211391 0.0831,0.301528 -0.0362,0.118396 0.0341,0.228934 0.0165,0.3491644 10e-4,0.12967 0.003,0.2593388 0.004,0.3890098 -0.0817,0.042963 0.005,0.1864119 0.0881,0.1939332 0.17651,0.023411 0.24592,0.080471 0.18342,0.2618452 -0.009,0.1100786 -0.0106,0.2175659 0.12725,0.20963 0.044,0.1342545 0.24081,0.09326 0.35906,0.092031 0.14153,0.019958 0.13604,-0.07929 0.12785,-0.1834512 -0.0269,-0.1087118 -0.18451,-0.1089318 -0.20472,-0.226974 -0.0992,-0.1142719 -0.0597,-0.1975496 0.0859,-0.2496084 0.11362,-0.033603 0.003,-0.2194645 0.0257,-0.3093564 -0.0594,-0.2444112 -0.17602,-0.4831956 -0.15619,-0.7409846 0.004,-0.211909 -0.0106,-0.422043 -0.0569,-0.629186 -0.0321,-0.206003 -0.0796,-0.409424 -0.10597,-0.616273 0.09,-0.02255 0.0964,-0.111503 0.0924,-0.189636 -0.0555,-0.172297 -0.1607,-0.327464 -0.10278,-0.417233 -0.0515,-0.152646 -0.27201,-0.225021 -0.23843,-0.403123 0.005,-0.112222 0.15632,-0.183517 0.0512,-0.330861 -0.032,-0.131527 -0.0408,-0.268132 0.0408,-0.07081 0.0564,0.188926 0.2554,0.281712 0.43571,0.271458 0.137,-0.05281 0.1517,-0.191438 0.16526,-0.31602 -0.005,-0.116241 0.17966,-0.20082 0.0443,-0.312732 -0.008,-0.05659 -0.0148,-0.150344 0.0303,-0.193948 0.13234,-0.112743 -0.14344,-0.345525 0.0506,-0.416823 0.17018,-0.101377 0.23028,-0.279736 0.46148,-0.309827 0.10619,-0.06683 0.49519,-0.134544 0.2987,-0.265665 -0.12154,0.101285 -0.12392,-0.01787 -0.22595,-0.03321 0.13236,0.18337 -0.20485,0.166057 -0.29832,0.260626 -0.23326,0.09953 -0.46666,0.198772 -0.6982,0.302261 -0.054,-0.08228 -0.2545,0.01263 -0.23801,0.100128 -0.0726,0.05803 -0.10416,-0.09268 -0.1929,-0.07376 -0.14497,-0.05632 -0.25756,-0.07975 -0.23392,-0.16672 -0.0526,-0.07499 -0.0152,-0.220612 0.0289,-0.292466 0.15807,-0.0976 0.0287,-0.38276 -0.0399,-0.515829 -0.0929,-0.09378 -0.2261,-0.08208 -0.34831,-0.08901 z m 1.03479,1.306877 c 0.0924,0.08443 0.0988,0.187623 -0.0464,0.232148 -0.0263,-0.0041 -0.14769,-0.206374 -10e-4,-0.210702 0.0161,-0.0072 0.0319,-0.0143 0.048,-0.02145 z"
           sodipodi:nodetypes="csssccscccccssssccccssccccccccccccccccsccscccccscccccccccsccscccccccc" />
        <path
           style="fill:#000000;stroke-width:0.0112487"
           d="m 370.30111,-8.7952965 c -0.12666,-0.063328 -0.0543,-0.2137306 -0.0691,-0.3229763 0.0132,-0.1795695 0.0651,-0.3361723 -0.16081,-0.3526163 -0.0283,-0.060744 -0.003,-0.1609014 0.0106,-0.2324555 0.0389,-0.139769 0.12135,-0.269368 0.0999,-0.4189224 -0.0201,-0.194596 0.0879,-0.377062 0.0726,-0.568267 -0.0975,-0.06594 -0.0893,0.26238 -0.15883,0.338663 -0.0897,0.273018 -0.0897,0.5866331 -0.25522,0.8281458 -0.17673,0.056771 -0.0744,0.1995256 -0.0627,0.3201533 0.0188,0.081421 -0.0272,0.1685062 -0.11353,0.181321 -0.15819,-5.814e-4 -0.28195,0.1225449 -0.43348,0.1233267 -0.0877,-0.010772 -0.19072,0.022298 -0.26837,-0.017224 -0.1165,-0.056621 -0.0314,-0.2263741 0.0795,-0.2143735 0.16461,0.00106 0.22706,-0.1388428 0.31797,-0.2460071 0.1475,-0.159077 -0.15997,-0.2092754 -0.22522,-0.3135403 0.0726,-0.1543135 0.0116,-0.3296719 0.0809,-0.4847139 0.044,-0.129147 0.12139,-0.247438 0.10566,-0.388948 0.0293,-0.157265 0.0535,-0.288276 -0.11108,-0.367201 -0.0472,-0.105666 0.0293,-0.244219 0.0396,-0.361268 0.0398,-0.178905 -0.008,-0.375957 0.10395,-0.53625 0.045,-0.119756 0.16687,-0.215041 0.1376,-0.353221 0.0148,-0.07603 -0.0361,-0.181024 0.0366,-0.231512 0.0543,-0.0545 -0.0408,-0.145349 -0.0519,-0.21966 -0.11625,-0.119012 -0.33081,-0.132942 -0.38957,-0.304358 0.0141,-0.149999 -0.031,-0.316573 0.039,-0.453655 0.20555,-0.07927 0.27351,-0.309427 0.42309,-0.456984 0.0766,-0.117203 0.21149,-0.172177 0.34771,-0.179792 0.12871,0.0026 0.23483,-0.0515 0.31203,-0.149634 0.0744,-0.100568 -0.0558,-0.259073 -0.15454,-0.299988 -0.0492,-0.0651 0.05,-0.165624 0.0273,-0.254947 -3.7e-4,-0.151322 0.097,-0.289487 0.24963,-0.319079 0.109,-0.02952 0.23008,-0.02276 0.33733,0.0027 0.18486,0.05041 0.20414,0.27182 0.21062,0.433316 0.0699,0.13151 -0.13009,0.137638 -0.1005,0.272916 -0.0768,0.09001 0.0919,0.228446 -0.0106,0.223125 0.0201,0.147741 0.2923,0.141033 0.38132,0.263956 0.14128,0.1744 0.17527,0.405363 0.17293,0.622738 0.0249,0.130512 0.0683,0.261461 0.0818,0.39171 -0.0715,0.158469 -0.12397,0.356235 -0.28486,0.44792 -0.007,0.07098 0.0139,0.15367 -0.0249,0.210838 0.0116,0.08289 -0.0231,0.184513 0.0198,0.254586 0.13587,0.139626 0.27175,0.279254 0.40763,0.418879 0.0512,-0.106338 0.12301,-0.06486 0.0737,0.03857 -0.0262,0.09913 0.20006,0.162374 0.13242,0.260228 -0.0566,0.05362 -0.14136,0.03519 -0.17701,-0.03446 -0.0276,-0.106607 -0.14782,-0.0094 -0.1592,-0.08623 -0.0448,-0.109256 -0.17354,-0.203445 -0.25102,-0.303612 -0.14216,-0.168089 -0.009,0.215115 -0.0343,0.300433 -0.003,0.104567 0.0248,0.221599 0.004,0.320512 -0.0528,0.09226 -0.21351,0.08935 -0.2037,0.212708 -0.0152,0.274129 0.0177,0.551728 -0.0106,0.8250984 -0.0421,0.1764501 -0.004,0.3850364 -0.0643,0.5444296 -0.13927,0.00684 -0.32493,0.013808 -0.30699,0.2069867 0.044,0.1206925 0.12152,0.256343 0.0691,0.3850965 -0.063,0.081305 -0.18485,0.084815 -0.27223,0.05537 l -0.0121,-0.00684 z"
           id="path71355-4"
           sodipodi:nodetypes="sscsscsscccsscccssscccssssscssscccccsssscccssscccsscssscs" />
        <path
           style="fill:#000000;stroke-width:0.0143614"
           d="m 364.39945,-8.8683587 c 0.1568,0.0088 0.29788,-0.1052017 0.21818,-0.2642962 -0.0473,-0.1275096 -0.12983,-0.2748108 0.0574,-0.3206528 0.0867,-0.118473 -0.11677,-0.263439 -0.007,-0.4100979 0.0455,-0.13209 -0.0505,-0.2607944 -0.0332,-0.3973524 -0.0283,-0.15526 -0.0333,-0.313187 -0.0415,-0.470477 0.19628,0.02661 0.32803,-0.178283 0.23188,-0.354897 -0.0512,-0.152536 -0.0138,-0.316054 -0.0216,-0.473958 0.0725,-0.152308 -0.0322,-0.329457 -0.0523,-0.488397 -0.0454,-0.17001 0.0424,-0.01941 0.11029,0.0143 0.0369,0.262628 0.0558,0.527891 0.073,0.792586 -0.0974,0.07558 0.0244,0.09532 0.027,0.17115 -0.003,0.10716 0.009,0.261036 0.13781,0.245732 0.0854,-0.02968 -0.0466,-0.271259 0.0803,-0.254256 0.10351,-0.02073 0.0166,-0.115674 -0.0566,-0.06934 -0.0573,-0.240642 -0.0586,-0.49948 -0.0867,-0.747387 -0.005,-0.268609 -0.0137,-0.543012 -0.0632,-0.804922 0.0231,-0.06837 -0.0278,-0.218276 0.0852,-0.187915 0.0781,-0.01226 0.18378,0.03645 0.22795,-0.05026 -3.5e-4,-0.09893 0.0273,-0.208417 0.009,-0.300806 -0.0775,-0.07834 -0.21552,0.01057 -0.31389,-0.02672 -0.1063,-0.06683 -0.0358,-0.285201 -0.0765,-0.413724 -0.007,-0.09841 -0.0415,-0.201468 0.0252,-0.287288 0.0354,-0.06972 0.0262,-0.165639 0.0122,-0.236204 -0.0798,-0.01389 -0.14064,0.133563 -0.27373,0.04487 -0.1459,-0.08296 -0.19464,0.03734 -0.32991,0.01294 -0.14053,0.03508 -0.20242,-0.12319 -0.29856,-0.178971 -0.0149,-0.124446 0.074,-0.260769 0.19702,-0.213062 -0.053,-0.208325 -0.13394,-0.450187 -0.33251,-0.561701 -0.11572,-0.09521 -0.20932,-0.02441 -0.34433,0.01566 -0.056,0.0306 -0.14231,0.08198 -0.13795,0.153275 -0.0923,0.09401 -0.14452,0.259129 -0.11213,0.395287 0.0522,0.111954 0.16143,0.103936 0.17842,0.161717 -0.0178,0.164577 0.2533,0.246413 0.0733,0.383106 -0.24262,0.09726 -0.28807,0.349663 -0.36491,0.56547 -0.0445,0.217242 -0.12273,0.408109 -0.29908,0.546622 -0.0553,0.129484 0.0857,0.178199 0.10565,0.291686 0.0504,0.124846 0.0582,-0.12146 0.1345,0.0017 0.0989,-0.04184 0.12996,0.0017 0.11615,0.102124 0.007,0.09801 0.0705,0.11199 -0.004,0.164305 0.0301,0.105239 -0.066,0.267432 0.0165,0.339502 0.15567,0.05451 0.008,0.252132 0.0106,0.364143 -0.035,0.206583 -0.11958,0.415476 -0.0706,0.626376 0.0503,0.114365 -0.0273,0.313444 0.0664,0.384963 0.12841,-0.02479 0.11397,0.09788 0.14333,0.183684 0.0366,0.167314 0.11051,0.32975 0.0931,0.5041244 0.0229,0.1328833 -0.0551,0.2788129 -0.008,0.4014283 0.10102,0.055786 0.20241,0.1128935 0.0363,0.2080316 -0.0748,0.1196362 -0.25495,0.047747 -0.32465,0.1580253 -0.08,0.099318 0.048,0.1788686 0.14449,0.1837082 0.10183,-0.011237 0.21018,0.00174 0.29879,-0.059435 0.11201,-0.074736 0.15885,-0.058682 0.20087,0.034426 0.11757,0.025993 0.2027,0.1417978 0.32932,0.1251695 0.0706,0.00324 0.14175,0.00209 0.21228,-0.00406 z m -0.30379,-0.3157435 c 0.0153,-0.1021445 -0.10738,-0.2905423 0.0908,-0.1866448 0.0147,0.056099 0.005,0.1554248 -0.0217,0.2173134 -0.0277,0.074344 -0.0971,0.04104 -0.0692,-0.030673 z m 0.66356,-3.1223428 c -0.001,-0.04081 0.0488,-0.213757 0.005,-0.235116 0.0682,0.05554 0.0278,0.160196 0.0463,0.238299 -2.3e-4,0.119551 0.0304,0.120271 -0.0518,-0.0031 z m -0.18191,-0.434127 c 0.10352,-0.01523 0.2798,0.112801 0.14304,0.142147 -0.048,-0.04703 -0.099,-0.09135 -0.14304,-0.142147 z"
           id="path71539-2"
           sodipodi:nodetypes="sccccccccccccccccccccccccccccccccccccccccccccccccccccssccccsccssccc" />
        <path
           d="m 357.08692,-9.0701929 c -0.15291,0.011688 -0.13107,-0.1766771 -0.0382,-0.2290626 0.0756,-0.047759 0.17073,-0.067231 0.2202,-0.14817 0.021,-0.04264 0.11719,-0.081525 0.0627,-0.1279428 -0.0697,-0.075525 -0.0896,-0.1776523 -0.14942,-0.2584153 0.0485,-0.3371004 0.0614,-0.6792644 0.14218,-1.0111494 0.0215,-0.11757 0.11491,-0.215979 0.21275,-0.278456 0.11548,-0.0016 0.0154,-0.150034 0.0438,-0.224979 -0.012,-0.121455 0.0729,-0.224911 0.1112,-0.334957 0.025,-0.06805 0.10912,-0.13934 0.0176,-0.191541 -0.1048,-0.10065 -0.29637,-0.05246 -0.43659,-0.07468 -0.0772,-0.01597 -0.27237,0.03491 -0.25203,-0.09618 -0.043,-0.124915 0.0896,-0.09317 0.17509,-0.109441 0.30322,-0.02153 0.60896,-0.01481 0.91178,-0.02969 0.15336,-0.05722 0.31321,-0.09377 0.47495,-0.117753 -0.009,-0.07638 -0.1257,-0.123471 -0.0489,-0.193491 0.0582,-0.07203 0.029,-0.172493 0.11155,-0.225277 0.0518,-0.04348 0.0833,-0.126756 0.16163,-0.117855 0.0835,-0.01112 0.16773,-0.03011 0.24698,0.0093 0.0568,0.01598 0.11935,0.02421 0.14152,0.08749 0.0386,0.05729 0.0868,0.110588 0.0868,0.183747 0.0178,0.101787 0.0259,0.204878 0.0353,0.307677 0.13731,0.06916 0.25901,0.181137 0.34433,0.30869 0.0265,0.100538 0.0796,0.200744 0.0645,0.306669 -0.0669,0.03971 -0.12913,0.09428 -0.19864,0.124993 -0.0505,0.0071 -0.13573,-0.02815 -0.12521,0.05288 0.0244,0.09309 -0.14952,0.271236 -9.5e-4,0.290661 0.0729,0.0082 0.0822,0.09574 0.0636,0.153213 -0.0142,0.103775 -0.0488,0.207475 -0.017,0.311446 0.0201,0.132152 0.0439,0.264774 0.0409,0.398896 -0.0984,0.03183 -0.18261,0.105709 -0.15384,0.220512 -0.0126,0.07606 0.098,0.01124 0.14477,0.01951 0.0286,0.05495 0.0841,0.0073 0.13355,-0.0098 0.0477,-0.01941 0.12411,-0.0073 0.15686,0.03222 0.038,0.05968 0.0985,0.1144464 0.12292,0.1770094 -0.0374,0.077726 -0.004,0.12911 0.0607,0.1783366 0.0775,0.097511 0.12671,0.2758312 0.051,0.3780411 -0.0551,0.034623 -0.1127,0.058335 -0.17898,0.04703 -0.1112,0.00429 -0.22689,-0.017932 -0.33008,0.03482 -0.13202,0.04242 -0.25298,0.114932 -0.39567,0.1088622 -0.0814,0.0029 -0.16618,0.043102 -0.24435,0.040901 -0.0785,-0.047516 -0.14263,-0.1287894 -0.17193,-0.2136703 -0.0231,-0.1977836 -0.0231,-0.3996062 -0.0854,-0.5906126 -0.0313,-0.1216254 -0.0632,-0.2436744 -0.11305,-0.3592754 -0.15241,-0.07851 -0.32066,-0.116716 -0.47413,-0.194051 -0.12745,0.01578 0.009,0.172583 -0.032,0.259087 0.009,0.09614 -0.0224,0.2025674 0.0409,0.2849414 0.0604,0.07025 -0.007,0.1589 4.2e-4,0.2391706 -0.003,0.081745 -0.0417,0.1824562 -0.13114,0.1996173 -0.0495,0.026607 -0.13707,0.027893 -0.11179,0.1046686 -0.006,0.050308 0.0137,0.1233603 -0.009,0.1599818 -0.0375,0.021338 -0.13464,-0.00684 -0.12499,0.053667 -0.0411,0.011618 -0.12613,-0.036835 -0.17553,0.025286 -0.124,0.035933 -0.2522,0.078269 -0.38094,0.037206 z m 1.04832,-2.2001311 c 0.0796,-0.120609 -0.0553,0.03521 -0.10576,0.04827 -0.074,0.0198 0.0879,0.02902 0.0871,-0.01601 0.005,-0.01077 0.0124,-0.02149 0.0186,-0.03226 z"
           style="fill:#000000;stroke-width:0.00508788"
           id="path74490-2" />
      </g>
    </g>
  </g>
</svg>
