<?xml version="1.0" encoding="UTF-8" standalone="no"?>
<!-- Created with Inkscape (http://www.inkscape.org/) -->

<svg
   width="12.74624mm"
   height="5.547411mm"
   viewBox="0 0 12.74624 5.547411"
   version="1.1"
   id="svg1"
   sodipodi:docname="inkporter-svg-98vuzq3c.svg"
   xmlns:inkscape="http://www.inkscape.org/namespaces/inkscape"
   xmlns:sodipodi="http://sodipodi.sourceforge.net/DTD/sodipodi-0.dtd"
   xmlns="http://www.w3.org/2000/svg"
   xmlns:svg="http://www.w3.org/2000/svg">
  <sodipodi:namedview
     id="namedview1"
     pagecolor="#ffffff"
     bordercolor="#666666"
     borderopacity="1.0"
     inkscape:showpageshadow="2"
     inkscape:pageopacity="0.0"
     inkscape:pagecheckerboard="0"
     inkscape:deskcolor="#d1d1d1"
     inkscape:document-units="mm"
     inkscape:zoom="1.0293026"
     inkscape:cx="447.87605"
     inkscape:cy="570.77479"
     inkscape:window-width="1920"
     inkscape:window-height="1017"
     inkscape:window-x="-8"
     inkscape:window-y="-8"
     inkscape:window-maximized="1"
     inkscape:current-layer="layer1" />
  <defs
     id="defs1" />
  <g
     inkscape:label="Layer 1"
     inkscape:groupmode="layer"
     id="layer1"
     transform="translate(-100.76208,-160.38834)">
    <g
       id="IT-Infantry-para5"
       transform="matrix(0.06274385,0,0,0.06274385,113.10784,192.23398)">
      <path
         style="fill:#000000;stroke-width:0.206916"
         d="m -121.68682,-422.37838 c 1.98405,0.30355 1.87114,-1.08069 1.75878,-2.50857 -0.33514,-1.50808 -2.52587,-1.50386 -2.80495,-3.11863 -1.04475,-1.39868 -1.32511,-2.64539 0.83924,-3.23878 1.43452,-0.74248 2.43313,-2.67971 2.15359,-4.18351 -0.60162,-1.52144 -1.62723,-2.9214 -1.32471,-4.63782 -0.13151,-2.00557 0.151,-4.1019 -0.23735,-6.05116 -1.24127,-2.09749 -0.65749,-4.62893 -1.00124,-6.94474 -0.25632,-2.87051 -0.68191,-5.70773 -0.52076,-8.59857 -7.4e-4,-1.62368 -0.001,-3.24735 -0.002,-4.87103 1.14909,-1.58305 -0.64919,-4.26787 -0.80201,-6.14797 -0.84186,-1.63607 -0.0286,-2.47088 0.67458,-3.485 -0.19802,-1.42692 0.59713,-3.17964 -0.49629,-4.32501 -2.55576,-1.18781 0.24159,-2.93814 -0.21568,-4.79668 -0.01,-4.4366 6.77598,1.23627 7.94693,-3.12126 0.92908,-1.70554 -0.76893,-3.49153 -1.39192,-5.02486 -0.37829,-1.76769 -2.32714,-1.0133 -3.41013,-1.59203 -0.74354,-0.90969 -2.12093,-0.005 -2.62888,-1.22538 -0.57324,-1.31951 -2.1302,-0.22288 -2.93767,-1.25808 -2.40171,-0.79887 1.4583,-2.86771 -0.48783,-4.19011 -0.28137,-1.04001 0.64712,-2.85387 -0.64137,-3.20623 -1.41628,-1.23586 -3.02903,-2.33341 -5.04039,-1.93694 -1.68817,-0.061 -2.90723,1.58804 -4.26049,2.40005 0.61976,0.96893 -0.95528,1.97016 -0.92831,3.00471 0.43422,1.10268 1.26957,3.33109 -0.8011,3.07582 -2.49136,0.14372 -4.29799,1.88391 -6.50673,1.20569 -1.26459,0.38517 -1.87582,-0.16429 -2.85843,-0.34302 -1.11538,-0.031 -2.25775,-0.18285 -3.08862,0.59407 -1.37328,0.95385 -2.50184,-1.53971 -3.33576,-0.53334 -0.11955,1.50056 -1.85421,0.66517 -2.86496,0.87677 h -4.42065 c -0.12589,-2.18381 -3.52965,0.37481 -2.18228,1.38641 0.46759,2.46056 3.99894,0.44054 5.84102,1.21969 0.87244,0.31018 2.85901,-0.44687 2.9729,0.58993 0.46893,1.45742 4.39069,0.80155 2.02696,3.43114 -0.40159,1.15829 0.35732,2.37664 0.44387,3.56019 1.11944,1.40711 2.5348,3.44205 4.46164,3.40064 2.17659,-0.14256 4.80743,-3.43418 6.03173,-2.92879 -1.26908,2.10061 0.80285,4.82405 -1.91575,5.66234 0.0512,1.38557 -0.70421,3.10959 -0.0882,4.33554 0.91917,0.97895 -0.20288,2.32953 -0.25293,3.48494 0.0648,2.47883 -2.82713,5.73831 -0.33406,7.41936 -0.17956,1.86213 -1.13634,3.96149 -1.37099,5.94719 -0.37628,3.04895 -1.71794,5.89284 -2.20472,8.89389 0.11557,2.32247 -1.10589,4.37501 -1.62466,6.56208 0.30636,1.53823 -0.45753,2.69835 -1.13623,4.00677 -0.20993,2.01646 -0.76562,3.92118 -1.41622,5.86027 -1.77294,2.31557 2.56648,3.07329 1.70237,4.63247 -0.70023,1.34726 -2.18638,1.57489 -3.47756,2.07563 -0.83823,0.7576 -1.20199,2.04615 -0.96682,3.05514 0.82854,1.07429 2.40888,0.3344 3.59322,0.55008 1.28425,0.32258 2.28528,-0.32646 3.1345,-0.94491 1.33225,0.68011 3.97768,0.66384 3.68639,-1.37351 -0.43102,-2.47438 1.12605,-3.22867 2.90834,-4.39645 1.10796,-1.75841 0.73033,-4.42889 1.35005,-6.49973 0.36773,-3.49149 1.69309,-6.78232 2.29988,-10.22962 0.92832,-4.19319 2.45264,-8.19138 4.20924,-12.09832 0.93647,-1.50188 0.83303,1.11506 0.79042,1.87811 0.10939,4.71897 -0.31814,9.59283 1.38042,14.09623 -1.14809,1.67824 0.45702,3.60826 -0.21316,5.40821 -0.2601,1.94963 -0.89845,3.95698 -0.83423,5.88444 0.56853,1.87109 2.86993,1.84795 4.44769,2.42932 -0.34636,1.66163 -0.56392,3.821 -0.0599,5.25281 1.4885,-0.15643 1.60345,1.20315 2.71161,1.50048 1.216,0.2748 2.48871,0.25112 3.72083,0.12964 z m -25.41183,-69.83462 c -1.21729,-1.01097 -1.76204,-1.30259 0.3499,-1.20331 1.16635,-0.46019 2.3887,0.62093 1.06981,1.46573 -0.37762,0.86453 -1.06981,0.31966 -1.41971,-0.26242 z m -10.13229,-2.84134 c 1.76565,-0.10379 3.98312,0.15505 1.09702,0.0776 -0.0622,-0.0121 -1.64205,0.0292 -1.09702,-0.0776 z m 13.8657,-1.22602 c 1.38445,-0.0693 0.77897,0.23093 -0.0499,0.0394 z"
         id="path71010-0"
         sodipodi:nodetypes="sscccsscccsscscscccccssccccccsscsscccssssccssssscsscsscccccccccccscsscscsscs" />
      <path
         id="path71154-2"
         style="fill:#000000;stroke-width:0.0523923"
         d="m -64.270238,-507.55006 c -2.256343,0.17864 -4.668223,1.59414 -4.719926,4.07984 0.218644,1.35724 -0.871304,2.94117 -0.570973,4.0031 1.383414,0.66691 3.264374,2.75378 2.216941,4.23304 -1.445149,1.95744 -4.234299,2.01737 -5.865421,3.69763 -1.195258,1.9 -0.94234,4.26434 -1.333793,6.40376 0.02703,2.87976 -0.309227,5.79602 0.558659,8.59124 0.33173,1.01528 1.004972,2.51645 2.305349,2.02406 1.295003,-0.31784 0.734582,2.01046 0.802532,2.80593 -1.90455,3.22937 -3.713816,6.65152 -4.415417,10.37098 0.97087,1.00222 1.968349,1.76623 1.922965,3.35513 0.688189,1.60869 -0.733462,3.22593 0.08415,4.81232 -1.092779,3.23458 -0.560845,6.67366 -0.731104,10.02435 0.09376,2.7288 -0.13184,5.42851 -0.723384,8.09503 -0.30152,2.15691 -0.111496,4.37682 -0.01934,6.54473 2.222423,0.85265 1.820804,2.24745 -0.07355,2.94619 -1.313024,0.3011 -2.75232,1.08011 -2.705611,2.61779 -0.608454,1.42573 1.030899,1.88026 2.136005,1.62266 1.139098,-0.0926 2.426095,0.18812 3.473508,-0.13599 1.072227,-1.72654 3.018092,0.34038 4.571114,-0.83738 0.533712,-1.35414 -0.121989,-3.45663 1.017389,-4.27297 0.628854,-0.51141 -1.389155,-0.40881 1.011574,-0.82203 1.558705,-0.54571 1.281731,-2.44867 1.251254,-3.79016 -0.09392,-3.45541 0.05304,-6.94055 -0.189582,-10.37765 -0.619466,-1.14839 0.01061,-2.1868 0.07676,-3.33806 0.115239,-1.69452 -0.362389,-3.50798 0.555006,-5.04158 0.131424,-1.899 0.26367,-3.79865 0.486275,-5.68958 1.275882,3.86972 3.460639,7.48441 3.545784,11.6704 -0.27533,1.63984 0.590444,2.90854 1.144249,4.14872 -0.499009,1.62899 0.469462,3.1499 0.226844,4.80415 0.02202,1.78414 0.04414,3.56825 0.06628,5.35239 -1.125495,0.59121 0.07873,2.56484 1.213378,2.66832 2.428805,0.32208 3.383703,1.10726 2.523774,3.60273 -0.122291,1.51463 -0.145083,2.99349 1.750795,2.8843 0.606336,1.84721 3.313373,1.2831 4.940357,1.26624 1.947263,0.27461 1.871799,-1.09098 1.759078,-2.5241 -0.369256,-1.49574 -2.53858,-1.49876 -2.816756,-3.12293 -1.36399,-1.57228 -0.820359,-2.71809 1.183222,-3.43437 1.562678,-0.46241 0.04065,-3.01961 0.352003,-4.25643 -0.817946,-3.36288 -2.421682,-6.64829 -2.14881,-10.19522 0.0579,-2.91565 -0.144309,-5.80688 -0.784455,-8.65695 -0.442732,-2.8344 -1.094661,-5.63327 -1.458241,-8.47931 1.238675,-0.31033 1.327567,-1.53422 1.271257,-2.60919 -0.763994,-2.37064 -2.210977,-4.50559 -1.414256,-5.74072 -0.709881,-2.10024 -3.74279,-3.09607 -3.280703,-5.54657 0.07368,-1.544 2.150647,-2.52502 0.704565,-4.55231 -0.441671,-1.80967 -0.561102,-3.68922 0.561129,-0.97433 0.776437,2.59943 3.513955,3.87607 5.994891,3.73499 1.885008,-0.72676 2.087117,-2.63398 2.273794,-4.34813 -0.07849,-1.59936 2.471854,-2.76305 0.610547,-4.30287 -0.109501,-0.77851 -0.203658,-2.06859 0.417358,-2.66853 1.820767,-1.55123 -1.973539,-4.75406 0.695565,-5.73506 2.341418,-1.39491 3.168438,-3.84889 6.34948,-4.26291 1.461592,-0.91967 6.813208,-1.85119 4.109835,-3.65528 -1.67236,1.39362 -1.704996,-0.24587 -3.10886,-0.45701 1.821202,2.52299 -2.818511,2.28478 -4.104563,3.58595 -3.209416,1.36951 -6.420802,2.73489 -9.606744,4.1588 -0.744835,-1.13197 -3.501478,0.17367 -3.274731,1.37771 -0.996949,0.79844 -1.431964,-1.27521 -2.653864,-1.01497 -1.994728,-0.77483 -3.543897,-1.09741 -3.21865,-2.29388 -0.722956,-1.0318 -0.209233,-3.03543 0.396875,-4.02405 2.174794,-1.34289 0.39317,-5.2664 -0.549415,-7.09729 -1.278041,-1.29042 -3.11091,-1.1295 -4.792396,-1.22467 z m 14.237892,17.98132 c 1.272303,1.16165 1.35737,2.58151 -0.637675,3.19413 -0.362166,-0.0565 -2.032185,-2.83951 -0.02183,-2.89904 0.219834,-0.0983 0.439667,-0.19672 0.659501,-0.29509 z"
         sodipodi:nodetypes="csssccscccccssssccccssccccccccccccccccsccscccccscccccccccsccscccccccc" />
      <path
         style="fill:#000000;stroke-width:0.15477"
         d="m -13.418254,-419.53101 c -1.742902,-0.87127 -0.747634,-2.94072 -0.951055,-4.44383 0.181455,-2.4707 0.895757,-4.6254 -2.212512,-4.85165 -0.388576,-0.83573 -0.05146,-2.21385 0.15098,-3.19835 0.535623,-1.92308 1.669609,-3.70625 1.373235,-5.76397 -0.275309,-2.67743 1.208985,-5.18798 0.997595,-7.81877 -1.34242,-0.90732 -1.22825,3.61008 -2.185185,4.65966 -1.233635,3.75645 -1.234445,8.07149 -3.511845,11.39446 -2.4315,0.78117 -1.02471,2.74527 -0.86252,4.40499 0.25766,1.12028 -0.37492,2.31847 -1.56206,2.49479 -2.17668,-0.008 -3.87938,1.68609 -5.96446,1.69686 -1.20637,-0.14894 -2.62399,0.30686 -3.69243,-0.23692 -1.60291,-0.779 -0.43242,-3.11469 1.0939,-2.94956 2.26492,0.0147 3.12399,-1.91034 4.37479,-3.38481 2.02964,-2.18875 -2.20098,-2.87942 -3.09866,-4.314 0.99773,-2.12319 0.15287,-4.53595 1.11178,-6.66917 0.60586,-1.77694 1.66996,-3.40451 1.45353,-5.35155 0.40267,-2.1638 0.73547,-3.96639 -1.5291,-5.05231 -0.64993,-1.45377 0.40284,-3.36021 0.54494,-4.97069 0.549,-2.46154 -0.11274,-5.17278 1.43038,-7.37826 0.62024,-1.64771 2.29598,-2.95875 1.89332,-4.85996 0.20367,-1.04593 -0.49796,-2.49073 0.50299,-3.18538 0.74662,-0.74982 -0.56072,-1.99985 -0.7143,-3.0223 -1.59943,-1.6375 -4.55174,-1.82914 -5.36006,-4.18765 0.19423,-2.06385 -0.42542,-4.35573 0.53781,-6.24185 2.82834,-1.0906 3.76319,-4.2574 5.82147,-6.28763 1.05422,-1.6126 2.90974,-2.36897 4.78427,-2.47376 1.770714,0.0344 3.23089,-0.70853 4.292891,-2.05882 1.022516,-1.38378 -0.765931,-3.56457 -2.126191,-4.12753 -0.67775,-0.89574 0.690027,-2.27882 0.375621,-3.5078 -0.0051,-2.08205 1.333448,-3.98307 3.434652,-4.39023 1.500073,-0.40606 3.1657233,-0.3132 4.6414503,0.0366 2.543403,0.69343 2.808845,3.73998 2.897975,5.96201 0.96169,1.80945 -1.790056,1.89375 -1.383951,3.75504 -1.054629,1.23834 1.263172,3.1432 -0.137751,3.06997 0.276603,2.0328 4.021844,1.9405 5.24685,3.63177 1.94372199,2.39958 2.41139599,5.57739 2.37913599,8.56826 0.341939,1.79572 0.93813801,3.59744 1.12573201,5.38952 -0.98573101,2.18039 -1.70586601,4.90146 -3.919391,6.16295 -0.09054,0.97646 0.190503,2.11434 -0.34335,2.90092 0.15718,1.14051 -0.31809,2.53873 0.271979,3.50285 1.86957699,1.92112 3.73915,3.84224 5.608723,5.76336 0.704813,-1.46307 1.692396,-0.89241 1.013437,0.53062 -0.359483,1.36392 2.752559,2.23413 1.821827,3.58048 -0.778816,0.73783 -1.944951,0.48413 -2.435311,-0.47421 -0.381385,-1.46678 -2.034118,-0.12925 -2.190637,-1.18652 -0.61686601,-1.50324 -2.38754001,-2.7992 -3.45365,-4.17742 -1.955887,-2.31272 -0.128392,2.95979 -0.471567,4.13369 -0.04148,1.43877 0.340742,3.04896 0.06177,4.40991 -0.727334,1.26948 -2.937565,1.2295 -2.802756,2.92666 -0.208169,3.77174 0.244435,7.59122 -0.143435,11.35251 -0.579309,2.42777 -0.06966,5.29772 -0.885374,7.49081 -1.916277,0.094 -4.4708013,0.1899 -4.2236993,2.84792 0.6059573,1.66061 1.6721083,3.52702 0.9508053,5.29854 -0.8647943,1.1186 -2.5432023,1.16702 -3.7455253,0.76187 l -0.165647,-0.0936 z"
         id="path71355-8"
         sodipodi:nodetypes="sscsscsscccsscccssscccssssscssscccccsssscccssscccsscssscs" />
      <path
         style="fill:#000000;stroke-width:0.1976"
         d="m -94.619167,-420.53628 c 2.157285,0.12074 4.098441,-1.44751 3.001961,-3.63644 -0.652544,-1.75441 -1.786293,-3.78112 0.789556,-4.41186 1.194355,-1.63008 -1.606613,-3.62466 -0.09623,-5.64253 0.624805,-1.81744 -0.69367,-3.58828 -0.455171,-5.46718 -0.388019,-2.13622 -0.457047,-4.30914 -0.572276,-6.4733 2.700905,0.36606 4.513453,-2.45299 3.190568,-4.88302 -0.703691,-2.09874 -0.189046,-4.34859 -0.297259,-6.52119 0.996178,-2.0956 -0.44521,-4.53299 -0.719864,-6.71984 -0.624453,-2.33918 0.583021,-0.26701 1.517336,0.19676 0.508282,3.61349 0.767073,7.26326 1.003801,10.90517 -1.341015,1.03998 0.334611,1.31137 0.370881,2.35487 -0.05424,1.47446 0.121058,3.59158 1.896125,3.38103 1.174001,-0.40837 -0.641088,-3.73228 1.103931,-3.49833 1.424703,-0.28513 0.227533,-1.59155 -0.779624,-0.95398 -0.788393,-3.311 -0.80439,-6.87235 -1.192246,-10.2833 -0.07495,-3.69579 -0.18777,-7.47131 -0.868214,-11.07491 0.318399,-0.94077 -0.384728,-3.00326 1.170827,-2.58552 1.073613,-0.16874 2.528756,0.50158 3.136552,-0.6916 -0.005,-1.36112 0.376254,-2.8676 0.132191,-4.13879 -1.066802,-1.07785 -2.965194,0.14572 -4.318582,-0.36767 -1.462775,-0.9196 -0.492849,-3.92406 -1.05163,-5.69242 -0.09815,-1.35407 -0.570875,-2.77202 0.347193,-3.9528 0.485392,-0.95926 0.359597,-2.27903 0.166698,-3.24992 -1.098548,-0.19115 -1.934916,1.83769 -3.766182,0.61742 -2.007371,-1.14134 -2.678073,0.51373 -4.539267,0.17811 -1.933564,0.48256 -2.784963,-1.69499 -4.10803,-2.46247 -0.206083,-1.71223 1.018972,-3.58793 2.711167,-2.93151 -0.727682,-2.86633 -1.843013,-6.19413 -4.575105,-7.72843 -1.59258,-1.31016 -2.8802,-0.33573 -4.7376,0.21542 -0.77012,0.42105 -1.95828,1.12791 -1.89815,2.10891 -1.27053,1.29352 -1.98847,3.56536 -1.54338,5.43875 0.71841,1.54033 2.221,1.4301 2.45478,2.22508 -0.24536,2.26441 3.48522,3.39038 1.00941,5.27114 -3.33818,1.33809 -3.96355,4.81103 -5.02075,7.7803 -0.61276,2.98903 -1.68884,5.61518 -4.11521,7.52098 -0.76062,1.78157 1.17886,2.45184 1.45274,4.0133 0.69109,1.71777 0.80157,-1.67116 1.85047,0.0236 1.35967,-0.57566 1.78815,0.0242 1.59803,1.40507 0.0923,1.34854 0.96995,1.54079 -0.0578,2.26067 0.41371,1.44792 -0.90916,3.67959 0.22592,4.67121 2.14191,0.75012 0.11126,3.46908 0.15003,5.01023 -0.48304,2.84239 -1.6453,5.71654 -0.97278,8.61831 0.68929,1.57359 -0.37623,4.31268 0.9153,5.29671 1.76658,-0.34109 1.56762,1.34678 1.97195,2.52731 0.50359,2.30207 1.51994,4.53702 1.28111,6.93625 0.31537,1.82833 -0.75706,3.83619 -0.11199,5.52325 1.39057,0.76754 2.78517,1.55338 0.50112,2.86231 -1.03003,1.64606 -3.50784,0.65696 -4.46701,2.17426 -1.10171,1.36658 0.66002,2.46106 1.98806,2.52764 1.40161,-0.15477 2.89206,0.0247 4.11092,-0.81777 1.54127,-1.02832 2.18583,-0.80742 2.76378,0.47376 1.61799,0.35764 2.789036,1.95099 4.531353,1.7222 0.972956,0.044 1.950156,0.0283 2.920572,-0.0552 z m -4.179807,-4.34431 c 0.210027,-1.40539 -1.478106,-3.99757 1.250204,-2.56804 0.20186,0.7719 0.07638,2.13849 -0.297666,2.99001 -0.383072,1.02293 -1.335491,0.56476 -0.952538,-0.42197 z m 9.129735,-42.96031 c -0.01706,-0.56151 0.671767,-2.94108 0.07615,-3.23495 0.936587,0.76426 0.383877,2.20415 0.636365,3.27875 -0.0033,1.6449 0.417973,1.65481 -0.712518,-0.0438 z m -2.502627,-5.97316 c 1.42542,-0.20952 3.849593,1.55203 1.96793,1.95581 -0.660304,-0.64714 -1.360899,-1.2569 -1.96793,-1.95581 z"
         id="path71539-6"
         sodipodi:nodetypes="sccccccccccccccccccccccccccccccccccccccccccccccccccccssccccsccssccc" />
      <path
         d="m -195.23226,-423.31332 c -2.10401,0.16074 -1.80349,-2.4309 -0.52438,-3.15167 1.0409,-0.65718 2.34901,-0.92511 3.02977,-2.03867 0.28838,-0.58672 1.61229,-1.12171 0.86179,-1.76035 -0.95773,-1.0392 -1.23405,-2.44433 -2.0557,-3.55554 0.66783,-4.63818 0.84513,-9.34601 1.95598,-13.91241 0.29474,-1.61765 1.58161,-2.97166 2.92732,-3.83127 1.58908,-0.0216 0.21262,-2.06432 0.6026,-3.09549 -0.16354,-1.67111 1.00174,-3.09456 1.53002,-4.60868 0.34415,-0.93632 1.50215,-1.91716 0.242,-2.6354 -1.44212,-1.38487 -4.0777,-0.72177 -6.00695,-1.02774 -1.06227,-0.21969 -3.74773,0.4804 -3.46776,-1.32337 -0.59108,-1.71871 1.23238,-1.2819 2.40897,-1.50574 4.17201,-0.2963 8.37879,-0.20362 12.54527,-0.40854 2.11008,-0.7873 4.30943,-1.29027 6.53458,-1.62015 -0.12395,-1.05101 -1.72937,-1.69883 -0.67327,-2.66225 0.80199,-0.99112 0.39831,-2.37333 1.53489,-3.09959 0.71194,-0.59825 1.14531,-1.74402 2.22393,-1.62156 1.14927,-0.15238 2.30782,-0.41435 3.39826,0.1279 0.78198,0.21984 1.64213,0.33307 1.94699,1.20365 0.53057,0.78819 1.19451,1.52159 1.19337,2.52818 0.24577,1.40038 0.3562,2.81891 0.48665,4.23332 1.88933,0.9516 3.56371,2.49227 4.73758,4.24727 0.36451,1.38321 1.09492,2.76203 0.8881,4.21945 -0.91911,0.54635 -1.77665,1.29725 -2.73301,1.71978 -0.69352,0.0978 -1.86752,-0.3873 -1.72275,0.72761 0.33509,1.2808 -2.05735,3.73193 -0.0131,3.99921 1.00291,0.1126 1.1303,1.31729 0.87505,2.10805 -0.1966,1.42791 -0.67241,2.85466 -0.2352,4.28519 0.27537,1.81827 0.60451,3.64303 0.56331,5.4884 -1.35382,0.43781 -2.51253,1.45453 -2.11667,3.03403 -0.17326,1.04649 1.3488,0.15508 1.99193,0.26836 0.39223,0.756 1.1579,0.10021 1.83734,-0.13584 0.65484,-0.2669 1.70761,-0.10065 2.15837,0.44345 0.52081,0.82109 1.35422,1.57472 1.69123,2.43547 -0.51437,1.06945 -0.0602,1.77644 0.83456,2.45375 1.06618,1.3417 1.7434,3.79516 0.70193,5.20146 -0.75745,0.47637 -1.55142,0.80258 -2.46257,0.64713 -1.53062,0.0589 -3.12187,-0.24678 -4.54156,0.47913 -1.81654,0.58358 -3.48078,1.58142 -5.44416,1.49779 -1.12007,0.0401 -2.28634,0.59313 -3.36204,0.56277 -1.08113,-0.65374 -1.96228,-1.77202 -2.36551,-2.93989 -0.3191,-2.72131 -0.31888,-5.49818 -1.17387,-8.12624 -0.42984,-1.67343 -0.87042,-3.35272 -1.55496,-4.94327 -2.09701,-1.08021 -4.41191,-1.60589 -6.5233,-2.66995 -1.75362,0.21709 0.13433,2.37455 -0.44165,3.56478 0.12663,1.32273 -0.30952,2.7871 0.56251,3.92051 0.8297,0.96667 -0.10142,2.1863 0.006,3.29074 -0.0516,1.12478 -0.57397,2.51042 -1.80452,2.74653 -0.68294,0.36608 -1.88582,0.38377 -1.53844,1.44016 -0.0942,0.69214 0.18881,1.69732 -0.13227,2.20119 -0.51607,0.29362 -1.85247,-0.0935 -1.71981,0.73848 -0.5655,0.15985 -1.73562,-0.50681 -2.41511,0.34797 -1.70626,0.4944 -3.47007,1.07687 -5.2414,0.5119 z m 14.42384,-30.2716 c 1.09461,-1.65945 -0.76041,0.48458 -1.45437,0.66406 -1.01837,0.27252 1.20995,0.39919 1.19921,-0.22026 0.0851,-0.14793 0.17011,-0.29587 0.25516,-0.4438 z"
         style="fill:#000000;stroke-width:0.0700042"
         id="path74490-1" />
    </g>
  </g>
</svg>
