<?xml version="1.0" encoding="UTF-8" standalone="no"?>
<!-- Created with Inkscape (http://www.inkscape.org/) -->

<svg
   width="9.7136898mm"
   height="6.5529599mm"
   viewBox="0 0 9.7136898 6.5529599"
   version="1.1"
   id="svg1"
   sodipodi:docname="inkporter-svg-iknbq28b.svg"
   xmlns:inkscape="http://www.inkscape.org/namespaces/inkscape"
   xmlns:sodipodi="http://sodipodi.sourceforge.net/DTD/sodipodi-0.dtd"
   xmlns="http://www.w3.org/2000/svg"
   xmlns:svg="http://www.w3.org/2000/svg">
  <sodipodi:namedview
     id="namedview1"
     pagecolor="#ffffff"
     bordercolor="#666666"
     borderopacity="1.0"
     inkscape:showpageshadow="2"
     inkscape:pageopacity="0.0"
     inkscape:pagecheckerboard="0"
     inkscape:deskcolor="#d1d1d1"
     inkscape:document-units="mm"
     inkscape:zoom="1.0293026"
     inkscape:cx="447.87605"
     inkscape:cy="570.77479"
     inkscape:window-width="1920"
     inkscape:window-height="1017"
     inkscape:window-x="-8"
     inkscape:window-y="-8"
     inkscape:window-maximized="1"
     inkscape:current-layer="layer1" />
  <defs
     id="defs1" />
  <g
     inkscape:label="Layer 1"
     inkscape:groupmode="layer"
     id="layer1"
     transform="translate(-116.41653,-139.63186)">
    <g
       id="IT-InfantryHQ3b"
       transform="translate(-129.11666,-6.4181383)">
      <path
         d="m 253.01558,146.33086 -0.0361,0.0131 c -0.0199,0.007 -0.0515,0.006 -0.0703,-0.003 -0.0188,-0.009 -0.0841,0.003 -0.14495,0.0255 l -0.11072,0.0416 -0.14131,-0.0137 c -0.0777,-0.008 -0.16305,-0.003 -0.18959,0.009 l -0.0482,0.0227 0.0938,-0.004 c 0.0516,-0.002 0.10629,0.002 0.12149,0.009 l 0.0276,0.013 -0.16896,0.0764 c -0.16863,0.0762 -0.23171,0.12215 -0.13238,0.0964 0.0288,-0.007 0.12864,-0.0529 0.22185,-0.10086 0.0932,-0.048 0.17856,-0.083 0.18965,-0.0778 l 0.0202,0.009 -0.0611,0.0649 c -0.10647,0.11307 -0.16151,0.1514 -0.31053,0.21632 l -0.14532,0.0633 0.049,0.003 c 0.027,0.002 0.068,0.004 0.0912,0.005 l 0.0421,0.002 -0.024,0.0511 -0.024,0.051 0.0304,-0.003 0.0305,-0.004 -0.0228,0.0486 c -0.0125,0.0267 -0.0134,0.053 -0.002,0.0585 0.03,0.0141 0.0858,-0.0451 0.0816,-0.0867 l -0.004,-0.035 0.0247,0.0511 0.0247,0.0512 -0.0275,0.0627 -0.0275,0.0627 0.0424,-0.0376 0.0424,-0.0377 -0.0309,0.0719 -0.0308,0.0719 0.0585,-0.0301 c 0.0322,-0.0166 0.0671,-0.0229 0.0777,-0.014 l 0.0191,0.0163 0.0399,-0.0849 0.0399,-0.0849 0.0817,-0.0668 0.0817,-0.0667 0.0562,-0.13221 3.6e-4,0.034 0.002,0.28935 0.0402,0.11034 0.0401,0.11034 -0.0292,0.085 -0.0293,0.085 -0.16305,0.0341 c -0.0897,0.0188 -0.21974,0.0661 -0.2891,0.10511 l -0.12611,0.071 -0.0356,0.10942 c -0.0508,0.1562 -0.13781,0.78236 -0.13781,0.99149 v 0.1771 l 0.0756,0.0701 0.0756,0.0701 -0.01,0.1412 c -0.006,0.0777 -0.0249,0.23193 -0.0431,0.34285 -0.0182,0.11092 -0.0256,0.21378 -0.0164,0.22857 0.009,0.0148 0.036,0.0269 0.0598,0.0269 0.0238,0 0.0633,0.0201 0.0879,0.0447 l 0.0447,0.0447 -0.0638,0.28282 -0.0638,0.28276 0.0828,0.16902 0.0828,0.16909 0.0172,0.15763 c 0.01,0.0867 0.0164,0.24501 0.0154,0.35178 -9.5e-4,0.10678 0.015,0.28412 0.0355,0.39409 0.0205,0.10997 0.0357,0.25159 0.0338,0.31471 -0.002,0.0631 -0.032,0.18132 -0.0669,0.26268 -0.0349,0.0814 -0.0634,0.18932 -0.0634,0.2399 l 7e-5,0.092 h 0.20264 0.20265 l 0.0519,-0.0518 0.0519,-0.0519 -0.0227,-0.16096 c -0.0125,-0.0885 -0.0271,-0.19642 -0.0325,-0.23977 -0.0139,-0.11188 0.0813,-0.91904 0.11613,-0.98478 0.016,-0.0301 0.0291,-0.0897 0.0291,-0.13251 0,-0.0849 0.0533,-0.22676 0.11318,-0.30141 0.0209,-0.026 0.0442,-0.0757 0.0518,-0.11035 l 0.0138,-0.0631 0.0227,0.12611 c 0.0125,0.0694 0.0361,0.15073 0.0525,0.18084 0.0164,0.0301 0.0298,0.0952 0.0298,0.14452 0,0.0494 0.008,0.0976 0.0174,0.10714 0.0191,0.0191 0.0543,0.62281 0.0539,0.92315 -1.2e-4,0.10403 -0.0109,0.26364 -0.024,0.35467 l -0.0238,0.16552 0.0276,0.004 c 0.0911,0.0142 0.43813,0.0359 0.62671,0.0392 l 0.22069,0.004 0.0103,-0.0727 c 0.006,-0.04 -0.006,-0.0921 -0.0255,-0.11577 -0.0197,-0.0237 -0.0901,-0.0522 -0.15659,-0.0635 l -0.12087,-0.0204 -0.0744,-0.0793 -0.0743,-0.0793 v -0.24168 c 0,-0.13295 0.009,-0.35888 0.02,-0.50209 l 0.02,-0.26041 0.0387,-0.0466 0.0387,-0.0465 -0.0171,-0.0446 -0.0171,-0.0446 0.0442,-0.0583 c 0.0243,-0.032 0.0445,-0.0892 0.0451,-0.12704 l 9.5e-4,-0.0688 0.0586,-0.0186 0.0586,-0.0186 0.0547,-0.12136 0.0547,-0.12131 -0.039,-0.24199 -0.039,-0.24193 0.0403,-0.0753 0.0403,-0.0753 -0.0183,-0.15185 c -0.01,-0.0835 -0.0283,-0.21453 -0.0406,-0.29119 l -0.0224,-0.13941 0.13104,0.10523 c 0.072,0.0579 0.13103,0.12064 0.13115,0.13941 1.2e-4,0.0188 0.0496,0.0678 0.10992,0.10887 l 0.10966,0.0747 0.0714,-0.0164 c 0.0393,-0.009 0.11711,-0.0349 0.17303,-0.0576 l 0.10166,-0.0413 0.10936,0.0395 0.1093,0.0395 0.0659,-0.0408 0.0659,-0.0408 -0.009,-0.063 -0.009,-0.0631 -0.0978,-0.0488 c -0.0538,-0.0269 -0.16854,-0.0943 -0.25499,-0.14976 -0.0865,-0.0555 -0.17455,-0.10086 -0.19575,-0.10086 -0.0618,0 -0.32509,-0.21323 -0.43743,-0.35418 -0.0568,-0.0712 -0.10942,-0.15902 -0.11699,-0.19507 -0.008,-0.0361 -0.0304,-0.25001 -0.0507,-0.47543 -0.0203,-0.22541 -0.0482,-0.4318 -0.062,-0.45867 -0.0278,-0.0542 -0.33477,-0.21898 -0.40844,-0.21934 l -0.0468,-2.4e-4 -0.0557,-0.0977 -0.0557,-0.0978 0.0636,-0.10283 0.0635,-0.10277 v -0.093 c 0,-0.0512 -0.022,-0.16716 -0.0489,-0.25782 l -0.049,-0.16484 -0.1008,-0.0615 -0.1008,-0.0614 -0.12974,-1.2e-4 z m -0.52678,0.40295 -0.0166,0.0354 c -0.009,0.0195 -0.0344,0.0465 -0.0562,0.06 l -0.0395,0.0246 0.0166,-0.0354 c 0.009,-0.0195 0.0344,-0.0465 0.0561,-0.06 z"
         style="fill:#000000;stroke-width:0.0315267"
         id="path66655-9-5-6"
         sodipodi:nodetypes="cssscsscscccssscssccsccccccsscccccccccscccccccccccccsscssccccsssscccccsssssccccccsssssccsssssccscccsscccsscccccsccccccccccccccssccsccccccccssssssscccccssccccccsscssc" />
      <path
         id="path58354-0-2-8-6"
         style="fill:#000000;stroke-width:0.0338966"
         d="m 250.55584,146.05 -0.13188,0.036 c -0.0725,0.0198 -0.15274,0.053 -0.17822,0.0738 -0.01,0.008 -0.0245,0.0285 -0.0409,0.0536 -0.0186,0.006 -0.0381,0.0129 -0.0572,0.0211 l -0.11679,0.0503 -0.15247,-0.007 c -0.0839,-0.004 -0.17525,0.005 -0.20311,0.0193 l -0.0507,0.0267 0.10063,-0.009 c 0.0553,-0.005 0.11426,-0.003 0.13095,0.004 l 0.0303,0.0126 -0.17756,0.0906 c -0.1772,0.0905 -0.24267,0.14307 -0.13731,0.11036 0.0306,-0.01 0.13553,-0.0633 0.23317,-0.11963 0.0977,-0.0563 0.18749,-0.0983 0.19968,-0.0933 l 0.0222,0.009 -0.0623,0.0728 c -0.10856,0.12687 -0.16576,0.17087 -0.32249,0.2482 l -0.15279,0.0754 0.0528,5.9e-4 c 0.029,3.6e-4 0.0732,9.6e-4 0.0981,10e-4 l 0.0453,3.5e-4 -0.0232,0.0561 -0.0232,0.0561 0.0325,-0.005 0.0325,-0.005 -0.022,0.0533 c -0.0121,0.0293 -0.0116,0.0576 0.001,0.0629 0.033,0.0136 0.0899,-0.0528 0.0832,-0.0973 l -0.006,-0.0375 0.0291,0.0537 0.0291,0.0536 -0.0263,0.0689 -0.0263,0.0688 0.0436,-0.0426 0.0437,-0.0426 -0.0295,0.0788 -0.0295,0.0788 0.0612,-0.0353 c 0.0337,-0.0194 0.0709,-0.028 0.0827,-0.0189 l 0.0214,0.0164 0.0385,-0.0932 0.0385,-0.0932 0.0628,-0.0566 0.0499,0.17955 c 0.0316,0.1135 0.0574,0.22942 0.0574,0.25767 v 0.0514 h -0.07 c -0.0385,0 -0.0973,0.0146 -0.13049,0.0324 l -0.0604,0.0323 -0.0584,0.18557 c -0.0321,0.10206 -0.0891,0.22094 -0.12659,0.26422 l -0.0682,0.0787 -0.13267,0.005 -0.13261,0.005 -0.0191,-0.0309 c -0.03,-0.0485 -0.12249,-0.0362 -0.1904,0.0252 l -0.062,0.0561 v 0.0888 c 0,0.0489 0.0237,0.12282 0.0528,0.16426 l 0.0528,0.0753 h 0.0576 0.0575 l 0.10156,0.12115 c 0.0558,0.0666 0.10975,0.15426 0.11989,0.19477 l 0.0185,0.0737 0.0493,0.003 c 0.0271,0.002 0.0841,0.006 0.12652,0.009 l 0.0771,0.005 -0.0517,0.1 c -0.0284,0.055 -0.0517,0.14542 -0.0517,0.20092 v 0.10097 l 0.0828,0.0651 0.0828,0.0651 -0.0193,0.18663 -0.0193,0.18663 0.0779,0.0546 0.0779,0.0545 -0.0414,0.12838 -0.0413,0.1283 0.0293,0.20768 0.0293,0.20769 -0.0283,0.0765 -0.0283,0.0765 0.0414,0.12261 c 0.0228,0.0674 0.0671,0.15311 0.0984,0.1904 l 0.057,0.0678 0.0377,0.32778 c 0.0207,0.18029 0.0377,0.36103 0.0377,0.40166 v 0.0739 l -0.11526,0.11526 -0.11527,0.11526 h -0.0814 c -0.0447,0 -0.0996,0.0183 -0.12201,0.0406 -0.0224,0.0224 -0.0406,0.0755 -0.0406,0.11804 v 0.0773 l 0.0924,0.0232 0.0924,0.0232 0.23026,-0.0395 c 0.12665,-0.0217 0.2837,-0.0395 0.34896,-0.0395 h 0.11864 l -0.0213,0.0846 -0.0213,0.0847 0.0799,0.0843 v -1.2e-4 l 0.08,0.0843 0.1949,6e-4 0.19491,5.9e-4 v -0.10288 -0.10288 l -0.0542,-0.0826 c -0.0298,-0.0454 -0.06,-0.14024 -0.0672,-0.21066 -0.007,-0.0704 0.002,-0.20454 0.021,-0.29806 0.0187,-0.0935 0.0475,-0.29006 0.064,-0.43675 l 0.0299,-0.26667 0.0887,-0.0822 0.0887,-0.0823 -0.0193,-0.0311 c -0.0106,-0.0171 -0.002,-0.063 0.0186,-0.10195 l 0.0379,-0.0708 -0.0497,-0.0759 -0.0498,-0.0759 0.0285,-0.051 c 0.0157,-0.028 0.0555,-0.25112 0.0884,-0.49574 l 0.0598,-0.44476 0.10301,0.0194 0.10308,0.0194 0.24741,0.1902 c 0.13608,0.1046 0.27681,0.21084 0.31268,0.23609 l 0.0652,0.0459 0.0402,-0.0883 0.0402,-0.0883 -0.0386,-0.0847 -0.0386,-0.0847 h -0.0679 c -0.0758,0 -0.41024,-0.20097 -0.54936,-0.3301 l -0.0903,-0.0838 0.11784,-0.10348 0.11791,-0.10354 -0.0176,-0.29117 -0.0177,-0.29123 -0.0868,-0.33387 c -0.0477,-0.18363 -0.10376,-0.36668 -0.12453,-0.40676 -0.0208,-0.0401 -0.0885,-0.13566 -0.15048,-0.21238 l -0.11268,-0.1395 -0.11679,-0.0554 c -0.0642,-0.0305 -0.15367,-0.0554 -0.19887,-0.0554 h -0.0822 l -0.078,-0.083 -0.078,-0.083 0.0202,-0.0526 0.0202,-0.0526 h 0.12075 0.12076 l 0.0191,-0.05 0.0192,-0.05 -0.0689,-0.11156 -0.0689,-0.11148 0.0186,-0.1387 0.0186,-0.13864 -0.1387,-0.1283 c -0.0763,-0.0706 -0.16732,-0.14843 -0.20238,-0.17299 z m -0.68522,0.59319 -0.016,0.0389 c -0.009,0.0214 -0.0346,0.0517 -0.0572,0.0673 l -0.0412,0.0285 0.016,-0.0389 c 0.009,-0.0214 0.0346,-0.0517 0.0573,-0.0674 z m 0.73812,4.45456 h 0.0313 0.0314 l 0.0222,0.41345 0.0223,0.41344 -0.0306,0.0307 -0.0306,0.0306 -0.0161,-0.0628 c -0.009,-0.0345 -0.0192,-0.2343 -0.023,-0.44403 z"
         sodipodi:nodetypes="cscccccccccccccccssccccccccscscccccccccccccccsscsccsscccsccsccccssccccsscccccccccccccscccscccscsccccsccccccccccsscscccscccccsccccscccccsscccccsssccscccccccccccccccccsccscccccccccccc" />
      <path
         id="path66849-9-7-5-1-9"
         style="fill:#000000;stroke-width:0.0315267"
         d="m 247.95872,146.32964 0.0281,0.0428 0.0282,0.0427 0.0643,-0.0204 0.0643,-0.0204 0.0203,0.0328 0.0203,0.0328 h 0.15578 0.15573 l 0.0631,0.0631 c 0.0347,0.0347 0.0631,0.0777 0.0631,0.0957 v 0.0326 l -0.0657,-0.0352 c -0.0362,-0.0194 -0.0741,-0.0269 -0.0842,-0.0168 -0.0101,0.0101 0.009,0.0503 0.0421,0.0893 0.0908,0.10615 0.13934,0.20383 0.13934,0.28017 v 0.0684 l -0.0671,-0.0601 c -0.0369,-0.033 -0.10179,-0.11462 -0.14414,-0.18128 -0.0423,-0.0667 -0.084,-0.11416 -0.0925,-0.1056 -0.009,0.009 4.7e-4,0.0752 0.0201,0.14815 l 0.0357,0.13263 0.0836,0.0719 0.0836,0.0719 -0.0422,0.0509 c -0.0232,0.028 -0.0602,0.0509 -0.0823,0.0509 -0.022,0 -0.0494,0.0245 -0.0609,0.0543 l -0.0209,0.0542 -0.0285,-0.0461 -0.0285,-0.0462 -0.0355,0.0355 -0.0354,0.0355 0.0893,0.0855 c 0.0491,0.047 0.18928,0.13243 0.31151,0.18984 0.12222,0.0574 0.23672,0.12348 0.25443,0.1468 0.0375,0.0494 0.073,0.17086 0.18294,0.62567 l 0.08,0.33103 -0.0436,0.12611 -0.0436,0.1261 -0.19224,0.0449 -0.19224,0.0449 v 0.0362 c 0,0.0199 0.0231,0.10393 0.0514,0.18676 l 0.0513,0.15061 -0.0412,0.13085 c -0.0227,0.072 -0.0513,0.1451 -0.0635,0.16244 l -0.0222,0.0315 0.0747,0.29951 c 0.0411,0.16472 0.075,0.32433 0.0752,0.35467 l 4.8e-4,0.0552 h -0.0435 c -0.0239,0 -0.0581,0.0178 -0.0762,0.0395 -0.018,0.0217 -0.0477,0.16714 -0.0659,0.32315 -0.0182,0.15602 -0.0548,0.42429 -0.0814,0.59618 -0.0266,0.17188 -0.0483,0.3665 -0.0483,0.43244 v 0.11989 l 0.0552,0.11632 c 0.0303,0.0639 0.0942,0.15812 0.14187,0.20929 l 0.0867,0.093 v 0.0755 0.0755 h -0.20806 -0.20801 l -0.10837,-0.0514 c -0.0596,-0.0283 -0.12178,-0.0766 -0.1383,-0.10751 l -0.03,-0.0561 0.0507,-0.13683 0.0507,-0.13682 6e-4,-0.18916 5.9e-4,-0.18916 -0.0698,-0.19673 -0.0698,-0.19667 0.0384,-0.17131 0.0384,-0.1713 -0.0428,-0.19267 -0.0427,-0.19273 -0.0727,-0.0182 -0.0727,-0.0182 -0.0903,0.0374 -0.0904,0.0374 -0.10098,0.21909 -0.10098,0.21908 0.0344,0.0986 c 0.0189,0.0542 0.0343,0.15053 0.0343,0.21416 0,0.0636 -0.0211,0.18662 -0.0468,0.27333 -0.0258,0.0867 -0.0493,0.2228 -0.0523,0.3024 l -0.006,0.1447 0.0389,0.0941 c 0.0214,0.0517 0.0344,0.13456 0.0287,0.18411 l -0.0103,0.0901 -0.12611,0.0265 c -0.0693,0.0146 -0.19698,0.0454 -0.28368,0.0684 h -6e-5 c -0.17973,0.0478 -0.27269,0.0553 -0.34421,0.0278 l -0.0498,-0.0191 v -0.0816 -0.0816 l 0.0847,-0.0884 c 0.0466,-0.0486 0.10403,-0.0884 0.12758,-0.0884 0.0236,0 0.0776,-0.0348 0.1202,-0.0774 l 0.0774,-0.0774 -10e-4,-0.19846 c -0.001,-0.20812 -0.0694,-0.72885 -0.1072,-0.81784 l -0.022,-0.052 0.0334,-0.24046 0.0334,-0.24045 -0.0349,-0.0559 -0.0349,-0.0558 0.0981,-0.30633 c 0.054,-0.16849 0.0982,-0.31328 0.0982,-0.32174 0,-0.008 -0.0166,-0.0154 -0.037,-0.0154 -0.0203,0 -0.0629,-0.0235 -0.0946,-0.0522 l -0.0576,-0.0522 v -0.0671 c 0,-0.0369 0.05,-0.1613 0.1112,-0.27647 l 0.11121,-0.20942 -0.26669,-0.20825 c -0.25093,-0.19595 -0.44057,-0.39478 -0.56421,-0.59168 -0.0297,-0.0472 -0.0586,-0.13234 -0.0644,-0.18916 l -0.0105,-0.10333 -0.17063,-0.11853 c -0.0939,-0.0652 -0.27333,-0.16895 -0.39876,-0.23054 l -0.22802,-0.112 0.006,-0.0788 c 0.004,-0.0434 0.0253,-0.0944 0.0483,-0.11348 l 0.0418,-0.0347 0.10887,0.0518 c 0.0599,0.0285 0.10899,0.0699 0.10911,0.0919 l 2.4e-4,0.0399 0.29704,0.18128 c 0.1634,0.0997 0.32422,0.18127 0.35738,0.18127 0.0332,0 0.0874,0.0299 0.12039,0.0665 0.0487,0.0539 0.25949,0.20377 0.53983,0.38374 l 0.0384,0.0246 0.064,-0.064 0.064,-0.064 v -0.10419 -0.10412 l 0.0806,-0.1617 0.0806,-0.1617 0.0924,-0.0203 c 0.0508,-0.0112 0.0995,-0.0317 0.10806,-0.0456 0.009,-0.0139 -0.004,-0.066 -0.0272,-0.11583 -0.0236,-0.0498 -0.0613,-0.13446 -0.0839,-0.18817 l -0.041,-0.0977 -0.089,-0.0336 -0.089,-0.0336 v -0.061 -0.061 l 0.0709,-0.0318 0.0709,-0.0318 v -0.13461 -0.13454 l 0.0627,-0.0355 c 0.0345,-0.0195 0.0967,-0.0602 0.13824,-0.0906 0.0416,-0.0303 0.10128,-0.0552 0.13276,-0.0552 h 0.0573 l 0.0325,-0.0552 z m 0.72622,2.09653 h -0.0315 -0.0315 v 0.0788 0.0788 h 0.0315 0.0315 v -0.0788 z m -1.72843,0.24396 c -0.0178,-0.005 0.0111,0.0319 0.0958,0.11484 0.0817,0.0801 0.16586,0.14563 0.18695,0.14563 0.0211,0 -0.0231,-0.0532 -0.0983,-0.11823 -0.10214,-0.0884 -0.16669,-0.13674 -0.18448,-0.14224 z"
         sodipodi:nodetypes="cccccccccssccsssccssccccssccccccsssscccccsccsscsccssssscsscccccsscccccccccccccccccsssscccccsscccccssccsccccccssccsscssccsccssccscsssccccccccsssscccccccccsssccccccccccccsssss" />
    </g>
  </g>
</svg>
