<?xml version="1.0" encoding="UTF-8" standalone="no"?>
<!-- Created with Inkscape (http://www.inkscape.org/) -->

<svg
   width="13.554514mm"
   height="5.9803324mm"
   viewBox="0 0 13.554514 5.9803324"
   version="1.1"
   id="svg1"
   sodipodi:docname="inkporter-svg-98vuzq3c.svg"
   xmlns:inkscape="http://www.inkscape.org/namespaces/inkscape"
   xmlns:sodipodi="http://sodipodi.sourceforge.net/DTD/sodipodi-0.dtd"
   xmlns="http://www.w3.org/2000/svg"
   xmlns:svg="http://www.w3.org/2000/svg">
  <sodipodi:namedview
     id="namedview1"
     pagecolor="#ffffff"
     bordercolor="#666666"
     borderopacity="1.0"
     inkscape:showpageshadow="2"
     inkscape:pageopacity="0.0"
     inkscape:pagecheckerboard="0"
     inkscape:deskcolor="#d1d1d1"
     inkscape:document-units="mm"
     inkscape:zoom="1.0293026"
     inkscape:cx="447.87605"
     inkscape:cy="570.77479"
     inkscape:window-width="1920"
     inkscape:window-height="1017"
     inkscape:window-x="-8"
     inkscape:window-y="-8"
     inkscape:window-maximized="1"
     inkscape:current-layer="layer1" />
  <defs
     id="defs1" />
  <g
     inkscape:label="Layer 1"
     inkscape:groupmode="layer"
     id="layer1"
     transform="translate(-116.4609,-126.46666)">
    <g
       id="IT-Infantry4"
       transform="matrix(0.11839063,0,0,0.11839063,87.14696,168.28665)">
      <path
         id="path66841-7-8"
         style="fill:#000000;stroke-width:0.264583"
         d="m 279.91059,-341.99003 -0.71366,0.33434 c -0.39259,0.18386 -0.78382,0.42623 -0.86971,0.53795 l -0.15659,0.20309 1.55444,-0.0806 c 1.55097,-0.08 2.1984,0.0202 1.35857,0.21032 -0.24388,0.0552 -1.16337,0.10092 -2.04329,0.10129 -0.87984,5.3e-4 -1.6509,0.0673 -1.71359,0.14883 l -0.11421,0.14831 0.70538,0.24908 c 1.22896,0.43395 1.78737,0.50799 3.14865,0.41909 l 1.32705,-0.0863 -0.35398,0.21033 c -0.19495,0.11571 -0.49203,0.29104 -0.65991,0.38964 l -0.30541,0.17931 0.37569,0.28887 0.37569,0.28888 -0.2403,0.0909 -0.24081,0.0909 0.35708,0.27492 c 0.19638,0.15106 0.30373,0.34413 0.23823,0.42943 -0.16987,0.22092 -0.81348,-0.006 -0.94206,-0.3328 l -0.10852,-0.27543 0.0124,0.47645 0.0124,0.47646 0.44648,0.36277 0.44649,0.36225 -0.46146,-0.11731 -0.46148,-0.11782 0.50642,0.41755 0.50695,0.41806 h -0.55189 c -0.30363,1.3e-4 -0.58875,0.0878 -0.63304,0.19482 l -0.0806,0.1943 -0.62374,-0.47955 -0.62426,-0.48008 -0.86662,-0.18397 -0.86609,-0.18345 -0.32298,-0.2682 0.0393,0.23306 0.18035,1.06764 -0.18396,1.09037 -0.18449,1.09089 -0.51108,0.13384 -0.5116,0.13333 0.0982,0.29714 c 0.0928,0.28067 0.36829,0.44327 2.1022,1.24023 l 0.72295,0.33228 0.1726,0.55294 c 0.0948,0.30413 0.51325,0.94412 0.93018,1.42213 0.41693,0.478 0.76821,1.07332 0.78031,1.32292 0.0122,0.2496 0.0565,0.75138 0.0987,1.11518 0.0422,0.36381 -0.0257,0.85914 -0.15089,1.10071 l -0.22738,0.43924 -1.1281,0.18604 -1.12809,0.18603 -0.46302,0.48835 c -0.25466,0.26838 -0.46303,0.72516 -0.46303,1.01544 0,0.29027 -0.13845,0.83249 -0.30799,1.20458 l -0.3085,0.67644 0.53743,0.59273 c 0.72952,0.80515 1.93115,2.92995 1.93115,3.41426 0,0.21651 -0.28028,0.6571 -0.62322,0.97927 l -0.62373,0.58549 -0.99116,0.16123 -0.99167,0.16072 0.18242,1.9451 0.18242,1.9451 -0.41962,0.16071 -0.41961,0.16072 v 1.0144 c 0,0.55794 0.11123,1.08348 0.24702,1.16738 l 0.24701,0.15244 0.47129,-0.7984 0.4718,-0.7984 h 0.82269 0.82321 l 0.60461,0.64389 0.60462,0.64337 -0.15762,1.14257 c -0.20378,1.47662 -0.20391,1.52171 -0.0124,2.50062 l 0.16226,0.82941 -0.30644,0.57309 -0.30696,0.57309 -1.7694,-0.047 -1.7694,-0.047 -1.29605,0.69505 c -0.7129,0.38227 -1.51021,0.69504 -1.77147,0.69504 -0.26125,0 -0.7681,-0.26789 -1.12654,-0.59531 l -0.65164,-0.59531 -0.5395,-1.71979 c -0.29657,-0.94589 -0.67015,-2.25558 -0.83044,-2.91042 -0.16028,-0.65484 -0.41653,-1.51131 -0.56948,-1.90324 l -0.27802,-0.71262 -0.56947,-0.0811 -0.56948,-0.0811 -0.0822,-0.99219 -0.0822,-0.99219 h -2.19211 -2.1916 l -0.47904,-0.52917 c -0.26339,-0.29104 -0.57931,-0.52916 -0.70228,-0.52916 -0.12296,0 -0.22376,0.23369 -0.22376,0.51935 0,0.28564 -0.23813,1.12352 -0.52917,1.8619 l -0.52916,1.34255 v 1.16479 1.1653 l 0.26303,0.16278 c 0.14475,0.0895 0.25353,0.54289 0.24133,1.00769 -0.0122,0.4648 0.0867,1.60123 0.22014,2.52491 l 0.24288,1.67897 -0.29766,0.1142 c -0.16356,0.0628 -2.01835,0.0809 -4.12171,0.0403 l -3.82406,-0.0734 -0.0806,-0.82682 -0.0801,-0.82682 0.39326,-0.39326 c 0.21638,-0.21638 0.85742,-0.46741 1.42472,-0.55811 l 1.03146,-0.16536 0.40721,-0.46664 c 0.22383,-0.25687 0.50423,-0.82433 0.62322,-1.2609 0.11899,-0.43656 0.2007,-1.86531 0.1819,-3.175 l -0.0341,-2.38125 -0.45992,-2.30322 -0.46044,-2.3027 0.30593,-0.67077 0.30541,-0.67076 1.77508,-0.8387 c 0.97628,-0.46126 2.67629,-1.03503 3.77755,-1.27538 l 2.00194,-0.43718 0.0796,-1.5105 0.0796,-1.51102 -0.90486,-1.1188 c -0.49757,-0.61554 -1.23201,-1.65508 -1.63245,-2.30993 -0.40045,-0.65484 -1.02857,-1.5122 -1.39527,-1.90531 l -0.66662,-0.71469 -0.78859,-0.17363 -0.78858,-0.17312 -0.13126,-0.50074 -0.13074,-0.50126 -1.09399,-0.0289 c -0.60149,-0.016 -1.51018,-0.085 -2.01951,-0.15296 -0.50932,-0.0681 -2.38456,-0.1346 -4.16719,-0.1478 l -3.24115,-0.0238 v -1.14618 -1.14618 l 0.33073,-0.0305 c 0.65226,-0.0601 1.39464,0.0864 1.69861,0.33538 l 0.30954,0.25373 5.64358,-0.14366 c 3.10405,-0.079 6.06031,-0.16532 6.56963,-0.19172 0.50933,-0.0264 1.64041,-0.0142 2.51354,0.0274 0.87312,0.0416 1.98254,-0.0127 2.46548,-0.12041 l 0.8785,-0.19585 0.31006,-0.4961 c 0.37122,-0.59441 0.97617,-0.65629 0.97617,-0.0997 0,0.21828 -0.11907,0.39687 -0.26459,0.39687 -0.44758,0 -0.29408,0.38326 0.30283,0.75603 l 0.56792,0.3545 -0.17673,-0.46044 -0.17674,-0.45992 0.40412,-0.61753 0.40462,-0.61702 -0.65681,-0.42995 -0.65629,-0.43046 1.11518,-1.3224 c 0.61337,-0.72743 1.43941,-1.49014 1.83555,-1.69499 0.69313,-0.35843 1.8246,-0.48523 2.6479,-0.34985 0.0816,-0.0502 0.15438,-0.11056 0.20205,-0.1726 0.10626,-0.13817 0.63708,-0.3033 1.17926,-0.3669 l 0.98547,-0.11575 1.00149,-0.64544 c 0.55085,-0.35512 1.20305,-0.65349 1.449,-0.66249 z m -0.41548,3.12177 0.25993,0.19999 c 0.14308,0.11002 0.43538,0.21443 0.64956,0.23203 l 0.38966,0.032 -0.26047,-0.19998 c -0.14308,-0.11002 -0.43539,-0.21443 -0.64956,-0.23203 z m -17.00878,7.04195 c -0.18191,-8e-4 -0.33074,0.1366 -0.33074,0.30541 0,0.16881 0.69529,1.00224 1.54514,1.85208 0.84983,0.84985 1.71465,1.54512 1.92133,1.54512 0.50756,0 1.8252,-1.2495 1.8252,-1.73064 v -0.38602 h -0.47852 c -0.26323,0 -0.70972,-0.17495 -0.99219,-0.38861 -0.28248,-0.21365 -0.76769,-0.39187 -1.07848,-0.39687 -0.31079,-0.005 -0.90611,-0.18622 -1.32292,-0.4036 -0.41683,-0.21738 -0.90693,-0.39607 -1.08882,-0.39687 z" />
      <path
         id="path58354-6-7"
         style="fill:#000000;stroke-width:0.264583"
         d="m 348.05977,-353.2373 -1.0294,0.28112 c -0.56616,0.15457 -1.19222,0.41387 -1.39112,0.57619 -0.0745,0.0608 -0.19097,0.22217 -0.31936,0.41858 -0.14505,0.0451 -0.29757,0.10069 -0.44649,0.16485 l -0.91157,0.39274 -1.19011,-0.0584 c -0.65461,-0.0321 -1.36793,0.0357 -1.58542,0.15089 l -0.39585,0.20877 0.78549,-0.0672 c 0.43193,-0.0371 0.8919,-0.0233 1.02215,0.0305 l 0.23668,0.0982 -1.38597,0.70745 c -1.38318,0.70621 -1.89416,1.11673 -1.07176,0.86145 0.23879,-0.0741 1.05784,-0.49417 1.82005,-0.9338 0.76227,-0.43939 1.46346,-0.76732 1.55856,-0.72812 l 0.17311,0.0713 -0.48627,0.56845 c -0.84733,0.99029 -1.29381,1.3337 -2.51716,1.93735 l -1.19269,0.58859 0.41237,0.005 c 0.2267,0.003 0.57115,0.007 0.76585,0.008 l 0.35399,0.003 -0.18088,0.4377 -0.18087,0.43822 0.25373,-0.0413 0.25374,-0.0413 -0.17156,0.416 c -0.0942,0.22901 -0.0906,0.44983 0.009,0.49092 0.25757,0.10641 0.70148,-0.41213 0.64957,-0.75912 l -0.0439,-0.29249 0.22738,0.41909 0.22737,0.41858 -0.20515,0.53744 -0.20515,0.53692 0.34055,-0.3328 0.34106,-0.33228 -0.22996,0.61495 -0.22996,0.61495 0.47801,-0.27543 c 0.26301,-0.15167 0.55354,-0.2183 0.64544,-0.1478 l 0.1669,0.12816 0.30077,-0.72761 0.30076,-0.7276 0.49041,-0.44183 0.38964,1.40146 c 0.24632,0.88594 0.44803,1.79077 0.44803,2.01125 v 0.40101 h -0.54673 c -0.30061,0 -0.75909,0.11383 -1.01855,0.2527 l -0.47129,0.25217 -0.45579,1.4485 c -0.25056,0.79659 -0.69522,1.72454 -0.98806,2.0624 l -0.53226,0.61444 -1.0356,0.0429 -1.03508,0.0424 -0.14882,-0.24133 c -0.23395,-0.37853 -0.95612,-0.28284 -1.48622,0.19689 l -0.48369,0.43822 v 0.69349 c 0,0.38163 0.18533,0.95868 0.41186,1.28209 l 0.41186,0.58808 h 0.44959 0.44906 l 0.79272,0.94568 c 0.43574,0.52012 0.85666,1.20411 0.93586,1.52032 l 0.14418,0.57516 0.38499,0.0264 c 0.21182,0.0146 0.65637,0.045 0.98753,0.0672 l 0.60204,0.0403 -0.4036,0.78032 c -0.22202,0.42933 -0.40359,1.13514 -0.40359,1.56837 v 0.78807 l 0.64647,0.5085 0.64647,0.50849 -0.15037,1.45676 -0.15038,1.45676 0.60771,0.42581 0.60772,0.4253 -0.32298,1.00201 -0.32246,1.00149 0.22892,1.62108 0.22893,1.6211 -0.22066,0.59686 -0.22117,0.59686 0.32349,0.95705 c 0.17776,0.52642 0.52355,1.19517 0.76844,1.48621 l 0.44493,0.52917 0.29455,2.5585 c 0.1619,1.40725 0.29456,2.81804 0.29456,3.13521 v 0.57671 l -0.89969,0.89968 -0.89969,0.89969 h -0.6351 c -0.34925,0 -0.77777,0.14266 -0.9524,0.31729 -0.17462,0.17462 -0.31729,0.58947 -0.31729,0.92139 v 0.60307 l 0.72089,0.18138 0.72088,0.18087 1.79731,-0.30851 c 0.98857,-0.16952 2.21446,-0.30799 2.72386,-0.30799 h 0.92604 l -0.16588,0.66042 -0.16588,0.66095 0.62374,0.65784 v -10e-4 l 0.62425,0.65784 1.52135,0.005 1.52136,0.005 v -0.80306 -0.80305 l -0.42272,-0.64492 c -0.23239,-0.35467 -0.46831,-1.09463 -0.52451,-1.64434 -0.0562,-0.54971 0.0175,-1.59655 0.16381,-2.32648 0.14629,-0.72993 0.3708,-2.26414 0.4992,-3.40909 l 0.23357,-2.08153 0.69247,-0.64182 0.69246,-0.64233 -0.15038,-0.24288 c -0.0826,-0.13371 -0.0174,-0.49201 0.14521,-0.79582 l 0.29559,-0.55242 -0.38809,-0.59273 -0.38861,-0.59273 0.22273,-0.39791 c 0.12247,-0.21884 0.43289,-1.96013 0.68988,-3.86953 l 0.46716,-3.47162 0.80408,0.15141 0.8046,0.15141 1.93115,1.48466 c 1.06223,0.81643 2.16066,1.64568 2.44068,1.84279 l 0.50901,0.35811 0.31368,-0.68884 0.31419,-0.68937 -0.30127,-0.66145 -0.30128,-0.66146 h -0.52968 c -0.59146,0 -3.20222,-1.56871 -4.28811,-2.57659 l -0.70487,-0.65422 0.91984,-0.80771 0.92036,-0.80822 -0.13746,-2.27272 -0.13797,-2.27325 -0.67748,-2.60604 c -0.37267,-1.43338 -0.80993,-2.86213 -0.97203,-3.175 -0.1621,-0.31287 -0.69082,-1.05889 -1.17461,-1.65778 l -0.87953,-1.08883 -0.91158,-0.43253 c -0.50123,-0.23784 -1.19953,-0.43253 -1.55236,-0.43253 h -0.64182 l -0.60875,-0.64802 -0.60874,-0.64802 0.15761,-0.41032 0.15761,-0.41031 h 0.94258 0.94258 l 0.14934,-0.39015 0.14987,-0.39016 -0.53796,-0.87075 -0.53795,-0.87023 0.14521,-1.08262 0.14521,-1.08211 -1.08262,-1.00148 c -0.59534,-0.55083 -1.30607,-1.15862 -1.57975,-1.35031 z m -5.3485,4.63021 -0.12507,0.30334 c -0.0689,0.16682 -0.26978,0.40321 -0.44648,0.52555 l -0.32143,0.22272 0.12506,-0.30334 c 0.0689,-0.16681 0.27033,-0.40373 0.447,-0.52606 z m 5.76139,34.77049 h 0.24444 0.24495 l 0.17363,3.22719 0.17363,3.22719 -0.23874,0.23927 -0.23926,0.23874 -0.12558,-0.48989 c -0.069,-0.26931 -0.14961,-1.82884 -0.17931,-3.46594 z" />
      <path
         d="m 322.45332,-351.50011 1.05833,0.34416 c 0.58208,0.18915 1.35659,0.41143 1.72083,0.49403 l 0.66197,0.14986 0.85937,1.11776 0.85886,1.11777 v 0.64595 0.64596 l -0.39686,-0.3297 -0.39689,-0.32918 v 0.69402 0.6935 h -0.26458 c -0.14552,0 -0.26458,-0.0962 -0.26458,-0.21395 0,-0.11771 -0.1745,-0.44512 -0.38809,-0.7276 l -0.38861,-0.51366 0.24443,0.88263 0.24391,0.88263 -0.31884,0.5147 -0.31884,0.51418 0.39687,0.2527 c 0.21828,0.13885 0.70319,0.25431 1.07745,0.25631 0.73576,0.004 2.84515,0.66675 3.93517,1.23559 0.37183,0.19404 0.80161,0.3536 0.95498,0.3545 0.4189,0.002 1.72269,1.44986 3.66696,4.07055 l 1.74252,2.34869 v 0.67335 0.67283 l -0.43769,0.48369 c -0.24084,0.26612 -0.65756,0.48369 -0.92604,0.48369 h -0.48834 v 0.78083 0.78031 l -0.35967,0.21188 -0.35967,0.21135 -0.13694,2.26446 -0.13694,2.26446 -0.84646,1.75545 c -0.46555,0.96529 -0.96684,1.79492 -1.11363,1.84382 -0.14679,0.0489 -0.42518,0.91923 -0.61908,1.93373 -0.1939,1.01451 -0.50284,2.33789 -0.68626,2.94091 l -0.33332,1.09657 0.72812,0.86506 0.72813,0.86507 -0.14625,0.5519 -0.14676,0.55191 0.42736,1.12448 0.42737,1.12447 h 0.36122 0.3607 v 0.63821 0.63768 l 0.76636,0.64493 c 0.42135,0.35454 0.9489,0.99844 1.17254,1.43092 l 0.40669,0.786 -0.31781,0.64337 c -0.17463,0.35371 -0.59121,0.76192 -0.92604,0.90744 l -0.60875,0.26458 -0.14263,0.70435 -0.14262,0.70435 -0.56689,0.15193 c -0.75249,0.20217 -3.19291,0.2013 -3.72019,-0.001 l -0.41858,-0.16072 v -0.74621 -0.74672 l 0.416,-0.41595 c 0.22867,-0.22868 0.59799,-0.41548 0.82062,-0.41548 h 0.40463 l -0.12093,-1.92702 -0.12092,-1.92649 -0.36639,-0.58705 c -0.20154,-0.32272 -0.48666,-0.58116 -0.63355,-0.57516 -0.1469,0.006 -0.75815,0.45269 -1.35806,0.99219 l -1.09037,0.98082 -0.15348,1.38906 -0.154,1.38906 h 0.23978 0.2403 l -0.0171,1.12448 c -0.009,0.61847 0.0961,1.68479 0.23358,2.36988 0.1375,0.6851 0.1789,1.36035 0.0925,1.50017 -0.0864,0.13982 -0.5725,0.31062 -1.08056,0.37982 v -5.3e-4 c -1.28217,0.17464 -5.63742,-0.0773 -5.91178,-0.34209 l -0.22531,-0.21756 0.35967,-0.75344 0.35915,-0.75396 0.92449,-0.0848 c 0.50832,-0.0467 1.03563,-0.19435 1.17202,-0.32763 l 0.24805,-0.24236 0.0863,-2.3828 0.0863,-2.38332 -0.68936,-0.59686 c -0.37919,-0.3282 -0.80086,-0.80395 -0.93741,-1.0573 l -0.24856,-0.46096 0.43356,-0.83767 0.43356,-0.83819 -0.32969,-0.99891 -0.3297,-0.9989 0.18035,-1.12914 c 0.0993,-0.62082 0.2778,-1.25337 0.39688,-1.40611 0.11907,-0.15274 0.29801,-0.61934 0.39791,-1.03663 l 0.1819,-0.75861 -0.45062,-0.49816 c -0.2479,-0.27393 -0.59749,-0.49816 -0.7767,-0.49816 h -0.32556 l -0.16278,-1.19063 c -0.0893,-0.65484 -0.23349,-1.71321 -0.32039,-2.35231 l -0.15762,-1.1622 -1.09916,0.12867 -1.09864,0.12919 -1.71979,1.1281 c -0.94589,0.62044 -1.85915,1.20558 -2.02933,1.30018 l -0.30903,0.17208 -0.41496,-0.41496 -0.41444,-0.41444 0.57516,-0.77877 c 0.31649,-0.42808 0.76178,-0.78151 0.98908,-0.78651 0.22729,-0.005 1.0082,-0.45118 1.73581,-0.99219 l 1.32292,-0.98392 v -1.54823 -1.54771 l -0.99219,-0.83354 -0.99219,-0.83302 v -0.44752 c 0,-0.24607 0.10654,-0.51284 0.23668,-0.59324 0.13015,-0.0804 0.29174,-0.59388 0.35864,-1.1405 0.20271,-1.65563 1.01681,-4.62818 1.60352,-5.85339 0.30432,-0.63551 0.75825,-1.28328 1.00873,-1.43971 l 0.45578,-0.28422 -0.51418,-1.00769 c -0.28271,-0.55414 -0.62005,-1.00769 -0.74982,-1.00769 -0.12977,0 -0.31666,-0.47624 -0.41497,-1.05833 l -0.1788,-1.05833 h -0.3793 -0.3793 l -0.29611,-0.65061 -0.29662,-0.65061 0.41392,-0.63148 c 0.50981,-0.77804 2.68988,-2.19747 3.76205,-2.44947 0.43656,-0.10261 0.97234,-0.33882 1.19062,-0.52451 z m -1.75597,17.31057 -0.22892,0.37052 c -0.1259,0.20375 -0.16717,0.47078 -0.0915,0.59325 0.0757,0.12246 -0.003,0.39191 -0.17467,0.59893 -0.17181,0.20701 -0.27127,0.49342 -0.22118,0.63665 l 0.0909,0.26045 0.64907,-0.49144 0.64906,-0.49145 -0.33642,-0.73845 z m 12.81059,2.1823 -0.89711,0.0858 -0.8971,0.0858 0.063,0.52916 c 0.0346,0.29105 0.27921,1.5994 0.54312,2.90732 l 0.47956,2.37764 0.21446,-0.52555 c 0.11783,-0.28928 0.27708,-1.63629 0.35398,-2.9931 z"
         style="fill:#000000;stroke-width:0.264583"
         id="path66809-8-5" />
      <path
         d="m 302.82179,-353.00004 -0.71365,0.33434 c -0.3926,0.18386 -0.78433,0.42624 -0.87023,0.53796 l -0.15607,0.20308 1.55443,-0.0806 c 1.55097,-0.08 2.19842,0.0202 1.35858,0.21032 -0.24388,0.0552 -1.16338,0.10092 -2.04329,0.10129 -0.87985,5.3e-4 -1.65089,0.0673 -1.71359,0.14883 l -0.11421,0.14831 0.70539,0.24908 c 1.22896,0.43395 1.78736,0.50799 3.14864,0.41909 l 1.32705,-0.0863 -0.3545,0.21033 c -0.19496,0.11571 -0.49151,0.29104 -0.65939,0.38964 l -0.30541,0.17931 0.37569,0.28888 0.37569,0.28887 -0.24081,0.0909 -0.2403,0.091 0.35709,0.27492 c 0.19638,0.15106 0.30373,0.34413 0.23823,0.42943 -0.16988,0.22092 -0.81348,-0.006 -0.94207,-0.3328 l -0.10852,-0.27543 0.0124,0.47645 0.0124,0.47646 0.44648,0.36277 0.44649,0.36225 -0.46147,-0.1173 -0.46147,-0.11783 0.50643,0.41755 0.50694,0.41806 h -0.55242 c -0.30362,1.3e-4 -0.58822,0.0878 -0.63252,0.19482 l -0.0806,0.1943 -0.62425,-0.47955 -0.62374,-0.48008 -0.86661,-0.18397 -0.8661,-0.18345 -0.66094,-0.5488 c 0.1527,0.53297 0.27337,1.30705 0.27337,1.82004 v 1.02165 l 0.45682,0.24391 c 0.25115,0.13441 0.85991,0.31211 1.35289,0.39481 0.49299,0.0827 1.31279,0.22387 1.82211,0.31367 0.50932,0.0898 1.55734,0.5177 2.32854,0.95085 l 1.40198,0.78755 0.92966,1.84588 c 0.51121,1.01513 1.35214,2.44722 1.86913,3.18275 0.51699,0.73553 1.09843,1.71662 1.29192,2.17971 l 0.35191,0.84181 -0.92087,1.79679 c -0.50632,0.98836 -0.96228,2.1566 -1.01338,2.59571 l -0.093,0.7984 1.12447,1.74718 c 1.28205,1.99209 1.99006,3.31493 1.99006,3.71864 0,0.411 -0.55404,0.3374 -1.08675,-0.1447 l -0.46716,-0.42271 -0.28163,0.17363 c -0.41469,0.2563 -0.34462,1.4273 0.17105,2.86598 l 0.45475,1.26865 -0.32143,0.51367 c -0.17655,0.2827 -0.31926,0.72419 -0.31626,0.98082 0.003,0.25664 0.35007,0.97576 0.77205,1.59835 l 0.76739,1.13223 0.006,4.86947 0.006,4.86947 0.41289,0.7984 c 0.22708,0.43913 0.41289,1.15171 0.41289,1.58337 v 0.78496 l -0.72759,0.26562 -5.4e-4,-5.3e-4 c -0.40018,0.14616 -0.86155,0.2753 -1.02526,0.2868 -0.16371,0.0115 -0.66627,-0.0525 -1.11673,-0.14262 l -0.81855,-0.16382 -0.14418,-0.45372 -0.14418,-0.45372 0.38086,-1.07848 c 0.20929,-0.5932 0.34002,-1.11933 0.29042,-1.16893 -0.0496,-0.0496 -0.21789,-1.23271 -0.37362,-2.62929 -0.27638,-2.47859 -0.8634,-4.47208 -1.31672,-4.47208 -0.12423,0 -0.54899,-0.4881 -0.94413,-1.08521 l -0.7183,-1.08572 0.15606,-0.62218 0.15607,-0.62167 -1.15704,-1.19062 -1.15704,-1.19063 -0.1881,-1.66295 -0.1881,-1.66295 -0.26303,0.47026 c -0.14453,0.2585 -0.21086,0.61424 -0.14676,0.79065 0.0641,0.17642 -0.0628,0.52683 -0.28216,0.77876 l -0.39894,0.45786 0.2775,0.33589 c 0.15276,0.18463 0.27372,0.63304 0.26872,0.99684 -0.0107,0.76074 1.19425,4.17996 1.85725,5.26996 0.24621,0.40478 0.66163,1.03887 0.92294,1.40922 0.26131,0.37036 0.54527,1.10548 0.63097,1.63349 l 0.15555,0.96015 -0.47336,0.52297 c -0.26041,0.28775 -0.63367,0.52296 -0.82941,0.52296 -0.19572,0 -0.37103,0.14883 -0.38963,0.33073 -0.12473,1.22157 -0.17421,1.47996 -0.33073,1.73323 -0.26053,0.42154 -1.75077,1.11104 -2.40141,1.11104 -0.31234,0 -0.71059,-0.14266 -0.88522,-0.31729 -0.17462,-0.17462 -0.31781,-0.59631 -0.31781,-0.9369 0,-0.34059 0.23786,-0.94154 0.52814,-1.33583 l 0.52761,-0.71727 0.15193,-1.5875 0.15193,-1.5875 -0.48369,-0.87126 c -0.78837,-1.42135 -3.05347,-4.18814 -3.63957,-4.44573 l -0.54364,-0.23926 -0.0915,-0.66146 c -0.0503,-0.3638 -0.20087,-0.79433 -0.33434,-0.95704 -0.13348,-0.16273 -0.24453,-0.81757 -0.24753,-1.45521 -0.005,-1.02044 -0.0787,-2.08437 -0.21136,-3.04685 -0.0227,-0.16493 -0.28185,-0.36244 -0.57568,-0.43925 l -0.53381,-0.14004 0.17725,-1.54461 c 0.0975,-0.84964 0.33532,-1.99945 0.52865,-2.55488 l 0.3514,-1.00976 -0.40515,-0.61857 -0.40566,-0.61856 -0.67851,-0.17053 c -0.37331,-0.0933 -0.69445,-0.13445 -0.71365,-0.0909 -0.0192,0.0435 -0.21743,0.43625 -0.44029,0.87281 l -0.40513,0.79375 -0.95912,0.0806 -0.95964,0.0806 -0.68575,-0.89969 -0.68625,-0.89916 v -0.80977 -0.80978 l -1.12448,-0.65164 c -0.97472,-0.5647 -2.28711,-0.97781 -7.4233,-2.33732 l -1.00719,-0.26665 0.0811,-0.9772 0.0811,-0.97669 0.76636,-0.0873 0.76584,-0.0879 0.68937,0.50798 c 0.37899,0.2793 1.8201,0.88409 3.20289,1.34411 l 2.51457,0.83664 h 0.96327 0.96324 l 0.16021,-0.41858 c 0.0883,-0.23018 0.1607,-1.48261 0.1607,-2.78329 v -2.36472 l 0.6258,-0.99115 c 0.34401,-0.54495 0.82026,-1.1522 1.05833,-1.34979 0.2381,-0.19758 0.43254,-0.50749 0.43254,-0.68833 0,-0.18083 -0.23812,-0.63149 -0.52916,-1.00149 -0.29105,-0.37 -0.52917,-0.85732 -0.52917,-1.08314 0,-0.22582 -0.30459,-0.6934 -0.67696,-1.0387 l -0.67697,-0.62735 0.45268,-1.16892 c 0.249,-0.64286 0.70242,-1.4483 1.00769,-1.78955 0.30528,-0.34125 0.87675,-0.78773 1.26971,-0.99219 l 0.71416,-0.37155 h 1.07073 1.07074 l 0.26458,0.23926 c 0.0145,-0.0149 0.0281,-0.0297 0.0398,-0.045 0.10625,-0.13818 0.63708,-0.3033 1.17926,-0.3669 l 0.98547,-0.11576 1.00149,-0.64544 c 0.55085,-0.35512 1.20306,-0.65349 1.449,-0.66249 z m -0.416,3.12177 0.26045,0.19999 c 0.14308,0.11002 0.43538,0.21443 0.64958,0.23203 l 0.38912,0.032 -0.25993,-0.19998 c -0.14308,-0.11002 -0.4354,-0.21443 -0.64958,-0.23203 z m -6.13916,14.62185 -0.33072,0.45217 c -0.1819,0.24862 -0.33073,0.66746 -0.33073,0.93069 v 0.47852 l 0.7276,0.008 c 0.40019,0.005 0.91667,0.15346 1.14773,0.33073 l 0.42013,0.32246 -0.11111,0.33073 v 5.3e-4 c -0.0612,0.1819 -0.0718,0.32695 -0.0233,0.32194 0.0485,-0.005 0.30372,-0.17163 0.56741,-0.37155 l 0.47955,-0.3638 -1.2733,-1.22008 z"
         style="fill:#000000;stroke-width:0.264583"
         id="path66826-4-2" />
    </g>
  </g>
</svg>
