<?xml version="1.0" encoding="UTF-8" standalone="no"?>
<!-- Created with Inkscape (http://www.inkscape.org/) -->

<svg
   width="11.250316mm"
   height="6.3720307mm"
   viewBox="0 0 11.250316 6.3720307"
   version="1.1"
   id="svg5570"
   sodipodi:docname="inkporter-svg-zgdocm6i.svg"
   xmlns:inkscape="http://www.inkscape.org/namespaces/inkscape"
   xmlns:sodipodi="http://sodipodi.sourceforge.net/DTD/sodipodi-0.dtd"
   xmlns="http://www.w3.org/2000/svg"
   xmlns:svg="http://www.w3.org/2000/svg">
  <sodipodi:namedview
     id="namedview5572"
     pagecolor="#ffffff"
     bordercolor="#666666"
     borderopacity="1.0"
     inkscape:pageshadow="2"
     inkscape:pageopacity="0.0"
     inkscape:pagecheckerboard="0"
     inkscape:document-units="mm"
     showgrid="false"
     inkscape:zoom="1.2810466"
     inkscape:cx="526.13231"
     inkscape:cy="1810.6289"
     inkscape:window-width="2400"
     inkscape:window-height="1271"
     inkscape:window-x="-9"
     inkscape:window-y="-9"
     inkscape:window-maximized="1"
     inkscape:current-layer="layer1"
     inkscape:snap-bbox="true"
     inkscape:snap-nodes="false"
     inkscape:snap-others="false"
     inkscape:bbox-paths="true"
     inkscape:bbox-nodes="true" />
  <defs
     id="defs5567" />
  <g
     inkscape:label="Layer 1"
     inkscape:groupmode="layer"
     id="layer1"
     transform="translate(-124.80936,-448.62608)">
    <g
       id="U-S-Jeep-MG"
       transform="matrix(0.35277777,0,0,0.35277777,-32.665942,331.0298)">
      <path
         style="fill:#000000;fill-opacity:1;fill-rule:nonzero;stroke:none"
         d="m 461.86328,342.54297 0.0586,-0.25391 0.63672,-0.33984 2.35157,0.66797 -0.25391,-0.98828 0.30078,-0.1875 -0.60156,-0.19532 -0.54688,-0.28906 -0.20703,-0.10547 -0.39453,0.39453 -1.04687,-1.04687 -2.13282,2.13672 z m 1.56641,-6.05469 0.19531,-0.0312 0.19922,-0.16016 0.0937,-0.30859 0.0898,-0.19922 0.14063,-0.20703 0.34765,-0.27344 c 0.0625,-0.043 0.26953,-0.0859 0.26953,-0.0859 l 0.20704,-0.0234 0.22265,-0.008 0.21094,0.0351 0.34766,0.10156 c 0.1875,0.0937 0.30078,0.19922 0.30078,0.19922 l 0.20703,0.27735 c 0.043,0.0664 0.0898,0.20312 0.0898,0.20312 0.0352,0.17969 0.0352,0.17578 0.0352,0.24219 l -0.0156,0.29687 -0.10156,0.33204 c -0.0195,0.16015 0.0234,0.21093 0.0234,0.21093 l -0.22656,0.17188 0.25,0.28125 0.55468,0.25781 0.55078,0.69531 0.35547,0.0352 0.28125,-0.25 0.55469,0.0352 0.58203,0.51171 0.125,0.23438 v -3.05859 l 0.0781,-0.5 v -0.34375 l -0.21875,-0.19532 -0.79297,-0.53515 -2.38672,-0.0117 -0.70703,0.37109 -0.41406,-0.33984 -0.0156,-0.31641 H 459.5625 L 459.5,333.85547 h 8.84375 l -0.10156,-0.16016 3.16406,-0.0234 0.52344,-0.0469 1.30078,0.0352 0.26953,0.35546 0.0898,-0.39062 0.3086,0.0625 -0.0352,-0.34375 0.0703,0.34375 0.52735,0.0391 v 0.41406 H 474.75 v 0.52344 l -2.96484,0.10938 h -0.41407 l -0.20312,0.5039 -0.46875,-0.0391 v 1.13281 h -0.77735 v 3.42969 l 5.15235,-0.15625 0.24219,-0.83984 1.51953,-0.0391 v -1.67968 h 1.4414 v 6.99609 l -1.4414,0.043 v 1.07812 h 0.59765 V 346.25 l 0.42188,0.004 v 0.7539 L 476.48437,347 v -0.23438 h -0.25 l -0.0391,0.96094 h -1.16015 c 0,2.07422 -1.60547,3.67969 -3.58204,3.67969 -1.97656,0 -3.58203,-1.60547 -3.58203,-3.58203 l -5.28125,-0.0977 -0.55859,0.33985 h -0.46094 l -0.57812,-0.30079 h -2.5625 l -0.44141,0.35938 -0.35937,-0.0117 -0.40235,-0.30859 h -1.01953 c 0,1.99609 -1.60156,3.60156 -3.58203,3.60156 -1.97656,0 -3.57813,-1.60547 -3.57813,-3.58203 l -0.74218,-0.0195 -0.91797,-0.19922 -0.67969,-1.04297 -0.32031,-0.0391 v -0.64063 l 2.79687,0.0391 0.88282,-0.8789 v -2.39844 l -0.082,-0.30078 -0.35937,-0.0391 0.0234,-1.28125 h 9.4414 l 0.10157,-1.01953 2.55859,-4.59766 0.37891,0.16016 -2.53907,4.51953 v 1.83593 l 2.08203,-2.08203 -0.0742,-0.20312 -0.79688,-0.79688 0.42578,-0.42578 0.8711,0.8711 0.35546,0.0391 0.1836,0.0859 0.32031,0.0976 0.32813,0.10156 0.21093,0.13672 0.17969,0.14453 0.63281,0.19922 0.32813,0.10157 -0.0586,-0.2461 -0.10156,-0.26172 -0.0898,-0.42968 0.0625,-0.30469 0.10156,-0.35938 0.19141,-0.39453 0.10937,-0.1914 -0.24219,-0.0859 -0.30078,0.0234 -0.23047,-0.48438 -0.17968,-0.24609 0.19922,-0.52344 -0.60157,-0.17969 z m 0,0"
         id="path42756" />
    </g>
  </g>
</svg>
