<?xml version="1.0" encoding="UTF-8" standalone="no"?>
<!-- Created with Inkscape (http://www.inkscape.org/) -->

<svg
   width="29.451405mm"
   height="6.376605mm"
   viewBox="0 0 29.451405 6.376605"
   version="1.1"
   id="svg32839"
   sodipodi:docname="inkporter-svg-l3lnoisa.svg"
   xmlns:inkscape="http://www.inkscape.org/namespaces/inkscape"
   xmlns:sodipodi="http://sodipodi.sourceforge.net/DTD/sodipodi-0.dtd"
   xmlns="http://www.w3.org/2000/svg"
   xmlns:svg="http://www.w3.org/2000/svg">
  <sodipodi:namedview
     id="namedview32841"
     pagecolor="#ffffff"
     bordercolor="#666666"
     borderopacity="1.0"
     inkscape:pageshadow="2"
     inkscape:pageopacity="0.0"
     inkscape:pagecheckerboard="0"
     inkscape:document-units="mm"
     showgrid="false"
     inkscape:zoom="1.3273709"
     inkscape:cx="362.74713"
     inkscape:cy="544.30904"
     inkscape:window-width="1920"
     inkscape:window-height="1017"
     inkscape:window-x="-8"
     inkscape:window-y="-8"
     inkscape:window-maximized="1"
     inkscape:current-layer="layer1" />
  <defs
     id="defs32836" />
  <g
     inkscape:label="Layer 1"
     inkscape:groupmode="layer"
     id="layer1"
     transform="translate(-53.350847,-126.13669)">
    <g
       id="LM-5cm"
       transform="matrix(0.35277777,0,0,-0.35277777,-313.24858,416.99731)">
      <g
         id="g26871">
        <path
           style="fill:#000000;fill-opacity:1;fill-rule:nonzero;stroke:none;stroke-width:1"
           d="m 1114.6287,806.53641 h -65.7461 v 9.96094 h 65.7461 z m 0,0"
           id="path11591" />
        <path
           style="fill:#000000;fill-opacity:1;fill-rule:nonzero;stroke:none;stroke-width:1"
           d="m 1049.2654,808.55985 c 0,0 -1.3086,-0.51953 -1.5898,-0.51953 -0.2774,0 -1.1211,0.0586 -1.586,0.11327 -0.4687,0.0586 -1.0273,-0.58203 -1.2148,-0.8125 -0.1836,-0.23437 -0.7461,0 -1.2149,0.0586 -0.4648,0.0586 -0.4648,0.11719 -0.8398,-0.0586 -0.375,-0.17578 -0.6524,-0.46485 -1.4024,-0.46485 -0.746,0 -2.2382,-0.46484 -2.2382,-0.46484 h 83.4843 c 0,0 -1.4921,0.52344 -2.2421,0.58203 -0.7422,0.0586 -1.211,0.17187 -1.3985,0.40625 -0.1875,0.23046 -0.7461,0.28906 -1.1211,0.23046 -0.3711,-0.0586 -0.9336,0.29297 -1.4023,0.17577 -0.4649,-0.11718 -0.7461,0.69922 -1.211,0.63672 -0.4687,-0.0586 -1.4961,0.11719 -1.4961,0.11719 z m 0,0"
           id="path11593" />
        <path
           style="fill:#000000;fill-opacity:1;fill-rule:nonzero;stroke:none;stroke-width:1"
           d="m 1061.4217,815.86844 c 0,0 0.5546,-0.0898 0.5898,0.65625 0.035,0.75 -1.1875,1.30078 -1.1875,1.30078 0,0 0.5117,0.22657 0.4727,0.78906 -0.035,0.5625 -0.3946,0.89063 -1.3321,0.8086 -0.9414,-0.0781 -2.0429,0.28125 -3.1679,0.27343 -1.1211,-0.0116 -1.625,-1.48047 -0.6329,-1.52735 0,0 -1.957,0.65235 -2.6718,0.125 -0.711,-0.53124 -0.1055,-0.92969 -0.1055,-0.92969 0,0 -1.5235,0.57813 -2.3867,-0.38671 -0.8555,-0.96094 1.0039,-1.17188 1.1953,-1.11719 0.1875,0.0547 9.2265,0.008 9.2265,0.008"
           id="path11595" />
        <path
           style="fill:#000000;fill-opacity:1;fill-rule:nonzero;stroke:none;stroke-width:1"
           d="m 1101.4802,815.91532 c 0,0 -0.5546,-0.0859 -0.5859,0.66015 -0.031,0.7461 1.1953,1.29297 1.1953,1.29297 0,0 -0.5078,0.23048 -0.4687,0.79297 0.043,0.5625 0.4023,0.88672 1.3398,0.80078 0.9375,-0.0859 2.0469,0.26563 3.168,0.24999 1.1211,-0.0196 1.6172,-1.49219 0.6211,-1.53125 0,0 1.9687,0.63672 2.6758,0.10547 0.707,-0.53125 0.098,-0.92969 0.098,-0.92969 0,0 1.5273,0.56641 2.3867,-0.40625 0.8476,-0.96484 -1.0156,-1.16015 -1.2031,-1.10547 -0.1914,0.0547 -9.2266,0.0703 -9.2266,0.0703"
           id="path11597" />
      </g>
      <g
         id="g180458-6-2-3"
         transform="rotate(-2.5042585,19128.836,-24637.325)"
         style="fill:#000000">
        <path
           d="M 0,0 C 0.046,0 0.638,-0.029 0.638,-0.029 L 0.592,0.249 -0.76,0.498 -2.582,-0.044 c 0,0 -0.79,0.791 -0.896,0.894 -0.107,0.102 -0.471,0.205 -0.76,0.088 -0.289,-0.118 -1.018,-0.22 -1.018,-0.22 0,0 -0.212,-0.059 -0.395,0.146 -0.182,0.205 -1.154,1.084 -1.154,1.084 L -7.048,1.729 c 0,0 1.291,-1.26 1.397,-1.377 0.107,-0.118 0.38,0 0.517,0.014 0.137,0.015 1.109,0.308 1.109,0.308 0,0 0.258,0.044 0.425,-0.176 0.167,-0.22 0.577,-0.63 0.577,-0.63 0,0 -0.44,-0.234 -1.124,-0.102 -0.595,0.114 -9.716,2.087 -12.051,2.593 -0.009,0.187 -0.022,0.35 -0.04,0.454 -0.076,0.439 -0.395,1.304 -0.395,1.304 0,0 0.456,-0.118 0.699,-0.147 0.243,-0.029 0.395,0.322 0.395,0.322 0,0 3.068,-0.014 3.099,-0.073 0.03,-0.058 0.045,1.113 0.045,1.113 l -2.673,0.03 0.015,0.307 c 0,0 0.668,0.03 0.775,0.044 0.106,0.015 0.273,0.088 0.258,0.205 -0.015,0.118 -0.03,0.455 -0.03,0.455 0,0 1.746,0.117 1.898,0.131 0.152,0.015 0.213,0.118 0.213,0.176 0,0.059 -0.03,0.63 -0.046,0.865 -0.015,0.234 -0.243,0.219 -0.243,0.219 l -1.716,-0.132 v 0.337 l -0.517,0.015 -0.136,0.176 -2.628,-0.015 c 0,0 -0.091,-0.058 -0.273,0.161 -0.183,0.22 -0.532,0.323 -0.821,0.337 -0.288,0.015 -1.063,0.074 -1.473,0.117 -0.41,0.044 -1.291,0.381 -1.291,0.381 l -1.202,-1.607 -18.271,0.597 -0.638,0.293 -1.352,-0.03 -0.289,-0.088 -0.045,-1.098 0.334,-0.132 h 1.352 l 0.577,0.22 11.805,-0.65 -0.024,-0.519 -1.042,0.04 -0.03,-0.615 0.653,-0.556 V 4.834 l 0.288,-0.044 0.016,0.074 3.743,-0.202 c -0.913,-0.721 -1.495,-1.816 -1.495,-3.043 0,-2.173 1.826,-3.934 4.078,-3.934 2.014,0 3.686,1.408 4.018,3.259 l 2.795,-0.343 0.03,0.263 -0.395,0.03 c 0,0 0.003,0.301 0,0.672 l 12.972,-2.87 c 0,0 0.851,-1.099 0.927,-1.128 0.075,-0.029 0.956,0.044 0.956,0.044 0,0 -0.698,0.484 -0.789,0.63 -0.092,0.147 -0.228,0.498 -0.228,0.498 l 0.152,0.63 C -2.187,-0.63 -0.046,0 0,0 M -41.635,7.325 -42.409,7.31 v 0.835 l 0.774,-0.014 z m 0.38,0.002 v 0.791 l 0.501,-0.176 0.015,-0.41 z m 14.038,-0.769 4.037,-0.222 -0.314,-0.419 -3.749,0.147 c 0.006,0.143 0.015,0.336 0.026,0.494"
           style="fill:#000000;fill-opacity:1;fill-rule:nonzero;stroke:none"
           id="path180460-9-4-6" />
      </g>
      <path
         id="path42229-1-7-9-3"
         style="fill:#000000;stroke-width:0.0306541"
         d="m 1094.9703,823.95411 c -0.5467,0.0239 -0.7731,-0.0958 -1.0537,-0.56055 -0.2133,-0.35325 -0.2979,-0.4547 -0.4398,-0.52062 -0.2837,-0.13168 -0.29,-0.43575 -0.01,-0.52495 0.069,-0.022 0.2109,-0.0815 0.3137,-0.13107 0.1689,-0.0815 0.1853,-0.0962 0.1663,-0.16253 -0.012,-0.0404 -0.063,-0.13211 -0.1154,-0.20258 -0.1417,-0.19077 -0.1285,-0.34236 0.038,-0.40971 0.08,-0.0322 0.087,-0.0494 0.098,-0.2408 0.01,-0.11341 0,-0.21724 -10e-5,-0.2311 -0.011,-0.0136 -0.073,-0.0326 -0.1426,-0.0407 -0.1764,-0.0208 -0.3514,-0.10821 -0.4467,-0.22421 -0.068,-0.082 -0.6123,-1.07859 -0.6143,-1.12322 -4e-4,-0.009 -0.053,-0.11206 -0.1149,-0.2333 -0.062,-0.12129 -0.1606,-0.32567 -0.2185,-0.45265 -0.058,-0.12698 -0.1816,-0.35101 -0.2763,-0.49885 -0.095,-0.14783 -0.1838,-0.29396 -0.1966,-0.32361 -0.012,-0.0297 0,-0.15564 0.026,-0.2792 0.027,-0.12379 0.051,-0.3496 0.056,-0.50256 0.01,-0.15296 0.026,-0.37189 0.044,-0.48759 0.027,-0.16845 0.064,-0.88786 0.056,-1.07129 -10e-4,-0.0222 0.062,-0.1166 0.1389,-0.20829 0.077,-0.0916 0.1467,-0.20221 0.1536,-0.24503 0.018,-0.1094 0.1356,-0.55827 0.178,-0.67764 0.029,-0.0823 0.027,-0.12134 -0.011,-0.22521 -0.046,-0.12469 -0.045,-0.12411 0.051,-0.21345 l 0.097,-0.0908 -0.1659,-0.28523 c -0.091,-0.15678 -0.2063,-0.40065 -0.2567,-0.54307 -0.05,-0.14241 -0.1223,-0.31065 -0.159,-0.374 -0.039,-0.0682 -0.081,-0.21893 -0.1032,-0.36921 -0.02,-0.13956 -0.066,-0.33498 -0.1001,-0.43436 -0.049,-0.13923 -0.069,-0.28315 -0.083,-0.62825 -0.022,-0.50721 0,-0.68461 0.1233,-0.77093 0.1079,-0.079 0.4512,-0.14848 0.8088,-0.16537 0.4446,-0.0215 0.5008,-7.9e-4 0.8183,0.29822 0.1493,0.1406 0.3633,0.3053 0.4746,0.36564 0.1114,0.0603 0.2931,0.16655 0.404,0.23688 0.2224,0.14106 0.2455,0.14639 0.3662,0.0761 0.077,-0.0448 0.084,-0.0662 0.091,-0.28021 0.01,-0.27694 0.04,-0.35273 0.1714,-0.41555 l 0.099,-0.0476 -0.029,-0.29123 c -0.047,-0.46055 0,-0.4973 0.6672,-0.55458 0.2072,-0.0191 0.423,-0.0215 0.4816,-0.01 v -4e-5 c 0.2325,0.051 0.3512,0.30882 0.3733,0.8142 0.01,0.23954 0.026,0.32342 0.099,0.48674 0.079,0.17819 0.085,0.21022 0.057,0.3279 -0.058,0.24563 -0.053,0.34207 0.034,0.54557 0.073,0.18143 0.08,0.23945 0.096,0.75051 0.016,0.36502 0.025,0.5678 0.053,0.59349 l 0.064,0.73022 c 0.2539,1.08485 0.6359,2.13866 0.8581,3.23041 l -0.01,1.47352 c -0.043,0.0598 -0.092,0.19891 -0.1204,0.34468 -0.026,0.13473 -0.065,0.30447 -0.086,0.37751 -0.044,0.14621 -0.2686,0.49863 -0.4916,0.77259 -0.079,0.0969 -0.1738,0.22609 -0.2113,0.28728 -0.089,0.14366 -0.1324,0.18111 -0.2806,0.23074 -0.09,0.03 -0.1351,0.0683 -0.1724,0.14655 -0.027,0.0585 -0.082,0.13902 -0.1204,0.17859 -0.094,0.0982 -0.085,0.13567 0.044,0.17684 0.1277,0.0407 0.2449,0.19184 0.2202,0.28646 -0.01,0.0344 -0.064,0.17724 -0.1216,0.31587 -0.093,0.22505 -0.1042,0.28683 -0.1084,0.57707 -0.01,0.49254 -0.055,0.66134 -0.2556,0.88503 -0.1169,0.13063 -0.24,0.22546 -0.4139,0.31962 -0.2989,0.16182 -0.4746,0.20492 -0.8858,0.22291 z m 0.1549,-10.36843 c 0.01,-0.009 0.02,-0.0503 0.029,-0.0933 0.013,-0.0675 0,-0.0952 -0.1658,-0.20038 -0.099,-0.0669 -0.2295,-0.16946 -0.2898,-0.22744 -0.1763,-0.16978 -0.1708,-0.11901 0.014,0.0969 l -10e-4,4e-5 c 0.2217,0.26369 0.3998,0.44386 0.4177,0.42408 z"
         sodipodi:nodetypes="csssssssccssssssccccssssccccsscccscsssccccccccsccscccccsssssssscssssscsssccccs" />
      <path
         id="path46620-3-8-8-1"
         style="fill:#000000;stroke-width:0.0384602"
         d="m 1083.8484,824.48534 c -0.1075,0.005 -0.1656,-0.003 -0.2136,-0.0195 -0.1457,-0.053 -0.4835,-0.37545 -0.4874,-0.46549 0,-0.0857 -0.2638,-0.50926 -0.4621,-0.75329 -0.087,-0.10652 -0.157,-0.21138 -0.158,-0.23288 -9e-4,-0.0215 0.043,-0.067 0.1002,-0.0999 0.057,-0.0328 0.1523,-0.11572 0.212,-0.18415 0.068,-0.0774 0.1624,-0.13552 0.2493,-0.15335 l 0.1395,-0.0278 0.01,-0.23663 c 0.01,-0.13029 0.048,-0.3772 0.093,-0.54857 0.046,-0.17136 0.091,-0.35999 0.1008,-0.41729 0.013,-0.0741 0.058,-0.11922 0.1517,-0.1581 0.073,-0.03 0.1304,-0.0702 0.1296,-0.0885 -8e-4,-0.0183 -0.1502,-0.17332 -0.3324,-0.34425 -0.3562,-0.3343 -0.5361,-0.6116 -0.5897,-0.90998 -0.052,-0.28964 -0.1089,-0.4075 -0.3349,-0.69032 -0.1187,-0.14906 -0.2675,-0.36408 -0.331,-0.47776 l -0.5497,-0.24279 c -0.094,10e-4 -0.184,-0.003 -0.2727,-0.01 l -0.2286,0.01 -0.4267,0.17553 -0.4272,0.0457 -0.2732,0.14357 -0.2821,-1.17404 1.0866,-0.17915 0.1433,-0.18835 0.062,-0.0225 0.1222,-0.50479 c 0.041,-0.234 0.087,-0.35876 0.1817,-0.50377 0.1101,-0.16895 0.4472,-0.93208 0.4775,-1.07923 0.014,-0.0692 -0.01,-0.11572 -0.075,-0.17522 l -0.442,-0.54322 c 0.032,-0.0422 -0.026,-0.13055 -0.272,-0.4064 v 0 c -0.1729,-0.1939 -0.3599,-0.40774 -0.4175,-0.47575 l -0.2453,-0.33183 -0.2101,-0.14409 -0.5354,-0.49405 -0.1045,-0.1703 c -0.057,-0.0939 -0.1396,-0.30399 -0.1844,-0.46614 0,0 -0.01,-0.22533 -0.022,-0.5327 0.012,-0.0461 0.1356,-0.20636 0.2728,-0.3563 0.3418,-0.37295 0.4732,-0.41984 1.3449,-0.45909 0.632,-0.0286 0.7058,-0.0206 0.9091,0.0901 0.1584,0.0871 0.3261,0.1282 0.4356,0.10717 l 0.1197,-0.0231 -0.1361,-0.10219 c -0.075,-0.0569 -0.1501,-0.10296 -0.1668,-0.1028 -0.017,1.7e-4 -0.03,-0.11598 -0.029,-0.25834 5e-4,-0.35476 0.027,-0.36972 0.7067,-0.37348 0.6583,-0.004 1.0494,0.0544 1.4137,0.21042 0.1585,0.0679 0.3127,0.12286 0.3407,0.12214 0.028,-8.7e-4 0.093,0.0292 0.1453,0.0657 0.086,0.06 0.093,0.086 0.08,0.27417 -0.01,0.11458 -0.025,0.29328 -0.041,0.39845 -0.022,0.15686 -0.019,0.17951 0.017,0.12363 0.025,-0.0376 0.062,-0.0659 0.082,-0.0596 0.064,0.0169 0.2561,-0.18978 0.3255,-0.3496 0.1033,-0.23733 0.2691,-0.31246 0.6578,-0.29561 0.2869,0.0125 0.3126,0.0215 0.3383,0.1078 0.042,0.14007 0.01,0.44334 -0.082,0.75723 -0.044,0.15423 -0.087,0.40406 -0.093,0.5558 l -0.011,0.27635 0.1206,0.0362 0.1223,0.0362 9e-4,0.34254 c 0,0.30028 -0.01,0.35999 -0.097,0.49467 l -0.1,0.154 0.1305,0.016 c 0.074,0.009 0.216,0.0844 0.3265,0.16962 0.1087,0.0835 0.2359,0.15017 0.2824,0.14813 0.1408,-0.006 0.4266,0.13483 0.5712,0.28152 0,0 0.1322,0.2749 0.1547,0.32138 0,0.076 0.022,0.0963 0.096,0.0931 0.1778,-0.008 0.2175,0.026 0.2253,0.20471 0,0.0986 0.023,0.16844 0.048,0.16734 -0.095,-0.31654 0.1214,-0.36939 0.1527,-0.46463 0.1178,-0.15271 0.2043,-0.15724 0.5216,-0.0308 0.4209,0.16923 0.5489,0.35128 0.5692,0.8153 0.01,0.21143 0.022,0.24587 0.1071,0.29642 0.129,0.0766 0.176,0.26027 0.094,0.3601 -0.047,0.0574 -0.053,0.11116 -0.028,0.2212 0.018,0.0796 0.04,0.22945 0.051,0.33496 0.015,0.10523 0.035,0.27297 0.054,0.37084 0.044,0.22483 -0.038,0.54354 -0.1696,0.65649 -0.1137,0.0981 -0.1578,0.10099 -0.336,0.0261 -0.1274,-0.0548 -0.1433,-0.0545 -0.1964,0.004 -0.05,0.054 -0.051,0.0838 -0.01,0.19495 0.068,0.16637 0.041,0.37759 -0.071,0.5224 -0.099,0.12913 -0.3438,0.21813 -0.639,0.23167 -0.309,0.0144 -0.3085,0.0126 -0.2366,0.48453 0.046,0.30025 0.056,0.5106 0.035,0.79539 -0.014,0.21278 -0.023,0.46585 -0.019,0.56157 0.015,0.35399 -0.2285,0.82604 -0.522,1.00907 -0.1093,0.0682 -0.2306,0.16847 -0.2697,0.22273 -0.087,0.12122 -0.3495,0.20282 -1.1045,0.34761 -0.1159,0.0223 -0.1499,0.0529 -0.2165,0.20238 -0.043,0.0969 -0.1027,0.17757 -0.1328,0.17889 -0.036,0.002 -0.052,0.0444 -0.049,0.12117 0,0.0999 0.018,0.11478 0.091,0.10418 0.1646,-0.0253 0.5654,0.0257 0.6127,0.0778 0.037,0.0408 0.033,0.1025 -0.021,0.27676 -0.038,0.12314 -0.075,0.34548 -0.081,0.49397 -0.023,0.52355 -0.033,0.58614 -0.1136,0.74239 -0.2441,0.47329 -0.4498,0.56937 -1.4697,0.69531 -0.2411,0.03 -0.3969,0.0466 -0.5044,0.0509 z m 1.5282,-11.2274 c 0.044,0.008 0.07,-0.003 0.069,-0.03 -7e-4,-0.017 -0.088,-0.0559 -0.1948,-0.0853 -0.1072,-0.0291 -0.195,-0.0476 -0.1947,-0.0402 3e-4,0.006 0.064,0.0448 0.1408,0.0858 0.072,0.0384 0.135,0.0628 0.1797,0.0697 z m -0.4457,-0.21489 c -2e-4,-0.005 -0.013,-0.0164 -0.047,-0.0376 -0.04,-0.0255 -0.1424,-0.0961 -0.225,-0.15784 -0.1053,-0.0788 -0.1958,-0.11095 -0.3023,-0.11118 -0.1408,1.5e-4 -0.1539,0.01 -0.1855,0.13069 l -0.034,0.13132 0.3144,0.0133 c 0.1722,0.007 0.3555,0.0197 0.4086,0.0272 0.044,0.007 0.067,0.008 0.07,0.005 z" />
      <g
         id="g169342-4-4-3-4"
         transform="translate(1093.7581,817.77882)"
         style="fill:#000000">
        <path
           d="m 0,0 c 0,0 -2.089,0.584 -2.709,0.756 -0.643,0.178 -2.343,0.045 -2.343,0.045 0,0 1.01,-0.934 1.976,-1.202 0.642,-0.178 0.55,-0.445 0.642,-0.578 0.092,-0.134 1.699,-0.178 1.699,-0.178 l 0.138,-0.223 0.904,-0.125"
           style="fill:#000000;fill-opacity:1;fill-rule:nonzero;stroke:none"
           id="path169344-2-6-4-0" />
      </g>
    </g>
  </g>
</svg>
