<?xml version="1.0" encoding="UTF-8" standalone="no"?>
<!-- Created with Inkscape (http://www.inkscape.org/) -->

<svg
   width="28.210978mm"
   height="9.803359mm"
   viewBox="0 0 28.210978 9.803359"
   version="1.1"
   id="svg32839"
   sodipodi:docname="inkporter-svg-l3lnoisa.svg"
   xmlns:inkscape="http://www.inkscape.org/namespaces/inkscape"
   xmlns:sodipodi="http://sodipodi.sourceforge.net/DTD/sodipodi-0.dtd"
   xmlns="http://www.w3.org/2000/svg"
   xmlns:svg="http://www.w3.org/2000/svg">
  <sodipodi:namedview
     id="namedview32841"
     pagecolor="#ffffff"
     bordercolor="#666666"
     borderopacity="1.0"
     inkscape:pageshadow="2"
     inkscape:pageopacity="0.0"
     inkscape:pagecheckerboard="0"
     inkscape:document-units="mm"
     showgrid="false"
     inkscape:zoom="1.3273709"
     inkscape:cx="362.74713"
     inkscape:cy="544.30904"
     inkscape:window-width="1920"
     inkscape:window-height="1017"
     inkscape:window-x="-8"
     inkscape:window-y="-8"
     inkscape:window-maximized="1"
     inkscape:current-layer="layer1" />
  <defs
     id="defs32836" />
  <g
     inkscape:label="Layer 1"
     inkscape:groupmode="layer"
     id="layer1"
     transform="translate(-64.140263,-163.34624)">
    <g
       id="LM-5cmBunker"
       transform="matrix(0.35277777,0,0,-0.35277777,-313.24858,416.99731)">
      <path
         style="fill:#000000;fill-opacity:1;fill-rule:nonzero;stroke:none;stroke-width:1"
         d="m 1149.7318,712.4874 -5.2265,6.26953 -57.4961,0.25398 -0.3477,-1.45312 -1.5351,-2.26562 -1.5469,-2.57423 -2.7656,-21.49608 68.0547,0.0113 z m 0,0"
         id="path11575" />
      <g
         id="g180458-6-2-3-6"
         transform="rotate(-2.5042585,16421.945,-25097.575)"
         style="fill:#000000">
        <path
           d="M 0,0 C 0.046,0 0.638,-0.029 0.638,-0.029 L 0.592,0.249 -0.76,0.498 -2.582,-0.044 c 0,0 -0.79,0.791 -0.896,0.894 -0.107,0.102 -0.471,0.205 -0.76,0.088 -0.289,-0.118 -1.018,-0.22 -1.018,-0.22 0,0 -0.212,-0.059 -0.395,0.146 -0.182,0.205 -1.154,1.084 -1.154,1.084 L -7.048,1.729 c 0,0 1.291,-1.26 1.397,-1.377 0.107,-0.118 0.38,0 0.517,0.014 0.137,0.015 1.109,0.308 1.109,0.308 0,0 0.258,0.044 0.425,-0.176 0.167,-0.22 0.577,-0.63 0.577,-0.63 0,0 -0.44,-0.234 -1.124,-0.102 -0.595,0.114 -9.716,2.087 -12.051,2.593 -0.009,0.187 -0.022,0.35 -0.04,0.454 -0.076,0.439 -0.395,1.304 -0.395,1.304 0,0 0.456,-0.118 0.699,-0.147 0.243,-0.029 0.395,0.322 0.395,0.322 0,0 3.068,-0.014 3.099,-0.073 0.03,-0.058 0.045,1.113 0.045,1.113 l -2.673,0.03 0.015,0.307 c 0,0 0.668,0.03 0.775,0.044 0.106,0.015 0.273,0.088 0.258,0.205 -0.015,0.118 -0.03,0.455 -0.03,0.455 0,0 1.746,0.117 1.898,0.131 0.152,0.015 0.213,0.118 0.213,0.176 0,0.059 -0.03,0.63 -0.046,0.865 -0.015,0.234 -0.243,0.219 -0.243,0.219 l -1.716,-0.132 v 0.337 l -0.517,0.015 -0.136,0.176 -2.628,-0.015 c 0,0 -0.091,-0.058 -0.273,0.161 -0.183,0.22 -0.532,0.323 -0.821,0.337 -0.288,0.015 -1.063,0.074 -1.473,0.117 -0.41,0.044 -1.291,0.381 -1.291,0.381 l -1.202,-1.607 -18.271,0.597 -0.638,0.293 -1.352,-0.03 -0.289,-0.088 -0.045,-1.098 0.334,-0.132 h 1.352 l 0.577,0.22 11.805,-0.65 -0.024,-0.519 -1.042,0.04 -0.03,-0.615 0.653,-0.556 V 4.834 l 0.288,-0.044 0.016,0.074 3.743,-0.202 c -0.913,-0.721 -1.495,-1.816 -1.495,-3.043 0,-2.173 1.826,-3.934 4.078,-3.934 2.014,0 3.686,1.408 4.018,3.259 l 2.795,-0.343 0.03,0.263 -0.395,0.03 c 0,0 0.003,0.301 0,0.672 l 12.972,-2.87 c 0,0 0.851,-1.099 0.927,-1.128 0.075,-0.029 0.956,0.044 0.956,0.044 0,0 -0.698,0.484 -0.789,0.63 -0.092,0.147 -0.228,0.498 -0.228,0.498 l 0.152,0.63 C -2.187,-0.63 -0.046,0 0,0 M -41.635,7.325 -42.409,7.31 v 0.835 l 0.774,-0.014 z m 0.38,0.002 v 0.791 l 0.501,-0.176 0.015,-0.41 z m 14.038,-0.769 4.037,-0.222 -0.314,-0.419 -3.749,0.147 c 0.006,0.143 0.015,0.336 0.026,0.494"
           style="fill:#000000;fill-opacity:1;fill-rule:nonzero;stroke:none"
           id="path180460-9-4-6-1" />
      </g>
    </g>
  </g>
</svg>
