<?xml version="1.0" encoding="UTF-8" standalone="no"?>
<!-- Created with Inkscape (http://www.inkscape.org/) -->

<svg
   width="30.642136mm"
   height="9.803359mm"
   viewBox="0 0 30.642136 9.803359"
   version="1.1"
   id="svg32839"
   sodipodi:docname="inkporter-svg-l3lnoisa.svg"
   xmlns:inkscape="http://www.inkscape.org/namespaces/inkscape"
   xmlns:sodipodi="http://sodipodi.sourceforge.net/DTD/sodipodi-0.dtd"
   xmlns="http://www.w3.org/2000/svg"
   xmlns:svg="http://www.w3.org/2000/svg">
  <sodipodi:namedview
     id="namedview32841"
     pagecolor="#ffffff"
     bordercolor="#666666"
     borderopacity="1.0"
     inkscape:pageshadow="2"
     inkscape:pageopacity="0.0"
     inkscape:pagecheckerboard="0"
     inkscape:document-units="mm"
     showgrid="false"
     inkscape:zoom="1.3273709"
     inkscape:cx="362.74713"
     inkscape:cy="544.30904"
     inkscape:window-width="1920"
     inkscape:window-height="1017"
     inkscape:window-x="-8"
     inkscape:window-y="-8"
     inkscape:window-maximized="1"
     inkscape:current-layer="layer1" />
  <defs
     id="defs32836" />
  <g
     inkscape:label="Layer 1"
     inkscape:groupmode="layer"
     id="layer1"
     transform="translate(-52.354505,-177.40492)">
    <g
       id="LM-88"
       transform="matrix(0.35277777,0,0,-0.35277777,-322.60318,431.05599)">
      <path
         style="fill:#000000;fill-opacity:1;fill-rule:nonzero;stroke:none;stroke-width:1"
         d="m 1149.7318,712.4874 -5.2265,6.26953 -57.4961,0.25398 -0.3477,-1.45312 -1.5351,-2.26562 -1.5469,-2.57423 -2.7656,-21.49608 68.0547,0.0113 z m 0,0"
         id="path11575-8" />
      <path
         style="fill:#000000;fill-opacity:1;fill-rule:nonzero;stroke:none;stroke-width:1"
         d="m 1094.2834,706.03005 0.062,-0.61991 -1.4804,-0.0418 -0.016,0.54979 -3.3104,0.25691 0.024,0.30765 4.728,-0.36694 z m -4.5738,-8.70343 -6.5145,0.47027 0.1173,1.51108 0.7811,0.0176 0.1082,1.39426 2.7923,-0.21671 0.078,1.00478 -10.6982,0.83028 -0.3654,0.34181 -13.1362,1.01948 0.069,0.89185 13.2293,-0.83081 0.3777,0.3233 9.4559,-0.73386 3.7233,0.21646 -1.1343,0.47982 0.024,0.30769 -0.3076,0.0239 -0.012,0.85893 c 0.3077,-0.0239 0.3436,0.43957 0.3436,0.43957 l 7.9099,-0.61388 0.1206,1.55394 0.6152,-0.0478 -0.1206,-1.55393 4.8099,-0.37328 -0.066,-0.85288 0.7359,-0.0571 -0.063,-0.30466 2.0135,-0.15627 -0.024,-0.31156 1.6976,-0.18661 9.0028,-0.56534 -0.084,-1.23938 -8.383,0.57606 -0.1684,-1.16232 0.4094,-0.73311 0.4014,0.1255 0.072,0.93079 7.0142,-0.54435 -0.078,-1.00868 -3.0614,0.23758 -0.066,-0.85291 1.1666,-0.0123 -0.8852,-0.40144 0.098,-0.7089 -0.5055,-0.50538 -0.2864,0.2966 -4.1874,0.3642 -0.29,-0.75718 -0.4197,-0.35924 -0.5715,-0.34744 -0.7392,-0.48725 -0.6313,-0.10766 -0.7749,0.0601 -1.7116,0.0583 -2.2034,-0.22083 -0.5352,0.11978"
         id="path11577-8" />
    </g>
  </g>
</svg>
