<?xml version="1.0" encoding="UTF-8" standalone="no"?>
<!-- Created with Inkscape (http://www.inkscape.org/) -->

<svg
   width="17.912226mm"
   height="5.285327mm"
   viewBox="0 0 17.912226 5.285327"
   version="1.1"
   id="svg32839"
   sodipodi:docname="inkporter-svg-l3lnoisa.svg"
   xmlns:inkscape="http://www.inkscape.org/namespaces/inkscape"
   xmlns:sodipodi="http://sodipodi.sourceforge.net/DTD/sodipodi-0.dtd"
   xmlns="http://www.w3.org/2000/svg"
   xmlns:svg="http://www.w3.org/2000/svg">
  <sodipodi:namedview
     id="namedview32841"
     pagecolor="#ffffff"
     bordercolor="#666666"
     borderopacity="1.0"
     inkscape:pageshadow="2"
     inkscape:pageopacity="0.0"
     inkscape:pagecheckerboard="0"
     inkscape:document-units="mm"
     showgrid="false"
     inkscape:zoom="1.3273709"
     inkscape:cx="362.74713"
     inkscape:cy="544.30904"
     inkscape:window-width="1920"
     inkscape:window-height="1017"
     inkscape:window-x="-8"
     inkscape:window-y="-8"
     inkscape:window-maximized="1"
     inkscape:current-layer="layer1" />
  <defs
     id="defs32836" />
  <g
     inkscape:label="Layer 1"
     inkscape:groupmode="layer"
     id="layer1"
     transform="translate(-39.679156,-147.27154)">
    <g
       id="LM-AA-Nest"
       transform="matrix(0.35277777,0,0,-0.35277777,-313.24858,416.99731)">
      <path
         style="fill:#000000;fill-opacity:1;fill-rule:nonzero;stroke:none;stroke-width:1"
         d="m 1051.0291,751.66167 c 0.1913,0.13663 0.2304,0.31638 0.074,0.59375 -0.1562,0.27723 -0.504,0.45703 -0.3868,0.55468 0.1174,0.0978 0.1562,0.29687 0.3477,0.59375 0.1953,0.30078 -0.582,0.59765 -0.5039,0.7539 0.082,0.16016 -0.8125,0.27723 -1.1992,0.33984 -0.3867,0.0587 -1.3594,0.17575 -1.9024,0.19531 -0.543,0.0227 -3.2226,-0.37499 -3.6484,-0.13663 -0.4297,0.2384 -0.8164,0.21884 -1.0117,0.27723 -0.1914,0.0587 -0.4649,0.49609 -0.7735,0.65234 -0.3086,0.16015 -1.8242,-0.017 -2.1328,0.1406 -0.3125,0.15618 -1.2461,0.33984 -1.707,0.3789 -0.4649,0.0391 -1.5117,-0.0227 -1.9414,0.0391 -0.4258,0.0587 -1.7852,-0.0626 -2.1328,-0.12104 -0.1874,-0.0312 -0.4844,-0.009 -0.8399,0.0198 l -15.6758,0.0283 -0.01,-0.0113 c -0.5937,0.0227 -1.5312,0.0142 -1.793,-0.017 -0.3086,-0.0391 -0.8554,-0.0391 -1.4726,-0.0198 -0.6211,0.0198 -1.4766,-0.0782 -2.0195,-0.0978 -0.543,-0.0198 -0.9727,0.11707 -1.4375,0.11707 -0.4649,0 -1.2774,-0.13663 -1.4727,-0.25399 -0.1953,-0.12501 -0.3867,-0.0626 -1.0078,0.0391 -0.6211,0.0978 -1.668,-0.24208 -1.9414,-0.21883 -0.2735,0.017 -1.5899,0.0782 -2.0547,0.0978 -0.4688,0.0198 -0.8555,-0.12104 -1.0508,-0.17972 -0.1953,-0.0587 -0.543,-0.16015 -1.0469,-0.0391 -0.5039,0.12104 -0.3906,-0.17972 -0.7773,-0.31641 -0.3867,-0.13663 -0.2305,-0.13663 -0.1953,-0.33984 0.039,-0.19531 0.3125,-0.41406 0.078,-0.57422 -0.2305,-0.15619 0.3125,-0.55468 0.1953,-0.69139 -0.1172,-0.1406 0,-0.67578 0,-0.67578 0,0 0.1562,-0.21884 -0.1953,-0.4375 -0.3477,-0.21487 -0.2695,-0.53516 0.039,-0.6914 0.3125,-0.16016 0.2734,-0.26164 -0.078,-0.33985 -0.3477,-0.0819 -0.4258,-0.35549 -0.4258,-0.49609 0,-0.13663 0.1562,-0.59377 -0.078,-0.65236 -0.2305,-0.0587 -0.4258,-0.57813 -0.4258,-0.57813 l 0.8555,0.0627 h 49.0859 l 0.5391,0.29687 c 0,0 -0.074,0.39455 0.039,0.53515 0.1171,0.1406 0.1171,0.37891 0.1171,0.37891 0,0 -0.2305,0.65236 -0.035,0.79299"
         id="path11579-4-2" />
      <path
         id="path75997-6-1-6-1"
         style="fill:#000000;fill-opacity:1;fill-rule:nonzero;stroke:none;stroke-width:1.0719"
         d="m 1033.3469,764.57699 -0.2226,-0.11426 -0.2081,-0.15967 c 0,0 -0.1027,-0.19481 -0.271,-0.3706 -0.1672,-0.17683 -0.2695,-0.19043 -0.2695,-0.19043 l -0.2461,-0.0571 0.1523,-0.16699 0.2227,-0.20069 0.06,-0.21093 -0.2828,-0.47608 0.1715,-0.12744 -0.075,-0.36767 c 0,0 -0.074,-0.18344 -0.028,-0.24024 0.047,-0.0586 0.1993,-0.0688 0.1993,-0.0688 l 0.2167,-0.0293 0.088,-0.33252 v -0.16846 l -0.353,-0.34424 -0.2198,-0.26221 c 0,0 -0.1684,-0.27528 -0.1684,-0.35888 0,-0.0836 -0.031,-0.27686 -0.031,-0.27686 l -0.016,-0.50244 0.107,-0.44678 0.047,-0.32519 -0.3515,-0.23584 -0.5083,0.0791 -0.1568,-0.23584 h -0.2988 l 0.4439,1.93066 -1.7198,2.07569 0.671,0.70752 -0.709,0.66943 -1.0752,-0.76758 -0.1655,0.14502 -0.4454,-0.63574 0.7412,-0.66797 -2.2368,-2.03467 -1.3974,0.0645 -0.315,1.22021 -1.7197,0.16553 -1.478,0.45703 -1.1148,-0.0542 -0.9463,-0.82178 -0.6958,-0.43945 -0.5493,0.39258 1.3139,1.64062 2.4639,0.0762 -2.2544,1.01953 -4.8545,-2.72608 -0.7236,-0.16699 -9.5625,1.33008 -2.1167,0.55224 -0.1744,-1.10595 2.193,-0.14795 9.5127,-1.32422 0.6444,-0.49805 0.2799,-1.70654 0.8774,-1.79297 0.5903,-1.31836 h 0.7281 l -0.018,2.51514 0.5156,-0.25781 0.561,-2.12696 0.1554,-0.13037 h 11.5942 l 0.104,0.65332 0.2343,0.085 0.084,0.22998 0.3589,-0.16845 c 0,0 0.4829,-0.55454 0.5976,-0.64454 0.055,-0.0428 0.1721,-0.10334 0.2798,-0.15527 h 4.6054 l 1.6773,3.18604 -0.5523,0.2915 -1.5512,-2.94873 0.057,0.18457 c 0,0 0,0.0902 0.1435,0.49219 0.1391,0.40307 0.2045,0.32476 0.075,0.43945 -0.1278,0.11362 -0.025,0.31494 -0.025,0.31494 l 0.01,0.33985 -0.1113,0.22412 -0.01,0.21972 c 0,0 0.033,0.18328 0.078,0.30762 0.045,0.12434 0.088,0.32666 0.088,0.32666 0,0 0.09,0.33873 0,0.45557 -0.093,0.11577 -0.067,0.50372 -0.1305,0.59912 l -0.015,0.15674 -0.029,0.16552 c 0,0 -0.1412,0.0667 -0.054,0.30469 0.088,0.23796 0,0.88365 -0.2007,1.00049 -0.1989,0.11791 -0.2094,0.24756 -0.2094,0.24756 l -0.1934,0.20215 -0.2929,0.25781 -0.2857,0.40137 -0.1011,0.43652 0.2197,-0.12744 0.024,0.59619 0.092,0.19922 c 0,0 0.023,10e-4 0.092,0.20068 0.068,0.1983 0.032,0.3252 0.032,0.3252 0,0 0.093,-0.006 -0.038,0.28564 -0.1332,0.29266 -0.123,0.20362 -0.123,0.20362 l -0.255,0.23876 -0.4394,0.25342 -0.4483,0.1377 z m -4.4385,-2.9707 1.1265,-1.01953 -0.7353,-0.34864 -0.3311,-1.5747 -1.5982,0.0234 -0.9565,0.28858 0.274,0.60644 z m -0.9316,-4.38428 0.4702,-0.003 -0.013,-0.0337 -0.051,-0.63281 0.079,-0.35157 0.045,-0.26513 0.012,-0.26661 -0.5654,1.19971 z" />
    </g>
  </g>
</svg>
