<?xml version="1.0" encoding="UTF-8" standalone="no"?>
<!-- Created with Inkscape (http://www.inkscape.org/) -->

<svg
   width="17.912226mm"
   height="5.9830422mm"
   viewBox="0 0 17.912226 5.9830422"
   version="1.1"
   id="svg32839"
   sodipodi:docname="inkporter-svg-l3lnoisa.svg"
   xmlns:inkscape="http://www.inkscape.org/namespaces/inkscape"
   xmlns:sodipodi="http://sodipodi.sourceforge.net/DTD/sodipodi-0.dtd"
   xmlns="http://www.w3.org/2000/svg"
   xmlns:svg="http://www.w3.org/2000/svg">
  <sodipodi:namedview
     id="namedview32841"
     pagecolor="#ffffff"
     bordercolor="#666666"
     borderopacity="1.0"
     inkscape:pageshadow="2"
     inkscape:pageopacity="0.0"
     inkscape:pagecheckerboard="0"
     inkscape:document-units="mm"
     showgrid="false"
     inkscape:zoom="1.3273709"
     inkscape:cx="362.74713"
     inkscape:cy="544.30904"
     inkscape:window-width="1920"
     inkscape:window-height="1017"
     inkscape:window-x="-8"
     inkscape:window-y="-8"
     inkscape:window-maximized="1"
     inkscape:current-layer="layer1" />
  <defs
     id="defs32836" />
  <g
     inkscape:label="Layer 1"
     inkscape:groupmode="layer"
     id="layer1"
     transform="translate(-62.819331,-139.69128)">
    <g
       id="LM-Mortar"
       transform="matrix(0.35277777,0,0,-0.35277777,-313.24858,416.99731)">
      <path
         id="path11607-2"
         style="fill:#000000;stroke-width:0.0772405"
         d="m 1456.75,74.435547 c -0.1596,-0.01732 -0.5976,0.137776 -0.7754,0.287109 -0.1253,0.105334 -0.367,0.483311 -0.5371,0.839844 -0.3001,0.6288 -0.318,0.648438 -0.5781,0.648438 -0.2771,0 -0.6225,0.248718 -0.5371,0.386718 0.025,0.04 0.013,0.213166 -0.039,0.384766 -0.051,0.1884 -0.058,0.36128 -0.016,0.435547 0.049,0.088 0.014,0.177426 -0.127,0.318359 -0.1901,0.19 -0.1896,0.198115 -0.045,0.300781 0.081,0.05867 0.2263,0.177579 0.3223,0.267579 0.1293,0.121333 0.2015,0.142078 0.2754,0.08008 0.055,-0.04533 0.176,-0.06244 0.2695,-0.03711 0.093,0.024 0.1692,0.01585 0.1699,-0.02148 5e-4,-0.036 0.032,-0.113255 0.066,-0.169922 0.049,-0.07867 0.1464,-0.04694 0.4297,0.144531 0.2008,0.1356 0.3856,0.30398 0.4121,0.373047 0.027,0.06933 0.129,0.242852 0.2266,0.386719 0.097,0.144 0.1777,0.346019 0.1777,0.449219 0,0.2872 0.1247,0.476816 0.7227,1.09375 1.3109,1.352 2.0417,1.964381 3.0449,2.550781 0.2855,0.166667 0.6181,0.394346 0.7402,0.507812 0.2015,0.1868 0.2177,0.240547 0.1739,0.560547 -0.027,0.194 -0.047,0.571977 -0.047,0.839844 0,0.4588 -0.015,0.49438 -0.2324,0.623047 -0.128,0.076 -0.2672,0.247432 -0.3125,0.384765 -0.045,0.136267 -0.1617,0.299148 -0.2598,0.363282 -0.099,0.064 -0.1981,0.21873 -0.2227,0.341797 -0.031,0.151466 -0.1515,0.294292 -0.3769,0.443359 -0.1828,0.121333 -0.395,0.298265 -0.4707,0.394531 -0.076,0.096 -0.2019,0.19537 -0.2813,0.220703 -0.079,0.024 -0.1859,0.145579 -0.2363,0.267578 -0.1027,0.249467 -0.4412,0.595924 -0.5117,0.525391 -0.084,-0.084 -0.8027,-1.930854 -1.1641,-2.992187 -0.1953,-0.5736 -0.4025,-1.137287 -0.4609,-1.251954 -0.059,-0.114666 -0.1055,-0.306047 -0.1055,-0.425781 0,-0.12 -0.083,-0.338461 -0.1836,-0.486328 -0.2922,-0.431333 -0.3121,-0.580143 -0.1133,-0.849609 0.097,-0.132 0.2909,-0.310751 0.4297,-0.396485 0.5034,-0.3112 0.2203,-0.562775 -0.5449,-0.484375 l -0.4883,0.05078 -0.2558,-0.683594 c -0.2283,-0.613467 -0.6749,-1.652938 -0.8438,-1.960938 -0.1013,-0.1856 -0.6965,-0.1864 -0.9961,0 -0.4272,0.263734 -0.43,0.246661 0.1563,1.933594 0.4013,1.154933 0.4304,1.313852 0.2304,1.261719 -0.095,-0.02533 -0.168,0.01465 -0.1972,0.08398 -0.027,0.07067 -0.137,0.121094 -0.2559,0.121094 -0.1147,0 -0.2697,0.05443 -0.3437,0.121094 -0.1227,0.112 -0.1528,0.110328 -0.3282,-0.01367 -0.1904,-0.125333 -0.3274,-0.446792 -0.2461,-0.578125 0.076,-0.122667 -0.289,-0.184853 -0.3789,-0.06445 -0.045,0.06 -0.1387,0.130916 -0.207,0.15625 -0.1377,0.052 -0.205,0.326788 -0.1934,0.794922 0.013,0.285866 0.032,0.319204 0.3379,0.460937 0.2959,0.137467 0.3263,0.176215 0.2852,0.363281 -0.025,0.114667 -0.013,0.283667 0.043,0.375 0.083,0.1536 0.1273,0.162215 0.6074,0.113282 l 0.5195,-0.05273 -0.016,0.335938 c -0.013,0.183866 -0.018,0.389031 -0.023,0.457031 -0.016,0.254133 -0.2913,0.468567 -0.5625,0.4375 -0.2578,-0.02933 -0.4108,0.02456 -0.75,0.265625 -0.1423,0.1 -0.1713,0.172972 -0.1329,0.326172 0.052,0.208 -0.022,0.331345 -0.7129,1.205078 -0.1841,0.232667 -0.736,0.96256 -1.2265,1.621094 -1.3063,1.753466 -1.1552,1.591421 -1.334,1.429687 -0.1396,-0.126666 -0.1668,-0.127005 -0.3379,-0.01367 -0.184,0.121334 -0.1857,0.118587 -0.2344,-0.185547 -0.027,-0.169066 -0.019,-0.368472 0.02,-0.441406 0.2281,-0.4392 0.1448,-1.763088 -0.1407,-2.232422 -0.1836,-0.302 -1.524,-1.279678 -2.166,-1.580078 -0.1912,-0.08933 -0.3558,-0.170354 -0.3672,-0.179687 -0.013,-0.01333 0.047,-0.170622 0.1329,-0.357422 0.1988,-0.4384 0.1946,-0.563628 -0.031,-1.048828 -0.2383,-0.511867 -0.7652,-1.088198 -1.1621,-1.269531 -0.5557,-0.253734 -0.9679,-0.168816 -1.5938,0.333984 -0.1537,0.124 -0.3974,0.283735 -0.541,0.355469 -0.2276,0.113333 -0.2597,0.167741 -0.2597,0.421875 0,0.270533 -0.014,0.289953 -0.1934,0.251953 -0.3927,-0.084 -2.2823,-0.06847 -2.5937,0.01953 -0.1736,0.05067 -0.5334,0.23283 -0.7989,0.404297 -0.2654,0.1716 -0.61,0.339713 -0.7656,0.373047 -0.2285,0.048 -0.2802,0.0927 -0.2656,0.226562 0.013,0.09867 -0.042,0.198847 -0.1348,0.248047 -0.084,0.04533 -0.1543,0.14457 -0.1543,0.220703 0,0.1724 -0.253,0.409282 -0.6562,0.613282 -0.5182,0.262399 -1.2152,1.15029 -1.6407,2.08789 -0.1093,0.240933 -0.2797,0.514089 -0.3789,0.607422 -0.1952,0.184133 -0.2232,0.364448 -0.1054,0.675781 0.1376,0.362 -0.061,0.951542 -0.4356,1.296875 -0.1311,0.120796 -0.2505,0.265927 -0.3105,0.371094 h 8.2383 c -0.068,-0.151999 -0.1513,-0.310188 -0.2579,-0.466797 -0.2866,-0.421333 -0.5873,-1.25238 -0.5879,-1.623047 -2e-4,-0.238933 0.053,-0.312254 0.4434,-0.617187 0.5227,-0.408267 1.4708,-1.076716 1.9219,-1.353516 l 0.3183,-0.195312 0.4922,0.185547 c 0.2706,0.101333 0.7695,0.307917 1.1094,0.458984 0.3399,0.150933 0.6796,0.293339 0.7539,0.316406 0.075,0.02267 0.1348,0.108433 0.1348,0.1875 0,0.1656 0.2062,0.607028 0.3144,0.673828 0.04,0.024 0.072,0.185955 0.072,0.357422 0,0.251867 0.048,0.355902 0.248,0.542969 0.2906,0.271467 0.4438,0.662412 0.4454,1.132812 6e-4,0.164347 0.028,0.28667 0.086,0.400391 h 1.4062 c 0.1229,-0.134224 0.2088,-0.200127 0.252,-0.183594 0.1828,0.07067 0.3549,-0.128049 0.3066,-0.353515 -0.035,-0.160534 0.05,-0.322493 0.4297,-0.81836 0.2602,-0.339866 0.8682,-1.143776 1.3496,-1.787109 l 0.875,-1.169922 0.4082,0.375 0.4063,0.375 -0.3106,1.240234 c -0.1709,0.682267 -0.286,1.278486 -0.2578,1.324219 0.028,0.04533 0.116,0.07131 0.1953,0.05664 0.116,-0.02133 0.2024,-0.241242 0.4297,-1.109375 0.1558,-0.594534 0.2854,-1.090449 0.2891,-1.103516 0,-0.01333 0.08,0.02646 0.1719,0.0918 0.128,0.08933 0.203,0.09854 0.3281,0.0332 0.3523,-0.1852 0.3702,-0.474086 0.047,-0.751953 -0.2308,-0.198133 -0.2314,-0.201138 -0.1309,-0.585938 0.097,-0.374799 0.1116,-0.386869 0.4063,-0.408203 l 0.3046,-0.02148 0.5313,1.837891 c 0.6412,2.216666 0.7317,2.635503 0.5937,2.720703 -0.08,0.04894 -0.088,0.14574 -0.051,0.238281 h 0.8574 c 0.031,-0.01913 0.1057,-0.02351 0.2109,-0.0078 0.02,0.003 0.017,0.0051 0.033,0.0078 h 9.4453 c 0.4706,-0.97424 0.6093,-1.94365 0.4082,-2.890625 -0.1173,-0.553867 -0.1369,-0.845021 -0.094,-1.429687 0.029,-0.4036 0.025,-0.791682 -0.014,-0.863282 -0.036,-0.072 -0.064,-0.246672 -0.064,-0.388672 0,-0.142 -0.054,-0.333867 -0.1211,-0.427734 -0.065,-0.09333 -0.2024,-0.47539 -0.3028,-0.847656 -0.4445,-1.6468 -0.8077,-2.508601 -1.1816,-2.802735 -0.2351,-0.1848 -0.4798,-0.528628 -0.4805,-0.673828 -4e-4,-0.056 0.096,-0.09766 0.2266,-0.09766 0.2117,0 0.2306,-0.02439 0.2812,-0.367187 0.031,-0.201734 0.1004,-0.501349 0.1582,-0.666016 0.134,-0.382533 0.1355,-0.987574 0,-1.306641 -0.2407,-0.5748 -1.3585,-1.261656 -2.1914,-1.347656 -0.6308,-0.06533 -0.9473,0.11539 -1.4981,0.847656 -0.4762,0.633334 -0.5352,0.83584 -0.33,1.128907 0.116,0.165599 0.1129,0.187609 -0.039,0.349609 -0.1891,0.201333 -0.2145,0.433594 -0.047,0.433594 0.1294,0 0.1448,0.06684 0.051,0.214843 -0.048,0.076 -0.1064,0.06407 -0.2617,-0.05859 -0.1093,-0.08533 -0.2873,-0.15625 -0.3945,-0.15625 -0.128,0 -0.2526,-0.07936 -0.3614,-0.232422 -0.091,-0.128 -0.2144,-0.230469 -0.2754,-0.230469 -0.061,0 -0.1093,-0.03608 -0.1093,-0.08008 0,-0.044 -0.158,-0.177362 -0.3496,-0.298828 -0.1918,-0.121334 -0.4891,-0.399721 -0.6622,-0.617188 -0.2429,-0.305066 -0.3637,-0.394531 -0.5293,-0.394531 -0.1213,0 -0.339,-0.0999 -0.5,-0.226563 -0.1569,-0.123999 -0.3094,-0.238486 -0.3398,-0.251953 -0.031,-0.01333 -0.2314,-0.287994 -0.4453,-0.611328 l -0.3887,-0.58789 0.2598,-0.300782 c 0.1431,-0.165333 0.3496,-0.484717 0.459,-0.708984 0.1621,-0.333067 0.1905,-0.472958 0.1504,-0.765625 -0.027,-0.197067 -0.063,-0.371872 -0.08,-0.388672 -0.01,-0.01 -0.028,-0.01706 -0.051,-0.01953 z m -2.2461,10.121094 c 0.1972,0 0.4015,0.02659 0.4531,0.05859 0.052,0.032 0.1945,0.337648 0.3184,0.675782 0.124,0.3384 0.5588,1.444984 0.9668,2.458984 0.408,1.014 0.7268,1.868391 0.707,1.900391 -0.02,0.032 -0.2181,0.07499 -0.4414,0.09766 -0.322,0.03067 -0.4374,0.07983 -0.5566,0.240234 -0.083,0.110667 -0.1574,0.193327 -0.166,0.183594 -0.013,-0.01333 -0.2426,-0.834918 -0.5196,-1.833984 -0.4113,-1.484267 -0.4953,-1.884254 -0.4609,-2.189453 0.047,-0.416534 -0.024,-0.509719 -0.3906,-0.511719 -0.5046,0 -0.6143,-0.217351 -0.3926,-0.771485 0.12,-0.3004 0.1355,-0.309793 0.4824,-0.308594 z m -1.7227,1.929687 c 0.1528,0 0.1939,0.1094 0.1407,0.375 -0.04,0.2036 -0.067,0.226956 -0.1914,0.160156 -0.08,-0.04267 -0.1465,-0.124393 -0.1465,-0.183593 0,-0.1888 0.091,-0.351563 0.1972,-0.351563 z m 8.1797,2.666016 c 0.048,-0.0148 0.039,0.02752 0.012,0.117187 -0.032,0.104 -0.083,0.296935 -0.1172,0.427735 -0.056,0.216533 -0.6091,1.237081 -0.8067,1.488281 -0.055,0.07067 -0.1716,0.08926 -0.3554,0.05859 -0.1507,-0.024 -0.3625,-0.04359 -0.4707,-0.04492 -0.1796,0 -0.193,-0.02517 -0.1641,-0.273438 0.017,-0.1492 -0.013,-0.320726 -0.059,-0.380859 -0.1,-0.121333 0.017,-0.211228 0.3848,-0.298828 0.108,-0.02533 0.3331,-0.163088 0.5019,-0.304688 0.1688,-0.1416 0.4942,-0.39206 0.7246,-0.558594 0.1972,-0.142466 0.3018,-0.215668 0.3496,-0.230468 z m -12.416,1.376953 c 0.014,0.0058 0.024,0.02159 0.024,0.04492 0,0.04533 -0.036,0.08203 -0.078,0.08203 -0.042,0 -0.075,-0.01389 -0.076,-0.0332 0,0 0,-0.002 0,-0.002 0,-0.019 0.034,-0.05392 0.076,-0.08008 0.021,-0.01333 0.041,-0.01755 0.055,-0.01172 z m 8.75,0.507812 c 0.1556,-0.01681 0.088,0.11391 -0.2109,0.28711 -0.1592,0.09067 -0.2979,0.169161 -0.3086,0.173828 -0.013,0.01333 -0.019,-0.05229 -0.019,-0.126953 6e-4,-0.084 0.1168,-0.183139 0.3086,-0.263672 0.101,-0.04247 0.1786,-0.06471 0.2304,-0.07031 z"
         transform="matrix(0.75000002,0,0,-0.75000002,0,841.89002)" />
      <path
         style="fill:#000000;fill-opacity:1;fill-rule:nonzero;stroke:none;stroke-width:1"
         d="m 1116.6233,771.17126 c 0.1913,0.13663 0.2304,0.31638 0.074,0.59375 -0.1562,0.27723 -0.504,0.45703 -0.3868,0.55468 0.1174,0.0978 0.1562,0.29687 0.3477,0.59375 0.1953,0.30078 -0.582,0.59765 -0.5039,0.7539 0.082,0.16016 -0.8125,0.27723 -1.1992,0.33984 -0.3867,0.0587 -1.3594,0.17575 -1.9024,0.19531 -0.543,0.0227 -3.2226,-0.37499 -3.6484,-0.13663 -0.4297,0.2384 -0.8164,0.21884 -1.0117,0.27723 -0.1914,0.0587 -0.4649,0.49609 -0.7735,0.65234 -0.3086,0.16015 -1.8242,-0.017 -2.1328,0.1406 -0.3125,0.15618 -1.2461,0.33984 -1.707,0.3789 -0.4649,0.0391 -1.5117,-0.0227 -1.9414,0.0391 -0.4258,0.0587 -1.7852,-0.0626 -2.1328,-0.12104 -0.1874,-0.0312 -0.4844,-0.009 -0.8399,0.0198 l -15.6758,0.0283 -0.01,-0.0113 c -0.5937,0.0227 -1.5312,0.0142 -1.793,-0.017 -0.3086,-0.0391 -0.8554,-0.0391 -1.4726,-0.0198 -0.6211,0.0198 -1.4766,-0.0782 -2.0195,-0.0978 -0.543,-0.0198 -0.9727,0.11707 -1.4375,0.11707 -0.4649,0 -1.2774,-0.13663 -1.4727,-0.25399 -0.1953,-0.12501 -0.3867,-0.0626 -1.0078,0.0391 -0.6211,0.0978 -1.668,-0.24208 -1.9414,-0.21883 -0.2735,0.017 -1.5899,0.0782 -2.0547,0.0978 -0.4688,0.0198 -0.8555,-0.12104 -1.0508,-0.17972 -0.1953,-0.0587 -0.543,-0.16015 -1.0469,-0.0391 -0.5039,0.12104 -0.3906,-0.17972 -0.7773,-0.31641 -0.3867,-0.13663 -0.2305,-0.13663 -0.1953,-0.33984 0.039,-0.19531 0.3125,-0.41406 0.078,-0.57422 -0.2305,-0.15619 0.3125,-0.55468 0.1953,-0.69139 -0.1172,-0.1406 0,-0.67578 0,-0.67578 0,0 0.1562,-0.21884 -0.1953,-0.4375 -0.3477,-0.21487 -0.2695,-0.53516 0.039,-0.6914 0.3125,-0.16016 0.2734,-0.26164 -0.078,-0.33985 -0.3477,-0.0819 -0.4258,-0.35549 -0.4258,-0.49609 0,-0.13663 0.1562,-0.59377 -0.078,-0.65236 -0.2305,-0.0587 -0.4258,-0.57813 -0.4258,-0.57813 l 0.8555,0.0627 h 49.0859 l 0.5391,0.29687 c 0,0 -0.074,0.39455 0.039,0.53515 0.1171,0.1406 0.1171,0.37891 0.1171,0.37891 0,0 -0.2305,0.65236 -0.035,0.79299"
         id="path11579-4" />
    </g>
  </g>
</svg>
