<?xml version="1.0" encoding="UTF-8" standalone="no"?>
<!-- Created with Inkscape (http://www.inkscape.org/) -->

<svg
   width="7.9999981mm"
   height="7.9999981mm"
   viewBox="0 0 7.9999982 7.9999981"
   version="1.1"
   id="svg47190"
   inkscape:version="1.4 (e7c3feb100, 2024-10-09)"
   sodipodi:docname="Marines.svg"
   xmlns:inkscape="http://www.inkscape.org/namespaces/inkscape"
   xmlns:sodipodi="http://sodipodi.sourceforge.net/DTD/sodipodi-0.dtd"
   xmlns="http://www.w3.org/2000/svg"
   xmlns:svg="http://www.w3.org/2000/svg">
  <sodipodi:namedview
     id="namedview47192"
     pagecolor="#ffffff"
     bordercolor="#666666"
     borderopacity="1.0"
     inkscape:pageshadow="2"
     inkscape:pageopacity="0.0"
     inkscape:pagecheckerboard="0"
     inkscape:document-units="mm"
     showgrid="false"
     inkscape:zoom="28.045335"
     inkscape:cx="15.546257"
     inkscape:cy="13.192925"
     inkscape:window-width="2560"
     inkscape:window-height="1368"
     inkscape:window-x="0"
     inkscape:window-y="0"
     inkscape:window-maximized="1"
     inkscape:current-layer="layer1"
     inkscape:showpageshadow="2"
     inkscape:deskcolor="#d1d1d1" />
  <defs
     id="defs47187">
    <clipPath
       clipPathUnits="userSpaceOnUse"
       id="clipPath63680-8">
      <path
         d="M 0,0 H 595.276 V 841.89 H 0 Z"
         id="path63678-4" />
    </clipPath>
    <clipPath
       id="clip26-8">
      <path
         d="m 177,605 h 14 v 7 h -14 z m 0,0"
         id="path4278-6" />
    </clipPath>
    <clipPath
       id="clip27-6">
      <path
         d="m 181.85547,606.17578 c -0.28516,0.53516 -0.66797,0.60547 -0.94141,0.66797 -0.27344,0.0586 -0.40625,0.0234 -0.72656,0.15234 -0.32031,0.13282 -0.25,0.26172 -0.28516,0.47657 -0.0352,0.21484 -0.0977,0.27343 -0.40625,1.09765 -0.30859,0.82031 -1.14062,2.03516 -1.4414,2.53516 -0.29688,0.5 -0.67578,0.47656 -0.79688,0.82031 -0.11719,0.34766 0.0117,0.82031 0.41797,1.10938 0.40234,0.28515 0.92969,0.11718 1.23828,0.0703 0.3086,-0.0469 0.40235,-0.0352 0.40235,-0.0352 l 0.33593,0.0234 c 0,0 -0.53906,-1.8125 0.77344,-1.73828 1.30859,0.0703 2,0.67578 2.90234,0.71484 0.90625,0.0352 1.0625,-0.25 1.72657,-0.25 0.66797,0 1.22656,0.19922 1.54687,0.23438 0.32422,0.0391 1.33594,0.0156 1.33594,0.0156 l 1.35547,-4.07422 h 0.30859 l -0.0195,0.53907 0.57813,-0.63282 c 0,0 0.15625,0.0234 0.24218,-0.0586 0.082,-0.0859 0.15235,-0.35938 -0.0586,-0.65625 -0.21484,-0.29688 -0.48047,-0.60547 -1.21484,-1.14063 -0.73829,-0.53906 -1.32422,-1.05078 -3.69141,-1.14453 -0.125,-0.004 -0.25,-0.008 -0.36719,-0.008 -2.09765,0 -2.94531,0.77344 -3.21484,1.28125"
         id="path4281-9" />
    </clipPath>
    <clipPath
       id="clip28-5">
      <path
         d="m 177,611 h 4 v 3 h -4 z m 0,0"
         id="path4284-9" />
    </clipPath>
    <clipPath
       id="clip29-3">
      <path
         d="m 181.85547,606.17578 c -0.28516,0.53516 -0.66797,0.60547 -0.94141,0.66797 -0.27344,0.0586 -0.40625,0.0234 -0.72656,0.15234 -0.32031,0.13282 -0.25,0.26172 -0.28516,0.47657 -0.0352,0.21484 -0.0977,0.27343 -0.40625,1.09765 -0.30859,0.82031 -1.14062,2.03516 -1.4414,2.53516 -0.29688,0.5 -0.67578,0.47656 -0.79688,0.82031 -0.11719,0.34766 0.0117,0.82031 0.41797,1.10938 0.40234,0.28515 0.92969,0.11718 1.23828,0.0703 0.3086,-0.0469 0.40235,-0.0352 0.40235,-0.0352 l 0.33593,0.0234 c 0,0 -0.53906,-1.8125 0.77344,-1.73828 1.30859,0.0703 2,0.67578 2.90234,0.71484 0.90625,0.0352 1.0625,-0.25 1.72657,-0.25 0.66797,0 1.22656,0.19922 1.54687,0.23438 0.32422,0.0391 1.33594,0.0156 1.33594,0.0156 l 1.35547,-4.07422 h 0.30859 l -0.0195,0.53907 0.57813,-0.63282 c 0,0 0.15625,0.0234 0.24218,-0.0586 0.082,-0.0859 0.15235,-0.35938 -0.0586,-0.65625 -0.21484,-0.29688 -0.48047,-0.60547 -1.21484,-1.14063 -0.73829,-0.53906 -1.32422,-1.05078 -3.69141,-1.14453 -0.125,-0.004 -0.25,-0.008 -0.36719,-0.008 -2.09765,0 -2.94531,0.77344 -3.21484,1.28125"
         id="path4287-0" />
    </clipPath>
    <clipPath
       id="clip30-0">
      <path
         d="m 177,610 h 5 v 4 h -5 z m 0,0"
         id="path4290-1" />
    </clipPath>
    <clipPath
       id="clip31-8">
      <path
         d="m 181.85547,606.17578 c -0.28516,0.53516 -0.66797,0.60547 -0.94141,0.66797 -0.27344,0.0586 -0.40625,0.0234 -0.72656,0.15234 -0.32031,0.13282 -0.25,0.26172 -0.28516,0.47657 -0.0352,0.21484 -0.0977,0.27343 -0.40625,1.09765 -0.30859,0.82031 -1.14062,2.03516 -1.4414,2.53516 -0.29688,0.5 -0.67578,0.47656 -0.79688,0.82031 -0.11719,0.34766 0.0117,0.82031 0.41797,1.10938 0.40234,0.28515 0.92969,0.11718 1.23828,0.0703 0.3086,-0.0469 0.40235,-0.0352 0.40235,-0.0352 l 0.33593,0.0234 c 0,0 -0.53906,-1.8125 0.77344,-1.73828 1.30859,0.0703 2,0.67578 2.90234,0.71484 0.90625,0.0352 1.0625,-0.25 1.72657,-0.25 0.66797,0 1.22656,0.19922 1.54687,0.23438 0.32422,0.0391 1.33594,0.0156 1.33594,0.0156 l 1.35547,-4.07422 h 0.30859 l -0.0195,0.53907 0.57813,-0.63282 c 0,0 0.15625,0.0234 0.24218,-0.0586 0.082,-0.0859 0.15235,-0.35938 -0.0586,-0.65625 -0.21484,-0.29688 -0.48047,-0.60547 -1.21484,-1.14063 -0.73829,-0.53906 -1.32422,-1.05078 -3.69141,-1.14453 -0.125,-0.004 -0.25,-0.008 -0.36719,-0.008 -2.09765,0 -2.94531,0.77344 -3.21484,1.28125"
         id="path4293-6" />
    </clipPath>
  </defs>
  <g
     inkscape:label="Layer 1"
     inkscape:groupmode="layer"
     id="layer1"
     transform="translate(-86.467028,-76.699454)">
    <g
       id="g2"
       transform="matrix(0.03031077,0,0,0.03031077,84.001336,74.107825)">
      <path
         d="m 325.7,152.325 c 24.1,39.3 22.1,99.3 -4,136.9 -30.6,45.9 -83.2,67.6 -137.6,55.8 -34.6,-7.9 -68.6,-33.3 -85.2,-66.4 -21.6,-38.7 -19.1,-95.7 6,-132 29.1,-44.2 78.1,-66.600002 130.1,-58.100002 36.9,5.8 72,30.100002 90.7,63.800002 z"
         id="path3314"
         style="fill:#cc101f;fill-opacity:1;stroke:#ffd500;stroke-width:2.4954" />
      <path
         d="m 243.3,105.725 c 1,0.1 1.7,-0.9 2.7,-1 -0.2,4.5 -1.5,10 -6.2,11.7 -2.9,0.6 -5.1,-1.1 -7.6,-1.7 -3.4,-0.5 -6.2,1.2 -9.5,1.6 -8.7,1.4 -17.3,-0.5 -25.6,-1.6 -2,0.1 -4.6,0 -5.5,2.2 -0.2,1.2 0.5,2.2 1.4,3 0.7,1.1 2.1,1 3.2,1.2 l 1.7,1.5 1.5,-0.9 5.5,-0.6 c 3.9,-1.2 8.5,-0.2 11.5,2.5 3.4,4.9 2.5,11.6 6.1,16.3 0.7,1.2 2.2,1.4 3.5,1.2 1.3,-0.2 2.5,-0.6 3.1,-1.9 0.7,-1.6 -0.5,-3 -0.4,-4.7 0,-2.9 1.9,-5.5 4.1,-7 4.5,-2.7 10,-0.3 14,1.9 5.5,2.7 11,6 16.5,8.6 l -0.1,0.5 c 3.9,2.2 8,4.1 12.1,6 0.4,0.2 -0.2,0.4 -0.2,0.7 4.7,2.4 10,3.7 15.1,5.4 l -0.9,0.9 0.6,0.5 c 3.9,1.1 8.1,1.7 12.4,2.1 0.3,0.3 0.9,0.4 0.5,0.9 -1.5,2.1 -3.6,2.6 -5.7,3.4 -1.6,2 -3.9,2.5 -6.2,2.9 -1.6,1 -3.2,1.6 -5.2,1.6 h -3 c -3.4,1.9 -7.7,2 -11.6,1.2 -2.6,-0.6 -5.4,-1.5 -8.1,-0.9 -1.9,0.7 -3.4,-0.5 -4.9,-1.1 l -4.4,-2.6 -4,1.4 c -1.2,1 -2.7,1.6 -4.5,1.4 -0.7,1 -1.7,1.5 -3,1.5 l -1.6,-0.3 c -1.1,1.2 -3,1 -4.5,1.1 -0.9,1 -2.6,1.1 -3.7,0.6 -0.9,0.5 -1.7,1 -2.7,0.5 -1.4,-1 -1.7,1.2 -3,1.4 0.1,1 0.4,2.1 0.5,3.1 4,4.2 10.7,8.1 10,14.5 -0.4,1.4 -1.9,2 -3.1,2.4 -0.9,-0.4 -1.6,0.5 -1.7,1.2 0,1.1 1.2,1.2 1.9,1.9 l 3,1.2 c 1.1,-0.9 2.6,-1.2 4.2,-1.2 l 2.6,1.1 c 1,-0.4 2.2,-0.6 3.1,-0.1 l 2.2,1.7 c 2.1,-0.1 4,1.1 5,3 h 0.4 c 0.3,-0.7 -0.6,-1.2 -1,-2 -1.4,-0.6 -2,-2.1 -2.5,-3.4 0.1,-0.6 0.1,-1.7 -0.7,-1.7 -1,-0.5 -1.2,-1.6 -1.7,-2.4 l 0.9,-2.5 -2.1,-4.5 0.1,-0.5 c 2.7,-2.2 5.7,-4.2 8.9,-5.9 2.5,1.6 4.9,3.7 7,5.9 0.5,0.7 1,1.4 1,2.4 1.5,0.4 2.2,1.9 2.9,3.1 l -0.1,1.2 7.2,9.7 c 0.5,0.4 0.9,0 1.2,-0.2 0.4,-1.1 -0.3,-2.2 -0.1,-3.5 -0.1,-2.1 0.5,-4.1 1,-6.1 -1.1,-1.2 -1.7,-2.7 -1.7,-4.6 0.1,-1.1 0.4,-2.2 1.2,-3 0.7,-0.7 1.9,-0.9 2.9,-0.6 0.6,-1 1.5,-2.1 2.7,-2.1 l 2,0.2 c 1.6,-0.5 3.6,-0.4 5.1,0.4 6.9,-0.9 13,2.4 16.5,8 3.1,5.1 2.4,12.6 -1.1,17.2 -1.9,2.9 -4.9,4.7 -7.9,5.9 -0.4,0.7 0.3,1.7 -0.1,2.5 -0.4,1.6 -1.6,3.4 -3.2,3.9 -0.4,1 -0.2,2.1 -0.5,3.1 -0.6,1 -1,2.1 -0.9,3.5 0.6,1.4 3.4,2.4 2.2,4.5 1.1,1 2.2,2.5 2.7,4 l -0.4,1.5 0.9,3.5 c -2.7,2.9 -6.1,4.7 -9.4,6.7 -2.1,-0.5 -3.5,-2.9 -5.9,-2.7 -1.4,-1 -1.7,-2.9 -3.4,-3.5 -1.1,-1.4 -0.9,-3.4 -2.5,-4.5 l -4.4,-5.2 c -1.4,0.3 -3.1,0.9 -4.6,0 -1.5,-0.5 -2.9,-2.1 -3.5,-3.5 -1.2,-0.3 -2.2,-0.9 -3.4,-1.4 l -0.3,0.2 c 3.2,9.4 3.6,20.8 0.7,30.6 l 0.1,0.3 c -1.9,5.9 -4.6,11.2 -8,16.5 -3.2,3.7 -6.9,7.7 -10.9,10.6 l -4.1,3 c -11.2,6.7 -26.7,9.1 -39.9,5.4 -10.5,-2.9 -19.7,-9.4 -26.8,-18.1 h -0.7 c -1.6,1 -3.4,1.9 -4.5,3.4 -0.1,2.1 2.1,2.6 3,4.2 l 1.1,2.4 0.3,2.6 c 1.6,1.9 2.5,4.9 1.5,7.2 1,1.9 1.5,4.5 0.6,6.6 l 0.4,1.9 c 4.1,1.6 8.7,2.1 13.5,1.9 l 0.3,-0.3 c -1.7,-3.9 -3.4,-7.7 -4.5,-11.7 l 0.7,0.1 c 11.2,3.9 25.1,6.5 37.3,3 0.7,-0.4 1.6,-0.6 2.5,-0.3 l 0.1,1 c -4.4,8.6 -11.9,16.7 -20.5,21.5 -5.2,3 -10.5,5.6 -16.1,7.5 v -0.7 c 1,-3.1 2.4,-6.1 2.7,-9.5 l -0.5,-0.3 c -7.9,1.9 -16.3,0.6 -24.1,-0.6 -1.2,1.5 -2.9,2.5 -4.6,2.6 -2.4,-0.7 -4.7,0.1 -7.4,0 -1.1,-0.1 -2.1,-0.4 -3,-1 -2,0 -4.2,0.2 -6,-1 l -1.6,-1.5 c -2.7,-0.4 -5.7,-1.4 -6.9,-4 -0.1,-1.9 -2.5,-1.1 -3.5,-2.1 -1.4,-0.7 -2.4,-2.1 -2.5,-3.7 -1.7,-1.1 -4,-1.9 -4.9,-4 0.1,-1.6 -1.2,-2.4 -2.1,-3.5 -0.9,-1.6 -3,-0.7 -4.5,-1.1 -1.6,-1.6 1.4,-2.9 1.6,-4.4 l 0.4,-0.7 c -1.7,-1.6 -2.1,-4 -2.2,-6.2 -1.2,-1.6 -1.9,-3.7 -1.4,-5.9 0.9,-2 -0.1,-4.6 0.6,-6.7 -0.5,-1 -1.5,-2 -1.4,-3.4 -1.7,-2 -3.1,-4.1 -2.9,-6.9 -1,-1.9 -2.4,-3.7 -2,-6.2 0.5,-1 0.7,-2.1 1.5,-3 -0.6,-2.2 -0.9,-5.2 1,-7 l 0.6,-0.4 c 0.1,-2.4 1.1,-4.4 3,-5.9 l 0.9,-2.4 2.2,-2.1 c 0.7,-1.9 2.7,-2.7 4.7,-3 1,-1.4 2.5,-1.9 4.1,-1.9 l 1.9,0.1 2.9,-0.3 c 0.5,-0.7 1.4,-1.5 1.1,-2.2 -2.9,-0.4 -5.6,0 -8.4,0.1 0.5,-2.6 2.5,-4.9 4.5,-7.1 7.7,-6.9 16.5,-12.2 26.8,-13.4 4,-0.3 8.2,-0.5 12.1,0.5 l 0.1,0.1 c -2.1,2.5 -4.2,5.2 -6.1,7.9 -5.1,7.7 -9.4,15.8 -10.2,25.3 -2.7,-2.4 -5.1,-5 -8.1,-6.9 -0.3,0 -0.5,0.2 -0.5,0.5 1.1,0.9 2.4,2.2 2.4,3.9 1.2,1.1 2.4,2.5 2.4,4.2 -0.1,1.4 -0.5,2.5 -1.2,3.5 0.5,1.5 0.3,3.2 -0.4,4.5 l -1.7,2.2 c -0.3,2.1 -2,4 -3.9,5.1 1.4,3.6 4.4,8.1 8.7,8.4 h 1 c -0.3,-1 -1.2,-1.7 -1.5,-2.7 -0.4,-1.4 -0.3,-2.7 0.2,-4 -0.5,-2.5 -0.5,-5.6 1.7,-7.1 0.3,-1.9 0.4,-3.6 1.7,-4.9 1.7,-1.2 1.2,-3.9 3.5,-4.6 0.9,-0.7 3,0.5 3.2,-1.1 0.5,-10.1 3.5,-19.5 9.1,-27.5 0.7,-0.1 0.7,-1.4 1.4,-1.9 5.4,-7 12.5,-12.5 20,-15.8 0.1,-0.7 -0.3,-1.6 -0.6,-2.5 -1.1,-0.2 -2.4,-0.5 -2.9,-1.7 -0.9,-3.6 2.5,-6.1 4.5,-8.7 1.7,-1.9 3.9,-3.4 5.7,-5.1 -0.1,-1.4 0.1,-2.6 0.4,-3.9 -0.7,-0.6 -2,-0.9 -2.7,-1.9 -1.1,0.3 -2.6,0.5 -3.5,-0.2 -1,-1.5 -3,-0.1 -4.1,-1.4 -0.7,-0.7 -1.7,0 -2.6,-0.1 -0.9,-0.3 -1.7,-0.5 -2.6,-1.1 -2.1,0.7 -4.5,0.1 -6.2,-1.2 -1.9,0.5 -3.5,-0.4 -5,-1.2 -2.2,0.7 -4.6,2.4 -7.2,1.2 -1.9,-0.6 -3.9,0 -5.6,0.5 -4.1,1.1 -8.1,2.5 -12.7,2.6 -1.7,0.1 -3.1,-1.1 -4.5,-1.9 -1.4,0.1 -3,0.6 -4.4,-0.1 l -1.7,-1.4 c -2.6,0.5 -5,-0.4 -6.7,-2.4 -1.4,-1.7 -3.7,-1.7 -5.4,-3.4 -0.3,-0.5 0.1,-0.9 0.6,-1 4.2,-0.6 8.4,-2 12.4,-3.2 0.4,-0.4 -0.1,-0.6 -0.3,-0.9 l 0.6,-0.4 c 4.5,-1 8.9,-2.6 13,-4.5 0,-0.1 -0.4,-0.4 -0.1,-0.6 3.7,-1.4 7.2,-3.2 10.7,-5.1 l 0.4,-0.4 c -0.1,-0.3 -0.6,-0.4 -0.3,-0.6 7.2,-3.2 14.3,-6.9 21.7,-10 4,-1.2 9.6,-3.4 13.2,0.3 1.4,1.7 2,4.2 1.1,6.5 -0.9,1.2 -1.6,2.9 -0.6,4.2 0.4,1.4 1.9,2.1 3.1,2.1 0.4,0.1 0.6,-0.2 0.5,-0.5 -0.9,-4.9 0.4,-9.6 2.2,-13.7 0,-0.5 -0.5,-0.4 -0.7,-0.4 -1.4,0.2 -1.4,2.7 -3,1.9 -0.5,-0.4 -0.4,-1 -0.5,-1.6 -2.6,-1.9 -5.6,-3 -8.6,-4 -3.7,-2 -6,-6 -5.6,-10.2 0.4,-3 3.1,-5.9 5.9,-7.4 6.4,-3 13.9,-0.4 20.5,0.2 7.6,0.9 15,-0.6 21.8,-2 2.6,-0.3 5.5,0.1 6.9,2.6 0.4,0.9 1.4,0.4 2,0.3 1.7,-0.7 1.5,-3 2.1,-4.5 1,1.1 1.2,2.4 1.7,3.4 z"
         id="path3498" />
      <path
         d="m 235.9,106.225 c 1.5,2.5 -0.2,5.2 -1.4,7.4 -1.1,0.5 -2.4,-0.2 -3.6,-0.1 -4,0.5 -7.5,2.1 -11.7,2.1 -6,0.5 -11.4,-0.5 -17,-1.2 -3.5,-0.7 -8.9,-1.7 -11.4,1.6 -0.5,1 -0.5,2.5 0.1,3.5 0.3,0.9 1.7,1.4 1.6,2.2 l -2.7,1.2 c -3.2,-1.2 -6.2,-4.5 -6.4,-8.2 0.1,-2.7 1.6,-5.1 3.7,-6.7 6.5,-4.6 15.3,-1.2 22.7,-0.6 5.6,0.3 11.1,0 16.3,-1.2 3.1,-0.9 7.1,-1.9 9.8,0 z"
         id="path3500"
         style="fill:#ffffff" />
      <path
         d="m 242.8,108.225 1.9,-1.4 c 0.1,1.4 -0.6,2.7 -1,4.1 -0.7,1.7 -1.9,3.7 -3.9,4.5 -1.5,0.5 -3,-0.1 -4.2,-0.7 l -0.1,-0.2 c 1.1,-1.9 1.7,-4 2.5,-6.1 1.6,0.1 3.4,-0.7 4.1,-2.2 0.5,0.4 0.2,1.5 0.7,2 z"
         id="path3502"
         style="fill:#ffffff" />
      <path
         d="m 200.9,109.225 c 0,0.4 -0.4,0.5 -0.6,0.5 -0.5,0 -0.4,-0.5 -0.3,-0.7 0.3,-0.3 0.9,-0.2 0.9,0.2 z"
         id="path3504"
         style="fill:#ffffff" />
      <path
         d="m 216,124.425 c 2.9,4.7 2.4,11 5.2,15.7 -0.5,0.2 -1.1,-0.4 -1.7,-0.7 l -1.2,-1.9 c -0.6,0.6 -0.5,1.9 -1.4,2.5 -1.6,-1.2 0.5,-2.7 0.7,-4.1 l 0.2,-2 -1.5,-2.2 0.4,-3.4 c 0,-0.4 -0.6,-0.5 -0.9,-0.3 -0.7,0.6 -1.1,-1.1 -2,-0.7 -0.3,0.6 -0.5,1.5 -1.2,1.9 l -1.5,-1.4 c -0.6,0.2 -0.3,1.1 -0.6,1.5 -0.7,0.4 -1.1,1.9 -2,1.4 l -0.7,-1.1 c 0.6,-0.6 1,-1.6 0.5,-2.5 -1,-2 -4.2,-0.6 -4.6,-3.2 -0.5,-0.6 -1.1,0 -1.9,-0.1 0,1.1 1.6,1.9 2.5,2.6 1,0.6 3.1,0.3 3,1.9 -1,0.9 -1.5,-1.1 -2.5,-1 -2,0.2 -3.4,-1.7 -5.2,-0.7 l -1.4,1.2 c -0.4,-1.5 0,-3.2 1.1,-4.4 1.7,-1 4.1,-0.9 6,-0.6 0.9,0.9 0.7,2.5 2.2,2.6 0.9,0.1 1.5,-0.7 2.4,-0.9 0.5,0.3 1.1,0.1 1.6,-0.1 l 0.1,-0.1 c -1.4,-1.1 -3.6,-1 -5.1,-2.2 2.5,-0.7 5.1,0 7.2,1 z"
         id="path3506"
         style="fill:#ffd500" />
      <path
         d="m 197.4,124.025 -0.5,1.9 c -1.6,-0.7 -3.2,-1.6 -4.7,-2.5 0.9,-0.9 2.2,-1.5 3.6,-1 z"
         id="path3508"
         style="fill:#ffffff" />
      <path
         d="m 246.7,130.525 c 0.1,0.6 -0.7,0.7 -1.2,0.9 -1.5,0.5 -3,-0.1 -4.2,-1 -0.6,0.4 -1.1,1.5 -2.1,1.2 -1.1,0.1 -2,-1 -3,-1.1 -0.7,0.9 0.7,2.1 -0.7,2.6 -0.4,0.1 -1,0.1 -1,0.6 0.5,0.7 0.5,1.5 -0.1,2.2 l 0.5,1.6 c -0.6,0.6 -1,1.5 -1.2,2.5 -0.4,0.5 -1.4,0.1 -1.6,0.7 0.1,0.6 0.1,1.5 -0.6,1.6 -1.4,-0.4 -1,1.2 -1.9,1.5 -0.9,-1 -1.5,0.2 -2.1,0.6 -0.4,0.4 -0.7,-0.3 -1.1,-0.4 -0.6,0.4 -1.2,1.7 -2.1,0.6 -0.9,-1 -0.9,0.7 -1.5,0.7 l -1.9,-0.7 c -0.7,0.5 -1.6,2.1 -2.7,1.5 l -1.6,-0.7 c -0.5,0.6 -0.9,1.7 -1.7,2.1 l -2,-1.9 c -0.7,1 -1.9,1.6 -3,2.1 -0.9,-0.4 -1.5,-1.2 -2,-2.1 -1.1,0.4 -1.4,1.9 -2.5,2.4 -1,-0.5 -1.4,-1.6 -1.7,-2.6 -0.5,-0.1 -0.9,0.5 -1.5,0.3 -0.7,-0.1 -1.4,-0.7 -1.9,-1.2 -0.7,0.1 -1.6,1.1 -2.4,0.1 -0.1,-1.1 -1.1,-0.7 -1.9,-0.6 -0.6,-0.4 -1,-1.1 -1.9,-1.1 -0.4,-0.4 -0.4,-0.9 -0.5,-1.5 -0.4,-0.4 -1.4,-0.1 -1.4,-1 0.5,-0.6 0.1,-1.5 -0.5,-1.7 -0.4,-0.7 0.6,-1 0.4,-1.6 -0.4,-0.6 -1.7,-0.6 -1.2,-1.6 1,-0.6 0.4,-1.5 0,-2.2 0,-0.7 1.1,-1.2 0.6,-2.1 l -2.4,0.1 -2.2,-0.7 c -1.9,0.9 -4.9,1.6 -6.5,0 3.1,-1.7 6.9,-2.7 10.7,-2.6 1.4,0.3 2.6,0.9 3.5,2 0.9,1.4 1.4,3.1 0.9,4.9 l -1.4,2.5 c 0,1.6 0.5,3 1.5,4.2 1.6,1.5 4.1,1.5 6,0.7 0.5,-0.2 1.1,-0.7 1.5,0 0.6,-0.1 1.1,-0.7 1.7,-0.6 0.5,0.5 0.1,1.7 1,2 l 2,-1.2 c 0.5,0.4 0.6,1 1.1,1.2 l 1.4,-1.1 1,0.9 1.6,-1.5 1.4,1.6 c 0.9,-0.6 1,-1.9 1.9,-2.5 l 0.7,0.7 2,-1.9 c 2.6,1.9 6,3 9.1,2 1,-0.4 2.1,-1.2 2.4,-2.2 0.7,-2.4 -1.1,-4.5 0,-6.7 1,-3 3.6,-5.1 6.7,-5.4 3.6,-0.3 6.5,1.4 9.6,2.9 z"
         id="path3510"
         style="fill:#ffd500" />
      <path
         d="m 203.1,128.525 c -1.4,3.6 -2.1,8.1 -1,12 -0.6,0.5 -1.4,0.9 -2.1,0.9 -1.2,-4.6 0.1,-9.6 2.2,-13.5 0.4,0 0.9,0.1 0.9,0.6 z"
         id="path3512"
         style="fill:#ffffff" />
      <path
         d="m 215.6,130.025 c -0.1,1.2 -0.6,2.6 -1.5,3.5 -0.6,-1 -1.1,-2.5 -0.4,-3.7 0.4,-1.2 1.5,-0.5 1.9,0.2 z"
         id="path3514"
         style="fill:#ffd500" />
      <path
         d="m 208.5,132.025 c 0.4,1 0.1,2.2 -0.9,2.7 -1.6,-0.9 -1,-2.7 -1.6,-4.1 l -0.4,-1.1 c 1.3,0.4 1.9,1.8 2.9,2.5 z"
         id="path3516"
         style="fill:#ffd500" />
      <path
         d="m 205.4,133.625 c -0.4,2.1 -0.6,4.4 -2.2,5.9 -1,-3 -0.4,-6.9 0.9,-9.6 1.2,0.6 1.3,2.2 1.3,3.7 z"
         id="path3518"
         style="fill:#e53138" />
      <path
         d="m 212.2,131.325 c 0,1.1 -0.7,2.2 -1.7,2.7 -0.7,-0.4 -1,-1.4 -0.9,-2.1 l 1.7,-1.9 c 0.8,0 0.8,0.8 0.9,1.3 z"
         id="path3520"
         style="fill:#ffd500" />
      <path
         d="m 180.2,132.125 c -2.5,1.7 -5.4,2.6 -8.1,3.9 0.3,0.5 1,0.4 1.5,0.4 2.6,-0.9 5.1,-2 7.5,-3 l 0.2,1.2 c -4.7,3 -10,4.9 -16.1,4.9 -1,-0.1 -2.1,-0.1 -2.9,-0.6 5.1,-2.9 10.6,-5.2 16,-7.7 0.7,0.1 1.4,0.6 1.9,0.9 z"
         id="path3522"
         style="fill:#ffd500" />
      <path
         d="m 251,132.625 c 3.1,2 6.5,3.4 9.6,5.4 -5.1,1.6 -10.7,-0.1 -14.5,-3.5 l 0.3,-1.4 c 1.9,0.7 3.6,2.5 5.7,2.5 -1.4,-1.6 -3.5,-2 -5,-3.6 l 0.7,-0.7 z"
         id="path3524"
         style="fill:#ffd500" />
      <path
         d="m 189.4,132.425 c 0.1,0.6 0.3,1.5 0.5,2.1 -0.4,0.7 -0.6,1.9 0.1,2.6 0.1,0 0.4,0.2 0.3,0.5 -1.2,0.2 -3.1,0.1 -4,-1 -0.1,-0.7 0.4,-1.5 0.1,-2.1 -1.2,0.1 -2.9,0.6 -4.1,-0.1 -0.2,-0.6 -0.1,-1.1 0.1,-1.7 1.4,-0.5 2.9,-0.4 4.1,-1 z"
         id="path3526"
         style="fill:#ffd500" />
      <path
         d="m 245.2,132.625 c 0.2,0.2 0.2,1 0,1.2 -1.6,0.9 -3.6,0.2 -5,-0.7 l -0.3,-0.3 c 0.3,-0.5 0.9,-0.6 1.2,-1 1.5,0.3 2.6,1 4.1,0.8 z"
         id="path3528"
         style="fill:#ffd500" />
      <path
         d="m 240.4,134.925 c -1.1,1 -3,1.2 -4.4,0.7 -0.4,-0.4 -0.2,-0.9 -0.4,-1.4 0.7,-0.5 1.1,-1.2 1.5,-1.9 1.3,0.5 2.3,1.6 3.3,2.6 z"
         id="path3530"
         style="fill:#ffd500" />
      <path
         d="m 216.9,134.325 c -0.1,1 -0.4,2.1 -1.2,2.7 -0.5,-0.5 -0.9,-1.1 -0.7,-1.9 -0.1,-0.7 0.5,-1.2 0.9,-1.9 0.5,0.1 0.7,0.7 1,1.1 z"
         id="path3532"
         style="fill:#ffd500" />
      <path
         d="m 213.7,135.125 c 0.1,1 -0.3,1.7 -0.6,2.5 -0.7,0.1 -1.4,-0.7 -1.9,-1.2 -0.5,-1.2 0.7,-1.9 1.2,-2.7 0.8,0.2 1,0.9 1.3,1.4 z"
         id="path3534"
         style="fill:#ffd500" />
      <path
         d="m 210.2,135.825 c -0.1,0.7 -0.1,1.7 -0.9,2 -0.5,-0.4 -1.2,-0.9 -1.1,-1.6 0.1,-0.5 0.6,-0.9 1,-1.2 0.5,-0.1 0.9,0.4 1,0.8 z"
         id="path3536"
         style="fill:#ffd500" />
      <path
         d="m 243.3,135.425 c 0.1,2.5 -3,1.7 -3.9,3.7 l -2.2,0.6 c 0.1,1.2 -1.2,1.5 -2.1,1.9 0,1 0,2.4 -1.1,2.7 -2,-0.4 -1,2.5 -3,2.5 -1,0.3 -1.9,-1.2 -2.7,-0.1 -0.4,1 -1,2.2 -2.1,2.6 -1,0.1 -2,-0.1 -2.7,-0.6 0.2,-0.9 -0.6,-2 0.4,-2.6 0.7,-0.1 0.7,0.7 0.7,1.2 0,0.3 0.1,0.7 0.5,0.7 1.1,-0.4 0.1,-2.1 1.2,-2.5 0.5,0.3 1.1,0.1 1.6,0 0.6,-1.4 2.5,-0.1 2.9,-1.7 1.1,-0.5 2.1,-1.2 2.5,-2.5 1.2,-0.3 1.4,-1.6 1.9,-2.4 0.7,-0.5 0.2,-1.9 1,-2.1 2.1,0.3 4.2,-0.1 5.7,-1.6 z"
         id="path3538"
         style="fill:#ffd500" />
      <path
         d="m 207.2,137.125 c -0.5,1.1 -1.6,2.5 -2.7,2.7 0.9,-1.4 1.1,-3.1 1.9,-4.5 0.6,0.5 0.7,1.2 0.8,1.8 z"
         id="path3540"
         style="fill:#ffd500" />
      <path
         d="m 255.8,139.625 v 0.2 c -3.9,1.6 -9.1,0.5 -12.9,-1.2 -0.3,-0.6 0.6,-0.7 0.9,-1.1 1.7,0.9 3.6,1.7 5.6,1.7 -1.4,-1.2 -3.5,-1.5 -4.9,-2.9 -0.1,-0.4 0,-0.9 0.5,-1 3.3,2.2 6.7,4.2 10.8,4.3 z"
         id="path3542"
         style="fill:#ffd500" />
      <path
         d="m 183.5,135.925 c -1.6,1.4 -3.6,2 -5.4,3.2 v 0.1 c 2.7,0.2 4.6,-1.7 6.9,-2.7 0.5,0.1 0.4,0.7 0.6,1 l -0.1,0.4 c -4.4,2.9 -10.5,5.1 -15.7,2.6 v -0.2 c 4.4,-1 8.6,-2.5 12.4,-4.7 0.5,-0.1 1.1,-0.1 1.3,0.3 z"
         id="path3544"
         style="fill:#ffd500" />
      <path
         d="m 215.1,138.425 c 0,1.2 -0.5,2.5 -1.2,3.2 -0.5,-0.6 -0.9,-1.7 -0.5,-2.5 l 1.1,-1.5 c 0.2,0.2 0.6,0.5 0.6,0.8 z"
         id="path3546"
         style="fill:#ffd500" />
      <path
         d="m 212.1,139.625 c -0.1,0.7 -0.5,1.4 -1.1,1.9 -0.7,-0.5 -0.7,-1.5 -0.9,-2.4 0.2,-0.5 0.5,-1 0.9,-1.2 0.6,0.2 1.4,0.9 1.1,1.7 z"
         id="path3548"
         style="fill:#ffd500" />
      <path
         d="m 209,139.025 c -0.3,1 1,1.9 0,2.7 h -0.5 c -0.4,-1 -1.4,-2.2 -0.7,-3.2 0.4,-0.4 0.9,0.1 1.2,0.5 z"
         id="path3550"
         style="fill:#ffd500" />
      <path
         d="m 190.3,139.125 c -0.4,0.7 -1.5,0.7 -2.4,0.9 -0.5,-0.1 -1.4,-0.3 -1.4,-0.9 -0.1,-0.4 0.1,-0.6 0.5,-0.7 1,0.5 2.4,0.1 3.3,0.7 z"
         id="path3552"
         style="fill:#ffd500" />
      <path
         d="m 252.9,141.925 c -4.2,1.5 -9.7,1 -13.5,-1.2 0.6,-0.4 0.9,-1.4 1.6,-1.7 3.6,1.9 8,2.6 11.9,2.9 z"
         id="path3554"
         style="fill:#ffd500" />
      <path
         d="m 273.1,144.625 c 0.1,0.5 -0.5,0.5 -0.9,0.6 -5.6,0.5 -10.5,-1.7 -15,-4.5 -0.1,-0.4 0.6,-0.6 0.9,-0.7 2.6,1.2 5.1,3.2 8.1,3.1 -1.9,-1.6 -4.5,-2 -6.4,-3.5 0.2,-0.5 1,-0.3 1.5,-0.5 4,1.8 7.8,3.6 11.8,5.5 z"
         id="path3556"
         style="fill:#ffd500" />
      <path
         d="m 187.7,141.025 c 0.4,0.5 -0.3,0.6 -0.5,0.9 -2.1,0.5 -4.7,1.4 -6.7,0 l 0.4,-0.4 c 1.6,-0.4 3,-1.5 4.5,-2.1 0.4,0.8 1.4,1.3 2.3,1.6 z"
         id="path3558"
         style="fill:#ffd500" />
      <path
         d="m 162,140.425 c -0.9,0.7 -2.2,1 -2.6,2.1 1.7,0.2 3,-1.1 4.5,-2 l 2.5,0.1 c -1.9,1.5 -4.4,2.5 -6.5,3.6 -2.6,0.9 -5.7,1.9 -8.4,0.9 l 0.6,-0.5 c 3.1,-1.5 6.1,-3 9.2,-4.7 0.3,0 0.9,0.1 0.7,0.5 z"
         id="path3560"
         style="fill:#ffd500" />
      <path
         d="m 207,141.025 c -0.1,0.5 -0.6,0.9 -1.1,0.9 -0.4,-0.5 -0.3,-1.5 0.5,-1.5 0.3,-0.2 0.5,0.3 0.6,0.6 z"
         id="path3562"
         style="fill:#ffd500" />
      <path
         d="m 191.4,141.625 0.7,0.6 c -0.5,0.4 -1.5,0.3 -2.1,0 -0.5,-0.2 -0.9,-0.6 -1,-1.1 0.4,-0.5 1.1,-0.7 1.7,-0.6 z"
         id="path3564"
         style="fill:#ffd500" />
      <path
         d="m 169.6,141.925 c -1.6,1.5 -3.9,2 -5.7,3.5 l 0.1,0.3 c 2.6,-0.4 5,-1.7 7.2,-3.2 0.5,0 1.1,0.1 1.4,0.4 -3.2,2.2 -6.9,4 -10.9,4.7 -1.9,0.1 -3.9,0.3 -5.2,-1 4.1,-1.2 8,-3.1 11.6,-5.5 0.6,0 1.2,0.3 1.5,0.8 z"
         id="path3566"
         style="fill:#ffd500" />
      <path
         d="m 241.7,142.725 c -0.4,1 -1.4,0.9 -2.2,1 -1.1,-0.1 -2,-0.6 -2.9,-1.1 0.3,-0.6 1,-0.9 1.5,-1.4 z"
         id="path3568"
         style="fill:#ffd500" />
      <path
         d="m 269.5,146.525 c -0.6,1.5 -2.4,1.6 -4,1.6 -4.9,0 -8.9,-1.9 -12.7,-4.1 l -0.5,-0.5 c 2.2,-1.9 4,1.6 6.4,1.9 1,0.4 2,0.6 3,0.7 v -0.4 c -2.1,-1.2 -4.6,-1.9 -6.5,-3.6 0.1,-0.3 0.5,-0.6 0.9,-0.7 4.2,2.3 8.4,4.7 13.4,5.1 z"
         id="path3570"
         style="fill:#ffd500" />
      <path
         d="m 178,142.425 c -0.6,1.1 -2,1.5 -3,2.2 -0.5,0.2 -1.5,0.4 -1.6,1.1 2.6,0.4 4.4,-1.7 6.4,-2.9 l 1.9,0.7 c -3,2.4 -6.5,3.7 -10.2,4.5 -1.5,0.1 -2.9,-0.1 -3.9,-1 l 0.3,-0.4 c 2.5,-1.1 5,-2.5 7.2,-4.1 1.1,0.2 2,-0.1 2.9,-0.1 z"
         id="path3572"
         style="fill:#ffd500" />
      <path
         d="m 190.8,143.625 c -0.4,0.6 -1.2,0.9 -2,1 -1.4,0.2 -2.7,-0.1 -3.6,-1 1.2,-0.4 2.6,-1.5 4,-0.7 z"
         id="path3574"
         style="fill:#ffd500" />
      <path
         d="m 249.7,147.425 c 0.1,-0.1 0.4,-0.1 0.5,-0.1 -0.3,0.6 0.7,0.9 1.2,1.2 -2.5,1.5 -6.1,0.7 -8.5,-0.7 -1.1,-0.6 -2.1,-1.5 -3,-2.5 0.3,-0.6 1.2,-0.6 2,-0.6 1.4,1.1 3.1,2 4.9,2.5 v -0.4 l -4,-3 c 0.4,-1 1.6,-0.1 2.4,0 1.5,1.2 2.8,2.6 4.5,3.6 z"
         id="path3576"
         style="fill:#ffd500" />
      <path
         d="m 260.3,148.625 0.1,0.1 c -3.4,1.2 -6.7,-0.5 -9.5,-1.9 -1.4,-0.7 -2.6,-1.6 -3.7,-2.7 v -0.2 c 1.4,0.1 2.9,-0.6 4,0.2 2.8,1.9 5.8,3.6 9.1,4.5 z"
         id="path3578"
         style="fill:#ffd500" />
      <path
         d="m 194.4,144.625 c -0.2,0.7 -1.1,1 -1.7,1.2 -0.7,0.2 -2,0.2 -2.4,-0.4 l 2.5,-1.7 c 0.6,0.2 1.2,0.3 1.6,0.9 z"
         id="path3580"
         style="fill:#ffd500" />
      <path
         d="m 238.6,144.925 c 0.1,0.6 -0.6,1.1 -1.1,1.4 -0.9,0.1 -1.5,-0.3 -2.1,-0.7 -0.5,-0.6 0.5,-1 0.6,-1.5 0.8,-0.4 1.7,0.4 2.6,0.8 z"
         id="path3582"
         style="fill:#ffd500" />
      <path
         d="m 184.2,144.625 c -0.9,1.2 -2.5,1.9 -3.7,2.7 0.2,0.6 1.5,0.3 2.1,0 l 2.7,-2 c 0.7,0.1 1.5,0.4 2.1,0.6 -3.5,3 -8.6,5.2 -13.2,3.1 l -0.1,-0.2 c 1.9,-0.9 4,-1.6 5.9,-2.6 l 3.4,-2.2 c 0.3,0.1 0.6,0.2 0.8,0.6 z"
         id="path3584"
         style="fill:#ffd500" />
      <path
         d="m 196.9,145.625 c 0,0.7 -0.7,1.2 -1.2,1.4 -0.6,0.1 -1.2,0.1 -1.7,-0.2 0.5,-0.5 1.2,-1.5 2.1,-1.6 0.3,-0.2 0.7,0.2 0.8,0.4 z"
         id="path3586"
         style="fill:#ffd500" />
      <path
         d="m 235.4,147.025 c 0,0.7 -0.6,1.4 -1.4,1.6 -0.6,0 -1.4,-0.4 -1.5,-1 0.5,-0.5 0.5,-2.1 1.6,-1.7 z"
         id="path3588"
         style="fill:#ffd500" />
      <path
         d="m 199.8,146.425 c -0.6,0.9 -1.5,2 -2.7,1.6 -0.3,-0.6 0.7,-1.1 1,-1.7 0.5,0.1 1.8,-0.9 1.7,0.1 z"
         id="path3590"
         style="fill:#ffd500" />
      <path
         d="m 287.6,151.125 c -2.9,1.5 -7,0.9 -10.2,0.4 -2.6,-0.6 -5.2,-1.7 -7.5,-3.2 0.1,-0.5 0.5,-1 1,-1.1 3,1.7 6.2,2.7 9.7,3.2 v -0.1 c -2.5,-1.7 -5.9,-1.9 -8.4,-3.7 0.7,-0.6 2,-0.6 2.9,0 4,1.9 8.5,2.9 12.5,4.5 z"
         id="path3592"
         style="fill:#ffd500" />
      <path
         d="m 222.2,147.425 c 0.1,1.4 -0.6,2.5 -1.4,3.5 -0.7,-0.2 -1.5,-1 -1.6,-1.7 v -1.6 c 0.7,-0.6 1.6,-2 2.6,-0.9 z"
         id="path3594"
         style="fill:#ffd500" />
      <path
         d="m 152,146.625 c -1.2,1.1 -3.4,0.9 -4.6,2.2 0.7,0.6 1.7,-0.1 2.6,-0.1 l 5,-1.6 c 0.1,0.1 0.6,0.2 0.5,0.6 -4.7,2.6 -10.7,4 -16.3,2.6 l 11.1,-4.1 c 0.5,0 1.2,0.3 1.7,0.4 z"
         id="path3596"
         style="fill:#ffd500" />
      <path
         d="m 192,147.225 c -1.2,1.9 -3.4,3.2 -5.5,4 -1.6,0.4 -3.5,0.3 -5,-0.5 2.1,-1.1 4.6,-1.9 6.5,-3.6 1.2,-1.9 2.5,0.5 4,0.1 z"
         id="path3598"
         style="fill:#ffd500" />
      <path
         d="m 245.2,150.125 c -0.5,0.6 -1.6,0.6 -2.6,0.7 -2.2,-0.1 -4.1,-1.7 -5.7,-3.2 0.3,-0.5 1,-0.1 1.5,-0.5 0.7,-0.9 1.6,-0.5 2.2,0.2 1.3,1.2 3,2.2 4.6,2.8 z"
         id="path3600"
         style="fill:#ffd500" />
      <path
         d="m 204,149.125 c -0.3,0.5 -0.4,1.5 -1.2,1.1 -1,-0.6 -1.9,-1.9 -1.7,-3.1 0.5,-0.4 1.1,-0.3 1.6,-0.3 z"
         id="path3602"
         style="fill:#ffd500" />
      <path
         d="m 218.1,148.425 c 0.5,1.2 -0.6,2.4 -1.5,3 -0.7,-0.6 -2.2,-1.1 -1.9,-2.4 1.1,-0.4 1.4,-2.2 2.6,-1.7 z"
         id="path3604"
         style="fill:#ffd500" />
      <path
         d="m 213.5,148.925 c 0,1.4 -0.9,2.4 -2,3.1 -1,-0.1 -1.6,-1.1 -2.1,-1.9 0.3,-1.5 2,-1.7 3.1,-2.6 0.6,0.1 0.9,0.9 1,1.4 z"
         id="path3606"
         style="fill:#ffd500" />
      <path
         d="m 166.6,148.125 c -1.1,1.4 -2.9,2 -4,3.2 2.1,0.7 3.5,-1.6 5.2,-2.5 0.5,0 0.9,0.1 1.2,0.4 -1.9,2 -4.5,3.2 -6.9,4.7 -2.6,2.2 -6.9,0.6 -10,1.9 -6.6,1.1 -12.5,4 -19.3,4.4 -1.5,-0.1 -2.9,-1 -3.7,-2.1 v -0.1 c 6.9,-0.2 12.9,-2.6 19.2,-4 2.7,-0.9 5.7,0.9 8,-1 l 9.5,-5.4 c 0.4,0 0.6,0.3 0.8,0.5 z"
         id="path3608"
         style="fill:#ffd500" />
      <path
         d="m 232,148.725 c -0.1,0.5 -0.6,0.9 -1.1,0.9 -0.9,0.1 -1.9,-0.3 -2.2,-1 0.1,-1.9 1.9,-0.4 2.9,-0.5 z"
         id="path3610"
         style="fill:#ffd500" />
      <path
         d="m 208.5,148.925 c -0.1,1 -0.2,2.1 -1.2,2.6 -0.7,-0.3 -1.4,-1 -1.7,-1.6 0.5,-0.9 1.1,-2.2 2.1,-2.1 z"
         id="path3612"
         style="fill:#ffd500" />
      <path
         d="m 196.3,149.025 c -2,1.9 -4.2,4 -7,4.5 -1.2,0 -2.6,0 -3.5,-0.9 0.6,-0.4 1.7,-0.3 2.4,-0.9 1.9,-1 3.6,-2.2 5.1,-3.9 0.8,0.7 2.3,-0.1 3,1.2 z"
         id="path3614"
         style="fill:#ffd500" />
      <path
         d="m 200.3,150.125 c -2.2,2.4 -5,6 -8.7,4.7 -0.3,0 -0.5,-0.1 -0.6,-0.5 2.5,-1.5 5,-3.5 7.5,-5.5 l 1.5,-0.7 c 0.1,0.6 0.9,1.4 0.3,2 z"
         id="path3616"
         style="fill:#ffd500" />
      <path
         d="m 161.3,148.725 c -2,1.5 -4.4,2.7 -6.7,3.7 -1.6,0.7 -3.4,-0.3 -5.1,0.3 -6.9,1.1 -13,3.9 -20.2,4 -1.6,0 -3.1,-0.4 -4.2,-1.4 l 0.5,-0.3 c 4.2,-1.1 8.6,-2.1 12.6,-3.6 6.7,1.4 13.5,0 19,-3.2 1.1,0.5 2.8,0.5 4.1,0.5 z"
         id="path3618"
         style="fill:#ffd500" />
      <path
         d="m 240.6,151.625 c -0.1,0.7 -1,1.4 -1.7,1.6 -2,-0.3 -3.7,-1.6 -5,-3.2 0.6,-0.4 1.5,-0.6 2.1,-1.2 1.6,0.7 2.9,1.9 4.6,2.8 z"
         id="path3620"
         style="fill:#ffd500" />
      <path
         d="m 273.6,151.425 c 4.2,1.7 9.7,2.4 14.3,1.1 4.1,1.4 8.6,2.2 13.2,2.5 0,0.9 -1,1.1 -1.6,1.5 -4,1.9 -9.2,0.6 -13.4,-0.1 l -9.2,-2.4 c -1.5,0 -2.6,0.6 -4,0.6 -3.9,-1.1 -7.4,-3.1 -10.7,-5.1 0.4,-0.9 1.4,-0.5 2,-0.1 3,1.6 6.1,3.6 9.7,3.2 -2.4,-1 -5,-1.7 -7.2,-3.1 0.1,-0.4 0.9,-0.5 1.5,-0.6 1.8,0.6 3.6,1.7 5.4,2.5 z"
         id="path3622"
         style="fill:#ffd500" />
      <path
         d="m 172.6,149.625 c -0.7,1.4 -2.4,1.9 -3.4,3.1 v 0.1 c 1.9,0.1 3.1,-1.5 4.6,-2.5 0.4,0 1,0.1 1.1,0.5 -3.1,3.1 -7,5.1 -10.9,6.7 -1.9,0.6 -3.4,-0.3 -5.2,-0.3 -4.5,0.7 -8.5,2.4 -13,3.2 -2.9,0.4 -5.6,1.5 -8.6,1 -0.3,-0.1 -0.4,-0.2 -0.5,-0.4 l 0.6,-0.5 c 6.1,-1.4 11.7,-3.5 18.1,-4.2 2.1,-0.1 4.4,0 6.2,-0.9 3.4,-1.7 6.6,-4 9.7,-6.4 0.5,0.5 1.1,0.1 1.3,0.6 z"
         id="path3624"
         style="fill:#ffd500" />
      <path
         d="m 271.3,158.125 c 2.5,-0.7 5.1,-0.4 7.5,0.4 l 10.1,2.6 v 0.3 c -4,1.4 -8.2,-0.1 -12,-1 -2.4,-0.5 -5,-1.9 -7.6,-1 -2.4,0.6 -4.2,-0.5 -6.1,-1.1 -5.1,-2 -9.6,-5.1 -14.5,-7.6 0.3,-0.4 1,-0.4 1.5,-0.3 3.1,1.7 6.4,3.6 9.9,4.6 0.2,0 0.5,0 0.6,-0.1 -2.6,-2.2 -6,-2.9 -8.7,-4.9 v -0.3 c 6.5,2.5 12.5,6.4 19.3,8.4 z"
         id="path3626"
         style="fill:#ffd500" />
      <path
         d="m 228.5,150.625 c -0.4,0.5 -1,0.7 -1.6,0.5 -0.1,-0.3 -0.5,-0.3 -0.5,-0.6 0.6,-0.4 2.1,-1.3 2.1,0.1 z"
         id="path3628"
         style="fill:#ffd500" />
      <path
         d="m 223.6,151.225 c -0.1,1 -0.1,2.1 -0.9,2.9 -0.9,0.1 -1,-0.9 -1.2,-1.5 0,-1 0.7,-2 1.5,-2.6 0.7,-0.1 0.6,0.7 0.6,1.2 z"
         id="path3630"
         style="fill:#ffd500" />
      <path
         d="m 272.5,155.625 c 2.1,0 4.5,-1.1 6.6,0 5.1,1.5 10.4,2.7 16,3 -0.1,0.6 -0.7,0.9 -1.2,1 -1.9,1 -4.4,0.4 -6.2,0 l -12,-3 c -1.5,-0.2 -2.9,0.3 -4.2,0.4 -5.2,-1.5 -9.9,-4.4 -14.7,-6.6 1,-0.1 2.2,0.1 3.2,-0.2 4.3,1.4 8,4.1 12.5,5.4 z"
         id="path3632"
         style="fill:#ffd500" />
      <path
         d="m 234.9,152.625 c 0.4,0.4 1.2,0.6 1,1.2 -0.4,0.9 -1.4,0.7 -2,0.4 -1.2,-0.7 -2.2,-2 -3.1,-3.1 0.2,-0.5 1,-0.6 1.5,-0.9 1,0.7 1.5,1.7 2.6,2.4 z"
         id="path3634"
         style="fill:#ffd500" />
      <path
         d="m 202.8,152.525 c -1.2,1.5 -2.1,4 -4.4,4.2 -1.1,0.3 -2,-0.2 -2.9,-0.6 l 0.1,-0.5 c 2.1,-1.2 4.1,-3.1 5.9,-5 0.5,0.6 2,0.8 1.3,1.9 z"
         id="path3636"
         style="fill:#ffd500" />
      <path
         d="m 220.3,152.225 c 0.1,1.1 0,2.6 -1,3.4 -1,-0.6 -2.4,-1.5 -2,-3 0.5,-0.6 0.9,-2.1 1.9,-1.6 z"
         id="path3638"
         style="fill:#ffd500" />
      <path
         d="m 206.4,152.625 c 0.3,1.1 -0.1,2 -0.9,2.6 -0.7,0.1 -1.1,-0.7 -1.5,-1.4 -0.5,-0.9 -0.1,-2.1 0.5,-2.9 0.4,-0.4 0.6,0.1 0.7,0.2 z"
         id="path3640"
         style="fill:#ffd500" />
      <path
         d="m 247.3,151.125 c 6.2,3 12.1,7.4 18.8,9.2 2,0.5 3.7,-0.2 5.9,-0.1 l 8.9,2.4 c -2.6,1.2 -6.2,1.1 -9,0.7 -3,-0.5 -6,-1.9 -9.2,-1 -1.4,0.6 -2.5,-0.2 -3.6,-0.7 l -15.1,-9.5 c 0.6,-0.5 1.6,-0.6 2.4,-1.2 z"
         id="path3642"
         style="fill:#ffd500" />
      <path
         d="m 179.9,151.525 c -3.6,4.5 -8.5,7.7 -13.9,9.1 -2.1,-0.4 -4.6,-1 -6.9,-0.1 -4.5,1.1 -8.7,2.9 -13.7,3 -0.9,-0.2 -1.9,-0.4 -2.4,-1 3,-0.7 6.2,-1.5 9.2,-2.4 2.9,-0.7 5.9,-2.1 9,-1.4 3.4,0.7 6,-1.4 8.7,-2.7 2.4,-1.4 4.5,-3.1 6.6,-4.9 1.1,0.1 2.2,-0.1 3.4,-0.1 z"
         id="path3644"
         style="fill:#ffd500" />
      <path
         d="m 216.2,153.425 c 0,1.2 -0.9,2 -1.9,2.7 -1.2,-0.5 -1.9,-1.9 -2.1,-3.1 0.5,-0.7 1.2,-1.1 1.7,-1.9 1.1,0.4 2.3,1 2.3,2.3 z"
         id="path3646"
         style="fill:#ffd500" />
      <path
         d="m 233.6,155.325 c 0.4,0.7 -0.6,1.1 -1.2,1.4 -1.9,-0.6 -3.1,-2.7 -4.1,-4.4 0.1,-0.5 0.7,-0.6 1.1,-1 1.4,1.3 2.6,2.9 4.2,4 z"
         id="path3648"
         style="fill:#ffd500" />
      <path
         d="m 211.5,153.825 c -0.1,1.2 -1.6,1.9 -2.5,2.4 -1,-0.9 -1.7,-2.1 -1.4,-3.4 l 1.1,-1.1 c 1.2,0.4 2.2,1.2 2.8,2.1 z"
         id="path3650"
         style="fill:#ffd500" />
      <path
         d="m 182.8,152.625 c -1.2,1.9 -3.1,3.2 -4.7,4.7 0.6,0.3 1.5,-0.4 2.2,-0.7 1.4,-0.7 2.5,-2.4 3.7,-3.4 0.2,0.1 0.6,0.2 0.7,0.5 -2.4,2.6 -5.1,5.5 -8.5,6.5 -1.4,0.4 -3,0.1 -4,-0.7 1.2,-1.2 3,-1.9 4.4,-3.2 l 4.5,-4.2 c 0.7,-0.1 1.4,0 1.7,0.5 z"
         id="path3652"
         style="fill:#ffd500" />
      <path
         d="m 227,152.425 c 0.9,1.6 2,3.2 3.5,4.5 0.1,0.4 -0.4,0.9 -0.7,0.7 -2.2,-0.9 -3,-3.4 -4,-5.4 l 0.1,-0.2 z"
         id="path3654"
         style="fill:#ffd500" />
      <path
         d="m 242.4,152.625 c 3.4,1.9 6.6,3.7 9.7,6.1 -0.1,0.7 -1.4,0.7 -2,1 -3.9,-0.2 -7,-3.4 -9.7,-6.1 0.5,-0.5 1.2,-1.5 2,-1 z"
         id="path3656"
         style="fill:#ffd500" />
      <path
         d="m 227.8,157.825 c 0.1,0.4 -0.4,0.6 -0.6,0.7 -1.4,0.3 -1.5,-1.4 -2,-2.1 -0.1,-1.2 -1.4,-2.5 -0.5,-3.6 1,1.7 1.8,3.4 3.1,5 z"
         id="path3658"
         style="fill:#ffd500" />
      <path
         d="m 239.3,154.325 c 2.9,2.1 5.5,5 8.7,6.4 -0.4,0.6 -1.2,0.6 -1.9,0.6 -3.5,-1 -5.6,-4.2 -8.2,-6.7 0.3,-0.3 0.9,-0.4 1.4,-0.3 z"
         id="path3660"
         style="fill:#ffd500" />
      <path
         d="m 188,154.625 c -0.5,2.4 -2.1,4.5 -4.1,6 -1.6,1.1 -4.1,1.7 -5.9,0.6 l -0.1,-0.1 c 3,-1.9 5.6,-4.4 8.2,-6.7 z"
         id="path3662"
         style="fill:#ffd500" />
      <path
         d="m 222,156.825 c 0.4,1.7 -1.6,0.7 -2.4,1.5 -0.4,0.1 -0.6,0.6 -1.1,0.7 -0.1,-0.4 -0.2,-1 0.1,-1.5 0.1,-0.4 0.5,-0.1 0.7,-0.1 l 1.9,-2.5 c 0.8,0.3 0.6,1.3 0.8,1.9 z"
         id="path3664"
         style="fill:#ffd500" />
      <path
         d="m 191.2,157.025 c -1,2.2 -2.7,5.2 -5.5,5.6 -0.7,0 -1.4,0 -1.7,-0.5 2.4,-1.7 4.2,-4.5 5.6,-7 0.4,0.6 2.4,0.5 1.6,1.9 z"
         id="path3666"
         style="fill:#ffd500" />
      <path
         d="m 236.9,155.325 c 2.4,2.1 4.5,4.7 7,6.4 0.2,0.5 -0.5,0.9 -1,1 -2.2,0.5 -3.7,-2.1 -5.2,-3.5 l -2.5,-3.4 c 0.4,-0.3 1.1,-0.8 1.7,-0.5 z"
         id="path3668"
         style="fill:#ffd500" />
      <path
         d="m 223.7,155.225 c 0,1.2 2.1,2.9 0.3,3.6 -0.5,0.1 -1,-0.3 -1,-0.7 0.7,-1 -0.9,-2.6 0.7,-2.9 z"
         id="path3670"
         style="fill:#ffd500" />
      <path
         d="m 202.4,157.125 -2.2,1 c -0.1,-1.2 1.6,-1.9 2.2,-2.9 0.2,0.5 0,1.3 0,1.9 z"
         id="path3672"
         style="fill:#ffd500" />
      <path
         d="m 218,156.125 c -0.2,1.1 -0.9,2.1 -1.7,3 -0.6,-0.2 -1.2,-0.6 -1.6,-1.2 0.6,-1 1.5,-1.7 2.4,-2.6 0.3,0 0.6,0.4 0.9,0.8 z"
         id="path3674"
         style="fill:#ffd500" />
      <path
         d="m 204.9,156.725 c 0,0.5 0.4,1.1 0,1.4 l -1.4,-0.7 c -0.1,-0.6 0.1,-1.1 0.3,-1.6 0.5,0 1,0.4 1.1,0.9 z"
         id="path3676"
         style="fill:#ffd500" />
      <path
         d="m 208.7,157.725 -1.2,2 c -0.7,0 -0.9,-1 -1.2,-1.5 -0.4,-0.7 -0.4,-2 0.6,-2.5 0.8,0.4 1.2,1.4 1.8,2 z"
         id="path3678"
         style="fill:#ffd500" />
      <path
         d="m 213.5,157.125 c -0.2,1.1 -0.9,2.1 -1.9,2.7 -1,-0.5 -1.6,-1.7 -1.6,-2.7 0.9,-0.4 1.7,-2.1 2.7,-1 z"
         id="path3680"
         style="fill:#ffd500" />
      <path
         d="m 193,156.525 c 0.3,1.4 -0.6,2.5 -1.1,3.6 0.4,0.4 0.7,-0.1 1.1,-0.3 0.7,-0.9 0.9,-1.9 1.2,-2.9 0.3,-0.3 0.6,0 0.7,0.4 -0.6,2.4 -2,5.2 -4.7,6.1 -0.7,0.1 -1.6,0 -2,-0.6 1.9,-1.6 3.5,-3.9 4.1,-6.2 0.2,-0.3 0.5,-0.3 0.7,-0.1 z"
         id="path3682"
         style="fill:#ffd500" />
      <path
         d="m 239.2,162.325 c 0.3,0.1 0.7,0.6 0.1,0.9 -0.7,0.6 -2,0.4 -2.9,0.1 -2.1,-1.1 -3,-3.5 -4.1,-5.4 0.5,-0.4 1.2,-0.4 1.9,-1 1.9,1.6 3,3.7 5,5.4 z"
         id="path3684"
         style="fill:#ffd500" />
      <path
         d="m 196.8,158.225 -1,3.4 c 0.9,0 1.4,-1.2 1.7,-2 0.4,-0.5 0.1,-1.6 0.9,-1.7 0.6,0.5 0.1,1.4 0,2 -0.9,2.1 -2.6,4.7 -5.1,4.9 -0.5,0 -1,-0.2 -1.2,-0.6 0.5,-0.7 1.5,-1.2 2,-2 1.1,-1.4 1.4,-3.1 2.2,-4.4 0.3,-0.2 0.7,0 0.5,0.4 z"
         id="path3686"
         style="fill:#ffd500" />
      <path
         d="m 231.2,158.325 c 1.2,1.9 2.1,4 4,5.6 -0.3,0.5 -0.7,0.6 -1.2,0.6 -1.6,0.1 -2.2,-1.7 -2.9,-2.7 l -1.7,-2.9 c 0.3,-0.3 1.2,-0.4 1.8,-0.6 z"
         id="path3688"
         style="fill:#ffd500" />
      <path
         d="m 205.6,160.325 c 1.4,1.6 2.1,3.6 2,5.9 l -0.1,0.1 c -1,-1.1 -1.6,-2.5 -2.6,-3.5 -0.7,0.3 -0.7,1.2 -1.6,1.5 -0.5,-1.1 -0.7,-2.6 -1.4,-3.7 l -1.5,0.6 c 0,-0.9 0.7,-2.1 1.7,-2.5 1.5,-0.2 2.7,0.6 3.5,1.6 z"
         id="path3690"
         style="fill:#ffd500" />
      <path
         d="m 223.8,161.025 c -0.1,0.4 -0.7,0.1 -1,0.3 -0.1,1.4 -0.1,2.9 -1.1,3.7 l -1.6,-1.6 -2.4,2.6 c 0,-2.4 0.5,-5.2 2.7,-6.7 0.6,-0.4 1.5,0 2.1,0.4 0.6,0.3 1.1,0.6 1.3,1.3 z"
         id="path3692"
         style="fill:#ffd500" />
      <path
         d="m 215.2,160.125 c -0.1,1 -0.9,2 -1.7,2.5 -0.6,-0.2 -1,-1 -1.2,-1.6 0.7,-0.5 1.6,-3 2.9,-1.2 z"
         id="path3694"
         style="fill:#ffd500" />
      <path
         d="m 210.6,161.725 c -0.4,0.6 -0.7,1.7 -1.7,1.7 -0.6,-0.5 -1,-1.2 -1,-2 0.4,-0.7 0.7,-1.7 1.6,-2.2 0.5,0.6 2,1.5 1.1,2.5 z"
         id="path3696"
         style="fill:#ffd500" />
      <path
         d="m 231.3,164.625 c -0.3,0.6 -1.4,0.6 -1.9,0.1 -1.4,-1.4 -2.2,-3.2 -3,-5 0.6,0.1 1.2,-0.6 1.9,-0.2 z"
         id="path3698"
         style="fill:#ffd500" />
      <path
         d="m 217.7,160.625 c -0.1,0.3 -0.1,0.6 -0.5,0.7 l -0.6,-0.7 c 0,-0.6 1.4,-1.1 1.1,0 z"
         id="path3700"
         style="fill:#ffd500" />
      <path
         d="m 227.8,164.725 c -0.1,0.5 -0.6,0.9 -1,1.1 l -0.4,-0.1 c -0.3,-2 -1.4,-3.7 -1.7,-5.7 l 0.1,-0.1 c 1.4,1.3 2,3.2 3,4.8 z"
         id="path3702"
         style="fill:#ffd500" />
      <path
         d="m 198.8,162.125 c 0.5,1.4 -0.5,2.5 -0.6,3.7 -0.7,0.1 -1.2,-0.3 -1.7,-0.7 v -0.5 c 0.9,-0.6 1.4,-1.9 2.3,-2.5 z"
         id="path3704"
         style="fill:#ffd500" />
      <path
         d="m 216.7,163.525 c 0,1 0,2.1 -1,2.6 -0.6,-0.6 -1.2,-1.5 -1.2,-2.4 0.4,-0.6 0.7,-1.7 1.5,-1.4 z"
         id="path3706"
         style="fill:#ffd500" />
      <path
         d="m 202.3,165.725 c -0.5,0.6 -1,1.4 -1.7,1.6 -0.9,-0.7 -1.4,-2 -0.9,-3.1 0.1,-0.7 0.9,-1.4 1.5,-1.9 0.8,0.8 0.8,2.2 1.1,3.4 z"
         id="path3708"
         style="fill:#ffd500" />
      <path
         d="m 212.7,163.625 c -0.1,0.9 -0.7,1.7 -1.4,2.2 -0.5,-0.3 -1.1,-0.6 -1.4,-1.2 l 1.6,-2.1 c 0.6,0.1 1.1,0.6 1.2,1.1 z"
         id="path3710"
         style="fill:#ffd500" />
      <path
         d="m 225.2,165.325 c 0.1,1 0,1.9 -0.5,2.6 h -0.4 l -1.5,-2.4 1.1,-3 c 1.1,0.6 1.2,1.7 1.3,2.8 z"
         id="path3712"
         style="fill:#ffd500" />
      <path
         d="m 206.2,166.925 c -0.1,0.9 -0.4,1.9 -1.2,2.5 -1,-0.6 -1.1,-2.1 -1.4,-3.2 0.4,-0.5 0.7,-1.6 1.5,-1.2 z"
         id="path3714"
         style="fill:#ffd500" />
      <path
         d="m 214.5,166.825 c -0.3,0.5 -0.6,1.4 -1.4,1.1 -0.4,-0.5 -1.2,-1.2 -0.4,-1.9 l 0.7,-0.9 c 0.7,0.4 1,1.1 1.1,1.7 z"
         id="path3716"
         style="fill:#ffd500" />
      <path
         d="m 221,166.125 c -0.1,1.5 -1,2.7 -2,3.9 -0.6,-0.5 -0.7,-1.4 -0.7,-2.1 0.3,-1 1.5,-4.2 2.7,-1.8 z"
         id="path3718"
         style="fill:#ffd500" />
      <path
         d="m 209.7,167.925 c -0.4,0.3 -0.7,0 -1,-0.4 -0.3,-0.6 -0.1,-1.5 0.1,-2.2 1.2,0.5 2.1,1.6 0.9,2.6 z"
         id="path3720"
         style="fill:#ffd500" />
      <path
         d="m 223.7,169.225 c -0.3,1.6 -1,3 -1.7,4.4 -0.9,0.3 -1,-0.9 -1.2,-1.5 l -0.2,-1.9 1.5,-3.1 c 0.6,0.3 1.2,1.3 1.6,2.1 z"
         id="path3722"
         style="fill:#ffd500" />
      <path
         d="m 204,170.425 c -0.3,0.7 -0.7,1.5 -1.6,1.6 -0.5,-1.2 -1.6,-2.5 -1,-3.9 l 1.1,-0.9 c 0.6,1 0.9,2.2 1.5,3.2 z"
         id="path3724"
         style="fill:#ffd500" />
      <path
         d="m 207.4,171.325 c -0.5,0.4 -0.7,-0.5 -1.1,-0.7 0.1,-1 0.7,-1.9 1.1,-2.9 0.6,1 0.3,2.5 0,3.6 z"
         id="path3726"
         style="fill:#ffd500" />
      <path
         d="m 199.9,168.625 c -0.4,0.7 -0.7,1.7 -1.4,2 0,-1 0,-2 0.5,-2.7 0.5,-0.1 0.8,0.4 0.9,0.7 z"
         id="path3728"
         style="fill:#ffd500" />
      <path
         d="m 212.4,168.725 c 0,0.5 -0.5,1 -0.9,1.2 -0.4,-0.1 -0.6,-0.4 -0.9,-0.9 0.1,-0.5 0.4,-0.9 0.6,-1.2 0.7,0 0.8,0.6 1.2,0.9 z"
         id="path3730"
         style="fill:#ffd500" />
      <path
         d="m 216,168.825 c 0,0.9 0,1.9 -0.9,2.4 -0.6,-0.1 -1.1,-0.7 -1.4,-1.4 0,-0.7 1,-1.1 1.5,-1.7 0.4,-0.2 0.7,0.3 0.8,0.7 z"
         id="path3732"
         style="fill:#ffd500" />
      <path
         d="m 225.6,170.925 c -0.9,-0.4 -0.5,-1.4 0,-1.9 h 0.1 c 0.1,0.6 0.4,1.4 -0.1,1.9 z"
         id="path3734"
         style="fill:#ffd500" />
      <path
         d="m 211,171.325 c 0,0.6 -0.4,1 -0.7,1.4 -0.6,0.2 -1.1,-0.5 -1.6,-0.9 0,-0.6 0,-1.6 0.5,-2.1 0.7,0.2 1.3,1 1.8,1.6 z"
         id="path3736"
         style="fill:#ffd500" />
      <path
         d="m 217.7,170.425 -0.5,1 c -0.5,-0.3 -0.1,-1 -0.1,-1.5 0.4,-0.3 0.6,0.3 0.6,0.5 z"
         id="path3738"
         style="fill:#ffd500" />
      <path
         d="m 201.5,173.225 c -0.6,1 -1.4,2.1 -2.4,2.6 -0.7,-0.6 -0.2,-1.9 -0.2,-2.6 0.2,-1 0.6,-2 1.4,-2.6 0.7,0.6 1,1.7 1.2,2.6 z"
         id="path3740"
         style="fill:#ffd500" />
      <path
         d="m 214.1,172.225 c -0.1,0.5 -0.4,1 -0.9,1.2 -0.7,-0.5 -1,-1.4 -1.1,-2.1 0.9,-1.5 1.5,0.5 2,0.9 z"
         id="path3742"
         style="fill:#ffd500" />
      <path
         d="m 207,174.625 c -0.1,0.6 -0.6,1.4 -1.1,1.9 -0.5,-0.9 -1.2,-1.7 -2,-2.6 v -1 l 1.1,-1.6 c 1.1,0.6 2,1.9 2,3.3 z"
         id="path3744"
         style="fill:#ffd500" />
      <path
         d="m 225.2,175.425 -0.1,0.3 c -0.7,-0.6 -1.4,-1.4 -1.6,-2.2 l 0.9,-1.7 c 0.8,0.8 1.1,2.4 0.8,3.6 z"
         id="path3746"
         style="fill:#ffd500" />
      <path
         d="m 219.8,173.325 c -0.2,0.7 -0.7,1.5 -1.4,2 -0.5,-0.5 -0.5,-1.2 -0.5,-1.9 l -0.2,-0.1 c 0.2,-0.4 0.6,-1.7 1.7,-1.6 z"
         id="path3748"
         style="fill:#ffd500" />
      <path
         d="m 233.4,178.125 c 1.7,1.7 3.2,4 2.5,6.5 -0.4,0.7 -1.1,1.4 -1.9,1.5 -1.4,0.2 -2.5,-0.6 -3.4,-1.5 -1.9,-1.9 -3.6,-4 -5,-6 0,-0.7 0.2,-1.4 0.6,-1.9 l 0.4,0.1 c 2.2,1.7 4,5 6.6,5.7 l -0.1,-0.6 -6.7,-7.1 c -0.3,-1 0.1,-2.1 0.5,-2.9 2.4,1.7 4.7,3.9 6.5,6.2 z"
         id="path3750"
         style="fill:#ffd500" />
      <path
         d="m 216.1,172.825 c 0.5,1.2 1.1,2.5 1.6,3.7 0,0.3 -0.1,0.4 -0.4,0.4 -1,-1.1 -1.5,-2.5 -2,-3.9 l 0.4,-0.5 z"
         id="path3752"
         style="fill:#ffd500" />
      <path
         d="m 197.6,175.225 c -2.6,2.5 -5.7,4.9 -7.1,8.1 0,0.2 0.4,0.1 0.5,0.1 2.1,-2.4 4.4,-4.9 6.9,-6.7 0.7,0.6 0.5,1.7 0.6,2.7 -2.6,2.6 -5.4,6.7 -9.5,6 -1.1,-0.4 -1,-1.9 -0.7,-2.9 2.1,-3.7 5.7,-7.5 9.5,-9.7 z"
         id="path3754"
         style="fill:#ffd500" />
      <path
         d="m 209.5,174.125 c -0.7,4.1 -3,7.7 -5.4,11.1 -0.2,0.2 -0.6,0.4 -0.9,0.1 -0.6,-0.6 -0.1,-1.7 0.1,-2.4 2,-0.9 3,-2.9 2.9,-5 0.9,-1.5 2.5,-2.7 1.7,-4.6 v -0.4 c 0.6,0.2 1.2,0.7 1.6,1.2 z"
         id="path3756"
         style="fill:#ffd500" />
      <path
         d="m 211.7,173.725 -0.1,0.1 -0.2,-0.4 c 0.2,0 0.3,0.2 0.3,0.3 z"
         id="path3758"
         style="fill:#ffd500" />
      <path
         d="m 202.8,173.825 c 0.2,2 -0.2,4.1 -1.7,5.5 -0.7,0 -0.6,-1.2 -0.7,-2 -0.1,-1.4 1.7,-2.2 2.2,-3.5 z"
         id="path3760"
         style="fill:#ffd500" />
      <path
         d="m 256.2,175.925 -5.6,3.4 c -0.5,0.1 -1,0 -1.2,-0.4 2.2,-1.5 4.4,-3.2 6.9,-4.2 v 1.2 z"
         id="path3762"
         style="fill:#ffd500" />
      <path
         d="m 211.1,175.625 c -0.4,3.2 -1.2,6.2 -2.5,9.2 -0.7,0.5 -2,0.4 -2.9,0.3 l 0.2,-0.6 c 1.9,-3 3.5,-6.1 4.5,-9.4 0.5,-0.4 0.7,0.1 0.7,0.5 z"
         id="path3764"
         style="fill:#ffd500" />
      <path
         d="m 223.2,177.125 c -0.1,0.4 -0.3,0.7 -0.5,1.1 -0.9,-0.6 -1,-1.7 -1.2,-2.6 0.5,-0.4 1.1,0.1 1.4,-0.5 0.7,0.2 0.4,1.3 0.3,2 z"
         id="path3766"
         style="fill:#ffd500" />
      <path
         d="m 216.5,184.925 c -0.9,0.3 -2.1,0.1 -3,-0.1 0,-3 0.5,-6.4 0.1,-9.6 l 0.1,-0.1 c 1.2,3.2 1.9,6.6 2.8,9.8 z"
         id="path3768"
         style="fill:#ffd500" />
      <path
         d="m 221.3,178.625 c -0.4,1 -0.9,2 -1.6,2.9 -1,-0.5 -1.5,-1.9 -1.5,-3.1 0.4,-1.1 1,-2.1 1.7,-2.9 h 0.2 z"
         id="path3770"
         style="fill:#ffd500" />
      <path
         d="m 260.2,177.625 c -0.2,0.4 -1.1,0.2 -1.6,0.1 -0.6,-0.6 -2,-1.2 -1.1,-2.2 1,0.2 1.9,1.3 2.7,2.1 z"
         id="path3772"
         style="fill:#ffd500" />
      <path
         d="m 205.1,178.325 c 0.1,1.2 -0.4,2.5 -1.5,3 l -0.2,-0.1 c -0.1,-1.7 -0.3,-3.7 0.6,-5.2 0.8,0.4 0.9,1.6 1.1,2.3 z"
         id="path3774"
         style="fill:#ffd500" />
      <path
         d="m 212.1,184.825 c -0.6,0.3 -1.5,0.1 -2.2,0 1,-2.7 1.7,-5.9 2.5,-8.7 0.6,2.6 0.2,5.9 -0.3,8.7 z"
         id="path3776"
         style="fill:#ffd500" />
      <path
         d="m 288.6,177.225 c 1,1 1.2,2.5 1,3.9 l -1.2,3 c -0.5,0.4 -1,-0.2 -1.5,-0.4 l -0.2,-0.4 c 0.5,-1.5 1.2,-3.9 -0.3,-5 0,1.1 0,2.5 -0.5,3.4 -1.1,-0.6 -0.2,-2.5 -0.7,-3.5 l -0.6,-1.6 c 1.1,-0.9 3,-0.4 4,0.6 z"
         id="path3778"
         style="fill:#ffffff" />
      <path
         d="m 283.7,177.625 c 0.2,0.7 0.6,1.4 0.5,2.2 -2,0.5 -1.1,-2.4 -3.1,-2.2 -0.3,0.6 0.7,1.2 0.3,1.7 -0.9,0.3 -1.4,-0.4 -1.6,-1.1 0.1,-0.9 0.9,-1.6 1.6,-1.9 1.1,-0.2 1.8,0.5 2.3,1.3 z"
         id="path3780"
         style="fill:#ffffff" />
      <path
         d="m 218,181.025 c 1,1 1.6,2.5 1.9,3.9 -0.4,0.5 -1.2,0.3 -1.7,0.4 l -0.4,-0.4 c -0.7,-2.7 -1.9,-5.5 -2.1,-8.4 1,1.4 1.7,2.9 2.3,4.5 z"
         id="path3782"
         style="fill:#ffd500" />
      <path
         d="m 305.1,186.025 c 2.1,5.7 0.6,12.6 -4,16.7 -3.5,3.2 -8.2,4.5 -13,3.4 -1.9,-0.5 -3.6,-1 -5.1,-2.2 1.9,-0.9 4.1,-0.6 5.6,-2.4 0.9,-0.9 1.9,0.1 2.9,-0.1 2.9,-0.3 5.7,-1.4 7.5,-3.9 1.9,-2.5 2.5,-6.1 1.4,-9.1 -0.6,-2.2 -2.7,-4.2 -4.7,-5.4 -0.5,-1.6 -1.6,-3.1 -3.1,-3.9 -1,-0.5 -2.6,-0.6 -2.5,-2.1 6.2,-0.8 12.4,3.3 15,9 z"
         id="path3784"
         style="fill:#ffd500" />
      <path
         d="m 224.7,177.725 -0.6,2.2 c -0.2,0.3 -0.6,-0.1 -0.6,-0.5 l 0.9,-2.2 c 0.3,-0.1 0.4,0.4 0.3,0.5 z"
         id="path3786"
         style="fill:#ffd500" />
      <path
         d="m 257.3,178.225 -0.1,0.4 -5.4,2.9 c -0.4,-0.1 -0.4,-0.6 -0.5,-0.9 1.5,-1.2 3.1,-2.2 4.9,-3.2 0.5,0 0.7,0.5 1.1,0.8 z"
         id="path3788"
         style="fill:#ffd500" />
      <path
         d="m 279.4,179.725 c 0.4,2.1 -0.4,4 -0.6,6.1 -0.3,0.2 -0.7,0 -0.9,-0.4 -0.1,-1.5 0.1,-2.9 0,-4.4 l -0.3,-0.1 c -0.7,0.7 -0.7,1.9 -1,2.9 -0.7,-0.4 -0.7,-1.5 -1,-2.4 0.1,-1.1 0.4,-2.2 1.5,-2.9 0.9,-0.6 1.9,0.3 2.3,1.2 z"
         id="path3790"
         style="fill:#ffffff" />
      <path
         d="m 262.1,179.625 -3,0.5 c -2.4,1.2 -4.7,2.6 -6.7,4.5 -0.7,0.9 -1.2,2 -2.1,2.7 -0.9,-0.6 -0.4,-1.6 0,-2.2 0.4,-1.7 2.1,-2.9 3.6,-3.5 2.6,-1.2 5.3,-4 8.2,-2 z"
         id="path3792"
         style="fill:#ffd500" />
      <path
         d="m 293.8,181.525 c 1.4,2.9 -0.5,5.6 -2.2,7.6 -0.9,0.1 -0.7,-0.9 -0.9,-1.4 0.3,-1.4 1.9,-2.5 1,-4.1 -0.6,0.6 -0.7,1.7 -1.5,2.4 -0.5,-0.1 -0.9,-0.6 -1,-1 0.6,-1.7 1.2,-3.5 1.6,-5.2 1.3,0 2.3,1 3,1.7 z"
         id="path3794"
         style="fill:#ffffff" />
      <path
         d="m 223,181.825 c -0.4,0.4 -0.7,0.2 -1,0 -0.7,-0.5 -0.4,-1.2 0,-1.7 0.6,-0.3 0.7,0.6 1.2,1 z"
         id="path3796"
         style="fill:#ffd500" />
      <path
         d="m 202.1,181.725 -1.2,1.2 c -0.4,-0.4 -0.5,-1 -0.4,-1.6 l 1.5,-1.2 c 0.5,0.3 0.4,1.2 0.1,1.6 z"
         id="path3798"
         style="fill:#ffd500" />
      <path
         d="m 231.6,186.825 c 0.1,0.3 0,0.5 -0.2,0.5 -1.9,-0.9 -4.4,-1 -5.1,-3.1 -0.4,-1.2 -1,-2.6 -0.7,-3.9 1.9,2 3.5,4.6 6,6.5 z"
         id="path3800"
         style="fill:#ffd500" />
      <path
         d="m 250.7,182.025 c -0.1,0.3 -0.1,0.6 -0.5,0.7 -0.6,-0.6 -0.9,-1.5 -1.1,-2.4 0.9,-0.5 1.2,1.1 1.6,1.7 z"
         id="path3802"
         style="fill:#ffd500" />
      <path
         d="m 284.2,181.425 c 2.9,2.7 -1.5,4.7 -1.2,7.6 -0.4,0.3 -0.7,0 -1.1,-0.1 -0.7,-1 0.2,-2 0.4,-2.9 0.4,-1 0.9,-2.2 0.1,-3.1 -0.6,1.5 -1.2,3.1 -1.9,4.7 -0.6,-0.5 -0.7,-1.6 -0.6,-2.4 l 0.6,-4.7 c 1.4,-0.4 2.7,0.1 3.7,0.9 z"
         id="path3804"
         style="fill:#ffffff" />
      <path
         d="m 260.4,181.725 c -2.1,1.4 -4.5,2.4 -6.7,3.6 -0.1,0 -0.4,-0.2 -0.1,-0.4 1.9,-1.6 4,-2.6 6.1,-3.9 0.3,-0.1 0.6,0.4 0.7,0.7 z"
         id="path3806"
         style="fill:#ffd500" />
      <path
         d="m 197.8,182.225 c -0.1,1 -1.1,1.7 -1.1,2.6 1.2,-0.2 1.7,-1.5 2.6,-2.4 0.5,0.2 0.5,1.1 0.1,1.5 -1.4,2.7 -5.2,1.2 -6.6,3.9 -0.1,0.3 -0.5,0.5 -0.7,0.5 -0.5,-0.4 -0.6,-1 -0.6,-1.6 2.2,-1 4.5,-2.6 6.2,-4.5 z"
         id="path3808"
         style="fill:#ffd500" />
      <path
         d="m 224.5,182.425 c 0.5,1.5 0.9,3.1 2.4,4.1 0.9,0.6 1.9,1 2.7,1.2 0.3,0.5 -0.3,1 -0.6,1.4 -0.7,0.5 -1.4,-0.4 -2,-0.9 -0.6,-0.6 -1.1,-1.5 -1.9,-1.7 -1,0.7 1.1,2.6 -0.7,2.9 l -1.5,-0.1 c -0.2,-0.6 0.4,-1.6 -0.1,-2.2 -1.5,0.4 -2.6,1.9 -4.5,1.2 -0.5,-0.4 -0.1,-1.1 0.1,-1.5 1.5,-1 4.6,0.1 4.9,-2.5 0,-0.7 0.4,-1.5 0.9,-2 z"
         id="path3810"
         style="fill:#ffd500" />
      <path
         d="m 222.2,183.525 c -0.1,0.6 -0.1,1.2 -0.7,1.5 -0.9,-0.3 -0.7,-1.5 -1,-2.2 0.5,-1.3 1.2,0.4 1.7,0.7 z"
         id="path3812"
         style="fill:#ffd500" />
      <path
         d="m 265.3,183.325 c -0.5,0.5 -1.7,0 -2.4,0.5 l -8.7,5.2 c -0.6,0.7 -0.6,1.9 -1,2.9 -0.5,0 -0.6,-0.7 -1,-1.1 0.3,-1.6 1,-2.9 1.7,-4.1 3.1,-1.7 6,-4.2 9.7,-4.1 0.5,0.1 1.5,0.1 1.7,0.7 z"
         id="path3814"
         style="fill:#ffd500" />
      <path
         d="m 202.3,185.525 c 0.6,1.4 2,1.9 3.5,2 0.4,0.4 -0.1,0.7 -0.3,1 l -0.4,0.1 -3.1,-1.5 c -0.6,0.6 0.1,1.7 -0.5,2.4 -0.7,-0.3 -1.4,-0.7 -2.2,-0.5 -0.4,-0.7 1.4,-1.9 0.1,-2.6 -0.9,0.6 -0.9,1.9 -1.9,2.4 -1,0.4 -1.9,1.1 -3,0.7 -0.3,-0.6 -1.5,-1.7 0,-2.1 1.7,-0.2 3.6,-0.7 5,-2 0.5,-0.9 1.6,-1.2 2.4,-1.2 z"
         id="path3816"
         style="fill:#ffd500" />
      <path
         d="m 289.6,187.325 c 0.6,1.6 0.1,3.5 -1,4.5 -0.6,0.4 -1.1,-0.4 -1.4,-0.6 -0.1,-1.5 1.4,-3 0.2,-4.4 l -0.2,0.3 -1.1,3.6 c -0.6,-0.1 -1.9,0.1 -2.1,-0.9 0,-2 1.1,-3.6 2.2,-5.1 1.4,0.2 2.8,1.2 3.4,2.6 z"
         id="path3818"
         style="fill:#ffffff" />
      <path
         d="m 264.9,184.825 c 3.4,3.6 5.9,7.6 8.7,11.5 l 0.1,1.5 c -3.4,-4.1 -6.4,-8.6 -9.9,-12.7 0.1,-0.6 0.7,-0.4 1.1,-0.3 z"
         id="path3820"
         style="fill:#ffd500" />
      <path
         d="m 297.3,187.525 c 0.4,2.4 -1,4.4 -2.9,5.7 -0.4,-0.3 -0.4,-0.9 -0.5,-1.4 0.9,-1 1.9,-2.1 1.5,-3.5 -0.6,0.7 -1.1,1.7 -2.1,2.2 -0.2,-0.2 -0.9,-0.5 -0.5,-1.1 1.2,-1.4 1.6,-3 2.5,-4.5 1.3,0.4 1.7,1.6 2,2.6 z"
         id="path3822"
         style="fill:#ffffff" />
      <path
         d="m 263.4,186.025 c 6.9,8.4 12.7,17.2 18.5,26.2 0.2,0.6 1.2,1.4 0.6,2 -1.4,-0.6 -3.2,-0.9 -4.6,-0.1 l -1.9,1.2 c -1.4,-0.6 -3.1,-1.1 -4.6,-0.9 -5.6,-8.1 -11,-16.3 -15.7,-24.8 l 0.2,-0.4 6.5,-3.9 z"
         id="path3824"
         style="fill:#ffd500" />
      <path
         d="m 212.2,187.325 -2.5,2 c -0.6,-0.1 -0.6,-1.1 -1,-1.6 0.7,-1.2 2.4,-0.7 3.5,-0.7 z"
         id="path3826"
         style="fill:#ffffff" />
      <path
         d="m 280.5,189.325 c 0.4,0.4 1,0.4 1.1,1 -0.5,0.9 -1.6,0.7 -2.4,1.5 l -2.2,2.4 c -0.5,-1 -0.5,-2.5 -0.4,-3.7 0,-1.1 0.1,-2.5 0.7,-3.5 1.9,-0.5 1.8,1.7 3.2,2.3 z"
         id="path3828"
         style="fill:#ffd500" />
      <path
         d="m 299.6,191.425 c -0.5,-0.5 -0.9,-1.2 -1.2,-1.9 0.3,-0.7 -0.1,-1.9 0.1,-2.5 1,1.3 1.3,2.9 1.1,4.4 z"
         id="path3830"
         style="fill:#e53138" />
      <path
         d="m 214.4,189.025 -4.5,3.6 -2,-0.1 c 0.4,-0.6 1.1,-1.5 1.9,-0.9 0.4,-0.2 0,-0.7 0.3,-1.1 l 4.2,-3.4 c 0.4,0.4 0.2,1.3 0.1,1.9 z"
         id="path3832"
         style="fill:#ffffff" />
      <path
         d="m 216.7,188.525 c -0.2,0.4 -0.6,0.6 -1,0.7 -0.1,-0.6 0.2,-1.4 0.7,-1.7 0.5,0.2 0.5,0.8 0.3,1 z"
         id="path3834"
         style="fill:#ffd500" />
      <path
         d="m 208.4,189.425 -0.1,0.2 c -0.5,0 -1.1,-0.2 -1.6,-0.5 -0.1,-0.4 0.1,-0.7 0.4,-0.9 0.5,0.1 1,0.6 1.3,1.2 z"
         id="path3836"
         style="fill:#ffd500" />
      <path
         d="m 231.6,190.025 c 0,0.1 -0.1,0.4 -0.2,0.2 -0.5,-0.1 -1.4,-0.5 -1,-1.1 0.6,-0.9 1.1,0.4 1.2,0.9 z"
         id="path3838"
         style="fill:#ffd500" />
      <path
         d="m 204,189.725 c -0.4,0.6 -1.1,1.4 -1.9,1.5 0.4,-0.6 0.4,-1.6 1,-2.1 0.3,0.1 0.9,0.1 0.9,0.6 z"
         id="path3840"
         style="fill:#ffffff" />
      <path
         d="m 222,190.425 -2.7,2.4 c -0.9,-0.1 -1.9,0.1 -2.5,-0.2 1.4,-1.2 2.9,-2.7 4.5,-3.5 0.4,0.2 0.3,0.9 0.7,1.3 z"
         id="path3842"
         style="fill:#ffffff" />
      <path
         d="m 193.3,189.725 c -0.1,0.5 -0.7,0.6 -1.1,0.9 -0.4,-0.2 -0.1,-0.7 0,-1.1 0.2,-0.3 0.9,-0.3 1.1,0.2 z"
         id="path3844"
         style="fill:#ffd500" />
      <path
         d="m 218.2,189.825 -3.6,3 -2.5,-0.2 2.1,-1.9 c 0.6,-0.1 0.4,1.1 1.1,0.6 l 2.1,-1.7 c 0.3,-0.1 0.7,-0.1 0.8,0.2 z"
         id="path3846"
         style="fill:#ffffff" />
      <path
         d="m 227,190.025 c -0.3,0.4 -0.7,0.9 -1.2,1 l 0.5,-1.5 c 0.3,0 0.5,0.2 0.7,0.5 z"
         id="path3848"
         style="fill:#ffffff" />
      <path
         d="m 198.5,192.525 c 0.2,0.4 0.6,1.5 1.2,0.7 0.7,-0.6 1.7,-1.7 2.5,-0.4 2.5,1.6 -0.2,4.2 0.9,6.4 0.9,1.5 2.7,1.5 4.1,2.2 0.7,0.9 1.9,1.5 3,1.5 1.1,0 2.1,-0.7 2.6,-1.7 1,-1.6 -0.7,-3 -1.4,-4.2 0.9,-0.7 2.4,-0.3 3.5,-0.1 2.4,1.7 4.9,3.2 7.2,5.1 l -0.1,0.2 c -2,0.3 -4.2,0 -5.5,2 -1,0.7 -1.2,2.2 -0.9,3.5 -1.4,1.2 -2.1,2.9 -2.7,4.5 -1.4,1.1 -2.2,2.5 -2.7,4.1 -0.5,2 1.9,2.9 2.4,4.4 -0.5,0.6 -1,-0.1 -1.4,-0.5 -0.9,-0.9 -2,-1.9 -3.2,-1.7 -1.2,-0.1 -1.9,1 -3,0.7 -1.4,0 -2.9,0.1 -3.7,1.2 -0.6,1.4 -2,2.6 -1.4,4.4 1.1,1.6 2.9,3 4.9,2.5 0.6,-0.4 1.5,-1.1 2.2,-0.6 0.5,1.1 1,2.4 2.2,2.7 1,0.2 2,0.2 2.6,1.1 0.4,0.9 0.9,1.9 1.6,2.6 -0.7,0.4 -1.6,-0.5 -2.4,-0.7 -1.5,-0.7 -2.1,-3 -4.1,-3 -1.5,-0.5 -2.9,0.2 -4.5,0 -3.6,-1 -7.7,-1.4 -9.7,-5 -0.4,-1.2 -1.5,-2.5 -2.7,-2.9 -1,-1.7 -2.1,-4.5 -4.5,-4.6 -0.6,0.1 -0.7,0.9 -0.5,1.2 0.1,1 1.1,1.7 1.6,2.6 -0.1,0.4 -0.7,0.1 -1,-0.1 l -3.4,-4 -0.7,-6 c 0.7,-3 2.6,-5.6 2.6,-9 0,-1.2 -1.1,-2.1 -2.1,-2.9 l -1.9,-0.5 c 1.2,-1.7 3.4,-2.7 5.1,-4 1.6,-1.1 3.4,-2 5.2,-2.6 0.4,0.3 0.3,0.7 0.4,1 h 0.4 l 2.2,-1.7 c 1.6,0 2.9,-0.4 4.2,-1 0.5,0.9 0.4,1.9 0.9,2.6 z"
         id="path3850"
         style="fill:#ffd500" />
      <path
         d="m 200.6,190.725 c -0.1,0.5 -0.7,1 -1.1,1.2 -0.5,-0.3 -0.5,-0.9 -0.4,-1.4 0.3,-0.7 1.3,-0.5 1.5,0.2 z"
         id="path3852"
         style="fill:#ffd500" />
      <path
         d="m 207.6,190.825 v 0.4 c -1,1.4 -2.6,1.9 -4.2,1.4 -0.5,-0.4 0.1,-0.7 0.4,-1 0.9,-0.6 2,-1.9 3.2,-1 z"
         id="path3854"
         style="fill:#ffffff" />
      <path
         d="m 293.3,193.225 c 0.3,1.4 -0.7,2.4 -1.5,3.2 -0.4,0.4 -0.7,0.6 -1.2,0.6 -0.4,-1.5 1.9,-2.2 1.1,-3.7 -0.6,0.1 -0.9,1.4 -1.6,1.2 l -0.9,-1.7 1.6,-2.5 c 1.4,0.1 2.2,1.7 2.5,2.9 z"
         id="path3856"
         style="fill:#ffffff" />
      <path
         d="m 230.2,191.025 c 0.1,0.9 -0.9,1.4 -1.5,1.7 -0.9,-0.1 -1.9,0.1 -2.5,-0.2 0.6,-1 1.6,-1.7 2.7,-2 0.7,-0.2 0.9,0.4 1.3,0.5 z"
         id="path3858"
         style="fill:#ffffff" />
      <path
         d="m 224.5,190.725 c 0,0.4 -0.1,0.9 -0.5,0.9 -0.3,-0.1 -0.3,-0.5 -0.3,-0.7 0.1,-0.2 0.5,-0.4 0.8,-0.2 z"
         id="path3860"
         style="fill:#ffd500" />
      <path
         d="m 255,190.825 c 4.6,8 9.7,15.7 14.7,23.5 -0.9,-0.4 -2.1,-0.6 -3.2,-0.6 -0.5,-1.6 -0.2,-3.6 -2,-4.6 l -1.1,-0.7 c -0.2,-2.1 -1.2,-4.5 -3.5,-5.2 -0.3,-2.5 -1.4,-4.9 -3.4,-6.4 -0.6,-2 -3.6,-3.6 -1.9,-6 z"
         id="path3862"
         style="fill:#ffd500" />
      <path
         d="m 298.8,195.525 c -0.7,1.5 -2,3.1 -3.6,3.5 -0.4,-1.2 1.5,-1.7 2,-2.7 0.3,-0.7 0.6,-1.4 0.6,-2.2 h -0.2 c -0.6,1 -1.4,2 -2.4,2.6 -0.4,-0.6 -0.6,-1.4 -0.5,-2 1.2,-1.1 2.4,-2.2 3.1,-3.5 1,1.1 1.7,2.8 1,4.3 z"
         id="path3864"
         style="fill:#ffffff" />
      <path
         d="m 243.1,192.325 c 0.7,1 1,2.4 0.7,3.7 -0.6,0.1 -1.1,-0.7 -1.6,-1 -0.1,-0.9 -0.1,-1.9 -1,-2.2 -0.5,0.3 0,0.7 -0.3,1.1 -0.5,-0.1 -1.4,-0.1 -1.9,-0.4 l -0.9,-1.4 c 1.5,-0.9 3.7,-1.2 5,0.2 z"
         id="path3866"
         style="fill:#ffffff" />
      <path
         d="m 289.1,195.025 c 0.7,2 0.1,4.2 -1.2,5.7 -1.5,2 -4.4,1.1 -6.4,2.2 -1,0.1 -2.4,2 -3.1,0.1 l 0.1,-0.4 3.1,-1.9 c 2.1,-0.7 5.7,-0.2 6,-3.5 0,-0.5 0.1,-1.1 -0.3,-1.4 -0.9,0.9 -0.7,2.7 -2.4,3.1 -2.9,0 -5.1,1.7 -7.5,2.9 -1,-0.6 -1.5,-1.9 -1.9,-3 -0.3,-0.6 -0.6,-1.5 -0.3,-2.2 2.6,-0.9 3.2,-4.2 6,-5 3.2,-0.9 6.8,0.6 7.9,3.4 z"
         id="path3868"
         style="fill:#ffd500" />
      <path
         d="m 223,192.425 c -0.1,0.4 -1,0.4 -1.5,0.3 0.1,-0.5 0.6,-0.9 1,-1 0.4,-0.1 0.3,0.5 0.5,0.7 z"
         id="path3870"
         style="fill:#ffffff" />
      <path
         d="m 233.7,192.325 c -0.2,0.6 -1.4,0.4 -2.1,0.5 l -0.6,-0.1 c -0.1,-0.3 0.4,-0.6 0.5,-0.6 0.5,0 1.2,0.5 1.5,-0.3 0.3,0 0.4,0.2 0.7,0.5 z"
         id="path3872"
         style="fill:#ffffff" />
      <path
         d="m 248.2,193.525 c 1.1,1.9 0.6,4.4 -0.4,6 -0.4,0.2 -0.7,-0.1 -0.9,-0.4 -0.3,-1.5 0.7,-3.2 -0.5,-4.4 -0.5,0.6 -0.1,1.9 -0.5,2.6 0,0.1 -0.1,0.4 -0.2,0.4 -1.7,-0.7 -0.3,-3 -1,-4.4 -0.1,-0.4 -0.4,-0.7 -0.1,-1.1 1.3,-0.7 2.8,0.2 3.6,1.3 z"
         id="path3874"
         style="fill:#ffffff" />
      <path
         d="m 252.9,195.925 c 1.9,2.6 0.3,5.9 -1,8.2 -0.5,0.3 -1,-0.6 -1.2,-1 -0.1,-2.2 2,-4.6 0.1,-6.6 -0.4,1 -0.1,2 -0.4,3 l -0.7,2.2 c -2.7,-0.9 0.4,-3 0.1,-4.6 l -0.1,-2.7 c 0.6,-0.5 1.4,0 1.9,0.2 z"
         id="path3876"
         style="fill:#ffffff" />
      <path
         d="m 239.2,195.525 c -1.7,1.7 -4,3.2 -5.7,5.1 l 0.6,0.5 6.2,-4.9 c 0.5,0.1 0.9,0.5 1.1,0.9 -1.6,2 -3.7,3.2 -5.6,5 0,0.4 0.4,0.6 0.6,0.6 2.2,-1.4 3.9,-3.1 6,-4.6 0.6,-0.1 0.9,0.5 1.2,0.7 v 0.5 l -5.4,4.6 c -0.2,0.4 0.3,0.5 0.4,0.7 2.1,-1.2 4,-3.4 6,-4.6 0.6,0 1,0.5 1.2,0.9 v 0.5 l -5.7,4.7 h -23.7 c 0.5,-1.8 1.6,-2.5 2.4,-2.7 1.5,-0.6 3.7,0.5 4.6,-1.2 l -0.1,-0.9 c -2.2,-1.6 -4.5,-3 -6.6,-4.7 -1,-1.5 -3.1,-0.9 -4.6,-1.2 -0.7,0.1 -1.7,0.3 -1.9,1.1 0,1.2 1.1,2 1.9,2.9 0.2,1.1 -0.4,2 -1.2,2.5 -1.6,0.6 -2.4,-1.2 -3.7,-1.7 -1.1,-0.2 -2.5,-0.5 -3.1,-1.5 -0.4,-1.4 0.4,-2.5 0.7,-3.7 l 0.5,-0.4 c 4,-0.2 7.6,-0.1 11.5,0 0.9,1 1.7,-0.1 2.6,-0.1 l 2,0.1 c 0.1,0.4 -0.6,0.5 -0.4,0.9 1.1,0.9 1.7,-0.7 2.7,-1 0.9,0 1.6,0 2.5,0.2 l -1.7,1.7 c 0.4,0.3 0.9,0.5 1.2,0.3 l 2.7,-2.1 h 2.5 c -0.7,1.1 -2.2,2 -3.1,3.1 l 0.7,0.4 c 2.2,-1 3.7,-4.4 6.6,-3.5 v 0.4 l -4.5,3.9 c -0.3,0.4 0.2,0.5 0.5,0.6 2.4,-1.4 4.2,-3.5 6.5,-5 0.6,0 1.2,0.5 1.6,1 z"
         id="path3878"
         style="fill:#ffffff" />
      <path
         d="m 294.1,197.625 c 0,1.1 0.1,2.7 -1.4,2.6 l -0.7,-0.1 c 0.1,-0.5 0.6,-0.9 0.6,-1.4 -0.9,-0.1 -1.5,0.6 -2.4,0.4 -0.1,-1.1 1.4,-1 2,-1.7 0.6,-0.4 0.9,-1.1 1.6,-1.1 z"
         id="path3880"
         style="fill:#ffffff" />
      <path
         d="m 257.9,199.825 c 2.4,3.2 -0.9,6.2 -1.9,9 -0.3,0.4 -0.1,1.2 -0.7,1 -2.4,-2.2 0.6,-4.7 1.1,-7.1 0,-0.4 -0.1,-0.6 -0.4,-0.9 -1,1.5 -1.7,3.2 -2.6,4.7 -0.5,-0.1 -1.1,-0.9 -0.7,-1.5 1.1,-2.4 2.2,-4.6 2.1,-7.5 0.6,0 1.1,0.1 1.6,0.5 z"
         id="path3882"
         style="fill:#ffffff" />
      <path
         d="m 182.2,200.325 -0.1,0.4 -6.7,5.5 h -2.2 c 2.2,-2.2 5,-4.4 7.5,-6.4 0.5,0 1.1,-0.2 1.5,0.5 z"
         id="path3884"
         style="fill:#ffffff" />
      <path
         d="m 166.1,200.825 c -2.7,2.2 -6.9,0.9 -10.2,1.7 -6.5,0.9 -12.4,3 -17.3,7.1 -2.7,2 -5.4,4.4 -8,6.9 -1,0.5 -2,1.4 -3.1,1.6 3.6,-6.2 10.4,-10.2 16.3,-13.5 6.4,-3.5 14.4,-4.8 22.3,-3.8 z"
         id="path3886"
         style="fill:#ffd500" />
      <path
         d="m 183.3,202.325 c -0.1,2 -2.5,2.7 -3.7,4 h -2.5 c 1.6,-1.7 3.9,-3.4 5.8,-4.8 0.5,-0.1 0.3,0.5 0.4,0.8 z"
         id="path3888"
         style="fill:#ffffff" />
      <path
         d="m 248,203.325 c -1,1.2 -2.2,2.1 -3.4,3 l -2.4,-0.1 c 1.4,-1.5 2.9,-2.9 4.6,-3.9 0.6,0 1,0.6 1.2,1 z"
         id="path3890"
         style="fill:#ffffff" />
      <path
         d="m 165.8,202.625 c -6.1,8.1 -11.6,16.5 -13.5,26.3 h -0.2 c -1.7,-1.4 -0.4,-3.7 0.1,-5.4 2.4,-7.6 7.2,-14.3 12.2,-20.7 l 1.2,-0.5 z"
         id="path3892"
         style="fill:#ffd500" />
      <path
         d="m 162.5,203.425 c -4.9,6.9 -9.7,13.7 -11.9,21.6 l -0.2,0.1 c -2.6,-3.5 -5.4,-8.2 -10,-9.2 -2,-0.5 -4.4,-0.6 -6.5,-0.5 l -0.3,-0.1 c 4.5,-4.6 9.9,-8.4 15.8,-10.2 4.1,-1.1 8.4,-1.9 12.9,-1.7 z"
         id="path3894"
         style="fill:#ffd500" />
      <path
         d="m 261.9,206.325 c 1.9,3.9 -2,6.2 -3.2,9.2 -0.4,0.4 -0.6,-0.2 -0.7,-0.5 -0.7,-1.9 1.1,-3.5 1.9,-5.1 0.4,-0.5 0.4,-1.2 0.3,-1.9 h -0.3 c -1.1,1.4 -1.9,3.1 -2.9,4.4 l -0.4,-0.4 c -0.1,-3 1.9,-5.1 2.9,-7.6 1.2,-0.5 1.9,1.1 2.4,1.9 z"
         id="path3896"
         style="fill:#ffffff" />
      <path
         d="m 249.9,205.525 c -0.4,1.2 -2,0.5 -3,0.7 0.1,-0.9 1.1,-1.2 1.7,-1.9 0.8,0.1 1.1,0.8 1.3,1.2 z"
         id="path3898"
         style="fill:#ffffff" />
      <path
         d="m 284.9,206.425 2.5,1 c -0.6,1.2 -1.2,2.6 -1.2,4.1 -0.9,0.6 -1.1,-0.7 -1.6,-1.2 l -3.9,-5.5 c 0.2,-0.5 1,-0.4 1.2,0 z"
         id="path3900"
         style="fill:#e53138" />
      <path
         d="m 280,206.025 c 1.5,2 3.2,3.9 4.4,6 -0.1,0.5 -0.4,0.5 -0.7,0.7 l -0.3,-0.1 c -1.2,-2.5 -3.2,-4.6 -4.4,-7.1 z"
         id="path3902"
         style="fill:#ffd500" />
      <path
         d="m 295.3,208.725 c -0.3,1.1 -0.7,2.1 -1.6,3 -1.7,1.6 -4.2,0.3 -6.1,0 -0.3,-0.4 -0.4,-1 -0.1,-1.2 1.5,-1.1 3.9,0.2 5.1,-1.2 l -0.3,-0.3 h -4.4 c 0,-0.5 0.5,-1.2 1.1,-1.4 1.9,0.4 4,0.1 5.9,-0.1 z"
         id="path3904"
         style="fill:#ffffff" />
      <path
         d="m 177.2,208.425 c -3.2,3 -7.3,6.1 -10.8,8.6 0,-1.1 0.7,-2 1.2,-3 2.4,-1.9 4.3,-4 6.8,-5.6 z"
         id="path3906"
         style="fill:#ffffff" />
      <path
         d="m 172.3,208.725 c -1,0.7 -1.9,1.5 -2.9,2.1 0.7,-0.9 0.9,-3.2 2.9,-2.5 z"
         id="path3908"
         style="fill:#ffffff" />
      <path
         d="m 181,208.525 c 0,0 -0.7,1.7 -0.5,2.7 l 1,6.1 c 0.6,1.1 1.9,2.1 2.2,3.4 -3.2,0 -7.1,0 -10.6,0 -0.3,-0.4 0.1,-0.7 0.1,-1.2 -0.7,0 -1.1,1.1 -2,1.2 l -2.4,-0.1 c 2.5,-2.9 6.6,-4.6 8.4,-8.1 l -0.1,-0.1 -10.4,8.4 h -2 c -0.2,-0.6 0.3,-1.2 0.7,-1.6 4.6,-3.6 13.2,-10.6 13.2,-10.6 z"
         id="path3910"
         style="fill:#ffffff" />
      <path
         d="m 242.3,208.425 c 0.6,1.2 1.4,-0.1 2.1,0 l 1.9,0.1 c -0.3,0.9 -1.4,1.2 -1.9,2 -0.1,0.4 0.2,1 0.7,0.7 1.7,-1.1 3,-3.6 5.4,-2.6 l -0.1,0.4 -4.5,3.9 c 0.1,0.3 0.3,0.6 0.5,0.6 l 5.7,-4.5 c 0.6,0.3 1,1 1.1,1.6 l -5.6,4.9 c 0,0.3 0.1,0.6 0.5,0.7 l 5.7,-4.5 c 0.5,0.3 0.9,1 0.9,1.7 l -5.7,4.7 c -0.1,0.4 0,0.7 0.4,0.7 2,-1.2 3.9,-3.1 5.9,-4.4 0.7,0.1 0.6,1 0.9,1.5 -1.7,1.6 -3.7,3.5 -5.9,4.7 h -35.9 c -1,0 -0.6,-1.2 -1.4,-1.6 -0.9,-1 -2.4,-1.9 -1.6,-3.2 0.4,-1.2 1.5,-2.2 2.5,-3.1 1.1,-3.7 2.8,-4.5 2.8,-4.5 z"
         id="path3912"
         style="fill:#ffffff" />
      <path
         d="m 265,211.625 c 0.9,2.9 -1.2,5 -1.5,7.7 -0.6,0.2 -1.4,-0.1 -1.9,-0.5 -0.2,-1.7 1.4,-3.4 1,-5.2 h -0.4 c -0.9,1.2 -1.4,2.9 -2,4.2 -0.4,0 -0.7,-0.4 -0.7,-0.7 0.1,-3 3.2,-4.5 3.7,-7.2 0.9,-0.2 1.7,0.8 1.8,1.7 z"
         id="path3914"
         style="fill:#ffffff" />
      <path
         d="m 149.7,212.125 c 0.6,0.5 0.6,1.6 0.4,2.4 -0.2,1 -1.2,1.5 -2.2,1.5 -1,0 -1.9,-0.7 -2,-1.7 -0.2,-0.9 0,-1.9 0.7,-2.5 0.9,-0.7 2.5,-0.7 3.1,0.3 z"
         id="path3916" />
      <path
         d="m 149.4,213.525 c 0,0.6 -0.5,1.4 -1.2,1.5 -0.6,0 -1.1,-0.5 -1.4,-1 0,-0.6 0.3,-1.4 1,-1.5 0.7,-0.3 1.4,0.2 1.6,1 z"
         id="path3918"
         style="fill:#e53138" />
      <path
         d="m 291.5,213.625 c 0.4,0.7 0.2,1.9 -0.1,2.6 -0.5,1.2 -1.6,2.1 -3,2.4 -2,0.3 -3.5,-1.6 -4.5,-3.1 v -0.2 c 1.9,-0.5 3.5,0.7 5.2,0.5 -0.9,-1.6 -3,-1.4 -4.6,-1.9 1.7,-2.4 4.6,-0.3 7,-0.3 z"
         id="path3920"
         style="fill:#ffffff" />
      <path
         d="m 269.4,215.725 c 2,1.9 1.4,4.6 2,7.1 -1,0.6 -2.4,1.4 -3.5,0.6 -0.7,-1.9 1,-4 -0.2,-5.6 -0.7,1.4 -0.9,3.1 -1.1,4.9 -0.7,0 -1.2,-0.7 -1.6,-1.4 -0.7,-2.4 0.4,-4.7 1.4,-6.6 1.1,-0.2 2.1,0.3 3,1 z"
         id="path3922"
         style="fill:#ffffff" />
      <path
         d="m 286,219.525 c -0.6,1.6 -2.4,2.7 -4.2,2.6 -2.7,-0.6 -3.6,-3.6 -4.9,-5.7 0,-0.5 0.5,-0.6 0.9,-0.7 1.6,0.6 2.1,3.5 4.4,3.1 -1,-1.1 -2.2,-2.5 -2.9,-3.7 1.7,-0.6 3.1,0.7 4.2,2 z"
         id="path3924"
         style="fill:#ffffff" />
      <path
         d="m 275.9,217.025 c 1,1.2 1.2,2.6 2,3.9 -0.6,0.9 -1.1,2.6 -2.5,2.2 -1,-1.2 -0.1,-3.6 -1.9,-4.2 -0.3,1.7 0.5,3.2 0.9,4.7 -0.6,0.5 -1.1,-0.1 -1.6,-0.4 -1,-2.1 -0.5,-5 -1.6,-7.1 0.4,-0.5 1,-0.5 1.5,-0.6 1.2,0.1 2.4,0.5 3.2,1.5 z"
         id="path3926"
         style="fill:#ffffff" />
      <path
         d="m 148.1,223.725 c 1.7,2.1 2.4,4.7 3.5,7.1 -2.2,-1.7 -4.5,-3.9 -6.7,-5.5 l -0.4,-2.6 c -0.6,-2.1 -2.5,-4.1 -4.6,-4.6 -1.9,-0.4 -3.5,0.2 -5,0.9 l -5.7,-0.3 v -0.1 c 1.5,-1.1 3.1,-2.2 5.2,-2.1 5.8,-0.6 11,2.2 13.7,7.2 z"
         id="path3928"
         style="fill:#ffd500" />
      <path
         d="m 257.4,219.025 -1.9,1.7 c -0.9,0.1 -2,0.2 -2.7,-0.1 1.1,-1.2 2.5,-2.1 3.9,-3.1 0.6,0.2 0.6,0.9 0.7,1.5 z"
         id="path3930"
         style="fill:#ffffff" />
      <path
         d="m 188,220.525 c -0.6,-0.4 -1.6,-1.2 -1.6,-2.1 0.8,0.5 1.5,1.2 1.6,2.1 z"
         id="path3932"
         style="fill:#ffffff" />
      <path
         d="m 143.1,222.025 c 0.5,1 0.9,2.4 0.5,3.5 -3.6,5.5 -5.9,11.6 -6,18.5 -2.2,0.3 -3.5,2.6 -4.4,4.4 -1.4,-0.1 -2.5,0.5 -3.6,0.9 -0.1,-5.4 1.1,-10.5 2.6,-15.3 0.6,-1.7 1.7,-3.4 1.7,-5.2 l -0.1,-0.1 c -3,4.1 -3.7,9.1 -4.7,14 l -0.7,8.4 c -0.5,0.7 -1,1.7 -2,1.2 -1.1,0.1 -0.5,-1 -0.7,-1.6 -0.1,-4.6 0.5,-9.1 2,-13.2 1.6,-6.1 4.2,-11.9 7.9,-17.1 1.1,-1 2.7,-1.4 4.2,-0.9 1.3,0.1 2.8,1.1 3.3,2.5 z"
         id="path3934"
         style="fill:#ffd500" />
      <path
         d="m 210,220.625 -0.4,0.2 -6.9,-0.1 v -0.1 c 1.1,-0.4 2.4,0.1 3.5,-0.4 1,-1 3,-1.1 3.8,0.4 z"
         id="path3936"
         style="fill:#ffffff" />
      <path
         d="m 289.4,220.125 v 0.1 l -1.9,0.3 c -0.2,-0.1 0,-0.5 0.1,-0.6 0.5,-0.2 1.5,-0.5 1.8,0.2 z"
         id="path3938"
         style="fill:#ffd500" />
      <path
         d="m 257.9,220.725 c 0,0 -0.2,0 -0.4,0 l 0.1,-0.3 h 0.2 v 0.3 z"
         id="path3940"
         style="fill:#ffffff" />
      <path
         d="m 292.1,222.425 v 0.2 c -4.7,-0.4 -8.5,2.6 -11.7,5.9 -0.7,1.2 -1,2.6 -1.4,4 -0.7,-0.5 -0.7,-1.5 -0.5,-2.2 0.4,-1.9 1.1,-4 3,-5 3.1,-1.9 6,-4.6 10,-3.5 z"
         id="path3942"
         style="fill:#ffd500" />
      <path
         d="m 281.6,223.625 -2.9,2.4 c -0.9,-0.4 -1.1,-1.2 -1.7,-1.9 0.5,-0.7 1,-1.5 1.6,-2.1 0.9,0.7 2,1.1 3,1.6 z"
         id="path3944"
         style="fill:#ffd500" />
      <path
         d="m 168.6,222.825 c -1.5,1.7 -3.5,3.1 -5.4,4.6 -0.2,-0.9 0.1,-1.9 0.4,-2.7 1,-0.5 1.7,-1.7 2.9,-2 0.6,0.1 1.4,-0.1 2.1,0.1 z"
         id="path3946"
         style="fill:#ffffff" />
      <path
         d="m 186.5,222.725 c 1.6,1.4 3.9,-1.4 4.9,1.2 1.7,4.7 7.2,5.6 11.6,6.6 1.9,-0.4 4.5,-0.7 5.7,1.1 1.4,1.7 3.5,2.6 5.6,3 l 0.3,0.2 -0.4,0.3 H 170 c -0.4,-0.4 -0.1,-1 -0.3,-1.5 -1,0.1 -1.5,1.5 -2.5,1.5 h -2.3 c 1.5,-1.6 3.5,-3.1 5.1,-4.6 0.3,-0.4 0.3,-0.9 0.3,-1.2 -2.6,1.7 -5,4 -7.5,5.9 -0.4,0.1 -0.9,-0.1 -0.7,-0.6 l 0.2,-1.2 8.7,-7.4 c 0.1,-0.5 0.5,-0.9 0.3,-1.2 -3,2.1 -5.7,4.6 -8.7,6.9 l -0.1,-0.1 0.2,-2 8.1,-6.6 0.7,-0.1 h 15 z"
         id="path3948"
         style="fill:#ffffff" />
      <path
         d="m 252.9,222.825 c 0,0 -2.5,1.4 -1.2,2.3 l 3.2,-2.1 h 2.5 c -1.5,1.7 -3.5,2.9 -5.2,4.5 -0.1,0.4 0,0.9 0.3,1 l 6.2,-4.7 c 0.6,-0.1 0.5,0.6 0.6,1.1 l -0.1,0.5 -6.5,5.4 c 0,0.3 0,0.7 0.2,1 l 6.5,-5 c 0.6,0.1 0.4,1 0.5,1.4 l -0.5,0.7 -8,6.5 h -18.5 c -2.2,-1.2 -4.4,-2.9 -7.1,-2.9 -1.7,-0.3 -3.1,0.9 -4.9,0.7 -1.7,0.5 -3.6,0.6 -5.2,-0.1 -1.9,-0.4 -2.6,-2 -3.2,-3.5 -1,-1.5 -3.2,-0.2 -3.9,-1.9 -0.2,-0.9 -0.6,-1.9 -1.5,-2.4 -1.7,-0.6 -2.6,2.5 -4.4,0.6 -0.9,-0.4 -1.9,-1 -2.1,-2 0.1,-0.4 0.1,-0.9 0.5,-1.1 h 10.1 l 0.2,2 c 2.2,1.1 4.4,3 7.1,2.5 0.4,-0.7 0.3,-1.6 -0.1,-2.2 -0.9,-1 -2.2,-0.9 -2.9,-2 l 0.1,-0.3 z"
         id="path3950"
         style="fill:#ffffff" />
      <path
         d="m 131.9,223.525 c 0,0.2 0,0.5 -0.2,0.5 -0.4,0 -0.5,-0.2 -0.6,-0.5 0,-0.4 0.5,-0.2 0.8,0 z"
         id="path3952"
         style="fill:#ffffff" />
      <path
         d="m 130.9,225.325 -1.4,2.9 c -1.2,-0.5 -1.7,-2 -2.9,-2.6 -0.5,-0.6 -1.6,-0.6 -1.4,-1.4 0.5,-0.7 1.5,-0.6 2.1,0.1 0.6,0.2 1,1.6 1.7,1.1 0.5,-0.7 -0.7,-1.4 -0.9,-2 1.3,0.1 2.3,0.9 2.8,1.9 z"
         id="path3954"
         style="fill:#ffffff" />
      <path
         d="m 217,225.725 c 0.1,0.1 0.1,0.4 -0.1,0.5 -1.2,-0.5 -2.5,-1 -3.6,-1.6 -0.3,-0.4 -0.6,-0.7 -0.3,-1.1 1.6,0.1 2.6,1.6 4,2.2 z"
         id="path3956"
         style="fill:#ffd500" />
      <path
         d="m 289.6,224.225 c -2.6,1.5 -5.2,3.1 -7.7,4.9 -0.3,0.1 -0.4,-0.1 -0.4,-0.2 2.1,-2.4 4.9,-3.9 7.6,-4.9 h 0.5 z"
         id="path3958"
         style="fill:#ffd500" />
      <path
         d="m 278.1,227.225 -0.7,2.2 -0.3,-0.1 c -1.4,-1.5 -2.5,-2.9 -3.5,-4.5 1,0.3 2,-0.7 2.7,0.1 z"
         id="path3960"
         style="fill:#ffd500" />
      <path
         d="m 294.6,227.225 c -1.9,-0.2 -3.9,-1.4 -5.5,0.1 -2.1,1.4 -4.5,2.7 -6.2,4.6 l -1,3.7 c -0.4,0.1 -0.5,-0.4 -0.7,-0.6 l 1.1,-4.6 c 2.5,-2.4 5.4,-3.7 8.2,-5.2 1.5,0.4 3.7,-0.1 4.1,2 z"
         id="path3962"
         style="fill:#ffd500" />
      <path
         d="m 128.4,229.025 c -0.3,0.7 -1,1 -1.7,1 -2.2,0.1 -3.6,-2.2 -5.9,-2.5 0,-0.4 -0.1,-0.9 0.4,-1 1.6,-0.1 2.9,2.1 4.5,1 l -0.1,-0.3 -2.7,-1.5 c 2.2,-1 4.2,1.6 5.5,3.3 z"
         id="path3964"
         style="fill:#ffffff" />
      <polygon
         points="121.6,228.2 121.5,228.3 121.5,228.2 "
         id="polygon3966"
         style="fill:#ffffff"
         transform="translate(-1.1,-0.97500166)" />
      <path
         d="m 292.2,230.025 c -1.5,1.5 -3.4,2.5 -5.1,3.6 -1,-0.1 -1.7,-1 -2.5,-1.5 1.2,-1.6 3.2,-2.6 4.9,-3.7 0.7,-0.1 1.2,-1 2,-0.6 0.5,0.5 0.5,1.4 0.7,2.2 z"
         id="path3968"
         style="fill:#ffd500" />
      <path
         d="m 294.8,229.225 0.6,2.2 c -0.6,0.1 -1.5,-0.4 -2,-0.9 -0.1,-0.7 -0.6,-1.6 -0.4,-2.4 0.8,0.1 1.7,0.4 1.8,1.1 z"
         id="path3970"
         style="fill:#ffd500" />
      <path
         d="m 145.2,229.825 c 0.3,0.9 0,1.7 -0.5,2.4 -1.1,1.4 -2.7,2.1 -4.2,3 0.6,-1.5 2.9,-2.7 2.6,-4.7 -0.5,0 -0.9,0.7 -1.2,1.1 0,-1.1 0.7,-2.4 1.6,-3.2 0.9,-0.1 1.4,0.7 1.7,1.4 z"
         id="path3972"
         style="fill:#ffffff" />
      <path
         d="m 124.6,230.725 c 0.4,0.6 -0.6,1.1 -1,1.4 -2.2,0.9 -4.1,-0.7 -6.4,-0.7 -0.1,-0.4 0.1,-1.1 0.6,-1 1.5,-0.4 2.7,1.2 3.7,-0.1 -0.5,-0.5 -1.5,-0.6 -2.1,-1 -0.1,-0.3 0.1,-0.6 0.4,-0.6 2,-0.2 3.3,1.1 4.8,2 z"
         id="path3974"
         style="fill:#ffffff" />
      <path
         d="m 260.4,231.525 c -1.4,1.4 -3,2.6 -4.5,3.9 -0.7,0.1 -1.6,0.1 -2.2,0 l 0.3,-0.5 6,-4.9 c 0.5,0.1 0.2,1 0.4,1.5 z"
         id="path3976"
         style="fill:#ffffff" />
      <path
         d="m 128.4,230.725 c -1.2,4.5 -3,9 -3.6,13.7 -0.4,2.5 -0.3,5.4 -0.4,8 -1,0.7 -1.9,1.9 -2.5,2.9 -1.9,-1 0.2,-3.4 -1.1,-4.9 l -1,-1.9 c 0.7,-1.5 0.5,-3.4 0.1,-5 1.5,-1.6 2,-3.6 1.6,-5.9 1.2,-1.2 2.2,-2.5 2.1,-4.4 0.9,-0.5 1.9,-1 2.5,-2.1 0.7,0 1.5,0 2.3,-0.4 z"
         id="path3978"
         style="fill:#e53138" />
      <path
         d="m 295.6,233.125 -0.1,0.4 c -2.2,2.2 -4.9,3.6 -7.4,5.2 h -0.4 c -0.2,-1.2 -0.4,-2.6 -0.2,-3.9 l 4.6,-3.4 c 1.4,0.3 2.5,1.1 3.5,1.7 z"
         id="path3980"
         style="fill:#ffd500" />
      <path
         d="m 147.6,234.025 c 0.4,1 0.3,2.2 -0.3,3.1 -1.5,2.7 -5.1,1.9 -7.6,2.9 h -0.1 l 0.1,-1.1 c 1.9,-0.9 4.9,-1 5.2,-3.4 -1.6,0.6 -3,1.7 -4.9,1.9 0,-0.7 1,-1.4 1.6,-1.7 1.5,-1 3.4,-1.5 4.4,-3.2 0.9,0 1.2,0.8 1.6,1.5 z"
         id="path3982"
         style="fill:#ffffff" />
      <path
         d="m 122.4,233.625 c 0.3,0.6 0,1.5 -0.4,2 -1.7,2.9 -5.1,0.9 -7.7,1.5 -0.7,-1.5 1,-1.7 2,-1.9 0.9,-0.4 2.4,0.7 2.7,-0.6 -0.6,-0.6 -2,-0.5 -3,-0.4 -0.3,0.1 -0.6,0.1 -0.9,0 0.3,-1 1.4,-1.7 2.4,-1.7 1.7,0.2 3.3,0.7 4.9,1.1 z"
         id="path3984"
         style="fill:#ffffff" />
      <path
         d="m 286.2,234.725 c 0.1,1.1 0.2,2.2 0.2,3.5 -1.2,-0.1 -2.2,-1.2 -3.4,-2.1 0,-1 0.1,-2 0.6,-2.9 1,0.3 2,0.8 2.6,1.5 z"
         id="path3986"
         style="fill:#ffd500" />
      <path
         d="m 260.5,235.225 c -0.6,0.4 -1.7,0.2 -2.6,0.1 0.5,-0.9 1.6,-1.5 2.4,-2.1 0.5,0.4 0.4,1.4 0.2,2 z"
         id="path3988"
         style="fill:#ffffff" />
      <path
         d="m 232.6,236.325 c 2.1,0.9 4.6,1.1 6.4,2.9 2,1.5 3.9,3.5 6.2,4.2 1.4,0.4 3,0.7 3.5,2.2 0.4,1.9 -2,2.4 -2.9,3.9 -1.6,1.4 -1.4,3.6 -2.2,5.4 -2,1.9 -3.6,4 -6.1,5.2 -2.4,1.2 -1.1,4.5 -3.9,5.4 -3.4,2 -7.6,5.1 -7,9.7 -0.1,0.9 0.5,2 -0.1,2.6 -2.6,-0.3 -2.7,-3.1 -3.9,-4.9 0.1,-2.2 -0.5,-4.4 -0.5,-6.5 0.9,-2.4 1.2,-5.1 2,-7.6 0.4,-1.6 -0.9,-2.7 -1,-4.2 -0.3,-2.2 -2.9,-2.4 -4.1,-4.1 -0.7,-2 -2,-3.9 -2.9,-5.9 -0.1,-0.9 -0.5,-2 0.1,-2.9 1,-1.1 1.7,-2.4 1.6,-4 -0.1,-1.2 -0.7,-2.4 -1.6,-3.4 1.7,0.5 3.4,-0.1 5.1,-0.2 2.6,-0.7 5.9,-1 8.4,0.4 z"
         id="path3990"
         style="fill:#ffd500" />
      <path
         d="m 160.3,237.125 -0.3,2.1 c -1.4,0.4 -2.7,-0.5 -4.2,-0.2 -0.1,-0.6 0.2,-1.4 0.7,-2 1,-0.9 2.5,-0.7 3.5,-0.3 z"
         id="path3992"
         style="fill:#ffffff" />
      <path
         d="m 164.4,237.725 c -0.5,0.6 -1.4,1.4 -2.1,1.7 -0.2,-0.6 -0.5,-1.6 0.3,-1.9 0.6,-0.1 1.2,-0.1 1.8,0.2 z"
         id="path3994"
         style="fill:#ffffff" />
      <path
         d="m 169.1,237.925 -6.2,5 h -0.2 l -0.3,-1.7 c 1.2,-1.5 2.9,-2.6 4.5,-3.7 l 2.2,0.1 z"
         id="path3996"
         style="fill:#ffffff" />
      <path
         d="m 216.7,237.625 c 0,0 0.5,1.4 -1.7,4.4 -0.5,2.9 1.4,5.1 2.4,7.5 0.3,0.5 -0.4,0.9 -0.7,0.7 h -46.3 c 0.1,-0.9 2.1,-1.4 0.9,-2.4 l -3.1,2.4 -2.4,-0.1 c 1.4,-1.6 3.4,-2.9 5,-4.5 0,-0.3 0.1,-0.7 -0.3,-0.9 l -6.4,5 c -0.5,-0.4 -0.5,-1.1 -0.5,-1.7 2,-2 4.4,-3.7 6.5,-5.7 v -0.7 h -0.5 c -2.1,1.6 -4.2,3.6 -6.5,5 -0.4,-0.5 -0.5,-1.4 -0.3,-2 l 6.9,-5.7 c 0.1,-0.5 0.8,-1.1 0.8,-1.1 z"
         id="path3998"
         style="fill:#ffffff" />
      <path
         d="m 257.4,237.825 -4.7,4 c -0.3,0.4 -0.3,0.7 -0.3,1.2 l 0.5,-0.1 6.7,-5.4 c 1.2,-0.4 0.9,1 0.9,1.7 l -8.9,7.2 c -0.1,0.5 -0.5,1.1 -0.3,1.5 3,-2.1 5.7,-4.9 8.9,-6.9 0,1 0.1,2.4 -0.7,3 l -7.6,6 h -4.7 c 0.1,-1 1.5,-1.6 2.1,-2.4 0.5,-1 0.6,-2.2 0.3,-3.2 -1.6,-1.9 -4.1,-1.9 -6.1,-3.1 -1.6,-1 -4.6,-3.7 -4.6,-3.7 h 13.9 c 0,0 0,0.9 0.3,1.2 0.9,-0.7 1.9,-1.6 3.4,-1.2 0.1,-0.2 0.7,-0.1 1,-0.1 v 0.3 z"
         id="path4000"
         style="fill:#ffffff" />
      <path
         d="m 120.4,238.225 c 0.4,1.2 0.1,2.7 -0.7,3.9 -1.9,1.9 -4.9,1.1 -7.1,2.1 -0.4,-0.1 -0.6,-0.7 -0.4,-1.2 1,-1.2 2.4,-1.5 3.7,-1.9 0.6,0 1.6,0.1 1.9,-0.9 l -0.1,-0.2 c -2.1,-0.3 -3.9,0.5 -5.5,1.5 h -0.1 c 0,-1 0.1,-2.1 1.1,-2.7 2.1,-1.6 4.7,0.1 7.2,-0.6 z"
         id="path4002"
         style="fill:#ffffff" />
      <path
         d="m 147,239.925 c 0.1,1.6 -0.5,3 -1.7,4 -1.9,1 -4.2,0.4 -6.2,0.1 -0.4,-0.6 0.1,-1.2 0.7,-1 1.2,-0.1 3.2,0.6 3.9,-0.9 l -0.1,-0.2 c -1.2,0.1 -2.9,0 -4,0 l -0.1,-0.3 c 1.4,-1.6 3.9,-1.1 5.7,-1.6 0.4,-0.1 1.5,-0.9 1.8,-0.1 z"
         id="path4004"
         style="fill:#ffffff" />
      <path
         d="m 160.2,240.725 c 0.1,0.5 0.6,1.4 0,1.9 -1.9,2.1 -4.6,1.6 -7.1,2.1 -0.4,-0.5 -0.1,-1 0,-1.4 1.2,-1 3.2,-0.4 4.2,-1.9 l -0.2,-0.1 c -1.1,0 -2.2,0.4 -3.1,0.1 1.2,-2.1 4.2,-1.2 6.2,-0.7 z"
         id="path4006"
         style="fill:#ffffff" />
      <path
         d="m 119.3,245.825 c 0.6,4 -4,4 -5.9,6.1 -0.4,0.4 -0.6,0.7 -1.1,0.7 l -0.9,-1.5 c 0.7,-1.7 2.7,-3 4.5,-3.5 0.2,-0.4 0.5,-0.6 0.5,-1 -2,0 -3.9,1.2 -5.2,3 -0.4,-0.2 -0.4,-0.9 -0.2,-1.4 0.2,-1.1 0.7,-2.7 2.1,-3.1 1.9,-0.6 3.7,-0.9 5.7,-1.1 z"
         id="path4008"
         style="fill:#ffffff" />
      <path
         d="m 159.6,244.625 c 0,1 -0.6,2 -1.2,2.7 -1.7,2.5 -4.9,2.4 -7.2,3.9 -0.4,-0.1 -0.4,-0.6 -0.2,-1 1.4,-1.2 3.4,-1.4 4.5,-3 l -0.1,-0.1 -4.4,1.5 c 0,-0.6 0.2,-1.5 0.9,-2.1 2.1,-1.6 5.3,-0.6 7.7,-1.9 z"
         id="path4010"
         style="fill:#ffffff" />
      <path
         d="m 144.2,245.625 c 0.3,1.5 -1,2.5 -2,3.4 -2.1,1.9 -5.4,0.7 -7.5,-0.2 -0.4,-0.3 -0.1,-0.7 0.1,-1 2,-0.2 4.5,1.4 6.1,-0.5 v -0.1 c -1.7,0.2 -3.6,-0.3 -5.2,-0.6 0.2,-1 1.4,-1.1 2.2,-1.2 2.2,-0.3 4.2,0.5 6.3,0.2 z"
         id="path4012"
         style="fill:#ffffff" />
      <path
         d="m 161,245.925 c 0.5,2.6 1.4,5.1 2.1,7.6 -1,1.1 -2.4,2 -3.7,2.5 -1.7,-0.7 0.1,-2.1 -0.2,-3.4 0.2,-1.4 -0.3,-2.6 -0.5,-3.7 l 2.1,-3.1 z"
         id="path4014"
         style="fill:#e53138" />
      <path
         d="m 259.5,245.825 c 0.6,2.1 -1.7,3.2 -3.1,4.4 h -2.1 v -0.3 c 1.6,-1.5 3.4,-3 5.2,-4.1 z"
         id="path4016"
         style="fill:#ffffff" />
      <path
         d="m 138.2,251.025 c 0,0.9 -0.6,1.6 -1.4,2.2 -1.1,0.9 -2.5,1.5 -4.1,1.4 -1.5,-0.4 -3,-1.1 -4.2,-2 0.2,-0.6 0.5,-1.4 1.1,-1.4 1.9,0.1 3.5,2.1 5.2,0.6 v -0.3 c -1.5,-0.1 -2.7,-0.7 -4,-1.2 -0.4,-0.9 0.9,-0.9 1.4,-1.1 2.2,0.2 3.9,1.5 6,1.8 z"
         id="path4018"
         style="fill:#ffffff" />
      <path
         d="m 158.1,251.825 c 0.6,3.5 -3.5,4.7 -5.5,6.6 -0.6,-0.2 -0.9,-0.9 -1.2,-1.4 0.5,-2.2 3.7,-2.4 4,-4.7 l -0.3,-0.1 -4.2,3.2 c -0.6,-0.9 -0.1,-2 0.2,-2.9 1.7,-1.6 4.2,-1.5 6.2,-2.7 0.8,0.2 0.7,1.2 0.8,2 z"
         id="path4020"
         style="fill:#ffffff" />
      <path
         d="m 120.2,251.925 c 0.6,3.6 -3.4,5.2 -5,7.7 -0.5,-0.1 -0.7,-0.6 -1,-1.1 0.5,-1.6 1.9,-2.9 3.1,-4.1 0.1,-0.3 0.2,-0.9 -0.1,-1 -1.4,0.9 -2.6,2.2 -3.5,3.6 -0.6,0 -0.6,-0.7 -0.7,-1.2 -0.1,-1.5 0.4,-2.9 1.7,-3.6 1.4,-0.9 2.9,-1.5 4.2,-2.2 0.8,0.2 1.1,1.2 1.3,1.9 z"
         id="path4022"
         style="fill:#ffffff" />
      <path
         d="m 140.6,251.225 c 2,4.2 5.6,9.4 11,9 -0.9,3.1 1.7,5.2 3,7.5 -0.4,2.5 1.6,4.4 3.4,5.6 -0.1,1.2 0.3,2.5 0.6,3.6 -1.6,4.6 -0.3,9.6 2.7,13.2 5.9,7 14.3,8.6 23.2,9 h 2.1 c 2.6,1.6 5.5,2.5 8.9,2.1 2.7,-0.1 5.5,-0.7 8,-1.7 0.4,0.9 -0.6,1.5 -1.1,1.9 -2.9,2.1 -6.5,2.6 -9.7,3.9 -6.4,4 -14.7,3.4 -22.3,2.5 -4.5,-0.5 -8.4,-2.6 -12.5,-4.1 -8.1,-4.4 -15.2,-11.4 -23.5,-15.2 l -3.1,-1 c -0.4,-1.6 -2.1,-2.7 -3.1,-3.9 0.3,-2.2 -0.9,-4.2 -2.5,-5.9 l 0.3,-1.7 c 1,-3.9 1.6,-8.1 1.5,-12.5 -0.6,-1.5 0.5,-2.6 1.1,-3.7 0.4,-0.1 0.9,-0.1 1,0.4 1.4,4.7 -0.3,9.6 -1,14.2 0.1,0.2 0.1,0.5 0.4,0.6 l 0.6,-0.7 c 0.6,-2.2 1.1,-4.5 1.4,-6.9 -0.2,0.1 -0.4,0 -0.2,-0.2 l 0.2,-0.1 c 0.4,-2.5 0.1,-5.2 -0.4,-7.5 1.4,-1 2.9,-2.2 3.9,-3.7 2.2,-0.5 4.4,-2.1 5.2,-4.4 0.2,-0.5 0.5,-0.6 0.9,-0.3 z"
         id="path4024"
         style="fill:#ffd500" />
      <path
         d="m 169.7,252.425 c -0.9,1.4 -2.2,2.2 -3.6,3.1 -0.4,-0.5 -1.1,-1.4 -0.5,-1.9 1.1,-1.1 2.6,-1.6 4.1,-1.2 z"
         id="path4026"
         style="fill:#ffffff" />
      <path
         d="m 219.5,252.425 c 0.9,1 2.9,1 2.7,2.7 0.4,1.6 1.6,3.5 0.5,5.2 l -1.1,4.2 h -41.2 c 0.1,-0.4 -0.1,-0.7 -0.5,-1 -0.6,0.1 -1.1,0.9 -1.9,1.1 l -2.5,-0.1 c 0.7,-1 2,-1.9 2.9,-2.7 -0.1,-0.4 -0.4,-0.9 -0.9,-0.5 -2.1,1.1 -3.5,4.4 -6.5,3.1 1.6,-1.9 4,-3.2 5.6,-5 0,-0.2 -0.1,-0.6 -0.4,-0.7 l -6,4.6 c -0.6,-0.1 -0.5,-0.9 -0.9,-1.2 1.6,-1.9 3.7,-3.4 5.6,-5 0.2,-0.4 0,-0.6 -0.3,-0.9 -2.1,1.4 -4,3.1 -6,4.6 -0.5,-0.4 -0.9,-0.9 -0.9,-1.5 1.9,-1.7 4.1,-3.2 5.9,-5.2 0,-0.3 -0.3,-0.5 -0.5,-0.6 l -6,4.6 c -0.5,-0.3 -0.5,-0.9 -0.7,-1.4 1.6,-1.5 3.6,-3 5.5,-4.4 h 47.6 z"
         id="path4028"
         style="fill:#ffffff" />
      <path
         d="m 249.4,252.425 c 0.4,0.4 -0.6,1.4 0.2,1.2 0.9,-1.2 2.4,-1.5 3.7,-1.2 l -0.2,0.5 c -2.6,2.6 -6.5,4.4 -8,7.7 l 1,-0.6 9.5,-7.6 h 2 l -0.1,1 -13.9,11.4 -7.4,-0.1 c -0.3,-3 3,-4.4 5,-6 1.4,-1.6 4,-2.9 3.9,-5.4 l 0.4,-0.9 z"
         id="path4030"
         style="fill:#ffffff" />
      <path
         d="m 132.5,255.725 c 0.4,0.4 -0.1,0.7 -0.4,1 -1.2,1.1 -2.6,1.9 -4.4,1.7 -1.7,0 -3,-1.4 -4.5,-2 -0.4,-0.4 0.1,-0.7 0.3,-1 2.1,-0.6 3.6,2.4 5.6,0.7 l -0.5,-0.3 c -1.5,-0.4 -2.9,-1.4 -4.4,-1.7 0.3,-0.6 1,-0.9 1.6,-1 2.6,0.2 4.3,2.2 6.7,2.6 z"
         id="path4032"
         style="fill:#ffffff" />
      <path
         d="m 169.9,266.425 c -1.5,1.2 -3.1,2.2 -4.7,3.4 l -2.4,-2.4 c 0.5,-3 -1.2,-5.2 -2.9,-7.2 0.5,-1.2 -1,-2.7 0.4,-3.4 l 3.2,-1.9 c 1.8,4 3.8,8 6.4,11.5 z"
         id="path4034"
         style="fill:#ffd500" />
      <path
         d="m 122.4,258.325 c 0.9,2.5 -0.7,4.7 -2,6.9 -0.6,0.1 -1.4,-0.1 -1.9,-0.5 -0.5,-2 2.2,-3.4 1,-5.2 -0.7,1.2 -1.6,2.7 -2.1,4.2 -0.7,0.2 -1,-1 -1.5,-1.5 -0.5,-2 1.7,-3.2 2.9,-4.6 l 1.6,-1.7 c 1.1,0.3 1.5,1.5 2,2.4 z"
         id="path4036"
         style="fill:#ffffff" />
      <polygon
         points="257.4,256.9 257.5,257.2 256,260.4 249.3,265.8 246.8,265.6 "
         id="polygon4038"
         style="fill:#ffffff"
         transform="translate(-1.1,-0.97500166)" />
      <path
         d="m 158.7,258.025 c 0.9,3.4 -1.9,5.7 -3.6,8.1 -0.6,-0.6 -1.9,-1.5 -1.2,-2.4 0.9,-1.6 3.1,-2.9 2.1,-4.7 -0.9,1.2 -1.9,2.7 -2.9,4 -0.6,-0.1 -0.5,-0.9 -0.6,-1.4 0.1,-2.9 3.4,-3.9 5.1,-5.5 0.6,0.3 0.9,1.3 1.1,1.9 z"
         id="path4040"
         style="fill:#ffffff" />
      <path
         d="m 127.1,259.725 c -0.3,0.7 -0.7,1.4 -1.2,1.9 l -2.2,-0.9 v -2.7 z"
         id="path4042"
         style="fill:#ffffff" />
      <path
         d="m 145.9,261.425 c -0.2,0.5 -1,0.7 -1.5,0.4 -1.4,-0.7 -2.4,-2.2 -2.2,-3.7 0.9,1.4 2.3,2.4 3.7,3.3 z"
         id="path4044" />
      <path
         d="m 126,263.425 c 0.2,2.7 -0.1,5.5 -0.6,8 -0.4,0.5 -0.7,0 -1.1,-0.1 -0.6,-1.7 1.4,-3.5 -0.1,-5.1 l -0.3,0.4 -0.7,3.6 c -1,0 -1.7,-1.1 -2.2,-1.9 -0.5,-2.5 1.7,-4.2 2.6,-6.4 0.9,0.1 1.8,0.6 2.4,1.5 z"
         id="path4046"
         style="fill:#ffffff" />
      <path
         d="m 161.8,266.625 c -0.1,2.2 -1.7,3.7 -3.1,5.5 -0.5,0 -1,-0.5 -1.5,-0.7 0,-1.4 1.4,-2.4 1.7,-3.7 0,-0.6 0.1,-1.2 -0.1,-1.7 l -2.5,4.1 c -0.7,-0.2 -0.6,-1.2 -0.7,-1.9 0.7,-2.4 2.9,-4.2 4,-6.2 1.5,0.9 2.4,2.8 2.2,4.6 z"
         id="path4048"
         style="fill:#ffffff" />
      <path
         d="m 252.9,262.725 c -0.6,0.7 -1,2.7 -2.5,2.1 l -0.1,-0.1 c 0.7,-0.9 1.6,-1.5 2.6,-2 z"
         id="path4050"
         style="fill:#ffffff" />
      <path
         d="m 119.7,266.425 c -0.6,0.7 -1.7,1.1 -2.6,1.9 -0.5,-0.7 -0.3,-2.2 0.3,-2.9 z"
         id="path4052"
         style="fill:#ffffff" />
      <path
         d="m 220.7,266.925 c 0,0 1,3.9 0.9,5.7 0.1,1.7 1.5,3 1.7,4.6 -0.5,1.5 -2.1,1 -3.4,1.1 l -0.1,-0.1 1.2,-1.2 c -1.2,-0.4 -2.2,0.7 -3.4,1.4 h -2.7 c 0.1,-0.7 -0.6,-0.5 -1.1,-0.5 -0.9,0.9 -2.6,0.4 -3.7,0.4 -0.3,-0.5 -1.2,-0.4 -1.6,-0.1 -0.9,0.4 -2,0.3 -3,0.1 0.1,-0.1 0.4,-0.5 0.1,-0.6 -1,-0.6 -1.5,0.5 -2.2,0.7 l -2.6,-0.1 1.1,-1.1 c -1.4,-1.4 -2.2,1.1 -3.5,1.2 -0.5,-0.1 -1.4,0.1 -1.7,-0.3 l 2.1,-2 c -0.2,-0.3 -1,-0.6 -1.2,-0.1 l -3,2.4 -2.4,-0.1 c 1,-1.1 2.5,-2 3.5,-3.2 l -0.7,-0.4 -4.9,3.7 -2.6,-0.1 c 1.5,-1.6 3.7,-3 5.1,-4.7 -1.1,-1 -2,1 -3,1.4 l -4.1,3.2 c -0.6,0.1 -1,-0.6 -1.5,-0.9 1.6,-2 4,-3.2 5.9,-5.1 0,-0.4 -0.4,-0.5 -0.7,-0.6 -2.1,1.4 -4,3.4 -6.2,4.9 -0.5,-0.1 -1,-0.5 -1.4,-1 1.7,-1.7 4,-3.4 5.6,-5.1 -0.1,-0.4 -0.7,-0.7 -1,-0.4 l -5.6,4.6 c -0.6,-0.1 -1,-0.7 -1.5,-1.1 1.7,-1.9 4,-3.2 5.6,-5.1 -0.2,-0.7 -1,-0.5 -1.4,0 l -5.1,4.1 c -0.6,-0.1 -1,-0.7 -1.4,-1.1 1.4,-1.7 5.1,-4.4 5.1,-4.4 h 38.8 z"
         id="path4054"
         style="fill:#ffffff" />
      <path
         d="m 249.5,267.525 -13.2,10.9 -2.5,-0.1 c 4.5,-4 9.1,-7.9 13.9,-11.5 l 2,0.1 z"
         id="path4056"
         style="fill:#ffffff" />
      <path
         d="m 175.3,267.025 c -0.5,0.4 -1,1.4 -1.7,0.9 -0.2,-0.3 -0.9,-0.6 -0.4,-1 0.6,0 1.6,-0.3 2.1,0.1 z"
         id="path4058"
         style="fill:#ffffff" />
      <path
         d="m 179.5,267.125 c -1.2,1 -2.6,2.4 -4,3 -0.4,-0.4 -1.2,-0.9 -0.6,-1.2 1.4,-1.1 2.9,-2.8 4.6,-1.8 z"
         id="path4060"
         style="fill:#ffffff" />
      <path
         d="m 245.3,267.025 c 0,0 -9,7.7 -13.6,11.4 l -2.4,-0.1 c 4.5,-3.9 13.6,-11.4 13.6,-11.4 z"
         id="path4062"
         style="fill:#ffffff" />
      <path
         d="m 240.6,267.325 -12.4,10.2 c -0.6,-0.3 -0.5,-1.1 -0.5,-1.9 l 1.2,-1.5 c -0.4,-0.4 -1,0.7 -1.4,0 0.1,-3.4 3.4,-5.5 5.7,-7.2 h 7.2 v 0.4 z"
         id="path4064"
         style="fill:#ffffff" />
      <path
         d="m 120.9,269.925 1.1,1.4 c -0.9,1.9 -2.7,3.4 -4.1,5.1 -0.5,0 -0.6,-0.5 -0.7,-0.7 0.2,-1.7 1.5,-3 2.6,-4.2 -0.5,-0.5 -1.1,0 -1.6,0.3 -0.6,0.6 -0.9,1.5 -1.5,2.2 -0.6,-1.4 -0.3,-3.2 0.7,-4.5 0.7,-0.5 1.4,-1.5 2.4,-1.2 z"
         id="path4066"
         style="fill:#ffffff" />
      <path
         d="m 164.8,272.825 c 0,2.1 -1.2,3.6 -2.2,5.4 -0.6,0.4 -1.2,-0.2 -1.6,-0.6 l -0.1,-0.4 c 0.4,-1.7 2.5,-3.1 1.5,-5 l -2.5,4.1 c -0.6,-0.3 -0.7,-1.1 -0.9,-1.7 0.4,-2.2 2.6,-3.5 3.4,-5.5 0.3,-0.1 0.5,-0.2 0.7,-0.1 1,1 1.7,2.3 1.7,3.8 z"
         id="path4068"
         style="fill:#ffffff" />
      <path
         d="m 125.1,273.025 c 0,0.4 0,0.6 -0.3,0.7 -0.5,-0.4 -0.9,-0.7 -1,-1.2 0.6,0 1,0.1 1.3,0.5 z"
         id="path4070"
         style="fill:#e53138" />
      <path
         d="m 124.6,277.525 c -0.3,2.2 -2,3.7 -3.4,5.6 -0.6,0.4 -1.1,-0.5 -1.6,-1 -0.5,-1 0.6,-1.9 1,-2.7 0.4,-1 1.6,-1.7 0.9,-3 -1.1,1.2 -2,2.9 -2.9,4.2 -0.5,-0.5 -0.6,-1.4 -0.5,-2.1 0.5,-2.2 2.9,-3.7 4.2,-5.6 1.6,1 2.2,2.9 2.3,4.6 z"
         id="path4072"
         style="fill:#ffffff" />
      <path
         d="m 168.9,279.125 c -0.3,2.4 -2.5,3.6 -4,5.2 -0.5,-0.3 -1,-0.6 -1.2,-1.1 0.7,-1.7 3,-2.9 2.4,-5 -1,1.1 -1.9,2.6 -3,3.5 -1,-3 2.2,-5 3,-7.6 1.7,1 2.7,3 2.8,5 z"
         id="path4074"
         style="fill:#ffffff" />
      <path
         d="m 156,276.325 c 0.1,1 -0.4,2.1 -0.3,3.4 0,1.4 0.3,2.6 0.4,4 v 0.1 c -1.4,-1.7 -2.2,-4.4 -1.4,-6.6 0.3,-0.6 0.8,-0.9 1.3,-0.9 z"
         id="path4076" />
      <path
         d="m 161.8,279.525 c -0.2,1.6 0.3,3.2 1.1,4.5 l 1.2,1.5 c -1.1,1.9 -0.5,4.4 0.4,6.1 -4.1,-3.1 -6.4,-7.7 -5.5,-13 l 0.5,-0.7 z"
         id="path4078"
         style="fill:#e53138" />
      <path
         d="m 127,283.125 c -0.3,2.6 -2.2,4.5 -3.4,6.7 -0.5,0.1 -0.6,-0.5 -0.9,-0.6 0.1,-2.1 2.1,-3.5 1.9,-5.7 h -0.3 c -1,1.4 -1.7,2.9 -2.5,4.4 -0.6,-0.6 -0.7,-1.7 -0.5,-2.7 0.7,-2.2 3.1,-3.7 4,-5.9 1.5,0.7 1.8,2.2 1.7,3.8 z"
         id="path4080"
         style="fill:#ffffff" />
      <path
         d="m 191.4,280.925 c -0.1,0.5 -1,0.3 -1.1,0 z"
         id="path4082"
         style="fill:#ffffff" />
      <path
         d="m 195.4,280.925 c -0.2,0.6 -1,1.1 -1.6,1.5 -0.5,0 -1,-0.1 -1.2,-0.5 0.4,-1.3 1.7,-1 2.8,-1 z"
         id="path4084"
         style="fill:#ffffff" />
      <path
         d="m 197.3,283.625 c -0.7,0 -1.4,-0.4 -2,-0.7 0.5,-0.7 1.5,-1.4 2.2,-2 h 2.7 z"
         id="path4086"
         style="fill:#ffffff" />
      <path
         d="m 205,280.925 c -1.4,1.4 -3,2.7 -4.6,3.6 l -1.6,-0.5 c 0.9,-1.2 2.4,-2.1 3.5,-3.1 z"
         id="path4088"
         style="fill:#ffffff" />
      <path
         d="m 209.7,281.125 -5.1,4.1 c -0.6,0 -1.5,-0.1 -2.1,-0.4 1.1,-1.6 3,-2.9 4.5,-4 h 2.7 z"
         id="path4090"
         style="fill:#ffffff" />
      <path
         d="m 214.5,280.925 c -1.6,1.9 -3.7,3.4 -5.7,4.7 l -2.1,-0.3 0.1,-0.4 5.1,-4.1 h 2.6 z"
         id="path4092"
         style="fill:#ffffff" />
      <path
         d="m 219,280.925 c -1.7,1.9 -3.9,3.4 -5.7,4.9 -0.7,-0.1 -1.6,0.1 -2.1,-0.2 1.7,-1.6 3.7,-3.2 5.7,-4.6 h 2.1 z"
         id="path4094"
         style="fill:#ffffff" />
      <path
         d="m 224,280.925 c -1.5,1.6 -3.4,2.9 -5.1,4.2 -1,0.3 -2.1,0.4 -3.1,0.3 l 0.2,-0.4 5.2,-4.1 z"
         id="path4096"
         style="fill:#ffffff" />
      <path
         d="m 228.6,280.925 c -1.2,1.1 -2.1,2 -3.4,3 -1.1,0.3 -2.4,0.6 -3.5,0.5 l 4.4,-3.5 z"
         id="path4098"
         style="fill:#ffffff" />
      <path
         d="m 232.5,280.925 c -1,0.7 -2.2,1 -3.5,1.5 0.1,-0.6 1.2,-0.9 1.7,-1.5 z"
         id="path4100"
         style="fill:#ffffff" />
      <path
         d="m 170.8,284.125 c 0.5,2.5 -0.9,4.6 -2.7,6.2 l -1.9,1.2 c -1.9,-1.2 0.9,-2.5 1.4,-3.7 0.6,-0.5 0.5,-1.4 0.5,-2.2 h -0.2 l -3,3.6 c -0.4,-0.5 -0.6,-1.2 -0.4,-2 0.9,-2.4 3.1,-3.7 4.7,-5.6 1,0.4 1.4,1.6 1.6,2.5 z"
         id="path4102"
         style="fill:#ffffff" />
      <path
         d="m 141.9,287.525 c 8.2,5.5 15.6,12.9 25,15.5 3.4,1 7.2,1.4 11,1.6 v 0.1 c -0.7,0.6 -1.9,0.7 -2.9,0.6 -6.2,-0.4 -12,-2.1 -17.1,-5.2 l -19.2,-13.5 c -2.2,-1.1 -4.7,-1.7 -7.2,-1.7 0.2,-0.5 0.9,-0.7 1.4,-0.9 3.3,0 6.2,1.7 9,3.5 z"
         id="path4104" />
      <path
         d="m 120.3,286.425 0.2,1 -0.6,0.5 c -0.1,-0.6 -1.2,0 -1.5,-0.7 0.1,-1.2 1,-2 1.6,-3 1,0.3 0,1.4 0.3,2.2 z"
         id="path4106"
         style="fill:#ffd500" />
      <path
         d="m 129.9,287.025 c 1.6,2.9 -0.5,5.7 -1.2,8.4 -0.6,0.5 -1.2,-0.4 -1.9,-0.6 -0.1,-2.1 2,-3.9 0.9,-6 -0.7,1.5 -1.2,3.2 -1.9,5 -0.5,0 -1,-0.5 -1.1,-1 -0.7,-1.5 0.4,-2.9 1,-4.1 l 2.1,-3.5 c 1,0.2 1.7,1 2.1,1.8 z"
         id="path4108"
         style="fill:#ffffff" />
      <path
         d="m 215.9,291.125 c 1.2,-0.4 2.6,-0.7 3.9,-0.7 -5.4,4.4 -13.5,2.9 -20.2,2.4 -4.5,-0.6 -9,-1.6 -13.2,-3 -0.5,-0.5 -1.1,-1 -1.2,-1.6 9.6,2.5 19.9,4.8 30.7,2.9 z"
         id="path4110"
         style="fill:#ffd500" />
      <path
         d="m 149.6,299.725 c -0.6,0.4 -1.5,0.3 -2.1,0.4 -1.4,-2.1 -3.6,-3 -6,-3.1 -1,-2 -3,-2.9 -4.9,-3.5 -0.3,-2.5 -2.9,-3.7 -4.9,-4.5 l 0.2,-0.2 c 7,1.4 12,7.2 17.7,10.9 z"
         id="path4112"
         style="fill:#e53138" />
      <path
         d="m 171.6,291.425 c 0.1,1.5 -0.5,2.6 -1.4,3.7 -0.5,0.1 -1,-0.3 -1.4,-0.6 0.6,-0.5 0.9,-1.2 0.7,-2 -1,0.1 -1.9,2.4 -2.9,0.9 1.1,-1.6 2.7,-2.6 4.1,-4.1 0.9,0.2 0.7,1.3 0.9,2.1 z"
         id="path4114"
         style="fill:#ffffff" />
      <path
         d="m 188.8,298.625 c -0.6,0.3 -1.1,-0.4 -1.4,-0.9 -1.2,-2.7 -2.5,-5.5 -3.4,-8.4 l 1.1,0.9 z"
         id="path4116"
         style="fill:#ffd500" />
      <path
         d="m 135,292.525 c 1,2.7 -0.7,5.2 -0.9,8 -0.6,0.1 -1.4,0.1 -1.9,-0.4 -0.5,-2.1 1.5,-4.2 -0.1,-6.1 l -0.3,0.3 -0.7,5.1 c -0.5,0 -1.1,-0.7 -1.2,-1.2 -1.1,-2.7 1.1,-4.7 1.5,-7.2 0.4,-1 1.4,-0.1 2,0 0.6,0.1 1.2,0.8 1.6,1.5 z"
         id="path4118"
         style="fill:#ffffff" />
      <path
         d="m 215.6,294.025 c -0.5,1.7 -1.7,3.2 -2.9,4.7 -5.5,6 -12.1,11 -19.3,13.5 l -1.7,0.4 c 0.3,-2 1,-4 1.2,-6.1 4,-1.9 8.9,-2.1 11.9,-6.1 0.1,-0.6 0.6,-1.6 -0.1,-2 -1.7,-0.5 -2.9,1 -4.5,1.1 -3,0.6 -6.7,1.4 -9.6,0.1 -1.4,-2.6 -2.5,-5.4 -3.5,-8.1 l 0.1,-0.2 c 8.9,2.3 18.9,3.9 28.4,2.7 z"
         id="path4120"
         style="fill:#ffd500" />
      <path
         d="m 220,292.025 c -1,2.6 -3.1,4.7 -4.9,7.1 -7.1,8.5 -16.5,13.6 -26,17.2 0.4,-0.7 1.1,-1.7 1.9,-2.4 7.9,-1.6 14.2,-6.6 20.3,-12.1 2.6,-2.5 4.5,-5.5 6.1,-8.5 1,-0.5 1.7,-1.1 2.6,-1.3 z"
         id="path4122"
         style="fill:#ffd500" />
      <path
         d="m 140.9,298.325 c 0.5,2.2 -0.4,4.9 0.3,7.2 -0.7,0.2 -1.5,-0.1 -2.1,-0.4 -0.9,-1.9 0.5,-4.7 -1.2,-6.4 l -0.1,0.2 v 5.4 c -0.7,0 -1.6,-1 -2,-1.7 -0.7,-2.6 0.4,-5.2 0.9,-7.7 1.1,-0.3 2.1,0.5 3,1.2 z"
         id="path4124"
         style="fill:#ffffff" />
      <path
         d="m 144.9,299.325 c 1,0.1 1.5,1.2 2,2 0.9,2 0.5,4.6 1.2,6.6 -0.4,0.6 -1.5,0.4 -2.1,0.1 -1,-1.7 -0.3,-4.5 -2.2,-5.9 0.1,1.9 0.5,3.7 0.9,5.5 -0.4,0.4 -1,-0.1 -1.2,-0.5 -2.6,-2.2 -0.9,-5.7 -1.2,-8.7 0.8,-0.2 1.9,0.1 2.6,0.9 z"
         id="path4126"
         style="fill:#ffffff" />
      <path
         d="m 156.2,308.825 c -0.7,0.3 -1.6,0.5 -2.4,0.3 -1.4,-1.4 -1.2,-3.9 -3.5,-4.5 l 0.1,0.6 2.1,4 c -1.2,0.2 -2.6,-0.1 -3.2,-1.2 -1.1,-1.9 -0.6,-4.5 -1.2,-6.5 1.5,-0.7 3.1,0 4.2,0.9 l 1.7,2 z"
         id="path4128"
         style="fill:#ffffff" />
      <path
         d="m 163.1,307.125 c -0.3,0.3 -0.4,0.9 -0.9,0.7 -1.4,-0.3 -2.2,-2 -3.9,-1.5 v 0.2 l 2.6,1.9 c 0,0.6 -1,0.9 -1.6,0.9 -2.9,-0.5 -3.2,-3.7 -4.4,-5.7 l 0.1,-0.1 c 2.6,1.7 5.5,2.2 8.1,3.6 z"
         id="path4130"
         style="fill:#ffffff" />
      <path
         d="m 191.4,308.825 c -0.5,2.5 -1.1,5.1 -3.4,6.7 0.3,-2.1 1.4,-4.4 1.6,-6.9 -0.1,-1 1,-1.2 1.6,-1.5 0.6,0.3 0.3,1.2 0.2,1.7 z"
         id="path4132"
         style="fill:#ffd500" />
      <path
         d="m 189.8,109.825 c -0.6,0.1 -1,0.1 -1.2,0.3 -0.3,0.2 -0.4,0.4 -0.3,0.6 0.3,0.5 1.9,-0.6 2.6,0.6 0.4,0.7 0.1,1.4 -0.7,1.8 -0.6,0.3 -1,0.3 -1.4,0.4 l -0.4,-0.8 c 0.7,0.1 1,0 1.4,-0.2 0.3,-0.2 0.4,-0.4 0.3,-0.6 -0.3,-0.6 -1.9,0.6 -2.6,-0.7 -0.3,-0.6 -0.1,-1.3 0.7,-1.7 0.4,-0.2 0.8,-0.3 1.3,-0.4 z"
         id="path4134" />
      <path
         d="m 194.5,111.825 -2.8,0.5 -0.7,-4 2.7,-0.5 0.1,0.7 -1.8,0.3 0.2,0.8 1.7,-0.3 0.1,0.7 -1.7,0.3 0.2,1 1.8,-0.3 z"
         id="path4136" />
      <path
         d="m 198.4,107.825 h 0.8 l -0.1,4 h -1 l 0.1,-2.5 -1.1,1.2 H 197 l -1,-1.3 -0.1,2.5 h -1 l 0.1,-4 h 0.8 l 1.2,1.5 z"
         id="path4138" />
      <path
         d="m 201.3,108.825 h 0.3 c 0.5,0.1 0.7,0.2 0.6,0.5 0,0.3 -0.2,0.4 -0.6,0.4 l -0.4,-0.1 z m -0.9,-0.8 -0.5,4 1,0.1 0.2,-1.6 0.8,0.1 c 0.9,0.1 1.3,-0.5 1.4,-1.1 0.1,-0.5 -0.2,-1.2 -1.1,-1.3 z"
         id="path4140" />
      <path
         d="m 206.4,112.925 -2.8,-0.4 0.6,-4 2.8,0.4 -0.1,0.7 -1.8,-0.3 -0.1,0.8 1.7,0.3 -0.1,0.7 -1.7,-0.3 -0.2,1 1.9,0.3 z"
         id="path4142" />
      <path
         d="m 208.6,109.925 0.5,0.1 c 0.4,0.1 0.5,0.2 0.5,0.5 -0.1,0.3 -0.3,0.4 -0.6,0.4 l -0.5,-0.1 z m -0.8,-0.9 -0.7,4 0.9,0.2 0.3,-1.6 h 0.3 c 0.5,0.1 0.5,0.9 0.8,1.8 l 1,0.2 c -0.3,-1.3 -0.4,-1.8 -0.7,-2 0.5,-0.1 0.7,-0.4 0.8,-0.9 0.1,-0.6 -0.3,-1.2 -1.1,-1.4 z"
         id="path4144" />
      <path
         d="m 215.5,110.825 -1.7,-0.2 -0.1,0.9 1.7,0.2 -0.1,0.7 -1.7,-0.2 -0.2,1.7 -1,-0.1 0.4,-4 2.6,0.3 z"
         id="path4146" />
      <path
         d="m 217.1,114.125 h -1 v -4 h 1 z"
         id="path4148" />
      <path
         d="m 218.8,110.725 0.6,-0.1 c 0.9,-0.1 1.3,0.5 1.4,1.1 0.1,0.6 -0.2,1.3 -1.1,1.4 l -0.6,0.1 z m -1.1,-0.6 0.4,4 1.6,-0.2 c 1.5,-0.2 2.1,-1.1 2,-2.2 -0.1,-1.1 -0.9,-1.9 -2.3,-1.8 z"
         id="path4150" />
      <path
         d="m 225.7,113.025 -2.8,0.5 -0.8,-4 2.7,-0.5 0.1,0.7 -1.8,0.4 0.2,0.8 1.7,-0.3 0.1,0.7 -1.7,0.3 0.2,1 1.8,-0.4 z"
         id="path4152" />
      <path
         d="m 229.4,112.025 -2.8,0.8 -1.1,-3.9 0.9,-0.3 0.9,3.2 1.9,-0.5 z"
         id="path4154" />
      <path
         d="m 231,111.425 -0.9,0.3 -1.3,-3.8 0.9,-0.3 z"
         id="path4156" />
      <path
         d="m 233.2,107.325 c -0.6,0 -1,0 -1.3,0.2 -0.3,0.1 -0.5,0.4 -0.4,0.5 0.3,0.6 2,-0.4 2.5,0.9 0.3,0.7 -0.1,1.4 -0.8,1.7 -0.6,0.3 -1,0.2 -1.4,0.2 l -0.4,-0.8 c 0.7,0.1 1,0.1 1.4,-0.1 0.3,-0.2 0.5,-0.4 0.4,-0.6 -0.3,-0.6 -2,0.4 -2.6,-0.9 -0.3,-0.6 0,-1.3 0.9,-1.7 0.4,-0.2 0.8,-0.2 1.3,-0.2 z"
         id="path4158" />
    </g>
  </g>
</svg>
