<?xml version="1.0" encoding="UTF-8" standalone="no"?>
<!-- Created with Inkscape (http://www.inkscape.org/) -->

<svg
   width="13.020921mm"
   height="16mm"
   viewBox="0 0 13.02092 16"
   version="1.1"
   id="svg1"
   inkscape:version="1.3.2 (091e20e, 2023-11-25, custom)"
   sodipodi:docname="MW.svg"
   xmlns:inkscape="http://www.inkscape.org/namespaces/inkscape"
   xmlns:sodipodi="http://sodipodi.sourceforge.net/DTD/sodipodi-0.dtd"
   xmlns:xlink="http://www.w3.org/1999/xlink"
   xmlns="http://www.w3.org/2000/svg"
   xmlns:svg="http://www.w3.org/2000/svg">
  <sodipodi:namedview
     id="namedview1"
     pagecolor="#ffffff"
     bordercolor="#666666"
     borderopacity="1.0"
     inkscape:showpageshadow="2"
     inkscape:pageopacity="0.0"
     inkscape:pagecheckerboard="0"
     inkscape:deskcolor="#d1d1d1"
     inkscape:document-units="mm"
     inkscape:zoom="1.4828509"
     inkscape:cx="-26.637876"
     inkscape:cy="17.196604"
     inkscape:window-width="3440"
     inkscape:window-height="1377"
     inkscape:window-x="-8"
     inkscape:window-y="-8"
     inkscape:window-maximized="1"
     inkscape:current-layer="layer1" />
  <defs
     id="defs1">
    <linearGradient
       id="linearGradient8"
       inkscape:collect="always">
      <stop
         style="stop-color:#000000;stop-opacity:1;"
         offset="0"
         id="stop8" />
      <stop
         style="stop-color:#000000;stop-opacity:0;"
         offset="1"
         id="stop9" />
    </linearGradient>
    <linearGradient
       id="linearGradient3"
       inkscape:collect="always">
      <stop
         style="stop-color:#2b2b2b;stop-opacity:1;"
         offset="0"
         id="stop3" />
      <stop
         style="stop-color:#ffffff;stop-opacity:1;"
         offset="1"
         id="stop4" />
    </linearGradient>
    <linearGradient
       id="linearGradient1"
       inkscape:collect="always">
      <stop
         style="stop-color:#000000;stop-opacity:1;"
         offset="0"
         id="stop1" />
      <stop
         style="stop-color:#000000;stop-opacity:0;"
         offset="1"
         id="stop2" />
    </linearGradient>
    <linearGradient
       inkscape:collect="always"
       xlink:href="#linearGradient1"
       id="linearGradient2"
       x1="118.14017"
       y1="143.57944"
       x2="94.403618"
       y2="93.820709"
       gradientUnits="userSpaceOnUse"
       gradientTransform="matrix(0.95510438,0,0,1.0182852,1.8917654,-2.750111)" />
    <linearGradient
       inkscape:collect="always"
       xlink:href="#linearGradient3"
       id="linearGradient4"
       x1="102.6459"
       y1="86.42524"
       x2="120.16719"
       y2="162.12617"
       gradientUnits="userSpaceOnUse" />
    <linearGradient
       inkscape:collect="always"
       xlink:href="#linearGradient8"
       id="linearGradient9"
       x1="96.636955"
       y1="92.623573"
       x2="115.48242"
       y2="179.42731"
       gradientUnits="userSpaceOnUse"
       gradientTransform="matrix(0.94587938,0,0,0.94587938,5.2282044,6.75963)" />
  </defs>
  <g
     inkscape:label="Layer 1"
     inkscape:groupmode="layer"
     id="layer1"
     transform="translate(-79.683594,-102.89844)">
    <g
       id="text2" />
    <g
       id="g4"
       transform="matrix(0.30275708,0,0,0.30275708,55.558822,71.745209)">
      <g
         id="rect1">
        <path
           style="color:#000000;fill:url(#linearGradient2);-inkscape-stroke:none;paint-order:markers stroke fill"
           d="m 83.611328,102.89844 c -2.078278,0 -3.927734,1.60192 -3.927734,3.71094 v 45.42578 c 0,2.10901 1.849456,3.71093 3.927734,3.71093 h 35.150392 c 2.07828,0 3.92969,-1.60192 3.92969,-3.71093 v -45.42578 c 0,-2.10902 -1.85141,-3.71094 -3.92969,-3.71094 z m 0,3 h 35.150392 c 0.61204,0 0.92969,0.37002 0.92969,0.71094 v 45.42578 c 0,0.34091 -0.31765,0.71093 -0.92969,0.71093 H 83.611328 c -0.612046,0 -0.927734,-0.37002 -0.927734,-0.71093 v -45.42578 c 0,-0.34092 0.315688,-0.71094 0.927734,-0.71094 z"
           id="path1" />
        <path
           style="color:#000000;fill:url(#linearGradient4);-inkscape-stroke:none;paint-order:markers stroke fill"
           d="m 83.611374,104.39824 h 35.151076 c 1.34517,0 2.4281,0.98616 2.4281,2.21112 v 45.42614 c 0,1.22497 -1.08293,2.21113 -2.4281,2.21113 H 83.611374 c -1.345164,0 -2.428093,-0.98616 -2.428093,-2.21113 v -45.42614 c 0,-1.22496 1.082929,-2.21112 2.428093,-2.21112 z"
           id="path2" />
      </g>
      <path
         style="color:#000000;-inkscape-font-specification:'DejaVu Sans Bold Semi-Condensed';fill:#1a1a1a;-inkscape-stroke:none"
         d="m 84.537227,108.46769 h 9.720131 l 6.744582,17.61085 6.78866,-17.61085 h 9.69809 v 32.90739 h -7.22948 v -24.0689 l -6.81071,17.7431 h -4.849042 l -6.810704,-17.7431 v 24.0689 h -7.251527 z"
         id="path3" />
      <path
         style="color:#000000;-inkscape-font-specification:'DejaVu Sans Bold Semi-Condensed';fill:url(#linearGradient9);-inkscape-stroke:none"
         d="m 83.373047,107.30273 v 35.23633 h 9.580078 v -18.94922 l 4.845703,12.625 H 104.25 l 4.84375,-12.61914 v 18.94336 h 9.56055 v -35.23633 h -11.66211 l -5.98633,15.5293 -5.947266,-15.5293 z m 2.328125,2.33008 h 7.755859 l 7.541019,19.69336 7.59179,-19.69336 h 7.73438 v 30.57813 h -4.90039 v -22.9043 l -2.25195,-0.41797 -6.52344,16.9961 h -3.248049 l -6.523438,-16.9961 -2.253906,0.41797 v 22.9043 h -4.921875 z"
         id="path4" />
      <path
         style="-inkscape-font-specification:'DejaVu Sans Bold Semi-Condensed';stroke-width:0.934889"
         d="m 90.682075,133.76996 h 1.767906 l 1.22671,3.20308 1.234728,-3.20308 h 1.763898 v 5.98523 h -1.314906 v -4.37767 l -1.238737,3.22713 h -0.881948 l -1.238737,-3.22713 v 4.37767 h -1.318914 z m 7.352244,0 h 1.391074 v 5.98523 h -1.391074 z m 4.137141,1.16658 v 3.65207 h 0.4971 q 0.84988,0 1.29887,-0.46904 0.44899,-0.46903 0.44899,-1.36301 0,-0.88996 -0.44899,-1.35499 -0.44498,-0.46503 -1.29887,-0.46503 z m -1.39107,-1.16658 h 1.46724 q 1.22671,0 1.82403,0.19644 0.60133,0.19242 1.03028,0.65745 0.38084,0.40489 0.56524,0.93406 0.18441,0.52917 0.18441,1.19865 0,0.6775 -0.18441,1.21068 -0.1844,0.52917 -0.56524,0.93406 -0.43296,0.46503 -1.0383,0.66146 -0.60534,0.19243 -1.81601,0.19243 h -1.46724 z m 6.00927,3.03872 h 2.26501 v 1.16658 h -2.26501 z m 2.51757,-3.03872 h 1.33094 l 0.93005,4.34961 0.92605,-4.34961 h 1.33896 l 0.92204,4.34961 0.93005,-4.34961 h 1.32292 l -1.2708,5.98523 h -1.60355 l -0.97816,-4.55006 -0.96613,4.55006 h -1.60355 z m 11.50943,4.89482 h -2.1728 l -0.34477,1.09041 h -1.39508 l 1.99641,-5.98523 h 1.65566 l 1.99641,5.98523 h -1.39909 z m -1.82804,-1.11045 h 1.47526 l -0.73362,-2.38127 z m 6.24981,-1.1305 q 0.43295,0 0.62137,-0.1804 0.19243,-0.1804 0.19243,-0.59331 0,-0.40891 -0.19243,-0.5853 -0.18842,-0.17639 -0.62137,-0.17639 h -0.5853 v 1.5354 z m -0.5853,1.06635 v 2.26501 h -1.39107 v -5.98523 h 2.12069 q 1.06635,0 1.55944,0.39688 0.4971,0.39688 0.4971,1.25477 0,0.59331 -0.25657,0.97416 -0.25656,0.38084 -0.77771,0.56124 0.28462,0.0721 0.50912,0.32872 0.22851,0.25256 0.45701,0.7697 l 0.75367,1.69976 h -1.47927 l -0.65345,-1.48729 q -0.20044,-0.44899 -0.40489,-0.61335 -0.20445,-0.16437 -0.5412,-0.16437 z"
         id="text2-4"
         transform="scale(0.92398275,1.0822713)"
         aria-label="MID-WAR" />
    </g>
  </g>
</svg>
