<?xml version="1.0" encoding="UTF-8" standalone="no"?>
<svg
   class="svg-icon"
   style="overflow:hidden;fill:currentColor"
   viewBox="0 0 13.92857 15"
   version="1.1"
   id="svg1"
   sodipodi:docname="add-list-1.svg"
   width="13.92857"
   height="15"
   inkscape:version="1.4 (e7c3feb100, 2024-10-09)"
   xmlns:inkscape="http://www.inkscape.org/namespaces/inkscape"
   xmlns:sodipodi="http://sodipodi.sourceforge.net/DTD/sodipodi-0.dtd"
   xmlns="http://www.w3.org/2000/svg"
   xmlns:svg="http://www.w3.org/2000/svg">
  <defs
     id="defs1" />
  <sodipodi:namedview
     id="namedview1"
     pagecolor="#ffffff"
     bordercolor="#000000"
     borderopacity="0.25"
     inkscape:showpageshadow="2"
     inkscape:pageopacity="0.0"
     inkscape:pagecheckerboard="0"
     inkscape:deskcolor="#d1d1d1"
     inkscape:zoom="0.62664971"
     inkscape:cx="355.0628"
     inkscape:cy="432.45851"
     inkscape:window-width="2560"
     inkscape:window-height="1368"
     inkscape:window-x="0"
     inkscape:window-y="0"
     inkscape:window-maximized="1"
     inkscape:current-layer="svg1" />
  <path
     d="M 1.60714,0 C 0.72536,0 0,0.72536 0,1.60714 V 11.25 c 0,0.88179 0.72536,1.60714 1.60714,1.60714 h 3.495 A 4.8214286,4.8214286 0 0 0 9.10714,15 c 2.65715,0 4.82143,-2.16429 4.82143,-4.82143 0,-2.09036 -1.34786,-3.86036 -3.21428,-4.52678 V 3.52821 L 7.18607,0 Z m 0,1.07143 h 4.82143 v 3.21428 h 3.21429 v 1.125 C 9.465,5.39141 9.29036,5.35711 9.10714,5.35711 c -0.18321,0 -0.35785,0.0343 -0.53571,0.0536 V 5.35711 H 4.28571 V 6.42854 H 6.11464 A 4.8535714,4.8535714 0 0 0 5.10214,7.49997 H 4.28571 V 8.5714 h 0.29465 a 4.7603571,4.7603571 0 0 0 -0.29465,1.60714 c 0,0.56572 0.11465,1.1025 0.29465,1.60714 H 1.60714 A 0.52821429,0.52821429 0 0 1 1.07143,11.25 V 1.60714 c 0,-0.30107 0.23464,-0.53571 0.53571,-0.53571 z M 7.5,1.82893 8.88536,3.21429 H 7.5 Z M 2.14286,5.35714 V 6.42857 H 3.21429 V 5.35714 Z m 6.96428,1.07143 c 2.0775,0 3.75,1.6725 3.75,3.75 0,2.0775 -1.6725,3.75 -3.75,3.75 a 3.7414286,3.7414286 0 0 1 -3.75,-3.75 c 0,-2.0775 1.6725,-3.75 3.75,-3.75 z M 2.14286,7.5 V 8.57143 H 3.21429 V 7.5 Z m 6.42857,0 V 9.64286 H 6.42857 v 1.07143 h 2.14286 v 2.14285 h 1.07143 v -2.14285 h 2.14285 V 9.64286 H 9.64286 V 7.5 Z"
     fill=""
     id="path1"
     style="stroke-width:0.0167411" />
</svg>
