<?xml version="1.0" encoding="UTF-8" standalone="no"?>
<!-- Created with Inkscape (http://www.inkscape.org/) -->

<svg
   width="6.6026874mm"
   height="8mm"
   viewBox="0 0 6.6026874 8"
   version="1.1"
   id="svg47190"
   inkscape:version="1.1.1 (3bf5ae0d25, 2021-09-20)"
   sodipodi:docname="peiper.svg"
   xmlns:inkscape="http://www.inkscape.org/namespaces/inkscape"
   xmlns:sodipodi="http://sodipodi.sourceforge.net/DTD/sodipodi-0.dtd"
   xmlns="http://www.w3.org/2000/svg"
   xmlns:svg="http://www.w3.org/2000/svg">
  <sodipodi:namedview
     id="namedview47192"
     pagecolor="#ffffff"
     bordercolor="#666666"
     borderopacity="1.0"
     inkscape:pageshadow="2"
     inkscape:pageopacity="0.0"
     inkscape:pagecheckerboard="0"
     inkscape:document-units="mm"
     showgrid="false"
     inkscape:zoom="10.248373"
     inkscape:cx="17.222247"
     inkscape:cy="14.977988"
     inkscape:window-width="1920"
     inkscape:window-height="1017"
     inkscape:window-x="-8"
     inkscape:window-y="-8"
     inkscape:window-maximized="1"
     inkscape:current-layer="g1691" />
  <defs
     id="defs47187">
    <clipPath
       clipPathUnits="userSpaceOnUse"
       id="clipPath63680-8">
      <path
         d="M 0,0 H 595.276 V 841.89 H 0 Z"
         id="path63678-4" />
    </clipPath>
  </defs>
  <g
     inkscape:label="Layer 1"
     inkscape:groupmode="layer"
     id="layer1"
     transform="translate(-87.219849,-76.718455)">
    <g
       id="g839"
       transform="matrix(1.360138,0,0,1.360138,-31.411184,-27.629232)">
      <text
         xml:space="preserve"
         style="font-style:normal;font-weight:normal;font-size:3.52778px;line-height:1.25;font-family:sans-serif;fill:#000000;fill-opacity:1;stroke:none;stroke-width:0.264582"
         x="87.368568"
         y="80.724609"
         id="text49893"><tspan
           sodipodi:role="line"
           id="tspan49891"
           style="font-size:3.52778px;stroke-width:0.264582"
           x="87.368568"
           y="80.724609">SS</tspan></text>
      <g
         id="g1691"
         transform="matrix(0.00910604,0,0,0.00910604,87.219851,76.718456)">
        <path
           d="m 0.6777864,2.5 c 0.81004,133.98071 -1.61344,268.0125 1.3248,401.95928 9.0990096,64.22607 48.9487896,120.43487 99.1451136,159.75644 48.35803,37.58458 103.68362,67.44442 163.62383,81.19053 49.6138,-10.37736 93.6785,-36.86239 136.3321,-63.08595 50.9336,-34.01762 97.2824,-79.08931 119.9143,-137.01068 12.2118,-32.40656 12.4139,-67.72712 10.9658,-101.96587 -0.0804,-74.90625 -0.1667,-149.8125 -0.2434,-224.71875 -48.9878,2.25458 -94.9712,-28.6828 -118.1875,-70.625 -8.401,-14.57365 -12.9914,-30.83805 -14.7813,-47.5 -132.6979,0 -265.39583,0 -398.0937436,0 v 1 z"
           style="fill:#f9f9f9;stroke:#000000"
           id="path918" />
        <path
           d="M 18.677786,18.5 V 392.28125 C 29.829846,514.53284 154.64759,594.69024 262.11533,627.625 c 22.0745,-3e-5 243.2943,-85.99332 251.875,-235.4375 l -0.25,-256.15625 c -9.059,-0.58839 -18.6094,-2.47772 -28.5,-5.75 C 434.72263,113.56762 392.58513,65.98581 383.45903,18.5 Z"
           style="fill:#000000"
           id="path920" />
      </g>
    </g>
    <path
       d="m 91.70953,77.904678 c -0.154858,-0.0084 -0.35186,0.04361 -0.512571,0.217968 -0.183262,0.198828 -0.203821,0.428359 -0.154811,0.580348 0.04601,0.142691 0.133897,0.225595 0.145183,0.236068 l -8.5e-4,8.5e-4 0.305772,0.318866 -2.935633,3.147823 c -0.06834,0.09341 -0.121035,0.184614 -0.06147,0.300745 l 0.779687,0.803012 0.354348,-0.367662 -0.676602,-0.581902 c -0.01855,-0.03018 -0.02592,-0.06036 -0.0094,-0.09054 l 2.783955,-2.979258 0.354294,0.335039 c 0,0 0.102738,0.09996 0.263795,0.141332 0.16106,0.04137 0.397864,0.0088 0.596139,-0.192166 0.197556,-0.200235 0.221962,-0.439663 0.173296,-0.598834 -0.04867,-0.159169 -0.153271,-0.258018 -0.153271,-0.258018 l -0.897287,-0.879572 -0.0085,-0.0081 -0.0092,-0.0069 c 0,0 -0.112115,-0.08371 -0.273422,-0.111679 -0.02016,-0.0035 -0.04142,-0.0061 -0.06354,-0.0073 z M 91.656,78.231245 c 0.0208,5.7e-5 0.041,0.0027 0.06085,0.0062 0.07313,0.01268 0.1201,0.04365 0.127853,0.04891 l 0.886121,0.868406 3.4e-4,3.4e-4 v 3.4e-4 c 0,0 0.04646,0.04773 0.06778,0.117455 0.02132,0.06973 0.03469,0.141505 -0.09242,0.270343 -0.129525,0.131281 -0.207315,0.122345 -0.278815,0.103978 -0.0715,-0.01837 -0.118995,-0.06123 -0.118995,-0.06123 h -3.4e-4 l -0.475216,-0.449028 -0.0031,-0.0031 -0.404742,-0.422457 -0.0039,-0.0038 -0.0038,-0.0035 c 0,0 -0.04125,-0.04046 -0.06123,-0.102436 -0.01998,-0.06197 -0.03425,-0.127922 0.08318,-0.255323 0.08543,-0.09268 0.154037,-0.115319 0.216428,-0.115146 z"
       id="path18810"
       style="fill:#ffffff;stroke-width:0.0136926" />
  </g>
</svg>
