<?xml version="1.0" encoding="UTF-8" standalone="no"?>
<!-- Created with Inkscape (http://www.inkscape.org/) -->

<svg
   width="6.7991757mm"
   height="8mm"
   viewBox="0 0 6.7991758 7.9999999"
   version="1.1"
   id="svg47190"
   inkscape:version="1.1.1 (3bf5ae0d25, 2021-09-20)"
   sodipodi:docname="PZgren.svg"
   xmlns:inkscape="http://www.inkscape.org/namespaces/inkscape"
   xmlns:sodipodi="http://sodipodi.sourceforge.net/DTD/sodipodi-0.dtd"
   xmlns="http://www.w3.org/2000/svg"
   xmlns:svg="http://www.w3.org/2000/svg">
  <sodipodi:namedview
     id="namedview47192"
     pagecolor="#ffffff"
     bordercolor="#666666"
     borderopacity="1.0"
     inkscape:pageshadow="2"
     inkscape:pageopacity="0.0"
     inkscape:pagecheckerboard="0"
     inkscape:document-units="mm"
     showgrid="false"
     inkscape:zoom="7.246694"
     inkscape:cx="40.225239"
     inkscape:cy="48.642871"
     inkscape:window-width="1920"
     inkscape:window-height="1017"
     inkscape:window-x="-8"
     inkscape:window-y="-8"
     inkscape:window-maximized="1"
     inkscape:current-layer="layer1"
     inkscape:snap-bbox="true"
     inkscape:snap-bbox-midpoints="true"
     inkscape:snap-page="true" />
  <defs
     id="defs47187">
    <clipPath
       clipPathUnits="userSpaceOnUse"
       id="clipPath63680-8">
      <path
         d="M 0,0 H 595.276 V 841.89 H 0 Z"
         id="path63678-4" />
    </clipPath>
  </defs>
  <g
     inkscape:label="Layer 1"
     inkscape:groupmode="layer"
     id="layer1"
     transform="translate(-87.211377,-76.723206)">
    <g
       id="g15224"
       transform="matrix(0.21603375,0,0,0.21603375,74.694939,-67.427001)">
      <g
         id="g15514">
        <path
           id="path13918-6"
           style="fill:#b3b3b3;fill-opacity:1;fill-rule:nonzero;stroke:none"
           sodipodi:type="inkscape:offset"
           inkscape:radius="1.5086963"
           inkscape:original="M 59.445312 668.76562 L 59.445312 689.64062 C 59.449213 689.68753 59.460944 689.73042 59.464844 689.78125 C 59.523434 690.51953 59.691406 691.22266 59.921875 691.90625 C 59.957035 692.00781 59.992185 692.11719 60.027344 692.21875 C 60.109374 692.43359 60.195312 692.64845 60.292969 692.85938 C 62.46875 697.88282 68.289062 701.25 73.429688 702.78125 C 73.484377 702.78125 73.582031 702.76179 73.671875 702.74609 C 73.761715 702.76169 73.863281 702.78125 73.914062 702.78125 C 79.058594 701.25 84.878906 697.88282 87.054688 692.85938 C 87.152348 692.64845 87.238281 692.43359 87.316406 692.21875 C 87.355466 692.11719 87.390626 692.00781 87.425781 691.90234 C 87.652344 691.22656 87.820312 690.53125 87.878906 689.79688 C 87.882806 689.74608 87.898434 689.69141 87.902344 689.64062 L 87.902344 668.76562 L 59.445312 668.76562 z "
           d="m 59.445312,667.25781 a 1.5088472,1.5088472 0 0 0 -1.507812,1.50781 v 20.875 a 1.5088472,1.5088472 0 0 0 0.0039,0.125 c 0.01831,0.22017 0.02833,0.24558 0.01953,0.13086 a 1.5088472,1.5088472 0 0 0 0,0.004 c 0.0706,0.88967 0.271621,1.7182 0.53125,2.48828 a 1.5088472,1.5088472 0 0 0 0.0039,0.0117 c 0.0273,0.0788 0.06245,0.18824 0.105468,0.3125 a 1.5088472,1.5088472 0 0 0 0.01563,0.0449 c 0.08349,0.21865 0.178776,0.45559 0.291015,0.70117 5.84e-4,0.001 0.0014,0.003 0.002,0.004 2.46924,5.69584 8.667211,9.149 14.087891,10.76367 a 1.5088472,1.5088472 0 0 0 0.431641,0.0625 c 0.199068,0 0.175614,-0.0149 0.242187,-0.0273 0.06257,0.0123 0.02994,0.0273 0.242187,0.0273 a 1.5088472,1.5088472 0 0 0 0.429688,-0.0625 c 5.423852,-1.61439 11.621822,-5.06737 14.091797,-10.76172 0.110095,-0.24031 0.205538,-0.4769 0.289062,-0.70507 l 0.0039,-0.01 c 0.05723,-0.14997 0.0963,-0.27508 0.126953,-0.36719 l 0.002,-0.004 c 0.253665,-0.75736 0.454739,-1.5774 0.52539,-2.46289 a 1.5088472,1.5088472 0 0 0 0,-0.004 c -0.01332,0.17354 0.0023,0.11868 0.02344,-0.15625 a 1.5088472,1.5088472 0 0 0 0.0039,-0.11524 v -20.875 a 1.5088472,1.5088472 0 0 0 -1.507812,-1.50781 z" />
        <path
           style="fill:#000000;fill-opacity:1;fill-rule:nonzero;stroke:none"
           d="M 87.902344,668.76562 H 59.445312 v 20.875 c 0.0039,0.0469 0.01563,0.0898 0.01953,0.14063 0.05859,0.73828 0.226562,1.44141 0.457031,2.125 0.03516,0.10156 0.07031,0.21094 0.105469,0.3125 0.08203,0.21484 0.167968,0.42969 0.265625,0.64062 2.175781,5.02344 7.996093,8.39063 13.136719,9.92188 0.05469,0 0.152343,-0.0195 0.242187,-0.0352 0.08984,0.0156 0.191406,0.0352 0.242187,0.0352 5.144532,-1.53125 10.964844,-4.89844 13.140626,-9.92188 0.09766,-0.21093 0.183593,-0.42578 0.261718,-0.64062 0.03906,-0.10156 0.07422,-0.21094 0.109375,-0.31641 0.226563,-0.67578 0.394531,-1.37109 0.453125,-2.10547 0.0039,-0.0508 0.01953,-0.10546 0.02344,-0.15625 z m 0,0"
           id="path13918" />
        <path
           style="fill:#ffc223;fill-opacity:1;fill-rule:nonzero;stroke:none"
           d="m 63.347656,677.07422 2.695313,-2.60547 7.628906,7.38672 7.632813,-7.38672 L 84,677.07422 76.367188,684.46094 84,691.84375 l -2.695312,2.60937 -7.632813,-7.38671 -7.628906,7.38671 -2.695313,-2.60937 7.632813,-7.38281 z m 0,0"
           id="path13920" />
      </g>
    </g>
  </g>
</svg>
