<?xml version="1.0" encoding="UTF-8" standalone="no"?>
<!-- Created with Inkscape (http://www.inkscape.org/) -->

<svg
   width="23.858438mm"
   height="10.645537mm"
   viewBox="0 0 23.858438 10.645537"
   version="1.1"
   id="svg4818"
   sodipodi:docname="inkporter-svg-uj5polbu.svg"
   xmlns:inkscape="http://www.inkscape.org/namespaces/inkscape"
   xmlns:sodipodi="http://sodipodi.sourceforge.net/DTD/sodipodi-0.dtd"
   xmlns="http://www.w3.org/2000/svg"
   xmlns:svg="http://www.w3.org/2000/svg">
  <sodipodi:namedview
     id="namedview4820"
     pagecolor="#ffffff"
     bordercolor="#666666"
     borderopacity="1.0"
     inkscape:pageshadow="2"
     inkscape:pageopacity="0.0"
     inkscape:pagecheckerboard="0"
     inkscape:document-units="mm"
     showgrid="false"
     inkscape:zoom="0.90583672"
     inkscape:cx="459.79589"
     inkscape:cy="582.33453"
     inkscape:window-width="1920"
     inkscape:window-height="1017"
     inkscape:window-x="-8"
     inkscape:window-y="-8"
     inkscape:window-maximized="1"
     inkscape:current-layer="layer1" />
  <defs
     id="defs4815" />
  <g
     inkscape:label="Layer 1"
     inkscape:groupmode="layer"
     id="layer1"
     transform="translate(-76.273663,-129.78497)">
    <g
       id="S-152mm"
       transform="matrix(0.35277777,0,0,-0.35277777,-211.32714,227.09744)">
      <path
         style="fill:#000000;fill-opacity:1;fill-rule:nonzero;stroke:none"
         d="m 842.85186,250.4752 19.70312,-3.61328 h 4.91407 l 0.67578,0.16016 v 0.29297 l 0.58593,0.4414 -0.25781,0.32813 -0.65625,-0.0352 -0.36719,0.36328 -0.34375,-0.27343 h -0.23828 l 0.0156,0.36328 -0.75,0.27734 -0.27344,-0.34765 -0.71484,0.0156 -0.0859,0.24219 -0.24219,0.0156 v 0.29297 l -0.21875,0.0391 1.73828,2.04297 1.73438,1.70313 1.55469,0.0156 -0.0195,0.51563 h -1.55078 c -0.23828,0 -0.47656,-0.27735 -0.47656,-0.27735 l -3.65625,-3.47265 -0.4375,-0.0195 -0.0391,-0.21875 -0.67578,0.10937 -0.0899,-0.21875 -0.40234,0.0742 0.0703,0.45703 -0.76562,0.23828 -0.14453,-0.47656 -6.14454,1.04297 0.0547,0.38281 -1.04297,0.20313 -0.0898,-0.27344 -2.81641,0.54687 0.0547,0.41797 -5.52344,1.22657 -0.14843,-0.54688 -2.4961,0.53516 c -0.0195,0.27734 -0.0586,0.54297 -0.11328,0.80859 l 0.94921,0.4063 c 0.18359,-0.49609 0.45703,-0.84375 0.62891,-0.78516 0.1875,0.0625 0.1914,0.5625 0.0117,1.11719 -0.17968,0.5586 -0.48046,0.96094 -0.66406,0.89844 -0.15234,-0.0469 -0.1875,-0.37891 -0.0976,-0.79688 l -1.11719,0.082 c -0.83203,2.02734 -2.82422,3.45703 -5.15235,3.45703 -0.0898,0 -0.17578,-0.004 -0.26562,-0.008 v 1.01563 l 5.68359,4.41016 -0.35937,0.46093 -5.91016,-4.58593 v -1.35938 c -1.99609,-0.30469 -3.64453,-1.67578 -4.35156,-3.51562 l -1.1875,0.63671 -0.21875,-0.30859 1.26953,-0.73828 c -0.14844,-0.5 -0.22656,-1.02734 -0.22656,-1.57813 0,-3.07421 2.49219,-5.5664 5.5664,-5.5664 2.29688,0 4.26954,1.39062 5.1211,3.3789"
         id="path24665-6-0" />
      <path
         style="fill:#000000;fill-opacity:1;fill-rule:nonzero;stroke:none"
         d="m 834.30108,263.08458 -0.21485,-0.29297 -1.77343,1.28906 0.21484,0.29297 z m -16.39063,10.88281 -0.60156,-0.82812 -1.08594,0.78515 0.60156,0.82813 z m 0.52344,-0.53906 0.78516,-1.13672 -1.26563,0.47656 z m 10.88672,-10.04688 -0.19531,0.14063 -0.0586,-0.0898 -0.28125,0.20703 -0.15234,-0.21094 -0.55078,0.39844 -0.26563,-0.36719 0.54688,-0.39844 -0.39844,-0.54687 0.28125,-0.20313 -0.21484,-0.29687 0.1914,-0.14063 0.21875,0.29688 6.49219,-4.71875 0.20703,0.0742 2.67969,-1.94532 2.73828,-1.98828 0.60547,-0.4414 0.19531,0.26562 0.44141,-0.32422 -0.2461,-0.33984 2.44141,-1.77344 1.20703,0.73047 0.27734,0.38281 0.35547,-0.25781 0.25391,0.043 0.29297,0.39844 0.25,-0.1836 0.66797,0.91797 -0.10157,0.45703 0.58204,0.79688 -0.50391,0.36718 0.0742,0.10157 -2.1875,1.58984 -0.26953,-0.36719 -0.3086,0.22266 0.17969,0.25391 -0.44141,0.32031 0.22657,0.3125 -0.23828,0.17187 0.33203,0.45703 -0.67969,0.4961 -0.17969,-0.25391 -0.28515,0.20703 0.3789,0.51563 -0.39844,0.28906 -0.14062,-0.19141 -2.12891,1.54688 -0.0664,-0.0859 -7.61719,5.53516 0.24609,0.33984 -0.32422,0.23438 -0.0976,-0.13282 -0.5625,0.41016 0.0976,0.12891 -0.36718,0.26953 -0.38282,-0.51953 -0.52734,0.39062 -0.20312,-0.28125 -0.35938,0.25781 0.12109,0.16407 -0.2539,0.17968 -0.25781,-0.35156 -0.23438,0.17188 -0.27734,-0.38672 0.23437,-0.17188 -0.20703,-0.28125 0.25391,-0.18359 0.11718,0.16406 0.35938,-0.25781 -0.15625,-0.20703 0.55469,-0.35938 -0.2461,-0.33984 -9.92578,7.21484 -1.96484,1.98438 -2.27344,1.65625 -0.63672,-0.17578 -0.99219,-1.36719 -0.0156,-0.67188 2.54297,-1.89453 2.35156,-1.1914 9.66016,-7.3086 -0.16016,-0.22265 -0.38672,0.28125 z m 4.19922,-2.84765 -0.16797,-0.21094 -2.41016,1.74609 0.16016,0.22266 z m 0,0"
         id="path24667-1" />
      <path
         d="m 854.31017,247.18163 c -0.20713,0.0403 -0.40499,0.0996 -0.43955,0.13252 -0.11695,0.11083 0.1823,0.41261 0.46387,0.4678 0.15368,0.0306 0.4405,0.13952 0.63766,0.24317 0.40193,0.2115 0.39449,0.11476 0.098,1.29781 -0.0938,0.37429 -0.2444,0.88276 -0.33467,1.13012 -0.22576,0.61852 -0.215,1.04608 0.0324,1.27813 0.22935,0.21545 1.16012,0.61072 1.43933,0.61134 0.10619,0 0.31866,0.077 0.47226,0.17039 0.24413,0.14888 0.26722,0.19253 0.18404,0.34788 l -0.0951,0.17756 -0.2122,-0.19925 c -0.17984,-0.16891 -0.30519,-0.2004 -0.82188,-0.20661 -0.40464,-0.009 -0.72417,0.0419 -0.94994,0.13995 -0.6144,0.26591 -0.97486,0.31718 -1.59661,0.22681 -0.39922,-0.0577 -0.40823,-0.0543 -0.54354,0.22953 -0.0761,0.15876 -0.11398,0.35023 -0.0848,0.42581 0.0734,0.18929 0.39222,0.29276 0.66408,0.21483 0.18185,-0.0516 0.28279,-0.0158 0.51109,0.17835 0.34455,0.29487 0.46938,0.30615 0.72531,0.0656 0.16174,-0.15194 0.23032,-0.16839 0.38812,-0.0928 0.1054,0.0499 0.24911,0.10986 0.31917,0.13173 0.14364,0.0446 0.48809,1.03671 0.53332,1.53495 0.0298,0.31699 0.0228,0.32495 -0.20836,0.27877 -0.13094,-0.0263 -0.29459,-0.0254 -0.3637,0 -0.17048,0.0656 -0.55649,0.7715 -0.55649,1.01799 0,0.12 -0.0761,0.23827 -0.19139,0.29836 -0.10514,0.0542 -0.20232,0.10847 -0.21561,0.1194 -0.0734,0.0603 0.35636,0.98046 0.53812,1.15112 0.31682,0.29757 1.17561,0.34429 1.50818,0.0822 0.28446,-0.22444 0.49377,-0.68647 0.52054,-1.1484 0.0149,-0.26294 0.0568,-0.3456 0.1843,-0.36432 0.61133,-0.0902 1.06802,-0.30834 1.4005,-0.66925 0.1941,-0.21045 0.36396,-0.37026 0.37735,-0.35495 0.0131,0.014 -0.0289,0.32793 -0.0915,0.6946 -0.17302,0.99534 -0.009,1.19268 0.6486,0.77779 0.38295,-0.24167 0.38872,-0.26687 0.20521,-0.88485 -0.0734,-0.24702 -0.11162,-0.47094 -0.0848,-0.49763 0.028,-0.0271 -0.014,-0.11852 -0.0924,-0.20415 -0.12806,-0.14153 -0.12876,-0.16935 -0.009,-0.30467 0.0734,-0.0822 0.14608,-0.24351 0.162,-0.35924 0.0158,-0.11572 0.11485,-0.25305 0.21973,-0.30528 0.34315,-0.17021 0.54381,-0.40927 0.7951,-0.94678 0.27694,-0.59218 0.32452,-1.19399 0.12491,-1.57676 -0.0895,-0.17065 -0.10024,-0.30667 -0.042,-0.50961 0.14818,-0.51686 0.0857,-0.59261 -0.7072,-0.86045 -0.0822,-0.028 -0.14879,-0.1285 -0.14879,-0.2241 0,-0.0956 -0.0359,-0.24037 -0.0796,-0.32164 -0.16785,-0.31445 -0.28419,-0.72915 -0.19077,-0.68008 0.63731,0.33441 1.25101,0.56882 1.59827,0.61064 0.3896,0.0473 0.44908,0.0324 0.56165,-0.14048 0.13418,-0.20565 0.21028,-0.52562 0.28997,-1.21979 0.0822,-0.71525 -0.41602,-1.49095 -0.70432,-1.09671 -0.0638,0.0866 -0.1152,0.27825 -0.1152,0.4259 0,0.15744 -0.0682,0.32976 -0.16497,0.41749 -0.15832,0.14329 -0.18868,0.13821 -0.74421,-0.12254 -0.31848,-0.1494 -0.66836,-0.35417 -0.77735,-0.45494 -0.16322,-0.15107 -0.32478,-0.18859 -0.91609,-0.21335 -0.48222,-0.0201 -0.75934,0 -0.84374,0.0735 -0.0954,0.0796 -0.12587,0.31087 -0.12701,0.9656 0,0.47366 -0.0298,0.90323 -0.0638,0.95458 -0.0822,0.12184 -0.79861,0.21631 -0.94687,0.12464 -0.0955,-0.0594 -0.097,-0.16366 -0.009,-0.61229 0.17056,-0.86965 0.31297,-2.27697 0.24204,-2.39156 -0.0778,-0.12525 -1.77838,-0.1508 -2.37371,-0.0359 z"
         style="fill:#000000;stroke-width:0.0225015"
         id="path87588-9-8" />
      <path
         style="fill:#000000;stroke-width:0.0615701"
         d="m 865.02429,246.11617 c -0.10256,0.0496 -0.13846,0.12001 -0.13846,0.2718 0,0.18323 0.0319,0.22113 0.29637,0.35523 0.346,0.17526 0.46131,0.29577 0.4302,0.44924 -0.0244,0.11849 -0.0302,0.11891 -0.72933,0.0453 -0.33956,-0.0353 -0.44212,-0.0226 -0.65076,0.0843 -0.3471,0.17719 -0.42785,0.28747 -0.34433,0.47063 0.0536,0.11539 0.1439,0.16184 0.42466,0.2161 0.19674,0.0378 0.41553,0.0813 0.48623,0.0962 0.19967,0.042 0.43833,0.25728 0.48313,0.43624 0.0226,0.0892 0.0302,0.17241 0.0185,0.18483 -0.0327,0.0328 -0.93664,0.19229 -1.36852,0.24127 -0.20311,0.0235 -0.44781,0.083 -0.54366,0.13215 l -0.17427,0.0902 0.0353,1.7968 c 0.0462,2.34171 0.0908,3.49805 0.16529,4.28089 0.0469,0.50099 0.0436,0.65738 -0.0185,0.73269 -0.057,0.0679 -0.0788,0.34216 -0.0797,0.94544 0,0.51608 -0.0261,0.87517 -0.0654,0.91491 -0.0444,0.0445 -0.16386,0.047 -0.37746,0.009 -0.36454,-0.0687 -0.65713,-0.009 -1.05589,0.22315 -0.31304,0.1809 -0.44177,0.43449 -0.43858,0.86418 0,0.32614 0.13217,0.99618 0.21904,1.13128 0.0302,0.0469 0.0562,0.22256 0.0562,0.38861 0,0.28764 0.0109,0.30869 0.24629,0.4437 0.13552,0.0779 0.32613,0.14307 0.42382,0.14442 0.0976,0 0.28077,0.0335 0.40674,0.0712 0.46315,0.13887 0.79951,-0.18173 0.80069,-0.76263 0,-0.12084 0.0445,-0.19062 0.15036,-0.239 0.29377,-0.13375 0.50567,0.0927 0.28907,0.30902 -0.0687,0.0687 -0.14281,0.23004 -0.16554,0.35884 -0.0587,0.33234 -0.21686,0.81512 -0.28093,0.85462 -0.0839,0.052 -0.0637,0.24915 0.0327,0.32899 0.0469,0.0395 0.10465,0.14499 0.12721,0.23473 0.16185,0.64513 1.06989,0.97646 1.70211,0.62097 0.2463,-0.13836 0.48554,-0.51967 0.48554,-0.77369 0,-0.0712 0.0302,-0.20848 0.0663,-0.30382 0.0604,-0.15632 0.047,-0.18885 -0.12311,-0.33175 -0.10414,-0.0871 -0.18927,-0.185 -0.18927,-0.21746 0,-0.0327 0.12438,-0.16897 0.27657,-0.30331 0.15205,-0.13443 0.27675,-0.27566 0.277,-0.31398 0,-0.0378 0.0985,-0.14449 0.21846,-0.2359 0.11992,-0.0913 0.28453,-0.26793 0.36596,-0.39221 0.1553,-0.23708 0.52379,-1.61717 0.52412,-1.96325 0,-0.21645 -0.23866,-0.99853 -0.40101,-1.31226 -0.073,-0.14155 -0.0839,-0.2156 -0.0353,-0.26373 0.0369,-0.0369 0.067,-0.14274 0.067,-0.23557 0,-0.0928 0.0277,-0.18592 0.0612,-0.2068 0.0336,-0.0219 0.0612,-0.10944 0.0612,-0.19656 0,-0.0872 0.0277,-0.2588 0.0595,-0.38115 0.2526,-0.94561 0.61059,-2.83657 0.70627,-3.73229 0.0226,-0.2032 0.0959,-0.78811 0.16446,-1.30009 0.12167,-0.90426 0.12201,-0.93738 0.0126,-1.16976 -0.0738,-0.15858 -0.18986,-0.27708 -0.34298,-0.35196 l -0.23087,-0.1128 -0.009,-0.65679 c -0.009,-0.36127 0,-0.68455 0.009,-0.71843 0.009,-0.0336 0.0277,-0.21476 0.0453,-0.40211 0.0286,-0.30492 0.0143,-0.36143 -0.13467,-0.53872 -0.13158,-0.15632 -0.21443,-0.19832 -0.39222,-0.19891 -0.12411,0 -0.37779,-0.0411 -0.56413,-0.0917 -0.39146,-0.10508 -1.13706,-0.11464 -1.33917,-0.0176 z"
         id="path89379-7"
         sodipodi:nodetypes="csssssssssssscssssssssssscscsssssssssssscsscsssssssssscscsscscc" />
      <path
         d="m 873.30301,245.68222 c -0.0959,0.0149 -0.23582,0.10593 -0.3107,0.20049 -0.14459,0.18255 -0.1445,0.17127 -0.021,1.42666 0.028,0.28629 0.0193,0.43744 -0.0306,0.46753 -0.0464,0.0289 -0.0717,0.29145 -0.0717,0.73222 0,0.50567 -0.0254,0.72067 -0.094,0.8119 -0.0621,0.0813 -0.0959,0.28892 -0.0995,0.60399 -0.009,0.40054 -0.0891,1.06899 -0.12107,0.95957 -0.009,-0.0166 -0.0263,-0.42057 -0.0463,-0.89562 -0.028,-0.66461 -0.0114,-0.9963 0.0717,-1.43943 0.24973,-1.3293 0.2067,-1.51369 -0.34796,-1.48963 -0.24754,0.0105 -0.34787,-0.0236 -0.59979,-0.20434 -0.24265,-0.17433 -0.37814,-0.22278 -0.68437,-0.24492 -0.66855,-0.0489 -0.86946,0.23617 -0.42301,0.59883 0.11012,0.0896 0.38111,0.3086 0.60215,0.4867 0.3183,0.25672 0.38661,0.34192 0.32941,0.41093 -0.0394,0.0481 -0.0839,0.3254 -0.0981,0.61668 -0.0385,0.78452 -0.0726,0.96603 -0.24912,1.31705 -0.0879,0.17529 -0.16007,0.3602 -0.16007,0.41111 0,0.0508 -0.0586,0.32006 -0.13139,0.59839 -0.11799,0.45459 -0.12368,0.55693 -0.0551,1.00592 0.0907,0.59682 0.0289,1.88736 -0.10654,2.21022 -0.11931,0.28577 -0.11284,0.47489 0.0324,0.93647 l 0.12035,0.38382 -0.13742,0.0412 c -0.0752,0.0236 -0.25252,0.0446 -0.39353,0.0481 -0.34813,0.009 -0.86596,0.34202 -1.07983,0.69514 -0.26941,0.44444 -0.2709,0.53952 -0.0131,0.81208 0.13479,0.14284 0.30465,0.44286 0.41959,0.74097 0.33257,0.86221 0.63872,1.4515 0.81384,1.56626 0.0918,0.0603 0.39965,0.18754 0.68402,0.28315 0.48241,0.16199 0.52001,0.18771 0.55972,0.38198 0.0533,0.2618 -0.18753,0.7233 -0.40551,0.77604 -0.1222,0.0298 -0.14503,0.0761 -0.14126,0.28787 0.0114,0.69951 0.21649,1.10537 0.64615,1.28478 0.54397,0.22742 1.28845,0.0166 1.50546,-0.42607 0.39073,-0.79695 0.43902,-1.02193 0.21929,-1.02193 -0.0568,0 -0.12132,-0.12447 -0.17179,-0.33589 -0.0438,-0.18474 -0.11126,-0.38574 -0.14905,-0.44672 -0.10864,-0.17512 0.0673,-0.29398 0.63661,-0.43079 0.73607,-0.17695 0.89029,-0.27195 1.07467,-0.66102 0.0866,-0.18299 0.17635,-0.46946 0.19909,-0.63661 0.0228,-0.16716 0.0612,-0.30336 0.0857,-0.30274 0.0245,0 0.3176,0.0876 0.65183,0.19304 0.74709,0.23601 1.27944,0.31184 1.27944,0.18238 0,-0.0914 -1.085,-0.79799 -1.45543,-0.94775 -0.25639,-0.10356 -0.25927,-0.17319 -0.0184,-0.45476 0.15903,-0.18605 0.18964,-0.27799 0.19165,-0.57346 0,-0.39013 -0.14441,-0.70397 -0.39362,-0.83981 -0.17188,-0.0938 -0.89308,-0.0891 -1.07231,0.009 -0.1626,0.0875 -0.23958,-0.0324 -0.11502,-0.1787 0.0983,-0.11511 0.29818,-0.73502 0.35163,-1.09077 0.0175,-0.11826 0,-0.31979 -0.0376,-0.44776 -0.0385,-0.12798 -0.1005,-0.75086 -0.13733,-1.38415 -0.0368,-0.63338 -0.0987,-1.45386 -0.13768,-1.82342 -0.0385,-0.36931 -0.0805,-0.84436 -0.0922,-1.05552 -0.0307,-0.55159 -0.14591,-1.60265 -0.22156,-2.02977 -0.0499,-0.28261 -0.0411,-0.49901 0.0359,-0.94625 0.10242,-0.59071 0.0813,-0.96552 -0.0612,-1.08369 -0.10007,-0.0831 -0.398,-0.12456 -0.6256,-0.0874 z m -2.54436,11.32482 c 0,0.12866 -0.0184,0.15421 -0.0726,0.10024 -0.0394,-0.0394 -0.0551,-0.11757 -0.0341,-0.17276 0.0594,-0.15255 0.10646,-0.12001 0.10646,0.0726 z"
         style="fill:#000000;stroke-width:0.0169266"
         id="path89424-2" />
      <path
         d="m 880.42015,246.08357 c -0.37289,0.21143 -0.31577,0.405 0.28708,0.97391 0.42896,0.40482 0.50532,0.50672 0.42231,0.56349 -0.0551,0.0385 -0.14704,0.0508 -0.20284,0.0263 -0.0551,-0.0236 -0.17722,-0.0455 -0.27011,-0.0499 -0.24186,-0.01 -0.42529,0.36388 -0.37019,0.75338 0.0228,0.15798 0.0245,0.28717 0.01,0.28717 -0.0201,0 -0.30316,-0.13567 -0.629,-0.30143 -0.32592,-0.16593 -0.75951,-0.37866 -0.96393,-0.47286 -0.62079,-0.28639 -0.68105,-0.35724 -0.72365,-0.85136 -0.021,-0.23915 -0.0673,-0.47287 -0.10436,-0.51932 -0.0822,-0.10426 -0.48353,-0.11039 -0.6702,-0.01 -0.1285,0.0691 -0.13479,0.11336 -0.0906,0.63949 0.0463,0.56166 0.0446,0.56752 -0.17127,0.86939 -0.21614,0.30098 -0.21763,0.30763 -0.13882,0.69478 0.0499,0.2429 0.0568,0.46762 0.0219,0.59349 -0.0333,0.11589 -0.0324,0.31848 0,0.47295 0.0333,0.14871 0.0866,0.46789 0.11818,0.70931 0.14529,1.11439 0.29136,2.04053 0.40534,2.56728 0.0691,0.31568 0.14354,0.72618 0.16724,0.91188 0.0877,0.68753 0.28324,1.05509 0.63373,1.19032 0.11021,0.042 0.14573,0.0956 0.11608,0.17284 -0.0236,0.0621 -0.0778,0.31935 -0.12194,0.57346 -0.0638,0.3728 -0.1,0.45546 -0.18719,0.42782 -0.0594,-0.0193 -0.16208,0.01 -0.22813,0.0533 -0.11432,0.084 -0.11283,0.11004 0.0315,0.55763 0.0831,0.25839 0.19953,0.53628 0.25874,0.61737 0.31499,0.43158 1.1828,0.57801 1.62828,0.27475 0.35409,-0.24099 0.4776,-0.46107 0.5397,-0.96236 0.0524,-0.42415 0.0446,-0.46902 -0.0866,-0.57617 -0.13462,-0.1089 -0.13681,-0.12605 -0.035,-0.28061 0.0752,-0.1145 0.23871,-0.20075 0.53707,-0.28306 0.93857,-0.259 1.35169,-0.55395 1.6176,-1.15524 0.12561,-0.28401 0.15124,-0.48117 0.16751,-1.28354 0.0105,-0.52133 0.0219,-0.97067 0.0245,-0.99849 0,-0.028 0.11363,-0.17066 0.24658,-0.31795 0.23399,-0.259 0.2402,-0.27939 0.19471,-0.6437 -0.0271,-0.20688 -0.14983,-0.59061 -0.27553,-0.85285 -0.12552,-0.26215 -0.22821,-0.55938 -0.22821,-0.66041 0,-0.10094 -0.0341,-0.2178 -0.0761,-0.25935 -0.0551,-0.0551 -0.0559,-0.24938 -1.8e-4,-0.73983 0.0412,-0.3652 0.0577,-0.80072 0.0359,-0.96787 -0.0219,-0.16716 -0.0438,-0.52684 -0.0507,-0.79914 -0.0114,-0.55657 -0.0324,-0.583 -0.61912,-0.86282 -0.36974,-0.17607 -0.97732,-0.21675 -1.21603,-0.0813 z m -1.42718,5.71984 c 0.10767,0.11895 0.10278,0.13759 -0.0924,0.34699 -0.11363,0.12159 -0.21789,0.20949 -0.23137,0.19507 -0.014,-0.014 -0.0586,-0.14634 -0.0978,-0.29338 -0.0551,-0.20354 -0.0533,-0.27973 0.01,-0.31988 0.13847,-0.0877 0.29233,-0.0621 0.41217,0.0717 z"
         style="fill:#000000;stroke-width:0.0178743"
         id="path89441-2" />
      <path
         d="m 846.58268,247.08705 c -0.33186,0.035 -0.44698,0.17687 -0.28716,0.35356 0.0664,0.0726 0.22777,0.16313 0.3595,0.20048 0.13173,0.0385 0.33642,0.15159 0.45485,0.25358 l 0.21536,0.18544 -0.0656,0.76345 c -0.0879,1.02813 -0.18666,1.70262 -0.30326,2.06642 -0.17398,0.54381 -0.14582,1.04948 0.0866,1.53599 0.11248,0.23643 0.24124,0.54984 0.28611,0.69662 0.0455,0.14678 0.15439,0.41435 0.24344,0.59489 0.11205,0.2269 0.14913,0.3861 0.12035,0.51704 -0.0411,0.18509 -0.0507,0.18886 -0.50068,0.18886 -0.39117,0 -0.47007,-0.0201 -0.53078,-0.1334 -0.10714,-0.20005 -0.28191,-0.15657 -0.45406,0.1131 -0.21631,0.33869 -0.25244,0.58396 -0.11678,0.79109 0.0921,0.14065 0.0972,0.19078 0.028,0.27397 -0.0464,0.0559 -0.0914,0.3148 -0.1,0.57914 -0.009,0.26259 -0.0778,0.74115 -0.15343,1.06373 -0.17083,0.72655 -0.17101,0.82127 0,1.13538 0.1152,0.21501 0.12465,0.29128 0.0647,0.51679 -0.0394,0.14555 -0.0629,0.31576 -0.0516,0.37839 0.0122,0.0804 -0.0394,0.12509 -0.18072,0.1516 -0.18614,0.035 -0.19926,0.0568 -0.18833,0.31034 0.0315,0.73309 0.33686,1.20728 0.8965,1.39316 0.56419,0.18745 1.1366,0.0158 1.4766,-0.44375 0.13689,-0.18483 0.34324,-1.0277 0.28734,-1.17351 -0.0184,-0.0472 -0.0105,-0.0857 0.0149,-0.0875 0.29443,0 1.24165,-0.15308 1.49208,-0.23618 0.58422,-0.1941 1.12409,-0.7589 1.12409,-1.17604 0,-0.28464 0.23531,-0.83046 0.44218,-1.02578 0.11869,-0.11179 0.23669,-0.29207 0.26214,-0.40009 0.0263,-0.10812 0.13646,-0.35715 0.24659,-0.55335 0.18754,-0.33379 0.1976,-0.38723 0.15736,-0.83386 -0.035,-0.38531 -0.0166,-0.55011 0.0909,-0.85713 0.14634,-0.41584 0.17984,-0.80342 0.10628,-1.23168 -0.0385,-0.23111 -0.021,-0.3205 0.11616,-0.53367 l 0.16375,-0.25611 -0.0228,-1.66763 c -0.0122,-0.91732 -0.0219,-1.88851 -0.021,-2.15819 0,-0.5432 -0.077,-0.80438 -0.28244,-0.9327 -0.19611,-0.12246 -0.72803,-0.16909 -0.94942,-0.0831 -0.17878,0.07 -0.18658,0.0888 -0.14161,0.35636 0.0271,0.15552 0.11791,0.41802 0.20389,0.58309 0.14643,0.2806 0.15552,0.3637 0.13882,1.2727 -0.0158,0.88722 -0.0306,0.98921 -0.16479,1.15978 -0.0805,0.10296 -0.14722,0.21299 -0.14722,0.24448 0,0.0315 -0.13103,0.33537 -0.29084,0.67554 -0.15999,0.34009 -0.33991,0.78698 -0.39992,0.99314 -0.0603,0.20618 -0.16427,0.44323 -0.23206,0.52694 l -0.12324,0.15219 -0.19839,-0.29434 c -0.10908,-0.16182 -0.28358,-0.44435 -0.38785,-0.62786 -0.10418,-0.18335 -0.30283,-0.47751 -0.44164,-0.65359 -0.19733,-0.25069 -0.26224,-0.40246 -0.29916,-0.70047 -0.0263,-0.20914 -0.0822,-0.48546 -0.12674,-0.61379 -0.0542,-0.16032 -0.0647,-0.42195 -0.0298,-0.83386 0.0271,-0.3302 0.0699,-0.97993 0.094,-1.44371 0.042,-0.81112 0.0376,-0.84716 -0.0983,-0.9432 -0.111,-0.0778 -0.18404,-0.084 -0.33012,-0.0289 -0.1473,0.0551 -0.23819,0.0473 -0.42275,-0.0412 -0.22331,-0.10593 -0.54941,-0.12413 -1.12715,-0.063 z"
         style="fill:#000000;stroke-width:0.0176498"
         id="path89458-9" />
      <path
         id="path8191-1"
         style="fill:#000000;fill-opacity:1;fill-rule:nonzero;stroke:none;stroke-width:0.75"
         d="m 852.03987,254.87723 -0.45847,-0.0307 -0.54053,-0.0527 -0.49365,-0.0572 -0.45412,-0.0952 -0.2124,-0.12744 0.14797,-0.16553 0.14498,-0.0791 0.27105,-0.12598 0.27975,-0.0806 0.3369,-0.0542 0.37207,-0.0455 0.41168,-0.0395 0.45112,-0.0894 0.17138,-0.22851 0.19042,-0.16992 0.2124,-0.0278 0.20655,0.001 0.71048,0.15381 0.085,-0.17725 1.04738,0.28565 h 1.95405 v 1.18066 h -2.62058 l -0.5376,0.0146 h -0.45262 l -0.36765,0.0103 h -0.47175 z" />
    </g>
  </g>
</svg>
