<?xml version="1.0" encoding="UTF-8" standalone="no"?>
<!-- Created with Inkscape (http://www.inkscape.org/) -->

<svg
   width="21.960983mm"
   height="4.6414351mm"
   viewBox="0 0 21.960983 4.6414351"
   version="1.1"
   id="svg12576"
   sodipodi:docname="inkporter-svg-a0l3ettz.svg"
   xmlns:inkscape="http://www.inkscape.org/namespaces/inkscape"
   xmlns:sodipodi="http://sodipodi.sourceforge.net/DTD/sodipodi-0.dtd"
   xmlns="http://www.w3.org/2000/svg"
   xmlns:svg="http://www.w3.org/2000/svg">
  <sodipodi:namedview
     id="namedview12578"
     pagecolor="#ffffff"
     bordercolor="#666666"
     borderopacity="1.0"
     inkscape:pageshadow="2"
     inkscape:pageopacity="0.0"
     inkscape:pagecheckerboard="0"
     inkscape:document-units="mm"
     showgrid="false"
     inkscape:zoom="0.66368547"
     inkscape:cx="397.02542"
     inkscape:cy="561.25984"
     inkscape:window-width="1920"
     inkscape:window-height="1017"
     inkscape:window-x="-8"
     inkscape:window-y="-8"
     inkscape:window-maximized="1"
     inkscape:current-layer="layer1" />
  <defs
     id="defs12573" />
  <g
     inkscape:label="Layer 1"
     inkscape:groupmode="layer"
     id="layer1"
     transform="translate(-128.31376,-184.34411)">
    <g
       id="S-45mm-l"
       transform="matrix(0.31757519,0,0,-0.31757519,-163.72401,302.06806)">
      <path
         id="rect28206-7"
         style="fill:#000000;fill-opacity:1;stroke:none;stroke-width:0.987936;stroke-linejoin:round;stroke-opacity:1;paint-order:markers fill stroke;stop-color:#000000"
         d="m 947.27444,369.61076 -4.07804,-3.83247 c -0.46181,-0.0687 -0.91039,-0.2078 -1.33014,-0.41228 l -7.3094,0.23973 -0.005,-0.15816 -14.93904,0.48997 -0.0266,-0.81131 14.93904,-0.48997 -0.01,-0.29213 -0.31507,0.0103 -0.0185,-0.56382 0.31507,-0.0103 -0.009,-0.27047 5.32833,-0.17476 c -0.30636,-0.59654 -0.47786,-1.25312 -0.5024,-1.92328 -0.0824,-2.52554 1.89772,-4.63991 4.42321,-4.72317 2.33132,-0.0755 4.34613,1.61521 4.67741,3.9241 l 20.71693,-2.91679 2.74751,-1.61488 -0.37914,1.52314 0.78659,0.58334 1.20836,-0.26438 0.14258,0.22007 -1.49576,0.45514 -1.48568,-0.32671 -22.19551,3.15558 c -0.0209,0.57195 -0.14882,1.13493 -0.37723,1.6597 l 1.2986,-0.0426 0.0192,0.58552 1.30756,-0.0429 0.017,0.51793 2.63545,-0.0864 0.0547,1.66726 -2.92882,0.0961 -0.0192,-0.58552 -1.69024,0.0554 -0.004,-0.11226 -2.49005,0.0817 0.55871,2.04534 1.78253,1.24009 0.49499,0.99771 z"
         sodipodi:nodetypes="cccccccccccccccccccccccccccccccccccccccccc" />
      <path
         d="m 976.30307,357.1403 c -0.4115,0.097 -0.6829,0.4094 -0.6829,0.7863 0,0.3198 -0.053,0.3365 -0.447,0.1408 -0.4679,-0.2325 -1.1524,-0.3804 -1.4335,-0.31 -0.2957,0.074 -0.6466,0.5715 -0.6471,0.9174 0,0.1231 0.093,0.4285 0.2066,0.6785 0.2126,0.4666 1.1858,1.8077 1.4983,2.0646 0.2964,0.2436 0.7254,0.9942 0.7254,1.2692 0,0.1435 0.061,0.3119 0.1369,0.3744 0.1149,0.096 0.076,0.2179 -0.2431,0.764 -0.2089,0.3575 -0.38,0.7468 -0.38,0.8647 0,0.118 -0.042,0.2404 -0.093,0.2718 -0.051,0.032 -0.4692,-0.1462 -0.9296,-0.3952 -0.7189,-0.3886 -0.8924,-0.4449 -1.2315,-0.3994 -0.5179,0.07 -0.5895,0.1564 -0.6412,0.7784 -0.04,0.4815 -0.018,0.5512 0.2775,0.8879 0.1764,0.2008 0.4152,0.4011 0.5307,0.445 0.1799,0.068 0.2184,0.181 0.269,0.785 0.064,0.771 0.1683,0.9409 0.6733,1.104 0.2741,0.089 0.3344,0.1688 0.4357,0.5796 0.2065,0.8361 0.81,1.2396 1.6255,1.0866 0.4759,-0.09 0.7117,-0.3226 0.9272,-0.9172 0.1874,-0.5175 0.1873,-0.5223 -0.01,-0.7832 -0.1067,-0.1444 -0.1682,-0.3297 -0.1368,-0.4119 0.065,-0.1681 0.7295,-0.5691 0.9435,-0.5691 0.2162,0 0.7116,-0.4932 0.9279,-0.9237 0.1073,-0.2139 0.2466,-0.717 0.3092,-1.1181 0.062,-0.401 0.1649,-0.9152 0.2274,-1.1424 0.097,-0.3536 0.1507,-0.4132 0.3714,-0.4132 0.2368,0 0.2664,-0.046 0.3634,-0.559 0.1248,-0.6606 0.1628,-1.4722 0.078,-1.6772 -0.034,-0.08 -0.049,-0.2771 -0.037,-0.4375 0.018,-0.2344 -0.017,-0.2975 -0.1888,-0.3219 -0.1767,-0.024 -0.2173,0.024 -0.243,0.2917 -0.051,0.5296 -0.2267,0.2676 -0.2082,-0.3101 0.024,-0.7811 0.1042,-1.6173 0.1739,-1.8364 0.033,-0.1051 0,-0.341 -0.078,-0.5242 -0.1152,-0.2758 -0.215,-0.3523 -0.5792,-0.444 -0.242,-0.061 -0.5774,-0.084 -0.7453,-0.05 -0.2433,0.049 -0.3588,0.011 -0.5675,-0.1833 -0.2775,-0.2587 -0.634,-0.4693 -0.7664,-0.4527 -0.044,0.01 -0.2312,0.046 -0.4172,0.09 z m -1.6553,10.2609 c 0,0.1572 -0.018,0.164 -0.2308,0.083 -0.1177,-0.045 -0.1245,-0.084 -0.033,-0.1842 0.1366,-0.1478 0.2631,-0.099 0.2631,0.1012 z"
         style="fill:#000000;stroke-width:0.0257245"
         id="path87571-6-8" />
      <path
         d="m 950.55047,357.3229 c -0.2368,0.046 -0.463,0.1139 -0.5025,0.1515 -0.1337,0.1267 0.2084,0.4717 0.5303,0.5348 0.1757,0.035 0.5036,0.1595 0.729,0.278 0.4595,0.2418 0.451,0.1312 0.112,1.4837 -0.1072,0.4279 -0.2794,1.0092 -0.3826,1.292 -0.2581,0.7071 -0.2458,1.1959 0.037,1.4612 0.2622,0.2463 1.3263,0.6982 1.6455,0.6989 0.1214,0 0.3643,0.088 0.5399,0.1948 0.2791,0.1702 0.3055,0.2201 0.2104,0.3977 l -0.1087,0.203 -0.2426,-0.2278 c -0.2056,-0.1931 -0.3489,-0.2291 -0.9396,-0.2362 -0.4626,-0.01 -0.8279,0.048 -1.086,0.16 -0.7024,0.304 -1.1145,0.3626 -1.8253,0.2593 -0.4564,-0.066 -0.4667,-0.062 -0.6214,0.2624 -0.087,0.1815 -0.1303,0.4004 -0.097,0.4868 0.084,0.2164 0.4484,0.3347 0.7592,0.2456 0.2079,-0.059 0.3233,-0.018 0.5843,0.2039 0.3939,0.3371 0.5366,0.35 0.8292,0.075 0.1849,-0.1737 0.2633,-0.1925 0.4437,-0.1061 0.1205,0.057 0.2848,0.1256 0.3649,0.1506 0.1642,0.051 0.558,1.1852 0.6097,1.7548 0.034,0.3624 0.026,0.3715 -0.2382,0.3187 -0.1497,-0.03 -0.3368,-0.029 -0.4158,0 -0.1949,0.075 -0.6362,0.882 -0.6362,1.1638 0,0.1372 -0.087,0.2724 -0.2188,0.3411 -0.1202,0.062 -0.2313,0.124 -0.2465,0.1365 -0.084,0.069 0.4074,1.1209 0.6152,1.316 0.3622,0.3402 1.344,0.3936 1.7242,0.094 0.3252,-0.2566 0.5645,-0.7848 0.5951,-1.3129 0.017,-0.3006 0.065,-0.3951 0.2107,-0.4165 0.6989,-0.1031 1.221,-0.3525 1.6011,-0.7651 0.2219,-0.2406 0.4161,-0.4233 0.4314,-0.4058 0.015,0.016 -0.033,0.3749 -0.1046,0.7941 -0.1978,1.1379 -0.01,1.3635 0.7415,0.8892 0.4378,-0.2763 0.4444,-0.3051 0.2346,-1.0116 -0.084,-0.2824 -0.1276,-0.5384 -0.097,-0.5689 0.032,-0.031 -0.016,-0.1355 -0.1057,-0.2334 -0.1464,-0.1618 -0.1472,-0.1936 -0.01,-0.3483 0.084,-0.094 0.167,-0.2784 0.1852,-0.4107 0.018,-0.1323 0.1313,-0.2893 0.2512,-0.349 0.3923,-0.1946 0.6217,-0.4679 0.909,-1.0824 0.3166,-0.677 0.371,-1.365 0.1428,-1.8026 -0.1023,-0.1951 -0.1146,-0.3506 -0.048,-0.5826 0.1694,-0.5909 0.098,-0.6775 -0.8085,-0.9837 -0.094,-0.032 -0.1701,-0.1469 -0.1701,-0.2562 0,-0.1093 -0.041,-0.2748 -0.091,-0.3677 -0.1919,-0.3595 -0.3249,-0.8336 -0.2181,-0.7775 0.7286,0.3823 1.4302,0.6503 1.8272,0.6981 0.4454,0.054 0.5134,0.037 0.6421,-0.1606 0.1534,-0.2351 0.2404,-0.6009 0.3315,-1.3945 0.094,-0.8177 -0.4756,-1.7045 -0.8052,-1.2538 -0.073,0.099 -0.1317,0.3181 -0.1317,0.4869 0,0.18 -0.078,0.377 -0.1886,0.4773 -0.181,0.1638 -0.2157,0.158 -0.8508,-0.1401 -0.3641,-0.1708 -0.7641,-0.4049 -0.8887,-0.5201 -0.1866,-0.1727 -0.3713,-0.2156 -1.0473,-0.2439 -0.5513,-0.023 -0.8681,0 -0.9646,0.084 -0.1091,0.091 -0.1439,0.3554 -0.1452,1.1039 0,0.5415 -0.034,1.0326 -0.073,1.0913 -0.094,0.1393 -0.913,0.2473 -1.0825,0.1425 -0.1092,-0.068 -0.1109,-0.1871 -0.01,-0.7 0.195,-0.9942 0.3578,-2.6031 0.2767,-2.7341 -0.089,-0.1432 -2.0331,-0.1724 -2.7137,-0.041 z"
         style="fill:#000000;stroke-width:0.0257245"
         id="path87588-9-2" />
      <path
         d="m 961.82107,357.0217 c -0.3305,0.1603 -0.9922,1.4313 -1.0041,1.9289 0,0.1336 0.2083,0.6804 0.4702,1.2152 0.4093,0.8362 0.4832,1.0778 0.5276,1.7259 0.042,0.6026 0.024,0.7534 -0.084,0.7534 -0.1689,0 -0.3551,0.3357 -0.4276,0.771 -0.045,0.2661 -0.1131,0.3488 -0.3407,0.4098 -0.1744,0.047 -0.3344,0.036 -0.4115,-0.029 -0.07,-0.057 -0.1923,-0.079 -0.2732,-0.048 -0.1682,0.064 -0.1983,0.3208 -0.044,0.3723 0.057,0.018 0.1165,0.1539 0.1325,0.2999 0.034,0.3016 0.043,0.3 -1.5227,0.2832 -0.8037,-0.01 -1.435,0.1341 -1.5717,0.3553 -0.1227,0.1987 0.5625,0.3308 2.0569,0.3966 1.8311,0.08 1.6334,-0.037 2.3144,1.3692 0.246,0.508 0.5555,1.0658 0.6876,1.2397 0.218,0.2866 0.2881,0.3159 0.7568,0.3159 h 0.5166 l 0.061,0.4511 c 0.089,0.6497 0.082,0.6876 -0.1327,0.7439 -0.2819,0.074 -0.2453,0.1731 0.2387,0.6481 0.3799,0.3727 0.4964,0.4301 0.948,0.4664 0.8673,0.07 1.4894,-0.5012 1.4045,-1.2886 -0.023,-0.2139 -0.076,-0.4724 -0.1176,-0.5747 -0.064,-0.1584 -0.043,-0.1771 0.1479,-0.1272 0.1618,0.043 0.3278,-0.024 0.5998,-0.2438 0.4427,-0.3557 0.464,-0.4811 0.1236,-0.7291 l -0.2525,-0.1839 0.3642,-0.7235 c 0.2005,-0.3979 0.4869,-0.9084 0.6367,-1.1344 0.2992,-0.4517 0.5081,-1.3413 0.3738,-1.5923 -0.096,-0.1783 -0.4545,-0.3418 -0.9902,-0.4507 l -0.3637,-0.074 0.2178,-0.2718 c 0.1763,-0.22 0.3332,-0.2878 0.8249,-0.3571 0.6105,-0.086 1.4892,-0.5027 1.7934,-0.8507 0.083,-0.095 0.2057,-0.3482 0.2721,-0.5622 0.067,-0.2139 0.2861,-0.7169 0.4881,-1.1181 0.2021,-0.401 0.4705,-0.9408 0.5964,-1.1997 0.216,-0.4437 0.4126,-0.6529 1.0009,-1.0653 0.3281,-0.2301 0.3288,-0.5843 0,-0.7333 -0.512,-0.2333 -1.5871,-0.042 -1.86,0.3317 -0.071,0.097 -0.1285,0.2935 -0.1285,0.4371 0,0.2367 -0.1544,0.5441 -0.908,1.8084 -0.3658,0.614 -0.6126,0.731 -1.646,0.78 -1.3058,0.062 -1.7151,0.046 -2.2577,-0.09 -0.3864,-0.097 -0.5127,-0.1815 -0.6209,-0.4139 -0.075,-0.1604 -0.328,-0.5838 -0.5629,-0.9408 -0.3241,-0.4925 -0.4352,-0.7623 -0.461,-1.1181 -0.05,-0.6865 -0.3612,-1.1586 -0.8136,-1.2333 -0.4548,-0.075 -0.51,-0.072 -0.7627,0.051 z m 3.8449,11.3025 c 0.082,0.098 0.084,0.156 0.01,0.2029 -0.1127,0.069 -0.3893,-0.1113 -0.3893,-0.2547 0,-0.1343 0.256,-0.1002 0.3818,0.052 z"
         style="fill:#000000;stroke-width:0.0257245"
         id="path87704-4-0" />
      <path
         d="m 985.93037,356.9518 c -0.4263,0.2417 -0.361,0.463 0.3282,1.1134 0.4904,0.4628 0.5777,0.5793 0.4828,0.6442 -0.063,0.044 -0.1681,0.058 -0.2319,0.03 -0.063,-0.027 -0.2026,-0.052 -0.3088,-0.057 -0.2765,-0.011 -0.4862,0.416 -0.4232,0.8613 0.026,0.1806 0.028,0.3283 0.011,0.3283 -0.023,0 -0.3466,-0.1551 -0.7191,-0.3446 -0.3726,-0.1897 -0.8683,-0.4329 -1.102,-0.5406 -0.7097,-0.3274 -0.7786,-0.4084 -0.8273,-0.9733 -0.024,-0.2734 -0.077,-0.5406 -0.1193,-0.5937 -0.094,-0.1192 -0.5528,-0.1262 -0.7662,-0.011 -0.1469,0.079 -0.1541,0.1296 -0.1035,0.7311 0.053,0.6421 0.051,0.6488 -0.1958,0.9939 -0.2471,0.3441 -0.2488,0.3517 -0.1587,0.7943 0.057,0.2777 0.065,0.5346 0.025,0.6785 -0.038,0.1325 -0.037,0.3641 0,0.5407 0.038,0.17 0.099,0.5349 0.1351,0.8109 0.1661,1.274 0.3331,2.3328 0.4634,2.935 0.079,0.3609 0.1641,0.8302 0.1912,1.0425 0.1003,0.786 0.3238,1.2062 0.7245,1.3608 0.126,0.048 0.1666,0.1093 0.1327,0.1976 -0.027,0.071 -0.089,0.3651 -0.1394,0.6556 -0.073,0.4262 -0.1143,0.5207 -0.214,0.4891 -0.068,-0.022 -0.1853,0.011 -0.2608,0.061 -0.1307,0.096 -0.129,0.1258 0.036,0.6375 0.095,0.2954 0.2281,0.6131 0.2958,0.7058 0.3601,0.4934 1.3522,0.6608 1.8615,0.3141 0.4048,-0.2755 0.546,-0.5271 0.617,-1.1002 0.06,-0.4849 0.051,-0.5362 -0.099,-0.6587 -0.1539,-0.1245 -0.1564,-0.1441 -0.04,-0.3208 0.086,-0.1309 0.2729,-0.2295 0.614,-0.3236 1.073,-0.2961 1.5453,-0.6333 1.8493,-1.3207 0.1436,-0.3247 0.1729,-0.5501 0.1915,-1.4674 0.012,-0.596 0.025,-1.1097 0.028,-1.1415 0,-0.032 0.1299,-0.1951 0.2819,-0.3635 0.2675,-0.2961 0.2746,-0.3194 0.2226,-0.7359 -0.031,-0.2365 -0.1713,-0.6752 -0.315,-0.975 -0.1435,-0.2997 -0.2609,-0.6395 -0.2609,-0.755 0,-0.1154 -0.039,-0.249 -0.087,-0.2965 -0.063,-0.063 -0.064,-0.2851 -2e-4,-0.8458 0.047,-0.4175 0.066,-0.9154 0.041,-1.1065 -0.025,-0.1911 -0.05,-0.6023 -0.058,-0.9136 -0.013,-0.6363 -0.037,-0.6665 -0.7078,-0.9864 -0.4227,-0.2013 -1.1173,-0.2478 -1.3902,-0.093 z m -1.6316,6.5391 c 0.1231,0.136 0.1175,0.1573 -0.1057,0.3967 -0.1299,0.139 -0.2491,0.2395 -0.2645,0.223 -0.016,-0.016 -0.067,-0.1673 -0.1118,-0.3354 -0.063,-0.2327 -0.061,-0.3198 0.011,-0.3657 0.1583,-0.1003 0.3342,-0.071 0.4712,0.082 z"
         style="fill:#000000;stroke-width:0.0204345"
         id="path89441-8" />
    </g>
  </g>
</svg>
