<?xml version="1.0" encoding="UTF-8" standalone="no"?>
<!-- Created with Inkscape (http://www.inkscape.org/) -->

<svg
   width="27.619001mm"
   height="5.9856162mm"
   viewBox="0 0 27.619001 5.9856162"
   version="1.1"
   id="svg12576"
   sodipodi:docname="inkporter-svg-a0l3ettz.svg"
   xmlns:inkscape="http://www.inkscape.org/namespaces/inkscape"
   xmlns:sodipodi="http://sodipodi.sourceforge.net/DTD/sodipodi-0.dtd"
   xmlns="http://www.w3.org/2000/svg"
   xmlns:svg="http://www.w3.org/2000/svg">
  <sodipodi:namedview
     id="namedview12578"
     pagecolor="#ffffff"
     bordercolor="#666666"
     borderopacity="1.0"
     inkscape:pageshadow="2"
     inkscape:pageopacity="0.0"
     inkscape:pagecheckerboard="0"
     inkscape:document-units="mm"
     showgrid="false"
     inkscape:zoom="0.66368547"
     inkscape:cx="397.02542"
     inkscape:cy="561.25984"
     inkscape:window-width="1920"
     inkscape:window-height="1017"
     inkscape:window-x="-8"
     inkscape:window-y="-8"
     inkscape:window-maximized="1"
     inkscape:current-layer="layer1" />
  <defs
     id="defs12573" />
  <g
     inkscape:label="Layer 1"
     inkscape:groupmode="layer"
     id="layer1"
     transform="translate(-128.98686,-162.82888)">
    <g
       id="S-57mm"
       transform="matrix(0.35277777,0,0,-0.35277777,-191.25731,293.98994)">
      <path
         d="m 974.94426,356.07253 c -0.36812,0.0868 -0.61091,0.36624 -0.61091,0.70341 0,0.28609 -0.0474,0.30103 -0.39988,0.12596 -0.41858,-0.20799 -1.03092,-0.3403 -1.28239,-0.27732 -0.26453,0.0662 -0.57844,0.51125 -0.57889,0.82069 0,0.11013 0.0832,0.38333 0.18482,0.60698 0.19019,0.41741 1.0608,1.61715 1.34036,1.84697 0.26516,0.21792 0.64894,0.8894 0.64894,1.13541 0,0.12837 0.0546,0.27902 0.12246,0.33493 0.10279,0.0859 0.068,0.19493 -0.21747,0.68347 -0.18688,0.31981 -0.33994,0.66808 -0.33994,0.77355 0,0.10556 -0.0376,0.21506 -0.0832,0.24315 -0.0456,0.0286 -0.41974,-0.13079 -0.83161,-0.35355 -0.64312,-0.34763 -0.79833,-0.398 -1.10168,-0.35729 -0.46331,0.0626 -0.52736,0.13991 -0.57361,0.69634 -0.0358,0.43075 -0.0161,0.4931 0.24824,0.79431 0.15781,0.17963 0.37144,0.35882 0.47476,0.39809 0.16094,0.0608 0.19538,0.16192 0.24065,0.70225 0.0573,0.68973 0.15056,0.84172 0.60232,0.98763 0.24521,0.0796 0.29915,0.151 0.38977,0.5185 0.18474,0.74797 0.72462,1.10893 1.45416,0.97206 0.42573,-0.0805 0.63668,-0.28859 0.82946,-0.82052 0.16765,-0.46295 0.16756,-0.46724 -0.009,-0.70064 -0.0955,-0.12918 -0.15047,-0.29494 -0.12238,-0.36848 0.0581,-0.15038 0.65261,-0.50911 0.84405,-0.50911 0.19341,0 0.63659,-0.44121 0.83009,-0.82633 0.096,-0.19135 0.2206,-0.64142 0.2766,-1.00024 0.0555,-0.35873 0.14752,-0.81873 0.20343,-1.02198 0.0868,-0.31632 0.13482,-0.36964 0.33225,-0.36964 0.21184,0 0.23832,-0.0412 0.3251,-0.50007 0.11164,-0.59097 0.14563,-1.31702 0.0698,-1.50041 -0.0304,-0.0716 -0.0438,-0.24789 -0.0331,-0.39138 0.0161,-0.20969 -0.0152,-0.26614 -0.16889,-0.28797 -0.15808,-0.0215 -0.1944,0.0215 -0.21739,0.26095 -0.0456,0.47378 -0.2028,0.2394 -0.18625,-0.27741 0.0215,-0.69876 0.0932,-1.44682 0.15557,-1.64282 0.0295,-0.094 0,-0.30505 -0.0698,-0.46894 -0.10306,-0.24673 -0.19234,-0.31517 -0.51815,-0.3972 -0.21649,-0.0546 -0.51653,-0.0752 -0.66673,-0.0447 -0.21766,0.0438 -0.32098,0.01 -0.50768,-0.16398 -0.24825,-0.23143 -0.56717,-0.41983 -0.68561,-0.40498 -0.0394,0.009 -0.20683,0.0412 -0.37323,0.0805 z m -1.48081,9.17928 c 0,0.14062 -0.0161,0.14671 -0.20647,0.0743 -0.10529,-0.0403 -0.11138,-0.0752 -0.0295,-0.16479 0.1222,-0.13222 0.23537,-0.0886 0.23537,0.0905 z"
         style="fill:#000000;stroke-width:0.0230128"
         id="path87571-6-55" />
      <path
         d="m 961.98884,355.96643 c -0.29566,0.1434 -0.88761,1.28042 -0.89826,1.72557 0,0.11952 0.18635,0.60868 0.42064,1.0871 0.36615,0.74806 0.43226,0.96419 0.47198,1.54397 0.0376,0.53908 0.0215,0.67398 -0.0751,0.67398 -0.1511,0 -0.31767,0.30032 -0.38253,0.68973 -0.0403,0.23805 -0.10118,0.31203 -0.30478,0.3666 -0.15602,0.042 -0.29915,0.0322 -0.36813,-0.0259 -0.0626,-0.051 -0.17203,-0.0707 -0.2444,-0.0429 -0.15047,0.0573 -0.1774,0.28699 -0.0394,0.33306 0.051,0.0161 0.10422,0.13767 0.11853,0.26828 0.0304,0.26981 0.0385,0.26838 -1.36219,0.25335 -0.71898,-0.009 -1.28373,0.11997 -1.40602,0.31785 -0.10977,0.17775 0.5032,0.29593 1.84008,0.35479 1.63808,0.0716 1.46122,-0.0331 2.07043,1.22487 0.22007,0.45445 0.49695,0.95345 0.61512,1.10902 0.19502,0.25639 0.25773,0.2826 0.67702,0.2826 h 0.46215 l 0.0546,0.40355 c 0.0796,0.58122 0.0734,0.61512 -0.11871,0.66549 -0.25219,0.0662 -0.21945,0.15485 0.21354,0.57978 0.33985,0.33341 0.44407,0.38476 0.84806,0.41723 0.77588,0.0626 1.3324,-0.44836 1.25645,-1.15276 -0.0206,-0.19135 -0.068,-0.42261 -0.1052,-0.51412 -0.0572,-0.1417 -0.0385,-0.15843 0.13231,-0.11379 0.14474,0.0385 0.29325,-0.0215 0.53657,-0.2181 0.39604,-0.31821 0.41509,-0.43039 0.11057,-0.65225 l -0.22588,-0.16451 0.32581,-0.64724 c 0.17937,-0.35595 0.43558,-0.81264 0.56958,-1.01482 0.26767,-0.40408 0.45454,-1.19991 0.3344,-1.42445 -0.0859,-0.15951 -0.40659,-0.30577 -0.88582,-0.40319 l -0.32536,-0.0662 0.19484,-0.24315 c 0.15772,-0.19681 0.29808,-0.25746 0.73795,-0.31946 0.54614,-0.0769 1.33222,-0.44971 1.60435,-0.76102 0.0743,-0.085 0.18402,-0.3115 0.24342,-0.50294 0.0599,-0.19135 0.25594,-0.64133 0.43665,-1.00024 0.18079,-0.35873 0.4209,-0.84163 0.53353,-1.07324 0.19323,-0.39693 0.36911,-0.58407 0.89539,-0.953 0.29352,-0.20585 0.29414,-0.52271 0,-0.656 -0.45803,-0.20871 -1.4198,-0.0376 -1.66393,0.29673 -0.0635,0.0868 -0.11496,0.26256 -0.11496,0.39103 0,0.21174 -0.13812,0.48674 -0.81228,1.61777 -0.32724,0.54928 -0.54803,0.65394 -1.4725,0.69778 -1.16815,0.0555 -1.5343,0.0411 -2.01971,-0.0805 -0.34567,-0.0868 -0.45865,-0.16236 -0.55545,-0.37027 -0.0671,-0.14349 -0.29342,-0.52226 -0.50356,-0.84162 -0.28994,-0.44059 -0.38932,-0.68195 -0.41241,-1.00024 -0.0447,-0.61414 -0.32312,-1.03647 -0.72783,-1.1033 -0.40686,-0.0671 -0.45624,-0.0644 -0.6823,0.0456 z m 3.4396,10.11108 c 0.0734,0.0877 0.0752,0.13956 0.009,0.18151 -0.10082,0.0617 -0.34827,-0.0996 -0.34827,-0.22785 0,-0.12014 0.22902,-0.0896 0.34156,0.0465 z"
         style="fill:#000000;stroke-width:0.0230128"
         id="path87704-4-9" />
      <path
         d="m 983.55673,355.9039 c -0.38136,0.21622 -0.32295,0.41419 0.29361,0.99603 0.4387,0.41402 0.5168,0.51824 0.4319,0.57629 -0.0564,0.0394 -0.15038,0.0519 -0.20745,0.0268 -0.0564,-0.0242 -0.18125,-0.0465 -0.27625,-0.051 -0.24736,-0.01 -0.43495,0.37215 -0.37859,0.77051 0.0233,0.16156 0.025,0.29369 0.01,0.29369 -0.0206,0 -0.31007,-0.13875 -0.6433,-0.30827 -0.33332,-0.16971 -0.77677,-0.38727 -0.98584,-0.48362 -0.63488,-0.29288 -0.69652,-0.36535 -0.74009,-0.8707 -0.0215,-0.24458 -0.0689,-0.48361 -0.10672,-0.53112 -0.0841,-0.10663 -0.49453,-0.11289 -0.68544,-0.01 -0.13141,0.0707 -0.13785,0.11594 -0.0926,0.65404 0.0474,0.57441 0.0456,0.58041 -0.17516,0.88913 -0.22105,0.30783 -0.22257,0.31462 -0.14197,0.71057 0.051,0.24843 0.0582,0.47825 0.0224,0.60698 -0.034,0.11853 -0.0331,0.32572 0,0.4837 0.034,0.15208 0.0886,0.47852 0.12086,0.72542 0.14859,1.13971 0.29798,2.0869 0.41455,2.62562 0.0707,0.32286 0.1468,0.74269 0.17104,0.93261 0.0897,0.70314 0.28967,1.07905 0.64813,1.21735 0.11272,0.0429 0.14904,0.0978 0.11871,0.17677 -0.0241,0.0635 -0.0796,0.32662 -0.1247,0.58649 -0.0653,0.38128 -0.10225,0.46582 -0.19144,0.43755 -0.0608,-0.0197 -0.16577,0.01 -0.23331,0.0546 -0.11692,0.0859 -0.1154,0.11254 0.0322,0.5703 0.085,0.26426 0.20406,0.54847 0.26462,0.6314 0.32214,0.44139 1.20967,0.59114 1.66528,0.28099 0.36213,-0.24646 0.48844,-0.47154 0.55196,-0.98423 0.0537,-0.43378 0.0456,-0.47968 -0.0886,-0.58926 -0.13768,-0.11138 -0.13992,-0.12891 -0.0358,-0.28699 0.0769,-0.1171 0.24414,-0.20531 0.54928,-0.28949 0.95989,-0.26488 1.38241,-0.56654 1.65436,-1.18148 0.12846,-0.29047 0.15468,-0.49211 0.17131,-1.31272 0.0107,-0.53317 0.0224,-0.99272 0.0251,-1.02117 0,-0.0286 0.11621,-0.17453 0.25219,-0.32518 0.2393,-0.26489 0.24565,-0.28573 0.19913,-0.65833 -0.0277,-0.21157 -0.15324,-0.60403 -0.28179,-0.87222 -0.12838,-0.26811 -0.2334,-0.57209 -0.2334,-0.67542 0,-0.10323 -0.0349,-0.22275 -0.0778,-0.26524 -0.0564,-0.0564 -0.0573,-0.25505 -1.8e-4,-0.75664 0.0421,-0.3735 0.059,-0.81891 0.0367,-0.98987 -0.0224,-0.17095 -0.0447,-0.53881 -0.0519,-0.81729 -0.0116,-0.56923 -0.0331,-0.59624 -0.63319,-0.88242 -0.37814,-0.18008 -0.99952,-0.22168 -1.24365,-0.0832 z m -1.45961,5.8498 c 0.11013,0.12166 0.10512,0.14072 -0.0946,0.35488 -0.1162,0.12435 -0.22284,0.21425 -0.23662,0.19949 -0.0143,-0.0143 -0.0599,-0.14966 -0.10001,-0.30004 -0.0564,-0.20817 -0.0546,-0.28609 0.01,-0.32715 0.14161,-0.0897 0.29897,-0.0635 0.42153,0.0734 z"
         style="fill:#000000;stroke-width:0.0182805"
         id="path89441-0" />
      <g
         id="g5492-7-1"
         transform="matrix(1.3317349,0,0,1.3317349,-1013.037,-1722.6033)">
        <path
           id="path30977-0-5"
           style="fill:#000000;fill-opacity:1;stroke:none;stroke-width:0.346715;stroke-opacity:1;-inkscape-stroke:none;paint-order:markers fill stroke;stop-color:#000000"
           d="m 1473.2957,1571.0933 0.064,-1.7693 -1.4841,-0.053 0.052,-1.434 2.7085,0.097 -0.052,1.434 -0.7547,-0.027 -0.064,1.7692 z m -3.4394,-3.832 a 3.2533401,3.2533401 0 0 1 -3.1889,-2.2746 3.2533401,3.2533401 0 0 1 2.1252,-4.0807 3.2533401,3.2533401 0 0 1 4.0808,2.1253 3.2533401,3.2533401 0 0 1 0.1315,0.6307 l 1.2162,0.012 0.018,0.1363 11.9579,-1.6139 -0.03,-0.2253 2.6247,-0.3542 0.9171,-0.6318 0.5452,-0.8528 1.6508,-0.1887 0.055,0.2804 -0.2674,0.5271 0.2291,0.4432 0.8503,0.5287 1.0704,0.025 0.1082,0.4256 -0.895,0.019 -0.2935,0.2091 -0.9879,0.082 -0.3149,-0.2792 -0.4343,0.059 -0.2065,0.4173 0.417,0.7058 c 0,0 1.0122,-0.1535 1.0788,-0.1625 0.066,-0.01 0.032,0.4867 0.032,0.4867 l -1.6004,0.063 -0.3283,-0.8023 -2.4326,0.2944 -0.1098,-0.5608 0.1843,-0.042 -1.7664,0.2383 -0.016,-0.1191 -11.9577,1.6138 0.019,0.1443 -1.4558,0.4156 a 3.2533401,3.2533401 0 0 1 -2.1342,2.1551 3.2533401,3.2533401 0 0 1 -0.4735,0.1111 3.2533401,3.2533401 0 0 1 -0.4183,0.038 z" />
        <g
           id="g6747">
          <path
             id="rect31001-6-1"
             style="fill:#000000;fill-opacity:1;stroke:none;stroke-width:0.346715;stroke-opacity:1;-inkscape-stroke:none;paint-order:markers fill stroke;stop-color:#000000"
             d="m 1470.3948,1572.6842 -0.1548,-2.5692 -8.2559,0.4971 c -0.2023,0.012 -0.3762,-0.142 -0.3883,-0.3443 l -0.01,-0.1173 c -0.012,-0.2022 0.1419,-0.3761 0.3441,-0.3883 l 0.1761,-0.01 -0.019,-0.3143 -10.7265,0.6457 -0.034,-1.0405 10.6982,-0.6442 -0.019,-0.308 -0.4092,0.025 c -0.1012,0.01 -0.1881,-0.071 -0.1941,-0.1722 l -0.039,-0.6525 c -0.01,-0.1011 0.071,-0.188 0.1721,-0.1941 l 4.9814,-0.2999 -0.011,-0.1901 1.2909,-1.4562 1.6592,-0.1 1.4066,1.2469 8.8394,-0.5322 c 0.05,0 0.094,0.035 0.097,0.086 l 0.052,0.8591 c 0,0.05 -0.035,0.094 -0.086,0.097 l -2.885,0.1737 c 0,0.019 0.01,0.039 0.01,0.058 l 0.091,1.517 c 0.018,0.3034 -0.2129,0.5642 -0.5163,0.5825 l -4.6944,0.2827 0.1278,2.1228 -1.1499,0.069 0.063,1.0488 z m -5.5377,-3.0982 2.8901,-0.174 -0.019,-0.3145 -2.8901,0.1741 z m 3.7666,-0.2267 1.5652,-0.094 -0.019,-0.3144 -1.565,0.094 z m -3.8483,-1.1303 2.2263,-0.134 -0.3265,-0.2895 -1.9183,0.1155 z"
             inkscape:transform-center-x="9.8194746"
             inkscape:transform-center-y="-4.7814608"
             sodipodi:nodetypes="cccccccccccccsscccccccccccccccccccccccccccccccccc" />
          <rect
             style="fill:#000000;stroke:none;stroke-width:1.16858;stroke-linejoin:round;stroke-opacity:1;paint-order:markers fill stroke;stop-color:#000000"
             id="rect22935-2-7"
             width="29.585154"
             height="0.91624105"
             x="1333.7769"
             y="-1663.8562"
             transform="matrix(0.99774682,-0.06709161,-0.06709161,-0.99774682,0,0)"
             ry="0"
             inkscape:transform-center-x="26.228764"
             inkscape:transform-center-y="-2.475391" />
        </g>
      </g>
      <path
         id="path8191-17"
         style="fill:#000000;fill-opacity:1;fill-rule:nonzero;stroke:none;stroke-width:0.670941"
         d="m 959.9052,363.58551 -0.41014,-0.0276 -0.48355,-0.0471 -0.44162,-0.0511 -0.40625,-0.0852 -0.19001,-0.11401 0.13237,-0.14808 0.1297,-0.0708 0.24248,-0.1127 0.25026,-0.0721 0.30139,-0.0485 0.33285,-0.0407 0.36828,-0.0353 0.40357,-0.08 0.15331,-0.20442 0.17035,-0.15201 0.19001,-0.0249 0.18478,0.002 0.63558,0.1376 0.076,-0.15857 0.93698,0.25554 h 1.74807 v 1.0562 h -2.34434 l -0.48093,0.0131 h -0.40491 l -0.3289,0.009 h -0.42202 z" />
      <path
         d="m 951.37306,355.81989 c -0.35253,0.0372 -0.47483,0.18796 -0.30504,0.3757 0.0701,0.0776 0.24204,0.17329 0.38197,0.21303 0.13993,0.0404 0.35742,0.16097 0.48322,0.26934 l 0.22886,0.19709 -0.0701,0.81111 c -0.0935,1.09245 -0.19836,1.80899 -0.32225,2.19553 -0.18477,0.57789 -0.15491,1.11508 0.0924,1.63198 0.11953,0.25128 0.25637,0.58427 0.30397,0.74024 0.0489,0.15587 0.16405,0.44019 0.25872,0.63197 0.119,0.24108 0.15842,0.41023 0.12782,0.54942 -0.0436,0.19666 -0.0542,0.20059 -0.53188,0.20059 -0.41565,0 -0.49948,-0.0213 -0.56397,-0.14173 -0.1139,-0.2125 -0.29952,-0.16628 -0.48248,0.12016 -0.22982,0.35987 -0.26817,0.6205 -0.1241,0.84054 0.0978,0.14949 0.10306,0.20272 0.0298,0.29112 -0.0489,0.0595 -0.0967,0.33448 -0.10625,0.61529 -0.0106,0.27901 -0.0829,0.78752 -0.16299,1.13028 -0.18147,0.7719 -0.18168,0.87252 0,1.20635 0.1224,0.22844 0.1325,0.3094 0.0691,0.54899 -0.0414,0.1547 -0.0669,0.33554 -0.0553,0.40205 0.0127,0.085 -0.0414,0.13292 -0.192,0.16107 -0.19783,0.0372 -0.21175,0.0606 -0.20006,0.3298 0.034,0.77891 0.35784,1.28274 0.95252,1.48015 0.59935,0.19922 1.20763,0.017 1.56887,-0.47142 0.14535,-0.19635 0.36465,-1.09192 0.30526,-1.24684 -0.0191,-0.0499 -0.0106,-0.0914 0.0159,-0.0935 0.31279,0 1.31918,-0.16267 1.58534,-0.25096 0.62071,-0.20623 1.19434,-0.80633 1.19434,-1.24949 0,-0.3025 0.25001,-0.8824 0.46973,-1.08991 0.12612,-0.11878 0.25149,-0.31035 0.27859,-0.4251 0.0276,-0.11486 0.14492,-0.37952 0.26201,-0.58798 0.19921,-0.35466 0.20994,-0.4114 0.16713,-0.88591 -0.0372,-0.40938 -0.0181,-0.58447 0.0967,-0.91076 0.15555,-0.44179 0.19115,-0.85361 0.11295,-1.30857 -0.0404,-0.24554 -0.0223,-0.34053 0.12346,-0.56705 l 0.17393,-0.2721 -0.0244,-1.77181 c -0.0127,-0.97473 -0.0234,-2.00662 -0.0223,-2.29307 0,-0.57715 -0.0818,-0.85467 -0.30005,-0.99099 -0.20835,-0.13015 -0.77349,-0.17966 -1.00873,-0.0882 -0.18997,0.0744 -0.19826,0.0946 -0.15045,0.37856 0.0287,0.16522 0.12527,0.44412 0.21654,0.61954 0.15565,0.29814 0.16532,0.38643 0.14758,1.35223 -0.017,0.94264 -0.0329,1.05102 -0.1751,1.23228 -0.0861,0.10944 -0.1564,0.22631 -0.1564,0.25978 0,0.034 -0.13929,0.35625 -0.30908,0.71771 -0.17,0.36135 -0.36114,0.83618 -0.42489,1.05527 -0.0638,0.21898 -0.17457,0.47089 -0.2466,0.55982 l -0.1309,0.16171 -0.2108,-0.31279 c -0.11592,-0.17191 -0.30132,-0.47207 -0.41203,-0.66703 -0.11071,-0.19487 -0.32183,-0.50734 -0.46931,-0.69445 -0.20962,-0.26636 -0.27858,-0.42765 -0.31779,-0.74427 -0.0276,-0.22217 -0.0871,-0.51574 -0.13472,-0.65216 -0.0574,-0.17032 -0.0691,-0.44826 -0.0319,-0.8859 0.0287,-0.35084 0.0744,-1.04125 0.0999,-1.53392 0.0446,-0.8619 0.0404,-0.90015 -0.10412,-1.00214 -0.11794,-0.0829 -0.1955,-0.0892 -0.35073,-0.0308 -0.15651,0.0584 -0.25309,0.0499 -0.44922,-0.0436 -0.23726,-0.11262 -0.58374,-0.13196 -1.19754,-0.0669 z"
         style="fill:#000000;stroke-width:0.0187528"
         id="path89458-9-0-1" />
    </g>
  </g>
</svg>
