<?xml version="1.0" encoding="UTF-8" standalone="no"?>
<!-- Created with Inkscape (http://www.inkscape.org/) -->

<svg
   width="27.038021mm"
   height="7.6973252mm"
   viewBox="0 0 27.038021 7.6973252"
   version="1.1"
   id="svg12576"
   sodipodi:docname="inkporter-svg-a0l3ettz.svg"
   xmlns:inkscape="http://www.inkscape.org/namespaces/inkscape"
   xmlns:sodipodi="http://sodipodi.sourceforge.net/DTD/sodipodi-0.dtd"
   xmlns="http://www.w3.org/2000/svg"
   xmlns:svg="http://www.w3.org/2000/svg">
  <sodipodi:namedview
     id="namedview12578"
     pagecolor="#ffffff"
     bordercolor="#666666"
     borderopacity="1.0"
     inkscape:pageshadow="2"
     inkscape:pageopacity="0.0"
     inkscape:pagecheckerboard="0"
     inkscape:document-units="mm"
     showgrid="false"
     inkscape:zoom="0.66368547"
     inkscape:cx="397.02542"
     inkscape:cy="561.25984"
     inkscape:window-width="1920"
     inkscape:window-height="1017"
     inkscape:window-x="-8"
     inkscape:window-y="-8"
     inkscape:window-maximized="1"
     inkscape:current-layer="layer1" />
  <defs
     id="defs12573" />
  <g
     inkscape:label="Layer 1"
     inkscape:groupmode="layer"
     id="layer1"
     transform="translate(-129.13298,-171.82045)">
    <g
       id="S-76mm-Art"
       transform="matrix(0.37482317,0,0,-0.37482317,-289.71589,718.09074)">
      <g
         id="g5492"
         transform="matrix(1.3317349,0,0,1.3317349,-813.50296,-640.5592)">
        <path
           id="path30977"
           style="fill:#000000;fill-opacity:1;stroke:none;stroke-width:0.346715;stroke-opacity:1;-inkscape-stroke:none;paint-order:markers fill stroke;stop-color:#000000"
           d="m 1473.2957,1571.0933 0.064,-1.7693 -1.4841,-0.053 0.052,-1.434 2.7085,0.097 -0.052,1.434 -0.7547,-0.027 -0.064,1.7692 z m -3.4394,-3.832 a 3.2533401,3.2533401 0 0 1 -3.1889,-2.2746 3.2533401,3.2533401 0 0 1 2.1252,-4.0807 3.2533401,3.2533401 0 0 1 4.0808,2.1253 3.2533401,3.2533401 0 0 1 0.1315,0.6307 l 1.2162,0.012 0.018,0.1363 11.9579,-1.6139 -0.03,-0.2253 2.6247,-0.3542 0.9171,-0.6318 0.5452,-0.8528 1.6508,-0.1887 0.055,0.2804 -0.2674,0.5271 0.2291,0.4432 0.8503,0.5287 1.0704,0.025 0.1082,0.4256 -0.895,0.019 -0.2935,0.2091 -0.9879,0.082 -0.3149,-0.2792 -0.4343,0.059 -0.2065,0.4173 0.417,0.7058 c 0,0 1.0122,-0.1535 1.0788,-0.1625 0.066,-0.01 0.032,0.4867 0.032,0.4867 l -1.6004,0.063 -0.3283,-0.8023 -2.4326,0.2944 -0.1098,-0.5608 0.1843,-0.042 -1.7664,0.2383 -0.016,-0.1191 -11.9577,1.6138 0.019,0.1443 -1.4558,0.4156 a 3.2533401,3.2533401 0 0 1 -2.1342,2.1551 3.2533401,3.2533401 0 0 1 -0.4735,0.1111 3.2533401,3.2533401 0 0 1 -0.4183,0.038 z" />
        <path
           id="rect31001"
           style="fill:#000000;fill-opacity:1;stroke:none;stroke-width:0.346715;stroke-opacity:1;-inkscape-stroke:none;paint-order:markers fill stroke;stop-color:#000000"
           d="m 1471.9549,1572.3325 -0.7735,-2.4548 -7.8886,2.4855 a 0.36694101,0.36694101 0 0 1 -0.4602,-0.2397 l -0.035,-0.1123 a 0.36694101,0.36694101 0 0 1 0.2397,-0.4602 l 0.1682,-0.053 -0.095,-0.3004 -10.2492,3.2293 a 0.2930967,0.2930967 0 0 1 -0.1421,0.1167 l -2.1267,0.8204 a 0.2584069,0.2584069 0 0 1 -0.3394,-0.1634 l -0.2947,-0.9351 a 0.2584069,0.2584069 0 0 1 0.1845,-0.3285 l 2.2129,-0.5469 a 0.2930967,0.2930967 0 0 1 0.2188,0.032 l 10.2221,-3.2208 -0.093,-0.2943 -0.391,0.1233 a 0.18347051,0.18347051 0 0 1 -0.2301,-0.1199 l -0.1965,-0.6234 a 0.18347051,0.18347051 0 0 1 0.1199,-0.2301 l 4.7597,-1.4997 -0.057,-0.1817 0.8989,-1.7259 1.5855,-0.4996 1.6671,0.8683 8.446,-2.6612 a 0.09173525,0.09173525 0 0 1 0.1151,0.06 l 0.2586,0.8209 a 0.09173525,0.09173525 0 0 1 -0.06,0.1151 l -2.7566,0.8685 a 0.55041154,0.55041154 0 0 1 0.022,0.055 l 0.4567,1.4495 a 0.55041154,0.55041154 0 0 1 -0.3596,0.6904 l -4.4855,1.4133 0.6391,2.0283 -1.0988,0.3462 0.3158,1.0021 z m -6.1239,-1.6618 2.7615,-0.8701 -0.095,-0.3005 -2.7616,0.8702 z m 3.599,-1.134 1.4955,-0.4712 -0.095,-0.3004 -1.4955,0.4711 z m -18.7842,5.3222 0.7417,-0.2336 a 0.07281485,0.07281485 0 0 0 0.047,-0.091 l -0.1403,-0.4455 a 0.07281485,0.07281485 0 0 0 -0.091,-0.048 l -0.7416,0.2336 a 0.07281485,0.07281485 0 0 0 -0.047,0.091 l 0.1403,0.4455 a 0.07281485,0.07281485 0 0 0 0.091,0.047 z m 1.1044,-0.348 0.7017,-0.221 a 0.07281485,0.07281485 0 0 0 0.048,-0.091 l -0.1403,-0.4455 a 0.07281485,0.07281485 0 0 0 -0.091,-0.048 l -0.7016,0.221 a 0.07281485,0.07281485 0 0 0 -0.048,0.091 l 0.1404,0.4455 a 0.07281485,0.07281485 0 0 0 0.091,0.047 z m 13.6723,-5.1366 2.1272,-0.6702 -0.3869,-0.2016 -1.833,0.5775 z" />
      </g>
      <path
         d="m 1160.0793,1437.8174 c -0.2071,0.04 -0.405,0.1 -0.4395,0.1325 -0.117,0.1108 0.1823,0.4126 0.4639,0.4678 0.1536,0.031 0.4405,0.1395 0.6376,0.2432 0.4019,0.2115 0.3945,0.1147 0.098,1.2978 -0.094,0.3743 -0.2444,0.8828 -0.3347,1.1301 -0.2257,0.6185 -0.215,1.0461 0.032,1.2781 0.2294,0.2155 1.1602,0.6108 1.4394,0.6114 0.1062,0 0.3186,0.077 0.4722,0.1704 0.2442,0.1489 0.2673,0.1925 0.1841,0.3479 l -0.095,0.1775 -0.2122,-0.1992 c -0.1799,-0.169 -0.3052,-0.2004 -0.8219,-0.2066 -0.4046,-0.01 -0.7242,0.042 -0.9499,0.1399 -0.6144,0.2659 -0.9749,0.3172 -1.5967,0.2268 -0.3992,-0.058 -0.4082,-0.054 -0.5435,0.2295 -0.076,0.1588 -0.114,0.3503 -0.085,0.4259 0.073,0.1892 0.3922,0.2927 0.6641,0.2148 0.1818,-0.052 0.2828,-0.016 0.5111,0.1783 0.3445,0.2949 0.4694,0.3062 0.7253,0.066 0.1617,-0.1519 0.2303,-0.1684 0.3881,-0.093 0.1054,0.05 0.2491,0.1099 0.3192,0.1318 0.1436,0.045 0.4881,1.0367 0.5333,1.5349 0.03,0.317 0.023,0.325 -0.2084,0.2788 -0.1309,-0.026 -0.2946,-0.025 -0.3637,0 -0.1704,0.066 -0.5565,0.7715 -0.5565,1.018 0,0.12 -0.076,0.2382 -0.1913,0.2983 -0.1052,0.054 -0.2024,0.1085 -0.2157,0.1194 -0.073,0.06 0.3564,0.9805 0.5382,1.1512 0.3168,0.2975 1.1756,0.3442 1.5081,0.082 0.2845,-0.2245 0.4938,-0.6865 0.5206,-1.1484 0.015,-0.263 0.057,-0.3456 0.1843,-0.3644 0.6113,-0.09 1.068,-0.3083 1.4005,-0.6692 0.1941,-0.2105 0.3639,-0.3703 0.3773,-0.355 0.013,0.014 -0.029,0.328 -0.091,0.6946 -0.173,0.9954 -0.01,1.1927 0.6486,0.7778 0.383,-0.2416 0.3888,-0.2668 0.2052,-0.8848 -0.073,-0.247 -0.1116,-0.471 -0.085,-0.4977 0.028,-0.027 -0.014,-0.1185 -0.092,-0.2041 -0.128,-0.1415 -0.1287,-0.1694 -0.01,-0.3047 0.073,-0.082 0.1461,-0.2435 0.162,-0.3592 0.016,-0.1157 0.1149,-0.2531 0.2198,-0.3053 0.3431,-0.1702 0.5438,-0.4093 0.7951,-0.9468 0.2769,-0.5922 0.3245,-1.194 0.1249,-1.5767 -0.089,-0.1707 -0.1003,-0.3067 -0.042,-0.5096 0.1482,-0.5169 0.086,-0.5927 -0.7072,-0.8605 -0.082,-0.028 -0.1488,-0.1285 -0.1488,-0.2241 0,-0.096 -0.036,-0.2404 -0.08,-0.3216 -0.1679,-0.3145 -0.2842,-0.7292 -0.1908,-0.6801 0.6373,0.3344 1.251,0.5688 1.5983,0.6106 0.3896,0.047 0.4491,0.032 0.5616,-0.1405 0.1342,-0.2056 0.2103,-0.5256 0.29,-1.2197 0.082,-0.7153 -0.416,-1.491 -0.7043,-1.0968 -0.064,0.087 -0.1152,0.2783 -0.1152,0.4259 0,0.1575 -0.068,0.3298 -0.165,0.4175 -0.1583,0.1433 -0.1887,0.1382 -0.7442,-0.1225 -0.3185,-0.1494 -0.6683,-0.3542 -0.7773,-0.4549 -0.1633,-0.1511 -0.3248,-0.1886 -0.9161,-0.2134 -0.4822,-0.02 -0.7594,0 -0.8438,0.073 -0.095,0.08 -0.1258,0.3109 -0.127,0.9656 0,0.4737 -0.03,0.9032 -0.064,0.9546 -0.082,0.1218 -0.7986,0.2163 -0.9468,0.1246 -0.096,-0.059 -0.097,-0.1636 -0.01,-0.6123 0.1705,-0.8696 0.3129,-2.2769 0.242,-2.3915 -0.078,-0.1253 -1.7784,-0.1508 -2.3737,-0.036 z"
         style="fill:#000000;stroke-width:0.0225015"
         id="path87588-9-8-7" />
      <path
         d="m 1171.5324,1437.3844 c -0.3729,0.2114 -0.3158,0.405 0.2871,0.9739 0.429,0.4048 0.5053,0.5067 0.4223,0.5635 -0.055,0.038 -0.147,0.051 -0.2028,0.026 -0.055,-0.024 -0.1773,-0.045 -0.2702,-0.05 -0.2418,-0.01 -0.4252,0.3639 -0.3701,0.7534 0.023,0.158 0.024,0.2872 0.01,0.2872 -0.02,0 -0.3032,-0.1357 -0.629,-0.3015 -0.326,-0.1659 -0.7595,-0.3786 -0.964,-0.4728 -0.6208,-0.2864 -0.681,-0.3573 -0.7236,-0.8514 -0.021,-0.2391 -0.067,-0.4729 -0.1044,-0.5193 -0.082,-0.1043 -0.4835,-0.1104 -0.6702,-0.01 -0.1285,0.069 -0.1348,0.1133 -0.091,0.6395 0.046,0.5616 0.045,0.5675 -0.1713,0.8694 -0.2161,0.3009 -0.2176,0.3076 -0.1388,0.6947 0.05,0.2429 0.057,0.4677 0.022,0.5935 -0.033,0.1159 -0.032,0.3185 0,0.473 0.033,0.1487 0.087,0.4679 0.1182,0.7093 0.1453,1.1144 0.2914,2.0405 0.4053,2.5673 0.069,0.3157 0.1436,0.7262 0.1673,0.9119 0.088,0.6875 0.2832,1.055 0.6337,1.1903 0.1102,0.042 0.1457,0.096 0.1161,0.1728 -0.024,0.062 -0.078,0.3194 -0.1219,0.5735 -0.064,0.3728 -0.1,0.4554 -0.1872,0.4278 -0.059,-0.019 -0.1621,0.01 -0.2282,0.053 -0.1143,0.084 -0.1128,0.11 0.032,0.5576 0.083,0.2584 0.1996,0.5363 0.2588,0.6174 0.315,0.4316 1.1828,0.578 1.6283,0.2747 0.3541,-0.2409 0.4776,-0.461 0.5397,-0.9623 0.052,-0.4242 0.045,-0.469 -0.087,-0.5762 -0.1347,-0.1089 -0.1368,-0.126 -0.035,-0.2806 0.075,-0.1145 0.2387,-0.2007 0.537,-0.2831 0.9386,-0.259 1.3517,-0.5539 1.6176,-1.1552 0.1256,-0.284 0.1513,-0.4812 0.1675,-1.2835 0.011,-0.5214 0.022,-0.9707 0.024,-0.9985 0,-0.028 0.1137,-0.1707 0.2466,-0.318 0.234,-0.259 0.2402,-0.2794 0.1947,-0.6437 -0.027,-0.2069 -0.1498,-0.5906 -0.2755,-0.8528 -0.1255,-0.2622 -0.2282,-0.5594 -0.2282,-0.6604 0,-0.101 -0.034,-0.2178 -0.076,-0.2594 -0.055,-0.055 -0.056,-0.2494 -2e-4,-0.7398 0.041,-0.3652 0.058,-0.8007 0.036,-0.9679 -0.022,-0.1671 -0.044,-0.5268 -0.051,-0.7991 -0.011,-0.5566 -0.032,-0.583 -0.6191,-0.8629 -0.3697,-0.176 -0.9773,-0.2167 -1.216,-0.081 z m -1.4272,5.7198 c 0.1077,0.119 0.1028,0.1376 -0.092,0.347 -0.1136,0.1216 -0.2179,0.2095 -0.2313,0.1951 -0.014,-0.014 -0.059,-0.1463 -0.098,-0.2934 -0.055,-0.2035 -0.053,-0.2797 0.01,-0.3199 0.1384,-0.088 0.2923,-0.062 0.4121,0.072 z"
         style="fill:#000000;stroke-width:0.0178743"
         id="path89441-2-4" />
      <path
         d="m 1152.3518,1437.7228 c -0.3318,0.035 -0.4469,0.1769 -0.2871,0.3536 0.066,0.073 0.2278,0.1631 0.3595,0.2005 0.1317,0.038 0.3364,0.1515 0.4548,0.2535 l 0.2154,0.1855 -0.066,0.7634 c -0.088,1.0282 -0.1867,1.7026 -0.3033,2.0664 -0.1739,0.5439 -0.1458,1.0495 0.087,1.536 0.1125,0.2365 0.2413,0.5499 0.2861,0.6967 0.046,0.1467 0.1544,0.4143 0.2435,0.5948 0.112,0.2269 0.1491,0.3861 0.1203,0.5171 -0.041,0.1851 -0.051,0.1888 -0.5006,0.1888 -0.3912,0 -0.4701,-0.02 -0.5308,-0.1334 -0.1072,-0.2 -0.2819,-0.1565 -0.4541,0.1131 -0.2163,0.3387 -0.2524,0.584 -0.1168,0.7911 0.092,0.1407 0.097,0.1908 0.028,0.274 -0.046,0.056 -0.091,0.3148 -0.1,0.5791 -0.01,0.2626 -0.078,0.7412 -0.1534,1.0638 -0.1708,0.7265 -0.171,0.8212 0,1.1354 0.1152,0.215 0.1247,0.2912 0.065,0.5167 -0.039,0.1456 -0.063,0.3158 -0.052,0.3784 0.012,0.08 -0.039,0.1251 -0.1807,0.1516 -0.1862,0.035 -0.1993,0.057 -0.1883,0.3104 0.032,0.7331 0.3368,1.2073 0.8965,1.3931 0.5641,0.1875 1.1366,0.016 1.4766,-0.4437 0.1368,-0.1848 0.3432,-1.0277 0.2873,-1.1735 -0.018,-0.047 -0.01,-0.086 0.015,-0.088 0.2944,0 1.2416,-0.1531 1.4921,-0.2362 0.5842,-0.1941 1.1241,-0.7589 1.1241,-1.176 0,-0.2847 0.2353,-0.8305 0.4421,-1.0258 0.1187,-0.1118 0.2367,-0.2921 0.2622,-0.4001 0.026,-0.1081 0.1364,-0.3572 0.2466,-0.5534 0.1875,-0.3338 0.1976,-0.3872 0.1573,-0.8338 -0.035,-0.3853 -0.017,-0.5501 0.091,-0.8572 0.1464,-0.4158 0.1799,-0.8034 0.1063,-1.2316 -0.038,-0.2311 -0.021,-0.3205 0.1162,-0.5337 l 0.1637,-0.2561 -0.023,-1.6676 c -0.012,-0.9174 -0.022,-1.8886 -0.021,-2.1582 0,-0.5432 -0.077,-0.8044 -0.2824,-0.9327 -0.1961,-0.1225 -0.728,-0.1691 -0.9494,-0.083 -0.1788,0.07 -0.1866,0.089 -0.1416,0.3563 0.027,0.1555 0.1179,0.418 0.2038,0.5831 0.1465,0.2806 0.1556,0.3637 0.1389,1.2727 -0.016,0.8872 -0.031,0.9892 -0.1648,1.1598 -0.081,0.103 -0.1472,0.213 -0.1472,0.2445 0,0.032 -0.1311,0.3353 -0.2909,0.6755 -0.16,0.3401 -0.3399,0.787 -0.3999,0.9932 -0.06,0.2061 -0.1643,0.4432 -0.2321,0.5269 l -0.1232,0.1522 -0.1984,-0.2944 c -0.1091,-0.1618 -0.2836,-0.4443 -0.3878,-0.6278 -0.1042,-0.1834 -0.3029,-0.4775 -0.4417,-0.6536 -0.1973,-0.2507 -0.2622,-0.4025 -0.2991,-0.7005 -0.026,-0.2091 -0.082,-0.4854 -0.1268,-0.6138 -0.054,-0.1603 -0.065,-0.4219 -0.03,-0.8338 0.027,-0.3302 0.07,-0.98 0.094,-1.4437 0.042,-0.8112 0.038,-0.8472 -0.098,-0.9432 -0.111,-0.078 -0.184,-0.084 -0.3301,-0.029 -0.1473,0.055 -0.2382,0.047 -0.4228,-0.041 -0.2233,-0.106 -0.5494,-0.1242 -1.1271,-0.063 z"
         style="fill:#000000;stroke-width:0.0176498"
         id="path89458-9-0" />
      <path
         id="path17968-9"
         style="fill:#000000;stroke-width:0.0461155"
         d="m 1177.4224,1452.5516 c -0.07,0 -0.1417,0 -0.2133,-0.016 -1.0559,-0.019 -1.4779,-1.3821 -0.8929,-2.1708 0.2464,-0.343 0.3533,-0.9508 -0.2734,-0.5943 0.1936,0.7969 -0.5746,1.1931 -1.2176,0.856 -0.9075,-0.01 -0.6265,-1.0388 -0.885,-1.6398 -0.2524,-0.7332 0.1523,-1.5069 0.973,-1.5671 0.37,-0.085 1.0948,0.3147 0.9146,-0.4059 0.082,-0.5021 -0.1789,-1.1278 0.1589,-1.5374 -0.2106,-2.0068 -0.1976,-4.0272 -0.248,-6.0421 -0.3472,-1.1271 1.1258,-0.847 1.8402,-1.0628 0.01,-0.012 0.03,-0.019 0.064,-0.02 0.1769,-0.5248 -1.5085,-0.8123 -0.8534,-1.3518 0.1712,-0.1233 0.3891,-0.047 0.5844,-0.069 0.5604,0.059 2.1367,-0.1473 2.534,0.2471 0.1751,0.2532 0.1111,0.5659 0,0.8944 v 0 c -0.043,0.4551 0.6922,0.4129 0.6879,0.952 -0.2591,1.9312 -0.4593,3.8753 -0.9462,5.7672 -0.587,1.0464 -0.057,1.8633 0.123,2.9178 -0.1964,0.8828 -0.2422,1.9012 -1.0922,2.4504 -0.9751,0.5183 0.065,0.8014 -0.3069,1.4683 -0.027,0.524 -0.4647,0.9053 -0.957,0.9226 z" />
      <path
         id="path8191-6"
         style="fill:#000000;fill-opacity:1;fill-rule:nonzero;stroke:none;stroke-width:0.75"
         d="m 1158.011,1445.3453 -0.4585,-0.031 -0.5405,-0.053 -0.4937,-0.057 -0.4541,-0.095 -0.2124,-0.1274 0.148,-0.1655 0.1449,-0.079 0.2711,-0.126 0.2797,-0.081 0.3369,-0.054 0.3721,-0.045 0.4117,-0.04 0.4511,-0.089 0.1714,-0.2285 0.1904,-0.17 0.2124,-0.028 h 0.2066 l 0.7104,0.1538 0.085,-0.1772 1.0474,0.2856 h 1.954 v 1.1807 h -2.6205 l -0.5376,0.015 h -0.4527 l -0.3676,0.01 h -0.4718 z" />
      <path
         id="path8191-6-4"
         style="fill:#000000;fill-opacity:1;fill-rule:nonzero;stroke:none;stroke-width:1"
         d="m 2011.1172,-826.66602 c -0.1996,0.007 -0.3968,0.0472 -0.5781,0.12305 -0.573,0.2392 -0.8467,0.78023 -0.8614,1.71289 0,0.2824 0.025,0.34281 0.1875,0.38281 0.2907,0.0704 0.6117,0.68609 0.541,1.03516 -0.053,0.25893 -0.1028,0.29377 -0.746,0.50977 -0.3792,0.12746 -0.7895,0.29695 -0.9122,0.37695 -0.2336,0.15307 -0.6405,0.93829 -1.0839,2.08789 -0.1532,0.39747 -0.3809,0.79788 -0.5606,0.98828 -0.3439,0.36347 -0.3416,0.49145 0.018,1.08399 0.2852,0.4708 0.9752,0.91244 1.4394,0.92578 0.188,0.004 0.4254,0.0324 0.5254,0.0644 l 0.1836,0.0547 -0.1601,0.51172 c -0.1932,0.61546 -0.2021,0.86711 -0.043,1.24804 0.1807,0.43054 0.262,2.1514 0.1406,2.94727 -0.092,0.59867 -0.083,0.73566 0.074,1.3418 0.097,0.37106 0.1758,0.72887 0.1758,0.79687 0,0.0679 0.096,0.3151 0.2129,0.54883 0.2348,0.468 0.2801,0.70986 0.3321,1.75586 0.019,0.3884 0.079,0.75826 0.1308,0.82226 0.076,0.092 -0.015,0.20657 -0.4394,0.54883 -0.2948,0.23747 -0.656,0.52844 -0.8028,0.64844 -0.5952,0.4836 -0.3269,0.86416 0.5645,0.79883 0.4084,-0.0296 0.5886,-0.0957 0.9121,-0.32813 0.3359,-0.24053 0.4688,-0.28615 0.7988,-0.27148 0.7396,0.0321 0.7978,-0.21393 0.4649,-1.98633 -0.1107,-0.5908 -0.1331,-1.03379 -0.096,-1.91992 0.027,-0.63347 0.047,-1.17069 0.061,-1.19336 0.043,-0.14587 0.1488,0.7453 0.1621,1.2793 0.01,0.42013 0.05,0.69668 0.1328,0.80468 0.092,0.1216 0.125,0.40972 0.125,1.08399 0,0.58773 0.034,0.93594 0.096,0.97461 0.067,0.0401 0.1523,0.25766 0.043,0.625 -0.3521,1.17773 0.042,0.95153 0.3945,1.01953 1.0156,0.0223 1.4314,0.0332 1.3301,-0.53321 -0.1729,-0.45573 -0.4807,-0.76773 -0.4141,-1.14453 0.1008,-0.56946 0.2536,-1.96961 0.295,-2.70507 0.015,-0.28147 0.071,-0.91581 0.123,-1.40821 0.052,-0.49266 0.1343,-1.5871 0.1836,-2.43164 0.049,-0.8444 0.1329,-1.67308 0.1836,-1.84375 0.051,-0.17053 0.072,-0.44005 0.049,-0.59765 -0.071,-0.4744 -0.3381,-1.30162 -0.4687,-1.45508 -0.1662,-0.1956 -0.062,-0.35428 0.1543,-0.23828 0.239,0.132 1.2006,0.139 1.4297,0.0137 0.3322,-0.18107 0.5254,-0.59901 0.5254,-1.11914 0,-0.394 -0.044,-0.51749 -0.2559,-0.76563 -0.1739,-0.20284 -0.2487,-0.32254 -0.2305,-0.41211 l 0.4082,-0.26758 c 0.087,-0.0432 0.1857,-0.0943 0.2949,-0.15624 l 0.2149,-0.11329 0.4375,-0.24023 0.3887,-0.23633 0.3066,-0.24023 0.2715,-0.29102 0.1387,-0.16992 0.1,-0.27734 -0.3262,-0.0508 -0.6074,0.10938 -0.6387,0.17578 -0.6953,0.20508 -0.582,0.19141 -0.1934,0.0781 c 0,-0.026 -0.01,-0.0507 -0.012,-0.0781 -0.03,-0.2228 -0.1496,-0.60366 -0.2656,-0.84766 -0.2459,-0.5188 -0.4522,-0.64499 -1.4336,-0.88086 -0.7595,-0.1824 -0.9944,-0.34075 -0.8496,-0.57422 0.05,-0.0813 0.1405,-0.34944 0.1992,-0.5957 0.067,-0.28187 0.1525,-0.44922 0.2285,-0.44922 0.2931,0 0.23,-0.2988 -0.291,-1.36133 -0.217,-0.4431 -0.831,-0.71272 -1.4297,-0.69141 z m -1.9492,7.28321 c 0.025,0.007 0.035,0.0607 0.035,0.16797 0,0.25733 -0.064,0.30099 -0.1426,0.0976 -0.028,-0.0736 -0.01,-0.17847 0.045,-0.23047 0.028,-0.0269 0.048,-0.0396 0.062,-0.0351 z"
         transform="matrix(0.75000002,0,0,-0.75000002,-323.91864,833.00404)" />
    </g>
  </g>
</svg>
