<?xml version="1.0" encoding="UTF-8" standalone="no"?>
<!-- Created with Inkscape (http://www.inkscape.org/) -->

<svg
   width="16.414757mm"
   height="8.5160503mm"
   viewBox="0 0 16.414757 8.5160503"
   version="1.1"
   id="svg6745"
   sodipodi:docname="inkporter-svg-de2d1i4p.svg"
   xmlns:inkscape="http://www.inkscape.org/namespaces/inkscape"
   xmlns:sodipodi="http://sodipodi.sourceforge.net/DTD/sodipodi-0.dtd"
   xmlns="http://www.w3.org/2000/svg"
   xmlns:svg="http://www.w3.org/2000/svg">
  <sodipodi:namedview
     id="namedview6747"
     pagecolor="#ffffff"
     bordercolor="#666666"
     borderopacity="1.0"
     inkscape:pageshadow="2"
     inkscape:pageopacity="0.0"
     inkscape:pagecheckerboard="0"
     inkscape:document-units="mm"
     showgrid="false"
     inkscape:zoom="0.66368547"
     inkscape:cx="397.02542"
     inkscape:cy="561.25984"
     inkscape:window-width="1920"
     inkscape:window-height="1017"
     inkscape:window-x="-8"
     inkscape:window-y="-8"
     inkscape:window-maximized="1"
     inkscape:current-layer="layer1" />
  <defs
     id="defs6742" />
  <g
     inkscape:label="Layer 1"
     inkscape:groupmode="layer"
     id="layer1"
     transform="translate(-80.231514,-210.564)">
    <path
       d="m 96.646267,216.30619 c 0,0 -0.650523,-0.49071 -0.684742,-0.49071 -0.03457,0 0.205317,-0.14852 0.205317,-0.14852 l -0.960967,-2.50755 -0.02011,-0.001 -0.391936,-1.65523 c 0,0 -0.101953,-0.28893 -0.259292,-0.28893 -0.156986,0 -0.203906,0.008 -0.203906,0.008 v -0.0765 h -1.414286 v 0.10195 l -0.548216,0.0511 -0.114653,-0.14464 v -0.54786 c 0,0 -0.0042,-0.0423 -0.144639,-0.0423 -0.140053,0 -0.16122,0.072 -0.16122,0.072 v 0.52705 c 0,0.0254 -0.05962,0 -0.05962,0 l -0.156986,0.13159 c 0,0 -0.0042,0.0935 0,0.10618 0.0042,0.0127 -0.773289,0.15699 -0.832556,0.15276 -0.05115,-0.004 -0.801511,0.0646 -1.014588,0.50976 h -1.262592 v 0.0427 h -0.887589 l -0.100189,0.0808 h -2.176992 v 0.22931 h 2.182989 l 0.06421,0.0681 h 0.917575 v 0.0677 h 1.266119 c 0.06667,0.12806 0.178506,0.23142 0.283634,0.30692 H 89.30602 l -1.440745,0.29068 v -0.1344 l -0.61595,0.0892 v 0.16933 l -0.297392,0.06 -0.01482,0.0603 c -0.174978,0.054 -0.307975,0.20849 -0.335492,0.39829 h -1.025878 v 0.16157 h 1.027995 c 0.01376,0.078 0.04516,0.14958 0.08996,0.21025 -0.52705,0.0399 -4.635147,0.34996 -4.784725,0.34996 -0.159808,0 -0.262466,0.12559 -0.307975,0.23953 -0.02011,0.0501 -0.152047,0.514 -0.293511,1.01953 l -0.404636,0.2921 c 0,0 0.161572,0.084 0.282575,0.14429 -0.05009,0.17956 -0.09737,0.35031 -0.137936,0.49565 -0.0314,0.0427 -0.06033,0.0871 -0.08749,0.133 h -0.320675 v -0.11465 h -0.407811 v 0.45014 h 0.407811 v -0.12312 h 0.218017 c -0.06526,0.16757 -0.101248,0.34925 -0.101248,0.53975 0,0.82268 0.66675,1.48978 1.489781,1.48978 0.785989,0 1.429808,-0.60925 1.485194,-1.38112 H 84.3382 c 0.261056,0.43109 0.734483,0.71896 1.274939,0.71896 0.540808,0 1.014236,-0.28787 1.275291,-0.71896 h 0.522817 l 0.171097,-0.0801 H 89.2718 v -0.19403 h -0.947208 l 0.799041,-0.20532 h 0.47872 c -0.02187,0.1009 -0.03351,0.20602 -0.03351,0.31397 0,0.82268 0.66675,1.48943 1.48978,1.48943 0.648406,0 1.199798,-0.41451 1.404409,-0.99307 h 0.508705 c 0.191206,0.60219 0.754592,1.03893 1.419931,1.03893 0.822678,0 1.48978,-0.6671 1.48978,-1.48978 0,-0.20673 -0.04233,-0.40393 -0.11818,-0.58279 0.337961,-0.28257 0.852664,-0.7052 0.883003,-0.69003"
       id="S-Ba10"
       style="stroke-width:0.352778" />
  </g>
</svg>
