<?xml version="1.0" encoding="UTF-8" standalone="no"?>
<!-- Created with Inkscape (http://www.inkscape.org/) -->

<svg
   width="9.4244356mm"
   height="5.82131mm"
   viewBox="0 0 9.4244356 5.82131"
   version="1.1"
   id="svg5926"
   sodipodi:docname="inkporter-svg-px1thpbf.svg"
   xmlns:inkscape="http://www.inkscape.org/namespaces/inkscape"
   xmlns:sodipodi="http://sodipodi.sourceforge.net/DTD/sodipodi-0.dtd"
   xmlns="http://www.w3.org/2000/svg"
   xmlns:svg="http://www.w3.org/2000/svg">
  <sodipodi:namedview
     id="namedview5928"
     pagecolor="#ffffff"
     bordercolor="#666666"
     borderopacity="1.0"
     inkscape:pageshadow="2"
     inkscape:pageopacity="0.0"
     inkscape:pagecheckerboard="0"
     inkscape:document-units="mm"
     showgrid="false"
     inkscape:zoom="0.64052329"
     inkscape:cx="397.33138"
     inkscape:cy="561.25984"
     inkscape:window-width="1920"
     inkscape:window-height="1017"
     inkscape:window-x="-8"
     inkscape:window-y="-8"
     inkscape:window-maximized="1"
     inkscape:current-layer="layer1" />
  <defs
     id="defs5923" />
  <g
     inkscape:label="Layer 1"
     inkscape:groupmode="layer"
     id="layer1"
     transform="translate(-39.48667,-157.36195)">
    <path
       id="S-Ba64-PTRD"
       d="m 45.97463,157.36195 -0.0475,0.007 -0.0434,0.008 c 0,0 -0.0437,0.0137 -0.0574,0.0238 l -0.0356,0.0264 c -0.0296,0.0225 -0.0341,0.0393 -0.0341,0.0393 l -0.0259,0.047 -0.0156,0.0439 -0.0108,0.0512 -0.0212,0.0563 -0.0103,0.0212 0.0506,0.0202 0.0393,0.0145 -0.0289,0.10129 0.0331,0.0186 0.0109,0.031 0.0185,0.0791 0.0393,0.0202 0.0351,0.003 0.0295,-0.0124 h 0.0455 l 0.007,0.0326 -0.0103,0.0429 -0.14571,-0.0114 -0.24288,0.007 -0.30904,0.015 v -0.0744 l 0.005,-0.0501 -0.98806,-0.0496 v 0.0294 l -1.50534,-0.045 -0.009,-0.0501 -0.0103,0.0548 -0.1633,-0.005 -0.0305,-0.0103 -0.0455,-0.0124 -0.0501,0.0109 -0.0284,0.0253 -0.006,0.0408 0.009,0.0202 0.0279,0.0176 0.0408,0.01 0.0589,-0.007 0.0346,-0.0165 0.92916,0.0372 c 0,0 -1.53326,-0.0758 0.0351,0 l 0.71779,0.0346 -0.005,0.0398 0.77309,0.0496 -0.0206,0.005 -0.23407,0.38034 -0.0868,0.13901 -0.0413,0.0677 h -0.35139 l -0.0388,0.0729 h -0.11679 v -0.0636 h -0.38343 l -0.0672,0.0677 h 0.048 l -0.74258,0.87385 -0.0388,0.0191 -2.23657,0.19431 -0.90279,0.65474 -0.33485,0.33486 v 0.11679 l 0.49196,0.60358 c -0.0731,0.14882 -0.11422,0.31574 -0.11422,0.49351 0,0.62149 0.50454,1.12603 1.12604,1.12603 0.6146,0 1.11311,-0.49196 1.12551,-1.10381 l 0.0496,0.0548 h 0.29507 v -0.0481 h 0.19431 l 0.11162,-0.11162 2.40761,0.0331 0.11162,0.0346 h 0.35399 l 0.0811,-0.0816 c -0.003,0.0317 -0.004,0.0636 -0.004,0.0966 0,0.62149 0.50453,1.12603 1.12601,1.12603 0.62151,0 1.12604,-0.50454 1.12604,-1.12603 0,-0.0717 -0.007,-0.14056 -0.0196,-0.20671 l 0.16434,0.076 h 0.15139 l -0.21341,-0.45217 0.52916,-0.56224 0.0233,-0.25218 -0.15142,-0.25632 0.009,-0.007 c 0.0303,0.0386 0.0854,0.0496 0.12816,0.0248 l 0.2744,-0.16536 c 0.0455,-0.0276 0.0606,-0.087 0.0331,-0.13384 l -0.76223,-1.26762 c -0.0276,-0.0455 -0.0868,-0.0596 -0.1323,-0.032 l -0.27543,0.16434 c -0.0441,0.0262 -0.0591,0.0825 -0.0357,0.1266 l -0.003,0.003 -0.16124,-0.2713 -0.1116,-0.0124 -0.48111,-0.73432 -0.23824,-0.0403 -0.0377,-0.11679 -0.0801,-0.0708 -0.1142,-0.0346 -0.11525,0.0165 -0.0889,-0.004 -0.0594,-0.0558 0.013,-0.032 0.0331,-0.008 c 0,0 0.0209,0.002 0.0217,-0.0325 l -0.009,-0.0372 -0.006,-0.0486 v -0.0294 l -0.006,-0.0579 -0.008,-0.0289 c 0,0 -0.013,-0.0281 -0.0228,-0.0413 l -0.0501,-0.0568 c 0,0 -0.0259,-0.0204 -0.032,-0.0222 l -0.0367,-0.015 -0.0413,-0.01 -0.0351,-0.005 z" />
  </g>
</svg>
