<?xml version="1.0" encoding="UTF-8" standalone="no"?>
<!-- Created with Inkscape (http://www.inkscape.org/) -->

<svg
   width="18.13567mm"
   height="9.9946175mm"
   viewBox="0 0 18.13567 9.9946175"
   version="1.1"
   id="svg6745"
   sodipodi:docname="inkporter-svg-de2d1i4p.svg"
   xmlns:inkscape="http://www.inkscape.org/namespaces/inkscape"
   xmlns:sodipodi="http://sodipodi.sourceforge.net/DTD/sodipodi-0.dtd"
   xmlns="http://www.w3.org/2000/svg"
   xmlns:svg="http://www.w3.org/2000/svg">
  <sodipodi:namedview
     id="namedview6747"
     pagecolor="#ffffff"
     bordercolor="#666666"
     borderopacity="1.0"
     inkscape:pageshadow="2"
     inkscape:pageopacity="0.0"
     inkscape:pagecheckerboard="0"
     inkscape:document-units="mm"
     showgrid="false"
     inkscape:zoom="0.66368547"
     inkscape:cx="397.02542"
     inkscape:cy="561.25984"
     inkscape:window-width="1920"
     inkscape:window-height="1017"
     inkscape:window-x="-8"
     inkscape:window-y="-8"
     inkscape:window-maximized="1"
     inkscape:current-layer="layer1" />
  <defs
     id="defs6742" />
  <g
     inkscape:label="Layer 1"
     inkscape:groupmode="layer"
     id="layer1"
     transform="translate(-116.27039,-77.293103)">
    <g
       id="S-DShk-AA"
       transform="matrix(0.35277777,0,0,-0.35277777,-162.21803,187.54875)">
      <path
         d="m 808.286,298.5855 0.145,0.276 -0.242,0.091 -0.188,0.014 -0.138,0.341 -0.151,0.174 0.116,0.404 -0.464,0.095 0.181,0.101 0.066,0.151 0.036,0.167 0.054,0.155 0.09,0.163 0.243,0.229 c 0.046,0.036 0.199,0.082 0.199,0.082 l 0.151,0.03 0.167,0.021 0.159,-0.014 0.268,-0.051 c 0.149,-0.058 0.239,-0.13 0.239,-0.13 l 0.072,0.306 h -5.084 v -3.891 h 1.013 l 0.058,0.157 0.289,0.303 0.274,0.008 0.262,-0.108 0.181,0.206 -1.035,1.056 0.228,0.224 1.811,-1.846 h 0.411 l 0.329,0.071 0.246,0.144 0.028,0.463 z m -1.892,-1.073 0.315,-0.156 -0.225,0.254 z m 23.464,-8.037 c 0.142,-0.406 0.219,-0.843 0.219,-1.298 0,-2.169 -1.758,-3.927 -3.929,-3.927 -2.03,0 -3.701,1.54 -3.906,3.518 l -0.629,0.056 -0.692,0.616 -1.927,0.078 -0.191,-0.385 h -2.273 v -0.385 h -5.162 v 0.46 h -5.43 l -0.038,-0.384 h -4.545 l -0.463,0.232 -3.163,-0.125 c -0.104,-2.076 -1.822,-3.727 -3.923,-3.727 -2.17,0 -3.929,1.76 -3.929,3.929 0,0.29 0.032,0.572 0.091,0.845 l -0.552,0.311 v 0.616 l 0.384,0.539 0.847,0.23 v 2.851 h 0.386 v 0.982 h 1.156 v 1.869 l 0.173,0.326 0.52,0.058 9.783,0.155 0.153,4.543 -0.308,0.155 0.617,0.539 1.154,0.23 3.083,0.232 2.695,0.077 1.618,-0.231 1.002,-0.385 v -3.852 h 0.5 v 0.52 l 26.538,0.019 v -7.837 h -1.541 v -1.406 h -6.393 z"
         style="fill:#000000;fill-opacity:1;fill-rule:nonzero;stroke:none"
         id="path144728" />
      <path
         d="m 832.0126,304.5343 0.26,0.262 0.116,0.174 -0.058,0.722 -0.116,0.841 c 0,0 0,0.253 -0.058,0.432 -0.056,0.181 -0.578,0.572 -0.724,0.667 -0.144,0.093 -0.73,0.209 -0.73,0.209 l 0.036,0.326 0.232,0.072 0.058,0.318 c 0,0 0.051,0.369 0.029,0.522 -0.022,0.151 -0.123,0.433 -0.203,0.549 -0.079,0.116 -0.383,0.325 -0.521,0.348 -0.03,0.005 -0.251,0.023 -0.304,0.021 -0.183,-0.003 -0.275,-0.051 -0.275,-0.051 0,0 -0.275,-0.123 -0.434,-0.29 -0.159,-0.165 -0.26,-0.491 -0.26,-0.491 0,0 -0.051,-0.195 -0.102,-0.246 -0.05,-0.051 -0.1,-0.072 -0.1,-0.072 l 0.172,-0.202 0.116,-0.174 0.232,-0.232 c 0,0 0.029,-0.065 0,-0.261 -0.029,-0.195 -0.145,-0.318 -0.145,-0.318 0,0 -0.614,-0.159 -0.752,-0.26 -0.138,-0.101 -0.24,-1.013 -0.376,-1.101 -0.138,-0.086 -0.261,-0.028 -0.261,-0.028 l -1.042,0.724 -0.289,0.116 -1.18,0.85 -0.065,0.047 -0.072,-0.116 1.114,-0.89 -0.029,-0.529 0.578,-0.55 -0.086,-0.434 c 0,0 0.731,-0.635 0.897,-0.723 0.167,-0.086 0.87,-0.028 0.87,-0.028 l 0.144,-0.262 v -0.144 c 0,0 -0.188,0.007 -0.232,-0.058 -0.043,-0.065 -0.123,-0.355 -0.181,-0.536 -0.058,-0.181 -0.116,-0.382 -0.166,-0.535 -0.052,-0.151 -0.08,-0.492 -0.059,-0.578 0.022,-0.088 0.348,-0.522 0.348,-0.522 0,0 -0.26,-0.969 -0.167,-1.157 0.095,-0.188 0.058,-0.362 0.058,-0.362 l 0.218,-0.406 0.037,-0.448 -0.088,-0.26 -0.073,-0.549 c 0,0 0.08,-0.153 0.073,-0.204 -0.007,-0.051 -0.018,-1.463 0.044,-1.563 0.058,-0.093 0.086,-0.13 0.086,-0.13 l -0.037,-0.304 c 0,0 -0.188,-0.411 -0.209,-0.492 -0.021,-0.079 -0.014,-0.253 0,-0.348 0.014,-0.093 0.167,-0.245 0.318,-0.288 0.153,-0.043 0.385,-0.08 0.492,0 0.109,0.079 0.145,0.332 0.145,0.332 0,0 -0.043,0.195 -0.094,0.522 -0.051,0.325 -0.108,0.455 -0.108,0.455 l 0.094,0.19 0.05,0.556 c 0,0 0.043,0.383 0.043,0.506 0,0.007 0.044,0.55 0.044,0.55 l 0.108,0.188 0.202,0.695 0.327,1.274 0.232,0.751 0.253,-0.521 0.217,-0.622 -0.087,-0.724 0.16,-0.173 0.043,-0.766 -0.043,-0.71 0.1,-0.218 -0.13,-0.202 -0.072,-0.498 0.253,-0.225 0.174,0.037 0.252,-0.327 0.269,-0.23 c 0,0 0.383,-0.116 0.492,-0.058 0.109,0.058 0.152,0.23 0.144,0.353 -0.007,0.123 -0.361,0.413 -0.361,0.413 0,0 -0.297,0.211 -0.37,0.384 -0.072,0.172 0.016,0.369 0.016,0.369 0,0 0.074,1.377 0.144,1.519 0.014,0.029 0.174,0.332 0.174,0.332 l 0.115,0.594 c 0,0 0.116,0.564 0.188,0.854 0.073,0.289 -0.195,1.145 -0.195,1.145 l -0.057,0.346 0.086,0.202 c 0,0 0.051,0.239 0.116,0.29 0.065,0.051 -0.058,-0.246 0.202,-0.058 0.261,0.188 0.13,0.621 -0.028,0.983 -0.16,0.362 -0.29,0.03 -0.29,0.03 z"
         style="fill:#000000;fill-opacity:1;fill-rule:nonzero;stroke:none"
         id="path144732" />
      <path
         d="m 825.3774,307.9503 0.137,-0.087 -0.015,0.057 -0.013,0.052 z"
         style="fill:#000000;fill-opacity:1;fill-rule:nonzero;stroke:none"
         id="path144736" />
      <path
         d="m 826.9139,306.4927 -0.876,0.446 4.19,-11.346 -0.42,-0.158 -4.061,10.858 v -10.779 h -0.45 v 10.12 l -3.101,-10.185 -0.43,0.13 3.056,10.034 -1.103,0.562 0.725,1.423 -2.67,1.36 0.145,0.285 -2.782,1.405 0.096,0.189 -1.824,1.079 -0.417,-0.092 0.122,0.241 -0.137,0.07 0.129,0.257 0.138,-0.071 0.111,0.215 0.186,-0.366 1.369,-0.699 0.287,0.564 0.135,-0.07 -0.286,-0.562 0.286,-0.146 5.641,-2.733 0.131,0.257 1.411,-0.72 0.241,0.47 0.981,-0.499 -0.369,-0.724 0.616,-0.311 0.047,-0.172 -0.13,-0.255 -0.168,-0.063 -0.204,-0.135 -0.537,0.274 z"
         style="fill:#000000;fill-opacity:1;fill-rule:nonzero;stroke:none"
         id="path144740" />
      <path
         d="m 815.0549,306.6038 c 0,0 0.123,-0.197 0.141,-0.211 0.019,-0.014 0.103,-0.218 0.182,-0.168 0.048,0.029 0.063,0.337 0.072,0.361 0.007,0.025 0.005,0.153 0,0.169 -0.007,0.014 -0.067,0.128 -0.07,0.169 -0.002,0.04 -0.056,0.021 -0.056,0.021 0,0 -0.232,-0.301 -0.269,-0.341 m 3.85,-0.815 c -0.053,-0.009 0.03,-0.2 0.005,-0.184 -0.023,0.015 -0.016,-0.127 -0.016,-0.127 0,0 -0.007,-0.659 -0.052,-0.76 -0.044,-0.101 -0.072,-0.109 -0.109,-0.106 -0.037,0.005 -0.016,0.017 -0.072,0.005 -0.058,-0.012 -0.167,-0.008 -0.192,-0.012 -0.024,-0.004 0.025,-0.243 0.025,-0.28 0,-0.036 0.04,-0.449 0.053,-0.551 0.012,-0.101 0.024,-0.648 0.024,-0.707 0,-0.062 -0.021,-0.309 -0.037,-0.337 -0.015,-0.029 -0.08,-0.105 -0.114,-0.117 -0.031,-0.013 0.021,-0.425 0.013,-0.511 -0.008,-0.084 -0.048,-0.266 -0.094,-0.332 -0.044,-0.065 -0.044,-0.065 -0.028,-0.117 0.016,-0.053 0.058,-0.251 0.028,-0.364 -0.028,-0.114 -0.084,-0.142 -0.08,-0.17 0.005,-0.028 0.052,-0.186 0.052,-0.235 0,-0.048 0.005,-0.15 -0.028,-0.15 -0.031,0 -0.049,-0.024 -0.049,-0.06 0,-0.036 -0.023,-0.571 -0.035,-0.652 -0.012,-0.082 -0.093,-0.806 -0.098,-0.826 -0.004,-0.021 -0.004,-0.053 -0.004,-0.053 0,0 0.069,-0.073 0.049,-0.121 -0.021,-0.049 -0.058,-0.078 -0.045,-0.109 0.012,-0.033 0.017,-0.15 0.017,-0.15 0,0 0.023,-0.093 0.023,-0.11 0,-0.016 0.049,-0.048 0.061,-0.069 0.013,-0.02 0.041,-0.065 0.078,-0.072 0.036,-0.008 0.044,-0.045 0.056,-0.07 0.012,-0.024 0.226,-0.238 0.393,-0.27 0.165,-0.033 0.438,-0.138 0.466,-0.146 0.028,-0.009 0.077,-0.109 0.077,-0.17 0,-0.061 0.016,-0.101 0.019,-0.118 0.004,-0.016 0.021,-0.048 -0.049,-0.089 -0.068,-0.04 -0.221,-0.19 -0.395,-0.178 -0.176,0.012 -0.455,-0.016 -0.734,0.125 -0.279,0.142 -0.339,0.224 -0.339,0.224 l -0.118,-0.053 c 0,0 -0.211,0.016 -0.295,0.064 -0.086,0.049 -0.154,0.102 -0.154,0.102 l -0.004,0.194 c 0,0 -0.037,0.029 -0.04,0.065 -0.006,0.036 -0.03,0.15 0.012,0.202 0.04,0.053 0.019,0.053 0.023,0.094 0.005,0.04 0.045,0.112 0.086,0.133 0.04,0.02 0.007,0.072 0.007,0.109 0,0.037 0.009,0.15 0.024,0.186 0.016,0.037 0.041,0.05 0.006,0.101 -0.037,0.053 -0.13,0.138 -0.086,0.179 0.044,0.04 0.089,0.105 0.056,0.166 -0.032,0.06 -0.048,0.069 -0.053,0.166 -0.003,0.097 -0.072,0.744 -0.068,0.829 0.005,0.086 0.012,0.34 0.012,0.357 0,0.017 0.028,-0.004 0.04,0.02 0.013,0.025 -0.059,0.102 -0.068,0.121 -0.009,0.022 -0.012,0.167 0.003,0.203 0.018,0.036 0.041,0.061 0.028,0.093 -0.01,0.033 -0.035,0.069 -0.052,0.081 -0.016,0.012 -0.097,-0.133 -0.169,-0.226 -0.074,-0.093 -0.244,-0.267 -0.26,-0.312 -0.016,-0.045 -0.049,-0.162 -0.028,-0.195 0.021,-0.032 0.062,-0.134 -0.021,-0.174 -0.081,-0.04 -0.06,-0.02 -0.075,-0.097 -0.018,-0.077 -0.022,-0.239 -0.025,-0.296 -0.004,-0.056 -0.062,-0.429 -0.077,-0.469 -0.016,-0.041 -0.134,-0.429 -0.134,-0.469 0,-0.041 -0.049,-0.341 -0.049,-0.373 0,-0.033 -0.025,-0.174 -0.025,-0.227 0,-0.052 -0.019,-0.19 -0.019,-0.235 0,-0.044 -0.016,-0.161 -0.009,-0.194 0.009,-0.032 0.006,-0.206 0.034,-0.283 0.028,-0.078 0.137,-0.276 0.14,-0.295 0.005,-0.021 0.021,-0.183 0.046,-0.187 0.024,-0.004 0.081,-0.073 0.096,-0.101 0.016,-0.029 0.087,-0.223 0.078,-0.264 -0.009,-0.04 -0.004,-0.19 -0.032,-0.267 -0.03,-0.077 -0.17,-0.121 -0.17,-0.121 -0.049,-0.009 -0.248,-0.02 -0.381,0.044 -0.134,0.065 -0.264,0.179 -0.32,0.276 -0.056,0.097 -0.033,0.158 -0.056,0.206 -0.025,0.048 -0.041,0.158 -0.058,0.199 -0.016,0.04 -0.072,0.145 -0.1,0.178 -0.028,0.032 -0.053,0.037 -0.053,0.101 0,0.065 -0.012,0.203 -0.021,0.251 -0.007,0.048 0.012,0.097 0.016,0.118 0.005,0.02 -0.02,0.141 -0.016,0.157 0.005,0.016 0.046,0.045 0.046,0.069 0,0.024 -0.041,0.089 -0.041,0.105 0,0.016 0.016,0.158 0.023,0.182 0.009,0.025 -0.023,0.098 -0.056,0.146 -0.032,0.049 -0.069,0.057 -0.028,0.118 0.04,0.06 0.109,0.13 0.117,0.17 0.007,0.04 0.016,0.174 -0.012,0.292 -0.028,0.116 -0.049,0.659 -0.049,0.788 0,0.13 -0.012,0.175 0,0.211 0.012,0.037 0.033,0.045 0.033,0.061 0,0.016 0.02,0.202 0.016,0.238 -0.003,0.037 -0.056,0.07 -0.056,0.106 0,0.036 0.023,0.158 0.035,0.186 0.012,0.029 0.074,0.097 0.077,0.141 0.006,0.046 -0.012,0.098 -0.024,0.13 -0.013,0.033 -0.162,0.583 -0.199,0.656 -0.035,0.073 -0.084,0.211 -0.096,0.252 -0.013,0.04 -0.028,0.457 -0.028,0.518 0,0.06 0.019,0.214 0.015,0.246 -0.003,0.033 -0.189,0.126 -0.226,0.162 -0.037,0.037 -0.113,0.126 -0.125,0.158 -0.012,0.033 0.012,0.155 0.028,0.207 0.016,0.052 0.065,0.13 0.06,0.178 -0.004,0.049 -0.007,0.117 0.024,0.195 0.034,0.076 0.115,0.234 0.118,0.291 0.004,0.056 0.113,0.404 0.118,0.432 0.003,0.028 -0.678,-0.948 -0.666,-0.899 0.012,0.048 -0.506,0.562 -0.5,0.646 0.003,0.086 0.212,0.319 0.365,0.464 0.088,0.084 0.365,0.337 0.464,0.45 0.079,0.091 0.303,0.323 0.303,0.323 l -0.126,0.084 -0.169,0.127 -0.267,0.154 -0.421,0.295 c 0,0 -0.205,0.208 -0.246,0.227 -0.04,0.021 -0.146,0.211 -0.155,0.235 -0.008,0.025 -0.044,0.23 -0.036,0.271 0.008,0.04 0.017,0.138 0.036,0.174 0.022,0.036 0.127,0.195 0.167,0.256 0.041,0.06 0.129,0.218 0.178,0.267 0.049,0.047 0.182,0.183 0.226,0.255 0.044,0.072 0.267,0.332 0.292,0.384 0.024,0.053 0.052,0.093 0.096,0.146 0.046,0.053 0.211,0.211 0.248,0.242 0.037,0.034 0.097,0.09 0.125,0.118 0.03,0.028 0.037,0.062 0.045,0.086 0.007,0.023 0.109,0.023 0.113,0.051 0.005,0.03 -0.028,0.102 -0.019,0.146 0.006,0.046 0.084,0.158 0.1,0.195 0.017,0.037 0.033,0.061 0.045,0.121 0.013,0.061 0.078,0.17 0.143,0.195 0.063,0.025 0.14,0.016 0.161,0.032 0.019,0.017 0.044,0.021 0.097,0.024 0.052,0.004 0.072,-0.019 0.126,-0.024 0.051,-0.004 0.209,0.005 0.234,-0.007 0.024,-0.013 0.251,-0.192 0.288,-0.211 0.037,-0.021 0.012,-0.037 0.056,0.007 0.044,0.045 0.056,0.033 0.065,0.058 0.009,0.024 -0.009,0.186 -0.009,0.202 0,0.016 -0.161,0 -0.193,0.012 -0.033,0.012 -0.158,0.04 -0.158,0.081 0,0.04 0.025,0.146 0.06,0.202 0.037,0.058 0.024,0.344 0.024,0.4 0,0.058 0.085,0.791 0.701,0.968 0.307,0.09 0.546,0.07 0.761,-0.105 0.179,-0.144 0.251,-0.441 0.309,-0.529 0.056,-0.09 0.1,-0.151 0.152,-0.179 0.053,-0.028 0.109,-0.081 0.069,-0.183 -0.04,-0.1 -0.162,-0.326 -0.246,-0.379 -0.086,-0.053 -0.102,-0.062 -0.102,-0.062 0,0 -0.009,-0.089 -0.037,-0.133 -0.028,-0.044 -0.047,-0.081 -0.059,-0.102 -0.013,-0.019 -0.021,-0.198 -0.029,-0.242 -0.008,-0.044 -0.052,-0.109 -0.086,-0.125 -0.031,-0.018 -0.129,-0.062 -0.161,-0.074 -0.032,-0.012 -0.053,-0.024 -0.069,-0.047 -0.015,-0.025 -0.003,-0.083 -0.003,-0.083 l 0.081,-0.003 0.044,-0.049 h 0.073 l 0.085,-0.097 0.068,-0.004 0.053,-0.065 0.056,0.004 c 0,0 0.309,-0.211 0.36,-0.239 0.053,-0.028 0.102,0 0.135,-0.06 0.032,-0.061 0.072,-0.203 0.081,-0.235 0.007,-0.033 -0.037,0.14 -0.028,0.084 0.009,-0.056 0.011,-0.014 0.011,-0.014 l 1.143,1.124 0.739,0.773 0.197,-0.084 1.11,1.264 -1.138,-1.672 -0.126,0.085 -1.26,-1.574 0.22,-0.646 -0.295,-0.464 -0.113,-0.534 -0.07,-0.295 z"
         style="fill:#000000;fill-opacity:1;fill-rule:nonzero;stroke:none"
         id="path144752" />
      <path
         d="m 834.1642,306.379 c 0,0 0.123,-0.197 0.14,-0.211 0.02,-0.014 0.104,-0.218 0.183,-0.168 0.048,0.029 0.063,0.337 0.072,0.361 0.007,0.025 0.005,0.153 0,0.169 -0.007,0.014 -0.067,0.128 -0.07,0.169 -0.002,0.04 -0.056,0.021 -0.056,0.021 0,0 -0.232,-0.301 -0.269,-0.341 m 3.85,-0.815 c -0.053,-0.009 0.03,-0.2 0.005,-0.184 -0.023,0.015 -0.016,-0.127 -0.016,-0.127 0,0 -0.007,-0.658 -0.052,-0.76 -0.044,-0.101 -0.072,-0.109 -0.109,-0.106 -0.037,0.005 -0.016,0.017 -0.072,0.005 -0.058,-0.012 -0.167,-0.008 -0.192,-0.012 -0.024,-0.004 0.025,-0.243 0.025,-0.28 0,-0.036 0.04,-0.449 0.053,-0.551 0.012,-0.101 0.024,-0.648 0.024,-0.707 0,-0.062 -0.021,-0.309 -0.037,-0.337 -0.015,-0.029 -0.08,-0.105 -0.114,-0.117 -0.032,-0.013 0.021,-0.425 0.013,-0.51 -0.008,-0.085 -0.048,-0.267 -0.094,-0.332 -0.044,-0.066 -0.044,-0.066 -0.028,-0.118 0.016,-0.053 0.058,-0.251 0.028,-0.364 -0.028,-0.114 -0.084,-0.142 -0.08,-0.17 0.005,-0.028 0.052,-0.186 0.052,-0.235 0,-0.048 0.005,-0.15 -0.028,-0.15 -0.031,0 -0.049,-0.024 -0.049,-0.06 0,-0.036 -0.023,-0.571 -0.035,-0.652 -0.012,-0.082 -0.093,-0.806 -0.098,-0.826 -0.004,-0.02 -0.004,-0.053 -0.004,-0.053 0,0 0.068,-0.073 0.049,-0.121 -0.021,-0.049 -0.058,-0.078 -0.045,-0.109 0.012,-0.033 0.017,-0.15 0.017,-0.15 0,0 0.023,-0.093 0.023,-0.11 0,-0.016 0.049,-0.048 0.061,-0.069 0.013,-0.02 0.041,-0.065 0.078,-0.072 0.036,-0.008 0.044,-0.045 0.056,-0.07 0.012,-0.023 0.226,-0.238 0.393,-0.27 0.165,-0.033 0.438,-0.138 0.466,-0.146 0.028,-0.009 0.077,-0.109 0.077,-0.17 0,-0.061 0.016,-0.101 0.019,-0.118 0.004,-0.016 0.021,-0.048 -0.049,-0.089 -0.068,-0.04 -0.221,-0.19 -0.395,-0.178 -0.176,0.012 -0.455,-0.016 -0.734,0.125 -0.279,0.142 -0.339,0.224 -0.339,0.224 l -0.118,-0.053 c 0,0 -0.211,0.016 -0.295,0.064 -0.086,0.049 -0.154,0.102 -0.154,0.102 l -0.004,0.194 c 0,0 -0.037,0.029 -0.04,0.065 -0.006,0.036 -0.03,0.15 0.012,0.202 0.04,0.053 0.019,0.053 0.023,0.094 0.005,0.04 0.045,0.112 0.086,0.133 0.04,0.02 0.007,0.072 0.007,0.109 0,0.037 0.009,0.15 0.024,0.186 0.016,0.037 0.041,0.05 0.006,0.101 -0.037,0.053 -0.13,0.138 -0.086,0.179 0.044,0.04 0.089,0.105 0.056,0.166 -0.032,0.06 -0.048,0.069 -0.053,0.166 -0.003,0.097 -0.072,0.744 -0.068,0.829 0.005,0.086 0.012,0.34 0.012,0.357 0,0.017 0.028,-0.004 0.04,0.02 0.013,0.025 -0.059,0.102 -0.068,0.121 -0.009,0.022 -0.012,0.167 0.003,0.203 0.018,0.036 0.041,0.061 0.028,0.093 -0.01,0.033 -0.035,0.069 -0.052,0.081 -0.016,0.012 -0.097,-0.133 -0.169,-0.226 -0.074,-0.093 -0.244,-0.267 -0.26,-0.312 -0.016,-0.045 -0.049,-0.162 -0.028,-0.195 0.021,-0.032 0.062,-0.134 -0.021,-0.174 -0.081,-0.04 -0.06,-0.02 -0.075,-0.097 -0.018,-0.077 -0.022,-0.239 -0.025,-0.296 -0.004,-0.056 -0.062,-0.429 -0.077,-0.469 -0.016,-0.041 -0.134,-0.429 -0.134,-0.469 0,-0.041 -0.049,-0.341 -0.049,-0.373 0,-0.033 -0.025,-0.174 -0.025,-0.227 0,-0.052 -0.019,-0.19 -0.019,-0.235 0,-0.044 -0.016,-0.161 -0.009,-0.194 0.009,-0.032 0.006,-0.206 0.034,-0.283 0.028,-0.078 0.137,-0.276 0.14,-0.295 0.005,-0.021 0.021,-0.183 0.046,-0.187 0.024,-0.004 0.081,-0.073 0.096,-0.101 0.016,-0.029 0.086,-0.223 0.078,-0.264 -0.009,-0.04 -0.004,-0.19 -0.032,-0.267 -0.03,-0.077 -0.17,-0.121 -0.17,-0.121 -0.049,-0.009 -0.248,-0.02 -0.381,0.044 -0.134,0.065 -0.264,0.179 -0.32,0.276 -0.056,0.097 -0.033,0.158 -0.056,0.206 -0.025,0.048 -0.041,0.158 -0.058,0.199 -0.016,0.04 -0.072,0.145 -0.1,0.178 -0.028,0.032 -0.053,0.037 -0.053,0.101 0,0.065 -0.012,0.203 -0.021,0.251 -0.007,0.048 0.012,0.097 0.016,0.118 0.005,0.02 -0.02,0.141 -0.016,0.157 0.005,0.016 0.046,0.045 0.046,0.069 0,0.024 -0.041,0.089 -0.041,0.106 0,0.015 0.016,0.157 0.023,0.181 0.009,0.025 -0.023,0.098 -0.056,0.146 -0.032,0.049 -0.069,0.057 -0.028,0.118 0.04,0.06 0.109,0.13 0.117,0.17 0.007,0.041 0.016,0.174 -0.012,0.292 -0.028,0.117 -0.049,0.659 -0.049,0.788 0,0.13 -0.012,0.175 0,0.211 0.012,0.037 0.033,0.045 0.033,0.061 0,0.016 0.02,0.203 0.016,0.238 -0.003,0.037 -0.056,0.07 -0.056,0.106 0,0.036 0.023,0.158 0.035,0.186 0.012,0.029 0.074,0.098 0.077,0.141 0.005,0.046 -0.012,0.098 -0.024,0.13 -0.013,0.033 -0.162,0.584 -0.199,0.656 -0.035,0.073 -0.084,0.211 -0.096,0.252 -0.013,0.04 -0.028,0.457 -0.028,0.518 0,0.06 0.019,0.214 0.015,0.246 -0.003,0.033 -0.189,0.126 -0.226,0.162 -0.037,0.037 -0.113,0.127 -0.125,0.158 -0.012,0.033 0.012,0.155 0.028,0.207 0.016,0.052 0.065,0.13 0.06,0.178 -0.004,0.049 -0.007,0.117 0.024,0.195 0.034,0.076 0.115,0.234 0.118,0.291 0.004,0.056 0.113,0.404 0.118,0.432 0.003,0.028 -0.678,-0.948 -0.666,-0.899 0.012,0.048 -0.506,0.562 -0.5,0.646 0.003,0.086 0.212,0.319 0.365,0.464 0.088,0.084 0.365,0.337 0.464,0.45 0.079,0.091 0.303,0.323 0.303,0.323 l -0.126,0.084 -0.169,0.127 -0.267,0.154 -0.421,0.295 c 0,0 -0.206,0.208 -0.246,0.227 -0.04,0.021 -0.146,0.211 -0.155,0.235 -0.008,0.025 -0.044,0.23 -0.036,0.271 0.008,0.04 0.017,0.138 0.036,0.174 0.021,0.036 0.127,0.195 0.167,0.256 0.041,0.06 0.128,0.218 0.178,0.267 0.049,0.047 0.182,0.183 0.226,0.255 0.044,0.072 0.267,0.332 0.292,0.384 0.024,0.053 0.052,0.093 0.096,0.146 0.046,0.053 0.211,0.211 0.248,0.242 0.037,0.034 0.097,0.09 0.125,0.118 0.03,0.028 0.037,0.062 0.045,0.086 0.007,0.023 0.109,0.023 0.113,0.051 0.005,0.03 -0.028,0.102 -0.02,0.146 0.007,0.046 0.085,0.158 0.101,0.195 0.017,0.037 0.033,0.061 0.045,0.121 0.013,0.061 0.078,0.17 0.142,0.195 0.064,0.025 0.141,0.016 0.162,0.032 0.019,0.017 0.044,0.021 0.097,0.024 0.052,0.004 0.072,-0.019 0.126,-0.024 0.051,-0.004 0.209,0.005 0.234,-0.007 0.024,-0.013 0.251,-0.192 0.288,-0.211 0.037,-0.021 0.012,-0.037 0.056,0.007 0.044,0.045 0.056,0.033 0.065,0.058 0.009,0.024 -0.009,0.186 -0.009,0.202 0,0.016 -0.161,0 -0.193,0.012 -0.033,0.012 -0.158,0.04 -0.158,0.081 0,0.04 0.025,0.146 0.06,0.202 0.037,0.058 0.024,0.344 0.024,0.4 0,0.058 0.085,0.791 0.701,0.968 0.307,0.09 0.546,0.07 0.761,-0.105 0.179,-0.144 0.251,-0.441 0.309,-0.529 0.056,-0.09 0.1,-0.151 0.152,-0.179 0.053,-0.028 0.109,-0.081 0.069,-0.183 -0.04,-0.1 -0.162,-0.326 -0.246,-0.379 -0.086,-0.053 -0.102,-0.062 -0.102,-0.062 0,0 -0.009,-0.089 -0.037,-0.133 -0.028,-0.044 -0.047,-0.081 -0.059,-0.102 -0.013,-0.019 -0.021,-0.198 -0.029,-0.242 -0.008,-0.044 -0.052,-0.109 -0.086,-0.125 -0.031,-0.018 -0.13,-0.062 -0.161,-0.074 -0.032,-0.012 -0.053,-0.024 -0.069,-0.047 -0.015,-0.025 -0.003,-0.083 -0.003,-0.083 l 0.081,-0.003 0.044,-0.049 h 0.073 l 0.085,-0.097 0.068,-0.004 0.053,-0.065 0.056,0.004 c 0,0 0.309,-0.211 0.36,-0.239 0.053,-0.028 0.102,0 0.135,-0.06 0.032,-0.061 0.072,-0.203 0.081,-0.235 0.007,-0.033 -0.037,0.14 -0.028,0.084 0.009,-0.056 0.011,-0.014 0.011,-0.014 l 1.143,1.124 0.739,0.773 0.197,-0.084 1.11,1.264 -1.138,-1.672 -0.126,0.085 -1.26,-1.574 0.22,-0.646 -0.295,-0.464 -0.113,-0.534 -0.07,-0.295 z"
         style="fill:#000000;fill-opacity:1;fill-rule:nonzero;stroke:none"
         id="path144756" />
    </g>
  </g>
</svg>
