<?xml version="1.0" encoding="UTF-8" standalone="no"?>
<!-- Created with Inkscape (http://www.inkscape.org/) -->

<svg
   width="14.551043mm"
   height="5.3148088mm"
   viewBox="0 0 14.551043 5.3148088"
   version="1.1"
   id="svg4818"
   sodipodi:docname="inkporter-svg-uj5polbu.svg"
   xmlns:inkscape="http://www.inkscape.org/namespaces/inkscape"
   xmlns:sodipodi="http://sodipodi.sourceforge.net/DTD/sodipodi-0.dtd"
   xmlns="http://www.w3.org/2000/svg"
   xmlns:svg="http://www.w3.org/2000/svg">
  <sodipodi:namedview
     id="namedview4820"
     pagecolor="#ffffff"
     bordercolor="#666666"
     borderopacity="1.0"
     inkscape:pageshadow="2"
     inkscape:pageopacity="0.0"
     inkscape:pagecheckerboard="0"
     inkscape:document-units="mm"
     showgrid="false"
     inkscape:zoom="0.90583672"
     inkscape:cx="459.79589"
     inkscape:cy="582.33453"
     inkscape:window-width="1920"
     inkscape:window-height="1017"
     inkscape:window-x="-8"
     inkscape:window-y="-8"
     inkscape:window-maximized="1"
     inkscape:current-layer="layer1" />
  <defs
     id="defs4815" />
  <g
     inkscape:label="Layer 1"
     inkscape:groupmode="layer"
     id="layer1"
     transform="translate(-102.71058,-99.835707)">
    <g
       id="S-hmg"
       transform="matrix(0.35277777,0,0,-0.35277777,-9.8466553,699.6314)">
      <path
         d="m 336.68721,1685.5346 c 0.21442,0.048 0.4568,0.1856 0.38446,0.4402 -0.055,0.2216 -0.38017,0.1296 -0.56023,0.1657 -0.31373,-0.2518 -0.70507,0.3169 -1.00163,0.4424 -0.36431,0.3432 -0.80234,0.6014 -1.31279,0.6189 -1.84276,0.1797 -3.69888,0.1731 -5.54783,0.2575 -0.4567,-0.1542 -0.331,0.2045 -0.39299,0.4614 -0.27281,0.1167 -0.62157,0.049 -0.9169,0.1076 -0.0207,0.3002 0.0396,0.6338 -0.0282,0.9144 -0.40131,-0.015 -0.16946,0.3593 0.002,0.5692 0.21194,0.1079 0.52385,0.095 0.66894,0.2835 0.22562,-0.034 0.42344,0.023 0.59111,0.1789 0.70181,0.1194 1.39723,0.3084 2.11506,0.2674 0.46631,0.024 0.95586,-0.017 1.40763,0.047 0.0796,0.215 0.009,0.5029 0.0327,0.7448 -0.0207,0.2901 0.0415,0.6146 -0.0308,0.8833 -0.23698,0.1401 -0.81917,-0.1468 -0.73852,0.3145 -0.23388,0.1475 -0.70503,-0.057 -0.9229,0.1206 -0.0825,0.4363 0.002,0.9073 -0.0958,1.3322 -0.43997,0.3634 -0.49545,-0.1493 -0.44025,-0.4648 0,-0.3044 0,-0.6088 0,-0.9133 -1.31318,0.023 -2.63396,0.029 -3.94336,0.084 -0.43272,0.2296 -0.26766,0.9966 -0.49792,1.4096 0.0358,0.3912 -0.37099,0.2782 -0.31249,-0.034 -0.0611,-0.4431 0.0825,-0.8884 0.1079,-1.3324 -1.62407,0 -3.24814,0 -4.87221,0 -0.0666,0.2391 -0.35721,0.4415 -0.54257,0.2049 0.0516,-0.2485 -0.25439,-0.2474 -0.17068,-0.5305 0.0529,-0.2336 -0.0962,-0.4275 -0.34332,-0.3662 -0.26142,0.034 -0.36272,-0.3397 -0.15318,-0.4773 0.18098,-0.081 0.42586,-0.118 0.62713,-0.2018 1.85988,-0.01 3.71976,-0.017 5.57965,-0.025 0.16206,-0.383 -0.0227,-0.4543 -0.37346,-0.3969 -0.38911,0.01 -0.063,-0.5039 -0.0873,-0.7147 0.13522,-0.4074 -0.4761,0.1774 -0.72276,0.059 -0.48466,0.035 -0.97673,-0.026 -1.38826,-0.312 -0.68706,-0.4164 -1.0981,-1.2408 -1.0081,-2.0389 0.0766,-0.9703 0.93664,-1.837 1.90737,-1.9187 0.52245,-0.051 1.04181,0.084 1.47736,0.3818 0.38502,0.3061 0.69054,0.7183 0.83376,1.1938 0.46555,-0.1508 1.32912,0.1562 1.51658,-0.2797 -0.0978,-0.4401 0.19152,-0.635 0.57412,-0.5445 0.31733,-0.015 0.52465,0.3456 0.85456,0.2428 1.61178,-0.051 3.22654,-0.057 4.83644,-0.1355 0.5657,0.03 1.01369,-0.3014 1.46445,-0.5921 0.37166,-0.1633 0.71931,-0.4333 1.10565,-0.5397 0.10859,0.017 0.21871,0.053 0.31747,0.094 z m -13.12887,0.7606 c 0.1092,0.2127 0.17421,0.6917 0.41784,0.732 0.12851,-0.2251 0.67289,-0.8929 0.0139,-0.7565 -0.14385,0.01 -0.29002,-3e-4 -0.43169,0.024 z m -0.72228,0.4136 c -0.61778,0.3029 0.35487,0.5256 0.49034,0.4997 -0.12354,-0.1666 -0.17724,-1.0148 -0.49034,-0.4997 z m 1.86171,0.1193 c -0.48909,0.6513 0.38527,0.3358 0.54879,0.1139 -0.17885,-0.1974 -0.43678,-0.6388 -0.54879,-0.1139 z m -2.34145,0.7819 c -0.0817,0.4025 0.007,0.8261 0.42233,0.4879 0.39401,-0.084 0.43454,-0.4093 -0.0404,-0.4889 -0.13693,-0.034 -0.42086,-0.2961 -0.38191,0 z m 4.37957,0.038 c 0.005,0.2614 0.24408,-0.1304 0,0 z m -0.42107,0.02 c 0.0831,0.2356 0.25315,-0.1371 0,0 z m -1.24368,0.082 c 0.005,0.2614 0.24409,-0.1304 0,0 z m 0.33296,0.4722 c 0.29779,0.086 -0.1536,-0.1432 0,0 z m -0.73989,0.3219 c 0.88337,0.2551 -0.45383,-0.2397 0,0 z m -1.76316,0.074 c -0.65559,0.08 0.38268,0.9996 0.33224,0.189 0.2557,-0.4956 -0.0512,-0.3018 -0.33224,-0.189 z m 0.77722,0.4838 c -0.43412,0.3493 0.45806,0.5243 0.46017,0.2138 0.0512,-0.192 -0.0135,-0.6958 -0.24643,-0.591 -0.11992,0.093 -0.14486,0.2492 -0.21374,0.3772 z m 1.09986,-0.027 c 0.0797,0.2478 0.35986,-0.1778 1e-5,0 z m 0.74274,0.311 c -0.13039,0.3669 -0.004,0.8859 0.0591,0.2766 0.0316,-0.216 0.15903,-0.8383 -0.0591,-0.2766 z m 1.17812,0.6287 c -0.0789,0.3054 0.29534,0.2182 0.17928,-0.048 -0.14815,-0.1572 -0.20477,-0.2269 -0.17928,0.048 z m 4.68692,0.8148 c 0.0122,0.3359 0.24237,0.2797 0.15367,-0.046 0.0526,-0.1669 -0.24428,-0.1099 -0.15367,0.046 z"
         style="fill:#000000;stroke-width:0.00677635"
         id="path14062" />
      <path
         id="path22983-6"
         style="stroke-width:0.75"
         d="m 331.7574,1692.0068 -0.29228,-0.4643 0.36716,-0.4338 0.47754,-0.3442 0.25352,0.011 0.16978,0.01 0.57618,0.054 0.37427,-0.3356 0.49414,-0.1428 1.38477,0.1279 0.0113,-0.013 0.0201,0.016 h 0.0248 l -0.01,0.013 1.75209,1.7651 -1.20228,0.8819 -1.93975,-1.0773 -0.42755,-0.083 -0.38363,0.048 -0.32236,-0.2404 -0.34786,0.08 -0.50251,0.01 z"
         sodipodi:nodetypes="ccccccccccccccccccccccc"
         inkscape:transform-center-x="-3.1620614"
         inkscape:transform-center-y="-0.50433537" />
      <path
         d="m 339.52844,1685.7727 c 0.0532,0.053 0.0967,0.3369 0.0967,0.6305 v 0.5337 l -0.29021,0.2627 c -0.15962,0.1444 -0.29021,0.3511 -0.29021,0.4592 0,0.1082 -0.11584,0.2957 -0.25738,0.4169 l -0.25738,0.2204 0.0542,0.568 0.0542,0.5679 0.45716,0.097 c 0.5923,0.1257 0.965,0.462 0.965,0.8705 0,0.1791 -0.19527,0.6968 -0.43394,1.1505 -0.23865,0.4537 -0.44921,1.0255 -0.4679,1.2707 l -0.0339,0.4458 -0.6278,0.2777 -0.62779,0.2777 -0.15037,0.3889 -0.29349,0.4395 0.0755,0.7858 0.0755,0.7858 -0.16829,0.3461 c -0.0926,0.1904 -0.35604,0.4391 -0.58559,0.5528 l -0.4173,0.2067 -0.58237,-0.1323 -0.58237,-0.1323 -0.40578,-0.5261 -0.40578,-0.5261 0.22961,-0.2392 0.22959,-0.2392 -0.10634,-0.102 c -0.0586,-0.056 -0.054,-0.3747 0.0101,-0.709 l 0.11655,-0.6076 0.32111,-0.1552 0.32113,-0.1551 0.0122,-0.011 c 0.002,-0.1995 0.004,-0.7466 0.005,-1.2159 l 0.002,-0.8533 -0.2261,-0.3451 c -0.21001,-0.3205 -1.02532,-0.7773 -1.76762,-0.9905 l -0.31641,-0.091 -0.0855,-0.3925 -0.0855,-0.3925 0.36259,-1.2333 c 0.19943,-0.6784 0.36396,-1.3151 0.36564,-1.4148 l 0.003,-0.1814 h -0.50788 -0.50786 v -0.5078 -0.5079 h 2.00534 2.00531 l 0.31541,0.3627 c 0.17347,0.1995 0.40845,0.3627 0.52216,0.3627 0.11371,0 0.30977,0.039 0.43571,0.088 l 0.22896,0.088 -0.0901,-0.4507 -0.0901,-0.4506 h 0.64691 c 0.35581,0 0.69047,0.044 0.74367,0.097 z"
         style="fill:#000000;stroke-width:0.0383922"
         id="path10174-7-2"
         sodipodi:nodetypes="cscssscccsssscccccccsscccccccssccccccsscccsscccccccssccccscc" />
      <path
         d="m 343.09664,1685.8194 c -0.4679,-0.2326 -1.1524,-0.3804 -1.4335,-0.31 -0.2957,0.074 -0.6466,0.5715 -0.6471,0.9174 0,0.123 0.093,0.4285 0.2066,0.6785 0.2126,0.4666 1.1858,1.8076 1.4983,2.0646 0.2964,0.2436 0.7254,0.9941 0.7254,1.2691 0,0.1436 0.061,0.3119 0.1369,0.3744 0.1149,0.096 0.076,0.218 -0.2431,0.7641 -0.2089,0.3574 -0.38,0.7467 -0.38,0.8646 0,0.1181 -0.042,0.2405 -0.093,0.2718 -0.051,0.032 -0.4692,-0.1462 -0.9296,-0.3952 -0.7189,-0.3886 -0.8924,-0.4449 -1.2315,-0.3994 -0.5179,0.07 -0.5895,0.1565 -0.6412,0.7784 -0.04,0.4815 -0.018,0.5512 0.2775,0.888 0.1764,0.2008 0.4152,0.4011 0.5307,0.4449 0.1799,0.068 0.2184,0.1811 0.269,0.7851 0.064,0.771 0.1683,0.9409 0.6733,1.1039 0.2741,0.089 0.3344,0.1689 0.4357,0.5796 0.2065,0.8361 0.81,1.2396 1.6255,1.0866 0.4759,-0.09 0.7117,-0.3225 0.9272,-0.9171 0.1874,-0.5176 0.1873,-0.5223 -0.01,-0.7832 -0.1067,-0.1445 -0.1682,-0.3297 -0.1368,-0.412 0.065,-0.1681 0.7295,-0.569 0.9435,-0.569 0.2162,0 0.7116,-0.4933 0.9279,-0.9238 0.1073,-0.2138 0.2466,-0.7169 0.3092,-1.118 0.062,-0.401 0.1649,-0.9153 0.2274,-1.1425 0.097,-0.3536 0.1507,-0.4132 0.3714,-0.4132 0.2368,0 0.2664,-0.046 0.3634,-0.559 0.1248,-0.6605 0.1628,-1.4721 0.078,-1.6772 -0.034,-0.08 -0.049,-0.2771 -0.037,-0.4375 0.018,-0.2344 -0.017,-0.2975 -0.1888,-0.3219 -0.1767,-0.024 -0.2173,0.024 -0.243,0.2917 -0.051,0.5296 -0.2267,0.2676 -0.2082,-0.3101 0.024,-0.7811 0.1042,-1.6173 0.1739,-1.8364 0.033,-0.1051 0,-0.341 -0.078,-0.5242 -0.1152,-0.2758 -0.215,-0.3523 -0.5792,-0.444 -0.242,-0.061 -0.5774,-0.084 -0.7453,-0.05 0,0 -2.04413,-0.4139 -2.8755,0.381 z m -0.5254,9.3338 c 0,0.1572 -0.018,0.1639 -0.2308,0.083 -0.1177,-0.045 -0.1245,-0.084 -0.033,-0.1841 0.1366,-0.1478 0.2631,-0.099 0.2631,0.1012 z"
         style="fill:#000000;stroke-width:0.0257245"
         id="path87571-6-55-9-6"
         sodipodi:nodetypes="csscsscsscccsscccccsccssccsscccscccsccccccc" />
      <path
         d="m 349.04254,1685.3014 -0.0714,0.1541 0.0525,0.065 c 0.34754,0.428 0.48479,0.5644 0.53574,0.5329 l 0.0607,-0.037 v 0.1643 c 0,0.091 -0.0456,0.2023 -0.10123,0.2486 l -0.10123,0.084 v 0.2914 c 0,0.3576 -0.15946,1.0637 -0.34642,1.5342 l -0.13959,0.3513 0.0399,0.4724 c 0.022,0.2598 0.059,0.6451 0.0823,0.8562 l 0.0424,0.3838 -0.29484,0.02 -0.29482,0.021 -0.12453,0.3713 c -0.20971,0.625 -0.18381,0.8789 0.1558,1.5268 l 0.21284,0.406 -0.006,0.2315 c -0.004,0.1273 -0.006,0.5325 -0.004,0.9004 l 0.004,0.6691 0.0792,0.095 0.0792,0.095 -0.0893,0.055 c -0.0491,0.031 -0.20842,0.075 -0.35401,0.098 l -0.26469,0.042 -0.0972,0.2326 c -0.0534,0.1279 -0.0972,0.3219 -0.0972,0.4312 v 0.1986 l 0.20419,0.1718 c 0.11231,0.094 0.36485,0.2225 0.56121,0.2844 l 0.357,0.1125 -0.28916,1.4257 c -0.31677,1.5618 -0.33021,1.6919 -0.21471,2.0774 l 0.0786,0.2624 0.15402,0.039 0.15399,0.039 0.22814,-0.075 0.22813,-0.075 0.0783,-0.3867 c 0.0431,-0.2126 0.15522,-0.736 0.24928,-1.1628 0.0941,-0.4268 0.20361,-0.9431 0.24344,-1.1473 0.0398,-0.2041 0.11512,-0.4735 0.1673,-0.5987 0.0521,-0.1251 0.0949,-0.3129 0.0949,-0.4174 0,-0.1044 0.0476,-0.412 0.10586,-0.6835 0.0581,-0.2716 0.11136,-0.5836 0.11809,-0.6935 l 0.0123,-0.1998 0.21707,-0.044 c 0.25071,-0.051 0.28908,-0.028 0.28908,0.1769 0,0.082 0.046,0.1874 0.1021,0.2339 l 0.10208,0.085 -0.23975,0.2103 -0.23974,0.2104 -0.0372,0.4711 c -0.0205,0.2592 -0.0164,0.6658 0.009,0.9037 l 0.0462,0.4325 0.15653,0.1565 c 0.0861,0.087 0.24267,0.1735 0.34793,0.1942 0.10527,0.02 0.31764,0.066 0.47192,0.102 l 0.28052,0.065 0.30572,-0.1041 0.30572,-0.1042 0.1644,-0.2156 0.16441,-0.2156 0.0506,-0.3026 c 0.0278,-0.1664 0.11046,-0.4544 0.18366,-0.64 l 0.13309,-0.3375 -0.0372,-0.3036 c -0.0205,-0.167 -0.065,-0.4334 -0.0988,-0.592 l -0.0616,-0.2883 0.0489,-0.03 c 0.0269,-0.017 0.34943,-0.05 0.71669,-0.075 0.36727,-0.025 0.72092,-0.073 0.78589,-0.1056 l 0.11809,-0.061 v -0.1243 c 0,-0.068 0.038,-0.1557 0.0844,-0.194 0.12296,-0.1017 0.79867,-0.2549 1.54911,-0.3514 l 0.65491,-0.085 0.48088,0.2444 c 0.2645,0.1344 0.55547,0.2443 0.64661,0.2443 0.0912,0 0.2414,0.049 0.3339,0.1102 l 0.16817,0.1101 0.59958,0.043 0.59958,0.042 -0.0317,-0.052 c -0.0174,-0.029 0.0271,-0.052 0.099,-0.052 0.0719,0 0.17005,-0.047 0.21814,-0.1054 l 0.0875,-0.1054 -0.17611,-0.1633 -0.17609,-0.1633 -0.0454,-0.3218 c -0.0249,-0.177 -0.0903,-0.3932 -0.14524,-0.4804 l -0.0999,-0.1585 -0.21338,0.035 c -0.11738,0.019 -0.3009,0.057 -0.40784,0.084 l -0.19443,0.048 -0.062,-0.1109 -0.062,-0.1107 h -0.13497 c -0.19028,0 -0.49013,-0.166 -1.05954,-0.5867 -0.60659,-0.4482 -0.74896,-0.5044 -1.26988,-0.501 h -0.41273 l -0.49835,0.1668 c -0.2741,0.091 -0.5874,0.1763 -0.69621,0.1881 l -0.19785,0.021 -0.0261,-0.2699 c -0.0143,-0.1484 -0.0969,-0.4264 -0.18341,-0.6176 l -0.15728,-0.3476 0.0742,-0.074 c 0.0408,-0.041 0.11462,-0.074 0.16404,-0.074 0.0494,0 0.1102,-0.053 0.13507,-0.118 0.0248,-0.065 0.0986,-0.1637 0.16377,-0.2194 0.0652,-0.056 0.18058,-0.2617 0.25637,-0.458 l 0.1378,-0.3568 v -0.3416 -0.3416 l -0.18829,-0.1789 -0.18829,-0.179 0.0468,-0.27 0.0468,-0.2699 -0.13027,-0.1413 -0.13026,-0.1413 0.0437,-0.3713 0.0437,-0.3715 -0.10552,-0.2296 -0.10551,-0.2298 -0.031,-0.66 -0.031,-0.66 -0.0823,-0.099 -0.0823,-0.099 h -1.09777 -1.09777 l -0.0458,0.2441 c -0.0252,0.1342 -0.025,0.4454 8.7e-4,0.6917 l 0.0461,0.4477 0.10376,0.1182 c 0.057,0.065 0.14702,0.118 0.1999,0.118 h 0.0961 l -0.0439,0.2193 c -0.0242,0.1208 -0.0741,0.3168 -0.11088,0.4357 l -0.0669,0.2165 -0.45128,-0.036 c -0.24821,-0.02 -0.49239,-0.049 -0.54265,-0.065 l -0.0914,-0.029 0.0508,-0.1175 c 0.028,-0.065 0.0586,-0.5958 0.0682,-1.1804 l 0.0174,-1.063 -1.02287,9e-4 h -1.02288 l -0.0714,0.1541 z m 10.68245,8.3215 c -0.0224,0.022 -0.0807,0.025 -0.12935,0.01 l -0.0886,-0.035 0.12935,-0.01 c 0.0712,0 0.111,0.013 0.0886,0.035 z"
         style="fill:#000000;stroke-width:0.0506158"
         id="path23238-5" />
    </g>
  </g>
</svg>
