<?xml version="1.0" encoding="UTF-8" standalone="no"?>
<!-- Created with Inkscape (http://www.inkscape.org/) -->

<svg
   width="32.929749mm"
   height="9.7580376mm"
   viewBox="0 0 32.929749 9.7580376"
   version="1.1"
   id="svg6745"
   sodipodi:docname="inkporter-svg-de2d1i4p.svg"
   xmlns:inkscape="http://www.inkscape.org/namespaces/inkscape"
   xmlns:sodipodi="http://sodipodi.sourceforge.net/DTD/sodipodi-0.dtd"
   xmlns="http://www.w3.org/2000/svg"
   xmlns:svg="http://www.w3.org/2000/svg">
  <sodipodi:namedview
     id="namedview6747"
     pagecolor="#ffffff"
     bordercolor="#666666"
     borderopacity="1.0"
     inkscape:pageshadow="2"
     inkscape:pageopacity="0.0"
     inkscape:pagecheckerboard="0"
     inkscape:document-units="mm"
     showgrid="false"
     inkscape:zoom="0.66368547"
     inkscape:cx="397.02542"
     inkscape:cy="561.25984"
     inkscape:window-width="1920"
     inkscape:window-height="1017"
     inkscape:window-x="-8"
     inkscape:window-y="-8"
     inkscape:window-maximized="1"
     inkscape:current-layer="layer1" />
  <defs
     id="defs6742" />
  <g
     inkscape:label="Layer 1"
     inkscape:groupmode="layer"
     id="layer1"
     transform="translate(-119.98214,-218.41256)">
    <path
       d="m 121.07373,222.61477 c -0.0871,-0.57961 -0.17216,-1.54446 0.0282,-1.97414 0.22543,-0.48331 0.29104,-0.40252 0.40711,-0.0621 0.11535,0.34043 0.19191,0.97861 0.0755,1.45133 -0.0392,0.16086 -0.0755,0.30092 -0.10724,0.41592 0.69708,-0.26917 1.41111,-0.44026 1.68522,-0.46708 0.44238,-0.0441 3.29071,-0.17074 3.29071,-0.17074 l 0.10936,-0.22966 3.83716,-0.16404 c 0,0 0.71332,-0.57291 0.85513,-0.69638 0.14182,-0.12277 0.22261,-0.11007 0.22261,-0.11007 l 1.26576,0.0797 0.054,-0.0607 0.91722,0.0226 0.0624,0.15875 h 1.24072 l 0.16546,-1.97767 0.12982,0.001 0.0575,1.97662 2.23838,-3.5e-4 0.5842,1.29504 c 0,0 5.48886,0.23107 6.62128,0.26988 1.13206,0.0388 1.61255,-0.82586 1.61255,-0.82586 0,0 1.49013,-2.05951 2.17699,-2.7633 0.68686,-0.7045 1.81151,-0.24377 2.24049,0.061 0.42933,0.3048 0.71402,1.49013 0.71402,1.49013 0,0 0.5387,2.30752 0.66287,2.69946 0.12383,0.39228 0.69074,0.59125 0.69074,0.59125 l -0.70555,0.32773 c 0,0 -0.3422,-0.12347 -1.03964,0.0194 -0.69744,0.14288 -0.66851,0.53799 -0.66851,0.53799 l -0.79375,-0.0169 c 0,0 -4.19594,0.41063 -4.60622,0.48224 -0.41028,0.0723 -4.19524,0.3362 -4.53884,0.36266 -0.34325,0.0261 -3.29389,0.14993 -3.50591,0.14711 -0.21202,-0.004 -2.94781,-0.0123 -3.43323,-0.0222 -0.48613,-0.01 -0.30727,-0.0748 -2.13924,0.20567 -1.83233,0.28081 -4.13385,-0.0483 -4.65773,-0.19367 -0.52352,-0.1457 -0.57926,-0.30586 -0.57926,-0.30586 0,0 -1.61925,-0.21096 -1.65982,-0.21061 -0.0406,3.5e-4 -0.15734,0.0748 -0.30304,0.06 -0.1464,-0.0152 -0.24588,-0.15381 -0.24588,-0.15381 l -2.26237,-0.37641 -0.0208,-0.23425 c 0,0 0.0317,-0.012 -0.30127,-0.12312 -0.024,-0.008 -0.0497,-0.0173 -0.0769,-0.0286 0.21978,1.04281 0.24201,2.34209 0.055,3.36444 -0.19015,1.04563 -0.31292,0.90488 -0.4311,-0.28469 -0.10971,-1.10455 0.0385,-2.63208 0.16051,-3.18135 -0.35242,-0.18027 -0.79092,-0.4639 -0.85442,-0.53058 -0.084,-0.0871 -0.0981,-0.0914 -0.0981,-0.0914 l -0.20708,-0.0113 -0.0166,-0.17321 0.21167,-0.037 c 0,0 0.0811,-0.0822 0.12947,-0.11748 0.2092,-0.15522 0.47061,-0.29809 0.75036,-0.42545"
       style="fill:#000000;fill-opacity:1;fill-rule:nonzero;stroke:none;stroke-width:0.352778"
       id="S-il2" />
  </g>
</svg>
