<?xml version="1.0" encoding="UTF-8" standalone="no"?>
<!-- Created with Inkscape (http://www.inkscape.org/) -->

<svg
   width="8.7553034mm"
   height="9.0680256mm"
   viewBox="0 0 8.7553034 9.0680256"
   version="1.1"
   id="svg26913"
   sodipodi:docname="inkporter-svg-7spwolrm.svg"
   xmlns:inkscape="http://www.inkscape.org/namespaces/inkscape"
   xmlns:sodipodi="http://sodipodi.sourceforge.net/DTD/sodipodi-0.dtd"
   xmlns="http://www.w3.org/2000/svg"
   xmlns:svg="http://www.w3.org/2000/svg">
  <sodipodi:namedview
     id="namedview26915"
     pagecolor="#ffffff"
     bordercolor="#666666"
     borderopacity="1.0"
     inkscape:pageshadow="2"
     inkscape:pageopacity="0.0"
     inkscape:pagecheckerboard="0"
     inkscape:document-units="mm"
     showgrid="false"
     inkscape:zoom="0.64052329"
     inkscape:cx="397.33138"
     inkscape:cy="561.25984"
     inkscape:window-width="1920"
     inkscape:window-height="1017"
     inkscape:window-x="-8"
     inkscape:window-y="-8"
     inkscape:window-maximized="1"
     inkscape:current-layer="layer1" />
  <defs
     id="defs26910" />
  <g
     inkscape:label="Layer 1"
     inkscape:groupmode="layer"
     id="layer1"
     transform="translate(-33.8138,-99.642337)">
    <g
       id="S-Infantry3-Pf"
       transform="matrix(0.35277777,0,0,-0.35277777,-331.19287,196.91142)">
      <path
         d="m 1050.8928,261.62929 c 0,0 0.032,-0.031 0.051,-0.047 0.022,-0.016 0.16,-0.124 0.219,-0.144 0.059,-0.021 0.061,-0.008 0.07,0.02 0.01,0.027 0.01,0.171 0,0.189 -0.01,0.015 -0.074,0.143 -0.077,0.189 0,0.045 -0.064,0.023 -0.064,0.023 0,0 -0.159,-0.185 -0.199,-0.23 m 3.991,0.622 c 0,0 -0.02,-0.057 -0.02,-0.081 0,-0.025 0.028,-0.029 0.039,-0.073 0.011,-0.043 -0.01,-0.149 0,-0.214 0.01,-0.063 0.054,-0.093 0.093,-0.144 0.038,-0.053 0,-0.116 0,-0.141 0,-0.024 -0.01,-0.211 -0.01,-0.266 0,-0.053 0.093,-0.069 0.159,-0.093 0.065,-0.021 0.143,-0.108 0.161,-0.108 l 0.41,-0.002 c 0.023,0 0.027,0.002 0.064,0.036 0.028,0.027 0.064,0.017 0.064,0.017 -0.035,0.02 -0.916,1.002 -0.961,1.069 m -2.548,-12.155 c -0.055,-0.009 -0.278,-0.023 -0.428,0.05 -0.149,0.072 -0.295,0.2 -0.358,0.309 -0.063,0.108 -0.036,0.177 -0.063,0.23 -0.027,0.055 -0.045,0.177 -0.064,0.222 -0.018,0.045 -0.081,0.164 -0.113,0.201 -0.031,0.035 -0.059,0.041 -0.059,0.112 0,0.073 -0.014,0.228 -0.022,0.282 -0.01,0.055 0.012,0.11 0.017,0.131 0.01,0.024 -0.022,0.16 -0.017,0.178 0,0.017 0.05,0.049 0.05,0.076 0,0.028 -0.046,0.101 -0.046,0.118 0,0.018 0.018,0.177 0.027,0.205 0.01,0.028 -0.027,0.108 -0.064,0.163 -0.035,0.055 -0.077,0.063 -0.031,0.132 0.045,0.067 0.122,0.146 0.131,0.191 0.01,0.045 0.018,0.195 -0.013,0.327 -0.032,0.13 -0.054,0.738 -0.054,0.883 0,0.146 -0.014,0.195 0,0.237 0.012,0.041 0.036,0.049 0.036,0.067 0,0.019 0.022,0.228 0.018,0.267 0,0.042 -0.063,0.079 -0.063,0.118 0,0.042 0.026,0.177 0.04,0.209 0.014,0.033 0.082,0.11 0.086,0.159 0.01,0.051 -0.013,0.109 -0.027,0.146 -0.014,0.035 -0.182,0.653 -0.222,0.734 -0.041,0.083 -0.096,0.236 -0.11,0.282 -0.013,0.045 -0.031,0.513 -0.031,0.58 0,0.069 0.023,0.24 0.018,0.278 0,0.035 -0.213,0.139 -0.254,0.181 -0.041,0.041 -0.126,0.141 -0.14,0.177 -0.014,0.035 0.014,0.173 0.032,0.232 0.017,0.057 0.072,0.144 0.067,0.199 0,0.055 -0.01,0.132 0.027,0.218 0.037,0.085 0.128,0.262 0.132,0.327 0,0.063 0,0.163 0.01,0.195 0,0.031 0,0.063 0.017,0.118 0.014,0.053 0.032,0.059 0.037,0.153 0,0.095 0.031,0.136 -0.045,0.236 -0.078,0.101 -0.105,0.453 -0.054,0.581 0.049,0.126 0.125,0.285 0.125,0.285 0,0 -0.761,-0.253 -0.82,-0.257 -0.059,-0.006 -0.154,0.053 -0.146,0.112 0.01,0.059 0.073,0.899 0.073,0.899 l -0.348,0.23 c 0,0 -0.087,0.006 -0.132,0.028 -0.046,0.024 -0.164,0.236 -0.173,0.264 -0.01,0.027 -0.05,0.258 -0.041,0.303 0.01,0.045 0.019,0.155 0.041,0.195 0.023,0.041 0.141,0.218 0.187,0.287 0.045,0.067 0.144,0.244 0.198,0.299 0.055,0.053 0.205,0.205 0.254,0.285 0.05,0.081 0.3,0.372 0.327,0.431 0.027,0.059 0.059,0.105 0.109,0.164 0.05,0.059 0.236,0.236 0.277,0.271 0.041,0.038 0.109,0.101 0.14,0.132 0.033,0.032 0.041,0.069 0.051,0.097 0.01,0.025 0.122,0.025 0.126,0.057 0.01,0.033 -0.031,0.114 -0.022,0.163 0.01,0.051 0.094,0.177 0.113,0.219 0.019,0.041 0.036,0.068 0.05,0.135 0.014,0.069 0.087,0.191 0.16,0.219 0.071,0.027 0.157,0.018 0.181,0.035 0.022,0.02 0.049,0.024 0.108,0.028 0.059,0.004 0.081,-0.022 0.142,-0.028 0.058,-0.004 0.235,0.006 0.261,-0.008 0.028,-0.013 0.282,-0.214 0.323,-0.236 0.041,-0.023 0.014,-0.041 0.063,0.008 0.05,0.051 0.064,0.037 0.073,0.065 0.01,0.028 -0.01,0.209 -0.01,0.226 0,0.018 -0.182,0 -0.217,0.014 -0.037,0.014 -0.178,0.045 -0.178,0.091 0,0.045 0.028,0.163 0.068,0.226 0.041,0.065 0.027,0.386 0.027,0.449 0,0.065 0.094,0.885 0.785,1.084 0.346,0.1 0.612,0.079 0.853,-0.118 0.2,-0.161 0.282,-0.494 0.346,-0.592 0.063,-0.101 0.112,-0.17 0.171,-0.201 0.059,-0.032 0.123,-0.091 0.078,-0.205 -0.046,-0.112 -0.182,-0.366 -0.277,-0.425 -0.095,-0.059 -0.114,-0.069 -0.114,-0.069 0,0 -0.01,-0.1 -0.04,-0.149 -0.032,-0.049 -0.055,-0.091 -0.068,-0.115 -0.014,-0.021 -0.023,-0.222 -0.032,-0.271 -0.01,-0.049 -0.059,-0.122 -0.095,-0.14 -0.037,-0.019 -0.146,-0.069 -0.182,-0.082 -0.036,-0.014 -0.059,-0.028 -0.077,-0.054 -0.018,-0.027 0,-0.092 0,-0.092 l 0.091,-0.004 0.049,-0.055 h 0.082 l 0.095,-0.108 0.077,-0.004 0.059,-0.073 0.064,0.004 c 0,0 0.345,-0.236 0.403,-0.268 0.059,-0.031 0.113,0 0.151,-0.067 0.035,-0.069 0.08,-0.228 0.09,-0.264 0.01,-0.037 0.086,-0.173 0.095,-0.236 0.01,-0.063 0.023,-0.236 0.023,-0.236 0,0 0.112,-0.199 0.131,-0.222 0.019,-0.022 0.141,-0.081 0.15,-0.099 0.01,-0.019 0.099,-0.092 0.118,-0.11 0.018,-0.018 -0.014,-0.053 -0.014,-0.053 l 0.05,-0.037 0.831,-0.762 c 0,0 0.01,0.028 0.035,0.032 0.028,0.003 0.109,-0.095 0.128,-0.14 0.018,-0.047 0.014,-0.034 0.014,-0.034 h 0.516 l 0.033,0.042 0.14,0.009 c 0,0 0.01,0.081 0.031,0.126 0.028,0.046 0.033,0.115 0.073,0.115 0.041,0 0.059,-0.05 0.083,-0.042 0.021,0.01 0.031,0.046 0.049,0.038 0.018,-0.01 0.068,-0.059 0.068,-0.097 0,-0.035 0.022,-0.157 0.022,-0.157 l 0.082,-0.069 h 0.381 c 0,0 0.023,0 0.027,-0.041 0,-0.042 0,-0.237 -0.081,-0.262 -0.086,-0.028 -0.131,-0.024 -0.131,-0.024 h -1.008 c 0,0 0.014,-0.104 0,-0.128 -0.014,-0.021 -0.09,-0.126 -0.127,-0.157 -0.036,-0.032 -0.091,-0.006 -0.127,0.018 -0.036,0.023 -0.064,0.049 -0.081,0.059 -0.019,0.009 -0.01,-0.032 -0.042,-0.036 -0.036,-0.006 -0.095,0.012 -0.095,0.012 0,0 -0.018,-0.018 -0.081,-0.032 -0.064,-0.013 -0.145,0.056 -0.145,0.056 0,0 -0.051,-0.069 -0.087,-0.083 -0.035,-0.012 -0.095,0.01 -0.118,-0.004 -0.022,-0.014 -0.154,-0.1 -0.213,-0.108 -0.059,-0.01 -0.29,-0.018 -0.318,0 -0.026,0.017 -0.018,-0.142 -0.018,-0.142 0,0 -0.01,-0.738 -0.058,-0.852 -0.05,-0.114 -0.082,-0.122 -0.123,-0.118 -0.041,0.004 -0.018,0.017 -0.081,0.004 -0.064,-0.012 -0.187,-0.008 -0.214,-0.012 -0.027,-0.006 0.027,-0.274 0.027,-0.315 0,-0.039 0.045,-0.502 0.059,-0.616 0.014,-0.114 0.028,-0.726 0.028,-0.793 0,-0.069 -0.023,-0.346 -0.042,-0.378 -0.017,-0.031 -0.09,-0.118 -0.127,-0.132 -0.036,-0.014 0.023,-0.476 0.014,-0.571 -0.01,-0.094 -0.054,-0.299 -0.104,-0.371 -0.05,-0.073 -0.05,-0.073 -0.032,-0.132 0.018,-0.059 0.064,-0.282 0.032,-0.408 -0.032,-0.128 -0.096,-0.159 -0.091,-0.191 0.01,-0.031 0.059,-0.208 0.059,-0.263 0,-0.054 0,-0.168 -0.032,-0.168 -0.036,0 -0.054,-0.027 -0.054,-0.068 0,-0.04 -0.027,-0.64 -0.041,-0.731 -0.013,-0.09 -0.104,-0.903 -0.109,-0.925 -0.01,-0.023 -0.01,-0.059 -0.01,-0.059 0,0 0.078,-0.082 0.055,-0.136 -0.022,-0.055 -0.064,-0.086 -0.05,-0.122 0.014,-0.037 0.019,-0.169 0.019,-0.169 0,0 0.027,-0.104 0.027,-0.122 0,-0.017 0.054,-0.055 0.067,-0.077 0.014,-0.023 0.046,-0.072 0.087,-0.082 0.041,-0.008 0.049,-0.049 0.063,-0.077 0.014,-0.028 0.254,-0.268 0.441,-0.303 0.185,-0.037 0.49,-0.155 0.521,-0.163 0.032,-0.01 0.087,-0.122 0.087,-0.191 0,-0.069 0.018,-0.114 0.022,-0.132 0,-0.018 0.023,-0.055 -0.055,-0.1 -0.077,-0.046 -0.249,-0.213 -0.443,-0.199 -0.196,0.013 -0.509,-0.018 -0.822,0.139 -0.313,0.16 -0.381,0.25 -0.381,0.25 l -0.132,-0.059 c 0,0 -0.236,0.018 -0.33,0.073 -0.097,0.055 -0.174,0.114 -0.174,0.114 v 0.217 c 0,0 -0.042,0.033 -0.046,0.073 -0.01,0.041 -0.032,0.169 0.014,0.226 0.045,0.059 0.022,0.059 0.027,0.106 0,0.045 0.05,0.126 0.095,0.15 0.045,0.021 0.01,0.08 0.01,0.122 0,0.041 0.01,0.167 0.028,0.208 0.017,0.042 0.045,0.055 0,0.113 -0.041,0.059 -0.145,0.155 -0.096,0.2 0.05,0.046 0.1,0.118 0.064,0.185 -0.036,0.069 -0.054,0.079 -0.059,0.187 -0.01,0.108 -0.082,0.835 -0.077,0.929 0,0.097 0.013,0.382 0.013,0.4 0,0.019 0.032,-0.004 0.045,0.023 0.014,0.028 -0.067,0.114 -0.077,0.136 -0.01,0.024 -0.013,0.187 0,0.226 0.019,0.042 0.046,0.069 0.032,0.105 -0.013,0.037 -0.04,0.077 -0.059,0.09 -0.018,0.014 -0.109,-0.149 -0.19,-0.254 -0.083,-0.104 -0.273,-0.299 -0.291,-0.348 -0.018,-0.051 -0.055,-0.181 -0.032,-0.218 0.024,-0.036 0.069,-0.15 -0.023,-0.195 -0.09,-0.045 -0.067,-0.024 -0.085,-0.108 -0.019,-0.087 -0.024,-0.268 -0.028,-0.333 0,-0.063 -0.068,-0.48 -0.086,-0.526 -0.018,-0.045 -0.15,-0.48 -0.15,-0.525 0,-0.045 -0.054,-0.382 -0.054,-0.417 0,-0.038 -0.027,-0.197 -0.027,-0.256 0,-0.057 -0.023,-0.213 -0.023,-0.262 0,-0.051 -0.018,-0.181 -0.01,-0.218 0.01,-0.036 0.01,-0.231 0.036,-0.317 0.032,-0.087 0.154,-0.309 0.159,-0.331 0,-0.023 0.023,-0.204 0.05,-0.208 0.028,-0.006 0.091,-0.083 0.108,-0.115 0.019,-0.031 0.097,-0.249 0.087,-0.295 -0.01,-0.045 0,-0.212 -0.036,-0.299 -0.032,-0.086 -0.19,-0.136 -0.19,-0.136"
         style="fill:#000000;fill-opacity:1;fill-rule:nonzero;stroke:none"
         id="path159447-6" />
      <path
         d="m 1036.9846,259.13379 -0.102,-0.042 -0.213,-0.103 -0.151,-0.068 -0.191,-0.076 -0.16,-0.076 -0.145,-0.064 -0.128,0.006 -0.075,0.024 -0.077,0.005 -0.047,-0.008 -0.044,0.014 -0.027,0.026 -0.027,0.043 -0.081,-0.062 c 0,0 -0.063,-0.052 -0.103,-0.072 -0.04,-0.018 -0.126,0.017 -0.153,0.036 -0.028,0.018 -0.128,0.118 -0.128,0.118 l -0.121,-0.106 -0.044,0.019 -0.175,-0.124 c 0,0 -0.056,0.028 -0.083,0.059 -0.03,0.032 -0.04,0.071 -0.045,0.1 0,0.028 0.053,0.06 0.053,0.06 l 0.389,0.352 0.424,0.39 0.051,0.049 0.077,-0.018 0.031,0.014 v 0.035 l 0.03,0.018 h 0.036 l 0.022,-0.021 v -0.034 -0.02 l 0.034,-0.017 0.068,-0.02 0.033,-0.037 0.065,0.004 0.093,-0.008 0.069,0.063 0.12,0.068 0.152,0.119 0.136,0.153 0.273,0.307 -0.018,0.374 -0.067,0.339 -0.069,0.358 c 0.01,0.016 -10e-4,0.454 0.018,0.476 0.017,0.023 0.09,0.37 0.09,0.37 0,0 0.014,0.167 0.024,0.228 0.01,0.06 0.083,0.191 0.091,0.228 0.01,0.034 0.015,0.126 0.05,0.193 0.036,0.065 0.126,0.095 0.183,0.126 0.056,0.03 0.389,0.258 0.389,0.258 l 0.062,-0.004 0.057,0.071 0.073,0.004 0.093,0.104 h 0.078 l 0.049,0.053 0.095,0.044 0.09,0.063 0.024,0.108 -0.043,0.098 -0.035,0.031 -0.07,0.021 -0.063,0.045 -0.047,0.04 -0.037,0.065 v 0.068 l 0.01,0.081 -0.01,0.037 -0.028,0.091 -0.023,0.066 -0.01,0.115 v 0.102 l 0.024,0.091 0.017,0.107 -0.01,0.126 -0.01,0.058 -0.03,0.063 c 0,0 -0.083,0.012 -0.114,0.021 -0.03,0.01 -0.061,0.042 -0.061,0.042 l 0.14,0.113 -0.01,0.029 -0.018,0.06 c 0,0 0.013,0.029 0.026,0.036 0.011,0.008 0.073,0.056 0.073,0.056 l 0.01,0.113 c 0,0 0,0.008 -0.049,0.066 -0.049,0.058 -0.165,0.251 -0.198,0.314 -0.033,0.064 -0.038,0.151 0,0.238 0.037,0.085 0.18,0.161 0.284,0.199 0.103,0.033 0.349,0.033 0.481,0.021 0.13,-0.011 0.584,-0.173 0.816,-0.342 0.231,-0.168 0.485,-0.539 0.503,-0.579 0.017,-0.041 0.017,-0.098 0.01,-0.113 -0.01,-0.014 -0.027,-0.077 -0.041,-0.116 -0.016,-0.038 -0.043,-0.048 -0.043,-0.048 l -0.059,-0.037 -0.096,-0.042 -0.068,-0.006 -0.047,-0.255 -0.013,-0.03 -0.02,-0.015 -0.053,-0.168 -0.101,-0.255 -0.068,-0.111 -0.082,-0.209 -0.019,-0.102 0.13,-0.05 c 0.048,-0.048 0.022,-0.031 0.061,-0.007 0.039,0.02 0.135,-0.033 0.161,-0.02 l 0.222,-0.051 0.17,-0.033 0.17,-0.085 0.255,-0.136 0.169,-0.102 0.123,-0.083 c 0,-0.03 0.114,-0.03 0.123,-0.055 0.01,-0.026 0.03,-0.171 0.061,-0.203 0.03,-0.029 0.079,-0.252 0.119,-0.289 0.039,-0.034 0.07,-0.266 0.119,-0.323 0.048,-0.057 0.075,-0.13 0.102,-0.187 0.025,-0.057 0.071,-0.261 0.119,-0.339 0.047,-0.078 0.066,-0.357 0.119,-0.409 0.052,-0.053 0.058,-0.308 0.101,-0.373 0.046,-0.067 0.047,-0.301 0.069,-0.341 0.021,-0.037 -0.179,-0.397 -0.17,-0.442 0.01,-0.044 -0.094,-0.143 -0.102,-0.17 -0.01,-0.026 -0.076,-0.163 -0.12,-0.187 -0.043,-0.021 -0.22,-0.187 -0.22,-0.187 l -0.201,-0.158 c 0,0 0.074,-0.155 0.121,-0.276 0.049,-0.123 0.023,-0.463 -0.052,-0.56 -0.074,-0.096 -0.048,-0.137 -0.043,-0.228 0,-0.092 0.022,-0.097 0.034,-0.149 0.014,-0.053 0.014,-0.083 0.017,-0.113 0.01,-0.031 0.01,-0.128 0.01,-0.189 0,-0.063 0.091,-0.234 0.128,-0.315 0.033,-0.083 0.029,-0.157 0.025,-0.21 -0.01,-0.053 0.049,-0.138 0.065,-0.193 0.018,-0.057 0.044,-0.189 0.032,-0.223 -0.014,-0.035 -0.097,-0.131 -0.136,-0.172 -0.039,-0.04 -0.241,-0.14 -0.245,-0.174 0,-0.036 0.017,-0.202 0.017,-0.269 0,-0.063 -0.017,-0.516 -0.03,-0.559 -0.014,-0.045 -0.067,-0.193 -0.106,-0.272 -0.039,-0.079 -0.201,-0.675 -0.214,-0.708 -0.014,-0.037 -0.032,-0.092 -0.026,-0.142 0,-0.047 0.069,-0.121 0.083,-0.154 0.013,-0.029 0.039,-0.161 0.039,-0.2 0,-0.04 -0.057,-0.075 -0.061,-0.115 0,-0.038 0.018,-0.24 0.018,-0.258 0,-0.017 0.021,-0.025 0.034,-0.064 0.013,-0.041 0,-0.088 0,-0.229 0,-0.139 -0.023,-0.727 -0.052,-0.853 -0.031,-0.127 -0.022,-0.27 -0.014,-0.316 0.01,-0.043 0.084,-0.119 0.128,-0.183 0.043,-0.067 0,-0.074 -0.03,-0.128 -0.037,-0.053 -0.07,-0.13 -0.062,-0.157 0.01,-0.028 0.025,-0.181 0.025,-0.198 0,-0.017 -0.043,-0.087 -0.043,-0.114 0,-0.027 0.043,-0.057 0.048,-0.074 0,-0.018 -0.023,-0.148 -0.017,-0.171 0,-0.021 0.026,-0.074 0.017,-0.128 -0.01,-0.05 -0.023,-0.201 -0.023,-0.271 0,-0.068 -0.025,-0.073 -0.057,-0.109 -0.029,-0.035 -0.09,-0.149 -0.108,-0.193 -0.018,-0.043 -0.035,-0.161 -0.062,-0.214 -0.025,-0.051 0,-0.118 -0.06,-0.223 -0.061,-0.104 -0.203,-0.228 -0.346,-0.299 -0.145,-0.07 -0.359,-0.057 -0.413,-0.047 0,0 -0.152,0.047 -0.184,0.132 -0.03,0.083 -0.025,0.244 -0.034,0.288 -0.01,0.045 0.066,0.255 0.084,0.285 0.017,0.031 0.078,0.104 0.104,0.11 0.027,0.004 0.044,0.179 0.049,0.202 0,0.02 0.122,0.236 0.153,0.319 0.03,0.083 0.026,0.272 0.035,0.306 0.01,0.036 -0.01,0.161 -0.01,0.211 0,0.047 -0.021,0.198 -0.021,0.253 0,0.057 -0.027,0.21 -0.027,0.246 0,0.034 -0.052,0.36 -0.052,0.403 0,0.044 -0.128,0.464 -0.145,0.507 -0.018,0.044 -0.08,0.447 -0.084,0.507 0,0.063 -0.01,0.238 -0.026,0.322 -0.017,0.081 0.01,0.06 -0.083,0.104 -0.088,0.044 -0.044,0.155 -0.022,0.188 0.022,0.035 -0.013,0.161 -0.03,0.21 -0.019,0.048 -0.201,0.237 -0.281,0.337 -0.078,0.1 -0.166,0.258 -0.183,0.246 -0.018,-0.014 -0.046,-0.051 -0.057,-0.089 -0.014,-0.033 0.011,-0.061 0.029,-0.1 0.019,-0.037 0.014,-0.196 0.01,-0.218 -0.01,-0.021 -0.088,-0.105 -0.075,-0.131 0.012,-0.027 0.045,-0.004 0.045,-0.023 0,-0.018 0.01,-0.293 0.012,-0.386 0,-0.09 -0.07,-0.793 -0.074,-0.897 0,-0.104 -0.022,-0.113 -0.058,-0.18 -0.035,-0.064 0.014,-0.135 0.062,-0.178 0.048,-0.043 -0.053,-0.137 -0.093,-0.194 -0.039,-0.055 -0.012,-0.068 0,-0.109 0.019,-0.04 0.026,-0.162 0.026,-0.201 0,-0.039 -0.035,-0.096 0.01,-0.118 0.044,-0.022 0.088,-0.1 0.092,-0.144 0,-0.045 -0.018,-0.045 0.025,-0.102 0.046,-0.055 0.018,-0.179 0.014,-0.22 0,-0.038 -0.043,-0.069 -0.043,-0.069 v -0.209 c 0,0 -0.075,-0.057 -0.167,-0.11 -0.092,-0.053 -0.319,-0.071 -0.319,-0.071 l -0.128,0.057 c 0,0 -0.065,-0.087 -0.367,-0.242 -0.302,-0.152 -0.604,-0.12 -0.794,-0.134 -0.187,-0.014 -0.352,0.148 -0.428,0.191 -0.075,0.045 -0.056,0.081 -0.052,0.098 0,0.016 0.021,0.061 0.021,0.126 0,0.067 0.053,0.176 0.083,0.185 0.03,0.008 0.325,0.121 0.504,0.158 0.181,0.034 0.412,0.265 0.425,0.293 0.014,0.026 0.021,0.066 0.061,0.074 0.039,0.009 0.071,0.057 0.084,0.08 0.012,0.02 0.065,0.057 0.065,0.073 0,0.017 0.026,0.118 0.026,0.118 0,0 0.01,0.127 0.018,0.164 0.014,0.034 -0.027,0.064 -0.049,0.117 -0.021,0.052 0.054,0.132 0.054,0.132 0,0 0,0.034 -0.01,0.057 0,0.02 -0.093,0.805 -0.106,0.892 -0.012,0.088 -0.038,0.666 -0.038,0.706 0,0.039 -0.019,0.066 -0.053,0.066 -0.036,0 -0.032,0.11 -0.032,0.161 0,0.054 0.054,0.224 0.058,0.255 0,0.03 -0.058,0.06 -0.087,0.184 -0.032,0.121 0.013,0.336 0.029,0.393 0.018,0.057 0.018,0.057 -0.029,0.128 -0.049,0.069 -0.093,0.267 -0.102,0.358 -0.01,0.092 0.049,0.538 0.013,0.551 -0.034,0.014 -0.104,0.097 -0.122,0.128 -0.017,0.029 -0.039,0.298 -0.039,0.364 0,0.065 0.013,0.655 0.026,0.765 0.013,0.111 0.057,0.557 0.057,0.596 z"
         style="fill:#000000;fill-opacity:1;fill-rule:nonzero;stroke:none"
         id="path159451-8" />
      <path
         d="m 1048.5144,262.48939 0.848,4.853 -0.067,-0.321 -0.59,-0.098 -0.667,-0.071 -0.937,-0.024 -0.638,0.008 -0.897,-0.057 -0.72,0.075 -0.672,-0.041 -0.362,-0.035 -0.35,-0.139 -0.297,-0.224 -0.299,-0.37 -0.526,-0.354 -0.338,-0.339 -0.484,-0.426 -0.426,-0.233 -0.318,-0.183 -0.191,-0.321 -0.071,-0.639 -0.224,0.234 -0.197,0.805 -0.12,0.775 0.025,0.831 0.046,0.635 0.122,0.366 0.289,0.361 0.242,0.212 0.161,0.242 0.024,0.248 -0.083,0.309 -0.137,0.248 -0.113,0.315 -0.069,0.402 0.034,0.366 0.14,0.297 0.181,0.179 0.368,0.451 0.047,0.268 0.297,0.031 0.362,0.114 0.478,0.087 0.632,0.066 0.512,0.13 0.394,0.191 0.314,0.221 0.317,0.183 0.331,0.072 0.632,0.067 0.661,0.144 0.691,0.222 0.417,0.307 0.311,0.258 0.451,0.349 0.492,0.315 0.494,0.312 0.387,0.23 0.567,0.321 0.531,0.319 0.548,0.508 0.094,0.182 -2.405,-13.494 v -0.313 c 0,0 0.096,-0.334 -0.081,-0.364 -0.346,-2.077 -1.836,-10.794 -1.938,-11.211 l -0.288,0.227 1.774,10.129 z"
         style="fill:#000000;fill-opacity:1;fill-rule:nonzero;stroke:none"
         id="path159455-4" />
      <path
         d="m 1043.4437,261.40689 c 0,0 0.138,-0.22 0.157,-0.236 0.022,-0.016 0.118,-0.244 0.205,-0.189 0.053,0.033 0.071,0.378 0.081,0.405 0.01,0.028 0.01,0.173 0,0.189 -0.01,0.016 -0.075,0.145 -0.078,0.19 0,0.045 -0.064,0.023 -0.064,0.023 0,0 -0.26,-0.337 -0.301,-0.382 m 4.277,-1.542 c -0.05,-0.115 -0.336,-0.146 -0.377,-0.142 -0.041,0.004 0,-0.285 -0.063,-0.299 -0.064,-0.012 0.016,-0.252 -0.011,-0.256 -0.027,-0.006 0.027,-0.273 0.027,-0.314 0,-0.04 0.046,-0.502 0.059,-0.617 0.014,-0.114 0.028,-0.726 0.028,-0.793 0,-0.068 -0.023,-0.346 -0.041,-0.377 -0.018,-0.032 -0.091,-0.119 -0.127,-0.132 -0.037,-0.014 0.022,-0.477 0.014,-0.571 -0.01,-0.095 -0.055,-0.299 -0.105,-0.372 -0.05,-0.073 -0.05,-0.073 -0.031,-0.132 0.017,-0.059 0.064,-0.281 0.031,-0.407 -0.031,-0.128 -0.095,-0.16 -0.09,-0.191 0.01,-0.032 0.059,-0.209 0.059,-0.264 0,-0.053 0.01,-0.167 -0.033,-0.167 -0.035,0 -0.054,-0.028 -0.054,-0.069 0,-0.039 -0.026,-0.64 -0.04,-0.73 -0.014,-0.091 -0.104,-0.904 -0.109,-0.925 -0.01,-0.024 -0.01,-0.059 -0.01,-0.059 0,0 0.077,-0.083 0.055,-0.136 -0.023,-0.055 -0.064,-0.087 -0.05,-0.122 0.013,-0.037 0.018,-0.169 0.018,-0.169 0,0 0.027,-0.105 0.027,-0.122 0,-0.018 0.054,-0.056 0.068,-0.077 0.014,-0.024 0.045,-0.073 0.086,-0.083 0.042,-0.008 0.05,-0.049 0.063,-0.077 0.014,-0.027 0.254,-0.267 0.441,-0.303 0.185,-0.037 0.49,-0.155 0.522,-0.163 0.031,-0.01 0.086,-0.122 0.086,-0.191 0,-0.069 0.018,-0.114 0.022,-0.132 0,-0.017 0.024,-0.055 -0.054,-0.1 -0.078,-0.045 -0.249,-0.213 -0.444,-0.199 -0.196,0.014 -0.509,-0.017 -0.822,0.14 -0.313,0.159 -0.38,0.25 -0.38,0.25 l -0.132,-0.059 c 0,0 -0.237,0.018 -0.331,0.073 -0.096,0.055 -0.173,0.114 -0.173,0.114 v 0.216 c 0,0 -0.041,0.034 -0.045,0.073 0,0.041 -0.033,0.169 0.013,0.226 0.046,0.059 0.022,0.059 0.027,0.107 0,0.045 0.05,0.126 0.095,0.149 0.046,0.022 0.01,0.081 0.01,0.122 0,0.042 0.01,0.168 0.028,0.209 0.018,0.041 0.045,0.055 0.01,0.112 -0.042,0.059 -0.146,0.156 -0.097,0.201 0.051,0.045 0.101,0.118 0.064,0.185 -0.036,0.069 -0.054,0.079 -0.059,0.187 0,0.108 -0.081,0.834 -0.076,0.929 0,0.096 0.012,0.382 0.012,0.399 0,0.02 0.033,-0.004 0.046,0.024 0.013,0.027 -0.067,0.114 -0.077,0.136 -0.01,0.023 -0.014,0.187 0.01,0.226 0.018,0.041 0.045,0.069 0.031,0.104 -0.013,0.038 -0.04,0.077 -0.059,0.091 -0.017,0.014 -0.109,-0.15 -0.19,-0.254 -0.082,-0.104 -0.272,-0.299 -0.291,-0.348 -0.018,-0.052 -0.054,-0.181 -0.031,-0.219 0.023,-0.035 0.068,-0.149 -0.023,-0.195 -0.091,-0.045 -0.068,-0.023 -0.086,-0.108 -0.018,-0.087 -0.023,-0.268 -0.027,-0.333 0,-0.063 -0.068,-0.48 -0.087,-0.525 -0.018,-0.045 -0.149,-0.48 -0.149,-0.525 0,-0.046 -0.055,-0.382 -0.055,-0.418 0,-0.037 -0.027,-0.197 -0.027,-0.256 0,-0.057 -0.023,-0.212 -0.023,-0.261 0,-0.052 -0.017,-0.181 -0.01,-0.219 0.01,-0.035 0.01,-0.23 0.037,-0.317 0.031,-0.086 0.153,-0.309 0.158,-0.33 0,-0.024 0.023,-0.205 0.05,-0.209 0.028,-0.006 0.091,-0.082 0.109,-0.114 0.018,-0.031 0.096,-0.25 0.086,-0.295 -0.01,-0.045 0,-0.213 -0.035,-0.299 -0.033,-0.087 -0.191,-0.136 -0.191,-0.136 -0.055,-0.01 -0.278,-0.024 -0.427,0.049 -0.15,0.073 -0.295,0.201 -0.358,0.309 -0.063,0.108 -0.037,0.177 -0.063,0.23 -0.028,0.055 -0.046,0.177 -0.064,0.223 -0.019,0.045 -0.082,0.163 -0.113,0.2 -0.032,0.036 -0.059,0.042 -0.059,0.113 0,0.072 -0.014,0.228 -0.023,0.281 -0.01,0.055 0.013,0.11 0.018,0.132 0.01,0.023 -0.023,0.159 -0.018,0.177 0.01,0.018 0.05,0.049 0.05,0.077 0,0.027 -0.045,0.1 -0.045,0.118 0,0.018 0.018,0.177 0.026,0.205 0.01,0.027 -0.026,0.108 -0.064,0.163 -0.035,0.055 -0.076,0.063 -0.031,0.132 0.045,0.067 0.122,0.145 0.132,0.191 0.01,0.045 0.018,0.194 -0.014,0.326 -0.031,0.13 -0.054,0.738 -0.054,0.884 0,0.146 -0.014,0.195 0,0.236 0.013,0.041 0.036,0.049 0.036,0.067 0,0.02 0.022,0.228 0.018,0.268 0,0.041 -0.063,0.078 -0.063,0.118 0,0.041 0.027,0.177 0.04,0.208 0.014,0.034 0.082,0.111 0.086,0.16 0.01,0.051 -0.013,0.108 -0.027,0.145 -0.013,0.036 -0.182,0.654 -0.222,0.735 -0.04,0.082 -0.095,0.236 -0.109,0.281 -0.014,0.045 -0.032,0.514 -0.032,0.581 0,0.068 0.023,0.24 0.018,0.277 0,0.035 -0.213,0.14 -0.254,0.181 -0.04,0.041 -0.126,0.142 -0.14,0.177 -0.013,0.036 0.014,0.173 0.032,0.232 0.018,0.058 0.073,0.144 0.068,0.199 0,0.055 -0.01,0.132 0.026,0.219 0.038,0.084 0.128,0.261 0.132,0.326 l 0.058,0.5 v 0.362 l -0.015,0.252 c 0.026,0.133 0.052,0.473 0.052,0.473 l -0.142,0.094 -0.189,0.141 -0.299,0.173 -0.472,0.331 c 0,0 -0.231,0.232 -0.276,0.253 -0.045,0.024 -0.163,0.237 -0.173,0.264 -0.01,0.028 -0.049,0.259 -0.04,0.304 0.01,0.046 0.018,0.155 0.04,0.195 0.024,0.041 0.142,0.218 0.187,0.286 0.045,0.068 0.145,0.244 0.199,0.3 0.055,0.054 0.204,0.204 0.254,0.285 0.05,0.082 0.3,0.372 0.326,0.431 0.028,0.059 0.059,0.104 0.109,0.163 0.051,0.059 0.237,0.236 0.277,0.273 0.041,0.036 0.109,0.099 0.141,0.131 0.032,0.032 0.04,0.069 0.05,0.096 0.01,0.027 0.122,0.027 0.127,0.058 0.01,0.033 -0.032,0.113 -0.023,0.164 0.01,0.05 0.095,0.177 0.113,0.217 0.019,0.041 0.037,0.069 0.051,0.137 0.013,0.068 0.086,0.19 0.159,0.217 0.072,0.028 0.157,0.018 0.181,0.037 0.023,0.018 0.049,0.022 0.108,0.027 0.059,0.004 0.082,-0.022 0.142,-0.027 0.058,-0.005 0.235,0.005 0.262,-0.009 0.027,-0.014 0.281,-0.214 0.322,-0.236 0.042,-0.023 0.014,-0.042 0.063,0.009 0.051,0.05 0.064,0.036 0.073,0.063 0.01,0.028 -0.01,0.209 -0.01,0.227 0,0.018 -0.182,0 -0.217,0.014 -0.037,0.013 -0.177,0.045 -0.177,0.09 0,0.045 0.027,0.163 0.068,0.227 0.04,0.064 0.026,0.386 0.026,0.449 0,0.064 0.095,0.885 0.786,1.084 0.345,0.1 0.612,0.079 0.853,-0.117 0.199,-0.163 0.281,-0.495 0.345,-0.594 0.063,-0.1 0.112,-0.168 0.171,-0.201 0.059,-0.031 0.123,-0.09 0.078,-0.203 -0.045,-0.113 -0.182,-0.367 -0.277,-0.426 -0.095,-0.059 -0.114,-0.069 -0.114,-0.069 0,0 -0.01,-0.1 -0.04,-0.15 -0.032,-0.049 -0.054,-0.09 -0.068,-0.113 -0.014,-0.023 -0.023,-0.222 -0.031,-0.273 -0.01,-0.049 -0.059,-0.122 -0.096,-0.139 -0.036,-0.019 -0.145,-0.069 -0.182,-0.083 -0.035,-0.013 -0.059,-0.027 -0.077,-0.053 -0.017,-0.028 0,-0.092 0,-0.092 l 0.091,-0.005 0.049,-0.054 h 0.083 l 0.094,-0.109 0.077,-0.004 0.059,-0.073 0.064,0.005 c 0,0 0.345,-0.236 0.403,-0.267 0.06,-0.033 0.114,0 0.151,-0.068 0.035,-0.069 0.081,-0.228 0.091,-0.264 0.01,-0.036 0,-1.494 0.01,-1.558 0.01,-0.063 0.709,0.755 0.709,0.755 l 0.441,0.615 0.236,0.157 0.236,0.016 0.063,-0.299 -0.126,-0.504 -0.22,-0.394 -0.221,-0.362 -0.582,-1.228 z"
         id="path159459-5" />
      <path
         d="m 1047.9879,259.54687 5.0869,0.79057 v -0.0707 l -0.1593,-0.0243 -0.012,0.0181 -0.08,-0.0151 0.036,-0.22018 0.079,0.0102 -0.016,0.10079 0.1586,0.0254 0.01,-0.0149 0.1631,0.025 0.014,-0.0213 0.1099,0.0145 -0.016,0.0235 1.3489,0.20815 0.021,-0.0309 0.1075,0.0177 -0.02,0.0308 0.1979,0.03 -0.03,0.1851 1.69,0.26167 c 0.061,-0.0253 0.1573,-0.0759 0.359,-0.1015 0.1923,-0.0268 0.5897,-0.0814 0.8997,-0.12547 0.2469,-0.0365 0.439,-0.0623 0.439,-0.0623 l 0.079,0.0102 0.024,0.028 0.1661,0.0257 0.1724,0.13216 0.5597,0.43672 c 0,0 0.1347,0.11164 0.1011,0.32747 l -0.01,0.0105 c -0.031,0.21776 -0.1912,0.28544 -0.1912,0.28544 l -0.6646,0.24705 -0.2038,0.075 -0.1674,-0.0246 -0.047,0.004 -0.077,-0.0134 c 0,0 -0.1739,-0.0859 -0.3964,-0.19185 -0.2838,-0.13791 -0.6466,-0.31092 -0.8215,-0.39186 -0.1848,-0.0803 -0.2696,-0.15892 -0.3088,-0.2053 l -8.7052,-1.3514 z"
         id="G-Pf-2-8-2-69"
         style="stroke-width:1.68037" />
    </g>
  </g>
</svg>
