<?xml version="1.0" encoding="UTF-8" standalone="no"?>
<!-- Created with Inkscape (http://www.inkscape.org/) -->

<svg
   width="31.798298mm"
   height="6.2251668mm"
   viewBox="0 0 31.798298 6.2251668"
   version="1.1"
   id="svg26913"
   sodipodi:docname="inkporter-svg-7spwolrm.svg"
   xmlns:inkscape="http://www.inkscape.org/namespaces/inkscape"
   xmlns:sodipodi="http://sodipodi.sourceforge.net/DTD/sodipodi-0.dtd"
   xmlns="http://www.w3.org/2000/svg"
   xmlns:svg="http://www.w3.org/2000/svg">
  <sodipodi:namedview
     id="namedview26915"
     pagecolor="#ffffff"
     bordercolor="#666666"
     borderopacity="1.0"
     inkscape:pageshadow="2"
     inkscape:pageopacity="0.0"
     inkscape:pagecheckerboard="0"
     inkscape:document-units="mm"
     showgrid="false"
     inkscape:zoom="0.64052329"
     inkscape:cx="397.33138"
     inkscape:cy="561.25984"
     inkscape:window-width="1920"
     inkscape:window-height="1017"
     inkscape:window-x="-8"
     inkscape:window-y="-8"
     inkscape:window-maximized="1"
     inkscape:current-layer="layer1" />
  <defs
     id="defs26910" />
  <g
     inkscape:label="Layer 1"
     inkscape:groupmode="layer"
     id="layer1"
     transform="translate(-16.733675,-111.40927)">
    <g
       id="S-Infantry4-4s-Pf"
       transform="matrix(1.2834291,0,0,1.2834291,-274.76323,36.739289)">
      <g
         transform="matrix(0.29209109,0,0,-0.29209109,-18.826981,210.43633)"
         id="g5702-5-1-6-4">
        <path
           id="path30536-5-81-8-4-0"
           d="" />
        <path
           id="path26502-2-8-3-5-2"
           d="m 874.90759,515.91496 c -0.0156,0.14062 -0.0312,0.30468 -0.0234,0.39843 0.0195,0.1875 0.2461,0.52344 0.2461,0.52344 0,0 -0.29297,0.3125 -0.3125,0.40234 -0.0195,0.0937 -0.1836,0.50782 -0.1836,0.50782 0,0 -0.49609,0.0508 -0.39843,0.16406 0.0937,0.11328 0.1875,0.375 0.17578,0.50391 -0.0117,0.125 0.16015,0.96875 0.91406,1.01171 0.75,0.043 1.20703,-0.40625 1.30078,-0.93359 0.0508,-0.29297 0.1875,-0.37891 0.1875,-0.37891 0,0 -0.35547,-0.0351 -0.36719,-0.0898 -0.0234,-0.13281 -0.11328,-0.31641 -0.11328,-0.31641 0,0 0.86328,0.27344 1.32813,-0.125 0.46484,-0.40625 0.64844,-0.65234 0.75781,-0.84375 0.11328,-0.1875 0.67188,-0.98828 0.69531,-1.2539 0.0195,-0.26563 0.23438,-0.95703 0.1211,-1.12891 -0.11328,-0.17187 -0.0508,-0.34375 -0.0508,-0.34375 0,0 0.0703,-0.17969 0,-0.25781 -0.0742,-0.0742 0.25781,-0.44141 0.26562,-0.53125 0.008,-0.0937 0.21094,-0.28516 0.0781,-0.37891 -0.13282,-0.0937 0.35937,-1.1914 0.35937,-1.1914 0,0 -0.20703,0.008 -0.23828,-0.0664 -0.0273,-0.0703 0.49219,-1.21484 0.47266,-1.37891 -0.0234,-0.16406 -0.19532,-0.83203 -0.10547,-0.9375 0.0898,-0.10937 0.0312,-0.29687 0.11328,-0.29687 0.082,-0.008 0.21094,-0.13672 0.21094,-0.13672 0,0 1.04687,-1.31641 1.17968,-1.41016 0.13672,-0.0898 0.54297,-0.3125 0.54297,-0.3125 0,0 0.0703,-0.0508 0.082,-0.16796 0.0117,-0.11329 -0.10156,-0.42579 -0.125,-0.53125 -0.0273,-0.10938 -0.0898,-0.70704 -0.0976,-0.76563 -0.008,-0.0586 -0.5586,-0.26953 -0.73047,-0.30859 -0.16797,-0.0391 -0.39844,0.0351 -0.31641,0.17968 0.0781,0.14844 0.28125,0.375 0.27735,0.52344 0,0.15625 0.0664,0.46094 0.0234,0.52735 -0.0391,0.0664 -1.82031,1.28515 -1.82031,1.28515 l -0.0117,0.12891 c 0,0 -0.14453,0.0195 -0.23047,0.0937 -0.0898,0.0742 -0.58984,0.58203 -0.6289,0.73047 -0.0352,0.14843 -0.1875,0.40234 -0.30078,0.50781 -0.11329,0.10547 -0.70704,0.77734 -0.82813,0.8125 -0.11719,0.0352 -0.56641,-0.0273 -0.80078,-0.26953 -0.23438,-0.23828 -0.59766,-0.375 -0.625,-0.4375 -0.0312,-0.0586 -0.0937,-0.40235 -0.0547,-0.5625 0.0391,-0.16016 0.082,-0.17969 0.0781,-0.25 -0.004,-0.0703 -0.0469,-0.13281 0.004,-0.19922 0.0547,-0.0625 0.0859,-1.09766 0.11328,-1.38672 0.0234,-0.28906 -0.004,-0.90625 0.0352,-1.06641 0.0391,-0.15625 0.20313,-0.46093 0.21094,-0.52734 0.004,-0.0664 -0.0195,-0.24609 -0.0195,-0.24609 -0.0586,-0.35547 -0.0156,-0.3125 0,-0.35938 0.0156,-0.043 -0.21875,-0.16797 -0.33594,-0.16797 -0.11328,0.004 -0.53516,0.14063 -0.60547,0.16797 -0.0742,0.0312 -0.51172,-0.008 -0.71094,-0.0117 -0.19531,-0.008 -0.82422,0.22657 -0.9375,0.35547 -0.11718,0.13281 0.004,0.35938 0.23828,0.34375 0.23438,-0.0156 0.62891,-0.0156 0.70704,0.0156 0.0781,0.0312 0.51953,0.16406 0.48046,0.36718 -0.043,0.20704 -0.59765,2.4375 -0.57031,2.52344 0.0274,0.082 0.082,0.11328 0.082,0.11328 0,0 -0.26562,0.10157 -0.27343,0.1836 -0.004,0.082 -0.37891,1.16797 -0.14454,1.42187 0.23438,0.25 1.23829,1.64063 1.25391,1.73828 0.0156,0.0937 -0.13672,-0.0351 -0.0742,0.1875 0.0625,0.23047 0.35938,0.70703 0.31641,0.78516 -0.043,0.0781 -0.0937,-0.0195 -0.23047,-0.0312 -0.13672,-0.0117 -0.23828,0.0586 -0.25781,0.14062 -0.0195,0.082 -0.38282,0.94532 -0.38282,0.94532 l -0.53906,1.26562 c -0.008,-0.0117 -0.0195,-0.0273 -0.0312,-0.0508 -0.0273,-0.0508 0.0117,-0.10547 -0.0156,-0.125 -0.0234,-0.0156 -0.043,0.043 -0.0352,0.12109 0,0.0312 0.0195,0.0937 0.0391,0.15235 l -0.0234,0.0586 -0.0117,-0.0117 -0.0352,0.008 c 0,0 -0.22656,-0.39844 -0.52734,-0.72657 -0.30078,-0.32812 -0.8711,-0.73437 -0.8711,-0.73437 l -0.21093,0.36328 c 0,0 0.60937,0.48047 0.80859,0.68359 0.20312,0.20313 0.41016,0.56641 0.41016,0.56641 l 0.0391,0.11719 c 0,0 -0.0586,0.043 -0.0508,0.11718 0.008,0.0742 0.0195,0.1211 0.0195,0.1211 l -0.29688,0.10547 -0.12109,0.125 c 0,0 -1.86719,0.68359 -2.00781,0.73047 -0.14063,0.0469 -0.12891,0.13671 -0.14063,0.21875 -0.008,0.0781 0.0195,0.19531 0.0899,0.17187 l 0.4375,-0.15234 0.13281,0.004 0.0898,0.11719 0.17969,-0.0625 -0.0156,-0.16016 0.0547,-0.0703 2.5625,-0.88281 0.0156,0.043 0.082,-0.0274 -0.0195,-0.0547 z m 0,0" />
        <path
           d="m 872.03147,511.08402 -1.76054,4.51325 0.0641,0.0188 0.0543,-0.1416 -0.0135,-0.0146 0.0301,-0.0702 0.19493,0.0782 -0.0253,0.0703 -0.0894,-0.0354 -0.055,0.14072 0.0113,0.0122 -0.056,0.14466 0.0166,0.0167 -0.0358,0.0981 -0.018,-0.0195 -0.46547,1.197 0.0243,0.0256 -0.0383,0.0953 -0.0238,-0.0246 -0.0678,0.17573 -0.16397,-0.0651 -0.58404,1.49952 c 0.0108,0.0608 0.0373,0.1599 0.0205,0.35055 -0.0158,0.18169 -0.045,0.55841 -0.0673,0.8522 -0.0163,0.23435 -0.0323,0.41599 -0.0323,0.41599 l -0.0253,0.0704 -0.0305,0.0165 -0.0581,0.1471 -0.15607,0.1318 -0.51506,0.42551 c 0,0 -0.12998,0.101 -0.32136,0.0263 l -0.004,-0.005 c -0.19387,-0.0722 -0.22332,-0.23357 -0.22332,-0.23357 l -0.0919,-0.66087 -0.0271,-0.2025 0.0565,-0.14877 0.004,-0.0448 0.0276,-0.068 c 0,0 0.11193,-0.14407 0.25661,-0.32543 0.18417,-0.23293 0.41709,-0.53092 0.52712,-0.67509 0.11452,-0.15102 0.20099,-0.21533 0.25109,-0.24222 l 3.01153,-7.7238 z"
           id="G-Pf-2"
           style="stroke-width:1.58131" />
        <path
           d="m 862.75265,510.64202 -1.76054,4.51325 0.0641,0.0188 0.0543,-0.1416 -0.0135,-0.0146 0.0301,-0.0702 0.19493,0.0782 -0.0253,0.0703 -0.0894,-0.0354 -0.055,0.14072 0.0113,0.0122 -0.056,0.14466 0.0166,0.0167 -0.0358,0.0981 -0.018,-0.0195 -0.46547,1.197 0.0243,0.0256 -0.0383,0.0953 -0.0238,-0.0246 -0.0678,0.17573 -0.16397,-0.0651 -0.58404,1.49952 c 0.0108,0.0608 0.0373,0.1599 0.0205,0.35055 -0.0158,0.18169 -0.045,0.55841 -0.0673,0.8522 -0.0163,0.23435 -0.0323,0.41599 -0.0323,0.41599 l -0.0253,0.0704 -0.0305,0.0165 -0.0581,0.1471 -0.15607,0.1318 -0.51506,0.42551 c 0,0 -0.12998,0.101 -0.32136,0.0263 l -0.004,-0.005 c -0.19387,-0.0722 -0.22332,-0.23357 -0.22332,-0.23357 l -0.0919,-0.66087 -0.0271,-0.2025 0.0565,-0.14877 0.004,-0.0448 0.0276,-0.068 c 0,0 0.11193,-0.14407 0.25661,-0.32543 0.18417,-0.23293 0.41709,-0.53092 0.52712,-0.67509 0.11452,-0.15102 0.20099,-0.21533 0.25109,-0.24222 l 3.01153,-7.7238 z"
           id="G-Pf-2-81"
           style="stroke-width:1.58131" />
        <path
           d="m 867.92593,510.56842 1.21508,4.68961 0.063,-0.0223 -0.0389,-0.14659 -0.0195,-0.004 -0.0167,-0.0745 0.20381,-0.0507 0.0207,0.0718 -0.0932,0.0236 0.0378,0.14629 0.0163,0.003 0.0393,0.15006 0.0232,0.004 0.0284,0.10049 -0.026,-0.005 0.32344,1.24292 0.0347,0.007 0.0248,0.0997 -0.0337,-0.006 0.0479,0.18216 -0.17105,0.0432 0.40444,1.5576 c 0.0444,0.043 0.12385,0.10779 0.22185,0.27219 0.0936,0.15654 0.29045,0.47904 0.44437,0.73028 0.12399,0.19953 0.21736,0.35615 0.21736,0.35615 l 0.0207,0.0719 -0.0151,0.0312 0.039,0.15327 -0.0494,0.19822 -0.16844,0.64651 c 0,0 -0.0462,0.15798 -0.24512,0.20946 l -0.006,-0.002 c -0.19944,0.055 -0.3178,-0.0586 -0.3178,-0.0586 l -0.46141,-0.48196 -0.14053,-0.1483 -0.0413,-0.15369 -0.023,-0.0387 -0.0174,-0.0713 c 0,0 0.006,-0.18233 0.0175,-0.41406 0.0129,-0.29667 0.0273,-0.67461 0.0321,-0.85591 0.004,-0.18948 0.0369,-0.29224 0.0618,-0.34337 l -2.08056,-8.02482 z"
           id="G-Pf-2-8"
           style="stroke-width:1.58131" />
        <path
           d="m 925.45556,510.58852 -1.76054,4.51325 0.0641,0.0188 0.0543,-0.1416 -0.0135,-0.0146 0.0301,-0.0702 0.19493,0.0782 -0.0253,0.0703 -0.0894,-0.0354 -0.055,0.14072 0.0113,0.0122 -0.056,0.14466 0.0166,0.0167 -0.0358,0.0981 -0.018,-0.0195 -0.46547,1.197 0.0243,0.0256 -0.0383,0.0953 -0.0238,-0.0246 -0.0678,0.17573 -0.16397,-0.0651 -0.58404,1.49952 c 0.0108,0.0608 0.0373,0.1599 0.0205,0.35055 -0.0158,0.18169 -0.045,0.55841 -0.0673,0.8522 -0.0163,0.23435 -0.0323,0.41599 -0.0323,0.41599 l -0.0253,0.0704 -0.0305,0.0165 -0.0581,0.1471 -0.15607,0.1318 -0.51506,0.42551 c 0,0 -0.12998,0.101 -0.32136,0.0263 l -0.004,-0.005 c -0.19387,-0.0722 -0.22332,-0.23357 -0.22332,-0.23357 l -0.0919,-0.66087 -0.0271,-0.2025 0.0565,-0.14877 0.004,-0.0448 0.0276,-0.068 c 0,0 0.11193,-0.14407 0.25661,-0.32543 0.18417,-0.23293 0.41709,-0.53092 0.52712,-0.67509 0.11452,-0.15102 0.20099,-0.21533 0.25109,-0.24222 l 3.01153,-7.7238 z"
           id="G-Pf-2-3"
           style="stroke-width:1.58131" />
        <path
           d="m 921.35002,510.07292 1.21508,4.68961 0.063,-0.0223 -0.0389,-0.14659 -0.0195,-0.004 -0.0167,-0.0745 0.20381,-0.0507 0.0207,0.0718 -0.0932,0.0236 0.0378,0.14629 0.0163,0.003 0.0393,0.15006 0.0232,0.004 0.0284,0.10049 -0.026,-0.005 0.32344,1.24292 0.0347,0.007 0.0248,0.0997 -0.0337,-0.006 0.0479,0.18216 -0.17105,0.0432 0.40444,1.5576 c 0.0444,0.043 0.12385,0.10779 0.22185,0.27219 0.0936,0.15654 0.29045,0.47904 0.44437,0.73028 0.12399,0.19953 0.21736,0.35615 0.21736,0.35615 l 0.0207,0.0719 -0.0151,0.0312 0.039,0.15327 -0.0494,0.19822 -0.16844,0.64651 c 0,0 -0.0462,0.15798 -0.24512,0.20946 l -0.006,-0.002 c -0.19944,0.055 -0.3178,-0.0586 -0.3178,-0.0586 l -0.46141,-0.48196 -0.14053,-0.1483 -0.0413,-0.15369 -0.023,-0.0387 -0.0174,-0.0713 c 0,0 0.006,-0.18233 0.0175,-0.41406 0.0129,-0.29667 0.0273,-0.67461 0.0321,-0.85591 0.004,-0.18948 0.0369,-0.29224 0.0618,-0.34337 l -2.08056,-8.02482 z"
           id="G-Pf-2-8-2"
           style="stroke-width:1.58131" />
        <path
           d="m 898.15552,516.23165 -4.82852,-0.3928 3.7e-4,0.0668 0.15123,0.0114 0.0102,-0.0171 0.0758,0.009 -0.0191,0.20916 -0.0746,-0.004 0.008,-0.0958 -0.15059,-0.0124 -0.008,0.0144 -0.15464,-0.0122 -0.0114,0.0206 -0.10424,-0.006 0.0133,-0.0229 -1.2802,-0.10279 -0.018,0.0305 -0.10231,-0.009 0.0167,-0.0299 -0.18779,-0.0146 0.0154,-0.17575 -1.60402,-0.12965 c -0.0552,0.0278 -0.14249,0.0816 -0.32996,0.12013 -0.17859,0.037 -0.54786,0.11698 -0.83572,0.17983 -0.22919,0.0516 -0.40779,0.0883 -0.40779,0.0883 l -0.0747,-0.004 -0.0245,-0.0245 -0.15758,-0.0135 -0.17099,-0.11177 -0.55531,-0.37146 c 0,0 -0.13404,-0.0955 -0.11732,-0.30032 l 0.004,-0.005 c 0.0136,-0.20644 0.15974,-0.28092 0.15974,-0.28092 l 0.60678,-0.27749 0.18623,-0.084 0.15873,0.0115 0.0441,-0.009 0.0731,0.007 c 0,0 0.17024,0.0656 0.38533,0.15254 0.27597,0.10963 0.62821,0.24738 0.79788,0.31147 0.17765,0.066 0.2639,0.13085 0.30401,0.17116 l 8.26295,0.6709 z"
           id="G-Pf-2-8-2-6"
           style="stroke-width:1.58131" />
        <path
           d="m 866.55994,514.85636 c -0.0664,-0.0703 -0.24219,-0.23047 -0.42188,-0.16797 -0.22656,0.0781 -1.33203,0.57032 -1.48828,0.625 -0.16016,0.0586 -0.36328,0.0664 -0.42188,0.10547 -0.0625,0.0469 -0.0703,0.12891 -0.0703,0.12891 l -0.12109,0.10937 c -0.14844,-0.24218 -0.28516,-0.43359 -0.28516,-0.43359 l -0.3164,0.27734 c 0,0 0.13281,0.20703 0.27343,0.4336 l -0.0586,0.0469 0.28125,0.63281 0.14062,0.0508 c 0.0664,0.20703 0.10547,0.41406 0.10547,0.41406 v 0.12109 c 0,0 -0.0664,0.0195 -0.0859,0.0937 -0.0195,0.0742 -0.0195,0.125 -0.0195,0.125 h -0.3164 l -0.15632,0.0742 c 0,0 -1.98828,0.043 -2.13672,0.043 -0.14844,0 -0.16406,0.082 -0.19922,0.15625 -0.0352,0.0742 -0.0469,0.19531 0.0234,0.19531 h 0.46484 l 0.1211,0.0469 0.0547,0.13672 h 0.1875 l 0.0391,-0.15625 0.0703,-0.0469 h 2.6289 l 0.21875,0.33984 c 0,0 0.004,0.004 0.008,0.004 l 0.004,0.0156 -0.13672,0.28906 -0.5,0.0234 c 0,0 0.27344,0.1875 0.35547,0.66015 0.082,0.47266 0.47266,1.12891 1.41797,1.01172 0.94141,-0.12109 1.13281,-1.16406 1.13281,-1.16406 0,0 0.008,-0.21094 0.0469,-0.28125 0.0352,-0.0742 0.14453,-0.20703 0.14453,-0.20703 l -0.30078,-0.0859 -0.0547,-0.33594 c 0,0 0.54688,0.17188 1.34375,-0.22656 0.80078,-0.39844 1.08985,-0.58203 1.49219,-1.41016 0.39844,-0.82422 0.42578,-0.80468 0.42578,-0.80468 l -0.13672,-0.53516 0.1836,-0.24609 0.59765,-0.60157 0.12891,-0.34375 -0.47266,-0.26562 c 0,0 0.3086,-0.59766 0.3711,-0.72656 0.0625,-0.125 0.10156,-0.48047 0.10156,-0.48047 l -0.32813,-0.33594 c 0,0 0.19141,-0.79688 0.16407,-1.43359 -0.0274,-0.63672 -0.27344,-0.94532 -0.27344,-0.94532 0,0 -0.0352,-0.7539 -0.082,-0.88281 -0.043,-0.125 -0.10938,-0.24219 -0.10938,-0.24219 l 0.0547,-0.64453 0.0352,-0.0859 c 0,0 0.18359,-0.0312 0.23828,-0.19921 0.0547,-0.16016 0.58203,-2.64844 0.58203,-2.64844 l -0.50781,-0.22266 -0.0742,0.14844 c 0,0 -0.27344,-0.24609 -0.35547,-0.25391 -0.082,-0.0117 -1.01563,-0.13672 -1.0625,-0.0742 -0.13281,0.1875 -0.0156,0.36719 0.21875,0.41797 0.61719,0.13672 0.7539,0.42578 0.77344,0.58203 0.0117,0.10938 -0.75391,1.32422 -0.75391,1.32422 0,0 -0.41797,0.82032 -0.41016,0.92578 0.0117,0.11329 -0.71875,0.7461 -0.71875,1.08204 0,0.33593 -0.21484,1.41015 -0.21484,1.41015 0,0 -0.49219,-0.42578 -0.73828,-0.45312 -0.24219,-0.0312 -0.5625,-0.12891 -0.76172,-0.44922 -0.19922,-0.31641 0.13672,-0.46094 0.20703,-0.66016 0.0742,-0.19922 0.29297,-1.52734 0.375,-1.79687 0.082,-0.27344 0.37891,-1.13672 0.37891,-1.13672 l -0.50782,-0.3086 -0.15234,0.043 c 0,0 -0.0937,-0.11718 -0.16406,-0.17187 -0.0742,-0.0547 -0.65625,-0.32422 -0.65625,-0.32422 0,0 -0.64453,0 -0.69922,0.008 -0.0508,0.008 -0.082,0.39844 0.26562,0.42578 0.34375,0.0274 0.5,0.16407 0.5,0.16407 l 0.26172,0.76171 c 0,0 -0.17968,0.8086 -0.42578,1.1211 -0.24609,0.30469 -0.60937,1.09765 -0.60937,1.09765 l 0.0195,0.13672 c 0,0 -0.39844,0.33594 -0.41016,0.57032 -0.008,0.23437 -0.0351,0.48828 -0.0351,0.48828 l 0.0898,0.1914 c 0,0 0.625,1 0.65234,1.0625 0.0274,0.0664 0.21094,0.21094 0.23828,0.35547 0.0274,0.14453 0.26172,0.41797 0.31641,0.4375 0.0547,0.0195 0.25391,0.125 0.21875,0.21485 -0.0352,0.0937 0,0.1914 0,0.1914 0,0 0.125,0.45313 0.22656,0.58985 0.10157,0.13671 0.0547,0.18359 0.10157,0.32031 0.0312,0.0976 0.0391,0.17578 0.043,0.21094 l 0.17969,0.25 z m -2.05469,1.82031 c 0.0508,-0.0156 0.0898,-0.0351 0.10937,-0.0625 0.0664,-0.082 0.17969,-0.1875 0.17969,-0.1875 l 0.76172,-0.0351 c 0,0 -0.0469,0.40234 0.0117,0.55078 0.0547,0.14844 0.004,0.20312 -0.16016,0.19922 -0.0625,0 -0.13281,0.0117 -0.19531,0.0273 l -0.44531,0.008 v -0.17968 c 0,0 -0.0156,-0.0391 -0.0234,-0.10157 -0.008,-0.0586 0.043,-0.0937 0.0234,-0.12109 -0.0195,-0.0234 -0.0547,0.0273 -0.0742,0.0977 -0.0156,0.0742 -0.008,0.3164 -0.008,0.3164 l -0.0508,-0.125 -0.0391,-0.004 c 0,0 -0.0273,-0.16407 -0.0898,-0.38282"
           id="path26504-2-6-1-0-6" />
        <path
           d="m 856.42322,505.59464 c 0.34375,0.0274 0.5,0.16407 0.5,0.16407 l 0.26172,0.76171 c 0,0 -0.17969,0.8086 -0.42579,1.11719 -0.24609,0.3086 -0.60937,1.09766 -0.60937,1.09766 l 0.0195,0.13672 c 0,0 -0.40234,0.33593 -0.41016,0.57422 -0.008,0.23437 -0.0391,0.48828 -0.0391,0.48828 l 0.0937,0.1914 c 0,0 0.625,1 0.65235,1.0625 0.0273,0.0625 0.21093,0.21094 0.23828,0.35547 0.0273,0.14844 0.26172,0.41797 0.3164,0.4375 0.0547,0.0156 0.25391,0.125 0.21875,0.21485 -0.0351,0.0937 0,0.1914 0,0.1914 0,0 0.12891,0.45703 0.22657,0.58985 0.0976,0.13671 0.0547,0.18359 0.0976,0.32031 0.0469,0.13281 0.0469,0.23437 0.0469,0.23437 0,0 -0.51563,0.0547 -0.76172,-0.008 -0.2461,-0.0625 -0.48047,-0.0703 -0.60938,-0.0469 -0.125,0.0273 -0.0625,0.11718 -0.37109,0.0195 -0.30859,-0.10157 -0.44531,-0.0547 -0.44531,-0.0547 l -0.0625,0.125 c 0,0 -0.0547,0.0547 -0.32813,-0.125 -0.27344,-0.18359 -0.5625,-0.19922 -0.6914,-0.19141 -0.125,0.008 -0.55079,0.51953 -0.55079,0.5625 0,0.0469 0.31641,0.88282 0.31641,0.88282 l 0.0273,0.45703 -2.2539,-0.2461 -0.16016,0.40625 0.33203,0.0547 0.0195,0.28125 0.38282,0.0352 0.13672,-0.21485 3.67578,0.4961 c 0,0 -0.0977,0.53515 -0.0352,0.77343 0.0625,0.23438 0.28906,0.57032 0.28906,0.57032 0,0 -0.44531,-0.0899 -0.53515,0.0195 -0.0899,0.10937 -0.11719,0.3164 -0.11719,0.3164 l -0.19141,0.2461 c 0,0 -0.11718,0.0469 -0.1289,0.10937 -0.008,0.0625 0.0117,0.22657 0.0117,0.22657 l -0.13672,0.28906 -0.5,0.0195 c 0,0 0.27343,0.19141 0.35547,0.66406 0.082,0.47266 0.47265,1.12891 1.41406,1.00781 0.94531,-0.11718 1.13672,-1.16406 1.13672,-1.16406 0,0 0.008,-0.20703 0.0469,-0.28125 0.0352,-0.0703 0.14453,-0.20703 0.14453,-0.20703 l -0.30078,-0.082 -0.0547,-0.33594 c 0,0 0.54688,0.17188 1.34375,-0.22656 0.80079,-0.40234 1.08985,-0.58203 1.49219,-1.41016 0.39844,-0.82422 0.42578,-0.80468 0.42578,-0.80468 l -0.13672,-0.53516 0.1836,-0.24609 0.59765,-0.60157 0.12891,-0.34375 -0.47266,-0.26172 c 0,0 0.3086,-0.60156 0.3711,-0.73046 0.0625,-0.125 0.10156,-0.48047 0.10156,-0.48047 l -0.32812,-0.33594 c 0,0 0.1914,-0.79688 0.16406,-1.43359 -0.0274,-0.63672 -0.27344,-0.94532 -0.27344,-0.94532 0,0 -0.0352,-0.7539 -0.082,-0.88281 -0.043,-0.125 -0.10938,-0.24609 -0.10938,-0.24609 l 0.0547,-0.64063 0.0352,-0.0859 c 0,0 0.18359,-0.0351 0.23828,-0.19921 0.0547,-0.16407 0.58203,-2.64844 0.58203,-2.64844 l -0.50781,-0.21875 -0.0742,0.14453 c 0,0 -0.27344,-0.24609 -0.35547,-0.25781 -0.082,-0.004 -1.01562,-0.13282 -1.0625,-0.0703 -0.13281,0.1875 -0.0156,0.36719 0.21875,0.41797 0.61719,0.13672 0.75391,0.42969 0.77344,0.58203 0.0117,0.10547 -0.75391,1.32422 -0.75391,1.32422 0,0 -0.41797,0.81641 -0.41015,0.92578 0.008,0.11329 -0.71875,0.7461 -0.71875,1.08204 0,0.33593 -0.21485,1.40625 -0.21485,1.40625 0,0 -0.49219,-0.42579 -0.73828,-0.45313 -0.24609,-0.0273 -0.5625,-0.125 -0.76172,-0.44531 -0.19922,-0.31641 0.13672,-0.46485 0.20703,-0.66016 0.0742,-0.20312 0.29297,-1.52734 0.375,-1.80078 0.0781,-0.27344 0.37891,-1.13281 0.37891,-1.13281 l -0.50781,-0.3086 -0.15625,0.043 c 0,0 -0.0899,-0.11718 -0.16016,-0.17187 -0.0742,-0.0547 -0.65625,-0.32813 -0.65625,-0.32813 0,0 -0.64453,0 -0.69922,0.0117 -0.0508,0.008 -0.082,0.39844 0.26563,0.42578 m -1.2461,8.91016 0.10938,-0.0625 c 0,0 0.26172,0.043 0.62109,0.10937 0.35156,0.0625 0.625,0.1875 0.625,0.1875 l -0.42578,0.27344 -0.10937,0.16406 -0.89454,-0.082 c 0,0 0.10157,-0.38281 0.0742,-0.58984"
           id="path26506-7-0-7-4-4" />
        <path
           d="m 854.09509,507.14152 c 0.17969,0.0547 0.33203,0.0742 0.39063,0.0742 0.10156,0 0.11718,-0.0117 0.11718,-0.0117 l 0.29688,0.0273 0.0156,-0.60547 -0.0742,-0.11328 0.0898,-0.46094 c 0,0 0.0234,-0.88671 -0.004,-1.14453 -0.0273,-0.26172 -1.13672,-0.10547 -1.13672,-0.10547 0,0 -0.082,0.27344 0.0352,0.33985 0.0937,0.0547 0.39453,-0.0234 0.43359,0.23047 -0.0391,0.17968 -0.0664,0.3164 -0.0742,0.33203 -0.0274,0.043 -0.0352,0.1914 -0.0742,0.15625 -0.043,-0.0312 -0.10547,0.0469 -0.1875,0.0742 -0.0508,0.0195 -0.125,-0.0274 -0.17188,-0.0625 l -0.004,-0.0117 c 0,0 -1.30079,-0.90625 -1.76954,-1.04297 -0.28515,-0.082 -0.69531,-0.10938 -1,-0.10547 l 0.004,-0.0117 -0.73437,-0.0156 -0.11329,0.0742 -0.46093,-0.0859 c 0,0 -1.38282,-0.0274 -1.64063,0 -0.26172,0.0273 -0.082,0.10156 -0.082,0.10156 0,0 0.0117,0.24609 0.14063,0.33984 0.1289,0.10157 1.1914,0.27735 1.23437,0.30469 0.043,0.0274 0.19141,0.0312 0.15625,0.0742 -0.0312,0.0391 0.0469,0.10156 0.0781,0.18359 0.0273,0.0859 -0.10547,0.21875 -0.10547,0.21875 l -0.0312,0.0547 h -0.004 c -0.22656,0.40235 -0.92578,1.41016 -1,1.52735 -0.0703,0.11718 -0.32422,0.39453 -0.32422,0.39453 0,0 -0.14062,-0.17188 -0.36719,-0.15235 -0.22265,0.0195 -0.46875,0.15235 -0.5,0.13282 -0.0391,-0.0156 -0.17187,-0.125 -0.24609,-0.11329 -0.0703,0.008 -0.1875,0.17579 -0.1875,0.17579 l -0.28906,-0.0899 -0.89844,-0.23047 2.51563,1.74219 0.26171,0.20703 c 0,0 -0.44921,-0.0351 -0.9414,-0.20703 -0.4961,-0.17187 -0.92578,-0.39453 -1.58203,-0.39453 -0.65625,0 -1.92188,-0.14453 -1.92188,-0.14453 l -0.0351,0.13281 c 0,0 -0.95313,-0.21484 -1.125,-0.17969 -0.17188,0.0391 -0.6836,0.31641 -0.69922,0.35938 -0.0195,0.0469 -0.125,0.3164 0.0703,0.49609 0.19922,0.17969 0.90625,0.21485 0.97266,0.20703 0.0586,-0.008 0.11328,-0.0195 0.11328,-0.0195 l 0.10937,0.15235 0.51172,-0.14063 c 0,0 1.34766,0.27734 1.53906,0.375 0.1875,0.0977 0.32032,0.20703 0.36719,0.17969 0.043,-0.0274 0.125,-0.0899 0.125,-0.0899 0,0 0.56641,0.27735 0.64844,0.30469 0.0781,0.0274 0.20312,0.2461 0.20312,0.2461 0,0 -0.23437,0.20312 -0.29687,0.32812 -0.0625,0.12891 -0.10547,0.21484 -0.23047,0.29688 -0.125,0.082 -0.28906,0.4414 -0.29688,0.49609 -0.008,0.0547 -0.13671,0.008 -0.19921,0.0547 -0.0625,0.043 -0.25782,0.40234 -0.25782,0.53125 0,0.125 0.35547,0.47656 0.41407,0.54297 0.0508,0.0742 0.25781,0.27343 0.40234,0.28906 0.14453,0.0195 0.15234,0.10156 0.30469,0.15234 0.15234,0.0547 0.42187,0.12891 0.49609,0.12891 0.0703,0 0.008,-0.0742 0.22266,-0.0274 0.21484,0.043 0.33203,-0.0469 0.40625,-0.22656 0.0703,-0.17969 0.26562,-0.44922 0.30468,-0.51172 0.0352,-0.0625 0.0274,-0.1875 0.0274,-0.1875 0,0 0.0703,-0.15234 0.0703,-0.29687 0,-0.14453 0.0469,-0.40625 0.0469,-0.40625 0,0 0.35546,0.20703 0.52734,0.23437 0.17187,0.0274 0.60156,0.0547 0.68359,0.0352 0.082,-0.0156 0.15235,0.0547 0.0195,0.13672 -0.13671,0.082 -0.35156,0.20703 -0.35156,0.25 0,0.0469 0.10547,0.2539 0.23438,0.26172 0.125,0.008 0.23047,-0.0274 0.42187,0.082 0.1875,0.10937 0.47656,0.16797 0.47656,0.0859 0,-0.0781 -0.0469,-0.16797 -0.0469,-0.25 0,-0.0781 0.0352,-0.41407 0.10937,-0.4375 0.0703,-0.0274 0.91407,0 1.32813,-0.3086 0.41406,-0.30469 0.71094,-0.42969 0.87109,-0.57422 0.16407,-0.14453 0.58594,-1.21093 0.59375,-1.35547 0.0117,-0.14453 -0.13672,-0.5664 -0.13672,-0.5664 0,0 0.71875,-1.14844 0.88282,-1.40235 0.14453,-0.22265 0.35547,-0.7539 0.32812,-1.03515 m -3.38273,-0.27331 c -0.35938,0.0898 -0.65625,0.16016 -0.65625,0.16016 l 0.23828,-0.53516 c 0.10938,0.10156 0.25781,0.23047 0.41797,0.375"
           id="path26508-3-9-2-1-7" />
        <path
           d="m 851.32556,509.67667 c -0.17187,0.23829 -0.25391,0.65235 -0.53125,0.51563 -0.27344,-0.14453 -1.38672,-0.69141 -1.44922,-0.72266 -0.0664,-0.0312 -0.125,-0.0859 -0.1875,-0.16406 -0.0586,-0.0781 -0.26172,-0.25781 -0.55469,-0.27734 -0.29296,-0.0156 -0.53515,0.0273 -0.53515,0.0273 0,0 -0.11719,0.10938 -0.23438,0.0312 -0.12109,-0.0781 -0.41797,-0.26953 -0.41797,-0.26953 l 0.0195,-0.0273 -0.0547,-0.0352 -0.0469,0.0703 c 0,0 -0.082,-0.0547 -0.10156,-0.0664 -0.0234,-0.0117 -0.125,0.0273 -0.125,0.0273 l -0.0547,-0.0352 c 0,0 0.0195,-0.0703 -0.008,-0.0859 -0.0273,-0.0195 -0.13281,-0.0899 -0.13281,-0.0899 l 0.0391,-0.0586 -0.25781,-0.16797 -0.0312,0.0547 -0.0703,-0.0508 0.0234,-0.0352 -2.27343,-1.47656 h -0.0899 l -0.11719,0.10937 -0.15625,-0.10156 0.0312,-0.14453 -0.0781,-0.10938 c 0,0 -0.32422,-0.21093 -0.38672,-0.25 -0.0625,-0.043 0.0156,-0.13281 0.082,-0.17578 0.0703,-0.043 0.12891,-0.10547 0.25391,-0.0234 0.125,0.082 1.8164,1.12891 1.8164,1.12891 l 0.17188,0.0195 0.26562,0.17188 c 0,0 0.0274,-0.0391 0.082,-0.0899 0.0586,-0.0508 0.125,-0.0351 0.125,-0.0351 l 0.0664,-0.10157 c 0,0 0.16016,-0.38671 0.19531,-0.66796 0.0352,-0.28125 0.043,-1.0586 0.043,-1.0586 l 0.41407,-0.0586 c 0,0 0.0312,0.69922 -0.043,1.14062 -0.0742,0.4375 -0.25,0.85938 -0.25,0.85938 l 0.0312,0.0234 -0.0274,0.13281 c 0,0 0.125,-0.20703 0.1836,-0.26172 0.0547,-0.0508 0.11328,-0.0742 0.11328,-0.043 0.004,0.0352 -0.0625,0.0352 -0.0859,0.0937 -0.0273,0.0547 -0.0352,0.0937 -0.0352,0.0937 l -0.0976,0.15234 0.66797,0.41407 c 0,0 0.0664,-0.008 0.11718,0.0117 0.0547,0.0195 0.19922,0.12109 0.20704,0.125 0.0117,0.004 0.0469,0.0312 0.0469,0.0312 l -0.004,0.0625 0.0977,0.0586 0.0195,-0.0273 c 0,0 0.0899,-0.0312 0.0937,-0.0859 0.004,-0.0586 -0.0156,-0.11328 -0.0156,-0.11328 0,0 0.0625,0.008 0.0742,0.0781 0.0117,0.0742 -0.0586,0.13281 -0.0586,0.1875 0,0.0547 0.0664,0.0625 0.0664,0.0625 0,0 0.32812,0.1836 0.61328,0.15235 0.28516,-0.0352 0.53516,-0.11329 0.61719,-0.0781 0.082,0.0312 0.13672,0.17969 0.3125,0.1875 0.17187,0.008 0.66406,0.082 1.08984,0.21094 0.42578,0.1289 0.80859,0.26953 0.75,0.39453 -0.0586,0.12891 -0.21875,0.35937 -0.21875,0.35937"
           id="path26510-0-2-9-2-3" />
        <path
           d="m 911.10375,515.91496 c -0.0195,0.14062 -0.0312,0.30468 -0.0234,0.39843 0.0195,0.1875 0.24609,0.52344 0.24609,0.52344 0,0 -0.29297,0.3125 -0.3125,0.40234 -0.0195,0.0937 -0.1875,0.50782 -0.1875,0.50782 0,0 -0.49219,0.0508 -0.39844,0.16406 0.0977,0.11328 0.1875,0.375 0.17969,0.50391 -0.0156,0.125 0.16016,0.96875 0.91016,1.01171 0.7539,0.043 1.21093,-0.40625 1.30468,-0.93359 0.0508,-0.29297 0.1836,-0.37891 0.1836,-0.37891 0,0 -0.35156,-0.0351 -0.36328,-0.0898 -0.0274,-0.13281 -0.11328,-0.31641 -0.11328,-0.31641 0,0 0.86328,0.27344 1.32421,-0.125 0.46875,-0.40625 0.65235,-0.65234 0.76172,-0.84375 0.11328,-0.1875 0.66797,-0.98828 0.69141,-1.2539 0.0234,-0.26563 0.23828,-0.95703 0.125,-1.12891 -0.11328,-0.17187 -0.0547,-0.34375 -0.0547,-0.34375 0,0 0.0742,-0.17969 0,-0.25781 -0.0742,-0.0742 0.26172,-0.44141 0.26953,-0.53125 0.008,-0.0937 0.21094,-0.28516 0.0781,-0.37891 -0.13281,-0.0937 0.35937,-1.1914 0.35937,-1.1914 0,0 -0.20703,0.008 -0.23828,-0.0664 -0.0273,-0.0703 0.49219,-1.21484 0.47266,-1.37891 -0.0234,-0.16406 -0.19531,-0.83203 -0.10547,-0.9375 0.0898,-0.10937 0.0312,-0.29687 0.11328,-0.29687 0.082,-0.008 0.21094,-0.13672 0.21094,-0.13672 0,0 1.04297,-1.31641 1.17969,-1.41016 0.13671,-0.0898 0.54296,-0.3125 0.54296,-0.3125 0,0 0.0703,-0.0508 0.082,-0.16796 0.008,-0.11329 -0.10157,-0.42579 -0.125,-0.53125 -0.0274,-0.10938 -0.0937,-0.70704 -0.0977,-0.76563 -0.008,-0.0586 -0.55859,-0.26953 -0.73047,-0.30859 -0.17187,-0.0391 -0.39844,0.0351 -0.31641,0.17968 0.0781,0.14844 0.27735,0.375 0.27735,0.52344 0,0.15625 0.0664,0.46094 0.0234,0.52735 -0.0391,0.0664 -1.82422,1.28515 -1.82422,1.28515 l -0.0117,0.12891 c 0,0 -0.14063,0.0195 -0.22656,0.0937 -0.0899,0.0742 -0.59375,0.58203 -0.62891,0.73047 -0.0352,0.14843 -0.1875,0.40234 -0.30078,0.50781 -0.11328,0.10547 -0.70703,0.77734 -0.82813,0.8125 -0.11718,0.0352 -0.5664,-0.0273 -0.80078,-0.26953 -0.23437,-0.23828 -0.59765,-0.375 -0.6289,-0.4375 -0.0274,-0.0586 -0.0899,-0.40235 -0.0508,-0.5625 0.0352,-0.16016 0.0859,-0.17969 0.0781,-0.25 -0.004,-0.0703 -0.0469,-0.13281 0.008,-0.19922 0.0508,-0.0625 0.082,-1.09766 0.10547,-1.38672 0.0273,-0.28906 0,-0.90625 0.0352,-1.06641 0.0391,-0.15625 0.20703,-0.46093 0.21093,-0.52734 0.008,-0.0664 -0.0156,-0.24609 -0.0156,-0.24609 -0.0586,-0.35547 -0.0156,-0.3125 0,-0.35938 0.0156,-0.043 -0.21875,-0.16797 -0.33594,-0.16797 -0.11719,0.004 -0.53515,0.14063 -0.60937,0.16797 -0.0703,0.0312 -0.50782,-0.008 -0.70703,-0.0117 -0.19532,-0.008 -0.82422,0.22657 -0.9375,0.35547 -0.11719,0.13281 0,0.35938 0.23437,0.34375 0.23438,-0.0156 0.63281,-0.0156 0.71094,0.0156 0.0781,0.0312 0.51953,0.16406 0.47656,0.36718 -0.0391,0.20704 -0.59375,2.4375 -0.56641,2.52344 0.0274,0.082 0.082,0.11328 0.082,0.11328 0,0 -0.26563,0.10157 -0.27344,0.1836 -0.004,0.082 -0.37891,1.16797 -0.14453,1.42187 0.23047,0.25 1.23828,1.64063 1.2539,1.73828 0.0156,0.0937 -0.13672,-0.0351 -0.0742,0.1875 0.0586,0.23047 0.35938,0.70703 0.31641,0.78516 -0.043,0.0781 -0.0937,-0.0195 -0.23047,-0.0312 -0.14062,-0.0117 -0.23828,0.0586 -0.25781,0.14062 -0.0195,0.082 -0.38672,0.94532 -0.38672,0.94532 l -0.53516,1.26562 c -0.008,-0.0117 -0.0195,-0.0273 -0.0312,-0.0508 -0.0273,-0.0508 0.0117,-0.10547 -0.0156,-0.125 -0.0273,-0.0156 -0.043,0.043 -0.0391,0.12109 0.004,0.0312 0.0234,0.0937 0.043,0.15235 l -0.0234,0.0586 -0.0117,-0.0117 -0.0391,0.008 c 0,0 -0.22266,-0.39844 -0.52344,-0.72657 -0.30078,-0.32812 -0.87109,-0.73437 -0.87109,-0.73437 l -0.21094,0.36328 c 0,0 0.60937,0.48047 0.80859,0.68359 0.19922,0.20313 0.40625,0.56641 0.40625,0.56641 l 0.043,0.11719 c 0,0 -0.0586,0.043 -0.0508,0.11718 0.004,0.0742 0.0195,0.1211 0.0195,0.1211 l -0.29687,0.10547 -0.125,0.125 c 0,0 -1.86329,0.68359 -2.00391,0.73047 -0.14453,0.0469 -0.12891,0.13671 -0.14063,0.21875 -0.008,0.0781 0.0195,0.19531 0.0859,0.17187 l 0.44141,-0.15234 0.1289,0.004 0.0937,0.11719 0.17969,-0.0625 -0.0156,-0.16016 0.0547,-0.0703 2.5625,-0.88281 0.0156,0.043 0.082,-0.0274 -0.0195,-0.0547 z m 0,0"
           id="path26512-9-64-7-5-0" />
        <path
           d="m 902.7561,514.85636 c -0.0664,-0.0703 -0.24219,-0.23047 -0.42188,-0.16797 -0.22656,0.0781 -1.33203,0.57032 -1.49218,0.625 -0.15625,0.0586 -0.35938,0.0664 -0.42188,0.10547 -0.0586,0.0469 -0.0664,0.12891 -0.0664,0.12891 l -0.12109,0.10937 c -0.14844,-0.24218 -0.28516,-0.43359 -0.28516,-0.43359 l -0.3164,0.27734 c 0,0 0.13281,0.20703 0.26953,0.4336 l -0.0547,0.0469 0.28125,0.63281 0.14063,0.0508 c 0.0664,0.20703 0.10547,0.41406 0.10547,0.41406 v 0.12109 c 0,0 -0.0664,0.0195 -0.0859,0.0937 -0.0195,0.0742 -0.0195,0.125 -0.0195,0.125 h -0.32032 l -0.15241,0.0742 c 0,0 -1.98828,0.043 -2.13672,0.043 -0.14844,0 -0.16406,0.082 -0.19922,0.15625 -0.0351,0.0742 -0.0508,0.19531 0.0234,0.19531 h 0.46094 l 0.125,0.0469 0.0547,0.13672 h 0.18359 l 0.043,-0.15625 0.0703,-0.0469 h 2.625 l 0.22266,0.33984 c 0,0 0.004,0.004 0.008,0.004 l 0.004,0.0156 -0.13672,0.28906 -0.5,0.0234 c 0,0 0.27343,0.1875 0.35547,0.66015 0.082,0.47266 0.47265,1.12891 1.41796,1.01172 0.94141,-0.12109 1.13282,-1.16406 1.13282,-1.16406 0,0 0.008,-0.21094 0.0469,-0.28125 0.0352,-0.0742 0.14453,-0.20703 0.14453,-0.20703 l -0.30078,-0.0859 -0.0547,-0.33594 c 0,0 0.54688,0.17188 1.34375,-0.22656 0.80079,-0.39844 1.08985,-0.58203 1.49219,-1.41016 0.39844,-0.82422 0.42578,-0.80468 0.42578,-0.80468 l -0.13672,-0.53516 0.17969,-0.24609 0.60156,-0.60157 0.12891,-0.34375 -0.47266,-0.26562 c 0,0 0.3086,-0.59766 0.3711,-0.72656 0.0625,-0.125 0.10156,-0.48047 0.10156,-0.48047 l -0.32812,-0.33594 c 0,0 0.1914,-0.79688 0.16406,-1.43359 -0.0274,-0.63672 -0.27344,-0.94532 -0.27344,-0.94532 0,0 -0.0352,-0.7539 -0.082,-0.88281 -0.043,-0.125 -0.10938,-0.24219 -0.10938,-0.24219 l 0.0547,-0.64453 0.0352,-0.0859 c 0,0 0.18359,-0.0312 0.23828,-0.19921 0.0547,-0.16016 0.57812,-2.64844 0.57812,-2.64844 l -0.50781,-0.22266 -0.0703,0.14844 c 0,0 -0.27344,-0.24609 -0.35547,-0.25391 -0.082,-0.0117 -1.01562,-0.13672 -1.0625,-0.0742 -0.13281,0.1875 -0.0156,0.36719 0.21875,0.41797 0.61719,0.13672 0.75391,0.42578 0.76953,0.58203 0.0156,0.10938 -0.7539,1.32422 -0.7539,1.32422 0,0 -0.41797,0.82032 -0.40625,0.92578 0.0117,0.11329 -0.71875,0.7461 -0.71875,1.08204 0,0.33593 -0.21485,1.41015 -0.21485,1.41015 0,0 -0.49219,-0.42578 -0.73828,-0.45312 -0.24609,-0.0312 -0.5625,-0.12891 -0.76172,-0.44922 -0.19922,-0.31641 0.13672,-0.46094 0.20703,-0.66016 0.0742,-0.19922 0.29297,-1.52734 0.375,-1.79687 0.082,-0.27344 0.37891,-1.13672 0.37891,-1.13672 l -0.50781,-0.3086 -0.15235,0.043 c 0,0 -0.0937,-0.11718 -0.16406,-0.17187 -0.0742,-0.0547 -0.65625,-0.32422 -0.65625,-0.32422 0,0 -0.64453,0 -0.69922,0.008 -0.0547,0.008 -0.082,0.39844 0.26563,0.42578 0.34375,0.0274 0.5,0.16407 0.5,0.16407 l 0.26172,0.76171 c 0,0 -0.1836,0.8086 -0.42579,1.1211 -0.24609,0.30469 -0.60937,1.09765 -0.60937,1.09765 l 0.0195,0.13672 c 0,0 -0.40234,0.33594 -0.41016,0.57032 -0.008,0.23437 -0.0351,0.48828 -0.0351,0.48828 l 0.0898,0.1914 c 0,0 0.625,1 0.65235,1.0625 0.0273,0.0664 0.21093,0.21094 0.23828,0.35547 0.0273,0.14453 0.26172,0.41797 0.3164,0.4375 0.0547,0.0195 0.25391,0.125 0.21875,0.21485 -0.0351,0.0937 0,0.1914 0,0.1914 0,0 0.125,0.45313 0.22657,0.58985 0.10156,0.13671 0.0547,0.18359 0.10156,0.32031 0.0312,0.0976 0.0391,0.17578 0.043,0.21094 l 0.17968,0.25 z m -2.05469,1.82031 c 0.0508,-0.0156 0.0898,-0.0351 0.10938,-0.0625 0.0625,-0.082 0.17578,-0.1875 0.17578,-0.1875 l 0.76562,-0.0351 c 0,0 -0.0469,0.40234 0.008,0.55078 0.0586,0.14844 0.008,0.20312 -0.15625,0.19922 -0.0625,0 -0.13281,0.0117 -0.19531,0.0273 l -0.44531,0.008 v -0.17968 c 0,0 -0.0156,-0.0391 -0.0234,-0.10157 -0.008,-0.0586 0.043,-0.0937 0.0234,-0.12109 -0.0195,-0.0234 -0.0547,0.0273 -0.0742,0.0977 -0.0156,0.0742 -0.0117,0.3164 -0.0117,0.3164 l -0.0469,-0.125 -0.0391,-0.004 c 0,0 -0.0273,-0.16407 -0.0898,-0.38282"
           id="path26514-5-7-1-3-2" />
        <path
           d="m 892.61938,505.59464 c 0.34375,0.0274 0.5,0.16407 0.5,0.16407 l 0.26172,0.76171 c 0,0 -0.1836,0.8086 -0.42578,1.11719 -0.2461,0.3086 -0.60938,1.09766 -0.60938,1.09766 l 0.0195,0.13672 c 0,0 -0.40234,0.33593 -0.41015,0.57422 -0.008,0.23437 -0.0391,0.48828 -0.0391,0.48828 l 0.0937,0.1914 c 0,0 0.625,1 0.65235,1.0625 0.0273,0.0625 0.21094,0.21094 0.23828,0.35547 0.0234,0.14844 0.26172,0.41797 0.31641,0.4375 0.0547,0.0156 0.2539,0.125 0.21875,0.21485 -0.0352,0.0937 0,0.1914 0,0.1914 0,0 0.1289,0.45703 0.22656,0.58985 0.0976,0.13671 0.0547,0.18359 0.0976,0.32031 0.0469,0.13281 0.0469,0.23437 0.0469,0.23437 0,0 -0.51563,0.0547 -0.76172,-0.008 -0.24609,-0.0625 -0.48047,-0.0703 -0.60937,-0.0469 -0.125,0.0273 -0.0625,0.11718 -0.3711,0.0195 -0.30859,-0.10157 -0.44531,-0.0547 -0.44531,-0.0547 l -0.0625,0.125 c 0,0 -0.0586,0.0547 -0.32813,-0.125 -0.27343,-0.18359 -0.5625,-0.19922 -0.6914,-0.19141 -0.12891,0.008 -0.55469,0.51953 -0.55469,0.5625 0,0.0469 0.31641,0.88282 0.31641,0.88282 l 0.0273,0.45703 -2.25,-0.2461 -0.16406,0.40625 0.33594,0.0547 0.0195,0.28125 0.38281,0.0352 0.13281,-0.21485 3.67969,0.4961 c 0,0 -0.0977,0.53515 -0.0352,0.77343 0.0625,0.23438 0.28907,0.57032 0.28907,0.57032 0,0 -0.44532,-0.0899 -0.53516,0.0195 -0.0898,0.10937 -0.11719,0.3164 -0.11719,0.3164 l -0.1914,0.2461 c 0,0 -0.11719,0.0469 -0.12891,0.10937 -0.008,0.0625 0.0117,0.22657 0.0117,0.22657 l -0.13672,0.28906 -0.5,0.0195 c 0,0 0.27344,0.19141 0.35547,0.66406 0.082,0.47266 0.47265,1.12891 1.41406,1.00781 0.94531,-0.11718 1.13672,-1.16406 1.13672,-1.16406 0,0 0.008,-0.20703 0.0469,-0.28125 0.0352,-0.0703 0.14454,-0.20703 0.14454,-0.20703 l -0.30079,-0.082 -0.0547,-0.33594 c 0,0 0.54687,0.17188 1.34375,-0.22656 0.80078,-0.40234 1.08984,-0.58203 1.49218,-1.41016 0.39844,-0.82422 0.42579,-0.80468 0.42579,-0.80468 l -0.13672,-0.53516 0.17968,-0.24609 0.60157,-0.60157 0.1289,-0.34375 -0.47656,-0.26172 c 0,0 0.3125,-0.60156 0.375,-0.73046 0.0625,-0.125 0.10156,-0.48047 0.10156,-0.48047 l -0.33203,-0.33594 c 0,0 0.19531,-0.79688 0.16797,-1.43359 -0.0273,-0.63672 -0.27344,-0.94532 -0.27344,-0.94532 0,0 -0.0391,-0.7539 -0.082,-0.88281 -0.0469,-0.125 -0.10937,-0.24609 -0.10937,-0.24609 l 0.0547,-0.64063 0.0352,-0.0859 c 0,0 0.18359,-0.0351 0.23438,-0.19921 0.0586,-0.16407 0.58203,-2.64844 0.58203,-2.64844 l -0.50782,-0.21875 -0.0742,0.14453 c 0,0 -0.26954,-0.24609 -0.35157,-0.25781 -0.082,-0.004 -1.01562,-0.13282 -1.0625,-0.0703 -0.13281,0.1875 -0.0156,0.36719 0.21875,0.41797 0.61719,0.13672 0.75391,0.42969 0.76953,0.58203 0.0156,0.10547 -0.7539,1.32422 -0.7539,1.32422 0,0 -0.41406,0.81641 -0.40625,0.92578 0.008,0.11329 -0.71875,0.7461 -0.71875,1.08204 0,0.33593 -0.21875,1.40625 -0.21875,1.40625 0,0 -0.48828,-0.42579 -0.73438,-0.45313 -0.24609,-0.0273 -0.5625,-0.125 -0.76172,-0.44531 -0.19921,-0.31641 0.13672,-0.46485 0.20704,-0.66016 0.0742,-0.20312 0.29296,-1.52734 0.375,-1.80078 0.0781,-0.27344 0.3789,-1.13281 0.3789,-1.13281 l -0.50781,-0.3086 -0.15625,0.043 c 0,0 -0.0898,-0.11718 -0.16016,-0.17187 -0.0742,-0.0547 -0.65625,-0.32813 -0.65625,-0.32813 0,0 -0.64453,0 -0.69922,0.0117 -0.0547,0.008 -0.082,0.39844 0.26563,0.42578 m -1.24609,8.91016 0.10937,-0.0625 c 0,0 0.26172,0.043 0.61719,0.10937 0.35547,0.0625 0.625,0.1875 0.625,0.1875 l -0.42578,0.27344 -0.10547,0.16406 -0.89453,-0.082 c 0,0 0.10156,-0.38281 0.0742,-0.58984"
           id="path26516-0-8-6-1-2" />
        <path
           d="m 920.81079,513.96574 c -0.0469,-0.0117 -0.0899,-0.0195 -0.125,-0.0352 -0.20313,-0.0742 -0.40235,-0.10156 -0.51172,-0.0898 -0.10547,0.0117 -0.0625,0.0937 -0.3125,-0.0195 -0.25,-0.10938 -0.3711,-0.082 -0.3711,-0.082 l -0.0625,0.0977 c 0,0 -0.0508,0.043 -0.26562,-0.13672 -0.21094,-0.17578 -0.45703,-0.21484 -0.56641,-0.21875 -0.10547,-0.004 -0.51172,0.38672 -0.51562,0.42578 -0.004,0.0352 0.1914,0.76953 0.1914,0.76953 l -0.0195,0.38282 -1.875,-0.40625 -0.17187,0.33203 0.27734,0.0742 -0.008,0.23828 0.3164,0.0664 0.13282,-0.17187 3.05468,0.74219 c 0,0 -0.0195,0.0703 -0.043,0.16406 l -0.25782,0.86328 c 0.0508,0.19531 0.12891,0.48828 0.1836,0.57031 0.0703,0.10938 0.26172,0.29688 0.26172,0.29688 l -0.043,0.0976 c 0,0 -0.10547,-0.043 -0.0977,0.11719 0.008,0.16406 -0.0352,0.32813 -0.0352,0.32813 0,0 -0.32812,-0.0195 -0.44921,-0.0117 -0.11329,0.008 -0.13282,0.0586 -0.0391,0.18359 0.1836,0.23828 0.0977,0.39063 0.13282,0.73438 0.0351,0.35156 0.53906,0.91797 1.09375,0.90625 0.55468,-0.0117 0.96875,-0.35938 1.02343,-0.71485 0.0586,-0.35937 0.16407,-0.59375 0.23438,-0.67187 0.0742,-0.0742 -0.19531,-0.17969 -0.22266,-0.21094 -0.0273,-0.0312 -0.0156,-0.13281 -0.0156,-0.13281 0,0 0.0469,-0.13672 0.0742,-0.16016 0.0273,-0.0234 0.26953,-0.0508 0.36718,-0.0937 0.14453,-0.0547 0.77344,-0.41015 1,-0.63672 0.22266,-0.22265 0.55078,-0.65234 0.56641,-0.6875 0.0195,-0.0391 0.20312,-1.14453 0.22266,-1.23437 0.0156,-0.0899 0.0781,-0.44531 0.0625,-0.52735 -0.0195,-0.082 0.0625,-0.12109 0.0351,-0.21875 -0.0312,-0.0937 0.008,-0.375 0.008,-0.375 0,0 0.40235,-0.0547 0.50391,-0.23437 0.10547,-0.17578 0.75391,-1.09375 0.77734,-1.27734 0.0274,-0.1875 0.0234,-0.4961 -0.14062,-0.57813 -0.15625,-0.082 -0.9375,-0.30078 -0.9375,-0.30078 0,0 0.0234,-0.74609 -0.0117,-0.87109 -0.0391,-0.12891 0.0156,-0.5 0.0586,-0.59375 0.0391,-0.0937 0.31641,-0.61719 0.36719,-0.6836 0.0508,-0.0664 0.0508,-0.14062 0.0586,-0.16406 0.008,-0.0273 0.0391,-0.0234 0.10546,-0.0352 0.0664,-0.0117 1.02735,-0.91406 1.13672,-0.97265 0.11328,-0.0586 0.375,-0.13282 0.38282,-0.19922 0.004,-0.0703 0.0508,-0.1211 0.0976,-0.13672 0.0469,-0.0117 0.40235,-0.23047 0.41406,-0.29297 0.0117,-0.0625 -0.0117,-0.37891 -0.0625,-0.46094 -0.0469,-0.0859 -0.18359,-0.64453 -0.20312,-0.67578 -0.0156,-0.0273 -0.41406,-0.5039 -0.54688,-0.55469 -0.1289,-0.0586 -0.30078,-0.16015 -0.35937,-0.11718 -0.0547,0.0391 -0.082,0.23047 -0.0391,0.32031 0.043,0.0898 0.25,0.71094 0.26562,0.77344 0.0117,0.0703 -0.0976,0.35156 -0.14453,0.4375 -0.0508,0.0859 -1.69141,0.90625 -1.71484,0.96484 -0.0274,0.0547 -0.0117,0.10938 -0.0117,0.10938 0,0 -0.0469,0.0156 -0.17969,0.0781 -0.12891,0.0664 -0.64062,0.66406 -0.66797,0.73047 -0.0273,0.0703 -0.45703,0.48828 -0.45703,0.48828 l -0.53906,-0.30469 c 0,0 -0.1211,-0.69531 -0.19922,-0.78906 -0.0742,-0.0937 -0.23438,-0.22656 -0.23438,-0.22656 0,0 0.0664,-0.0274 0.082,-0.1211 0.0195,-0.0976 -0.004,-0.8164 -0.125,-1.20703 -0.1211,-0.39062 -0.33204,-1.10937 -0.31641,-1.25 0.0117,-0.14062 0.0586,-0.21484 0,-0.3125 -0.0625,-0.0976 -0.125,-0.28515 -0.13281,-0.44922 0,-0.16406 -0.0703,-0.55078 -0.0703,-0.55078 l -0.008,-0.40234 c 0,0 -0.87109,-0.0195 -1.46875,0.082 -0.59375,0.0977 -0.90234,0.27344 -0.90234,0.27344 0,0 0.11328,0.32031 0.34375,0.33984 0.23047,0.0274 0.79297,0.0781 0.94531,0.1211 0.14844,0.043 0.39844,0.40625 0.39063,0.48046 -0.008,0.0703 -0.125,0.0899 -0.0274,0.26954 0.0977,0.17968 0.10156,0.1914 0.0781,0.36328 -0.0234,0.17578 0.0234,0.89062 0.0351,1.03515 0.008,0.14453 0.0352,1.23438 0.0625,1.30078 0.0352,0.0703 0.11719,0.0781 0.11719,0.0781 0,0 -0.10156,0.21875 -0.10937,0.36719 -0.008,0.14843 0.125,0.68359 0.10156,0.80468 -0.0195,0.1211 0.004,0.33204 0.0195,0.46485 0.0117,0.1289 0.23047,1.24609 0.23047,1.24609 0,0 -0.16406,-0.0547 -0.14453,0.0977 0.0156,0.15234 0.0351,0.71484 0,0.74219 -0.0352,0.0273 -0.0352,0.0898 0,0.14062 0.0312,0.0547 0.17968,0.19922 0.14843,0.28516 -0.0273,0.0898 -0.11718,0.25 -0.11718,0.25 l -0.0391,-0.0195 z m -1.61719,0.64453 0.0937,-0.043 c 0,0 0.21875,0.0586 0.51172,0.14453 0.29297,0.0859 0.50781,0.21484 0.50781,0.21484 l -0.38281,0.19141 -0.10547,0.12891 -0.74219,-0.14844 c 0,0 0.12109,-0.30859 0.11719,-0.48828"
           id="path26518-4-5-7-6-7" />
      </g>
    </g>
  </g>
</svg>
