<?xml version="1.0" encoding="UTF-8" standalone="no"?>
<!-- Created with Inkscape (http://www.inkscape.org/) -->

<svg
   width="7.4633117mm"
   height="5.812346mm"
   viewBox="0 0 7.4633117 5.812346"
   version="1.1"
   id="svg1"
   sodipodi:docname="inkporter-svg-iknbq28b.svg"
   xmlns:inkscape="http://www.inkscape.org/namespaces/inkscape"
   xmlns:sodipodi="http://sodipodi.sourceforge.net/DTD/sodipodi-0.dtd"
   xmlns="http://www.w3.org/2000/svg"
   xmlns:svg="http://www.w3.org/2000/svg">
  <sodipodi:namedview
     id="namedview1"
     pagecolor="#ffffff"
     bordercolor="#666666"
     borderopacity="1.0"
     inkscape:showpageshadow="2"
     inkscape:pageopacity="0.0"
     inkscape:pagecheckerboard="0"
     inkscape:deskcolor="#d1d1d1"
     inkscape:document-units="mm"
     inkscape:zoom="1.0293026"
     inkscape:cx="447.87605"
     inkscape:cy="570.77479"
     inkscape:window-width="1920"
     inkscape:window-height="1017"
     inkscape:window-x="-8"
     inkscape:window-y="-8"
     inkscape:window-maximized="1"
     inkscape:current-layer="layer1" />
  <defs
     id="defs1" />
  <g
     inkscape:label="Layer 1"
     inkscape:groupmode="layer"
     id="layer1"
     transform="translate(-116.68126,-217.5804)">
    <g
       id="S-InfantryHQ3b-Pf"
       transform="translate(-354.17674,306.50212)">
      <path
         d="m 476.485,-83.176656 c -0.0192,-0.03598 -0.0259,-0.113072 -0.0159,-0.185886 0.0201,-0.146713 0.009,-0.150093 -0.26837,-0.07913 -0.21593,0.05531 -0.32161,0.03702 -0.30874,-0.05344 0.006,-0.04313 0.0516,-0.08369 0.14252,-0.127146 0.17152,-0.08198 0.27242,-0.215598 0.2289,-0.303126 -0.017,-0.03412 -0.0585,-0.15855 -0.0922,-0.276518 -0.0338,-0.117966 -0.0794,-0.234801 -0.10144,-0.259633 -0.022,-0.02483 -0.0401,-0.06939 -0.0401,-0.09902 0,-0.02963 -0.0354,-0.08208 -0.0786,-0.116555 -0.0707,-0.05633 -0.0792,-0.08256 -0.0844,-0.258457 -0.006,-0.199769 -0.0275,-0.505904 -0.0546,-0.77488 -0.0143,-0.14184 -0.0196,-0.150139 -0.0954,-0.150139 -0.13859,0 -0.15992,-0.05908 -0.14828,-0.410879 0.007,-0.213941 0.0239,-0.336788 0.0523,-0.379957 0.0757,-0.115506 0.0387,-0.186271 -0.13331,-0.255274 -0.20102,-0.08063 -0.23915,-0.13525 -0.19497,-0.279223 0.0323,-0.105458 0.10322,-0.179112 0.30847,-0.320625 0.32143,-0.221615 0.41863,-0.279799 0.53191,-0.318392 0.0692,-0.02356 0.1337,-0.05568 0.1434,-0.07137 0.01,-0.01568 -0.0278,-0.0756 -0.0834,-0.133163 -0.0905,-0.09382 -0.10157,-0.122432 -0.10679,-0.276248 -0.008,-0.242335 -0.012,-0.233029 0.12942,-0.315933 0.10715,-0.06278 0.14862,-0.07201 0.25024,-0.05565 0.16968,0.02731 0.24279,0.08181 0.27752,0.206875 0.0365,0.131696 0.0387,0.272666 0.005,0.309126 -0.0139,0.01494 -0.0338,0.08679 -0.0442,0.159655 l -0.0189,0.13248 0.2185,0.0797 c 0.18362,0.06697 0.22562,0.09462 0.26307,0.173143 0.0417,0.08757 0.0564,0.09471 0.23208,0.11353 0.11546,0.01237 0.21901,0.0082 0.26949,-0.01088 0.06,-0.02269 0.10236,-0.02199 0.15837,0.0024 0.18046,0.0792 0.12761,0.152861 -0.1149,0.160137 -0.0974,0.0028 -0.19091,0.01675 -0.20776,0.03076 -0.0168,0.014 -0.09,0.04037 -0.16245,0.05863 -0.13116,0.03304 -0.13184,0.03384 -0.14879,0.176978 -0.0118,0.09933 -0.004,0.168879 0.0249,0.224898 0.0529,0.102347 0.053,0.153553 2.2e-4,0.197314 -0.0364,0.03023 -0.036,0.04876 0.003,0.147129 l 0.045,0.112545 -0.14408,0.135202 -0.14409,0.135203 -0.0211,0.357475 c -0.0115,0.19661 -0.0235,0.601987 -0.0264,0.900836 -0.003,0.298848 -0.0211,0.659183 -0.0403,0.800742 -0.0193,0.14156 -0.0374,0.396766 -0.0402,0.567122 -0.006,0.351744 -0.0283,0.390911 -0.22409,0.390911 -0.0811,0 -0.11608,-0.01525 -0.14083,-0.06148 z"
         id="path10277-6-0-9-5" />
      <path
         id="path10343-9-2-6"
         style="fill:#000000;stroke-width:0.0288739"
         d="m 474.34185,-83.111352 c -0.0948,-0.07147 -0.0208,-0.101197 -0.006,-0.399428 -0.0219,-1.035864 -0.0259,-1.106337 -0.0637,-1.145262 -0.0204,-0.02098 -0.0371,-0.06276 -0.0371,-0.09284 0,-0.03007 -0.0371,-0.09736 -0.0825,-0.149525 -0.0453,-0.05216 -0.10283,-0.133827 -0.12771,-0.181468 -0.0412,-0.07886 -0.0469,-0.08145 -0.0637,-0.02887 -0.0448,0.139731 -0.13421,0.254314 -0.20464,0.300508 -0.0949,0.06221 -0.1078,0.133529 -0.12165,0.669532 -0.006,0.232473 -0.0127,0.470229 -0.0146,0.528346 -0.002,0.05812 -6.5e-4,0.15688 0.003,0.219467 0.004,0.06259 -0.009,0.131987 -0.0287,0.154218 -0.0371,0.04239 -0.32737,0.08923 -0.61779,0.09971 -0.15641,0.0057 -0.17193,3.3e-5 -0.18006,-0.0651 -0.009,-0.07425 0.0739,-0.142311 0.22364,-0.183072 0.0397,-0.01081 0.10609,-0.06039 0.14761,-0.11023 l 0.0755,-0.0906 0.0139,-0.942895 c 0.0111,-0.749721 0.0291,-0.894501 0.0656,-0.994963 0.0252,-0.06949 0.0458,-0.190322 0.0458,-0.268517 0,-0.0782 0.0184,-0.177767 0.0409,-0.221269 0.0225,-0.04363 0.0492,-0.21363 0.0595,-0.379106 0.0102,-0.165004 0.0308,-0.322811 0.0457,-0.35068 0.0305,-0.05709 0.0364,-0.376258 0.009,-0.511431 l -0.0178,-0.08882 -0.1627,0.01525 c -0.22957,0.02152 -0.27167,-0.01638 -0.28709,-0.258534 -0.01,-0.156435 -0.001,-0.207 0.049,-0.28842 0.0335,-0.0543 0.061,-0.1255 0.061,-0.158222 0,-0.03272 0.021,-0.08053 0.0468,-0.106245 0.0257,-0.02571 0.0419,-0.05124 0.0361,-0.05672 -0.006,-0.0055 -0.12759,-0.03907 -0.27052,-0.07463 -0.14293,-0.03556 -0.26846,-0.07268 -0.27896,-0.08249 -0.0105,-0.0098 -0.006,-0.09298 0.0102,-0.184838 0.0346,-0.1964 0.026,-0.195973 0.38424,-0.01919 0.12708,0.06271 0.24011,0.114007 0.2512,0.114007 0.0284,0 0.27782,0.170494 0.29861,0.204125 0.009,0.0153 0.0307,0.01947 0.0471,0.0093 0.0194,-0.01196 0.0161,-0.02784 -0.009,-0.04486 -0.0247,-0.01663 0.003,-0.01922 0.0763,-0.007 0.14166,0.02367 0.15881,0.03292 0.15881,0.08561 0,0.02288 0.0195,0.04161 0.0433,0.04161 0.0595,0 0.0543,-0.03889 -0.0135,-0.100202 -0.0509,-0.04606 -0.0551,-0.0773 -0.0403,-0.300432 0.0117,-0.175474 0.0306,-0.263046 0.064,-0.296484 0.0625,-0.06243 0.34951,-0.09485 0.40868,-0.04617 0.0718,0.05905 0.11215,0.278166 0.10765,0.584285 -0.004,0.279287 -0.002,0.289697 0.0666,0.324406 0.039,0.01972 0.10783,0.03605 0.15302,0.03629 0.0452,2.19e-4 0.11981,0.02723 0.16583,0.06 0.046,0.03276 0.0969,0.05142 0.11299,0.04145 0.0161,-0.01 0.0552,-0.0099 0.0868,1.1e-4 0.0673,0.02137 0.0783,0.12985 0.0132,0.12985 -0.0653,0 -0.009,0.09437 0.17916,0.298211 0.0853,0.09255 0.18194,0.221016 0.21481,0.285474 0.0582,0.114226 0.0585,0.120084 0.008,0.23141 -0.0587,0.130121 -0.32298,0.379695 -0.47343,0.447058 -0.0556,0.02488 -0.15675,0.0604 -0.22481,0.07893 l -0.12376,0.03369 0.10931,0.209985 c 0.10556,0.202756 0.10744,0.21137 0.0544,0.250231 -0.0539,0.03946 -0.0537,0.04435 0.007,0.250371 0.0343,0.115568 0.0622,0.265762 0.0622,0.333765 -1.1e-4,0.155905 -0.0692,0.324743 -0.1406,0.343403 -0.066,0.01726 -0.10289,0.220966 -0.0559,0.308706 0.041,0.07673 0.015,0.515227 -0.0497,0.836306 -0.0485,0.240691 -0.0487,0.267585 -0.003,0.479771 0.0266,0.123633 0.0615,0.100179 0.0157,0.225104 -0.26796,-0.0032 -0.32268,-0.002 -0.32268,-0.002 z m 0.47092,-3.581773 c 3.3e-4,-0.01791 0.0438,-0.07148 0.0967,-0.119052 l 0.0961,-0.08649 -0.0606,-0.09361 c -0.0333,-0.05149 -0.0691,-0.09377 -0.0794,-0.09397 -0.0104,-2.18e-4 -0.0333,0.04103 -0.0509,0.09161 -0.0176,0.05058 -0.051,0.112894 -0.0741,0.138475 -0.0576,0.0636 -0.0273,0.277785 0.0322,0.228359 0.0217,-0.01802 0.0397,-0.04741 0.0401,-0.06532 z m -1.28963,-1.121801 c 0.16235,-0.126326 0.16981,-0.142639 0.0852,-0.186517 -0.10928,-0.05669 -0.16906,-0.0464 -0.20639,0.03554 -0.0351,0.0771 -0.0461,0.244069 -0.016,0.244069 0.01,0 0.0713,-0.04189 0.13715,-0.09309 z m 0.35063,-0.397763 c -0.01,-0.01588 -0.03,-0.02887 -0.045,-0.02887 -0.0149,0 -0.0272,0.01299 -0.0272,0.02887 0,0.01588 0.0203,0.02887 0.045,0.02887 0.0248,0 0.037,-0.01299 0.0272,-0.02887 z"
         sodipodi:nodetypes="ccsssscsssccscsscssssssccsscsscssssscscssssscscsssssscscsscssccsssscccscssscsccsssssscsssc" />
      <path
         style="fill:#000000;stroke-width:0.0253969"
         d="m 471.37892,-83.116403 c 0.0739,-0.01781 0.10933,-0.07795 0.0396,-0.225526 0.002,-0.36713 0.015,-0.519718 0.062,-0.723291 0.0134,-0.05767 0.0245,-0.137427 0.0249,-0.177221 3.9e-4,-0.03979 0.0188,-0.110789 0.0412,-0.157768 0.0222,-0.04698 0.0356,-0.100019 0.0297,-0.117868 -0.006,-0.01785 0.0167,-0.05416 0.0505,-0.08069 0.05,-0.03936 0.0586,-0.06332 0.046,-0.130075 -0.0105,-0.05569 -0.004,-0.09153 0.0213,-0.112204 0.0201,-0.01671 0.0446,-0.07829 0.0544,-0.136852 0.0103,-0.0611 0.0487,-0.141701 0.0902,-0.189138 l 0.0723,-0.08266 0.0428,0.208946 c 0.0126,0.06163 0.0699,0.16538 0.10297,0.240156 0.0359,0.08118 0.0535,0.161756 0.0436,0.19998 -0.01,0.03704 8.7e-4,0.09345 0.0259,0.133843 0.0399,0.06562 0.0385,0.07837 -0.0224,0.212164 -0.0357,0.07829 -0.0818,0.227145 -0.10243,0.330785 -0.0207,0.103638 -0.0477,0.207521 -0.0599,0.230848 -0.0122,0.02332 -0.0629,0.223723 -0.0659,0.29239 -0.005,0.109975 8.2e-4,0.124255 0.0946,0.156817 0.0578,0.02022 0.13579,0.03549 0.17316,0.03396 0.0374,-0.0015 0.10595,0.01309 0.15234,0.03254 0.0464,0.01944 0.12895,0.02824 0.18339,0.01952 0.18815,-0.03006 -0.005,-0.137095 -0.10982,-0.215047 -0.22369,-0.165812 -0.14114,-0.187146 -0.0485,-0.410157 0.0389,-0.0936 0.11998,-0.289352 0.18022,-0.434968 l 0.10954,-0.264761 -0.006,-0.413773 c -0.005,-0.341673 -0.016,-0.440548 -0.0618,-0.56735 -0.15017,-0.415657 -0.15717,-0.298164 -0.12722,-0.346125 0.0229,-0.03668 0.0164,-0.07977 -0.0312,-0.206438 -0.0571,-0.151996 -0.077,-0.276984 -0.0691,-0.433101 0.003,-0.05557 0.0158,-0.06984 0.0638,-0.06984 0.0332,0 0.11268,-0.02318 0.17676,-0.05153 0.0986,-0.04362 0.11907,-0.06523 0.13322,-0.140662 0.012,-0.06441 0.003,-0.118786 -0.0351,-0.196087 -0.0285,-0.05883 -0.0951,-0.196294 -0.14787,-0.305482 -0.0528,-0.10919 -0.10508,-0.20415 -0.11622,-0.211025 -0.0111,-0.0069 -0.0202,-0.05161 -0.0202,-0.09941 0,-0.07152 -0.0113,-0.08973 -0.0635,-0.10284 -0.0754,-0.01893 -0.075,-0.01135 -0.0246,-0.467576 0.0795,-0.720427 0.0787,-0.666041 0.01,-0.656246 -0.0658,0.0093 -0.0766,0.04241 -0.0828,0.253819 -0.002,0.06502 -0.0104,0.113963 -0.0188,0.108773 -0.009,-0.0052 -0.0222,0.0959 -0.0307,0.224648 -0.009,0.128747 -0.0293,0.294088 -0.0464,0.36742 -0.0304,0.131376 -0.0322,0.133335 -0.12512,0.133335 -0.0713,0 -0.10397,-0.01474 -0.134,-0.06058 -0.042,-0.06405 -0.0333,-0.0965 0.0201,-0.07596 0.0433,0.01662 0.0705,-0.200633 0.041,-0.327525 -0.0416,-0.179242 -0.13491,-0.268413 -0.32313,-0.30892 -0.15293,-0.03291 -0.34477,0.09985 -0.42628,0.29502 -0.0385,0.09236 -0.0382,0.09431 0.0372,0.165081 0.0608,0.05711 0.0732,0.08572 0.0611,0.141291 -0.01,0.04614 -0.002,0.08321 0.0249,0.109751 0.0639,0.06373 0.0472,0.108971 -0.0552,0.151568 -0.11589,0.04819 -0.28574,0.16298 -0.28574,0.193096 0,0.01207 0.0157,0.02194 0.0348,0.02194 0.0517,0 0.0762,0.183216 0.028,0.210151 -0.0536,0.02998 -0.0462,0.0864 0.0134,0.101972 0.034,0.0089 0.0508,0.03465 0.0508,0.07765 0,0.0354 0.0124,0.07207 0.0277,0.08148 0.0304,0.01878 0.0127,0.153733 -0.0333,0.254823 -0.0211,0.04633 -0.0478,0.06123 -0.10999,0.06123 -0.0524,0 -0.0879,0.01495 -0.098,0.04133 -0.0194,0.0507 0.0562,0.115009 0.11837,0.100665 0.0361,-0.0084 0.0444,0.0072 0.0446,0.08261 7e-5,0.05107 0.0158,0.122966 0.0351,0.159761 0.0192,0.03679 0.0263,0.08091 0.0157,0.09805 -0.0461,0.07457 0.0538,0.184969 0.12667,0.139953 0.0327,-0.02024 0.0337,0.07052 8.8e-4,0.103135 -0.0299,0.02994 -0.10037,0.330699 -0.11975,0.511423 -0.0186,0.173942 0.004,0.286358 0.0829,0.401814 0.0655,0.09655 0.0739,0.201138 0.0207,0.257828 -0.0541,0.05754 -0.0898,0.346755 -0.0854,0.690278 0.003,0.190577 0.022,0.46178 -0.0211,0.588508 -0.073,0.214635 -0.0488,0.236826 0.0501,0.262888 0.0894,0.02356 0.13381,0.02841 0.24929,0.01546 z"
         id="path2943-4-20-5-1-9"
         sodipodi:nodetypes="ccsscssscsscssccsssscsssssscsssscssscsssssssccssssssssscssssssssssssscscscscsscc" />
      <path
         d="m 475.10185,-86.897761 1.41304,-0.323719 -0.006,-0.01903 -0.0442,0.01016 -0.001,0.0056 -0.0224,0.0046 -0.0135,-0.06143 0.0217,-0.0056 0.006,0.02799 0.044,-0.0101 0.001,-0.0045 0.0452,-0.01045 0.002,-0.0067 0.0301,-0.008 -0.002,0.0078 0.37451,-0.08624 0.002,-0.01009 0.0299,-0.0069 -0.002,0.01003 0.055,-0.01236 0.0115,0.05156 0.46932,-0.107748 c 0.013,-0.01329 0.0333,-0.03611 0.0833,-0.06408 0.0476,-0.02663 0.14573,-0.08286 0.22221,-0.126723 0.0607,-0.03538 0.10836,-0.06202 0.10836,-0.06202 l 0.0217,-0.0056 0.009,0.0046 0.0461,-0.01072 0.0588,0.01667 0.19196,0.05588 c 0,0 0.0469,0.01515 0.0606,0.07502 l -3.5e-4,0.0022 c 0.0147,0.0601 -0.0202,0.09452 -0.0202,0.09452 l -0.14809,0.133892 -0.0455,0.04083 -0.0464,0.01082 -0.0117,0.0066 -0.0215,0.0044 c 0,0 -0.0545,-0.0035 -0.1237,-0.0088 -0.0886,-0.0064 -0.20156,-0.01387 -0.25571,-0.01681 -0.0566,-0.0029 -0.0871,-0.0135 -0.10224,-0.02117 l -2.41801,0.554288 z"
         id="path211-4-4-9" />
    </g>
  </g>
</svg>
