<?xml version="1.0" encoding="UTF-8" standalone="no"?>
<!-- Created with Inkscape (http://www.inkscape.org/) -->

<svg
   width="16.128769mm"
   height="5.6712518mm"
   viewBox="0 0 16.128769 5.6712518"
   version="1.1"
   id="svg1"
   sodipodi:docname="inkporter-svg-98vuzq3c.svg"
   xmlns:inkscape="http://www.inkscape.org/namespaces/inkscape"
   xmlns:sodipodi="http://sodipodi.sourceforge.net/DTD/sodipodi-0.dtd"
   xmlns="http://www.w3.org/2000/svg"
   xmlns:svg="http://www.w3.org/2000/svg">
  <sodipodi:namedview
     id="namedview1"
     pagecolor="#ffffff"
     bordercolor="#666666"
     borderopacity="1.0"
     inkscape:showpageshadow="2"
     inkscape:pageopacity="0.0"
     inkscape:pagecheckerboard="0"
     inkscape:deskcolor="#d1d1d1"
     inkscape:document-units="mm"
     inkscape:zoom="1.0293026"
     inkscape:cx="447.87605"
     inkscape:cy="570.77479"
     inkscape:window-width="1920"
     inkscape:window-height="1017"
     inkscape:window-x="-8"
     inkscape:window-y="-8"
     inkscape:window-maximized="1"
     inkscape:current-layer="layer1" />
  <defs
     id="defs1" />
  <g
     inkscape:label="Layer 1"
     inkscape:groupmode="layer"
     id="layer1"
     transform="translate(-124.23414,-190.32928)">
    <g
       id="S-Infantry5"
       transform="translate(-372.65268,281.3165)">
      <g
         id="g245"
         transform="translate(-18.036386,-36.402316)">
        <g
           id="g244">
          <path
             style="fill:#000000;stroke-width:0.028598"
             d="m 519.37201,-48.920495 c -0.0726,-0.03764 -0.12913,-0.01206 -0.23061,-0.0062 -0.20547,0.01193 -0.3247,-0.02663 -0.33777,-0.109243 -0.01,-0.06258 0.0403,-0.106554 0.17801,-0.15591 0.19041,-0.06825 0.23383,-0.112196 0.20481,-0.606352 -0.0327,-0.555749 -0.0108,-0.924458 0.0621,-1.04549 0.0295,-0.04904 0.0536,-0.109877 0.0536,-0.135182 0,-0.02531 0.0312,-0.06646 0.0693,-0.09146 0.0381,-0.02499 0.0836,-0.08629 0.10101,-0.136224 0.0173,-0.04993 0.0795,-0.140023 0.13797,-0.200207 0.10405,-0.107074 0.10511,-0.11035 0.0492,-0.152414 -0.0397,-0.02984 -0.0915,-0.03767 -0.16916,-0.0256 -0.095,0.01476 -0.15188,-0.0024 -0.37528,-0.113285 -0.25166,-0.124891 -0.26399,-0.135384 -0.27844,-0.237026 -0.008,-0.05849 -0.0238,-0.132089 -0.0345,-0.163546 -0.0192,-0.05615 -0.0187,-0.05618 0.0254,-0.0022 0.0247,0.03026 0.0525,0.09573 0.0618,0.145499 0.0134,0.07131 0.0501,0.110562 0.1734,0.185288 0.127,0.07696 0.1983,0.09848 0.37895,0.114367 0.12238,0.01076 0.23755,0.02887 0.25592,0.04022 0.079,0.04886 0.0241,-0.0668 -0.0866,-0.181898 -0.11638,-0.121114 -0.12492,-0.124705 -0.28149,-0.118314 -0.1454,0.0059 -0.16625,-7.62e-4 -0.20959,-0.06687 -0.072,-0.109956 -0.0886,-0.23411 -0.0412,-0.308811 0.0549,-0.08644 0.0427,-0.242825 -0.0291,-0.376883 -0.066,-0.123097 -0.43631,-0.567154 -0.45632,-0.547151 -0.007,0.0071 0.007,0.07469 0.0317,0.150161 0.11783,0.362721 0.15839,0.524873 0.17738,0.709194 0.0113,0.110102 0.0111,0.191228 -3.5e-4,0.180281 -0.0266,-0.02514 -0.098,-0.354721 -0.0994,-0.458296 -8.4e-4,-0.07247 -0.0617,-0.218415 -0.2053,-0.493057 -0.0472,-0.0902 -0.0525,-0.124021 -0.0265,-0.165785 0.0279,-0.04478 0.01,-0.07847 -0.12554,-0.229859 -0.0871,-0.09756 -0.17839,-0.219512 -0.20293,-0.270996 -0.0258,-0.05428 -0.0578,-0.08546 -0.0759,-0.07423 -0.0194,0.012 -0.0232,0.0061 -0.01,-0.01544 0.0121,-0.01947 10e-5,-0.05843 -0.027,-0.08838 -0.0464,-0.05129 -0.0446,-0.05345 0.0415,-0.051 0.0683,0.0019 0.0859,0.01306 0.0733,0.04609 -0.0104,0.02694 0.0258,0.08791 0.095,0.160047 0.10725,0.11187 0.35197,0.391106 0.7483,0.85382 0.10224,0.119363 0.20058,0.217857 0.21854,0.218878 0.0485,0.0028 0.0757,-0.139606 0.0358,-0.187612 -0.0246,-0.02964 -0.0258,-0.0592 -0.004,-0.1066 0.0241,-0.0528 0.0201,-0.07171 -0.0203,-0.09697 -0.0276,-0.01726 -0.058,-0.06995 -0.0674,-0.117092 -0.009,-0.04714 -0.0572,-0.150837 -0.1062,-0.230437 -0.087,-0.14134 -0.0915,-0.203164 -0.0151,-0.203164 0.0209,0 0.0593,-0.03268 0.0855,-0.07263 0.12099,-0.184642 0.38056,-0.197881 0.55038,-0.02807 0.0884,0.08838 0.095,0.10808 0.095,0.283724 v 0.188747 h 0.0984 c 0.0541,0 0.10636,0.01286 0.11608,0.0286 0.0275,0.04466 0.20203,0.03361 0.31423,-0.01989 0.0894,-0.04263 0.12274,-0.04414 0.27591,-0.01251 0.18361,0.03792 0.2821,0.08412 0.2821,0.132311 0,0.01593 0.0451,0.09231 0.10009,0.169742 0.055,0.07743 0.10009,0.157436 0.10009,0.177789 0,0.02036 0.0391,0.06598 0.0871,0.10139 0.12473,0.09222 0.10684,0.188115 -0.0514,0.275128 -0.0668,0.03677 -0.12154,0.07947 -0.12154,0.09489 0,0.01542 0.0708,0.05933 0.15728,0.09759 0.17853,0.07895 0.19205,0.118824 0.10086,0.297567 -0.0675,0.132351 -0.10415,0.149416 -0.2081,0.09693 -0.0996,-0.0503 -0.0986,-0.03009 0.0105,0.203043 0.049,0.104779 0.0844,0.193768 0.0786,0.197753 -0.006,0.004 -0.0459,0.0294 -0.0892,0.05648 l -0.0787,0.04923 0.0184,0.249541 c 0.0258,0.349673 0.0205,0.43403 -0.0307,0.490598 -0.0246,0.02719 -0.0447,0.05752 -0.0447,0.06742 0,0.0099 0.0869,0.126351 0.19304,0.25879 0.31713,0.395598 0.53255,0.81509 0.57114,1.11214 0.0121,0.09305 0.005,0.110739 -0.0594,0.139896 -0.0596,0.02718 -0.0854,0.02482 -0.13878,-0.01269 -0.036,-0.02534 -0.11693,-0.08244 -0.17976,-0.126881 -0.12584,-0.089 -0.15254,-0.15055 -0.0917,-0.211386 0.0612,-0.06125 -0.27075,-0.600644 -0.44957,-0.730414 -0.072,-0.05227 -0.13094,-0.106721 -0.13094,-0.121014 0,-0.0143 -0.0595,-0.0946 -0.13216,-0.178458 -0.0727,-0.08386 -0.16467,-0.223255 -0.20442,-0.309765 -0.0397,-0.08651 -0.0767,-0.162556 -0.0821,-0.168993 -0.005,-0.0064 -0.0839,0.05852 -0.17449,0.144332 -0.0906,0.08582 -0.20664,0.173146 -0.25796,0.194061 -0.0627,0.02557 -0.0984,0.0626 -0.10897,0.113051 -0.009,0.04126 -0.0284,0.09832 -0.0439,0.126787 -0.0187,0.03444 -0.0173,0.125854 0.004,0.273141 0.0177,0.12176 0.0254,0.323676 0.017,0.448704 -0.008,0.125027 -0.0166,0.246625 -0.0181,0.270219 -8.4e-4,0.02359 -0.03,0.09234 -0.007,0.172169 0.0292,0.09983 0.0334,0.160174 0.0139,0.193243 -0.0308,0.05206 -0.11763,0.04578 -0.22338,0.05298 z"
             id="path232"
             sodipodi:nodetypes="cssssssscsssscsssssssssssscsccsscsscsscsssscscssssscssssssscsssssssscssssscssssssscsscssccsscc" />
          <path
             id="path233"
             style="fill:#000000;stroke-width:0.028598"
             d="m 516.02537,-48.914017 c 0.0701,0.0027 0.15285,-0.0097 0.1839,-0.02759 0.0311,-0.01784 0.10026,-0.02293 0.15374,-0.0113 0.146,0.03174 0.21786,-0.01215 0.24385,-0.148973 0.0117,-0.0632 0.01,-0.137779 -0.005,-0.165888 -0.0201,-0.03873 -0.0583,-0.08369 -0.0326,-0.108774 0.0413,-0.04134 0.0428,-0.33002 0.003,-0.546212 -0.0207,-0.111946 -0.021,-0.192263 -8.4e-4,-0.255484 0.0161,-0.05071 0.0364,-0.128036 0.0453,-0.171825 0.009,-0.0438 0.0447,-0.09306 0.0796,-0.10949 0.035,-0.01643 0.0893,-0.06951 0.12076,-0.117953 0.0417,-0.06405 0.0962,-0.09893 0.20019,-0.127859 0.27055,-0.07527 0.24633,-0.08371 0.38267,0.133367 0.0689,0.109716 0.1783,0.24965 0.24309,0.310964 0.19735,0.186783 0.28756,0.319341 0.45619,0.670476 0.10695,0.222664 0.18024,0.282165 0.15388,0.382874 -0.0504,0.192739 -0.0827,0.261375 0.0722,0.273642 0.074,0.0059 0.22598,0.02084 0.297,-0.01068 0.12975,-0.05758 0.11093,-0.16674 2e-4,-0.303176 -0.0461,-0.05681 -0.13997,-0.192056 -0.14257,-0.233055 -0.008,-0.127549 -0.15912,-0.531566 -0.26274,-0.703656 -0.0951,-0.157953 -0.0989,-0.175139 -0.0989,-0.447692 0,-0.187246 -0.0146,-0.318276 -0.0429,-0.386102 -0.053,-0.126916 -0.0549,-0.114997 0.0214,-0.134567 0.0473,-0.01211 0.0776,-0.05726 0.1144,-0.170015 0.0693,-0.212471 0.0655,-0.233211 -0.0662,-0.364847 -0.0639,-0.0639 -0.11144,-0.130376 -0.10566,-0.147729 0.006,-0.01736 0.0786,-0.05371 0.1616,-0.0808 0.21498,-0.07009 0.2265,-0.08847 0.15167,-0.242465 -0.0346,-0.0713 -0.082,-0.136919 -0.10518,-0.145824 -0.0233,-0.0089 -0.14221,0.03689 -0.26444,0.101749 -0.12225,0.06487 -0.19447,0.09509 -0.16051,0.06717 0.0592,-0.0487 0.0925,-0.167222 0.13627,-0.484712 0.0138,-0.09984 0.005,-0.133334 -0.0555,-0.204813 -0.0592,-0.0704 -0.10583,-0.09087 -0.26452,-0.116211 -0.53274,-0.08507 -0.69863,-0.09027 -0.92902,-0.02915 l -0.19303,0.05122 -8.4e-4,-0.10542 c 0,-0.05798 -0.0251,-0.15926 -0.055,-0.225065 -0.0708,-0.156062 -0.19121,-0.220275 -0.37905,-0.202224 -0.16412,0.01577 -0.26248,0.09335 -0.34174,0.269551 -0.0295,0.06559 -0.0696,0.125227 -0.0891,0.132511 -0.0323,0.0121 8.4e-4,0.03122 0.11286,0.06393 0.0187,0.0055 0.0328,0.05051 0.0313,0.100075 -8.4e-4,0.04957 0.0118,0.09897 0.0292,0.109779 0.0175,0.01081 0.0499,0.06265 0.0719,0.115204 0.0344,0.08184 0.0345,0.107045 0,0.175572 -0.0325,0.06494 -0.0335,0.106029 -0.007,0.218099 0.0185,0.07594 0.0517,0.15898 0.0736,0.184522 0.0221,0.02555 0.0778,0.153294 0.12402,0.283887 0.0462,0.130593 0.0946,0.244821 0.10757,0.253836 0.0393,0.02727 0.16808,0.212766 0.18947,0.272903 0.011,0.03098 0.0111,0.04741 0,0.03652 -0.0109,-0.0109 -0.0662,0.0161 -0.12305,0.05998 -0.0568,0.04389 -0.27055,0.193517 -0.47502,0.332505 -0.20448,0.138988 -0.44325,0.30661 -0.53061,0.372495 -0.0874,0.06589 -0.19198,0.128112 -0.23252,0.138284 -0.0428,0.01076 -0.0806,0.04503 -0.0903,0.0819 -0.0234,0.08976 -0.005,0.09493 0.0912,0.02613 0.0466,-0.03317 0.10088,-0.06032 0.12068,-0.06032 0.0473,0 0.26984,-0.129559 0.40768,-0.237263 0.0946,-0.07392 0.11482,-0.07993 0.15007,-0.04467 0.033,0.03307 0.0785,0.03553 0.24056,0.01313 0.10989,-0.01518 0.20697,-0.02044 0.21575,-0.01167 0.009,0.0088 0.0212,0.227173 0.0276,0.485342 0.007,0.258169 0.0234,0.487885 0.0337,0.585422 -0.007,0.167779 0.0418,0.198675 -0.0707,0.267963 -0.063,0.03878 -0.15965,0.08314 -0.21489,0.09855 -0.071,0.01981 -0.10476,0.04791 -0.1152,0.09592 -0.0179,0.08236 0.0324,0.111215 0.20529,0.117797 z m -0.29862,-1.778881 c -0.01,-0.0098 0.006,-0.01594 0.0356,-0.01373 0.0294,0.0023 0.15768,-0.06903 0.28511,-0.158327 l 0.2317,-0.16235 -0.0279,0.121044 c -0.0565,0.243693 -0.0464,0.235675 -0.28856,0.233276 -0.11997,-0.0013 -0.22613,-0.01015 -0.23589,-0.01991 z"
             sodipodi:nodetypes="csscscsssssssssssssssssssscsssssscssccssssscsccccssscssssccsssscccsssccscscccss" />
          <path
             id="path235"
             style="fill:#000000;stroke-width:0.028598"
             d="m 530.2139,-52.731044 c -0.0381,-0.04325 -0.0774,-0.102515 -0.0873,-0.131689 -0.0139,-0.04115 -0.0365,-0.04932 -0.10084,-0.03646 -0.0457,0.0091 -0.0829,0.0097 -0.0829,0.0013 0,-0.0084 0.0451,-0.07429 0.10011,-0.146388 0.055,-0.07209 0.10008,-0.142811 0.10008,-0.157142 0,-0.04116 0.11155,-0.275159 0.13936,-0.292351 0.0138,-0.0085 0.0307,0.09105 0.0376,0.221303 0.0127,0.242083 -0.002,0.620091 -0.0243,0.620091 -0.007,0 -0.0436,-0.0354 -0.0817,-0.07864 z m 0.78854,3.600591 c 0.0687,-0.01906 0.0643,-0.127152 -0.003,-0.192838 -0.0587,-0.05717 -0.06,-0.132144 -0.0693,-0.206118 -0.0707,-0.563922 -0.11404,-0.78286 -0.1927,-0.973089 l -0.0866,-0.209433 0.0638,-0.214928 c 0.073,-0.245906 0.0642,-0.339718 -0.0473,-0.508251 -0.0413,-0.0624 -0.0622,-0.117771 -0.0463,-0.123041 0.0158,-0.0053 0.0523,-0.02682 0.0811,-0.04788 0.0486,-0.03557 0.0495,-0.05031 0.0127,-0.206303 -0.0543,-0.23013 -0.15603,-0.424958 -0.26907,-0.515159 -0.087,-0.06941 -0.0928,-0.08391 -0.0716,-0.178769 0.0324,-0.144831 0.0356,-0.318845 0.0116,-0.622572 -0.017,-0.214045 -0.0122,-0.278924 0.0256,-0.354719 0.0254,-0.05102 0.0463,-0.111244 0.0463,-0.133832 0,-0.02259 0.0643,-0.113264 0.143,-0.201501 0.0786,-0.08824 0.14299,-0.176085 0.14299,-0.195216 0,-0.01913 -0.0534,-0.07711 -0.11877,-0.128845 l -0.11876,-0.09406 -0.11732,0.129575 -0.1173,0.129575 -0.0574,-0.08765 c -0.0316,-0.04821 -0.0808,-0.09215 -0.10938,-0.09765 -0.0893,-0.0172 -0.21251,0.05339 -0.24967,0.14309 -0.0498,0.120108 -0.34049,0.395336 -0.41763,0.395336 -0.0376,0 -0.0699,0.02297 -0.0809,0.05751 -0.0222,0.06989 -0.16523,0.148773 -0.22688,0.125116 -0.0511,-0.01962 -0.0581,-0.05655 -0.0158,-0.08278 0.0354,-0.0219 -0.12542,-0.253094 -0.21856,-0.314123 -0.0362,-0.02371 -0.12317,-0.04311 -0.1933,-0.04311 -0.15194,0 -0.28317,0.09429 -0.32967,0.236869 -0.0417,0.127592 -0.0276,0.392263 0.0209,0.392277 0.0698,1.9e-5 0.3406,0.138338 0.35762,0.182702 0.011,0.02878 -0.0148,0.06596 -0.0748,0.107298 -0.0504,0.0348 -0.0965,0.06687 -0.10234,0.07129 -0.006,0.0044 -8.4e-4,0.0311 0.0109,0.05931 0.0311,0.0742 0.0442,0.169822 0.0524,0.380156 0.003,0.102238 0.0159,0.205191 0.0265,0.228784 0.0106,0.02359 0.0523,0.145503 0.0926,0.27091 0.0825,0.256642 0.13922,0.358245 0.20013,0.358245 0.0479,0 0.0407,0.02346 -0.11818,0.386074 -0.14869,0.339235 -0.15924,0.357474 -0.2069,0.357474 -0.0315,0 -0.035,0.0088 -0.0129,0.03094 0.0312,0.03116 -0.0427,0.213994 -0.39569,0.979741 -0.0786,0.170515 -0.13569,0.317252 -0.12686,0.326083 0.009,0.0088 0.0503,-0.0599 0.092,-0.152737 0.0418,-0.09284 0.18594,-0.394001 0.32032,-0.669257 0.19786,-0.405256 0.24641,-0.485503 0.2552,-0.421821 0.006,0.04325 0.0212,0.07864 0.0339,0.07864 0.0126,0 0.0106,0.06113 -0.005,0.135841 -0.0151,0.07471 -0.0269,0.14871 -0.026,0.164439 0.0447,0.866286 0.0984,0.854802 0.008,0.920843 -0.047,0.03407 -0.1395,0.07597 -0.20571,0.0931 -0.1005,0.02596 -0.12213,0.04567 -0.13088,0.118917 -0.01,0.08124 -0.001,0.0899 0.1108,0.116169 0.0667,0.01566 0.16966,0.01117 0.22885,-0.0099 0.0591,-0.02105 0.1439,-0.02804 0.18825,-0.01556 0.13391,0.03763 0.18619,-0.01705 0.18466,-0.24481 -8.4e-4,-0.114851 0.002,-0.409869 0.006,-0.655593 0.008,-0.496609 -0.0225,-0.371328 0.26914,-0.713908 0.0849,-0.09969 0.17173,-0.185407 0.19303,-0.190491 0.0213,-0.005 0.0387,-0.02117 0.0387,-0.03575 0,-0.05137 0.007,-0.07045 0.0637,-0.182241 0.055,-0.107929 0.0594,-0.110419 0.0994,-0.0572 0.023,0.03061 0.0875,0.145584 0.14335,0.255511 0.0559,0.109926 0.16219,0.267894 0.23629,0.351042 0.18451,0.207005 0.22902,0.302763 0.30224,0.650208 0.0265,0.125832 0.0714,0.29313 0.0999,0.371775 0.0284,0.07864 0.028,0.215155 0.0385,0.281922 0.004,0.07282 -0.0281,0.133815 0.0663,0.200322 0.12178,0.0068 0.14014,0.0154 0.2962,-0.006 z"
             sodipodi:nodetypes="ssssssscssscscscssssssssssssscccssssssssssssscccssssssscssssccsscsssssssscssssscccc" />
          <path
             id="path241"
             style="fill:#000000;stroke-width:0.028598"
             d="m 522.15843,-49.050892 c 0.0661,0.0085 0.1567,0.0013 0.2013,-0.01602 0.0445,-0.01732 0.16861,-8.42e-4 0.20491,-8.42e-4 0.0363,0 0.0902,-0.0177 0.11982,-0.03933 0.048,-0.0351 0.0508,-0.0563 0.0252,-0.197196 -0.0175,-0.0965 -0.0186,-0.184035 -0.003,-0.225198 0.0142,-0.03704 0.0181,-0.202461 0.009,-0.367615 -0.0125,-0.216753 -0.008,-0.317038 0.0187,-0.360534 0.1201,-0.20144 0.21997,-0.33279 0.37816,-0.497405 0.0982,-0.102236 0.19866,-0.216102 0.22313,-0.253034 l 0.0445,-0.06715 0.0413,0.06715 c 0.0227,0.03693 0.0886,0.153577 0.14635,0.259211 0.0577,0.105636 0.20622,0.306899 0.32994,0.447252 0.14704,0.166801 0.23164,0.288475 0.24423,0.351297 0.0292,0.145169 0.13338,0.46425 0.1618,0.495053 0.0138,0.01494 0.0123,0.134666 0.009,0.191163 -0.009,0.131446 0.0863,0.152343 0.16708,0.122331 0.0327,-0.01216 0.0291,0.005 0.0732,0.04171 0.0522,0.04345 0.19457,0.01119 0.26754,0.01695 0.0444,0.0035 0.0817,-0.178552 -0.006,-0.23683 -0.18334,-0.122535 -0.21517,-0.137898 -0.27334,-0.491376 -0.0319,-0.193405 -0.0829,-0.374126 -0.14355,-0.507769 -0.093,-0.204935 -0.0936,-0.209085 -0.05,-0.336989 0.028,-0.08233 0.0372,-0.168209 0.0253,-0.235777 -0.0104,-0.05845 -0.0186,-0.144888 -0.0181,-0.192074 3.5e-4,-0.04719 8.4e-4,-0.130836 0.002,-0.185887 8.3e-4,-0.121584 -0.0105,-0.198522 -0.0399,-0.263548 -0.0151,-0.03347 0.007,-0.09351 0.0685,-0.188963 l 0.0907,-0.139904 0.26235,-0.01582 c 0.2119,-0.01278 0.29197,-0.03122 0.41636,-0.09593 0.26211,-0.136348 0.40861,-0.323626 0.34546,-0.441627 -0.0451,-0.08419 -0.11363,-0.067 -0.24434,0.06128 -0.13396,0.131481 -0.28237,0.169815 -0.42671,0.110219 -0.0472,-0.01948 -0.10301,-0.0389 -0.12405,-0.04317 -0.0631,-0.01276 -0.14764,-0.103177 -0.14764,-0.157801 0,-0.0281 -0.0129,-0.05903 -0.0286,-0.06875 -0.0157,-0.0097 -0.0287,-0.06518 -0.0288,-0.12323 -2.1e-4,-0.125336 -0.0503,-0.32004 -0.0824,-0.32004 -0.0125,0 -0.0376,-0.03286 -0.056,-0.073 -0.0183,-0.04015 -0.0718,-0.08646 -0.11898,-0.102891 -0.0471,-0.01644 -0.0857,-0.04043 -0.0857,-0.05334 0,-0.06234 0.04,-0.113933 0.0884,-0.113933 0.071,0 0.19761,-0.249222 0.19761,-0.388896 0,-0.13601 -0.0902,-0.279461 -0.2121,-0.337307 -0.12724,-0.06038 -0.18196,-0.05798 -0.31806,0.01387 -0.0623,0.0329 -0.13903,0.06237 -0.17048,0.0655 -0.0345,0.0034 -0.0529,0.02226 -0.0463,0.04743 0.0327,0.125555 0.0344,0.319752 0.003,0.412528 -0.0366,0.110996 -0.0285,0.108906 -0.21716,0.05633 -0.0635,-0.01769 -0.11454,0.03184 -0.34083,0.330462 -0.20852,0.275195 -0.25433,0.311336 -0.42935,0.338782 -0.1688,0.02647 -0.20649,0.01137 -0.27062,-0.108476 -0.0289,-0.05417 -0.0102,-0.2673 0.0696,-0.790445 0.0243,-0.158801 0.0556,-0.402874 0.0698,-0.542384 0.0141,-0.13951 0.0395,-0.258229 0.0563,-0.26382 0.0209,-0.0069 0.0196,-0.02763 -0.003,-0.06532 -0.044,-0.07041 -0.0779,-0.07056 -0.0779,-3.24e-4 0,0.03015 -0.0132,0.05922 -0.0294,0.06462 -0.0161,0.0054 -0.0514,0.173759 -0.0781,0.374156 -0.0309,0.230579 -0.061,0.364358 -0.0821,0.364358 -0.0184,0 -0.0394,0.05469 -0.0468,0.121541 -0.0372,0.337407 -0.0908,0.622912 -0.14248,0.758736 -0.0643,0.169192 -0.26229,0.43523 -0.32387,0.43523 -0.0221,0 -0.0862,0.06933 -0.14247,0.154079 -0.13648,0.205558 -0.13155,0.341638 0.016,0.439692 0.12395,0.08241 0.18598,0.212406 0.14125,0.29598 -0.0171,0.03214 -0.0236,0.0785 -0.0142,0.103009 0.009,0.02451 -0.009,0.114068 -0.0407,0.199024 -0.0759,0.202742 -0.0734,0.228572 0.0266,0.280277 0.20154,0.104224 0.2494,0.03219 0.28455,-0.428235 0.0152,-0.200293 0.0404,-0.324005 0.0838,-0.412893 0.0341,-0.0698 0.062,-0.143799 0.062,-0.164438 0,-0.02063 0.0117,-0.03753 0.026,-0.03753 0.0143,0 0.035,-0.107638 0.046,-0.239195 0.0109,-0.131557 0.0292,-0.25422 0.0406,-0.272584 0.0151,-0.02444 0.0629,-0.01722 0.17842,0.027 0.14139,0.05411 0.15637,0.06775 0.14423,0.131348 -0.01,0.05014 0.009,0.09426 0.0625,0.150349 0.0872,0.09104 0.0871,0.09151 -0.069,0.417571 -0.0603,0.125832 -0.13228,0.299564 -0.16006,0.386074 -0.0278,0.08651 -0.0724,0.195895 -0.0991,0.243083 -0.10193,0.180063 -0.14567,0.889286 -0.089,1.443285 0.0262,0.255766 0.0632,0.240674 -0.004,0.298655 -0.0432,0.03737 -0.0508,0.06112 -0.0975,0.07822 -0.0344,0.0126 -0.0369,0.0133 -0.11164,0.03859 -0.23241,0.07874 -0.22134,0.200468 0.0211,0.231629 z M 521.91728,-51.667 c -0.0106,-0.0531 -0.0518,-0.104409 -0.11514,-0.143569 -0.11814,-0.07301 -0.13765,-0.115007 -0.1055,-0.227089 0.0373,-0.130058 0.17348,-0.347456 0.21767,-0.347456 0.0217,0 0.0834,-0.06534 0.13721,-0.145213 0.16069,-0.23861 0.17265,-0.0895 0.0275,0.342978 -0.0489,0.146058 -0.0655,0.242064 -0.053,0.308441 0.0174,0.09264 -0.0326,0.294536 -0.0729,0.294536 -0.0106,0 -0.0268,-0.03718 -0.0358,-0.08263 z m 2.26057,-0.455081 c -0.008,-0.07285 -0.0296,-0.137359 -0.0476,-0.143337 -0.0242,-0.008 -0.0238,-0.02151 8.3e-4,-0.05167 0.0278,-0.03352 0.0486,-0.01157 0.11644,0.122906 0.0887,0.175834 0.0888,0.242232 2.2e-4,0.219088 -0.0417,-0.01092 -0.0592,-0.04731 -0.0704,-0.146983 z"
             sodipodi:nodetypes="csssscccsscssscssssssssssccsccssssssssssssssssssccssssssscsscscsssssccssssssssccsssssssccssssscsssscscsscc" />
          <path
             style="fill:#000000;stroke-width:0.028682"
             d="m 525.72024,-49.103572 c -0.0213,-0.01309 -0.0342,-0.04689 -0.0286,-0.07476 0.011,-0.05471 0.0508,-0.08399 0.17496,-0.128028 0.10182,-0.03606 0.19976,-0.252938 0.24652,-0.545631 0.0188,-0.118348 0.0461,-0.286101 0.0604,-0.372878 0.0301,-0.182178 0.16651,-0.655532 0.25867,-0.897633 0.0347,-0.09143 0.0562,-0.184796 0.0475,-0.207432 -0.008,-0.02269 0.004,-0.09461 0.0262,-0.160032 0.0555,-0.15685 0.053,-0.188101 -0.0154,-0.205991 -0.0314,-0.0085 -0.0574,-0.03559 -0.0574,-0.06073 0,-0.02505 -0.0126,-0.04576 -0.0278,-0.04576 -0.044,0 -0.23753,0.113575 -0.31636,0.185644 -0.13727,0.125363 -0.34232,0.183732 -0.30513,0.08681 0.008,-0.02373 0.005,-0.04303 -0.008,-0.04303 -0.0482,0 -0.47666,0.19376 -0.79293,0.358576 -0.23598,0.12298 -0.33028,0.158892 -0.36551,0.139185 -0.0412,-0.02316 -0.0343,-0.03908 0.0532,-0.121653 0.0614,-0.05791 0.11798,-0.08851 0.14481,-0.07825 0.0254,0.0098 0.0725,-0.01102 0.1115,-0.05047 0.0899,-0.08983 0.18456,-0.145193 0.67154,-0.392397 0.3828,-0.194334 0.41893,-0.219729 0.50574,-0.355421 0.0514,-0.08032 0.13566,-0.191057 0.18722,-0.245971 0.11002,-0.117246 0.18474,-0.361654 0.15926,-0.520961 -0.0197,-0.123743 0.0471,-0.351664 0.12947,-0.441199 0.0646,-0.07034 0.0694,-0.115411 0.014,-0.136559 -0.0221,-0.0085 -0.0497,-0.05791 -0.0611,-0.109657 -0.011,-0.05188 -0.0348,-0.116881 -0.0522,-0.144639 -0.0232,-0.03729 -0.0224,-0.0596 0.004,-0.08559 0.0427,-0.04275 0.0465,-0.138395 0.005,-0.138395 -0.0557,0 -0.0609,-0.08163 -0.008,-0.134327 0.0289,-0.029 0.0783,-0.08531 0.10978,-0.125136 0.1342,-0.169458 0.29129,-0.211613 0.48578,-0.130344 0.10782,0.04501 0.24589,0.249812 0.24519,0.363641 -4.5e-4,0.06892 -0.053,0.240923 -0.0923,0.301997 -0.0302,0.04698 0.0807,0.136502 0.14064,0.113452 0.0344,-0.01318 0.0774,0.0085 0.1373,0.06996 0.048,0.04896 0.17652,0.156134 0.28554,0.237996 0.2693,0.202215 0.31283,0.267411 0.32699,0.489654 0.011,0.170973 0.006,0.185831 -0.0646,0.236328 -0.18475,0.130693 -0.19595,0.145287 -0.21875,0.285198 -0.0212,0.129619 -0.0158,0.15217 0.0635,0.267646 l 0.0865,0.126088 -0.0813,0.06497 c -0.0752,0.06007 -0.0809,0.07843 -0.0756,0.246771 0.004,0.09999 0.0382,0.348256 0.078,0.551686 0.0397,0.203448 0.0649,0.382124 0.0557,0.397086 -0.01,0.01497 -0.0474,0.02137 -0.0846,0.01431 -0.0571,-0.01102 -0.0703,9.04e-4 -0.0846,0.07636 -0.01,0.04924 -0.003,0.125645 0.0137,0.169881 0.0169,0.04435 0.0306,0.147396 0.0306,0.22922 0,0.08173 0.0258,0.284246 0.0574,0.449815 0.0758,0.397754 0.0744,0.452366 -0.0122,0.4918 -0.0703,0.03211 -0.31885,0.01224 -0.34346,-0.02815 -0.008,-0.01102 9.4e-4,-0.07467 0.0193,-0.140683 0.0232,-0.08663 0.0236,-0.166284 9.4e-4,-0.286064 -0.0422,-0.229719 -0.2025,-0.66169 -0.28602,-0.771197 -0.0382,-0.05009 -0.093,-0.139637 -0.12203,-0.199221 l -0.0526,-0.108311 -0.0396,0.071 c -0.12448,0.222996 -0.17345,0.276949 -0.26728,0.294547 -0.12239,0.02297 -0.14334,0.0499 -0.20261,0.260377 -0.0267,0.09461 -0.0693,0.230162 -0.0945,0.301167 -0.0253,0.071 -0.0531,0.238768 -0.0618,0.372868 l -0.0158,0.243787 -0.32986,0.0066 c -0.18141,0.0038 -0.34724,-0.0047 -0.36852,-0.0178 z"
             id="path244" />
        </g>
      </g>
    </g>
  </g>
</svg>
