<?xml version="1.0" encoding="UTF-8" standalone="no"?>
<!-- Created with Inkscape (http://www.inkscape.org/) -->

<svg
   width="34.295231mm"
   height="10.69905mm"
   viewBox="0 0 34.295231 10.69905"
   version="1.1"
   id="svg6745"
   sodipodi:docname="inkporter-svg-5hwgz5am.svg"
   xmlns:inkscape="http://www.inkscape.org/namespaces/inkscape"
   xmlns:sodipodi="http://sodipodi.sourceforge.net/DTD/sodipodi-0.dtd"
   xmlns="http://www.w3.org/2000/svg"
   xmlns:svg="http://www.w3.org/2000/svg">
  <sodipodi:namedview
     id="namedview6747"
     pagecolor="#ffffff"
     bordercolor="#666666"
     borderopacity="1.0"
     inkscape:pageshadow="2"
     inkscape:pageopacity="0.0"
     inkscape:pagecheckerboard="0"
     inkscape:document-units="mm"
     showgrid="false"
     inkscape:zoom="0.66368547"
     inkscape:cx="397.02542"
     inkscape:cy="561.25984"
     inkscape:window-width="1920"
     inkscape:window-height="1017"
     inkscape:window-x="-8"
     inkscape:window-y="-8"
     inkscape:window-maximized="1"
     inkscape:current-layer="layer1" />
  <defs
     id="defs6742" />
  <g
     inkscape:label="Layer 1"
     inkscape:groupmode="layer"
     id="layer1"
     transform="translate(-90.386733,-162.10588)">
    <path
       id="S-ISU122-127cm"
       style="stroke-width:0.352777"
       d="m 107.50532,162.10609 v 0.41496 l 0.0796,0.0605 v 0.17363 h -0.2341 l -0.0605,-0.0594 v -0.20103 h -0.6904 v 0.0677 h -0.1478 l -0.0729,0.10025 h -0.29507 l -0.16123,0.0801 h -2.33681 v -0.12144 h 0.0331 v -0.25322 h -0.13384 v 0.25322 h 0.0398 v 0.12144 h -0.38861 v -0.0801 h -0.0878 v 0.0651 l -0.42737,-0.0785 v 0.30179 l 0.42737,-0.0786 v 0.0439 h 0.0878 l 0.007,-0.0594 h 0.61598 v 0.17363 h 1.97611 v 0.11989 h -1.06557 l -0.10025,0.0677 0.1142,0.15451 h 1.7818 l 0.21343,0.0398 h 0.44958 v 0.25476 l -0.17363,0.1695 v -0.22996 h -0.47852 v 0.25063 h -0.24082 l -0.38033,0.28267 -0.53331,0.0109 -0.33796,0.14211 -0.50022,-0.077 c 0,0 -1.41491,0.11972 -1.68776,0.13074 -0.27147,0.011 -0.23978,0.27285 -0.23978,0.27285 l -0.53485,0.78807 h -0.58963 l -0.10335,0.11058 h -1.00147 v 0 l -1.091405,-0.005 -8.812382,0.11885 v 0 l -0.03669,0.43667 0.02479,0.47956 9.399427,0.21239 h -0.366903 l 0.01291,0.0139 h 0.900203 v 0.83768 c 0,0.0772 0.19689,0.21756 0.40359,0.21756 0.20671,0 0.27148,0.0982 0.43409,0.0982 h 1.01285 l 0.0662,0.11989 c 0,0 -0.58859,0.0109 -0.82837,0.0109 -0.2384,0 -0.53313,0.076 -0.66404,0.1421 -0.12954,0.0648 -0.849052,0.56638 -0.849052,0.56638 l 0.493512,0.74827 c -0.20533,0.51401 -0.24409,1.04421 0.47801,1.5596 0.77859,0.55535 2.44481,1.72961 3.35018,1.72961 0.86128,0 14.60996,-0.0222 15.63522,-0.0222 1.05971,0 2.72421,-0.83216 3.50005,-1.34617 0.52503,-0.34865 0.74276,-0.93293 0.59117,-1.43454 l 0.0966,-0.13797 c 0.17639,0.0317 0.19155,0.20153 0.11162,0.26355 -0.0978,0.0772 -0.0551,0.21755 0.17363,0.13074 0.22876,-0.0868 0.29508,-0.2825 0.31575,-0.50023 0.022,-0.21773 -0.0537,-0.21773 -0.17364,-0.11989 v 3.5e-4 c -0.0841,0.0675 -0.16278,0.014 -0.18758,-0.12247 l 0.20929,-0.30179 -1.11053,-1.03508 h -0.31574 l -0.78393,-0.76274 v -0.75086 h -3.6256 l -0.29352,0.17363 v 0.23978 h -0.22893 V 166.655 h -1.5999 v -0.0982 h -0.31523 v 0.11989 h -1.57923 v 0.37104 h -0.48938 v -2.89698 h -0.76222 v -0.33745 h -0.46819 v 0.33745 h -0.52245 v -0.19534 h -0.46871 v 0.19534 h -0.93534 v -0.22841 h -0.41496 v 0.22841 h -1.01544 c -0.12127,-0.25494 -0.42478,-0.43512 -0.78032,-0.43512 -0.22186,0 -0.42288,0.0701 -0.57309,0.18449 h -0.31264 l -0.37362,-0.25373 v -0.0729 c 0,0 0.14211,0.0193 0.29507,-0.10748 0.15434,-0.12679 0.16795,-0.21498 0.16795,-0.21498 h 0.35398 V 162.803 h 0.047 v -0.0481 l -0.047,-0.006 -0.1664,0.006 h -0.12144 v 0.0481 h -0.34158 l 0.14883,-0.24805 h 0.0729 v -0.44907 z m 0.60875,0.69763 h 0.094 v 0.41496 h -0.094 z m -7.03885,8.12612 c 0.11024,0.0441 0.23014,0.0692 0.35553,0.0692 0.0537,0 0.10456,-0.004 0.15555,-0.0124 0.0896,0.18052 0.28267,0.24822 0.46871,0.27027 -0.0523,0.0578 -0.13784,0.14557 -0.20258,0.21032 -0.29214,-0.19293 -0.55948,-0.38171 -0.77721,-0.53744 z m 19.83135,0.0481 h 0.47387 l -0.16381,0.35812 0.40514,-0.13643 c 0.0579,0.0565 0.12109,0.10783 0.18862,0.15193 l -0.0274,0.38705 0.2837,-0.19275 c 0.0248,0.091 0.0555,0.24926 0.0734,0.34158 -0.17502,0.0827 -0.35451,0.16399 -0.53641,0.23978 l -0.24649,-0.30024 c -0.10749,-0.13229 -0.19448,-0.0417 -0.16279,0.0548 0.0234,0.0661 0.0622,0.26045 0.0842,0.37207 -0.21497,0.0799 -0.42719,0.14762 -0.63252,0.19998 0.28387,-0.17914 0.47284,-0.49609 0.47284,-0.85576 0,-0.23426 -0.0801,-0.44924 -0.21239,-0.62011 z m -18.4149,0.26096 0.17105,0.0811 c -0.005,0.0413 -0.008,0.0829 -0.008,0.12557 0,0.11851 0.0207,0.23134 0.0579,0.33745 -0.0496,0.051 -0.10215,0.10318 -0.13797,0.13901 -0.15021,-0.0896 -0.30007,-0.18173 -0.44752,-0.27544 l 0.0977,-0.32659 c 0.007,-0.0207 0.0109,-0.0398 0.0109,-0.0563 0.14608,-0.003 0.25632,-0.0248 0.25632,-0.0248 z m 3.21118,0.0217 0.25321,0.11472 c -0.0165,0.0717 -0.0248,0.14608 -0.0248,0.22324 0,0.2825 0.11593,0.53864 0.30334,0.72192 -0.0165,0.0896 -0.04,0.19844 -0.0537,0.26459 l -0.74415,0.001 -0.11162,-0.38344 c -0.0469,-0.16261 -0.16416,-0.11402 -0.17105,-0.0134 -0.005,0.0758 -0.0508,0.29076 -0.0729,0.39687 l -0.67644,0.001 c 0.45613,-0.0978 0.79788,-0.50402 0.79788,-0.98908 0,-0.0923 -0.0127,-0.18208 -0.0362,-0.26614 z m 3.04787,0.0114 0.38034,0.12092 c -0.0138,0.0661 -0.0207,0.13539 -0.0207,0.20567 0,0.4203 0.25631,0.7798 0.62011,0.93276 l -0.0108,0.0496 h -0.80046 l -0.11059,-0.37776 c -0.0482,-0.16261 -0.16227,-0.11453 -0.17054,-0.0139 -0.005,0.0744 -0.0499,0.28525 -0.0734,0.39274 l -0.83095,0.002 c 0.44648,-0.10611 0.77876,-0.50677 0.77876,-0.98495 0,-0.0896 -0.0126,-0.17639 -0.0346,-0.26045 z m 3.36414,0.0108 0.34829,0.11162 c -0.0138,0.0661 -0.0207,0.13384 -0.0207,0.20412 0,0.38447 0.21532,0.71916 0.53227,0.89142 l -0.0196,0.0853 -0.56482,0.002 -0.10903,-0.37362 c -0.0469,-0.16261 -0.16365,-0.11454 -0.17054,-0.0139 -0.004,0.0744 -0.047,0.27871 -0.0718,0.38757 l -0.75912,0.002 -0.032,-0.10904 c 0.29766,-0.17639 0.49765,-0.50005 0.49765,-0.87075 0,-0.0882 -0.0108,-0.17242 -0.0315,-0.25373 z m 3.36517,0.0207 0.31006,0.11007 c -0.011,0.0592 -0.0166,0.12109 -0.0166,0.18448 0,0.46027 0.30696,0.84888 0.72864,0.97152 l -0.61857,0.001 -0.10749,-0.36793 c -0.0469,-0.16261 -0.16416,-0.11454 -0.17105,-0.0139 -0.005,0.073 -0.0468,0.27165 -0.0703,0.38189 l -0.83612,0.002 -0.0372,-0.12712 c 0.27561,-0.18053 0.45889,-0.49333 0.45889,-0.84749 0,-0.0744 -0.009,-0.14728 -0.0237,-0.21756 z m 2.87992,0.0672 0.17105,0.062 c -0.01,0.0537 -0.0139,0.10887 -0.0139,0.16536 0,0.38861 0.21893,0.72606 0.54002,0.89556 l -0.015,0.0734 -0.88212,10e-4 -0.0729,-0.25218 c 0.18466,-0.18328 0.29921,-0.43666 0.29921,-0.71778 0,-0.0786 -0.01,-0.15435 -0.0264,-0.22738 z m 4.45916,0.15968 c -0.073,0.0413 -0.14882,0.0842 -0.22737,0.12557 l 0.0413,-0.0966 c 0.0634,-0.004 0.1254,-0.0138 0.18603,-0.0289 z m -0.5209,0.0155 0.0305,0.005 0.008,0.0413 z m -19.41638,0.53898 0.0196,0.0222 -0.0222,-0.0114 z m 14.96394,0.40876 -0.015,0.0744 h -0.16795 c 0.0648,-0.0193 0.12506,-0.0441 0.18294,-0.0744 z m -11.33006,0.0227 c 0.0634,0.0289 0.13109,0.0522 0.19999,0.0687 h -0.17931 z m 7.2652,0.0398 c 0.0193,0.007 0.0384,0.012 0.0563,0.0176 h -0.11317 c 0.0193,-0.006 0.0376,-0.0106 0.0569,-0.0176 z m -3.35277,0.007 c 0.0179,0.007 0.0358,0.011 0.0537,0.0165 h -0.10748 c 0.0179,-0.005 0.0358,-0.01 0.0537,-0.0165 z m 6.65179,0.004 0.007,0.002 h -0.0139 z m -9.85883,0.004 c 0.0165,0.005 0.0305,0.01 0.047,0.0124 h -0.0925 c 0.0152,-0.003 0.0303,-0.007 0.0455,-0.0124 z"
       sodipodi:nodetypes="cccccccccccccccccccccccccccccccccccccccccccccccccccscccccccccccccccsssccsccccssccccscccccccccccccccccccccccccccccccccccscccccccccccccccccccccccccscccccccccccccccccscccsccccccccscccccccsccccscccccccsccccsccccccccsccccscccccccsccccsccccsccccccccccccccccccccccccccccccccccccc" />
  </g>
</svg>
