<?xml version="1.0" encoding="UTF-8" standalone="no"?>
<!-- Created with Inkscape (http://www.inkscape.org/) -->

<svg
   width="32.253819mm"
   height="11.32334mm"
   viewBox="0 0 32.253819 11.32334"
   version="1.1"
   id="svg6745"
   sodipodi:docname="inkporter-svg-a_9jalm6.svg"
   xmlns:inkscape="http://www.inkscape.org/namespaces/inkscape"
   xmlns:sodipodi="http://sodipodi.sourceforge.net/DTD/sodipodi-0.dtd"
   xmlns="http://www.w3.org/2000/svg"
   xmlns:svg="http://www.w3.org/2000/svg">
  <sodipodi:namedview
     id="namedview6747"
     pagecolor="#ffffff"
     bordercolor="#666666"
     borderopacity="1.0"
     inkscape:pageshadow="2"
     inkscape:pageopacity="0.0"
     inkscape:pagecheckerboard="0"
     inkscape:document-units="mm"
     showgrid="false"
     inkscape:zoom="0.66368547"
     inkscape:cx="397.02542"
     inkscape:cy="561.25984"
     inkscape:window-width="1920"
     inkscape:window-height="1017"
     inkscape:window-x="-8"
     inkscape:window-y="-8"
     inkscape:window-maximized="1"
     inkscape:current-layer="layer1" />
  <defs
     id="defs6742" />
  <g
     inkscape:label="Layer 1"
     inkscape:groupmode="layer"
     id="layer1"
     transform="translate(-20.780975,-80.856573)">
    <path
       d="m 21.089656,86.101388 h 0.435461 V 85.59978 h -0.435461 z m 0.633899,0 h 0.435458 V 85.59978 h -0.435458 z m 17.721569,-2.641699 v 0.868161 l 0.114378,0.100598 v -0.361046 l 0.307304,-0.24667 h 0.05236 v -0.361043 z m -5.893869,8.225507 c 0.08819,0.0441 0.173634,0.08406 0.254939,0.117133 -0.104733,-0.07579 -0.191548,-0.175009 -0.254939,-0.288007 z m 5.893869,-10.828623 v 1.28571 h 0.638034 v 0.103353 h 0.175009 v -0.474045 h 0.381717 v 0.474045 h 0.432703 v 0.431327 h -0.474045 v 0.155716 h -0.515384 v 0.113002 h 0.07304 v 0.2384 l 0.509874,0.636651 h 0.07579 v -0.237021 h 0.48507 v 0.225997 h 0.78135 l 0.350022,0.340378 v 0.474045 h 0.299032 l 0.216352,0.297656 0.854385,0.237021 0.227376,0.391364 c 0,0 0.24529,-0.195682 0.348643,-0.08268 0.103354,0.113002 0.17501,0.267342 0.124023,0.453376 -0.05236,0.184658 -0.257694,0.267339 -0.257694,0.267339 l 0.07166,0.359667 h -0.504363 l -0.133667,0.237025 v 0.09233 h 0.05236 v -0.113002 h 0.216351 v 0.113002 h 0.875055 v -0.152965 h 0.338998 v 0.152965 h 0.771702 v -0.101978 h 0.267338 v 0.101978 h 0.61874 v -0.0193 h 0.514008 v -0.124023 h 0.278363 v 0.124023 h 0.730363 v -0.17501 h 0.350019 v 0.17501 h 0.854385 v -0.103354 h 0.165365 v 0.103354 h 0.576019 v 0.338998 h 0.195682 l 0.556726,-0.143316 0.214976,-0.176389 0.206706,0.340374 c 0,0 1.379414,1.008726 1.52411,1.225077 0.143316,0.216352 0.184658,0.463021 0,0.844737 -0.08819,0.180524 -0.354157,0.421679 -0.610472,0.624251 -0.03168,0.563619 -0.343132,1.012857 -0.644923,1.190625 -0.351399,0.206707 -2.363333,1.077627 -3.068888,1.077627 H 34.298153 c -0.683507,0 -2.170409,-1.055578 -2.767101,-1.463478 -0.403765,-0.275607 -0.808909,-0.939821 -0.290766,-1.623328 l -0.534677,-0.54708 c 0,0 0.576019,-0.453376 0.988053,-0.453376 h 0.401009 V 87.82531 h 0.124023 v 0.267339 h 0.647678 c 0,0 0.0372,-0.07441 0.0937,-0.172255 L 32.76439,87.691639 v -0.741383 c 0,0 0.536056,0.08268 0.610471,0.54846 0.248049,-0.06064 0.902618,-0.228756 0.902618,-0.228756 h 0.225996 v -0.330729 c 0,0 -0.299036,-0.143316 -0.463021,-0.246669 -0.163985,-0.101974 -0.318325,-0.246669 -0.318325,-0.246669 H 33.299076 V 86.32187 l -10.459311,-0.267338 -0.380337,0.15434 h -0.391364 l -0.184658,0.112998 h -0.927418 l -0.175013,-0.184658 v -0.566374 l 0.165365,-0.206707 h 0.967383 l 0.124023,0.103354 h 0.431327 l 0.370692,0.165364 9.0606,0.0303 1.357369,-0.06201 V 85.45784 h 0.453375 l 0.576019,-0.370691 0.340375,-0.350023 h 0.679372 l 0.350023,0.112998 0.833712,-0.133667 v -0.340378 h 0.545705 v 0.257694 h 0.48369 v -0.32935 H 38.5494 l 0.257694,0.225996 h 0.338998 l 0.227376,-0.267338 0.0096,-0.803395 h -0.04134 v -0.348643 h -0.267339 v -0.216355 h -0.833713 v -0.186034 h -1.132748 v -0.237021 h -0.956356 v 0.10335 h -0.227379 v -0.391361 h 0.227379 v 0.124022 h 0.596689 v -0.351398 h 0.15434 v 0.351398 h 0.205327 v -0.07304 h 2.2338 v -0.09233 h 0.04134 m 4.378028,9.547048 0.129537,0.243914 h 0.307301 l 0.14745,-0.248049 0.130913,0.248049 h 0.256314 l 0.14883,-0.248049 0.130912,0.248049 h 0.275608 l 0.14883,-0.248049 0.130912,0.248049 h 0.37345 c -0.359671,-0.126781 -0.617361,-0.468535 -0.617361,-0.87092 0,-0.03583 0.0028,-0.07166 0.0055,-0.107488 H 43.99952 c 0.0041,0.03583 0.0069,0.07166 0.0069,0.107488 0,0.242535 -0.0937,0.461641 -0.245289,0.627006 m -0.150206,0.243914 0.139181,-0.234265 c -0.09922,0.104729 -0.221865,0.184654 -0.361047,0.234265 z m -2.811198,0 0.148826,-0.248049 0.130916,0.248049 h 0.307301 l 0.148827,-0.248049 0.130916,0.248049 h 0.256314 l 0.14745,-0.248049 0.130913,0.248049 h 0.276987 l 0.07166,-0.119891 c -0.234266,-0.166741 -0.387227,-0.440973 -0.387227,-0.751029 0,-0.03583 0.0028,-0.07166 0.0069,-0.107488 h -1.041798 c 0.0041,0.03583 0.0055,0.07166 0.0055,0.107488 0,0.402385 -0.257693,0.744139 -0.615982,0.87092 z m -2.779504,0 0.14883,-0.248049 0.130912,0.248049 h 0.307301 l 0.147451,-0.248049 0.132291,0.248049 h 0.256314 l 0.147451,-0.248049 0.130916,0.248049 h 0.276983 l 0.04548,-0.07717 c -0.270097,-0.159854 -0.453376,-0.454752 -0.453376,-0.79375 0,-0.03583 0.0028,-0.07166 0.0069,-0.107488 h -1.073488 c 0.0041,0.03583 0.0069,0.07166 0.0069,0.107488 0,0.402385 -0.257694,0.744139 -0.617361,0.87092 z m 8.644434,-0.04961 0.02618,0.04961 h 0.305921 l 0.14883,-0.248049 0.132292,0.248049 h 0.254935 l 0.14745,-0.248049 0.132292,0.248049 h 0.276987 l 0.05374,-0.09095 c -0.259069,-0.162609 -0.431324,-0.45062 -0.431324,-0.77997 0,-0.03583 0.0028,-0.07166 0.0055,-0.107488 h -0.556726 c 0.0028,0.03583 0.0055,0.07166 0.0055,0.107488 0,0.358288 -0.203948,0.668348 -0.501604,0.821309 m 4.229199,-0.744139 0.03996,0.03447 0.08544,-0.0372 c -0.03171,0.0014 -0.06339,0.0028 -0.09508,0.0028 z m -1.539268,0.496094 0.118508,0.09784 c 0.07855,-0.0248 0.158475,-0.05099 0.23978,-0.07993 l 0.03721,-0.235645 0.186034,0.15572 c 0.09095,-0.03306 0.183282,-0.06753 0.274232,-0.103354 l 0.0441,-0.278363 0.212217,0.177765 0.180524,-0.07303 0.02755,-0.183279 c -0.135047,-0.0303 -0.261825,-0.08544 -0.374827,-0.158475 h -0.752408 c 0.0055,0.03583 0.0069,0.07166 0.0069,0.107488 0,0.216352 -0.07441,0.416168 -0.199813,0.573264 m -0.139181,0.177765 0.0055,-0.04134 c -0.02755,0.02343 -0.05512,0.0441 -0.08544,0.06201 z m -14.317818,-0.0069 0.06752,0.126782 h 0.235645 l 0.14745,-0.248049 0.130916,0.248049 h 0.307301 l 0.148827,-0.248049 0.130916,0.248049 h 0.256314 l 0.14745,-0.248049 0.130913,0.248049 h 0.276987 l 0.02618,-0.04272 c -0.305926,-0.150205 -0.516767,-0.464396 -0.516767,-0.828198 0,-0.03583 0.0028,-0.07166 0.0069,-0.107488 h -1.124479 c 0.0041,0.03583 0.0069,0.07166 0.0069,0.107488 0,0.305925 -0.150205,0.577398 -0.37896,0.744138 M 32.86222,91.29933 33.108889,91.15188 v 0.294901 c 0.06201,0.03583 0.124022,0.07166 0.187413,0.104733 l 0.210838,-0.126782 c -0.04685,-0.110243 -0.07442,-0.232886 -0.07442,-0.362422 0,-0.03583 0.0028,-0.07166 0.0069,-0.107488 h -0.582912 l -0.293522,-0.344509 c -0.128157,0.0689 -0.275608,0.107488 -0.432703,0.107488 -0.06477,0 -0.128157,-0.0069 -0.188793,-0.0193 l 0.191548,0.130912 0.234266,-0.141936 v 0.296277 l 0.15434,0.101973 0.216351,-0.129532 v 0.265959 z m 0,0"
       id="S-IS85"
       style="stroke-width:0.352778" />
  </g>
</svg>
