<?xml version="1.0" encoding="UTF-8" standalone="no"?>
<!-- Created with Inkscape (http://www.inkscape.org/) -->

<svg
   width="20.472797mm"
   height="9.8055201mm"
   viewBox="0 0 20.472797 9.8055201"
   version="1.1"
   id="svg6745"
   sodipodi:docname="inkporter-svg-de2d1i4p.svg"
   xmlns:inkscape="http://www.inkscape.org/namespaces/inkscape"
   xmlns:sodipodi="http://sodipodi.sourceforge.net/DTD/sodipodi-0.dtd"
   xmlns="http://www.w3.org/2000/svg"
   xmlns:svg="http://www.w3.org/2000/svg">
  <sodipodi:namedview
     id="namedview6747"
     pagecolor="#ffffff"
     bordercolor="#666666"
     borderopacity="1.0"
     inkscape:pageshadow="2"
     inkscape:pageopacity="0.0"
     inkscape:pagecheckerboard="0"
     inkscape:document-units="mm"
     showgrid="false"
     inkscape:zoom="0.66368547"
     inkscape:cx="397.02542"
     inkscape:cy="561.25984"
     inkscape:window-width="1920"
     inkscape:window-height="1017"
     inkscape:window-x="-8"
     inkscape:window-y="-8"
     inkscape:window-maximized="1"
     inkscape:current-layer="layer1" />
  <defs
     id="defs6742" />
  <g
     inkscape:label="Layer 1"
     inkscape:groupmode="layer"
     id="layer1"
     transform="translate(-88.337853,-231.03021)">
    <path
       d="m 104.53317,236.76257 0.25824,-0.24094 -0.78176,-2.85645 -0.39476,-0.0825 -1.64676,2.25284 0.0928,0.44591 z m 0.4759,-0.29527 0.29845,0.0526 1.50425,-2.20662 -0.0494,-0.1076 -0.80328,-0.15593 c -0.2032,-0.0395 -0.635,-0.32843 -0.635,-0.32843 0,0 0.37959,-0.0766 0.61525,-0.0709 l -1.48484,-0.28857 -0.23778,0.20355 z m 0.38453,0.35913 0.0159,0.24165 0.15029,0.0409 c 0.22436,0 0.4198,0.12206 0.52423,0.30339 v -0.24412 h 0.31608 v 1.92228 h 0.2974 v 0.19826 h -0.76694 c -0.0268,0.85937 -0.73166,1.54694 -1.59809,1.54694 -0.88229,0 -1.59808,-0.71509 -1.59808,-1.59809 0,-0.21343 0.042,-0.41733 0.11818,-0.60395 h -0.40075 c 0.0762,0.18662 0.11747,0.39052 0.11747,0.60395 0,0.883 -0.71508,1.59809 -1.59808,1.59809 -0.88265,0 -1.598086,-0.71509 -1.598086,-1.59809 0,-0.21343 0.04198,-0.41733 0.118181,-0.60395 h -3.113617 v 0.45684 H 93.70325 c -0.467784,0 -0.723195,0.12983 -1.212145,-0.27799 h -0.560564 c 0.03704,0.13547 0.05715,0.27799 0.05715,0.4251 0,0.883 -0.715786,1.59809 -1.598436,1.59809 -0.882297,0 -1.598083,-0.71509 -1.598083,-1.59809 0,-0.33373 0.102306,-0.64346 0.277283,-0.89993 h -0.375002 v 0.0889 h -0.3556 v -0.51577 h 0.165805 c 0.06315,-0.10265 0.219075,-0.33796 0.386997,-0.44485 0.218017,-0.13864 0.395112,-0.23812 0.395112,-0.23812 v -0.73237 c 0,0 0.158397,0 0.238477,0.0395 0.07902,0.0395 0.138642,0.0991 0.138642,0.0991 v -1.28834 h 0.593725 l 2.952044,-0.0794 v -0.13864 h 0.455084 v -1.42557 h -0.395464 l 2.733675,-0.8121 1.226961,0.73272 v 1.78118 c 0.152753,-0.048 0.31503,-0.0741 0.483658,-0.0741 0.850195,0 1.54552,0.66393 1.595261,1.50107 h 0.277989 v 0.30163 c 0.05362,-0.0155 0.11042,-0.0236 0.169333,-0.0236 h 0.429328 l 0.0519,-0.11395 0.39053,-2.80458 -0.28822,-0.79763 -4.284136,-1.66405 -0.174625,-0.0339 0.106186,-0.4886 5.070825,0.98531 0.19368,-1.16134 0.18662,0.0265 -0.20673,1.16875 4.84117,0.9405 c -0.21837,-0.0758 -0.56797,-0.30974 -0.56797,-0.30974 0,0 0.50553,-0.1016 0.71261,-0.0614 l 1.54622,0.30022 c 0.0314,-0.0466 0.0945,-0.1143 0.19368,-0.0945 l 0.85443,0.16616 -0.12665,0.1905 -0.048,0.24271 0.0455,0.21908 -0.85372,-0.16616 c -0.0258,-0.005 -0.0466,-0.0138 -0.0639,-0.0261 l -0.0575,0.23918 c 0.0212,-0.005 0.0448,-0.006 0.0709,-7e-4 l 0.85443,0.16545 -0.12736,0.19121 -0.0473,0.24271 0.0455,0.21907 -0.85443,-0.16615 c -0.10371,-0.0198 -0.13546,-0.11289 -0.14569,-0.16793 l -0.3482,-0.0677 z m -1.92687,-3.39902 -0.15734,-0.28822 -2.04223,-0.39758 -0.24095,1.78576 0.32703,0.90417 0.53622,0.15275 z m -2.65007,-0.59796 c -0.0416,0.13547 -0.12206,0.27976 -0.28504,0.33197 l 0.1718,0.47625 z m -0.838552,0.23707 c -0.229306,-0.133 -0.426156,-0.37218 -0.518231,-0.67557 l -2.736497,-0.53234 z m 0.972612,2.01718 -0.2727,2.0253 h 0.33549 v -0.43533 h 0.37571 v -0.25753 z m 4.02766,2.0253 -3.13302,-0.59937 v 0.59937 z m 0.9458,1.98155 h 0.15981 v -0.4766 h -0.2794 c 0.0631,0.14887 0.10477,0.30868 0.11959,0.4766 m -11.673066,-3.84386 -0.270228,-0.25612 0.119239,-0.1591 0.448733,0.41522 h 0.786695 l -0.04233,-0.0759 -0.0074,-0.0843 -0.0028,-0.10302 0.0187,-0.11818 0.02364,-0.0945 -0.06703,-0.0409 -0.08114,0.0134 -0.07444,-0.12664 -0.05539,-0.0631 0.04198,-0.14782 -0.167923,-0.0342 0.06597,-0.0367 0.03704,-0.11571 0.01905,-0.0568 0.03316,-0.0593 0.08819,-0.0825 c 0.01729,-0.0134 0.07232,-0.0307 0.07232,-0.0307 l 0.05539,-0.0102 0.06103,-0.008 0.0575,0.006 0.09772,0.0183 c 0.05362,0.0212 0.08678,0.0473 0.08678,0.0473 l 0.06279,0.0713 0.03951,0.0892 0.0081,0.0734 -0.0081,0.0847 c -0.0127,0.0893 0,0.10266 0,0.10266 l -0.0575,0.0512 0.07408,0.0709 0.113594,0.006 0.199673,0.13829 0.06174,-0.0903 0.08961,-0.03 v -0.70944 H 94.27863 93.901511 v 1.34656 z"
       id="S-Katyusha"
       style="stroke-width:0.352778" />
  </g>
</svg>
