<?xml version="1.0" encoding="UTF-8" standalone="no"?>
<!-- Created with Inkscape (http://www.inkscape.org/) -->

<svg
   width="18.61182mm"
   height="6.2473936mm"
   viewBox="0 0 18.61182 6.2473936"
   version="1.1"
   id="svg12576"
   sodipodi:docname="inkporter-svg-a0l3ettz.svg"
   xmlns:inkscape="http://www.inkscape.org/namespaces/inkscape"
   xmlns:sodipodi="http://sodipodi.sourceforge.net/DTD/sodipodi-0.dtd"
   xmlns="http://www.w3.org/2000/svg"
   xmlns:svg="http://www.w3.org/2000/svg">
  <sodipodi:namedview
     id="namedview12578"
     pagecolor="#ffffff"
     bordercolor="#666666"
     borderopacity="1.0"
     inkscape:pageshadow="2"
     inkscape:pageopacity="0.0"
     inkscape:pagecheckerboard="0"
     inkscape:document-units="mm"
     showgrid="false"
     inkscape:zoom="0.66368547"
     inkscape:cx="397.02542"
     inkscape:cy="561.25984"
     inkscape:window-width="1920"
     inkscape:window-height="1017"
     inkscape:window-x="-8"
     inkscape:window-y="-8"
     inkscape:window-maximized="1"
     inkscape:current-layer="layer1" />
  <defs
     id="defs12573" />
  <g
     inkscape:label="Layer 1"
     inkscape:groupmode="layer"
     id="layer1"
     transform="translate(-151.73922,-140.3316)">
    <g
       id="S-Mortar-120mm"
       transform="matrix(0.03267887,0,0,-0.03267887,83.773732,206.7346)">
      <g
         id="g17925"
         transform="matrix(-1,0,0,1,4335.8686,0)">
        <path
           id="rect14650-7"
           style="fill:#000000;fill-opacity:1;stroke:none;stroke-width:2.83465;-inkscape-stroke:none;paint-order:markers fill stroke;stop-color:#000000"
           d="m 2199.5504,2031.8478 a 1.5000001,1.5000001 0 0 1 -1.9905,-0.7332 l -0.9681,-2.0975 a 1.5000001,1.5000001 0 0 1 0.503,-1.8556 l -17.9947,-38.9881 a 2.2500001,2.2500001 0 0 1 -0.5274,-0.7052 l -9.0588,-19.627 -0.7752,0.3579 a 2.2500001,2.2500001 0 0 1 -2.9858,-1.1001 l -4.4567,-9.6559 a 2.2500001,2.2500001 0 0 1 1.1001,-2.9857 l 0.7754,-0.358 -5.8065,-12.5806 a 2.2500001,2.2500001 0 0 1 -0.1954,-0.8601 l -11.0268,-23.8911 a 3,3 45 0 1 -3.3238,-1.6716 l -2.5273,-5.4756 a 3,3 45 0 1 0.8844,-3.6139 l -5.6481,-12.2374 -1.0467,0.4831 -6.0171,-13.0368 1.5961,-0.7367 a 9.3137829,7.3734112 65.224578 0 1 2.9444,-11.189 9.3137829,7.3734112 65.224578 0 1 10.4248,5.0184 l 1.9472,-0.8986 6.0171,13.0368 -1.9126,0.8827 5.6107,12.1564 21.916,-10.1152 a 3,3 45 0 1 3.981,1.4667 l 2.5273,5.4756 a 3,3 45 0 1 -1.4667,3.9811 l -21.9159,10.1152 10.4079,22.5504 7.6224,-3.518 a 2.2500001,2.2500001 0 0 1 2.9858,1.1001 l 5.8065,12.5806 4.651,-2.1467 a 2.2500001,2.2500001 0 0 1 2.9859,1.1001 l 4.4566,9.6558 a 2.2500001,2.2500001 0 0 1 -1.1001,2.9859 l -4.6511,2.1466 9.0587,19.627 a 2.2500001,2.2500001 0 0 1 -1.1001,2.9859 l -1.3046,0.6021 5.0409,10.9221 -6.3175,2.9158 12.371,26.8039 a 1.5000001,1.5000001 0 0 1 1.7395,0.8218 l 0.968,2.0974 a 1.5000001,1.5000001 0 0 1 -0.7333,1.9906 z"
           inkscape:transform-center-x="-56.593909"
           inkscape:transform-center-y="-110.01015" />
        <path
           id="path15138-1"
           style="fill:#000000;fill-opacity:1;stroke:none;stroke-width:2.83465;-inkscape-stroke:none;paint-order:markers fill stroke;stop-color:#000000"
           d="m 2130.3591,1875.1397 c -27.1902,7.4318 -50.2365,9.7831 -51.4763,5.2517 l -1.5666,-4.6924 c -0.3643,-1.3347 1.2454,-3.1252 4.3328,-5.166 l -0.4369,-25.5826 88.7842,0.2741 -0.026,1.3538 c 3.3666,0.2308 5.4654,0.9402 5.8119,2.2064 l 1.5679,4.6921 c 1.2373,4.5321 -19.8014,14.2307 -46.9922,21.6628 z" />
        <path
           id="path15721-8"
           style="fill:#000000;fill-opacity:1;stroke:none;stroke-width:2.83465;-inkscape-stroke:none;paint-order:markers fill stroke;stop-color:#000000"
           d="m 2198.3801,2014.7598 -10.7654,-3.268 10.4726,-34.5071 a 8.7316721,8.7316721 0 0 1 -0.3471,-0.5763 8.7316721,8.7316721 0 0 1 3.4314,-11.8612 8.7316721,8.7316721 0 0 1 0.093,-0.049 l -1.1352,-0.3451 a 3,3 0 0 1 -2.0009,-3.7424 l 2.4857,-8.1833 a 3,3 0 0 1 3.7407,-2.0006 l 1.6978,0.5153 3.0155,-9.9329 -2.6263,-0.7973 a 3,3 0 0 1 -1.9992,-3.7412 l 1.4129,-4.6571 a 3,3 0 0 1 3.7427,-1.9995 l 2.6248,0.7976 23.1295,-76.2055 10.7654,3.268 -23.1294,76.2056 2.4945,0.7568 a 3,3 0 0 1 2.0005,3.7408 l -1.4143,4.6576 a 3,3 0 0 1 -3.7413,1.9991 l -2.4944,-0.7568 -3.0155,9.9328 10.7605,3.2663 a 3,3 0 0 1 1.9994,3.7426 l -2.4842,8.183 a 3,3 0 0 1 -3.7412,1.9991 l -10.2659,-3.1158 a 8.7316721,8.7316721 0 0 1 -3.4856,11.7553 8.7316721,8.7316721 0 0 1 -0.7308,0.3558 z"
           inkscape:transform-center-x="35.78527"
           inkscape:transform-center-y="-107.4034" />
        <path
           id="path15955-0"
           style="fill:#000000;fill-opacity:1;stroke:none;stroke-width:2.83465;-inkscape-stroke:none;paint-order:markers fill stroke;stop-color:#000000"
           d="m 2241.3257,1863.2412 a 10.42758,10.42758 0 0 1 -5.2032,-1.4399 10.42758,10.42758 0 0 1 -5.1006,-9.564 17.851417,17.851417 0 0 1 -5.6264,-5.8535 h 7.8105 16.4121 6.4512 a 17.851417,17.851417 0 0 1 -4.3447,4.9131 10.42758,10.42758 0 0 1 -1.3272,6.8027 10.42758,10.42758 0 0 1 -9.0717,5.1416 z" />
      </g>
      <path
         d="m 2455.2009,1845.4992 c -3.0849,8.9772 -2.208,18.9146 -6.4601,27.4309 -2.3453,7.5461 -6.1825,14.4281 -2.9727,21.6787 1.7548,7.9081 -7.5438,11.7352 -8.2834,19.3063 0.2289,6.7038 6.0289,10.9992 6.3289,17.051 -3.9126,3.7563 -10.142,10.2045 -2.9693,14.286 6.0868,5.0432 3.2687,14.0374 -1.8383,18.8387 -2.1258,12.4961 -18.4608,15.1113 -19.3593,26.1873 3.1506,6.4046 4.7663,13.5254 0.1429,19.498 -2.5127,8.3068 -18.6799,6.3266 -21.5688,-0.064 -4.7651,-4.1685 1.0352,-10.5896 -1.1787,-15.7952 -2.4544,-4.5559 5.2055,-12.9361 -2.6552,-13.7889 -10.5231,-2.707 -2.5412,-9.6908 -3.3419,-16.8048 1.6788,-8.4928 -2.1415,-11.5131 -9.9381,-9.6019 -7.3955,2.1014 -4.3337,-2.8327 -7.4503,-6.4889 -1.3856,-4.5632 3.3547,-12.4371 9.1973,-10.9799 4.5414,-1.0126 14.6604,0.1706 14.2544,-6.1638 -0.9021,-6.1725 -7.6874,-13.4341 -4.3104,-19.0687 2.4512,-6.5803 -3.547,-15.2261 -3.3926,-22.7327 8e-4,-4.3876 -0.9564,-10.3168 2.9123,-13.3291 -0.1263,-5.7432 -2.1929,-11.6704 0.3143,-17.164 -4.6122,-5.2647 -22.7246,-5.9871 -13.8991,-13.3899 8.6327,-0.067 17.2654,-0.1338 25.8981,-0.2007 0.5689,4.7034 -1.4821,10.2109 2.3258,13.9203 0.6133,9.1897 -0.3629,19.0331 1.219,27.8245 2.8745,5.7125 10.2504,18.3907 14.1676,5.0338 -0.6538,-8.2363 6.9132,-12.4843 9.8427,-19.383 2.9659,-9.1417 8.8604,-17.7248 7.7996,-27.6695 4.7972,0.5075 12.5734,-1.193 15.4826,0.7139 l -0.261,0.8351 z"
         style="fill:#000000;stroke-width:0.198437"
         id="path17350"
         sodipodi:nodetypes="cssscssscccccscsscscccccscssccccccccscscscscsscccssscscsscccccsscssscsscccsscccccssscscccsscccsscccsscccccccccssccscccccccccsscccsscccsscssccccc" />
      <path
         d="m 2254.6565,1844.9504 c 0.4001,7.6533 18.7737,2.3532 13.9931,15.0587 -1.0949,7.9301 1.1959,17.092 -3.2169,23.8604 -0.4855,8.0044 6.2389,12.4286 7.2922,20.0121 3.3623,5.9664 6.8369,9.6685 4.9047,15.1919 0.3666,4.6377 -7.8694,12.198 1.6886,17.6732 3.5259,5.2713 -3.0989,11.9337 1.6514,17.1041 -1.1383,5.6715 11.9706,12.4483 0.9751,11.1108 -5.6315,0.2883 -9.015,7.198 -10.1677,11.9272 -2.9718,5.7702 4.0295,11.4439 0.5644,16.2931 -3.0612,3.5159 -2.6933,10.4389 -2.0854,14.3766 4.281,4.401 9.4167,10.8689 15.4839,5.1485 8.5078,-7.4842 3.4055,-21.8046 16.8734,-24.4721 6.1552,-3.9051 -4.2034,8.6436 0.3645,13.0516 0.9994,10.8788 16.8654,18.5572 22.1819,6.4359 4.0999,-9.0281 2.511,-16.8572 -2.0012,-21.8543 -2.1717,-10.5906 12.4801,-2.0272 12.6006,-12.607 4.4588,-3.4193 4.0396,-10.3162 2.0963,-15.0378 -2.5008,-8.3086 -10.189,-14.6859 -14.5186,-22.5562 -3.0904,-7.6184 6.4198,-10.2811 8.7442,-16.4653 2.6225,-6.5475 -5.2122,-8.3649 -1.3807,-14.0305 -0.4051,-8.6344 3.195,-26.5238 8,-28.3085 1.4688,-5.8736 5.5236,-14.8375 6.3874,-20.4359 -1.117,-3.2671 10.517,-12.8794 1.8407,-11.9833 -4.2926,1.2329 -13.2768,-2.932 -13.9223,2.4971 -1.0709,6.3594 -1.8936,5.0719 -4.4404,11.9861 -3.3423,6.3486 -6.4023,15.0874 -14.716,17.8701 -4.3659,5.7561 -6.7518,12.6786 -9.4103,19.3326 -9.4095,-0.3651 -9.5972,-7.5082 -17.5129,-10.9485 -4.549,-2.9144 -0.912,-9.84 -1.9501,-14.4747 -2.0711,-7.5801 4.1178,-23.4452 -2.4229,-26.7611 -9.1404,-0.071 -18.2808,-0.1417 -27.4212,-0.2126 l -0.3184,0.815 z"
         style="fill:#000000;stroke-width:0.052503"
         id="path17546"
         sodipodi:nodetypes="ccssscsscsscscccssscssscccsscccsscccccsccccccssscccssscssscccssscsscscsssscccssscccssccsscccsssscccccssssscccccscsccccccsscccccccscccsssscscsscsscccssscsccccc" />
      <path
         id="path17968"
         style="fill:#000000;stroke-width:0.513505"
         d="m 2613.9345,2017.3 c -0.783,0.027 -1.5789,-0.028 -2.3749,-0.1739 -11.7578,-0.2008 -16.4578,-15.389 -9.9438,-24.1721 2.7436,-3.8189 3.933,-10.5869 -3.0437,-6.6168 2.1556,8.8728 -6.3983,13.2851 -13.5584,9.5332 -10.106,-0.064 -6.9774,-11.5694 -9.8543,-18.2615 -2.8114,-8.1645 1.6966,-16.7799 10.8346,-17.4499 4.1201,-0.9436 12.1903,3.5045 10.1831,-4.5185 0.9087,-5.5922 -1.9924,-12.559 1.7692,-17.1209 -2.3439,-22.3445 -2.1987,-44.8427 -2.7601,-67.2788 -3.8674,-12.5503 12.5353,-9.4319 20.4908,-11.836 0.096,-0.1318 0.3225,-0.2071 0.7074,-0.2112 1.9705,-5.8439 -16.7968,-9.046 -9.5025,-15.0536 1.9072,-1.3726 4.3318,-0.5255 6.507,-0.7822 6.2396,0.6642 23.7926,-1.6395 28.2161,2.752 1.9497,2.8197 1.2377,6.3011 0.035,9.9599 l 0.036,0.012 c -0.4795,5.0679 7.7083,4.597 7.6599,10.6004 -2.8858,21.5048 -5.1148,43.1521 -10.5362,64.219 -6.5364,11.6529 -0.6347,20.7475 1.3706,32.49 -2.1871,9.8311 -2.6971,21.1708 -12.1623,27.2854 -10.8585,5.7722 0.7194,8.9256 -3.4181,16.3506 -0.2949,5.8343 -5.1739,10.0812 -10.6553,10.2728 z" />
      <path
         d="m 2525.7557,1841.753 c -4.4237,2.508 -3.746,4.8044 3.4057,11.5534 5.0887,4.8024 5.9946,6.0114 5.0098,6.6848 -0.6537,0.4566 -1.7443,0.6018 -2.4063,0.3113 -0.6538,-0.2801 -2.1023,-0.5396 -3.2044,-0.5915 -2.8692,-0.1142 -5.0451,4.3167 -4.3914,8.9375 0.2697,1.8741 0.2905,3.4067 0.1141,3.4067 -0.2387,0 -3.5965,-1.6094 -7.4619,-3.5758 -3.8664,-1.9685 -9.0101,-4.4922 -11.4352,-5.6097 -7.3644,-3.3974 -8.0794,-4.2379 -8.5847,-10.0997 -0.2491,-2.837 -0.7991,-5.6097 -1.238,-6.1607 -0.9754,-1.2369 -5.7362,-1.3096 -7.9507,-0.1142 -1.5243,0.8198 -1.599,1.3449 -1.074,7.5866 0.55,6.6628 0.5293,6.7323 -2.0317,10.3134 -2.5641,3.5706 -2.5818,3.6495 -1.6468,8.2423 0.5914,2.8816 0.6745,5.5473 0.2594,7.0406 -0.3943,1.375 -0.3839,3.7782 0,5.6107 0.3943,1.7641 1.0273,5.5506 1.4019,8.4145 1.7236,13.2201 3.4565,24.2069 4.8086,30.4559 0.8198,3.745 1.7029,8.6148 1.984,10.8178 1.0408,8.1561 3.36,12.5164 7.518,14.1207 1.3075,0.4981 1.7288,1.1342 1.377,2.0504 -0.2801,0.7368 -0.9235,3.7886 -1.4465,6.803 -0.7575,4.4227 -1.1861,5.4032 -2.2206,5.0753 -0.7057,-0.2283 -1.9229,0.1141 -2.7063,0.633 -1.3563,0.9962 -1.3386,1.3055 0.3735,6.6152 0.9859,3.0653 2.367,6.362 3.0696,7.3239 3.7365,5.1199 14.0313,6.857 19.3163,3.2594 4.2005,-2.8588 5.6657,-5.4696 6.4025,-11.4166 0.6226,-5.0317 0.5291,-5.564 -1.0274,-6.8351 -1.597,-1.2919 -1.6228,-1.4953 -0.4151,-3.3289 0.8925,-1.3583 2.8319,-2.3815 6.3714,-3.3579 11.1343,-3.0726 16.0352,-6.5717 19.1898,-13.7046 1.4901,-3.3694 1.7942,-5.7083 1.9872,-15.2269 0.1245,-6.1845 0.2593,-11.5151 0.2905,-11.8451 0,-0.332 1.3479,-2.0245 2.9252,-3.7719 2.7758,-3.0726 2.8495,-3.3144 2.3098,-7.6363 -0.3216,-2.4541 -1.7775,-7.0064 -3.2687,-10.1174 -1.489,-3.1099 -2.7073,-6.6359 -2.7073,-7.8344 0,-1.1975 -0.4046,-2.5839 -0.9028,-3.0767 -0.6537,-0.6537 -0.6641,-2.9585 0,-8.7767 0.4878,-4.3323 0.6849,-9.4989 0.4255,-11.4819 -0.2594,-1.9831 -0.5189,-6.25 -0.6018,-9.4803 -0.135,-6.6027 -0.384,-6.9161 -7.3447,-10.2356 -4.3863,-2.0888 -11.594,-2.5714 -14.4258,-0.9651 z m -16.9307,67.8547 c 1.2774,1.4113 1.2192,1.6323 -1.0969,4.1165 -1.3479,1.4424 -2.5848,2.4852 -2.7446,2.314 -0.1661,-0.1661 -0.6953,-1.736 -1.1602,-3.4804 -0.6537,-2.4146 -0.633,-3.3184 0.1142,-3.7947 1.6426,-1.0409 3.4679,-0.7368 4.8895,0.8508 z"
         style="fill:#000000;stroke-width:0.212044"
         id="path89441-0-3" />
    </g>
  </g>
</svg>
