<?xml version="1.0" encoding="UTF-8" standalone="no"?>
<!-- Created with Inkscape (http://www.inkscape.org/) -->

<svg
   width="23.784916mm"
   height="9.2690725mm"
   viewBox="0 0 23.784916 9.2690725"
   version="1.1"
   id="svg4818"
   sodipodi:docname="inkporter-svg-uj5polbu.svg"
   xmlns:inkscape="http://www.inkscape.org/namespaces/inkscape"
   xmlns:sodipodi="http://sodipodi.sourceforge.net/DTD/sodipodi-0.dtd"
   xmlns="http://www.w3.org/2000/svg"
   xmlns:svg="http://www.w3.org/2000/svg">
  <sodipodi:namedview
     id="namedview4820"
     pagecolor="#ffffff"
     bordercolor="#666666"
     borderopacity="1.0"
     inkscape:pageshadow="2"
     inkscape:pageopacity="0.0"
     inkscape:pagecheckerboard="0"
     inkscape:document-units="mm"
     showgrid="false"
     inkscape:zoom="0.90583672"
     inkscape:cx="459.79589"
     inkscape:cy="582.33453"
     inkscape:window-width="1920"
     inkscape:window-height="1017"
     inkscape:window-x="-8"
     inkscape:window-y="-8"
     inkscape:window-maximized="1"
     inkscape:current-layer="layer1" />
  <defs
     id="defs4815" />
  <g
     inkscape:label="Layer 1"
     inkscape:groupmode="layer"
     id="layer1"
     transform="translate(-71.976669,-145.76508)">
    <g
       id="S-Mortar160mm"
       transform="matrix(0.35277777,0,0,-0.35277777,-252.40932,296.77786)">
      <path
         d="m 933.69846,402.17734 c -0.74907,0.20477 -1.4276,0.37461 -1.50786,0.37742 -0.0802,0.003 -0.14592,0.16076 -0.14592,0.351 0,0.19025 0.17883,0.49902 0.3974,0.68616 l 0.3974,0.34027 -0.12981,0.21005 c -0.0714,0.11553 -0.37018,0.6866 -0.66398,1.26907 l -0.53418,1.05902 -0.46303,-0.93247 -0.46303,-0.93247 -0.81401,-0.56414 -0.81399,-0.56414 h -1.03892 -1.03892 l -0.59889,0.30971 c -0.3294,0.17032 -0.87088,0.61946 -1.20329,0.99806 l -0.6044,0.68836 -0.21654,0.8042 -0.21655,0.8042 0.23555,0.99808 0.23555,0.99805 0.74582,0.71683 0.7458,0.71682 0.92943,0.27004 0.92945,0.27004 -1.02865,0.45078 -1.02866,0.45079 0.0768,0.21616 c 0.0833,0.2345 0.42282,0.24242 0.95906,0.0224 l 0.3405,-0.13971 v 0.27689 0.27688 l -1.16739,0.55797 -1.16739,0.55796 v 0.25607 c 0,0.14084 0.0467,0.25608 0.10375,0.25608 0.057,0 0.5357,-0.21889 1.06364,-0.48642 0.52794,-0.26753 1.09688,-0.48641 1.26431,-0.48641 0.16743,0 0.35224,0.1246 0.41067,0.27689 l 0.10625,0.27689 -1.2241,1.81468 -1.22411,1.81468 -0.0216,0.43085 -0.0215,0.43083 -2.89189,4.41182 -2.89187,4.4118 0.54544,0.46919 0.54545,0.46916 0.30691,-0.0591 0.30693,-0.0591 2.95643,-4.43742 c 1.62603,-2.44055 3.18513,-4.69408 3.46466,-5.00781 0.27954,-0.31373 0.50825,-0.6818 0.50825,-0.81792 0,-0.13611 0.30877,-0.70597 0.68614,-1.26635 l 0.68616,-1.01886 h 0.28667 c 0.15767,0 0.28668,0.0876 0.28668,0.19456 0,0.10701 0.12071,0.19456 0.26824,0.19456 h 0.26825 l 0.20725,-0.53505 c 0.11399,-0.29428 0.23549,-0.71017 0.26999,-0.92418 l 0.0627,-0.38914 0.28866,-0.0262 c 0.15877,-0.0144 0.40541,-0.0364 0.5481,-0.0486 l 0.25941,-0.0224 -0.0794,-0.2381 c -0.0437,-0.13096 0.0322,-0.45302 0.16839,-0.71567 0.13627,-0.26265 0.20093,-0.55334 0.14369,-0.64596 -0.0573,-0.0926 7.8e-4,-0.29485 0.12913,-0.44942 l 0.23323,-0.28102 -0.31374,-0.12041 c -0.17258,-0.0662 -0.31376,-0.17668 -0.31376,-0.2455 0,-0.0688 0.28455,-0.13596 0.63232,-0.14923 0.78319,-0.0299 1.20122,-0.13587 1.26467,-0.32063 0.0268,-0.0779 0.0486,-0.27299 0.0486,-0.4335 v -0.29185 h -0.29184 c -0.16051,0 -0.29185,-0.0521 -0.29185,-0.11589 0,-0.0638 0.17738,-0.365 0.39418,-0.66947 0.2168,-0.30446 0.56794,-0.60871 0.7803,-0.67611 l 0.38611,-0.12254 -0.0409,-0.53667 -0.0409,-0.53666 0.40995,-0.6948 0.40994,-0.69481 -0.0403,-0.58208 -0.0403,-0.58209 0.30154,0.10579 c 0.16585,0.0582 0.44245,0.22627 0.61467,0.37349 0.17224,0.14722 0.61,0.30721 0.97282,0.35555 0.36283,0.0483 0.94425,0.17112 1.29204,0.27286 l 0.63233,0.185 v -0.82306 -0.82304 l -0.23347,-0.23348 c -0.12842,-0.12841 -0.5117,-0.23348 -0.85173,-0.23348 h -0.61824 l -0.19156,-0.2432 c -0.10536,-0.13376 -0.25052,-0.48975 -0.3226,-0.79108 l -0.13103,-0.54788 -0.6678,-0.27902 c -0.36728,-0.15347 -0.86761,-0.27376 -1.11182,-0.26732 -0.24421,0.007 -1.0569,0.17924 -1.80598,0.38401 z m -4.37768,9.23521 c -0.13322,0.16052 -0.3163,0.29185 -0.40685,0.29185 h -0.16463 l 0.11198,-0.29185 c 0.0616,-0.16051 0.24468,-0.29185 0.40685,-0.29185 h 0.29486 z"
         id="S-Mortar-160mm-5"
         style="stroke-width:0.735364" />
      <path
         style="fill:#000000;stroke-width:0.0972265"
         d="m 945.56982,402.33918 c -0.1773,0.051 -0.3084,0.1354 -0.291,0.1874 0.016,0.052 0.2459,0.2577 0.5081,0.4573 0.625,0.4757 0.7253,0.6405 0.528,0.8677 -0.084,0.097 -0.2462,0.5491 -0.3605,1.0053 -0.2786,1.112 -0.2843,2.4274 -0.013,3.0596 0.2408,0.5612 0.2429,0.5348 -0.045,0.5348 -0.3756,0 -0.5514,0.5116 -0.272,0.7909 0.1254,0.1257 -0.2332,0.7613 -0.4308,0.7634 -0.1669,0 -0.4187,0.3955 -0.4187,0.6548 0,0.1218 -0.044,0.2214 -0.097,0.2214 -0.053,0 -0.097,0.1422 -0.096,0.316 0,0.252 0.1296,0.4578 0.6357,1.0163 0.4505,0.4969 0.6758,0.8382 0.776,1.1753 0.3137,1.0568 0.9396,1.5067 1.774,1.2755 0.2331,-0.064 0.5158,-0.2342 0.6437,-0.3861 l 0.228,-0.271 0.1103,0.2114 c 0.06,0.1164 0.1882,0.5224 0.2834,0.9025 0.1594,0.6362 0.3736,1.0136 0.5723,1.0082 0.044,0 0.1892,-0.088 0.3229,-0.1938 l 0.243,-0.1917 -0.2197,-0.061 c -0.1324,-0.037 -0.243,-0.1627 -0.2779,-0.3166 -0.033,-0.1407 -0.1217,-0.4839 -0.1993,-0.7627 -0.078,-0.2787 -0.1494,-0.7101 -0.1598,-0.9585 -0.015,-0.3888 0.017,-0.4772 0.2397,-0.6355 0.1421,-0.1013 0.303,-0.184 0.3578,-0.184 0.1613,0 1.1929,-0.9992 1.3047,-1.2638 0.056,-0.1338 0.1142,-0.44 0.1282,-0.6807 0.013,-0.2405 0.07,-0.7637 0.1243,-1.1624 0.054,-0.3986 0.079,-0.7566 0.055,-0.7955 -0.078,-0.1267 -0.2386,-0.9855 -0.3757,-2.0125 l -0.1341,-1.0051 0.3821,-0.3936 c 0.2101,-0.2165 0.4052,-0.5082 0.4335,-0.6478 0.028,-0.1399 0.094,-0.4124 0.1445,-0.6058 0.2087,-0.7912 0.031,-1.2641 -0.5291,-1.4046 -0.5538,-0.139 -0.6325,-0.031 -0.67,0.9189 l -0.02,0.5237 -0.4699,0.1195 c -0.9139,0.2325 -1.1016,0.5273 -1.1751,1.8469 -0.064,1.1514 -0.2213,1.4297 -0.5821,1.0309 -0.092,-0.1012 -0.3556,-0.2319 -0.5862,-0.2899 -0.5817,-0.1465 -0.7601,-0.4376 -0.6445,-1.0514 0.2646,-1.4047 0.3978,-3.2002 0.2517,-3.3917 -0.2113,-0.277 -1.3454,-0.4044 -1.9779,-0.2222 z m 0.9058,8.64 c -0.1494,0.2418 -0.3875,-0.055 -0.2763,-0.3448 0.049,-0.1264 0.08,-0.1187 0.197,0.049 0.077,0.1094 0.1123,0.2427 0.079,0.296 z"
         id="path87122-6-6"
         sodipodi:nodetypes="cssssssscsscsssscsscscccscssscscscsccsccsssssscccssc" />
      <path
         d="m 956.84907,402.34468 c -0.4115,0.097 -0.6829,0.4094 -0.6829,0.7863 0,0.3198 -0.053,0.3365 -0.447,0.1408 -0.4679,-0.2325 -1.1524,-0.3804 -1.4335,-0.31 -0.2957,0.074 -0.6466,0.5715 -0.6471,0.9174 0,0.1231 0.093,0.4285 0.2066,0.6785 0.2126,0.4666 1.1858,1.8077 1.4983,2.0646 0.2964,0.2436 0.7254,0.9942 0.7254,1.2692 0,0.1435 0.061,0.3119 0.1369,0.3744 0.1149,0.096 0.076,0.2179 -0.2431,0.764 -0.2089,0.3575 -0.38,0.7468 -0.38,0.8647 0,0.118 -0.042,0.2404 -0.093,0.2718 -0.051,0.032 -0.4692,-0.1462 -0.9296,-0.3952 -0.7189,-0.3886 -0.8924,-0.4449 -1.2315,-0.3994 -0.5179,0.07 -0.5895,0.1564 -0.6412,0.7784 -0.04,0.4815 -0.018,0.5512 0.2775,0.8879 0.1764,0.2008 0.4152,0.4011 0.5307,0.445 0.1799,0.068 0.2184,0.181 0.269,0.785 0.064,0.771 0.1683,0.9409 0.6733,1.104 0.2741,0.089 0.3344,0.1688 0.4357,0.5796 0.2065,0.8361 0.81,1.2396 1.6255,1.0866 0.4759,-0.09 0.7117,-0.3226 0.9272,-0.9172 0.1874,-0.5175 0.1873,-0.5223 -0.01,-0.7832 -0.1067,-0.1444 -0.1682,-0.3297 -0.1368,-0.4119 0.065,-0.1681 0.7295,-0.5691 0.9435,-0.5691 0.2162,0 0.7116,-0.4932 0.9279,-0.9237 0.1073,-0.2139 0.2466,-0.717 0.3092,-1.1181 0.062,-0.401 0.1649,-0.9152 0.2274,-1.1424 0.097,-0.3536 0.1507,-0.4132 0.3714,-0.4132 0.2368,0 0.2664,-0.046 0.3634,-0.559 0.1248,-0.6606 0.1628,-1.4722 0.078,-1.6772 -0.034,-0.08 -0.049,-0.2771 -0.037,-0.4375 0.018,-0.2344 -0.017,-0.2975 -0.1888,-0.3219 -0.1767,-0.024 -0.2173,0.024 -0.243,0.2917 -0.051,0.5296 -0.2267,0.2676 -0.2082,-0.3101 0.024,-0.7811 0.1042,-1.6173 0.1739,-1.8364 0.033,-0.1051 0,-0.341 -0.078,-0.5242 -0.1152,-0.2758 -0.215,-0.3523 -0.5792,-0.444 -0.242,-0.061 -0.5774,-0.084 -0.7453,-0.05 -0.2433,0.049 -0.3588,0.011 -0.5675,-0.1833 -0.2775,-0.2587 -0.634,-0.4693 -0.7664,-0.4527 -0.044,0.01 -0.2312,0.046 -0.4172,0.09 z m -1.6553,10.2609 c 0,0.1572 -0.018,0.164 -0.2308,0.083 -0.1177,-0.045 -0.1245,-0.084 -0.033,-0.1842 0.1366,-0.1478 0.2631,-0.099 0.2631,0.1012 z"
         style="fill:#000000;stroke-width:0.0257245"
         id="path87571-6-3" />
      <path
         d="m 935.78397,402.33978 c -0.2368,0.046 -0.463,0.1139 -0.5025,0.1515 -0.1337,0.1267 0.2084,0.4717 0.5303,0.5348 0.1757,0.035 0.5036,0.1595 0.729,0.278 0.4595,0.2418 0.451,0.1312 0.112,1.4837 -0.1072,0.4279 -0.2794,1.0092 -0.3826,1.292 -0.2581,0.7071 -0.2458,1.1959 0.037,1.4612 0.2622,0.2463 1.3263,0.6982 1.6455,0.6989 0.1214,0 0.3643,0.088 0.5399,0.1948 0.2791,0.1702 0.3055,0.2201 0.2104,0.3977 l -0.1087,0.203 -0.2426,-0.2278 c -0.2056,-0.1931 -0.3489,-0.2291 -0.9396,-0.2362 -0.4626,-0.01 -0.8279,0.048 -1.086,0.16 -0.7024,0.304 -1.1145,0.3626 -1.8253,0.2593 -0.4564,-0.066 -0.4667,-0.062 -0.6214,0.2624 -0.087,0.1815 -0.1303,0.4004 -0.097,0.4868 0.084,0.2164 0.4484,0.3347 0.7592,0.2456 0.2079,-0.059 0.3233,-0.018 0.5843,0.2039 0.3939,0.3371 0.5366,0.35 0.8292,0.075 0.1849,-0.1737 0.2633,-0.1925 0.4437,-0.1061 0.1205,0.057 0.2848,0.1256 0.3649,0.1506 0.1642,0.051 0.558,1.1852 0.6097,1.7548 0.034,0.3624 0.026,0.3715 -0.2382,0.3187 -0.1497,-0.03 -0.3368,-0.029 -0.4158,0 -0.1949,0.075 -0.6362,0.882 -0.6362,1.1638 0,0.1372 -0.087,0.2724 -0.2188,0.3411 -0.1202,0.062 -0.2313,0.124 -0.2465,0.1365 -0.084,0.069 0.4074,1.1209 0.6152,1.316 0.3622,0.3402 1.344,0.3936 1.7242,0.094 0.3252,-0.2566 0.5645,-0.7848 0.5951,-1.3129 0.017,-0.3006 0.065,-0.3951 0.2107,-0.4165 0.6989,-0.1031 1.221,-0.3525 1.6011,-0.7651 0.2219,-0.2406 0.4161,-0.4233 0.4314,-0.4058 0.015,0.016 -0.033,0.3749 -0.1046,0.7941 -0.1978,1.1379 -0.01,1.3635 0.7415,0.8892 0.4378,-0.2763 0.4444,-0.3051 0.2346,-1.0116 -0.084,-0.2824 -0.1276,-0.5384 -0.097,-0.5689 0.032,-0.031 -0.016,-0.1355 -0.1057,-0.2334 -0.1464,-0.1618 -0.1472,-0.1936 -0.01,-0.3483 0.084,-0.094 0.167,-0.2784 0.1852,-0.4107 0.018,-0.1323 0.1313,-0.2893 0.2512,-0.349 0.3923,-0.1946 0.6217,-0.4679 0.909,-1.0824 0.3166,-0.677 0.371,-1.365 0.1428,-1.8026 -0.1023,-0.1951 -0.1146,-0.3506 -0.048,-0.5826 0.1694,-0.5909 0.098,-0.6775 -0.8085,-0.9837 -0.094,-0.032 -0.1701,-0.1469 -0.1701,-0.2562 0,-0.1093 -0.041,-0.2748 -0.091,-0.3677 -0.1919,-0.3595 -0.3249,-0.8336 -0.2181,-0.7775 0.7286,0.3823 1.4302,0.6503 1.8272,0.6981 0.4454,0.054 0.5134,0.037 0.6421,-0.1606 0.1534,-0.2351 0.2404,-0.6009 0.3315,-1.3945 0.094,-0.8177 -0.4756,-1.7045 -0.8052,-1.2538 -0.073,0.099 -0.1317,0.3181 -0.1317,0.4869 0,0.18 -0.078,0.377 -0.1886,0.4773 -0.181,0.1638 -0.2157,0.158 -0.8508,-0.1401 -0.3641,-0.1708 -0.7641,-0.4049 -0.8887,-0.5201 -0.1866,-0.1727 -0.3713,-0.2156 -1.0473,-0.2439 -0.5513,-0.023 -0.8681,0 -0.9646,0.084 -0.1091,0.091 -0.1439,0.3554 -0.1452,1.1039 0,0.5415 -0.034,1.0326 -0.073,1.0913 -0.094,0.1393 -0.913,0.2473 -1.0825,0.1425 -0.1092,-0.068 -0.1109,-0.1871 -0.01,-0.7 0.195,-0.9942 0.3578,-2.6031 0.2767,-2.7341 -0.089,-0.1432 -2.0331,-0.1724 -2.7137,-0.041 z"
         style="fill:#000000;stroke-width:0.0257245"
         id="path87588-9-1" />
      <path
         d="m 974.933,402.34003 c -0.40916,0.23198 -0.34649,0.44439 0.31501,1.06864 0.47068,0.4442 0.55447,0.55601 0.46339,0.6183 -0.0605,0.0422 -0.16135,0.0557 -0.22258,0.0288 -0.0605,-0.0259 -0.19446,-0.0499 -0.29639,-0.0547 -0.26538,-0.0106 -0.46665,0.39928 -0.40618,0.82667 0.0249,0.17334 0.0269,0.31511 0.0105,0.31511 -0.0221,0 -0.33266,-0.14887 -0.69019,-0.33075 -0.35762,-0.18207 -0.83339,-0.4155 -1.0577,-0.51887 -0.68117,-0.31424 -0.7473,-0.39198 -0.79404,-0.93417 -0.023,-0.26241 -0.0739,-0.51887 -0.11451,-0.56983 -0.0902,-0.11441 -0.53057,-0.12113 -0.73539,-0.0106 -0.141,0.0758 -0.14791,0.12439 -0.0993,0.70171 0.0509,0.61628 0.049,0.62272 -0.18793,0.95394 -0.23717,0.33027 -0.2388,0.33756 -0.15232,0.76237 0.0547,0.26654 0.0624,0.51311 0.024,0.65123 -0.0365,0.12717 -0.0355,0.34946 0,0.51896 0.0365,0.16317 0.095,0.5134 0.12967,0.7783 0.15942,1.22279 0.31971,2.23902 0.44477,2.81701 0.0758,0.3464 0.15751,0.79683 0.18352,1.0006 0.0963,0.7544 0.31078,1.15771 0.69537,1.30609 0.12094,0.0461 0.1599,0.10491 0.12737,0.18966 -0.0259,0.0681 -0.0854,0.35042 -0.1338,0.62924 -0.0701,0.40907 -0.1097,0.49977 -0.2054,0.46944 -0.0653,-0.0211 -0.17785,0.0106 -0.25031,0.0586 -0.12545,0.0921 -0.12382,0.12074 0.0346,0.61187 0.0912,0.28353 0.21893,0.58845 0.28391,0.67743 0.34562,0.47356 1.29784,0.63423 1.78667,0.30147 0.38852,-0.26442 0.52405,-0.50591 0.59219,-1.05597 0.0576,-0.46541 0.0489,-0.51465 -0.095,-0.63222 -0.14771,-0.1195 -0.15011,-0.13831 -0.0384,-0.3079 0.0825,-0.12564 0.26193,-0.22028 0.58932,-0.3106 1.02986,-0.28419 1.48318,-0.60784 1.77496,-1.2676 0.13782,-0.31165 0.16595,-0.52799 0.1838,-1.40841 0.0115,-0.57204 0.024,-1.06509 0.0269,-1.09562 0,-0.0307 0.12468,-0.18725 0.27057,-0.34888 0.25675,-0.2842 0.26356,-0.30656 0.21365,-0.70632 -0.0298,-0.22699 -0.16441,-0.64806 -0.30233,-0.9358 -0.13774,-0.28766 -0.25042,-0.6138 -0.25042,-0.72465 0,-0.11076 -0.0374,-0.23899 -0.0835,-0.28458 -0.0605,-0.0605 -0.0614,-0.27364 -1.9e-4,-0.8118 0.0451,-0.40072 0.0633,-0.8786 0.0393,-1.06202 -0.024,-0.18342 -0.048,-0.57809 -0.0557,-0.87688 -0.0125,-0.61072 -0.0355,-0.6397 -0.67934,-0.94674 -0.40571,-0.19321 -1.07239,-0.23784 -1.33432,-0.0893 z m -1.56601,6.27623 c 0.11815,0.13053 0.11278,0.15097 -0.10145,0.38075 -0.12468,0.13341 -0.23909,0.22987 -0.25387,0.21403 -0.0154,-0.0154 -0.0643,-0.16057 -0.1073,-0.32191 -0.0605,-0.22335 -0.0585,-0.30695 0.0106,-0.351 0.15194,-0.0963 0.32077,-0.0682 0.45226,0.0787 z"
         style="fill:#000000;stroke-width:0.019613"
         id="path89441-6" />
      <path
         d="m 980.30657,402.37498 c -0.3794,0.04 -0.511,0.2022 -0.3283,0.4042 0.076,0.083 0.2604,0.1865 0.411,0.2292 0.1506,0.044 0.3846,0.1733 0.52,0.2899 l 0.2462,0.212 -0.075,0.8728 c -0.1005,1.1754 -0.2134,1.9465 -0.3467,2.3624 -0.1989,0.6217 -0.1667,1.1998 0.099,1.756 0.1286,0.2703 0.2758,0.6286 0.3271,0.7964 0.052,0.1678 0.1765,0.4737 0.2783,0.6801 0.1281,0.2594 0.1705,0.4414 0.1376,0.5911 -0.047,0.2116 -0.058,0.2159 -0.5724,0.2159 -0.4472,0 -0.5374,-0.023 -0.6068,-0.1525 -0.1225,-0.2287 -0.3223,-0.179 -0.5191,0.1293 -0.2473,0.3872 -0.2886,0.6676 -0.1335,0.9044 0.1053,0.1608 0.1111,0.2181 0.032,0.3132 -0.053,0.064 -0.1045,0.3599 -0.1143,0.6621 -0.01,0.3002 -0.089,0.8473 -0.1754,1.2161 -0.1953,0.8306 -0.1955,0.9389 0,1.298 0.1317,0.2458 0.1425,0.333 0.074,0.5908 -0.045,0.1664 -0.072,0.361 -0.059,0.4326 0.014,0.092 -0.045,0.143 -0.2066,0.1733 -0.2128,0.04 -0.2278,0.065 -0.2153,0.3548 0.036,0.8381 0.3851,1.3802 1.0249,1.5927 0.645,0.2143 1.2994,0.018 1.6881,-0.5073 0.1565,-0.2113 0.3924,-1.1749 0.3285,-1.3416 -0.021,-0.054 -0.012,-0.098 0.017,-0.1 0.3366,0 1.4195,-0.175 1.7058,-0.27 0.6679,-0.2219 1.2851,-0.8676 1.2851,-1.3445 0,-0.3254 0.269,-0.9494 0.5055,-1.1727 0.1357,-0.1278 0.2706,-0.3339 0.2997,-0.4574 0.03,-0.1236 0.156,-0.4083 0.2819,-0.6326 0.2144,-0.3816 0.2259,-0.4427 0.1799,-0.9533 -0.04,-0.4405 -0.019,-0.6289 0.1039,-0.9799 0.1673,-0.4754 0.2056,-0.9185 0.1215,-1.4081 -0.044,-0.2642 -0.024,-0.3664 0.1328,-0.6101 l 0.1872,-0.2928 -0.026,-1.9065 c -0.014,-1.0487 -0.025,-2.159 -0.024,-2.4673 0,-0.621 -0.088,-0.9196 -0.3229,-1.0663 -0.2242,-0.14 -0.8323,-0.1933 -1.0854,-0.095 -0.2044,0.08 -0.2133,0.1016 -0.1619,0.4074 0.031,0.1778 0.1348,0.4779 0.2331,0.6666 0.1674,0.3208 0.1778,0.4158 0.1587,1.455 -0.018,1.0143 -0.035,1.1309 -0.1884,1.3259 -0.092,0.1177 -0.1683,0.2435 -0.1683,0.2795 0,0.036 -0.1498,0.3834 -0.3325,0.7723 -0.1829,0.3888 -0.3886,0.8997 -0.4572,1.1354 -0.069,0.2357 -0.1878,0.5067 -0.2653,0.6024 l -0.1409,0.174 -0.2268,-0.3365 c -0.1247,-0.185 -0.3242,-0.508 -0.4434,-0.7178 -0.1191,-0.2096 -0.3462,-0.5459 -0.5049,-0.7472 -0.2256,-0.2866 -0.2998,-0.4601 -0.342,-0.8008 -0.03,-0.2391 -0.094,-0.555 -0.1449,-0.7017 -0.062,-0.1833 -0.074,-0.4824 -0.034,-0.9533 0.031,-0.3775 0.08,-1.1203 0.1074,-1.6505 0.048,-0.9273 0.043,-0.9685 -0.1124,-1.0783 -0.1269,-0.089 -0.2104,-0.096 -0.3774,-0.033 -0.1684,0.063 -0.2723,0.054 -0.4833,-0.047 -0.2553,-0.1211 -0.6281,-0.1419 -1.2886,-0.072 z"
         style="fill:#000000;stroke-width:0.0201779"
         id="path89458-7" />
      <path
         d="m 961.69575,402.89527 c -0.063,0.14943 -0.0738,0.56729 -0.0315,1.18173 0.01,0.0817 0.0463,0.21567 0.0896,0.29747 l 0.0797,0.14874 -0.14194,0.20907 -0.14204,0.20918 v 0.66267 0.66257 l -0.27277,-0.0128 c -0.15011,-0.01 -0.43686,0.0226 -0.63727,0.065 l -0.36441,0.0768 -0.0453,0.11674 c -0.06,0.15701 0.0305,0.71898 0.15662,0.9694 l 0.10188,0.20248 -0.0443,0.16823 c -0.0236,0.0925 -0.01,0.21193 0.0325,0.26528 0.0423,0.0532 0.12048,0.23202 0.17364,0.3969 l 0.0965,0.29993 0.26253,0.10966 0.26243,0.10956 0.11143,0.21419 c 0.061,0.11773 0.19806,0.31431 0.30378,0.43686 0.24353,0.28183 0.35102,0.64131 0.41166,1.37702 0.0256,0.32061 0.0984,0.74251 0.15917,0.93761 l 0.11113,0.35466 0.33025,0.27247 c 0.18162,0.14982 0.49395,0.36707 0.69398,0.48273 0.61729,0.35703 1.22641,1.19256 1.2337,1.69261 0,0.20622 0.23132,0.98525 0.33694,1.14983 l 0.062,0.0974 h 0.62418 0.62418 l 0.1702,-0.0896 c 0.0935,-0.0492 0.27936,-0.20003 0.41254,-0.33547 l 0.24215,-0.24629 0.0532,-0.35447 0.0532,-0.35447 -0.0758,-0.33694 -0.0758,-0.33695 -0.12225,-0.0679 -0.12206,-0.0679 v -0.2203 -0.2205 l -0.12157,-0.1008 c -0.0669,-0.0551 -0.17315,-0.2263 -0.23635,-0.37986 -0.063,-0.15346 -0.17236,-0.32228 -0.24254,-0.37524 l -0.12767,-0.0965 0.12452,-0.13761 c 0.0679,-0.0758 0.22512,-0.38321 0.34807,-0.68334 0.12294,-0.30013 0.29412,-0.65785 0.38025,-0.79477 l 0.15671,-0.24895 0.21007,0.22247 c 0.11556,0.12245 0.20996,0.29245 0.20996,0.37779 v 0.15534 l 0.24717,0.0866 0.24708,0.0866 0.3397,-0.16439 c 0.18673,-0.0906 0.42938,-0.28211 0.53904,-0.42593 l 0.19953,-0.26154 -0.0571,-0.1008 c -0.0315,-0.0551 -0.11802,-0.17098 -0.19214,-0.25672 l -0.13506,-0.15592 -0.0413,-0.38971 c -0.0974,-0.91526 -0.22424,-1.74586 -0.33193,-2.17455 l -0.11546,-0.4595 0.15858,-0.11113 0.15868,-0.11114 v -0.28684 c 0,-0.15779 0.01,-0.42721 0.0177,-0.59869 l 0.0187,-0.31184 0.3588,-0.0226 0.3588,-0.0236 0.13013,0.19864 c 0.12235,0.18693 0.36047,0.27563 0.36047,0.13447 0,-0.0354 0.11399,-0.0679 0.25338,-0.0719 0.13928,-0.01 0.58333,-0.0404 0.98672,-0.0787 l 0.73335,-0.0709 0.14607,-0.18044 0.14608,-0.18033 0.38725,-0.0364 0.38735,-0.0364 v -0.16547 c 0,-0.0906 -0.0305,-0.21105 -0.065,-0.26677 -0.0728,-0.11467 -0.72154,-0.32749 -0.99814,-0.32749 h -0.1825 l -0.0128,-0.25338 c -0.01,-0.13928 -0.0207,-0.30594 -0.0305,-0.37021 -0.01,-0.065 -0.0207,-0.37131 -0.0256,-0.68207 l -0.01,-0.56522 h -4.85959 -4.85959 z m 4.9599,4.07761 v 0.3462 h 0.11694 0.11694 v 0.66258 0.66267 h -0.19648 c -0.29097,0 -0.78798,0.34698 -1.01723,0.71011 l -0.2015,0.31913 -0.19628,-0.18328 -0.19629,-0.18339 0.0433,-0.31893 0.0433,-0.31884 -0.0807,-0.0807 -0.0807,-0.0807 0.15888,-0.31145 c 0.0876,-0.17128 0.21469,-0.33291 0.2829,-0.359 0.0679,-0.0256 0.15898,-0.14824 0.2019,-0.27129 0.0423,-0.12304 0.16281,-0.26912 0.26656,-0.32464 0.10375,-0.0561 0.27877,-0.23723 0.38902,-0.40379 l 0.20042,-0.30278 0.0748,0.0463 c 0.0413,0.0256 0.0748,0.20209 0.0748,0.39246 z"
         style="fill:#000000;stroke-width:0.0206253"
         id="path109895-4" />
    </g>
  </g>
</svg>
