<?xml version="1.0" encoding="UTF-8" standalone="no"?>
<!-- Created with Inkscape (http://www.inkscape.org/) -->

<svg
   width="16.157047mm"
   height="6.162529mm"
   viewBox="0 0 16.157047 6.162529"
   version="1.1"
   id="svg5"
   sodipodi:docname="inkporter-svg-nf37mc8h.svg"
   xmlns:inkscape="http://www.inkscape.org/namespaces/inkscape"
   xmlns:sodipodi="http://sodipodi.sourceforge.net/DTD/sodipodi-0.dtd"
   xmlns="http://www.w3.org/2000/svg"
   xmlns:svg="http://www.w3.org/2000/svg">
  <sodipodi:namedview
     id="namedview7"
     pagecolor="#ffffff"
     bordercolor="#666666"
     borderopacity="1.0"
     inkscape:pageshadow="2"
     inkscape:pageopacity="0.0"
     inkscape:pagecheckerboard="0"
     inkscape:document-units="mm"
     showgrid="false"
     inkscape:object-paths="true"
     inkscape:snap-smooth-nodes="true"
     inkscape:zoom="5.1241863"
     inkscape:cx="-87.818821"
     inkscape:cy="-454.02331"
     inkscape:window-width="1920"
     inkscape:window-height="1017"
     inkscape:window-x="-8"
     inkscape:window-y="-8"
     inkscape:window-maximized="1"
     inkscape:current-layer="layer1" />
  <defs
     id="defs2" />
  <g
     inkscape:label="Layer 1"
     inkscape:groupmode="layer"
     id="layer1"
     transform="translate(27.06419,137.51441)">
    <g
       id="S-Motorsikili"
       transform="translate(-492.78856,-90.389233)">
      <g
         id="g22186">
        <path
           style="fill:#000000;stroke-width:0.00350185"
           d="m 472.21895,-40.964755 c 0.16503,-0.01596 0.32767,-0.06894 0.46501,-0.151446 0.0815,-0.049 0.14256,-0.09819 0.22078,-0.178048 0.0573,-0.05856 0.0912,-0.09943 0.12864,-0.155421 0.0113,-0.01733 0.0215,-0.03204 0.022,-0.03267 9.7e-4,-0.0011 0.21805,-0.04262 0.26067,-0.04986 0.0826,-0.01405 0.0982,-0.01997 0.10944,-0.04207 0.005,-0.0098 0.0707,-0.363719 0.11156,-0.600283 0.004,-0.02119 0.01,-0.05507 0.0135,-0.07529 0.004,-0.02022 0.0113,-0.06376 0.0175,-0.09675 l 0.0113,-0.05999 -0.0404,-0.365488 c -0.0242,-0.21872 -0.0426,-0.371113 -0.0457,-0.379496 -0.005,-0.01288 -0.0322,-0.0457 -0.10656,-0.127817 -0.0149,-0.01638 -0.0386,-0.04316 -0.0528,-0.05953 -0.0142,-0.01637 -0.0267,-0.03055 -0.0278,-0.03152 -9.6e-4,-9.73e-4 -0.0136,-0.01515 -0.028,-0.03152 -0.0143,-0.01637 -0.0332,-0.0375 -0.042,-0.04694 l -0.0159,-0.01718 0.014,0.0083 c 0.008,0.0046 0.0361,0.0227 0.063,0.04027 0.1167,0.07608 0.15401,0.09009 0.2052,0.07702 0.0502,-0.0128 0.0731,-0.03458 0.1759,-0.166607 0.11282,-0.144898 0.12689,-0.170293 0.12434,-0.223407 -0.003,-0.03555 -0.0113,-0.05508 -0.043,-0.08675 -0.0199,-0.01993 -0.069,-0.05428 -0.24971,-0.174793 l -0.22496,-0.149979 0.0131,-0.006 c 0.0223,-0.01014 0.0285,-0.02006 0.0364,-0.05809 0.006,-0.02816 0.006,-0.04208 0.005,-0.07486 -0.002,-0.04521 -0.006,-0.06137 -0.0169,-0.0753 -0.0125,-0.0159 -0.0259,-0.01925 -0.0771,-0.01923 -0.0622,4e-5 -0.1557,0.01658 -0.22088,0.03913 l -0.0205,0.0071 -0.34206,-0.227786 c -0.21177,-0.141019 -0.35397,-0.233478 -0.37334,-0.242727 -0.0283,-0.01352 -0.0343,-0.01506 -0.063,-0.01628 -0.0382,-0.0016 -0.0605,0.0054 -0.0924,0.0289 -0.0173,0.01277 -0.0564,0.05559 -0.0754,0.0828 -0.005,0.0064 -0.01,0.0079 -0.0384,0.01002 -0.0543,0.0041 -0.0615,0.01345 -0.0645,0.08344 l -0.002,0.04299 -0.019,0.02532 c -0.0416,0.05546 -0.057,0.08979 -0.057,0.126796 0,0.03785 0.0143,0.06812 0.0472,0.09988 0.009,0.0086 0.0182,0.02048 0.0204,0.02627 0.002,0.0071 0.004,0.0312 0.002,0.07425 -9.6e-4,0.05617 -0.002,0.06396 -0.008,0.06557 -0.004,0.001 -0.0202,0.0035 -0.0374,0.0056 -0.0883,0.01064 -0.083,0.0095 -0.0944,0.02086 l -0.0113,0.01064 -9.7e-4,0.08573 -9.8e-4,0.08573 h -0.0471 -0.0471 l -0.0706,-0.03533 c -0.0611,-0.03055 -0.0722,-0.03507 -0.0831,-0.03338 -0.008,0.0011 -0.029,0.0036 -0.0493,0.0058 -0.0202,0.0021 -0.058,0.0078 -0.084,0.01268 -0.0475,0.009 -0.052,0.01052 -0.18568,0.06426 -0.0464,0.01867 -0.0605,0.02236 -0.16459,0.04334 -0.0626,0.01261 -0.12484,0.02548 -0.13829,0.0286 -0.0189,0.0044 -0.0383,0.0054 -0.0858,0.0045 l -0.0614,-0.0011 -0.0421,-0.0175 -0.0421,-0.0175 -0.13219,-9.74e-4 c -0.0923,-6.83e-4 -0.13441,1.81e-4 -0.1395,0.0029 -0.0144,0.0078 -0.0172,0.02308 -0.0172,0.09525 0,0.07753 9.8e-4,0.07997 0.0273,0.08814 0.009,0.0028 0.0145,0.0051 0.0125,0.0053 -0.008,4.15e-4 -0.0323,0.02508 -0.0419,0.04158 -0.005,0.0086 -0.0125,0.02467 -0.0165,0.0357 l -0.008,0.02003 -0.0682,-0.03726 c -0.0376,-0.0205 -0.0927,-0.05046 -0.12258,-0.0666 -0.0298,-0.01614 -0.061,-0.03314 -0.069,-0.0378 l -0.0148,-0.0085 0.0113,-0.01987 c 0.006,-0.01089 0.0161,-0.02564 0.0224,-0.03269 0.0134,-0.0152 0.0173,-0.02189 0.0302,-0.05186 0.0173,-0.04041 0.0142,-0.04554 -0.0476,-0.07509 -0.0253,-0.01215 -0.11858,-0.0572 -0.20717,-0.100083 -0.0886,-0.04288 -0.17368,-0.08391 -0.18909,-0.09113 -0.0154,-0.0073 -0.0656,-0.03144 -0.11157,-0.05382 -0.0838,-0.04081 -0.0992,-0.04579 -0.11181,-0.03629 -0.006,0.0046 -0.0234,0.03858 -0.048,0.09455 -0.01,0.02336 -0.0168,0.03406 -0.0207,0.03388 -0.002,-1.44e-4 -0.0269,-0.0076 -0.0528,-0.01668 l -0.0472,-0.01642 -4.9e-4,-0.02448 c -3.4e-4,-0.01346 -0.003,-0.0292 -0.005,-0.03497 -0.01,-0.02519 -0.0497,-0.05158 -0.0948,-0.06259 -0.0125,-0.003 -0.0711,-0.01504 -0.13019,-0.02663 -0.12743,-0.02499 -0.15774,-0.02696 -0.18745,-0.01215 -0.01,0.0049 -0.0218,0.01397 -0.0264,0.02013 -0.009,0.01202 -0.0193,0.03709 -0.0208,0.05148 -9.8e-4,0.0086 -0.001,0.0088 -0.0448,0.01077 -0.024,0.0011 -0.0522,0.004 -0.0624,0.0065 -0.01,0.0024 -0.0194,0.0036 -0.0204,0.0026 -9.8e-4,-9.74e-4 0.008,-0.01102 0.0194,-0.02223 0.0186,-0.01797 0.0228,-0.02478 0.0353,-0.05641 0.0163,-0.04142 0.017,-0.04951 0.006,-0.06207 -0.008,-0.008 -0.027,-0.01422 -0.16287,-0.05042 -0.0853,-0.02271 -0.15559,-0.04193 -0.15631,-0.04271 -10e-4,-0.0018 0.013,-0.07033 0.0238,-0.11154 l 0.008,-0.02957 0.0979,-0.06062 c 0.0538,-0.03333 0.1043,-0.06511 0.11219,-0.07061 0.0113,-0.0083 0.0189,-0.01027 0.0417,-0.01177 0.0178,-0.0011 0.0329,-9.3e-5 0.0432,0.003 0.0208,0.0063 0.0556,0.006 0.074,-3.97e-4 0.0437,-0.01543 0.0878,-0.07523 0.0878,-0.119089 0,-0.03222 -0.0262,-0.06944 -0.0624,-0.08876 -0.0187,-0.0099 -0.0239,-0.01114 -0.0501,-0.01102 -0.0161,4e-5 -0.0387,0.0023 -0.0503,0.005 -0.0185,0.0044 -0.0244,0.0043 -0.0491,-6.34e-4 -0.0169,-0.0034 -0.0473,-0.0058 -0.077,-0.0059 -0.0533,-3.15e-4 -0.0619,0.0021 -0.0719,0.02086 -0.004,0.006 -0.006,0.0081 -0.01,0.0064 -0.002,-0.0013 -0.0141,-0.004 -0.0248,-0.0059 -0.0269,-0.0049 -0.0547,0.0035 -0.0754,0.02253 -0.0203,0.01868 -0.0269,0.03706 -0.0274,0.07597 l -4.9e-4,0.03116 -0.0435,0.03765 -0.0435,0.03765 -0.0159,-0.0023 c -0.009,-0.0012 -0.0289,-0.0031 -0.0447,-0.0044 -0.0283,-0.0023 -0.0289,-0.002 -0.0387,0.0079 -0.009,0.0084 -0.0125,0.01859 -0.0215,0.05956 l -0.0113,0.04943 -0.0262,-0.0083 c -0.0144,-0.0046 -0.0472,-0.01215 -0.0729,-0.01693 -0.0257,-0.0048 -0.0614,-0.01177 -0.0794,-0.01574 -0.0179,-0.0039 -0.0402,-0.0071 -0.0495,-0.0071 -0.0257,0 -0.0366,0.0124 -0.0572,0.06566 l -0.0168,0.0429 h -0.0125 c -0.006,0 -0.0468,-0.0033 -0.0895,-0.0073 -0.0427,-0.004 -0.11858,-0.01089 -0.16871,-0.01544 -0.0501,-0.0045 -0.14813,-0.01338 -0.2179,-0.0197 -0.13835,-0.01252 -0.13733,-0.01257 -0.15065,0.007 -0.006,0.0083 -0.006,0.02649 -0.009,0.213909 -9.8e-4,0.112666 -0.002,0.279425 -0.002,0.370565 l -9.8e-4,0.165708 0.01,0.01027 c 0.016,0.01675 -0.004,0.01991 0.31106,-0.04962 0.0518,-0.0114 0.0947,-0.0203 0.0953,-0.01967 4.9e-4,6.33e-4 -0.009,0.03334 -0.0198,0.07274 -0.0113,0.03938 -0.0289,0.09918 -0.0387,0.132887 -0.0172,0.05934 -0.0379,0.130439 -0.0525,0.17977 -0.006,0.01971 -0.008,0.02353 -0.013,0.02162 -0.004,-0.0013 -0.0202,-0.0054 -0.0374,-0.009 -0.0292,-0.0061 -0.0486,-0.0066 -0.25682,-0.0068 l -0.22531,-5.3e-5 -0.0531,0.0119 c -0.0292,0.0065 -0.0602,0.013 -0.0689,0.01431 -0.0315,0.0048 -0.0725,0.01663 -0.1033,0.02993 -0.0173,0.0075 -0.0537,0.02224 -0.0808,0.03278 -0.0645,0.02507 -0.18838,0.08861 -0.23166,0.118777 -0.0188,0.01312 -0.0463,0.03203 -0.0611,0.04201 -0.0437,0.02946 -0.0617,0.04468 -0.10969,0.09238 -0.0535,0.05308 -0.0597,0.0607 -0.0924,0.112754 -0.0137,0.02169 -0.0352,0.05291 -0.048,0.06942 -0.0128,0.0165 -0.0298,0.04041 -0.0381,0.05314 -0.0257,0.03992 -0.0199,0.03974 -0.0824,0.0024 -0.32801,-0.195835 -0.30128,-0.180652 -0.31805,-0.180652 -0.0247,0 -0.0319,0.01114 -0.0458,0.07033 -0.0143,0.06087 -0.015,0.07707 -0.004,0.0887 0.004,0.0046 0.0287,0.02055 0.054,0.0354 0.0254,0.01485 0.069,0.04052 0.0969,0.05705 0.0279,0.01653 0.0689,0.04049 0.091,0.05327 0.0222,0.01277 0.0813,0.0474 0.13131,0.07696 0.0501,0.02955 0.11469,0.06743 0.14359,0.08416 0.0496,0.0287 0.0999,0.05879 0.10293,0.06144 4.9e-4,6.81e-4 -0.005,0.01584 -0.013,0.03373 -0.0644,0.146894 -0.0952,0.292517 -0.0952,0.449253 0,0.06298 0.009,0.162842 0.0139,0.166275 0.001,0.0011 0.006,0.01687 0.009,0.03514 0.0113,0.0674 0.0342,0.150628 0.0546,0.202058 0.086,0.216528 0.22356,0.386805 0.41582,0.514776 0.3668,0.244139 0.84954,0.244139 1.21634,0 0.1197,-0.07971 0.21967,-0.177318 0.29742,-0.290536 0.0125,-0.01827 0.0234,-0.03063 0.0269,-0.03061 0.004,0 0.0193,0.0033 0.0357,0.0071 0.0164,0.0039 0.0691,0.01591 0.11733,0.0266 l 0.0875,0.01943 0.0612,-0.002 c 0.0337,-0.0011 0.10693,-0.003 0.16283,-0.0041 0.0558,-0.0011 0.10367,-0.0028 0.1063,-0.0035 0.004,-0.0012 0.004,0.0053 0.003,0.03617 -0.005,0.07013 -0.003,0.08284 0.0195,0.09798 l 0.0125,0.008 0.71468,-0.0023 c 0.39308,-0.0012 0.93767,-0.0033 1.21019,-0.0044 l 0.49552,-0.0023 0.0113,-0.0076 0.0113,-0.0076 0.0348,0.03517 c 0.15821,0.160113 0.37089,0.265116 0.60906,0.300709 0.056,0.0084 0.19435,0.01215 0.24937,0.0068 z"
           id="path13874" />
        <path
           id="path10327-2-6"
           style="fill:#000000;stroke-width:0.028598"
           d="m 472.54008,-47.124685 c -0.102,0.0055 -0.206,0.06092 -0.33848,0.172083 l -0.11885,0.09973 0.0548,0.122992 c 0.0673,0.150217 0.0499,0.241205 -0.0408,0.210322 -0.0341,-0.01162 -0.38817,-0.01738 -0.7865,-0.01292 -0.64892,0.0073 -0.73009,0.0027 -0.77827,-0.04082 -0.0495,-0.0448 -0.0571,-0.04466 -0.0997,-0.0021 -0.0254,0.0254 -0.0762,0.04599 -0.11266,0.04599 -0.0755,0 -0.11457,0.06737 -0.0636,0.109553 0.0187,0.01547 0.24437,0.03291 0.50125,0.03824 0.40547,0.0084 0.47151,0.01636 0.50334,0.05995 0.0353,0.04829 0.0265,0.151953 -0.0274,0.325559 -0.0216,0.06959 0.0562,0.210325 0.11629,0.210325 0.0207,0 0.0672,0.0417 0.10334,0.0925 0.0525,0.07384 0.0641,0.122661 0.0574,0.244428 -0.008,0.134405 0.003,0.170592 0.0951,0.307993 0.0568,0.08564 0.11787,0.155546 0.13591,0.155546 0.0238,0 0.0237,0.0097 -5.3e-4,0.03462 -0.0189,0.01887 -0.0346,0.06134 -0.0346,0.09457 0,0.03323 -0.0386,0.09741 -0.0858,0.142626 -0.0472,0.04521 -0.0858,0.09666 -0.0858,0.114205 0,0.01756 0.0399,0.08603 0.0884,0.151929 0.0931,0.126534 0.0956,0.207322 0.0129,0.377238 -0.0113,0.02314 -0.034,0.08951 -0.0599,0.170015 h 1.73529 c -0.007,-0.05362 -0.013,-0.106529 -0.0165,-0.155545 -0.0113,-0.157158 -0.0334,-0.300869 -0.0491,-0.319879 -0.0289,-0.03488 -0.0465,-0.416491 -0.0227,-0.494025 0.008,-0.02392 -0.0149,-0.05457 -0.0517,-0.07131 -0.0534,-0.02429 -0.0641,-0.05185 -0.0641,-0.16278 0,-0.104799 0.0218,-0.166651 0.10025,-0.285771 0.055,-0.08359 0.0997,-0.173929 0.0997,-0.200504 0,-0.02658 0.0102,-0.05263 0.0217,-0.05788 0.0681,-0.03027 0.23564,-0.33791 0.23564,-0.432533 0,-0.145497 -0.27392,-0.288282 -0.55036,-0.286803 -0.10618,5.56e-4 -0.19275,-0.0024 -0.19275,-0.0062 0,-0.0038 0.0251,-0.06321 0.0563,-0.131773 0.11155,-0.24584 0.05,-0.482131 -0.15039,-0.577225 -0.0653,-0.031 -0.12586,-0.04569 -0.18706,-0.04238 z m -0.68212,0.86868 c 0.0937,4.76e-4 0.10483,0.01106 0.10488,0.06046 3e-5,0.03807 -0.0233,0.07018 -0.0594,0.08165 -0.0349,0.01107 -0.0527,0.03471 -0.0439,0.05788 0.008,0.02166 0.003,0.04702 -0.0124,0.05633 -0.015,0.0093 -0.0417,0.07433 -0.0594,0.144177 -0.0176,0.06985 -0.0377,0.126608 -0.0444,0.126608 -0.007,0 -0.0258,-0.03861 -0.0424,-0.0863 -0.0259,-0.07439 -0.0365,-0.08158 -0.0754,-0.05013 -0.0325,0.02631 -0.0393,0.02657 -0.0243,0.0016 0.0115,-0.01916 -0.005,-0.09205 -0.0372,-0.162264 -0.093,-0.204195 -0.0712,-0.22465 0.24858,-0.229441 0.017,-2.65e-4 0.0321,-5.85e-4 0.0455,-5.19e-4 z" />
        <path
           d="m 469.3353,-45.089831 -0.002,-0.108714 -0.0215,-0.04107 -0.0626,0.0169 -0.0346,0.02771 -0.0486,0.0097 -0.0611,-0.01344 -0.0546,-0.100242 -0.0254,-0.03855 -0.0523,-0.01293 0.003,-0.170353 -0.19056,0.01187 0.032,-0.02846 0.0282,-0.02985 0.006,-0.134883 0.005,-0.06606 0.018,-0.07299 c -2.9e-4,-0.02408 -2.9e-4,-0.02408 0.0323,-0.06624 l 0.0383,-0.04803 c 0.0145,-0.01939 0.069,-0.05392 0.069,-0.05392 l 0.0559,-0.02719 0.0625,-0.02612 0.0638,-0.01091 0.0496,-0.0076 0.0602,-7.93e-4 0.0545,0.0065 c 0.009,3.55e-4 0.0524,0.0187 0.0524,0.0187 l 0.0881,0.05784 c 0.019,0.01469 0.0464,0.04835 0.0464,0.04835 l 0.0219,0.03612 0.0301,0.07691 0.0106,0.03918 0.005,0.05369 2.5e-4,0.05116 c 0.0129,0.04774 0.0129,0.04774 0.0294,0.05873 l -0.0419,0.02341 -0.005,0.04785 0.10042,0.05501 0.12305,-0.02745 0.25394,0.09037 0.0962,-0.04821 c 0.006,-0.07606 0.006,-0.07606 0.0324,-0.110724 0.027,-0.03435 0.11612,-0.07631 0.14911,-0.07942 0.0326,-0.003 0.20904,0.03147 0.23201,0.03782 0.024,0.0066 0.23127,0.129832 0.27562,0.159887 0.0449,0.02992 0.27395,0.298539 0.27395,0.298539 0,0 0.0907,0.08181 0.10497,0.154289 0.0145,0.07291 -0.003,0.08199 -0.0229,0.101369 l -0.0716,0.07299 -0.0395,0.03435 0.0384,0.08097 c 0.13368,-0.0042 0.13368,-0.0042 0.17254,0.0162 0.0395,0.02122 0.2407,0.204113 0.26133,0.248309 0.021,0.04314 0.021,0.04314 0.12225,0.318264 l -0.0337,0.08111 0.0328,0.178616 c 0,0 0.001,0.05711 -0.0212,0.107674 -0.0222,0.04998 -0.18717,0.07086 -0.18717,0.07086 l -0.0447,0.0116 0.0767,0.426738 0.0739,0.05347 0.21432,-0.05987 0.0748,0.03536 0.14313,-0.07829 c 0.0549,-0.09891 0.0549,-0.09891 0.10587,-0.128625 0.0514,-0.03129 0.0514,-0.03129 0.1544,-0.03302 l 0.10821,0.141335 -0.0125,0.04494 0.0409,0.09236 c 0.12301,0.111729 0.12301,0.111729 0.13633,0.134221 0.0134,0.02295 0.062,0.121943 0.0685,0.15158 0.008,0.02927 0.008,0.02927 -0.009,0.09478 -0.0784,0.09948 -0.0784,0.09948 -0.13832,0.08715 -0.0599,-0.01233 -0.0932,-0.04633 -0.11739,-0.09633 -0.024,-0.05054 -0.024,-0.05054 -0.06,-0.154351 l -0.075,-0.06672 -0.16262,0.0652 -0.0898,0.04164 -0.0409,0.100919 -0.116,0.08933 -0.2973,0.255249 -0.17141,0.06129 -0.12905,-0.105746 -0.25472,-0.484934 -0.22281,-0.311388 -0.37695,0.05884 -0.34577,-0.03318 0.0824,0.159917 -0.006,0.121862 0.18352,0.369841 0.1194,0.379434 0.0171,0.04418 -0.22784,0.05093 -0.0165,-0.03806 -0.0834,0.02741 -0.059,0.07489 -0.34913,0.07596 -0.0624,-0.08074 0.0285,-0.05554 0.19786,-0.07424 0.11645,-0.209281 0.0271,-0.03728 -0.0918,-0.218251 -0.11165,-0.134124 -0.14913,-0.01721 -0.15036,-0.118352 -0.104,-0.245395 c 0,0 -0.0766,-0.233459 -0.11215,-0.327275 -0.0356,-0.09331 0.0637,-0.168451 0.10899,-0.190356 0.0446,-0.02076 0.0446,-0.02076 0.71234,-0.208892 l -0.22525,-0.213119 0.0544,-0.111354 -0.17288,-0.148025 -0.11494,0.180851 -0.22135,-0.01267 -0.54525,-0.313663 -0.014,-0.141178 -0.26269,-0.07447 -0.005,-0.289463 0.25466,-0.04465 0.12245,0.184843 0.12948,-0.05914 0.23131,0.228395 0.0417,-0.110317 -0.0146,-0.05404 z"
           style="fill:#000000;fill-opacity:1;fill-rule:nonzero;stroke:none;stroke-width:0.466482"
           id="path162585-9-65" />
      </g>
      <g
         id="g22191"
         transform="translate(-1.9429564,-0.141313)">
        <path
           id="path10339-8-4-0"
           style="fill:#000000;stroke-width:0.0288739"
           d="m 480.67088,-41.543461 c -0.0397,-0.01377 -0.14623,-0.03338 -0.23673,-0.04359 -0.26624,-0.03 -0.39761,-0.182424 -0.24771,-0.287421 0.0353,-0.02472 0.11036,-0.04494 0.16682,-0.04494 0.0565,0 0.13005,-0.0192 0.16354,-0.04265 0.0588,-0.04118 0.0615,-0.07045 0.0764,-0.844561 0.009,-0.441051 0.0243,-0.836561 0.035,-0.878912 0.0123,-0.04831 0.0454,-0.08349 0.0889,-0.09441 0.0473,-0.01187 0.12212,-0.100163 0.2353,-0.277673 0.0913,-0.143147 0.23251,-0.361252 0.31385,-0.484679 l 0.14789,-0.224412 -0.11495,-0.0965 -0.11494,-0.0965 -0.0739,0.09438 c -0.0803,0.102592 -0.22022,0.174026 -0.34088,0.174026 -0.0894,0 -0.30082,-0.111431 -0.30082,-0.158566 0,-0.04278 -0.22128,-0.139585 -0.26181,-0.114536 -0.0323,0.01995 -0.13358,-0.09804 -0.12005,-0.139823 0.004,-0.01272 0.0144,-0.0853 0.0229,-0.161296 0.0118,-0.10569 0.004,-0.147286 -0.0313,-0.176959 -0.0504,-0.04182 -0.29469,-0.0465 -0.6827,-0.01305 -0.2053,0.0177 -0.2236,0.01471 -0.25366,-0.04146 -0.0296,-0.05534 -0.0248,-0.06053 0.0561,-0.06053 0.0521,0 0.0954,-0.01784 0.10517,-0.04331 0.0195,-0.05062 0.0971,-0.05876 0.0971,-0.01017 0,0.02393 0.0742,0.02781 0.26708,0.01396 0.14689,-0.01054 0.37103,-0.02632 0.49807,-0.03507 0.12704,-0.0087 0.26516,-0.02895 0.30692,-0.0449 0.0418,-0.01595 0.0937,-0.02654 0.1155,-0.02352 0.0218,0.003 0.0818,0.004 0.13341,0.002 l 0.0938,-0.0034 v -0.155983 c 0,-0.147353 -0.005,-0.157651 -0.0866,-0.186176 -0.0477,-0.01661 -0.0866,-0.04944 -0.0866,-0.07295 0,-0.02351 -0.0195,-0.0623 -0.0434,-0.08619 -0.0239,-0.02389 -0.0434,-0.08654 -0.0434,-0.139214 4.4e-4,-0.457177 -0.003,-0.43793 0.0881,-0.521659 0.06,-0.05529 0.11711,-0.0794 0.18797,-0.0794 0.21762,0 0.46917,0.214102 0.43251,0.368142 -0.008,0.03573 -0.0233,0.09698 -0.0331,0.136109 -0.0192,0.07759 -0.008,0.08499 0.34228,0.218591 0.12965,0.0495 0.20217,0.103887 0.33205,0.249002 0.0914,0.102116 0.24739,0.271387 0.34664,0.376158 0.0993,0.104771 0.18047,0.209078 0.18047,0.231792 0,0.07315 0.15131,0.302222 0.27485,0.416089 0.066,0.06086 0.14382,0.163394 0.17289,0.227841 l 0.0528,0.117177 -0.0987,0.08453 c -0.0543,0.04649 -0.12198,0.09254 -0.15044,0.102331 -0.032,0.01099 -0.046,0.03625 -0.0367,0.066 0.0676,0.216887 0.17631,0.693317 0.16743,0.733956 -0.0171,0.07858 -0.0903,0.05946 -0.11044,-0.02887 -0.0258,-0.113145 -0.0976,-0.380066 -0.13275,-0.493846 l -0.0299,-0.09683 -0.11283,0.207938 c -0.17079,0.314754 -0.273,0.450188 -0.37014,0.490423 -0.0484,0.02006 -0.088,0.04328 -0.088,0.0516 0,0.0083 0.0441,0.107439 0.098,0.22027 0.0539,0.112831 0.13329,0.31559 0.17644,0.450575 0.0432,0.134986 0.0958,0.290905 0.11709,0.346487 0.0496,0.129928 0.0808,0.383788 0.0565,0.460304 -0.0305,0.09623 -0.22877,0.06572 -0.3759,-0.05785 -0.0317,-0.02667 -0.0955,-0.06642 -0.1417,-0.08833 -0.0462,-0.02191 -0.0974,-0.06148 -0.11383,-0.08794 -0.0446,-0.07185 0.0295,-0.147512 0.13007,-0.132756 0.0902,0.01323 0.12647,-0.03847 0.0816,-0.116234 -0.0157,-0.02716 -0.0741,-0.171199 -0.1299,-0.32008 -0.0558,-0.148882 -0.14017,-0.319663 -0.18757,-0.379516 -0.0474,-0.05985 -0.0862,-0.137044 -0.0862,-0.171533 0,-0.03449 -0.0137,-0.08832 -0.0305,-0.119619 -0.0288,-0.05386 -0.0377,-0.05057 -0.16467,0.06123 -0.11166,0.09828 -0.15144,0.116664 -0.23663,0.109339 l -0.10241,-0.0088 -0.006,0.18768 c -0.003,0.103224 -0.008,0.213666 -0.0109,0.245429 -0.003,0.03176 0.004,0.181184 0.0152,0.332049 0.0128,0.174373 0.008,0.326897 -0.0125,0.418672 -0.018,0.0794 -0.0298,0.176853 -0.0261,0.216555 0.003,0.0397 0.008,0.143647 0.009,0.23099 l 0.002,0.158807 -0.14437,0.0056 c -0.0794,0.0031 -0.17685,-0.0057 -0.21655,-0.01945 z m 0.0498,-3.648209 c 0.0488,-0.04765 0.0862,-0.23761 0.0412,-0.209835 -0.0184,0.01135 -0.0334,0.0087 -0.0334,-0.0059 0,-0.01456 -0.0812,-0.02171 -0.18047,-0.01588 -0.2981,0.01748 -0.28151,0.009 -0.28151,0.144611 v 0.122163 l 0.13715,0.0113 c 0.16851,0.01387 0.27038,-0.0011 0.31696,-0.04651 z" />
        <path
           style="fill:#000000;stroke-width:0.00350185"
           d="m 482.24043,-40.823442 c 0.16503,-0.01596 0.32767,-0.06894 0.46501,-0.151446 0.0815,-0.049 0.14256,-0.09819 0.22078,-0.178048 0.0573,-0.05856 0.0912,-0.09943 0.12864,-0.155421 0.0113,-0.01733 0.0215,-0.03204 0.022,-0.03267 9.7e-4,-0.0011 0.21805,-0.04262 0.26067,-0.04986 0.0826,-0.01405 0.0982,-0.01997 0.10944,-0.04207 0.005,-0.0098 0.0707,-0.363719 0.11156,-0.600283 0.004,-0.02119 0.01,-0.05507 0.0135,-0.07529 0.004,-0.02022 0.0113,-0.06376 0.0175,-0.09675 l 0.0113,-0.05999 -0.0404,-0.365488 c -0.0242,-0.21872 -0.0426,-0.371113 -0.0457,-0.379496 -0.005,-0.01288 -0.0322,-0.0457 -0.10656,-0.127817 -0.0149,-0.01638 -0.0386,-0.04316 -0.0528,-0.05953 -0.0142,-0.01637 -0.0267,-0.03055 -0.0278,-0.03152 -9.6e-4,-9.73e-4 -0.0136,-0.01515 -0.028,-0.03152 -0.0143,-0.01637 -0.0332,-0.0375 -0.042,-0.04694 l -0.0159,-0.01718 0.014,0.0083 c 0.008,0.0046 0.0361,0.0227 0.063,0.04027 0.1167,0.07608 0.15401,0.09009 0.2052,0.07702 0.0502,-0.0128 0.0731,-0.03458 0.1759,-0.166607 0.11282,-0.144898 0.12689,-0.170293 0.12434,-0.223407 -0.003,-0.03555 -0.0113,-0.05508 -0.043,-0.08675 -0.0199,-0.01993 -0.069,-0.05428 -0.24971,-0.174793 l -0.22496,-0.149979 0.0131,-0.006 c 0.0223,-0.01014 0.0285,-0.02006 0.0364,-0.05809 0.006,-0.02816 0.006,-0.04208 0.005,-0.07486 -0.002,-0.04521 -0.006,-0.06137 -0.0169,-0.0753 -0.0125,-0.0159 -0.0259,-0.01925 -0.0771,-0.01923 -0.0622,4e-5 -0.1557,0.01658 -0.22088,0.03913 l -0.0205,0.0071 -0.34206,-0.227786 c -0.21177,-0.141019 -0.35397,-0.233478 -0.37334,-0.242727 -0.0283,-0.01352 -0.0343,-0.01506 -0.063,-0.01628 -0.0382,-0.0016 -0.0605,0.0054 -0.0924,0.0289 -0.0173,0.01277 -0.0564,0.05559 -0.0754,0.0828 -0.005,0.0064 -0.01,0.0079 -0.0384,0.01002 -0.0543,0.0041 -0.0615,0.01345 -0.0645,0.08344 l -0.002,0.04299 -0.019,0.02532 c -0.0416,0.05546 -0.057,0.08979 -0.057,0.126796 0,0.03785 0.0143,0.06812 0.0472,0.09988 0.009,0.0086 0.0182,0.02048 0.0204,0.02627 0.002,0.0071 0.004,0.0312 0.002,0.07425 -9.6e-4,0.05617 -0.002,0.06396 -0.008,0.06557 -0.004,10e-4 -0.0202,0.0035 -0.0374,0.0056 -0.0883,0.01064 -0.083,0.0095 -0.0944,0.02086 l -0.0113,0.01064 -9.7e-4,0.08573 -9.8e-4,0.08573 h -0.0471 -0.0471 l -0.0706,-0.03533 c -0.0611,-0.03055 -0.0722,-0.03507 -0.0831,-0.03338 -0.008,0.0011 -0.029,0.0036 -0.0493,0.0058 -0.0202,0.0021 -0.058,0.0078 -0.084,0.01268 -0.0475,0.009 -0.052,0.01052 -0.18568,0.06426 -0.0464,0.01867 -0.0605,0.02236 -0.16459,0.04334 -0.0626,0.01261 -0.12484,0.02548 -0.13829,0.0286 -0.0189,0.0044 -0.0383,0.0054 -0.0858,0.0045 l -0.0614,-0.0011 -0.0421,-0.0175 -0.0421,-0.0175 -0.13219,-9.74e-4 c -0.0923,-6.83e-4 -0.13441,1.81e-4 -0.1395,0.0029 -0.0144,0.0078 -0.0172,0.02308 -0.0172,0.09525 0,0.07753 9.8e-4,0.07997 0.0273,0.08814 0.009,0.0028 0.0145,0.0051 0.0125,0.0053 -0.008,4.15e-4 -0.0323,0.02508 -0.0419,0.04158 -0.005,0.0086 -0.0125,0.02467 -0.0165,0.0357 l -0.008,0.02003 -0.0682,-0.03726 c -0.0376,-0.0205 -0.0927,-0.05046 -0.12258,-0.0666 -0.0298,-0.01614 -0.061,-0.03314 -0.069,-0.0378 l -0.0148,-0.0085 0.0113,-0.01987 c 0.006,-0.01089 0.0161,-0.02564 0.0224,-0.03269 0.0134,-0.0152 0.0173,-0.02189 0.0302,-0.05186 0.0173,-0.04041 0.0142,-0.04554 -0.0476,-0.07509 -0.0253,-0.01215 -0.11858,-0.0572 -0.20717,-0.100083 -0.0886,-0.04288 -0.17368,-0.08391 -0.18909,-0.09113 -0.0154,-0.0073 -0.0656,-0.03144 -0.11157,-0.05382 -0.0838,-0.04081 -0.0992,-0.04579 -0.11181,-0.03629 -0.006,0.0046 -0.0234,0.03858 -0.048,0.09455 -0.01,0.02336 -0.0168,0.03406 -0.0207,0.03388 -0.002,-1.44e-4 -0.0269,-0.0076 -0.0528,-0.01668 l -0.0472,-0.01642 -4.9e-4,-0.02448 c -3.4e-4,-0.01346 -0.003,-0.0292 -0.005,-0.03497 -0.01,-0.02519 -0.0497,-0.05158 -0.0948,-0.06259 -0.0125,-0.003 -0.0711,-0.01504 -0.13019,-0.02663 -0.12743,-0.02499 -0.15774,-0.02696 -0.18745,-0.01215 -0.01,0.0049 -0.0218,0.01397 -0.0264,0.02013 -0.009,0.01202 -0.0193,0.03709 -0.0208,0.05148 -9.8e-4,0.0086 -0.001,0.0088 -0.0448,0.01077 -0.024,0.0011 -0.0522,0.004 -0.0624,0.0065 -0.01,0.0024 -0.0194,0.0036 -0.0204,0.0026 -9.8e-4,-9.74e-4 0.008,-0.01102 0.0194,-0.02223 0.0186,-0.01797 0.0228,-0.02478 0.0353,-0.05641 0.0163,-0.04142 0.017,-0.04951 0.006,-0.06207 -0.008,-0.008 -0.027,-0.01422 -0.16287,-0.05042 -0.0853,-0.02271 -0.15559,-0.04193 -0.15631,-0.04271 -0.001,-0.0018 0.013,-0.07033 0.0238,-0.11154 l 0.008,-0.02957 0.0979,-0.06062 c 0.0538,-0.03333 0.1043,-0.06511 0.11219,-0.07061 0.0113,-0.0083 0.0189,-0.01027 0.0417,-0.01177 0.0178,-0.0011 0.0329,-9.3e-5 0.0432,0.003 0.0208,0.0063 0.0556,0.006 0.074,-3.97e-4 0.0437,-0.01543 0.0878,-0.07523 0.0878,-0.119089 0,-0.03222 -0.0262,-0.06944 -0.0624,-0.08876 -0.0187,-0.0099 -0.0239,-0.01114 -0.0501,-0.01102 -0.0161,4e-5 -0.0387,0.0023 -0.0503,0.005 -0.0185,0.0044 -0.0244,0.0043 -0.0491,-6.34e-4 -0.0169,-0.0034 -0.0473,-0.0058 -0.077,-0.0059 -0.0533,-3.15e-4 -0.0619,0.0021 -0.0719,0.02086 -0.004,0.006 -0.006,0.0081 -0.01,0.0064 -0.002,-0.0013 -0.0141,-0.004 -0.0248,-0.0059 -0.0269,-0.0049 -0.0547,0.0035 -0.0754,0.02253 -0.0203,0.01868 -0.0269,0.03706 -0.0274,0.07597 l -4.9e-4,0.03116 -0.0435,0.03765 -0.0435,0.03765 -0.0159,-0.0023 c -0.009,-0.0012 -0.0289,-0.0031 -0.0447,-0.0044 -0.0283,-0.0023 -0.0289,-0.002 -0.0387,0.0079 -0.009,0.0084 -0.0125,0.01859 -0.0215,0.05956 l -0.0113,0.04943 -0.0262,-0.0083 c -0.0144,-0.0046 -0.0472,-0.01215 -0.0729,-0.01693 -0.0257,-0.0048 -0.0614,-0.01177 -0.0794,-0.01574 -0.0179,-0.0039 -0.0402,-0.0071 -0.0495,-0.0071 -0.0257,0 -0.0366,0.0124 -0.0572,0.06566 l -0.0168,0.0429 h -0.0125 c -0.006,0 -0.0468,-0.0033 -0.0895,-0.0073 -0.0427,-0.004 -0.11858,-0.01089 -0.16871,-0.01544 -0.0501,-0.0045 -0.14813,-0.01338 -0.2179,-0.0197 -0.13835,-0.01252 -0.13733,-0.01257 -0.15065,0.007 -0.006,0.0083 -0.006,0.02649 -0.009,0.213909 -9.8e-4,0.112666 -0.002,0.279425 -0.002,0.370565 l -9.8e-4,0.165708 0.01,0.01027 c 0.016,0.01675 -0.004,0.01991 0.31106,-0.04962 0.0518,-0.0114 0.0947,-0.0203 0.0953,-0.01967 4.9e-4,6.33e-4 -0.009,0.03334 -0.0198,0.07274 -0.0113,0.03938 -0.0289,0.09918 -0.0387,0.132887 -0.0172,0.05934 -0.0379,0.130439 -0.0525,0.17977 -0.006,0.01971 -0.008,0.02353 -0.013,0.02162 -0.004,-0.0013 -0.0202,-0.0054 -0.0374,-0.009 -0.0292,-0.0061 -0.0486,-0.0066 -0.25682,-0.0068 l -0.22531,-5.3e-5 -0.0531,0.0119 c -0.0292,0.0065 -0.0602,0.013 -0.0689,0.01431 -0.0315,0.0048 -0.0725,0.01663 -0.1033,0.02993 -0.0173,0.0075 -0.0537,0.02224 -0.0808,0.03278 -0.0645,0.02507 -0.18838,0.08861 -0.23166,0.118777 -0.0188,0.01312 -0.0463,0.03203 -0.0611,0.04201 -0.0437,0.02946 -0.0617,0.04468 -0.10969,0.09238 -0.0535,0.05308 -0.0597,0.0607 -0.0924,0.112754 -0.0137,0.02169 -0.0352,0.05291 -0.048,0.06942 -0.0128,0.0165 -0.0298,0.04041 -0.0381,0.05314 -0.0257,0.03992 -0.0199,0.03974 -0.0824,0.0024 -0.32801,-0.195835 -0.30128,-0.180652 -0.31805,-0.180652 -0.0247,0 -0.0319,0.01114 -0.0458,0.07033 -0.0143,0.06087 -0.015,0.07707 -0.004,0.0887 0.004,0.0046 0.0287,0.02055 0.054,0.0354 0.0254,0.01485 0.069,0.04052 0.0969,0.05705 0.0279,0.01653 0.0689,0.04049 0.091,0.05327 0.0222,0.01277 0.0813,0.0474 0.13131,0.07696 0.0501,0.02955 0.11469,0.06743 0.14359,0.08416 0.0496,0.0287 0.0999,0.05879 0.10293,0.06144 4.9e-4,6.81e-4 -0.005,0.01584 -0.013,0.03373 -0.0644,0.146894 -0.0952,0.292517 -0.0952,0.449253 0,0.06298 0.009,0.162842 0.0139,0.166275 0.001,0.0011 0.006,0.01687 0.009,0.03514 0.0113,0.0674 0.0342,0.150628 0.0546,0.202058 0.086,0.216528 0.22356,0.386805 0.41582,0.514776 0.3668,0.244139 0.84954,0.244139 1.21634,0 0.1197,-0.07971 0.21967,-0.177318 0.29742,-0.290536 0.0125,-0.01827 0.0234,-0.03063 0.0269,-0.03061 0.004,0 0.0193,0.0033 0.0357,0.0071 0.0164,0.0039 0.0691,0.01591 0.11733,0.0266 l 0.0875,0.01943 0.0612,-0.002 c 0.0337,-0.0011 0.10693,-0.003 0.16283,-0.0041 0.0558,-0.0011 0.10367,-0.0028 0.1063,-0.0035 0.004,-0.0012 0.004,0.0053 0.003,0.03617 -0.005,0.07013 -0.003,0.08284 0.0195,0.09798 l 0.0125,0.008 0.71468,-0.0023 c 0.39308,-0.0012 0.93767,-0.0033 1.21019,-0.0044 l 0.49552,-0.0023 0.0113,-0.0076 0.0113,-0.0076 0.0348,0.03517 c 0.15821,0.160113 0.37089,0.265116 0.60906,0.300709 0.056,0.0084 0.19435,0.01215 0.24937,0.0068 z"
           id="path13874-6" />
        <path
           d="m 479.28535,-44.904562 -0.002,-0.108714 -0.0215,-0.04107 -0.0626,0.0169 -0.0346,0.02771 -0.0486,0.0097 -0.0611,-0.01344 -0.0546,-0.100242 -0.0254,-0.03855 -0.0523,-0.01293 0.003,-0.170353 -0.19056,0.01187 0.032,-0.02846 0.0282,-0.02985 0.006,-0.134883 0.005,-0.06606 0.018,-0.07299 c -2.9e-4,-0.02408 -2.9e-4,-0.02408 0.0323,-0.06624 l 0.0383,-0.04803 c 0.0145,-0.01939 0.069,-0.05392 0.069,-0.05392 l 0.0559,-0.02719 0.0625,-0.02612 0.0638,-0.01091 0.0496,-0.0076 0.0602,-7.93e-4 0.0545,0.0065 c 0.009,3.55e-4 0.0524,0.0187 0.0524,0.0187 l 0.0881,0.05784 c 0.019,0.01469 0.0464,0.04835 0.0464,0.04835 l 0.0219,0.03612 0.0301,0.07691 0.0106,0.03918 0.005,0.05369 2.5e-4,0.05116 c 0.0129,0.04774 0.0129,0.04774 0.0294,0.05873 l -0.0419,0.02341 -0.005,0.04785 0.10042,0.05501 0.12305,-0.02745 0.25394,0.09037 0.0962,-0.04821 c 0.006,-0.07606 0.006,-0.07606 0.0324,-0.110724 0.027,-0.03435 0.11612,-0.07631 0.14911,-0.07942 0.0326,-0.003 0.20904,0.03147 0.23201,0.03782 0.024,0.0066 0.23127,0.129832 0.27562,0.159887 0.0449,0.02992 0.27395,0.298539 0.27395,0.298539 0,0 0.0907,0.08181 0.10497,0.154289 0.0145,0.07291 -0.003,0.08199 -0.0229,0.101369 l -0.0716,0.07299 -0.0395,0.03435 0.0384,0.08097 c 0.13368,-0.0042 0.13368,-0.0042 0.17254,0.0162 0.0395,0.02122 0.2407,0.204113 0.26133,0.248309 0.021,0.04314 0.021,0.04314 0.12225,0.318264 l -0.0337,0.08111 0.0328,0.178616 c 0,0 10e-4,0.05711 -0.0212,0.107674 -0.0222,0.04998 -0.18717,0.07086 -0.18717,0.07086 l -0.0447,0.0116 0.0767,0.426738 0.0739,0.05347 0.21432,-0.05987 0.0748,0.03536 0.14313,-0.07829 c 0.0549,-0.09891 0.0549,-0.09891 0.10587,-0.128625 0.0514,-0.03129 0.0514,-0.03129 0.1544,-0.03302 l 0.10821,0.141335 -0.0125,0.04494 0.0409,0.09236 c 0.12301,0.111729 0.12301,0.111729 0.13633,0.134221 0.0134,0.02295 0.062,0.121943 0.0685,0.15158 0.008,0.02927 0.008,0.02927 -0.009,0.09478 -0.0784,0.09948 -0.0784,0.09948 -0.13832,0.08715 -0.0599,-0.01233 -0.0932,-0.04633 -0.11739,-0.09633 -0.024,-0.05054 -0.024,-0.05054 -0.06,-0.154351 l -0.075,-0.06672 -0.16262,0.0652 -0.0898,0.04164 -0.0409,0.100919 -0.116,0.08933 -0.2973,0.255249 -0.17141,0.06129 -0.12905,-0.105746 -0.25472,-0.484934 -0.22281,-0.311388 -0.37695,0.05884 -0.34577,-0.03318 0.0824,0.159917 -0.006,0.121862 0.18352,0.369841 0.1194,0.379434 0.0171,0.04418 -0.22784,0.05093 -0.0165,-0.03806 -0.0834,0.02741 -0.059,0.07489 -0.34913,0.07596 -0.0624,-0.08074 0.0285,-0.05554 0.19786,-0.07424 0.11645,-0.209281 0.0271,-0.03728 -0.0918,-0.218251 -0.11165,-0.134124 -0.14913,-0.01721 -0.15036,-0.118352 -0.104,-0.245395 c 0,0 -0.0766,-0.233459 -0.11215,-0.327275 -0.0356,-0.09331 0.0637,-0.168451 0.10899,-0.190356 0.0446,-0.02076 0.0446,-0.02076 0.71234,-0.208892 l -0.22525,-0.213119 0.0544,-0.111354 -0.17288,-0.148025 -0.11494,0.180851 -0.22135,-0.01267 -0.54525,-0.313663 -0.014,-0.141178 -0.26269,-0.07447 -0.005,-0.289463 0.25466,-0.04465 0.12245,0.184843 0.12948,-0.05914 0.23131,0.228395 0.0417,-0.110317 -0.0146,-0.05404 z"
           style="fill:#000000;fill-opacity:1;fill-rule:nonzero;stroke:none;stroke-width:0.466482"
           id="path162585-9-65-7" />
      </g>
    </g>
  </g>
</svg>
