<?xml version="1.0" encoding="UTF-8" standalone="no"?>
<!-- Created with Inkscape (http://www.inkscape.org/) -->

<svg
   width="7.0955038mm"
   height="9.2690725mm"
   viewBox="0 0 7.0955038 9.2690725"
   version="1.1"
   id="svg4818"
   sodipodi:docname="inkporter-svg-uj5polbu.svg"
   xmlns:inkscape="http://www.inkscape.org/namespaces/inkscape"
   xmlns:sodipodi="http://sodipodi.sourceforge.net/DTD/sodipodi-0.dtd"
   xmlns="http://www.w3.org/2000/svg"
   xmlns:svg="http://www.w3.org/2000/svg">
  <sodipodi:namedview
     id="namedview4820"
     pagecolor="#ffffff"
     bordercolor="#666666"
     borderopacity="1.0"
     inkscape:pageshadow="2"
     inkscape:pageopacity="0.0"
     inkscape:pagecheckerboard="0"
     inkscape:document-units="mm"
     showgrid="false"
     inkscape:zoom="0.90583672"
     inkscape:cx="459.79589"
     inkscape:cy="582.33453"
     inkscape:window-width="1920"
     inkscape:window-height="1017"
     inkscape:window-x="-8"
     inkscape:window-y="-8"
     inkscape:window-maximized="1"
     inkscape:current-layer="layer1" />
  <defs
     id="defs4815" />
  <g
     inkscape:label="Layer 1"
     inkscape:groupmode="layer"
     id="layer1"
     transform="translate(-71.976669,-145.76508)">
    <g
       id="S-Mortar160mm"
       transform="matrix(0.35277777,0,0,-0.35277777,-252.40932,296.77786)">
      <path
         d="m 933.69846,402.17734 c -0.74907,0.20477 -1.4276,0.37461 -1.50786,0.37742 -0.0802,0.003 -0.14592,0.16076 -0.14592,0.351 0,0.19025 0.17883,0.49902 0.3974,0.68616 l 0.3974,0.34027 -0.12981,0.21005 c -0.0714,0.11553 -0.37018,0.6866 -0.66398,1.26907 l -0.53418,1.05902 -0.46303,-0.93247 -0.46303,-0.93247 -0.81401,-0.56414 -0.81399,-0.56414 h -1.03892 -1.03892 l -0.59889,0.30971 c -0.3294,0.17032 -0.87088,0.61946 -1.20329,0.99806 l -0.6044,0.68836 -0.21654,0.8042 -0.21655,0.8042 0.23555,0.99808 0.23555,0.99805 0.74582,0.71683 0.7458,0.71682 0.92943,0.27004 0.92945,0.27004 -1.02865,0.45078 -1.02866,0.45079 0.0768,0.21616 c 0.0833,0.2345 0.42282,0.24242 0.95906,0.0224 l 0.3405,-0.13971 v 0.27689 0.27688 l -1.16739,0.55797 -1.16739,0.55796 v 0.25607 c 0,0.14084 0.0467,0.25608 0.10375,0.25608 0.057,0 0.5357,-0.21889 1.06364,-0.48642 0.52794,-0.26753 1.09688,-0.48641 1.26431,-0.48641 0.16743,0 0.35224,0.1246 0.41067,0.27689 l 0.10625,0.27689 -1.2241,1.81468 -1.22411,1.81468 -0.0216,0.43085 -0.0215,0.43083 -2.89189,4.41182 -2.89187,4.4118 0.54544,0.46919 0.54545,0.46916 0.30691,-0.0591 0.30693,-0.0591 2.95643,-4.43742 c 1.62603,-2.44055 3.18513,-4.69408 3.46466,-5.00781 0.27954,-0.31373 0.50825,-0.6818 0.50825,-0.81792 0,-0.13611 0.30877,-0.70597 0.68614,-1.26635 l 0.68616,-1.01886 h 0.28667 c 0.15767,0 0.28668,0.0876 0.28668,0.19456 0,0.10701 0.12071,0.19456 0.26824,0.19456 h 0.26825 l 0.20725,-0.53505 c 0.11399,-0.29428 0.23549,-0.71017 0.26999,-0.92418 l 0.0627,-0.38914 0.28866,-0.0262 c 0.15877,-0.0144 0.40541,-0.0364 0.5481,-0.0486 l 0.25941,-0.0224 -0.0794,-0.2381 c -0.0437,-0.13096 0.0322,-0.45302 0.16839,-0.71567 0.13627,-0.26265 0.20093,-0.55334 0.14369,-0.64596 -0.0573,-0.0926 7.8e-4,-0.29485 0.12913,-0.44942 l 0.23323,-0.28102 -0.31374,-0.12041 c -0.17258,-0.0662 -0.31376,-0.17668 -0.31376,-0.2455 0,-0.0688 0.28455,-0.13596 0.63232,-0.14923 0.78319,-0.0299 1.20122,-0.13587 1.26467,-0.32063 0.0268,-0.0779 0.0486,-0.27299 0.0486,-0.4335 v -0.29185 h -0.29184 c -0.16051,0 -0.29185,-0.0521 -0.29185,-0.11589 0,-0.0638 0.17738,-0.365 0.39418,-0.66947 0.2168,-0.30446 0.56794,-0.60871 0.7803,-0.67611 l 0.38611,-0.12254 -0.0409,-0.53667 -0.0409,-0.53666 0.40995,-0.6948 0.40994,-0.69481 -0.0403,-0.58208 -0.0403,-0.58209 0.30154,0.10579 c 0.16585,0.0582 0.44245,0.22627 0.61467,0.37349 0.17224,0.14722 0.61,0.30721 0.97282,0.35555 0.36283,0.0483 0.94425,0.17112 1.29204,0.27286 l 0.63233,0.185 v -0.82306 -0.82304 l -0.23347,-0.23348 c -0.12842,-0.12841 -0.5117,-0.23348 -0.85173,-0.23348 h -0.61824 l -0.19156,-0.2432 c -0.10536,-0.13376 -0.25052,-0.48975 -0.3226,-0.79108 l -0.13103,-0.54788 -0.6678,-0.27902 c -0.36728,-0.15347 -0.86761,-0.27376 -1.11182,-0.26732 -0.24421,0.007 -1.0569,0.17924 -1.80598,0.38401 z m -4.37768,9.23521 c -0.13322,0.16052 -0.3163,0.29185 -0.40685,0.29185 h -0.16463 l 0.11198,-0.29185 c 0.0616,-0.16051 0.24468,-0.29185 0.40685,-0.29185 h 0.29486 z"
         id="S-Mortar-160mm-5"
         style="stroke-width:0.735364" />
    </g>
  </g>
</svg>
