<?xml version="1.0" encoding="UTF-8" standalone="no"?>
<!-- Created with Inkscape (http://www.inkscape.org/) -->

<svg
   width="26.604406mm"
   height="8.8582592mm"
   viewBox="0 0 26.604406 8.8582592"
   version="1.1"
   id="svg4818"
   sodipodi:docname="inkporter-svg-uj5polbu.svg"
   xmlns:inkscape="http://www.inkscape.org/namespaces/inkscape"
   xmlns:sodipodi="http://sodipodi.sourceforge.net/DTD/sodipodi-0.dtd"
   xmlns="http://www.w3.org/2000/svg"
   xmlns:svg="http://www.w3.org/2000/svg">
  <sodipodi:namedview
     id="namedview4820"
     pagecolor="#ffffff"
     bordercolor="#666666"
     borderopacity="1.0"
     inkscape:pageshadow="2"
     inkscape:pageopacity="0.0"
     inkscape:pagecheckerboard="0"
     inkscape:document-units="mm"
     showgrid="false"
     inkscape:zoom="0.90583672"
     inkscape:cx="459.79589"
     inkscape:cy="582.33453"
     inkscape:window-width="1920"
     inkscape:window-height="1017"
     inkscape:window-x="-8"
     inkscape:window-y="-8"
     inkscape:window-maximized="1"
     inkscape:current-layer="layer1" />
  <defs
     id="defs4815" />
  <g
     inkscape:label="Layer 1"
     inkscape:groupmode="layer"
     id="layer1"
     transform="translate(-76.538036,-108.03616)">
    <g
       id="S-PTRD"
       transform="matrix(0.31929798,0,0,-0.31929798,-4.3343757,654.54457)">
      <path
         id="path26327"
         d="m 265.17773,1684.3926 c -0.26699,-0.013 -0.5353,0.034 -0.77929,0.1426 -0.0904,0.037 -0.15902,0.069 -0.21094,0.1 -0.0519,0.03 -0.0909,0.052 -0.11914,0.1035 -0.0141,0.026 -0.0228,0.067 -0.0117,0.1035 0.0111,0.037 0.0356,0.06 0.0566,0.074 0.0421,0.028 0.0807,0.034 0.125,0.041 0.14685,0.022 0.35553,0.01 0.53125,-0.016 0.12592,1.2875 0.11212,2.5181 0.22266,3.8223 -1.50129,0.1051 -3.00291,0.1951 -4.50586,0.2929 l -1.1543,0.07 a 0.10001,0.10001 0 0 0 -0.002,0 c -1.66165,0.1155 -3.32088,0.2595 -4.98047,0.2714 -0.0812,-0.1092 -0.20154,-0.1827 -0.33984,-0.1972 h -0.004 c -0.23995,-0.031 -0.50845,0.037 -0.67774,0.1875 a 0.10001,0.10001 0 0 0 -0.0332,0.061 c -0.0326,0.2475 -0.009,0.5252 0.14063,0.7012 0.065,0.077 0.16367,0.1288 0.27539,0.1269 0.11172,0 0.22955,-0.051 0.35937,-0.1445 a 0.10001,0.10001 0 0 0 0.002,0 c 0.0865,-0.067 0.13739,-0.084 0.16992,-0.092 0.003,0 0.005,0.01 0.01,0.023 0.0129,0.048 0.0183,0.1368 0.0293,0.2266 0.011,0.09 0.0247,0.1872 0.0937,0.2675 0.0345,0.04 0.0859,0.071 0.14453,0.08 0.0586,0.01 0.12202,-3e-4 0.18945,-0.023 a 0.10001,0.10001 0 0 0 0.0606,-0.059 c 0.0601,-0.1553 0.0719,-0.2948 0.0996,-0.3848 0.0277,-0.09 0.0439,-0.1249 0.15625,-0.1523 a 0.10001,0.10001 0 0 0 0.0195,-0.01 c 0.26943,-0.1279 0.87204,-0.1874 1.39258,-0.2032 0.52054,-0.016 0.9668,0 0.9668,0 a 0.10001,0.10001 0 0 0 0.008,0 l 1.78711,-0.055 c 0.0147,0.01 0.0388,0.025 0.082,0.062 0.0548,0.048 0.10851,0.1131 0.12305,0.1562 a 0.10001,0.10001 0 0 0 0.10351,0.068 c 1.96173,-0.15 3.93049,-0.2267 5.89844,-0.3477 0.30093,0.033 0.64051,-0.025 0.95898,-0.059 0.31848,-0.034 0.61222,-0.038 0.80469,0.059 0.27338,0.1496 0.66568,0.1036 0.94531,0.094 a 0.10001,0.10001 0 0 0 0.004,0 c 0.39271,-0.032 0.85222,-0.097 1.13086,-0.2989 0.26995,-0.051 0.54026,0.058 0.85352,0.082 a 0.10001,0.10001 0 0 0 0.0488,-0.01 c 0.12669,-0.056 0.36918,-0.01 0.60547,0.016 0.11815,0.011 0.23681,0.015 0.34766,-0.029 0.0888,-0.036 0.15827,-0.117 0.20312,-0.2207 1.01016,-0.043 2.01517,-0.1192 3.01953,-0.1192 a 0.10001,0.10001 0 0 0 0.008,0 c 0.77721,-0.061 1.66904,0.01 2.42383,-0.1562 a 0.10001,0.10001 0 0 0 0.0781,-0.094 c 0.004,-0.1068 0.0408,-0.1592 0.10742,-0.207 0.0666,-0.048 0.17101,-0.083 0.29297,-0.1074 0.23167,-0.047 0.5119,-0.059 0.72461,-0.1797 0.89116,-0.1679 1.78742,-0.4275 2.66602,-0.3223 a 0.10001,0.10001 0 0 0 0.0644,-0.016 c 0.13321,-0.083 0.20145,-0.2202 0.22461,-0.3652 0.0231,-0.145 0.009,-0.3028 -0.0137,-0.4629 -0.0447,-0.3203 -0.12195,-0.6582 -0.084,-0.8535 a 0.10001,0.10001 0 0 0 0.002,-0.02 v 0 a 0.10001,0.10001 0 0 0 -0.043,-0.082 c -0.16878,-0.1169 -0.36626,-0.097 -0.54102,-0.062 -0.17475,0.034 -0.34144,0.081 -0.46289,0.068 a 0.10001,0.10001 0 0 0 -0.002,0 c -0.19385,-0.016 -0.38476,0.017 -0.54297,0.1093 -0.14731,0.086 -0.25773,0.2328 -0.31445,0.418 -0.61359,0.7286 -1.73927,0.9211 -2.67774,1.207 a 0.10001,0.10001 0 0 0 -0.002,0 c -0.0568,0.019 -0.0948,0.021 -0.10938,0.02 -0.0146,0 -0.004,0 -0.004,0 -1.8e-4,-3e-4 -0.009,-0.068 0.0117,-0.1601 0.0207,-0.092 0.0572,-0.2032 0.0879,-0.3125 0.0261,-0.093 0.04,-0.1805 0.0391,-0.2676 0.0629,-0.1225 0.095,-0.2333 0.0879,-0.334 -0.007,-0.104 -0.0614,-0.196 -0.14063,-0.25 -0.15847,-0.108 -0.38372,-0.089 -0.61914,0.01 a 0.10001,0.10001 0 0 0 -0.0625,0.082 c -0.0332,0.3242 -0.16883,0.5045 -0.38086,0.6113 -0.21202,0.1068 -0.51146,0.1299 -0.85156,0.086 a 0.10001,0.10001 0 0 0 -0.0781,0.023 c -0.10566,0.09 -0.15049,0.085 -0.16992,0.078 -0.0194,-0.01 -0.0491,-0.043 -0.0703,-0.096 -0.0106,-0.026 -0.0188,-0.054 -0.0254,-0.078 -0.007,-0.024 -0.008,-0.038 -0.0195,-0.066 -0.001,0 -0.003,-0.01 -0.006,-0.014 -10e-4,0 -0.006,-0.01 -0.006,-0.01 -2.1e-4,-3e-4 -0.01,-0.014 -0.01,-0.014 -2.1e-4,-2e-4 -0.0233,-0.017 -0.0234,-0.018 -2e-4,-1e-4 -0.0428,-0.016 -0.043,-0.016 -1.9e-4,0 -0.0506,0.01 -0.0508,0.01 -1.9e-4,10e-5 -0.0311,0.021 -0.0312,0.022 -1.8e-4,2e-4 -0.0135,0.019 -0.0137,0.02 -1.8e-4,3e-4 -0.006,0.01 -0.008,0.012 -0.003,0.01 -0.005,0.013 -0.006,0.018 -0.002,0.01 -0.003,0.015 -0.004,0.022 -0.002,0.012 -0.003,0.035 -0.004,0.051 -0.12177,0.061 -0.21109,0.055 -0.29101,0 -0.0897,-0.062 -0.1679,-0.1917 -0.20313,-0.3418 a 0.10001,0.10001 0 0 0 -0.11133,-0.076 c -0.69862,0.1001 -1.50647,0.065 -2.14453,0.5352 l -1.49023,0.5253 c 0,0 -0.70142,0.2548 -1.15235,0.3829 -0.002,2e-4 -0.004,-3e-4 -0.006,0 -0.8075,0.101 -1.64608,0.1253 -2.47265,0.1679 l -0.45703,-3.3808 a 0.10001,0.10001 0 0 0 -0.0117,-0.033 c -0.0849,-0.1636 -0.0927,-0.2565 -0.084,-0.2891 0.009,-0.033 0.028,-0.046 0.0957,-0.064 0.0677,-0.019 0.16695,-0.027 0.26953,-0.045 0.10257,-0.018 0.21282,-0.044 0.30078,-0.123 a 0.10001,0.10001 0 0 0 -0.0195,-0.1621 c -0.23685,-0.1261 -0.50324,-0.1996 -0.77149,-0.2129 z" />
      <path
         id="path26327-5"
         d="m 299.04883,1684.1465 a 0.10001,0.10001 0 0 0 -0.10938,0.014 c -0.1567,0.1328 -0.18727,0.3298 -0.19922,0.5078 -0.0119,0.1779 -0.0109,0.3508 -0.0547,0.4648 -0.0655,0.1832 -0.0821,0.3741 -0.0332,0.5507 0.0457,0.1651 0.15714,0.3112 0.32227,0.4141 0.54398,0.7812 0.43936,1.9204 0.47266,2.9004 0.003,0.06 -0.004,0.096 -0.01,0.1093 -0.005,0.014 1.1e-4,0 0,0 -2.1e-4,10e-5 -0.0671,-0.01 -0.15039,-0.051 -0.0833,-0.044 -0.18166,-0.11 -0.2793,-0.168 -0.0813,-0.048 -0.16164,-0.083 -0.24414,-0.1055 -0.10352,-0.095 -0.20417,-0.1525 -0.30469,-0.1719 -0.10236,-0.02 -0.2047,0.01 -0.27734,0.07 -0.14529,0.1252 -0.18731,0.3475 -0.15625,0.5996 a 0.10001,0.10001 0 0 0 0.0644,0.082 c 0.3046,0.116 0.44196,0.2934 0.49024,0.5254 0.0483,0.232 -0.004,0.5285 -0.13477,0.8457 a 0.10001,0.10001 0 0 0 0.002,0.08 c 0.06,0.1253 0.0436,0.1663 0.0312,0.1836 -0.0123,0.017 -0.0545,0.038 -0.11133,0.045 -0.0284,0 -0.0587,0 -0.084,0 -0.0253,2e-4 -0.04,0 -0.0703,0 -0.004,5e-4 -0.008,5e-4 -0.0137,0 -0.006,0 -0.0249,0.011 -0.0254,0.012 -2.7e-4,2e-4 -0.0233,0.015 -0.0234,0.016 -1.7e-4,2e-4 -0.0234,0.035 -0.0234,0.035 -7e-5,2e-4 -0.006,0.051 -0.006,0.051 3e-5,2e-4 0.0116,0.037 0.0117,0.037 1.3e-4,2e-4 0.0134,0.019 0.0137,0.019 2.4e-4,3e-4 0.009,0.01 0.0117,0.01 0.006,0.01 0.0116,0.01 0.0156,0.012 0.008,0 0.0133,0.01 0.0195,0.01 0.0115,0 0.0349,0.012 0.0508,0.017 0.027,0.1334 -0.002,0.2186 -0.0762,0.2813 -0.0827,0.07 -0.22672,0.1123 -0.38086,0.1074 a 0.10001,0.10001 0 0 0 -0.10352,0.088 c -0.0838,0.6987 -0.32668,1.4648 -0.041,2.2012 l 0.12304,1.584 c 0,0 0.0653,0.7464 0.0723,1.2148 -0.11138,0.8073 -0.30743,1.6229 -0.48047,2.4336 l -3.38281,-0.4316 a 0.10001,0.10001 0 0 0 -0.0332,0 c -0.17995,0.04 -0.2715,0.025 -0.30079,0.01 -0.0293,-0.017 -0.0383,-0.041 -0.0391,-0.1113 -7.5e-4,-0.071 0.0161,-0.1695 0.0254,-0.2734 0.009,-0.104 0.0143,-0.2169 -0.0391,-0.3223 a 0.10001,0.10001 0 0 0 -0.16211,-0.023 c -0.36608,0.3923 -0.55645,0.9542 -0.4707,1.4843 0.012,0.094 0.0272,0.1695 0.043,0.2266 0.016,0.058 0.0279,0.1 0.0703,0.1406 0.0212,0.02 0.0575,0.038 0.0957,0.037 0.0382,0 0.067,-0.018 0.0859,-0.035 0.0379,-0.034 0.0544,-0.068 0.0723,-0.1094 0.0594,-0.1365 0.0977,-0.3417 0.12109,-0.5176 1.27769,0.2114 2.46213,0.5426 3.75195,0.7735 -0.28705,1.4773 -0.59032,2.9525 -0.88476,4.4296 l -0.23047,1.1348 c -0.31855,1.6353 -0.61108,3.2763 -1.0293,4.8828 -0.12649,0.051 -0.22576,0.1482 -0.27539,0.2774 -2.4e-4,5e-4 2.4e-4,0 0,0 -3.3e-4,9e-4 -0.002,0 -0.002,0 -0.0922,0.2234 -0.0976,0.4989 0.004,0.7011 a 0.10001,0.10001 0 0 0 0.0508,0.047 c 0.2301,0.095 0.50397,0.1462 0.7129,0.047 0.0908,-0.043 0.16743,-0.124 0.19531,-0.2324 0.0279,-0.1085 0.0124,-0.2349 -0.0449,-0.3848 a 0.10001,0.10001 0 0 0 -0.002,0 c -0.0432,-0.1026 -0.0476,-0.1565 -0.0469,-0.1875 0.005,0 0.008,0 0.0254,0 0.0502,2e-4 0.13681,0.018 0.22656,0.031 0.0898,0.013 0.18756,0.026 0.2832,-0.019 0.0478,-0.023 0.0908,-0.067 0.11524,-0.1211 0.0244,-0.054 0.0322,-0.1163 0.0273,-0.1875 a 0.10001,0.10001 0 0 0 -0.041,-0.072 c -0.13447,-0.098 -0.26561,-0.1471 -0.34571,-0.1973 -0.0801,-0.05 -0.11176,-0.076 -0.10937,-0.1914 a 0.10001,0.10001 0 0 0 -0.002,-0.019 c -0.0538,-0.2934 0.0448,-0.8934 0.16406,-1.4004 0.1193,-0.5071 0.2539,-0.9317 0.2539,-0.9317 a 0.10001,0.10001 0 0 0 0.002,-0.01 l 0.41015,-1.7422 c 0.0133,-0.012 0.0329,-0.029 0.0801,-0.061 0.0602,-0.04 0.13831,-0.077 0.1836,-0.08 a 0.10001,0.10001 0 0 0 0.0918,-0.082 c 0.36285,-1.9336 0.80088,-3.855 1.19336,-5.7871 h 0.002 c 9.2e-4,0 10e-4,-0.01 0.002,-0.014 0.10517,-0.2788 0.13841,-0.6137 0.1875,-0.9238 0.0497,-0.3142 0.11998,-0.5965 0.26172,-0.7578 h 0.002 c 0.21532,-0.2254 0.27495,-0.6159 0.33789,-0.8887 a 0.10001,0.10001 0 0 0 0,-0.01 c 0.0709,-0.3877 0.12716,-0.8485 0.004,-1.1699 0.021,-0.2739 0.1942,-0.5067 0.29883,-0.8027 a 0.10001,0.10001 0 0 0 0.006,-0.049 c -0.0208,-0.1369 0.0891,-0.3597 0.17188,-0.5821 0.0414,-0.1111 0.0749,-0.2252 0.0606,-0.3437 -0.0115,-0.095 -0.0731,-0.1818 -0.16211,-0.252 0.21983,-0.987 0.40793,-1.9767 0.66797,-2.9472 a 0.10001,0.10001 0 0 0 0.002,-0.01 c 0.1427,-0.7664 0.43734,-1.6081 0.47656,-2.379 a 0.10001,0.10001 0 0 0 -0.0703,-0.1015 c -0.10206,-0.032 -0.14292,-0.079 -0.17188,-0.1563 -0.029,-0.077 -0.035,-0.188 -0.0273,-0.3125 0.0145,-0.2366 0.0756,-0.5111 0.0137,-0.748 0.0685,-0.9041 0.0517,-1.8346 0.38086,-2.6563 a 0.10001,0.10001 0 0 0 0.002,-0.066 c -0.0458,-0.1502 -0.16261,-0.2507 -0.29687,-0.3105 -0.13426,-0.06 -0.29043,-0.088 -0.45117,-0.1074 -0.32068,-0.04 -0.66661,-0.054 -0.84571,-0.1407 h -0.002 z" />
      <path
         d="m 305.83203,1687.3672 c -0.0163,0 -0.0514,0.011 -0.0527,0.012 a 0.10001,0.10001 0 0 0 -0.0449,0.045 c -0.0881,0.1785 -0.3545,0.4028 -0.58399,0.6309 -0.11474,0.114 -0.21967,0.2299 -0.28906,0.3594 -0.0694,0.1295 -0.10045,0.2809 -0.0449,0.4277 a 0.10001,0.10001 0 0 0 0.043,0.051 c 0.76263,0.449 1.31698,1.1974 1.92382,1.8711 l -0.0195,-0.033 c 0.0862,0.2424 0.32428,0.4295 0.48828,0.6172 0.082,0.094 0.14395,0.1851 0.16797,0.2636 0.024,0.079 0.0204,0.1431 -0.041,0.2305 a 0.10001,0.10001 0 0 0 0.006,0.1211 c 0.50226,0.5861 1.25069,1.0725 1.83203,1.5918 a 0.10001,0.10001 0 0 0 0.006,0.01 c 0.79929,0.6095 1.55439,1.2768 2.33203,1.9239 -0.0276,0.11 -0.0237,0.2164 0.0254,0.2988 0.0611,0.1026 0.15709,0.1735 0.25781,0.2363 0.20143,0.1258 0.42501,0.2344 0.49219,0.3555 a 0.10001,0.10001 0 0 0 0.0332,0.035 c 0.26346,0.17 0.54461,0.2484 0.72852,0.4511 0.099,0.3296 0.4257,0.6603 0.71875,0.9239 a 0.10001,0.10001 0 0 0 0.004,0 c 0.21738,0.1781 0.50282,0.4531 0.8125,0.498 0.21081,0.041 0.43824,0.2229 0.66993,0.4414 0.22895,0.216 0.46074,0.4608 0.71484,0.6172 1.49597,1.2934 3.02063,2.5488 4.49414,3.8613 a 0.10001,0.10001 0 0 0 0.12305,0.01 c 0.0377,-0.025 0.12088,-0.044 0.19336,-0.049 0.0573,0 0.0861,0 0.10351,0 l 1.38867,1.1289 a 0.10001,0.10001 0 0 0 0.006,0 c 0,0 0.36552,0.254 0.76953,0.5821 0.40401,0.328 0.84762,0.7408 0.98438,1.0058 a 0.10001,0.10001 0 0 0 0.01,0.018 c 0.0726,0.09 0.0636,0.1301 0.0312,0.2187 -0.0324,0.089 -0.10602,0.2074 -0.15234,0.3672 a 0.10001,0.10001 0 0 0 0.0117,0.082 c 0.0396,0.059 0.0843,0.1048 0.13672,0.1328 0.0524,0.028 0.11224,0.035 0.16406,0.023 0.10365,-0.022 0.17312,-0.091 0.23633,-0.1562 0.0632,-0.065 0.12055,-0.1313 0.16016,-0.1621 0.0139,-0.011 0.0187,-0.012 0.0234,-0.014 0.0207,0.025 0.0498,0.069 0.0781,0.1758 0.0463,0.1535 0.1112,0.2628 0.19922,0.332 0.088,0.069 0.19848,0.088 0.29687,0.066 0.22555,-0.05 0.40927,-0.2567 0.5332,-0.4726 a 0.10001,0.10001 0 0 0 0.0117,-0.068 c -0.0432,-0.2216 -0.21355,-0.4397 -0.42383,-0.5606 -0.1194,-0.074 -0.2607,-0.088 -0.39257,-0.051 -1.31295,-1.0159 -2.54522,-2.1349 -3.79688,-3.2344 a 0.10001,0.10001 0 0 0 -0.002,0 l -0.875,-0.7558 h -0.002 c -1.13527,-0.9884 -2.27461,-1.9714 -3.4043,-2.9649 0.87917,-0.9705 1.61265,-1.9584 2.49414,-2.9062 0.12613,0.1251 0.28336,0.2622 0.41406,0.334 0.0393,0.022 0.0726,0.04 0.12305,0.043 0.0252,0 0.0609,-10e-4 0.0918,-0.023 0.0309,-0.022 0.0465,-0.061 0.0508,-0.09 0.009,-0.058 -0.006,-0.099 -0.0293,-0.1543 -0.0224,-0.055 -0.0574,-0.1213 -0.10547,-0.2032 -0.25619,-0.472 -0.74992,-0.8019 -1.2793,-0.8886 a 0.10001,0.10001 0 0 0 -0.11328,0.1191 c 0.0222,0.1161 0.0931,0.2028 0.16407,0.2793 0.0709,0.076 0.14489,0.1448 0.1875,0.2012 0.0426,0.056 0.0499,0.078 0.0371,0.1093 -0.0128,0.031 -0.0755,0.1011 -0.24218,0.1797 a 0.10001,0.10001 0 0 0 -0.0274,0.02 l -2.41406,2.4101 c -0.63194,-0.5356 -1.28373,-1.0642 -1.86523,-1.6347 -0.28094,-0.375 -0.6875,-1.0059 -0.6875,-1.0059 l -0.8711,-1.3281 c -0.22383,-0.7578 -0.88534,-1.215 -1.3789,-1.7168 a 0.10001,0.10001 0 0 0 -0.13477,-0.01 c -0.11896,0.098 -0.25839,0.1554 -0.36719,0.1504 -0.0965,0 -0.1704,-0.057 -0.23046,-0.1778 0.009,-0.014 0.0215,-0.034 0.0273,-0.045 0.003,-0.01 0.006,-0.011 0.01,-0.019 0.002,0 0.004,-0.01 0.006,-0.018 9.6e-4,0 0.002,-0.013 0.002,-0.014 3e-5,-3e-4 3e-5,-0.023 0,-0.023 -4e-5,-3e-4 -0.0116,-0.037 -0.0117,-0.037 -1e-4,-2e-4 -0.0369,-0.037 -0.0371,-0.037 -1.7e-4,-10e-5 -0.0408,-0.014 -0.041,-0.014 -2.3e-4,0 -0.027,-10e-5 -0.0273,0 -3e-4,0 -0.0172,0 -0.0176,0 -3.6e-4,10e-5 -0.007,0 -0.01,0 -0.006,0 -0.0104,0.01 -0.0137,0.01 -0.0264,0.016 -0.0346,0.026 -0.0547,0.041 -0.0201,0.015 -0.0438,0.032 -0.0684,0.047 -0.0491,0.029 -0.097,0.039 -0.11719,0.033 -0.0201,-0.01 -0.0568,-0.03 -0.0859,-0.166 a 0.10001,0.10001 0 0 0 -0.0469,-0.064 c -0.29715,-0.1712 -0.52142,-0.3726 -0.625,-0.5859 -0.10359,-0.2133 -0.10179,-0.4388 0.0684,-0.7168 a 0.10001,0.10001 0 0 0 0,-0.1035 c -0.12949,-0.2185 -0.29868,-0.3693 -0.49024,-0.3789 -0.0958,0 -0.19292,0.037 -0.26172,0.1152 -0.066,0.075 -0.10842,0.1809 -0.13281,0.3145 -0.0546,0.069 -0.0949,0.1495 -0.13086,0.2402 -0.0418,0.1054 -0.082,0.2174 -0.12109,0.3027 -0.0391,0.085 -0.0858,0.1328 -0.0859,0.1329 -6e-5,0 0.009,0 -0.004,0 -0.0126,-0.01 -0.0403,-0.033 -0.0742,-0.082 -0.57332,-0.7969 -1.355,-1.632 -1.40039,-2.584 0.0675,-0.1821 0.0684,-0.365 0.004,-0.5235 -0.0691,-0.1698 -0.19941,-0.311 -0.36328,-0.416 a 0.10001,0.10001 0 0 0 -0.002,0 c -0.1044,-0.063 -0.20969,-0.2006 -0.32813,-0.334 -0.11844,-0.1334 -0.26359,-0.27 -0.46875,-0.2793 z"
         id="path12909" />
      <path
         id="path22252"
         style="fill:#000000;stroke-width:0.0549702"
         d="m 278.5731,1693.6599 c -0.49655,-2e-4 -0.98976,-0.2126 -1.47803,-0.3238 -0.22417,-0.4472 -0.53646,-0.8723 -0.43213,-1.3989 -0.0113,-0.7319 0.0259,-1.4907 0.35742,-2.1577 1.11048,0.061 -0.23898,-0.6274 0.0923,-1.1895 0.53554,-0.6092 0.13439,-1.0623 -0.52148,-0.7837 -0.14046,0.019 -0.28131,0.035 -0.42188,0.053 v -1.2612 c 0.33461,-0.099 0.58463,-0.3008 0.56104,-0.7691 -0.14189,-0.01 -0.36246,0.078 -0.56104,0.1377 v -0.6094 c -0.74198,-0.2184 0.63831,-0.09 0.55225,-0.3985 -0.29919,-0.2674 0.57335,-0.7301 0.0351,-0.3852 -0.33802,-0.6927 0.36723,-0.4374 1.02686,-0.4776 5.28665,-0.031 10.57313,-0.023 15.85987,-0.032 l 0.0381,0.048 0.0337,0.044 c 0.29672,0.7033 -0.1297,1.2152 -0.41894,1.7593 -0.0664,0.4316 -0.74039,0.4466 -1.10889,0.3721 -0.53729,-0.2588 -0.97907,0.197 -1.56006,0.098 -0.60071,0.1222 -1.22527,-0.1395 -1.80469,-0.085 -0.61063,0.4044 -1.44643,0.4501 -2.07568,0.6899 -0.003,0.444 -0.60769,0.3097 -0.66504,0.6138 0.0498,0.3758 -0.038,0.6968 -0.35595,0.9228 -0.56163,0.01 -1.10163,-0.2643 -1.5381,0.2798 -0.48321,0.2626 -0.99168,0.5506 -0.54638,1.084 -0.004,0.4518 0.10378,0.9283 -0.20068,1.3125 -0.30172,0.4163 -0.88289,0.2214 -1.32422,0.1846 -0.39587,-0.2227 -0.74811,-0.4682 -1.18799,-0.2315 -0.43553,0.075 -1.02075,-0.7155 -1.31543,-0.2329 -0.40974,0.286 0.29081,0.5694 0.12744,0.939 -0.0467,0.3907 0.0335,0.8431 -0.0894,1.1968 -0.30827,0.2972 -0.64091,0.5476 -1.07813,0.6006 z" />
      <path
         d="m 276.8103,1686.8299 -0.379,0.214 -0.262,0.285 -0.402,0.024 -0.214,0.2861 -0.379,0.33 -0.285,0.4029 -0.523,-0.1659 v -0.5681 l 0.142,-0.571 0.201,-0.156 0.132,-0.1059 0.475,-0.3311 0.069,-0.498 0.286,-0.427 1.187,-0.8289 z"
         id="path22983"
         style="stroke-width:0.75"
         sodipodi:nodetypes="ccccccccccccccccc" />
      <path
         d="m 291.46598,1684.2874 c 0,0.3197 -0.053,0.3365 -0.447,0.1408 -0.4679,-0.2326 -1.1524,-0.3804 -1.4335,-0.31 -0.2957,0.074 -0.6466,0.5715 -0.6471,0.9174 0,0.123 0.093,0.4285 0.2066,0.6785 0.2126,0.4666 1.1858,1.8076 1.4983,2.0646 0.2964,0.2436 0.7254,0.9941 0.7254,1.2691 0,0.1436 0.061,0.3119 0.1369,0.3744 0.1149,0.096 0.076,0.218 -0.2431,0.7641 -0.2089,0.3574 -0.38,0.7467 -0.38,0.8646 0,0.1181 -0.042,0.2405 -0.093,0.2718 -0.051,0.032 -0.4692,-0.1462 -0.9296,-0.3952 -0.7189,-0.3886 -0.8924,-0.4449 -1.2315,-0.3994 -0.5179,0.07 -0.5895,0.1565 -0.6412,0.7784 -0.04,0.4815 -0.018,0.5512 0.2775,0.888 0.1764,0.2008 0.4152,0.4011 0.5307,0.4449 0.1799,0.068 0.2184,0.1811 0.269,0.7851 0.064,0.771 0.1683,0.9409 0.6733,1.1039 0.2741,0.089 0.3344,0.1689 0.4357,0.5796 0.2065,0.8361 0.81,1.2396 1.6255,1.0866 0.4759,-0.09 0.7117,-0.3225 0.9272,-0.9171 0.1874,-0.5176 0.1873,-0.5223 -0.01,-0.7832 -0.1067,-0.1445 -0.1682,-0.3297 -0.1368,-0.412 0.065,-0.1681 0.7295,-0.569 0.9435,-0.569 0.2162,0 0.7116,-0.4933 0.9279,-0.9238 0.1073,-0.2138 0.2466,-0.7169 0.3092,-1.118 0.062,-0.401 0.1649,-0.9153 0.2274,-1.1425 0.097,-0.3536 0.1507,-0.4132 0.3714,-0.4132 0.2368,0 0.2664,-0.046 0.3634,-0.559 0.1248,-0.6605 0.1628,-1.4721 0.078,-1.6772 -0.034,-0.08 -0.049,-0.2771 -0.037,-0.4375 0.018,-0.2344 -0.017,-0.2975 -0.1888,-0.3219 -0.1767,-0.024 -0.2173,0.024 -0.243,0.2917 -0.051,0.5296 -0.2267,0.2676 -0.2082,-0.3101 0.024,-0.7811 0.1042,-1.6173 0.1739,-1.8364 0.033,-0.1051 0,-0.341 -0.078,-0.5242 -0.1152,-0.2758 -0.215,-0.3523 -0.5792,-0.444 -0.242,-0.061 -0.5774,-0.084 -0.7453,-0.05 -1.0611,-0.1292 -1.43087,-0.086 -2.4285,0.2402 z m -0.9724,9.4746 c 0,0.1572 -0.018,0.1639 -0.2308,0.083 -0.1177,-0.045 -0.1245,-0.084 -0.033,-0.1841 0.1366,-0.1478 0.2631,-0.099 0.2631,0.1012 z"
         style="fill:#000000;stroke-width:0.0257245"
         id="path87571-6-55-9"
         sodipodi:nodetypes="cssscsscsscccssccccccccssccsscccscccsccccccc" />
      <path
         d="m 297.84753,1684.4537 -0.0774,0.167 0.0569,0.07 c 0.3766,0.4637 0.52532,0.6116 0.58053,0.5774 l 0.0658,-0.04 v 0.1781 c 0,0.098 -0.0494,0.2192 -0.10969,0.2693 l -0.1097,0.091 v 0.3157 c 0,0.3875 -0.17279,1.1527 -0.37538,1.6625 l -0.15126,0.3807 0.0432,0.5119 c 0.0238,0.2815 0.0639,0.699 0.0892,0.9278 l 0.0459,0.4158 -0.31949,0.022 -0.31947,0.023 -0.13494,0.4023 c -0.22725,0.6773 -0.19918,0.9524 0.16882,1.6545 l 0.23064,0.4399 -0.007,0.2509 c -0.004,0.1379 -0.006,0.577 -0.004,0.9757 l 0.004,0.725 0.0858,0.1033 0.0858,0.1033 -0.0968,0.06 c -0.0532,0.033 -0.22585,0.081 -0.38361,0.1056 l -0.28682,0.046 -0.10532,0.252 c -0.0579,0.1386 -0.10531,0.3488 -0.10531,0.4673 v 0.2152 l 0.22126,0.1861 c 0.1217,0.1025 0.39536,0.2411 0.60813,0.3082 l 0.38685,0.1219 -0.31334,1.5449 c -0.34325,1.6924 -0.35781,1.8334 -0.23266,2.2511 l 0.0852,0.2844 0.16689,0.042 0.16687,0.042 0.24721,-0.081 0.24721,-0.081 0.0848,-0.419 c 0.0467,-0.2304 0.1682,-0.7975 0.27012,-1.26 0.10192,-0.4625 0.22063,-1.022 0.26379,-1.2432 0.0431,-0.2212 0.12475,-0.5131 0.18129,-0.6488 0.0565,-0.1356 0.10281,-0.3391 0.10281,-0.4523 0,-0.1131 0.0516,-0.4464 0.11471,-0.7406 0.063,-0.2943 0.12067,-0.6324 0.12797,-0.7515 l 0.0133,-0.2165 0.23522,-0.048 c 0.27167,-0.055 0.31325,-0.03 0.31325,0.1917 0,0.089 0.0498,0.203 0.11064,0.2534 l 0.11061,0.092 -0.25979,0.2279 -0.25979,0.228 -0.0403,0.5105 c -0.0222,0.2809 -0.0178,0.7215 0.01,0.9792 l 0.0501,0.4687 0.16962,0.1696 c 0.0933,0.094 0.26295,0.188 0.37702,0.2104 0.11407,0.022 0.34419,0.072 0.51137,0.1105 l 0.30397,0.07 0.33128,-0.1128 0.33128,-0.1129 0.17815,-0.2336 0.17815,-0.2336 0.0548,-0.3279 c 0.0301,-0.1803 0.1197,-0.4924 0.19902,-0.6935 l 0.14422,-0.3657 -0.0403,-0.329 c -0.0222,-0.181 -0.0704,-0.4697 -0.10705,-0.6415 l -0.0667,-0.3124 0.053,-0.033 c 0.0292,-0.018 0.37864,-0.054 0.77661,-0.081 0.39798,-0.027 0.78119,-0.079 0.85159,-0.1144 l 0.12797,-0.066 v -0.1347 c 0,-0.074 0.0412,-0.1688 0.0914,-0.2103 0.13324,-0.1101 0.86544,-0.2762 1.67863,-0.3807 l 0.70966,-0.092 0.52109,0.2648 c 0.28661,0.1456 0.60191,0.2647 0.70067,0.2647 0.0988,0 0.26158,0.053 0.36181,0.1194 l 0.18223,0.1194 0.64971,0.046 0.64971,0.046 -0.0344,-0.056 c -0.0189,-0.031 0.0294,-0.056 0.10723,-0.056 0.0779,0 0.18426,-0.051 0.23638,-0.1142 l 0.0948,-0.1142 -0.19083,-0.177 -0.19082,-0.1769 -0.0492,-0.3487 c -0.027,-0.1918 -0.0979,-0.4261 -0.15739,-0.5206 l -0.10821,-0.1717 -0.23123,0.038 c -0.12719,0.021 -0.32605,0.062 -0.44193,0.091 l -0.21069,0.052 -0.0672,-0.1201 -0.0672,-0.12 h -0.14625 c -0.20619,0 -0.53111,-0.1799 -1.14813,-0.6358 -0.6573,-0.4856 -0.81157,-0.5465 -1.37605,-0.5428 h -0.44723 l -0.54002,0.1807 c -0.29702,0.099 -0.63651,0.191 -0.75442,0.2038 l -0.21439,0.023 -0.0283,-0.2925 c -0.0155,-0.1608 -0.10502,-0.462 -0.19875,-0.6692 l -0.17043,-0.3767 0.0804,-0.08 c 0.0442,-0.044 0.1242,-0.08 0.17775,-0.08 0.0535,0 0.11942,-0.058 0.14636,-0.1279 0.0269,-0.07 0.10682,-0.1773 0.17747,-0.2377 0.0706,-0.061 0.19568,-0.2836 0.2778,-0.4963 l 0.14932,-0.3866 v -0.3702 -0.3702 l -0.20403,-0.1938 -0.20403,-0.194 0.0507,-0.2925 0.0507,-0.2925 -0.14116,-0.1531 -0.14115,-0.1531 0.0473,-0.4024 0.0473,-0.4025 -0.11434,-0.2488 -0.11434,-0.249 -0.0336,-0.7152 -0.0336,-0.7152 -0.0892,-0.1075 -0.0892,-0.1075 h -1.18955 -1.18956 l -0.0496,0.2645 c -0.0273,0.1454 -0.0271,0.4827 9.4e-4,0.7495 l 0.05,0.4852 0.11243,0.128 c 0.0618,0.07 0.15931,0.1279 0.21661,0.1279 h 0.10416 l -0.0476,0.2377 c -0.0262,0.1308 -0.0803,0.3432 -0.12015,0.4721 l -0.0725,0.2346 -0.489,-0.039 c -0.26897,-0.022 -0.53356,-0.053 -0.58802,-0.07 l -0.099,-0.031 0.0551,-0.1273 c 0.0303,-0.07 0.0635,-0.6457 0.0739,-1.2791 l 0.0188,-1.1519 -1.10839,10e-4 h -1.1084 l -0.0774,0.167 z m 11.57557,9.0172 c -0.0243,0.024 -0.0874,0.027 -0.14016,0.01 l -0.096,-0.038 0.14017,-0.01 c 0.0771,0 0.12028,0.014 0.096,0.038 z"
         style="fill:#000000;stroke-width:0.0548476"
         id="path23238" />
      <path
         d="m 313.80358,1683.9647 c -0.34333,0.4632 0.0636,0.3744 0.0189,1.0014 -0.0511,0.5625 -0.20461,1.1441 -0.12988,1.8132 -0.32512,0.7192 -0.32587,3.3672 -0.42261,1.2299 -0.16395,-1.0699 0.22076,-2.0968 0.29148,-3.1571 -0.33868,-0.5481 -1.10441,-0.036 -1.48368,-0.6373 -0.41366,-0.2356 -1.06732,-0.3151 -1.44977,0.037 0.10636,0.8589 1.80025,1.0116 1.31337,1.8545 0.0669,1.3157 -0.5643,2.4762 -0.80883,3.7424 0.2524,1.2055 0.19641,2.4796 -0.13348,3.6514 0.63292,1.1537 -0.0435,1.1148 -0.90431,1.352 -0.52597,0.2396 -1.34333,1.1187 -0.72572,1.5984 0.66028,0.7303 0.72012,1.877 1.33596,2.6342 0.44973,0.4793 1.83105,0.2663 1.57029,1.1856 -0.43384,0.6435 -0.94783,0.8671 -0.53652,1.8252 0.51425,1.0067 2.28162,0.9644 2.55695,-0.1911 0.6843,-0.7977 -0.2678,-1.0557 -0.31022,-1.914 0.31239,-0.6195 1.49831,-0.3016 1.91958,-0.8958 0,0 0.21276,-1.6867 1.23537,-3.0685 0.17332,-0.6665 -0.36579,-1.473 -1.10373,-1.2774 -1.75447,0.6489 0.15917,-1.1761 -0.41081,-2.0219 -0.27634,-2.5586 -0.29642,-5.1685 -0.73753,-7.7158 0.0293,-0.684 0.61157,-0.7285 -0.006,-1.1249 -0.25762,0 -0.81601,-0.1187 -1.07909,0.079 z m -2.58797,12.2781 c -0.0326,0.6518 -0.27198,-0.6101 0,0 z"
         id="path24595"
         sodipodi:nodetypes="cccccccccccccccccccccccccc"
         style="stroke-width:0.948084" />
      <path
         d="m 322.24842,1684.0091 c -0.4263,0.2417 0.016,0.7033 0.21633,0.8317 0.56773,0.3638 0.64399,0.4301 0.54909,0.495 -0.063,0.044 -0.1681,0.058 -0.2319,0.03 -0.063,-0.027 -0.2026,-0.052 -0.3088,-0.057 -0.2765,-0.011 -0.4862,0.416 -0.4232,0.8613 0.026,0.1806 0.028,0.3283 0.011,0.3283 -0.023,0 -0.3466,-0.1551 -0.7191,-0.3446 -0.3726,-0.1897 -0.8683,-0.4329 -1.102,-0.5406 -0.7097,-0.3274 -0.7786,-0.4084 -0.8273,-0.9733 -0.024,-0.2734 -0.077,-0.5406 -0.1193,-0.5937 -0.094,-0.1192 -0.5528,-0.1262 -0.7662,-0.011 -0.1469,0.079 -0.1541,0.1296 -0.1035,0.7311 0.053,0.6421 0.051,0.6488 -0.1958,0.9939 -0.2471,0.3441 -0.2488,0.3517 -0.1587,0.7943 0.057,0.2777 0.065,0.5346 0.025,0.6785 -0.038,0.1325 -0.037,0.3641 0,0.5407 0.038,0.17 0.099,0.5349 0.1351,0.8109 0.1661,1.274 0.3331,2.3328 0.4634,2.935 0.079,0.3609 0.1641,0.8302 0.1912,1.0425 0.1003,0.786 0.3238,1.2062 0.7245,1.3608 0.126,0.048 0.1666,0.1093 0.1327,0.1976 -0.027,0.071 -0.089,0.3651 -0.1394,0.6556 -0.073,0.4262 -0.1143,0.5207 -0.214,0.4891 -0.068,-0.022 -0.1853,0.011 -0.2608,0.061 -0.1307,0.096 -0.129,0.1258 0.036,0.6375 0.095,0.2954 0.2281,0.6131 0.2958,0.7058 0.3601,0.4934 1.3522,0.6608 1.8615,0.3141 0.4048,-0.2755 0.546,-0.5271 0.617,-1.1002 0.06,-0.4849 0.051,-0.5362 -0.099,-0.6587 -0.1539,-0.1245 -0.1564,-0.1441 -0.04,-0.3208 0.086,-0.1309 0.2729,-0.2295 0.614,-0.3236 1.073,-0.2961 1.5453,-0.6333 1.8493,-1.3207 0.1436,-0.3247 0.1729,-0.5501 0.1915,-1.4674 0.012,-0.596 0.025,-1.1097 0.028,-1.1415 0,-0.032 0.1299,-0.1951 0.2819,-0.3635 0.2675,-0.2961 0.2746,-0.3194 0.2226,-0.7359 -0.031,-0.2365 -0.1713,-0.6752 -0.315,-0.975 -0.1435,-0.2997 -0.2609,-0.6395 -0.2609,-0.755 0,-0.1154 -0.039,-0.249 -0.087,-0.2965 -0.063,-0.063 -0.064,-0.2851 -2e-4,-0.8458 0.047,-0.4175 0.066,-0.9154 0.041,-1.1065 -0.025,-0.1911 -0.05,-0.6023 -0.058,-0.9136 0.0119,-0.2883 0.12874,-0.4303 -0.55036,-0.6342 -0.50649,-0.1153 -1.04222,-0.055 -1.50646,-0.016 z m -1.67718,6.1082 c 0.1231,0.136 0.1175,0.1573 -0.1057,0.3967 -0.1299,0.139 -0.2491,0.2395 -0.2645,0.223 -0.016,-0.016 -0.067,-0.1673 -0.1118,-0.3354 -0.063,-0.2327 -0.061,-0.3198 0.011,-0.3657 0.1583,-0.1003 0.3342,-0.071 0.4712,0.082 z"
         id="path89441-8-5"
         sodipodi:nodetypes="csccccsscccccccccccscccccccssccssscscssccscccccccccc" />
      <path
         d="m 328.68298,1684.4497 v 0.36 l 0.61637,0.5917 0.61636,0.5917 v 0.6016 c 0,0.3309 -0.0369,0.8137 -0.082,1.0729 l -0.082,0.4712 -0.75927,0.089 c -0.41758,0.049 -0.82469,0.1651 -0.90464,0.257 l -0.1454,0.1671 -0.056,1.4709 -0.056,1.4712 0.30424,0.3255 0.30425,0.3255 -0.0655,0.2084 c -0.036,0.1146 0.0312,0.3357 0.14937,0.4913 l 0.21481,0.2829 -0.0333,1.1128 -0.0333,1.1128 0.29898,1.1997 0.29897,1.1998 0.26694,0.2723 0.26694,0.2722 -0.28589,0.4176 c -0.15725,0.2295 -0.28591,0.5511 -0.28591,0.7147 v 0.2973 l -0.34242,0.1495 c -0.18835,0.082 -0.34242,0.2131 -0.34242,0.2908 0,0.2896 0.7194,1.6068 1.00136,1.8335 l 0.29229,0.2352 h 0.45946 0.45944 l 0.40035,-0.4598 0.40036,-0.4598 v -0.3174 c 0,-0.1746 0.0663,-0.3645 0.14729,-0.4221 l 0.14726,-0.1044 -0.30476,-0.3726 -0.30474,-0.3725 0.19171,-0.061 c 0.10546,-0.034 0.4691,-0.1372 0.80809,-0.23 l 0.61636,-0.1685 0.11911,0.1346 c 0.0655,0.074 0.1701,0.4056 0.23243,0.737 0.0623,0.3314 0.16528,0.8498 0.22876,1.1522 l 0.11542,0.5496 0.21764,0.048 c 0.11968,0.026 0.31741,-0.067 0.43942,-0.2066 l 0.2218,-0.2548 -0.11952,-0.2643 c -0.0657,-0.1454 -0.16254,-0.9828 -0.21518,-1.861 l -0.0957,-1.5967 0.40235,-0.273 c 0.22128,-0.1501 0.49929,-0.4613 0.61778,-0.6917 l 0.21542,-0.4189 0.0157,-0.7789 c 0.009,-0.4283 -0.0253,-1.009 -0.0754,-1.2901 l -0.0912,-0.5112 h 0.13655 c 0.12729,0 0.28628,-0.3926 0.3823,-0.9439 0.20882,-1.1986 0.3326,-2.2343 0.33328,-2.7885 l 0.002,-0.6649 -0.33424,-0.2515 -0.33425,-0.2515 0.24976,-0.5107 c 0.13738,-0.2809 0.40247,-0.6999 0.58909,-0.9312 l 0.33935,-0.4205 0.0751,-0.9506 0.0751,-0.9506 -0.13088,-0.5444 -0.1309,-0.5445 h -0.83134 -0.83133 l 0.10109,0.3541 c 0.0556,0.1946 0.13004,0.6458 0.16537,1.0025 l 0.0642,0.6488 -0.21073,0.4523 c -0.11589,0.2488 -0.63927,0.9628 -1.16304,1.5867 l -0.95232,1.1341 -0.093,0.7769 -0.093,0.7767 -0.33628,0.074 -0.33629,0.074 -0.26314,-0.6634 -0.26312,-0.6634 0.0697,-2.4178 c 0.0383,-1.3299 0.0345,-2.5793 -0.008,-2.7766 l -0.0784,-0.3586 h -1.2986 -1.29858 z"
         id="path10254-0" />
    </g>
  </g>
</svg>
