<?xml version="1.0" encoding="UTF-8" standalone="no"?>
<!-- Created with Inkscape (http://www.inkscape.org/) -->

<svg
   width="14.084934mm"
   height="7.9242201mm"
   viewBox="0 0 14.084934 7.9242201"
   version="1.1"
   id="svg17164"
   sodipodi:docname="inkporter-svg-qaofyfpl.svg"
   xmlns:inkscape="http://www.inkscape.org/namespaces/inkscape"
   xmlns:sodipodi="http://sodipodi.sourceforge.net/DTD/sodipodi-0.dtd"
   xmlns="http://www.w3.org/2000/svg"
   xmlns:svg="http://www.w3.org/2000/svg">
  <sodipodi:namedview
     id="namedview17166"
     pagecolor="#ffffff"
     bordercolor="#666666"
     borderopacity="1.0"
     inkscape:pageshadow="2"
     inkscape:pageopacity="0.0"
     inkscape:pagecheckerboard="0"
     inkscape:document-units="mm"
     showgrid="false"
     inkscape:zoom="0.64052329"
     inkscape:cx="397.33138"
     inkscape:cy="561.25984"
     inkscape:window-width="1920"
     inkscape:window-height="1017"
     inkscape:window-x="-8"
     inkscape:window-y="-8"
     inkscape:window-maximized="1"
     inkscape:current-layer="layer1" />
  <defs
     id="defs17161" />
  <g
     inkscape:label="Layer 1"
     inkscape:groupmode="layer"
     id="layer1"
     transform="translate(-62.542733,-124.97518)">
    <path
       d="m 64.959828,132.0799 c 0.410633,0.14469 0.960473,0.32522 1.361475,0.43684 -0.115746,-0.12678 -0.18602,-0.2949 -0.18602,-0.47956 0,-0.39274 0.318312,-0.70969 0.711059,-0.70969 0.0496,0 0.09786,0.004 0.14471,0.0138 l 0.15434,-0.15572 h -1.332583 c -0.04685,0.45889 -0.401002,0.82545 -0.852981,0.89435 m 2.290268,0.54157 h 1.305031 c -0.133667,-0.0937 -0.23428,-0.23013 -0.278377,-0.38999 h -0.746901 c -0.04547,0.15986 -0.144674,0.29628 -0.279753,0.38999 m 2.115291,0 h 1.178243 c -0.18468,-0.12816 -0.305929,-0.34176 -0.305929,-0.58429 0,-0.39274 0.318311,-0.70969 0.711059,-0.70969 0.0496,0 0.09648,0.004 0.143333,0.0138 l 0.155716,-0.15572 h -2.417092 l 0.05789,0.1447 0.07165,-0.003 c 0.392748,0 0.709683,0.31695 0.709683,0.70969 0,0.24253 -0.12125,0.45613 -0.304553,0.58429 m 1.987127,0 h 1.305031 c -0.133668,-0.0937 -0.23428,-0.23014 -0.278377,-0.38999 h -0.746901 c -0.04547,0.15985 -0.14605,0.29628 -0.279753,0.38999 m 2.250369,-0.12403 c 0.336233,-0.10749 0.755156,-0.27147 1.103806,-0.42443 -0.531953,-0.0179 -0.975677,-0.38999 -1.10243,-0.88746 h -0.671124 l 0.05789,0.1447 0.07027,-0.003 c 0.392747,0 0.711059,0.31695 0.711059,0.70969 0,0.17502 -0.06339,0.33625 -0.169475,0.46027 m 2.254462,-2.39365 c 0.220486,0.36242 0.254917,0.82269 0.11437,1.22369 h 0.358281 v -0.35553 h 0.282505 v 0.35553 l 0.01517,0.2701 h -0.782708 c -0.08269,0.13643 -0.190182,0.26045 -0.321098,0.36242 -0.321098,0.25081 -1.999544,0.93983 -2.44602,0.93983 h -6.268685 c -0.37345,0 -2.210364,-0.63666 -2.499783,-0.77033 -0.367912,-0.17087 -0.694513,-0.67524 -0.669713,-1.10932 l -0.146085,-0.0551 v 0.36242 h -0.739987 l -0.100612,-0.006 v -0.52917 h 0.100612 v -1.87275 H 62.542733 V 128.226 h 0.210855 v -0.3514 h 0.318311 v -0.17639 h 0.140582 v -0.48232 l 0.540174,-1.82176 0.124036,-0.23289 0.270087,-0.15296 0.406506,-0.0331 h 2.932465 l 0.186055,0.0675 0.06339,0.13505 0.0081,0.11438 0.14605,1.15066 h 8.272392 v 3.06338 h -0.304553 z m -9.334853,-4.79144 -1.220928,0.0758 v 1.51171 h 0.556718 l -0.04272,-0.0772 -0.0081,-0.091 -0.0035,-0.11025 0.0194,-0.1254 0.02611,-0.10197 -0.07303,-0.0427 -0.08544,0.0124 -0.0799,-0.13366 -0.05927,-0.0675 0.04547,-0.15847 -0.180516,-0.0372 0.07027,-0.0386 0.03997,-0.12402 0.02081,-0.0606 0.03457,-0.0634 0.09507,-0.0882 c 0.01799,-0.0138 0.07719,-0.0317 0.07719,-0.0317 l 0.05923,-0.011 0.06477,-0.01 0.06202,0.007 0.10474,0.0179 c 0.05786,0.0234 0.09232,0.051 0.09232,0.051 l 0.06752,0.0772 0.04272,0.0951 0.0081,0.0785 -0.0081,0.091 c -0.01376,0.0951 0,0.10886 0,0.10886 l -0.06202,0.0551 0.07856,0.0758 0.122625,0.005 0.135044,0.0951 z m -2.950351,1.51722 h 0.540173 l 0.338985,-1.19889 h -0.523628 z m 0,0"
       id="S-Softskin-gun"
       style="stroke-width:0.352778" />
  </g>
</svg>
