<?xml version="1.0" encoding="UTF-8" standalone="no"?>
<!-- Created with Inkscape (http://www.inkscape.org/) -->

<svg
   width="22.126877mm"
   height="7.7073045mm"
   viewBox="0 0 22.126877 7.7073045"
   version="1.1"
   id="svg1371"
   sodipodi:docname="inkporter-svg-w20418jg.svg"
   xmlns:inkscape="http://www.inkscape.org/namespaces/inkscape"
   xmlns:sodipodi="http://sodipodi.sourceforge.net/DTD/sodipodi-0.dtd"
   xmlns="http://www.w3.org/2000/svg"
   xmlns:svg="http://www.w3.org/2000/svg">
  <sodipodi:namedview
     id="namedview1373"
     pagecolor="#ffffff"
     bordercolor="#666666"
     borderopacity="1.0"
     inkscape:pageshadow="2"
     inkscape:pageopacity="0.0"
     inkscape:pagecheckerboard="0"
     inkscape:document-units="mm"
     showgrid="false"
     inkscape:zoom="1.2810466"
     inkscape:cx="243.55086"
     inkscape:cy="216.61976"
     inkscape:window-width="1920"
     inkscape:window-height="1017"
     inkscape:window-x="-8"
     inkscape:window-y="-8"
     inkscape:window-maximized="1"
     inkscape:current-layer="layer1" />
  <defs
     id="defs1368" />
  <g
     inkscape:label="Layer 1"
     inkscape:groupmode="layer"
     id="layer1"
     transform="translate(-53.37606,-62.03161)">
    <path
       d="m 57.60707,69.70692 c -0.0122,-0.0197 -0.0616,-0.0254 -0.11,-0.0127 -0.054,0.0141 -0.0978,-0.002 -0.11345,-0.0435 -0.0153,-0.0399 -0.0596,-0.0576 -0.11064,-0.0443 -0.0518,0.0136 -0.0954,-0.005 -0.11143,-0.0463 -0.0145,-0.0378 -0.0525,-0.0586 -0.0845,-0.0463 -0.0319,0.0122 -0.0851,-0.0152 -0.11803,-0.061 -0.033,-0.0459 -0.0948,-0.0963 -0.13736,-0.11222 -0.0426,-0.0159 -0.0774,-0.0594 -0.0774,-0.0967 0,-0.0373 -0.0299,-0.0678 -0.0664,-0.0678 -0.0365,0 -0.0664,-0.0289 -0.0664,-0.0642 0,-0.0353 -0.0283,-0.0801 -0.0628,-0.0996 -0.0346,-0.0195 -0.0694,-0.0653 -0.0774,-0.10177 -0.008,-0.0365 -0.0327,-0.0795 -0.055,-0.0955 -0.0222,-0.0161 -0.0443,-0.0658 -0.0492,-0.11064 -0.005,-0.0448 -0.0257,-0.12134 -0.0462,-0.17002 -0.0206,-0.0487 -0.0382,-0.2572 -0.0394,-0.46338 -0.002,-0.37364 -0.002,-0.37536 -0.16223,-0.52 -0.17354,-0.15714 -0.28026,-0.18336 -0.32042,-0.0787 -0.0141,0.0365 -0.0759,0.0663 -0.1375,0.0663 -0.09,0 -0.11203,0.0218 -0.11203,0.11064 v 0.11063 l -0.4536,1.7e-4 c -0.24948,9e-5 -0.73846,0.0132 -1.08662,0.0291 l -0.633,0.0289 0.008,-0.64671 c 0.01,-0.762 0.0382,-0.8498 0.27428,-0.8498 0.16274,0 0.23561,0.0729 0.0937,0.0937 -0.10823,0.0159 -0.15187,0.0756 -0.10761,0.14719 0.0316,0.0511 0.0518,0.0525 0.10584,0.008 0.0541,-0.045 0.0879,-0.0416 0.17822,0.0176 0.12723,0.0834 0.29279,0.0526 0.29279,-0.0543 0,-0.11429 0.23746,-0.4551 0.31715,-0.45519 0.0406,-4e-5 0.0808,-0.0211 0.0893,-0.0469 0.0107,-0.0319 0.075,-0.0334 0.20283,-0.005 0.1081,0.0242 0.18725,0.0254 0.18725,0.002 0,-0.0821 0.13665,-0.0353 0.17548,0.06 0.0223,0.0547 0.0814,0.1593 0.13137,0.23232 0.05,0.073 0.091,0.20247 0.0911,0.28766 l 3.4e-4,0.1549 0.43147,-0.006 c 0.53762,-0.008 0.56347,-0.01 0.52805,-0.045 -0.0159,-0.0159 0.04,-0.12466 0.12413,-0.24178 0.15119,-0.21044 0.15192,-0.21366 0.0625,-0.27633 -0.0765,-0.0536 -0.0822,-0.0768 -0.0364,-0.15003 0.0462,-0.0739 0.0337,-0.11627 -0.0853,-0.28918 -0.11772,-0.1711 -0.13937,-0.24313 -0.13937,-0.46398 v -0.26145 l 0.19616,-0.008 c 0.16198,-0.006 0.22151,0.0157 0.34177,0.12559 0.0801,0.0731 0.16608,0.133 0.19108,0.133 0.025,0 0.10106,-0.0697 0.16904,-0.15489 0.10583,-0.13264 0.15032,-0.15496 0.30978,-0.15541 0.21103,-4.2e-4 1.56921,-0.16447 1.61922,-0.19538 0.018,-0.0111 0.20073,-0.0318 0.40617,-0.0459 0.20544,-0.0142 0.57268,-0.057 0.81607,-0.095 0.24341,-0.0381 0.54212,-0.0732 0.66382,-0.0779 0.24496,-0.01 0.33191,-0.0461 0.33191,-0.13947 0,-0.079 0.15032,-0.16132 0.23518,-0.12875 0.0397,0.0152 0.10187,-0.0276 0.16111,-0.11079 0.0914,-0.12832 0.11252,-0.13558 0.39492,-0.13558 h 0.2984 l 0.15406,-0.32761 0.15406,-0.32761 -0.15675,-0.026 c -0.0862,-0.0143 -0.4206,-0.0261 -0.74311,-0.0265 l -0.58638,-4.2e-4 v -0.17702 -0.17702 l 0.82978,-6e-5 c 0.45637,-3e-5 1.62137,-0.0132 2.58888,-0.0293 l 1.75912,-0.0293 v -0.27962 c 0,-0.26907 0.005,-0.28062 0.1217,-0.30628 0.067,-0.0147 0.15157,-0.0366 0.18808,-0.0488 0.0934,-0.0312 2.23105,-0.2714 2.25222,-0.25313 0.01,0.008 -0.0453,0.18677 -0.12171,0.39672 -0.0765,0.20996 -0.13906,0.39964 -0.13906,0.42151 0,0.0219 0.0671,0.0398 0.14917,0.0398 h 0.14918 l 0.0297,-0.26315 c 0.0234,-0.20703 0.0482,-0.26902 0.11635,-0.29064 0.0476,-0.0151 0.0866,-0.056 0.0866,-0.0909 0,-0.0349 0.0382,-0.0634 0.085,-0.0634 0.0585,0 0.0941,0.0414 0.11414,0.13277 0.0343,0.15646 0.19915,0.19308 0.19915,0.0443 0,-0.0491 0.0295,-0.0885 0.0664,-0.0885 0.0365,0 0.0664,0.0299 0.0664,0.0663 0,0.0757 0.0931,0.0883 0.15973,0.0217 0.0699,-0.0699 0.3163,0.17548 0.33415,0.33273 0.0142,0.12431 0.0263,0.13213 0.20122,0.12867 0.19987,-0.004 0.30969,0.10287 0.14897,0.1449 -0.0537,0.0141 -0.0762,0.0469 -0.0603,0.0883 0.0216,0.0563 0.1226,0.0614 0.69395,0.0345 0.36775,-0.0173 0.68334,-0.04 0.70131,-0.0504 0.018,-0.0105 0.44612,-0.0277 0.95147,-0.0383 0.50534,-0.0106 1.07537,-0.0392 1.26674,-0.0636 0.19136,-0.0244 0.36562,-0.0335 0.38723,-0.0201 0.0216,0.0134 0.0393,0.10277 0.0393,0.19869 0,0.16982 0.004,0.17441 0.15489,0.17441 h 0.1549 v 0.26764 c 0,0.23224 0.0154,0.28193 0.11651,0.37562 0.0962,0.0892 0.11219,0.13461 0.0917,0.26094 -0.024,0.14785 -0.0197,0.1534 0.12781,0.16649 0.0839,0.008 0.15221,0.0284 0.1517,0.0467 -4.1e-4,0.0183 -7.6e-4,0.33191 -7.6e-4,0.69701 v 0.66382 h -0.1931 -0.19308 l -0.0253,0.29872 c -0.0181,0.21452 -0.009,0.31118 0.031,0.34297 0.031,0.0244 0.0661,0.0739 0.0781,0.11014 0.0143,0.0433 0.0812,0.066 0.19526,0.0663 l 0.17349,4.2e-4 0.0128,0.35949 c 0.0116,0.326 0.005,0.36162 -0.0742,0.38226 -0.0605,0.0158 -0.0914,0.068 -0.10128,0.17156 -0.0102,0.10632 -0.0332,0.1439 -0.0806,0.13167 -0.0365,-0.009 -0.29488,-0.0134 -0.57415,-0.009 -0.55035,0.009 -0.57467,0.02 -0.57579,0.2582 -3.3e-4,0.0791 -0.0206,0.14382 -0.0449,0.14382 -0.0244,0 -0.0411,0.015 -0.0372,0.0332 0.0161,0.0748 -0.0979,0.27659 -0.1562,0.27659 -0.0345,0 -0.0753,0.0327 -0.0906,0.0727 -0.0154,0.04 -0.0399,0.0607 -0.0546,0.046 -0.0147,-0.0147 -0.0784,0.0323 -0.14157,0.10431 -0.0632,0.072 -0.13823,0.13095 -0.16671,0.13095 -0.0284,0 -0.0644,0.0327 -0.0797,0.0727 -0.0154,0.04 -0.0383,0.0623 -0.051,0.0496 -0.0127,-0.0127 -0.10346,0.0542 -0.20172,0.14856 -0.0982,0.0944 -0.19787,0.17163 -0.22138,0.17163 -0.0236,0 -0.0889,0.0498 -0.14529,0.11064 -0.0564,0.0608 -0.11416,0.11063 -0.12837,0.11063 -0.0142,0 -0.0796,0.0498 -0.14522,0.11064 -0.0657,0.0608 -0.14635,0.11064 -0.17929,0.11064 -0.033,0 -0.0599,0.0199 -0.0599,0.0443 0,0.0244 -0.0386,0.0443 -0.0859,0.0443 -0.0472,0 -0.0965,0.0171 -0.10944,0.0381 -0.0129,0.0209 -1.03474,0.0378 -2.27065,0.0373 -1.96092,-7.6e-4 -2.26684,-0.01 -2.402,-0.0712 -0.0852,-0.0388 -0.16154,-0.0855 -0.16965,-0.10374 -0.008,-0.0183 -0.0401,-0.0332 -0.071,-0.0332 -0.031,0 -0.10995,-0.0498 -0.17561,-0.11063 -0.0657,-0.0609 -0.13827,-0.11065 -0.16136,-0.11065 -0.0231,0 -0.042,-0.0149 -0.042,-0.0332 -4e-5,-0.0183 -0.0996,-0.10103 -0.22127,-0.18394 -0.12166,-0.0829 -0.22118,-0.16756 -0.22118,-0.18809 0,-0.0206 -0.0258,-0.0373 -0.0573,-0.0373 -0.0315,0 -0.14012,-0.0772 -0.24138,-0.17167 -0.10125,-0.0944 -0.19449,-0.16127 -0.20721,-0.14856 -0.0127,0.0127 -0.0356,-0.01 -0.051,-0.0496 -0.0154,-0.04 -0.0563,-0.0727 -0.091,-0.0727 -0.0347,0 -0.0745,-0.0299 -0.0885,-0.0663 -0.014,-0.0365 -0.0498,-0.0663 -0.0796,-0.0663 -0.0298,0 -0.0824,-0.0547 -0.1169,-0.1217 -0.0345,-0.067 -0.0782,-0.13312 -0.097,-0.14708 -0.0331,-0.0245 -0.0795,-0.18142 -0.0874,-0.29547 -0.002,-0.0304 -0.0585,-0.0553 -0.12553,-0.0553 -0.067,0 -0.12997,0.0249 -0.14007,0.0553 -0.0129,0.0389 -0.17263,0.0598 -0.53762,0.0703 -0.39608,0.0114 -0.52493,0.0297 -0.54322,0.0774 -0.0177,0.046 -0.11019,0.0625 -0.35116,0.0625 -0.26132,0 -0.32718,0.0134 -0.32718,0.0664 0,0.0501 -0.0541,0.0663 -0.22127,0.0663 -0.16718,0 -0.22127,-0.0162 -0.22127,-0.0663 0,-0.0508 -0.056,-0.0664 -0.23867,-0.0664 -0.17132,0 -0.24585,-0.0187 -0.26414,-0.0663 -0.0168,-0.0438 -0.0861,-0.0663 -0.20388,-0.0663 -0.12907,0 -0.1784,0.0183 -0.1784,0.0663 0,0.0508 -0.056,0.0663 -0.2386,0.0663 -0.2176,0 -0.24105,0.01 -0.26637,0.11064 l -0.0277,0.11063 h -0.74583 -0.74582 l -0.0286,0.17895 c -0.0157,0.0984 -0.0465,0.21293 -0.0683,0.25446 -0.0219,0.0415 -0.074,0.15393 -0.11583,0.24978 -0.0796,0.18233 -0.0913,0.19963 -0.25498,0.37891 -0.10557,0.11563 -0.36123,0.30978 -0.4079,0.30978 -0.0149,0 -0.0581,0.031 -0.096,0.069 -0.0379,0.0379 -0.0977,0.0579 -0.13289,0.0444 -0.0352,-0.0135 -0.0945,0.006 -0.13175,0.0433 -0.0522,0.0522 -0.082,0.056 -0.12947,0.0166 -0.0352,-0.0292 -0.0617,-0.0326 -0.0617,-0.008 0,0.0523 -0.69835,0.0631 -0.73034,0.0113 z m 10.91152,-0.40884 c -0.0838,-0.14747 -0.2042,-0.15615 -0.31239,-0.0226 -0.0975,0.12041 -0.067,0.14396 0.18647,0.14396 h 0.19496 z m 1.49904,-0.0486 c -0.0469,-0.0769 -0.0853,-0.18974 -0.0854,-0.25082 -9e-5,-0.0647 -0.0389,-0.13523 -0.0929,-0.16897 -0.0789,-0.0493 -0.10529,-0.0466 -0.17702,0.0183 -0.0463,0.042 -0.0843,0.1088 -0.0843,0.14856 0,0.0398 -0.0371,0.14514 -0.0825,0.23418 l -0.0825,0.16189 0.13785,0.0134 c 0.0758,0.008 0.23105,0.007 0.34495,-0.002 l 0.20708,-0.0151 -0.0852,-0.13976 z m 1.28229,0.0477 c -0.0987,-0.0927 -0.11072,-0.0946 -0.1623,-0.0251 -0.0307,0.0412 -0.10034,0.0836 -0.15489,0.0941 -0.0546,0.0106 0.0185,0.0219 0.16229,0.0251 l 0.26147,0.006 z m -4.1329,-0.30961 c 0.002,-0.4885 0.5417,-0.71827 0.91838,-0.39113 0.26574,0.2308 0.3235,0.24314 0.43104,0.0921 0.13084,-0.18376 0.33493,-0.28093 0.59693,-0.28419 0.25627,-0.003 0.25955,-0.0185 0.0875,-0.40755 -0.0619,-0.13989 -0.13296,-0.23691 -0.17359,-0.23691 -0.0378,0 -0.0688,-0.0199 -0.0688,-0.0443 0,-0.0244 -0.0861,-0.0443 -0.19143,-0.0443 -0.14481,0 -0.21572,0.0258 -0.29114,0.10615 -0.12736,0.13557 -0.24759,0.15695 -0.63899,0.11365 -0.63714,-0.0705 -0.67196,-0.0698 -0.65774,0.0137 0.007,0.042 -0.005,0.0763 -0.0261,0.0763 -0.0384,0 -0.15457,0.20484 -0.16077,0.28344 -0.002,0.022 -0.043,0.0459 -0.0916,0.053 -0.0486,0.007 -0.12278,0.0554 -0.16472,0.10717 -0.042,0.0518 -0.0935,0.0836 -0.11448,0.0706 -0.021,-0.013 -0.0931,-0.009 -0.16021,0.009 l -0.12199,0.0326 0.14524,0.10932 c 0.0799,0.0602 0.26422,0.20391 0.40962,0.31953 0.14541,0.11561 0.2661,0.21014 0.2682,0.21006 0.002,-8e-5 0.004,-0.0848 0.005,-0.18834 z m 5.57742,-0.23217 c 0.18134,-0.13889 0.32971,-0.26282 0.32971,-0.27539 0,-0.0126 -0.0277,1.7e-4 -0.0617,0.0284 -0.11406,0.0947 -0.60347,-0.15206 -0.53177,-0.26807 0.0129,-0.0207 -0.005,-0.0784 -0.0402,-0.12824 -0.053,-0.0756 -0.0677,-0.0794 -0.0894,-0.0229 -0.0174,0.0454 -0.0697,0.0626 -0.1587,0.0522 -0.073,-0.008 -0.14021,0.007 -0.14934,0.0339 -0.0114,0.0339 -0.0397,0.0303 -0.0902,-0.0114 -0.0548,-0.0452 -0.0736,-0.0469 -0.0736,-0.006 0,0.03 -0.0292,0.0432 -0.065,0.0295 -0.0357,-0.0138 -0.0755,-0.008 -0.0884,0.013 -0.0129,0.0209 -0.0832,0.0338 -0.15631,0.0288 -0.0731,-0.005 -0.13287,0.009 -0.13287,0.0313 0,0.0222 -0.0307,0.0287 -0.0681,0.0143 -0.0375,-0.0144 -0.10454,-0.003 -0.14904,0.0244 -0.11474,0.0716 -0.22538,0.0148 -0.22538,-0.11576 0,-0.0609 -0.0438,-0.20099 -0.0973,-0.31117 -0.081,-0.16675 -0.11811,-0.20033 -0.22128,-0.20033 -0.0682,0 -0.12394,0.0176 -0.12394,0.0391 0,0.0215 -0.0352,0.0483 -0.0784,0.0596 -0.0793,0.0207 -0.33355,0.58101 -0.28549,0.62907 0.0135,0.0135 0.10958,0.0245 0.21347,0.0245 0.25466,0 0.41617,0.0658 0.54868,0.22366 0.15378,0.18314 0.27712,0.19763 0.36829,0.0433 0.0872,-0.1476 0.32001,-0.26696 0.52076,-0.26696 0.28375,0 0.51641,0.26423 0.53059,0.60257 0.002,0.0459 0.0129,0.0605 0.0244,0.0325 0.0115,-0.028 0.1692,-0.16452 0.35054,-0.30341 z m -14.0916,0.0334 c 0.055,-0.0702 0.0535,-0.0718 -0.0168,-0.0167 -0.0426,0.0334 -0.0774,0.0683 -0.0774,0.0774 0,0.0364 0.0363,0.013 0.0942,-0.0608 z m 8.09375,-0.521 c 0.0468,-0.0563 0.044,-0.0628 -0.0167,-0.0395 -0.0399,0.0153 -0.0726,0.0456 -0.0726,0.0674 0,0.0569 0.0256,0.0489 0.0893,-0.0279 z m 6.26448,-0.19279 c -0.0329,-0.0532 -0.20245,-0.0944 -0.20245,-0.0491 0,0.04 0.078,0.0791 0.16857,0.0846 0.0319,0.002 0.0471,-0.014 0.0339,-0.0355 z m 0.36453,-0.099 c -0.0303,-0.0187 -0.0806,-0.0128 -0.11189,0.0131 -0.0969,0.0805 -0.0625,0.1255 0.0551,0.0719 0.0784,-0.0357 0.0954,-0.0611 0.0568,-0.085 z m 0.2046,-0.21149 c 0.0135,-0.0218 -0.008,-0.0521 -0.048,-0.0674 -0.0862,-0.033 -0.12432,-0.006 -0.0837,0.0599 0.0355,0.0576 0.0986,0.0612 0.13171,0.008 z m -5.38511,-0.0811 c -0.0913,-0.01 -0.24064,-0.01 -0.33191,0 -0.0913,0.01 -0.0166,0.0174 0.16595,0.0174 0.18256,0 0.25723,-0.008 0.16596,-0.0174 z m 7.16924,-0.66477 c 0.0108,-0.0325 -0.0197,-0.0553 -0.0738,-0.0553 -0.0543,0 -0.0922,0.0286 -0.0922,0.0696 0,0.0813 0.13809,0.0694 0.16597,-0.0143 z M 56.6192,65.71029 c -0.0529,-0.0563 -0.0962,-0.1559 -0.0962,-0.22127 0,-0.0761 -0.0239,-0.11885 -0.0664,-0.11885 -0.0365,0 -0.0664,0.0301 -0.0664,0.067 0,0.10169 0.19064,0.37436 0.26218,0.37499 0.0448,3.4e-4 0.0352,-0.029 -0.0332,-0.10187 z m 0.40658,-0.27373 c 0.014,-0.0365 0.006,-0.0664 -0.0173,-0.0664 -0.0236,0 -0.0429,0.0299 -0.0429,0.0664 0,0.0365 0.008,0.0663 0.0174,0.0663 0.01,0 0.0288,-0.0298 0.0429,-0.0663 z m 5.94308,-1.12089 c -0.0905,-0.10002 -0.0928,-0.14035 -0.008,-0.14035 0.0359,0 0.098,0.0498 0.13786,0.11064 l 0.0725,0.11064 h 0.94638 0.94638 v -0.22535 -0.22534 l -0.7462,0.0146 c -0.80231,0.0157 -0.89121,-0.005 -0.89121,-0.20557 0,-0.11755 0.0686,-0.18293 0.22127,-0.21101 0.0608,-0.0112 -0.0338,-0.0231 -0.21021,-0.0264 -0.17646,-0.003 -0.33371,-0.008 -0.34944,-0.009 -0.0471,-0.005 -0.32544,0.6616 -0.32544,0.7791 0,0.0926 0.0208,0.10884 0.13962,0.10884 0.13246,0 0.13587,-0.004 0.0664,-0.0809 z m -0.75441,-0.085 c 0.0907,-0.11949 0.0744,-0.14383 -0.0962,-0.14383 -0.18111,0 -0.30713,0.0562 -0.34454,0.15366 -0.0398,0.10366 0.36137,0.0947 0.44073,-0.01 z m 12.85114,-0.0801 c 0,-0.0937 -0.018,-0.14643 -0.0443,-0.13015 -0.0244,0.0151 -0.0443,0.0859 -0.0443,0.1575 0,0.0716 0.0199,0.13016 0.0443,0.13016 0.0244,0 0.0443,-0.0709 0.0443,-0.15751 z m -11.0968,-0.62412 c -0.0304,-0.0122 -0.0802,-0.0122 -0.11064,0 -0.0304,0.0122 -0.005,0.0223 0.0553,0.0223 0.0609,0 0.0857,-0.01 0.0553,-0.0223 z m 8.04324,-0.28048 c 0,-0.0502 -0.64539,-0.0511 -1.12848,-0.002 -0.24936,0.0256 -0.16953,0.0332 0.40935,0.0388 0.45456,0.005 0.71913,-0.009 0.71913,-0.0373 z m 2.38975,-0.0725 v -0.1167 l -0.40936,0.0274 c -0.22514,0.0151 -0.72301,0.0406 -1.10635,0.0567 -0.54276,0.0228 -0.69702,0.0426 -0.69702,0.0893 0,0.0489 0.20468,0.06 1.10637,0.06 h 1.10636 z"
       id="S-SU57" />
  </g>
</svg>
