<?xml version="1.0" encoding="UTF-8" standalone="no"?>
<!-- Created with Inkscape (http://www.inkscape.org/) -->

<svg
   width="16.855017mm"
   height="7.8203421mm"
   viewBox="0 0 16.855017 7.8203421"
   version="1.1"
   id="svg6745"
   sodipodi:docname="inkporter-svg-de2d1i4p.svg"
   xmlns:inkscape="http://www.inkscape.org/namespaces/inkscape"
   xmlns:sodipodi="http://sodipodi.sourceforge.net/DTD/sodipodi-0.dtd"
   xmlns="http://www.w3.org/2000/svg"
   xmlns:svg="http://www.w3.org/2000/svg">
  <sodipodi:namedview
     id="namedview6747"
     pagecolor="#ffffff"
     bordercolor="#666666"
     borderopacity="1.0"
     inkscape:pageshadow="2"
     inkscape:pageopacity="0.0"
     inkscape:pagecheckerboard="0"
     inkscape:document-units="mm"
     showgrid="false"
     inkscape:zoom="0.66368547"
     inkscape:cx="397.02542"
     inkscape:cy="561.25984"
     inkscape:window-width="1920"
     inkscape:window-height="1017"
     inkscape:window-x="-8"
     inkscape:window-y="-8"
     inkscape:window-maximized="1"
     inkscape:current-layer="layer1" />
  <defs
     id="defs6742" />
  <g
     inkscape:label="Layer 1"
     inkscape:groupmode="layer"
     id="layer1"
     transform="translate(-76.831524,-86.538819)">
    <path
       d="m 85.13238,89.388211 -0.01129,-0.09172 c 0.0018,0.02963 0.0053,0.06033 0.01129,0.09172 m -2.432756,-0.691444 h -0.982133 v 0.898877 h 0.1143 v 0.115359 h 0.231422 v 0.113594 h 2.698397 v -0.25153 h 0.363714 c -0.03528,-0.06809 -0.06385,-0.162278 -0.06914,-0.290689 h -2.528711 z m -5.191477,0.02716 h 0.473075 v -0.390525 h -0.473075 z m 9.790641,5.405967 0.0078,-0.101953 c -0.04763,0.03916 -0.09878,0.07303 -0.153105,0.1016 z m 0.714375,7.06e-4 0.0095,-0.122062 c -0.178153,-0.156633 -0.293511,-0.383116 -0.302683,-0.636763 -0.02752,0.01094 -0.0568,0.01658 -0.08784,0.01658 -0.01341,0.219075 -0.104775,0.416983 -0.246239,0.565856 h 0.0822 l 0.0127,0.175683 0.175331,3.53e-4 0.0127,-0.176036 h 0.156281 l 0.01305,0.176389 z m 1.072444,7.05e-4 0.0028,-0.03704 c -0.02117,0.01305 -0.04269,0.02575 -0.06491,0.03704 z m 1.072798,0 0.0025,-0.04057 C 89.916046,93.934458 89.75271,93.660703 89.748477,93.3492 c -0.03775,0.02469 -0.08361,0.03916 -0.132292,0.03916 -0.03986,0 -0.0769,-0.0095 -0.110066,-0.02611 -0.0063,0.231422 -0.100189,0.440619 -0.250473,0.596194 l 0.0127,0.173214 h 0.174978 l 0.01305,-0.177447 h 0.155928 l 0.01305,0.177447 h 0.174978 l 0.01341,-0.177447 h 0.15628 l 0.01305,0.177094 z m -9.316156,-0.01305 0.0039,-0.04833 c -0.02505,0.01729 -0.0508,0.03316 -0.07691,0.04798 z m 1.072092,0.0021 0.0064,-0.08467 C 81.71608,93.872016 81.584494,93.620133 81.584494,93.337558 l 0.0011,-0.02999 c -0.0448,0.04974 -0.109008,0.08079 -0.180975,0.08079 -0.0702,0 -0.133703,-0.02999 -0.1778,-0.07796 l 3.53e-4,0.02716 c 0,0.238831 -0.09384,0.456495 -0.246592,0.616656 h 0.03034 l 0.01164,0.164394 0.177094,3.53e-4 0.01235,-0.164747 h 0.155928 l 0.01235,0.1651 0.176742,3.52e-4 0.01199,-0.165452 h 0.156633 l 0.01199,0.165805 z m 1.072444,0.0021 0.0035,-0.05256 c -0.02681,0.0187 -0.05503,0.03634 -0.08396,0.05256 z m 1.072092,0.0018 0.0063,-0.08855 c -0.204611,-0.163689 -0.335844,-0.415572 -0.335844,-0.698147 0,-0.01482 3.52e-4,-0.02999 0.0011,-0.04445 -0.0441,0.05821 -0.113947,0.09525 -0.192264,0.09525 -0.06456,0 -0.123119,-0.02505 -0.166158,-0.06632 v 0.01552 c 0,0.238831 -0.09419,0.456495 -0.246945,0.616656 h 0.02999 l 0.01235,0.168627 0.176741,3.53e-4 0.01199,-0.16898 h 0.156986 l 0.01199,0.169333 0.176389,3.53e-4 0.01235,-0.169686 h 0.155928 l 0.01305,0.170039 z m 1.072444,0.0021 0.0039,-0.05644 c -0.02928,0.02046 -0.05997,0.03951 -0.09137,0.05609 z M 85.269963,93.9542 h 0.02999 l 0.0127,0.172155 0.19932,7.06e-4 0.01235,-0.172861 h 0.15628 l 0.0127,0.172861 0.175684,7.05e-4 0.0127,-0.173566 h 0.15628 l 0.0127,0.173566 0.175684,3.53e-4 0.0042,-0.05574 c -0.232481,-0.161219 -0.385233,-0.430036 -0.385233,-0.734836 0,-0.01235 0,-0.02434 0.0011,-0.03669 -0.04445,0.05327 -0.111831,0.08749 -0.186972,0.08749 -0.05327,0 -0.102306,-0.01693 -0.142875,-0.04657 -7.06e-4,0.23742 -0.09419,0.452967 -0.246592,0.612423 m -6.878814,-0.733778 0.107245,-0.146756 c -0.07408,0.02328 -0.152047,0.03669 -0.232481,0.03986 l -0.01587,0.02893 z m 0.315736,0.172155 0.07832,-0.106891 h -0.1016 c -0.03422,0 -0.06491,-0.01376 -0.08749,-0.03528 l -0.03351,0.06385 z m 0.83432,0.358423 -0.03105,0.05927 0.09772,0.04868 c -0.02469,-0.03422 -0.04692,-0.0702 -0.06667,-0.10795 m 11.842044,0.14993 -0.01623,-0.04057 c -0.01834,0.0254 -0.0381,0.05009 -0.05927,0.07338 z m 1.1303,-0.552803 0.0254,0.04304 0.07761,-0.03563 c -0.03493,-7.06e-4 -0.06914,-0.0032 -0.103011,-0.0074 m -13.039019,-0.256822 -0.02928,-0.0092 v 0.07691 c 0,0.06985 -0.0568,0.126647 -0.127,0.126647 h -0.337608 l -0.104069,0.197203 0.148519,0.07867 0.131939,-0.180622 0.132644,0.0829 -0.09772,0.185208 0.153105,0.07867 0.115006,-0.157339 0.0127,0.0081 c -0.02152,-0.07655 -0.03281,-0.157339 -0.03281,-0.240947 0,-0.08537 0.01199,-0.167922 0.03457,-0.246239 m 12.36733,-0.210961 -0.313972,0.576086 c -0.01058,0.07761 -0.03034,0.151695 -0.05927,0.221897 l 0.08608,0.14852 0.155575,-0.06773 -0.08149,-0.203553 0.141112,-0.06879 0.113947,0.196497 0.153458,-0.06773 -0.08678,-0.216606 0.140405,-0.06844 0.12065,0.207786 0.151342,-0.06773 -0.07303,-0.182386 C 92.097634,93.208402 91.938884,93.06306 91.84187,92.880321 m 0.419806,-4.174772 c -0.04657,-0.328436 -0.138289,-0.973314 -0.162631,-1.088672 -0.02928,-0.136172 -0.167569,-0.252942 -0.299861,-0.252942 -0.129117,0 -1.361369,-0.01517 -1.788583,-0.02046 z M 78.126213,88.366567 v 0.32385 l 0.256823,-0.0254 v -0.272698 z m -0.0067,-0.104775 0.3048,0.03069 h 0.444852 v 0.06844 h 2.616553 v -0.03422 c 0,-0.06985 0.05186,-0.126648 0.115711,-0.126648 0.06385,0 0.116064,0.0568 0.116064,0.126648 v 0.03422 h 1.080558 l 0.221192,-0.753886 2.717447,-0.01764 c 0.116417,-0.110772 0.236714,-0.217664 0.35807,-0.319617 l 0.04022,0.04868 c 0,0 -0.10548,0.0889 -0.244122,0.216605 l -0.02963,0.02752 h 0.375002 v -0.08961 h 0.861837 l 0.143227,-0.223308 h 1.221317 v -0.13335 h 0.05821 v -0.3937 h -0.05821 v -0.183797 h 0.183797 v 0.183797 h -0.04586 v 0.3937 h 0.04586 v 0.13335 h 1.20897 l 0.01164,0.0067 3.53e-4,-0.0099 c 0,0 1.775178,0.02258 1.931811,0.02258 0.180975,0 0.355247,0.151342 0.392995,0.328083 0.02681,0.125942 0.132997,0.879475 0.174272,1.171928 l 0.03634,0.02187 v 1.092553 h 0.198614 v 0.173214 h -0.198614 v 0.20708 h 0.06138 v -0.115711 h 0.42545 v 0.115711 h 0.02328 v 0.542573 h 0.115358 v 0.115005 h 0.08149 v 0.219428 h -0.08149 v 0.05539 c 0.316442,0.0956 0.551392,0.305858 0.658283,0.627944 l -0.119944,0.04022 c 0,0 -0.01341,-0.04092 -0.03528,-0.09243 -0.109361,-0.254352 -0.365831,-0.426861 -0.635706,-0.481894 h -0.07373 v -0.01199 c -0.02117,-0.0025 -0.04163,-0.0046 -0.06244,-0.006 l -0.295275,-0.0053 v -0.01129 h -0.127353 v 0.200025 c 0.147814,-0.0021 0.356659,-0.0035 0.48507,0.0035 0.858308,0.0448 1.200855,1.347964 0.265289,1.919817 -0.168981,0.103364 -1.846792,0.861131 -2.130072,0.941211 -0.06068,0.01693 -0.129117,0.02999 -0.222603,0.03598 -0.16757,0.01129 -10.273242,-0.01094 -10.418586,-0.01094 -0.14605,0 -0.1651,-0.0042 -0.312561,-0.04974 -0.105128,-0.0321 -2.169231,-1.0795 -2.368197,-1.255184 -0.0635,-0.05539 -0.181328,-0.210961 -0.265995,-0.370063 l -0.463903,-0.409575 -0.07373,-0.04586 0.0074,-0.01305 0.748947,-1.216731 h 1.561748 l 0.05398,-0.05397 v -0.182033 h 0.182386 l 0.862894,-0.8636 h 0.164747 v -0.2667 h 0.41522 v 0.2667 h 0.02328 l 0.293511,-0.06068 h 0.06385 v -0.05574 h 0.138994 v 0.05574 h 0.09137 v -0.113594 h 0.04586 v -1.014236 h -2.616553 v 0.06844 h -0.444852 l -0.3048,0.03034 v 0.02716 H 77.369858 V 88.23498 h 0.749653 z"
       style="fill:#000000;fill-opacity:1;fill-rule:nonzero;stroke:none;stroke-width:0.352778"
       id="S-SU76" />
  </g>
</svg>
