<?xml version="1.0" encoding="UTF-8" standalone="no"?>
<!-- Created with Inkscape (http://www.inkscape.org/) -->

<svg
   width="25.979816mm"
   height="7.3676724mm"
   viewBox="0 0 25.979816 7.3676724"
   version="1.1"
   id="svg6745"
   sodipodi:docname="inkporter-svg-de2d1i4p.svg"
   xmlns:inkscape="http://www.inkscape.org/namespaces/inkscape"
   xmlns:sodipodi="http://sodipodi.sourceforge.net/DTD/sodipodi-0.dtd"
   xmlns="http://www.w3.org/2000/svg"
   xmlns:svg="http://www.w3.org/2000/svg">
  <sodipodi:namedview
     id="namedview6747"
     pagecolor="#ffffff"
     bordercolor="#666666"
     borderopacity="1.0"
     inkscape:pageshadow="2"
     inkscape:pageopacity="0.0"
     inkscape:pagecheckerboard="0"
     inkscape:document-units="mm"
     showgrid="false"
     inkscape:zoom="0.66368547"
     inkscape:cx="397.02542"
     inkscape:cy="561.25984"
     inkscape:window-width="1920"
     inkscape:window-height="1017"
     inkscape:window-x="-8"
     inkscape:window-y="-8"
     inkscape:window-maximized="1"
     inkscape:current-layer="layer1" />
  <defs
     id="defs6742" />
  <g
     inkscape:label="Layer 1"
     inkscape:groupmode="layer"
     id="layer1"
     transform="translate(-87.960794,-195.70759)">
    <path
       d="m 96.881135,202.19215 c 0.117828,-0.19967 0.273403,-0.3182 0.372181,-0.27199 0.09843,0.0455 0.108656,0.23742 0.03351,0.45367 0.179564,0.0787 0.32138,0.13935 0.391936,0.17075 0.03775,0.0169 0.08573,0.0363 0.140758,0.0568 -0.217664,-0.1905 -0.3683,-0.45684 -0.41028,-0.75812 l -0.497064,3.6e-4 -0.245533,-0.15381 c -0.09913,0.0797 -0.216959,0.13687 -0.345723,0.16404 l -0.01764,0.0572 c 0.186973,0.0977 0.38735,0.19367 0.57785,0.28116 m 3.16407,0.59972 c 0.0339,-0.18909 0.11571,-0.32208 0.21202,-0.32208 0.0956,0 0.1778,0.13299 0.21131,0.32208 h 0.57855 c -0.37289,-0.17286 -0.64453,-0.52634 -0.70344,-0.94862 h -0.490357 c -0.04727,0.34149 -0.234597,0.63783 -0.501297,0.83009 0.01235,0.0363 0.02223,0.0755 0.02963,0.11853 z m 12.05547,-0.49988 c -0.0459,-0.21449 -0.0141,-0.39406 0.085,-0.42792 l -0.58631,-0.0208 c -0.0265,0.18874 -0.0956,0.36407 -0.19721,0.51541 0.0296,0.0399 0.0579,0.0868 0.084,0.139 0.20073,-0.0639 0.41028,-0.13371 0.61453,-0.20567 m 0.30798,-0.31362 c 0.037,0.0441 0.072,0.0991 0.10301,0.16157 0.0713,-0.0279 0.14111,-0.0554 0.20743,-0.0829 -0.10936,-0.01 -0.21378,-0.0367 -0.31044,-0.0787 m -3.62867,0.8135 c 0.0335,-0.18909 0.11536,-0.32208 0.21166,-0.32208 0.0952,0 0.17745,0.13299 0.21132,0.32208 h 0.65546 c -0.37324,-0.17286 -0.64488,-0.52634 -0.70415,-0.94862 h -0.37394 c -0.0572,0.40817 -0.31362,0.75248 -0.66781,0.93098 z m -3.04201,-0.32138 c 0.10055,0.0176 0.17357,0.1457 0.20426,0.32138 h 0.66393 c 0.0176,-0.0988 0.0487,-0.18238 0.0875,-0.23989 -0.18944,-0.18556 -0.31926,-0.4325 -0.35772,-0.70873 h -0.30938 c -0.0332,0.23742 -0.13335,0.45297 -0.28152,0.62724 z m -0.21837,0.32138 c 0.009,-0.0526 0.0226,-0.10089 0.0385,-0.14322 -0.0723,0.0561 -0.15099,0.10407 -0.23531,0.14322 z m -3.25966,0 c 0.007,-0.0437 0.0176,-0.0843 0.03,-0.121 -0.0642,0.0466 -0.13299,0.0871 -0.20567,0.121 z m 0.24306,-0.3175 c 0.0819,0.0258 0.14993,0.14993 0.17957,0.3175 h 0.66357 c 0.0335,-0.18909 0.11606,-0.32208 0.21131,-0.32208 0.0963,0 0.1778,0.13299 0.21167,0.32208 h 0.51681 c -0.37288,-0.17286 -0.64452,-0.52634 -0.70344,-0.94862 h -0.7948 c -0.0332,0.23919 -0.13476,0.4565 -0.28469,0.63112 m -1.78329,-6.41067 h 0.24024 l 0.13617,0.18767 h 0.34467 c 0,0 0.0734,-0.56409 0.18838,-0.54327 0.11465,0.0208 0.2092,0.37606 0.2092,0.37606 h 0.68967 l 0.23989,0.36583 v 0.33443 h 0.21944 v -0.12523 l 0.1464,-0.14641 h 0.81526 l 0.12524,0.12524 v 0.115 h 0.35559 v -0.1464 l 0.17781,-0.0938 h 0.34466 v 0.19862 h 0.12523 v 1.18709 h 2.19252 v -0.25188 h 1.46297 v 0.24589 h 0.22648 v -0.15558 h 0.69991 v -0.0416 h 0.15487 v 0.0416 h 0.58138 v -0.11077 h 0.22966 v 0.11077 h 0.57114 v -0.0416 h 0.15452 v 0.0416 h 0.69603 v 0.3242 c 0.13406,-0.16792 0.33973,-0.27552 0.57115,-0.27552 0.40287,0 0.72954,0.32668 0.72954,0.7292 0,0.248 -0.12382,0.46672 -0.31256,0.59866 l 0.30551,0.28504 -0.15558,0.19791 h 0.28293 v 0.3168 l 0.40181,0.16968 -0.0709,0.12771 -0.42969,-0.18415 -0.0113,0.0226 c 0.64982,0.30903 0.7747,1.23578 0.28046,1.8161 -0.34113,0.4004 -2.84762,1.21002 -3.31928,1.21002 H 98.624916 c -0.665339,0 -2.344914,-0.80398 -2.912533,-1.17863 -0.360539,-0.23847 -0.604309,-0.53163 -0.503061,-0.98954 l -0.727781,-0.20108 c 0,0 0.09878,-0.40534 0.410281,-0.66534 0.311502,-0.26035 0.712611,-0.31679 0.953558,-0.30268 l 0.0575,0.002 c 0.07161,-0.0123 0.147814,-0.0194 0.229658,-0.0194 h 0.303036 c 0,0 0.1778,-0.35524 0.292806,-0.28222 0.115005,0.0734 0.198261,0.15663 0.198261,0.15663 l 0.627239,-0.49106 -0.324203,-0.27164 v -0.12559 l -0.240242,-0.20884 -9.028641,-0.0734 v -0.37606 l 8.986661,-0.0836 0.438855,-0.37606 v -0.35525 h 0.386645 l 0.188736,-0.18803 v -0.26141 h 1.211791 v 0.15699 h 0.533048 l 0.104422,-0.23001 h 0.585258 v -0.32421 h 0.10407 v -0.33408 h 0.12594 z"
       id="S-SU85"
       style="stroke-width:0.352778" />
  </g>
</svg>
