<?xml version="1.0" encoding="UTF-8" standalone="no"?>
<!-- Created with Inkscape (http://www.inkscape.org/) -->

<svg
   width="28.322388mm"
   height="7.3674312mm"
   viewBox="0 0 28.322388 7.3674312"
   version="1.1"
   id="svg6745"
   sodipodi:docname="inkporter-svg-de2d1i4p.svg"
   xmlns:inkscape="http://www.inkscape.org/namespaces/inkscape"
   xmlns:sodipodi="http://sodipodi.sourceforge.net/DTD/sodipodi-0.dtd"
   xmlns="http://www.w3.org/2000/svg"
   xmlns:svg="http://www.w3.org/2000/svg">
  <sodipodi:namedview
     id="namedview6747"
     pagecolor="#ffffff"
     bordercolor="#666666"
     borderopacity="1.0"
     inkscape:pageshadow="2"
     inkscape:pageopacity="0.0"
     inkscape:pagecheckerboard="0"
     inkscape:document-units="mm"
     showgrid="false"
     inkscape:zoom="0.66368547"
     inkscape:cx="397.02542"
     inkscape:cy="561.25984"
     inkscape:window-width="1920"
     inkscape:window-height="1017"
     inkscape:window-x="-8"
     inkscape:window-y="-8"
     inkscape:window-maximized="1"
     inkscape:current-layer="layer1" />
  <defs
     id="defs6742" />
  <g
     inkscape:label="Layer 1"
     inkscape:groupmode="layer"
     id="layer1"
     transform="translate(-86.160631,-181.51168)">
    <path
       id="S-SU100"
       style="stroke-width:0.352777"
       d="m 102.1715,181.51224 c -0.115,-0.0208 -0.1881,0.54364 -0.1881,0.54364 h -0.34468 l -0.13643,-0.1881 H 101.262 l -0.0935,-0.0103 h -0.12557 v 0.33383 h -0.10439 v 0.32453 h -0.58497 l -0.10439,0.22996 h -0.533301 v -0.1571 h -1.211813 v 0.26148 l -0.18862,0.18811 h -0.386538 v 0.35501 l -0.324013,0.27751 -2.738853,0.0279 -3.200319,0.0315 -3.200841,0.0315 -0.635102,-0.0424 -0.634584,-0.0424 -0.170533,-0.0455 -0.170532,-0.045 -0.134874,0.0537 -0.134359,0.0543 -0.148312,0.002 -0.148315,0.003 -0.06356,0.0661 -0.06408,0.0667 0.0047,0.21963 0.0057,0.21911 0.04961,0.076 0.04961,0.0749 0.318329,0.0372 0.317295,0.0367 0.243396,-0.062 0.242877,-0.0631 1.349273,-0.0217 1.349272,-0.0217 0.08836,0.0233 0.08889,0.0232 1.329633,0.0155 1.329634,0.0155 0.189653,-0.007 0.189654,-0.006 1.546676,0.016 1.546673,0.0155 0.868684,0.0145 0.42788,0.007 0.07596,0.0661 v 0.12558 l 0.324012,0.2713 -0.627355,0.49144 c 0,0 -0.08343,-0.0837 -0.198438,-0.1571 -0.115002,-0.073 -0.292484,0.28268 -0.292484,0.28268 h -0.303343 c -0.08185,0 -0.157829,0.007 -0.229443,0.0191 l -0.05736,-0.002 c -0.240947,-0.0141 -0.641929,0.0425 -0.953431,0.30282 -0.3115,0.26 -0.410309,0.66559 -0.410309,0.66559 l 0.727604,0.20102 c -0.101247,0.45791 0.142272,0.75113 0.502811,0.9896 0.567619,0.37465 2.247148,1.17823 2.912484,1.17823 h 11.694382 c 0.47166,0 2.97804,-0.80934 3.31917,-1.20975 0.49424,-0.58032 0.36973,-1.50739 -0.28009,-1.81642 l 0.0114,-0.0222 0.42944,0.18397 0.0708,-0.12764 -0.40152,-0.1695 v -0.31678 h -0.28319 l 0.15554,-0.19792 -0.3054,-0.28525 c 0.18873,-0.13194 0.31264,-0.35041 0.31264,-0.59842 0,-0.40251 -0.3268,-0.72915 -0.72967,-0.72915 -0.23142,0 -0.43697,0.10751 -0.57103,0.27544 v -0.32453 h -0.69608 v -0.0413 h -0.15451 v 0.0413 h -0.57103 v -0.11059 h -0.22996 v 0.11059 h -0.58135 v -0.0413 h -0.15452 v 0.0413 h -0.70021 v 0.15555 h -0.22635 v -0.24547 h -1.46296 v 0.25167 h -2.19263 v -1.18701 h -0.12505 v -0.19895 h -0.34469 l -0.17776,0.094 v 0.14625 h -0.35553 v -0.11472 l -0.12558,-0.12557 h -0.81494 l -0.14676,0.14676 v 0.12505 h -0.21911 v -0.33434 l -0.23978,-0.36587 h -0.68987 c 0,0 -0.0946,-0.35539 -0.2093,-0.37621 z m -15.682245,2.4474 0.06511,0.0196 0.06511,0.0207 0.02223,0.0641 0.02325,0.0636 -0.08579,10e-4 -0.0863,0.002 -0.0021,-0.0858 z m 0.542604,0.001 0.08217,0.0295 0.08165,0.0294 -0.02893,0.0491 -0.02946,0.0491 -0.05116,0.001 -0.05116,0.001 -0.0011,-0.0796 z m 10.177155,3.53311 0.245463,0.15348 h 0.497127 c 0.04198,0.30128 0.192649,0.5676 0.410309,0.7581 -0.05503,-0.0205 -0.10281,-0.0399 -0.140557,-0.0568 -0.07056,-0.0314 -0.212662,-0.0924 -0.392226,-0.17105 0.07514,-0.21625 0.06484,-0.4082 -0.03358,-0.45371 -0.09878,-0.0462 -0.254243,0.0727 -0.372071,0.27233 -0.1905,-0.0875 -0.390772,-0.1834 -0.577741,-0.28112 l 0.01757,-0.0574 c 0.128763,-0.0272 0.246584,-0.0841 0.345715,-0.16382 z m 3.186886,0.15348 h 0.48989 c 0.0589,0.42228 0.33095,0.77541 0.70384,0.94827 h -0.57878 c -0.0335,-0.18909 -0.11575,-0.32195 -0.21136,-0.32195 -0.0963,0 -0.178,0.13286 -0.21187,0.32195 h -0.663526 c -0.0074,-0.043 -0.01764,-0.082 -0.02999,-0.11834 0.266706,-0.19227 0.454506,-0.48844 0.501786,-0.82993 z m 2.93419,0 h 0.79478 c 0.0589,0.42228 0.33043,0.77541 0.70332,0.94827 h -0.51677 c -0.0339,-0.18909 -0.11505,-0.32195 -0.21135,-0.32195 -0.0953,0 -0.17785,0.13286 -0.21136,0.32195 h -0.66353 c -0.0296,-0.16757 -0.098,-0.29154 -0.17983,-0.3173 0.14993,-0.17462 0.25157,-0.39178 0.28474,-0.63097 z m 3.23908,0 h 0.30902 c 0.0384,0.27623 0.16816,0.52293 0.3576,0.70849 -0.0388,0.0575 -0.0697,0.141 -0.0873,0.23978 h -0.66404 c -0.0307,-0.17569 -0.10358,-0.30379 -0.20412,-0.32143 h 0.007 c 0.14816,-0.17427 0.24847,-0.38941 0.28164,-0.62684 z m 2.75332,0 h 0.37413 c 0.0593,0.42228 0.33111,0.77541 0.70435,0.94827 h -0.65577 c -0.0339,-0.18909 -0.11611,-0.32195 -0.21136,-0.32195 -0.0963,0 -0.17784,0.13286 -0.21135,0.32195 l -0.66766,-0.0176 c 0.35418,-0.17851 0.61051,-0.52253 0.66766,-0.9307 z m 2.81946,0 0.58601,0.0207 c -0.0991,0.0339 -0.13061,0.21339 -0.0847,0.42787 -0.20425,0.072 -0.41422,0.14183 -0.61494,0.20568 -0.0261,-0.0522 -0.0541,-0.0992 -0.0837,-0.13901 0.1016,-0.15134 0.17094,-0.32648 0.1974,-0.51522 z m 0.80926,0.13488 c 0.0966,0.042 0.20069,0.069 0.31005,0.0786 -0.0663,0.0275 -0.13596,0.0553 -0.20722,0.0832 -0.031,-0.0624 -0.0658,-0.11766 -0.10283,-0.16175 z m -6.85075,0.67024 c -0.0159,0.0423 -0.0291,0.0906 -0.0382,0.14315 h -0.19689 c 0.0843,-0.0392 0.16281,-0.0871 0.23513,-0.14315 z m -3.26802,0.0222 c -0.0123,0.0367 -0.0226,0.0772 -0.03,0.12092 h -0.1757 c 0.0727,-0.0339 0.14146,-0.0744 0.20567,-0.12092 z" />
  </g>
</svg>
