<?xml version="1.0" encoding="UTF-8" standalone="no"?>
<!-- Created with Inkscape (http://www.inkscape.org/) -->

<svg
   width="21.357456mm"
   height="8.6629mm"
   viewBox="0 0 21.357456 8.6629"
   version="1.1"
   id="svg6745"
   sodipodi:docname="inkporter-svg-de2d1i4p.svg"
   xmlns:inkscape="http://www.inkscape.org/namespaces/inkscape"
   xmlns:sodipodi="http://sodipodi.sourceforge.net/DTD/sodipodi-0.dtd"
   xmlns="http://www.w3.org/2000/svg"
   xmlns:svg="http://www.w3.org/2000/svg">
  <sodipodi:namedview
     id="namedview6747"
     pagecolor="#ffffff"
     bordercolor="#666666"
     borderopacity="1.0"
     inkscape:pageshadow="2"
     inkscape:pageopacity="0.0"
     inkscape:pagecheckerboard="0"
     inkscape:document-units="mm"
     showgrid="false"
     inkscape:zoom="0.66368547"
     inkscape:cx="397.02542"
     inkscape:cy="561.25984"
     inkscape:window-width="1920"
     inkscape:window-height="1017"
     inkscape:window-x="-8"
     inkscape:window-y="-8"
     inkscape:window-maximized="1"
     inkscape:current-layer="layer1" />
  <defs
     id="defs6742" />
  <g
     inkscape:label="Layer 1"
     inkscape:groupmode="layer"
     id="layer1"
     transform="translate(-58.928952,-183.53483)">
    <path
       d="m 65.158311,191.43519 c 0,0.0783 0.06279,0.14075 0.140405,0.14075 0.07761,0 0.140053,-0.0624 0.140053,-0.14075 0,-0.0769 -0.06244,-0.14006 -0.140053,-0.14006 -0.07761,0 -0.140405,0.0632 -0.140405,0.14006 m -0.835025,0.13723 c 0,0.0776 0.06279,0.14005 0.140405,0.14005 0.07726,0 0.140053,-0.0624 0.140053,-0.14005 0,-0.0776 -0.06279,-0.14041 -0.140053,-0.14041 -0.07761,0 -0.140405,0.0628 -0.140405,0.14041 m -0.375003,-0.23037 c 0,0.0776 0.06315,0.14005 0.140758,0.14005 0.07761,0 0.140406,-0.0624 0.140406,-0.14005 0,-0.0783 -0.06279,-0.14076 -0.140406,-0.14076 -0.07761,0 -0.140758,0.0625 -0.140758,0.14076 m 0.94368,-0.12594 c 0,0.0314 0.02575,0.0572 0.05786,0.0572 0.03175,0 0.05715,-0.0257 0.05715,-0.0572 0,-0.0317 -0.0254,-0.0575 -0.05715,-0.0575 -0.0321,0 -0.05786,0.0257 -0.05786,0.0575 m -0.489655,-0.036 c 0,0.0314 0.0254,0.0572 0.0575,0.0572 0.03175,0 0.0575,-0.0258 0.0575,-0.0572 0,-0.0317 -0.02575,-0.0579 -0.0575,-0.0579 -0.0321,0 -0.0575,0.0261 -0.0575,0.0579 m 3.466041,0.42827 c 0.0067,0.0769 0.07408,0.13405 0.152048,0.1277 0.0769,-0.007 0.134055,-0.0748 0.127705,-0.1524 -0.0071,-0.0776 -0.07514,-0.13405 -0.1524,-0.12735 -0.07726,0.006 -0.134761,0.0744 -0.127353,0.15205 m 0.377825,-0.22119 c 0.0071,0.0776 0.07479,0.13476 0.1524,0.12735 0.07691,-0.007 0.134409,-0.0744 0.127353,-0.15169 -0.0067,-0.0773 -0.07479,-0.13406 -0.151694,-0.12806 -0.07761,0.007 -0.134761,0.0751 -0.128059,0.1524 m -1.213202,0.012 c 0.0067,0.0776 0.07479,0.13476 0.152047,0.12806 0.07761,-0.007 0.134408,-0.0751 0.127353,-0.1524 -0.0063,-0.0776 -0.07444,-0.13406 -0.151695,-0.12735 -0.07726,0.006 -0.134761,0.0744 -0.127705,0.15169 m 0.928864,-0.20778 c 0.0028,0.0321 0.03069,0.0554 0.06209,0.0526 0.0321,-0.003 0.05539,-0.0307 0.05292,-0.0624 -0.0028,-0.0314 -0.03069,-0.055 -0.06315,-0.0526 -0.0314,0.003 -0.05468,0.0307 -0.05186,0.0624 m -0.491067,0.007 c 0.0028,0.0314 0.03069,0.0547 0.06209,0.0522 0.0321,-0.003 0.05539,-0.031 0.05292,-0.0624 -0.0032,-0.0325 -0.03069,-0.0554 -0.06279,-0.0529 -0.0314,0.003 -0.05468,0.0314 -0.05221,0.0631 m 3.811764,0.39935 c 0.01199,0.0765 0.08396,0.12876 0.160514,0.11677 0.0769,-0.0127 0.128763,-0.0843 0.116769,-0.16122 -0.01199,-0.0765 -0.08431,-0.12877 -0.160514,-0.11677 -0.07726,0.012 -0.128764,0.0843 -0.116769,0.16122 m 0.36195,-0.24765 c 0.01199,0.0769 0.08431,0.12912 0.160514,0.11712 0.07655,-0.012 0.128763,-0.0843 0.116769,-0.16051 -0.01199,-0.0769 -0.08431,-0.12877 -0.160514,-0.11677 -0.0769,0.012 -0.128764,0.0836 -0.116769,0.16016 m -0.803981,0.26564 c 0.01235,0.0769 0.08396,0.12947 0.16122,0.11748 0.0762,-0.012 0.128411,-0.0843 0.116063,-0.16052 -0.01199,-0.0773 -0.08361,-0.12876 -0.160866,-0.11677 -0.0762,0.012 -0.128411,0.0836 -0.116417,0.15981 m -0.405694,-0.16898 c 0.01235,0.0769 0.08361,0.12947 0.160161,0.11747 0.0769,-0.012 0.129469,-0.0843 0.117122,-0.16086 -0.01199,-0.0769 -0.08396,-0.12841 -0.160514,-0.11642 -0.0769,0.012 -0.128764,0.0836 -0.116769,0.15981 m 0.91193,-0.27199 c 0.0049,0.0314 0.03493,0.0536 0.06632,0.0483 0.03104,-0.005 0.05221,-0.0342 0.04727,-0.0656 -0.0046,-0.0318 -0.03422,-0.0529 -0.06597,-0.048 -0.0314,0.005 -0.05221,0.0349 -0.04762,0.0653 m -0.48895,0.0409 c 0.0049,0.0321 0.03422,0.0536 0.06562,0.049 0.03175,-0.006 0.05292,-0.0349 0.04798,-0.0663 -0.0046,-0.0318 -0.03493,-0.0529 -0.06597,-0.048 -0.0314,0.005 -0.05292,0.0342 -0.04762,0.0653 m 3.123142,0.39758 c 0.0032,0.0773 0.06809,0.13794 0.145697,0.13476 0.07691,-0.002 0.137583,-0.0674 0.134761,-0.14499 -0.0018,-0.0776 -0.06738,-0.13829 -0.144991,-0.13511 -0.07726,0.002 -0.137937,0.0677 -0.135467,0.14534 m 0.389114,-0.20144 c 0.0032,0.0776 0.06809,0.13829 0.145697,0.13547 0.07761,-0.002 0.138289,-0.0674 0.135467,-0.14499 -0.0025,-0.0776 -0.06809,-0.13758 -0.145698,-0.13547 -0.0769,0.002 -0.137936,0.0674 -0.135466,0.14499 m -0.830086,0.16616 c 0.0032,0.0776 0.06809,0.13829 0.145697,0.13512 0.07761,-0.002 0.138289,-0.067 0.135467,-0.14464 -0.0025,-0.0776 -0.06738,-0.13864 -0.144992,-0.13547 -0.07761,0.002 -0.138289,0.0674 -0.136172,0.14499 m -0.381706,-0.21731 c 0.0025,0.0776 0.06738,0.13794 0.144992,0.13547 0.07761,-0.003 0.138289,-0.0674 0.135114,-0.14499 -0.0025,-0.0776 -0.06773,-0.13829 -0.144992,-0.13547 -0.07761,0.002 -0.138289,0.0674 -0.135114,0.14499 m 0.938389,-0.15875 c 0.0011,0.0321 0.02752,0.0565 0.05927,0.0554 0.0321,-0.001 0.0568,-0.0275 0.05609,-0.0596 -0.0018,-0.0317 -0.02822,-0.0564 -0.05962,-0.0557 -0.03175,0.001 -0.05715,0.0282 -0.05574,0.06 m -0.491067,-0.019 c 0.0014,0.0325 0.02787,0.0572 0.05962,0.0557 0.03175,-0.001 0.05644,-0.0275 0.05609,-0.0596 -0.0018,-0.0317 -0.02787,-0.0572 -0.06032,-0.0557 -0.0314,10e-4 -0.05644,0.0282 -0.05539,0.0596 m 3.206045,0.42863 c 0.0042,0.0776 0.0702,0.13652 0.147814,0.13299 0.0769,-0.004 0.136525,-0.0699 0.132997,-0.14746 -0.0042,-0.0776 -0.0702,-0.13687 -0.147814,-0.13264 -0.07726,0.004 -0.137231,0.0695 -0.132997,0.14711 m 0.385939,-0.20744 c 0.0039,0.0776 0.06985,0.13723 0.147461,0.133 0.07691,-0.004 0.13723,-0.0705 0.132997,-0.14817 -0.0042,-0.0772 -0.07056,-0.13687 -0.147461,-0.13264 -0.07796,0.004 -0.137231,0.0702 -0.132997,0.14781 m -1.213203,-0.03 c 0.0039,0.0769 0.06985,0.13652 0.147461,0.13229 0.07761,-0.004 0.13723,-0.0699 0.132997,-0.14746 -0.0035,-0.0776 -0.06985,-0.13723 -0.147461,-0.133 -0.07761,0.004 -0.136878,0.0706 -0.132997,0.14817 m 0.935566,-0.17569 c 0.0018,0.0317 0.02893,0.0561 0.05997,0.054 0.0321,-0.001 0.05644,-0.0282 0.05468,-0.0593 -0.0018,-0.0325 -0.02893,-0.0568 -0.05997,-0.0554 -0.03175,0.002 -0.05644,0.0289 -0.05468,0.0607 m -0.491066,-0.0102 c 0.0014,0.0317 0.02858,0.0561 0.06033,0.054 0.03175,-0.001 0.05644,-0.0282 0.05468,-0.06 -0.0018,-0.0318 -0.02893,-0.0561 -0.06068,-0.0547 -0.0314,0.002 -0.05609,0.0289 -0.05433,0.0607 m -12.400844,-0.24059 -0.281164,7e-4 c 0,0.0822 0.06279,0.145 0.140405,0.145 0.07761,0 0.140759,-0.0628 0.140759,-0.14076 z m 1.577622,-0.002 h -0.109361 c -0.05009,0.0215 -0.08573,0.0709 -0.08573,0.12911 0,0.0776 0.06279,0.14076 0.140405,0.14076 0.07726,0 0.140406,-0.0631 0.140406,-0.14076 0,-0.0582 -0.03563,-0.10795 -0.08572,-0.12911 m 1.452033,-0.002 -0.239536,7e-4 c -0.01517,0.0247 -0.02293,0.054 -0.01976,0.0854 0.0063,0.0769 0.07444,0.13406 0.151695,0.12736 0.07761,-0.007 0.134408,-0.0751 0.128058,-0.15205 -0.0021,-0.0222 -0.0095,-0.0434 -0.02046,-0.0614 m 1.67887,-0.002 H 68.47548 c -0.0081,0.0198 -0.01164,0.042 -0.0092,0.0642 0.0067,0.0773 0.07444,0.13476 0.152047,0.1277 0.07726,-0.006 0.134408,-0.0748 0.127706,-0.1524 -0.0014,-0.0138 -0.0049,-0.0268 -0.0095,-0.0395 m 1.620308,-0.002 h -0.08678 c -0.06491,0.0212 -0.106186,0.0868 -0.0956,0.15522 0.0127,0.0769 0.08431,0.12947 0.161219,0.11713 0.07655,-0.012 0.128764,-0.084 0.116064,-0.16052 -0.0085,-0.054 -0.04621,-0.0963 -0.0949,-0.11183 m 1.759303,-0.002 h -0.280812 c 3.53e-4,0.007 0.0011,0.0127 0.0018,0.0187 0.01199,0.0765 0.08396,0.12876 0.160514,0.11677 0.06844,-0.0109 0.117122,-0.0684 0.118534,-0.13547 m 1.102077,-0.002 -0.269875,7e-4 c -0.0042,0.0138 -0.006,0.0282 -0.0056,0.0437 0.0025,0.0776 0.06809,0.13794 0.145697,0.13476 0.07691,-0.002 0.137583,-0.0674 0.135467,-0.14499 -7.06e-4,-0.0113 -0.0025,-0.0233 -0.0056,-0.0342 m 1.624542,-0.002 H 74.65733 c -0.03034,0.0272 -0.04904,0.0667 -0.04763,0.11006 0.0028,0.0776 0.06809,0.13829 0.145344,0.13582 0.07761,-0.003 0.137936,-0.0677 0.135467,-0.14605 -0.0011,-0.0395 -0.01976,-0.0751 -0.04762,-0.0998 m 1.188155,-0.002 -0.256469,7.1e-4 c -0.0088,0.0197 -0.01305,0.0413 -0.01235,0.0635 0.0042,0.0776 0.07091,0.13723 0.147814,0.13299 0.07761,-0.004 0.13723,-0.0702 0.133702,-0.14746 -0.0014,-0.018 -0.0056,-0.0342 -0.0127,-0.0497 m 1.643592,-0.002 -0.208139,7.1e-4 c -0.02434,0.0265 -0.03845,0.0624 -0.03598,0.1016 0.0042,0.0776 0.06985,0.13723 0.147461,0.13299 0.07761,-0.004 0.137231,-0.0705 0.132997,-0.14816 -0.0018,-0.0328 -0.01517,-0.0635 -0.03634,-0.0871 m -11.785247,-4.43477 v 0.72672 l 0.03246,-0.0162 h 0.172861 v -0.57679 c 0,0 -0.120297,-0.0766 -0.205317,-0.13371 m 8.060972,0.26106 h 0.08961 v 0.0399 h 0.389114 v -0.0399 h 0.08361 v 0.0399 h 0.370769 v -0.10901 c 0,-0.007 0.0028,-0.0293 0,-0.0349 -0.0081,-0.007 -0.03493,-0.007 -0.04233,-0.007 h -1.352197 c -0.02575,0 -0.07973,-0.008 -0.07973,0.0317 v 0.11924 h 0.541161 z m -11.822641,3.94582 c 0.03316,0.0254 0.06773,0.0511 0.103011,0.0776 l 0.0314,-0.0169 c -0.04692,-0.0169 -0.09208,-0.0367 -0.134408,-0.0607 m 0.09525,-1.4471 c -0.04692,0.0229 -0.09102,0.0494 -0.131586,0.0787 0.04621,-0.0293 0.09525,-0.054 0.147108,-0.0741 z m 17.738724,0.27305 c 0.348898,0.38982 0.438503,1.20156 -0.20708,1.61431 -0.861131,0.55104 -2.518128,1.05552 -3.056467,1.05552 -0.52458,0 -11.788422,-0.005 -12.154252,-0.005 -0.390172,0 -1.904647,-0.92921 -2.61867,-1.50318 -0.525286,-0.42228 -0.363361,-1.16487 0.166864,-1.48802 -0.09172,-0.0505 -0.183797,-0.133 -0.04092,-0.26776 0.187325,-0.17603 0.32385,-0.0787 0.410633,-0.0974 0.08608,-0.018 0.165453,-0.0138 0.08608,0.036 -0.07937,0.0508 -0.25153,0.0289 -0.234244,0.11218 0.01129,0.0508 0.08784,0.0709 0.144286,0.078 0.02469,-0.004 0.04939,-0.008 0.07514,-0.0113 l 0.188031,-0.21484 0.196144,0.0921 0.656873,-0.3623 c 0,0 0.02928,-0.0526 0.0695,-0.12982 h -0.07902 c -0.03175,0.0441 -0.05045,0.024 -0.06068,-0.0113 H 63.15418 v -0.0914 h -0.455789 v -0.0893 h 0.455789 v -0.055 h 0.342547 c 0.01835,-0.0621 0.0568,-0.14711 0.13335,-0.26599 0.168628,-0.26176 0.184503,-0.10407 0.09948,0.14675 h 0.102305 c 0.0321,-0.0667 0.05715,-0.12276 0.06632,-0.15169 0.03598,-0.11536 0.05786,-0.35948 0.360187,-0.35948 h 0.41028 c 0,0 0.136878,-0.0868 0.223308,-0.0868 h 0.208492 l 0.06526,-0.34642 c 0,0 0.19438,0.0152 0.30233,0.0945 0.10795,0.0787 0.136878,0.15099 0.136878,0.15099 l 0.224014,-0.11748 v -0.79974 c -0.0063,-0.005 -0.01164,-0.008 -0.01517,-0.0116 l -0.08643,-0.072 h -1.368425 v -0.46884 l 0.09384,-0.15805 h -5.523794 v -0.38135 l 5.739694,-0.0289 0.136878,-0.20214 h 1.023408 v -1.59632 h 0.06033 v 1.58221 c 0.07514,-0.0596 0.367595,-0.28116 0.579967,-0.28116 h 0.662164 l 0.144286,-0.16546 h 0.187678 v -0.12276 h 0.136525 v -0.10019 h -0.0575 v -0.29528 l 0.07161,-0.115 c 0,0 0.01446,-0.19474 0.208844,-0.19474 0.194733,0 0.245181,0.12206 0.245181,0.12206 l 0.05045,0.47555 h -0.06526 v 0.14393 h 0.137231 v 0.0794 h 0.07867 v -0.48296 c 0,0 0.03916,-0.2353 0.155575,-0.2353 h 0.336197 v -0.17991 l 0.09384,-0.0787 h 0.440972 v 0.25329 h 0.602192 l 0.06914,-0.0529 h 0.426861 l 0.03387,0.0938 c 0,0 0.186972,-0.004 0.186972,0.15628 v 0.36019 l 0.01446,0.002 c 0.128764,-0.14005 0.343959,-0.23142 0.588434,-0.23142 0.321733,0 0.594077,0.15946 0.682625,0.37888 h 0.155575 c 0.121002,0 0.156633,0.1263 0.156633,0.1263 l 0.235655,0.6611 0.288925,-0.10089 0.0254,0.0811 -0.281163,0.11183 0.112536,0.31891 c 0.0042,0 0.0085,-7.1e-4 0.0127,-7.1e-4 0.06985,0 0.125941,0.0565 0.125941,0.12559 0,0.0441 -0.02293,0.0826 -0.0568,0.10478 0.08784,0.2473 0.158397,0.44626 0.177447,0.50165 0.06068,0.17498 -0.108655,0.17498 -0.179564,0.17498 h -0.747536 v 0.0758 h -0.169686 c -0.121355,0 -0.23495,0.19015 -0.23495,0.19015 h 0.159103 l 0.165453,-0.0892 0.290689,-0.13159 h 1.214614 v -0.11924 c 0,-0.0843 0.07444,-0.0896 0.137583,-0.0896 h 1.352197 c 0.09207,0 0.09984,0.0296 0.09984,0.0998 v 0.10901 h 0.131939 v -0.0511 h 0.08961 v 0.0511 h 0.751063 v -0.0459 h 0.104775 v 0.0459 h 0.922162 c 0.163336,0 0.385586,0.11113 0.500944,0.17569 l 0.309739,-0.0893 -0.0032,0.32315 0.498122,0.40851 0.100542,-0.0222 0.006,0.0804 0.120297,-0.012 -0.01729,0.1083 h 0.373945 c 0.194733,0 0.360186,0.10407 0.440972,0.16475 0.08043,0.0607 0.375355,0.3369 0.375355,0.3369 l -0.06914,0.0836 0.129117,0.0759 0.01023,0.33125 c 0,0 -0.06844,0.005 -0.134761,-0.0254 -0.06562,-0.03 -0.12065,-0.0709 -0.12065,-0.0709 l 0.280811,0.26105 h 0.124531 l 0.331258,0.30551 c 0,0 0.121708,0.0596 0.08079,0.13052 -0.04057,0.0706 -0.146403,-0.005 -0.146403,-0.005 z m -2.287411,2.1329 c 0.06244,0.0667 0.117828,0.14358 0.147461,0.18591 0.177095,-0.055 0.362656,-0.11642 0.548217,-0.18344 0.01235,-0.13371 0.04586,-0.44239 0.148167,-0.48613 0.100894,-0.0434 0.301978,0.18838 0.375355,0.27905 0.191911,-0.0829 0.375356,-0.17004 0.541161,-0.26035 -0.109361,0.0413 -0.227894,0.0635 -0.351719,0.0635 -0.295275,0 -0.561269,-0.12736 -0.745419,-0.3302 l -0.31997,7e-4 c -0.03493,0.27975 -0.158044,0.53305 -0.343253,0.73096 m -1.21038,0.0497 c 0.02293,-0.0187 0.04515,-0.03 0.06632,-0.0307 0.0187,-0.002 0.03598,0.006 0.05362,0.018 0.04269,-0.0265 0.0695,-0.0737 0.06738,-0.12735 -0.0042,-0.0776 -0.07056,-0.13723 -0.147461,-0.133 -0.07761,0.004 -0.137231,0.0699 -0.133703,0.14746 0.0039,0.0589 0.04233,0.10689 0.09384,0.12559 m -1.94557,0.2099 c 0.02893,0.0646 0.05115,0.1263 0.06315,0.16122 l 0.545394,7.1e-4 c 0.05856,-0.12348 0.192969,-0.39653 0.303036,-0.40252 0.1143,-0.007 0.2286,0.30374 0.262467,0.40252 h 0.534811 c 0.01129,-0.0247 0.02646,-0.0554 0.04304,-0.0885 -0.446617,-0.16404 -0.783167,-0.56656 -0.846314,-1.06045 h -0.22225 c -0.05503,0.42651 -0.316089,0.79093 -0.683331,0.98707 m -1.103841,0.0579 c 0.01693,0.0416 0.02999,0.0787 0.03775,0.10266 l 0.564444,7e-4 0.0067,-0.0138 c -0.02434,0.002 -0.04904,0.004 -0.07303,0.005 -0.189441,0.006 -0.371122,-0.0279 -0.535869,-0.0945 m -1.392767,-0.28222 c 0.01623,-0.01 0.0321,-0.0155 0.04692,-0.0162 0.113594,-0.007 0.226836,0.30021 0.261055,0.40075 l 0.558447,3.6e-4 c 0.0374,-0.0794 0.105834,-0.21873 0.179211,-0.3108 -0.24518,-0.20461 -0.414866,-0.49812 -0.458258,-0.83291 h -0.20955 c -0.03845,0.29104 -0.173919,0.55739 -0.377825,0.75883 m -0.940153,0.37711 0.0025,0.007 0.682272,7e-4 c 0.03881,-0.0832 0.112183,-0.23177 0.189442,-0.32244 -0.178153,0.15276 -0.398992,0.26035 -0.647348,0.29881 -0.0762,0.0127 -0.152047,0.0176 -0.226836,0.0162 m -3.233561,-0.004 0.0028,0.008 0.584552,7.1e-4 c 0.05856,-0.12453 0.19297,-0.393 0.301625,-0.39899 0.112536,-0.007 0.225778,0.29704 0.260703,0.39934 h 0.547864 c 0.05891,-0.12453 0.192969,-0.39335 0.301978,-0.39934 0.112889,-0.007 0.22613,0.29845 0.26035,0.40005 h 0.41275 c 0.01482,-0.0314 0.03457,-0.0727 0.0575,-0.11607 -0.393347,-0.17321 -0.693561,-0.53728 -0.765527,-0.99307 l -0.0049,-0.03 -0.76447,10e-4 c -0.08008,0.59266 -0.561269,1.07244 -1.182158,1.12677 z m -0.331057,-0.3536 c 0.0254,-0.0222 0.05009,-0.0353 0.07338,-0.0367 0.01905,-0.002 0.03775,0.006 0.05644,0.0198 0.03951,-0.0275 0.0635,-0.0751 0.05891,-0.12735 -0.0067,-0.0776 -0.07514,-0.13476 -0.152047,-0.12735 -0.07726,0.006 -0.134761,0.0744 -0.127353,0.15204 0.0046,0.0561 0.04127,0.1009 0.09066,0.1196 m -2.398184,0.30021 c 0.0088,0.024 0.01588,0.0445 0.02152,0.0603 h 0.307269 c 0.05927,-0.12524 0.192617,-0.39124 0.30092,-0.39723 0.112183,-0.007 0.224719,0.29421 0.259997,0.39758 h 0.341136 c 0.05927,-0.12489 0.192617,-0.39159 0.301272,-0.39758 0.112536,-0.007 0.225073,0.29492 0.259998,0.39758 l 0.378177,7e-4 c 0.0099,-0.0215 0.02258,-0.0469 0.03598,-0.0748 -0.455084,-0.15557 -0.803628,-0.55633 -0.872773,-1.05798 l -0.440972,7.1e-4 c -0.06667,0.50482 -0.421216,0.91863 -0.892528,1.07068 m -0.317147,-0.29527 c 0.02681,-0.0247 0.05327,-0.0402 0.07832,-0.0416 0.03351,-0.002 0.06703,0.0229 0.09842,0.0621 0.03881,-0.0254 0.06456,-0.0688 0.06456,-0.11854 0,-0.0776 -0.06279,-0.14076 -0.140405,-0.14076 -0.07726,0 -0.140406,0.0632 -0.140406,0.14076 0,0.0377 0.01517,0.0723 0.03951,0.0981 m -0.221897,0.3556 c -0.0949,-0.0134 -0.187325,-0.0332 -0.276225,-0.0628 0.103717,0.0402 0.185914,0.0628 0.240242,0.0628 z m -0.925689,-0.54152 c -0.0088,0.0564 -0.0194,0.1076 -0.02716,0.14323 0.166864,0.0945 0.324203,0.17674 0.462492,0.24236 -0.172508,-0.0945 -0.321381,-0.22684 -0.435328,-0.38559 m -0.506236,-0.1397 c 0.08079,-0.0515 0.225425,-0.1404 0.339372,-0.17498 -0.03175,-0.0864 -0.05433,-0.17744 -0.06703,-0.27164 l -0.364773,0.001 -0.2667,-0.18944 c -0.01799,0.006 -0.03598,0.0113 -0.05503,0.0169 -7.06e-4,0.10337 -0.03528,0.23707 -0.05821,0.31398 0.153811,0.10266 0.313266,0.20567 0.472369,0.30409"
       id="S-T34-76"
       style="stroke-width:0.352778" />
  </g>
</svg>
