<?xml version="1.0" encoding="UTF-8" standalone="no"?>
<!-- Created with Inkscape (http://www.inkscape.org/) -->

<svg
   width="24.97718mm"
   height="10.65505mm"
   viewBox="0 0 24.97718 10.65505"
   version="1.1"
   id="svg6745"
   sodipodi:docname="inkporter-svg-de2d1i4p.svg"
   xmlns:inkscape="http://www.inkscape.org/namespaces/inkscape"
   xmlns:sodipodi="http://sodipodi.sourceforge.net/DTD/sodipodi-0.dtd"
   xmlns="http://www.w3.org/2000/svg"
   xmlns:svg="http://www.w3.org/2000/svg">
  <sodipodi:namedview
     id="namedview6747"
     pagecolor="#ffffff"
     bordercolor="#666666"
     borderopacity="1.0"
     inkscape:pageshadow="2"
     inkscape:pageopacity="0.0"
     inkscape:pagecheckerboard="0"
     inkscape:document-units="mm"
     showgrid="false"
     inkscape:zoom="0.66368547"
     inkscape:cx="397.02542"
     inkscape:cy="561.25984"
     inkscape:window-width="1920"
     inkscape:window-height="1017"
     inkscape:window-x="-8"
     inkscape:window-y="-8"
     inkscape:window-maximized="1"
     inkscape:current-layer="layer1" />
  <defs
     id="defs6742" />
  <g
     inkscape:label="Layer 1"
     inkscape:groupmode="layer"
     id="layer1"
     transform="translate(-87.683763,-127.0098)">
    <path
       d="m 110.81412,132.77415 c 0.13091,-0.16398 0.33073,-0.27009 0.55673,-0.27009 0.39274,0 0.71244,0.31971 0.71244,0.71245 0,0.24115 -0.12126,0.45475 -0.30592,0.58291 l 0.29903,0.27836 -0.15296,0.19292 h 0.27699 v 0.30869 l 0.39136,0.16674 -0.0689,0.12402 -0.41893,-0.17914 -0.011,0.0207 c 0.63389,0.30179 0.75516,1.20716 0.27285,1.77216 -0.33211,0.39136 -2.77675,1.18098 -3.23701,1.18098 H 97.721396 c -0.649055,0 -2.287542,-0.78411 -2.841516,-1.15066 -0.351398,-0.23151 -0.589799,-0.51815 -0.49058,-0.96463 l -0.70969,-0.19568 c 0,0 0.09646,-0.3955 0.39963,-0.64906 0.304546,-0.25356 0.695911,-0.30868 0.931556,-0.2949 0.234265,0.0138 1.274685,0 1.274685,0 v -0.15296 H 95.91341 v -0.13781 h -0.337619 v -0.12402 h 0.585667 l 0.179144,-0.33211 0.248049,-0.0689 0.172254,-0.21222 h 1.081758 l 0.08268,-0.33073 h 0.220486 l 0.235645,0.12402 0.261825,-0.17914 v -0.27699 l -0.137802,-0.0827 c 0,0 -0.409279,0.0372 -0.662838,-0.23978 -0.253559,-0.2756 -0.212217,-0.23426 -0.212217,-0.23426 h -0.635275 l -0.152961,-0.12403 v -0.1254 l -9.158443,-0.0689 v -0.39963 l 9.14466,-0.0138 v -0.11575 l 0.152964,-0.11024 h 0.593933 c 0,0 0.05926,-0.29077 0.542947,-0.45613 0.483693,-0.16537 1.164441,-0.26183 1.164441,-0.26183 h 0.516767 l 0.316955,-0.14332 v -0.1943 l 0.0978,-0.0551 h 0.27561 l 0.11024,0.0841 v 0.17914 h 0.226 v -0.19292 l 0.11024,-0.0841 h 0.29076 l 0.0827,0.0978 h 0.0524 v -0.113 h 0.0772 v -3.05511 h 0.0896 v 3.05511 h 0.0772 v 0.113 h 0.17363 v -0.35967 l 0.18466,-0.0413 h 0.12402 l 0.16536,-0.1378 0.0551,-0.0965 h 0.3321 l 0.0689,0.23427 h 0.76343 l 0.007,-0.0978 h 0.0799 l 0.0248,-0.0262 0.022,0.0262 h 0.10198 v 0.0841 h 0.1378 l 0.14331,0.16536 v 0.33211 l 0.23427,-0.16674 h 0.64906 l 0.32246,0.2949 h 0.45613 l 0.0965,0.11162 0.15159,1.06798 h 0.18465 v 0.12402 h -0.21222 l 0.0689,0.66284 -0.17915,0.18465 h -1.86035 l -0.27561,0.42858 v 0.0965 h 0.30868 v -0.45062 h 2.22002 V 132.369 h 1.42627 v 0.23978 h 0.22187 v -0.15159 h 0.68212 v -0.04 h 0.15159 v 0.04 h 0.56637 v -0.10748 h 0.22325 v 0.10748 h 0.5581 v -0.04 h 0.15159 v 0.04 h 0.67799 z m -9.54705,4.61368 c 0.007,-0.0427 0.0165,-0.0827 0.0289,-0.11851 0.0413,-0.11852 0.10473,-0.19569 0.17639,-0.19569 0.011,0 0.022,0.001 0.0317,0.004 0.0799,0.0262 0.14607,0.14608 0.17501,0.31006 h 0.64767 c 0.0331,-0.18466 0.113,-0.31419 0.20671,-0.31419 0.0937,0 0.17363,0.12953 0.20533,0.31419 h 0.50436 c -0.3638,-0.16812 -0.62838,-0.51263 -0.68626,-0.92466 h -0.77446 c -0.0331,0.23289 -0.13229,0.4451 -0.27836,0.6146 -0.01,-0.003 -0.0207,-0.004 -0.0317,-0.004 -0.0717,0 -0.13505,0.0772 -0.17639,0.19569 -0.062,0.0469 -0.12954,0.0854 -0.19982,0.11851 z m 3.18051,0 c 0.008,-0.051 0.0207,-0.0978 0.0372,-0.13918 0.04,-0.10749 0.1006,-0.17502 0.16812,-0.17502 0.10197,0.0124 0.17501,0.13919 0.20671,0.3142 h 0.64768 c 0.0165,-0.0965 0.0469,-0.17777 0.0841,-0.23289 -0.18466,-0.1819 -0.31144,-0.42306 -0.34865,-0.69177 h -0.30179 c -0.0317,0.23151 -0.12953,0.44234 -0.27423,0.61184 -0.0813,-0.001 -0.14194,0.0662 -0.1819,0.17364 -0.0717,0.0551 -0.14745,0.10197 -0.23013,0.13918 z m 3.17914,0 c 0.033,-0.18466 0.113,-0.3142 0.2067,-0.3142 0.0937,0 0.17363,0.12954 0.20671,0.3142 h 0.63941 c -0.3638,-0.16812 -0.62976,-0.51263 -0.68626,-0.92466 h -0.36656 c -0.0551,0.39825 -0.30455,0.73311 -0.65044,0.90812 z m 3.54018,-0.79237 c 0.0358,0.0427 0.0703,0.0951 0.10059,0.15709 0.0689,-0.0276 0.13643,-0.0537 0.2012,-0.0813 -0.10611,-0.01 -0.20809,-0.0358 -0.30179,-0.0758 M 110.86648,136.9 c -0.0441,-0.20808 -0.0138,-0.38447 0.0827,-0.41754 l -0.57189,-0.0193 c -0.0262,0.18328 -0.0937,0.35415 -0.19292,0.50298 0.0303,0.0386 0.0579,0.0841 0.0827,0.13505 0.19568,-0.062 0.40101,-0.13091 0.59944,-0.20119 m -11.760174,0.48783 c 0.03305,-0.18466 0.113002,-0.3142 0.206707,-0.3142 0.09371,0 0.173633,0.12954 0.206706,0.3142 h 0.564991 c -0.363798,-0.16812 -0.629757,-0.51263 -0.687638,-0.92466 h -0.4768 c -0.04685,0.3321 -0.228755,0.62149 -0.489204,0.8089 0.01101,0.0358 0.02067,0.0744 0.02893,0.11576 z M 96.0195,136.80354 c 0.115757,-0.19568 0.267342,-0.31006 0.363802,-0.26596 0.09646,0.0455 0.106113,0.23151 0.03306,0.44235 0.175013,0.0772 0.314194,0.13643 0.381719,0.16674 0.0372,0.0165 0.08406,0.0358 0.137802,0.0551 -0.212217,-0.18603 -0.359667,-0.4451 -0.401009,-0.73862 h -0.48369 l -0.23978,-0.15021 c -0.09784,0.0786 -0.212217,0.13367 -0.337619,0.15985 l -0.01792,0.0565 c 0.183279,0.0951 0.378961,0.18879 0.563616,0.27423"
       id="S-T34-85"
       style="stroke-width:0.352778" />
  </g>
</svg>
