<?xml version="1.0" encoding="UTF-8" standalone="no"?>
<!-- Created with Inkscape (http://www.inkscape.org/) -->

<svg
   width="13.72991mm"
   height="5.7488165mm"
   viewBox="0 0 13.72991 5.7488165"
   version="1.1"
   id="svg7020"
   sodipodi:docname="inkporter-svg-z7tdctoa.svg"
   xmlns:inkscape="http://www.inkscape.org/namespaces/inkscape"
   xmlns:sodipodi="http://sodipodi.sourceforge.net/DTD/sodipodi-0.dtd"
   xmlns="http://www.w3.org/2000/svg"
   xmlns:svg="http://www.w3.org/2000/svg">
  <sodipodi:namedview
     id="namedview7022"
     pagecolor="#ffffff"
     bordercolor="#666666"
     borderopacity="1.0"
     inkscape:pageshadow="2"
     inkscape:pageopacity="0.0"
     inkscape:pagecheckerboard="0"
     inkscape:document-units="mm"
     showgrid="false"
     inkscape:zoom="2.5620932"
     inkscape:cx="154.95143"
     inkscape:cy="441.63109"
     inkscape:window-width="3840"
     inkscape:window-height="2081"
     inkscape:window-x="2391"
     inkscape:window-y="-9"
     inkscape:window-maximized="1"
     inkscape:current-layer="layer1" />
  <defs
     id="defs7017" />
  <g
     inkscape:label="Layer 1"
     inkscape:groupmode="layer"
     id="layer1"
     transform="translate(-84.412315,-129.87897)">
    <path
       d="m 98.142225,133.32575 c 0,0 -0.08268,-0.20533 -0.264584,-0.41755 -0.181899,-0.21222 -0.478179,-0.26734 -0.478179,-0.26734 l 0.135046,-0.36242 -0.152961,-0.0524 c 0,0 0.03859,-0.10198 0.0441,-0.12678 0.0069,-0.0262 0.04548,-0.1254 -0.01654,-0.14056 l -2.275142,-0.72623 c 0,0 0.0069,-0.0799 -0.02755,-0.10197 -0.03306,-0.0207 -0.292143,-0.0358 -0.344509,-0.0207 -0.05374,0.0152 -0.292146,0.11162 -0.292146,0.11162 0,0 -0.40652,0.008 -0.457507,0.022 -0.05099,0.0124 -0.08544,0.0524 -0.08544,0.0524 l -0.713825,-1.34497 -0.165364,-0.008 c 0,0 -0.111619,-0.0703 -0.157096,-0.0634 -0.0441,0.005 -1.834169,0.0138 -1.834169,0.0138 l -0.118509,0.0413 h -0.2136 l -0.04686,0.0758 h -0.501604 l -0.08544,0.17639 c 0,0 0.192927,0.0482 0.192927,0.0551 0,0.005 -0.01101,0.0689 -0.0248,0.073 -0.01517,0.004 -0.256314,0.0138 -0.256314,0.0138 0,0 -0.08131,-0.15985 -0.08957,-0.15709 -0.0083,0.001 -0.226,0.15709 -0.248048,0.16674 -0.02067,0.011 -0.0441,0.0579 -0.05099,0.12954 -0.0014,0.0138 -0.0014,0.0413 -0.0028,0.0758 h -1.238857 v 0.0799 h -2.995856 v 0.14883 h 2.995856 v 0.15021 h 1.234723 c 0,0.006 0,0.008 0,0.008 0.0096,0.0524 0.03447,0.1378 0.08682,0.17363 0.05237,0.0345 0.30317,0.15572 0.30317,0.15572 l 0.07028,-0.0868 0.129533,0.008 -0.1819,0.32935 h -0.03447 l -0.06063,-0.11162 h -1.136883 l -0.05099,-0.0441 c 0,0 -0.321084,-0.0262 -0.391364,-0.0262 -0.0689,0 -0.155716,0.0703 -0.155716,0.0703 0,0 -0.04272,-0.0262 -0.0689,-0.0441 -0.02618,-0.0179 -0.121264,0.008 -0.121264,0.008 0,0 -0.0441,0.0868 -0.07028,0.1571 -0.02618,0.0689 0.02618,0.28525 0.02618,0.28525 l -0.14745,0.4079 -0.15572,0.0524 c 0,0 -1.638487,0.0427 -2.272386,0.0427 -0.632516,0 -0.945332,0.53881 -0.96187,0.565 -0.0096,0.0138 0.132292,0.10611 0.261828,0.18741 -0.234265,0.36242 -0.157095,0.80753 0.202572,1.14653 0.180524,0.17087 0.790995,0.53881 1.317403,0.82682 0.253559,0.13918 1.098296,0.59393 1.311892,0.59393 0.06339,0 7.559919,-0.0207 7.725283,-0.0234 0.108864,-0.003 1.50344,-0.57602 1.938899,-0.78824 0.501607,-0.24529 0.603581,-0.3638 0.740008,-0.70694 0.117132,-0.29214 0.03583,-0.52916 -0.05237,-0.69177 z m -1.657781,1.32429 c -0.04961,0.0207 -0.03721,0.16675 0.02618,0.34038 -0.03168,0.0124 -0.06201,0.0262 -0.0937,0.04 -0.07993,-0.16123 -0.172258,-0.26734 -0.221866,-0.24667 -0.04961,0.0207 -0.03859,0.16123 0.02205,0.32935 -0.03721,0.0152 -0.07442,0.0303 -0.110243,0.0455 -0.07441,-0.14332 -0.157096,-0.2384 -0.206707,-0.23013 0.0248,-0.0799 0.03721,-0.16399 0.03721,-0.25081 0,-0.0303 -0.0014,-0.0579 -0.0041,-0.0868 l 0.607716,-0.007 c 0.07717,0.0455 0.161233,0.0786 0.250804,0.0992 0.0055,0.0482 0.0193,0.10473 0.03996,0.16812 -0.03859,0.0165 -0.07855,0.0345 -0.119891,0.0524 -0.0813,-0.16536 -0.176389,-0.27561 -0.227376,-0.25356 m -0.733114,0.56362 c 0.04547,-0.0565 0.08268,-0.11851 0.111618,-0.18466 0.0028,0.0551 0.01792,0.12816 0.04548,0.20947 -0.03996,0.0165 -0.07855,0.0317 -0.115756,0.0469 -0.01379,-0.0262 -0.02755,-0.0496 -0.04134,-0.0717 m -1.544783,-0.60634 c -0.0014,0.0234 -0.0028,0.0468 -0.0028,0.0703 0,0.30592 0.158475,0.57602 0.39963,0.72898 -0.0055,0.0275 -0.01101,0.0579 -0.01517,0.0896 -0.0441,0 -0.08819,0 -0.136426,0 -0.01655,-0.14469 -0.0565,-0.24529 -0.101974,-0.24529 -0.04685,0 -0.08682,0.10198 -0.10335,0.24667 -0.03858,0 -0.07855,0 -0.118512,0 -0.01655,-0.14469 -0.0565,-0.24667 -0.10335,-0.24667 -0.04686,0 -0.08682,0.10198 -0.103353,0.24805 -0.0565,0 -0.114381,0 -0.173637,0 -0.01655,-0.14469 -0.0565,-0.24805 -0.10335,-0.24805 -0.04685,0 -0.08682,0.10336 -0.103357,0.24943 -0.03996,0 -0.07854,0 -0.118512,0 -0.01517,-0.13918 -0.05236,-0.2384 -0.09646,-0.24805 0.136429,-0.15434 0.217731,-0.35415 0.217731,-0.57464 0,-0.0221 0,-0.0427 -0.0014,-0.0634 z m -1.792827,0.89572 c -0.03721,0 -0.07442,0 -0.111622,0 -0.0014,-0.0152 -0.0041,-0.0317 -0.0069,-0.0469 0.03859,0.0179 0.07855,0.0345 0.118512,0.0469 m 0.658704,-0.0551 c 0.06615,-0.0331 0.128157,-0.0758 0.183278,-0.12402 -0.01792,0.0441 -0.03168,0.10474 -0.03996,0.17777 -0.0441,0 -0.08957,0 -0.13505,0 -0.0028,-0.0193 -0.0055,-0.0358 -0.0083,-0.0538 m -1.262284,-0.8158 c 0,0.0138 0,0.0303 0,0.0455 0,0.26872 0.122646,0.50987 0.315574,0.66835 -0.01379,0.0427 -0.0248,0.0965 -0.0303,0.15847 -0.03997,0 -0.07855,0 -0.118512,0 -0.01517,-0.14883 -0.05512,-0.25356 -0.103354,-0.25356 -0.04823,0 -0.08819,0.10611 -0.103356,0.25494 -0.04548,0 -0.09095,0 -0.135047,0 -0.01655,-0.14883 -0.0565,-0.25494 -0.10335,-0.25494 -0.04823,0 -0.08819,0.10611 -0.104736,0.25494 -0.03858,0 -0.07717,0.001 -0.117129,0.001 -0.01517,-0.1502 -0.05512,-0.25631 -0.103357,-0.25631 -0.04823,0 -0.08819,0.10611 -0.104729,0.25631 -0.03996,0 -0.08131,0 -0.122647,0 -0.01517,-0.1502 -0.05512,-0.25631 -0.103353,-0.25631 -0.04823,0 -0.08819,0.10749 -0.104726,0.25769 -0.03859,0 -0.07717,0 -0.115757,0 -0.0055,-0.0524 -0.01379,-0.0992 -0.0248,-0.1378 0.210841,-0.15848 0.347267,-0.41066 0.347267,-0.69316 0,-0.0124 -0.0014,-0.0248 -0.0014,-0.0372 z m -1.358741,0.84198 c -0.0014,0.0124 -0.0028,0.0234 -0.0041,0.0345 -0.03168,0 -0.06339,0.001 -0.09508,0.001 0.03447,-0.01 0.06753,-0.0221 0.09922,-0.0358 m -1.208539,-0.81717 c 0,0.007 0,0.0138 0,0.0207 0,0.3197 0.173634,0.59807 0.431324,0.74965 -0.0041,0.0248 -0.0096,0.0537 -0.01242,0.0841 -0.03859,0 -0.07717,0 -0.115757,0 -0.01517,-0.15158 -0.05512,-0.26045 -0.104729,-0.26045 -0.04823,0 -0.08819,0.10887 -0.103354,0.26183 -0.04548,0 -0.08957,0 -0.133671,0 -0.01517,-0.15296 -0.0565,-0.26183 -0.104729,-0.26183 -0.04823,0 -0.08957,0.10887 -0.104732,0.26183 -0.03858,0 -0.07717,0.001 -0.115754,0.001 -0.01517,-0.15434 -0.0565,-0.2632 -0.104733,-0.2632 -0.04823,0 -0.08957,0.11024 -0.104729,0.2632 -0.04134,0 -0.08131,0 -0.121267,0.001 -0.01517,-0.15434 -0.05512,-0.26458 -0.104733,-0.26458 -0.04823,0 -0.08957,0.11024 -0.104729,0.26458 -0.03859,0 -0.07717,0 -0.114377,0 -0.0096,-0.0923 -0.02755,-0.1695 -0.05237,-0.21635 0.162609,-0.15709 0.264583,-0.37758 0.264583,-0.62149 0,-0.004 0,-0.008 -0.0014,-0.0124 z m -2.257228,0.66145 c -0.02893,-0.0138 -0.05788,-0.0275 -0.08819,-0.0427 0.0041,-0.0124 0.0083,-0.0234 0.01242,-0.0358 0.02342,0.0276 0.04823,0.0537 0.07579,0.0786 m 0.892968,0.16812 c 0.05237,-0.0193 0.103354,-0.0455 0.151585,-0.0744 -0.0069,0.0317 -0.01242,0.0661 -0.01654,0.10473 -0.04685,0 -0.09095,0 -0.132292,0 0,-0.011 -0.0014,-0.0207 -0.0028,-0.0303 m -1.171331,-0.90813 c -0.0041,0.0331 -0.0055,0.0648 -0.0055,0.0992 0,0.13918 0.03306,0.2701 0.09233,0.38723 -0.02755,0.0317 -0.0565,0.0717 -0.08544,0.11714 -0.0096,-0.004 -0.0193,-0.01 -0.02893,-0.0152 0.05788,-0.15021 0.07166,-0.27424 0.02618,-0.29628 -0.0441,-0.0221 -0.132291,0.062 -0.214972,0.19843 -0.03306,-0.0179 -0.06615,-0.0358 -0.09922,-0.0537 0.06615,-0.16123 0.08406,-0.29766 0.03721,-0.32108 -0.04686,-0.0221 -0.140561,0.0717 -0.227379,0.21773 -0.0372,-0.0207 -0.07579,-0.0413 -0.112999,-0.0634 0.07304,-0.1695 0.09371,-0.31419 0.0441,-0.33762 -0.04685,-0.0234 -0.146071,0.0758 -0.234266,0.23013 -0.04272,-0.0248 -0.08406,-0.0482 -0.124022,-0.0717 0.0441,-0.10749 0.06752,-0.20532 0.06615,-0.26596 l 0.24529,0.0482 0.09508,0.10336 h 0.381716 z m -1.394577,-0.23564 c -0.0055,0.011 -0.01242,0.0207 -0.01792,0.0317 -0.03721,-0.0234 -0.07304,-0.0469 -0.104729,-0.0689 0.03996,0.0152 0.0813,0.0275 0.122643,0.0372 m 0.210838,0.0221 c 0.02893,-0.001 0.05788,-0.003 0.08544,-0.007 l 0.111619,0.0221 c -0.04134,0.0386 -0.08819,0.1006 -0.132292,0.17777 -0.03858,-0.022 -0.07441,-0.0455 -0.110243,-0.0661 0.0193,-0.0455 0.03447,-0.0882 0.04548,-0.12678 m 11.598948,0.35278 c -0.02893,0.0138 -0.06202,0.0289 -0.09646,0.0455 -0.01101,-0.022 -0.02205,-0.0413 -0.03306,-0.0606 0.07717,-0.001 0.152961,-0.0124 0.224621,-0.0331 -0.02893,0.0152 -0.06201,0.0317 -0.09508,0.0482 m 0.702797,-0.6904 c 0.01242,-0.062 0.02067,-0.1254 0.02067,-0.19155 0,-0.0923 -0.01517,-0.18052 -0.04134,-0.26458 0.08268,0.20395 0.06063,0.34175 0.02067,0.45613"
       id="S-T60" />
  </g>
</svg>
