<?xml version="1.0" encoding="UTF-8" standalone="no"?>
<!-- Created with Inkscape (http://www.inkscape.org/) -->

<svg
   width="18.747648mm"
   height="6.9395504mm"
   viewBox="0 0 18.747648 6.9395504"
   version="1.1"
   id="svg6745"
   sodipodi:docname="inkporter-svg-c14s4eqd.svg"
   xmlns:inkscape="http://www.inkscape.org/namespaces/inkscape"
   xmlns:sodipodi="http://sodipodi.sourceforge.net/DTD/sodipodi-0.dtd"
   xmlns="http://www.w3.org/2000/svg"
   xmlns:svg="http://www.w3.org/2000/svg">
  <sodipodi:namedview
     id="namedview6747"
     pagecolor="#ffffff"
     bordercolor="#666666"
     borderopacity="1.0"
     inkscape:pageshadow="2"
     inkscape:pageopacity="0.0"
     inkscape:pagecheckerboard="0"
     inkscape:document-units="mm"
     showgrid="false"
     inkscape:zoom="0.66368547"
     inkscape:cx="397.02542"
     inkscape:cy="561.25984"
     inkscape:window-width="1920"
     inkscape:window-height="1017"
     inkscape:window-x="-8"
     inkscape:window-y="-8"
     inkscape:window-maximized="1"
     inkscape:current-layer="layer1" />
  <defs
     id="defs6742" />
  <g
     inkscape:label="Layer 1"
     inkscape:groupmode="layer"
     id="layer1"
     transform="translate(-61.188284,-124.33032)">
    <path
       d="m 66.060298,131.25549 c -0.0074,-0.008 -0.01411,-0.0262 -0.01411,-0.0405 0,-0.019 -0.02081,-0.0306 -0.07719,-0.0426 -0.0689,-0.0148 -0.08132,-0.0133 -0.115747,0.0137 -0.02117,0.0167 -0.04286,0.0277 -0.04808,0.0245 -0.0049,-0.003 -0.03863,-0.0136 -0.07412,-0.0231 -0.04748,-0.0127 -0.06459,-0.025 -0.06459,-0.0464 0,-0.0207 -0.01693,-0.0337 -0.05697,-0.0449 -0.07532,-0.0209 -0.08774,-0.0202 -0.110137,0.007 -0.02258,0.0272 -0.08294,0.0293 -0.150989,0.006 -0.03965,-0.0138 -0.04794,-0.0239 -0.04269,-0.0515 0.0053,-0.029 -0.0035,-0.0371 -0.05553,-0.0528 -0.03387,-0.0102 -0.07133,-0.0259 -0.08262,-0.0351 -0.01517,-0.0126 -0.02399,-0.0104 -0.03457,0.009 -0.01658,0.0303 -0.07348,0.0319 -0.149684,0.004 -0.04318,-0.0156 -0.05239,-0.0261 -0.04886,-0.0558 0.0035,-0.0312 -0.0056,-0.0403 -0.06787,-0.0625 -0.06671,-0.024 -0.07437,-0.0241 -0.09952,-10e-4 -0.02434,0.0222 -0.03422,0.0225 -0.0992,0.002 -0.05948,-0.0184 -0.07271,-0.0291 -0.07659,-0.0624 -0.0035,-0.032 -0.0187,-0.0455 -0.07373,-0.0666 -0.05468,-0.0209 -0.07493,-0.0226 -0.09758,-0.008 -0.06156,0.0385 -0.190147,-3.5e-4 -0.198684,-0.0602 -0.0071,-0.0512 -0.126436,-0.0947 -0.17392,-0.0636 -0.05602,0.0367 -0.188101,-0.0125 -0.188101,-0.07 0,-0.041 -0.127705,-0.0897 -0.16838,-0.0643 -0.03821,0.0238 -0.07962,0.0225 -0.144463,-0.005 -0.04092,-0.0171 -0.05253,-0.0301 -0.04893,-0.0546 0.0035,-0.0261 -0.0085,-0.0375 -0.06915,-0.0603 -0.06459,-0.0247 -0.07676,-0.0254 -0.09606,-0.006 -0.02787,0.0283 -0.05052,0.0278 -0.127176,-0.003 -0.05299,-0.0212 -0.06138,-0.0305 -0.05549,-0.0613 0.0053,-0.0286 -0.0078,-0.0492 -0.06322,-0.0969 -0.06188,-0.0534 -0.07659,-0.0595 -0.125342,-0.0516 -0.04734,0.008 -0.06332,0.002 -0.11116,-0.0401 -0.0412,-0.0362 -0.05376,-0.0575 -0.04784,-0.0813 0.01199,-0.0477 -0.09285,-0.18077 -0.150213,-0.19071 -0.02963,-0.005 -0.05874,-0.0283 -0.08946,-0.0719 -0.03919,-0.0557 -0.04276,-0.0689 -0.02681,-0.0987 0.01482,-0.0281 0.0127,-0.0495 -0.01058,-0.11685 -0.01799,-0.0511 -0.03891,-0.0838 -0.05482,-0.0862 -0.03281,-0.005 -0.06184,-0.0448 -0.08322,-0.11641 -0.0187,-0.0613 -0.01199,-0.0871 0.02222,-0.0871 0.02046,0 0.02787,-0.0284 0.04255,-0.15133 0.0095,-0.0879 -0.0035,-0.0917 -0.307481,-0.0917 -0.299296,0 -0.295522,0.001 -0.251566,-0.0869 0.0127,-0.0253 0.04286,-0.0998 0.06735,-0.16562 0.02434,-0.0658 0.08315,-0.21878 0.130563,-0.33992 0.04745,-0.12113 0.08946,-0.23732 0.09359,-0.25821 0.0049,-0.0267 0.03979,-0.059 0.116099,-0.10869 0.09222,-0.06 0.245004,-0.17599 0.322403,-0.24479 0.01129,-0.0103 0.03637,-0.0304 0.05553,-0.0448 0.0194,-0.0144 0.06865,-0.0537 0.110243,-0.0874 0.06456,-0.0522 0.08689,-0.0614 0.151871,-0.063 0.04191,-0.001 0.08449,-7.1e-4 0.09458,3.5e-4 0.01305,0.002 0.01235,-0.009 -0.0035,-0.0395 -0.01764,-0.0334 -0.02152,-0.1296 -0.02117,-0.48278 0,-0.38825 -0.0035,-0.44158 -0.02328,-0.44591 -0.03493,-0.007 -0.03104,-0.0883 0.0042,-0.0976 0.02152,-0.006 0.02646,-0.018 0.02152,-0.0531 -0.0039,-0.0283 0.0035,-0.0507 0.01376,-0.0585 0.02716,-0.0172 0.197485,-0.008 0.221474,0.0121 0.02011,0.0167 0.02646,0.20252 0.0092,0.26664 -0.0074,0.0294 -0.01905,0.0342 -0.08163,0.0342 h -0.0726 l 0.0035,0.38353 c 0.0035,0.24108 0.0074,0.38499 0.01729,0.38747 0.0081,0.002 0.01729,-0.0385 0.01976,-0.0945 l 0.0042,-0.0985 0.06385,-0.0174 c 0.05263,-0.0143 0.08255,-0.0126 0.17018,0.01 0.05849,0.0149 0.12894,0.0365 0.156563,0.0479 0.04854,0.02 0.04967,0.0197 0.03316,-0.0104 -0.02399,-0.0448 -0.0085,-0.0473 0.258621,-0.0425 l 0.234844,0.004 0.0042,0.1481 0.0042,0.1481 h 0.181716 0.181751 v -0.0608 -0.0608 l 0.07973,-0.001 c 0.187007,-0.004 0.172402,0.004 0.217593,-0.11699 0.02681,-0.0722 0.03824,-0.0864 0.06869,-0.0864 0.02787,0 0.04064,0.0122 0.05457,0.0532 l 0.01834,0.0532 0.0035,-0.0691 c 0,-0.038 0.0085,-0.0773 0.01905,-0.0873 0.0099,-0.0103 0.05976,-0.0182 0.113947,-0.0182 h 0.09571 v -0.18227 -0.18227 h 0.07592 c 0.06583,0 0.07595,-0.004 0.07595,-0.0304 0,-0.018 0.0095,-0.0304 0.0247,-0.0304 0.02081,0 0.02328,-0.0114 0.01552,-0.0683 -0.0049,-0.0376 -0.01341,-0.0847 -0.0187,-0.10482 -0.0081,-0.0333 -0.0035,-0.038 0.06428,-0.054 0.04032,-0.01 0.08364,-0.0182 0.0962,-0.0191 0.01235,-0.001 0.101318,-0.0171 0.197239,-0.0361 0.130033,-0.0257 0.177235,-0.03 0.18542,-0.0168 0.0056,0.01 0.01552,0.0537 0.02081,0.0977 0.0085,0.0704 0.01376,0.0799 0.04494,0.0799 0.01905,0 0.03729,0.006 0.04004,0.014 0.0035,0.008 0.08107,0.0161 0.173884,0.0186 l 0.168804,0.005 0.05637,-0.0495 c 0.05376,-0.0472 0.06174,-0.0494 0.170109,-0.0469 0.06823,10e-4 0.120615,-0.004 0.130951,-0.0146 0.02434,-0.0247 0.636376,-0.0241 0.661035,7.1e-4 0.02081,0.0207 0.08724,-0.008 0.100789,-0.0428 0.0064,-0.0167 -0.0254,-0.0206 -0.164218,-0.0206 -0.151165,0 -0.177024,-0.004 -0.212196,-0.0315 -0.02222,-0.0173 -0.04,-0.0438 -0.04,-0.0589 0,-0.0339 -0.02187,-0.052 -0.09391,-0.0774 -0.03422,-0.0121 -0.08601,-0.054 -0.13395,-0.10848 -0.043,-0.0488 -0.08393,-0.085 -0.09116,-0.0806 -0.0071,0.004 -0.01693,0.002 -0.02187,-0.006 -0.0049,-0.008 -0.226907,-0.0147 -0.521335,-0.0157 -0.305788,-0.001 -0.549381,-0.009 -0.603744,-0.0188 -0.06283,-0.0117 -0.669466,-0.0189 -1.955659,-0.0231 -1.673542,-0.006 -1.864501,-0.004 -1.864501,0.0173 0,0.0202 -0.03422,0.0235 -0.250578,0.0235 h -0.250649 v -0.22784 -0.22785 h 0.250649 c 0.156916,0 0.250578,0.006 0.250578,0.0152 0,0.0207 3.654496,0.0191 3.759376,-10e-4 0.04184,-0.008 0.325508,-0.0186 0.630414,-0.0229 0.304906,-0.004 0.562046,-0.0103 0.571359,-0.0132 0.0088,-0.003 -0.0187,-0.043 -0.06205,-0.0889 -0.04346,-0.0459 -0.07994,-0.0926 -0.08107,-0.1038 -0.02575,-0.244 -0.02117,-0.28306 0.04516,-0.37943 0.02222,-0.0326 0.02364,-0.0417 0.0063,-0.0482 -0.01764,-0.007 -0.01729,-0.0189 0.0035,-0.0772 0.01975,-0.0596 0.02646,-0.0671 0.05055,-0.0543 0.03874,0.0208 0.0448,0.0189 0.0448,-0.014 0,-0.0158 0.01023,-0.0328 0.02364,-0.0379 0.01341,-0.005 0.0187,-0.0169 0.01305,-0.0267 -0.0063,-0.0108 -0.0042,-0.0135 0.006,-0.007 0.0092,0.006 0.05324,-0.0159 0.0973,-0.0484 0.105268,-0.0776 0.144603,-0.0981 0.150988,-0.0787 0.0035,0.009 0.02928,0.003 0.06357,-0.0145 0.04724,-0.0241 0.06396,-0.0263 0.08721,-0.0118 0.01587,0.01 0.02857,0.0232 0.02857,0.0295 0,0.0225 0.0448,0.0111 0.05877,-0.015 0.01341,-0.0248 0.0435,-0.0257 0.459811,-0.0141 0.314113,0.009 0.448804,0.0177 0.456671,0.0304 0.0056,0.01 0.0127,-0.0709 0.01552,-0.17954 l 0.0042,-0.19746 0.03799,1.4e-4 c 0.03792,1.3e-4 0.03796,2.5e-4 0.04219,0.16805 l 0.0042,0.16789 0.147567,-0.0272 c 0.08121,-0.0148 0.19879,-0.0309 0.261197,-0.0355 0.06241,-0.005 0.119415,-0.0143 0.126753,-0.0217 0.0071,-0.007 0.01446,-0.0396 0.01552,-0.0718 l 0.0035,-0.0585 0.231563,-0.002 0.231705,-0.002 v 0.0914 c 0,0.0874 0.0035,0.091 0.03351,0.0823 0.0187,-0.005 0.09123,-0.009 0.160938,-0.009 0.113347,-1.3e-4 0.127599,-0.003 0.134584,-0.0303 0.0071,-0.0291 0.02223,-0.03 0.461575,-0.0294 l 0.453813,7.1e-4 0.02434,0.0414 c 0.02011,0.0343 0.03281,0.0404 0.0744,0.0355 0.02716,-0.003 0.05457,0.002 0.06033,0.0108 0.01587,0.0262 0.175507,0.0216 0.175507,-0.005 0,-0.0124 0.01764,-0.0238 0.04184,-0.0266 0.03856,-0.004 0.04177,-0.01 0.04198,-0.0732 0,-0.0376 0.0049,-0.0666 0.01129,-0.0646 0.0056,0.002 0.106469,0.004 0.222921,0.004 h 0.211772 l 0.0046,0.0646 c 0.0042,0.0604 0.0071,0.0646 0.05017,0.0651 0.03034,3.5e-4 0.04713,0.009 0.05048,0.0265 0.0053,0.0283 0.09394,0.0385 0.09394,0.0108 0,-0.008 0.02364,-0.0152 0.05313,-0.0152 0.02893,0 0.05316,0.007 0.05316,0.0152 0,0.0198 0.0865,0.0198 0.09878,0 0.01199,-0.0198 0.113877,-0.0198 0.113877,0 0,0.008 0.03753,0.0152 0.08354,0.0152 0.04593,0 0.08357,-0.007 0.08357,-0.0152 0,-0.0214 0.08124,-0.019 0.103223,0.003 0.01411,0.0142 0.0187,0.0125 0.0187,-0.008 0,-0.02 0.01376,-0.0258 0.06082,-0.0258 h 0.06075 v -0.0721 -0.0721 l -0.03422,0.0418 c -0.0187,0.023 -0.04614,0.0418 -0.06068,0.0418 -0.03387,0 -0.04932,-0.0397 -0.02575,-0.0679 0.0095,-0.012 0.01305,-0.0301 0.0067,-0.0401 -0.0067,-0.0112 -0.0046,-0.0142 0.0053,-0.008 0.0088,0.006 0.02399,-0.003 0.03281,-0.0204 0.02046,-0.038 0.07694,-0.04 0.119979,-0.004 0.02822,0.0236 0.0321,0.0444 0.03457,0.18254 0.0035,0.11224 0.0081,0.16088 0.02364,0.17353 0.01799,0.0145 0.0194,0.0106 0.01094,-0.0226 -0.0081,-0.0335 -0.0035,-0.0433 0.02893,-0.0582 0.04875,-0.0222 0.09811,-0.1031 0.107068,-0.17561 0.0035,-0.03 0.01411,-0.0618 0.02293,-0.0706 0.02399,-0.01 0.06869,-0.0345 0.0768,-0.01 0.0078,0 0.01552,0.0119 0.01552,0.0266 0,0.0146 0.01023,0.0539 0.02328,0.0873 0.01235,0.0334 0.02681,0.073 0.03175,0.0879 0.0049,0.0149 0.03281,0.0371 0.06184,0.0493 0.04452,0.0186 0.0515,0.0278 0.04392,0.0579 -0.0049,0.0197 -0.0042,0.0402 0.0035,0.0455 0.0049,0.005 0.0078,0.0573 0.006,0.11532 -0.0035,0.12019 0.01023,0.15648 0.07313,0.18785 l 0.04427,0.0221 -0.01976,-0.0551 c -0.01094,-0.0303 -0.03034,-0.0755 -0.04385,-0.10035 -0.01305,-0.0249 -0.0187,-0.0505 -0.01199,-0.0569 0.006,-0.006 0.08495,-0.0383 0.174483,-0.0708 0.142205,-0.0516 0.16443,-0.0561 0.176037,-0.0353 0.01376,0.0248 0.03757,0.0189 0.210326,-0.0527 0.02681,-0.0112 0.05253,-0.0208 0.05655,-0.0212 0.0039,-3.6e-4 0.04777,-0.0167 0.09726,-0.0361 l 0.08996,-0.0352 0.03715,0.0568 c 0.03923,0.06 0.06477,0.18368 0.04283,0.20697 -0.0071,0.008 0.02469,0.11735 0.07493,0.25387 0.09479,0.25833 0.09334,0.24254 0.03245,0.35866 -0.0056,0.0118 -0.08957,0.0484 -0.185173,0.0813 -0.0956,0.0328 -0.176106,0.066 -0.178858,0.0735 -0.0035,0.008 -0.01058,0.0102 -0.01834,0.006 -0.0067,-0.004 -0.05937,0.0107 -0.116417,0.0335 -0.09638,0.0386 -0.123437,0.042 -0.392077,0.0496 l -0.288643,0.008 -0.0078,0.18227 c -0.01305,0.28789 -0.02434,0.29594 -0.432365,0.29617 -0.230575,1.2e-4 -0.263525,0.003 -0.307622,0.0302 -0.04357,0.0266 -0.04971,0.0386 -0.05235,0.10247 -0.0035,0.0398 -0.0035,0.0946 0,0.12174 0.0035,0.0452 -0.0035,0.0494 -0.04251,0.0494 -0.04406,0 -0.04515,0.002 -0.04515,0.0759 0,0.0857 0.02222,0.10117 0.03873,0.0268 0.0056,-0.0271 0.03457,-0.071 0.06389,-0.0978 0.03387,-0.0313 0.05306,-0.0624 0.05306,-0.0876 0,-0.028 0.0078,-0.039 0.02822,-0.039 0.02046,0 0.02822,-0.011 0.02822,-0.038 0,-0.0375 0.0035,-0.038 0.129152,-0.038 0.127529,0 0.129046,3.6e-4 0.129046,0.038 0,0.0321 0.0067,0.038 0.04561,0.038 0.03849,0 0.04558,0.006 0.04558,0.038 0,0.0359 0.0046,0.038 0.08252,0.038 0.0787,0 0.08273,-0.002 0.08731,-0.0418 0.0042,-0.0372 0.0099,-0.0412 0.05419,-0.0368 0.04417,0.004 0.04939,7e-4 0.04939,-0.0342 0,-0.0389 0,-0.0391 0.127388,-0.0391 0.112077,0 0.127211,0.003 0.125306,0.0266 -0.0035,0.0237 0.01729,0.0271 0.176389,0.0309 0.170639,0.004 0.178471,0.003 0.178471,-0.0266 0,-0.0285 0.0092,-0.0309 0.121532,-0.0309 0.119485,0 0.121532,7e-4 0.121532,0.038 0,0.0304 0.0071,0.038 0.03792,0.038 0.02999,0 0.03799,0.008 0.03799,0.038 0,0.0349 0.0053,0.038 0.06833,0.038 0.06279,0 0.0684,-0.003 0.0684,-0.038 0,-0.0304 0.0071,-0.038 0.03792,-0.038 0.02999,0 0.03799,-0.008 0.03799,-0.038 0,-0.0375 0.0035,-0.038 0.129751,-0.038 0.115182,0 0.129258,0.003 0.125342,0.0266 -0.0039,0.0239 0.01376,0.0271 0.174026,0.0309 0.170673,0.004 0.17847,0.003 0.17847,-0.0266 0,-0.0312 0.01623,-0.0333 0.239042,-0.0307 0.0056,6e-5 0.01199,0.009 0.0127,0.019 0.0035,0.0104 0.0035,0.0279 0.0039,0.039 0.0035,0.0133 0.0194,0.0185 0.05168,0.0152 0.04364,-0.004 0.04886,-10e-4 0.04463,0.0292 -0.0042,0.0322 0,0.0342 0.08735,0.0342 h 0.09218 v -0.0684 c 0,-0.0623 0.0035,-0.0683 0.03704,-0.0683 0.02046,0 0.04131,-0.007 0.04646,-0.0152 0.0049,-0.008 0.06946,-0.0152 0.142875,-0.0152 0.0919,0 0.148625,-0.008 0.182245,-0.0243 0.06523,-0.0325 0.145274,-0.0165 0.202353,0.0406 0.0314,0.0316 0.05934,0.0444 0.09603,0.0444 0.02822,0 0.08319,0.0153 0.121814,0.0341 l 0.07013,0.0341 0.03422,-0.0399 c 0.05775,-0.0671 0.132574,-0.0571 0.305718,0.041 0.08015,0.0454 0.149013,0.0826 0.152964,0.0826 0.0035,0 0.0314,0.0168 0.06181,0.0371 l 0.05457,0.0371 0.04505,-0.0637 c 0.07458,-0.10545 0.08075,-0.10742 0.175225,-0.0562 0.04565,0.0247 0.09003,0.0406 0.09853,0.0354 0.0081,-0.005 0.01094,-0.003 0.0063,0.005 -0.0049,0.008 0.04607,0.0449 0.113453,0.082 0.06731,0.0371 0.126189,0.0773 0.130739,0.0892 0.0042,0.0119 -0.0064,0.0481 -0.02505,0.0802 -0.0187,0.0322 -0.02858,0.0662 -0.02293,0.0757 0.0063,0.0105 0.0035,0.0129 -0.0067,0.006 -0.0092,-0.006 -0.01799,-0.005 -0.01799,0.002 0,0.0181 0.175754,0.11218 0.187572,0.10038 0.0053,-0.005 0.0095,-0.004 0.0095,0.004 0,0.008 0.0254,0.0152 0.05655,0.0169 0.06597,0.003 0.156105,-0.0455 0.156105,-0.0847 0,-0.043 0.02928,-0.0621 0.07151,-0.0462 0.02081,0.008 0.0453,0.01 0.055,0.004 0.0095,-0.006 0.01235,-0.005 0.006,0.002 -0.006,0.007 0.0035,0.022 0.0194,0.0337 0.03898,0.0273 0.03888,0.0657 0,0.0758 -0.01658,0.004 -0.02999,0.0176 -0.02999,0.0295 0,0.0179 0.03528,0.0202 0.21343,0.0133 0.134867,-0.005 0.224473,-0.002 0.243064,0.008 0.02046,0.0109 0.02928,0.0109 0.02928,7e-5 0,-0.009 0.04075,-0.0158 0.09871,-0.0158 0.08082,0 0.09871,0.004 0.09871,0.0246 0,0.0194 0.0085,0.0222 0.0418,0.0133 0.02293,-0.006 0.135255,-0.0143 0.249485,-0.0181 0.256928,-0.008 0.247967,-0.0172 0.247967,0.24224 0,0.12787 0.0049,0.17844 0.01834,0.17847 0.0095,2e-5 0.02223,-0.007 0.02752,-0.0155 0.0049,-0.009 0.02787,-0.0137 0.05027,-0.0114 0.04008,0.004 0.04068,0.003 0.04512,-0.0983 l 0.0042,-0.10253 0.07147,-1e-5 c 0.03923,0 0.105587,-0.0131 0.147426,-0.0291 0.08301,-0.0318 0.08491,-0.038 0.04403,-0.14401 -0.02575,-0.0666 -0.01834,-0.0809 0.04657,-0.0878 0.04244,-0.005 0.04636,-2.5e-4 0.06593,0.0716 l 0.02081,0.0765 0.08932,-3.5e-4 c 0.07257,-3.5e-4 0.09571,0.006 0.12319,0.0333 l 0.03351,0.0338 -0.03281,0.0355 c -0.0187,0.0196 -0.03281,0.0397 -0.03281,0.0447 0,0.005 0.02999,0.0207 0.06738,0.0349 0.06057,0.0231 0.105974,0.0679 0.06886,0.0679 -0.0078,0 -0.01341,0.005 -0.01199,0.0114 0.0039,0.022 -0.03574,0.11012 -0.04985,0.11012 -0.0074,0 -0.04113,-0.0137 -0.07387,-0.0304 -0.0321,-0.0167 -0.06322,-0.0304 -0.06773,-0.0304 -0.0042,0 -0.0078,0.0257 -0.0078,0.0571 0,0.0402 0.0085,0.0626 0.02928,0.0756 0.01658,0.0102 0.03281,0.013 0.03732,0.006 0.0092,-0.0155 0.101318,-0.003 0.126506,0.0166 0.01023,0.008 0.01517,0.0211 0.01023,0.0286 -0.0046,0.008 0.0035,0.0178 0.01658,0.023 0.01341,0.005 0.02152,0.0179 0.01729,0.0283 -0.0039,0.0104 0.02328,0.0488 0.06096,0.0854 0.13402,0.13068 0.243381,0.33198 0.279611,0.5146 0.0085,0.046 0.02963,0.11252 0.04586,0.14793 0.01588,0.0354 0.02893,0.0707 0.02893,0.0784 0,0.008 -0.08079,0.0528 -0.179458,0.10017 -0.147179,0.0707 -0.184538,0.0954 -0.20701,0.13716 l -0.02716,0.051 0.03997,0.0351 c 0.02822,0.0248 0.04279,0.0559 0.04953,0.10665 0.0085,0.0668 0.0063,0.0728 -0.03034,0.0899 -0.02328,0.0107 -0.04378,0.0348 -0.04861,0.0575 -0.0042,0.0215 -0.01587,0.0563 -0.02469,0.0771 -0.0254,0.058 -0.02611,0.0771 -0.0035,0.0857 0.01446,0.006 0.01905,0.0285 0.01517,0.0747 -0.0085,0.1071 -0.02011,0.12816 -0.06724,0.12816 -0.05842,0 -0.155892,0.14079 -0.135608,0.19572 0.0095,0.0265 0.0046,0.0498 -0.0194,0.0908 -0.04618,0.0776 -0.07073,0.0953 -0.103788,0.0747 -0.03912,-0.0245 -0.167428,0.0839 -0.167428,0.14138 0,0.0222 -0.0095,0.0489 -0.02258,0.0593 -0.01199,0.0103 -0.01834,0.0266 -0.0127,0.0361 0.0053,0.009 0.0042,0.0123 -0.0035,0.006 -0.0063,-0.006 -0.03104,3.5e-4 -0.05507,0.0143 -0.03976,0.0235 -0.04466,0.0235 -0.07041,2.5e-4 -0.02575,-0.0234 -0.03281,-0.0225 -0.106926,0.0129 -0.05419,0.0259 -0.07927,0.047 -0.07927,0.0666 0,0.0326 -0.05193,0.078 -0.122943,0.10742 -0.04255,0.0176 -0.05048,0.0169 -0.06759,-0.007 -0.0187,-0.025 -0.02293,-0.0247 -0.08153,0.005 -0.04636,0.0236 -0.06209,0.0409 -0.06209,0.0677 0,0.0198 -0.01058,0.0401 -0.02364,0.0452 -0.0127,0.005 -0.02046,0.0145 -0.01623,0.0211 0.0042,0.007 -0.0039,0.0131 -0.01834,0.0144 -0.01411,0.001 -0.04494,0.007 -0.06883,0.0129 -0.02893,0.007 -0.04745,0.004 -0.05567,-0.009 -0.0092,-0.0158 -0.02681,-0.0133 -0.08537,0.0119 -0.05609,0.0243 -0.07588,0.042 -0.08463,0.0757 -0.0081,0.0336 -0.02963,0.0527 -0.08925,0.0805 -0.07391,0.0346 -0.0787,0.0351 -0.09751,0.009 -0.01905,-0.0257 -0.02364,-0.025 -0.09716,0.012 -0.04251,0.0215 -0.07648,0.0442 -0.07553,0.0503 0.006,0.0402 -0.0063,0.0672 -0.03937,0.0821 -0.02081,0.009 -0.03493,0.0212 -0.0314,0.0262 0.0035,0.005 -0.01764,0.0108 -0.04537,0.0129 -0.03069,0.002 -0.0557,-0.005 -0.06311,-0.0175 -0.0099,-0.018 -0.02081,-0.0178 -0.0689,0.002 -0.03105,0.0125 -0.05359,0.0282 -0.04953,0.0347 0.0039,0.007 -0.0042,0.0109 -0.0187,0.01 -0.01799,-0.001 -0.02822,0.0127 -0.03351,0.0433 -0.0063,0.0361 -0.02328,0.0525 -0.08209,0.0805 -0.06819,0.0324 -0.07592,0.0332 -0.100894,0.0105 -0.02505,-0.0226 -0.03281,-0.0216 -0.104493,0.0147 -0.07433,0.0377 -0.08283,0.0503 -0.08206,0.12282 0,0.009 -0.01058,0.0164 -0.02399,0.0172 -0.0134,7e-4 -0.04717,0.0108 -0.07493,0.0222 -0.04491,0.0185 -0.05271,0.0179 -0.06936,-0.005 -0.01729,-0.0237 -0.02434,-0.0228 -0.09659,0.0129 -0.06022,0.0298 -0.08012,0.0486 -0.08763,0.0829 -0.01693,0.0752 -0.15628,0.11781 -0.19304,0.0589 -0.01517,-0.0245 -0.03528,-0.0304 -0.104069,-0.0304 -0.06583,0 -0.09137,0.007 -0.112642,0.0304 -0.02152,0.0238 -0.04678,0.0304 -0.116275,0.0304 -0.07863,0 -0.08872,-0.003 -0.08872,-0.0304 0,-0.0266 -0.0095,-0.0304 -0.08297,-0.0304 -0.06167,0 -0.08992,0.007 -0.110102,0.0287 -0.0194,0.0204 -0.05447,0.0306 -0.121109,0.0349 -0.05165,0.003 -0.09356,0.002 -0.09306,-0.002 0.0049,-0.0545 -0.0042,-0.0615 -0.0828,-0.0615 -0.06339,0 -0.08371,0.006 -0.09885,0.0304 -0.01517,0.0248 -0.03528,0.0304 -0.108197,0.0304 -0.07645,0 -0.09035,-0.004 -0.09716,-0.0304 -0.01129,-0.044 -0.164112,-0.0446 -0.195015,-7.1e-4 -0.01552,0.0221 -0.0417,0.0306 -0.102906,0.0334 -0.07253,0.003 -0.08357,-1.2e-4 -0.09451,-0.0296 -0.01058,-0.0286 -0.02364,-0.0334 -0.09271,-0.0334 -0.06392,0 -0.08424,0.006 -0.09934,0.0304 -0.01517,0.0249 -0.03528,0.0304 -0.110032,0.0304 -0.08079,0 -0.09095,-0.003 -0.09095,-0.0304 0,-0.0269 -0.0095,-0.0304 -0.08841,-0.0304 -0.07281,0 -0.09363,0.006 -0.11818,0.0343 -0.0254,0.0292 -0.04177,0.0335 -0.110878,0.0288 -0.06417,-0.004 -0.0828,-0.0115 -0.08865,-0.0343 -0.006,-0.0239 -0.02187,-0.0288 -0.09324,-0.0288 -0.06932,0 -0.08936,0.006 -0.104704,0.0304 -0.01517,0.0249 -0.03528,0.0304 -0.110031,0.0304 -0.08079,0 -0.09102,-0.003 -0.09102,-0.0304 0,-0.0269 -0.0095,-0.0304 -0.08745,-0.0304 -0.07165,0 -0.09098,0.006 -0.106856,0.0311 -0.01693,0.0268 -0.03246,0.0305 -0.113806,0.0266 -0.07172,-0.003 -0.09433,-0.01 -0.09433,-0.0273 0,-0.0169 -0.02152,-0.024 -0.08156,-0.0275 -0.06812,-0.004 -0.08506,3.5e-4 -0.103364,0.0265 -0.01799,0.0256 -0.03824,0.0312 -0.112148,0.0312 -0.08012,0 -0.09028,-0.003 -0.09028,-0.0304 0,-0.027 -0.0095,-0.0304 -0.08929,-0.0304 -0.07426,0 -0.09285,0.005 -0.110843,0.0324 -0.01764,0.0264 -0.0363,0.0324 -0.104351,0.0325 -0.07299,6e-5 -0.0834,-0.004 -0.0877,-0.0324 -0.0042,-0.029 -0.01411,-0.0324 -0.09493,-0.0324 -0.04953,0 -0.09006,0.006 -0.09006,0.0141 0,0.0372 -0.04336,0.054 -0.1264,0.049 -0.07295,-0.004 -0.08622,-0.01 -0.08622,-0.0342 0,-0.0251 -0.01129,-0.029 -0.0852,-0.029 -0.0702,0 -0.08985,0.006 -0.111971,0.0342 -0.02328,0.0295 -0.03842,0.0335 -0.111796,0.029 -0.06745,-0.004 -0.08671,-0.0111 -0.09405,-0.0342 -0.01305,-0.042 -0.150883,-0.0417 -0.187008,3.5e-4 -0.01834,0.0209 -0.04907,0.0308 -0.108726,0.0342 -0.07673,0.004 -0.08393,0.002 -0.08844,-0.0294 -0.0042,-0.031 -0.01305,-0.0342 -0.09296,-0.0342 -0.07027,0 -0.09257,0.006 -0.109149,0.0296 -0.01587,0.0222 -0.0418,0.0306 -0.104387,0.0335 -0.07599,0.004 -0.08403,0.001 -0.08837,-0.0296 -0.0042,-0.0303 -0.01341,-0.0335 -0.0949,-0.0335 -0.07341,0 -0.09334,0.006 -0.108832,0.0304 -0.01552,0.0251 -0.03528,0.0304 -0.114089,0.0304 -0.08495,0 -0.09507,-0.003 -0.09507,-0.0304 0,-0.0266 -0.0095,-0.0304 -0.08118,-0.0304 -0.06188,0 -0.0877,0.007 -0.108655,0.0304 -0.02152,0.0237 -0.04685,0.0304 -0.116311,0.0304 -0.07863,0 -0.08876,-0.003 -0.08876,-0.0304 0,-0.0266 -0.0099,-0.0304 -0.0817,-0.0304 -0.06371,0 -0.08629,0.007 -0.102517,0.0296 -0.01517,0.0221 -0.0417,0.0306 -0.103188,0.0334 -0.07214,0.003 -0.08421,-3.5e-4 -0.09726,-0.0296 -0.02187,-0.049 -0.152364,-0.0483 -0.198367,10e-4 -0.02716,0.0292 -0.04441,0.0336 -0.113735,0.0288 -0.06456,-0.004 -0.08319,-0.0116 -0.08911,-0.0344 -0.01164,-0.0451 -0.149401,-0.0411 -0.185914,0.005 -0.02328,0.0296 -0.03838,0.0335 -0.112359,0.029 -0.07214,-0.004 -0.08541,-0.01 -0.08541,-0.0342 0,-0.025 -0.01129,-0.029 -0.08491,-0.029 -0.06551,0 -0.0907,0.007 -0.110172,0.0297 -0.0187,0.0215 -0.04787,0.0307 -0.10728,0.0334 -0.07246,0.003 -0.08354,-1.3e-4 -0.09444,-0.0296 -0.01058,-0.0288 -0.02364,-0.0334 -0.09532,-0.0334 -0.06974,0 -0.08456,0.005 -0.09274,0.0304 -0.0078,0.026 -0.02293,0.0304 -0.101106,0.0304 -0.07881,0 -0.09267,-0.004 -0.09948,-0.0304 -0.01164,-0.0449 -0.147884,-0.0436 -0.19625,0.002 -0.02469,0.0234 -0.05563,0.0328 -0.111795,0.0342 -0.06847,0.002 -0.07849,-0.002 -0.08604,-0.0322 -0.0071,-0.0304 -0.01834,-0.0342 -0.0944,-0.0342 -0.06936,0 -0.08946,0.006 -0.10481,0.0304 -0.01517,0.0249 -0.03528,0.0304 -0.109961,0.0304 -0.08086,0 -0.09102,-0.003 -0.09102,-0.0304 0,-0.0267 -0.0095,-0.0304 -0.08516,-0.0304 -0.0702,0 -0.08985,0.006 -0.112078,0.0342 -0.02293,0.0294 -0.03835,0.0334 -0.110807,0.029 -0.06756,-0.004 -0.08548,-0.0108 -0.09162,-0.0342 -0.0063,-0.0242 -0.02152,-0.029 -0.09257,-0.029 -0.08382,0 -0.092,0.006 -0.08798,0.0608 0.0035,0.0116 -0.179529,0.005 -0.191559,-0.007 -0.0056,-0.006 -0.0099,-0.0185 -0.0099,-0.0283 0,-0.0111 -0.03493,-0.0194 -0.0937,-0.0222 -0.08308,-0.004 -0.09479,-0.001 -0.103505,0.0266 -0.0053,0.0171 -0.01411,0.0315 -0.02046,0.032 -0.07856,0.007 -0.159244,0.004 -0.170674,-0.008 z m 0.532447,-0.21959 c 0,-0.008 -0.0134,-0.0102 -0.02999,-0.006 -0.01658,0.004 -0.02999,0.0106 -0.02999,0.0138 0,0.003 0.01341,0.006 0.02999,0.006 0.01658,0 0.02999,-0.006 0.02999,-0.0138 z m 0.395147,-0.0584 c 0,-0.0397 0.0085,-0.0888 0.0194,-0.10904 0.01729,-0.0344 0.02575,-0.0367 0.125131,-0.0332 0.06279,0.002 0.114688,0.0118 0.126717,0.0237 0.01164,0.011 0.0247,0.0567 0.02999,0.10156 0.0085,0.0733 0.0134,0.082 0.04914,0.0861 0.03775,0.004 0.03993,3.5e-4 0.05316,-0.0987 l 0.01341,-0.10329 0.06082,-0.008 c 0.03905,-0.005 0.0539,-0.012 0.04149,-0.02 -0.04194,-0.0272 -0.143228,-0.20601 -0.173566,-0.30653 -0.01764,-0.0585 -0.03785,-0.11009 -0.04477,-0.11468 -0.0067,-0.005 -0.03493,-0.006 -0.06262,-0.002 -0.04537,0.005 -0.05429,0.0153 -0.09511,0.10672 -0.0484,0.1085 -0.155716,0.26166 -0.22412,0.31979 -0.02787,0.0237 -0.03743,0.0417 -0.02822,0.0532 0.0071,0.009 0.01905,0.0532 0.02469,0.097 0.0092,0.0711 0.01411,0.0797 0.04731,0.0797 0.03281,0 0.03627,-0.006 0.03697,-0.0722 z m 0.789622,0.0574 c 0,-0.008 -0.02081,-0.0254 -0.04554,-0.0384 -0.04484,-0.0232 -0.04554,-0.0229 -0.04554,0.0148 0,0.0325 0.0067,0.0384 0.04554,0.0384 0.02505,0 0.04554,-0.007 0.04554,-0.0148 z m 0.78987,-0.025 c 0,-0.0376 -0.0035,-0.0386 -0.03316,-0.0177 -0.0489,0.0324 -0.05143,0.0575 -0.0056,0.0575 0.03175,0 0.03926,-0.007 0.03926,-0.0398 z m 0.394934,-0.0371 c 0,-0.12314 0.0127,-0.13571 0.140053,-0.13571 h 0.108691 l -0.03351,-0.0314 c -0.0187,-0.0173 -0.05069,-0.0583 -0.07137,-0.0911 -0.03754,-0.0594 -0.03824,-0.0597 -0.135431,-0.0597 h -0.09765 l -0.07013,0.0911 -0.07006,0.0911 h 0.04456 c 0.05941,0 0.07581,0.0236 0.08791,0.12631 0.0092,0.0825 0.01199,0.0863 0.05359,0.0863 0.04216,0 0.04353,-0.002 0.04353,-0.0769 z m 0.383187,0.04 c 0.0078,-0.0416 0.0049,-0.0474 -0.05182,-0.0975 -0.03528,-0.0314 -0.03997,-0.0323 -0.03493,-0.008 0.0035,0.0155 0.0056,0.0538 0.0063,0.0852 0.0035,0.0496 0.0056,0.057 0.03732,0.057 0.02611,0 0.03817,-0.0101 0.04325,-0.037 z m 1.193871,-0.0617 c 0.0035,-0.0501 0.0092,-0.0958 0.01517,-0.10148 0.0053,-0.006 0.05673,-0.012 0.11363,-0.0139 0.13141,-0.005 0.154658,0.0132 0.169192,0.12967 0.01023,0.0823 0.0127,0.0861 0.05137,0.0816 0.0363,-0.004 0.04092,-0.0114 0.04459,-0.073 0.0078,-0.14016 0.0046,-0.13671 0.138712,-0.13671 0.152012,0 0.16062,0.008 0.166723,0.16328 0.0035,0.0443 0.0063,0.0494 0.04745,0.0494 0.04494,0 0.04561,-0.001 0.04561,-0.0805 0,-0.10224 0.02646,-0.16224 0.07218,-0.1624 0.0187,-6e-5 0.03387,0.007 0.03387,0.0151 0,0.008 0.03387,0.0152 0.07564,0.0152 0.08982,0 0.116417,0.0292 0.124884,0.13672 0.0046,0.0612 0.0092,0.0688 0.046,0.0731 0.04022,0.005 0.04071,0.004 0.04519,-0.0987 l 0.0042,-0.10347 0.122978,-0.004 c 0.145662,-0.005 0.156069,0.002 0.168663,0.12484 0.0081,0.0809 0.01023,0.0846 0.05218,0.0846 0.03895,0 0.04346,-0.005 0.04343,-0.0494 0,-0.0406 -0.01799,-0.0669 -0.09941,-0.14779 -0.168945,-0.16751 -0.233962,-0.31226 -0.245568,-0.54732 -0.0081,-0.17261 0.01552,-0.31103 0.07112,-0.40483 l 0.02822,-0.0486 -0.672818,-0.001 -0.672782,-10e-4 0.03175,0.0668 c 0.01799,0.0367 0.03528,0.0649 0.03983,0.0627 0.0088,-0.005 0.01129,0.0163 0.02399,0.23729 0.01058,0.194 -0.0046,0.27865 -0.07684,0.41437 -0.02152,0.04 -0.03351,0.0801 -0.02822,0.0891 0.0063,0.0105 0.0035,0.0119 -0.0095,0.004 -0.01482,-0.009 -0.01799,-0.005 -0.0095,0.0136 0.0053,0.0143 0.0035,0.0223 -0.0035,0.0176 -0.02223,-0.0136 -0.09536,0.0837 -0.08389,0.11151 0.01199,0.0292 0.01729,0.0513 0.02928,0.12791 0.0081,0.0521 0.01305,0.0574 0.0502,0.0532 0.03867,-0.004 0.0411,-0.01 0.0459,-0.0959 z m 2.767295,0.0114 c 0,-0.048 0.006,-0.0969 0.01376,-0.10867 0.01799,-0.0283 0.227436,-0.0241 0.256999,0.005 0.01129,0.0111 0.02469,0.0569 0.02999,0.10174 0.0085,0.0735 0.0134,0.082 0.04957,0.0862 0.0375,0.004 0.04011,1.3e-4 0.04971,-0.0815 0.0088,-0.078 0.0064,-0.0895 -0.02646,-0.12303 -0.02011,-0.0203 -0.06318,-0.0759 -0.09529,-0.12358 -0.0321,-0.0476 -0.06516,-0.0916 -0.07352,-0.0978 -0.02399,-0.0177 -0.04082,-0.0134 -0.02822,0.007 0.0081,0.0143 0.0056,0.015 -0.0099,0.002 -0.01199,-0.009 -0.04004,-0.0173 -0.0623,-0.0187 -0.03281,-0.002 -0.04939,0.0116 -0.09105,0.0769 -0.02752,0.0436 -0.06981,0.10105 -0.0931,0.12761 -0.0254,0.029 -0.03574,0.0522 -0.02646,0.058 0.0081,0.005 0.01588,0.0315 0.01588,0.0582 0,0.0848 0.01517,0.11683 0.05472,0.11683 0.03387,0 0.03609,-0.006 0.03634,-0.0873 z m 1.588064,0.0343 c 0.0053,-0.0291 0.006,-0.0626 0.0035,-0.0742 -0.0042,-0.0116 0.0035,-0.0356 0.01411,-0.0533 0.01905,-0.0274 0.03771,-0.0321 0.124178,-0.0319 0.05588,1.2e-4 0.110313,0.006 0.120897,0.0125 0.02293,0.0145 0.04911,0.0991 0.04911,0.15808 0,0.0364 0.0056,0.0419 0.04554,0.0419 0.0454,0 0.04558,-3.5e-4 0.04558,-0.0881 0,-0.0485 0.0078,-0.0963 0.0187,-0.10634 0.0095,-0.0101 0.05835,-0.0182 0.107456,-0.0182 h 0.08904 l -0.07521,-0.0873 c -0.08114,-0.0942 -0.150566,-0.21163 -0.192899,-0.32657 -0.02434,-0.0663 -0.03034,-0.0722 -0.07719,-0.0722 -0.04642,0 -0.05193,0.005 -0.06847,0.0646 -0.0092,0.0355 -0.01905,0.0861 -0.01975,0.11241 -0.0035,0.0263 -0.0056,0.0453 -0.01023,0.0422 -0.0049,-0.003 -0.02152,0.0217 -0.03634,0.0551 -0.01517,0.0334 -0.04307,0.0821 -0.06234,0.10818 -0.01905,0.0261 -0.03034,0.0543 -0.0254,0.0627 0.0049,0.008 0.0035,0.0111 -0.0053,0.006 -0.0078,-0.005 -0.04163,0.0179 -0.07408,0.0511 -0.05062,0.0518 -0.05831,0.0686 -0.05419,0.11709 0.0056,0.0702 0.01129,0.0794 0.04773,0.0794 0.02081,0 0.03104,-0.0146 0.0387,-0.053 z m 0.796219,0.0189 c 0,-0.0427 -0.01094,-0.0581 -0.06618,-0.0931 -0.02681,-0.0173 -0.03884,-0.02 -0.03069,-0.007 0.0067,0.0113 0.01023,0.0392 0.0081,0.062 -0.0056,0.0547 0.0067,0.0725 0.05189,0.0725 0.02822,0 0.03697,-0.008 0.03694,-0.0342 z M 65.49924,130.85925 c 0.01411,-0.0425 0.01376,-0.0587 -0.0035,-0.0775 -0.01729,-0.0208 -0.02222,-0.0175 -0.03813,0.0272 -0.02505,0.0696 -0.02469,0.10413 0.0035,0.10413 0.01129,0 0.02928,-0.0242 0.03937,-0.0538 z m -0.326319,-0.15647 c 0.01799,-0.0446 0.0411,-0.0864 0.05161,-0.0929 0.01023,-0.007 0.04583,0.001 0.07994,0.0176 0.03316,0.0162 0.06509,0.0252 0.07024,0.02 0.0049,-0.005 -0.01164,-0.0518 -0.03757,-0.1036 -0.02575,-0.0518 -0.05422,-0.11244 -0.06308,-0.13473 -0.02611,-0.0652 -0.0508,-0.28157 -0.04554,-0.3984 l 0.0046,-0.10789 -0.332704,-0.005 c -0.306917,-0.004 -0.341066,-0.007 -0.438574,-0.0415 -0.05828,-0.0203 -0.111865,-0.0333 -0.119203,-0.0287 -0.0071,0.004 -0.01305,3.6e-4 -0.01305,-0.009 0,-0.009 -0.0187,0.002 -0.04173,0.0268 -0.08065,0.0845 -0.182492,0.15581 -0.30106,0.21058 l -0.119592,0.0553 0.06734,0.0263 c 0.09172,0.0359 0.101671,0.0561 0.07952,0.16183 -0.01799,0.0856 -0.01094,0.11053 0.03034,0.11138 0.01976,3.6e-4 0.07539,-0.13417 0.06361,-0.15329 -0.0063,-0.0109 -0.0049,-0.0142 0.0046,-0.008 0.0085,0.005 0.02011,-1.2e-4 0.02434,-0.0123 0.0071,-0.0189 0.02152,-0.0177 0.09567,0.008 0.143016,0.0492 0.162349,0.0672 0.151871,0.14125 -0.0049,0.0346 -0.01341,0.0818 -0.0187,0.1048 -0.0078,0.0354 -0.0049,0.0418 0.02187,0.0418 0.02364,0 0.04127,-0.0209 0.06925,-0.0821 0.02081,-0.0452 0.04498,-0.0867 0.05408,-0.0923 0.0085,-0.006 0.06339,0.008 0.120897,0.0297 0.07694,0.0294 0.106645,0.0487 0.112783,0.0733 0.0078,0.0333 -0.0071,0.12923 -0.02646,0.15996 -0.0088,0.0151 0.04734,0.0575 0.06001,0.0448 0.0035,-0.003 0.02328,-0.0455 0.04477,-0.094 0.03877,-0.0876 0.03934,-0.0881 0.09225,-0.0782 0.0853,0.0161 0.185244,0.0645 0.194628,0.0946 0.0046,0.0152 -0.0035,0.0632 -0.01199,0.10654 -0.01129,0.0434 -0.01693,0.0829 -0.01164,0.0879 0.02364,0.0239 0.05729,-0.007 0.08689,-0.0807 z m 11.961247,-0.0377 c 0,-0.008 -0.01129,-0.0413 -0.0254,-0.0731 l -0.0254,-0.0578 -0.03316,0.0557 c -0.02999,0.0504 -0.0314,0.0589 -0.01129,0.0898 0.01905,0.0292 0.02752,0.0318 0.05909,0.0174 0.02046,-0.009 0.03701,-0.0236 0.03701,-0.032 z m 0.354295,-0.16187 c 0.0063,-0.006 -0.0042,-0.0514 -0.02469,-0.10011 -0.02081,-0.0487 -0.03457,-0.0958 -0.03069,-0.10464 0.0088,-0.0239 0.183339,-0.10242 0.214312,-0.0965 0.01482,0.003 0.04967,0.0405 0.07761,0.0837 0.04709,0.0729 0.05348,0.0774 0.08731,0.062 0.04378,-0.0199 0.04445,-0.0314 0.0056,-0.1105 -0.04833,-0.10016 -0.04187,-0.11804 0.06078,-0.16709 0.117863,-0.0564 0.118992,-0.0838 0.0049,-0.13582 -0.0744,-0.0341 -0.08915,-0.0365 -0.110173,-0.018 -0.01305,0.0116 -0.04868,0.0239 -0.0786,0.0273 -0.05669,0.006 -0.05948,0.003 -0.06167,-0.0753 l -0.0035,-0.0348 -0.242852,0.002 c -0.241371,0.002 -0.242852,0.002 -0.233257,0.0348 0.03351,0.11466 0.01658,0.51033 -0.02364,0.53503 -0.0071,0.005 -0.01341,0.015 -0.01341,0.023 0,0.008 0.02893,-7e-4 0.06459,-0.0192 0.03528,-0.0186 0.07137,-0.0346 0.07973,-0.0355 0.03246,-0.004 0.06692,0.0253 0.108515,0.091 0.03351,0.0541 0.04967,0.0666 0.0738,0.0594 0.01658,-0.005 0.0357,-0.0143 0.04279,-0.0206 z m -13.767435,-0.2699 c 0.01129,-0.0313 0.02364,-0.0655 0.02716,-0.0759 0.0042,-0.0121 -0.0071,-0.019 -0.03175,-0.019 -0.03034,0 -0.04134,0.009 -0.04844,0.0418 -0.0049,0.0229 -0.01199,0.0515 -0.01588,0.0633 -0.0056,0.0191 0.01729,0.0459 0.0405,0.0466 0.0042,1.3e-4 0.01799,-0.0254 0.02857,-0.0567 z m 14.461243,-0.0721 c 0.02081,-0.0119 0.03069,-0.022 0.02293,-0.0222 -0.0081,-2.5e-4 -0.01587,-0.0178 -0.01764,-0.0388 -0.0035,-0.021 -0.01023,-0.0482 -0.02046,-0.0603 -0.01517,-0.0187 -0.02434,-0.0159 -0.06004,0.0193 l -0.04184,0.0412 0.03069,0.0418 c 0.03528,0.048 0.03528,0.048 0.08601,0.0191 z m -14.824921,-0.0227 c 0,-0.008 -0.01058,-0.0152 -0.02364,-0.0152 -0.01305,0 -0.0194,0.007 -0.01446,0.0152 0.0049,0.008 0.01552,0.0152 0.02364,0.0152 0.0074,0 0.01446,-0.007 0.01446,-0.0152 z m 13.485247,-3.39368 c -0.03923,-0.0255 -0.175648,-0.10638 -0.240841,-0.14279 l -0.08442,-0.0471 -0.02822,0.0479 c -0.01517,0.0263 -0.02223,0.0504 -0.01411,0.0534 0.0074,0.003 0.08234,0.0448 0.165947,0.0927 l 0.1518,0.0872 0.02716,-0.0442 c 0.01517,-0.0243 0.02505,-0.0456 0.02293,-0.0472 z m -3.733799,-1.10528 c 0,-0.002 -0.02293,-0.0617 -0.05087,-0.13143 l -0.05055,-0.12672 -0.0314,0.0534 c -0.0423,0.0718 -0.09631,0.10442 -0.187184,0.11315 -0.05412,0.005 -0.08191,0.0164 -0.09793,0.0392 -0.02011,0.0286 -0.01976,0.0329 0.0035,0.0411 0.02646,0.009 0.414831,0.0199 0.414443,0.0112 z"
       id="S-Valentine-6pdr"
       style="stroke-width:0.352778" />
  </g>
</svg>
