<?xml version="1.0" encoding="UTF-8" standalone="no"?>
<!-- Created with Inkscape (http://www.inkscape.org/) -->

<svg
   width="8.6056213mm"
   height="7.9999995mm"
   viewBox="0 0 8.6056214 7.9999994"
   version="1.1"
   id="svg47190"
   inkscape:version="1.3.2 (091e20e, 2023-11-25, custom)"
   sodipodi:docname="SkullAndBones.svg"
   xml:space="preserve"
   xmlns:inkscape="http://www.inkscape.org/namespaces/inkscape"
   xmlns:sodipodi="http://sodipodi.sourceforge.net/DTD/sodipodi-0.dtd"
   xmlns:xlink="http://www.w3.org/1999/xlink"
   xmlns="http://www.w3.org/2000/svg"
   xmlns:svg="http://www.w3.org/2000/svg"><sodipodi:namedview
     id="namedview47192"
     pagecolor="#ffffff"
     bordercolor="#666666"
     borderopacity="1.0"
     inkscape:pageshadow="2"
     inkscape:pageopacity="0.0"
     inkscape:pagecheckerboard="0"
     inkscape:document-units="mm"
     showgrid="false"
     inkscape:zoom="14.493388"
     inkscape:cx="16.766266"
     inkscape:cy="10.315048"
     inkscape:window-width="1920"
     inkscape:window-height="1017"
     inkscape:window-x="-8"
     inkscape:window-y="-8"
     inkscape:window-maximized="1"
     inkscape:current-layer="layer1"
     inkscape:snap-bbox="true"
     inkscape:snap-bbox-midpoints="true"
     inkscape:snap-page="true"
     inkscape:showpageshadow="2"
     inkscape:deskcolor="#d1d1d1" /><defs
     id="defs47187"><linearGradient
       id="linearGradient67"
       inkscape:collect="always"><stop
         style="stop-color:#2f2f2f;stop-opacity:1;"
         offset="0.18808778"
         id="stop67" /><stop
         style="stop-color:#e4e4e4;stop-opacity:1;"
         offset="0.91222572"
         id="stop68" /></linearGradient><linearGradient
       id="linearGradient56"
       inkscape:collect="always"><stop
         style="stop-color:#1a1a1a;stop-opacity:1;"
         offset="0"
         id="stop55" /><stop
         style="stop-color:#c4c4c4;stop-opacity:1;"
         offset="1"
         id="stop56" /></linearGradient><clipPath
       clipPathUnits="userSpaceOnUse"
       id="clipPath63680-8"><path
         d="M 0,0 H 595.276 V 841.89 H 0 Z"
         id="path63678-4" /></clipPath><linearGradient
       inkscape:collect="always"
       xlink:href="#linearGradient56"
       id="linearGradient55"
       x1="289.20441"
       y1="73.831688"
       x2="289.20441"
       y2="86.530441"
       gradientUnits="userSpaceOnUse" /><linearGradient
       inkscape:collect="always"
       xlink:href="#linearGradient56"
       id="linearGradient57"
       gradientUnits="userSpaceOnUse"
       x1="303.9718"
       y1="84.468338"
       x2="304.2218"
       y2="98.443863" /><linearGradient
       inkscape:collect="always"
       xlink:href="#linearGradient67"
       id="linearGradient68"
       x1="278.70047"
       y1="121.02334"
       x2="352.60312"
       y2="39.082851"
       gradientUnits="userSpaceOnUse" /><linearGradient
       inkscape:collect="always"
       xlink:href="#linearGradient67"
       id="linearGradient69"
       gradientUnits="userSpaceOnUse"
       x1="263.12927"
       y1="120.09439"
       x2="279.7037"
       y2="68.398918" /><linearGradient
       inkscape:collect="always"
       xlink:href="#linearGradient67"
       id="linearGradient70"
       gradientUnits="userSpaceOnUse"
       x1="278.90701"
       y1="129.90442"
       x2="272.72839"
       y2="110.05496" /><linearGradient
       inkscape:collect="always"
       xlink:href="#linearGradient67"
       id="linearGradient71"
       gradientUnits="userSpaceOnUse"
       x1="278.90701"
       y1="129.90442"
       x2="272.72839"
       y2="110.05496"
       gradientTransform="matrix(-1,0,0,1,624.59937,-2.2672825)" /><linearGradient
       inkscape:collect="always"
       xlink:href="#linearGradient67"
       id="linearGradient72"
       gradientUnits="userSpaceOnUse"
       x1="263.12927"
       y1="120.09439"
       x2="279.7037"
       y2="68.398918"
       gradientTransform="matrix(-1,0,0,1,624.59937,-2.7964492)" /><linearGradient
       inkscape:collect="always"
       xlink:href="#linearGradient56"
       id="linearGradient73"
       gradientUnits="userSpaceOnUse"
       x1="289.20441"
       y1="73.831688"
       x2="289.20441"
       y2="86.530441" /></defs><g
     inkscape:label="Layer 1"
     inkscape:groupmode="layer"
     id="layer1"
     transform="translate(-87.211376,-76.723206)"><g
       id="g73"
       transform="matrix(0.06918162,0,0,0.06918162,69.908789,74.749243)"><path
         id="path70"
         style="font-variation-settings:normal;opacity:1;fill:url(#linearGradient72);fill-opacity:1;stroke:#000000;stroke-width:2.1;stroke-linecap:round;stroke-linejoin:miter;stroke-miterlimit:4;stroke-dasharray:none;stroke-dashoffset:0;stroke-opacity:1;paint-order:normal;stop-color:#000000;stop-opacity:1"
         d="m 361.47005,72.249856 a 11.975576,11.975576 0 0 1 11.9755,11.975496 11.975576,11.975576 0 0 1 -3.04168,7.959721 11.975576,11.975576 0 0 1 3.04168,7.959197 11.975576,11.975576 0 0 1 -11.9755,11.97549 11.975576,11.975576 0 0 1 -11.66389,-9.41286 l -10.29291,-1.47639 -13.93713,-6.708629 4.57594,-6.867281 10.51512,1.168404 8.90644,-5.500439 a 11.975576,11.975576 0 0 1 11.89643,-11.072709 z" /><path
         id="path65"
         style="font-variation-settings:normal;opacity:1;fill:url(#linearGradient69);fill-opacity:1;stroke:#000000;stroke-width:2.1;stroke-linecap:round;stroke-linejoin:miter;stroke-miterlimit:4;stroke-dasharray:none;stroke-dashoffset:0;stroke-opacity:1;paint-order:normal;stop-color:#000000;stop-opacity:1"
         d="m 263.12932,75.046306 a 11.975576,11.975576 0 0 0 -11.9755,11.975496 11.975576,11.975576 0 0 0 3.04168,7.959721 11.975576,11.975576 0 0 0 -3.04168,7.959207 11.975576,11.975576 0 0 0 11.9755,11.97549 11.975576,11.975576 0 0 0 11.66389,-9.41286 l 10.29291,-1.47639 13.93713,-6.708639 -4.57594,-6.867281 -10.51512,1.168404 -8.90644,-5.500439 A 11.975576,11.975576 0 0 0 263.12932,75.046306 Z" /><path
         id="circle66"
         style="font-variation-settings:normal;opacity:1;fill:url(#linearGradient70);fill-opacity:1;stroke:#000000;stroke-width:2.1;stroke-linecap:round;stroke-linejoin:miter;stroke-miterlimit:4;stroke-dasharray:none;stroke-dashoffset:0;stroke-opacity:1;paint-order:normal;stop-color:#000000;stop-opacity:1"
         d="m 289.40834,107.96368 -15.01717,3.18378 a 11.402528,11.402528 0 0 0 -7.02645,-2.45566 11.402528,11.402528 0 0 0 -11.40292,11.4024 11.402528,11.402528 0 0 0 7.45743,10.66757 11.402525,11.402525 0 0 0 -0.0687,0.95653 11.402525,11.402525 0 0 0 11.40292,11.4024 11.402525,11.402525 0 0 0 11.4024,-11.4024 11.402525,11.402525 0 0 0 -0.0956,-1.09141 l 14.33608,-16.65945 z" /><path
         id="path71"
         style="font-variation-settings:normal;opacity:1;fill:url(#linearGradient71);fill-opacity:1;stroke:#000000;stroke-width:2.1;stroke-linecap:round;stroke-linejoin:miter;stroke-miterlimit:4;stroke-dasharray:none;stroke-dashoffset:0;stroke-opacity:1;paint-order:normal;stop-color:#000000;stop-opacity:1"
         d="m 315.3291,91.676213 34.8791,17.203957 c 2.00153,-1.58147 4.47555,-2.44611 7.02645,-2.45566 6.29755,-2.2e-4 11.40285,5.10485 11.40292,11.4024 -0.0129,4.76471 -2.98697,9.01907 -7.45743,10.66757 0.0363,0.31774 0.0592,0.63686 0.0687,0.95653 -7e-5,6.29755 -5.10537,11.40262 -11.40292,11.4024 -6.29734,-7e-5 -11.40233,-5.10506 -11.4024,-11.4024 0.0144,-0.36512 0.0463,-0.72935 0.0956,-1.09141 L 304.34111,97.679973 Z"
         sodipodi:nodetypes="ccccccccccc" /><ellipse
         style="font-variation-settings:normal;opacity:1;fill:#1a1a1a;fill-opacity:1;stroke:#000000;stroke-width:2.00723;stroke-linecap:round;stroke-linejoin:miter;stroke-miterlimit:4;stroke-dasharray:none;stroke-dashoffset:0;stroke-opacity:1;paint-order:normal"
         id="path72"
         cx="311.22418"
         cy="77.293388"
         rx="46.794956"
         ry="41.963261" /><path
         id="circle42"
         style="fill:url(#linearGradient68);fill-opacity:1;stroke:#000000;stroke-width:2.2;stroke-linecap:round;stroke-dasharray:none;stroke-opacity:1;paint-order:normal"
         d="m 313.16244,29.633057 a 50.188454,50.188454 0 0 0 -49.92822,46.551164 c 0.27818,0.116367 1.32102,0.78517 3.76773,4.979541 2.89152,4.95688 2.68494,4.750586 2.4784,6.609416 -0.20652,1.85883 -2.99518,5.576027 -1.75596,7.641394 1.23922,2.065365 5.47357,6.918958 5.47357,6.918958 0,0 -1.75547,-1.85848 -1.13585,-6.505547 0.61961,-4.647074 3.40786,-4.543853 5.06016,-2.581755 1.65228,1.962098 6.91859,5.886246 7.74474,8.777762 0.82615,2.89151 -1.0326,9.19106 0.10336,10.94662 1.13594,1.75556 10.63688,7.12558 17.96892,7.02231 7.33206,-0.10326 16.91962,-1.20899 19.91352,-3.47266 2.99388,-2.26368 6.71785,-4.08931 6.27972,-6.64507 -0.43813,-2.55577 -1.16841,-4.74648 -1.16841,-4.74648 0,0 -3.06683,-4.81924 -3.13986,-6.060615 -0.073,-1.241369 5.18438,-6.353344 7.95921,-6.718453 2.77482,-0.365108 9.71227,0.292387 9.85831,1.533757 0.14605,1.241369 -0.73031,4.162003 -3.067,5.841504 -2.33669,1.679507 -8.25169,5.184697 -8.25169,5.184697 0,0 13.50938,-2.26388 16.79536,-6.353101 3.28598,-4.089217 8.54355,-11.099089 9.78493,-15.626437 0.93373,-3.405355 3.14697,-8.789724 4.71548,-11.562085 a 50.188454,50.188454 0 0 0 -49.45642,-41.73492 z" /><circle
         style="fill:url(#linearGradient73);fill-opacity:1;stroke:none;stroke-width:0.280039;stroke-linecap:round;stroke-dasharray:none;stroke-opacity:1;paint-order:normal"
         id="circle46"
         cx="289.20441"
         cy="78.68531"
         r="9.2541389" /><circle
         style="fill:#1a1a1a;fill-opacity:1;stroke:#000000;stroke-width:0.233863;stroke-linecap:round;stroke-dasharray:none;stroke-opacity:1;paint-order:normal"
         id="path43"
         cx="289.20441"
         cy="78.68531"
         r="7.7282004" /><circle
         style="font-variation-settings:normal;opacity:1;vector-effect:none;fill:url(#linearGradient55);fill-opacity:1;stroke:none;stroke-width:0.280039;stroke-linecap:round;stroke-linejoin:miter;stroke-miterlimit:4;stroke-dasharray:none;stroke-dashoffset:0;stroke-opacity:1;-inkscape-stroke:none;paint-order:normal;stop-color:#000000;stop-opacity:1"
         id="circle47"
         cx="318.42938"
         cy="77.239555"
         r="9.9662428" /><circle
         style="fill:#1a1a1a;fill-opacity:1;stroke:#000000;stroke-width:0.233863;stroke-linecap:round;stroke-dasharray:none;stroke-opacity:1;paint-order:normal"
         id="circle43"
         cx="318.42938"
         cy="77.239555"
         r="7.7282004" /><path
         id="path56"
         style="font-variation-settings:normal;opacity:1;vector-effect:none;fill:url(#linearGradient57);fill-opacity:1;stroke:none;stroke-width:0.280039;stroke-linecap:round;stroke-linejoin:miter;stroke-miterlimit:4;stroke-dasharray:none;stroke-dashoffset:0;stroke-opacity:1;-inkscape-stroke:none;paint-order:normal;stop-color:#000000;stop-opacity:1"
         sodipodi:type="inkscape:offset"
         inkscape:radius="1"
         inkscape:original="M 303.97266 84.46875 C 303.24978 84.46875 301.5957 90.767578 301.5957 90.767578 C 301.5957 90.767578 299.22122 96.756378 300.25391 97.789062 C 301.28659 98.821748 308.51589 98.513647 309.44531 97.6875 C 310.37472 96.861353 307.48242 90.664062 307.48242 90.664062 C 307.48242 90.664063 304.69554 84.46875 303.97266 84.46875 z "
         d="m 303.97266,83.46875 c -0.40825,0 -0.65767,0.18812 -0.81055,0.324219 -0.15288,0.136098 -0.24545,0.262243 -0.33203,0.392578 -0.17316,0.260669 -0.30998,0.544377 -0.45117,0.86914 -0.28238,0.649527 -0.56114,1.453935 -0.81836,2.257813 -0.50788,1.587186 -0.90942,3.120184 -0.91993,3.160156 -0.0271,0.06832 -0.59376,1.496702 -1.06445,3.144531 -0.2409,0.843383 -0.45468,1.723087 -0.54297,2.529297 -0.0441,0.403105 -0.0594,0.787479 -0.01,1.171875 0.0496,0.384397 0.15574,0.810044 0.52343,1.177735 0.68826,0.688262 1.41503,0.70974 2.32618,0.822265 0.91115,0.112526 1.97697,0.143734 3.04101,0.117188 1.06405,-0.02655 2.11791,-0.111777 3.00196,-0.25 0.44202,-0.06911 0.84033,-0.151321 1.19335,-0.25586 0.35303,-0.104538 0.6548,-0.187293 1,-0.49414 0.44442,-0.395042 0.50252,-0.868299 0.51758,-1.248047 0.0151,-0.379748 -0.0357,-0.747718 -0.11523,-1.142578 -0.1591,-0.789721 -0.44688,-1.671433 -0.75977,-2.523438 -0.62316,-1.696876 -1.35129,-3.254463 -1.35742,-3.267578 l -0.002,-0.002 c -0.001,-0.0023 -0.70147,-1.563468 -1.50196,-3.138672 -0.40054,-0.788192 -0.82422,-1.578777 -1.21679,-2.207031 -0.19629,-0.314127 -0.38025,-0.584878 -0.58399,-0.822266 -0.10186,-0.118693 -0.20521,-0.230348 -0.35547,-0.34375 -0.15025,-0.113401 -0.35944,-0.271484 -0.76171,-0.271484 z" /><path
         style="fill:#1a1a1a;fill-opacity:1;stroke:#000000;stroke-width:0.264583px;stroke-linecap:butt;stroke-linejoin:miter;stroke-opacity:1"
         d="m 307.48293,90.664443 c 0,0 2.89151,6.196106 1.9621,7.022253 -0.92942,0.826147 -8.15821,1.135953 -9.19089,0.103268 -1.03269,-1.032684 1.34248,-7.022252 1.34248,-7.022252 0,0 1.6523,-6.299374 2.37518,-6.299374 0.72288,0 3.51113,6.196105 3.51113,6.196105 z"
         id="path44" /><path
         style="fill:#b3b3b3;stroke:none;stroke-width:0.264583px;stroke-linecap:butt;stroke-linejoin:miter;stroke-opacity:1"
         d="m 279.70372,65.157143 c 0,0 2.68498,-1.9621 6.81572,-2.168637 4.13073,-0.206537 9.91376,1.032684 11.97913,3.098052 2.06537,2.065369 2.68498,3.511127 2.37518,4.647079 -0.30981,1.135953 -1.44576,3.098053 -1.44576,3.098053 0,0 0.82615,-3.098053 -0.92942,-4.647079 -1.75556,-1.549026 -9.60396,-4.54381 -13.94123,-3.511126 -4.33728,1.032684 -4.85362,-0.516342 -4.85362,-0.516342 z"
         id="path45" /><path
         style="fill:#b3b3b3;stroke:none;stroke-width:0.264583px;stroke-linecap:butt;stroke-linejoin:miter;stroke-opacity:1"
         d="m 308.30907,68.461732 c 0.92942,-1.9621 2.06537,-4.853616 4.13074,-4.853616 2.06537,0 7.8484,0.206537 10.01704,1.34249 2.16863,1.135952 3.51112,3.304589 3.51112,3.304589 0,0 -2.47844,-2.168637 -6.1961,-2.271905 -3.71767,-0.103268 -5.67977,-0.826147 -6.71245,-0.413074 -1.03269,0.413074 -4.75035,2.891516 -4.75035,2.891516 z"
         id="path46" /><path
         id="path57"
         style="fill:#cccccc;stroke:none;stroke-width:0.465;stroke-linecap:butt;stroke-linejoin:miter;stroke-dasharray:none;stroke-opacity:1"
         d="m 317.81591,98.513607 0.58291,6.550503 0.12454,-0.0155 4.4452,-0.81856 -0.47594,-5.319568 z m -0.7767,0.297656 -4.75888,1.842267 0.29145,5.13405 5.03277,-0.62477 z m 6.26267,0.167949 0.45682,5.105118 1.7234,-0.3173 -0.6537,-4.65811 z m -29.96665,0.153479 -2.59261,0.972029 -0.60203,3.54501 3.62407,1.70894 0.20981,-5.982066 z m 1.42885,0.545703 -0.20774,5.936586 5.03949,0.36897 v -4.69635 l -0.58084,0.0134 z m -4.88807,0.751376 -1.49758,0.56172 -0.23255,1.71824 1.24334,0.58601 z m 21.61987,0.52762 -0.14728,0.0568 -5.07256,0.11782 0.0842,4.78834 5.41208,-0.0909 z m -6.02082,0.19327 -5.07876,0.11833 v 4.75217 l 5.16299,-0.0868 z m -17.44183,2.38951 -0.99736,7.36493 1.00769,0.31367 1.20665,-7.10499 z m 1.96835,0.92811 -1.187,6.99079 4.52065,1.40818 0.16536,0.0258 0.23358,-6.66522 z m 35.59215,0.092 -1.7632,0.32452 0.57877,6.46989 2.07481,-0.44958 z m -2.55385,0.47025 -4.3956,0.80926 -0.17415,0.0217 0.59221,6.65179 4.5589,-0.98805 z m -5.36402,0.92966 -5.0586,0.62735 0.39997,7.04608 1.07487,-0.0434 4.18218,-0.90641 z m -23.14742,0.45527 -0.231,6.60166 5.29839,0.82579 v -7.05641 z m 17.28938,0.21291 -5.44359,0.092 0.12609,7.17579 5.71748,-0.23048 z m -6.24458,0.10593 -5.17694,0.0879 v 7.1453 l 0.89038,0.13901 4.41317,-0.17776 z" /></g></g></svg>
