<?xml version="1.0" encoding="UTF-8" standalone="no"?>
<!-- Created with Inkscape (http://www.inkscape.org/) -->

<svg
   width="8.4113674mm"
   height="8mm"
   viewBox="0 0 8.4113675 8"
   version="1.1"
   id="svg47190"
   inkscape:version="1.3.2 (091e20e, 2023-11-25, custom)"
   sodipodi:docname="Soviet.svg"
   xmlns:inkscape="http://www.inkscape.org/namespaces/inkscape"
   xmlns:sodipodi="http://sodipodi.sourceforge.net/DTD/sodipodi-0.dtd"
   xmlns="http://www.w3.org/2000/svg"
   xmlns:svg="http://www.w3.org/2000/svg">
  <sodipodi:namedview
     id="namedview47192"
     pagecolor="#ffffff"
     bordercolor="#666666"
     borderopacity="1.0"
     inkscape:pageshadow="2"
     inkscape:pageopacity="0.0"
     inkscape:pagecheckerboard="0"
     inkscape:document-units="mm"
     showgrid="false"
     inkscape:zoom="20.496746"
     inkscape:cx="19.295746"
     inkscape:cy="25.95534"
     inkscape:window-width="3840"
     inkscape:window-height="2081"
     inkscape:window-x="2391"
     inkscape:window-y="-9"
     inkscape:window-maximized="1"
     inkscape:current-layer="layer1"
     inkscape:showpageshadow="2"
     inkscape:deskcolor="#d1d1d1" />
  <defs
     id="defs47187">
    <clipPath
       clipPathUnits="userSpaceOnUse"
       id="clipPath63680-8">
      <path
         d="M 0,0 H 595.276 V 841.89 H 0 Z"
         id="path63678-4" />
    </clipPath>
  </defs>
  <g
     inkscape:label="Layer 1"
     inkscape:groupmode="layer"
     id="layer1"
     transform="translate(-86.412413,-76.730775)">
    <g
       id="g4604"
       transform="matrix(0.08478008,0,0,0.08478008,86.379113,76.542138)"
       style="display:inline;fill:#000000">
      <g
         fill="#cc0000"
         id="g837">
        <path
           d="m 34.77,43.67 3.52,-1 a 35.21,35.21 0 0 1 2.77,6.06 l -2.36,0.4 a 39.31,39.31 0 0 0 -3.93,-5.46 z"
           id="path831" />
        <path
           d="m 63.77,66.39 h 0.15 a 1,1 0 0 0 0.84,-1.13 l -0.3,-2.13 a 2.38,2.38 0 1 1 -2,0.28 l 0.31,2.13 a 1,1 0 0 0 0.97,0.85 z"
           id="path833" />
        <path
           d="m 69.2,53.27 a 0.25,0.25 0 0 1 0.25,-0.25 h 0.25 a 0.25,0.25 0 0 1 0.25,0.25 v 5.38 A 0.25,0.25 0 0 1 69.7,58.9 H 69.45 A 0.25,0.25 0 0 1 69.2,58.65 Z"
           id="path835" />
      </g>
      <path
         style="fill:#cc0000;fill-opacity:1;stroke:#ffcc00;stroke-width:3;stroke-linecap:butt;stroke-linejoin:miter;stroke-miterlimit:4;stroke-dasharray:none;stroke-opacity:1"
         d="M 3.2069705,39.228738 33.999228,32.175539 50.004626,5.266535 66.000721,32.175539 96.791872,39.228738 75.880991,62.570134 78.909671,94.175549 49.994215,81.356803 21.078761,94.175549 24.107441,62.570134 Z"
         id="path959"
         inkscape:connector-curvature="0"
         sodipodi:nodetypes="ccccccccccc" />
      <path
         style="opacity:1;fill:#ffcc00;fill-opacity:1;fill-rule:evenodd;stroke:none;stroke-width:4.15685;stroke-miterlimit:4;stroke-dasharray:none;stroke-opacity:1"
         d="m 51.258188,29.890889 c -0.699536,0.01183 -1.293746,0.183672 -1.827251,0.416487 0.543289,0.150498 1.083803,0.332985 1.617803,0.551305 0.569951,0.236931 1.131645,0.51379 1.685211,0.825754 0.927078,0.53525 1.741528,1.012716 2.551893,1.480579 0.501118,0.29698 0.99125,0.620513 1.466134,0.9702 0.475173,0.349307 0.935242,0.72331 1.379467,1.121871 0.443933,0.398494 0.869785,0.820194 1.278353,1.263908 0.409097,0.443553 0.800372,0.90949 1.170018,1.393912 0.368916,0.48462 0.716646,0.986517 1.042424,1.50706 0.325957,0.520652 0.628065,1.059174 0.907607,1.61058 0.280217,0.551662 0.537034,1.115434 0.767975,1.692435 0.229888,0.576914 0.435547,1.165903 0.613899,1.76225 0.179314,0.596132 0.331406,1.20068 0.457414,1.810399 0.12589,0.609478 0.224748,1.22233 0.296116,1.839288 0.04987,0.437007 0.08615,0.876398 0.108334,1.314465 0.03204,0.619053 0.03551,1.237775 0.01208,1.853734 -0.02304,0.615238 -0.0735,1.226014 -0.151669,1.832066 -0.03216,0.200791 -0.06772,0.400359 -0.105931,0.599453 -0.05914,0.402366 -0.13098,0.803384 -0.214264,1.198908 -0.132964,0.591228 -0.290594,1.172966 -0.476673,1.742991 -0.186206,0.570073 -0.400501,1.127616 -0.637973,1.670766 -0.237177,0.542738 -0.498839,1.068831 -0.784827,1.579284 -0.286639,0.510164 -0.596692,1.003063 -0.929274,1.475765 -0.331967,0.473919 -0.684542,0.928451 -1.059276,1.360207 -0.04608,0.04838 -0.09301,0.09431 -0.139633,0.142039 L 46.342221,47.501351 53.02529,41.694594 42.413271,37.366007 29.95474,47.460425 l 7.641232,7.641232 6.025836,-5.236194 12.747424,16.21896 c -6.626013,2.459581 -12.883647,1.696846 -18.696221,-2.961158 l -2.409853,2.409854 c -3.669484,3.33423 -7.272526,3.750077 -7.366782,7.00085 -7.2e-5,2.139966 1.733613,3.87365 3.873579,3.87358 2.139968,7e-5 2.410679,-1.33976 3.87358,-3.87358 0.890091,-1.541684 1.798116,-2.853957 2.681894,-4.294882 3.831474,2.850103 8.404258,4.40129 13.021872,4.417661 3.022568,-0.01023 5.970274,-0.67946 8.645136,-1.962067 L 64.850662,76.877 c 3.807291,0.245867 4.556554,-1.816912 4.239511,-4.239511 l -4.52122,-4.997856 C 69.173279,63.562459 71.637778,57.511818 71.292948,51.122149 70.70381,40.989781 63.250712,32.236911 53.393592,30.100337 52.688215,29.987021 51.954955,29.879049 51.258188,29.890889 Z"
         id="path920" />
    </g>
  </g>
</svg>
