<?xml version="1.0" encoding="UTF-8" standalone="no"?>
<!-- Created with Inkscape (http://www.inkscape.org/) -->

<svg
   width="6.6730704mm"
   height="8mm"
   viewBox="0 0 6.6730705 7.9999999"
   version="1.1"
   id="svg47190"
   inkscape:version="1.1.1 (3bf5ae0d25, 2021-09-20)"
   sodipodi:docname="stafen.svg"
   xmlns:inkscape="http://www.inkscape.org/namespaces/inkscape"
   xmlns:sodipodi="http://sodipodi.sourceforge.net/DTD/sodipodi-0.dtd"
   xmlns="http://www.w3.org/2000/svg"
   xmlns:svg="http://www.w3.org/2000/svg">
  <sodipodi:namedview
     id="namedview47192"
     pagecolor="#ffffff"
     bordercolor="#666666"
     borderopacity="1.0"
     inkscape:pageshadow="2"
     inkscape:pageopacity="0.0"
     inkscape:pagecheckerboard="0"
     inkscape:document-units="mm"
     showgrid="false"
     inkscape:zoom="10.248373"
     inkscape:cx="30.687798"
     inkscape:cy="5.0251879"
     inkscape:window-width="1920"
     inkscape:window-height="1017"
     inkscape:window-x="-8"
     inkscape:window-y="-8"
     inkscape:window-maximized="1"
     inkscape:current-layer="g1691" />
  <defs
     id="defs47187">
    <clipPath
       clipPathUnits="userSpaceOnUse"
       id="clipPath63680-8">
      <path
         d="M 0,0 H 595.276 V 841.89 H 0 Z"
         id="path63678-4" />
    </clipPath>
  </defs>
  <g
     inkscape:label="Layer 1"
     inkscape:groupmode="layer"
     id="layer1"
     transform="translate(-87.247206,-76.754962)">
    <g
       id="g1691"
       transform="matrix(0.00852955,0,0,0.00852955,87.392582,76.900314)">
      <g
         id="g1135"
         transform="matrix(1.3793106,0,0,1.3793106,6.464915,6.4638378)">
        <text
           xml:space="preserve"
           style="font-style:normal;font-weight:normal;font-size:3.52778px;line-height:1.25;font-family:sans-serif;fill:#000000;fill-opacity:1;stroke:none;stroke-width:0.264582"
           x="87.368568"
           y="80.724609"
           id="text49893"
           transform="matrix(117.23948,0,0,117.23948,-10245.861,-9015.7526)"><tspan
             sodipodi:role="line"
             id="tspan49891"
             style="font-size:3.52778px;stroke-width:0.264582"
             x="87.368568"
             y="80.724609">SS</tspan></text>
        <path
           id="path918-3"
           style="fill:#000000;fill-opacity:1;stroke:none"
           sodipodi:type="inkscape:offset"
           inkscape:radius="17.541676"
           inkscape:original="M 0.67773438 0.5 L 0.67773438 1.5 L 0.67773438 2.5 C 1.4877744 136.48071 -0.93628688 270.5122 2.0019531 404.45898 C 11.100963 468.68505 50.95212 524.89327 101.14844 564.21484 C 149.50647 601.79942 204.83126 631.66014 264.77148 645.40625 C 314.38528 635.02889 358.44992 608.54387 401.10352 582.32031 C 452.03712 548.30269 498.38568 503.23192 521.01758 445.31055 C 533.22938 412.90399 533.43248 377.5825 531.98438 343.34375 C 531.90397 268.4375 531.81693 193.53125 531.74023 118.625 C 482.75243 120.87958 436.76903 89.9422 413.55273 48 C 405.15173 33.426348 400.56138 17.16195 398.77148 0.5 L 0.67773438 0.5 z "
           d="M 0.67773438,-17.041016 A 17.54343,17.54343 0 0 0 -16.863281,0.5 v 1 1 a 17.54343,17.54343 0 0 0 0,0.1054688 C -16.054948,136.30388 -18.483662,270.42898 -15.535156,404.84375 a 17.54343,17.54343 0 0 0 0.167968,2.07617 c 9.8974346,69.86181 52.660595,129.55694 105.697266,171.10352 a 17.54343,17.54343 0 0 0 0.05273,0.041 c 49.921988,38.80012 107.424028,69.98184 170.466798,84.43946 a 17.54343,17.54343 0 0 0 7.51367,0.0723 c 53.4309,-11.17575 99.17141,-39.02578 141.92774,-65.3125 a 17.54343,17.54343 0 0 0 0.55468,-0.35547 c 52.79735,-35.26238 102.0459,-82.603 126.50977,-145.21289 a 17.54343,17.54343 0 0 0 0.0762,-0.19922 c 13.59174,-36.06852 13.54137,-73.62117 12.09375,-108.26757 -0.0804,-74.87539 -0.16747,-149.74836 -0.24414,-224.6211 A 17.54343,17.54343 0 0 0 530.93359,101.10156 C 489.81142,102.99414 449.13383,76.057313 428.90039,39.503906 A 17.54343,17.54343 0 0 0 428.75,39.240234 C 421.7884,27.163579 417.79208,13.32744 416.21289,-1.3730469 A 17.54343,17.54343 0 0 0 398.77148,-17.041016 Z" />
        <path
           d="m 0.6777864,2.5 c 0.81004,133.98071 -1.61344,268.0125 1.3248,401.95928 9.0990096,64.22607 48.9487896,120.43487 99.1451136,159.75644 48.35803,37.58458 103.68362,67.44442 163.62383,81.19053 49.6138,-10.37736 93.6785,-36.86239 136.3321,-63.08595 50.9336,-34.01762 97.2824,-79.08931 119.9143,-137.01068 12.2118,-32.40656 12.4139,-67.72712 10.9658,-101.96587 -0.0804,-74.90625 -0.1667,-149.8125 -0.2434,-224.71875 -48.9878,2.25458 -94.9712,-28.6828 -118.1875,-70.625 -8.401,-14.57365 -12.9914,-30.83805 -14.7813,-47.5 -132.6979,0 -265.39583,0 -398.0937436,0 v 1 z"
           style="fill:#f9f9f9;stroke:none"
           id="path918" />
        <path
           d="M 18.677786,18.5 V 392.28125 C 29.829846,514.53284 154.64759,594.69024 262.11533,627.625 c 22.0745,-3e-5 243.2943,-85.99332 251.875,-235.4375 l -0.25,-256.15625 c -9.059,-0.58839 -18.6094,-2.47772 -28.5,-5.75 C 434.72263,113.56762 392.58513,65.98581 383.45903,18.5 Z"
           style="fill:#000000"
           id="path920" />
        <g
           id="Layer_2"
           transform="matrix(1.0865439,0,0,1.0865439,-39.069865,-35.114858)">
          <g
             id="g1994">
            <g
               id="g1992">
              <path
                 d="m 330.4,464.5 c 0.6,-0.8 1.1,-1.8 1.7,-2.8 0.8,-1.3 1.5,-2.7 2.7,-4.3 6.1,-8.1 9,-20.1 9,-36.8 V 319.8 H 202.6 v 100.5 c 0,17 3,29.1 9,37.2 1.2,1.6 2,3 2.7,4.3 0.6,1 1.1,1.9 1.7,2.8 h -85.2 c 0.7,-0.9 1.5,-1.9 2.2,-3 0.8,-1.2 1.6,-2.4 2.7,-3.7 6.5,-7.9 9.7,-20.2 9.7,-37.6 V 198.6 c 0,-18.2 0,-35.7 -10.6,-44.3 H 212 c -9.5,8.3 -9.5,24.9 -9.5,44.4 v 79.9 h 140.8 v -79.9 c 0,-19.5 0,-36.2 -9.3,-44.4 h 77.6 C 401,162.9 401,180.4 401,198.6 v 221.6 c 0,17.3 3.2,29.6 9.7,37.6 1.1,1.4 2,2.7 2.8,3.9 0.7,1 1.3,2 2.1,2.8 z"
                 id="path1988" />
              <path
                 class="st2"
                 d="m 401.3,159.3 c -0.3,0.5 -0.5,1.1 -0.8,1.6 -4.2,9.5 -4.5,22.2 -4.5,37.7 v 221.6 c 0,17.6 3.2,30.4 9.7,39.3 h -66.2 c 6.3,-8.9 9.4,-21.7 9.4,-38.8 v -95.9 -10 h -10 -131.3 -10 v 10 95.5 c 0,17.5 3.1,30.4 9.4,39.3 h -66.2 c 6.5,-8.9 9.7,-21.7 9.7,-39.3 V 198.6 c 0,-15.5 -0.3,-28.1 -4.5,-37.7 -0.2,-0.6 -0.5,-1.1 -0.8,-1.6 h 57.2 c -0.3,0.7 -0.6,1.3 -0.9,2.1 -3.6,9.1 -3.9,21.2 -3.9,37.4 v 74.9 10 h 10 130.8 10 v -10 -74.9 c 0,-14.8 0,-29.1 -4.6,-39.4 h 57.5 m 29.5,-10.1 H 316.3 v 4.5 c 21.4,0 22.1,15 22.1,45 v 74.9 H 207.6 v -74.9 c 0,-30 0.9,-45 22.6,-45 v -4.5 H 115.7 v 4.4 c 23.1,0 24.7,15 24.7,44.9 v 221.6 c 0,16 -2.8,27.5 -8.5,34.4 -5.7,7 -4.8,10.6 -17.2,10.9 v 4 h 115.5 v -4 c -11.1,-0.3 -9.3,-4 -14.6,-11.1 -5.4,-7.1 -8,-18.5 -8,-34.2 v -95.5 h 131.3 v 95.9 c 0,15.4 -2.7,26.6 -8,33.8 -5.4,7.1 -3.6,10.8 -14.6,11.1 v 4 h 115 v -4 c -12.1,-0.3 -11,-3.9 -16.7,-10.9 -5.7,-7 -8.5,-18.4 -8.5,-34.4 V 198.6 c 0,-29.9 1.6,-44.9 24.7,-44.9 z"
                 id="path1990"
                 style="fill:#ffffff;fill-opacity:1" />
            </g>
          </g>
          <g
             id="g2002">
            <g
               id="path1996"
               class="st3"
               style="stroke:none">
              <path
                 style="color:#000000;fill:#000000;stroke:none;stroke-width:10;stroke-miterlimit:10;-inkscape-stroke:none"
                 d="m 286.7,496.9 c 3.9,-9.3 6.3,-22.5 6.3,-37.2 0,-28.2 -9,-51 -20,-51 -11,0 -20,22.8 -20,51 0,14.7 2.4,27.9 6.3,37.2 -3.9,2.2 -6.3,5.3 -6.3,8.8 0,6.6 9,12 20,12 11,0 20,-5.4 20,-12 0,-3.5 -2.4,-6.6 -6.3,-8.8 z"
                 id="path2668" />
              <path
                 style="color:#000000;fill:#ffffff;stroke:none;stroke-miterlimit:10;-inkscape-stroke:none"
                 d="m 273,403.69922 c -4.47727,0 -8.42481,2.36085 -11.43164,5.60351 -3.00683,3.24266 -5.37717,7.4796 -7.34766,12.49414 -3.94096,10.02909 -6.2207,23.27045 -6.2207,37.90235 0,13.47115 1.97936,25.59072 5.36523,35.28906 -3.15285,2.72781 -5.36523,6.39003 -5.36523,10.71094 0,5.57272 3.7211,10.01469 8.30273,12.76367 4.58163,2.74898 10.37909,4.23633 16.69727,4.23633 6.31818,0 12.11564,-1.48735 16.69727,-4.23633 C 294.2789,515.71391 298,511.27194 298,505.69922 c 0,-4.32091 -2.21238,-7.98313 -5.36523,-10.71094 C 296.02064,485.28994 298,473.17037 298,459.69922 c 0,-14.6319 -2.27974,-27.87326 -6.2207,-37.90235 -1.97049,-5.01454 -4.34083,-9.25148 -7.34766,-12.49414 -3.00683,-3.24266 -6.95437,-5.60351 -11.43164,-5.60351 z m 0,10 c 1.02273,0 2.32519,0.49071 4.09961,2.4043 1.77441,1.91358 3.71658,5.13915 5.37109,9.3496 3.30903,8.42091 5.5293,20.67803 5.5293,34.2461 0,14.15577 -2.37977,26.84897 -5.91016,35.26758 l -1.7207,4.10156 3.875,2.1875 c 2.9139,1.64374 3.75586,3.22907 3.75586,4.44336 0,1.02727 -0.7789,2.58648 -3.44727,4.1875 -2.66836,1.60102 -6.87092,2.8125 -11.55273,2.8125 -4.68181,0 -8.88437,-1.21148 -11.55273,-2.8125 C 258.7789,508.2857 258,506.72649 258,505.69922 c 0,-1.21429 0.84196,-2.79962 3.75586,-4.44336 l 3.875,-2.1875 -1.7207,-4.10156 C 260.37977,486.54819 258,473.85499 258,459.69922 c 0,-13.56807 2.22027,-25.82519 5.5293,-34.2461 1.65451,-4.21045 3.59668,-7.43602 5.37109,-9.3496 1.77442,-1.91359 3.07688,-2.4043 4.09961,-2.4043 z"
                 id="path2670" />
            </g>
            <g
               id="path1998"
               class="st3"
               style="fill:#ffffff;fill-opacity:1;stroke:none">
              <path
                 style="color:#000000;fill:#000000;fill-opacity:1;stroke:none;stroke-width:10;stroke-miterlimit:10;-inkscape-stroke:none"
                 d="m 273,445.30273 v 0 c -16.5,0 -30,-13.5 -30,-30 v -263 c 0,-16.5 30,-50 30,-50 v 0 c 0,0 30,33.5 30,50 v 263 c 0,16.6 -13.5,30 -30,30 z"
                 id="path2656" />
              <path
                 style="color:#000000;fill:#ffffff;fill-opacity:1;stroke:none;stroke-miterlimit:10;-inkscape-stroke:none"
                 d="m 273,87.105469 -3.72461,4.158203 c 0,0 -7.6538,8.539496 -15.33594,19.230468 -3.84106,5.34549 -7.70879,11.24035 -10.69726,17.04297 C 240.25371,133.33973 238,138.95946 238,144.59961 v 263 c 0,19.22725 15.77275,35 35,35 19.20705,0 35,-15.68918 35,-35 v -263 c 0,-5.64015 -2.25371,-11.25988 -5.24219,-17.0625 -2.98847,-5.80262 -6.8562,-11.69748 -10.69726,-17.04297 -7.68214,-10.690972 -15.33594,-19.230468 -15.33594,-19.230468 z m 0,15.197261 c 2.82126,3.34943 6.59221,7.97743 10.93945,14.02735 3.65893,5.092 7.29122,10.66591 9.92774,15.78515 2.63652,5.11925 4.13281,9.87453 4.13281,12.48438 v 263 c 0,13.88914 -11.20708,25 -25,25 -13.77271,0 -25,-11.22729 -25,-25 v -263 c 0,-2.60985 1.49629,-7.36513 4.13281,-12.48438 2.63652,-5.11924 6.26881,-10.69315 9.92774,-15.78515 4.34724,-6.04992 8.11819,-10.67792 10.93945,-14.02735 z"
                 id="path2658" />
            </g>
            <g
               id="path2000"
               class="st3">
              <path
                 style="color:#000000;fill:#000000;stroke-width:10;stroke-miterlimit:10;-inkscape-stroke:none"
                 d="m 311.5,437.6 h -77 c -8,0 -14.5,-6.5 -14.5,-14.5 v 0 c 0,-8 6.5,-14.5 14.5,-14.5 h 77 c 8,0 14.5,6.5 14.5,14.5 v 0 c 0,8 -6.5,14.5 -14.5,14.5 z"
                 id="path2662" />
              <path
                 style="color:#000000;fill:#ffffff;stroke:none;stroke-miterlimit:10;stroke-opacity:1;-inkscape-stroke:none"
                 d="m 234.5,403.59961 c -10.70832,0 -19.5,8.79168 -19.5,19.5 0,10.70832 8.79168,19.5 19.5,19.5 h 77 c 10.70832,0 19.5,-8.79168 19.5,-19.5 0,-10.70832 -8.79168,-19.5 -19.5,-19.5 z m 0,10 h 77 c 5.29166,0 9.5,4.20834 9.5,9.5 0,5.29166 -4.20834,9.5 -9.5,9.5 h -77 c -5.29166,0 -9.5,-4.20834 -9.5,-9.5 0,-5.29166 4.20834,-9.5 9.5,-9.5 z"
                 id="path2664" />
            </g>
          </g>
        </g>
      </g>
    </g>
  </g>
</svg>
