<?xml version="1.0" encoding="UTF-8" standalone="no"?>
<!-- Created with Inkscape (http://www.inkscape.org/) -->

<svg
   width="19.59407mm"
   height="9.1045904mm"
   viewBox="0 0 19.59407 9.1045904"
   version="1.1"
   id="svg4964"
   sodipodi:docname="inkporter-svg-1h6ylj2y.svg"
   xmlns:inkscape="http://www.inkscape.org/namespaces/inkscape"
   xmlns:sodipodi="http://sodipodi.sourceforge.net/DTD/sodipodi-0.dtd"
   xmlns="http://www.w3.org/2000/svg"
   xmlns:svg="http://www.w3.org/2000/svg">
  <sodipodi:namedview
     id="namedview4966"
     pagecolor="#ffffff"
     bordercolor="#666666"
     borderopacity="1.0"
     inkscape:pageshadow="2"
     inkscape:pageopacity="0.0"
     inkscape:pagecheckerboard="0"
     inkscape:document-units="mm"
     showgrid="false"
     inkscape:zoom="0.90583672"
     inkscape:cx="89.420089"
     inkscape:cy="668.44276"
     inkscape:window-width="1920"
     inkscape:window-height="1017"
     inkscape:window-x="-8"
     inkscape:window-y="-8"
     inkscape:window-maximized="1"
     inkscape:current-layer="layer1" />
  <defs
     id="defs4961" />
  <g
     inkscape:label="Layer 1"
     inkscape:groupmode="layer"
     id="layer1"
     transform="translate(-5.07362,-142.50195)">
    <path
       d="m 13.61459,143.76826 h -0.20257 v 0.0758 h 0.67938 v -0.0689 h -0.16675 l -0.0992,-0.15158 h -0.10336 z m -0.0372,-0.0744 0.0524,-0.0703 h -0.0496 v -0.14608 h -1.10106 v 0.4837 h 2.5976 v -0.30179 h -0.0372 v -0.0358 h -1.12448 l 0.0496,0.0758 h 0.20119 v 0.21911 h -0.8282 v -0.22462 z m 2.0767,0.0648 h -0.17087 v 0.20257 h 0.17087 z m 1.86587,-0.43822 h -0.0923 v 0.1695 h 0.0923 z m -0.42858,-0.19568 -0.22875,-0.19155 h -0.16399 v 0.19155 z m -0.8406,0.79237 h 0.82131 v -0.15847 h -1.26228 v 0.20257 h 0.44097 z m 0.52228,0.0992 v -0.0317 h -0.21635 l 0.011,0.0317 z m 0.37345,-0.0317 v 0.0675 l -0.11162,0.007 v 0.15709 h 0.18603 v 0.15572 h -0.18603 v 0.33487 h -0.21911 l 0.48369,1.34221 h 0.27698 l 0.073,-0.18466 h 0.41341 v -0.6339 h 0.0551 v -2.72851 h 0.073 v 2.72851 h 0.0744 v 0.70694 h 0.18465 v 0.14745 h 0.28388 l 0.35002,0.0992 0.20946,-0.30179 h 0.89159 l 1.44143,0.14745 0.18466,0.339 0.11024,-0.12953 h 0.24667 l 0.20257,0.22186 h 0.6711 v -0.27708 l 0.18466,-0.17225 h 0.19155 l 0.14745,0.20946 v 0.27561 l -0.12954,0.13091 h 0.25907 v 0.42995 h -0.20394 l 0.29627,0.63527 v 0.63252 l -0.36931,0.0565 0.0551,0.17226 h 0.14745 l 0.16674,-0.0744 0.50437,0.3142 h 0.30179 l 0.0744,0.52365 -0.30179,0.0179 h -0.78135 l 0.12816,0.22187 -0.22186,0.0179 -0.30042,-0.27699 v -0.2825 h -0.24529 c 0.0579,0.18742 0.091,0.38861 0.091,0.5967 0,1.10105 -0.89297,1.99402 -1.99402,1.99402 -0.93431,0 -1.71841,-0.64079 -1.93614,-1.50758 h -0.86403 c -0.21635,0.86679 -1.00046,1.50758 -1.93339,1.50758 -1.10243,0 -1.9954,-0.89297 -1.9954,-1.99402 0,-0.0303 10e-4,-0.062 0.003,-0.0923 h -0.4892 l -0.43133,0.0179 -0.073,0.20946 h -0.24667 l -0.27699,-0.15296 v 0.24529 h -0.37482 v 0.14883 h -0.18466 l -0.11162,-0.18466 h -0.30179 v 0.20257 l -0.27699,0.14745 h -0.26458 l -0.35009,-0.44237 h -0.18466 v 0.27699 h -0.30041 c -0.17501,0.9219 -0.98667,1.61781 -1.95957,1.61781 -0.9977,0 -1.8259,-0.73311 -1.97059,-1.69223 H 6.39654 L 5.79296,148.79396 H 5.63449 l -0.0193,0.25907 -0.12954,0.19017 -0.19017,-0.12954 0.15434,-0.0978 v -0.25907 l -0.19154,0.22186 H 5.07362 l 0.0923,-0.65319 0.19017,-0.3321 -0.006,-0.0179 0.5085,-0.3073 -0.31695,-0.44373 0.42995,-0.16675 -0.0799,-0.56086 0.26459,-0.31281 0.0923,0.16674 -0.20258,0.16537 0.0372,0.24666 h 0.36931 v -0.41203 l 0.41204,0.16537 -0.16674,0.16674 0.12953,0.20946 h 0.31971 l 0.46164,-0.27836 v -0.35553 h 0.12954 v -0.11162 H 8.0221 v 0.21773 l 0.0551,-0.0331 h 0.20258 l 0.73311,-0.76343 0.54157,-0.0427 v -0.16674 h 0.48094 v 0.12815 l 0.17087,-0.0138 v -0.13229 h 0.20395 v 0.11576 l 0.073,-0.006 0.41341,0.45062 h 0.27699 v -0.24116 l -0.18466,-0.16536 -0.339,-0.0992 -0.12953,-0.18465 0.0565,-0.20258 H 9.81349 l -0.16674,-0.0744 -3.37895,-0.062 v -0.2577 h 3.36104 l 0.20257,-0.0923 h 0.97289 l 0.12954,-0.0744 h 0.20257 l 0.11024,-0.24529 0.28388,-0.24115 0.12953,0.0193 v 0.14745 h 0.2825 l 0.20395,-0.16674 h 0.18466 v -0.48369 h -0.78776 v 0.0524 h -0.29628 v -0.22875 h 0.29628 v 0.0661 h 0.78824 v -0.113 h 0.14745 v 0.113 h 1.10105 v -0.113 h 1.45935 v -0.24667 h 0.42443 v 0.11714 h 1.16031 v -0.31419 h 0.26458 v 0.0634 l 0.29904,0.2508 h 0.24115 v 0.0524 h 0.0909 l 0.0675,-0.006 v 0.44648 l -0.15848,0.007 v 0.13366 h -0.2825 v 0.15847 h 0.0675 v 0.0675 z m 0,0"
       id="U-S-M8" />
  </g>
</svg>
