<?xml version="1.0" encoding="UTF-8" standalone="no"?>
<!-- Created with Inkscape (http://www.inkscape.org/) -->

<svg
   width="26.487314mm"
   height="10.479133mm"
   viewBox="0 0 26.487314 10.479133"
   version="1.1"
   id="svg5"
   sodipodi:docname="inkporter-svg-f1cx9_9s.svg"
   xmlns:inkscape="http://www.inkscape.org/namespaces/inkscape"
   xmlns:sodipodi="http://sodipodi.sourceforge.net/DTD/sodipodi-0.dtd"
   xmlns="http://www.w3.org/2000/svg"
   xmlns:svg="http://www.w3.org/2000/svg">
  <sodipodi:namedview
     id="namedview7"
     pagecolor="#ffffff"
     bordercolor="#666666"
     borderopacity="1.0"
     inkscape:pageshadow="2"
     inkscape:pageopacity="0.0"
     inkscape:pagecheckerboard="0"
     inkscape:document-units="mm"
     showgrid="false"
     inkscape:zoom="3.6233469"
     inkscape:cx="318.49007"
     inkscape:cy="14.489366"
     inkscape:window-width="1920"
     inkscape:window-height="1017"
     inkscape:window-x="-8"
     inkscape:window-y="-8"
     inkscape:window-maximized="1"
     inkscape:current-layer="layer1" />
  <defs
     id="defs2" />
  <g
     inkscape:label="Layer 1"
     inkscape:groupmode="layer"
     id="layer1"
     transform="translate(-71.465162,2.0683994)">
    <path
       d="m 85.60882,8.3754039 c -0.07353,-0.01081 -0.148449,-0.04292 -0.16655,-0.07136 -0.02421,-0.03804 -0.03305,-0.03699 -0.03357,0.0043 -4.17e-4,0.03693 -0.07456,0.05575 -0.219941,0.05575 -0.133678,0 -0.228047,-0.02175 -0.241761,-0.05575 -0.01796,-0.0446 -0.02316,-0.0446 -0.02603,0 -0.0039,0.07173 -0.404876,0.07735 -0.404876,0.0057 0,-0.03494 -0.01678,-0.03614 -0.05569,-0.0038 -0.07976,0.06609 -0.847893,0.06211 -0.890315,-0.0047 -0.02551,-0.04002 -0.03382,-0.03935 -0.03435,0.003 -4.16e-4,0.03608 -0.07012,0.05575 -0.197649,0.05575 -0.115814,0 -0.206225,-0.02294 -0.219459,-0.05575 -0.01794,-0.0446 -0.02316,-0.0446 -0.02603,0 -0.0052,0.07319 -0.412333,0.07505 -0.485165,0.0021 -0.04163,-0.0416 -0.05348,-0.0416 -0.05348,0 0,0.07317 -0.385721,0.07112 -0.419944,-0.0021 -0.02083,-0.0446 -0.03123,-0.0446 -0.05206,0 -0.03695,0.07911 -0.371837,0.07218 -0.402742,-0.0083 -0.01353,-0.03524 -0.05413,-0.05275 -0.09018,-0.03889 -0.103847,0.03986 -0.417564,-0.121356 -0.417564,-0.214563 0,-0.04879 -0.02342,-0.07203 -0.05894,-0.05841 -0.08667,0.03328 -0.363847,-0.222311 -0.319266,-0.294442 0.02667,-0.04307 0.0147,-0.0501 -0.04568,-0.02692 -0.09994,0.03838 -0.384679,-0.216752 -0.348141,-0.311966 0.01563,-0.040759 0.0012,-0.053435 -0.04139,-0.036986 -0.09305,0.035704 -0.416367,-0.2924207 -0.337471,-0.3424595 0.03956,-0.025101 0.02148,-0.03715 -0.0566,-0.037603 -0.132561,-8.489e-4 -0.334141,-0.1911814 -0.285589,-0.2697336 0.02251,-0.036301 0.0064,-0.044212 -0.05334,-0.025438 -0.09968,0.031632 -0.384486,-0.2310839 -0.362364,-0.3342957 0.0078,-0.035443 -0.0164,-0.057707 -0.05543,-0.051476 -0.09057,0.014461 -0.202152,-0.3722267 -0.13191,-0.4568732 0.03409,-0.041003 0.02824,-0.063722 -0.02108,-0.082655 -0.03748,-0.014378 -0.06806,-0.076528 -0.06806,-0.138145 0,-0.086143 -0.02837,-0.1181029 -0.12271,-0.1382765 -0.06741,-0.014418 -0.167733,-0.044464 -0.222854,-0.066729 l -0.100219,-0.04048 0.1123,-0.2540383 c 0.122976,-0.278062 0.152086,-0.322897 0.353365,-0.5444064 0.176335,-0.1940643 0.412606,-0.3440028 0.637504,-0.4045611 l 0.179522,-0.048343 0.03215,-0.300694 c 0.0285,-0.2672775 0.07157,-0.3646877 0.162281,-0.3669011 0.01536,-3.344e-4 0.01782,0.089631 0.0052,0.1999967 -0.02368,0.2100608 0.0026,0.2332182 0.180993,0.1626427 l 0.08056,-0.031764 -0.0907,-0.1046346 c -0.07898,-0.091062 -0.08925,-0.182319 -0.02043,-0.182319 0.0117,0 0.01046,0.019767 -0.0052,0.043918 -0.01691,0.027432 0.02642,0.033208 0.115552,0.015393 0.18711,-0.037437 0.303638,0.089553 0.193681,0.2110526 -0.103056,0.1138736 -0.04033,0.3253996 0.08628,0.2913859 0.05206,-0.013949 0.119716,-0.025661 0.150322,-0.026 0.0307,-3.382e-4 0.05569,-0.032687 0.05569,-0.071908 0,-0.039221 0.06233,-0.1295411 0.138546,-0.2007178 0.07926,-0.074029 0.128045,-0.156701 0.114121,-0.1931702 -0.01965,-0.051166 0.02421,-0.061889 0.221879,-0.054341 0.202322,0.00767 0.254475,-0.00573 0.291745,-0.075383 0.03227,-0.060392 0.03123,-0.076059 -0.0039,-0.054472 -0.02693,0.016668 -0.04905,0.019376 -0.04905,0.00598 0,-0.086755 0.372019,-0.1594194 0.870208,-0.1699739 l 0.549498,-0.011711 0.106841,0.1003406 c 0.197233,0.185139 0.480219,0.1238545 0.480219,-0.1039836 0,-0.081238 -0.116853,-0.082591 -0.147863,-0.0017 -0.05998,0.1564253 -0.602954,-0.063254 -0.875803,-0.354358 -0.169764,-0.181126 -0.20344,-0.1977328 -0.401077,-0.1977328 -0.143244,0 -0.223766,-0.02086 -0.239589,-0.062097 -0.03968,-0.1033983 -6.567049,-0.2634868 -6.629417,-0.1625918 -0.03591,0.058154 -2.2349,0.067158 -2.270945,0.00924 -0.03867,-0.062094 -0.437048,-0.024292 -0.84683,0.080316 -0.581771,0.1485401 -0.587185,0.1450918 -0.609603,-0.3885692 -0.01874,-0.4446257 0.02745,-0.4768112 0.529327,-0.3689909 0.439087,0.094329 0.894712,0.1475154 0.933294,0.1089423 0.01536,-0.015433 0.516005,-0.023579 1.112414,-0.018191 0.59641,0.00548 2.585772,0.019675 4.420818,0.031634 l 3.336433,0.021797 0.02278,-0.086833 c 0.019,-0.072741 0.0674,-0.08846 0.29786,-0.096775 0.205184,-0.00742 0.285629,-0.029083 0.316298,-0.085246 0.09811,-0.1797232 0.376757,-0.4038364 0.599299,-0.4820879 0.165613,-0.058232 0.257429,-0.1206925 0.301204,-0.2048779 0.105527,-0.2030418 0.196036,-0.1140691 0.196036,0.192767 0,0.2894563 0.05491,0.3347116 0.204923,0.1689146 0.05804,-0.064204 0.08367,-0.1551954 0.08068,-0.2877605 -0.0039,-0.2082574 0.09318,-0.3057091 0.183088,-0.1826823 0.02655,0.036215 0.119196,0.064855 0.210038,0.064855 0.08941,0 0.181747,0.011841 0.205132,0.026247 0.06011,0.03719 0.146834,-0.080873 0.162202,-0.2209707 0.0173,-0.1576978 0.102545,-0.2065278 0.291757,-0.1671202 0.08588,0.017892 0.256428,0.033378 0.379072,0.034393 l 0.222972,0.0017 0.01353,-0.2341251 c 0.0078,-0.1287734 0.03253,-0.2341286 0.0557,-0.2341286 0.04775,0 0.05413,0.041174 0.0432,0.2787217 l -0.0078,0.1672347 h 0.132235 c 0.140928,0 0.226525,-0.2058239 0.165521,-0.3980255 -0.01666,-0.052547 4.17e-4,-0.092148 0.04789,-0.1103089 0.08471,-0.03253 0.208372,0.051466 0.169151,0.1149279 -0.01444,0.023317 -0.01301,0.113015 0.0039,0.1992721 l 0.0294,0.1568364 0.09759,-0.06695 c 0.05375,-0.036812 0.09318,-0.086794 0.08783,-0.1110632 -0.0052,-0.024256 0.04229,-0.038375 0.105795,-0.031426 0.06741,0.00742 0.150296,-0.021926 0.198612,-0.070255 0.109822,-0.1098004 0.571621,-0.2627617 0.793317,-0.2627617 0.103446,0 0.206577,-0.029982 0.248945,-0.072333 0.06676,-0.066718 0.07678,-0.066303 0.129085,0.0053 0.04802,0.065666 0.07079,0.068879 0.14763,0.020857 0.07572,-0.047298 0.108397,-0.044482 0.196191,0.017007 0.0579,0.040585 0.135957,0.073461 0.173421,0.073076 0.06024,-8.49e-4 0.06038,-0.0056 0.0012,-0.043499 -0.121538,-0.077774 0.231104,-0.010147 0.388219,0.074532 0.156268,0.08415 0.179861,0.1418459 0.09343,0.2283018 -0.04164,0.04164 -0.03774,0.053522 0.01717,0.053522 0.0389,0 0.104104,0.070242 0.144805,0.1560868 0.07573,0.1597122 0.24827,0.2216747 0.24827,0.089189 0,-0.036812 0.0173,-0.066898 0.03838,-0.066898 0.09279,0 0.08861,-0.8171044 -0.0052,-1.0686072 -0.155606,-0.4164458 -0.536421,-0.583994 -0.553948,-0.2437615 -0.01718,0.3333378 -0.184911,0.3336851 -0.351096,8.48e-4 -0.07418,-0.1487252 -0.07482,-0.1477248 0.186757,-0.3293932 0.07195,-0.049951 0.07273,-0.054757 0.0052,-0.035067 -0.04268,0.012492 -0.07273,0.00299 -0.06687,-0.021031 0.01046,-0.042852 -0.426646,-0.2506682 -0.623515,-0.2965077 -0.15951,-0.037151 -0.18893,-0.1071195 -0.124141,-0.2952102 0.07625,-0.2212808 0.08381,-0.2269088 0.235359,-0.1740966 0.103191,0.035963 0.138117,0.030407 0.178353,-0.028294 0.04164,-0.060728 0.05714,-0.062686 0.092,-0.011576 0.02303,0.033794 0.06233,0.048823 0.08731,0.033379 0.0268,-0.016621 0.0367,0.0053 0.02407,0.053742 -0.02212,0.084468 0.435246,0.3053087 0.521664,0.2519021 0.02069,-0.012878 0.05401,0.00337 0.07391,0.036252 0.03722,0.061365 0.503419,0.2651195 0.575471,0.2515539 0.103446,-0.019467 0.151949,0.010283 0.151949,0.093237 0,0.057863 0.04412,0.1064697 0.12258,0.1353033 0.294554,0.1080955 1.016615,0.42156976 1.037747,0.45052806 0.02135,0.029269 0.428558,0.2157887 0.471058,0.2157887 0.01046,0 0.02055,-0.2759356 0.02303,-0.61319096 0.0026,-0.3372565 0.02055,-0.6633592 0.0402,-0.7246811 0.0212,-0.066178 0.03748,0.1932296 0.0402,0.6382878 l 0.0039,0.74977146 0.278718,0.1236855 c 0.153302,0.06803 0.42416,0.1821606 0.601899,0.2536271 0.337341,0.1356381 0.343627,0.1406507 0.287477,0.2290283 -0.02577,0.040585 -0.151155,0.00926 -0.491384,-0.122631 -0.251223,-0.097426 -0.466113,-0.1771288 -0.477551,-0.1771288 -0.01171,0 -0.02083,0.2002177 -0.02083,0.4449277 v 0.4449264 l 0.105929,0.069422 c 0.0786,0.051491 0.11347,0.1265872 0.135318,0.29089804 0.02394,0.1804947 0.04555,0.2214834 0.116984,0.2214834 0.09956,0 0.11243,-0.046573 0.03462,-0.1244531 -0.0583,-0.05831 0.192549,-0.32150524 0.306409,-0.32150524 0.147512,0 0.299005,0.26873234 0.189607,0.33634354 -0.02615,0.016201 -0.03643,0.058557 -0.02278,0.094134 0.01366,0.035577 0.0078,0.054406 -0.01171,0.041848 -0.02043,-0.012623 -0.07937,0.034392 -0.131064,0.1043609 l -0.09408,0.1272249 0.142709,-0.00638 c 0.08979,-0.00377 0.141058,0.014341 0.13826,0.049408 -0.0026,0.030658 -0.0078,0.1451329 -0.01172,0.2543858 l -0.0064,0.1986449 -0.301021,0.013196 -0.301023,0.013181 -0.02226,0.2741052 c -0.03447,0.4238515 -0.154338,0.5092433 -0.802708,0.5718119 -0.15943,0.015393 -0.430341,0.046066 -0.602043,0.068161 -0.171688,0.022096 -0.492775,0.063332 -0.713536,0.091622 -0.413751,0.053025 -0.602031,0.1293321 -0.602031,0.2440089 0,0.098077 0.179432,0.080432 0.296038,-0.029136 l 0.101109,-0.094979 1.831481,0.00833 c 1.00731,0.00455 1.936401,0.026077 2.064653,0.047835 0.128304,0.021756 0.474012,0.082981 0.768332,0.1360409 0.294333,0.053066 0.714018,0.103464 0.93263,0.112 0.218601,0.00859 0.40925,0.033795 0.423655,0.056137 0.04802,0.074445 0.601822,0.1814564 0.919994,0.1777543 0.172744,-0.00208 0.353346,0.016878 0.401359,0.041901 0.176153,0.091909 0.314094,0.1385602 0.475248,0.1607169 l 0.164982,0.022695 0.02788,-0.2086567 c 0.04215,-0.3152551 0.04264,-0.31598 0.207795,-0.2787313 0.08132,0.018362 0.167954,0.041601 0.192486,0.051712 0.04853,0.019973 0.04843,0.9114394 -1.36e-4,1.2375888 -0.02605,0.1747145 -0.03878,0.1910154 -0.131825,0.1676746 l -0.103056,-0.02587 0.0067,0.3897708 c 0.0077,0.5134239 -0.03579,0.7224541 -0.145043,0.6938807 -0.06897,-0.018058 -0.08654,0.014761 -0.112434,0.2099506 -0.02837,0.2140465 -0.03868,0.2298029 -0.137779,0.2108659 -0.06492,-0.012358 -0.116197,0.00337 -0.130369,0.040238 -0.01302,0.033379 -0.04737,0.055499 -0.07679,0.049131 -0.0299,-0.00647 -0.05508,0.038376 -0.05701,0.1020963 -0.0039,0.1459517 -0.211134,0.3935069 -0.320634,0.3841098 -0.05348,-0.00453 -0.08016,0.018058 -0.07314,0.061962 0.01431,0.089562 -0.373295,0.2877124 -0.405879,0.207478 -0.0117,-0.029511 -0.02342,-0.017557 -0.02537,0.026626 -0.0052,0.1101524 -0.312212,0.2420754 -0.366072,0.1571124 -0.0285,-0.04504 -0.0376,-0.04076 -0.03813,0.0181 -8.46e-4,0.09571 -0.321609,0.266438 -0.432905,0.230415 -0.05517,-0.01786 -0.0631,-0.0134 -0.02499,0.01416 0.06976,0.05042 -0.27229,0.211684 -0.369729,0.1743 -0.03618,-0.01387 -0.06506,4.24e-4 -0.06506,0.03227 0,0.0722 -0.289637,0.213384 -0.372513,0.18158 -0.03409,-0.01306 -0.07313,0.0053 -0.08667,0.0408 -0.03865,0.100654 -0.301557,0.216866 -0.367271,0.162329 -0.03904,-0.0324 -0.06258,-0.02591 -0.08107,0.02239 -0.02953,0.07701 -0.385682,0.09865 -0.385682,0.02345 0,-0.02451 -0.03005,-0.0446 -0.06688,-0.0446 -0.03682,0 -0.06687,0.02006 -0.06687,0.0446 0,0.06306 -0.327919,0.05561 -0.392435,-0.0089 -0.04164,-0.0416 -0.05348,-0.0416 -0.05348,0 0,0.07352 -0.387361,0.07144 -0.414362,-0.0021 -0.0164,-0.0446 -0.03227,-0.0446 -0.0795,0 -0.07521,0.07093 -0.318992,0.07233 -0.389105,0.0021 -0.04163,-0.0416 -0.06545,-0.0416 -0.106962,0 -0.0294,0.02943 -0.115683,0.05352 -0.191768,0.05352 -0.07599,0 -0.162334,-0.02409 -0.191769,-0.05352 -0.03826,-0.03834 -0.05348,-0.03915 -0.05348,-0.003 0,0.02985 -0.07339,0.04971 -0.178391,0.04826 -0.09811,-0.0013 -0.178378,-0.02086 -0.178378,-0.04337 0,-0.02298 -0.03774,-0.02069 -0.08628,0.0052 -0.112168,0.06002 -0.435299,0.05963 -0.472516,-8.48e-4 -0.01691,-0.02735 -0.05035,-0.03078 -0.08068,-0.0083 -0.05778,0.04294 -0.300984,0.04084 -0.372292,-0.0034 -0.02537,-0.0157 -0.05842,-0.0162 -0.0734,-0.0013 -0.04438,0.04439 -0.38537,0.04084 -0.400335,-0.0043 -0.0078,-0.02506 -0.03904,-0.02532 -0.07795,-8.48e-4 -0.08094,0.05124 -0.118936,0.05316 -0.298627,0.01514 -0.0799,-0.01692 -0.155034,-0.01476 -0.167109,0.0048 -0.03085,0.04987 -0.345903,0.04482 -0.408415,-0.0067 -0.03266,-0.02681 -0.06143,-0.02689 -0.07795,-1.71e-4 -0.02758,0.0445 -0.303051,0.03379 -0.381765,-0.01485 -0.02525,-0.0156 -0.04594,-0.0079 -0.04594,0.01718 0,0.02506 -0.09031,0.04379 -0.200681,0.04156 -0.110346,-0.0021 -0.200682,-0.0176 -0.200682,-0.03418 0,-0.01658 -0.112428,-0.01776 -0.249869,-0.0026 -0.183269,0.02018 -0.255724,0.01223 -0.271899,-0.02994 -0.0173,-0.04513 -0.03618,-0.04327 -0.08822,0.0087 -0.03643,0.03639 -0.08548,0.05422 -0.109177,0.03961 -0.02368,-0.01459 -0.313006,-0.02621 -0.643046,-0.02583 -0.431109,4.24e-4 -0.600457,-0.01408 -0.601432,-0.05189 -8.46e-4,-0.02897 -0.02186,-0.01752 -0.04684,0.0254 -0.02499,0.04293 -0.06948,0.07503 -0.09902,0.07136 -0.0294,-0.0038 -0.11373,-0.01552 -0.187173,-0.02634 z m 4.487715,-0.584726 c 0.03227,-0.08273 0.05375,-0.09411 0.102278,-0.05389 0.04658,0.03871 0.06688,0.0371 0.08393,-0.0067 0.01171,-0.03167 0.05856,0.03052 0.102802,0.138225 l 0.08029,0.195829 0.03435,-0.128318 c 0.02655,-0.09938 0.01046,-0.164901 -0.07313,-0.290571 -0.05908,-0.08924 -0.121018,-0.235241 -0.137805,-0.3244318 -0.04359,-0.2324717 -0.241996,-0.2780149 -0.244274,-0.056067 -4.16e-4,0.052557 -0.04047,0.1825738 -0.08874,0.2889138 -0.06416,0.14133 -0.07586,0.215526 -0.0436,0.275793 0.0242,0.04535 0.04541,0.128917 0.0471,0.185714 l 0.0026,0.103269 0.04645,-0.111492 c 0.02551,-0.06133 0.06481,-0.158688 0.08731,-0.216373 z m -6.286469,0.116854 c -0.03305,-0.03308 -0.0389,-0.0157 -0.01952,0.05849 0.01575,0.0603 0.03604,0.08052 0.04711,0.04712 0.01047,-0.03218 -0.0012,-0.0797 -0.02758,-0.105611 z m 1.484887,-0.04753 c 0.07444,-0.230021 0.304093,-0.189061 0.359698,0.06414 0.03526,0.160673 0.06884,0.136317 0.138844,-0.100953 0.04255,-0.14392 0.04061,-0.200926 -0.01046,-0.298064 -0.03449,-0.06605 -0.07508,-0.185325 -0.09018,-0.2650391 -0.04268,-0.2251951 -0.165261,-0.1905789 -0.233903,0.066082 -0.03097,0.1160591 -0.105405,0.2752671 -0.16534,0.3537891 -0.05985,0.07852 -0.108921,0.197622 -0.108921,0.264666 0,0.146549 0.04684,0.110491 0.109957,-0.08462 z m 0.915767,0.147057 c 0,-0.02455 -0.02121,-0.0446 -0.04724,-0.0446 -0.02603,0 -0.03488,0.02006 -0.01965,0.0446 0.0151,0.02451 0.03643,0.0446 0.04722,0.0446 0.01046,0 0.01965,-0.02006 0.01965,-0.0446 z m 1.497236,-0.118546 c 0.07118,-0.28092 0.328896,-0.249335 0.330509,0.0405 8.47e-4,0.16956 0.06545,0.153594 0.121799,-0.03015 0.03904,-0.12699 0.03253,-0.176534 -0.03853,-0.293251 -0.04698,-0.07724 -0.100587,-0.214181 -0.119326,-0.3043021 -0.05453,-0.2640636 -0.204077,-0.2512572 -0.272524,0.023317 -0.02928,0.1177901 -0.08303,0.2598431 -0.119196,0.3156791 -0.04412,0.06803 -0.05621,0.152621 -0.0367,0.256427 0.03734,0.199284 0.08211,0.196536 0.133899,-0.0082 z m 4.211015,0.0936 c 0,-0.03826 -0.02004,-0.05713 -0.04464,-0.04198 -0.0246,0.01514 -0.04464,0.04644 -0.04464,0.06953 0,0.02307 0.02004,0.04197 0.04464,0.04197 0.02448,0 0.04464,-0.03129 0.04464,-0.06953 z m 0.509614,-0.085 c 0.03643,-0.194335 0.103057,-0.238844 0.156869,-0.104764 l 0.04138,0.103203 0.0026,-0.105806 c 0.0039,-0.150836 0.116465,-0.0495 0.155542,0.140248 0.02447,0.118558 0.03708,0.130923 0.07209,0.07013 0.03175,-0.05532 0.0039,-0.131835 -0.11347,-0.305502 -0.08575,-0.127433 -0.155918,-0.258484 -0.155918,-0.291212 0,-0.1559457 -0.08549,-0.2809192 -0.175932,-0.257261 -0.05035,0.013197 -0.0916,0.057815 -0.0916,0.099194 0,0.041376 -0.05192,0.179367 -0.115293,0.306639 -0.06338,0.127276 -0.105138,0.256642 -0.09266,0.287479 0.01301,0.03082 0.0242,0.0066 0.02615,-0.05382 0.0052,-0.153492 0.132455,-0.02778 0.146718,0.144615 0.01417,0.172375 0.109044,0.150481 0.143438,-0.03316 z m -9.427087,-0.202245 c 0.02017,0 0.04555,0.04516 0.05647,0.100341 l 0.01977,0.100341 0.03357,-0.102162 c 0.04502,-0.136736 0.115812,-0.104466 0.181266,0.08257 l 0.0536,0.153393 0.04983,-0.125546 c 0.02745,-0.06904 0.04983,-0.144306 0.04983,-0.167234 0,-0.02294 0.02004,-0.04168 0.04464,-0.04168 0.02447,0 0.04464,0.02409 0.04464,0.05352 0,0.03931 0.01314,0.04032 0.04957,0.0038 0.05972,-0.05981 0.009,-0.160518 -0.0596,-0.118129 -0.02667,0.01645 -0.03591,0.0098 -0.02055,-0.01506 0.02525,-0.04087 -0.0268,-0.255171 -0.09955,-0.4094676 -0.07391,-0.1568636 -0.312642,-0.09373 -0.363782,0.0962 -0.02667,0.099156 -0.07873,0.2263736 -0.115683,0.2826996 -0.03695,0.05633 -0.05388,0.123855 -0.0376,0.150074 0.01627,0.02621 0.01302,0.04215 -0.0078,0.0354 -0.04528,-0.01506 -0.05972,0.02459 -0.05673,0.154983 0.0012,0.0775 0.0181,0.06229 0.0717,-0.0669 0.03813,-0.09197 0.08588,-0.167235 0.10605,-0.167235 z m 11.591627,-0.122631 -0.0012,-0.167234 -0.06168,0.111362 c -0.04333,0.07828 -0.04789,0.127953 -0.01523,0.167235 0.07027,0.08459 0.08016,0.07043 0.07846,-0.111363 z m 0.423706,-0.204365 c -0.02356,-0.1254417 -0.01046,-0.1599277 0.08276,-0.2210807 l 0.110612,-0.072468 0.120888,0.1120652 c 0.16012,0.1483867 0.172743,0.1217987 0.08211,-0.1727058 -0.09186,-0.2982422 -0.254329,-0.3536235 -0.579204,-0.197393 l -0.18448,0.088723 -0.0216,0.2254274 c -0.01575,0.1639325 -0.0039,0.2437259 0.04541,0.2925089 0.05972,0.05972 0.06364,0.05629 0.03591,-0.03117 -0.04385,-0.1383555 0.08107,-0.1303466 0.184573,0.01184 0.111125,0.152736 0.1561,0.139705 0.123228,-0.03574 z M 80.992681,7.0196298 c 4.17e-4,-0.246279 -0.449705,-0.4205224 -0.531046,-0.2055273 -0.05063,0.1336883 -0.03266,0.1436661 0.10072,0.056242 0.201631,-0.1321189 0.392671,0.038201 0.274581,0.2447908 -0.08992,0.1571758 -0.08238,0.177174 0.04425,0.1184414 0.08848,-0.041096 0.111258,-0.084555 0.111519,-0.2139408 z M 80.086245,4.008294 c -0.0164,-0.01637 -0.04307,-0.01637 -0.05946,0 -0.0164,0.016331 -0.0026,0.029721 0.02967,0.029721 0.03266,0 0.04607,-0.013403 0.02967,-0.029721 z m 1.043914,-0.071726 c -0.0052,-0.053326 -0.06663,-0.042993 -0.08588,0.014497 -0.01046,0.029434 0.0064,0.045493 0.03565,0.035668 0.0294,-0.00976 0.05206,-0.032402 0.05024,-0.050164 z m 0.02642,-0.3296355 c -0.0164,-0.01637 -0.0298,-0.00299 -0.0298,0.029721 0,0.032701 0.0134,0.046078 0.0298,0.029735 0.0164,-0.01637 0.0164,-0.043111 0,-0.059456 z m 0.282439,0.034522 c 0,-0.021886 -0.03005,-0.051374 -0.06688,-0.065493 -0.06793,-0.026077 -0.09135,0.021419 -0.03708,0.075591 0.04268,0.042616 0.104102,0.036644 0.104102,-0.010148 z m 2.619073,0.012883 c -0.01484,-0.014795 -0.05336,-0.016409 -0.08548,-0.00338 -0.03552,0.014249 -0.02499,0.024802 0.02693,0.026924 0.04697,0.00208 0.07339,-0.00859 0.05856,-0.02341 z m 9.32141,-0.00598 c -0.141031,-0.00885 -0.371811,-0.00885 -0.512841,0 -0.141032,0.00885 -0.02563,0.01611 0.256429,0.01611 0.282061,0 0.397457,-0.00729 0.256412,-0.01611 z m -4.374088,-0.041393 c -0.0164,-0.01637 -0.04307,-0.01637 -0.05947,0 -0.0164,0.016331 -0.0026,0.029721 0.02968,0.029721 0.03266,0 0.04607,-0.013403 0.02967,-0.029721 z m 1.471654,0 c -0.0164,-0.01637 -0.04307,-0.01637 -0.05947,0 -0.0164,0.016331 -0.0026,0.029721 0.02967,0.029721 0.03266,0 0.04606,-0.013403 0.0298,-0.029721 z m 0.133795,0 c -0.0164,-0.01637 -0.04307,-0.01637 -0.05946,0 -0.0164,0.016331 -0.0026,0.029721 0.0298,0.029721 0.03266,0 0.04607,-0.013403 0.02967,-0.029721 z m 0.178378,0 c -0.0164,-0.01637 -0.04307,-0.01637 -0.05947,0 -0.0164,0.016331 -0.0026,0.029721 0.02967,0.029721 0.03266,0 0.04607,-0.013403 0.02967,-0.029721 z m 0.713537,0 c -0.0164,-0.01637 -0.04307,-0.01637 -0.05947,0 -0.0164,0.016331 -0.0026,0.029721 0.0298,0.029721 0.03266,0 0.04606,-0.013403 0.02967,-0.029721 z m -6.463585,-0.04181 c -0.01483,-0.014796 -0.05335,-0.016408 -0.08548,-0.00338 -0.03553,0.014249 -0.02499,0.024802 0.02693,0.026923 0.04698,0.00208 0.07339,-0.00859 0.05856,-0.02341 z m 2.409087,-0.0056 c -0.092,-0.00963 -0.242479,-0.00963 -0.334465,0 -0.092,0.00963 -0.01666,0.017476 0.167239,0.017476 0.183961,0 0.259212,-0.00793 0.167226,-0.017476 z m -15.497,-1.3810797 c 0.05595,-0.031387 0.03735,-0.1918417 -0.02226,-0.1924911 -0.0307,-3.395e-4 -0.100853,-0.012753 -0.156086,-0.027522 -0.09056,-0.024254 -0.100331,-0.011059 -0.100331,0.1352467 v 0.1621377 l 0.122579,-0.029305 c 0.0674,-0.016109 0.137688,-0.037737 0.156086,-0.048081 z M 91.984802,1.5140803 c 0.092,0.023072 0.246733,-0.077138 0.196557,-0.1273158 -0.05608,-0.056084 -0.351134,0.093782 -0.346385,0.1759285 0.0052,0.080314 0.0078,0.081082 0.02628,0.00755 0.01548,-0.060145 0.04828,-0.075058 0.12349,-0.056175 z m 0.314335,-0.3781648 c 0.01614,-0.050905 0.01796,-0.1039325 0.0039,-0.1178427 -0.03722,-0.03719 -0.161226,0.077426 -0.161226,0.1489612 0,0.096437 0.124532,0.07179 0.157153,-0.031126 z M 88.847581,1.0166414 c 0.05543,-0.070738 0.05388,-0.072312 -0.01678,-0.016839 -0.04294,0.033663 -0.07807,0.068785 -0.07807,0.078038 0,0.036682 0.0367,0.013064 0.09485,-0.061212 z M 86.195885,0.7081881 c -0.0164,-0.016369 -0.02967,-0.00299 -0.02967,0.029721 0,0.032688 0.0134,0.046078 0.02967,0.029721 0.0164,-0.016371 0.0164,-0.043111 0,-0.059455 z m -1.391794,-0.011841 c 0.01405,-0.022864 0.0052,-0.054119 -0.01965,-0.069527 -0.02499,-0.015393 -0.04528,0.00338 -0.04528,0.04151 0,0.078336 0.02681,0.089865 0.06493,0.028029 z m 6.324126,-0.014248 c 0.05908,-0.044789 0.07508,-0.1470288 0.08133,-0.5201594 l 0.0078,-0.4644206 -0.198235,-0.077871 -0.198248,-0.077871 0.019,0.1297755 c 0.0173,0.1178299 0.0078,0.1296059 -0.108655,0.1279408 -0.223987,-0.00337 -0.529069,-0.1821695 -0.529069,-0.3103331 0,-0.1207441 -0.179795,-0.2183202 -0.61218,-0.3322304 l -0.210818,-0.055538 0.13818,0.2592638 0.138184,0.2592588 -0.02055,0.4251778 c -0.01536,0.3169613 -0.0064,0.4251798 0.03396,0.4251798 0.03005,0 0.06429,0.0371 0.07612,0.082423 0.02499,0.095318 0.292837,0.1665686 0.362896,0.096515 0.06351,-0.063528 0.174397,-0.056163 0.323235,0.021458 0.155346,0.081017 0.595734,0.088239 0.697128,0.011451 z M 91.45818,0.5743282 c -0.0164,-0.016331 -0.02967,-0.00299 -0.02967,0.029721 0,0.032688 0.0134,0.046078 0.02967,0.02972 0.0164,-0.01637 0.0164,-0.043111 0,-0.059468 z m -4.236598,-0.089188 c -0.0164,-0.016331 -0.04307,-0.016331 -0.05947,0 -0.0164,0.016369 -0.0026,0.02972 0.02967,0.02972 0.03266,0 0.04606,-0.013403 0.0298,-0.02972 z m 0.516564,1.692e-4 c -0.0307,-0.012362 -0.08081,-0.012362 -0.111518,0 -0.0307,0.012362 -0.0052,0.022472 0.0557,0.022472 0.06129,0 0.08641,-0.010148 0.05569,-0.022472 z m 3.676441,-0.1822971 c -0.0117,-0.042928 -0.02043,-0.0078 -0.02043,0.078037 0,0.085845 0.009,0.1209657 0.02043,0.07805 0.01171,-0.042928 0.01171,-0.113158 0,-0.156087 z m 0.05778,-0.312168 c -3.51e-4,-0.1199637 -0.01588,-0.1879111 -0.03565,-0.156679 -0.03345,0.052731 -0.01717,0.3685076 0.019,0.3685076 0.009,0 0.01704,-0.095322 0.01678,-0.2118286 z m -0.757452,-0.3667704 c 0,-0.067779 -0.243794,-0.1771904 -0.307334,-0.1379148 -0.03865,0.023876 -0.0026,0.057728 0.11412,0.1059367 0.209348,0.086765 0.193214,0.084092 0.193214,0.031969 z m -2.140584,-0.4471015 c 0,-0.049557 -0.0298,-0.089185 -0.06687,-0.089185 -0.06793,0 -0.09148,0.094338 -0.03708,0.1486528 0.0566,0.05654 0.104104,0.029385 0.104104,-0.059464 z m -0.713537,-0.8473195 c 0,-0.024513 -0.02004,-0.044598 -0.04464,-0.044598 -0.02447,0 -0.04464,0.020056 -0.04464,0.044598 0,0.024513 0.02004,0.044598 0.04464,0.044598 0.02447,0 0.04464,-0.020056 0.04464,-0.044598 z m 0.06493,-0.1752995 c 0.01417,-0.022814 0.0052,-0.054119 -0.01965,-0.069526 -0.02499,-0.015397 -0.04528,0.00337 -0.04528,0.041511 0,0.078334 0.0268,0.089861 0.06493,0.028025 z"
       id="U-S-Pershing" />
  </g>
</svg>
