<?xml version="1.0" encoding="UTF-8" standalone="no"?>
<!-- Created with Inkscape (http://www.inkscape.org/) -->

<svg
   width="11.471287mm"
   height="6.1383834mm"
   viewBox="0 0 11.471287 6.1383834"
   version="1.1"
   id="svg5570"
   sodipodi:docname="inkporter-svg-zgdocm6i.svg"
   xmlns:inkscape="http://www.inkscape.org/namespaces/inkscape"
   xmlns:sodipodi="http://sodipodi.sourceforge.net/DTD/sodipodi-0.dtd"
   xmlns="http://www.w3.org/2000/svg"
   xmlns:svg="http://www.w3.org/2000/svg">
  <sodipodi:namedview
     id="namedview5572"
     pagecolor="#ffffff"
     bordercolor="#666666"
     borderopacity="1.0"
     inkscape:pageshadow="2"
     inkscape:pageopacity="0.0"
     inkscape:pagecheckerboard="0"
     inkscape:document-units="mm"
     showgrid="false"
     inkscape:zoom="1.2810466"
     inkscape:cx="526.13231"
     inkscape:cy="1810.6289"
     inkscape:window-width="2400"
     inkscape:window-height="1271"
     inkscape:window-x="-9"
     inkscape:window-y="-9"
     inkscape:window-maximized="1"
     inkscape:current-layer="layer1"
     inkscape:snap-bbox="true"
     inkscape:snap-nodes="false"
     inkscape:snap-others="false"
     inkscape:bbox-paths="true"
     inkscape:bbox-nodes="true" />
  <defs
     id="defs5567" />
  <g
     inkscape:label="Layer 1"
     inkscape:groupmode="layer"
     id="layer1"
     transform="translate(-175.89003,-438.38488)">
    <path
       id="U-S-Jeep-60mm"
       d="m 186.2231,438.38488 -0.0729,0.0346 -0.0594,0.0481 -0.0538,0.0579 -0.0842,0.10078 -0.0563,0.0827 -0.0966,0.0372 -0.091,0.0672 -0.15142,0.0455 -0.1819,0.0455 -0.18084,0.0677 -0.13489,0.0677 -0.23151,0.10025 -0.13488,0.0511 -0.19844,0.014 0.0233,-0.0207 0.0248,-0.10747 0.015,-0.0413 0.0439,-0.0248 0.0207,-0.004 -0.0646,-0.15452 0.17931,-0.0372 c 0.0102,0 0.0186,-0.002 0.0207,-0.003 0,0 -5.3e-4,-5.1e-4 -5.3e-4,-5.1e-4 h -0.03 l -0.0263,-0.0124 -0.0341,-0.0207 -0.0196,-0.032 -0.005,-0.0274 -0.014,-0.0661 -0.0222,-0.0605 -0.0341,-0.0636 c 0,0 -0.006,-0.022 -0.047,-0.0537 -0.0412,-0.0304 -0.0301,-0.0203 -0.0481,-0.0341 -0.0179,-0.0138 -0.0775,-0.0331 -0.0775,-0.0331 l -0.0589,-0.0114 -0.0651,-0.008 -0.062,0.006 -0.048,0.005 -0.0563,0.014 c 0,0 -0.0416,0.0171 -0.0496,0.0202 -0.008,0.003 -0.0444,0.0305 -0.0444,0.0305 l -0.0274,0.0294 c 0,0 -0.0247,0.0293 -0.0398,0.0486 -0.0139,0.0179 -0.0305,0.0548 -0.0305,0.0548 0,0 -0.007,0.0279 -0.0114,0.0403 -0.005,0.0124 -0.005,0.0109 -0.005,0.0315 -0.003,0.0193 -0.003,0.047 -0.003,0.047 v 0.0398 l 0.008,0.0512 c 0,0 0.009,0.0431 0.0124,0.0481 0.004,0.006 0.007,0.009 0.004,0.0279 -0.003,0.0206 -0.0165,0.0341 -0.0165,0.0341 l 0.0444,0.0109 0.0181,0.0445 -0.0801,0.0755 0.01,0.006 h -0.13074 l -0.21497,0.14883 -0.10181,-0.0207 -0.0579,-0.0951 -0.15867,-0.0372 -0.20669,0.0935 -0.21497,0.21756 c -0.004,-0.006 -0.008,-0.0122 -0.0129,-0.0181 -0.0193,-0.0262 -0.048,-0.0458 -0.077,-0.061 -0.004,-0.004 -0.01,-0.0113 -0.01,-0.0113 l -0.0289,-0.0285 c 0,0 -0.0349,-0.0303 -0.0444,-0.0331 -0.008,-0.003 -0.0496,-0.0212 -0.0496,-0.0212 l -0.0579,-0.0135 -0.0496,-0.007 -0.062,-0.006 -0.0656,0.01 -0.061,0.0109 c 0,0 -0.0606,0.0193 -0.0786,0.0346 -0.0193,0.0138 -0.008,0.004 -0.0496,0.0357 -0.0413,0.0317 -0.0414,0.032 -0.047,0.0568 l -0.0357,0.0661 -0.0217,0.0615 -0.0145,0.0677 -0.007,0.029 -0.0191,0.0331 -0.0346,0.0222 -0.0274,0.0124 h -0.0305 c 0.003,0 0.0112,0.004 0.0207,0.004 l 0.15711,0.0331 -0.007,0.007 0.0259,0.0155 -0.0589,0.14471 0.0207,0.003 0.0455,0.0263 0.0155,0.0439 0.0248,0.11163 0.029,0.0263 0.0263,0.004 0.048,0.003 0.0398,-0.0196 h 0.007 l 0.047,0.0868 0.0537,0.0196 0.0103,0.0217 -0.0289,0.11162 -0.0579,0.0811 -0.0289,0.15864 -0.27028,-0.016 -0.1483,-0.0827 -0.14882,-0.0646 -0.0925,-0.0946 c 0,0 -0.0605,-0.0934 -0.0977,-0.11679 -0.0372,-0.0233 -0.0372,-0.0236 -0.17777,-0.047 l -0.0289,-0.0703 -0.0569,-0.093 -0.0109,0.0842 c -0.13054,-0.12623 -0.17033,-0.14531 -0.18706,-0.10179 -0.006,0.0161 0.0468,0.0791 0.17362,0.20826 l -0.0393,0.31263 0.0687,0.0294 0.17208,0.0103 -0.41031,0.41032 c -0.22556,0.22566 -0.41413,0.40542 -0.42013,0.39944 -0.006,-0.006 -0.0119,-0.10184 -0.014,-0.21288 -0.003,-0.19077 2e-5,-0.2159 0.0589,-0.45993 0.034,-0.14211 0.0615,-0.26217 0.0615,-0.26717 0,-0.005 0.0184,-0.004 0.0413,0 l 0.0419,0.009 0.0568,-0.24392 c 0.0316,-0.13396 0.0744,-0.31496 0.0951,-0.40256 0.0318,-0.13425 0.0434,-0.16204 0.0734,-0.17571 0.0514,-0.0236 0.0451,-0.0717 -0.0181,-0.1297 l -0.0548,-0.0501 0.0491,-0.21395 c 0.0268,-0.11771 0.0492,-0.21995 0.0501,-0.22894 0,-0.008 -0.0143,-0.015 -0.0346,-0.015 l 0.002,0.003 c -0.0365,0 -0.0396,0.0103 -0.26405,0.9648 -0.12481,0.53073 -0.23173,0.98354 -0.23773,1.00613 -0.0209,0.0788 -0.0372,0.0406 -0.0372,-0.0858 0,-0.11817 0.003,-0.12714 0.03,-0.12714 0.0292,0 0.0307,-0.008 0.0268,-0.22788 -0.004,-0.20328 -0.007,-0.22807 -0.0305,-0.23307 -0.0212,-0.004 -0.0258,0.006 -0.0258,0.0563 0,0.0516 -0.006,0.0634 -0.0377,0.0755 l -0.0372,0.0139 v 0.27337 0.27389 h -1.57043 -1.56994 l -0.005,-0.0388 c -0.004,-0.0379 -0.008,-0.0388 -0.10957,-0.0388 -0.10245,0 -0.10456,5e-5 -0.10956,0.0413 -0.005,0.0392 -0.008,0.0403 -0.0858,0.0403 h -0.0811 v 0.27543 c 0,0.26247 5e-5,0.27519 0.0294,0.28319 0.0369,0.01 0.0389,0.0496 0.008,0.15142 -0.0298,0.0983 -0.0298,0.38332 0,0.48162 0.041,0.13512 0.0332,0.16674 -0.0682,0.27543 -0.0499,0.0535 -0.12102,0.14192 -0.15761,0.1974 l -0.0667,0.10182 h -0.2899 c -0.15957,0 -0.29208,-0.006 -0.29507,-0.0134 -0.003,-0.007 -0.0437,-0.0161 -0.0909,-0.0212 l -0.0863,-0.008 v 0.20103 0.20103 h 0.0837 c 0.0711,0 0.0845,-0.005 0.0915,-0.03 0.005,-0.019 0.0204,-0.03 0.0419,-0.03 0.0281,0 0.0348,0.01 0.0408,0.0563 0.004,0.0309 0.003,0.058 -0.006,0.061 -0.0395,0.0156 -0.0583,0.0552 -0.0543,0.11266 0.004,0.0576 0.008,0.0613 0.0569,0.0703 0.056,0.01 0.17171,0.0639 0.18656,0.0879 0.005,0.008 0.0483,0.022 0.0966,0.032 l 0.0878,0.0171 0.0104,0.0697 c 0.0167,0.11205 0.0806,0.30104 0.13695,0.40462 0.19108,0.35177 0.52046,0.59302 0.91,0.66665 h -0.003 c 0.66651,0.12591 1.33213,-0.30242 1.49244,-0.96068 0.0177,-0.0721 0.0401,-0.1361 0.048,-0.1421 0.009,-0.006 0.0364,-0.007 0.062,-0.003 0.0342,0.006 0.0488,0.003 0.0558,-0.015 0.005,-0.013 0.0257,-0.0238 0.046,-0.0238 0.0291,0 0.0373,0.009 0.0413,0.0413 0.004,0.0342 0.0122,0.0408 0.0501,0.0408 0.0417,0 0.0446,-0.003 0.0496,-0.0661 0.003,-0.0468 0.0151,-0.0764 0.0403,-0.0997 0.0196,-0.0183 0.04,-0.0496 0.045,-0.0692 l 0.009,-0.0357 1.05421,-0.0186 c 0.57973,-0.01 1.06423,-0.0221 1.07643,-0.0269 0.0154,-0.006 0.0222,0.003 0.0222,0.0238 v 0.032 l 0.34779,-0.008 c 0.1913,-0.005 0.47723,-0.0118 0.63561,-0.0165 0.2563,-0.007 0.28784,-0.005 0.28784,0.016 0,0.013 0.0169,0.0403 0.0372,0.0605 0.0354,0.036 0.0439,0.0365 0.24286,0.0367 0.26842,0 0.27014,2e-5 0.28165,0.0873 0.0283,0.21249 0.11732,0.45223 0.22788,0.61392 0.0691,0.10102 0.23927,0.26596 0.35193,0.34105 0.22397,0.14914 0.5072,0.22531 0.78134,0.20931 0.18386,-0.0106 0.30689,-0.0409 0.46508,-0.11422 0.16434,-0.0761 0.27858,-0.15658 0.39688,-0.27956 0.21497,-0.2235 0.30681,-0.42535 0.36742,-0.80563 0.0119,-0.0742 0.013,-0.0742 0.0749,-0.0832 0.0617,-0.008 0.11237,-0.0489 0.13177,-0.10594 0.006,-0.019 0.0365,-0.0263 0.12816,-0.0351 0.10292,-0.009 0.12343,-0.0159 0.14314,-0.046 0.0265,-0.0405 0.0165,-0.0895 -0.0233,-0.1106 -0.023,-0.0122 -0.025,-0.0217 -0.0113,-0.0656 0.0156,-0.0498 0.0188,-0.051 0.1142,-0.0599 0.0538,-0.005 0.16158,-0.01 0.23979,-0.0104 0.0782,0 0.16756,-0.005 0.19844,-0.01 l 0.0563,-0.009 v -0.17568 -0.17521 l 0.0822,-0.078 c 0.0994,-0.0939 0.10811,-0.13589 0.0279,-0.13589 h -0.0548 l 0.0506,-0.0341 c 0.071,-0.0478 0.094,-0.10383 0.091,-0.2227 -0.003,-0.055 0.003,-0.10457 0.0124,-0.10957 0.0183,-0.0116 0.0196,-0.20592 0,-0.22532 -0.008,-0.008 -0.0209,-0.41164 -0.031,-0.89709 -0.019,-0.97912 -0.0164,-0.95197 -0.12041,-1.02217 -0.0489,-0.033 -0.0629,-0.0349 -0.21653,-0.0289 -0.18579,0.007 -0.24469,0.0283 -0.29351,0.10594 -0.0286,0.0451 -0.0302,0.0682 -0.0253,0.40669 l 0.005,0.35917 -0.10178,0.005 -0.10128,0.005 0.005,-0.20619 0.005,-0.20619 -0.0418,-0.005 c -0.0225,-0.003 -0.0408,0.003 -0.0408,0.0113 0,0.008 -0.0122,0.016 -0.0274,0.016 -0.0151,0 -0.0402,0.0143 -0.0558,0.0315 -0.023,0.0257 -0.0286,0.0601 -0.0336,0.19275 l -0.006,0.16174 -0.1819,0.009 c -0.0281,0.001 -0.14748,0.005 -0.23307,0.007 l -0.004,-0.11988 -0.12297,-0.0289 -0.0357,-0.0522 0.0124,-0.0651 -0.0703,-0.006 0.0181,-0.1819 0.0346,-0.0222 v -0.0481 l 0.0284,-0.0109 -0.0109,-0.0992 h -0.0357 l -0.0165,-0.0346 h -0.0357 l 0.19278,-0.47439 -0.2217,-0.10438 -0.23463,0.57152 -0.0703,0.0181 -0.0522,0.0181 v 0.0636 l 0.047,0.0356 0.0176,0.029 -0.23204,0.53072 c -0.0462,9.8e-4 -0.0825,0.002 -0.12916,0.003 -0.12581,0.003 -0.19807,0.004 -0.29353,0.006 l -0.016,-0.016 -0.71673,-0.016 0.15709,-0.2553 -0.0801,-0.0894 0.18912,-0.27697 0.0258,-0.0481 0.0305,-0.0512 0.0512,-0.0646 0.0109,-0.0207 0.15139,-0.047 0.23151,-0.0563 0.21913,-0.0791 0.18087,-0.0728 0.11832,-0.062 0.16952,-0.0966 0.11832,-0.0728 0.0967,-0.0796 0.062,-0.0496 0.0165,-0.062 0.0563,-0.062 h 0.0786 l 0.0124,-0.006 -0.0837,0.0977 0.092,0.0692 0.047,-0.1421 0.0966,-0.0315 0.0341,-0.0388 0.0336,-0.0563 0.0398,-0.0455 0.0512,-0.0568 0.005,-0.063 0.0553,-0.10388 0.0233,-0.0687 0.0232,-0.10337 z m -1.86811,0.81854 h 0.0232 l 0.007,0.003 z m 1.09503,1.12189 0.13488,0.006 0.0181,0.0465 -0.0413,0.0527 -0.0181,0.14573 -0.007,0.006 c -0.0608,0.002 -0.13163,0.003 -0.19793,0.005 z m -3.90983,0.21497 0.0331,0.0512 0.15552,0.18706 0.12663,0.11732 -0.076,0.0408 -0.0677,0.0346 -0.31679,0.3116 -0.0796,0.063 -0.0165,0.0305 0.005,0.11163 -0.0233,0.0289 -0.0455,0.0522 -0.0656,0.0491 c 0.035,-0.0982 0.0688,-0.18684 0.078,-0.1969 0.0351,-0.0378 0.0355,-0.0571 0.004,-0.0889 -0.0159,-0.0159 -0.0368,-0.0218 -0.0599,-0.016 -0.0225,0.006 -0.0445,6e-5 -0.0589,-0.0139 -0.0301,-0.0299 -0.0444,-0.0283 -0.0801,0.007 -0.0251,0.0249 -0.0271,0.0354 -0.0129,0.0667 0.0119,0.0262 0.008,0.0817 -0.0155,0.23204 l -0.0563,-0.0315 -0.0672,-0.0682 v -0.10697 l 0.16745,-0.19172 c 0.0919,-0.10549 0.18587,-0.19978 0.20876,-0.20981 0.023,-0.01 0.0456,-0.0312 0.0496,-0.0476 0.01,-0.0385 -0.0274,-0.0915 -0.0646,-0.0915 -0.0161,0 -0.03,-0.004 -0.03,-0.0103 0,-0.006 0.0723,-0.0837 0.16071,-0.17312 0.0775,-0.078 0.11924,-0.11745 0.14729,-0.13748 z m 5.03224,0.0967 c 0.10173,0 0.10438,0 0.10438,0.0372 0,0.0365 -0.003,0.0377 -0.10438,0.0377 -0.10173,0 -0.10491,-0.003 -0.10491,-0.0377 0,-0.0365 0.003,-0.0372 0.10491,-0.0372 z m -0.41444,0.0145 h 5e-4 c 0.099,2e-5 0.0997,0.007 0.0997,0.0268 0,0.0304 -0.0159,0.0401 -0.34417,0.0496 l -0.0227,-0.0713 c 0.12518,-0.003 0.21328,-0.005 0.26665,-0.005 z m -0.678,0.0145 -0.0119,0.046 0.0212,0.0258 c -0.0633,0.001 -0.099,0.002 -0.17362,0.004 -0.0148,3.2e-4 -0.029,7.2e-4 -0.0439,10e-4 l 0.031,-0.0723 c 0.0636,-10e-4 0.11991,-0.003 0.17724,-0.004 z m -0.4563,0.0103 -0.031,0.0718 c -0.0754,0.002 -0.15144,0.003 -0.22222,0.005 l 0.001,-0.0181 -0.0517,-0.0517 c 0.10864,-0.002 0.1882,-0.004 0.30387,-0.007 z m 1.5384,0.11007 h 10e-4 0.10853 l 0.0103,0.13694 c 0.005,0.0753 0.0103,0.18661 0.0103,0.24702 v 0.11007 h -0.0449 -0.045 v -0.20979 -0.20931 h -0.0744 c -0.0698,0 -0.0749,-0.003 -0.0749,-0.0372 0,-0.0364 0.003,-0.0377 0.10904,-0.0377 z m -0.3116,0.008 0.005,0.0336 c 0.003,0.0185 -0.004,0.0358 -0.015,0.0398 -0.009,0.002 -0.12621,0.007 -0.26718,0.0103 l -0.0258,-0.0434 -0.0114,-0.0367 z m -0.56637,0.008 0.0284,0.0801 c -0.10192,8.5e-4 -0.1627,-1.6e-4 -0.19122,-0.005 l 0.0295,-0.0697 c 0.034,-0.002 0.0786,-0.004 0.13332,-0.006 z m -0.27802,0.0139 -0.0233,0.0351 c -0.0173,0.0263 -0.0258,0.0335 -0.17468,0.0393 l 0.031,-0.0729 z m 0.0599,0.002 -0.007,0.017 c -0.0123,-0.007 -0.01,-0.0124 0.007,-0.017 z m -0.50591,0.004 -0.0336,0.0765 c -0.0425,10e-4 -0.11282,0.002 -0.1659,0.004 l 0.005,-0.076 c 0.0812,-0.002 0.12951,-0.003 0.19428,-0.004 z m 0.82373,0.047 h 0.10491 l 0.006,0.0109 c -0.011,2.6e-4 -0.0182,2.9e-4 -0.0294,5.3e-4 -0.0308,5.5e-4 -0.0513,6.6e-4 -0.0775,0.001 z m -4.61108,0.0372 h 0.002 c 0.0439,0 -0.0111,0.0868 -0.17156,0.27127 l -0.18243,0.21035 -0.003,0.0594 -0.0527,-0.0336 c -0.0662,-0.003 -0.066,-0.003 -0.0687,0.0124 -0.003,0.0137 -0.008,0.008 -0.008,0.0496 0,0.0413 0.008,0.0621 0.0165,0.0966 0.008,0.0358 0.0455,0.1323 0.0455,0.1323 l 0.0553,0.0972 -0.003,0.0491 -0.0393,-0.0424 c -0.0681,-0.0727 -0.1328,-0.24024 -0.1328,-0.34467 0,-0.0238 0.51877,-0.55758 0.54208,-0.55758 z m 0.84802,0.0542 0.19531,0.0109 0.15039,-0.0109 c 0.0249,0.12817 0.0249,0.12817 0.0455,0.16952 0.0206,0.0413 0.0206,0.0411 0.0744,0.12245 l 0.006,0.11163 -0.0119,0.0594 -0.0579,-0.0181 z m -0.88368,0.44289 h 5.3e-4 c 0.0106,-0.004 0.0186,0.008 0.0186,0.0294 0,0.0196 -0.0198,0.0927 -0.0439,0.16227 -0.005,0.0143 -0.008,0.0217 -0.0119,0.0325 l -0.0201,-0.003 c 0.0161,-0.12438 0.0389,-0.21458 0.0568,-0.22117 z m 5.47253,0.45268 h 0.045 0.0444 l 0.008,0.13282 c 0.008,0.12964 0.009,0.13311 0.0636,0.18293 l 0.0558,0.0511 h -0.11266 -0.11213 l 0.004,-0.18343 0.002,-0.0656 h 0.0889 l -0.006,-0.0879 -0.0811,-0.007 z m -4.8333,0.0589 -5e-4,5e-4 c 0.0119,0 0.0198,1.3e-4 0.0268,0 l -0.006,0.0382 h -0.10647 c 0.0172,-0.0132 0.055,-0.0387 0.0858,-0.0387 z m 5.26222,0.38187 -0.0109,0.0341 c -0.006,0.0185 -0.0233,0.059 -0.0388,0.0899 l -0.0284,0.0558 h -0.17261 c -0.19243,0 -0.19143,0 -0.18344,-0.10644 l 0.005,-0.0657 0.21447,-0.004 z m -1.00407,0.50282 -5.3e-4,5.3e-4 c 0.009,-6e-5 0.0241,0.003 0.047,0.007 0.0357,0.006 0.10695,0.0126 0.15865,0.0129 0.0893,0 0.0972,0.004 0.14986,0.0584 0.0504,0.0524 0.0541,0.0622 0.0413,0.10441 -0.008,0.0254 -0.0225,0.0492 -0.0315,0.0532 -0.01,0.004 -0.0845,0.0107 -0.16693,0.0165 l -0.14986,0.0114 -0.0243,-0.10284 c -0.0132,-0.0564 -0.0281,-0.11727 -0.0331,-0.13486 -0.006,-0.019 -0.006,-0.0266 0.009,-0.0269 z" />
  </g>
</svg>
