<?xml version="1.0" encoding="UTF-8" standalone="no"?>
<!-- Created with Inkscape (http://www.inkscape.org/) -->

<svg
   width="17.76713mm"
   height="7.3796mm"
   viewBox="0 0 17.76713 7.3796"
   version="1.1"
   id="svg4964"
   sodipodi:docname="inkporter-svg-jtwk_lcr.svg"
   xmlns:inkscape="http://www.inkscape.org/namespaces/inkscape"
   xmlns:sodipodi="http://sodipodi.sourceforge.net/DTD/sodipodi-0.dtd"
   xmlns="http://www.w3.org/2000/svg"
   xmlns:svg="http://www.w3.org/2000/svg">
  <sodipodi:namedview
     id="namedview4966"
     pagecolor="#ffffff"
     bordercolor="#666666"
     borderopacity="1.0"
     inkscape:pageshadow="2"
     inkscape:pageopacity="0.0"
     inkscape:pagecheckerboard="0"
     inkscape:document-units="mm"
     showgrid="false"
     inkscape:zoom="0.64052329"
     inkscape:cx="135.04583"
     inkscape:cy="561.25984"
     inkscape:window-width="1920"
     inkscape:window-height="1017"
     inkscape:window-x="-8"
     inkscape:window-y="-8"
     inkscape:window-maximized="1"
     inkscape:current-layer="layer1" />
  <defs
     id="defs4961" />
  <g
     inkscape:label="Layer 1"
     inkscape:groupmode="layer"
     id="layer1"
     transform="translate(-77.03577,-120.73317)">
    <path
       d="m 94.78915,124.1978 v -1.6123 h -0.72761 v -0.003 l -6.2494,0.001 v -0.76895 h -2.59898 v -0.35691 h 1.54754 v -0.10197 l 0.12678,-0.006 v -0.34175 l -0.0538,0.005 h -0.073 v -0.04 h -0.19155 l -0.23702,-0.19155 v -0.0482 h -0.21222 v 0.23978 h -0.92191 v -0.0896 h -0.33762 v 0.18741 h -1.16031 v 0.0868 H 82.0781 v -0.051 h -0.23702 v 0.17501 h 0.23702 v -0.04 h 1.62195 v 0.11163 h 0.0372 l -0.0413,0.0524 H 83.5044 v 0.17229 h 0.66008 v -0.16674 h -0.15985 l -0.04,-0.0579 h 0.89572 v 0.0275 h 0.0289 v 0.43271 h -0.27147 v 0.74827 l -0.0372,0.073 H 83.6132 l 0.0468,0.0841 v 0.94533 l -3.78272,0.42444 -0.15571,-0.0496 -0.14883,-0.0482 -0.13091,-0.006 -0.006,0.23427 -0.28249,0.54432 -0.18604,0.17915 -0.10473,0.12402 0.0923,0.13092 -0.10473,0.20808 h -0.3266 v -0.0703 l -0.14194,-0.0413 -0.15572,-0.007 -0.0124,-0.0648 0.0937,-0.0965 h 0.0923 l -0.0923,-0.0827 -0.17501,-0.006 -0.0496,0.0951 -0.005,0.1006 v 0.0606 l -0.23289,-0.0785 -0.19706,0.26458 c -0.0386,-0.008 -0.0786,-0.0138 -0.11989,-0.0138 -0.27147,0 -0.49196,0.21084 -0.49196,0.47129 0,0.26045 0.22049,0.47129 0.49196,0.47129 0.27148,0 0.49196,-0.21084 0.49058,-0.4892 l 0.15296,-0.11851 0.30868,0.53881 -0.0303,-0.15434 0.0124,-0.14607 0.26045,0.0951 c -0.0648,0.16123 -0.1006,0.33624 -0.1006,0.51952 0,0.80615 0.68213,1.45934 1.52136,1.45934 0.7717,0 1.40973,-0.55121 1.50757,-1.26366 h 1.38079 v -0.34175 h 3.02204 l 0.37896,-0.0744 0.0634,0.17501 0.24943,0.339 1.73357,0.99907 0.11713,0.0717 3.79649,0.0124 0.16261,-0.0469 1.64952,-1.16721 0.1378,-0.30316 0.007,-0.39964 0.0868,-0.051 0.0372,-0.0772 0.0124,-0.0593 v -0.0951 l 0.11851,-0.0482 0.0427,1.11896 v -1.73357 h 0.15572 v -0.97289 z m -8.02845,-3.0744 h 0.073 v 0.12954 h -0.073 z m -0.58016,-0.2949 h 0.12954 l 0.18328,0.14608 h -0.31282 z m -2.20761,0.64217 h 0.13229 v 0.0524 h -0.54019 v -0.0579 h 0.16123 l 0.0854,-0.11025 h 0.0827 z m 0.11162,2.14698 -0.33624,0.0386 v -0.93569 h 0.78961 z m 4.86171,4.18786 c 0.13505,-0.0551 0.2384,-0.1695 0.27424,-0.31006 h 0.16398 c 0.0358,0.14745 0.14745,0.26596 0.29352,0.31833 z m 0.44925,-0.56086 -0.19017,-0.01 c -0.0661,-0.17226 -0.23978,-0.29628 -0.44235,-0.29628 -0.26045,0 -0.47129,0.20119 -0.47129,0.45062 0,0.10473 0.0372,0.20119 0.0992,0.27698 l -1.05144,-0.62976 c 0.04,0.007 0.0813,0.01 0.12403,0.01 0.42994,0 0.77859,-0.33348 0.77859,-0.74689 l -0.006,-0.0827 0.47129,0.0965 1.11346,0.0193 0.0524,0.0565 h 0.0772 l 0.32797,0.58015 -0.19155,0.0358 c -0.0703,-0.0427 -0.15572,-0.0661 -0.24529,-0.0661 -0.2067,0 -0.38172,0.12816 -0.44648,0.30592 m 0.60082,0.57189 c 0.18466,-0.062 0.31695,-0.22876 0.31695,-0.42719 l 0.0537,-0.0565 0.0854,-0.0951 v -0.16674 h 0.11851 v 0.15985 l 0.11438,0.10197 0.0565,0.0565 c 0,0.21221 0.15296,0.38998 0.35829,0.43959 z m 1.32016,0.0138 c 0.17501,-0.0372 0.31282,-0.16812 0.35416,-0.33486 h 0.14331 c 0.0469,0.18879 0.21635,0.32935 0.42168,0.34451 z m 1.35875,-0.20946 c 0.0427,-0.0675 0.0675,-0.14607 0.0675,-0.23151 0,-0.24942 -0.21222,-0.45062 -0.47129,-0.45062 -0.22049,0 -0.40514,0.14469 -0.45613,0.34038 h -0.14607 c -0.051,-0.19569 -0.23565,-0.34038 -0.45613,-0.34038 -0.0923,0 -0.17777,0.0248 -0.2508,0.0689 l -0.17777,-0.0317 0.34864,-0.60357 h 0.38723 l 0.18604,0.38033 v 0.16399 h 0.21084 v -0.22324 l 0.0689,0.16812 0.80615,-0.13918 -0.0276,-0.36932 c 0.0303,0.34451 0.33211,0.61598 0.69867,0.61598 0.073,0 0.14193,-0.011 0.2067,-0.0303 z m 0,0"
       id="U-S-M3-050" />
  </g>
</svg>
