<?xml version="1.0" encoding="UTF-8" standalone="no"?>
<!-- Created with Inkscape (http://www.inkscape.org/) -->

<svg
   width="19.632013mm"
   height="8.214241mm"
   viewBox="0 0 19.632013 8.214241"
   version="1.1"
   id="svg5671"
   inkscape:version="1.1.1 (3bf5ae0d25, 2021-09-20)"
   sodipodi:docname="U-S-Softskin.svg"
   xmlns:inkscape="http://www.inkscape.org/namespaces/inkscape"
   xmlns:sodipodi="http://sodipodi.sourceforge.net/DTD/sodipodi-0.dtd"
   xmlns="http://www.w3.org/2000/svg"
   xmlns:svg="http://www.w3.org/2000/svg">
  <sodipodi:namedview
     id="namedview5673"
     pagecolor="#ffffff"
     bordercolor="#666666"
     borderopacity="1.0"
     inkscape:pageshadow="2"
     inkscape:pageopacity="0.0"
     inkscape:pagecheckerboard="0"
     inkscape:document-units="mm"
     showgrid="false"
     inkscape:zoom="0.66368547"
     inkscape:cx="258.40554"
     inkscape:cy="44.448766"
     inkscape:window-width="1920"
     inkscape:window-height="1017"
     inkscape:window-x="-8"
     inkscape:window-y="-8"
     inkscape:window-maximized="1"
     inkscape:current-layer="layer1" />
  <defs
     id="defs5668" />
  <g
     inkscape:label="Layer 1"
     inkscape:groupmode="layer"
     id="layer1"
     transform="translate(-36.826951,-136.61905)">
    <path
       d="m 39.01334,144.82583 c -0.20093,-0.0192 -0.39276,-0.10271 -0.56108,-0.21441 -0.17482,-0.12432 -0.36481,-0.28368 -0.47177,-0.47479 -0.12895,-0.1583 -0.17317,-0.35188 -0.21721,-0.54477 -0.0203,-0.20791 -0.007,-0.43866 0.0472,-0.61738 -0.14137,-0.0825 -0.43023,-0.0613 -0.30555,-0.27678 -0.21336,-0.0859 -0.42586,0.0387 -0.62914,0.005 -0.0837,-0.19149 -0.044,-0.43255 0.002,-0.63008 -0.0457,-0.23348 0.38668,-0.30606 0.3847,-0.0477 0.0114,0.10524 0.15988,0.11938 0.2011,0.2081 0.10097,-0.16353 0.0228,-0.42642 0.0496,-0.62574 -3.6e-4,-0.23181 0.008,-0.46537 0.0275,-0.69483 0.0266,-0.15938 -0.0241,-0.40419 0.1242,-0.52276 0.20798,-0.0267 0.30185,-0.25019 0.51487,-0.26273 0.16434,-0.0902 0.38389,-0.14267 0.58259,-0.15154 0.23274,-0.0356 0.46175,-0.085 0.69371,-0.11385 0.23206,-0.0334 0.4543,-0.11511 0.68145,-0.1626 0.21829,0.004 0.41715,-0.081 0.63785,-0.0825 0.17325,0.0126 0.42004,-0.15505 0.53222,-0.0748 0.12893,0.12556 0.33459,0.13866 0.42651,-0.0753 0.0715,-0.19604 0.15704,-0.38174 0.21339,-0.56591 0.0848,-0.16507 0.0937,-0.47188 0.33923,-0.49698 0.2194,-0.0526 0.42346,-0.10708 0.59286,-0.16351 0.12851,-0.0666 0.31114,-0.0464 0.47295,-0.0943 0.30577,-0.0629 0.62376,-0.0679 0.93495,-0.0521 0.20305,0.0514 0.43637,0.0918 0.56836,0.28265 0.0744,0.13516 0.18184,0.36892 0.12942,0.48412 0.082,0.18412 0.0237,0.43322 0.0445,0.6409 -0.006,0.44289 0.0144,0.88915 -0.0248,1.32966 -0.0527,0.19625 0.005,0.41231 -0.0476,0.6108 -0.0793,0.11878 -0.0589,0.54999 0.13539,0.47003 0.11197,-0.26359 -0.0171,-0.56259 0.0666,-0.83109 0.0327,-0.32638 0.006,-0.65628 0.0407,-0.98221 -0.0184,-0.11503 0.036,-0.2932 0.0236,-0.46687 0.0118,-0.30711 -0.0127,-0.61784 0.0282,-0.92251 0.0207,-0.16753 0.0278,-0.31609 0.11857,-0.43687 0.0318,-0.19018 0.0118,-0.38901 0.0428,-0.51997 0.0221,-0.34773 -0.0113,-0.69816 0.0256,-1.04464 0.065,-0.13026 0.11822,-0.0164 0.20043,-0.0852 0.0466,0.23379 -2.1e-4,0.47904 0.002,0.71749 1.3e-4,0.32278 -0.0479,0.65098 0.005,0.97082 0.0795,0.10401 0.3455,0.0749 0.34937,0.0239 0.21951,0.042 0.45285,0.0145 0.67788,0.0221 0.21347,0.01 0.43377,-0.0261 0.6417,-0.003 0.23021,0.0177 0.46468,-0.0306 0.6921,0.0234 0.0999,-0.1779 0.0357,-0.4286 0.0613,-0.63638 0.0191,-0.35518 -0.007,-0.71648 0.0567,-1.06724 0.21063,-0.17249 0.19966,0.29212 0.22599,0.42275 0.0177,0.26667 0.0535,0.54786 -0.0439,0.80203 -0.004,0.14742 -0.026,0.46217 0.11918,0.46588 0.40765,-0.0298 0.81786,-0.004 1.22547,-0.004 0.18575,-0.007 0.33857,-0.0177 0.50846,-0.001 0.22716,0.11702 0.58449,-0.007 0.53776,-0.30544 0.007,-0.35632 0.053,-0.71038 0.0417,-1.06748 -0.0571,-0.14767 0.0917,-0.47589 0.18459,-0.20416 0.0763,0.38427 0.11011,0.78505 0.0562,1.17424 -0.0641,0.14221 0.0201,0.19464 -0.0446,0.2877 0.0428,0.19267 0.36162,0.044 0.51744,0.0906 0.56412,-0.005 1.12835,0.008 1.69203,0.0209 0.0747,-0.0184 0.27327,0.068 0.23302,-0.13375 0.0652,-0.26984 0.033,-0.55588 0.0458,-0.83266 0.007,-0.2263 -0.01,-0.45555 0.0281,-0.67942 0.0543,-0.0512 0.13812,0.059 0.15203,-0.0906 0.0933,0.13 0.044,0.37718 0.0633,0.55343 0.0123,0.36569 -0.019,0.73431 0.0265,1.09799 0.0935,0.22907 0.35023,0.029 0.50581,0.0786 0.57465,0.007 1.15079,0.021 1.72459,-0.0134 0.22936,-0.12287 0.0844,-0.47321 0.13524,-0.68978 0.004,-0.27215 0.0618,-0.53938 0.0515,-0.81262 -0.0153,-0.12105 0.0214,-0.18718 0.13319,-0.13794 0.11216,0.002 0.038,0.33474 0.0591,0.46125 0.0201,0.22207 -0.0534,0.4271 -0.0528,0.64544 0.01,0.21181 -0.0117,0.43797 0.0763,0.63473 0.0416,0.20425 0.0241,0.4147 -0.0203,0.60613 0.0773,0.15458 -0.0224,0.34771 1.5e-4,0.52022 -0.0434,0.19521 0.0772,0.32759 0.14517,0.47162 0.002,0.26489 0.0245,0.53614 -0.0265,0.79675 -0.009,0.21681 -0.057,0.41744 -0.11749,0.61564 0.14918,0.17154 0.0766,0.38213 0.0492,0.57796 -0.022,0.2893 0.0107,0.58446 -0.0365,0.87023 -0.1951,-0.003 -0.15079,-0.41308 -0.42577,-0.30826 -0.19863,0.0177 -0.41799,0.16763 -0.37268,0.39254 0.0655,0.13477 -0.15362,0.42902 -0.19177,0.1864 -0.004,-0.16926 0.0414,-0.57954 -0.23366,-0.50459 -0.26554,0.11173 -0.0682,0.3592 -0.0724,0.56542 -0.0574,0.1799 -0.0514,0.37895 -0.111,0.55909 -0.0756,0.1791 -0.15391,0.34591 -0.29751,0.4976 -0.13532,0.14938 -0.29635,0.25597 -0.47463,0.34521 -0.17424,0.0977 -0.37182,0.0863 -0.55718,0.13805 -0.16755,-0.0457 -0.36452,-0.0134 -0.52191,-0.083 -0.245,-0.042 -0.44224,-0.22568 -0.62433,-0.387 -0.16046,-0.13347 -0.23375,-0.31128 -0.32388,-0.47464 -0.0794,-0.16344 0.0388,-0.52876 -0.25123,-0.4635 -0.25397,-0.0626 -0.25055,0.14756 -0.26846,0.32949 -0.0567,0.19904 -0.1366,0.39807 -0.26922,0.55922 -0.14903,0.17362 -0.32019,0.31981 -0.52541,0.41357 -0.17305,0.0648 -0.35753,0.1268 -0.55446,0.13641 -0.1952,0.0396 -0.37127,-0.0289 -0.5667,-0.0474 -0.19111,-0.0555 -0.36863,-0.1587 -0.52057,-0.28293 -0.15829,-0.12744 -0.28084,-0.30489 -0.37024,-0.47219 -0.0709,-0.18923 -0.10838,-0.38231 -0.10479,-0.59108 -0.13466,-0.14516 -0.42201,-0.0678 -0.61667,-0.0959 -0.2702,0.005 -0.53335,-0.0614 -0.80418,-0.046 -0.22665,0.006 -0.45246,-0.005 -0.67403,-0.044 -0.25045,-0.0169 -0.50637,0.0156 -0.75343,-0.0293 -0.18603,-0.0364 -0.37929,-0.0196 -0.55554,-0.0881 -0.12641,-0.0704 -0.29715,0.0439 -0.44505,0.0393 -0.20388,0.0314 -0.40918,0.10359 -0.60598,0.16887 -0.15723,-0.0135 -0.28564,-0.0851 -0.41333,-0.13869 -0.18849,0.0749 -0.33503,-0.0834 -0.50816,-0.0115 -0.21357,-0.004 -0.41426,0.0648 -0.61492,0.10174 -0.21463,-0.004 -0.41056,0.0652 -0.62621,0.0652 -0.19514,0.0492 -0.40975,0.0487 -0.61169,0.083 -0.21831,0.0412 -0.45139,0.0282 -0.66263,0.0903 -0.19067,0.0209 -0.0847,0.32426 -0.20385,0.44794 -0.0846,0.15779 -0.17033,0.33775 -0.30404,0.47864 -0.19395,0.16251 -0.40947,0.32254 -0.66128,0.37104 -0.1958,0.0446 -0.41422,0.0408 -0.60952,0.0301 z m 1.87931,-1.64114 c 0.19686,-0.0226 0.39205,-0.0535 0.589,-0.0737 0.21476,-0.0378 0.43113,-0.0751 0.65208,-0.0813 0.21158,-0.0125 0.39965,-0.0868 0.61588,-0.0718 0.13813,-0.0578 -0.32093,-0.0371 -0.43428,-0.0435 -0.24152,0.005 -0.48679,-0.008 -0.72525,0.0322 -0.16486,0.0315 -0.1252,-0.31529 -0.34651,-0.22735 -0.14247,-0.12396 -0.19532,0.19487 -0.36308,0.22129 -0.15774,-0.019 -0.29878,0.12387 -0.14107,0.25813 0.0451,0.0288 0.12029,0.0382 0.15323,-0.0141 z m 9.65284,-1.65964 c 0.184,-0.0829 0.343,0.12992 0.53588,-0.007 0.13445,-0.0547 0.14333,-0.22358 -0.0347,-0.16061 -0.64054,-0.003 -1.28124,-0.009 -1.92172,-0.002 -0.1783,0.22746 0.25358,0.19791 0.39606,0.19362 0.34085,-0.006 0.68618,0.016 1.02453,-0.024 z m 1.33017,0 c 0.0865,-0.0467 0.30392,-0.0155 0.12229,0.0144 0.17429,0.01 0.44571,0.0593 0.45652,-0.15663 -0.26861,-0.047 -0.54867,-0.0332 -0.8197,-0.007 -0.13405,-0.014 -0.26235,0.11729 -0.0548,0.13052 0.0794,0.007 0.26866,0.057 0.29565,0.0187 z m 0.9536,0.003 c 0.5317,-0.0444 1.07015,-0.01 1.60265,-0.0303 0.18909,-0.22088 -0.20565,-0.12149 -0.34365,-0.15056 -0.43566,-4.4e-4 -0.8787,-0.0331 -1.3082,0.0545 -0.19134,0.0276 -0.0641,0.21543 0.0492,0.12643 z m 3.03689,-0.038 c 0.17538,-0.17717 -0.26532,-0.18775 -0.29255,-0.0703 -0.0734,0.17913 0.27064,0.16913 0.29255,0.0703 z"
       id="path2198" />
  </g>
</svg>
