<?xml version="1.0" encoding="UTF-8" standalone="no"?>
<!-- Created with Inkscape (http://www.inkscape.org/) -->

<svg
   width="19.290592mm"
   height="8.9543524mm"
   viewBox="0 0 19.290592 8.9543524"
   version="1.1"
   id="svg3737"
   sodipodi:docname="inkporter-svg-hpryjd19.svg"
   xmlns:inkscape="http://www.inkscape.org/namespaces/inkscape"
   xmlns:sodipodi="http://sodipodi.sourceforge.net/DTD/sodipodi-0.dtd"
   xmlns="http://www.w3.org/2000/svg"
   xmlns:svg="http://www.w3.org/2000/svg">
  <sodipodi:namedview
     id="namedview3739"
     pagecolor="#ffffff"
     bordercolor="#666666"
     borderopacity="1.0"
     inkscape:pageshadow="2"
     inkscape:pageopacity="0.0"
     inkscape:pagecheckerboard="0"
     inkscape:document-units="mm"
     showgrid="false"
     inkscape:zoom="0.66368547"
     inkscape:cx="397.02542"
     inkscape:cy="561.25984"
     inkscape:window-width="1920"
     inkscape:window-height="1017"
     inkscape:window-x="-8"
     inkscape:window-y="-8"
     inkscape:window-maximized="1"
     inkscape:current-layer="layer1" />
  <defs
     id="defs3734" />
  <g
     inkscape:label="Layer 1"
     inkscape:groupmode="layer"
     id="layer1"
     transform="translate(-121.10333,-120.4733)">
    <path
       d="m 136.85355,129.38054 c 0.0625,-0.0392 0.69285,-0.26502 1.40086,-0.50171 1.33854,-0.44751 1.5656,-0.57937 1.74822,-1.0153 0.23887,-0.57018 0.008,-1.28408 -0.49994,-1.54717 l -0.26389,-0.13665 0.22716,0.0122 c 0.49951,0.0267 0.5155,0.0176 0.46901,-0.26893 -0.0423,-0.26113 -0.0391,-0.26502 0.22536,-0.26502 0.21687,0 0.25928,-0.0237 0.22104,-0.12334 -0.026,-0.0679 -0.0846,-0.27125 -0.1301,-0.45205 -0.0455,-0.18079 -0.1301,-0.36797 -0.18794,-0.41598 -0.0578,-0.048 -0.10517,-0.18534 -0.10517,-0.30519 0,-0.17688 -0.0327,-0.21789 -0.17416,-0.21789 -0.0958,0 -0.21114,0.037 -0.25633,0.0821 -0.0591,0.0591 -0.14645,0.0489 -0.31089,-0.0361 -0.12581,-0.065 -0.33204,-0.12615 -0.45832,-0.13578 -0.14736,-0.0112 -0.2423,-0.0661 -0.26508,-0.15318 -0.0423,-0.16209 -0.29893,-0.17851 -0.44871,-0.0287 -0.15997,0.15998 -0.81251,0.0119 -0.81251,-0.18435 0,-0.1835 -0.069,-0.22028 -0.32225,-0.17186 -0.1378,0.0263 -0.2078,0.0872 -0.2078,0.18046 0,0.11758 -0.0405,0.13325 -0.24611,0.0954 -0.13535,-0.025 -0.28392,-0.0922 -0.33016,-0.14955 -0.0918,-0.11386 -0.40812,-0.14409 -0.40812,-0.039 0,0.0714 -0.37076,0.0229 -0.4922,-0.0642 -0.0417,-0.0299 -0.29542,-0.0621 -0.56392,-0.0715 -0.29172,-0.0102 -0.5203,-0.057 -0.56793,-0.11604 -0.0438,-0.0543 -0.12477,-0.11217 -0.17985,-0.12836 -0.0557,-0.0164 0.10336,-0.17691 0.35847,-0.36171 0.25223,-0.18274 0.47848,-0.39488 0.50278,-0.47144 0.0243,-0.0765 0.10975,-0.1392 0.18988,-0.1392 0.0801,0 0.18827,-0.0681 0.24028,-0.15144 0.0519,-0.0833 0.17157,-0.15145 0.26567,-0.15145 0.1016,0 0.17109,-0.0461 0.17109,-0.11358 0,-0.0625 -0.0645,-0.11359 -0.14334,-0.11359 -0.0788,0 -0.16296,-0.0511 -0.18693,-0.11358 -0.0328,-0.0856 0.0131,-0.11358 0.18676,-0.11358 0.17852,0 0.22465,-0.0298 0.20505,-0.13252 -0.0209,-0.10957 -0.12309,-0.13642 -0.59019,-0.1551 -0.31069,-0.0124 -0.58322,-0.0522 -0.60561,-0.0884 -0.0452,-0.0731 -1.31294,-0.22971 -1.85889,-0.22971 -0.3124,0 -0.34389,-0.0156 -0.30156,-0.14893 0.0536,-0.16881 -0.0335,-0.19967 -0.71857,-0.25482 -0.36602,-0.0295 -0.45687,-0.006 -0.75002,0.19046 -0.31884,0.21412 -0.35812,0.22171 -0.88975,0.17189 -0.39037,-0.0366 -0.55617,-0.0269 -0.55617,0.0325 0,0.0466 -0.0358,0.0846 -0.0794,0.0846 -0.0437,0 -0.28461,0.1363 -0.53542,0.30289 -0.41955,0.27868 -0.82163,0.40727 -0.71032,0.22717 0.052,-0.0843 -0.0134,-0.0957 -0.45434,-0.0789 -0.46188,0.0176 -0.56792,0.0686 -0.56792,0.27329 0,0.12605 -0.0425,0.18421 -0.1346,0.18421 -0.0741,0 -0.19298,0.0681 -0.2643,0.15144 -0.12372,0.14451 -0.22337,0.15144 -2.17491,0.15144 -1.95623,0 -2.04524,0.006 -2.04524,0.14335 0,0.0788 0.0539,0.16402 0.11977,0.1893 0.0659,0.0253 1.01772,0.0459 2.1152,0.0459 h 1.99541 l 0.024,0.20824 c 0.0205,0.17808 0.0541,0.20471 0.23209,0.1839 0.24784,-0.029 1.04129,0.18878 1.04129,0.28578 0,0.0897 -0.48112,0.0422 -0.76532,-0.0756 -0.19835,-0.0821 -0.24485,-0.0745 -0.39264,0.0643 -0.14216,0.13355 -0.27697,0.16009 -0.88677,0.1746 l -0.71914,0.0171 -0.49219,0.46739 c -0.2707,0.25707 -0.66219,0.61764 -0.86997,0.80129 -0.2078,0.18363 -0.51447,0.4613 -0.68151,0.61702 -0.24788,0.2311 -0.3608,0.2833 -0.61423,0.28397 -0.17078,7e-4 -0.42119,0.0393 -0.55645,0.0865 -0.21808,0.076 -0.24102,0.11033 -0.20249,0.3029 0.0312,0.15616 0.0137,0.21715 -0.0624,0.21715 -0.0582,0 -0.2277,0.14244 -0.37671,0.31652 -0.24108,0.28164 -0.27093,0.36341 -0.27093,0.74213 0,0.23409 0.0412,0.51281 0.0915,0.61937 0.11904,0.25225 0.72823,0.64206 1.76374,1.12862 l 0.83295,0.39137 6.47426,0.0329 c 3.98259,0.0203 6.51797,0.005 6.58783,-0.0384 z m -1.6857,-0.44664 c -0.13837,-0.12522 -0.15056,-0.12433 -0.25505,0.0186 -0.0702,0.0961 -0.12909,0.12097 -0.16353,0.0692 -0.0971,-0.14603 -0.32185,-0.18793 -0.36766,-0.0685 -0.0237,0.0617 -0.0755,0.1123 -0.11502,0.1123 -0.0395,0 -0.0188,-0.0757 0.0459,-0.16829 0.0648,-0.0925 0.11788,-0.22542 0.11788,-0.29526 0,-0.0947 0.0817,-0.13371 0.32182,-0.15353 0.51203,-0.0423 0.65473,0.004 0.78323,0.25218 0.0655,0.12658 0.0819,0.20718 0.0365,0.17913 -0.0454,-0.028 -0.10295,0.002 -0.12794,0.0674 -0.0578,0.15056 -0.0974,0.14868 -0.2762,-0.0131 z m -2.50641,0.0179 c -0.0582,-0.15143 -0.24733,-0.14476 -0.30705,0.0109 -0.0263,0.0684 -0.0665,0.10568 -0.0893,0.0828 -0.023,-0.023 0.0151,-0.15147 0.0845,-0.28568 0.0758,-0.14669 0.11504,-0.36092 0.0982,-0.53709 -0.0259,-0.27167 -0.0137,-0.29309 0.16708,-0.29309 0.17855,0 0.1924,0.0226 0.1639,0.26674 -0.0171,0.14669 0.0101,0.36612 0.0604,0.48762 0.0888,0.21449 0.0578,0.38147 -0.0709,0.38147 -0.0347,0 -0.0828,-0.0511 -0.10675,-0.11357 z m -1.98973,0 c -0.0589,-0.1534 -0.22907,-0.14353 -0.32652,0.0189 -0.0757,0.12621 -0.0832,0.12621 -0.15896,0 -0.0437,-0.0729 -0.12721,-0.13251 -0.18555,-0.13251 -0.0584,0 -0.1412,0.0596 -0.18415,0.13251 -0.0681,0.11572 -0.088,0.11813 -0.15596,0.0189 -0.0651,-0.0949 -0.0426,-0.43764 0.0338,-0.51398 0.0412,-0.0412 0.75989,-0.0666 0.89623,-0.0315 0.15468,0.0397 0.35269,0.38483 0.30208,0.52662 -0.0462,0.12953 -0.16797,0.11909 -0.22095,-0.0189 z m -2.7347,-0.11358 c -0.043,0 -0.10013,0.0572 -0.12695,0.12703 -0.0444,0.11593 -0.0593,0.11654 -0.16876,0.007 -0.10953,-0.10953 -0.10928,-0.13532 0.003,-0.29532 0.0675,-0.0964 0.12279,-0.30402 0.12279,-0.46136 0,-0.22355 0.0295,-0.28603 0.13453,-0.28603 0.11051,0 0.12952,0.0523 0.10656,0.29307 -0.0164,0.17204 0.0219,0.3894 0.0926,0.52629 0.14558,0.28152 0.15402,0.40469 0.0152,0.22181 -0.0553,-0.0729 -0.13578,-0.1325 -0.17879,-0.1325 z m -1.86341,0.11358 c -0.0568,-0.14797 -0.19195,-0.14412 -0.36261,0.0103 -0.12675,0.11471 -0.14043,0.11471 -0.18444,0 -0.0623,-0.16238 -0.25375,-0.15804 -0.38026,0.008 -0.0958,0.1262 -0.10071,0.1262 -0.10301,0 -0.002,-0.0744 -0.0605,-0.13302 -0.13491,-0.13366 -0.0799,-7.1e-4 -0.10024,-0.0233 -0.0513,-0.0568 0.0446,-0.0306 0.10324,-0.11527 0.13013,-0.18816 0.0393,-0.10643 0.14006,-0.1325 0.51218,-0.1325 0.44524,0 0.46663,0.009 0.54905,0.22716 0.0472,0.12493 0.11234,0.22717 0.14485,0.22717 0.0326,0 0.0591,0.0341 0.0591,0.0757 0,0.11699 -0.12998,0.0894 -0.17884,-0.0379 z m 11.11191,-0.54898 0.009,-0.4354 0.3786,-0.0397 c 0.25731,-0.027 0.44535,-0.004 0.58686,0.0732 0.2078,0.11254 0.27591,0.23157 0.13251,0.23157 -0.0417,0 -0.0757,0.0511 -0.0757,0.11358 0,0.1286 -0.11858,0.1523 -0.1893,0.0379 -0.082,-0.13267 -0.1907,-0.082 -0.26972,0.12591 -0.0583,0.15325 -0.0978,0.18051 -0.16471,0.11359 -0.13686,-0.13685 -0.28493,-0.10389 -0.28493,0.0634 0,0.0833 -0.0294,0.15144 -0.0656,0.15144 -0.036,0 -0.0617,-0.19594 -0.0568,-0.4354 z m -14.03769,0.0902 c 0,-0.06 -0.0511,-0.10911 -0.11357,-0.10911 -0.0625,0 -0.11359,0.0409 -0.11359,0.0908 0,0.0657 -0.0263,0.063 -0.0947,-0.01 -0.0757,-0.0803 -0.0757,-0.10727 0,-0.13503 0.052,-0.0191 0.0947,-0.083 0.0947,-0.14198 0,-0.1178 0.0688,-0.13508 0.19632,-0.0494 0.10549,0.0709 0.20956,0.57362 0.10543,0.50927 -0.0411,-0.0253 -0.0745,-0.0952 -0.0745,-0.15522 z m 15.33376,-0.26056 c -0.0257,-0.0417 -0.0107,-0.0757 0.0334,-0.0757 0.0441,0 0.0802,0.0341 0.0802,0.0757 0,0.0417 -0.015,0.0757 -0.0334,0.0757 -0.0184,0 -0.0544,-0.0341 -0.0802,-0.0757 z"
       id="U-S-Sherman-late"
       style="stroke-width:0.286194" />
  </g>
</svg>
