<?xml version="1.0" encoding="UTF-8" standalone="no"?>
<!-- Created with Inkscape (http://www.inkscape.org/) -->

<svg
   width="19.289955mm"
   height="9.853013mm"
   viewBox="0 0 19.289955 9.853013"
   version="1.1"
   id="svg4664"
   sodipodi:docname="inkporter-svg-ya7vt74m.svg"
   xmlns:inkscape="http://www.inkscape.org/namespaces/inkscape"
   xmlns:sodipodi="http://sodipodi.sourceforge.net/DTD/sodipodi-0.dtd"
   xmlns="http://www.w3.org/2000/svg"
   xmlns:svg="http://www.w3.org/2000/svg">
  <sodipodi:namedview
     id="namedview4666"
     pagecolor="#ffffff"
     bordercolor="#666666"
     borderopacity="1.0"
     inkscape:pageshadow="2"
     inkscape:pageopacity="0.0"
     inkscape:pagecheckerboard="0"
     inkscape:document-units="mm"
     showgrid="false"
     inkscape:zoom="1.3273709"
     inkscape:cx="335.62585"
     inkscape:cy="557.86968"
     inkscape:window-width="1920"
     inkscape:window-height="1017"
     inkscape:window-x="-8"
     inkscape:window-y="-8"
     inkscape:window-maximized="1"
     inkscape:current-layer="layer1" />
  <defs
     id="defs4661" />
  <g
     inkscape:label="Layer 1"
     inkscape:groupmode="layer"
     id="layer1"
     transform="translate(-45.569119,-153.73927)">
    <path
       id="U-S-Sherman-late"
       d="m 59.104839,153.73927 -0.0605,0.0708 h -1.16736 l -0.51832,-0.005 v 0.077 h -0.33486 c -0.007,0.0175 -0.0222,0.0284 -0.0806,0 h -0.0692 c -0.007,0.0175 -0.0222,0.0284 -0.0791,0 h -0.0698 c -0.006,0.0175 -0.0217,0.0284 -0.0801,0 l -0.19121,0.0238 h -0.10438 l -0.12973,-0.007 h -0.0946 l -0.0682,0.0346 -1.83089,-0.0382 h -0.19275 v 0.19431 l 0.19275,-0.0346 1.42679,0.0698 c 0.39812,0.0206 0.39791,0.06 0.39791,0.06 v 0.0398 l -0.19587,0.0599 v 0.16124 h 0.61754 v -0.15348 l -0.18809,-0.0677 v -0.0713 h 0.3638 c 0.008,-0.0127 0.0217,-0.0206 0.0723,0 h 0.0775 c 0.008,-0.0127 0.0206,-0.0206 0.0729,0 h 0.076 c 0.008,-0.0127 0.0201,-0.0206 0.0723,0 h 0.37465 v 0.28268 h 0.19741 v 0.11575 l -0.1328,0.3488 h -0.84854 v -0.12454 h -0.46249 v 0.12454 h -0.35399 v -0.19531 h -0.15967 v 0.19584 h -0.6191 v -0.12454 h -0.19585 v 0.12454 h -0.35398 l -0.15968,0.0904 v 0.12297 l -0.51522,0.019 v -0.35708 l -0.12454,-0.12507 h -0.15968 v 0.46302 l -0.17674,0.0538 -0.0713,0.12504 v 0.19587 l 0.14211,0.16121 -0.46146,0.0538 -0.19584,-0.0899 v -0.14261 l -0.26511,0.0351 -0.23099,0.17828 -0.15917,0.17827 -0.10594,0.21344 -0.0884,0.17878 h -0.60357 v 0.12454 l -4.04008,0.0884 -0.85471,0.019 v 0.35552 l 4.04006,0.03 c 0.85471,0.006 0.85476,0.0682 0.85473,0.0682 v 0.0631 h 0.65681 l 0.15811,0.21344 h 0.35555 v 0.17827 c 0,0.0897 -0.48112,0.0424 -0.76534,-0.0755 -0.19835,-0.0821 -0.24442,-0.0747 -0.39221,0.0641 -0.14217,0.13356 -0.27697,0.16015 -0.88678,0.17467 l -0.71933,0.0169 -0.49246,0.46767 c -0.27073,0.25707 -0.66194,0.61733 -0.86974,0.801 -0.20778,0.1836 -0.51456,0.46181 -0.6816,0.61752 -0.24788,0.23111 -0.36049,0.28305 -0.61391,0.28371 -0.17079,0 -0.42129,0.0391 -0.55658,0.0863 -0.21807,0.076 -0.24108,0.11075 -0.20256,0.30334 0.0312,0.15616 0.0135,0.21704 -0.0625,0.21704 -0.0582,0 -0.22773,0.14216 -0.37672,0.31625 -0.24108,0.28163 -0.2708,0.36336 -0.2708,0.74208 0,0.23408 0.0412,0.51303 0.0915,0.6196 0.11904,0.25226 0.72821,0.64204 1.76371,1.12861 l 0.83304,0.39119 6.47401,0.0331 c 3.97963,0.0204 6.51423,0.005 6.58773,-0.0382 0.0637,-0.0396 0.69316,-0.26535 1.40041,-0.50179 1.33853,-0.44751 1.56562,-0.57951 1.74824,-1.01544 0.23886,-0.57018 0.008,-1.2841 -0.49972,-1.5472 l -0.26408,-0.13642 0.22738,0.0124 c 0.49951,0.0267 0.51523,0.0172 0.46871,-0.26924 -0.0423,-0.26112 -0.0391,-0.26508 0.22532,-0.26508 0.21688,0 0.2594,-0.0233 0.22117,-0.12301 -0.0259,-0.0679 -0.0847,-0.27136 -0.13023,-0.45217 -0.0455,-0.18079 -0.12975,-0.36798 -0.18759,-0.41598 -0.0578,-0.048 -0.10541,-0.18558 -0.10541,-0.30541 0,-0.1769 -0.0327,-0.21757 -0.17415,-0.21757 -0.0958,0 -0.21114,0.0371 -0.25633,0.0822 -0.0591,0.0591 -0.14613,0.0488 -0.31057,-0.0362 -0.12581,-0.065 -0.33207,-0.12626 -0.45836,-0.13589 -0.14735,-0.0111 -0.24233,-0.0659 -0.26511,-0.15298 -0.0423,-0.16209 -0.29927,-0.17873 -0.44905,-0.0289 -0.15997,0.15997 -0.81235,0.0116 -0.81235,-0.1845 0,-0.18348 -0.0692,-0.21997 -0.32248,-0.17155 -0.13782,0.0262 -0.20775,0.0871 -0.20775,0.18034 0,0.11758 -0.0403,0.13293 -0.24596,0.0951 -0.13533,-0.0251 -0.284,-0.092 -0.33022,-0.14936 -0.0918,-0.11385 -0.40825,-0.14385 -0.40825,-0.0388 0,0.0714 -0.3705,0.0225 -0.49194,-0.0646 -0.0417,-0.0299 -0.29531,-0.0619 -0.5638,-0.0713 -0.29173,-0.0103 -0.52031,-0.0572 -0.56793,-0.11628 -0.0402,-0.0498 -0.11028,-0.099 -0.16434,-0.11989 h 0.093 v -0.1049 l 0.40772,-0.17828 V 156.204 h -0.12297 v -0.91004 h -0.35399 v -0.28575 h -0.15968 v 0.28575 h -0.28424 l -0.31779,-0.30488 0.13436,-0.3638 h 0.0966 v -0.36743 l 0.86715,0.19897 c 0.0426,0.008 0.11089,0.0175 0.15192,-0.0315 0.0396,-0.0459 0.019,-0.1279 -0.0522,-0.19584 h 0.52298 l 0.0646,-0.0206 0.0206,-0.12507 -0.0206,-0.13073 v -0.13901 h -0.19119 l -0.0238,-0.0744 z m 0.17209,0.0946 h 0.0992 v 0.11991 h -0.0992 z m 0,0.25117 h 0.0992 v 0.12454 h -0.0992 z m -3.11092,0.13901 0.26717,0.12608 h -0.53898 v -0.0408 z m 6.05234,7.85739 c 0.16806,0 0.30057,0.0259 0.40669,0.0837 0.20781,0.11255 0.2757,0.23151 0.13229,0.23151 -0.0417,0 -0.076,0.0512 -0.076,0.11369 0,0.12862 -0.1184,0.15214 -0.18912,0.0377 -0.082,-0.13266 -0.19074,-0.0818 -0.26977,0.1261 -0.0583,0.15325 -0.0979,0.18061 -0.16484,0.11367 -0.13687,-0.13685 -0.28474,-0.10372 -0.28474,0.0636 0,0.0833 -0.0294,0.15139 -0.0656,0.15139 -0.036,0 -0.0618,-0.19616 -0.0569,-0.43561 l 0.009,-0.43564 0.37881,-0.0393 c 0.0643,-0.007 0.12433,-0.0103 0.18034,-0.0108 z m -9.8521,0.0124 c 0.11051,0 0.12993,0.0522 0.10697,0.293 -0.0164,0.17206 0.0217,0.38971 0.0925,0.5266 0.14557,0.28152 0.15369,0.40455 0.0151,0.22167 -0.0553,-0.0729 -0.13579,-0.13279 -0.17881,-0.13279 -0.043,0 -0.1003,0.0573 -0.1271,0.12713 -0.0444,0.11591 -0.059,0.11684 -0.16846,0.007 -0.10954,-0.10954 -0.10978,-0.1356 0.003,-0.29559 0.0675,-0.0964 0.12301,-0.30361 0.12301,-0.46096 0,-0.22354 0.0293,-0.28628 0.13435,-0.28628 z m 4.71339,0 c 0.17857,0 0.19233,0.0225 0.16383,0.26665 -0.0172,0.14668 0.01,0.36631 0.0605,0.48784 0.0888,0.21447 0.0579,0.38137 -0.0708,0.38137 -0.0347,0 -0.083,-0.0512 -0.10698,-0.11369 -0.0582,-0.15145 -0.24722,-0.14481 -0.30694,0.0108 -0.0262,0.0684 -0.0666,0.10605 -0.0894,0.0832 -0.023,-0.023 0.0153,-0.15158 0.0847,-0.28578 0.0758,-0.14669 0.11502,-0.36126 0.0982,-0.53745 -0.0259,-0.27167 -0.0138,-0.293 0.1669,-0.293 z m -9.61594,0.15555 c 0.0308,0.003 0.0705,0.0212 0.11835,0.0532 0.10546,0.0709 0.20952,0.57389 0.10541,0.50951 -0.041,-0.0251 -0.0747,-0.0951 -0.0749,-0.15502 0,-0.0598 -0.0514,-0.1085 -0.11369,-0.1085 -0.0625,0 -0.11316,0.041 -0.11316,0.0909 0,0.0657 -0.0267,0.0632 -0.0951,-0.01 -0.0757,-0.0803 -0.0757,-0.10764 0,-0.13539 0.052,-0.019 0.0951,-0.0826 0.0951,-0.14161 0,-0.0736 0.0267,-0.10834 0.078,-0.10284 z m 15.51586,0.0718 c 0.0441,0 0.0806,0.0338 0.0806,0.0754 0,0.0417 -0.0154,0.076 -0.0336,0.076 -0.0183,0 -0.0543,-0.0343 -0.0801,-0.076 -0.0257,-0.0417 -0.0111,-0.0754 0.0331,-0.0754 z m -8.25688,0.27078 c 0.14848,-0.003 0.28167,0.004 0.33279,0.0164 0.1547,0.0397 0.35243,0.38479 0.30181,0.52658 -0.0462,0.12954 -0.16769,0.11882 -0.22066,-0.019 -0.0589,-0.15341 -0.22916,-0.14327 -0.3266,0.019 -0.0757,0.12623 -0.0834,0.12623 -0.15918,0 -0.0437,-0.0729 -0.12715,-0.1328 -0.18549,-0.1328 -0.0584,0 -0.14103,0.0599 -0.18397,0.1328 -0.0681,0.11573 -0.0881,0.11795 -0.15608,0.0185 -0.0651,-0.0949 -0.0423,-0.43733 0.0341,-0.51366 0.0257,-0.0257 0.3158,-0.0456 0.56327,-0.0481 z m 4.8147,0.007 v 0 c 0.26218,0.007 0.36663,0.0795 0.46302,0.26562 0.0655,0.12658 0.0816,0.20735 0.0362,0.17931 -0.0454,-0.028 -0.10266,0.003 -0.12763,0.0672 -0.0578,0.15055 -0.0977,0.14891 -0.27647,-0.013 -0.13837,-0.12523 -0.15028,-0.12425 -0.25476,0.0185 -0.0702,0.0961 -0.12939,0.12102 -0.16383,0.0692 -0.0971,-0.14602 -0.32161,-0.18814 -0.36741,-0.0687 -0.0238,0.0617 -0.0757,0.11216 -0.11525,0.11216 -0.0395,0 -0.0188,-0.0754 0.046,-0.16796 0.0648,-0.0925 0.11784,-0.22574 0.11784,-0.29559 0,-0.0947 0.0818,-0.13367 0.32195,-0.15348 0.128,-0.0106 0.23299,-0.0161 0.32038,-0.014 z m -9.57305,0.0249 c 0.44524,0 0.46638,0.009 0.5488,0.22686 0.0472,0.12493 0.11269,0.22738 0.14521,0.22738 0.0326,0 0.0589,0.0338 0.0589,0.0754 0,0.11684 -0.12981,0.0897 -0.17881,-0.0372 -0.0569,-0.14748 -0.1923,-0.1434 -0.36277,0.0109 -0.12676,0.11472 -0.14047,0.11472 -0.18449,0 -0.0623,-0.16237 -0.25331,-0.15772 -0.37981,0.008 -0.0958,0.12621 -0.10107,0.12621 -0.10337,0 -0.003,-0.0744 -0.0605,-0.13316 -0.13486,-0.13382 -0.0799,0 -0.10009,-0.0233 -0.0512,-0.0569 0.0446,-0.0306 0.10334,-0.11523 0.13023,-0.18809 0.0393,-0.10645 0.13999,-0.1323 0.51212,-0.1323 z" />
  </g>
</svg>
