<?xml version="1.0" encoding="UTF-8" standalone="no"?>
<!-- Created with Inkscape (http://www.inkscape.org/) -->

<svg
   width="11.847239mm"
   height="4.0697098mm"
   viewBox="0 0 11.847239 4.0697098"
   version="1.1"
   id="svg5570"
   sodipodi:docname="inkporter-svg-u35bujyx.svg"
   xmlns:inkscape="http://www.inkscape.org/namespaces/inkscape"
   xmlns:sodipodi="http://sodipodi.sourceforge.net/DTD/sodipodi-0.dtd"
   xmlns="http://www.w3.org/2000/svg"
   xmlns:svg="http://www.w3.org/2000/svg">
  <sodipodi:namedview
     id="namedview5572"
     pagecolor="#ffffff"
     bordercolor="#666666"
     borderopacity="1.0"
     inkscape:pageshadow="2"
     inkscape:pageopacity="0.0"
     inkscape:pagecheckerboard="0"
     inkscape:document-units="mm"
     showgrid="false"
     inkscape:zoom="1.2810466"
     inkscape:cx="533.15782"
     inkscape:cy="1820.7769"
     inkscape:window-width="2400"
     inkscape:window-height="1271"
     inkscape:window-x="-9"
     inkscape:window-y="-9"
     inkscape:window-maximized="1"
     inkscape:current-layer="layer1"
     inkscape:snap-bbox="true"
     inkscape:snap-nodes="false"
     inkscape:snap-others="false"
     inkscape:bbox-paths="true"
     inkscape:bbox-nodes="true" />
  <defs
     id="defs5567" />
  <g
     inkscape:label="Layer 1"
     inkscape:groupmode="layer"
     id="layer1"
     transform="translate(-244.58899,-472.93566)">
    <path
       d="m 256.3191,476.52477 -0.0152,-0.0965 0.0234,-0.0386 -0.0648,-0.15985 c 0,0 -0.0965,-0.0234 -0.15158,-0.007 -0.0565,0.0152 -0.13229,0.0923 -0.13229,0.0923 l -0.15297,0.0372 -0.0606,-0.0524 -0.21498,0.003 -0.0551,-0.0689 0.0358,-0.41754 0.0455,10e-4 c 0,0 0.15847,0.022 0.19154,-0.0193 0.0331,-0.0413 0.0469,-0.0951 0.0469,-0.0951 l 0.0138,-0.17501 0.0524,-0.0661 c 0,0 -0.0248,-0.2825 -0.0331,-0.32797 -0.01,-0.0455 -0.15021,-0.26734 -0.1819,-0.29628 -0.0317,-0.0289 -0.1571,-0.0593 -0.1571,-0.0593 l -0.0152,-0.0854 0.0455,-0.0221 c 0,0 0.062,-0.0372 0.0854,-0.0496 0.0234,-0.0138 0.0413,-0.0165 0.0469,-0.0882 0.005,-0.0716 -0.0593,-0.17087 -0.0593,-0.17087 0,0 -0.14607,-0.30868 -0.18052,-0.34727 -0.0331,-0.0386 -0.19568,-0.2067 -0.21635,-0.21773 -0.0193,-0.0124 -0.17501,-0.0882 -0.20671,-0.0937 -0.0317,-0.006 -0.1254,0.011 -0.15847,0.0358 -0.0331,0.0262 -0.0579,0.0951 -0.0579,0.0951 l -0.10197,0.0207 -0.2136,-0.14745 h -0.13091 l 0.01,-0.006 -0.0799,-0.0772 0.0166,-0.0427 0.0455,-0.0124 c 0,0 -0.0152,-0.0138 -0.0179,-0.0331 -0.003,-0.0207 0.001,-0.0234 0.004,-0.0289 0.003,-0.006 0.0138,-0.0469 0.0138,-0.0469 l 0.008,-0.051 v -0.04 c 0,0 -0.001,-0.0276 -0.003,-0.0482 -0.001,-0.0193 -0.001,-0.0179 -0.005,-0.0303 -0.005,-0.0138 -0.0124,-0.04 -0.0124,-0.04 0,0 -0.0165,-0.0386 -0.0303,-0.0565 -0.0138,-0.0179 -0.04,-0.0482 -0.04,-0.0482 l -0.0276,-0.0276 c 0,0 -0.0358,-0.0276 -0.0441,-0.0317 -0.008,-0.003 -0.0496,-0.0193 -0.0496,-0.0193 l -0.0565,-0.0138 -0.0482,-0.005 -0.062,-0.005 -0.0648,0.008 -0.0592,0.011 c 0,0 -0.0593,0.0179 -0.0772,0.0317 -0.0179,0.0152 -0.007,0.006 -0.0482,0.0358 -0.04,0.0317 -0.0469,0.0537 -0.0469,0.0537 l -0.0345,0.0634 -0.022,0.0606 -0.0138,0.0648 -0.006,0.0289 -0.0193,0.0303 -0.0345,0.0207 -0.0262,0.0138 c 0,0 -0.0262,10e-4 -0.0303,10e-4 -0.004,0 0.007,0.004 0.0207,0.004 l 0.18053,0.0358 -0.0648,0.15572 0.0193,0.003 0.0455,0.0248 0.0138,0.0427 0.0248,0.10748 0.0289,0.0248 0.0248,0.003 0.0482,0.004 0.04,-0.0179 h 0.062 l 0.0193,0.0331 -0.01,0.011 -0.0262,0.10197 -0.0193,0.12678 0.003,0.11025 0.008,0.0896 0.062,0.113 0.051,0.0648 0.0303,0.051 0.0262,0.0482 0.18879,0.2756 -0.0786,0.0909 0.15572,0.25494 c 0,0 -0.66973,0.007 -0.71658,0.0152 -0.0482,0.008 -0.15847,0.0537 -0.1502,0.1502 0.01,0.0965 0.0234,0.33349 0.0234,0.33349 l 0.0345,0.25356 0.11024,0.14883 0.13505,0.0537 0.0703,0.15296 0.0303,0.22738 -0.0345,0.0262 -0.16123,0.16675 -0.20394,0.0193 -0.04,0.0441 0.0386,0.091 0.34313,0.0179 0.0744,-0.0551 0.0854,-0.004 0.004,0.04 0.226,0.008 -0.006,-0.0441 -0.0152,-0.38448 -0.0785,-0.38998 0.0358,-0.113 -0.0358,-0.1695 0.31419,0.11851 0.36518,0.04 0.12953,0.34588 0.11576,0.51539 0.0937,0.13229 0.17501,-0.0138 0.34175,-0.16399 0.12954,-0.0537 0.0648,-0.0841 0.0937,-0.0165 0.16812,-0.0193 0.0524,0.0813 c 0,0 0.008,0.10611 0.0179,0.15848 0.01,0.0524 0.0317,0.0937 0.0854,0.11989 0.0524,0.0262 0.15021,-0.0469 0.15021,-0.0469 0,0 0.0303,-0.0565 0.0317,-0.0854 10e-4,-0.0303 -0.0179,-0.13368 -0.0248,-0.15848 -0.007,-0.0248 -0.0937,-0.15985 -0.0937,-0.15985 m -3.44371,0.3886 c 0,0 0.0317,-0.0565 0.0331,-0.0854 0.001,-0.0303 -0.0179,-0.13505 -0.0262,-0.15848 -0.007,-0.0248 -0.0923,-0.15985 -0.0923,-0.15985 l -0.0152,-0.0965 0.0234,-0.0386 -0.0661,-0.15985 c 0,0 -0.0965,-0.0234 -0.15159,-0.008 -0.0551,0.0152 -0.13091,0.0937 -0.13091,0.0937 l -0.15296,0.0372 -0.062,-0.0524 -0.2136,10e-4 -0.0551,-0.0675 0.0344,-0.41755 0.0455,0.001 c 0,0 0.15847,0.022 0.19292,-0.0193 0.0331,-0.0413 0.0455,-0.0951 0.0455,-0.0951 l 0.0152,-0.17501 0.0524,-0.0675 c 0,0 -0.0262,-0.28112 -0.0345,-0.3266 -0.008,-0.0469 -0.14883,-0.26734 -0.18053,-0.29765 -0.0317,-0.0289 -0.15709,-0.0593 -0.15709,-0.0593 l -0.0152,-0.0841 0.0455,-0.022 c 0,0 0.0606,-0.0372 0.0841,-0.0496 0.0234,-0.0138 0.0427,-0.0179 0.0482,-0.0896 0.004,-0.0703 -0.0593,-0.1695 -0.0593,-0.1695 0,0 -0.14607,-0.30868 -0.18052,-0.34727 -0.0345,-0.04 -0.19569,-0.2067 -0.21636,-0.2191 -0.0207,-0.011 -0.17501,-0.0882 -0.2067,-0.0937 -0.0317,-0.005 -0.1254,0.011 -0.15848,0.0372 -0.0344,0.0248 -0.0593,0.0951 -0.0593,0.0951 l -0.10198,0.0207 -0.21359,-0.14883 h -0.12954 l 0.008,-0.006 -0.0799,-0.0758 0.0165,-0.0441 0.0455,-0.011 c 0,0 -0.0138,-0.0138 -0.0165,-0.0344 -0.003,-0.0193 0.001,-0.022 0.004,-0.0275 0.003,-0.006 0.0124,-0.0482 0.0124,-0.0482 l 0.008,-0.051 v -0.0386 c 0,0 -0.001,-0.0289 -0.003,-0.0482 -0.001,-0.0207 -0.001,-0.0179 -0.005,-0.0317 -0.004,-0.0124 -0.011,-0.0386 -0.011,-0.0386 0,0 -0.0165,-0.0386 -0.0317,-0.0565 -0.0138,-0.0193 -0.0386,-0.0482 -0.0386,-0.0482 l -0.0289,-0.0289 c 0,0 -0.0345,-0.0276 -0.0427,-0.0303 -0.01,-0.003 -0.0496,-0.0193 -0.0496,-0.0193 l -0.0565,-0.0152 -0.0482,-0.005 -0.062,-0.005 -0.0648,0.008 -0.0592,0.0124 c 0,0 -0.0593,0.0179 -0.0772,0.0317 -0.0193,0.0138 -0.008,0.004 -0.0482,0.0358 -0.0413,0.0303 -0.0469,0.0537 -0.0469,0.0537 l -0.0358,0.0634 -0.0207,0.0606 -0.0138,0.0648 -0.006,0.0276 -0.0207,0.0317 -0.0331,0.0207 -0.0276,0.0124 c 0,0 -0.0248,0.001 -0.0289,0.001 -0.004,0 0.007,0.004 0.0193,0.004 l 0.18052,0.0372 -0.0648,0.15572 0.0193,0.003 0.0455,0.0248 0.0138,0.0427 0.0262,0.10611 0.0275,0.0262 0.0262,0.003 0.0482,0.003 0.0386,-0.0165 h 0.062 l 0.0207,0.0317 -0.011,0.011 -0.0248,0.10198 -0.0207,0.12678 0.003,0.11024 0.01,0.0909 0.062,0.11162 0.0496,0.0661 0.0317,0.0496 0.0248,0.0482 0.19016,0.27699 -0.0799,0.0896 0.15709,0.25493 c 0,0 -0.66972,0.008 -0.71795,0.0165 -0.0469,0.008 -0.15848,0.0537 -0.14883,0.14883 0.01,0.0965 0.0221,0.33348 0.0221,0.33348 l 0.0358,0.25494 0.11025,0.14883 0.13367,0.0537 0.0717,0.15296 0.0289,0.226 -0.0345,0.0276 -0.15985,0.16674 -0.20395,0.0193 -0.04,0.0441 0.0372,0.091 0.34451,0.0165 0.0744,-0.0537 0.0841,-0.005 0.005,0.04 0.22462,0.01 -0.004,-0.0455 -0.0165,-0.38309 -0.0772,-0.39136 0.0358,-0.11162 -0.0372,-0.17088 0.31419,0.11851 0.36656,0.0413 0.12954,0.34589 0.11437,0.51539 0.0937,0.13091 0.17501,-0.0138 0.34176,-0.16261 0.13091,-0.0551 0.0634,-0.0827 0.0937,-0.0165 0.16812,-0.0193 0.0537,0.0799 c 0,0 0.007,0.10611 0.0165,0.15985 0.01,0.0524 0.0331,0.0923 0.0854,0.11989 0.0524,0.0262 0.15021,-0.0469 0.15021,-0.0469 m -3.41202,-0.04 0.0193,-0.13505 -0.0248,-0.15847 -0.0937,-0.15985 -0.0152,-0.0951 0.0234,-0.04 -0.0648,-0.15847 -0.15296,-0.008 -0.13092,0.0937 -0.15296,0.0372 -0.0606,-0.0524 -0.21498,10e-4 -0.0551,-0.0689 0.0358,-0.41617 h 0.0441 l 0.19292,-0.0179 0.0469,-0.0965 0.0138,-0.17363 0.0524,-0.0675 -0.0345,-0.32798 -0.18052,-0.29627 -0.1571,-0.0593 -0.0152,-0.0841 0.0455,-0.022 0.0799,-0.0661 0.0524,-0.073 -0.0593,-0.1695 -0.18052,-0.34726 -0.21635,-0.21911 -0.20671,-0.0937 -0.15847,0.0372 -0.0579,0.0951 -0.10197,0.0207 -0.21498,-0.14882 h -0.13091 l 0.01,-0.006 -0.0799,-0.0758 0.0179,-0.0441 0.0441,-0.011 c 0,0 -0.0138,-0.0138 -0.0165,-0.0344 -0.003,-0.0193 0.001,-0.022 0.004,-0.0276 0.003,-0.005 0.0124,-0.0482 0.0124,-0.0482 l 0.008,-0.051 v -0.04 c 0,0 -0.001,-0.0276 -0.003,-0.0469 -0.001,-0.0207 -0.001,-0.0193 -0.005,-0.0317 -0.004,-0.0124 -0.011,-0.04 -0.011,-0.04 0,0 -0.0165,-0.0372 -0.0303,-0.0551 -0.0152,-0.0193 -0.04,-0.0482 -0.04,-0.0482 l -0.0275,-0.0296 c 0,0 -0.0358,-0.0276 -0.0441,-0.0303 -0.008,-0.003 -0.0496,-0.0207 -0.0496,-0.0207 l -0.0565,-0.0138 -0.0482,-0.005 -0.062,-0.006 -0.0648,0.008 -0.0593,0.011 c 0,0 -0.0593,0.0193 -0.0772,0.0331 -0.0179,0.0138 -0.007,0.004 -0.0482,0.0344 -0.0413,0.0317 -0.0469,0.0537 -0.0469,0.0537 l -0.0344,0.0634 -0.022,0.0606 -0.0138,0.0661 -0.005,0.0276 -0.0193,0.0317 -0.0344,0.0207 -0.0262,0.0124 c 0,0 -0.0262,10e-4 -0.0303,10e-4 -0.004,0 0.007,0.004 0.0207,0.004 l 0.17915,0.0372 -0.0648,0.15434 0.0207,0.004 0.0441,0.0248 0.0152,0.0413 0.0248,0.10749 0.0234,0.0207 -0.19844,-0.0138 -0.13505,-0.051 -0.23151,-0.1006 -0.13505,-0.0675 -0.18052,-0.0675 -0.1819,-0.0455 -0.15158,-0.0455 -0.091,-0.0675 -0.0965,-0.0372 -0.0565,-0.0827 -0.0841,-0.1006 -0.0537,-0.0579 -0.0593,-0.0482 -0.073,-0.0345 0.005,0.0896 0.0234,0.10335 0.0234,0.0689 0.0551,0.10336 0.005,0.0634 0.051,0.0565 0.04,0.0455 0.0331,0.0565 0.0345,0.0386 0.0965,0.0317 0.0469,0.14194 0.0923,-0.0689 -0.0841,-0.0978 0.0124,0.006 h 0.0786 l 0.0565,0.062 0.0165,0.062 0.062,0.0496 0.0965,0.0799 0.11851,0.073 0.1695,0.0965 0.11851,0.062 0.18052,0.073 0.21911,0.0786 0.23151,0.0565 0.15159,0.0469 0.011,0.0207 0.051,0.0648 0.0303,0.051 0.0262,0.0482 0.18879,0.27699 -0.0799,0.0896 0.1571,0.25493 -0.71658,0.0165 -0.15021,0.14883 0.022,0.33348 0.0358,0.25494 0.11025,0.14883 0.13504,0.0524 0.0703,0.15434 0.0303,0.226 -0.0345,0.0276 -0.001,10e-4 -0.0772,-0.011 -0.81304,-1.85897 0.0179,-0.0289 0.0469,-0.0358 v -0.0634 l -0.0524,-0.0179 -0.0703,-0.0179 -0.23427,-0.57189 -0.22186,0.10473 0.19292,0.47405 h -0.0358 l -0.0165,0.0345 h -0.0358 l -0.011,0.0992 0.0289,0.011 v 0.0482 l 0.0345,0.022 0.0179,0.1819 -0.0703,0.006 0.0124,0.0648 -0.0358,0.0524 -0.12265,0.0289 -0.006,0.1695 -0.0344,0.0234 -0.0593,0.18741 -0.61874,1.04042 -0.12402,0.011 -0.006,0.0882 h 0.31006 v -0.0936 l -0.0882,-0.0179 0.58567,-0.99357 h 0.10473 l -0.22876,0.67248 0.0593,0.0234 0.27423,-0.77722 0.11162,-0.0179 0.40928,0.97014 -0.0648,0.0124 v 0.0868 l 0.21635,0.007 0.006,-0.10059 -0.0813,-0.0234 -0.41479,-0.97565 0.0289,-0.0345 -0.0124,-0.0469 -0.011,-0.0469 -0.0524,-0.0413 -0.0179,-0.14607 -0.0413,-0.0524 0.0179,-0.0469 0.13505,-0.006 0.57189,1.33808 v 0.23426 l -0.20946,0.14056 -0.47956,0.0165 0.011,0.1819 0.92329,0.21635 0.81855,-0.21084 0.0234,-0.22186 -0.25907,-0.0372 -0.006,-0.15434 -0.0786,-0.38998 0.0358,-0.11162 -0.0358,-0.17088 0.31282,0.11851 0.36655,0.04 0.12954,0.34726 0.11576,0.51539 0.0937,0.13091 0.17501,-0.0138 0.34038,-0.16261 0.13091,-0.0551 0.0634,-0.0827 0.0965,0.0179 0.20808,-0.0124 0.011,0.0386 -0.003,0.15848 0.10473,0.11989 z m -2.53008,-3.12125 -0.0303,0.003 0.007,-0.003 z"
       id="U-S-mortar" />
  </g>
</svg>
