<?xml version="1.0" encoding="UTF-8" standalone="no"?>
<!-- Created with Inkscape (http://www.inkscape.org/) -->

<svg
   width="11.76147mm"
   height="5.98913mm"
   viewBox="0 0 11.76147 5.98913"
   version="1.1"
   id="svg1"
   sodipodi:docname="inkporter-svg-t88uw0ml.svg"
   xmlns:inkscape="http://www.inkscape.org/namespaces/inkscape"
   xmlns:sodipodi="http://sodipodi.sourceforge.net/DTD/sodipodi-0.dtd"
   xmlns="http://www.w3.org/2000/svg"
   xmlns:svg="http://www.w3.org/2000/svg">
  <sodipodi:namedview
     id="namedview1"
     pagecolor="#ffffff"
     bordercolor="#000000"
     borderopacity="0.25"
     inkscape:showpageshadow="2"
     inkscape:pageopacity="0.0"
     inkscape:pagecheckerboard="0"
     inkscape:deskcolor="#d1d1d1"
     inkscape:document-units="mm"
     inkscape:zoom="1.0476431"
     inkscape:cx="396.60453"
     inkscape:cy="561.25984"
     inkscape:window-width="2560"
     inkscape:window-height="1368"
     inkscape:window-x="0"
     inkscape:window-y="0"
     inkscape:window-maximized="1"
     inkscape:current-layer="layer1" />
  <defs
     id="defs1" />
  <g
     inkscape:label="Layer 1"
     inkscape:groupmode="layer"
     id="layer1"
     transform="translate(-54.55464,-117.47579)">
    <g
       id="U-S-Infantry4"
       transform="translate(-138.06203,-391.31796)">
      <path
         style="fill:#000000;stroke-width:0.0138234"
         d="m 198.88471,514.71776 c -2.1e-4,-0.0207 -0.0727,-0.0464 -0.1312,-0.0464 -0.0312,0 -0.0641,-0.007 -0.0732,-0.0166 -0.02,-0.02 -0.0222,-0.094 -0.003,-0.094 0.007,0 0.0138,-0.0145 0.0138,-0.0325 0,-0.0306 0.0375,-0.0782 0.0616,-0.0782 0.006,0 0.0445,-0.0343 0.0853,-0.0761 l 0.0742,-0.0761 v -0.0968 c 0,-0.11726 -2.2e-4,-0.1142 0.0135,-0.1313 0.006,-0.007 0.0114,-0.0912 0.0117,-0.18585 l 4.2e-4,-0.17201 -0.0251,-0.0218 c -0.0138,-0.012 -0.0378,-0.0443 -0.0532,-0.0719 l -0.0282,-0.05 0.0175,-0.0511 c 0.01,-0.0281 0.0279,-0.0631 0.0404,-0.0777 l 0.0228,-0.0267 v -0.12444 c 0,-0.0685 0.005,-0.13524 0.0121,-0.14845 0.0572,-0.11353 0.0709,-0.15022 0.0709,-0.19036 0,-0.0255 0.006,-0.0501 0.0138,-0.0549 l 0.0138,-0.008 v -0.11587 -0.11587 l 0.0138,-0.008 0.0138,-0.008 v -0.17198 -0.17197 h -0.0138 c -0.007,0 -0.0138,-0.0124 -0.0138,-0.0276 0,-0.0152 -0.006,-0.0276 -0.0138,-0.0276 -0.007,0 -0.0138,-0.0121 -0.0138,-0.0269 0,-0.0147 -0.006,-0.0307 -0.0138,-0.0354 -0.007,-0.005 -0.0138,-0.0206 -0.0138,-0.0353 v -0.0267 l -0.0829,-0.0842 c -0.0456,-0.0464 -0.0829,-0.0917 -0.0829,-0.10071 0,-0.009 -0.0124,-0.0255 -0.0276,-0.0363 -0.0152,-0.011 -0.0276,-0.031 -0.0276,-0.0445 0,-0.0135 -0.006,-0.0246 -0.0138,-0.0246 -0.007,0 -0.0139,-0.008 -0.0139,-0.0181 0,-0.01 -0.0124,-0.0315 -0.0276,-0.0478 -0.0152,-0.0164 -0.0276,-0.0389 -0.0276,-0.0502 0,-0.0112 -0.006,-0.0243 -0.0138,-0.0291 -0.007,-0.005 -0.0138,-0.048 -0.0138,-0.0962 v -0.0876 l 0.0414,-0.0788 c 0.0228,-0.0433 0.0414,-0.0904 0.0414,-0.10466 0,-0.0142 0.0186,-0.0396 0.0414,-0.0565 0.0228,-0.0169 0.0414,-0.0412 0.0414,-0.0541 0,-0.0129 0.014,-0.0329 0.0311,-0.0445 0.0171,-0.0116 0.0591,-0.0464 0.0933,-0.0773 0.0343,-0.0309 0.0699,-0.0563 0.0795,-0.0566 0.01,-2.1e-4 0.0172,-0.007 0.0172,-0.0142 0,-0.007 0.007,-0.0138 0.0151,-0.0138 0.008,0 0.0316,-0.0114 0.0518,-0.0254 0.0201,-0.014 0.0678,-0.033 0.1058,-0.0423 0.18173,-0.0445 0.18675,-0.0476 0.24276,-0.14652 l 0.0314,-0.0553 -0.003,-0.0412 c -0.002,-0.0227 -0.009,-0.0472 -0.0161,-0.0546 -0.007,-0.007 -0.0134,-0.0272 -0.0134,-0.0444 0,-0.017 -0.006,-0.0348 -0.0138,-0.0395 l -0.0138,-0.008 v -0.10053 -0.10052 l 0.0335,-0.0661 c 0.0459,-0.0907 0.0972,-0.14057 0.18729,-0.18217 0.0421,-0.0194 0.0872,-0.041 0.10045,-0.0478 0.0133,-0.007 0.0704,-0.0126 0.12706,-0.0126 h 0.10304 l 0.008,0.0138 c 0.005,0.007 0.0193,0.0138 0.0326,0.0138 0.0302,0 0.0985,0.0311 0.0986,0.0449 5e-5,0.005 0.008,0.0103 0.0187,0.0103 0.0102,0 0.0552,0.0373 0.1,0.0829 0.0448,0.0456 0.0909,0.0829 0.10244,0.0829 0.0116,0 0.0289,0.0125 0.0385,0.0278 l 0.0175,0.0279 -0.0214,0.0412 c -0.0117,0.0227 -0.0305,0.0412 -0.0417,0.0412 -0.0112,0 -0.0204,0.006 -0.0204,0.0138 0,0.007 -0.0121,0.0138 -0.0268,0.0138 -0.0426,0 -0.0456,0.023 -0.008,0.0607 l 0.0348,0.0348 v 0.0354 c 0,0.0195 -0.007,0.0477 -0.0172,0.0629 l -0.0171,0.0275 0.0171,0.0275 c 0.009,0.0152 0.0172,0.0587 0.0172,0.0968 v 0.0693 h 0.0227 c 0.0319,0 0.0593,0.0411 0.0599,0.0899 l 4.9e-4,0.0414 0.0372,0.0172 c 0.0205,0.01 0.0419,0.0173 0.0476,0.0173 0.0151,0 0.0808,0.0679 0.0808,0.0836 0,0.007 0.0249,0.0388 0.0553,0.0701 l 0.0553,0.057 v 0.0321 c 0,0.0177 0.006,0.0359 0.0138,0.0406 0.007,0.005 0.0138,0.042 0.0138,0.0829 0,0.041 0.006,0.0783 0.0138,0.0829 0.007,0.005 0.0138,0.0474 0.0138,0.0948 0,0.0475 0.005,0.0922 0.0127,0.0994 0.0133,0.0138 0.0249,0.11119 0.0372,0.31379 l 0.007,0.12097 h -0.0149 c -0.008,0 -0.0148,0.01 -0.0148,0.021 0,0.0116 -0.0149,0.0267 -0.0331,0.0337 -0.0437,0.0166 -0.0774,0.0871 -0.0774,0.16164 v 0.0601 h -0.0138 c -0.0244,0 -0.0147,0.0485 0.0138,0.0691 0.0152,0.011 0.0276,0.0277 0.0276,0.0372 0,0.01 0.0124,0.0394 0.0276,0.0665 0.0152,0.0271 0.0278,0.0568 0.028,0.0661 1.5e-4,0.009 0.0124,0.0325 0.0273,0.0514 0.0149,0.019 0.0272,0.0485 0.0273,0.0657 1.4e-4,0.0171 0.006,0.0311 0.0142,0.0311 0.007,0 0.0138,0.009 0.0138,0.0193 0,0.0106 0.0187,0.0548 0.0415,0.0982 0.0228,0.0433 0.0414,0.0942 0.0414,0.11298 0,0.0376 0.0111,0.0511 0.0829,0.10165 0.0649,0.0456 0.13823,0.12221 0.13823,0.14435 0,0.01 0.0124,0.0211 0.0276,0.0252 0.0152,0.005 0.0276,0.0171 0.0276,0.0293 0,0.0122 0.008,0.022 0.0187,0.022 0.0102,0 0.0382,0.0187 0.0621,0.0414 l 0.0434,0.0414 h 0.0425 c 0.0234,0 0.0521,0.01 0.0638,0.0212 l 0.0212,0.0212 -0.007,0.0267 -0.007,0.0267 0.0193,0.016 c 0.024,0.0199 0.024,0.0536 5e-5,0.0852 l -0.0184,0.0242 h -0.0572 -0.0572 l -0.057,-0.0553 c -0.0314,-0.0304 -0.0629,-0.0553 -0.0702,-0.0553 -0.007,0 -0.0372,-0.0249 -0.0664,-0.0553 -0.0293,-0.0305 -0.0629,-0.0553 -0.075,-0.0553 -0.012,0 -0.0218,-0.005 -0.0218,-0.0123 0,-0.007 -0.0189,-0.015 -0.0419,-0.0185 l -0.0419,-0.006 0.0143,0.0143 c 0.0399,0.0399 0.0111,0.20731 -0.0444,0.25903 -0.0257,0.0239 -0.0336,0.0953 -0.0106,0.0953 h 0.0136 l -0.002,0.23875 -0.002,0.23876 0.0292,0.0519 c 0.016,0.0286 0.0292,0.0618 0.0292,0.0739 0,0.0247 0.0933,0.1155 0.11862,0.1155 0.0266,0 0.0887,0.0362 0.1098,0.064 0.0444,0.0586 0.015,0.1571 -0.0469,0.1571 -0.0154,0 -0.0316,0.006 -0.0364,0.0138 -0.005,0.007 -0.0393,0.0138 -0.0768,0.0138 h -0.0683 v 0.0138 0.0138 h -0.15915 -0.15915 l -0.0306,-0.0173 c -0.0504,-0.0283 -0.0649,-0.0554 -0.0653,-0.12164 -2.1e-4,-0.0347 -0.006,-0.0688 -0.0135,-0.0761 -0.007,-0.007 -0.016,-0.0971 -0.0196,-0.19974 -0.007,-0.21059 -0.0195,-0.31871 -0.0378,-0.33799 -0.007,-0.007 -0.0125,-0.0271 -0.0125,-0.0442 0,-0.017 -0.005,-0.0344 -0.0122,-0.0386 -0.007,-0.005 -0.0157,-0.0279 -0.0201,-0.0527 -0.005,-0.0248 -0.012,-0.0653 -0.0169,-0.09 l -0.009,-0.0449 h -0.0211 c -0.0116,0 -0.0293,-0.0109 -0.0395,-0.0242 l -0.0184,-0.0242 -4.3e-4,-0.0793 c -2.1e-4,-0.0436 -0.008,-0.1076 -0.0172,-0.1422 l -0.0168,-0.0629 0.0168,-0.027 c 0.0321,-0.0514 0.0181,-0.10301 -0.0404,-0.14869 l -0.0226,-0.0176 -0.0365,0.0166 -0.0365,0.0166 -0.0162,-0.0162 c -0.009,-0.009 -0.0457,-0.0163 -0.0817,-0.0163 -0.036,0 -0.0694,-0.006 -0.0741,-0.0138 -0.005,-0.007 -0.0254,-0.0138 -0.0461,-0.0138 h -0.0376 l -0.0198,-0.0276 c -0.011,-0.0152 -0.027,-0.0276 -0.0355,-0.0276 -0.008,0 -0.0418,-0.0312 -0.0739,-0.0692 l -0.0583,-0.0692 -0.0198,0.0198 c -0.011,0.011 -0.0198,0.0296 -0.0198,0.0416 0,0.012 -0.006,0.0218 -0.0138,0.0218 -0.007,0 -0.0139,0.008 -0.0139,0.0181 0,0.01 -0.0124,0.0315 -0.0276,0.0478 -0.0152,0.0164 -0.0276,0.0455 -0.0276,0.0648 0,0.0193 -0.006,0.0351 -0.0138,0.0351 h -0.0138 v 0.0683 c 0,0.0375 -0.006,0.0721 -0.0139,0.0768 -0.007,0.005 -0.0138,0.0358 -0.0138,0.0691 0,0.0333 -0.006,0.0644 -0.0138,0.0691 -0.007,0.005 -0.0138,0.0423 -0.0138,0.0838 v 0.0752 h -0.0138 c -0.007,0 -0.0138,0.0103 -0.0138,0.0229 0,0.0125 -0.0249,0.0465 -0.0553,0.0755 l -0.0553,0.0526 v 0.0412 c 0,0.0227 -0.006,0.0451 -0.0139,0.0497 -0.007,0.005 -0.0138,0.0358 -0.0138,0.0691 0,0.0334 -0.006,0.0644 -0.0138,0.0691 -0.007,0.005 -0.0138,0.0389 -0.0138,0.0761 0,0.0371 -0.006,0.0713 -0.0138,0.0761 l -0.0138,0.008 v 0.17116 0.17115 l -0.0138,0.008 c -0.007,0.005 -0.0138,0.0335 -0.0138,0.064 0,0.0895 -0.0301,0.10401 -0.24537,0.11803 l -0.11405,0.007 -9e-5,-0.0117 z m 1.2666,-1.61461 0.007,-0.02 -0.0289,-0.031 c -0.0158,-0.017 -0.0289,-0.0361 -0.0289,-0.0425 0,-0.0154 -0.14813,-0.16298 -0.16353,-0.16298 -0.007,0 -0.0316,-0.0187 -0.0555,-0.0414 -0.059,-0.0564 -0.0951,-0.0497 -0.11779,0.0217 l -0.009,0.0272 0.12341,0.12063 0.12341,0.12064 h 0.0485 c 0.0266,0 0.0523,0.006 0.0571,0.0138 0.0124,0.0201 0.0343,0.0169 0.0432,-0.006 z"
         id="path277" />
      <path
         style="fill:#000000;stroke-width:0.0138234"
         d="m 196.28998,514.72671 -0.007,-0.0276 h -0.0399 -0.0399 v -0.0276 -0.0276 h -0.0752 -0.0753 l -0.0101,-0.0164 c -0.005,-0.009 -0.009,-0.0496 -0.008,-0.0904 l 0.002,-0.0741 0.0202,-0.0201 c 0.0111,-0.0111 0.0269,-0.0202 0.0351,-0.0202 0.033,0 0.1114,-0.0567 0.1114,-0.0806 0,-0.007 0.0178,-0.0473 0.0396,-0.0887 0.0404,-0.0767 0.0531,-0.12136 0.0665,-0.23167 0.005,-0.0343 0.0134,-0.0696 0.0208,-0.0786 l 0.0134,-0.0164 -0.0149,-0.0277 -0.0149,-0.0277 0.0139,-0.008 c 0.007,-0.005 0.0139,-0.0358 0.0139,-0.0691 0,-0.0333 0.006,-0.0644 0.0138,-0.0691 0.0414,-0.0256 0.009,-0.14225 -0.0449,-0.16278 l -0.0242,-0.009 v -0.0415 c 0,-0.0228 0.0124,-0.0636 0.0276,-0.0907 0.0152,-0.0271 0.0276,-0.0704 0.0276,-0.0964 0,-0.026 0.006,-0.051 0.0138,-0.0557 0.007,-0.005 0.0138,-0.0287 0.0138,-0.0535 v -0.0449 l 0.0242,-0.0268 c 0.0392,-0.0434 0.0571,-0.0911 0.0645,-0.17194 0.0116,-0.12741 0.0242,-0.19979 0.0372,-0.21357 0.007,-0.007 0.0124,-0.0364 0.0124,-0.0649 0,-0.0284 0.006,-0.0555 0.0138,-0.0602 0.007,-0.005 0.0138,-0.0234 0.0138,-0.0414 0,-0.0181 0.006,-0.0367 0.0138,-0.0414 0.007,-0.005 0.0138,-0.0265 0.0138,-0.0484 0,-0.022 0.006,-0.0437 0.0138,-0.0484 0.007,-0.005 0.0138,-0.0237 0.0138,-0.0422 0,-0.0186 -0.006,-0.0337 -0.0138,-0.0337 h -0.0138 v -0.0691 -0.0691 h 0.0138 c 0.007,0 0.0138,-0.0156 0.0138,-0.0347 0,-0.0304 0.0211,-0.0831 0.0414,-0.10349 0.005,-0.005 0.0151,-0.0214 0.0251,-0.0391 l 0.0181,-0.0323 -0.0284,-0.0247 -0.0284,-0.0247 v -0.0751 -0.0751 l -0.0166,-0.0166 -0.0166,-0.0166 h -0.1362 -0.13621 l -0.049,-0.0333 c -0.0606,-0.0412 -0.11548,-0.11985 -0.11548,-0.16563 0,-0.019 -0.006,-0.0384 -0.0144,-0.0434 l -0.0144,-0.009 0.003,-0.0714 c 0.002,-0.0393 0.007,-0.0776 0.0133,-0.0852 0.005,-0.007 0.014,-0.0947 0.0181,-0.19353 0.009,-0.21896 0.021,-0.32748 0.0376,-0.34489 0.007,-0.007 0.0125,-0.0271 0.0125,-0.0441 0,-0.017 0.006,-0.0348 0.0138,-0.0396 0.007,-0.005 0.0138,-0.0179 0.0138,-0.0294 0,-0.0484 0.16044,-0.24013 0.20089,-0.24013 0.0162,0 0.13088,-0.11554 0.13088,-0.13183 0,-0.005 0.0115,-0.0255 0.0255,-0.0457 0.014,-0.0202 0.029,-0.0507 0.0333,-0.0678 l 0.007,-0.0311 -0.0229,-4.3e-4 c -0.0125,-2.1e-4 -0.0351,-0.01 -0.05,-0.021 l -0.0272,-0.0205 0.003,-0.0568 0.002,-0.0568 -0.0546,-0.0525 -0.0547,-0.0525 v -0.0417 c 0,-0.0229 0.006,-0.0456 0.0138,-0.0503 0.0325,-0.0201 -0.0652,-0.0899 -0.12572,-0.0899 h -0.0264 v -0.0463 -0.0463 l 0.0276,-0.0251 c 0.0152,-0.0137 0.0276,-0.0357 0.0276,-0.0485 0,-0.0816 0.14602,-0.27221 0.24191,-0.3159 0.0228,-0.0104 0.0522,-0.0243 0.0655,-0.0311 0.0132,-0.007 0.0828,-0.0122 0.1547,-0.0122 h 0.13069 l 0.008,0.0138 c 0.005,0.007 0.0222,0.014 0.0389,0.0142 0.0384,4.3e-4 0.16161,0.0899 0.16161,0.11729 0,0.0113 0.006,0.0207 0.0139,0.0207 0.007,0 0.0138,0.0121 0.0138,0.0268 0,0.0147 0.006,0.0307 0.0138,0.0354 0.007,0.005 0.0138,0.0238 0.0138,0.0422 0,0.0186 0.006,0.0337 0.0138,0.0337 h 0.0138 v 0.0821 c 0,0.0452 0.005,0.0858 0.013,0.0902 0.007,0.005 0.013,0.0484 0.013,0.0976 v 0.0896 h -0.026 c -0.0143,0 -0.0298,0.006 -0.0346,0.0138 -0.005,0.007 -0.0237,0.0138 -0.0422,0.0138 h -0.0337 v 0.0496 0.0496 l 0.0276,0.007 0.0276,0.007 v 0.0261 0.026 h 0.0249 c 0.0136,0 0.0308,0.005 0.038,0.0127 0.0128,0.0125 0.0546,0.0169 0.33107,0.0351 0.13062,0.008 0.21427,0.029 0.21427,0.0524 0,0.005 0.008,0.0104 0.019,0.0104 0.0104,0 0.0288,0.014 0.0408,0.0311 l 0.0217,0.0311 4.9e-4,-0.0219 c 4.4e-4,-0.012 0.0318,-0.0533 0.0698,-0.0917 0.038,-0.0384 0.0693,-0.0753 0.0697,-0.0818 2.1e-4,-0.006 0.019,-0.0335 0.0414,-0.0599 0.0225,-0.0263 0.041,-0.0559 0.041,-0.0656 0,-0.01 0.006,-0.0177 0.0138,-0.0177 0.007,0 0.0139,-0.007 0.0139,-0.0173 5e-5,-0.01 0.0186,-0.0372 0.0414,-0.0614 0.0228,-0.0242 0.0414,-0.0501 0.0414,-0.0572 0,-0.007 0.0187,-0.0331 0.0414,-0.0575 0.0228,-0.0244 0.0414,-0.0502 0.0414,-0.0573 0,-0.007 0.0114,-0.0251 0.0255,-0.0402 0.014,-0.015 0.0339,-0.0443 0.0443,-0.0651 0.0104,-0.0208 0.0293,-0.0502 0.0423,-0.0655 0.0326,-0.0384 0.0815,-0.12849 0.0815,-0.15023 0,-0.01 0.0296,-0.0486 0.0658,-0.0859 0.0979,-0.10102 0.16571,-0.25453 0.11237,-0.25453 -0.024,0 -0.0119,-0.0432 0.0217,-0.0766 0.0188,-0.0187 0.0392,-0.034 0.0456,-0.034 0.0322,0 0.0822,-0.0369 0.10156,-0.0748 l 0.0217,-0.0427 0.0783,-0.005 0.0783,-0.005 v 0.0352 c 0,0.0194 -0.006,0.0352 -0.0138,0.0352 -0.007,0 -0.0138,0.0117 -0.0138,0.026 v 0.0261 l 0.0276,0.007 0.0276,0.007 v 0.0466 0.0466 l -0.0276,0.0198 c -0.0152,0.011 -0.0276,0.0311 -0.0276,0.0445 0,0.0135 -0.006,0.0246 -0.0138,0.0246 -0.007,0 -0.0138,0.0187 -0.0138,0.0414 0,0.0228 -0.006,0.0414 -0.0138,0.0414 -0.007,0 -0.0138,0.0124 -0.0138,0.0276 0,0.0152 -0.006,0.0276 -0.0138,0.0276 -0.007,0 -0.0138,0.0124 -0.0138,0.0276 0,0.0152 -0.006,0.0276 -0.0138,0.0276 -0.007,0 -0.0138,0.009 -0.0138,0.0209 0,0.0115 -0.006,0.0333 -0.0138,0.0484 -0.007,0.0152 -0.02,0.0398 -0.0276,0.0549 -0.007,0.0151 -0.0138,0.0368 -0.0138,0.0484 0,0.0115 -0.006,0.0209 -0.0138,0.0209 -0.007,0 -0.0138,0.0124 -0.0138,0.0276 0,0.0152 -0.006,0.0276 -0.0138,0.0276 -0.0187,0 -0.0175,0.036 0.003,0.0678 l 0.0163,0.0261 -0.0222,0.0222 c -0.0242,0.0243 -0.0933,0.0304 -0.0933,0.008 0,-0.007 -0.0124,-0.0138 -0.0276,-0.0138 h -0.0276 v -0.0276 c 0,-0.0469 -0.0313,-0.0263 -0.068,0.0449 -0.0108,0.0209 -0.0248,0.038 -0.0311,0.038 -0.006,0 -0.0115,0.008 -0.0115,0.0181 0,0.01 -0.0109,0.0302 -0.0242,0.0449 -0.0134,0.0147 -0.033,0.0439 -0.0438,0.0648 -0.0108,0.0209 -0.0248,0.038 -0.0311,0.038 -0.006,0 -0.0115,0.0124 -0.0115,0.0276 0,0.0152 -0.006,0.0276 -0.0138,0.0276 -0.007,0 -0.0138,0.0124 -0.0138,0.0276 0,0.0152 -0.006,0.0276 -0.0138,0.0276 -0.007,0 -0.0138,0.0124 -0.0138,0.0276 v 0.0276 h 0.0251 0.025 l 0.0302,0.0566 c 0.0166,0.0311 0.0302,0.0765 0.0302,0.10092 0,0.0243 0.007,0.0509 0.0146,0.059 l 0.0146,0.0146 -0.007,0.15741 c -0.008,0.18715 -0.0208,0.2908 -0.0378,0.30878 -0.007,0.007 -0.0125,0.0676 -0.0125,0.13397 v 0.12083 l -0.0138,0.008 c -0.007,0.005 -0.0138,0.0195 -0.0138,0.0328 0,0.0134 -0.0124,0.0499 -0.0276,0.0815 -0.0152,0.0315 -0.0276,0.0762 -0.0276,0.0994 0,0.0231 -0.006,0.0421 -0.0139,0.0421 -0.007,0 -0.0138,0.0124 -0.0138,0.0276 0,0.0152 -0.005,0.0277 -0.0104,0.0278 -0.0154,1.6e-4 -0.0449,0.0699 -0.0449,0.10632 0,0.0176 -0.006,0.0318 -0.0138,0.0318 -0.007,0 -0.0139,0.0214 -0.0139,0.0475 0,0.0262 -0.006,0.0514 -0.0138,0.0561 -0.007,0.005 -0.0139,0.0269 -0.0139,0.0492 0,0.0224 -0.006,0.0407 -0.0138,0.0407 -0.007,0 -0.0138,0.0152 -0.0138,0.0337 0,0.0186 -0.006,0.0376 -0.0138,0.0422 -0.007,0.005 -0.0138,0.0234 -0.0138,0.0414 0,0.0181 -0.006,0.0367 -0.0138,0.0414 -0.007,0.005 -0.0138,0.0207 -0.0138,0.0354 0,0.0147 -0.006,0.0268 -0.0138,0.0268 -0.007,0 -0.0138,0.0152 -0.0138,0.0337 0,0.0186 -0.006,0.0376 -0.0138,0.0423 -0.007,0.005 -0.0138,0.0331 -0.0138,0.063 0,0.03 0.006,0.0545 0.0138,0.0545 0.007,0 0.0138,0.008 0.0138,0.018 0,0.0254 0.0326,0.0924 0.0449,0.0925 0.005,5e-5 0.0104,0.0305 0.0104,0.0677 v 0.0677 l -0.0205,0.008 -0.0205,0.008 0.009,0.0455 c 0.005,0.0251 0.0141,0.0475 0.0205,0.0501 0.006,0.003 0.0116,0.0224 0.0116,0.0441 0,0.0218 0.006,0.0433 0.0138,0.0481 0.007,0.005 0.0138,0.0205 0.0138,0.0349 0,0.0145 0.0124,0.0486 0.0276,0.0756 0.0152,0.0271 0.0276,0.0673 0.0276,0.0894 0,0.0221 0.006,0.0441 0.0138,0.0487 0.007,0.005 0.0138,0.0299 0.0138,0.0561 0,0.0262 0.006,0.0475 0.0138,0.0475 0.007,0 0.0138,0.0186 0.0138,0.0414 0,0.0228 0.006,0.0414 0.0138,0.0414 0.007,0 0.0138,0.0121 0.0138,0.0268 0,0.0147 0.006,0.0307 0.0138,0.0354 l 0.0138,0.008 v 0.27584 0.27584 l -0.0173,0.0308 c -0.01,0.0169 -0.0287,0.0413 -0.0426,0.0543 l -0.0253,0.0235 7.1e-4,0.13487 6.9e-4,0.13486 0.0139,0.0139 c 0.007,0.007 0.014,0.0516 0.0142,0.0975 l 2.2e-4,0.0836 0.027,0.0346 c 0.0149,0.019 0.0272,0.0423 0.0273,0.0518 1.6e-4,0.01 0.006,0.0173 0.0142,0.0173 0.007,0 0.0138,0.0183 0.0138,0.0407 0,0.0223 0.006,0.0445 0.0138,0.0492 0.007,0.005 0.0138,0.021 0.0138,0.0364 0,0.0362 0.0318,0.0673 0.0688,0.0673 0.0339,0 0.0971,0.058 0.0971,0.0892 0,0.0117 0.006,0.0213 0.0138,0.0213 0.007,0 0.0138,0.009 0.0138,0.0209 0,0.0115 0.007,0.0325 0.016,0.0466 0.009,0.0141 0.0121,0.0358 0.007,0.0482 l -0.009,0.0226 h -0.21469 -0.2147 v -0.0138 -0.0138 h -0.0555 c -0.0305,0 -0.0678,-0.006 -0.0829,-0.0138 -0.0152,-0.007 -0.0398,-0.02 -0.055,-0.0276 -0.0151,-0.007 -0.0399,-0.0138 -0.0553,-0.0138 h -0.0279 v -0.12689 -0.12688 l -0.0167,-0.0464 -0.0167,-0.0464 0.0167,-0.027 0.0167,-0.0269 v -0.13761 -0.1376 l -0.0138,-0.008 c -0.007,-0.005 -0.0138,-0.0342 -0.0138,-0.0655 0,-0.0314 -0.007,-0.0779 -0.0167,-0.10342 l -0.0167,-0.0464 0.0176,-0.0283 0.0175,-0.0283 -0.0284,-0.0247 c -0.0156,-0.0136 -0.0284,-0.0379 -0.0284,-0.0543 0,-0.0163 -0.0186,-0.0491 -0.0414,-0.073 l -0.0414,-0.0434 v -0.0455 c 0,-0.025 0.006,-0.0494 0.0138,-0.054 0.007,-0.005 0.0138,-0.0256 0.0138,-0.0464 0,-0.0208 0.007,-0.0461 0.0173,-0.0562 l 0.0172,-0.0184 -0.0172,-0.006 c -0.01,-0.004 -0.0173,-0.0182 -0.0173,-0.0328 v -0.0265 h -0.0191 c -0.0105,0 -0.0293,-0.0153 -0.0414,-0.0341 l -0.0223,-0.0341 v -0.0765 -0.0765 h -0.0138 c -0.007,0 -0.0138,0.01 -0.0138,0.0218 0,0.0534 -0.079,0.081 -0.11848,0.0414 l -0.0197,-0.0197 v -0.11218 -0.11221 l -0.034,-0.034 c -0.0187,-0.0186 -0.0435,-0.034 -0.0553,-0.034 -0.0117,0 -0.0213,-0.006 -0.0213,-0.0138 0,-0.0221 -0.0944,-0.016 -0.13181,0.008 -0.0186,0.0122 -0.0341,0.0276 -0.0341,0.034 0,0.006 -0.0249,0.0364 -0.0553,0.0664 -0.0304,0.0301 -0.0553,0.0645 -0.0553,0.0765 0,0.012 -0.006,0.0218 -0.0138,0.0218 -0.007,0 -0.0139,0.0111 -0.0139,0.0246 0,0.0135 -0.0124,0.0336 -0.0276,0.0445 -0.0152,0.011 -0.0276,0.0311 -0.0276,0.0445 0,0.0135 -0.006,0.0246 -0.0138,0.0246 h -0.0138 v 0.0635 0.0635 l -0.0306,0.0436 c -0.0168,0.024 -0.0355,0.0457 -0.0414,0.0482 -0.016,0.007 -0.0133,0.0853 0.003,0.0853 0.0284,0 0.0124,0.0638 -0.0276,0.11057 l -0.0413,0.0484 -3e-5,0.0358 c -3e-5,0.0329 -0.0364,0.0816 -0.0608,0.0816 -0.005,0 -0.0192,0.009 -0.0301,0.0197 l -0.0197,0.0197 v 0.0624 c 0,0.0343 -0.006,0.0662 -0.0138,0.0709 -0.007,0.005 -0.0138,0.0299 -0.0138,0.0561 0,0.0261 -0.006,0.0475 -0.0138,0.0475 -0.007,0 -0.0138,0.0214 -0.0138,0.0475 0,0.0261 -0.006,0.0514 -0.0138,0.056 l -0.0138,0.008 v 0.22451 0.22451 l -0.0134,0.0134 c -0.007,0.007 -0.0146,0.0463 -0.016,0.0862 -0.002,0.0401 -0.008,0.0761 -0.0143,0.08 -0.006,0.005 -0.0116,0.0255 -0.0116,0.0478 v 0.0407 h -0.0276 c -0.0152,0 -0.0276,0.006 -0.0276,0.0138 v 0.0138 h -0.13262 -0.13262 z m 1.69352,-2.86423 c 0.009,-0.009 0.0166,-0.024 0.0166,-0.0333 v -0.0166 l -0.0276,0.007 -0.0276,0.007 v 0.026 c 0,0.0299 0.0147,0.0335 0.0387,0.01 z m 0.0443,-0.11555 c 0,-0.0186 0.006,-0.0337 0.0138,-0.0337 0.007,0 0.0138,-0.0125 0.0138,-0.0279 0,-0.0154 0.006,-0.0401 0.0138,-0.0553 0.007,-0.0152 0.02,-0.0399 0.0276,-0.055 0.007,-0.0151 0.0138,-0.0462 0.0138,-0.0691 0,-0.0229 0.006,-0.0416 0.0138,-0.0416 0.007,0 0.0138,-0.0187 0.0138,-0.0414 0,-0.0229 0.006,-0.0414 0.0138,-0.0414 0.007,0 0.0138,-0.0152 0.0138,-0.0337 0,-0.0186 0.005,-0.0372 0.0122,-0.0413 0.007,-0.005 0.015,-0.0263 0.0184,-0.0492 l 0.006,-0.0416 h -0.0736 -0.0736 v -0.0139 c 0,-0.0247 -0.0482,-0.0145 -0.0659,0.0139 -0.01,0.0152 -0.0283,0.0276 -0.0417,0.0276 -0.0134,0 -0.0335,-0.0124 -0.0444,-0.0276 -0.011,-0.0152 -0.0311,-0.0276 -0.0445,-0.0276 -0.0135,0 -0.0246,-0.006 -0.0246,-0.0138 0,-0.007 -0.007,-0.0138 -0.0147,-0.0138 h -0.0148 l 0.005,0.036 0.005,0.0361 0.0602,0.0203 c 0.0331,0.0112 0.0814,0.0414 0.10713,0.0672 l 0.047,0.047 v 0.0619 c 0,0.034 -0.006,0.0657 -0.0138,0.0704 -0.007,0.005 -0.0138,0.0232 -0.0138,0.041 0,0.0179 -0.007,0.0362 -0.0173,0.0407 l -0.0172,0.008 0.0172,0.008 0.0173,0.008 v 0.0964 0.0964 l 0.0138,-0.008 c 0.007,-0.005 0.0138,-0.0237 0.0138,-0.0422 z m 0.33177,-1.1941 c 0,-0.03 0.006,-0.0583 0.0138,-0.0631 0.007,-0.005 0.0138,-0.0295 0.0138,-0.0553 0,-0.0257 -0.006,-0.0506 -0.0138,-0.0552 -0.007,-0.005 -0.0138,-0.0268 -0.0138,-0.0491 v -0.0406 l -0.0302,-0.0346 c -0.0364,-0.0419 -0.0529,-0.044 -0.0529,-0.007 0,0.0152 -0.005,0.0277 -0.0104,0.0278 -0.0143,1.7e-4 -0.0449,0.0688 -0.0449,0.10074 0,0.0258 0.0508,0.10902 0.072,0.11803 0.006,0.002 0.0109,0.029 0.0109,0.0588 v 0.0541 h 0.0276 0.0276 z m 0.30264,-1.00431 c 0.0171,-0.0197 0.028,-0.039 0.024,-0.0429 -0.007,-0.007 -0.0779,0.0574 -0.0779,0.0712 0,0.018 0.025,0.005 0.0539,-0.0283 z m 0.0821,-0.22694 c 0.002,-0.0189 0.0102,-0.0403 0.0172,-0.0476 0.007,-0.007 0.0127,-0.0262 0.0127,-0.0422 0,-0.016 0.007,-0.0359 0.0154,-0.0444 0.008,-0.008 0.0123,-0.0237 0.008,-0.0338 l -0.007,-0.0185 -0.011,0.0276 c -0.006,0.0152 -0.0223,0.0377 -0.0362,0.05 -0.0139,0.0123 -0.0251,0.0296 -0.0251,0.0387 0,0.009 -0.0123,0.0294 -0.0274,0.0456 l -0.0274,0.0294 0.0157,0.019 c 0.009,0.0104 0.0257,0.0171 0.0378,0.0148 l 0.0219,-0.005 z"
         id="path276" />
      <path
         style="fill:#000000;stroke-width:0.0126439"
         d="m 203.16225,514.76937 v -0.0126 h -0.0885 -0.0885 v -0.0126 c 0,-0.006 -0.007,-0.0127 -0.0176,-0.0127 -0.01,0 -0.0268,-0.0141 -0.0379,-0.0312 l -0.0204,-0.0312 v -0.20908 -0.20907 h 0.0113 c 0.012,0 0.0233,-0.0596 0.0347,-0.18005 l 0.006,-0.0726 -0.0169,-0.0381 c -0.0162,-0.0365 -0.0402,-0.0492 -0.0533,-0.0279 -0.007,0.0121 -0.12485,0.01 -0.14527,-0.003 l -0.0144,-0.009 v 0.27086 0.27086 l -0.0333,0.0333 c -0.0359,0.0359 -0.0493,0.0404 -0.0616,0.0207 -0.005,-0.006 -0.0132,-0.0126 -0.0198,-0.0126 -0.016,0 -0.0153,0.1102 6.3e-4,0.12011 0.0214,0.0133 0.0142,0.0393 -0.0207,0.0741 l -0.0333,0.0333 h -0.0987 -0.0987 l -0.007,-0.0127 c -0.005,-0.006 -0.0164,-0.0126 -0.0268,-0.0126 -0.0104,0 -0.0467,-0.0285 -0.0806,-0.0632 -0.0338,-0.0348 -0.0723,-0.0632 -0.0853,-0.0632 -0.0131,0 -0.0359,-0.0113 -0.0509,-0.0253 -0.015,-0.0139 -0.0336,-0.0252 -0.0415,-0.0252 -0.007,0 -0.0394,-0.0265 -0.0701,-0.0589 l -0.0556,-0.0589 v -0.12999 -0.13001 l -0.0126,-0.007 -0.0126,-0.007 v -0.13924 -0.13924 l -0.0158,-0.0156 c -0.009,-0.008 -0.0258,-0.0193 -0.0379,-0.024 l -0.0221,-0.008 v -0.0261 c 0,-0.0303 -0.0785,-0.11378 -0.10704,-0.11378 -0.0106,0 -0.0193,-0.005 -0.0193,-0.01 0,-0.005 -0.0125,-0.0152 -0.0277,-0.0221 -0.0327,-0.0147 -0.0712,-0.0766 -0.0725,-0.11678 -4.4e-4,-0.0156 -0.006,-0.0285 -0.0135,-0.0285 -0.006,0 -0.0126,-0.017 -0.0126,-0.0379 0,-0.0208 -0.005,-0.0379 -0.0126,-0.0379 h -0.0126 v -0.0704 -0.0704 l 0.018,-0.0181 c 0.01,-0.01 0.027,-0.018 0.0379,-0.018 0.0109,0 0.0198,-0.005 0.0197,-0.009 -2e-4,-0.0112 -0.11353,-0.0664 -0.13609,-0.0664 -0.008,0 -0.0155,-0.005 -0.0155,-0.0126 0,-0.006 -0.009,-0.0126 -0.0202,-0.0126 -0.0228,0 -0.10549,-0.0863 -0.10593,-0.11063 -1.5e-4,-0.009 -0.005,-0.0157 -0.013,-0.0157 h -0.0126 v -0.0885 -0.0885 h 0.0126 c 0.006,0 0.0127,-0.0111 0.0127,-0.0246 0,-0.0134 0.005,-0.0281 0.0126,-0.0324 0.006,-0.005 0.0127,-0.0183 0.0127,-0.0312 0,-0.0278 0.0463,-0.11751 0.0784,-0.15195 0.0124,-0.0134 0.0228,-0.0297 0.0228,-0.036 0,-0.006 0.008,-0.0185 0.0183,-0.0268 0.0215,-0.0179 0.0828,-0.13706 0.0828,-0.16104 0,-0.009 0.005,-0.0165 0.0126,-0.0165 0.006,0 0.0126,-0.0108 0.0126,-0.0239 0,-0.0298 0.0193,-0.0661 0.0791,-0.14809 l 0.047,-0.0645 0.0696,-0.0462 c 0.0382,-0.0254 0.0782,-0.0462 0.0887,-0.0462 0.0105,0 0.0192,-0.005 0.0192,-0.0126 0,-0.006 0.007,-0.0126 0.0172,-0.0126 0.0621,0 0.24249,-0.11671 0.27004,-0.17476 l 0.0213,-0.0448 -0.0152,-0.005 c -0.008,-0.003 -0.0153,-0.0156 -0.0153,-0.0285 0,-0.013 -0.005,-0.027 -0.0126,-0.0314 -0.0177,-0.011 -0.0158,-0.0776 0.004,-0.10764 l 0.0157,-0.0252 -0.0157,-0.0251 -0.0157,-0.0251 v -0.11991 -0.1199 l 0.0269,-0.0478 c 0.0147,-0.0263 0.0337,-0.0576 0.0421,-0.0696 0.0278,-0.04 0.12675,-0.11073 0.15481,-0.11085 0.0152,-5e-5 0.0312,-0.005 0.0355,-0.0128 l 0.007,-0.0126 h 0.11809 0.1181 l 0.0702,0.0371 c 0.0743,0.0391 0.13382,0.0923 0.18495,0.16533 0.0406,0.058 0.0585,0.0758 0.0761,0.0758 0.0249,0 0.0506,0.0348 0.0506,0.0687 0,0.0179 -0.005,0.0326 -0.0127,0.0326 -0.006,0 -0.0128,0.006 -0.013,0.0158 -1.9e-4,0.009 -0.0344,0.0523 -0.0758,0.097 l -0.0756,0.0811 v 0.035 c 0,0.0192 -0.005,0.0386 -0.0127,0.0429 -0.017,0.0104 -0.0162,0.0863 0.002,0.10352 l 0.0137,0.0137 -0.0137,0.008 c -0.007,0.005 -0.0137,0.0195 -0.0137,0.033 v 0.0245 h 0.0308 c 0.017,0 0.0344,0.005 0.0386,0.0126 0.005,0.006 0.0188,0.0126 0.0319,0.0126 0.0133,0 0.0444,0.0114 0.0691,0.0253 0.0248,0.0139 0.0534,0.0252 0.0637,0.0252 0.0102,0 0.0186,0.005 0.0186,0.0126 0,0.006 0.0113,0.0126 0.0252,0.0126 0.0139,0 0.0252,0.005 0.0252,0.01 0,0.005 0.0171,0.017 0.0379,0.0263 0.0209,0.009 0.0379,0.0239 0.0379,0.0323 0,0.008 0.0102,0.0265 0.0227,0.0401 0.0283,0.0307 0.10379,0.14017 0.10379,0.1506 0,0.005 0.0113,0.0199 0.0252,0.0349 0.0139,0.015 0.0252,0.0346 0.0252,0.0437 0,0.0193 0.0454,0.0225 0.057,0.005 0.005,-0.006 0.0326,-0.0126 0.0629,-0.0126 h 0.0551 l 0.007,0.0158 0.007,0.0157 0.007,-0.0157 c 0.005,-0.009 0.0239,-0.0158 0.0443,-0.0158 0.0203,0 0.0369,-0.005 0.0369,-0.0112 0,-0.0106 0.0119,-0.0143 0.11063,-0.034 0.0226,-0.005 0.0411,-0.0133 0.0411,-0.0195 0,-0.006 0.0209,-0.0112 0.0465,-0.0112 0.0454,0 0.11475,-0.0172 0.15878,-0.0394 0.0121,-0.006 0.0294,-0.0112 0.0386,-0.0112 0.009,0 0.0317,-0.006 0.0501,-0.0158 l 0.0336,-0.0158 0.005,-0.0308 0.005,-0.0307 0.0319,-0.008 c 0.0405,-0.0107 0.0882,0.006 0.0882,0.0317 v 0.0193 h 0.0379 0.0379 v 0.0379 c 0,0.0209 -0.005,0.0379 -0.0126,0.0379 -0.006,0 -0.0126,0.009 -0.0126,0.0199 0,0.0296 -0.0319,0.0561 -0.068,0.0561 -0.0175,0 -0.0353,0.005 -0.0395,0.0126 -0.005,0.006 -0.0214,0.0126 -0.0379,0.0126 -0.0165,0 -0.0336,0.005 -0.0379,0.0126 -0.005,0.006 -0.0214,0.0127 -0.0379,0.0127 -0.0166,0 -0.0337,0.005 -0.0379,0.0126 -0.005,0.006 -0.0177,0.0126 -0.0298,0.0126 -0.0276,0 -0.0901,0.0285 -0.0902,0.0411 -3e-5,0.005 -0.0114,0.009 -0.0254,0.009 -0.0139,0 -0.0252,0.005 -0.0252,0.0126 0,0.006 -0.0139,0.0126 -0.0308,0.0126 -0.017,0 -0.0344,0.005 -0.0386,0.0126 -0.005,0.006 -0.0189,0.0126 -0.0324,0.0126 -0.0135,0 -0.0245,0.005 -0.0245,0.0126 0,0.006 -0.0111,0.0126 -0.0246,0.0126 -0.0135,0 -0.0281,0.005 -0.0324,0.0126 -0.005,0.006 -0.0192,0.0126 -0.0332,0.0126 -0.0141,0 -0.0336,0.008 -0.0435,0.018 l -0.018,0.018 v 0.095 0.095 l -0.0126,0.007 c -0.006,0.005 -0.0126,0.0218 -0.0126,0.0386 0,0.017 -0.005,0.0308 -0.01,0.0308 -0.005,0 -0.0152,0.0123 -0.0221,0.0274 -0.006,0.0151 -0.0235,0.0336 -0.037,0.0411 -0.0135,0.007 -0.0374,0.026 -0.0531,0.0409 l -0.0285,0.0273 0.0373,0.0391 c 0.0206,0.0214 0.0373,0.0476 0.0373,0.0581 0,0.0104 0.005,0.0191 0.01,0.0192 0.0155,1.4e-4 0.0411,0.0653 0.0411,0.1044 0,0.0199 0.005,0.0474 0.0133,0.0611 l 0.0133,0.0249 -0.0159,0.047 c -0.009,0.0259 -0.0204,0.0523 -0.026,0.059 -0.005,0.006 -0.0102,0.0305 -0.0102,0.053 0,0.0225 -0.005,0.0445 -0.0126,0.0489 -0.006,0.005 -0.0126,0.0303 -0.0126,0.0576 0,0.0274 -0.005,0.0498 -0.0126,0.0498 h -0.0126 v 0.0625 c 0,0.0344 -0.005,0.0659 -0.0126,0.0702 -0.006,0.005 -0.0126,0.0273 -0.0126,0.0512 0,0.0239 -0.005,0.0435 -0.0126,0.0435 -0.006,0 -0.0126,0.0102 -0.0126,0.0225 0,0.0123 -0.0113,0.0306 -0.0252,0.0407 l -0.0252,0.0182 v 0.0351 c 0,0.0193 -0.005,0.0352 -0.01,0.0352 -0.017,2e-4 -0.0411,0.067 -0.0411,0.11369 0,0.025 -0.006,0.0517 -0.0136,0.0591 l -0.0136,0.0136 4.6e-4,0.10003 4.4e-4,0.10006 0.019,0.0383 c 0.0229,0.0459 0.0877,0.10606 0.11424,0.10606 0.0104,0 0.019,0.005 0.019,0.0126 0,0.006 0.009,0.0126 0.0204,0.0126 0.0112,0 0.0397,0.021 0.0632,0.0467 l 0.0428,0.0467 v 0.0347 c 0,0.019 -0.005,0.0382 -0.0126,0.0424 -0.006,0.005 -0.0126,0.0168 -0.0126,0.0278 0,0.0259 -0.0367,0.0534 -0.0719,0.0541 -0.0152,1.9e-4 -0.0312,0.006 -0.0355,0.0131 l -0.007,0.0126 h -0.15731 -0.15731 v -0.0126 z m -0.56822,-0.46782 h 0.0119 v -0.12088 -0.12085 l -0.0126,0.007 c -0.006,0.005 -0.0126,0.0189 -0.0126,0.0324 0,0.0135 -0.005,0.0246 -0.0126,0.0246 -0.006,0 -0.0126,0.0109 -0.0126,0.0242 0,0.0134 -0.006,0.0269 -0.0158,0.03 l -0.0158,0.005 0.0158,0.0168 0.0158,0.0168 v 0.0775 c 0,0.0857 0.0166,0.12312 0.0229,0.0513 0.003,-0.025 0.009,-0.0455 0.0158,-0.0455 z"
         id="path275" />
      <path
         style="fill:#000000;stroke-width:0.0138234"
         d="m 195.44088,514.74046 -0.0442,-0.0414 h -0.0323 -0.0323 l -0.0199,-0.0276 c -0.011,-0.0152 -0.0311,-0.0276 -0.0445,-0.0276 h -0.0246 v -0.11668 -0.11668 l -0.0138,-0.008 -0.0138,-0.008 v -0.11587 -0.11587 l -0.0138,-0.008 c -0.007,-0.005 -0.0138,-0.0234 -0.0138,-0.0414 0,-0.0181 -0.006,-0.0367 -0.0138,-0.0414 -0.007,-0.005 -0.0138,-0.0264 -0.0138,-0.0484 0,-0.0219 -0.006,-0.0437 -0.0138,-0.0484 -0.007,-0.005 -0.0138,-0.0234 -0.0138,-0.0414 0,-0.0181 -0.006,-0.0368 -0.0138,-0.0414 -0.007,-0.005 -0.0138,-0.0238 -0.0138,-0.0422 0,-0.0186 -0.006,-0.0337 -0.0138,-0.0337 -0.007,0 -0.0138,-0.0111 -0.0138,-0.0246 0,-0.0135 -0.0124,-0.0336 -0.0276,-0.0445 -0.0152,-0.011 -0.0277,-0.0294 -0.0278,-0.041 -9e-5,-0.023 -0.059,-0.0557 -0.10039,-0.0557 -0.04,0 -0.0654,-0.0346 -0.0654,-0.0889 0,-0.0272 -0.006,-0.0494 -0.0138,-0.0494 -0.007,0 -0.0138,-0.0124 -0.0138,-0.0276 0,-0.0152 -0.006,-0.0276 -0.0138,-0.0276 h -0.0138 v -0.0733 c 0,-0.0706 -0.0234,-0.14757 -0.0449,-0.14779 -0.005,-6e-5 -0.0104,-0.0125 -0.0104,-0.0278 0,-0.0152 -0.006,-0.0276 -0.0138,-0.0276 h -0.0138 v -0.0716 c 0,-0.0678 -0.0163,-0.14108 -0.0432,-0.19431 -0.007,-0.0133 -0.0121,-0.0494 -0.0121,-0.0805 v -0.0564 l -0.0205,-0.0205 -0.0205,-0.0205 -0.0304,0.0283 c -0.0167,0.0156 -0.0357,0.0284 -0.042,0.0284 -0.006,0 -0.057,0.0452 -0.11269,0.10021 -0.0557,0.0551 -0.12247,0.11917 -0.14838,0.14234 -0.0599,0.0536 -0.12259,0.13248 -0.12291,0.15487 -1.6e-4,0.01 -0.0111,0.0173 -0.0244,0.0174 l -0.0242,1.1e-4 -0.0173,0.0372 c -0.01,0.0205 -0.0172,0.0605 -0.0172,0.089 0,0.0284 -0.006,0.0556 -0.0138,0.0602 -0.007,0.005 -0.0138,0.0207 -0.0138,0.0354 0,0.0147 0.006,0.0268 0.0138,0.0268 h 0.0138 v 0.0691 0.0691 h -0.0414 c -0.0228,0 -0.0414,0.005 -0.0414,0.0122 0,0.007 -0.0124,0.0155 -0.0276,0.0195 l -0.0276,0.007 v 0.042 c 0,0.0231 -0.006,0.0457 -0.0138,0.0505 -0.007,0.005 -0.0138,0.0269 -0.0138,0.0492 0,0.0223 -0.006,0.0407 -0.0139,0.0407 -0.007,0 -0.0138,0.0214 -0.0138,0.0475 0,0.0262 -0.006,0.0514 -0.0139,0.0561 -0.007,0.005 -0.0138,0.0435 -0.0138,0.0862 0,0.0427 -0.007,0.0986 -0.0167,0.12416 l -0.0167,0.0464 0.0167,0.0269 c 0.0218,0.0348 0.0215,0.0781 -4.4e-4,0.0883 l -0.0173,0.008 0.0173,0.008 0.0172,0.008 v 0.0809 c 0,0.0445 0.006,0.0849 0.0139,0.0895 0.007,0.005 0.0136,0.044 0.0134,0.0872 l -4.3e-4,0.0787 -0.0184,0.0242 -0.0184,0.0242 h -0.2205 -0.2205 l -0.0297,-0.0276 c -0.0322,-0.0299 -0.0656,-0.0358 -0.0793,-0.0138 l -0.008,0.0138 h -0.15734 -0.15733 l -0.008,-0.0138 c -0.005,-0.007 -0.0225,-0.0138 -0.0395,-0.0138 -0.0443,0 -0.0642,-0.0258 -0.0642,-0.0832 v -0.05 l 0.0346,-0.0302 c 0.019,-0.0166 0.0502,-0.0302 0.0691,-0.0302 0.0189,0 0.0345,-0.005 0.0345,-0.0109 0,-0.006 0.0131,-0.0119 0.0292,-0.0131 0.0459,-0.004 0.16388,-0.064 0.16414,-0.0842 2.2e-4,-0.0222 0.0341,-0.0578 0.0549,-0.0578 0.008,0 0.043,-0.0278 0.077,-0.0618 l 0.0618,-0.0619 v -0.0349 c 0,-0.0192 0.006,-0.0348 0.0138,-0.0348 h 0.0138 v -0.28906 -0.28907 l -0.0414,-0.0349 -0.0414,-0.0348 v -0.0437 -0.0437 l 0.038,-0.0367 c 0.0209,-0.0201 0.0468,-0.0538 0.0576,-0.0745 l 0.0196,-0.0378 -0.0161,-0.0353 c -0.0196,-0.0431 -0.0213,-0.19502 -0.003,-0.20682 0.007,-0.005 0.0138,-0.0228 0.0138,-0.0402 v -0.0316 l 0.0415,-0.0434 c 0.0553,-0.0578 0.0557,-0.0575 -0.0553,-0.0575 h -0.0968 v -0.0138 -0.0138 h -0.0752 c -0.0414,0 -0.0785,-0.005 -0.0827,-0.012 -0.005,-0.007 -0.0426,-0.0123 -0.0854,-0.0127 -0.0429,-4.2e-4 -0.0847,-0.007 -0.0929,-0.0156 -0.023,-0.0231 -0.0634,-0.0178 -0.10824,0.0142 l -0.0409,0.0291 -0.0373,-0.007 -0.0372,-0.007 -0.0362,0.0214 -0.0362,0.0214 -0.0438,-0.0192 -0.0438,-0.0192 0.005,-0.0623 0.005,-0.0623 0.038,-0.005 c 0.0209,-0.002 0.0379,-0.0102 0.0379,-0.0172 0,-0.007 0.008,-0.0129 0.0192,-0.0129 0.0105,0 0.0286,-0.014 0.0401,-0.0311 0.0116,-0.0171 0.0528,-0.0639 0.0915,-0.104 0.0387,-0.0401 0.0704,-0.0787 0.0704,-0.0858 0,-0.007 0.0302,-0.043 0.067,-0.0799 0.0368,-0.0369 0.0696,-0.0736 0.0726,-0.0815 0.0136,-0.0358 0.17243,-0.21624 0.34764,-0.39523 0.0361,-0.0368 0.0657,-0.0714 0.0658,-0.0768 6e-5,-0.005 0.0309,-0.0408 0.0685,-0.0788 l 0.0685,-0.0691 0.002,-0.0623 0.002,-0.0623 0.0242,-0.0414 0.0242,-0.0415 0.0439,-0.005 0.0439,-0.005 v -0.0268 c 0,-0.0147 -0.006,-0.0268 -0.0138,-0.0268 -0.007,0 -0.0138,-0.0124 -0.0138,-0.0276 0,-0.0152 -0.005,-0.0276 -0.0115,-0.0276 -0.006,0 -0.0204,-0.0171 -0.0311,-0.0379 -0.0108,-0.0209 -0.0304,-0.0501 -0.0438,-0.0648 -0.0134,-0.0147 -0.0242,-0.0377 -0.0242,-0.051 0,-0.0134 -0.005,-0.0274 -0.0116,-0.0314 -0.006,-0.005 -0.0129,-0.0463 -0.0146,-0.0941 -0.002,-0.0478 -0.009,-0.0929 -0.0161,-0.10014 -0.007,-0.007 -0.0131,-0.0387 -0.0131,-0.0699 v -0.0569 l 0.0276,-0.0297 c 0.0152,-0.0164 0.0276,-0.0352 0.0276,-0.042 0,-0.007 0.0124,-0.0235 0.0276,-0.0373 0.0152,-0.0137 0.0276,-0.0365 0.0276,-0.0506 0,-0.014 0.006,-0.0255 0.0138,-0.0255 0.007,0 0.0138,-0.0152 0.0138,-0.0337 0,-0.0186 0.006,-0.0376 0.0138,-0.0422 0.007,-0.005 0.0138,-0.0144 0.0138,-0.0216 v -0.0131 h -0.0911 -0.0912 l -0.007,-0.0276 c -0.005,-0.0152 -0.0127,-0.0276 -0.0195,-0.0276 -0.007,0 -0.0122,-0.022 -0.0122,-0.049 v -0.0491 l -0.034,-0.0339 c -0.0186,-0.0186 -0.0435,-0.034 -0.0553,-0.034 h -0.0214 v -0.0553 -0.0553 h 0.0138 c 0.007,0 0.0138,-0.006 0.0138,-0.0138 v -0.0138 l -0.0726,-4.2e-4 -0.0726,-4.4e-4 -0.0242,-0.0184 c -0.0133,-0.0102 -0.0242,-0.0323 -0.0242,-0.0493 v -0.031 l 0.0414,-0.0387 0.0414,-0.0387 v -0.0351 c 0,-0.0193 0.006,-0.0389 0.0138,-0.0437 0.007,-0.005 0.0138,-0.0227 0.0138,-0.0399 0,-0.0922 0.12303,-0.24809 0.24166,-0.30612 l 0.0727,-0.0356 0.14478,-2.1e-4 0.14478,-2.1e-4 0.0529,0.0297 c 0.0292,0.0164 0.0798,0.0582 0.11273,0.093 l 0.0598,0.0633 v 0.0324 c 0,0.0178 0.006,0.0324 0.0138,0.0324 0.007,0 0.0138,0.0244 0.0138,0.0541 0,0.0298 0.005,0.0562 0.0109,0.0587 0.006,0.002 0.0246,0.0242 0.0414,0.0482 l 0.0306,0.0436 v 0.0686 0.0686 l -0.0357,0.0356 c -0.0196,0.0196 -0.0491,0.038 -0.0657,0.041 l -0.0301,0.005 0.0276,0.0103 c 0.0152,0.005 0.0384,0.0161 0.0517,0.0231 0.0375,0.02 0.0636,0.0152 0.0796,-0.0149 l 0.0148,-0.0276 h 0.0678 c 0.0373,0 0.0717,-0.006 0.0763,-0.0138 0.0112,-0.0181 0.11751,-0.0181 0.11751,0 v 0.0138 h 0.12164 0.12165 l 0.015,0.015 0.015,0.015 0.0287,-0.0179 0.0287,-0.0179 0.0496,0.0179 0.0496,0.0179 0.0166,-0.0123 c 0.009,-0.007 0.0368,-0.014 0.0617,-0.016 0.0453,-0.005 0.21711,-0.0855 0.29207,-0.13882 0.0222,-0.0157 0.0442,-0.0287 0.0487,-0.0287 0.0164,0 0.13968,-0.0614 0.15669,-0.0779 l 0.0173,-0.0169 v -0.15259 -0.15259 l 0.0488,-0.0488 c 0.0269,-0.0269 0.0574,-0.0488 0.0679,-0.0488 0.0104,0 0.0219,-0.007 0.0254,-0.0173 l 0.006,-0.0172 0.0305,0.0181 0.0305,0.0181 0.0189,-0.0156 c 0.0104,-0.008 0.0333,-0.0137 0.0507,-0.0112 l 0.0318,0.005 -0.005,0.0518 -0.005,0.0518 h 0.0149 c 0.008,0 0.0149,-0.006 0.0149,-0.0146 v -0.0146 l 0.0518,0.005 0.0518,0.005 0.005,0.038 0.005,0.038 h -0.0147 c -0.008,0 -0.0147,0.0122 -0.0147,0.0272 0,0.015 -0.0117,0.0482 -0.026,0.0736 -0.0337,0.06 -0.044,0.13685 -0.0518,0.38642 l -0.006,0.20385 h -0.0131 c -0.007,0 -0.0132,0.01 -0.0132,0.0217 0,0.0249 -0.0324,0.0613 -0.0545,0.0613 -0.0191,0 -0.0676,0.0276 -0.10292,0.0587 -0.0151,0.0134 -0.0357,0.0242 -0.0456,0.0242 -0.01,0 -0.0181,0.005 -0.0181,0.0116 0,0.006 -0.0277,0.0259 -0.0616,0.0434 -0.0339,0.0174 -0.0728,0.0417 -0.0864,0.054 -0.0137,0.0122 -0.0559,0.0369 -0.0939,0.055 -0.038,0.0179 -0.0799,0.0381 -0.0931,0.0449 -0.0132,0.007 -0.0362,0.0122 -0.051,0.0122 -0.0149,0 -0.0308,0.006 -0.0356,0.0138 -0.005,0.007 -0.0299,0.0138 -0.0561,0.0138 -0.0261,0 -0.0475,0.006 -0.0475,0.0138 0,0.007 -0.01,0.0138 -0.0218,0.0138 -0.047,0 -0.0862,0.0935 -0.0489,0.11656 0.007,0.005 0.0158,0.0279 0.0201,0.0527 0.005,0.0248 0.0128,0.0728 0.0188,0.10661 l 0.011,0.0615 0.0518,0.0273 c 0.0285,0.015 0.0519,0.0343 0.0519,0.0429 0,0.008 0.007,0.0323 0.0173,0.0528 l 0.0173,0.0372 0.0581,10e-5 0.0581,1.1e-4 0.0387,0.0516 c 0.0213,0.0283 0.0558,0.0697 0.0767,0.0919 0.0209,0.0222 0.038,0.0458 0.038,0.0523 0,0.006 0.0186,0.0314 0.0414,0.0553 0.0229,0.0239 0.0414,0.0518 0.0414,0.0621 0,0.0102 0.006,0.0186 0.0138,0.0186 h 0.0138 v 0.0604 0.0604 l -0.0739,0.0744 c -0.0406,0.041 -0.0919,0.0828 -0.11405,0.0933 -0.0221,0.0104 -0.0514,0.0246 -0.0649,0.0316 -0.0136,0.007 -0.0307,0.009 -0.038,0.005 l -0.0133,-0.008 v 0.0346 c 0,0.019 0.006,0.0384 0.0138,0.0431 0.007,0.005 0.0138,0.0234 0.0138,0.0414 0,0.0181 0.006,0.0368 0.0139,0.0414 l 0.0138,0.008 v 0.1305 0.13051 h -0.0138 -0.0139 v 0.10286 0.10287 l -0.0138,0.008 c -0.007,0.005 -0.0138,0.038 -0.0138,0.0741 0,0.036 -0.006,0.072 -0.0143,0.0798 -0.008,0.008 -0.015,0.057 -0.0159,0.1092 l -0.002,0.0949 0.0159,0.005 0.0159,0.005 v 0.0584 0.0584 l 0.0246,0.0268 c 0.0237,0.0257 0.0583,0.14501 0.0583,0.20077 0,0.0147 0.0186,0.0463 0.0415,0.0701 l 0.0414,0.0434 v 0.0464 c 0,0.0255 -0.005,0.0464 -0.0104,0.0464 -0.015,1.6e-4 -0.0442,0.0678 -0.0324,0.0752 0.005,0.004 0.0231,0.0329 0.0393,0.0656 0.028,0.0567 0.036,0.0948 0.0536,0.25305 0.005,0.038 0.0134,0.0751 0.0201,0.0823 0.007,0.007 0.0125,0.0399 0.0125,0.0726 v 0.0594 h 0.0138 c 0.007,0 0.0138,0.0186 0.0138,0.0414 0,0.0228 0.006,0.0414 0.0138,0.0414 0.007,0 0.0138,0.0187 0.0138,0.0414 0,0.0228 0.006,0.0414 0.0138,0.0414 0.007,0 0.0138,0.0183 0.0138,0.0407 0,0.0224 0.006,0.0445 0.0138,0.0492 l 0.0138,0.008 v 0.13466 0.13466 l -0.0172,0.0376 c -0.01,0.0207 -0.034,0.0449 -0.0545,0.0541 -0.0205,0.009 -0.0401,0.0278 -0.0437,0.0413 l -0.006,0.0246 h -0.0351 c -0.0193,0 -0.0388,0.006 -0.0436,0.0139 -0.0131,0.0213 -0.024,0.0171 -0.0719,-0.0277 z m -1.75126,-2.16677 c 0.0613,-0.059 0.12601,-0.12891 0.14387,-0.15551 0.0312,-0.0465 0.16006,-0.17971 0.17386,-0.17971 0.0178,0 0.0788,-0.0696 0.0693,-0.079 -0.006,-0.006 -0.0223,0.003 -0.036,0.0202 -0.0139,0.0171 -0.0351,0.0311 -0.0473,0.0311 -0.0121,0 -0.0219,0.006 -0.0219,0.0138 0,0.007 -0.0152,0.0138 -0.0337,0.0138 -0.0186,0 -0.0376,0.006 -0.0422,0.0138 -0.01,0.0161 -0.11931,0.0187 -0.1394,0.004 -0.007,-0.005 -7.1e-4,0.002 0.0145,0.0177 0.0154,0.0154 0.036,0.0379 0.0456,0.0501 l 0.0175,0.022 -0.0304,0.0571 -0.0305,0.0571 h -0.0448 -0.0448 l -0.0979,-0.0968 c -0.0538,-0.0532 -0.10473,-0.0968 -0.11302,-0.0968 -0.008,0 -0.0326,-0.0186 -0.0539,-0.0414 -0.0413,-0.0444 -0.0829,-0.0548 -0.0829,-0.0208 0,0.0114 -0.006,0.0208 -0.0138,0.0208 -0.007,0 -0.0138,0.0129 -0.0138,0.0287 v 0.0287 l -0.0523,0.0507 c -0.0287,0.0279 -0.0673,0.0725 -0.0858,0.0991 -0.0184,0.0267 -0.0453,0.0591 -0.0598,0.072 l -0.0263,0.0237 0.0213,0.0213 c 0.0117,0.0117 0.0311,0.0213 0.043,0.0213 0.012,0 0.0217,0.006 0.0217,0.0138 0,0.007 0.0173,0.0138 0.0384,0.0138 h 0.0384 l 0.0198,0.0276 0.0199,0.0276 h 0.0583 c 0.0321,0 0.0622,0.006 0.0669,0.0138 0.005,0.007 0.0442,0.0138 0.0876,0.0138 h 0.0791 z"
         id="path195-7" />
    </g>
  </g>
</svg>
