<?xml version="1.0" encoding="UTF-8" standalone="no"?>
<!-- Created with Inkscape (http://www.inkscape.org/) -->

<svg
   width="19.572611mm"
   height="9.8060722mm"
   viewBox="0 0 19.572611 9.8060722"
   version="1.1"
   id="svg5"
   sodipodi:docname="inkporter-svg-tafrv0cz.svg"
   xmlns:inkscape="http://www.inkscape.org/namespaces/inkscape"
   xmlns:sodipodi="http://sodipodi.sourceforge.net/DTD/sodipodi-0.dtd"
   xmlns="http://www.w3.org/2000/svg"
   xmlns:svg="http://www.w3.org/2000/svg">
  <sodipodi:namedview
     id="namedview7"
     pagecolor="#ffffff"
     bordercolor="#666666"
     borderopacity="1.0"
     inkscape:pageshadow="2"
     inkscape:pageopacity="0.0"
     inkscape:pagecheckerboard="0"
     inkscape:document-units="mm"
     showgrid="false"
     inkscape:zoom="0.32026164"
     inkscape:cx="193.59171"
     inkscape:cy="326.29571"
     inkscape:window-width="1920"
     inkscape:window-height="1017"
     inkscape:window-x="-8"
     inkscape:window-y="-8"
     inkscape:window-maximized="1"
     inkscape:current-layer="layer1" />
  <defs
     id="defs2" />
  <g
     inkscape:label="Layer 1"
     inkscape:groupmode="layer"
     id="layer1"
     transform="translate(141.19754,38.43768)">
    <path
       d="m -138.32433,-28.7105 c -0.0244,-0.0933 -0.0429,-0.0956 -0.13035,-0.0165 l -0.0672,0.0608 -0.11955,-0.0618 c -0.0658,-0.034 -0.11954,-0.0878 -0.11954,-0.11958 v -0.0577 l -0.097,0.0243 c -0.11186,0.0281 -0.28979,-0.0701 -0.28979,-0.15987 0,-0.0408 -0.0259,-0.0513 -0.0873,-0.0359 l -0.0873,0.0219 -0.13053,-0.13467 c -0.0728,-0.0752 -0.12127,-0.15877 -0.10959,-0.18919 l 0.0209,-0.0545 -0.0926,0.0177 -0.0926,0.0177 -0.13977,-0.13978 c -0.0768,-0.0769 -0.16089,-0.13978 -0.18669,-0.13978 -0.0683,0 -0.26051,-0.21193 -0.24697,-0.27238 0.006,-0.0297 -0.0228,-0.0526 -0.0696,-0.054 -0.10192,-0.003 -0.29471,-0.22556 -0.26423,-0.30497 0.0156,-0.0405 -0.006,-0.0627 -0.0672,-0.0715 -0.10291,-0.0146 -0.23349,-0.24017 -0.2072,-0.35793 0.009,-0.0409 -0.0119,-0.0953 -0.0466,-0.12072 -0.0398,-0.029 -0.0672,-0.1143 -0.074,-0.22934 l -0.0107,-0.18307 0.0757,-0.0198 c 0.0909,-0.0238 0.0937,-0.0429 0.0181,-0.12643 l -0.0577,-0.0638 0.0636,-0.16173 0.0636,-0.16172 h 0.0939 0.0939 l -0.0246,-0.11226 -0.0247,-0.11227 0.0758,-0.053 0.0758,-0.0532 -0.0446,-0.0594 c -0.0245,-0.0327 -0.075,-0.0708 -0.11221,-0.0848 -0.14676,-0.0551 -0.10332,-0.0883 0.41093,-0.31461 l 0.22721,-0.1 h 0.44655 0.44655 l 0.26041,-0.2514 0.26041,-0.2514 h -0.44103 -0.44103 v -0.0967 -0.0967 h 0.56756 0.56756 l -0.0841,-0.0895 c -0.0462,-0.0493 -0.0841,-0.12817 -0.0841,-0.1754 0,-0.0473 -0.0263,-0.12596 -0.0583,-0.17495 l -0.0583,-0.0891 0.068,-0.0591 c 0.0374,-0.0325 0.11256,-0.0696 0.16702,-0.0825 0.0544,-0.0129 0.15534,-0.0935 0.22421,-0.17925 l 0.12523,-0.15581 h 0.12657 c 0.0776,0 0.2899,-0.0838 0.54933,-0.2169 l 0.42276,-0.21689 0.0125,0.0622 c 0.0135,0.0674 0.19655,0.0871 0.26018,0.0281 0.0202,-0.0188 0.18113,-0.0547 0.35762,-0.0798 0.22044,-0.0313 0.36437,-0.0751 0.45985,-0.1399 0.16881,-0.11456 0.27958,-0.11915 0.40949,-0.0169 0.0959,0.0754 0.27179,0.10015 0.39008,0.0548 l 0.0589,-0.0226 -0.042,-0.0922 c -0.0295,-0.0648 -0.0588,-0.0828 -0.0981,-0.0608 -0.0864,0.0484 -0.63929,0.004 -0.70922,-0.0579 -0.0424,-0.037 -0.16952,-0.0533 -0.41578,-0.0533 h -0.35472 v -0.13309 c 0,-0.0732 -0.0174,-0.14384 -0.0387,-0.157 -0.0213,-0.0132 -0.0387,-0.0751 -0.0387,-0.13765 v -0.11375 h -1.38616 c -0.76238,0 -1.75445,-0.0115 -2.2046,-0.0255 l -0.81847,-0.0255 v -0.20029 -0.20029 l 1.53743,-0.0256 c 0.84558,-0.014 1.83766,-0.0256 2.20461,-0.0256 l 0.66719,-6e-5 v -0.0696 c 0,-0.11872 0.0844,-0.16244 0.31337,-0.16244 h 0.22054 l 0.0384,-0.11023 0.0384,-0.11023 0.29667,-0.091 0.29667,-0.091 -0.0122,-0.1565 -0.0122,-0.15651 h 0.0555 c 0.0306,0 0.0706,0.0577 0.0888,0.12839 l 0.0332,0.12837 0.11426,-0.025 0.11427,-0.0251 0.0676,0.11886 c 0.0458,0.0805 0.0975,0.11896 0.16008,0.11912 0.11196,2.9e-4 0.20876,-0.1138 0.15327,-0.18067 -0.0718,-0.0865 -0.0208,-0.3282 0.0859,-0.40753 0.12613,-0.0937 0.26515,-0.0634 0.41596,0.0909 l 0.11067,0.11319 0.18347,-0.0787 c 0.10091,-0.0433 0.2506,-0.0893 0.33264,-0.10249 l 0.14918,-0.0239 0.0118,-0.10175 c 0.0127,-0.10952 0.0135,-0.10967 0.32861,-0.0682 l 0.20078,0.0264 0.012,-0.1654 c 0.008,-0.11595 0.0293,-0.16542 0.07,-0.16542 h 0.058 l 0.0113,0.28042 0.0113,0.2804 h 0.25092 0.25092 l 0.0256,-0.0677 c 0.0325,-0.0859 0.0891,-0.14246 0.175,-0.17499 0.0425,-0.016 0.0677,-0.0664 0.0677,-0.13515 0,-0.147 0.0645,-0.20233 0.23567,-0.20233 0.0913,0 0.15087,-0.021 0.16509,-0.058 l 0.0222,-0.058 h 0.71202 0.71201 l 0.0482,0.058 c 0.0265,0.0319 0.0939,0.0583 0.14978,0.0586 0.12008,5.9e-4 0.17009,0.03 0.22946,0.13478 l 0.0438,0.0774 9.2e-4,-0.12248 c 5.8e-4,-0.0673 -0.0205,-0.13035 -0.0472,-0.13998 l -0.0484,-0.0175 0.0484,-0.0819 c 0.0266,-0.045 0.0484,-0.11693 0.0484,-0.15977 v -0.0778 h 0.13537 0.13537 v 0.0742 c 0,0.0408 0.0217,0.0821 0.0484,0.0918 l 0.0484,0.0178 -0.0484,0.0512 c -0.0301,0.032 -0.0484,0.16469 -0.0484,0.35293 v 0.30168 h 0.0539 c 0.0675,0 0.10082,-0.0842 0.10082,-0.25457 0,-0.0727 0.0174,-0.1322 0.0387,-0.1322 0.0213,0 0.0387,0.0622 0.0387,0.13813 0,0.207 0.18097,0.33808 0.34533,0.25012 l 0.0775,-0.0415 -0.0136,-0.42479 c -0.007,-0.23364 0.002,-0.42479 0.0206,-0.42479 0.0188,0 0.0367,-0.0479 0.0394,-0.10636 l 0.006,-0.10636 0.0178,0.0967 c 0.01,0.0532 0.0422,0.11061 0.0721,0.12762 0.0621,0.0354 0.0739,0.14312 0.0157,0.14312 -0.0565,0 -0.0474,0.26112 0.01,0.28181 l 0.0484,0.0175 -0.0484,0.0819 c -0.0609,0.10315 -0.0603,0.27676 9.2e-4,0.3574 l 0.0471,0.0617 0.32876,0.008 c 0.20768,0.006 0.36031,0.0288 0.41442,0.0639 0.0471,0.0307 0.15215,0.0556 0.2334,0.0556 h 0.14773 l 0.076,-0.12088 c 0.0418,-0.0665 0.11087,-0.18398 0.15348,-0.26108 0.1384,-0.25055 0.40905,-0.18711 0.39851,0.0934 -0.003,0.0736 -0.024,0.13405 -0.0471,0.13432 -0.0232,2.9e-4 -0.0814,0.0612 -0.12946,0.13537 l -0.0874,0.13489 h 0.1593 0.15929 l -0.0169,0.14428 -0.0168,0.1443 0.0803,0.0657 0.0803,0.0657 -0.0429,0.0438 c -0.0237,0.024 -0.18895,0.0645 -0.36743,0.0898 l -0.3245,0.046 -0.0193,0.13537 -0.0193,0.13537 -0.17334,0.0123 -0.17334,0.0123 -0.21343,0.20073 c -0.11739,0.11041 -0.38313,0.34667 -0.59054,0.52506 -0.35728,0.30728 -0.44832,0.42922 -0.32045,0.42922 0.0311,0 0.0741,0.0326 0.0954,0.0724 l 0.0388,0.0724 0.35905,0.0468 c 0.19748,0.0257 0.48088,0.0674 0.62979,0.0927 l 0.27074,0.0459 0.0117,0.0813 0.0117,0.0813 0.17741,0.0243 c 0.30113,0.0413 0.36,0.0326 0.36,-0.0531 0,-0.086 0.0446,-0.0922 0.3771,-0.0523 l 0.20306,0.0244 v 0.0925 c 0,0.11376 -0.027,0.10635 0.67686,0.18589 0.31908,0.036 0.62803,0.075 0.68653,0.0864 l 0.10636,0.0208 v -0.0834 c 0,-0.11105 0.0507,-0.12406 0.3481,-0.0893 l 0.2514,0.0293 -0.006,0.10163 -0.006,0.10162 0.11316,0.0166 c 0.0765,0.0112 0.13392,-0.006 0.17711,-0.0541 0.11498,-0.12705 0.42009,-0.086 0.47719,0.0641 l 0.0325,0.0856 0.26953,0.0251 c 0.14824,0.0137 0.34959,0.0141 0.44743,5.9e-4 0.11035,-0.0151 0.19782,-0.008 0.23034,0.0192 0.0288,0.024 0.0648,0.0311 0.0801,0.0159 0.0151,-0.0151 0.0396,-0.008 0.0544,0.0145 0.039,0.0609 0.20096,0.10523 0.20096,0.055 0,-0.0629 0.11541,-0.0492 0.14072,0.0167 0.0122,0.0319 0.0465,0.058 0.0762,0.058 0.0322,0 0.0539,0.0403 0.0539,0.0997 0,0.0597 0.0477,0.14735 0.119,0.21866 0.0802,0.0802 0.11244,0.14401 0.0989,0.19582 -0.0111,0.0423 0.0137,0.16575 0.055,0.27446 0.0414,0.10872 0.0752,0.22178 0.0752,0.25124 3e-5,0.059 -0.17568,0.2365 -0.23404,0.2365 -0.051,0 -0.0506,0.002 0.08,0.33041 0.13859,0.34889 0.13172,0.36866 -0.11777,0.33911 l -0.1923,-0.0227 v 0.40833 c 0,0.22459 -0.0106,0.43587 -0.0235,0.46952 l -0.0235,0.0612 h -0.30527 -0.30529 v 0.16931 c 0,0.0956 -0.0229,0.18833 -0.0526,0.21297 -0.0304,0.0252 -0.0447,0.0853 -0.0338,0.14227 0.0264,0.13821 -0.1023,0.36503 -0.20716,0.36503 h -0.0825 l 0.0181,0.0945 0.0181,0.0945 -0.14418,0.0602 c -0.0793,0.0332 -0.17686,0.0602 -0.21681,0.0602 -0.04,0 -0.0726,0.0183 -0.0726,0.0406 0,0.0554 -0.26645,0.16288 -0.3499,0.14105 -0.0433,-0.0113 -0.0818,0.0138 -0.10757,0.0706 -0.0429,0.0941 -0.28136,0.19482 -0.37569,0.15861 -0.0338,-0.013 -0.0564,9.2e-4 -0.0564,0.0357 0,0.0855 -0.23422,0.21634 -0.35777,0.19985 l -0.10637,-0.0142 v 0.0648 c 0,0.0593 -0.25945,0.20961 -0.36475,0.21126 -0.0227,2.9e-4 -0.0805,0.0398 -0.12838,0.0877 -0.10239,0.10237 -0.29888,0.11627 -0.35009,0.0248 l -0.0348,-0.0623 -0.0239,0.0623 -0.0238,0.0623 h -0.18687 c -0.10278,0 -0.20992,-0.0217 -0.23811,-0.0484 l -0.0512,-0.0484 -0.0177,0.0484 c -0.0231,0.063 -0.40501,0.0646 -0.46768,0.002 l -0.0464,-0.0464 v 0.0464 c 0,0.0621 -0.39434,0.0621 -0.4564,0 l -0.0464,-0.0464 v 0.0464 c 0,0.0309 -0.0774,0.0464 -0.23207,0.0464 -0.15471,0 -0.23206,-0.0155 -0.23206,-0.0464 v -0.0464 l -0.0464,0.0464 c -0.0621,0.0621 -0.45639,0.0621 -0.45639,0 v -0.0464 l -0.0464,0.0464 c -0.0602,0.0602 -0.42712,0.0602 -0.48734,0 l -0.0464,-0.0464 v 0.0464 c 0,0.0595 -0.3931,0.0633 -0.45202,0.005 l -0.042,-0.042 -0.026,0.042 c -0.0367,0.0595 -0.4348,0.0541 -0.46299,-0.006 l -0.0226,-0.0484 -0.0226,0.0484 c -0.0139,0.0298 -0.10163,0.0484 -0.22884,0.0484 -0.12978,0 -0.21285,-0.018 -0.224,-0.0484 l -0.0177,-0.0484 -0.0512,0.0484 c -0.063,0.0594 -0.39141,0.064 -0.44914,0.006 l -0.042,-0.042 -0.026,0.042 c -0.0143,0.0231 -0.10851,0.042 -0.20936,0.042 -0.10085,0 -0.20228,-0.0189 -0.22541,-0.042 l -0.042,-0.042 -0.026,0.042 c -0.0368,0.0595 -0.43481,0.0541 -0.46299,-0.006 l -0.0226,-0.0484 -0.0226,0.0484 c -0.0292,0.0625 -0.37179,0.064 -0.43383,0.002 l -0.0464,-0.0464 -0.0464,0.0464 c -0.0256,0.0255 -0.13867,0.0464 -0.25141,0.0464 -0.13366,0 -0.20499,-0.0161 -0.20499,-0.0464 v -0.0464 l -0.0464,0.0464 c -0.0625,0.0625 -0.44321,0.0609 -0.47251,-0.002 l -0.0226,-0.0484 -0.0226,0.0484 c -0.0282,0.0603 -0.40897,0.0655 -0.46815,0.006 l -0.042,-0.042 -0.026,0.042 c -0.0143,0.0231 -0.1085,0.042 -0.20936,0.042 -0.10084,0 -0.20228,-0.0189 -0.2254,-0.042 l -0.042,-0.042 -0.026,0.042 c -0.0369,0.0595 -0.43481,0.0541 -0.46299,-0.006 l -0.0226,-0.0484 -0.0226,0.0484 c -0.0139,0.0298 -0.10163,0.0484 -0.22884,0.0484 -0.1272,0 -0.21492,-0.0185 -0.22884,-0.0484 l -0.0226,-0.0484 -0.0226,0.0484 c -0.0282,0.0603 -0.40896,0.0655 -0.46814,0.006 l -0.042,-0.042 -0.026,0.042 c -0.0143,0.0231 -0.0998,0.042 -0.19002,0.042 -0.0902,0 -0.18295,-0.0189 -0.20607,-0.042 l -0.042,-0.042 -0.026,0.042 c -0.0143,0.0231 -0.11198,0.042 -0.21709,0.042 h -0.19111 l -9.2e-4,-0.0677 -9.2e-4,-0.0677 -0.0394,0.0677 c -0.0472,0.0811 -0.33968,0.0946 -0.41945,0.0193 l -0.0512,-0.0484 -0.0177,0.0484 c -0.0219,0.0599 -0.32735,0.0649 -0.38595,0.006 l -0.042,-0.042 -0.026,0.042 c -0.0144,0.0231 -0.10492,0.042 -0.20137,0.042 h -0.17539 z m 2.19341,-0.30605 c 0,-0.018 -0.0289,-0.0565 -0.0641,-0.0857 -0.0964,-0.0798 -0.20479,-0.34438 -0.20575,-0.50226 l -9.2e-4,-0.13975 -0.23407,-0.0497 -0.23405,-0.0496 -0.21075,0.0472 -0.21072,0.0472 v 0.13007 c 0,0.0716 -0.0174,0.1759 -0.0387,0.23191 -0.0213,0.056 -0.0277,0.17027 -0.0144,0.25392 l 0.0243,0.1521 h 0.12549 0.12548 l 0.0248,-0.15471 c 0.0336,-0.21002 0.12541,-0.20472 0.16781,0.01 l 0.0325,0.16438 h 0.11359 0.11359 l 0.0325,-0.16438 c 0.0179,-0.0905 0.0483,-0.16438 0.0675,-0.16438 0.0517,0 0.11511,0.13555 0.11511,0.24602 0,0.0602 0.0254,0.1022 0.0677,0.11182 0.0767,0.0175 0.20306,-0.0345 0.20306,-0.0837 z m 1.99416,0.057 0.0751,-0.0556 -0.0561,-0.0894 c -0.19608,-0.31216 -0.25131,-0.61376 -0.15753,-0.86041 l 0.0378,-0.0992 h -0.27239 -0.27239 l 0.0316,0.087 c 0.0174,0.0479 0.0311,0.20068 0.0306,0.33958 l -9.2e-4,0.25256 -0.0887,0.12462 c -0.0488,0.0685 -0.0832,0.16374 -0.0764,0.21156 l 0.0123,0.087 0.12454,0.0121 0.12456,0.0121 0.0444,-0.17641 c 0.0655,-0.26031 0.18761,-0.20759 0.18942,0.0818 4.4e-4,0.0725 0.0332,0.0983 0.15751,0.12406 0.0119,0.003 0.0554,-0.0205 0.0967,-0.0512 z m 2.1244,-0.16299 c 0.0545,-0.19414 0.14089,-0.19153 0.19598,0.006 l 0.0431,0.15472 0.12271,0.0122 c 0.14503,0.0143 0.2018,-0.0757 0.1122,-0.17796 -0.0939,-0.10716 -0.17233,-0.28671 -0.20122,-0.4606 l -0.027,-0.16228 -0.20969,-0.047 -0.20967,-0.047 -0.21273,0.0476 -0.21272,0.0476 v 0.14286 c 0,0.0786 -0.0349,0.20351 -0.0776,0.27764 -0.19836,0.34449 -0.19439,0.39313 0.0292,0.35829 l 0.1257,-0.0195 v -0.0849 c 0,-0.11111 0.0921,-0.23506 0.14874,-0.20009 0.0244,0.0151 0.0553,0.0952 0.0685,0.17802 0.0398,0.24885 0.23185,0.23273 0.3043,-0.0256 z m 5.08984,0.17997 c 0.0482,0 0.0453,-0.1441 -0.004,-0.17421 -0.0697,-0.0431 -0.16198,-0.25911 -0.18785,-0.44007 l -0.0253,-0.17699 -0.22819,-0.0507 -0.22818,-0.0506 -0.20657,0.0429 -0.20658,0.0428 v 0.14175 c 0,0.0779 -0.0459,0.23226 -0.10177,0.34289 -0.11803,0.23326 -0.10248,0.3221 0.0564,0.3221 h 0.11174 l 0.0347,-0.16438 c 0.0447,-0.21206 0.13332,-0.21654 0.19106,-0.01 l 0.0432,0.15472 0.13396,0.0115 0.13395,0.0115 0.0368,-0.16363 c 0.0203,-0.09 0.0566,-0.16993 0.0808,-0.17767 0.0476,-0.0153 0.14172,0.21011 0.10948,0.26227 -0.0268,0.0434 0.10482,0.11632 0.16882,0.0936 0.0284,-0.01 0.0675,-0.0183 0.0871,-0.0183 z m -3.075,-0.0515 c 0.002,-0.004 0.0199,-0.0674 0.0402,-0.1419 0.0204,-0.0744 0.0618,-0.13538 0.0921,-0.13538 0.0303,0 0.0721,0.0609 0.0929,0.13538 0.0428,0.15353 0.0836,0.19194 0.2046,0.1928 0.1369,9.2e-4 0.13766,-0.0608 0.003,-0.25155 l -0.12655,-0.17943 3e-5,-0.27736 c 2e-5,-0.15255 0.0149,-0.30781 0.0332,-0.34504 l 0.0332,-0.0677 h -0.24034 -0.24034 l 0.0289,0.0677 c 0.0158,0.0372 0.0367,0.16341 0.0463,0.28041 l 0.0175,0.21273 -0.1211,0.22922 c -0.13935,0.26379 -0.13158,0.35309 0.0273,0.31322 0.0582,-0.0146 0.10735,-0.0295 0.1091,-0.0332 z m 4.42554,-0.0886 v -0.0627 l -0.058,0.0482 c -0.0319,0.0265 -0.058,0.0547 -0.058,0.0627 0,0.008 0.0261,0.0146 0.058,0.0146 0.0319,0 0.058,-0.0283 0.058,-0.0627 z m 0.41754,-0.14284 c 0.0275,-0.0214 0.039,-0.0665 0.0255,-0.10036 -0.0996,-0.24947 -0.0181,-0.34444 0.14194,-0.16534 l 0.10831,0.12123 0.11683,-0.0667 c 0.0793,-0.0452 0.11082,-0.0884 0.0981,-0.13439 -0.0103,-0.0372 -0.0286,-0.10258 -0.0407,-0.14522 -0.0357,-0.12588 0.0877,-0.14141 0.18884,-0.0238 0.0982,0.11426 0.1371,0.12279 0.23467,0.0514 l 0.0682,-0.0498 -0.0267,-0.10623 c -0.0426,-0.16966 -0.21981,-0.2195 -0.78065,-0.2195 h -0.48288 l 0.0267,0.0677 c 0.0488,0.124 0.0663,0.45319 0.0292,0.55047 l -0.0367,0.096 0.0768,0.10392 c 0.0761,0.10289 0.13962,0.10807 0.25238,0.0206 z m -13.8293,-0.52801 c 0.008,-0.0964 0.0287,-0.20441 0.0449,-0.23995 l 0.0292,-0.0647 h -0.3043 -0.30429 l -0.0526,0.11889 -0.0527,0.11888 0.0706,0.0516 0.0706,0.0516 0.13196,-0.10065 0.13195,-0.10065 0.0427,0.0427 0.0427,0.0427 -0.0671,0.14056 -0.0671,0.14055 0.0676,0.0747 0.0676,0.0747 0.0663,-0.0879 c 0.0365,-0.0484 0.0733,-0.16677 0.082,-0.26319 z m 15.10309,-0.14068 c -0.0129,-0.0129 -0.0462,-0.0142 -0.0742,-0.003 -0.0309,0.0123 -0.0216,0.0215 0.0234,0.0234 0.0407,0.002 0.0637,-0.007 0.0507,-0.0204 z m -14.37501,-4.0118 c -0.0406,-0.10669 -0.096,-0.13245 -0.13818,-0.0642 -0.0133,0.0215 0.0161,0.0883 0.0654,0.14847 0.0982,0.11987 0.13444,0.0779 0.0728,-0.0843 z m 0.46161,-0.19986 c 0,-0.0235 -0.0195,-0.0623 -0.0435,-0.0862 l -0.0435,-0.0435 -0.13055,0.0623 -0.13056,0.0623 v 0.10113 c 0,0.0556 0.0209,0.12204 0.0464,0.14759 l 0.0465,0.0465 0.12758,-0.12367 c 0.0702,-0.068 0.12759,-0.14288 0.12759,-0.16637 z m 14.06811,0.0731 c -0.0129,-0.0129 -0.0462,-0.0142 -0.0742,-0.003 -0.0309,0.0123 -0.0217,0.0215 0.0233,0.0233 0.0407,0.002 0.0636,-0.007 0.0507,-0.0204 z m -0.72439,-0.12794 c 0,-0.0426 -0.30403,-0.099 -0.33992,-0.0632 -0.0417,0.0417 0.0799,0.0972 0.21421,0.0978 0.0692,3.1e-4 0.12571,-0.0153 0.12571,-0.0347 z m -13.19265,-0.10447 c -0.0566,-0.0682 -0.084,-0.0482 -0.0512,0.0373 0.0134,0.0348 0.0407,0.0531 0.0608,0.0408 0.0217,-0.0134 0.018,-0.0449 -0.01,-0.0781 z m 0.27646,-0.19468 0.13329,-0.14103 -0.16438,0.0902 c -0.16418,0.09 -0.18716,0.11758 -0.13859,0.16615 0.034,0.034 0.019,0.0442 0.16968,-0.11526 z m 10.84694,0.0637 c 0.0132,-0.0213 -9.2e-4,-0.0387 -0.0316,-0.0387 -0.0305,0 -0.10984,-0.0109 -0.17633,-0.0241 -0.074,-0.0148 -0.12086,-0.008 -0.12086,0.0165 0,0.0729 0.28733,0.11339 0.32876,0.0463 z m -0.57512,-2.369 c -0.0128,-0.0478 -0.0235,-0.11312 -0.0238,-0.14504 l -4.5e-4,-0.058 -0.20948,0.013 -0.20947,0.0131 0.0778,0.13199 0.0778,0.13198 h 0.1554 0.1554 l -0.0234,-0.087 z m -7.37736,-0.27636 0.0924,-0.0512 -0.0819,-0.0819 c -0.0973,-0.0973 -0.19968,-0.0719 -0.19968,0.0495 0,0.14482 0.0438,0.16423 0.18912,0.0837 z m 7.34636,-0.1045 c 0.0655,-0.1049 0.0407,-0.12613 -0.0821,-0.0702 l -0.0987,0.0449 0.0453,0.0517 c 0.0617,0.0704 0.0768,0.0674 0.13542,-0.0265 z m 0.18067,-0.34703 c 0,-0.11724 -0.11361,-0.14502 -0.2156,-0.0527 -0.10112,0.0916 -0.0937,0.12476 0.0319,0.14343 0.15867,0.0236 0.18371,0.0112 0.18371,-0.0907 z m -4.57287,-0.29342 c -0.0262,-0.0106 -0.0784,-0.0112 -0.11603,-0.002 -0.0376,0.01 -0.0162,0.0184 0.0476,0.0192 0.0638,5.8e-4 0.0946,-0.007 0.0684,-0.0178 z"
       id="US-M4-Jumbo" />
  </g>
</svg>
