<?xml version="1.0" encoding="UTF-8" standalone="no"?>
<!-- Created with Inkscape (http://www.inkscape.org/) -->

<svg
   width="21.644728mm"
   height="8.6773548mm"
   viewBox="0 0 21.644728 8.6773548"
   version="1.1"
   id="svg4964"
   sodipodi:docname="inkporter-svg-jxlpd5_n.svg"
   xmlns:inkscape="http://www.inkscape.org/namespaces/inkscape"
   xmlns:sodipodi="http://sodipodi.sourceforge.net/DTD/sodipodi-0.dtd"
   xmlns="http://www.w3.org/2000/svg"
   xmlns:svg="http://www.w3.org/2000/svg">
  <sodipodi:namedview
     id="namedview4966"
     pagecolor="#ffffff"
     bordercolor="#666666"
     borderopacity="1.0"
     inkscape:pageshadow="2"
     inkscape:pageopacity="0.0"
     inkscape:pagecheckerboard="0"
     inkscape:document-units="mm"
     showgrid="false"
     inkscape:zoom="0.32026164"
     inkscape:cx="65.571386"
     inkscape:cy="847.74435"
     inkscape:window-width="1920"
     inkscape:window-height="1017"
     inkscape:window-x="-8"
     inkscape:window-y="-8"
     inkscape:window-maximized="1"
     inkscape:current-layer="layer1" />
  <defs
     id="defs4961" />
  <g
     inkscape:label="Layer 1"
     inkscape:groupmode="layer"
     id="layer1"
     transform="translate(-41.75334,-188.4389)">
    <g
       id="U-S-L4"
       transform="translate(-269.62143,-307.04156)">
      <path
         d="m 323.41503,498.35638 -2.11804,-0.14882 v -0.0827 c 1.3863,0.11024 2.20072,0.14194 2.20072,0.14194 z m -1.00321,1.08865 -1.42627,0.0786 0.29628,-1.18925 2.02158,0.14194 z m -2.96692,0.16261 -0.0524,-1.21818 c 0.85163,-0.062 1.57234,-0.12403 1.77629,-0.14332 v 0.0124 l -0.31833,1.27193 z m -0.48644,0.0262 0.31419,-1.03216 0.0441,1.01287 z m -0.25081,-1.19614 c 0.11713,-0.008 0.23427,-0.0152 0.35002,-0.0234 l -0.3073,1.00734 z m -1.19751,1.27606 -0.47956,-1.28708 c 0.40101,0.04 0.89297,0.0606 1.42627,0.0275 0.0413,-0.003 0.0827,-0.006 0.12265,-0.008 l 0.0524,1.20579 z m -0.53055,0.0289 -0.0193,-0.63252 0.24116,0.61874 z m -0.97289,0.0524 -0.0413,-0.0179 0.70142,-1.39182 c 0.005,0 0.01,0.001 0.0138,0.001 l 0.14056,0.36518 0.0289,0.99632 z m -0.1571,-0.0717 -0.92879,-0.42168 c 0.38722,-0.46716 1.06108,-1.04042 1.06108,-1.04042 0,0 0.20533,0.0524 0.55122,0.10473 z m 16.63981,-3.15433 c -0.12126,-0.34451 -0.25907,-1.04318 -1.08313,-1.08589 -0.8227,-0.0441 -1.10381,0.4644 -1.33257,0.84198 -0.226,0.37758 -1.25539,1.97748 -1.25539,1.97748 0,0 -4.60127,-0.11989 -5.26135,-0.13091 -0.66008,-0.01 -2.33853,-0.12816 -4.29948,-0.34451 -1.95957,-0.21635 -2.28341,-0.18328 -2.72714,-0.0648 -0.4451,0.11851 -1.74322,1.50068 -1.74322,1.50068 0,0 -0.1502,0.0165 -0.37482,0.0413 v -0.15709 h -0.25494 v 0.18466 c -0.66283,0.0716 -1.63022,0.17639 -1.76389,0.19154 -0.2067,0.0207 -0.51952,0.0207 -0.56361,0.39964 -0.0262,0.22599 0.12264,0.70831 0.24666,1.0597 h -0.0207 v 0.46303 h 0.12265 v -0.18879 c 0.0317,0.0841 0.0524,0.13504 0.0524,0.13504 0,0 2.56591,0.51815 3.627,0.51815 0.0372,0 0.0758,0 0.11438,0 v 0.87367 c -0.2949,0.0827 -0.51125,0.35416 -0.51125,0.67386 0,0.38585 0.31419,0.70004 0.70142,0.70004 0.38585,0 0.70004,-0.31419 0.70004,-0.70004 0,-0.13229 -0.0372,-0.25631 -0.10198,-0.36104 l 1.41801,-1.27744 h -0.2701 l -1.25953,1.1355 c -0.12678,-0.12265 -0.29765,-0.19706 -0.48644,-0.19706 -0.004,0 -0.007,0 -0.01,0 v -0.84887 c 0.98943,-0.006 2.04363,-0.0427 2.04363,-0.0427 l 13.00317,-2.13872 c 0,0 0.0386,-0.01 0.62838,-0.19154 0.5898,-0.18328 0.87506,-0.27561 1.12999,-0.65181 0.25356,-0.37483 -0.34589,-1.96922 -0.46853,-2.31511 m -20.82078,2.3344 c -0.0303,-0.83509 -0.20532,-1.68121 -0.20532,-1.68121 0,0 -0.0386,0.53054 -0.0482,0.97703 -0.007,0.2632 0.0124,0.97841 0.0289,1.66053 h -0.0689 v 0.4396 h 0.0799 c 0.008,0.31419 0.0152,0.59393 0.0179,0.7841 0.01,0.66146 0.15572,1.78043 0.15572,1.78043 0,0 0.0772,-0.57051 0.0978,-1.19063 0.01,-0.32383 10e-4,-0.83784 -0.0138,-1.3739 h 0.0799 v -0.4396 h -0.0923 c -0.011,-0.34313 -0.0221,-0.67661 -0.0317,-0.95635"
         id="path99265" />
      <path
         d="m 318.04757,501.59339 0.008,-0.0772 0.0248,-0.0248 -0.0152,-0.13229 c 0,0 -0.0675,-0.0386 -0.113,-0.0386 -0.0455,0 -0.11851,0.0441 -0.11851,0.0441 l -0.12402,-0.004 -0.0345,-0.0524 -0.16261,-0.0427 -0.0276,-0.0634 0.11438,-0.3073 0.0331,0.01 c 0,0 0.11575,0.0496 0.14883,0.0262 0.0345,-0.0248 0.0551,-0.062 0.0551,-0.062 l 0.0469,-0.12954 0.0537,-0.04 c 0,0 0.0386,-0.21773 0.0427,-0.25356 0.004,-0.0358 -0.0565,-0.23289 -0.0744,-0.26183 -0.0179,-0.0289 -0.10748,-0.0772 -0.10748,-0.0772 l 0.007,-0.0675 0.0386,-0.007 c 0,0 0.0551,-0.0152 0.0744,-0.0207 0.0207,-0.006 0.0358,-0.004 0.0537,-0.0565 0.0193,-0.0524 -0.008,-0.14056 -0.008,-0.14056 0,0 -0.0469,-0.26458 -0.0634,-0.30041 -0.0179,-0.0358 -0.10611,-0.19706 -0.11851,-0.20946 -0.0124,-0.0124 -0.11438,-0.10335 -0.13643,-0.113 -0.022,-0.011 -0.0965,-0.0179 -0.12816,-0.006 -0.0303,0.011 -0.0634,0.0593 -0.0634,0.0593 l -0.0813,-0.006 -0.13091,-0.15709 -0.16812,-0.0469 -0.0152,-0.0152 0.001,-0.005 -0.0193,-0.0331 -0.01,0.0138 -0.003,-0.003 0.0124,-0.0345 0.0345,-0.008 c 0,0 -0.011,-0.011 -0.0124,-0.0262 -0.003,-0.0165 0,-0.0193 0.003,-0.0234 10e-4,-0.004 0.01,-0.0358 0.01,-0.0358 l 0.005,-0.0413 v -0.0317 c 0,0 -10e-4,-0.0221 -0.003,-0.0358 0,-0.0165 0,-0.0152 -0.004,-0.0248 -0.003,-0.01 -0.01,-0.0317 -0.01,-0.0317 0,0 -0.0124,-0.0289 -0.0234,-0.0427 -0.0124,-0.0152 -0.0317,-0.0372 -0.0317,-0.0372 l -0.0234,-0.022 c 0,0 -0.0262,-0.0221 -0.0331,-0.0248 -0.008,-0.001 -0.0386,-0.0138 -0.0386,-0.0138 l -0.0455,-0.0124 -0.0372,-0.003 -0.0482,-0.004 -0.051,0.007 -0.0469,0.008 c 0,0 -0.0469,0.0165 -0.0606,0.0262 -0.0138,0.0124 -0.005,0.004 -0.0372,0.0289 -0.0303,0.0248 -0.0358,0.0427 -0.0358,0.0427 l -0.0276,0.0496 -0.0152,0.0469 -0.011,0.0524 -0.004,0.0221 -0.0152,0.0234 -0.0262,0.0179 -0.0207,0.01 c 0,0 -0.0207,10e-4 -0.0234,10e-4 -0.004,0 0.005,0.003 0.0152,0.003 l 0.14194,0.0276 -0.0496,0.12127 0.0152,0.003 0.0358,0.0193 0.011,0.0331 0.0207,0.0827 0.022,0.0207 0.0207,0.001 0.0372,0.003 0.0303,-0.0138 h 0.0482 l 0.003,0.003 -0.004,0.008 -0.0413,0.091 -0.0207,0.0841 -0.0124,0.0703 0.0234,0.0978 0.011,0.0248 -0.0923,0.11437 -0.37759,0.14745 0.54571,0.13643 -0.0331,0.0221 0.0648,0.226 c 0,0 -0.50712,-0.13505 -0.54433,-0.13781 -0.0372,-0.004 -0.13091,0.007 -0.14331,0.0813 -0.0138,0.0744 -0.0524,0.25631 -0.0524,0.25631 l -0.0262,0.19844 0.051,0.13643 0.091,0.0675 0.022,0.13091 -0.0248,0.17639 -0.0317,0.0138 -0.15709,0.0923 -0.1571,-0.0276 -0.04,0.0248 0.01,0.0772 0.25631,0.0841 0.0689,-0.0262 0.0634,0.0152 -0.004,0.0303 0.16812,0.0537 0.005,-0.0345 0.0675,-0.29352 0.0234,-0.31143 0.0496,-0.0758 0.008,-0.13642 0.21222,0.15434 0.26872,0.10611 0.0248,0.28939 -0.0207,0.41203 0.0441,0.11851 0.13505,0.0262 0.29215,-0.051 0.10886,-0.0152 0.0661,-0.0482 0.0744,0.005 0.12953,0.0207 0.0248,0.073 c 0,0 -0.0165,0.0813 -0.0207,0.12264 -0.004,0.0427 0.005,0.0772 0.04,0.10749 0.0345,0.0317 0.12265,-0.003 0.12265,-0.003 0,0 0.0345,-0.0358 0.0427,-0.0579 0.007,-0.022 0.0138,-0.10473 0.0138,-0.1254 0,-0.0207 -0.0372,-0.13918 -0.0372,-0.13918"
         id="path99267" />
    </g>
  </g>
</svg>
