<?xml version="1.0" encoding="UTF-8" standalone="no"?>
<!-- Created with Inkscape (http://www.inkscape.org/) -->

<svg
   width="17.72217mm"
   height="7.7132702mm"
   viewBox="0 0 17.72217 7.7132702"
   version="1.1"
   id="svg13154"
   sodipodi:docname="inkporter-svg-uqpnf882.svg"
   xmlns:inkscape="http://www.inkscape.org/namespaces/inkscape"
   xmlns:sodipodi="http://sodipodi.sourceforge.net/DTD/sodipodi-0.dtd"
   xmlns="http://www.w3.org/2000/svg"
   xmlns:svg="http://www.w3.org/2000/svg">
  <sodipodi:namedview
     id="namedview13156"
     pagecolor="#ffffff"
     bordercolor="#666666"
     borderopacity="1.0"
     inkscape:pageshadow="2"
     inkscape:pageopacity="0.0"
     inkscape:pagecheckerboard="0"
     inkscape:document-units="mm"
     showgrid="false"
     inkscape:zoom="0.90583672"
     inkscape:cx="177.73623"
     inkscape:cy="473.04331"
     inkscape:window-width="1920"
     inkscape:window-height="1017"
     inkscape:window-x="-8"
     inkscape:window-y="-8"
     inkscape:window-maximized="1"
     inkscape:current-layer="layer1" />
  <defs
     id="defs13151" />
  <g
     inkscape:label="Layer 1"
     inkscape:groupmode="layer"
     id="layer1"
     transform="translate(-96.05964,-147.74142)">
    <path
       d="m 106.07549,154.36542 1.0225,0.63665 c -0.0606,-0.0772 -0.0965,-0.17501 -0.0965,-0.27974 0,-0.25218 0.20533,-0.45751 0.45751,-0.45751 0.19844,0 0.36656,0.1254 0.42995,0.30041 l 0.18603,0.01 c 0.062,-0.18053 0.23289,-0.31006 0.43409,-0.31006 0.0868,0 0.16812,0.0248 0.2384,0.0675 l 0.18603,-0.0358 -0.31971,-0.58704 h -0.0744 l -0.051,-0.0565 -1.08313,-0.0193 -0.22876,-0.0482 c 0,0 -0.22875,-0.0496 -0.226,-0.008 0,0 -0.003,-0.0413 0,0 0,0 0.003,0.0413 0.003,0.25081 0,0.20808 -0.339,0.54708 -0.75793,0.54708 -0.0413,0 -0.0813,-0.004 -0.11988,-0.01 m 1.56131,0.77721 0.35554,0.003 c 0,0 0.35691,0.004 0.28525,-0.022 -0.0703,-0.0262 -0.17777,-0.14607 -0.21497,-0.29352 h -0.0786 c 0,0 -0.0799,0 -0.0978,0.0703 -0.0165,0.0703 -0.11714,0.18603 -0.24943,0.24254 m 1.02251,0.011 1.07211,0.011 c -0.19982,-0.0496 -0.34727,-0.22876 -0.34727,-0.44235 l -0.0551,-0.0593 -0.11162,-0.10197 v -0.16261 h -0.11437 v 0.16812 l -0.0854,0.0965 -0.0262,0.0289 c 0,0 -0.0248,0.0303 -0.0248,0.12954 0,0.10059 -0.12954,0.27009 -0.3073,0.3321 m 1.28295,0.0138 0.44649,0.005 c 0,0 0.44786,0.004 0.34726,-0.003 -0.1006,-0.008 -0.26458,-0.15159 -0.31006,-0.34038 h -0.0703 c 0,0 -0.0689,0 -0.0896,0.0827 -0.0207,0.0841 -0.15434,0.21636 -0.32384,0.25494 m 1.32154,-0.21222 0.96738,-0.68901 c -0.0648,0.0193 -0.13091,0.0289 -0.20119,0.0289 -0.35691,0 -0.65044,-0.27423 -0.67937,-0.62287 l 0.0262,0.37482 -0.7841,0.14194 -0.0661,-0.17225 v 0.226 h -0.20533 v -0.16537 l -0.18052,-0.38447 h -0.37758 l -0.1695,0.30455 c 0,0 -0.16812,0.30592 -0.0827,0.32108 0,0 -0.0854,-0.0152 0,0 0,0 0.0868,0.0165 0.12265,-0.006 0.0344,-0.022 0.1185,-0.0482 0.20808,-0.0482 0.21359,0 0.39274,0.14745 0.44373,0.34451 h 0.0703 c 0,0 0.0703,0 0.0965,-0.0992 0.0248,-0.0978 0.20395,-0.24529 0.41754,-0.24529 0.25356,0 0.45889,0.20533 0.45889,0.45751 0,0.0841 -0.0234,0.16536 -0.0648,0.23289 m -8.16074,-6.64766 0.008,-0.0813 -0.0937,0.0524 z m 0.19982,-0.0482 0.15709,0.0331 0.15434,-0.0207 -0.29765,-0.0592 z m 7.27328,0.78686 0.0234,-0.0965 -0.0675,-0.0427 -0.0827,0.0138 -0.0758,-0.12815 -0.0565,-0.0648 0.0427,-0.15021 -0.17226,-0.0345 0.0675,-0.0372 0.0248,-0.0565 0.0124,-0.062 0.0207,-0.0579 0.033,-0.0593 0.091,-0.0841 c 0.0165,-0.0138 0.073,-0.0317 0.073,-0.0317 l 0.0579,-0.011 0.0606,-0.008 0.0593,0.006 0.0992,0.0193 c 0.0551,0.0207 0.0896,0.0482 0.0896,0.0482 l 0.0634,0.0717 0.0413,0.0909 0.007,0.0758 -0.007,0.0854 c -0.0152,0.051 -0.0193,0.0537 -0.0165,0.073 l -0.0427,0.0841 0.0758,0.0717 0.11575,0.005 0.20395,0.14057 0.0965,-0.0193 c 0.0234,-0.0661 0.0234,-0.0661 0.0551,-0.0896 0.0331,-0.0248 0.12126,-0.0413 0.15158,-0.0358 0.0303,0.006 0.17777,0.0786 0.19706,0.0896 0.0207,0.011 0.17363,0.1695 0.20671,0.20808 0.0317,0.0372 0.17087,0.32936 0.17087,0.32936 0,0 0.062,0.0937 0.0565,0.16123 -0.004,0.0689 -0.022,0.0716 -0.0441,0.0841 l -0.0813,0.0482 -0.0289,0.10059 c 0.11989,0.0289 0.11989,0.0289 0.15021,0.0565 l 0.78961,0.0179 v 0.24667 h 0.091 v 0.41479 h 0.0882 l 0.2825,0.001 c 0,0 0.2825,0.003 0.2825,0.35554 v 1.12034 h -0.65319 v 0.36932 h -0.091 v 0.55672 l 0.11576,-0.0758 0.18879,0.0124 0.0896,0.0372 0.0372,0.0896 0.0262,0.22599 -0.0262,0.12816 -0.12678,0.1006 -0.011,0.16399 -0.12677,-0.0496 -0.11576,-0.051 -0.0634,-0.21635 -0.13367,-0.113 v 0.25907 l -0.008,0.40376 -0.0661,0.15297 c 0,0 -0.0661,0.15296 -0.35002,0.36242 l -1.32016,0.97014 -0.0799,0.0248 c 0,0 -0.0786,0.0248 -1.48966,0.0193 l -2.28065,-0.007 -0.113,-0.073 -1.68534,-1.0101 -0.24253,-0.34313 -0.062,-0.17777 -0.36793,0.0758 h -1.36977 l -0.0124,0.20257 h -0.29214 l -0.0386,-0.20257 h -1.21681 l -0.008,0.19568 -0.004,0.14608 -0.18052,0.003 -1.16307,0.022 c -0.10611,0.71106 -0.71795,1.25677 -1.45934,1.25677 -0.81718,0 -1.47863,-0.66146 -1.47863,-1.4745 0,-0.18604 0.0344,-0.36381 0.0965,-0.52779 l -0.25356,-0.0951 -0.011,0.14746 0.0289,0.15571 -0.30042,-0.54432 -0.14745,0.11989 c 0,0.28112 -0.21359,0.49471 -0.47817,0.49471 -0.26321,0 -0.47818,-0.21359 -0.47818,-0.4768 0,-0.26321 0.21497,-0.4768 0.47818,-0.4768 0.04,0 0.0799,0.005 0.11713,0.0152 l 0.19155,-0.26734 0.22599,0.0772 v -0.0593 l 0.006,-0.10198 0.0482,-0.0965 0.16949,0.006 0.091,0.0841 h -0.091 l -0.0909,0.0965 0.0124,0.0661 0.15158,0.005 0.13781,0.0427 v 0.0716 h 0.31695 l 0.10197,-0.20946 -0.0896,-0.13367 0.10198,-0.1254 0.1819,-0.18052 0.27422,-0.55122 0.006,-0.23702 0.12678,0.007 0.14469,0.0469 0.0758,0.0262 c 0,0 0.0744,0.0248 1.47726,-0.13918 l 2.27514,-0.26596 0.0854,-0.01 0.29766,-0.0344 0.47129,-0.91088 0.0413,-0.0854 0.0992,-0.20395 0.11437,0.1502 h 1.4056 l 0.0813,-0.11988 c 0,0 0.0827,-0.12127 -0.59256,-0.3266 l -1.54754,-0.47129 0.10887,-0.35691 -0.38723,-0.11713 0.0827,-0.26872 0.21773,0.0661 0.0386,-0.062 0.13229,-0.003 -0.0152,0.11713 0.0634,0.0193 0.0689,-0.0965 0.0262,-0.0689 0.35553,0.0634 0.001,0.0469 c 0,0 0,0.0469 0.3514,0.0841 l 1.14377,0.12127 0.66973,0.20394 0.64905,-0.94946 h 0.34589 c 0,0 0.34589,0 0.34589,0.70555 v 1.41249 h 1.06109 l -0.17501,-0.25631 -0.0551,-0.0937 -0.0482,-0.062 -0.0593,-0.10749 -0.008,-0.0854 -0.001,-0.10473 0.0179,-0.11989 0.0248,-0.0978 -0.0689,-0.0413 -0.0827,0.0138 -0.0758,-0.12815 -0.0551,-0.0648 0.0413,-0.15021 -0.17088,-0.0345 0.0661,-0.0372 0.0248,-0.0565 0.0138,-0.062 0.0193,-0.0579 0.0345,-0.0593 0.0896,-0.0841 c 0.0179,-0.0138 0.0744,-0.0317 0.0744,-0.0317 l 0.0565,-0.011 0.062,-0.007 0.0593,0.005 0.0992,0.0179 c 0.0551,0.0207 0.0882,0.0482 0.0882,0.0482 l 0.0648,0.0717 0.04,0.0923 0.008,0.0744 -0.008,0.0854 c -0.0152,0.051 -0.0193,0.0537 -0.0152,0.073 l -0.0441,0.0841 0.0772,0.073 0.11438,0.004 0.20395,0.14194 0.0978,-0.0207 c 0.0234,-0.0661 0.0234,-0.0661 0.0551,-0.0896 0.0317,-0.0248 0.12127,-0.0413 0.15159,-0.0345 0.0289,0.004 0.17776,0.0772 0.19706,0.0882 0.0193,0.0124 0.17363,0.17088 0.20532,0.20808 0.0331,0.0372 0.17226,0.32936 0.17226,0.32936 0,0 0.0606,0.0937 0.0565,0.16123 -0.005,0.0689 -0.0234,0.0717 -0.0455,0.0854 l -0.0813,0.0469 -0.0276,0.10197 c 0.11851,0.0276 0.11851,0.0276 0.14883,0.0551 l 1.33807,0.0345 -0.16536,-0.23978 -0.0537,-0.0937 -0.0482,-0.062 -0.0592,-0.10748 -0.008,-0.0854 -0.003,-0.10474 z m 0,0"
       id="U-S-T30" />
  </g>
</svg>
