<?xml version="1.0" encoding="UTF-8" standalone="no"?>
<!-- Created with Inkscape (http://www.inkscape.org/) -->

<svg
   width="14.76673mm"
   height="8.3009996mm"
   viewBox="0 0 14.76673 8.3009996"
   version="1.1"
   id="svg5"
   sodipodi:docname="inkporter-svg-ukoq7im4.svg"
   xmlns:inkscape="http://www.inkscape.org/namespaces/inkscape"
   xmlns:sodipodi="http://sodipodi.sourceforge.net/DTD/sodipodi-0.dtd"
   xmlns="http://www.w3.org/2000/svg"
   xmlns:svg="http://www.w3.org/2000/svg">
  <sodipodi:namedview
     id="namedview7"
     pagecolor="#ffffff"
     bordercolor="#666666"
     borderopacity="1.0"
     inkscape:pageshadow="2"
     inkscape:pageopacity="0.0"
     inkscape:pagecheckerboard="0"
     inkscape:document-units="mm"
     showgrid="false"
     inkscape:zoom="5.1241863"
     inkscape:cx="420.55458"
     inkscape:cy="187.63955"
     inkscape:window-width="1920"
     inkscape:window-height="1017"
     inkscape:window-x="-8"
     inkscape:window-y="-8"
     inkscape:window-maximized="1"
     inkscape:current-layer="layer1" />
  <defs
     id="defs2" />
  <g
     inkscape:label="Layer 1"
     inkscape:groupmode="layer"
     id="layer1"
     transform="translate(-114.70909,-38.78632)">
    <path
       d="m 122.6893,39.05059 h 0.31833 v -0.16123 h -0.13367 z m -0.34864,0.30593 h 0.0744 v -0.14194 h -0.0744 z m 3.17224,0.23289 -0.0882,-0.12127 h -0.0827 l -0.0813,0.12678 h -0.13505 v 0.0579 h 0.55122 v -0.0634 z m 2.34129,4.45657 -0.0248,0.0386 -0.14332,0.17914 -0.70693,0.41066 c 0.34727,0.22599 0.5774,0.58015 0.54294,1.17133 -0.04,0.65732 -0.61184,1.24161 -1.17822,1.24161 h -9.26317 c -0.44097,0 -2.3716,-1.05558 -2.3716,-2.00367 0,-0.39136 0.15847,-0.81304 0.46577,-1.01836 l -0.22599,-0.37208 0.22875,-0.17638 -0.19982,-0.0303 v -0.13229 l 0.5967,-0.0152 0.24391,-0.0455 v -0.55673 l 0.1006,0.0441 v 0.46853 h 0.0992 l 0.0537,-0.18741 -0.0965,-0.20671 h 0.16813 v -0.6904 h 1.06522 l 0.15709,-0.10335 0.1571,0.0289 0.11576,-0.0992 h 0.53881 v -0.13229 l 0.1819,0.11851 h 0.0841 l 0.0841,-0.33486 c 0,0 -0.28663,-0.0455 -0.44097,-0.11438 -0.15434,-0.0675 -0.24392,-0.1819 -0.24392,-0.1819 v -0.0234 h -0.99907 v -0.091 h -0.49058 v -0.59807 h 0.49058 v -0.0689 h 0.84473 v -0.0909 l 0.19982,-0.22875 h 0.37483 v 0.18741 l 0.11024,-0.0276 0.53606,-0.38723 0.28663,-0.23427 h 0.44235 v 0.25632 h 0.58015 v -0.68903 h 0.15434 v 0.68903 h 3.69728 v -0.24667 h -0.0744 v -0.21085 h -1.58061 v -0.11299 l -0.12954,-0.006 v -0.37482 l 0.0551,0.005 h 0.0744 v -0.0441 h 0.19568 l 0.24253,-0.21221 v -0.051 h 0.21498 v 0.2632 h 0.94258 v -0.0992 h 0.3445 v 0.20671 h 1.18512 v 0.0951 h 1.65502 v -0.0551 h 0.23978 v 0.19155 h -0.23978 v -0.0427 h -1.65502 v 0.12127 h -0.04 l 0.0427,0.0593 h 0.19431 v 0.1888 h -0.67249 v -0.18234 h 0.16261 l 0.0413,-0.0648 h -0.91364 v 0.0303 h -0.0303 v 0.29491 h -0.0992 l 0.008,0.24666 h 0.18053 v 1.14653 h -0.75655 v 0.52503 h -0.13229 v 0.13781 l 0.49334,-0.2508 h 0.53468 v -0.15021 h 0.0937 v 0.15021 l 0.94533,0.0193 v -0.12678 h 0.0992 l 0.0193,0.12678 h 0.0634 l 0.0992,-0.0965 h 0.3955 l 0.11438,0.12264 0.56361,-0.0262 0.0937,0.0207 0.0965,0.0965 h 1.58475 l 0.66972,0.23978 0.0455,0.073 v 0.21359 l 0.0386,0.0565 v 0.0551 l -0.073,0.0565 v 0.48094 l -0.0551,0.14745 -0.0758,0.10748 -0.11299,0.0827 -0.14332,0.062 -0.16812,0.01 h -0.85163 v 0.25494 l -0.0593,0.2508 -0.0689,0.19844 z m -0.94396,0.52228 0.65871,-0.35416 0.12677,-0.12953 h -0.514 l -0.0496,0.0978 h -0.29766 v 0.40652 c 0.0455,0.0248 0.091,0.0496 0.13505,0.0786 z m -0.0289,0.64905 c -0.0717,-0.0937 -0.16261,-0.17225 -0.26597,-0.23013 l -0.20119,0.52779 0.0606,0.01 z m 0.18603,0.51953 c -10e-4,-0.0441 -0.005,-0.0868 -0.0138,-0.12954 l -0.20396,0.0482 z m -0.0717,0.3886 c 0.0248,-0.0593 0.0441,-0.12264 0.0565,-0.18741 l -0.38998,-0.0124 z m -0.50574,0.48232 c 0.13092,-0.0469 0.24667,-0.12541 0.34038,-0.22738 l -0.34865,-0.31144 -0.11989,0.008 z m -1.12448,-0.66973 c 0.0207,0.11162 0.062,0.21635 0.11989,0.30868 0.0868,-0.0841 0.24116,-0.22462 0.33073,-0.30593 z m -6.66832,0.86265 v -0.10473 c -0.15848,-0.15434 -0.2577,-0.37345 -0.2577,-0.61598 l 0.001,-0.022 -0.10611,-0.0262 h -0.23288 l -0.12127,0.0152 0.001,0.0331 c 0,0.30317 -0.15572,0.5705 -0.38723,0.72071 h 0.30042 v -0.23565 h 0.17914 v 0.23565 h 0.22186 v -0.23565 h 0.17777 v 0.23565 z m 1.71014,0 v -0.1378 c -0.1378,-0.15297 -0.22324,-0.35829 -0.22324,-0.58291 0,-0.0923 0.0138,-0.17915 0.04,-0.26321 h -0.17501 c 0.0248,0.0841 0.0386,0.17088 0.0386,0.26321 0,0.26458 -0.11714,0.50298 -0.30179,0.6587 v 0.062 h 0.22186 v -0.23565 h 0.17777 v 0.23565 z m 2.08773,0 v -0.18879 c -0.113,-0.14607 -0.18052,-0.33073 -0.18052,-0.53192 l 0.001,-0.04 -0.0758,0.0634 h -0.23427 l -0.17639,0.0496 c -0.0234,0.27285 -0.17088,0.50988 -0.38447,0.64768 h 0.24942 V 46.565 h 0.17914 v 0.23565 h 0.22187 V 46.565 h 0.17777 v 0.23565 z m 1.2485,0 v -0.14469 c -0.0496,0.0565 -0.10611,0.10473 -0.16812,0.14469 z m 1.65778,0 v -0.20671 c -0.16812,-0.17363 -0.2825,-0.40238 -0.31695,-0.6587 l -0.28112,-0.001 v 0.11576 h -0.12953 l -0.0441,-0.062 0.0179,-0.0716 -0.7028,-0.0165 c 0.011,0.0579 0.0179,0.11852 0.0179,0.18053 0,0.18052 -0.0551,0.34864 -0.14745,0.48507 h 0.10749 v 0.23564 h 0.22186 v -0.23564 h 0.17777 v 0.23564 h 0.22324 v -0.23564 h 0.17777 v 0.23564 h 0.27699 v -0.23564 h 0.17914 v 0.23564 z m 0.17777,-0.0551 v 0.0551 h 0.0896 c -0.0303,-0.0165 -0.0606,-0.0344 -0.0896,-0.0551 m 0.2508,-0.18053 h 0.15021 v 0.0593 c 0.0606,0.0165 0.12402,0.0275 0.18879,0.0303 l -0.0482,-0.55672 h -0.0593 l -0.30868,0.42305 c 0.0248,0.0165 0.051,0.0317 0.0772,0.0441 m -10.12582,-0.49747 0.0868,-0.1378 -0.0427,10e-4 c -0.0854,0 -0.16812,-0.0124 -0.24804,-0.0358 0.0648,0.0579 0.13367,0.11575 0.20395,0.17225 m 0.63252,0.0896 -0.15434,0.2453 c 0.0648,0.0413 0.12953,0.0799 0.19292,0.11575 l 0.0413,-0.0661 c -0.0427,-0.0909 -0.0703,-0.19016 -0.0799,-0.2949 m -0.14194,-0.113 0.14056,0.0951 c -0.001,-0.0193 -0.001,-0.04 -0.001,-0.0593 0,-0.0937 0.0138,-0.18465 0.0427,-0.26871 l -0.0841,0.0234 -0.0606,-0.0482 c -0.0496,0.0317 -0.10198,0.0593 -0.1571,0.0813 l 0.01,0.11025 -0.10336,0.0358 -0.0124,-0.0303 -0.12127,0.19292 c 0.0606,0.0441 0.12265,0.0882 0.18328,0.12954 z m 0,0"
       id="U-S-M8-scott" />
  </g>
</svg>
