<?xml version="1.0" encoding="UTF-8" standalone="no"?>
<!-- Created with Inkscape (http://www.inkscape.org/) -->

<svg
   width="21.960657mm"
   height="9.1331511mm"
   viewBox="0 0 21.960657 9.1331511"
   version="1.1"
   id="svg3737"
   sodipodi:docname="inkporter-svg-hpryjd19.svg"
   xmlns:inkscape="http://www.inkscape.org/namespaces/inkscape"
   xmlns:sodipodi="http://sodipodi.sourceforge.net/DTD/sodipodi-0.dtd"
   xmlns="http://www.w3.org/2000/svg"
   xmlns:svg="http://www.w3.org/2000/svg">
  <sodipodi:namedview
     id="namedview3739"
     pagecolor="#ffffff"
     bordercolor="#666666"
     borderopacity="1.0"
     inkscape:pageshadow="2"
     inkscape:pageopacity="0.0"
     inkscape:pagecheckerboard="0"
     inkscape:document-units="mm"
     showgrid="false"
     inkscape:zoom="0.66368547"
     inkscape:cx="397.02542"
     inkscape:cy="561.25984"
     inkscape:window-width="1920"
     inkscape:window-height="1017"
     inkscape:window-x="-8"
     inkscape:window-y="-8"
     inkscape:window-maximized="1"
     inkscape:current-layer="layer1" />
  <defs
     id="defs3734" />
  <g
     inkscape:label="Layer 1"
     inkscape:groupmode="layer"
     id="layer1"
     transform="translate(-105.97655,-108.17234)">
    <path
       d="m 123.69908,117.27757 c 0.41647,-0.0234 0.82537,-0.0788 0.90866,-0.12316 0.0833,-0.0444 0.67961,-0.25761 1.32514,-0.47402 0.64554,-0.21641 1.25476,-0.46767 1.35383,-0.55834 0.36823,-0.33703 0.50378,-1.04744 0.28139,-1.47484 -0.11727,-0.22542 -0.39852,-0.50291 -0.57511,-0.56747 -0.0625,-0.0229 0.0256,-0.0442 0.19563,-0.0476 0.38141,-0.007 0.41247,-0.0368 0.3328,-0.31457 -0.0596,-0.20813 -0.0505,-0.22147 0.1539,-0.22147 0.11957,0 0.23457,-0.0277 0.25555,-0.0617 0.046,-0.0744 -0.17024,-0.85518 -0.265,-0.95675 -0.0369,-0.0395 -0.0671,-0.16841 -0.0671,-0.28633 0,-0.25288 -0.12541,-0.32031 -0.40091,-0.21556 -0.14726,0.056 -0.26968,0.0468 -0.46496,-0.0348 -0.14581,-0.0609 -0.35457,-0.11078 -0.46392,-0.11078 -0.13515,0 -0.21152,-0.0485 -0.23843,-0.15143 -0.0484,-0.18489 -0.38353,-0.20822 -0.45136,-0.0315 -0.0355,0.0924 -0.10899,0.10892 -0.31945,0.0717 -0.46268,-0.0818 -0.53842,-0.12082 -0.53842,-0.27733 0,-0.1249 -0.0427,-0.14702 -0.2461,-0.1274 -0.14732,0.0142 -0.23849,0.0616 -0.22716,0.11836 0.0287,0.14375 -0.57973,0.12562 -0.63519,-0.0189 -0.0473,-0.12341 -0.37064,-0.15633 -0.43958,-0.0447 -0.0245,0.0397 -0.21046,0.0241 -0.43988,-0.037 -0.21853,-0.0582 -0.56026,-0.10619 -0.75939,-0.10667 -0.25135,-7.1e-4 -0.37538,-0.0356 -0.40565,-0.1145 -0.024,-0.0625 -0.0996,-0.1142 -0.16799,-0.11495 -0.0819,-7e-4 -0.0339,-0.072 0.14061,-0.20824 0.14576,-0.11377 0.40928,-0.35168 0.58558,-0.52868 0.17629,-0.177 0.38927,-0.32182 0.47327,-0.32182 0.0852,0 0.15271,-0.0502 0.15271,-0.11359 0,-0.0707 0.0715,-0.11358 0.1893,-0.11358 0.1178,0 0.18931,-0.0429 0.18931,-0.11358 0,-0.066 -0.0687,-0.11358 -0.16406,-0.11358 -0.0903,0 -0.14165,-0.0224 -0.11425,-0.0498 0.0274,-0.0274 0.0119,-0.0956 -0.0345,-0.15144 -0.0675,-0.0813 -0.037,-0.10162 0.1521,-0.10162 0.15162,0 0.23644,-0.0379 0.23644,-0.10548 0,-0.14977 -0.17147,-0.19741 -0.71041,-0.19741 -0.25897,0 -0.50323,-0.0317 -0.54278,-0.0705 -0.0396,-0.0388 -0.4127,-0.0913 -0.82916,-0.11666 -1.22099,-0.0744 -1.3997,-0.1064 -1.34804,-0.24102 0.0645,-0.16808 -0.1231,-0.25542 -0.44028,-0.20501 -0.15063,0.024 -0.34125,0.007 -0.4236,-0.0366 -0.11553,-0.0618 -0.22159,-0.0445 -0.46441,0.0756 -0.17309,0.0856 -0.31471,0.19091 -0.31471,0.23392 0,0.0518 -0.21569,0.0607 -0.63622,0.0265 -0.34991,-0.0284 -0.64806,-0.0241 -0.66257,0.01 -0.0354,0.0823 -0.99225,0.67461 -1.19242,0.73814 -0.11542,0.0366 -0.15907,0.0179 -0.15907,-0.0681 0,-0.0904 -0.0769,-0.11688 -0.32182,-0.11114 -0.52847,0.0124 -0.69747,0.0867 -0.72451,0.31854 -0.0146,0.12505 -0.0564,0.18653 -0.10614,0.15582 -0.0452,-0.0279 -0.12309,0.005 -0.17326,0.074 -0.082,0.11206 -0.49402,0.12923 -4.05858,0.16908 -2.18206,0.0244 -4.00727,0.0566 -4.05603,0.0714 -0.0488,0.0149 -0.0769,0.0888 -0.0626,0.16431 0.0144,0.0754 0.0286,0.15718 0.0318,0.1816 0.004,0.0244 1.1899,0.0502 2.63714,0.0573 3.79254,0.0187 5.47093,0.0838 5.47093,0.21212 0,0.0682 0.0962,0.10256 0.28774,0.10256 0.15826,0 0.32012,0.03 0.35968,0.0666 0.0396,0.0366 0.19972,0.10741 0.35589,0.15732 0.15619,0.0499 0.28397,0.11486 0.28397,0.14436 0,0.0961 -0.33298,0.0723 -0.69907,-0.0502 -0.3474,-0.11617 -0.36372,-0.11476 -0.53494,0.0461 -0.15547,0.14607 -0.26045,0.16591 -0.8773,0.16591 h -0.70068 l -1.17531,1.07905 -1.1753,1.07905 -0.4426,0.0448 c -0.43042,0.0435 -0.83119,0.22363 -0.83119,0.3734 0,0.0407 0.0511,0.074 0.11358,0.074 0.0625,0 0.11358,0.0341 0.11358,0.0757 0,0.0417 -0.0471,0.0757 -0.10467,0.0757 -0.16186,0 -0.72741,0.60382 -0.7353,0.78506 -0.0201,0.46306 0.0327,0.84945 0.13782,1.01005 0.16277,0.24842 0.74116,0.61522 1.72441,1.09358 l 0.83293,0.40523 3.33179,0.019 c 1.83247,0.0105 4.50737,0.0275 5.9442,0.0379 1.43683,0.0103 2.95317,0 3.36964,-0.0239 z m -1.02226,-0.44959 c 0,-0.10929 -0.28204,-0.0933 -0.33443,0.0189 -0.0353,0.0757 -0.053,0.0757 -0.0883,0 -0.0243,-0.0521 -0.12368,-0.0947 -0.22086,-0.0947 -0.0972,0 -0.19189,0.0426 -0.21048,0.0947 -0.0186,0.052 -0.0568,0.0734 -0.085,0.0476 -0.0282,-0.0259 0.0268,-0.16929 0.12214,-0.31861 0.16527,-0.25888 0.19347,-0.27166 0.60697,-0.27471 0.38252,-0.003 0.44851,0.0195 0.55957,0.18895 0.11878,0.1813 0.11781,0.19828 -0.0172,0.30048 -0.16748,0.1268 -0.33239,0.14536 -0.33239,0.0374 z m -2.59436,-0.0558 c -0.13827,-0.12514 -0.15045,-0.12448 -0.25128,0.0134 -0.0583,0.0797 -0.12882,0.12204 -0.15675,0.0941 -0.028,-0.028 0.0123,-0.12057 0.0894,-0.20584 0.0969,-0.10705 0.1403,-0.27122 0.1403,-0.53052 0,-0.33184 0.0186,-0.37549 0.16018,-0.37549 0.14137,0 0.16018,0.0437 0.16018,0.37224 0,0.20472 0.0435,0.42473 0.0968,0.48888 0.0894,0.10777 0.0607,0.27472 -0.0473,0.27472 -0.0255,0 -0.11175,-0.0592 -0.19167,-0.1315 z m -2.13828,-0.0199 c -0.0972,0 -0.19158,0.0426 -0.20979,0.0947 -0.0241,0.069 -0.0748,0.0577 -0.18661,-0.0414 -0.14081,-0.12484 -0.16355,-0.12607 -0.27484,-0.0147 -0.10025,0.10025 -0.13995,0.10416 -0.22844,0.0225 -0.0921,-0.085 -0.09,-0.12791 0.0151,-0.30704 0.1136,-0.19362 0.15708,-0.20824 0.61931,-0.20824 0.47972,0 0.50004,0.007 0.58053,0.22096 0.0611,0.16183 0.0607,0.24361 -0.002,0.30572 -0.0566,0.0566 -0.0935,0.0586 -0.11097,0.006 -0.0144,-0.0432 -0.10569,-0.0786 -0.20286,-0.0786 z m -2.71159,0.0343 c -0.14735,0.14735 -0.23287,0.15094 -0.17781,0.007 0.0293,-0.0762 0.005,-0.0958 -0.077,-0.064 -0.10246,0.0393 -0.10067,0.0175 0.0128,-0.15564 0.0727,-0.11093 0.13005,-0.3372 0.12775,-0.50391 -0.004,-0.24523 0.0223,-0.30255 0.13567,-0.30255 0.11575,0 0.13899,0.0579 0.13479,0.33584 -0.003,0.1931 0.0483,0.41726 0.12042,0.52739 0.16639,0.25394 0.15905,0.32642 -0.0169,0.16715 -0.12855,-0.11634 -0.15387,-0.11748 -0.25962,-0.0117 z m -1.82127,0.004 c -0.024,-0.0625 -0.0968,-0.11359 -0.16192,-0.11359 -0.0651,0 -0.13795,0.0511 -0.16192,0.11359 -0.0579,0.15102 -0.17666,0.1436 -0.30299,-0.0188 -0.0981,-0.12621 -0.10791,-0.12621 -0.206,0 -0.12633,0.16252 -0.19989,0.16948 -0.19989,0.0188 0,-0.0625 -0.0519,-0.11359 -0.11533,-0.11359 -0.10097,0 -0.0999,-0.0236 0.009,-0.18929 0.10587,-0.16159 0.181,-0.18915 0.51287,-0.18816 0.21386,7e-4 0.4237,0.0262 0.46631,0.0568 0.0843,0.0606 0.339,0.44169 0.339,0.5073 0,0.0895 -0.13809,0.0331 -0.17883,-0.0731 z m -1.56278,0.0802 c 0,-0.0184 0.0341,-0.0544 0.0757,-0.0802 0.0417,-0.0257 0.0757,-0.0107 0.0757,0.0334 0,0.0441 -0.0341,0.0802 -0.0757,0.0802 -0.0417,0 -0.0757,-0.0151 -0.0757,-0.0334 z m 12.87968,-0.40123 c 0.0434,-0.1141 0.0587,-0.31519 0.0339,-0.44689 l -0.045,-0.23944 0.39958,-0.0286 c 0.26464,-0.0189 0.46973,0.0104 0.60734,0.0872 0.20866,0.11637 0.27419,0.22944 0.13298,0.22944 -0.0417,0 -0.0757,0.0511 -0.0757,0.11359 0,0.13444 -0.0365,0.1399 -0.23286,0.0348 -0.12432,-0.0666 -0.15926,-0.047 -0.225,0.12591 -0.0592,0.15556 -0.099,0.18356 -0.16588,0.11664 -0.13282,-0.13283 -0.26256,-0.10602 -0.30686,0.0634 -0.0218,0.0833 -0.076,0.15145 -0.12054,0.15145 -0.057,0 -0.0576,-0.0616 -0.002,-0.20744 z m -14.50596,-0.2027 c -0.11818,0.0297 -0.19105,0.016 -0.19105,-0.0359 0,-0.0461 0.0341,-0.084 0.0757,-0.084 0.0417,0 0.0757,-0.0674 0.0757,-0.14982 0,-0.12961 0.0239,-0.13893 0.17728,-0.0691 0.13671,0.0623 0.17874,0.14424 0.18365,0.35805 0.005,0.23876 -0.003,0.25335 -0.0619,0.10503 -0.0545,-0.13747 -0.1069,-0.16257 -0.25936,-0.12431 z m 15.82475,-0.19476 c -0.0265,-0.0429 0.005,-0.0556 0.0712,-0.0297 0.13118,0.0503 0.15518,0.10461 0.0463,0.10461 -0.0391,0 -0.0921,-0.0337 -0.11751,-0.0748 z"
       id="U-S-Sherman-late-76"
       style="stroke-width:0.286194" />
  </g>
</svg>
