<?xml version="1.0" encoding="UTF-8" standalone="no"?>
<!-- Created with Inkscape (http://www.inkscape.org/) -->

<svg
   width="5.3524919mm"
   height="4.8148236mm"
   viewBox="0 0 5.3524919 4.8148236"
   version="1.1"
   id="svg1"
   sodipodi:docname="inkporter-svg-0turli2f.svg"
   xmlns:inkscape="http://www.inkscape.org/namespaces/inkscape"
   xmlns:sodipodi="http://sodipodi.sourceforge.net/DTD/sodipodi-0.dtd"
   xmlns="http://www.w3.org/2000/svg"
   xmlns:svg="http://www.w3.org/2000/svg">
  <sodipodi:namedview
     id="namedview1"
     pagecolor="#ffffff"
     bordercolor="#000000"
     borderopacity="0.25"
     inkscape:showpageshadow="2"
     inkscape:pageopacity="0.0"
     inkscape:pagecheckerboard="0"
     inkscape:deskcolor="#d1d1d1"
     inkscape:document-units="mm"
     inkscape:zoom="1.0476431"
     inkscape:cx="397.08179"
     inkscape:cy="561.25984"
     inkscape:window-width="2560"
     inkscape:window-height="1368"
     inkscape:window-x="0"
     inkscape:window-y="0"
     inkscape:window-maximized="1"
     inkscape:current-layer="layer1" />
  <defs
     id="defs1" />
  <g
     inkscape:label="Layer 1"
     inkscape:groupmode="layer"
     id="layer1"
     transform="translate(-104.24582,-127.52917)">
    <g
       id="U-S-Infantry-OP"
       transform="translate(-220.47378,-275.73441)">
      <path
         style="fill:#000000;stroke-width:0.00988633"
         d="m 329.55017,408.06974 c -0.0148,-0.005 -0.0388,-0.0181 -0.0532,-0.0294 l -0.0263,-0.0207 h -0.0534 c -0.0609,0 -0.10808,-0.017 -0.13675,-0.0491 l -0.0198,-0.0222 0.001,-0.0558 c 8.1e-4,-0.0307 0.0112,-0.10246 0.0231,-0.15957 l 0.0218,-0.10381 0.007,-0.23233 c 0.008,-0.29003 0.008,-0.47266 -0.002,-0.54622 l -0.008,-0.0568 h -0.0173 c -0.009,0 -0.0503,0.0113 -0.0908,0.0251 l -0.0734,0.025 -0.12774,0.009 -0.12773,0.009 -0.0269,0.0257 -0.0268,0.0257 -0.0315,0.0797 -0.0315,0.0797 0.0101,0.12778 0.0101,0.12777 0.0248,0.0425 c 0.0137,0.0234 0.0409,0.0617 0.0606,0.0851 0.0197,0.0235 0.043,0.0564 0.0521,0.0731 l 0.0164,0.0304 v 0.0791 0.0791 l -0.0176,0.0354 -0.0176,0.0354 -0.0381,0.0215 -0.038,0.0215 h -0.046 c -0.0517,0 -0.10852,-0.0206 -0.14089,-0.051 l -0.0217,-0.0204 -0.008,0.0366 -0.008,0.0366 -0.0537,0.0631 c -0.0294,0.0348 -0.0724,0.0742 -0.0952,0.0874 -0.0448,0.0262 -0.15544,0.0552 -0.21006,0.0552 -0.0738,0 -0.18159,-0.0606 -0.27478,-0.15449 -0.0209,-0.0211 -0.0436,-0.0494 -0.0504,-0.063 -0.008,-0.0136 -0.0209,-0.0581 -0.031,-0.0989 l -0.0184,-0.0741 v -0.084 -0.084 l 0.0333,-0.0692 0.0333,-0.0692 -0.006,-0.053 -0.006,-0.053 -0.0497,-0.0861 c -0.0274,-0.0474 -0.0536,-0.0967 -0.0585,-0.10977 l -0.009,-0.0236 -0.008,0.0392 c -0.009,0.0466 -0.0312,0.11654 -0.048,0.14786 -0.007,0.0124 -0.0402,0.0527 -0.0745,0.0897 l -0.0624,0.0671 -0.006,0.028 -0.006,0.028 h -0.0298 -0.0298 l 0.006,-0.0489 c 0.008,-0.0664 0.0294,-0.10673 0.0834,-0.15493 l 0.0454,-0.0407 0.007,-0.0483 c 0.005,-0.0265 0.0145,-0.0655 0.0238,-0.0866 l 0.0169,-0.0383 -0.0179,0.007 c -0.0101,0.004 -0.0562,0.031 -0.10314,0.0607 l -0.0853,0.0538 h -0.0257 -0.0257 l -0.0101,-0.0191 c -0.0146,-0.0272 -0.0367,-0.14111 -0.0444,-0.22804 l -0.007,-0.0742 0.0129,-0.0175 c 0.0117,-0.0158 0.16525,-0.0853 0.27239,-0.12321 l 0.042,-0.0149 v -0.0374 -0.0373 l -0.0555,-0.0777 c -0.0306,-0.0427 -0.0941,-0.11992 -0.14137,-0.17157 -0.0472,-0.0517 -0.0964,-0.10954 -0.1092,-0.12853 -0.0129,-0.0191 -0.0366,-0.0472 -0.0528,-0.0625 l -0.0294,-0.0279 0.007,-0.071 c 0.003,-0.039 0.0101,-0.101 0.0153,-0.13781 0.008,-0.0612 0.0161,-0.0819 0.0643,-0.17044 0.009,-0.0163 0.047,-0.1 0.0847,-0.18595 0.0378,-0.086 0.0903,-0.19273 0.11693,-0.23726 0.0265,-0.0445 0.0585,-0.0995 0.0711,-0.12218 l 0.0227,-0.0412 0.0818,-0.0643 c 0.0449,-0.0354 0.10234,-0.0757 0.12749,-0.0898 0.0836,-0.0466 0.0953,-0.0576 0.16038,-0.15108 l 0.0647,-0.0928 -0.0122,-0.0294 -0.0121,-0.0294 0.007,-0.0474 0.007,-0.0474 -0.0199,-0.0776 -0.0199,-0.0776 v -0.0658 -0.0658 l 0.0164,-0.0486 c 0.009,-0.0267 0.0273,-0.0659 0.0404,-0.0871 0.0367,-0.0586 0.10572,-0.12064 0.16832,-0.1514 l 0.0565,-0.0277 h 0.0941 0.0942 l 0.0661,0.0325 0.0659,0.0325 0.041,0.0465 c 0.0225,0.0256 0.0583,0.0823 0.0795,0.12623 l 0.0387,0.0798 0.0297,0.0219 c 0.038,0.0281 0.0692,0.0893 0.07,0.13723 l 8.1e-4,0.0374 0.0131,-0.0297 c 0.008,-0.0163 0.0182,-0.0425 0.0244,-0.0582 l 0.0113,-0.0285 0.0444,0.006 c 0.0244,0.003 0.0681,0.0173 0.097,0.031 0.0289,0.0137 0.0566,0.0247 0.0614,0.0244 0.005,-2.7e-4 0.0229,-0.0125 0.0401,-0.0272 l 0.0311,-0.0269 0.0858,-0.17301 c 0.0472,-0.0952 0.10381,-0.21527 0.12578,-0.26692 0.0356,-0.0837 0.1028,-0.23088 0.20107,-0.44062 0.018,-0.0384 0.0418,-0.0955 0.0528,-0.12675 0.025,-0.0712 0.0538,-0.12126 0.0661,-0.11478 0.004,0.002 0.009,0.0214 0.008,0.0416 l -0.001,0.0367 -0.0249,0.0425 c -0.0137,0.0234 -0.0469,0.096 -0.0738,0.16135 -0.0457,0.11133 -0.16626,0.37657 -0.21051,0.4634 -0.0112,0.0213 -0.03,0.0658 -0.0425,0.0989 -0.0125,0.033 -0.0461,0.10987 -0.0745,0.17056 l -0.0519,0.11043 0.0345,0.0345 0.0345,0.0345 0.028,0.0712 0.028,0.0712 0.0153,0.004 c 0.0397,0.0122 0.0608,0.0283 0.0663,0.05 l 0.006,0.0237 -0.0337,0.0363 c -0.0185,0.02 -0.0419,0.0462 -0.0519,0.0582 l -0.0182,0.0219 0.0162,0.0403 0.0162,0.0403 -0.007,0.0269 c -0.003,0.0147 -0.0121,0.0363 -0.0194,0.048 -0.008,0.0117 -0.0161,0.0431 -0.0197,0.07 l -0.007,0.0489 0.043,0.0536 c 0.0237,0.0294 0.0558,0.0736 0.0714,0.0981 0.0156,0.0245 0.069,0.0845 0.11862,0.13346 0.0496,0.049 0.10303,0.10785 0.11863,0.13085 l 0.0284,0.0419 8.1e-4,0.0725 8.2e-4,0.0725 -0.0281,0.037 -0.0281,0.037 -0.0535,0.0262 -0.0535,0.0262 -0.042,-0.0126 c -0.0231,-0.008 -0.0599,-0.0165 -0.0816,-0.0212 -0.0218,-0.004 -0.0596,-0.0131 -0.084,-0.0188 -0.0244,-0.006 -0.0479,-0.0101 -0.0519,-0.0101 -0.005,-2.7e-4 -0.008,0.0326 -0.008,0.0729 v 0.0733 l -0.0184,0.043 c -0.0101,0.0236 -0.0257,0.049 -0.0346,0.0564 -0.009,0.008 -0.0162,0.0173 -0.0162,0.022 0,0.0166 0.047,0.009 0.0738,-0.0126 l 0.0271,-0.0212 0.0283,0.0167 0.0283,0.0167 0.11646,-0.0354 c 0.0641,-0.0195 0.17312,-0.0531 0.24237,-0.0749 l 0.12591,-0.0394 0.0116,-0.0218 c 0.0129,-0.0245 0.0275,-0.0363 0.0452,-0.0365 0.0191,-2.7e-4 0.0622,0.052 0.0622,0.0756 v 0.0215 l -0.042,0.0154 c -0.0479,0.0175 -0.17291,0.0566 -0.25706,0.0804 l -0.0568,0.0161 v 0.0185 0.0185 l 0.0686,0.0361 c 0.0378,0.0199 0.0834,0.0504 0.10134,0.068 l 0.0327,0.0319 0.0324,0.0883 0.0324,0.0883 10e-4,0.0494 c 0.001,0.0673 -0.019,0.27769 -0.0326,0.32583 -0.006,0.0215 -0.0372,0.0893 -0.0693,0.15068 -0.0321,0.0614 -0.0583,0.12207 -0.0583,0.13488 0,0.0128 -0.0133,0.0429 -0.0294,0.0667 l -0.0295,0.0435 v 0.0277 c 0,0.0153 -0.0112,0.0509 -0.0244,0.0791 -0.0133,0.0282 -0.029,0.0825 -0.0348,0.1205 -0.0115,0.0749 -0.0215,0.10089 -0.0586,0.15134 l -0.024,0.0327 0.0175,0.0555 0.0175,0.0555 0.0534,0.0534 c 0.0587,0.0587 0.0731,0.0804 0.0731,0.10988 v 0.0197 l 0.0324,0.02 c 0.0177,0.0112 0.0427,0.031 0.0554,0.0445 l 0.023,0.0246 0.004,0.0497 0.005,0.0496 -0.0227,0.0144 c -0.0321,0.0203 -0.11688,0.0363 -0.22038,0.0414 l -0.089,0.004 z m -0.83221,-1.14497 c -0.003,-0.003 -0.0158,0.003 -0.0273,0.0144 l -0.0209,0.0209 0.007,0.0179 0.007,0.0179 0.0204,-0.0324 c 0.0112,-0.0178 0.0176,-0.0352 0.014,-0.0388 z m -0.90713,-0.76385 v -0.0346 l -0.008,0.0279 c -0.004,0.0153 -0.0135,0.034 -0.0198,0.0416 l -0.0115,0.0138 0.0128,0.0374 0.0129,0.0374 0.008,-0.0445 c 0.005,-0.0245 0.008,-0.0601 0.008,-0.0791 z m 0.0244,-0.12605 0.007,-0.0321 h -0.0146 -0.0146 l 8.1e-4,0.0568 8.2e-4,0.0568 0.008,-0.0247 c 0.004,-0.0136 0.0101,-0.0392 0.0137,-0.0568 z m 1.56923,-1.08743 0.0101,-0.0419 -0.0124,-0.0199 -0.0124,-0.0199 h -0.022 -0.022 l -0.0101,-0.02 -0.0112,-0.0199 0.009,-0.0165 0.009,-0.0165 -0.0256,-0.0401 c -0.014,-0.022 -0.0327,-0.0614 -0.0412,-0.0875 l -0.0157,-0.0474 -0.0218,0.0603 -0.0217,0.0603 0.0381,0.0373 0.0381,0.0373 0.008,0.0677 c 0.004,0.0373 0.0101,0.0758 0.0139,0.0856 0.003,0.0101 0.0221,0.0286 0.041,0.0417 l 0.0344,0.0237 0.002,-0.0212 c 0.001,-0.0117 0.008,-0.0401 0.0125,-0.0631 z m -0.0521,-0.27935 c -0.0101,-0.0546 -0.0224,-0.0791 -0.0384,-0.0791 -0.0158,0 -0.009,0.0351 0.0172,0.0875 0.0143,0.0285 0.0272,0.0505 0.0288,0.0489 10e-4,-10e-4 -10e-4,-0.0274 -0.008,-0.0573 z m 0.0827,-0.0362 -0.0101,-0.0182 v 0.0292 0.0292 l 0.0112,-0.0112 0.0112,-0.0112 -0.0101,-0.0182 z m -0.0145,-0.0397 c -0.003,-0.003 -0.007,-6.8e-4 -0.007,0.007 0,0.008 0.003,0.0101 0.007,0.007 0.003,-0.003 0.003,-0.009 0,-0.0131 z m -0.0313,-0.0765 c -0.0233,-0.0492 -0.0579,-0.0846 -0.0704,-0.072 -0.002,0.002 -0.008,0.0197 -0.0101,0.038 l -0.006,0.0336 0.0341,0.0122 c 0.0188,0.007 0.0421,0.0211 0.0519,0.032 0.0101,0.0112 0.0197,0.0179 0.0219,0.0156 0.002,-0.002 -0.008,-0.029 -0.022,-0.0594 z"
         id="path108633-1-4" />
      <path
         d="m 325.89428,404.0551 c 0.19726,-0.005 0.40732,0.11057 0.50243,0.33292 0.0395,0.0922 0.0826,0.12367 0.23012,0.16745 0.0998,0.0297 0.20348,0.0721 0.23039,0.0945 0.0269,0.0223 0.10053,0.0664 0.16352,0.0978 0.0747,0.0373 0.11876,0.0881 0.12676,0.14571 0.007,0.0486 0.0506,0.20583 0.0973,0.34934 0.0468,0.14352 0.085,0.29752 0.085,0.34217 0,0.0947 -0.15983,0.29886 -0.23392,0.29886 -0.0635,0 -0.12866,0.16374 -0.10053,0.25242 0.0115,0.0365 0.0601,0.11277 0.10792,0.1696 0.0642,0.0762 0.0978,0.17778 0.12828,0.38721 0.0379,0.2596 0.0359,0.29008 -0.0232,0.35536 -0.069,0.0763 -0.0653,0.10203 0.0901,0.6254 0.0388,0.13069 0.0358,0.1558 -0.0305,0.24885 -0.0265,0.0373 -0.0537,0.0971 -0.0734,0.15571 h -0.71266 c -0.006,-0.0343 -0.0104,-0.0673 -0.0163,-0.10999 -0.0237,-0.18357 -0.0645,-0.36774 -0.0906,-0.40925 -0.0675,-0.10722 -0.21712,-0.18692 -0.39667,-0.21153 -0.19695,-0.027 -0.25379,0.0331 -0.24774,0.26237 0.005,0.16153 -0.0104,0.35103 -0.0323,0.46839 h -0.91175 c -0.0115,-0.0183 -0.022,-0.0352 -0.0321,-0.0467 -0.0496,-0.057 -0.0481,-0.0716 0.0166,-0.15834 0.0392,-0.0525 0.10976,-0.10457 0.15661,-0.1155 0.0921,-0.0216 0.13413,-0.14903 0.0733,-0.22238 -0.0193,-0.0232 -0.0466,-0.2847 -0.0607,-0.58099 -0.0284,-0.59599 -0.0226,-0.61736 0.18763,-0.70527 0.0914,-0.0382 0.14807,-0.0397 0.2764,-0.007 0.0935,0.0235 0.17431,0.0275 0.19205,0.009 0.0323,-0.033 -0.006,-0.45594 -0.0447,-0.4947 -0.0125,-0.0125 -0.0769,0.035 -0.14335,0.10538 -0.11989,0.12711 -0.24823,0.16197 -0.39253,0.10653 -0.1351,-0.0518 -0.0178,-0.50887 0.206,-0.80219 0.0719,-0.0943 0.0901,-0.16454 0.10122,-0.38886 0.0104,-0.20459 0.0286,-0.28491 0.0731,-0.31764 0.0328,-0.0241 0.0873,-0.0995 0.12118,-0.1676 0.0778,-0.15634 0.22349,-0.23321 0.37692,-0.23709 z m -0.33306,3.52654 c -0.0194,0 -0.0353,0.0389 -0.0353,0.0863 0,0.0474 0.0159,0.0962 0.0353,0.10815 0.0207,0.0128 0.0354,-0.0232 0.0354,-0.0863 0,-0.0596 -0.0159,-0.10815 -0.0354,-0.10815 z"
         style="fill:#000000;stroke-width:0.00935838"
         id="path25035-7-1-8-5-2" />
    </g>
  </g>
</svg>
