<?xml version="1.0" encoding="UTF-8" standalone="no"?>
<!-- Created with Inkscape (http://www.inkscape.org/) -->

<svg
   width="19.366362mm"
   height="11.167865mm"
   viewBox="0 0 19.366362 11.167865"
   version="1.1"
   id="svg71253"
   sodipodi:docname="inkporter-svg-ucqdntqp.svg"
   xmlns:inkscape="http://www.inkscape.org/namespaces/inkscape"
   xmlns:sodipodi="http://sodipodi.sourceforge.net/DTD/sodipodi-0.dtd"
   xmlns="http://www.w3.org/2000/svg"
   xmlns:svg="http://www.w3.org/2000/svg">
  <sodipodi:namedview
     id="namedview71255"
     pagecolor="#ffffff"
     bordercolor="#666666"
     borderopacity="1.0"
     inkscape:pageshadow="2"
     inkscape:pageopacity="0.0"
     inkscape:pagecheckerboard="0"
     inkscape:document-units="mm"
     showgrid="false"
     inkscape:zoom="0.64052329"
     inkscape:cx="397.33138"
     inkscape:cy="561.25984"
     inkscape:window-width="2400"
     inkscape:window-height="1271"
     inkscape:window-x="-9"
     inkscape:window-y="-9"
     inkscape:window-maximized="1"
     inkscape:current-layer="layer1" />
  <defs
     id="defs71250" />
  <g
     inkscape:label="Layer 1"
     inkscape:groupmode="layer"
     id="layer1"
     transform="translate(-14.027068,-197.05377)">
    <path
       d="m 16.69536,203.57049 h 0.34176 l 0.0854,-0.0634 c 0,-0.19981 -0.10887,-0.3321 -0.21498,-0.3321 -0.10473,0 -0.21497,0.13229 -0.21497,0.3321 0,0.0221 0.001,0.0427 0.003,0.0634 m 8.76432,4.36976 0.0496,-0.19568 H 25.628 c -0.0965,-0.13918 -0.15296,-0.31006 -0.15296,-0.49196 0,-0.18052 0.0537,-0.34864 0.14883,-0.48783 h -0.53468 c 0.0951,0.13919 0.15021,0.30731 0.15021,0.48783 0,0.1819 -0.0565,0.35278 -0.15434,0.49196 h 0.1061 l 0.0606,0.19568 z m 0.35278,0 c -0.0634,-0.0482 -0.11851,-0.10473 -0.16536,-0.16812 l 0.0524,0.16812 z m 2.73678,0 c -0.20532,-0.15985 -0.33762,-0.4079 -0.33762,-0.68764 0,-0.0689 0.007,-0.13367 0.0221,-0.19844 h -1.02526 c 0.0165,0.0648 0.022,0.12954 0.022,0.19844 0,0.27974 -0.13091,0.52779 -0.33624,0.68764 h 0.26183 l 0.0496,-0.19568 h 0.12953 l 0.0593,0.19568 h 0.20808 l 0.0496,-0.19568 h 0.13092 l 0.0592,0.19568 h 0.20946 l 0.0482,-0.19568 h 0.12953 l 0.0606,0.19568 z m 2.96279,-1.04731 c -0.33349,-0.0179 -0.62012,-0.2067 -0.77308,-0.47955 l -0.3831,0.35139 h -0.53605 c 0.0937,0.13919 0.14745,0.30731 0.14745,0.48783 0,0.15021 -0.0372,0.29214 -0.10474,0.41617 0.091,-0.0386 0.18191,-0.0813 0.27148,-0.12265 l -0.0386,-0.19017 0.11576,-0.0565 0.13642,0.14608 0.19017,-0.0937 -0.0413,-0.19017 0.11714,-0.0565 0.13504,0.14469 0.19155,-0.0896 -0.0413,-0.1943 0.11713,-0.0551 0.14194,0.1502 c 0.12816,-0.0579 0.24667,-0.11437 0.35416,-0.16812 m -17.03531,-1.84106 -0.22876,-0.27836 0.11025,-0.14607 0.21911,-0.16399 0.25769,-0.073 0.38447,-0.0358 v -0.43822 h 0.20257 l 0.34865,0.073 v 0.2012 l -0.2012,0.0372 -0.0193,0.1626 H 15.844 l 0.49609,-0.38171 -0.16536,-0.31006 h -0.69729 v -0.12816 h 1.13551 c -0.003,-0.0207 -0.004,-0.0413 -0.004,-0.0634 0,-0.21359 0.12127,-0.41479 0.29903,-0.41479 0.16261,0 0.27561,0.16674 0.29628,0.35691 l 0.3831,-0.27974 v -0.71106 l 0.2384,-0.073 v -0.20119 l 0.14745,0.0923 0.89848,-0.10887 v -0.18328 h 1.52273 v -0.1819 h -0.36656 l -0.16537,-0.21911 h -0.67937 v -0.12678 l -5.06429,-0.0372 v -0.36519 l 5.06429,-0.10886 v -0.12678 h 0.62425 l 0.091,-0.18328 0.11024,-0.21911 0.16536,-0.1819 0.2384,-0.1819 0.27561,-0.0372 v 0.14608 l 0.20257,0.0909 0.4768,-0.0551 -0.14745,-0.1626 v -0.2012 l 0.0744,-0.12816 0.18328,-0.0537 v -0.47542 h 0.16398 l 0.12954,0.12815 v 0.36519 l 0.53192,-0.0179 v -0.12815 l 0.16536,-0.091 h 0.36657 v -0.12816 h 0.20256 v 0.12816 h 0.64079 v -0.2012 h 0.16537 v 0.2012 h 0.36655 v -0.12816 h 0.47818 v 0.12816 h 0.99082 l 0.42168,0.401 h 0.29352 v -0.29214 h 0.0372 v -2.48736 h 0.073 v 2.48736 h 0.0537 v 0.29214 h 0.36794 v 0.93018 h 0.12816 v 0.93018 l -0.42168,0.1819 v 0.21911 h 0.20119 v -0.14608 h 1.2113 l 0.70142,0.16399 v 0.25769 l 1.98024,0.27837 v -0.11438 h 0.43133 l 0.0896,0.17639 0.47542,0.10611 -0.0124,-0.20395 h 0.21773 l 0.16261,0.26596 h 0.38723 l 0.16261,0.67524 h 0.33211 v 0.46026 h -0.22738 v 0.22463 h 0.35691 l 0.29077,0.32108 -0.35554,-0.0965 h -0.29214 v 0.35416 l -0.43546,0.34313 c 0.34175,0.45751 0.36242,1.20716 -0.0827,1.5999 -0.45062,0.40101 -1.63436,0.81718 -2.22829,1.14929 -0.40239,0.226 -0.94809,0.3514 -1.41662,0.30041 h -8.59069 c 0,0 -2.87872,-0.011 -3.22599,-0.011 -0.62839,0 -1.57923,-0.62287 -2.09599,-1.05557 -0.55122,-0.46165 -0.6532,-0.64217 -0.64217,-1.23886 0.007,-0.33349 0.20119,-0.6339 0.44924,-0.85301 m 0.59807,2.07395 0.10197,-0.1006 c -0.11713,-0.008 -0.22738,-0.0372 -0.32935,-0.0827 l 0.0634,0.0524 c 0.0496,0.0427 0.10611,0.0868 0.16399,0.13091 m 0.74551,0.47956 0.14883,-0.14883 0.0854,0.0496 c -0.0262,-0.0799 -0.0386,-0.16537 -0.0386,-0.25356 0,-0.11575 0.0221,-0.226 0.0634,-0.3266 h -0.37621 c -0.13367,0.0662 -0.28525,0.10336 -0.44511,0.10336 l 0.0565,0.0358 -0.051,0.19843 c 0.0565,0.0386 0.113,0.0772 0.17225,0.11438 l 0.15021,-0.1502 0.11162,0.0661 -0.0537,0.21222 c 0.0593,0.0345 0.11713,0.0675 0.17638,0.0992 m 0.37897,0.18052 c -0.0538,-0.0675 -0.0965,-0.14469 -0.12816,-0.226 l -0.0386,0.15296 c 0.0565,0.0262 0.113,0.051 0.16675,0.073 m 2.88699,0.15159 c -0.20395,-0.15986 -0.33349,-0.4079 -0.33349,-0.68489 0,-0.0345 0.003,-0.0675 0.005,-0.1006 h -0.95227 l -0.0413,-0.0179 c 0.005,0.0386 0.008,0.0785 0.008,0.11851 0,0.27423 -0.12679,0.51952 -0.32798,0.67938 h 0.24805 l 0.0469,-0.18742 h 0.12954 l 0.0579,0.18879 h 0.21221 l 0.0482,-0.18879 h 0.12954 l 0.0579,0.19017 h 0.21084 l 0.0482,-0.19017 h 0.12953 l 0.0593,0.19155 z m 1.192,0.003 0.0372,-0.13918 c -0.0441,0.0524 -0.091,0.0992 -0.14332,0.13918 z m 0.44924,0 0.0482,-0.19568 h 0.12264 c -0.0965,-0.13919 -0.15296,-0.31006 -0.15296,-0.49196 0,-0.16674 0.0469,-0.32246 0.12816,-0.45476 h -0.49196 c 0.0813,0.1323 0.12816,0.28802 0.12816,0.45476 0,0.1819 -0.0565,0.35277 -0.15296,0.49196 h 0.10059 l 0.0606,0.19568 z m 0.35553,0 c -0.0661,-0.051 -0.12402,-0.11025 -0.17225,-0.17777 l 0.0551,0.17777 z m 2.73541,0 c -0.20395,-0.15985 -0.33624,-0.4079 -0.33624,-0.68764 0,-0.0565 0.005,-0.113 0.0152,-0.16537 h -1.01148 c 0.011,0.0524 0.0165,0.10887 0.0165,0.16537 0,0.27974 -0.13229,0.52779 -0.33762,0.68764 h 0.26183 l 0.0496,-0.19568 h 0.12953 l 0.0593,0.19568 h 0.20946 l 0.0482,-0.19568 h 0.12954 l 0.0606,0.19568 h 0.20946 l 0.0482,-0.19568 h 0.12953 l 0.0593,0.19568 z m 1.19476,0 0.0372,-0.14607 c -0.0427,0.0537 -0.0937,0.10335 -0.14883,0.14607 z m 0,0"
       id="U-S-Sherman" />
  </g>
</svg>
