<?xml version="1.0" encoding="UTF-8" standalone="no"?>
<!-- Created with Inkscape (http://www.inkscape.org/) -->

<svg
   width="23.51263mm"
   height="6.1152101mm"
   viewBox="0 0 23.51263 6.1152101"
   version="1.1"
   id="svg13154"
   sodipodi:docname="inkporter-svg-7x08x44x.svg"
   xmlns:inkscape="http://www.inkscape.org/namespaces/inkscape"
   xmlns:sodipodi="http://sodipodi.sourceforge.net/DTD/sodipodi-0.dtd"
   xmlns="http://www.w3.org/2000/svg"
   xmlns:svg="http://www.w3.org/2000/svg">
  <sodipodi:namedview
     id="namedview13156"
     pagecolor="#ffffff"
     bordercolor="#666666"
     borderopacity="1.0"
     inkscape:pageshadow="2"
     inkscape:pageopacity="0.0"
     inkscape:pagecheckerboard="0"
     inkscape:document-units="mm"
     showgrid="false"
     inkscape:zoom="0.90583672"
     inkscape:cx="177.73623"
     inkscape:cy="473.04331"
     inkscape:window-width="1920"
     inkscape:window-height="1017"
     inkscape:window-x="-8"
     inkscape:window-y="-8"
     inkscape:window-maximized="1"
     inkscape:current-layer="layer1" />
  <defs
     id="defs13151" />
  <g
     inkscape:label="Layer 1"
     inkscape:groupmode="layer"
     id="layer1"
     transform="translate(-132.53477,-135.97591)">
    <g
       id="U-S-LH105mm"
       transform="translate(-353.1532,-329.39271)">
      <path
         style="fill:#000000;fill-opacity:1;fill-rule:nonzero;stroke:none;stroke-width:0.352778"
         d="m 487.00194,467.14269 c 0.0152,-0.001 0.0276,0.01 0.0289,0.0248 0,0.0152 -0.011,0.0276 -0.0262,0.0276 -0.0152,0.001 -0.0275,-0.011 -0.0275,-0.0248 -0.001,-0.0152 0.011,-0.0275 0.0248,-0.0275 m 2.0202,0.78273 -0.66421,0.49885 c -0.63804,0.19981 -1.09141,0.80615 -1.06936,1.50757 0.0276,0.84198 0.73449,1.50344 1.57647,1.47588 0.76068,-0.0262 1.37253,-0.6022 1.46486,-1.33256 l 7.45794,1.05971 v -0.003 l 0.39136,0.0565 0.0372,0.0799 0.0799,0.15986 0.13504,0.0496 0.13367,0.006 0.0565,-0.0551 -0.062,-0.091 -0.0427,-0.0799 0.007,-0.0551 0.20257,-0.15985 0.0303,-0.0551 -0.011,-0.0799 -0.13505,-0.0675 -0.12953,-0.0248 -0.19017,0.0551 -1.1796,-0.20119 -6.8337,-1.22921 c -0.0303,-0.0978 -0.0689,-0.19155 -0.11575,-0.27836 l 0.30179,-0.11576 -0.022,-0.31281 0.11162,-0.15572 0.40515,-0.0317 0.36104,0.17639 0.15848,-0.0303 0.36104,-0.77032 -1.2485,-0.57602 0.0179,-0.001 -0.004,-0.12954 -0.44373,0.0152 -0.99494,-0.47266 -0.47956,-0.15572 -2.02847,-0.89297 -0.0248,-0.0124 -0.001,-0.0593 -0.34451,-0.17225 -0.0606,0.0276 -0.24529,-0.12402 -0.0221,0.0482 -0.0537,-0.0275 -0.21773,0.42857 0.0593,0.04 -0.0262,0.0537 0.29628,0.1571 -0.01,0.0468 -0.0606,-0.0262 -0.0248,0.0537 0.30316,0.13505 -0.0193,0.0358 -0.0441,-0.01 -0.0427,0.0978 0.0579,0.0344 -0.0661,0.15572 0.0854,0.051 0.0896,0.008 0.0634,0.0303 -0.0427,0.11025 0.0841,-0.0344 0.0221,-0.0455 0.4768,0.22186 -0.0427,0.10611 0.0937,-0.0827 0.17363,0.0799 -0.0248,0.10611 -0.0965,-0.0427 c 0,0 -0.0193,0.0138 -0.0469,0.0303 -0.0138,0.008 -0.0331,-0.004 -0.0427,-0.0152 l -0.0179,0.0152 c 0,0 0.003,0.003 0.005,0.005 0.0262,0.0234 0.0455,0.0234 0.0661,0.0152 -0.003,0.005 -0.004,0.0124 -0.003,0.0193 0,0.0276 0.0234,0.0496 0.051,0.0496 0.0138,-10e-4 0.0262,-0.007 0.0344,-0.0165 l 0.0331,0.004 -0.003,0.0124 -0.0193,0.0344 0.0275,0.0207 0.0372,-0.0386 0.0276,-0.0441 0.0193,0.008 0.22186,0.1447 0.0138,-0.0193 -0.22462,-0.14607 -0.0179,-0.008 0.0537,-0.0896 0.24529,0.113 -0.051,0.11025 0.0317,0.0179 -0.0262,0.0358 c 0,0 -0.0124,0.022 -0.0179,0.0358 -0.006,0.0124 -0.0358,0.15572 -0.0207,0.16812 0.0152,0.0124 0.0882,0.0289 0.0882,0.0289 0,0 0.0965,-0.10335 0.0965,-0.12127 -10e-4,-0.0165 0.0372,-0.0868 0.0372,-0.0868 l 0.0289,-0.006 0.0413,-0.0854 z m 0,0"
         id="path46667" />
      <path
         style="fill:#000000;fill-opacity:1;fill-rule:nonzero;stroke:none;stroke-width:0.352778"
         d="m 499.0074,467.94333 -0.0551,-0.1006 -0.062,-0.0138 -0.003,-0.19982 0.11299,-0.011 0.13919,-0.14056 0.0207,-0.11851 0.12816,-0.14745 0.20808,-0.0772 0.25494,0.0289 0.12265,0.12679 0.0606,0.15709 -0.003,0.10611 -0.008,0.0744 0.0303,0.0882 0.24666,0.18603 0.113,-0.0234 0.0648,-0.10473 0.17501,-0.0413 0.22876,0.10474 0.23977,0.24115 0.19982,0.38448 0.0661,0.18879 -0.0579,0.0799 -0.0896,0.073 -0.0496,0.0248 0.0165,0.0937 0.17364,0.0661 0.20119,0.32798 0.0372,0.36242 -0.0579,0.0744 -0.0152,0.19293 -0.0524,0.10611 -0.21221,0.0207 h -0.051 l -0.0386,0.46027 0.0606,0.0772 0.23702,-0.003 0.0689,0.0579 0.16812,-0.0413 0.14608,-0.10335 0.16812,0.01 0.073,0.17639 -0.0262,0.0427 0.0165,0.10611 0.10335,0.17777 0.0289,0.17501 -0.022,0.14883 -0.18052,-0.003 -0.11713,-0.13366 0.003,-0.17502 -0.011,-0.0427 -0.23151,0.0138 -0.10611,-0.0207 -0.0703,0.0923 -0.14469,0.0606 -0.37758,0.18052 -0.19431,0.0152 -0.10335,-0.1447 -0.12816,-0.5705 -0.14331,-0.38448 -0.40515,-0.0441 -0.34726,-0.13092 0.04,0.18742 -0.04,0.1254 0.0868,0.43132 0.0179,0.42582 0.006,0.0496 -0.25081,-0.01 -0.004,-0.0441 -0.0937,0.004 -0.0827,0.0606 -0.38172,-0.0193 -0.0413,-0.10059 0.0441,-0.0482 0.226,-0.022 0.17776,-0.18328 0.0386,-0.0303 -0.0345,-0.25081 -0.0772,-0.17087 -0.14882,-0.0579 -0.12265,-0.16537 -0.0386,-0.28112 -0.0248,-0.36931 0.16537,-0.16537 0.79375,-0.0179 0.0152,-0.18741 -0.26045,-0.45475 -0.18052,-0.0331 -0.17088,0.12816 -0.226,0.0772 -0.2191,-0.004 -0.13505,-0.0965 0.003,-0.19982 0.1571,-0.38447 z m 0,0"
         id="path46669" />
      <path
         style="fill:#000000;fill-opacity:1;fill-rule:nonzero;stroke:none;stroke-width:0.352778"
         d="m 499.0074,467.94333 -0.0551,-0.1006 -0.062,-0.0138 -0.003,-0.19982 0.11299,-0.011 0.13919,-0.14056 0.0207,-0.11851 0.12816,-0.14745 0.20808,-0.0772 0.25494,0.0289 0.12265,0.12679 0.0606,0.15709 -0.003,0.10611 -0.008,0.0744 0.0303,0.0882 0.24666,0.18603 0.113,-0.0234 0.0648,-0.10473 0.17501,-0.0413 0.22876,0.10474 0.23977,0.24115 0.19982,0.38448 0.0661,0.18879 -0.0579,0.0799 -0.0896,0.073 -0.0496,0.0248 0.0165,0.0937 0.17364,0.0661 0.20119,0.32798 0.0372,0.36242 -0.0579,0.0744 -0.0152,0.19293 -0.0524,0.10611 -0.21221,0.0207 h -0.051 l -0.0386,0.46027 0.0606,0.0772 0.23702,-0.003 0.0689,0.0579 0.16812,-0.0413 0.14608,-0.10335 0.16812,0.01 0.073,0.17639 -0.0262,0.0427 0.0165,0.10611 0.10335,0.17777 0.0289,0.17501 -0.022,0.14883 -0.18052,-0.003 -0.11713,-0.13366 0.003,-0.17502 -0.011,-0.0427 -0.23151,0.0138 -0.10611,-0.0207 -0.0703,0.0923 -0.14469,0.0606 -0.37758,0.18052 -0.19431,0.0152 -0.10335,-0.1447 -0.12816,-0.5705 -0.14331,-0.38448 -0.40515,-0.0441 -0.34726,-0.13092 0.04,0.18742 -0.04,0.1254 0.0868,0.43132 0.0179,0.42582 0.006,0.0496 -0.25081,-0.01 -0.004,-0.0441 -0.0937,0.004 -0.0827,0.0606 -0.38172,-0.0193 -0.0413,-0.10059 0.0441,-0.0482 0.226,-0.022 0.17776,-0.18328 0.0386,-0.0303 -0.0345,-0.25081 -0.0772,-0.17087 -0.14882,-0.0579 -0.12265,-0.16537 -0.0386,-0.28112 -0.0248,-0.36931 0.16537,-0.16537 0.79375,-0.0179 0.0152,-0.18741 -0.26045,-0.45475 -0.18052,-0.0331 -0.17088,0.12816 -0.226,0.0772 -0.2191,-0.004 -0.13505,-0.0965 0.003,-0.19982 0.1571,-0.38447 z m 0,0"
         id="path46671" />
      <path
         style="fill:#000000;fill-opacity:1;fill-rule:nonzero;stroke:none;stroke-width:0.352778"
         d="m 499.23065,468.02877 -0.091,0.17363 -0.0841,0.16675 -10e-4,0.10059 0.14469,-0.0606 0.16537,-0.17226 0.0524,-0.14882 -0.0482,-0.10611 -0.11851,0.003 z m 0,0"
         id="path46673" />
      <path
         style="fill:#000000;fill-opacity:1;fill-rule:nonzero;stroke:none;stroke-width:0.352778"
         d="m 499.23065,468.02877 -0.091,0.17363 -0.0841,0.16675 -10e-4,0.10059 0.14469,-0.0606 0.16537,-0.17226 0.0524,-0.14882 -0.0482,-0.10611 -0.11851,0.003 z m 0,0"
         id="path46675" />
      <path
         style="fill:#000000;fill-opacity:1;fill-rule:nonzero;stroke:none;stroke-width:0.352778"
         d="m 502.83421,468.05495 0.0289,-0.113 0.0331,-0.0372 0.0372,-0.0372 h 0.113 l 0.0758,-0.0744 0.062,-0.0124 -0.0386,-0.0262 -0.0234,-0.0234 0.0234,-0.0634 0.0386,0.0372 v 0.0262 h 0.27561 l 0.23702,0.16399 0.11162,-0.0234 0.0648,-0.10473 0.17638,-0.0413 0.22738,0.10335 0.23978,0.24254 0.19982,0.38447 0.0661,0.18879 -0.0579,0.0799 -0.0896,0.073 -0.0496,0.0248 0.0165,0.0937 0.17501,0.0648 0.19982,0.32935 0.0372,0.36242 -0.0579,0.0744 -0.0152,0.19292 -0.0524,0.10473 -0.21222,0.022 -0.0496,-0.001 -0.04,0.46165 0.062,0.0758 0.23703,-0.001 0.0675,0.0565 0.1695,-0.04 0.14469,-0.10335 0.1695,0.008 0.0703,0.17639 -0.0248,0.0441 0.0165,0.10611 0.10335,0.17638 0.0289,0.17501 -0.0221,0.15021 -0.18052,-0.003 -0.11714,-0.13367 0.004,-0.17501 -0.0124,-0.0441 -0.23151,0.0152 -0.10611,-0.0207 -0.0703,0.0923 -0.14469,0.0606 -0.37758,0.18052 -0.19431,0.0152 -0.10335,-0.14607 -0.12678,-0.57051 -0.14469,-0.38309 -0.40377,-0.0455 -0.34864,-0.13092 0.04,0.18879 -0.04,0.12402 0.0868,0.43271 0.0179,0.42444 0.006,0.051 -0.2508,-0.011 -0.004,-0.0441 -0.0937,0.004 -0.0827,0.062 -0.38034,-0.0193 -0.0427,-0.10059 0.0441,-0.0496 0.226,-0.0207 0.17777,-0.18466 0.0372,-0.0303 -0.0317,-0.2508 -0.0786,-0.1695 -0.14883,-0.0593 -0.12264,-0.16398 -0.0386,-0.2825 -0.0248,-0.36794 0.16537,-0.16674 0.79375,-0.0165 -0.17226,-0.2825 0.0868,-0.1006 -0.20946,-0.30592 -0.0275,-0.0524 -0.0344,-0.0565 -0.0565,-0.0717 -0.0689,-0.12541 -0.01,-0.0992 -0.003,-0.12264 z m 0,0"
         id="path46677" />
      <path
         style="fill:#000000;fill-opacity:1;fill-rule:nonzero;stroke:none;stroke-width:0.352778"
         d="m 502.83421,468.05495 0.0289,-0.113 0.0331,-0.0372 0.0372,-0.0372 h 0.113 l 0.0758,-0.0744 0.062,-0.0124 -0.0386,-0.0262 -0.0234,-0.0234 0.0234,-0.0634 0.0386,0.0372 v 0.0262 h 0.27561 l 0.23702,0.16399 0.11162,-0.0234 0.0648,-0.10473 0.17638,-0.0413 0.22738,0.10335 0.23978,0.24254 0.19982,0.38447 0.0661,0.18879 -0.0579,0.0799 -0.0896,0.073 -0.0496,0.0248 0.0165,0.0937 0.17501,0.0648 0.19982,0.32935 0.0372,0.36242 -0.0579,0.0744 -0.0152,0.19292 -0.0524,0.10473 -0.21222,0.022 -0.0496,-0.001 -0.04,0.46165 0.062,0.0758 0.23703,-0.001 0.0675,0.0565 0.1695,-0.04 0.14469,-0.10335 0.1695,0.008 0.0703,0.17639 -0.0248,0.0441 0.0165,0.10611 0.10335,0.17638 0.0289,0.17501 -0.0221,0.15021 -0.18052,-0.003 -0.11714,-0.13367 0.004,-0.17501 -0.0124,-0.0441 -0.23151,0.0152 -0.10611,-0.0207 -0.0703,0.0923 -0.14469,0.0606 -0.37758,0.18052 -0.19431,0.0152 -0.10335,-0.14607 -0.12678,-0.57051 -0.14469,-0.38309 -0.40377,-0.0455 -0.34864,-0.13092 0.04,0.18879 -0.04,0.12402 0.0868,0.43271 0.0179,0.42444 0.006,0.051 -0.2508,-0.011 -0.004,-0.0441 -0.0937,0.004 -0.0827,0.062 -0.38034,-0.0193 -0.0427,-0.10059 0.0441,-0.0496 0.226,-0.0207 0.17777,-0.18466 0.0372,-0.0303 -0.0317,-0.2508 -0.0786,-0.1695 -0.14883,-0.0593 -0.12264,-0.16398 -0.0386,-0.2825 -0.0248,-0.36794 0.16537,-0.16674 0.79375,-0.0165 -0.17226,-0.2825 0.0868,-0.1006 -0.20946,-0.30592 -0.0275,-0.0524 -0.0344,-0.0565 -0.0565,-0.0717 -0.0689,-0.12541 -0.01,-0.0992 -0.003,-0.12264 z m 0,0"
         id="path46679" />
      <path
         style="fill:#000000;fill-opacity:1;fill-rule:nonzero;stroke:none;stroke-width:0.352778"
         d="m 502.36155,467.46515 c 0.004,0 0.0331,-10e-4 0.0331,-10e-4 l 0.0289,-0.0152 0.0372,-0.0234 0.0234,-0.0345 0.006,-0.0303 0.0152,-0.0717 0.0234,-0.0675 0.04,-0.0703 c 0,0 0.005,-0.0248 0.051,-0.0593 0.0455,-0.0345 0.0331,-0.0234 0.0524,-0.0386 0.0207,-0.0165 0.0868,-0.0358 0.0868,-0.0358 l 0.0648,-0.0124 0.0717,-0.01 0.0703,0.005 0.0524,0.007 0.0634,0.0152 c 0,0 0.0441,0.0193 0.0537,0.0221 0.01,0.003 0.0482,0.0345 0.0482,0.0345 l 0.0317,0.0317 c 0,0 0.0276,0.0317 0.0441,0.0524 0.0152,0.0207 0.0331,0.062 0.0331,0.062 0,0 0.008,0.0303 0.0124,0.0441 0.005,0.0138 0.005,0.0124 0.007,0.0345 10e-4,0.0221 0.003,0.0537 0.003,0.0537 v 0.0427 l -0.01,0.0565 c 0,0 -0.01,0.0469 -0.0138,0.0537 -0.003,0.006 -0.007,0.008 -0.004,0.0303 0.003,0.0221 0.0179,0.0372 0.0179,0.0372 l -0.0496,0.0138 -0.0179,0.0482 0.0882,0.0841 -0.41617,0.26045 -0.0565,-0.091 h -0.0689 l -0.0441,0.0193 -0.0524,-0.003 -0.0289,-0.004 -0.0303,-0.0275 -0.0289,-0.11851 -0.0152,-0.0469 -0.0496,-0.0289 -0.0221,-0.003 0.0717,-0.17087 -0.19982,-0.0413 c -0.0138,0 -0.0262,-0.004 -0.022,-0.004"
         id="path46681" />
      <path
         style="fill:#000000;fill-opacity:1;fill-rule:nonzero;stroke:none;stroke-width:0.352778"
         d="m 502.36155,467.46515 c 0.004,0 0.0331,-10e-4 0.0331,-10e-4 l 0.0289,-0.0152 0.0372,-0.0234 0.0234,-0.0345 0.006,-0.0303 0.0152,-0.0717 0.0234,-0.0675 0.04,-0.0703 c 0,0 0.005,-0.0248 0.051,-0.0593 0.0455,-0.0345 0.0331,-0.0234 0.0524,-0.0386 0.0207,-0.0165 0.0868,-0.0358 0.0868,-0.0358 l 0.0648,-0.0124 0.0717,-0.01 0.0703,0.005 0.0524,0.007 0.0634,0.0152 c 0,0 0.0441,0.0193 0.0537,0.0221 0.01,0.003 0.0482,0.0345 0.0482,0.0345 l 0.0317,0.0317 c 0,0 0.0276,0.0317 0.0441,0.0524 0.0152,0.0207 0.0331,0.062 0.0331,0.062 0,0 0.008,0.0303 0.0124,0.0441 0.005,0.0138 0.005,0.0124 0.007,0.0345 10e-4,0.0221 0.003,0.0537 0.003,0.0537 v 0.0427 l -0.01,0.0565 c 0,0 -0.01,0.0469 -0.0138,0.0537 -0.003,0.006 -0.007,0.008 -0.004,0.0303 0.003,0.0221 0.0179,0.0372 0.0179,0.0372 l -0.0496,0.0138 -0.0179,0.0482 0.0882,0.0841 -0.41617,0.26045 -0.0565,-0.091 h -0.0689 l -0.0441,0.0193 -0.0524,-0.003 -0.0289,-0.004 -0.0303,-0.0275 -0.0289,-0.11851 -0.0152,-0.0469 -0.0496,-0.0289 -0.0221,-0.003 0.0717,-0.17087 -0.19982,-0.0413 c -0.0138,0 -0.0262,-0.004 -0.022,-0.004"
         id="path46683" />
      <path
         style="fill:#000000;fill-opacity:1;fill-rule:nonzero;stroke:none;stroke-width:0.352778"
         d="m 501.68218,468.6227 0.13229,-0.0331 0.0992,-0.0165 0.0937,-0.008 0.0675,-0.022 0.17363,0.0124 0.0606,0.0248 0.10473,0.0289 0.10749,0.0289 0.60772,0.0331 0.0606,0.0882 -0.53881,-0.0345 0.0234,0.0262 0.17501,0.0689 0.14332,0.0179 0.2067,0.0262 -0.022,0.11162 0.17088,0.30592 -0.28663,-0.0744 -0.17501,-0.0496 -0.18053,-0.0882 -0.14469,-0.0675 -0.0827,-0.04 -0.0276,-0.11024 -0.0841,-0.04 h -0.0675 l -0.073,0.004 -0.0868,0.011 -0.0551,-0.0317 -0.0675,-0.0496 -0.0648,-0.0565 -0.0703,-0.011 -0.0786,-0.0152 -0.0441,-0.0138 z m 0,0"
         id="path46685" />
      <path
         style="fill:#000000;fill-opacity:1;fill-rule:nonzero;stroke:none;stroke-width:0.352778"
         d="m 501.68218,468.6227 0.13229,-0.0331 0.0992,-0.0165 0.0937,-0.008 0.0675,-0.022 0.17363,0.0124 0.0606,0.0248 0.10473,0.0289 0.10749,0.0289 0.60772,0.0331 0.0606,0.0882 -0.53881,-0.0345 0.0234,0.0262 0.17501,0.0689 0.14332,0.0179 0.2067,0.0262 -0.022,0.11162 0.17088,0.30592 -0.28663,-0.0744 -0.17501,-0.0496 -0.18053,-0.0882 -0.14469,-0.0675 -0.0827,-0.04 -0.0276,-0.11024 -0.0841,-0.04 h -0.0675 l -0.073,0.004 -0.0868,0.011 -0.0551,-0.0317 -0.0675,-0.0496 -0.0648,-0.0565 -0.0703,-0.011 -0.0786,-0.0152 -0.0441,-0.0138 z m 0,0"
         id="path46687" />
      <path
         style="fill:#000000;fill-opacity:1;fill-rule:nonzero;stroke:none;stroke-width:0.352778"
         d="m 496.12593,468.07838 0.0276,-0.113 0.0345,-0.0372 0.0372,-0.0372 h 0.113 l 0.0744,-0.0758 0.0634,-0.0124 -0.0386,-0.0248 -0.011,-0.0124 -0.0138,-0.0124 0.0248,-0.0634 0.0386,0.0386 v 0.0248 h 0.27423 l 0.23703,0.16399 0.113,-0.0234 c 0,0 0.0262,-0.0758 0.0648,-0.10473 0.0358,-0.0289 0.14056,-0.0469 0.17501,-0.0413 0.0345,0.007 0.20671,0.091 0.22876,0.10473 0.0234,0.0124 0.20257,0.19844 0.23978,0.24116 0.0386,0.0441 0.19981,0.38447 0.19981,0.38447 0,0 0.0717,0.11024 0.0661,0.18879 -0.007,0.0799 -0.0276,0.0827 -0.0524,0.0978 -0.0262,0.0152 -0.0951,0.0565 -0.0951,0.0565 l -0.0496,0.0234 0.0165,0.0937 c 0,0 0.13919,0.0331 0.17363,0.0661 0.0358,0.0317 0.19155,0.27698 0.2012,0.32797 0.008,0.051 0.0372,0.3638 0.0372,0.3638 l -0.0579,0.073 -0.0152,0.1943 c 0,0 -0.0152,0.0593 -0.0524,0.10473 -0.0372,0.0455 -0.21223,0.0207 -0.21223,0.0207 l -0.051,-10e-4 -0.0386,0.46302 0.0606,0.0758 0.23702,-0.003 0.0689,0.0579 0.16812,-0.0414 c 0,0 0.0841,-0.0854 0.14607,-0.10335 0.062,-0.0165 0.16813,0.01 0.16813,0.01 l 0.073,0.17639 -0.0262,0.0427 0.0165,0.10749 c 0,0 0.0951,0.14883 0.10335,0.17639 0.008,0.0262 0.0303,0.14194 0.0276,0.17501 -10e-4,0.0331 -0.0358,0.0951 -0.0358,0.0951 0,0 -0.10749,0.0799 -0.16537,0.051 -0.0592,-0.0289 -0.0841,-0.073 -0.0951,-0.13229 -0.011,-0.0579 -0.0193,-0.17501 -0.0193,-0.17501 l -0.0593,-0.0896 -0.18466,0.0207 -0.10472,0.0179 -0.0703,0.0923 -0.1447,0.0606 -0.37896,0.18052 -0.19292,0.0152 -0.10336,-0.14469 -0.12816,-0.57189 -0.14331,-0.38309 -0.40515,-0.0441 -0.34726,-0.13091 0.04,0.18879 -0.04,0.12402 0.0868,0.43271 0.0179,0.42443 0.004,0.0496 -0.24942,-0.01 -0.005,-0.0441 -0.0937,0.004 -0.0813,0.0606 -0.38172,-0.0179 -0.0413,-0.10198 0.0441,-0.0482 0.22599,-0.022 0.17777,-0.18328 0.0372,-0.0303 -0.0317,-0.25081 -0.0785,-0.17087 -0.14883,-0.0579 -0.12264,-0.16536 -0.0386,-0.28112 c 0,0 -0.0152,-0.26183 -0.0248,-0.36932 -0.011,-0.10611 0.113,-0.15571 0.16536,-0.16536 0.0524,-0.01 0.79375,-0.0179 0.79375,-0.0179 l -0.17225,-0.2825 0.0868,-0.0992 -0.20946,-0.30593 -0.0289,-0.0537 -0.0331,-0.0565 -0.0565,-0.0717 -0.0689,-0.1254 -0.01,-0.0992 -0.003,-0.12126 z m 0,0"
         id="path46689" />
      <path
         style="fill:#000000;fill-opacity:1;fill-rule:nonzero;stroke:none;stroke-width:0.352778"
         d="m 496.12593,468.07838 0.0276,-0.113 0.0345,-0.0372 0.0372,-0.0372 h 0.113 l 0.0744,-0.0758 0.0634,-0.0124 -0.0386,-0.0248 -0.011,-0.0124 -0.0138,-0.0124 0.0248,-0.0634 0.0386,0.0386 v 0.0248 h 0.27423 l 0.23703,0.16399 0.113,-0.0234 c 0,0 0.0262,-0.0758 0.0648,-0.10473 0.0358,-0.0289 0.14056,-0.0469 0.17501,-0.0413 0.0345,0.007 0.20671,0.091 0.22876,0.10473 0.0234,0.0124 0.20257,0.19844 0.23978,0.24116 0.0386,0.0441 0.19981,0.38447 0.19981,0.38447 0,0 0.0717,0.11024 0.0661,0.18879 -0.007,0.0799 -0.0276,0.0827 -0.0524,0.0978 -0.0262,0.0152 -0.0951,0.0565 -0.0951,0.0565 l -0.0496,0.0234 0.0165,0.0937 c 0,0 0.13919,0.0331 0.17363,0.0661 0.0358,0.0317 0.19155,0.27698 0.2012,0.32797 0.008,0.051 0.0372,0.3638 0.0372,0.3638 l -0.0579,0.073 -0.0152,0.1943 c 0,0 -0.0152,0.0593 -0.0524,0.10473 -0.0372,0.0455 -0.21223,0.0207 -0.21223,0.0207 l -0.051,-10e-4 -0.0386,0.46302 0.0606,0.0758 0.23702,-0.003 0.0689,0.0579 0.16812,-0.0414 c 0,0 0.0841,-0.0854 0.14607,-0.10335 0.062,-0.0165 0.16813,0.01 0.16813,0.01 l 0.073,0.17639 -0.0262,0.0427 0.0165,0.10749 c 0,0 0.0951,0.14883 0.10335,0.17639 0.008,0.0262 0.0303,0.14194 0.0276,0.17501 -10e-4,0.0331 -0.0358,0.0951 -0.0358,0.0951 0,0 -0.10749,0.0799 -0.16537,0.051 -0.0592,-0.0289 -0.0841,-0.073 -0.0951,-0.13229 -0.011,-0.0579 -0.0193,-0.17501 -0.0193,-0.17501 l -0.0593,-0.0896 -0.18466,0.0207 -0.10472,0.0179 -0.0703,0.0923 -0.1447,0.0606 -0.37896,0.18052 -0.19292,0.0152 -0.10336,-0.14469 -0.12816,-0.57189 -0.14331,-0.38309 -0.40515,-0.0441 -0.34726,-0.13091 0.04,0.18879 -0.04,0.12402 0.0868,0.43271 0.0179,0.42443 0.004,0.0496 -0.24942,-0.01 -0.005,-0.0441 -0.0937,0.004 -0.0813,0.0606 -0.38172,-0.0179 -0.0413,-0.10198 0.0441,-0.0482 0.22599,-0.022 0.17777,-0.18328 0.0372,-0.0303 -0.0317,-0.25081 -0.0785,-0.17087 -0.14883,-0.0579 -0.12264,-0.16536 -0.0386,-0.28112 c 0,0 -0.0152,-0.26183 -0.0248,-0.36932 -0.011,-0.10611 0.113,-0.15571 0.16536,-0.16536 0.0524,-0.01 0.79375,-0.0179 0.79375,-0.0179 l -0.17225,-0.2825 0.0868,-0.0992 -0.20946,-0.30593 -0.0289,-0.0537 -0.0331,-0.0565 -0.0565,-0.0717 -0.0689,-0.1254 -0.01,-0.0992 -0.003,-0.12126 z m 0,0"
         id="path46691" />
      <path
         style="fill:#000000;fill-opacity:1;fill-rule:nonzero;stroke:none;stroke-width:0.352778"
         d="m 495.65326,467.4872 c 0.004,0 0.0331,-10e-4 0.0331,-10e-4 l 0.0289,-0.0138 0.0372,-0.0234 0.022,-0.0345 0.007,-0.0317 0.0152,-0.0717 0.0234,-0.0675 0.0386,-0.0703 c 0,0 0.007,-0.0234 0.0524,-0.0592 0.0455,-0.0331 0.0331,-0.0221 0.0524,-0.0386 0.0207,-0.0152 0.0868,-0.0358 0.0868,-0.0358 l 0.0648,-0.0124 0.0717,-0.01 0.0689,0.007 0.0537,0.006 0.062,0.0152 c 0,0 0.0455,0.0193 0.0551,0.022 0.008,0.004 0.0482,0.0345 0.0482,0.0345 l 0.0317,0.0317 c 0,0 0.0276,0.0331 0.0427,0.0537 0.0165,0.0193 0.0344,0.062 0.0344,0.062 0,0 0.008,0.0289 0.0124,0.0427 0.005,0.0152 0.005,0.0138 0.007,0.0358 10e-4,0.0207 0.003,0.0524 0.003,0.0524 v 0.0441 l -0.01,0.0565 c 0,0 -0.011,0.0469 -0.0138,0.0524 -0.003,0.007 -0.008,0.01 -0.004,0.0317 0.003,0.022 0.0179,0.0372 0.0179,0.0372 l -0.0496,0.0124 -0.0193,0.0482 0.0896,0.0841 -0.41617,0.26183 -0.0565,-0.091 h -0.0689 l -0.0441,0.0179 -0.0538,-0.003 -0.0275,-0.003 -0.0317,-0.0276 -0.0276,-0.11989 -0.0152,-0.0469 -0.051,-0.0275 -0.022,-0.003 0.073,-0.17226 -0.19981,-0.04 c -0.0152,0 -0.0276,-0.005 -0.0221,-0.005"
         id="path46693" />
      <path
         style="fill:#000000;fill-opacity:1;fill-rule:nonzero;stroke:none;stroke-width:0.352778"
         d="m 495.65326,467.4872 c 0.004,0 0.0331,-10e-4 0.0331,-10e-4 l 0.0289,-0.0138 0.0372,-0.0234 0.022,-0.0345 0.007,-0.0317 0.0152,-0.0717 0.0234,-0.0675 0.0386,-0.0703 c 0,0 0.007,-0.0234 0.0524,-0.0592 0.0455,-0.0331 0.0331,-0.0221 0.0524,-0.0386 0.0207,-0.0152 0.0868,-0.0358 0.0868,-0.0358 l 0.0648,-0.0124 0.0717,-0.01 0.0689,0.007 0.0537,0.006 0.062,0.0152 c 0,0 0.0455,0.0193 0.0551,0.022 0.008,0.004 0.0482,0.0345 0.0482,0.0345 l 0.0317,0.0317 c 0,0 0.0276,0.0331 0.0427,0.0537 0.0165,0.0193 0.0344,0.062 0.0344,0.062 0,0 0.008,0.0289 0.0124,0.0427 0.005,0.0152 0.005,0.0138 0.007,0.0358 10e-4,0.0207 0.003,0.0524 0.003,0.0524 v 0.0441 l -0.01,0.0565 c 0,0 -0.011,0.0469 -0.0138,0.0524 -0.003,0.007 -0.008,0.01 -0.004,0.0317 0.003,0.022 0.0179,0.0372 0.0179,0.0372 l -0.0496,0.0124 -0.0193,0.0482 0.0896,0.0841 -0.41617,0.26183 -0.0565,-0.091 h -0.0689 l -0.0441,0.0179 -0.0538,-0.003 -0.0275,-0.003 -0.0317,-0.0276 -0.0276,-0.11989 -0.0152,-0.0469 -0.051,-0.0275 -0.022,-0.003 0.073,-0.17226 -0.19981,-0.04 c -0.0152,0 -0.0276,-0.005 -0.0221,-0.005"
         id="path46695" />
      <path
         style="fill:#000000;fill-opacity:1;fill-rule:nonzero;stroke:none;stroke-width:0.352778"
         d="m 493.02121,468.10318 0.0276,-0.11162 0.0345,-0.0372 0.0386,-0.0372 h 0.11162 l 0.0744,-0.0758 0.0634,-0.0124 -0.0372,-0.0248 -0.0138,-0.0124 -0.0124,-0.0124 0.0262,-0.062 0.0372,0.0372 v 0.0248 h 0.27423 l 0.23703,0.16399 0.11299,-0.0234 0.0648,-0.10473 0.17501,-0.0413 0.23014,0.10474 0.2384,0.24115 0.19981,0.38447 0.0661,0.18879 -0.0579,0.0799 -0.0896,0.073 -0.0496,0.0248 0.0165,0.0937 0.17364,0.0661 0.20119,0.32797 0.0372,0.36242 -0.0579,0.0744 -0.0165,0.1943 -0.051,0.10473 -0.21222,0.0207 h -0.051 l -0.0386,0.46026 0.0606,0.0772 0.2384,-0.003 0.0675,0.0579 0.16949,-0.0413 0.1447,-0.10335 0.16812,0.01 0.073,0.17638 -0.0262,0.0427 0.0165,0.1061 0.10336,0.17639 0.0275,0.17639 -0.0207,0.14883 -0.1819,-0.003 -0.11576,-0.13367 0.003,-0.17501 -0.011,-0.0441 -0.23151,0.0152 -0.10612,-0.0207 -0.0703,0.0923 -0.1447,0.0606 -0.37758,0.18052 -0.1943,0.0152 -0.10336,-0.1447 -0.12815,-0.5705 -0.14332,-0.38448 -0.40514,-0.0441 -0.34727,-0.13092 0.04,0.18742 -0.0386,0.12402 0.0854,0.4327 0.0179,0.42582 0.005,0.0496 -0.2508,-0.011 -0.006,-0.0427 -0.0937,0.004 -0.0813,0.0606 -0.38172,-0.0193 -0.0413,-0.1006 0.0441,-0.0482 0.22599,-0.022 0.17777,-0.18328 0.0386,-0.0317 -0.0331,-0.24943 -0.0785,-0.17087 -0.14883,-0.0593 -0.12265,-0.16399 -0.0386,-0.28111 -0.0248,-0.36932 0.16536,-0.16536 0.79375,-0.0179 -0.17363,-0.2825 0.0882,-0.0992 -0.20946,-0.30593 -0.0275,-0.0537 -0.0345,-0.0565 -0.0565,-0.0717 -0.0689,-0.1254 -0.008,-0.0992 -0.004,-0.12264 z m 0,0"
         id="path46697" />
      <path
         style="fill:#000000;fill-opacity:1;fill-rule:nonzero;stroke:none;stroke-width:0.352778"
         d="m 493.02121,468.10318 0.0276,-0.11162 0.0345,-0.0372 0.0386,-0.0372 h 0.11162 l 0.0744,-0.0758 0.0634,-0.0124 -0.0372,-0.0248 -0.0138,-0.0124 -0.0124,-0.0124 0.0262,-0.062 0.0372,0.0372 v 0.0248 h 0.27423 l 0.23703,0.16399 0.11299,-0.0234 0.0648,-0.10473 0.17501,-0.0413 0.23014,0.10474 0.2384,0.24115 0.19981,0.38447 0.0661,0.18879 -0.0579,0.0799 -0.0896,0.073 -0.0496,0.0248 0.0165,0.0937 0.17364,0.0661 0.20119,0.32797 0.0372,0.36242 -0.0579,0.0744 -0.0165,0.1943 -0.051,0.10473 -0.21222,0.0207 h -0.051 l -0.0386,0.46026 0.0606,0.0772 0.2384,-0.003 0.0675,0.0579 0.16949,-0.0413 0.1447,-0.10335 0.16812,0.01 0.073,0.17638 -0.0262,0.0427 0.0165,0.1061 0.10336,0.17639 0.0275,0.17639 -0.0207,0.14883 -0.1819,-0.003 -0.11576,-0.13367 0.003,-0.17501 -0.011,-0.0441 -0.23151,0.0152 -0.10612,-0.0207 -0.0703,0.0923 -0.1447,0.0606 -0.37758,0.18052 -0.1943,0.0152 -0.10336,-0.1447 -0.12815,-0.5705 -0.14332,-0.38448 -0.40514,-0.0441 -0.34727,-0.13092 0.04,0.18742 -0.0386,0.12402 0.0854,0.4327 0.0179,0.42582 0.005,0.0496 -0.2508,-0.011 -0.006,-0.0427 -0.0937,0.004 -0.0813,0.0606 -0.38172,-0.0193 -0.0413,-0.1006 0.0441,-0.0482 0.22599,-0.022 0.17777,-0.18328 0.0386,-0.0317 -0.0331,-0.24943 -0.0785,-0.17087 -0.14883,-0.0593 -0.12265,-0.16399 -0.0386,-0.28111 -0.0248,-0.36932 0.16536,-0.16536 0.79375,-0.0179 -0.17363,-0.2825 0.0882,-0.0992 -0.20946,-0.30593 -0.0275,-0.0537 -0.0345,-0.0565 -0.0565,-0.0717 -0.0689,-0.1254 -0.008,-0.0992 -0.004,-0.12264 z m 0,0"
         id="path46699" />
      <path
         style="fill:#000000;fill-opacity:1;fill-rule:nonzero;stroke:none;stroke-width:0.352778"
         d="m 492.54854,467.51338 c 0.004,0 0.0331,-10e-4 0.0331,-10e-4 l 0.0289,-0.0138 0.0372,-0.0234 0.022,-0.0344 0.007,-0.0317 0.0152,-0.0717 0.0234,-0.0675 0.04,-0.0703 c 0,0 0.006,-0.0248 0.051,-0.0592 0.0455,-0.0331 0.0331,-0.0234 0.0537,-0.0386 0.0193,-0.0152 0.0854,-0.0358 0.0854,-0.0358 l 0.0648,-0.0124 0.0717,-0.01 0.0689,0.007 0.0537,0.005 0.062,0.0152 c 0,0 0.0455,0.0193 0.0551,0.022 0.01,0.004 0.0482,0.0345 0.0482,0.0345 l 0.0317,0.0317 c 0,0 0.0276,0.0331 0.0441,0.0524 0.0152,0.0207 0.0331,0.0634 0.0331,0.0634 0,0 0.008,0.0289 0.0138,0.0427 0.004,0.0152 0.004,0.0138 0.006,0.0345 0.001,0.022 0.003,0.0537 0.003,0.0537 v 0.0441 l -0.008,0.0565 c 0,0 -0.0124,0.0469 -0.0152,0.0524 -0.003,0.007 -0.007,0.01 -0.004,0.0317 0.003,0.022 0.0193,0.0372 0.0193,0.0372 l -0.051,0.0124 -0.0193,0.0482 0.0896,0.0841 -0.41754,0.26183 -0.0551,-0.091 h -0.0689 l -0.0441,0.0179 -0.0524,-0.003 -0.0289,-0.003 -0.0303,-0.0289 -0.0289,-0.1185 -0.0152,-0.0469 -0.0496,-0.0276 -0.022,-0.003 0.0717,-0.17226 -0.19982,-0.04 c -0.0152,0 -0.0276,-0.006 -0.022,-0.006"
         id="path46701" />
      <path
         style="fill:#000000;fill-opacity:1;fill-rule:nonzero;stroke:none;stroke-width:0.352778"
         d="m 492.54854,467.51338 c 0.004,0 0.0331,-10e-4 0.0331,-10e-4 l 0.0289,-0.0138 0.0372,-0.0234 0.022,-0.0344 0.007,-0.0317 0.0152,-0.0717 0.0234,-0.0675 0.04,-0.0703 c 0,0 0.006,-0.0248 0.051,-0.0592 0.0455,-0.0331 0.0331,-0.0234 0.0537,-0.0386 0.0193,-0.0152 0.0854,-0.0358 0.0854,-0.0358 l 0.0648,-0.0124 0.0717,-0.01 0.0689,0.007 0.0537,0.005 0.062,0.0152 c 0,0 0.0455,0.0193 0.0551,0.022 0.01,0.004 0.0482,0.0345 0.0482,0.0345 l 0.0317,0.0317 c 0,0 0.0276,0.0331 0.0441,0.0524 0.0152,0.0207 0.0331,0.0634 0.0331,0.0634 0,0 0.008,0.0289 0.0138,0.0427 0.004,0.0152 0.004,0.0138 0.006,0.0345 0.001,0.022 0.003,0.0537 0.003,0.0537 v 0.0441 l -0.008,0.0565 c 0,0 -0.0124,0.0469 -0.0152,0.0524 -0.003,0.007 -0.007,0.01 -0.004,0.0317 0.003,0.022 0.0193,0.0372 0.0193,0.0372 l -0.051,0.0124 -0.0193,0.0482 0.0896,0.0841 -0.41754,0.26183 -0.0551,-0.091 h -0.0689 l -0.0441,0.0179 -0.0524,-0.003 -0.0289,-0.003 -0.0303,-0.0289 -0.0289,-0.1185 -0.0152,-0.0469 -0.0496,-0.0276 -0.022,-0.003 0.0717,-0.17226 -0.19982,-0.04 c -0.0152,0 -0.0276,-0.006 -0.022,-0.006"
         id="path46703" />
      <path
         style="fill:#000000;fill-opacity:1;fill-rule:nonzero;stroke:none;stroke-width:0.352778"
         d="m 491.86917,468.67094 0.13229,-0.0317 0.0992,-0.0179 0.0937,-0.008 0.0675,-0.0221 0.17225,0.0124 0.0606,0.0248 0.21221,0.0579 0.60909,0.0344 0.0606,0.0868 -0.53882,-0.0331 0.0234,0.0262 0.17501,0.0675 0.14331,0.0193 0.20671,0.0248 -0.0234,0.11162 0.17363,0.30731 -0.28801,-0.0758 -0.17501,-0.0496 -0.1819,-0.0868 -0.14332,-0.0689 -0.0827,-0.0386 -0.0276,-0.11162 -0.0841,-0.0386 h -0.0689 l -0.0717,0.003 -0.0868,0.011 -0.0551,-0.0303 -0.0675,-0.051 -0.0661,-0.0551 -0.0689,-0.0124 -0.0786,-0.0138 -0.0455,-0.0138 z m 0,0"
         id="path46705" />
      <path
         style="fill:#000000;fill-opacity:1;fill-rule:nonzero;stroke:none;stroke-width:0.352778"
         d="m 491.86917,468.67094 0.13229,-0.0317 0.0992,-0.0179 0.0937,-0.008 0.0675,-0.0221 0.17225,0.0124 0.0606,0.0248 0.21221,0.0579 0.60909,0.0344 0.0606,0.0868 -0.53882,-0.0331 0.0234,0.0262 0.17501,0.0675 0.14331,0.0193 0.20671,0.0248 -0.0234,0.11162 0.17363,0.30731 -0.28801,-0.0758 -0.17501,-0.0496 -0.1819,-0.0868 -0.14332,-0.0689 -0.0827,-0.0386 -0.0276,-0.11162 -0.0841,-0.0386 h -0.0689 l -0.0717,0.003 -0.0868,0.011 -0.0551,-0.0303 -0.0675,-0.051 -0.0661,-0.0551 -0.0689,-0.0124 -0.0786,-0.0138 -0.0455,-0.0138 z m 0,0"
         id="path46707" />
      <path
         style="fill:#000000;fill-opacity:1;fill-rule:nonzero;stroke:none;stroke-width:0.352778"
         d="m 506.40471,468.09354 0.0276,-0.113 0.0345,-0.0372 0.0372,-0.0372 h 0.113 l 0.0744,-0.0758 0.062,-0.0124 -0.0372,-0.0248 -0.0248,-0.0248 0.0248,-0.0634 0.0372,0.0386 v 0.0248 h 0.27561 l 0.23702,0.16398 0.113,-0.0234 0.0648,-0.10473 0.17501,-0.0413 0.22876,0.10473 0.23977,0.24116 0.19982,0.38447 0.0661,0.18879 -0.0579,0.0799 -0.0896,0.073 -0.051,0.0248 0.0179,0.0937 0.17363,0.0661 0.20119,0.32798 0.0372,0.36242 -0.0579,0.0744 -0.0165,0.19293 -0.051,0.10611 -0.21359,0.0207 h -0.0496 l -0.0386,0.46164 0.0606,0.0758 0.23703,-0.003 0.0675,0.0579 0.1695,-0.0413 0.14607,-0.10335 0.16812,0.01 0.073,0.17639 -0.0262,0.0427 0.0165,0.10611 0.10335,0.17639 0.0276,0.17639 -0.0207,0.14882 -0.18052,-0.003 -0.11714,-0.13367 0.003,-0.17501 -0.011,-0.0427 -0.23151,0.0138 -0.10611,-0.0207 -0.0703,0.0937 -0.1447,0.0593 -0.37896,0.18052 -0.19292,0.0152 -0.10335,-0.1447 -0.12816,-0.57188 -0.14332,-0.3831 -0.40514,-0.0441 -0.34727,-0.13092 0.04,0.18742 -0.04,0.12402 0.0868,0.4327 0.0179,0.42582 0.004,0.0496 -0.24942,-0.01 -0.006,-0.0441 -0.0937,0.004 -0.0827,0.0606 -0.38033,-0.0193 -0.0414,-0.1006 0.0441,-0.0482 0.226,-0.022 0.17777,-0.18328 0.0372,-0.0317 -0.0331,-0.24942 -0.0772,-0.17088 -0.14883,-0.0579 -0.12264,-0.16536 -0.0386,-0.28112 -0.0248,-0.36932 0.16536,-0.16536 0.79375,-0.0179 -0.17363,-0.2825 0.0882,-0.1006 -0.20946,-0.30592 -0.0289,-0.0524 -0.0345,-0.0565 -0.0551,-0.0716 -0.0689,-0.1254 -0.01,-0.0992 -0.003,-0.12265 z m 0,0"
         id="path46709" />
      <path
         style="fill:#000000;fill-opacity:1;fill-rule:nonzero;stroke:none;stroke-width:0.352778"
         d="m 506.40471,468.09354 0.0276,-0.113 0.0345,-0.0372 0.0372,-0.0372 h 0.113 l 0.0744,-0.0758 0.062,-0.0124 -0.0372,-0.0248 -0.0248,-0.0248 0.0248,-0.0634 0.0372,0.0386 v 0.0248 h 0.27561 l 0.23702,0.16398 0.113,-0.0234 0.0648,-0.10473 0.17501,-0.0413 0.22876,0.10473 0.23977,0.24116 0.19982,0.38447 0.0661,0.18879 -0.0579,0.0799 -0.0896,0.073 -0.051,0.0248 0.0179,0.0937 0.17363,0.0661 0.20119,0.32798 0.0372,0.36242 -0.0579,0.0744 -0.0165,0.19293 -0.051,0.10611 -0.21359,0.0207 h -0.0496 l -0.0386,0.46164 0.0606,0.0758 0.23703,-0.003 0.0675,0.0579 0.1695,-0.0413 0.14607,-0.10335 0.16812,0.01 0.073,0.17639 -0.0262,0.0427 0.0165,0.10611 0.10335,0.17639 0.0276,0.17639 -0.0207,0.14882 -0.18052,-0.003 -0.11714,-0.13367 0.003,-0.17501 -0.011,-0.0427 -0.23151,0.0138 -0.10611,-0.0207 -0.0703,0.0937 -0.1447,0.0593 -0.37896,0.18052 -0.19292,0.0152 -0.10335,-0.1447 -0.12816,-0.57188 -0.14332,-0.3831 -0.40514,-0.0441 -0.34727,-0.13092 0.04,0.18742 -0.04,0.12402 0.0868,0.4327 0.0179,0.42582 0.004,0.0496 -0.24942,-0.01 -0.006,-0.0441 -0.0937,0.004 -0.0827,0.0606 -0.38033,-0.0193 -0.0414,-0.1006 0.0441,-0.0482 0.226,-0.022 0.17777,-0.18328 0.0372,-0.0317 -0.0331,-0.24942 -0.0772,-0.17088 -0.14883,-0.0579 -0.12264,-0.16536 -0.0386,-0.28112 -0.0248,-0.36932 0.16536,-0.16536 0.79375,-0.0179 -0.17363,-0.2825 0.0882,-0.1006 -0.20946,-0.30592 -0.0289,-0.0524 -0.0345,-0.0565 -0.0551,-0.0716 -0.0689,-0.1254 -0.01,-0.0992 -0.003,-0.12265 z m 0,0"
         id="path46711" />
      <path
         style="fill:#000000;fill-opacity:1;fill-rule:nonzero;stroke:none;stroke-width:0.352778"
         d="m 505.93204,467.50236 c 0.004,0 0.0331,-0.001 0.0331,-0.001 l 0.0289,-0.0138 0.0372,-0.0234 0.022,-0.0344 0.007,-0.0317 0.0152,-0.0717 0.0234,-0.0662 0.0386,-0.0717 c 0,0 0.007,-0.0248 0.0524,-0.0593 0.0455,-0.0345 0.0317,-0.0234 0.0524,-0.0386 0.0207,-0.0152 0.0868,-0.0358 0.0868,-0.0358 l 0.0648,-0.0124 0.0716,-0.01 0.0689,0.007 0.0538,0.005 0.062,0.0152 c 0,0 0.0455,0.0193 0.0537,0.0221 0.01,0.004 0.0496,0.0345 0.0496,0.0345 l 0.0317,0.0317 c 0,0 0.0276,0.0331 0.0427,0.0538 0.0165,0.0193 0.0345,0.062 0.0345,0.062 0,0 0.008,0.0289 0.0124,0.0441 0.005,0.0138 0.005,0.0124 0.007,0.0331 0.001,0.022 0.003,0.0537 0.003,0.0537 v 0.0441 l -0.01,0.0565 c 0,0 -0.011,0.0469 -0.0138,0.0524 -0.003,0.007 -0.008,0.01 -0.005,0.0317 0.004,0.022 0.0193,0.0372 0.0193,0.0372 l -0.0496,0.0124 -0.0193,0.0482 0.0896,0.0841 -0.41617,0.26183 -0.0565,-0.091 h -0.0689 l -0.0441,0.0179 -0.0538,-0.003 -0.0275,-0.003 -0.0317,-0.0289 -0.0276,-0.11851 -0.0152,-0.0469 -0.051,-0.0275 -0.022,-0.003 0.073,-0.17225 -0.20119,-0.0414 c -0.0138,0 -0.0262,-0.004 -0.0207,-0.004"
         id="path46713" />
      <path
         style="fill:#000000;fill-opacity:1;fill-rule:nonzero;stroke:none;stroke-width:0.352778"
         d="m 505.93204,467.50236 c 0.004,0 0.0331,-0.001 0.0331,-0.001 l 0.0289,-0.0138 0.0372,-0.0234 0.022,-0.0344 0.007,-0.0317 0.0152,-0.0717 0.0234,-0.0662 0.0386,-0.0717 c 0,0 0.007,-0.0248 0.0524,-0.0593 0.0455,-0.0345 0.0317,-0.0234 0.0524,-0.0386 0.0207,-0.0152 0.0868,-0.0358 0.0868,-0.0358 l 0.0648,-0.0124 0.0716,-0.01 0.0689,0.007 0.0538,0.005 0.062,0.0152 c 0,0 0.0455,0.0193 0.0537,0.0221 0.01,0.004 0.0496,0.0345 0.0496,0.0345 l 0.0317,0.0317 c 0,0 0.0276,0.0331 0.0427,0.0538 0.0165,0.0193 0.0345,0.062 0.0345,0.062 0,0 0.008,0.0289 0.0124,0.0441 0.005,0.0138 0.005,0.0124 0.007,0.0331 0.001,0.022 0.003,0.0537 0.003,0.0537 v 0.0441 l -0.01,0.0565 c 0,0 -0.011,0.0469 -0.0138,0.0524 -0.003,0.007 -0.008,0.01 -0.005,0.0317 0.004,0.022 0.0193,0.0372 0.0193,0.0372 l -0.0496,0.0124 -0.0193,0.0482 0.0896,0.0841 -0.41617,0.26183 -0.0565,-0.091 h -0.0689 l -0.0441,0.0179 -0.0538,-0.003 -0.0275,-0.003 -0.0317,-0.0289 -0.0276,-0.11851 -0.0152,-0.0469 -0.051,-0.0275 -0.022,-0.003 0.073,-0.17225 -0.20119,-0.0414 c -0.0138,0 -0.0262,-0.004 -0.0207,-0.004"
         id="path46715" />
      <path
         style="fill:#000000;fill-opacity:1;fill-rule:nonzero;stroke:none;stroke-width:0.352778"
         d="m 505.25267,468.65991 0.13229,-0.0317 0.0992,-0.0179 0.0937,-0.008 0.0661,-0.022 0.17363,0.0124 0.0606,0.0262 0.10473,0.0289 0.10887,0.0276 0.60771,0.0344 0.0606,0.0868 -0.53882,-0.0331 0.0234,0.0262 0.17363,0.0675 0.14469,0.0193 0.20533,0.0248 -0.022,0.11162 0.17226,0.3073 -0.28663,-0.0744 -0.17502,-0.051 -0.1819,-0.0868 -0.14331,-0.0689 -0.0827,-0.0386 -0.0289,-0.11161 -0.0827,-0.0386 h -0.0689 l -0.0717,0.004 -0.0868,0.011 -0.0551,-0.0317 -0.0675,-0.051 -0.0661,-0.0551 -0.0689,-0.0124 -0.0799,-0.0138 -0.0441,-0.0138 z m 0,0"
         id="path46717" />
      <path
         style="fill:#000000;fill-opacity:1;fill-rule:nonzero;stroke:none;stroke-width:0.352778"
         d="m 505.25267,468.65991 0.13229,-0.0317 0.0992,-0.0179 0.0937,-0.008 0.0661,-0.022 0.17363,0.0124 0.0606,0.0262 0.10473,0.0289 0.10887,0.0276 0.60771,0.0344 0.0606,0.0868 -0.53882,-0.0331 0.0234,0.0262 0.17363,0.0675 0.14469,0.0193 0.20533,0.0248 -0.022,0.11162 0.17226,0.3073 -0.28663,-0.0744 -0.17502,-0.051 -0.1819,-0.0868 -0.14331,-0.0689 -0.0827,-0.0386 -0.0289,-0.11161 -0.0827,-0.0386 h -0.0689 l -0.0717,0.004 -0.0868,0.011 -0.0551,-0.0317 -0.0675,-0.051 -0.0661,-0.0551 -0.0689,-0.0124 -0.0799,-0.0138 -0.0441,-0.0138 z m 0,0"
         id="path46719" />
    </g>
  </g>
</svg>
