<?xml version="1.0" encoding="UTF-8" standalone="no"?>
<!-- Created with Inkscape (http://www.inkscape.org/) -->

<svg
   width="21.225067mm"
   height="10.2639mm"
   viewBox="0 0 21.225067 10.2639"
   version="1.1"
   id="svg4964"
   sodipodi:docname="U-S-M16.svg"
   inkscape:version="1.1.1 (3bf5ae0d25, 2021-09-20)"
   xmlns:inkscape="http://www.inkscape.org/namespaces/inkscape"
   xmlns:sodipodi="http://sodipodi.sourceforge.net/DTD/sodipodi-0.dtd"
   xmlns="http://www.w3.org/2000/svg"
   xmlns:svg="http://www.w3.org/2000/svg">
  <sodipodi:namedview
     id="namedview4966"
     pagecolor="#ffffff"
     bordercolor="#666666"
     borderopacity="1.0"
     inkscape:pageshadow="2"
     inkscape:pageopacity="0.0"
     inkscape:pagecheckerboard="0"
     inkscape:document-units="mm"
     showgrid="false"
     inkscape:zoom="5.1241862"
     inkscape:cx="22.735317"
     inkscape:cy="26.24807"
     inkscape:window-width="1920"
     inkscape:window-height="1017"
     inkscape:window-x="-8"
     inkscape:window-y="-8"
     inkscape:window-maximized="1"
     inkscape:current-layer="layer1" />
  <defs
     id="defs4961" />
  <g
     inkscape:label="Layer 1"
     inkscape:groupmode="layer"
     id="layer1"
     transform="translate(-73.682673,-114.70271)">
    <path
       id="path46420"
       d="m 86.981095,114.70271 -0.08578,0.14883 0.248047,0.0992 1.638143,0.94723 c -0.0166,0.0262 -0.03292,0.0499 -0.04392,0.0568 -0.0275,0.0152 -0.0579,0.026 -0.103353,-0.006 -0.0524,-0.0344 -0.08854,-0.051 -0.131258,0.001 -0.0248,0.0303 -0.01356,0.0539 0.0072,0.0718 l -0.01137,0.0176 0.433049,0.25529 0.01085,-0.0207 c 0.0289,0.0124 0.05791,0.0152 0.07441,-0.0248 0.0262,-0.062 -0.0041,-0.0857 -0.05943,-0.11472 -0.0496,-0.0276 -0.05374,-0.0591 -0.05374,-0.0894 0,-0.0124 0.01255,-0.0371 0.02635,-0.0605 l 0.07183,0.0413 -0.01033,0.0191 0.01137,0.0398 0.134875,0.0868 0.0124,0.0388 0.425813,0.24236 c -0.14883,0.15159 -0.256316,0.34606 -0.297656,0.56379 h -0.03462 l -1.616439,-0.92035 -0.203605,-0.15193 -0.08578,0.14779 0.248047,0.0992 1.514636,0.87643 -0.0062,0.12919 -0.0047,0.001 c -0.005,-0.003 -0.0103,-0.006 -0.0155,-0.008 -0.051,-0.0358 -0.08645,-0.0524 -0.129191,0 -0.01,0.0138 -0.01535,0.0246 -0.01395,0.0356 l -0.638204,0.10749 -0.700216,1.03146 h -5.027529 l -0.134876,-0.17673 -0.117305,0.23978 h -1.105359 l 0.05271,0.10232 v 1.12706 l -4.328418,0.50695 -0.176733,-0.0589 -0.170533,-0.0584 -0.148828,-0.007 -0.0072,0.28112 -0.324012,0.64906 -0.211873,0.21342 -0.12144,0.14883 0.105937,0.15606 -0.119889,0.24805 H 75.38442 v -0.0842 l -0.162781,-0.0512 -0.177767,-0.007 -0.01395,-0.0775 0.106453,-0.11421 h 0.105937 l -0.105937,-0.0992 -0.198437,-0.007 -0.05684,0.11317 -0.0078,0.12144 v 0.0703 l -0.266134,-0.0909 -0.224275,0.31522 c -0.0441,-0.0109 -0.08978,-0.0176 -0.137976,-0.0176 -0.31144,0 -0.56224,0.25184 -0.56224,0.56328 0,0.31006 0.2508,0.56224 0.56224,0.56224 0.31006,0 0.562239,-0.25184 0.562239,-0.58395 l 0.173633,-0.14056 0.355534,0.64182 -0.03566,-0.18448 0.01344,-0.17363 0.297656,0.11317 c -0.07438,0.19292 -0.114205,0.40204 -0.114205,0.62115 0,0.96049 0.778592,1.74046 1.740462,1.74046 0.873681,0 1.593178,-0.64337 1.717208,-1.4826 l 1.368392,-0.0263 0.211874,-0.004 0.0072,-0.17105 0.0078,-0.23151 h 1.433498 l 0.04393,0.23823 h 0.344682 l 0.01499,-0.23823 1.612304,-0.001 0.433049,-0.0884 0.07286,0.20981 0.285253,0.40514 1.982825,1.19166 0.133842,0.0858 4.343404,0.015 0.186035,-0.0579 1.88774,-1.39164 0.157097,-0.36277 0.0083,-0.47646 10e-4,-0.30489 0.157096,0.13384 0.07441,0.25477 0.136426,0.0594 0.147278,0.0594 0.0155,-0.1943 0.148828,-0.11886 0.02997,-0.14986 -0.02997,-0.26768 -0.04444,-0.10439 -0.104386,-0.0444 -0.223242,-0.015 -0.135393,0.0894 v -0.5581 h 1.244369 V 119.579 h -1.137915 v -0.16691 h 0.103353 v -0.27027 h -0.103353 v -0.49041 h -0.106452 v -0.28939 h -1.619022 -0.112655 l -0.08062,-0.0501 -0.04393,0.003 -0.077,-0.0445 v -0.0754 c 0.113,-0.0455 0.194303,-0.15745 0.194303,-0.28836 0,-0.15159 -0.110421,-0.27819 -0.253731,-0.30437 l 0.02325,-0.0429 0.208256,0.13126 c 0.0165,0.01 0.03733,0.004 0.04703,-0.0114 l 0.0078,-0.0134 c 0.01,-0.0165 0.0061,-0.0373 -0.01085,-0.047 l -0.09353,-0.0594 c 0.0289,0.01 0.06153,-0.001 0.07803,-0.0289 l 0.02222,-0.0341 c 0.0193,-0.0331 0.0099,-0.0747 -0.02222,-0.094 l -0.111621,-0.0703 -0.201021,-0.12661 v -0.15709 l -0.06356,-0.0481 H 91.43203 c -0.0785,-0.38034 -0.355712,-0.68902 -0.716752,-0.81442 l 0.249597,-0.45062 -0.482141,-0.27182 -0.218075,0.3545 -0.114205,-0.004 -0.04392,0.0413 -0.06925,0.007 -0.173633,0.15606 0.03307,0.0331 0.150379,-0.14056 h 0.04134 l 0.01085,0.0661 0.04134,0.0439 -0.04134,0.0662 -0.03721,-0.003 -0.04806,0.0222 -0.08423,-0.0553 -0.100252,0.1447 0.06459,0.0331 c -0.0331,0.0152 -0.06752,0.0342 -0.09922,0.0522 l -0.515214,-0.30024 -0.03307,0.003 -0.133842,-0.0801 h -0.03979 l -0.0124,0.0196 -1.875855,-1.0697 z m 1.819527,1.20819 0.109037,0.0636 c -0.0138,0.0234 -0.02894,0.0525 -0.02894,0.0718 0,0.1447 0.155546,0.0965 0.114205,0.1943 -0.008,0.0207 -0.02319,0.0203 -0.03979,0.0134 l 0.01085,-0.0176 -0.432532,-0.25529 -0.01085,0.0202 c -0.01,-0.011 -0.011,-0.0219 0,-0.0357 0.0675,-0.0827 0.09763,0.0789 0.225826,0.0103 0.0179,-0.01 0.03699,-0.0389 0.05219,-0.0651 z m 0.198438,1.27125 c 0.01785,-0.003 0.03461,0.009 0.05529,0.0222 l -0.09767,0.0165 c 10e-4,-0.004 0.0028,-0.0103 0.0078,-0.0155 0.01241,-0.015 0.02392,-0.0217 0.03462,-0.0233 z m 0.213423,0.16691 h 0.05271 c 0.001,0.0152 0.0037,0.0318 0.0047,0.047 l -0.05013,-0.0305 z m 0.04444,0.11731 0.03152,0.0181 c 0.0579,0.24115 0.194478,0.45062 0.381888,0.59945 l -0.139526,0.0258 -0.04806,-0.0289 z m -7.896676,1.0635 h 0.904338 l -0.553971,1.07487 -0.350367,0.0398 z m 5.136638,4.17235 0.537435,0.11576 1.274857,0.0222 0.05891,0.0677 h 0.08992 l 0.376205,0.69298 -0.219108,0.0413 c -0.08268,-0.0496 -0.17777,-0.0785 -0.28112,-0.0785 -0.23702,0 -0.438446,0.15313 -0.510046,0.36535 l -0.219108,-0.0114 c -0.07579,-0.20671 -0.273023,-0.35398 -0.505913,-0.35398 -0.29766,0 -0.538468,0.24132 -0.538468,0.53898 0,0.12402 0.04095,0.23843 0.112654,0.33073 l -1.203027,-0.75241 c 0.0453,0.007 0.09202,0.0109 0.140043,0.0109 0.49196,0 0.891935,-0.39946 0.891935,-0.89142 z m 5.181079,0.16175 c 0.03307,0.41203 0.379134,0.73587 0.799434,0.73587 0.08269,0 0.161245,-0.0128 0.235645,-0.0362 l -1.136882,0.81442 c 0.0482,-0.0813 0.07596,-0.17485 0.07596,-0.27544 0,-0.29766 -0.241326,-0.53898 -0.538986,-0.53898 -0.25218,0 -0.462732,0.17225 -0.521932,0.40514 h -0.166914 c -0.05925,-0.23289 -0.270269,-0.40514 -0.522449,-0.40514 -0.10611,0 -0.203588,0.0303 -0.286288,0.0827 l -0.202571,-0.0382 0.396875,-0.72089 h 0.443384 l 0.21394,0.45321 v 0.19585 h 0.240812 v -0.26613 l 0.07855,0.20257 0.921908,-0.1664 z m -2.645317,0.85731 h 0.134876 v 0.1912 l 0.132292,0.12144 0.06356,0.0687 c 0,0.25218 0.173638,0.46455 0.409278,0.52245 l -1.262455,-0.0139 c 0.210839,-0.073 0.362251,-0.27286 0.362251,-0.5085 l 0.06098,-0.0687 0.09922,-0.1142 z m -1.411283,0.50643 h 0.187585 c 0.04272,0.17501 0.170527,0.3173 0.335897,0.3793 l -0.836125,-0.008 c 0.15572,-0.0661 0.272643,-0.2043 0.312643,-0.37104 z m 2.80448,5.3e-4 h 0.162264 c 0.05512,0.22462 0.248051,0.39396 0.483691,0.41186 l -1.051098,-0.0124 c 0.19981,-0.0441 0.356943,-0.20102 0.405143,-0.39946 z" />
  </g>
</svg>
