<?xml version="1.0" encoding="UTF-8" standalone="no"?>
<!-- Created with Inkscape (http://www.inkscape.org/) -->

<svg
   width="25.216658mm"
   height="5.096055mm"
   viewBox="0 0 25.216658 5.096055"
   version="1.1"
   id="svg13154"
   sodipodi:docname="inkporter-svg-4zg4vxuo.svg"
   xmlns:inkscape="http://www.inkscape.org/namespaces/inkscape"
   xmlns:sodipodi="http://sodipodi.sourceforge.net/DTD/sodipodi-0.dtd"
   xmlns="http://www.w3.org/2000/svg"
   xmlns:svg="http://www.w3.org/2000/svg">
  <sodipodi:namedview
     id="namedview13156"
     pagecolor="#ffffff"
     bordercolor="#666666"
     borderopacity="1.0"
     inkscape:pageshadow="2"
     inkscape:pageopacity="0.0"
     inkscape:pagecheckerboard="0"
     inkscape:document-units="mm"
     showgrid="false"
     inkscape:zoom="1.2810466"
     inkscape:cx="329.80846"
     inkscape:cy="654.54295"
     inkscape:window-width="1920"
     inkscape:window-height="1017"
     inkscape:window-x="-8"
     inkscape:window-y="-8"
     inkscape:window-maximized="1"
     inkscape:current-layer="layer1" />
  <defs
     id="defs13151" />
  <g
     inkscape:label="Layer 1"
     inkscape:groupmode="layer"
     id="layer1"
     transform="translate(-91.073172,-178.5848)">
    <g
       id="U-S-57mm"
       transform="matrix(0.35277777,0,0,0.35277777,-19.75968,59.71248)">
      <path
         style="fill:#000000;fill-opacity:1;fill-rule:nonzero;stroke:none"
         d="m 350.90625,340.48828 0.76172,0.13672 0.4375,0.25781 h 0.14844 l 0.52734,-0.49219 0.45312,-0.23828 1.05469,0.73047 v 0.26953 l 0.94531,1.1836 -0.19531,0.4375 -0.4375,0.41797 0.26953,0.50781 v 0.20312 l 0.12891,0.34375 0.36328,0.21875 0.38281,0.82032 0.19922,0.65625 0.0937,0.52734 -0.27344,0.25391 -0.42187,0.10937 -0.0898,0.32813 -0.1211,0.23046 -0.11719,1.34375 0.17969,0.22266 0.69141,-0.008 0.19922,0.16797 0.49219,-0.117 c 0,0 0.23047,-0.25781 0.42188,-0.30469 0.19141,-0.043 0.56641,-0.0156 0.56641,-0.0156 l 0.13671,0.55859 -0.0742,0.125 0.0469,0.3125 c 0,0 0.27344,0.39453 0.30078,0.51172 0.0274,0.12109 0.082,0.35937 0.082,0.51172 0,0.15234 -0.0625,0.4375 -0.0625,0.4375 0,0 -0.40625,0.0469 -0.52734,-0.0117 -0.12109,-0.0547 -0.29297,-0.32031 -0.33984,-0.38672 -0.043,-0.0664 0.008,-0.50781 0.008,-0.50781 l -0.11719,-0.28906 -0.5625,0.0937 -0.33594,0.0469 -0.16406,0.40625 -0.47656,0.18359 -1.08594,0.38282 -0.56641,0.043 -0.30078,-0.42188 -0.37109,-1.66406 -0.41797,-1.11719 -1.18359,-0.12891 -1.01172,-0.38281 0.17187,0.79688 -0.0547,0.50781 0.13671,0.86719 0.0508,1.23828 0.0156,0.14453 -0.72656,-0.0312 -0.0156,-0.125 -0.27343,0.0117 -0.23829,0.17969 -1.10937,-0.0586 -0.12109,-0.29297 0.1289,-0.14062 0.65625,-0.0625 0.51563,-0.53516 0.0156,-0.82031 -0.0898,-0.15625 -0.47266,-0.21875 -0.45312,-0.77344 -0.11328,-0.82031 -0.0742,-1.07422 0.48047,-0.48437 2.3164,-0.0508 -0.20312,-0.34375 -0.99219,0.0234 -0.043,-0.18359 -0.68359,0.0195 -0.19141,-0.0352 -0.19141,-0.0625 -0.14453,-0.19531 -0.11718,-0.24219 -0.40235,-0.16406 -0.375,-0.10937 -0.33594,-0.10938 -0.29687,-0.10937 -0.25,-0.12891 -0.22656,-0.16406 -0.11719,-0.0977 -0.10938,-0.18359 0.21875,-0.082 0.4375,-0.008 0.46485,0.0352 0.50781,0.0469 0.42969,0.0547 0.35156,0.0625 0.44141,0.082 0.33593,0.0703 0.41797,0.0859 0.4336,0.10157 -0.21875,-0.36719 -0.082,-0.15625 -0.10157,-0.16406 -0.16406,-0.21094 -0.19922,-0.35938 -0.0273,-0.29297 -0.008,-0.35546 0.0351,-0.1875 -0.23828,-0.16016 -0.26562,-0.0117 -0.16016,-0.0898 -0.17188,-0.42969 -0.0469,-0.13672 -0.14453,-0.082 0.14453,-0.50781 -0.64453,-0.19922 0.32031,-0.0899 0.125,-0.16015 0.008,-0.11719 c 0,0 0.0156,-0.0859 0.043,-0.13672 0.0742,-0.14453 0.0508,-0.12109 0.0547,-0.13281 l 0.11719,-0.19531 0.15234,-0.16407 0.17188,-0.14843 0.22656,-0.11328 0.33984,-0.0352 0.2461,0.0195 0.32031,0.0977 0.23828,0.17187 0.16797,0.22656 0.0976,0.26954 0.0547,0.1914 0.004,0.19141 0.45703,0.12109 -0.53125,0.15235 z m 0,0"
         id="path41178" />
      <path
         style="fill:#000000;fill-opacity:1;fill-rule:nonzero;stroke:none"
         d="m 314.85937,340.97266 -0.1875,0.008 v 0.6289 l 0.36329,0.0234 0.24218,-0.0508 0.14844,-0.043 0.15625,-0.0664 0.0742,-0.22266 -0.17969,-0.16797 -0.27344,-0.0625 z m -0.6875,1.03515 v -1.59375 l 0.34375,-0.17187 0.22266,-0.0117 h 0.22656 l 0.22657,0.10156 0.20312,0.27734 h 0.90625 l 0.0312,-0.20703 0.29297,-0.0586 0.25781,0.0391 0.0781,0.25 h 19.37109 l 0.0117,-3.48047 h 0.60937 v 3.48047 h 0.75391 l 0.0469,-0.23828 0.375,-0.0469 0.0976,0.28515 h 2.58594 v -1.32031 l 0.98828,-0.043 0.14063,-0.66016 0.14062,-0.5664 0.32813,-0.0469 v -1.03515 h 4.42187 v 2.91797 l 0.33203,0.0937 v 0.42187 l 0.89453,0.0508 v -0.84765 l 0.70313,0.0469 v 0.65625 l 1.69531,0.0469 v -0.28125 l 0.51563,0.0469 v 1.17578 h 0.7539 l 0.0469,2.11719 0.375,0.28125 h 1.1289 v 1.27344 l -2.25781,0.0937 v -0.23438 l -3.24609,-0.0937 -0.14063,1.22266 -0.23437,0.14062 -0.89453,-0.0937 -0.1875,-1.17578 -0.23438,-0.33203 h -1.78906 l -0.0274,0.90234 c 0.13672,0.23438 0.25,0.48047 0.33594,0.74219 l 1.19531,0.14453 -0.0469,-0.32812 0.84766,0.0937 0.0469,0.60937 0.89453,0.0469 2.6836,1.03515 15.05468,0.14063 0.0937,-0.42188 -0.1875,-0.1875 v -0.23437 h 3.00782 l 0.28515,0.89062 2.96094,0.14063 0.14062,2.39844 -0.28125,0.42578 -0.51562,0.14062 -0.56641,-0.0937 -0.9414,-0.32812 h -0.32813 l -0.7539,-0.56641 -0.375,-0.23437 -16.79688,0.0469 -0.5625,-0.14062 -4.98828,-1.22266 -0.70313,-0.0937 c -0.51953,1.73047 -2.08593,3.01172 -3.95312,3.01172 -1.36719,0 -2.57422,-0.6875 -3.29297,-1.73438 l -0.42578,0.0859 -0.60938,0.56641 v -1.60156 l -0.51953,-1.03516 -0.9375,-0.1875 v -1.17578 l -1.17578,-0.0937 0.0469,-0.375 1.1289,0.0664 v -0.49218 l -0.26172,-0.0703 0.0234,-0.35156 h 0.70703 v -0.5664 l -4.16406,-0.0117 v 0.16406 l -0.17578,0.11719 -0.19922,-0.0703 -0.12109,-0.15234 -0.32813,-0.0469 -0.32812,-0.42188 -0.375,-0.14062 -0.19141,-0.33204 v -0.28125 l 0.14063,-0.28125 h 0.3789 l 0.28125,-0.0937 0.1875,-0.14062 v -0.69531 l -13.5,-0.008 -0.15234,0.26563 -0.28516,0.0547 -0.30469,-0.0703 -0.0508,-0.26953 -0.90234,0.004 -0.26953,0.22266 -0.17578,0.0898 h -0.375 l -0.1836,-0.0781 z m 0,0"
         id="path41180" />
      <path
         style="fill:#000000;fill-opacity:1;fill-rule:nonzero;stroke:none"
         d="m 357.48047,340.20703 c 0.0156,0 -0.0195,-0.008 -0.0195,-0.008 l -0.0274,-0.0274 -0.0195,-0.0508 -0.0547,-0.11328 -0.008,-0.14844 0.0352,-0.13671 0.11328,-0.13672 0.14844,-0.0977 c 0,0 -0.0703,0.043 0.0625,-0.0586 0.1289,-0.0977 0.0937,-0.0312 0.15234,-0.0781 0.0586,-0.043 0.19922,-0.0547 0.19922,-0.0547 l 0.14844,-0.10156 0.14453,-0.0391 0.17578,-0.0234 0.17578,-0.0117 0.0977,0.0234 c 0,0 0.043,-0.004 0.0703,0.004 0.0234,0.008 0.12891,0.0625 0.12891,0.0625 l 0.0469,0.0781 c 0,0 0.0547,0.10547 0.0977,0.16406 0.0469,0.0586 0.0625,0.11329 0.0625,0.11329 0,0 -0.0117,0.0273 0.004,0.0664 0.0117,0.043 0.004,0.043 0.008,0.10547 0.004,0.0664 0,0.15234 0,0.15234 l 0.0195,0.10157 0.0195,0.0898 c 0,0 0.0351,0.17969 0.0273,0.19922 -0.0117,0.0156 0.0234,-0.0117 0.0352,0.0547 0.008,0.0625 0.008,0.0976 0.008,0.0976 l 0.0273,0.10157 0.008,0.0898 0.25781,0.24609 -1.21484,0.75782 -0.16407,-0.26563 h -0.19922 l -0.125,0.0547 -0.15625,-0.008 -0.082,-0.008 -0.0898,-0.082 -0.082,-0.34765 -0.0469,-0.13672 -0.14453,-0.082 -0.0625,-0.008 0.20703,-0.5 -0.043,-0.0469 c -0.0391,0 0.0469,0.008 0.0586,0.008"
         id="path41182" />
      <path
         style="fill:#000000;fill-opacity:1;fill-rule:nonzero;stroke:none"
         d="m 357.48047,340.20703 c 0.0156,0 -0.0195,-0.008 -0.0195,-0.008 l -0.0274,-0.0274 -0.0195,-0.0508 -0.0547,-0.11328 -0.008,-0.14844 0.0352,-0.13671 0.11328,-0.13672 0.14844,-0.0977 c 0,0 -0.0703,0.043 0.0625,-0.0586 0.1289,-0.0977 0.0937,-0.0312 0.15234,-0.0781 0.0586,-0.043 0.19922,-0.0547 0.19922,-0.0547 l 0.14844,-0.10156 0.14453,-0.0391 0.17578,-0.0234 0.17578,-0.0117 0.0977,0.0234 c 0,0 0.043,-0.004 0.0703,0.004 0.0234,0.008 0.12891,0.0625 0.12891,0.0625 l 0.0469,0.0781 c 0,0 0.0547,0.10547 0.0977,0.16406 0.0469,0.0586 0.0625,0.11329 0.0625,0.11329 0,0 -0.0117,0.0273 0.004,0.0664 0.0117,0.043 0.004,0.043 0.008,0.10547 0.004,0.0664 0,0.15234 0,0.15234 l 0.0195,0.10157 0.0195,0.0898 c 0,0 0.0351,0.17969 0.0273,0.19922 -0.0117,0.0156 0.0234,-0.0117 0.0352,0.0547 0.008,0.0625 0.008,0.0976 0.008,0.0976 l 0.0273,0.10157 0.008,0.0898 0.25781,0.24609 -1.21484,0.75782 -0.16407,-0.26563 h -0.19922 l -0.125,0.0547 -0.15625,-0.008 -0.082,-0.008 -0.0898,-0.082 -0.082,-0.34765 -0.0469,-0.13672 -0.14453,-0.082 -0.0625,-0.008 0.20703,-0.5 -0.043,-0.0469 c -0.0391,0 0.0469,0.008 0.0586,0.008"
         id="path41184" />
      <path
         style="fill:#000000;fill-opacity:1;fill-rule:nonzero;stroke:none"
         d="m 358.375,341.44141 0.0781,-0.32813 0.10157,-0.10937 0.10937,-0.10938 h 0.32813 l 0.21875,-0.21484 0.18359,-0.0391 -0.10937,-0.0703 -0.0742,-0.0742 0.0742,-0.18359 0.10937,0.10937 v 0.0742 l 0.73828,0.0391 0.4375,0.2539 h 0.14453 l 0.52735,-0.49219 0.45703,-0.23437 1.05469,0.72656 v 0.27344 l 0.94531,1.18359 -0.19922,0.4375 -0.4375,0.41797 0.27344,0.50781 v 0.20313 l 0.1289,0.34375 0.36328,0.21875 0.38282,0.82031 0.19922,0.65235 0.0898,0.52734 -0.27344,0.25781 -0.41797,0.10547 -0.0898,0.32813 -0.125,0.23437 -0.11328,1.34375 0.17578,0.22266 0.69141,-0.008 0.19921,0.16797 0.49219,-0.11718 c 0,0 0.23438,-0.25782 0.42578,-0.30469 0.19141,-0.0469 0.5625,-0.0195 0.5625,-0.0195 l 0.13672,0.55859 -0.0742,0.12891 0.0508,0.30859 c 0,0 0.26954,0.39844 0.29688,0.51563 0.0273,0.11718 0.0859,0.35546 0.082,0.51171 0,0.15235 -0.0586,0.4336 -0.0586,0.4336 0,0 -0.41016,0.0469 -0.53125,-0.008 -0.11719,-0.0547 -0.29297,-0.32032 -0.33594,-0.38672 -0.0469,-0.0703 0.008,-0.51172 0.008,-0.51172 l -0.11719,-0.28516 -0.5625,0.0899 -0.33593,0.0508 -0.16407,0.40625 -0.47656,0.17968 -1.08984,0.38672 -0.5625,0.043 -0.30078,-0.42187 -0.375,-1.66407 -0.41407,-1.11718 -1.17968,-0.12891 -1.01563,-0.38281 0.17188,0.79297 -0.0586,0.51172 0.14063,0.86718 0.0508,1.23438 0.0156,0.14844 -0.72656,-0.0312 -0.0156,-0.12891 -0.27344,0.0156 -0.24219,0.17579 -1.10937,-0.0547 -0.1211,-0.29297 0.12891,-0.14453 0.66016,-0.0625 0.51562,-0.53516 0.11328,-0.0898 -0.0976,-0.73047 -0.0937,-0.15234 -0.47266,-0.21875 -0.45313,-0.77344 -0.11328,-0.82031 -0.0703,-1.07422 0.48047,-0.48438 2.3125,-0.0508 -0.85547,-1.47266 0.21875,-0.16406 -0.22266,-0.37109 -0.0781,-0.15235 -0.10156,-0.16406 -0.16407,-0.21094 -0.19921,-0.36328 -0.0312,-0.28906 -0.008,-0.35547 z m 0,0"
         id="path41186" />
      <path
         style="fill:#000000;fill-opacity:1;fill-rule:nonzero;stroke:none"
         d="m 358.375,341.44141 0.0781,-0.32813 0.10157,-0.10937 0.10937,-0.10938 h 0.32813 l 0.21875,-0.21484 0.18359,-0.0391 -0.10937,-0.0703 -0.0742,-0.0742 0.0742,-0.18359 0.10937,0.10937 v 0.0742 l 0.73828,0.0391 0.4375,0.2539 h 0.14453 l 0.52735,-0.49219 0.45703,-0.23437 1.05469,0.72656 v 0.27344 l 0.94531,1.18359 -0.19922,0.4375 -0.4375,0.41797 0.27344,0.50781 v 0.20313 l 0.1289,0.34375 0.36328,0.21875 0.38282,0.82031 0.19922,0.65235 0.0898,0.52734 -0.27344,0.25781 -0.41797,0.10547 -0.0898,0.32813 -0.125,0.23437 -0.11328,1.34375 0.17578,0.22266 0.69141,-0.008 0.19921,0.16797 0.49219,-0.11718 c 0,0 0.23438,-0.25782 0.42578,-0.30469 0.19141,-0.0469 0.5625,-0.0195 0.5625,-0.0195 l 0.13672,0.55859 -0.0742,0.12891 0.0508,0.30859 c 0,0 0.26954,0.39844 0.29688,0.51563 0.0273,0.11718 0.0859,0.35546 0.082,0.51171 0,0.15235 -0.0586,0.4336 -0.0586,0.4336 0,0 -0.41016,0.0469 -0.53125,-0.008 -0.11719,-0.0547 -0.29297,-0.32032 -0.33594,-0.38672 -0.0469,-0.0703 0.008,-0.51172 0.008,-0.51172 l -0.11719,-0.28516 -0.5625,0.0899 -0.33593,0.0508 -0.16407,0.40625 -0.47656,0.17968 -1.08984,0.38672 -0.5625,0.043 -0.30078,-0.42187 -0.375,-1.66407 -0.41407,-1.11718 -1.17968,-0.12891 -1.01563,-0.38281 0.17188,0.79297 -0.0586,0.51172 0.14063,0.86718 0.0508,1.23438 0.0156,0.14844 -0.72656,-0.0312 -0.0156,-0.12891 -0.27344,0.0156 -0.24219,0.17579 -1.10937,-0.0547 -0.1211,-0.29297 0.12891,-0.14453 0.66016,-0.0625 0.51562,-0.53516 0.11328,-0.0898 -0.0976,-0.73047 -0.0937,-0.15234 -0.47266,-0.21875 -0.45313,-0.77344 -0.11328,-0.82031 -0.0703,-1.07422 0.48047,-0.48438 2.3125,-0.0508 -0.85547,-1.47266 0.21875,-0.16406 -0.22266,-0.37109 -0.0781,-0.15235 -0.10156,-0.16406 -0.16407,-0.21094 -0.19921,-0.36328 -0.0312,-0.28906 -0.008,-0.35547 z m 0,0"
         id="path41188" />
      <path
         style="fill:#000000;fill-opacity:1;fill-rule:nonzero;stroke:none"
         d="m 356.82031,340.04687 0.59375,0.10157 0.4961,0.25 -0.0742,0.28125 0.11718,0.375 -0.15625,0.29297 0.0469,0.14453 0.26562,0.0117 0.23829,0.16015 0.10156,0.45703 0.17187,0.14063 0.71875,0.23437 -0.0976,-0.39843 -0.23438,-0.26563 -0.0781,-0.12891 0.0234,-0.27734 0.19922,-0.12109 0.11719,-0.082 0.004,-0.2461 0.0859,-0.54297 0.0703,-0.23828 0.1875,-0.0547 -0.0547,-0.23828 -0.0586,-0.17187 -0.0547,-0.19141 -0.0977,-0.27344 -0.17187,-0.22265 -0.23438,-0.17188 -0.32031,-0.0976 -0.25,-0.0195 -0.33984,0.0351 -0.22266,0.11328 -0.17578,0.14453 -0.14844,0.16797 c -0.004,0.004 -0.0937,0.16016 -0.11719,0.19532 -0.004,0.0117 0.0156,-0.0156 -0.0586,0.1289 -0.0234,0.0547 -0.0391,0.13672 -0.0391,0.13672 l -0.0117,0.12109 -0.0274,0.0859 -0.0976,0.0742 z m 0,0"
         id="path41190" />
      <path
         style="fill:#000000;fill-opacity:1;fill-rule:nonzero;stroke:none"
         d="m 356.82031,340.04687 0.59375,0.10157 0.4961,0.25 -0.0742,0.28125 0.11718,0.375 -0.15625,0.29297 0.0469,0.14453 0.26562,0.0117 0.23829,0.16015 0.10156,0.45703 0.17187,0.14063 0.71875,0.23437 -0.0976,-0.39843 -0.23438,-0.26563 -0.0781,-0.12891 0.0234,-0.27734 0.19922,-0.12109 0.11719,-0.082 0.004,-0.2461 0.0859,-0.54297 0.0703,-0.23828 0.1875,-0.0547 -0.0547,-0.23828 -0.0586,-0.17187 -0.0547,-0.19141 -0.0977,-0.27344 -0.17187,-0.22265 -0.23438,-0.17188 -0.32031,-0.0976 -0.25,-0.0195 -0.33984,0.0351 -0.22266,0.11328 -0.17578,0.14453 -0.14844,0.16797 c -0.004,0.004 -0.0937,0.16016 -0.11719,0.19532 -0.004,0.0117 0.0156,-0.0156 -0.0586,0.1289 -0.0234,0.0547 -0.0391,0.13672 -0.0391,0.13672 l -0.0117,0.12109 -0.0274,0.0859 -0.0976,0.0742 z m 0,0"
         id="path41192" />
      <path
         style="fill:#000000;fill-opacity:1;fill-rule:nonzero;stroke:none"
         d="m 357.33984,340.17969 -0.72656,0.0351 v 0.58203 h 0.16016 l 0.20312,0.36719 -0.60156,0.96094 -0.41797,1.05859 v 0.61719 l 0.30859,0.25391 h 0.72657 l 0.65625,-0.17969 0.60156,-0.20313 0.45312,-0.0703 0.83594,0.10938 -0.14453,-2.45703 -0.59766,0.16406 -0.58593,0.19922 -0.14453,0.34375 -0.41797,0.49218 -0.41797,0.1836 -0.0547,-0.27344 0.58203,-1.12891 0.36328,0.0195 -0.0351,-1.10938 z m 0,0"
         id="path41194" />
      <path
         style="fill:#000000;fill-opacity:1;fill-rule:nonzero;stroke:none"
         d="m 357.33984,340.17969 -0.72656,0.0351 v 0.58203 h 0.16016 l 0.20312,0.36719 -0.60156,0.96094 -0.41797,1.05859 v 0.61719 l 0.30859,0.25391 h 0.72657 l 0.65625,-0.17969 0.60156,-0.20313 0.45312,-0.0703 0.83594,0.10938 -0.14453,-2.45703 -0.59766,0.16406 -0.58593,0.19922 -0.14453,0.34375 -0.41797,0.49218 -0.41797,0.1836 -0.0547,-0.27344 0.58203,-1.12891 0.36328,0.0195 -0.0351,-1.10938 z m 0,0"
         id="path41196" />
      <path
         style="fill:#000000;fill-opacity:1;fill-rule:nonzero;stroke:none"
         d="m 367.14062,340.44531 c 0.0156,0 -0.0195,-0.008 -0.0195,-0.008 l -0.0234,-0.0273 -0.0234,-0.0508 -0.0547,-0.11328 -0.004,-0.15234 0.0312,-0.13672 0.11329,-0.13672 0.15234,-0.0937 c 0,0 -0.0742,0.043 0.0547,-0.0586 0.13281,-0.10156 0.0976,-0.0312 0.15625,-0.0781 0.0586,-0.0469 0.19922,-0.0547 0.19922,-0.0547 l 0.14843,-0.10547 0.14453,-0.0352 0.17579,-0.0234 0.17578,-0.0117 0.0976,0.0234 c 0,0 0.0391,-0.008 0.0664,0.004 0.0312,0.008 0.13281,0.0625 0.13281,0.0625 l 0.0469,0.0781 c 0,0 0.0547,0.10547 0.0976,0.16407 0.0469,0.0586 0.0625,0.11328 0.0625,0.11328 0,0 -0.0117,0.0273 0.004,0.0664 0.0156,0.043 0.004,0.043 0.008,0.10547 0.008,0.0625 0,0.14844 0,0.14844 l 0.0195,0.10156 0.0156,0.0899 c 0,0 0.0391,0.18359 0.0312,0.20312 -0.0117,0.0156 0.0273,-0.0117 0.0351,0.0508 0.008,0.0664 0.008,0.10156 0.008,0.10156 l 0.0273,0.10157 0.008,0.0859 0.25782,0.2461 -1.21485,0.76172 -0.16406,-0.26563 h -0.19922 l -0.125,0.0547 -0.15625,-0.008 -0.082,-0.0117 -0.0898,-0.0781 -0.082,-0.34765 -0.0469,-0.13672 -0.14453,-0.082 -0.0664,-0.008 0.21094,-0.5 -0.043,-0.0469 c -0.043,0 0.0469,0.008 0.0586,0.008"
         id="path41198" />
      <path
         style="fill:#000000;fill-opacity:1;fill-rule:nonzero;stroke:none"
         d="m 367.14062,340.44531 c 0.0156,0 -0.0195,-0.008 -0.0195,-0.008 l -0.0234,-0.0273 -0.0234,-0.0508 -0.0547,-0.11328 -0.004,-0.15234 0.0312,-0.13672 0.11329,-0.13672 0.15234,-0.0937 c 0,0 -0.0742,0.043 0.0547,-0.0586 0.13281,-0.10156 0.0976,-0.0312 0.15625,-0.0781 0.0586,-0.0469 0.19922,-0.0547 0.19922,-0.0547 l 0.14843,-0.10547 0.14453,-0.0352 0.17579,-0.0234 0.17578,-0.0117 0.0976,0.0234 c 0,0 0.0391,-0.008 0.0664,0.004 0.0312,0.008 0.13281,0.0625 0.13281,0.0625 l 0.0469,0.0781 c 0,0 0.0547,0.10547 0.0976,0.16407 0.0469,0.0586 0.0625,0.11328 0.0625,0.11328 0,0 -0.0117,0.0273 0.004,0.0664 0.0156,0.043 0.004,0.043 0.008,0.10547 0.008,0.0625 0,0.14844 0,0.14844 l 0.0195,0.10156 0.0156,0.0899 c 0,0 0.0391,0.18359 0.0312,0.20312 -0.0117,0.0156 0.0273,-0.0117 0.0351,0.0508 0.008,0.0664 0.008,0.10156 0.008,0.10156 l 0.0273,0.10157 0.008,0.0859 0.25782,0.2461 -1.21485,0.76172 -0.16406,-0.26563 h -0.19922 l -0.125,0.0547 -0.15625,-0.008 -0.082,-0.0117 -0.0898,-0.0781 -0.082,-0.34765 -0.0469,-0.13672 -0.14453,-0.082 -0.0664,-0.008 0.21094,-0.5 -0.043,-0.0469 c -0.043,0 0.0469,0.008 0.0586,0.008"
         id="path41200" />
      <path
         style="fill:#000000;fill-opacity:1;fill-rule:nonzero;stroke:none"
         d="m 368.03516,341.67969 0.0781,-0.32813 0.10156,-0.10937 0.10938,-0.10938 h 0.32812 l 0.21875,-0.21875 0.1836,-0.0351 -0.10938,-0.0742 -0.0391,-0.0352 -0.0352,-0.0352 0.0742,-0.18359 0.10938,0.10938 v 0.0742 l 0.73828,0.0391 0.4375,0.2539 h 0.14453 l 0.53125,-0.49218 0.44922,-0.23438 1.05859,0.72656 v 0.27344 l 0.94531,1.18359 -0.19921,0.4375 -0.4375,0.41797 0.27343,0.50782 v 0.20312 l 0.12891,0.34375 0.36328,0.21875 0.38281,0.81641 0.19922,0.65625 0.0899,0.52734 -0.27344,0.25391 -0.41797,0.10937 -0.0898,0.32813 -0.125,0.23437 -0.11329,1.34375 0.17579,0.21875 0.6914,-0.004 0.19922,0.16796 0.49219,-0.11718 c 0,0 0.23437,-0.25782 0.42578,-0.30469 0.19141,-0.0469 0.5625,-0.0195 0.5625,-0.0195 l 0.13672,0.55859 -0.0742,0.12891 0.0469,0.30859 c 0,0 0.27735,0.39844 0.30079,0.51563 0.0273,0.11718 0.0859,0.35547 0.082,0.51172 0,0.15234 -0.0586,0.43359 -0.0586,0.43359 0,0 -0.41015,0.0469 -0.53125,-0.008 -0.12109,-0.0547 -0.29297,-0.32032 -0.33593,-0.39063 -0.0469,-0.0664 0.008,-0.50781 0.008,-0.50781 l -0.11719,-0.28516 -0.56641,0.0899 -0.33203,0.0508 -0.16797,0.40625 -0.47265,0.17969 -1.08985,0.38281 -0.5625,0.0469 -0.30078,-0.42187 -0.37109,-1.66406 -0.41797,-1.11719 -1.18359,-0.13281 -1.01172,-0.37891 0.17187,0.79297 -0.0547,0.50781 0.13671,0.86719 0.0508,1.23828 0.0156,0.14844 -0.72656,-0.0312 -0.0156,-0.12891 -0.27343,0.0156 -0.24219,0.17578 -1.10938,-0.0586 -0.12109,-0.28906 0.12891,-0.14453 0.66015,-0.0625 0.51563,-0.53516 0.10937,-0.0898 -0.0937,-0.73047 -0.0937,-0.15625 -0.47265,-0.21875 -0.45313,-0.76953 -0.11328,-0.82031 -0.0703,-1.07813 0.48047,-0.48047 2.3125,-0.0508 -0.85547,-1.47656 0.21875,-0.16406 -0.22266,-0.36719 -0.0781,-0.15234 -0.10157,-0.16407 -0.16406,-0.21093 -0.20312,-0.36329 -0.0274,-0.28906 -0.008,-0.35547 z m 0,0"
         id="path41202" />
      <path
         style="fill:#000000;fill-opacity:1;fill-rule:nonzero;stroke:none"
         d="m 368.03516,341.67969 0.0781,-0.32813 0.10156,-0.10937 0.10938,-0.10938 h 0.32812 l 0.21875,-0.21875 0.1836,-0.0351 -0.10938,-0.0742 -0.0391,-0.0352 -0.0352,-0.0352 0.0742,-0.18359 0.10938,0.10938 v 0.0742 l 0.73828,0.0391 0.4375,0.2539 h 0.14453 l 0.53125,-0.49218 0.44922,-0.23438 1.05859,0.72656 v 0.27344 l 0.94531,1.18359 -0.19921,0.4375 -0.4375,0.41797 0.27343,0.50782 v 0.20312 l 0.12891,0.34375 0.36328,0.21875 0.38281,0.81641 0.19922,0.65625 0.0899,0.52734 -0.27344,0.25391 -0.41797,0.10937 -0.0898,0.32813 -0.125,0.23437 -0.11329,1.34375 0.17579,0.21875 0.6914,-0.004 0.19922,0.16796 0.49219,-0.11718 c 0,0 0.23437,-0.25782 0.42578,-0.30469 0.19141,-0.0469 0.5625,-0.0195 0.5625,-0.0195 l 0.13672,0.55859 -0.0742,0.12891 0.0469,0.30859 c 0,0 0.27735,0.39844 0.30079,0.51563 0.0273,0.11718 0.0859,0.35547 0.082,0.51172 0,0.15234 -0.0586,0.43359 -0.0586,0.43359 0,0 -0.41015,0.0469 -0.53125,-0.008 -0.12109,-0.0547 -0.29297,-0.32032 -0.33593,-0.39063 -0.0469,-0.0664 0.008,-0.50781 0.008,-0.50781 l -0.11719,-0.28516 -0.56641,0.0899 -0.33203,0.0508 -0.16797,0.40625 -0.47265,0.17969 -1.08985,0.38281 -0.5625,0.0469 -0.30078,-0.42187 -0.37109,-1.66406 -0.41797,-1.11719 -1.18359,-0.13281 -1.01172,-0.37891 0.17187,0.79297 -0.0547,0.50781 0.13671,0.86719 0.0508,1.23828 0.0156,0.14844 -0.72656,-0.0312 -0.0156,-0.12891 -0.27343,0.0156 -0.24219,0.17578 -1.10938,-0.0586 -0.12109,-0.28906 0.12891,-0.14453 0.66015,-0.0625 0.51563,-0.53516 0.10937,-0.0898 -0.0937,-0.73047 -0.0937,-0.15625 -0.47265,-0.21875 -0.45313,-0.76953 -0.11328,-0.82031 -0.0703,-1.07813 0.48047,-0.48047 2.3125,-0.0508 -0.85547,-1.47656 0.21875,-0.16406 -0.22266,-0.36719 -0.0781,-0.15234 -0.10157,-0.16407 -0.16406,-0.21093 -0.20312,-0.36329 -0.0274,-0.28906 -0.008,-0.35547 z m 0,0"
         id="path41204" />
      <path
         style="fill:#000000;fill-opacity:1;fill-rule:nonzero;stroke:none"
         d="m 366.82031,340.32422 0.25391,0.0625 0.49609,0.25 -0.0742,0.28125 0.11719,0.37109 -0.15625,0.29688 0.0469,0.14453 0.26562,0.0117 0.23828,0.15625 0.0977,0.46093 0.17578,0.14063 0.71875,0.23437 -0.0977,-0.39843 -0.23437,-0.26563 -0.082,-0.1289 0.0273,-0.27735 0.19922,-0.12109 0.11719,-0.082 v -0.2461 l 0.0898,-0.54297 0.0742,-0.23828 0.19141,-0.10156 -0.0508,-0.17969 -0.0703,-0.18359 -0.0547,-0.19531 -0.0976,-0.26953 -0.17188,-0.22266 -0.23437,-0.17188 -0.32031,-0.0976 -0.25,-0.0195 -0.33985,0.0312 -0.22265,0.11718 -0.17579,0.14454 -0.14843,0.16796 c -0.004,0.004 -0.0937,0.16016 -0.11719,0.19532 -0.004,0.008 0.0156,-0.0156 -0.0547,0.1289 -0.0273,0.0547 -0.043,0.13672 -0.043,0.13672 l -0.0586,0.21094 z m 0,0"
         id="path41206" />
      <path
         style="fill:#000000;fill-opacity:1;fill-rule:nonzero;stroke:none"
         d="m 366.82031,340.32422 0.25391,0.0625 0.49609,0.25 -0.0742,0.28125 0.11719,0.37109 -0.15625,0.29688 0.0469,0.14453 0.26562,0.0117 0.23828,0.15625 0.0977,0.46093 0.17578,0.14063 0.71875,0.23437 -0.0977,-0.39843 -0.23437,-0.26563 -0.082,-0.1289 0.0273,-0.27735 0.19922,-0.12109 0.11719,-0.082 v -0.2461 l 0.0898,-0.54297 0.0742,-0.23828 0.19141,-0.10156 -0.0508,-0.17969 -0.0703,-0.18359 -0.0547,-0.19531 -0.0976,-0.26953 -0.17188,-0.22266 -0.23437,-0.17188 -0.32031,-0.0976 -0.25,-0.0195 -0.33985,0.0312 -0.22265,0.11718 -0.17579,0.14454 -0.14843,0.16796 c -0.004,0.004 -0.0937,0.16016 -0.11719,0.19532 -0.004,0.008 0.0156,-0.0156 -0.0547,0.1289 -0.0273,0.0547 -0.043,0.13672 -0.043,0.13672 l -0.0586,0.21094 z m 0,0"
         id="path41208" />
      <path
         style="fill:#000000;fill-opacity:1;fill-rule:nonzero;stroke:none"
         d="m 376.60937,340.44531 c 0.0156,0 -0.0156,-0.008 -0.0156,-0.008 l -0.0273,-0.0273 -0.0234,-0.0508 -0.0547,-0.11328 -0.004,-0.15234 0.0312,-0.13672 0.11329,-0.13672 0.14843,-0.0937 c 0,0 -0.0703,0.043 0.0625,-0.0586 0.12891,-0.10156 0.0937,-0.0312 0.15235,-0.0781 0.0625,-0.0469 0.19922,-0.0547 0.19922,-0.0547 l 0.14843,-0.10547 0.14453,-0.0352 0.17969,-0.0234 0.17188,-0.0117 0.0976,0.0234 c 0,0 0.043,-0.008 0.0703,0.004 0.0234,0.008 0.13281,0.0625 0.13281,0.0625 l 0.043,0.0781 c 0,0 0.0547,0.10547 0.10156,0.16407 0.0469,0.0586 0.0586,0.11328 0.0586,0.11328 0,0 -0.008,0.0273 0.004,0.0664 0.0117,0.043 0.004,0.043 0.008,0.10547 0.004,0.0625 0,0.14844 0,0.14844 l 0.0195,0.10156 0.0195,0.0899 c 0,0 0.0352,0.18359 0.0274,0.20312 -0.0117,0.0156 0.0234,-0.0117 0.0351,0.0508 0.008,0.0664 0.008,0.10156 0.008,0.10156 l 0.0273,0.10157 0.008,0.0859 0.25782,0.2461 -1.21094,0.76172 -0.16406,-0.26563 h -0.20313 l -0.125,0.0547 -0.15625,-0.008 -0.082,-0.0117 -0.0898,-0.0781 -0.082,-0.34765 -0.0469,-0.13672 -0.14453,-0.082 -0.0625,-0.008 0.20703,-0.5 -0.043,-0.0469 c -0.0391,0 0.0469,0.008 0.0586,0.008"
         id="path41210" />
      <path
         style="fill:#000000;fill-opacity:1;fill-rule:nonzero;stroke:none"
         d="m 376.60937,340.44531 c 0.0156,0 -0.0156,-0.008 -0.0156,-0.008 l -0.0273,-0.0273 -0.0234,-0.0508 -0.0547,-0.11328 -0.004,-0.15234 0.0312,-0.13672 0.11329,-0.13672 0.14843,-0.0937 c 0,0 -0.0703,0.043 0.0625,-0.0586 0.12891,-0.10156 0.0937,-0.0312 0.15235,-0.0781 0.0625,-0.0469 0.19922,-0.0547 0.19922,-0.0547 l 0.14843,-0.10547 0.14453,-0.0352 0.17969,-0.0234 0.17188,-0.0117 0.0976,0.0234 c 0,0 0.043,-0.008 0.0703,0.004 0.0234,0.008 0.13281,0.0625 0.13281,0.0625 l 0.043,0.0781 c 0,0 0.0547,0.10547 0.10156,0.16407 0.0469,0.0586 0.0586,0.11328 0.0586,0.11328 0,0 -0.008,0.0273 0.004,0.0664 0.0117,0.043 0.004,0.043 0.008,0.10547 0.004,0.0625 0,0.14844 0,0.14844 l 0.0195,0.10156 0.0195,0.0899 c 0,0 0.0352,0.18359 0.0274,0.20312 -0.0117,0.0156 0.0234,-0.0117 0.0351,0.0508 0.008,0.0664 0.008,0.10156 0.008,0.10156 l 0.0273,0.10157 0.008,0.0859 0.25782,0.2461 -1.21094,0.76172 -0.16406,-0.26563 h -0.20313 l -0.125,0.0547 -0.15625,-0.008 -0.082,-0.0117 -0.0898,-0.0781 -0.082,-0.34765 -0.0469,-0.13672 -0.14453,-0.082 -0.0625,-0.008 0.20703,-0.5 -0.043,-0.0469 c -0.0391,0 0.0469,0.008 0.0586,0.008"
         id="path41212" />
      <path
         style="fill:#000000;fill-opacity:1;fill-rule:nonzero;stroke:none"
         d="m 377.50391,341.67969 0.082,-0.32813 0.0976,-0.10937 0.10938,-0.10938 h 0.32812 l 0.21875,-0.21875 0.1836,-0.0351 -0.10938,-0.0742 -0.0391,-0.0352 -0.0352,-0.0352 0.0742,-0.18359 0.10938,0.10938 v 0.0742 l 0.73828,0.0391 0.4375,0.2539 h 0.14844 l 0.52343,-0.49218 0.45703,-0.23438 1.05469,0.72656 v 0.27344 l 0.94531,1.18359 -0.19921,0.4375 -0.4375,0.41797 0.27343,0.50782 v 0.20312 l 0.12891,0.34375 0.36328,0.21875 0.38281,0.81641 0.19922,0.65625 0.0937,0.52734 -0.27734,0.25391 -0.41797,0.10937 -0.0898,0.32813 -0.1211,0.23437 -0.11719,1.34375 0.17969,0.21875 0.69141,-0.004 0.19531,0.16796 0.49609,-0.11718 c 0,0 0.23047,-0.25782 0.42188,-0.30469 0.19141,-0.0469 0.56641,-0.0195 0.56641,-0.0195 l 0.13281,0.55859 -0.0742,0.12891 0.0508,0.30859 c 0,0 0.27344,0.39844 0.30078,0.51563 0.0274,0.11718 0.082,0.35547 0.082,0.51172 -0.004,0.15234 -0.0625,0.43359 -0.0625,0.43359 0,0 -0.40625,0.0469 -0.52734,-0.008 -0.12109,-0.0547 -0.29297,-0.32032 -0.33984,-0.39063 -0.0469,-0.0664 0.008,-0.50781 0.008,-0.50781 l -0.11719,-0.28516 -0.56641,0.0899 -0.33203,0.0508 -0.16797,0.40625 -0.47265,0.17969 -1.08594,0.38281 -0.56641,0.0469 -0.30078,-0.42187 -0.375,-1.66406 -0.41797,-1.11719 -1.17968,-0.13281 -1.01172,-0.37891 0.17187,0.79297 -0.0547,0.50781 0.13671,0.86719 0.0508,1.23828 0.0156,0.14844 -0.72656,-0.0312 -0.0156,-0.12891 -0.27343,0.0156 -0.23829,0.17578 -1.10937,-0.0586 -0.12109,-0.28906 0.1289,-0.14453 0.65625,-0.0625 0.51563,-0.53516 0.11328,-0.0898 -0.0977,-0.73047 -0.0898,-0.15625 -0.47266,-0.21875 -0.45312,-0.76953 -0.11719,-0.82031 -0.0703,-1.07813 0.48047,-0.48047 2.3125,-0.0508 -0.85157,-1.47656 0.21485,-0.16406 -0.21875,-0.36719 -0.082,-0.15234 -0.10157,-0.16407 -0.16406,-0.21093 -0.19922,-0.36329 -0.0273,-0.28906 -0.008,-0.35547 z m 0,0"
         id="path41214" />
      <path
         style="fill:#000000;fill-opacity:1;fill-rule:nonzero;stroke:none"
         d="m 377.50391,341.67969 0.082,-0.32813 0.0976,-0.10937 0.10938,-0.10938 h 0.32812 l 0.21875,-0.21875 0.1836,-0.0351 -0.10938,-0.0742 -0.0391,-0.0352 -0.0352,-0.0352 0.0742,-0.18359 0.10938,0.10938 v 0.0742 l 0.73828,0.0391 0.4375,0.2539 h 0.14844 l 0.52343,-0.49218 0.45703,-0.23438 1.05469,0.72656 v 0.27344 l 0.94531,1.18359 -0.19921,0.4375 -0.4375,0.41797 0.27343,0.50782 v 0.20312 l 0.12891,0.34375 0.36328,0.21875 0.38281,0.81641 0.19922,0.65625 0.0937,0.52734 -0.27734,0.25391 -0.41797,0.10937 -0.0898,0.32813 -0.1211,0.23437 -0.11719,1.34375 0.17969,0.21875 0.69141,-0.004 0.19531,0.16796 0.49609,-0.11718 c 0,0 0.23047,-0.25782 0.42188,-0.30469 0.19141,-0.0469 0.56641,-0.0195 0.56641,-0.0195 l 0.13281,0.55859 -0.0742,0.12891 0.0508,0.30859 c 0,0 0.27344,0.39844 0.30078,0.51563 0.0274,0.11718 0.082,0.35547 0.082,0.51172 -0.004,0.15234 -0.0625,0.43359 -0.0625,0.43359 0,0 -0.40625,0.0469 -0.52734,-0.008 -0.12109,-0.0547 -0.29297,-0.32032 -0.33984,-0.39063 -0.0469,-0.0664 0.008,-0.50781 0.008,-0.50781 l -0.11719,-0.28516 -0.56641,0.0899 -0.33203,0.0508 -0.16797,0.40625 -0.47265,0.17969 -1.08594,0.38281 -0.56641,0.0469 -0.30078,-0.42187 -0.375,-1.66406 -0.41797,-1.11719 -1.17968,-0.13281 -1.01172,-0.37891 0.17187,0.79297 -0.0547,0.50781 0.13671,0.86719 0.0508,1.23828 0.0156,0.14844 -0.72656,-0.0312 -0.0156,-0.12891 -0.27343,0.0156 -0.23829,0.17578 -1.10937,-0.0586 -0.12109,-0.28906 0.1289,-0.14453 0.65625,-0.0625 0.51563,-0.53516 0.11328,-0.0898 -0.0977,-0.73047 -0.0898,-0.15625 -0.47266,-0.21875 -0.45312,-0.76953 -0.11719,-0.82031 -0.0703,-1.07813 0.48047,-0.48047 2.3125,-0.0508 -0.85157,-1.47656 0.21485,-0.16406 -0.21875,-0.36719 -0.082,-0.15234 -0.10157,-0.16407 -0.16406,-0.21093 -0.19922,-0.36329 -0.0273,-0.28906 -0.008,-0.35547 z m 0,0"
         id="path41216" />
      <path
         style="fill:#000000;fill-opacity:1;fill-rule:nonzero;stroke:none"
         d="m 376.28906,340.32422 0.25391,0.0625 0.49609,0.25 -0.0742,0.28125 0.11719,0.37109 -0.15625,0.29688 0.0469,0.14453 0.26562,0.0117 0.23828,0.15625 0.10156,0.46093 0.17188,0.14063 0.71875,0.23437 -0.0937,-0.39843 -0.23828,-0.26563 -0.0781,-0.1289 0.0234,-0.27735 0.20313,-0.12109 0.11718,-0.082 v -0.2461 l 0.0859,-0.54297 0.0703,-0.23828 0.19922,-0.10156 -0.0508,-0.17969 -0.0742,-0.18359 -0.0547,-0.19531 -0.0976,-0.26953 -0.16797,-0.22266 -0.23828,-0.17188 -0.32031,-0.0976 -0.25,-0.0195 -0.33594,0.0312 -0.22656,0.11718 -0.17188,0.14454 -0.15234,0.16796 c -0.004,0.004 -0.0937,0.16016 -0.11719,0.19532 -0.004,0.008 0.0195,-0.0156 -0.0547,0.1289 -0.0273,0.0547 -0.043,0.13672 -0.043,0.13672 l -0.0586,0.21094 z m 0,0"
         id="path41218" />
      <path
         style="fill:#000000;fill-opacity:1;fill-rule:nonzero;stroke:none"
         d="m 376.28906,340.32422 0.25391,0.0625 0.49609,0.25 -0.0742,0.28125 0.11719,0.37109 -0.15625,0.29688 0.0469,0.14453 0.26562,0.0117 0.23828,0.15625 0.10156,0.46093 0.17188,0.14063 0.71875,0.23437 -0.0937,-0.39843 -0.23828,-0.26563 -0.0781,-0.1289 0.0234,-0.27735 0.20313,-0.12109 0.11718,-0.082 v -0.2461 l 0.0859,-0.54297 0.0703,-0.23828 0.19922,-0.10156 -0.0508,-0.17969 -0.0742,-0.18359 -0.0547,-0.19531 -0.0976,-0.26953 -0.16797,-0.22266 -0.23828,-0.17188 -0.32031,-0.0976 -0.25,-0.0195 -0.33594,0.0312 -0.22656,0.11718 -0.17188,0.14454 -0.15234,0.16796 c -0.004,0.004 -0.0937,0.16016 -0.11719,0.19532 -0.004,0.008 0.0195,-0.0156 -0.0547,0.1289 -0.0273,0.0547 -0.043,0.13672 -0.043,0.13672 l -0.0586,0.21094 z m 0,0"
         id="path41220" />
    </g>
  </g>
</svg>
