<?xml version="1.0" encoding="UTF-8" standalone="no"?>
<!-- Created with Inkscape (http://www.inkscape.org/) -->

<svg
   width="24.793089mm"
   height="6.0309305mm"
   viewBox="0 0 24.793089 6.0309305"
   version="1.1"
   id="svg4964"
   sodipodi:docname="inkporter-svg-g4cdpxrq.svg"
   xmlns:inkscape="http://www.inkscape.org/namespaces/inkscape"
   xmlns:sodipodi="http://sodipodi.sourceforge.net/DTD/sodipodi-0.dtd"
   xmlns="http://www.w3.org/2000/svg"
   xmlns:svg="http://www.w3.org/2000/svg">
  <sodipodi:namedview
     id="namedview4966"
     pagecolor="#ffffff"
     bordercolor="#666666"
     borderopacity="1.0"
     inkscape:pageshadow="2"
     inkscape:pageopacity="0.0"
     inkscape:pagecheckerboard="0"
     inkscape:document-units="mm"
     showgrid="false"
     inkscape:zoom="0.45291836"
     inkscape:cx="-220.79034"
     inkscape:cy="650.22756"
     inkscape:window-width="1920"
     inkscape:window-height="1017"
     inkscape:window-x="-8"
     inkscape:window-y="-8"
     inkscape:window-maximized="1"
     inkscape:current-layer="layer1" />
  <defs
     id="defs4961" />
  <g
     inkscape:label="Layer 1"
     inkscape:groupmode="layer"
     id="layer1"
     transform="translate(41.021096,-86.363222)">
    <g
       id="U-S-InfantryHQ"
       transform="translate(-311.59184,-330.78981)">
      <g
         id="g1237"
         transform="matrix(0.35277777,0,0,0.35277777,223.23933,370.61225)">
        <path
           style="fill:#211e1e;fill-opacity:1;fill-rule:nonzero;stroke:none"
           d="m 158.93541,141.86326 c -0.0781,0.0195 -0.0781,0.0195 -0.23829,0.0117 -0.16015,-0.0117 -0.74218,-0.11719 -0.83203,-0.15234 -0.0898,-0.0312 -0.85547,-0.44532 -0.9414,-0.52735 -0.0898,-0.0859 -0.83203,-0.5039 -0.9375,-0.5625 -0.10547,-0.0625 -0.14063,-0.12109 -0.14063,-0.12109 l 0.98438,-0.36328 c 0.0312,0.0586 0.0312,0.0586 0.0664,0.13281 0.0312,0.0742 0.13282,0.0742 0.17578,0.0234 0.043,-0.0508 0.0664,-0.0195 0.11719,0 0.0508,0.0156 0.0898,-0.008 0.10938,0 0.0234,0.004 0.0469,0.0273 0.11718,0.0156 0.0703,-0.0117 0.10547,0 0.1875,0.0234 0.0859,0.0195 0.0859,0.0195 0.14063,-0.0625 l 0.45312,1.32422 0.22657,-0.0625 c 0,0 0.23047,-0.0625 0.0117,-0.71484 0,0 0.21875,0.65234 0,0 0,0 -0.21485,-0.64844 -0.0703,-0.69532 0.14063,-0.0469 0.14063,-0.0469 0.29297,-0.0703 0.14844,-0.0195 0.29297,0.19141 0.30078,0.21484 l 0.0742,0.3125 c 0,0 0.0781,0.3125 0.004,0.65625 -0.0742,0.34375 -0.0742,0.34375 -0.10156,0.61719 m 5.01171,6.13281 c 0.0469,0.1211 0.34375,0.6875 0.35547,0.72266 0.0117,0.0312 0.22657,0.19922 0.60547,0.12109 0.375,-0.0781 0.6211,-0.22265 0.6211,-0.33203 0,-0.11328 -0.11719,-0.3789 -0.14063,-0.4375 -0.0234,-0.0547 -0.10547,-0.38672 -0.20703,-0.44531 -0.10938,-0.0547 -0.25391,-0.27734 -0.27344,-0.31641 -0.0234,-0.0391 -0.14062,-0.15234 -0.15625,-0.28515 -0.0156,-0.13281 -0.0117,-0.14453 -0.0508,-0.19922 -0.0391,-0.0547 0.0117,-0.12109 -0.0391,-0.1875 -0.0469,-0.0664 -0.15625,-0.11719 -0.10938,-0.22266 0.043,-0.10547 0.0156,-0.14453 0.0156,-0.21484 0,-0.0664 -0.0781,-0.63281 -0.13281,-0.77734 -0.0547,-0.14454 -0.0625,-0.375 -0.0508,-0.39454 0.0117,-0.0234 0.15235,-0.375 0.0508,-0.57031 -0.0977,-0.19531 -0.19922,-0.3789 -0.19922,-0.45703 0,-0.0742 -0.0156,-0.28906 -0.082,-0.35547 -0.0664,-0.0664 -0.15235,-0.125 -0.12891,-0.25 0.0234,-0.12109 -0.0312,-0.3125 -0.0508,-0.36328 -0.0156,-0.0469 0.0234,-0.12109 0.0195,-0.16016 -0.008,-0.0391 -0.0742,-0.25 -0.0625,-0.33593 0.0117,-0.082 -0.0391,-0.46094 -0.043,-0.48438 -0.008,-0.0195 -0.0508,-0.33203 -0.0469,-0.36719 0.004,-0.0312 0.17968,-0.17578 0.17187,-0.39062 -0.004,-0.21094 -0.004,-0.21094 -0.0977,-1.19141 0.0977,-0.14843 0.0977,-0.14843 0.0547,-0.30468 -0.0469,-0.15625 -0.16797,-0.58594 -0.1875,-0.75782 -0.0234,-0.17187 -0.10156,-0.44531 -0.28125,-0.48828 -0.17578,-0.0469 -0.26172,-0.0117 -0.33203,0.0391 -0.0625,0.0469 -0.0625,0.0469 -0.13281,0.11329 -0.11719,-0.25391 -0.11719,-0.25391 -0.0898,-0.32032 0.0195,-0.0664 0.0664,-0.14062 0.0195,-0.24609 -0.0508,-0.10547 -0.11719,-0.27734 -0.0664,-0.45703 0.0508,-0.17969 -0.082,-0.34375 -0.082,-0.38281 0,-0.0391 0.0156,-0.13672 -0.0195,-0.17969 -0.0312,-0.043 -0.0312,-0.043 -0.043,-0.082 0.16015,-0.10157 0.16015,-0.10157 0.27344,-0.0937 0.10937,0.004 0.27343,-0.0273 0.32421,-0.0703 0.0508,-0.043 0.10157,-0.0859 0.19922,-0.0703 0.10157,0.0156 0.39453,-0.0234 0.4961,-0.11328 0.10156,-0.0859 0.15625,-0.10547 0.37109,-0.125 0.21484,-0.0234 1.0625,-0.15625 1.14844,-0.23047 0.082,-0.0703 0.12109,-0.22265 0.12109,-0.27734 0,-0.0547 -0.0117,-0.17578 0.0937,-0.19922 0.10547,-0.0312 0.39844,-0.0781 0.44531,-0.23438 0.043,-0.15625 0.13282,-0.30078 0.17579,-0.42968 0.043,-0.12891 0.19921,-0.41407 0.27734,-0.48438 0.0781,-0.0703 0.15625,-0.19922 0.125,-0.2539 -0.0234,-0.0469 -0.0586,-0.12891 -0.12109,-0.0508 -0.0586,0.0781 -0.0586,0.0781 -0.3086,0.30469 l 0.1211,-0.3125 c 0.0117,-0.0273 0.15625,-0.26953 0.0937,-0.32422 -0.0586,-0.0547 -0.17188,0.0469 -0.17188,0.0469 l -0.13281,0.22656 c 0.17187,-0.42969 0.17187,-0.42969 0.10547,-0.45703 -0.0664,-0.0273 -0.082,-0.0469 -0.16016,0.0586 -0.0781,0.10547 -0.14062,0.25391 -0.18359,0.37891 -0.043,0.12109 -0.0547,0.043 -0.0117,-0.0898 0.0469,-0.13672 0.0625,-0.29688 -0.0156,-0.30079 -0.0781,-0.008 -0.14062,0 -0.16015,0.11719 -0.0234,0.11719 -0.19532,0.66016 -0.19922,0.6836 -0.004,0.0234 -0.0937,0.19531 -0.17969,0.13281 -0.082,-0.0625 -0.0937,-0.12891 -0.14844,-0.1836 -0.0547,-0.0547 -0.18359,-0.12109 -0.23437,-0.0703 -0.0469,0.0469 -0.0156,0.13672 0.0352,0.19141 0.0508,0.0586 0.0508,0.0586 0.15235,0.37109 -0.4336,0.13281 -0.4336,0.13281 -0.57422,0.13281 -0.14063,0 -0.29297,0.0195 -0.38281,0.0156 -0.0898,-0.004 -0.33203,-0.004 -0.3711,0.0234 -0.0391,0.0273 -0.1289,0.0547 -0.22656,0.0547 -0.10156,0 -0.30078,-0.0664 -0.40625,-0.0625 -0.10547,0.008 -0.18359,0.0625 -0.33203,0.0195 -0.14844,-0.0469 -0.28906,-0.0508 -0.39453,-0.0352 -0.10547,0.0156 -0.47266,-0.0937 -0.54297,-0.14453 -0.0703,-0.0508 -0.60547,-0.0937 -0.67969,-0.14063 -0.082,-0.043 -0.35547,-0.14453 -0.45312,-0.0781 -0.0898,0.0703 -0.23438,0.19531 -0.37891,0.14062 -0.14453,-0.0547 -0.27734,-0.16015 -0.27734,-0.16015 l -0.0391,-0.28516 c 0.20313,0.0508 0.20313,0.0508 0.26172,0.0898 0.0547,0.0391 0.0742,0.0312 0.0742,0.10938 0,0.0781 0,0.0781 0.0742,0.10156 0.0937,-0.0625 0.0937,-0.0625 0.0703,-0.16015 -0.0195,-0.10157 -0.0195,-0.10157 -0.0781,-0.14063 0.0195,0.0234 0.0195,0.0234 -0.0977,-0.0195 -0.11719,-0.0469 -0.11719,-0.0469 -0.1914,-0.12109 0.20312,-0.1875 0.20312,-0.1875 0.17968,-0.28125 -0.0234,-0.0937 -0.082,-0.14454 -0.15625,-0.19141 -0.0703,-0.043 -0.2539,-0.62891 -0.59765,-0.80859 -0.34375,-0.17579 -1.19141,-0.20704 -1.49219,0.35156 -0.34766,0.64844 0,1.33203 0.004,1.36719 0.008,0.0312 0.0312,0.17187 -0.0273,0.22265 -0.0547,0.0508 -0.0664,0.0664 -0.0352,0.0898 0.0234,0.0195 -0.15235,0.125 -0.15235,0.17187 0,0.043 0.0742,0.19531 -0.0156,0.17578 -0.0898,-0.0156 -0.25,-0.125 -0.30078,-0.0898 -0.0508,0.0391 -0.0586,0.0977 0.0234,0.13672 0.082,0.0391 0.0937,0.082 0.15625,0.11718 0.0586,0.0312 0.13672,0.043 0.17969,-0.043 0.0469,-0.082 0,-0.21485 0.125,-0.26954 0.12109,-0.0547 0.12109,-0.0547 0.25781,-0.21875 0.11719,0.0508 0.11719,0.0508 0.16797,0.0664 0.0508,0.0156 0.0781,0.0547 0.0859,0.0898 0.004,0.0352 -0.0469,0.19532 -0.0703,0.28516 -0.0195,0.0898 -0.0391,0.0977 -0.0977,0.15625 -0.0625,0.0547 -0.4375,0.55078 -0.47656,0.64063 -0.0391,0.0859 -0.14453,0.41015 -0.14453,0.63281 0,0.22265 0.0156,0.39844 -0.0937,0.74219 -0.11328,0.34375 -0.0391,0.36328 -0.008,0.38671 0.0352,0.0312 0.0664,0.16407 0.0391,0.1875 -0.0273,0.0195 -0.0703,0.0664 -0.0547,0.13282 0.0156,0.0664 -0.0234,0.13281 -0.043,0.16797 -0.0234,0.0312 0,0.0547 0.004,0.10546 0.004,0.0508 -0.0273,0.22657 -0.0273,0.22657 l -0.21093,0.22656 c -0.30079,-0.0586 -0.30079,-0.0586 -0.35157,-0.0312 -0.0469,0.0273 -0.29687,0.0898 -0.32031,0.15625 -0.0234,0.0664 -0.14844,0.24609 -0.13672,0.27734 0.0117,0.0352 0.0117,0.0352 -1.66406,0.62891 l -0.0859,-0.0977 -0.0859,0.0312 0.0117,0.125 -0.0586,0.0273 0.0664,0.14062 0.32812,-0.11328 0.10156,0.16016 0.30469,-0.0273 c 0.0469,0.13282 0.0469,0.13282 0.14844,0.19141 0.10156,0.0547 0.5,0.22266 0.80859,0.42969 0.3125,0.20312 0.60156,0.42187 0.79297,0.52734 0.19531,0.10547 0.87891,0.35547 1.14453,0.33984 0.26563,-0.0195 0.26563,-0.0195 0.31641,0 -0.10156,0.35938 -0.10156,0.35938 -0.12891,0.55079 -0.0273,0.1914 -0.34765,1.03515 -0.30078,1.13671 0.043,0.10938 0.0742,0.875 0.20313,0.97266 0.1289,0.10156 0.42578,1.02734 0.5039,1.125 0.14063,0.17188 0.45313,0.52734 0.45313,0.52734 l 0.25,0.39454 c 0,0 0.0586,0.0937 0.11718,0.11718 0.0547,0.0195 0.0352,0.13672 0.0742,0.1836 0.0391,0.043 0.0977,0.0977 0.0742,0.20312 -0.0234,0.10547 -0.0898,0.19141 -0.0781,0.21094 0.0117,0.0234 0.0117,0.0234 0.0234,0.0352 0,0 0.0156,0.0117 -0.0859,0.18359 -0.0977,0.17187 -0.0977,0.17187 -0.0977,0.22266 0,0.0508 -0.0469,0.15234 -0.0859,0.19531 -0.0391,0.043 -0.32031,0.22265 -0.36328,0.28515 -0.0469,0.0586 -0.10547,0.19922 -0.10547,0.25391 0,0.0586 0,0.0586 0.0117,0.14844 0,0 0.0117,0.0937 0.16406,0.16015 0.15625,0.0703 0.15625,0.0703 0.48047,0.0312 0.31641,-0.0391 0.64063,-0.26562 0.67188,-0.28906 0.0352,-0.0234 0.27344,-0.57422 0.27344,-0.57422 l 0.0742,0.0195 c 0,0 0.0742,0.0195 0.21094,-0.0937 0.13672,-0.11328 0.13672,-0.11328 0.13672,-0.21093 0,-0.0937 0.043,-0.22266 0.004,-0.375 -0.0352,-0.15625 0.008,-0.25 -0.0586,-0.34766 -0.0664,-0.0937 -0.0664,-0.0937 -0.125,-0.15625 0,0 -0.0547,-0.0586 -0.0781,-0.125 -0.0234,-0.0703 -0.0234,-0.0703 -0.125,-0.15234 -0.10156,-0.0859 -0.375,-1.47266 -0.375,-1.51563 0,-0.0469 -0.10938,-0.17578 -0.17188,-0.20312 -0.0625,-0.0273 0.10157,-0.41797 0.0234,-0.44532 -0.0781,-0.0273 0.0195,-0.42187 0.0195,-0.42187 0,0 0.0234,-0.30078 0.12891,-0.54297 0.0391,-0.082 -0.0664,-0.375 0.0586,-0.55859 0.12891,-0.1836 0.5,-1.07032 0.51172,-1.1211 0.0117,-0.0469 0.125,-0.16015 0.23438,-0.0703 0.10156,0.0898 0.008,0.20313 0.0664,0.30469 0.0547,0.10937 0.30469,0.22656 0.3086,0.36328 0.008,0.14062 0.16796,0.51172 0.2539,0.58594 0.0898,0.0703 0.0898,0.30078 0.0937,0.39453 0.008,0.0937 0.0195,0.3125 0.21094,0.49609 0.19531,0.1836 0.20703,0.45703 0.20703,0.50781 0,0.0469 -0.0352,0.29297 0.12891,0.4336 0.16015,0.14062 0.16015,0.14062 0.32422,0.33203 0,0 0.16796,0.19141 0.32812,0.53516 0.15625,0.33984 0.15625,0.33984 0.16797,0.41015 0.008,0.0625 0.0312,0.30469 0.11719,0.375 0.082,0.0742 0.17968,0.0898 0.17578,0.1836 -0.004,0.0937 -0.0586,0.16406 0.0117,0.17968 0.0703,0.0156 0.0703,0.0703 0.043,0.13282 -0.0273,0.0625 -0.0195,0.0469 0.0234,0.0937 0.043,0.0508 0.1211,0.22265 0.1211,0.30859 0,0.082 -0.0859,0.37109 -0.0781,0.42187 0.0117,0.0508 0.0391,0.125 0.0391,0.125"
           id="path13678" />
        <path
           style="fill:#211e1e;fill-opacity:1;fill-rule:nonzero;stroke:none"
           d="m 142.08594,141.51953 -0.28907,0.0937 -2.62109,-0.94922 -0.33594,-0.38672 -0.0156,-0.22656 1.23437,0.18359 0.15235,0.0586 c 0,0 0.15234,0.0625 0.62109,0.10156 0,0 -0.46875,-0.0391 0,0 0,0 0.46875,0.0391 0.48047,0.125 0.0117,0.0859 0.0117,0.0859 0.23437,0.19531 0.22266,0.10938 0.3086,-0.17578 0.3086,-0.17578 l 0.0586,0.1211 c 0,0 0.0586,0.125 0.0352,0.24218 -0.0156,0.11328 -0.0156,0.11328 -0.0195,0.19922 -0.004,0.0859 -0.004,0.0859 0.15625,0.41797 m -0.92578,0.28906 -0.0586,0.0742 c -0.15625,0.0352 -0.15625,0.0352 -0.20312,0.0312 -0.043,0 -0.16797,-0.0508 -0.22266,-0.0469 -0.0547,0.008 -0.0547,0.008 -0.8125,-0.4336 l -0.14062,-0.17578 z m 1.54296,1.15235 -0.0352,-0.3125 0.14453,-0.23047 0.25391,0.0937 0.0312,0.46875 0.16015,0.0234 0.23828,0.13281 0.0859,-0.0547 c 0.45703,0.46875 0.45703,0.46875 0.56641,0.60547 0.11328,0.13672 0.11328,0.13672 0.41015,0.14062 l -0.008,0.13282 z m -3.98437,5.49218 c -0.0352,0.0898 -0.008,0.17969 -0.008,0.17969 l -0.043,0.1211 c 1.27734,0.0625 1.27734,0.0625 1.6914,0.0195 0.34375,-0.0312 0.36329,-0.0859 0.36329,-0.10547 l 0.0469,0.13672 c 0.73047,-0.0156 0.73047,-0.0156 0.83984,-0.0312 0.10938,-0.0195 0.19141,-0.19141 0.11329,-0.42578 -0.0742,-0.23829 -0.0508,-0.27344 -0.11329,-0.46485 -0.0625,-0.1875 -0.18359,-0.71484 -0.0352,-1.07422 0.15234,-0.36328 0.15234,-0.36328 0.26562,-0.6289 0.17188,-0.0898 0.17188,-0.0898 0.23047,-0.1875 0.0586,-0.10157 0.26563,-0.57422 0.28516,-0.66797 0.0195,-0.0937 0.0312,-0.14844 0.0312,-0.14844 l 0.14844,-0.0781 c 0.49609,0.39843 0.49609,0.39843 0.66015,0.44921 0.16016,0.0547 0.4375,0.13282 0.4375,0.13282 l 0.0664,0.082 c -0.44922,0.92578 -0.44922,0.92578 -0.52344,1.21094 -0.0742,0.28515 -0.14062,0.73437 0.10156,0.85937 0.24219,0.125 0.63672,0.19531 0.9336,0.20703 0.29297,0.008 1.53125,-0.42969 1.53125,-0.42969 l -0.008,-0.14843 c 0.58594,-0.17578 0.58594,-0.17578 0.72657,-0.16407 0.14062,0.0156 0.48828,0.21485 0.53515,0.25391 0.043,0.0391 0.19922,0.0547 0.21094,0.14063 0.0117,0.0859 -0.082,0.13671 -0.12891,0.15234 -0.0469,0.0117 -0.4375,0.10547 -0.41015,0.36328 0.0312,0.26172 0.46094,0.36719 0.46094,0.36719 l 1.22265,-0.30469 c 0.32031,-0.35547 0.32031,-0.35547 0.32813,-0.55078 0.008,-0.19531 0.0742,-0.51172 -0.1875,-0.63672 -0.25782,-0.125 -0.25782,-0.125 -0.44532,-0.38281 0.80079,-1.07813 0.80079,-1.07813 0.83594,-1.23047 0.0352,-0.15625 0.0391,-0.42969 -0.0312,-0.50781 -0.0664,-0.082 -0.0664,-0.082 -0.125,-0.19141 l 0.0586,-0.16406 -0.3086,-0.15625 -0.11328,0.11719 c -0.32812,0.0508 -0.32812,0.0508 -0.42187,0.0898 -0.0937,0.0352 -0.0937,0.0352 -0.26172,0.10547 l 0.0508,-0.98828 -0.26563,-0.10938 c -0.22656,-1.09765 -0.22656,-1.09765 -0.54687,-1.72656 -0.32031,-0.625 -1.07031,-1.74219 -1.125,-1.79688 -0.0508,-0.0586 -0.34766,-0.39453 -0.57422,-0.38671 -0.22656,0.008 -0.22656,0.008 -0.49609,-0.0195 l -0.0586,-0.0937 -0.26953,-0.11718 -0.0898,-0.082 c -0.0859,-0.15235 -0.0859,-0.15235 -0.0781,-0.19141 0.008,-0.0391 0.0391,-0.20703 0.0391,-0.20703 l 0.16016,-0.10547 c -0.10547,-0.17188 -0.10547,-0.17188 -0.14453,-0.32422 -0.043,-0.14844 -0.35156,-1.27344 -1.21094,-1.10937 -0.85937,0.16406 -1.14453,0.73046 -1.17969,0.88671 -0.0352,0.15235 -0.0312,0.6836 -0.0391,0.73829 -0.0117,0.0547 -0.14844,0.26562 -0.14844,0.26562 l 0.47266,-0.0742 c 0.16406,0.21485 0.16406,0.21485 0.16016,0.28516 0,0.0703 0,0.0703 -0.0508,0.21484 l -0.13672,0.0898 -0.11719,-0.1836 -0.31641,-0.0586 -0.0234,-0.21875 -0.22266,-0.0234 -0.13672,0.0742 h -0.23047 l -0.082,0.0664 -0.41797,-0.0234 -0.16406,-0.0586 c 0,0 -0.16406,-0.0625 -1.16406,-0.125 l -3.52735,-0.23437 -0.0547,0.0273 -1.0625,-0.0508 c 0.0195,-0.25 0.0195,-0.25 -0.11329,-0.26953 -0.13281,-0.0195 -0.13281,-0.0195 -0.1875,0.26563 l -0.13281,-0.0117 -0.0273,0.35156 1.40625,0.11719 0.0781,0.0586 2,0.19531 c -0.008,0.26172 -0.008,0.26172 0.043,0.3125 0.0547,0.0469 0.0547,0.0469 0.80078,0.625 0.5625,0.76172 0.5625,0.76172 0.64453,0.91016 0.082,0.15234 0.082,0.15234 0.32813,0.41797 -0.0352,0.29687 -0.0352,0.29687 0,0.38281 0.0352,0.0859 0.0664,0.28906 0.16016,0.31641 l 0.15234,0.0469 0.0937,0.0742 c 0,0 0.0898,0.0781 0.15625,0.0742 0,0 -0.0664,0.004 0,0 0,0 0.0664,-0.008 0.14453,0.0898 0.0781,0.0977 0.0781,0.0977 0.16406,0.082 0.0859,-0.0117 0.0859,-0.0117 0.44922,-0.0195 0,0 0.36328,-0.004 0.11719,0.60157 -0.24609,0.60546 -0.24609,0.60546 -0.26563,0.69921 -0.0156,0.0937 -0.36718,0.85938 -0.22656,0.9961 0.14063,0.14062 0.34375,0.18359 0.31641,0.49609 -0.0273,0.3086 -0.17578,1.03516 -0.28906,1.20313 -0.11719,0.16797 -0.5,0.69922 -0.5,0.69922 0,0 -0.44922,0.42187 -0.60938,0.44531 -0.16406,0.0273 -0.16406,0.0273 -0.61328,0.1914"
           id="path13682" />
        <path
           id="path53251-2-5"
           style="fill:#000000;fill-opacity:1;fill-rule:nonzero;stroke:none;stroke-width:0.999998"
           d="m 152.47564,131.92717 c -0.53016,-6e-4 -0.91304,0.31524 -1.01069,0.52583 -0.12104,0.26957 -0.3985,0.54637 -0.3985,0.54637 0,0 0.17178,0.10205 0.26958,0.10999 0.0938,0.008 0.16696,0.0893 0.16696,0.0893 0,0 0.10204,0.35107 0.0513,0.42914 -0.0507,0.0819 -0.11707,0.24321 0,0.26674 0.11707,0.0198 0.14797,0.0615 0.14797,0.0615 l 0.0938,0.45414 0.13776,0.0587 c 0,0 -0.30517,0.18312 -0.32085,0.26533 -0.017,0.0782 -0.1406,0.30464 -0.1406,0.30464 0,0 -0.0663,0.22705 -0.32811,0.46139 -0.26164,0.23443 -0.43702,0.97223 -0.48781,1.24951 -0.0507,0.27723 -0.7349,1.31511 -0.7349,1.31511 -0.0728,0.035 -0.35872,0.32007 -0.37716,0.34791 -0.0174,0.0187 -0.39443,0.22032 -0.48888,0.26917 0,0 -0.43567,-0.0846 -0.49537,-0.0556 -0.0638,0.0307 0.11655,-0.1353 0.11655,-0.1353 l -0.0929,-0.15932 -0.15868,-0.0225 -0.14179,-0.096 -0.0914,0.0432 -0.12247,0.10739 -1.27383,0.6775 0.16111,0.35166 0.97119,-0.4608 c 0,0 -0.0557,0.12714 0.0357,0.17401 0.0875,0.0492 0.50221,0.42468 0.50221,0.42468 0,0 0.33913,-0.005 0.4306,-0.0487 0.0949,-0.0458 0.33532,-0.11521 0.33532,-0.11521 l 0.48083,-0.0981 c 0.15315,0.0485 0.19397,0.11099 0.34793,-0.0134 0.15419,-0.12384 0.59608,-0.35539 0.75923,-0.43252 0.0819,-0.039 -0.0899,-0.0195 0.0801,0.009 l 0.49507,1.47067 c 0,0 -0.0428,0.66405 0.009,0.99615 0.0507,0.32806 0.36329,1.13965 0.36329,1.13965 0,0 0.0584,0.46927 -0.0113,0.5786 -0.0743,0.10942 -0.71827,0.91449 -0.68701,1.15283 0.0283,0.24207 0.0346,0.90136 -0.0397,1.08104 -0.0703,0.18369 -0.17575,0.39504 -0.17575,0.50828 0,0.10942 -0.0198,0.39405 -0.0499,0.45264 -0.0284,0.0587 -0.12586,0.12983 -0.0227,0.25484 0.10545,0.125 0.13295,0.26872 0.11736,0.36623 -0.0113,0.0935 -0.10545,0.36763 -0.10545,0.36763 -0.10545,0.18737 -0.60151,0.74222 -0.66796,0.75002 -0.0663,0.008 -0.24151,-0.0788 -0.39404,0.0283 -0.15222,0.11339 -0.21884,0.0984 -0.2109,0.25058 0.008,0.15619 0.17972,0.39504 0.30464,0.4849 0.12501,0.0859 0.32814,0.15959 0.32814,0.15959 l 0.56542,-0.0142 0.0865,-0.0198 0.22706,0.0352 c 0,0 0.10828,-0.10913 0.16696,-0.24151 0.0587,-0.12897 0.0978,-0.30472 0.1406,-0.48053 0.0431,-0.17575 0.20352,-0.58589 0.20352,-0.58589 l 0.1012,-0.30906 0.33256,-0.38679 c 0,0 0.31297,0.0745 0.35595,-0.10091 0.0468,-0.17575 0.19927,-1.17675 0.19927,-1.2744 0,-0.0938 0.0822,-0.26079 0.0822,-0.26079 0,0 0.58932,0.84764 0.72215,1.00783 0.12898,0.16016 0.20381,0.40912 0.32077,0.48339 0.11707,0.0703 0.37794,0.10999 0.37794,0.10999 0,0 0.0754,0.53467 0.0323,0.62841 -0.0431,0.0938 -0.0442,0.2109 -0.24321,0.48044 -0.19531,0.27355 -0.37891,0.34427 -0.50386,0.34427 -0.12501,0 -0.25314,0.017 -0.28418,0.1406 -0.0283,0.12501 -0.0439,0.18453 -0.0439,0.18453 0,0 0.40283,0.23443 0.51996,0.23443 0.11707,0 0.57818,-0.0669 0.65625,-0.0746 0.0819,-0.009 0.26957,-0.0981 0.26957,-0.0981 l 0.10545,0.0394 0.0938,-0.0587 0.0513,0.0777 c 0,0 0.48433,-0.0283 0.5859,-0.0777 0.10148,-0.0507 0.085,-0.30909 0.085,-0.30909 l -0.14344,-0.48778 c 0,0 0.10148,-0.0899 0,-0.23443 -0.10148,-0.14853 -0.36039,-0.69627 -0.36039,-0.7236 0,-0.0312 -0.017,-0.60936 -0.017,-0.60936 0,0 0.20608,-0.36283 0.0967,-0.48779 -0.10942,-0.125 -0.50003,-0.66016 -0.52742,-0.78519 -0.0283,-0.12104 -0.46043,-0.94088 -0.42913,-1.10886 0.0283,-0.16781 -0.39113,-0.91412 -0.39113,-0.91412 0,0 -0.0859,-0.46973 0.0819,-0.74707 0.1681,-0.27723 0.36032,-0.0227 0.45406,0.0822 0.0938,0.10148 0.29985,0.19587 0.48345,-0.0661 0.17971,-0.26561 0.31246,-0.65962 0.26957,-0.88619 -0.0431,-0.22649 -0.038,-0.3369 -0.038,-0.3369 l 0.0306,-0.63287 c 0,0 -0.1491,-0.0541 -0.1919,-0.0541 -0.0431,0 -0.2418,-0.0513 -0.24152,-0.0513 0,0 -0.0357,-0.48824 -0.0629,-0.52733 -0.0312,-0.0351 0.16412,-0.36942 0.16412,-0.36942 0,0 0.31488,-0.27922 0.39221,-0.43935 0.0795,-0.16016 0.20427,-0.43802 0.20427,-0.43802 0.039,-0.2018 0.0932,0.0732 0.21005,-0.53221 0.11161,-0.34175 0.0662,-0.69684 0.0384,-0.79174 -0.0295,-0.0992 -0.1915,-1.02131 -0.21347,-1.0736 -0.022,-0.0523 -0.14517,-0.46893 -0.14517,-0.46893 0,0 -0.28085,-0.57864 -0.33942,-0.60214 -0.0587,-0.0227 -0.37944,-0.25427 -0.55525,-0.28559 -0.17574,-0.0284 -0.41062,-0.0811 -0.46139,-0.085 -0.0507,-0.008 -0.16781,-0.12557 -0.20665,-0.15675 -0.0351,-0.0284 -0.0587,-0.18737 -0.0587,-0.18737 0,0 -0.12841,-0.1406 -0.0541,-0.31644 0.0703,-0.17574 0.0938,-0.29293 0.0938,-0.29293 l 0.14343,-0.0198 c 0,0 -0.0499,-0.23528 -0.0615,-0.38378 -0.017,-0.14457 0.19588,-1.05075 -0.56985,-1.32421 -0.16837,-0.059 -0.3291,-0.0833 -0.47752,-0.0833 z"
           sodipodi:nodetypes="ccccccccccccsscccscccccccccccscccscccccccsccccscscccccccccccsccccscsccscccccccccscsccccccsccscccccccsccccscccccccc" />
      </g>
      <path
         d="m 295.29768,419.07118 c -0.0606,-0.12402 -0.23151,-0.52917 -0.24116,-0.56362 -0.011,-0.0358 -0.0841,-0.0896 -0.11851,-0.11575 -0.0344,-0.0248 -0.35415,-0.1764 -0.38585,-0.20533 -0.0317,-0.0303 -0.0758,-0.15572 -0.0758,-0.15572 l 0.0537,-0.0193 c 0,0 -0.0358,-0.0689 0.008,-0.14057 0.0441,-0.073 0.12678,-0.39274 -0.12265,-0.514 -0.24804,-0.12127 -0.48093,0.0468 -0.51401,0.0758 -0.0331,0.0276 -0.0965,0.12953 -0.13229,0.14056 -0.0344,0.011 -0.0868,0.022 -0.0868,0.022 0,0 0.0496,0.0386 0.0758,0.051 0.0262,0.0124 0.1006,0.0413 0.1006,0.0413 0,0 -0.0207,0.0413 -0.004,0.0648 0.0165,0.0248 0.0221,0.0524 10e-4,0.10473 -0.0207,0.0524 -0.0289,0.0744 0.001,0.0854 l 0.0372,0.0152 c 0,0 10e-4,0.0965 0.003,0.11162 0.001,0.0138 -0.01,0.0551 0.01,0.0675 0.0193,0.0124 0.0455,0.0276 0.0455,0.0276 0,0 -0.0923,0.13091 -0.11714,0.16537 -0.0262,0.0344 -0.0675,0.13643 -0.0675,0.13643 l 0.0372,0.007 c 0,0 -0.0689,0.0716 -0.0882,0.14055 -0.0193,0.0703 -0.0441,0.35003 -0.0537,0.39412 -0.011,0.0441 -0.0606,0.16675 -0.0606,0.16675 0,0 -0.11437,-0.022 -0.14883,-0.0441 -0.0344,-0.022 -0.051,0.0234 -0.051,0.0234 0,0 -0.1254,-0.0716 -0.15021,-0.073 -0.0262,-10e-4 -0.0482,0.0331 -0.0482,0.0331 l -0.26045,-0.0593 -0.0345,0.0179 -0.62288,-0.12401 c 0,0 0.003,-0.0427 -0.0262,-0.0551 -0.0303,-0.011 -0.0441,0.0331 -0.0441,0.0331 l -0.04,-0.007 -0.007,0.0441 0.59256,0.15434 c 0,0 -0.007,0.04 0.0482,0.0537 0.0551,0.0124 0.18329,0.0689 0.26872,0.15159 0.0868,0.0813 0.30868,0.35001 0.3266,0.3762 0.0165,0.0276 0.226,0.27422 0.2384,0.288 0.011,0.0138 0.0689,0.0482 0.0689,0.0482 l -0.12678,0.12266 0.0538,0.0317 c 0,0 -0.17226,0.63803 -0.15297,0.6463 0.0179,0.01 0.0193,0.0634 0.0179,0.0854 -0.001,0.0207 -0.0469,0.54293 -0.0716,0.58841 -0.0248,0.0455 -0.073,0.23702 -0.0661,0.30454 0.005,0.0689 -0.0689,0.5209 -0.0661,0.53882 10e-4,0.0179 0.01,0.226 0,0.29076 -0.008,0.0661 -0.0303,0.14056 -0.0303,0.14056 l 0.0455,0.0524 c 0,0 -0.0717,0.0537 -0.18466,0.0786 -0.113,0.0248 -0.1378,0.0634 -0.13643,0.0841 0.003,0.022 -0.0193,0.0524 -0.0193,0.0524 0,0 0.0579,0.0482 0.0937,0.0524 0.0372,0.004 0.36243,-0.0179 0.38723,-0.0207 0.0248,-10e-4 0.12127,-0.0579 0.12127,-0.0579 l 0.0179,0.0455 c 0,0 0.24667,-0.022 0.26321,-0.0344 0.0165,-0.0124 0.01,-0.24529 0.01,-0.24529 l 0.0358,0.004 -0.0124,-0.26183 c 0,0 0.14745,-0.7152 0.14607,-0.76895 -0.001,-0.0537 0.11576,-0.39136 0.15021,-0.4451 0.0358,-0.0537 0.0579,-0.0772 0.0579,-0.0772 0,0 0.0207,0.38309 0.0234,0.41479 0.003,0.0317 0.0152,0.0854 0.04,0.11575 0.0234,0.0303 0.13367,0.12403 0.10335,0.19568 -0.0289,0.0703 -0.0289,0.3514 -0.0165,0.37483 0.0138,0.0248 0.051,0.28663 0.0634,0.34313 0.0124,0.0565 -0.011,0.15572 -0.011,0.15572 l 0.0344,0.0551 c 0,0 -0.0606,0.091 -0.11713,0.10335 -0.0565,0.0124 -0.0441,0.11576 -0.0276,0.13229 0.0165,0.0165 0.0496,0.0276 0.0496,0.0276 0.15572,0.011 0.26321,-0.0276 0.34727,-0.0565 0.0841,-0.0289 0.18328,-0.0772 0.18328,-0.0772 l 0.006,-0.14469 c 0,0 0.0841,0.0138 0.0689,-0.0345 -0.0152,-0.0496 -0.004,-0.32109 -0.01,-0.37345 -0.004,-0.0537 0.0386,-0.50023 0.0372,-0.55397 -10e-4,-0.0537 -0.0524,-0.21498 -0.0717,-0.34589 -0.0193,-0.13229 -0.0661,-0.21773 -0.091,-0.29766 -0.0262,-0.0799 -0.022,-0.36518 0.01,-0.4079 0.0317,-0.0413 0.0634,-0.24942 0.0593,-0.30041 -0.006,-0.0496 -0.073,-0.24529 -0.0413,-0.29766 0.0303,-0.0537 -10e-4,-0.17225 -10e-4,-0.17225 l 0.0675,0.0331 0.12403,-0.30731 -0.2825,-0.13229 c 0,0 0.0799,-0.0358 0.17914,-0.0441 0.1006,-0.01 0.33073,-0.1199 0.3707,-0.23978 0.04,-0.11852 0.0165,-0.2136 -0.0455,-0.33762 m -1.47037,0.56637 c 0,0 -0.004,0.0744 -0.0234,0.13505 -0.0193,0.0592 -0.0772,0.2191 -0.0772,0.2191 0,0 -0.0648,-0.0455 -0.0923,-0.0716 -0.0276,-0.0262 -0.23564,-0.2949 -0.29214,-0.35416 -0.0551,-0.0606 -0.1943,-0.28112 -0.1943,-0.28112 l 0.0923,0.0165 0.011,0.0524 c 0,0 0.0524,0.0675 0.062,0.0813 0.008,0.0138 0.11714,0.0648 0.14194,0.0593 0.0248,-0.006 0.073,0.0551 0.0951,0.0661 0.0234,0.0124 0.10887,0.0923 0.13781,0.0882 z m -1.63159,-0.0896 -0.0744,-0.006 c 0,0 -0.0427,-0.13505 -0.0537,-0.14331 -0.0124,-0.008 -0.0262,-0.0593 -0.0152,-0.0951 0.0124,-0.0372 -0.15158,-0.33899 -0.20808,-0.42857 -0.0565,-0.0896 -0.19431,-0.28388 -0.22463,-0.32384 -0.0317,-0.0386 -0.2191,-0.16261 -0.33761,-0.20808 -0.11851,-0.0455 -0.24805,-0.10197 -0.24805,-0.10197 l -0.0675,-0.062 c 0,0 0.0565,-0.008 0.0331,-0.0331 -0.022,-0.0248 -0.0648,-0.16674 -0.073,-0.20809 -0.008,-0.0427 -0.062,-0.38309 -0.37897,-0.36104 -0.31832,0.0234 -0.39412,0.17776 -0.4203,0.22875 -0.0248,0.051 -0.0785,0.2136 -0.0923,0.24116 -0.0138,0.0289 -0.0482,0.0799 -0.0482,0.0799 l 0.17501,0.062 c 0,0 0.0138,0.0413 0.003,0.0703 -0.011,0.0275 -0.0317,0.0896 0.008,0.0923 0.04,0.003 0.0538,0.0193 0.0538,0.0193 l 0.003,0.062 0.0331,0.0565 c 0,0 0.0289,0.10473 0.062,0.10473 0.0345,0 0.0813,-0.0345 0.12402,-0.0138 0.0427,0.0193 0.062,0.0331 0.062,0.0331 0,0 -0.0248,0.0165 -0.008,0.051 0.0165,0.033 0.0593,0.113 0.0593,0.113 0,0 -0.0276,0.23289 -0.0276,0.26045 0,0.0289 0.0248,0.19706 0.0248,0.32384 0,0.12677 0.003,0.14745 0.003,0.14745 0,0 -0.0427,0 -0.0317,0.0469 0.0124,0.0482 0.004,0.073 0.004,0.073 0,0 -0.15572,0.0289 -0.16123,0.0179 -0.006,-0.0124 -0.113,-0.10473 -0.1323,-0.0937 -0.0193,0.011 -0.0455,0.011 -0.0455,0.011 0,0 -0.0841,-0.0469 -0.11162,-0.0524 -0.0289,-0.005 -0.0427,-0.0124 -0.0427,-0.0124 l -0.3073,-0.30041 0.0207,-0.0372 -0.0427,-0.0413 -0.0248,0.022 -0.0455,0.0289 0.30455,0.31695 c 0,0 -0.01,0.0482 0.0138,0.073 0.022,0.0262 0.0537,0.0854 0.0537,0.0854 0,0 0.0138,0.0579 0.0193,0.0758 0.005,0.0165 -0.0138,0.0758 0,0.10335 0.0138,0.0289 0.0841,0.0992 0.0841,0.0992 0,0 0.0813,0.28112 0.0965,0.57189 0.0138,0.28938 0.21084,0.88607 0.2949,0.93706 0.0841,0.0496 0.19706,0.1571 0.19706,0.1571 0,0 0.0165,0.23702 0.0248,0.31281 0.01,0.0758 0.0179,0.18466 0,0.25907 -0.0165,0.073 -0.0331,0.12678 -0.008,0.13781 0.0262,0.011 0.0786,0.0331 0.0786,0.0331 0,0 0.0675,0.19982 0.062,0.24529 -0.005,0.0455 -0.18879,0.28388 -0.21911,0.2949 -0.0303,0.0124 -0.2508,0.0345 -0.28111,0.0565 -0.0317,0.022 -0.0345,0.0537 -0.0345,0.0537 l -0.022,0.0345 c 0,0 -0.008,0.0138 0.0427,0.0358 0.0496,0.022 0.30592,0.062 0.39136,0.0537 0.0841,-0.008 0.19569,-0.0345 0.19569,-0.0345 l 0.0344,0.0179 0.27285,0.003 v -0.0565 c 0,0 0.0372,-0.0785 0.0193,-0.10749 -0.0165,-0.0276 -0.0441,-0.16812 -0.0358,-0.22737 0.008,-0.0593 0.0537,-0.32935 0.0537,-0.32935 0,0 0.10335,-0.0289 0.0868,-0.0937 -0.0165,-0.0634 -0.0248,-0.22738 -0.011,-0.27285 0.0138,-0.0441 0.0455,-0.10887 0.0455,-0.10887 0,0 0.28387,0.35416 0.31419,0.38861 0.0317,0.0331 0.17501,0.21084 0.19981,0.2136 0.0262,0.003 0.12127,0.011 0.12127,0.011 0,0 0.0565,0.113 0.0427,0.13229 -0.0138,0.0193 -0.0675,0.14332 -0.0648,0.15986 0.003,0.0165 -0.11851,0.113 -0.17225,0.11575 -0.0537,0.003 -0.13505,0.003 -0.12954,0.051 0.005,0.0482 0.003,0.0868 0.003,0.0868 0.062,0.0289 0.32935,0.0896 0.41617,0.0703 0.0882,-0.0193 0.17225,-0.0813 0.17225,-0.0813 l 0.0537,0.0138 0.16536,-0.0413 -0.003,-0.0937 c 0,0 0.0317,-0.0648 0.0234,-0.0896 -0.008,-0.0262 0.022,-0.0289 -0.011,-0.0854 -0.0344,-0.0551 -0.11576,-0.21911 -0.14194,-0.28663 -0.0248,-0.0675 -0.0579,-0.17915 -0.0579,-0.17915 0,0 0.10059,-0.0455 0.0634,-0.11851 -0.0358,-0.073 -0.19017,-0.29076 -0.20808,-0.30179 -0.0165,-0.011 -0.0331,-0.0648 -0.0469,-0.0758 -0.0138,-0.011 -0.0827,-0.0675 -0.0786,-0.10749 0.003,-0.0386 0.0689,-0.1378 0.0551,-0.18465 -0.0138,-0.0482 0.0317,-0.57189 0.0317,-0.60221 0,-0.0317 0.0248,-0.38034 0.0221,-0.40376 -0.003,-0.0221 0.0909,-0.23841 0.0909,-0.23841 0,0 0.17639,0.006 0.22462,-0.0482 0.0482,-0.0538 0.0923,-0.12403 0.0868,-0.22462 -0.006,-0.10198 0.008,-0.25356 -0.0138,-0.29628 -0.022,-0.0413 -0.0758,-0.0648 -0.1006,-0.051 -0.0262,0.0152 -0.0648,-0.1006 -0.12126,-0.0758 -0.0565,0.0262 -0.0675,0.0482 -0.0675,0.0482 z m -1.61506,0.84749 0.0455,0.12403 c 0.011,0.0303 0.113,0.062 0.113,0.062 l 0.10335,0.24115 c 0,0 -0.0165,0.11576 -0.0165,0.15297 0,0.0358 -0.073,0.26182 -0.091,0.3321 -0.0165,0.0703 -0.022,0.17639 -0.022,0.22738 0,0 -0.0248,-0.0275 -0.113,-0.0896 -0.0868,-0.062 -0.11713,-0.16123 -0.1378,-0.18328 -0.0193,-0.0221 -0.13505,-0.39412 -0.15434,-0.44235 -0.0193,-0.0469 -0.0593,-0.36794 -0.0565,-0.44924 0.003,-0.0827 -0.0455,-0.39412 -0.0455,-0.39412 0,0 0.0345,0.011 0.0593,0.011 0.0262,0 0.0482,-0.005 0.0482,-0.005 l 0.0923,0.10335 -0.12265,0.19431 0.0923,0.0909 0.0358,0.005 0.113,-0.14608 c 0,0 0.0827,0.0813 0.073,0.0978 -0.008,0.0165 -0.0165,0.0675 -0.0165,0.0675 m 0.34589,-0.41341 -0.14056,0.2384 -0.15158,-0.14883 z m -1.42765,-0.69591 c 0.0661,-0.0496 0.0661,-0.18053 0.0413,-0.2136 -0.0262,-0.0345 -0.18603,-0.32797 -0.20395,-0.34588 -0.0179,-0.0179 -0.12126,-0.1447 -0.12126,-0.1447 0,0 -0.22738,-0.29352 -0.24805,-0.30179 -0.0207,-0.008 -0.13367,-0.0896 -0.19568,-0.1006 -0.062,-0.01 -0.1447,-0.0289 -0.16261,-0.0303 -0.0179,-0.003 -0.0593,-0.0441 -0.073,-0.0551 -0.0124,-0.01 -0.0207,-0.0661 -0.0207,-0.0661 0,0 -0.0455,-0.0496 -0.0193,-0.11162 0.0248,-0.062 0.0331,-0.10335 0.0331,-0.10335 l 0.051,-0.007 c 0,0 -0.0179,-0.0827 -0.022,-0.13505 -0.006,-0.051 0.0689,-0.37069 -0.2012,-0.46716 -0.27147,-0.0951 -0.48093,0.0606 -0.52503,0.15572 -0.0427,0.0951 -0.14056,0.19293 -0.14056,0.19293 0,0 0.0606,0.0358 0.0951,0.0386 0.0331,0.003 0.0593,0.0317 0.0593,0.0317 0,0 0.0358,0.12403 0.0179,0.15159 -0.0179,0.0289 -0.0413,0.0854 0,0.0937 0.0413,0.007 0.0524,0.022 0.0524,0.022 l 0.0331,0.15986 0.0482,0.0207 c 0,0 -0.10748,0.0648 -0.11299,0.0937 -0.006,0.0276 -0.0496,0.10748 -0.0496,0.10748 0,0 -0.0234,0.0799 -0.11576,0.16261 -0.0923,0.0827 -0.15434,0.34313 -0.17225,0.44097 -0.0179,0.0978 -0.0675,0.27975 -0.0675,0.27975 l -0.32521,0.0455 -1.04456,0.15021 -0.007,0.0276 -0.34175,0.0413 c 0,0 -0.0152,-0.0827 -0.0358,-0.0772 -0.0207,0.006 -0.0179,0.0854 -0.0179,0.0854 l -0.0882,0.0179 0.003,0.0386 0.0496,0.005 0.007,0.0331 0.42857,-0.0592 0.0234,0.0234 0.61461,-0.0744 c 0,0 0.32384,0.40238 0.48231,0.4768 0.1571,0.0744 0.58016,0.23978 0.58016,0.23978 0,0 -0.0152,0.23426 0.003,0.3514 0.0179,0.11575 0.12815,0.40239 0.12815,0.40239 0,0 0.0207,0.16536 -0.004,0.20394 -0.0262,0.0386 -0.25356,0.32246 -0.24254,0.40653 0.01,0.0854 0.0124,0.31832 -0.0138,0.38171 -0.0248,0.0648 -0.062,0.13918 -0.062,0.17915 0,0.0386 -0.007,0.13918 -0.0179,0.15985 -0.01,0.0207 -0.0441,0.0455 -0.008,0.0896 0.0372,0.0441 0.0469,0.0951 0.0413,0.12954 -0.004,0.033 -0.0372,0.12953 -0.0372,0.12953 -0.0372,0.0661 -0.21222,0.26183 -0.23565,0.26459 -0.0234,0.003 -0.0854,-0.0276 -0.13918,0.01 -0.0537,0.04 -0.0772,0.0345 -0.0744,0.0882 0.003,0.0551 0.0634,0.13918 0.10749,0.17088 0.0441,0.0303 0.11576,0.0565 0.11576,0.0565 l 0.19981,-0.005 0.0303,-0.007 0.0799,0.0124 c 0,0 0.0386,-0.0386 0.0593,-0.0854 0.0207,-0.0455 0.0345,-0.10748 0.0496,-0.16949 0.0152,-0.062 0.0717,-0.20671 0.0717,-0.20671 l 0.0358,-0.10886 0.11714,-0.13643 c 0,0 0.11024,0.0262 0.1254,-0.0358 0.0165,-0.062 0.0703,-0.41479 0.0703,-0.44924 0,-0.0331 0.0289,-0.0923 0.0289,-0.0923 0,0 0.20808,0.29904 0.25493,0.35554 0.0455,0.0565 0.0717,0.14469 0.113,0.17087 0.0413,0.0248 0.13367,0.0386 0.13367,0.0386 0,0 0.0262,0.18879 0.011,0.22186 -0.0152,0.0331 -0.0152,0.0744 -0.0854,0.1695 -0.0689,0.0965 -0.13367,0.12127 -0.17776,0.12127 -0.0441,0 -0.0896,0.006 -0.1006,0.0496 -0.01,0.0441 -0.0152,0.0648 -0.0152,0.0648 0,0 0.14194,0.0827 0.18328,0.0827 0.0413,0 0.20395,-0.0234 0.23151,-0.0262 0.0289,-0.003 0.0951,-0.0345 0.0951,-0.0345 l 0.0372,0.0138 0.0331,-0.0207 0.0179,0.0276 c 0,0 0.17087,-0.01 0.2067,-0.0276 0.0358,-0.0179 0.0303,-0.10887 0.0303,-0.10887 l -0.051,-0.17225 c 0,0 0.0358,-0.0317 0,-0.0827 -0.0358,-0.0524 -0.12678,-0.24529 -0.12678,-0.25494 0,-0.011 -0.006,-0.21498 -0.006,-0.21498 0,0 0.073,-0.12815 0.0344,-0.17225 -0.0386,-0.0441 -0.17639,-0.23289 -0.18604,-0.27699 -0.01,-0.0427 -0.16261,-0.3321 -0.15158,-0.39136 0.01,-0.0592 -0.13781,-0.32246 -0.13781,-0.32246 0,0 -0.0303,-0.16537 0.0289,-0.26321 0.0593,-0.0978 0.12678,-0.008 0.15985,0.0289 0.0331,0.0358 0.10611,0.0689 0.17088,-0.0234 0.0634,-0.0937 0.11024,-0.23289 0.0951,-0.31282 -0.0152,-0.0799 -0.0138,-0.11851 -0.0138,-0.11851 l 0.011,-0.22324 c 0,0 -0.0524,-0.0193 -0.0675,-0.0193 -0.0152,0 -0.0854,-0.0179 -0.0854,-0.0179 0,0 -0.0124,-0.17225 -0.022,-0.18604 -0.011,-0.0124 -0.006,-0.1626 -0.006,-0.1626 0,0 0.10887,-0.13092 0.1571,-0.18741 0.0496,-0.0565 0.12127,-0.18053 0.12127,-0.18053 0,0 0.30179,-0.0772 0.36931,-0.12678 m -1.7129,0.53468 c 0.01,0.0634 -0.0703,0.21084 -0.0703,0.21084 0,0 -0.3638,-0.13642 -0.46716,-0.18328 -0.10197,-0.0469 -0.37896,-0.35829 -0.41203,-0.39412 l 0.12678,-0.0262 0.004,0.0303 0.12954,0.0648 c 0,0 0.15158,0.0165 0.28112,-0.005 0.12953,-0.0193 0.3197,-0.04 0.34864,-0.0427 0.0275,-0.003 0.0248,0.0661 0.0331,0.13367 0.008,0.0675 0.0152,0.14745 0.0262,0.21222"
         id="path53251-2" />
    </g>
  </g>
</svg>
