<?xml version="1.0" encoding="UTF-8" standalone="no"?>
<!-- Created with Inkscape (http://www.inkscape.org/) -->

<svg
   width="12.83582mm"
   height="7.4756498mm"
   viewBox="0 0 12.83582 7.4756498"
   version="1.1"
   id="svg71253"
   sodipodi:docname="inkporter-svg-s4ohcx78.svg"
   xmlns:inkscape="http://www.inkscape.org/namespaces/inkscape"
   xmlns:sodipodi="http://sodipodi.sourceforge.net/DTD/sodipodi-0.dtd"
   xmlns="http://www.w3.org/2000/svg"
   xmlns:svg="http://www.w3.org/2000/svg">
  <sodipodi:namedview
     id="namedview71255"
     pagecolor="#ffffff"
     bordercolor="#666666"
     borderopacity="1.0"
     inkscape:pageshadow="2"
     inkscape:pageopacity="0.0"
     inkscape:pagecheckerboard="0"
     inkscape:document-units="mm"
     showgrid="false"
     inkscape:zoom="0.64052329"
     inkscape:cx="397.33138"
     inkscape:cy="561.25984"
     inkscape:window-width="2400"
     inkscape:window-height="1271"
     inkscape:window-x="-9"
     inkscape:window-y="-9"
     inkscape:window-maximized="1"
     inkscape:current-layer="layer1" />
  <defs
     id="defs71250" />
  <g
     inkscape:label="Layer 1"
     inkscape:groupmode="layer"
     id="layer1"
     transform="translate(-88.17597,-97.05216)">
    <path
       d="m 97.97333,103.35096 c 0.0275,0.11989 0.0799,0.23289 0.14883,0.32935 l 0.32384,-0.32935 z m 0.35553,0.53881 c 0.0413,0.0317 0.0854,0.0579 0.13229,0.0813 h 0.17226 l 0.003,0.0675 c 0.0289,0.007 0.0579,0.0138 0.0882,0.0179 v -0.57051 z m 0.68627,0.16675 c 0.14607,-0.0234 0.28112,-0.0813 0.39549,-0.16675 l -0.39549,-0.40376 z m 0.6022,-0.37621 c 0.0827,-0.11713 0.14056,-0.25493 0.16399,-0.40376 h -0.27561 c 0,0.0469 -0.0276,0.0744 -0.062,0.0744 H 99.2935 Z m 0.16399,-0.70004 c -0.0234,-0.14883 -0.0813,-0.28663 -0.16399,-0.40376 l -0.30593,0.31143 h 0.1323 c 0.0345,0 0.062,0.0289 0.062,0.0634 v 0.0289 z m -0.3707,-0.61323 c -0.073,-0.0537 -0.15572,-0.0965 -0.24253,-0.12816 l -0.0262,0.0758 -0.12678,0.3886 v 0.0675 z m -0.005,-0.81579 c 0,0 -0.0896,0.25769 0.6146,0.55121 0.70418,0.29214 0.26321,2.42535 -1.18649,2.42535 h -8.20622 c -0.22324,0 -0.54845,-0.11851 -0.70004,-0.19568 -0.15709,-0.0799 -1.25952,-0.95912 -1.43316,-1.19614 -0.20808,-0.28112 -0.25218,-0.76895 -0.0758,-1.0983 h -0.24254 c 0.073,-0.24115 0.073,-0.24115 0.21911,-0.42581 0.1447,-0.18466 0.45338,-0.3514 0.63528,-0.38861 0.0179,-0.003 0.0496,-0.007 0.091,-0.0124 v -0.57877 h 0.0179 c 0.13918,0 0.25632,0.0923 0.2949,0.22186 h 0.0496 v 0.3266 c 0.13091,-0.008 0.27561,-0.0179 0.41755,-0.0262 v -0.16674 c 0,-0.0221 0.0179,-0.0414 0.0413,-0.0414 h 0.37207 c 0.0234,0 0.04,0.0193 0.04,0.0414 v 0.14056 l 0.27285,-0.0152 v -0.27836 h 1.21543 l 0.0689,-0.44374 h -0.28525 v -0.18465 h 0.31281 l 0.0496,-0.33349 0.26183,-0.30179 h -0.11162 v -0.14194 h -0.14469 v 0.0813 l -0.2577,-0.0813 h -0.27748 l -0.12678,-0.18879 v -0.11989 l 0.10059,-0.14193 h -0.85851 v -0.0248 c 0,0 0,-0.0248 -0.35278,-0.0248 h -1.75286 v -0.0744 c 0,0 0,-0.0744 0.35277,-0.0744 h 1.75287 v -0.051 h 0.94395 v -0.0592 l 0.0992,-0.14194 h 0.15848 l 0.1378,-0.30179 h 0.22462 v 0.16123 h 0.21773 v -0.24943 h 0.12678 l 0.011,-0.0799 0.84611,-0.26321 h 0.7593 v 0.17227 h -0.13918 v -0.30179 h 0.29765 v 0.04 c 0,0 0,0.04 0.35278,0.04 h 1.29123 v -0.28939 h 0.11851 v -0.0303 c 0,0 0,-0.0303 -0.35278,-0.0303 h -1.20441 v -0.0813 c 0,0 0,-0.0799 0.35278,-0.0799 h 1.20441 v -0.10059 h 0.80477 v -0.0813 h 0.25769 v 0.0813 h 0.04 v 0.16123 h 0.16536 l 0.0854,-0.001 c 0.022,0 0.0413,0.0193 0.0413,0.0427 v 0.2136 c 0,0.0234 -0.0193,0.0427 -0.0413,0.0427 h -0.0813 c -0.0234,0 -0.0413,-0.0193 -0.0413,-0.0427 v -0.13367 h -0.12816 v 0.0799 H 96.977 c 0.003,0.01 0.004,0.0207 0.004,0.0317 v 0.14056 c 0,0.0579 -0.0455,0.10473 -0.10197,0.10473 h -0.2384 v 0.0896 c 0,0.0579 -0.0455,0.10473 -0.10198,0.10473 h -0.37619 c -0.0124,0 -0.0248,-0.003 -0.0358,-0.007 v 0.5085 h -0.14608 v 0.24116 h 0.10612 v 0.38998 h -0.10612 v 0.36657 h 0.18329 v 0.14745 h 0.0551 v 0.10887 h 0.10886 v -0.0703 h 0.091 v -0.13092 h 0.25356 v 0.13092 h 0.073 v -0.18604 h 0.10886 v -0.073 h 0.10887 v 0.073 h 0.091 v 0.0744 h 0.10886 v 0.11162 h 0.25356 v -0.35278 h 0.14607 v 0.11162 h 0.0909 v -0.0923 h 0.59807 v 0.39826 c 0.71383,0 1.32568,10e-4 1.41663,0.008 0.23564,0.0179 0.47266,0.0923 0.70831,0.25907 0.23564,0.16675 0.23564,0.16675 0.25356,0.29628 v 0.2577 h 0.27836 c 0.0579,0 0.10335,0.0469 0.10335,0.1061 v 0.3266 c 0,0.0579 -0.0455,0.10473 -0.10335,0.10473 h -0.27836 v 0.14745 l -0.97979,-0.32659 v 0.29352 h 0.29215 l 0.48782,0.4768 -0.0717,0.0744 -0.4575,-0.44648 h -0.4079 z m -0.75655,2.7671 h 0.17639 c -0.0606,-0.01 -0.11989,-0.0152 -0.17776,-0.0276 z m -0.37895,0 h 0.17639 l 0.004,-0.0854 c -0.0661,-0.0262 -0.12815,-0.0579 -0.18741,-0.0951 z m -1.50069,0 h 0.17777 l 0.0138,-0.34727 h 0.17224 l 0.0138,0.34727 h 0.16536 l 0.0138,-0.34727 h 0.17363 l 0.0138,0.34727 h 0.17776 l 0.0138,-0.34727 h 0.17225 l 0.0152,0.34727 h 0.17639 l 0.0138,-0.31971 c -0.18052,-0.1695 -0.3073,-0.39412 -0.35415,-0.64768 h -0.78273 c 0.0248,0.0758 0.0386,0.15572 0.0386,0.23978 0,0.21084 -0.0854,0.40239 -0.22186,0.53881 z m -0.32384,0 h 0.0606 c 0,0 0.062,0 0.0634,-0.0248 0,0 -0.001,0.0248 0,0 0,0 0,-0.0248 -0.0193,-0.0138 -0.0193,0.01 -0.0606,0.0262 -0.10473,0.0386 m -0.43271,0 h 0.0234 l -0.0234,-0.007 z m -0.37758,0 h 0.17639 l 0.004,-0.10749 c -0.0758,-0.0537 -0.14194,-0.12127 -0.19431,-0.20119 z m -0.75655,0 h 0.17639 l 0.0138,-0.34727 h 0.17363 l 0.0138,0.34727 h 0.17639 l 0.0138,-0.34727 h 0.15159 c -0.0634,-0.11162 -0.1006,-0.24115 -0.1006,-0.38033 0,-0.0276 0.001,-0.0565 0.006,-0.0841 h -0.0496 c -0.0537,0.0675 -0.13504,0.11025 -0.22599,0.11025 -0.091,0 -0.17088,-0.0427 -0.22462,-0.11025 h -0.0441 c 0.004,0.0276 0.004,0.0565 0.004,0.0841 0,0.13918 -0.0345,0.26871 -0.0992,0.38033 z m -0.37895,0 h 0.17776 l 0.004,-0.13367 c -0.0537,0.0441 -0.11575,0.0813 -0.18328,0.10749 z m -0.77997,0 h 0.17639 l 10e-4,-0.0455 c -0.0675,-0.0331 -0.13092,-0.0786 -0.18466,-0.13091 z m -0.37896,0 h 0.17776 l 0.0138,-0.34727 h 0.0455 c -0.0634,-0.11162 -0.10059,-0.24115 -0.10059,-0.38033 0,-0.14194 0.0386,-0.27424 0.1061,-0.38861 h -0.42719 c 0.0675,0.11437 0.10611,0.24667 0.10611,0.38861 0,0.13918 -0.0372,0.26871 -0.10059,0.38033 h 0.16536 z m -0.37759,0 h 0.17639 l 0.0138,-0.33349 c -0.051,0.0841 -0.11714,0.15848 -0.19569,0.21635 z m -0.23978,0 h 0.0386 z m -0.51676,0 h 0.10749 c -0.0372,-0.011 -0.0744,-0.0248 -0.10887,-0.0413 z m -1.14653,0 h 0.18879 l 0.0138,-0.34727 h 0.17225 l 0.0152,0.34727 h 0.17639 l 0.0138,-0.34727 h 0.17363 l 0.0138,0.34727 h 0.17639 l 0.008,-0.17363 c -0.14469,-0.13919 -0.23564,-0.33487 -0.23564,-0.55397 0,-0.0276 0.001,-0.0565 0.004,-0.0841 h -0.0496 c -0.0537,0.0675 -0.13504,0.11025 -0.226,0.11025 -0.091,0 -0.17225,-0.0427 -0.22461,-0.11025 h -0.0441 c 0.004,0.0276 0.005,0.0565 0.005,0.0841 0,0.19567 -0.073,0.37344 -0.19155,0.50711 z m -0.35553,0 h 0.0772 c 0,0 0.0758,0 0.0772,-0.0331 0,0 -10e-4,0.0331 0,0 0,0 0.001,-0.0331 -0.0234,-0.0193 -0.0248,0.0138 -0.0758,0.0372 -0.13091,0.0524 m -0.81856,-0.26596 0.062,0.0455 c -0.0179,-0.0193 -0.0344,-0.04 -0.0496,-0.062 z m -0.30179,-0.23151 0.13505,0.10611 0.0772,-0.0896 c -0.0262,-0.0772 -0.04,-0.15986 -0.04,-0.24667 z m -0.29627,-0.23978 0.13229,0.10887 0.27285,-0.3142 0.0772,0.0648 c 0.0165,-0.0854 0.0482,-0.16536 0.0909,-0.2384 h -0.38034 l 0.0524,0.0427 z m -0.30042,-0.25356 c 0.0441,0.0386 0.091,0.0786 0.13919,0.11989 l 0.21221,-0.24529 c -0.0689,0.0234 -0.14193,0.0372 -0.21773,0.0372 -0.0234,0 -0.0455,-0.001 -0.0675,-0.003 z m -0.19292,-0.17363 0.0193,0.0179 c 0,0 0.0179,0.0165 0.0138,0.008 -0.003,-0.008 -0.0179,-0.0179 -0.0331,-0.0262"
       id="U-S-M3-Stuart" />
  </g>
</svg>
