<?xml version="1.0" encoding="UTF-8" standalone="no"?>
<!-- Created with Inkscape (http://www.inkscape.org/) -->

<svg
   width="23.10099mm"
   height="10.212301mm"
   viewBox="0 0 23.10099 10.212301"
   version="1.1"
   id="svg5"
   sodipodi:docname="U-S-Sherman-76.svg"
   inkscape:version="1.1.1 (3bf5ae0d25, 2021-09-20)"
   xmlns:inkscape="http://www.inkscape.org/namespaces/inkscape"
   xmlns:sodipodi="http://sodipodi.sourceforge.net/DTD/sodipodi-0.dtd"
   xmlns="http://www.w3.org/2000/svg"
   xmlns:svg="http://www.w3.org/2000/svg">
  <sodipodi:namedview
     id="namedview7"
     pagecolor="#ffffff"
     bordercolor="#666666"
     borderopacity="1.0"
     inkscape:pageshadow="2"
     inkscape:pageopacity="0.0"
     inkscape:pagecheckerboard="0"
     inkscape:document-units="mm"
     showgrid="false"
     inkscape:zoom="0.90583672"
     inkscape:cx="187.11982"
     inkscape:cy="55.749562"
     inkscape:window-width="1920"
     inkscape:window-height="1017"
     inkscape:window-x="-8"
     inkscape:window-y="-8"
     inkscape:window-maximized="1"
     inkscape:current-layer="layer1" />
  <defs
     id="defs2" />
  <g
     inkscape:label="Layer 1"
     inkscape:groupmode="layer"
     id="layer1"
     transform="translate(-181.02731,-16.99542)">
    <path
       d="m 203.48108,23.17575 v -0.22781 h 0.22624 v -0.4635 h -0.33309 L 203.2124,21.7994 h -0.38965 l -0.16184,-0.26867 h -0.21682 l 0.0125,0.20582 -0.47608,-0.10683 -0.0896,-0.17912 h -0.43364 v 0.1147 l -1.98126,-0.28124 v -0.26083 l -0.70389,-0.16654 h -1.21139 v 0.1477 h -0.20268 v -0.044 h 0.0251 l 1.27423,-0.98043 V 19.716 h 0.42109 v -0.26238 h 0.49491 v -0.45407 h -0.31581 l 0.29538,-0.50593 v -0.23253 h -0.38022 v 0.34881 h -0.62062 l -0.11626,-0.11628 h -0.56877 l -0.1477,-0.14768 -0.21054,0.0114 -0.14769,0.1477 h -0.47292 l -0.25925,-0.25925 0.12413,-0.32996 h 0.099 v -0.38179 l 0.89715,0.20582 c 0.044,0.009 0.1147,0.0188 0.1587,-0.0315 0.0408,-0.0471 0.0188,-0.13354 -0.055,-0.20426 h 0.43836 l 0.10376,10e-4 0.0675,-0.022 0.0204,-0.12884 -0.0204,-0.13669 v -0.14455 h -0.0675 l -0.13041,0.001 -0.0251,-0.0786 h -0.12569 l -0.0628,0.0739 h -1.20982 l -0.53735,-0.003 v 0.0802 h -0.34881 c -0.006,0.0157 -0.022,0.0283 -0.0817,0 h -0.0723 c -0.007,0.0157 -0.022,0.0283 -0.0817,0 h -0.0723 c -0.007,0.0157 -0.0236,0.0283 -0.0832,0 l -0.19796,0.0236 H 195.259 l -0.13512,-0.007 h -0.099 l -0.0707,0.0361 -1.89642,-0.0392 h -0.19953 v 0.19954 l 0.19953,-0.0345 1.4785,0.0723 c 0.41164,0.0204 0.41164,0.0612 0.41164,0.0612 v 0.0408 l -0.20267,0.0628 v 0.16812 h 0.64104 v -0.16026 l -0.19482,-0.0707 v -0.0723 h 0.37553 c 0.008,-0.0141 0.022,-0.022 0.0754,0 h 0.0802 c 0.008,-0.0141 0.022,-0.022 0.0754,0 h 0.0786 c 0.008,-0.0141 0.022,-0.022 0.0754,0 h 0.38807 v 0.29225 h 0.20425 v 0.11941 l -0.12412,0.32366 -0.16497,-0.16497 h -0.27338 l -0.16812,-0.16969 h -1.03384 l -0.14613,0.14769 h -0.30481 l -0.29695,0.29538 -0.18854,-0.19012 h -0.21054 v 0.40065 h -1.22238 l -0.63162,0.36923 c 0,0 -0.0848,-0.10523 -0.20111,-0.20111 -0.1147,-0.0943 -0.30481,-0.0408 -0.30481,-0.0408 0,0 0.0424,0.44307 0,0.4525 -0.0424,0.0114 -0.1587,0.0754 -0.3268,-0.0315 -0.16812,-0.10524 -0.44308,0.0424 -0.54835,0.19954 -0.0864,0.13041 -0.0519,0.1744 -0.0141,0.29538 h -0.94586 v 0.1587 l -8.41056,0.0612 v 0.42422 l 8.41056,0.077 v 0.13041 h 1.07312 c 0.009,0.0535 0.0204,0.10216 0.0346,0.13984 0.0739,0.21053 0.42109,0.15869 0.42109,0.15869 v 0.17911 h -0.18854 v 0.0392 h -1.19097 v 0.18383 l -0.90028,0.11002 -0.14612,-0.0911 v 0.20269 l -0.24039,0.0754 v 0.71804 l -0.38337,0.28438 c -0.0204,-0.19325 -0.13512,-0.36137 -0.29696,-0.36137 -0.17754,0 -0.29695,0.20269 -0.29695,0.41951 0,0.022 0,0.0424 0.003,0.0644 h -1.13754 v 0.12884 h 0.69761 l 0.16497,0.31423 -0.49492,0.38808 h -0.29382 l 0.0173,-0.16654 0.20268,-0.0377 v -0.20268 l -0.35037,-0.0739 h -0.20111 v 0.44308 l -0.38494,0.0377 -0.25768,0.0739 -0.22153,0.16497 -0.11003,0.14927 0.23096,0.28123 c -0.24982,0.21998 -0.44465,0.52479 -0.45093,0.86259 -0.0125,0.60648 0.0911,0.78717 0.64262,1.25538 0.51691,0.43836 1.47062,1.06997 2.0991,1.06997 0.34723,0 3.23035,0.009 3.23035,0.009 h 8.60225 c 0.46822,0.0519 1.01499,-0.0739 1.42036,-0.30323 0.59233,-0.33624 1.77858,-0.7589 2.22951,-1.16426 0.44464,-0.3975 0.42422,-1.15639 0.25296,-1.38893 -0.17126,-0.23096 0.0471,-0.40536 0.0471,-0.40536 0.21997,-0.17283 0.21997,-0.35195 0.21997,-0.35195 v -0.17912 h 0.29224 l 0.35509,0.0974 -0.29068,-0.3268 z m -17.59416,2.82343 -0.10215,0.10216 c -0.0582,-0.0456 -0.11311,-0.0896 -0.16497,-0.13355 l -0.0613,-0.0535 c 0.10215,0.0456 0.21211,0.0754 0.32837,0.0848 m 0.90343,-0.10216 c -0.0408,0.10364 -0.0628,0.21368 -0.0628,0.33151 0,0.0896 0.0141,0.17598 0.0393,0.25768 l -0.0848,-0.0503 -0.14925,0.15083 c -0.0597,-0.0329 -0.11784,-0.066 -0.1477,-0.0848 -0.0299,-0.0157 -0.003,-0.12412 -0.003,-0.12412 0.0267,-0.10683 -0.0283,-0.14141 -0.0283,-0.14141 l -0.0565,-0.0329 -0.15083,0.1524 c -0.0581,-0.0393 -0.11469,-0.077 -0.17127,-0.11627 l 0.0503,-0.20111 -0.0565,-0.0361 c 0.16026,0 0.3111,-0.0377 0.44622,-0.10523 z m 0.0943,0.861 c -0.0283,-0.0125 -0.0832,-0.0361 -0.1115,-0.0503 -0.0267,-0.0125 -0.009,-0.0911 -0.009,-0.0911 l 0.0204,-0.077 c 0.0315,0.0832 0.0739,0.16025 0.10056,0.19482 0.0267,0.0329 0,0.0236 0,0.0236 m 0.95214,-4.42289 c 0,0.10056 -0.044,0.13356 -0.044,0.13356 -0.0424,0.0315 -0.21368,0.0315 -0.21368,0.0315 h -0.16969 c -0.003,-0.0204 -0.005,-0.0424 -0.005,-0.0644 0,-0.20111 0.11002,-0.33623 0.21525,-0.33623 0.10683,0 0.21682,0.13512 0.21682,0.23568 m 1.96555,4.58629 -0.26396,-0.001 -0.0581,-0.19169 h -0.1304 l -0.0471,0.19169 h -0.21369 l -0.0565,-0.19169 h -0.1304 l -0.0487,0.19011 h -0.21211 l -0.0582,-0.19011 h -0.12885 l -0.0471,0.18854 h -0.24669 c 0.19954,-0.16183 0.32681,-0.41007 0.32681,-0.68818 0,-0.0408 -0.003,-0.0802 -0.008,-0.11941 l 0.0393,0.0173 h 0.95528 c -0.003,0.0329 -0.007,0.0675 -0.007,0.10216 0,0.28125 0.13199,0.53107 0.33467,0.6929 m 1.23024,-0.13669 -0.0361,0.13983 h -0.10684 c 0.0535,-0.0408 0.10057,-0.0896 0.14299,-0.13983 m 0.4305,-0.55621 c 0,0.1854 0.0565,0.35823 0.15397,0.49964 h -0.12254 l -0.0503,0.1964 h -0.20897 l -0.0597,-0.1964 h -0.10056 c 0.0959,-0.14141 0.1524,-0.31424 0.1524,-0.49964 0,-0.16812 -0.0471,-0.3268 -0.12884,-0.46035 h 0.49336 c -0.0817,0.13355 -0.12884,0.29223 -0.12884,0.46035 m 0.33781,0.69604 h -0.11785 l -0.055,-0.17911 c 0.0503,0.0676 0.10843,0.12726 0.17284,0.17911 m 2.74171,0 h -0.26081 l -0.0597,-0.1964 h -0.12884 l -0.0503,0.1964 h -0.20897 l -0.0597,-0.1964 h -0.1304 l -0.0487,0.1964 h -0.20896 l -0.0612,-0.1964 h -0.12883 l -0.0503,0.1964 h -0.26082 c 0.20425,-0.16184 0.3378,-0.41322 0.3378,-0.69604 0,-0.0565 -0.005,-0.1131 -0.0157,-0.16812 h 1.01341 c -0.0114,0.055 -0.0157,0.11151 -0.0157,0.16812 0,0.28282 0.13041,0.5342 0.3378,0.69604 m 0.80445,-9.29514 h -0.55777 v -0.0424 l 0.27967,-0.088 z m 2.9444,-0.27496 h 0.10375 v 0.12884 h -0.10375 z m 0,-0.26081 h 0.10375 v 0.12412 h -0.10375 z m -2.51709,9.68324 -0.0377,0.14769 h -0.11151 c 0.0549,-0.044 0.10524,-0.0927 0.14926,-0.14769 m 0.42423,-0.54835 c 0,0.18541 0.0566,0.35823 0.15397,0.49965 h -0.11941 l -0.0487,0.19639 H 195.975 l -0.0597,-0.19639 h -0.10683 c 0.0974,-0.14142 0.15398,-0.31424 0.15398,-0.49965 0,-0.18225 -0.055,-0.35351 -0.14926,-0.49334 h 0.53577 c -0.0959,0.13983 -0.15083,0.31109 -0.15083,0.49334 m 0.17283,0.52635 c 0.0471,0.0644 0.10375,0.12098 0.16497,0.16969 h -0.11151 z m 2.56731,-0.52635 c 0,0.28282 0.13356,0.5342 0.33938,0.69604 h -0.25925 l -0.0612,-0.19639 h -0.13041 l -0.0487,0.19639 h -0.20897 l -0.0597,-0.19639 h -0.12888 l -0.0503,0.19639 h -0.20897 l -0.0597,-0.19639 h -0.13041 l -0.0487,0.19639 h -0.26239 c 0.20582,-0.16184 0.33781,-0.41322 0.33781,-0.69604 0,-0.0691 -0.008,-0.13512 -0.022,-0.19954 h 1.02599 c -0.0157,0.0644 -0.0236,0.13042 -0.0236,0.19954 m 3.30577,-0.36451 c -0.10684,0.055 -0.22626,0.11151 -0.29067,0.14141 -0.0644,0.0299 -0.13513,-0.0471 -0.13513,-0.0471 -0.0707,-0.0754 -0.12883,-0.0487 -0.12883,-0.0487 l -0.0581,0.0299 0.0408,0.19482 -0.19169,0.0911 -0.13512,-0.14612 -0.11783,0.0566 0.0408,0.19326 -0.19013,0.0943 -0.13668,-0.14768 -0.11627,0.0581 0.0408,0.19167 c -0.0911,0.0424 -0.18226,0.0848 -0.27339,0.12413 0.0676,-0.12569 0.10524,-0.26867 0.10524,-0.42108 0,-0.18226 -0.055,-0.35351 -0.14926,-0.49336 h 0.53891 l 0.38336,-0.35665 c 0.15241,0.27652 0.43994,0.46821 0.77303,0.48549"
       id="U-S-Sherman-76-6"
       style="stroke-width:1.14016" />
  </g>
</svg>
