<?xml version="1.0" encoding="UTF-8" standalone="no"?>
<!-- Created with Inkscape (http://www.inkscape.org/) -->

<svg
   width="6.3363647mm"
   height="8mm"
   viewBox="0 0 6.3363649 7.9999999"
   version="1.1"
   id="svg47190"
   inkscape:version="1.1.1 (3bf5ae0d25, 2021-09-20)"
   sodipodi:docname="volkSturm.svg"
   xmlns:inkscape="http://www.inkscape.org/namespaces/inkscape"
   xmlns:sodipodi="http://sodipodi.sourceforge.net/DTD/sodipodi-0.dtd"
   xmlns="http://www.w3.org/2000/svg"
   xmlns:svg="http://www.w3.org/2000/svg">
  <sodipodi:namedview
     id="namedview47192"
     pagecolor="#ffffff"
     bordercolor="#666666"
     borderopacity="1.0"
     inkscape:pageshadow="2"
     inkscape:pageopacity="0.0"
     inkscape:pagecheckerboard="0"
     inkscape:document-units="mm"
     showgrid="false"
     inkscape:zoom="11.313709"
     inkscape:cx="8.7062522"
     inkscape:cy="19.401242"
     inkscape:window-width="1920"
     inkscape:window-height="1017"
     inkscape:window-x="-8"
     inkscape:window-y="-8"
     inkscape:window-maximized="1"
     inkscape:current-layer="g1754"
     inkscape:snap-bbox="true"
     inkscape:snap-bbox-midpoints="true"
     inkscape:snap-page="true" />
  <defs
     id="defs47187">
    <clipPath
       clipPathUnits="userSpaceOnUse"
       id="clipPath63680-8">
      <path
         d="M 0,0 H 595.276 V 841.89 H 0 Z"
         id="path63678-4" />
    </clipPath>
  </defs>
  <g
     inkscape:label="Layer 1"
     inkscape:groupmode="layer"
     id="layer1"
     transform="translate(-95.587164,-80.934644)">
    <g
       transform="matrix(0.01238547,0,0,0.01238547,86.37603,76.630162)"
       id="g3259">
      <g
         id="g4299"
         transform="translate(1.9492421e-6)">
        <g
           id="g31631"
           transform="matrix(5.4254366,0,0,5.4254366,1570.8142,1953.9589)">
          <g
             id="g1754"
             transform="matrix(0.59575884,0,0,0.6012812,-441.4489,-296.08972)">
            <rect
               fill="#cc2f2f"
               width="158.2787"
               height="198"
               id="rect826"
               x="485.09329"
               y="0"
               style="stroke-width:0.485318" />
            <rect
               y="36.25"
               width="158.2787"
               height="125"
               id="rect828"
               x="485.09329"
               style="stroke-width:0.485318" />
            <g
               id="g2073"
               transform="translate(62.694354,5.7787905)">
              <path
                 id="path3012"
                 style="fill:#ffffff;stroke-width:0.999998"
                 d="m 501.58346,65.059725 c -4.43292,1.102881 -3.39335,8.213246 -5.34425,11.344617 1.15005,2.873049 1.86625,-4.128973 2.90933,-0.325117 0.90602,3.364843 1.39134,-1.581329 2.4796,-1.018904 0.84911,2.393585 1.67107,2.745767 2.45345,0.120446 0.97014,-1.50658 1.40273,3.891605 2.26784,1.378885 1.0817,-2.202273 -4.91348,-8.739741 0.52632,-8.302509 1.31714,-2.347497 -4.65623,-3.977239 -2.9276,-2.806555 -0.93729,2.247548 -1.7143,-0.544431 -2.36469,-0.390863 z m -66.78844,4.374146 c 1.40672,1.697106 3.8708,5.527988 6.94506,5.03918 8.40761,0 16.81523,0 25.22285,0 -2.18822,-2.146316 -1.87869,-6.290776 -5.88035,-5.039219 -8.76252,1.3e-5 -17.52504,2.6e-5 -26.28756,3.9e-5 z m 30.32201,0 c -0.45756,2.92579 2.76683,5.710441 5.72524,5.039213 4.36509,0 8.73018,0 13.09528,0 2.31646,3.520747 5.29742,8.279654 10.00398,8.313431 0.33041,-4.036614 -0.41007,-7.446497 -3.5713,-10.027387 0.0549,-3.869858 -2.93143,-3.45544 -5.66587,-3.325257 -6.52911,0 -13.05823,0 -19.58733,0 z m 48.72948,0 c -1.45977,4.681151 -6.24626,7.179497 -4.7851,12.726279 2.18355,1.908955 7.07629,-3.130637 8.73511,-5.832523 0.44798,-2.888247 3.54111,-1.561697 5.53201,-1.854517 3.91638,-0.155715 7.91978,0.321109 11.77823,-0.255782 2.63529,-1.129501 4.32539,-6.066512 0.0705,-4.783411 -7.11026,-1.3e-5 -14.22053,-3.3e-5 -21.33079,-4.6e-5 z m 24.86172,0 c -0.69572,3.118379 -4.74118,5.950912 0.433,5.039226 7.9794,0 15.95881,0 23.93821,0 1.73404,-1.594479 3.46807,-3.188952 5.20211,-4.783431 -1.40853,-0.621184 -3.46037,-0.0678 -5.10615,-0.255782 -8.15573,-6e-6 -16.31145,-6e-6 -24.46717,-1.3e-5 z m -58.72064,5.461299 c -0.34156,3.715511 5.43053,-1.228042 0.69659,1.9e-5 -0.2322,-6e-6 -0.46439,-1.3e-5 -0.69659,-1.9e-5 z m 39.91299,0 c 0.78924,3.26063 5.14164,-0.04559 1.85856,-5.9e-5 -0.61952,1.9e-5 -1.23904,3.9e-5 -1.85856,5.9e-5 z m -44.53423,0.07675 c -0.28089,0.233354 0.30454,0.183245 0,0 z m 52.17605,0 c -0.30455,0.183245 0.28088,0.233354 0,0 z m -86.87402,0.08952 c 2.04945,2.263035 4.24077,5.292388 7.73916,4.450861 7.64379,0 15.28756,0 22.93135,0 -0.98833,-2.633002 -1.54761,-5.444102 -4.96381,-4.450875 -8.5689,7e-6 -17.1378,7e-6 -25.7067,1.4e-5 z m 29.57331,0 c 0.0439,2.050066 3.20362,0.775387 4.62148,1.010358 -0.027,-1.962842 -3.3286,-0.609745 -4.62148,-1.010358 z m 6.80276,0 c -3.46488,1.328147 0.51591,5.396685 2.53003,2.097484 1.18365,-1.32435 -1.1842,-2.568743 -2.53003,-2.097484 z m 46.80613,0 c -2.53859,1.645327 1.46167,3.914348 2.59462,3.312592 2.25605,-3.178035 -0.0337,-3.435513 -2.59462,-3.312592 z m 4.53087,0 c -1.14073,2.064715 2.7901,0.691613 3.95,1.087106 1.42971,-2.008301 -2.92057,-0.723164 -3.95,-1.087106 z m 5.04721,0 c -1.47139,2.807878 -2.84835,5.403908 1.33664,4.450874 7.61797,0 15.23594,0 22.85391,0 0.62667,-1.008171 6.3184,-4.435499 3.45926,-4.450888 -9.2166,7e-6 -18.43321,7e-6 -27.64981,1.4e-5 z m -49.74925,0.332529 c -4.72255,-0.05401 -1.4636,6.664856 0.87504,2.57034 1.29772,-0.556394 -0.21792,-2.174624 -0.87504,-2.57034 z m 35.45957,0 c -4.1821,2.691107 3.95356,5.82198 2.43961,1.342967 -0.81311,-0.413069 -1.59288,-1.073819 -2.43961,-1.342967 z m -24.65518,0.51163 c -1.13174,0.59412 0.48151,0.995965 0,0 z m 3.89836,0 c -2.3527,1.467275 0.31753,7.1505 1.01974,2.398031 0.08,-0.870726 -0.60389,-1.690715 -1.01974,-2.398031 z m 2.94313,0 c -2.12384,1.301698 0.0158,7.232775 1.09715,2.685887 0.0546,-0.957473 -0.42607,-2.058396 -1.09715,-2.685887 z m 3.11095,0 c -2.77523,1.872329 0.77166,7.057401 1.00687,2.007999 -0.37821,-0.61275 -0.46624,-1.558914 -1.00687,-2.007999 z m 3.02058,0 c -1.4054,1.347648 -1.28387,3.091576 -0.16781,4.617172 1.3063,-1.268229 1.7218,-3.055049 0.16781,-4.617172 z m 0.81323,0 c -0.18015,2.160918 1.13405,0.214631 0,0 z m -13.16664,0.07675 c -1.73487,0.92758 -0.13476,6.462083 0.97796,3.228105 0.79786,-0.949 0.005,-2.834727 -0.97796,-3.228105 z m -24.26793,0.754609 c -0.0119,2.162851 3.11375,0.795308 4.57055,1.176689 0.56614,-2.059837 -3.19459,-0.852803 -4.57055,-1.176689 z m 56.95218,0 c -1.61496,1.767673 4.19906,1.782714 4.37596,0.166292 -1.27292,-0.38607 -2.98269,-0.05649 -4.37596,-0.166292 z m -47.46445,0.767392 c -3.67634,-0.359077 -3.97678,5.08978 -0.94164,4.735123 2.74571,-1.518812 3.07491,-2.770369 0.94164,-4.735123 z m 42.09453,0 c -2.53524,1.853784 -0.35929,4.881827 2.05242,4.783431 2.31261,-2.741405 1.11717,-3.861319 -2.05242,-4.783431 z m -36.96987,0.409278 c -4.53017,0.820885 -0.56226,7.012007 1.30373,2.609185 1.15788,-0.671306 -0.84148,-2.182777 -1.30373,-2.609185 z m 31.8452,0 c -3.9853,2.13534 2.31607,6.836575 2.43972,1.931212 -0.77826,-0.628925 -1.52663,-1.58442 -2.43972,-1.931212 z m -45.45073,0.677868 c -0.1142,1.873979 3.70171,1.668869 4.53086,0.920887 -0.42499,-1.814016 -3.20278,-0.541818 -4.53086,-0.920887 z m 55.36444,0 c -1.9314,1.901738 3.27194,1.9256 3.85962,0.498729 0.53587,-1.061463 -3.26849,-0.232431 -3.85962,-0.498729 z m -21.26026,0.422046 c -2.38763,0.620818 -0.27892,6.61531 0.64394,3.416641 1.13741,-1.218906 -0.24311,-2.190603 -0.64394,-3.416641 z m -9.24246,0.166265 c -1.07753,1.422033 -1.09714,3.077301 0.0904,4.361358 1.44814,-1.120497 1.46045,-3.375006 -0.0904,-4.361358 z m 3.2013,0 c -2.69517,1.890685 0.94338,6.995938 1.00684,1.841761 -0.38087,-0.496208 -0.45722,-1.625099 -1.00684,-1.841761 z m 2.85277,0 c -1.1211,1.327853 -1.20846,3.303235 0.1678,4.361358 1.41256,-1.177953 1.39488,-3.500513 -0.1678,-4.361358 z m 5.79591,0.754603 c -2.03881,2.902189 0.72152,3.233075 0,0 z m -62.76099,0.08952 c 1.97624,1.662524 3.73135,3.875247 5.84113,5.205497 9.36508,0 18.73016,0 28.09523,0 -2.72906,-1.287226 -6.36135,-3.784728 -9.13937,-5.205458 -8.26566,-1.3e-5 -16.53133,-2.6e-5 -24.79699,-3.9e-5 z m 85.36372,0 c -0.99552,3.028646 -8.10157,3.950725 -7.31901,5.205471 9.24244,0 18.48487,0 27.72731,0 1.82009,-1.735166 3.64018,-3.470332 5.46028,-5.205497 -8.62286,6e-6 -17.24572,1.9e-5 -25.86858,2.6e-5 z m -36.7246,0.243012 c -0.65649,2.546642 1.41634,2.62576 0,0 z m -21.07954,0.166265 c -0.35188,1.504386 2.68347,1.477858 4.11781,1.342928 -0.45765,-2.108754 -2.51769,-1.033566 -4.11781,-1.342928 z m 14.27677,0 c -2.51528,1.314442 -2.18783,4.587004 0.72308,4.374134 1.71174,-2.026598 2.16498,-3.240763 -0.72308,-4.374134 z m 27.39178,0 c -4.16673,1.215999 0.42199,7.378288 2.27187,2.698631 -0.0304,-1.110556 -1.52111,-2.119408 -2.27187,-2.698631 z m 11.34655,0 c -2.66273,1.81615 2.40241,1.901188 3.08065,0.5288 1.58639,-1.076334 -2.90944,-0.274269 -3.08065,-0.5288 z m -43.94045,0.08952 c -1.96612,1.192039 -5.26379,2.988694 -1.52517,4.783339 1.83909,1.903539 5.15922,-3.258011 1.93866,-4.49579 -0.16867,-0.02987 -0.16909,-0.419689 -0.41349,-0.287549 z m 37.97673,0 c -2.61403,1.759395 -2.00241,3.775155 0.58089,5.550816 4.20933,-2.807453 3.1231,-3.15693 -0.58089,-5.550816 z m -25.11988,1.675477 c -1.91391,1.334519 0.0386,6.891765 1.02807,2.866074 0.44682,-0.833046 -0.52422,-2.163525 -1.02807,-2.866074 z m 3.09803,0 c -1.20723,1.418719 -1.31058,3.043249 -0.16781,4.540411 1.47618,-0.638577 1.44696,-3.26879 0.16781,-4.540411 z m 2.94313,0 c -2.85641,2.408509 1.38367,7.13764 1.00685,1.688233 -0.41421,-0.503123 -0.48927,-1.260862 -1.00685,-1.688233 z m 2.94313,0 c -2.18752,1.764699 0.52687,7.237326 1.17465,2.321329 -0.34513,-0.686924 -0.5,-1.920696 -1.17465,-2.321329 z m 3.02058,0 c -1.15009,1.517345 -1.18064,3.44176 0.16781,4.706689 1.232,-1.566851 1.1813,-3.459107 -0.16781,-4.706689 z m -31.83229,0.166265 c 1.58127,2.565684 4.59311,-0.206898 0.63871,-2.6e-5 -0.2129,6e-6 -0.42581,1.9e-5 -0.63871,2.6e-5 z m 49.90415,0 c -3.08777,2.811801 5.15439,-0.583093 0.34826,1.3e-5 l -0.29049,-1.3e-5 z m -34.78833,0.179034 c -3.66442,1.378905 -0.69559,5.802623 1.43282,3.862563 1.22633,-2.256218 1.84615,-3.530623 -1.43282,-3.862563 z m 21.59587,0 c -4.99572,-0.179512 -0.40093,7.742479 2.10405,2.94167 -0.40876,-0.958233 -1.1183,-2.513978 -2.10405,-2.94167 z m -27.22396,0.831344 c -3.18839,1.895439 -2.97489,4.883176 0.67122,5.806597 2.03175,-2.984823 3.19454,-3.633662 -0.67122,-5.806597 z m 32.92951,0 c -5.04551,0.659048 -0.762,8.773806 1.81015,4.186147 2.53645,-1.222861 -1.06021,-2.986958 -1.81015,-4.186147 z m -8.89393,0.345299 c -0.75699,1.674704 -0.0435,6.084487 1.51029,3.018391 -0.58994,-0.848665 -0.72418,-2.476305 -1.51029,-3.018391 z m -15.29654,0.166265 c -2.01541,1.412275 -0.74063,5.724401 0.42599,2.941695 -0.11845,-0.865068 0.31209,-2.563569 -0.42599,-2.941695 z m 3.11094,1.509205 c -1.07802,1.502415 -1.2487,3.028882 -0.0903,4.540418 1.61515,-1.051044 1.62046,-3.241771 0.0903,-4.540418 z m 3.11094,0 c -2.78241,2.121163 0.91834,6.686164 1.00683,2.110254 -0.20198,-0.674358 -0.59451,-1.529748 -1.00683,-2.110254 z m 3.02058,0 c -2.45472,1.118087 0.0593,7.281581 1.0843,2.609159 -0.0204,-0.935018 -0.62367,-1.823032 -1.0843,-2.609159 z m 2.85278,0 c -2.51466,1.982926 0.8584,7.189726 1.17466,2.097497 -0.43349,-0.593439 -0.57838,-1.776453 -1.17466,-2.097497 z m -17.55553,0.754609 c -3.14556,2.121779 -1.75141,5.620845 1.67808,5.077541 1.76414,-3.072056 2.13985,-4.033497 -1.67808,-5.077541 z m 26.21711,0 c -4.41765,-0.34467 -2.6212,6.776729 0.4647,4.706559 3.34595,-0.594618 0.84676,-3.23853 -0.29692,-4.706637 z m -6.38969,0.920874 c -1.14446,2.014561 0.92039,1.190126 0,0 z m -13.19246,0.255782 c -0.72823,0.844166 0.51821,1.387634 0,0 z m -2.68496,0.588312 c -3.57172,2.37464 -0.10278,6.528929 2.27186,3.91998 -0.31165,-1.84979 0.59747,-4.113107 -2.27186,-3.91998 z m 18.56238,0 c -4.03111,0.04141 -2.60583,7.709596 1.54846,3.99046 0.55403,-1.014929 -0.93325,-3.011135 -1.54846,-3.99046 z m -3.35621,0.588311 c -1.14626,1.501295 -1.32477,3.103462 -0.0903,4.617146 1.14527,-0.52967 0.9502,-3.808662 0.0903,-4.617146 z m -12.09523,0.07675 c -0.84075,0.740851 -0.59874,6.329615 0.69301,3.586546 1.00117,-1.238591 0.0835,-2.495635 -0.69301,-3.586546 z m 3.09803,0 c -2.01992,0.654346 -0.52901,6.299985 0.60419,3.507788 0.95651,-1.1624 0.11359,-2.437204 -0.60419,-3.507788 z m 5.88626,0.0131 c -1.03433,1.455659 -1.191,3.105433 0,4.527629 1.50453,-0.773115 1.4124,-3.536025 0,-4.527629 z m -2.4397,1.163716 c 0.392,2.284102 1.5175,1.351179 0,0 z m -1.08431,0.0131 c -1.52768,1.672216 0.42267,2.121248 0,0 z m 0.50342,0.575542 c -0.34703,1.679845 -1.0318,3.395738 -1.18758,5.051997 1.58661,0.92526 4.01466,0.42181 2.46624,-1.84008 -0.46537,-1.007392 -0.3495,-2.568015 -1.27866,-3.211917 z m 1.41993,1.342941 c -0.20192,2.688578 2.37215,4.188996 0.72297,0.80589 -0.55323,0.02111 -0.17346,-0.9139 -0.72297,-0.80589 z m -5.87335,0.08952 c -1.56312,1.39208 -0.51183,4.061046 -0.73126,4.615356 2.20385,-0.25996 2.4722,-3.492201 0.73126,-4.615356 z m 2.94312,0 c -2.11726,2.348066 0.21248,4.966896 0.41334,0.588311 0.0277,-0.288327 -0.0163,-0.679073 -0.41334,-0.588311 z m 6.04117,0 c -2.10037,1.952783 -0.35174,5.842836 1.17472,4.374086 -0.89837,-0.66458 0.77941,-3.436415 -1.17472,-4.374086 z m -10.53331,3.197476 c 0.41384,1.2654 -0.0958,0.11192 0,0 z m 3.09803,0 c -0.99833,0.94194 1.03328,0.3815 0,0 z m 5.92499,0 c -0.67647,0.7911 1.11942,0.5782 0,0 z m 3.07222,0 c -0.90044,1.23811 1.0855,0.43336 0,0 z m -2.93023,0.69065 c -0.3983,1.50096 -3.24387,1.7996 -0.33715,2.74386 -1.34417,-0.7223 -7.78878,0.83572 -4.00017,-1.02128 -1.33099,-2.02755 -4.0389,-0.19635 -3.09401,0.80023 0.68811,1.20452 -4.70095,1.62561 -4.63843,4.178161 -2.35496,2.35366 -3.27492,5.10247 -2.22835,8.51303 -0.39204,3.32427 1.39484,5.04651 4.21637,6.91254 1.33924,3.0494 4.70091,1.52461 6.58369,3.59601 3.49475,-1.22057 7.76326,-2.84884 9.40988,-5.71914 2.11417,-2.46044 2.13411,-5.61082 2.18851,-8.76977 -1.27007,-2.90276 -3.55019,-5.95201 -6.60317,-8.061761 -2.83015,-0.33668 2.90888,-0.69322 -0.81417,-1.88128 l -0.46361,-0.57055 -0.21961,-0.72002 z m -1.89754,4.24625 c -0.3789,2.053591 2.20329,2.407101 0.7824,0.540721 1.85351,0.82712 3.28846,3.59292 4.75746,3.47714 0.42442,-1.22832 -2.77549,-3.3737 0.28244,-1.37691 1.3489,2.16471 0.0871,5.59244 2.31649,6.91216 -0.33792,-3.57264 0.41719,-2.06225 0.2562,0.65527 -1.02341,2.22451 -2.39526,2.82839 -2.99424,5.34123 1.25027,1.13489 -3.26639,0.92773 -4.00992,2.19784 -1.52017,-1.12871 -0.35417,3.85619 -2.39025,-0.17054 -1.24166,-0.38464 -3.54992,3.25406 -3.18851,0.99925 1.975,-0.8481 -2.74496,-2.00651 -1.92866,-1.34768 -2.34137,1.15203 -5.00265,-3.94559 -3.71672,-3.08052 3.46546,3.32541 -0.23495,-1.71579 -0.42589,-3.25447 -3.03558,-1.26493 0.67291,-7.47174 -0.57411,-1.8601 1.28817,1.00139 1.10996,-3.23969 1.991,-4.09645 -1.51212,-1.99763 2.61865,-4.999101 0.72289,-1.7778 1.02101,1.4597 1.53717,-1.52721 2.81405,-0.25578 0.21777,-2.05648 3.78429,-3.326281 1.29104,-0.91134 2.20188,0.43192 0.74879,-2.843371 2.73706,-0.45057 1.13918,0.22256 0.81927,-0.99188 1.27727,-1.541451 z" />
            </g>
            <rect
               y="40.25"
               fill="#ffffff"
               width="158.2787"
               height="5"
               id="rect1382"
               x="485.09329"
               style="stroke-width:0.485318" />
            <rect
               y="151.25"
               fill="#ffffff"
               width="158.2787"
               height="5"
               id="rect1384"
               x="485.09329"
               style="stroke-width:0.485318" />
          </g>
        </g>
      </g>
    </g>
  </g>
</svg>
