<?xml version="1.0" encoding="UTF-8" standalone="no"?>
<!-- Created with Inkscape (http://www.inkscape.org/) -->

<svg
   width="7.4159679mm"
   height="9mm"
   viewBox="0 0 7.4159681 8.9999997"
   version="1.1"
   id="svg47190"
   inkscape:version="1.1.1 (3bf5ae0d25, 2021-09-20)"
   sodipodi:docname="Volks.svg"
   xmlns:inkscape="http://www.inkscape.org/namespaces/inkscape"
   xmlns:sodipodi="http://sodipodi.sourceforge.net/DTD/sodipodi-0.dtd"
   xmlns="http://www.w3.org/2000/svg"
   xmlns:svg="http://www.w3.org/2000/svg">
  <sodipodi:namedview
     id="namedview47192"
     pagecolor="#ffffff"
     bordercolor="#666666"
     borderopacity="1.0"
     inkscape:pageshadow="2"
     inkscape:pageopacity="0.0"
     inkscape:pagecheckerboard="0"
     inkscape:document-units="mm"
     showgrid="false"
     inkscape:zoom="11.313708"
     inkscape:cx="48.127455"
     inkscape:cy="17.987029"
     inkscape:window-width="1920"
     inkscape:window-height="1017"
     inkscape:window-x="-8"
     inkscape:window-y="-8"
     inkscape:window-maximized="1"
     inkscape:current-layer="layer1"
     inkscape:snap-page="true"
     inkscape:snap-bbox="true"
     inkscape:snap-nodes="false"
     inkscape:bbox-paths="false"
     inkscape:bbox-nodes="true"
     inkscape:snap-object-midpoints="true" />
  <defs
     id="defs47187">
    <clipPath
       clipPathUnits="userSpaceOnUse"
       id="clipPath63680-8">
      <path
         d="M 0,0 H 595.276 V 841.89 H 0 Z"
         id="path63678-4" />
    </clipPath>
    <clipPath
       id="clip26-8">
      <path
         d="m 177,605 h 14 v 7 h -14 z m 0,0"
         id="path4278-6" />
    </clipPath>
    <clipPath
       id="clip27-6">
      <path
         d="m 181.85547,606.17578 c -0.28516,0.53516 -0.66797,0.60547 -0.94141,0.66797 -0.27344,0.0586 -0.40625,0.0234 -0.72656,0.15234 -0.32031,0.13282 -0.25,0.26172 -0.28516,0.47657 -0.0352,0.21484 -0.0977,0.27343 -0.40625,1.09765 -0.30859,0.82031 -1.14062,2.03516 -1.4414,2.53516 -0.29688,0.5 -0.67578,0.47656 -0.79688,0.82031 -0.11719,0.34766 0.0117,0.82031 0.41797,1.10938 0.40234,0.28515 0.92969,0.11718 1.23828,0.0703 0.3086,-0.0469 0.40235,-0.0352 0.40235,-0.0352 l 0.33593,0.0234 c 0,0 -0.53906,-1.8125 0.77344,-1.73828 1.30859,0.0703 2,0.67578 2.90234,0.71484 0.90625,0.0352 1.0625,-0.25 1.72657,-0.25 0.66797,0 1.22656,0.19922 1.54687,0.23438 0.32422,0.0391 1.33594,0.0156 1.33594,0.0156 l 1.35547,-4.07422 h 0.30859 l -0.0195,0.53907 0.57813,-0.63282 c 0,0 0.15625,0.0234 0.24218,-0.0586 0.082,-0.0859 0.15235,-0.35938 -0.0586,-0.65625 -0.21484,-0.29688 -0.48047,-0.60547 -1.21484,-1.14063 -0.73829,-0.53906 -1.32422,-1.05078 -3.69141,-1.14453 -0.125,-0.004 -0.25,-0.008 -0.36719,-0.008 -2.09765,0 -2.94531,0.77344 -3.21484,1.28125"
         id="path4281-9" />
    </clipPath>
    <clipPath
       id="clip28-5">
      <path
         d="m 177,611 h 4 v 3 h -4 z m 0,0"
         id="path4284-9" />
    </clipPath>
    <clipPath
       id="clip29-3">
      <path
         d="m 181.85547,606.17578 c -0.28516,0.53516 -0.66797,0.60547 -0.94141,0.66797 -0.27344,0.0586 -0.40625,0.0234 -0.72656,0.15234 -0.32031,0.13282 -0.25,0.26172 -0.28516,0.47657 -0.0352,0.21484 -0.0977,0.27343 -0.40625,1.09765 -0.30859,0.82031 -1.14062,2.03516 -1.4414,2.53516 -0.29688,0.5 -0.67578,0.47656 -0.79688,0.82031 -0.11719,0.34766 0.0117,0.82031 0.41797,1.10938 0.40234,0.28515 0.92969,0.11718 1.23828,0.0703 0.3086,-0.0469 0.40235,-0.0352 0.40235,-0.0352 l 0.33593,0.0234 c 0,0 -0.53906,-1.8125 0.77344,-1.73828 1.30859,0.0703 2,0.67578 2.90234,0.71484 0.90625,0.0352 1.0625,-0.25 1.72657,-0.25 0.66797,0 1.22656,0.19922 1.54687,0.23438 0.32422,0.0391 1.33594,0.0156 1.33594,0.0156 l 1.35547,-4.07422 h 0.30859 l -0.0195,0.53907 0.57813,-0.63282 c 0,0 0.15625,0.0234 0.24218,-0.0586 0.082,-0.0859 0.15235,-0.35938 -0.0586,-0.65625 -0.21484,-0.29688 -0.48047,-0.60547 -1.21484,-1.14063 -0.73829,-0.53906 -1.32422,-1.05078 -3.69141,-1.14453 -0.125,-0.004 -0.25,-0.008 -0.36719,-0.008 -2.09765,0 -2.94531,0.77344 -3.21484,1.28125"
         id="path4287-0" />
    </clipPath>
    <clipPath
       id="clip30-0">
      <path
         d="m 177,610 h 5 v 4 h -5 z m 0,0"
         id="path4290-1" />
    </clipPath>
    <clipPath
       id="clip31-8">
      <path
         d="m 181.85547,606.17578 c -0.28516,0.53516 -0.66797,0.60547 -0.94141,0.66797 -0.27344,0.0586 -0.40625,0.0234 -0.72656,0.15234 -0.32031,0.13282 -0.25,0.26172 -0.28516,0.47657 -0.0352,0.21484 -0.0977,0.27343 -0.40625,1.09765 -0.30859,0.82031 -1.14062,2.03516 -1.4414,2.53516 -0.29688,0.5 -0.67578,0.47656 -0.79688,0.82031 -0.11719,0.34766 0.0117,0.82031 0.41797,1.10938 0.40234,0.28515 0.92969,0.11718 1.23828,0.0703 0.3086,-0.0469 0.40235,-0.0352 0.40235,-0.0352 l 0.33593,0.0234 c 0,0 -0.53906,-1.8125 0.77344,-1.73828 1.30859,0.0703 2,0.67578 2.90234,0.71484 0.90625,0.0352 1.0625,-0.25 1.72657,-0.25 0.66797,0 1.22656,0.19922 1.54687,0.23438 0.32422,0.0391 1.33594,0.0156 1.33594,0.0156 l 1.35547,-4.07422 h 0.30859 l -0.0195,0.53907 0.57813,-0.63282 c 0,0 0.15625,0.0234 0.24218,-0.0586 0.082,-0.0859 0.15235,-0.35938 -0.0586,-0.65625 -0.21484,-0.29688 -0.48047,-0.60547 -1.21484,-1.14063 -0.73829,-0.53906 -1.32422,-1.05078 -3.69141,-1.14453 -0.125,-0.004 -0.25,-0.008 -0.36719,-0.008 -2.09765,0 -2.94531,0.77344 -3.21484,1.28125"
         id="path4293-6" />
    </clipPath>
  </defs>
  <g
     inkscape:label="Layer 1"
     inkscape:groupmode="layer"
     id="layer1"
     transform="translate(-86.91346,-77.022505)">
    <g
       id="g2281"
       transform="matrix(0.05328143,0,0,0.05328143,86.80295,76.894251)"
       style="fill:#ffffff">
      <path
         fill="#ffffff"
         stroke="#000000"
         stroke-width="2"
         stroke-linejoin="round"
         stroke-miterlimit="10"
         d="M 4,20.25 19.333,4.333 c 0,0 20.667,9 53.333,9.333 32.667,0.333 52,-9.333 52,-9.333 0,0 14.667,14.333 14.667,14.333 -1.931,20.358 -3.92,40.713 -5.823,61.072 -1.094,11.703 -3.802,23.512 -8.416,34.347 -2.103,4.937 -10.463,19.721 -18.94,29.056 -6.992,7.7 -17.913,17.12 -34.487,25.859 0,0 -38.488,-12.336 -56.669,-53.988 C 8.711,100.609 7.693,86.791 6.837,71.38 6.837,71.379 4,20.25 4,20.25 Z"
         id="path2"
         style="stroke-width:3.85186;stroke-miterlimit:10;stroke-dasharray:none;fill:#ffffff" />
    </g>
    <g
       id="g6060"
       transform="matrix(1.0493214,0,0,1.0493214,8.3055448,-2.2648228)"
       style="stroke-width:0.1;stroke-miterlimit:10;stroke-dasharray:none">
      <path
         stroke="#000000"
         stroke-linejoin="round"
         stroke-miterlimit="10"
         d="m 78.750747,83.015439 c -0.02154,0.03662 -0.07264,0.03783 -0.1118,0.04509 0,0 -0.359817,0 -0.365297,0 -0.03602,0 -0.09362,-0.03957 -0.102502,-0.07502 -0.011,-0.04384 0.01822,-0.05382 0.04471,-0.07684 0.05076,-0.04407 0.07272,-0.09181 0.07907,-0.155455 0.02135,-0.213773 -0.01478,-0.401467 -0.151146,-0.571133 l 0.640036,-0.0034 c 0,0 -0.08289,0.112783 -0.103334,0.183499 -0.02336,0.08073 -0.02752,0.165659 -0.03281,0.249075 -0.0033,0.05148 0.0031,0.103031 0.0082,0.154396 0.0071,0.07102 0.02014,0.104657 0.07366,0.152544 0.02699,0.02415 0.03942,0.04486 0.02729,0.0833 -0.0016,0.0052 -0.0037,0.0098 -0.0061,0.01399 z"
         id="path2-7"
         style="stroke-width:0.1;stroke-miterlimit:10;stroke-dasharray:none" />
      <polygon
         fill="#ffffff"
         stroke="#000000"
         stroke-width="2"
         stroke-linejoin="round"
         stroke-miterlimit="10"
         points="2.667,3.333 41.482,128.667 45.333,139.875 56.75,139.875 56.75,135.25 96.333,3.333 80,3.333 56.75,85.034 50.432,100.667 42.75,85.034 19,3.333 "
         id="polygon6"
         transform="matrix(0.03779587,0,0,0.03779587,76.575897,76.698237)"
         style="stroke-width:2.64579;stroke-miterlimit:10;stroke-dasharray:none;fill:#b3b3b3" />
      <path
         fill="#ffffff"
         stroke="#000000"
         stroke-width="0.0755918"
         stroke-linejoin="round"
         stroke-miterlimit="10"
         d="m 78.720813,81.791231 v -3.855179 c 0,0 -0.09449,-0.825613 -0.217326,-1.039387 h -0.04082 c -0.154207,0.213774 -0.270996,1.039387 -0.270996,1.039387 v 3.855179"
         id="path8"
         style="stroke-width:0.1;stroke-miterlimit:10;stroke-dasharray:none;fill:#cccccc" />
      <g
         id="g14"
         transform="matrix(0.0674058,0,0,0.03779587,75.034161,76.698237)"
         style="stroke-width:2.64579;stroke-miterlimit:10;stroke-dasharray:none">
        <g
           id="g12"
           style="stroke-width:2.64579;stroke-miterlimit:10;stroke-dasharray:none">
          <path
             d="m 51.625,135.25 c 0,-42.907 1.294,-86.004 -0.54,-128.875 -0.034,-0.803 -1.284,-0.806 -1.25,0 1.834,42.871 0.54,85.968 0.54,128.875 0,0.806 1.25,0.806 1.25,0 z"
             id="path10"
             style="stroke-width:2.64579;stroke-miterlimit:10;stroke-dasharray:none" />
        </g>
      </g>
      <path
         fill="#ffffff"
         stroke="#000000"
         stroke-width="0.0755918"
         stroke-linejoin="round"
         stroke-miterlimit="10"
         d="m 79.151195,82.153655 c 0,0.0138 -0.01119,0.02498 -0.02498,0.02498 h -1.324862 c -0.0138,0 -0.02498,-0.01119 -0.02498,-0.02498 v -0.337403 c 0,-0.0138 0.01119,-0.02498 0.02498,-0.02498 h 1.324821 c 0.0138,0 0.02498,0.01119 0.02498,0.02498 v 0.337403 z"
         id="path16"
         style="stroke-width:0.1;stroke-miterlimit:10;stroke-dasharray:none;fill:#cccccc" />
    </g>
  </g>
</svg>
