<?xml version="1.0" encoding="UTF-8" standalone="no"?>
<!-- Created with Inkscape (http://www.inkscape.org/) -->

<svg
   width="7.4159679mm"
   height="9mm"
   viewBox="0 0 7.4159681 8.9999997"
   version="1.1"
   id="svg47190"
   inkscape:version="1.4 (e7c3feb100, 2024-10-09)"
   sodipodi:docname="Volks26.svg"
   xmlns:inkscape="http://www.inkscape.org/namespaces/inkscape"
   xmlns:sodipodi="http://sodipodi.sourceforge.net/DTD/sodipodi-0.dtd"
   xmlns="http://www.w3.org/2000/svg"
   xmlns:svg="http://www.w3.org/2000/svg">
  <sodipodi:namedview
     id="namedview47192"
     pagecolor="#ffffff"
     bordercolor="#666666"
     borderopacity="1.0"
     inkscape:pageshadow="2"
     inkscape:pageopacity="0.0"
     inkscape:pagecheckerboard="0"
     inkscape:document-units="mm"
     showgrid="false"
     inkscape:zoom="5.2492255"
     inkscape:cx="-15.145091"
     inkscape:cy="-2.8575644"
     inkscape:window-width="2560"
     inkscape:window-height="1368"
     inkscape:window-x="0"
     inkscape:window-y="0"
     inkscape:window-maximized="1"
     inkscape:current-layer="layer1"
     inkscape:snap-page="true"
     inkscape:snap-bbox="true"
     inkscape:snap-nodes="false"
     inkscape:bbox-paths="false"
     inkscape:bbox-nodes="true"
     inkscape:snap-object-midpoints="true"
     inkscape:showpageshadow="2"
     inkscape:deskcolor="#d1d1d1" />
  <defs
     id="defs47187">
    <clipPath
       clipPathUnits="userSpaceOnUse"
       id="clipPath63680-8">
      <path
         d="M 0,0 H 595.276 V 841.89 H 0 Z"
         id="path63678-4" />
    </clipPath>
    <clipPath
       id="clip26-8">
      <path
         d="m 177,605 h 14 v 7 h -14 z m 0,0"
         id="path4278-6" />
    </clipPath>
    <clipPath
       id="clip27-6">
      <path
         d="m 181.85547,606.17578 c -0.28516,0.53516 -0.66797,0.60547 -0.94141,0.66797 -0.27344,0.0586 -0.40625,0.0234 -0.72656,0.15234 -0.32031,0.13282 -0.25,0.26172 -0.28516,0.47657 -0.0352,0.21484 -0.0977,0.27343 -0.40625,1.09765 -0.30859,0.82031 -1.14062,2.03516 -1.4414,2.53516 -0.29688,0.5 -0.67578,0.47656 -0.79688,0.82031 -0.11719,0.34766 0.0117,0.82031 0.41797,1.10938 0.40234,0.28515 0.92969,0.11718 1.23828,0.0703 0.3086,-0.0469 0.40235,-0.0352 0.40235,-0.0352 l 0.33593,0.0234 c 0,0 -0.53906,-1.8125 0.77344,-1.73828 1.30859,0.0703 2,0.67578 2.90234,0.71484 0.90625,0.0352 1.0625,-0.25 1.72657,-0.25 0.66797,0 1.22656,0.19922 1.54687,0.23438 0.32422,0.0391 1.33594,0.0156 1.33594,0.0156 l 1.35547,-4.07422 h 0.30859 l -0.0195,0.53907 0.57813,-0.63282 c 0,0 0.15625,0.0234 0.24218,-0.0586 0.082,-0.0859 0.15235,-0.35938 -0.0586,-0.65625 -0.21484,-0.29688 -0.48047,-0.60547 -1.21484,-1.14063 -0.73829,-0.53906 -1.32422,-1.05078 -3.69141,-1.14453 -0.125,-0.004 -0.25,-0.008 -0.36719,-0.008 -2.09765,0 -2.94531,0.77344 -3.21484,1.28125"
         id="path4281-9" />
    </clipPath>
    <clipPath
       id="clip28-5">
      <path
         d="m 177,611 h 4 v 3 h -4 z m 0,0"
         id="path4284-9" />
    </clipPath>
    <clipPath
       id="clip29-3">
      <path
         d="m 181.85547,606.17578 c -0.28516,0.53516 -0.66797,0.60547 -0.94141,0.66797 -0.27344,0.0586 -0.40625,0.0234 -0.72656,0.15234 -0.32031,0.13282 -0.25,0.26172 -0.28516,0.47657 -0.0352,0.21484 -0.0977,0.27343 -0.40625,1.09765 -0.30859,0.82031 -1.14062,2.03516 -1.4414,2.53516 -0.29688,0.5 -0.67578,0.47656 -0.79688,0.82031 -0.11719,0.34766 0.0117,0.82031 0.41797,1.10938 0.40234,0.28515 0.92969,0.11718 1.23828,0.0703 0.3086,-0.0469 0.40235,-0.0352 0.40235,-0.0352 l 0.33593,0.0234 c 0,0 -0.53906,-1.8125 0.77344,-1.73828 1.30859,0.0703 2,0.67578 2.90234,0.71484 0.90625,0.0352 1.0625,-0.25 1.72657,-0.25 0.66797,0 1.22656,0.19922 1.54687,0.23438 0.32422,0.0391 1.33594,0.0156 1.33594,0.0156 l 1.35547,-4.07422 h 0.30859 l -0.0195,0.53907 0.57813,-0.63282 c 0,0 0.15625,0.0234 0.24218,-0.0586 0.082,-0.0859 0.15235,-0.35938 -0.0586,-0.65625 -0.21484,-0.29688 -0.48047,-0.60547 -1.21484,-1.14063 -0.73829,-0.53906 -1.32422,-1.05078 -3.69141,-1.14453 -0.125,-0.004 -0.25,-0.008 -0.36719,-0.008 -2.09765,0 -2.94531,0.77344 -3.21484,1.28125"
         id="path4287-0" />
    </clipPath>
    <clipPath
       id="clip30-0">
      <path
         d="m 177,610 h 5 v 4 h -5 z m 0,0"
         id="path4290-1" />
    </clipPath>
    <clipPath
       id="clip31-8">
      <path
         d="m 181.85547,606.17578 c -0.28516,0.53516 -0.66797,0.60547 -0.94141,0.66797 -0.27344,0.0586 -0.40625,0.0234 -0.72656,0.15234 -0.32031,0.13282 -0.25,0.26172 -0.28516,0.47657 -0.0352,0.21484 -0.0977,0.27343 -0.40625,1.09765 -0.30859,0.82031 -1.14062,2.03516 -1.4414,2.53516 -0.29688,0.5 -0.67578,0.47656 -0.79688,0.82031 -0.11719,0.34766 0.0117,0.82031 0.41797,1.10938 0.40234,0.28515 0.92969,0.11718 1.23828,0.0703 0.3086,-0.0469 0.40235,-0.0352 0.40235,-0.0352 l 0.33593,0.0234 c 0,0 -0.53906,-1.8125 0.77344,-1.73828 1.30859,0.0703 2,0.67578 2.90234,0.71484 0.90625,0.0352 1.0625,-0.25 1.72657,-0.25 0.66797,0 1.22656,0.19922 1.54687,0.23438 0.32422,0.0391 1.33594,0.0156 1.33594,0.0156 l 1.35547,-4.07422 h 0.30859 l -0.0195,0.53907 0.57813,-0.63282 c 0,0 0.15625,0.0234 0.24218,-0.0586 0.082,-0.0859 0.15235,-0.35938 -0.0586,-0.65625 -0.21484,-0.29688 -0.48047,-0.60547 -1.21484,-1.14063 -0.73829,-0.53906 -1.32422,-1.05078 -3.69141,-1.14453 -0.125,-0.004 -0.25,-0.008 -0.36719,-0.008 -2.09765,0 -2.94531,0.77344 -3.21484,1.28125"
         id="path4293-6" />
    </clipPath>
  </defs>
  <g
     inkscape:label="Layer 1"
     inkscape:groupmode="layer"
     id="layer1"
     transform="translate(-86.91346,-77.022505)">
    <g
       id="g2281"
       transform="matrix(0.05328143,0,0,0.05328143,86.80295,76.894251)"
       style="fill:#ffffff">
      <path
         fill="#ffffff"
         stroke="#000000"
         stroke-width="2"
         stroke-linejoin="round"
         stroke-miterlimit="10"
         d="M 4,20.25 19.333,4.333 c 0,0 20.667,9 53.333,9.333 32.667,0.333 52,-9.333 52,-9.333 0,0 14.667,14.333 14.667,14.333 -1.931,20.358 -3.92,40.713 -5.823,61.072 -1.094,11.703 -3.802,23.512 -8.416,34.347 -2.103,4.937 -10.463,19.721 -18.94,29.056 -6.992,7.7 -17.913,17.12 -34.487,25.859 0,0 -38.488,-12.336 -56.669,-53.988 C 8.711,100.609 7.693,86.791 6.837,71.38 6.837,71.379 4,20.25 4,20.25 Z"
         id="path2"
         style="stroke-width:3.85186;stroke-miterlimit:10;stroke-dasharray:none;fill:#ffffff" />
    </g>
    <path
       style="font-size:8.86528px;font-family:'Breitkopf Fraktur';-inkscape-font-specification:'Breitkopf Fraktur';stroke-width:0.139;stroke-linecap:round;stroke-linejoin:round;stroke:#000000;stroke-opacity:1;fill:#808080;fill-opacity:1;stroke-dasharray:none"
       d="m 93.748419,79.392516 q 0,-0.09752 -0.106384,-0.115249 -0.141844,-0.0089 -0.16844,-0.0266 -0.159575,-0.132979 -0.434399,-0.505321 -0.274823,-0.372342 -0.443264,-0.514186 -0.328015,-0.274824 -0.762414,-0.274824 -0.372342,0 -0.735818,0.221632 -0.372342,0.221632 -0.514186,0.549648 -0.0266,0.06206 -0.04433,0.06206 -0.301419,-0.336881 -0.700357,-0.549648 -0.443264,-0.248228 -0.833336,-0.248228 -0.46986,0 -0.877663,0.381207 -0.398937,0.354612 -0.540782,0.797876 -0.04433,0.07092 -0.06206,0.08865 -0.06206,0.18617 -0.06206,0.257093 0,0.01773 0.01773,0.05319 0.01773,0.0266 0.01773,0.03546 0,0.30142 0.177306,0.478726 0.124114,0.115248 0.239362,0.221632 0.115249,0.106383 0.239363,0.221632 0.328015,0.301419 0.328015,0.496455 0,0.30142 -0.274823,0.30142 -0.07092,0 -0.239363,-0.106384 L 87.808681,81.11238 q -0.06206,0 -0.06206,0.07979 0,0.16844 0.212767,0.301419 0.212767,0.09752 0.381207,0.09752 0.310285,0 0.514186,-0.203901 0.203902,-0.212767 0.203902,-0.523052 0,-0.0266 -0.01773,-0.04433 -0.0089,-0.0266 -0.0089,-0.03546 -0.01773,-0.274824 -0.434399,-0.700357 -0.390072,-0.372342 -0.585109,-0.558513 -0.07979,-0.08865 -0.07979,-0.283689 0,-0.239363 0.16844,-0.407803 0.168441,-0.177306 0.407803,-0.177306 0.6383,0 1.232274,0.753549 0.558513,0.718088 0.558513,1.382984 0,0.239363 -0.06206,0.425533 -0.03546,0.141845 -0.212767,0.354612 -0.230497,0.301419 -0.602839,0.310284 -0.336881,0.0089 -0.460995,0.05319 -0.647165,0.257093 -0.886528,0.567378 -0.141844,0.16844 -0.141844,0.257093 0,0.05319 0.05319,0.106384 0.06206,0.05319 0.115248,0.05319 0.05319,0 0.310285,-0.345746 0.07092,-0.06206 0.124114,-0.106383 0.06206,-0.05319 0.106383,-0.08865 0.0089,-0.0089 0.15071,-0.03546 0.132979,-0.03546 0.186171,-0.03546 0.265958,0 0.656031,0.328015 l 0.585108,0.460995 q 0.310285,0.248228 0.487591,0.390072 0.186171,0.141845 0.248227,0.186171 0.13298,0 0.691492,-0.257093 0.310285,-0.15071 0.558513,-0.283689 0.248228,-0.132979 0.425533,-0.230497 0.319151,-0.186171 0.593974,-0.514187 0.31915,-0.381207 0.31915,-0.700357 0,-0.195036 -0.141844,-0.48759 -0.07092,-0.124114 -0.159575,-0.239363 -0.07979,-0.124114 -0.168441,-0.239362 -0.248227,-0.310285 -0.248227,-0.505321 0,-0.239363 0.647165,-0.6383 0.230497,-0.141845 0.274824,-0.186171 z m -1.001777,2.70391 q 0,0.07979 -0.124114,0.407803 -0.04433,0.159575 -0.31915,0.274824 -0.292554,0.124114 -0.452129,0.124114 -0.345746,0 -0.806741,-0.345746 L 90.166846,81.90139 q 0.0089,-0.01773 0.0089,-0.04433 0.434399,-0.195037 0.718088,-0.664896 0.292554,-0.460995 0.292554,-0.93972 0,-0.159575 -0.177306,-0.718088 -0.0089,-0.01773 -0.04433,-0.07979 -0.0266,-0.07092 -0.07092,-0.186171 -0.09752,-0.212767 -0.09752,-0.221632 0,-0.09752 0.159575,-0.283689 0.06206,-0.07092 0.106384,-0.106384 0.04433,-0.04433 0.06206,-0.06206 0.132979,-0.05319 0.292554,-0.05319 0.06206,0 0.212767,0.05319 0.203901,0.08865 0.239362,0.124113 0.443264,0.336881 0.842202,1.10816 -0.07092,0.04433 -0.115249,0.07092 -0.04433,0.0266 -0.07979,0.04433 -0.381207,0.221632 -0.487591,0.682627 -0.0089,0.06206 -0.01773,0.09752 0,0.03546 0,0.05319 0,0.177306 0.248228,0.505321 0.31915,0.425534 0.372341,0.505321 0.115249,0.177306 0.115249,0.310285 z"
       id="text1"
       aria-label="V" />
    <g
       id="g6060"
       transform="matrix(1.0493214,0,0,1.0493214,8.3055448,-2.2648228)"
       style="stroke-width:0.1;stroke-miterlimit:10;stroke-dasharray:none">
      <path
         stroke="#000000"
         stroke-linejoin="round"
         stroke-miterlimit="10"
         d="m 78.750747,83.015439 c -0.02154,0.03662 -0.07264,0.03783 -0.1118,0.04509 0,0 -0.359817,0 -0.365297,0 -0.03602,0 -0.09362,-0.03957 -0.102502,-0.07502 -0.011,-0.04384 0.01822,-0.05382 0.04471,-0.07684 0.05076,-0.04407 0.07272,-0.09181 0.07907,-0.155455 0.02135,-0.213773 -0.01478,-0.401467 -0.151146,-0.571133 l 0.640036,-0.0034 c 0,0 -0.08289,0.112783 -0.103334,0.183499 -0.02336,0.08073 -0.02752,0.165659 -0.03281,0.249075 -0.0033,0.05148 0.0031,0.103031 0.0082,0.154396 0.0071,0.07102 0.02014,0.104657 0.07366,0.152544 0.02699,0.02415 0.03942,0.04486 0.02729,0.0833 -0.0016,0.0052 -0.0037,0.0098 -0.0061,0.01399 z"
         id="path2-7"
         style="stroke-width:0.1;stroke-miterlimit:10;stroke-dasharray:none" />
      <path
         fill="#ffffff"
         stroke="#000000"
         stroke-width="0.0755918"
         stroke-linejoin="round"
         stroke-miterlimit="10"
         d="m 78.720813,81.791231 v -3.855179 c 0,0 -0.09449,-0.825613 -0.217326,-1.039387 h -0.04082 c -0.154207,0.213774 -0.270996,1.039387 -0.270996,1.039387 v 3.855179"
         id="path8"
         style="stroke-width:0.1;stroke-miterlimit:10;stroke-dasharray:none;fill:#cccccc" />
      <g
         id="g14"
         transform="matrix(0.0674058,0,0,0.03779587,75.034161,76.698237)"
         style="stroke-width:2.64579;stroke-miterlimit:10;stroke-dasharray:none">
        <g
           id="g12"
           style="stroke-width:2.64579;stroke-miterlimit:10;stroke-dasharray:none">
          <path
             d="m 51.625,135.25 c 0,-42.907 1.294,-86.004 -0.54,-128.875 -0.034,-0.803 -1.284,-0.806 -1.25,0 1.834,42.871 0.54,85.968 0.54,128.875 0,0.806 1.25,0.806 1.25,0 z"
             id="path10"
             style="stroke-width:2.64579;stroke-miterlimit:10;stroke-dasharray:none" />
        </g>
      </g>
      <path
         fill="#ffffff"
         stroke="#000000"
         stroke-width="0.0755918"
         stroke-linejoin="round"
         stroke-miterlimit="10"
         d="m 79.151195,82.153655 c 0,0.0138 -0.01119,0.02498 -0.02498,0.02498 h -1.324862 c -0.0138,0 -0.02498,-0.01119 -0.02498,-0.02498 v -0.337403 c 0,-0.0138 0.01119,-0.02498 0.02498,-0.02498 h 1.324821 c 0.0138,0 0.02498,0.01119 0.02498,0.02498 v 0.337403 z"
         id="path16"
         style="stroke-width:0.1;stroke-miterlimit:10;stroke-dasharray:none;fill:#cccccc" />
    </g>
  </g>
</svg>
