<?xml version="1.0" encoding="UTF-8" standalone="no"?>
<!-- Created with Inkscape (http://www.inkscape.org/) -->

<svg
   width="7.4159679mm"
   height="9mm"
   viewBox="0 0 7.4159681 8.9999997"
   version="1.1"
   id="svg47190"
   inkscape:version="1.4 (e7c3feb100, 2024-10-09)"
   sodipodi:docname="Volks12.svg"
   xmlns:inkscape="http://www.inkscape.org/namespaces/inkscape"
   xmlns:sodipodi="http://sodipodi.sourceforge.net/DTD/sodipodi-0.dtd"
   xmlns="http://www.w3.org/2000/svg"
   xmlns:svg="http://www.w3.org/2000/svg">
  <sodipodi:namedview
     id="namedview47192"
     pagecolor="#ffffff"
     bordercolor="#666666"
     borderopacity="1.0"
     inkscape:pageshadow="2"
     inkscape:pageopacity="0.0"
     inkscape:pagecheckerboard="0"
     inkscape:document-units="mm"
     showgrid="false"
     inkscape:zoom="21.740527"
     inkscape:cx="11.292274"
     inkscape:cy="15.363013"
     inkscape:window-width="2560"
     inkscape:window-height="1368"
     inkscape:window-x="0"
     inkscape:window-y="0"
     inkscape:window-maximized="1"
     inkscape:current-layer="layer1"
     inkscape:snap-page="true"
     inkscape:snap-bbox="true"
     inkscape:snap-nodes="false"
     inkscape:bbox-paths="false"
     inkscape:bbox-nodes="true"
     inkscape:snap-object-midpoints="true"
     inkscape:showpageshadow="2"
     inkscape:deskcolor="#d1d1d1" />
  <defs
     id="defs47187">
    <clipPath
       clipPathUnits="userSpaceOnUse"
       id="clipPath63680-8">
      <path
         d="M 0,0 H 595.276 V 841.89 H 0 Z"
         id="path63678-4" />
    </clipPath>
    <clipPath
       id="clip26-8">
      <path
         d="m 177,605 h 14 v 7 h -14 z m 0,0"
         id="path4278-6" />
    </clipPath>
    <clipPath
       id="clip27-6">
      <path
         d="m 181.85547,606.17578 c -0.28516,0.53516 -0.66797,0.60547 -0.94141,0.66797 -0.27344,0.0586 -0.40625,0.0234 -0.72656,0.15234 -0.32031,0.13282 -0.25,0.26172 -0.28516,0.47657 -0.0352,0.21484 -0.0977,0.27343 -0.40625,1.09765 -0.30859,0.82031 -1.14062,2.03516 -1.4414,2.53516 -0.29688,0.5 -0.67578,0.47656 -0.79688,0.82031 -0.11719,0.34766 0.0117,0.82031 0.41797,1.10938 0.40234,0.28515 0.92969,0.11718 1.23828,0.0703 0.3086,-0.0469 0.40235,-0.0352 0.40235,-0.0352 l 0.33593,0.0234 c 0,0 -0.53906,-1.8125 0.77344,-1.73828 1.30859,0.0703 2,0.67578 2.90234,0.71484 0.90625,0.0352 1.0625,-0.25 1.72657,-0.25 0.66797,0 1.22656,0.19922 1.54687,0.23438 0.32422,0.0391 1.33594,0.0156 1.33594,0.0156 l 1.35547,-4.07422 h 0.30859 l -0.0195,0.53907 0.57813,-0.63282 c 0,0 0.15625,0.0234 0.24218,-0.0586 0.082,-0.0859 0.15235,-0.35938 -0.0586,-0.65625 -0.21484,-0.29688 -0.48047,-0.60547 -1.21484,-1.14063 -0.73829,-0.53906 -1.32422,-1.05078 -3.69141,-1.14453 -0.125,-0.004 -0.25,-0.008 -0.36719,-0.008 -2.09765,0 -2.94531,0.77344 -3.21484,1.28125"
         id="path4281-9" />
    </clipPath>
    <clipPath
       id="clip28-5">
      <path
         d="m 177,611 h 4 v 3 h -4 z m 0,0"
         id="path4284-9" />
    </clipPath>
    <clipPath
       id="clip29-3">
      <path
         d="m 181.85547,606.17578 c -0.28516,0.53516 -0.66797,0.60547 -0.94141,0.66797 -0.27344,0.0586 -0.40625,0.0234 -0.72656,0.15234 -0.32031,0.13282 -0.25,0.26172 -0.28516,0.47657 -0.0352,0.21484 -0.0977,0.27343 -0.40625,1.09765 -0.30859,0.82031 -1.14062,2.03516 -1.4414,2.53516 -0.29688,0.5 -0.67578,0.47656 -0.79688,0.82031 -0.11719,0.34766 0.0117,0.82031 0.41797,1.10938 0.40234,0.28515 0.92969,0.11718 1.23828,0.0703 0.3086,-0.0469 0.40235,-0.0352 0.40235,-0.0352 l 0.33593,0.0234 c 0,0 -0.53906,-1.8125 0.77344,-1.73828 1.30859,0.0703 2,0.67578 2.90234,0.71484 0.90625,0.0352 1.0625,-0.25 1.72657,-0.25 0.66797,0 1.22656,0.19922 1.54687,0.23438 0.32422,0.0391 1.33594,0.0156 1.33594,0.0156 l 1.35547,-4.07422 h 0.30859 l -0.0195,0.53907 0.57813,-0.63282 c 0,0 0.15625,0.0234 0.24218,-0.0586 0.082,-0.0859 0.15235,-0.35938 -0.0586,-0.65625 -0.21484,-0.29688 -0.48047,-0.60547 -1.21484,-1.14063 -0.73829,-0.53906 -1.32422,-1.05078 -3.69141,-1.14453 -0.125,-0.004 -0.25,-0.008 -0.36719,-0.008 -2.09765,0 -2.94531,0.77344 -3.21484,1.28125"
         id="path4287-0" />
    </clipPath>
    <clipPath
       id="clip30-0">
      <path
         d="m 177,610 h 5 v 4 h -5 z m 0,0"
         id="path4290-1" />
    </clipPath>
    <clipPath
       id="clip31-8">
      <path
         d="m 181.85547,606.17578 c -0.28516,0.53516 -0.66797,0.60547 -0.94141,0.66797 -0.27344,0.0586 -0.40625,0.0234 -0.72656,0.15234 -0.32031,0.13282 -0.25,0.26172 -0.28516,0.47657 -0.0352,0.21484 -0.0977,0.27343 -0.40625,1.09765 -0.30859,0.82031 -1.14062,2.03516 -1.4414,2.53516 -0.29688,0.5 -0.67578,0.47656 -0.79688,0.82031 -0.11719,0.34766 0.0117,0.82031 0.41797,1.10938 0.40234,0.28515 0.92969,0.11718 1.23828,0.0703 0.3086,-0.0469 0.40235,-0.0352 0.40235,-0.0352 l 0.33593,0.0234 c 0,0 -0.53906,-1.8125 0.77344,-1.73828 1.30859,0.0703 2,0.67578 2.90234,0.71484 0.90625,0.0352 1.0625,-0.25 1.72657,-0.25 0.66797,0 1.22656,0.19922 1.54687,0.23438 0.32422,0.0391 1.33594,0.0156 1.33594,0.0156 l 1.35547,-4.07422 h 0.30859 l -0.0195,0.53907 0.57813,-0.63282 c 0,0 0.15625,0.0234 0.24218,-0.0586 0.082,-0.0859 0.15235,-0.35938 -0.0586,-0.65625 -0.21484,-0.29688 -0.48047,-0.60547 -1.21484,-1.14063 -0.73829,-0.53906 -1.32422,-1.05078 -3.69141,-1.14453 -0.125,-0.004 -0.25,-0.008 -0.36719,-0.008 -2.09765,0 -2.94531,0.77344 -3.21484,1.28125"
         id="path4293-6" />
    </clipPath>
  </defs>
  <g
     inkscape:label="Layer 1"
     inkscape:groupmode="layer"
     id="layer1"
     transform="translate(-86.91346,-77.022505)">
    <path
       id="path1-6"
       style="fill:#ffffff;stroke-width:0.0229566"
       sodipodi:type="inkscape:offset"
       inkscape:radius="0.1"
       inkscape:original="M 89.689453 75.664062 C 87.787559 75.672263 85.885945 75.660363 83.984375 75.689453 C 83.966335 77.495584 83.985828 79.303043 83.986328 81.109375 C 84.183241 82.153838 84.94812 82.987331 85.833984 83.523438 C 86.32919 83.827579 86.864786 84.097501 87.439453 84.203125 L 87.517578 84.193359 C 88.29326 83.974235 88.999761 83.547043 89.636719 83.060547 C 90.348618 82.485833 90.973789 81.649986 90.925781 80.691406 C 90.930681 79.029563 90.933563 77.366662 90.908203 75.705078 C 90.544177 75.617698 90.088835 75.685573 89.689453 75.664062 z "
       d="m 90.308594,75.558594 c -0.211943,0.0035 -0.421269,0.0162 -0.613282,0.0059 a 0.10001,0.10001 0 0 0 -0.0059,0 c -1.901189,0.0082 -3.804025,-0.0037 -5.707031,0.02539 a 0.10001,0.10001 0 0 0 -0.09766,0.09766 c -0.01805,1.807517 0.0015,3.616244 0.002,5.421875 a 0.10001,0.10001 0 0 0 0.002,0.01758 c 0.203853,1.081274 0.989249,1.935746 1.892578,2.482422 0.500123,0.307161 1.047032,0.582304 1.640625,0.691406 a 0.10001,0.10001 0 0 0 0.0293,0.002 l 0.07813,-0.0098 a 0.10001,0.10001 0 0 0 0.01563,-0.0039 c 0.793116,-0.224049 1.50948,-0.65743 2.152344,-1.148437 a 0.10001,0.10001 0 0 0 0.002,-0.002 c 0.725075,-0.585351 1.373641,-1.445018 1.326172,-2.447266 v -0.0059 c 0.0049,-1.659976 0.0078,-3.321658 -0.01758,-4.982422 a 0.10001,0.10001 0 0 0 -0.07617,-0.0957 c -0.196929,-0.04727 -0.411105,-0.05232 -0.623047,-0.04883 z"
       transform="translate(3.1756391,1.6876383)" />
    <path
       style="fill:#000000;stroke-width:0.0371867"
       d="m 87.503217,83.393169 c -0.01194,-0.01931 0.007,-0.06711 0.04209,-0.106204 0.05967,-0.0665 0.448765,-0.517263 0.619589,-0.717805 0.173956,-0.204218 -0.05205,-0.0039 -0.383648,0.339998 -0.195837,0.203115 -0.362245,0.350769 -0.369795,0.328117 -0.02453,-0.07359 0.951106,-1.054644 1.021832,-1.027504 0.02804,0.01072 0.03787,-0.0034 0.02524,-0.03626 -0.03323,-0.08659 -0.147134,-0.0624 -0.257687,0.05474 -0.05639,0.05975 -0.158008,0.119034 -0.225822,0.131755 -0.127426,0.02391 -0.198575,0.109158 -0.198575,0.237951 0,0.105339 -0.09925,0.191035 -0.221225,0.191035 -0.148057,0 -0.194799,-0.07348 -0.165057,-0.259474 0.02034,-0.127253 0.0671,-0.196928 0.252115,-0.375698 0.156354,-0.151081 0.256833,-0.219574 0.322439,-0.219799 0.05673,-1.83e-4 0.137927,-0.04481 0.200597,-0.110226 0.1022,-0.106674 0.103447,-0.112708 0.0426,-0.205578 -0.03447,-0.05262 -0.05381,-0.110043 -0.04297,-0.127602 0.01083,-0.01756 -0.0051,-0.0526 -0.03564,-0.07788 -0.03688,-0.03061 -0.05537,-0.114957 -0.05537,-0.252584 0,-0.189937 -0.01083,-0.216586 -0.134556,-0.329879 -0.09426,-0.08634 -0.128818,-0.145191 -0.1154,-0.196503 0.0105,-0.0403 -0.0036,-0.09213 -0.03138,-0.115197 -0.0278,-0.02307 -0.08464,-0.133084 -0.126316,-0.244477 -0.144775,-0.386949 -0.05691,-0.539838 0.110158,-0.191686 0.106083,0.221057 0.222167,0.319074 0.414945,0.350358 0.123028,0.01997 0.14767,0.0075 0.293608,-0.147496 0.08761,-0.09311 0.197123,-0.26224 0.243343,-0.375845 0.125206,-0.307746 0.319773,-0.525729 0.532252,-0.596302 0.259565,-0.08621 0.313226,-0.0948 0.802843,-0.128468 0.580027,-0.03988 0.955666,-0.0058 1.171384,0.106488 0.09203,0.04789 0.302293,0.214404 0.467234,0.370053 0.164941,0.155649 0.361755,0.305066 0.437361,0.332038 0.125594,0.0448 0.150706,0.04159 0.290754,-0.03719 0.106171,-0.05971 0.170387,-0.129725 0.208907,-0.227725 0.05283,-0.134418 0.05031,-0.155816 -0.05036,-0.427649 -0.07837,-0.211586 -0.106258,-0.353982 -0.107057,-0.546459 -9.44e-4,-0.230039 0.0117,-0.278048 0.108797,-0.412875 0.110053,-0.152823 0.32056,-0.275081 0.473639,-0.275081 0.112552,0 0.520968,0.114525 0.584341,0.163858 0.02873,0.02236 0.07498,0.09505 0.102757,0.161526 0.02779,0.06647 0.07539,0.120858 0.105798,0.120858 0.147171,0 -0.0015,0.178816 -0.170539,0.205013 -0.184498,0.0286 -0.331982,-0.08734 -0.331982,-0.260987 0,-0.152755 -0.08012,-0.188492 -0.293674,-0.13099 -0.207059,0.05576 -0.313413,0.199359 -0.291698,0.393863 0.0093,0.08312 0.04377,0.200253 0.07666,0.260307 0.143736,0.262498 0.186671,0.381245 0.202678,0.560561 0.02052,0.229867 -0.03124,0.400817 -0.195047,0.644239 l -0.122733,0.18238 0.08917,0.131227 c 0.199304,0.293302 0.220236,0.541045 0.0729,0.86286 -0.130894,0.285911 -0.125072,0.367308 0.03363,0.470111 0.149284,0.09671 0.174317,0.237463 0.06055,0.340428 -0.08383,0.07586 -0.231197,0.463757 -0.235647,0.620257 -0.0018,0.06129 -0.01734,0.120189 -0.03466,0.130892 -0.01732,0.01072 -0.0315,0.05235 -0.0315,0.09256 0,0.08088 -0.150533,0.156032 -0.276464,0.138023 -0.06198,-0.0089 -0.0776,-0.0394 -0.08091,-0.158081 -0.0024,-0.08515 0.02522,-0.194774 0.06554,-0.260308 0.03829,-0.06226 0.08735,-0.17799 0.109005,-0.257164 0.05174,-0.189163 -2.68e-4,-0.312702 -0.180507,-0.428811 -0.07627,-0.04914 -0.185319,-0.121214 -0.242318,-0.160171 l -0.103632,-0.07083 0.0034,0.271731 c 0.0047,0.371919 -0.03628,0.74027 -0.08816,0.792148 -0.02367,0.02367 -0.09798,0.05402 -0.165138,0.06746 -0.140591,0.02812 -0.198196,-0.04767 -0.125145,-0.164641 0.05205,-0.08334 0.05536,-0.300627 0.0083,-0.542255 -0.01913,-0.09815 -0.04515,-0.242153 -0.05786,-0.319992 -0.01269,-0.07783 -0.05603,-0.174474 -0.0963,-0.214746 -0.07283,-0.07283 -0.07365,-0.07277 -0.15597,0.01369 -0.110883,0.116458 -0.254868,0.21243 -0.318697,0.21243 -0.03938,0 -0.04195,-0.01218 -0.01061,-0.04998 0.03466,-0.04177 0.0095,-0.04224 -0.153491,-0.0028 -0.107232,0.02594 -0.34158,0.05831 -0.520765,0.07195 l -0.325795,0.02478 -0.09256,0.157939 c -0.107855,0.18404 -0.111963,0.207183 -0.03677,0.207183 0.03068,0 0.05579,0.01673 0.05579,0.03719 0,0.04618 -0.121334,0.049 -0.1692,0.0039 -0.04221,-0.03975 -0.277043,-0.09328 -0.277043,-0.06315 0,0.02234 0.246737,0.134864 0.325761,0.148555 0.02578,0.0045 0.06761,0.03031 0.09296,0.05742 0.03747,0.04008 0.03218,0.04599 -0.02827,0.03158 -0.05745,-0.01371 -0.0756,0.0022 -0.07978,0.07003 -0.0042,0.06701 0.03325,0.110411 0.158045,0.183551 0.0899,0.05269 0.16345,0.110933 0.16345,0.129442 0,0.04908 -0.02816,0.04194 -0.140956,-0.03571 -0.05542,-0.03815 -0.198117,-0.131838 -0.317112,-0.208195 -0.118995,-0.07636 -0.207372,-0.147814 -0.196392,-0.158794 0.01097,-0.01097 0.06376,0.0088 0.117317,0.04383 0.05354,0.03509 0.104902,0.05625 0.114114,0.04702 0.02339,-0.02339 -0.06605,-0.212305 -0.100514,-0.212305 -0.0155,0 -0.05464,-0.01018 -0.087,-0.02257 -0.04272,-0.01639 -0.05882,-3.7e-5 -0.05882,0.05976 0,0.06271 -0.0155,0.07664 -0.06508,0.05846 -0.08397,-0.03081 0.08329,0.123987 0.436946,0.404372 0.368238,0.291943 0.351554,0.276429 0.325398,0.302585 -0.0126,0.0126 -0.128628,-0.06266 -0.257828,-0.167248 -0.262614,-0.212594 -0.257196,-0.214778 -0.315014,0.126976 l -0.03145,0.185934 -0.195232,0.01125 c -0.173978,0.01007 -0.195231,0.0032 -0.195231,-0.06289 0,-0.04077 -0.01467,-0.08319 -0.03262,-0.09428 -0.01793,-0.01109 -0.05253,-0.09992 -0.07686,-0.197427 -0.09142,-0.366236 -0.231813,-0.711609 -0.281517,-0.692535 -0.04785,0.01836 -0.116312,0.328931 -0.156602,0.710497 -0.01133,0.107374 -0.03735,0.195231 -0.0578,0.195231 -0.03463,0 -0.0234,-0.19405 0.02905,-0.502023 0.01194,-0.07009 -0.0077,-0.04244 -0.05272,0.07437 -0.03944,0.102265 -0.07302,0.222599 -0.0746,0.267411 -0.0026,0.07363 -0.06393,0.149874 -0.09449,0.117479 -0.01182,-0.01253 0.0823,-0.393495 0.163908,-0.663545 0.02159,-0.07146 0.03872,-0.163488 0.03807,-0.204528 -0.0012,-0.0746 -0.0012,-0.0746 -0.05598,-2.67e-4 -0.105043,0.142556 -0.260882,0.330901 -0.551341,0.66634 -0.387638,0.447683 -0.383291,0.443397 -0.408444,0.4027 z m 1.909436,-0.120344 c 0,-0.02022 -0.04184,-0.0333 -0.09297,-0.02907 -0.05114,0.0042 -0.09296,0.02078 -0.09296,0.03677 0,0.016 0.04184,0.02908 0.09296,0.02908 0.05114,0 0.09297,-0.01654 0.09297,-0.03677 z M 89.121511,82.88752 c -0.04174,-0.08488 -0.08687,-0.193234 -0.100295,-0.240794 -0.01342,-0.04756 -0.03293,-0.07795 -0.04335,-0.06754 -0.01039,0.01039 0.01903,0.146809 0.06543,0.3031 0.06544,0.220435 0.09218,0.270192 0.119228,0.22186 0.02446,-0.04371 0.01222,-0.10837 -0.04102,-0.216628 z m 0.312177,0.240091 c -0.01129,-0.01828 0.0058,-0.09605 0.03778,-0.172817 0.05523,-0.132177 0.05434,-0.143556 -0.01662,-0.214518 l -0.07493,-0.07493 -0.02417,0.108304 c -0.01329,0.05956 -0.04658,0.157829 -0.07397,0.21836 -0.06008,0.132755 -0.04309,0.168845 0.0795,0.168845 0.05114,0 0.08373,-0.01496 0.07243,-0.03324 z m 3.166484,-0.199182 c 0.02287,-0.06647 0.08585,-0.265895 0.139967,-0.443163 0.05411,-0.177267 0.122437,-0.331532 0.151827,-0.34281 0.08408,-0.03226 0.06248,-0.163946 -0.03765,-0.229557 -0.0501,-0.03282 -0.109136,-0.11438 -0.131204,-0.181233 -0.03499,-0.106028 -0.02574,-0.151934 0.07246,-0.359526 0.06193,-0.130886 0.112226,-0.296546 0.111793,-0.36813 -8.44e-4,-0.139327 -0.09858,-0.384085 -0.223326,-0.559278 -0.07248,-0.101795 -0.07329,-0.112751 -0.01492,-0.201826 0.03395,-0.05181 0.07357,-0.09419 0.08803,-0.09419 0.01448,0 0.06514,-0.07773 0.112596,-0.172753 0.130064,-0.260426 0.116954,-0.491229 -0.0463,-0.815183 -0.169395,-0.336147 -0.197764,-0.485929 -0.12501,-0.660053 0.07188,-0.172034 0.253711,-0.284155 0.470084,-0.289864 l 0.16734,-0.0044 -0.148747,-0.02948 c -0.112047,-0.02221 -0.186969,-0.01283 -0.303656,0.03799 -0.177711,0.0774 -0.249961,0.172069 -0.31349,0.410794 -0.04197,0.157701 -0.03595,0.195722 0.08967,0.567121 0.07406,0.218947 0.125204,0.427363 0.113646,0.463142 -0.0889,0.27521 -0.299054,0.455516 -0.530944,0.455516 -0.155336,0 -0.377779,-0.145666 -0.652656,-0.427394 -0.357544,-0.366452 -0.535077,-0.430671 -1.186328,-0.429132 -0.424771,0.001 -0.933143,0.07077 -1.120904,0.153825 -0.224824,0.09945 -0.37844,0.289336 -0.504789,0.623971 -0.02613,0.06919 -0.08596,0.171508 -0.132968,0.227374 l -0.08547,0.101576 0.27664,0.02506 c 0.234639,0.02126 0.29856,0.01388 0.421028,-0.0486 0.151271,-0.07718 0.259354,-0.210073 0.302719,-0.372229 0.01415,-0.0529 0.05381,-0.101586 0.08813,-0.108205 0.05242,-0.01007 0.06241,0.02132 0.06241,0.196425 0,0.114647 -0.02363,0.265014 -0.05253,0.33415 -0.0657,0.157242 -0.395868,0.504086 -0.479851,0.504086 -0.09062,0 -0.07687,-0.06438 0.02106,-0.09861 0.07213,-0.02522 0.06316,-0.03197 -0.06508,-0.04899 -0.139078,-0.01847 -0.148722,-0.0276 -0.148369,-0.140603 3.66e-4,-0.115752 -0.0059,-0.121003 -0.148748,-0.124306 -0.474913,-0.01097 -0.61396,0.03742 -0.61396,0.213741 0,0.08815 -0.05152,0.117076 -0.09196,0.05164 -0.01209,-0.01956 -0.04801,-0.02557 -0.07984,-0.01336 -0.04741,0.0182 -0.03973,0.03902 0.04259,0.115347 0.08937,0.08285 0.0985,0.113411 0.0828,0.276812 -0.01121,0.116782 -0.0026,0.188164 0.02368,0.196011 0.02272,0.0068 0.08447,0.02171 0.137216,0.03315 0.09825,0.02132 0.183011,0.153149 0.183011,0.284649 0,0.03995 -0.01492,0.07261 -0.03316,0.07261 -0.04181,0 -0.08814,-0.17729 -0.05875,-0.224831 0.03329,-0.05387 -0.07917,-0.04241 -0.124931,0.01274 -0.04674,0.05631 0.07265,0.267877 0.151168,0.267877 0.0259,0 0.04708,0.03347 0.04708,0.07437 0,0.04091 -0.02092,0.0702 -0.04649,0.06508 -0.02557,-0.0051 -0.04649,0.0054 -0.04649,0.02334 0,0.06321 0.122942,0.133666 0.212691,0.121905 0.04993,-0.0066 0.120066,0.01459 0.155843,0.04697 0.06061,0.05486 0.07432,0.04301 0.201013,-0.173612 0.07478,-0.127864 0.170313,-0.253934 0.212299,-0.280155 0.04198,-0.02621 0.06474,-0.06644 0.05055,-0.08939 -0.01495,-0.02418 -0.0091,-0.03142 0.01385,-0.01722 0.04372,0.02701 0.104333,-0.24658 0.06774,-0.305781 -0.02754,-0.04455 0.0128,-0.153467 0.05684,-0.153467 0.05522,0 0.03677,0.382742 -0.02406,0.499402 -0.03125,0.05992 -0.08971,0.131987 -0.129925,0.160153 -0.100471,0.07036 -0.09302,0.101455 0.05705,0.238002 0.07159,0.06514 0.130153,0.141704 0.130153,0.17014 0,0.02844 0.06099,0.07719 0.135553,0.108337 0.138223,0.05776 0.196975,0.03295 0.198559,-0.08383 3.09e-4,-0.0231 0.06333,-0.101258 0.14002,-0.173686 0.563725,-0.53236 0.514234,-0.464008 0.564088,-0.779068 0.02508,-0.15851 0.06112,-0.288198 0.08009,-0.288198 0.04768,0 0.0433,0.08802 -0.01919,0.386759 -0.04317,0.206338 -0.08034,0.28388 -0.189828,0.396004 -0.121045,0.123961 -0.128417,0.141877 -0.06647,0.161537 0.09226,0.02928 0.564951,-0.06233 0.719575,-0.139477 0.06734,-0.0336 0.143161,-0.06108 0.168469,-0.06108 0.02531,0 0.124197,-0.06461 0.219749,-0.143563 0.09555,-0.07896 0.239316,-0.163211 0.319474,-0.187229 0.135684,-0.04066 0.149819,-0.05834 0.204734,-0.256196 0.0859,-0.309465 0.101412,-0.340079 0.119432,-0.235644 0.0084,0.04864 -0.003,0.160643 -0.02514,0.248884 -0.09302,0.369404 9.44e-4,0.617515 0.308248,0.814106 0.340663,0.21792 0.389454,0.363422 0.244871,0.730233 -0.04172,0.105832 -0.07142,0.219407 -0.06601,0.252387 0.0054,0.03298 -0.0033,0.08089 -0.01931,0.106456 -0.01943,0.03097 -0.0061,0.04649 0.03995,0.04649 0.04464,0 0.08382,-0.04278 0.110676,-0.120857 z M 88.73027,81.507324 c -0.03785,-0.02867 -0.05778,-0.06997 -0.04429,-0.09178 0.03102,-0.05019 0.268326,-0.05213 0.299023,-0.0025 0.01265,0.02046 -0.0031,0.03719 -0.03499,0.03719 -0.03189,0 -0.05798,0.0251 -0.05798,0.05579 0,0.06937 -0.07115,0.06995 -0.161767,0.0013 z m 0.499375,1.044158 c -0.03229,-0.01813 -0.09866,-0.06833 -0.147477,-0.11156 -0.04883,-0.04323 -0.0823,-0.06165 -0.07437,-0.04094 0.0079,0.02071 0.05623,0.151695 0.107363,0.291081 l 0.09296,0.253428 0.04011,-0.17952 c 0.03411,-0.152657 0.03133,-0.184454 -0.0186,-0.212489 z m 2.611582,0.246794 c 0.0091,-0.03579 0.01827,-0.14671 0.0205,-0.246481 0.0022,-0.09977 0.02055,-0.201267 0.04069,-0.225543 0.02219,-0.02673 0.02514,-0.116856 0.0074,-0.228595 -0.01604,-0.101455 -0.01734,-0.228633 -0.003,-0.282624 0.0286,-0.106948 -0.06266,-0.439154 -0.120632,-0.439154 -0.05743,0 -0.237618,0.102735 -0.289204,0.164889 -0.02658,0.03202 -0.03223,0.05823 -0.01256,0.05823 0.05559,0 0.129302,0.188279 0.140734,0.359498 0.0057,0.08524 0.0209,0.172037 0.03379,0.192894 0.03618,0.05856 0.101806,0.635803 0.07686,0.676166 -0.01217,0.01968 0.0028,0.03579 0.03335,0.03579 0.0305,0 0.06287,-0.02928 0.0719,-0.06508 z m -4.194949,-0.120858 c 0.01303,-0.02109 -0.01821,-0.03719 -0.07219,-0.03719 -0.05233,0 -0.09516,0.01673 -0.09516,0.03719 0,0.02046 0.03248,0.03719 0.07219,0.03719 0.0397,0 0.08252,-0.01673 0.09516,-0.03719 z m 0.04821,-0.22261 c 0.03702,-0.06491 0.124509,-0.135602 0.210557,-0.170143 0.08096,-0.03251 0.168429,-0.08939 0.194362,-0.126417 0.02594,-0.03702 0.08938,-0.07792 0.140989,-0.09087 0.06801,-0.01707 0.09383,-0.04834 0.09383,-0.113615 0,-0.08864 -0.05613,-0.160208 -0.08049,-0.102637 -0.02198,0.05194 -0.245062,0.194119 -0.304563,0.194119 -0.03162,0 -0.07086,0.02138 -0.08723,0.04749 -0.01636,0.02612 -0.100853,0.102823 -0.187781,0.170465 -0.108391,0.08434 -0.158045,0.151207 -0.158045,0.212822 0,0.126601 0.100898,0.114604 0.178368,-0.02121 z m 1.6066,-0.108435 c 0,-0.01845 -0.05439,-0.05186 -0.120856,-0.07425 l -0.120858,-0.0407 0.09296,0.07343 c 0.10163,0.08026 0.148747,0.09341 0.148747,0.04153 z M 88.706099,82.1732 c 0,-0.009 -0.02609,-0.0164 -0.05796,-0.0164 -0.03189,0 -0.04746,0.01701 -0.03462,0.03779 0.02123,0.03436 0.09259,0.01786 0.09259,-0.02139 z m 0.558259,-0.08992 c -0.06038,-0.112824 -0.173662,-0.162035 -0.202142,-0.08781 -0.01276,0.03324 -0.01861,0.0641 -0.01301,0.06861 0.0082,0.0066 0.204512,0.0789 0.243898,0.0898 0.0058,0.0016 -0.0071,-0.03015 -0.02874,-0.07059 z m 0.111104,-1.43474 c 0,-0.009 -0.02609,-0.0164 -0.05798,-0.0164 -0.03189,0 -0.04746,0.01701 -0.03462,0.0378 0.02123,0.03434 0.09259,0.01786 0.09259,-0.0214 z m -0.03629,-0.10477 c 0.133814,-0.02391 0.220985,-0.135994 0.278327,-0.357877 0.02209,-0.08548 0.01829,-0.08398 -0.0472,0.0186 -0.09174,0.143698 -0.145891,0.185063 -0.312408,0.238667 -0.12635,0.04067 -0.179926,0.09956 -0.179926,0.197787 0,0.02197 0.02924,0.01436 0.06508,-0.01693 0.03579,-0.03126 0.12405,-0.06737 0.196131,-0.08024 z m -1.200158,0.02328 c 0.0085,-0.02557 -0.0078,-0.04649 -0.03607,-0.04649 -0.02836,0 -0.12597,-0.05439 -0.216924,-0.120858 l -0.16537,-0.120858 0.07155,0.110849 c 0.136751,0.211834 0.306437,0.298606 0.34681,0.177349 z m 5.587306,-1.978003 c 0,-0.01924 -0.01673,-0.04534 -0.03719,-0.05798 -0.02046,-0.01265 -0.03719,-0.05452 -0.03719,-0.09305 0,-0.06446 -0.1267,-0.185848 -0.19398,-0.185848 -0.04147,0 -0.0022,0.258997 0.0486,0.32015 0.04809,0.05794 0.219749,0.07102 0.219749,0.01673 z"
       id="path2386-3" />
    <path
       style="fill:#000000;stroke-width:0.0229566"
       d="m 90.470542,85.99893 c -1.112454,-0.317395 -2.16517,-0.943968 -2.889951,-1.856712 -0.439725,-0.566062 -0.680684,-1.274448 -0.658843,-1.992216 -0.01791,-1.709016 -0.0044,-3.418358 -0.0083,-5.127518 2.471118,0 4.942237,0 7.413355,0 -0.0032,1.878039 0.0085,3.756247 -0.01061,5.634151 -0.076,0.400216 -0.208474,0.800085 -0.439861,1.144319 -0.628864,0.963808 -1.645431,1.593328 -2.680199,2.043674 -0.231447,0.06092 -0.483998,0.228833 -0.725597,0.154302 z m 0.220316,-0.217896 c 0.775682,-0.219124 1.481757,-0.646533 2.118715,-1.133029 0.711899,-0.574714 1.33719,-1.410383 1.289182,-2.368963 0.0049,-1.661843 0.0079,-3.324206 -0.01746,-4.98579 -0.364026,-0.08738 -0.818018,-0.01975 -1.2174,-0.04126 -1.901894,0.0082 -3.804264,-0.0036 -5.705834,0.02549 -0.01804,1.806131 0.0014,3.612729 0.0019,5.419061 0.196913,1.044463 0.962223,1.877567 1.848087,2.413674 0.495206,0.304141 1.030661,0.575111 1.605328,0.680735 l 0.07751,-0.01 z"
       id="path1" />
  </g>
</svg>
